<?xml version="1.0"?>
<svg xmlns="http://www.w3.org/2000/svg" width="1920" height="1080" viewBox="-960 -540 1920 1080">
    <path d="M-415.60,-147L-415.60,-285.75L-346.22,-285.75L-346.22,-278.81L-339.29,-278.81L-339.29,-271.88L-332.35,-271.88L-332.35,-264.94L-325.41,-264.94L-325.41,-230.25L-332.35,-230.25L-332.35,-216.38L-325.41,-216.38L-325.41,-209.44L-318.47,-209.44L-318.47,-167.81L-325.41,-167.81L-325.41,-160.88L-332.35,-160.88L-332.35,-153.94L-339.29,-153.94L-339.29,-147ZM-394.79,-167.81L-346.22,-167.81L-346.22,-174.75L-339.29,-174.75L-339.29,-202.50L-346.22,-202.50L-346.22,-209.44L-394.79,-209.44ZM-394.79,-230.25L-353.16,-230.25L-353.16,-237.19L-346.22,-237.19L-346.22,-258L-353.16,-258L-353.16,-264.94L-394.79,-264.94ZM-299.18,-174.75L-299.18,-223.31L-292.24,-223.31L-292.24,-237.19L-285.30,-237.19L-285.30,-244.13L-271.43,-244.13L-271.43,-251.06L-243.68,-251.06L-243.68,-244.13L-236.74,-244.13L-236.74,-237.19L-229.80,-237.19L-229.80,-251.06L-208.99,-251.06L-208.99,-147L-229.80,-147L-229.80,-160.88L-236.74,-160.88L-236.74,-153.94L-243.68,-153.94L-243.68,-147L-271.43,-147L-271.43,-153.94L-285.30,-153.94L-285.30,-160.88L-292.24,-160.88L-292.24,-174.75ZM-278.37,-174.75L-271.43,-174.75L-271.43,-167.81L-243.68,-167.81L-243.68,-174.75L-236.74,-174.75L-236.74,-181.69L-229.80,-181.69L-229.80,-216.38L-236.74,-216.38L-236.74,-223.31L-243.68,-223.31L-243.68,-230.25L-271.43,-230.25L-271.43,-223.31L-278.37,-223.31ZM-186.66,-160.88L-186.66,-251.06L-165.85,-251.06L-165.85,-174.75L-158.91,-174.75L-158.91,-167.81L-138.10,-167.81L-138.10,-174.75L-131.16,-174.75L-131.16,-181.69L-124.22,-181.69L-124.22,-251.06L-103.41,-251.06L-103.41,-147L-124.22,-147L-124.22,-160.88L-131.16,-160.88L-131.16,-153.94L-138.10,-153.94L-138.10,-147L-172.79,-147L-172.79,-153.94L-179.72,-153.94L-179.72,-160.88ZM-80.00,-147L-80.00,-285.75L3.25,-285.75L3.25,-264.94L-59.19,-264.94L-59.19,-230.25L3.25,-230.25L3.25,-209.44L-59.19,-209.44L-59.19,-167.81L3.25,-167.81L3.25,-147ZM27.53,-147L27.53,-251.06L48.35,-251.06L48.35,-237.19L55.28,-237.19L55.28,-244.13L62.22,-244.13L62.22,-251.06L89.97,-251.06L89.97,-244.13L96.91,-244.13L96.91,-237.19L103.85,-237.19L103.85,-223.31L96.91,-223.31L96.91,-216.38L89.97,-216.38L89.97,-223.31L83.03,-223.31L83.03,-230.25L62.22,-230.25L62.22,-223.31L55.28,-223.31L55.28,-216.38L48.35,-216.38L48.35,-147ZM118.37,-174.75L118.37,-223.31L125.31,-223.31L125.31,-237.19L132.25,-237.19L132.25,-244.13L146.12,-244.13L146.12,-251.06L173.87,-251.06L173.87,-244.13L180.81,-244.13L180.81,-237.19L187.75,-237.19L187.75,-285.75L208.56,-285.75L208.56,-147L187.75,-147L187.75,-160.88L180.81,-160.88L180.81,-153.94L173.87,-153.94L173.87,-147L146.12,-147L146.12,-153.94L132.25,-153.94L132.25,-160.88L125.31,-160.88L125.31,-174.75ZM139.18,-174.75L146.12,-174.75L146.12,-167.81L173.87,-167.81L173.87,-174.75L180.81,-174.75L180.81,-181.69L187.75,-181.69L187.75,-216.38L180.81,-216.38L180.81,-223.31L173.87,-223.31L173.87,-230.25L146.12,-230.25L146.12,-223.31L139.18,-223.31ZM230.46,-174.75L230.46,-223.31L237.39,-223.31L237.39,-237.19L244.33,-237.19L244.33,-244.13L258.21,-244.13L258.21,-251.06L285.96,-251.06L285.96,-244.13L299.83,-244.13L299.83,-237.19L306.77,-237.19L306.77,-223.31L313.71,-223.31L313.71,-195.56L251.27,-195.56L251.27,-174.75L258.21,-174.75L258.21,-167.81L285.96,-167.81L285.96,-174.75L292.89,-174.75L292.89,-181.69L313.71,-181.69L313.71,-167.81L306.77,-167.81L306.77,-160.88L299.83,-160.88L299.83,-153.94L285.96,-153.94L285.96,-147L258.21,-147L258.21,-153.94L244.33,-153.94L244.33,-160.88L237.39,-160.88L237.39,-174.75ZM251.27,-209.44L292.89,-209.44L292.89,-223.31L285.96,-223.31L285.96,-230.25L258.21,-230.25L258.21,-223.31L251.27,-223.31ZM334.30,-147L334.30,-251.06L355.11,-251.06L355.11,-237.19L362.05,-237.19L362.05,-244.13L368.99,-244.13L368.99,-251.06L389.80,-251.06L389.80,-244.13L403.68,-244.13L403.68,-237.19L410.61,-237.19L410.61,-223.31L417.55,-223.31L417.55,-147L396.74,-147L396.74,-223.31L389.80,-223.31L389.80,-230.25L368.99,-230.25L368.99,-223.31L362.05,-223.31L362.05,-216.38L355.11,-216.38L355.11,-147Z" fill="#ffffff" stroke="#000000"/>
    <path d="M-424.01,-121.43L-430.91,-258.62L-362.31,-262.07L-361.97,-255.21L-355.11,-255.55L-354.76,-248.70L-347.90,-249.04L-347.56,-242.18L-340.70,-242.53L-338.98,-208.23L-345.83,-207.88L-345.15,-194.16L-338.29,-194.51L-337.94,-187.65L-331.08,-187.99L-329.01,-146.84L-335.87,-146.49L-335.53,-139.63L-342.39,-139.29L-342.04,-132.43L-348.90,-132.08L-348.56,-125.23ZM-404.47,-143.05L-356.45,-145.46L-356.80,-152.32L-349.94,-152.66L-351.32,-180.10L-358.17,-179.76L-358.52,-186.62L-406.54,-184.20ZM-407.57,-204.78L-366.41,-206.85L-366.76,-213.71L-359.90,-214.05L-360.93,-234.63L-367.79,-234.29L-368.14,-241.15L-409.29,-239.08ZM-310.28,-154.66L-312.69,-202.67L-305.83,-203.02L-306.52,-216.74L-299.66,-217.08L-300.01,-223.94L-286.29,-224.63L-286.63,-231.49L-259.20,-232.87L-258.85,-226.01L-251.99,-226.35L-251.65,-219.49L-244.79,-219.84L-245.48,-233.56L-224.90,-234.59L-219.73,-131.70L-240.31,-130.66L-241.00,-144.38L-247.86,-144.04L-247.51,-137.18L-254.37,-136.83L-254.03,-129.98L-281.46,-128.60L-281.81,-135.46L-295.53,-134.77L-295.87,-141.63L-302.73,-141.28L-303.42,-155.00ZM-289.70,-155.69L-282.84,-156.03L-282.50,-149.17L-255.06,-150.55L-255.40,-157.41L-248.55,-157.76L-248.89,-164.62L-242.03,-164.96L-243.75,-199.26L-250.61,-198.91L-250.96,-205.77L-257.82,-205.43L-258.16,-212.29L-285.60,-210.91L-285.26,-204.05L-292.11,-203.71ZM-198.34,-146.53L-202.82,-235.70L-182.24,-236.73L-178.45,-161.28L-171.59,-161.62L-171.25,-154.77L-150.67,-155.80L-151.01,-162.66L-144.15,-163.00L-144.50,-169.86L-137.64,-170.21L-141.08,-238.80L-120.51,-239.84L-115.34,-136.94L-135.91,-135.91L-136.60,-149.63L-143.46,-149.28L-143.12,-142.43L-149.98,-142.08L-149.63,-135.22L-183.93,-133.50L-184.28,-140.36L-191.13,-140.01L-191.48,-146.87ZM-92.19,-138.11L-99.08,-275.30L-16.77,-279.43L-15.73,-258.85L-77.47,-255.75L-75.74,-221.46L-14.01,-224.56L-12.97,-203.98L-74.71,-200.88L-72.64,-159.72L-10.91,-162.82L-9.87,-142.24ZM14.14,-143.45L8.97,-246.34L29.54,-247.38L30.23,-233.66L37.09,-234.00L36.75,-240.86L43.61,-241.21L43.26,-248.07L70.70,-249.44L71.05,-242.58L77.91,-242.93L78.25,-236.07L85.11,-236.41L85.80,-222.70L78.94,-222.35L79.28,-215.49L72.42,-215.15L72.08,-222.01L65.22,-221.66L64.88,-228.52L44.30,-227.49L44.64,-220.63L37.78,-220.28L38.13,-213.42L31.27,-213.08L34.71,-144.48ZM102.57,-175.40L100.16,-223.42L107.02,-223.76L106.33,-237.48L113.19,-237.83L112.85,-244.69L126.56,-245.37L126.22,-252.23L153.66,-253.61L154.00,-246.75L160.86,-247.10L161.21,-240.24L168.07,-240.58L165.65,-288.60L186.23,-289.63L193.13,-152.44L172.55,-151.41L171.86,-165.13L165.00,-164.78L165.34,-157.93L158.48,-157.58L158.83,-150.72L131.39,-149.34L131.05,-156.20L117.33,-155.51L116.98,-162.37L110.12,-162.03L109.43,-175.75ZM123.15,-176.44L130.01,-176.78L130.36,-169.92L157.79,-171.30L157.45,-178.16L164.31,-178.50L163.96,-185.36L170.82,-185.71L169.10,-220.00L162.24,-219.66L161.90,-226.52L155.04,-226.18L154.69,-233.03L127.25,-231.66L127.60,-224.80L120.74,-224.45ZM213.40,-180.97L210.98,-228.99L217.84,-229.33L217.15,-243.05L224.01,-243.39L223.67,-250.25L237.39,-250.94L237.04,-257.80L264.48,-259.18L264.83,-252.32L278.55,-253.01L278.89,-246.15L285.75,-246.50L286.44,-232.78L293.30,-233.12L294.68,-205.68L232.94,-202.58L233.98,-182.00L240.84,-182.35L241.18,-175.49L268.62,-176.87L268.27,-183.73L275.13,-184.07L274.79,-190.93L295.37,-191.97L296.06,-178.25L289.20,-177.90L289.54,-171.04L282.68,-170.70L283.03,-163.84L269.31,-163.15L269.65,-156.29L242.21,-154.91L241.87,-161.77L228.15,-161.08L227.81,-167.94L220.95,-167.60L220.26,-181.31ZM232.25,-216.30L273.41,-218.37L272.72,-232.09L265.86,-231.74L265.52,-238.60L238.08,-237.22L238.42,-230.37L231.56,-230.02ZM317.45,-158.69L312.28,-261.58L332.86,-262.62L333.55,-248.90L340.41,-249.24L340.07,-256.10L346.93,-256.45L346.58,-263.31L367.16,-264.34L367.50,-257.48L381.22,-258.17L381.57,-251.31L388.43,-251.66L389.12,-237.94L395.98,-238.28L399.77,-162.83L379.19,-161.79L375.40,-237.25L368.54,-236.90L368.19,-243.76L347.61,-242.73L347.96,-235.87L341.10,-235.52L341.44,-228.67L334.59,-228.32L338.03,-159.73Z" fill="#ffffff" stroke="#000000"/>
    <path d="M-430.79,-95.48L-444.42,-230.77L-376.77,-237.58L-376.09,-230.82L-369.33,-231.50L-368.65,-224.73L-361.88,-225.42L-361.20,-218.65L-354.44,-219.33L-351.03,-185.51L-357.79,-184.83L-356.43,-171.30L-349.67,-171.98L-348.98,-165.22L-342.22,-165.90L-338.13,-125.31L-344.89,-124.63L-344.21,-117.87L-350.98,-117.18L-350.30,-110.42L-357.06,-109.74L-356.38,-102.97ZM-412.54,-117.81L-365.19,-122.59L-365.87,-129.35L-359.11,-130.03L-361.83,-157.09L-368.60,-156.41L-369.28,-163.17L-416.63,-158.40ZM-418.67,-178.69L-378.09,-182.78L-378.77,-189.55L-372.00,-190.23L-374.05,-210.52L-380.81,-209.84L-381.49,-216.61L-422.08,-212.52ZM-320.00,-133.97L-324.77,-181.32L-318.00,-182.00L-319.37,-195.53L-312.60,-196.21L-313.28,-202.98L-299.76,-204.34L-300.44,-211.11L-273.38,-213.83L-272.70,-207.07L-265.93,-207.75L-265.25,-200.99L-258.49,-201.67L-259.85,-215.20L-239.56,-217.24L-229.33,-115.77L-249.63,-113.73L-250.99,-127.26L-257.75,-126.58L-257.07,-119.81L-263.84,-119.13L-263.16,-112.37L-290.21,-109.64L-290.90,-116.40L-304.42,-115.04L-305.11,-121.81L-311.87,-121.12L-313.23,-134.65ZM-299.70,-136.02L-292.94,-136.70L-292.26,-129.93L-265.20,-132.66L-265.88,-139.42L-259.12,-140.11L-259.80,-146.87L-253.03,-147.55L-256.44,-181.37L-263.21,-180.69L-263.89,-187.46L-270.65,-186.78L-271.33,-193.54L-298.39,-190.81L-297.71,-184.05L-304.48,-183.37ZM-208.92,-131.50L-217.78,-219.43L-197.49,-221.48L-189.99,-147.07L-183.23,-147.75L-182.55,-140.99L-162.25,-143.03L-162.93,-149.80L-156.17,-150.48L-156.85,-157.24L-150.09,-157.92L-156.90,-225.57L-136.61,-227.61L-126.39,-126.15L-146.68,-124.10L-148.04,-137.63L-154.81,-136.95L-154.13,-130.18L-160.89,-129.50L-160.21,-122.74L-194.03,-119.33L-194.71,-126.09L-201.48,-125.41L-202.16,-132.18ZM-103.56,-128.45L-117.19,-263.74L-36.01,-271.91L-33.97,-251.62L-94.85,-245.49L-91.44,-211.66L-30.56,-217.80L-28.52,-197.51L-89.40,-191.37L-85.31,-150.78L-24.43,-156.92L-22.38,-136.62ZM1.29,-139.01L-8.93,-240.48L11.36,-242.52L12.73,-228.99L19.49,-229.67L18.81,-236.44L25.57,-237.12L24.89,-243.89L51.95,-246.61L52.63,-239.85L59.40,-240.53L60.08,-233.76L66.84,-234.45L68.21,-220.92L61.44,-220.23L62.12,-213.47L55.36,-212.79L54.68,-219.55L47.91,-218.87L47.23,-225.64L26.94,-223.59L27.62,-216.83L20.85,-216.15L21.54,-209.38L14.77,-208.70L21.59,-141.05ZM87.14,-174.99L82.37,-222.34L89.13,-223.03L87.77,-236.55L94.54,-237.24L93.85,-244.00L107.38,-245.36L106.70,-252.13L133.76,-254.85L134.44,-248.09L141.21,-248.77L141.89,-242.01L148.65,-242.69L143.88,-290.04L164.17,-292.08L177.81,-156.79L157.51,-154.75L156.15,-168.28L149.38,-167.60L150.07,-160.83L143.30,-160.15L143.98,-153.39L116.92,-150.66L116.24,-157.42L102.71,-156.06L102.03,-162.83L95.27,-162.14L93.90,-175.67ZM107.43,-177.04L114.20,-177.72L114.88,-170.95L141.94,-173.68L141.26,-180.44L148.02,-181.13L147.34,-187.89L154.10,-188.57L150.70,-222.39L143.93,-221.71L143.25,-228.48L136.49,-227.80L135.80,-234.56L108.75,-231.83L109.43,-225.07L102.66,-224.39ZM196.43,-186.00L191.66,-233.35L198.42,-234.04L197.06,-247.57L203.82,-248.25L203.14,-255.01L216.67,-256.37L215.99,-263.14L243.05,-265.87L243.73,-259.10L257.26,-260.46L257.94,-253.70L264.71,-254.38L266.07,-240.85L272.83,-241.53L275.56,-214.48L214.68,-208.34L216.72,-188.05L223.49,-188.73L224.17,-181.96L251.23,-184.69L250.55,-191.46L257.31,-192.14L256.63,-198.90L276.92,-200.95L278.28,-187.42L271.52,-186.74L272.20,-179.97L265.44,-179.29L266.12,-172.53L252.59,-171.16L253.27,-164.40L226.21,-161.67L225.53,-168.44L212.00,-167.07L211.32,-173.84L204.56,-173.16L203.19,-186.68ZM213.32,-221.87L253.90,-225.96L252.54,-239.49L245.77,-238.81L245.09,-245.57L218.04,-242.85L218.72,-236.08L211.95,-235.40ZM300.41,-169.15L290.19,-270.61L310.48,-272.66L311.85,-259.13L318.61,-259.81L317.93,-266.58L324.69,-267.26L324.01,-274.02L344.30,-276.07L344.99,-269.30L358.52,-270.67L359.20,-263.90L365.96,-264.58L367.32,-251.05L374.09,-251.74L381.59,-177.33L361.29,-175.28L353.80,-249.69L347.03,-249.01L346.35,-255.77L326.06,-253.73L326.74,-246.96L319.97,-246.28L320.65,-239.52L313.89,-238.84L320.71,-171.19Z" fill="#ffffff" stroke="#000000"/>
    <path d="M-435.92,-69.23L-456.11,-202.30L-389.58,-212.39L-388.57,-205.74L-381.92,-206.75L-380.91,-200.10L-374.25,-201.11L-373.24,-194.45L-366.59,-195.46L-361.54,-162.20L-368.19,-161.19L-366.18,-147.88L-359.52,-148.89L-358.51,-142.24L-351.86,-143.25L-345.80,-103.33L-352.45,-102.32L-351.44,-95.67L-358.10,-94.66L-357.09,-88.00L-363.74,-86.99L-362.73,-80.34ZM-418.99,-92.22L-372.41,-99.29L-373.42,-105.94L-366.77,-106.95L-370.81,-133.57L-377.46,-132.56L-378.47,-139.21L-425.04,-132.14ZM-428.07,-152.10L-388.15,-158.16L-389.16,-164.81L-382.51,-165.82L-385.54,-185.78L-392.19,-184.77L-393.20,-191.43L-433.12,-185.37ZM-328.31,-112.79L-335.37,-159.36L-328.72,-160.37L-330.74,-173.68L-324.09,-174.69L-325.10,-181.34L-311.79,-183.36L-312.80,-190.02L-286.19,-194.05L-285.18,-187.40L-278.53,-188.41L-277.52,-181.76L-270.86,-182.77L-272.88,-196.07L-252.92,-199.10L-237.78,-99.31L-257.74,-96.28L-259.75,-109.58L-266.41,-108.57L-265.40,-101.92L-272.05,-100.91L-271.04,-94.26L-297.65,-90.22L-298.66,-96.87L-311.97,-94.85L-312.98,-101.50L-319.63,-100.49L-321.65,-113.80ZM-308.35,-115.82L-301.69,-116.83L-300.68,-110.18L-274.07,-114.22L-275.08,-120.87L-268.43,-121.88L-269.44,-128.53L-262.78,-129.54L-267.83,-162.81L-274.49,-161.80L-275.50,-168.45L-282.15,-167.44L-283.16,-174.09L-309.77,-170.06L-308.76,-163.40L-315.41,-162.39ZM-218.38,-115.86L-231.51,-202.35L-211.55,-205.38L-200.44,-132.20L-193.79,-133.21L-192.78,-126.55L-172.82,-129.58L-173.83,-136.24L-167.17,-137.25L-168.18,-143.90L-161.53,-144.91L-171.63,-211.44L-151.67,-214.47L-136.52,-114.67L-156.48,-111.64L-158.50,-124.95L-165.15,-123.94L-164.14,-117.29L-170.80,-116.28L-169.79,-109.62L-203.05,-104.58L-204.06,-111.23L-210.72,-110.22L-211.73,-116.87ZM-114.07,-118.08L-134.26,-251.14L-54.42,-263.26L-51.40,-243.30L-111.27,-234.21L-106.23,-200.95L-46.35,-210.04L-43.32,-190.08L-103.20,-180.99L-97.14,-141.07L-37.26,-150.16L-34.23,-130.20ZM-10.94,-133.73L-26.09,-233.53L-6.13,-236.56L-4.11,-223.25L2.54,-224.26L1.53,-230.92L8.19,-231.93L7.18,-238.58L33.79,-242.62L34.80,-235.96L41.45,-236.97L42.46,-230.32L49.11,-231.33L51.13,-218.02L44.48,-217.01L45.49,-210.36L38.84,-209.35L37.83,-216.00L31.17,-215.00L30.16,-221.65L10.21,-218.62L11.21,-211.97L4.56,-210.96L5.57,-204.30L-1.08,-203.29L9.02,-136.76ZM72.13,-173.57L65.06,-220.14L71.72,-221.15L69.70,-234.45L76.35,-235.46L75.34,-242.12L88.65,-244.14L87.64,-250.79L114.25,-254.83L115.26,-248.18L121.91,-249.19L122.92,-242.53L129.58,-243.54L122.51,-290.11L142.47,-293.14L162.66,-160.08L142.70,-157.05L140.68,-170.36L134.03,-169.35L135.04,-162.69L128.39,-161.68L129.40,-155.03L102.78,-150.99L101.77,-157.65L88.47,-155.63L87.46,-162.28L80.81,-161.27L78.79,-174.58ZM92.09,-176.60L98.75,-177.61L99.76,-170.95L126.37,-174.99L125.36,-181.64L132.01,-182.65L131.00,-189.31L137.65,-190.32L132.61,-223.58L125.95,-222.57L124.94,-229.23L118.29,-228.22L117.28,-234.87L90.67,-230.83L91.68,-224.18L85.02,-223.17ZM179.62,-189.88L172.55,-236.45L179.21,-237.46L177.19,-250.77L183.84,-251.78L182.83,-258.43L196.14,-260.45L195.13,-267.10L221.74,-271.14L222.75,-264.49L236.06,-266.51L237.07,-259.86L243.72,-260.87L245.74,-247.56L252.39,-248.57L256.43,-221.96L196.55,-212.87L199.58,-192.91L206.24,-193.92L207.25,-187.27L233.86,-191.31L232.85,-197.96L239.50,-198.97L238.49,-205.62L258.45,-208.65L260.47,-195.34L253.82,-194.33L254.83,-187.68L248.17,-186.67L249.18,-180.02L235.88,-178.00L236.89,-171.35L210.27,-167.31L209.27,-173.96L195.96,-171.94L194.95,-178.59L188.30,-177.58L186.28,-190.89ZM194.53,-226.18L234.45,-232.23L232.43,-245.54L225.78,-244.53L224.77,-251.18L198.16,-247.14L199.17,-240.49L192.51,-239.48ZM283.25,-178.38L268.11,-278.18L288.07,-281.21L290.08,-267.90L296.74,-268.91L295.73,-275.57L302.38,-276.58L301.37,-283.23L321.33,-286.26L322.34,-279.61L335.65,-281.62L336.66,-274.97L343.31,-275.98L345.33,-262.67L351.98,-263.68L363.09,-190.50L343.13,-187.47L332.02,-260.66L325.37,-259.65L324.36,-266.30L304.40,-263.27L305.41,-256.62L298.76,-255.61L299.77,-248.95L293.11,-247.94L303.21,-181.41Z" fill="#ffffff" stroke="#000000"/>
    <path d="M-439.39,-42.81L-465.96,-173.33L-400.70,-186.62L-399.37,-180.09L-392.84,-181.42L-391.51,-174.90L-384.99,-176.22L-383.66,-169.70L-377.13,-171.03L-370.49,-138.40L-377.02,-137.07L-374.36,-124.01L-367.83,-125.34L-366.50,-118.82L-359.98,-120.15L-352.01,-80.99L-358.53,-79.66L-357.20,-73.13L-363.73,-71.81L-362.40,-65.28L-368.93,-63.95L-367.60,-57.42ZM-423.79,-66.37L-378.11,-75.67L-379.44,-82.20L-372.91,-83.53L-378.23,-109.63L-384.75,-108.31L-386.08,-114.83L-431.77,-105.53ZM-435.75,-125.11L-396.59,-133.08L-397.92,-139.61L-391.40,-140.94L-395.38,-160.51L-401.91,-159.19L-403.24,-165.71L-442.39,-157.74ZM-335.18,-91.21L-344.48,-136.89L-337.96,-138.22L-340.61,-151.27L-334.09,-152.60L-335.42,-159.13L-322.36,-161.79L-323.69,-168.31L-297.59,-173.63L-296.26,-167.10L-289.73,-168.43L-288.41,-161.90L-281.88,-163.23L-284.54,-176.28L-264.96,-180.27L-245.03,-82.38L-264.61,-78.39L-267.27,-91.44L-273.79,-90.11L-272.46,-83.59L-278.99,-82.26L-277.66,-75.73L-303.77,-70.42L-305.09,-76.95L-318.15,-74.29L-319.47,-80.81L-326.00,-79.49L-328.66,-92.54ZM-315.61,-95.20L-309.08,-96.52L-307.75,-90.00L-281.65,-95.31L-282.97,-101.84L-276.45,-103.17L-277.78,-109.69L-271.25,-111.02L-277.89,-143.65L-284.42,-142.32L-285.75,-148.85L-292.27,-147.52L-293.60,-154.05L-319.71,-148.73L-318.38,-142.21L-324.91,-140.88ZM-226.68,-99.71L-243.95,-184.55L-224.37,-188.53L-209.76,-116.74L-203.23,-118.07L-201.90,-111.55L-182.33,-115.53L-183.66,-122.06L-177.13,-123.39L-178.46,-129.91L-171.93,-131.24L-185.22,-196.50L-165.64,-200.49L-145.71,-102.60L-165.29,-98.61L-167.95,-111.66L-174.47,-110.33L-173.14,-103.81L-179.67,-102.48L-178.34,-95.95L-210.97,-89.31L-212.30,-95.84L-218.83,-94.51L-220.15,-101.03ZM-123.68,-107.08L-150.26,-237.60L-71.94,-253.54L-67.96,-233.97L-126.69,-222.01L-120.05,-189.38L-61.31,-201.34L-57.33,-181.76L-116.06,-169.80L-108.09,-130.64L-49.36,-142.60L-45.37,-123.02ZM-22.53,-127.67L-42.46,-225.56L-22.88,-229.55L-20.22,-216.50L-13.70,-217.83L-15.02,-224.35L-8.50,-225.68L-9.83,-232.21L16.28,-237.52L17.61,-230.99L24.13,-232.32L25.46,-225.80L31.99,-227.13L34.64,-214.07L28.12,-212.74L29.45,-206.22L22.92,-204.89L21.59,-211.42L15.07,-210.09L13.74,-216.61L-5.84,-212.63L-4.51,-206.10L-11.04,-204.77L-9.71,-198.25L-16.24,-196.92L-2.95,-131.66ZM57.61,-171.17L48.31,-216.86L54.83,-218.18L52.18,-231.24L58.70,-232.56L57.38,-239.09L70.43,-241.75L69.10,-248.27L95.20,-253.59L96.53,-247.06L103.06,-248.39L104.39,-241.86L110.91,-243.19L101.61,-288.88L121.19,-292.86L147.76,-162.34L128.18,-158.35L125.53,-171.41L119.00,-170.08L120.33,-163.55L113.80,-162.22L115.13,-155.70L89.03,-150.38L87.70,-156.91L74.65,-154.25L73.32,-160.78L66.79,-159.45L64.13,-172.50ZM77.19,-175.16L83.71,-176.49L85.04,-169.96L111.15,-175.27L109.82,-181.80L116.34,-183.13L115.02,-189.66L121.54,-190.98L114.90,-223.61L108.37,-222.29L107.04,-228.81L100.52,-227.48L99.19,-234.01L73.08,-228.70L74.41,-222.17L67.89,-220.84ZM163.05,-192.64L153.75,-238.32L160.27,-239.65L157.62,-252.70L164.14,-254.03L162.81,-260.56L175.87,-263.21L174.54,-269.74L200.64,-275.05L201.97,-268.53L215.02,-271.18L216.35,-264.66L222.88,-265.99L225.53,-252.93L232.06,-254.26L237.37,-228.16L178.64,-216.20L182.62,-196.62L189.15,-197.95L190.48,-191.42L216.58,-196.74L215.26,-203.26L221.78,-204.59L220.45,-211.12L240.03,-215.11L242.69,-202.05L236.16,-200.72L237.49,-194.20L230.96,-192.87L232.29,-186.34L219.24,-183.69L220.57,-177.16L194.47,-171.85L193.14,-178.37L180.08,-175.72L178.76,-182.24L172.23,-180.91L169.57,-193.97ZM175.98,-229.25L215.14,-237.22L212.48,-250.28L205.96,-248.95L204.63,-255.47L178.52,-250.16L179.85,-243.63L173.32,-242.31ZM266.05,-186.42L246.12,-284.31L265.70,-288.30L268.36,-275.24L274.88,-276.57L273.55,-283.10L280.08,-284.43L278.75,-290.95L298.33,-294.94L299.66,-288.41L312.71,-291.07L314.04,-284.54L320.57,-285.87L323.22,-272.82L329.75,-274.15L344.36,-202.36L324.78,-198.38L310.17,-270.16L303.64,-268.83L302.32,-275.36L282.74,-271.38L284.07,-264.85L277.54,-263.52L278.87,-256.99L272.34,-255.67L285.63,-190.40Z" fill="#ffffff" stroke="#000000"/>
    <path d="M-441.20,-16.31L-473.94,-143.99L-410.10,-160.37L-408.47,-153.98L-402.08,-155.62L-400.45,-149.24L-394.06,-150.87L-392.42,-144.49L-386.04,-146.13L-377.85,-114.21L-384.24,-112.57L-380.96,-99.80L-374.58,-101.44L-372.94,-95.05L-366.56,-96.69L-356.74,-58.39L-363.12,-56.75L-361.48,-50.36L-367.87,-48.73L-366.23,-42.34L-372.61,-40.71L-370.98,-34.32ZM-426.96,-40.38L-382.27,-51.84L-383.91,-58.22L-377.53,-59.86L-384.07,-85.39L-390.46,-83.76L-392.10,-90.14L-436.78,-78.68ZM-441.70,-97.83L-403.39,-107.66L-405.03,-114.04L-398.64,-115.68L-403.56,-134.83L-409.94,-133.19L-411.58,-139.58L-449.88,-129.75ZM-340.62,-69.32L-352.08,-114.01L-345.69,-115.65L-348.97,-128.42L-342.58,-130.05L-344.22,-136.44L-331.45,-139.71L-333.09,-146.10L-307.55,-152.65L-305.92,-146.26L-299.53,-147.90L-297.90,-141.51L-291.51,-143.15L-294.79,-155.92L-275.63,-160.83L-251.08,-65.07L-270.23,-60.16L-273.50,-72.93L-279.89,-71.29L-278.25,-64.91L-284.63,-63.27L-283.00,-56.88L-308.53,-50.34L-310.17,-56.72L-322.94,-53.45L-324.58,-59.83L-330.96,-58.19L-334.23,-70.96ZM-321.47,-74.23L-315.08,-75.87L-313.44,-69.49L-287.91,-76.04L-289.55,-82.42L-283.16,-84.06L-284.80,-90.44L-278.41,-92.08L-286.60,-124.00L-292.98,-122.36L-294.62,-128.75L-301.01,-127.11L-302.64,-133.49L-328.18,-126.94L-326.54,-120.56L-332.93,-118.92ZM-233.80,-83.11L-255.09,-166.10L-235.93,-171.01L-217.92,-100.79L-211.54,-102.42L-209.90,-96.04L-190.75,-100.95L-192.39,-107.34L-186.00,-108.97L-187.64,-115.36L-181.26,-116.99L-197.63,-180.83L-178.48,-185.75L-153.92,-89.99L-173.07,-85.07L-176.35,-97.84L-182.73,-96.21L-181.09,-89.82L-187.48,-88.18L-185.84,-81.80L-217.76,-73.61L-219.40,-80.00L-225.78,-78.36L-227.42,-84.75ZM-132.37,-95.51L-165.12,-223.19L-88.51,-242.84L-83.60,-223.69L-141.05,-208.95L-132.87,-177.03L-75.41,-191.77L-70.50,-172.61L-127.96,-157.88L-118.13,-119.57L-60.68,-134.31L-55.76,-115.16ZM-33.42,-120.89L-57.98,-216.65L-38.83,-221.56L-35.55,-208.79L-29.17,-210.43L-30.80,-216.81L-24.42,-218.45L-26.06,-224.83L-0.52,-231.38L1.12,-225.00L7.50,-226.64L9.14,-220.25L15.52,-221.89L18.80,-209.12L12.41,-207.48L14.05,-201.10L7.66,-199.46L6.03,-205.85L-0.36,-204.21L-1.99,-210.59L-21.15,-205.68L-19.51,-199.30L-25.89,-197.66L-24.26,-191.28L-30.64,-189.64L-14.27,-125.80ZM43.62,-167.86L32.16,-212.55L38.55,-214.19L35.27,-226.95L41.66,-228.59L40.02,-234.97L52.79,-238.25L51.15,-244.63L76.69,-251.18L78.32,-244.80L84.71,-246.43L86.34,-240.05L92.73,-241.69L81.27,-286.38L100.42,-291.29L133.16,-163.61L114.01,-158.70L110.74,-171.46L104.35,-169.83L105.99,-163.44L99.61,-161.81L101.24,-155.42L75.71,-148.87L74.07,-155.26L61.30,-151.98L59.66,-158.37L53.28,-156.73L50.01,-169.50ZM62.77,-172.77L69.16,-174.41L70.80,-168.02L96.33,-174.57L94.69,-180.96L101.08,-182.59L99.44,-188.98L105.83,-190.62L97.64,-222.54L91.26,-220.90L89.62,-227.28L83.23,-225.65L81.60,-232.03L56.06,-225.48L57.70,-219.10L51.31,-217.46ZM146.76,-194.31L135.30,-239.00L141.69,-240.64L138.41,-253.40L144.80,-255.04L143.16,-261.43L155.93,-264.70L154.29,-271.08L179.83,-277.63L181.47,-271.25L194.23,-274.52L195.87,-268.14L202.25,-269.78L205.53,-257.01L211.91,-258.64L218.46,-233.11L161.00,-218.37L165.92,-199.22L172.30,-200.86L173.94,-194.48L199.47,-201.02L197.84,-207.41L204.22,-209.04L202.58,-215.43L221.74,-220.34L225.01,-207.57L218.63,-205.94L220.26,-199.55L213.88,-197.91L215.52,-191.53L202.75,-188.26L204.39,-181.87L178.85,-175.32L177.21,-181.71L164.44,-178.43L162.81,-184.82L156.42,-183.18L153.15,-195.95ZM157.73,-231.14L196.03,-240.97L192.76,-253.73L186.38,-252.10L184.74,-258.48L159.20,-251.93L160.84,-245.55L154.46,-243.91ZM248.87,-193.28L224.32,-289.04L243.47,-293.95L246.74,-281.18L253.13,-282.82L251.49,-289.21L257.87,-290.84L256.24,-297.23L275.39,-302.14L277.03,-295.75L289.79,-299.03L291.43,-292.64L297.82,-294.28L301.09,-281.51L307.47,-283.15L325.48,-212.93L306.33,-208.02L288.32,-278.24L281.94,-276.60L280.30,-282.99L261.15,-278.07L262.79,-271.69L256.40,-270.05L258.04,-263.67L251.65,-262.03L268.03,-198.19Z" fill="#ffffff" stroke="#000000"/>
    <path d="M-441.37,10.15L-480.06,-114.40L-417.79,-133.75L-415.85,-127.52L-409.63,-129.45L-407.69,-123.23L-401.46,-125.16L-399.53,-118.93L-393.30,-120.87L-383.63,-89.73L-389.85,-87.80L-385.98,-75.34L-379.76,-77.28L-377.82,-71.05L-371.59,-72.98L-359.98,-35.62L-366.21,-33.68L-364.28,-27.45L-370.51,-25.52L-368.57,-19.29L-374.80,-17.36L-372.86,-11.13ZM-428.49,-14.33L-384.90,-27.88L-386.83,-34.11L-380.60,-36.04L-388.34,-60.95L-394.57,-59.02L-396.50,-65.24L-440.10,-51.70ZM-445.90,-70.38L-408.54,-81.99L-410.47,-88.22L-404.24,-90.15L-410.05,-108.84L-416.28,-106.90L-418.21,-113.13L-455.58,-101.52ZM-344.60,-47.23L-358.14,-90.82L-351.92,-92.75L-355.79,-105.21L-349.56,-107.14L-351.49,-113.37L-339.04,-117.24L-340.97,-123.47L-316.06,-131.21L-314.13,-124.98L-307.90,-126.92L-305.97,-120.69L-299.74,-122.62L-303.61,-135.08L-284.92,-140.88L-255.90,-47.47L-274.58,-41.67L-278.45,-54.12L-284.68,-52.19L-282.75,-45.96L-288.97,-44.02L-287.04,-37.80L-311.95,-30.06L-313.88,-36.28L-326.34,-32.41L-328.27,-38.64L-334.50,-36.71L-338.37,-49.16ZM-325.92,-53.03L-319.69,-54.97L-317.75,-48.74L-292.84,-56.48L-294.78,-62.71L-288.55,-64.64L-290.49,-70.87L-284.26,-72.80L-293.93,-103.94L-300.16,-102.01L-302.10,-108.23L-308.32,-106.30L-310.26,-112.53L-335.17,-104.79L-333.23,-98.56L-339.46,-96.62ZM-239.73,-66.15L-264.88,-147.11L-246.20,-152.92L-224.91,-84.41L-218.69,-86.35L-216.75,-80.12L-198.07,-85.92L-200.00,-92.15L-193.77,-94.09L-195.71,-100.31L-189.48,-102.25L-208.83,-164.53L-190.15,-170.33L-161.12,-76.92L-179.81,-71.11L-183.68,-83.57L-189.91,-81.63L-187.97,-75.40L-194.20,-73.47L-192.26,-67.24L-223.40,-57.57L-225.34,-63.80L-231.56,-61.86L-233.50,-68.09ZM-140.11,-83.45L-178.80,-208.00L-104.07,-231.22L-98.27,-212.53L-154.32,-195.12L-144.64,-163.98L-88.59,-181.40L-82.79,-162.71L-138.84,-145.30L-127.23,-107.93L-71.18,-125.35L-65.38,-106.67ZM-43.58,-113.44L-72.60,-206.85L-53.92,-212.66L-50.05,-200.20L-43.82,-202.14L-45.76,-208.36L-39.53,-210.30L-41.46,-216.53L-16.55,-224.27L-14.62,-218.04L-8.39,-219.97L-6.46,-213.75L-0.23,-215.68L3.64,-203.23L-2.59,-201.29L-0.65,-195.06L-6.88,-193.13L-8.81,-199.36L-15.04,-197.42L-16.98,-203.65L-35.66,-197.84L-33.73,-191.62L-39.95,-189.68L-38.02,-183.45L-44.25,-181.52L-24.90,-119.24ZM30.22,-163.68L16.68,-207.28L22.91,-209.21L19.04,-221.67L25.26,-223.60L23.33,-229.83L35.78,-233.70L33.85,-239.93L58.76,-247.67L60.70,-241.44L66.92,-243.37L68.86,-237.15L75.09,-239.08L61.54,-282.67L80.22,-288.48L118.92,-163.93L100.24,-158.12L96.37,-170.58L90.14,-168.64L92.08,-162.41L85.85,-160.48L87.78,-154.25L62.87,-146.51L60.94,-152.74L48.48,-148.87L46.55,-155.10L40.32,-153.16L36.45,-165.62ZM48.91,-169.49L55.13,-171.42L57.07,-165.20L81.98,-172.94L80.04,-179.16L86.27,-181.10L84.34,-187.33L90.56,-189.26L80.89,-220.40L74.66,-218.46L72.73,-224.69L66.50,-222.76L64.57,-228.98L39.65,-221.24L41.59,-215.02L35.36,-213.08ZM130.84,-194.94L117.29,-238.54L123.52,-240.47L119.65,-252.93L125.88,-254.86L123.94,-261.09L136.40,-264.96L134.46,-271.19L159.37,-278.93L161.31,-272.70L173.76,-276.57L175.70,-270.34L181.93,-272.28L185.80,-259.82L192.02,-261.76L199.76,-236.85L143.72,-219.43L149.52,-200.75L155.75,-202.68L157.68,-196.46L182.59,-204.20L180.66,-210.42L186.89,-212.36L184.95,-218.59L203.63,-224.39L207.50,-211.94L201.28,-210.00L203.21,-203.77L196.98,-201.84L198.92,-195.61L186.46,-191.74L188.40,-185.51L163.49,-177.77L161.55,-184.00L149.10,-180.13L147.16,-186.36L140.94,-184.42L137.07,-196.88ZM139.85,-231.89L177.21,-243.50L173.34,-255.95L167.11,-254.02L165.18,-260.24L140.27,-252.50L142.20,-246.28L135.98,-244.34ZM231.80,-199.00L202.77,-292.41L221.46,-298.22L225.33,-285.76L231.55,-287.70L229.62,-293.92L235.85,-295.86L233.91,-302.09L252.59,-307.89L254.53,-301.66L266.98,-305.53L268.92,-299.30L275.15,-301.24L279.02,-288.78L285.24,-290.72L306.53,-222.22L287.85,-216.41L266.56,-284.91L260.33,-282.98L258.40,-289.21L239.72,-283.40L241.65,-277.18L235.42,-275.24L237.36,-269.01L231.13,-267.08L250.48,-204.80Z" fill="#ffffff" stroke="#000000"/>
    <path d="M-439.89,36.49L-484.32,-84.66L-423.74,-106.87L-421.52,-100.81L-415.46,-103.04L-413.24,-96.98L-407.19,-99.20L-404.96,-93.14L-398.91,-95.36L-387.80,-65.08L-393.86,-62.85L-389.42,-50.74L-383.36,-52.96L-381.14,-46.90L-375.08,-49.12L-361.75,-12.78L-367.81,-10.56L-365.59,-4.50L-371.65,-2.28L-369.43,3.78L-375.48,6.00L-373.26,12.06ZM-428.39,11.65L-385.98,-3.89L-388.20,-9.95L-382.15,-12.17L-391.03,-36.40L-397.09,-34.18L-399.31,-40.24L-441.71,-24.69ZM-448.38,-42.86L-412.03,-56.19L-414.25,-62.25L-408.19,-64.47L-414.86,-82.64L-420.92,-80.42L-423.14,-86.48L-459.48,-73.15ZM-347.13,-25.01L-362.67,-67.42L-356.62,-69.64L-361.06,-81.75L-355.00,-83.97L-357.22,-90.03L-345.11,-94.47L-347.33,-100.53L-323.10,-109.42L-320.88,-103.36L-314.82,-105.58L-312.60,-99.52L-306.54,-101.74L-310.98,-113.86L-292.81,-120.52L-259.50,-29.66L-277.67,-23.00L-282.11,-35.11L-288.17,-32.89L-285.95,-26.83L-292.00,-24.61L-289.78,-18.55L-314.01,-9.67L-316.23,-15.73L-328.35,-11.28L-330.57,-17.34L-336.63,-15.12L-341.07,-27.24ZM-328.95,-31.68L-322.90,-33.90L-320.68,-27.84L-296.45,-36.73L-298.67,-42.78L-292.61,-45.00L-294.83,-51.06L-288.77,-53.28L-299.88,-83.57L-305.94,-81.35L-308.16,-87.41L-314.21,-85.19L-316.44,-91.24L-340.67,-82.36L-338.44,-76.30L-344.50,-74.08ZM-244.44,-48.92L-273.31,-127.67L-255.14,-134.33L-230.71,-67.70L-224.65,-69.92L-222.43,-63.87L-204.26,-70.53L-206.48,-76.59L-200.42,-78.81L-202.64,-84.86L-196.59,-87.09L-218.80,-147.66L-200.62,-154.32L-167.31,-63.46L-185.48,-56.80L-189.92,-68.91L-195.98,-66.69L-193.76,-60.63L-199.82,-58.41L-197.59,-52.36L-227.88,-41.25L-230.10,-47.31L-236.16,-45.09L-238.38,-51.14ZM-146.86,-70.96L-191.29,-192.11L-118.60,-218.76L-111.93,-200.59L-166.45,-180.60L-155.34,-150.31L-100.83,-170.30L-94.16,-152.13L-148.68,-132.14L-135.35,-95.79L-80.84,-115.78L-74.17,-97.61ZM-52.97,-105.39L-86.29,-196.25L-68.12,-202.91L-63.67,-190.80L-57.62,-193.02L-59.84,-199.08L-53.78,-201.30L-56.00,-207.35L-31.77,-216.24L-29.55,-210.18L-23.49,-212.40L-21.27,-206.34L-15.21,-208.57L-10.77,-196.45L-16.83,-194.23L-14.61,-188.17L-20.67,-185.95L-22.89,-192.01L-28.94,-189.79L-31.17,-195.84L-49.34,-189.18L-47.12,-183.12L-53.17,-180.90L-50.95,-174.85L-57.01,-172.62L-34.80,-112.05ZM17.46,-158.70L1.91,-201.10L7.97,-203.32L3.53,-215.44L9.58,-217.66L7.36,-223.72L19.48,-228.16L17.26,-234.22L41.49,-243.10L43.71,-237.04L49.76,-239.26L51.99,-233.21L58.04,-235.43L42.50,-277.83L60.67,-284.49L105.09,-163.34L86.92,-156.68L82.48,-168.79L76.42,-166.57L78.64,-160.52L72.58,-158.29L74.80,-152.24L50.57,-143.35L48.35,-149.41L36.24,-144.97L34.02,-151.03L27.96,-148.80L23.52,-160.92ZM35.63,-165.36L41.69,-167.58L43.91,-161.53L68.14,-170.41L65.92,-176.47L71.98,-178.69L69.76,-184.75L75.81,-186.97L64.71,-217.25L58.65,-215.03L56.43,-221.09L50.37,-218.87L48.15,-224.93L23.92,-216.04L26.14,-209.99L20.08,-207.76ZM115.33,-194.58L99.78,-236.99L105.83,-239.21L101.39,-251.32L107.45,-253.54L105.23,-259.60L117.34,-264.04L115.12,-270.10L139.35,-278.98L141.57,-272.93L153.69,-277.37L155.91,-271.31L161.97,-273.53L166.41,-261.42L172.47,-263.64L181.35,-239.41L126.83,-219.42L133.50,-201.25L139.56,-203.47L141.78,-197.41L166.01,-206.29L163.79,-212.35L169.84,-214.57L167.62,-220.63L185.79,-227.29L190.24,-215.18L184.18,-212.96L186.40,-206.90L180.34,-204.68L182.56,-198.62L170.45,-194.18L172.67,-188.12L148.44,-179.24L146.22,-185.30L134.10,-180.85L131.88,-186.91L125.82,-184.69L121.38,-196.80ZM122.39,-231.53L158.74,-244.86L154.29,-256.98L148.24,-254.75L146.02,-260.81L121.79,-251.93L124.01,-245.87L117.95,-243.65ZM214.88,-203.60L181.57,-294.46L199.74,-301.13L204.18,-289.01L210.24,-291.23L208.02,-297.29L214.07,-299.51L211.85,-305.57L230.03,-312.23L232.25,-306.17L244.36,-310.62L246.58,-304.56L252.64,-306.78L257.08,-294.67L263.14,-296.89L287.57,-230.25L269.40,-223.59L244.97,-290.22L238.91,-288.00L236.69,-294.06L218.52,-287.40L220.74,-281.34L214.68,-279.12L216.90,-273.06L210.84,-270.84L233.06,-210.26Z" fill="#ffffff" stroke="#000000"/>
    <path d="M-436.81,62.59L-486.71,-54.90L-427.97,-79.85L-425.47,-73.98L-419.60,-76.48L-417.10,-70.60L-411.23,-73.10L-408.73,-67.22L-402.86,-69.72L-390.38,-40.34L-396.25,-37.85L-391.26,-26.10L-385.39,-28.59L-382.89,-22.72L-377.02,-25.22L-362.05,10.03L-367.92,12.53L-365.43,18.40L-371.30,20.90L-368.81,26.77L-374.68,29.27L-372.19,35.14ZM-426.67,37.48L-385.55,20.01L-388.04,14.14L-382.17,11.64L-392.15,-11.86L-398.02,-9.36L-400.52,-15.23L-441.64,2.23ZM-449.13,-15.39L-413.88,-30.36L-416.37,-36.24L-410.50,-38.73L-417.98,-56.36L-423.86,-53.86L-426.35,-59.74L-461.60,-44.76ZM-348.21,-2.78L-365.67,-43.90L-359.80,-46.40L-364.79,-58.15L-358.91,-60.64L-361.41,-66.52L-349.66,-71.51L-352.15,-77.38L-328.66,-87.36L-326.16,-81.49L-320.29,-83.98L-317.79,-78.11L-311.92,-80.61L-316.91,-92.35L-299.28,-99.84L-261.86,-11.72L-279.48,-4.24L-284.47,-15.99L-290.34,-13.49L-287.85,-7.62L-293.72,-5.12L-291.23,0.75L-314.73,10.74L-317.22,4.86L-328.97,9.85L-331.47,3.98L-337.34,6.47L-342.33,-5.28ZM-330.58,-10.27L-324.71,-12.76L-322.21,-6.89L-298.71,-16.87L-301.21,-22.74L-295.33,-25.24L-297.83,-31.11L-291.96,-33.61L-304.43,-62.98L-310.31,-60.49L-312.80,-66.36L-318.68,-63.87L-321.17,-69.74L-344.67,-59.76L-342.17,-53.88L-348.05,-51.39ZM-247.94,-31.50L-280.37,-107.87L-262.75,-115.36L-235.30,-50.74L-229.43,-53.23L-226.93,-47.36L-209.31,-54.84L-211.81,-60.72L-205.93,-63.21L-208.43,-69.09L-202.55,-71.58L-227.50,-130.33L-209.88,-137.81L-172.45,-49.70L-190.08,-42.21L-195.07,-53.96L-200.94,-51.46L-198.45,-45.59L-204.32,-43.09L-201.82,-37.22L-231.20,-24.74L-233.69,-30.62L-239.57,-28.12L-242.06,-34.00ZM-152.63,-58.12L-202.53,-175.61L-132.04,-205.55L-124.55,-187.93L-177.42,-165.47L-164.94,-136.10L-112.07,-158.55L-104.59,-140.93L-157.46,-118.47L-142.49,-83.23L-89.62,-105.68L-82.13,-88.06ZM-61.57,-96.79L-99.00,-184.91L-81.37,-192.40L-76.38,-180.65L-70.51,-183.14L-73.00,-189.02L-67.13,-191.51L-69.63,-197.39L-46.13,-207.37L-43.63,-201.49L-37.76,-203.99L-35.26,-198.11L-29.39,-200.61L-24.40,-188.86L-30.27,-186.36L-27.78,-180.49L-33.65,-178.00L-36.15,-183.87L-42.02,-181.37L-44.52,-187.25L-62.14,-179.76L-59.64,-173.89L-65.52,-171.39L-63.02,-165.52L-68.90,-163.02L-43.95,-104.28ZM5.37,-152.96L-12.10,-194.08L-6.22,-196.58L-11.21,-208.33L-5.34,-210.82L-7.83,-216.70L3.91,-221.69L1.42,-227.56L24.92,-237.54L27.41,-231.67L33.29,-234.16L35.78,-228.29L41.66,-230.79L24.19,-271.91L41.81,-279.39L91.72,-161.90L74.09,-154.42L69.10,-166.17L63.23,-163.67L65.73,-157.80L59.85,-155.30L62.35,-149.43L38.85,-139.45L36.35,-145.32L24.60,-140.33L22.11,-146.20L16.23,-143.71L11.24,-155.46ZM22.99,-160.45L28.87,-162.94L31.36,-157.07L54.86,-167.05L52.37,-172.92L58.24,-175.42L55.74,-181.29L61.62,-183.79L49.14,-213.16L43.27,-210.67L40.77,-216.54L34.90,-214.05L32.40,-219.92L8.91,-209.94L11.40,-204.07L5.53,-201.57ZM100.28,-193.28L82.81,-234.40L88.69,-236.89L83.70,-248.64L89.57,-251.14L87.08,-257.01L98.83,-262.00L96.33,-267.88L119.83,-277.86L122.32,-271.98L134.07,-276.97L136.57,-271.10L142.44,-273.59L147.43,-261.84L153.31,-264.34L163.29,-240.84L110.42,-218.38L117.90,-200.76L123.78,-203.26L126.27,-197.38L149.77,-207.36L147.28,-213.24L153.15,-215.73L150.65,-221.61L168.28,-229.09L173.27,-217.34L167.39,-214.85L169.89,-208.97L164.02,-206.48L166.51,-200.60L154.76,-195.61L157.26,-189.74L133.76,-179.76L131.26,-185.63L119.51,-180.64L117.02,-186.52L111.14,-184.02L106.15,-195.77ZM105.43,-230.13L140.67,-245.11L135.68,-256.85L129.81,-254.36L127.31,-260.23L103.82,-250.25L106.31,-244.38L100.44,-241.88ZM198.19,-207.13L160.77,-295.25L178.39,-302.73L183.38,-290.98L189.26,-293.48L186.76,-299.35L192.63,-301.85L190.14,-307.72L207.76,-315.21L210.26,-309.33L222.01,-314.32L224.50,-308.45L230.38,-310.94L235.37,-299.19L241.24,-301.69L268.69,-237.07L251.07,-229.58L223.62,-294.20L217.74,-291.71L215.25,-297.58L197.62,-290.10L200.12,-284.22L194.25,-281.73L196.74,-275.85L190.87,-273.36L215.82,-214.61Z" fill="#ffffff" stroke="#000000"/>
    <path d="M-432.13,88.35L-487.26,-25.24L-430.46,-52.80L-427.71,-47.12L-422.03,-49.88L-419.27,-44.20L-413.59,-46.96L-410.84,-41.28L-405.16,-44.03L-391.37,-15.64L-397.05,-12.88L-391.54,-1.52L-385.86,-4.28L-383.10,1.40L-377.42,-1.35L-360.88,32.72L-366.56,35.48L-363.81,41.16L-369.49,43.92L-366.73,49.60L-372.41,52.35L-369.65,58.03ZM-423.36,63.05L-383.60,43.75L-386.36,38.07L-380.68,35.31L-391.71,12.60L-397.39,15.35L-400.14,9.67L-439.90,28.97ZM-448.17,11.93L-414.09,-4.61L-416.85,-10.29L-411.17,-13.05L-419.44,-30.08L-425.12,-27.33L-427.87,-33.01L-461.95,-16.47ZM-347.84,19.38L-367.14,-20.38L-361.46,-23.14L-366.97,-34.50L-361.29,-37.25L-364.05,-42.93L-352.69,-48.44L-355.45,-54.12L-332.73,-65.15L-329.97,-59.47L-324.29,-62.23L-321.54,-56.55L-315.86,-59.30L-321.37,-70.66L-304.33,-78.93L-262.98,6.26L-280.02,14.53L-285.54,3.17L-291.22,5.93L-288.46,11.61L-294.14,14.36L-291.38,20.04L-314.10,31.07L-316.86,25.39L-328.22,30.90L-330.97,25.22L-336.65,27.98L-342.17,16.62ZM-330.81,11.11L-325.13,8.35L-322.37,14.03L-299.65,3.00L-302.41,-2.68L-296.73,-5.43L-299.49,-11.11L-293.81,-13.87L-307.59,-42.27L-313.27,-39.51L-316.03,-45.19L-321.70,-42.43L-324.46,-48.11L-347.18,-37.09L-344.42,-31.41L-350.10,-28.65ZM-250.22,-13.97L-286.05,-87.81L-269.01,-96.08L-238.69,-33.60L-233.01,-36.36L-230.26,-30.68L-213.22,-38.95L-215.97,-44.63L-210.29,-47.38L-213.05,-53.06L-207.37,-55.82L-234.94,-112.62L-217.90,-120.89L-176.55,-35.69L-193.59,-27.42L-199.10,-38.78L-204.78,-36.03L-202.02,-30.35L-207.70,-27.59L-204.95,-21.91L-233.34,-8.13L-236.10,-13.81L-241.78,-11.05L-244.54,-16.73ZM-157.38,-45.00L-212.51,-158.59L-144.36,-191.67L-136.09,-174.63L-187.20,-149.82L-173.42,-121.42L-122.31,-146.23L-114.04,-129.19L-165.15,-104.38L-148.61,-70.30L-97.50,-95.11L-89.23,-78.08ZM-69.35,-87.72L-110.70,-172.92L-93.66,-181.19L-88.15,-169.83L-82.47,-172.58L-85.22,-178.26L-79.54,-181.02L-82.30,-186.70L-59.58,-197.73L-56.83,-192.05L-51.15,-194.80L-48.39,-189.12L-42.71,-191.88L-37.20,-180.52L-42.88,-177.76L-40.12,-172.08L-45.80,-169.33L-48.56,-175.01L-54.24,-172.25L-56.99,-177.93L-74.03,-169.66L-71.27,-163.98L-76.95,-161.22L-74.20,-155.54L-79.88,-152.79L-52.31,-95.99ZM-6.01,-146.54L-25.31,-186.29L-19.63,-189.05L-25.14,-200.41L-19.46,-203.16L-22.22,-208.84L-10.86,-214.36L-13.61,-220.04L9.10,-231.06L11.86,-225.38L17.54,-228.14L20.30,-222.46L25.98,-225.22L6.68,-264.97L23.72,-273.24L78.85,-159.65L61.81,-151.38L56.30,-162.74L50.62,-159.99L53.38,-154.31L47.70,-151.55L50.45,-145.87L27.73,-134.84L24.98,-140.52L13.62,-135.01L10.86,-140.69L5.18,-137.93L-0.33,-149.29ZM11.03,-154.81L16.71,-157.56L19.47,-151.88L42.18,-162.91L39.43,-168.59L45.11,-171.35L42.35,-177.02L48.03,-179.78L34.25,-208.18L28.57,-205.42L25.81,-211.10L20.13,-208.34L17.37,-214.02L-5.34,-203.00L-2.59,-197.32L-8.27,-194.56ZM85.75,-191.07L66.45,-230.83L72.13,-233.58L66.62,-244.94L72.30,-247.70L69.54,-253.38L80.90,-258.89L78.15,-264.57L100.86,-275.60L103.62,-269.92L114.98,-275.43L117.74,-269.75L123.42,-272.51L128.93,-261.15L134.61,-263.91L145.63,-241.19L94.52,-216.38L102.79,-199.34L108.47,-202.10L111.22,-196.42L133.94,-207.45L131.19,-213.12L136.87,-215.88L134.11,-221.56L151.15,-229.83L156.66,-218.47L150.98,-215.71L153.74,-210.04L148.06,-207.28L150.81,-201.60L139.46,-196.09L142.21,-190.41L119.49,-179.38L116.74,-185.06L105.38,-179.55L102.62,-185.23L96.94,-182.47L91.43,-193.83ZM89.01,-227.74L123.08,-244.28L117.57,-255.64L111.89,-252.88L109.13,-258.56L86.42,-247.53L89.17,-241.85L83.49,-239.10ZM181.79,-209.62L140.44,-294.81L157.48,-303.08L162.99,-291.72L168.67,-294.48L165.92,-300.16L171.60,-302.91L168.84,-308.59L185.88,-316.86L188.64,-311.18L199.99,-316.70L202.75,-311.02L208.43,-313.77L213.94,-302.41L219.62,-305.17L249.95,-242.70L232.91,-234.43L202.58,-296.90L196.90,-294.14L194.15,-299.82L177.11,-291.55L179.87,-285.87L174.19,-283.12L176.94,-277.44L171.26,-274.68L198.83,-217.89Z" fill="#ffffff" stroke="#000000"/>
    <path d="M-425.89,113.69L-485.98,4.22L-431.25,-25.82L-428.25,-20.35L-422.77,-23.36L-419.77,-17.88L-414.30,-20.89L-411.29,-15.41L-405.82,-18.42L-390.79,8.95L-396.27,11.95L-390.26,22.90L-384.79,19.89L-381.78,25.37L-376.31,22.36L-358.28,55.20L-363.75,58.21L-360.75,63.68L-366.22,66.68L-363.22,72.16L-368.69,75.16L-365.68,80.63ZM-418.48,88.25L-380.17,67.22L-383.18,61.75L-377.70,58.74L-389.72,36.85L-395.20,39.85L-398.20,34.38L-436.51,55.41ZM-445.53,38.99L-412.69,20.97L-415.69,15.49L-410.22,12.49L-419.23,-3.93L-424.71,-0.93L-427.71,-6.40L-460.55,11.63ZM-346.06,41.37L-367.09,3.06L-361.62,0.05L-367.63,-10.89L-362.16,-13.90L-365.16,-19.37L-354.22,-25.38L-357.22,-30.85L-335.33,-42.87L-332.32,-37.40L-326.85,-40.40L-323.85,-34.93L-318.37,-37.94L-324.38,-48.88L-307.96,-57.90L-262.89,24.20L-279.31,33.22L-285.32,22.27L-290.79,25.27L-287.79,30.75L-293.26,33.75L-290.26,39.22L-312.15,51.24L-315.15,45.77L-326.10,51.78L-329.11,46.31L-334.58,49.31L-340.59,38.37ZM-329.64,32.36L-324.17,29.35L-321.16,34.82L-299.27,22.81L-302.28,17.33L-296.80,14.33L-299.81,8.85L-294.33,5.85L-309.36,-21.52L-314.83,-18.51L-317.84,-23.98L-323.31,-20.98L-326.31,-26.45L-348.21,-14.43L-345.20,-8.96L-350.67,-5.96ZM-251.28,3.58L-290.35,-67.57L-273.93,-76.58L-240.87,-16.38L-235.40,-19.38L-232.40,-13.91L-215.98,-22.92L-218.98,-28.40L-213.51,-31.40L-216.51,-36.87L-211.04,-39.88L-241.09,-94.61L-224.67,-103.63L-179.60,-21.53L-196.01,-12.51L-202.02,-23.46L-207.50,-20.46L-204.49,-14.98L-209.97,-11.98L-206.96,-6.50L-234.33,8.52L-237.33,3.05L-242.81,6.05L-245.81,0.58ZM-161.12,-31.67L-221.22,-141.13L-155.54,-177.19L-146.53,-160.77L-195.78,-133.73L-180.76,-106.36L-131.50,-133.40L-122.49,-116.98L-171.75,-89.94L-153.72,-57.10L-104.46,-84.15L-95.45,-67.73ZM-76.29,-78.24L-121.36,-160.34L-104.94,-169.35L-98.93,-158.41L-93.46,-161.41L-96.46,-166.89L-90.99,-169.89L-93.99,-175.36L-72.10,-187.38L-69.10,-181.91L-63.62,-184.91L-60.62,-179.44L-55.15,-182.45L-49.14,-171.50L-54.61,-168.50L-51.60,-163.02L-57.08,-160.02L-60.08,-165.49L-65.56,-162.49L-68.56,-167.96L-84.98,-158.94L-81.98,-153.47L-87.45,-150.47L-84.44,-144.99L-89.92,-141.99L-59.87,-87.26ZM-16.64,-139.48L-37.68,-177.79L-32.20,-180.80L-38.21,-191.74L-32.74,-194.75L-35.74,-200.22L-24.80,-206.23L-27.80,-211.70L-5.91,-223.72L-2.91,-218.25L2.57,-221.25L5.57,-215.78L11.05,-218.79L-9.99,-257.10L6.43,-266.11L66.53,-156.65L50.11,-147.63L44.10,-158.58L38.62,-155.58L41.63,-150.10L36.16,-147.10L39.16,-141.62L17.27,-129.61L14.26,-135.08L3.32,-129.07L0.31,-134.54L-5.16,-131.54L-11.17,-142.48ZM-0.22,-148.49L5.25,-151.50L8.25,-146.02L30.15,-158.04L27.14,-163.52L32.62,-166.52L29.61,-172.00L35.08,-175.00L20.06,-202.37L14.59,-199.36L11.58,-204.83L6.11,-201.83L3.10,-207.30L-18.79,-195.28L-15.78,-189.81L-21.26,-186.81ZM71.78,-188.02L50.75,-226.34L56.22,-229.34L50.21,-240.29L55.69,-243.29L52.68,-248.77L63.63,-254.78L60.62,-260.25L82.52,-272.27L85.52,-266.79L96.47,-272.80L99.47,-267.33L104.95,-270.34L110.95,-259.39L116.43,-262.39L128.45,-240.50L79.19,-213.46L88.20,-197.04L93.68,-200.04L96.68,-194.57L118.57,-206.59L115.57,-212.06L121.04,-215.07L118.04,-220.54L134.46,-229.56L140.47,-218.61L134.99,-215.60L138.00,-210.13L132.52,-207.13L135.53,-201.65L124.58,-195.64L127.59,-190.17L105.69,-178.15L102.69,-183.62L91.74,-177.61L88.74,-183.09L83.27,-180.08L77.26,-191.03ZM73.18,-224.40L106.02,-242.43L100.01,-253.38L94.54,-250.38L91.53,-255.85L69.64,-243.83L72.64,-238.36L67.17,-235.35ZM165.73,-211.11L120.66,-293.21L137.08,-302.22L143.09,-291.28L148.56,-294.28L145.55,-299.75L151.03,-302.76L148.02,-308.23L164.44,-317.25L167.45,-311.77L178.39,-317.78L181.40,-312.31L186.87,-315.31L192.88,-304.37L198.35,-307.37L231.41,-247.17L214.99,-238.15L181.94,-298.36L176.46,-295.35L173.46,-300.83L157.04,-291.81L160.04,-286.34L154.57,-283.33L157.57,-277.86L152.10,-274.86L182.15,-220.12Z" fill="#ffffff" stroke="#000000"/>
    <path d="M-913,471.81L-913,468.25L-892.81,468.25L-892.81,471.81L-901.13,471.81L-901.13,492L-904.69,492L-904.69,471.81ZM-891.03,487.25L-891.03,478.94L-889.84,478.94L-889.84,476.56L-888.66,476.56L-888.66,475.38L-886.28,475.38L-886.28,474.19L-881.53,474.19L-881.53,475.38L-879.16,475.38L-879.16,476.56L-877.97,476.56L-877.97,478.94L-876.78,478.94L-876.78,483.69L-887.47,483.69L-887.47,487.25L-886.28,487.25L-886.28,488.44L-881.53,488.44L-881.53,487.25L-880.34,487.25L-880.34,486.06L-876.78,486.06L-876.78,488.44L-877.97,488.44L-877.97,489.63L-879.16,489.63L-879.16,490.81L-881.53,490.81L-881.53,492L-886.28,492L-886.28,490.81L-888.66,490.81L-888.66,489.63L-889.84,489.63L-889.84,487.25ZM-887.47,481.31L-880.34,481.31L-880.34,478.94L-881.53,478.94L-881.53,477.75L-886.28,477.75L-886.28,478.94L-887.47,478.94ZM-873.26,492L-873.26,474.19L-869.69,474.19L-869.69,476.56L-868.51,476.56L-868.51,475.38L-867.32,475.38L-867.32,474.19L-862.57,474.19L-862.57,475.38L-861.38,475.38L-861.38,476.56L-860.19,476.56L-860.19,478.94L-861.38,478.94L-861.38,480.13L-862.57,480.13L-862.57,478.94L-863.76,478.94L-863.76,477.75L-867.32,477.75L-867.32,478.94L-868.51,478.94L-868.51,480.13L-869.69,480.13L-869.69,492ZM-857.15,492L-857.15,474.19L-853.59,474.19L-853.59,476.56L-852.40,476.56L-852.40,475.38L-851.21,475.38L-851.21,474.19L-847.65,474.19L-847.65,475.38L-846.46,475.38L-846.46,476.56L-844.09,476.56L-844.09,475.38L-842.90,475.38L-842.90,474.19L-838.15,474.19L-838.15,475.38L-836.96,475.38L-836.96,476.56L-835.78,476.56L-835.78,478.94L-834.59,478.94L-834.59,492L-838.15,492L-838.15,478.94L-839.34,478.94L-839.34,477.75L-842.90,477.75L-842.90,478.94L-844.09,478.94L-844.09,492L-847.65,492L-847.65,478.94L-848.84,478.94L-848.84,477.75L-851.21,477.75L-851.21,478.94L-852.40,478.94L-852.40,480.13L-853.59,480.13L-853.59,492ZM-830.69,492L-830.69,474.19L-827.13,474.19L-827.13,492ZM-830.69,471.81L-830.69,468.25L-827.13,468.25L-827.13,471.81ZM-822.97,492L-822.97,474.19L-819.41,474.19L-819.41,476.56L-818.22,476.56L-818.22,475.38L-817.04,475.38L-817.04,474.19L-813.47,474.19L-813.47,475.38L-811.10,475.38L-811.10,476.56L-809.91,476.56L-809.91,478.94L-808.72,478.94L-808.72,492L-812.29,492L-812.29,478.94L-813.47,478.94L-813.47,477.75L-817.04,477.75L-817.04,478.94L-818.22,478.94L-818.22,480.13L-819.41,480.13L-819.41,492ZM-805.38,487.25L-805.38,478.94L-804.20,478.94L-804.20,476.56L-803.01,476.56L-803.01,475.38L-800.63,475.38L-800.63,474.19L-795.88,474.19L-795.88,475.38L-794.70,475.38L-794.70,476.56L-793.51,476.56L-793.51,474.19L-789.95,474.19L-789.95,492L-793.51,492L-793.51,489.63L-794.70,489.63L-794.70,490.81L-795.88,490.81L-795.88,492L-800.63,492L-800.63,490.81L-803.01,490.81L-803.01,489.63L-804.20,489.63L-804.20,487.25ZM-801.82,487.25L-800.63,487.25L-800.63,488.44L-795.88,488.44L-795.88,487.25L-794.70,487.25L-794.70,486.06L-793.51,486.06L-793.51,480.13L-794.70,480.13L-794.70,478.94L-795.88,478.94L-795.88,477.75L-800.63,477.75L-800.63,478.94L-801.82,478.94ZM-785.94,492L-785.94,468.25L-782.38,468.25L-782.38,492ZM-778.89,483.69L-778.89,480.13L-765.82,480.13L-765.82,483.69ZM-762.89,484.88L-762.89,475.38L-761.71,475.38L-761.71,473L-760.52,473L-760.52,471.81L-759.33,471.81L-759.33,470.63L-758.14,470.63L-758.14,469.44L-754.58,469.44L-754.58,468.25L-748.64,468.25L-748.64,469.44L-745.08,469.44L-745.08,470.63L-743.89,470.63L-743.89,473L-742.71,473L-742.71,474.19L-741.52,474.19L-741.52,475.38L-746.27,475.38L-746.27,474.19L-747.46,474.19L-747.46,473L-749.83,473L-749.83,471.81L-753.39,471.81L-753.39,473L-755.77,473L-755.77,474.19L-756.96,474.19L-756.96,475.38L-758.14,475.38L-758.14,477.75L-759.33,477.75L-759.33,482.50L-758.14,482.50L-758.14,484.88L-756.96,484.88L-756.96,486.06L-755.77,486.06L-755.77,487.25L-753.39,487.25L-753.39,488.44L-749.83,488.44L-749.83,487.25L-747.46,487.25L-747.46,486.06L-746.27,486.06L-746.27,484.88L-745.08,484.88L-745.08,482.50L-752.21,482.50L-752.21,478.94L-741.52,478.94L-741.52,486.06L-742.71,486.06L-742.71,487.25L-743.89,487.25L-743.89,489.63L-745.08,489.63L-745.08,490.81L-748.64,490.81L-748.64,492L-754.58,492L-754.58,490.81L-758.14,490.81L-758.14,489.63L-759.33,489.63L-759.33,488.44L-760.52,488.44L-760.52,487.25L-761.71,487.25L-761.71,484.88ZM-737.81,492L-737.81,474.19L-734.24,474.19L-734.24,476.56L-733.06,476.56L-733.06,475.38L-731.87,475.38L-731.87,474.19L-727.12,474.19L-727.12,475.38L-725.93,475.38L-725.93,476.56L-724.74,476.56L-724.74,478.94L-725.93,478.94L-725.93,480.13L-727.12,480.13L-727.12,478.94L-728.31,478.94L-728.31,477.75L-731.87,477.75L-731.87,478.94L-733.06,478.94L-733.06,480.13L-734.24,480.13L-734.24,492ZM-722.11,487.25L-722.11,478.94L-720.92,478.94L-720.92,476.56L-719.73,476.56L-719.73,475.38L-717.36,475.38L-717.36,474.19L-712.61,474.19L-712.61,475.38L-710.23,475.38L-710.23,476.56L-709.05,476.56L-709.05,478.94L-707.86,478.94L-707.86,487.25L-709.05,487.25L-709.05,489.63L-710.23,489.63L-710.23,490.81L-712.61,490.81L-712.61,492L-717.36,492L-717.36,490.81L-719.73,490.81L-719.73,489.63L-720.92,489.63L-720.92,487.25ZM-718.55,487.25L-717.36,487.25L-717.36,488.44L-712.61,488.44L-712.61,487.25L-711.42,487.25L-711.42,478.94L-712.61,478.94L-712.61,477.75L-717.36,477.75L-717.36,478.94L-718.55,478.94ZM-704.85,477.75L-704.85,474.19L-702.48,474.19L-702.48,469.44L-698.92,469.44L-698.92,474.19L-694.17,474.19L-694.17,477.75L-698.92,477.75L-698.92,492L-702.48,492L-702.48,477.75ZM-691.38,487.25L-691.38,478.94L-690.20,478.94L-690.20,476.56L-689.01,476.56L-689.01,475.38L-686.63,475.38L-686.63,474.19L-681.88,474.19L-681.88,475.38L-679.51,475.38L-679.51,476.56L-678.32,476.56L-678.32,478.94L-677.13,478.94L-677.13,483.69L-687.82,483.69L-687.82,487.25L-686.63,487.25L-686.63,488.44L-681.88,488.44L-681.88,487.25L-680.70,487.25L-680.70,486.06L-677.13,486.06L-677.13,488.44L-678.32,488.44L-678.32,489.63L-679.51,489.63L-679.51,490.81L-681.88,490.81L-681.88,492L-686.63,492L-686.63,490.81L-689.01,490.81L-689.01,489.63L-690.20,489.63L-690.20,487.25ZM-687.82,481.31L-680.70,481.31L-680.70,478.94L-681.88,478.94L-681.88,477.75L-686.63,477.75L-686.63,478.94L-687.82,478.94ZM-673.79,489.63L-673.79,487.25L-672.61,487.25L-672.61,486.06L-671.42,486.06L-671.42,487.25L-670.23,487.25L-670.23,488.44L-669.04,488.44L-669.04,489.63L-666.67,489.63L-666.67,488.44L-665.48,488.44L-665.48,486.06L-666.67,486.06L-666.67,484.88L-667.86,484.88L-667.86,483.69L-670.23,483.69L-670.23,482.50L-671.42,482.50L-671.42,481.31L-672.61,481.31L-672.61,480.13L-673.79,480.13L-673.79,476.56L-672.61,476.56L-672.61,475.38L-671.42,475.38L-671.42,474.19L-664.29,474.19L-664.29,475.38L-663.11,475.38L-663.11,478.94L-665.48,478.94L-665.48,477.75L-666.67,477.75L-666.67,476.56L-669.04,476.56L-669.04,477.75L-670.23,477.75L-670.23,478.94L-669.04,478.94L-669.04,480.13L-667.86,480.13L-667.86,481.31L-665.48,481.31L-665.48,482.50L-664.29,482.50L-664.29,483.69L-663.11,483.69L-663.11,484.88L-661.92,484.88L-661.92,489.63L-663.11,489.63L-663.11,490.81L-664.29,490.81L-664.29,492L-671.42,492L-671.42,490.81L-672.61,490.81L-672.61,489.63ZM-658.76,487.25L-658.76,478.94L-657.58,478.94L-657.58,476.56L-656.39,476.56L-656.39,475.38L-654.01,475.38L-654.01,474.19L-649.26,474.19L-649.26,475.38L-648.08,475.38L-648.08,476.56L-646.89,476.56L-646.89,474.19L-643.33,474.19L-643.33,499.13L-646.89,499.13L-646.89,489.63L-648.08,489.63L-648.08,490.81L-649.26,490.81L-649.26,492L-654.01,492L-654.01,490.81L-656.39,490.81L-656.39,489.63L-657.58,489.63L-657.58,487.25ZM-655.20,487.25L-654.01,487.25L-654.01,488.44L-649.26,488.44L-649.26,487.25L-648.08,487.25L-648.08,486.06L-646.89,486.06L-646.89,480.13L-648.08,480.13L-648.08,478.94L-649.26,478.94L-649.26,477.75L-654.01,477.75L-654.01,478.94L-655.20,478.94ZM-639.28,489.63L-639.28,474.19L-635.72,474.19L-635.72,487.25L-634.53,487.25L-634.53,488.44L-630.97,488.44L-630.97,487.25L-629.78,487.25L-629.78,486.06L-628.59,486.06L-628.59,474.19L-625.03,474.19L-625.03,492L-628.59,492L-628.59,489.63L-629.78,489.63L-629.78,490.81L-630.97,490.81L-630.97,492L-636.91,492L-636.91,490.81L-638.09,490.81L-638.09,489.63ZM-621.58,487.25L-621.58,478.94L-620.39,478.94L-620.39,476.56L-619.21,476.56L-619.21,475.38L-616.83,475.38L-616.83,474.19L-612.08,474.19L-612.08,475.38L-609.71,475.38L-609.71,476.56L-608.52,476.56L-608.52,478.94L-607.33,478.94L-607.33,483.69L-618.02,483.69L-618.02,487.25L-616.83,487.25L-616.83,488.44L-612.08,488.44L-612.08,487.25L-610.89,487.25L-610.89,486.06L-607.33,486.06L-607.33,488.44L-608.52,488.44L-608.52,489.63L-609.71,489.63L-609.71,490.81L-612.08,490.81L-612.08,492L-616.83,492L-616.83,490.81L-619.21,490.81L-619.21,489.63L-620.39,489.63L-620.39,487.25ZM-618.02,481.31L-610.89,481.31L-610.89,478.94L-612.08,478.94L-612.08,477.75L-616.83,477.75L-616.83,478.94L-618.02,478.94Z"/>
</svg>