<?xml version="1.0"?>
<svg xmlns="http://www.w3.org/2000/svg" width="1920" height="1080" viewBox="-960 -540 1920 1080">
    <path d="M-473.86,-182.30L-472.53,-185.85L-400.60,-185.85L-399.05,-181.63L-385.50,-145.22L-365.30,-152.29L-425.02,-306.84L-446.55,-306.84L-506.72,-152.33L-487.85,-145.22ZM-407.48,-204.72L-465.42,-204.72L-435.90,-282.64ZM-347.20,-147L-327.22,-147L-327.22,-209.83L-318.56,-239.49L-295.98,-249.74L-277.26,-241.08L-271.84,-217.82L-271.84,-147L-251.86,-147L-251.86,-217.82L-259.42,-253.03L-291.91,-266.96L-313.49,-262.20L-329.22,-245.79L-329.22,-262.44L-347.20,-262.44ZM-45.84,-147L-45.84,-165.87L-137.31,-165.87L-137.31,-219.15L-59.16,-219.15L-59.16,-238.02L-137.31,-238.02L-137.31,-287.97L-48.06,-287.97L-48.06,-306.84L-158.40,-306.84L-158.40,-147ZM-16.42,-147L3.56,-147L3.56,-209.83L12.22,-239.49L34.80,-249.74L53.52,-241.08L58.94,-217.82L58.94,-147L78.92,-147L78.92,-217.82L71.36,-253.03L38.87,-266.96L17.29,-262.20L1.56,-245.79L1.56,-262.44L-16.42,-262.44ZM200.58,-306.84L180.60,-306.84L180.60,-250.43L168.08,-261.88L149.58,-266.50L112.09,-249.12L99.07,-204.23L112.09,-159.34L149.58,-141.96L169.16,-147.34L182.82,-162.76L182.82,-147L200.58,-147ZM150.73,-249.52L173.62,-238.08L183.11,-204.23L172.77,-170.38L150.73,-158.95L128.38,-170.38L119.46,-204.23L128.38,-238.08ZM244.60,-281.74L251.82,-289.64L251.83,-300.93L244.47,-309.02L234.21,-309.02L227.04,-300.95L227.04,-289.68L234.33,-281.74ZM249.42,-147L249.42,-262.44L229.44,-262.44L229.44,-147ZM277.73,-147L297.71,-147L297.71,-209.83L306.37,-239.49L328.95,-249.74L347.67,-241.08L353.09,-217.82L353.09,-147L373.07,-147L373.07,-217.82L365.51,-253.03L333.02,-266.96L311.44,-262.20L295.71,-245.79L295.71,-262.44L277.73,-262.44ZM444.98,-98.70L486.33,-116.06L496.28,-154.55L496.28,-262.44L478.52,-262.44L478.52,-246.90L465.44,-261.65L445.20,-267.42L407.72,-250.05L394.72,-205.16L407.72,-160.26L445.20,-142.89L463.08,-147.15L476.30,-159.21L476.24,-150.74L469.18,-124.90L445.45,-115.92L426.96,-121.13L419.69,-136.79L403.71,-129.46L413.78,-108.22ZM446.34,-250.43L468.40,-238.99L478.74,-205.14L469.24,-171.29L446.34,-159.86L424.02,-171.29L415.11,-205.14L424.02,-238.99Z" fill="#ffffff" stroke="#000000"/>
    <path d="M-481.75,-158.45L-480.57,-162.02L-409.42,-164.85L-407.72,-160.74L-392.89,-125.26L-373.18,-133.05L-438.34,-283.58L-459.65,-282.73L-513.07,-127.51L-494.12,-121.23ZM-416.97,-183.25L-474.29,-180.97L-448.15,-259.21ZM-355.07,-128.53L-335.30,-129.32L-337.78,-191.46L-330.38,-221.15L-308.44,-232.18L-289.59,-224.35L-283.31,-201.55L-280.52,-131.50L-260.75,-132.29L-263.54,-202.34L-272.41,-236.87L-305.10,-249.37L-326.26,-243.81L-341.17,-226.96L-341.83,-243.43L-359.62,-242.72ZM-56.96,-140.40L-57.70,-159.07L-148.18,-155.47L-150.28,-208.17L-72.98,-211.25L-73.72,-229.92L-151.02,-226.84L-152.99,-276.25L-64.71,-279.77L-65.45,-298.43L-174.60,-294.08L-168.30,-135.97ZM-27.86,-141.56L-8.09,-142.35L-10.57,-204.50L-3.17,-234.18L18.77,-245.21L37.63,-237.39L43.90,-214.59L46.70,-144.53L66.46,-145.32L63.67,-215.37L54.80,-249.90L22.11,-262.41L0.96,-256.85L-13.96,-240.00L-14.62,-256.47L-32.41,-255.76ZM180.50,-308.23L160.74,-307.44L162.96,-251.65L150.13,-262.47L131.64,-266.31L95.24,-247.65L84.14,-202.73L98.78,-158.83L136.55,-143.12L155.71,-149.21L168.61,-165.01L169.24,-149.41L186.80,-150.11ZM133.45,-249.57L156.55,-239.15L167.27,-206.04L158.38,-172.15L137.02,-159.97L114.47,-170.40L104.31,-203.53L111.80,-237.37ZM225.04,-285.14L231.87,-293.24L231.44,-304.41L223.84,-312.12L213.69,-311.72L206.92,-303.45L207.36,-292.30L214.89,-284.73ZM235.12,-152.04L230.57,-266.23L210.80,-265.45L215.35,-151.25ZM263.12,-153.16L282.89,-153.94L280.41,-216.09L287.81,-245.77L309.75,-256.80L328.60,-248.98L334.88,-226.18L337.67,-156.13L357.44,-156.91L354.65,-226.97L345.78,-261.50L313.09,-274.00L291.93,-268.44L277.02,-251.59L276.36,-268.06L258.57,-267.35ZM430.47,-111.97L470.70,-130.77L479.02,-169.23L474.77,-275.96L457.20,-275.26L457.81,-259.89L444.29,-273.96L424.05,-278.88L387.66,-260.21L376.56,-215.29L391.19,-171.40L428.95,-155.69L446.47,-160.61L459.07,-173.06L459.35,-164.68L453.38,-138.84L430.26,-129.02L411.77,-133.45L403.96,-148.65L388.43,-140.77L399.23,-120.15ZM425.84,-262.12L448.11,-251.67L459.67,-218.59L451.61,-184.73L429.41,-172.52L406.88,-182.95L396.73,-216.08L404.22,-249.92Z" fill="#ffffff" stroke="#000000"/>
    <path d="M-488.38,-134.35L-487.35,-137.92L-417.09,-143.53L-415.24,-139.53L-399.17,-105.02L-379.99,-113.50L-450.37,-259.82L-471.41,-258.14L-518.14,-102.51L-499.15,-97.04ZM-425.28,-161.43L-481.88,-156.91L-459.11,-235.33ZM-361.90,-109.74L-342.38,-111.30L-347.27,-172.67L-341.12,-202.32L-319.86,-214.10L-300.90,-207.10L-293.79,-184.80L-288.27,-115.61L-268.75,-117.17L-274.28,-186.35L-284.41,-220.16L-317.23,-231.24L-337.94,-224.91L-352.03,-207.65L-353.33,-223.91L-370.89,-222.51ZM-67.50,-133.23L-68.97,-151.67L-158.32,-144.54L-162.47,-196.59L-86.14,-202.68L-87.61,-221.11L-163.94,-215.02L-167.84,-263.82L-80.66,-270.77L-82.13,-289.21L-189.91,-280.61L-177.45,-124.46ZM-38.76,-135.53L-19.24,-137.08L-24.14,-198.46L-17.99,-228.11L3.28,-239.88L22.23,-232.89L29.34,-210.58L34.86,-141.40L54.38,-142.96L48.86,-212.14L38.73,-245.95L5.91,-257.02L-14.80,-250.69L-28.89,-233.44L-30.19,-249.70L-47.76,-248.30ZM160.77,-308.59L141.25,-307.03L145.65,-251.93L132.53,-262.13L114.09,-265.20L78.82,-245.30L69.60,-200.44L85.82,-157.60L123.80,-143.54L142.51,-150.33L154.65,-166.46L155.88,-151.06L173.23,-152.44ZM116.54,-248.71L139.80,-239.32L151.70,-206.99L144.24,-173.12L123.60,-160.23L100.88,-169.66L89.52,-202.03L95.60,-235.79ZM205.72,-287.50L212.16,-295.79L211.30,-306.81L203.48,-314.15L193.45,-313.35L187.08,-304.90L187.96,-293.89L195.70,-286.70ZM220.94,-156.25L211.94,-269.02L192.42,-267.47L201.42,-154.69ZM248.60,-158.46L268.11,-160.02L263.22,-221.39L269.37,-251.04L290.63,-262.82L309.59,-255.82L316.70,-233.51L322.22,-164.33L341.74,-165.89L336.22,-235.07L326.08,-268.88L293.26,-279.95L272.55,-273.62L258.46,-256.37L257.16,-272.63L239.60,-271.23ZM415.75,-124.32L454.79,-144.49L461.51,-182.87L453.10,-288.27L435.75,-286.88L436.96,-271.70L423.04,-285.09L402.81,-289.16L367.56,-269.26L358.35,-224.39L374.56,-181.55L412.52,-167.49L429.65,-173.05L441.63,-185.87L442.23,-177.59L437.35,-151.79L414.86,-141.17L396.40,-144.82L388.08,-159.55L373.03,-151.15L384.53,-131.18ZM405.25,-272.64L427.69,-263.19L440.43,-230.92L433.79,-197.12L412.31,-184.16L389.62,-193.59L378.27,-225.96L384.34,-259.73Z" fill="#ffffff" stroke="#000000"/>
    <path d="M-493.74,-110.05L-492.86,-113.62L-423.59,-121.94L-421.61,-118.05L-404.36,-84.55L-385.72,-93.70L-461.09,-235.64L-481.83,-233.15L-521.91,-77.39L-502.92,-72.73ZM-432.40,-139.31L-488.20,-132.62L-468.77,-211.08ZM-367.67,-90.69L-348.43,-93.00L-355.69,-153.51L-350.78,-183.08L-330.21,-195.56L-311.19,-189.39L-303.28,-167.61L-295.09,-99.40L-275.85,-101.71L-284.04,-169.92L-295.39,-202.95L-328.29,-212.61L-348.52,-205.54L-361.77,-187.91L-363.70,-203.95L-381.02,-201.87ZM-77.44,-125.53L-79.62,-143.70L-167.71,-133.13L-173.87,-184.44L-98.61,-193.47L-100.79,-211.65L-176.05,-202.61L-181.82,-250.72L-95.87,-261.04L-98.05,-279.21L-204.31,-266.46L-185.84,-112.52ZM-49.10,-128.93L-29.86,-131.24L-37.12,-191.74L-32.21,-221.31L-11.64,-233.79L7.38,-227.62L15.29,-205.84L23.48,-137.64L42.72,-139.95L34.54,-208.15L23.18,-241.19L-9.72,-250.85L-29.95,-243.77L-43.20,-226.15L-45.13,-242.18L-62.45,-240.11ZM141.41,-307.95L122.17,-305.64L128.69,-251.32L115.31,-260.89L96.96,-263.20L62.86,-242.13L55.51,-197.39L73.24,-155.66L111.35,-143.26L129.59,-150.71L140.96,-167.14L142.78,-151.96L159.89,-154.01ZM100.03,-246.99L123.40,-238.62L136.45,-207.11L130.41,-173.32L110.50,-159.76L87.65,-168.18L75.15,-199.75L79.83,-233.39ZM186.71,-288.87L192.75,-297.31L191.46,-308.19L183.43,-315.13L173.55,-313.94L167.58,-305.34L168.88,-294.48L176.82,-287.68ZM206.92,-159.66L193.58,-270.83L174.34,-268.53L187.68,-157.35ZM234.19,-162.93L253.43,-165.24L246.17,-225.74L251.08,-255.31L271.65,-267.80L290.68,-261.62L298.59,-239.84L306.77,-171.64L326.01,-173.95L317.83,-242.15L306.47,-275.19L273.58,-284.85L253.34,-277.77L240.09,-260.15L238.16,-276.19L220.85,-274.11ZM400.85,-135.75L438.67,-157.24L443.80,-195.46L431.33,-299.37L414.23,-297.32L416.02,-282.35L401.72,-295.04L381.56,-298.27L347.48,-277.20L340.14,-232.46L357.85,-190.73L395.96,-178.32L412.68,-184.50L424.02,-197.64L424.95,-189.47L421.13,-163.77L399.31,-152.39L380.91,-155.27L372.09,-169.50L357.55,-160.60L369.70,-141.30ZM384.62,-282.03L407.19,-273.56L421.06,-242.15L415.83,-208.46L395.09,-194.80L372.28,-203.23L359.78,-234.80L364.45,-268.43Z" fill="#ffffff" stroke="#000000"/>
    <path d="M-497.82,-85.62L-497.10,-89.19L-428.92,-100.14L-426.81,-96.38L-408.43,-63.93L-390.36,-73.70L-470.49,-211.10L-490.90,-207.82L-524.40,-52.21L-505.44,-48.35ZM-438.32,-116.98L-493.24,-108.16L-477.12,-186.51ZM-372.40,-71.44L-353.46,-74.49L-363.03,-134.04L-359.33,-163.47L-339.48,-176.62L-320.43,-171.27L-311.75,-150.04L-300.96,-82.92L-282.03,-85.96L-292.81,-153.09L-305.34,-185.31L-338.25,-193.57L-357.98,-185.77L-370.39,-167.82L-372.93,-183.60L-389.97,-180.86ZM-86.75,-117.33L-89.63,-135.21L-176.32,-121.29L-184.43,-171.79L-110.36,-183.69L-113.24,-201.57L-187.31,-189.67L-194.91,-237.02L-110.32,-250.61L-113.19,-268.49L-217.77,-251.69L-193.44,-100.19ZM-58.87,-121.81L-39.93,-124.85L-49.50,-184.40L-45.80,-213.83L-25.95,-226.99L-6.90,-221.63L1.78,-200.40L12.57,-133.28L31.50,-136.32L20.72,-203.45L8.19,-235.67L-24.72,-243.93L-44.45,-236.13L-56.86,-218.18L-59.40,-233.96L-76.44,-231.23ZM122.48,-306.35L103.54,-303.31L112.13,-249.84L98.52,-258.78L80.28,-260.34L47.39,-238.17L41.89,-193.63L61.06,-153.06L99.24,-142.30L116.98,-150.38L127.58,-167.08L129.98,-152.14L146.82,-154.84ZM83.96,-244.43L107.40,-237.07L121.54,-206.43L116.90,-172.77L97.75,-158.58L74.82,-166.02L61.22,-196.74L64.52,-230.19ZM168.02,-289.26L173.67,-297.85L171.96,-308.55L163.75,-315.10L154.03,-313.54L148.46,-304.80L150.17,-294.11L158.30,-287.70ZM193.11,-162.28L175.53,-271.70L156.59,-268.66L174.17,-159.24ZM219.94,-166.59L238.88,-169.63L229.31,-229.18L233.01,-258.62L252.86,-271.77L271.91,-266.41L280.59,-245.19L291.38,-178.06L310.31,-181.11L299.53,-248.23L287.00,-280.45L254.09,-288.71L234.36,-280.91L221.95,-262.97L219.41,-278.75L202.37,-276.01ZM385.82,-146.28L422.38,-169.02L425.95,-207.02L409.52,-309.28L392.69,-306.58L395.05,-291.85L380.41,-303.84L360.35,-306.23L327.47,-284.05L321.98,-239.52L341.14,-198.95L379.31,-188.19L395.61,-194.95L406.30,-208.40L407.54,-200.36L404.78,-174.79L383.65,-162.67L365.33,-164.79L356.06,-178.52L342.02,-169.15L354.80,-150.54ZM364.01,-290.30L386.66,-282.81L401.62,-252.30L397.77,-218.77L377.80,-204.45L354.91,-211.89L341.31,-242.61L344.60,-276.06Z" fill="#ffffff" stroke="#000000"/>
    <path d="M-500.64,-61.13L-500.07,-64.69L-433.09,-78.20L-430.85,-74.56L-411.40,-43.20L-393.91,-53.58L-478.56,-186.28L-498.61,-182.24L-525.61,-27.05L-506.70,-23.98ZM-443.04,-94.48L-497.00,-83.59L-484.14,-161.71ZM-376.07,-52.05L-357.46,-55.81L-369.26,-114.31L-366.77,-143.56L-347.66,-157.35L-328.61,-152.81L-319.19,-132.16L-305.88,-66.21L-287.28,-69.97L-300.58,-135.92L-314.24,-167.28L-347.11,-174.15L-366.31,-165.67L-377.88,-147.43L-381.01,-162.93L-397.75,-159.56ZM-95.43,-108.67L-98.97,-126.25L-184.15,-109.06L-194.16,-158.68L-121.39,-173.36L-124.93,-190.93L-197.70,-176.25L-207.09,-222.77L-123.98,-239.53L-127.53,-257.11L-230.27,-236.38L-200.24,-87.53ZM-68.03,-114.20L-49.42,-117.96L-61.23,-176.46L-58.73,-205.71L-39.63,-219.50L-20.57,-214.95L-11.15,-194.31L2.15,-128.36L20.76,-132.11L7.45,-198.06L-6.21,-229.43L-39.08,-236.30L-58.28,-227.81L-69.85,-209.58L-72.97,-225.08L-89.72,-221.70ZM104.02,-303.82L85.41,-300.07L96.01,-247.54L82.20,-255.84L64.10,-256.67L32.46,-233.44L28.77,-189.19L49.32,-149.83L87.50,-140.70L104.73,-149.39L114.55,-166.31L117.51,-151.63L134.05,-154.97ZM68.36,-241.08L91.83,-234.73L107.03,-204.98L103.76,-171.52L85.38,-156.74L62.42,-163.18L47.76,-193.02L49.70,-226.23ZM149.72,-288.72L154.96,-297.43L152.86,-307.95L144.48,-314.10L134.93,-312.17L129.77,-303.31L131.88,-292.81L140.17,-286.79ZM179.53,-164.15L157.84,-271.65L139.23,-267.90L160.92,-160.39ZM205.89,-169.47L224.50,-173.22L212.69,-231.73L215.19,-260.98L234.29,-274.76L253.35,-270.22L262.77,-249.57L276.07,-183.63L294.68,-187.38L281.37,-253.33L267.72,-284.69L234.85,-291.56L215.65,-283.08L204.08,-264.84L200.95,-280.35L184.20,-276.97ZM370.72,-155.91L405.97,-179.84L408.00,-217.56L387.73,-318.03L371.19,-314.69L374.11,-300.22L359.16,-311.50L339.23,-313.07L307.59,-289.85L303.91,-245.60L324.46,-206.24L362.63,-197.10L378.47,-204.43L388.52,-218.14L390.06,-210.24L388.33,-184.86L367.92,-172.04L349.73,-173.42L340.01,-186.63L326.50,-176.80L339.87,-158.91ZM343.47,-297.46L366.17,-290.96L382.16,-261.37L379.67,-228.07L360.49,-213.12L337.57,-219.57L322.90,-249.42L324.85,-282.62Z" fill="#ffffff" stroke="#000000"/>
    <path d="M-502.20,-36.64L-501.77,-40.18L-436.08,-56.18L-433.73,-52.68L-413.26,-22.44L-396.38,-33.39L-485.30,-161.25L-504.96,-156.46L-525.54,-1.96L-506.73,0.33ZM-446.57,-71.89L-499.48,-59.00L-489.85,-136.73ZM-378.67,-32.58L-360.43,-37.02L-374.40,-94.40L-373.09,-123.42L-354.74,-137.81L-335.72,-134.06L-325.60,-114.02L-309.84,-49.34L-291.60,-53.79L-307.35,-118.47L-322.09,-148.94L-354.86,-154.44L-373.51,-145.29L-384.23,-126.80L-387.93,-142.01L-404.35,-138.01ZM-103.44,-99.61L-107.64,-116.85L-191.17,-96.50L-203.02,-145.16L-131.66,-162.54L-135.85,-179.78L-207.22,-162.40L-218.33,-208.02L-136.83,-227.87L-141.02,-245.10L-241.79,-220.56L-206.24,-74.58ZM-76.57,-106.16L-58.32,-110.60L-72.30,-167.98L-70.98,-197.00L-52.64,-211.38L-33.62,-207.64L-23.49,-187.60L-7.74,-122.92L10.51,-127.36L-5.25,-192.04L-19.99,-222.51L-52.75,-228.01L-71.40,-218.87L-82.12,-200.38L-85.83,-215.59L-102.25,-211.59ZM86.06,-300.41L67.81,-295.96L80.36,-244.45L66.38,-252.11L48.46,-252.22L18.08,-228.01L16.18,-184.11L38.05,-146.01L76.16,-138.48L92.84,-147.75L101.89,-164.87L105.39,-150.47L121.61,-154.42ZM53.28,-236.97L76.74,-231.62L92.93,-202.80L91.02,-169.59L73.43,-154.25L50.48,-159.72L34.80,-188.65L35.42,-221.55ZM131.85,-287.27L136.68,-296.10L134.19,-306.41L125.67,-312.16L116.29,-309.88L111.54,-300.92L114.05,-290.62L122.47,-284.99ZM166.22,-165.29L140.54,-270.72L122.30,-266.27L147.97,-160.84ZM192.08,-171.58L210.32,-176.03L196.35,-233.41L197.66,-262.43L216.01,-276.81L235.03,-273.07L245.15,-253.03L260.91,-188.35L279.15,-192.79L263.40,-257.47L248.66,-287.94L215.89,-293.44L197.24,-284.30L186.53,-265.81L182.82,-281.02L166.40,-277.02ZM355.57,-164.68L389.48,-189.72L390.00,-227.09L366.00,-325.63L349.78,-321.68L353.24,-307.49L338.02,-318.05L318.25,-318.82L287.88,-294.61L285.99,-250.72L307.85,-212.61L345.95,-205.08L361.33,-212.95L370.72,-226.91L372.55,-219.16L371.85,-193.99L352.17,-180.51L334.13,-181.16L324.00,-193.84L311.04,-183.59L324.96,-166.43ZM323.06,-303.55L345.76,-298.01L362.73,-269.39L361.58,-236.37L343.21,-220.83L320.29,-226.31L304.61,-255.24L305.23,-288.14Z" fill="#ffffff" stroke="#000000"/>
    <path d="M-502.51,-12.23L-502.22,-15.75L-437.91,-34.15L-435.44,-30.78L-414.02,-1.69L-397.76,-13.18L-490.70,-136.08L-509.96,-130.57L-524.21,22.97L-505.52,24.50ZM-448.89,-49.26L-500.70,-34.44L-494.24,-111.66ZM-380.23,-13.08L-362.36,-18.19L-378.44,-74.36L-378.28,-103.10L-360.71,-118.04L-341.76,-115.09L-330.96,-95.68L-312.85,-32.36L-294.98,-37.47L-313.10,-100.79L-328.87,-130.33L-361.48,-134.48L-379.56,-124.70L-389.43,-106.01L-393.69,-120.89L-409.77,-116.29ZM-110.78,-90.18L-115.61,-107.05L-197.39,-83.65L-211.02,-131.29L-141.15,-151.28L-145.98,-168.16L-215.85,-148.16L-228.63,-192.82L-148.83,-215.66L-153.66,-232.53L-252.31,-204.30L-211.42,-61.38ZM-84.48,-97.71L-66.61,-102.82L-82.69,-159.00L-82.53,-187.73L-64.96,-202.68L-46.01,-199.73L-35.21,-180.31L-17.09,-116.99L0.77,-122.10L-17.35,-185.42L-33.12,-214.97L-65.73,-219.11L-83.81,-209.34L-93.67,-190.64L-97.93,-205.53L-114.01,-200.93ZM68.65,-296.15L50.79,-291.03L65.22,-240.60L51.10,-247.63L33.37,-247.03L4.30,-221.90L4.15,-178.43L27.27,-141.62L65.24,-135.68L81.37,-145.50L89.63,-162.78L93.67,-148.69L109.55,-153.23ZM38.74,-232.14L62.14,-227.77L79.29,-199.93L78.70,-167.02L61.92,-151.16L39.01,-155.67L22.38,-183.65L21.69,-216.20ZM114.43,-284.97L118.86,-293.88L115.99,-303.98L107.34,-309.33L98.16,-306.71L93.82,-297.66L96.70,-287.57L105.25,-282.34ZM153.22,-165.73L123.68,-268.94L105.81,-263.83L135.35,-160.62ZM178.53,-172.97L196.39,-178.08L180.32,-234.26L180.47,-262.99L198.04,-277.94L216.99,-274.99L227.79,-255.57L245.91,-192.25L263.78,-197.37L245.66,-260.69L229.89,-290.23L197.27,-294.37L179.20,-284.60L169.33,-265.90L165.07,-280.79L148.99,-276.19ZM340.42,-172.58L372.96,-198.68L372.01,-235.64L344.40,-332.11L328.52,-327.56L332.50,-313.67L317.03,-323.51L297.46,-323.49L268.39,-298.37L268.25,-254.90L291.37,-218.09L329.32,-212.14L344.22,-220.53L352.95,-234.70L355.07,-227.11L355.36,-202.20L336.44,-188.10L318.58,-188.03L308.07,-200.16L295.66,-189.52L310.10,-173.11ZM302.82,-308.59L325.47,-304.01L343.38,-276.38L343.55,-243.69L325.99,-227.61L303.12,-232.12L286.49,-260.10L285.80,-292.65Z" fill="#ffffff" stroke="#000000"/>
    <path d="M-501.57,12.05L-501.43,8.56L-438.58,-12.16L-436.01,-8.93L-413.69,18.98L-398.07,6.99L-494.78,-110.84L-513.59,-104.63L-521.64,47.70L-503.11,48.47ZM-450.03,-26.67L-500.66,-9.97L-497.31,-86.56ZM-380.74,6.40L-363.28,0.64L-381.38,-54.25L-382.36,-82.66L-365.58,-98.13L-346.73,-95.96L-335.29,-77.19L-314.89,-15.32L-297.43,-21.07L-317.84,-82.95L-334.59,-111.53L-366.99,-114.34L-384.47,-103.97L-393.49,-85.10L-398.28,-99.65L-414.00,-94.47ZM-117.43,-80.43L-122.87,-96.92L-202.78,-70.56L-218.13,-117.12L-149.86,-139.63L-155.29,-156.12L-223.57,-133.60L-237.96,-177.25L-159.99,-202.96L-165.42,-219.45L-261.82,-187.66L-215.77,-48.00ZM-91.73,-88.91L-74.27,-94.66L-92.37,-149.56L-93.35,-177.97L-76.57,-193.43L-57.72,-191.26L-46.28,-172.50L-25.88,-110.62L-8.42,-116.38L-28.83,-178.25L-45.58,-206.83L-77.98,-209.65L-95.46,-199.27L-104.48,-180.40L-109.27,-194.95L-124.99,-189.77ZM51.82,-291.08L34.36,-285.33L50.61,-236.04L36.38,-242.44L18.88,-241.14L-8.87,-215.16L-7.31,-172.18L17.00,-136.71L54.76,-132.33L70.32,-142.67L77.81,-160.08L82.35,-146.31L97.87,-151.43ZM24.78,-226.64L48.08,-223.24L66.12,-196.40L66.84,-163.85L50.87,-147.51L28.06,-151.06L10.51,-178.06L8.55,-210.21ZM97.51,-281.84L101.54,-290.82L98.31,-300.69L89.54,-305.64L80.58,-302.68L76.64,-293.57L79.88,-283.71L88.54,-278.88ZM140.54,-165.50L107.28,-266.36L89.83,-260.61L123.09,-159.74ZM165.28,-173.66L182.74,-179.41L164.63,-234.30L163.66,-262.72L180.44,-278.18L199.28,-276.01L210.72,-257.24L231.13,-195.37L248.58,-201.13L228.18,-263.00L211.43,-291.58L179.03,-294.40L161.55,-284.02L152.53,-265.15L147.73,-279.70L132.02,-274.52ZM325.32,-179.65L356.46,-206.72L354.06,-243.22L322.97,-337.49L307.46,-332.37L311.93,-318.79L296.26,-327.91L276.91,-327.13L249.17,-301.14L250.74,-258.17L275.04,-222.70L312.79,-218.31L327.18,-227.19L335.26,-241.54L337.65,-234.12L338.92,-209.51L320.77,-194.83L303.12,-194.05L292.26,-205.64L280.40,-194.63L295.32,-178.97ZM282.80,-312.61L305.37,-308.97L324.15,-282.36L325.61,-250.06L308.89,-233.47L286.10,-237.03L268.56,-264.03L266.60,-296.18Z" fill="#ffffff" stroke="#000000"/>
    <path d="M-499.40,36.13L-499.40,32.67L-438.11,9.72L-435.44,12.82L-412.27,39.52L-397.31,27.05L-497.53,-85.59L-515.88,-78.72L-517.84,72.15L-499.49,72.19ZM-449.99,-4.17L-499.37,14.33L-499.08,-61.50ZM-380.20,25.78L-363.18,19.41L-383.23,-34.13L-385.31,-62.18L-369.34,-78.12L-350.62,-76.71L-338.58,-58.62L-315.98,1.73L-298.95,-4.65L-321.55,-65.00L-339.24,-92.59L-371.37,-94.09L-388.24,-83.15L-396.41,-64.14L-401.72,-78.33L-417.05,-72.59ZM-123.38,-70.40L-129.41,-86.48L-207.35,-57.29L-224.36,-102.69L-157.76,-127.63L-163.79,-143.71L-230.38,-118.77L-246.32,-161.34L-170.27,-189.82L-176.29,-205.90L-270.32,-170.69L-219.30,-34.47ZM-98.31,-79.79L-81.29,-86.16L-101.34,-139.70L-103.42,-167.75L-87.45,-183.69L-68.73,-182.29L-56.69,-164.19L-34.09,-103.84L-17.06,-110.22L-39.66,-170.57L-57.35,-198.16L-89.48,-199.66L-106.35,-188.72L-114.52,-169.71L-119.83,-183.90L-135.16,-178.16ZM35.60,-285.26L18.57,-278.88L36.57,-230.81L22.26,-236.57L5.01,-234.60L-21.39,-207.83L-18.16,-165.42L7.27,-131.32L44.76,-128.47L59.73,-139.31L66.45,-156.81L71.48,-143.38L86.61,-149.04ZM11.41,-220.51L34.57,-218.06L53.46,-192.24L55.46,-160.10L40.32,-143.32L17.63,-145.93L-0.78,-171.93L-3.98,-203.62ZM81.12,-277.92L84.75,-286.96L81.17,-296.59L72.31,-301.13L63.56,-297.86L60.03,-288.69L63.63,-279.08L72.38,-274.64ZM128.23,-164.63L91.39,-263.01L74.36,-256.63L111.21,-158.26ZM152.36,-173.67L169.39,-180.04L149.34,-233.58L147.25,-261.63L163.23,-277.57L181.94,-276.17L193.98,-258.07L216.58,-197.72L233.61,-204.10L211.01,-264.45L193.33,-292.04L161.20,-293.54L144.32,-282.60L136.15,-263.60L130.84,-277.78L115.52,-272.05ZM310.30,-185.89L340.01,-213.88L336.20,-249.85L301.77,-341.80L286.63,-336.13L291.59,-322.89L275.74,-331.28L256.65,-329.74L230.26,-302.97L233.50,-260.57L258.91,-226.46L296.40,-223.61L310.27,-232.95L317.69,-247.45L320.34,-240.21L322.57,-215.94L305.21,-200.72L287.80,-199.26L276.60,-210.27L265.32,-198.93L280.68,-184.04ZM263.04,-315.63L285.49,-312.92L305.10,-287.37L307.81,-255.49L291.94,-238.44L269.28,-241.06L250.88,-267.06L247.67,-298.75Z" fill="#ffffff" stroke="#000000"/>
    <path d="M-496.03,59.94L-496.17,56.53L-436.50,31.43L-433.74,34.39L-409.80,59.87L-395.50,46.96L-498.97,-60.42L-516.84,-52.90L-512.83,96.27L-494.70,95.58ZM-448.79,18.18L-496.86,38.40L-499.55,-36.55ZM-378.64,45.03L-362.07,38.06L-383.99,-14.06L-387.15,-41.69L-371.99,-58.08L-353.45,-57.43L-340.83,-40.02L-316.12,18.73L-299.54,11.76L-324.26,-46.99L-342.82,-73.56L-374.63,-73.78L-390.87,-62.30L-398.20,-43.20L-404.01,-57.01L-418.93,-50.74ZM-128.63,-60.13L-135.22,-75.78L-211.10,-43.87L-229.69,-88.07L-164.86,-115.34L-171.45,-130.99L-236.27,-103.72L-253.70,-145.16L-179.67,-176.30L-186.25,-191.96L-277.79,-153.46L-222.01,-20.85ZM-104.23,-70.40L-87.65,-77.37L-109.58,-129.49L-112.74,-157.12L-97.58,-173.50L-79.03,-172.85L-66.42,-155.44L-41.71,-96.69L-25.13,-103.67L-49.84,-162.42L-68.40,-188.98L-100.22,-189.21L-116.46,-177.73L-123.78,-158.63L-129.59,-172.44L-144.51,-166.16ZM20.02,-278.72L3.44,-271.75L23.13,-224.95L8.75,-230.08L-8.21,-227.46L-33.25,-199.96L-28.39,-158.17L-1.92,-125.47L35.24,-124.14L49.61,-135.44L55.56,-153.00L61.06,-139.92L75.80,-146.12ZM-1.34,-213.78L21.65,-212.27L41.33,-187.50L44.57,-155.81L30.27,-138.64L7.74,-140.32L-11.47,-165.29L-15.88,-196.49ZM65.29,-273.26L68.53,-282.33L64.60,-291.71L55.67,-295.85L47.16,-292.27L44.03,-283.07L47.96,-273.72L56.78,-269.68ZM116.31,-163.16L76.03,-258.93L59.45,-251.96L99.74,-156.19ZM139.80,-173.04L156.37,-180.01L134.45,-232.13L131.29,-259.76L146.45,-276.15L164.99,-275.50L177.61,-258.09L202.32,-199.34L218.90,-206.31L194.18,-265.06L175.62,-291.63L143.81,-291.85L127.57,-280.37L120.24,-261.27L114.43,-275.08L99.52,-268.81ZM295.40,-191.34L323.65,-220.16L318.48,-255.57L280.83,-345.07L266.09,-338.88L271.52,-325.98L255.52,-333.65L236.71,-331.38L211.69,-303.89L216.56,-262.11L243.02,-229.41L280.17,-228.07L293.52,-237.84L300.27,-252.46L303.18,-245.41L306.34,-221.51L289.78,-205.79L272.63,-203.66L261.14,-214.11L250.43,-202.45L266.20,-188.34ZM243.58,-317.68L265.88,-315.89L286.27,-291.41L290.20,-260.02L275.19,-242.54L252.69,-244.24L233.48,-269.21L229.07,-300.41Z" fill="#ffffff" stroke="#000000"/>
    <path d="M-906.35,492L-906.35,469.28L-898.22,492L-894.99,492L-886.86,469.28L-886.86,492L-883.25,492L-883.25,464.64L-888.22,464.64L-896.55,487.33L-904.68,464.64L-909.96,464.64L-909.96,492ZM-865.67,478.75L-876.82,482.17L-879.09,486.89L-877.05,491.38L-872.23,492.78L-868.69,492.09L-865.45,489.71L-865.46,492L-862.27,492L-862.27,479.25L-864.06,473.45L-869.98,471.46L-875.30,472.76L-877.88,476.62L-875.17,478.28L-873.43,475.28L-870.33,474.25L-867.00,475.23ZM-865.67,481.77L-865.68,486.77L-868.09,488.89L-871.68,489.99L-874.26,489.33L-875.44,486.74L-873.91,484.05ZM-857.12,492L-853.70,492L-853.70,481.25L-852.22,476.17L-848.35,474.41L-845.15,475.90L-844.22,479.88L-844.22,492L-840.80,492L-840.80,479.88L-842.09,473.85L-847.66,471.47L-851.35,472.28L-854.04,475.09L-854.04,472.24L-857.12,472.24ZM-833.34,468.94L-832.11,467.58L-832.10,465.65L-833.36,464.27L-835.12,464.27L-836.35,465.65L-836.35,467.58L-835.10,468.94ZM-832.52,492L-832.52,472.24L-835.94,472.24L-835.94,492ZM-818.31,468.12L-817.85,465.29L-820.94,464.71L-825.30,466.41L-826.70,471.29L-826.70,472.24L-829.67,472.24L-829.67,474.86L-826.70,474.86L-826.70,492L-823.40,492L-823.40,474.86L-819.56,474.86L-819.56,472.24L-823.40,472.24L-823.40,471.21L-822.75,468.65L-820.52,467.74ZM-807.97,471.46L-814.77,474.29L-817.39,482.12L-814.77,489.95L-807.97,492.78L-801.17,489.95L-798.55,482.12L-801.16,474.29ZM-807.97,489.87L-812.08,488.06L-813.90,482.12L-812.08,476.18L-807.97,474.37L-803.85,476.18L-802.04,482.12L-803.85,488.06ZM-795.03,492L-791.61,492L-791.61,481.25L-790.13,476.17L-786.26,474.41L-783.06,475.90L-782.13,479.88L-782.13,492L-778.71,492L-778.71,479.88L-780.00,473.85L-785.56,471.47L-789.26,472.28L-791.95,475.09L-791.95,472.24L-795.03,472.24ZM-765.45,492.27L-765.45,492.26L-765.85,489.32L-767.38,489.55L-769.03,488.71L-769.32,486.22L-769.32,474.86L-765.94,474.86L-765.94,472.24L-769.32,472.24L-769.32,465.40L-772.74,465.40L-772.74,472.24L-775.55,472.24L-775.55,474.86L-772.74,474.86L-772.74,486.22L-771.96,491.00L-768.07,492.63ZM-737.50,487.93L-737.50,478.13L-749.05,478.13L-749.05,481.31L-740.99,481.31L-740.97,486.22L-748.63,489.75L-755.95,486.41L-758.55,478.32L-756.06,470.17L-749.21,466.88L-744.27,468.25L-741.30,473.01L-738.24,471.11L-741.44,465.93L-749.13,463.79L-758.98,468.04L-762.42,478.32L-758.78,488.60L-748.74,492.86ZM-724.35,474.77L-721.78,475.62L-720.76,472.73L-724.11,471.47L-727.37,472.48L-729.65,475.66L-729.65,472.24L-732.73,472.24L-732.73,491.81L-729.31,492L-729.31,481.32L-728.06,476.56ZM-710.01,471.46L-716.81,474.29L-719.42,482.12L-716.81,489.95L-710.01,492.78L-703.20,489.95L-700.58,482.12L-703.20,474.29ZM-710.01,489.87L-714.12,488.06L-715.93,482.12L-714.12,476.18L-710.01,474.37L-705.89,476.18L-704.07,482.12L-705.89,488.06ZM-688.58,492.27L-688.58,492.26L-688.97,489.32L-690.51,489.55L-692.15,488.71L-692.45,486.22L-692.45,474.86L-689.07,474.86L-689.07,472.24L-692.45,472.24L-692.45,465.40L-695.87,465.40L-695.87,472.24L-698.68,472.24L-698.68,474.86L-695.87,474.86L-695.87,486.22L-695.09,491.00L-691.19,492.63ZM-680.57,488.24L-682.57,483.00L-667.90,482.99L-667.71,481.63L-669.97,474.39L-676.83,471.45L-683.53,474.28L-686.05,482.11L-683.53,489.93L-676.83,492.76L-671.18,491.10L-668.58,487.02L-671.25,485.36L-673.32,488.74L-676.63,489.86ZM-682.45,480.26L-680.31,475.73L-676.83,474.35L-672.95,476.00L-671.40,480.26ZM-661.99,485.88L-664.90,487.24L-662.96,491.11L-657.11,492.78L-651.52,491.39L-648.97,486.66L-650.50,482.61L-653.83,480.90L-658.44,479.65L-661.00,478.62L-661.84,477.05L-660.74,475.10L-657.52,474.38L-654.42,475.23L-653.09,477.74L-650.21,476.38L-651.88,473.07L-657.39,471.46L-662.84,472.86L-665.18,477.43L-663.66,481.06L-660.23,482.69L-655.36,483.98L-653.07,485.13L-652.46,486.96L-653.99,489.26L-656.99,489.87L-660.63,488.67ZM-641.92,483.45L-638.72,483.45L-637.20,484.67L-633.14,492.30L-630.05,490.63L-634.16,483.45L-636.67,482.04L-634.62,480.06L-632.77,476.14L-631.66,475.64L-630.10,475.39L-630.56,472.24L-633.40,472.52L-635.30,474.17L-637.43,478.82L-638.72,480.60L-641.91,480.60L-641.91,464.64L-643.66,464.64L-645.32,464.64L-645.33,492L-641.92,492ZM-625.58,492.01L-615.04,492.01L-607.42,490.45L-604.53,484.21L-606.06,480.03L-610.31,477.70L-606.80,475.27L-605.82,471.62L-608.58,466.13L-615.58,464.63L-625.58,464.63ZM-621.94,476.42L-621.95,467.89L-616.40,467.89L-611.64,468.44L-609.62,472.08L-611.57,475.51L-615.93,476.42ZM-621.94,488.79L-621.94,479.64L-615.54,479.64L-610.64,480.53L-608.45,484.21L-610.32,488.02L-615.04,488.79ZM-592.40,471.46L-599.20,474.29L-601.81,482.12L-599.20,489.95L-592.40,492.78L-585.59,489.95L-582.97,482.12L-585.59,474.29ZM-592.40,489.87L-596.51,488.06L-598.32,482.12L-596.51,476.18L-592.40,474.37L-588.28,476.18L-586.46,482.12L-588.28,488.06ZM-571.27,471.46L-578.07,474.29L-580.68,482.12L-578.07,489.95L-571.27,492.78L-564.46,489.95L-561.85,482.12L-564.46,474.29ZM-571.27,489.87L-575.38,488.06L-577.19,482.12L-575.38,476.18L-571.27,474.37L-567.15,476.18L-565.33,482.12L-567.15,488.06ZM-554.82,483.45L-551.62,483.45L-550.10,484.67L-546.04,492.30L-542.96,490.63L-547.06,483.45L-549.57,482.04L-547.52,480.06L-545.67,476.14L-544.56,475.64L-543.00,475.39L-543.46,472.24L-546.31,472.52L-548.20,474.17L-550.34,478.82L-551.62,480.60L-554.82,480.60L-554.82,464.64L-556.56,464.64L-558.23,464.64L-558.23,492L-554.82,492Z"/>
</svg>