<?xml version="1.0"?>
<svg xmlns="http://www.w3.org/2000/svg" width="1920" height="1080" viewBox="-960 -540 1920 1080">
    <path d="M-24.97,-285.53L-58.05,-285.53L-58.05,-242.68L-35.85,-242.68L-35.85,-218.04L-58.05,-218.04L-58.05,-147L-82.03,-147L-82.03,-310.17L-24.97,-310.17ZM-15.21,-310.17L7.22,-310.17L7.22,-287.75L-15.21,-287.75ZM-15.21,-147L-15.21,-268.43L7.22,-268.43L7.22,-147ZM47.40,-147L24.97,-147L24.97,-268.43L47.40,-268.43L47.40,-258.22C47.84,-258.44 48.73,-259.33 50.06,-260.66C52.50,-263.11 55.83,-266.44 59.83,-268.66C61.83,-269.77 63.60,-270.21 65.60,-270.21C71.60,-270.21 75.81,-266.66 78.48,-262.22C81.14,-257.56 82.47,-251.56 82.47,-246.46L82.47,-147L60.05,-147L60.05,-243.13C60.05,-247.79 57.39,-248.45 54.72,-248.45C52.28,-248.45 50.95,-247.12 49.40,-245.57C48.73,-244.68 48.06,-243.79 47.40,-242.68Z" fill="#ffffff" stroke="#000000"/>
    <path d="M-31.11,-279.65L-63.85,-279.60L-63.79,-237.18L-41.81,-237.22L-41.77,-212.82L-63.75,-212.79L-63.64,-142.46L-87.37,-142.42L-87.63,-303.96L-31.15,-304.05ZM-21.48,-304.06L0.72,-304.10L0.76,-281.90L-21.44,-281.87ZM-21.22,-142.53L-21.41,-262.75L0.79,-262.78L0.98,-142.56ZM40.76,-142.62L18.56,-142.59L18.37,-262.81L40.57,-262.84L40.58,-252.73C41.02,-252.95 41.90,-253.84 43.22,-255.16C45.63,-257.58 48.92,-260.88 52.87,-263.08C54.85,-264.19 56.61,-264.63 58.59,-264.63C64.52,-264.64 68.70,-261.13 71.35,-256.74C73.99,-252.13 75.32,-246.20 75.33,-241.14L75.48,-142.68L53.28,-142.64L53.13,-237.81C53.13,-242.42 50.49,-243.08 47.85,-243.08C45.43,-243.07 44.12,-241.75 42.58,-240.21C41.92,-239.33 41.27,-238.45 40.61,-237.35Z" fill="#ffffff" stroke="#000000"/>
    <path d="M-37.10,-273.82L-69.52,-273.72L-69.39,-231.73L-47.63,-231.80L-47.55,-207.65L-69.31,-207.58L-69.09,-137.96L-92.59,-137.89L-93.09,-297.79L-37.18,-297.97ZM-27.61,-298.00L-5.63,-298.07L-5.56,-276.10L-27.54,-276.03ZM-27.10,-138.09L-27.48,-257.10L-5.50,-257.17L-5.13,-138.16ZM34.25,-138.29L12.28,-138.22L11.90,-257.22L33.88,-257.29L33.91,-247.29C34.34,-247.50 35.21,-248.38 36.51,-249.69C38.90,-252.09 42.15,-255.36 46.06,-257.55C48.01,-258.64 49.75,-259.08 51.71,-259.09C57.58,-259.11 61.73,-255.64 64.35,-251.30C66.98,-246.74 68.30,-240.87 68.32,-235.86L68.63,-138.40L46.65,-138.33L46.35,-232.53C46.34,-237.10 43.73,-237.74 41.12,-237.74C38.72,-237.73 37.42,-236.42 35.90,-234.89C35.25,-234.02 34.60,-233.15 33.96,-232.06Z" fill="#ffffff" stroke="#000000"/>
    <path d="M-42.96,-268.03L-75.04,-267.88L-74.85,-226.32L-53.31,-226.42L-53.20,-202.52L-74.73,-202.42L-74.41,-133.51L-97.66,-133.40L-98.41,-291.67L-43.07,-291.93ZM-33.60,-291.98L-11.85,-292.08L-11.74,-270.33L-33.49,-270.23ZM-32.85,-133.71L-33.40,-251.50L-11.66,-251.60L-11.10,-133.81ZM27.88,-133.99L6.13,-133.89L5.57,-251.68L27.32,-251.78L27.37,-241.88C27.80,-242.10 28.65,-242.96 29.94,-244.26C32.30,-246.64 35.51,-249.88 39.38,-252.06C41.31,-253.14 43.03,-253.58 44.97,-253.59C50.78,-253.62 54.89,-250.19 57.50,-245.90C60.10,-241.39 61.42,-235.58 61.45,-230.63L61.90,-134.16L40.15,-134.05L39.71,-227.29C39.69,-231.82 37.10,-232.45 34.52,-232.44C32.15,-232.43 30.86,-231.13 29.36,-229.61C28.72,-228.75 28.08,-227.88 27.44,-226.80Z" fill="#ffffff" stroke="#000000"/>
    <path d="M-48.68,-262.28L-80.43,-262.08L-80.17,-220.95L-58.86,-221.09L-58.71,-197.43L-80.02,-197.30L-79.59,-129.10L-102.61,-128.95L-103.60,-285.59L-48.83,-285.94ZM-39.45,-286.00L-17.92,-286.14L-17.79,-264.61L-39.31,-264.47ZM-38.46,-129.36L-39.20,-245.93L-17.67,-246.07L-16.93,-129.50ZM21.64,-129.74L0.12,-129.60L-0.62,-246.18L20.90,-246.31L20.97,-236.51C21.39,-236.73 22.24,-237.58 23.51,-238.87C25.84,-241.23 29.01,-244.45 32.84,-246.60C34.75,-247.68 36.45,-248.12 38.37,-248.13C44.12,-248.17 48.19,-244.78 50.78,-240.54C53.36,-236.08 54.68,-230.33 54.71,-225.43L55.31,-129.95L33.79,-129.82L33.20,-222.10C33.18,-226.57 30.61,-227.19 28.06,-227.18C25.71,-227.16 24.44,-225.88 22.96,-224.38C22.33,-223.52 21.69,-222.66 21.06,-221.59Z" fill="#ffffff" stroke="#000000"/>
    <path d="M-54.26,-256.58L-85.68,-256.33L-85.36,-215.63L-64.27,-215.80L-64.08,-192.39L-85.17,-192.22L-84.64,-124.73L-107.42,-124.55L-108.64,-279.56L-54.44,-279.99ZM-45.16,-280.06L-23.86,-280.23L-23.69,-258.93L-44.99,-258.76ZM-43.94,-125.06L-44.85,-240.42L-23.55,-240.58L-22.64,-125.22ZM15.53,-125.53L-5.77,-125.36L-6.68,-240.72L14.62,-240.89L14.70,-231.18C15.12,-231.40 15.96,-232.25 17.21,-233.52C19.51,-235.86 22.65,-239.05 26.43,-241.19C28.32,-242.26 30.00,-242.69 31.90,-242.71C37.60,-242.75 41.63,-239.41 44.19,-235.21C46.76,-230.81 48.07,-225.12 48.11,-220.27L48.86,-125.79L27.56,-125.62L26.83,-216.94C26.80,-221.37 24.26,-221.98 21.73,-221.96C19.41,-221.94 18.16,-220.67 16.69,-219.18C16.07,-218.33 15.44,-217.48 14.82,-216.42Z" fill="#ffffff" stroke="#000000"/>
    <path d="M-59.70,-250.92L-90.79,-250.63L-90.41,-210.35L-69.54,-210.55L-69.32,-187.39L-90.19,-187.19L-89.56,-120.42L-112.09,-120.20L-113.55,-273.57L-59.92,-274.08ZM-50.74,-274.17L-29.66,-274.37L-29.46,-253.29L-50.54,-253.09ZM-49.28,-120.80L-50.37,-234.94L-29.29,-235.14L-28.21,-121.00ZM9.56,-121.36L-11.51,-121.16L-12.60,-235.30L8.48,-235.50L8.57,-225.90C8.99,-226.11 9.81,-226.96 11.05,-228.22C13.33,-230.54 16.43,-233.70 20.16,-235.82C22.03,-236.88 23.70,-237.31 25.57,-237.33C31.21,-237.38 35.20,-234.08 37.75,-229.93C40.29,-225.58 41.60,-219.95 41.64,-215.15L42.53,-121.67L21.46,-121.47L20.60,-211.82C20.56,-216.21 18.05,-216.81 15.54,-216.78C13.25,-216.76 12.01,-215.50 10.56,-214.02C9.94,-213.18 9.32,-212.34 8.71,-211.29Z" fill="#ffffff" stroke="#000000"/>
    <path d="M-65.01,-245.31L-95.77,-244.97L-95.33,-205.12L-74.68,-205.35L-74.43,-182.43L-95.07,-182.21L-94.34,-116.14L-116.64,-115.90L-118.32,-267.63L-65.26,-268.22ZM-56.18,-268.32L-35.33,-268.55L-35.09,-247.70L-55.95,-247.47ZM-54.50,-116.58L-55.75,-229.51L-34.90,-229.74L-33.65,-116.81ZM3.72,-117.23L-17.13,-117.00L-18.38,-229.92L2.47,-230.16L2.58,-220.66C2.99,-220.87 3.80,-221.70 5.03,-222.96C7.27,-225.25 10.34,-228.38 14.03,-230.49C15.88,-231.54 17.52,-231.97 19.38,-231.99C24.96,-232.06 28.91,-228.80 31.44,-224.69C33.96,-220.39 35.26,-214.83 35.32,-210.08L36.34,-117.59L15.49,-117.36L14.50,-206.75C14.45,-211.09 11.97,-211.68 9.49,-211.65C7.22,-211.63 5.99,-210.37 4.56,-208.91C3.95,-208.08 3.34,-207.25 2.74,-206.21Z" fill="#ffffff" stroke="#000000"/>
    <path d="M-70.18,-239.74L-100.61,-239.35L-100.11,-199.94L-79.68,-200.20L-79.40,-177.53L-99.82,-177.27L-98.99,-111.92L-121.05,-111.64L-122.95,-261.74L-70.46,-262.41ZM-61.48,-262.52L-40.85,-262.78L-40.59,-242.15L-61.22,-241.89ZM-59.58,-112.42L-60.99,-224.13L-40.36,-224.39L-38.95,-112.68ZM-1.99,-113.14L-22.61,-112.88L-24.03,-224.59L-3.40,-224.85L-3.28,-215.46C-2.88,-215.67 -2.07,-216.50 -0.86,-217.74C1.36,-220.01 4.38,-223.11 8.03,-225.20C9.86,-226.25 11.49,-226.68 13.33,-226.70C18.84,-226.77 22.76,-223.55 25.26,-219.50C27.77,-215.24 29.06,-209.74 29.12,-205.04L30.28,-113.55L9.65,-113.29L8.54,-201.72C8.48,-206.01 6.02,-206.59 3.57,-206.56C1.33,-206.53 0.12,-205.29 -1.30,-203.84C-1.90,-203.02 -2.50,-202.19 -3.10,-201.16Z" fill="#ffffff" stroke="#000000"/>
    <path d="M-75.21,-234.21L-105.31,-233.79L-104.75,-194.80L-84.55,-195.09L-84.23,-172.66L-104.43,-172.38L-103.51,-107.74L-125.33,-107.43L-127.44,-255.90L-75.53,-256.64ZM-66.64,-256.76L-46.24,-257.05L-45.95,-236.65L-66.35,-236.36ZM-64.53,-108.29L-66.10,-218.79L-45.70,-219.08L-44.12,-108.58ZM-7.56,-109.10L-27.96,-108.81L-29.54,-219.31L-9.14,-219.60L-9.00,-210.31C-8.60,-210.51 -7.81,-211.33 -6.61,-212.56C-4.42,-214.82 -1.43,-217.89 2.17,-219.96C3.98,-221.00 5.59,-221.42 7.41,-221.45C12.86,-221.53 16.74,-218.35 19.23,-214.34C21.71,-210.14 23.00,-204.70 23.07,-200.05L24.35,-109.56L3.95,-109.27L2.71,-196.73C2.65,-200.98 0.21,-201.55 -2.21,-201.51C-4.43,-201.48 -5.63,-200.25 -7.02,-198.82C-7.62,-198.00 -8.21,-197.18 -8.80,-196.17Z" fill="#ffffff" stroke="#000000"/>
    <path d="M-80.11,-228.74L-109.87,-228.27L-109.26,-189.71L-89.28,-190.03L-88.93,-167.85L-108.91,-167.53L-107.90,-103.61L-129.48,-103.27L-131.80,-250.10L-80.46,-250.91ZM-71.67,-251.05L-51.49,-251.37L-51.17,-231.19L-71.35,-230.87ZM-69.34,-104.22L-71.07,-213.49L-50.89,-213.81L-49.17,-104.54ZM-13.01,-105.11L-33.18,-104.79L-34.91,-214.07L-14.74,-214.38L-14.59,-205.19C-14.19,-205.40 -13.41,-206.21 -12.23,-207.43C-10.06,-209.66 -7.12,-212.71 -3.55,-214.76C-1.77,-215.79 -0.18,-216.21 1.62,-216.24C7.02,-216.33 10.86,-213.19 13.32,-209.23C15.79,-205.08 17.07,-199.70 17.14,-195.11L18.56,-105.61L-1.62,-105.29L-2.99,-191.79C-3.05,-195.99 -5.46,-196.55 -7.86,-196.51C-10.06,-196.47 -11.24,-195.26 -12.61,-193.84C-13.20,-193.03 -13.79,-192.22 -14.37,-191.21Z" fill="#ffffff" stroke="#000000"/>
    <path d="M-911.48,464.07L-907.38,464.07L-907.38,488.20L-901.94,488.20L-901.94,492L-911.48,492ZM-890.66,484.55L-890.66,486.95C-890.77,488.96 -891.38,490.37 -892.75,491.47C-893.43,492.04 -894.38,492.30 -895.63,492.30C-898.10,492.30 -899.36,490.94 -899.97,489.57C-900.31,488.77 -900.54,487.86 -900.57,486.83L-900.57,476.38C-900.46,474.37 -899.81,472.89 -898.45,471.75C-897.80,471.18 -896.85,470.91 -895.60,470.91C-893.13,470.91 -891.87,472.28 -891.26,473.61C-890.92,474.41 -890.69,475.28 -890.66,476.27L-890.66,482.31L-897.00,482.31L-897.00,486.83C-896.96,487.63 -896.74,488.20 -896.39,488.62C-896.20,488.81 -895.94,488.92 -895.60,488.92C-894.87,488.92 -894.53,488.47 -894.38,487.90C-894.27,487.59 -894.23,487.25 -894.23,486.83L-894.23,484.55ZM-897.00,479.31L-894.23,479.31L-894.23,476.38C-894.23,475.58 -894.38,475.01 -894.76,474.56C-894.95,474.37 -895.25,474.25 -895.60,474.25C-896.32,474.25 -896.62,474.75 -896.81,475.32C-896.93,475.62 -896.96,475.96 -897.00,476.38ZM-882.22,476.15C-882.22,475.81 -882.22,475.28 -882.33,474.90C-882.49,474.52 -882.79,474.25 -883.28,474.25C-883.93,474.25 -884.20,474.75 -884.31,475.36C-884.35,475.66 -884.39,476.00 -884.39,476.34C-884.39,476.69 -884.39,477.03 -884.39,477.33L-888.22,477.33L-888.22,476.46C-888.22,474.94 -887.65,473.57 -886.74,472.54C-885.83,471.52 -884.54,470.91 -883.06,470.91C-881.80,470.91 -880.66,471.40 -879.79,472.24C-878.91,473.08 -878.38,474.25 -878.38,475.62L-878.38,488.39C-878.38,490.25 -878.27,491.09 -878.12,492L-881.88,492C-882.22,491.58 -882.22,490.59 -882.22,490.33L-882.49,490.33C-882.68,490.67 -883.02,491.16 -883.55,491.58C-884.08,492 -884.80,492.30 -885.56,492.30C-886.06,492.30 -886.86,492.11 -887.46,491.35C-888.11,490.63 -888.64,489.34 -888.64,487.17C-888.64,484.86 -887.96,483.18 -887.05,482.04C-886.13,480.90 -884.99,480.18 -884.04,479.69C-883.09,479.19 -882.37,478.85 -882.22,478.43ZM-882.22,481.97C-884.08,482.77 -884.88,484.63 -884.88,486.60C-884.88,486.87 -884.84,487.33 -884.69,487.74C-884.54,488.20 -884.27,488.54 -883.82,488.54C-882.94,488.54 -882.22,488.01 -882.22,487.29ZM-866.37,481.97C-866.49,483.91 -867.17,485.27 -868.50,486.30C-869.19,486.83 -870.14,487.10 -871.31,487.10C-871.43,487.10 -871.54,487.10 -871.66,487.10C-871.77,487.10 -871.92,487.10 -872.04,487.06C-872.38,487.36 -872.57,487.67 -872.57,488.01C-872.57,488.47 -872.19,488.73 -871.62,488.88C-871.05,489.07 -870.36,489.19 -869.64,489.30C-868.43,489.45 -867.13,489.76 -866.07,490.48C-865.04,491.20 -864.32,492.30 -864.32,494.13C-864.32,496.14 -865.20,497.51 -866.41,498.31C-867.67,499.11 -869.34,499.45 -870.90,499.45C-872.72,499.41 -874.28,499.14 -875.34,498.54C-876.44,497.93 -877.05,496.94 -877.05,495.42C-877.05,494.70 -876.67,494.09 -876.10,493.56C-875.53,493.03 -874.77,492.61 -874.05,492.27C-875.30,491.92 -876.37,491.13 -876.37,489.49C-876.37,488.88 -876.03,488.28 -875.57,487.71C-875.11,487.14 -874.54,486.68 -873.97,486.38C-875.08,485.65 -875.61,484.51 -875.87,483.56C-876.03,482.99 -876.14,482.42 -876.18,481.85L-876.18,476.19C-876.03,474.25 -875.42,472.85 -874.09,471.75C-873.44,471.18 -872.49,470.91 -871.31,470.91C-869.38,470.91 -868.20,471.78 -867.48,472.81C-867.21,472.54 -866.75,472.09 -866.15,471.67C-865.58,471.25 -864.93,470.91 -864.32,470.91L-864.32,474.33C-865.35,474.33 -866.11,474.52 -866.56,474.79C-866.53,474.98 -866.49,475.17 -866.45,475.28C-866.45,475.43 -866.45,475.58 -866.41,475.70C-866.37,475.81 -866.37,475.96 -866.37,476.08ZM-870.14,476.34C-870.14,475.62 -870.29,475.17 -870.59,474.75C-870.74,474.56 -870.97,474.44 -871.31,474.44C-871.92,474.44 -872.23,474.94 -872.34,475.39C-872.42,475.66 -872.45,476.00 -872.42,476.34L-872.42,482.04C-872.45,482.77 -872.34,483.22 -872.00,483.60C-871.85,483.79 -871.62,483.91 -871.31,483.91C-870.67,483.91 -870.40,483.45 -870.25,482.99C-870.17,482.73 -870.14,482.39 -870.14,482.04ZM-871.92,492.95C-872.72,493.41 -873.33,493.98 -873.33,494.77C-873.33,495.57 -872.61,496.22 -870.82,496.22C-870.17,496.22 -869.45,496.10 -868.88,495.88C-868.31,495.65 -867.89,495.31 -867.89,494.81C-867.89,494.47 -867.93,494.20 -868.20,493.94C-868.50,493.67 -869.00,493.48 -869.95,493.33ZM-856.84,471.21L-853.00,471.21L-853.00,492L-856.84,492L-856.84,490.25C-856.91,490.29 -857.06,490.44 -857.25,490.63C-857.71,491.09 -858.24,491.62 -858.93,492C-859.27,492.19 -859.61,492.30 -859.95,492.30C-860.98,492.30 -861.70,491.70 -862.16,490.90C-862.61,490.14 -862.84,489.11 -862.84,488.24L-862.84,471.21L-859.00,471.21L-859.00,487.67C-859.00,488.47 -858.55,488.58 -858.09,488.58C-857.67,488.58 -857.44,488.35 -857.18,488.09C-857.06,487.97 -856.95,487.78 -856.84,487.59ZM-840.34,484.55L-840.34,486.95C-840.46,488.96 -841.07,490.37 -842.43,491.47C-843.12,492.04 -844.07,492.30 -845.32,492.30C-847.79,492.30 -849.05,490.94 -849.65,489.57C-850.00,488.77 -850.22,487.86 -850.26,486.83L-850.26,476.38C-850.15,474.37 -849.50,472.89 -848.13,471.75C-847.49,471.18 -846.54,470.91 -845.28,470.91C-842.81,470.91 -841.56,472.28 -840.95,473.61C-840.61,474.41 -840.38,475.28 -840.34,476.27L-840.34,482.31L-846.69,482.31L-846.69,486.83C-846.65,487.63 -846.42,488.20 -846.08,488.62C-845.89,488.81 -845.63,488.92 -845.28,488.92C-844.56,488.92 -844.22,488.47 -844.07,487.90C-843.95,487.59 -843.92,487.25 -843.92,486.83L-843.92,484.55ZM-846.69,479.31L-843.92,479.31L-843.92,476.38C-843.92,475.58 -844.07,475.01 -844.45,474.56C-844.64,474.37 -844.94,474.25 -845.28,474.25C-846.01,474.25 -846.31,474.75 -846.50,475.32C-846.61,475.62 -846.65,475.96 -846.69,476.38ZM-831.15,474.10L-831.15,469.81C-831.15,469.05 -831.30,468.52 -831.68,468.06C-831.87,467.87 -832.17,467.76 -832.52,467.76C-833.24,467.76 -833.58,468.29 -833.73,468.78C-833.85,469.09 -833.88,469.43 -833.88,469.81L-833.88,486.60C-833.88,487.40 -833.69,487.93 -833.31,488.35C-833.12,488.54 -832.86,488.66 -832.52,488.66C-831.79,488.66 -831.45,488.20 -831.30,487.63C-831.19,487.36 -831.15,487.02 -831.15,486.60L-831.15,481.55L-832.78,481.55L-832.78,478.09L-827.04,478.09L-827.04,492L-829.48,492L-829.97,490.67C-830.73,491.62 -831.83,492.30 -833.16,492.30C-834.49,492.30 -835.40,491.96 -836.09,491.35C-836.77,490.78 -837.23,490.06 -837.53,489.30C-837.87,488.43 -838.03,487.40 -837.99,486.26L-837.99,469.81C-837.95,468.71 -837.72,467.68 -837.30,466.81C-836.96,466.05 -836.47,465.29 -835.71,464.72C-834.95,464.15 -833.88,463.77 -832.52,463.77C-831.15,463.77 -830.12,464.15 -829.36,464.72C-828.60,465.29 -828.07,466.05 -827.73,466.81C-827.31,467.68 -827.08,468.71 -827.04,469.81L-827.04,474.10ZM-814.54,486.95C-814.66,488.96 -815.26,490.37 -816.59,491.47C-817.28,492.04 -818.23,492.30 -819.48,492.30C-821.95,492.30 -823.17,490.94 -823.78,489.57C-824.12,488.77 -824.35,487.86 -824.38,486.83L-824.38,476.38C-824.27,474.37 -823.66,472.89 -822.33,471.75C-821.69,471.18 -820.74,470.91 -819.48,470.91C-817.01,470.91 -815.76,472.28 -815.15,473.61C-814.81,474.41 -814.58,475.28 -814.54,476.27ZM-818.15,476.38C-818.11,475.58 -818.27,475.01 -818.65,474.56C-818.84,474.37 -819.14,474.25 -819.48,474.25C-820.20,474.25 -820.51,474.75 -820.66,475.32C-820.77,475.62 -820.81,475.96 -820.77,476.38L-820.77,486.83C-820.81,487.63 -820.62,488.20 -820.28,488.62C-820.09,488.81 -819.82,488.92 -819.48,488.92C-818.76,488.92 -818.42,488.47 -818.27,487.90C-818.15,487.59 -818.11,487.25 -818.15,486.83ZM-807.21,466.08L-807.21,471.21L-804.59,471.21L-804.59,474.67L-807.21,474.67L-807.21,485.01C-807.21,485.65 -807.21,486.49 -807.06,487.17C-806.90,487.86 -806.60,488.43 -805.99,488.43C-805.69,488.43 -805.31,488.39 -805.04,488.35C-804.89,488.31 -804.74,488.31 -804.59,488.28L-804.59,492.04C-804.78,492.08 -804.97,492.15 -805.16,492.19C-805.54,492.27 -806.03,492.30 -806.64,492.30C-808.88,492.30 -809.94,491.16 -810.48,489.72C-811.01,488.28 -811.05,486.53 -811.05,485.31L-811.05,474.67L-812.98,474.67L-812.98,471.21L-811.05,471.21L-811.05,466.08ZM-798.70,492L-802.53,492L-802.53,464.07L-798.70,464.07L-798.70,472.96C-798.62,472.92 -798.47,472.77 -798.24,472.54C-797.82,472.13 -797.25,471.56 -796.57,471.18C-796.23,470.99 -795.92,470.91 -795.58,470.91C-794.55,470.91 -793.83,471.52 -793.38,472.28C-792.92,473.08 -792.69,474.10 -792.69,474.98L-792.69,492L-796.53,492L-796.53,475.55C-796.53,474.75 -796.99,474.63 -797.44,474.63C-797.86,474.63 -798.09,474.86 -798.35,475.13C-798.47,475.28 -798.58,475.43 -798.70,475.62ZM-789.73,464.07L-785.89,464.07L-785.89,467.91L-789.73,467.91ZM-789.73,492L-789.73,471.21L-785.89,471.21L-785.89,492ZM-779.32,487.21C-779.32,487.97 -779.28,488.88 -778.25,488.88C-777.38,488.88 -777.15,488.47 -777.15,487.21L-777.15,484.32L-773.31,484.32L-773.31,486.34C-773.31,488.66 -773.73,490.14 -774.57,491.05C-775.40,491.96 -776.62,492.30 -778.25,492.30C-779.62,492.30 -780.87,491.92 -781.75,490.97C-782.62,490.02 -783.15,488.47 -783.15,486.15L-783.15,477.07C-783.15,474.75 -782.62,473.19 -781.75,472.24C-780.87,471.29 -779.62,470.91 -778.25,470.91C-776.62,470.91 -775.40,471.25 -774.57,472.16C-773.73,473.08 -773.31,474.56 -773.31,476.88L-773.31,478.51L-777.15,478.51L-777.15,476.00C-777.15,474.75 -777.38,474.33 -778.25,474.33C-779.28,474.33 -779.32,475.24 -779.32,476.00ZM-771.03,479.95L-765.52,479.95L-765.52,483.56L-771.03,483.56ZM-755.30,492L-757.43,480.22L-758.53,480.22L-758.53,492L-762.63,492L-762.63,464.07L-758.53,464.07C-753.63,464.07 -751.54,466.84 -751.54,472.13C-751.54,474.90 -752.26,477.41 -753.82,478.47L-751.20,492ZM-758.53,476.42C-757.96,476.42 -757.20,476.34 -756.59,475.81C-755.98,475.28 -755.49,474.25 -755.49,472.28C-755.49,470.30 -755.98,469.24 -756.59,468.71C-757.20,468.17 -757.96,468.14 -758.53,468.14ZM-739.30,484.55L-739.30,486.95C-739.42,488.96 -740.02,490.37 -741.39,491.47C-742.08,492.04 -743.03,492.30 -744.28,492.30C-746.75,492.30 -748.00,490.94 -748.61,489.57C-748.95,488.77 -749.18,487.86 -749.22,486.83L-749.22,476.38C-749.11,474.37 -748.46,472.89 -747.09,471.75C-746.45,471.18 -745.50,470.91 -744.24,470.91C-741.77,470.91 -740.52,472.28 -739.91,473.61C-739.57,474.41 -739.34,475.28 -739.30,476.27L-739.30,482.31L-745.65,482.31L-745.65,486.83C-745.61,487.63 -745.38,488.20 -745.04,488.62C-744.85,488.81 -744.58,488.92 -744.24,488.92C-743.52,488.92 -743.18,488.47 -743.03,487.90C-742.91,487.59 -742.87,487.25 -742.87,486.83L-742.87,484.55ZM-745.65,479.31L-742.87,479.31L-742.87,476.38C-742.87,475.58 -743.03,475.01 -743.41,474.56C-743.60,474.37 -743.90,474.25 -744.24,474.25C-744.96,474.25 -745.27,474.75 -745.46,475.32C-745.57,475.62 -745.61,475.96 -745.65,476.38ZM-727.29,481.97C-727.41,483.91 -728.09,485.27 -729.42,486.30C-730.11,486.83 -731.06,487.10 -732.23,487.10C-732.35,487.10 -732.46,487.10 -732.58,487.10C-732.69,487.10 -732.84,487.10 -732.96,487.06C-733.30,487.36 -733.49,487.67 -733.49,488.01C-733.49,488.47 -733.11,488.73 -732.54,488.88C-731.97,489.07 -731.28,489.19 -730.56,489.30C-729.35,489.45 -728.05,489.76 -726.99,490.48C-725.96,491.20 -725.24,492.30 -725.24,494.13C-725.24,496.14 -726.12,497.51 -727.33,498.31C-728.59,499.11 -730.26,499.45 -731.82,499.45C-733.64,499.41 -735.20,499.14 -736.26,498.54C-737.36,497.93 -737.97,496.94 -737.97,495.42C-737.97,494.70 -737.59,494.09 -737.02,493.56C-736.45,493.03 -735.69,492.61 -734.97,492.27C-736.22,491.92 -737.29,491.13 -737.29,489.49C-737.29,488.88 -736.95,488.28 -736.49,487.71C-736.03,487.14 -735.46,486.68 -734.89,486.38C-736.00,485.65 -736.53,484.51 -736.79,483.56C-736.95,482.99 -737.06,482.42 -737.10,481.85L-737.10,476.19C-736.95,474.25 -736.34,472.85 -735.01,471.75C-734.36,471.18 -733.41,470.91 -732.23,470.91C-730.30,470.91 -729.12,471.78 -728.40,472.81C-728.13,472.54 -727.67,472.09 -727.07,471.67C-726.50,471.25 -725.85,470.91 -725.24,470.91L-725.24,474.33C-726.27,474.33 -727.03,474.52 -727.48,474.79C-727.45,474.98 -727.41,475.17 -727.37,475.28C-727.37,475.43 -727.37,475.58 -727.33,475.70C-727.29,475.81 -727.29,475.96 -727.29,476.08ZM-731.06,476.34C-731.06,475.62 -731.21,475.17 -731.51,474.75C-731.66,474.56 -731.89,474.44 -732.23,474.44C-732.84,474.44 -733.15,474.94 -733.26,475.39C-733.34,475.66 -733.37,476.00 -733.34,476.34L-733.34,482.04C-733.37,482.77 -733.26,483.22 -732.92,483.60C-732.77,483.79 -732.54,483.91 -732.23,483.91C-731.59,483.91 -731.32,483.45 -731.17,482.99C-731.09,482.73 -731.06,482.39 -731.06,482.04ZM-732.84,492.95C-733.64,493.41 -734.25,493.98 -734.25,494.77C-734.25,495.57 -733.53,496.22 -731.74,496.22C-731.09,496.22 -730.37,496.10 -729.80,495.88C-729.23,495.65 -728.81,495.31 -728.81,494.81C-728.81,494.47 -728.85,494.20 -729.12,493.94C-729.42,493.67 -729.92,493.48 -730.87,493.33ZM-717.76,471.21L-713.92,471.21L-713.92,492L-717.76,492L-717.76,490.25C-717.83,490.29 -717.98,490.44 -718.17,490.63C-718.63,491.09 -719.16,491.62 -719.85,492C-720.19,492.19 -720.53,492.30 -720.87,492.30C-721.90,492.30 -722.62,491.70 -723.08,490.90C-723.53,490.14 -723.76,489.11 -723.76,488.24L-723.76,471.21L-719.92,471.21L-719.92,487.67C-719.92,488.47 -719.47,488.58 -719.01,488.58C-718.59,488.58 -718.36,488.35 -718.10,488.09C-717.98,487.97 -717.87,487.78 -717.76,487.59ZM-710.88,492L-710.88,464.07L-707.04,464.07L-707.04,492ZM-698.19,476.15C-698.19,475.81 -698.19,475.28 -698.30,474.90C-698.45,474.52 -698.76,474.25 -699.25,474.25C-699.90,474.25 -700.16,474.75 -700.28,475.36C-700.31,475.66 -700.35,476.00 -700.35,476.34C-700.35,476.69 -700.35,477.03 -700.35,477.33L-704.19,477.33L-704.19,476.46C-704.19,474.94 -703.62,473.57 -702.71,472.54C-701.80,471.52 -700.50,470.91 -699.02,470.91C-697.77,470.91 -696.63,471.40 -695.75,472.24C-694.88,473.08 -694.35,474.25 -694.35,475.62L-694.35,488.39C-694.35,490.25 -694.23,491.09 -694.08,492L-697.84,492C-698.19,491.58 -698.19,490.59 -698.19,490.33L-698.45,490.33C-698.64,490.67 -698.98,491.16 -699.52,491.58C-700.05,492 -700.77,492.30 -701.53,492.30C-702.02,492.30 -702.82,492.11 -703.43,491.35C-704.08,490.63 -704.61,489.34 -704.61,487.17C-704.61,484.86 -703.92,483.18 -703.01,482.04C-702.10,480.90 -700.96,480.18 -700.01,479.69C-699.06,479.19 -698.34,478.85 -698.19,478.43ZM-698.19,481.97C-700.05,482.77 -700.85,484.63 -700.85,486.60C-700.85,486.87 -700.81,487.33 -700.66,487.74C-700.50,488.20 -700.24,488.54 -699.78,488.54C-698.91,488.54 -698.19,488.01 -698.19,487.29ZM-684.05,475.17C-684.39,475.05 -684.77,475.01 -685.11,475.01C-685.72,475.01 -686.44,475.09 -687.05,475.66C-687.77,476.27 -687.89,476.91 -687.89,477.56L-687.89,492L-691.73,492L-691.73,471.21L-687.89,471.21L-687.89,473.53C-687.85,473.27 -687.58,472.62 -686.98,472.01C-686.37,471.44 -685.46,470.91 -684.05,470.91Z"/>
</svg>