<?xml version="1.0"?>
<svg xmlns="http://www.w3.org/2000/svg" width="1920" height="1080" viewBox="-960 -540 1920 1080">
    <path d="M-594.63,-205.16L-594.63,-147L-581.75,-147L-581.75,-164.98C-571.09,-152.77 -552.22,-144.78 -531.58,-144.78C-491.62,-144.78 -470.75,-160.32 -470.75,-188.51C-470.53,-214.49 -487.18,-232.03 -533.13,-235.80C-567.32,-238.69 -573.54,-245.79 -573.54,-255.78C-573.54,-267.10 -564.88,-278.20 -534.91,-278.20C-509.16,-278.20 -498.28,-269.10 -490.29,-262.44L-477.41,-262.44L-477.41,-311.28L-490.29,-311.28L-490.29,-294.63C-498.94,-306.40 -515.37,-315.72 -535.35,-315.72C-572.20,-315.72 -593.29,-295.07 -593.29,-268.43C-593.29,-240.24 -581.08,-224.26 -534.46,-220.70C-504.27,-218.48 -491.84,-209.83 -491.84,-198.95C-491.84,-186.74 -503.61,-177.41 -533.80,-177.41C-557.55,-177.41 -575.31,-189.85 -581.75,-205.16ZM-450.77,-134.35L-450.77,-102.38C-444.55,-102.60 -407.92,-102.60 -395.49,-102.38L-395.49,-134.35L-415.25,-134.35L-415.25,-161.21C-405.26,-149.89 -393.05,-144.78 -380.40,-144.78C-353.31,-144.78 -332.89,-164.09 -332.89,-204.28C-332.89,-254.89 -352.42,-271.32 -379.06,-271.32C-392.83,-271.32 -407.92,-265.10 -415.25,-249.56L-415.25,-269.10L-450.77,-269.10L-450.77,-232.69C-446.77,-232.91 -438.34,-232.91 -429.68,-232.91L-429.68,-134.35ZM-381.28,-173.20C-395.94,-173.42 -409.70,-177.41 -415.25,-188.96L-415.25,-210.49C-415.25,-225.81 -405.26,-234.47 -380.62,-234.47C-359.53,-234.47 -346.21,-224.70 -346.21,-206.05C-345.99,-181.19 -359.31,-172.75 -381.28,-173.20ZM-206.57,-147C-197.69,-147 -191.47,-150.11 -187.48,-155.21L-187.48,-182.74C-192.58,-176.30 -198.13,-174.31 -205.02,-174.31C-210.34,-174.31 -215.01,-176.97 -216.78,-182.08L-216.78,-217.15C-216.78,-258.22 -230.32,-271.32 -260.52,-271.32C-277.17,-271.32 -291.15,-266.21 -299.59,-256.22L-298.70,-227.59C-292.71,-234.69 -281.61,-240.68 -262.74,-240.68C-241.87,-240.68 -232.10,-232.03 -230.99,-211.16C-240.31,-217.60 -255.85,-219.59 -266.29,-219.59C-292.71,-219.59 -310.69,-204.72 -310.69,-181.41C-310.69,-159.88 -295.59,-144.78 -264.07,-144.78C-249.64,-144.78 -235.65,-150.77 -228.10,-158.99C-223.66,-151.22 -216.12,-147 -206.57,-147ZM-263.85,-172.53C-284.49,-172.53 -293.37,-178.08 -293.37,-187.85C-293.37,-198.06 -284.05,-203.83 -262.29,-203.83C-249.86,-203.83 -239.87,-200.50 -230.77,-193.62L-230.77,-182.30C-237.87,-175.64 -250.08,-172.53 -263.85,-172.53ZM-79.36,-171.86L-90.91,-187.63C-96.90,-175.86 -107.56,-170.98 -125.98,-170.98C-151.51,-170.98 -161.95,-187.18 -161.73,-206.05C-161.50,-225.14 -147.52,-236.24 -125.98,-236.24C-107.56,-236.24 -99.34,-230.47 -94.46,-222.48L-81.58,-222.48L-81.58,-271.10L-94.46,-271.10L-94.46,-253.78C-100.45,-265.55 -111.33,-271.32 -127.09,-271.32C-153.73,-271.32 -174.82,-253.34 -174.82,-207.16C-174.82,-164.54 -155.29,-144.78 -127.09,-144.78C-103.12,-144.78 -86.91,-154.55 -79.36,-171.86ZM36.30,-174.97L25.86,-184.96C19.43,-176.08 10.10,-171.42 -9.43,-171.64C-29.86,-171.86 -42.96,-178.97 -45.84,-198.50L39.85,-198.50C39.85,-253.34 20.76,-271.32 -9.43,-271.32C-36.07,-271.32 -59.38,-253.56 -59.38,-206.27C-59.38,-170.31 -42.29,-144.78 -8.99,-144.78C12.54,-144.78 28.97,-158.10 36.30,-174.97ZM-10.54,-237.58C12.10,-237.58 26.09,-226.48 26.09,-212.93L-45.84,-212.93C-42.73,-229.81 -27.19,-237.58 -10.54,-237.58ZM149.74,-177.86C149.74,-202.50 138.20,-212.27 106.45,-215.38C86.91,-217.37 80.48,-221.37 80.48,-227.14C80.48,-235.36 90.02,-241.79 106.67,-241.79C125.32,-241.79 132.20,-236.69 136.42,-228.70L146.85,-228.70L146.85,-269.32L136.42,-269.32L136.42,-259.78C128.21,-267.10 115.11,-271.32 102.90,-271.32C80.03,-271.32 63.83,-258 63.83,-237.13C63.83,-210.94 76.26,-202.28 105.12,-199.39C123.99,-197.39 131.98,-193.40 131.98,-187.40C131.98,-179.86 123.77,-173.20 103.79,-173.20C83.81,-173.20 80.03,-180.97 73.15,-189.85L63.16,-189.85L63.16,-147L73.15,-147L73.15,-159.43C80.48,-150.77 93.13,-144.78 107.78,-144.78C134.42,-144.78 149.74,-157.88 149.74,-177.86ZM234.77,-147L234.77,-178.97L212.57,-178.97L212.57,-211.16C218.34,-226.70 230.55,-233.14 247.42,-233.14C266.29,-233.14 276.28,-222.92 276.28,-200.50L276.28,-178.97L252.75,-178.97L252.75,-147L311.13,-147L311.13,-178.97L290.27,-178.97L290.27,-214.49C290.27,-257.78 278.06,-271.32 251.19,-271.32C232.99,-271.32 218.78,-263.11 212.57,-248.45L212.57,-324.16L176.38,-324.16L176.38,-285.31L198.36,-285.31L198.36,-178.97L176.38,-178.97L176.38,-147ZM375.51,-304.40C375.51,-317.27 368.41,-322.38 356.42,-322.38C343.10,-322.38 336.44,-317.05 336.44,-304.40C336.44,-291.74 343.55,-285.75 356.42,-285.75C367.97,-285.75 375.51,-291.74 375.51,-304.40ZM332.22,-178.75L332.22,-146.78C341.77,-147 350.87,-147 359.97,-147L367.74,-147C377.29,-147 386.84,-146.78 396.83,-146.78L396.83,-178.75L374.40,-178.75L374.40,-264.66L332.22,-264.66L332.22,-228.25L359.97,-228.25L359.97,-178.75ZM412.37,-134.35L412.37,-102.38C418.58,-102.60 455.21,-102.60 467.64,-102.38L467.64,-134.35L447.89,-134.35L447.89,-161.21C457.88,-149.89 470.09,-144.78 482.74,-144.78C509.82,-144.78 530.25,-164.09 530.25,-204.28C530.25,-254.89 510.71,-271.32 484.07,-271.32C470.31,-271.32 455.21,-265.10 447.89,-249.56L447.89,-269.10L412.37,-269.10L412.37,-232.69C416.36,-232.91 424.80,-232.91 433.46,-232.91L433.46,-134.35ZM481.85,-173.20C467.20,-173.42 453.43,-177.41 447.89,-188.96L447.89,-210.49C447.89,-225.81 457.88,-234.47 482.52,-234.47C503.61,-234.47 516.93,-224.70 516.93,-206.05C517.15,-181.19 503.83,-172.75 481.85,-173.20ZM-191.81,15.28L-191.81,34.15L-263.29,34.15L-263.29,-6.47L-213.56,-6.47L-213.56,13.28L-202.91,13.28L-202.91,-37.55L-213.56,-37.55L-213.56,-18.91L-263.29,-18.91L-263.29,-55.98L-193.36,-55.98L-193.36,-38.44L-180.49,-38.44L-180.49,-95.94L-299.03,-95.94L-299.03,-55.98L-279.05,-55.98L-279.05,34.15L-299.03,34.15L-299.03,66.12L-178.93,66.12L-178.93,15.28ZM-55.94,66.12C-47.06,66.12 -40.85,63.01 -36.85,57.91L-36.85,30.38C-41.96,36.82 -47.51,38.81 -54.39,38.81C-59.72,38.81 -64.38,36.15 -66.16,31.04L-66.16,-4.03C-66.16,-45.10 -79.70,-58.20 -109.89,-58.20C-126.54,-58.20 -140.53,-53.09 -148.96,-43.10L-148.07,-14.47C-142.08,-21.57 -130.98,-27.56 -112.11,-27.56C-91.24,-27.56 -81.47,-18.91 -80.36,1.96C-89.69,-4.48 -105.23,-6.47 -115.66,-6.47C-142.08,-6.47 -160.06,8.40 -160.06,31.71C-160.06,53.24 -144.97,68.34 -113.44,68.34C-99.01,68.34 -85.03,62.35 -77.48,54.13C-73.04,61.90 -65.49,66.12 -55.94,66.12ZM-113.22,40.59C-133.87,40.59 -142.75,35.04 -142.75,25.27C-142.75,15.06 -133.42,9.29 -111.67,9.29C-99.23,9.29 -89.24,12.62 -80.14,19.50L-80.14,30.82C-87.25,37.48 -99.46,40.59 -113.22,40.59ZM-21.98,34.60L-21.98,66.56C-15.76,66.34 20.87,66.34 33.30,66.56L33.30,34.60L13.32,34.60L13.32,2.85C13.32,-12.69 21.31,-21.35 32.19,-21.35C42.18,-21.35 47.51,-18.91 50.17,-13.13L58.61,-49.99C52.84,-54.87 47.73,-58.20 37.07,-58.20C27.97,-58.20 16.87,-51.98 11.77,-38.66L4.22,-55.98L-21.98,-55.98L-21.98,-19.57C-16.65,-19.57 -10.43,-19.79 -1.33,-19.57L-1.33,34.60ZM148.74,54.13L142.75,31.71C139.19,35.71 131.65,38.81 122.32,38.59C111.44,38.37 103.90,32.82 103.90,16.84L103.90,-19.13L137.20,-19.13L137.20,-53.76L103.90,-53.76L103.90,-82.62L89.47,-82.62L89.47,-53.76L71.93,-53.76L71.93,-19.13L89.47,-19.13L89.47,32.15C89.47,59.02 102.12,68.34 119.44,68.34C132.09,68.34 144.74,63.01 148.74,54.13ZM227.11,66.12L227.11,34.15L204.91,34.15L204.91,1.96C210.68,-13.58 222.89,-20.02 239.76,-20.02C258.63,-20.02 268.62,-9.80 268.62,12.62L268.62,34.15L245.09,34.15L245.09,66.12L303.47,66.12L303.47,34.15L282.61,34.15L282.61,-1.37C282.61,-44.66 270.40,-58.20 243.53,-58.20C225.33,-58.20 211.12,-49.99 204.91,-35.33L204.91,-111.04L168.72,-111.04L168.72,-72.19L190.70,-72.19L190.70,34.15L168.72,34.15L168.72,66.12Z" fill="#ffffff" stroke="#000000"/>
    <path d="M-588.32,-217.97L-590.05,-160.42L-577.31,-160.03L-576.78,-177.83C-566.60,-165.43 -548.16,-156.96 -527.73,-156.34C-488.19,-155.15 -467.07,-169.90 -466.23,-197.80C-465.24,-223.50 -481.19,-241.35 -526.55,-246.46C-560.30,-250.33 -566.24,-257.55 -565.94,-267.43C-565.60,-278.64 -556.70,-289.36 -527.04,-288.47C-501.56,-287.70 -491.07,-278.37 -483.36,-271.54L-470.62,-271.15L-469.16,-319.48L-481.90,-319.87L-482.40,-303.39C-490.61,-315.29 -506.59,-325.01 -526.36,-325.61C-562.83,-326.71 -584.32,-306.91 -585.11,-280.54C-585.95,-252.64 -574.35,-236.46 -528.32,-231.56C-498.51,-228.46 -486.47,-219.52 -486.79,-208.76C-487.16,-196.67 -499.08,-187.80 -528.95,-188.70C-552.46,-189.41 -569.66,-202.24 -575.58,-217.59ZM-448.08,-143.60L-449.03,-111.97C-442.87,-112.00 -406.63,-110.91 -394.33,-110.32L-393.38,-141.95L-412.93,-142.54L-412.13,-169.13C-402.58,-157.62 -390.65,-152.21 -378.13,-151.83C-351.33,-151.02 -330.54,-169.52 -329.34,-209.29C-327.83,-259.37 -346.67,-276.21 -373.03,-277.01C-386.65,-277.42 -401.78,-271.72 -409.49,-256.56L-408.91,-275.89L-444.06,-276.95L-445.14,-240.92C-441.18,-241.02 -432.83,-240.77 -424.27,-240.51L-427.21,-142.97ZM-378.16,-179.97C-392.65,-180.63 -406.15,-185.00 -411.30,-196.59L-410.66,-217.89C-410.20,-233.05 -400.06,-241.32 -375.67,-240.59C-354.80,-239.96 -341.91,-229.89 -342.47,-211.44C-342.99,-186.83 -356.42,-178.88 -378.16,-179.97ZM-206.05,-148.84C-197.27,-148.57 -191.02,-151.46 -186.92,-156.40L-186.09,-183.64C-191.34,-177.42 -196.89,-175.61 -203.70,-175.81C-208.97,-175.97 -213.51,-178.75 -215.11,-183.85L-214.06,-218.56C-212.84,-259.20 -225.85,-272.57 -255.73,-273.47C-272.20,-273.97 -286.19,-269.33 -294.84,-259.70L-294.82,-231.33C-288.67,-238.18 -277.51,-243.78 -258.84,-243.22C-238.19,-242.60 -228.78,-233.74 -228.30,-213.05C-237.34,-219.70 -252.66,-222.14 -262.98,-222.46C-289.12,-223.24 -307.36,-209.06 -308.06,-186.00C-308.70,-164.69 -294.21,-149.30 -263.02,-148.36C-248.74,-147.93 -234.72,-153.44 -227.00,-161.34C-222.84,-153.52 -215.50,-149.12 -206.05,-148.84ZM-261.97,-175.81C-282.40,-176.43 -291.02,-182.18 -290.73,-191.85C-290.42,-201.96 -281.03,-207.39 -259.50,-206.74C-247.19,-206.37 -237.41,-202.78 -228.61,-195.69L-228.94,-184.49C-236.17,-178.11 -248.35,-175.40 -261.97,-175.81ZM-79.43,-169.65L-90.39,-185.59C-96.67,-174.12 -107.36,-169.61 -125.59,-170.16C-150.86,-170.92 -160.70,-187.27 -159.92,-205.94C-159.13,-224.82 -144.95,-235.39 -123.65,-234.75C-105.41,-234.20 -97.46,-228.24 -92.86,-220.18L-80.12,-219.80L-78.67,-267.91L-91.41,-268.29L-91.93,-251.16C-97.51,-262.98 -108.10,-269.02 -123.70,-269.49C-150.06,-270.28 -171.47,-253.12 -172.84,-207.42C-174.11,-165.25 -155.37,-145.11 -127.47,-144.27C-103.75,-143.55 -87.42,-152.74 -79.43,-169.65ZM35.11,-169.27L25.09,-179.47C18.45,-170.87 9.08,-166.54 -10.24,-167.34C-30.45,-168.17 -43.19,-175.59 -45.47,-195.01L39.33,-192.45C40.97,-246.71 22.61,-265.08 -7.27,-265.98C-33.63,-266.77 -57.22,-249.89 -58.64,-203.10C-59.71,-167.51 -43.56,-141.74 -10.60,-140.75C10.71,-140.10 27.36,-152.79 35.11,-169.27ZM-9.37,-232.62C13.04,-231.94 26.54,-220.54 26.14,-207.14L-45.04,-209.29C-41.46,-225.89 -25.85,-233.12 -9.37,-232.62ZM147.45,-168.74C148.19,-193.13 137.06,-203.14 105.74,-207.16C86.46,-209.72 80.21,-213.87 80.39,-219.58C80.63,-227.71 90.27,-233.79 106.74,-233.29C125.20,-232.74 131.86,-227.48 135.79,-219.45L146.12,-219.13L147.33,-259.34L137.00,-259.65L136.72,-250.20C128.81,-257.70 115.97,-262.26 103.89,-262.62C81.26,-263.31 64.83,-250.61 64.21,-229.96C63.43,-204.04 75.47,-195.10 103.94,-191.38C122.55,-188.84 130.34,-184.65 130.17,-178.72C129.94,-171.25 121.61,-164.90 101.84,-165.50C82.07,-166.10 78.57,-173.90 72.02,-182.89L62.14,-183.19L60.86,-140.79L70.74,-140.49L71.12,-152.79C78.11,-144.01 90.45,-137.70 104.95,-137.26C131.31,-136.47 146.86,-148.97 147.45,-168.74ZM230.67,-135.67L231.63,-167.30L209.66,-167.97L210.62,-199.82C216.79,-215.02 229.07,-221.03 245.76,-220.53C264.44,-219.96 274.02,-209.56 273.35,-187.37L272.71,-166.06L249.42,-166.77L248.47,-135.13L306.24,-133.39L307.20,-165.02L286.55,-165.65L287.61,-200.80C288.90,-243.63 277.22,-257.40 250.64,-258.20C232.62,-258.74 218.32,-251.04 211.73,-236.73L213.99,-311.64L178.18,-312.72L177.02,-274.27L198.77,-273.62L195.60,-168.39L173.85,-169.04L172.90,-137.41ZM374.65,-287.22C375.03,-299.96 368.15,-305.23 356.29,-305.59C343.11,-305.98 336.36,-300.91 335.98,-288.39C335.60,-275.87 342.46,-269.72 355.20,-269.34C366.62,-268.99 374.27,-274.70 374.65,-287.22ZM328.06,-164.17L327.10,-132.54C336.56,-132.48 345.56,-132.20 354.57,-131.93L362.26,-131.70C371.71,-131.42 381.15,-130.91 391.03,-130.61L391.99,-162.25L369.80,-162.92L372.36,-247.93L330.62,-249.19L329.54,-213.16L357.00,-212.34L355.52,-163.35ZM406.04,-117.85L405.08,-86.21C411.24,-86.25 447.49,-85.15 459.78,-84.56L460.74,-116.20L441.19,-116.79L441.99,-143.37C451.54,-131.87 463.47,-126.45 475.99,-126.07C502.79,-125.26 523.58,-143.77 524.77,-183.53C526.29,-233.62 507.44,-250.46 481.08,-251.25C467.46,-251.66 452.34,-245.96 444.63,-230.80L445.21,-250.13L410.06,-251.19L408.97,-215.17C412.93,-215.27 421.28,-215.01 429.85,-214.76L426.91,-117.22ZM475.96,-154.22C461.46,-154.87 447.96,-159.24 442.82,-170.83L443.46,-192.14C443.92,-207.30 454.06,-215.57 478.44,-214.83C499.31,-214.20 512.20,-204.14 511.65,-185.68C511.12,-161.07 497.69,-153.12 475.96,-154.22ZM-196.29,12.19L-196.85,30.86L-267.59,28.73L-266.37,-11.47L-217.17,-9.99L-217.76,9.56L-207.21,9.88L-205.69,-40.43L-216.24,-40.74L-216.79,-22.29L-266.00,-23.78L-264.90,-60.46L-195.70,-58.38L-196.22,-41.02L-183.48,-40.64L-181.76,-97.53L-299.07,-101.07L-300.27,-61.53L-280.49,-60.93L-283.18,28.26L-302.96,27.66L-303.91,59.30L-185.06,62.88L-183.55,12.57ZM-63.36,66.55C-54.57,66.81 -48.33,63.92 -44.22,58.99L-43.40,31.75C-48.64,37.97 -54.20,39.78 -61.01,39.57C-66.28,39.42 -70.81,36.64 -72.42,31.54L-71.37,-3.17C-70.15,-43.82 -83.16,-57.18 -113.03,-58.08C-129.51,-58.58 -143.50,-53.94 -152.15,-44.31L-152.12,-15.94C-145.98,-22.79 -134.82,-28.39 -116.14,-27.83C-95.49,-27.21 -86.09,-18.35 -85.61,2.33C-94.64,-4.32 -109.96,-6.76 -120.29,-7.07C-146.43,-7.86 -164.67,6.33 -165.36,29.39C-166.01,50.70 -151.52,66.09 -120.32,67.03C-106.04,67.46 -92.02,61.95 -84.31,54.04C-80.15,61.87 -72.81,66.26 -63.36,66.55ZM-119.27,39.58C-139.71,38.96 -148.33,33.20 -148.04,23.54C-147.73,13.43 -138.33,8.00 -116.80,8.65C-104.50,9.02 -94.71,12.61 -85.91,19.69L-86.25,30.90C-93.48,37.28 -105.65,39.99 -119.27,39.58ZM-28.81,36.37L-29.76,68.00C-23.60,67.97 12.64,69.06 24.94,69.65L25.89,38.02L6.12,37.42L7.07,6.01C7.53,-9.37 15.70,-17.70 26.46,-17.37C36.35,-17.08 41.55,-14.50 44.01,-8.71L53.46,-44.93C47.89,-49.93 42.94,-53.38 32.40,-53.70C23.39,-53.97 12.22,-48.15 6.77,-35.12L-0.18,-52.48L-26.10,-53.26L-27.19,-17.23C-21.92,-17.07 -15.76,-17.11 -6.76,-16.62L-8.38,36.98ZM139.54,60.79L134.28,38.43C130.65,42.28 123.09,45.13 113.87,44.63C103.11,44.08 95.80,38.37 96.28,22.55L97.35,-13.04L130.31,-12.04L131.34,-46.31L98.39,-47.31L99.25,-75.87L84.97,-76.30L84.11,-47.74L66.75,-48.26L65.72,-13.99L83.08,-13.47L81.54,37.28C80.74,63.86 92.99,73.46 110.12,73.98C122.64,74.36 135.32,69.46 139.54,60.79ZM216.73,75.00L217.69,43.36L195.72,42.70L196.68,10.85C202.85,-4.36 215.13,-10.37 231.83,-9.86C250.50,-9.30 260.08,1.10 259.41,23.29L258.77,44.60L235.48,43.90L234.53,75.53L292.30,77.27L293.26,45.64L272.61,45.02L273.67,9.87C274.96,-32.97 263.28,-46.73 236.70,-47.54C218.69,-48.08 204.38,-40.37 197.79,-26.06L200.05,-100.97L164.24,-102.05L163.08,-63.61L184.83,-62.95L181.66,42.28L159.91,41.62L158.96,73.25Z" fill="#ffffff" stroke="#000000"/>
    <path d="M-581.65,-230.65L-585.09,-173.75L-572.49,-172.99L-571.43,-190.58C-561.73,-178.01 -543.74,-169.08 -523.54,-167.86C-484.45,-165.50 -463.12,-179.47 -461.46,-207.05C-459.71,-232.44 -474.96,-250.58 -519.69,-256.99C-552.96,-261.83 -558.62,-269.14 -558.03,-278.92C-557.37,-289.99 -548.24,-300.34 -518.92,-298.57C-493.73,-297.05 -483.63,-287.50 -476.20,-280.52L-463.61,-279.75L-460.72,-327.53L-473.32,-328.29L-474.30,-312.00C-482.08,-324.02 -497.60,-334.12 -517.14,-335.30C-553.19,-337.47 -575.04,-318.52 -576.61,-292.46C-578.28,-264.88 -567.28,-248.52 -521.88,-242.30C-492.48,-238.34 -480.83,-229.14 -481.47,-218.50C-482.19,-206.55 -494.25,-198.13 -523.79,-199.91C-547.03,-201.31 -563.66,-214.52 -569.06,-229.89ZM-445.11,-152.88L-447.00,-121.61C-440.91,-121.46 -405.07,-119.29 -392.93,-118.34L-391.04,-149.61L-410.37,-150.78L-408.78,-177.06C-399.68,-165.39 -388.03,-159.68 -375.66,-158.93C-349.16,-157.33 -328.04,-175.02 -325.67,-214.32C-322.68,-263.84 -340.82,-281.06 -366.88,-282.63C-380.34,-283.45 -395.48,-278.26 -403.56,-263.49L-402.41,-282.60L-437.16,-284.70L-439.31,-249.08C-435.38,-249.06 -427.13,-248.56 -418.66,-248.05L-424.48,-151.63ZM-374.85,-186.78C-389.17,-187.86 -402.39,-192.58 -407.14,-204.20L-405.87,-225.27C-404.97,-240.25 -394.68,-248.13 -370.58,-246.68C-349.95,-245.43 -337.49,-235.09 -338.59,-216.85C-339.84,-192.51 -353.37,-185.05 -374.85,-186.78ZM-205.48,-150.84C-196.80,-150.31 -190.53,-152.98 -186.32,-157.74L-184.70,-184.67C-190.07,-178.68 -195.62,-177.05 -202.35,-177.46C-207.56,-177.77 -211.97,-180.65 -213.40,-185.75L-211.33,-220.06C-208.91,-260.24 -221.38,-273.85 -250.91,-275.63C-267.20,-276.62 -281.18,-272.45 -290.03,-263.17L-290.85,-235.11C-284.57,-241.70 -273.35,-246.91 -254.89,-245.80C-234.48,-244.56 -225.44,-235.52 -225.58,-215.04C-234.32,-221.89 -249.41,-224.76 -259.61,-225.38C-285.46,-226.94 -303.93,-213.45 -305.30,-190.64C-306.57,-169.58 -292.70,-153.92 -261.86,-152.06C-247.75,-151.21 -233.71,-156.24 -225.84,-163.83C-221.96,-155.97 -214.82,-151.40 -205.48,-150.84ZM-260.01,-179.19C-280.20,-180.41 -288.56,-186.36 -287.98,-195.92C-287.38,-205.91 -277.92,-211.01 -256.64,-209.72C-244.48,-208.99 -234.90,-205.14 -226.40,-197.87L-227.07,-186.79C-234.41,-180.70 -246.54,-178.38 -260.01,-179.19ZM-79.58,-167.65L-89.94,-183.75C-96.50,-172.59 -107.21,-168.44 -125.24,-169.53C-150.21,-171.04 -159.46,-187.51 -158.13,-205.95C-156.79,-224.62 -142.45,-234.65 -121.38,-233.38C-103.36,-232.29 -95.66,-226.16 -91.36,-218.05L-78.76,-217.29L-75.89,-264.85L-88.49,-265.61L-89.51,-248.67C-94.68,-260.54 -104.98,-266.82 -120.40,-267.75C-146.46,-269.33 -168.15,-252.98 -170.88,-207.81C-173.39,-166.12 -155.45,-145.64 -127.87,-143.97C-104.42,-142.56 -87.99,-151.15 -79.58,-167.65ZM33.75,-163.86L24.13,-174.25C17.31,-165.94 7.91,-161.93 -11.19,-163.30C-31.15,-164.72 -43.55,-172.45 -45.22,-191.73L38.61,-186.67C41.85,-240.31 24.23,-259.02 -5.30,-260.81C-31.36,-262.38 -55.21,-246.38 -58.00,-200.13C-60.13,-164.95 -44.91,-138.96 -12.34,-137.00C8.73,-135.73 25.58,-147.79 33.75,-163.86ZM-8.38,-227.86C13.77,-226.53 26.80,-214.84 26.00,-201.60L-44.36,-205.84C-40.33,-222.16 -24.67,-228.85 -8.38,-227.86ZM144.89,-159.98C146.34,-184.09 135.63,-194.32 104.76,-199.24C85.76,-202.35 79.70,-206.64 80.04,-212.28C80.53,-220.32 90.25,-226.05 106.53,-225.07C124.77,-223.97 131.21,-218.57 134.86,-210.50L145.07,-209.88L147.47,-249.62L137.26,-250.24L136.69,-240.90C129.09,-248.55 116.53,-253.45 104.58,-254.17C82.22,-255.52 65.58,-243.45 64.34,-223.04C62.80,-197.41 74.45,-188.21 102.51,-183.68C120.85,-180.61 128.43,-176.23 128.08,-170.37C127.63,-162.98 119.20,-156.95 99.66,-158.13C80.11,-159.31 76.88,-167.14 70.67,-176.23L60.90,-176.82L58.37,-134.91L68.14,-134.32L68.88,-146.48C75.53,-137.58 87.56,-130.97 101.89,-130.10C127.95,-128.53 143.71,-140.44 144.89,-159.98ZM226.24,-124.77L228.13,-156.05L206.41,-157.36L208.31,-188.85C214.88,-203.71 227.20,-209.28 243.70,-208.29C262.16,-207.17 271.33,-196.59 270.01,-174.66L268.74,-153.59L245.72,-154.98L243.83,-123.71L300.94,-120.26L302.83,-151.54L282.42,-152.77L284.52,-187.52C287.07,-229.86 275.93,-243.83 249.65,-245.42C231.84,-246.49 217.46,-239.30 210.51,-225.33L214.98,-299.38L179.59,-301.52L177.29,-263.52L198.79,-262.22L192.51,-158.20L171.01,-159.49L169.12,-128.22ZM373.22,-270.43C373.98,-283.03 367.33,-288.44 355.60,-289.15C342.57,-289.94 335.74,-285.12 335.00,-272.74C334.25,-260.36 340.84,-254.08 353.44,-253.32C364.73,-252.64 372.47,-258.05 373.22,-270.43ZM323.45,-150.07L321.56,-118.80C330.91,-118.46 339.82,-117.92 348.72,-117.38L356.32,-116.92C365.66,-116.36 374.98,-115.58 384.76,-114.99L386.64,-146.26L364.71,-147.58L369.78,-231.63L328.52,-234.12L326.37,-198.50L353.52,-196.86L350.59,-148.44ZM399.22,-101.91L397.34,-70.64C403.43,-70.49 439.26,-68.32 451.41,-67.37L453.30,-98.64L433.97,-99.81L435.56,-126.09C444.66,-114.42 456.30,-108.71 468.68,-107.96C495.18,-106.36 516.29,-124.05 518.67,-163.35C521.66,-212.87 503.52,-230.09 477.46,-231.66C463.99,-232.48 448.86,-227.29 440.77,-212.52L441.93,-231.63L407.18,-233.73L405.03,-198.11C408.95,-198.09 417.21,-197.60 425.67,-197.08L419.85,-100.66ZM469.49,-135.81C455.17,-136.89 441.94,-141.61 437.20,-153.23L438.47,-174.30C439.37,-189.28 449.65,-197.16 473.76,-195.71C494.39,-194.46 506.84,-184.12 505.74,-165.88C504.49,-141.54 490.96,-134.08 469.49,-135.81ZM-200.63,8.78L-201.74,27.24L-271.67,23.02L-269.27,-16.72L-220.62,-13.78L-221.79,5.54L-211.37,6.17L-208.36,-43.56L-218.79,-44.19L-219.89,-25.94L-268.53,-28.88L-266.34,-65.15L-197.94,-61.02L-198.97,-43.86L-186.38,-43.10L-182.98,-99.35L-298.95,-106.35L-301.31,-67.26L-281.76,-66.08L-287.09,22.09L-306.63,20.91L-308.52,52.18L-191.03,59.27L-188.03,9.54ZM-70.72,66.54C-62.04,67.06 -55.77,64.39 -51.56,59.63L-49.94,32.70C-55.31,38.70 -60.86,40.32 -67.59,39.92C-72.80,39.60 -77.21,36.72 -78.64,31.62L-76.57,-2.69C-74.14,-42.87 -86.62,-56.48 -116.15,-58.26C-132.44,-59.24 -146.42,-55.08 -155.27,-45.80L-156.09,-17.73C-149.80,-24.33 -138.59,-29.54 -120.13,-28.42C-99.72,-27.19 -90.68,-18.14 -90.82,2.33C-99.56,-4.51 -114.65,-7.39 -124.85,-8.00C-150.70,-9.56 -169.16,3.93 -170.54,26.73C-171.81,47.79 -157.94,63.45 -127.10,65.31C-112.98,66.17 -98.95,61.13 -91.08,53.54C-87.20,61.40 -80.06,65.97 -70.72,66.54ZM-125.24,38.18C-145.44,36.96 -153.80,31.01 -153.22,21.45C-152.62,11.46 -143.16,6.37 -121.88,7.65C-109.71,8.39 -100.14,12.23 -91.64,19.50L-92.31,30.58C-99.65,36.67 -111.78,38.99 -125.24,38.18ZM-35.64,37.71L-37.52,68.98C-31.43,69.13 4.40,71.29 16.55,72.24L18.44,40.97L-1.11,39.79L0.77,8.74C1.69,-6.47 10.02,-14.46 20.66,-13.82C30.43,-13.23 35.50,-10.53 37.76,-4.72L48.19,-40.28C42.83,-45.39 38.03,-48.95 27.61,-49.58C18.71,-50.12 7.48,-44.69 1.70,-31.97L-4.66,-49.35L-30.29,-50.90L-32.44,-15.28C-27.22,-14.97 -21.13,-14.82 -12.24,-14.06L-15.44,38.92ZM130.21,66.90L125.67,44.61C121.96,48.31 114.39,50.90 105.29,50.14C94.66,49.28 87.60,43.40 88.55,27.77L90.67,-7.42L123.24,-5.45L125.29,-39.33L92.71,-41.29L94.42,-69.52L80.30,-70.38L78.60,-42.15L61.44,-43.18L59.40,-9.30L76.55,-8.27L73.53,41.90C71.94,68.17 83.77,78.04 100.71,79.07C113.08,79.81 125.78,75.35 130.21,66.90ZM206.16,83.25L208.05,51.98L186.33,50.67L188.23,19.18C194.80,4.32 207.12,-1.26 223.63,-0.26C242.09,0.85 251.26,11.43 249.93,33.37L248.66,54.43L225.64,53.04L223.75,84.31L280.87,87.76L282.75,56.49L262.34,55.26L264.44,20.51C266.99,-21.84 255.85,-35.80 229.57,-37.39C211.77,-38.47 197.38,-31.27 190.44,-17.30L194.91,-91.36L159.51,-93.49L157.21,-55.49L178.71,-54.19L172.43,49.83L150.94,48.53L149.05,79.80Z" fill="#ffffff" stroke="#000000"/>
    <path d="M-574.63,-243.17L-579.73,-186.98L-567.29,-185.85L-565.72,-203.23C-556.49,-190.50 -538.96,-181.12 -519.02,-179.31C-480.41,-175.81 -458.89,-189.00 -456.42,-216.23C-453.93,-241.31 -468.48,-259.71 -512.55,-267.38C-545.32,-273.16 -550.70,-280.57 -549.83,-290.22C-548.83,-301.16 -539.50,-311.12 -510.55,-308.50C-485.67,-306.24 -475.96,-296.50 -468.82,-289.36L-456.38,-288.23L-452.10,-335.41L-464.54,-336.54L-466.00,-320.46C-473.33,-332.58 -488.39,-343.03 -507.69,-344.78C-543.29,-348.01 -565.47,-329.91 -567.80,-304.18C-570.27,-276.94 -559.88,-260.43 -515.15,-252.91C-486.18,-248.12 -474.93,-238.67 -475.88,-228.16C-476.95,-216.37 -489.14,-208.39 -518.30,-211.03C-541.25,-213.12 -557.32,-226.68 -562.20,-242.04ZM-441.87,-162.16L-444.67,-131.27C-438.64,-130.94 -403.26,-127.73 -391.27,-126.43L-388.47,-157.31L-407.55,-159.04L-405.20,-184.99C-396.54,-173.18 -385.19,-167.18 -372.97,-166.07C-346.81,-163.70 -325.38,-180.57 -321.86,-219.38C-317.43,-268.28 -334.86,-285.86 -360.60,-288.20C-373.89,-289.40 -389.02,-284.72 -397.46,-270.35L-395.75,-289.22L-430.06,-292.33L-433.25,-257.16C-429.37,-257.03 -421.22,-256.29 -412.86,-255.53L-421.49,-160.31ZM-371.34,-193.60C-385.47,-195.10 -398.42,-200.16 -402.77,-211.80L-400.88,-232.60C-399.54,-247.40 -389.13,-254.89 -365.33,-252.73C-344.95,-250.88 -332.94,-240.28 -334.58,-222.27C-336.54,-198.23 -350.15,-191.24 -371.34,-193.60ZM-204.85,-152.99C-196.28,-152.21 -190.00,-154.67 -185.69,-159.25L-183.28,-185.84C-188.78,-180.07 -194.31,-178.63 -200.96,-179.23C-206.11,-179.70 -210.38,-182.68 -211.65,-187.77L-208.57,-221.65C-204.98,-261.33 -216.91,-275.17 -246.08,-277.81C-262.16,-279.27 -276.12,-275.56 -285.14,-266.65L-286.79,-238.91C-280.38,-245.24 -269.13,-250.06 -250.90,-248.41C-230.75,-246.58 -222.07,-237.36 -222.82,-217.11C-231.27,-224.14 -246.10,-227.43 -256.18,-228.35C-281.70,-230.66 -300.38,-217.87 -302.42,-195.35C-304.31,-174.55 -291.05,-158.64 -260.59,-155.88C-246.65,-154.62 -232.62,-159.18 -224.61,-166.45C-221.00,-158.56 -214.08,-153.82 -204.85,-152.99ZM-257.95,-182.67C-277.89,-184.48 -285.98,-190.62 -285.13,-200.05C-284.23,-209.92 -274.72,-214.68 -253.70,-212.77C-241.69,-211.68 -232.34,-207.59 -224.15,-200.14L-225.14,-189.21C-232.58,-183.39 -244.65,-181.46 -257.95,-182.67ZM-79.79,-165.86L-89.56,-182.10C-96.38,-171.26 -107.10,-167.47 -124.90,-169.09C-149.57,-171.33 -158.23,-187.89 -156.36,-206.10C-154.47,-224.53 -139.99,-234.03 -119.19,-232.14C-101.39,-230.53 -93.96,-224.23 -89.94,-216.08L-77.50,-214.95L-73.24,-261.92L-85.68,-263.05L-87.20,-246.32C-91.96,-258.21 -101.96,-264.74 -117.19,-266.12C-142.92,-268.46 -164.87,-252.93 -168.92,-208.32C-172.65,-167.15 -155.51,-146.35 -128.27,-143.88C-105.11,-141.78 -88.60,-149.80 -79.79,-165.86ZM32.22,-158.73L23.01,-169.30C16.01,-161.28 6.60,-157.60 -12.25,-159.52C-31.97,-161.53 -44.00,-169.54 -45.07,-188.66L37.71,-181.15C42.51,-234.13 25.64,-253.17 -3.52,-255.81C-29.26,-258.15 -53.33,-243.03 -57.47,-197.35C-60.62,-162.61 -46.35,-136.45 -14.18,-133.53C6.62,-131.65 23.66,-143.07 32.22,-158.73ZM-7.55,-223.31C14.32,-221.33 26.86,-209.38 25.68,-196.30L-43.81,-202.60C-39.33,-218.63 -23.64,-224.77 -7.55,-223.31ZM142.06,-151.58C144.22,-175.39 133.92,-185.83 103.52,-191.62C84.83,-195.26 78.96,-199.68 79.46,-205.26C80.18,-213.19 89.97,-218.58 106.05,-217.12C124.07,-215.49 130.27,-209.95 133.64,-201.86L143.72,-200.95L147.28,-240.19L137.20,-241.11L136.37,-231.88C129.07,-239.68 116.79,-244.90 104.99,-245.97C82.91,-247.98 66.08,-236.53 64.25,-216.37C61.96,-191.06 73.21,-181.61 100.84,-176.29C118.89,-172.71 126.26,-168.15 125.74,-162.36C125.08,-155.07 116.56,-149.35 97.26,-151.10C77.95,-152.85 74.99,-160.69 69.12,-169.87L59.47,-170.75L55.71,-129.36L65.37,-128.48L66.45,-140.49C72.77,-131.49 84.47,-124.59 98.63,-123.30C124.36,-120.97 140.31,-132.28 142.06,-151.58ZM221.49,-114.32L224.29,-145.21L202.85,-147.15L205.67,-178.25C212.60,-192.75 224.96,-197.90 241.26,-196.42C259.49,-194.77 268.25,-184.03 266.28,-162.37L264.40,-141.57L241.66,-143.63L238.86,-112.75L295.27,-107.63L298.07,-138.51L277.91,-140.34L281.02,-174.66C284.81,-216.48 274.20,-230.63 248.25,-232.98C230.67,-234.58 216.22,-227.89 208.93,-214.28L215.57,-287.41L180.61,-290.58L177.21,-253.05L198.44,-251.12L189.12,-148.39L167.89,-150.32L165.09,-119.44ZM371.25,-254.04C372.38,-266.48 365.96,-272.04 354.38,-273.09C341.51,-274.26 334.61,-269.69 333.50,-257.47C332.40,-245.24 338.73,-238.83 351.17,-237.70C362.32,-236.69 370.14,-241.82 371.25,-254.04ZM318.42,-136.45L315.62,-105.57C324.86,-104.95 333.65,-104.15 342.45,-103.35L349.95,-102.67C359.18,-101.84 368.38,-100.79 378.03,-99.91L380.83,-130.79L359.17,-132.76L366.70,-215.75L325.95,-219.45L322.76,-184.28L349.57,-181.85L345.23,-134.02ZM391.95,-86.54L389.15,-55.66C395.18,-55.33 430.56,-52.12 442.55,-50.81L445.35,-81.70L426.27,-83.43L428.62,-109.38C437.28,-97.57 448.63,-91.56 460.85,-90.45C487.01,-88.08 508.44,-104.95 511.96,-143.77C516.39,-192.66 498.96,-210.25 473.22,-212.58C459.93,-213.79 444.80,-209.10 436.36,-194.73L438.07,-213.61L403.76,-216.72L400.57,-181.55C404.45,-181.41 412.60,-180.67 420.96,-179.91L412.33,-84.69ZM462.48,-117.98C448.35,-119.48 435.40,-124.55 431.05,-136.19L432.94,-156.99C434.28,-171.79 444.69,-179.27 468.49,-177.12C488.87,-175.27 500.88,-164.66 499.24,-146.65C497.28,-122.61 483.67,-115.63 462.48,-117.98ZM-204.81,5.08L-206.46,23.31L-275.52,17.04L-271.96,-22.20L-223.92,-17.85L-225.65,1.24L-215.36,2.17L-210.90,-46.94L-221.20,-47.87L-222.83,-29.86L-270.87,-34.21L-267.62,-70.03L-200.07,-63.90L-201.60,-46.96L-189.17,-45.83L-184.13,-101.38L-298.65,-111.76L-302.15,-73.16L-282.85,-71.41L-290.75,15.66L-310.05,13.91L-312.85,44.79L-196.82,55.32L-192.37,6.20ZM-78.01,66.09C-69.44,66.87 -63.16,64.41 -58.85,59.83L-56.44,33.24C-61.94,39.01 -67.47,40.45 -74.12,39.85C-79.27,39.38 -83.54,36.40 -84.81,31.31L-81.73,-2.57C-78.13,-42.25 -90.07,-56.09 -119.24,-58.73C-135.32,-60.19 -149.28,-56.48 -158.30,-47.57L-159.95,-19.83C-153.54,-26.17 -142.29,-30.99 -124.06,-29.33C-103.91,-27.50 -95.23,-18.28 -95.98,1.97C-104.43,-5.06 -119.26,-8.36 -129.34,-9.27C-154.86,-11.58 -173.54,1.21 -175.58,23.73C-177.47,44.53 -164.21,60.44 -133.75,63.20C-119.81,64.46 -105.78,59.90 -97.77,52.62C-94.16,60.52 -87.24,65.25 -78.01,66.09ZM-131.11,36.41C-151.05,34.60 -159.14,28.46 -158.29,19.03C-157.39,9.16 -147.88,4.40 -126.86,6.31C-114.85,7.40 -105.50,11.49 -97.31,18.93L-98.30,29.87C-105.74,35.68 -117.81,37.62 -131.11,36.41ZM-42.44,38.61L-45.24,69.50C-39.22,69.83 -3.83,73.03 8.16,74.34L10.96,43.46L-8.34,41.71L-5.56,11.04C-4.20,-3.97 4.28,-11.64 14.79,-10.69C24.44,-9.81 29.37,-6.98 31.44,-1.18L42.82,-36.04C37.67,-41.26 33.03,-44.92 22.74,-45.86C13.94,-46.66 2.68,-41.62 -3.42,-29.20L-9.20,-46.59L-34.50,-48.89L-37.69,-13.72C-32.55,-13.25 -26.52,-12.92 -17.75,-11.91L-22.49,40.42ZM120.77,72.44L116.94,50.26C113.16,53.80 105.60,56.15 96.61,55.11C86.12,53.95 79.31,47.92 80.72,32.48L83.87,-2.26L116.03,0.66L119.07,-32.80L86.90,-35.71L89.43,-63.59L75.49,-64.86L72.96,-36.98L56.02,-38.52L52.98,-5.06L69.93,-3.52L65.43,46.02C63.08,71.97 74.49,82.08 91.22,83.60C103.44,84.71 116.13,80.67 120.77,72.44ZM195.42,90.89L198.22,60.01L176.78,58.06L179.60,26.96C186.53,12.46 198.89,7.31 215.19,8.79C233.42,10.44 242.18,21.18 240.21,42.84L238.33,63.64L215.59,61.58L212.79,92.46L269.20,97.58L272.00,66.70L251.84,64.87L254.95,30.55C258.74,-11.27 248.13,-25.42 222.18,-27.77C204.60,-29.37 190.15,-22.68 182.86,-9.07L189.50,-82.20L154.54,-85.37L151.14,-47.84L172.37,-45.91L163.05,56.82L141.82,54.89L139.02,85.77Z" fill="#ffffff" stroke="#000000"/>
    <path d="M-567.26,-255.53L-573.98,-200.10L-561.71,-198.61L-559.63,-215.75C-550.89,-202.88 -533.83,-193.09 -514.15,-190.70C-476.07,-186.09 -454.38,-198.49 -451.13,-225.36C-447.92,-250.09 -461.76,-268.72 -505.12,-277.63C-537.37,-284.32 -542.47,-291.81 -541.32,-301.33C-540.01,-312.12 -530.48,-321.70 -501.91,-318.24C-477.37,-315.27 -468.06,-305.34 -461.21,-298.07L-448.94,-296.58L-443.30,-343.13L-455.57,-344.61L-457.49,-328.75C-464.38,-340.96 -478.96,-351.74 -498.01,-354.05C-533.13,-358.30 -555.61,-341.06 -558.69,-315.68C-561.94,-288.81 -552.15,-272.16 -508.13,-263.39C-479.61,-257.79 -468.77,-248.10 -470.02,-237.74C-471.43,-226.10 -483.72,-218.57 -512.50,-222.06C-535.13,-224.80 -550.62,-238.70 -554.99,-254.04ZM-438.34,-171.43L-442.03,-140.96C-436.08,-140.45 -401.17,-136.22 -389.35,-134.58L-385.66,-165.04L-404.49,-167.32L-401.39,-192.92C-393.17,-180.98 -382.13,-174.70 -370.07,-173.24C-344.26,-170.12 -322.56,-186.16 -317.92,-224.46C-312.08,-272.70 -328.80,-290.61 -354.19,-293.69C-367.30,-295.28 -382.41,-291.09 -391.18,-277.13L-388.93,-295.75L-422.78,-299.85L-426.98,-265.15C-423.15,-264.90 -415.11,-263.93 -406.86,-262.93L-418.24,-168.99ZM-367.63,-200.43C-381.57,-202.33 -394.23,-207.73 -398.18,-219.37L-395.70,-239.89C-393.93,-254.49 -383.41,-261.59 -359.92,-258.74C-339.82,-256.31 -328.26,-245.46 -330.41,-227.69C-333.07,-203.97 -346.74,-197.47 -367.63,-200.43ZM-204.15,-155.29C-195.69,-154.26 -189.40,-156.50 -185.01,-160.91L-181.83,-187.14C-187.44,-181.60 -192.96,-180.33 -199.52,-181.13C-204.59,-181.74 -208.73,-184.82 -209.83,-189.89L-205.78,-223.32C-201.04,-262.46 -212.43,-276.51 -241.21,-280.00C-257.07,-281.92 -270.99,-278.67 -280.19,-270.12L-282.65,-242.73C-276.11,-248.80 -264.84,-253.23 -246.86,-251.06C-226.97,-248.65 -218.66,-239.27 -220.01,-219.25C-228.16,-226.46 -242.74,-230.16 -252.68,-231.37C-277.86,-234.42 -296.71,-222.32 -299.40,-200.10C-301.89,-179.58 -289.25,-163.45 -259.20,-159.81C-245.45,-158.14 -231.43,-162.24 -223.29,-169.20C-219.95,-161.28 -213.25,-156.39 -204.15,-155.29ZM-255.79,-186.23C-275.46,-188.61 -283.29,-194.93 -282.16,-204.24C-280.98,-213.97 -271.43,-218.40 -250.69,-215.88C-238.84,-214.45 -229.71,-210.12 -221.83,-202.51L-223.14,-191.72C-230.68,-186.19 -242.67,-184.64 -255.79,-186.23ZM-80.05,-164.29L-89.23,-180.65C-96.30,-170.13 -107.02,-166.70 -124.58,-168.83C-148.91,-171.78 -156.98,-188.43 -154.59,-206.39C-152.18,-224.55 -137.57,-233.52 -117.04,-231.03C-99.48,-228.90 -92.32,-222.45 -88.59,-214.27L-76.32,-212.79L-70.70,-259.12L-82.98,-260.61L-84.98,-244.11C-89.33,-256.01 -99.03,-262.77 -114.05,-264.59C-139.44,-267.66 -161.62,-252.96 -166.95,-208.96C-171.87,-168.33 -155.53,-147.25 -128.66,-143.99C-105.81,-141.22 -89.24,-148.66 -80.05,-164.29ZM30.54,-153.90L21.75,-164.62C14.59,-156.90 5.16,-153.54 -13.43,-156.00C-32.87,-158.57 -44.53,-166.86 -45.02,-185.81L36.64,-175.91C42.97,-228.17 26.86,-247.51 -1.92,-251.00C-27.31,-254.08 -51.57,-239.84 -57.03,-194.78C-61.19,-160.50 -47.84,-134.20 -16.11,-130.35C4.41,-127.87 21.61,-138.66 30.54,-153.90ZM-6.87,-218.97C14.71,-216.35 26.76,-204.16 25.19,-191.26L-43.36,-199.56C-38.45,-215.28 -22.74,-220.89 -6.87,-218.97ZM138.99,-143.55C141.83,-167.03 131.96,-177.67 102.06,-184.30C83.67,-188.46 78.00,-193.01 78.67,-198.51C79.62,-206.34 89.46,-211.38 105.32,-209.45C123.10,-207.30 129.07,-201.64 132.16,-193.54L142.11,-192.33L146.80,-231.05L136.85,-232.25L135.75,-223.16C128.77,-231.09 116.77,-236.62 105.14,-238.03C83.35,-240.67 66.36,-229.85 63.95,-209.96C60.93,-184.99 71.78,-175.31 98.95,-169.22C116.70,-165.14 123.86,-160.41 123.16,-154.70C122.29,-147.50 113.69,-142.10 94.65,-144.41C75.61,-146.72 72.91,-154.56 67.38,-163.82L57.86,-164.97L52.91,-124.14L62.43,-122.98L63.87,-134.83C69.85,-125.73 81.22,-118.56 95.18,-116.87C120.57,-113.79 136.68,-124.51 138.99,-143.55ZM216.46,-104.32L220.15,-134.79L198.99,-137.35L202.71,-168.03C210.00,-182.17 222.38,-186.90 238.46,-184.95C256.45,-182.77 264.79,-171.88 262.20,-150.51L259.71,-129.99L237.28,-132.71L233.59,-102.24L289.24,-95.50L292.93,-125.97L273.04,-128.38L277.14,-162.23C282.14,-203.48 272.07,-217.80 246.47,-220.90C229.12,-223.01 214.63,-216.82 207.01,-203.57L215.76,-275.72L181.27,-279.90L176.78,-242.87L197.73,-240.33L185.45,-138.99L164.50,-141.53L160.81,-111.06ZM368.77,-238.07C370.26,-250.34 364.07,-256.03 352.65,-257.41C339.96,-258.95 332.99,-254.64 331.53,-242.58C330.07,-230.52 336.15,-223.99 348.42,-222.50C359.42,-221.17 367.31,-226.01 368.77,-238.07ZM313.00,-123.32L309.31,-92.85C318.43,-91.96 327.11,-90.91 335.78,-89.86L343.19,-88.96C352.28,-87.86 361.36,-86.55 370.88,-85.39L374.57,-115.86L353.20,-118.45L363.12,-200.33L322.92,-205.20L318.72,-170.50L345.17,-167.30L339.45,-120.12ZM384.25,-71.75L380.56,-41.28C386.51,-40.78 421.42,-36.55 433.24,-34.90L436.93,-65.37L418.10,-67.65L421.21,-93.25C429.42,-81.30 440.47,-75.03 452.53,-73.57C478.34,-70.44 500.03,-86.49 504.67,-124.78C510.52,-173.02 493.80,-190.93 468.41,-194.01C455.29,-195.60 440.19,-191.42 431.41,-177.45L433.67,-196.07L399.81,-200.17L395.61,-165.48C399.44,-165.23 407.48,-164.25 415.73,-163.25L404.35,-69.31ZM454.96,-100.75C441.02,-102.65 428.37,-108.05 424.41,-119.70L426.90,-140.22C428.67,-154.82 439.19,-161.91 462.67,-159.07C482.77,-156.63 494.34,-145.79 492.18,-128.01C489.52,-104.29 475.85,-97.79 454.96,-100.75ZM-208.82,1.08L-211.00,19.06L-279.13,10.81L-274.44,-27.91L-227.04,-22.17L-229.33,-3.34L-219.17,-2.11L-213.30,-50.56L-223.45,-51.79L-225.61,-34.02L-273.00,-39.76L-268.72,-75.09L-202.07,-67.02L-204.10,-50.30L-191.83,-48.81L-185.19,-103.61L-298.17,-117.30L-302.78,-79.22L-283.74,-76.91L-294.15,8.99L-313.19,6.68L-316.88,37.15L-202.42,51.02L-196.55,2.57ZM-85.21,65.22C-76.75,66.24 -70.46,64.00 -66.07,59.60L-62.89,33.36C-68.50,38.91 -74.02,40.17 -80.58,39.37C-85.65,38.76 -89.79,35.68 -90.89,30.61L-86.84,-2.82C-82.10,-41.96 -93.49,-56.01 -122.27,-59.49C-138.13,-61.41 -152.05,-58.16 -161.25,-49.62L-163.71,-22.22C-157.17,-28.30 -145.90,-32.73 -127.92,-30.55C-108.03,-28.14 -99.72,-18.76 -101.07,1.25C-109.22,-5.96 -123.80,-9.66 -133.74,-10.86C-158.92,-13.91 -177.77,-1.81 -180.46,20.40C-182.95,40.92 -170.31,57.05 -140.26,60.69C-126.51,62.36 -112.49,58.26 -104.35,51.31C-101.01,59.22 -94.31,64.12 -85.21,65.22ZM-136.85,34.27C-156.52,31.89 -164.35,25.57 -163.22,16.27C-162.04,6.53 -152.49,2.11 -131.75,4.62C-119.90,6.06 -110.77,10.38 -102.89,17.99L-104.20,28.78C-111.73,34.31 -123.73,35.86 -136.85,34.27ZM-49.20,39.10L-52.89,69.56C-46.94,70.07 -12.03,74.30 -0.21,75.95L3.48,45.48L-15.56,43.17L-11.89,12.92C-10.10,-1.89 -1.48,-9.22 8.88,-7.96C18.41,-6.81 23.20,-3.87 25.07,1.94L37.37,-32.21C32.43,-37.53 27.95,-41.29 17.80,-42.52C9.12,-43.57 -2.18,-38.93 -8.58,-26.82L-13.77,-44.20L-38.74,-47.22L-42.94,-12.53C-37.87,-11.91 -31.92,-11.40 -23.27,-10.14L-29.52,41.48ZM111.24,77.43L108.12,55.37C104.27,58.77 96.72,60.86 87.86,59.57C77.52,58.10 70.97,51.94 72.81,36.71L76.97,2.43L108.70,6.28L112.70,-26.73L80.97,-30.57L84.30,-58.08L70.55,-59.74L67.21,-32.24L50.50,-34.26L46.50,-1.26L63.21,0.77L57.29,49.64C54.19,75.24 65.17,85.59 81.68,87.59C93.74,89.05 106.41,85.43 111.24,77.43ZM184.54,97.91L188.24,67.44L167.08,64.88L170.80,34.20C178.09,20.05 190.47,15.33 206.55,17.28C224.53,19.46 232.88,30.34 230.29,51.71L227.80,72.23L205.37,69.52L201.68,99.98L257.33,106.72L261.02,76.26L241.13,73.85L245.23,40.00C250.23,-1.26 240.16,-15.58 214.56,-18.68C197.21,-20.78 182.72,-14.59 175.10,-1.35L183.85,-73.49L149.36,-77.67L144.87,-40.65L165.82,-38.11L153.54,63.23L132.59,60.70L128.90,91.16Z" fill="#ffffff" stroke="#000000"/>
    <path d="M-559.54,-267.71L-567.84,-213.08L-555.74,-211.25L-553.18,-228.14C-544.91,-215.15 -528.33,-204.95 -508.94,-202.00C-471.41,-196.30 -449.59,-207.92 -445.57,-234.40C-441.65,-258.77 -454.79,-277.61 -497.41,-287.71C-529.11,-295.30 -533.94,-302.86 -532.51,-312.24C-530.90,-322.88 -521.18,-332.07 -493.03,-327.79C-468.84,-324.12 -459.93,-314.02 -453.37,-306.62L-441.28,-304.79L-434.31,-350.66L-446.40,-352.50L-448.78,-336.86C-455.23,-349.14 -469.33,-360.24 -488.10,-363.09C-522.71,-368.35 -545.46,-351.97 -549.26,-326.95C-553.29,-300.47 -544.10,-283.71 -500.82,-273.73C-472.78,-267.33 -462.34,-257.43 -463.89,-247.21C-465.63,-235.74 -478.01,-228.66 -506.37,-232.97C-528.68,-236.36 -543.58,-250.57 -547.45,-265.88ZM-434.53,-180.68L-439.09,-150.65C-433.22,-149.97 -398.82,-144.75 -387.17,-142.77L-382.61,-172.79L-401.17,-175.61L-397.34,-200.84C-389.57,-188.78 -378.83,-182.24 -366.94,-180.44C-341.50,-176.57 -319.57,-191.80 -313.83,-229.54C-306.61,-277.08 -322.62,-295.30 -347.64,-299.10C-360.57,-301.06 -375.63,-297.38 -384.73,-283.83L-381.94,-302.17L-415.31,-307.24L-420.50,-273.05C-416.71,-272.68 -408.79,-271.48 -400.66,-270.25L-414.72,-177.67ZM-363.72,-207.25C-377.45,-209.55 -389.81,-215.27 -393.38,-226.90L-390.30,-247.13C-388.12,-261.52 -377.50,-268.22 -354.36,-264.71C-334.55,-261.70 -323.43,-250.62 -326.09,-233.11C-329.43,-209.72 -343.14,-203.70 -363.72,-207.25ZM-203.36,-157.73C-195.02,-156.46 -188.74,-158.49 -184.26,-162.72L-180.33,-188.57C-186.05,-183.25 -191.55,-182.17 -198.01,-183.15C-203.01,-183.91 -207.01,-187.08 -207.95,-192.13L-202.95,-225.07C-197.09,-263.65 -207.94,-277.88 -236.30,-282.19C-251.93,-284.56 -265.80,-281.76 -275.15,-273.58L-278.40,-246.56C-271.76,-252.37 -260.48,-256.42 -242.75,-253.73C-223.15,-250.75 -215.21,-241.23 -217.15,-221.47C-224.99,-228.85 -239.30,-232.94 -249.10,-234.43C-273.91,-238.20 -292.92,-226.79 -296.25,-204.90C-299.32,-184.67 -287.29,-168.34 -257.68,-163.84C-244.13,-161.78 -230.14,-165.42 -221.88,-172.06C-218.82,-164.13 -212.33,-159.09 -203.36,-157.73ZM-253.52,-189.87C-272.91,-192.82 -280.46,-199.30 -279.06,-208.47C-277.61,-218.07 -268.03,-222.16 -247.59,-219.05C-235.92,-217.28 -227.01,-212.73 -219.44,-204.96L-221.06,-194.33C-228.68,-189.09 -240.59,-187.91 -253.52,-189.87ZM-80.34,-162.93L-88.94,-179.38C-96.24,-169.19 -106.95,-166.12 -124.25,-168.75C-148.23,-172.39 -155.72,-189.10 -152.82,-206.79C-149.89,-224.69 -135.17,-233.12 -114.94,-230.05C-97.64,-227.42 -90.75,-220.83 -87.30,-212.63L-75.21,-210.79L-68.27,-256.45L-80.36,-258.29L-82.83,-242.03C-86.79,-253.93 -96.18,-260.90 -110.98,-263.15C-136.00,-266.95 -158.38,-253.07 -164.96,-209.70C-171.05,-169.67 -155.52,-148.33 -129.03,-144.30C-106.52,-140.88 -89.90,-147.75 -80.34,-162.93ZM28.73,-149.35L20.36,-160.22C13.05,-152.80 3.62,-149.75 -14.69,-152.75C-33.84,-155.87 -45.13,-164.41 -45.06,-183.17L35.43,-170.95C43.25,-222.45 27.88,-242.06 -0.47,-246.37C-25.49,-250.17 -49.92,-236.81 -56.67,-192.40C-61.80,-158.62 -49.38,-132.21 -18.11,-127.46C2.12,-124.38 19.45,-134.55 28.73,-149.35ZM-6.33,-214.83C14.94,-211.60 26.49,-199.18 24.56,-186.46L-43.00,-196.72C-37.67,-212.13 -21.97,-217.21 -6.33,-214.83ZM135.69,-135.88C139.21,-159.02 129.76,-169.85 100.39,-177.29C82.32,-181.96 76.85,-186.63 77.67,-192.05C78.84,-199.76 88.73,-204.45 104.36,-202.07C121.88,-199.41 127.61,-193.64 130.44,-185.53L140.24,-184.04L146.03,-222.20L136.23,-223.69L134.87,-214.72C128.20,-222.77 116.50,-228.60 105.03,-230.34C83.56,-233.61 66.43,-223.41 63.46,-203.81C59.72,-179.20 70.16,-169.30 96.86,-162.47C114.29,-157.90 121.23,-153.01 120.38,-147.38C119.30,-140.29 110.63,-135.21 91.87,-138.06C73.10,-140.91 70.67,-148.74 65.47,-158.06L56.09,-159.49L49.97,-119.25L59.36,-117.82L61.13,-129.50C66.78,-120.32 77.81,-112.89 91.57,-110.80C116.59,-107.00 132.84,-117.11 135.69,-135.88ZM211.15,-94.77L215.71,-124.79L194.86,-127.96L199.45,-158.19C207.09,-171.97 219.48,-176.27 235.32,-173.86C253.05,-171.17 260.97,-160.16 257.77,-139.10L254.70,-118.87L232.60,-122.23L228.04,-92.20L282.88,-83.87L287.44,-113.90L267.84,-116.88L272.91,-150.24C279.08,-190.90 269.55,-205.36 244.32,-209.19C227.22,-211.79 212.70,-206.10 204.77,-193.22L215.57,-264.32L181.59,-269.49L176.04,-233.00L196.69,-229.86L181.52,-129.99L160.87,-133.12L156.31,-103.10ZM365.80,-222.52C367.64,-234.62 361.69,-240.42 350.43,-242.13C337.92,-244.04 330.91,-239.98 329.10,-228.10C327.30,-216.21 333.11,-209.57 345.21,-207.73C356.05,-206.08 363.99,-210.64 365.80,-222.52ZM307.22,-110.68L302.66,-80.66C311.65,-79.50 320.20,-78.20 328.75,-76.91L336.05,-75.80C345.01,-74.44 353.95,-72.87 363.33,-71.44L367.89,-101.47L346.83,-104.66L359.09,-185.36L319.47,-191.37L314.28,-157.18L340.34,-153.22L333.28,-106.72ZM376.15,-57.55L371.59,-27.52C377.46,-26.84 411.87,-21.62 423.51,-19.64L428.07,-49.66L409.51,-52.48L413.35,-77.71C421.11,-65.65 431.85,-59.11 443.74,-57.31C469.18,-53.44 491.11,-68.67 496.85,-106.41C504.07,-153.95 488.06,-172.17 463.04,-175.97C450.11,-177.93 435.05,-174.25 425.95,-160.70L428.74,-179.05L395.38,-184.11L390.18,-149.92C393.97,-149.56 401.89,-148.35 410.02,-147.12L395.96,-54.54ZM446.96,-84.12C433.23,-86.42 420.87,-92.14 417.31,-103.77L420.38,-124.00C422.56,-138.39 433.18,-145.09 456.32,-141.58C476.13,-138.57 487.25,-127.49 484.59,-109.98C481.25,-86.60 467.54,-80.57 446.96,-84.12ZM-212.65,-3.20L-215.34,14.52L-282.48,4.33L-276.68,-33.83L-229.98,-26.74L-232.80,-8.18L-222.79,-6.66L-215.54,-54.41L-225.54,-55.93L-228.21,-38.41L-274.91,-45.51L-269.62,-80.33L-203.94,-70.35L-206.44,-53.88L-194.35,-52.04L-186.15,-106.05L-297.49,-122.96L-303.19,-85.43L-284.43,-82.58L-297.28,2.08L-316.05,-0.77L-320.61,29.25L-207.81,46.39L-200.55,-1.36ZM-92.29,63.93C-83.95,65.20 -77.67,63.16 -73.19,58.94L-69.26,33.08C-74.98,38.40 -80.47,39.49 -86.94,38.51C-91.94,37.75 -95.94,34.58 -96.88,29.53L-91.88,-3.42C-86.02,-41.99 -96.87,-56.22 -125.23,-60.53C-140.86,-62.91 -154.73,-60.11 -164.08,-51.93L-167.33,-24.90C-160.69,-30.72 -149.40,-34.76 -131.68,-32.07C-112.08,-29.10 -104.14,-19.57 -106.08,0.19C-113.92,-7.19 -128.23,-11.28 -138.03,-12.77C-162.84,-16.54 -181.85,-5.14 -185.17,16.76C-188.25,36.98 -176.22,53.32 -146.61,57.81C-133.06,59.87 -119.07,56.24 -110.81,49.60C-107.75,57.53 -101.26,62.57 -92.29,63.93ZM-142.45,31.78C-161.84,28.84 -169.39,22.36 -167.99,13.18C-166.54,3.59 -156.96,-0.50 -136.52,2.60C-124.85,4.38 -115.94,8.93 -108.37,16.69L-109.99,27.33C-117.61,32.57 -129.52,33.74 -142.45,31.78ZM-55.89,39.17L-60.45,69.19C-54.58,69.87 -20.18,75.10 -8.54,77.08L-3.98,47.05L-22.74,44.20L-18.21,14.39C-16.00,-0.21 -7.25,-7.20 2.96,-5.65C12.35,-4.22 17.00,-1.17 18.68,4.63L31.86,-28.78C27.14,-34.19 22.82,-38.05 12.81,-39.57C4.26,-40.86 -7.05,-36.61 -13.75,-24.83L-18.37,-42.17L-42.97,-45.90L-48.17,-11.71C-43.16,-10.95 -37.29,-10.27 -28.78,-8.76L-36.50,42.11ZM101.66,81.87L99.23,59.95C95.32,63.20 87.79,65.04 79.07,63.51C68.88,61.74 62.58,55.46 64.86,40.44L69.99,6.66L101.27,11.41L106.21,-21.11L74.93,-25.86L79.05,-52.97L65.50,-55.03L61.38,-27.92L44.91,-30.42L39.97,2.10L56.44,4.61L49.13,52.77C45.29,78.00 55.85,88.56 72.11,91.03C84.00,92.84 96.64,89.64 101.66,81.87ZM173.56,104.31L178.12,74.28L157.26,71.12L161.86,40.88C169.50,27.11 181.88,22.80 197.73,25.21C215.45,27.90 223.38,38.92 220.18,59.98L217.11,80.20L195.01,76.85L190.44,106.87L245.28,115.20L249.84,85.18L230.24,82.20L235.31,48.84C241.49,8.18 231.95,-6.28 206.72,-10.11C189.62,-12.71 175.11,-7.02 167.18,5.85L177.98,-65.25L143.99,-70.41L138.45,-33.92L159.09,-30.79L143.92,69.09L123.28,65.95L118.72,95.98Z" fill="#ffffff" stroke="#000000"/>
    <path d="M-551.47,-279.70L-561.30,-225.92L-549.40,-223.74L-546.36,-240.37C-538.57,-227.28 -522.47,-216.70 -503.38,-213.21C-466.43,-206.45 -444.51,-217.29 -439.74,-243.36C-435.14,-267.34 -447.57,-286.37 -489.43,-297.63C-520.55,-306.08 -525.10,-313.70 -523.41,-322.94C-521.49,-333.41 -511.61,-342.21 -483.90,-337.14C-460.09,-332.79 -451.57,-322.53 -445.30,-315.02L-433.40,-312.84L-425.14,-358.00L-437.05,-360.18L-439.86,-344.79C-445.88,-357.13 -459.49,-368.53 -477.97,-371.91C-512.04,-378.14 -535.03,-362.61 -539.54,-337.98C-544.31,-311.91 -535.72,-295.07 -493.21,-283.90C-465.67,-276.74 -455.64,-266.63 -457.48,-256.57C-459.54,-245.28 -472.00,-238.65 -499.92,-243.76C-521.88,-247.77 -536.20,-262.27 -539.56,-277.53ZM-430.43,-189.89L-435.83,-160.33C-430.05,-159.49 -396.18,-153.29 -384.72,-150.99L-379.31,-180.55L-397.58,-183.89L-393.04,-208.73C-385.72,-196.57 -375.29,-189.78 -363.59,-187.64C-338.55,-183.06 -316.39,-197.47 -309.60,-234.62C-301.04,-281.42 -316.33,-299.92 -340.96,-304.42C-353.69,-306.75 -368.70,-303.56 -378.10,-290.43L-374.80,-308.49L-407.64,-314.50L-413.80,-280.83C-410.06,-280.36 -402.26,-278.93 -394.26,-277.47L-410.92,-186.33ZM-359.61,-214.07C-373.12,-216.75 -385.17,-222.77 -388.35,-234.39L-384.71,-254.30C-382.12,-268.46 -371.41,-274.78 -348.63,-270.61C-329.13,-267.04 -318.46,-255.76 -321.62,-238.52C-325.61,-215.49 -339.36,-209.94 -359.61,-214.07ZM-202.48,-160.30C-194.27,-158.80 -188.00,-160.62 -183.44,-164.67L-178.79,-190.12C-184.60,-185.03 -190.07,-184.12 -196.43,-185.29C-201.36,-186.19 -205.22,-189.44 -205.99,-194.46L-200.06,-226.89C-193.12,-264.87 -203.43,-279.27 -231.34,-284.38C-246.74,-287.19 -260.53,-284.84 -270.02,-277.03L-274.05,-250.39C-267.30,-255.95 -256.02,-259.62 -238.58,-256.42C-219.28,-252.90 -211.71,-243.24 -214.21,-223.75C-221.75,-231.28 -235.78,-235.76 -245.43,-237.52C-269.85,-241.99 -289.00,-231.28 -292.94,-209.72C-296.58,-189.81 -285.17,-173.30 -256.02,-167.97C-242.68,-165.53 -228.74,-168.71 -220.37,-175.03C-217.58,-167.09 -211.31,-161.91 -202.48,-160.30ZM-251.13,-193.59C-270.22,-197.08 -277.49,-203.72 -275.84,-212.75C-274.11,-222.19 -264.51,-225.95 -244.40,-222.27C-232.90,-220.17 -224.23,-215.40 -216.97,-207.50L-218.89,-197.03C-226.58,-192.07 -238.40,-191.27 -251.13,-193.59ZM-80.66,-161.78L-88.66,-178.31C-96.20,-168.44 -106.88,-165.73 -123.91,-168.84C-147.52,-173.16 -154.43,-189.91 -151.03,-207.32C-147.60,-224.94 -132.79,-232.84 -112.88,-229.19C-95.84,-226.08 -89.22,-219.35 -86.06,-211.14L-74.15,-208.96L-65.93,-253.91L-77.83,-256.09L-80.76,-240.08C-84.31,-251.97 -93.40,-259.15 -107.97,-261.82C-132.60,-266.32 -155.15,-253.26 -162.96,-210.56C-170.16,-171.15 -155.44,-149.58 -129.37,-144.81C-107.20,-140.75 -90.56,-147.05 -80.66,-161.78ZM26.82,-145.10L18.86,-156.10C11.41,-148.98 2.00,-146.24 -16.03,-149.75C-34.88,-153.41 -45.79,-162.19 -45.15,-180.75L34.08,-166.25C43.35,-216.96 28.74,-236.81 0.82,-241.92C-23.81,-246.42 -48.37,-233.94 -56.36,-190.22C-62.44,-156.97 -50.95,-130.47 -20.16,-124.84C-0.25,-121.20 17.19,-130.73 26.82,-145.10ZM-5.91,-210.90C15.03,-207.08 26.09,-194.45 23.80,-181.93L-42.71,-194.09C-36.99,-209.16 -21.30,-213.72 -5.91,-210.90ZM132.20,-128.58C136.37,-151.37 127.35,-162.35 98.52,-170.59C80.79,-175.74 75.51,-180.53 76.49,-185.87C77.88,-193.46 87.79,-197.80 103.19,-194.98C120.43,-191.83 125.93,-185.95 128.48,-177.84L138.13,-176.08L145.00,-213.64L135.35,-215.41L133.74,-206.58C127.38,-214.74 115.98,-220.86 104.69,-222.92C83.55,-226.79 66.31,-217.21 62.78,-197.92C58.35,-173.70 68.39,-163.59 94.58,-156.04C111.69,-151.00 118.41,-145.95 117.39,-140.41C116.12,-133.43 107.40,-128.66 88.92,-132.04C70.45,-135.42 68.27,-143.24 63.41,-152.62L54.17,-154.31L46.93,-114.69L56.16,-113.00L58.27,-124.50C63.58,-115.25 74.26,-107.57 87.81,-105.09C112.44,-100.59 128.82,-110.11 132.20,-128.58ZM205.60,-85.67L211.01,-115.23L190.48,-118.98L195.93,-148.75C203.89,-162.14 216.27,-166.03 231.87,-163.18C249.32,-159.99 256.83,-148.85 253.04,-128.12L249.40,-108.21L227.64,-112.19L222.23,-82.63L276.22,-72.76L281.63,-102.32L262.33,-105.85L268.34,-138.69C275.66,-178.72 266.66,-193.30 241.82,-197.85C224.99,-200.93 210.46,-195.73 202.23,-183.24L215.03,-253.23L181.57,-259.35L175.00,-223.43L195.33,-219.71L177.35,-121.39L157.02,-125.10L151.62,-95.54ZM362.37,-207.41C364.54,-219.32 358.84,-225.24 347.75,-227.27C335.44,-229.52 328.38,-225.72 326.24,-214.02C324.10,-202.32 329.65,-195.57 341.56,-193.40C352.23,-191.44 360.23,-195.71 362.37,-207.41ZM301.09,-98.54L295.68,-68.99C304.55,-67.58 312.96,-66.04 321.38,-64.50L328.57,-63.18C337.39,-61.57 346.18,-59.75 355.42,-58.06L360.82,-87.62L340.09,-91.41L354.62,-170.85L315.62,-177.99L309.46,-144.32L335.12,-139.63L326.75,-93.85ZM367.69,-43.94L362.28,-14.38C368.07,-13.53 401.94,-7.34 413.39,-5.03L418.80,-34.59L400.53,-37.93L405.07,-62.77C412.39,-50.61 422.82,-43.83 434.52,-41.69C459.57,-37.11 481.72,-51.51 488.51,-88.67C497.07,-135.47 481.78,-153.96 457.15,-158.47C444.42,-160.79 429.41,-157.60 420.01,-144.47L423.32,-162.53L390.47,-168.54L384.32,-134.87C388.05,-134.40 395.85,-132.98 403.85,-131.51L387.19,-40.37ZM438.51,-68.11C425.00,-70.79 412.94,-76.82 409.76,-88.43L413.41,-108.34C416.00,-122.51 426.70,-128.82 449.48,-124.65C468.98,-121.09 479.65,-109.80 476.50,-92.56C472.50,-69.53 458.75,-63.98 438.51,-68.11ZM-216.27,-7.75L-219.46,9.70L-285.56,-2.39L-278.69,-39.95L-232.71,-31.54L-236.05,-13.27L-226.20,-11.47L-217.60,-58.48L-227.46,-60.28L-230.61,-43.04L-276.59,-51.45L-270.32,-85.73L-205.66,-73.90L-208.63,-57.69L-196.72,-55.51L-187.00,-108.68L-296.61,-128.72L-303.37,-91.77L-284.90,-88.39L-300.14,-5.05L-318.61,-8.43L-324.02,21.13L-212.96,41.44L-204.37,-5.57ZM-99.24,62.24C-91.03,63.74 -84.76,61.91 -80.20,57.87L-75.54,32.41C-81.35,37.50 -86.82,38.41 -93.19,37.25C-98.11,36.35 -101.97,33.10 -102.75,28.07L-96.82,-4.36C-89.88,-42.33 -100.18,-56.74 -128.10,-61.84C-143.50,-64.66 -157.29,-62.30 -166.78,-54.49L-170.80,-27.86C-164.06,-33.41 -152.78,-37.08 -135.33,-33.89C-116.04,-30.36 -108.47,-20.70 -110.97,-1.22C-118.51,-8.75 -132.54,-13.22 -142.19,-14.99C-166.61,-19.46 -185.76,-8.74 -189.70,12.81C-193.34,32.72 -181.93,49.23 -152.78,54.56C-139.44,57.01 -125.49,53.83 -117.13,47.51C-114.34,55.44 -108.07,60.62 -99.24,62.24ZM-147.89,28.94C-166.98,25.45 -174.25,18.82 -172.60,9.79C-170.87,0.34 -161.27,-3.42 -141.16,0.26C-129.66,2.36 -120.99,7.13 -113.73,15.04L-115.65,25.50C-123.34,30.46 -135.16,31.27 -147.89,28.94ZM-62.50,38.83L-67.91,68.39C-62.12,69.24 -28.25,75.43 -16.80,77.74L-11.39,48.18L-29.87,44.80L-24.50,15.44C-21.87,1.07 -13.02,-5.58 -2.96,-3.74C6.28,-2.05 10.79,1.11 12.28,6.90L26.31,-25.75C21.80,-31.25 17.64,-35.19 7.79,-36.99C-0.63,-38.53 -11.94,-34.66 -18.91,-23.21L-22.97,-40.49L-47.19,-44.92L-53.34,-11.26C-48.42,-10.36 -42.63,-9.51 -34.25,-7.77L-43.41,42.32ZM92.05,85.76L90.30,64.02C86.34,67.11 78.83,68.71 70.25,66.93C60.23,64.88 54.19,58.47 56.89,43.69L62.97,10.44L93.76,16.07L99.62,-15.95L68.83,-21.58L73.71,-48.27L60.37,-50.71L55.49,-24.02L39.27,-26.99L33.41,5.03L49.63,8.00L40.96,55.42C36.41,80.26 46.54,91.02 62.55,93.94C74.25,96.08 86.85,93.30 92.05,85.76ZM162.48,110.10L167.89,80.54L147.36,76.79L152.81,47.02C160.77,33.63 173.15,29.74 188.75,32.59C206.20,35.78 213.71,46.91 209.92,67.65L206.28,87.56L184.52,83.58L179.11,113.14L233.10,123.01L238.50,93.45L219.21,89.92L225.22,57.08C232.54,17.05 223.54,2.46 198.70,-2.08C181.86,-5.16 167.34,0.04 159.11,12.53L171.91,-57.47L138.45,-63.58L131.88,-27.66L152.21,-23.94L134.22,74.38L113.90,70.67L108.50,100.23Z" fill="#ffffff" stroke="#000000"/>
    <path d="M-543.05,-291.49L-554.38,-238.60L-542.68,-236.09L-539.17,-252.44C-531.86,-239.26 -516.26,-228.32 -497.48,-224.29C-461.14,-216.51 -439.14,-226.58 -433.65,-252.22C-428.39,-275.79 -440.11,-294.98 -481.17,-307.37C-511.69,-316.65 -515.96,-324.32 -514.02,-333.41C-511.81,-343.70 -501.77,-352.11 -474.52,-346.27C-451.10,-341.26 -442.98,-330.86 -437.01,-323.25L-425.30,-320.74L-415.79,-365.15L-427.50,-367.66L-430.74,-352.52C-436.32,-364.91 -449.45,-376.59 -467.62,-380.48C-501.13,-387.66 -524.33,-372.99 -529.52,-348.76C-535.01,-323.13 -527.02,-306.21 -485.32,-293.90C-458.29,-286.00 -448.68,-275.70 -450.79,-265.81C-453.17,-254.71 -465.69,-248.52 -493.14,-254.40C-514.75,-259.03 -528.47,-273.80 -531.35,-288.98ZM-426.03,-199.06L-432.26,-169.99C-426.56,-168.99 -393.25,-161.85 -381.99,-159.23L-375.76,-188.30L-393.73,-192.15L-388.50,-216.57C-381.62,-204.33 -371.51,-197.31 -360.00,-194.84C-335.37,-189.57 -313.04,-203.15 -305.21,-239.69C-295.35,-285.72 -309.92,-304.47 -334.14,-309.66C-346.66,-312.34 -361.60,-309.63 -371.29,-296.92L-367.48,-314.69L-399.78,-321.61L-406.87,-288.50C-403.20,-287.92 -395.53,-286.28 -387.65,-284.59L-406.85,-194.96ZM-355.27,-220.86C-368.56,-223.91 -380.29,-230.23 -383.09,-241.81L-378.90,-261.39C-375.91,-275.32 -365.14,-281.25 -342.73,-276.45C-323.55,-272.34 -313.34,-260.86 -316.98,-243.90C-321.62,-221.25 -335.38,-216.17 -355.27,-220.86ZM-201.50,-163.00C-193.42,-161.27 -187.16,-162.89 -182.54,-166.75L-177.17,-191.79C-183.07,-186.93 -188.51,-186.19 -194.77,-187.53C-199.61,-188.57 -203.33,-191.90 -203.95,-196.89L-197.12,-228.79C-189.12,-266.13 -198.88,-280.68 -226.34,-286.56C-241.48,-289.81 -255.19,-287.89 -264.81,-280.45L-269.58,-254.23C-262.75,-259.52 -251.48,-262.81 -234.32,-259.14C-215.35,-255.07 -208.15,-245.30 -211.21,-226.10C-218.43,-233.77 -232.17,-238.62 -241.66,-240.65C-265.69,-245.80 -284.94,-235.77 -289.48,-214.58C-293.67,-194.99 -282.88,-178.32 -254.22,-172.18C-241.10,-169.37 -227.21,-172.10 -218.75,-178.10C-216.22,-170.17 -210.18,-164.86 -201.50,-163.00ZM-248.61,-197.38C-267.38,-201.40 -274.38,-208.17 -272.48,-217.06C-270.49,-226.34 -260.88,-229.78 -241.10,-225.54C-229.79,-223.12 -221.36,-218.14 -214.42,-210.11L-216.63,-199.81C-224.38,-195.14 -236.09,-194.69 -248.61,-197.38ZM-80.98,-160.83L-88.40,-177.42C-96.15,-167.88 -106.79,-165.52 -123.55,-169.11C-146.76,-174.08 -153.09,-190.85 -149.22,-207.97C-145.29,-225.28 -130.41,-232.65 -110.83,-228.46C-94.07,-224.87 -87.73,-218.02 -84.85,-209.80L-73.14,-207.29L-63.67,-251.51L-75.37,-254.01L-78.75,-238.27C-81.91,-250.13 -90.67,-257.50 -105.01,-260.57C-129.23,-265.76 -151.91,-253.52 -160.91,-211.53C-169.21,-172.77 -155.30,-150.99 -129.66,-145.50C-107.85,-140.83 -91.21,-146.56 -80.98,-160.83ZM24.81,-141.13L17.27,-152.25C9.68,-145.42 0.29,-143.00 -17.43,-147.01C-35.96,-151.19 -46.49,-160.20 -45.30,-178.53L32.62,-161.84C43.30,-211.70 29.44,-231.77 1.99,-237.65C-22.24,-242.84 -46.89,-231.23 -56.11,-188.23C-63.11,-155.53 -52.54,-128.98 -22.26,-122.49C-2.67,-118.30 14.86,-127.21 24.81,-141.13ZM-5.59,-207.18C15.00,-202.77 25.55,-189.95 22.92,-177.64L-42.49,-191.65C-36.38,-206.39 -20.73,-210.43 -5.59,-207.18ZM128.53,-121.65C133.33,-144.06 124.74,-155.19 96.47,-164.21C79.10,-169.83 74.02,-174.72 75.14,-179.96C76.74,-187.43 86.68,-191.43 101.82,-188.19C118.78,-184.55 124.04,-178.57 126.32,-170.48L135.81,-168.45L143.72,-205.39L134.23,-207.42L132.38,-198.74C126.33,-207.01 115.24,-213.39 104.14,-215.77C83.35,-220.23 66.01,-211.27 61.95,-192.29C56.85,-168.47 66.47,-158.18 92.15,-149.93C108.92,-144.44 115.41,-139.25 114.24,-133.79C112.77,-126.93 104.00,-122.47 85.83,-126.37C67.66,-130.26 65.75,-138.06 61.22,-147.48L52.13,-149.42L43.79,-110.46L52.87,-108.51L55.29,-119.82C60.27,-110.52 70.61,-102.60 83.93,-99.75C108.16,-94.56 124.64,-103.49 128.53,-121.65ZM199.84,-77.03L206.07,-106.10L185.88,-110.43L192.15,-139.70C200.43,-152.71 212.78,-156.18 228.13,-152.89C245.29,-149.22 252.38,-137.99 248.01,-117.60L243.82,-98.01L222.42,-102.60L216.19,-73.53L269.29,-62.15L275.51,-91.22L256.54,-95.29L263.46,-127.59C271.89,-166.96 263.42,-181.65 239.00,-186.88C222.44,-190.43 207.92,-185.73 199.41,-173.61L214.16,-242.45L181.25,-249.50L173.69,-214.17L193.67,-209.89L172.96,-113.19L152.97,-117.47L146.74,-88.40ZM358.49,-192.75C361.00,-204.45 355.54,-210.48 344.63,-212.82C332.52,-215.41 325.43,-211.86 322.96,-200.36C320.50,-188.85 325.79,-182.01 337.50,-179.51C348.00,-177.26 356.03,-181.24 358.49,-192.75ZM294.65,-86.91L288.42,-57.84C297.15,-56.19 305.42,-54.41 313.70,-52.64L320.77,-51.13C329.45,-49.27 338.08,-47.21 347.17,-45.26L353.40,-74.33L333.01,-78.70L349.74,-156.83L311.38,-165.04L304.29,-131.93L329.53,-126.53L319.88,-81.51ZM358.88,-30.93L352.65,-1.86C358.35,-0.85 391.66,6.29 402.92,8.91L409.15,-20.16L391.18,-24.01L396.41,-48.43C403.29,-36.19 413.40,-29.17 424.91,-26.71C449.54,-21.43 471.87,-35.02 479.70,-71.56C489.56,-117.58 474.99,-136.33 450.77,-141.52C438.25,-144.20 423.31,-141.49 413.62,-128.78L417.43,-146.55L385.13,-153.47L378.04,-120.36C381.71,-119.78 389.38,-118.14 397.26,-116.45L378.06,-26.82ZM429.63,-52.72C416.35,-55.78 404.62,-62.09 401.82,-73.67L406.01,-93.25C409.00,-107.18 419.77,-113.11 442.18,-108.31C461.35,-104.20 471.56,-92.72 467.93,-75.77C463.29,-53.11 449.53,-48.03 429.63,-52.72ZM-219.69,-12.55L-223.36,4.61L-288.37,-9.32L-280.45,-46.26L-235.23,-36.57L-239.08,-18.61L-229.39,-16.53L-219.49,-62.76L-229.18,-64.84L-232.81,-47.88L-278.03,-57.57L-270.81,-91.28L-207.22,-77.66L-210.63,-61.71L-198.92,-59.20L-187.72,-111.49L-295.53,-134.58L-303.31,-98.24L-285.14,-94.35L-302.70,-12.39L-320.87,-16.28L-327.10,12.79L-217.88,36.19L-207.98,-10.04ZM-106.04,60.14C-97.96,61.87 -91.70,60.26 -87.08,56.39L-81.71,31.36C-87.61,36.22 -93.05,36.96 -99.31,35.62C-104.15,34.58 -107.87,31.25 -108.49,26.26L-101.66,-5.64C-93.66,-42.99 -103.42,-57.54 -130.88,-63.42C-146.02,-66.66 -159.73,-64.74 -169.35,-57.30L-174.12,-31.08C-167.29,-36.38 -156.02,-39.67 -138.86,-35.99C-119.89,-31.92 -112.69,-22.15 -115.75,-2.96C-122.97,-10.63 -136.71,-15.47 -146.20,-17.50C-170.23,-22.65 -189.48,-12.63 -194.02,8.57C-198.21,28.15 -187.42,44.82 -158.76,50.96C-145.64,53.77 -131.75,51.05 -123.29,45.05C-120.76,52.98 -114.72,58.29 -106.04,60.14ZM-153.15,25.77C-171.92,21.75 -178.92,14.97 -177.02,6.09C-175.03,-3.20 -165.42,-6.63 -145.64,-2.39C-134.33,0.03 -125.90,5.00 -118.96,13.04L-121.17,23.33C-128.92,28.00 -140.63,28.45 -153.15,25.77ZM-69.01,38.09L-75.24,67.17C-69.54,68.17 -36.23,75.31 -24.97,77.93L-18.74,48.86L-36.91,44.97L-30.73,16.10C-27.70,1.97 -18.75,-4.35 -8.85,-2.23C0.23,-0.28 4.60,2.98 5.90,8.75L20.75,-23.12C16.45,-28.69 12.46,-32.71 2.77,-34.79C-5.51,-36.56 -16.81,-33.07 -24.05,-21.95L-27.54,-39.17L-51.37,-44.27L-58.46,-11.16C-53.61,-10.13 -47.92,-9.12 -39.68,-7.14L-50.23,42.12ZM82.43,89.12L81.35,67.56C77.34,70.50 69.87,71.86 61.43,69.84C51.59,67.52 45.80,61.00 48.92,46.46L55.92,13.76L86.20,20.25L92.95,-11.25L62.67,-17.73L68.29,-43.98L55.17,-46.79L49.55,-20.54L33.60,-23.96L26.85,7.53L42.80,10.95L32.81,57.58C27.58,82.01 37.27,92.95 53.01,96.33C64.52,98.79 77.07,96.41 82.43,89.12ZM151.36,115.28L157.59,86.21L137.40,81.89L143.67,52.61C151.94,39.61 164.30,36.13 179.65,39.42C196.81,43.09 203.90,54.33 199.53,74.72L195.34,94.30L173.94,89.71L167.71,118.79L220.81,130.16L227.03,101.09L208.06,97.02L214.98,64.72C223.41,25.36 214.94,10.66 190.52,5.43C173.96,1.88 159.44,6.59 150.93,18.70L165.68,-50.14L132.77,-57.19L125.21,-21.86L145.19,-17.58L124.48,79.12L104.49,74.84L98.26,103.91Z" fill="#ffffff" stroke="#000000"/>
    <path d="M-534.30,-303.05L-547.08,-251.09L-535.58,-248.26L-531.63,-264.33C-524.79,-251.08 -509.69,-239.79 -491.24,-235.25C-455.54,-226.47 -433.48,-235.77 -427.29,-260.96C-421.38,-284.11 -432.41,-303.44 -472.63,-316.91C-502.54,-327.00 -506.53,-334.71 -504.34,-343.64C-501.85,-353.75 -491.67,-361.77 -464.90,-355.18C-441.89,-349.52 -434.18,-339.00 -428.50,-331.30L-417.00,-328.47L-406.26,-372.10L-417.77,-374.93L-421.43,-360.05C-426.58,-372.47 -439.20,-384.41 -457.05,-388.80C-489.97,-396.89 -513.35,-383.08 -519.21,-359.28C-525.40,-334.10 -518.01,-317.13 -477.14,-303.72C-450.65,-295.10 -441.45,-284.63 -443.84,-274.91C-446.52,-264.01 -459.08,-258.26 -486.05,-264.90C-507.28,-270.12 -520.41,-285.12 -522.80,-300.22ZM-421.34,-208.18L-428.37,-179.62C-422.77,-178.45 -390.04,-170.40 -378.98,-167.47L-371.96,-196.03L-389.61,-200.37L-383.71,-224.37C-377.27,-212.06 -367.48,-204.81 -356.18,-202.03C-331.98,-196.08 -309.49,-208.85 -300.66,-244.75C-289.54,-289.97 -303.39,-308.94 -327.18,-314.79C-339.48,-317.81 -354.33,-315.58 -364.29,-303.30L-360.00,-320.76L-391.73,-328.56L-399.73,-296.04C-396.11,-295.36 -388.58,-293.50 -380.84,-291.60L-402.50,-203.54ZM-350.73,-227.62C-363.77,-231.03 -375.19,-237.63 -377.61,-249.16L-372.88,-268.40C-369.51,-282.08 -358.69,-287.62 -336.67,-282.21C-317.83,-277.57 -308.08,-265.92 -312.17,-249.26C-317.44,-227.00 -331.19,-222.39 -350.73,-227.62ZM-200.40,-165.82C-192.47,-163.87 -186.23,-165.28 -181.54,-168.97L-175.49,-193.56C-181.47,-188.93 -186.86,-188.36 -193.01,-189.88C-197.77,-191.05 -201.35,-194.45 -201.82,-199.40L-194.11,-230.74C-185.08,-267.43 -194.30,-282.11 -221.28,-288.74C-236.15,-292.40 -249.77,-290.91 -259.50,-283.84L-265.00,-258.06C-258.08,-263.09 -246.85,-266.01 -229.99,-261.86C-211.35,-257.27 -204.52,-247.39 -208.12,-228.51C-215.03,-236.31 -228.48,-241.51 -237.80,-243.80C-261.40,-249.60 -280.73,-240.27 -285.86,-219.44C-290.59,-200.20 -280.42,-183.40 -252.26,-176.47C-239.36,-173.30 -225.55,-175.58 -217.00,-181.26C-214.74,-173.35 -208.93,-167.92 -200.40,-165.82ZM-245.96,-201.22C-264.40,-205.75 -271.12,-212.66 -268.97,-221.39C-266.73,-230.51 -257.13,-233.62 -237.69,-228.84C-226.59,-226.11 -218.39,-220.94 -211.77,-212.79L-214.26,-202.67C-222.07,-198.29 -233.66,-198.19 -245.96,-201.22ZM-81.29,-160.08L-88.14,-176.70C-96.08,-167.51 -106.68,-165.49 -123.14,-169.53C-145.95,-175.14 -151.71,-191.92 -147.36,-208.72C-142.97,-225.73 -128.03,-232.58 -108.80,-227.84C-92.34,-223.79 -86.27,-216.83 -83.66,-208.62L-72.16,-205.79L-61.47,-249.22L-72.98,-252.05L-76.78,-236.58C-79.55,-248.41 -88.00,-255.96 -102.08,-259.42C-125.88,-265.28 -148.67,-253.85 -158.82,-212.59C-168.19,-174.51 -155.07,-152.57 -129.89,-146.38C-108.47,-141.11 -91.84,-146.27 -81.29,-160.08ZM22.72,-137.45L15.59,-148.66C7.89,-142.14 -1.46,-140.03 -18.87,-144.52C-37.07,-149.21 -47.21,-158.43 -45.49,-176.52L31.06,-157.69C43.11,-206.68 30.01,-226.94 3.03,-233.57C-20.77,-239.42 -45.49,-228.68 -55.88,-186.43C-63.79,-154.31 -54.12,-127.74 -24.37,-120.42C-5.14,-115.69 12.47,-123.98 22.72,-137.45ZM-5.37,-203.67C14.86,-198.69 24.91,-185.70 21.94,-173.60L-42.32,-189.41C-35.84,-203.80 -20.25,-207.33 -5.37,-203.67ZM124.70,-115.10C130.11,-137.11 121.95,-148.38 94.27,-158.13C77.25,-164.20 72.38,-169.19 73.65,-174.35C75.45,-181.68 85.40,-185.34 100.27,-181.68C116.93,-177.58 121.96,-171.51 123.97,-163.44L133.29,-161.15L142.22,-197.44L132.90,-199.74L130.80,-191.21C125.07,-199.56 114.30,-206.20 103.39,-208.89C82.96,-213.91 65.56,-205.57 60.97,-186.93C55.21,-163.53 64.42,-153.06 89.57,-144.14C105.99,-138.21 112.25,-132.88 110.93,-127.53C109.27,-120.78 100.47,-116.64 82.62,-121.03C64.77,-125.42 63.11,-133.19 58.91,-142.64L49.98,-144.83L40.57,-106.55L49.49,-104.36L52.23,-115.47C56.87,-106.12 66.86,-97.99 79.95,-94.77C103.75,-88.91 120.31,-97.25 124.70,-115.10ZM193.88,-68.85L200.90,-97.41L181.07,-102.28L188.14,-131.04C196.71,-143.66 209.04,-146.73 224.11,-143.02C240.97,-138.87 247.65,-127.55 242.72,-107.52L237.99,-88.28L216.97,-93.45L209.94,-64.90L262.10,-52.07L269.13,-80.63L250.48,-85.21L258.29,-116.94C267.80,-155.62 259.87,-170.40 235.87,-176.30C219.61,-180.30 205.11,-176.09 196.34,-164.36L212.97,-231.99L180.64,-239.94L172.11,-205.24L191.74,-200.41L168.38,-105.41L148.74,-110.24L141.72,-81.68ZM354.20,-178.54C357.03,-190.04 351.81,-196.16 341.10,-198.79C329.20,-201.72 322.08,-198.43 319.30,-187.12C316.52,-175.82 321.55,-168.90 333.05,-166.07C343.36,-163.53 351.42,-167.23 354.20,-178.54ZM287.92,-75.79L280.90,-47.23C289.47,-45.33 297.60,-43.33 305.74,-41.33L312.68,-39.63C321.21,-37.53 329.68,-35.23 338.61,-33.04L345.63,-61.60L325.60,-66.52L344.48,-143.28L306.80,-152.55L298.80,-120.02L323.59,-113.92L312.71,-69.70ZM349.76,-18.52L342.74,10.04C348.34,11.21 381.06,19.26 392.12,22.19L399.14,-6.37L381.49,-10.71L387.40,-34.71C393.83,-22.40 403.62,-15.16 414.92,-12.38C439.12,-6.42 461.61,-19.19 470.44,-55.09C481.56,-100.31 467.72,-119.28 443.92,-125.13C431.62,-128.15 416.77,-125.92 406.81,-113.65L411.10,-131.10L379.37,-138.90L371.37,-106.38C374.99,-105.70 382.53,-103.84 390.26,-101.94L368.60,-13.88ZM420.37,-37.96C407.33,-41.37 395.92,-47.97 393.49,-59.50L398.23,-78.74C401.59,-92.42 412.42,-97.96 434.43,-92.55C453.27,-87.92 463.03,-76.26 458.93,-59.60C453.66,-37.34 439.91,-32.73 420.37,-37.96ZM-222.87,-17.60L-227.02,-0.74L-290.88,-16.45L-281.95,-52.74L-237.53,-41.82L-241.87,-24.17L-232.35,-21.82L-221.18,-67.24L-230.70,-69.58L-234.79,-52.92L-279.22,-63.85L-271.07,-96.97L-208.60,-81.61L-212.45,-65.94L-200.95,-63.11L-188.32,-114.48L-294.22,-140.52L-303.00,-104.82L-285.15,-100.43L-304.96,-19.91L-322.81,-24.30L-329.83,4.26L-222.54,30.65L-211.37,-14.77ZM-112.66,57.67C-104.73,59.62 -98.49,58.21 -93.80,54.53L-87.75,29.94C-93.73,34.56 -99.13,35.13 -105.27,33.62C-110.03,32.45 -113.61,29.04 -114.08,24.09L-106.37,-7.24C-97.35,-43.94 -106.57,-58.61 -133.54,-65.25C-148.41,-68.91 -162.03,-67.42 -171.76,-60.35L-177.26,-34.57C-170.35,-39.60 -159.11,-42.51 -142.26,-38.37C-123.61,-33.78 -116.79,-23.90 -120.38,-5.01C-127.30,-12.81 -140.74,-18.01 -150.06,-20.30C-173.66,-26.11 -193.00,-16.77 -198.12,4.05C-202.85,23.29 -192.68,40.09 -164.52,47.02C-151.63,50.19 -137.82,47.91 -129.27,42.23C-127.01,50.15 -121.19,55.57 -112.66,57.67ZM-158.22,22.28C-176.67,17.74 -183.38,10.83 -181.23,2.11C-178.99,-7.02 -169.39,-10.13 -149.96,-5.35C-138.85,-2.61 -130.66,2.56 -124.04,10.70L-126.52,20.82C-134.33,25.21 -145.93,25.30 -158.22,22.28ZM-75.39,36.97L-82.42,65.53C-76.81,66.70 -44.09,74.75 -33.03,77.68L-26.01,49.12L-43.86,44.73L-36.88,16.37C-33.47,2.48 -24.43,-3.49 -14.71,-1.10C-5.78,1.09 -1.56,4.44 -0.45,10.18L15.19,-20.88C11.10,-26.52 7.27,-30.61 -2.25,-32.95C-10.38,-34.95 -21.66,-31.84 -29.15,-21.06L-32.09,-38.19L-55.49,-43.95L-63.49,-11.42C-58.73,-10.25 -53.13,-9.08 -45.04,-6.88L-56.95,41.51ZM72.83,91.94L72.40,70.59C68.35,73.38 60.92,74.50 52.64,72.25C42.97,69.66 37.45,63.04 40.96,48.76L48.87,16.63L78.61,23.95L86.22,-6.99L56.48,-14.30L62.82,-40.09L49.93,-43.26L43.58,-17.48L27.92,-21.33L20.31,9.61L35.97,13.46L24.71,59.28C18.80,83.28 28.06,94.39 43.53,98.19C54.83,100.97 67.31,98.99 72.83,91.94ZM140.21,119.87L147.23,91.31L127.40,86.43L134.47,57.67C143.04,45.06 155.37,41.99 170.44,45.70C187.30,49.84 193.98,61.16 189.05,81.19L184.32,100.43L163.30,95.26L156.27,123.82L208.43,136.65L215.46,108.09L196.81,103.50L204.62,71.77C214.13,33.10 206.20,18.31 182.20,12.41C165.94,8.41 151.44,12.63 142.67,24.35L159.30,-43.28L126.97,-51.23L118.44,-16.52L138.07,-11.69L114.70,83.31L95.07,78.48L88.05,107.04Z" fill="#ffffff" stroke="#000000"/>
    <path d="M-525.21,-314.39L-539.39,-263.39L-528.10,-260.25L-523.72,-276.02C-517.35,-262.71 -502.76,-251.11 -484.66,-246.07C-449.63,-236.32 -427.54,-244.86 -420.66,-269.58C-414.14,-292.30 -424.46,-311.73 -463.82,-326.25C-493.09,-337.12 -496.81,-344.86 -494.37,-353.62C-491.61,-363.54 -481.31,-371.16 -455.04,-363.85C-432.46,-357.57 -425.15,-346.94 -419.76,-339.15L-408.47,-336.01L-396.56,-378.83L-407.85,-381.97L-411.91,-367.38C-416.63,-379.80 -428.76,-391.98 -446.28,-396.86C-478.59,-405.84 -502.11,-392.89 -508.61,-369.53C-515.49,-344.81 -508.68,-327.82 -468.67,-313.34C-442.74,-304.03 -433.96,-293.41 -436.61,-283.87C-439.59,-273.16 -452.18,-267.86 -478.65,-275.22C-499.47,-281.02 -512.01,-296.25 -513.92,-311.25ZM-416.36,-217.22L-424.16,-189.19C-418.65,-187.87 -386.54,-178.93 -375.69,-175.71L-367.90,-203.73L-385.22,-208.55L-378.67,-232.10C-372.67,-219.74 -363.21,-212.29 -352.12,-209.20C-328.37,-202.59 -305.76,-214.55 -295.96,-249.77C-283.61,-294.15 -296.73,-313.32 -320.09,-319.81C-332.16,-323.17 -346.91,-321.40 -357.12,-309.57L-352.35,-326.69L-383.49,-335.36L-392.37,-303.44C-388.82,-302.66 -381.42,-300.60 -373.83,-298.49L-397.87,-212.07ZM-345.96,-234.33C-358.76,-238.10 -369.85,-244.96 -371.90,-256.43L-366.65,-275.31C-362.91,-288.74 -352.04,-293.89 -330.44,-287.88C-311.95,-282.74 -302.65,-270.93 -307.20,-254.58C-313.07,-232.73 -326.80,-228.58 -345.96,-234.33ZM-199.18,-168.75C-191.39,-166.59 -185.19,-167.80 -180.44,-171.30L-173.72,-195.43C-179.77,-191.03 -185.12,-190.64 -191.16,-192.31C-195.83,-193.61 -199.27,-197.09 -199.58,-202.00L-191.02,-232.75C-181.01,-268.75 -189.69,-283.54 -216.16,-290.90C-230.75,-294.96 -244.26,-293.90 -254.09,-287.20L-260.30,-261.87C-253.31,-266.64 -242.12,-269.19 -225.57,-264.59C-207.28,-259.50 -200.83,-249.52 -204.94,-230.96C-211.55,-238.88 -224.68,-244.42 -233.83,-246.96C-256.99,-253.40 -276.38,-244.75 -282.07,-224.31C-287.32,-205.43 -277.77,-188.52 -250.13,-180.83C-237.48,-177.31 -223.76,-179.15 -215.14,-184.52C-213.14,-176.62 -207.55,-171.08 -199.18,-168.75ZM-243.17,-205.10C-261.27,-210.14 -267.70,-217.17 -265.32,-225.73C-262.83,-234.69 -253.25,-237.47 -234.17,-232.17C-223.27,-229.14 -215.33,-223.78 -209.02,-215.53L-211.79,-205.60C-219.64,-201.49 -231.10,-201.75 -243.17,-205.10ZM-81.59,-159.53L-87.87,-176.16C-95.99,-167.31 -106.53,-165.63 -122.68,-170.12C-145.06,-176.35 -150.26,-193.10 -145.46,-209.59C-140.61,-226.27 -125.64,-232.59 -106.76,-227.34C-90.61,-222.85 -84.82,-215.78 -82.48,-207.59L-71.20,-204.45L-59.34,-247.07L-70.63,-250.21L-74.85,-235.03C-77.24,-246.81 -85.36,-254.52 -99.18,-258.36C-122.54,-264.86 -145.41,-254.24 -156.68,-213.76C-167.07,-176.39 -154.76,-154.30 -130.04,-147.42C-109.02,-141.58 -92.43,-146.19 -81.59,-159.53ZM20.57,-134.05L13.86,-145.35C6.05,-139.13 -3.27,-137.32 -20.34,-142.28C-38.19,-147.46 -47.94,-156.88 -45.71,-174.71L29.42,-153.81C42.79,-201.88 30.44,-222.31 3.97,-229.67C-19.38,-236.17 -44.15,-226.28 -55.68,-184.82C-64.46,-153.29 -55.70,-126.74 -26.50,-118.62C-7.62,-113.37 10.03,-121.04 20.57,-134.05ZM-5.23,-200.36C14.62,-194.83 24.17,-181.69 20.87,-169.82L-42.19,-187.36C-35.35,-201.39 -19.83,-204.42 -5.23,-200.36ZM120.73,-108.91C126.74,-130.51 119.00,-141.89 91.92,-152.36C75.28,-158.88 70.61,-163.95 72.02,-169.01C74.02,-176.21 83.96,-179.53 98.56,-175.47C114.91,-170.92 119.70,-164.76 121.45,-156.73L130.60,-154.18L140.50,-189.80L131.36,-192.35L129.03,-183.98C123.61,-192.40 113.16,-199.30 102.45,-202.27C82.41,-207.85 64.95,-200.12 59.86,-181.83C53.47,-158.86 62.26,-148.24 86.86,-138.67C102.91,-132.32 108.95,-126.87 107.48,-121.61C105.64,-114.99 96.82,-111.16 79.30,-116.03C61.78,-120.90 60.37,-128.64 56.50,-138.10L47.74,-140.54L37.30,-102.97L46.05,-100.54L49.09,-111.43C53.40,-102.06 63.03,-93.72 75.87,-90.14C99.23,-83.65 115.85,-91.39 120.73,-108.91ZM187.74,-61.12L195.54,-89.15L176.08,-94.56L183.93,-122.78C192.78,-135.00 205.05,-137.67 219.85,-133.55C236.39,-128.95 242.66,-117.56 237.19,-97.90L231.94,-79.02L211.31,-84.76L203.51,-56.73L254.70,-42.50L262.49,-70.52L244.20,-75.61L252.86,-106.75C263.42,-144.71 256.02,-159.56 232.47,-166.11C216.51,-170.55 202.05,-166.81 193.02,-155.48L211.49,-221.85L179.76,-230.67L170.29,-196.61L189.56,-191.25L163.62,-98.03L144.35,-103.39L136.56,-75.36ZM349.53,-164.79C352.67,-176.08 347.68,-182.28 337.17,-185.21C325.50,-188.46 318.36,-185.41 315.27,-174.32C312.19,-163.22 316.95,-156.23 328.24,-153.09C338.36,-150.28 346.44,-153.69 349.53,-164.79ZM280.93,-65.18L273.13,-37.16C281.56,-35.02 289.54,-32.80 297.52,-30.58L304.33,-28.69C312.70,-26.36 321.01,-23.84 329.77,-21.40L337.57,-49.43L317.91,-54.90L338.86,-130.22L301.88,-140.51L293.00,-108.59L317.33,-101.82L305.26,-58.42ZM340.36,-6.71L332.57,21.31C338.07,22.63 370.18,31.57 381.03,34.79L388.82,6.77L371.50,1.95L378.05,-21.60C384.05,-9.24 393.51,-1.78 404.60,1.30C428.35,7.91 450.97,-4.04 460.77,-39.27C473.11,-83.65 459.99,-102.82 436.63,-109.31C424.57,-112.67 409.82,-110.90 399.60,-99.06L404.37,-116.19L373.23,-124.85L364.35,-92.93C367.90,-92.15 375.30,-90.10 382.89,-87.99L358.85,-1.57ZM410.76,-23.83C397.96,-27.60 386.87,-34.46 384.82,-45.93L390.07,-64.81C393.81,-78.24 404.68,-83.39 426.28,-77.38C444.77,-72.24 454.07,-60.43 449.52,-44.08C443.65,-22.23 429.92,-18.08 410.76,-23.83ZM-225.81,-22.88L-230.42,-6.34L-293.09,-23.77L-283.18,-59.39L-239.58,-47.26L-244.40,-29.94L-235.06,-27.34L-222.66,-71.91L-232.00,-74.51L-236.55,-58.16L-280.15,-70.29L-271.11,-102.79L-209.80,-85.73L-214.07,-70.36L-202.79,-67.22L-188.76,-117.63L-292.70,-146.54L-302.44,-111.51L-284.92,-106.63L-306.91,-27.61L-324.42,-32.49L-332.22,-4.46L-226.92,24.83L-214.53,-19.74ZM-119.10,54.83C-111.31,56.99 -105.11,55.78 -100.36,52.28L-93.64,28.15C-99.69,32.55 -105.04,32.94 -111.08,31.27C-115.75,29.97 -119.19,26.49 -119.50,21.58L-110.94,-9.17C-100.93,-45.17 -109.61,-59.96 -136.08,-67.32C-150.67,-71.38 -164.18,-70.32 -174.01,-63.62L-180.22,-38.29C-173.23,-43.06 -162.04,-45.61 -145.49,-41.01C-127.20,-35.92 -120.75,-25.94 -124.86,-7.38C-131.47,-15.30 -144.60,-20.84 -153.75,-23.38C-176.91,-29.82 -196.30,-21.17 -201.99,-0.73C-207.24,18.15 -197.69,35.06 -170.05,42.75C-157.40,46.27 -143.68,44.42 -135.05,39.06C-133.06,46.96 -127.47,52.50 -119.10,54.83ZM-163.09,18.48C-181.19,13.44 -187.62,6.41 -185.24,-2.16C-182.75,-11.11 -173.16,-13.89 -154.09,-8.59C-143.19,-5.56 -135.25,-0.20 -128.94,8.05L-131.71,17.98C-139.56,22.08 -151.02,21.83 -163.09,18.48ZM-81.63,35.47L-89.43,63.50C-83.93,64.82 -51.81,73.75 -40.97,76.98L-33.17,48.95L-50.69,44.08L-42.94,16.25C-39.15,2.62 -30.04,-3.02 -20.50,-0.36C-11.74,2.07 -7.67,5.51 -6.74,11.22L9.65,-19.03C5.78,-24.72 2.11,-28.88 -7.23,-31.48C-15.21,-33.70 -26.46,-30.96 -34.18,-20.53L-36.58,-37.55L-59.54,-43.94L-68.42,-12.02C-63.75,-10.72 -58.25,-9.40 -50.32,-6.98L-63.53,40.51ZM63.27,94.23L63.49,73.12C59.40,75.75 52.02,76.64 43.90,74.17C34.42,71.32 29.16,64.61 33.05,50.60L41.82,19.07L71.02,27.19L79.47,-3.17L50.27,-11.29L57.31,-36.59L44.66,-40.11L37.62,-14.81L22.24,-19.09L13.80,11.27L29.17,15.55L16.67,60.51C10.12,84.06 18.94,95.32 34.12,99.54C45.21,102.63 57.60,101.05 63.27,94.23ZM129.05,123.86L136.85,95.83L117.39,90.42L125.24,62.19C134.09,49.98 146.36,47.31 161.15,51.43C177.70,56.03 183.97,67.42 178.50,87.08L173.25,105.95L152.62,100.22L144.82,128.24L196.01,142.48L203.80,114.45L185.51,109.37L194.17,78.22C204.73,40.27 197.33,25.42 173.78,18.87C157.82,14.43 143.36,18.17 134.33,29.50L152.80,-36.87L121.07,-45.70L111.60,-11.64L130.86,-6.28L104.93,86.95L85.66,81.59L77.87,109.62Z" fill="#ffffff" stroke="#000000"/>
    <path d="M-515.79,-325.47L-531.33,-275.48L-520.26,-272.04L-515.46,-287.50C-509.56,-274.16 -495.48,-262.25 -477.74,-256.73C-443.40,-246.05 -421.31,-253.83 -413.78,-278.06C-406.64,-300.32 -416.27,-319.84 -454.75,-335.37C-483.36,-346.98 -486.81,-354.75 -484.14,-363.34C-481.11,-373.07 -470.70,-380.29 -444.95,-372.28C-422.81,-365.40 -415.90,-354.67 -410.81,-346.81L-399.74,-343.37L-386.69,-385.35L-397.76,-388.79L-402.21,-374.48C-406.50,-386.90 -418.13,-399.31 -435.30,-404.65C-466.97,-414.49 -490.62,-402.39 -497.73,-379.49C-505.27,-355.26 -499.05,-338.26 -459.93,-322.75C-434.58,-312.77 -426.20,-302.01 -429.11,-292.66C-432.37,-282.17 -444.98,-277.30 -470.93,-285.37C-491.34,-291.72 -503.28,-307.15 -504.72,-322.03ZM-411.08,-226.17L-419.62,-198.69C-414.22,-197.22 -382.74,-187.44 -372.12,-183.92L-363.57,-211.40L-380.55,-216.68L-373.37,-239.76C-367.81,-227.36 -358.69,-219.71 -347.81,-216.33C-324.53,-209.09 -301.82,-220.23 -291.08,-254.77C-277.56,-298.27 -289.96,-317.60 -312.85,-324.72C-324.68,-328.40 -339.31,-327.09 -349.76,-315.70L-344.54,-332.48L-375.07,-341.98L-384.80,-310.69C-381.30,-309.81 -374.05,-307.56 -366.61,-305.24L-392.95,-220.53ZM-340.98,-240.99C-353.51,-245.09 -364.27,-252.21 -365.96,-263.61L-360.20,-282.12C-356.11,-295.28 -345.21,-300.05 -324.03,-293.47C-305.91,-287.83 -297.07,-275.88 -302.06,-259.85C-308.51,-238.42 -322.21,-234.73 -340.98,-240.99ZM-197.83,-171.79C-190.20,-169.41 -184.02,-170.42 -179.23,-173.74L-171.87,-197.40C-177.98,-193.23 -183.28,-193.00 -189.20,-194.84C-193.78,-196.26 -197.07,-199.80 -197.23,-204.66L-187.86,-234.80C-176.88,-270.10 -185.02,-284.98 -210.97,-293.04C-225.28,-297.49 -238.66,-296.84 -248.58,-290.51L-255.47,-265.66C-248.42,-270.17 -237.28,-272.35 -221.06,-267.31C-203.13,-261.73 -197.05,-251.68 -201.67,-233.45C-207.96,-241.47 -220.79,-247.34 -229.75,-250.13C-252.46,-257.19 -271.89,-249.21 -278.11,-229.18C-283.87,-210.67 -274.93,-193.67 -247.84,-185.24C-235.44,-181.39 -221.81,-182.80 -213.13,-187.84C-211.39,-179.98 -206.03,-174.34 -197.83,-171.79ZM-240.23,-209.03C-257.97,-214.55 -264.12,-221.69 -261.51,-230.09C-258.78,-238.86 -249.23,-241.33 -230.53,-235.52C-219.85,-232.20 -212.15,-226.66 -206.17,-218.32L-209.19,-208.59C-217.08,-204.76 -228.40,-205.35 -240.23,-209.03ZM-81.86,-159.16L-87.57,-175.79C-95.87,-167.28 -106.33,-165.93 -122.17,-170.86C-144.11,-177.68 -148.74,-194.39 -143.51,-210.55C-138.22,-226.90 -123.23,-232.70 -104.72,-226.95C-88.89,-222.02 -83.37,-214.87 -81.31,-206.70L-70.24,-203.25L-57.25,-245.04L-68.32,-248.48L-72.95,-233.60C-74.95,-245.31 -82.76,-253.18 -96.30,-257.39C-119.20,-264.51 -142.13,-254.69 -154.47,-215.01C-165.86,-178.37 -154.35,-156.17 -130.12,-148.64C-109.51,-142.23 -92.98,-146.30 -81.86,-159.16ZM18.37,-130.92L12.07,-142.30C4.17,-136.39 -5.09,-134.87 -21.82,-140.28C-39.32,-145.93 -48.67,-155.54 -45.93,-173.10L27.71,-150.20C42.36,-197.32 30.76,-217.88 4.81,-225.95C-18.08,-233.07 -42.86,-224.03 -55.50,-183.39C-65.11,-152.49 -57.24,-125.98 -28.62,-117.08C-10.11,-111.33 7.56,-118.38 18.37,-130.92ZM-5.16,-197.24C14.30,-191.19 23.36,-177.92 19.74,-166.28L-42.08,-185.50C-34.90,-199.17 -19.47,-201.69 -5.16,-197.24ZM116.63,-103.09C123.22,-124.27 115.91,-135.75 89.46,-146.90C73.20,-153.84 68.74,-158.99 70.28,-163.95C72.47,-171.01 82.40,-174.00 96.71,-169.55C112.73,-164.56 117.28,-158.34 118.77,-150.34L127.74,-147.55L138.60,-182.47L129.63,-185.26L127.08,-177.05C121.98,-185.54 111.85,-192.67 101.35,-195.93C81.70,-202.04 64.21,-194.92 58.64,-176.99C51.64,-154.48 60.01,-143.71 84.04,-133.52C99.72,-126.76 105.52,-121.19 103.92,-116.04C101.91,-109.55 93.07,-106.02 75.90,-111.36C58.72,-116.70 57.56,-124.39 54.02,-133.86L45.43,-136.53L33.98,-99.71L42.57,-97.04L45.89,-107.72C49.87,-98.32 59.14,-89.79 71.74,-85.88C94.63,-78.76 111.30,-85.92 116.63,-103.09ZM181.46,-53.85L190.00,-81.32L170.92,-87.26L179.53,-114.92C188.64,-126.73 200.85,-129.00 215.35,-124.49C231.57,-119.45 237.43,-108.01 231.44,-88.74L225.68,-70.23L205.46,-76.52L196.91,-49.04L247.09,-33.44L255.64,-60.92L237.70,-66.49L247.19,-97.02C258.76,-134.22 251.89,-149.12 228.80,-156.30C213.16,-161.17 198.75,-157.90 189.49,-146.97L209.72,-212.03L178.62,-221.70L168.24,-188.31L187.13,-182.44L158.71,-91.05L139.83,-96.93L131.28,-69.45ZM344.48,-151.51C347.92,-162.57 343.18,-168.86 332.88,-172.06C321.43,-175.62 314.28,-172.82 310.90,-161.95C307.52,-151.07 312.03,-144.02 323.09,-140.58C333.01,-137.50 341.10,-140.63 344.48,-151.51ZM273.70,-55.09L265.16,-27.62C273.42,-25.26 281.24,-22.82 289.07,-20.39L295.74,-18.31C303.95,-15.76 312.09,-13.02 320.68,-10.35L329.22,-37.83L309.95,-43.82L332.91,-117.65L296.66,-128.92L286.93,-97.64L310.78,-90.22L297.55,-47.67ZM330.71,4.48L322.17,31.96C327.57,33.43 359.05,43.22 369.67,46.73L378.22,19.26L361.24,13.98L368.42,-9.11C373.98,3.29 383.10,10.94 393.98,14.32C417.26,21.56 439.97,10.42 450.71,-24.11C464.23,-67.61 451.83,-86.95 428.94,-94.07C417.11,-97.75 402.48,-96.44 392.03,-85.04L397.25,-101.83L366.72,-111.32L356.99,-80.04C360.49,-79.16 367.74,-76.90 375.18,-74.59L348.84,10.12ZM400.81,-10.33C388.28,-14.44 377.52,-21.55 375.83,-32.96L381.59,-51.46C385.68,-64.63 396.58,-69.40 417.76,-62.81C435.88,-57.18 444.72,-45.22 439.73,-29.20C433.28,-7.77 419.58,-4.08 400.81,-10.33ZM-228.51,-28.37L-233.55,-12.16L-294.98,-31.26L-284.13,-66.17L-241.39,-52.88L-246.67,-35.90L-237.51,-33.06L-223.93,-76.75L-233.09,-79.60L-238.07,-63.57L-280.81,-76.86L-270.90,-108.72L-210.80,-90.03L-215.49,-74.96L-204.42,-71.52L-189.06,-120.93L-290.94,-152.61L-301.62,-118.27L-284.44,-112.93L-308.53,-35.47L-325.70,-40.81L-334.24,-13.34L-231.03,18.76L-217.44,-24.93ZM-125.33,51.62C-117.70,54.00 -111.53,52.99 -106.73,49.67L-99.37,26.01C-105.48,30.18 -110.78,30.41 -116.70,28.57C-121.28,27.15 -124.57,23.61 -124.73,18.75L-115.36,-11.39C-104.38,-46.69 -112.52,-61.57 -138.47,-69.63C-152.78,-74.08 -166.16,-73.43 -176.08,-67.10L-182.97,-42.25C-175.92,-46.76 -164.78,-48.94 -148.56,-43.90C-130.63,-38.32 -124.55,-28.27 -129.17,-10.04C-135.46,-18.06 -148.29,-23.93 -157.25,-26.72C-179.96,-33.78 -199.39,-25.80 -205.61,-5.77C-211.37,12.73 -202.43,29.74 -175.34,38.17C-162.94,42.02 -149.31,40.61 -140.63,35.57C-138.89,43.43 -133.53,49.07 -125.33,51.62ZM-167.73,14.38C-185.47,8.86 -191.62,1.72 -189.01,-6.68C-186.28,-15.45 -176.73,-17.92 -158.03,-12.11C-147.35,-8.79 -139.65,-3.26 -133.67,5.09L-136.69,14.82C-144.58,18.65 -155.90,18.06 -167.73,14.38ZM-87.71,33.61L-96.26,61.08C-90.86,62.55 -59.38,72.34 -48.75,75.85L-40.21,48.38L-57.38,43.04L-48.90,15.76C-44.74,2.40 -35.56,-2.90 -26.21,0.00C-17.63,2.67 -13.70,6.20 -12.95,11.87L4.14,-17.55C0.49,-23.29 -3.01,-27.51 -12.17,-30.36C-19.99,-32.79 -31.19,-30.42 -39.14,-20.34L-41.00,-37.23L-63.51,-44.23L-73.24,-12.94C-68.66,-11.52 -63.26,-10.05 -55.50,-7.43L-69.97,39.13ZM53.78,96.02L54.62,75.15C50.50,77.63 43.18,78.29 35.23,75.60C25.94,72.51 20.94,65.72 25.21,51.98L34.82,21.07L63.44,29.97L72.69,0.21L44.07,-8.69L51.79,-33.49L39.38,-37.35L31.67,-12.55L16.60,-17.23L7.35,12.53L22.42,17.22L8.71,61.29C1.54,84.38 9.92,95.77 24.80,100.40C35.68,103.78 47.97,102.58 53.78,96.02ZM117.93,127.26L126.47,99.79L107.39,93.86L115.99,66.19C125.11,54.38 137.32,52.11 151.82,56.62C168.04,61.66 173.89,73.11 167.90,92.38L162.15,110.88L141.92,104.59L133.38,132.07L183.56,147.67L192.10,120.20L174.17,114.62L183.66,84.09C195.23,46.89 188.35,31.99 165.27,24.81C149.62,19.95 135.22,23.21 125.96,34.14L146.19,-30.92L115.09,-40.59L104.71,-7.20L123.60,-1.33L95.18,90.06L76.29,84.19L67.75,111.66Z" fill="#ffffff" stroke="#000000"/>
    <path d="M-910.72,482.04L-910.72,492L-908.52,492L-908.52,488.92C-906.69,491.01 -903.46,492.38 -899.93,492.38C-893.09,492.38 -889.52,489.72 -889.52,484.89C-889.48,480.45 -892.33,477.45 -900.19,476.80C-906.05,476.31 -907.11,475.09 -907.11,473.38C-907.11,471.44 -905.63,469.54 -900.50,469.54C-896.09,469.54 -894.23,471.10 -892.86,472.24L-890.66,472.24L-890.66,463.88L-892.86,463.88L-892.86,466.73C-894.34,464.72 -897.15,463.12 -900.57,463.12C-906.88,463.12 -910.49,466.65 -910.49,471.21C-910.49,476.04 -908.40,478.78 -900.42,479.38C-895.25,479.76 -893.13,481.25 -893.13,483.11C-893.13,485.20 -895.14,486.79 -900.31,486.79C-904.37,486.79 -907.41,484.67 -908.52,482.04ZM-867.89,492C-866.37,492 -865.31,491.47 -864.63,490.59L-864.63,485.88C-865.50,486.98 -866.45,487.33 -867.63,487.33C-868.54,487.33 -869.34,486.87 -869.64,486.00L-869.64,479.99C-869.64,472.96 -871.96,470.72 -877.13,470.72C-879.98,470.72 -882.37,471.59 -883.82,473.30L-883.66,478.21C-882.64,476.99 -880.74,475.96 -877.51,475.96C-873.94,475.96 -872.26,477.45 -872.07,481.02C-873.67,479.92 -876.33,479.57 -878.12,479.57C-882.64,479.57 -885.72,482.12 -885.72,486.11C-885.72,489.80 -883.13,492.38 -877.74,492.38C-875.27,492.38 -872.87,491.35 -871.58,489.95C-870.82,491.28 -869.53,492 -867.89,492ZM-877.70,487.63C-881.23,487.63 -882.75,486.68 -882.75,485.01C-882.75,483.26 -881.16,482.27 -877.43,482.27C-875.30,482.27 -873.59,482.84 -872.04,484.02L-872.04,485.96C-873.25,487.10 -875.34,487.63 -877.70,487.63ZM-851.63,492L-846.42,477.33L-843.46,477.33L-843.46,471.10L-853.11,471.10L-853.11,477.33L-850.98,477.33L-854.25,487.25L-857.90,477.33L-855.70,477.33L-855.70,471.10L-863.60,471.10L-863.60,477.33L-860.56,477.33L-855.24,492ZM-823.36,492C-821.84,492 -820.77,491.47 -820.09,490.59L-820.09,485.88C-820.96,486.98 -821.91,487.33 -823.09,487.33C-824.00,487.33 -824.80,486.87 -825.11,486.00L-825.11,479.99C-825.11,472.96 -827.42,470.72 -832.59,470.72C-835.44,470.72 -837.84,471.59 -839.28,473.30L-839.13,478.21C-838.10,476.99 -836.20,475.96 -832.97,475.96C-829.40,475.96 -827.73,477.45 -827.54,481.02C-829.13,479.92 -831.79,479.57 -833.58,479.57C-838.10,479.57 -841.18,482.12 -841.18,486.11C-841.18,489.80 -838.60,492.38 -833.20,492.38C-830.73,492.38 -828.34,491.35 -827.04,489.95C-826.28,491.28 -824.99,492 -823.36,492ZM-833.16,487.63C-836.70,487.63 -838.22,486.68 -838.22,485.01C-838.22,483.26 -836.62,482.27 -832.90,482.27C-830.77,482.27 -829.06,482.84 -827.50,484.02L-827.50,485.96C-828.72,487.10 -830.81,487.63 -833.16,487.63ZM-805.16,489.95L-806.18,486.11C-806.79,486.79 -808.08,487.33 -809.68,487.29C-811.54,487.25 -812.83,486.30 -812.83,483.56L-812.83,477.41L-807.13,477.41L-807.13,471.48L-812.83,471.48L-812.83,466.54L-815.30,466.54L-815.30,471.48L-818.30,471.48L-818.30,477.41L-815.30,477.41L-815.30,486.19C-815.30,490.78 -813.14,492.38 -810.17,492.38C-808.01,492.38 -805.84,491.47 -805.16,489.95ZM-785.74,487.21L-787.52,485.50C-788.63,487.02 -790.22,487.82 -793.57,487.78C-797.06,487.74 -799.30,486.53 -799.80,483.18L-785.13,483.18C-785.13,473.80 -788.40,470.72 -793.57,470.72C-798.13,470.72 -802.12,473.76 -802.12,481.85C-802.12,488.01 -799.19,492.38 -793.49,492.38C-789.80,492.38 -786.99,490.10 -785.74,487.21ZM-793.76,476.50C-789.88,476.50 -787.49,478.40 -787.49,480.71L-799.80,480.71C-799.27,477.83 -796.61,476.50 -793.76,476.50ZM-772.21,482.27L-772.21,479.46L-782.47,479.46L-782.47,482.27ZM-768.98,482.04L-768.98,492L-766.78,492L-766.78,488.92C-764.95,491.01 -761.72,492.38 -758.19,492.38C-751.35,492.38 -747.78,489.72 -747.78,484.89C-747.74,480.45 -750.59,477.45 -758.45,476.80C-764.31,476.31 -765.37,475.09 -765.37,473.38C-765.37,471.44 -763.89,469.54 -758.76,469.54C-754.35,469.54 -752.49,471.10 -751.12,472.24L-748.92,472.24L-748.92,463.88L-751.12,463.88L-751.12,466.73C-752.60,464.72 -755.41,463.12 -758.83,463.12C-765.14,463.12 -768.75,466.65 -768.75,471.21C-768.75,476.04 -766.66,478.78 -758.68,479.38C-753.51,479.76 -751.39,481.25 -751.39,483.11C-751.39,485.20 -753.40,486.79 -758.57,486.79C-762.63,486.79 -765.67,484.67 -766.78,482.04ZM-727.60,487.21L-729.38,485.50C-730.49,487.02 -732.08,487.82 -735.43,487.78C-738.92,487.74 -741.16,486.53 -741.66,483.18L-726.99,483.18C-726.99,473.80 -730.26,470.72 -735.43,470.72C-739.99,470.72 -743.98,473.76 -743.98,481.85C-743.98,488.01 -741.05,492.38 -735.35,492.38C-731.66,492.38 -728.85,490.10 -727.60,487.21ZM-735.62,476.50C-731.74,476.50 -729.35,478.40 -729.35,480.71L-741.66,480.71C-741.13,477.83 -738.47,476.50 -735.62,476.50ZM-723.38,486.60L-723.38,492.08C-722.32,492.04 -716.05,492.04 -713.92,492.08L-713.92,486.60L-717.34,486.60L-717.34,481.17C-717.34,478.51 -715.97,477.03 -714.11,477.03C-712.40,477.03 -711.49,477.45 -711.03,478.43L-709.59,472.13C-710.57,471.29 -711.45,470.72 -713.27,470.72C-714.83,470.72 -716.73,471.78 -717.60,474.06L-718.90,471.10L-723.38,471.10L-723.38,477.33C-722.47,477.33 -721.40,477.29 -719.85,477.33L-719.85,486.60ZM-699.33,465.06C-699.33,462.85 -700.54,461.98 -702.59,461.98C-704.87,461.98 -706.01,462.89 -706.01,465.06C-706.01,467.22 -704.80,468.25 -702.59,468.25C-700.62,468.25 -699.33,467.22 -699.33,465.06ZM-706.74,486.57L-706.74,492.04C-705.10,492 -703.54,492 -701.99,492L-700.66,492C-699.02,492 -697.39,492.04 -695.68,492.04L-695.68,486.57L-699.52,486.57L-699.52,471.86L-706.74,471.86L-706.74,478.09L-701.99,478.09L-701.99,486.57ZM-682.23,492L-682.23,486.53L-686.79,486.53L-686.79,478.09L-682.11,478.09L-682.11,471.86L-686.75,471.86C-687.13,469.09 -685.15,467.53 -683.02,467.53C-681.96,467.53 -681.12,467.76 -680.67,468.10L-680.36,463.20C-681.24,462.51 -682.30,461.98 -683.75,461.98C-687.36,461.98 -690.05,464.94 -689.29,471.86L-692.26,471.86L-692.26,478.09L-689.26,478.09L-689.26,486.53L-692.22,486.53L-692.22,492Z"/>
</svg>