<?xml version="1.0"?>
<svg xmlns="http://www.w3.org/2000/svg" width="1920" height="1080" viewBox="-960 -540 1920 1080">
    <path d="M-748.03,-254.00L-748.03,-299.07L-781.11,-299.07C-831.94,-299.07 -860.14,-257.33 -860.14,-217.82C-860.14,-174.31 -836.38,-144.34 -798.42,-144.34C-766.01,-144.34 -746.70,-170.75 -737.37,-193.84L-740.48,-196.06C-747.36,-184.74 -760.02,-170.31 -785.55,-170.31C-815.07,-170.31 -829.50,-199.61 -829.50,-237.13C-829.50,-266.44 -818.85,-289.97 -794.20,-289.97C-772.23,-289.97 -757.80,-272.65 -749.36,-254.00ZM-708.73,-274.87L-708.73,-268.21L-723.83,-261.77L-708.73,-244.68L-708.73,-147L-666.78,-147L-683.20,-166.09L-683.20,-304.62L-723.83,-291.97ZM-617.94,-288.86L-636.36,-309.28L-655.01,-288.86L-636.36,-268.21ZM-622.38,-166.09L-622.38,-258L-663.00,-243.13L-647.91,-226.03L-647.91,-147L-605.95,-147ZM-561.99,-258L-602.62,-243.13L-587.52,-226.03L-587.52,-147L-558.66,-147L-561.99,-160.54C-561.99,-179.19 -546.23,-216.04 -535.13,-238.02L-533.35,-237.80C-530.91,-229.14 -528.91,-213.60 -528.91,-178.97L-528.91,-147L-500.28,-147L-503.38,-159.65L-503.38,-164.76C-501.39,-184.96 -486.07,-220.04 -475.63,-240.02C-472.97,-232.03 -470.53,-217.15 -470.53,-178.97L-470.53,-147.67L-428.57,-147.67L-445.00,-166.09L-445.00,-191.84C-445.00,-237.13 -445.44,-243.57 -451.21,-261.33L-472.97,-255.78C-477.63,-249.34 -494.73,-217.82 -503.38,-185.18L-503.38,-191.84C-503.38,-237.13 -503.83,-243.57 -509.60,-261.33L-531.36,-255.78C-536.02,-249.34 -553.33,-217.15 -561.99,-184.30ZM-390.39,-147C-377.29,-168.09 -361.97,-198.06 -354.20,-229.81L-356.86,-204.05L-356.86,-147L-314.46,-147L-330.89,-166.09L-330.89,-243.79L-322.45,-255.78L-347.76,-255.78C-394.16,-254.89 -419.47,-224.48 -419.47,-183.19C-419.47,-165.20 -413.47,-149.22 -406.81,-144.56ZM-386.83,-164.09C-389.50,-164.09 -391.94,-173.42 -391.94,-195.17C-391.94,-217.60 -386.17,-249.12 -356.42,-249.34C-356.64,-225.81 -382.62,-164.09 -386.83,-164.09ZM-236.98,-253.34L-236.98,-255.78L-272.28,-255.78L-272.28,-293.52L-297.37,-255.78L-313.13,-255.78L-298.03,-242.68L-298.03,-179.63C-297.59,-145.89 -280.94,-144.34 -272.95,-144.34C-259.18,-144.34 -243.87,-165.87 -237.65,-190.51L-240.09,-191.40C-244.75,-177.64 -254.74,-160.76 -261.85,-160.76C-267.84,-160.76 -272.28,-162.10 -272.28,-186.52L-272.28,-242.02ZM-149.96,-197.39C-149.96,-197.39 -165.28,-160.10 -181.26,-160.10C-189.26,-160.10 -195.25,-172.75 -197.25,-191.18L-148.41,-233.14C-148.41,-237.58 -155.07,-258.67 -176.16,-258.67C-203.46,-258.67 -226.11,-220.70 -226.11,-188.74C-226.11,-159.21 -213.01,-144.34 -193.25,-144.34C-171.72,-144.34 -152.18,-176.08 -146.41,-195.17ZM-197.69,-196.51C-197.91,-199.61 -198.14,-202.94 -198.14,-206.50C-198.14,-242.02 -191.25,-249.34 -187.26,-251.78C-184.37,-253.78 -173.27,-243.13 -172.16,-220.70ZM-83.14,-299.07L-67.60,-275.54L-67.60,-170.53L-83.14,-147L-30.52,-147C21.42,-147 56.28,-178.30 56.28,-229.58C56.28,-261.11 36.96,-299.07 -26.97,-299.07ZM-40.07,-155.44L-40.07,-291.97L-25.20,-291.97C8.10,-291.97 27.20,-267.77 27.20,-223.37C27.20,-196.28 18.09,-155.44 -26.75,-155.44ZM150.18,-197.39C150.18,-197.39 134.86,-160.10 118.88,-160.10C110.89,-160.10 104.90,-172.75 102.90,-191.18L151.74,-233.14C151.74,-237.58 145.08,-258.67 123.99,-258.67C96.68,-258.67 74.04,-220.70 74.04,-188.74C74.04,-159.21 87.14,-144.34 106.89,-144.34C128.43,-144.34 147.96,-176.08 153.73,-195.17ZM102.45,-196.51C102.23,-199.61 102.01,-202.94 102.01,-206.50C102.01,-242.02 108.89,-249.34 112.89,-251.78C115.77,-253.78 126.87,-243.13 127.98,-220.70ZM224.55,-222.92L223.44,-255.78L207.68,-255.78C183.26,-255.78 169.28,-237.13 169.28,-221.37C169.28,-197.17 213.01,-186.07 213.01,-164.32C213.01,-158.32 209.46,-155.44 202.80,-155.44C189.92,-155.44 178.60,-169.20 166.61,-186.74L165.94,-184.74L171.27,-147L189.48,-147C218.11,-147 230.55,-165.65 230.55,-180.30C230.55,-203.83 186.15,-221.15 186.15,-236.69C186.15,-242.24 187.70,-245.12 193.92,-245.12C203.68,-245.12 214.79,-235.80 223.22,-222.70ZM284.05,-288.86L265.62,-309.28L246.97,-288.86L265.62,-268.21ZM279.61,-166.09L279.61,-258L238.98,-243.13L254.08,-226.03L254.08,-147L296.04,-147ZM332.44,-147C345.54,-168.09 360.86,-198.06 368.63,-229.81L365.97,-204.05L365.97,-152.55C365.74,-117.03 355.53,-108.59 341.32,-108.59C332.22,-108.59 311.35,-116.36 298.48,-127.02L297.15,-125.47L321.79,-95.27L323.12,-95.27C351.98,-95.27 391.28,-126.80 391.28,-163.65L391.28,-166.31L391.72,-172.09L391.50,-172.09L391.50,-173.86C391.72,-197.17 391.72,-220.48 391.94,-243.57L400.38,-255.78L375.07,-255.78C328.23,-254.89 303.36,-223.59 303.36,-183.19C303.36,-165.20 309.36,-149.22 316.02,-144.56ZM336.00,-164.09C333.33,-164.09 330.89,-173.42 330.89,-195.17C330.89,-217.60 336.66,-249.12 366.41,-249.34C366.19,-225.81 340.21,-164.09 336.00,-164.09ZM449.22,-258L408.59,-243.13L423.69,-226.03L423.69,-147L452.55,-147L449.22,-160.54C449.22,-179.19 464.98,-216.04 476.08,-238.02L477.85,-237.80C480.30,-229.14 482.29,-213.60 482.29,-178.97L482.29,-147L524.25,-147L507.82,-166.09L507.82,-191.84C507.82,-237.13 507.38,-243.57 501.61,-261.33L479.85,-255.78C475.19,-249.34 457.88,-217.15 449.22,-184.30ZM609.50,-197.39C609.50,-197.39 594.18,-160.10 578.20,-160.10C570.21,-160.10 564.21,-172.75 562.21,-191.18L611.05,-233.14C611.05,-237.58 604.40,-258.67 583.30,-258.67C556.00,-258.67 533.35,-220.70 533.35,-188.74C533.35,-159.21 546.45,-144.34 566.21,-144.34C587.74,-144.34 607.28,-176.08 613.05,-195.17ZM561.77,-196.51C561.55,-199.61 561.33,-202.94 561.33,-206.50C561.33,-242.02 568.21,-249.34 572.20,-251.78C575.09,-253.78 586.19,-243.13 587.30,-220.70ZM712.29,-221.37L712.95,-222.26L694.30,-258.89L691.42,-258.89C678.32,-240.24 667.44,-212.27 661.01,-187.40L661.01,-258L620.38,-243.13L635.47,-226.03L635.47,-147L662.78,-147L661.01,-160.54C661.01,-182.96 679.88,-228.03 682.98,-229.36ZM774.67,-222.92L773.56,-255.78L757.80,-255.78C733.38,-255.78 719.39,-237.13 719.39,-221.37C719.39,-197.17 763.13,-186.07 763.13,-164.32C763.13,-158.32 759.57,-155.44 752.91,-155.44C740.04,-155.44 728.71,-169.20 716.73,-186.74L716.06,-184.74L721.39,-147L739.59,-147C768.23,-147 780.66,-165.65 780.66,-180.30C780.66,-203.83 736.26,-221.15 736.26,-236.69C736.26,-242.24 737.82,-245.12 744.03,-245.12C753.80,-245.12 764.90,-235.80 773.34,-222.70ZM824.62,-221.37L806.64,-242.02L788.43,-221.37L806.64,-200.95ZM824.62,-161.65L806.64,-182.30L788.43,-161.65L806.64,-141.23ZM-123.88,45.25L-112.78,37.04L-112.78,34.82L-173.16,34.82L-173.16,37.26L-150.96,49.25L-150.96,85.88C-156.73,88.76 -164.28,90.10 -168.50,90.10C-206.24,90.10 -214.01,47.69 -214.01,13.51C-214.01,-21.35 -202.46,-39.33 -181.15,-39.33C-157.18,-39.33 -145.85,-21.13 -136.31,-3.37L-133.42,-3.37L-133.42,-48.43L-166.50,-48.43C-217.34,-48.43 -245.53,-6.70 -245.53,32.82C-245.53,76.33 -221.78,106.30 -183.82,106.30C-169.83,106.30 -157.40,100.31 -147.19,92.98L-127.21,104.75L-123.88,104.75ZM-97.68,59.24C-97.68,89.21 -79.48,106.52 -55.72,106.52C-25.53,106.52 0.67,74.78 0.67,40.15C0.67,10.84 -16.21,-8.03 -43.96,-8.03C-75.26,-8.03 -97.68,23.50 -97.68,59.24ZM-52.61,-0.92C-45.95,-0.92 -28.64,11.06 -28.64,50.14C-28.64,86.77 -41.74,99.20 -48.40,99.20C-55.06,99.20 -69.71,81.22 -69.71,44.36C-69.71,5.07 -59.27,-0.92 -52.61,-0.92ZM42.62,103.42C55.72,82.33 71.04,52.36 78.81,20.61L76.15,46.36L76.15,103.42L118.55,103.42L102.12,84.32L102.12,6.62L110.56,-5.36L85.25,-5.36C38.85,-4.48 13.54,25.94 13.54,67.23C13.54,85.21 19.54,101.20 26.20,105.86ZM46.18,86.32C43.51,86.32 41.07,77.00 41.07,55.24C41.07,32.82 46.84,1.30 76.59,1.07C76.37,24.61 50.39,86.32 46.18,86.32ZM137.42,-24.46L137.42,-17.80L122.32,-11.36L137.42,5.74L137.42,103.42L179.38,103.42L162.95,84.32L162.95,-54.20L122.32,-41.55ZM244.87,27.49L243.76,-5.36L227.99,-5.36C203.57,-5.36 189.59,13.28 189.59,29.05C189.59,53.24 233.32,64.34 233.32,86.10C233.32,92.09 229.77,94.98 223.11,94.98C210.23,94.98 198.91,81.22 186.92,63.68L186.26,65.68L191.59,103.42L209.79,103.42C238.43,103.42 250.86,84.77 250.86,70.12C250.86,46.58 206.46,29.27 206.46,13.73C206.46,8.18 208.01,5.29 214.23,5.29C224.00,5.29 235.10,14.62 243.53,27.71Z" fill="#ffffff" stroke="#000000"/>
    <path d="M-744.42,-254.63L-744.05,-299.24L-776.80,-299.51C-827.12,-299.93 -855.38,-258.84 -855.70,-219.72C-856.05,-176.65 -832.78,-146.78 -795.20,-146.47C-763.11,-146.21 -743.78,-172.20 -734.36,-194.99L-737.42,-197.21C-744.32,-186.06 -756.97,-171.87 -782.24,-172.08C-811.47,-172.32 -825.52,-201.45 -825.21,-238.59C-824.97,-267.60 -814.23,-290.81 -789.84,-290.61C-768.08,-290.43 -753.94,-273.17 -745.74,-254.64ZM-705.35,-274.97L-705.40,-268.38L-720.40,-262.13L-705.59,-245.08L-706.39,-148.38L-664.85,-148.04L-680.96,-167.07L-679.83,-304.21L-720.15,-292.01ZM-615.35,-288.07L-633.42,-308.44L-652.05,-288.38L-633.76,-267.79ZM-620.74,-166.58L-619.99,-257.56L-660.33,-243.17L-645.53,-226.12L-646.17,-147.88L-604.64,-147.54ZM-560.22,-257.07L-600.56,-242.68L-585.75,-225.63L-586.39,-147.39L-557.82,-147.16L-561.01,-160.59C-560.86,-179.05 -544.95,-215.40 -533.79,-237.07L-532.03,-236.84C-529.68,-228.25 -527.83,-212.85 -528.11,-178.56L-528.37,-146.91L-500.02,-146.68L-503.00,-159.23L-502.96,-164.29C-500.81,-184.27 -485.36,-218.87 -474.87,-238.56C-472.30,-230.63 -470.00,-215.89 -470.31,-178.09L-470.57,-147.10L-429.03,-146.76L-445.14,-165.13L-444.93,-190.62C-444.57,-235.46 -444.95,-241.84 -450.52,-259.46L-472.11,-254.15C-476.77,-247.81 -493.95,-216.74 -502.79,-184.51L-502.74,-191.10C-502.37,-235.93 -502.75,-242.31 -508.32,-259.94L-529.91,-254.62C-534.57,-248.29 -551.98,-216.56 -560.82,-184.11ZM-391.24,-145.79C-378.10,-166.56 -362.69,-196.10 -354.74,-227.47L-357.59,-201.99L-358.05,-145.51L-316.07,-145.17L-332.18,-164.20L-331.55,-241.12L-323.10,-252.92L-348.15,-253.13C-394.09,-252.63 -419.40,-222.72 -419.73,-181.85C-419.88,-164.04 -414.07,-148.17 -407.52,-143.50ZM-387.58,-162.68C-390.22,-162.70 -392.56,-171.95 -392.38,-193.49C-392.20,-215.69 -386.23,-246.85 -356.78,-246.82C-357.19,-223.53 -383.40,-162.64 -387.58,-162.68ZM-238.51,-249.81L-238.49,-252.22L-273.43,-252.51L-273.12,-289.87L-298.27,-252.72L-313.87,-252.84L-299.03,-239.75L-299.54,-177.34C-299.38,-143.93 -282.91,-142.26 -275.00,-142.19C-261.37,-142.08 -246.03,-163.27 -239.68,-187.62L-242.09,-188.52C-246.82,-174.93 -256.84,-158.31 -263.88,-158.36C-269.81,-158.41 -274.19,-159.77 -274.00,-183.94L-273.54,-238.89ZM-152.81,-193.71C-152.81,-193.71 -168.28,-156.92 -184.10,-157.05C-192.02,-157.11 -197.85,-169.69 -199.67,-187.95L-150.98,-229.09C-150.95,-233.48 -157.37,-254.41 -178.25,-254.59C-205.28,-254.81 -228.00,-217.41 -228.26,-185.76C-228.51,-156.53 -215.66,-141.70 -196.10,-141.54C-174.78,-141.37 -155.18,-172.63 -149.31,-191.49ZM-200.07,-193.22C-200.26,-196.30 -200.46,-199.60 -200.43,-203.12C-200.14,-238.28 -193.27,-245.48 -189.29,-247.86C-186.42,-249.82 -175.52,-239.18 -174.60,-216.97ZM-85.83,-293.83L-70.64,-270.40L-71.50,-166.45L-87.07,-143.28L-34.98,-142.85C16.44,-142.43 51.20,-173.13 51.62,-223.90C51.88,-255.11 33.07,-292.85 -30.23,-293.37ZM-44.37,-151.28L-43.25,-286.44L-28.53,-286.32C4.44,-286.05 23.14,-261.94 22.78,-217.98C22.56,-191.17 13.21,-150.81 -31.18,-151.17ZM144.32,-191.27C144.32,-191.27 128.85,-154.47 113.03,-154.60C105.12,-154.67 99.29,-167.24 97.46,-185.50L146.15,-226.64C146.19,-231.03 139.77,-251.97 118.89,-252.14C91.85,-252.36 69.13,-214.97 68.87,-183.32C68.63,-154.09 81.47,-139.26 101.03,-139.10C122.35,-138.92 141.95,-170.19 147.82,-189.04ZM97.06,-190.78C96.87,-193.86 96.68,-197.16 96.70,-200.67C96.99,-235.84 103.87,-243.03 107.84,-245.42C110.72,-247.37 121.62,-236.73 122.53,-214.53ZM218.15,-215.94L217.32,-248.47L201.72,-248.60C177.54,-248.80 163.54,-230.45 163.42,-214.85C163.22,-190.89 206.42,-179.55 206.25,-158.01C206.20,-152.08 202.66,-149.25 196.06,-149.30C183.32,-149.41 172.22,-163.13 160.50,-180.59L159.82,-178.61L164.79,-141.21L182.81,-141.06C211.16,-140.83 223.62,-159.19 223.74,-173.69C223.93,-196.99 180.12,-214.49 180.24,-229.88C180.29,-235.37 181.85,-238.21 188.00,-238.16C197.67,-238.08 208.59,-228.76 216.83,-215.73ZM277.59,-280.72L259.51,-301.09L240.89,-281.03L259.18,-260.44ZM272.19,-159.23L272.94,-250.21L232.60,-235.82L247.41,-218.77L246.76,-140.53L288.30,-140.19ZM324.34,-139.89C337.48,-160.67 352.89,-190.21 360.84,-221.58L357.99,-196.10L357.57,-145.12C357.06,-109.95 346.89,-101.69 332.82,-101.80C323.81,-101.88 303.22,-109.74 290.56,-120.39L289.22,-118.86L313.37,-88.77L314.69,-88.76C343.26,-88.53 382.42,-119.42 382.72,-155.90L382.74,-158.54L383.23,-164.25L383.01,-164.25L383.02,-166.01C383.43,-189.08 383.62,-212.16 384.03,-235.01L392.48,-247.03L367.43,-247.24C321.05,-246.74 296.18,-215.95 295.85,-175.95C295.70,-158.15 301.50,-142.28 308.06,-137.61ZM328.00,-156.79C325.36,-156.81 323.02,-166.06 323.20,-187.60C323.38,-209.80 329.35,-240.96 358.80,-240.93C358.39,-217.64 332.17,-156.75 328.00,-156.79ZM440.85,-248.83L400.51,-234.44L415.31,-217.39L414.67,-139.15L443.24,-138.92L440.05,-152.35C440.21,-170.81 456.11,-207.16 467.28,-228.83L469.03,-228.60C471.38,-220.01 473.23,-204.61 472.95,-170.32L472.69,-138.67L514.23,-138.33L498.12,-157.37L498.33,-182.86C498.70,-227.69 498.31,-234.07 492.74,-251.70L471.16,-246.38C466.49,-240.05 449.09,-208.32 440.25,-175.86ZM599.03,-187.53C599.03,-187.53 583.56,-150.73 567.74,-150.86C559.83,-150.92 554.00,-163.50 552.17,-181.76L600.86,-222.90C600.90,-227.29 594.47,-248.22 573.60,-248.40C546.56,-248.62 523.84,-211.22 523.58,-179.57C523.34,-150.35 536.18,-135.51 555.74,-135.35C577.06,-135.18 596.66,-166.45 602.53,-185.30ZM551.77,-187.04C551.58,-190.11 551.38,-193.41 551.41,-196.93C551.70,-232.09 558.58,-239.29 562.55,-241.67C565.42,-243.63 576.33,-232.99 577.24,-210.78ZM700.98,-210.42L701.65,-211.30L683.48,-247.71L680.63,-247.73C667.51,-229.38 656.51,-201.78 649.94,-177.22L650.51,-247.10L610.17,-232.71L624.98,-215.66L624.33,-137.43L651.36,-137.20L649.72,-150.62C649.90,-172.82 668.95,-217.28 672.04,-218.57ZM762.75,-211.45L761.92,-243.99L746.31,-244.12C722.14,-244.32 708.14,-225.97 708.01,-210.37C707.82,-186.41 751.02,-175.06 750.84,-153.53C750.79,-147.59 747.25,-144.77 740.66,-144.82C727.91,-144.92 716.82,-158.64 705.09,-176.10L704.42,-174.13L709.38,-136.73L727.41,-136.58C755.76,-136.34 768.22,-154.70 768.34,-169.21C768.53,-192.50 724.71,-210.01 724.84,-225.39C724.89,-230.89 726.45,-233.73 732.60,-233.68C742.27,-233.60 753.18,-224.28 761.43,-211.24ZM812.18,-209.51L794.55,-230.09L776.36,-209.80L794.22,-189.44ZM811.70,-150.39L794.06,-170.97L775.88,-150.68L793.73,-130.32ZM-128.97,46.71L-117.91,38.67L-117.89,36.47L-177.67,35.98L-177.69,38.40L-155.81,50.44L-156.11,86.71C-161.85,89.52 -169.33,90.77 -173.51,90.74C-210.87,90.43 -218.21,48.39 -217.94,14.55C-217.65,-19.96 -206.08,-37.66 -184.98,-37.49C-161.24,-37.30 -150.18,-19.18 -140.88,-1.52L-138.02,-1.50L-137.65,-46.11L-170.40,-46.38C-220.73,-46.80 -248.98,-5.71 -249.30,33.41C-249.65,76.49 -226.38,106.35 -188.80,106.66C-174.96,106.77 -162.60,100.94 -152.43,93.77L-132.75,105.58L-129.45,105.61ZM-103.15,60.77C-103.39,90.44 -85.51,107.73 -62.00,107.92C-32.11,108.17 -5.91,76.95 -5.63,42.67C-5.39,13.66 -21.94,-5.16 -49.41,-5.38C-80.40,-5.64 -102.86,25.39 -103.15,60.77ZM-58.04,1.58C-51.45,1.63 -34.41,13.64 -34.72,52.32C-35.02,88.58 -48.09,100.78 -54.68,100.73C-61.28,100.68 -75.63,82.75 -75.33,46.27C-75.01,7.37 -64.64,1.52 -58.04,1.58ZM35.39,105.65C48.53,84.88 63.94,55.33 71.89,23.97L69.04,49.44L68.57,105.92L110.55,106.27L94.44,87.23L95.08,10.31L103.53,-1.49L78.47,-1.69C32.53,-1.19 7.23,28.71 6.89,69.59C6.75,87.39 12.55,103.26 19.11,107.93ZM39.04,88.75C36.41,88.73 34.07,79.48 34.24,57.94C34.43,35.75 40.40,4.59 69.85,4.61C69.44,27.90 43.22,88.79 39.04,88.75ZM130.27,-20.17L130.22,-13.58L115.22,-7.33L130.03,9.72L129.23,106.42L170.77,106.76L154.66,87.73L155.79,-49.41L115.47,-37.22ZM236.22,32.13L235.39,-0.40L219.79,-0.53C195.61,-0.73 181.61,17.62 181.48,33.22C181.29,57.18 224.49,68.52 224.32,90.06C224.27,95.99 220.73,98.82 214.13,98.77C201.39,98.66 190.29,84.94 178.57,67.48L177.89,69.46L182.86,106.86L200.88,107.01C229.23,107.24 241.69,88.88 241.81,74.38C242.00,51.08 198.19,33.58 198.31,18.19C198.36,12.70 199.92,9.86 206.07,9.91C215.74,9.99 226.66,19.31 234.90,32.34Z" fill="#ffffff" stroke="#000000"/>
    <path d="M-740.73,-255.27L-740.00,-299.43L-772.41,-299.97C-822.23,-300.79 -850.53,-260.34 -851.16,-221.62C-851.86,-178.99 -829.07,-149.24 -791.87,-148.63C-760.12,-148.10 -740.76,-173.68 -731.26,-196.15L-734.26,-198.38C-741.19,-187.39 -753.82,-173.46 -778.84,-173.87C-807.77,-174.35 -821.44,-203.29 -820.83,-240.06C-820.36,-268.77 -809.54,-291.66 -785.39,-291.26C-763.86,-290.90 -750.00,-273.70 -742.03,-255.29ZM-701.89,-275.09L-701.99,-268.56L-716.89,-262.50L-702.37,-245.50L-703.95,-149.79L-662.84,-149.11L-678.63,-168.09L-676.39,-303.82L-716.40,-292.08ZM-612.69,-287.33L-630.42,-307.64L-649.02,-287.92L-631.08,-267.39ZM-619.02,-167.10L-617.54,-257.16L-657.59,-243.24L-643.07,-226.25L-644.35,-148.81L-603.23,-148.13ZM-558.37,-256.19L-598.42,-242.27L-583.90,-225.27L-585.18,-147.83L-556.90,-147.37L-559.94,-160.69C-559.64,-178.96 -543.60,-214.82 -532.37,-236.18L-530.64,-235.93C-528.38,-227.41 -526.68,-212.15 -527.23,-178.21L-527.75,-146.89L-499.69,-146.43L-502.53,-158.88L-502.45,-163.88C-500.16,-183.64 -484.59,-217.76 -474.04,-237.17C-471.56,-229.30 -469.41,-214.69 -470.02,-177.27L-470.53,-146.60L-429.42,-145.92L-445.22,-164.24L-444.80,-189.48C-444.07,-233.85 -444.40,-240.17 -449.77,-257.66L-471.18,-252.58C-475.85,-246.34 -493.11,-215.73 -502.12,-183.89L-502.01,-190.42C-501.28,-234.79 -501.61,-241.11 -506.98,-258.60L-528.39,-253.52C-533.06,-247.28 -550.55,-216.02 -559.56,-183.97ZM-392.01,-144.65C-378.84,-165.11 -363.34,-194.23 -355.22,-225.21L-358.24,-200.02L-359.16,-144.11L-317.62,-143.43L-333.40,-162.40L-332.15,-238.54L-323.69,-250.15L-348.49,-250.56C-393.97,-250.43 -419.26,-221.04 -419.92,-180.58C-420.21,-162.96 -414.60,-147.20 -408.15,-142.53ZM-388.25,-161.35C-390.87,-161.39 -393.11,-170.56 -392.76,-191.88C-392.39,-213.85 -386.23,-244.65 -357.08,-244.39C-357.67,-221.33 -384.12,-161.28 -388.25,-161.35ZM-239.98,-246.38L-239.94,-248.77L-274.53,-249.34L-273.92,-286.32L-299.11,-249.74L-314.56,-250.00L-299.97,-236.92L-300.99,-175.14C-301.10,-142.07 -284.81,-140.28 -276.98,-140.15C-263.49,-139.93 -248.14,-160.78 -241.65,-184.83L-244.03,-185.73C-248.82,-172.32 -258.88,-155.95 -265.84,-156.07C-271.71,-156.16 -276.04,-157.54 -275.65,-181.47L-274.75,-235.85ZM-155.61,-190.15C-155.61,-190.15 -171.22,-153.86 -186.89,-154.11C-194.72,-154.24 -200.39,-166.74 -202.05,-184.83L-153.51,-225.15C-153.44,-229.50 -159.63,-250.27 -180.29,-250.61C-207.05,-251.06 -229.85,-214.22 -230.37,-182.90C-230.84,-153.97 -218.25,-139.18 -198.89,-138.86C-177.79,-138.51 -158.13,-169.31 -152.17,-187.92ZM-202.40,-190.05C-202.56,-193.10 -202.73,-196.37 -202.67,-199.85C-202.10,-234.65 -195.23,-241.72 -191.28,-244.05C-188.42,-245.96 -177.72,-235.34 -176.99,-213.35ZM-88.50,-288.70L-73.65,-265.40L-75.34,-162.50L-90.95,-139.70L-39.39,-138.85C11.51,-138.01 46.17,-168.12 46.99,-218.37C47.50,-249.26 29.19,-286.77 -33.46,-287.80ZM-48.61,-147.27L-46.41,-281.05L-31.83,-280.81C0.80,-280.27 19.11,-256.25 18.40,-212.75C17.96,-186.21 8.38,-146.33 -35.56,-147.05ZM138.49,-185.31C138.49,-185.31 122.88,-149.01 107.22,-149.27C99.38,-149.40 93.72,-161.90 92.05,-179.98L140.59,-220.31C140.66,-224.66 134.47,-245.43 113.81,-245.77C87.05,-246.21 64.25,-209.38 63.74,-178.06C63.26,-149.12 75.85,-134.34 95.21,-134.02C116.31,-133.67 135.97,-164.46 141.93,-183.08ZM91.71,-185.21C91.54,-188.26 91.37,-191.53 91.43,-195.01C92.00,-229.81 98.87,-236.88 102.82,-239.21C105.68,-241.12 116.39,-230.50 117.11,-208.51ZM211.77,-209.13L211.22,-241.34L195.77,-241.59C171.84,-241.99 157.84,-223.94 157.58,-208.50C157.19,-184.79 199.87,-173.20 199.52,-151.89C199.42,-146.01 195.89,-143.24 189.37,-143.35C176.75,-143.56 165.88,-157.23 154.41,-174.60L153.73,-172.66L158.34,-135.59L176.18,-135.30C204.24,-134.84 216.72,-152.91 216.96,-167.26C217.34,-190.32 174.11,-208.01 174.36,-223.23C174.45,-228.67 176.02,-231.48 182.11,-231.37C191.68,-231.22 202.41,-221.90 210.46,-208.93ZM271.14,-272.77L253.41,-293.08L234.81,-273.37L252.75,-252.84ZM264.80,-152.55L266.29,-242.61L226.24,-228.69L240.76,-211.70L239.48,-134.26L280.59,-133.58ZM316.27,-132.99C329.44,-153.45 344.94,-182.56 353.06,-213.55L350.04,-188.36L349.20,-137.89C348.41,-103.09 338.27,-94.99 324.35,-95.22C315.43,-95.36 295.11,-103.31 282.66,-113.96L281.33,-112.46L304.99,-82.48L306.30,-82.46C334.58,-81.99 373.59,-112.25 374.18,-148.36L374.23,-150.97L374.75,-156.62L374.54,-156.62L374.56,-158.36C375.16,-181.20 375.53,-204.04 376.12,-226.66L384.59,-238.49L359.79,-238.89C313.88,-238.78 289.01,-208.51 288.36,-168.92C288.07,-151.30 293.68,-135.54 300.13,-130.86ZM320.02,-149.68C317.41,-149.73 315.17,-158.90 315.52,-180.22C315.88,-202.19 322.05,-232.99 351.20,-232.72C350.60,-209.67 324.16,-149.62 320.02,-149.68ZM432.48,-239.87L392.43,-225.95L406.95,-208.96L405.67,-131.52L433.95,-131.05L430.91,-144.38C431.21,-162.65 447.25,-198.51 458.48,-219.86L460.22,-219.62C462.47,-211.09 464.18,-195.83 463.62,-161.90L463.10,-130.57L504.21,-129.90L488.43,-148.87L488.84,-174.10C489.57,-218.48 489.24,-224.79 483.87,-242.29L462.46,-237.20C457.79,-230.97 440.30,-199.71 431.29,-167.65ZM588.56,-177.90C588.56,-177.90 572.95,-141.60 557.29,-141.86C549.45,-141.99 543.79,-154.49 542.13,-172.57L590.66,-212.90C590.73,-217.25 584.54,-238.02 563.88,-238.36C537.12,-238.80 514.32,-201.97 513.81,-170.65C513.33,-141.71 525.92,-126.93 545.28,-126.61C566.39,-126.26 586.04,-157.05 592.00,-175.67ZM541.78,-177.80C541.61,-180.85 541.44,-184.12 541.50,-187.60C542.08,-222.40 548.94,-229.47 552.89,-231.80C555.75,-233.71 566.46,-223.09 567.18,-201.10ZM689.66,-199.74L690.33,-200.60L672.65,-236.79L669.82,-236.84C656.69,-218.77 645.57,-191.54 638.87,-167.28L640.00,-236.46L599.96,-222.54L614.47,-205.54L613.20,-128.10L639.95,-127.66L638.43,-140.96C638.79,-162.93 658.01,-206.78 661.08,-208.04ZM750.81,-200.25L750.26,-232.46L734.81,-232.72C710.88,-233.11 696.88,-215.07 696.62,-199.62C696.23,-175.91 738.91,-164.33 738.56,-143.01C738.46,-137.14 734.93,-134.37 728.41,-134.47C715.79,-134.68 704.92,-148.35 693.45,-165.73L692.77,-163.78L697.38,-126.72L715.22,-126.42C743.28,-125.96 755.76,-144.03 756.00,-158.39C756.38,-181.45 713.15,-199.13 713.40,-214.36C713.49,-219.80 715.06,-222.60 721.15,-222.50C730.72,-222.34 741.45,-213.03 749.51,-200.06ZM799.73,-197.92L782.45,-218.44L764.28,-198.51L781.78,-178.20ZM798.77,-139.41L781.48,-159.93L763.31,-139.99L780.82,-119.68ZM-133.97,48.03L-122.96,40.16L-122.92,37.98L-182.09,37.01L-182.13,39.40L-160.57,51.51L-161.16,87.40C-166.86,90.13 -174.28,91.32 -178.41,91.25C-215.39,90.64 -222.32,48.97 -221.77,15.47C-221.21,-18.69 -209.61,-36.12 -188.73,-35.78C-165.23,-35.39 -154.43,-17.37 -145.36,0.19L-142.54,0.23L-141.81,-43.92L-174.22,-44.46C-224.04,-45.28 -252.34,-4.84 -252.97,33.88C-253.68,76.52 -230.88,106.27 -193.69,106.88C-179.98,107.11 -167.70,101.43 -157.58,94.42L-138.19,106.27L-134.93,106.33ZM-108.52,62.16C-109.01,91.52 -91.45,108.78 -68.17,109.17C-38.59,109.65 -12.41,78.97 -11.85,45.03C-11.38,16.32 -27.61,-2.44 -54.80,-2.89C-85.47,-3.39 -107.95,27.13 -108.52,62.16ZM-63.40,3.93C-56.87,4.04 -40.10,16.06 -40.73,54.35C-41.32,90.24 -54.35,102.21 -60.88,102.11C-67.40,102.00 -81.47,84.14 -80.88,48.03C-80.24,9.53 -69.92,3.82 -63.40,3.93ZM28.24,107.71C41.42,87.25 56.91,58.13 65.04,27.15L62.01,52.34L61.09,108.25L102.64,108.93L86.85,89.96L88.10,13.82L96.56,2.21L71.76,1.80C26.28,1.93 1.00,31.32 0.33,71.78C0.04,89.40 5.65,105.16 12.11,109.84ZM32.00,91.01C29.39,90.97 27.15,81.80 27.50,60.48C27.86,38.51 34.02,7.71 63.18,7.97C62.58,31.03 36.13,91.08 32.00,91.01ZM123.19,-16.06L123.08,-9.54L108.19,-3.47L122.70,13.52L121.13,109.24L162.24,109.91L146.45,90.94L148.69,-44.80L108.67,-33.05ZM227.64,36.57L227.08,4.36L211.64,4.11C187.71,3.71 173.70,21.76 173.45,37.21C173.06,60.92 215.73,72.50 215.38,93.82C215.28,99.69 211.76,102.46 205.23,102.35C192.61,102.15 181.74,88.48 170.28,71.10L169.59,73.04L174.21,110.11L192.04,110.40C220.10,110.87 232.59,92.79 232.82,78.44C233.20,55.38 189.98,37.70 190.23,22.47C190.32,17.03 191.89,14.23 197.98,14.33C207.55,14.48 218.27,23.80 226.33,36.77Z" fill="#ffffff" stroke="#000000"/>
    <path d="M-736.95,-255.93L-735.87,-299.63L-767.95,-300.42C-817.25,-301.64 -845.59,-261.84 -846.53,-223.53C-847.58,-181.33 -825.26,-151.70 -788.45,-150.79C-757.02,-150.01 -737.66,-175.17 -728.06,-197.34L-731.02,-199.56C-737.97,-188.75 -750.58,-175.06 -775.34,-175.67C-803.97,-176.38 -817.26,-205.14 -816.36,-241.52C-815.66,-269.94 -804.76,-292.50 -780.87,-291.91C-759.56,-291.38 -745.98,-274.25 -738.24,-255.96ZM-698.35,-275.22L-698.51,-268.77L-713.30,-262.88L-699.07,-245.95L-701.41,-151.23L-660.73,-150.22L-676.20,-169.13L-672.88,-303.46L-712.58,-292.16ZM-609.97,-286.61L-627.35,-306.86L-645.92,-287.50L-628.33,-267.03ZM-617.21,-167.67L-615.01,-256.79L-654.76,-243.34L-640.53,-226.41L-642.43,-149.77L-601.74,-148.76ZM-556.46,-255.35L-596.21,-241.90L-581.98,-224.96L-583.87,-148.32L-555.89,-147.63L-558.79,-160.84C-558.35,-178.93 -542.18,-214.28 -530.89,-235.33L-529.17,-235.07C-527.01,-226.62 -525.45,-211.50 -526.27,-177.92L-527.04,-146.92L-499.27,-146.23L-501.98,-158.58L-501.86,-163.53C-499.44,-183.07 -483.74,-216.72 -473.15,-235.84C-470.75,-228.03 -468.74,-213.55 -469.66,-176.52L-470.41,-146.17L-429.72,-145.16L-445.21,-163.42L-444.59,-188.39C-443.51,-232.31 -443.78,-238.56 -448.96,-255.92L-470.19,-251.06C-474.86,-244.93 -492.19,-214.77 -501.37,-183.33L-501.21,-189.79C-500.12,-233.71 -500.40,-239.96 -505.57,-257.32L-526.80,-252.46C-531.48,-246.33 -549.04,-215.53 -558.22,-183.88ZM-392.71,-143.60C-379.50,-163.74 -363.93,-192.43 -355.64,-223.03L-358.84,-198.12L-360.20,-142.80L-319.09,-141.78L-334.56,-160.69L-332.70,-236.04L-324.23,-247.46L-348.77,-248.06C-393.78,-248.31 -419.05,-219.43 -420.04,-179.39C-420.47,-161.95 -415.04,-146.31 -408.70,-141.63ZM-388.86,-160.09C-391.44,-160.16 -393.58,-169.26 -393.06,-190.35C-392.53,-212.10 -386.17,-242.53 -357.32,-242.03C-358.10,-219.22 -384.77,-159.99 -388.86,-160.09ZM-241.41,-243.04L-241.35,-245.41L-275.58,-246.26L-274.67,-282.85L-299.90,-246.86L-315.19,-247.23L-300.86,-234.17L-302.37,-173.03C-302.75,-140.30 -286.64,-138.40 -278.89,-138.20C-265.55,-137.88 -250.18,-158.39 -243.56,-182.14L-245.90,-183.06C-250.76,-169.82 -260.85,-153.70 -267.74,-153.87C-273.55,-154.01 -277.82,-155.41 -277.24,-179.09L-275.91,-232.91ZM-158.36,-186.71C-158.36,-186.71 -174.11,-150.91 -189.61,-151.29C-197.36,-151.48 -202.87,-163.90 -204.36,-181.81L-156.00,-221.33C-155.89,-225.64 -161.84,-246.25 -182.29,-246.75C-208.77,-247.41 -231.64,-211.14 -232.41,-180.14C-233.11,-151.51 -220.77,-136.77 -201.61,-136.30C-180.73,-135.78 -161.02,-166.10 -154.97,-184.47ZM-204.67,-186.99C-204.81,-190.01 -204.94,-193.25 -204.86,-196.69C-204.01,-231.13 -197.16,-238.07 -193.22,-240.35C-190.38,-242.21 -179.87,-231.61 -179.33,-209.85ZM-91.13,-283.70L-76.62,-260.51L-79.14,-158.69L-94.77,-136.24L-43.75,-134.98C6.62,-133.74 41.17,-163.26 42.40,-212.98C43.16,-243.55 25.34,-280.83 -36.66,-282.36ZM-52.80,-143.39L-49.53,-275.78L-35.11,-275.43C-2.82,-274.63 15.11,-250.71 14.05,-207.65C13.40,-181.39 3.60,-142.00 -39.89,-143.07ZM132.69,-179.52C132.69,-179.52 116.94,-143.72 101.44,-144.10C93.69,-144.30 88.18,-156.71 86.69,-174.63L135.05,-214.14C135.16,-218.45 129.21,-239.06 108.76,-239.56C82.28,-240.22 59.41,-203.95 58.64,-172.95C57.94,-144.32 70.28,-129.58 89.44,-129.11C110.32,-128.59 130.03,-158.91 136.08,-177.28ZM86.39,-179.80C86.24,-182.82 86.11,-186.06 86.19,-189.50C87.05,-223.94 93.89,-230.88 97.83,-233.16C100.67,-235.02 111.18,-224.43 111.72,-202.66ZM205.42,-202.50L205.13,-234.38L189.85,-234.76C166.17,-235.35 152.16,-217.60 151.78,-202.31C151.20,-178.85 193.34,-167.04 192.82,-145.94C192.68,-140.13 189.16,-137.41 182.71,-137.57C170.22,-137.88 159.57,-151.50 148.37,-168.79L147.67,-166.87L151.93,-130.15L169.59,-129.71C197.36,-129.03 209.86,-146.81 210.21,-161.02C210.77,-183.84 168.13,-201.69 168.51,-216.76C168.64,-222.14 170.22,-224.91 176.24,-224.76C185.72,-224.52 196.26,-215.22 204.12,-202.31ZM264.69,-265.01L247.31,-285.25L228.74,-265.90L246.33,-245.43ZM257.45,-146.07L259.65,-235.19L219.90,-221.74L234.13,-204.80L232.23,-128.16L272.92,-127.16ZM308.22,-126.29C321.43,-146.42 337.00,-175.12 345.30,-205.72L342.10,-180.81L340.86,-130.87C339.80,-96.43 329.69,-88.49 315.92,-88.83C307.09,-89.05 287.04,-97.08 274.81,-107.73L273.48,-106.25L296.65,-76.38L297.94,-76.35C325.93,-75.66 364.79,-105.29 365.67,-141.02L365.73,-143.61L366.30,-149.19L366.09,-149.20L366.13,-150.92C366.90,-173.52 367.46,-196.12 368.23,-218.51L376.70,-230.14L352.16,-230.75C306.72,-231.01 281.86,-201.25 280.89,-162.07C280.46,-144.64 285.89,-128.99 292.24,-124.31ZM312.08,-142.78C309.49,-142.84 307.35,-151.94 307.87,-173.04C308.41,-194.78 314.76,-225.21 343.61,-224.72C342.83,-201.90 316.17,-142.68 312.08,-142.78ZM424.12,-231.13L384.37,-217.68L398.59,-200.74L396.70,-124.10L424.69,-123.41L421.78,-136.62C422.23,-154.71 438.40,-190.06 449.69,-211.11L451.40,-210.85C453.56,-202.40 455.13,-187.28 454.30,-153.70L453.53,-122.70L494.22,-121.69L478.75,-140.60L479.36,-165.57C480.45,-209.49 480.17,-215.74 475.00,-233.10L453.77,-228.24C449.10,-222.11 431.53,-191.31 422.35,-159.66ZM578.09,-168.52C578.09,-168.52 562.35,-132.72 546.85,-133.10C539.10,-133.29 533.59,-145.71 532.09,-163.62L580.46,-203.14C580.56,-207.45 574.61,-228.06 554.16,-228.56C527.68,-229.22 504.81,-192.95 504.05,-161.95C503.34,-133.32 515.68,-118.58 534.84,-118.10C555.73,-117.59 575.43,-147.91 581.48,-166.28ZM531.79,-168.80C531.65,-171.82 531.51,-175.05 531.60,-178.50C532.45,-212.94 539.30,-219.88 543.23,-222.15C546.08,-224.02 556.59,-213.42 557.12,-191.65ZM678.34,-189.31L679.01,-190.15L661.80,-226.12L659.00,-226.19C645.85,-208.42 634.64,-181.55 627.80,-157.60L629.49,-226.05L589.74,-212.60L603.97,-195.67L602.07,-119.03L628.55,-118.38L627.15,-131.55C627.69,-153.29 647.07,-196.54 650.11,-197.76ZM738.87,-189.32L738.58,-221.21L723.30,-221.58C699.62,-222.17 685.61,-204.42 685.23,-189.14C684.65,-165.67 726.79,-153.86 726.27,-132.76C726.13,-126.95 722.61,-124.24 716.16,-124.40C703.67,-124.71 693.02,-138.32 681.82,-155.62L681.12,-153.70L685.38,-116.97L703.04,-116.54C730.81,-115.85 743.31,-133.63 743.66,-147.84C744.22,-170.66 701.58,-188.52 701.96,-203.59C702.09,-208.97 703.67,-211.73 709.69,-211.58C719.16,-211.35 729.71,-202.04 737.57,-189.14ZM787.27,-186.62L770.33,-207.07L752.18,-187.48L769.34,-167.24ZM785.84,-128.71L768.90,-149.16L750.75,-129.57L767.91,-109.33ZM-138.88,49.21L-127.92,41.51L-127.86,39.36L-186.42,37.91L-186.48,40.28L-165.24,52.44L-166.11,87.96C-171.78,90.62 -179.13,91.73 -183.22,91.63C-219.82,90.72 -226.34,49.42 -225.52,16.27C-224.68,-17.53 -213.06,-34.69 -192.39,-34.18C-169.14,-33.61 -158.60,-15.68 -149.77,1.77L-146.97,1.84L-145.89,-41.86L-177.97,-42.66C-227.26,-43.87 -255.60,-4.08 -256.55,34.24C-257.59,76.43 -235.28,106.07 -198.46,106.97C-184.90,107.31 -172.70,101.80 -162.62,94.94L-143.53,106.82L-140.30,106.90ZM-113.81,63.40C-114.53,92.46 -97.29,109.69 -74.26,110.26C-44.98,110.98 -18.82,80.82 -17.99,47.24C-17.28,18.83 -33.19,0.12 -60.10,-0.54C-90.46,-1.29 -112.95,28.74 -113.81,63.40ZM-68.67,6.14C-62.21,6.30 -45.71,18.34 -46.64,56.23C-47.52,91.75 -60.52,103.49 -66.98,103.33C-73.43,103.17 -87.21,85.38 -86.33,49.65C-85.39,11.54 -75.13,5.98 -68.67,6.14ZM21.19,109.60C34.39,89.46 49.96,60.77 58.26,30.17L55.06,55.08L53.69,110.40L94.81,111.42L79.34,92.51L81.20,17.17L89.66,5.74L65.12,5.14C20.11,4.89 -5.16,33.77 -6.15,73.81C-6.58,91.25 -1.15,106.89 5.20,111.57ZM25.04,93.11C22.46,93.05 20.31,83.95 20.83,62.85C21.37,41.11 27.72,10.67 56.57,11.17C55.79,33.99 29.13,93.21 25.04,93.11ZM116.17,-12.13L116.01,-5.67L101.22,0.21L115.45,17.15L113.11,111.87L153.79,112.88L138.32,93.97L141.64,-40.36L101.94,-29.07ZM219.12,40.82L218.83,8.93L203.54,8.56C179.86,7.97 165.86,25.72 165.48,41.00C164.90,64.47 207.04,76.28 206.52,97.38C206.38,103.19 202.86,105.90 196.41,105.74C183.92,105.43 173.27,91.82 162.07,74.52L161.37,76.44L165.63,113.17L183.29,113.60C211.06,114.29 223.56,96.50 223.91,82.30C224.47,59.48 181.83,41.62 182.21,26.55C182.34,21.17 183.92,18.41 189.94,18.56C199.41,18.79 209.96,28.10 217.82,41.00Z" fill="#ffffff" stroke="#000000"/>
    <path d="M-733.10,-256.60L-731.67,-299.84L-763.41,-300.88C-812.19,-302.49 -840.56,-263.34 -841.81,-225.42C-843.18,-183.67 -821.34,-154.17 -784.92,-152.97C-753.82,-151.94 -734.45,-176.68 -724.77,-198.54L-727.69,-200.76C-734.65,-190.12 -747.24,-176.67 -771.74,-177.48C-800.07,-178.41 -812.99,-206.99 -811.80,-242.98C-810.88,-271.10 -799.91,-293.34 -776.27,-292.56C-755.18,-291.87 -741.88,-274.80 -734.38,-256.64ZM-694.74,-275.38L-694.95,-268.99L-709.63,-263.29L-695.69,-246.41L-698.78,-152.69L-658.52,-151.36L-673.68,-170.20L-669.30,-303.11L-708.68,-292.26ZM-607.18,-285.93L-624.21,-306.11L-642.75,-287.10L-625.51,-266.70ZM-615.32,-168.28L-612.41,-256.46L-651.86,-243.47L-637.92,-226.59L-640.41,-150.77L-600.16,-149.44ZM-554.47,-254.55L-593.92,-241.56L-579.98,-224.69L-582.48,-148.86L-554.79,-147.94L-557.55,-161.04C-556.96,-178.94 -540.68,-213.80 -529.33,-234.53L-527.63,-234.26C-525.57,-225.88 -524.14,-210.91 -525.23,-177.68L-526.24,-147.00L-498.77,-146.10L-501.35,-158.34L-501.19,-163.24C-498.63,-182.56 -482.83,-215.73 -472.18,-234.57C-469.88,-226.82 -468.01,-212.47 -469.21,-175.83L-470.20,-145.80L-429.94,-144.47L-445.12,-162.67L-444.31,-187.38C-442.88,-230.83 -443.10,-237.02 -448.08,-254.25L-469.13,-249.61C-473.81,-243.58 -491.20,-213.87 -500.54,-182.83L-500.33,-189.22C-498.90,-232.68 -499.12,-238.87 -504.10,-256.09L-525.15,-251.45C-529.83,-245.42 -547.46,-215.09 -556.80,-183.83ZM-393.33,-142.63C-380.10,-162.45 -364.45,-190.72 -355.99,-220.93L-359.36,-196.31L-361.17,-141.57L-320.48,-140.23L-335.64,-159.06L-333.18,-233.62L-324.71,-244.85L-348.99,-245.65C-393.54,-246.27 -418.78,-217.88 -420.09,-178.27C-420.66,-161.01 -415.41,-145.49 -409.17,-140.80ZM-389.38,-158.92C-391.94,-159.00 -393.99,-168.02 -393.30,-188.90C-392.59,-210.41 -386.05,-240.48 -357.51,-239.75C-358.46,-217.18 -385.33,-158.78 -389.38,-158.92ZM-242.78,-239.81L-242.71,-242.15L-276.57,-243.27L-275.38,-279.48L-300.64,-244.06L-315.77,-244.56L-301.70,-231.51L-303.69,-171.02C-304.33,-138.63 -288.40,-136.61 -280.73,-136.36C-267.53,-135.92 -252.15,-156.10 -245.41,-179.55L-247.72,-180.48C-252.63,-167.42 -262.75,-151.55 -269.56,-151.77C-275.32,-151.96 -279.53,-153.38 -278.76,-176.81L-277.01,-230.06ZM-161.05,-183.38C-161.05,-183.38 -176.93,-148.08 -192.27,-148.58C-199.93,-148.84 -205.28,-161.17 -206.62,-178.91L-158.43,-217.62C-158.29,-221.88 -164.02,-242.33 -184.25,-243.00C-210.45,-243.86 -233.38,-208.15 -234.39,-177.48C-235.32,-149.15 -223.22,-134.46 -204.27,-133.84C-183.60,-133.16 -163.86,-163.00 -157.71,-181.14ZM-206.88,-184.04C-206.99,-187.03 -207.10,-190.23 -206.99,-193.64C-205.86,-227.72 -199.03,-234.53 -195.12,-236.74C-192.29,-238.57 -181.97,-228.00 -181.62,-206.45ZM-93.72,-278.82L-79.56,-255.75L-82.88,-155.00L-98.53,-132.92L-48.05,-131.25C1.79,-129.61 36.23,-158.54 37.85,-207.75C38.84,-237.99 21.51,-275.03 -39.83,-277.05ZM-56.94,-139.65L-52.63,-270.65L-38.36,-270.18C-6.40,-269.12 11.15,-245.30 9.75,-202.70C8.89,-176.72 -1.13,-137.81 -44.16,-139.23ZM126.93,-173.89C126.93,-173.89 111.05,-138.59 95.72,-139.10C88.05,-139.35 82.70,-151.68 81.36,-169.42L129.55,-208.14C129.69,-212.40 123.97,-232.84 103.73,-233.51C77.53,-234.37 54.61,-198.67 53.60,-167.99C52.66,-139.66 64.76,-124.98 83.72,-124.35C104.38,-123.67 124.13,-153.52 130.27,-171.65ZM81.11,-174.55C80.99,-177.54 80.88,-180.74 81.00,-184.15C82.12,-218.23 88.95,-225.04 92.86,-227.26C95.70,-229.08 106.01,-218.51 106.37,-196.96ZM199.09,-196.04L199.07,-227.60L183.94,-228.10C160.51,-228.87 146.50,-211.42 146.01,-196.29C145.24,-173.08 186.85,-161.04 186.16,-140.17C185.97,-134.42 182.48,-131.76 176.09,-131.97C163.73,-132.38 153.30,-145.94 142.35,-163.15L141.65,-161.25L145.57,-124.88L163.04,-124.30C190.52,-123.39 203.03,-140.89 203.50,-154.95C204.24,-177.53 162.19,-195.55 162.68,-210.46C162.85,-215.78 164.44,-218.50 170.40,-218.31C179.77,-218.00 190.13,-208.70 197.81,-195.87ZM258.26,-257.42L241.23,-277.60L222.69,-258.59L239.93,-238.19ZM250.12,-139.77L253.03,-227.95L213.58,-214.97L227.52,-198.09L225.02,-122.26L265.28,-120.93ZM300.21,-119.78C313.45,-139.60 329.09,-167.87 337.55,-198.09L334.18,-173.46L332.55,-124.05C331.22,-89.97 321.15,-82.20 307.52,-82.65C298.79,-82.94 279.01,-91.05 266.99,-101.68L265.67,-100.24L288.35,-70.49L289.63,-70.45C317.32,-69.53 356.02,-98.54 357.19,-133.90L357.27,-136.45L357.88,-141.98L357.67,-141.98L357.72,-143.69C358.67,-166.05 359.41,-188.41 360.35,-210.56L368.83,-222.01L344.55,-222.81C299.58,-223.43 274.73,-194.19 273.45,-155.42C272.88,-138.17 278.13,-122.64 284.37,-117.96ZM304.16,-136.07C301.61,-136.15 299.56,-145.18 300.24,-166.05C300.95,-187.57 307.49,-217.63 336.04,-216.90C335.08,-194.33 308.21,-135.94 304.16,-136.07ZM415.76,-222.59L376.31,-209.61L390.26,-192.73L387.76,-116.90L415.45,-115.99L412.68,-129.08C413.27,-146.98 429.56,-181.84 440.90,-202.57L442.60,-202.30C444.67,-193.92 446.10,-178.95 445.00,-145.72L443.99,-115.05L484.25,-113.72L469.09,-132.56L469.90,-157.27C471.34,-200.72 471.11,-206.91 466.14,-224.13L445.09,-219.49C440.41,-213.47 422.78,-183.13 413.43,-151.88ZM567.64,-159.38C567.64,-159.38 551.76,-124.08 536.42,-124.58C528.76,-124.83 523.40,-137.16 522.07,-154.91L570.26,-193.62C570.40,-197.88 564.67,-218.33 544.44,-218.99C518.24,-219.86 495.31,-184.15 494.30,-153.48C493.37,-125.15 505.47,-110.46 524.42,-109.84C545.08,-109.16 564.83,-139.00 570.97,-157.13ZM521.81,-160.03C521.70,-163.02 521.59,-166.22 521.70,-169.63C522.82,-203.71 529.66,-210.53 533.57,-212.74C536.40,-214.57 546.72,-203.99 547.07,-182.44ZM667.01,-179.13L667.68,-179.96L650.95,-215.70L648.18,-215.79C635.02,-198.31 623.70,-171.82 616.74,-148.16L618.97,-215.90L579.52,-202.91L593.46,-186.03L590.96,-110.20L617.16,-109.34L615.89,-122.39C616.60,-143.90 636.13,-186.55 639.15,-187.73ZM726.92,-178.65L726.89,-210.21L711.77,-210.71C688.34,-211.48 674.33,-194.03 673.83,-178.91C673.07,-155.69 714.68,-143.66 713.99,-122.78C713.80,-117.03 710.30,-114.38 703.91,-114.59C691.56,-114.99 681.13,-128.56 670.18,-145.76L669.48,-143.87L673.40,-107.49L690.86,-106.91C718.34,-106.01 730.86,-123.51 731.32,-137.57C732.07,-160.14 690.01,-178.16 690.50,-193.07C690.68,-198.40 692.26,-201.12 698.22,-200.92C707.60,-200.61 717.95,-191.32 725.63,-178.48ZM774.79,-175.58L758.19,-195.96L740.07,-176.73L756.90,-156.55ZM772.91,-118.28L756.31,-138.66L738.19,-119.43L755.01,-99.26ZM-143.69,50.26L-132.78,42.73L-132.71,40.60L-190.65,38.69L-190.73,41.03L-169.81,53.24L-170.96,88.38C-176.59,90.97 -183.88,92.01 -187.92,91.88C-224.14,90.68 -230.25,49.75 -229.17,16.95C-228.07,-16.49 -216.42,-33.38 -195.98,-32.71C-172.97,-31.95 -162.68,-14.12 -154.09,3.22L-151.32,3.31L-149.89,-39.93L-181.63,-40.98C-230.41,-42.58 -258.78,-3.43 -260.03,34.49C-261.40,76.23 -239.56,105.74 -203.13,106.94C-189.71,107.38 -177.60,102.02 -167.57,95.32L-148.77,107.24L-145.57,107.34ZM-119.00,64.51C-119.95,93.26 -103.03,110.45 -80.24,111.20C-51.27,112.16 -25.13,82.52 -24.04,49.30C-23.11,21.18 -38.70,2.54 -65.33,1.66C-95.36,0.67 -117.87,30.21 -119.00,64.51ZM-73.86,8.21C-67.47,8.42 -51.23,20.47 -52.47,57.95C-53.63,93.10 -66.59,104.61 -72.98,104.40C-79.37,104.19 -92.86,86.48 -91.69,51.12C-90.45,13.42 -80.25,8.00 -73.86,8.21ZM14.22,111.33C27.46,91.51 43.10,63.23 51.56,33.02L48.19,57.65L46.39,112.39L87.07,113.73L71.91,94.89L74.37,20.34L82.84,9.10L58.56,8.30C14.01,7.69 -11.23,36.07 -12.54,75.69C-13.11,92.94 -7.86,108.47 -1.62,113.15ZM18.17,95.04C15.61,94.95 13.57,85.93 14.25,65.06C14.96,43.54 21.50,13.48 50.05,14.21C49.09,36.78 22.22,95.17 18.17,95.04ZM109.22,-8.37L109.01,-1.98L94.32,3.72L108.26,20.60L105.17,114.32L145.43,115.65L130.27,96.81L134.65,-36.10L95.27,-25.25ZM210.67,44.87L210.64,13.31L195.52,12.81C172.09,12.04 158.08,29.49 157.58,44.62C156.82,67.83 198.43,79.87 197.74,100.74C197.55,106.49 194.05,109.15 187.66,108.94C175.31,108.53 164.88,94.97 153.93,77.76L153.23,79.66L157.15,116.04L174.61,116.61C202.09,117.52 214.61,100.02 215.07,85.96C215.82,63.38 173.76,45.36 174.25,30.45C174.43,25.13 176.01,22.41 181.98,22.60C191.35,22.91 201.70,32.21 209.38,45.04Z" fill="#ffffff" stroke="#000000"/>
    <path d="M-729.16,-257.27L-727.40,-300.05L-758.79,-301.34C-807.05,-303.33 -835.44,-264.82 -836.99,-227.31C-838.69,-186.01 -817.31,-156.63 -781.28,-155.15C-750.51,-153.88 -731.15,-178.20 -721.40,-199.75L-724.26,-201.98C-731.23,-191.50 -743.81,-178.30 -768.04,-179.30C-796.07,-180.45 -808.62,-208.83 -807.15,-244.44C-806.01,-272.26 -794.97,-294.18 -771.58,-293.22C-750.72,-292.36 -737.70,-275.36 -730.42,-257.33ZM-691.05,-275.55L-691.31,-269.23L-705.89,-263.70L-692.23,-246.89L-696.04,-154.17L-656.22,-152.53L-671.06,-171.30L-665.65,-302.79L-704.71,-292.36ZM-604.31,-285.27L-621.01,-305.38L-639.50,-286.72L-622.61,-266.40ZM-613.33,-168.92L-609.73,-256.16L-648.88,-243.63L-635.22,-226.81L-638.31,-151.79L-598.48,-150.15ZM-552.42,-253.80L-591.56,-241.27L-577.90,-224.45L-580.99,-149.43L-553.60,-148.30L-556.23,-161.29C-555.50,-178.99 -539.10,-213.35 -527.70,-233.78L-526.02,-233.50C-524.05,-225.19 -522.76,-210.36 -524.11,-177.49L-525.36,-147.14L-498.18,-146.02L-500.63,-158.16L-500.43,-163.00C-497.75,-182.10 -481.84,-214.79 -471.15,-233.35C-468.93,-225.66 -467.20,-211.45 -468.69,-175.20L-469.91,-145.49L-430.09,-143.85L-444.96,-161.98L-443.95,-186.43C-442.18,-229.41 -442.35,-235.54 -447.14,-252.63L-468.01,-248.21C-472.68,-242.28 -490.14,-213.03 -499.63,-182.39L-499.37,-188.71C-497.60,-231.70 -497.77,-237.83 -502.56,-254.91L-523.43,-250.49C-528.10,-244.56 -545.80,-214.68 -555.30,-183.84ZM-393.87,-141.73C-380.61,-161.23 -364.90,-189.08 -356.28,-218.91L-359.82,-194.57L-362.05,-140.42L-321.80,-138.76L-336.65,-157.52L-333.61,-231.28L-325.14,-242.32L-349.16,-243.31C-393.23,-244.29 -418.45,-216.41 -420.06,-177.21C-420.76,-160.14 -415.70,-144.74 -409.56,-140.05ZM-389.83,-157.81C-392.36,-157.92 -394.31,-166.86 -393.46,-187.51C-392.58,-208.80 -385.87,-238.49 -357.63,-237.54C-358.76,-215.21 -385.83,-157.65 -389.83,-157.81ZM-244.10,-236.67L-244.01,-238.98L-277.51,-240.36L-276.04,-276.19L-301.32,-241.34L-316.29,-241.96L-302.47,-228.94L-304.93,-169.09C-305.83,-137.05 -290.09,-134.92 -282.50,-134.61C-269.44,-134.07 -254.06,-153.91 -247.19,-177.06L-249.48,-178.00C-254.44,-165.11 -264.58,-149.49 -271.32,-149.77C-277.01,-150.00 -281.18,-151.44 -280.22,-174.62L-278.05,-227.30ZM-163.69,-180.16C-163.69,-180.16 -179.69,-145.36 -194.86,-145.98C-202.44,-146.30 -207.64,-158.54 -208.81,-176.11L-160.82,-214.03C-160.64,-218.24 -166.14,-238.52 -186.16,-239.35C-212.08,-240.41 -235.05,-205.26 -236.30,-174.92C-237.46,-146.89 -225.61,-132.26 -206.85,-131.49C-186.41,-130.65 -166.63,-160.02 -160.40,-177.92ZM-209.03,-181.19C-209.12,-184.14 -209.20,-187.31 -209.06,-190.69C-207.67,-224.40 -200.85,-231.09 -196.96,-233.25C-194.15,-235.03 -184.03,-224.48 -183.85,-203.16ZM-96.29,-274.06L-82.46,-251.12L-86.56,-151.45L-102.23,-129.72L-52.29,-127.66C-2.98,-125.63 31.33,-153.98 33.33,-202.65C34.56,-232.58 17.71,-269.37 -42.97,-271.87ZM-61.02,-136.04L-55.68,-265.63L-41.57,-265.05C-9.96,-263.75 7.22,-240.04 5.48,-197.89C4.42,-172.18 -5.81,-133.77 -48.38,-135.52ZM121.21,-168.43C121.21,-168.43 105.21,-133.63 90.04,-134.25C82.45,-134.56 77.26,-146.81 76.08,-164.38L124.08,-202.29C124.25,-206.51 118.76,-226.79 98.74,-227.61C72.82,-228.68 49.84,-193.53 48.59,-163.19C47.44,-135.16 59.29,-120.53 78.04,-119.76C98.48,-118.92 118.27,-148.29 124.49,-166.18ZM75.87,-169.45C75.78,-172.41 75.70,-175.58 75.84,-178.95C77.22,-212.67 84.04,-219.35 87.93,-221.51C90.75,-223.30 100.87,-212.75 101.05,-191.42ZM192.80,-189.76L193.03,-220.99L178.07,-221.60C154.89,-222.56 140.88,-205.40 140.27,-190.44C139.32,-167.47 180.40,-155.23 179.55,-134.58C179.31,-128.89 175.83,-126.29 169.51,-126.55C157.29,-127.05 147.08,-140.56 136.38,-157.67L135.67,-155.80L139.26,-119.77L156.53,-119.06C183.72,-117.94 196.25,-135.15 196.82,-149.06C197.74,-171.40 156.27,-189.57 156.88,-204.32C157.10,-209.59 158.68,-212.27 164.58,-212.03C173.86,-211.64 184.03,-202.36 191.52,-189.60ZM251.85,-250.01L235.16,-270.12L216.66,-251.46L233.55,-231.14ZM242.83,-133.66L246.43,-220.90L207.28,-208.37L220.94,-191.55L217.85,-116.53L257.68,-114.89ZM292.24,-113.47C305.50,-132.98 321.21,-160.83 329.82,-190.66L326.29,-166.32L324.28,-117.43C322.68,-83.72 312.65,-76.11 299.17,-76.67C290.53,-77.02 271.02,-85.22 259.22,-95.83L257.89,-94.41L280.10,-64.79L281.37,-64.74C308.76,-63.61 347.29,-92.00 348.73,-126.98L348.84,-129.50L349.48,-134.97L349.27,-134.97L349.34,-136.66C350.46,-158.78 351.37,-180.90 352.49,-202.81L360.97,-214.07L336.95,-215.06C292.45,-216.05 267.63,-187.31 266.05,-148.96C265.35,-131.89 270.41,-116.48 276.55,-111.80ZM296.28,-129.56C293.75,-129.66 291.80,-138.61 292.65,-159.26C293.52,-180.54 300.23,-210.24 328.48,-209.29C327.35,-186.96 300.28,-129.39 296.28,-129.56ZM407.42,-214.27L368.27,-201.74L381.94,-184.92L378.85,-109.90L406.24,-108.78L403.61,-121.76C404.34,-139.46 420.74,-173.82 432.13,-194.25L433.81,-193.97C435.79,-185.66 437.08,-170.83 435.73,-137.96L434.48,-107.61L474.30,-105.97L459.46,-124.74L460.46,-149.18C462.23,-192.17 462.06,-198.30 457.28,-215.38L436.41,-210.96C431.73,-205.03 414.04,-175.16 404.54,-144.31ZM557.19,-150.47C557.19,-150.47 541.19,-115.67 526.02,-116.30C518.43,-116.61 513.24,-128.85 512.06,-146.42L560.06,-184.34C560.24,-188.55 554.74,-208.83 534.72,-209.66C508.80,-210.73 485.82,-175.58 484.57,-145.23C483.42,-117.21 495.27,-102.58 514.02,-101.80C534.46,-100.96 554.25,-130.33 560.47,-148.23ZM511.85,-151.50C511.76,-154.46 511.68,-157.63 511.82,-161.00C513.21,-194.71 520.03,-201.40 523.91,-203.56C526.73,-205.34 536.85,-194.79 537.03,-173.47ZM655.69,-169.21L656.36,-170.03L640.09,-205.53L637.35,-205.64C624.19,-188.45 612.77,-162.33 605.69,-138.98L608.45,-205.99L569.30,-193.46L582.96,-176.64L579.87,-101.63L605.79,-100.56L604.64,-113.48C605.51,-134.76 625.19,-176.80 628.19,-177.95ZM714.96,-168.25L715.19,-199.48L700.23,-200.10C677.05,-201.05 663.05,-183.90 662.43,-168.94C661.49,-145.97 702.57,-133.72 701.72,-113.07C701.48,-107.38 698.00,-104.78 691.68,-105.04C679.45,-105.55 669.24,-119.05 658.55,-136.17L657.84,-134.30L661.42,-98.27L678.70,-97.56C705.89,-96.44 718.41,-113.65 718.99,-127.56C719.91,-149.89 678.44,-168.07 679.05,-182.82C679.26,-188.09 680.85,-190.76 686.75,-190.52C696.02,-190.14 706.20,-180.85 713.69,-168.09ZM762.32,-164.82L746.05,-185.12L727.97,-166.24L744.45,-146.14ZM759.98,-108.14L743.72,-128.44L725.63,-109.55L742.11,-89.46ZM-148.41,51.18L-137.56,43.81L-137.47,41.71L-194.79,39.35L-194.88,41.66L-174.28,53.91L-175.71,88.68C-181.30,91.19 -188.52,92.16 -192.52,92.00C-228.34,90.52 -234.06,49.97 -232.73,17.52C-231.36,-15.56 -219.70,-32.18 -199.47,-31.35C-176.72,-30.41 -166.68,-12.69 -158.31,4.54L-155.57,4.65L-153.81,-38.12L-185.21,-39.41C-233.47,-41.40 -261.86,-2.89 -263.40,34.62C-265.10,75.92 -243.73,105.30 -207.69,106.78C-194.42,107.33 -182.38,102.12 -172.41,95.57L-153.90,107.52L-150.74,107.65ZM-124.10,65.48C-125.27,93.92 -108.66,111.07 -86.12,112.00C-57.46,113.18 -31.35,84.07 -30.00,51.20C-28.85,23.38 -44.13,4.81 -70.47,3.73C-100.18,2.50 -122.70,31.55 -124.10,65.48ZM-78.97,10.13C-72.65,10.39 -56.68,22.45 -58.21,59.53C-59.64,94.30 -72.56,105.59 -78.88,105.33C-85.20,105.07 -98.40,87.43 -96.96,52.45C-95.43,15.15 -85.29,9.87 -78.97,10.13ZM7.35,112.89C20.61,93.39 36.32,65.54 44.94,35.71L41.40,60.05L39.17,114.20L79.42,115.86L64.57,97.10L67.61,23.34L76.09,12.30L52.06,11.31C7.99,10.34 -17.22,38.21 -18.84,77.41C-19.54,94.48 -14.47,109.88 -8.34,114.57ZM11.39,96.81C8.86,96.70 6.91,87.76 7.76,67.11C8.64,45.82 15.35,16.13 43.59,17.08C42.46,39.41 15.40,96.97 11.39,96.81ZM102.33,-4.78L102.07,1.55L87.49,7.07L101.15,23.88L97.33,116.60L137.16,118.24L122.31,99.47L127.73,-32.02L88.67,-21.59ZM202.29,48.73L202.52,17.50L187.56,16.89C164.38,15.93 150.37,33.09 149.76,48.05C148.81,71.02 189.89,83.26 189.04,103.91C188.81,109.60 185.32,112.20 179.00,111.94C166.78,111.44 156.57,97.93 145.88,80.82L145.17,82.69L148.75,118.72L166.03,119.43C193.21,120.55 205.74,103.33 206.31,89.43C207.23,67.09 165.76,48.92 166.37,34.17C166.59,28.90 168.18,26.22 174.08,26.46C183.35,26.84 193.52,36.13 201.02,48.89Z" fill="#ffffff" stroke="#000000"/>
    <path d="M-725.14,-257.96L-723.04,-300.27L-754.10,-301.80C-801.83,-304.16 -830.24,-266.29 -832.07,-229.19C-834.09,-188.34 -813.18,-159.10 -777.54,-157.34C-747.11,-155.83 -727.75,-179.74 -717.92,-200.98L-720.74,-203.21C-727.72,-192.90 -740.27,-179.94 -764.24,-181.12C-791.96,-182.49 -804.15,-210.68 -802.41,-245.90C-801.05,-273.41 -789.95,-295.01 -766.82,-293.87C-746.19,-292.85 -733.44,-275.92 -726.39,-258.02ZM-687.28,-275.73L-687.59,-269.47L-702.06,-264.13L-688.68,-247.38L-693.21,-155.67L-653.82,-153.73L-668.36,-172.41L-661.93,-302.47L-700.66,-292.48ZM-601.38,-284.64L-617.73,-304.67L-636.19,-286.37L-619.64,-266.12ZM-611.25,-169.59L-606.98,-255.88L-645.81,-243.80L-632.43,-227.05L-636.10,-152.85L-596.71,-150.90ZM-550.29,-253.08L-589.12,-241.00L-575.74,-224.25L-579.41,-150.05L-552.31,-148.71L-554.81,-161.58C-553.95,-179.09 -537.44,-212.95 -526.00,-233.07L-524.34,-232.78C-522.45,-224.54 -521.29,-209.86 -522.90,-177.34L-524.39,-147.33L-497.50,-146.00L-499.83,-158.02L-499.59,-162.82C-496.78,-181.69 -480.77,-213.91 -470.05,-232.19C-467.92,-224.56 -466.31,-210.48 -468.09,-174.63L-469.54,-145.24L-430.15,-143.30L-444.71,-161.36L-443.52,-185.54C-441.42,-228.06 -441.54,-234.12 -446.13,-251.06L-466.81,-246.86C-471.49,-241.03 -489.00,-212.23 -498.64,-181.99L-498.34,-188.25C-496.23,-230.77 -496.35,-236.83 -500.95,-253.77L-521.63,-249.57C-526.31,-243.74 -544.06,-214.33 -553.71,-183.88ZM-394.33,-140.90C-381.05,-160.09 -365.28,-187.52 -356.51,-216.96L-360.21,-192.91L-362.86,-139.34L-323.05,-137.38L-337.58,-156.06L-333.98,-229.01L-325.50,-239.88L-349.26,-241.05C-392.86,-242.37 -418.04,-214.99 -419.95,-176.22C-420.79,-159.34 -415.90,-144.06 -409.87,-139.37ZM-390.20,-156.78C-392.70,-156.91 -394.56,-165.78 -393.55,-186.20C-392.51,-207.25 -385.63,-236.58 -357.69,-235.41C-358.99,-213.33 -386.24,-156.59 -390.20,-156.78ZM-245.37,-233.62L-245.26,-235.91L-278.40,-237.55L-276.65,-272.98L-301.95,-238.71L-316.75,-239.44L-303.18,-226.45L-306.11,-167.25C-307.26,-135.55 -291.70,-133.32 -284.19,-132.95C-271.27,-132.31 -255.89,-151.82 -248.91,-174.66L-251.16,-175.61C-256.18,-162.90 -266.34,-147.53 -273.01,-147.86C-278.64,-148.14 -282.75,-149.59 -281.61,-172.52L-279.04,-224.63ZM-166.26,-177.05C-166.26,-177.05 -182.38,-142.75 -197.38,-143.49C-204.89,-143.86 -209.93,-156.02 -210.95,-173.41L-163.15,-210.54C-162.94,-214.71 -168.21,-234.82 -188.02,-235.80C-213.65,-237.06 -236.67,-202.47 -238.16,-172.46C-239.53,-144.74 -227.92,-130.17 -209.37,-129.25C-189.15,-128.25 -169.34,-157.15 -163.03,-174.81ZM-211.12,-178.44C-211.18,-181.36 -211.24,-184.50 -211.07,-187.84C-209.42,-221.18 -202.62,-227.74 -198.76,-229.85C-195.95,-231.59 -186.03,-221.07 -186.03,-199.97ZM-98.81,-269.41L-85.31,-246.60L-90.19,-148.01L-105.87,-126.64L-56.47,-124.20C-7.70,-121.79 26.48,-149.56 28.86,-197.71C30.32,-227.30 13.95,-263.84 -46.08,-266.81ZM-65.04,-132.56L-58.71,-260.74L-44.74,-260.05C-13.48,-258.51 3.32,-234.90 1.26,-193.22C0.01,-167.79 -10.43,-129.86 -52.54,-131.94ZM115.53,-163.13C115.53,-163.13 99.41,-128.82 84.41,-129.56C76.90,-129.93 71.86,-142.09 70.84,-159.48L118.64,-196.61C118.85,-200.78 113.58,-220.89 93.78,-221.87C68.14,-223.13 45.12,-188.54 43.63,-158.53C42.26,-130.81 53.87,-116.24 72.42,-115.32C92.64,-114.32 112.45,-143.22 118.76,-160.88ZM70.67,-164.51C70.61,-167.44 70.56,-170.57 70.72,-173.91C72.37,-207.25 79.17,-213.81 83.04,-215.92C85.84,-217.66 95.76,-207.14 95.77,-186.04ZM186.53,-183.64L187.02,-214.54L172.22,-215.27C149.29,-216.41 135.30,-199.55 134.56,-184.75C133.44,-162.03 173.99,-149.58 172.98,-129.15C172.70,-123.53 169.23,-120.98 162.98,-121.29C150.89,-121.89 140.90,-135.34 130.46,-152.36L129.74,-150.51L132.99,-114.83L150.08,-113.99C176.97,-112.66 189.50,-129.59 190.18,-143.35C191.28,-165.44 150.39,-183.76 151.12,-198.35C151.37,-203.56 152.97,-206.20 158.80,-205.91C167.97,-205.45 177.96,-196.19 185.27,-183.50ZM245.45,-242.78L229.10,-262.81L210.64,-244.50L227.19,-224.26ZM235.59,-127.73L239.85,-214.02L201.02,-201.94L214.40,-185.19L210.73,-110.99L250.12,-109.04ZM284.31,-107.35C297.58,-126.55 313.35,-153.97 322.12,-183.42L318.43,-159.36L316.03,-111.01C314.18,-77.67 304.20,-70.23 290.86,-70.88C282.31,-71.31 263.08,-79.57 251.49,-90.17L250.17,-88.78L271.90,-59.29L273.15,-59.22C300.25,-57.88 338.60,-85.66 340.31,-120.26L340.43,-122.76L341.12,-128.16L340.91,-128.17L340.99,-129.83C342.28,-151.71 343.37,-173.59 344.64,-195.26L353.13,-206.33L329.37,-207.50C285.35,-208.84 260.56,-180.61 258.68,-142.68C257.85,-125.79 262.73,-110.51 268.77,-105.82ZM288.43,-123.24C285.93,-123.36 284.07,-132.23 285.08,-152.65C286.12,-173.71 293.00,-203.03 320.94,-201.86C319.64,-179.78 292.39,-123.04 288.43,-123.24ZM399.09,-206.15L360.26,-194.07L373.64,-177.32L369.97,-103.12L397.06,-101.78L394.57,-114.65C395.43,-132.16 411.94,-166.02 423.38,-186.14L425.04,-185.85C426.93,-177.61 428.08,-162.93 426.48,-130.41L424.99,-100.40L464.38,-98.45L449.85,-117.14L451.04,-141.32C453.14,-183.84 453.03,-189.90 448.43,-206.84L427.75,-202.64C423.07,-196.81 405.32,-167.40 395.67,-136.95ZM546.76,-141.81C546.76,-141.81 530.65,-107.50 515.64,-108.25C508.14,-108.62 503.10,-120.78 502.08,-138.17L549.88,-175.29C550.08,-179.46 544.81,-199.57 525.01,-200.55C499.37,-201.82 476.35,-167.23 474.87,-137.21C473.50,-109.49 485.10,-94.92 503.65,-94.00C523.87,-93.01 543.69,-121.90 549.99,-139.56ZM501.91,-143.19C501.84,-146.12 501.79,-149.26 501.95,-152.59C503.60,-185.94 510.40,-192.50 514.27,-194.60C517.07,-196.35 527.00,-185.83 527.00,-164.72ZM644.37,-159.55L645.04,-160.35L629.23,-195.61L626.52,-195.74C613.36,-178.84 601.85,-153.08 594.65,-130.04L597.93,-196.32L559.09,-184.24L572.47,-167.49L568.81,-93.29L594.44,-92.02L593.40,-104.82C594.44,-125.87 614.25,-167.31 617.23,-168.41ZM703.01,-158.11L703.50,-189.01L688.70,-189.74C665.77,-190.88 651.77,-174.02 651.04,-159.22C649.92,-136.50 690.46,-124.05 689.45,-103.62C689.18,-98.00 685.71,-95.45 679.45,-95.76C667.37,-96.36 657.38,-109.81 646.93,-126.83L646.22,-124.98L649.47,-89.30L666.56,-88.46C693.44,-87.13 705.98,-104.06 706.66,-117.82C707.75,-139.91 666.87,-158.23 667.59,-172.82C667.85,-178.03 669.44,-180.67 675.28,-180.38C684.45,-179.92 694.44,-170.65 701.75,-157.97ZM749.84,-154.34L733.91,-174.55L715.86,-156.02L732.01,-136.00ZM747.06,-98.27L731.14,-118.49L713.09,-99.95L729.23,-79.93ZM-153.04,51.96L-142.23,44.77L-142.13,42.68L-198.82,39.88L-198.94,42.17L-178.65,54.46L-180.35,88.85C-185.90,91.29 -193.05,92.19 -197.01,92.00C-232.44,90.24 -237.77,50.07 -236.18,17.98C-234.57,-14.75 -222.89,-31.09 -202.88,-30.10C-180.37,-28.99 -170.59,-11.37 -162.45,5.74L-159.74,5.88L-157.65,-36.43L-188.71,-37.97C-236.44,-40.33 -264.84,-2.45 -266.68,34.65C-268.70,75.50 -247.78,104.74 -212.14,106.50C-199.01,107.15 -187.06,102.10 -177.14,95.69L-158.92,107.67L-155.80,107.82ZM-129.09,66.31C-130.48,94.45 -114.19,111.55 -91.89,112.65C-63.55,114.05 -37.48,85.47 -35.87,52.95C-34.51,25.44 -49.48,6.94 -75.53,5.65C-104.92,4.20 -127.43,32.75 -129.09,66.31ZM-83.99,11.92C-77.74,12.23 -62.03,24.29 -63.85,60.97C-65.55,95.36 -78.42,106.42 -84.67,106.12C-90.93,105.81 -103.85,88.24 -102.14,53.64C-100.32,16.75 -90.24,11.61 -83.99,11.92ZM0.58,114.30C13.86,95.11 29.63,67.68 38.40,38.24L34.70,62.29L32.06,115.85L71.87,117.82L57.33,99.14L60.93,26.19L69.41,15.32L45.65,14.15C2.05,12.83 -23.12,40.21 -25.04,78.98C-25.87,95.86 -20.99,111.14 -14.95,115.83ZM4.71,98.42C2.21,98.29 0.35,89.42 1.36,69.00C2.40,47.95 9.28,18.62 37.22,19.79C35.92,41.87 8.67,98.61 4.71,98.42ZM95.52,-1.35L95.21,4.90L80.74,10.24L94.12,26.99L89.58,118.70L128.97,120.65L114.44,101.96L120.87,-28.10L82.14,-18.10ZM193.98,52.40L194.47,21.51L179.67,20.77C156.74,19.64 142.74,36.50 142.01,51.30C140.89,74.02 181.44,86.47 180.43,106.89C180.15,112.52 176.68,115.06 170.43,114.76C158.34,114.16 148.35,100.71 137.90,83.69L137.19,85.53L140.44,121.21L157.53,122.06C184.42,123.39 196.95,106.46 197.63,92.70C198.72,70.61 157.84,52.29 158.56,37.70C158.82,32.49 160.42,29.85 166.25,30.14C175.42,30.59 185.41,39.86 192.72,52.55Z" fill="#ffffff" stroke="#000000"/>
    <path d="M-721.03,-258.65L-718.61,-300.49L-749.33,-302.26C-796.53,-304.98 -824.94,-267.74 -827.06,-231.06C-829.39,-190.66 -808.94,-161.56 -773.69,-159.53C-743.60,-157.79 -724.25,-181.28 -714.36,-202.22L-717.12,-204.45C-724.12,-194.30 -736.64,-181.58 -760.34,-182.95C-787.76,-184.53 -799.59,-212.51 -797.58,-247.35C-796.01,-274.55 -784.85,-295.83 -761.97,-294.51C-741.57,-293.33 -729.10,-276.48 -722.26,-258.72ZM-683.43,-275.92L-683.78,-269.73L-698.14,-264.57L-685.04,-247.89L-690.28,-157.19L-651.32,-154.95L-665.55,-173.55L-658.13,-302.17L-696.53,-292.60ZM-598.38,-284.04L-614.39,-303.99L-632.80,-286.03L-616.59,-265.86ZM-609.07,-170.30L-604.15,-255.63L-642.67,-243.99L-629.57,-227.31L-633.80,-153.94L-594.84,-151.69ZM-548.09,-252.39L-586.60,-240.76L-573.50,-224.08L-577.74,-150.70L-550.94,-149.16L-553.31,-161.91C-552.31,-179.22 -535.70,-212.59 -524.22,-232.40L-522.58,-232.10C-520.78,-223.93 -519.75,-209.40 -521.61,-177.24L-523.32,-147.56L-496.73,-146.03L-498.94,-157.94L-498.67,-162.69C-495.73,-181.34 -479.63,-213.08 -468.87,-231.07C-466.83,-223.51 -465.35,-209.57 -467.40,-174.12L-469.08,-145.05L-430.12,-142.81L-444.39,-160.80L-443.01,-184.70C-440.58,-226.75 -440.65,-232.75 -445.06,-249.55L-465.55,-245.56C-470.23,-239.84 -487.79,-211.48 -497.57,-181.65L-497.22,-187.83C-494.79,-229.88 -494.86,-235.88 -499.27,-252.68L-519.76,-248.69C-524.44,-242.96 -542.24,-214.00 -552.03,-183.96ZM-394.70,-140.14C-381.41,-159.02 -365.59,-186.03 -356.67,-215.09L-360.52,-191.32L-363.58,-138.35L-324.21,-136.08L-338.44,-154.68L-334.28,-226.82L-325.81,-237.50L-349.30,-238.86C-392.43,-240.52 -417.56,-213.64 -419.77,-175.30C-420.73,-158.60 -416.02,-143.44 -410.09,-138.76ZM-390.49,-155.82C-392.96,-155.97 -394.73,-164.76 -393.57,-184.95C-392.37,-205.77 -385.32,-234.73 -357.69,-233.34C-359.15,-211.51 -386.57,-155.60 -390.49,-155.82ZM-246.58,-230.66L-246.45,-232.93L-279.22,-234.82L-277.20,-269.86L-302.51,-236.16L-317.15,-237.00L-303.83,-224.03L-307.21,-165.50C-308.61,-134.14 -293.23,-131.81 -285.81,-131.38C-273.03,-130.64 -257.66,-149.82 -250.56,-172.36L-252.78,-173.32C-257.85,-160.79 -268.03,-145.66 -274.62,-146.04C-280.19,-146.36 -284.24,-147.83 -282.93,-170.51L-279.96,-222.04ZM-168.78,-174.06C-168.78,-174.06 -185.00,-140.25 -199.84,-141.10C-207.26,-141.53 -212.15,-153.60 -213.02,-170.82L-165.42,-207.16C-165.18,-211.28 -170.24,-231.22 -189.82,-232.35C-215.17,-233.81 -238.23,-199.78 -239.94,-170.10C-241.52,-142.68 -230.16,-128.17 -211.81,-127.11C-191.82,-125.96 -171.98,-154.39 -165.60,-171.80ZM-213.14,-175.79C-213.18,-178.69 -213.21,-181.79 -213.02,-185.09C-211.12,-218.07 -204.34,-224.50 -200.49,-226.55C-197.71,-228.25 -187.97,-217.76 -188.14,-196.89ZM-101.29,-264.88L-88.12,-242.20L-93.75,-144.70L-109.44,-123.69L-60.59,-120.87C-12.36,-118.09 21.68,-145.28 24.43,-192.90C26.12,-222.17 10.22,-258.45 -49.14,-261.87ZM-69.00,-129.21L-61.69,-255.98L-47.88,-255.18C-16.96,-253.40 -0.53,-229.91 -2.91,-188.68C-4.36,-163.54 -15.00,-126.10 -56.63,-128.50ZM109.89,-157.98C109.89,-157.98 93.67,-124.17 78.83,-125.03C71.41,-125.46 66.52,-137.53 65.65,-154.74L113.25,-191.08C113.49,-195.20 108.43,-215.14 88.85,-216.27C63.50,-217.73 40.44,-183.70 38.73,-154.02C37.15,-126.61 48.51,-112.09 66.86,-111.04C86.85,-109.88 106.69,-138.31 113.07,-155.73ZM65.53,-159.71C65.49,-162.61 65.46,-165.71 65.65,-169.01C67.55,-201.99 74.34,-208.42 78.18,-210.48C80.96,-212.18 90.70,-201.69 90.53,-180.81ZM180.31,-177.70L181.04,-208.26L166.40,-209.11C143.73,-210.42 129.75,-193.85 128.90,-179.22C127.61,-156.75 167.62,-144.10 166.45,-123.90C166.13,-118.34 162.68,-115.85 156.49,-116.21C144.54,-116.90 134.76,-130.28 124.57,-147.21L123.85,-145.39L126.77,-110.06L143.67,-109.09C170.26,-107.55 182.81,-124.20 183.59,-137.80C184.85,-159.65 144.55,-178.11 145.39,-192.54C145.68,-197.69 147.28,-200.29 153.05,-199.95C162.12,-199.43 171.93,-190.18 179.06,-177.57ZM239.08,-235.73L223.06,-255.68L204.66,-237.72L220.86,-217.55ZM228.38,-121.99L233.30,-207.32L194.79,-195.68L207.89,-179.00L203.65,-105.63L242.61,-103.38ZM276.41,-101.43C289.70,-120.31 305.53,-147.31 314.45,-176.37L310.59,-152.61L307.83,-104.79C305.73,-71.82 295.79,-64.53 282.60,-65.30C274.15,-65.78 255.19,-74.11 243.81,-84.70L242.49,-83.33L263.75,-53.97L264.99,-53.90C291.78,-52.36 329.95,-79.52 331.93,-113.74L332.07,-116.21L332.79,-121.55L332.58,-121.56L332.68,-123.21C334.13,-144.84 335.38,-166.48 336.83,-187.90L345.31,-198.79L321.81,-200.14C278.28,-201.83 253.51,-174.10 251.35,-136.58C250.39,-119.89 255.10,-104.73 261.03,-100.04ZM280.63,-117.11C278.15,-117.25 276.39,-126.04 277.55,-146.24C278.75,-167.06 285.80,-196.02 313.43,-194.63C311.96,-172.79 284.54,-116.88 280.63,-117.11ZM390.78,-198.23L352.26,-186.60L365.36,-169.92L361.13,-96.54L387.92,-95.00L385.56,-107.75C386.56,-125.06 403.16,-158.43 414.65,-178.24L416.28,-177.94C418.09,-169.77 419.11,-155.24 417.26,-123.08L415.54,-93.40L454.50,-91.16L440.27,-109.76L441.65,-133.67C444.07,-175.72 444.01,-181.72 439.60,-198.52L419.10,-194.53C414.43,-188.80 396.63,-159.84 386.83,-129.80ZM536.35,-133.38C536.35,-133.38 520.13,-99.57 505.29,-100.43C497.87,-100.86 492.98,-112.93 492.11,-130.14L539.70,-166.48C539.94,-170.60 534.89,-190.54 515.31,-191.67C489.96,-193.13 466.90,-159.10 465.19,-129.42C463.60,-102.01 474.97,-87.49 493.31,-86.44C513.31,-85.28 533.14,-113.71 539.53,-131.13ZM491.98,-135.11C491.95,-138.01 491.92,-141.11 492.11,-144.41C494.01,-177.39 500.79,-183.82 504.63,-185.88C507.42,-187.58 517.15,-177.09 516.98,-156.21ZM633.06,-150.13L633.73,-150.92L618.38,-185.93L615.70,-186.09C602.54,-169.47 590.94,-144.09 583.63,-121.35L587.41,-186.89L548.90,-175.26L562.00,-158.58L557.76,-85.20L583.12,-83.74L582.19,-96.40C583.39,-117.22 603.33,-158.05 606.28,-159.12ZM691.07,-148.24L691.80,-178.80L677.16,-179.64C654.49,-180.95 640.50,-164.39 639.66,-149.75C638.36,-127.29 678.37,-114.64 677.21,-94.44C676.89,-88.87 673.44,-86.38 667.25,-86.74C655.30,-87.43 645.52,-100.82 635.33,-117.74L634.61,-115.92L637.53,-80.60L654.43,-79.62C681.02,-78.09 693.56,-94.74 694.35,-108.34C695.61,-130.19 655.31,-148.64 656.15,-163.07C656.44,-168.23 658.04,-170.82 663.81,-170.49C672.88,-169.97 682.69,-160.71 689.82,-148.10ZM737.36,-144.12L721.77,-164.25L703.76,-146.06L719.57,-126.12ZM734.16,-88.67L718.57,-108.80L700.56,-90.61L716.37,-70.67ZM-157.56,52.63L-146.81,45.60L-146.69,43.53L-202.76,40.30L-202.89,42.57L-182.92,54.89L-184.88,88.90C-190.39,91.27 -197.47,92.10 -201.39,91.87C-236.43,89.85 -241.37,50.07 -239.54,18.33C-237.67,-14.03 -225.99,-30.11 -206.21,-28.97C-183.94,-27.69 -174.41,-10.18 -166.50,6.82L-163.82,6.98L-161.40,-34.87L-192.11,-36.64C-239.31,-39.36 -267.73,-2.12 -269.84,34.57C-272.17,74.97 -251.72,104.07 -216.48,106.10C-203.49,106.85 -191.63,101.95 -181.76,95.69L-163.84,107.69L-160.74,107.87ZM-133.98,67.02C-135.59,94.84 -119.62,111.89 -97.56,113.17C-69.53,114.78 -43.51,86.71 -41.65,54.56C-40.08,27.35 -54.74,8.93 -80.50,7.44C-109.56,5.76 -132.07,33.83 -133.98,67.02ZM-88.92,13.57C-82.74,13.93 -67.30,25.99 -69.39,62.26C-71.36,96.27 -84.18,107.11 -90.37,106.76C-96.55,106.40 -109.19,88.92 -107.22,54.70C-105.11,18.22 -95.10,13.22 -88.92,13.57ZM-6.08,115.55C7.21,96.67 23.03,69.66 31.95,40.60L28.10,64.37L25.04,117.34L64.41,119.61L50.18,101.01L54.34,28.87L62.81,18.19L39.32,16.83C-3.81,15.17 -28.94,42.06 -31.15,80.39C-32.11,97.09 -27.40,112.25 -21.47,116.94ZM-1.87,99.87C-4.34,99.72 -6.11,90.94 -4.95,70.74C-3.75,49.92 3.30,20.96 30.93,22.35C29.47,44.18 2.05,100.09 -1.87,99.87ZM88.78,1.90L88.42,8.09L74.06,13.25L87.16,29.93L81.93,120.63L120.88,122.87L106.65,104.27L114.07,-24.35L75.68,-14.78ZM185.76,55.89L186.48,25.32L171.85,24.48C149.18,23.17 135.19,39.74 134.35,54.37C133.05,76.84 173.06,89.49 171.90,109.68C171.58,115.25 168.12,117.74 161.94,117.38C149.99,116.69 140.21,103.31 130.02,86.38L129.29,88.20L132.22,123.53L149.12,124.50C175.71,126.04 188.25,109.39 189.04,95.78C190.30,73.94 150.00,55.48 150.83,41.05C151.13,35.90 152.73,33.30 158.50,33.64C167.57,34.16 177.38,43.41 184.51,56.02Z" fill="#ffffff" stroke="#000000"/>
    <path d="M-716.83,-259.34L-714.11,-300.71L-744.47,-302.71C-791.14,-305.79 -819.55,-269.18 -821.94,-232.91C-824.58,-192.96 -804.58,-164.01 -769.74,-161.71C-739.98,-159.75 -720.65,-182.83 -710.69,-203.46L-713.41,-205.69C-720.42,-195.71 -732.91,-183.23 -756.34,-184.78C-783.45,-186.57 -794.92,-214.34 -792.65,-248.78C-790.88,-275.68 -779.67,-296.64 -757.05,-295.15C-736.87,-293.82 -724.67,-277.05 -718.06,-259.42ZM-679.50,-276.12L-679.90,-270.00L-694.15,-265.01L-681.33,-248.40L-687.24,-158.73L-648.72,-156.19L-662.65,-174.71L-654.26,-301.88L-692.32,-292.72ZM-595.30,-283.46L-610.98,-303.32L-629.33,-285.70L-613.46,-265.62ZM-606.81,-171.03L-601.24,-255.40L-639.44,-244.21L-626.62,-227.60L-631.40,-155.05L-592.88,-152.51ZM-545.81,-251.74L-584.01,-240.55L-571.18,-223.94L-575.97,-151.39L-549.47,-149.64L-551.71,-162.28C-550.58,-179.40 -533.88,-212.27 -522.36,-231.78L-520.74,-231.46C-519.03,-223.37 -518.13,-208.98 -520.23,-177.19L-522.16,-147.84L-495.87,-146.11L-497.96,-157.91L-497.65,-162.60C-494.60,-181.03 -478.41,-212.30 -467.62,-230.01C-465.66,-222.51 -464.32,-208.71 -466.63,-173.65L-468.53,-144.92L-430.01,-142.38L-443.97,-160.29L-442.41,-183.93C-439.67,-225.50 -439.69,-231.44 -443.91,-248.09L-464.22,-244.32C-468.89,-238.69 -486.49,-210.78 -496.42,-181.35L-496.01,-187.46C-493.27,-229.04 -493.29,-234.98 -497.51,-251.63L-517.82,-247.85C-522.49,-242.22 -540.33,-213.72 -550.27,-184.08ZM-394.99,-139.46C-381.69,-158.02 -365.82,-184.61 -356.76,-213.28L-360.77,-189.80L-364.22,-137.43L-325.30,-134.86L-339.22,-153.38L-334.52,-224.71L-326.05,-235.20L-349.28,-236.74C-391.93,-238.73 -417.00,-212.34 -419.50,-174.44C-420.59,-157.93 -416.06,-142.89 -410.22,-138.21ZM-390.70,-154.93C-393.14,-155.09 -394.82,-163.80 -393.50,-183.77C-392.15,-204.36 -384.94,-232.95 -357.62,-231.35C-359.25,-209.76 -386.83,-154.68 -390.70,-154.93ZM-247.73,-227.79L-247.59,-230.03L-279.99,-232.17L-277.70,-266.81L-303.02,-233.68L-317.49,-234.64L-304.42,-221.70L-308.24,-163.82C-309.87,-132.82 -294.68,-130.38 -287.35,-129.90C-274.71,-129.07 -259.35,-147.91 -252.15,-170.15L-254.34,-171.12C-259.45,-158.76 -269.64,-143.88 -276.16,-144.31C-281.67,-144.67 -285.66,-146.16 -284.18,-168.58L-280.82,-219.53ZM-171.23,-171.16C-171.23,-171.16 -187.55,-137.85 -202.22,-138.82C-209.56,-139.30 -214.30,-151.28 -215.02,-168.32L-167.64,-203.88C-167.37,-207.96 -172.21,-227.72 -191.57,-229.00C-216.64,-230.65 -239.72,-197.17 -241.66,-167.82C-243.45,-140.72 -232.32,-126.27 -214.18,-125.08C-194.42,-123.77 -174.56,-151.73 -168.11,-168.91ZM-215.10,-173.24C-215.12,-176.10 -215.12,-179.17 -214.90,-182.43C-212.75,-215.04 -205.99,-221.35 -202.18,-223.35C-199.41,-225.01 -189.86,-214.56 -190.20,-193.90ZM-103.73,-260.46L-90.89,-237.91L-97.25,-141.52L-112.94,-120.85L-64.64,-117.67C-16.95,-114.52 16.94,-141.15 20.05,-188.23C21.95,-217.17 6.52,-253.18 -52.17,-257.05ZM-72.89,-125.99L-64.63,-251.33L-50.97,-250.43C-20.40,-248.41 -4.34,-225.04 -7.03,-184.28C-8.67,-159.42 -19.50,-122.47 -60.66,-125.18ZM104.30,-152.99C104.30,-152.99 87.98,-119.68 73.31,-120.65C65.97,-121.13 61.24,-133.11 60.52,-150.15L107.89,-185.71C108.16,-189.78 103.32,-209.55 83.96,-210.82C58.90,-212.48 35.81,-179.00 33.88,-149.65C32.09,-122.55 43.21,-108.10 61.35,-106.90C81.12,-105.60 100.97,-133.56 107.43,-150.74ZM60.43,-155.06C60.42,-157.93 60.41,-161.00 60.63,-164.26C62.78,-196.87 69.54,-203.18 73.36,-205.18C76.13,-206.84 85.67,-196.38 85.33,-175.73ZM174.12,-171.92L175.09,-202.15L160.62,-203.11C138.20,-204.59 124.23,-188.31 123.28,-173.84C121.82,-151.63 161.29,-138.79 159.97,-118.82C159.61,-113.32 156.18,-110.88 150.06,-111.29C138.24,-112.07 128.68,-125.39 118.74,-142.21L118.01,-140.42L120.61,-105.45L137.32,-104.35C163.61,-102.62 176.15,-118.98 177.04,-132.43C178.47,-154.03 138.76,-172.62 139.70,-186.88C140.03,-191.98 141.63,-194.54 147.34,-194.16C156.31,-193.57 165.93,-184.34 172.88,-171.80ZM232.73,-228.85L217.05,-248.71L198.70,-231.09L214.56,-211.01ZM221.22,-116.42L226.79,-200.79L188.59,-189.60L201.41,-172.99L196.63,-100.44L235.15,-97.90ZM268.57,-95.69C281.87,-114.26 297.75,-140.85 306.80,-169.52L302.80,-146.04L299.68,-98.76C297.32,-66.16 287.44,-59.04 274.40,-59.90C266.04,-60.45 247.35,-68.85 236.18,-79.41L234.86,-78.06L255.65,-48.85L256.88,-48.77C283.37,-47.03 321.35,-73.59 323.58,-107.42L323.74,-109.86L324.50,-115.13L324.30,-115.15L324.41,-116.78C326.02,-138.16 327.43,-159.56 329.03,-180.74L337.52,-191.44L314.28,-192.97C271.23,-194.99 246.51,-167.76 244.06,-130.67C242.97,-114.17 247.51,-99.13 253.34,-94.45ZM272.86,-111.17C270.42,-111.33 268.74,-120.04 270.06,-140.01C271.42,-160.60 278.62,-189.18 305.95,-187.59C304.32,-166.00 276.74,-110.92 272.86,-111.17ZM382.49,-190.52L344.29,-179.33L357.11,-162.72L352.33,-90.17L378.82,-88.42L376.59,-101.06C377.72,-118.17 394.42,-151.05 405.94,-170.55L407.55,-170.24C409.27,-162.15 410.16,-147.76 408.07,-115.97L406.13,-86.62L444.65,-84.08L430.72,-102.60L432.28,-126.24C435.03,-167.82 435.01,-173.75 430.78,-190.41L410.48,-186.63C405.81,-181.00 387.96,-152.50 378.02,-122.86ZM525.96,-125.18C525.96,-125.18 509.64,-91.87 494.97,-92.84C487.63,-93.32 482.89,-105.30 482.17,-122.34L529.55,-157.90C529.82,-161.98 524.98,-181.74 505.62,-183.02C480.55,-184.67 457.47,-151.19 455.53,-121.84C453.74,-94.74 464.87,-80.29 483.01,-79.10C502.77,-77.79 522.63,-105.75 529.09,-122.93ZM482.09,-127.26C482.07,-130.12 482.07,-133.19 482.29,-136.45C484.44,-169.06 491.20,-175.37 495.01,-177.37C497.78,-179.03 507.33,-168.58 506.99,-147.92ZM621.77,-140.97L622.43,-141.74L607.53,-176.50L604.88,-176.67C591.73,-160.35 580.05,-135.33 572.64,-112.89L576.91,-177.70L538.71,-166.51L551.54,-149.90L546.75,-77.35L571.82,-75.69L571.01,-88.23C572.37,-108.82 592.42,-149.05 595.35,-150.08ZM679.13,-138.62L680.10,-168.85L665.63,-169.80C643.21,-171.28 629.24,-155.01 628.29,-140.54C626.83,-118.32 666.30,-105.49 664.98,-85.52C664.62,-80.01 661.19,-77.58 655.07,-77.98C643.25,-78.76 633.69,-92.08 623.75,-108.91L623.02,-107.11L625.62,-72.15L642.33,-71.04C668.62,-69.31 681.16,-85.68 682.05,-99.13C683.48,-120.73 643.77,-139.31 644.71,-153.58C645.04,-158.67 646.64,-161.23 652.35,-160.85C661.32,-160.26 670.94,-151.03 677.89,-138.50ZM724.89,-134.17L709.63,-154.21L691.67,-136.36L707.15,-116.51ZM721.27,-79.35L706.02,-99.39L688.06,-81.54L703.53,-61.69ZM-161.98,53.17L-151.29,46.30L-151.15,44.26L-206.59,40.61L-206.74,42.85L-187.08,55.20L-189.30,88.82C-194.77,91.12 -201.78,91.89 -205.65,91.63C-240.30,89.35 -244.87,49.95 -242.80,18.57C-240.69,-13.43 -229.00,-29.24 -209.43,-27.95C-187.42,-26.49 -178.13,-9.10 -170.45,7.78L-167.80,7.96L-165.07,-33.41L-195.43,-35.42C-242.10,-38.49 -270.51,-1.89 -272.90,34.39C-275.54,74.33 -255.55,103.28 -220.70,105.58C-207.86,106.43 -196.08,101.68 -186.26,95.57L-168.63,107.58L-165.58,107.79ZM-138.77,67.59C-140.59,95.11 -124.93,112.10 -103.12,113.54C-75.40,115.37 -49.43,87.81 -47.34,56.02C-45.56,29.12 -59.91,10.78 -85.38,9.10C-114.12,7.20 -136.61,34.78 -138.77,67.59ZM-93.76,15.09C-87.65,15.50 -72.48,27.55 -74.84,63.42C-77.06,97.04 -89.84,107.66 -95.95,107.26C-102.06,106.86 -114.43,89.46 -112.20,55.63C-109.82,19.56 -99.88,14.69 -93.76,15.09ZM-12.65,116.64C0.65,98.08 16.53,71.49 25.58,42.82L21.58,66.30L18.12,118.67L57.05,121.24L43.12,102.72L47.83,31.39L56.30,20.90L33.07,19.36C-9.58,17.37 -34.66,43.76 -37.16,81.66C-38.24,98.17 -33.71,113.21 -27.88,117.89ZM-8.35,101.17C-10.80,101.00 -12.48,92.30 -11.16,72.33C-9.80,51.74 -2.59,23.15 24.73,24.75C23.10,46.34 -4.48,101.42 -8.35,101.17ZM82.11,5.00L81.71,11.11L67.46,16.11L80.29,32.71L74.37,122.38L112.89,124.92L98.96,106.40L107.35,-20.77L69.29,-11.61ZM177.61,59.19L178.58,28.96L164.11,28.01C141.69,26.53 127.72,42.80 126.77,57.27C125.30,79.48 164.78,92.32 163.46,112.29C163.10,117.79 159.66,120.23 153.55,119.83C141.73,119.05 132.17,105.73 122.22,88.90L121.49,90.69L124.10,125.66L140.81,126.76C167.10,128.50 179.64,112.13 180.53,98.68C181.95,77.08 142.24,58.49 143.18,44.23C143.52,39.13 145.12,36.58 150.83,36.95C159.79,37.55 169.42,46.78 176.37,59.31Z" fill="#ffffff" stroke="#000000"/>
    <path d="M-712.55,-260.03L-709.52,-300.93L-739.54,-303.16C-785.67,-306.58 -814.07,-270.60 -816.73,-234.74C-819.66,-195.25 -800.12,-166.46 -765.67,-163.90C-736.26,-161.72 -716.95,-184.39 -706.94,-204.71L-709.61,-206.94C-716.61,-197.13 -729.07,-184.88 -752.24,-186.60C-779.03,-188.59 -790.16,-216.16 -787.63,-250.21C-785.65,-276.80 -774.40,-297.44 -752.04,-295.78C-732.09,-294.30 -720.16,-277.61 -713.76,-260.12ZM-675.49,-276.32L-675.94,-270.28L-690.07,-265.45L-677.52,-248.92L-684.10,-160.28L-646.02,-157.45L-659.65,-175.88L-650.32,-301.60L-688.04,-292.85ZM-592.15,-282.90L-607.49,-302.67L-625.79,-285.39L-610.26,-265.40ZM-604.45,-171.79L-598.26,-255.19L-636.13,-244.43L-623.58,-227.90L-628.90,-156.18L-590.82,-153.35ZM-543.46,-251.13L-581.33,-240.36L-568.78,-223.83L-574.10,-152.11L-547.91,-150.17L-550.02,-162.68C-548.76,-179.60 -531.98,-211.99 -520.42,-231.18L-518.83,-230.86C-517.20,-222.84 -516.43,-208.60 -518.76,-177.18L-520.91,-148.16L-494.93,-146.24L-496.89,-157.93L-496.55,-162.56C-493.38,-180.76 -477.11,-211.56 -466.30,-228.99C-464.42,-221.56 -463.20,-207.89 -465.78,-173.24L-467.88,-144.84L-429.81,-142.01L-443.47,-159.84L-441.74,-183.21C-438.69,-224.31 -438.66,-230.18 -442.70,-246.69L-462.82,-243.11C-467.48,-237.59 -485.12,-210.13 -495.17,-181.10L-494.73,-187.14C-491.67,-228.24 -491.64,-234.11 -495.69,-250.62L-515.80,-247.05C-520.47,-241.52 -538.35,-213.47 -548.42,-184.24ZM-395.20,-138.83C-381.89,-157.09 -365.97,-183.26 -356.78,-211.54L-360.94,-188.35L-364.78,-136.58L-326.30,-133.72L-339.92,-152.15L-334.69,-222.66L-326.22,-232.98L-349.19,-234.68C-391.36,-237.00 -416.37,-211.10 -419.15,-173.63C-420.37,-157.31 -416.00,-142.40 -410.27,-137.72ZM-390.83,-154.11C-393.24,-154.29 -394.83,-162.91 -393.37,-182.66C-391.86,-203.00 -384.49,-231.22 -357.48,-229.42C-359.27,-208.08 -387.00,-153.82 -390.83,-154.11ZM-248.82,-225.00L-248.66,-227.22L-280.69,-229.60L-278.15,-263.85L-303.46,-231.29L-317.76,-232.35L-304.95,-219.44L-309.19,-162.23C-311.06,-131.58 -296.06,-129.04 -288.80,-128.51C-276.31,-127.58 -260.96,-146.09 -253.66,-168.03L-255.82,-169.00C-260.97,-156.83 -271.18,-142.19 -277.62,-142.67C-283.06,-143.07 -287.00,-144.58 -285.36,-166.74L-281.62,-217.11ZM-173.62,-168.37C-173.62,-168.37 -190.03,-135.56 -204.54,-136.63C-211.79,-137.17 -216.38,-149.06 -216.95,-165.92L-169.80,-200.70C-169.50,-204.73 -174.12,-224.32 -193.26,-225.74C-218.04,-227.58 -241.15,-194.65 -243.30,-165.64C-245.29,-138.85 -234.41,-124.47 -216.48,-123.14C-196.94,-121.69 -177.07,-149.18 -170.54,-166.12ZM-216.99,-170.78C-216.99,-173.62 -216.96,-176.65 -216.72,-179.88C-214.33,-212.11 -207.59,-218.30 -203.80,-220.24C-201.05,-221.86 -191.69,-211.44 -192.19,-191.02ZM-106.13,-256.14L-93.61,-233.74L-100.68,-138.45L-116.37,-118.14L-68.62,-114.59C-21.48,-111.09 12.26,-137.15 15.71,-183.69C17.84,-212.30 2.86,-248.05 -55.16,-252.36ZM-76.72,-122.89L-67.52,-246.79L-54.02,-245.79C-23.80,-243.55 -8.11,-220.30 -11.10,-180.01C-12.92,-155.43 -23.93,-118.97 -64.63,-122.00ZM98.76,-148.15C98.76,-148.15 82.35,-115.34 67.84,-116.42C60.59,-116.96 56.00,-128.84 55.43,-145.70L102.58,-180.49C102.88,-184.52 98.26,-204.10 79.12,-205.52C54.34,-207.36 31.23,-174.44 29.08,-145.43C27.09,-118.63 37.97,-104.25 55.90,-102.92C75.45,-101.47 95.31,-128.96 101.84,-145.90ZM55.39,-150.56C55.40,-153.40 55.42,-156.44 55.66,-159.66C58.05,-191.89 64.79,-198.08 68.58,-200.03C71.33,-201.64 80.69,-191.23 80.19,-170.80ZM167.97,-166.31L169.18,-196.21L154.88,-197.27C132.71,-198.91 118.77,-182.93 117.70,-168.63C116.07,-146.67 155.02,-133.65 153.55,-113.90C153.15,-108.46 149.73,-106.08 143.68,-106.53C132.00,-107.40 122.65,-120.65 112.95,-137.38L112.22,-135.61L114.51,-101.00L131.03,-99.78C157.02,-97.85 169.56,-113.93 170.54,-127.23C172.13,-148.58 133.00,-167.29 134.05,-181.39C134.42,-186.43 136.03,-188.94 141.67,-188.52C150.53,-187.87 159.98,-178.66 166.75,-166.20ZM226.41,-222.14L211.06,-241.92L192.76,-224.64L208.30,-204.65ZM214.11,-111.03L220.30,-194.44L182.43,-183.68L194.98,-167.15L189.66,-95.42L227.73,-92.60ZM260.77,-90.15C274.08,-108.40 290.00,-134.57 299.19,-162.85L295.04,-139.66L291.57,-92.92C288.97,-60.70 279.14,-53.74 266.24,-54.69C257.98,-55.31 239.57,-63.76 228.60,-74.30L227.29,-72.98L247.62,-43.92L248.83,-43.83C275.02,-41.89 312.80,-67.85 315.28,-101.29L315.46,-103.71L316.25,-108.92L316.05,-108.93L316.17,-110.54C317.94,-131.68 319.51,-152.84 321.27,-173.78L329.75,-184.29L306.78,-185.99C264.21,-188.34 239.54,-161.61 236.82,-124.94C235.61,-108.62 239.97,-93.71 245.70,-89.04ZM265.15,-105.42C262.73,-105.60 261.14,-114.22 262.61,-133.97C264.12,-154.32 271.48,-182.54 298.49,-180.73C296.70,-159.39 268.98,-105.13 265.15,-105.42ZM374.22,-183.01L336.35,-172.25L348.90,-155.72L343.58,-84.00L369.77,-82.06L367.66,-94.57C368.91,-111.49 385.70,-143.87 397.25,-163.07L398.85,-162.75C400.48,-154.73 401.25,-140.49 398.92,-109.06L396.76,-80.05L434.84,-77.23L421.22,-95.66L422.95,-119.03C426.00,-160.13 426.03,-166.00 421.99,-182.51L401.87,-178.93C397.21,-173.41 379.33,-145.36 369.26,-116.13ZM515.60,-117.22C515.60,-117.22 499.18,-84.40 484.68,-85.48C477.42,-86.02 472.84,-97.90 472.27,-114.76L519.41,-149.55C519.71,-153.58 515.09,-173.16 495.95,-174.59C471.17,-176.42 448.06,-143.50 445.91,-114.49C443.92,-87.69 454.81,-73.31 472.74,-71.98C492.28,-70.53 512.15,-98.02 518.67,-114.96ZM472.22,-119.63C472.23,-122.46 472.25,-125.50 472.49,-128.72C474.88,-160.96 481.62,-167.14 485.41,-169.09C488.17,-170.71 497.52,-160.29 497.02,-139.87ZM610.49,-132.05L611.15,-132.81L596.70,-167.31L594.08,-167.50C580.94,-151.46 569.18,-126.81 561.66,-104.68L566.42,-168.75L528.55,-157.99L541.10,-141.46L535.77,-69.73L560.55,-67.89L559.85,-80.30C561.36,-100.65 581.52,-140.28 584.43,-141.28ZM667.21,-129.26L668.41,-159.15L654.11,-160.21C631.95,-161.86 618.00,-145.88 616.94,-131.57C615.31,-109.61 654.25,-96.59 652.78,-76.85C652.38,-71.41 648.96,-69.03 642.92,-69.48C631.23,-70.35 621.88,-83.60 612.19,-100.32L611.45,-98.55L613.74,-63.95L630.26,-62.72C656.25,-60.79 668.79,-76.88 669.78,-90.17C671.36,-111.53 632.23,-130.23 633.28,-144.34C633.65,-149.37 635.26,-151.89 640.90,-151.47C649.76,-150.81 659.21,-141.60 665.98,-129.15ZM712.43,-124.48L697.50,-144.43L679.59,-126.92L694.74,-107.16ZM708.41,-70.29L693.48,-90.24L675.57,-72.73L690.71,-52.97ZM-166.29,53.59L-155.66,46.88L-155.51,44.87L-210.31,40.80L-210.48,43.02L-191.14,55.39L-193.61,88.63C-199.04,90.86 -205.98,91.56 -209.81,91.28C-244.05,88.74 -248.25,49.73 -245.95,18.71C-243.60,-12.92 -231.91,-28.46 -212.57,-27.03C-190.81,-25.41 -181.76,-8.13 -174.30,8.63L-171.68,8.82L-168.64,-32.07L-198.66,-34.30C-244.80,-37.73 -273.19,-1.75 -275.86,34.11C-278.79,73.60 -259.25,102.40 -224.80,104.95C-212.11,105.90 -200.42,101.29 -190.66,95.33L-173.32,107.36L-170.30,107.58ZM-143.46,68.04C-145.48,95.24 -130.12,112.18 -108.57,113.78C-81.17,115.82 -55.26,88.77 -52.92,57.34C-50.95,30.75 -64.99,12.49 -90.17,10.62C-118.58,8.51 -141.05,35.61 -143.46,68.04ZM-98.51,16.48C-92.47,16.93 -77.56,28.98 -80.19,64.43C-82.66,97.68 -95.38,108.08 -101.43,107.63C-107.47,107.18 -119.55,89.87 -117.07,56.43C-114.43,20.77 -104.55,16.03 -98.51,16.48ZM-19.11,117.59C-5.80,99.33 10.12,73.16 19.31,44.88L15.16,68.07L11.31,119.84L49.79,122.70L36.17,104.27L41.40,33.76L49.87,23.44L26.90,21.74C-15.27,19.42 -40.28,45.32 -43.06,82.79C-44.27,99.11 -39.91,114.02 -34.18,118.70ZM-14.73,102.31C-17.15,102.13 -18.74,93.51 -17.27,73.76C-15.76,53.42 -8.40,25.20 18.61,27.00C16.82,48.34 -10.91,102.60 -14.73,102.31ZM75.53,7.93L75.08,13.97L60.95,18.80L73.50,35.33L66.92,123.97L104.99,126.80L91.37,108.37L100.70,-17.35L62.98,-8.60ZM169.54,62.31L170.75,32.42L156.44,31.35C134.28,29.71 120.33,45.69 119.27,59.99C117.64,81.95 156.58,94.97 155.12,114.72C154.71,120.16 151.30,122.54 145.25,122.09C133.57,121.22 124.22,107.97 114.52,91.24L113.78,93.01L116.08,127.62L132.60,128.85C158.58,130.78 171.12,114.69 172.11,101.39C173.69,80.04 134.57,61.33 135.61,47.23C135.99,42.19 137.59,39.68 143.23,40.10C152.10,40.76 161.54,49.96 168.32,62.42Z" fill="#ffffff" stroke="#000000"/>
    <path d="M-708.19,-260.72L-704.85,-301.14L-734.52,-303.59C-780.12,-307.35 -808.50,-272.00 -811.42,-236.56C-814.64,-197.53 -795.55,-168.89 -761.50,-166.08C-732.43,-163.68 -713.15,-185.95 -703.08,-205.97L-705.70,-208.19C-712.71,-198.54 -725.13,-186.54 -748.03,-188.42C-774.52,-190.61 -785.29,-217.96 -782.51,-251.61C-780.34,-277.90 -769.05,-298.22 -746.94,-296.39C-727.23,-294.77 -715.57,-278.17 -709.38,-260.82ZM-671.40,-276.53L-671.89,-270.55L-685.91,-265.90L-673.63,-249.45L-680.86,-161.83L-643.23,-158.73L-656.55,-177.07L-646.30,-301.32L-683.67,-292.98ZM-588.92,-282.35L-603.94,-302.04L-622.17,-285.10L-606.98,-265.20ZM-601.99,-172.57L-595.19,-255.00L-632.73,-244.67L-620.45,-228.22L-626.30,-157.33L-588.67,-154.23ZM-541.03,-250.53L-578.57,-240.20L-566.29,-223.75L-572.14,-152.86L-546.25,-150.73L-548.24,-163.12C-546.86,-179.85 -529.99,-211.73 -518.41,-230.63L-516.83,-230.30C-515.28,-222.35 -514.64,-208.26 -517.20,-177.20L-519.57,-148.53L-493.88,-146.41L-495.73,-157.99L-495.36,-162.57C-492.07,-180.54 -475.73,-210.87 -464.90,-228.01C-463.10,-220.65 -462.01,-207.13 -464.84,-172.88L-467.15,-144.80L-429.52,-141.70L-442.89,-159.44L-440.98,-182.54C-437.63,-223.16 -437.55,-228.97 -441.42,-245.32L-461.34,-241.96C-466.00,-236.53 -483.66,-209.52 -493.85,-180.88L-493.35,-186.86C-490.00,-227.48 -489.92,-233.29 -493.79,-249.64L-513.71,-246.28C-518.37,-240.85 -536.28,-213.26 -546.48,-184.43ZM-395.32,-138.27C-382.01,-156.22 -366.05,-181.97 -356.73,-209.87L-361.03,-186.97L-365.25,-135.79L-327.22,-132.65L-340.54,-151.00L-334.79,-220.69L-326.34,-230.82L-349.04,-232.69C-390.72,-235.33 -415.67,-209.92 -418.72,-172.88C-420.06,-156.75 -415.86,-141.97 -410.23,-137.30ZM-390.87,-153.34C-393.26,-153.54 -394.76,-162.08 -393.15,-181.60C-391.49,-201.71 -383.98,-229.56 -357.28,-227.56C-359.22,-206.47 -387.08,-153.03 -390.87,-153.34ZM-249.85,-222.30L-249.67,-224.49L-281.33,-227.10L-278.54,-260.95L-303.83,-228.96L-317.97,-230.13L-305.40,-217.26L-310.07,-160.71C-312.17,-130.41 -297.35,-127.78 -290.18,-127.19C-277.83,-126.17 -262.50,-144.36 -255.10,-166.00L-257.22,-166.98C-262.43,-154.98 -272.63,-140.58 -279.01,-141.11C-284.38,-141.55 -288.27,-143.07 -286.46,-164.98L-282.35,-214.76ZM-175.94,-165.68C-175.94,-165.68 -192.44,-133.36 -206.77,-134.55C-213.94,-135.14 -218.38,-146.93 -218.81,-163.61L-171.90,-197.63C-171.57,-201.61 -175.98,-221.02 -194.90,-222.58C-219.39,-224.60 -242.51,-192.23 -244.88,-163.55C-247.06,-137.07 -236.41,-122.76 -218.69,-121.30C-199.38,-119.70 -179.51,-146.73 -172.92,-163.43ZM-218.81,-168.42C-218.78,-171.22 -218.74,-174.23 -218.47,-177.41C-215.84,-209.27 -209.13,-215.33 -205.36,-217.23C-202.63,-218.81 -193.46,-208.43 -194.12,-188.23ZM-108.48,-251.94L-96.28,-229.68L-104.05,-135.49L-119.73,-115.54L-72.54,-111.64C-25.94,-107.80 7.64,-133.30 11.43,-179.29C13.76,-207.57 -0.75,-243.05 -58.10,-247.78ZM-80.48,-119.92L-70.37,-242.38L-57.03,-241.28C-27.16,-238.81 -11.83,-215.69 -15.11,-175.87C-17.12,-151.58 -28.31,-115.61 -68.53,-118.93ZM93.28,-143.47C93.28,-143.47 76.78,-111.15 62.44,-112.33C55.27,-112.93 50.83,-124.72 50.40,-141.39L97.32,-175.41C97.65,-179.40 93.23,-198.81 74.32,-200.37C49.82,-202.39 26.70,-170.01 24.34,-141.34C22.15,-114.86 32.80,-100.55 50.52,-99.08C69.84,-97.49 89.71,-124.52 96.30,-141.22ZM50.40,-146.21C50.43,-149.01 50.48,-152.01 50.74,-155.20C53.37,-187.06 60.08,-193.12 63.85,-195.02C66.59,-196.59 75.75,-186.22 75.09,-166.02ZM161.87,-160.87L163.31,-190.42L149.17,-191.59C127.27,-193.39 113.34,-177.70 112.18,-163.56C110.39,-141.86 148.79,-128.67 147.18,-109.15C146.74,-103.78 143.34,-101.45 137.36,-101.94C125.82,-102.90 116.68,-116.08 107.22,-132.70L106.48,-130.95L108.46,-96.71L124.79,-95.36C150.48,-93.24 163.01,-109.05 164.10,-122.19C165.84,-143.30 127.29,-162.12 128.44,-176.05C128.85,-181.03 130.46,-183.51 136.04,-183.05C144.80,-182.32 154.06,-173.14 160.66,-160.77ZM220.12,-215.60L205.10,-235.29L186.86,-218.35L202.06,-198.45ZM207.05,-105.82L213.85,-188.25L176.31,-177.92L188.59,-161.47L182.74,-90.58L220.37,-87.48ZM253.03,-84.78C266.34,-102.73 282.29,-128.48 291.61,-156.38L287.32,-133.48L283.51,-87.28C280.68,-55.44 270.90,-48.62 258.15,-49.68C249.99,-50.35 231.84,-58.86 221.08,-69.37L219.77,-68.08L239.64,-39.17L240.84,-39.08C266.72,-36.94 304.30,-62.31 307.03,-95.36L307.23,-97.75L308.05,-102.90L307.85,-102.91L307.98,-104.51C309.91,-125.40 311.63,-146.30 313.54,-167.00L322.01,-177.32L299.31,-179.20C257.23,-181.87 232.61,-155.63 229.62,-119.39C228.29,-103.26 232.48,-88.48 238.11,-83.81ZM257.48,-99.85C255.09,-100.05 253.59,-108.59 255.20,-128.11C256.86,-148.22 264.37,-176.07 291.07,-174.06C289.13,-152.97 261.26,-99.54 257.48,-99.85ZM365.98,-175.70L328.44,-165.37L340.72,-148.92L334.87,-78.03L360.75,-75.89L358.77,-88.29C360.15,-105.01 377.01,-136.90 388.60,-155.79L390.17,-155.46C391.72,-147.52 392.37,-133.43 389.80,-102.37L387.44,-73.69L425.07,-70.59L411.75,-88.93L413.65,-112.03C417.01,-152.65 417.08,-158.45 413.22,-174.81L393.30,-171.44C388.64,-166.01 370.72,-138.42 360.53,-109.59ZM505.26,-109.48C505.26,-109.48 488.76,-77.16 474.43,-78.34C467.26,-78.93 462.82,-90.73 462.39,-107.40L509.30,-141.42C509.63,-145.41 505.22,-164.82 486.30,-166.38C461.81,-168.40 438.69,-136.02 436.32,-107.35C434.14,-80.87 444.79,-66.55 462.51,-65.09C481.82,-63.50 501.70,-90.53 508.29,-107.23ZM462.39,-112.22C462.42,-115.02 462.46,-118.02 462.73,-121.21C465.36,-153.07 472.07,-159.13 475.84,-161.02C478.57,-162.60 487.74,-152.22 487.08,-132.03ZM599.23,-123.38L599.90,-124.13L585.88,-158.36L583.29,-158.57C570.16,-142.82 558.34,-118.53 550.72,-96.71L555.95,-160.03L518.41,-149.69L530.68,-133.24L524.83,-62.36L549.32,-60.34L548.73,-72.61C550.39,-92.73 570.65,-131.75 573.54,-132.72ZM655.30,-120.16L656.74,-149.71L642.60,-150.87C620.70,-152.68 606.77,-136.99 605.60,-122.85C603.81,-101.15 642.22,-87.96 640.61,-68.44C640.17,-63.07 636.77,-60.74 630.79,-61.23C619.24,-62.19 610.11,-75.37 600.65,-91.99L599.91,-90.24L601.89,-56.00L618.22,-54.65C643.91,-52.53 656.44,-68.34 657.52,-81.48C659.26,-102.59 620.72,-121.40 621.87,-135.34C622.28,-140.32 623.89,-142.80 629.46,-142.34C638.23,-141.61 647.49,-132.43 654.09,-120.06ZM699.99,-115.07L685.39,-134.91L667.53,-117.74L682.35,-98.08ZM695.57,-61.50L680.97,-81.35L663.11,-64.18L677.93,-44.51ZM-170.50,53.89L-159.93,47.34L-159.77,45.35L-213.93,40.88L-214.11,43.07L-195.09,55.47L-197.80,88.33C-203.19,90.49 -210.06,91.12 -213.84,90.81C-247.69,88.02 -251.52,49.41 -248.99,18.75C-246.41,-12.52 -234.73,-27.79 -215.61,-26.21C-194.11,-24.44 -185.30,-7.27 -178.05,9.36L-175.46,9.58L-172.13,-30.85L-201.80,-33.29C-247.39,-37.06 -275.77,-1.71 -278.70,33.74C-281.92,72.76 -262.83,101.40 -228.78,104.21C-216.23,105.25 -204.64,100.79 -194.94,94.98L-177.89,107.01L-174.90,107.26ZM-148.04,68.37C-150.25,95.26 -135.21,112.13 -113.90,113.89C-86.82,116.13 -60.97,89.59 -58.41,58.53C-56.24,32.24 -69.98,14.07 -94.87,12.01C-122.95,9.70 -145.39,36.31 -148.04,68.37ZM-103.16,17.75C-97.19,18.24 -82.54,30.27 -85.43,65.32C-88.15,98.17 -100.81,108.36 -106.79,107.86C-112.76,107.37 -124.57,90.16 -121.85,57.10C-118.94,21.86 -109.13,17.25 -103.16,17.75ZM-25.46,118.38C-12.15,100.43 3.81,74.69 13.13,46.79L8.83,69.69L4.61,120.86L42.64,124.00L29.32,105.66L35.07,35.97L43.52,25.84L20.82,23.97C-20.86,21.33 -45.81,46.74 -48.87,83.77C-50.20,99.90 -46.00,114.68 -40.37,119.36ZM-21.01,103.31C-23.40,103.12 -24.90,94.57 -23.29,75.06C-21.63,54.95 -14.12,27.10 12.58,29.10C10.64,50.19 -17.22,103.62 -21.01,103.31ZM69.03,10.70L68.54,16.68L54.52,21.33L66.80,37.78L59.57,125.40L97.20,128.50L83.88,110.16L94.13,-14.09L56.75,-5.75ZM161.56,65.25L163.00,35.70L148.86,34.53C126.96,32.72 113.03,48.41 111.86,62.55C110.07,84.26 148.48,97.45 146.87,116.96C146.43,122.34 143.03,124.66 137.05,124.17C125.50,123.22 116.37,110.04 106.91,93.42L106.17,95.16L108.15,129.41L124.48,130.75C150.17,132.87 162.70,117.07 163.78,103.92C165.52,82.82 126.98,64.00 128.13,50.06C128.54,45.08 130.15,42.61 135.73,43.07C144.49,43.79 153.75,52.98 160.35,65.35Z" fill="#ffffff" stroke="#000000"/>
    <path d="M-910.99,465.97L-908.82,469.92L-908.82,487.97L-910.99,492L-903.01,492C-897.88,492 -890.88,490.52 -890.88,485.05C-890.88,481.17 -893.70,478.93 -898.22,477.86C-895.52,476.80 -892.48,475.13 -892.48,471.71C-892.48,467.19 -897.23,465.97 -902.70,465.97ZM-904.11,467.19L-902.85,467.19C-900.38,467.19 -897.15,467.91 -897.15,472.47C-897.15,475.43 -899.47,477.64 -904.11,477.64ZM-904.11,490.52L-904.11,478.59C-899.47,478.59 -896.20,479.92 -896.20,484.93C-896.20,488.58 -899.28,490.52 -902.97,490.52ZM-886.02,470.11L-886.02,471.25L-888.60,472.35L-886.02,475.28L-886.02,492L-878.84,492L-881.65,488.73L-881.65,465.02L-888.60,467.19ZM-866.26,492L-859.31,492L-861.89,489.07L-861.89,473.38L-866.83,473.38L-866.26,475.70C-866.26,478.97 -869.11,485.54 -871.01,489.23C-871.16,487.71 -871.28,485.27 -871.28,478.85L-871.28,472.62L-878.46,473.38L-875.65,476.65L-875.65,485.81C-875.65,488.58 -875.15,491.09 -874.92,492.30L-871.50,492C-870.71,490.90 -867.74,485.39 -866.26,479.76ZM-846.42,492L-839.47,492L-842.05,489.07L-842.05,473.38L-846.99,473.38L-846.42,475.70C-846.42,478.97 -849.27,485.54 -851.17,489.23C-851.33,487.71 -851.44,485.27 -851.44,478.85L-851.44,472.62L-858.62,473.38L-855.81,476.65L-855.81,485.81C-855.81,488.58 -855.32,491.09 -855.09,492.30L-851.67,492C-850.87,490.90 -847.91,485.39 -846.42,479.76ZM-818.95,492L-813.33,492L-814.88,489.80L-814.88,469.50L-812.22,465.97L-819.75,465.97L-816.63,469.24L-816.63,487.67L-831.45,465.97L-837.42,465.97L-833.92,470.80L-833.92,488.47L-836.58,492L-829.13,492L-832.21,488.73L-832.21,473.42ZM-796.11,483.37C-796.11,483.37 -798.73,489.76 -801.47,489.76C-802.84,489.76 -803.86,487.59 -804.21,484.44L-795.85,477.26C-795.85,476.50 -796.99,472.89 -800.60,472.89C-805.27,472.89 -809.15,479.38 -809.15,484.86C-809.15,489.91 -806.90,492.46 -803.52,492.46C-799.84,492.46 -796.49,487.02 -795.50,483.75ZM-804.28,483.53C-804.32,482.99 -804.36,482.42 -804.36,481.82C-804.36,475.74 -803.18,474.48 -802.50,474.06C-802.00,473.72 -800.10,475.55 -799.91,479.38ZM-781.06,492L-774.68,492L-777.87,489.53L-782.39,481.74C-780.99,479.92 -778.59,476.65 -777.42,473.38L-782.85,473.38L-780.38,475.47C-780.38,477.60 -781.94,479.42 -782.93,480.83L-787.26,473.38L-793.64,473.38L-790.87,475.77L-786.54,482.99C-788.17,485.05 -791.48,488.92 -792.58,492L-786.80,492L-789.08,489.91C-789.08,487.90 -787.18,485.54 -785.97,483.91ZM-760.77,473.80L-760.77,473.38L-766.81,473.38L-766.81,466.92L-771.11,473.38L-773.81,473.38L-771.22,475.62L-771.22,486.41C-771.15,492.19 -768.30,492.46 -766.93,492.46C-764.57,492.46 -761.95,488.77 -760.89,484.55L-761.30,484.40C-762.10,486.76 -763.81,489.64 -765.03,489.64C-766.05,489.64 -766.81,489.42 -766.81,485.24L-766.81,475.74ZM-758.45,479.84L-758.45,482.73L-749.98,482.73L-749.98,479.84ZM-746.83,465.97L-744.66,469.92L-744.66,487.97L-746.83,492L-738.85,492C-733.72,492 -726.72,490.52 -726.72,485.05C-726.72,481.17 -729.54,478.93 -734.06,477.86C-731.36,476.80 -728.32,475.13 -728.32,471.71C-728.32,467.19 -733.07,465.97 -738.54,465.97ZM-739.95,467.19L-738.69,467.19C-736.22,467.19 -732.99,467.91 -732.99,472.47C-732.99,475.43 -735.31,477.64 -739.95,477.64ZM-739.95,490.52L-739.95,478.59C-735.31,478.59 -732.04,479.92 -732.04,484.93C-732.04,488.58 -735.12,490.52 -738.81,490.52ZM-723.80,484.44C-723.80,489.57 -720.68,492.53 -716.62,492.53C-711.45,492.53 -706.96,487.10 -706.96,481.17C-706.96,476.15 -709.85,472.92 -714.60,472.92C-719.96,472.92 -723.80,478.32 -723.80,484.44ZM-716.08,474.14C-714.94,474.14 -711.98,476.19 -711.98,482.88C-711.98,489.15 -714.22,491.28 -715.36,491.28C-716.50,491.28 -719.01,488.20 -719.01,481.89C-719.01,475.17 -717.22,474.14 -716.08,474.14ZM-702.82,470.11L-702.82,471.25L-705.41,472.35L-702.82,475.28L-702.82,492L-695.64,492L-698.45,488.73L-698.45,465.02L-705.41,467.19ZM-676.15,492L-678.96,489.34L-678.96,465.02L-685.91,467.19L-683.33,470.11L-683.33,473.46C-690.43,474.22 -694.35,479.35 -694.35,485.81C-694.35,488.88 -693.09,491.62 -691.95,492.42L-689.14,492C-686.90,488.39 -684.28,483.26 -682.95,477.83L-683.40,482.23L-683.40,492.34ZM-688.53,489.07C-688.99,489.07 -689.64,487.48 -689.64,483.75C-689.64,479.92 -688.42,474.52 -683.33,474.48C-683.37,478.51 -687.81,489.07 -688.53,489.07ZM-671.36,487.97L-674.02,492L-663.99,492L-666.65,487.97L-666.65,470.00L-663.99,465.97L-674.02,465.97L-671.36,470.00ZM-649.13,473.80L-649.13,473.38L-655.17,473.38L-655.17,466.92L-659.46,473.38L-662.16,473.38L-659.58,475.62L-659.58,486.41C-659.50,492.19 -656.65,492.46 -655.28,492.46C-652.93,492.46 -650.31,488.77 -649.24,484.55L-649.66,484.40C-650.46,486.76 -652.17,489.64 -653.38,489.64C-654.41,489.64 -655.17,489.42 -655.17,485.24L-655.17,475.74ZM-642.29,492C-640.05,488.39 -637.42,483.26 -636.09,477.83L-636.55,482.23L-636.55,492L-629.29,492L-632.10,488.73L-632.10,475.43L-630.66,473.38L-634.99,473.38C-642.93,473.53 -647.27,478.74 -647.27,485.81C-647.27,488.88 -646.24,491.62 -645.10,492.42ZM-641.68,489.07C-642.14,489.07 -642.55,487.48 -642.55,483.75C-642.55,479.92 -641.57,474.52 -636.47,474.48C-636.51,478.51 -640.96,489.07 -641.68,489.07ZM-626.06,470.11L-626.06,471.25L-628.65,472.35L-626.06,475.28L-626.06,492L-618.88,492L-621.69,488.73L-621.69,465.02L-628.65,467.19ZM-610.52,467.72L-613.67,464.22L-616.87,467.72L-613.67,471.25ZM-611.28,488.73L-611.28,473L-618.23,475.55L-615.65,478.47L-615.65,492L-608.47,492ZM-594.98,478.32L-594.86,478.17L-597.52,472.85L-597.90,472.85C-602.54,474.03 -607.18,479.27 -607.18,485.05C-607.18,490.10 -604.74,492.46 -601.59,492.46C-599.61,492.46 -596.08,489.53 -594.10,483.72L-594.71,483.34C-596.46,487.36 -598.51,489.76 -599.77,489.76C-601.48,489.76 -602.39,486.68 -602.39,481.78C-602.39,479.27 -601.74,475.77 -601.02,475.77Z"/>
</svg>