<?xml version="1.0"?>
<svg xmlns="http://www.w3.org/2000/svg" width="1920" height="1080" viewBox="-960 -540 1920 1080">
    <path d="M-329.89,-205.16L-318.79,-213.38L-318.79,-215.60L-379.18,-215.60L-379.18,-213.16L-356.98,-201.17L-356.98,-164.54C-362.75,-161.65 -370.30,-160.32 -374.51,-160.32C-412.25,-160.32 -420.02,-202.72 -420.02,-236.91C-420.02,-271.76 -408.48,-289.75 -387.17,-289.75C-363.19,-289.75 -351.87,-271.54 -342.32,-253.78L-339.44,-253.78L-339.44,-298.85L-372.52,-298.85C-423.35,-298.85 -451.55,-257.11 -451.55,-217.60C-451.55,-174.08 -427.79,-144.11 -389.83,-144.11C-375.85,-144.11 -363.41,-150.11 -353.20,-157.43L-333.22,-145.67L-329.89,-145.67ZM-217.34,-221.37L-216.67,-222.26L-235.32,-258.89L-238.21,-258.89C-251.30,-240.24 -262.18,-212.27 -268.62,-187.40L-268.62,-258L-309.25,-243.13L-294.15,-226.03L-294.15,-147L-266.84,-147L-268.62,-160.54C-268.62,-182.96 -249.75,-228.03 -246.64,-229.36ZM-183.82,-147C-170.72,-168.09 -155.40,-198.06 -147.63,-229.81L-150.29,-204.05L-150.29,-147L-107.89,-147L-124.32,-166.09L-124.32,-243.79L-115.88,-255.78L-141.19,-255.78C-187.59,-254.89 -212.90,-224.48 -212.90,-183.19C-212.90,-165.20 -206.90,-149.22 -200.24,-144.56ZM-180.26,-164.09C-182.93,-164.09 -185.37,-173.42 -185.37,-195.17C-185.37,-217.60 -179.60,-249.12 -149.85,-249.34C-150.07,-225.81 -176.05,-164.09 -180.26,-164.09ZM-42.40,-222.92L-43.51,-255.78L-59.27,-255.78C-83.69,-255.78 -97.68,-237.13 -97.68,-221.37C-97.68,-197.17 -53.95,-186.07 -53.95,-164.32C-53.95,-158.32 -57.50,-155.44 -64.16,-155.44C-77.03,-155.44 -88.36,-169.20 -100.34,-186.74L-101.01,-184.74L-95.68,-147L-77.48,-147C-48.84,-147 -36.41,-165.65 -36.41,-180.30C-36.41,-203.83 -80.81,-221.15 -80.81,-236.69C-80.81,-242.24 -79.25,-245.12 -73.04,-245.12C-63.27,-245.12 -52.17,-235.80 -43.73,-222.70ZM38.41,-255.78C28.64,-236.24 19.31,-212.05 12.65,-185.63L12.65,-259.11L-27.97,-246.46L-12.88,-229.36L-12.88,-113.92L-18.20,-99.27L29.08,-99.27L12.65,-111.70L12.65,-138.34C53.72,-143.67 75.04,-178.08 75.04,-207.16C75.04,-228.92 67.27,-249.12 60.38,-259.78ZM12.65,-158.10C12.65,-179.41 32.41,-235.58 36.85,-235.58C40.85,-235.58 47.51,-218.71 47.51,-195.17C47.51,-176.08 42.18,-144.34 12.65,-144.11ZM202.91,-253.34L202.91,-255.78L167.61,-255.78L167.61,-293.52L142.52,-255.78L126.76,-255.78L141.86,-242.68L141.86,-179.63C142.30,-145.89 158.95,-144.34 166.94,-144.34C180.71,-144.34 196.03,-165.87 202.24,-190.51L199.80,-191.40C195.14,-177.64 185.15,-160.76 178.04,-160.76C172.05,-160.76 167.61,-162.10 167.61,-186.52L167.61,-242.02ZM248.86,-304.62L208.24,-291.97L223.33,-274.87L223.33,-147L252.19,-147L248.86,-160.54C248.86,-179.19 264.62,-216.04 275.72,-238.02L277.50,-237.80C279.94,-229.14 281.94,-213.60 281.94,-178.97L281.94,-147L323.90,-147L307.47,-166.09L307.47,-191.84C307.47,-237.13 307.03,-243.57 301.25,-261.33L279.50,-255.78C274.84,-249.34 257.52,-217.15 248.86,-184.30ZM408.26,-197.39C408.26,-197.39 392.94,-160.10 376.96,-160.10C368.96,-160.10 362.97,-172.75 360.97,-191.18L409.81,-233.14C409.81,-237.58 403.15,-258.67 382.06,-258.67C354.76,-258.67 332.11,-220.70 332.11,-188.74C332.11,-159.21 345.21,-144.34 364.97,-144.34C386.50,-144.34 406.04,-176.08 411.81,-195.17ZM360.53,-196.51C360.31,-199.61 360.08,-202.94 360.08,-206.50C360.08,-242.02 366.97,-249.34 370.96,-251.78C373.85,-253.78 384.95,-243.13 386.06,-220.70ZM-498.17,79.88L-513.71,103.42L-455.10,103.42L-470.64,79.88L-470.64,-25.12L-455.10,-48.65L-513.71,-48.65L-498.17,-25.12ZM-401.82,-7.58L-442.45,7.29L-427.35,24.38L-427.35,103.42L-398.49,103.42L-401.82,89.87C-401.82,71.23 -386.06,34.37 -374.96,12.40L-373.18,12.62C-370.74,21.28 -368.74,36.82 -368.74,71.45L-368.74,103.42L-340.10,103.42L-343.21,90.76L-343.21,85.66C-341.21,65.45 -325.90,30.38 -315.46,10.40C-312.80,18.39 -310.36,33.26 -310.36,71.45L-310.36,102.75L-268.40,102.75L-284.83,84.32L-284.83,58.57C-284.83,13.28 -285.27,6.85 -291.04,-10.91L-312.80,-5.36C-317.46,1.07 -334.55,32.60 -343.21,65.23L-343.21,58.57C-343.21,13.28 -343.66,6.85 -349.43,-10.91L-371.18,-5.36C-375.85,1.07 -393.16,33.26 -401.82,66.12ZM-222.89,-7.58L-263.51,7.29L-248.42,24.38L-248.42,103.42L-219.56,103.42L-222.89,89.87C-222.89,71.23 -207.13,34.37 -196.03,12.40L-194.25,12.62C-191.81,21.28 -189.81,36.82 -189.81,71.45L-189.81,103.42L-161.17,103.42L-164.28,90.76L-164.28,85.66C-162.28,65.45 -146.96,30.38 -136.53,10.40C-133.87,18.39 -131.42,33.26 -131.42,71.45L-131.42,102.75L-89.47,102.75L-105.89,84.32L-105.89,58.57C-105.89,13.28 -106.34,6.85 -112.11,-10.91L-133.87,-5.36C-138.53,1.07 -155.62,32.60 -164.28,65.23L-164.28,58.57C-164.28,13.28 -164.72,6.85 -170.50,-10.91L-192.25,-5.36C-196.91,1.07 -214.23,33.26 -222.89,66.12ZM-51.28,103.42C-38.18,82.33 -22.87,52.36 -15.10,20.61L-17.76,46.36L-17.76,103.42L24.64,103.42L8.21,84.32L8.21,6.62L16.65,-5.36L-8.66,-5.36C-55.06,-4.48 -80.36,25.94 -80.36,67.23C-80.36,85.21 -74.37,101.20 -67.71,105.86ZM-47.73,86.32C-50.39,86.32 -52.84,77.00 -52.84,55.24C-52.84,32.82 -47.06,1.30 -17.32,1.07C-17.54,24.61 -43.51,86.32 -47.73,86.32ZM102.12,-2.92L102.12,-5.36L66.82,-5.36L66.82,-43.10L41.74,-5.36L25.97,-5.36L41.07,7.73L41.07,70.78C41.51,104.53 58.16,106.08 66.16,106.08C79.92,106.08 95.24,84.55 101.45,59.90L99.01,59.02C94.35,72.78 84.36,89.65 77.26,89.65C71.26,89.65 66.82,88.32 66.82,63.90L66.82,8.40ZM189.14,53.02C189.14,53.02 173.83,90.32 157.84,90.32C149.85,90.32 143.86,77.66 141.86,59.24L190.70,17.28C190.70,12.84 184.04,-8.25 162.95,-8.25C135.64,-8.25 113.00,29.71 113.00,61.68C113.00,91.21 126.10,106.08 145.85,106.08C167.39,106.08 186.92,74.33 192.70,55.24ZM141.41,53.91C141.19,50.80 140.97,47.47 140.97,43.92C140.97,8.40 147.85,1.07 151.85,-1.37C154.73,-3.37 165.83,7.29 166.94,29.71ZM291.93,29.05L292.60,28.16L273.95,-8.47L271.06,-8.47C257.96,10.18 247.09,38.15 240.65,63.01L240.65,-7.58L200.02,7.29L215.12,24.38L215.12,103.42L242.42,103.42L240.65,89.87C240.65,67.45 259.52,22.39 262.63,21.05ZM337.66,-38.44L319.24,-58.87L300.59,-38.44L319.24,-17.80ZM333.22,84.32L333.22,-7.58L292.60,7.29L307.69,24.38L307.69,103.42L349.65,103.42ZM386.28,103.42C399.38,82.33 414.70,52.36 422.47,20.61L419.80,46.36L419.80,103.42L462.20,103.42L445.78,84.32L445.78,6.62L454.21,-5.36L428.90,-5.36C382.51,-4.48 357.20,25.94 357.20,67.23C357.20,85.21 363.19,101.20 369.85,105.86ZM389.83,86.32C387.17,86.32 384.73,77.00 384.73,55.24C384.73,32.82 390.50,1.30 420.25,1.07C420.02,24.61 394.05,86.32 389.83,86.32ZM481.07,-24.46L481.07,-17.80L465.98,-11.36L481.07,5.74L481.07,103.42L523.03,103.42L506.60,84.32L506.60,-54.20L465.98,-41.55Z" fill="#ffffff" stroke="#000000"/>
    <path d="M-341.27,-184.86L-330.66,-193.48L-330.76,-195.68L-390.48,-192.96L-390.37,-190.55L-367.87,-179.69L-366.23,-143.46C-371.81,-140.35 -379.21,-138.69 -383.38,-138.50C-420.71,-136.81 -430.30,-178.40 -431.83,-212.21C-433.40,-246.68 -422.79,-264.98 -401.71,-265.94C-378.00,-267.01 -365.98,-249.52 -355.74,-232.38L-352.89,-232.51L-354.91,-277.08L-387.63,-275.60C-437.90,-273.31 -463.91,-230.77 -462.14,-191.69C-460.19,-148.66 -435.35,-120.09 -397.81,-121.79C-383.97,-122.42 -371.95,-128.90 -362.18,-136.61L-341.89,-125.87L-338.60,-126.02ZM-230.68,-205.94L-230.06,-206.85L-250.15,-242.24L-253.00,-242.11C-265.12,-223.08 -274.62,-194.92 -279.87,-170.04L-283.04,-239.86L-322.55,-223.33L-306.86,-207.10L-303.31,-128.94L-276.30,-130.17L-278.67,-143.48C-279.67,-165.65 -263.03,-211.07 -260.02,-212.53ZM-194.19,-133.89C-182.18,-155.34 -168.38,-185.67 -162.12,-217.41L-163.60,-191.82L-161.04,-135.40L-119.10,-137.30L-136.21,-155.44L-139.69,-232.29L-131.89,-244.52L-156.92,-243.39C-202.76,-240.43 -226.43,-209.21 -224.57,-168.37C-223.77,-150.59 -217.12,-135.05 -210.33,-130.74ZM-191.44,-150.96C-194.08,-150.84 -196.91,-159.95 -197.89,-181.47C-198.89,-203.64 -194.60,-235.08 -165.19,-236.63C-164.35,-213.35 -187.27,-151.15 -191.44,-150.96ZM-57.74,-215.33L-60.31,-247.77L-75.90,-247.06C-100.05,-245.97 -113.05,-226.90 -112.34,-211.31C-111.25,-187.38 -67.50,-178.36 -66.53,-156.85C-66.26,-150.92 -69.64,-147.91 -76.23,-147.61C-88.96,-147.03 -100.78,-160.13 -113.42,-176.94L-113.99,-174.93L-107.03,-137.85L-89.02,-138.67C-60.70,-139.95 -49.24,-158.95 -49.90,-173.44C-50.96,-196.72 -95.64,-211.85 -96.34,-227.22C-96.59,-232.71 -95.18,-235.63 -89.04,-235.91C-79.38,-236.35 -67.98,-227.62 -59.05,-215.05ZM20.70,-251.45C11.92,-231.69 3.78,-207.34 -1.62,-180.91L-4.92,-253.59L-44.53,-239.25L-28.83,-223.02L-23.65,-108.85L-28.26,-94.12L18.51,-96.25L1.70,-107.80L0.51,-134.15C40.88,-141.26 60.42,-176.25 59.11,-205.01C58.13,-226.53 49.54,-246.16 42.26,-256.39ZM-0.38,-153.69C-1.34,-174.77 15.68,-231.20 20.07,-231.40C24.02,-231.58 31.37,-215.19 32.42,-191.92C33.28,-173.04 29.44,-141.40 0.25,-139.86ZM183.50,-256.42L183.39,-258.83L148.48,-257.25L146.79,-294.57L123.67,-256.12L108.08,-255.42L123.60,-243.14L126.43,-180.79C128.39,-147.43 144.92,-146.64 152.83,-147.00C166.44,-147.62 180.62,-169.61 185.66,-194.26L183.21,-195.02C179.21,-181.20 170.09,-164.07 163.07,-163.75C157.14,-163.48 152.69,-164.60 151.59,-188.75L149.10,-243.64ZM226.65,-309.20L187.04,-294.86L202.73,-278.63L208.47,-152.17L237.02,-153.47L233.11,-166.71C232.28,-185.15 246.21,-222.30 256.20,-244.54L257.97,-244.40C260.77,-235.95 263.45,-220.67 265.00,-186.42L266.44,-154.80L307.93,-156.68L290.83,-174.83L289.67,-200.30C287.64,-245.09 286.91,-251.43 280.40,-268.74L259.14,-262.27C254.82,-255.70 239.14,-223.08 232.05,-190.20ZM389.10,-210.31C389.10,-210.31 375.62,-172.74 359.82,-172.02C351.91,-171.66 345.42,-183.91 342.61,-202.04L389.03,-245.73C388.83,-250.12 381.30,-270.68 360.44,-269.73C333.44,-268.51 312.75,-229.94 314.18,-198.33C315.51,-169.13 329.13,-155.01 348.67,-155.89C369.96,-156.86 387.86,-189.13 392.71,-208.27ZM341.93,-207.29C341.58,-210.35 341.21,-213.64 341.05,-217.15C339.45,-252.28 345.93,-259.83 349.77,-262.43C352.54,-264.53 363.99,-254.49 366.10,-232.37ZM-494.89,104.60L-509.20,128.57L-451.24,125.94L-467.67,103.37L-472.38,-0.48L-458.07,-24.45L-516.03,-21.82L-499.61,0.75ZM-403.53,13.77L-443.04,30.31L-427.35,46.54L-423.80,124.70L-395.26,123.40L-399.16,110.16C-399.99,91.72 -386.06,54.56 -376.07,32.33L-374.30,32.47C-371.50,40.92 -368.83,56.20 -367.27,90.45L-365.84,122.07L-337.51,120.78L-341.16,108.41L-341.38,103.36C-340.32,83.29 -326.74,47.91 -317.32,27.68C-314.33,35.47 -311.24,50.07 -309.53,87.83L-308.12,118.79L-266.63,116.90L-283.70,99.42L-284.86,73.95C-286.89,29.16 -287.62,22.81 -294.12,5.51L-315.39,11.97C-319.71,18.55 -335.20,50.49 -342.30,83.16L-342.60,76.57C-344.63,31.78 -345.36,25.43 -351.87,8.13L-373.13,14.59C-377.46,21.17 -393.14,53.78 -400.22,86.67ZM-226.57,5.74L-266.08,22.28L-250.39,38.50L-246.84,116.66L-218.30,115.37L-222.20,102.13C-223.03,83.68 -209.10,46.53 -199.11,24.30L-197.34,24.44C-194.54,32.89 -191.87,48.17 -190.31,82.42L-188.88,114.03L-160.55,112.75L-164.19,100.37L-164.42,95.32C-163.35,75.25 -149.78,39.88 -140.36,19.65C-137.36,27.43 -134.28,42.03 -132.57,79.80L-131.16,110.75L-89.67,108.87L-106.74,91.38L-107.90,65.92C-109.93,21.13 -110.66,14.78 -117.16,-2.52L-138.43,3.94C-142.75,10.52 -158.24,42.46 -165.34,75.12L-165.64,68.54C-167.67,23.75 -168.40,17.40 -174.91,0.10L-196.17,6.56C-200.50,13.14 -216.18,45.75 -223.26,78.63ZM-51.87,107.81C-39.87,86.37 -26.06,56.04 -19.80,24.30L-21.28,49.88L-18.72,106.31L23.21,104.41L6.11,86.26L2.62,9.42L10.43,-2.82L-14.60,-1.68C-60.45,1.28 -84.11,32.50 -82.26,73.33C-81.45,91.12 -74.81,106.66 -68.01,110.97ZM-49.13,90.75C-51.76,90.87 -54.60,81.76 -55.57,60.24C-56.58,38.07 -52.29,6.63 -22.88,5.08C-22.04,28.36 -44.96,90.56 -49.13,90.75ZM95.06,-4.24L94.95,-6.65L60.05,-5.07L58.35,-42.39L35.24,-3.94L19.65,-3.23L35.17,9.04L38.00,71.39C39.95,104.75 56.49,105.54 64.39,105.18C78.00,104.56 92.18,82.58 97.23,57.93L94.77,57.16C90.78,70.98 81.66,88.11 74.63,88.43C68.70,88.70 64.25,87.58 63.16,63.43L60.66,8.54ZM183.64,47.18C183.64,47.18 170.17,84.76 154.36,85.47C146.45,85.83 139.96,73.59 137.16,55.45L183.57,11.77C183.37,7.37 175.84,-13.18 154.98,-12.24C127.98,-11.01 107.29,27.55 108.72,59.16C110.05,88.36 123.67,102.49 143.21,101.60C164.51,100.63 182.40,68.36 187.25,49.22ZM136.48,50.20C136.12,47.14 135.75,43.86 135.59,40.34C133.99,5.22 140.47,-2.34 144.31,-4.93C147.08,-7.04 158.53,3.00 160.64,25.13ZM284.22,18.86L284.84,17.95L264.75,-17.44L261.90,-17.31C249.78,1.72 240.28,29.87 235.03,54.75L231.86,-15.07L192.35,1.47L208.04,17.69L211.59,95.86L238.60,94.63L236.23,81.32C235.23,59.14 251.86,13.73 254.88,12.27ZM326.42,-49.94L307.28,-69.31L289.75,-48.28L309.12,-28.69ZM327.54,71.67L323.41,-19.22L283.90,-2.69L299.60,13.54L303.15,91.70L344.64,89.82ZM380.87,88.17C392.87,66.73 406.68,36.40 412.94,4.65L411.46,30.24L414.02,86.67L455.95,84.76L438.85,66.62L435.36,-10.22L443.17,-22.46L418.14,-21.32C372.29,-18.36 348.63,12.85 350.48,53.69C351.29,71.47 357.93,87.01 364.73,91.32ZM383.61,71.11C380.98,71.23 378.14,62.12 377.17,40.60C376.16,18.42 380.45,-13.01 409.86,-14.57C410.70,8.72 387.78,70.92 383.61,71.11ZM468.88,-42.55L469.18,-35.96L454.53,-28.91L470.23,-12.69L474.62,83.92L516.11,82.03L499.01,63.89L492.79,-73.11L453.18,-58.77Z" fill="#ffffff" stroke="#000000"/>
    <path d="M-351.36,-164.02L-341.25,-173.03L-341.45,-175.19L-400.39,-169.83L-400.17,-167.45L-377.44,-157.72L-374.19,-121.97C-379.56,-118.64 -386.81,-116.67 -390.93,-116.30C-427.76,-112.94 -439.11,-153.64 -442.14,-187.00C-445.24,-221.02 -435.57,-239.60 -414.77,-241.49C-391.37,-243.62 -378.70,-226.86 -367.81,-210.37L-364.99,-210.63L-368.99,-254.61L-401.28,-251.67C-450.89,-247.16 -474.70,-203.92 -471.20,-165.36C-467.33,-122.89 -441.49,-95.75 -404.44,-99.12C-390.79,-100.36 -379.19,-107.31 -369.87,-115.37L-349.33,-105.66L-346.08,-105.96ZM-242.95,-189.83L-242.38,-190.76L-263.83,-224.85L-266.65,-224.60C-277.77,-205.23 -285.91,-176.97 -289.98,-152.13L-296.25,-221.03L-334.58,-202.91L-318.33,-187.56L-311.31,-110.43L-284.66,-112.85L-287.60,-125.91C-289.59,-147.80 -275.17,-193.46 -272.26,-195.03ZM-203.63,-120.23C-192.72,-141.97 -180.43,-172.58 -175.66,-204.26L-175.98,-178.89L-170.91,-123.20L-129.53,-126.97L-147.26,-144.14L-154.16,-219.97L-146.99,-232.42L-171.69,-230.18C-216.89,-225.19 -238.89,-193.26 -235.22,-152.96C-233.63,-135.41 -226.36,-120.34 -219.45,-116.38ZM-201.68,-137.22C-204.28,-136.99 -207.49,-145.87 -209.42,-167.10C-211.41,-188.99 -208.58,-220.27 -179.57,-223.12C-177.69,-200.14 -197.56,-137.60 -201.68,-137.22ZM-72.35,-206.88L-76.35,-238.85L-91.74,-237.45C-115.57,-235.28 -127.57,-215.84 -126.17,-200.46C-124.02,-176.84 -80.35,-169.89 -78.42,-148.66C-77.89,-142.81 -81.10,-139.67 -87.60,-139.08C-100.16,-137.94 -112.43,-150.37 -125.69,-166.42L-126.16,-164.41L-117.61,-128.05L-99.85,-129.67C-71.90,-132.21 -61.42,-151.51 -62.72,-165.81C-64.81,-188.78 -109.68,-201.74 -111.06,-216.90C-111.55,-222.32 -110.29,-225.28 -104.22,-225.83C-94.69,-226.70 -83.03,-218.58 -73.63,-206.55ZM3.59,-246.12C-4.20,-226.19 -11.16,-201.74 -15.31,-175.37L-21.83,-247.09L-60.36,-231.13L-44.11,-215.79L-33.86,-103.12L-37.76,-88.35L8.39,-92.55L-8.75,-103.22L-11.11,-129.22C28.50,-138.07 46.24,-173.54 43.66,-201.92C41.73,-223.16 32.35,-242.18 24.69,-251.97ZM-12.87,-148.50C-14.76,-169.30 -0.46,-225.87 3.87,-226.27C7.77,-226.62 15.77,-210.75 17.86,-187.78C19.55,-169.15 17.17,-137.69 -11.62,-134.85ZM164.36,-258.34L164.14,-260.73L129.69,-257.59L126.34,-294.43L105.21,-255.37L89.83,-253.97L105.72,-242.52L111.32,-180.99C114.75,-148.10 131.14,-148.06 138.94,-148.77C152.37,-149.99 165.41,-172.37 169.29,-196.97L166.83,-197.62C163.50,-183.77 155.25,-166.42 148.31,-165.79C142.46,-165.25 138.01,-166.16 135.84,-189.99L130.92,-244.16ZM204.66,-312.47L166.13,-296.52L182.38,-281.17L193.74,-156.37L221.90,-158.94L217.45,-171.86C215.79,-190.06 227.91,-227.42 236.79,-249.86L238.54,-249.80C241.69,-241.57 245.02,-226.58 248.10,-192.78L250.93,-161.58L291.88,-165.30L274.16,-182.48L271.87,-207.61C267.85,-251.81 266.84,-258.05 259.63,-274.88L238.89,-267.53C234.92,-260.83 220.87,-227.88 215.34,-195.04ZM369.74,-221.98C369.74,-221.98 358.10,-184.22 342.50,-182.80C334.70,-182.09 327.73,-193.91 324.15,-211.71L368.09,-257.00C367.69,-261.33 359.32,-281.32 338.74,-279.45C312.09,-277.03 293.36,-237.97 296.20,-206.77C298.82,-177.95 312.92,-164.60 332.20,-166.35C353.22,-168.26 369.47,-200.98 373.41,-220.12ZM323.24,-216.87C322.75,-219.89 322.23,-223.12 321.92,-226.58C318.77,-261.25 324.83,-269.01 328.51,-271.75C331.15,-273.95 342.93,-264.54 346.01,-242.76ZM-490.28,129.12L-503.36,153.46L-446.16,148.26L-463.42,126.67L-472.74,24.19L-459.66,-0.16L-516.86,5.05L-499.61,26.63ZM-404.02,35.19L-442.35,53.32L-426.09,68.66L-419.08,145.79L-390.91,143.23L-395.36,130.31C-397.02,112.11 -384.91,74.75 -376.03,52.31L-374.27,52.37C-371.12,60.60 -367.79,75.59 -364.72,109.39L-361.88,140.59L-333.93,138.05L-338.09,125.97L-338.54,120.99C-338.38,101.10 -326.55,65.50 -318.14,45.08C-314.83,52.64 -311.12,66.94 -307.73,104.21L-304.95,134.76L-264.00,131.03L-281.67,114.51L-283.96,89.37C-287.98,45.17 -288.99,38.93 -296.20,22.11L-316.94,29.46C-320.91,36.15 -334.80,68.44 -340.35,101.06L-340.94,94.56C-344.96,50.36 -345.97,44.11 -353.18,27.29L-373.92,34.64C-377.90,41.34 -391.94,74.29 -397.47,107.13ZM-229.38,19.31L-267.71,37.43L-251.46,52.77L-244.45,129.91L-216.28,127.35L-220.73,114.42C-222.39,96.22 -210.28,58.86 -201.39,36.42L-199.64,36.48C-196.49,44.72 -193.16,59.70 -190.08,93.50L-187.25,124.70L-159.30,122.16L-163.45,110.09L-163.91,105.10C-163.75,85.21 -151.91,49.62 -143.50,29.19C-140.20,36.75 -136.49,51.05 -133.10,88.32L-130.32,118.87L-89.37,115.15L-107.04,98.62L-109.33,73.49C-113.35,29.29 -114.35,23.04 -121.56,6.22L-142.30,13.57C-146.28,20.27 -160.17,52.55 -165.72,85.17L-166.31,78.67C-170.33,34.47 -171.34,28.23 -178.55,11.41L-199.29,18.76C-203.27,25.45 -217.31,58.41 -222.84,91.24ZM-52.05,112.41C-41.14,90.66 -28.85,60.05 -24.08,28.38L-24.40,53.75L-19.33,109.43L22.05,105.66L4.32,88.49L-2.57,12.66L4.59,0.21L-20.11,2.45C-65.31,7.44 -87.31,39.37 -83.64,79.67C-82.05,97.22 -74.78,112.29 -67.86,116.25ZM-50.10,95.41C-52.70,95.64 -55.91,86.76 -57.84,65.53C-59.83,43.64 -57.00,12.36 -27.98,9.51C-26.11,32.49 -45.98,95.03 -50.10,95.41ZM88.23,-5.00L88.01,-7.38L53.56,-4.25L50.21,-41.08L29.08,-2.02L13.69,-0.62L29.59,10.82L35.19,72.36C38.62,105.25 55.01,105.29 62.81,104.58C76.24,103.36 89.28,80.98 93.16,56.38L90.69,55.73C87.37,69.58 79.11,86.93 72.18,87.56C66.33,88.09 61.88,87.19 59.71,63.35L54.78,9.19ZM178.13,41.88C178.13,41.88 166.49,79.64 150.89,81.06C143.09,81.76 136.12,69.95 132.53,52.14L176.47,6.86C176.08,2.52 167.70,-17.47 147.12,-15.60C120.47,-13.17 101.74,25.89 104.58,57.09C107.20,85.90 121.31,99.26 140.59,97.50C161.61,95.59 177.85,62.87 181.79,43.73ZM131.62,46.98C131.13,43.97 130.62,40.74 130.30,37.27C127.15,2.60 133.22,-5.16 136.90,-7.90C139.54,-10.10 151.32,-0.69 154.39,21.10ZM276.31,9.35L276.89,8.42L255.43,-25.67L252.62,-25.41C241.49,-6.05 233.36,22.22 229.28,47.05L223.01,-21.85L184.68,-3.72L200.93,11.62L207.95,88.75L234.60,86.33L231.67,73.27C229.67,51.39 244.09,5.73 247.01,4.15ZM314.96,-60.58L295.16,-78.87L278.77,-57.28L298.81,-38.79ZM321.52,59.63L313.36,-30.07L275.03,-11.94L291.28,3.40L298.30,80.53L339.25,76.81ZM375.00,73.56C385.91,51.81 398.20,21.20 402.97,-10.47L402.65,14.90L407.72,70.58L449.10,66.82L431.37,49.64L424.47,-26.19L431.64,-38.64L406.94,-36.39C361.74,-31.41 339.74,0.52 343.40,40.82C345.00,58.37 352.27,73.44 359.18,77.40ZM376.95,56.56C374.35,56.79 371.14,47.91 369.21,26.68C367.22,4.79 370.05,-26.48 399.06,-29.34C400.94,-6.36 381.07,56.18 376.95,56.56ZM456.16,-59.66L456.75,-53.16L442.59,-45.54L458.84,-30.19L467.52,65.14L508.47,61.42L490.74,44.24L478.44,-90.96L439.91,-75.00Z" fill="#ffffff" stroke="#000000"/>
    <path d="M-360.15,-142.74L-350.56,-152.10L-350.85,-154.23L-408.89,-146.28L-408.56,-143.94L-385.65,-135.34L-380.83,-100.13C-386.00,-96.60 -393.08,-94.33 -397.13,-93.77C-433.40,-88.81 -446.45,-128.53 -450.95,-161.39C-455.53,-194.88 -446.80,-213.69 -426.32,-216.49C-403.28,-219.64 -390.01,-203.64 -378.49,-187.83L-375.72,-188.21L-381.65,-231.52L-413.44,-227.16C-462.30,-220.48 -483.90,-176.66 -478.70,-138.68C-472.97,-96.86 -446.20,-71.19 -409.72,-76.18C-396.28,-78.02 -385.12,-85.42 -376.27,-93.80L-355.52,-85.12L-352.32,-85.56ZM-254.11,-173.13L-253.59,-174.07L-276.33,-206.82L-279.11,-206.44C-289.24,-186.79 -296.01,-158.48 -298.93,-133.74L-308.22,-201.58L-345.30,-181.94L-328.55,-167.50L-318.15,-91.55L-291.90,-95.14L-295.39,-107.92C-298.34,-129.47 -286.14,-175.26 -283.33,-176.95ZM-212.11,-106.07C-202.30,-128.06 -191.52,-158.87 -188.23,-190.41L-187.40,-165.31L-179.90,-110.48L-139.15,-116.06L-157.45,-132.24L-167.67,-206.91L-161.14,-219.55L-185.46,-216.22C-229.94,-209.26 -250.26,-176.70 -244.82,-137.01C-242.46,-119.73 -234.59,-105.16 -227.58,-101.56ZM-210.95,-122.96C-213.51,-122.61 -217.08,-131.25 -219.94,-152.16C-222.89,-173.71 -221.50,-204.76 -192.94,-208.89C-190.05,-186.24 -206.89,-123.52 -210.95,-122.96ZM-86.20,-197.64L-91.59,-229.07L-106.74,-227.00C-130.21,-223.78 -141.19,-204.02 -139.12,-188.87C-135.93,-165.62 -92.44,-160.70 -89.58,-139.80C-88.79,-134.04 -91.83,-130.79 -98.23,-129.92C-110.60,-128.22 -123.29,-139.96 -137.12,-155.24L-137.50,-153.23L-127.41,-117.66L-109.92,-120.06C-82.40,-123.83 -72.90,-143.38 -74.83,-157.47C-77.93,-180.08 -122.87,-190.88 -124.92,-205.81C-125.65,-211.15 -124.54,-214.13 -118.56,-214.94C-109.17,-216.23 -97.28,-208.73 -87.45,-197.25ZM-12.86,-239.85C-19.68,-219.79 -25.46,-195.31 -28.38,-169.04L-38.05,-239.66L-75.43,-222.15L-58.67,-207.71L-43.48,-96.77L-46.67,-81.99L-1.23,-88.21L-18.65,-98.00L-22.16,-123.60C16.61,-134.12 32.56,-170.00 28.74,-197.95C25.87,-218.85 15.75,-237.25 7.73,-246.58ZM-24.76,-142.59C-27.56,-163.07 -15.97,-219.65 -11.70,-220.23C-7.86,-220.76 0.76,-205.42 3.86,-182.80C6.37,-164.45 5.43,-133.24 -22.92,-129.15ZM145.55,-259.15L145.23,-261.50L111.31,-256.85L106.34,-293.12L87.20,-253.55L72.05,-251.48L88.28,-240.87L96.58,-180.28C101.44,-147.91 117.65,-148.61 125.33,-149.66C138.56,-151.47 150.45,-174.18 153.18,-198.68L150.71,-199.22C148.04,-185.37 140.66,-167.85 133.84,-166.91C128.08,-166.12 123.63,-166.82 120.42,-190.29L113.12,-243.62ZM182.96,-314.48L145.59,-296.97L162.34,-282.53L179.17,-159.64L206.91,-163.44L201.92,-176.02C199.47,-193.94 209.77,-231.43 217.54,-254.01L219.28,-254.03C222.77,-246.03 226.73,-231.36 231.29,-198.08L235.50,-167.35L275.82,-172.88L257.52,-189.06L254.13,-213.81C248.17,-257.33 246.90,-263.46 239.01,-279.77L218.83,-271.57C215.20,-264.77 202.80,-231.56 198.80,-198.84ZM350.26,-232.41C350.26,-232.41 340.45,-194.55 325.09,-192.45C317.40,-191.39 309.98,-202.77 305.63,-220.21L347.05,-266.96C346.47,-271.23 337.29,-290.62 317.02,-287.84C290.78,-284.25 274.01,-244.79 278.22,-214.07C282.11,-185.69 296.65,-173.12 315.64,-175.72C336.33,-178.55 350.93,-211.63 353.97,-230.74ZM304.51,-225.27C303.88,-228.23 303.23,-231.40 302.77,-234.82C298.09,-268.95 303.74,-276.90 307.26,-279.77C309.77,-282.07 321.84,-273.29 325.86,-251.89ZM-484.36,153.34L-496.20,178.00L-439.87,170.29L-457.90,149.72L-471.72,48.81L-459.88,24.15L-516.21,31.86L-498.18,52.43ZM-403.27,56.61L-440.36,76.25L-423.60,90.69L-413.20,166.64L-385.47,162.84L-390.45,150.27C-392.90,132.34 -382.61,94.85 -374.83,72.27L-373.09,72.25C-369.61,80.25 -365.64,94.92 -361.09,128.21L-356.88,158.93L-329.36,155.16L-334.01,143.41L-334.68,138.50C-335.42,118.82 -325.31,83.10 -317.92,62.52C-314.30,69.85 -310.00,83.83 -304.97,120.52L-300.86,150.60L-260.53,145.08L-278.75,129.54L-282.13,104.79C-288.09,61.26 -289.37,55.14 -297.25,38.83L-317.43,47.02C-321.06,53.83 -333.34,86.37 -337.37,118.87L-338.24,112.47C-344.20,68.95 -345.48,62.82 -353.36,46.51L-373.54,54.71C-377.17,61.51 -389.58,94.72 -393.58,127.44ZM-231.31,33.06L-268.40,52.70L-251.64,67.14L-241.24,143.09L-213.51,139.30L-218.49,126.72C-220.94,108.80 -210.65,71.31 -202.87,48.73L-201.13,48.71C-197.65,56.71 -193.68,71.38 -189.13,104.66L-184.92,135.38L-157.40,131.61L-162.05,119.86L-162.72,114.95C-163.46,95.28 -153.35,59.55 -145.96,38.98C-142.34,46.31 -138.04,60.28 -133.02,96.98L-128.90,127.06L-88.57,121.54L-106.79,105.99L-110.17,81.24C-116.13,37.72 -117.41,31.59 -125.29,15.28L-145.47,23.48C-149.10,30.28 -161.38,62.82 -165.41,95.33L-166.29,88.93C-172.24,45.40 -173.52,39.27 -181.40,22.96L-201.58,31.16C-205.21,37.96 -217.62,71.18 -221.62,103.89ZM-51.79,117.15C-41.98,95.16 -31.20,64.34 -27.91,32.81L-27.08,57.91L-19.57,112.74L21.18,107.16L2.88,90.98L-7.35,16.30L-0.82,3.67L-25.14,7.00C-69.61,13.96 -89.93,46.52 -84.50,86.20C-82.13,103.48 -74.27,118.06 -67.26,121.66ZM-50.63,100.26C-53.19,100.61 -56.76,91.97 -59.62,71.06C-62.57,49.51 -61.17,18.46 -32.61,14.33C-29.73,36.97 -46.57,99.70 -50.63,100.26ZM81.64,-5.23L81.32,-7.58L47.40,-2.93L42.43,-39.20L23.29,0.37L8.14,2.44L24.37,13.05L32.67,73.64C37.54,106.01 53.74,105.31 61.42,104.26C74.65,102.45 86.54,79.74 89.27,55.24L86.81,54.71C84.14,68.55 76.76,86.08 69.93,87.01C64.17,87.80 59.73,87.10 56.51,63.63L49.21,10.30ZM172.64,37.08C172.64,37.08 162.82,74.94 147.46,77.05C139.78,78.10 132.36,66.73 128.01,49.28L169.43,2.53C168.84,-1.74 159.67,-21.13 139.40,-18.35C113.16,-14.76 96.39,24.70 100.60,55.42C104.48,83.80 119.03,96.37 138.02,93.77C158.71,90.94 173.31,57.86 176.34,38.75ZM126.88,44.22C126.26,41.26 125.61,38.09 125.14,34.68C120.47,0.54 126.12,-7.41 129.64,-10.28C132.15,-12.58 144.22,-3.80 148.23,17.60ZM268.26,0.52L268.79,-0.42L246.04,-33.17L243.27,-32.79C233.14,-13.15 226.36,15.17 223.45,39.91L214.16,-27.94L177.07,-8.30L193.83,6.14L204.23,82.10L230.47,78.50L226.98,65.72C224.03,44.17 236.24,-1.62 239.05,-3.31ZM303.33,-70.36L282.94,-87.56L267.70,-65.48L288.34,-48.09ZM315.22,48.21L303.12,-40.12L266.04,-20.48L282.80,-6.04L293.20,69.91L333.52,64.39ZM368.72,59.57C378.53,37.58 389.31,6.76 392.60,-24.77L393.43,0.33L400.94,55.16L441.69,49.58L423.39,33.40L413.16,-41.28L419.69,-53.91L395.37,-50.58C350.90,-43.62 330.58,-11.06 336.01,28.62C338.38,45.91 346.24,60.48 353.26,64.08ZM369.89,42.68C367.33,43.03 363.75,34.39 360.89,13.48C357.94,-8.07 359.34,-39.12 387.90,-43.25C390.78,-20.61 373.94,42.12 369.89,42.68ZM443.00,-75.79L443.87,-69.39L430.21,-61.22L446.97,-46.77L459.82,47.10L500.15,41.58L481.85,25.39L463.62,-107.74L426.24,-90.23Z" fill="#ffffff" stroke="#000000"/>
    <path d="M-367.62,-121.09L-358.56,-130.77L-358.95,-132.86L-415.96,-122.40L-415.54,-120.10L-392.50,-112.62L-386.16,-78.04C-391.11,-74.31 -398.00,-71.75 -401.99,-71.02C-437.62,-64.48 -452.30,-103.17 -458.23,-135.45C-464.26,-168.36 -456.48,-187.34 -436.36,-191.03C-413.72,-195.19 -399.87,-179.96 -387.78,-164.84L-385.06,-165.34L-392.86,-207.90L-424.10,-202.17C-472.10,-193.36 -491.49,-149.07 -484.65,-111.75C-477.11,-70.67 -449.49,-46.48 -413.64,-53.06C-400.44,-55.48 -389.74,-63.30 -381.36,-71.98L-360.46,-64.33L-357.31,-64.91ZM-264.15,-155.89L-263.68,-156.84L-287.63,-188.20L-290.35,-187.70C-299.49,-167.82 -304.92,-139.53 -306.69,-114.93L-318.92,-181.59L-354.70,-160.51L-337.49,-146.98L-323.80,-72.36L-298.01,-77.09L-302.04,-89.57C-305.92,-110.74 -295.91,-156.56 -293.20,-158.36ZM-219.61,-91.47C-210.90,-113.66 -201.63,-144.61 -199.79,-175.93L-197.84,-151.15L-187.96,-97.28L-147.92,-104.63L-166.74,-119.81L-180.20,-193.17L-174.31,-205.96L-198.21,-201.57C-241.87,-192.70 -260.50,-159.59 -253.34,-120.60C-250.23,-103.62 -241.80,-89.57 -234.70,-86.32ZM-219.22,-108.23C-221.74,-107.77 -225.66,-116.15 -229.43,-136.69C-233.31,-157.86 -233.32,-188.63 -205.27,-193.99C-201.40,-171.73 -215.24,-108.96 -219.22,-108.23ZM-99.24,-187.66L-105.98,-218.49L-120.86,-215.76C-143.92,-211.53 -153.89,-191.50 -151.16,-176.62C-146.97,-153.77 -103.75,-150.86 -99.99,-130.32C-98.95,-124.66 -101.80,-121.32 -108.09,-120.17C-120.25,-117.94 -133.32,-128.97 -147.68,-143.45L-147.96,-141.45L-136.39,-106.74L-119.21,-109.89C-92.16,-114.85 -83.66,-134.62 -86.19,-148.45C-90.27,-170.67 -135.19,-179.33 -137.89,-194.00C-138.85,-199.24 -137.88,-202.24 -132.01,-203.32C-122.79,-205.01 -110.69,-198.13 -100.46,-187.22ZM-28.63,-232.68C-34.47,-212.54 -39.08,-188.08 -40.79,-161.98L-53.52,-231.37L-89.69,-212.38L-72.47,-198.85L-52.48,-89.85L-54.97,-75.09L-10.32,-83.28L-27.98,-92.18L-32.60,-117.33C5.26,-129.48 19.42,-165.66 14.38,-193.12C10.61,-213.66 -0.22,-231.39 -8.57,-240.26ZM-36.02,-135.99C-39.71,-156.11 -30.79,-212.57 -26.59,-213.34C-22.82,-214.03 -13.61,-199.25 -9.53,-177.03C-6.23,-159.01 -5.76,-128.11 -33.60,-122.78ZM127.13,-258.87L126.70,-261.18L93.37,-255.06L86.84,-290.70L69.69,-250.72L54.80,-247.99L71.33,-238.24L82.25,-178.70C88.51,-146.92 104.50,-148.33 112.05,-149.72C125.05,-152.10 135.78,-175.09 137.38,-199.44L134.92,-199.85C132.90,-186.05 126.39,-168.38 119.68,-167.15C114.02,-166.12 109.60,-166.60 105.37,-189.66L95.76,-242.07ZM161.63,-315.26L125.46,-296.27L142.68,-282.74L164.83,-162.00L192.08,-167.00L186.59,-179.21C183.36,-196.82 191.86,-234.35 198.53,-257.02L200.25,-257.12C204.06,-249.37 208.63,-235.04 214.63,-202.34L220.17,-172.16L259.79,-179.42L240.97,-194.61L236.51,-218.92C228.66,-261.68 227.13,-267.69 218.60,-283.46L199.02,-274.45C195.74,-267.56 184.96,-234.17 182.48,-201.64ZM330.72,-241.62C330.72,-241.62 322.71,-203.75 307.62,-200.98C300.07,-199.60 292.22,-210.51 287.14,-227.56L325.99,-275.64C325.22,-279.83 315.28,-298.59 295.37,-294.94C269.58,-290.21 254.78,-250.44 260.32,-220.26C265.43,-192.38 280.38,-180.60 299.03,-184.02C319.36,-187.75 332.31,-221.11 334.46,-240.14ZM285.80,-232.51C285.05,-235.41 284.27,-238.52 283.65,-241.87C277.50,-275.41 282.73,-283.52 286.08,-286.52C288.46,-288.90 300.78,-280.77 305.72,-259.79ZM-477.14,177.22L-487.73,202.13L-432.39,191.97L-451.14,172.45L-469.33,73.30L-458.74,48.38L-514.08,58.54L-495.33,78.06ZM-401.31,77.93L-437.10,99.02L-419.88,112.54L-406.19,187.17L-378.94,182.17L-384.43,169.96C-387.66,152.35 -379.16,114.82 -372.49,92.15L-370.77,92.05C-366.97,99.80 -362.39,114.13 -356.39,146.83L-350.85,177.01L-323.81,172.05L-328.94,160.64L-329.82,155.82C-331.43,136.40 -323.05,100.63 -316.65,79.95C-312.75,87.04 -307.87,100.66 -301.26,136.72L-295.83,166.27L-256.22,159.00L-274.92,144.45L-279.38,120.13C-287.23,77.37 -288.76,71.37 -297.29,55.60L-316.87,64.61C-320.16,71.50 -330.84,104.22 -333.36,136.54L-334.51,130.25C-342.36,87.49 -343.89,81.48 -352.42,65.71L-372.00,74.72C-375.29,81.61 -386.06,115.00 -388.54,147.53ZM-232.36,46.94L-268.14,68.02L-250.93,81.55L-237.23,156.17L-209.98,151.17L-215.47,138.96C-218.70,121.35 -210.21,83.83 -203.53,61.15L-201.82,61.05C-198.01,68.80 -193.43,83.13 -187.43,115.83L-181.89,146.02L-154.85,141.06L-159.98,129.65L-160.86,124.83C-162.48,105.40 -154.09,69.63 -147.70,48.96C-143.80,56.04 -138.92,69.66 -132.30,105.72L-126.88,135.28L-87.26,128.01L-105.97,113.45L-110.43,89.14C-118.27,46.38 -119.81,40.37 -128.33,24.60L-147.91,33.61C-151.20,40.50 -161.88,73.23 -164.40,105.54L-165.56,99.25C-173.40,56.49 -174.94,50.49 -183.46,34.72L-203.04,43.73C-206.33,50.61 -217.11,84.01 -219.59,116.53ZM-51.09,122.02C-42.38,99.84 -33.10,68.89 -31.27,37.56L-29.32,62.34L-19.44,116.21L20.60,108.87L1.78,93.69L-11.68,20.32L-5.79,7.54L-29.69,11.92C-73.34,20.80 -91.97,53.90 -84.82,92.89C-81.70,109.87 -73.28,123.92 -66.18,127.17ZM-50.70,105.27C-53.21,105.73 -57.13,97.35 -60.90,76.80C-64.79,55.63 -64.80,24.86 -36.75,19.50C-32.88,41.76 -46.72,104.53 -50.70,105.27ZM75.34,-4.96L74.91,-7.27L41.58,-1.15L35.05,-36.79L17.90,3.19L3.01,5.92L19.54,15.68L30.46,75.21C36.72,106.99 52.71,105.58 60.26,104.19C73.26,101.81 83.99,78.82 85.59,54.48L83.13,54.06C81.11,67.87 74.60,85.53 67.90,86.76C62.24,87.80 57.81,87.31 53.58,64.25L43.97,11.84ZM167.20,32.79C167.20,32.79 159.20,70.66 144.10,73.43C136.56,74.81 128.71,63.90 123.63,46.85L162.48,-1.23C161.71,-5.42 151.76,-24.18 131.85,-20.53C106.07,-15.80 91.26,23.97 96.80,54.15C101.91,82.03 116.86,93.81 135.51,90.39C155.85,86.66 168.80,53.30 170.94,34.27ZM122.28,41.90C121.54,39.00 120.75,35.89 120.13,32.54C113.98,-1.00 119.21,-9.11 122.56,-12.11C124.94,-14.49 137.27,-6.36 142.20,14.62ZM260.10,-7.66L260.58,-8.61L236.62,-39.97L233.90,-39.47C224.76,-19.59 219.33,8.71 217.56,33.30L205.33,-33.36L169.55,-12.28L186.76,1.25L200.45,75.87L226.24,71.14L222.22,58.66C218.33,37.49 228.34,-8.33 231.05,-10.13ZM291.59,-79.30L270.66,-95.40L256.59,-72.88L277.77,-56.62ZM308.67,37.39L292.75,-49.40L256.96,-28.31L274.18,-14.79L287.87,59.84L327.49,52.57ZM362.07,46.22C370.79,24.04 380.06,-6.91 381.90,-38.23L383.84,-13.46L393.73,40.42L433.76,33.07L414.94,17.89L401.48,-55.48L407.37,-68.26L383.48,-63.88C339.82,-55.00 321.19,-21.90 328.34,17.09C331.46,34.07 339.89,48.13 346.98,51.37ZM362.47,29.47C359.95,29.93 356.03,21.55 352.26,1.00C348.38,-20.17 348.37,-50.93 376.42,-56.30C380.28,-34.04 366.45,28.74 362.47,29.47ZM429.43,-90.94L430.58,-84.65L417.45,-75.96L434.66,-62.43L451.58,29.80L491.20,22.53L472.38,7.35L448.38,-123.45L412.21,-104.47Z" fill="#ffffff" stroke="#000000"/>
    <path d="M-373.76,-99.15L-365.24,-109.12L-365.72,-111.18L-421.61,-98.28L-421.09,-96.02L-397.98,-89.67L-390.16,-55.76C-394.88,-51.85 -401.59,-49.01 -405.49,-48.11C-440.42,-40.04 -456.68,-77.64 -463.98,-109.28C-471.42,-141.55 -464.58,-160.66 -444.85,-165.21C-422.66,-170.33 -408.29,-155.90 -395.66,-141.50L-392.99,-142.11L-402.61,-183.83L-433.23,-176.76C-480.29,-165.91 -497.47,-121.25 -489.03,-84.67C-479.74,-44.39 -451.35,-21.72 -416.21,-29.83C-403.26,-32.82 -393.03,-41.03 -385.15,-49.99L-364.14,-43.36L-361.05,-44.08ZM-273.04,-138.19L-272.61,-139.16L-297.70,-169.08L-300.37,-168.47C-308.51,-148.41 -312.60,-120.19 -313.25,-95.80L-328.33,-161.15L-362.76,-138.70L-345.14,-126.10L-328.25,-52.94L-302.98,-58.78L-307.51,-70.93C-312.30,-91.69 -304.46,-137.44 -301.87,-139.33ZM-226.12,-76.51C-218.50,-98.83 -210.72,-129.85 -210.31,-160.89L-207.28,-136.49L-195.09,-83.67L-155.84,-92.73L-175.13,-106.90L-191.72,-178.82L-186.48,-191.72L-209.90,-186.31C-252.66,-175.58 -269.59,-142.02 -260.77,-103.80C-256.93,-87.15 -247.97,-73.64 -240.81,-70.74ZM-226.48,-93.10C-228.95,-92.53 -233.20,-100.64 -237.85,-120.77C-242.64,-141.53 -244.03,-171.94 -216.54,-178.50C-211.72,-156.67 -222.58,-94.00 -226.48,-93.10ZM-111.44,-177.00L-119.48,-207.18L-134.07,-203.81C-156.68,-198.60 -165.64,-178.35 -162.27,-163.76C-157.11,-141.36 -114.25,-140.42 -109.60,-120.29C-108.32,-114.74 -110.99,-111.31 -117.16,-109.88C-129.08,-107.13 -142.50,-117.46 -157.34,-131.13L-157.53,-129.14L-144.54,-95.34L-127.69,-99.23C-101.18,-105.35 -93.65,-125.26 -96.78,-138.83C-101.81,-160.61 -146.61,-167.15 -149.93,-181.54C-151.11,-186.68 -150.29,-189.68 -144.54,-191.01C-135.50,-193.09 -123.23,-186.84 -112.62,-176.51ZM-43.65,-224.68C-48.52,-204.51 -51.98,-180.12 -52.51,-154.24L-68.20,-222.26L-103.11,-201.87L-85.48,-189.27L-60.82,-82.41L-62.62,-67.71L-18.85,-77.81L-36.71,-85.81L-42.40,-110.47C-5.53,-124.17 6.85,-160.58 0.64,-187.50C-4.01,-207.64 -15.52,-224.68 -24.16,-233.07ZM-46.63,-128.76C-51.18,-148.49 -44.89,-204.70 -40.78,-205.65C-37.08,-206.50 -27.31,-192.30 -22.28,-170.52C-18.20,-152.85 -16.35,-122.32 -43.64,-115.81ZM109.14,-257.56L108.62,-259.82L75.95,-252.28L67.88,-287.21L52.73,-246.92L38.13,-243.55L54.91,-234.65L68.37,-176.29C75.99,-145.15 91.74,-147.27 99.14,-148.98C111.88,-151.92 121.46,-175.12 121.95,-199.26L119.50,-199.56C118.12,-185.82 112.48,-168.07 105.90,-166.55C100.35,-165.27 95.96,-165.56 90.74,-188.16L78.89,-239.54ZM140.73,-314.85L105.82,-294.45L123.45,-281.86L150.76,-163.49L177.48,-169.65L171.50,-181.48C167.52,-198.74 174.24,-236.22 179.82,-258.93L181.51,-259.11C185.62,-251.62 190.79,-237.66 198.19,-205.60L205.02,-176.01L243.86,-184.97L224.57,-199.13L219.07,-222.97C209.39,-264.89 207.61,-270.76 198.47,-285.97L179.52,-276.18C176.58,-269.23 167.43,-235.73 166.43,-203.47ZM311.18,-249.64C311.18,-249.64 304.97,-211.84 290.17,-208.43C282.77,-206.72 274.52,-217.16 268.74,-233.78L304.98,-283.06C304.03,-287.17 293.36,-305.27 273.84,-300.76C248.57,-294.93 235.71,-254.95 242.54,-225.36C248.85,-198.03 264.15,-187.06 282.44,-191.28C302.38,-195.88 313.68,-229.44 314.94,-248.34ZM267.19,-238.62C266.32,-241.45 265.40,-244.49 264.64,-247.77C257.05,-280.65 261.86,-288.91 265.04,-292.02C267.28,-294.49 279.83,-286.99 285.65,-266.47ZM-468.64,200.66L-478.00,225.76L-423.75,213.24L-443.16,194.78L-465.59,97.58L-456.23,72.47L-510.48,84.99L-491.07,103.46ZM-398.14,99.11L-432.57,121.56L-414.94,134.16L-398.06,207.31L-371.34,201.15L-377.32,189.32C-381.30,172.06 -374.59,134.58 -369.01,111.87L-367.31,111.69C-363.20,119.19 -358.04,133.14 -350.64,165.20L-343.81,194.79L-317.30,188.68L-322.88,177.63L-323.97,172.90C-326.44,153.77 -319.75,118.03 -314.36,97.31C-310.19,104.14 -304.75,117.38 -296.59,152.73L-289.90,181.70L-251.06,172.74L-270.21,159.19L-275.71,135.36C-285.38,93.43 -287.17,87.57 -296.31,72.36L-315.26,82.15C-318.20,89.10 -327.29,121.94 -328.33,153.99L-329.76,147.83C-339.43,105.91 -341.22,100.04 -350.35,84.84L-369.31,94.62C-372.25,101.58 -381.40,135.07 -382.39,167.34ZM-232.51,60.89L-266.94,83.33L-249.31,95.93L-232.43,169.09L-205.71,162.92L-211.69,151.10C-215.67,133.84 -208.95,96.36 -203.37,73.64L-201.68,73.47C-197.57,80.96 -192.40,94.92 -185.00,126.98L-178.18,156.57L-151.67,150.45L-157.25,139.40L-158.34,134.68C-160.80,115.55 -154.12,79.81 -148.73,59.08C-144.55,65.91 -139.12,79.16 -130.96,114.51L-124.27,143.48L-85.43,134.52L-104.58,120.97L-110.08,97.13C-119.75,55.21 -121.54,49.35 -130.67,34.14L-149.63,43.92C-152.57,50.88 -161.66,83.71 -162.70,115.77L-164.12,109.61C-173.80,67.68 -175.58,61.82 -184.72,46.61L-203.67,56.40C-206.61,63.35 -215.77,96.85 -216.76,129.11ZM-49.94,126.98C-42.33,104.66 -34.55,73.64 -34.14,42.60L-31.10,67.00L-18.91,119.82L20.34,110.76L1.05,96.60L-15.55,24.67L-10.30,11.77L-33.73,17.18C-76.49,27.91 -93.42,61.47 -84.59,99.69C-80.75,116.34 -71.79,129.85 -64.63,132.75ZM-50.31,110.40C-52.77,110.96 -57.03,102.86 -61.67,82.72C-66.46,61.96 -67.85,31.55 -40.37,24.99C-35.54,46.82 -46.40,109.49 -50.31,110.40ZM69.34,-4.23L68.82,-6.49L36.14,1.05L28.08,-33.88L12.92,6.41L-1.67,9.78L15.10,18.68L28.57,77.04C36.19,108.18 51.94,106.06 59.33,104.36C72.07,101.42 81.65,78.21 82.14,54.07L79.69,53.77C78.32,67.51 72.68,85.26 66.10,86.78C60.55,88.06 56.16,87.77 50.94,65.17L39.08,13.79ZM161.85,28.97C161.85,28.97 155.63,66.77 140.84,70.18C133.44,71.89 125.19,61.45 119.40,44.83L155.65,-4.45C154.70,-8.56 144.03,-26.66 124.51,-22.15C99.23,-16.32 86.38,23.66 93.21,53.25C99.52,80.58 114.82,91.55 133.11,87.33C153.04,82.73 164.34,49.17 165.61,30.27ZM117.85,39.99C116.98,37.16 116.07,34.12 115.31,30.84C107.72,-2.04 112.53,-10.30 115.70,-13.41C117.95,-15.88 130.50,-8.38 136.32,12.13ZM251.87,-15.18L252.30,-16.15L227.21,-46.07L224.54,-45.45C216.40,-25.39 212.30,2.82 211.66,27.22L196.57,-38.13L162.15,-15.69L179.77,-3.09L196.65,70.07L221.93,64.24L217.39,52.08C212.60,31.33 220.44,-14.42 223.04,-16.32ZM279.79,-87.42L258.37,-102.39L245.47,-79.50L267.14,-64.37ZM301.90,27.17L282.27,-57.91L247.84,-35.46L265.46,-22.86L282.35,50.29L321.19,41.33ZM355.09,33.51C362.71,11.19 370.49,-19.83 370.90,-50.87L373.94,-26.47L386.12,26.35L425.37,17.29L406.09,3.12L389.49,-68.80L394.74,-81.70L371.31,-76.29C328.55,-65.56 311.62,-32.00 320.44,6.22C324.28,22.87 333.25,36.38 340.41,39.28ZM354.73,16.92C352.26,17.49 348.01,9.38 343.36,-10.76C338.57,-31.51 337.18,-61.92 364.67,-68.48C369.49,-46.65 358.63,16.02 354.73,16.92ZM415.53,-105.11L416.95,-98.95L404.35,-89.76L421.98,-77.16L442.84,13.26L481.68,4.29L462.40,-9.87L432.80,-138.10L397.90,-117.71Z" fill="#ffffff" stroke="#000000"/>
    <path d="M-378.57,-77.00L-370.60,-87.24L-371.16,-89.25L-425.83,-74.00L-425.21,-71.79L-402.08,-66.54L-392.83,-33.38C-397.33,-29.30 -403.82,-26.19 -407.64,-25.13C-441.81,-15.59 -459.56,-52.02 -468.20,-82.97C-477.01,-114.53 -471.10,-133.73 -451.80,-139.11C-430.09,-145.17 -415.24,-131.55 -402.11,-117.88L-399.50,-118.61L-410.89,-159.41L-440.84,-151.05C-486.87,-138.21 -501.85,-93.30 -491.86,-57.52C-480.87,-18.12 -451.79,3.01 -417.42,-6.58C-404.75,-10.12 -395.01,-18.68 -387.62,-27.90L-366.55,-22.29L-363.54,-23.14ZM-280.76,-120.12L-280.38,-121.09L-306.52,-149.54L-309.14,-148.81C-316.28,-128.62 -319.06,-100.54 -318.61,-76.41L-336.45,-140.32L-369.47,-116.59L-351.48,-104.93L-331.51,-33.37L-306.79,-40.27L-311.82,-52.08C-317.49,-72.39 -311.79,-117.96 -309.31,-119.95ZM-231.62,-61.25C-225.09,-83.66 -218.79,-114.66 -219.78,-145.37L-215.68,-121.38L-201.27,-69.72L-162.88,-80.44L-182.57,-93.57L-202.21,-163.92L-197.60,-176.91L-220.51,-170.51C-262.30,-157.98 -277.53,-124.05 -267.09,-86.67C-262.55,-70.39 -253.08,-57.43 -245.87,-54.89ZM-232.72,-77.63C-235.13,-76.95 -239.70,-84.78 -245.20,-104.48C-250.86,-124.78 -253.60,-154.78 -226.73,-162.50C-220.98,-141.13 -228.90,-78.69 -232.72,-77.63ZM-122.77,-165.73L-132.07,-195.19L-146.34,-191.21C-168.45,-185.04 -176.41,-164.62 -172.42,-150.35C-166.31,-128.44 -123.91,-129.44 -118.41,-109.75C-116.89,-104.32 -119.38,-100.81 -125.41,-99.13C-137.07,-95.87 -150.80,-105.47 -166.08,-118.32L-166.18,-116.35L-151.82,-83.52L-135.34,-88.12C-109.41,-95.36 -102.87,-115.38 -106.57,-128.65C-112.52,-149.96 -157.09,-154.41 -161.02,-168.48C-162.42,-173.51 -161.74,-176.52 -156.11,-178.09C-147.27,-180.55 -134.86,-174.92 -123.92,-165.19ZM-57.91,-215.89C-61.81,-195.74 -64.14,-171.47 -63.49,-145.87L-82.06,-212.40L-115.65,-190.68L-97.66,-179.02L-68.49,-74.50L-69.61,-59.89L-26.80,-71.83L-44.81,-78.94L-51.55,-103.06C-15.71,-118.26 -5.11,-154.80 -12.46,-181.13C-17.95,-200.83 -30.09,-217.16 -39.02,-225.07ZM-56.54,-120.95C-61.92,-140.24 -58.23,-196.09 -54.21,-197.21C-50.59,-198.22 -40.30,-184.63 -34.35,-163.32C-29.53,-146.04 -26.33,-115.95 -53.00,-108.28ZM91.65,-255.25L91.04,-257.46L59.08,-248.54L49.54,-282.71L36.36,-242.20L22.09,-238.22L39.07,-230.18L55.00,-173.09C63.93,-142.65 79.40,-145.45 86.63,-147.47C99.10,-150.95 107.52,-174.32 106.92,-198.20L104.49,-198.39C103.75,-184.75 98.96,-166.95 92.53,-165.15C87.11,-163.64 82.75,-163.72 76.58,-185.83L62.55,-236.08ZM120.30,-313.29L86.72,-291.57L104.70,-279.91L137.01,-164.13L163.14,-171.43L156.71,-182.84C152.00,-199.73 156.95,-237.08 161.45,-259.78L163.11,-260.03C167.51,-252.81 173.25,-239.24 182.00,-207.89L190.08,-178.94L228.07,-189.54L208.37,-202.68L201.86,-225.99C190.42,-267.00 188.39,-272.72 178.68,-287.34L160.38,-276.81C157.79,-269.81 150.24,-236.29 150.70,-204.35ZM291.71,-256.49C291.71,-256.49 287.27,-218.85 272.80,-214.81C265.56,-212.79 256.94,-222.73 250.47,-238.91L284.09,-289.24C282.97,-293.26 271.61,-310.67 252.51,-305.34C227.79,-298.44 216.88,-258.35 224.96,-229.41C232.42,-202.67 248.04,-192.52 265.92,-197.51C285.42,-202.95 295.09,-236.63 295.49,-255.38ZM248.72,-243.62C247.74,-246.38 246.69,-249.34 245.80,-252.56C236.82,-284.72 241.20,-293.09 244.20,-296.31C246.31,-298.85 259.05,-292.00 265.72,-271.98ZM-458.90,223.60L-467.03,248.83L-413.96,234.02L-433.98,216.64L-460.51,121.57L-452.39,96.34L-505.45,111.15L-485.44,128.53ZM-393.77,120.06L-426.79,143.79L-408.81,155.46L-388.84,227.01L-362.71,219.72L-369.14,208.30C-373.86,191.42 -368.90,154.07 -364.40,131.36L-362.74,131.12C-358.34,138.34 -352.60,151.90 -343.85,183.26L-335.77,212.20L-309.84,204.97L-315.86,194.29L-317.15,189.67C-320.44,170.88 -315.44,135.25 -311.04,114.52C-306.61,121.08 -300.64,133.93 -290.99,168.51L-283.08,196.85L-245.09,186.24L-264.62,173.71L-271.13,150.40C-282.57,109.39 -284.60,103.68 -294.31,89.05L-312.61,99.58C-315.20,106.58 -322.71,139.44 -322.31,171.18L-323.99,165.15C-335.43,124.15 -337.46,118.43 -347.18,103.81L-365.47,114.33C-368.07,121.34 -375.61,154.86 -375.15,186.79ZM-231.77,74.85L-264.79,98.58L-246.80,110.24L-226.83,181.80L-200.70,174.51L-207.14,163.09C-211.85,146.20 -206.89,108.85 -202.40,86.15L-200.73,85.90C-196.33,93.12 -190.60,106.69 -181.85,138.05L-173.77,166.99L-147.84,159.75L-153.85,149.08L-155.14,144.46C-158.44,125.66 -153.43,90.03 -149.03,69.31C-144.60,75.87 -138.63,88.72 -128.98,123.29L-121.07,151.63L-83.09,141.03L-102.62,128.50L-109.12,105.18C-120.57,64.18 -122.59,58.46 -132.31,43.84L-150.60,54.36C-153.20,61.37 -160.71,94.23 -160.30,125.97L-161.98,119.94C-173.43,78.93 -175.46,73.22 -185.17,58.59L-203.47,69.12C-206.06,76.12 -213.60,109.64 -213.14,141.58ZM-48.35,131.98C-41.82,109.58 -35.52,78.57 -36.51,47.87L-32.41,71.86L-17.99,123.51L20.40,112.80L0.70,99.67L-18.94,29.32L-14.33,16.33L-37.24,22.73C-79.02,35.25 -94.25,69.18 -83.82,106.57C-79.28,122.85 -69.81,135.81 -62.60,138.35ZM-49.45,115.61C-51.86,116.28 -56.43,108.46 -61.92,88.76C-67.59,68.46 -70.33,38.46 -43.45,30.74C-37.71,52.10 -45.63,114.54 -49.45,115.61ZM63.68,-3.06L63.06,-5.27L31.10,3.65L21.56,-30.52L8.39,9.99L-5.88,13.97L11.09,22.02L27.02,79.10C35.95,109.54 51.42,106.74 58.66,104.72C71.12,101.24 79.55,77.88 78.95,54.00L76.51,53.81C75.77,67.45 70.99,85.25 64.56,87.04C59.13,88.56 54.77,88.47 48.60,66.36L34.58,16.11ZM156.60,25.61C156.60,25.61 152.16,63.24 137.69,67.28C130.45,69.30 121.83,59.36 115.36,43.18L148.98,-7.15C147.86,-11.17 136.50,-28.58 117.40,-23.25C92.68,-16.35 81.77,23.74 89.85,52.69C97.31,79.42 112.93,89.58 130.82,84.58C150.31,79.14 159.98,45.46 160.38,26.72ZM113.61,38.47C112.63,35.71 111.58,32.75 110.69,29.54C101.71,-2.62 106.09,-10.99 109.09,-14.21C111.20,-16.75 123.94,-9.91 130.61,10.11ZM243.61,-22.07L243.99,-23.05L217.85,-51.50L215.23,-50.77C208.09,-30.58 205.31,-2.50 205.76,21.64L187.92,-42.28L154.90,-18.55L172.88,-6.89L192.85,64.67L217.58,57.77L212.55,45.96C206.88,25.66 212.58,-19.91 215.06,-21.91ZM267.96,-94.73L246.12,-108.57L234.39,-85.37L256.49,-71.38ZM294.96,17.54L271.74,-65.67L238.71,-41.94L256.70,-30.28L276.67,41.28L314.66,30.68ZM347.82,21.42C354.35,-0.98 360.65,-31.99 359.66,-62.70L363.76,-38.71L378.17,12.95L416.57,2.23L396.87,-10.90L377.23,-81.25L381.84,-94.24L358.93,-87.84C317.14,-75.31 301.92,-41.38 312.35,-3.99C316.89,12.29 326.36,25.24 333.57,27.78ZM346.72,5.05C344.31,5.72 339.74,-2.11 334.24,-21.80C328.58,-42.11 325.84,-72.11 352.72,-79.82C358.46,-58.46 350.54,3.98 346.72,5.05ZM401.34,-118.31L403.02,-112.28L390.98,-102.64L408.97,-90.97L433.65,-2.53L471.64,-13.14L451.94,-26.27L416.94,-151.69L383.35,-129.97Z" fill="#ffffff" stroke="#000000"/>
    <path d="M-382.04,-54.73L-374.62,-65.21L-375.27,-67.17L-428.62,-49.64L-427.91,-47.48L-404.81,-43.33L-394.18,-10.97C-398.44,-6.75 -404.72,-3.38 -408.45,-2.15C-441.79,8.81 -460.97,-26.40 -470.89,-56.61C-481.01,-87.40 -476.04,-106.64 -457.21,-112.83C-436.02,-119.79 -420.74,-106.99 -407.14,-94.07L-404.59,-94.91L-417.68,-134.73L-446.90,-125.12C-491.82,-110.36 -504.61,-65.30 -493.14,-30.39C-480.50,8.05 -450.82,27.64 -417.28,16.61C-404.92,12.55 -395.68,3.65 -388.78,-5.79L-367.71,-1.20L-364.77,-2.16ZM-287.31,-101.73L-286.98,-102.71L-314.09,-129.65L-316.64,-128.82C-322.80,-108.54 -324.28,-80.67 -322.75,-56.83L-343.25,-119.20L-374.83,-94.26L-356.53,-83.54L-333.58,-13.72L-309.45,-21.65L-314.95,-33.10C-321.46,-52.91 -317.88,-98.20 -315.52,-100.28ZM-236.10,-45.75C-230.65,-68.19 -225.82,-99.12 -228.17,-129.42L-223.05,-105.90L-206.48,-55.49L-169.02,-67.80L-189.07,-79.90L-211.64,-148.55L-207.66,-161.59L-230.02,-154.24C-270.76,-139.98 -284.29,-105.76 -272.30,-69.28C-267.08,-53.39 -257.14,-41.01 -249.90,-38.83ZM-237.92,-61.89C-240.27,-61.12 -245.14,-68.64 -251.46,-87.87C-257.97,-107.68 -262.02,-137.20 -235.80,-146.04C-229.17,-125.18 -234.19,-63.11 -237.92,-61.89ZM-133.20,-153.90L-143.72,-182.60L-157.65,-178.03C-179.22,-170.93 -186.16,-150.40 -181.59,-136.47C-174.56,-115.09 -132.70,-117.98 -126.38,-98.76C-124.64,-93.47 -126.94,-89.89 -132.83,-87.95C-144.20,-84.21 -158.20,-93.09 -173.89,-105.10L-173.89,-103.14L-158.23,-71.35L-142.15,-76.63C-116.84,-84.95 -111.27,-105.03 -115.53,-117.98C-122.36,-138.77 -166.62,-141.17 -171.13,-154.90C-172.74,-159.81 -172.21,-162.81 -166.71,-164.61C-158.08,-167.45 -145.57,-162.44 -134.31,-153.31ZM-71.35,-206.39C-74.30,-186.29 -75.52,-162.20 -73.73,-136.93L-95.06,-201.85L-127.28,-178.88L-108.98,-168.16L-75.46,-66.16L-75.92,-51.67L-34.14,-65.40L-52.26,-71.62L-60.00,-95.15C-25.26,-111.78 -16.42,-148.37 -24.87,-174.07C-31.18,-193.29 -43.91,-208.88 -53.09,-216.30ZM-65.74,-112.61C-71.92,-131.44 -70.78,-186.80 -66.85,-188.09C-63.32,-189.25 -52.54,-176.27 -45.71,-155.48C-40.16,-138.62 -35.65,-109.02 -61.67,-100.25ZM74.70,-251.99L73.99,-254.15L42.81,-243.90L31.85,-277.25L20.64,-236.62L6.72,-232.04L23.86,-224.85L42.17,-169.15C52.36,-139.47 67.52,-142.93 74.58,-145.25C86.74,-149.24 94.02,-172.72 92.36,-196.29L89.94,-196.37C89.82,-182.85 85.89,-165.05 79.61,-162.98C74.32,-161.24 70.01,-161.13 62.92,-182.71L46.80,-231.74ZM100.41,-310.65L68.19,-287.67L86.50,-276.95L123.62,-163.97L149.12,-172.35L142.25,-183.35C136.83,-199.83 140.06,-236.96 143.48,-259.60L145.12,-259.92C149.79,-252.98 156.07,-239.83 166.12,-209.24L175.40,-180.99L212.47,-193.17L192.42,-205.27L184.94,-228.02C171.79,-268.04 169.53,-273.60 159.27,-287.61L141.66,-276.39C139.41,-269.35 133.46,-235.88 135.35,-204.34ZM272.38,-262.19C272.38,-262.19 269.67,-224.79 255.55,-220.15C248.49,-217.83 239.52,-227.27 232.40,-242.97L263.37,-294.22C262.08,-298.14 250.07,-314.84 231.44,-308.72C207.32,-300.79 198.33,-260.68 207.61,-232.43C216.19,-206.35 232.08,-197.01 249.53,-202.75C268.56,-209.00 276.60,-242.72 276.16,-261.26ZM230.46,-247.55C229.36,-250.23 228.20,-253.11 227.17,-256.25C216.86,-287.63 220.81,-296.10 223.63,-299.42C225.60,-302.02 238.50,-295.83 245.99,-276.34ZM-447.95,245.97L-454.85,271.28L-403.07,254.26L-423.63,237.98L-454.12,145.21L-447.22,119.90L-499.00,136.92L-478.44,153.20ZM-388.22,140.72L-419.80,165.66L-401.50,176.38L-378.55,246.20L-353.05,237.82L-359.93,226.83C-365.34,210.35 -362.12,173.21 -358.69,150.57L-357.06,150.25C-352.39,157.19 -346.11,170.34 -336.05,200.94L-326.77,229.19L-301.47,220.87L-307.89,210.59L-309.37,206.08C-313.47,187.65 -310.12,152.21 -306.71,131.53C-302.03,137.82 -295.55,150.25 -284.47,183.99L-275.38,211.64L-238.31,199.46L-258.17,187.95L-265.65,165.20C-278.80,125.19 -281.06,119.63 -291.32,105.61L-308.93,116.83C-311.18,123.87 -317.13,156.69 -315.30,188.04L-317.23,182.15C-330.38,142.14 -332.65,136.58 -342.90,122.57L-360.51,133.79C-362.76,140.83 -368.71,174.30 -366.82,205.84ZM-230.14,88.77L-261.71,113.70L-243.41,124.42L-220.46,194.25L-194.96,185.87L-201.84,174.87C-207.25,158.40 -204.03,121.26 -200.60,98.62L-198.97,98.30C-194.30,105.24 -188.02,118.39 -177.96,148.99L-168.68,177.23L-143.38,168.92L-149.80,158.64L-151.28,154.13C-155.38,135.70 -152.03,100.26 -148.62,79.58C-143.94,85.87 -137.47,98.30 -126.38,132.03L-117.29,159.69L-80.22,147.51L-100.08,136.00L-107.56,113.24C-120.71,73.23 -122.97,67.67 -133.23,53.66L-150.84,64.88C-153.09,71.92 -159.04,104.74 -157.21,136.08L-159.15,130.20C-172.30,90.19 -174.56,84.63 -184.81,70.61L-202.42,81.83C-204.67,88.87 -210.63,122.34 -208.74,153.88ZM-46.29,137.01C-40.84,114.57 -36.01,83.65 -38.36,53.34L-33.24,76.87L-16.67,127.27L20.79,114.96L0.73,102.86L-21.83,34.22L-17.86,21.18L-40.22,28.52C-80.95,42.78 -94.48,77.00 -82.49,113.48C-77.27,129.37 -67.33,141.75 -60.10,143.94ZM-48.12,120.87C-50.47,121.65 -55.33,114.12 -61.65,94.90C-68.16,75.09 -72.22,45.56 -46.00,36.73C-39.36,57.58 -44.39,119.65 -48.12,120.87ZM58.37,-1.48L57.66,-3.64L26.47,6.61L15.51,-26.74L4.31,13.89L-9.62,18.47L7.52,25.66L25.83,81.36C36.02,111.04 51.18,107.58 58.24,105.26C70.40,101.27 77.68,77.79 76.02,54.22L73.60,54.14C73.48,67.66 69.55,85.46 63.28,87.53C57.98,89.27 53.67,89.38 46.58,67.80L30.47,18.77ZM151.50,22.67C151.50,22.67 148.79,60.07 134.67,64.72C127.61,67.04 118.64,57.60 111.52,41.90L142.49,-9.35C141.20,-13.28 129.19,-29.98 110.56,-23.85C86.44,-15.92 77.45,24.19 86.73,52.43C95.31,78.52 111.20,87.86 128.65,82.12C147.68,75.87 155.72,42.15 155.28,23.60ZM109.58,37.32C108.49,34.64 107.32,31.76 106.29,28.62C95.98,-2.76 99.93,-11.23 102.75,-14.55C104.72,-17.15 117.62,-10.96 125.11,8.53ZM235.35,-28.35L235.68,-29.33L208.57,-56.28L206.02,-55.44C199.86,-35.16 198.37,-7.29 199.90,16.55L179.40,-45.83L147.83,-20.89L166.13,-10.17L189.08,59.66L213.20,51.73L207.70,40.28C201.19,20.47 204.78,-24.83 207.14,-26.91ZM256.16,-101.26L233.95,-113.95L223.40,-90.49L245.87,-77.67ZM287.88,8.50L261.19,-72.71L229.62,-47.77L247.92,-37.05L270.87,32.78L307.94,20.59ZM340.30,9.96C345.75,-12.48 350.58,-43.40 348.23,-73.71L353.35,-50.18L369.92,0.23L407.38,-12.09L387.32,-24.18L364.76,-92.83L368.73,-105.87L346.37,-98.53C305.64,-84.27 292.11,-50.05 304.10,-13.57C309.32,2.32 319.26,14.70 326.50,16.89ZM338.48,-6.18C336.12,-5.40 331.26,-12.93 324.94,-32.15C318.43,-51.96 314.38,-81.49 340.59,-90.32C347.23,-69.47 342.20,-7.40 338.48,-6.18ZM386.92,-130.54L388.86,-124.66L377.39,-114.59L395.69,-103.87L424.05,-17.57L461.12,-29.75L441.06,-41.85L400.84,-164.24L368.62,-141.26Z" fill="#ffffff" stroke="#000000"/>
    <path d="M-384.18,-32.41L-377.32,-43.10L-378.04,-45.01L-429.98,-25.29L-429.18,-23.19L-406.17,-20.13L-394.21,11.38C-398.23,15.75 -404.29,19.36 -407.92,20.73C-440.38,33.06 -460.91,-0.87 -472.07,-30.28C-483.45,-60.26 -479.40,-79.49 -461.07,-86.45C-440.45,-94.28 -424.76,-82.32 -410.75,-70.16L-408.27,-71.11L-422.99,-109.87L-451.44,-99.06C-495.16,-82.46 -505.78,-37.36 -492.88,-3.37C-478.67,34.05 -448.45,52.07 -415.80,39.68C-403.77,35.11 -395.04,25.89 -388.64,16.26L-367.62,19.85L-364.75,18.76ZM-292.67,-83.10L-292.39,-84.08L-320.39,-109.50L-322.87,-108.56C-328.05,-88.24 -328.27,-60.63 -325.68,-37.14L-348.74,-97.86L-378.82,-71.80L-360.26,-62.03L-334.45,5.95L-310.96,-2.97L-316.91,-14.04C-324.23,-33.32 -322.72,-78.25 -320.48,-80.41ZM-239.55,-30.09C-235.17,-52.50 -231.78,-83.28 -235.47,-113.12L-229.35,-90.10L-210.72,-41.03L-174.25,-54.88L-194.61,-65.94L-219.99,-132.77L-216.65,-145.83L-238.41,-137.57C-278.03,-121.65 -289.87,-87.23 -276.38,-51.71C-270.51,-36.25 -260.13,-24.46 -252.88,-22.62ZM-242.08,-45.95C-244.37,-45.08 -249.51,-52.30 -256.62,-71.01C-263.94,-90.30 -269.27,-119.30 -243.76,-129.20C-236.26,-108.89 -238.45,-47.33 -242.08,-45.95ZM-142.72,-141.57L-154.40,-169.47L-167.96,-164.32C-188.96,-156.34 -194.90,-135.74 -189.75,-122.18C-181.85,-101.37 -140.61,-106.10 -133.51,-87.39C-131.55,-82.24 -133.66,-78.59 -139.39,-76.42C-150.46,-72.21 -164.70,-80.35 -180.73,-91.52L-180.65,-89.59L-163.75,-58.87L-148.09,-64.81C-123.46,-74.17 -118.86,-94.26 -123.64,-106.87C-131.33,-127.11 -175.17,-127.50 -180.24,-140.87C-182.06,-145.64 -181.66,-148.63 -176.32,-150.66C-167.91,-153.85 -155.32,-149.45 -143.79,-140.94ZM-83.94,-196.22C-85.97,-176.23 -86.08,-152.37 -83.18,-127.47L-107.18,-190.67L-137.99,-166.52L-119.42,-156.75L-81.72,-57.46L-81.52,-43.12L-40.85,-58.56L-59.04,-63.89L-67.74,-86.80C-34.16,-104.80 -27.06,-141.35 -36.56,-166.36C-43.67,-185.08 -56.95,-199.91 -66.35,-206.83ZM-74.19,-103.79C-81.15,-122.12 -82.50,-176.88 -78.68,-178.33C-75.25,-179.64 -64.01,-167.30 -56.32,-147.06C-50.09,-130.64 -44.30,-101.60 -69.63,-91.77ZM58.34,-247.84L57.54,-249.94L27.18,-238.41L14.86,-270.87L5.61,-230.22L-7.95,-225.07L9.31,-218.74L29.90,-164.51C41.30,-135.63 56.13,-139.73 63.00,-142.34C74.84,-146.84 80.98,-170.36 78.28,-193.59L75.89,-193.55C76.38,-180.19 73.30,-162.42 67.19,-160.10C62.03,-158.14 57.78,-157.84 49.80,-178.84L31.68,-226.57ZM81.12,-306.95L50.31,-282.80L68.87,-273.03L110.63,-163.05L135.45,-172.47L128.17,-183.03C122.08,-199.07 123.60,-235.92 125.97,-258.44L127.57,-258.83C132.50,-252.18 139.29,-239.47 150.60,-209.68L161.04,-182.19L197.13,-195.89L176.76,-206.95L168.35,-229.10C153.56,-268.05 151.08,-273.44 140.32,-286.83L123.42,-274.95C121.51,-267.89 117.13,-234.55 120.41,-203.46ZM253.23,-266.78C253.23,-266.78 252.23,-229.70 238.49,-224.48C231.61,-221.87 222.32,-230.80 214.59,-246.00L242.89,-298.03C241.44,-301.85 228.83,-317.82 210.69,-310.93C187.20,-302.01 180.12,-261.97 190.56,-234.47C200.21,-209.08 216.33,-200.56 233.32,-207.01C251.84,-214.04 258.28,-247.73 257.01,-266.03ZM212.47,-250.43C211.26,-253.03 209.98,-255.83 208.82,-258.88C197.22,-289.43 200.75,-297.98 203.39,-301.38C205.22,-304.05 218.24,-298.51 226.52,-279.58ZM-435.83,267.71L-441.51,293.03L-391.10,273.89L-412.15,258.72L-446.44,168.41L-440.76,143.09L-491.17,162.23L-470.12,177.40ZM-381.52,161.02L-411.61,187.08L-393.04,196.85L-367.23,264.83L-342.41,255.40L-349.70,244.84C-355.79,228.80 -354.26,191.96 -351.89,169.43L-350.29,169.04C-345.37,175.69 -338.57,188.40 -327.26,218.19L-316.82,245.69L-292.19,236.33L-299.00,226.46L-300.67,222.07C-305.54,204.04 -303.82,168.87 -301.38,148.28C-296.47,154.29 -289.52,166.28 -277.05,199.12L-266.82,226.05L-230.74,212.34L-250.88,201.86L-259.29,179.71C-274.08,140.76 -276.57,135.37 -287.33,121.98L-304.23,133.86C-306.14,140.91 -310.55,173.61 -307.34,204.51L-309.51,198.78C-324.30,159.83 -326.78,154.43 -337.55,141.04L-354.45,152.92C-356.36,159.98 -360.74,193.32 -357.45,224.41ZM-227.63,102.58L-257.71,128.64L-239.14,138.42L-213.33,206.39L-188.51,196.97L-195.80,186.41C-201.89,170.37 -200.37,133.52 -198.00,111.00L-196.40,110.61C-191.47,117.26 -184.68,129.97 -173.37,159.76L-162.93,187.25L-138.30,177.90L-145.10,168.03L-146.77,163.64C-151.65,145.61 -149.93,110.44 -147.48,89.85C-142.58,95.85 -135.62,107.85 -123.15,140.69L-112.93,167.61L-76.84,153.91L-96.99,143.43L-105.40,121.28C-120.19,82.32 -122.67,76.93 -133.44,63.54L-150.33,75.42C-152.24,82.48 -156.65,115.18 -153.44,146.07L-155.61,140.34C-170.40,101.39 -172.89,96.00 -183.65,82.61L-200.55,94.49C-202.46,101.55 -206.84,134.89 -203.56,165.98ZM-43.78,142.01C-39.40,119.59 -36.02,88.82 -39.70,58.97L-33.58,81.99L-14.95,131.06L21.52,117.22L1.16,106.16L-24.22,39.33L-20.88,26.27L-42.64,34.53C-82.26,50.45 -94.10,84.87 -80.61,120.39C-74.74,135.85 -64.36,147.64 -57.11,149.48ZM-46.31,126.15C-48.60,127.02 -53.74,119.80 -60.85,101.09C-68.17,81.80 -73.50,52.80 -47.99,42.90C-40.49,63.21 -42.68,124.77 -46.31,126.15ZM53.43,0.45L52.63,-1.65L22.27,9.88L9.95,-22.58L0.70,18.07L-12.86,23.22L4.40,29.56L24.99,83.78C36.39,112.66 51.22,108.56 58.10,105.95C69.93,101.46 76.08,77.93 73.38,54.71L70.99,54.74C71.47,68.10 68.39,85.88 62.28,88.20C57.12,90.15 52.87,90.46 44.89,69.45L26.77,21.72ZM146.55,20.15C146.55,20.15 145.55,57.23 131.81,62.45C124.93,65.06 115.65,56.14 107.91,40.94L136.21,-11.10C134.76,-14.92 122.15,-30.88 104.01,-23.99C80.52,-15.08 73.44,24.97 83.88,52.47C93.53,77.86 109.65,86.38 126.64,79.92C145.16,72.89 151.60,39.21 150.33,20.90ZM105.79,36.50C104.58,33.90 103.30,31.11 102.14,28.06C90.54,-2.49 94.07,-11.04 96.71,-14.45C98.54,-17.11 111.57,-11.57 119.84,7.35ZM227.12,-34.04L227.41,-35.02L199.41,-60.43L196.92,-59.49C191.75,-39.17 191.53,-11.56 194.11,11.92L171.06,-48.79L140.97,-22.73L159.54,-12.96L185.35,55.01L208.83,46.10L202.88,35.03C195.56,15.74 197.07,-29.18 199.31,-31.34ZM244.42,-107.02L221.90,-118.57L212.53,-94.91L235.31,-83.24ZM280.69,0.02L250.68,-79.03L220.59,-52.97L239.16,-43.19L264.97,24.78L301.06,11.08ZM332.56,-0.88C336.94,-23.30 340.33,-54.08 336.64,-83.92L342.76,-60.90L361.39,-11.83L397.86,-25.68L377.50,-36.73L352.12,-103.56L355.46,-116.63L333.70,-108.36C294.08,-92.45 282.25,-58.02 295.73,-22.51C301.60,-7.04 311.98,4.75 319.23,6.58ZM330.03,-16.75C327.74,-15.88 322.60,-23.10 315.49,-41.81C308.17,-61.10 302.84,-90.09 328.35,-100.00C335.85,-79.69 333.66,-18.12 330.03,-16.75ZM372.33,-141.82L374.51,-136.09L363.63,-125.63L382.19,-115.85L414.09,-31.84L450.18,-45.54L429.82,-56.60L384.58,-175.75L353.77,-151.59Z" fill="#ffffff" stroke="#000000"/>
    <path d="M-385.00,-10.12L-378.69,-20.99L-379.50,-22.84L-429.93,-1.03L-429.05,1.01L-406.17,3.00L-392.94,33.60C-396.72,38.09 -402.54,41.93 -406.07,43.46C-437.59,57.09 -459.40,24.48 -471.75,-4.07C-484.34,-33.18 -481.19,-52.37 -463.39,-60.07C-443.37,-68.73 -427.33,-57.62 -412.95,-46.23L-410.53,-47.28L-426.82,-84.92L-454.44,-72.97C-496.90,-54.60 -505.37,-9.56 -491.10,23.45C-475.38,59.79 -444.71,76.24 -413.01,62.53C-401.32,57.47 -393.11,47.98 -387.22,38.17L-366.28,40.78L-363.50,39.57ZM-296.85,-64.32L-296.61,-65.30L-325.42,-89.15L-327.83,-88.11C-332.03,-67.81 -331.01,-40.51 -327.41,-17.42L-352.91,-76.38L-381.47,-49.28L-362.68,-40.46L-334.13,25.55L-311.33,15.68L-317.70,5.02C-325.80,-13.71 -326.32,-58.17 -324.21,-60.40ZM-241.98,-14.31C-238.66,-36.66 -236.69,-67.22 -241.67,-96.54L-234.59,-74.07L-213.98,-26.42L-178.57,-41.74L-199.19,-51.75L-227.26,-116.65L-224.54,-129.71L-245.68,-120.56C-284.11,-103.06 -294.26,-68.52 -279.34,-34.03C-272.85,-19.01 -262.07,-7.82 -254.82,-6.34ZM-245.19,-29.87C-247.41,-28.91 -252.82,-35.81 -260.68,-53.99C-268.78,-72.71 -275.35,-101.13 -250.58,-112.06C-242.27,-92.32 -241.67,-31.40 -245.19,-29.87ZM-151.30,-128.81L-164.09,-155.85L-177.26,-150.16C-197.65,-141.34 -202.60,-120.71 -196.91,-107.54C-188.16,-87.33 -147.63,-93.86 -139.77,-75.69C-137.60,-70.68 -139.52,-66.99 -145.09,-64.59C-155.84,-59.93 -170.27,-67.34 -186.62,-77.66L-186.45,-75.75L-168.37,-46.15L-153.16,-52.73C-129.25,-63.07 -125.60,-83.14 -130.89,-95.38C-139.39,-115.03 -182.73,-113.45 -188.35,-126.43C-190.35,-131.07 -190.10,-134.04 -184.91,-136.29C-176.75,-139.81 -164.11,-136.04 -152.33,-128.15ZM-95.67,-185.45C-96.78,-165.60 -95.82,-142.02 -91.84,-117.55L-118.39,-178.93L-147.75,-153.68L-128.96,-144.86L-87.26,-48.44L-86.41,-34.28L-46.92,-51.36L-65.13,-55.81L-74.76,-78.06C-42.38,-97.34 -37.01,-133.78 -47.52,-158.07C-55.38,-176.24 -69.16,-190.31 -78.76,-196.72ZM-81.89,-94.56C-89.59,-112.36 -93.38,-166.41 -89.67,-168.01C-86.34,-169.46 -74.68,-157.77 -66.18,-138.12C-59.28,-122.17 -52.26,-93.73 -76.84,-82.88ZM42.60,-242.84L41.72,-244.88L12.24,-232.12L-1.40,-263.65L-8.71,-223.06L-21.88,-217.37L-4.54,-211.88L18.24,-159.22C30.80,-131.20 45.27,-135.92 51.94,-138.80C63.44,-143.78 68.45,-167.30 64.74,-190.12L62.38,-189.98C63.46,-176.80 61.21,-159.10 55.28,-156.53C50.27,-154.37 46.08,-153.88 37.26,-174.27L17.21,-220.63ZM62.46,-302.27L33.10,-277.02L51.88,-268.20L98.08,-161.40L122.18,-171.83L114.51,-181.93C107.77,-197.51 107.62,-233.98 108.95,-256.35L110.52,-256.81C115.68,-250.46 122.97,-238.20 135.48,-209.27L147.03,-182.57L182.07,-197.73L161.45,-207.74L152.15,-229.25C135.79,-267.08 133.09,-272.29 121.85,-285.04L105.69,-272.55C104.12,-265.48 101.29,-232.34 105.93,-201.77ZM234.32,-270.30C234.32,-270.30 235.00,-233.61 221.65,-227.84C214.98,-224.95 205.40,-233.36 197.08,-248.02L222.71,-300.71C221.11,-304.42 207.92,-319.63 190.31,-312.01C167.50,-302.14 162.30,-262.26 173.85,-235.56C184.52,-210.90 200.83,-203.21 217.34,-210.34C235.32,-218.12 240.17,-251.70 238.09,-269.73ZM194.78,-252.31C193.47,-254.83 192.08,-257.53 190.80,-260.50C177.97,-290.16 181.07,-298.77 183.52,-302.25C185.21,-304.96 198.33,-300.07 207.36,-281.75ZM-422.57,288.75L-427.04,314.02L-378.09,292.85L-399.57,278.81L-437.51,191.10L-433.03,165.84L-481.98,187.01L-460.50,201.05ZM-373.69,180.89L-402.25,207.99L-383.47,216.81L-354.92,282.82L-330.81,272.40L-338.49,262.29C-345.22,246.71 -345.37,210.24 -344.04,187.87L-342.48,187.42C-337.31,193.77 -330.03,206.02 -317.52,234.95L-305.97,261.65L-282.05,251.30L-289.21,241.86L-291.06,237.59C-296.69,220.00 -296.57,185.17 -295.07,164.71C-289.96,170.42 -282.54,181.96 -268.75,213.86L-257.44,240.00L-222.40,224.84L-242.78,215.39L-252.08,193.88C-268.44,156.05 -271.14,150.84 -282.37,138.09L-298.54,150.58C-300.11,157.64 -303.00,190.15 -298.44,220.53L-300.84,214.97C-317.20,177.15 -319.90,171.93 -331.14,159.18L-347.30,171.68C-348.87,178.74 -351.71,211.88 -347.07,242.45ZM-224.25,116.25L-252.80,143.35L-234.02,152.17L-205.47,218.18L-181.37,207.75L-189.04,197.65C-195.78,182.07 -195.92,145.60 -194.59,123.23L-193.03,122.77C-187.86,129.12 -180.58,141.38 -168.07,170.31L-156.52,197.01L-132.60,186.66L-139.77,177.21L-141.61,172.95C-147.24,155.35 -147.12,120.52 -145.62,100.07C-140.51,105.78 -133.10,117.32 -119.30,149.21L-107.99,175.36L-72.95,160.20L-93.33,150.74L-102.63,129.24C-118.99,91.41 -121.69,86.19 -132.93,73.45L-149.09,85.94C-150.66,93.00 -153.55,125.51 -148.99,155.89L-151.40,150.33C-167.76,112.50 -170.45,107.29 -181.69,94.54L-197.86,107.03C-199.43,114.09 -202.26,147.24 -197.62,177.81ZM-40.82,146.96C-37.50,124.61 -35.53,94.05 -40.51,64.73L-33.43,87.20L-12.82,134.85L22.59,119.53L1.98,109.52L-26.09,44.62L-23.38,31.56L-44.52,40.71C-82.95,58.21 -93.10,92.76 -78.18,127.24C-71.68,142.26 -60.90,153.45 -53.66,154.93ZM-44.03,131.40C-46.25,132.36 -51.66,125.46 -59.52,107.29C-67.62,88.56 -74.19,60.14 -49.42,49.21C-41.11,68.95 -40.50,129.88 -44.03,131.40ZM48.89,2.73L48.01,0.69L18.53,13.44L4.89,-18.08L-2.43,22.50L-15.59,28.20L1.75,33.68L24.53,86.34C37.09,114.36 51.56,109.65 58.23,106.76C69.73,101.79 74.74,78.27 71.03,55.44L68.67,55.58C69.75,68.76 67.50,86.46 61.57,89.03C56.56,91.19 52.37,91.68 43.55,71.29L23.50,24.93ZM141.78,18.01C141.78,18.01 142.46,54.70 129.11,60.47C122.44,63.36 112.86,54.96 104.54,40.29L130.17,-12.40C128.57,-16.11 115.38,-31.32 97.77,-23.70C74.96,-13.83 69.76,26.05 81.31,52.75C91.98,77.41 108.29,85.10 124.80,77.97C142.78,70.19 147.63,36.61 145.55,18.58ZM102.24,36.00C100.93,33.48 99.54,30.78 98.26,27.81C85.43,-1.85 88.53,-10.46 90.98,-13.94C92.67,-16.65 105.79,-11.76 114.82,6.56ZM218.97,-39.15L219.21,-40.13L190.40,-63.99L187.99,-62.94C183.78,-42.64 184.80,-15.34 188.41,7.75L162.91,-51.21L134.35,-24.11L153.13,-15.29L181.68,50.72L204.49,40.85L198.11,30.19C190.01,11.46 189.49,-33.00 191.61,-35.23ZM232.79,-112.03L210.02,-122.44L201.82,-98.64L224.85,-88.13ZM273.43,-7.89L240.23,-84.66L211.67,-57.56L230.45,-48.73L259.00,17.28L294.05,2.12ZM324.64,-11.12C327.96,-33.46 329.93,-64.03 324.95,-93.35L332.03,-70.88L352.64,-23.23L388.05,-38.54L367.44,-48.56L339.36,-113.45L342.08,-126.51L320.94,-117.37C282.51,-99.87 272.36,-65.32 287.28,-30.83C293.77,-15.81 304.56,-4.63 311.80,-3.14ZM321.43,-26.68C319.21,-25.71 313.80,-32.62 305.94,-50.79C297.84,-69.52 291.27,-97.93 316.04,-108.86C324.35,-89.13 324.95,-28.20 321.43,-26.68ZM357.62,-152.16L360.02,-146.60L349.74,-135.77L368.53,-126.95L403.81,-45.36L438.86,-60.52L418.24,-70.53L368.19,-186.23L338.83,-160.99Z" fill="#ffffff" stroke="#000000"/>
    <path d="M-384.50,12.06L-378.76,1.04L-379.63,-0.76L-428.48,23.06L-427.52,25.03L-404.83,25.98L-390.39,55.61C-393.92,60.22 -399.50,64.28 -402.91,65.94C-433.44,80.82 -456.45,49.58 -469.94,21.93C-483.68,-6.27 -481.43,-25.37 -464.19,-33.77C-444.80,-43.23 -428.46,-32.97 -413.73,-22.37L-411.40,-23.50L-429.17,-59.96L-455.93,-46.92C-497.06,-26.87 -503.41,18.02 -487.82,49.98C-470.66,85.19 -439.62,100.06 -408.91,85.09C-397.60,79.57 -389.91,69.82 -384.53,59.87L-363.73,61.51L-361.04,60.19ZM-299.84,-45.44L-299.65,-46.42L-329.18,-68.70L-331.51,-67.56C-334.76,-47.31 -332.52,-20.39 -327.93,2.27L-355.77,-54.85L-382.77,-26.79L-363.81,-18.92L-332.65,45.02L-310.56,34.25L-317.33,24.00C-326.18,5.86 -328.68,-38.04 -326.69,-40.35ZM-243.39,1.51C-241.11,-20.72 -240.54,-51.01 -246.77,-79.75L-238.77,-57.87L-216.27,-11.71L-181.97,-28.44L-202.79,-37.40L-233.43,-100.26L-231.33,-113.29L-251.81,-103.31C-288.99,-84.29 -297.47,-49.70 -281.19,-16.30C-274.09,-1.75 -262.94,8.82 -255.71,9.96ZM-247.26,-13.72C-249.41,-12.67 -255.06,-19.25 -263.64,-36.85C-272.49,-54.99 -280.25,-82.77 -256.27,-94.68C-247.17,-75.56 -243.84,-15.39 -247.26,-13.72ZM-158.93,-115.69L-172.78,-141.83L-185.54,-135.61C-205.29,-125.98 -209.25,-105.38 -203.03,-92.63C-193.49,-73.05 -153.73,-81.32 -145.15,-63.72C-142.79,-58.87 -144.52,-55.14 -149.91,-52.51C-160.33,-47.43 -174.92,-54.10 -191.53,-63.56L-191.28,-61.68L-172.09,-33.25L-157.36,-40.43C-134.19,-51.73 -131.49,-71.72 -137.27,-83.57C-146.55,-102.61 -189.30,-99.10 -195.43,-111.68C-197.62,-116.17 -197.50,-119.11 -192.47,-121.56C-184.57,-125.42 -171.91,-122.25 -159.92,-114.98ZM-106.51,-174.14C-106.71,-154.48 -104.71,-131.23 -99.68,-107.23L-128.66,-166.67L-156.54,-140.42L-137.58,-132.54L-92.05,-39.15L-90.59,-25.20L-52.33,-43.84L-70.52,-47.42L-81.03,-68.97C-49.91,-89.48 -46.24,-125.72 -57.71,-149.25C-66.29,-166.85 -80.54,-180.13 -90.31,-186.04ZM-88.82,-84.96C-97.23,-102.20 -103.40,-155.43 -99.80,-157.18C-96.57,-158.76 -84.53,-147.73 -75.25,-128.70C-67.72,-113.25 -59.51,-85.47 -83.31,-73.64ZM27.53,-237.04L26.57,-239.01L-1.99,-225.09L-16.87,-255.62L-22.28,-215.20L-35.03,-208.98L-17.66,-204.34L7.21,-153.34C20.88,-126.21 34.96,-131.52 41.42,-134.67C52.56,-140.10 56.46,-163.56 51.77,-185.95L49.44,-185.71C51.10,-172.73 49.67,-155.14 43.92,-152.34C39.08,-149.98 34.96,-149.30 25.33,-169.06L3.44,-213.96ZM44.48,-296.65L16.61,-270.39L35.56,-262.51L85.99,-159.07L109.34,-170.45L101.30,-180.09C93.95,-195.18 92.17,-231.21 92.48,-253.36L94.00,-253.88C99.39,-247.84 107.14,-236.06 120.80,-208.04L133.40,-182.18L167.35,-198.73L146.53,-207.70L136.37,-228.53C118.51,-265.17 115.61,-270.20 103.94,-282.29L88.53,-269.22C87.29,-262.17 85.98,-229.30 91.93,-199.31ZM215.72,-272.77C215.72,-272.77 218.04,-236.55 205.10,-230.25C198.64,-227.10 188.80,-234.97 179.92,-249.09L202.88,-302.30C201.13,-305.89 187.42,-320.32 170.36,-312.00C148.27,-301.24 144.92,-261.59 157.53,-235.73C169.18,-211.85 185.64,-204.98 201.62,-212.77C219.04,-221.26 222.33,-254.65 219.47,-272.37ZM177.46,-253.23C176.05,-255.65 174.56,-258.26 173.16,-261.13C159.15,-289.87 161.83,-298.51 164.10,-302.06C165.64,-304.81 178.82,-300.57 188.57,-282.87ZM-408.21,309.03L-411.50,334.19L-364.09,311.08L-385.94,298.17L-427.36,213.22L-424.07,188.06L-471.48,211.17L-449.63,224.08ZM-364.77,200.27L-391.77,228.32L-372.81,236.20L-341.64,300.14L-318.30,288.75L-326.33,279.11C-333.68,264.03 -335.47,228.00 -335.15,205.84L-333.63,205.32C-328.24,211.36 -320.50,223.14 -306.84,251.16L-294.23,277.02L-271.06,265.73L-278.57,256.72L-280.58,252.59C-286.93,235.45 -288.37,201.04 -287.81,180.76C-282.50,186.17 -274.66,197.24 -259.60,228.13L-247.26,253.46L-213.31,236.91L-233.87,228.48L-244.03,207.65C-261.89,171.01 -264.79,165.98 -276.46,153.89L-291.87,166.96C-293.11,174.00 -294.50,206.25 -288.64,236.06L-291.26,230.67C-309.12,194.04 -312.02,189.00 -323.69,176.91L-339.11,189.98C-340.34,197.03 -341.65,229.90 -335.70,259.90ZM-220.01,129.70L-247.01,157.76L-228.06,165.63L-196.89,229.57L-173.54,218.19L-181.58,208.54C-188.93,193.46 -190.71,157.43 -190.40,135.27L-188.88,134.75C-183.49,140.79 -175.74,152.57 -162.08,180.59L-149.48,206.45L-126.31,195.16L-133.81,186.15L-135.83,182.02C-142.18,164.89 -143.62,130.47 -143.06,110.19C-137.75,115.60 -129.91,126.67 -114.85,157.56L-102.50,182.89L-68.56,166.34L-89.12,157.91L-99.27,137.08C-117.14,100.44 -120.03,95.41 -131.71,83.32L-147.12,96.39C-148.35,103.44 -149.75,135.68 -143.88,165.49L-146.51,160.11C-164.37,123.47 -167.27,118.44 -178.94,106.34L-194.35,119.41C-195.58,126.46 -196.90,159.33 -190.94,189.33ZM-37.41,151.82C-35.13,129.59 -34.56,99.31 -40.79,70.56L-32.79,92.44L-10.29,138.60L24.01,121.88L3.19,112.91L-27.45,50.05L-25.35,37.03L-45.83,47.01C-83.01,66.03 -91.49,100.61 -75.21,134.02C-68.11,148.56 -56.96,159.13 -49.74,160.27ZM-41.28,136.59C-43.43,137.64 -49.08,131.06 -57.66,113.46C-66.51,95.32 -74.27,67.54 -50.29,55.63C-41.19,74.76 -37.86,134.93 -41.28,136.59ZM44.75,5.29L43.79,3.32L15.24,17.24L0.35,-13.29L-5.06,27.13L-17.81,33.35L-0.43,37.99L24.43,89.00C38.10,116.12 52.18,110.81 58.65,107.66C69.78,102.23 73.68,78.77 68.99,56.38L66.67,56.63C68.32,69.60 66.90,87.19 61.15,89.99C56.30,92.36 52.18,93.03 42.55,73.27L20.66,28.37ZM137.22,16.23C137.22,16.23 139.54,52.44 126.60,58.75C120.14,61.90 110.30,54.03 101.42,39.91L124.38,-13.30C122.63,-16.89 108.92,-31.32 91.86,-23.01C69.77,-12.24 66.42,27.40 79.03,53.27C90.68,77.15 107.14,84.02 123.12,76.23C140.54,67.73 143.83,34.35 140.97,16.63ZM98.96,35.77C97.55,33.35 96.06,30.74 94.66,27.87C80.65,-0.87 83.33,-9.51 85.60,-13.06C87.14,-15.82 100.33,-11.57 110.07,6.13ZM210.92,-43.70L211.10,-44.68L181.57,-66.96L179.24,-65.82C176.00,-45.57 178.23,-18.65 182.82,4.00L154.98,-53.11L127.98,-25.06L146.94,-17.18L178.11,46.76L200.20,35.99L193.42,25.73C184.58,7.59 182.07,-36.31 184.06,-38.61ZM221.30,-116.34L198.33,-125.59L191.30,-101.71L214.53,-92.37ZM266.12,-15.27L229.87,-89.62L202.87,-61.57L221.83,-53.69L253.00,10.25L286.94,-6.30ZM316.57,-20.75C318.85,-42.98 319.42,-73.26 313.19,-102.01L321.19,-80.12L343.69,-33.97L378.00,-50.69L357.18,-59.66L326.53,-122.52L328.63,-135.54L308.15,-125.56C270.97,-106.54 262.49,-71.96 278.78,-38.55C285.87,-24.01 297.02,-13.44 304.25,-12.29ZM312.71,-35.98C310.55,-34.93 304.90,-41.51 296.32,-59.11C287.47,-77.25 279.71,-105.03 303.69,-116.94C312.79,-97.81 316.12,-37.64 312.71,-35.98ZM342.83,-161.58L345.46,-156.19L335.78,-145.03L354.74,-137.16L393.26,-58.13L427.20,-74.68L406.38,-83.65L351.75,-195.71L323.88,-169.46Z" fill="#ffffff" stroke="#000000"/>
    <path d="M-910.99,465.97L-908.82,469.92L-908.82,487.97L-910.99,492L-903.01,492C-897.88,492 -890.88,490.52 -890.88,485.05C-890.88,481.17 -893.70,478.93 -898.22,477.86C-895.52,476.80 -892.48,475.13 -892.48,471.71C-892.48,467.19 -897.23,465.97 -902.70,465.97ZM-904.11,467.19L-902.85,467.19C-900.38,467.19 -897.15,467.91 -897.15,472.47C-897.15,475.43 -899.47,477.64 -904.11,477.64ZM-904.11,490.52L-904.11,478.59C-899.47,478.59 -896.20,479.92 -896.20,484.93C-896.20,488.58 -899.28,490.52 -902.97,490.52ZM-886.02,470.11L-886.02,471.25L-888.60,472.35L-886.02,475.28L-886.02,492L-878.84,492L-881.65,488.73L-881.65,465.02L-888.60,467.19ZM-866.26,492L-859.31,492L-861.89,489.07L-861.89,473.38L-866.83,473.38L-866.26,475.70C-866.26,478.97 -869.11,485.54 -871.01,489.23C-871.16,487.71 -871.28,485.27 -871.28,478.85L-871.28,472.62L-878.46,473.38L-875.65,476.65L-875.65,485.81C-875.65,488.58 -875.15,491.09 -874.92,492.30L-871.50,492C-870.71,490.90 -867.74,485.39 -866.26,479.76ZM-846.42,492L-839.47,492L-842.05,489.07L-842.05,473.38L-846.99,473.38L-846.42,475.70C-846.42,478.97 -849.27,485.54 -851.17,489.23C-851.33,487.71 -851.44,485.27 -851.44,478.85L-851.44,472.62L-858.62,473.38L-855.81,476.65L-855.81,485.81C-855.81,488.58 -855.32,491.09 -855.09,492.30L-851.67,492C-850.87,490.90 -847.91,485.39 -846.42,479.76ZM-818.95,492L-813.33,492L-814.88,489.80L-814.88,469.50L-812.22,465.97L-819.75,465.97L-816.63,469.24L-816.63,487.67L-831.45,465.97L-837.42,465.97L-833.92,470.80L-833.92,488.47L-836.58,492L-829.13,492L-832.21,488.73L-832.21,473.42ZM-796.11,483.37C-796.11,483.37 -798.73,489.76 -801.47,489.76C-802.84,489.76 -803.86,487.59 -804.21,484.44L-795.85,477.26C-795.85,476.50 -796.99,472.89 -800.60,472.89C-805.27,472.89 -809.15,479.38 -809.15,484.86C-809.15,489.91 -806.90,492.46 -803.52,492.46C-799.84,492.46 -796.49,487.02 -795.50,483.75ZM-804.28,483.53C-804.32,482.99 -804.36,482.42 -804.36,481.82C-804.36,475.74 -803.18,474.48 -802.50,474.06C-802.00,473.72 -800.10,475.55 -799.91,479.38ZM-781.06,492L-774.68,492L-777.87,489.53L-782.39,481.74C-780.99,479.92 -778.59,476.65 -777.42,473.38L-782.85,473.38L-780.38,475.47C-780.38,477.60 -781.94,479.42 -782.93,480.83L-787.26,473.38L-793.64,473.38L-790.87,475.77L-786.54,482.99C-788.17,485.05 -791.48,488.92 -792.58,492L-786.80,492L-789.08,489.91C-789.08,487.90 -787.18,485.54 -785.97,483.91ZM-760.77,473.80L-760.77,473.38L-766.81,473.38L-766.81,466.92L-771.11,473.38L-773.81,473.38L-771.22,475.62L-771.22,486.41C-771.15,492.19 -768.30,492.46 -766.93,492.46C-764.57,492.46 -761.95,488.77 -760.89,484.55L-761.30,484.40C-762.10,486.76 -763.81,489.64 -765.03,489.64C-766.05,489.64 -766.81,489.42 -766.81,485.24L-766.81,475.74ZM-758.45,479.84L-758.45,482.73L-749.98,482.73L-749.98,479.84ZM-746.83,465.97L-744.66,469.92L-744.66,487.97L-746.83,492L-738.85,492C-733.72,492 -726.72,490.52 -726.72,485.05C-726.72,481.17 -729.54,478.93 -734.06,477.86C-731.36,476.80 -728.32,475.13 -728.32,471.71C-728.32,467.19 -733.07,465.97 -738.54,465.97ZM-739.95,467.19L-738.69,467.19C-736.22,467.19 -732.99,467.91 -732.99,472.47C-732.99,475.43 -735.31,477.64 -739.95,477.64ZM-739.95,490.52L-739.95,478.59C-735.31,478.59 -732.04,479.92 -732.04,484.93C-732.04,488.58 -735.12,490.52 -738.81,490.52ZM-723.80,484.44C-723.80,489.57 -720.68,492.53 -716.62,492.53C-711.45,492.53 -706.96,487.10 -706.96,481.17C-706.96,476.15 -709.85,472.92 -714.60,472.92C-719.96,472.92 -723.80,478.32 -723.80,484.44ZM-716.08,474.14C-714.94,474.14 -711.98,476.19 -711.98,482.88C-711.98,489.15 -714.22,491.28 -715.36,491.28C-716.50,491.28 -719.01,488.20 -719.01,481.89C-719.01,475.17 -717.22,474.14 -716.08,474.14ZM-702.82,470.11L-702.82,471.25L-705.41,472.35L-702.82,475.28L-702.82,492L-695.64,492L-698.45,488.73L-698.45,465.02L-705.41,467.19ZM-676.15,492L-678.96,489.34L-678.96,465.02L-685.91,467.19L-683.33,470.11L-683.33,473.46C-690.43,474.22 -694.35,479.35 -694.35,485.81C-694.35,488.88 -693.09,491.62 -691.95,492.42L-689.14,492C-686.90,488.39 -684.28,483.26 -682.95,477.83L-683.40,482.23L-683.40,492.34ZM-688.53,489.07C-688.99,489.07 -689.64,487.48 -689.64,483.75C-689.64,479.92 -688.42,474.52 -683.33,474.48C-683.37,478.51 -687.81,489.07 -688.53,489.07ZM-671.36,487.97L-674.02,492L-663.99,492L-666.65,487.97L-666.65,470.00L-663.99,465.97L-674.02,465.97L-671.36,470.00ZM-649.13,473.80L-649.13,473.38L-655.17,473.38L-655.17,466.92L-659.46,473.38L-662.16,473.38L-659.58,475.62L-659.58,486.41C-659.50,492.19 -656.65,492.46 -655.28,492.46C-652.93,492.46 -650.31,488.77 -649.24,484.55L-649.66,484.40C-650.46,486.76 -652.17,489.64 -653.38,489.64C-654.41,489.64 -655.17,489.42 -655.17,485.24L-655.17,475.74ZM-642.29,492C-640.05,488.39 -637.42,483.26 -636.09,477.83L-636.55,482.23L-636.55,492L-629.29,492L-632.10,488.73L-632.10,475.43L-630.66,473.38L-634.99,473.38C-642.93,473.53 -647.27,478.74 -647.27,485.81C-647.27,488.88 -646.24,491.62 -645.10,492.42ZM-641.68,489.07C-642.14,489.07 -642.55,487.48 -642.55,483.75C-642.55,479.92 -641.57,474.52 -636.47,474.48C-636.51,478.51 -640.96,489.07 -641.68,489.07ZM-626.06,470.11L-626.06,471.25L-628.65,472.35L-626.06,475.28L-626.06,492L-618.88,492L-621.69,488.73L-621.69,465.02L-628.65,467.19ZM-610.52,467.72L-613.67,464.22L-616.87,467.72L-613.67,471.25ZM-611.28,488.73L-611.28,473L-618.23,475.55L-615.65,478.47L-615.65,492L-608.47,492ZM-594.98,478.32L-594.86,478.17L-597.52,472.85L-597.90,472.85C-602.54,474.03 -607.18,479.27 -607.18,485.05C-607.18,490.10 -604.74,492.46 -601.59,492.46C-599.61,492.46 -596.08,489.53 -594.10,483.72L-594.71,483.34C-596.46,487.36 -598.51,489.76 -599.77,489.76C-601.48,489.76 -602.39,486.68 -602.39,481.78C-602.39,479.27 -601.74,475.77 -601.02,475.77Z"/>
</svg>