<?xml version="1.0"?>
<svg xmlns="http://www.w3.org/2000/svg" width="1920" height="1080" viewBox="-960 -540 1920 1080">
    <path d="M-898.60,473.49C-901.68,472.89 -903.80,471.94 -903.80,470.04C-903.80,468.10 -901.45,466.62 -897.42,466.62C-888.95,466.62 -889.17,472.54 -889.17,472.54L-882.22,470.64C-882.22,470.64 -882.87,461.94 -897.15,461.94C-906.39,461.94 -910.80,466.16 -910.80,470.76C-910.80,474.48 -907.60,477.41 -901.90,478.62L-894.38,480.22C-890.31,481.09 -888.00,481.59 -888.00,484.29C-888.00,486.53 -890.73,487.82 -895.22,487.82C-905.78,487.82 -904.91,480.60 -904.91,480.60L-911.86,482.39C-911.63,486.64 -907.72,492.49 -895.10,492.49C-887.16,492.49 -881.04,489.49 -881.04,483.75C-881.04,479.80 -883.25,476.57 -890.47,475.13ZM-870.21,488.62C-870.21,488.62 -868.58,492.49 -862.69,492.49C-856.30,492.49 -851.59,487.90 -851.59,481.44C-851.59,474.98 -856.30,470.42 -862.73,470.42C-869.53,470.42 -871.39,475.74 -871.39,475.74L-872.83,470.91L-876.48,470.91L-876.48,500.47L-870.21,500.47ZM-864.74,474.60C-860.22,474.60 -858.17,477.60 -858.17,481.44C-858.17,485.27 -860.22,488.31 -864.74,488.31C-869.34,488.31 -871.20,484.93 -871.20,481.44C-871.20,477.94 -869.34,474.60 -864.74,474.60ZM-847.03,481.44C-847.03,487.63 -842.17,492.49 -834.00,492.49C-825.75,492.49 -820.89,487.63 -820.89,481.44C-820.89,475.28 -825.75,470.42 -834.00,470.42C-842.17,470.42 -847.03,475.28 -847.03,481.44ZM-840.46,481.44C-840.46,477.98 -838.90,474.60 -834.00,474.60C-829.13,474.60 -827.46,477.98 -827.46,481.44C-827.46,484.89 -829.13,488.31 -834.00,488.31C-838.90,488.31 -840.46,484.89 -840.46,481.44ZM-808.92,479.19C-808.92,479.19 -808.31,474.60 -805.65,474.60C-804.93,474.60 -803.98,474.94 -803.98,476.50C-803.98,479.38 -804.62,481.51 -804.62,481.51L-798.54,479.95C-798.54,479.95 -798.05,478.55 -798.05,475.93C-798.05,472.96 -799.34,470.42 -803.71,470.42C-809.83,470.42 -809.75,476.88 -809.75,476.88L-811.54,470.91L-815.19,470.91L-815.19,492L-808.92,492ZM-796.91,474.60L-792.05,474.60L-792.05,484.63C-792.05,490.06 -788.93,492.49 -783.84,492.49C-778.40,492.49 -775.90,489.38 -775.90,489.38L-777.11,485.27C-777.11,485.27 -778.78,488.31 -782.13,488.31C-784.83,488.31 -785.85,486.76 -785.85,484.17L-785.85,474.60L-776.16,474.60L-776.16,470.91L-785.85,470.91L-785.85,462.97L-791.89,466.77L-791.89,470.91L-796.91,470.91ZM-771.72,467.30L-765.45,467.30L-765.45,462.47L-771.72,462.47ZM-771.72,492L-765.45,492L-765.45,470.91L-771.72,470.91ZM-740.75,492L-734.48,492L-734.48,479.08C-734.48,473.72 -737.36,470.42 -744.36,470.42C-752.72,470.42 -753.17,476.88 -753.17,476.88L-754.96,470.91L-758.61,470.91L-758.61,492L-752.34,492L-752.34,479.23C-752.34,479.23 -751.04,474.60 -746.07,474.60C-742.68,474.60 -740.75,475.96 -740.75,478.78ZM-716.81,485.54C-709.40,485.54 -704.95,482.27 -704.95,478.02C-704.95,476.65 -705.41,475.39 -706.28,474.29C-707.04,472.89 -707.08,471.94 -704.91,471.94C-704.46,471.94 -703.13,472.01 -701.64,472.24L-703.09,467.57C-704.11,467.49 -705.29,467.41 -705.82,467.41C-707.88,467.41 -709.13,468.52 -709.13,470.42C-709.13,471.02 -708.75,471.75 -708.22,472.54C-710.27,471.21 -713.23,470.42 -716.88,470.42C-724.41,470.42 -728.81,473.72 -728.81,478.02C-728.81,480.87 -726.88,483.22 -723.38,484.51C-724.79,484.70 -728.70,485.39 -728.70,488.01C-728.70,491.13 -723.91,491.77 -723.42,491.81C-724.03,491.89 -729.92,492.49 -729.92,496.22C-729.92,498.35 -727.90,501.01 -721.25,501.01L-712.85,501.01C-706.32,501.01 -702.29,498.61 -702.29,494.66C-702.29,491.66 -704,488.31 -710.95,488.31L-718.74,488.31C-721.29,488.31 -722.58,487.90 -722.58,486.68C-722.58,485.39 -721.29,485.24 -720.49,485.27C-719.39,485.46 -718.14,485.54 -716.81,485.54ZM-722.47,478.02C-722.47,475.77 -721.02,474.10 -716.88,474.10C-712.74,474.10 -711.37,475.77 -711.37,478.02C-711.37,480.18 -712.74,481.85 -716.88,481.85C-721.02,481.85 -722.47,480.18 -722.47,478.02ZM-712.21,492.46C-709.70,492.61 -708.90,493.56 -708.90,495.08C-708.90,497.59 -711.75,498.00 -716.31,498.00C-721.59,498.00 -723.30,497.21 -723.30,495.12C-723.30,492 -719.77,492 -719.62,492ZM-663.99,472.54C-663.99,472.54 -665.13,461.94 -681.31,461.94C-692.41,461.94 -699.36,468.36 -699.36,477.26C-699.36,486.11 -692.03,492.49 -682.42,492.49C-673.68,492.49 -671.24,487.63 -671.24,487.63L-671.24,492L-664.90,492L-664.90,476.31L-683.29,476.31L-683.29,480.45L-671.24,480.45C-671.24,480.45 -672.04,487.82 -681.35,487.82C-688.23,487.82 -692.33,483.30 -692.33,477.26C-692.33,471.44 -688.84,466.62 -681.35,466.62C-671.05,466.62 -670.94,474.44 -670.94,474.44ZM-651.26,479.19C-651.26,479.19 -650.65,474.60 -647.99,474.60C-647.27,474.60 -646.32,474.94 -646.32,476.50C-646.32,479.38 -646.96,481.51 -646.96,481.51L-640.88,479.95C-640.88,479.95 -640.39,478.55 -640.39,475.93C-640.39,472.96 -641.68,470.42 -646.05,470.42C-652.17,470.42 -652.09,476.88 -652.09,476.88L-653.88,470.91L-657.53,470.91L-657.53,492L-651.26,492ZM-636.97,481.44C-636.97,487.63 -632.10,492.49 -623.93,492.49C-615.69,492.49 -610.82,487.63 -610.82,481.44C-610.82,475.28 -615.69,470.42 -623.93,470.42C-632.10,470.42 -636.97,475.28 -636.97,481.44ZM-630.39,481.44C-630.39,477.98 -628.84,474.60 -623.93,474.60C-619.07,474.60 -617.40,477.98 -617.40,481.44C-617.40,484.89 -619.07,488.31 -623.93,488.31C-628.84,488.31 -630.39,484.89 -630.39,481.44ZM-608.54,474.60L-603.68,474.60L-603.68,484.63C-603.68,490.06 -600.56,492.49 -595.47,492.49C-590.04,492.49 -587.53,489.38 -587.53,489.38L-588.75,485.27C-588.75,485.27 -590.42,488.31 -593.76,488.31C-596.46,488.31 -597.49,486.76 -597.49,484.17L-597.49,474.60L-587.80,474.60L-587.80,470.91L-597.49,470.91L-597.49,462.97L-603.53,466.77L-603.53,470.91L-608.54,470.91ZM-578.18,481.82L-559.71,482.20C-559.14,479.19 -559.79,470.42 -571.68,470.42C-579.55,470.42 -584.49,475.17 -584.49,481.44C-584.49,488.58 -578.49,492.49 -571.68,492.49C-560.74,492.49 -559.14,485.01 -559.14,485.01L-565.22,483.45C-565.22,483.45 -565.26,488.31 -571.04,488.31C-576.17,488.31 -578.14,485.08 -578.18,481.82ZM-566.21,478.47L-577.80,478.85C-577.80,478.85 -577.04,474.41 -571.80,474.41C-566.74,474.41 -566.21,478.47 -566.21,478.47ZM-549.26,483.56L-555.34,485.12C-555.34,485.12 -554.85,492.49 -542.73,492.49C-536.65,492.49 -531.78,490.21 -531.78,485.92C-531.78,482.80 -533.80,480.37 -539.12,479.50L-544.44,478.62C-546.91,478.21 -548.47,477.86 -548.47,476.61C-548.47,475.55 -547.25,474.41 -544.59,474.41C-539.19,474.41 -539.00,478.13 -539.00,478.13L-532.92,476.57C-532.92,476.57 -533.80,470.42 -544.32,470.42C-549.87,470.42 -554.28,472.81 -554.28,476.99C-554.28,480.83 -550.52,482.12 -547.17,482.73L-542.23,483.64C-539.27,484.17 -537.98,484.82 -537.98,486.11C-537.98,487.59 -540.14,488.31 -542.65,488.31C-549.30,488.31 -549.26,483.56 -549.26,483.56ZM-509.40,500.47L-503.09,500.47L-503.09,470.91L-506.74,470.91L-508.22,475.74C-508.22,475.74 -510.05,470.42 -516.85,470.42C-523.31,470.42 -527.98,474.98 -527.98,481.44C-527.98,487.90 -523.31,492.49 -516.89,492.49C-511.00,492.49 -509.40,488.66 -509.40,488.66ZM-514.87,474.60C-510.28,474.60 -508.38,477.94 -508.38,481.44C-508.38,484.93 -510.28,488.31 -514.87,488.31C-519.36,488.31 -521.41,485.27 -521.41,481.44C-521.41,477.60 -519.36,474.60 -514.87,474.60ZM-490.02,470.91L-496.25,470.91L-496.25,483.83C-496.25,489.19 -493.37,492.49 -486.37,492.49C-478.01,492.49 -477.56,486.03 -477.56,486.03L-475.77,492L-472.12,492L-472.12,470.91L-478.39,470.91L-478.39,483.68C-478.39,483.68 -479.69,488.31 -484.66,488.31C-488.05,488.31 -490.02,486.95 -490.02,484.13ZM-460.12,481.82L-441.65,482.20C-441.08,479.19 -441.72,470.42 -453.62,470.42C-461.48,470.42 -466.42,475.17 -466.42,481.44C-466.42,488.58 -460.42,492.49 -453.62,492.49C-442.67,492.49 -441.08,485.01 -441.08,485.01L-447.16,483.45C-447.16,483.45 -447.20,488.31 -452.97,488.31C-458.10,488.31 -460.08,485.08 -460.12,481.82ZM-448.15,478.47L-459.74,478.85C-459.74,478.85 -458.98,474.41 -453.73,474.41C-448.68,474.41 -448.15,478.47 -448.15,478.47ZM-421.24,482.58L-421.24,478.89L-437.28,478.89L-437.28,482.58ZM-402.39,462.47L-416.30,462.47L-416.30,492L-401.63,492C-391.53,492 -386.97,489.00 -386.97,483.37C-386.97,477.75 -392.59,476.76 -393.12,476.69C-392.63,476.61 -387.73,475.66 -387.73,470.72C-387.73,465.10 -392.29,462.47 -402.39,462.47ZM-402.01,474.82L-409.54,474.82L-409.54,466.62L-402.01,466.62C-397.68,466.62 -394.76,467.68 -394.76,470.72C-394.76,473.76 -397.68,474.82 -402.01,474.82ZM-409.54,487.82L-409.54,478.85L-400.91,478.85C-396.77,478.85 -394.00,480.37 -394.00,483.34C-394.00,486.38 -396.92,487.82 -401.25,487.82ZM-382.41,481.44C-382.41,487.63 -377.54,492.49 -369.37,492.49C-361.13,492.49 -356.26,487.63 -356.26,481.44C-356.26,475.28 -361.13,470.42 -369.37,470.42C-377.54,470.42 -382.41,475.28 -382.41,481.44ZM-375.83,481.44C-375.83,477.98 -374.27,474.60 -369.37,474.60C-364.51,474.60 -362.84,477.98 -362.84,481.44C-362.84,484.89 -364.51,488.31 -369.37,488.31C-374.27,488.31 -375.83,484.89 -375.83,481.44ZM-350.56,492L-344.29,492L-344.29,461.94C-344.29,461.94 -347.48,462.47 -350.56,462.47ZM-320.01,474.25C-320.01,474.25 -321.61,470.42 -327.50,470.42C-333.92,470.42 -338.59,475.01 -338.59,481.47C-338.59,487.93 -333.92,492.49 -327.46,492.49C-320.66,492.49 -318.83,487.17 -318.83,487.17L-317.35,492L-313.70,492L-313.70,461.94C-313.70,461.94 -316.86,462.47 -320.01,462.47ZM-325.48,488.31C-329.97,488.31 -332.02,485.31 -332.02,481.47C-332.02,477.64 -329.97,474.60 -325.48,474.60C-320.88,474.60 -318.98,477.98 -318.98,481.47C-318.98,484.97 -320.88,488.31 -325.48,488.31Z"/>
</svg>