<?xml version="1.0"?>
<svg xmlns="http://www.w3.org/2000/svg" width="1920" height="1080" viewBox="-960 -540 1920 1080">
    <path d="M-337.88,-147L-337.88,-287.97L-284.16,-287.97L-284.16,-306.84L-412.70,-306.84L-412.70,-287.97L-358.97,-287.97L-358.97,-147ZM-265.96,-147L-245.83,-147L-245.83,-209.83L-237.17,-239.07L-214.60,-249.32L-195.87,-240.67L-190.46,-217.08L-190.48,-147L-170.55,-147L-170.46,-217.24L-178.05,-252.61L-210.53,-266.54L-231.84,-261.65L-245.86,-246.68L-245.86,-306.84L-265.96,-306.84ZM-117.78,-168.96L-129.43,-199.60L-43.73,-199.61L-42.62,-207.61L-55.84,-249.90L-95.89,-267.08L-135.06,-250.55L-149.78,-204.81L-135.06,-159.07L-95.89,-142.54L-62.91,-152.28L-47.73,-176.08L-63.29,-185.79L-75.39,-166.04L-94.76,-159.53ZM-128.76,-215.60L-116.22,-242.02L-95.91,-250.12L-73.26,-240.49L-64.16,-215.60ZM156.29,-147L156.29,-165.87L64.82,-165.87L64.82,-219.15L142.97,-219.15L142.97,-238.02L64.82,-238.02L64.82,-287.97L154.07,-287.97L154.07,-306.84L43.73,-306.84L43.73,-147ZM185.71,-147L205.69,-147L205.69,-209.83L214.35,-239.49L236.94,-249.74L255.65,-241.08L261.07,-217.82L261.07,-147L281.05,-147L281.05,-217.82L273.49,-253.03L241.00,-266.96L219.42,-262.20L203.69,-245.79L203.69,-262.44L185.71,-262.44ZM402.71,-306.84L382.73,-306.84L382.73,-250.43L370.21,-261.88L351.71,-266.50L314.22,-249.12L301.20,-204.23L314.22,-159.34L351.71,-141.96L371.29,-147.34L384.95,-162.76L384.95,-147L402.71,-147ZM352.86,-249.52L375.75,-238.08L385.24,-204.23L374.90,-170.38L352.86,-158.95L330.51,-170.38L321.59,-204.23L330.51,-238.08Z" fill="#ffffff" stroke="#000000"/>
    <path d="M-346.00,-128.49L-351.72,-267.93L-298.58,-270.11L-299.35,-288.78L-426.49,-283.56L-425.73,-264.89L-372.58,-267.07L-366.86,-127.63ZM-274.85,-131.41L-254.95,-132.22L-257.50,-194.37L-250.12,-223.65L-228.21,-234.70L-209.33,-226.90L-203.02,-203.79L-200.19,-134.47L-180.48,-135.28L-183.24,-204.76L-192.18,-239.44L-224.88,-251.90L-245.76,-246.20L-259.02,-230.82L-261.46,-290.33L-281.34,-289.51ZM-129.17,-159.14L-141.94,-188.97L-57.17,-192.47L-56.40,-200.42L-71.19,-241.71L-111.50,-257.08L-149.58,-239.14L-162.28,-193.30L-145.87,-148.65L-106.45,-133.89L-74.22,-144.86L-60.17,-169.03L-75.95,-178.00L-87.12,-157.97L-106.02,-150.75ZM-141.93,-204.83L-130.60,-231.47L-110.84,-240.31L-88.04,-231.70L-78.02,-207.45ZM142.82,-148.54L142.05,-167.20L51.58,-163.49L49.42,-216.20L126.71,-219.37L125.95,-238.03L48.65,-234.86L46.62,-284.27L134.90,-287.89L134.14,-306.56L25.00,-302.08L31.48,-143.97ZM171.92,-149.73L191.68,-150.54L189.13,-212.69L196.50,-242.38L218.42,-253.44L237.29,-245.63L243.59,-222.84L246.47,-152.79L266.23,-153.60L263.36,-223.65L254.45,-258.17L221.75,-270.63L200.59,-265.05L185.70,-248.18L185.02,-264.65L167.23,-263.92ZM380.08,-316.64L360.32,-315.83L362.61,-260.04L349.76,-270.85L331.27,-274.67L294.89,-255.96L283.84,-211.03L298.54,-167.15L336.32,-151.48L355.48,-157.60L368.36,-173.41L369.00,-157.82L386.57,-158.54ZM333.10,-257.93L356.21,-247.54L366.97,-214.44L358.12,-180.54L336.77,-168.34L314.21,-178.74L304.01,-211.85L311.46,-245.70Z" fill="#ffffff" stroke="#000000"/>
    <path d="M-353.05,-109.63L-364.37,-247.32L-311.89,-251.63L-313.41,-270.06L-438.95,-259.75L-437.44,-241.32L-384.96,-245.63L-373.65,-107.94ZM-282.80,-115.41L-263.14,-117.02L-268.19,-178.38L-262.07,-207.64L-240.86,-219.47L-221.86,-212.52L-214.69,-189.92L-209.08,-121.46L-189.61,-123.06L-195.17,-191.68L-205.41,-225.61L-238.26,-236.61L-258.68,-230.13L-271.17,-214.38L-276.00,-273.14L-295.63,-271.52ZM-139.84,-148.75L-153.67,-177.73L-69.98,-184.63L-69.53,-192.53L-85.84,-232.77L-126.33,-246.33L-163.27,-227.05L-173.97,-181.19L-155.92,-137.70L-116.34,-124.70L-84.91,-136.86L-71.99,-161.33L-87.96,-169.56L-98.20,-149.30L-116.60,-141.39ZM-154.30,-193.42L-144.18,-220.23L-124.99,-229.77L-102.09,-222.19L-91.21,-198.60ZM129.61,-149.30L128.10,-167.73L38.76,-160.39L34.49,-212.42L110.81,-218.70L109.30,-237.13L32.97,-230.86L28.96,-279.64L116.13,-286.80L114.61,-305.24L6.85,-296.38L19.68,-140.26ZM158.35,-151.66L177.86,-153.26L172.82,-214.62L178.90,-244.29L200.13,-256.11L219.11,-249.16L226.27,-226.88L231.95,-157.71L251.47,-159.31L245.78,-228.48L235.57,-262.26L202.72,-273.26L182.03,-266.88L167.98,-249.59L166.64,-265.85L149.08,-264.41ZM357.46,-325.19L337.95,-323.59L342.47,-268.50L329.33,-278.67L310.89,-281.70L275.67,-261.71L266.55,-216.82L282.87,-174.02L320.88,-160.06L339.58,-166.89L351.68,-183.04L352.94,-167.65L370.29,-169.07ZM313.37,-265.21L336.65,-255.87L348.64,-223.57L341.26,-189.68L320.64,-176.75L297.90,-186.12L286.47,-218.46L292.47,-252.24Z" fill="#ffffff" stroke="#000000"/>
    <path d="M-359.02,-90.50L-375.80,-226.21L-324.08,-232.60L-326.32,-250.77L-450.06,-235.47L-447.82,-217.31L-396.10,-223.70L-379.32,-87.99ZM-289.78,-99.06L-270.41,-101.45L-277.88,-161.93L-273.02,-191.12L-252.52,-203.67L-233.46,-197.57L-225.44,-175.51L-217.12,-108.04L-197.93,-110.41L-206.21,-178.04L-217.72,-211.19L-250.65,-220.73L-270.58,-213.49L-282.29,-197.41L-289.45,-255.32L-308.80,-252.93ZM-149.75,-137.83L-164.60,-165.94L-82.11,-176.15L-81.99,-183.98L-99.75,-223.12L-140.35,-234.89L-176.09,-214.32L-184.82,-168.53L-165.21,-126.25L-125.53,-115.00L-94.94,-128.30L-83.16,-153.02L-99.29,-160.52L-108.59,-140.07L-126.46,-131.49ZM-165.87,-181.42L-156.94,-208.35L-138.35,-218.56L-115.40,-211.99L-103.68,-189.11ZM116.70,-149.30L114.46,-167.47L26.41,-156.59L20.07,-207.88L95.30,-217.18L93.05,-235.34L17.82,-226.04L11.88,-274.13L97.79,-284.75L95.55,-302.91L-10.67,-289.78L8.35,-135.91ZM145.03,-152.81L164.26,-155.18L156.78,-215.66L161.60,-245.25L182.12,-257.81L201.16,-251.70L209.15,-229.95L217.58,-161.77L236.81,-164.15L228.38,-232.33L216.91,-265.32L183.98,-274.87L163.77,-267.72L150.58,-250.05L148.60,-266.08L131.29,-263.94ZM334.91,-332.50L315.67,-330.12L322.38,-275.82L308.97,-285.35L290.61,-287.60L256.59,-266.41L249.40,-221.64L267.27,-179.97L305.43,-167.71L323.64,-175.22L334.95,-191.69L336.83,-176.51L353.93,-178.63ZM293.74,-271.39L317.14,-263.10L330.30,-231.64L324.38,-197.83L304.52,-184.20L281.64,-192.55L269.03,-224.07L273.59,-257.72Z" fill="#ffffff" stroke="#000000"/>
    <path d="M-363.91,-71.15L-386.00,-204.66L-335.11,-213.08L-338.07,-230.96L-459.81,-210.81L-456.86,-192.94L-405.97,-201.36L-383.88,-67.84ZM-295.78,-82.42L-276.72,-85.57L-286.57,-145.08L-282.95,-174.13L-263.18,-187.38L-244.08,-182.12L-235.26,-160.63L-224.29,-94.25L-205.42,-97.37L-216.34,-163.91L-229.07,-196.22L-262.02,-204.33L-281.44,-196.36L-292.37,-179.98L-301.80,-236.96L-320.83,-233.81ZM-158.88,-126.44L-174.71,-153.63L-93.55,-167.08L-93.76,-174.82L-112.91,-212.80L-153.53,-222.80L-188.04,-201.00L-194.81,-155.38L-173.70,-114.36L-134.01,-104.85L-104.30,-119.24L-93.65,-144.16L-109.91,-150.92L-118.28,-130.32L-135.60,-121.12ZM-176.59,-168.89L-168.86,-195.88L-150.89,-206.74L-127.93,-201.17L-115.40,-179.02ZM104.14,-148.59L101.18,-166.47L14.55,-152.13L6.20,-202.59L80.21,-214.84L77.26,-232.71L3.24,-220.47L-4.58,-267.78L79.94,-281.76L76.98,-299.63L-27.52,-282.34L-2.47,-130.95ZM132.00,-153.20L150.92,-156.34L141.08,-215.84L144.64,-245.29L164.42,-258.54L183.50,-253.27L192.28,-232.09L203.38,-165.01L222.30,-168.15L211.20,-235.22L198.52,-267.38L165.57,-275.48L145.88,-267.60L133.55,-249.59L130.94,-265.36L113.91,-262.54ZM312.48,-338.60L293.55,-335.47L302.39,-282.05L288.75,-290.92L270.49,-292.40L237.71,-270.06L232.42,-225.51L251.78,-185.03L290.01,-174.44L307.72,-182.61L318.23,-199.36L320.70,-184.43L337.53,-187.21ZM274.24,-276.50L297.72,-269.25L312.01,-238.68L307.53,-205.00L288.44,-190.72L265.48,-198.04L251.73,-228.70L254.87,-262.16Z" fill="#ffffff" stroke="#000000"/>
    <path d="M-367.70,-51.64L-394.96,-182.76L-344.99,-193.14L-348.64,-210.70L-468.19,-185.84L-464.54,-168.29L-414.57,-178.68L-387.31,-47.56ZM-300.80,-65.55L-282.08,-69.44L-294.23,-127.87L-291.83,-156.75L-272.82,-170.65L-253.72,-166.22L-244.13,-145.33L-230.59,-80.14L-212.06,-84.00L-225.56,-149.35L-239.45,-180.77L-272.36,-187.45L-291.24,-178.78L-301.38,-162.14L-313.01,-218.10L-331.70,-214.22ZM-167.22,-114.62L-183.98,-140.87L-104.28,-157.45L-104.79,-165.10L-125.27,-201.88L-165.84,-210.11L-199.08,-187.17L-203.92,-141.78L-181.39,-102.08L-141.76,-94.28L-112.96,-109.72L-103.45,-134.79L-119.79,-140.82L-127.23,-120.11L-143.99,-110.30ZM-186.45,-155.88L-179.90,-182.88L-162.58,-194.34L-139.65,-189.77L-126.37,-168.37ZM91.94,-147.19L88.29,-164.75L3.22,-147.06L-7.09,-196.62L65.60,-211.73L61.95,-229.28L-10.73,-214.17L-20.39,-260.63L62.61,-277.88L58.96,-295.43L-43.66,-274.10L-12.75,-125.43ZM119.30,-152.88L137.89,-156.75L125.74,-215.18L128.06,-244.45L147.08,-258.35L166.16,-253.91L175.70,-233.33L189.40,-167.46L207.98,-171.32L194.29,-237.19L180.45,-268.47L147.53,-275.15L128.38,-266.55L116.92,-248.25L113.70,-263.73L96.98,-260.26ZM290.23,-343.51L271.64,-339.65L282.55,-287.19L268.70,-295.41L250.59,-296.13L219.08,-272.72L215.66,-228.44L236.45,-189.21L274.67,-180.29L291.85,-189.09L301.57,-206.07L304.62,-191.41L321.14,-194.84ZM254.95,-280.56L278.45,-274.35L293.82,-244.70L290.75,-211.22L272.46,-196.32L249.46,-202.63L234.62,-232.39L236.37,-265.60Z" fill="#ffffff" stroke="#000000"/>
    <path d="M-370.40,-32.03L-402.67,-160.56L-353.69,-172.85L-358.00,-190.06L-475.19,-160.64L-470.87,-143.43L-421.89,-155.73L-389.63,-27.20ZM-304.82,-48.50L-286.48,-53.10L-300.86,-110.38L-299.65,-139.03L-281.42,-153.54L-262.36,-149.93L-252.04,-129.67L-236.01,-65.77L-217.84,-70.33L-233.84,-134.39L-248.85,-164.90L-281.66,-170.17L-299.96,-160.83L-309.32,-143.97L-323.09,-198.82L-341.41,-194.22ZM-174.75,-102.43L-192.39,-127.70L-114.26,-147.33L-115.08,-154.87L-136.81,-190.40L-177.26,-196.89L-209.19,-172.86L-212.13,-127.79L-188.25,-89.46L-148.75,-83.35L-120.91,-99.78L-112.52,-124.96L-128.93,-130.25L-135.44,-109.47L-151.61,-99.10ZM-195.44,-142.44L-190.06,-169.40L-173.40,-181.43L-150.54,-177.84L-136.54,-157.23ZM80.14,-145.14L75.82,-162.35L-7.57,-141.41L-19.76,-189.99L51.48,-207.87L47.16,-225.08L-24.08,-207.19L-35.51,-252.73L45.85,-273.16L41.53,-290.36L-59.06,-265.11L-22.48,-119.38ZM106.96,-151.88L125.18,-156.45L110.80,-213.73L111.91,-242.76L130.15,-257.27L149.20,-253.66L159.46,-233.69L175.67,-169.13L193.89,-173.70L177.68,-238.27L162.73,-268.63L129.92,-273.90L111.33,-264.62L100.75,-246.06L96.93,-261.24L80.54,-257.12ZM268.22,-347.27L250.00,-342.70L262.91,-291.27L248.88,-298.84L230.95,-298.82L200.75,-274.39L199.16,-230.49L221.30,-192.54L259.46,-185.28L276.08,-194.66L285.00,-211.85L288.61,-197.48L304.80,-201.55ZM235.89,-283.61L259.38,-278.42L275.78,-249.72L274.10,-216.50L256.62,-201.03L233.63,-206.34L217.75,-235.15L218.13,-268.06Z" fill="#ffffff" stroke="#000000"/>
    <path d="M-372.01,-12.39L-409.12,-138.13L-361.20,-152.27L-366.17,-169.10L-480.82,-135.27L-475.85,-118.44L-427.93,-132.58L-390.82,-6.84ZM-307.85,-31.32L-289.91,-36.62L-306.44,-92.66L-306.42,-121.03L-288.98,-136.11L-270.00,-133.32L-258.97,-113.71L-240.53,-51.19L-222.75,-56.44L-241.17,-119.12L-257.24,-148.67L-289.89,-152.54L-307.61,-142.57L-316.17,-125.52L-332.01,-179.19L-349.93,-173.90ZM-181.47,-89.92L-199.92,-114.18L-123.49,-136.75L-124.60,-144.17L-147.53,-178.41L-187.77,-183.19L-218.36,-158.14L-219.45,-113.47L-194.28,-76.54L-154.99,-72.11L-128.13,-89.48L-120.86,-114.71L-137.29,-119.28L-142.89,-98.47L-158.45,-87.56ZM-203.54,-128.63L-199.31,-155.50L-183.33,-168.07L-160.59,-165.44L-145.91,-145.63ZM68.77,-142.47L63.81,-159.30L-17.78,-135.23L-31.80,-182.75L37.90,-203.32L32.93,-220.15L-36.77,-199.58L-49.92,-244.14L29.69,-267.63L24.72,-284.46L-73.70,-255.42L-31.62,-112.84ZM95.02,-150.22L112.84,-155.48L96.30,-211.51L96.22,-240.25L113.67,-255.34L132.64,-252.55L143.60,-233.22L162.24,-170.05L180.06,-175.31L161.42,-238.48L145.40,-267.89L112.76,-271.77L94.76,-261.85L85.05,-243.07L80.67,-257.92L64.63,-253.19ZM246.50,-349.91L228.68,-344.65L243.52,-294.34L229.35,-301.25L211.63,-300.50L182.76,-275.13L182.97,-231.66L206.40,-195.05L244.41,-189.42L260.46,-199.37L268.58,-216.72L272.73,-202.66L288.57,-207.34ZM217.12,-285.66L240.55,-281.49L257.93,-253.79L257.62,-220.88L240.96,-204.88L218.02,-209.19L201.16,-237.03L200.20,-269.58Z" fill="#ffffff" stroke="#000000"/>
    <path d="M-372.54,7.23L-414.32,-115.55L-367.53,-131.47L-373.12,-147.91L-485.07,-109.82L-479.48,-93.38L-432.69,-109.30L-390.91,13.48ZM-309.90,-14.09L-292.37,-20.05L-310.99,-74.77L-312.11,-102.81L-295.49,-118.43L-276.61,-116.44L-264.91,-97.50L-244.15,-36.46L-226.80,-42.36L-247.54,-103.57L-264.63,-132.12L-297.05,-134.63L-314.16,-124.06L-321.93,-106.86L-339.76,-159.26L-357.26,-153.30ZM-187.35,-77.13L-206.57,-100.36L-131.94,-125.77L-133.34,-133.06L-157.39,-165.97L-197.36,-169.07L-226.58,-143.06L-225.84,-98.86L-199.47,-63.39L-160.45,-60.60L-134.61,-78.86L-128.45,-104.09L-144.87,-107.94L-149.56,-87.15L-164.50,-75.74ZM-210.73,-114.49L-207.64,-141.22L-192.35,-154.29L-169.77,-152.62L-154.46,-133.64ZM57.86,-139.22L52.27,-155.65L-27.39,-128.55L-43.18,-174.95L24.88,-198.11L19.29,-214.55L-48.77,-191.39L-63.57,-234.89L14.15,-261.34L8.56,-277.78L-87.53,-245.08L-40.17,-105.86ZM83.49,-147.94L100.89,-153.86L82.27,-208.58L81.03,-236.98L97.66,-252.60L116.53,-250.61L128.14,-231.95L149.13,-170.27L166.53,-176.19L145.54,-237.87L128.52,-266.30L96.10,-268.80L78.71,-258.26L69.87,-239.31L64.94,-253.81L49.28,-248.48ZM225.12,-351.46L207.72,-345.54L224.43,-296.41L210.14,-302.67L192.65,-301.21L165.15,-274.96L167.12,-232.01L191.76,-196.77L229.56,-192.74L245.02,-203.23L252.35,-220.71L257.02,-206.98L272.49,-212.24ZM198.69,-286.77L222.02,-283.59L240.31,-256.91L241.34,-224.37L225.53,-207.88L202.68,-211.22L184.88,-238.05L182.62,-270.18Z" fill="#ffffff" stroke="#000000"/>
    <path d="M-372.00,26.76L-418.26,-92.89L-372.66,-110.52L-378.86,-126.54L-487.95,-84.35L-481.76,-68.34L-436.16,-85.97L-389.90,33.68ZM-310.95,3.15L-293.87,-3.45L-314.49,-56.77L-316.73,-84.44L-300.94,-100.55L-282.20,-99.35L-269.87,-81.11L-246.88,-21.62L-229.97,-28.16L-252.95,-87.81L-271.00,-115.33L-303.14,-116.50L-319.62,-105.35L-326.61,-88.04L-346.35,-139.11L-363.41,-132.51ZM-192.39,-64.11L-212.33,-86.29L-139.60,-114.43L-141.28,-121.58L-166.38,-153.14L-206.01,-154.57L-233.84,-127.69L-231.31,-84.04L-203.81,-50.04L-165.14,-48.87L-140.34,-67.96L-135.27,-93.15L-151.66,-96.29L-155.45,-75.55L-169.76,-63.66ZM-217.01,-100.10L-215.04,-126.64L-200.46,-140.18L-178.08,-139.44L-162.18,-121.30ZM47.44,-135.42L41.24,-151.44L-36.39,-121.42L-53.87,-166.64L12.45,-192.29L6.26,-208.30L-60.07,-182.66L-76.46,-225.05L-0.71,-254.34L-6.91,-270.36L-100.55,-234.15L-48.10,-98.48ZM72.41,-145.08L89.36,-151.63L68.75,-204.96L66.36,-232.98L82.17,-249.09L100.90,-247.88L113.13,-229.92L136.37,-169.81L153.33,-176.37L130.09,-236.47L112.11,-263.87L79.97,-265.04L63.22,-253.92L55.25,-234.83L49.78,-248.96L34.52,-243.06ZM204.13,-351.96L187.17,-345.40L205.68,-297.53L191.31,-303.13L174.08,-300.98L147.97,-273.93L151.65,-231.55L177.43,-197.72L214.95,-195.28L229.81,-206.27L236.34,-223.84L241.51,-210.46L256.59,-216.29ZM180.63,-286.95L203.82,-284.75L222.98,-259.13L225.31,-227.01L210.35,-210.08L187.64,-212.45L168.96,-238.24L165.42,-269.91Z" fill="#ffffff" stroke="#000000"/>
    <path d="M-370.39,46.15L-420.96,-70.21L-376.61,-89.48L-383.38,-105.06L-489.48,-58.95L-482.71,-43.37L-438.37,-62.64L-387.80,53.72ZM-311.02,20.35L-294.41,13.13L-316.95,-38.73L-320.29,-65.98L-305.34,-82.53L-286.77,-82.11L-273.85,-64.58L-248.72,-6.73L-232.27,-13.87L-257.39,-71.89L-276.34,-98.36L-308.16,-98.20L-323.99,-86.52L-330.19,-69.14L-351.77,-118.80L-368.36,-111.59ZM-196.59,-50.93L-217.19,-72.04L-146.47,-102.79L-148.42,-109.79L-174.50,-139.95L-213.72,-139.77L-240.12,-112.07L-235.86,-69.04L-207.31,-36.56L-169.05,-36.97L-145.32,-56.84L-141.32,-81.94L-157.65,-84.37L-160.56,-63.73L-174.21,-51.40ZM-222.38,-85.49L-221.51,-111.80L-207.65,-125.77L-185.50,-125.94L-169.06,-108.66ZM37.51,-131.11L30.74,-146.69L-44.76,-113.88L-63.87,-157.86L0.63,-185.89L-6.14,-201.47L-70.64,-173.44L-88.55,-214.67L-14.89,-246.68L-21.66,-262.25L-112.73,-222.68L-55.40,-90.74ZM61.79,-141.67L78.29,-148.83L55.75,-200.69L52.26,-228.28L67.22,-244.85L85.78,-244.41L98.60,-227.16L124.00,-168.70L140.49,-175.87L115.09,-234.32L96.22,-260.67L64.40,-260.52L48.30,-248.85L41.20,-229.66L35.23,-243.40L20.38,-236.95ZM183.57,-351.44L167.08,-344.28L187.32,-297.72L172.88,-302.67L155.95,-299.85L131.24,-272.06L136.60,-230.33L163.44,-197.95L200.62,-197.05L214.86,-208.52L220.60,-226.15L226.25,-213.14L240.91,-219.51ZM162.99,-286.25L185.99,-285.02L205.96,-260.48L209.57,-228.83L195.48,-211.49L172.93,-212.91L153.43,-237.65L148.65,-268.79Z" fill="#ffffff" stroke="#000000"/>
    <path d="M-906.35,492L-906.35,469.28L-898.22,492L-894.99,492L-886.86,469.28L-886.86,492L-883.25,492L-883.25,464.64L-888.22,464.64L-896.55,487.33L-904.68,464.64L-909.96,464.64L-909.96,492ZM-865.67,478.75L-876.82,482.17L-879.09,486.89L-877.05,491.38L-872.23,492.78L-868.69,492.09L-865.45,489.71L-865.46,492L-862.27,492L-862.27,479.25L-864.06,473.45L-869.98,471.46L-875.30,472.76L-877.88,476.62L-875.17,478.28L-873.43,475.28L-870.33,474.25L-867.00,475.23ZM-865.67,481.77L-865.68,486.77L-868.09,488.89L-871.68,489.99L-874.26,489.33L-875.44,486.74L-873.91,484.05ZM-857.12,492L-853.70,492L-853.70,481.25L-852.22,476.17L-848.35,474.41L-845.15,475.90L-844.22,479.88L-844.22,492L-840.80,492L-840.80,479.88L-842.09,473.85L-847.66,471.47L-851.35,472.28L-854.04,475.09L-854.04,472.24L-857.12,472.24ZM-833.34,468.94L-832.11,467.58L-832.10,465.65L-833.36,464.27L-835.12,464.27L-836.35,465.65L-836.35,467.58L-835.10,468.94ZM-832.52,492L-832.52,472.24L-835.94,472.24L-835.94,492ZM-818.31,468.12L-817.85,465.29L-820.94,464.71L-825.30,466.41L-826.70,471.29L-826.70,472.24L-829.67,472.24L-829.67,474.86L-826.70,474.86L-826.70,492L-823.40,492L-823.40,474.86L-819.56,474.86L-819.56,472.24L-823.40,472.24L-823.40,471.21L-822.75,468.65L-820.52,467.74ZM-807.97,471.46L-814.77,474.29L-817.39,482.12L-814.77,489.95L-807.97,492.78L-801.17,489.95L-798.55,482.12L-801.16,474.29ZM-807.97,489.87L-812.08,488.06L-813.90,482.12L-812.08,476.18L-807.97,474.37L-803.85,476.18L-802.04,482.12L-803.85,488.06ZM-795.03,492L-791.61,492L-791.61,481.25L-790.13,476.17L-786.26,474.41L-783.06,475.90L-782.13,479.88L-782.13,492L-778.71,492L-778.71,479.88L-780.00,473.85L-785.56,471.47L-789.26,472.28L-791.95,475.09L-791.95,472.24L-795.03,472.24ZM-765.45,492.27L-765.45,492.26L-765.85,489.32L-767.38,489.55L-769.03,488.71L-769.32,486.22L-769.32,474.86L-765.94,474.86L-765.94,472.24L-769.32,472.24L-769.32,465.40L-772.74,465.40L-772.74,472.24L-775.55,472.24L-775.55,474.86L-772.74,474.86L-772.74,486.22L-771.96,491.00L-768.07,492.63ZM-737.50,487.93L-737.50,478.13L-749.05,478.13L-749.05,481.31L-740.99,481.31L-740.97,486.22L-748.63,489.75L-755.95,486.41L-758.55,478.32L-756.06,470.17L-749.21,466.88L-744.27,468.25L-741.30,473.01L-738.24,471.11L-741.44,465.93L-749.13,463.79L-758.98,468.04L-762.42,478.32L-758.78,488.60L-748.74,492.86ZM-724.35,474.77L-721.78,475.62L-720.76,472.73L-724.11,471.47L-727.37,472.48L-729.65,475.66L-729.65,472.24L-732.73,472.24L-732.73,491.81L-729.31,492L-729.31,481.32L-728.06,476.56ZM-710.01,471.46L-716.81,474.29L-719.42,482.12L-716.81,489.95L-710.01,492.78L-703.20,489.95L-700.58,482.12L-703.20,474.29ZM-710.01,489.87L-714.12,488.06L-715.93,482.12L-714.12,476.18L-710.01,474.37L-705.89,476.18L-704.07,482.12L-705.89,488.06ZM-688.58,492.27L-688.58,492.26L-688.97,489.32L-690.51,489.55L-692.15,488.71L-692.45,486.22L-692.45,474.86L-689.07,474.86L-689.07,472.24L-692.45,472.24L-692.45,465.40L-695.87,465.40L-695.87,472.24L-698.68,472.24L-698.68,474.86L-695.87,474.86L-695.87,486.22L-695.09,491.00L-691.19,492.63ZM-680.57,488.24L-682.57,483.00L-667.90,482.99L-667.71,481.63L-669.97,474.39L-676.83,471.45L-683.53,474.28L-686.05,482.11L-683.53,489.93L-676.83,492.76L-671.18,491.10L-668.58,487.02L-671.25,485.36L-673.32,488.74L-676.63,489.86ZM-682.45,480.26L-680.31,475.73L-676.83,474.35L-672.95,476.00L-671.40,480.26ZM-661.99,485.88L-664.90,487.24L-662.96,491.11L-657.11,492.78L-651.52,491.39L-648.97,486.66L-650.50,482.61L-653.83,480.90L-658.44,479.65L-661.00,478.62L-661.84,477.05L-660.74,475.10L-657.52,474.38L-654.42,475.23L-653.09,477.74L-650.21,476.38L-651.88,473.07L-657.39,471.46L-662.84,472.86L-665.18,477.43L-663.66,481.06L-660.23,482.69L-655.36,483.98L-653.07,485.13L-652.46,486.96L-653.99,489.26L-656.99,489.87L-660.63,488.67ZM-641.92,483.45L-638.72,483.45L-637.20,484.67L-633.14,492.30L-630.05,490.63L-634.16,483.45L-636.67,482.04L-634.62,480.06L-632.77,476.14L-631.66,475.64L-630.10,475.39L-630.56,472.24L-633.40,472.52L-635.30,474.17L-637.43,478.82L-638.72,480.60L-641.91,480.60L-641.91,464.64L-643.66,464.64L-645.32,464.64L-645.33,492L-641.92,492ZM-625.58,492.01L-615.04,492.01L-607.42,490.45L-604.53,484.21L-606.06,480.03L-610.31,477.70L-606.80,475.27L-605.82,471.62L-608.58,466.13L-615.58,464.63L-625.58,464.63ZM-621.94,476.42L-621.95,467.89L-616.40,467.89L-611.64,468.44L-609.62,472.08L-611.57,475.51L-615.93,476.42ZM-621.94,488.79L-621.94,479.64L-615.54,479.64L-610.64,480.53L-608.45,484.21L-610.32,488.02L-615.04,488.79ZM-592.40,471.46L-599.20,474.29L-601.81,482.12L-599.20,489.95L-592.40,492.78L-585.59,489.95L-582.97,482.12L-585.59,474.29ZM-592.40,489.87L-596.51,488.06L-598.32,482.12L-596.51,476.18L-592.40,474.37L-588.28,476.18L-586.46,482.12L-588.28,488.06ZM-571.27,471.46L-578.07,474.29L-580.68,482.12L-578.07,489.95L-571.27,492.78L-564.46,489.95L-561.85,482.12L-564.46,474.29ZM-571.27,489.87L-575.38,488.06L-577.19,482.12L-575.38,476.18L-571.27,474.37L-567.15,476.18L-565.33,482.12L-567.15,488.06ZM-554.82,483.45L-551.62,483.45L-550.10,484.67L-546.04,492.30L-542.96,490.63L-547.06,483.45L-549.57,482.04L-547.52,480.06L-545.67,476.14L-544.56,475.64L-543.00,475.39L-543.46,472.24L-546.31,472.52L-548.20,474.17L-550.34,478.82L-551.62,480.60L-554.82,480.60L-554.82,464.64L-556.56,464.64L-558.23,464.64L-558.23,492L-554.82,492Z"/>
</svg>