<?xml version="1.0"?>
<svg xmlns="http://www.w3.org/2000/svg" width="1920" height="1080" viewBox="-960 -540 1920 1080">
    <path d="M-684.54,-147L-641.91,-147L-723.39,-319.49L-791.98,-319.49L-873.46,-147L-831.06,-147L-807.30,-199.17L-708.29,-199.17ZM-763.35,-295.30L-752.03,-295.30L-719.39,-223.59L-796.20,-223.59ZM-442.11,-319.49L-523.36,-319.49L-523.36,-147L-437.67,-147C-378.62,-147 -351.98,-164.54 -351.98,-197.39C-351.98,-230.25 -384.84,-236.02 -387.95,-236.47C-385.06,-236.91 -356.42,-242.46 -356.42,-271.32C-356.42,-304.18 -383.06,-319.49 -442.11,-319.49ZM-439.89,-247.34L-483.85,-247.34L-483.85,-295.30L-439.89,-295.30C-414.59,-295.30 -397.49,-289.08 -397.49,-271.32C-397.49,-253.56 -414.59,-247.34 -439.89,-247.34ZM-483.85,-171.42L-483.85,-223.81L-433.46,-223.81C-409.26,-223.81 -393.05,-214.93 -393.05,-197.62C-393.05,-179.86 -410.15,-171.42 -435.45,-171.42ZM-288.49,-206.50L-180.60,-204.28C-177.27,-221.81 -181.04,-273.10 -250.53,-273.10C-296.48,-273.10 -325.34,-245.35 -325.34,-208.72C-325.34,-166.98 -290.27,-144.11 -250.53,-144.11C-186.59,-144.11 -177.27,-187.85 -177.27,-187.85L-212.79,-196.95C-212.79,-196.95 -213.01,-168.53 -246.75,-168.53C-276.72,-168.53 -288.27,-187.40 -288.49,-206.50ZM-218.56,-226.03L-286.27,-223.81C-286.27,-223.81 -281.83,-249.79 -251.19,-249.79C-221.67,-249.79 -218.56,-226.03 -218.56,-226.03ZM-80.70,-184.74C-37.41,-184.74 -11.43,-203.83 -11.43,-228.70C-11.43,-236.69 -14.10,-244.01 -19.20,-250.45C-23.64,-258.67 -23.87,-264.22 -11.21,-264.22C-8.55,-264.22 -0.78,-263.77 7.88,-262.44L-0.55,-289.75C-6.55,-290.19 -13.43,-290.63 -16.54,-290.63C-28.53,-290.63 -35.85,-284.20 -35.85,-273.10C-35.85,-269.54 -33.63,-265.33 -30.53,-260.66C-42.51,-268.43 -59.83,-273.10 -81.14,-273.10C-125.10,-273.10 -150.85,-253.78 -150.85,-228.70C-150.85,-212.05 -139.53,-198.28 -119.10,-190.73C-127.32,-189.62 -150.18,-185.63 -150.18,-170.31C-150.18,-152.11 -122.21,-148.33 -119.33,-148.11C-122.88,-147.67 -157.29,-144.11 -157.29,-122.36C-157.29,-109.93 -145.52,-94.39 -106.67,-94.39L-57.61,-94.39C-19.43,-94.39 4.11,-108.37 4.11,-131.46C4.11,-149.00 -5.88,-168.53 -46.51,-168.53L-92.02,-168.53C-106.89,-168.53 -114.44,-170.98 -114.44,-178.08C-114.44,-185.63 -106.89,-186.52 -102.23,-186.29C-95.79,-185.18 -88.47,-184.74 -80.70,-184.74ZM-113.78,-228.70C-113.78,-241.79 -105.34,-251.56 -81.14,-251.56C-56.94,-251.56 -48.95,-241.79 -48.95,-228.70C-48.95,-216.04 -56.94,-206.27 -81.14,-206.27C-105.34,-206.27 -113.78,-216.04 -113.78,-228.70ZM-53.84,-144.34C-39.18,-143.45 -34.52,-137.90 -34.52,-129.02C-34.52,-114.37 -51.17,-111.92 -77.81,-111.92C-108.67,-111.92 -118.66,-116.59 -118.66,-128.80C-118.66,-147 -98.01,-147 -97.13,-147ZM27.86,-291.30L64.49,-291.30L64.49,-319.49L27.86,-319.49ZM27.86,-147L64.49,-147L64.49,-270.21L27.86,-270.21ZM208.79,-147L245.42,-147L245.42,-222.48C245.42,-253.78 228.55,-273.10 187.70,-273.10C138.86,-273.10 136.20,-235.36 136.20,-235.36L125.76,-270.21L104.45,-270.21L104.45,-147L141.08,-147L141.08,-221.59C141.08,-221.59 148.63,-248.68 177.71,-248.68C197.47,-248.68 208.79,-240.68 208.79,-224.26ZM389.72,-147L426.35,-147L426.35,-222.48C426.35,-253.78 409.48,-273.10 368.63,-273.10C319.79,-273.10 317.13,-235.36 317.13,-235.36L306.69,-270.21L285.38,-270.21L285.38,-147L322.01,-147L322.01,-221.59C322.01,-221.59 329.56,-248.68 358.64,-248.68C378.40,-248.68 389.72,-240.68 389.72,-224.26ZM466.31,-291.30L502.94,-291.30L502.94,-319.49L466.31,-319.49ZM466.31,-147L502.94,-147L502.94,-270.21L466.31,-270.21ZM647.24,-147L683.87,-147L683.87,-222.48C683.87,-253.78 667.00,-273.10 626.15,-273.10C577.31,-273.10 574.65,-235.36 574.65,-235.36L564.21,-270.21L542.90,-270.21L542.90,-147L579.53,-147L579.53,-221.59C579.53,-221.59 587.08,-248.68 616.16,-248.68C635.92,-248.68 647.24,-240.68 647.24,-224.26ZM787.10,-184.74C830.39,-184.74 856.37,-203.83 856.37,-228.70C856.37,-236.69 853.70,-244.01 848.60,-250.45C844.15,-258.67 843.93,-264.22 856.59,-264.22C859.25,-264.22 867.02,-263.77 875.68,-262.44L867.24,-289.75C861.25,-290.19 854.37,-290.63 851.26,-290.63C839.27,-290.63 831.95,-284.20 831.95,-273.10C831.95,-269.54 834.16,-265.33 837.27,-260.66C825.28,-268.43 807.97,-273.10 786.66,-273.10C742.70,-273.10 716.95,-253.78 716.95,-228.70C716.95,-212.05 728.27,-198.28 748.70,-190.73C740.48,-189.62 717.62,-185.63 717.62,-170.31C717.62,-152.11 745.59,-148.33 748.47,-148.11C744.92,-147.67 710.51,-144.11 710.51,-122.36C710.51,-109.93 722.28,-94.39 761.13,-94.39L810.19,-94.39C848.37,-94.39 871.90,-108.37 871.90,-131.46C871.90,-149.00 861.91,-168.53 821.29,-168.53L775.78,-168.53C760.90,-168.53 753.36,-170.98 753.36,-178.08C753.36,-185.63 760.90,-186.52 765.57,-186.29C772.01,-185.18 779.33,-184.74 787.10,-184.74ZM754.02,-228.70C754.02,-241.79 762.46,-251.56 786.66,-251.56C810.86,-251.56 818.85,-241.79 818.85,-228.70C818.85,-216.04 810.86,-206.27 786.66,-206.27C762.46,-206.27 754.02,-216.04 754.02,-228.70ZM813.96,-144.34C828.62,-143.45 833.28,-137.90 833.28,-129.02C833.28,-114.37 816.63,-111.92 789.99,-111.92C759.13,-111.92 749.14,-116.59 749.14,-128.80C749.14,-147 769.78,-147 770.67,-147Z" fill="#ffffff" stroke="#000000"/>
    <path d="M-678.49,-165.31L-636.32,-163.90L-711.23,-337.26L-779.10,-339.53L-865.42,-171.55L-823.46,-170.15L-798.24,-220.98L-700.27,-217.71ZM-751.57,-314.64L-740.36,-314.27L-710.44,-242.24L-786.45,-244.78ZM-432.92,-327.97L-513.32,-330.65L-519.02,-159.98L-434.23,-157.15C-375.80,-155.19 -348.86,-171.67 -347.78,-204.18C-346.69,-236.69 -379.01,-243.48 -382.07,-244.02C-379.20,-244.37 -350.68,-248.91 -349.73,-277.47C-348.64,-309.98 -374.49,-326.02 -432.92,-327.97ZM-433.11,-256.50L-476.60,-257.96L-475.02,-305.40L-431.53,-303.95C-406.48,-303.11 -389.78,-296.40 -390.36,-278.83C-390.95,-261.25 -408.07,-255.67 -433.11,-256.50ZM-479.11,-182.84L-477.38,-234.67L-427.52,-233.01C-403.58,-232.21 -387.83,-222.89 -388.41,-205.75C-388.99,-188.18 -406.19,-180.40 -431.23,-181.24ZM-284.65,-211.08L-177.97,-205.32C-174.10,-222.56 -176.14,-273.43 -244.89,-275.73C-290.36,-277.24 -319.83,-250.74 -321.04,-214.50C-322.42,-173.20 -288.47,-149.42 -249.16,-148.10C-185.89,-145.99 -175.22,-188.96 -175.22,-188.96L-210.07,-199.14C-210.07,-199.14 -211.23,-171.03 -244.61,-172.14C-274.27,-173.13 -285.07,-192.19 -284.65,-211.08ZM-214.82,-228.10L-281.89,-228.14C-281.89,-228.14 -276.63,-253.70 -246.32,-252.68C-217.11,-251.71 -214.82,-228.10 -214.82,-228.10ZM-79.77,-182.69C-36.94,-181.26 -10.61,-199.29 -9.79,-223.89C-9.52,-231.80 -11.92,-239.14 -16.76,-245.67C-20.88,-253.95 -20.92,-259.45 -8.39,-259.03C-5.76,-258.94 1.91,-258.24 10.44,-256.64L2.99,-283.94C-2.92,-284.57 -9.72,-285.24 -12.79,-285.34C-24.65,-285.74 -32.12,-279.61 -32.48,-268.63C-32.60,-265.11 -30.54,-260.87 -27.62,-256.15C-39.23,-264.24 -56.21,-269.42 -77.29,-270.13C-120.79,-271.58 -146.90,-253.32 -147.73,-228.50C-148.28,-212.02 -137.54,-198.03 -117.58,-189.89C-125.74,-189.06 -148.50,-185.86 -149.00,-170.71C-149.61,-152.70 -122.05,-148.04 -119.21,-147.72C-122.74,-147.40 -156.90,-145.02 -157.62,-123.50C-158.03,-111.20 -146.90,-95.43 -108.46,-94.15L-59.92,-92.52C-22.14,-91.26 1.61,-104.32 2.37,-127.17C2.95,-144.52 -6.29,-164.18 -46.48,-165.52L-91.51,-167.03C-106.23,-167.52 -113.62,-170.18 -113.38,-177.21C-113.13,-184.68 -105.64,-185.31 -101.03,-184.94C-94.70,-183.63 -87.46,-182.94 -79.77,-182.69ZM-111.05,-227.27C-110.62,-240.23 -101.95,-249.62 -78.01,-248.82C-54.06,-248.02 -46.48,-238.09 -46.91,-225.13C-47.33,-212.61 -55.56,-203.21 -79.50,-204.01C-103.44,-204.81 -111.47,-214.75 -111.05,-227.27ZM-54.53,-141.82C-40.06,-140.46 -35.63,-134.81 -35.93,-126.03C-36.41,-111.53 -52.97,-109.66 -79.33,-110.55C-109.86,-111.57 -119.59,-116.51 -119.19,-128.59C-118.58,-146.60 -98.16,-145.92 -97.28,-145.89ZM31.16,-284.54L67.40,-283.32L68.34,-311.22L32.09,-312.43ZM26.39,-141.76L62.63,-140.55L66.71,-262.46L30.46,-263.67ZM205.41,-135.78L241.65,-134.57L244.15,-209.25C245.18,-240.22 229.13,-259.89 188.71,-261.24C140.39,-262.85 136.50,-225.60 136.50,-225.60L127.33,-260.43L106.24,-261.14L102.17,-139.23L138.42,-138.02L140.88,-211.82C140.88,-211.82 149.24,-238.37 178.02,-237.41C197.57,-236.75 208.51,-228.47 207.96,-212.22ZM384.43,-129.80L420.68,-128.59L423.17,-203.27C424.21,-234.24 408.15,-253.91 367.73,-255.26C319.41,-256.87 315.52,-219.62 315.52,-219.62L306.35,-254.45L285.27,-255.16L281.19,-133.25L317.44,-132.03L319.90,-205.84C319.90,-205.84 328.27,-232.39 357.04,-231.43C376.59,-230.77 387.53,-222.49 386.99,-206.24ZM464.98,-270.04L501.23,-268.83L502.16,-296.73L465.92,-297.94ZM460.21,-127.26L496.46,-126.05L500.53,-247.96L464.29,-249.17ZM639.23,-121.28L675.48,-120.07L677.97,-194.76C679.01,-225.73 662.95,-245.40 622.54,-246.75C574.21,-248.36 570.33,-211.11 570.33,-211.11L561.16,-245.94L540.07,-246.64L536.00,-124.73L572.24,-123.52L574.70,-197.33C574.70,-197.33 583.07,-223.88 611.84,-222.91C631.39,-222.26 642.33,-213.98 641.79,-197.72ZM778.87,-154.00C821.70,-152.57 848.03,-170.60 848.85,-195.21C849.12,-203.11 846.72,-210.45 841.88,-216.99C837.76,-225.26 837.73,-230.76 850.25,-230.34C852.88,-230.25 860.56,-229.56 869.08,-227.95L861.63,-255.25C855.72,-255.89 848.92,-256.56 845.85,-256.66C833.99,-257.05 826.52,-250.93 826.16,-239.94C826.04,-236.43 828.10,-232.18 831.02,-227.47C819.41,-235.55 802.43,-240.74 781.35,-241.44C737.86,-242.89 711.74,-224.63 710.91,-199.81C710.36,-183.34 721.10,-169.35 741.06,-161.20C732.90,-160.38 710.14,-157.18 709.64,-142.02C709.03,-124.01 736.59,-119.35 739.44,-119.04C735.91,-118.71 701.74,-116.34 701.02,-94.81C700.61,-82.51 711.74,-66.74 750.18,-65.46L798.72,-63.84C836.51,-62.58 860.25,-75.64 861.01,-98.48C861.59,-115.83 852.36,-135.49 812.16,-136.84L767.13,-138.34C752.41,-138.83 745.02,-141.50 745.26,-148.53C745.51,-156.00 753.01,-156.63 757.61,-156.25C763.94,-154.94 771.18,-154.26 778.87,-154.00ZM747.59,-198.59C748.02,-211.55 756.69,-220.93 780.64,-220.13C804.58,-219.33 812.16,-209.41 811.73,-196.45C811.31,-183.92 803.08,-174.52 779.14,-175.32C755.20,-176.12 747.17,-186.07 747.59,-198.59ZM804.11,-113.14C818.58,-111.77 823.01,-106.13 822.71,-97.34C822.23,-82.84 805.67,-80.98 779.31,-81.86C748.78,-82.88 739.05,-87.82 739.46,-99.90C740.06,-117.92 760.49,-117.23 761.36,-117.20Z" fill="#ffffff" stroke="#000000"/>
    <path d="M-671.86,-183.43L-630.18,-180.64L-698.57,-354.64L-765.64,-359.13L-856.59,-195.79L-815.13,-193.01L-788.49,-242.47L-691.68,-236.00ZM-739.22,-333.59L-728.15,-332.85L-700.93,-260.60L-776.04,-265.62ZM-423.53,-336.24L-502.98,-341.56L-514.27,-172.89L-430.47,-167.28C-372.73,-163.42 -345.54,-178.83 -343.39,-210.95C-341.24,-243.08 -372.99,-250.87 -376.00,-251.51C-373.15,-251.76 -344.78,-255.31 -342.89,-283.53C-340.74,-315.66 -365.79,-332.38 -423.53,-336.24ZM-426.08,-265.55L-469.06,-268.42L-465.93,-315.31L-422.95,-312.43C-398.20,-310.78 -381.89,-303.58 -383.05,-286.22C-384.21,-268.85 -401.34,-263.89 -426.08,-265.55ZM-474.03,-194.18L-470.60,-245.41L-421.33,-242.12C-397.66,-240.53 -382.40,-230.79 -383.53,-213.86C-384.69,-196.49 -401.96,-189.36 -426.71,-191.02ZM-280.71,-215.70L-175.36,-206.47C-170.95,-223.41 -171.29,-273.80 -239.23,-278.34C-284.17,-281.35 -314.20,-256.10 -316.60,-220.28C-319.33,-179.47 -286.53,-154.82 -247.67,-152.22C-185.15,-148.04 -173.17,-190.19 -173.17,-190.19L-207.31,-201.42C-207.31,-201.42 -209.39,-173.65 -242.38,-175.85C-271.69,-177.81 -281.74,-197.02 -280.71,-215.70ZM-211.05,-230.23L-277.41,-232.49C-277.41,-232.49 -271.37,-257.60 -241.41,-255.59C-212.54,-253.66 -211.05,-230.23 -211.05,-230.23ZM-78.95,-180.84C-36.62,-178.01 -9.97,-194.98 -8.35,-219.29C-7.82,-227.10 -9.95,-234.44 -14.52,-241.07C-18.33,-249.39 -18.18,-254.83 -5.81,-254.01C-3.20,-253.83 4.37,-252.89 12.75,-251.02L6.28,-278.27C0.45,-279.10 -6.25,-279.98 -9.29,-280.19C-21.01,-280.97 -28.60,-275.15 -29.32,-264.30C-29.55,-260.83 -27.66,-256.56 -24.92,-251.80C-36.14,-260.18 -52.77,-265.87 -73.60,-267.26C-116.59,-270.14 -143.03,-252.94 -144.67,-228.41C-145.76,-212.13 -135.59,-197.93 -116.11,-189.21C-124.22,-188.66 -146.84,-186.25 -147.84,-171.27C-149.03,-153.47 -121.92,-147.95 -119.12,-147.55C-122.62,-147.35 -156.50,-146.12 -157.92,-124.85C-158.73,-112.69 -148.25,-96.73 -110.26,-94.19L-62.28,-90.98C-24.95,-88.48 -1.02,-100.62 0.49,-123.19C1.64,-140.34 -6.86,-160.10 -46.58,-162.76L-91.08,-165.73C-105.62,-166.70 -112.85,-169.59 -112.38,-176.53C-111.89,-183.91 -104.45,-184.29 -99.90,-183.77C-93.68,-182.26 -86.55,-181.35 -78.95,-180.84ZM-108.42,-225.98C-107.56,-238.79 -98.67,-247.79 -75.01,-246.21C-51.35,-244.62 -44.18,-234.55 -45.03,-221.74C-45.86,-209.37 -54.31,-200.34 -77.98,-201.92C-101.64,-203.51 -109.25,-213.61 -108.42,-225.98ZM-55.33,-139.57C-41.06,-137.75 -36.86,-132.01 -37.44,-123.33C-38.40,-109.00 -54.84,-107.71 -80.89,-109.45C-111.06,-111.47 -120.53,-116.68 -119.73,-128.62C-118.54,-146.42 -98.35,-145.07 -97.48,-145.01ZM34.17,-277.93L69.99,-275.54L71.83,-303.11L36.01,-305.50ZM24.73,-136.83L60.55,-134.44L68.61,-254.92L32.79,-257.31ZM201.65,-125.00L237.46,-122.60L242.40,-196.41C244.45,-227.02 229.21,-247.01 189.27,-249.68C141.52,-252.87 136.44,-216.14 136.44,-216.14L128.52,-250.91L107.68,-252.30L99.62,-131.82L135.44,-129.43L140.32,-202.37C140.32,-202.37 149.47,-228.36 177.91,-226.45C197.23,-225.16 207.78,-216.61 206.70,-200.54ZM378.56,-113.17L414.38,-110.77L419.32,-184.58C421.37,-215.18 406.13,-235.17 366.19,-237.84C318.43,-241.04 313.36,-204.31 313.36,-204.31L305.44,-239.07L284.60,-240.47L276.54,-119.99L312.36,-117.60L317.23,-190.53C317.23,-190.53 326.39,-216.52 354.82,-214.62C374.14,-213.33 384.69,-204.77 383.62,-188.71ZM462.89,-249.26L498.71,-246.86L500.55,-274.43L464.74,-276.82ZM453.45,-108.16L489.27,-105.76L497.33,-226.24L461.51,-228.63ZM630.37,-96.32L666.19,-93.93L671.12,-167.73C673.17,-198.34 657.94,-218.33 618.00,-221.00C570.24,-224.20 565.17,-187.47 565.17,-187.47L557.24,-222.23L536.40,-223.62L528.35,-103.15L564.16,-100.75L569.04,-173.69C569.04,-173.69 578.19,-199.68 606.63,-197.78C625.95,-196.48 636.50,-187.93 635.42,-171.86ZM769.60,-124.08C811.93,-121.25 838.57,-138.22 840.20,-162.53C840.72,-170.34 838.60,-177.68 834.02,-184.31C830.22,-192.63 830.37,-198.07 842.74,-197.25C845.34,-197.07 852.91,-196.13 861.29,-194.26L854.83,-221.51C849.00,-222.34 842.30,-223.22 839.26,-223.43C827.53,-224.21 819.95,-218.39 819.22,-207.54C818.99,-204.07 820.89,-199.80 823.62,-195.04C812.41,-203.42 795.78,-209.11 774.94,-210.50C731.96,-213.38 705.52,-196.18 703.88,-171.65C702.79,-155.37 712.96,-141.17 732.43,-132.45C724.33,-131.90 701.71,-129.49 700.71,-114.51C699.52,-96.71 726.62,-91.19 729.43,-90.79C725.93,-90.59 692.05,-89.36 690.63,-68.09C689.81,-55.93 700.30,-39.97 738.29,-37.43L786.26,-34.22C823.60,-31.72 847.52,-43.86 849.03,-66.43C850.18,-83.58 841.69,-103.34 801.97,-106.00L757.47,-108.97C742.92,-109.94 735.70,-112.83 736.17,-119.77C736.66,-127.15 744.10,-127.53 748.64,-127.01C754.86,-125.50 762.00,-124.59 769.60,-124.08ZM740.13,-169.22C740.98,-182.03 749.87,-191.03 773.53,-189.45C797.19,-187.86 804.37,-177.79 803.51,-164.98C802.69,-152.61 794.23,-143.58 770.57,-145.16C746.91,-146.75 739.30,-156.85 740.13,-169.22ZM793.22,-82.81C807.49,-80.99 811.68,-75.25 811.10,-66.57C810.14,-52.24 793.70,-50.95 767.66,-52.69C737.48,-54.71 728.02,-59.92 728.82,-71.86C730.01,-89.66 750.20,-88.31 751.06,-88.25Z" fill="#ffffff" stroke="#000000"/>
    <path d="M-664.66,-201.35L-623.52,-197.21L-685.42,-371.60L-751.62,-378.25L-846.99,-219.68L-806.07,-215.56L-778.08,-263.61L-682.52,-254.00ZM-726.33,-352.12L-715.40,-351.02L-690.86,-278.65L-765.00,-286.10ZM-413.95,-344.31L-492.37,-352.19L-509.10,-185.71L-426.40,-177.40C-369.40,-171.67 -341.99,-186.01 -338.80,-217.72C-335.62,-249.43 -366.77,-258.19 -369.72,-258.92C-366.90,-259.07 -338.72,-261.65 -335.92,-289.50C-332.73,-321.21 -356.95,-338.58 -413.95,-344.31ZM-418.81,-274.46L-461.23,-278.72L-456.58,-325.00L-414.15,-320.74C-389.73,-318.28 -373.83,-310.63 -375.56,-293.48C-377.28,-276.34 -394.38,-272.00 -418.81,-274.46ZM-468.59,-205.45L-463.51,-256.01L-414.87,-251.12C-391.52,-248.77 -376.74,-238.63 -378.42,-221.92C-380.14,-204.78 -397.46,-198.30 -421.89,-200.75ZM-276.64,-220.35L-172.73,-207.74C-167.81,-224.34 -166.48,-274.20 -233.54,-280.94C-277.89,-285.40 -308.44,-261.42 -311.99,-226.06C-316.04,-185.78 -284.41,-160.31 -246.06,-156.46C-184.35,-150.25 -171.11,-191.56 -171.11,-191.56L-204.51,-203.79C-204.51,-203.79 -207.48,-176.38 -240.04,-179.66C-268.97,-182.57 -278.28,-201.90 -276.64,-220.35ZM-207.26,-232.42L-272.82,-236.84C-272.82,-236.84 -266.01,-261.48 -236.45,-258.51C-207.95,-255.64 -207.26,-232.42 -207.26,-232.42ZM-78.21,-179.19C-36.43,-174.99 -9.50,-190.89 -7.09,-214.89C-6.32,-222.61 -8.18,-229.93 -12.48,-236.64C-15.97,-245.00 -15.64,-250.38 -3.43,-249.15C-0.86,-248.89 6.60,-247.71 14.82,-245.59L9.33,-272.76C3.59,-273.77 -3.01,-274.86 -6.01,-275.17C-17.58,-276.33 -25.28,-270.83 -26.35,-260.11C-26.70,-256.69 -24.96,-252.40 -22.42,-247.60C-33.23,-256.26 -49.49,-262.44 -70.06,-264.51C-112.49,-268.77 -139.21,-252.63 -141.65,-228.42C-143.26,-212.35 -133.67,-197.97 -114.69,-188.70C-122.73,-188.43 -145.18,-186.79 -146.67,-172.00C-148.44,-154.43 -121.80,-148.08 -119.04,-147.58C-122.51,-147.50 -156.07,-147.41 -158.18,-126.41C-159.38,-114.41 -149.54,-98.27 -112.04,-94.50L-64.69,-89.74C-27.84,-86.04 -3.77,-97.26 -1.53,-119.54C0.17,-136.46 -7.57,-156.29 -46.78,-160.23L-90.71,-164.65C-105.06,-166.09 -112.11,-169.18 -111.42,-176.03C-110.69,-183.32 -103.32,-183.44 -98.84,-182.78C-92.73,-181.08 -85.71,-179.94 -78.21,-179.19ZM-105.87,-224.82C-104.60,-237.46 -95.51,-246.07 -72.15,-243.72C-48.80,-241.38 -42.03,-231.17 -43.30,-218.53C-44.53,-206.32 -53.19,-197.67 -76.55,-200.01C-99.90,-202.36 -107.09,-212.61 -105.87,-224.82ZM-56.20,-137.59C-42.15,-135.31 -38.18,-129.50 -39.05,-120.93C-40.47,-106.79 -56.77,-106.05 -82.49,-108.63C-112.27,-111.62 -121.46,-117.09 -120.27,-128.88C-118.51,-146.45 -98.58,-144.44 -97.72,-144.36ZM36.91,-271.50L72.26,-267.95L74.99,-295.16L39.64,-298.71ZM22.91,-132.23L58.26,-128.68L70.21,-247.59L34.86,-251.15ZM197.53,-114.68L232.88,-111.12L240.20,-183.97C243.24,-214.18 228.83,-234.46 189.41,-238.42C142.27,-243.16 136.04,-207.00 136.04,-207.00L129.35,-241.65L108.78,-243.72L96.83,-124.80L132.18,-121.25L139.42,-193.24C139.42,-193.24 149.33,-218.65 177.40,-215.82C196.47,-213.91 206.62,-205.10 205.02,-189.24ZM372.15,-97.12L407.50,-93.57L414.83,-166.42C417.86,-196.63 403.45,-216.91 364.03,-220.87C316.89,-225.61 310.66,-189.44 310.66,-189.44L303.97,-224.09L283.40,-226.16L271.45,-107.25L306.80,-103.69L314.04,-175.69C314.04,-175.69 323.95,-201.09 352.02,-198.27C371.09,-196.35 381.24,-187.54 379.65,-171.69ZM460.07,-228.96L495.42,-225.41L498.16,-252.62L462.80,-256.17ZM446.07,-89.69L481.42,-86.14L493.38,-205.05L458.02,-208.61ZM620.69,-72.14L656.04,-68.59L663.37,-141.44C666.40,-171.65 651.99,-191.92 612.57,-195.89C565.43,-200.62 559.20,-164.46 559.20,-164.46L552.51,-199.11L531.94,-201.18L519.99,-82.26L555.34,-78.71L562.58,-150.70C562.58,-150.70 572.49,-176.11 600.56,-173.29C619.63,-171.37 629.78,-162.56 628.19,-146.70ZM759.34,-95.00C801.12,-90.80 828.04,-106.70 830.45,-130.70C831.23,-138.41 829.37,-145.74 825.06,-152.45C821.57,-160.81 821.90,-166.19 834.11,-164.96C836.68,-164.70 844.14,-163.52 852.37,-161.39L846.87,-188.57C841.13,-189.58 834.53,-190.67 831.53,-190.97C819.96,-192.14 812.27,-186.63 811.19,-175.92C810.85,-172.49 812.58,-168.21 815.13,-163.41C804.31,-172.07 788.05,-178.25 767.48,-180.31C725.06,-184.58 698.33,-168.44 695.90,-144.23C694.28,-128.16 703.87,-113.77 722.85,-104.51C714.82,-104.23 692.36,-102.59 690.87,-87.81C689.11,-70.24 715.74,-63.88 718.50,-63.39C715.03,-63.31 681.48,-63.22 679.37,-42.22C678.16,-30.22 688.01,-14.08 725.50,-10.31L772.85,-5.55C809.71,-1.85 833.78,-13.06 836.02,-35.35C837.72,-52.27 829.97,-72.10 790.76,-76.04L746.84,-80.45C732.48,-81.90 725.43,-84.99 726.12,-91.84C726.86,-99.13 734.23,-99.25 738.70,-98.58C744.81,-96.89 751.84,-95.75 759.34,-95.00ZM731.68,-140.63C732.95,-153.27 742.04,-161.88 765.39,-159.53C788.75,-157.18 795.51,-146.98 794.24,-134.34C793.01,-122.13 784.35,-113.47 761.00,-115.82C737.64,-118.17 730.45,-128.42 731.68,-140.63ZM781.34,-53.39C795.40,-51.12 799.36,-45.31 798.50,-36.74C797.08,-22.60 780.77,-21.85 755.06,-24.44C725.28,-27.43 716.09,-32.90 717.27,-44.69C719.04,-62.25 738.96,-60.25 739.82,-60.17Z" fill="#ffffff" stroke="#000000"/>
    <path d="M-656.87,-219.04L-616.32,-213.59L-671.78,-388.12L-737.05,-396.89L-836.62,-243.19L-796.28,-237.77L-767.01,-284.37L-672.81,-271.71ZM-712.90,-370.21L-702.13,-368.76L-680.24,-296.37L-753.33,-306.19ZM-404.17,-352.16L-481.47,-362.55L-503.53,-198.43L-422.00,-187.47C-365.81,-179.92 -338.22,-193.20 -334.02,-224.46C-329.82,-255.73 -360.34,-265.42 -363.24,-266.24C-360.44,-266.29 -332.48,-267.91 -328.79,-295.37C-324.59,-326.63 -347.98,-344.61 -404.17,-352.16ZM-411.28,-283.23L-453.10,-288.85L-446.97,-334.47L-405.15,-328.85C-381.07,-325.62 -365.60,-317.52 -367.87,-300.62C-370.14,-283.72 -387.20,-279.99 -411.28,-283.23ZM-462.81,-216.61L-456.11,-266.46L-408.16,-260.02C-385.14,-256.92 -370.86,-246.40 -373.07,-229.93C-375.34,-213.03 -392.68,-207.19 -416.76,-210.42ZM-272.45,-225.01L-170.08,-209.10C-164.67,-225.36 -161.70,-274.64 -227.81,-283.52C-271.54,-289.40 -302.54,-266.68 -307.23,-231.83C-312.56,-192.12 -282.11,-165.88 -244.31,-160.80C-183.47,-152.63 -169.01,-193.04 -169.01,-193.04L-201.64,-206.25C-201.64,-206.25 -205.49,-179.24 -237.59,-183.55C-266.11,-187.38 -274.68,-206.81 -272.45,-225.01ZM-203.42,-234.65L-268.12,-241.20C-268.12,-241.20 -260.58,-265.34 -231.43,-261.43C-203.34,-257.65 -203.42,-234.65 -203.42,-234.65ZM-77.53,-177.74C-36.34,-172.20 -9.19,-187.05 -6.01,-210.71C-4.98,-218.31 -6.58,-225.62 -10.62,-232.40C-13.79,-240.78 -13.29,-246.09 -1.25,-244.47C1.28,-244.13 8.62,-242.72 16.68,-240.34L12.15,-267.40C6.50,-268.59 0.01,-269.89 -2.95,-270.29C-14.35,-271.82 -22.14,-266.63 -23.56,-256.07C-24.02,-252.69 -22.44,-248.40 -20.08,-243.56C-30.50,-252.49 -46.38,-259.14 -66.65,-261.86C-108.47,-267.48 -135.45,-252.40 -138.65,-228.53C-140.78,-212.69 -131.77,-198.15 -113.30,-188.35C-121.26,-188.35 -143.53,-187.47 -145.48,-172.89C-147.81,-155.57 -121.68,-148.41 -118.96,-147.83C-122.40,-147.86 -155.59,-148.88 -158.37,-128.18C-159.96,-116.35 -150.76,-100.06 -113.79,-95.09L-67.11,-88.82C-30.78,-83.94 -6.61,-94.24 -3.65,-116.20C-1.41,-132.89 -8.42,-152.75 -47.07,-157.95L-90.37,-163.77C-104.52,-165.67 -111.39,-168.96 -110.48,-175.72C-109.52,-182.90 -102.22,-182.78 -97.82,-181.97C-91.83,-180.09 -84.92,-178.73 -77.53,-177.74ZM-103.38,-223.79C-101.70,-236.25 -92.43,-244.47 -69.41,-241.37C-46.38,-238.28 -40.03,-227.96 -41.70,-215.50C-43.32,-203.46 -52.17,-195.19 -75.20,-198.28C-98.22,-201.38 -105.00,-211.75 -103.38,-223.79ZM-57.14,-135.86C-43.31,-133.14 -39.58,-127.27 -40.72,-118.82C-42.59,-104.88 -58.75,-104.68 -84.09,-108.09C-113.45,-112.04 -122.36,-117.75 -120.80,-129.37C-118.47,-146.69 -98.83,-144.05 -97.98,-143.93ZM39.38,-265.25L74.24,-260.56L77.84,-287.39L42.99,-292.07ZM20.93,-127.95L55.79,-123.27L71.54,-240.50L36.69,-245.18ZM193.08,-104.82L227.93,-100.13L237.58,-171.95C241.58,-201.73 228.00,-222.27 189.14,-227.49C142.67,-233.73 135.31,-198.17 135.31,-198.17L129.84,-232.66L109.56,-235.39L93.81,-118.16L128.66,-113.48L138.19,-184.45C138.19,-184.45 148.84,-209.25 176.51,-205.53C195.31,-203.01 205.06,-193.95 202.96,-178.32ZM365.23,-81.68L400.08,-77.00L409.73,-148.82C413.73,-178.60 400.15,-199.13 361.28,-204.36C314.81,-210.60 307.45,-175.03 307.45,-175.03L301.98,-209.53L281.70,-212.25L265.95,-95.03L300.80,-90.34L310.34,-161.31C310.34,-161.31 320.98,-186.12 348.65,-182.40C367.45,-179.87 377.20,-170.82 375.10,-155.19ZM456.55,-209.19L491.40,-204.50L495.00,-231.33L460.15,-236.01ZM438.10,-71.89L472.95,-67.21L488.70,-184.44L453.85,-189.12ZM610.24,-48.76L645.09,-44.08L654.74,-115.89C658.75,-145.67 645.16,-166.21 606.30,-171.43C559.83,-177.67 552.47,-142.11 552.47,-142.11L547.00,-176.60L526.72,-179.33L510.97,-62.10L545.82,-57.42L555.36,-128.39C555.36,-128.39 566.00,-153.19 593.67,-149.47C612.47,-146.95 622.22,-137.89 620.12,-122.26ZM748.14,-66.78C789.32,-61.25 816.48,-76.09 819.66,-99.75C820.68,-107.35 819.08,-114.66 815.05,-121.44C811.87,-129.83 812.37,-135.14 824.41,-133.52C826.95,-133.18 834.28,-131.76 842.35,-129.39L837.81,-156.45C832.17,-157.63 825.68,-158.94 822.72,-159.33C811.31,-160.87 803.52,-155.68 802.10,-145.12C801.65,-141.74 803.22,-137.44 805.58,-132.61C795.17,-141.53 779.29,-148.18 759.01,-150.91C717.19,-156.53 690.22,-141.44 687.01,-117.58C684.88,-101.73 693.89,-87.19 712.36,-77.40C704.40,-77.39 682.14,-76.51 680.18,-61.94C677.85,-44.62 703.98,-37.45 706.70,-36.87C703.26,-36.90 670.07,-37.92 667.29,-17.22C665.70,-5.40 674.91,10.89 711.87,15.86L758.55,22.13C794.88,27.02 819.06,16.72 822.01,-5.25C824.25,-21.93 817.25,-41.80 778.59,-46.99L735.29,-52.81C721.14,-54.71 714.27,-58.00 715.18,-64.76C716.14,-71.94 723.44,-71.82 727.85,-71.02C733.83,-69.14 740.74,-67.78 748.14,-66.78ZM722.28,-112.84C723.96,-125.30 733.23,-133.51 756.26,-130.42C779.28,-127.32 785.64,-117.01 783.96,-104.55C782.34,-92.51 773.49,-84.24 750.47,-87.33C727.44,-90.42 720.67,-100.80 722.28,-112.84ZM768.53,-24.91C782.36,-22.19 786.08,-16.31 784.95,-7.86C783.07,6.08 766.92,6.27 741.57,2.87C712.21,-1.08 703.30,-6.79 704.86,-18.41C707.19,-35.73 726.84,-33.09 727.68,-32.98Z" fill="#ffffff" stroke="#000000"/>
    <path d="M-648.53,-236.48L-608.60,-229.75L-657.69,-404.20L-721.95,-415.03L-825.51,-266.31L-785.79,-259.61L-755.30,-304.73L-662.54,-289.10ZM-698.94,-387.84L-688.33,-386.05L-669.08,-313.73L-741.04,-325.86ZM-394.19,-359.79L-470.31,-372.62L-497.54,-211.03L-417.27,-197.50C-361.95,-188.17 -334.22,-200.40 -329.04,-231.18C-323.85,-261.96 -353.72,-272.55 -356.56,-273.46C-353.78,-273.42 -326.08,-274.09 -321.52,-301.13C-316.34,-331.91 -338.87,-350.47 -394.19,-359.79ZM-403.50,-291.85L-444.68,-298.79L-437.11,-343.71L-395.93,-336.77C-372.22,-332.77 -357.19,-324.25 -360.00,-307.62C-362.80,-290.98 -379.80,-287.85 -403.50,-291.85ZM-456.67,-227.67L-448.40,-276.75L-401.19,-268.79C-378.52,-264.97 -364.74,-254.09 -367.47,-237.87C-370.28,-221.23 -387.62,-216.03 -411.33,-220.02ZM-268.12,-229.68L-167.40,-210.56C-161.51,-226.47 -156.95,-275.10 -222.04,-286.07C-265.09,-293.33 -296.51,-271.89 -302.29,-237.58C-308.88,-198.48 -279.63,-171.52 -242.41,-165.25C-182.51,-155.15 -166.87,-194.65 -166.87,-194.65L-198.71,-208.78C-198.71,-208.78 -203.41,-182.20 -235.02,-187.53C-263.09,-192.26 -270.93,-211.76 -268.12,-229.68ZM-199.53,-236.94L-263.31,-245.55C-263.31,-245.55 -255.05,-269.18 -226.35,-264.34C-198.69,-259.68 -199.53,-236.94 -199.53,-236.94ZM-76.90,-176.49C-36.35,-169.65 -9.00,-183.44 -5.07,-206.73C-3.81,-214.22 -5.15,-221.50 -8.92,-228.34C-11.78,-236.73 -11.11,-241.97 0.74,-239.97C3.24,-239.55 10.45,-237.91 18.35,-235.29L14.76,-262.20C9.21,-263.57 2.84,-265.07 -0.08,-265.56C-11.31,-267.45 -19.19,-262.58 -20.94,-252.18C-21.50,-248.85 -20.09,-244.55 -17.91,-239.69C-27.91,-248.86 -43.40,-255.96 -63.36,-259.33C-104.54,-266.27 -131.71,-252.24 -135.68,-228.74C-138.30,-213.14 -129.87,-198.46 -111.93,-188.17C-119.80,-188.42 -141.85,-188.29 -144.27,-173.94C-147.15,-156.89 -121.54,-148.94 -118.87,-148.27C-122.27,-148.42 -155.06,-150.52 -158.50,-130.14C-160.46,-118.50 -151.89,-102.08 -115.50,-95.95L-69.54,-88.20C-33.77,-82.17 -9.51,-91.56 -5.87,-113.19C-3.10,-129.62 -9.37,-149.49 -47.43,-155.91L-90.06,-163.09C-104.00,-165.44 -110.68,-168.92 -109.56,-175.58C-108.37,-182.65 -101.16,-182.29 -96.83,-181.34C-90.97,-179.29 -84.18,-177.72 -76.90,-176.49ZM-100.95,-222.89C-98.88,-235.16 -89.43,-242.98 -66.76,-239.16C-44.10,-235.34 -38.15,-224.92 -40.22,-212.65C-42.22,-200.80 -51.25,-192.91 -73.91,-196.73C-96.58,-200.55 -102.94,-211.03 -100.95,-222.89ZM-58.11,-134.40C-44.53,-131.25 -41.04,-125.32 -42.44,-117.00C-44.75,-103.27 -60.74,-103.61 -85.69,-107.82C-114.60,-112.69 -123.22,-118.64 -121.29,-130.07C-118.42,-147.13 -99.08,-143.87 -98.25,-143.73ZM41.62,-259.17L75.94,-253.39L80.39,-279.80L46.07,-285.58ZM18.84,-123.99L53.15,-118.21L72.61,-233.63L38.29,-239.42ZM188.33,-95.43L222.65,-89.64L234.56,-160.35C239.51,-189.67 226.75,-210.43 188.48,-216.88C142.73,-224.59 134.28,-189.66 134.28,-189.66L130.01,-223.96L110.04,-227.32L90.59,-111.90L124.90,-106.12L136.68,-175.99C136.68,-175.99 148.03,-200.17 175.27,-195.58C193.78,-192.46 203.12,-183.19 200.53,-167.80ZM357.82,-66.86L392.14,-61.07L404.06,-131.78C409.00,-161.11 396.24,-181.86 357.98,-188.31C312.22,-196.02 303.77,-161.09 303.77,-161.09L299.50,-195.39L279.53,-198.75L260.08,-83.33L294.39,-77.55L306.17,-147.43C306.17,-147.43 317.52,-171.61 344.76,-167.01C363.27,-163.89 372.62,-154.62 370.02,-139.23ZM452.36,-189.94L486.67,-184.16L491.12,-210.57L456.81,-216.36ZM429.57,-54.77L463.89,-48.98L483.34,-164.40L449.03,-170.19ZM599.07,-26.20L633.38,-20.41L645.30,-91.12C650.24,-120.45 637.48,-141.20 599.22,-147.65C553.47,-155.36 545.01,-120.43 545.01,-120.43L540.74,-154.73L520.77,-158.09L501.32,-42.67L535.64,-36.89L547.41,-106.77C547.41,-106.77 558.76,-130.95 586.00,-126.35C604.51,-123.23 613.86,-113.96 611.26,-98.57ZM736.04,-39.47C776.60,-32.63 803.94,-46.42 807.87,-69.71C809.13,-77.20 807.79,-84.48 804.03,-91.32C801.16,-99.71 801.83,-104.95 813.69,-102.95C816.18,-102.53 823.39,-100.89 831.29,-98.27L827.70,-125.18C822.15,-126.55 815.78,-128.05 812.87,-128.54C801.64,-130.43 793.76,-125.56 792.00,-115.16C791.44,-111.83 792.86,-107.53 795.03,-102.67C785.03,-111.84 769.54,-118.94 749.58,-122.31C708.40,-129.25 681.23,-115.22 677.27,-91.72C674.64,-76.13 683.07,-61.44 701.01,-51.15C693.14,-51.41 671.09,-51.27 668.67,-36.92C665.80,-19.87 691.40,-11.92 694.07,-11.25C690.68,-11.40 657.88,-13.50 654.44,6.88C652.48,18.52 661.05,34.94 697.44,41.07L743.41,48.82C779.18,54.85 803.43,45.46 807.07,23.83C809.84,7.40 803.57,-12.47 765.51,-18.89L722.88,-26.08C708.94,-28.42 702.26,-31.90 703.38,-38.56C704.57,-45.63 711.78,-45.27 716.12,-44.32C721.97,-42.27 728.76,-40.70 736.04,-39.47ZM712.00,-85.87C714.06,-98.14 723.51,-105.96 746.18,-102.14C768.85,-98.32 774.79,-87.90 772.72,-75.63C770.72,-63.78 761.70,-55.89 739.03,-59.71C716.36,-63.53 710.00,-74.02 712.00,-85.87ZM754.83,2.62C768.41,5.77 771.90,11.70 770.50,20.02C768.19,33.75 752.21,33.41 727.25,29.20C698.34,24.33 689.72,18.38 691.65,6.94C694.52,-10.11 713.86,-6.85 714.69,-6.71Z" fill="#ffffff" stroke="#000000"/>
    <path d="M-639.62,-253.64L-600.35,-245.67L-643.13,-419.81L-706.33,-432.64L-813.65,-288.99L-774.59,-281.05L-742.95,-324.67L-651.74,-306.14ZM-684.47,-405.00L-674.04,-402.88L-657.40,-330.72L-728.15,-345.09ZM-384.03,-367.19L-458.88,-382.39L-491.15,-223.49L-412.21,-207.46C-357.81,-196.41 -329.99,-207.58 -323.84,-237.85C-317.69,-268.11 -346.88,-279.58 -349.66,-280.57C-346.92,-280.44 -319.50,-280.19 -314.10,-306.78C-307.95,-337.04 -329.63,-356.14 -384.03,-367.19ZM-395.48,-300.31L-435.97,-308.53L-427.00,-352.70L-386.51,-344.48C-363.20,-339.74 -348.61,-330.82 -351.93,-314.46C-355.26,-298.10 -372.17,-295.57 -395.48,-300.31ZM-450.18,-238.59L-440.38,-286.85L-393.95,-277.42C-371.66,-272.90 -358.39,-261.69 -361.63,-245.73C-364.96,-229.37 -382.28,-224.80 -405.60,-229.54ZM-263.65,-234.35L-164.68,-212.12C-158.33,-227.65 -152.21,-275.60 -216.22,-288.60C-258.55,-297.20 -290.33,-277.03 -297.18,-243.29C-304.99,-204.84 -276.96,-177.22 -240.35,-169.78C-181.45,-157.82 -164.68,-196.36 -164.68,-196.36L-195.70,-211.39C-195.70,-211.39 -201.22,-185.26 -232.31,-191.57C-259.91,-197.18 -267.02,-216.72 -263.65,-234.35ZM-195.58,-239.26L-258.37,-249.89C-258.37,-249.89 -249.42,-272.98 -221.19,-267.25C-194.00,-261.73 -195.58,-239.26 -195.58,-239.26ZM-76.30,-175.43C-36.43,-167.33 -8.93,-180.06 -4.28,-202.97C-2.78,-210.33 -3.86,-217.58 -7.36,-224.46C-9.92,-232.86 -9.08,-238.01 2.58,-235.65C5.03,-235.15 12.10,-233.28 19.83,-230.44L17.17,-257.17C11.73,-258.70 5.47,-260.40 2.61,-260.98C-8.43,-263.22 -16.39,-258.66 -18.46,-248.44C-19.13,-245.16 -17.87,-240.86 -15.88,-235.99C-25.47,-245.39 -40.55,-252.92 -60.18,-256.91C-100.67,-265.13 -128.01,-252.16 -132.70,-229.05C-135.82,-213.71 -127.96,-198.91 -110.56,-188.14C-118.34,-188.65 -140.15,-189.25 -143.01,-175.14C-146.42,-158.37 -121.36,-149.66 -118.74,-148.92C-122.10,-149.17 -154.46,-152.34 -158.53,-132.30C-160.86,-120.84 -152.92,-104.33 -117.14,-97.06L-71.94,-87.88C-36.77,-80.74 -12.47,-89.22 -8.15,-110.49C-4.87,-126.64 -10.42,-146.51 -47.84,-154.11L-89.77,-162.62C-103.47,-165.41 -109.96,-169.07 -108.64,-175.61C-107.22,-182.56 -100.10,-181.97 -95.85,-180.89C-90.13,-178.67 -83.46,-176.89 -76.30,-175.43ZM-98.55,-222.11C-96.10,-234.18 -86.50,-241.60 -64.21,-237.07C-41.92,-232.54 -36.39,-222.05 -38.84,-209.99C-41.20,-198.33 -50.39,-190.83 -72.68,-195.35C-94.98,-199.88 -100.92,-210.46 -98.55,-222.11ZM-59.12,-133.19C-45.79,-129.63 -42.53,-123.64 -44.19,-115.46C-46.93,-101.97 -62.73,-102.83 -87.27,-107.82C-115.70,-113.59 -124.03,-119.75 -121.74,-131.00C-118.34,-147.77 -99.32,-143.91 -98.50,-143.74ZM43.64,-253.28L77.38,-246.43L82.65,-272.40L48.91,-279.26ZM16.64,-120.36L50.38,-113.50L73.43,-227.00L39.69,-233.86ZM183.31,-86.51L217.05,-79.65L231.17,-149.18C237.03,-178.02 225.10,-198.97 187.47,-206.61C142.48,-215.75 132.97,-181.48 132.97,-181.48L129.88,-215.54L110.24,-219.53L87.19,-106.03L120.93,-99.17L134.89,-167.89C134.89,-167.89 146.91,-191.42 173.70,-185.98C191.90,-182.29 200.84,-172.81 197.76,-157.67ZM349.98,-52.65L383.72,-45.80L397.85,-115.33C403.70,-144.17 391.77,-165.12 354.14,-172.76C309.15,-181.90 299.64,-147.63 299.64,-147.63L296.55,-181.69L276.91,-185.68L253.86,-72.18L287.61,-65.32L301.56,-134.04C301.56,-134.04 313.58,-157.57 340.37,-152.13C358.57,-148.44 367.51,-138.96 364.43,-123.82ZM447.53,-171.25L481.28,-164.40L486.55,-190.37L452.81,-197.23ZM420.53,-38.33L454.28,-31.47L477.33,-144.97L443.59,-151.83ZM587.21,-4.47L620.95,2.38L635.07,-67.15C640.93,-95.99 629.00,-116.94 591.37,-124.58C546.38,-133.72 536.86,-99.45 536.86,-99.45L533.77,-133.51L514.14,-137.50L491.09,-24.00L524.83,-17.14L538.79,-85.86C538.79,-85.86 550.81,-109.39 577.60,-103.95C595.80,-100.26 604.73,-90.78 601.66,-75.64ZM723.10,-13.07C762.98,-4.97 790.48,-17.70 795.13,-40.61C796.63,-47.97 795.55,-55.22 792.05,-62.10C789.49,-70.50 790.33,-75.65 801.98,-73.29C804.44,-72.79 811.51,-70.92 819.24,-68.08L816.58,-94.81C811.14,-96.34 804.88,-98.04 802.02,-98.62C790.98,-100.86 783.02,-96.30 780.95,-86.08C780.28,-82.80 781.54,-78.50 783.53,-73.63C773.94,-83.03 758.86,-90.56 739.23,-94.55C698.73,-102.77 671.40,-89.80 666.71,-66.69C663.59,-51.35 671.44,-36.55 688.85,-25.78C681.07,-26.29 659.26,-26.89 656.40,-12.78C652.99,3.99 678.05,12.70 680.67,13.44C677.31,13.19 644.95,10.02 640.88,30.06C638.55,41.52 646.48,58.03 682.27,65.30L727.47,74.48C762.64,81.62 786.94,73.14 791.26,51.87C794.54,35.72 788.99,15.85 751.57,8.25L709.64,-0.26C695.94,-3.05 689.44,-6.71 690.77,-13.25C692.19,-20.20 699.31,-19.61 703.56,-18.53C709.28,-16.31 715.95,-14.53 723.10,-13.07ZM700.86,-59.75C703.31,-71.82 712.91,-79.24 735.20,-74.71C757.49,-70.19 763.02,-59.69 760.57,-47.63C758.21,-35.97 749.02,-28.47 726.72,-32.99C704.43,-37.52 698.49,-48.10 700.86,-59.75ZM740.29,29.17C753.62,32.73 756.88,38.72 755.22,46.90C752.48,60.39 736.68,59.53 712.14,54.54C683.71,48.77 675.38,42.61 677.67,31.36C681.07,14.59 700.09,18.45 700.91,18.62Z" fill="#ffffff" stroke="#000000"/>
    <path d="M-630.16,-270.51L-591.59,-261.33L-628.14,-434.94L-690.20,-449.71L-801.08,-311.21L-762.71,-302.08L-729.98,-344.16L-640.41,-322.83ZM-669.51,-421.65L-659.27,-419.21L-645.19,-347.31L-714.68,-363.86ZM-373.67,-374.34L-447.18,-391.85L-484.34,-235.79L-406.82,-217.33C-353.39,-204.61 -325.51,-214.74 -318.44,-244.46C-311.36,-274.19 -339.84,-286.49 -342.55,-287.56C-339.85,-287.34 -312.74,-286.19 -306.53,-312.30C-299.45,-342.02 -320.25,-361.62 -373.67,-374.34ZM-387.21,-308.59L-426.98,-318.06L-416.65,-361.44L-376.88,-351.97C-353.98,-346.52 -339.86,-337.21 -343.68,-321.15C-347.51,-305.08 -364.31,-303.14 -387.21,-308.59ZM-443.33,-249.37L-432.05,-296.77L-386.45,-285.91C-364.56,-280.70 -351.81,-269.17 -355.54,-253.51C-359.37,-237.44 -376.65,-233.49 -399.55,-238.94ZM-259.03,-239.02L-161.90,-213.76C-155.11,-228.91 -147.48,-276.12 -210.34,-291.09C-251.92,-300.99 -284.00,-282.10 -291.90,-248.96C-300.89,-211.21 -274.08,-182.96 -238.13,-174.40C-180.28,-160.63 -162.43,-198.18 -162.43,-198.18L-192.60,-214.07C-192.60,-214.07 -198.92,-188.41 -229.45,-195.68C-256.57,-202.14 -262.95,-221.70 -259.03,-239.02ZM-191.56,-241.63L-253.29,-254.20C-253.29,-254.20 -243.68,-276.75 -215.97,-270.15C-189.25,-263.79 -191.56,-241.63 -191.56,-241.63ZM-75.73,-174.57C-36.57,-165.24 -8.95,-176.92 -3.60,-199.41C-1.88,-206.64 -2.71,-213.85 -5.94,-220.77C-8.19,-229.16 -7.19,-234.23 4.26,-231.50C6.67,-230.93 13.60,-228.85 21.15,-225.78L19.40,-252.30C14.07,-254.00 7.94,-255.88 5.13,-256.55C-5.72,-259.13 -13.73,-254.89 -16.12,-244.84C-16.89,-241.63 -15.79,-237.34 -13.98,-232.45C-23.15,-242.06 -37.82,-250.01 -57.10,-254.60C-96.86,-264.07 -124.32,-252.14 -129.73,-229.45C-133.31,-214.39 -126.04,-199.49 -109.18,-188.27C-116.85,-189.03 -138.40,-190.34 -141.70,-176.48C-145.62,-160.01 -121.13,-150.57 -118.57,-149.75C-121.88,-150.11 -153.77,-154.31 -158.46,-134.63C-161.14,-123.38 -153.84,-106.79 -118.69,-98.42L-74.31,-87.85C-39.76,-79.63 -15.46,-87.21 -10.49,-108.10C-6.71,-123.96 -11.54,-143.79 -48.29,-152.54L-89.46,-162.35C-102.92,-165.55 -109.22,-169.39 -107.69,-175.81C-106.07,-182.64 -99.05,-181.82 -94.88,-180.61C-89.29,-178.22 -82.76,-176.24 -75.73,-174.57ZM-96.19,-221.46C-93.36,-233.31 -83.63,-240.33 -61.74,-235.12C-39.84,-229.91 -34.72,-219.35 -37.54,-207.50C-40.27,-196.05 -49.60,-188.93 -71.49,-194.15C-93.38,-199.36 -98.91,-210.01 -96.19,-221.46ZM-60.13,-132.23C-47.07,-128.27 -44.05,-122.24 -45.96,-114.21C-49.11,-100.95 -64.70,-102.33 -88.81,-108.07C-116.72,-114.72 -124.76,-121.09 -122.13,-132.13C-118.20,-148.60 -99.53,-144.16 -98.72,-143.96ZM45.44,-247.59L78.58,-239.70L84.65,-265.20L51.51,-273.09ZM14.35,-117.04L47.49,-109.15L74.04,-220.62L40.90,-228.51ZM178.04,-78.06L211.18,-70.17L227.44,-138.46C234.18,-166.78 223.08,-187.88 186.13,-196.68C141.94,-207.21 131.40,-173.64 131.40,-173.64L129.47,-207.42L110.19,-212.01L83.64,-100.54L116.78,-92.65L132.85,-160.13C132.85,-160.13 145.52,-183.01 171.83,-176.74C189.70,-172.49 198.22,-162.82 194.68,-147.95ZM341.73,-39.08L374.87,-31.19L391.13,-99.48C397.87,-127.80 386.77,-148.91 349.81,-157.71C305.63,-168.23 295.09,-134.66 295.09,-134.66L293.16,-168.44L273.88,-173.03L247.33,-61.56L280.47,-53.67L296.54,-121.15C296.54,-121.15 309.20,-144.03 335.51,-137.77C353.39,-133.51 361.91,-123.84 358.37,-108.98ZM442.11,-153.13L475.25,-145.24L481.32,-170.75L448.18,-178.64ZM411.02,-22.58L444.16,-14.69L470.70,-126.16L437.56,-134.05ZM574.71,16.39L607.85,24.29L624.11,-44.00C630.85,-72.32 619.75,-93.43 582.79,-102.23C538.61,-112.75 528.07,-79.18 528.07,-79.18L526.14,-112.96L506.85,-117.55L480.31,-6.08L513.45,1.81L529.52,-65.68C529.52,-65.68 542.18,-88.55 568.49,-82.29C586.37,-78.03 594.89,-68.36 591.35,-53.50ZM709.37,12.38C748.54,21.71 776.15,10.03 781.50,-12.46C783.23,-19.69 782.39,-26.90 779.16,-33.82C776.91,-42.21 777.91,-47.28 789.36,-44.55C791.77,-43.98 798.70,-41.90 806.25,-38.83L804.50,-65.35C799.17,-67.05 793.04,-68.93 790.23,-69.60C779.38,-72.18 771.37,-67.94 768.98,-57.89C768.21,-54.68 769.31,-50.39 771.12,-45.50C761.95,-55.11 747.28,-63.06 728.00,-67.65C688.24,-77.12 660.78,-65.19 655.37,-42.50C651.79,-27.44 659.06,-12.54 675.92,-1.32C668.25,-2.08 646.70,-3.39 643.40,10.47C639.48,26.94 663.97,36.38 666.53,37.20C663.22,36.84 631.33,32.64 626.64,52.32C623.96,63.57 631.26,80.16 666.41,88.53L710.79,99.10C745.34,107.33 769.64,99.74 774.61,78.85C778.39,62.99 773.56,43.16 736.81,34.41L695.64,24.60C682.18,21.40 675.88,17.56 677.41,11.14C679.03,4.31 686.05,5.13 690.22,6.34C695.81,8.73 702.34,10.71 709.37,12.38ZM688.91,-34.51C691.74,-46.36 701.47,-53.38 723.36,-48.17C745.26,-42.96 750.38,-32.40 747.56,-20.55C744.83,-9.10 735.50,-1.98 713.61,-7.20C691.72,-12.41 686.19,-23.06 688.91,-34.51ZM724.97,54.72C738.03,58.68 741.06,64.71 739.14,72.74C735.99,86.00 720.40,84.62 696.29,78.88C668.38,72.23 660.34,65.86 662.97,54.82C666.90,38.35 685.57,42.79 686.38,42.99Z" fill="#ffffff" stroke="#000000"/>
    <path d="M-620.15,-287.06L-582.33,-276.71L-612.73,-449.56L-673.60,-466.22L-787.79,-332.95L-750.17,-322.65L-716.42,-363.17L-628.56,-339.13ZM-654.07,-437.80L-644.02,-435.05L-632.48,-363.49L-700.64,-382.15ZM-363.14,-381.25L-435.24,-400.98L-477.13,-247.92L-401.09,-227.10C-348.69,-212.76 -320.79,-221.85 -312.81,-251.01C-304.83,-280.17 -332.59,-293.27 -335.24,-294.42C-332.57,-294.11 -305.81,-292.08 -298.80,-317.69C-290.82,-346.84 -310.74,-366.91 -363.14,-381.25ZM-378.69,-316.69L-417.70,-327.36L-406.05,-369.91L-367.05,-359.24C-344.59,-353.09 -330.93,-343.42 -335.24,-327.66C-339.56,-311.90 -356.23,-310.54 -378.69,-316.69ZM-436.14,-259.99L-423.41,-306.48L-378.69,-294.24C-357.22,-288.36 -345.00,-276.55 -349.20,-261.18C-353.52,-245.42 -370.74,-242.09 -393.19,-248.24ZM-254.26,-243.67L-159.06,-215.49C-151.85,-230.24 -142.74,-276.67 -204.40,-293.54C-245.18,-304.71 -277.53,-287.09 -286.42,-254.59C-296.56,-217.55 -270.99,-188.74 -235.73,-179.09C-178.99,-163.56 -160.10,-200.10 -160.10,-200.10L-189.41,-216.81C-189.41,-216.81 -196.51,-191.65 -226.45,-199.84C-253.04,-207.12 -258.70,-226.67 -254.26,-243.67ZM-187.46,-244.02L-248.09,-258.49C-248.09,-258.49 -237.84,-280.46 -210.65,-273.02C-184.45,-265.85 -187.46,-244.02 -187.46,-244.02ZM-75.16,-173.89C-36.75,-163.38 -9.06,-174.01 -3.02,-196.07C-1.08,-203.17 -1.67,-210.31 -4.63,-217.27C-6.58,-225.63 -5.43,-230.61 5.80,-227.54C8.17,-226.89 14.95,-224.61 22.31,-221.33L21.46,-247.61C16.25,-249.46 10.25,-251.52 7.49,-252.28C-3.15,-255.19 -11.21,-251.25 -13.91,-241.40C-14.77,-238.25 -13.83,-233.97 -12.20,-229.08C-20.95,-238.88 -35.18,-247.23 -54.09,-252.40C-93.10,-263.08 -120.64,-252.20 -126.73,-229.94C-130.78,-215.16 -124.07,-200.20 -107.78,-188.54C-115.34,-189.55 -136.60,-191.56 -140.32,-177.96C-144.75,-161.81 -120.84,-151.67 -118.33,-150.77C-121.59,-151.24 -152.99,-156.44 -158.27,-137.14C-161.29,-126.11 -154.63,-109.46 -120.15,-100.02L-76.62,-88.11C-42.74,-78.83 -18.46,-85.53 -12.85,-106.02C-8.59,-121.58 -12.71,-141.34 -48.76,-151.21L-89.14,-162.26C-102.34,-165.87 -108.45,-169.87 -106.72,-176.18C-104.89,-182.88 -97.97,-181.83 -93.89,-180.50C-88.45,-177.95 -82.06,-175.78 -75.16,-173.89ZM-93.84,-220.93C-90.66,-232.55 -80.80,-239.17 -59.32,-233.30C-37.85,-227.42 -33.13,-216.81 -36.31,-205.19C-39.39,-193.96 -48.85,-187.23 -70.32,-193.11C-91.80,-198.99 -96.91,-209.70 -93.84,-220.93ZM-61.14,-131.52C-48.35,-127.17 -45.56,-121.11 -47.72,-113.23C-51.28,-100.23 -66.65,-102.11 -90.28,-108.58C-117.67,-116.07 -125.40,-122.64 -122.43,-133.47C-118.01,-149.62 -99.69,-144.61 -98.90,-144.39ZM47.05,-242.08L79.55,-233.19L86.40,-258.20L53.90,-267.10ZM12.00,-114.04L44.51,-105.14L74.43,-214.47L41.93,-223.37ZM172.55,-70.09L205.06,-61.20L223.39,-128.17C230.99,-155.95 220.71,-177.19 184.47,-187.11C141.13,-198.97 129.60,-166.13 129.60,-166.13L128.80,-199.59L109.89,-204.77L79.97,-95.43L112.47,-86.54L130.59,-152.73C130.59,-152.73 143.86,-174.93 169.67,-167.86C187.20,-163.07 195.31,-153.22 191.32,-138.65ZM333.10,-26.15L365.61,-17.25L383.94,-84.23C391.54,-112.01 381.26,-133.24 345.02,-143.16C301.68,-155.03 290.15,-122.18 290.15,-122.18L289.35,-155.65L270.44,-160.82L240.52,-51.49L273.02,-42.59L291.14,-108.78C291.14,-108.78 304.41,-130.98 330.22,-123.92C347.75,-119.12 355.86,-109.28 351.87,-94.70ZM436.11,-135.59L468.62,-126.70L475.47,-151.71L442.96,-160.61ZM401.07,-7.55L433.57,1.35L463.50,-107.98L430.99,-116.88ZM561.62,36.40L594.12,45.29L612.45,-21.68C620.06,-49.46 609.78,-70.70 573.53,-80.62C530.19,-92.48 518.66,-59.64 518.66,-59.64L517.87,-93.10L498.96,-98.28L469.03,11.06L501.53,19.95L519.65,-46.24C519.65,-46.24 532.93,-68.44 558.73,-61.37C576.27,-56.58 584.37,-46.73 580.38,-32.16ZM694.89,36.88C733.30,47.39 760.99,36.76 767.03,14.70C768.97,7.60 768.38,0.46 765.42,-6.50C763.47,-14.86 764.62,-19.84 775.85,-16.77C778.22,-16.12 785.00,-13.84 792.36,-10.56L791.51,-36.84C786.30,-38.69 780.30,-40.75 777.54,-41.51C766.90,-44.42 758.84,-40.48 756.14,-30.63C755.28,-27.48 756.23,-23.20 757.85,-18.31C749.10,-28.12 734.87,-36.46 715.96,-41.63C676.95,-52.31 649.41,-41.43 643.32,-19.17C639.27,-4.39 645.98,10.57 662.27,22.23C654.71,21.22 633.45,19.21 629.73,32.81C625.30,48.96 649.21,59.10 651.72,60.00C648.46,59.53 617.06,54.33 611.78,73.63C608.76,84.66 615.42,101.31 649.90,110.75L693.43,122.66C727.32,131.94 751.59,125.24 757.20,104.75C761.46,89.19 757.34,69.43 721.29,59.56L680.91,48.51C667.71,44.90 661.60,40.90 663.33,34.59C665.16,27.89 672.08,28.94 676.16,30.27C681.60,32.82 688.00,34.99 694.89,36.88ZM676.21,-10.16C679.39,-21.78 689.25,-28.40 710.73,-22.53C732.20,-16.65 736.92,-6.04 733.74,5.58C730.66,16.81 721.20,23.54 699.73,17.66C678.25,11.78 673.14,1.07 676.21,-10.16ZM708.91,79.25C721.70,83.60 724.49,89.66 722.33,97.54C718.77,110.54 703.40,108.66 679.77,102.19C652.38,94.70 644.65,88.13 647.62,77.30C652.04,61.15 670.36,66.16 671.15,66.38Z" fill="#ffffff" stroke="#000000"/>
    <path d="M-609.61,-303.27L-572.56,-291.79L-596.91,-463.67L-656.53,-482.15L-773.82,-354.17L-736.97,-342.75L-702.26,-381.70L-616.20,-355.02ZM-638.16,-453.41L-628.32,-450.36L-619.27,-379.24L-686.04,-399.93ZM-352.42,-387.90L-423.05,-409.79L-469.52,-259.85L-395.04,-236.77C-343.71,-220.86 -315.83,-228.92 -306.97,-257.48C-298.12,-286.04 -325.13,-299.91 -327.71,-301.13C-325.08,-300.74 -298.69,-297.85 -290.92,-322.94C-282.07,-351.49 -301.09,-371.99 -352.42,-387.90ZM-369.93,-324.58L-408.14,-336.43L-395.22,-378.11L-357.01,-366.26C-335.01,-359.45 -321.83,-349.44 -326.62,-334.00C-331.40,-318.56 -347.93,-317.77 -369.93,-324.58ZM-428.59,-270.43L-414.48,-315.97L-370.68,-302.40C-349.64,-295.88 -337.95,-283.79 -342.61,-268.74C-347.40,-253.30 -364.53,-250.58 -386.53,-257.39ZM-249.34,-248.29L-156.15,-217.29C-148.53,-231.64 -138.00,-277.23 -198.40,-295.95C-238.34,-308.33 -270.90,-291.99 -280.77,-260.15C-292.01,-223.87 -267.69,-194.54 -233.14,-183.84C-177.57,-166.61 -157.68,-202.12 -157.68,-202.12L-186.11,-219.60C-186.11,-219.60 -193.95,-194.96 -223.29,-204.05C-249.34,-212.12 -254.29,-231.63 -249.34,-248.29ZM-183.29,-246.43L-242.74,-262.74C-242.74,-262.74 -231.88,-284.12 -205.25,-275.87C-179.59,-267.91 -183.29,-246.43 -183.29,-246.43ZM-74.58,-173.40C-36.95,-161.73 -9.23,-171.33 -2.54,-192.94C-0.38,-199.89 -0.72,-206.98 -3.43,-213.95C-5.07,-222.28 -3.77,-227.17 7.23,-223.76C9.54,-223.04 16.18,-220.56 23.34,-217.07L23.37,-243.08C18.28,-245.08 12.41,-247.32 9.71,-248.16C-0.71,-251.39 -8.81,-247.76 -11.80,-238.12C-12.76,-235.03 -11.96,-230.76 -10.52,-225.87C-18.84,-235.86 -32.64,-244.57 -51.16,-250.32C-89.37,-262.16 -116.96,-252.31 -123.72,-230.50C-128.20,-216.03 -122.07,-201.02 -106.35,-188.95C-113.79,-190.20 -134.74,-192.89 -138.87,-179.57C-143.77,-163.75 -120.48,-152.94 -118.03,-151.97C-121.23,-152.54 -152.10,-158.72 -157.96,-139.81C-161.31,-129.00 -155.27,-112.33 -121.50,-101.86L-78.86,-88.64C-45.67,-78.35 -21.44,-84.17 -15.22,-104.24C-10.50,-119.48 -13.92,-139.16 -49.23,-150.10L-88.79,-162.36C-101.72,-166.37 -107.62,-170.52 -105.71,-176.70C-103.67,-183.26 -96.87,-182.00 -92.88,-180.55C-87.58,-177.85 -81.34,-175.49 -74.58,-173.40ZM-91.49,-220.52C-87.96,-231.90 -78.00,-238.12 -56.97,-231.60C-35.93,-225.08 -31.62,-214.44 -35.15,-203.05C-38.56,-192.05 -48.13,-185.72 -69.17,-192.23C-90.20,-198.75 -94.90,-209.52 -91.49,-220.52ZM-62.12,-131.04C-49.62,-126.32 -47.07,-120.24 -49.46,-112.52C-53.41,-99.79 -68.54,-102.15 -91.69,-109.33C-118.51,-117.64 -125.94,-124.38 -122.65,-135.00C-117.75,-150.82 -99.80,-145.26 -99.03,-145.02ZM48.49,-236.77L80.32,-226.90L87.92,-251.41L56.08,-261.28ZM9.61,-111.35L41.45,-101.48L74.64,-208.57L42.80,-218.44ZM166.87,-62.60L198.71,-52.73L219.05,-118.34C227.48,-145.55 218.02,-166.88 182.51,-177.89C140.06,-191.05 127.58,-158.96 127.58,-158.96L127.90,-192.07L109.38,-197.81L76.18,-90.71L108.02,-80.84L128.12,-145.68C128.12,-145.68 141.97,-167.19 167.25,-159.35C184.43,-154.03 192.11,-144.03 187.69,-129.75ZM324.14,-13.86L355.98,-3.99L376.31,-69.60C384.75,-96.80 375.29,-118.14 339.78,-129.14C297.33,-142.30 284.84,-110.21 284.84,-110.21L285.17,-143.32L266.64,-149.06L233.45,-41.97L265.29,-32.10L285.38,-96.94C285.38,-96.94 299.24,-118.44 324.52,-110.61C341.69,-105.29 349.38,-95.29 344.95,-81.01ZM429.59,-118.65L461.43,-108.78L469.02,-133.29L437.18,-143.16ZM390.71,6.78L422.55,16.65L455.75,-90.45L423.91,-100.32ZM547.98,55.52L579.82,65.39L600.15,-0.22C608.58,-27.43 599.12,-48.76 563.62,-59.76C521.17,-72.92 508.68,-40.84 508.68,-40.84L509.00,-73.94L490.48,-79.68L457.28,27.41L489.12,37.28L509.22,-27.56C509.22,-27.56 523.08,-49.06 548.36,-41.23C565.53,-35.91 573.22,-25.91 568.79,-11.63ZM679.71,60.40C717.34,72.06 745.06,62.46 751.76,40.85C753.91,33.90 753.57,26.82 750.87,19.85C749.22,11.51 750.52,6.63 761.52,10.04C763.84,10.75 770.47,13.23 777.64,16.72L777.66,-9.28C772.57,-11.28 766.71,-13.52 764.01,-14.36C753.59,-17.59 745.49,-13.97 742.49,-4.32C741.54,-1.23 742.33,3.03 743.78,7.92C735.45,-2.06 721.65,-10.78 703.13,-16.52C664.92,-28.36 637.34,-18.51 630.58,3.29C626.09,17.76 632.23,32.78 647.94,44.84C640.51,43.59 619.55,40.90 615.43,54.22C610.52,70.04 633.82,80.86 636.27,81.83C633.06,81.26 602.19,75.08 596.33,93.99C592.98,104.79 599.02,121.47 632.79,131.94L675.44,145.15C708.63,155.44 732.85,149.62 739.07,129.56C743.79,114.31 740.37,94.64 705.06,83.69L665.50,71.43C652.58,67.43 646.67,63.27 648.59,57.09C650.62,50.53 657.42,51.80 661.41,53.24C666.71,55.94 672.96,58.30 679.71,60.40ZM662.80,13.28C666.33,1.89 676.30,-4.32 697.33,2.20C718.36,8.71 722.68,19.36 719.15,30.74C715.74,41.74 706.16,48.08 685.13,41.56C664.09,35.04 659.39,24.28 662.80,13.28ZM692.18,102.75C704.67,107.47 707.23,113.55 704.84,121.27C700.89,134.01 685.76,131.64 662.60,124.47C635.78,116.15 628.35,109.41 631.64,98.80C636.55,82.97 654.49,88.54 655.27,88.77Z" fill="#ffffff" stroke="#000000"/>
    <path d="M-598.55,-319.12L-562.31,-306.55L-580.69,-477.25L-639.02,-497.49L-759.18,-374.86L-723.13,-362.35L-687.54,-399.70L-603.35,-370.49ZM-621.81,-468.47L-612.18,-465.13L-605.59,-394.53L-670.90,-417.19ZM-341.53,-394.28L-410.62,-418.25L-461.51,-271.58L-388.64,-246.30C-338.43,-228.88 -310.61,-235.93 -300.92,-263.87C-291.22,-291.80 -317.46,-306.41 -319.97,-307.70C-317.38,-307.23 -291.40,-303.50 -282.88,-328.04C-273.19,-355.97 -291.32,-376.86 -341.53,-394.28ZM-360.93,-332.27L-398.31,-345.24L-384.16,-386.01L-346.78,-373.05C-325.27,-365.58 -312.56,-355.25 -317.80,-340.15C-323.04,-325.05 -339.41,-324.81 -360.93,-332.27ZM-420.70,-280.68L-405.25,-325.23L-362.40,-310.37C-341.82,-303.23 -330.66,-290.90 -335.77,-276.17C-341.01,-261.07 -358.03,-258.94 -379.55,-266.41ZM-244.25,-252.88L-153.16,-219.16C-145.16,-233.09 -133.24,-277.81 -192.32,-298.31C-231.39,-311.86 -264.12,-296.78 -274.92,-265.64C-287.24,-230.15 -264.16,-200.36 -230.37,-188.64C-176.01,-169.77 -155.18,-204.21 -155.18,-204.21L-182.69,-222.43C-182.69,-222.43 -191.27,-198.33 -219.96,-208.29C-245.44,-217.13 -249.69,-236.58 -244.25,-252.88ZM-179.02,-248.86L-237.25,-266.95C-237.25,-266.95 -225.81,-287.72 -199.76,-278.68C-174.66,-269.97 -179.02,-248.86 -179.02,-248.86ZM-73.98,-173.08C-37.17,-160.31 -9.46,-168.88 -2.12,-190.02C0.24,-196.82 0.13,-203.83 -2.31,-210.81C-3.66,-219.10 -2.21,-223.89 8.55,-220.16C10.81,-219.37 17.29,-216.70 24.26,-213.01L25.14,-238.72C20.17,-240.87 14.45,-243.27 11.81,-244.19C1.62,-247.73 -6.51,-244.41 -9.79,-234.98C-10.83,-231.96 -10.19,-227.71 -8.92,-222.83C-16.83,-232.98 -30.17,-242.05 -48.29,-248.34C-85.67,-261.30 -113.26,-252.48 -120.66,-231.15C-125.58,-216.99 -120.01,-201.95 -104.87,-189.50C-112.18,-190.98 -132.80,-194.33 -137.32,-181.31C-142.69,-165.83 -120.02,-154.37 -117.63,-153.33C-120.78,-154.00 -151.09,-161.13 -157.51,-142.63C-161.18,-132.06 -155.76,-115.38 -122.72,-103.91L-81.01,-89.44C-48.54,-78.18 -24.40,-83.13 -17.59,-102.76C-12.42,-117.67 -15.15,-137.23 -49.69,-149.21L-88.39,-162.64C-101.04,-167.03 -106.73,-171.33 -104.64,-177.37C-102.41,-183.79 -95.73,-182.32 -91.83,-180.75C-86.69,-177.91 -80.59,-175.37 -73.98,-173.08ZM-89.14,-220.21C-85.28,-231.35 -75.22,-237.17 -54.65,-230.03C-34.07,-222.89 -30.16,-212.22 -34.02,-201.09C-37.76,-190.33 -47.43,-184.38 -68.01,-191.52C-88.58,-198.66 -92.87,-209.45 -89.14,-220.21ZM-63.06,-130.80C-50.87,-125.72 -48.54,-119.63 -51.16,-112.08C-55.48,-99.62 -70.36,-102.45 -93.01,-110.31C-119.25,-119.42 -126.37,-126.33 -122.76,-136.71C-117.39,-152.19 -99.84,-146.10 -99.08,-145.84ZM49.76,-231.66L80.90,-220.85L89.22,-244.83L58.08,-255.63ZM7.19,-108.96L38.33,-98.16L74.68,-202.92L43.54,-213.73ZM161.03,-55.59L192.17,-44.78L214.44,-108.96C223.68,-135.58 215.03,-156.98 180.30,-169.03C138.77,-183.43 125.37,-152.13 125.37,-152.13L126.78,-184.84L108.66,-191.13L72.31,-86.37L103.46,-75.56L125.46,-138.99C125.46,-138.99 139.87,-159.79 164.60,-151.21C181.40,-145.38 188.67,-135.25 183.82,-121.28ZM314.87,-2.21L346.02,8.59L368.28,-55.59C377.52,-82.20 368.87,-103.60 334.14,-115.65C292.61,-130.06 279.21,-98.76 279.21,-98.76L280.62,-131.47L262.50,-137.76L226.15,-32.99L257.30,-22.19L279.30,-85.61C279.30,-85.61 293.71,-106.41 318.44,-97.83C335.24,-92.01 342.51,-81.87 337.66,-67.90ZM422.56,-102.31L453.71,-91.51L462.03,-115.48L430.88,-126.29ZM379.99,20.38L411.14,31.19L447.49,-73.58L416.34,-84.38ZM533.83,73.76L564.98,84.56L587.25,20.38C596.48,-6.23 587.83,-27.63 553.10,-39.68C511.57,-54.09 498.17,-22.79 498.17,-22.79L499.58,-55.50L481.46,-61.79L445.12,42.98L476.26,53.78L498.27,-9.64C498.27,-9.64 512.67,-30.44 537.40,-21.86C554.20,-16.04 561.47,-5.90 556.62,8.07ZM663.89,82.93C700.70,95.70 728.41,87.13 735.75,65.99C738.11,59.19 738.00,52.17 735.56,45.19C734.21,36.90 735.66,32.12 746.41,35.85C748.68,36.63 755.16,39.30 762.12,42.99L763.01,17.28C758.04,15.14 752.32,12.73 749.68,11.81C739.49,8.28 731.36,11.59 728.08,21.03C727.03,24.05 727.68,28.29 728.94,33.17C721.04,23.03 707.70,13.96 689.57,7.67C652.20,-5.30 624.61,3.53 617.21,24.86C612.29,39.01 617.86,54.06 633.00,66.50C625.69,65.02 605.07,61.67 600.55,74.70C595.18,90.18 617.85,101.64 620.24,102.68C617.09,102.01 586.78,94.88 580.36,113.37C576.69,123.94 582.11,140.63 615.15,152.09L656.86,166.56C689.33,177.83 713.46,172.88 720.28,153.25C725.45,138.33 722.72,118.78 688.18,106.79L649.48,93.37C636.83,88.98 631.13,84.68 633.23,78.63C635.46,72.22 642.14,73.69 646.04,75.25C651.18,78.10 657.28,80.63 663.89,82.93ZM648.73,35.79C652.59,24.66 662.65,18.84 683.22,25.98C703.80,33.12 707.71,43.78 703.85,54.92C700.11,65.68 690.44,71.62 669.86,64.49C649.29,57.35 645.00,46.55 648.73,35.79ZM674.81,125.21C687.00,130.28 689.33,136.38 686.71,143.93C682.39,156.39 667.51,153.55 644.86,145.69C618.62,136.59 611.50,129.68 615.10,119.30C620.48,103.82 638.03,109.91 638.78,110.17Z" fill="#ffffff" stroke="#000000"/>
    <path d="M-898.60,473.49C-901.68,472.89 -903.80,471.94 -903.80,470.04C-903.80,468.10 -901.45,466.62 -897.42,466.62C-888.95,466.62 -889.17,472.54 -889.17,472.54L-882.22,470.64C-882.22,470.64 -882.87,461.94 -897.15,461.94C-906.39,461.94 -910.80,466.16 -910.80,470.76C-910.80,474.48 -907.60,477.41 -901.90,478.62L-894.38,480.22C-890.31,481.09 -888.00,481.59 -888.00,484.29C-888.00,486.53 -890.73,487.82 -895.22,487.82C-905.78,487.82 -904.91,480.60 -904.91,480.60L-911.86,482.39C-911.63,486.64 -907.72,492.49 -895.10,492.49C-887.16,492.49 -881.04,489.49 -881.04,483.75C-881.04,479.80 -883.25,476.57 -890.47,475.13ZM-870.21,488.62C-870.21,488.62 -868.58,492.49 -862.69,492.49C-856.30,492.49 -851.59,487.90 -851.59,481.44C-851.59,474.98 -856.30,470.42 -862.73,470.42C-869.53,470.42 -871.39,475.74 -871.39,475.74L-872.83,470.91L-876.48,470.91L-876.48,500.47L-870.21,500.47ZM-864.74,474.60C-860.22,474.60 -858.17,477.60 -858.17,481.44C-858.17,485.27 -860.22,488.31 -864.74,488.31C-869.34,488.31 -871.20,484.93 -871.20,481.44C-871.20,477.94 -869.34,474.60 -864.74,474.60ZM-847.03,481.44C-847.03,487.63 -842.17,492.49 -834.00,492.49C-825.75,492.49 -820.89,487.63 -820.89,481.44C-820.89,475.28 -825.75,470.42 -834.00,470.42C-842.17,470.42 -847.03,475.28 -847.03,481.44ZM-840.46,481.44C-840.46,477.98 -838.90,474.60 -834.00,474.60C-829.13,474.60 -827.46,477.98 -827.46,481.44C-827.46,484.89 -829.13,488.31 -834.00,488.31C-838.90,488.31 -840.46,484.89 -840.46,481.44ZM-808.92,479.19C-808.92,479.19 -808.31,474.60 -805.65,474.60C-804.93,474.60 -803.98,474.94 -803.98,476.50C-803.98,479.38 -804.62,481.51 -804.62,481.51L-798.54,479.95C-798.54,479.95 -798.05,478.55 -798.05,475.93C-798.05,472.96 -799.34,470.42 -803.71,470.42C-809.83,470.42 -809.75,476.88 -809.75,476.88L-811.54,470.91L-815.19,470.91L-815.19,492L-808.92,492ZM-796.91,474.60L-792.05,474.60L-792.05,484.63C-792.05,490.06 -788.93,492.49 -783.84,492.49C-778.40,492.49 -775.90,489.38 -775.90,489.38L-777.11,485.27C-777.11,485.27 -778.78,488.31 -782.13,488.31C-784.83,488.31 -785.85,486.76 -785.85,484.17L-785.85,474.60L-776.16,474.60L-776.16,470.91L-785.85,470.91L-785.85,462.97L-791.89,466.77L-791.89,470.91L-796.91,470.91ZM-771.72,467.30L-765.45,467.30L-765.45,462.47L-771.72,462.47ZM-771.72,492L-765.45,492L-765.45,470.91L-771.72,470.91ZM-740.75,492L-734.48,492L-734.48,479.08C-734.48,473.72 -737.36,470.42 -744.36,470.42C-752.72,470.42 -753.17,476.88 -753.17,476.88L-754.96,470.91L-758.61,470.91L-758.61,492L-752.34,492L-752.34,479.23C-752.34,479.23 -751.04,474.60 -746.07,474.60C-742.68,474.60 -740.75,475.96 -740.75,478.78ZM-716.81,485.54C-709.40,485.54 -704.95,482.27 -704.95,478.02C-704.95,476.65 -705.41,475.39 -706.28,474.29C-707.04,472.89 -707.08,471.94 -704.91,471.94C-704.46,471.94 -703.13,472.01 -701.64,472.24L-703.09,467.57C-704.11,467.49 -705.29,467.41 -705.82,467.41C-707.88,467.41 -709.13,468.52 -709.13,470.42C-709.13,471.02 -708.75,471.75 -708.22,472.54C-710.27,471.21 -713.23,470.42 -716.88,470.42C-724.41,470.42 -728.81,473.72 -728.81,478.02C-728.81,480.87 -726.88,483.22 -723.38,484.51C-724.79,484.70 -728.70,485.39 -728.70,488.01C-728.70,491.13 -723.91,491.77 -723.42,491.81C-724.03,491.89 -729.92,492.49 -729.92,496.22C-729.92,498.35 -727.90,501.01 -721.25,501.01L-712.85,501.01C-706.32,501.01 -702.29,498.61 -702.29,494.66C-702.29,491.66 -704,488.31 -710.95,488.31L-718.74,488.31C-721.29,488.31 -722.58,487.90 -722.58,486.68C-722.58,485.39 -721.29,485.24 -720.49,485.27C-719.39,485.46 -718.14,485.54 -716.81,485.54ZM-722.47,478.02C-722.47,475.77 -721.02,474.10 -716.88,474.10C-712.74,474.10 -711.37,475.77 -711.37,478.02C-711.37,480.18 -712.74,481.85 -716.88,481.85C-721.02,481.85 -722.47,480.18 -722.47,478.02ZM-712.21,492.46C-709.70,492.61 -708.90,493.56 -708.90,495.08C-708.90,497.59 -711.75,498.00 -716.31,498.00C-721.59,498.00 -723.30,497.21 -723.30,495.12C-723.30,492 -719.77,492 -719.62,492ZM-663.99,472.54C-663.99,472.54 -665.13,461.94 -681.31,461.94C-692.41,461.94 -699.36,468.36 -699.36,477.26C-699.36,486.11 -692.03,492.49 -682.42,492.49C-673.68,492.49 -671.24,487.63 -671.24,487.63L-671.24,492L-664.90,492L-664.90,476.31L-683.29,476.31L-683.29,480.45L-671.24,480.45C-671.24,480.45 -672.04,487.82 -681.35,487.82C-688.23,487.82 -692.33,483.30 -692.33,477.26C-692.33,471.44 -688.84,466.62 -681.35,466.62C-671.05,466.62 -670.94,474.44 -670.94,474.44ZM-651.26,479.19C-651.26,479.19 -650.65,474.60 -647.99,474.60C-647.27,474.60 -646.32,474.94 -646.32,476.50C-646.32,479.38 -646.96,481.51 -646.96,481.51L-640.88,479.95C-640.88,479.95 -640.39,478.55 -640.39,475.93C-640.39,472.96 -641.68,470.42 -646.05,470.42C-652.17,470.42 -652.09,476.88 -652.09,476.88L-653.88,470.91L-657.53,470.91L-657.53,492L-651.26,492ZM-636.97,481.44C-636.97,487.63 -632.10,492.49 -623.93,492.49C-615.69,492.49 -610.82,487.63 -610.82,481.44C-610.82,475.28 -615.69,470.42 -623.93,470.42C-632.10,470.42 -636.97,475.28 -636.97,481.44ZM-630.39,481.44C-630.39,477.98 -628.84,474.60 -623.93,474.60C-619.07,474.60 -617.40,477.98 -617.40,481.44C-617.40,484.89 -619.07,488.31 -623.93,488.31C-628.84,488.31 -630.39,484.89 -630.39,481.44ZM-608.54,474.60L-603.68,474.60L-603.68,484.63C-603.68,490.06 -600.56,492.49 -595.47,492.49C-590.04,492.49 -587.53,489.38 -587.53,489.38L-588.75,485.27C-588.75,485.27 -590.42,488.31 -593.76,488.31C-596.46,488.31 -597.49,486.76 -597.49,484.17L-597.49,474.60L-587.80,474.60L-587.80,470.91L-597.49,470.91L-597.49,462.97L-603.53,466.77L-603.53,470.91L-608.54,470.91ZM-578.18,481.82L-559.71,482.20C-559.14,479.19 -559.79,470.42 -571.68,470.42C-579.55,470.42 -584.49,475.17 -584.49,481.44C-584.49,488.58 -578.49,492.49 -571.68,492.49C-560.74,492.49 -559.14,485.01 -559.14,485.01L-565.22,483.45C-565.22,483.45 -565.26,488.31 -571.04,488.31C-576.17,488.31 -578.14,485.08 -578.18,481.82ZM-566.21,478.47L-577.80,478.85C-577.80,478.85 -577.04,474.41 -571.80,474.41C-566.74,474.41 -566.21,478.47 -566.21,478.47ZM-549.26,483.56L-555.34,485.12C-555.34,485.12 -554.85,492.49 -542.73,492.49C-536.65,492.49 -531.78,490.21 -531.78,485.92C-531.78,482.80 -533.80,480.37 -539.12,479.50L-544.44,478.62C-546.91,478.21 -548.47,477.86 -548.47,476.61C-548.47,475.55 -547.25,474.41 -544.59,474.41C-539.19,474.41 -539.00,478.13 -539.00,478.13L-532.92,476.57C-532.92,476.57 -533.80,470.42 -544.32,470.42C-549.87,470.42 -554.28,472.81 -554.28,476.99C-554.28,480.83 -550.52,482.12 -547.17,482.73L-542.23,483.64C-539.27,484.17 -537.98,484.82 -537.98,486.11C-537.98,487.59 -540.14,488.31 -542.65,488.31C-549.30,488.31 -549.26,483.56 -549.26,483.56ZM-509.40,500.47L-503.09,500.47L-503.09,470.91L-506.74,470.91L-508.22,475.74C-508.22,475.74 -510.05,470.42 -516.85,470.42C-523.31,470.42 -527.98,474.98 -527.98,481.44C-527.98,487.90 -523.31,492.49 -516.89,492.49C-511.00,492.49 -509.40,488.66 -509.40,488.66ZM-514.87,474.60C-510.28,474.60 -508.38,477.94 -508.38,481.44C-508.38,484.93 -510.28,488.31 -514.87,488.31C-519.36,488.31 -521.41,485.27 -521.41,481.44C-521.41,477.60 -519.36,474.60 -514.87,474.60ZM-490.02,470.91L-496.25,470.91L-496.25,483.83C-496.25,489.19 -493.37,492.49 -486.37,492.49C-478.01,492.49 -477.56,486.03 -477.56,486.03L-475.77,492L-472.12,492L-472.12,470.91L-478.39,470.91L-478.39,483.68C-478.39,483.68 -479.69,488.31 -484.66,488.31C-488.05,488.31 -490.02,486.95 -490.02,484.13ZM-460.12,481.82L-441.65,482.20C-441.08,479.19 -441.72,470.42 -453.62,470.42C-461.48,470.42 -466.42,475.17 -466.42,481.44C-466.42,488.58 -460.42,492.49 -453.62,492.49C-442.67,492.49 -441.08,485.01 -441.08,485.01L-447.16,483.45C-447.16,483.45 -447.20,488.31 -452.97,488.31C-458.10,488.31 -460.08,485.08 -460.12,481.82ZM-448.15,478.47L-459.74,478.85C-459.74,478.85 -458.98,474.41 -453.73,474.41C-448.68,474.41 -448.15,478.47 -448.15,478.47ZM-421.24,482.58L-421.24,478.89L-437.28,478.89L-437.28,482.58ZM-402.39,462.47L-416.30,462.47L-416.30,492L-401.63,492C-391.53,492 -386.97,489.00 -386.97,483.37C-386.97,477.75 -392.59,476.76 -393.12,476.69C-392.63,476.61 -387.73,475.66 -387.73,470.72C-387.73,465.10 -392.29,462.47 -402.39,462.47ZM-402.01,474.82L-409.54,474.82L-409.54,466.62L-402.01,466.62C-397.68,466.62 -394.76,467.68 -394.76,470.72C-394.76,473.76 -397.68,474.82 -402.01,474.82ZM-409.54,487.82L-409.54,478.85L-400.91,478.85C-396.77,478.85 -394.00,480.37 -394.00,483.34C-394.00,486.38 -396.92,487.82 -401.25,487.82ZM-382.41,481.44C-382.41,487.63 -377.54,492.49 -369.37,492.49C-361.13,492.49 -356.26,487.63 -356.26,481.44C-356.26,475.28 -361.13,470.42 -369.37,470.42C-377.54,470.42 -382.41,475.28 -382.41,481.44ZM-375.83,481.44C-375.83,477.98 -374.27,474.60 -369.37,474.60C-364.51,474.60 -362.84,477.98 -362.84,481.44C-362.84,484.89 -364.51,488.31 -369.37,488.31C-374.27,488.31 -375.83,484.89 -375.83,481.44ZM-350.56,492L-344.29,492L-344.29,461.94C-344.29,461.94 -347.48,462.47 -350.56,462.47ZM-320.01,474.25C-320.01,474.25 -321.61,470.42 -327.50,470.42C-333.92,470.42 -338.59,475.01 -338.59,481.47C-338.59,487.93 -333.92,492.49 -327.46,492.49C-320.66,492.49 -318.83,487.17 -318.83,487.17L-317.35,492L-313.70,492L-313.70,461.94C-313.70,461.94 -316.86,462.47 -320.01,462.47ZM-325.48,488.31C-329.97,488.31 -332.02,485.31 -332.02,481.47C-332.02,477.64 -329.97,474.60 -325.48,474.60C-320.88,474.60 -318.98,477.98 -318.98,481.47C-318.98,484.97 -320.88,488.31 -325.48,488.31Z"/>
</svg>