<?xml version="1.0"?>
<svg xmlns="http://www.w3.org/2000/svg" width="1920" height="1080" viewBox="-960 -540 1920 1080">
    <path d="M-426.35,-147L-426.35,-310.17L-407.48,-310.17C-385.28,-310.17 -373.29,-305.73 -366.86,-293.30C-360.64,-280.87 -359.75,-260.44 -359.75,-228.47C-359.75,-196.51 -360.64,-176.30 -366.86,-163.87C-373.29,-151.44 -385.28,-147 -407.48,-147ZM-402.38,-170.98C-394.16,-170.98 -389.50,-171.86 -387.06,-179.86C-385.95,-183.63 -385.06,-189.40 -384.84,-197.17C-384.62,-204.94 -384.62,-215.38 -384.62,-228.70C-384.62,-242.02 -384.62,-252.45 -384.84,-260.22C-385.06,-267.77 -385.95,-273.54 -387.06,-277.54C-389.50,-285.31 -394.16,-286.19 -402.38,-286.19ZM-298.92,-245.35C-300.92,-246.01 -303.14,-246.23 -305.14,-246.23C-308.69,-246.23 -312.91,-245.79 -316.46,-242.46C-320.68,-238.91 -321.35,-235.13 -321.35,-231.36L-321.35,-147L-343.77,-147L-343.77,-268.43L-321.35,-268.43L-321.35,-254.89C-321.12,-256.45 -319.57,-260.22 -316.02,-263.77C-312.47,-267.10 -307.14,-270.21 -298.92,-270.21ZM-255.19,-239.57C-255.19,-241.57 -255.19,-244.68 -255.86,-246.90C-256.74,-249.12 -258.52,-250.67 -261.41,-250.67C-265.18,-250.67 -266.73,-247.79 -267.40,-244.24C-267.62,-242.46 -267.84,-240.46 -267.84,-238.46C-267.84,-236.47 -267.84,-234.47 -267.84,-232.69L-290.27,-232.69L-290.27,-237.80C-290.27,-246.68 -286.93,-254.67 -281.61,-260.66C-276.28,-266.66 -268.73,-270.21 -260.07,-270.21C-252.75,-270.21 -246.09,-267.32 -240.98,-262.44C-235.88,-257.56 -232.77,-250.67 -232.77,-242.68L-232.77,-168.09C-232.77,-157.21 -232.10,-152.33 -231.21,-147L-253.19,-147C-255.19,-149.44 -255.19,-155.21 -255.19,-156.77L-256.74,-156.77C-257.85,-154.77 -259.85,-151.88 -262.96,-149.44C-266.07,-147 -270.29,-145.22 -274.73,-145.22C-277.61,-145.22 -282.27,-146.33 -285.83,-150.77C-289.60,-154.99 -292.71,-162.54 -292.71,-175.19C-292.71,-188.74 -288.71,-198.50 -283.38,-205.16C-278.06,-211.82 -271.40,-216.04 -265.85,-218.93C-260.30,-221.81 -256.08,-223.81 -255.19,-226.25ZM-255.19,-205.61C-266.07,-200.95 -270.73,-190.07 -270.73,-178.52C-270.73,-176.97 -270.51,-174.31 -269.62,-171.86C-268.73,-169.20 -267.18,-167.20 -264.51,-167.20C-259.41,-167.20 -255.19,-170.31 -255.19,-174.53ZM-167.06,-147L-175.71,-204.94L-176.82,-211.82L-177.71,-211.82L-178.82,-204.94L-187.48,-147L-206.13,-147L-224.11,-268.43L-203.69,-268.43L-196.58,-204.94L-195.69,-198.06L-194.36,-198.06L-193.25,-204.94L-183.93,-268.43L-170.61,-268.43L-161.28,-204.94L-160.17,-198.06L-158.84,-198.06L-157.95,-204.94L-150.85,-268.43L-130.43,-268.43L-148.41,-147ZM-119.33,-147L-119.33,-310.17L-100.46,-310.17C-78.26,-310.17 -66.27,-305.73 -59.83,-293.30C-53.61,-280.87 -52.73,-260.44 -52.73,-228.47C-52.73,-196.51 -53.61,-176.30 -59.83,-163.87C-66.27,-151.44 -78.26,-147 -100.46,-147ZM-95.35,-170.98C-87.14,-170.98 -82.47,-171.86 -80.03,-179.86C-78.92,-183.63 -78.03,-189.40 -77.81,-197.17C-77.59,-204.94 -77.59,-215.38 -77.59,-228.70C-77.59,-242.02 -77.59,-252.45 -77.81,-260.22C-78.03,-267.77 -78.92,-273.54 -80.03,-277.54C-82.47,-285.31 -87.14,-286.19 -95.35,-286.19ZM18.76,-176.53C18.09,-164.76 14.54,-156.55 6.77,-150.11C2.77,-146.78 -2.78,-145.22 -10.10,-145.22C-24.53,-145.22 -31.64,-153.22 -35.19,-161.21C-37.19,-165.87 -38.52,-171.20 -38.74,-177.19L-38.74,-238.24C-38.07,-250.01 -34.52,-258.67 -26.75,-265.33C-22.98,-268.66 -17.43,-270.21 -10.10,-270.21C4.33,-270.21 11.65,-262.22 15.21,-254.45C17.20,-249.79 18.54,-244.68 18.76,-238.91ZM-2.33,-238.24C-2.11,-242.90 -3.00,-246.23 -5.22,-248.90C-6.33,-250.01 -8.10,-250.67 -10.10,-250.67C-14.32,-250.67 -16.10,-247.79 -16.98,-244.46C-17.65,-242.68 -17.87,-240.68 -17.65,-238.24L-17.65,-177.19C-17.87,-172.53 -16.76,-169.20 -14.76,-166.76C-13.65,-165.65 -12.10,-164.98 -10.10,-164.98C-5.88,-164.98 -3.89,-167.65 -3.00,-170.98C-2.33,-172.75 -2.11,-174.75 -2.33,-177.19ZM84.91,-147L76.26,-204.94L75.15,-211.82L74.26,-211.82L73.15,-204.94L64.49,-147L45.84,-147L27.86,-268.43L48.28,-268.43L55.39,-204.94L56.28,-198.06L57.61,-198.06L58.72,-204.94L68.04,-268.43L81.36,-268.43L90.69,-204.94L91.80,-198.06L93.13,-198.06L94.02,-204.94L101.12,-268.43L121.54,-268.43L103.56,-147ZM155.07,-147L132.64,-147L132.64,-268.43L155.07,-268.43L155.07,-258.22C155.51,-258.44 156.40,-259.33 157.73,-260.66C160.17,-263.11 163.50,-266.44 167.50,-268.66C169.50,-269.77 171.27,-270.21 173.27,-270.21C179.26,-270.21 183.48,-266.66 186.15,-262.22C188.81,-257.56 190.14,-251.56 190.14,-246.46L190.14,-147L167.72,-147L167.72,-243.13C167.72,-247.79 165.06,-248.45 162.39,-248.45C159.95,-248.45 158.62,-247.12 157.06,-245.57C156.40,-244.68 155.73,-243.79 155.07,-242.68ZM204.35,-171.64L227.66,-171.64L227.66,-147L204.35,-147ZM297.81,-176.53C297.15,-164.76 293.59,-156.55 285.83,-150.11C281.83,-146.78 276.28,-145.22 268.95,-145.22C254.52,-145.22 247.42,-153.22 243.87,-161.21C241.87,-165.87 240.54,-171.20 240.32,-177.19L240.32,-238.24C240.98,-250.01 244.53,-258.67 252.30,-265.33C256.08,-268.66 261.63,-270.21 268.95,-270.21C283.38,-270.21 290.71,-262.22 294.26,-254.45C296.26,-249.79 297.59,-244.68 297.81,-238.91ZM276.72,-238.24C276.95,-242.90 276.06,-246.23 273.84,-248.90C272.73,-250.01 270.95,-250.67 268.95,-250.67C264.73,-250.67 262.96,-247.79 262.07,-244.46C261.40,-242.68 261.18,-240.68 261.40,-238.24L261.40,-177.19C261.18,-172.53 262.29,-169.20 264.29,-166.76C265.40,-165.65 266.95,-164.98 268.95,-164.98C273.17,-164.98 275.17,-167.65 276.06,-170.98C276.72,-172.75 276.95,-174.75 276.72,-177.19ZM358.42,-245.35C356.42,-246.01 354.20,-246.23 352.20,-246.23C348.65,-246.23 344.43,-245.79 340.88,-242.46C336.66,-238.91 336.00,-235.13 336.00,-231.36L336.00,-147L313.58,-147L313.58,-268.43L336.00,-268.43L336.00,-254.89C336.22,-256.45 337.77,-260.22 341.33,-263.77C344.88,-267.10 350.21,-270.21 358.42,-270.21ZM423.02,-205.61C422.35,-194.29 418.36,-186.29 410.59,-180.30C406.59,-177.19 401.04,-175.64 394.16,-175.64C393.49,-175.64 392.83,-175.64 392.16,-175.64C391.50,-175.64 390.61,-175.64 389.94,-175.86C387.95,-174.08 386.84,-172.31 386.84,-170.31C386.84,-167.65 389.05,-166.09 392.39,-165.20C395.72,-164.09 399.71,-163.43 403.93,-162.76C411.03,-161.87 418.58,-160.10 424.80,-155.88C430.79,-151.66 435.01,-145.22 435.01,-134.57C435.01,-122.80 429.90,-114.81 422.80,-110.15C415.47,-105.49 405.71,-103.49 396.60,-103.49C385.95,-103.71 376.85,-105.26 370.63,-108.82C364.19,-112.37 360.64,-118.14 360.64,-127.02C360.64,-131.24 362.86,-134.79 366.19,-137.90C369.52,-141.01 373.96,-143.45 378.18,-145.45C370.85,-147.44 364.64,-152.11 364.64,-161.65C364.64,-165.20 366.63,-168.76 369.30,-172.09C371.96,-175.42 375.29,-178.08 378.62,-179.86C372.18,-184.07 369.08,-190.73 367.52,-196.28C366.63,-199.61 365.97,-202.94 365.74,-206.27L365.74,-239.35C366.63,-250.67 370.18,-258.89 377.96,-265.33C381.73,-268.66 387.28,-270.21 394.16,-270.21C405.48,-270.21 412.36,-265.10 416.58,-259.11C418.14,-260.66 420.80,-263.33 424.35,-265.77C427.68,-268.21 431.46,-270.21 435.01,-270.21L435.01,-250.23C429.02,-250.23 424.58,-249.12 421.91,-247.57C422.13,-246.46 422.35,-245.35 422.58,-244.68C422.58,-243.79 422.58,-242.90 422.80,-242.24C423.02,-241.57 423.02,-240.68 423.02,-240.02ZM401.04,-238.46C401.04,-242.68 400.16,-245.35 398.38,-247.79C397.49,-248.90 396.16,-249.56 394.16,-249.56C390.61,-249.56 388.83,-246.68 388.17,-244.01C387.72,-242.46 387.50,-240.46 387.72,-238.46L387.72,-205.16C387.50,-200.95 388.17,-198.28 390.16,-196.06C391.05,-194.95 392.39,-194.29 394.16,-194.29C397.93,-194.29 399.49,-196.95 400.38,-199.61C400.82,-201.17 401.04,-203.17 401.04,-205.16ZM390.61,-141.45C385.95,-138.79 382.40,-135.46 382.40,-130.79C382.40,-126.13 386.61,-122.36 397.05,-122.36C400.82,-122.36 405.04,-123.02 408.37,-124.36C411.70,-125.69 414.14,-127.69 414.14,-130.57C414.14,-132.57 413.92,-134.12 412.36,-135.68C410.59,-137.23 407.70,-138.34 402.15,-139.23Z" fill="#ffffff" stroke="#000000"/>
    <path d="M-428.28,-141.80L-428.57,-303.33L-409.89,-303.37C-387.91,-303.41 -376.03,-299.03 -369.64,-286.74C-363.46,-274.44 -362.55,-254.22 -362.49,-222.57C-362.43,-190.93 -363.28,-170.92 -369.41,-158.61C-375.76,-146.29 -387.62,-141.87 -409.60,-141.83ZM-404.59,-165.58C-396.46,-165.59 -391.84,-166.48 -389.44,-174.39C-388.35,-178.13 -387.48,-183.85 -387.27,-191.54C-387.06,-199.23 -387.08,-209.56 -387.11,-222.75C-387.13,-235.94 -387.15,-246.27 -387.38,-253.96C-387.62,-261.43 -388.50,-267.14 -389.61,-271.10C-392.04,-278.78 -396.66,-279.66 -404.79,-279.64ZM-302.30,-239.38C-304.28,-240.04 -306.48,-240.26 -308.46,-240.25C-311.97,-240.25 -316.15,-239.80 -319.66,-236.50C-323.83,-232.97 -324.48,-229.23 -324.47,-225.50L-324.33,-141.98L-346.52,-141.94L-346.74,-262.16L-324.54,-262.20L-324.52,-248.80C-324.30,-250.33 -322.77,-254.07 -319.26,-257.60C-315.75,-260.90 -310.48,-263.98 -302.34,-264.00ZM-258.99,-233.75C-259.00,-235.73 -259.00,-238.80 -259.67,-241.00C-260.55,-243.19 -262.31,-244.73 -265.17,-244.73C-268.90,-244.72 -270.44,-241.86 -271.09,-238.34C-271.31,-236.58 -271.52,-234.60 -271.52,-232.63C-271.52,-230.65 -271.51,-228.67 -271.51,-226.91L-293.71,-226.87L-293.72,-231.93C-293.73,-240.72 -290.45,-248.64 -285.19,-254.58C-279.92,-260.52 -272.45,-264.05 -263.88,-264.07C-256.63,-264.08 -250.03,-261.24 -244.97,-256.41C-239.91,-251.58 -236.82,-244.78 -236.80,-236.86L-236.67,-163.02C-236.65,-152.25 -235.98,-147.41 -235.09,-142.14L-256.85,-142.10C-258.84,-144.52 -258.85,-150.23 -258.85,-151.77L-260.39,-151.77C-261.48,-149.79 -263.45,-146.93 -266.53,-144.50C-269.60,-142.08 -273.77,-140.31 -278.17,-140.31C-281.03,-140.30 -285.64,-141.39 -289.17,-145.78C-292.91,-149.95 -296.00,-157.42 -296.02,-169.94C-296.05,-183.35 -292.11,-193.03 -286.85,-199.63C-281.58,-206.23 -275.00,-210.42 -269.51,-213.29C-264.02,-216.16 -259.85,-218.14 -258.97,-220.56ZM-258.93,-200.12C-269.70,-195.49 -274.29,-184.71 -274.27,-173.28C-274.27,-171.74 -274.04,-169.10 -273.16,-166.69C-272.28,-164.05 -270.73,-162.08 -268.10,-162.08C-263.04,-162.09 -258.87,-165.18 -258.88,-169.35ZM-171.58,-142.25L-180.25,-199.60L-181.36,-206.41L-182.24,-206.41L-183.33,-199.60L-191.80,-142.22L-210.26,-142.19L-228.28,-262.37L-208.06,-262.41L-200.91,-199.56L-200.02,-192.75L-198.70,-192.76L-197.61,-199.57L-188.50,-262.44L-175.31,-262.47L-165.97,-199.63L-164.86,-192.82L-163.54,-192.82L-162.67,-199.63L-155.75,-262.50L-135.53,-262.54L-153.12,-142.29ZM-124.33,-142.34L-124.61,-303.88L-105.93,-303.91C-83.95,-303.95 -72.08,-299.57 -65.68,-287.28C-59.51,-274.98 -58.59,-254.76 -58.54,-223.12C-58.48,-191.47 -59.32,-171.47 -65.45,-159.15C-71.81,-146.83 -83.67,-142.41 -105.64,-142.37ZM-100.63,-166.12C-92.50,-166.13 -87.89,-167.02 -85.48,-174.94C-84.39,-178.67 -83.52,-184.39 -83.32,-192.08C-83.11,-199.77 -83.13,-210.10 -83.15,-223.29C-83.17,-236.48 -83.19,-246.81 -83.43,-254.50C-83.66,-261.97 -84.55,-267.68 -85.65,-271.64C-88.09,-279.33 -92.70,-280.20 -100.84,-280.18ZM12.33,-171.81C11.69,-160.16 8.18,-152.03 0.50,-145.64C-3.45,-142.33 -8.94,-140.79 -16.19,-140.77C-30.48,-140.75 -37.52,-148.65 -41.05,-156.55C-43.04,-161.16 -44.37,-166.44 -44.60,-172.37L-44.71,-232.81C-44.07,-244.46 -40.57,-253.04 -32.89,-259.64C-29.16,-262.95 -23.66,-264.50 -16.41,-264.51C-2.13,-264.53 5.14,-256.64 8.67,-248.95C10.66,-244.34 11.99,-239.28 12.22,-233.57ZM-8.66,-232.87C-8.45,-237.49 -9.34,-240.79 -11.54,-243.42C-12.64,-244.52 -14.40,-245.17 -16.38,-245.17C-20.55,-245.16 -22.31,-242.30 -23.18,-239.00C-23.84,-237.24 -24.05,-235.26 -23.83,-232.85L-23.72,-172.41C-23.93,-167.79 -22.83,-164.50 -20.84,-162.08C-19.74,-160.99 -18.20,-160.33 -16.23,-160.33C-12.05,-160.34 -10.08,-162.98 -9.20,-166.28C-8.55,-168.04 -8.33,-170.02 -8.56,-172.44ZM77.87,-142.70L69.20,-200.05L68.09,-206.86L67.21,-206.86L66.12,-200.04L57.65,-142.66L39.19,-142.63L21.17,-262.82L41.39,-262.85L48.54,-200.01L49.43,-193.20L50.75,-193.20L51.84,-200.02L60.95,-262.89L74.14,-262.91L83.48,-200.07L84.59,-193.26L85.91,-193.26L86.78,-200.08L93.70,-262.95L113.92,-262.98L96.33,-142.73ZM147.32,-142.82L125.12,-142.78L124.91,-263.00L147.11,-263.04L147.13,-252.93C147.56,-253.15 148.44,-254.03 149.76,-255.35C152.17,-257.78 155.46,-261.08 159.41,-263.28C161.39,-264.39 163.15,-264.83 165.13,-264.83C171.06,-264.84 175.24,-261.33 177.89,-256.94C180.53,-252.33 181.86,-246.40 181.87,-241.35L182.05,-142.88L159.85,-142.85L159.68,-238.01C159.67,-242.63 157.03,-243.28 154.40,-243.28C151.98,-243.27 150.66,-241.95 149.13,-240.41C148.47,-239.53 147.81,-238.65 147.15,-237.55ZM196.07,-167.31L219.15,-167.35L219.19,-142.95L196.11,-142.91ZM288.59,-172.31C287.95,-160.66 284.45,-152.52 276.77,-146.13C272.82,-142.83 267.32,-141.28 260.07,-141.27C245.79,-141.24 238.74,-149.14 235.21,-157.05C233.22,-161.66 231.89,-166.93 231.66,-172.86L231.56,-233.30C232.19,-244.95 235.70,-253.53 243.38,-260.14C247.11,-263.44 252.60,-264.99 259.85,-265.00C274.14,-265.03 281.40,-257.13 284.93,-249.44C286.92,-244.83 288.25,-239.78 288.48,-234.06ZM267.60,-233.37C267.81,-237.98 266.93,-241.28 264.72,-243.91C263.62,-245.01 261.86,-245.66 259.89,-245.66C255.71,-245.65 253.96,-242.79 253.08,-239.49C252.43,-237.74 252.21,-235.76 252.44,-233.34L252.54,-172.90C252.33,-168.28 253.44,-164.99 255.42,-162.58C256.52,-161.48 258.06,-160.82 260.04,-160.83C264.21,-160.83 266.19,-163.47 267.06,-166.77C267.72,-168.53 267.93,-170.51 267.71,-172.93ZM348.47,-240.54C346.49,-241.20 344.29,-241.42 342.31,-241.41C338.79,-241.41 334.62,-240.96 331.11,-237.66C326.94,-234.13 326.29,-230.39 326.29,-226.66L326.44,-143.14L304.24,-143.10L304.03,-263.32L326.23,-263.36L326.25,-249.95C326.47,-251.49 328.00,-255.23 331.51,-258.76C335.02,-262.06 340.29,-265.14 348.42,-265.16ZM412.49,-201.32C411.85,-190.11 407.91,-182.19 400.23,-176.24C396.28,-173.16 390.79,-171.61 383.97,-171.60C383.31,-171.60 382.66,-171.59 382.00,-171.59C381.34,-171.59 380.46,-171.59 379.80,-171.81C377.82,-170.05 376.73,-168.29 376.73,-166.31C376.74,-163.67 378.94,-162.14 382.23,-161.26C385.53,-160.17 389.49,-159.52 393.67,-158.87C400.70,-158.00 408.18,-156.25 414.34,-152.09C420.28,-147.92 424.47,-141.56 424.49,-131.01C424.51,-119.36 419.47,-111.44 412.44,-106.81C405.20,-102.18 395.53,-100.19 386.52,-100.17C375.97,-100.37 366.96,-101.90 360.80,-105.40C354.42,-108.91 350.89,-114.61 350.87,-123.41C350.87,-127.58 353.06,-131.10 356.35,-134.18C359.64,-137.27 364.03,-139.69 368.20,-141.68C360.95,-143.64 354.78,-148.25 354.77,-157.70C354.76,-161.21 356.73,-164.73 359.37,-168.04C362.00,-171.34 365.29,-173.98 368.58,-175.74C362.20,-179.91 359.11,-186.50 357.56,-191.99C356.68,-195.28 356.01,-198.58 355.79,-201.88L355.73,-234.62C356.59,-245.83 360.09,-253.97 367.77,-260.36C371.50,-263.66 376.99,-265.21 383.81,-265.22C395.02,-265.24 401.84,-260.20 406.02,-254.27C407.56,-255.81 410.19,-258.46 413.71,-260.88C417.00,-263.30 420.73,-265.29 424.25,-265.29L424.28,-245.51C418.35,-245.50 413.95,-244.40 411.32,-242.85C411.54,-241.76 411.76,-240.66 411.98,-240.00C411.99,-239.12 411.99,-238.24 412.21,-237.58C412.43,-236.92 412.43,-236.04 412.43,-235.38ZM390.68,-233.81C390.67,-237.98 389.79,-240.62 388.02,-243.03C387.14,-244.13 385.82,-244.79 383.84,-244.78C380.33,-244.78 378.57,-241.92 377.92,-239.28C377.48,-237.74 377.27,-235.76 377.49,-233.78L377.55,-200.82C377.34,-196.64 378.00,-194.00 379.98,-191.81C380.86,-190.71 382.18,-190.05 383.94,-190.06C387.68,-190.06 389.21,-192.70 390.09,-195.34C390.52,-196.88 390.74,-198.86 390.74,-200.84ZM380.52,-137.74C375.91,-135.10 372.40,-131.80 372.40,-127.18C372.41,-122.56 376.60,-118.84 386.93,-118.85C390.66,-118.86 394.84,-119.53 398.13,-120.85C401.42,-122.18 403.84,-124.16 403.83,-127.02C403.83,-128.99 403.61,-130.53 402.07,-132.07C400.31,-133.60 397.45,-134.70 391.95,-135.57Z" fill="#ffffff" stroke="#000000"/>
    <path d="M-430.07,-136.65L-430.64,-296.55L-412.15,-296.62C-390.40,-296.70 -378.63,-292.39 -372.28,-280.23C-366.14,-268.07 -365.20,-248.05 -365.09,-216.72C-364.98,-185.40 -365.78,-165.60 -371.83,-153.39C-378.09,-141.18 -389.83,-136.79 -411.58,-136.71ZM-406.66,-160.23C-398.61,-160.26 -394.05,-161.14 -391.68,-168.98C-390.61,-172.69 -389.76,-178.35 -389.57,-185.96C-389.38,-193.58 -389.41,-203.80 -389.46,-216.86C-389.50,-229.91 -389.54,-240.13 -389.79,-247.75C-390.03,-255.14 -390.92,-260.80 -392.02,-264.71C-394.44,-272.32 -399.01,-273.17 -407.06,-273.14ZM-305.54,-233.47C-307.50,-234.12 -309.68,-234.33 -311.63,-234.32C-315.11,-234.31 -319.25,-233.86 -322.72,-230.58C-326.84,-227.09 -327.48,-223.39 -327.46,-219.69L-327.17,-137.01L-349.14,-136.94L-349.57,-255.94L-327.59,-256.02L-327.55,-242.75C-327.33,-244.27 -325.82,-247.98 -322.36,-251.47C-318.89,-254.74 -313.68,-257.81 -305.63,-257.84ZM-262.66,-227.97C-262.67,-229.93 -262.68,-232.97 -263.34,-235.14C-264.22,-237.32 -265.96,-238.83 -268.79,-238.82C-272.49,-238.81 -274.00,-235.98 -274.64,-232.49C-274.85,-230.75 -275.06,-228.79 -275.06,-226.84C-275.05,-224.88 -275.04,-222.92 -275.04,-221.18L-297.01,-221.10L-297.03,-226.10C-297.06,-234.81 -293.82,-242.65 -288.62,-248.54C-283.42,-254.44 -276.04,-257.94 -267.55,-257.97C-260.37,-258.00 -253.84,-255.19 -248.82,-250.43C-243.79,-245.66 -240.72,-238.92 -240.70,-231.09L-240.44,-157.99C-240.40,-147.33 -239.73,-142.55 -238.84,-137.33L-260.38,-137.25C-262.34,-139.64 -262.36,-145.30 -262.37,-146.82L-263.89,-146.81C-264.97,-144.85 -266.92,-142.02 -269.96,-139.61C-273.00,-137.21 -277.12,-135.45 -281.48,-135.44C-284.30,-135.43 -288.88,-136.50 -292.37,-140.84C-296.09,-144.96 -299.16,-152.34 -299.20,-164.74C-299.25,-178.02 -295.37,-187.60 -290.17,-194.15C-284.97,-200.69 -278.46,-204.85 -273.03,-207.70C-267.60,-210.55 -263.47,-212.52 -262.61,-214.91ZM-262.54,-194.68C-273.18,-190.07 -277.72,-179.40 -277.68,-168.08C-277.67,-166.56 -277.44,-163.95 -276.56,-161.56C-275.68,-158.95 -274.15,-157.00 -271.54,-157.01C-266.54,-157.03 -262.42,-160.09 -262.43,-164.22ZM-175.97,-137.55L-184.65,-194.31L-185.76,-201.05L-186.63,-201.04L-187.70,-194.30L-195.98,-137.48L-214.26,-137.42L-232.30,-256.36L-212.29,-256.43L-205.10,-194.23L-204.21,-187.49L-202.90,-187.50L-201.84,-194.24L-192.92,-256.50L-179.87,-256.55L-170.51,-194.36L-169.40,-187.62L-168.09,-187.62L-167.25,-194.37L-160.51,-256.61L-140.49,-256.69L-157.69,-137.62ZM-129.19,-137.72L-129.76,-297.63L-111.27,-297.69C-89.51,-297.77 -77.75,-293.46 -71.40,-281.30C-65.26,-269.14 -64.32,-249.13 -64.21,-217.80C-64.10,-186.47 -64.90,-166.67 -70.94,-154.46C-77.21,-142.26 -88.94,-137.86 -110.70,-137.79ZM-105.78,-161.30C-97.73,-161.33 -93.16,-162.22 -90.80,-170.06C-89.72,-173.76 -88.87,-179.42 -88.68,-187.03C-88.49,-194.65 -88.53,-204.87 -88.57,-217.93C-88.62,-230.98 -88.66,-241.21 -88.90,-248.82C-89.15,-256.22 -90.04,-261.87 -91.14,-265.78C-93.56,-273.39 -98.13,-274.24 -106.18,-274.21ZM6.03,-167.14C5.42,-155.61 1.96,-147.54 -5.63,-141.21C-9.53,-137.93 -14.97,-136.39 -22.15,-136.36C-36.29,-136.31 -43.28,-144.12 -46.79,-151.94C-48.76,-156.50 -50.08,-161.72 -50.32,-167.59L-50.54,-227.42C-49.92,-238.95 -46.47,-247.45 -38.88,-254.00C-35.19,-257.28 -29.76,-258.82 -22.58,-258.85C-8.44,-258.90 -1.23,-251.09 2.27,-243.49C4.25,-238.93 5.57,-233.93 5.81,-228.27ZM-14.86,-227.55C-14.65,-232.12 -15.54,-235.38 -17.72,-237.98C-18.81,-239.06 -20.56,-239.71 -22.51,-239.70C-26.65,-239.69 -28.38,-236.85 -29.24,-233.59C-29.88,-231.84 -30.09,-229.88 -29.87,-227.49L-29.65,-167.66C-29.86,-163.09 -28.76,-159.83 -26.79,-157.45C-25.70,-156.36 -24.17,-155.72 -22.21,-155.72C-18.08,-155.74 -16.13,-158.36 -15.27,-161.62C-14.63,-163.37 -14.42,-165.32 -14.64,-167.72ZM70.96,-138.43L62.28,-195.19L61.16,-201.93L60.29,-201.92L59.23,-195.18L50.95,-138.36L32.67,-138.30L14.63,-257.24L34.64,-257.31L41.83,-195.11L42.72,-188.37L44.03,-188.38L45.09,-195.13L54.00,-257.38L67.06,-257.43L76.42,-195.24L77.53,-188.50L78.83,-188.50L79.68,-195.25L86.42,-257.50L106.44,-257.57L89.24,-138.50ZM139.71,-138.68L117.74,-138.60L117.31,-257.61L139.29,-257.68L139.32,-247.68C139.76,-247.89 140.63,-248.77 141.93,-250.08C144.31,-252.48 147.56,-255.75 151.47,-257.94C153.42,-259.04 155.16,-259.48 157.12,-259.49C163.00,-259.51 167.14,-256.04 169.77,-251.70C172.39,-247.14 173.72,-241.27 173.74,-236.27L174.09,-138.80L152.11,-138.72L151.78,-232.93C151.76,-237.49 149.15,-238.14 146.54,-238.13C144.14,-238.12 142.84,-236.81 141.33,-235.28C140.68,-234.41 140.03,-233.54 139.38,-232.45ZM187.92,-163.00L210.77,-163.08L210.85,-138.93L188.01,-138.85ZM279.50,-168.11C278.89,-156.58 275.44,-148.52 267.84,-142.18C263.94,-138.90 258.51,-137.36 251.33,-137.34C237.18,-137.29 230.19,-145.09 226.69,-152.91C224.71,-157.47 223.39,-162.69 223.15,-168.56L222.94,-228.39C223.55,-239.93 227.00,-248.42 234.59,-254.98C238.28,-258.25 243.71,-259.80 250.89,-259.82C265.03,-259.87 272.24,-252.07 275.75,-244.46C277.72,-239.90 279.04,-234.90 279.28,-229.25ZM258.62,-228.52C258.82,-233.09 257.93,-236.35 255.75,-238.95C254.66,-240.04 252.92,-240.68 250.96,-240.68C246.82,-240.66 245.09,-237.83 244.23,-234.56C243.59,-232.82 243.38,-230.86 243.60,-228.47L243.82,-168.64C243.62,-164.07 244.72,-160.81 246.68,-158.42C247.77,-157.34 249.30,-156.69 251.26,-156.70C255.39,-156.71 257.34,-159.33 258.20,-162.60C258.84,-164.34 259.05,-166.30 258.83,-168.69ZM338.65,-235.77C336.69,-236.41 334.52,-236.62 332.56,-236.62C329.08,-236.60 324.94,-236.15 321.48,-232.88C317.35,-229.38 316.71,-225.68 316.73,-221.98L317.02,-139.31L295.05,-139.23L294.62,-258.24L316.60,-258.32L316.65,-245.04C316.86,-246.57 318.37,-250.27 321.84,-253.77C325.31,-257.04 330.52,-260.11 338.57,-260.13ZM402.10,-197.05C401.49,-185.95 397.60,-178.11 390.01,-172.21C386.10,-169.15 380.67,-167.60 373.92,-167.58C373.27,-167.58 372.62,-167.57 371.96,-167.57C371.31,-167.57 370.44,-167.57 369.79,-167.78C367.84,-166.03 366.75,-164.29 366.76,-162.33C366.77,-159.72 368.95,-158.21 372.22,-157.35C375.49,-156.27 379.40,-155.63 383.54,-154.99C390.51,-154.15 397.91,-152.44 404.01,-148.32C409.90,-144.21 414.06,-137.92 414.10,-127.47C414.14,-115.94 409.16,-108.09 402.22,-103.50C395.05,-98.91 385.49,-96.91 376.57,-96.88C366.12,-97.06 357.20,-98.55 351.10,-102.01C344.77,-105.47 341.27,-111.11 341.24,-119.82C341.23,-123.95 343.39,-127.44 346.64,-130.50C349.89,-133.55 354.24,-135.96 358.36,-137.94C351.18,-139.87 345.07,-144.41 345.04,-153.77C345.02,-157.25 346.97,-160.74 349.57,-164.01C352.17,-167.28 355.42,-169.91 358.68,-171.66C352.35,-175.77 349.29,-182.29 347.74,-187.72C346.86,-190.98 346.20,-194.24 345.97,-197.50L345.85,-229.92C346.68,-241.02 350.14,-249.08 357.73,-255.42C361.41,-258.69 366.85,-260.24 373.59,-260.26C384.69,-260.30 391.45,-255.32 395.60,-249.46C397.12,-250.99 399.72,-253.61 403.20,-256.01C406.45,-258.42 410.14,-260.39 413.62,-260.40L413.69,-240.82C407.82,-240.80 403.47,-239.70 400.87,-238.17C401.09,-237.08 401.31,-235.99 401.53,-235.34C401.53,-234.47 401.54,-233.60 401.76,-232.95C401.98,-232.29 401.98,-231.42 401.98,-230.77ZM380.45,-229.17C380.43,-233.31 379.55,-235.91 377.80,-238.30C376.93,-239.39 375.62,-240.03 373.66,-240.03C370.18,-240.01 368.45,-237.18 367.81,-234.57C367.38,-233.04 367.17,-231.08 367.39,-229.13L367.51,-196.49C367.31,-192.36 367.97,-189.75 369.94,-187.58C370.81,-186.50 372.12,-185.85 373.86,-185.85C377.56,-185.87 379.07,-188.48 379.93,-191.10C380.36,-192.62 380.57,-194.58 380.56,-196.54ZM370.56,-134.06C366.00,-131.44 362.53,-128.16 362.55,-123.59C362.57,-119.02 366.71,-115.34 376.94,-115.38C380.64,-115.39 384.77,-116.06 388.03,-117.37C391.28,-118.69 393.67,-120.66 393.66,-123.48C393.65,-125.44 393.43,-126.96 391.90,-128.48C390.16,-130.00 387.32,-131.08 381.88,-131.93Z" fill="#ffffff" stroke="#000000"/>
    <path d="M-431.73,-131.55L-432.58,-289.83L-414.27,-289.92C-392.74,-290.04 -381.09,-285.79 -374.78,-273.77C-368.68,-261.74 -367.72,-241.94 -367.55,-210.93C-367.39,-179.92 -368.14,-160.32 -374.11,-148.23C-380.29,-136.14 -391.89,-131.77 -413.43,-131.65ZM-408.60,-154.93C-400.63,-154.98 -396.11,-155.86 -393.79,-163.63C-392.73,-167.29 -391.90,-172.90 -391.72,-180.43C-391.55,-187.97 -391.60,-198.09 -391.67,-211.01C-391.74,-223.93 -391.79,-234.05 -392.05,-241.59C-392.30,-248.91 -393.20,-254.50 -394.29,-258.38C-396.70,-265.90 -401.23,-266.74 -409.20,-266.69ZM-308.64,-227.61C-310.58,-228.24 -312.73,-228.45 -314.67,-228.44C-318.12,-228.42 -322.21,-227.97 -325.63,-224.72C-329.71,-221.25 -330.33,-217.59 -330.31,-213.93L-329.88,-132.10L-351.62,-131.98L-352.25,-249.77L-330.51,-249.89L-330.44,-236.75C-330.23,-238.26 -328.74,-241.93 -325.31,-245.39C-321.89,-248.64 -316.73,-251.68 -308.77,-251.73ZM-266.19,-222.24C-266.20,-224.17 -266.21,-227.19 -266.87,-229.34C-267.74,-231.49 -269.47,-232.99 -272.27,-232.97C-275.93,-232.95 -277.43,-230.14 -278.05,-226.70C-278.26,-224.97 -278.46,-223.03 -278.45,-221.09C-278.44,-219.16 -278.43,-217.22 -278.42,-215.50L-300.17,-215.38L-300.20,-220.33C-300.25,-228.95 -297.06,-236.71 -291.92,-242.56C-286.78,-248.40 -279.48,-251.88 -271.08,-251.93C-263.98,-251.97 -257.50,-249.20 -252.52,-244.49C-247.54,-239.78 -244.49,-233.12 -244.45,-225.37L-244.07,-153.01C-244.01,-142.46 -243.34,-137.73 -242.45,-132.57L-263.77,-132.45C-265.72,-134.81 -265.75,-140.41 -265.76,-141.92L-267.26,-141.91C-268.33,-139.96 -270.25,-137.15 -273.25,-134.77C-276.26,-132.38 -280.34,-130.64 -284.65,-130.62C-287.45,-130.60 -291.97,-131.65 -295.44,-135.94C-299.12,-140.01 -302.18,-147.32 -302.24,-159.59C-302.31,-172.73 -298.49,-182.23 -293.35,-188.71C-288.22,-195.20 -281.78,-199.33 -276.41,-202.16C-271.05,-204.98 -266.97,-206.94 -266.12,-209.32ZM-266.01,-189.29C-276.54,-184.71 -281.00,-174.14 -280.94,-162.94C-280.93,-161.43 -280.71,-158.85 -279.83,-156.48C-278.96,-153.90 -277.44,-151.97 -274.85,-151.99C-269.90,-152.01 -265.83,-155.05 -265.85,-159.14ZM-180.22,-132.90L-188.92,-189.06L-190.03,-195.73L-190.89,-195.72L-191.93,-189.04L-200.03,-132.79L-218.12,-132.70L-236.19,-250.39L-216.38,-250.50L-209.16,-188.95L-208.26,-182.28L-206.97,-182.28L-205.93,-188.97L-197.21,-250.60L-184.29,-250.67L-174.92,-189.13L-173.81,-182.46L-172.51,-182.47L-171.69,-189.15L-165.13,-250.77L-145.32,-250.88L-162.13,-132.99ZM-133.92,-133.15L-134.77,-291.42L-116.46,-291.52C-94.93,-291.63 -83.28,-287.39 -76.97,-275.36C-70.87,-263.33 -69.91,-243.53 -69.74,-212.52C-69.57,-181.51 -70.33,-161.91 -76.30,-149.82C-82.48,-137.73 -94.08,-133.36 -115.62,-133.24ZM-110.79,-156.53C-102.82,-156.57 -98.30,-157.45 -95.97,-165.22C-94.92,-168.89 -94.09,-174.49 -93.91,-182.03C-93.74,-189.57 -93.79,-199.69 -93.86,-212.61C-93.93,-225.53 -93.98,-235.65 -94.24,-243.18C-94.49,-250.50 -95.38,-256.10 -96.48,-259.97C-98.89,-267.49 -103.42,-268.33 -111.38,-268.29ZM-0.13,-162.50C-0.72,-151.09 -4.12,-143.10 -11.62,-136.81C-15.48,-133.56 -20.86,-132.03 -27.96,-131.99C-41.96,-131.91 -48.89,-139.63 -52.38,-147.36C-54.34,-151.88 -55.66,-157.04 -55.91,-162.85L-56.23,-222.07C-55.64,-233.48 -52.24,-241.90 -44.74,-248.40C-41.09,-251.65 -35.72,-253.19 -28.61,-253.22C-14.62,-253.30 -7.47,-245.59 -3.98,-238.07C-2.02,-233.55 -0.70,-228.61 -0.46,-223.01ZM-20.91,-222.26C-20.72,-226.78 -21.60,-230.00 -23.76,-232.58C-24.85,-233.65 -26.57,-234.29 -28.51,-234.27C-32.60,-234.25 -34.31,-231.44 -35.15,-228.21C-35.79,-226.48 -36.00,-224.54 -35.77,-222.18L-35.45,-162.96C-35.64,-158.44 -34.55,-155.21 -32.60,-152.85C-31.52,-151.78 -30.00,-151.14 -28.07,-151.15C-23.98,-151.18 -22.05,-153.77 -21.21,-157.01C-20.57,-158.73 -20.37,-160.67 -20.59,-163.04ZM64.19,-134.21L55.49,-190.36L54.38,-197.03L53.52,-197.03L52.48,-190.35L44.38,-134.10L26.29,-134.00L8.22,-251.70L28.03,-251.80L35.25,-190.25L36.15,-183.58L37.44,-183.59L38.48,-190.27L47.20,-251.91L60.12,-251.98L69.49,-190.44L70.60,-183.77L71.89,-183.78L72.72,-190.46L79.28,-252.08L99.09,-252.18L82.28,-134.30ZM132.24,-134.57L110.49,-134.45L109.86,-252.24L131.61,-252.36L131.66,-242.45C132.09,-242.67 132.95,-243.54 134.23,-244.84C136.59,-247.22 139.80,-250.46 143.67,-252.64C145.60,-253.73 147.32,-254.17 149.26,-254.18C155.07,-254.21 159.18,-250.78 161.79,-246.49C164.40,-241.98 165.72,-236.17 165.74,-231.22L166.26,-134.75L144.51,-134.63L144.01,-227.88C143.99,-232.40 141.40,-233.03 138.82,-233.02C136.45,-233.00 135.16,-231.70 133.66,-230.19C133.02,-229.32 132.38,-228.46 131.74,-227.38ZM179.91,-158.73L202.52,-158.85L202.65,-134.95L180.04,-134.82ZM270.55,-163.95C269.96,-152.53 266.56,-144.55 259.05,-138.26C255.20,-135.01 249.82,-133.48 242.71,-133.44C228.72,-133.36 221.79,-141.08 218.30,-148.81C216.34,-153.32 215.02,-158.48 214.77,-164.30L214.45,-223.51C215.04,-234.93 218.44,-243.35 225.94,-249.85C229.58,-253.10 234.96,-254.63 242.07,-254.67C256.06,-254.75 263.21,-247.03 266.70,-239.51C268.66,-235.00 269.98,-230.06 270.22,-224.46ZM249.77,-223.70C249.96,-228.23 249.08,-231.45 246.91,-234.02C245.83,-235.10 244.11,-235.73 242.17,-235.72C238.08,-235.70 236.37,-232.89 235.52,-229.66C234.89,-227.93 234.68,-225.99 234.91,-223.62L235.23,-164.41C235.04,-159.88 236.13,-156.66 238.08,-154.30C239.16,-153.23 240.67,-152.59 242.61,-152.60C246.70,-152.62 248.63,-155.22 249.47,-158.45C250.11,-160.18 250.31,-162.12 250.09,-164.49ZM328.98,-231.02C327.03,-231.65 324.88,-231.86 322.94,-231.85C319.50,-231.83 315.41,-231.38 311.98,-228.13C307.91,-224.66 307.28,-221.00 307.30,-217.34L307.74,-135.51L285.99,-135.39L285.36,-253.18L307.11,-253.30L307.18,-240.16C307.38,-241.67 308.87,-245.34 312.30,-248.80C315.73,-252.05 320.88,-255.09 328.85,-255.14ZM391.84,-192.81C391.26,-181.82 387.42,-174.05 379.92,-168.19C376.06,-165.16 370.68,-163.62 364.01,-163.59C363.36,-163.58 362.71,-163.58 362.07,-163.58C361.42,-163.57 360.56,-163.57 359.91,-163.78C357.99,-162.05 356.92,-160.32 356.93,-158.38C356.94,-155.80 359.10,-154.30 362.34,-153.46C365.57,-152.40 369.45,-151.77 373.55,-151.15C380.44,-150.32 387.77,-148.64 393.83,-144.58C399.66,-140.52 403.79,-134.30 403.84,-123.96C403.90,-112.55 398.99,-104.77 392.12,-100.21C385.04,-95.65 375.58,-93.66 366.75,-93.62C356.41,-93.78 347.58,-95.24 341.53,-98.65C335.26,-102.06 331.79,-107.64 331.74,-116.25C331.72,-120.35 333.86,-123.80 337.07,-126.84C340.28,-129.87 344.58,-132.26 348.66,-134.22C341.54,-136.12 335.49,-140.61 335.44,-149.87C335.42,-153.31 337.34,-156.77 339.91,-160.01C342.47,-163.26 345.69,-165.86 348.91,-167.60C342.64,-171.66 339.60,-178.10 338.06,-183.48C337.18,-186.70 336.52,-189.93 336.28,-193.16L336.11,-225.24C336.92,-236.23 340.32,-244.21 347.82,-250.50C351.47,-253.75 356.84,-255.29 363.52,-255.32C374.50,-255.38 381.20,-250.46 385.32,-244.67C386.82,-246.19 389.39,-248.78 392.82,-251.17C396.04,-253.56 399.69,-255.51 403.14,-255.53L403.24,-236.15C397.43,-236.12 393.13,-235.02 390.55,-233.50C390.77,-232.43 390.99,-231.35 391.21,-230.70C391.22,-229.84 391.22,-228.98 391.44,-228.34C391.66,-227.69 391.66,-226.83 391.67,-226.19ZM370.36,-224.56C370.33,-228.66 369.46,-231.23 367.72,-233.59C366.86,-234.67 365.56,-235.31 363.62,-235.29C360.18,-235.28 358.47,-232.47 357.84,-229.88C357.42,-228.37 357.21,-226.43 357.44,-224.49L357.61,-192.19C357.42,-188.10 358.08,-185.52 360.02,-183.38C360.89,-182.31 362.19,-181.67 363.91,-181.68C367.57,-181.70 369.06,-184.29 369.91,-186.88C370.33,-188.39 370.54,-190.33 370.53,-192.26ZM360.74,-130.41C356.23,-127.80 352.80,-124.55 352.83,-120.03C352.85,-115.51 356.96,-111.87 367.08,-111.92C370.74,-111.94 374.83,-112.61 378.05,-113.92C381.28,-115.23 383.64,-117.18 383.62,-119.98C383.61,-121.92 383.39,-123.42 381.87,-124.92C380.14,-126.42 377.34,-127.48 371.95,-128.31Z" fill="#ffffff" stroke="#000000"/>
    <path d="M-433.25,-126.51L-434.37,-283.15L-416.25,-283.28C-394.94,-283.43 -383.40,-279.25 -377.14,-267.36C-371.08,-255.47 -370.09,-235.87 -369.87,-205.18C-369.65,-174.49 -370.37,-155.10 -376.25,-143.12C-382.35,-131.14 -393.82,-126.80 -415.14,-126.64ZM-410.40,-149.69C-402.51,-149.75 -398.04,-150.64 -395.75,-158.32C-394.71,-161.95 -393.90,-167.50 -393.74,-174.96C-393.58,-182.42 -393.65,-192.44 -393.74,-205.23C-393.83,-218.01 -393.91,-228.03 -394.17,-235.49C-394.44,-242.73 -395.33,-248.27 -396.42,-252.09C-398.82,-259.54 -403.30,-260.36 -411.19,-260.30ZM-311.60,-221.80C-313.52,-222.42 -315.65,-222.62 -317.57,-222.61C-320.98,-222.58 -325.02,-222.13 -328.41,-218.91C-332.44,-215.47 -333.05,-211.84 -333.02,-208.22L-332.45,-127.23L-353.97,-127.08L-354.80,-243.65L-333.28,-243.81L-333.19,-230.81C-332.98,-232.30 -331.52,-235.93 -328.13,-239.37C-324.74,-242.59 -319.65,-245.61 -311.77,-245.67ZM-269.57,-216.55C-269.59,-218.47 -269.61,-221.46 -270.26,-223.58C-271.13,-225.71 -272.84,-227.19 -275.62,-227.17C-279.24,-227.14 -280.71,-224.36 -281.33,-220.95C-281.53,-219.24 -281.73,-217.32 -281.71,-215.40C-281.70,-213.48 -281.68,-211.57 -281.67,-209.86L-303.20,-209.71L-303.23,-214.61C-303.29,-223.13 -300.15,-230.83 -295.08,-236.62C-290.00,-242.41 -282.78,-245.87 -274.47,-245.93C-267.44,-245.98 -261.02,-243.26 -256.09,-238.60C-251.15,-233.95 -248.12,-227.36 -248.07,-219.69L-247.56,-148.09C-247.48,-137.64 -246.81,-132.96 -245.92,-127.85L-267.02,-127.70C-268.96,-130.03 -268.99,-135.57 -269.01,-137.06L-270.50,-137.05C-271.55,-135.13 -273.45,-132.34 -276.41,-129.98C-279.38,-127.61 -283.42,-125.88 -287.68,-125.85C-290.45,-125.83 -294.93,-126.86 -298.37,-131.10C-302.03,-135.12 -305.06,-142.35 -305.15,-154.49C-305.24,-167.49 -301.47,-176.90 -296.40,-183.33C-291.33,-189.76 -284.97,-193.85 -279.66,-196.66C-274.35,-199.47 -270.32,-201.42 -269.48,-203.77ZM-269.34,-183.95C-279.75,-179.40 -284.15,-168.92 -284.07,-157.84C-284.06,-156.35 -283.83,-153.79 -282.96,-151.46C-282.09,-148.90 -280.59,-147.00 -278.03,-147.02C-273.13,-147.05 -269.10,-150.06 -269.13,-154.11ZM-184.33,-128.29L-193.04,-183.85L-194.15,-190.45L-195.01,-190.45L-196.02,-183.83L-203.94,-128.15L-221.84,-128.02L-239.93,-244.47L-220.33,-244.61L-213.07,-183.71L-212.17,-177.11L-210.89,-177.12L-209.88,-183.73L-201.36,-244.75L-188.57,-244.84L-179.19,-183.95L-178.08,-177.35L-176.80,-177.36L-175.99,-183.97L-169.61,-244.97L-150.00,-245.11L-166.43,-128.42ZM-138.51,-128.62L-139.63,-285.25L-121.51,-285.38C-100.20,-285.54 -88.66,-281.36 -82.40,-269.47C-76.35,-257.57 -75.35,-237.97 -75.14,-207.28C-74.92,-176.60 -75.63,-157.20 -81.51,-145.22C-87.61,-133.24 -99.09,-128.90 -120.40,-128.74ZM-115.66,-151.80C-107.77,-151.85 -103.31,-152.74 -101.02,-160.43C-99.98,-164.06 -99.16,-169.60 -99.00,-177.06C-98.84,-184.52 -98.91,-194.54 -99.01,-207.33C-99.10,-220.11 -99.17,-230.13 -99.43,-237.59C-99.70,-244.83 -100.59,-250.37 -101.68,-254.20C-104.08,-261.64 -108.56,-262.46 -116.45,-262.40ZM-6.16,-157.91C-6.72,-146.61 -10.07,-138.70 -17.48,-132.46C-21.30,-129.24 -26.62,-127.71 -33.65,-127.66C-47.50,-127.56 -54.37,-135.18 -57.84,-142.83C-59.79,-147.29 -61.10,-152.40 -61.36,-158.15L-61.78,-216.76C-61.22,-228.06 -57.87,-236.39 -50.45,-242.84C-46.85,-246.06 -41.54,-247.59 -34.50,-247.64C-20.65,-247.74 -13.56,-240.12 -10.10,-232.68C-8.15,-228.22 -6.84,-223.33 -6.58,-217.79ZM-26.83,-217.01C-26.64,-221.48 -27.52,-224.67 -29.67,-227.22C-30.74,-228.27 -32.45,-228.90 -34.37,-228.89C-38.42,-228.86 -40.10,-226.08 -40.93,-222.87C-41.56,-221.16 -41.76,-219.24 -41.53,-216.90L-41.11,-158.30C-41.29,-153.82 -40.21,-150.63 -38.27,-148.30C-37.20,-147.24 -35.70,-146.61 -33.78,-146.63C-29.73,-146.65 -27.83,-149.23 -27.00,-152.43C-26.38,-154.14 -26.18,-156.06 -26.41,-158.40ZM57.55,-130.01L48.84,-185.58L47.73,-192.18L46.88,-192.17L45.86,-185.56L37.95,-129.87L20.04,-129.75L1.95,-246.20L21.56,-246.34L28.81,-185.43L29.71,-178.83L30.99,-178.84L32.01,-185.46L40.53,-246.47L53.31,-246.56L62.70,-185.68L63.81,-179.08L65.09,-179.09L65.89,-185.70L72.28,-246.70L91.89,-246.84L75.45,-130.14ZM124.90,-130.49L103.37,-130.34L102.54,-246.91L124.07,-247.07L124.14,-237.26C124.56,-237.48 125.41,-238.34 126.68,-239.63C129.00,-241.99 132.18,-245.21 136.00,-247.37C137.91,-248.44 139.61,-248.88 141.53,-248.90C147.28,-248.94 151.36,-245.56 153.94,-241.31C156.53,-236.86 157.85,-231.11 157.89,-226.21L158.57,-130.73L137.04,-130.58L136.39,-222.86C136.35,-227.33 133.79,-227.96 131.24,-227.94C128.89,-227.92 127.62,-226.63 126.14,-225.13C125.51,-224.27 124.87,-223.42 124.24,-222.35ZM172.04,-154.49L194.42,-154.65L194.59,-130.99L172.21,-130.83ZM261.73,-159.82C261.17,-148.52 257.82,-140.61 250.40,-134.37C246.59,-131.15 241.27,-129.62 234.24,-129.57C220.38,-129.47 213.51,-137.09 210.05,-144.74C208.10,-149.20 206.78,-154.31 206.53,-160.06L206.11,-218.67C206.67,-229.97 210.02,-238.30 217.43,-244.75C221.03,-247.97 226.35,-249.50 233.38,-249.55C247.23,-249.65 254.32,-242.03 257.78,-234.59C259.73,-230.13 261.05,-225.24 261.30,-219.70ZM241.06,-218.92C241.24,-223.39 240.37,-226.58 238.22,-229.13C237.14,-230.18 235.43,-230.81 233.52,-230.80C229.47,-230.77 227.78,-227.99 226.95,-224.78C226.32,-223.07 226.12,-221.15 226.35,-218.81L226.77,-160.21C226.59,-155.73 227.68,-152.54 229.61,-150.21C230.69,-149.15 232.18,-148.52 234.10,-148.54C238.15,-148.56 240.05,-151.14 240.88,-154.34C241.51,-156.05 241.71,-157.97 241.48,-160.31ZM319.44,-226.30C317.51,-226.92 315.38,-227.12 313.46,-227.11C310.05,-227.08 306.01,-226.63 302.62,-223.40C298.60,-219.97 297.98,-216.34 298.01,-212.72L298.59,-131.73L277.06,-131.58L276.23,-248.15L297.75,-248.31L297.85,-235.31C298.05,-236.80 299.52,-240.43 302.90,-243.87C306.29,-247.09 311.38,-250.11 319.27,-250.16ZM381.73,-188.59C381.16,-177.72 377.38,-170.02 369.96,-164.21C366.15,-161.20 360.83,-159.67 354.23,-159.62C353.59,-159.62 352.95,-159.61 352.31,-159.61C351.67,-159.60 350.82,-159.60 350.17,-159.81C348.27,-158.09 347.22,-156.38 347.23,-154.46C347.25,-151.90 349.39,-150.42 352.59,-149.59C355.80,-148.55 359.64,-147.94 363.69,-147.33C370.52,-146.52 377.77,-144.87 383.77,-140.86C389.55,-136.86 393.65,-130.70 393.72,-120.48C393.80,-109.18 388.95,-101.47 382.17,-96.95C375.16,-92.42 365.80,-90.44 357.06,-90.38C346.83,-90.52 338.08,-91.95 332.09,-95.31C325.89,-98.68 322.44,-104.20 322.38,-112.72C322.35,-116.77 324.46,-120.19 327.63,-123.20C330.81,-126.21 335.05,-128.58 339.09,-130.53C332.04,-132.40 326.04,-136.83 325.98,-145.99C325.95,-149.40 327.85,-152.83 330.38,-156.04C332.92,-159.26 336.09,-161.84 339.28,-163.56C333.07,-167.57 330.04,-173.94 328.51,-179.26C327.64,-182.45 326.97,-185.64 326.74,-188.84L326.51,-220.59C327.29,-231.47 330.64,-239.38 338.05,-245.61C341.65,-248.83 346.97,-250.36 353.58,-250.41C364.45,-250.49 371.09,-245.63 375.18,-239.91C376.66,-241.41 379.20,-243.98 382.59,-246.35C385.77,-248.72 389.38,-250.66 392.79,-250.69L392.93,-231.51C387.17,-231.47 382.92,-230.37 380.37,-228.86C380.59,-227.80 380.81,-226.73 381.03,-226.10C381.04,-225.24 381.04,-224.39 381.26,-223.75C381.48,-223.11 381.49,-222.26 381.49,-221.62ZM360.40,-219.98C360.37,-224.03 359.50,-226.58 357.78,-228.91C356.92,-229.97 355.64,-230.60 353.72,-230.59C350.31,-230.56 348.62,-227.78 348.00,-225.22C347.59,-223.73 347.39,-221.81 347.62,-219.89L347.84,-187.92C347.66,-183.87 348.32,-181.32 350.25,-179.20C351.11,-178.14 352.39,-177.51 354.10,-177.52C357.72,-177.55 359.19,-180.12 360.03,-182.68C360.44,-184.18 360.64,-186.10 360.63,-188.01ZM351.05,-126.78C346.59,-124.19 343.21,-120.97 343.24,-116.49C343.27,-112.02 347.34,-108.42 357.36,-108.49C360.98,-108.52 365.03,-109.19 368.22,-110.49C371.40,-111.79 373.73,-113.73 373.71,-116.50C373.70,-118.41 373.48,-119.90 371.97,-121.39C370.26,-122.87 367.48,-123.91 362.15,-124.73Z" fill="#ffffff" stroke="#000000"/>
    <path d="M-434.63,-121.53L-436.02,-276.54L-418.09,-276.70C-397.00,-276.88 -385.57,-272.77 -379.35,-261.01C-373.34,-249.26 -372.33,-229.86 -372.06,-199.49C-371.79,-169.12 -372.46,-149.93 -378.26,-138.06C-384.27,-126.20 -395.62,-121.88 -416.71,-121.69ZM-412.06,-144.51C-404.26,-144.58 -399.84,-145.46 -397.58,-153.08C-396.56,-156.67 -395.77,-162.16 -395.62,-169.54C-395.48,-176.93 -395.57,-186.84 -395.68,-199.49C-395.79,-212.15 -395.88,-222.06 -396.16,-229.44C-396.43,-236.61 -397.32,-242.08 -398.41,-245.87C-400.80,-253.23 -405.23,-254.03 -413.04,-253.96ZM-314.41,-216.04C-316.32,-216.65 -318.43,-216.84 -320.33,-216.83C-323.70,-216.80 -327.70,-216.34 -331.05,-213.15C-335.03,-209.74 -335.63,-206.14 -335.60,-202.56L-334.88,-122.42L-356.18,-122.23L-357.21,-237.59L-335.91,-237.78L-335.80,-224.91C-335.60,-226.39 -334.15,-229.99 -330.81,-233.39C-327.46,-236.59 -322.43,-239.59 -314.63,-239.66ZM-272.82,-210.92C-272.84,-212.82 -272.86,-215.77 -273.51,-217.88C-274.38,-219.98 -276.08,-221.44 -278.82,-221.41C-282.40,-221.38 -283.86,-218.63 -284.46,-215.25C-284.65,-213.56 -284.85,-211.66 -284.83,-209.76C-284.81,-207.86 -284.80,-205.96 -284.78,-204.28L-306.08,-204.09L-306.13,-208.94C-306.20,-217.37 -303.11,-224.99 -298.09,-230.73C-293.08,-236.47 -285.94,-239.91 -277.72,-239.98C-270.76,-240.05 -264.41,-237.36 -259.52,-232.76C-254.62,-228.17 -251.61,-221.66 -251.55,-214.06L-250.91,-143.21C-250.82,-132.87 -250.15,-128.24 -249.26,-123.18L-270.14,-123.00C-272.06,-125.30 -272.11,-130.78 -272.12,-132.26L-273.60,-132.25C-274.63,-130.34 -276.51,-127.58 -279.44,-125.23C-282.37,-122.89 -286.36,-121.17 -290.58,-121.13C-293.32,-121.10 -297.76,-122.12 -301.17,-126.31C-304.79,-130.28 -307.81,-137.43 -307.92,-149.45C-308.03,-162.31 -304.32,-171.62 -299.31,-178.00C-294.31,-184.37 -288.02,-188.43 -282.77,-191.22C-277.52,-194.01 -273.53,-195.94 -272.71,-198.27ZM-272.53,-178.66C-282.83,-174.14 -287.16,-163.76 -287.07,-152.80C-287.05,-151.32 -286.82,-148.79 -285.95,-146.48C-285.09,-143.96 -283.60,-142.07 -281.06,-142.09C-276.21,-142.14 -272.23,-145.12 -272.27,-149.13ZM-188.31,-123.73L-197.03,-178.70L-198.14,-185.22L-198.98,-185.22L-199.98,-178.67L-207.71,-123.55L-225.43,-123.40L-243.54,-238.60L-224.14,-238.77L-216.85,-178.52L-215.95,-171.99L-214.68,-172.00L-213.69,-178.55L-205.37,-238.94L-192.71,-239.05L-183.32,-178.82L-182.21,-172.29L-180.94,-172.30L-180.16,-178.85L-173.95,-239.22L-154.54,-239.39L-170.60,-123.88ZM-142.97,-124.13L-144.35,-279.14L-126.43,-279.30C-105.34,-279.48 -93.91,-275.37 -87.69,-263.61C-81.68,-251.85 -80.66,-232.46 -80.39,-202.09C-80.12,-171.72 -80.79,-152.52 -86.59,-140.66C-92.61,-128.80 -103.96,-124.48 -125.04,-124.29ZM-120.40,-147.11C-112.59,-147.18 -108.17,-148.06 -105.92,-155.68C-104.90,-159.27 -104.10,-164.76 -103.96,-172.14C-103.81,-179.53 -103.90,-189.44 -104.01,-202.09C-104.13,-214.75 -104.22,-224.66 -104.49,-232.04C-104.77,-239.21 -105.66,-244.68 -106.75,-248.47C-109.13,-255.83 -113.57,-256.63 -121.37,-256.56ZM-12.05,-153.35C-12.58,-142.17 -15.88,-134.33 -23.21,-128.15C-26.98,-124.95 -32.24,-123.43 -39.20,-123.37C-52.90,-123.25 -59.72,-130.78 -63.16,-138.34C-65.10,-142.75 -66.41,-147.80 -66.67,-153.49L-67.19,-211.49C-66.66,-222.67 -63.36,-230.93 -56.03,-237.32C-52.47,-240.52 -47.21,-242.04 -40.26,-242.10C-26.55,-242.22 -19.52,-234.69 -16.08,-227.34C-14.14,-222.93 -12.83,-218.09 -12.57,-212.61ZM-32.60,-211.80C-32.43,-216.23 -33.30,-219.38 -35.44,-221.90C-36.50,-222.94 -38.19,-223.56 -40.09,-223.54C-44.10,-223.51 -45.76,-220.75 -46.57,-217.58C-47.19,-215.89 -47.39,-213.99 -47.15,-211.67L-46.64,-153.67C-46.81,-149.24 -45.73,-146.09 -43.81,-143.79C-42.74,-142.74 -41.26,-142.12 -39.36,-142.14C-35.36,-142.17 -33.48,-144.72 -32.67,-147.89C-32.05,-149.58 -31.85,-151.48 -32.09,-153.80ZM51.05,-125.86L42.33,-180.83L41.22,-187.36L40.38,-187.35L39.38,-180.80L31.65,-125.69L13.93,-125.53L-4.18,-240.73L15.22,-240.91L22.51,-180.65L23.41,-174.12L24.68,-174.13L25.67,-180.68L33.99,-241.07L46.65,-241.19L56.04,-180.95L57.15,-174.42L58.42,-174.43L59.21,-180.98L65.42,-241.35L84.82,-241.53L68.76,-126.02ZM117.69,-126.45L96.39,-126.26L95.36,-241.62L116.66,-241.81L116.75,-232.11C117.17,-232.33 118.01,-233.18 119.26,-234.45C121.56,-236.79 124.69,-239.98 128.47,-242.13C130.36,-243.20 132.04,-243.64 133.94,-243.65C139.64,-243.70 143.67,-240.37 146.24,-236.17C148.81,-231.76 150.13,-226.08 150.17,-221.23L151.01,-126.75L129.71,-126.56L128.90,-217.88C128.86,-222.31 126.32,-222.92 123.79,-222.89C121.47,-222.87 120.22,-221.60 118.75,-220.11C118.13,-219.26 117.50,-218.41 116.88,-217.35ZM164.30,-150.28L186.44,-150.48L186.65,-127.07L164.51,-126.87ZM253.04,-155.71C252.51,-144.53 249.21,-136.70 241.88,-130.51C238.11,-127.32 232.85,-125.79 225.89,-125.73C212.19,-125.61 205.37,-133.14 201.93,-140.70C199.99,-145.11 198.68,-150.16 198.42,-155.86L197.90,-213.85C198.43,-225.03 201.74,-233.29 209.06,-239.68C212.62,-242.88 217.88,-244.40 224.84,-244.46C238.54,-244.59 245.57,-237.06 249.01,-229.70C250.95,-225.29 252.26,-220.45 252.52,-214.97ZM232.49,-214.16C232.66,-218.59 231.79,-221.75 229.66,-224.26C228.59,-225.30 226.90,-225.92 225.00,-225.90C220.99,-225.87 219.33,-223.11 218.52,-219.94C217.90,-218.25 217.70,-216.35 217.94,-214.03L218.45,-156.04C218.28,-151.60 219.36,-148.45 221.28,-146.15C222.35,-145.10 223.83,-144.48 225.73,-144.50C229.73,-144.54 231.61,-147.08 232.42,-150.25C233.04,-151.95 233.24,-153.85 233.00,-156.17ZM310.04,-221.60C308.13,-222.22 306.02,-222.41 304.12,-222.39C300.75,-222.36 296.75,-221.90 293.40,-218.71C289.42,-215.30 288.82,-211.71 288.85,-208.12L289.57,-127.99L268.27,-127.80L267.24,-243.15L288.54,-243.34L288.65,-230.48C288.85,-231.96 290.30,-235.56 293.64,-238.96C296.99,-242.15 302.02,-245.15 309.82,-245.22ZM371.74,-184.40C371.20,-173.64 367.48,-166.01 360.15,-160.25C356.38,-157.26 351.12,-155.74 344.58,-155.68C343.95,-155.68 343.31,-155.67 342.68,-155.67C342.05,-155.66 341.20,-155.65 340.57,-155.86C338.69,-154.15 337.65,-152.46 337.66,-150.56C337.69,-148.03 339.81,-146.57 342.98,-145.76C346.15,-144.73 349.95,-144.13 353.97,-143.53C360.72,-142.75 367.91,-141.13 373.85,-137.17C379.58,-133.22 383.64,-127.14 383.73,-117.01C383.83,-105.84 379.05,-98.20 372.34,-93.71C365.42,-89.22 356.16,-87.24 347.51,-87.16C337.39,-87.28 328.73,-88.68 322.79,-92.01C316.64,-95.33 313.22,-100.78 313.15,-109.21C313.11,-113.22 315.19,-116.61 318.33,-119.59C321.46,-122.58 325.66,-124.93 329.65,-126.87C322.67,-128.70 316.73,-133.08 316.65,-142.15C316.62,-145.52 318.49,-148.91 320.99,-152.10C323.49,-155.28 326.63,-157.84 329.78,-159.56C323.63,-163.51 320.62,-169.81 319.10,-175.07C318.23,-178.23 317.56,-181.38 317.33,-184.55L317.05,-215.97C317.79,-226.73 321.10,-234.56 328.42,-240.75C331.98,-243.94 337.24,-245.46 343.78,-245.52C354.53,-245.62 361.11,-240.83 365.17,-235.17C366.64,-236.66 369.14,-239.21 372.50,-241.56C375.64,-243.91 379.21,-245.84 382.58,-245.87L382.75,-226.89C377.06,-226.84 372.85,-225.75 370.33,-224.25C370.55,-223.19 370.77,-222.14 370.99,-221.51C371.00,-220.67 371.00,-219.82 371.22,-219.19C371.44,-218.56 371.44,-217.72 371.45,-217.09ZM350.58,-215.42C350.55,-219.43 349.68,-221.95 347.98,-224.26C347.12,-225.31 345.85,-225.93 343.95,-225.91C340.58,-225.88 338.92,-223.12 338.31,-220.59C337.90,-219.11 337.70,-217.21 337.93,-215.31L338.21,-183.68C338.04,-179.67 338.69,-177.14 340.61,-175.05C341.46,-174.00 342.73,-173.38 344.42,-173.40C348.01,-173.43 349.46,-175.97 350.28,-178.51C350.69,-179.99 350.88,-181.89 350.87,-183.79ZM341.49,-123.18C337.09,-120.61 333.74,-117.41 333.78,-112.98C333.82,-108.55 337.86,-105.01 347.77,-105.09C351.36,-105.13 355.36,-105.79 358.51,-107.09C361.66,-108.38 363.97,-110.30 363.94,-113.04C363.92,-114.94 363.70,-116.41 362.21,-117.88C360.51,-119.34 357.76,-120.37 352.48,-121.16Z" fill="#ffffff" stroke="#000000"/>
    <path d="M-435.88,-116.61L-437.52,-269.98L-419.79,-270.17C-398.92,-270.39 -387.61,-266.34 -381.43,-254.72C-375.46,-243.09 -374.42,-223.90 -374.10,-193.86C-373.78,-163.81 -374.41,-144.81 -380.13,-133.06C-386.05,-121.31 -397.28,-117.02 -418.15,-116.79ZM-413.59,-139.38C-405.87,-139.47 -401.49,-140.35 -399.28,-147.88C-398.27,-151.44 -397.50,-156.88 -397.37,-164.18C-397.23,-171.49 -397.34,-181.29 -397.47,-193.81C-397.61,-206.33 -397.71,-216.14 -398.00,-223.44C-398.28,-230.54 -399.18,-235.95 -400.26,-239.70C-402.63,-246.98 -407.02,-247.76 -414.74,-247.68ZM-317.10,-210.33C-318.98,-210.93 -321.07,-211.12 -322.95,-211.10C-326.29,-211.06 -330.25,-210.60 -333.55,-207.44C-337.48,-204.06 -338.07,-200.50 -338.03,-196.95L-337.18,-117.66L-358.26,-117.44L-359.48,-231.58L-338.40,-231.80L-338.27,-219.07C-338.07,-220.54 -336.65,-224.10 -333.35,-227.47C-330.04,-230.64 -325.07,-233.61 -317.34,-233.70ZM-275.93,-205.34C-275.95,-207.22 -275.98,-210.14 -276.63,-212.22C-277.49,-214.30 -279.17,-215.74 -281.88,-215.71C-285.43,-215.67 -286.86,-212.95 -287.45,-209.60C-287.64,-207.93 -287.83,-206.05 -287.81,-204.17C-287.79,-202.29 -287.77,-200.41 -287.75,-198.74L-308.83,-198.52L-308.88,-203.32C-308.97,-211.67 -305.92,-219.21 -300.97,-224.90C-296.03,-230.59 -288.97,-234.00 -280.83,-234.09C-273.94,-234.16 -267.65,-231.52 -262.80,-226.98C-257.96,-222.44 -254.97,-216.00 -254.89,-208.49L-254.14,-138.37C-254.03,-128.15 -253.35,-123.57 -252.46,-118.57L-273.12,-118.35C-275.02,-120.62 -275.08,-126.05 -275.10,-127.51L-276.56,-127.49C-277.58,-125.60 -279.43,-122.87 -282.33,-120.54C-285.22,-118.22 -289.17,-116.50 -293.34,-116.46C-296.06,-116.43 -300.45,-117.43 -303.83,-121.57C-307.42,-125.49 -310.42,-132.56 -310.55,-144.45C-310.68,-157.18 -307.03,-166.40 -302.08,-172.71C-297.14,-179.03 -290.93,-183.06 -285.74,-185.83C-280.55,-188.60 -276.61,-190.52 -275.80,-192.82ZM-275.59,-173.41C-285.77,-168.92 -290.04,-158.65 -289.92,-147.80C-289.91,-146.34 -289.67,-143.84 -288.81,-141.55C-287.95,-139.06 -286.47,-137.19 -283.97,-137.22C-279.17,-137.27 -275.23,-140.24 -275.28,-144.20ZM-192.16,-119.21L-200.88,-173.59L-201.99,-180.04L-202.83,-180.04L-203.80,-173.56L-211.36,-119.01L-228.88,-118.82L-247.01,-232.78L-227.81,-232.99L-220.49,-173.38L-219.59,-166.92L-218.34,-166.93L-217.36,-173.41L-209.24,-233.18L-196.72,-233.32L-187.31,-173.73L-186.20,-167.27L-184.95,-167.29L-184.18,-173.77L-178.15,-233.52L-158.95,-233.72L-174.63,-119.40ZM-147.29,-119.69L-148.93,-273.06L-131.20,-273.25C-110.33,-273.48 -99.02,-269.42 -92.84,-257.80C-86.87,-246.18 -85.83,-226.99 -85.51,-196.94C-85.19,-166.89 -85.82,-147.90 -91.54,-136.15C-97.47,-124.40 -108.69,-120.10 -129.56,-119.88ZM-125.00,-142.47C-117.28,-142.55 -112.90,-143.43 -110.69,-150.97C-109.68,-154.53 -108.91,-159.96 -108.78,-167.27C-108.65,-174.57 -108.75,-184.38 -108.89,-196.90C-109.02,-209.42 -109.12,-219.23 -109.41,-226.53C-109.70,-233.62 -110.59,-239.04 -111.67,-242.78C-114.05,-250.06 -118.44,-250.85 -126.16,-250.77ZM-17.80,-148.83C-18.31,-137.77 -21.56,-130.01 -28.80,-123.88C-32.52,-120.71 -37.73,-119.19 -44.61,-119.12C-58.17,-118.98 -64.93,-126.42 -68.35,-133.89C-70.28,-138.25 -71.58,-143.25 -71.85,-148.88L-72.46,-206.26C-71.96,-217.33 -68.71,-225.50 -61.47,-231.84C-57.95,-235.01 -52.75,-236.53 -45.87,-236.60C-32.30,-236.75 -25.34,-229.31 -21.92,-222.04C-20.00,-217.68 -18.69,-212.89 -18.43,-207.47ZM-38.24,-206.63C-38.08,-211.01 -38.95,-214.14 -41.06,-216.62C-42.12,-217.65 -43.79,-218.26 -45.67,-218.24C-49.64,-218.20 -51.28,-215.46 -52.08,-212.33C-52.69,-210.65 -52.87,-208.77 -52.64,-206.48L-52.03,-149.09C-52.19,-144.71 -51.11,-141.59 -49.21,-139.31C-48.16,-138.28 -46.69,-137.67 -44.81,-137.69C-40.85,-137.73 -38.99,-140.26 -38.19,-143.40C-37.58,-145.07 -37.40,-146.95 -37.63,-149.25ZM44.68,-121.74L35.96,-176.12L34.85,-182.58L34.01,-182.57L33.04,-176.09L25.48,-121.54L7.96,-121.35L-10.17,-235.31L9.03,-235.52L16.35,-175.91L17.25,-169.45L18.50,-169.46L19.48,-175.94L27.60,-235.72L40.12,-235.85L49.52,-176.27L50.64,-169.81L51.89,-169.82L52.65,-176.30L58.69,-236.05L77.89,-236.25L62.21,-121.93ZM110.62,-122.45L89.54,-122.22L88.32,-236.37L109.40,-236.59L109.50,-226.99C109.92,-227.21 110.74,-228.05 111.98,-229.31C114.25,-231.63 117.35,-234.80 121.08,-236.93C122.95,-237.99 124.61,-238.42 126.49,-238.44C132.13,-238.50 136.13,-235.21 138.68,-231.06C141.23,-226.71 142.54,-221.09 142.59,-216.29L143.59,-122.80L122.51,-122.58L121.55,-212.93C121.50,-217.31 118.99,-217.91 116.49,-217.88C114.19,-217.86 112.95,-216.60 111.51,-215.12C110.89,-214.28 110.27,-213.44 109.66,-212.39ZM156.70,-146.11L178.61,-146.34L178.85,-123.18L156.94,-122.95ZM244.50,-151.64C243.99,-140.57 240.73,-132.82 233.49,-126.69C229.77,-123.52 224.57,-122.00 217.68,-121.93C204.12,-121.78 197.36,-129.22 193.94,-136.70C192.02,-141.06 190.71,-146.05 190.44,-151.69L189.83,-209.07C190.34,-220.14 193.59,-228.31 200.83,-234.65C204.34,-237.82 209.54,-239.33 216.43,-239.41C229.99,-239.55 236.96,-232.11 240.37,-224.84C242.30,-220.48 243.60,-215.70 243.87,-210.27ZM224.05,-209.44C224.21,-213.82 223.35,-216.94 221.23,-219.42C220.18,-220.45 218.50,-221.06 216.62,-221.04C212.66,-221.00 211.02,-218.27 210.22,-215.13C209.61,-213.45 209.42,-211.57 209.65,-209.28L210.27,-151.90C210.11,-147.51 211.18,-144.39 213.09,-142.12C214.14,-141.09 215.61,-140.48 217.49,-140.50C221.45,-140.54 223.30,-143.06 224.10,-146.20C224.71,-147.88 224.90,-149.76 224.67,-152.05ZM300.77,-216.93C298.89,-217.54 296.80,-217.73 294.92,-217.71C291.58,-217.67 287.62,-217.21 284.32,-214.05C280.39,-210.66 279.80,-207.11 279.84,-203.56L280.68,-124.27L259.61,-124.04L258.39,-238.18L279.46,-238.41L279.60,-225.68C279.79,-227.14 281.22,-230.71 284.52,-234.08C287.82,-237.25 292.80,-240.22 300.52,-240.30ZM361.89,-180.23C361.38,-169.58 357.71,-162.03 350.46,-156.32C346.74,-153.36 341.54,-151.84 335.07,-151.77C334.44,-151.76 333.82,-151.76 333.19,-151.75C332.56,-151.74 331.73,-151.74 331.10,-151.94C329.24,-150.25 328.21,-148.57 328.23,-146.69C328.26,-144.19 330.36,-142.75 333.50,-141.95C336.64,-140.94 340.41,-140.35 344.38,-139.77C351.06,-139.00 358.18,-137.41 364.06,-133.51C369.74,-129.60 373.77,-123.59 373.88,-113.58C373.99,-102.52 369.27,-94.96 362.64,-90.50C355.80,-86.05 346.64,-84.07 338.09,-83.98C328.07,-84.08 319.50,-85.45 313.62,-88.73C307.53,-92.00 304.14,-97.39 304.05,-105.74C304.00,-109.70 306.06,-113.06 309.15,-116.02C312.25,-118.97 316.40,-121.31 320.35,-123.23C313.44,-125.04 307.55,-129.36 307.46,-138.33C307.42,-141.67 309.26,-145.03 311.73,-148.18C314.20,-151.34 317.31,-153.88 320.42,-155.58C314.32,-159.48 311.34,-165.71 309.82,-170.91C308.95,-174.03 308.29,-177.15 308.05,-180.28L307.72,-211.37C308.44,-222.02 311.69,-229.78 318.93,-235.91C322.45,-239.08 327.65,-240.60 334.12,-240.66C344.76,-240.78 351.28,-236.05 355.30,-230.46C356.75,-231.93 359.23,-234.46 362.54,-236.79C365.65,-239.12 369.17,-241.04 372.51,-241.07L372.71,-222.29C367.08,-222.23 362.92,-221.15 360.43,-219.66C360.65,-218.62 360.87,-217.58 361.08,-216.95C361.09,-216.12 361.10,-215.28 361.32,-214.66C361.53,-214.04 361.54,-213.20 361.55,-212.58ZM340.90,-210.89C340.86,-214.86 340.00,-217.35 338.31,-219.63C337.46,-220.67 336.20,-221.28 334.32,-221.26C330.99,-221.22 329.35,-218.49 328.75,-215.98C328.34,-214.52 328.16,-212.64 328.38,-210.76L328.72,-179.46C328.55,-175.49 329.21,-173.00 331.11,-170.93C331.95,-169.89 333.21,-169.28 334.88,-169.30C338.43,-169.34 339.86,-171.86 340.67,-174.37C341.07,-175.84 341.26,-177.72 341.24,-179.59ZM332.07,-119.60C327.72,-117.05 324.41,-113.88 324.46,-109.50C324.51,-105.12 328.51,-101.62 338.32,-101.72C341.86,-101.76 345.82,-102.43 348.94,-103.71C352.05,-105.00 354.33,-106.90 354.30,-109.61C354.28,-111.49 354.06,-112.95 352.58,-114.39C350.89,-115.84 348.17,-116.85 342.95,-117.63Z" fill="#ffffff" stroke="#000000"/>
    <path d="M-436.99,-111.74L-438.89,-263.47L-421.34,-263.69C-400.70,-263.95 -389.50,-259.96 -383.37,-248.47C-377.44,-236.98 -376.38,-218.00 -376.01,-188.27C-375.64,-158.55 -376.23,-139.75 -381.86,-128.12C-387.71,-116.48 -398.80,-112.21 -419.45,-111.96ZM-414.98,-134.31C-407.34,-134.41 -403.01,-135.29 -400.84,-142.75C-399.85,-146.27 -399.09,-151.65 -398.97,-158.87C-398.86,-166.10 -398.98,-175.81 -399.13,-188.19C-399.29,-200.58 -399.41,-210.28 -399.70,-217.50C-400.00,-224.52 -400.89,-229.88 -401.97,-233.58C-404.33,-240.78 -408.68,-241.55 -416.31,-241.46ZM-319.64,-204.67C-321.50,-205.27 -323.57,-205.45 -325.43,-205.42C-328.73,-205.38 -332.65,-204.92 -335.91,-201.78C-339.79,-198.43 -340.37,-194.91 -340.33,-191.40L-339.35,-112.95L-360.20,-112.69L-361.61,-225.62L-340.76,-225.88L-340.60,-213.29C-340.41,-214.73 -339.01,-218.26 -335.75,-221.61C-332.48,-224.74 -327.56,-227.70 -319.93,-227.79ZM-278.90,-199.81C-278.92,-201.67 -278.96,-204.56 -279.60,-206.61C-280.46,-208.67 -282.13,-210.09 -284.81,-210.06C-288.32,-210.02 -289.73,-207.31 -290.31,-204.00C-290.49,-202.35 -290.68,-200.49 -290.65,-198.63C-290.63,-196.77 -290.61,-194.91 -290.59,-193.26L-311.44,-193.00L-311.50,-197.75C-311.60,-206.01 -308.60,-213.48 -303.71,-219.12C-298.83,-224.75 -291.85,-228.14 -283.80,-228.24C-276.99,-228.33 -270.76,-225.72 -265.95,-221.24C-261.15,-216.76 -258.18,-210.39 -258.09,-202.96L-257.22,-133.59C-257.09,-123.48 -256.42,-118.95 -255.53,-114.00L-275.97,-113.75C-277.85,-115.99 -277.92,-121.36 -277.94,-122.81L-279.38,-122.79C-280.39,-120.92 -282.22,-118.21 -285.08,-115.90C-287.94,-113.60 -291.84,-111.90 -295.97,-111.84C-298.66,-111.81 -303.00,-112.79 -306.36,-116.88C-309.92,-120.76 -312.90,-127.74 -313.04,-139.51C-313.20,-152.10 -309.60,-161.23 -304.72,-167.48C-299.84,-173.74 -293.70,-177.74 -288.57,-180.49C-283.44,-183.23 -279.54,-185.14 -278.75,-187.42ZM-278.51,-168.22C-288.57,-163.76 -292.78,-153.59 -292.64,-142.86C-292.63,-141.41 -292.39,-138.94 -291.53,-136.68C-290.68,-134.21 -289.21,-132.37 -286.73,-132.40C-281.98,-132.46 -278.10,-135.40 -278.15,-139.32ZM-195.87,-114.75L-204.59,-168.53L-205.70,-174.91L-206.53,-174.90L-207.48,-168.49L-214.86,-114.51L-232.20,-114.29L-250.33,-227.01L-231.34,-227.24L-224.00,-168.28L-223.09,-161.90L-221.85,-161.91L-220.90,-168.32L-212.97,-227.47L-200.58,-227.63L-191.17,-168.69L-190.06,-162.31L-188.82,-162.32L-188.08,-168.73L-182.21,-227.86L-163.21,-228.10L-178.53,-114.96ZM-151.48,-115.30L-153.38,-267.04L-135.83,-267.25C-115.18,-267.51 -103.98,-263.52 -97.85,-252.04C-91.93,-240.55 -90.87,-221.56 -90.49,-191.84C-90.12,-162.11 -90.72,-143.31 -96.35,-131.68C-102.19,-120.04 -113.29,-115.78 -133.93,-115.52ZM-129.46,-137.87C-121.83,-137.97 -117.50,-138.85 -115.32,-146.31C-114.33,-149.83 -113.58,-155.21 -113.46,-162.44C-113.34,-169.67 -113.46,-179.37 -113.62,-191.75C-113.77,-204.14 -113.89,-213.84 -114.19,-221.07C-114.49,-228.08 -115.38,-233.44 -116.46,-237.14C-118.82,-244.34 -123.16,-245.11 -130.80,-245.02ZM-23.42,-144.36C-23.90,-133.41 -27.11,-125.73 -34.26,-119.65C-37.94,-116.51 -43.08,-115.00 -49.89,-114.91C-63.31,-114.75 -70.01,-122.10 -73.41,-129.49C-75.32,-133.80 -76.62,-138.74 -76.89,-144.31L-77.60,-201.08C-77.12,-212.03 -73.92,-220.12 -66.77,-226.41C-63.30,-229.55 -58.15,-231.06 -51.34,-231.14C-37.92,-231.31 -31.02,-223.96 -27.62,-216.78C-25.71,-212.47 -24.41,-207.73 -24.14,-202.37ZM-43.75,-201.50C-43.59,-205.84 -44.46,-208.93 -46.55,-211.38C-47.60,-212.40 -49.26,-213.00 -51.12,-212.98C-55.04,-212.93 -56.66,-210.22 -57.44,-207.12C-58.04,-205.46 -58.22,-203.60 -57.99,-201.33L-57.28,-144.56C-57.43,-140.22 -56.36,-137.13 -54.48,-134.89C-53.43,-133.87 -51.98,-133.27 -50.12,-133.29C-46.20,-133.34 -44.37,-135.84 -43.58,-138.94C-42.99,-140.60 -42.80,-142.46 -43.04,-144.73ZM38.45,-117.67L29.72,-171.45L28.61,-177.84L27.78,-177.83L26.83,-171.41L19.45,-117.43L2.11,-117.22L-16.02,-229.93L2.97,-230.17L10.32,-171.21L11.22,-164.82L12.46,-164.83L13.41,-171.25L21.35,-230.40L33.73,-230.55L43.14,-171.62L44.25,-165.23L45.49,-165.25L46.24,-171.66L52.11,-230.78L71.10,-231.02L55.79,-117.89ZM103.68,-118.48L82.83,-118.22L81.42,-231.15L102.27,-231.41L102.39,-221.91C102.80,-222.12 103.62,-222.96 104.84,-224.21C107.08,-226.51 110.14,-229.65 113.83,-231.76C115.68,-232.81 117.32,-233.25 119.18,-233.27C124.75,-233.34 128.72,-230.09 131.25,-225.99C133.78,-221.68 135.09,-216.12 135.15,-211.38L136.30,-118.89L115.45,-118.63L114.33,-208.02C114.28,-212.36 111.79,-212.94 109.32,-212.91C107.05,-212.88 105.82,-211.63 104.40,-210.17C103.79,-209.33 103.18,-208.50 102.57,-207.46ZM149.23,-141.97L170.90,-142.24L171.19,-119.33L149.51,-119.05ZM236.08,-147.60C235.60,-136.65 232.39,-128.97 225.24,-122.89C221.56,-119.75 216.42,-118.24 209.61,-118.15C196.19,-117.99 189.49,-125.33 186.09,-132.73C184.18,-137.04 182.88,-141.98 182.61,-147.55L181.90,-204.32C182.38,-215.27 185.58,-223.36 192.73,-229.65C196.20,-232.79 201.35,-234.30 208.16,-234.38C221.58,-234.55 228.48,-227.20 231.88,-220.02C233.79,-215.70 235.09,-210.97 235.36,-205.61ZM215.75,-204.74C215.91,-209.08 215.04,-212.17 212.95,-214.62C211.90,-215.64 210.24,-216.24 208.38,-216.21C204.46,-216.16 202.84,-213.46 202.06,-210.35C201.46,-208.69 201.28,-206.83 201.51,-204.57L202.22,-147.79C202.07,-143.46 203.14,-140.37 205.02,-138.12C206.07,-137.10 207.52,-136.50 209.38,-136.53C213.30,-136.58 215.13,-139.08 215.92,-142.18C216.51,-143.84 216.70,-145.70 216.46,-147.97ZM291.64,-212.30C289.78,-212.89 287.71,-213.07 285.85,-213.05C282.55,-213.01 278.63,-212.55 275.37,-209.41C271.49,-206.06 270.91,-202.54 270.96,-199.03L271.93,-120.58L251.08,-120.32L249.67,-233.25L270.52,-233.51L270.68,-220.91C270.87,-222.36 272.27,-225.89 275.53,-229.23C278.80,-232.37 283.72,-235.32 291.36,-235.42ZM352.18,-176.09C351.69,-165.56 348.07,-158.08 340.91,-152.41C337.23,-149.48 332.09,-147.97 325.69,-147.89C325.07,-147.88 324.45,-147.87 323.83,-147.87C323.21,-147.86 322.39,-147.85 321.76,-148.05C319.93,-146.37 318.92,-144.71 318.94,-142.85C318.97,-140.37 321.05,-138.95 324.16,-138.16C327.27,-137.17 330.99,-136.60 334.92,-136.03C341.54,-135.28 348.58,-133.72 354.41,-129.87C360.03,-126.02 364.03,-120.08 364.15,-110.17C364.29,-99.23 359.63,-91.74 353.08,-87.32C346.32,-82.90 337.26,-80.93 328.80,-80.82C318.89,-80.91 310.40,-82.24 304.58,-85.48C298.55,-88.70 295.18,-94.03 295.08,-102.29C295.03,-106.21 297.06,-109.54 300.12,-112.47C303.18,-115.40 307.28,-117.72 311.18,-119.63C304.34,-121.40 298.51,-125.66 298.40,-134.54C298.35,-137.84 300.17,-141.17 302.61,-144.30C305.05,-147.42 308.11,-149.94 311.19,-151.63C305.15,-155.48 302.19,-161.64 300.68,-166.78C299.81,-169.86 299.15,-172.95 298.91,-176.05L298.53,-206.81C299.22,-217.35 302.43,-225.03 309.58,-231.10C313.05,-234.24 318.19,-235.75 324.59,-235.83C335.12,-235.96 341.58,-231.30 345.57,-225.77C347.00,-227.23 349.45,-229.74 352.72,-232.05C355.79,-234.36 359.28,-236.27 362.58,-236.31L362.81,-217.73C357.24,-217.66 353.12,-216.57 350.66,-215.10C350.88,-214.07 351.10,-213.04 351.31,-212.42C351.32,-211.60 351.33,-210.77 351.55,-210.15C351.76,-209.54 351.77,-208.71 351.78,-208.09ZM331.36,-206.39C331.31,-210.31 330.46,-212.78 328.78,-215.03C327.94,-216.05 326.69,-216.66 324.83,-216.63C321.53,-216.59 319.91,-213.89 319.32,-211.40C318.93,-209.95 318.74,-208.09 318.97,-206.24L319.36,-175.27C319.20,-171.35 319.85,-168.88 321.74,-166.83C322.58,-165.81 323.82,-165.21 325.47,-165.23C328.98,-165.27 330.40,-167.77 331.19,-170.26C331.59,-171.71 331.77,-173.57 331.75,-175.43ZM322.78,-116.05C318.48,-113.52 315.21,-110.39 315.27,-106.05C315.32,-101.71 319.29,-98.25 328.99,-98.38C332.50,-98.42 336.42,-99.09 339.50,-100.36C342.58,-101.64 344.83,-103.53 344.79,-106.21C344.77,-108.07 344.55,-109.51 343.08,-110.94C341.41,-112.36 338.72,-113.36 333.54,-114.12Z" fill="#ffffff" stroke="#000000"/>
    <path d="M-437.97,-106.93L-440.11,-257.03L-422.75,-257.27C-402.33,-257.57 -391.25,-253.64 -385.16,-242.29C-379.28,-230.93 -378.19,-212.16 -377.78,-182.75C-377.36,-153.34 -377.91,-134.74 -383.46,-123.23C-389.22,-111.71 -400.19,-107.46 -420.61,-107.17ZM-416.23,-129.30C-408.67,-129.40 -404.40,-130.28 -402.26,-137.67C-401.28,-141.15 -400.54,-146.47 -400.44,-153.62C-400.34,-160.77 -400.48,-170.37 -400.65,-182.63C-400.83,-194.88 -400.96,-204.48 -401.27,-211.62C-401.57,-218.56 -402.46,-223.86 -403.54,-227.52C-405.89,-234.64 -410.19,-235.39 -417.74,-235.29ZM-322.04,-199.07C-323.89,-199.65 -325.93,-199.83 -327.77,-199.80C-331.04,-199.76 -334.91,-199.29 -338.14,-196.18C-341.97,-192.86 -342.53,-189.38 -342.48,-185.91L-341.38,-108.30L-362.00,-108.01L-363.60,-219.72L-342.97,-220.01L-342.79,-207.55C-342.61,-208.99 -341.23,-212.48 -338.01,-215.79C-334.78,-218.90 -329.92,-221.83 -322.37,-221.94ZM-281.73,-194.33C-281.76,-196.17 -281.80,-199.03 -282.44,-201.06C-283.29,-203.09 -284.94,-204.50 -287.60,-204.46C-291.07,-204.41 -292.46,-201.74 -293.03,-198.46C-293.21,-196.82 -293.39,-194.98 -293.36,-193.14C-293.33,-191.31 -293.31,-189.47 -293.28,-187.83L-313.91,-187.54L-313.98,-192.24C-314.09,-200.41 -311.13,-207.80 -306.31,-213.38C-301.49,-218.97 -294.59,-222.34 -286.63,-222.45C-279.89,-222.54 -273.72,-219.98 -268.96,-215.55C-264.20,-211.13 -261.25,-204.84 -261.15,-197.48L-260.17,-128.87C-260.03,-118.86 -259.35,-114.38 -258.46,-109.49L-278.68,-109.20C-280.55,-111.42 -280.63,-116.73 -280.65,-118.16L-282.08,-118.14C-283.07,-116.28 -284.87,-113.60 -287.70,-111.32C-290.53,-109.03 -294.38,-107.34 -298.47,-107.28C-301.12,-107.24 -305.43,-108.20 -308.75,-112.24C-312.28,-116.07 -315.24,-122.97 -315.40,-134.61C-315.58,-147.07 -312.03,-156.11 -307.22,-162.31C-302.40,-168.50 -296.33,-172.47 -291.27,-175.20C-286.20,-177.93 -282.34,-179.82 -281.56,-182.08ZM-281.29,-163.09C-291.23,-158.65 -295.38,-148.59 -295.23,-137.97C-295.21,-136.54 -294.97,-134.09 -294.12,-131.85C-293.27,-129.42 -291.81,-127.60 -289.36,-127.63C-284.66,-127.70 -280.82,-130.61 -280.88,-134.49ZM-199.44,-110.33L-208.17,-163.52L-209.28,-169.83L-210.10,-169.82L-211.03,-163.47L-218.23,-110.06L-235.39,-109.81L-253.52,-221.29L-234.73,-221.55L-227.37,-163.24L-226.46,-156.92L-225.23,-156.94L-224.30,-163.28L-216.56,-221.81L-204.30,-221.99L-194.89,-163.70L-193.78,-157.39L-192.56,-157.41L-191.83,-163.75L-186.13,-222.25L-167.34,-222.52L-182.29,-110.57ZM-155.54,-110.95L-157.68,-261.05L-140.32,-261.30C-119.90,-261.59 -108.81,-257.67 -102.73,-246.31C-96.84,-234.96 -95.76,-216.18 -95.34,-186.78C-94.92,-157.37 -95.47,-138.77 -101.03,-127.25C-106.79,-115.73 -117.76,-111.49 -138.18,-111.20ZM-133.80,-133.32C-126.24,-133.43 -121.96,-134.31 -119.82,-141.69C-118.85,-145.18 -118.11,-150.50 -118.01,-157.65C-117.90,-164.80 -118.04,-174.40 -118.22,-186.65C-118.39,-198.91 -118.53,-208.51 -118.83,-215.65C-119.14,-222.59 -120.03,-227.89 -121.10,-231.55C-123.45,-238.67 -127.75,-239.42 -135.31,-239.31ZM-28.90,-139.93C-29.36,-129.09 -32.52,-121.49 -39.58,-115.47C-43.21,-112.35 -48.30,-110.85 -55.04,-110.75C-68.31,-110.56 -74.95,-117.82 -78.32,-125.13C-80.22,-129.39 -81.52,-134.27 -81.80,-139.78L-82.60,-195.94C-82.14,-206.78 -78.99,-214.79 -71.93,-221.02C-68.50,-224.13 -63.42,-225.63 -56.68,-225.73C-43.40,-225.92 -36.56,-218.66 -33.19,-211.56C-31.29,-207.30 -30.00,-202.62 -29.72,-197.31ZM-49.11,-196.42C-48.97,-200.71 -49.83,-203.77 -51.90,-206.19C-52.94,-207.19 -54.58,-207.78 -56.42,-207.76C-60.30,-207.70 -61.90,-205.02 -62.67,-201.95C-63.26,-200.31 -63.44,-198.46 -63.20,-196.22L-62.40,-140.06C-62.54,-135.77 -61.48,-132.72 -59.61,-130.50C-58.57,-129.49 -57.13,-128.90 -55.30,-128.93C-51.42,-128.98 -49.61,-131.46 -48.84,-134.54C-48.25,-136.18 -48.07,-138.02 -48.31,-140.26ZM32.34,-113.63L23.62,-166.82L22.51,-173.14L21.69,-173.12L20.76,-166.78L13.56,-113.36L-3.60,-113.12L-21.73,-224.59L-2.94,-224.86L4.42,-166.55L5.33,-160.23L6.56,-160.24L7.49,-166.59L15.23,-225.12L27.48,-225.29L36.89,-167.01L38.01,-160.69L39.23,-160.71L39.96,-167.05L45.66,-225.55L64.45,-225.82L49.50,-113.88ZM96.88,-114.55L76.25,-114.26L74.66,-225.97L95.29,-226.26L95.42,-216.87C95.82,-217.08 96.63,-217.91 97.84,-219.15C100.05,-221.43 103.07,-224.53 106.72,-226.63C108.54,-227.68 110.17,-228.11 112.01,-228.13C117.52,-228.21 121.45,-225.00 123.96,-220.95C126.47,-216.70 127.77,-211.20 127.84,-206.50L129.14,-115.01L108.52,-114.72L107.26,-203.15C107.20,-207.43 104.74,-208.01 102.29,-207.98C100.04,-207.95 98.83,-206.70 97.42,-205.25C96.82,-204.43 96.22,-203.60 95.62,-202.57ZM141.89,-137.87L163.33,-138.17L163.66,-115.51L142.21,-115.20ZM227.80,-143.59C227.35,-132.75 224.19,-125.15 217.12,-119.13C213.49,-116.01 208.41,-114.51 201.67,-114.41C188.39,-114.22 181.75,-121.48 178.38,-128.79C176.48,-133.05 175.19,-137.93 174.90,-143.45L174.10,-199.61C174.56,-210.44 177.71,-218.45 184.77,-224.68C188.20,-227.79 193.29,-229.29 200.03,-229.39C213.30,-229.58 220.14,-222.32 223.51,-215.22C225.41,-210.96 226.71,-206.28 226.99,-200.97ZM207.59,-200.08C207.74,-204.37 206.88,-207.43 204.80,-209.85C203.76,-210.85 202.12,-211.44 200.28,-211.42C196.40,-211.36 194.81,-208.68 194.03,-205.61C193.44,-203.97 193.27,-202.13 193.50,-199.88L194.30,-143.72C194.16,-139.43 195.22,-136.38 197.09,-134.16C198.13,-133.15 199.57,-132.56 201.41,-132.59C205.29,-132.64 207.09,-135.12 207.86,-138.20C208.45,-139.84 208.63,-141.68 208.39,-143.92ZM282.65,-207.69C280.81,-208.28 278.76,-208.45 276.92,-208.43C273.66,-208.38 269.78,-207.91 266.56,-204.80C262.72,-201.48 262.16,-198.00 262.21,-194.53L263.32,-116.93L242.69,-116.63L241.10,-228.34L261.72,-228.63L261.90,-216.18C262.09,-217.61 263.47,-221.10 266.69,-224.42C269.91,-227.53 274.77,-230.45 282.33,-230.56ZM342.60,-171.98C342.14,-161.56 338.57,-154.15 331.50,-148.54C327.86,-145.63 322.78,-144.12 316.45,-144.03C315.83,-144.02 315.22,-144.02 314.61,-144.01C314.00,-144.00 313.18,-143.99 312.56,-144.18C310.75,-142.52 309.75,-140.87 309.78,-139.04C309.81,-136.59 311.87,-135.19 314.95,-134.41C318.03,-133.43 321.71,-132.87 325.60,-132.32C332.15,-131.59 339.11,-130.06 344.89,-126.26C350.46,-122.46 354.42,-116.59 354.56,-106.79C354.72,-95.97 350.12,-88.55 343.65,-84.16C336.97,-79.78 328.01,-77.81 319.64,-77.69C309.83,-77.76 301.44,-79.07 295.68,-82.26C289.71,-85.44 286.36,-90.70 286.25,-98.87C286.19,-102.75 288.19,-106.05 291.21,-108.95C294.23,-111.85 298.28,-114.16 302.14,-116.05C295.37,-117.79 289.59,-122.00 289.47,-130.78C289.42,-134.05 291.21,-137.34 293.62,-140.44C296.03,-143.54 299.06,-146.03 302.10,-147.71C296.12,-151.51 293.17,-157.59 291.67,-162.68C290.81,-165.73 290.15,-168.78 289.90,-171.84L289.47,-202.27C290.14,-212.70 293.30,-220.30 300.36,-226.33C303.79,-229.44 308.88,-230.94 315.21,-231.03C325.62,-231.18 332.02,-226.57 335.98,-221.11C337.39,-222.56 339.80,-225.05 343.04,-227.34C346.07,-229.63 349.51,-231.52 352.78,-231.57L353.04,-213.19C347.53,-213.11 343.46,-212.03 341.03,-210.56C341.25,-209.55 341.47,-208.53 341.68,-207.92C341.69,-207.10 341.70,-206.28 341.92,-205.68C342.13,-205.07 342.14,-204.25 342.15,-203.64ZM321.95,-201.92C321.90,-205.80 321.05,-208.24 319.38,-210.46C318.55,-211.47 317.31,-212.06 315.48,-212.04C312.21,-211.99 310.61,-209.31 310.04,-206.85C309.65,-205.42 309.47,-203.58 309.70,-201.74L310.14,-171.11C309.99,-167.23 310.64,-164.79 312.50,-162.77C313.33,-161.76 314.57,-161.16 316.20,-161.19C319.67,-161.24 321.07,-163.71 321.85,-166.17C322.24,-167.61 322.42,-169.45 322.39,-171.29ZM313.63,-112.54C309.37,-110.03 306.15,-106.92 306.21,-102.63C306.27,-98.34 310.20,-94.92 319.80,-95.06C323.27,-95.11 327.14,-95.78 330.19,-97.05C333.24,-98.31 335.46,-100.18 335.42,-102.84C335.39,-104.68 335.17,-106.10 333.72,-107.51C332.06,-108.92 329.39,-109.90 324.28,-110.65Z" fill="#ffffff" stroke="#000000"/>
    <path d="M-438.81,-102.17L-441.20,-250.64L-424.03,-250.92C-403.83,-251.24 -392.86,-247.37 -386.82,-236.16C-380.98,-224.94 -379.87,-206.37 -379.41,-177.28C-378.94,-148.19 -379.45,-129.80 -384.93,-118.39C-390.60,-106.99 -401.45,-102.77 -421.65,-102.45ZM-417.35,-124.34C-409.88,-124.46 -405.65,-125.34 -403.54,-132.64C-402.59,-136.09 -401.86,-141.36 -401.77,-148.43C-401.69,-155.50 -401.84,-165.00 -402.03,-177.12C-402.23,-189.24 -402.38,-198.73 -402.69,-205.80C-403.01,-212.66 -403.90,-217.90 -404.97,-221.52C-407.30,-228.55 -411.56,-229.29 -419.03,-229.17ZM-324.31,-193.52C-326.13,-194.09 -328.16,-194.26 -329.97,-194.23C-333.21,-194.18 -337.04,-193.72 -340.22,-190.64C-344.01,-187.34 -344.56,-183.90 -344.50,-180.46L-343.27,-103.71L-363.67,-103.38L-365.45,-213.87L-345.04,-214.20L-344.85,-201.88C-344.67,-203.29 -343.31,-206.75 -340.13,-210.03C-336.95,-213.12 -332.14,-216.02 -324.67,-216.14ZM-284.43,-188.90C-284.46,-190.72 -284.50,-193.55 -285.14,-195.56C-285.98,-197.57 -287.62,-198.96 -290.25,-198.91C-293.68,-198.86 -295.05,-196.21 -295.61,-192.97C-295.78,-191.35 -295.96,-189.53 -295.93,-187.71C-295.90,-185.89 -295.87,-184.07 -295.84,-182.46L-316.24,-182.13L-316.32,-186.78C-316.45,-194.86 -313.53,-202.18 -308.77,-207.71C-304.01,-213.24 -297.20,-216.58 -289.32,-216.71C-282.65,-216.81 -276.55,-214.29 -271.83,-209.92C-267.12,-205.55 -264.19,-199.33 -264.07,-192.06L-262.98,-124.19C-262.83,-114.29 -262.15,-109.86 -261.26,-105.02L-281.26,-104.70C-283.11,-106.89 -283.20,-112.15 -283.22,-113.56L-284.63,-113.54C-285.61,-111.70 -287.39,-109.05 -290.18,-106.78C-292.98,-104.51 -296.79,-102.84 -300.83,-102.77C-303.45,-102.73 -307.71,-103.67 -311.01,-107.66C-314.50,-111.44 -317.44,-118.26 -317.63,-129.78C-317.82,-142.10 -314.33,-151.05 -309.58,-157.18C-304.83,-163.32 -298.83,-167.26 -293.82,-169.96C-288.82,-172.67 -285.01,-174.55 -284.23,-176.78ZM-283.93,-158.00C-293.76,-153.60 -297.85,-143.63 -297.68,-133.13C-297.65,-131.72 -297.41,-129.29 -296.57,-127.09C-295.72,-124.67 -294.28,-122.88 -291.86,-122.92C-287.21,-122.99 -283.42,-125.88 -283.48,-129.72ZM-202.89,-105.96L-211.61,-158.55L-212.72,-164.80L-213.53,-164.79L-214.44,-158.51L-221.47,-105.66L-238.44,-105.39L-256.57,-215.62L-237.99,-215.92L-230.60,-158.25L-229.69,-152.00L-228.48,-152.02L-227.57,-158.30L-220.01,-216.20L-207.89,-216.40L-198.48,-158.76L-197.37,-152.52L-196.16,-152.54L-195.45,-158.81L-189.91,-216.69L-171.33,-216.98L-185.92,-106.23ZM-159.46,-106.66L-161.84,-255.12L-144.67,-255.40C-124.47,-255.72 -113.50,-251.86 -107.46,-240.64C-101.62,-229.42 -100.51,-210.85 -100.05,-181.76C-99.58,-152.67 -100.09,-134.28 -105.57,-122.88C-111.25,-111.47 -122.09,-107.26 -142.29,-106.93ZM-137.99,-128.82C-130.52,-128.94 -126.29,-129.82 -124.18,-137.12C-123.23,-140.57 -122.51,-145.84 -122.42,-152.91C-122.33,-159.99 -122.48,-169.48 -122.67,-181.60C-122.87,-193.72 -123.02,-203.21 -123.34,-210.28C-123.65,-217.14 -124.54,-222.38 -125.61,-226.00C-127.95,-233.04 -132.20,-233.78 -139.67,-233.66ZM-34.25,-135.54C-34.68,-124.82 -37.79,-117.30 -44.77,-111.32C-48.36,-108.24 -53.38,-106.74 -60.05,-106.63C-73.18,-106.42 -79.76,-113.59 -83.11,-120.81C-84.99,-125.02 -86.28,-129.85 -86.57,-135.30L-87.47,-190.85C-87.03,-201.57 -83.93,-209.50 -76.95,-215.67C-73.57,-218.76 -68.54,-220.25 -61.87,-220.36C-48.75,-220.57 -41.96,-213.40 -38.62,-206.38C-36.73,-202.17 -35.44,-197.55 -35.16,-192.30ZM-54.34,-191.38C-54.20,-195.63 -55.06,-198.65 -57.12,-201.04C-58.15,-202.03 -59.77,-202.61 -61.59,-202.58C-65.43,-202.52 -67.00,-199.87 -67.76,-196.83C-68.34,-195.20 -68.51,-193.38 -68.28,-191.16L-67.38,-135.61C-67.52,-131.37 -66.46,-128.35 -64.61,-126.16C-63.58,-125.17 -62.16,-124.58 -60.34,-124.61C-56.50,-124.67 -54.72,-127.13 -53.96,-130.17C-53.38,-131.79 -53.21,-133.62 -53.45,-135.83ZM26.38,-109.64L17.65,-162.23L16.54,-168.48L15.74,-168.46L14.83,-162.19L7.79,-109.34L-9.17,-109.07L-27.31,-219.30L-8.72,-219.59L-1.33,-161.93L-0.43,-155.68L0.79,-155.70L1.70,-161.98L9.25,-219.88L21.37,-220.08L30.78,-162.44L31.89,-156.20L33.11,-156.22L33.81,-162.49L39.35,-220.36L57.93,-220.66L43.34,-109.91ZM90.21,-110.66L69.81,-110.33L68.03,-220.82L88.43,-221.15L88.58,-211.86C88.98,-212.07 89.78,-212.89 90.97,-214.12C93.16,-216.38 96.14,-219.46 99.74,-221.54C101.54,-222.57 103.15,-223.00 104.97,-223.03C110.43,-223.12 114.32,-219.95 116.80,-215.95C119.30,-211.75 120.60,-206.31 120.67,-201.67L122.12,-111.17L101.72,-110.85L100.32,-198.31C100.25,-202.55 97.82,-203.12 95.39,-203.08C93.17,-203.04 91.98,-201.81 90.59,-200.38C89.99,-199.56 89.40,-198.74 88.81,-197.72ZM134.69,-133.80L155.90,-134.14L156.26,-111.72L135.05,-111.38ZM219.66,-139.61C219.22,-128.89 216.11,-121.37 209.14,-115.40C205.55,-112.31 200.52,-110.81 193.86,-110.71C180.73,-110.50 174.15,-117.67 170.80,-124.89C168.91,-129.10 167.62,-133.93 167.33,-139.38L166.44,-194.93C166.88,-205.64 169.98,-213.57 176.95,-219.74C180.34,-222.83 185.37,-224.32 192.03,-224.43C205.16,-224.64 211.94,-217.48 215.29,-210.46C217.18,-206.25 218.46,-201.62 218.75,-196.37ZM199.57,-195.46C199.70,-199.70 198.85,-202.72 196.79,-205.11C195.76,-206.10 194.13,-206.68 192.32,-206.65C188.48,-206.59 186.91,-203.94 186.15,-200.90C185.57,-199.27 185.39,-197.45 185.63,-195.23L186.52,-139.68C186.39,-135.44 187.45,-132.43 189.30,-130.23C190.33,-129.24 191.75,-128.66 193.57,-128.69C197.41,-128.75 199.18,-131.20 199.94,-134.24C200.52,-135.87 200.70,-137.69 200.46,-139.91ZM273.80,-203.11C271.97,-203.69 269.95,-203.86 268.13,-203.83C264.90,-203.78 261.07,-203.31 257.88,-200.23C254.10,-196.94 253.55,-193.49 253.60,-190.06L254.83,-113.30L234.43,-112.98L232.66,-223.47L253.06,-223.79L253.26,-211.47C253.44,-212.89 254.80,-216.35 257.98,-219.63C261.16,-222.71 265.96,-225.62 273.44,-225.74ZM333.16,-167.90C332.72,-157.59 329.20,-150.26 322.22,-144.69C318.63,-141.80 313.60,-140.31 307.34,-140.21C306.73,-140.20 306.12,-140.19 305.52,-140.18C304.91,-140.17 304.11,-140.16 303.50,-140.35C301.70,-138.70 300.72,-137.07 300.75,-135.25C300.79,-132.83 302.83,-131.45 305.87,-130.69C308.92,-129.73 312.57,-129.18 316.41,-128.64C322.89,-127.93 329.78,-126.43 335.50,-122.68C341.02,-118.93 344.95,-113.13 345.10,-103.44C345.28,-92.73 340.75,-85.38 334.35,-81.04C327.75,-76.69 318.89,-74.73 310.61,-74.60C300.91,-74.64 292.61,-75.92 286.90,-79.06C280.99,-82.20 277.68,-87.40 277.55,-95.48C277.48,-99.32 279.45,-102.58 282.44,-105.46C285.42,-108.34 289.43,-110.62 293.23,-112.50C286.54,-114.22 280.82,-118.37 280.68,-127.05C280.62,-130.28 282.39,-133.54 284.77,-136.61C287.14,-139.68 290.13,-142.16 293.14,-143.82C287.22,-147.56 284.29,-153.58 282.80,-158.61C281.94,-161.62 281.29,-164.64 281.03,-167.67L280.55,-197.77C281.19,-208.08 284.31,-215.61 291.28,-221.58C294.67,-224.66 299.69,-226.16 305.96,-226.26C316.26,-226.42 322.59,-221.88 326.52,-216.49C327.91,-217.92 330.30,-220.39 333.49,-222.66C336.49,-224.93 339.89,-226.80 343.12,-226.85L343.42,-208.67C337.96,-208.59 333.94,-207.51 331.54,-206.06C331.75,-205.05 331.97,-204.05 332.18,-203.44C332.20,-202.64 332.21,-201.83 332.42,-201.22C332.63,-200.62 332.65,-199.81 332.66,-199.21ZM312.68,-197.47C312.62,-201.31 311.77,-203.72 310.12,-205.92C309.30,-206.92 308.08,-207.50 306.26,-207.47C303.03,-207.42 301.45,-204.77 300.89,-202.34C300.50,-200.91 300.33,-199.09 300.56,-197.28L301.05,-166.98C300.91,-163.14 301.55,-160.72 303.40,-158.73C304.23,-157.74 305.45,-157.15 307.06,-157.18C310.50,-157.23 311.87,-159.68 312.64,-162.11C313.02,-163.54 313.20,-165.36 313.17,-167.17ZM304.60,-109.05C300.40,-106.56 297.22,-103.48 297.29,-99.23C297.35,-94.99 301.25,-91.62 310.74,-91.77C314.17,-91.83 318.00,-92.49 321.01,-93.76C324.02,-95.02 326.22,-96.87 326.17,-99.50C326.15,-101.31 325.92,-102.72 324.48,-104.12C322.85,-105.50 320.20,-106.47 315.14,-107.20Z" fill="#ffffff" stroke="#000000"/>
    <path d="M-439.52,-97.48L-442.14,-244.31L-425.16,-244.61C-405.18,-244.97 -394.32,-241.17 -388.33,-230.08C-382.54,-219.00 -381.41,-200.63 -380.90,-171.87C-380.39,-143.10 -380.86,-124.91 -386.26,-113.62C-391.85,-102.33 -402.57,-98.14 -422.54,-97.78ZM-418.33,-119.44C-410.94,-119.57 -406.76,-120.45 -404.69,-127.68C-403.75,-131.09 -403.05,-136.30 -402.97,-143.30C-402.90,-150.29 -403.06,-159.68 -403.28,-171.67C-403.49,-183.65 -403.66,-193.04 -403.98,-200.03C-404.30,-206.82 -405.20,-212.00 -406.26,-215.58C-408.58,-222.53 -412.79,-223.25 -420.18,-223.12ZM-326.43,-188.02C-328.24,-188.59 -330.24,-188.75 -332.04,-188.72C-335.24,-188.67 -339.03,-188.20 -342.17,-185.14C-345.91,-181.88 -346.45,-178.47 -346.39,-175.08L-345.03,-99.17L-365.21,-98.81L-367.16,-208.08L-346.98,-208.44L-346.76,-196.25C-346.59,-197.66 -345.25,-201.08 -342.11,-204.33C-338.97,-207.38 -334.22,-210.27 -326.83,-210.40ZM-286.99,-183.53C-287.02,-185.33 -287.07,-188.13 -287.70,-190.11C-288.54,-192.10 -290.16,-193.47 -292.76,-193.42C-296.15,-193.36 -297.51,-190.74 -298.05,-187.53C-298.22,-185.93 -298.39,-184.13 -298.36,-182.33C-298.32,-180.53 -298.29,-178.73 -298.26,-177.13L-318.44,-176.78L-318.52,-181.37C-318.66,-189.36 -315.80,-196.61 -311.10,-202.08C-306.40,-207.56 -299.66,-210.88 -291.87,-211.02C-285.28,-211.14 -279.24,-208.65 -274.57,-204.33C-269.90,-200.02 -266.99,-193.88 -266.86,-186.69L-265.66,-119.57C-265.49,-109.78 -264.81,-105.39 -263.93,-100.61L-283.70,-100.26C-285.54,-102.42 -285.63,-107.62 -285.66,-109.02L-287.06,-108.99C-288.02,-107.18 -289.78,-104.55 -292.53,-102.30C-295.29,-100.05 -299.06,-98.39 -303.05,-98.32C-305.65,-98.27 -309.86,-99.19 -313.13,-103.13C-316.59,-106.87 -319.51,-113.61 -319.71,-125.00C-319.93,-137.18 -316.49,-146.04 -311.81,-152.11C-307.12,-158.19 -301.19,-162.10 -296.24,-164.78C-291.30,-167.47 -287.53,-169.33 -286.77,-171.54ZM-286.44,-152.97C-296.16,-148.60 -300.18,-138.73 -299.99,-128.35C-299.97,-126.95 -299.72,-124.55 -298.89,-122.37C-298.04,-119.99 -296.61,-118.21 -294.22,-118.26C-289.62,-118.34 -285.88,-121.20 -285.94,-125.00ZM-206.19,-101.64L-214.91,-153.64L-216.02,-159.82L-216.82,-159.80L-217.71,-153.59L-224.57,-101.31L-241.35,-101.01L-259.48,-210.00L-241.10,-210.33L-233.69,-153.31L-232.78,-147.13L-231.58,-147.15L-230.70,-153.36L-223.32,-210.64L-211.34,-210.86L-201.93,-153.87L-200.82,-147.70L-199.62,-147.72L-198.93,-153.93L-193.56,-211.17L-175.18,-211.50L-189.41,-101.94ZM-163.24,-102.41L-165.86,-249.24L-148.88,-249.54C-128.90,-249.90 -118.05,-246.09 -112.05,-235.01C-106.26,-223.92 -105.13,-205.56 -104.62,-176.79C-104.11,-148.02 -104.58,-129.83 -109.98,-118.54C-115.57,-107.25 -126.29,-103.07 -146.26,-102.71ZM-142.05,-124.37C-134.66,-124.50 -130.48,-125.37 -128.41,-132.60C-127.47,-136.02 -126.77,-141.22 -126.69,-148.22C-126.62,-155.22 -126.78,-164.60 -127.00,-176.59C-127.21,-188.58 -127.38,-197.97 -127.70,-204.95C-128.02,-211.74 -128.92,-216.92 -129.98,-220.50C-132.30,-227.45 -136.51,-228.18 -143.90,-228.05ZM-39.46,-131.19C-39.87,-120.59 -42.94,-113.14 -49.83,-107.23C-53.37,-104.17 -58.34,-102.68 -64.93,-102.56C-77.91,-102.33 -84.43,-109.41 -87.76,-116.54C-89.63,-120.70 -90.92,-125.48 -91.21,-130.87L-92.19,-185.80C-91.78,-196.40 -88.72,-204.25 -81.84,-210.37C-78.50,-213.43 -73.53,-214.91 -66.93,-215.03C-53.95,-215.26 -47.23,-208.19 -43.91,-201.25C-42.03,-197.09 -40.75,-192.52 -40.46,-187.33ZM-59.43,-186.39C-59.30,-190.59 -60.16,-193.57 -62.20,-195.93C-63.21,-196.91 -64.82,-197.48 -66.62,-197.45C-70.42,-197.38 -71.97,-194.76 -72.71,-191.75C-73.28,-190.14 -73.45,-188.34 -73.21,-186.14L-72.23,-131.21C-72.36,-127.01 -71.31,-124.03 -69.47,-121.86C-68.45,-120.88 -67.04,-120.31 -65.25,-120.34C-61.45,-120.41 -59.70,-122.84 -58.95,-125.85C-58.38,-127.46 -58.21,-129.26 -58.45,-131.45ZM20.54,-105.68L11.82,-157.68L10.71,-163.86L9.91,-163.84L9.03,-157.63L2.16,-105.36L-14.62,-105.06L-32.75,-214.04L-14.37,-214.37L-6.96,-157.35L-6.05,-151.17L-4.85,-151.19L-3.96,-157.40L3.41,-214.69L15.40,-214.90L24.81,-157.92L25.92,-151.74L27.12,-151.76L27.80,-157.97L33.18,-215.22L51.56,-215.54L37.32,-105.98ZM83.67,-106.81L63.49,-106.45L61.55,-215.72L81.72,-216.08L81.89,-206.89C82.28,-207.10 83.07,-207.91 84.24,-209.13C86.40,-211.37 89.35,-214.42 92.91,-216.48C94.69,-217.51 96.28,-217.94 98.07,-217.97C103.47,-218.07 107.32,-214.94 109.79,-210.99C112.26,-206.83 113.56,-201.46 113.64,-196.87L115.23,-107.37L95.06,-107.01L93.51,-193.51C93.44,-197.71 91.03,-198.26 88.63,-198.22C86.44,-198.18 85.26,-196.96 83.89,-195.54C83.30,-194.73 82.72,-193.92 82.14,-192.91ZM127.62,-129.77L148.60,-130.15L148.99,-107.97L128.02,-107.60ZM211.65,-135.67C211.24,-125.07 208.17,-117.62 201.28,-111.70C197.74,-108.64 192.77,-107.15 186.18,-107.04C173.19,-106.81 166.67,-113.88 163.35,-121.02C161.48,-125.18 160.19,-129.95 159.90,-135.34L158.92,-190.28C159.33,-200.88 162.39,-208.73 169.27,-214.84C172.61,-217.90 177.58,-219.39 184.17,-219.51C197.16,-219.74 203.88,-212.66 207.20,-205.73C209.07,-201.57 210.35,-196.99 210.65,-191.80ZM191.68,-190.86C191.80,-195.06 190.95,-198.05 188.91,-200.41C187.89,-201.39 186.29,-201.96 184.49,-201.93C180.69,-201.86 179.14,-199.23 178.39,-196.22C177.82,-194.61 177.66,-192.81 177.90,-190.62L178.87,-135.68C178.75,-131.48 179.80,-128.51 181.64,-126.34C182.66,-125.36 184.06,-124.78 185.86,-124.82C189.66,-124.88 191.41,-127.31 192.16,-130.32C192.73,-131.93 192.90,-133.73 192.66,-135.93ZM265.08,-198.57C263.27,-199.13 261.27,-199.30 259.47,-199.27C256.28,-199.21 252.49,-198.74 249.34,-195.69C245.61,-192.43 245.07,-189.02 245.13,-185.62L246.48,-109.71L226.30,-109.35L224.36,-218.62L244.53,-218.98L244.75,-206.80C244.93,-208.20 246.26,-211.62 249.40,-214.87C252.55,-217.93 257.29,-220.81 264.68,-220.94ZM323.85,-163.85C323.43,-153.65 319.96,-146.39 313.07,-140.87C309.52,-138.01 304.55,-136.52 298.36,-136.41C297.76,-136.40 297.16,-136.39 296.56,-136.38C295.96,-136.37 295.16,-136.36 294.56,-136.55C292.79,-134.92 291.82,-133.30 291.85,-131.50C291.90,-129.10 293.92,-127.74 296.93,-127.00C299.94,-126.05 303.55,-125.52 307.36,-124.98C313.76,-124.30 320.58,-122.82 326.25,-119.13C331.71,-115.43 335.61,-109.70 335.78,-100.11C335.97,-89.52 331.50,-82.25 325.18,-77.94C318.66,-73.63 309.91,-71.67 301.72,-71.53C292.12,-71.56 283.91,-72.81 278.26,-75.91C272.41,-79.00 269.12,-84.14 268.98,-92.13C268.91,-95.92 270.85,-99.15 273.80,-102.00C276.74,-104.85 280.70,-107.12 284.46,-108.99C277.84,-110.67 272.17,-114.76 272.02,-123.35C271.96,-126.55 273.70,-129.78 276.04,-132.82C278.39,-135.86 281.34,-138.31 284.31,-139.96C278.45,-143.65 275.55,-149.60 274.06,-154.56C273.21,-157.55 272.55,-160.53 272.30,-163.53L271.77,-193.29C272.39,-203.49 275.45,-210.94 282.34,-216.86C285.68,-219.92 290.65,-221.40 296.84,-221.51C307.03,-221.70 313.31,-217.21 317.20,-211.89C318.57,-213.31 320.93,-215.75 324.08,-218.00C327.04,-220.25 330.41,-222.11 333.60,-222.17L333.92,-204.19C328.53,-204.09 324.55,-203.02 322.18,-201.58C322.40,-200.59 322.61,-199.59 322.82,-199.00C322.84,-198.20 322.85,-197.40 323.06,-196.80C323.27,-196.21 323.29,-195.41 323.30,-194.81ZM303.55,-193.06C303.48,-196.85 302.64,-199.24 301.00,-201.41C300.18,-202.39 298.97,-202.97 297.18,-202.94C293.98,-202.88 292.43,-200.25 291.87,-197.85C291.50,-196.44 291.33,-194.64 291.56,-192.84L292.09,-162.88C291.96,-159.08 292.60,-156.69 294.44,-154.73C295.25,-153.74 296.46,-153.17 298.06,-153.19C301.46,-153.25 302.81,-155.68 303.57,-158.09C303.94,-159.49 304.11,-161.30 304.08,-163.09ZM295.71,-105.59C291.56,-103.12 288.42,-100.07 288.49,-95.87C288.57,-91.68 292.42,-88.35 301.81,-88.52C305.21,-88.58 308.99,-89.24 311.97,-90.50C314.94,-91.75 317.11,-93.58 317.06,-96.18C317.03,-97.98 316.81,-99.37 315.38,-100.75C313.76,-102.12 311.15,-103.07 306.14,-103.78Z" fill="#ffffff" stroke="#000000"/>
    <path d="M-911.48,464.07L-907.38,464.07L-907.38,488.20L-901.94,488.20L-901.94,492L-911.48,492ZM-890.66,484.55L-890.66,486.95C-890.77,488.96 -891.38,490.37 -892.75,491.47C-893.43,492.04 -894.38,492.30 -895.63,492.30C-898.10,492.30 -899.36,490.94 -899.97,489.57C-900.31,488.77 -900.54,487.86 -900.57,486.83L-900.57,476.38C-900.46,474.37 -899.81,472.89 -898.45,471.75C-897.80,471.18 -896.85,470.91 -895.60,470.91C-893.13,470.91 -891.87,472.28 -891.26,473.61C-890.92,474.41 -890.69,475.28 -890.66,476.27L-890.66,482.31L-897.00,482.31L-897.00,486.83C-896.96,487.63 -896.74,488.20 -896.39,488.62C-896.20,488.81 -895.94,488.92 -895.60,488.92C-894.87,488.92 -894.53,488.47 -894.38,487.90C-894.27,487.59 -894.23,487.25 -894.23,486.83L-894.23,484.55ZM-897.00,479.31L-894.23,479.31L-894.23,476.38C-894.23,475.58 -894.38,475.01 -894.76,474.56C-894.95,474.37 -895.25,474.25 -895.60,474.25C-896.32,474.25 -896.62,474.75 -896.81,475.32C-896.93,475.62 -896.96,475.96 -897.00,476.38ZM-882.22,476.15C-882.22,475.81 -882.22,475.28 -882.33,474.90C-882.49,474.52 -882.79,474.25 -883.28,474.25C-883.93,474.25 -884.20,474.75 -884.31,475.36C-884.35,475.66 -884.39,476.00 -884.39,476.34C-884.39,476.69 -884.39,477.03 -884.39,477.33L-888.22,477.33L-888.22,476.46C-888.22,474.94 -887.65,473.57 -886.74,472.54C-885.83,471.52 -884.54,470.91 -883.06,470.91C-881.80,470.91 -880.66,471.40 -879.79,472.24C-878.91,473.08 -878.38,474.25 -878.38,475.62L-878.38,488.39C-878.38,490.25 -878.27,491.09 -878.12,492L-881.88,492C-882.22,491.58 -882.22,490.59 -882.22,490.33L-882.49,490.33C-882.68,490.67 -883.02,491.16 -883.55,491.58C-884.08,492 -884.80,492.30 -885.56,492.30C-886.06,492.30 -886.86,492.11 -887.46,491.35C-888.11,490.63 -888.64,489.34 -888.64,487.17C-888.64,484.86 -887.96,483.18 -887.05,482.04C-886.13,480.90 -884.99,480.18 -884.04,479.69C-883.09,479.19 -882.37,478.85 -882.22,478.43ZM-882.22,481.97C-884.08,482.77 -884.88,484.63 -884.88,486.60C-884.88,486.87 -884.84,487.33 -884.69,487.74C-884.54,488.20 -884.27,488.54 -883.82,488.54C-882.94,488.54 -882.22,488.01 -882.22,487.29ZM-866.37,481.97C-866.49,483.91 -867.17,485.27 -868.50,486.30C-869.19,486.83 -870.14,487.10 -871.31,487.10C-871.43,487.10 -871.54,487.10 -871.66,487.10C-871.77,487.10 -871.92,487.10 -872.04,487.06C-872.38,487.36 -872.57,487.67 -872.57,488.01C-872.57,488.47 -872.19,488.73 -871.62,488.88C-871.05,489.07 -870.36,489.19 -869.64,489.30C-868.43,489.45 -867.13,489.76 -866.07,490.48C-865.04,491.20 -864.32,492.30 -864.32,494.13C-864.32,496.14 -865.20,497.51 -866.41,498.31C-867.67,499.11 -869.34,499.45 -870.90,499.45C-872.72,499.41 -874.28,499.14 -875.34,498.54C-876.44,497.93 -877.05,496.94 -877.05,495.42C-877.05,494.70 -876.67,494.09 -876.10,493.56C-875.53,493.03 -874.77,492.61 -874.05,492.27C-875.30,491.92 -876.37,491.13 -876.37,489.49C-876.37,488.88 -876.03,488.28 -875.57,487.71C-875.11,487.14 -874.54,486.68 -873.97,486.38C-875.08,485.65 -875.61,484.51 -875.87,483.56C-876.03,482.99 -876.14,482.42 -876.18,481.85L-876.18,476.19C-876.03,474.25 -875.42,472.85 -874.09,471.75C-873.44,471.18 -872.49,470.91 -871.31,470.91C-869.38,470.91 -868.20,471.78 -867.48,472.81C-867.21,472.54 -866.75,472.09 -866.15,471.67C-865.58,471.25 -864.93,470.91 -864.32,470.91L-864.32,474.33C-865.35,474.33 -866.11,474.52 -866.56,474.79C-866.53,474.98 -866.49,475.17 -866.45,475.28C-866.45,475.43 -866.45,475.58 -866.41,475.70C-866.37,475.81 -866.37,475.96 -866.37,476.08ZM-870.14,476.34C-870.14,475.62 -870.29,475.17 -870.59,474.75C-870.74,474.56 -870.97,474.44 -871.31,474.44C-871.92,474.44 -872.23,474.94 -872.34,475.39C-872.42,475.66 -872.45,476.00 -872.42,476.34L-872.42,482.04C-872.45,482.77 -872.34,483.22 -872.00,483.60C-871.85,483.79 -871.62,483.91 -871.31,483.91C-870.67,483.91 -870.40,483.45 -870.25,482.99C-870.17,482.73 -870.14,482.39 -870.14,482.04ZM-871.92,492.95C-872.72,493.41 -873.33,493.98 -873.33,494.77C-873.33,495.57 -872.61,496.22 -870.82,496.22C-870.17,496.22 -869.45,496.10 -868.88,495.88C-868.31,495.65 -867.89,495.31 -867.89,494.81C-867.89,494.47 -867.93,494.20 -868.20,493.94C-868.50,493.67 -869.00,493.48 -869.95,493.33ZM-856.84,471.21L-853.00,471.21L-853.00,492L-856.84,492L-856.84,490.25C-856.91,490.29 -857.06,490.44 -857.25,490.63C-857.71,491.09 -858.24,491.62 -858.93,492C-859.27,492.19 -859.61,492.30 -859.95,492.30C-860.98,492.30 -861.70,491.70 -862.16,490.90C-862.61,490.14 -862.84,489.11 -862.84,488.24L-862.84,471.21L-859.00,471.21L-859.00,487.67C-859.00,488.47 -858.55,488.58 -858.09,488.58C-857.67,488.58 -857.44,488.35 -857.18,488.09C-857.06,487.97 -856.95,487.78 -856.84,487.59ZM-840.34,484.55L-840.34,486.95C-840.46,488.96 -841.07,490.37 -842.43,491.47C-843.12,492.04 -844.07,492.30 -845.32,492.30C-847.79,492.30 -849.05,490.94 -849.65,489.57C-850.00,488.77 -850.22,487.86 -850.26,486.83L-850.26,476.38C-850.15,474.37 -849.50,472.89 -848.13,471.75C-847.49,471.18 -846.54,470.91 -845.28,470.91C-842.81,470.91 -841.56,472.28 -840.95,473.61C-840.61,474.41 -840.38,475.28 -840.34,476.27L-840.34,482.31L-846.69,482.31L-846.69,486.83C-846.65,487.63 -846.42,488.20 -846.08,488.62C-845.89,488.81 -845.63,488.92 -845.28,488.92C-844.56,488.92 -844.22,488.47 -844.07,487.90C-843.95,487.59 -843.92,487.25 -843.92,486.83L-843.92,484.55ZM-846.69,479.31L-843.92,479.31L-843.92,476.38C-843.92,475.58 -844.07,475.01 -844.45,474.56C-844.64,474.37 -844.94,474.25 -845.28,474.25C-846.01,474.25 -846.31,474.75 -846.50,475.32C-846.61,475.62 -846.65,475.96 -846.69,476.38ZM-831.15,474.10L-831.15,469.81C-831.15,469.05 -831.30,468.52 -831.68,468.06C-831.87,467.87 -832.17,467.76 -832.52,467.76C-833.24,467.76 -833.58,468.29 -833.73,468.78C-833.85,469.09 -833.88,469.43 -833.88,469.81L-833.88,486.60C-833.88,487.40 -833.69,487.93 -833.31,488.35C-833.12,488.54 -832.86,488.66 -832.52,488.66C-831.79,488.66 -831.45,488.20 -831.30,487.63C-831.19,487.36 -831.15,487.02 -831.15,486.60L-831.15,481.55L-832.78,481.55L-832.78,478.09L-827.04,478.09L-827.04,492L-829.48,492L-829.97,490.67C-830.73,491.62 -831.83,492.30 -833.16,492.30C-834.49,492.30 -835.40,491.96 -836.09,491.35C-836.77,490.78 -837.23,490.06 -837.53,489.30C-837.87,488.43 -838.03,487.40 -837.99,486.26L-837.99,469.81C-837.95,468.71 -837.72,467.68 -837.30,466.81C-836.96,466.05 -836.47,465.29 -835.71,464.72C-834.95,464.15 -833.88,463.77 -832.52,463.77C-831.15,463.77 -830.12,464.15 -829.36,464.72C-828.60,465.29 -828.07,466.05 -827.73,466.81C-827.31,467.68 -827.08,468.71 -827.04,469.81L-827.04,474.10ZM-814.54,486.95C-814.66,488.96 -815.26,490.37 -816.59,491.47C-817.28,492.04 -818.23,492.30 -819.48,492.30C-821.95,492.30 -823.17,490.94 -823.78,489.57C-824.12,488.77 -824.35,487.86 -824.38,486.83L-824.38,476.38C-824.27,474.37 -823.66,472.89 -822.33,471.75C-821.69,471.18 -820.74,470.91 -819.48,470.91C-817.01,470.91 -815.76,472.28 -815.15,473.61C-814.81,474.41 -814.58,475.28 -814.54,476.27ZM-818.15,476.38C-818.11,475.58 -818.27,475.01 -818.65,474.56C-818.84,474.37 -819.14,474.25 -819.48,474.25C-820.20,474.25 -820.51,474.75 -820.66,475.32C-820.77,475.62 -820.81,475.96 -820.77,476.38L-820.77,486.83C-820.81,487.63 -820.62,488.20 -820.28,488.62C-820.09,488.81 -819.82,488.92 -819.48,488.92C-818.76,488.92 -818.42,488.47 -818.27,487.90C-818.15,487.59 -818.11,487.25 -818.15,486.83ZM-807.21,466.08L-807.21,471.21L-804.59,471.21L-804.59,474.67L-807.21,474.67L-807.21,485.01C-807.21,485.65 -807.21,486.49 -807.06,487.17C-806.90,487.86 -806.60,488.43 -805.99,488.43C-805.69,488.43 -805.31,488.39 -805.04,488.35C-804.89,488.31 -804.74,488.31 -804.59,488.28L-804.59,492.04C-804.78,492.08 -804.97,492.15 -805.16,492.19C-805.54,492.27 -806.03,492.30 -806.64,492.30C-808.88,492.30 -809.94,491.16 -810.48,489.72C-811.01,488.28 -811.05,486.53 -811.05,485.31L-811.05,474.67L-812.98,474.67L-812.98,471.21L-811.05,471.21L-811.05,466.08ZM-798.70,492L-802.53,492L-802.53,464.07L-798.70,464.07L-798.70,472.96C-798.62,472.92 -798.47,472.77 -798.24,472.54C-797.82,472.13 -797.25,471.56 -796.57,471.18C-796.23,470.99 -795.92,470.91 -795.58,470.91C-794.55,470.91 -793.83,471.52 -793.38,472.28C-792.92,473.08 -792.69,474.10 -792.69,474.98L-792.69,492L-796.53,492L-796.53,475.55C-796.53,474.75 -796.99,474.63 -797.44,474.63C-797.86,474.63 -798.09,474.86 -798.35,475.13C-798.47,475.28 -798.58,475.43 -798.70,475.62ZM-789.73,464.07L-785.89,464.07L-785.89,467.91L-789.73,467.91ZM-789.73,492L-789.73,471.21L-785.89,471.21L-785.89,492ZM-779.32,487.21C-779.32,487.97 -779.28,488.88 -778.25,488.88C-777.38,488.88 -777.15,488.47 -777.15,487.21L-777.15,484.32L-773.31,484.32L-773.31,486.34C-773.31,488.66 -773.73,490.14 -774.57,491.05C-775.40,491.96 -776.62,492.30 -778.25,492.30C-779.62,492.30 -780.87,491.92 -781.75,490.97C-782.62,490.02 -783.15,488.47 -783.15,486.15L-783.15,477.07C-783.15,474.75 -782.62,473.19 -781.75,472.24C-780.87,471.29 -779.62,470.91 -778.25,470.91C-776.62,470.91 -775.40,471.25 -774.57,472.16C-773.73,473.08 -773.31,474.56 -773.31,476.88L-773.31,478.51L-777.15,478.51L-777.15,476.00C-777.15,474.75 -777.38,474.33 -778.25,474.33C-779.28,474.33 -779.32,475.24 -779.32,476.00ZM-771.03,479.95L-765.52,479.95L-765.52,483.56L-771.03,483.56ZM-755.30,492L-757.43,480.22L-758.53,480.22L-758.53,492L-762.63,492L-762.63,464.07L-758.53,464.07C-753.63,464.07 -751.54,466.84 -751.54,472.13C-751.54,474.90 -752.26,477.41 -753.82,478.47L-751.20,492ZM-758.53,476.42C-757.96,476.42 -757.20,476.34 -756.59,475.81C-755.98,475.28 -755.49,474.25 -755.49,472.28C-755.49,470.30 -755.98,469.24 -756.59,468.71C-757.20,468.17 -757.96,468.14 -758.53,468.14ZM-739.30,484.55L-739.30,486.95C-739.42,488.96 -740.02,490.37 -741.39,491.47C-742.08,492.04 -743.03,492.30 -744.28,492.30C-746.75,492.30 -748.00,490.94 -748.61,489.57C-748.95,488.77 -749.18,487.86 -749.22,486.83L-749.22,476.38C-749.11,474.37 -748.46,472.89 -747.09,471.75C-746.45,471.18 -745.50,470.91 -744.24,470.91C-741.77,470.91 -740.52,472.28 -739.91,473.61C-739.57,474.41 -739.34,475.28 -739.30,476.27L-739.30,482.31L-745.65,482.31L-745.65,486.83C-745.61,487.63 -745.38,488.20 -745.04,488.62C-744.85,488.81 -744.58,488.92 -744.24,488.92C-743.52,488.92 -743.18,488.47 -743.03,487.90C-742.91,487.59 -742.87,487.25 -742.87,486.83L-742.87,484.55ZM-745.65,479.31L-742.87,479.31L-742.87,476.38C-742.87,475.58 -743.03,475.01 -743.41,474.56C-743.60,474.37 -743.90,474.25 -744.24,474.25C-744.96,474.25 -745.27,474.75 -745.46,475.32C-745.57,475.62 -745.61,475.96 -745.65,476.38ZM-727.29,481.97C-727.41,483.91 -728.09,485.27 -729.42,486.30C-730.11,486.83 -731.06,487.10 -732.23,487.10C-732.35,487.10 -732.46,487.10 -732.58,487.10C-732.69,487.10 -732.84,487.10 -732.96,487.06C-733.30,487.36 -733.49,487.67 -733.49,488.01C-733.49,488.47 -733.11,488.73 -732.54,488.88C-731.97,489.07 -731.28,489.19 -730.56,489.30C-729.35,489.45 -728.05,489.76 -726.99,490.48C-725.96,491.20 -725.24,492.30 -725.24,494.13C-725.24,496.14 -726.12,497.51 -727.33,498.31C-728.59,499.11 -730.26,499.45 -731.82,499.45C-733.64,499.41 -735.20,499.14 -736.26,498.54C-737.36,497.93 -737.97,496.94 -737.97,495.42C-737.97,494.70 -737.59,494.09 -737.02,493.56C-736.45,493.03 -735.69,492.61 -734.97,492.27C-736.22,491.92 -737.29,491.13 -737.29,489.49C-737.29,488.88 -736.95,488.28 -736.49,487.71C-736.03,487.14 -735.46,486.68 -734.89,486.38C-736.00,485.65 -736.53,484.51 -736.79,483.56C-736.95,482.99 -737.06,482.42 -737.10,481.85L-737.10,476.19C-736.95,474.25 -736.34,472.85 -735.01,471.75C-734.36,471.18 -733.41,470.91 -732.23,470.91C-730.30,470.91 -729.12,471.78 -728.40,472.81C-728.13,472.54 -727.67,472.09 -727.07,471.67C-726.50,471.25 -725.85,470.91 -725.24,470.91L-725.24,474.33C-726.27,474.33 -727.03,474.52 -727.48,474.79C-727.45,474.98 -727.41,475.17 -727.37,475.28C-727.37,475.43 -727.37,475.58 -727.33,475.70C-727.29,475.81 -727.29,475.96 -727.29,476.08ZM-731.06,476.34C-731.06,475.62 -731.21,475.17 -731.51,474.75C-731.66,474.56 -731.89,474.44 -732.23,474.44C-732.84,474.44 -733.15,474.94 -733.26,475.39C-733.34,475.66 -733.37,476.00 -733.34,476.34L-733.34,482.04C-733.37,482.77 -733.26,483.22 -732.92,483.60C-732.77,483.79 -732.54,483.91 -732.23,483.91C-731.59,483.91 -731.32,483.45 -731.17,482.99C-731.09,482.73 -731.06,482.39 -731.06,482.04ZM-732.84,492.95C-733.64,493.41 -734.25,493.98 -734.25,494.77C-734.25,495.57 -733.53,496.22 -731.74,496.22C-731.09,496.22 -730.37,496.10 -729.80,495.88C-729.23,495.65 -728.81,495.31 -728.81,494.81C-728.81,494.47 -728.85,494.20 -729.12,493.94C-729.42,493.67 -729.92,493.48 -730.87,493.33ZM-717.76,471.21L-713.92,471.21L-713.92,492L-717.76,492L-717.76,490.25C-717.83,490.29 -717.98,490.44 -718.17,490.63C-718.63,491.09 -719.16,491.62 -719.85,492C-720.19,492.19 -720.53,492.30 -720.87,492.30C-721.90,492.30 -722.62,491.70 -723.08,490.90C-723.53,490.14 -723.76,489.11 -723.76,488.24L-723.76,471.21L-719.92,471.21L-719.92,487.67C-719.92,488.47 -719.47,488.58 -719.01,488.58C-718.59,488.58 -718.36,488.35 -718.10,488.09C-717.98,487.97 -717.87,487.78 -717.76,487.59ZM-710.88,492L-710.88,464.07L-707.04,464.07L-707.04,492ZM-698.19,476.15C-698.19,475.81 -698.19,475.28 -698.30,474.90C-698.45,474.52 -698.76,474.25 -699.25,474.25C-699.90,474.25 -700.16,474.75 -700.28,475.36C-700.31,475.66 -700.35,476.00 -700.35,476.34C-700.35,476.69 -700.35,477.03 -700.35,477.33L-704.19,477.33L-704.19,476.46C-704.19,474.94 -703.62,473.57 -702.71,472.54C-701.80,471.52 -700.50,470.91 -699.02,470.91C-697.77,470.91 -696.63,471.40 -695.75,472.24C-694.88,473.08 -694.35,474.25 -694.35,475.62L-694.35,488.39C-694.35,490.25 -694.23,491.09 -694.08,492L-697.84,492C-698.19,491.58 -698.19,490.59 -698.19,490.33L-698.45,490.33C-698.64,490.67 -698.98,491.16 -699.52,491.58C-700.05,492 -700.77,492.30 -701.53,492.30C-702.02,492.30 -702.82,492.11 -703.43,491.35C-704.08,490.63 -704.61,489.34 -704.61,487.17C-704.61,484.86 -703.92,483.18 -703.01,482.04C-702.10,480.90 -700.96,480.18 -700.01,479.69C-699.06,479.19 -698.34,478.85 -698.19,478.43ZM-698.19,481.97C-700.05,482.77 -700.85,484.63 -700.85,486.60C-700.85,486.87 -700.81,487.33 -700.66,487.74C-700.50,488.20 -700.24,488.54 -699.78,488.54C-698.91,488.54 -698.19,488.01 -698.19,487.29ZM-684.05,475.17C-684.39,475.05 -684.77,475.01 -685.11,475.01C-685.72,475.01 -686.44,475.09 -687.05,475.66C-687.77,476.27 -687.89,476.91 -687.89,477.56L-687.89,492L-691.73,492L-691.73,471.21L-687.89,471.21L-687.89,473.53C-687.85,473.27 -687.58,472.62 -686.98,472.01C-686.37,471.44 -685.46,470.91 -684.05,470.91Z"/>
</svg>