<?xml version="1.0"?>
<svg xmlns="http://www.w3.org/2000/svg" width="1920" height="1080" viewBox="-960 -540 1920 1080">
    <path d="M-446.72,-220.50L-437.34,-220.50L-437.34,-186.46C-437.34,-169.20 -440.06,-161.31 -445.48,-161.31C-449.18,-161.31 -452.64,-164.02 -452.64,-181.78L-452.64,-298.68C-452.64,-307.32 -450.91,-312.74 -443.51,-312.74C-433.15,-312.74 -429.20,-310.77 -429.20,-305.34C-429.20,-298.44 -430.93,-288.82 -448.20,-251.82L-429.45,-251.82C-425.01,-276.73 -424.52,-294.00 -424.52,-306.58C-424.52,-321.87 -430.68,-329.52 -443.51,-329.52C-458.56,-329.52 -471.13,-320.39 -471.13,-296.22L-471.13,-173.39C-471.13,-152.18 -464.97,-144.53 -454.36,-144.53C-443.26,-144.53 -437.10,-153.91 -434.14,-173.39L-431.67,-173.39L-425.26,-144.53L-422.55,-144.53L-422.55,-214.58C-422.55,-219.51 -421.56,-220.50 -416.38,-220.50L-416.13,-220.50L-416.13,-225.43L-446.72,-225.43ZM-381.10,-144.53C-366.55,-144.53 -354.22,-153.66 -354.22,-177.83L-354.22,-268.59C-354.22,-289.81 -362.36,-297.45 -378.14,-297.45C-392.70,-297.45 -405.03,-288.33 -405.03,-264.15L-405.03,-173.39C-405.03,-152.18 -396.64,-144.53 -381.10,-144.53ZM-381.10,-280.68C-376.17,-280.68 -371.48,-277.97 -371.48,-260.21L-371.48,-175.36C-371.48,-166.73 -372.72,-161.31 -378.14,-161.31C-383.32,-161.31 -387.76,-164.02 -387.76,-181.78L-387.76,-266.62C-387.76,-275.25 -386.53,-280.68 -381.10,-280.68ZM-311.79,-297.45C-327.33,-297.45 -339.41,-279.45 -339.41,-263.91C-339.41,-252.56 -337.93,-238.50 -333.00,-226.67L-309.32,-226.67C-329.55,-247.14 -333.74,-256.26 -333.74,-266.62C-333.74,-275.25 -330.53,-280.68 -317.71,-280.68C-309.57,-280.68 -307.60,-278.71 -307.60,-270.81L-307.60,-225.19C-327.08,-206.93 -337.44,-199.04 -337.44,-179.06L-337.44,-162.05C-337.44,-150.21 -332.51,-144.53 -323.14,-144.53C-313.76,-144.53 -307.60,-150.45 -303.90,-187.20L-301.43,-186.71C-304.39,-151.69 -299.95,-144.53 -289.84,-144.53C-278.25,-144.53 -275.78,-156.37 -276.03,-171.91L-276.77,-214.09L-280.22,-214.09L-280.96,-170.92C-281.21,-162.79 -282.93,-161.31 -285.15,-161.31C-287.87,-161.31 -290.33,-162.79 -290.33,-176.10L-290.33,-277.23C-290.33,-289.81 -297.48,-297.45 -311.79,-297.45ZM-315.98,-162.54C-318.45,-162.54 -320.18,-164.02 -320.18,-168.46L-320.18,-193.12C-320.18,-203.48 -318.45,-209.40 -307.60,-220.01L-307.60,-200.27C-307.60,-177.58 -310.56,-162.54 -315.98,-162.54ZM-246.42,-327.05L-263.69,-327.05L-263.69,-147L-246.42,-147ZM-197.83,-147L-142.33,-147L-142.33,-166.73L-175.63,-154.89L-176.86,-156.87C-153.43,-202.74 -146.03,-238.01 -146.03,-255.52L-146.03,-269.09C-146.03,-289.81 -153.68,-297.45 -168.72,-297.45C-183.03,-297.45 -193.88,-279.69 -193.88,-264.15C-193.88,-251.82 -192.65,-236.04 -189.93,-223.46L-168.72,-223.46C-183.28,-243.44 -187.71,-255.77 -187.71,-266.87C-187.71,-275.25 -185.00,-280.68 -174.64,-280.68C-165.52,-280.68 -163.30,-278.71 -163.30,-267.85L-163.30,-251.58C-163.30,-224.69 -170.45,-199.04 -197.83,-147ZM-131.23,-247.88L-107.55,-247.88L-107.55,-265.39L-131.23,-265.39ZM-131.23,-176.60L-107.55,-176.60L-107.55,-194.11L-131.23,-194.11ZM-57.97,-147L-39.47,-147L-39.47,-198.79L-38.98,-198.79C-19.00,-198.79 -2.23,-207.92 -2.23,-232.09L-2.23,-295.97C-2.23,-318.42 -14.56,-327.05 -35.77,-327.05L-57.97,-327.05ZM-35.77,-215.57L-39.47,-215.57L-39.47,-310.28L-37.50,-310.28C-25.16,-310.28 -20.72,-305.84 -20.72,-289.81L-20.72,-229.63C-20.72,-220.99 -23.68,-215.57 -35.77,-215.57ZM60.67,-268.35C60.67,-289.81 53.52,-297.45 39.96,-297.45C25.16,-297.45 13.81,-288.33 13.81,-263.91L13.81,-173.39C13.81,-152.18 21.46,-144.53 36.50,-144.53C53.03,-144.53 60.92,-162.29 60.43,-185.72L59.69,-215.32L56.23,-215.32L55.49,-186.46C55.00,-170.68 51.80,-161.31 44.40,-161.31C37.49,-161.31 31.08,-164.02 31.08,-181.78L31.08,-228.89L60.67,-228.89ZM45.88,-260.21L45.88,-232.34L31.08,-232.34L31.08,-266.37C31.08,-275.25 32.31,-280.68 38.23,-280.68C43.16,-280.68 45.88,-278.21 45.88,-260.21ZM77.95,-255.52L77.95,-164.51C77.95,-152.18 84.61,-144.53 93.73,-144.53C103.10,-144.53 111.49,-150.70 116.67,-187.70L119.13,-187.20L113.46,-149.71L113.46,-147L130.48,-147L130.48,-327.05L113.22,-327.05L113.22,-297.20L119.38,-290.79L117.90,-289.31C112.48,-294.25 107.05,-297.45 100.88,-297.45C85.10,-297.45 77.95,-285.12 77.95,-255.52ZM95.70,-257.00C95.70,-278.21 97.92,-281.67 102.61,-281.67C106.56,-281.67 110.01,-279.94 113.22,-276.73L113.22,-200.77C113.22,-178.08 107.54,-161.31 102.12,-161.31C97.92,-161.31 95.70,-165.25 95.70,-174.13ZM172.91,-297.45C157.37,-297.45 145.29,-279.45 145.29,-263.91C145.29,-252.56 146.77,-238.50 151.70,-226.67L175.38,-226.67C155.15,-247.14 150.96,-256.26 150.96,-266.62C150.96,-275.25 154.17,-280.68 166.99,-280.68C175.13,-280.68 177.10,-278.71 177.10,-270.81L177.10,-225.19C157.62,-206.93 147.26,-199.04 147.26,-179.06L147.26,-162.05C147.26,-150.21 152.19,-144.53 161.56,-144.53C170.94,-144.53 177.10,-150.45 180.80,-187.20L183.27,-186.71C180.31,-151.69 184.75,-144.53 194.86,-144.53C206.45,-144.53 208.92,-156.37 208.67,-171.91L207.93,-214.09L204.48,-214.09L203.74,-170.92C203.49,-162.79 201.77,-161.31 199.55,-161.31C196.83,-161.31 194.37,-162.79 194.37,-176.10L194.37,-277.23C194.37,-289.81 187.22,-297.45 172.91,-297.45ZM168.72,-162.54C166.25,-162.54 164.52,-164.02 164.52,-168.46L164.52,-193.12C164.52,-203.48 166.25,-209.40 177.10,-220.01L177.10,-200.27C177.10,-177.58 174.14,-162.54 168.72,-162.54ZM270.09,-261.20C270.09,-276.98 260.72,-286.11 247.16,-287.83L247.16,-290.79C258.75,-290.55 267.38,-287.09 281.69,-266.62L281.69,-294.99L246.17,-294.99C231.62,-294.99 219.29,-285.86 219.29,-261.69L219.29,-204.71C219.29,-192.14 222.49,-184.24 228.41,-179.80C224.22,-174.62 217.07,-168.46 217.07,-160.07C217.07,-153.66 221.01,-150.45 226.69,-148.97L226.69,-147.49C220.03,-144.53 214.60,-138.86 214.60,-129.98C214.60,-122.58 220.52,-114.94 235.32,-114.94C255.79,-114.94 279.47,-135.41 279.47,-148.48C279.47,-158.59 272.31,-163.77 257.02,-163.77L230.88,-163.77C226.19,-163.77 224.71,-165.00 224.71,-167.22C224.71,-169.69 228.17,-173.88 232.36,-177.83C235.32,-176.35 239.02,-175.86 243.21,-175.86C257.76,-175.86 270.09,-184.74 270.09,-207.92ZM243.21,-278.21C248.14,-278.21 252.83,-275.50 252.83,-257.74L252.83,-204.71C252.83,-196.08 251.60,-190.66 246.17,-190.66C240.99,-190.66 236.55,-193.37 236.55,-211.13L236.55,-264.15C236.55,-272.79 237.78,-278.21 243.21,-278.21ZM228.41,-139.85C228.41,-142.56 229.64,-145.03 233.59,-147L257.02,-147C265.41,-147 267.38,-143.55 267.38,-137.63C267.38,-132.69 262.69,-130.72 251.35,-130.72C232.11,-130.72 228.41,-134.91 228.41,-139.85ZM314.25,-144.53C328.80,-144.53 341.13,-153.66 341.13,-177.83L341.13,-268.59C341.13,-289.81 332.99,-297.45 317.21,-297.45C302.66,-297.45 290.33,-288.33 290.33,-264.15L290.33,-173.39C290.33,-152.18 298.71,-144.53 314.25,-144.53ZM314.25,-280.68C319.18,-280.68 323.87,-277.97 323.87,-260.21L323.87,-175.36C323.87,-166.73 322.64,-161.31 317.21,-161.31C312.03,-161.31 307.59,-164.02 307.59,-181.78L307.59,-266.62C307.59,-275.25 308.82,-280.68 314.25,-280.68ZM407.49,-261.20C407.49,-276.98 398.12,-286.11 384.55,-287.83L384.55,-290.79C396.14,-290.55 404.77,-287.09 419.08,-266.62L419.08,-294.99L383.56,-294.99C369.01,-294.99 356.68,-285.86 356.68,-261.69L356.68,-204.71C356.68,-192.14 359.89,-184.24 365.81,-179.80C361.61,-174.62 354.46,-168.46 354.46,-160.07C354.46,-153.66 358.41,-150.45 364.08,-148.97L364.08,-147.49C357.42,-144.53 351.99,-138.86 351.99,-129.98C351.99,-122.58 357.91,-114.94 372.71,-114.94C393.18,-114.94 416.86,-135.41 416.86,-148.48C416.86,-158.59 409.71,-163.77 394.42,-163.77L368.27,-163.77C363.59,-163.77 362.11,-165.00 362.11,-167.22C362.11,-169.69 365.56,-173.88 369.75,-177.83C372.71,-176.35 376.41,-175.86 380.60,-175.86C395.16,-175.86 407.49,-184.74 407.49,-207.92ZM380.60,-278.21C385.54,-278.21 390.22,-275.50 390.22,-257.74L390.22,-204.71C390.22,-196.08 388.99,-190.66 383.56,-190.66C378.38,-190.66 373.94,-193.37 373.94,-211.13L373.94,-264.15C373.94,-272.79 375.18,-278.21 380.60,-278.21ZM365.81,-139.85C365.81,-142.56 367.04,-145.03 370.98,-147L394.42,-147C402.80,-147 404.77,-143.55 404.77,-137.63C404.77,-132.69 400.09,-130.72 388.74,-130.72C369.50,-130.72 365.81,-134.91 365.81,-139.85ZM436.60,-294.99L417.85,-294.99L442.27,-167.22L449.42,-167.22L424.02,-114.94L445.23,-114.94L479.76,-294.99L459.54,-294.99L452.88,-191.15L450.16,-191.15L444.74,-240.48Z" fill="#ffffff" stroke="#000000"/>
    <path d="M-444.06,-223.72L-434.78,-223.55L-435.41,-189.86C-435.74,-172.77 -438.57,-165.01 -443.94,-165.11C-447.60,-165.18 -450.97,-167.93 -450.64,-185.51L-448.46,-301.22C-448.30,-309.77 -446.49,-315.11 -439.16,-314.97C-428.91,-314.78 -425.04,-312.75 -425.14,-307.38C-425.27,-300.54 -427.16,-291.06 -444.94,-254.76L-426.38,-254.41C-421.52,-278.98 -420.71,-296.06 -420.48,-308.51C-420.19,-323.65 -426.16,-331.33 -438.85,-331.57C-453.74,-331.85 -466.36,-323.05 -466.81,-299.13L-469.10,-177.55C-469.50,-156.56 -463.54,-148.87 -453.04,-148.67C-442.05,-148.47 -435.78,-157.63 -432.48,-176.86L-430.04,-176.82L-424.23,-148.13L-421.55,-148.08L-420.24,-217.41C-420.15,-222.30 -419.15,-223.26 -414.03,-223.16L-413.78,-223.15L-413.69,-228.04L-443.96,-228.61ZM-380.53,-147.31C-366.12,-147.04 -353.75,-155.84 -353.30,-179.77L-351.60,-269.61C-351.21,-290.60 -359.12,-298.32 -374.75,-298.62C-389.15,-298.89 -401.53,-290.08 -401.98,-266.16L-403.67,-176.32C-404.06,-155.32 -395.91,-147.60 -380.53,-147.31ZM-377.99,-282.07C-373.11,-281.98 -368.52,-279.21 -368.85,-261.63L-370.43,-177.65C-370.59,-169.10 -371.91,-163.75 -377.28,-163.85C-382.41,-163.95 -386.75,-166.72 -386.42,-184.30L-384.84,-268.28C-384.68,-276.82 -383.36,-282.17 -377.99,-282.07ZM-309.07,-297.38C-324.45,-297.67 -336.75,-280.07 -337.04,-264.69C-337.25,-253.46 -336.04,-239.52 -331.38,-227.71L-307.95,-227.27C-327.58,-247.91 -331.56,-257.02 -331.37,-267.27C-331.21,-275.82 -327.93,-281.13 -315.24,-280.89C-307.18,-280.74 -305.27,-278.75 -305.41,-270.93L-306.26,-225.77C-325.89,-208.07 -336.29,-200.45 -336.66,-180.67L-336.98,-163.83C-337.20,-152.11 -332.43,-146.40 -323.15,-146.23C-313.87,-146.05 -307.66,-151.80 -303.31,-188.10L-300.88,-187.57C-304.46,-152.96 -300.20,-145.80 -290.19,-145.61C-278.72,-145.39 -276.05,-157.06 -276.01,-172.45L-275.95,-214.21L-279.37,-214.27L-280.91,-171.56C-281.31,-163.51 -283.04,-162.08 -285.24,-162.12C-287.92,-162.17 -290.34,-163.68 -290.09,-176.87L-288.21,-276.96C-287.97,-289.41 -294.91,-297.11 -309.07,-297.38ZM-315.73,-163.92C-318.17,-163.96 -319.86,-165.46 -319.77,-169.85L-319.31,-194.27C-319.12,-204.52 -317.30,-210.35 -306.36,-220.64L-306.73,-201.11C-307.15,-178.65 -310.36,-163.82 -315.73,-163.92ZM-243.81,-325.46L-260.90,-325.78L-264.26,-147.56L-247.17,-147.24ZM-199.07,-146.33L-144.14,-145.30L-143.77,-164.83L-176.95,-153.73L-178.13,-155.71C-154.09,-200.68 -146.10,-235.45 -145.78,-252.79L-145.53,-266.21C-145.14,-286.72 -152.56,-294.43 -167.46,-294.71C-181.62,-294.98 -192.69,-277.60 -192.98,-262.22C-193.21,-250.02 -192.28,-234.37 -189.83,-221.87L-168.84,-221.47C-182.87,-241.52 -187.03,-253.81 -186.83,-264.79C-186.67,-273.09 -183.88,-278.41 -173.63,-278.22C-164.60,-278.05 -162.44,-276.06 -162.64,-265.32L-162.94,-249.20C-163.44,-222.59 -171.00,-197.34 -199.07,-146.33ZM-131.27,-244.94L-107.83,-244.50L-107.50,-261.83L-130.94,-262.28ZM-132.60,-174.39L-109.16,-173.95L-108.83,-191.28L-132.27,-191.72ZM-60.63,-143.73L-42.32,-143.38L-41.36,-194.65L-40.87,-194.64C-21.09,-194.27 -4.32,-202.99 -3.87,-226.91L-2.68,-290.14C-2.26,-312.36 -14.31,-321.13 -35.30,-321.53L-57.28,-321.94ZM-37.38,-211.18L-41.04,-211.25L-39.28,-305.00L-37.33,-304.96C-25.12,-304.73 -20.81,-300.25 -21.11,-284.39L-22.23,-224.82C-22.39,-216.27 -25.42,-210.96 -37.38,-211.18ZM59.06,-261.63C59.46,-282.87 52.53,-290.57 39.10,-290.82C24.45,-291.10 13.05,-282.28 12.60,-258.11L10.91,-168.51C10.51,-147.52 17.94,-139.81 32.83,-139.52C49.19,-139.22 57.33,-156.65 57.28,-179.85L57.10,-209.16L53.68,-209.22L52.41,-180.67C51.63,-165.06 48.28,-155.84 40.96,-155.98C34.12,-156.11 27.82,-158.91 28.15,-176.49L29.03,-223.12L58.33,-222.57ZM44.26,-253.85L43.75,-226.26L29.10,-226.54L29.73,-260.23C29.90,-269.02 31.22,-274.36 37.08,-274.25C41.96,-274.16 44.60,-271.67 44.26,-253.85ZM75.92,-248.61L74.22,-158.53C73.99,-146.32 80.44,-138.63 89.48,-138.46C98.75,-138.28 107.17,-144.23 112.99,-180.75L115.42,-180.22L109.10,-143.22L109.05,-140.53L125.90,-140.21L129.25,-318.43L112.16,-318.75L111.61,-289.21L117.59,-282.75L116.10,-281.31C110.82,-286.30 105.51,-289.57 99.41,-289.69C83.78,-289.98 76.47,-277.91 75.92,-248.61ZM93.53,-249.75C93.92,-270.74 96.18,-274.12 100.82,-274.03C104.73,-273.96 108.11,-272.18 111.23,-268.95L109.81,-193.76C109.39,-171.30 103.46,-154.80 98.09,-154.90C93.94,-154.98 91.82,-158.93 91.98,-167.72ZM170.70,-288.34C155.32,-288.63 143.02,-271.04 142.73,-255.66C142.52,-244.43 143.72,-230.48 148.39,-218.67L171.82,-218.23C152.18,-238.87 148.20,-247.98 148.40,-258.24C148.56,-266.78 151.83,-272.09 164.53,-271.85C172.58,-271.70 174.50,-269.71 174.35,-261.90L173.50,-216.74C153.88,-199.03 143.48,-191.41 143.10,-171.64L142.79,-154.79C142.57,-143.08 147.34,-137.37 156.62,-137.19C165.90,-137.02 172.11,-142.76 176.46,-179.07L178.89,-178.54C175.31,-143.92 179.57,-136.76 189.58,-136.57C201.05,-136.36 203.71,-148.03 203.76,-163.41L203.81,-205.17L200.40,-205.24L198.86,-162.53C198.46,-154.48 196.73,-153.05 194.53,-153.09C191.84,-153.14 189.43,-154.65 189.68,-167.83L191.56,-267.93C191.80,-280.38 184.86,-288.08 170.70,-288.34ZM164.04,-154.88C161.59,-154.93 159.91,-156.42 160.00,-160.82L160.45,-185.23C160.65,-195.49 162.47,-201.31 173.41,-211.61L173.04,-192.08C172.62,-169.62 169.41,-154.78 164.04,-154.88ZM266.22,-250.65C266.51,-266.27 257.41,-275.48 244.01,-277.44L244.07,-280.37C255.54,-279.91 264.02,-276.33 277.79,-255.80L278.32,-283.88L243.17,-284.54C228.76,-284.81 216.39,-276.01 215.94,-252.08L214.88,-195.69C214.64,-183.24 217.67,-175.36 223.44,-170.86C219.20,-165.81 212.00,-159.84 211.85,-151.54C211.73,-145.19 215.57,-141.94 221.16,-140.37L221.13,-138.91C214.49,-136.10 209.01,-130.59 208.84,-121.80C208.71,-114.48 214.42,-106.80 229.07,-106.52C249.33,-106.14 273.15,-125.96 273.40,-138.90C273.58,-148.91 266.60,-154.17 251.46,-154.46L225.59,-154.94C220.95,-155.03 219.51,-156.28 219.55,-158.48C219.59,-160.92 223.09,-165.00 227.31,-168.83C230.22,-167.31 233.87,-166.75 238.02,-166.68C252.42,-166.41 264.79,-174.96 265.23,-197.91ZM239.93,-267.99C244.81,-267.90 249.40,-265.13 249.07,-247.55L248.08,-195.06C247.92,-186.52 246.59,-181.17 241.22,-181.27C236.10,-181.37 231.75,-184.13 232.08,-201.71L233.07,-254.20C233.23,-262.74 234.56,-268.09 239.93,-267.99ZM222.70,-131.31C222.75,-133.99 224.02,-136.41 227.96,-138.29L251.15,-137.86C259.45,-137.70 261.34,-134.24 261.23,-128.39C261.14,-123.50 256.46,-121.64 245.23,-121.85C226.19,-122.21 222.61,-126.43 222.70,-131.31ZM307.75,-134.35C322.16,-134.08 334.53,-142.88 334.98,-166.80L336.67,-256.65C337.07,-277.64 329.16,-285.36 313.53,-285.65C299.13,-285.93 286.75,-277.12 286.30,-253.20L284.61,-163.36C284.21,-142.36 292.37,-134.64 307.75,-134.35ZM310.29,-269.11C315.17,-269.02 319.76,-266.24 319.43,-248.67L317.85,-164.68C317.69,-156.14 316.36,-150.79 310.99,-150.89C305.87,-150.99 301.52,-153.76 301.85,-171.34L303.44,-255.32C303.60,-263.86 304.92,-269.21 310.29,-269.11ZM402.21,-248.08C402.51,-263.71 393.40,-272.92 380.01,-274.88L380.06,-277.81C391.53,-277.35 400.01,-273.77 413.79,-253.24L414.32,-281.31L379.16,-281.98C364.76,-282.25 352.38,-273.44 351.93,-249.52L350.87,-193.13C350.64,-180.67 353.66,-172.80 359.44,-168.30C355.19,-163.25 348.00,-157.28 347.84,-148.98C347.72,-142.63 351.57,-139.38 357.16,-137.81L357.13,-136.35C350.48,-133.54 345.00,-128.03 344.84,-119.24C344.70,-111.92 350.42,-104.24 365.07,-103.96C385.33,-103.58 409.15,-123.40 409.39,-136.34C409.58,-146.35 402.60,-151.61 387.46,-151.90L361.58,-152.38C356.94,-152.47 355.50,-153.72 355.54,-155.92C355.59,-158.36 359.09,-162.44 363.31,-166.27C366.21,-164.75 369.86,-164.19 374.01,-164.12C388.42,-163.84 400.79,-172.40 401.22,-195.35ZM375.92,-265.43C380.80,-265.34 385.39,-262.57 385.06,-244.99L384.07,-192.50C383.91,-183.96 382.59,-178.61 377.22,-178.71C372.09,-178.80 367.75,-181.57 368.08,-199.15L369.07,-251.64C369.23,-260.18 370.55,-265.53 375.92,-265.43ZM358.69,-128.75C358.75,-131.43 360.01,-133.85 363.95,-135.73L387.15,-135.29C395.45,-135.14 397.34,-131.68 397.23,-125.82C397.13,-120.94 392.46,-119.08 381.23,-119.29C362.19,-119.65 358.60,-123.87 358.69,-128.75ZM431.66,-280.99L413.11,-281.34L434.89,-154.42L441.97,-154.29L415.85,-103.01L436.85,-102.61L474.38,-280.18L454.36,-280.56L445.84,-177.90L443.15,-177.96L438.70,-226.88Z" fill="#ffffff" stroke="#000000"/>
    <path d="M-441.31,-226.99L-432.13,-226.64L-433.39,-193.31C-434.02,-176.40 -436.97,-168.77 -442.29,-168.97C-445.91,-169.11 -449.19,-171.89 -448.53,-189.28L-444.22,-303.77C-443.90,-312.23 -442.01,-317.48 -434.77,-317.20C-424.62,-316.82 -420.83,-314.74 -421.03,-309.43C-421.28,-302.67 -423.33,-293.31 -441.60,-257.72L-423.25,-257.02C-417.98,-281.26 -416.86,-298.14 -416.39,-310.46C-415.83,-325.44 -421.59,-333.15 -434.15,-333.63C-448.88,-334.18 -461.54,-325.71 -462.43,-302.04L-466.96,-181.75C-467.74,-160.98 -461.99,-153.27 -451.60,-152.87C-440.73,-152.46 -434.35,-161.42 -430.73,-180.39L-428.31,-180.30L-423.10,-151.80L-420.44,-151.70L-417.86,-220.30C-417.67,-225.13 -416.67,-226.06 -411.60,-225.87L-411.36,-225.86L-411.18,-230.69L-441.13,-231.82ZM-379.86,-150.17C-365.61,-149.63 -353.19,-158.12 -352.30,-181.79L-348.95,-270.67C-348.17,-291.44 -355.86,-299.23 -371.32,-299.82C-385.57,-300.35 -397.98,-291.87 -398.87,-268.20L-402.22,-179.31C-403.00,-158.54 -395.07,-150.74 -379.86,-150.17ZM-374.83,-283.50C-370.00,-283.32 -365.51,-280.49 -366.17,-263.10L-369.30,-180.01C-369.62,-171.55 -371.03,-166.29 -376.34,-166.49C-381.41,-166.68 -385.66,-169.50 -385.00,-186.89L-381.87,-269.98C-381.56,-278.43 -380.15,-283.70 -374.83,-283.50ZM-306.34,-297.37C-321.55,-297.94 -334.05,-280.75 -334.63,-265.54C-335.04,-254.43 -334.11,-240.60 -329.72,-228.83L-306.53,-227.95C-325.58,-248.75 -329.35,-257.84 -328.97,-267.98C-328.65,-276.44 -325.31,-281.63 -312.75,-281.16C-304.78,-280.86 -302.92,-278.86 -303.21,-271.13L-304.90,-226.44C-324.65,-209.29 -335.09,-201.94 -335.82,-182.38L-336.45,-165.71C-336.89,-154.12 -332.27,-148.38 -323.09,-148.03C-313.91,-147.69 -307.65,-153.26 -302.67,-189.11L-300.28,-188.53C-304.47,-154.34 -300.38,-147.18 -290.48,-146.80C-279.13,-146.38 -276.28,-157.88 -275.94,-173.10L-275.11,-214.43L-278.49,-214.56L-280.81,-172.32C-281.35,-164.36 -283.10,-162.97 -285.27,-163.06C-287.93,-163.16 -290.29,-164.70 -289.80,-177.74L-286.07,-276.77C-285.60,-289.09 -292.33,-296.84 -306.34,-297.37ZM-315.42,-165.40C-317.84,-165.49 -319.47,-167.00 -319.31,-171.35L-318.40,-195.51C-318.02,-205.65 -316.11,-211.38 -305.09,-221.37L-305.82,-202.05C-306.65,-179.82 -310.11,-165.20 -315.42,-165.40ZM-241.23,-323.94L-258.14,-324.58L-264.78,-148.25L-247.87,-147.62ZM-200.28,-145.82L-145.94,-143.78L-145.21,-163.10L-178.25,-152.73L-179.39,-154.71C-154.75,-198.77 -146.20,-233.04 -145.56,-250.19L-145.05,-263.47C-144.29,-283.76 -151.50,-291.53 -166.23,-292.09C-180.24,-292.62 -191.52,-275.63 -192.10,-260.41C-192.55,-248.33 -191.92,-232.83 -189.73,-220.41L-168.96,-219.63C-182.47,-239.73 -186.37,-251.97 -185.96,-262.84C-185.65,-271.05 -182.79,-276.26 -172.65,-275.88C-163.71,-275.55 -161.61,-273.53 -162.01,-262.90L-162.61,-246.96C-163.60,-220.63 -171.55,-195.78 -200.28,-145.82ZM-131.34,-242.16L-108.15,-241.28L-107.51,-258.43L-130.69,-259.30ZM-133.97,-172.35L-110.78,-171.48L-110.14,-188.63L-133.32,-189.50ZM-63.32,-140.66L-45.20,-139.98L-43.29,-190.70L-42.81,-190.69C-23.24,-189.95 -6.48,-198.27 -5.59,-221.94L-3.23,-284.50C-2.40,-306.48 -14.16,-315.38 -34.94,-316.17L-56.67,-316.99ZM-39.05,-206.99L-42.67,-207.13L-39.18,-299.88L-37.25,-299.81C-25.17,-299.35 -20.98,-294.84 -21.58,-279.14L-23.80,-220.20C-24.11,-211.75 -27.21,-206.55 -39.05,-206.99ZM57.35,-255.12C58.14,-276.14 51.42,-283.89 38.13,-284.39C23.64,-284.93 12.19,-276.42 11.29,-252.50L7.95,-163.86C7.17,-143.09 14.37,-135.32 29.11,-134.76C45.29,-134.15 53.68,-151.25 54.06,-174.22L54.42,-203.23L51.04,-203.36L49.25,-175.12C48.19,-159.68 44.70,-150.62 37.46,-150.90C30.69,-151.15 24.51,-154.04 25.17,-171.43L26.91,-217.57L55.89,-216.48ZM42.55,-247.70L41.53,-220.40L27.03,-220.95L28.29,-254.28C28.62,-262.98 30.03,-268.25 35.82,-268.03C40.65,-267.85 43.22,-265.33 42.55,-247.70ZM73.79,-241.93L70.43,-152.80C69.97,-140.72 76.21,-132.99 85.15,-132.65C94.33,-132.31 102.77,-138.03 109.21,-174.07L111.60,-173.50L104.67,-137.00L104.56,-134.34L121.23,-133.71L127.87,-310.03L110.97,-310.67L109.87,-281.44L115.67,-274.94L114.16,-273.54C109.03,-278.57 103.84,-281.91 97.80,-282.14C82.34,-282.72 74.88,-270.91 73.79,-241.93ZM91.23,-242.72C92.02,-263.49 94.32,-266.79 98.91,-266.62C102.77,-266.47 106.09,-264.65 109.11,-261.40L106.31,-187.00C105.47,-164.78 99.30,-148.57 93.98,-148.77C89.88,-148.92 87.85,-152.87 88.18,-161.56ZM168.33,-279.48C153.12,-280.06 140.62,-262.87 140.04,-247.65C139.63,-236.54 140.56,-222.72 144.95,-210.94L168.14,-210.07C149.09,-230.86 145.32,-239.96 145.70,-250.10C146.02,-258.55 149.36,-263.75 161.92,-263.28C169.89,-262.98 171.75,-260.97 171.46,-253.24L169.77,-208.56C150.02,-191.40 139.58,-184.06 138.85,-164.49L138.22,-147.83C137.78,-136.23 142.40,-130.49 151.58,-130.15C160.76,-129.80 167.02,-135.37 171.99,-171.22L174.39,-170.65C170.20,-136.46 174.29,-129.29 184.19,-128.92C195.54,-128.49 198.39,-139.99 198.72,-155.22L199.56,-196.55L196.17,-196.68L193.86,-154.44C193.32,-146.47 191.57,-145.09 189.40,-145.17C186.74,-145.27 184.38,-146.81 184.87,-159.85L188.60,-258.89C189.07,-271.20 182.34,-278.96 168.33,-279.48ZM159.25,-147.52C156.83,-147.61 155.20,-149.12 155.36,-153.47L156.27,-177.62C156.65,-187.77 158.56,-193.50 169.58,-203.49L168.85,-184.16C168.02,-161.94 164.56,-147.32 159.25,-147.52ZM262.17,-240.39C262.75,-255.85 253.91,-265.13 240.69,-267.32L240.80,-270.22C252.14,-269.55 260.47,-265.85 273.72,-245.28L274.77,-273.05L239.99,-274.36C225.74,-274.90 213.32,-266.42 212.43,-242.75L210.33,-186.95C209.86,-174.64 212.71,-166.79 218.35,-162.22C214.05,-157.30 206.82,-151.53 206.51,-143.32C206.27,-137.04 210.02,-133.75 215.52,-132.09L215.46,-130.64C208.83,-127.99 203.31,-122.64 202.98,-113.94C202.71,-106.69 208.22,-98.99 222.72,-98.44C242.76,-97.69 266.71,-116.86 267.19,-129.66C267.56,-139.57 260.75,-144.90 245.77,-145.47L220.17,-146.43C215.58,-146.60 214.18,-147.87 214.26,-150.04C214.35,-152.46 217.89,-156.43 222.14,-160.14C224.98,-158.59 228.59,-157.97 232.69,-157.81C246.94,-157.27 259.35,-165.51 260.20,-188.22ZM236.47,-258.05C241.30,-257.87 245.79,-255.04 245.13,-237.65L243.18,-185.72C242.86,-177.26 241.45,-171.99 236.14,-172.19C231.06,-172.39 226.82,-175.21 227.47,-192.60L229.43,-244.53C229.75,-252.98 231.16,-258.25 236.47,-258.05ZM216.87,-123.09C216.97,-125.75 218.27,-128.12 222.21,-129.91L245.15,-129.04C253.37,-128.73 255.17,-125.28 254.95,-119.48C254.77,-114.65 250.11,-112.89 239.00,-113.31C220.16,-114.02 216.69,-118.26 216.87,-123.09ZM301.11,-124.51C315.36,-123.98 327.77,-132.46 328.66,-156.13L332.01,-245.02C332.79,-265.79 325.11,-273.58 309.65,-274.16C295.40,-274.70 282.98,-266.21 282.09,-242.54L278.74,-153.66C277.96,-132.89 285.89,-125.09 301.11,-124.51ZM306.13,-257.84C310.96,-257.66 315.45,-254.83 314.79,-237.44L311.66,-154.35C311.35,-145.90 309.94,-140.63 304.62,-140.83C299.55,-141.02 295.30,-143.84 295.96,-161.23L299.09,-244.32C299.41,-252.78 300.82,-258.04 306.13,-257.84ZM396.72,-235.32C397.30,-250.78 388.46,-260.06 375.24,-262.25L375.35,-265.15C386.69,-264.48 395.02,-260.78 408.27,-240.21L409.32,-267.98L374.54,-269.30C360.29,-269.83 347.87,-261.35 346.98,-237.68L344.88,-181.88C344.41,-169.57 347.26,-161.72 352.90,-157.15C348.60,-152.23 341.37,-146.46 341.06,-138.25C340.82,-131.97 344.57,-128.68 350.07,-127.02L350.01,-125.57C343.38,-122.92 337.86,-117.57 337.53,-108.87C337.26,-101.63 342.77,-93.92 357.27,-93.37C377.31,-92.62 401.26,-111.79 401.74,-124.59C402.11,-134.50 395.30,-139.83 380.32,-140.40L354.72,-141.36C350.13,-141.53 348.73,-142.80 348.81,-144.97C348.90,-147.39 352.44,-151.36 356.69,-155.07C359.53,-153.52 363.14,-152.90 367.24,-152.74C381.49,-152.20 393.90,-160.45 394.75,-183.15ZM371.02,-252.98C375.85,-252.80 380.34,-249.97 379.68,-232.58L377.73,-180.65C377.41,-172.19 376.00,-166.92 370.69,-167.12C365.61,-167.32 361.37,-170.14 362.02,-187.53L363.98,-239.46C364.30,-247.91 365.71,-253.18 371.02,-252.98ZM351.42,-118.02C351.52,-120.68 352.82,-123.05 356.76,-124.84L379.70,-123.97C387.92,-123.66 389.72,-120.21 389.50,-114.41C389.32,-109.58 384.66,-107.82 373.55,-108.24C354.71,-108.95 351.24,-113.19 351.42,-118.02ZM426.47,-267.34L408.12,-268.03L427.32,-142.01L434.32,-141.75L407.51,-91.48L428.28,-90.70L468.74,-265.75L448.94,-266.49L438.58,-165.05L435.93,-165.15L432.43,-213.66Z" fill="#ffffff" stroke="#000000"/>
    <path d="M-438.47,-230.28L-429.40,-229.76L-431.26,-196.80C-432.21,-180.08 -435.27,-172.59 -440.52,-172.88C-444.10,-173.09 -447.30,-175.90 -446.33,-193.10L-439.92,-306.32C-439.45,-314.68 -437.48,-319.84 -430.32,-319.44C-420.28,-318.87 -416.57,-316.74 -416.87,-311.49C-417.25,-304.80 -419.44,-295.58 -438.19,-260.69L-420.04,-259.67C-414.37,-283.55 -412.95,-300.24 -412.26,-312.42C-411.42,-327.23 -416.98,-334.98 -429.40,-335.68C-443.97,-336.50 -456.65,-328.35 -457.97,-304.94L-464.70,-185.99C-465.86,-165.45 -460.31,-157.71 -450.04,-157.13C-439.29,-156.52 -432.80,-165.26 -428.87,-183.97L-426.48,-183.83L-421.85,-155.53L-419.23,-155.38L-415.39,-223.22C-415.12,-228.00 -414.11,-228.90 -409.09,-228.62L-408.85,-228.60L-408.58,-233.38L-438.20,-235.05ZM-379.09,-153.11C-365.00,-152.32 -352.55,-160.48 -351.23,-183.89L-346.26,-271.79C-345.10,-292.33 -352.56,-300.18 -367.85,-301.05C-381.94,-301.84 -394.39,-293.68 -395.71,-270.27L-400.68,-182.37C-401.84,-161.83 -394.14,-153.97 -379.09,-153.11ZM-371.63,-284.97C-366.86,-284.70 -362.47,-281.81 -363.44,-264.61L-368.09,-182.45C-368.56,-174.09 -370.05,-168.90 -375.31,-169.19C-380.32,-169.48 -384.47,-172.35 -383.50,-189.55L-378.85,-271.72C-378.38,-280.08 -376.89,-285.26 -371.63,-284.97ZM-303.59,-297.41C-318.64,-298.26 -331.33,-281.49 -332.18,-266.44C-332.80,-255.45 -332.14,-241.76 -328.01,-230.02L-305.08,-228.72C-323.54,-249.66 -327.10,-258.72 -326.54,-268.76C-326.06,-277.12 -322.66,-282.20 -310.24,-281.49C-302.36,-281.05 -300.56,-279.03 -300.99,-271.39L-303.49,-227.20C-323.36,-210.59 -333.82,-203.51 -334.91,-184.16L-335.85,-167.68C-336.49,-156.22 -332.03,-150.45 -322.95,-149.94C-313.87,-149.43 -307.58,-154.82 -301.98,-190.21L-299.62,-189.60C-304.41,-155.84 -300.50,-148.67 -290.71,-148.12C-279.48,-147.48 -276.44,-158.81 -275.83,-173.87L-274.24,-214.76L-277.58,-214.95L-280.66,-173.19C-281.35,-165.32 -283.10,-163.98 -285.25,-164.10C-287.88,-164.25 -290.18,-165.82 -289.45,-178.72L-283.92,-276.65C-283.23,-288.83 -289.74,-296.63 -303.59,-297.41ZM-315.04,-166.98C-317.43,-167.12 -319.02,-168.65 -318.77,-172.95L-317.42,-196.83C-316.86,-206.87 -314.86,-212.50 -303.77,-222.18L-304.85,-203.07C-306.09,-181.10 -309.78,-166.69 -315.04,-166.98ZM-238.66,-322.50L-255.38,-323.44L-265.24,-149.07L-248.52,-148.13ZM-201.46,-145.47L-147.72,-142.43L-146.64,-161.54L-179.53,-151.89L-180.62,-153.87C-155.41,-197.02 -146.32,-230.77 -145.36,-247.73L-144.61,-260.87C-143.48,-280.93 -150.47,-288.75 -165.04,-289.58C-178.89,-290.36 -190.37,-273.76 -191.22,-258.71C-191.90,-246.77 -191.57,-231.41 -189.63,-219.08L-169.09,-217.92C-182.09,-238.06 -185.71,-250.25 -185.10,-261.00C-184.64,-269.12 -181.72,-274.23 -171.69,-273.66C-162.85,-273.16 -160.81,-271.13 -161.40,-260.62L-162.29,-244.85C-163.77,-218.82 -172.10,-194.37 -201.46,-145.47ZM-131.44,-239.51L-108.51,-238.22L-107.55,-255.18L-130.48,-256.47ZM-135.34,-170.48L-112.41,-169.19L-111.45,-186.14L-134.38,-187.44ZM-66.01,-137.81L-48.10,-136.79L-45.26,-186.95L-44.78,-186.93C-25.44,-185.83 -8.69,-193.75 -7.37,-217.16L-3.87,-279.03C-2.64,-300.76 -14.11,-309.80 -34.66,-310.96L-56.15,-312.18ZM-40.76,-202.99L-44.34,-203.20L-39.16,-294.92L-37.25,-294.81C-25.30,-294.14 -21.25,-289.59 -22.12,-274.07L-25.42,-215.79C-25.89,-207.43 -29.06,-202.33 -40.76,-202.99ZM55.53,-248.83C56.71,-269.61 50.20,-277.41 37.06,-278.15C22.73,-278.96 11.24,-270.74 9.90,-247.10L4.95,-159.43C3.79,-138.89 10.77,-131.07 25.34,-130.24C41.35,-129.34 49.96,-146.11 50.77,-168.82L51.67,-197.53L48.33,-197.72L46.03,-169.81C44.69,-154.55 41.07,-145.65 33.90,-146.05C27.22,-146.43 21.15,-149.41 22.13,-166.61L24.71,-212.23L53.37,-210.61ZM40.75,-241.76L39.23,-214.77L24.90,-215.58L26.76,-248.54C27.25,-257.14 28.74,-262.33 34.47,-262.00C39.25,-261.73 41.74,-259.19 40.75,-241.76ZM71.56,-235.46L66.57,-147.32C65.90,-135.38 71.93,-127.61 80.76,-127.11C89.84,-126.60 98.30,-132.11 105.34,-167.66L107.70,-167.04L100.16,-131.05L100.01,-128.42L116.49,-127.49L126.35,-301.86L109.63,-302.80L108.00,-273.90L113.62,-267.35L112.10,-266.00C107.12,-271.07 102.04,-274.48 96.07,-274.81C80.78,-275.68 73.18,-264.13 71.56,-235.46ZM88.83,-235.92C90.00,-256.47 92.33,-259.69 96.87,-259.43C100.69,-259.21 103.94,-257.35 106.87,-254.07L102.71,-180.50C101.47,-158.53 95.06,-142.60 89.80,-142.89C85.74,-143.12 83.81,-147.07 84.30,-155.67ZM165.82,-270.87C150.77,-271.72 138.08,-254.94 137.23,-239.90C136.61,-228.91 137.27,-215.21 141.40,-203.48L164.33,-202.18C145.87,-223.11 142.31,-232.18 142.87,-242.21C143.35,-250.57 146.75,-255.65 159.17,-254.95C167.05,-254.50 168.85,-252.49 168.42,-244.84L165.92,-200.65C146.05,-184.04 135.59,-176.97 134.49,-157.62L133.56,-141.14C132.91,-129.67 137.38,-123.91 146.46,-123.40C155.53,-122.88 161.83,-128.28 167.43,-163.67L169.79,-163.05C165.00,-129.30 168.91,-122.13 178.70,-121.57C189.93,-120.94 192.97,-132.27 193.58,-147.33L195.17,-188.22L191.83,-188.40L188.75,-146.64C188.06,-138.78 186.31,-137.44 184.16,-137.56C181.53,-137.71 179.23,-139.28 179.96,-152.17L185.49,-250.11C186.18,-262.29 179.67,-270.08 165.82,-270.87ZM154.37,-140.44C151.98,-140.58 150.39,-142.10 150.63,-146.40L151.98,-170.29C152.55,-180.32 154.55,-185.96 165.64,-195.64L164.56,-176.53C163.32,-154.55 159.63,-140.14 154.37,-140.44ZM257.95,-230.43C258.82,-245.72 250.24,-255.07 237.20,-257.49L237.36,-260.35C248.57,-259.48 256.74,-255.66 269.48,-235.05L271.03,-262.52L236.63,-264.47C222.54,-265.26 210.10,-257.10 208.77,-233.69L205.65,-178.52C204.97,-166.33 207.64,-158.52 213.13,-153.89C208.78,-149.11 201.52,-143.53 201.06,-135.40C200.71,-129.19 204.35,-125.87 209.77,-124.13L209.69,-122.70C203.07,-120.19 197.51,-115.00 197.02,-106.40C196.62,-99.23 201.93,-91.50 216.26,-90.69C236.09,-89.57 260.14,-108.10 260.86,-120.76C261.41,-130.55 254.77,-135.96 239.96,-136.80L214.64,-138.23C210.10,-138.49 208.73,-139.76 208.86,-141.91C208.99,-144.30 212.56,-148.17 216.84,-151.77C219.63,-150.17 223.18,-149.49 227.24,-149.26C241.34,-148.46 253.77,-156.39 255.04,-178.84ZM232.85,-248.39C237.63,-248.12 242.02,-245.23 241.04,-228.03L238.14,-176.68C237.67,-168.32 236.17,-163.13 230.92,-163.43C225.90,-163.71 221.75,-166.58 222.73,-183.78L225.63,-235.14C226.10,-243.50 227.59,-248.68 232.85,-248.39ZM210.94,-115.20C211.09,-117.82 212.42,-120.15 216.35,-121.84L239.04,-120.56C247.16,-120.10 248.88,-116.65 248.56,-110.91C248.29,-106.14 243.64,-104.48 232.65,-105.10C214.02,-106.16 210.67,-110.42 210.94,-115.20ZM294.33,-115.03C308.42,-114.24 320.86,-122.40 322.19,-145.81L327.16,-233.71C328.32,-254.25 320.85,-262.10 305.57,-262.97C291.47,-263.76 279.03,-255.60 277.71,-232.19L272.74,-144.29C271.58,-123.75 279.28,-115.89 294.33,-115.03ZM301.78,-246.89C306.56,-246.62 310.95,-243.73 309.98,-226.53L305.33,-144.36C304.86,-136.00 303.37,-130.82 298.11,-131.11C293.10,-131.40 288.94,-134.27 289.92,-151.47L294.56,-233.63C295.04,-242.00 296.53,-247.18 301.78,-246.89ZM391.01,-222.91C391.88,-238.20 383.30,-247.55 370.26,-249.96L370.42,-252.83C381.63,-251.96 389.80,-248.14 402.54,-227.53L404.09,-255.00L369.69,-256.94C355.60,-257.74 343.16,-249.58 341.83,-226.17L338.71,-170.99C338.02,-158.81 340.70,-150.99 346.19,-146.37C341.84,-141.58 334.58,-136.00 334.12,-127.88C333.77,-121.67 337.41,-118.35 342.83,-116.60L342.75,-115.17C336.13,-112.67 330.57,-107.47 330.08,-98.87C329.68,-91.71 334.99,-83.98 349.32,-83.17C369.15,-82.05 393.20,-100.58 393.92,-113.24C394.47,-123.03 387.83,-128.44 373.02,-129.28L347.70,-130.71C343.16,-130.96 341.79,-132.24 341.91,-134.39C342.05,-136.78 345.62,-140.65 349.90,-144.24C352.69,-142.65 356.24,-141.97 360.30,-141.74C374.40,-140.94 386.82,-148.86 388.09,-171.32ZM365.91,-240.86C370.68,-240.59 375.07,-237.71 374.10,-220.51L371.20,-169.16C370.73,-160.80 369.23,-155.61 363.98,-155.91C358.96,-156.19 354.81,-159.06 355.78,-176.26L358.69,-227.61C359.16,-235.97 360.65,-241.16 365.91,-240.86ZM344.00,-107.67C344.15,-110.30 345.48,-112.62 349.41,-114.32L372.10,-113.03C380.22,-112.57 381.94,-109.12 381.62,-103.39C381.35,-98.61 376.70,-96.96 365.71,-97.58C347.08,-98.63 343.73,-102.90 344.00,-107.67ZM421.05,-254.04L402.90,-255.07L419.55,-130.00L426.48,-129.61L399.01,-80.36L419.55,-79.20L462.86,-251.68L443.27,-252.78L431.13,-152.59L428.51,-152.74L425.95,-200.81Z" fill="#ffffff" stroke="#000000"/>
    <path d="M-435.55,-233.59L-426.57,-232.92L-429.03,-200.34C-430.28,-183.81 -433.45,-176.45 -438.64,-176.84C-442.18,-177.11 -445.29,-179.95 -444.01,-196.95L-435.56,-308.87C-434.94,-317.13 -432.90,-322.20 -425.81,-321.67C-415.90,-320.92 -412.26,-318.74 -412.65,-313.55C-413.15,-306.94 -415.50,-297.86 -434.70,-263.69L-416.76,-262.33C-410.71,-285.86 -408.99,-302.35 -408.08,-314.39C-406.97,-329.03 -412.32,-336.79 -424.60,-337.72C-439.00,-338.81 -451.70,-330.98 -453.45,-307.84L-462.32,-190.26C-463.86,-169.96 -458.50,-162.19 -448.35,-161.43C-437.73,-160.62 -431.15,-169.15 -426.91,-187.59L-424.55,-187.41L-420.49,-159.32L-417.89,-159.13L-412.83,-226.18C-412.48,-230.90 -411.46,-231.78 -406.50,-231.40L-406.27,-231.39L-405.91,-236.11L-435.19,-238.32ZM-378.22,-156.13C-364.29,-155.08 -351.83,-162.93 -350.08,-186.07L-343.53,-272.95C-341.99,-293.26 -349.23,-301.17 -364.34,-302.31C-378.27,-303.36 -390.74,-295.51 -392.48,-272.37L-399.04,-185.49C-400.57,-165.18 -393.10,-157.26 -378.22,-156.13ZM-368.39,-286.46C-363.67,-286.11 -359.38,-283.17 -360.66,-266.17L-366.79,-184.95C-367.41,-176.69 -368.98,-171.58 -374.18,-171.98C-379.14,-172.35 -383.19,-175.27 -381.91,-192.27L-375.78,-273.49C-375.16,-281.75 -373.58,-286.86 -368.39,-286.46ZM-300.82,-297.51C-315.70,-298.64 -328.57,-282.27 -329.69,-267.40C-330.51,-256.54 -330.11,-242.97 -326.24,-231.28L-303.58,-229.57C-321.46,-250.63 -324.81,-259.67 -324.07,-269.59C-323.44,-277.85 -319.98,-282.81 -307.70,-281.89C-299.91,-281.30 -298.17,-279.27 -298.74,-271.71L-302.03,-228.03C-322.00,-211.97 -332.49,-205.16 -333.93,-186.04L-335.16,-169.74C-336.02,-158.41 -331.70,-152.62 -322.73,-151.95C-313.76,-151.27 -307.43,-156.49 -301.23,-191.40L-298.91,-190.75C-304.27,-157.44 -300.54,-150.27 -290.86,-149.54C-279.76,-148.70 -276.54,-159.86 -275.66,-174.75L-273.32,-215.18L-276.63,-215.43L-280.45,-174.16C-281.28,-166.39 -283.04,-165.10 -285.16,-165.26C-287.76,-165.45 -290.01,-167.05 -289.05,-179.80L-281.74,-276.60C-280.84,-288.64 -287.13,-296.48 -300.82,-297.51ZM-314.58,-168.67C-316.95,-168.84 -318.49,-170.39 -318.17,-174.64L-316.39,-198.25C-315.64,-208.16 -313.56,-213.70 -302.41,-223.07L-303.83,-204.18C-305.47,-182.46 -309.39,-168.27 -314.58,-168.67ZM-236.11,-321.12L-252.64,-322.37L-265.65,-150.01L-249.12,-148.77ZM-202.60,-145.26L-149.47,-141.25L-148.05,-160.14L-180.78,-151.21L-181.82,-153.19C-156.07,-195.41 -146.44,-228.64 -145.18,-245.40L-144.20,-258.39C-142.70,-278.22 -149.47,-286.09 -163.87,-287.18C-177.56,-288.21 -189.24,-272.00 -190.36,-257.12C-191.25,-245.32 -191.21,-230.12 -189.52,-217.88L-169.21,-216.35C-181.70,-236.52 -185.06,-248.65 -184.26,-259.27C-183.65,-267.30 -180.66,-272.30 -170.75,-271.55C-162.01,-270.89 -160.03,-268.84 -160.81,-258.45L-161.99,-242.87C-163.93,-217.14 -172.63,-193.10 -202.60,-145.26ZM-131.56,-237.01L-108.89,-235.30L-107.63,-252.07L-130.29,-253.78ZM-136.71,-168.78L-114.04,-167.07L-112.77,-183.83L-135.44,-185.54ZM-68.71,-135.15L-51.01,-133.82L-47.26,-183.40L-46.79,-183.36C-27.67,-181.92 -10.95,-189.45 -9.21,-212.58L-4.59,-273.73C-2.97,-295.22 -14.15,-304.37 -34.46,-305.91L-55.71,-307.51ZM-42.51,-199.19L-46.05,-199.45L-39.21,-290.12L-37.32,-289.98C-25.52,-289.09 -21.59,-284.51 -22.75,-269.17L-27.09,-211.56C-27.72,-203.29 -30.94,-198.31 -42.51,-199.19ZM53.63,-242.75C55.18,-263.29 48.88,-271.12 35.89,-272.10C21.73,-273.17 10.21,-265.26 8.44,-241.88L1.91,-155.23C0.37,-134.93 7.14,-127.06 21.54,-125.97C37.36,-124.77 46.20,-141.20 47.42,-163.67L48.85,-192.06L45.54,-192.31L42.75,-164.73C41.14,-149.66 37.39,-140.92 30.31,-141.45C23.70,-141.95 17.76,-145.01 19.04,-162.01L22.44,-207.11L50.77,-204.97ZM38.87,-236.02L36.86,-209.34L22.69,-210.41L25.15,-243.00C25.79,-251.50 27.36,-256.60 33.03,-256.17C37.75,-255.82 40.17,-253.26 38.87,-236.02ZM69.23,-229.22L62.66,-142.10C61.77,-130.29 67.59,-122.49 76.33,-121.83C85.30,-121.16 93.77,-126.45 101.40,-161.50L103.73,-160.85L95.59,-125.37L95.39,-122.77L111.68,-121.54L124.69,-293.90L108.16,-295.14L106.01,-266.58L111.45,-259.99L109.92,-258.68C105.08,-263.80 100.12,-267.26 94.22,-267.70C79.11,-268.84 71.37,-257.55 69.23,-229.22ZM86.34,-229.36C87.87,-249.66 90.25,-252.81 94.73,-252.47C98.51,-252.18 101.69,-250.28 104.53,-246.98L99.04,-174.26C97.40,-152.54 90.76,-136.89 85.56,-137.28C81.55,-137.59 79.71,-141.52 80.35,-150.02ZM163.17,-262.50C148.29,-263.62 135.42,-247.26 134.30,-232.39C133.48,-221.52 133.88,-207.96 137.75,-196.27L160.42,-194.56C142.53,-215.62 139.18,-224.66 139.93,-234.57C140.55,-242.84 144.01,-247.80 156.29,-246.87C164.08,-246.28 165.83,-244.25 165.26,-236.70L161.96,-193.02C141.99,-176.95 131.50,-170.15 130.06,-151.02L128.83,-134.73C127.98,-123.40 132.29,-117.61 141.26,-116.93C150.23,-116.26 156.56,-121.48 162.76,-156.39L165.08,-155.74C159.72,-122.43 163.45,-115.26 173.14,-114.53C184.23,-113.69 187.45,-124.85 188.33,-139.74L190.67,-180.17L187.37,-180.42L183.54,-139.15C182.72,-131.38 180.96,-130.09 178.83,-130.25C176.24,-130.44 173.98,-132.04 174.94,-144.79L182.25,-241.59C183.16,-253.63 176.86,-261.47 163.17,-262.50ZM149.41,-133.65C147.05,-133.83 145.50,-135.37 145.82,-139.62L147.60,-163.23C148.35,-173.15 150.43,-178.69 161.59,-188.06L160.16,-169.17C158.52,-147.45 154.60,-133.26 149.41,-133.65ZM253.58,-220.77C254.72,-235.88 246.41,-245.30 233.55,-247.93L233.76,-250.76C244.84,-249.69 252.86,-245.76 265.07,-225.13L267.12,-252.28L233.12,-254.85C219.19,-255.90 206.73,-248.05 204.98,-224.91L200.86,-170.37C199.96,-158.33 202.45,-150.55 207.80,-145.87C203.41,-141.21 196.12,-135.83 195.51,-127.80C195.05,-121.66 198.60,-118.31 203.92,-116.48L203.81,-115.06C197.22,-112.71 191.62,-107.67 190.98,-99.17C190.45,-92.09 195.56,-84.34 209.73,-83.27C229.32,-81.80 253.47,-99.68 254.41,-112.20C255.14,-121.88 248.67,-127.35 234.03,-128.46L209.00,-130.34C204.52,-130.68 203.19,-131.97 203.35,-134.09C203.53,-136.46 207.14,-140.22 211.44,-143.69C214.16,-142.06 217.67,-141.32 221.68,-141.02C235.61,-139.97 248.06,-147.58 249.73,-169.77ZM229.08,-239.01C233.80,-238.65 238.09,-235.71 236.80,-218.71L232.97,-167.95C232.35,-159.69 230.78,-154.58 225.58,-154.97C220.63,-155.35 216.57,-158.27 217.85,-175.27L221.69,-226.03C222.31,-234.29 223.88,-239.40 229.08,-239.01ZM204.91,-107.62C205.11,-110.22 206.47,-112.49 210.39,-114.09L232.82,-112.40C240.85,-111.79 242.49,-108.35 242.06,-102.68C241.70,-97.96 237.07,-96.41 226.21,-97.23C207.80,-98.62 204.56,-102.90 204.91,-107.62ZM287.42,-105.91C301.35,-104.85 313.82,-112.70 315.56,-135.84L322.12,-222.72C323.65,-243.03 316.41,-250.94 301.30,-252.08C287.37,-253.13 274.91,-245.28 273.16,-222.14L266.61,-135.26C265.07,-114.95 272.55,-107.03 287.42,-105.91ZM297.26,-236.24C301.98,-235.88 306.27,-232.94 304.99,-215.94L298.86,-134.72C298.24,-126.46 296.66,-121.35 291.47,-121.75C286.51,-122.12 282.46,-125.04 283.74,-142.04L289.87,-223.26C290.49,-231.52 292.06,-236.63 297.26,-236.24ZM385.11,-210.85C386.25,-225.96 377.93,-235.37 365.07,-238.00L365.29,-240.84C376.36,-239.76 384.38,-235.83 396.59,-215.20L398.64,-242.36L364.64,-244.92C350.71,-245.97 338.25,-238.13 336.50,-214.99L332.39,-160.45C331.48,-148.41 333.98,-140.62 339.32,-135.94C334.94,-131.29 327.64,-125.90 327.04,-117.88C326.57,-111.74 330.12,-108.38 335.44,-106.56L335.34,-105.14C328.75,-102.79 323.14,-97.75 322.50,-89.25C321.97,-82.17 327.08,-74.42 341.25,-73.35C360.85,-71.87 384.99,-89.76 385.94,-102.27C386.67,-111.95 380.19,-117.43 365.55,-118.53L340.53,-120.42C336.04,-120.76 334.71,-122.04 334.87,-124.17C335.05,-126.53 338.66,-130.30 342.96,-133.77C345.69,-132.14 349.19,-131.40 353.21,-131.10C367.14,-130.05 379.58,-137.66 381.26,-159.85ZM360.60,-229.08C365.32,-228.72 369.61,-225.79 368.33,-208.79L364.50,-158.03C363.87,-149.76 362.30,-144.66 357.11,-145.05C352.15,-145.42 348.10,-148.34 349.38,-165.34L353.21,-216.10C353.83,-224.37 355.40,-229.47 360.60,-229.08ZM336.44,-97.69C336.63,-100.29 337.99,-102.56 341.91,-104.17L364.34,-102.48C372.37,-101.87 374.01,-98.42 373.58,-92.76C373.23,-88.03 368.60,-86.48 357.74,-87.30C339.32,-88.69 336.08,-92.97 336.44,-97.69ZM415.41,-241.09L397.47,-242.45L411.61,-118.38L418.46,-117.86L390.37,-69.64L410.67,-68.11L456.73,-237.97L437.37,-239.43L423.50,-140.52L420.90,-140.71L419.27,-188.32Z" fill="#ffffff" stroke="#000000"/>
    <path d="M-432.52,-236.93L-423.66,-236.10L-426.70,-203.91C-428.24,-187.58 -431.51,-180.35 -436.64,-180.84C-440.14,-181.17 -443.17,-184.04 -441.58,-200.84L-431.14,-311.41C-430.37,-319.57 -428.25,-324.55 -421.25,-323.89C-411.45,-322.97 -407.90,-320.75 -408.38,-315.62C-409.00,-309.08 -411.49,-300.14 -431.12,-266.69L-413.40,-265.02C-406.97,-288.18 -404.96,-304.47 -403.84,-316.36C-402.48,-330.83 -407.62,-338.61 -419.75,-339.75C-433.98,-341.10 -446.70,-333.59 -448.85,-310.73L-459.82,-194.56C-461.72,-174.50 -456.57,-166.72 -446.54,-165.77C-436.04,-164.78 -429.37,-173.09 -424.83,-191.26L-422.50,-191.04L-419.01,-163.17L-416.45,-162.93L-410.19,-229.18C-409.75,-233.84 -408.73,-234.69 -403.83,-234.22L-403.60,-234.20L-403.16,-238.87L-432.08,-241.60ZM-377.25,-159.23C-363.49,-157.93 -351.01,-165.46 -348.85,-188.32L-340.74,-274.16C-338.85,-294.22 -345.87,-302.18 -360.79,-303.59C-374.56,-304.89 -387.04,-297.36 -389.19,-274.50L-397.30,-188.66C-399.19,-168.59 -391.95,-160.61 -377.25,-159.23ZM-365.09,-287.99C-360.43,-287.55 -356.24,-284.57 -357.82,-267.77L-365.40,-187.53C-366.17,-179.36 -367.82,-174.34 -372.95,-174.82C-377.85,-175.29 -381.81,-178.25 -380.22,-195.05L-372.65,-275.29C-371.87,-283.46 -370.22,-288.48 -365.09,-287.99ZM-298.04,-297.66C-312.73,-299.05 -325.77,-283.10 -327.16,-268.41C-328.17,-257.68 -328.03,-244.25 -324.42,-232.61L-302.03,-230.50C-319.33,-251.66 -322.48,-260.67 -321.55,-270.47C-320.78,-278.63 -317.26,-283.48 -305.13,-282.33C-297.44,-281.60 -295.75,-279.56 -296.45,-272.10L-300.53,-228.94C-320.58,-213.42 -331.09,-206.88 -332.87,-187.99L-334.39,-171.89C-335.45,-160.69 -331.29,-154.89 -322.42,-154.05C-313.56,-153.21 -307.20,-158.26 -300.42,-192.69L-298.13,-192.00C-304.06,-159.14 -300.50,-151.98 -290.93,-151.08C-279.97,-150.04 -276.58,-161.02 -275.42,-175.74L-272.36,-215.69L-275.62,-216.00L-280.18,-175.24C-281.14,-167.57 -282.90,-166.32 -285.00,-166.52C-287.57,-166.76 -289.77,-168.38 -288.58,-180.98L-279.55,-276.62C-278.43,-288.52 -284.51,-296.39 -298.04,-297.66ZM-314.05,-170.44C-316.38,-170.66 -317.89,-172.21 -317.49,-176.41L-315.29,-199.74C-314.36,-209.54 -312.20,-214.98 -300.99,-224.04L-302.75,-205.38C-304.78,-183.92 -308.92,-169.95 -314.05,-170.44ZM-233.57,-319.82L-249.90,-321.36L-265.98,-151.07L-249.65,-149.53ZM-203.69,-145.19L-151.20,-140.24L-149.44,-158.90L-181.99,-150.67L-182.98,-152.65C-156.72,-193.95 -146.57,-226.64 -145.01,-243.21L-143.80,-256.04C-141.95,-275.63 -148.50,-283.54 -162.73,-284.89C-176.26,-286.17 -188.11,-270.34 -189.49,-255.64C-190.59,-243.98 -190.84,-228.94 -189.40,-216.80L-169.33,-214.91C-181.31,-235.10 -184.41,-247.16 -183.42,-257.66C-182.67,-265.59 -179.62,-270.48 -169.82,-269.55C-161.19,-268.74 -159.27,-266.67 -160.24,-256.41L-161.69,-241.01C-164.09,-215.59 -173.15,-191.97 -203.69,-145.19ZM-131.69,-234.65L-109.30,-232.54L-107.73,-249.10L-130.13,-251.21ZM-138.06,-167.24L-115.66,-165.12L-114.10,-181.68L-136.49,-183.80ZM-71.41,-132.70L-53.92,-131.05L-49.29,-180.04L-48.82,-179.99C-29.93,-178.21 -13.25,-185.34 -11.09,-208.20L-5.39,-268.62C-3.38,-289.85 -14.27,-299.11 -34.34,-301.01L-55.33,-302.99ZM-44.29,-195.57L-47.79,-195.90L-39.33,-285.47L-37.47,-285.30C-25.80,-284.20 -22.00,-279.60 -23.43,-264.44L-28.81,-207.52C-29.58,-199.36 -32.86,-194.49 -44.29,-195.57ZM51.64,-236.88C53.55,-257.17 47.47,-265.04 34.64,-266.25C20.65,-267.57 9.10,-259.96 6.92,-236.86L-1.16,-151.25C-3.06,-131.19 3.49,-123.27 17.72,-121.93C33.35,-120.46 42.40,-136.55 44.03,-158.75L45.97,-186.81L42.70,-187.12L39.43,-159.89C37.55,-145.01 33.68,-136.43 26.68,-137.09C20.15,-137.71 14.33,-140.84 15.91,-157.64L20.12,-202.19L48.11,-199.55ZM36.91,-230.50L34.43,-204.14L20.43,-205.46L23.47,-237.65C24.26,-246.05 25.91,-251.07 31.51,-250.54C36.18,-250.10 38.52,-247.53 36.91,-230.50ZM66.83,-223.20L58.70,-137.13C57.60,-125.46 63.21,-117.64 71.84,-116.82C80.71,-115.98 89.19,-121.07 97.39,-155.59L99.68,-154.91L90.97,-119.96L90.73,-117.39L106.82,-115.87L122.90,-286.16L106.57,-287.70L103.91,-259.48L109.17,-252.86L107.63,-251.59C102.94,-256.74 98.10,-260.26 92.27,-260.81C77.34,-262.22 69.47,-251.20 66.83,-223.20ZM83.75,-223.02C85.65,-243.08 88.06,-246.15 92.49,-245.73C96.22,-245.37 99.33,-243.43 102.08,-240.11L95.30,-168.27C93.27,-146.81 86.41,-131.45 81.27,-131.93C77.31,-132.31 75.56,-136.24 76.35,-144.64ZM160.39,-254.38C145.69,-255.77 132.65,-239.82 131.27,-225.12C130.25,-214.39 130.40,-200.96 134.00,-189.32L156.40,-187.21C139.10,-208.38 135.95,-217.38 136.87,-227.18C137.64,-235.34 141.16,-240.19 153.29,-239.04C160.99,-238.32 162.68,-236.27 161.97,-228.81L157.90,-185.65C137.84,-170.13 127.34,-163.59 125.55,-144.70L124.03,-128.60C122.98,-117.41 127.14,-111.60 136.00,-110.76C144.87,-109.93 151.23,-114.97 158.01,-149.40L160.30,-148.71C154.37,-115.85 157.93,-108.69 167.49,-107.79C178.46,-106.75 181.85,-117.73 183.00,-132.45L186.07,-172.40L182.80,-172.71L178.25,-131.96C177.29,-124.28 175.52,-123.03 173.42,-123.23C170.86,-123.48 168.66,-125.09 169.85,-137.69L178.88,-233.33C180.00,-245.23 173.92,-253.10 160.39,-254.38ZM144.37,-127.15C142.04,-127.37 140.54,-128.93 140.94,-133.13L143.14,-156.45C144.06,-166.25 146.23,-171.69 157.44,-180.76L155.68,-162.09C153.65,-140.63 149.51,-126.67 144.37,-127.15ZM249.07,-211.41C250.48,-226.34 242.43,-235.81 229.75,-238.65L230.02,-241.45C240.96,-240.18 248.81,-236.14 260.51,-215.50L263.05,-242.33L229.46,-245.50C215.69,-246.80 203.21,-239.27 201.06,-216.41L195.97,-162.53C194.84,-150.63 197.17,-142.88 202.37,-138.15C197.95,-133.63 190.63,-128.43 189.88,-120.50C189.31,-114.44 192.76,-111.05 197.99,-109.15L197.86,-107.75C191.29,-105.54 185.65,-100.66 184.86,-92.26C184.20,-85.26 189.12,-77.50 203.11,-76.18C222.47,-74.35 246.70,-91.60 247.86,-103.97C248.77,-113.53 242.47,-119.07 228.00,-120.43L203.28,-122.77C198.84,-123.19 197.55,-124.48 197.75,-126.58C197.97,-128.92 201.61,-132.57 205.93,-135.93C208.60,-134.27 212.05,-133.47 216.02,-133.10C229.78,-131.80 242.24,-139.09 244.31,-161.02ZM225.16,-229.90C229.82,-229.46 234.01,-226.48 232.43,-209.68L227.69,-159.53C226.92,-151.37 225.27,-146.34 220.14,-146.83C215.24,-147.29 211.28,-150.25 212.87,-167.05L217.61,-217.20C218.38,-225.37 220.03,-230.39 225.16,-229.90ZM198.81,-100.36C199.05,-102.93 200.44,-105.15 204.34,-106.66L226.50,-104.57C234.44,-103.82 235.99,-100.38 235.46,-94.78C235.02,-90.12 230.42,-88.67 219.69,-89.68C201.49,-91.40 198.37,-95.69 198.81,-100.36ZM280.41,-97.13C294.17,-95.83 306.65,-103.36 308.81,-126.22L316.92,-212.06C318.81,-232.12 311.80,-240.08 296.87,-241.49C283.10,-242.79 270.62,-235.26 268.47,-212.40L260.36,-126.56C258.47,-106.49 265.71,-98.51 280.41,-97.13ZM292.57,-225.89C297.23,-225.45 301.42,-222.47 299.84,-205.67L292.26,-125.43C291.49,-117.26 289.84,-112.24 284.71,-112.72C279.81,-113.19 275.85,-116.15 277.44,-132.95L285.01,-213.19C285.79,-221.36 287.44,-226.38 292.57,-225.89ZM379.01,-199.14C380.42,-214.07 372.37,-223.54 359.70,-226.38L359.96,-229.18C370.90,-227.91 378.76,-223.87 390.46,-203.23L392.99,-230.06L359.40,-233.23C345.64,-234.53 333.16,-227.00 331.00,-204.14L325.91,-150.26C324.79,-138.36 327.12,-130.61 332.32,-125.88C327.89,-121.36 320.58,-116.16 319.83,-108.23C319.25,-102.17 322.70,-98.78 327.93,-96.88L327.80,-95.48C321.24,-93.27 315.60,-88.39 314.81,-79.99C314.15,-72.99 319.06,-65.23 333.06,-63.91C352.42,-62.08 376.64,-79.33 377.81,-91.70C378.71,-101.26 372.41,-106.80 357.95,-108.16L333.22,-110.50C328.79,-110.92 327.50,-112.21 327.70,-114.31C327.92,-116.65 331.56,-120.30 335.88,-123.66C338.54,-122.00 342.00,-121.20 345.96,-120.83C359.73,-119.53 372.18,-126.82 374.25,-148.75ZM355.11,-217.63C359.77,-217.19 363.96,-214.21 362.37,-197.41L357.64,-147.26C356.87,-139.10 355.22,-134.07 350.08,-134.56C345.19,-135.02 341.23,-137.98 342.82,-154.78L347.55,-204.93C348.32,-213.10 349.97,-218.12 355.11,-217.63ZM328.75,-88.09C328.99,-90.66 330.38,-92.88 334.29,-94.39L356.45,-92.30C364.38,-91.55 365.94,-88.11 365.41,-82.51C364.97,-77.84 360.36,-76.40 349.63,-77.41C331.44,-79.13 328.31,-83.42 328.75,-88.09ZM409.56,-228.50L391.83,-230.17L403.52,-107.15L410.28,-106.52L381.59,-59.33L401.65,-57.44L450.39,-224.64L431.26,-226.45L415.69,-128.83L413.12,-129.08L412.39,-176.22Z" fill="#ffffff" stroke="#000000"/>
    <path d="M-429.40,-240.29L-420.65,-239.30L-424.25,-207.51C-426.08,-191.38 -429.45,-184.30 -434.52,-184.87C-437.98,-185.26 -440.92,-188.16 -439.03,-204.75L-426.65,-313.94C-425.73,-322.01 -423.54,-326.89 -416.63,-326.11C-406.96,-325.01 -403.48,-322.75 -404.05,-317.68C-404.79,-311.23 -407.42,-302.43 -427.46,-269.70L-409.96,-267.72C-403.17,-290.51 -400.88,-306.59 -399.55,-318.34C-397.93,-332.62 -402.88,-340.41 -414.85,-341.77C-428.91,-343.37 -441.62,-336.18 -444.18,-313.60L-457.20,-198.88C-459.45,-179.07 -454.50,-171.27 -444.59,-170.15C-434.23,-168.97 -427.47,-177.07 -422.65,-194.96L-420.34,-194.70L-417.41,-167.06L-414.88,-166.78L-407.45,-232.20C-406.93,-236.81 -405.90,-237.62 -401.07,-237.08L-400.84,-237.05L-400.31,-241.66L-428.88,-244.90ZM-376.17,-162.38C-362.58,-160.84 -350.09,-168.06 -347.53,-190.63L-337.91,-275.41C-335.66,-295.22 -342.46,-303.22 -357.20,-304.90C-370.79,-306.44 -383.28,-299.22 -385.84,-276.65L-395.46,-191.87C-397.70,-172.06 -390.68,-164.03 -376.17,-162.38ZM-361.74,-289.55C-357.13,-289.02 -353.04,-285.99 -354.93,-269.41L-363.92,-190.16C-364.83,-182.10 -366.56,-177.16 -371.63,-177.74C-376.46,-178.28 -380.32,-181.29 -378.44,-197.88L-369.45,-277.12C-368.54,-285.18 -366.81,-290.12 -361.74,-289.55ZM-295.22,-297.87C-309.74,-299.51 -322.93,-283.98 -324.58,-269.46C-325.78,-258.87 -325.89,-245.58 -322.54,-234.00L-300.42,-231.49C-317.14,-252.75 -320.09,-261.72 -318.99,-271.40C-318.08,-279.46 -314.51,-284.19 -302.53,-282.83C-294.93,-281.97 -293.29,-279.91 -294.13,-272.54L-298.97,-229.92C-319.10,-214.94 -329.61,-208.67 -331.73,-190.01L-333.53,-174.11C-334.79,-163.06 -330.78,-157.23 -322.03,-156.24C-313.27,-155.25 -306.89,-160.12 -299.54,-194.06L-297.28,-193.33C-303.76,-160.94 -300.37,-153.78 -290.93,-152.71C-280.10,-151.48 -276.54,-162.28 -275.13,-176.82L-271.35,-216.29L-274.57,-216.66L-279.84,-176.42C-280.93,-168.85 -282.70,-167.65 -284.77,-167.88C-287.31,-168.17 -289.45,-169.81 -288.04,-182.25L-277.33,-276.70C-275.99,-288.45 -281.86,-296.35 -295.22,-297.87ZM-313.44,-172.30C-315.74,-172.56 -317.20,-174.13 -316.73,-178.27L-314.11,-201.31C-313.02,-210.99 -310.78,-216.33 -299.52,-225.09L-301.61,-206.66C-304.01,-185.46 -308.37,-171.73 -313.44,-172.30ZM-231.03,-318.58L-247.16,-320.41L-266.24,-152.25L-250.11,-150.42ZM-204.73,-145.27L-152.89,-139.39L-150.80,-157.81L-183.16,-150.29L-184.10,-152.26C-157.35,-192.62 -146.70,-224.78 -144.85,-241.14L-143.41,-253.81C-141.22,-273.16 -147.55,-281.11 -161.60,-282.70C-174.96,-284.22 -186.98,-268.78 -188.63,-254.27C-189.93,-242.75 -190.45,-227.88 -189.25,-215.84L-169.44,-213.60C-180.91,-233.80 -183.75,-245.79 -182.58,-256.15C-181.69,-263.98 -178.58,-268.76 -168.91,-267.67C-160.38,-266.70 -158.52,-264.62 -159.67,-254.49L-161.39,-239.28C-164.24,-214.17 -173.64,-190.97 -204.73,-145.27ZM-131.83,-232.43L-109.72,-229.92L-107.86,-246.27L-129.98,-248.78ZM-139.38,-165.85L-117.27,-163.34L-115.41,-179.70L-137.53,-182.21ZM-74.10,-130.44L-56.82,-128.48L-51.33,-176.86L-50.87,-176.81C-32.21,-174.69 -15.58,-181.44 -13.02,-204.01L-6.25,-263.68C-3.87,-284.64 -14.47,-294.01 -34.28,-296.26L-55.02,-298.61ZM-46.10,-192.13L-49.55,-192.53L-39.52,-280.99L-37.67,-280.78C-26.15,-279.47 -22.48,-274.85 -24.18,-259.88L-30.55,-203.67C-31.47,-195.61 -34.81,-190.85 -46.10,-192.13ZM49.58,-231.21C51.85,-251.25 45.98,-259.15 33.31,-260.59C19.49,-262.16 7.92,-254.84 5.34,-232.03L-4.26,-147.49C-6.50,-127.68 -0.17,-119.72 13.88,-118.13C29.31,-116.38 38.57,-132.13 40.59,-154.07L43.03,-181.79L39.81,-182.15L36.06,-155.28C33.93,-140.59 29.94,-132.17 23.03,-132.96C16.58,-133.69 10.88,-136.90 12.76,-153.49L17.75,-197.49L45.39,-194.35ZM34.89,-225.18L31.94,-199.15L18.12,-200.72L21.72,-232.51C22.66,-240.80 24.39,-245.74 29.92,-245.11C34.53,-244.59 36.80,-241.99 34.89,-225.18ZM64.35,-217.40L54.70,-132.40C53.40,-120.88 58.81,-113.03 67.33,-112.07C76.08,-111.07 84.57,-115.94 93.33,-149.95L95.58,-149.23L86.31,-114.81L86.02,-112.28L101.92,-110.47L121.00,-278.64L104.87,-280.47L101.71,-252.60L106.79,-245.95L105.25,-244.73C100.70,-249.91 95.97,-253.48 90.22,-254.13C75.47,-255.81 67.48,-245.05 64.35,-217.40ZM81.09,-216.90C83.34,-236.71 85.78,-239.70 90.16,-239.21C93.84,-238.79 96.88,-236.81 99.54,-233.48L91.49,-162.52C89.08,-141.33 82.01,-126.27 76.94,-126.84C73.02,-127.29 71.37,-131.21 72.31,-139.50ZM157.49,-246.50C142.98,-248.15 129.78,-232.61 128.13,-218.10C126.93,-207.50 126.82,-194.21 130.18,-182.63L152.29,-180.13C135.57,-201.39 132.62,-210.36 133.72,-220.03C134.63,-228.09 138.20,-232.82 150.18,-231.46C157.78,-230.60 159.42,-228.55 158.58,-221.18L153.75,-178.56C133.61,-163.58 123.10,-157.30 120.98,-138.64L119.18,-122.75C117.93,-111.69 121.93,-105.87 130.69,-104.88C139.44,-103.88 145.83,-108.76 153.18,-142.69L155.43,-141.97C148.95,-109.57 152.34,-102.42 161.79,-101.35C172.61,-100.12 176.17,-110.92 177.59,-125.46L181.37,-164.93L178.14,-165.29L172.88,-125.06C171.78,-117.48 170.01,-116.28 167.94,-116.52C165.41,-116.80 163.26,-118.45 164.67,-130.89L175.39,-225.34C176.72,-237.09 170.85,-244.99 157.49,-246.50ZM139.28,-120.94C136.97,-121.20 135.52,-122.76 135.99,-126.91L138.60,-149.95C139.70,-159.62 141.94,-164.97 153.20,-173.72L151.11,-155.29C148.70,-134.10 144.34,-120.36 139.28,-120.94ZM244.42,-202.34C246.09,-217.08 238.30,-226.60 225.82,-229.65L226.13,-232.41C236.93,-230.95 244.63,-226.81 255.82,-206.18L258.83,-232.67L225.65,-236.43C212.06,-237.98 199.58,-230.76 197.01,-208.18L190.98,-154.97C189.64,-143.22 191.80,-135.51 196.86,-130.74C192.40,-126.34 185.06,-121.34 184.17,-113.51C183.49,-107.52 186.84,-104.11 191.98,-102.12L191.82,-100.74C185.29,-98.68 179.62,-93.96 178.68,-85.67C177.90,-78.75 182.61,-70.99 196.44,-69.42C215.56,-67.25 239.84,-83.86 241.23,-96.07C242.30,-105.51 236.17,-111.11 221.88,-112.73L197.47,-115.50C193.09,-116.00 191.84,-117.31 192.07,-119.38C192.33,-121.68 196.00,-125.23 200.34,-128.47C202.94,-126.78 206.35,-125.93 210.26,-125.48C223.86,-123.94 236.31,-130.93 238.77,-152.58ZM221.11,-221.08C225.72,-220.56 229.81,-217.53 227.93,-200.94L222.31,-151.41C221.39,-143.35 219.66,-138.41 214.60,-138.99C209.76,-139.54 205.90,-142.54 207.78,-159.13L213.40,-208.66C214.32,-216.72 216.04,-221.66 221.11,-221.08ZM192.63,-93.42C192.91,-95.95 194.33,-98.12 198.22,-99.55L220.11,-97.07C227.94,-96.18 229.42,-92.74 228.79,-87.21C228.27,-82.61 223.68,-81.26 213.08,-82.46C195.11,-84.50 192.10,-88.81 192.63,-93.42ZM273.30,-88.70C286.89,-87.15 299.37,-94.37 301.93,-116.95L311.55,-201.72C313.80,-221.53 307.01,-229.54 292.27,-231.21C278.67,-232.75 266.19,-225.54 263.63,-202.96L254.01,-118.18C251.76,-98.37 258.78,-90.34 273.30,-88.70ZM287.72,-215.86C292.33,-215.34 296.42,-212.31 294.54,-195.72L285.55,-116.47C284.63,-108.41 282.91,-103.47 277.84,-104.05C273.00,-104.60 269.14,-107.60 271.02,-124.19L280.01,-203.43C280.93,-211.50 282.66,-216.43 287.72,-215.86ZM372.74,-187.78C374.42,-202.52 366.63,-212.04 354.14,-215.09L354.46,-217.85C365.26,-216.40 372.95,-212.26 384.15,-191.62L387.15,-218.11L353.98,-221.87C340.39,-223.42 327.90,-216.20 325.34,-193.62L319.30,-140.41C317.97,-128.66 320.13,-120.95 325.19,-116.18C320.72,-111.78 313.39,-106.78 312.50,-98.95C311.82,-92.96 315.17,-89.55 320.31,-87.56L320.15,-86.18C313.62,-84.12 307.95,-79.40 307.01,-71.11C306.22,-64.19 310.94,-56.43 324.76,-54.86C343.88,-52.69 368.17,-69.30 369.55,-81.51C370.62,-90.95 364.49,-96.55 350.21,-98.17L325.79,-100.94C321.41,-101.44 320.16,-102.75 320.40,-104.82C320.66,-107.12 324.33,-110.67 328.66,-113.91C331.27,-112.22 334.67,-111.37 338.59,-110.92C352.18,-109.38 364.64,-116.37 367.10,-138.02ZM349.44,-206.52C354.04,-206.00 358.13,-202.97 356.25,-186.38L350.63,-136.86C349.72,-128.79 347.99,-123.85 342.92,-124.43C338.09,-124.98 334.23,-127.98 336.11,-144.57L341.73,-194.10C342.64,-202.16 344.37,-207.10 349.44,-206.52ZM320.95,-78.86C321.24,-81.39 322.65,-83.56 326.55,-84.99L348.43,-82.51C356.27,-81.62 357.74,-78.18 357.12,-72.65C356.59,-68.05 352.01,-66.70 341.41,-67.90C323.44,-69.94 320.43,-74.25 320.95,-78.86ZM403.51,-216.25L386.01,-218.24L395.27,-96.32L401.95,-95.57L372.69,-49.42L392.50,-47.17L443.83,-211.68L424.94,-213.82L407.71,-117.55L405.18,-117.83L405.34,-164.48Z" fill="#ffffff" stroke="#000000"/>
    <path d="M-426.18,-243.66L-417.54,-242.51L-421.70,-211.13C-423.81,-195.22 -427.28,-188.27 -432.28,-188.93C-435.69,-189.39 -438.54,-192.31 -436.37,-208.68L-422.08,-316.46C-421.03,-324.42 -418.77,-329.21 -411.95,-328.31C-402.40,-327.04 -399.00,-324.74 -399.67,-319.74C-400.51,-313.37 -403.28,-304.71 -423.72,-272.72L-406.43,-270.43C-399.30,-292.85 -396.73,-308.71 -395.19,-320.30C-393.33,-334.40 -398.08,-342.20 -409.90,-343.77C-423.77,-345.61 -436.48,-338.73 -439.44,-316.45L-454.45,-203.21C-457.04,-183.66 -452.29,-175.85 -442.51,-174.56C-432.28,-173.20 -425.45,-181.09 -420.34,-198.69L-418.07,-198.39L-415.68,-171.00L-413.18,-170.67L-404.62,-235.25C-404.02,-239.79 -402.99,-240.58 -398.21,-239.95L-397.98,-239.92L-397.38,-244.47L-425.58,-248.21ZM-374.97,-165.60C-361.56,-163.82 -349.07,-170.73 -346.12,-193.01L-335.03,-276.69C-332.43,-296.25 -339.00,-304.29 -353.56,-306.22C-366.97,-308.00 -379.46,-301.09 -382.41,-278.81L-393.50,-195.13C-396.10,-175.58 -389.30,-167.50 -374.97,-165.60ZM-358.33,-291.12C-353.79,-290.52 -349.80,-287.44 -351.97,-271.07L-362.34,-192.85C-363.39,-184.89 -365.19,-180.04 -370.20,-180.70C-374.97,-181.34 -378.73,-184.38 -376.56,-200.75L-366.19,-278.97C-365.14,-286.93 -363.34,-291.78 -358.33,-291.12ZM-292.38,-298.11C-306.71,-300.01 -320.05,-284.89 -321.95,-270.56C-323.34,-260.10 -323.69,-246.96 -320.59,-235.44L-298.76,-232.55C-314.90,-253.89 -317.65,-262.82 -316.39,-272.37C-315.33,-280.33 -311.71,-284.94 -299.89,-283.37C-292.39,-282.38 -290.81,-280.32 -291.77,-273.04L-297.35,-230.97C-317.54,-216.53 -328.06,-210.52 -330.50,-192.10L-332.58,-176.41C-334.03,-165.50 -330.17,-159.66 -321.53,-158.52C-312.89,-157.37 -306.48,-162.08 -298.58,-195.50L-296.37,-194.75C-303.38,-162.82 -300.16,-155.68 -290.83,-154.45C-280.15,-153.03 -276.43,-163.64 -274.75,-178.00L-270.28,-216.97L-273.47,-217.40L-279.42,-177.69C-280.65,-170.22 -282.42,-169.07 -284.46,-169.34C-286.97,-169.67 -289.06,-171.34 -287.43,-183.61L-275.07,-276.84C-273.53,-288.44 -279.19,-296.36 -292.38,-298.11ZM-312.74,-174.24C-315.01,-174.54 -316.42,-176.12 -315.88,-180.21L-312.86,-202.95C-311.60,-212.50 -309.28,-217.75 -297.98,-226.20L-300.39,-208.01C-303.17,-187.09 -307.73,-173.58 -312.74,-174.24ZM-228.50,-317.41L-244.42,-319.52L-266.42,-153.53L-250.51,-151.42ZM-205.70,-145.48L-154.54,-138.69L-152.13,-156.88L-184.27,-150.04L-185.17,-152.01C-157.96,-191.44 -146.83,-223.05 -144.69,-239.20L-143.03,-251.70C-140.50,-270.80 -146.61,-278.79 -160.48,-280.63C-173.67,-282.37 -185.85,-267.33 -187.75,-253.00C-189.25,-241.63 -190.05,-226.93 -189.08,-215.00L-169.53,-212.41C-180.50,-232.61 -183.09,-244.52 -181.73,-254.75C-180.71,-262.48 -177.54,-267.15 -167.99,-265.89C-159.58,-264.77 -157.77,-262.68 -159.10,-252.68L-161.09,-237.67C-164.37,-212.88 -174.10,-190.11 -205.70,-145.48ZM-131.97,-230.34L-110.15,-227.44L-108.00,-243.59L-129.83,-246.48ZM-140.69,-164.62L-118.86,-161.73L-116.72,-177.87L-138.55,-180.77ZM-76.76,-128.38L-59.71,-126.12L-53.38,-173.87L-52.92,-173.81C-34.51,-171.37 -17.93,-177.73 -14.97,-200.02L-7.17,-258.91C-4.42,-279.60 -14.74,-289.07 -34.29,-291.66L-54.76,-294.37ZM-47.92,-188.88L-51.33,-189.33L-39.75,-276.65L-37.93,-276.41C-26.56,-274.90 -23.01,-270.27 -24.97,-255.49L-32.33,-200.00C-33.38,-192.05 -36.78,-187.41 -47.92,-188.88ZM47.45,-225.76C50.07,-245.54 44.41,-253.46 31.90,-255.12C18.26,-256.93 6.69,-249.90 3.70,-227.39L-7.36,-143.94C-9.95,-124.38 -3.84,-116.40 10.03,-114.56C25.27,-112.54 34.71,-127.95 37.12,-149.61L40.06,-176.99L36.87,-177.41L32.66,-150.90C30.28,-136.40 26.18,-128.15 19.36,-129.06C12.99,-129.90 7.41,-133.19 9.58,-149.56L15.34,-192.99L42.63,-189.37ZM32.81,-220.06L29.40,-194.37L15.76,-196.17L19.92,-227.55C21.01,-235.74 22.81,-240.59 28.26,-239.87C32.81,-239.27 35.01,-236.66 32.81,-220.06ZM61.80,-211.82L50.68,-127.91C49.17,-116.55 54.38,-108.68 62.79,-107.57C71.43,-106.42 79.92,-111.08 89.21,-144.56L91.43,-143.80L81.62,-109.93L81.28,-107.43L96.97,-105.35L118.98,-271.34L103.06,-273.45L99.41,-245.94L104.32,-239.27L102.77,-238.09C98.37,-243.30 93.76,-246.92 88.08,-247.67C73.52,-249.60 65.42,-239.11 61.80,-211.82ZM78.36,-211.01C80.95,-230.57 83.42,-233.48 87.74,-232.91C91.38,-232.43 94.35,-230.41 96.91,-227.07L87.63,-157.03C84.85,-136.11 77.57,-121.34 72.57,-122.00C68.71,-122.52 67.14,-126.43 68.23,-134.61ZM154.48,-238.87C140.15,-240.77 126.81,-225.65 124.91,-211.32C123.53,-200.86 123.17,-187.72 126.27,-176.20L148.10,-173.31C131.96,-194.65 129.21,-203.58 130.47,-213.13C131.53,-221.09 135.15,-225.70 146.97,-224.13C154.48,-223.14 156.05,-221.08 155.09,-213.80L149.51,-171.73C129.32,-157.29 118.80,-151.28 116.36,-132.86L114.28,-117.17C112.83,-106.25 116.69,-100.42 125.33,-99.28C133.97,-98.13 140.38,-102.83 148.28,-136.26L150.49,-135.51C143.48,-103.58 146.70,-96.44 156.03,-95.21C166.71,-93.79 170.43,-104.40 172.11,-118.76L176.58,-157.73L173.40,-158.15L167.44,-118.45C166.22,-110.98 164.44,-109.82 162.40,-110.10C159.90,-110.43 157.80,-112.09 159.43,-124.37L171.79,-217.60C173.33,-229.20 167.67,-237.12 154.48,-238.87ZM134.12,-115.00C131.85,-115.30 130.44,-116.88 130.98,-120.97L134.00,-143.71C135.26,-153.26 137.58,-158.51 148.88,-166.96L146.47,-148.77C143.69,-127.85 139.13,-114.34 134.12,-115.00ZM239.65,-193.57C241.57,-208.12 234.05,-217.68 221.75,-220.93L222.12,-223.66C232.77,-222.01 240.31,-217.77 251.00,-197.15L254.46,-223.30L221.72,-227.64C208.30,-229.42 195.82,-222.51 192.86,-200.23L185.90,-147.70C184.36,-136.11 186.35,-128.44 191.27,-123.62C186.77,-119.36 179.42,-114.55 178.40,-106.82C177.61,-100.91 180.86,-97.47 185.91,-95.41L185.73,-94.05C179.23,-92.13 173.53,-87.56 172.45,-79.38C171.54,-72.56 176.06,-64.78 189.71,-62.98C208.58,-60.47 232.91,-76.45 234.51,-88.50C235.75,-97.83 229.78,-103.48 215.69,-105.35L191.58,-108.54C187.26,-109.11 186.05,-110.43 186.32,-112.48C186.62,-114.75 190.32,-118.20 194.67,-121.32C197.21,-119.59 200.56,-118.69 204.43,-118.18C217.85,-116.40 230.30,-123.08 233.13,-144.45ZM216.94,-212.54C221.49,-211.94 225.48,-208.86 223.31,-192.49L216.82,-143.60C215.77,-135.65 213.97,-130.79 208.97,-131.46C204.19,-132.09 200.43,-135.13 202.60,-151.51L209.08,-200.39C210.14,-208.35 211.94,-213.20 216.94,-212.54ZM186.39,-86.79C186.72,-89.29 188.16,-91.41 192.03,-92.75L213.64,-89.88C221.37,-88.86 222.76,-85.43 222.04,-79.98C221.44,-75.43 216.88,-74.18 206.42,-75.57C188.68,-77.92 185.78,-82.24 186.39,-86.79ZM266.10,-80.61C279.51,-78.84 292.00,-85.74 294.95,-108.03L306.04,-191.70C308.64,-211.26 302.07,-219.30 287.51,-221.23C274.10,-223.01 261.61,-216.11 258.66,-193.82L247.57,-110.14C244.97,-90.59 251.77,-82.51 266.10,-80.61ZM282.74,-206.13C287.28,-205.53 291.27,-202.46 289.10,-186.08L278.73,-107.86C277.68,-99.90 275.88,-95.05 270.87,-95.71C266.10,-96.35 262.34,-99.39 264.51,-115.76L274.88,-193.99C275.93,-201.94 277.73,-206.80 282.74,-206.13ZM366.31,-176.77C368.24,-191.33 360.72,-200.88 348.42,-204.13L348.78,-206.86C359.44,-205.22 366.98,-200.98 377.66,-180.36L381.13,-206.51L348.39,-210.85C334.97,-212.63 322.49,-205.72 319.53,-183.44L312.57,-130.91C311.03,-119.31 313.02,-111.65 317.94,-106.83C313.44,-102.57 306.09,-97.76 305.06,-90.03C304.28,-84.11 307.53,-80.67 312.58,-78.62L312.40,-77.25C305.89,-75.34 300.20,-70.77 299.11,-62.59C298.21,-55.76 302.73,-47.99 316.37,-46.18C335.25,-43.68 359.58,-59.66 361.18,-71.71C362.41,-81.03 356.45,-86.68 342.35,-88.55L318.25,-91.75C313.93,-92.32 312.72,-93.64 312.99,-95.68C313.29,-97.96 316.99,-101.40 321.33,-104.53C323.88,-102.80 327.23,-101.90 331.10,-101.38C344.51,-99.60 356.97,-106.28 359.80,-127.66ZM343.61,-195.75C348.16,-195.15 352.14,-192.07 349.97,-175.70L343.49,-126.81C342.44,-118.85 340.64,-114.00 335.63,-114.66C330.86,-115.30 327.10,-118.34 329.27,-134.71L335.75,-183.60C336.80,-191.56 338.61,-196.41 343.61,-195.75ZM313.05,-69.99C313.38,-72.49 314.82,-74.62 318.70,-75.95L340.30,-73.09C348.04,-72.07 349.43,-68.64 348.71,-63.18C348.11,-58.64 343.54,-57.39 333.08,-58.78C315.35,-61.13 312.45,-65.44 313.05,-69.99ZM397.28,-204.37L380.00,-206.66L386.90,-85.89L393.49,-85.01L363.68,-39.91L383.23,-37.32L437.07,-199.09L418.43,-201.56L399.60,-106.65L397.10,-106.98L398.12,-153.12Z" fill="#ffffff" stroke="#000000"/>
    <path d="M-422.86,-247.03L-414.33,-245.74L-419.03,-214.78C-421.41,-199.08 -424.97,-192.27 -429.91,-193.02C-433.27,-193.53 -436.04,-196.48 -433.59,-212.63L-417.45,-318.97C-416.25,-326.82 -413.94,-331.52 -407.21,-330.49C-397.78,-329.06 -394.47,-326.72 -395.21,-321.79C-396.17,-315.51 -399.07,-307.00 -419.88,-275.73L-402.83,-273.14C-395.35,-295.19 -392.52,-310.82 -390.78,-322.26C-388.67,-336.17 -393.22,-343.98 -404.89,-345.75C-418.57,-347.83 -431.28,-341.26 -434.61,-319.28L-451.57,-207.55C-454.50,-188.26 -449.95,-180.46 -440.30,-178.99C-430.20,-177.46 -423.30,-185.13 -417.92,-202.45L-415.68,-202.11L-413.83,-174.97L-411.36,-174.60L-401.69,-238.31C-401.01,-242.80 -399.97,-243.56 -395.26,-242.84L-395.04,-242.81L-394.36,-247.30L-422.18,-251.52ZM-373.66,-168.88C-360.43,-166.87 -347.95,-173.47 -344.61,-195.45L-332.08,-278.01C-329.15,-297.30 -335.50,-305.38 -349.86,-307.56C-363.10,-309.57 -375.57,-302.97 -378.91,-280.99L-391.44,-198.43C-394.37,-179.13 -387.80,-171.02 -373.66,-168.88ZM-354.87,-292.71C-350.38,-292.03 -346.49,-288.92 -348.94,-272.77L-360.66,-195.59C-361.85,-187.74 -363.72,-182.97 -368.66,-183.72C-373.37,-184.44 -377.03,-187.52 -374.58,-203.67L-362.87,-280.85C-361.67,-288.70 -359.80,-293.46 -354.87,-292.71ZM-289.51,-298.40C-303.64,-300.54 -317.12,-285.84 -319.26,-271.70C-320.83,-261.38 -321.42,-248.39 -318.57,-236.94L-297.04,-233.67C-312.60,-255.09 -315.16,-263.96 -313.73,-273.39C-312.54,-281.24 -308.87,-285.73 -297.21,-283.96C-289.80,-282.84 -288.28,-280.77 -289.37,-273.59L-295.67,-232.09C-315.91,-218.18 -326.42,-212.43 -329.18,-194.26L-331.53,-178.78C-333.17,-168.01 -329.46,-162.17 -320.94,-160.87C-312.41,-159.58 -305.99,-164.11 -297.55,-197.03L-295.37,-196.24C-302.90,-164.79 -299.85,-157.67 -290.65,-156.28C-280.11,-154.68 -276.23,-165.10 -274.31,-179.27L-269.16,-217.74L-272.30,-218.21L-278.93,-179.06C-280.28,-171.69 -282.05,-170.58 -284.07,-170.89C-286.54,-171.26 -288.58,-172.95 -286.74,-185.06L-272.78,-277.04C-271.04,-288.48 -276.49,-296.42 -289.51,-298.40ZM-311.95,-176.26C-314.19,-176.60 -315.56,-178.19 -314.94,-182.23L-311.54,-204.66C-310.11,-214.08 -307.72,-219.23 -296.38,-227.38L-299.11,-209.43C-302.24,-188.79 -307.01,-175.51 -311.95,-176.26ZM-225.96,-316.30L-241.67,-318.68L-266.52,-154.91L-250.82,-152.53ZM-206.62,-145.82L-156.14,-138.16L-153.42,-156.10L-185.34,-149.93L-186.19,-151.90C-158.54,-190.39 -146.94,-221.45 -144.52,-237.38L-142.65,-249.72C-139.79,-268.56 -145.69,-276.57 -159.38,-278.65C-172.39,-280.62 -184.71,-265.97 -186.85,-251.83C-188.56,-240.62 -189.61,-226.09 -188.88,-214.27L-169.59,-211.35C-180.07,-231.53 -182.40,-243.36 -180.87,-253.45C-179.71,-261.08 -176.50,-265.64 -167.07,-264.21C-158.77,-262.95 -157.03,-260.85 -158.53,-250.98L-160.77,-236.17C-164.48,-211.72 -174.53,-189.37 -206.62,-145.82ZM-132.11,-228.38L-110.58,-225.11L-108.16,-241.04L-129.70,-244.31ZM-141.95,-163.54L-120.42,-160.27L-118.00,-176.20L-139.54,-179.47ZM-79.40,-126.51L-62.58,-123.95L-55.43,-171.07L-54.98,-171.00C-36.81,-168.24 -20.29,-174.23 -16.96,-196.21L-8.14,-254.31C-5.04,-274.73 -15.06,-284.28 -34.36,-287.21L-54.55,-290.28ZM-49.75,-185.81L-53.11,-186.32L-40.04,-272.47L-38.24,-272.20C-27.03,-270.49 -23.60,-265.84 -25.81,-251.26L-34.12,-196.52C-35.31,-188.67 -38.76,-184.14 -49.75,-185.81ZM45.26,-220.50C48.23,-240.02 42.78,-247.96 30.44,-249.84C16.98,-251.88 5.40,-245.15 2.03,-222.94L-10.47,-140.60C-13.40,-121.31 -7.50,-113.30 6.18,-111.22C21.21,-108.94 30.85,-124.00 33.63,-145.38L37.04,-172.41L33.90,-172.88L29.25,-146.74C26.62,-132.45 22.41,-124.37 15.68,-125.39C9.40,-126.34 3.94,-129.69 6.39,-145.85L12.89,-188.70L39.81,-184.61ZM30.68,-215.14L26.83,-189.79L13.37,-191.84L18.07,-222.80C19.30,-230.87 21.17,-235.64 26.55,-234.82C31.04,-234.14 33.16,-231.52 30.68,-215.14ZM59.20,-206.45L46.64,-123.67C44.93,-112.46 49.94,-104.58 58.24,-103.32C66.76,-102.03 75.24,-106.48 85.06,-139.41L87.23,-138.63L76.90,-105.31L76.52,-102.84L92.00,-100.49L116.86,-264.26L101.16,-266.64L97.04,-239.50L101.76,-232.81L100.21,-231.67C95.96,-236.91 91.46,-240.57 85.85,-241.43C71.50,-243.60 63.29,-233.38 59.20,-206.45ZM75.56,-205.35C78.49,-224.64 80.98,-227.48 85.25,-226.83C88.84,-226.28 91.74,-224.24 94.21,-220.88L83.72,-151.78C80.59,-131.14 73.12,-116.67 68.18,-117.42C64.37,-118.00 62.89,-121.89 64.12,-129.97ZM151.37,-231.48C137.23,-233.63 123.76,-218.92 121.61,-204.79C120.04,-194.47 119.45,-181.47 122.30,-170.02L143.84,-166.76C128.27,-188.17 125.72,-197.05 127.15,-206.47C128.34,-214.32 132.00,-218.81 143.67,-217.04C151.07,-215.92 152.59,-213.85 151.50,-206.67L145.21,-165.17C124.96,-151.26 114.45,-145.51 111.69,-127.34L109.34,-111.86C107.71,-101.09 111.41,-95.25 119.94,-93.96C128.46,-92.66 134.89,-97.20 143.33,-130.11L145.50,-129.32C137.97,-97.87 141.03,-90.76 150.22,-89.36C160.77,-87.76 164.64,-98.19 166.57,-112.35L171.72,-150.82L168.57,-151.30L161.94,-112.14C160.59,-104.77 158.82,-103.66 156.80,-103.97C154.33,-104.34 152.29,-106.03 154.13,-118.14L168.09,-210.12C169.83,-221.56 164.38,-229.51 151.37,-231.48ZM128.93,-109.35C126.69,-109.69 125.32,-111.27 125.93,-115.31L129.34,-137.74C130.77,-147.17 133.15,-152.31 144.49,-160.46L141.77,-142.51C138.63,-121.87 133.86,-108.60 128.93,-109.35ZM234.76,-185.09C236.94,-199.44 229.67,-209.04 217.57,-212.48L217.98,-215.17C228.49,-213.35 235.87,-209.02 246.05,-188.42L249.97,-214.22L217.66,-219.12C204.43,-221.13 191.95,-214.53 188.61,-192.55L180.75,-140.73C179.01,-129.29 180.84,-121.66 185.61,-116.81C181.08,-112.68 173.72,-108.06 172.57,-100.43C171.68,-94.59 174.83,-91.13 179.78,-89.00L179.58,-87.66C173.11,-85.89 167.39,-81.47 166.17,-73.40C165.15,-66.67 169.47,-58.90 182.94,-56.85C201.56,-54.03 225.92,-69.38 227.72,-81.27C229.12,-90.47 223.33,-96.17 209.42,-98.28L185.64,-101.89C181.38,-102.53 180.20,-103.86 180.51,-105.88C180.85,-108.12 184.57,-111.46 188.93,-114.47C191.41,-112.71 194.71,-111.75 198.53,-111.18C211.76,-109.17 224.20,-115.54 227.40,-136.63ZM212.66,-204.28C217.14,-203.60 221.03,-200.48 218.58,-184.33L211.26,-136.10C210.07,-128.24 208.20,-123.48 203.26,-124.23C198.55,-124.94 194.89,-128.02 197.34,-144.18L204.66,-192.41C205.85,-200.26 207.72,-205.03 212.66,-204.28ZM180.09,-80.47C180.47,-82.93 181.93,-85.01 185.79,-86.26L207.10,-83.02C214.73,-81.86 216.05,-78.45 215.23,-73.07C214.55,-68.58 210.02,-67.43 199.70,-69.00C182.20,-71.65 179.41,-75.98 180.09,-80.47ZM258.82,-72.88C272.05,-70.87 284.53,-77.47 287.87,-99.45L300.40,-182.01C303.33,-201.30 296.98,-209.38 282.62,-211.56C269.38,-213.57 256.91,-206.97 253.57,-184.99L241.04,-102.43C238.11,-83.13 244.68,-75.02 258.82,-72.88ZM277.61,-196.71C282.10,-196.03 285.99,-192.92 283.54,-176.76L271.82,-99.59C270.63,-91.74 268.76,-86.97 263.82,-87.72C259.11,-88.44 255.45,-91.52 257.90,-107.67L269.62,-184.85C270.81,-192.70 272.68,-197.46 277.61,-196.71ZM359.73,-166.12C361.91,-180.48 354.64,-190.07 342.54,-193.51L342.95,-196.21C353.46,-194.38 360.84,-190.05 371.02,-169.45L374.94,-195.25L342.63,-200.16C329.40,-202.16 316.92,-195.57 313.58,-173.58L305.72,-121.76C303.98,-110.32 305.81,-102.70 310.58,-97.84C306.05,-93.71 298.69,-89.09 297.54,-81.46C296.65,-75.63 299.80,-72.16 304.75,-70.04L304.55,-68.69C298.08,-66.92 292.36,-62.51 291.14,-54.43C290.12,-47.70 294.45,-39.93 307.91,-37.88C326.53,-35.06 350.89,-50.41 352.69,-62.30C354.09,-71.50 348.30,-77.20 334.39,-79.31L310.61,-82.92C306.35,-83.56 305.17,-84.89 305.48,-86.91C305.82,-89.15 309.54,-92.49 313.90,-95.50C316.38,-93.75 319.68,-92.79 323.50,-92.21C336.73,-90.20 349.17,-96.57 352.38,-117.66ZM337.63,-185.31C342.11,-184.63 346.00,-181.51 343.55,-165.36L336.23,-117.13C335.04,-109.28 333.17,-104.51 328.23,-105.26C323.52,-105.97 319.86,-109.05 322.31,-125.21L329.63,-173.44C330.82,-181.29 332.69,-186.06 337.63,-185.31ZM305.06,-61.50C305.44,-63.96 306.90,-66.04 310.76,-67.29L332.07,-64.05C339.70,-62.89 341.02,-59.48 340.20,-54.10C339.52,-49.61 334.99,-48.46 324.67,-50.03C307.17,-52.69 304.38,-57.01 305.06,-61.50ZM390.87,-192.83L373.82,-195.42L378.40,-75.84L384.90,-74.85L354.58,-30.80L373.87,-27.87L430.13,-186.87L411.74,-189.67L391.35,-96.14L388.88,-96.51L390.75,-142.13Z" fill="#ffffff" stroke="#000000"/>
    <path d="M-419.43,-250.41L-411.02,-248.97L-416.24,-218.44C-418.89,-202.96 -422.54,-196.29 -427.41,-197.12C-430.72,-197.69 -433.41,-200.66 -430.68,-216.58L-412.74,-321.45C-411.41,-329.19 -409.03,-333.79 -402.39,-332.66C-393.10,-331.07 -389.87,-328.69 -390.70,-323.82C-391.76,-317.63 -394.78,-309.27 -415.95,-278.73L-399.13,-275.86C-391.33,-297.52 -388.24,-312.93 -386.31,-324.21C-383.96,-337.93 -388.32,-345.73 -399.82,-347.70C-413.32,-350.01 -426.00,-343.75 -429.71,-322.07L-448.56,-211.90C-451.81,-192.88 -447.46,-185.07 -437.94,-183.44C-427.99,-181.74 -421.02,-189.20 -415.38,-206.22L-413.16,-205.85L-411.84,-178.98L-409.41,-178.56L-398.66,-241.39C-397.90,-245.81 -396.86,-246.55 -392.22,-245.75L-392.00,-245.72L-391.24,-250.14L-418.67,-254.83ZM-372.23,-172.20C-359.18,-169.97 -346.72,-176.26 -343.01,-197.94L-329.08,-279.35C-325.82,-298.38 -331.95,-306.49 -346.11,-308.91C-359.16,-311.14 -371.62,-304.85 -375.33,-283.17L-389.26,-201.76C-392.52,-182.73 -386.17,-174.59 -372.23,-172.20ZM-351.34,-294.32C-346.91,-293.56 -343.13,-290.41 -345.85,-274.48L-358.87,-198.38C-360.20,-190.64 -362.14,-185.96 -367.01,-186.79C-371.65,-187.58 -375.22,-190.70 -372.49,-206.63L-359.47,-282.73C-358.14,-290.47 -356.21,-295.15 -351.34,-294.32ZM-286.59,-298.72C-300.53,-301.11 -314.13,-286.81 -316.52,-272.88C-318.26,-262.70 -319.09,-249.86 -316.48,-238.49L-295.24,-234.85C-310.24,-256.32 -312.60,-265.15 -311.01,-274.44C-309.69,-282.18 -305.98,-286.56 -294.48,-284.59C-287.18,-283.34 -285.71,-281.27 -286.92,-274.19L-293.92,-233.26C-314.20,-219.88 -324.70,-214.39 -327.77,-196.47L-330.38,-181.21C-332.20,-170.59 -328.65,-164.74 -320.24,-163.30C-311.83,-161.87 -305.39,-166.23 -296.43,-198.62L-294.30,-197.80C-302.33,-166.84 -299.44,-159.75 -290.37,-158.19C-279.98,-156.41 -275.95,-166.66 -273.78,-180.63L-267.97,-218.57L-271.07,-219.10L-278.36,-180.50C-279.83,-173.24 -281.60,-172.18 -283.60,-172.52C-286.03,-172.93 -288.01,-174.64 -285.97,-186.59L-270.45,-277.29C-268.52,-288.57 -273.76,-296.53 -286.59,-298.72ZM-311.06,-178.36C-313.27,-178.73 -314.59,-180.33 -313.91,-184.31L-310.13,-206.43C-308.54,-215.72 -306.08,-220.77 -294.72,-228.62L-297.75,-210.92C-301.23,-190.56 -306.19,-177.52 -311.06,-178.36ZM-223.42,-315.24L-238.90,-317.89L-266.54,-156.39L-251.05,-153.74ZM-207.46,-146.28L-157.69,-137.77L-154.66,-155.47L-186.34,-149.96L-187.14,-151.92C-159.09,-189.47 -147.04,-219.97 -144.35,-235.68L-142.27,-247.84C-139.09,-266.43 -144.77,-274.46 -158.27,-276.77C-171.10,-278.96 -183.56,-264.70 -185.94,-250.76C-187.84,-239.70 -189.15,-225.35 -188.65,-213.65L-169.62,-210.40C-179.61,-230.55 -181.70,-242.29 -180.00,-252.25C-178.71,-259.77 -175.44,-264.22 -166.15,-262.63C-157.97,-261.23 -156.28,-259.12 -157.94,-249.39L-160.44,-234.79C-164.57,-210.67 -174.92,-188.76 -207.46,-146.28ZM-132.24,-226.55L-111.01,-222.91L-108.32,-238.62L-129.56,-242.25ZM-143.18,-162.61L-121.95,-158.98L-119.26,-174.68L-140.50,-178.32ZM-82.01,-124.82L-65.42,-121.98L-57.47,-168.44L-57.03,-168.36C-39.11,-165.30 -22.67,-170.91 -18.96,-192.59L-9.15,-249.89C-5.71,-270.02 -15.44,-279.65 -34.47,-282.91L-54.38,-286.32ZM-51.58,-182.91L-54.90,-183.48L-40.36,-268.43L-38.59,-268.13C-27.53,-266.24 -24.23,-261.58 -26.69,-247.20L-35.93,-193.22C-37.25,-185.47 -40.74,-181.06 -51.58,-182.91ZM43.03,-215.46C46.32,-234.70 41.08,-242.66 28.91,-244.74C15.64,-247.01 4.06,-240.57 0.31,-218.67L-13.58,-137.48C-16.83,-118.45 -11.15,-110.42 2.34,-108.11C17.17,-105.57 26.97,-120.29 30.13,-141.38L34.00,-168.04L30.91,-168.57L25.81,-142.80C22.95,-128.72 18.63,-120.81 12.00,-121.94C5.80,-123.00 0.47,-126.42 3.19,-142.35L10.42,-184.60L36.97,-180.06ZM28.50,-210.43L24.23,-185.43L10.95,-187.70L16.18,-218.23C17.54,-226.19 19.48,-230.87 24.79,-229.96C29.21,-229.21 31.27,-226.58 28.50,-210.43ZM56.55,-201.30L42.58,-119.67C40.69,-108.61 45.49,-100.73 53.68,-99.33C62.08,-97.89 70.55,-102.13 80.87,-134.52L83.01,-133.70L72.17,-100.94L71.75,-98.51L87.02,-95.90L114.65,-257.40L99.16,-260.04L94.58,-233.28L99.13,-226.58L97.58,-225.48C93.47,-230.74 89.09,-234.44 83.56,-235.39C69.40,-237.81 61.09,-227.85 56.55,-201.30ZM72.71,-199.90C75.96,-218.93 78.48,-221.69 82.69,-220.97C86.23,-220.36 89.06,-218.28 91.44,-214.91L79.78,-146.78C76.30,-126.42 68.64,-112.25 63.77,-113.08C60.01,-113.73 58.63,-117.61 59.99,-125.57ZM148.17,-224.34C134.23,-226.72 120.62,-212.43 118.24,-198.49C116.50,-188.31 115.67,-175.47 118.28,-164.10L139.51,-160.46C124.51,-181.93 122.15,-190.76 123.74,-200.05C125.07,-207.79 128.78,-212.17 140.28,-210.20C147.58,-208.95 149.05,-206.88 147.84,-199.80L140.84,-158.87C120.56,-145.49 110.05,-140.00 106.99,-122.08L104.38,-106.82C102.56,-96.20 106.11,-90.35 114.52,-88.92C122.93,-87.48 129.37,-91.84 138.32,-124.24L140.46,-123.41C132.43,-92.45 135.32,-85.36 144.39,-83.80C154.78,-82.03 158.81,-92.27 160.98,-106.24L166.79,-144.19L163.69,-144.72L156.40,-106.11C154.93,-98.85 153.15,-97.79 151.16,-98.13C148.73,-98.55 146.74,-100.25 148.79,-112.20L164.31,-202.90C166.24,-214.18 161.00,-222.14 148.17,-224.34ZM123.70,-103.97C121.49,-104.35 120.16,-105.94 120.85,-109.92L124.63,-132.04C126.22,-141.33 128.68,-146.38 140.04,-154.23L137.01,-136.53C133.53,-116.18 128.57,-103.13 123.70,-103.97ZM229.77,-176.90C232.19,-191.06 225.19,-200.68 213.29,-204.31L213.74,-206.97C224.10,-204.97 231.31,-200.55 241.00,-179.99L245.36,-205.43L213.50,-210.88C200.45,-213.11 187.98,-206.82 184.27,-185.14L175.53,-134.04C173.60,-122.75 175.26,-115.18 179.89,-110.29C175.34,-106.29 167.97,-101.86 166.69,-94.33C165.70,-88.58 168.75,-85.10 173.61,-82.90L173.39,-81.58C166.96,-79.94 161.22,-75.69 159.86,-67.72C158.72,-61.09 162.86,-53.32 176.13,-51.05C194.49,-47.91 218.87,-62.63 220.88,-74.36C222.43,-83.43 216.81,-89.17 203.09,-91.52L179.64,-95.53C175.44,-96.25 174.30,-97.59 174.64,-99.58C175.02,-101.79 178.76,-105.02 183.13,-107.92C185.56,-106.13 188.80,-105.12 192.56,-104.48C205.61,-102.25 218.04,-108.32 221.60,-129.11ZM208.27,-196.29C212.69,-195.53 216.48,-192.38 213.76,-176.45L205.62,-128.89C204.29,-121.15 202.35,-116.47 197.49,-117.30C192.84,-118.10 189.28,-121.21 192.00,-137.14L200.14,-184.70C201.46,-192.45 203.40,-197.12 208.27,-196.29ZM173.76,-74.45C174.18,-76.89 175.66,-78.91 179.50,-80.07L200.52,-76.48C208.04,-75.19 209.28,-71.79 208.37,-66.48C207.62,-62.06 203.11,-61.01 192.93,-62.75C175.68,-65.70 173.00,-70.03 173.76,-74.45ZM251.47,-65.48C264.53,-63.25 276.99,-69.54 280.70,-91.22L294.63,-172.63C297.88,-191.66 291.76,-199.77 277.60,-202.19C264.54,-204.42 252.08,-198.13 248.37,-176.45L234.44,-95.04C231.19,-76.01 237.54,-67.87 251.47,-65.48ZM272.37,-187.60C276.79,-186.84 280.58,-183.69 277.85,-167.76L264.83,-91.66C263.51,-83.92 261.57,-79.24 256.70,-80.07C252.06,-80.87 248.49,-83.98 251.22,-99.91L264.24,-176.01C265.56,-183.76 267.50,-188.43 272.37,-187.60ZM353.01,-155.81C355.43,-169.97 348.43,-179.60 336.52,-183.23L336.98,-185.88C347.34,-183.88 354.55,-179.46 364.24,-158.90L368.59,-184.34L336.74,-189.79C323.68,-192.03 311.22,-185.73 307.51,-164.05L298.77,-112.95C296.84,-101.67 298.50,-94.10 303.13,-89.21C298.57,-85.20 291.21,-80.77 289.92,-73.25C288.94,-67.50 291.99,-64.01 296.85,-61.82L296.62,-60.49C290.19,-58.86 284.46,-54.60 283.09,-46.64C281.96,-40.00 286.09,-32.23 299.37,-29.96C317.73,-26.82 342.11,-41.55 344.12,-53.27C345.67,-62.34 340.05,-68.09 326.33,-70.43L302.88,-74.45C298.68,-75.17 297.54,-76.50 297.88,-78.49C298.26,-80.70 302.00,-83.93 306.37,-86.83C308.79,-85.05 312.04,-84.04 315.80,-83.39C328.85,-81.16 341.27,-87.23 344.83,-108.03ZM331.51,-175.20C335.93,-174.45 339.72,-171.29 336.99,-155.37L328.85,-107.80C327.53,-100.06 325.59,-95.38 320.72,-96.21C316.08,-97.01 312.51,-100.12 315.24,-116.05L323.38,-163.62C324.70,-171.36 326.64,-176.04 331.51,-175.20ZM297.00,-53.37C297.41,-55.80 298.90,-57.82 302.74,-58.99L323.76,-55.39C331.28,-54.10 332.52,-50.70 331.61,-45.39C330.85,-40.97 326.35,-39.92 316.17,-41.66C298.92,-44.61 296.24,-48.94 297.00,-53.37ZM384.31,-181.65L367.49,-184.53L369.79,-66.19L376.20,-65.09L345.39,-22.09L364.42,-18.83L423.02,-175.03L404.88,-178.13L382.97,-86.02L380.54,-86.43L383.24,-131.51Z" fill="#ffffff" stroke="#000000"/>
    <path d="M-415.89,-253.78L-407.61,-252.20L-413.34,-222.11C-416.25,-206.85 -419.98,-200.33 -424.77,-201.24C-428.04,-201.86 -430.64,-204.85 -427.65,-220.54L-407.95,-323.90C-406.50,-331.53 -404.06,-336.04 -397.52,-334.79C-388.36,-333.05 -385.20,-330.64 -386.12,-325.84C-387.28,-319.74 -390.43,-311.52 -411.92,-281.72L-395.35,-278.57C-387.23,-299.84 -383.89,-315.02 -381.77,-326.14C-379.19,-339.66 -383.35,-347.46 -394.69,-349.62C-407.99,-352.16 -420.65,-346.21 -424.72,-324.84L-445.42,-216.25C-448.99,-197.49 -444.83,-189.70 -435.45,-187.91C-425.64,-186.04 -418.61,-193.29 -412.71,-210.01L-410.53,-209.60L-409.72,-183.01L-407.32,-182.55L-395.52,-244.48C-394.69,-248.84 -393.65,-249.54 -389.07,-248.67L-388.85,-248.63L-388.02,-252.99L-415.06,-258.14ZM-370.68,-175.57C-357.82,-173.12 -345.38,-179.11 -341.30,-200.48L-326.01,-280.72C-322.44,-299.47 -328.35,-307.60 -342.30,-310.26C-355.17,-312.71 -367.61,-306.72 -371.68,-285.35L-386.97,-205.11C-390.54,-186.36 -384.42,-178.19 -370.68,-175.57ZM-347.75,-295.93C-343.38,-295.10 -339.70,-291.92 -342.69,-276.22L-356.98,-201.20C-358.44,-193.57 -360.44,-188.98 -365.24,-189.90C-369.82,-190.77 -373.29,-193.92 -370.29,-209.62L-356.00,-284.63C-354.55,-292.26 -352.54,-296.85 -347.75,-295.93ZM-283.64,-299.09C-297.38,-301.70 -311.10,-287.82 -313.71,-274.08C-315.63,-264.05 -316.69,-251.37 -314.32,-240.08L-293.39,-236.09C-307.82,-257.59 -309.99,-266.37 -308.24,-275.53C-306.79,-283.16 -303.04,-287.42 -291.70,-285.25C-284.50,-283.88 -283.09,-281.81 -284.42,-274.83L-292.11,-234.49C-312.41,-221.64 -322.90,-216.40 -326.26,-198.74L-329.13,-183.69C-331.12,-173.23 -327.72,-167.38 -319.43,-165.80C-311.15,-164.22 -304.70,-168.42 -295.24,-200.29L-293.14,-199.43C-301.66,-168.97 -298.94,-161.90 -290.00,-160.19C-279.75,-158.24 -275.57,-168.29 -273.17,-182.07L-266.72,-219.48L-269.77,-220.06L-277.70,-182.03C-279.29,-174.88 -281.06,-173.86 -283.03,-174.23C-285.43,-174.69 -287.36,-176.41 -285.11,-188.19L-268.08,-277.59C-265.96,-288.71 -270.99,-296.68 -283.64,-299.09ZM-310.08,-180.52C-312.26,-180.93 -313.53,-182.53 -312.79,-186.46L-308.63,-208.26C-306.89,-217.42 -304.36,-222.36 -292.98,-229.91L-296.30,-212.47C-300.13,-192.40 -305.28,-179.60 -310.08,-180.52ZM-220.86,-314.24L-236.13,-317.15L-266.46,-157.97L-251.20,-155.06ZM-208.23,-146.87L-159.17,-137.52L-155.85,-154.97L-187.28,-150.11L-188.04,-152.06C-159.59,-188.67 -147.11,-218.61 -144.16,-234.09L-141.87,-246.08C-138.38,-264.40 -143.86,-272.45 -157.16,-274.98C-169.80,-277.39 -182.39,-263.52 -185.01,-249.78C-187.09,-238.88 -188.65,-224.72 -188.37,-213.14L-169.62,-209.57C-179.12,-229.68 -180.97,-241.33 -179.10,-251.14C-177.69,-258.56 -174.37,-262.90 -165.22,-261.15C-157.15,-259.62 -155.52,-257.50 -157.35,-247.90L-160.09,-233.51C-164.62,-209.74 -175.26,-188.27 -208.23,-146.87ZM-132.36,-224.84L-111.43,-220.85L-108.48,-236.33L-129.41,-240.32ZM-144.37,-161.82L-123.43,-157.83L-120.48,-173.31L-141.42,-177.30ZM-84.58,-123.31L-68.23,-120.20L-59.50,-165.99L-59.07,-165.90C-41.41,-162.54 -25.04,-167.78 -20.97,-189.15L-10.21,-245.63C-6.43,-265.47 -15.87,-275.18 -34.63,-278.75L-54.25,-282.49ZM-53.41,-180.19L-56.68,-180.81L-40.72,-264.55L-38.98,-264.22C-28.08,-262.14 -24.90,-257.47 -27.60,-243.29L-37.74,-190.09C-39.19,-182.45 -42.72,-178.16 -53.41,-180.19ZM40.75,-210.61C44.36,-229.58 39.33,-237.54 27.34,-239.83C14.25,-242.32 2.68,-236.16 -1.43,-214.58L-16.68,-134.55C-20.25,-115.80 -14.78,-107.75 -1.48,-105.22C13.13,-102.43 23.10,-116.80 26.61,-137.60L30.94,-163.89L27.89,-164.47L22.38,-139.09C19.28,-125.21 14.87,-117.47 8.32,-118.71C2.22,-119.88 -2.99,-123.36 -0.00,-139.06L7.93,-180.71L34.10,-175.72ZM26.29,-205.91L21.60,-181.27L8.52,-183.76L14.25,-213.85C15.75,-221.70 17.75,-226.29 22.98,-225.29C27.34,-224.46 29.33,-221.82 26.29,-205.91ZM53.86,-196.36L38.53,-115.90C36.45,-104.99 41.05,-97.11 49.12,-95.58C57.40,-94.00 65.85,-98.04 76.67,-129.87L78.76,-129.02L67.43,-96.83L66.98,-94.43L82.02,-91.57L112.35,-250.75L97.09,-253.65L92.06,-227.27L96.43,-220.56L94.88,-219.50C90.91,-224.78 86.65,-228.53 81.20,-229.56C67.25,-232.22 58.84,-222.53 53.86,-196.36ZM69.81,-194.68C73.38,-213.43 75.92,-216.11 80.07,-215.32C83.56,-214.65 86.32,-212.55 88.61,-209.17L75.82,-142.01C71.99,-121.95 64.15,-108.08 59.36,-108.99C55.65,-109.70 54.35,-113.56 55.85,-121.41ZM144.88,-217.43C131.14,-220.05 117.42,-206.17 114.81,-192.43C112.89,-182.40 111.83,-169.72 114.20,-158.42L135.13,-154.43C120.70,-175.94 118.53,-184.71 120.28,-193.87C121.73,-201.50 125.48,-205.76 136.82,-203.60C144.02,-202.23 145.43,-200.15 144.10,-193.17L136.41,-152.83C116.11,-139.98 105.62,-134.75 102.26,-117.09L99.39,-102.04C97.40,-91.57 100.80,-85.73 109.09,-84.15C117.37,-82.57 123.82,-86.76 133.28,-118.63L135.38,-117.78C126.86,-87.31 129.58,-80.24 138.52,-78.54C148.77,-76.59 152.95,-86.64 155.35,-100.42L161.80,-137.83L158.75,-138.41L150.82,-100.38C149.23,-93.22 147.46,-92.20 145.49,-92.58C143.09,-93.03 141.16,-94.76 143.41,-106.53L160.44,-195.94C162.56,-207.06 157.53,-215.02 144.88,-217.43ZM118.44,-98.86C116.26,-99.28 114.99,-100.88 115.73,-104.80L119.89,-126.61C121.63,-135.76 124.16,-140.71 135.54,-148.26L132.21,-130.81C128.39,-110.75 123.24,-97.95 118.44,-98.86ZM224.69,-169.00C227.35,-182.96 220.60,-192.61 208.90,-196.42L209.40,-199.04C219.60,-196.86 226.65,-192.36 235.85,-171.85L240.63,-196.93L209.23,-202.91C196.37,-205.36 183.93,-199.37 179.85,-178.00L170.26,-127.63C168.14,-116.51 169.64,-108.99 174.13,-104.07C169.55,-100.20 162.19,-95.95 160.77,-88.54C159.69,-82.87 162.64,-79.37 167.41,-77.10L167.16,-75.79C160.77,-74.30 155.02,-70.20 153.52,-62.35C152.28,-55.81 156.22,-48.05 169.31,-45.56C187.40,-42.11 211.79,-56.22 213.99,-67.78C215.69,-76.72 210.24,-82.50 196.72,-85.08L173.61,-89.48C169.46,-90.27 168.36,-91.61 168.74,-93.57C169.15,-95.75 172.91,-98.88 177.28,-101.66C179.65,-99.85 182.84,-98.79 186.55,-98.09C199.41,-95.64 211.81,-101.41 215.72,-121.91ZM203.79,-188.58C208.15,-187.75 211.84,-184.56 208.85,-168.86L199.91,-121.98C198.46,-114.35 196.45,-109.76 191.66,-110.67C187.08,-111.54 183.61,-114.69 186.60,-130.39L195.53,-177.27C196.99,-184.90 198.99,-189.49 203.79,-188.58ZM167.40,-68.74C167.85,-71.14 169.36,-73.12 173.18,-74.20L193.90,-70.25C201.31,-68.84 202.47,-65.45 201.48,-60.22C200.64,-55.86 196.17,-54.90 186.14,-56.81C169.13,-60.05 166.57,-64.38 167.40,-68.74ZM244.08,-58.43C256.94,-55.97 269.38,-61.97 273.45,-83.33L288.74,-163.58C292.32,-182.33 286.41,-190.46 272.45,-193.12C259.59,-195.57 247.15,-189.58 243.08,-168.21L227.79,-87.97C224.21,-69.22 230.34,-61.04 244.08,-58.43ZM267.01,-178.79C271.37,-177.96 275.06,-174.77 272.07,-159.07L257.77,-84.06C256.32,-76.43 254.31,-71.84 249.52,-72.76C244.94,-73.63 241.47,-76.77 244.46,-92.47L258.76,-167.49C260.21,-175.12 262.21,-179.71 267.01,-178.79ZM346.16,-145.86C348.82,-159.81 342.07,-169.46 330.37,-173.27L330.87,-175.89C341.07,-173.72 348.12,-169.21 357.32,-148.70L362.10,-173.78L330.70,-179.76C317.84,-182.21 305.40,-176.22 301.32,-154.85L291.72,-104.48C289.61,-93.36 291.11,-85.85 295.60,-80.92C291.02,-77.05 283.65,-72.80 282.24,-65.39C281.16,-59.72 284.11,-56.22 288.88,-53.96L288.63,-52.65C282.24,-51.15 276.49,-47.05 274.99,-39.20C273.75,-32.66 277.69,-24.90 290.77,-22.41C308.87,-18.96 333.25,-33.07 335.46,-44.63C337.16,-53.57 331.71,-59.35 318.19,-61.93L295.08,-66.33C290.93,-67.12 289.83,-68.46 290.21,-70.43C290.62,-72.61 294.38,-75.73 298.75,-78.51C301.12,-76.71 304.31,-75.65 308.01,-74.94C320.88,-72.49 333.28,-78.26 337.18,-98.76ZM325.26,-165.43C329.62,-164.60 333.31,-161.41 330.31,-145.71L321.38,-98.83C319.93,-91.20 317.92,-86.61 313.12,-87.53C308.55,-88.40 305.08,-91.54 308.07,-107.24L317.00,-154.13C318.46,-161.76 320.46,-166.35 325.26,-165.43ZM288.87,-45.60C289.32,-48.00 290.83,-49.97 294.65,-51.05L315.36,-47.10C322.78,-45.69 323.94,-42.30 322.94,-37.07C322.11,-32.71 317.64,-31.75 307.61,-33.67C290.60,-36.91 288.03,-41.24 288.87,-45.60ZM377.59,-170.83L361.02,-173.99L361.08,-56.92L367.40,-55.72L336.14,-13.77L354.89,-10.19L415.75,-163.56L397.87,-166.96L374.49,-76.29L372.09,-76.74L375.60,-121.27Z" fill="#ffffff" stroke="#000000"/>
    <path d="M-908.57,461.18L-911.73,461.18L-911.73,492L-904.01,492L-904.01,489.26L-908.57,489.26ZM-894.09,471.23C-894.09,467.56 -895.31,466.25 -897.63,466.25C-900.16,466.25 -902.11,467.81 -902.11,471.99L-902.11,487.48C-902.11,491.11 -900.80,492.42 -898.22,492.42C-895.39,492.42 -894.04,489.38 -894.13,485.37L-894.25,480.31L-894.85,480.31L-894.97,485.25C-895.06,487.95 -895.61,489.55 -896.87,489.55C-898.05,489.55 -899.15,489.09 -899.15,486.05L-899.15,477.98L-894.09,477.98ZM-896.62,472.62L-896.62,477.39L-899.15,477.39L-899.15,471.57C-899.15,470.05 -898.94,469.12 -897.93,469.12C-897.08,469.12 -896.62,469.54 -896.62,472.62ZM-887.96,461.18L-891.13,461.18L-891.55,492L-888.22,492L-889.36,469.96L-888.93,469.96L-885.43,489.89L-884.46,489.89L-881.76,469.96L-881.29,469.96L-881.84,492L-878.59,492L-879.01,461.18L-881.67,461.18L-884.12,481.15L-884.59,481.15ZM-870.02,492L-867.06,492L-867.06,466.67L-870.02,466.67L-870.02,482.71C-870.02,486.64 -870.91,489.55 -872.09,489.55C-872.89,489.55 -873.10,488.88 -873.10,487.36L-873.10,466.67L-876.06,466.67L-876.06,489.00C-876.06,491.11 -874.92,492.42 -873.35,492.42C-871.75,492.42 -870.31,491.37 -869.43,485.03L-869.01,485.12L-870.02,491.54ZM-858.32,469.37C-857.56,469.37 -857.18,469.71 -857.18,470.47C-857.18,471.23 -858.07,473.04 -860.48,478.11L-857.27,478.11C-856.55,474.35 -856.42,471.52 -856.42,470.43C-856.42,467.64 -857.06,466.25 -858.32,466.25C-859.76,466.25 -860.81,467.30 -861.70,473.64L-862.12,473.55L-861.19,467.13L-861.19,466.67L-864.11,466.67L-864.11,492L-861.15,492L-861.15,475.87C-861.15,471.61 -859.67,469.37 -858.32,469.37ZM-846.97,473.64L-846.37,469.50C-846.08,467.39 -847.09,466.25 -848.44,466.25C-849.96,466.25 -851.27,467.30 -852.16,473.64L-852.58,473.55L-851.57,467.13L-851.57,466.67L-854.52,466.67L-854.52,492L-851.57,492L-851.57,475.96C-851.57,472.12 -850.68,469.12 -849.71,469.12C-849.08,469.12 -848.91,469.79 -848.91,471.31L-848.91,492L-845.95,492L-845.95,475.96C-845.95,472.12 -845.07,469.12 -844.09,469.12C-843.46,469.12 -843.29,469.79 -843.29,471.31L-843.29,492L-840.34,492L-840.34,469.67C-840.34,467.56 -841.39,466.25 -842.83,466.25C-844.35,466.25 -845.66,467.30 -846.54,473.72ZM-831.34,492L-828.39,492L-828.39,466.67L-831.34,466.67L-831.34,482.71C-831.34,486.64 -832.23,489.55 -833.41,489.55C-834.21,489.55 -834.42,488.88 -834.42,487.36L-834.42,466.67L-837.38,466.67L-837.38,489.00C-837.38,491.11 -836.24,492.42 -834.68,492.42C-833.07,492.42 -831.64,491.37 -830.75,485.03L-830.33,485.12L-831.34,491.54ZM-819.65,469.37C-818.89,469.37 -818.51,469.71 -818.51,470.47C-818.51,471.23 -819.39,473.04 -821.80,478.11L-818.59,478.11C-817.87,474.35 -817.75,471.52 -817.75,470.43C-817.75,467.64 -818.38,466.25 -819.65,466.25C-821.08,466.25 -822.14,467.30 -823.02,473.64L-823.45,473.55L-822.52,467.13L-822.52,466.67L-825.43,466.67L-825.43,492L-822.48,492L-822.48,475.87C-822.48,471.61 -821.00,469.37 -819.65,469.37ZM-807.83,471.23C-807.83,467.56 -809.05,466.25 -811.37,466.25C-813.90,466.25 -815.85,467.81 -815.85,471.99L-815.85,487.48C-815.85,491.11 -814.54,492.42 -811.96,492.42C-809.13,492.42 -807.78,489.38 -807.87,485.37L-807.99,480.31L-808.59,480.31L-808.71,485.25C-808.80,487.95 -809.35,489.55 -810.61,489.55C-811.79,489.55 -812.89,489.09 -812.89,486.05L-812.89,477.98L-807.83,477.98ZM-810.36,472.62L-810.36,477.39L-812.89,477.39L-812.89,471.57C-812.89,470.05 -812.68,469.12 -811.67,469.12C-810.82,469.12 -810.36,469.54 -810.36,472.62ZM-805.50,478.74L-798.41,478.74L-798.41,477.35L-805.50,477.35ZM-796.30,492L-793.13,492L-793.13,480.85C-791.82,480.26 -791.11,480.81 -790.94,481.87L-789.33,492L-786.12,492L-788.49,479.80L-791.06,480.14L-791.11,479.63C-788.66,478.49 -786.76,476.97 -786.76,473.64L-786.76,466.50C-786.76,462.66 -788.87,461.18 -792.50,461.18L-796.30,461.18ZM-792.33,479.38L-793.13,479.71L-793.13,464.05L-792.79,464.05C-790.68,464.05 -789.92,464.81 -789.92,467.56L-789.92,476.17C-789.92,477.65 -790.43,478.57 -792.33,479.38ZM-775.99,471.23C-775.99,467.56 -777.21,466.25 -779.54,466.25C-782.07,466.25 -784.01,467.81 -784.01,471.99L-784.01,487.48C-784.01,491.11 -782.70,492.42 -780.13,492.42C-777.30,492.42 -775.95,489.38 -776.03,485.37L-776.16,480.31L-776.75,480.31L-776.88,485.25C-776.96,487.95 -777.51,489.55 -778.78,489.55C-779.96,489.55 -781.06,489.09 -781.06,486.05L-781.06,477.98L-775.99,477.98ZM-778.52,472.62L-778.52,477.39L-781.06,477.39L-781.06,471.57C-781.06,470.05 -780.84,469.12 -779.83,469.12C-778.99,469.12 -778.52,469.54 -778.52,472.62ZM-764.63,472.45C-764.63,469.75 -766.24,468.19 -768.56,467.89L-768.56,467.39C-766.57,467.43 -765.10,468.02 -762.65,471.52L-762.65,466.67L-768.73,466.67C-771.22,466.67 -773.33,468.23 -773.33,472.37L-773.33,482.12C-773.33,484.27 -772.78,485.63 -771.77,486.39C-772.48,487.27 -773.71,488.33 -773.71,489.76C-773.71,490.86 -773.03,491.41 -772.06,491.66L-772.06,491.92C-773.20,492.42 -774.13,493.39 -774.13,494.91C-774.13,496.18 -773.12,497.49 -770.58,497.49C-767.08,497.49 -763.03,493.98 -763.03,491.75C-763.03,490.02 -764.25,489.13 -766.87,489.13L-771.34,489.13C-772.15,489.13 -772.40,488.92 -772.40,488.54C-772.40,488.12 -771.81,487.40 -771.09,486.72C-770.58,486.98 -769.95,487.06 -769.23,487.06C-766.74,487.06 -764.63,485.54 -764.63,481.57ZM-769.23,469.54C-768.39,469.54 -767.59,470.00 -767.59,473.04L-767.59,482.12C-767.59,483.60 -767.80,484.53 -768.73,484.53C-769.61,484.53 -770.37,484.06 -770.37,481.02L-770.37,471.95C-770.37,470.47 -770.16,469.54 -769.23,469.54ZM-771.77,493.22C-771.77,492.76 -771.56,492.34 -770.88,492L-766.87,492C-765.43,492 -765.10,492.59 -765.10,493.60C-765.10,494.45 -765.90,494.79 -767.84,494.79C-771.13,494.79 -771.77,494.07 -771.77,493.22ZM-755.13,492L-752.18,492L-752.18,466.67L-755.13,466.67L-755.13,482.71C-755.13,486.64 -756.02,489.55 -757.20,489.55C-758.00,489.55 -758.21,488.88 -758.21,487.36L-758.21,466.67L-761.17,466.67L-761.17,489.00C-761.17,491.11 -760.03,492.42 -758.47,492.42C-756.86,492.42 -755.43,491.37 -754.54,485.03L-754.12,485.12L-755.13,491.54ZM-746.26,461.18L-749.22,461.18L-749.22,492L-746.26,492ZM-739.00,466.25C-741.66,466.25 -743.73,469.33 -743.73,471.99C-743.73,473.93 -743.48,476.34 -742.63,478.36L-738.58,478.36C-742.04,474.86 -742.76,473.30 -742.76,471.52C-742.76,470.05 -742.21,469.12 -740.02,469.12C-738.62,469.12 -738.29,469.46 -738.29,470.81L-738.29,478.62C-741.62,481.74 -743.39,483.09 -743.39,486.51L-743.39,489.42C-743.39,491.45 -742.55,492.42 -740.94,492.42C-739.34,492.42 -738.29,491.41 -737.65,485.12L-737.23,485.20C-737.74,491.20 -736.98,492.42 -735.25,492.42C-733.26,492.42 -732.84,490.40 -732.88,487.74L-733.01,480.52L-733.60,480.52L-733.73,487.90C-733.77,489.30 -734.06,489.55 -734.44,489.55C-734.91,489.55 -735.33,489.30 -735.33,487.02L-735.33,469.71C-735.33,467.56 -736.55,466.25 -739.00,466.25ZM-739.72,489.34C-740.14,489.34 -740.44,489.09 -740.44,488.33L-740.44,484.11C-740.44,482.33 -740.14,481.32 -738.29,479.50L-738.29,482.88C-738.29,486.76 -738.79,489.34 -739.72,489.34ZM-724.99,469.37C-724.23,469.37 -723.85,469.71 -723.85,470.47C-723.85,471.23 -724.73,473.04 -727.14,478.11L-723.93,478.11C-723.21,474.35 -723.09,471.52 -723.09,470.43C-723.09,467.64 -723.72,466.25 -724.99,466.25C-726.42,466.25 -727.48,467.30 -728.36,473.64L-728.78,473.55L-727.86,467.13L-727.86,466.67L-730.77,466.67L-730.77,492L-727.81,492L-727.81,475.87C-727.81,471.61 -726.34,469.37 -724.99,469.37Z"/>
</svg>