<?xml version="1.0"?>
<svg xmlns="http://www.w3.org/2000/svg" width="1920" height="1080" viewBox="-960 -540 1920 1080">
    <path d="M-756.84,-147L-756.84,-285.75L-736.03,-285.75L-736.03,-230.25L-673.59,-230.25L-673.59,-285.75L-652.78,-285.75L-652.78,-147L-673.59,-147L-673.59,-209.44L-736.03,-209.44L-736.03,-147ZM-630.88,-174.75L-630.88,-223.31L-623.94,-223.31L-623.94,-237.19L-617.00,-237.19L-617.00,-244.13L-603.13,-244.13L-603.13,-251.06L-575.38,-251.06L-575.38,-244.13L-561.50,-244.13L-561.50,-237.19L-554.57,-237.19L-554.57,-223.31L-547.63,-223.31L-547.63,-195.56L-610.07,-195.56L-610.07,-174.75L-603.13,-174.75L-603.13,-167.81L-575.38,-167.81L-575.38,-174.75L-568.44,-174.75L-568.44,-181.69L-547.63,-181.69L-547.63,-167.81L-554.57,-167.81L-554.57,-160.88L-561.50,-160.88L-561.50,-153.94L-575.38,-153.94L-575.38,-147L-603.13,-147L-603.13,-153.94L-617.00,-153.94L-617.00,-160.88L-623.94,-160.88L-623.94,-174.75ZM-610.07,-209.44L-568.44,-209.44L-568.44,-223.31L-575.38,-223.31L-575.38,-230.25L-603.13,-230.25L-603.13,-223.31L-610.07,-223.31ZM-526.17,-147L-526.17,-285.75L-505.35,-285.75L-505.35,-147ZM-480.21,-147L-480.21,-285.75L-459.39,-285.75L-459.39,-147ZM-437.50,-174.75L-437.50,-223.31L-430.56,-223.31L-430.56,-237.19L-423.62,-237.19L-423.62,-244.13L-409.75,-244.13L-409.75,-251.06L-382.00,-251.06L-382.00,-244.13L-368.12,-244.13L-368.12,-237.19L-361.18,-237.19L-361.18,-223.31L-354.25,-223.31L-354.25,-174.75L-361.18,-174.75L-361.18,-160.88L-368.12,-160.88L-368.12,-153.94L-382.00,-153.94L-382.00,-147L-409.75,-147L-409.75,-153.94L-423.62,-153.94L-423.62,-160.88L-430.56,-160.88L-430.56,-174.75ZM-416.68,-174.75L-409.75,-174.75L-409.75,-167.81L-382.00,-167.81L-382.00,-174.75L-375.06,-174.75L-375.06,-223.31L-382.00,-223.31L-382.00,-230.25L-409.75,-230.25L-409.75,-223.31L-416.68,-223.31ZM-339.50,-147L-339.50,-167.81L-318.69,-167.81L-318.69,-133.13L-325.63,-133.13L-325.63,-126.19L-339.50,-126.19L-339.50,-133.13L-332.57,-133.13L-332.57,-140.06L-325.63,-140.06L-325.63,-147ZM-231.11,-147L-231.11,-285.75L-210.29,-285.75L-210.29,-147ZM-190.56,-251.06L-190.56,-285.75L-176.69,-285.75L-176.69,-251.06ZM-152.41,-147L-152.41,-251.06L-131.60,-251.06L-131.60,-237.19L-124.66,-237.19L-124.66,-244.13L-117.72,-244.13L-117.72,-251.06L-96.91,-251.06L-96.91,-244.13L-89.97,-244.13L-89.97,-237.19L-76.10,-237.19L-76.10,-244.13L-69.16,-244.13L-69.16,-251.06L-41.41,-251.06L-41.41,-244.13L-34.47,-244.13L-34.47,-237.19L-27.53,-237.19L-27.53,-223.31L-20.60,-223.31L-20.60,-147L-41.41,-147L-41.41,-223.31L-48.35,-223.31L-48.35,-230.25L-69.16,-230.25L-69.16,-223.31L-76.10,-223.31L-76.10,-147L-96.91,-147L-96.91,-223.31L-103.85,-223.31L-103.85,-230.25L-117.72,-230.25L-117.72,-223.31L-124.66,-223.31L-124.66,-216.38L-131.60,-216.38L-131.60,-147ZM65.04,-147L65.04,-285.75L85.85,-285.75L85.85,-223.31L92.79,-223.31L92.79,-230.25L99.73,-230.25L99.73,-237.19L106.66,-237.19L106.66,-244.13L113.60,-244.13L113.60,-251.06L120.54,-251.06L120.54,-258L127.48,-258L127.48,-264.94L134.41,-264.94L134.41,-271.88L141.35,-271.88L141.35,-278.81L148.29,-278.81L148.29,-285.75L176.04,-285.75L176.04,-278.81L169.10,-278.81L169.10,-271.88L162.16,-271.88L162.16,-264.94L155.23,-264.94L155.23,-258L148.29,-258L148.29,-251.06L141.35,-251.06L141.35,-244.13L134.41,-244.13L134.41,-237.19L127.48,-237.19L127.48,-230.25L120.54,-230.25L120.54,-216.38L127.48,-216.38L127.48,-209.44L134.41,-209.44L134.41,-202.50L141.35,-202.50L141.35,-195.56L148.29,-195.56L148.29,-188.63L155.23,-188.63L155.23,-181.69L162.16,-181.69L162.16,-174.75L169.10,-174.75L169.10,-167.81L176.04,-167.81L176.04,-160.88L182.98,-160.88L182.98,-153.94L189.91,-153.94L189.91,-147L162.16,-147L162.16,-153.94L155.23,-153.94L155.23,-160.88L148.29,-160.88L148.29,-167.81L141.35,-167.81L141.35,-174.75L134.41,-174.75L134.41,-181.69L127.48,-181.69L127.48,-188.63L120.54,-188.63L120.54,-195.56L113.60,-195.56L113.60,-202.50L106.66,-202.50L106.66,-209.44L99.73,-209.44L99.73,-202.50L92.79,-202.50L92.79,-195.56L85.85,-195.56L85.85,-147ZM211.81,-147L211.81,-251.06L232.62,-251.06L232.62,-237.19L239.56,-237.19L239.56,-244.13L246.50,-244.13L246.50,-251.06L274.25,-251.06L274.25,-244.13L281.19,-244.13L281.19,-237.19L288.12,-237.19L288.12,-223.31L281.19,-223.31L281.19,-216.38L274.25,-216.38L274.25,-223.31L267.31,-223.31L267.31,-230.25L246.50,-230.25L246.50,-223.31L239.56,-223.31L239.56,-216.38L232.62,-216.38L232.62,-147ZM306.77,-147L306.77,-251.06L327.58,-251.06L327.58,-147ZM306.77,-264.94L306.77,-285.75L327.58,-285.75L327.58,-264.94ZM350.78,-160.88L350.78,-174.75L357.71,-174.75L357.71,-181.69L364.65,-181.69L364.65,-174.75L371.59,-174.75L371.59,-167.81L378.53,-167.81L378.53,-160.88L392.40,-160.88L392.40,-167.81L399.34,-167.81L399.34,-181.69L392.40,-181.69L392.40,-188.63L385.46,-188.63L385.46,-195.56L371.59,-195.56L371.59,-202.50L364.65,-202.50L364.65,-209.44L357.71,-209.44L357.71,-216.38L350.78,-216.38L350.78,-237.19L357.71,-237.19L357.71,-244.13L364.65,-244.13L364.65,-251.06L406.28,-251.06L406.28,-244.13L413.21,-244.13L413.21,-223.31L399.34,-223.31L399.34,-230.25L392.40,-230.25L392.40,-237.19L378.53,-237.19L378.53,-230.25L371.59,-230.25L371.59,-223.31L378.53,-223.31L378.53,-216.38L385.46,-216.38L385.46,-209.44L399.34,-209.44L399.34,-202.50L406.28,-202.50L406.28,-195.56L413.21,-195.56L413.21,-188.63L420.15,-188.63L420.15,-160.88L413.21,-160.88L413.21,-153.94L406.28,-153.94L406.28,-147L364.65,-147L364.65,-153.94L357.71,-153.94L357.71,-160.88ZM438.15,-230.25L438.15,-251.06L452.02,-251.06L452.02,-278.81L472.83,-278.81L472.83,-251.06L500.58,-251.06L500.58,-230.25L472.83,-230.25L472.83,-147L452.02,-147L452.02,-230.25ZM520.10,-147L520.10,-251.06L540.91,-251.06L540.91,-147ZM520.10,-264.94L520.10,-285.75L540.91,-285.75L540.91,-264.94ZM562.80,-174.75L562.80,-223.31L569.74,-223.31L569.74,-237.19L576.68,-237.19L576.68,-244.13L590.55,-244.13L590.55,-251.06L618.30,-251.06L618.30,-244.13L625.24,-244.13L625.24,-237.19L632.18,-237.19L632.18,-251.06L652.99,-251.06L652.99,-147L632.18,-147L632.18,-160.88L625.24,-160.88L625.24,-153.94L618.30,-153.94L618.30,-147L590.55,-147L590.55,-153.94L576.68,-153.94L576.68,-160.88L569.74,-160.88L569.74,-174.75ZM583.62,-174.75L590.55,-174.75L590.55,-167.81L618.30,-167.81L618.30,-174.75L625.24,-174.75L625.24,-181.69L632.18,-181.69L632.18,-216.38L625.24,-216.38L625.24,-223.31L618.30,-223.31L618.30,-230.25L590.55,-230.25L590.55,-223.31L583.62,-223.31ZM675.54,-147L675.54,-251.06L696.35,-251.06L696.35,-237.19L703.29,-237.19L703.29,-244.13L710.23,-244.13L710.23,-251.06L731.04,-251.06L731.04,-244.13L744.91,-244.13L744.91,-237.19L751.85,-237.19L751.85,-223.31L758.79,-223.31L758.79,-147L737.98,-147L737.98,-223.31L731.04,-223.31L731.04,-230.25L710.23,-230.25L710.23,-223.31L703.29,-223.31L703.29,-216.38L696.35,-216.38L696.35,-147Z" fill="#ffffff" stroke="#000000"/>
    <path d="M-750.60,-165.11L-746.49,-302.41L-725.89,-301.80L-727.54,-246.88L-665.75,-245.03L-664.11,-299.95L-643.51,-299.33L-647.63,-162.03L-668.22,-162.64L-666.37,-224.43L-728.16,-226.28L-730.01,-164.50ZM-625.14,-188.84L-623.70,-236.89L-616.83,-236.69L-616.42,-250.42L-609.55,-250.21L-609.35,-257.08L-595.62,-256.67L-595.41,-263.53L-567.95,-262.71L-568.16,-255.84L-554.43,-255.43L-554.63,-248.57L-547.77,-248.36L-548.18,-234.63L-541.31,-234.43L-542.14,-206.97L-603.92,-208.82L-604.54,-188.22L-597.67,-188.02L-597.88,-181.15L-570.42,-180.33L-570.21,-187.19L-563.35,-186.99L-563.14,-193.85L-542.55,-193.24L-542.96,-179.51L-549.83,-179.71L-550.03,-172.85L-556.90,-173.05L-557.10,-166.19L-570.83,-166.60L-571.04,-159.73L-598.50,-160.56L-598.29,-167.42L-612.02,-167.83L-611.82,-174.70L-618.68,-174.90L-618.27,-188.63ZM-603.51,-222.55L-562.32,-221.31L-561.91,-235.04L-568.77,-235.25L-568.57,-242.11L-596.03,-242.94L-596.24,-236.07L-603.10,-236.28ZM-522.34,-158.27L-518.22,-295.57L-497.63,-294.96L-501.74,-157.66ZM-476.86,-156.91L-472.74,-294.21L-452.15,-293.60L-456.26,-156.29ZM-433.77,-183.11L-432.33,-231.16L-425.47,-230.95L-425.06,-244.68L-418.19,-244.48L-417.99,-251.34L-404.26,-250.93L-404.05,-257.80L-376.59,-256.98L-376.79,-250.11L-363.06,-249.70L-363.27,-242.83L-356.41,-242.63L-356.82,-228.90L-349.95,-228.69L-351.39,-180.64L-358.26,-180.84L-358.67,-167.11L-365.53,-167.32L-365.74,-160.45L-379.47,-160.86L-379.67,-154.00L-407.13,-154.82L-406.93,-161.69L-420.66,-162.10L-420.45,-168.96L-427.32,-169.17L-426.91,-182.90ZM-413.18,-182.49L-406.31,-182.28L-406.52,-175.42L-379.06,-174.59L-378.85,-181.46L-371.99,-181.25L-370.55,-229.31L-377.41,-229.52L-377.21,-236.38L-404.67,-237.20L-404.87,-230.34L-411.74,-230.54ZM-337.63,-152.74L-337.01,-173.33L-316.41,-172.72L-317.44,-138.39L-324.31,-138.60L-324.51,-131.73L-338.24,-132.14L-338.04,-139.01L-331.17,-138.80L-330.97,-145.67L-324.10,-145.46L-323.90,-152.33ZM-230.36,-149.53L-226.25,-286.83L-205.65,-286.21L-209.76,-148.91ZM-187.16,-251.30L-186.13,-285.62L-172.40,-285.21L-173.43,-250.89ZM-152.48,-147.19L-149.40,-250.17L-128.80,-249.55L-129.22,-235.82L-122.35,-235.62L-122.14,-242.48L-115.28,-242.27L-115.07,-249.14L-94.48,-248.52L-94.68,-241.66L-87.82,-241.45L-88.03,-234.59L-74.29,-234.18L-74.09,-241.04L-67.22,-240.84L-67.02,-247.70L-39.56,-246.88L-39.76,-240.01L-32.90,-239.81L-33.10,-232.94L-26.24,-232.74L-26.65,-219.01L-19.79,-218.80L-22.05,-143.28L-42.64,-143.90L-40.38,-219.42L-47.25,-219.62L-47.04,-226.49L-67.64,-227.10L-67.84,-220.24L-74.71,-220.45L-76.97,-144.93L-97.56,-145.55L-95.30,-221.06L-102.17,-221.27L-101.96,-228.13L-115.69,-228.54L-115.90,-221.68L-122.76,-221.89L-122.97,-215.02L-129.83,-215.23L-131.89,-146.58ZM62.69,-140.75L66.81,-278.05L87.40,-277.43L85.55,-215.64L92.41,-215.44L92.62,-222.30L99.49,-222.10L99.69,-228.96L106.56,-228.76L106.76,-235.62L113.63,-235.42L113.83,-242.28L120.70,-242.08L120.90,-248.94L127.77,-248.74L127.97,-255.60L134.84,-255.39L135.04,-262.26L141.91,-262.05L142.12,-268.92L148.98,-268.71L149.19,-275.58L176.65,-274.76L176.44,-267.89L169.58,-268.10L169.37,-261.23L162.50,-261.44L162.30,-254.57L155.43,-254.78L155.23,-247.91L148.36,-248.12L148.16,-241.25L141.29,-241.46L141.09,-234.59L134.22,-234.80L134.02,-227.93L127.15,-228.14L126.95,-221.27L120.08,-221.48L119.67,-207.75L126.53,-207.54L126.33,-200.68L133.19,-200.47L132.99,-193.61L139.85,-193.40L139.65,-186.54L146.51,-186.33L146.31,-179.47L153.17,-179.26L152.97,-172.40L159.83,-172.19L159.63,-165.33L166.49,-165.12L166.28,-158.26L173.15,-158.05L172.94,-151.18L179.81,-150.98L179.60,-144.11L186.47,-143.91L186.26,-137.04L158.80,-137.87L159.01,-144.73L152.14,-144.94L152.35,-151.80L145.48,-152.01L145.69,-158.87L138.82,-159.08L139.03,-165.94L132.17,-166.15L132.37,-173.01L125.51,-173.22L125.71,-180.08L118.85,-180.29L119.05,-187.16L112.19,-187.36L112.39,-194.23L105.53,-194.43L105.73,-201.30L98.87,-201.50L98.66,-194.64L91.80,-194.84L91.59,-187.98L84.73,-188.18L83.29,-140.13ZM207.93,-136.39L211.02,-239.37L231.61,-238.75L231.20,-225.02L238.06,-224.82L238.27,-231.68L245.14,-231.48L245.34,-238.34L272.80,-237.52L272.60,-230.65L279.46,-230.45L279.25,-223.58L286.12,-223.38L285.71,-209.65L278.84,-209.85L278.64,-202.99L271.77,-203.19L271.98,-210.06L265.11,-210.26L265.32,-217.13L244.72,-217.75L244.52,-210.88L237.65,-211.09L237.45,-204.22L230.58,-204.43L228.53,-135.78ZM301.90,-133.58L304.98,-236.55L325.58,-235.94L322.49,-132.96ZM305.39,-250.28L306.01,-270.88L326.60,-270.26L325.99,-249.67ZM345.86,-146.00L346.27,-159.73L353.13,-159.53L353.34,-166.39L360.20,-166.19L360.00,-159.32L366.86,-159.12L366.66,-152.25L373.52,-152.05L373.32,-145.18L387.05,-144.77L387.25,-151.63L394.12,-151.43L394.53,-165.16L387.66,-165.36L387.87,-172.23L381.01,-172.44L381.21,-179.30L367.48,-179.71L367.69,-186.58L360.82,-186.78L361.03,-193.65L354.16,-193.85L354.37,-200.72L347.50,-200.92L348.12,-221.52L354.98,-221.31L355.19,-228.18L362.06,-227.97L362.26,-234.84L403.45,-233.60L403.25,-226.74L410.11,-226.53L409.49,-205.94L395.76,-206.35L395.97,-213.21L389.10,-213.42L389.31,-220.29L375.58,-220.70L375.37,-213.83L368.51,-214.04L368.30,-207.17L375.17,-206.97L374.96,-200.10L381.83,-199.90L381.62,-193.03L395.35,-192.62L395.15,-185.75L402.01,-185.55L401.81,-178.68L408.67,-178.48L408.47,-171.61L415.33,-171.41L414.51,-143.95L407.64,-144.15L407.44,-137.29L400.57,-137.49L400.37,-130.63L359.18,-131.86L359.38,-138.73L352.52,-138.93L352.72,-145.80ZM434.37,-212.06L434.99,-232.66L448.72,-232.25L449.54,-259.71L470.14,-259.09L469.31,-231.63L496.77,-230.81L496.16,-210.21L468.70,-211.04L466.23,-128.66L445.63,-129.27L448.10,-211.65ZM513.00,-127.25L516.08,-230.23L536.68,-229.61L533.59,-126.64ZM516.49,-243.96L517.11,-264.55L537.70,-263.94L537.09,-243.34ZM556.08,-153.45L557.52,-201.50L564.39,-201.30L564.80,-215.03L571.66,-214.82L571.87,-221.69L585.60,-221.28L585.80,-228.14L613.26,-227.32L613.06,-220.45L619.92,-220.25L619.72,-213.38L626.58,-213.18L626.99,-226.91L647.59,-226.29L644.50,-123.31L623.91,-123.93L624.32,-137.66L617.46,-137.87L617.25,-131.00L610.38,-131.21L610.18,-124.34L582.72,-125.16L582.92,-132.03L569.19,-132.44L569.40,-139.31L562.54,-139.51L562.95,-153.24ZM576.68,-152.83L583.54,-152.63L583.34,-145.76L610.80,-144.94L611.00,-151.80L617.87,-151.60L618.07,-158.46L624.94,-158.26L625.97,-192.58L619.10,-192.79L619.31,-199.65L612.44,-199.86L612.65,-206.72L585.19,-207.55L584.98,-200.68L578.12,-200.89ZM666.82,-122.65L669.90,-225.62L690.50,-225.00L690.08,-211.27L696.95,-211.07L697.16,-217.93L704.02,-217.73L704.23,-224.59L724.82,-223.98L724.62,-217.11L738.35,-216.70L738.14,-209.83L745.01,-209.63L744.59,-195.90L751.46,-195.69L749.20,-120.18L728.60,-120.79L730.86,-196.31L724.00,-196.52L724.20,-203.38L703.61,-204.00L703.40,-197.13L696.54,-197.34L696.33,-190.47L689.47,-190.68L687.41,-122.03Z" fill="#ffffff" stroke="#000000"/>
    <path d="M-743.84,-183.04L-735.70,-318.77L-715.34,-317.55L-718.59,-263.26L-657.51,-259.60L-654.26,-313.89L-633.90,-312.67L-642.04,-176.94L-662.40,-178.16L-658.73,-239.24L-719.81,-242.90L-723.48,-181.82ZM-618.99,-202.80L-616.14,-250.30L-609.35,-249.90L-608.54,-263.47L-601.75,-263.06L-601.35,-269.85L-587.77,-269.03L-587.37,-275.82L-560.22,-274.19L-560.63,-267.41L-547.05,-266.59L-547.46,-259.81L-540.67,-259.40L-541.49,-245.83L-534.70,-245.42L-536.33,-218.27L-597.41,-221.94L-598.63,-201.58L-591.84,-201.17L-592.25,-194.38L-565.10,-192.75L-564.70,-199.54L-557.91,-199.13L-557.50,-205.92L-537.14,-204.70L-537.96,-191.13L-544.75,-191.53L-545.15,-184.75L-551.94,-185.15L-552.35,-178.37L-565.92,-179.18L-566.33,-172.39L-593.47,-174.02L-593.07,-180.81L-606.64,-181.62L-606.23,-188.41L-613.02,-188.82L-612.20,-202.39ZM-596.60,-235.51L-555.88,-233.07L-555.06,-246.64L-561.85,-247.05L-561.44,-253.83L-588.59,-255.46L-588.99,-248.68L-595.78,-249.08ZM-518.18,-169.51L-510.04,-305.24L-489.68,-304.02L-497.82,-168.29ZM-473.22,-166.81L-465.08,-302.54L-444.72,-301.32L-452.86,-165.59ZM-429.82,-191.45L-426.97,-238.96L-420.18,-238.55L-419.37,-252.12L-412.58,-251.72L-412.17,-258.50L-398.60,-257.69L-398.19,-264.48L-371.05,-262.85L-371.45,-256.06L-357.88,-255.25L-358.29,-248.46L-351.50,-248.05L-352.31,-234.48L-345.53,-234.07L-348.38,-186.57L-355.16,-186.97L-355.98,-173.40L-362.76,-173.81L-363.17,-167.02L-376.74,-167.84L-377.15,-161.05L-404.30,-162.68L-403.89,-169.46L-417.46,-170.28L-417.06,-177.06L-423.84,-177.47L-423.03,-191.04ZM-409.46,-190.23L-402.67,-189.82L-403.08,-183.04L-375.93,-181.41L-375.52,-188.19L-368.74,-187.79L-365.89,-235.29L-372.67,-235.70L-372.27,-242.49L-399.41,-244.12L-399.82,-237.33L-406.61,-237.74ZM-335.58,-158.56L-334.36,-178.92L-314.00,-177.69L-316.04,-143.76L-322.82,-144.17L-323.23,-137.38L-336.80,-138.20L-336.40,-144.98L-329.61,-144.58L-329.20,-151.36L-322.42,-150.95L-322.01,-157.74ZM-229.54,-152.20L-221.40,-287.93L-201.04,-286.71L-209.18,-150.97ZM-183.78,-251.62L-181.74,-285.55L-168.17,-284.73L-170.21,-250.80ZM-152.56,-147.58L-146.45,-249.38L-126.09,-248.16L-126.91,-234.58L-120.12,-234.18L-119.71,-240.96L-112.93,-240.55L-112.52,-247.34L-92.16,-246.12L-92.57,-239.33L-85.78,-238.93L-86.19,-232.14L-72.61,-231.33L-72.21,-238.11L-65.42,-237.71L-65.01,-244.49L-37.87,-242.86L-38.27,-236.08L-31.49,-235.67L-31.90,-228.88L-25.11,-228.48L-25.92,-214.90L-19.14,-214.50L-23.61,-139.84L-43.97,-141.07L-39.50,-215.72L-46.28,-216.12L-45.88,-222.91L-66.24,-224.13L-66.64,-217.35L-73.43,-217.75L-77.91,-143.10L-98.27,-144.32L-93.79,-218.97L-100.58,-219.38L-100.17,-226.17L-113.74,-226.98L-114.15,-220.20L-120.93,-220.60L-121.34,-213.82L-128.13,-214.22L-132.20,-146.36ZM60.16,-134.82L68.30,-270.55L88.66,-269.33L84.99,-208.25L91.78,-207.84L92.19,-214.63L98.97,-214.22L99.38,-221.01L106.17,-220.60L106.58,-227.39L113.36,-226.98L113.77,-233.77L120.56,-233.36L120.96,-240.15L127.75,-239.74L128.16,-246.53L134.94,-246.12L135.35,-252.91L142.14,-252.50L142.54,-259.29L149.33,-258.88L149.74,-265.67L176.88,-264.04L176.48,-257.25L169.69,-257.66L169.28,-250.87L162.50,-251.28L162.09,-244.49L155.30,-244.90L154.90,-238.11L148.11,-238.52L147.70,-231.73L140.92,-232.14L140.51,-225.35L133.72,-225.76L133.31,-218.98L126.53,-219.38L126.12,-212.60L119.33,-213.00L118.52,-199.43L125.31,-199.02L124.90,-192.24L131.69,-191.83L131.28,-185.04L138.07,-184.64L137.66,-177.85L144.45,-177.44L144.04,-170.66L150.83,-170.25L150.42,-163.46L157.20,-163.05L156.80,-156.27L163.58,-155.86L163.18,-149.07L169.96,-148.67L169.56,-141.88L176.34,-141.47L175.94,-134.69L182.72,-134.28L182.32,-127.49L155.17,-129.12L155.58,-135.91L148.79,-136.32L149.20,-143.10L142.41,-143.51L142.82,-150.30L136.03,-150.70L136.44,-157.49L129.65,-157.90L130.06,-164.68L123.27,-165.09L123.68,-171.88L116.89,-172.28L117.30,-179.07L110.51,-179.48L110.92,-186.26L104.13,-186.67L104.54,-193.46L97.75,-193.86L97.35,-187.08L90.56,-187.48L90.15,-180.70L83.37,-181.11L80.52,-133.60ZM203.74,-126.21L209.84,-228.01L230.20,-226.79L229.39,-213.21L236.17,-212.81L236.58,-219.59L243.37,-219.19L243.77,-225.97L270.92,-224.34L270.51,-217.56L277.30,-217.15L276.89,-210.36L283.68,-209.96L282.87,-196.38L276.08,-196.79L275.67,-190.00L268.89,-190.41L269.29,-197.20L262.51,-197.60L262.91,-204.39L242.55,-205.61L242.15,-198.83L235.36,-199.23L234.95,-192.45L228.17,-192.85L224.10,-124.99ZM296.63,-120.64L302.73,-222.44L323.09,-221.21L316.99,-119.42ZM303.55,-236.01L304.77,-256.37L325.13,-255.15L323.91,-234.79ZM340.49,-131.63L341.31,-145.20L348.09,-144.79L348.50,-151.58L355.29,-151.17L354.88,-144.39L361.67,-143.98L361.26,-137.19L368.05,-136.79L367.64,-130.00L381.21,-129.19L381.62,-135.97L388.41,-135.57L389.22,-149.14L382.43,-149.55L382.84,-156.33L376.05,-156.74L376.46,-163.53L362.89,-164.34L363.29,-171.13L356.51,-171.53L356.92,-178.32L350.13,-178.73L350.54,-185.51L343.75,-185.92L344.97,-206.28L351.76,-205.87L352.16,-212.66L358.95,-212.25L359.36,-219.04L400.08,-216.60L399.67,-209.81L406.46,-209.40L405.24,-189.04L391.66,-189.86L392.07,-196.64L385.28,-197.05L385.69,-203.84L372.12,-204.65L371.71,-197.87L364.92,-198.27L364.52,-191.49L371.30,-191.08L370.90,-184.29L377.68,-183.89L377.28,-177.10L390.85,-176.29L390.44,-169.50L397.23,-169.09L396.82,-162.31L403.61,-161.90L403.20,-155.11L409.99,-154.70L408.36,-127.56L401.57,-127.97L401.17,-121.18L394.38,-121.59L393.97,-114.80L353.25,-117.24L353.66,-124.03L346.87,-124.43L347.28,-131.22ZM430.03,-194.37L431.25,-214.73L444.83,-213.91L446.45,-241.06L466.81,-239.84L465.19,-212.69L492.33,-211.06L491.11,-190.70L463.96,-192.33L459.08,-110.89L438.72,-112.12L443.60,-193.55ZM505.31,-108.12L511.42,-209.92L531.78,-208.70L525.67,-106.90ZM512.23,-223.49L513.45,-243.85L533.81,-242.63L532.59,-222.27ZM548.72,-132.76L551.57,-180.27L558.36,-179.86L559.17,-193.43L565.96,-193.03L566.36,-199.81L579.94,-199.00L580.34,-205.79L607.49,-204.16L607.08,-197.37L613.87,-196.96L613.46,-190.18L620.25,-189.77L621.06,-203.34L641.42,-202.12L635.32,-100.32L614.96,-101.55L615.77,-115.12L608.99,-115.53L608.58,-108.74L601.79,-109.15L601.39,-102.36L574.24,-103.99L574.65,-110.77L561.07,-111.59L561.48,-118.37L554.69,-118.78L555.51,-132.35ZM569.08,-131.54L575.87,-131.13L575.46,-124.35L602.61,-122.72L603.01,-129.51L609.80,-129.10L610.21,-135.88L616.99,-135.48L619.03,-169.41L612.24,-169.82L612.65,-176.60L605.86,-177.01L606.27,-183.80L579.12,-185.43L578.72,-178.64L571.93,-179.05ZM657.37,-99.00L663.48,-200.80L683.84,-199.58L683.03,-186.01L689.81,-185.60L690.22,-192.38L697.01,-191.98L697.41,-198.76L717.77,-197.54L717.37,-190.76L730.94,-189.94L730.53,-183.16L737.32,-182.75L736.50,-169.18L743.29,-168.77L738.81,-94.12L718.45,-95.34L722.93,-169.99L716.14,-170.40L716.55,-177.18L696.19,-178.40L695.78,-171.62L689.00,-172.03L688.59,-165.24L681.80,-165.65L677.73,-97.78Z" fill="#ffffff" stroke="#000000"/>
    <path d="M-736.55,-200.77L-724.47,-334.81L-704.36,-333.00L-709.20,-279.38L-648.88,-273.95L-644.04,-327.56L-623.94,-325.75L-636.01,-191.71L-656.12,-193.52L-650.69,-253.84L-711.01,-259.27L-716.44,-198.95ZM-612.45,-216.61L-608.22,-263.53L-601.52,-262.92L-600.31,-276.33L-593.61,-275.72L-593.00,-282.42L-579.60,-281.22L-578.99,-287.92L-552.19,-285.50L-552.79,-278.80L-539.38,-277.59L-539.99,-270.89L-533.29,-270.29L-534.49,-256.88L-527.79,-256.28L-530.21,-229.47L-590.53,-234.91L-592.34,-214.80L-585.64,-214.19L-586.24,-207.49L-559.43,-205.08L-558.83,-211.78L-552.13,-211.18L-551.52,-217.88L-531.41,-216.07L-532.62,-202.66L-539.32,-203.27L-539.93,-196.56L-546.63,-197.17L-547.23,-190.46L-560.64,-191.67L-561.24,-184.97L-588.05,-187.39L-587.45,-194.09L-600.85,-195.30L-600.25,-202.00L-606.95,-202.60L-605.74,-216.01ZM-589.32,-248.31L-549.11,-244.69L-547.90,-258.09L-554.60,-258.69L-554.00,-265.40L-580.81,-267.81L-581.41,-261.11L-588.11,-261.71ZM-513.70,-180.69L-501.62,-314.73L-481.52,-312.92L-493.59,-178.88ZM-469.30,-176.69L-457.22,-310.73L-437.11,-308.92L-449.19,-174.87ZM-425.62,-199.78L-421.39,-246.69L-414.69,-246.09L-413.48,-259.49L-406.78,-258.89L-406.18,-265.59L-392.77,-264.38L-392.17,-271.09L-365.36,-268.67L-365.96,-261.97L-352.56,-260.76L-353.16,-254.06L-346.46,-253.45L-347.67,-240.05L-340.97,-239.45L-345.19,-192.53L-351.90,-193.13L-353.10,-179.73L-359.81,-180.33L-360.41,-173.63L-373.81,-174.84L-374.42,-168.14L-401.23,-170.55L-400.62,-177.26L-414.03,-178.46L-413.42,-185.17L-420.13,-185.77L-418.92,-199.17ZM-405.51,-197.97L-398.81,-197.36L-399.42,-190.66L-372.61,-188.24L-372.00,-194.95L-365.30,-194.34L-361.07,-241.26L-367.78,-241.86L-367.17,-248.56L-393.98,-250.98L-394.58,-244.28L-401.29,-244.88ZM-333.37,-164.44L-331.56,-184.55L-311.45,-182.73L-314.47,-149.22L-321.17,-149.83L-321.77,-143.12L-335.18,-144.33L-334.58,-151.03L-327.87,-150.43L-327.27,-157.13L-320.57,-156.53L-319.96,-163.23ZM-228.65,-155.00L-216.57,-289.05L-196.46,-287.24L-208.54,-153.19ZM-180.42,-252.01L-177.40,-285.52L-164.00,-284.31L-167.02,-250.80ZM-152.62,-148.15L-143.56,-248.69L-123.45,-246.87L-124.66,-233.47L-117.96,-232.87L-117.35,-239.57L-110.65,-238.96L-110.05,-245.67L-89.94,-243.86L-90.54,-237.15L-83.84,-236.55L-84.45,-229.85L-71.04,-228.64L-70.44,-235.34L-63.74,-234.74L-63.13,-241.44L-36.32,-239.02L-36.93,-232.32L-30.22,-231.72L-30.83,-225.02L-24.13,-224.41L-25.33,-211.01L-18.63,-210.40L-25.27,-136.68L-45.38,-138.49L-38.74,-212.22L-45.44,-212.82L-44.84,-219.52L-64.94,-221.33L-65.55,-214.63L-72.25,-215.23L-78.89,-141.51L-99.00,-143.32L-92.36,-217.05L-99.06,-217.65L-98.45,-224.35L-111.86,-225.56L-112.46,-218.86L-119.17,-219.46L-119.77,-212.76L-126.47,-213.36L-132.51,-146.34ZM57.46,-129.23L69.53,-263.27L89.64,-261.46L84.21,-201.14L90.91,-200.53L91.51,-207.24L98.21,-206.63L98.82,-213.34L105.52,-212.73L106.12,-219.43L112.83,-218.83L113.43,-225.53L120.13,-224.93L120.74,-231.63L127.44,-231.03L128.04,-237.73L134.74,-237.12L135.35,-243.83L142.05,-243.22L142.65,-249.93L149.36,-249.32L149.96,-256.02L176.77,-253.61L176.17,-246.91L169.46,-247.51L168.86,-240.81L162.16,-241.41L161.55,-234.71L154.85,-235.31L154.25,-228.61L147.54,-229.21L146.94,-222.51L140.24,-223.12L139.63,-216.41L132.93,-217.02L132.33,-210.32L125.63,-210.92L125.02,-204.22L118.32,-204.82L117.11,-191.42L123.81,-190.81L123.21,-184.11L129.91,-183.51L129.31,-176.80L136.01,-176.20L135.41,-169.50L142.11,-168.89L141.51,-162.19L148.21,-161.59L147.60,-154.89L154.31,-154.28L153.70,-147.58L160.40,-146.98L159.80,-140.27L166.50,-139.67L165.90,-132.97L172.60,-132.36L172.00,-125.66L178.70,-125.06L178.10,-118.36L151.29,-120.77L151.89,-127.47L145.19,-128.08L145.79,-134.78L139.09,-135.38L139.69,-142.09L132.99,-142.69L133.60,-149.39L126.89,-150.00L127.50,-156.70L120.80,-157.30L121.40,-164.00L114.70,-164.61L115.30,-171.31L108.60,-171.91L109.20,-178.62L102.50,-179.22L103.10,-185.92L96.40,-186.53L95.80,-179.82L89.10,-180.43L88.49,-173.73L81.79,-174.33L77.56,-127.41ZM199.25,-116.45L208.31,-216.98L228.41,-215.17L227.21,-201.77L233.91,-201.16L234.51,-207.87L241.22,-207.26L241.82,-213.96L268.63,-211.55L268.02,-204.85L274.73,-204.24L274.12,-197.54L280.82,-196.94L279.62,-183.53L272.91,-184.14L272.31,-177.43L265.61,-178.04L266.21,-184.74L259.51,-185.34L260.11,-192.05L240.01,-193.86L239.40,-187.15L232.70,-187.76L232.10,-181.06L225.40,-181.66L219.36,-114.64ZM290.99,-108.18L300.04,-208.72L320.15,-206.91L311.09,-106.37ZM301.25,-222.12L303.06,-242.23L323.17,-240.42L321.36,-220.31ZM334.71,-117.76L335.92,-131.16L342.62,-130.56L343.23,-137.26L349.93,-136.66L349.32,-129.95L356.03,-129.35L355.42,-122.65L362.12,-122.04L361.52,-115.34L374.92,-114.13L375.53,-120.84L382.23,-120.23L383.44,-133.64L376.74,-134.24L377.34,-140.94L370.64,-141.55L371.24,-148.25L357.84,-149.46L358.44,-156.16L351.74,-156.76L352.34,-163.47L345.64,-164.07L346.24,-170.77L339.54,-171.38L341.35,-191.48L348.06,-190.88L348.66,-197.58L355.36,-196.98L355.97,-203.68L396.18,-200.06L395.58,-193.35L402.28,-192.75L400.47,-172.64L387.06,-173.85L387.67,-180.55L380.96,-181.16L381.57,-187.86L368.16,-189.07L367.56,-182.36L360.86,-182.97L360.25,-176.27L366.96,-175.66L366.35,-168.96L373.05,-168.36L372.45,-161.65L385.85,-160.45L385.25,-153.74L391.95,-153.14L391.35,-146.44L398.05,-145.83L397.45,-139.13L404.15,-138.53L401.73,-111.72L395.03,-112.32L394.43,-105.62L387.73,-106.22L387.12,-99.52L346.91,-103.15L347.51,-109.85L340.81,-110.45L341.41,-117.15ZM425.16,-177.18L426.97,-197.28L440.37,-196.07L442.79,-222.88L462.89,-221.07L460.48,-194.26L487.29,-191.85L485.48,-171.74L458.67,-174.16L451.42,-93.73L431.31,-95.54L438.56,-175.97ZM497.08,-89.62L506.14,-190.15L526.24,-188.34L517.19,-87.80ZM507.35,-203.55L509.16,-223.66L529.26,-221.85L527.45,-201.74ZM540.76,-112.71L544.98,-159.62L551.69,-159.02L552.89,-172.42L559.60,-171.82L560.20,-178.52L573.60,-177.31L574.21,-184.02L601.02,-181.60L600.41,-174.90L607.11,-174.29L606.51,-167.59L613.21,-166.99L614.42,-180.39L634.53,-178.58L625.47,-78.05L605.36,-79.86L606.57,-93.26L599.87,-93.87L599.26,-87.16L592.56,-87.77L591.96,-81.07L565.15,-83.48L565.75,-90.18L552.35,-91.39L552.95,-98.09L546.25,-98.70L547.46,-112.10ZM560.86,-110.89L567.57,-110.29L566.96,-103.59L593.77,-101.17L594.37,-107.88L601.08,-107.27L601.68,-113.97L608.38,-113.37L611.40,-146.88L604.70,-147.49L605.30,-154.19L598.60,-154.79L599.20,-161.49L572.40,-163.91L571.79,-157.21L565.09,-157.81ZM647.25,-76.08L656.31,-176.62L676.42,-174.81L675.21,-161.40L681.91,-160.80L682.51,-167.50L689.22,-166.90L689.82,-173.60L709.93,-171.79L709.32,-165.08L722.73,-163.88L722.12,-157.17L728.83,-156.57L727.62,-143.17L734.32,-142.56L727.68,-68.84L707.57,-70.65L714.21,-144.37L707.51,-144.98L708.12,-151.68L688.01,-153.49L687.41,-146.79L680.70,-147.39L680.10,-140.69L673.40,-141.30L667.36,-74.27Z" fill="#ffffff" stroke="#000000"/>
    <path d="M-728.74,-218.27L-712.82,-350.51L-692.98,-348.12L-699.35,-295.23L-639.84,-288.06L-633.47,-340.96L-613.64,-338.57L-629.56,-206.33L-649.39,-208.71L-642.23,-268.22L-701.74,-275.39L-708.90,-215.88ZM-605.50,-230.26L-599.93,-276.55L-593.32,-275.75L-591.73,-288.98L-585.11,-288.18L-584.32,-294.79L-571.09,-293.20L-570.30,-299.81L-543.85,-296.63L-544.64,-290.02L-531.42,-288.42L-532.22,-281.81L-525.60,-281.02L-527.20,-267.79L-520.58,-267.00L-523.77,-240.55L-583.28,-247.71L-585.67,-227.87L-579.05,-227.08L-579.85,-220.47L-553.40,-217.28L-552.60,-223.89L-545.99,-223.10L-545.20,-229.71L-525.36,-227.32L-526.95,-214.10L-533.56,-214.89L-534.36,-208.28L-540.97,-209.08L-541.77,-202.47L-554.99,-204.06L-555.79,-197.45L-582.24,-200.63L-581.44,-207.24L-594.67,-208.83L-593.87,-215.45L-600.48,-216.24L-598.89,-229.47ZM-581.69,-260.94L-542.01,-256.16L-540.42,-269.38L-547.03,-270.18L-546.24,-276.79L-572.69,-279.98L-573.48,-273.36L-580.09,-274.16ZM-508.88,-191.80L-492.96,-324.04L-473.13,-321.66L-489.05,-189.41ZM-465.08,-186.52L-449.16,-318.77L-429.32,-316.38L-445.24,-184.14ZM-421.19,-208.07L-415.61,-254.36L-409.00,-253.56L-407.41,-266.79L-400.80,-265.99L-400.00,-272.60L-386.78,-271.01L-385.98,-277.62L-359.53,-274.44L-360.33,-267.83L-347.10,-266.24L-347.90,-259.62L-341.29,-258.83L-342.88,-245.60L-336.27,-244.81L-341.84,-198.52L-348.45,-199.32L-350.04,-186.09L-356.66,-186.89L-357.45,-180.28L-370.68,-181.87L-371.47,-175.26L-397.92,-178.44L-397.12,-185.05L-410.35,-186.64L-409.55,-193.26L-416.17,-194.05L-414.57,-207.28ZM-401.35,-205.69L-394.74,-204.89L-395.53,-198.28L-369.08,-195.09L-368.29,-201.71L-361.68,-200.91L-356.10,-247.19L-362.72,-247.99L-361.92,-254.60L-388.37,-257.79L-389.16,-251.18L-395.78,-251.97ZM-330.97,-170.38L-328.58,-190.22L-308.75,-187.83L-312.73,-154.77L-319.34,-155.56L-320.14,-148.95L-333.36,-150.54L-332.56,-157.16L-325.95,-156.36L-325.16,-162.97L-318.54,-162.18L-317.75,-168.79ZM-227.66,-157.94L-211.73,-290.19L-191.90,-287.80L-207.82,-155.55ZM-177.07,-252.47L-173.09,-285.54L-159.87,-283.94L-163.85,-250.88ZM-152.65,-148.91L-140.71,-248.10L-120.87,-245.71L-122.46,-232.48L-115.85,-231.69L-115.05,-238.30L-108.44,-237.50L-107.65,-244.12L-87.81,-241.73L-88.61,-235.12L-81.99,-234.32L-82.79,-227.71L-69.56,-226.12L-68.77,-232.73L-62.16,-231.93L-61.36,-238.54L-34.91,-235.36L-35.71,-228.75L-29.09,-227.95L-29.89,-221.34L-23.28,-220.54L-24.87,-207.32L-18.26,-206.52L-27.01,-133.79L-46.85,-136.18L-38.10,-208.91L-44.71,-209.71L-43.91,-216.32L-63.75,-218.71L-64.54,-212.09L-71.16,-212.89L-79.91,-140.16L-99.75,-142.54L-90.99,-215.28L-97.61,-216.08L-96.81,-222.69L-110.03,-224.28L-110.83,-217.67L-117.44,-218.46L-118.24,-211.85L-124.85,-212.65L-132.81,-146.52ZM54.61,-123.96L70.53,-256.21L90.36,-253.82L83.20,-194.31L89.81,-193.51L90.61,-200.12L97.22,-199.33L98.01,-205.94L104.63,-205.15L105.42,-211.76L112.04,-210.96L112.83,-217.57L119.44,-216.78L120.24,-223.39L126.85,-222.59L127.65,-229.21L134.26,-228.41L135.06,-235.02L141.67,-234.23L142.46,-240.84L149.08,-240.04L149.87,-246.65L176.32,-243.47L175.53,-236.86L168.91,-237.65L168.12,-231.04L161.51,-231.84L160.71,-225.23L154.10,-226.02L153.30,-219.41L146.69,-220.21L145.89,-213.59L139.28,-214.39L138.48,-207.78L131.87,-208.57L131.08,-201.96L124.46,-202.76L123.67,-196.14L117.06,-196.94L115.46,-183.72L122.08,-182.92L121.28,-176.31L127.89,-175.51L127.10,-168.90L133.71,-168.10L132.91,-161.49L139.52,-160.70L138.73,-154.08L145.34,-153.29L144.54,-146.67L151.16,-145.88L150.36,-139.27L156.97,-138.47L156.18,-131.86L162.79,-131.06L161.99,-124.45L168.61,-123.65L167.81,-117.04L174.42,-116.25L173.63,-109.63L147.18,-112.82L147.97,-119.43L141.36,-120.23L142.16,-126.84L135.54,-127.63L136.34,-134.25L129.73,-135.04L130.52,-141.65L123.91,-142.45L124.71,-149.06L118.10,-149.86L118.89,-156.47L112.28,-157.27L113.08,-163.88L106.46,-164.68L107.26,-171.29L100.65,-172.08L101.44,-178.70L94.83,-179.49L94.03,-172.88L87.42,-173.68L86.63,-167.06L80.01,-167.86L74.44,-121.57ZM194.50,-107.12L206.44,-206.30L226.27,-203.92L224.68,-190.69L231.29,-189.90L232.09,-196.51L238.70,-195.71L239.50,-202.32L265.95,-199.14L265.15,-192.53L271.76,-191.73L270.97,-185.12L277.58,-184.32L275.99,-171.10L269.37,-171.90L268.58,-165.28L261.97,-166.08L262.76,-172.69L256.15,-173.49L256.95,-180.10L237.11,-182.49L236.31,-175.88L229.70,-176.67L228.91,-170.06L222.29,-170.86L214.33,-104.73ZM285.00,-96.23L296.94,-195.41L316.78,-193.02L304.84,-93.84ZM298.53,-208.63L300.92,-228.47L320.76,-226.08L318.37,-206.25ZM328.54,-104.40L330.13,-117.62L336.74,-116.83L337.54,-123.44L344.15,-122.64L343.36,-116.03L349.97,-115.24L349.17,-108.62L355.78,-107.83L354.99,-101.22L368.21,-99.62L369.01,-106.24L375.62,-105.44L377.21,-118.66L370.60,-119.46L371.40,-126.07L364.79,-126.87L365.58,-133.48L352.36,-135.07L353.15,-141.69L346.54,-142.48L347.34,-149.09L340.72,-149.89L341.52,-156.50L334.91,-157.30L337.30,-177.13L343.91,-176.34L344.70,-182.95L351.32,-182.16L352.11,-188.77L391.79,-183.99L390.99,-177.38L397.60,-176.58L395.21,-156.75L381.99,-158.34L382.79,-164.95L376.17,-165.75L376.97,-172.36L363.75,-173.95L362.95,-167.34L356.34,-168.13L355.54,-161.52L362.15,-160.73L361.36,-154.11L367.97,-153.32L367.17,-146.71L380.40,-145.11L379.60,-138.50L386.21,-137.71L385.42,-131.09L392.03,-130.30L391.23,-123.68L397.85,-122.89L394.66,-96.44L388.05,-97.24L387.25,-90.62L380.64,-91.42L379.85,-84.81L340.17,-89.58L340.97,-96.20L334.36,-96.99L335.15,-103.60ZM419.77,-160.50L422.16,-180.33L435.39,-178.74L438.57,-205.19L458.41,-202.80L455.22,-176.35L481.67,-173.17L479.28,-153.33L452.83,-156.52L443.28,-77.17L423.45,-79.56L433.00,-158.91ZM488.33,-71.75L500.27,-170.93L520.11,-168.54L508.16,-69.36ZM501.86,-184.16L504.25,-203.99L524.09,-201.60L521.70,-181.77ZM532.22,-93.30L537.79,-139.58L544.40,-138.79L546.00,-152.01L552.61,-151.21L553.40,-157.83L566.63,-156.23L567.42,-162.85L593.87,-159.66L593.08,-153.05L599.69,-152.25L598.89,-145.64L605.51,-144.85L607.10,-158.07L626.93,-155.68L614.99,-56.50L595.16,-58.89L596.75,-72.11L590.14,-72.91L589.34,-66.29L582.73,-67.09L581.93,-60.48L555.48,-63.66L556.28,-70.28L543.06,-71.87L543.85,-78.48L537.24,-79.28L538.83,-92.50ZM552.06,-90.91L558.67,-90.11L557.87,-83.50L584.32,-80.32L585.12,-86.93L591.73,-86.13L592.53,-92.74L599.14,-91.95L603.12,-125.01L596.51,-125.81L597.30,-132.42L590.69,-133.21L591.49,-139.83L565.04,-143.01L564.24,-136.40L557.63,-137.19ZM636.48,-53.91L648.42,-153.10L668.26,-150.71L666.67,-137.48L673.28,-136.69L674.08,-143.30L680.69,-142.50L681.49,-149.12L701.32,-146.73L700.53,-140.11L713.75,-138.52L712.95,-131.91L719.57,-131.11L717.98,-117.89L724.59,-117.09L715.83,-44.36L695.99,-46.75L704.75,-119.48L698.14,-120.28L698.93,-126.89L679.10,-129.28L678.30,-122.67L671.69,-123.46L670.89,-116.85L664.28,-117.65L656.32,-51.52Z" fill="#ffffff" stroke="#000000"/>
    <path d="M-720.42,-235.53L-700.75,-365.86L-681.20,-362.91L-689.07,-310.78L-630.42,-301.93L-622.55,-354.06L-603.00,-351.11L-622.67,-220.78L-642.22,-223.73L-633.37,-282.38L-692.02,-291.23L-700.87,-232.58ZM-598.16,-243.74L-591.28,-289.36L-584.76,-288.37L-582.80,-301.41L-576.28,-300.42L-575.30,-306.94L-562.26,-304.97L-561.28,-311.49L-535.21,-307.56L-536.20,-301.04L-523.16,-299.07L-524.15,-292.56L-517.63,-291.57L-519.60,-278.54L-513.08,-277.56L-517.01,-251.49L-575.66,-260.34L-578.61,-240.79L-572.10,-239.81L-573.08,-233.29L-547.01,-229.36L-546.03,-235.87L-539.51,-234.89L-538.53,-241.41L-518.98,-238.46L-520.94,-225.42L-527.46,-226.41L-528.45,-219.89L-534.96,-220.87L-535.95,-214.35L-548.98,-216.32L-549.96,-209.80L-576.03,-213.74L-575.05,-220.25L-588.08,-222.22L-587.10,-228.74L-593.61,-229.72L-591.65,-242.76ZM-573.70,-273.37L-534.60,-267.47L-532.63,-280.51L-539.15,-281.49L-538.16,-288.01L-564.23,-291.94L-565.21,-285.42L-571.73,-286.41ZM-503.73,-202.83L-484.07,-333.17L-464.52,-330.22L-484.18,-199.88ZM-460.56,-196.31L-440.89,-326.65L-421.34,-323.70L-441.01,-193.36ZM-416.51,-216.33L-409.62,-261.95L-403.11,-260.96L-401.14,-274.00L-394.62,-273.01L-393.64,-279.53L-380.61,-277.56L-379.62,-284.08L-353.55,-280.15L-354.54,-273.63L-341.50,-271.66L-342.49,-265.15L-335.97,-264.16L-337.94,-251.13L-331.42,-250.15L-338.30,-204.53L-344.82,-205.51L-346.79,-192.48L-353.30,-193.46L-354.29,-186.94L-367.32,-188.91L-368.31,-182.39L-394.37,-186.33L-393.39,-192.84L-406.42,-194.81L-405.44,-201.33L-411.96,-202.31L-409.99,-215.34ZM-396.96,-213.38L-390.44,-212.39L-391.42,-205.88L-365.36,-201.94L-364.37,-208.46L-357.85,-207.48L-350.97,-253.10L-357.49,-254.08L-356.50,-260.60L-382.57,-264.53L-383.56,-258.01L-390.07,-259.00ZM-328.39,-176.37L-325.44,-195.92L-305.89,-192.97L-310.81,-160.39L-317.32,-161.37L-318.31,-154.85L-331.34,-156.82L-330.36,-163.34L-323.84,-162.35L-322.86,-168.87L-316.34,-167.89L-315.36,-174.40ZM-226.56,-161.01L-206.90,-291.34L-187.35,-288.39L-207.01,-158.06ZM-173.73,-253.01L-168.81,-285.60L-155.78,-283.63L-160.70,-251.05ZM-152.64,-149.85L-137.89,-247.60L-118.34,-244.65L-120.30,-231.62L-113.79,-230.64L-112.80,-237.15L-106.29,-236.17L-105.30,-242.69L-85.75,-239.74L-86.74,-233.22L-80.22,-232.24L-81.20,-225.72L-68.17,-223.75L-67.19,-230.27L-60.67,-229.29L-59.69,-235.80L-33.62,-231.87L-34.60,-225.35L-28.08,-224.37L-29.07,-217.85L-22.55,-216.87L-24.52,-203.84L-18.00,-202.85L-28.82,-131.17L-48.37,-134.12L-37.55,-205.80L-44.07,-206.79L-43.09,-213.30L-62.64,-216.25L-63.62,-209.74L-70.14,-210.72L-80.95,-139.03L-100.50,-141.98L-89.69,-213.67L-96.20,-214.65L-95.22,-221.17L-108.25,-223.14L-109.24,-216.62L-115.75,-217.60L-116.74,-211.09L-123.25,-212.07L-133.09,-146.90ZM51.62,-119.03L71.29,-249.37L90.84,-246.42L81.99,-187.77L88.51,-186.78L89.49,-193.30L96.01,-192.32L96.99,-198.83L103.51,-197.85L104.49,-204.37L111.01,-203.38L111.99,-209.90L118.51,-208.92L119.49,-215.43L126.01,-214.45L126.99,-220.97L133.51,-219.98L134.49,-226.50L141.01,-225.52L141.99,-232.03L148.51,-231.05L149.49,-237.57L175.56,-233.63L174.58,-227.12L168.06,-228.10L167.08,-221.58L160.56,-222.57L159.58,-216.05L153.06,-217.03L152.08,-210.52L145.56,-211.50L144.58,-204.98L138.06,-205.97L137.08,-199.45L130.56,-200.43L129.58,-193.92L123.06,-194.90L122.08,-188.38L115.56,-189.37L113.59,-176.33L120.11,-175.35L119.13,-168.83L125.64,-167.85L124.66,-161.33L131.18,-160.35L130.19,-153.83L136.71,-152.85L135.73,-146.33L142.24,-145.35L141.26,-138.83L147.78,-137.85L146.79,-131.33L153.31,-130.35L152.33,-123.83L158.84,-122.85L157.86,-116.33L164.38,-115.35L163.39,-108.83L169.91,-107.85L168.93,-101.33L142.86,-105.26L143.84,-111.78L137.33,-112.76L138.31,-119.28L131.79,-120.26L132.78,-126.78L126.26,-127.76L127.24,-134.28L120.73,-135.26L121.71,-141.78L115.19,-142.76L116.18,-149.28L109.66,-150.26L110.64,-156.78L104.13,-157.76L105.11,-164.28L98.59,-165.26L99.58,-171.78L93.06,-172.76L92.08,-166.25L85.56,-167.23L84.58,-160.71L78.06,-161.70L71.18,-116.08ZM189.50,-98.23L204.25,-195.98L223.80,-193.03L221.83,-179.99L228.35,-179.01L229.33,-185.53L235.85,-184.55L236.83,-191.06L262.90,-187.13L261.92,-180.61L268.43,-179.63L267.45,-173.11L273.97,-172.13L272.00,-159.09L265.48,-160.08L264.50,-153.56L257.98,-154.54L258.97,-161.06L252.45,-162.04L253.43,-168.56L233.88,-171.51L232.90,-164.99L226.38,-165.98L225.40,-159.46L218.88,-160.44L209.05,-95.28ZM278.70,-84.77L293.45,-182.52L313.00,-179.57L298.25,-81.82ZM295.41,-195.55L298.36,-215.10L317.91,-212.15L314.96,-192.60ZM322.00,-91.56L323.97,-104.60L330.49,-103.61L331.47,-110.13L337.99,-109.15L337.00,-102.63L343.52,-101.65L342.54,-95.13L349.05,-94.15L348.07,-87.63L361.11,-85.66L362.09,-92.18L368.61,-91.20L370.57,-104.23L364.06,-105.21L365.04,-111.73L358.52,-112.71L359.51,-119.23L346.47,-121.20L347.45,-127.71L340.94,-128.70L341.92,-135.21L335.40,-136.20L336.39,-142.71L329.87,-143.70L332.82,-163.25L339.34,-162.26L340.32,-168.78L346.84,-167.80L347.82,-174.31L386.92,-168.41L385.94,-161.90L392.46,-160.91L389.51,-141.36L376.47,-143.33L377.46,-149.85L370.94,-150.83L371.92,-157.35L358.89,-159.31L357.91,-152.80L351.39,-153.78L350.40,-147.26L356.92,-146.28L355.94,-139.76L362.46,-138.78L361.47,-132.26L374.51,-130.30L373.52,-123.78L380.04,-122.80L379.06,-116.28L385.57,-115.30L384.59,-108.78L391.11,-107.80L387.17,-81.73L380.66,-82.71L379.67,-76.20L373.16,-77.18L372.17,-70.66L333.07,-76.56L334.05,-83.08L327.54,-84.06L328.52,-90.58ZM413.91,-144.35L416.86,-163.90L429.89,-161.93L433.83,-188.00L453.38,-185.05L449.44,-158.98L475.51,-155.05L472.56,-135.50L446.49,-139.43L434.69,-61.23L415.14,-64.18L426.94,-142.38ZM479.09,-54.53L493.84,-152.28L513.39,-149.33L498.64,-51.58ZM495.81,-165.32L498.76,-184.87L518.31,-181.92L515.36,-162.37ZM523.14,-74.54L530.03,-120.16L536.54,-119.18L538.51,-132.21L545.03,-131.23L546.01,-137.74L559.04,-135.78L560.03,-142.29L586.09,-138.36L585.11,-131.84L591.63,-130.86L590.64,-124.34L597.16,-123.36L599.13,-136.39L618.68,-133.44L603.93,-35.69L584.38,-38.64L586.34,-51.68L579.83,-52.66L578.84,-46.14L572.33,-47.12L571.34,-40.61L545.28,-44.54L546.26,-51.06L533.23,-53.02L534.21,-59.54L527.69,-60.53L529.66,-73.56ZM542.69,-71.59L549.21,-70.61L548.23,-64.09L574.29,-60.16L575.28,-66.68L581.79,-65.69L582.78,-72.21L589.29,-71.23L594.21,-103.81L587.69,-104.79L588.68,-111.31L582.16,-112.29L583.14,-118.81L557.08,-122.74L556.09,-116.23L549.58,-117.21ZM625.11,-32.50L639.86,-130.25L659.41,-127.30L657.44,-114.26L663.96,-113.28L664.94,-119.80L671.46,-118.81L672.44,-125.33L691.99,-122.38L691.01,-115.86L704.04,-113.90L703.06,-107.38L709.58,-106.40L707.61,-93.36L714.13,-92.38L703.31,-20.70L683.76,-23.65L694.58,-95.33L688.06,-96.31L689.04,-102.83L669.49,-105.78L668.51,-99.26L661.99,-100.25L661.01,-93.73L654.49,-94.71L644.66,-29.55Z" fill="#ffffff" stroke="#000000"/>
    <path d="M-711.59,-252.52L-688.28,-380.85L-669.03,-377.35L-678.35,-326.02L-620.61,-315.53L-611.28,-366.86L-592.03,-363.36L-615.35,-235.04L-634.59,-238.54L-624.10,-296.28L-681.85,-306.77L-692.34,-249.03ZM-590.43,-257.02L-582.27,-301.94L-575.86,-300.77L-573.53,-313.60L-567.11,-312.44L-565.94,-318.85L-553.11,-316.52L-551.95,-322.94L-526.28,-318.28L-527.45,-311.86L-514.61,-309.53L-515.78,-303.11L-509.36,-301.95L-511.69,-289.12L-505.28,-287.95L-509.94,-262.28L-567.69,-272.78L-571.18,-253.53L-564.77,-252.36L-565.93,-245.95L-540.27,-241.28L-539.10,-247.70L-532.69,-246.53L-531.52,-252.95L-512.27,-249.45L-514.60,-236.62L-521.02,-237.79L-522.19,-231.37L-528.60,-232.53L-529.77,-226.12L-542.60,-228.45L-543.77,-222.03L-569.43,-226.70L-568.26,-233.11L-581.10,-235.44L-579.93,-241.86L-586.35,-243.03L-584.02,-255.86ZM-565.36,-285.61L-526.86,-278.61L-524.53,-291.45L-530.94,-292.61L-529.78,-299.03L-555.44,-303.69L-556.61,-297.27L-563.02,-298.44ZM-498.25,-213.76L-474.94,-342.09L-455.69,-338.59L-479.00,-210.27ZM-455.74,-206.04L-432.43,-334.37L-413.18,-330.87L-436.49,-202.55ZM-411.58,-224.53L-403.42,-269.44L-397.00,-268.28L-394.67,-281.11L-388.26,-279.95L-387.09,-286.36L-374.26,-284.03L-373.09,-290.45L-347.43,-285.78L-348.59,-279.37L-335.76,-277.04L-336.93,-270.62L-330.51,-269.45L-332.84,-256.62L-326.43,-255.46L-334.59,-210.54L-341.00,-211.71L-343.33,-198.88L-349.75,-200.04L-350.91,-193.63L-363.75,-195.96L-364.91,-189.54L-390.58,-194.20L-389.41,-200.62L-402.24,-202.95L-401.08,-209.37L-407.50,-210.53L-405.16,-223.37ZM-392.33,-221.03L-385.92,-219.87L-387.08,-213.45L-361.42,-208.79L-360.25,-215.21L-353.83,-214.04L-345.67,-258.95L-352.09,-260.12L-350.93,-266.54L-376.59,-271.20L-377.76,-264.78L-384.17,-265.95ZM-325.61,-182.40L-322.12,-201.65L-302.87,-198.15L-308.70,-166.07L-315.11,-167.24L-316.28,-160.82L-329.11,-163.15L-327.95,-169.57L-321.53,-168.40L-320.36,-174.82L-313.95,-173.65L-312.78,-180.07ZM-225.36,-164.19L-202.05,-292.51L-182.80,-289.01L-206.11,-160.69ZM-170.38,-253.62L-164.55,-285.70L-151.72,-283.37L-157.55,-251.29ZM-152.58,-150.96L-135.09,-247.21L-115.84,-243.71L-118.17,-230.88L-111.76,-229.71L-110.59,-236.13L-104.18,-234.96L-103.01,-241.38L-83.76,-237.88L-84.93,-231.47L-78.51,-230.30L-79.68,-223.88L-66.84,-221.55L-65.68,-227.97L-59.26,-226.80L-58.10,-233.22L-32.43,-228.56L-33.60,-222.14L-27.18,-220.97L-28.35,-214.56L-21.93,-213.39L-24.26,-200.56L-17.85,-199.39L-30.67,-128.82L-49.92,-132.31L-37.09,-202.89L-43.51,-204.06L-42.34,-210.47L-61.59,-213.97L-62.76,-207.55L-69.18,-208.72L-82.00,-138.14L-101.25,-141.64L-88.42,-212.22L-94.84,-213.38L-93.67,-219.80L-106.51,-222.13L-107.67,-215.71L-114.09,-216.88L-115.25,-210.46L-121.67,-211.63L-133.33,-147.47ZM48.53,-114.43L71.85,-242.75L91.09,-239.26L80.60,-181.51L87.02,-180.34L88.19,-186.76L94.60,-185.59L95.77,-192.01L102.18,-190.84L103.35,-197.26L109.77,-196.10L110.93,-202.51L117.35,-201.35L118.51,-207.76L124.93,-206.60L126.09,-213.01L132.51,-211.85L133.68,-218.26L140.09,-217.10L141.26,-223.51L147.67,-222.35L148.84,-228.76L174.51,-224.10L173.34,-217.69L166.92,-218.85L165.76,-212.43L159.34,-213.60L158.18,-207.18L151.76,-208.35L150.59,-201.93L144.18,-203.10L143.01,-196.68L136.60,-197.85L135.43,-191.43L129.01,-192.60L127.85,-186.18L121.43,-187.35L120.27,-180.93L113.85,-182.10L111.52,-169.26L117.93,-168.10L116.77,-161.68L123.19,-160.52L122.02,-154.10L128.44,-152.94L127.27,-146.52L133.69,-145.35L132.52,-138.94L138.94,-137.77L137.77,-131.36L144.19,-130.19L143.02,-123.77L149.44,-122.61L148.27,-116.19L154.69,-115.03L153.52,-108.61L159.94,-107.44L158.77,-101.03L165.19,-99.86L164.02,-93.45L138.36,-98.11L139.53,-104.52L133.11,-105.69L134.27,-112.11L127.86,-113.27L129.02,-119.69L122.61,-120.85L123.77,-127.27L117.36,-128.44L118.52,-134.85L112.11,-136.02L113.27,-142.43L106.86,-143.60L108.02,-150.02L101.61,-151.18L102.77,-157.60L96.35,-158.76L97.52,-165.18L91.10,-166.35L89.94,-159.93L83.52,-161.09L82.36,-154.68L75.94,-155.84L67.78,-110.93ZM184.28,-89.77L201.76,-186.01L221.01,-182.51L218.68,-169.68L225.09,-168.51L226.26,-174.93L232.68,-173.77L233.84,-180.18L259.51,-175.52L258.34,-169.10L264.76,-167.94L263.59,-161.52L270.01,-160.36L267.68,-147.52L261.26,-148.69L260.09,-142.27L253.68,-143.44L254.84,-149.85L248.43,-151.02L249.59,-157.44L230.34,-160.93L229.18,-154.52L222.76,-155.68L221.60,-149.27L215.18,-150.43L203.52,-86.27ZM272.10,-73.81L289.58,-170.05L308.83,-166.56L291.35,-70.31ZM291.91,-182.89L295.41,-202.14L314.66,-198.64L311.16,-179.39ZM315.13,-79.25L317.46,-92.08L323.88,-90.92L325.04,-97.33L331.46,-96.17L330.30,-89.75L336.71,-88.58L335.55,-82.17L341.96,-81.00L340.80,-74.59L353.63,-72.26L354.79,-78.67L361.21,-77.51L363.54,-90.34L357.13,-91.50L358.29,-97.92L351.88,-99.09L353.04,-105.50L340.21,-107.83L341.37,-114.25L334.96,-115.42L336.12,-121.83L329.71,-123.00L330.87,-129.41L324.46,-130.58L327.95,-149.83L334.37,-148.66L335.54,-155.08L341.95,-153.91L343.12,-160.33L381.62,-153.33L380.45,-146.92L386.87,-145.75L383.37,-126.50L370.54,-128.84L371.70,-135.25L365.29,-136.42L366.45,-142.83L353.62,-145.16L352.45,-138.75L346.04,-139.91L344.87,-133.50L351.29,-132.33L350.12,-125.92L356.54,-124.75L355.37,-118.33L368.21,-116.00L367.04,-109.59L373.46,-108.42L372.29,-102.00L378.71,-100.84L377.54,-94.42L383.96,-93.26L379.29,-67.59L372.88,-68.76L371.71,-62.34L365.30,-63.51L364.13,-57.09L325.63,-64.09L326.80,-70.50L320.38,-71.67L321.55,-78.08ZM407.59,-128.73L411.09,-147.98L423.92,-145.65L428.58,-171.31L447.83,-167.82L443.17,-142.15L468.84,-137.49L465.34,-118.24L439.67,-122.90L425.69,-45.91L406.44,-49.41L420.43,-126.40ZM469.40,-37.97L486.88,-134.21L506.13,-130.71L488.65,-34.47ZM489.21,-147.04L492.71,-166.29L511.96,-162.79L508.46,-143.55ZM513.56,-56.46L521.72,-101.37L528.13,-100.20L530.47,-113.04L536.88,-111.87L538.05,-118.29L550.88,-115.96L552.05,-122.37L577.71,-117.71L576.55,-111.29L582.96,-110.13L581.80,-103.71L588.21,-102.55L590.54,-115.38L609.79,-111.88L592.31,-15.64L573.06,-19.13L575.39,-31.97L568.97,-33.13L567.81,-26.72L561.39,-27.88L560.23,-21.47L534.56,-26.13L535.73,-32.54L522.89,-34.88L524.06,-41.29L517.64,-42.46L519.98,-55.29ZM532.81,-52.96L539.22,-51.79L538.06,-45.38L563.72,-40.71L564.89,-47.13L571.30,-45.96L572.47,-52.38L578.89,-51.22L584.72,-83.30L578.30,-84.46L579.46,-90.88L573.05,-92.04L574.21,-98.46L548.55,-103.12L547.38,-96.71L540.97,-97.87ZM613.16,-11.85L630.64,-108.09L649.89,-104.60L647.56,-91.76L653.98,-90.60L655.14,-97.01L661.56,-95.85L662.73,-102.26L681.97,-98.77L680.81,-92.35L693.64,-90.02L692.48,-83.60L698.89,-82.44L696.56,-69.60L702.98,-68.44L690.15,2.14L670.91,-1.36L683.73,-71.94L677.31,-73.10L678.48,-79.52L659.23,-83.02L658.06,-76.60L651.65,-77.76L650.48,-71.35L644.07,-72.51L632.41,-8.35Z" fill="#ffffff" stroke="#000000"/>
    <path d="M-702.26,-269.24L-675.40,-395.45L-656.47,-391.42L-667.21,-340.94L-610.42,-328.85L-599.68,-379.34L-580.74,-375.31L-607.60,-249.10L-626.53,-253.13L-614.45,-309.92L-671.24,-322.01L-683.33,-265.21ZM-582.31,-270.10L-572.91,-314.28L-566.60,-312.93L-563.92,-325.55L-557.61,-324.21L-556.26,-330.52L-543.64,-327.84L-542.30,-334.15L-517.06,-328.78L-518.40,-322.47L-505.78,-319.78L-507.12,-313.47L-500.81,-312.13L-503.50,-299.50L-497.19,-298.16L-502.56,-272.92L-559.35,-285.01L-563.38,-266.07L-557.07,-264.73L-558.41,-258.42L-533.17,-253.05L-531.83,-259.36L-525.52,-258.02L-524.17,-264.33L-505.24,-260.30L-507.93,-247.68L-514.24,-249.02L-515.58,-242.71L-521.89,-244.05L-523.24,-237.74L-535.86,-240.43L-537.20,-234.12L-562.44,-239.49L-561.10,-245.80L-573.72,-248.48L-572.38,-254.80L-578.69,-256.14L-576.00,-268.76ZM-556.67,-297.63L-518.80,-289.57L-516.12,-302.19L-522.43,-303.53L-521.08,-309.84L-546.33,-315.22L-547.67,-308.90L-553.98,-310.25ZM-492.43,-224.59L-465.58,-350.80L-446.64,-346.77L-473.50,-220.56ZM-450.63,-215.69L-423.77,-341.91L-404.84,-337.88L-431.69,-211.67ZM-406.40,-232.67L-397.00,-276.84L-390.69,-275.50L-388.01,-288.12L-381.70,-286.78L-380.36,-293.09L-367.73,-290.40L-366.39,-296.71L-341.15,-291.34L-342.49,-285.03L-329.87,-282.35L-331.21,-276.04L-324.90,-274.69L-327.59,-262.07L-321.28,-260.73L-330.68,-216.56L-336.99,-217.90L-339.67,-205.28L-345.98,-206.62L-347.33,-200.31L-359.95,-203.00L-361.29,-196.68L-386.53,-202.06L-385.19,-208.37L-397.81,-211.05L-396.47,-217.36L-402.78,-218.71L-400.09,-231.33ZM-387.47,-228.64L-381.16,-227.30L-382.51,-220.99L-357.26,-215.62L-355.92,-221.93L-349.61,-220.58L-340.21,-264.76L-346.52,-266.10L-345.18,-272.41L-370.42,-277.78L-371.76,-271.47L-378.07,-272.82ZM-322.64,-188.46L-318.61,-207.39L-299.68,-203.36L-306.39,-171.81L-312.70,-173.15L-314.05,-166.84L-326.67,-169.53L-325.33,-175.84L-319.01,-174.50L-317.67,-180.81L-311.36,-179.46L-310.02,-185.77ZM-224.04,-167.48L-197.18,-293.69L-178.25,-289.66L-205.10,-163.45ZM-167.02,-254.29L-160.30,-285.84L-147.68,-283.16L-154.39,-251.60ZM-152.45,-152.24L-132.31,-246.90L-113.38,-242.87L-116.06,-230.25L-109.75,-228.91L-108.41,-235.22L-102.10,-233.88L-100.76,-240.19L-81.82,-236.16L-83.17,-229.85L-76.86,-228.51L-78.20,-222.20L-65.58,-219.51L-64.23,-225.82L-57.92,-224.48L-56.58,-230.79L-31.34,-225.42L-32.68,-219.11L-26.37,-217.76L-27.71,-211.45L-21.40,-210.11L-24.09,-197.49L-17.78,-196.15L-32.55,-126.73L-51.48,-130.76L-36.71,-200.18L-43.02,-201.52L-41.68,-207.83L-60.61,-211.86L-61.95,-205.55L-68.26,-206.89L-83.03,-137.47L-101.97,-141.50L-87.19,-210.92L-93.51,-212.26L-92.16,-218.57L-104.78,-221.26L-106.13,-214.95L-112.44,-216.29L-113.78,-209.98L-120.09,-211.32L-133.52,-148.22ZM45.35,-110.15L72.20,-236.37L91.14,-232.34L79.05,-175.54L85.36,-174.20L86.70,-180.51L93.01,-179.17L94.36,-185.48L100.67,-184.13L102.01,-190.45L108.32,-189.10L109.66,-195.41L115.97,-194.07L117.32,-200.38L123.63,-199.04L124.97,-205.35L131.28,-204.01L132.62,-210.32L138.93,-208.97L140.28,-215.28L146.59,-213.94L147.93,-220.25L173.17,-214.88L171.83,-208.57L165.52,-209.91L164.18,-203.60L157.87,-204.94L156.52,-198.63L150.21,-199.98L148.87,-193.67L142.56,-195.01L141.22,-188.70L134.91,-190.04L133.56,-183.73L127.25,-185.07L125.91,-178.76L119.60,-180.11L118.26,-173.80L111.95,-175.14L109.26,-162.52L115.57,-161.17L114.23,-154.86L120.54,-153.52L119.20,-147.21L125.51,-145.87L124.16,-139.56L130.47,-138.21L129.13,-131.90L135.44,-130.56L134.10,-124.25L140.41,-122.91L139.07,-116.60L145.38,-115.25L144.03,-108.94L150.34,-107.60L149.00,-101.29L155.31,-99.95L153.97,-93.64L160.28,-92.29L158.94,-85.98L133.69,-91.35L135.04,-97.66L128.73,-99.01L130.07,-105.32L123.76,-106.66L125.10,-112.97L118.79,-114.31L120.13,-120.63L113.82,-121.97L115.17,-128.28L108.86,-129.62L110.20,-135.93L103.89,-137.27L105.23,-143.59L98.92,-144.93L100.26,-151.24L93.95,-152.58L95.30,-158.89L88.98,-160.24L87.64,-153.92L81.33,-155.27L79.99,-148.96L73.68,-150.30L64.28,-106.13ZM178.85,-81.74L199.00,-176.40L217.93,-172.37L215.24,-159.75L221.55,-158.41L222.90,-164.72L229.21,-163.38L230.55,-169.69L255.79,-164.32L254.45,-158.01L260.76,-156.66L259.42,-150.35L265.73,-149.01L263.04,-136.39L256.73,-137.73L255.39,-131.42L249.08,-132.76L250.42,-139.07L244.11,-140.42L245.45,-146.73L226.52,-150.76L225.18,-144.45L218.87,-145.79L217.53,-139.48L211.21,-140.82L197.79,-77.72ZM265.23,-63.36L285.37,-158.02L304.31,-153.99L284.16,-59.34ZM288.06,-170.64L292.09,-189.58L311.02,-185.55L306.99,-166.62ZM307.95,-67.47L310.63,-80.09L316.95,-78.74L318.29,-85.06L324.60,-83.71L323.26,-77.40L329.57,-76.06L328.22,-69.75L334.53,-68.41L333.19,-62.09L345.81,-59.41L347.16,-65.72L353.47,-64.38L356.15,-77.00L349.84,-78.34L351.18,-84.65L344.87,-85.99L346.22,-92.30L333.60,-94.99L334.94,-101.30L328.63,-102.64L329.97,-108.95L323.66,-110.30L325.00,-116.61L318.69,-117.95L322.72,-136.88L329.03,-135.54L330.37,-141.85L336.68,-140.51L338.03,-146.82L375.89,-138.76L374.55,-132.45L380.86,-131.11L376.83,-112.18L364.21,-114.86L365.55,-121.17L359.24,-122.51L360.58,-128.83L347.96,-131.51L346.62,-125.20L340.31,-126.54L338.97,-120.23L345.28,-118.89L343.93,-112.58L350.24,-111.24L348.90,-104.93L361.52,-102.24L360.18,-95.93L366.49,-94.59L365.15,-88.28L371.46,-86.93L370.12,-80.62L376.43,-79.28L371.05,-54.04L364.74,-55.38L363.40,-49.07L357.09,-50.41L355.75,-44.10L317.88,-52.16L319.23,-58.47L312.92,-59.81L314.26,-66.12ZM400.85,-113.66L404.88,-132.59L417.50,-129.91L422.87,-155.15L441.80,-151.12L436.43,-125.88L461.68,-120.51L457.65,-101.57L432.40,-106.95L416.29,-31.22L397.36,-35.25L413.47,-110.97ZM459.28,-22.07L479.42,-116.73L498.36,-112.70L478.21,-18.04ZM482.11,-129.35L486.14,-148.28L505.07,-144.25L501.04,-125.32ZM503.50,-39.05L512.90,-83.22L519.21,-81.88L521.90,-94.50L528.21,-93.16L529.55,-99.47L542.17,-96.78L543.52,-103.09L568.76,-97.72L567.42,-91.41L573.73,-90.07L572.38,-83.76L578.69,-82.41L581.38,-95.03L600.31,-91.01L580.17,3.65L561.24,-0.38L563.92,-13.00L557.61,-14.34L556.27,-8.03L549.96,-9.37L548.62,-3.06L523.37,-8.43L524.72,-14.74L512.09,-17.43L513.44,-23.74L507.13,-25.08L509.81,-37.70ZM522.43,-35.02L528.74,-33.67L527.40,-27.36L552.64,-21.99L553.99,-28.30L560.30,-26.96L561.64,-33.27L567.95,-31.93L574.66,-63.48L568.35,-64.82L569.70,-71.13L563.39,-72.48L564.73,-78.79L539.49,-84.16L538.14,-77.85L531.83,-79.19ZM600.68,8.02L620.82,-86.64L639.75,-82.61L637.07,-69.99L643.38,-68.65L644.72,-74.96L651.03,-73.62L652.37,-79.93L671.30,-75.90L669.96,-69.59L682.58,-66.90L681.24,-60.59L687.55,-59.25L684.87,-46.63L691.18,-45.28L676.40,24.13L657.47,20.10L672.24,-49.31L665.93,-50.66L667.28,-56.97L648.34,-61.00L647.00,-54.68L640.69,-56.03L639.35,-49.72L633.04,-51.06L619.61,12.05Z" fill="#ffffff" stroke="#000000"/>
    <path d="M-692.44,-285.66L-662.14,-409.66L-643.54,-405.12L-655.66,-355.52L-599.86,-341.89L-587.74,-391.49L-569.14,-386.94L-599.44,-262.94L-618.04,-267.48L-604.40,-323.28L-660.20,-336.92L-673.84,-281.12ZM-573.81,-282.96L-563.20,-326.36L-557.00,-324.84L-553.97,-337.25L-547.77,-335.73L-546.26,-341.93L-533.86,-338.90L-532.34,-345.10L-507.54,-339.04L-509.06,-332.84L-496.66,-329.81L-498.17,-323.61L-491.97,-322.10L-495.00,-309.70L-488.80,-308.18L-494.86,-283.38L-550.66,-297.01L-555.21,-278.41L-549.01,-276.90L-550.52,-270.70L-525.72,-264.64L-524.21,-270.84L-518.01,-269.33L-516.49,-275.53L-497.89,-270.98L-500.92,-258.58L-507.12,-260.10L-508.64,-253.90L-514.84,-255.41L-516.35,-249.21L-528.75,-252.24L-530.27,-246.04L-555.07,-252.10L-553.55,-258.30L-565.95,-261.33L-564.44,-267.53L-570.64,-269.04L-567.61,-281.44ZM-547.63,-309.41L-510.43,-300.33L-507.40,-312.73L-513.60,-314.24L-512.09,-320.44L-536.89,-326.50L-538.40,-320.30L-544.60,-321.82ZM-486.28,-235.29L-455.99,-359.30L-437.39,-354.75L-467.68,-230.75ZM-445.21,-225.26L-414.91,-349.26L-396.31,-344.72L-426.61,-220.71ZM-400.98,-240.73L-390.38,-284.14L-384.18,-282.62L-381.15,-295.02L-374.95,-293.51L-373.43,-299.71L-361.03,-296.68L-359.52,-302.88L-334.72,-296.82L-336.23,-290.62L-323.83,-287.59L-325.34,-281.39L-319.14,-279.87L-322.17,-267.47L-315.97,-265.96L-326.58,-222.56L-332.78,-224.07L-335.81,-211.67L-342.01,-213.19L-343.52,-206.99L-355.92,-210.02L-357.44,-203.82L-382.24,-209.87L-380.72,-216.07L-393.12,-219.10L-391.61,-225.30L-397.81,-226.82L-394.78,-239.22ZM-382.38,-236.19L-376.18,-234.67L-377.69,-228.47L-352.89,-222.42L-351.38,-228.62L-345.18,-227.10L-334.57,-270.50L-340.77,-272.02L-339.26,-278.22L-364.06,-284.28L-365.57,-278.08L-371.77,-279.59ZM-319.46,-194.54L-314.92,-213.14L-296.32,-208.59L-303.89,-177.59L-310.09,-179.11L-311.61,-172.91L-324.01,-175.94L-322.49,-182.14L-316.29,-180.62L-314.78,-186.82L-308.58,-185.31L-307.06,-191.51ZM-222.58,-170.87L-192.29,-294.87L-173.69,-290.33L-203.98,-166.32ZM-163.63,-255.02L-156.06,-286.02L-143.66,-282.99L-151.23,-251.99ZM-152.25,-153.69L-129.53,-246.69L-110.93,-242.14L-113.96,-229.74L-107.76,-228.23L-106.24,-234.43L-100.04,-232.91L-98.53,-239.11L-79.93,-234.57L-81.44,-228.37L-75.24,-226.85L-76.76,-220.65L-64.36,-217.62L-62.84,-223.82L-56.64,-222.31L-55.13,-228.51L-30.33,-222.45L-31.84,-216.25L-25.64,-214.74L-27.16,-208.54L-20.96,-207.02L-23.99,-194.62L-17.79,-193.11L-34.45,-124.90L-53.05,-129.45L-36.39,-197.65L-42.59,-199.17L-41.07,-205.37L-59.67,-209.91L-61.19,-203.71L-67.39,-205.22L-84.05,-137.02L-102.65,-141.57L-85.99,-209.77L-92.19,-211.28L-90.67,-217.48L-103.07,-220.51L-104.59,-214.31L-110.79,-215.83L-112.30,-209.63L-118.50,-211.14L-133.65,-149.14ZM42.08,-106.21L72.38,-230.21L90.98,-225.66L77.35,-169.86L83.55,-168.35L85.06,-174.55L91.26,-173.03L92.78,-179.23L98.98,-177.72L100.49,-183.92L106.69,-182.40L108.21,-188.60L114.41,-187.09L115.92,-193.29L122.12,-191.78L123.64,-197.98L129.84,-196.46L131.35,-202.66L137.55,-201.15L139.07,-207.35L145.27,-205.83L146.78,-212.03L171.58,-205.97L170.07,-199.77L163.87,-201.29L162.35,-195.09L156.15,-196.60L154.64,-190.40L148.44,-191.92L146.92,-185.72L140.72,-187.23L139.21,-181.03L133.01,-182.55L131.49,-176.35L125.29,-177.86L123.78,-171.66L117.58,-173.18L116.06,-166.98L109.86,-168.49L106.83,-156.09L113.03,-154.57L111.52,-148.37L117.72,-146.86L116.20,-140.66L122.40,-139.14L120.89,-132.94L127.09,-131.43L125.58,-125.23L131.78,-123.72L130.26,-117.51L136.46,-116.00L134.95,-109.80L141.15,-108.29L139.63,-102.09L145.83,-100.57L144.32,-94.37L150.52,-92.86L149.00,-86.66L155.20,-85.14L153.69,-78.94L128.89,-85.00L130.40,-91.20L124.20,-92.71L125.72,-98.91L119.52,-100.43L121.03,-106.63L114.83,-108.14L116.35,-114.34L110.15,-115.86L111.66,-122.06L105.46,-123.57L106.97,-129.77L100.77,-131.29L102.29,-137.49L96.09,-139.00L97.60,-145.20L91.40,-146.72L92.92,-152.92L86.72,-154.43L85.20,-148.23L79.00,-149.75L77.49,-143.55L71.29,-145.06L60.69,-101.66ZM173.26,-74.16L195.98,-167.16L214.58,-162.62L211.55,-150.22L217.75,-148.70L219.26,-154.90L225.46,-153.39L226.98,-159.59L251.78,-153.53L250.26,-147.33L256.46,-145.81L254.95,-139.61L261.15,-138.10L258.12,-125.70L251.92,-127.21L250.41,-121.01L244.21,-122.53L245.72,-128.73L239.52,-130.24L241.03,-136.44L222.43,-140.99L220.92,-134.79L214.72,-136.30L213.20,-130.10L207.00,-131.62L191.86,-69.61ZM258.12,-53.43L280.84,-146.43L299.44,-141.88L276.72,-48.88ZM283.87,-158.83L288.42,-177.43L307.02,-172.88L302.47,-154.28ZM300.48,-56.22L303.51,-68.62L309.71,-67.10L311.23,-73.30L317.43,-71.79L315.91,-65.59L322.11,-64.07L320.60,-57.87L326.80,-56.36L325.28,-50.16L337.68,-47.13L339.20,-53.33L345.40,-51.81L348.43,-64.21L342.23,-65.73L343.74,-71.93L337.54,-73.44L339.06,-79.64L326.66,-82.67L328.17,-88.87L321.97,-90.39L323.49,-96.59L317.29,-98.10L318.80,-104.30L312.60,-105.82L317.15,-124.42L323.35,-122.90L324.86,-129.10L331.06,-127.59L332.58,-133.79L369.78,-124.70L368.26,-118.50L374.46,-116.99L369.92,-98.38L357.52,-101.41L359.03,-107.61L352.83,-109.13L354.35,-115.33L341.95,-118.36L340.43,-112.16L334.23,-113.67L332.72,-107.47L338.92,-105.96L337.40,-99.76L343.60,-98.24L342.09,-92.04L354.49,-89.01L352.97,-82.81L359.17,-81.30L357.66,-75.10L363.86,-73.58L362.34,-67.38L368.54,-65.87L362.48,-41.07L356.28,-42.58L354.77,-36.38L348.57,-37.90L347.05,-31.70L309.85,-40.79L311.37,-46.99L305.17,-48.50L306.68,-54.70ZM393.71,-99.14L398.26,-117.74L410.66,-114.71L416.72,-139.51L435.32,-134.97L429.26,-110.17L454.06,-104.11L449.51,-85.51L424.71,-91.57L406.54,-17.17L387.94,-21.71L406.11,-96.11ZM448.78,-6.85L471.50,-99.85L490.10,-95.30L467.38,-2.30ZM474.53,-112.25L479.07,-130.85L497.67,-126.30L493.13,-107.70ZM493.00,-22.32L503.61,-65.72L509.81,-64.21L512.84,-76.61L519.04,-75.09L520.55,-81.29L532.95,-78.26L534.47,-84.46L559.27,-78.40L557.75,-72.20L563.95,-70.69L562.44,-64.49L568.64,-62.97L571.67,-75.37L590.27,-70.83L567.55,22.17L548.95,17.63L551.98,5.23L545.78,3.71L544.26,9.91L538.06,8.40L536.55,14.60L511.75,8.54L513.26,2.34L500.86,-0.69L502.37,-6.89L496.17,-8.41L499.20,-20.81ZM511.60,-17.78L517.80,-16.26L516.29,-10.06L541.09,-4.00L542.61,-10.20L548.81,-8.69L550.32,-14.89L556.52,-13.37L564.09,-44.37L557.89,-45.89L559.41,-52.09L553.21,-53.60L554.72,-59.80L529.92,-65.86L528.41,-59.66L522.21,-61.18ZM587.70,27.09L610.42,-65.91L629.02,-61.36L625.99,-48.96L632.19,-47.45L633.70,-53.65L639.90,-52.13L641.42,-58.33L660.02,-53.79L658.51,-47.59L670.91,-44.56L669.39,-38.36L675.59,-36.84L672.56,-24.44L678.76,-22.93L662.10,45.27L643.50,40.73L660.16,-27.47L653.96,-28.99L655.48,-35.19L636.88,-39.73L635.36,-33.53L629.16,-35.05L627.65,-28.85L621.45,-30.36L606.30,31.64Z" fill="#ffffff" stroke="#000000"/>
    <path d="M-682.13,-301.76L-648.51,-423.47L-630.25,-418.42L-643.70,-369.74L-588.94,-354.61L-575.48,-403.29L-557.23,-398.25L-590.86,-276.54L-609.11,-281.59L-593.98,-336.35L-648.75,-351.49L-663.88,-296.72ZM-564.92,-295.58L-553.15,-338.17L-547.07,-336.49L-543.71,-348.66L-537.62,-346.98L-535.94,-353.07L-523.77,-349.70L-522.09,-355.79L-497.75,-349.06L-499.43,-342.98L-487.26,-339.62L-488.94,-333.53L-482.86,-331.85L-486.22,-319.68L-480.13,-318.00L-486.86,-293.66L-541.62,-308.79L-546.67,-290.53L-540.58,-288.85L-542.26,-282.77L-517.92,-276.04L-516.24,-282.13L-510.16,-280.45L-508.48,-286.53L-490.22,-281.49L-493.58,-269.32L-499.67,-271.00L-501.35,-264.91L-507.44,-266.59L-509.12,-260.51L-521.29,-263.87L-522.97,-257.79L-547.31,-264.51L-545.63,-270.60L-557.80,-273.96L-556.12,-280.04L-562.20,-281.73L-558.84,-293.90ZM-538.26,-320.96L-501.75,-310.87L-498.39,-323.04L-504.47,-324.72L-502.79,-330.81L-527.13,-337.53L-528.81,-331.45L-534.90,-333.13ZM-479.80,-245.86L-446.18,-367.56L-427.92,-362.52L-461.55,-240.82ZM-439.49,-234.72L-405.86,-356.42L-387.61,-351.38L-421.23,-229.68ZM-395.30,-248.71L-383.53,-291.31L-377.45,-289.63L-374.08,-301.80L-368.00,-300.11L-366.32,-306.20L-354.15,-302.84L-352.47,-308.92L-328.13,-302.20L-329.81,-296.11L-317.64,-292.75L-319.32,-286.66L-313.23,-284.98L-316.60,-272.81L-310.51,-271.13L-322.28,-228.54L-328.36,-230.22L-331.73,-218.05L-337.81,-219.73L-339.49,-213.64L-351.66,-217.01L-353.35,-210.92L-377.69,-217.65L-376.00,-223.73L-388.17,-227.09L-386.49,-233.18L-392.58,-234.86L-389.22,-247.03ZM-377.05,-243.67L-370.96,-241.99L-372.64,-235.90L-348.30,-229.18L-346.62,-235.26L-340.53,-233.58L-328.77,-276.18L-334.85,-277.86L-333.17,-283.94L-357.51,-290.67L-359.19,-284.58L-365.28,-286.26ZM-316.07,-200.62L-311.03,-218.88L-292.77,-213.83L-301.18,-183.41L-307.27,-185.09L-308.95,-179.00L-321.12,-182.37L-319.44,-188.45L-313.35,-186.77L-311.67,-192.86L-305.59,-191.17L-303.90,-197.26ZM-220.99,-174.35L-187.37,-296.05L-169.11,-291.01L-202.74,-169.31ZM-160.21,-255.80L-151.81,-286.23L-139.64,-282.87L-148.04,-252.44ZM-151.97,-155.28L-126.75,-246.56L-108.49,-241.51L-111.85,-229.34L-105.77,-227.66L-104.09,-233.75L-98.00,-232.06L-96.32,-238.15L-78.07,-233.11L-79.75,-227.02L-73.66,-225.34L-75.34,-219.25L-63.17,-215.89L-61.49,-221.98L-55.41,-220.30L-53.72,-226.38L-29.38,-219.66L-31.07,-213.57L-24.98,-211.89L-26.66,-205.80L-20.58,-204.12L-23.94,-191.95L-17.85,-190.27L-36.35,-123.33L-54.60,-128.38L-36.11,-195.31L-42.19,-197.00L-40.51,-203.08L-58.77,-208.13L-60.45,-202.04L-66.53,-203.72L-85.03,-136.79L-103.28,-141.83L-84.79,-208.77L-90.88,-210.45L-89.19,-216.53L-101.36,-219.89L-103.05,-213.81L-109.13,-215.49L-110.81,-209.41L-116.90,-211.09L-133.71,-150.24ZM38.76,-102.58L72.39,-224.28L90.65,-219.24L75.51,-164.47L81.60,-162.79L83.28,-168.88L89.37,-167.20L91.05,-173.28L97.13,-171.60L98.81,-177.68L104.90,-176.00L106.58,-182.09L112.67,-180.41L114.35,-186.49L120.43,-184.81L122.11,-190.90L128.20,-189.21L129.88,-195.30L135.96,-193.62L137.65,-199.70L143.73,-198.02L145.41,-204.11L169.75,-197.38L168.07,-191.30L161.99,-192.98L160.31,-186.89L154.22,-188.57L152.54,-182.49L146.45,-184.17L144.77,-178.09L138.69,-179.77L137.01,-173.68L130.92,-175.36L129.24,-169.28L123.15,-170.96L121.47,-164.87L115.39,-166.56L113.71,-160.47L107.62,-162.15L104.26,-149.98L110.34,-148.30L108.66,-142.22L114.75,-140.53L113.07,-134.45L119.15,-132.77L117.47,-126.68L123.56,-125.00L121.87,-118.92L127.96,-117.23L126.28,-111.15L132.36,-109.47L130.68,-103.38L136.77,-101.70L135.09,-95.62L141.17,-93.94L139.49,-87.85L145.57,-86.17L143.89,-80.08L149.98,-78.40L148.30,-72.32L123.96,-79.04L125.64,-85.13L119.55,-86.81L121.23,-92.89L115.15,-94.58L116.83,-100.66L110.75,-102.34L112.43,-108.43L106.34,-110.11L108.02,-116.19L101.94,-117.87L103.62,-123.96L97.53,-125.64L99.22,-131.73L93.13,-133.41L94.81,-139.49L88.73,-141.17L90.41,-147.26L84.32,-148.94L82.64,-142.86L76.56,-144.54L74.87,-138.45L68.79,-140.13L57.02,-97.54ZM167.50,-67.01L192.72,-158.29L210.98,-153.24L207.62,-141.07L213.70,-139.39L215.38,-145.48L221.47,-143.80L223.15,-149.88L247.49,-143.16L245.81,-137.07L251.89,-135.39L250.21,-129.30L256.30,-127.62L252.93,-115.45L246.85,-117.13L245.17,-111.05L239.08,-112.73L240.76,-118.82L234.68,-120.50L236.36,-126.58L218.10,-131.63L216.42,-125.54L210.34,-127.22L208.66,-121.14L202.57,-122.82L185.76,-61.97ZM250.79,-44.00L276.01,-135.27L294.27,-130.23L269.05,-38.95ZM279.38,-147.44L284.42,-165.70L302.68,-160.66L297.63,-142.40ZM292.76,-45.50L296.12,-57.67L302.21,-55.99L303.89,-62.08L309.97,-60.39L308.29,-54.31L314.38,-52.63L312.70,-46.54L318.78,-44.86L317.10,-38.78L329.27,-35.41L330.95,-41.50L337.04,-39.82L340.40,-51.99L334.31,-53.67L335.99,-59.75L329.91,-61.44L331.59,-67.52L319.42,-70.88L321.10,-76.97L315.02,-78.65L316.70,-84.74L310.61,-86.42L312.29,-92.50L306.21,-94.18L311.25,-112.44L317.34,-110.76L319.02,-116.84L325.10,-115.16L326.79,-121.25L363.30,-111.16L361.62,-105.07L367.70,-103.39L362.66,-85.14L350.49,-88.50L352.17,-94.58L346.08,-96.27L347.76,-102.35L335.59,-105.71L333.91,-99.63L327.83,-101.31L326.15,-95.22L332.23,-93.54L330.55,-87.46L336.63,-85.78L334.95,-79.69L347.12,-76.33L345.44,-70.24L351.53,-68.56L349.85,-62.48L355.93,-60.80L354.25,-54.71L360.34,-53.03L353.61,-28.69L347.52,-30.37L345.84,-24.29L339.76,-25.97L338.08,-19.88L301.57,-29.97L303.25,-36.05L297.16,-37.74L298.84,-43.82ZM386.21,-85.18L391.25,-103.43L403.42,-100.07L410.15,-124.41L428.40,-119.37L421.68,-95.03L446.02,-88.30L440.97,-70.05L416.63,-76.77L396.46,-3.75L378.20,-8.80L398.38,-81.82ZM437.91,7.70L463.13,-83.57L481.39,-78.53L456.17,12.75ZM466.49,-95.74L471.54,-114.00L489.79,-108.96L484.75,-90.70ZM482.10,-6.29L493.87,-48.88L499.95,-47.20L503.31,-59.37L509.40,-57.69L511.08,-63.78L523.25,-60.41L524.93,-66.50L549.27,-59.77L547.59,-53.69L553.68,-52.01L552.00,-45.92L558.08,-44.24L561.44,-56.41L579.70,-51.37L554.48,39.91L536.22,34.87L539.59,22.70L533.50,21.01L531.82,27.10L525.73,25.42L524.05,31.50L499.71,24.78L501.39,18.69L489.22,15.33L490.91,9.25L484.82,7.56L488.18,-4.61ZM500.35,-1.24L506.44,0.44L504.76,6.52L529.10,13.25L530.78,7.16L536.86,8.84L538.55,2.76L544.63,4.44L553.04,-25.99L546.95,-27.67L548.63,-33.75L542.55,-35.43L544.23,-41.52L519.89,-48.24L518.21,-42.16L512.12,-43.84ZM574.26,45.37L599.48,-45.90L617.73,-40.86L614.37,-28.69L620.45,-27.01L622.13,-33.09L628.22,-31.41L629.90,-37.50L648.16,-32.45L646.48,-26.37L658.65,-23.00L656.96,-16.92L663.05,-15.24L659.69,-3.07L665.77,-1.39L647.28,65.55L629.02,60.51L647.52,-6.43L641.43,-8.11L643.11,-14.20L624.86,-19.24L623.18,-13.16L617.09,-14.84L615.41,-8.75L609.32,-10.43L592.51,50.42Z" fill="#ffffff" stroke="#000000"/>
    <path d="M-671.35,-317.53L-634.51,-436.85L-616.61,-431.32L-631.35,-383.59L-577.66,-367.01L-562.92,-414.74L-545.02,-409.21L-581.87,-289.90L-599.76,-295.42L-583.18,-349.12L-636.87,-365.70L-653.45,-312.00ZM-555.67,-307.94L-542.77,-349.70L-536.80,-347.86L-533.12,-359.79L-527.15,-357.95L-525.31,-363.92L-513.38,-360.23L-511.54,-366.20L-487.68,-358.83L-489.52,-352.86L-477.59,-349.18L-479.43,-343.21L-473.46,-341.37L-477.15,-329.44L-471.18,-327.60L-478.55,-303.73L-532.24,-320.31L-537.77,-302.42L-531.80,-300.58L-533.65,-294.61L-509.78,-287.24L-507.94,-293.21L-501.98,-291.36L-500.13,-297.33L-482.24,-291.80L-485.92,-279.87L-491.89,-281.71L-493.73,-275.75L-499.69,-277.59L-501.54,-271.62L-513.47,-275.31L-515.31,-269.34L-539.17,-276.71L-537.33,-282.68L-549.26,-286.36L-547.42,-292.33L-553.39,-294.17L-549.70,-306.10ZM-528.56,-332.25L-492.76,-321.19L-489.08,-333.12L-495.04,-334.97L-493.20,-340.93L-517.07,-348.30L-518.91,-342.34L-524.87,-344.18ZM-472.99,-256.27L-436.14,-375.59L-418.25,-370.06L-455.09,-250.75ZM-433.47,-244.07L-396.62,-363.38L-378.72,-357.86L-415.57,-238.54ZM-389.37,-256.59L-376.48,-298.35L-370.51,-296.51L-366.82,-308.44L-360.86,-306.60L-359.02,-312.56L-347.09,-308.88L-345.24,-314.84L-321.38,-307.47L-323.22,-301.51L-311.29,-297.82L-313.13,-291.86L-307.17,-290.02L-310.85,-278.08L-304.89,-276.24L-317.78,-234.48L-323.75,-236.32L-327.43,-224.39L-333.40,-226.24L-335.24,-220.27L-347.17,-223.95L-349.01,-217.99L-372.88,-225.36L-371.04,-231.32L-382.97,-235.01L-381.12,-240.97L-387.09,-242.82L-383.41,-254.75ZM-371.47,-251.06L-365.51,-249.22L-367.35,-243.25L-343.49,-235.89L-341.65,-241.85L-335.68,-240.01L-322.78,-281.77L-328.75,-283.61L-326.91,-289.58L-350.77,-296.95L-352.61,-290.98L-358.58,-292.82ZM-312.47,-206.70L-306.95,-224.60L-289.05,-219.07L-298.26,-189.25L-304.23,-191.09L-306.07,-185.12L-318.00,-188.81L-316.16,-194.77L-310.19,-192.93L-308.35,-198.90L-302.39,-197.05L-300.54,-203.02ZM-219.26,-177.92L-182.41,-297.23L-164.52,-291.71L-201.36,-172.39ZM-156.76,-256.64L-147.55,-286.47L-135.62,-282.78L-144.83,-252.95ZM-151.59,-157.02L-123.95,-246.51L-106.05,-240.98L-109.74,-229.05L-103.77,-227.20L-101.93,-233.17L-95.96,-231.33L-94.12,-237.29L-76.22,-231.77L-78.07,-225.80L-72.10,-223.96L-73.94,-217.99L-62.01,-214.31L-60.17,-220.27L-54.20,-218.43L-52.36,-224.40L-28.50,-217.03L-30.34,-211.06L-24.38,-209.22L-26.22,-203.25L-20.25,-201.41L-23.94,-189.48L-17.97,-187.64L-38.24,-122.01L-56.13,-127.54L-35.87,-193.16L-41.83,-195.01L-39.99,-200.97L-57.89,-206.50L-59.73,-200.53L-65.70,-202.38L-85.96,-136.75L-103.86,-142.28L-83.59,-207.90L-89.56,-209.75L-87.72,-215.71L-99.65,-219.40L-101.49,-213.43L-107.46,-215.27L-109.30,-209.31L-115.26,-211.15L-133.69,-151.49ZM35.40,-99.27L72.25,-218.59L90.15,-213.06L73.57,-159.37L79.53,-157.53L81.37,-163.49L87.34,-161.65L89.18,-167.62L95.15,-165.77L96.99,-171.74L102.96,-169.90L104.80,-175.86L110.76,-174.02L112.61,-179.99L118.57,-178.14L120.42,-184.11L126.38,-182.27L128.22,-188.23L134.19,-186.39L136.03,-192.36L142.00,-190.52L143.84,-196.48L167.70,-189.11L165.86,-183.15L159.89,-184.99L158.05,-179.02L152.09,-180.86L150.24,-174.90L144.28,-176.74L142.44,-170.78L136.47,-172.62L134.63,-166.65L128.66,-168.49L126.82,-162.53L120.85,-164.37L119.01,-158.41L113.05,-160.25L111.20,-154.28L105.24,-156.12L101.55,-144.19L107.52,-142.35L105.68,-136.38L111.64,-134.54L109.80,-128.58L115.77,-126.73L113.92,-120.77L119.89,-118.93L118.05,-112.96L124.01,-111.12L122.17,-105.15L128.14,-103.31L126.29,-97.34L132.26,-95.50L130.42,-89.54L136.38,-87.69L134.54,-81.73L140.51,-79.89L138.66,-73.92L144.63,-72.08L142.79,-66.11L118.92,-73.48L120.77,-79.45L114.80,-81.29L116.64,-87.25L110.68,-89.10L112.52,-95.06L106.55,-96.91L108.40,-102.87L102.43,-104.71L104.27,-110.68L98.31,-112.52L100.15,-118.49L94.18,-120.33L96.03,-126.30L90.06,-128.14L91.90,-134.10L85.94,-135.95L87.78,-141.91L81.81,-143.75L79.97,-137.79L74.01,-139.63L72.16,-133.66L66.20,-135.51L53.30,-93.75ZM161.62,-60.30L189.25,-149.78L207.15,-144.26L203.46,-132.32L209.43,-130.48L211.27,-136.45L217.24,-134.61L219.08,-140.57L242.94,-133.20L241.10,-127.24L247.07,-125.39L245.22,-119.43L251.19,-117.59L247.51,-105.65L241.54,-107.50L239.70,-101.53L233.73,-103.37L235.57,-109.34L229.61,-111.18L231.45,-117.15L213.55,-122.67L211.71,-116.71L205.75,-118.55L203.90,-112.59L197.94,-114.43L179.51,-54.77ZM243.27,-35.08L270.91,-124.57L288.81,-119.04L261.17,-29.55ZM274.59,-136.50L280.12,-154.40L298.02,-148.87L292.49,-130.97ZM284.80,-35.32L288.49,-47.26L294.45,-45.41L296.30,-51.38L302.26,-49.54L300.42,-43.57L306.38,-41.73L304.54,-35.76L310.51,-33.92L308.67,-27.96L320.60,-24.27L322.44,-30.24L328.41,-28.39L332.09,-40.33L326.12,-42.17L327.97,-48.13L322.00,-49.98L323.84,-55.94L311.91,-59.63L313.75,-65.59L307.79,-67.43L309.63,-73.40L303.67,-75.24L305.51,-81.21L299.54,-83.05L305.07,-100.95L311.03,-99.11L312.88,-105.07L318.84,-103.23L320.68,-109.19L356.48,-98.14L354.64,-92.17L360.60,-90.33L355.08,-72.44L343.14,-76.12L344.99,-82.09L339.02,-83.93L340.86,-89.89L328.93,-93.58L327.09,-87.61L321.12,-89.45L319.28,-83.49L325.25,-81.65L323.40,-75.68L329.37,-73.84L327.53,-67.87L339.46,-64.19L337.62,-58.22L343.58,-56.38L341.74,-50.41L347.71,-48.57L345.86,-42.61L351.83,-40.76L344.46,-16.90L338.49,-18.74L336.65,-12.78L330.69,-14.62L328.84,-8.65L293.05,-19.71L294.89,-25.67L288.93,-27.52L290.77,-33.48ZM378.36,-71.78L383.88,-89.68L395.82,-85.99L403.19,-109.86L421.08,-104.33L413.71,-80.47L437.58,-73.10L432.05,-55.20L408.19,-62.57L386.08,9.02L368.18,3.49L390.29,-68.10ZM426.72,21.57L454.36,-67.91L472.25,-62.39L444.62,27.10ZM458.04,-79.85L463.57,-97.74L481.46,-92.22L475.94,-74.32ZM470.82,9.05L483.71,-32.71L489.68,-30.87L493.36,-42.80L499.33,-40.96L501.17,-46.92L513.10,-43.24L514.94,-49.20L538.81,-41.83L536.97,-35.87L542.93,-34.03L541.09,-28.06L547.05,-26.22L550.74,-38.15L568.64,-32.62L541.00,56.86L523.10,51.34L526.79,39.40L520.82,37.56L518.98,43.53L513.02,41.69L511.17,47.65L487.31,40.28L489.15,34.32L477.22,30.63L479.06,24.67L473.10,22.82L476.78,10.89ZM488.71,14.58L494.68,16.42L492.84,22.39L516.70,29.75L518.54,23.79L524.51,25.63L526.35,19.67L532.32,21.51L541.53,-8.32L535.56,-10.16L537.40,-16.13L531.44,-17.97L533.28,-23.94L509.42,-31.31L507.58,-25.34L501.61,-27.18ZM560.39,62.85L588.03,-26.64L605.92,-21.11L602.24,-9.18L608.20,-7.33L610.05,-13.30L616.01,-11.46L617.85,-17.42L635.75,-11.90L633.91,-5.93L645.84,-2.25L644.00,3.72L649.96,5.56L646.28,17.49L652.25,19.34L631.98,84.96L614.08,79.43L634.35,13.81L628.38,11.97L630.22,6.00L612.33,0.47L610.48,6.44L604.52,4.60L602.68,10.56L596.71,8.72L578.29,68.38Z" fill="#ffffff" stroke="#000000"/>
    <path d="M-913,471.81L-913,468.25L-892.81,468.25L-892.81,471.81L-901.13,471.81L-901.13,492L-904.69,492L-904.69,471.81ZM-891.03,487.25L-891.03,478.94L-889.84,478.94L-889.84,476.56L-888.66,476.56L-888.66,475.38L-886.28,475.38L-886.28,474.19L-881.53,474.19L-881.53,475.38L-879.16,475.38L-879.16,476.56L-877.97,476.56L-877.97,478.94L-876.78,478.94L-876.78,483.69L-887.47,483.69L-887.47,487.25L-886.28,487.25L-886.28,488.44L-881.53,488.44L-881.53,487.25L-880.34,487.25L-880.34,486.06L-876.78,486.06L-876.78,488.44L-877.97,488.44L-877.97,489.63L-879.16,489.63L-879.16,490.81L-881.53,490.81L-881.53,492L-886.28,492L-886.28,490.81L-888.66,490.81L-888.66,489.63L-889.84,489.63L-889.84,487.25ZM-887.47,481.31L-880.34,481.31L-880.34,478.94L-881.53,478.94L-881.53,477.75L-886.28,477.75L-886.28,478.94L-887.47,478.94ZM-873.26,492L-873.26,474.19L-869.69,474.19L-869.69,476.56L-868.51,476.56L-868.51,475.38L-867.32,475.38L-867.32,474.19L-862.57,474.19L-862.57,475.38L-861.38,475.38L-861.38,476.56L-860.19,476.56L-860.19,478.94L-861.38,478.94L-861.38,480.13L-862.57,480.13L-862.57,478.94L-863.76,478.94L-863.76,477.75L-867.32,477.75L-867.32,478.94L-868.51,478.94L-868.51,480.13L-869.69,480.13L-869.69,492ZM-857.15,492L-857.15,474.19L-853.59,474.19L-853.59,476.56L-852.40,476.56L-852.40,475.38L-851.21,475.38L-851.21,474.19L-847.65,474.19L-847.65,475.38L-846.46,475.38L-846.46,476.56L-844.09,476.56L-844.09,475.38L-842.90,475.38L-842.90,474.19L-838.15,474.19L-838.15,475.38L-836.96,475.38L-836.96,476.56L-835.78,476.56L-835.78,478.94L-834.59,478.94L-834.59,492L-838.15,492L-838.15,478.94L-839.34,478.94L-839.34,477.75L-842.90,477.75L-842.90,478.94L-844.09,478.94L-844.09,492L-847.65,492L-847.65,478.94L-848.84,478.94L-848.84,477.75L-851.21,477.75L-851.21,478.94L-852.40,478.94L-852.40,480.13L-853.59,480.13L-853.59,492ZM-830.69,492L-830.69,474.19L-827.13,474.19L-827.13,492ZM-830.69,471.81L-830.69,468.25L-827.13,468.25L-827.13,471.81ZM-822.97,492L-822.97,474.19L-819.41,474.19L-819.41,476.56L-818.22,476.56L-818.22,475.38L-817.04,475.38L-817.04,474.19L-813.47,474.19L-813.47,475.38L-811.10,475.38L-811.10,476.56L-809.91,476.56L-809.91,478.94L-808.72,478.94L-808.72,492L-812.29,492L-812.29,478.94L-813.47,478.94L-813.47,477.75L-817.04,477.75L-817.04,478.94L-818.22,478.94L-818.22,480.13L-819.41,480.13L-819.41,492ZM-805.38,487.25L-805.38,478.94L-804.20,478.94L-804.20,476.56L-803.01,476.56L-803.01,475.38L-800.63,475.38L-800.63,474.19L-795.88,474.19L-795.88,475.38L-794.70,475.38L-794.70,476.56L-793.51,476.56L-793.51,474.19L-789.95,474.19L-789.95,492L-793.51,492L-793.51,489.63L-794.70,489.63L-794.70,490.81L-795.88,490.81L-795.88,492L-800.63,492L-800.63,490.81L-803.01,490.81L-803.01,489.63L-804.20,489.63L-804.20,487.25ZM-801.82,487.25L-800.63,487.25L-800.63,488.44L-795.88,488.44L-795.88,487.25L-794.70,487.25L-794.70,486.06L-793.51,486.06L-793.51,480.13L-794.70,480.13L-794.70,478.94L-795.88,478.94L-795.88,477.75L-800.63,477.75L-800.63,478.94L-801.82,478.94ZM-785.94,492L-785.94,468.25L-782.38,468.25L-782.38,492ZM-778.89,483.69L-778.89,480.13L-765.82,480.13L-765.82,483.69ZM-762.89,484.88L-762.89,475.38L-761.71,475.38L-761.71,473L-760.52,473L-760.52,471.81L-759.33,471.81L-759.33,470.63L-758.14,470.63L-758.14,469.44L-754.58,469.44L-754.58,468.25L-748.64,468.25L-748.64,469.44L-745.08,469.44L-745.08,470.63L-743.89,470.63L-743.89,473L-742.71,473L-742.71,474.19L-741.52,474.19L-741.52,475.38L-746.27,475.38L-746.27,474.19L-747.46,474.19L-747.46,473L-749.83,473L-749.83,471.81L-753.39,471.81L-753.39,473L-755.77,473L-755.77,474.19L-756.96,474.19L-756.96,475.38L-758.14,475.38L-758.14,477.75L-759.33,477.75L-759.33,482.50L-758.14,482.50L-758.14,484.88L-756.96,484.88L-756.96,486.06L-755.77,486.06L-755.77,487.25L-753.39,487.25L-753.39,488.44L-749.83,488.44L-749.83,487.25L-747.46,487.25L-747.46,486.06L-746.27,486.06L-746.27,484.88L-745.08,484.88L-745.08,482.50L-752.21,482.50L-752.21,478.94L-741.52,478.94L-741.52,486.06L-742.71,486.06L-742.71,487.25L-743.89,487.25L-743.89,489.63L-745.08,489.63L-745.08,490.81L-748.64,490.81L-748.64,492L-754.58,492L-754.58,490.81L-758.14,490.81L-758.14,489.63L-759.33,489.63L-759.33,488.44L-760.52,488.44L-760.52,487.25L-761.71,487.25L-761.71,484.88ZM-737.81,492L-737.81,474.19L-734.24,474.19L-734.24,476.56L-733.06,476.56L-733.06,475.38L-731.87,475.38L-731.87,474.19L-727.12,474.19L-727.12,475.38L-725.93,475.38L-725.93,476.56L-724.74,476.56L-724.74,478.94L-725.93,478.94L-725.93,480.13L-727.12,480.13L-727.12,478.94L-728.31,478.94L-728.31,477.75L-731.87,477.75L-731.87,478.94L-733.06,478.94L-733.06,480.13L-734.24,480.13L-734.24,492ZM-722.11,487.25L-722.11,478.94L-720.92,478.94L-720.92,476.56L-719.73,476.56L-719.73,475.38L-717.36,475.38L-717.36,474.19L-712.61,474.19L-712.61,475.38L-710.23,475.38L-710.23,476.56L-709.05,476.56L-709.05,478.94L-707.86,478.94L-707.86,487.25L-709.05,487.25L-709.05,489.63L-710.23,489.63L-710.23,490.81L-712.61,490.81L-712.61,492L-717.36,492L-717.36,490.81L-719.73,490.81L-719.73,489.63L-720.92,489.63L-720.92,487.25ZM-718.55,487.25L-717.36,487.25L-717.36,488.44L-712.61,488.44L-712.61,487.25L-711.42,487.25L-711.42,478.94L-712.61,478.94L-712.61,477.75L-717.36,477.75L-717.36,478.94L-718.55,478.94ZM-704.85,477.75L-704.85,474.19L-702.48,474.19L-702.48,469.44L-698.92,469.44L-698.92,474.19L-694.17,474.19L-694.17,477.75L-698.92,477.75L-698.92,492L-702.48,492L-702.48,477.75ZM-691.38,487.25L-691.38,478.94L-690.20,478.94L-690.20,476.56L-689.01,476.56L-689.01,475.38L-686.63,475.38L-686.63,474.19L-681.88,474.19L-681.88,475.38L-679.51,475.38L-679.51,476.56L-678.32,476.56L-678.32,478.94L-677.13,478.94L-677.13,483.69L-687.82,483.69L-687.82,487.25L-686.63,487.25L-686.63,488.44L-681.88,488.44L-681.88,487.25L-680.70,487.25L-680.70,486.06L-677.13,486.06L-677.13,488.44L-678.32,488.44L-678.32,489.63L-679.51,489.63L-679.51,490.81L-681.88,490.81L-681.88,492L-686.63,492L-686.63,490.81L-689.01,490.81L-689.01,489.63L-690.20,489.63L-690.20,487.25ZM-687.82,481.31L-680.70,481.31L-680.70,478.94L-681.88,478.94L-681.88,477.75L-686.63,477.75L-686.63,478.94L-687.82,478.94ZM-673.79,489.63L-673.79,487.25L-672.61,487.25L-672.61,486.06L-671.42,486.06L-671.42,487.25L-670.23,487.25L-670.23,488.44L-669.04,488.44L-669.04,489.63L-666.67,489.63L-666.67,488.44L-665.48,488.44L-665.48,486.06L-666.67,486.06L-666.67,484.88L-667.86,484.88L-667.86,483.69L-670.23,483.69L-670.23,482.50L-671.42,482.50L-671.42,481.31L-672.61,481.31L-672.61,480.13L-673.79,480.13L-673.79,476.56L-672.61,476.56L-672.61,475.38L-671.42,475.38L-671.42,474.19L-664.29,474.19L-664.29,475.38L-663.11,475.38L-663.11,478.94L-665.48,478.94L-665.48,477.75L-666.67,477.75L-666.67,476.56L-669.04,476.56L-669.04,477.75L-670.23,477.75L-670.23,478.94L-669.04,478.94L-669.04,480.13L-667.86,480.13L-667.86,481.31L-665.48,481.31L-665.48,482.50L-664.29,482.50L-664.29,483.69L-663.11,483.69L-663.11,484.88L-661.92,484.88L-661.92,489.63L-663.11,489.63L-663.11,490.81L-664.29,490.81L-664.29,492L-671.42,492L-671.42,490.81L-672.61,490.81L-672.61,489.63ZM-658.76,487.25L-658.76,478.94L-657.58,478.94L-657.58,476.56L-656.39,476.56L-656.39,475.38L-654.01,475.38L-654.01,474.19L-649.26,474.19L-649.26,475.38L-648.08,475.38L-648.08,476.56L-646.89,476.56L-646.89,474.19L-643.33,474.19L-643.33,499.13L-646.89,499.13L-646.89,489.63L-648.08,489.63L-648.08,490.81L-649.26,490.81L-649.26,492L-654.01,492L-654.01,490.81L-656.39,490.81L-656.39,489.63L-657.58,489.63L-657.58,487.25ZM-655.20,487.25L-654.01,487.25L-654.01,488.44L-649.26,488.44L-649.26,487.25L-648.08,487.25L-648.08,486.06L-646.89,486.06L-646.89,480.13L-648.08,480.13L-648.08,478.94L-649.26,478.94L-649.26,477.75L-654.01,477.75L-654.01,478.94L-655.20,478.94ZM-639.28,489.63L-639.28,474.19L-635.72,474.19L-635.72,487.25L-634.53,487.25L-634.53,488.44L-630.97,488.44L-630.97,487.25L-629.78,487.25L-629.78,486.06L-628.59,486.06L-628.59,474.19L-625.03,474.19L-625.03,492L-628.59,492L-628.59,489.63L-629.78,489.63L-629.78,490.81L-630.97,490.81L-630.97,492L-636.91,492L-636.91,490.81L-638.09,490.81L-638.09,489.63ZM-621.58,487.25L-621.58,478.94L-620.39,478.94L-620.39,476.56L-619.21,476.56L-619.21,475.38L-616.83,475.38L-616.83,474.19L-612.08,474.19L-612.08,475.38L-609.71,475.38L-609.71,476.56L-608.52,476.56L-608.52,478.94L-607.33,478.94L-607.33,483.69L-618.02,483.69L-618.02,487.25L-616.83,487.25L-616.83,488.44L-612.08,488.44L-612.08,487.25L-610.89,487.25L-610.89,486.06L-607.33,486.06L-607.33,488.44L-608.52,488.44L-608.52,489.63L-609.71,489.63L-609.71,490.81L-612.08,490.81L-612.08,492L-616.83,492L-616.83,490.81L-619.21,490.81L-619.21,489.63L-620.39,489.63L-620.39,487.25ZM-618.02,481.31L-610.89,481.31L-610.89,478.94L-612.08,478.94L-612.08,477.75L-616.83,477.75L-616.83,478.94L-618.02,478.94Z"/>
</svg>