<?xml version="1.0"?>
<svg xmlns="http://www.w3.org/2000/svg" width="1920" height="1080" viewBox="-960 -540 1920 1080">
    <path d="M-561.33,-205.16L-550.23,-213.38L-550.23,-215.60L-610.61,-215.60L-610.61,-213.16L-588.41,-201.17L-588.41,-164.54C-594.18,-161.65 -601.73,-160.32 -605.95,-160.32C-643.69,-160.32 -651.46,-202.72 -651.46,-236.91C-651.46,-271.76 -639.92,-289.75 -618.60,-289.75C-594.63,-289.75 -583.30,-271.54 -573.76,-253.78L-570.87,-253.78L-570.87,-298.85L-603.95,-298.85C-654.79,-298.85 -682.98,-257.11 -682.98,-217.60C-682.98,-174.08 -659.23,-144.11 -621.27,-144.11C-607.28,-144.11 -594.85,-150.11 -584.64,-157.43L-564.66,-145.67L-561.33,-145.67ZM-535.13,-191.18C-535.13,-161.21 -516.93,-143.89 -493.17,-143.89C-462.98,-143.89 -436.79,-175.64 -436.79,-210.27C-436.79,-239.57 -453.66,-258.44 -481.41,-258.44C-512.71,-258.44 -535.13,-226.92 -535.13,-191.18ZM-490.07,-251.34C-483.40,-251.34 -466.09,-239.35 -466.09,-200.28C-466.09,-163.65 -479.19,-151.22 -485.85,-151.22C-492.51,-151.22 -507.16,-169.20 -507.16,-206.05C-507.16,-245.35 -496.73,-251.34 -490.07,-251.34ZM-394.83,-147C-381.73,-168.09 -366.41,-198.06 -358.64,-229.81L-361.30,-204.05L-361.30,-147L-318.90,-147L-335.33,-166.09L-335.33,-243.79L-326.89,-255.78L-352.20,-255.78C-398.60,-254.89 -423.91,-224.48 -423.91,-183.19C-423.91,-165.20 -417.91,-149.22 -411.25,-144.56ZM-391.27,-164.09C-393.94,-164.09 -396.38,-173.42 -396.38,-195.17C-396.38,-217.60 -390.61,-249.12 -360.86,-249.34C-361.08,-225.81 -387.06,-164.09 -391.27,-164.09ZM-300.03,-274.87L-300.03,-268.21L-315.13,-261.77L-300.03,-244.68L-300.03,-147L-258.07,-147L-274.50,-166.09L-274.50,-304.62L-315.13,-291.97ZM-157.06,-281.75L-203.24,-232.69L-203.02,-232.25L-182.37,-240.24L-182.37,-161.65L-201.24,-147L-137.08,-147L-157.06,-161.65ZM-89.58,-221.37L-107.56,-242.02L-125.76,-221.37L-107.56,-200.95ZM-89.58,-161.65L-107.56,-182.30L-125.76,-161.65L-107.56,-141.23ZM-15.87,-275.54L-15.87,-170.53L-31.63,-147L30.53,-147L11.66,-170.53L11.66,-211.38C16.54,-211.38 24.31,-211.82 30.97,-212.93C53.17,-215.82 78.03,-231.14 78.03,-258.44C78.03,-295.30 34.30,-299.07 19.20,-299.07L-31.63,-299.07ZM11.66,-292.41C34.30,-292.41 47.84,-280.64 47.84,-255.78C47.84,-230.92 34.52,-218.93 11.66,-218.93ZM180.15,-221.37L180.82,-222.26L162.17,-258.89L159.29,-258.89C146.19,-240.24 135.31,-212.27 128.87,-187.40L128.87,-258L88.25,-243.13L103.34,-226.03L103.34,-147L130.65,-147L128.87,-160.54C128.87,-182.96 147.74,-228.03 150.85,-229.36ZM213.68,-147C226.77,-168.09 242.09,-198.06 249.86,-229.81L247.20,-204.05L247.20,-147L289.60,-147L273.17,-166.09L273.17,-243.79L281.61,-255.78L256.30,-255.78C209.90,-254.89 184.59,-224.48 184.59,-183.19C184.59,-165.20 190.59,-149.22 197.25,-144.56ZM217.23,-164.09C214.56,-164.09 212.12,-173.42 212.12,-195.17C212.12,-217.60 217.89,-249.12 247.64,-249.34C247.42,-225.81 221.45,-164.09 217.23,-164.09ZM368.41,-226.92L369.08,-227.81L353.54,-258.89L351.32,-258.89C324.23,-252.01 297.15,-221.37 297.15,-187.63C297.15,-158.10 311.36,-144.34 329.78,-144.34C341.33,-144.34 361.97,-161.43 373.52,-195.40L369.96,-197.62C359.75,-174.08 347.76,-160.10 340.44,-160.10C330.45,-160.10 325.12,-178.08 325.12,-206.72C325.12,-221.37 328.89,-241.79 333.11,-241.79ZM451.66,-253.34L451.66,-255.78L416.36,-255.78L416.36,-293.52L391.28,-255.78L375.51,-255.78L390.61,-242.68L390.61,-179.63C391.05,-145.89 407.70,-144.34 415.70,-144.34C429.46,-144.34 444.78,-165.87 450.99,-190.51L448.55,-191.40C443.89,-177.64 433.90,-160.76 426.80,-160.76C420.80,-160.76 416.36,-162.10 416.36,-186.52L416.36,-242.02ZM503.83,-288.86L485.40,-309.28L466.76,-288.86L485.40,-268.21ZM499.39,-166.09L499.39,-258L458.76,-243.13L473.86,-226.03L473.86,-147L515.82,-147ZM594.63,-226.92L595.29,-227.81L579.75,-258.89L577.53,-258.89C550.45,-252.01 523.36,-221.37 523.36,-187.63C523.36,-158.10 537.57,-144.34 556.00,-144.34C567.54,-144.34 588.19,-161.43 599.73,-195.40L596.18,-197.62C585.97,-174.08 573.98,-160.10 566.66,-160.10C556.67,-160.10 551.34,-178.08 551.34,-206.72C551.34,-221.37 555.11,-241.79 559.33,-241.79ZM684.09,-197.39C684.09,-197.39 668.78,-160.10 652.79,-160.10C644.80,-160.10 638.81,-172.75 636.81,-191.18L685.65,-233.14C685.65,-237.58 678.99,-258.67 657.90,-258.67C630.59,-258.67 607.95,-220.70 607.95,-188.74C607.95,-159.21 621.05,-144.34 640.80,-144.34C662.34,-144.34 681.87,-176.08 687.65,-195.17ZM636.36,-196.51C636.14,-199.61 635.92,-202.94 635.92,-206.50C635.92,-242.02 642.80,-249.34 646.80,-251.78C649.68,-253.78 660.78,-243.13 661.89,-220.70Z" fill="#ffffff" stroke="#000000"/>
    <path d="M-551.88,-225.70L-540.53,-233.32L-540.43,-235.52L-600.14,-238.26L-600.26,-235.85L-578.84,-222.98L-580.51,-186.76C-586.35,-184.16 -593.87,-183.19 -598.04,-183.38C-635.37,-185.10 -641.13,-227.38 -639.57,-261.19C-637.99,-295.66 -625.76,-312.92 -604.68,-311.95C-580.97,-310.86 -570.60,-292.35 -561.96,-274.35L-559.11,-274.22L-557.06,-318.79L-589.78,-320.29C-640.05,-322.60 -669.83,-282.60 -671.63,-243.52C-673.60,-200.49 -651.47,-169.78 -613.93,-168.05C-600.10,-167.42 -587.53,-172.78 -577.10,-179.56L-557.87,-167.02L-554.58,-166.86ZM-526.61,-210.68C-527.97,-181.04 -510.75,-163.09 -487.26,-162.01C-457.40,-160.64 -430.05,-190.85 -428.48,-225.10C-427.15,-254.08 -442.98,-273.50 -470.42,-274.76C-501.38,-276.19 -524.98,-246.03 -526.61,-210.68ZM-479.31,-268.13C-472.72,-267.83 -456.14,-255.19 -457.91,-216.55C-459.58,-180.32 -473.10,-168.62 -479.68,-168.92C-486.27,-169.23 -499.94,-187.68 -498.27,-224.12C-496.48,-262.98 -485.89,-268.44 -479.31,-268.13ZM-389.86,-160.62C-375.95,-180.88 -359.44,-209.82 -350.31,-240.87L-354.12,-215.52L-356.71,-159.10L-314.77,-157.17L-330.15,-176.80L-326.62,-253.64L-317.74,-265.11L-342.76,-266.26C-388.69,-267.49 -415.10,-238.56 -416.98,-197.73C-417.79,-179.94 -412.59,-163.86 -406.22,-158.95ZM-385.57,-177.36C-388.20,-177.48 -390.20,-186.82 -389.21,-208.33C-388.19,-230.51 -381.05,-261.42 -351.62,-260.29C-352.91,-237.03 -381.40,-177.17 -385.57,-177.36ZM-290.30,-282.77L-290.61,-276.19L-305.83,-270.50L-291.67,-252.91L-296.11,-156.31L-254.62,-154.41L-270.00,-174.03L-263.70,-311.03L-304.46,-300.36ZM-148.60,-283.08L-196.50,-236.66L-196.30,-236.21L-175.52,-243.18L-179.09,-165.46L-198.41,-151.82L-134.96,-148.91L-154.06,-164.31ZM-84.60,-220.30L-101.45,-241.54L-120.39,-221.94L-103.31,-200.92ZM-87.31,-161.24L-104.16,-182.48L-123.10,-162.89L-106.03,-141.86ZM-9.25,-270.52L-14.02,-166.68L-30.68,-144.12L30.80,-141.30L13.20,-165.43L15.06,-205.82C19.89,-205.60 27.59,-205.69 34.23,-206.48C56.32,-208.33 81.60,-222.35 82.84,-249.35C84.52,-285.80 41.44,-291.52 26.51,-292.20L-23.77,-294.51ZM18.74,-285.96C41.13,-284.93 53.99,-272.68 52.86,-248.09C51.73,-223.50 38.02,-212.25 15.40,-213.29ZM182.15,-208.05L182.85,-208.90L166.07,-245.97L163.22,-246.10C149.42,-228.25 137.39,-201.08 129.89,-176.79L133.10,-246.60L92.25,-233.74L106.40,-216.15L102.81,-137.99L129.81,-136.75L128.67,-150.22C129.69,-172.39 150.40,-216.11 153.53,-217.28ZM211.92,-132.98C225.83,-153.24 242.34,-182.18 251.47,-213.22L247.67,-187.88L245.08,-131.45L287.01,-129.53L271.63,-149.15L275.16,-226.00L284.05,-237.47L259.02,-238.62C213.09,-239.85 186.68,-210.92 184.81,-170.08C183.99,-152.30 189.19,-136.22 195.57,-131.31ZM216.21,-149.72C213.58,-149.84 211.59,-159.17 212.57,-180.69C213.59,-202.86 220.73,-233.78 250.16,-232.64C248.87,-209.38 220.38,-149.53 216.21,-149.72ZM368.58,-204.98L369.28,-205.83L355.32,-237.27L353.13,-237.38C326.03,-231.80 297.85,-202.73 296.32,-169.36C294.98,-140.16 308.40,-125.90 326.63,-125.07C338.04,-124.54 359.24,-140.51 372.20,-173.58L368.78,-175.93C357.62,-153.12 345.13,-139.84 337.88,-140.17C328.00,-140.62 323.55,-158.65 324.85,-186.97C325.52,-201.46 330.18,-221.49 334.35,-221.30ZM452.11,-227.33L452.22,-229.74L417.31,-231.35L419.03,-268.67L392.50,-232.49L376.92,-233.20L391.25,-219.56L388.39,-157.21C387.29,-123.82 403.69,-121.53 411.59,-121.16C425.20,-120.54 441.33,-141.14 448.60,-165.23L446.22,-166.22C440.99,-152.82 430.34,-136.58 423.32,-136.91C417.39,-137.18 413.06,-138.70 414.17,-162.85L416.69,-217.73ZM505.32,-260.09L488.02,-281.12L468.65,-261.77L486.16,-240.51ZM495.35,-138.88L499.52,-229.77L458.67,-216.91L472.82,-199.32L469.23,-121.16L510.73,-119.25ZM592.30,-194.71L593.00,-195.56L579.04,-227.00L576.85,-227.10C549.75,-221.52 521.57,-192.46 520.04,-159.08C518.70,-129.88 532.12,-115.63 550.35,-114.79C561.76,-114.27 582.96,-130.23 595.92,-163.30L592.50,-165.66C581.34,-142.85 568.85,-129.56 561.60,-129.89C551.72,-130.35 547.27,-148.37 548.57,-176.70C549.23,-191.19 553.90,-211.21 558.07,-211.02ZM679.44,-161.44C679.44,-161.44 662.59,-125.26 646.79,-125.98C638.88,-126.34 633.53,-139.13 632.39,-157.44L682.60,-196.72C682.80,-201.11 677.17,-222.27 656.31,-223.23C629.31,-224.47 605.19,-187.96 603.74,-156.34C602.40,-127.14 614.67,-111.84 634.21,-110.94C655.51,-109.96 676.27,-140.47 682.85,-159.09ZM632.19,-162.73C632.11,-165.82 632.05,-169.12 632.21,-172.63C633.82,-207.76 640.96,-214.69 645.02,-216.93C647.97,-218.77 658.46,-207.73 658.54,-185.50Z" fill="#ffffff" stroke="#000000"/>
    <path d="M-541.60,-245.87L-530.03,-252.89L-529.83,-255.05L-588.76,-260.48L-588.98,-258.09L-568.39,-244.40L-571.68,-208.66C-577.57,-206.36 -585.06,-205.74 -589.18,-206.11C-626.00,-209.51 -629.78,-251.58 -626.71,-284.95C-623.57,-318.96 -610.69,-335.47 -589.90,-333.55C-566.50,-331.40 -557.09,-312.62 -549.37,-294.43L-546.55,-294.17L-542.50,-338.15L-574.78,-341.12C-624.39,-345.69 -655.65,-307.49 -659.21,-268.93C-663.11,-226.47 -642.63,-195.09 -605.58,-191.68C-591.93,-190.42 -579.26,-195.15 -568.64,-201.38L-550.20,-188.11L-546.95,-187.81ZM-517.29,-229.87C-519.99,-200.62 -503.78,-182.09 -480.60,-179.95C-451.13,-177.24 -422.72,-205.86 -419.61,-239.66C-416.97,-268.26 -431.74,-288.19 -458.82,-290.68C-489.37,-293.49 -514.08,-264.75 -517.29,-229.87ZM-467.91,-284.53C-461.41,-283.93 -445.59,-270.67 -449.10,-232.55C-452.39,-196.80 -466.29,-185.84 -472.79,-186.44C-479.29,-187.04 -491.97,-205.90 -488.66,-241.87C-485.13,-280.21 -474.41,-285.13 -467.91,-284.53ZM-384.34,-174.15C-369.67,-193.55 -352.03,-221.42 -341.59,-251.71L-346.50,-226.81L-351.63,-171.14L-310.25,-167.33L-324.57,-187.43L-317.59,-263.26L-308.28,-274.20L-332.98,-276.47C-378.33,-279.78 -405.76,-252.37 -409.47,-212.07C-411.09,-194.53 -406.68,-178.39 -400.59,-173.24ZM-379.34,-190.51C-381.94,-190.75 -383.49,-200.07 -381.53,-221.30C-379.52,-243.18 -371.05,-273.43 -342.00,-270.97C-344.33,-248.03 -375.23,-190.13 -379.34,-190.51ZM-280.35,-290.42L-280.95,-283.92L-296.26,-278.99L-283.06,-260.96L-291.84,-165.63L-250.89,-161.86L-265.21,-181.97L-252.76,-317.16L-293.54,-308.46ZM-140.21,-284.29L-189.68,-240.56L-189.50,-240.11L-168.64,-246.05L-175.70,-169.36L-195.43,-156.76L-132.82,-150.99L-151.00,-167.09ZM-79.78,-219.30L-95.47,-241.06L-115.09,-222.55L-99.16,-200.98ZM-85.14,-161.02L-100.84,-182.79L-120.46,-164.27L-104.53,-142.71ZM-2.98,-265.54L-12.42,-163.07L-29.91,-141.52L30.75,-135.93L14.45,-160.59L18.12,-200.46C22.88,-200.02 30.50,-199.75 37.10,-200.24C59.03,-201.06 84.67,-213.77 87.12,-240.42C90.43,-276.38 48.09,-284.00 33.36,-285.35L-16.25,-289.92ZM25.40,-279.53C47.49,-277.50 59.65,-264.80 57.42,-240.53C55.18,-216.27 41.11,-205.77 18.79,-207.82ZM183.45,-195.07L184.18,-195.87L169.27,-233.29L166.45,-233.55C151.99,-216.53 138.87,-190.21 130.35,-166.53L136.69,-235.42L95.71,-224.55L108.91,-206.52L101.81,-129.39L128.45,-126.94L127.94,-140.31C129.95,-162.19 152.41,-204.48 155.57,-205.50ZM209.48,-119.48C224.15,-138.88 241.79,-166.75 252.23,-197.04L247.32,-172.14L242.19,-116.47L283.57,-112.66L269.25,-132.77L276.23,-208.59L285.54,-219.53L260.85,-221.81C215.49,-225.11 188.06,-197.70 184.35,-157.40C182.73,-139.86 187.15,-123.72 193.23,-118.57ZM214.48,-135.84C211.88,-136.08 210.33,-145.40 212.29,-166.63C214.30,-188.51 222.77,-218.76 251.82,-216.30C249.49,-193.36 218.60,-135.46 214.48,-135.84ZM367.66,-183.57L368.39,-184.38L356.01,-216.10L353.85,-216.30C326.80,-212.02 297.62,-184.56 294.59,-151.63C291.93,-122.81 304.56,-108.10 322.54,-106.45C333.81,-105.41 355.49,-120.24 369.81,-152.35L366.54,-154.83C354.46,-132.79 341.51,-120.21 334.36,-120.87C324.61,-121.77 321.02,-139.80 323.60,-167.74C324.91,-182.04 330.43,-201.63 334.55,-201.26ZM451.27,-201.87L451.49,-204.25L417.05,-207.42L420.44,-244.25L392.57,-209.68L377.18,-211.09L390.74,-196.96L385.07,-135.43C382.48,-102.46 398.58,-99.45 406.38,-98.73C419.82,-97.49 436.70,-117.13 444.98,-140.62L442.68,-141.71C436.89,-128.69 425.62,-113.13 418.69,-113.76C412.84,-114.30 408.63,-116.00 410.82,-139.83L415.81,-193.99ZM505.38,-231.85L489.23,-253.43L469.20,-235.18L485.54,-213.35ZM490.01,-112.44L498.27,-202.13L457.29,-191.27L470.48,-173.23L463.38,-96.10L504.33,-92.33ZM588.42,-163.25L589.15,-164.05L576.77,-195.78L574.61,-195.98C547.56,-191.70 518.38,-164.23 515.35,-131.30C512.69,-102.49 525.32,-87.78 543.30,-86.12C554.57,-85.09 576.25,-99.91 590.57,-132.02L587.30,-134.51C575.22,-112.46 562.27,-99.89 555.12,-100.55C545.37,-101.45 541.78,-119.47 544.36,-147.42C545.67,-161.72 551.19,-181.31 555.31,-180.93ZM673.07,-126.39C673.07,-126.39 654.77,-91.37 639.18,-92.81C631.38,-93.53 626.66,-106.42 626.37,-124.58L677.80,-161.13C678.20,-165.47 673.59,-186.65 653.01,-188.54C626.37,-190.99 600.86,-155.98 597.99,-124.79C595.33,-95.97 606.78,-80.28 626.06,-78.51C647.07,-76.57 668.99,-105.80 676.34,-123.91ZM626.41,-129.82C626.48,-132.87 626.56,-136.14 626.88,-139.60C630.07,-174.27 637.44,-180.80 641.56,-182.82C644.56,-184.51 654.43,-173.12 653.50,-151.14Z" fill="#ffffff" stroke="#000000"/>
    <path d="M-530.51,-265.62L-518.75,-272.03L-518.45,-274.16L-576.47,-282.20L-576.80,-279.86L-557.06,-265.38L-561.94,-230.19C-567.87,-228.19 -575.30,-227.91 -579.35,-228.47C-615.61,-233.50 -617.43,-275.27 -612.88,-308.12C-608.24,-341.61 -594.75,-357.35 -574.28,-354.51C-551.24,-351.32 -542.79,-332.32 -535.98,-313.99L-533.21,-313.60L-527.21,-356.90L-558.99,-361.31C-607.83,-368.08 -640.48,-331.73 -645.74,-293.76C-651.54,-251.95 -632.70,-220.00 -596.23,-214.94C-582.79,-213.08 -570.05,-217.18 -559.26,-222.86L-541.63,-208.90L-538.43,-208.45ZM-507.20,-248.69C-511.19,-219.90 -496.01,-200.83 -473.18,-197.67C-444.17,-193.65 -414.78,-220.67 -410.17,-253.94C-406.26,-282.10 -419.96,-302.47 -446.62,-306.17C-476.70,-310.34 -502.44,-283.03 -507.20,-248.69ZM-455.89,-300.50C-449.49,-299.61 -434.45,-285.78 -439.65,-248.24C-444.53,-213.05 -458.77,-202.85 -465.17,-203.73C-471.57,-204.62 -483.25,-223.85 -478.34,-259.26C-473.11,-297.01 -462.29,-301.38 -455.89,-300.50ZM-378.28,-187.56C-362.88,-206.08 -344.17,-232.84 -332.48,-262.31L-338.47,-237.92L-346.07,-183.10L-305.33,-177.45L-318.57,-197.98L-308.22,-272.64L-298.52,-283.03L-322.84,-286.40C-367.54,-291.73 -395.90,-265.88 -401.40,-226.20C-403.79,-208.93 -400.16,-192.77 -394.39,-187.40ZM-372.59,-203.51C-375.15,-203.87 -376.25,-213.15 -373.35,-234.06C-370.37,-255.60 -360.63,-285.12 -332.01,-281.37C-335.36,-258.79 -368.53,-202.95 -372.59,-203.51ZM-270.17,-297.80L-271.06,-291.40L-286.42,-287.23L-274.19,-268.79L-287.20,-174.94L-246.88,-169.35L-260.12,-189.88L-241.68,-322.98L-282.40,-316.24ZM-131.89,-285.38L-182.79,-244.39L-182.63,-243.93L-161.73,-248.86L-172.20,-173.35L-192.28,-161.79L-130.63,-153.24L-147.88,-169.98ZM-75.08,-218.37L-89.61,-240.60L-109.85,-223.19L-95.08,-201.14ZM-83.04,-160.99L-97.56,-183.23L-117.80,-165.81L-103.03,-143.77ZM2.94,-260.60L-11.04,-159.71L-29.31,-139.20L30.41,-130.93L15.41,-156.05L20.85,-195.30C25.54,-194.64 33.07,-194.04 39.62,-194.22C61.33,-194.03 87.26,-205.44 90.90,-231.68C95.80,-267.08 54.28,-276.53 39.78,-278.54L-9.07,-285.31ZM31.64,-273.15C53.40,-270.13 64.84,-257.03 61.53,-233.14C58.22,-209.25 43.83,-199.50 21.86,-202.55ZM184.08,-182.46L184.84,-183.22L171.80,-220.90L169.02,-221.28C153.95,-205.11 139.78,-179.68 130.28,-156.65L139.68,-224.48L98.67,-215.60L110.90,-197.16L100.37,-121.23L126.61,-117.59L126.71,-130.84C129.69,-152.38 153.82,-193.17 156.99,-194.04ZM206.38,-106.54C221.78,-125.06 240.48,-151.81 252.18,-181.28L246.19,-156.89L238.59,-102.07L279.33,-96.43L266.09,-116.96L276.44,-191.62L286.14,-202.01L261.82,-205.38C217.12,-210.70 188.76,-184.85 183.26,-145.18C180.86,-127.90 184.50,-111.75 190.27,-106.38ZM212.07,-122.49C209.51,-122.84 208.41,-132.13 211.30,-153.03C214.29,-174.57 224.03,-204.09 252.65,-200.35C249.30,-177.77 216.12,-121.93 212.07,-122.49ZM365.70,-162.72L366.45,-163.49L355.66,-195.42L353.53,-195.71C326.59,-192.71 296.49,-166.88 291.99,-134.46C288.06,-106.09 299.88,-90.97 317.59,-88.52C328.68,-86.98 350.79,-100.66 366.40,-131.75L363.29,-134.36C350.34,-113.11 336.96,-101.27 329.92,-102.24C320.32,-103.57 317.60,-121.56 321.41,-149.08C323.36,-163.15 329.71,-182.28 333.76,-181.71ZM449.20,-177.02L449.53,-179.37L415.61,-184.07L420.64,-220.33L391.51,-187.41L376.36,-189.51L389.12,-174.91L380.73,-114.33C376.66,-81.85 392.45,-78.14 400.13,-77.08C413.36,-75.25 430.94,-93.90 440.20,-116.75L437.97,-117.92C431.66,-105.32 419.81,-90.44 412.99,-91.38C407.23,-92.18 403.14,-94.05 406.39,-117.52L413.78,-170.84ZM504.06,-204.20L489.07,-226.28L468.44,-209.14L483.60,-186.82ZM483.44,-86.84L495.68,-175.14L454.67,-166.26L466.90,-147.83L456.37,-71.89L496.69,-66.31ZM583.05,-132.60L583.81,-133.37L573.02,-165.30L570.88,-165.59C543.94,-162.59 513.84,-136.76 509.35,-104.34C505.42,-75.97 517.24,-60.85 534.94,-58.40C546.03,-56.86 568.14,-70.53 583.76,-101.63L580.64,-104.24C567.70,-82.99 554.32,-71.15 547.28,-72.12C537.68,-73.45 534.95,-91.44 538.77,-118.95C540.72,-133.03 547.06,-152.15 551.12,-151.59ZM665.08,-92.32C665.08,-92.32 645.40,-58.52 630.04,-60.65C622.36,-61.72 618.28,-74.67 618.82,-92.64L671.33,-126.45C671.92,-130.72 668.33,-151.87 648.07,-154.68C621.83,-158.31 595.02,-124.86 590.76,-94.14C586.83,-65.77 597.44,-49.74 616.42,-47.10C637.11,-44.24 660.11,-72.14 668.20,-89.71ZM619.10,-97.82C619.30,-100.84 619.53,-104.07 620.00,-107.48C624.73,-141.61 632.32,-147.73 636.49,-149.54C639.53,-151.08 648.77,-139.36 646.85,-117.67Z" fill="#ffffff" stroke="#000000"/>
    <path d="M-518.61,-284.91L-506.70,-290.72L-506.31,-292.82L-563.30,-303.40L-563.73,-301.10L-544.88,-285.89L-551.30,-251.32C-557.25,-249.60 -564.61,-249.67 -568.59,-250.41C-604.21,-257.02 -604.11,-298.41 -598.12,-330.68C-592.01,-363.57 -577.96,-378.52 -557.85,-374.79C-535.22,-370.58 -527.72,-351.42 -521.82,-332.98L-519.10,-332.48L-511.20,-375.01L-542.42,-380.81C-590.41,-389.72 -624.33,-355.27 -631.26,-317.97C-638.89,-276.90 -621.72,-244.45 -585.89,-237.80C-572.69,-235.35 -559.90,-238.82 -548.98,-243.95L-532.18,-229.34L-529.04,-228.76ZM-496.34,-267.12C-501.59,-238.83 -487.44,-219.30 -465.02,-215.14C-436.53,-209.84 -406.24,-235.22 -400.17,-267.90C-395.03,-295.56 -407.65,-316.33 -433.84,-321.20C-463.38,-326.68 -490.07,-300.86 -496.34,-267.12ZM-443.26,-316.01C-436.97,-314.84 -422.73,-300.49 -429.58,-263.61C-436.00,-229.04 -450.54,-219.60 -456.82,-220.77C-463.11,-221.93 -473.79,-241.47 -467.33,-276.26C-460.44,-313.35 -449.54,-317.17 -443.26,-316.01ZM-371.65,-200.83C-355.59,-218.44 -335.88,-244.04 -322.98,-272.65L-330.01,-248.81L-340.01,-194.96L-299.99,-187.52L-312.15,-208.42L-298.53,-281.76L-288.47,-291.60L-312.36,-296.03C-356.30,-303.33 -385.52,-279.06 -392.76,-240.08C-395.91,-223.11 -393.06,-206.97 -387.59,-201.41ZM-365.30,-216.34C-367.82,-216.81 -368.49,-226.04 -364.68,-246.57C-360.75,-267.74 -349.77,-296.48 -321.66,-291.48C-325.99,-269.30 -361.32,-215.60 -365.30,-216.34ZM-259.77,-304.91L-260.94,-298.62L-276.31,-295.19L-265.06,-276.41L-282.18,-184.22L-242.58,-176.86L-254.74,-197.76L-230.46,-328.51L-271.02,-323.69ZM-123.62,-286.35L-175.80,-248.13L-175.67,-247.68L-154.78,-251.60L-168.56,-177.42L-188.94,-166.90L-128.38,-155.66L-144.67,-172.99ZM-70.50,-217.52L-83.86,-240.16L-104.66,-223.87L-91.06,-201.40ZM-80.97,-161.16L-94.32,-183.80L-115.13,-167.50L-101.52,-145.03ZM8.56,-255.73L-9.85,-156.62L-28.85,-137.17L29.82,-126.28L16.13,-151.80L23.29,-190.35C27.90,-189.50 35.32,-188.55 41.80,-188.43C63.26,-187.27 89.41,-197.37 94.20,-223.14C100.65,-257.92 60.04,-269.15 45.79,-271.80L-2.20,-280.71ZM37.50,-266.83C58.87,-262.86 69.59,-249.38 65.23,-225.92C60.87,-202.45 46.20,-193.47 24.62,-197.48ZM184.08,-170.25L184.87,-170.97L173.69,-208.81L170.96,-209.32C155.33,-194.01 140.16,-169.52 129.73,-147.18L142.10,-213.81L101.15,-206.89L112.40,-188.11L98.55,-113.51L124.32,-108.73L125.02,-121.82C128.95,-142.99 154.66,-182.21 157.83,-182.93ZM202.69,-94.18C218.75,-111.79 238.46,-137.39 251.36,-165.99L244.33,-142.15L234.33,-88.30L274.35,-80.87L262.19,-101.77L275.81,-175.11L285.87,-184.94L261.99,-189.38C218.04,-196.67 188.82,-172.40 181.58,-133.43C178.43,-116.46 181.29,-100.32 186.76,-94.75ZM209.04,-109.69C206.52,-110.15 205.85,-119.38 209.67,-139.92C213.60,-161.08 224.57,-189.82 252.69,-184.82C248.35,-162.65 213.02,-108.95 209.04,-109.69ZM362.75,-142.49L363.53,-143.21L354.31,-175.27L352.21,-175.66C325.44,-173.91 294.51,-149.74 288.60,-117.89C283.42,-90.02 294.42,-74.54 311.81,-71.31C322.71,-69.29 345.19,-81.80 362.04,-111.84L359.08,-114.56C345.31,-94.14 331.55,-83.04 324.63,-84.32C315.20,-86.07 313.33,-103.98 318.34,-131.01C320.91,-144.84 328.05,-163.45 332.04,-162.71ZM445.95,-152.83L446.38,-155.14L413.06,-161.32L419.68,-196.94L389.39,-165.72L374.51,-168.48L386.46,-153.47L375.41,-93.97C369.92,-62.04 385.36,-57.65 392.90,-56.25C405.89,-53.84 424.13,-71.48 434.31,-93.65L432.16,-94.92C425.35,-82.74 412.96,-68.57 406.26,-69.81C400.60,-70.86 396.64,-72.90 400.92,-95.95L410.65,-148.33ZM501.42,-177.21L487.61,-199.72L466.43,-183.71L480.41,-160.96ZM475.71,-62.12L491.82,-148.87L450.87,-141.95L462.12,-123.17L448.27,-48.57L487.87,-41.22ZM576.26,-102.84L577.05,-103.56L567.83,-135.62L565.73,-136.01C538.96,-134.26 508.03,-110.09 502.12,-78.24C496.94,-50.37 507.94,-34.89 525.33,-31.66C536.23,-29.64 558.71,-42.15 575.56,-72.19L572.59,-74.91C558.83,-54.49 545.06,-43.39 538.15,-44.67C528.72,-46.42 526.84,-64.33 531.86,-91.36C534.43,-105.19 541.57,-123.80 545.55,-123.06ZM655.53,-59.29C655.53,-59.29 634.54,-26.77 619.45,-29.57C611.91,-30.97 608.47,-43.97 609.81,-61.71L663.26,-92.75C664.04,-96.94 661.45,-118.02 641.55,-121.71C615.77,-126.50 587.75,-94.64 582.14,-64.46C576.97,-36.59 586.72,-20.26 605.37,-16.80C625.70,-13.02 649.70,-39.56 658.50,-56.57ZM610.33,-66.82C610.66,-69.79 611.04,-72.97 611.66,-76.32C617.88,-109.85 625.66,-115.56 629.86,-117.16C632.94,-118.54 641.55,-106.54 638.66,-85.18Z" fill="#ffffff" stroke="#000000"/>
    <path d="M-505.93,-303.72L-493.89,-308.92L-493.41,-310.97L-549.27,-324.02L-549.80,-321.77L-531.85,-305.88L-539.77,-271.99C-545.73,-270.57 -553.00,-270.97 -556.90,-271.88C-591.81,-280.04 -589.84,-320.94 -582.45,-352.57C-574.92,-384.81 -560.35,-398.95 -540.64,-394.34C-518.46,-389.16 -511.92,-369.88 -506.92,-351.38L-504.25,-350.76L-494.51,-392.45L-525.11,-399.60C-572.14,-410.59 -607.25,-378.07 -615.79,-341.51C-625.19,-301.26 -609.69,-268.40 -574.57,-260.20C-561.64,-257.18 -548.84,-260.03 -537.81,-264.60L-521.87,-249.40L-518.79,-248.68ZM-484.72,-285.12C-491.20,-257.40 -478.10,-237.44 -456.12,-232.31C-428.19,-225.78 -397.10,-249.49 -389.61,-281.53C-383.28,-308.64 -394.81,-329.74 -420.48,-335.74C-449.44,-342.50 -476.99,-318.18 -484.72,-285.12ZM-430.03,-331.04C-423.87,-329.60 -410.44,-314.76 -418.88,-278.62C-426.80,-244.73 -441.60,-236.06 -447.76,-237.50C-453.93,-238.94 -463.59,-258.74 -455.63,-292.83C-447.14,-329.18 -436.19,-332.47 -430.03,-331.04ZM-364.47,-213.93C-347.80,-230.61 -327.15,-255.02 -313.10,-282.71L-321.13,-259.46L-333.46,-206.68L-294.24,-197.52L-305.31,-218.73L-288.52,-290.61L-278.12,-299.88L-301.53,-305.35C-344.65,-314.55 -374.63,-291.89 -383.56,-253.69C-387.44,-237.05 -385.35,-220.97 -380.20,-215.22ZM-357.49,-228.97C-359.96,-229.55 -360.20,-238.70 -355.50,-258.83C-350.65,-279.57 -338.50,-307.49 -310.93,-301.26C-316.22,-279.54 -353.59,-228.06 -357.49,-228.97ZM-249.14,-311.73L-250.58,-305.57L-265.94,-302.88L-255.67,-283.80L-276.78,-193.44L-237.97,-184.37L-249.04,-205.58L-219.10,-333.74L-259.42,-330.81ZM-115.40,-287.20L-168.72,-251.79L-168.61,-251.34L-147.78,-254.27L-164.77,-181.57L-185.39,-172.09L-126.04,-158.22L-141.36,-176.10ZM-66.02,-216.75L-78.19,-239.74L-99.49,-224.58L-87.07,-201.75ZM-78.92,-161.51L-91.10,-184.50L-112.40,-169.33L-99.97,-146.50ZM13.87,-250.94L-8.82,-153.80L-28.49,-135.43L29.01,-122.00L16.64,-147.85L25.47,-185.63C29.99,-184.58 37.27,-183.31 43.68,-182.90C64.84,-180.77 91.15,-189.57 97.05,-214.83C105.01,-248.92 65.37,-261.86 51.41,-265.12L4.38,-276.11ZM42.98,-260.59C63.93,-255.70 73.92,-241.89 68.54,-218.89C63.17,-195.89 48.26,-187.67 27.10,-192.62ZM183.51,-158.46L184.31,-159.14L174.98,-197.05L172.31,-197.68C156.16,-183.26 140.06,-159.73 128.73,-138.12L143.98,-203.43L103.19,-198.45L113.46,-179.37L96.38,-106.26L121.64,-100.36L122.92,-113.27C127.77,-134.01 154.96,-171.62 158.13,-172.19ZM198.44,-82.41C215.12,-99.09 235.77,-123.51 249.82,-151.20L241.79,-127.95L229.46,-75.17L268.68,-66.01L257.61,-87.22L274.40,-159.10L284.80,-168.36L261.39,-173.83C218.27,-183.04 188.29,-160.37 179.36,-122.18C175.48,-105.54 177.57,-89.46 182.72,-83.71ZM205.42,-97.46C202.96,-98.04 202.72,-107.19 207.42,-127.32C212.26,-148.06 224.42,-175.97 251.98,-169.75C246.69,-148.03 209.33,-96.55 205.42,-97.46ZM358.86,-122.91L359.67,-123.58L352.01,-155.69L349.96,-156.17C323.41,-155.66 291.74,-133.17 284.44,-101.96C278.06,-74.64 288.23,-58.84 305.28,-54.86C315.96,-52.36 338.75,-63.71 356.77,-92.64L353.96,-95.46C339.43,-75.90 325.32,-65.55 318.54,-67.13C309.30,-69.29 308.26,-87.08 314.45,-113.57C317.61,-127.13 325.52,-145.21 329.42,-144.29ZM441.58,-129.35L442.11,-131.61L409.46,-139.24L417.61,-174.15L386.25,-144.66L371.67,-148.07L382.80,-132.69L369.18,-74.36C362.29,-43.05 377.36,-38.02 384.76,-36.29C397.49,-33.31 416.31,-49.92 427.39,-71.38L425.32,-72.73C418.03,-61.00 405.15,-47.55 398.57,-49.09C393.03,-50.38 389.21,-52.57 394.49,-75.16L406.48,-126.51ZM497.52,-150.94L484.89,-173.81L463.23,-158.95L476.01,-135.82ZM466.88,-38.33L486.75,-123.35L445.95,-118.37L456.22,-99.29L439.14,-26.18L477.95,-17.11ZM568.13,-74.01L568.94,-74.69L561.28,-106.80L559.23,-107.28C532.68,-106.77 501.01,-84.28 493.72,-53.07C487.33,-25.75 497.50,-9.95 514.55,-5.96C525.23,-3.47 548.02,-14.82 566.04,-43.75L563.24,-46.57C548.70,-27.01 534.59,-16.66 527.81,-18.24C518.57,-20.40 517.53,-38.19 523.72,-64.68C526.89,-78.24 534.79,-96.31 538.69,-95.40ZM644.51,-27.36C644.51,-27.36 622.28,3.83 607.50,0.37C600.10,-1.35 597.29,-14.36 599.43,-31.83L653.68,-60.09C654.64,-64.20 653.03,-85.15 633.52,-89.71C608.26,-95.61 579.11,-65.38 572.20,-35.81C565.82,-8.50 574.72,8.09 593.00,12.36C612.92,17.02 637.85,-8.13 647.32,-24.54ZM600.17,-36.86C600.63,-39.78 601.15,-42.91 601.92,-46.20C609.59,-79.05 617.54,-84.34 621.77,-85.74C624.87,-86.96 632.83,-74.71 629.02,-53.73Z" fill="#ffffff" stroke="#000000"/>
    <path d="M-492.48,-322.00L-480.34,-326.59L-479.77,-328.60L-534.40,-344.03L-535.02,-341.83L-518.00,-325.31L-527.37,-292.17C-533.33,-291.04 -540.49,-291.76 -544.31,-292.84C-578.45,-302.49 -574.64,-342.83 -565.90,-373.75C-556.99,-405.28 -541.95,-418.60 -522.67,-413.15C-500.98,-407.02 -495.39,-387.66 -491.30,-369.15L-488.69,-368.42L-477.17,-409.18L-507.09,-417.64C-553.08,-430.63 -589.25,-400.09 -599.35,-364.34C-610.47,-324.98 -596.65,-291.80 -562.31,-282.10C-549.66,-278.52 -536.88,-280.76 -525.77,-284.78L-510.70,-269.03L-507.69,-268.18ZM-472.36,-302.65C-480.02,-275.54 -467.98,-255.22 -446.49,-249.15C-419.18,-241.43 -387.37,-263.45 -378.52,-294.78C-371.03,-321.29 -381.47,-342.67 -406.57,-349.76C-434.88,-357.76 -463.22,-334.98 -472.36,-302.65ZM-416.22,-345.55C-410.19,-343.85 -397.59,-328.58 -407.58,-293.23C-416.94,-260.10 -431.97,-252.20 -437.99,-253.90C-444.02,-255.61 -452.68,-275.62 -443.26,-308.95C-433.21,-344.50 -422.24,-347.25 -416.22,-345.55ZM-356.74,-226.82C-339.50,-242.55 -317.98,-265.75 -302.84,-292.48L-311.83,-269.86L-326.42,-218.25L-288.06,-207.41L-298.04,-228.88L-278.18,-299.17L-267.48,-307.86L-290.37,-314.33C-332.57,-325.38 -363.24,-304.34 -373.80,-266.99C-378.39,-250.72 -377.06,-234.73 -372.22,-228.81ZM-349.16,-241.38C-351.57,-242.06 -351.39,-251.12 -345.83,-270.80C-340.10,-291.08 -326.82,-318.12 -299.85,-310.71C-306.07,-289.49 -345.34,-240.30 -349.16,-241.38ZM-238.30,-318.26L-240.01,-312.23L-255.31,-310.27L-246.02,-290.95L-270.99,-202.59L-233.04,-191.86L-243.02,-213.33L-207.60,-338.64L-247.59,-337.58ZM-107.22,-287.94L-161.53,-255.36L-161.44,-254.90L-140.72,-256.85L-160.81,-185.77L-181.63,-177.34L-123.59,-160.94L-137.92,-179.30ZM-61.61,-216.06L-72.59,-239.34L-94.34,-225.31L-83.09,-202.19ZM-76.87,-162.04L-87.86,-185.32L-109.61,-171.30L-98.36,-148.17ZM18.91,-246.22L-7.93,-151.24L-28.20,-133.98L28.02,-118.09L16.97,-144.20L27.41,-181.15C31.83,-179.90 38.97,-178.32 45.28,-177.62C66.10,-174.55 92.51,-182.05 99.49,-206.75C108.91,-240.09 70.31,-254.68 56.66,-258.54L10.67,-271.54ZM48.13,-254.45C68.61,-248.66 77.85,-234.55 71.49,-212.06C65.14,-189.57 50.03,-182.13 29.34,-187.98ZM182.38,-147.11L183.21,-147.75L175.71,-185.65L173.10,-186.39C156.48,-172.87 139.49,-150.34 127.31,-129.50L145.36,-193.36L104.81,-190.29L114.09,-170.97L93.89,-99.48L118.59,-92.50L120.45,-105.20C126.18,-125.48 154.77,-161.42 157.92,-161.83ZM193.70,-71.27C210.94,-87.00 232.45,-110.19 247.60,-136.93L238.60,-114.31L224.02,-62.70L262.38,-51.86L252.40,-73.33L272.26,-143.62L282.95,-152.31L260.06,-158.77C217.86,-169.83 187.20,-148.79 176.64,-111.44C172.04,-95.17 173.38,-79.18 178.21,-73.26ZM201.28,-85.83C198.87,-86.51 199.04,-95.57 204.61,-115.25C210.34,-135.53 223.62,-162.57 250.58,-155.16C244.37,-133.93 205.09,-84.75 201.28,-85.83ZM354.09,-104.01L354.92,-104.64L348.81,-136.73L346.80,-137.30C320.54,-138.00 288.21,-117.21 279.59,-86.68C272.04,-59.97 281.37,-43.89 298.04,-39.18C308.48,-36.23 331.53,-46.42 350.65,-74.19L348.01,-77.11C332.76,-58.43 318.34,-48.84 311.71,-50.72C302.67,-53.27 302.45,-70.90 309.77,-96.80C313.52,-110.06 322.15,-127.57 325.97,-126.49ZM436.15,-106.63L436.78,-108.84L404.85,-117.86L414.50,-152.00L382.16,-124.27L367.90,-128.30L378.21,-112.59L362.09,-55.56C353.86,-24.92 368.53,-19.26 375.76,-17.22C388.21,-13.70 407.57,-29.26 419.49,-49.97L417.51,-51.39C409.77,-40.13 396.42,-27.43 390.00,-29.24C384.58,-30.77 380.90,-33.11 387.14,-55.20L401.33,-105.41ZM492.42,-125.42L480.98,-148.61L458.89,-134.90L470.48,-111.46ZM457.03,-15.50L480.52,-98.64L439.97,-95.57L449.25,-76.25L429.05,-4.76L467.01,5.96ZM558.73,-46.18L559.55,-46.82L553.44,-78.90L551.43,-79.47C525.18,-80.17 492.84,-59.38 484.22,-28.85C476.67,-2.15 486.00,13.94 502.67,18.65C513.12,21.60 536.16,11.41 555.29,-16.36L552.64,-19.28C537.39,-0.60 522.97,8.99 516.34,7.11C507.30,4.56 507.08,-13.07 514.40,-38.97C518.15,-52.23 526.78,-69.74 530.60,-68.66ZM632.11,3.40C632.11,3.40 608.72,33.22 594.26,29.13C587.03,27.09 584.84,14.11 587.74,-3.07L642.65,-28.54C643.78,-32.55 643.15,-53.33 624.07,-58.73C599.37,-65.71 569.19,-37.15 561.01,-8.24C553.47,18.47 561.51,35.27 579.38,40.32C598.86,45.83 624.65,22.11 634.75,6.31ZM588.70,-8.00C589.30,-10.87 589.95,-13.94 590.86,-17.15C599.94,-49.28 608.03,-54.15 612.27,-55.34C615.39,-56.41 622.71,-43.93 617.98,-23.36Z" fill="#ffffff" stroke="#000000"/>
    <path d="M-478.29,-339.71L-466.08,-343.70L-465.43,-345.66L-518.71,-363.39L-519.43,-361.24L-503.36,-344.14L-514.12,-311.82C-520.06,-310.96 -527.11,-312.01 -530.83,-313.24C-564.13,-324.33 -558.54,-364.03 -548.50,-394.19C-538.26,-424.95 -522.79,-437.43 -503.99,-431.17C-482.83,-424.13 -478.18,-404.74 -474.98,-386.26L-472.43,-385.41L-459.19,-425.18L-488.38,-434.90C-533.24,-449.83 -570.38,-421.28 -581.99,-386.41C-594.77,-348.02 -582.61,-314.59 -549.11,-303.44C-536.77,-299.34 -524.04,-300.97 -512.87,-304.44L-498.70,-288.19L-495.76,-287.21ZM-459.28,-319.67C-468.08,-293.23 -457.10,-272.60 -436.14,-265.63C-409.50,-256.76 -377.06,-277.08 -366.89,-307.64C-358.28,-333.49 -367.63,-355.10 -392.12,-363.25C-419.74,-372.44 -448.78,-351.21 -459.28,-319.67ZM-401.84,-359.52C-395.97,-357.57 -384.21,-341.90 -395.68,-307.43C-406.44,-275.10 -421.65,-267.98 -427.53,-269.94C-433.40,-271.89 -441.05,-292.06 -430.23,-324.58C-418.69,-359.26 -407.72,-361.48 -401.84,-359.52ZM-348.45,-239.48C-330.70,-254.25 -308.38,-276.19 -292.20,-301.92L-302.11,-279.98L-318.87,-229.64L-281.45,-217.18L-290.34,-238.85L-267.52,-307.42L-256.56,-315.52L-278.89,-322.95C-320.09,-335.80 -351.36,-316.39 -363.48,-279.95C-368.77,-264.09 -368.17,-248.22 -363.66,-242.15ZM-340.30,-253.52C-342.65,-254.31 -342.06,-263.25 -335.67,-282.45C-329.09,-302.23 -314.73,-328.35 -288.42,-319.81C-295.53,-299.11 -336.57,-252.28 -340.30,-253.52ZM-227.25,-324.48L-229.20,-318.60L-244.41,-317.35L-236.11,-297.83L-264.80,-211.64L-227.78,-199.32L-236.67,-220.99L-195.98,-343.23L-235.55,-343.99ZM-99.07,-288.56L-154.23,-258.83L-154.16,-258.37L-133.59,-259.36L-156.68,-190.01L-177.63,-182.63L-121.02,-163.78L-134.34,-182.58ZM-57.25,-215.45L-67.06,-238.95L-89.18,-226.08L-79.12,-202.71ZM-74.79,-162.76L-84.60,-186.26L-106.72,-173.39L-96.66,-150.02ZM23.69,-241.60L-7.15,-148.95L-27.97,-132.81L26.88,-114.55L17.14,-140.86L29.14,-176.90C33.45,-175.47 40.44,-173.58 46.64,-172.60C67.08,-168.63 93.51,-174.84 101.53,-198.94C112.36,-231.46 74.88,-247.63 61.56,-252.07L16.70,-267.00ZM52.94,-248.41C72.92,-241.75 81.41,-227.40 74.11,-205.46C66.81,-183.51 51.53,-176.85 31.36,-183.56ZM180.76,-136.23L181.61,-136.82L175.91,-174.62L173.36,-175.47C156.33,-162.86 138.51,-141.37 125.53,-121.32L146.26,-183.61L106.05,-182.42L114.35,-162.90L91.13,-93.17L115.23,-85.15L117.64,-97.62C124.23,-117.40 154.11,-151.63 157.25,-151.89ZM188.49,-60.76C206.25,-75.52 228.56,-97.47 244.75,-123.20L234.83,-101.26L218.07,-50.91L255.49,-38.46L246.60,-60.13L269.42,-128.70L280.39,-136.80L258.05,-144.23C216.85,-157.07 185.59,-137.67 173.46,-101.23C168.18,-85.37 168.77,-69.50 173.28,-63.43ZM196.65,-74.80C194.30,-75.58 194.88,-84.53 201.27,-103.73C207.86,-123.51 222.21,-149.63 248.52,-141.09C241.42,-120.39 200.37,-73.56 196.65,-74.80ZM348.50,-85.84L349.35,-86.42L344.77,-118.41L342.81,-119.06C316.89,-120.95 283.99,-101.87 274.08,-72.09C265.41,-46.04 273.90,-29.72 290.16,-24.31C300.35,-20.92 323.59,-29.94 343.75,-56.52L341.27,-59.52C325.35,-41.76 310.66,-32.94 304.20,-35.09C295.38,-38.02 295.96,-55.45 304.37,-80.72C308.68,-93.65 318.00,-110.57 321.73,-109.33ZM429.72,-84.70L430.44,-86.85L399.29,-97.22L410.38,-130.52L377.16,-104.59L363.25,-109.22L372.72,-93.22L354.21,-37.59C344.69,-7.68 358.92,-1.42 365.97,0.93C378.12,4.97 397.96,-9.53 410.68,-29.45L408.79,-30.95C400.63,-20.18 386.86,-8.22 380.59,-10.31C375.31,-12.07 371.78,-14.55 378.95,-36.10L395.25,-85.07ZM486.19,-100.72L475.93,-124.15L453.48,-111.60L463.87,-87.91ZM446.22,6.31L473.21,-74.79L432.99,-73.60L441.29,-54.08L418.08,15.66L455.10,27.98ZM548.12,-19.39L548.97,-19.98L544.38,-51.97L542.43,-52.62C516.51,-54.50 483.61,-35.43 473.70,-5.65C465.03,20.40 473.52,36.72 489.78,42.13C499.97,45.52 523.20,36.50 543.37,9.92L540.88,6.92C524.96,24.69 510.28,33.51 503.81,31.36C495.00,28.42 495.58,10.99 503.99,-14.28C508.29,-27.21 517.62,-44.12 521.34,-42.89ZM618.39,32.94C618.39,32.94 593.92,61.35 579.82,56.65C572.77,54.31 571.19,41.38 574.84,24.53L630.26,1.86C631.57,-2.06 631.88,-22.63 613.27,-28.82C589.18,-36.84 558.05,-10.00 548.66,18.21C539.99,44.27 547.18,61.24 564.61,67.04C583.61,73.37 610.17,51.09 620.88,35.94ZM576.02,19.70C576.73,16.89 577.51,13.89 578.56,10.76C588.99,-20.59 597.21,-25.03 601.46,-26.01C604.59,-26.93 611.26,-14.26 605.65,5.85Z" fill="#ffffff" stroke="#000000"/>
    <path d="M-463.37,-356.82L-451.12,-360.21L-450.39,-362.11L-502.24,-382.06L-503.05,-379.96L-487.94,-362.33L-500.04,-330.88C-505.95,-330.31 -512.87,-331.66 -516.50,-333.05C-548.90,-345.52 -541.57,-384.49 -530.28,-413.85C-518.76,-443.78 -502.91,-455.40 -484.61,-448.36C-464.02,-440.45 -460.32,-421.07 -457.98,-402.67L-455.51,-401.72L-440.62,-440.41L-469.02,-451.34C-512.68,-468.13 -550.67,-441.61 -563.72,-407.68C-578.10,-370.31 -567.60,-336.73 -535.00,-324.20C-522.99,-319.58 -510.34,-320.62 -499.15,-323.53L-485.88,-306.83L-483.02,-305.73ZM-445.49,-336.16C-455.39,-310.42 -445.48,-289.54 -425.09,-281.70C-399.16,-271.72 -366.18,-290.33 -354.74,-320.07C-345.06,-345.23 -353.32,-367.01 -377.15,-376.17C-404.02,-386.51 -433.69,-366.85 -445.49,-336.16ZM-386.93,-372.93C-381.21,-370.73 -370.30,-354.72 -383.20,-321.17C-395.30,-289.72 -410.66,-283.37 -416.37,-285.57C-422.09,-287.77 -428.74,-308.05 -416.56,-339.69C-403.58,-373.43 -392.65,-375.13 -386.93,-372.93ZM-339.61,-251.88C-321.40,-265.66 -298.35,-286.34 -281.19,-311.03L-291.98,-289.80L-310.83,-240.81L-274.42,-226.80L-282.22,-248.62L-256.56,-315.34L-245.35,-322.85L-267.08,-331.21C-307.22,-345.77 -338.99,-328.01 -352.63,-292.56C-358.57,-277.12 -358.70,-261.41 -354.53,-255.21ZM-330.92,-265.39C-333.20,-266.27 -332.22,-275.08 -325.04,-293.76C-317.63,-313.01 -302.26,-338.17 -276.64,-328.54C-284.61,-308.41 -327.29,-263.99 -330.92,-265.39ZM-215.98,-330.37L-218.18,-324.65L-233.27,-324.11L-225.95,-304.44L-258.22,-220.57L-222.19,-206.71L-229.99,-228.53L-184.23,-347.48L-223.30,-350.03ZM-90.95,-289.06L-146.80,-262.18L-146.76,-261.73L-126.39,-261.77L-152.35,-194.29L-173.39,-187.94L-118.30,-166.75L-130.62,-185.93ZM-52.94,-214.92L-61.56,-238.58L-84.01,-226.87L-75.13,-203.32ZM-72.67,-163.64L-81.29,-187.31L-103.74,-175.59L-94.85,-152.04ZM28.24,-237.08L-6.45,-146.92L-27.75,-131.92L25.62,-111.39L17.19,-137.83L30.68,-172.90C34.88,-171.29 41.70,-169.10 47.78,-167.86C67.80,-163.00 94.21,-167.94 103.22,-191.39C115.40,-223.03 79.09,-240.72 66.13,-245.70L22.48,-262.50ZM57.45,-242.48C76.89,-235.00 84.63,-220.42 76.42,-199.07C68.21,-177.72 52.81,-171.83 33.18,-179.38ZM178.67,-125.82L179.53,-126.37L175.62,-163.98L173.14,-164.93C155.73,-153.25 137.15,-132.82 123.41,-113.60L146.73,-174.22L106.93,-174.86L114.25,-155.20L88.15,-87.34L111.59,-78.32L114.54,-90.53C121.95,-109.78 153.03,-142.25 156.14,-142.37ZM182.89,-50.89C201.10,-64.68 224.15,-85.35 241.31,-110.04L230.51,-88.81L211.67,-39.82L248.08,-25.82L240.28,-47.64L265.94,-114.35L277.15,-121.86L255.42,-130.22C215.28,-144.78 183.51,-127.03 169.87,-91.57C163.93,-76.13 163.79,-60.43 167.97,-54.22ZM191.58,-64.40C189.29,-65.28 190.28,-74.09 197.46,-92.77C204.87,-112.02 220.24,-137.19 245.85,-127.55C237.89,-107.42 195.20,-63.00 191.58,-64.40ZM342.15,-68.41L343.01,-68.95L339.93,-100.77L338.03,-101.51C312.50,-104.54 279.12,-87.18 267.98,-58.21C258.23,-32.85 265.88,-16.34 281.70,-10.26C291.61,-6.44 314.99,-14.30 336.12,-39.65L333.80,-42.73C317.26,-25.90 302.35,-17.85 296.06,-20.27C287.48,-23.57 288.84,-40.77 298.30,-65.36C303.14,-77.94 313.13,-94.23 316.75,-92.84ZM422.36,-63.60L423.16,-65.69L392.85,-77.35L405.32,-109.76L371.31,-85.64L357.78,-90.84L366.42,-74.61L345.59,-20.47C334.83,8.65 348.61,15.48 355.47,18.12C367.29,22.67 387.56,9.24 401.03,-9.87L399.23,-11.44C390.68,-1.16 376.53,10.03 370.43,7.68C365.28,5.70 361.91,3.09 369.98,-17.88L388.31,-65.53ZM478.89,-76.86L469.81,-100.49L447.05,-89.11L456.24,-65.22ZM434.52,27.08L464.88,-51.83L425.08,-52.48L432.40,-32.82L406.30,35.05L442.32,48.90ZM536.39,6.31L537.26,5.77L534.18,-26.05L532.27,-26.79C506.74,-29.82 473.37,-12.46 462.22,16.51C452.47,41.87 460.13,58.38 475.95,64.46C485.86,68.28 509.23,60.42 530.36,35.07L528.05,31.99C511.51,48.82 496.59,56.87 490.30,54.45C481.73,51.15 483.09,33.95 492.55,9.36C497.39,-3.22 507.37,-19.51 511.00,-18.12ZM603.46,61.21C603.46,61.21 577.99,88.18 564.26,82.90C557.40,80.26 556.44,67.41 560.81,50.93L616.60,31.04C618.07,27.22 619.32,6.92 601.21,-0.05C577.76,-9.07 545.78,16.05 535.22,43.50C525.47,68.85 531.80,85.95 548.76,92.47C567.26,99.59 594.52,78.78 605.78,64.29ZM562.18,46.21C563.02,43.47 563.93,40.54 565.10,37.49C576.83,6.99 585.16,2.97 589.40,2.19C592.54,1.43 598.55,14.25 592.10,33.87Z" fill="#ffffff" stroke="#000000"/>
    <path d="M-447.75,-373.29L-435.50,-376.08L-434.69,-377.93L-485.01,-399.99L-485.91,-397.96L-471.78,-379.86L-485.17,-349.33C-491.03,-349.03 -497.81,-350.68 -501.32,-352.22C-532.78,-366.01 -523.76,-404.18 -511.27,-432.68C-498.54,-461.73 -482.35,-472.50 -464.59,-464.71C-444.60,-455.95 -441.82,-436.64 -440.35,-418.35L-437.94,-417.30L-421.48,-454.86L-449.05,-466.94C-491.42,-485.52 -530.17,-461.03 -544.60,-428.10C-560.50,-391.83 -551.65,-358.18 -520.01,-344.31C-508.35,-339.20 -495.80,-339.65 -484.62,-342.03L-472.26,-324.92L-469.49,-323.70ZM-431.03,-352.06C-441.98,-327.09 -433.13,-306.00 -413.33,-297.33C-388.17,-286.30 -354.74,-303.18 -342.09,-332.05C-331.38,-356.47 -338.55,-378.36 -361.68,-388.50C-387.77,-399.94 -417.97,-381.85 -431.03,-352.06ZM-371.49,-385.74C-365.94,-383.31 -355.88,-366.99 -370.16,-334.43C-383.54,-303.90 -399.00,-298.32 -404.55,-300.75C-410.10,-303.19 -415.74,-323.53 -402.28,-354.24C-387.92,-386.99 -377.04,-388.18 -371.49,-385.74ZM-330.23,-263.99C-311.61,-276.78 -287.89,-296.16 -269.82,-319.78L-281.45,-299.29L-302.29,-251.74L-266.95,-236.25L-273.67,-258.16L-245.28,-322.92L-233.87,-329.83L-254.97,-339.08C-293.96,-355.29 -326.16,-339.18 -341.25,-304.77C-347.82,-289.78 -348.66,-274.27 -344.82,-267.95ZM-321.03,-276.94C-323.25,-277.91 -321.88,-286.57 -313.93,-304.70C-305.74,-323.39 -289.41,-347.56 -264.53,-336.87C-273.32,-317.34 -317.51,-275.39 -321.03,-276.94ZM-204.51,-335.93L-206.94,-330.38L-221.88,-330.53L-215.54,-310.77L-251.23,-229.35L-216.26,-214.03L-222.97,-235.94L-172.36,-351.40L-210.85,-355.69ZM-82.84,-289.43L-139.25,-265.41L-139.23,-264.96L-119.10,-264.08L-147.81,-198.58L-168.89,-193.26L-115.42,-169.82L-126.72,-189.33ZM-48.65,-214.45L-56.10,-238.23L-78.81,-227.67L-71.10,-204.00ZM-70.47,-164.68L-77.91,-188.46L-100.63,-177.90L-92.92,-154.23ZM32.56,-232.67L-5.80,-145.15L-27.53,-131.30L24.28,-108.59L17.15,-135.10L32.07,-169.14C36.14,-167.36 42.78,-164.89 48.73,-163.38C68.29,-157.67 94.61,-161.36 104.59,-184.12C118.05,-214.83 82.98,-233.95 70.40,-239.47L28.03,-258.04ZM61.67,-236.67C80.54,-228.40 87.53,-213.65 78.45,-192.93C69.36,-172.20 53.88,-167.08 34.83,-175.43ZM176.15,-115.91L177.03,-116.40L174.87,-153.75L172.47,-154.80C154.74,-144.04 135.45,-124.71 121.00,-106.33L146.79,-165.17L107.50,-167.62L113.84,-147.86L84.96,-81.99L107.72,-72.01L111.19,-83.95C119.38,-102.63 151.57,-133.30 154.65,-133.27ZM176.92,-41.68C195.54,-54.47 219.26,-73.85 237.33,-97.47L225.70,-76.98L204.86,-29.43L240.20,-13.94L233.48,-35.85L261.87,-100.61L273.28,-107.52L252.19,-116.77C213.19,-132.98 180.99,-116.88 165.90,-82.46C159.33,-67.47 158.49,-51.96 162.34,-45.64ZM186.13,-54.63C183.91,-55.60 185.28,-64.26 193.23,-82.40C201.42,-101.08 217.74,-125.25 242.62,-114.57C233.84,-95.03 189.64,-53.09 186.13,-54.63ZM335.08,-51.76L335.96,-52.25L334.36,-83.83L332.51,-84.65C307.43,-88.80 273.66,-73.17 261.33,-45.04C250.55,-20.43 257.36,-3.77 272.72,2.96C282.34,7.18 305.79,0.47 327.82,-23.62L325.67,-26.77C308.56,-10.88 293.46,-3.61 287.35,-6.28C279.03,-9.93 281.16,-26.87 291.62,-50.74C296.97,-62.95 307.58,-78.59 311.10,-77.05ZM414.12,-43.36L415.01,-45.40L385.59,-58.29L399.38,-89.75L364.68,-67.46L351.54,-73.21L359.34,-56.78L336.31,-4.24C324.35,24.05 337.66,31.43 344.32,34.35C355.79,39.38 376.43,27.02 390.61,8.76L388.90,7.13C379.98,16.89 365.49,27.31 359.57,24.71C354.58,22.52 351.36,19.79 360.28,-0.56L380.56,-46.82ZM470.57,-53.90L462.68,-77.66L439.67,-67.45L447.67,-43.43ZM422.02,46.79L455.60,-29.81L416.31,-32.25L422.64,-12.49L393.77,53.38L428.74,68.71ZM523.62,30.89L524.50,30.39L522.90,-1.19L521.05,-2.00C495.97,-6.16 462.20,9.48 449.87,37.60C439.09,62.21 445.90,78.87 461.26,85.61C470.88,89.82 494.33,83.12 516.36,59.03L514.21,55.88C497.10,71.76 482.00,79.04 475.89,76.36C467.57,72.71 469.70,55.78 480.16,31.91C485.51,19.70 496.12,4.06 499.64,5.60ZM587.40,88.18C587.40,88.18 561.01,113.67 547.68,107.83C541.02,104.91 540.65,92.17 545.72,76.09L601.75,58.96C603.37,55.26 605.53,35.25 587.95,27.55C565.19,17.57 532.45,40.94 520.77,67.58C509.99,92.19 515.47,109.37 531.93,116.59C549.88,124.46 577.76,105.13 589.55,91.33ZM547.29,71.49C548.24,68.81 549.28,65.96 550.57,63.00C563.55,33.39 571.96,29.80 576.18,29.23C579.32,28.62 584.68,41.55 577.41,60.64Z" fill="#ffffff" stroke="#000000"/>
    <path d="M-431.46,-389.09L-419.23,-391.29L-418.34,-393.08L-467.06,-417.16L-468.04,-415.19L-454.91,-396.67L-469.51,-367.11C-475.32,-367.09 -481.94,-369.02 -485.35,-370.70C-515.80,-385.75 -505.16,-423.06 -491.52,-450.65C-477.62,-478.77 -461.14,-488.67 -443.94,-480.18C-424.60,-470.62 -422.72,-451.41 -422.10,-433.28L-419.78,-432.13L-401.80,-468.49L-428.49,-481.68C-469.51,-501.95 -508.90,-479.52 -524.66,-447.64C-542.01,-412.53 -534.80,-378.87 -504.17,-363.74C-492.88,-358.16 -480.46,-358.04 -469.30,-359.88L-457.87,-342.42L-455.19,-341.09ZM-415.90,-367.36C-427.85,-343.18 -420.07,-321.95 -400.90,-312.48C-376.54,-300.44 -342.75,-315.61 -328.94,-343.55C-317.25,-367.19 -323.34,-389.15 -345.73,-400.21C-370.99,-412.69 -401.65,-396.20 -415.90,-367.36ZM-355.55,-397.93C-350.18,-395.28 -340.99,-378.70 -356.57,-347.17C-371.17,-317.62 -386.70,-312.81 -392.07,-315.47C-397.45,-318.12 -402.10,-338.47 -387.40,-368.21C-371.73,-399.91 -360.92,-400.59 -355.55,-397.93ZM-320.32,-275.77C-301.34,-287.56 -277.03,-305.63 -258.10,-328.15L-270.52,-308.43L-293.27,-262.40L-259.06,-245.49L-264.70,-267.45L-233.71,-330.14L-222.13,-336.45L-242.55,-346.54C-280.34,-364.33 -312.88,-349.88 -329.35,-316.56C-336.52,-302.05 -338.06,-286.77 -334.54,-280.35ZM-310.63,-288.14C-312.78,-289.21 -311.04,-297.70 -302.36,-315.26C-293.42,-333.35 -276.19,-356.48 -252.10,-344.80C-261.66,-325.90 -307.23,-286.46 -310.63,-288.14ZM-192.84,-341.14L-195.50,-335.77L-210.24,-336.59L-204.88,-316.78L-243.83,-237.97L-209.98,-221.24L-215.62,-243.19L-160.38,-354.96L-198.21,-360.95ZM-74.75,-289.68L-131.57,-268.51L-131.56,-268.06L-111.72,-266.28L-143.06,-202.87L-164.13,-198.57L-112.36,-172.99L-122.64,-192.78ZM-44.37,-214.05L-50.65,-237.88L-73.57,-228.48L-67.03,-204.74ZM-68.19,-165.87L-74.46,-189.70L-97.38,-180.30L-90.84,-156.56ZM36.69,-228.36L-5.18,-143.64L-27.28,-130.94L22.87,-106.15L17.03,-132.66L33.32,-165.62C37.26,-163.67 43.71,-160.93 49.52,-159.17C68.59,-152.65 94.76,-155.09 105.65,-177.13C120.34,-206.86 86.56,-227.34 74.38,-233.36L33.36,-253.64ZM65.63,-231.00C83.90,-221.97 90.14,-207.08 80.22,-187.02C70.31,-166.96 54.78,-162.59 36.33,-171.71ZM173.26,-106.49L174.15,-106.94L173.71,-143.93L171.38,-145.08C153.38,-135.26 133.44,-117.03 118.33,-99.54L146.49,-156.50L107.78,-160.69L113.14,-140.88L81.62,-77.12L103.66,-66.23L107.62,-77.86C116.56,-95.95 149.76,-124.79 152.80,-124.63ZM170.65,-33.12C189.62,-44.91 213.93,-62.99 232.86,-85.50L220.44,-65.79L197.69,-19.75L231.90,-2.84L226.26,-24.80L257.25,-87.49L268.83,-93.80L248.41,-103.89C210.62,-121.68 178.08,-107.23 161.61,-73.91C154.44,-59.40 152.90,-44.12 156.42,-37.70ZM180.33,-45.50C178.18,-46.56 179.93,-55.05 188.60,-72.61C197.54,-90.70 214.77,-113.83 238.86,-102.15C229.30,-83.25 183.73,-43.81 180.33,-45.50ZM327.36,-35.90L328.25,-36.35L328.11,-67.62L326.32,-68.51C301.72,-73.76 267.65,-59.84 254.19,-32.61C242.42,-8.79 248.40,7.98 263.26,15.33C272.58,19.93 296.05,14.37 318.91,-8.43L316.93,-11.64C299.31,3.28 284.06,9.78 278.15,6.86C270.09,2.88 272.96,-13.76 284.38,-36.86C290.22,-48.68 301.41,-63.66 304.81,-61.98ZM405.06,-24.02L406.04,-25.99L377.56,-40.06L392.61,-70.51L357.32,-50.07L344.60,-56.35L351.56,-39.76L326.42,11.11C313.32,38.51 326.13,46.40 332.58,49.59C343.69,55.08 364.63,43.81 379.47,26.41L377.86,24.72C368.61,33.96 353.82,43.59 348.09,40.76C343.25,38.37 340.20,35.52 349.94,15.82L372.07,-28.96ZM461.32,-31.87L454.60,-55.70L431.41,-46.66L438.22,-22.56ZM408.78,65.41L445.43,-8.75L406.72,-12.95L412.09,6.87L380.57,70.63L414.43,87.36ZM509.88,54.31L510.77,53.86L510.63,22.58L508.84,21.70C484.24,16.45 450.17,30.37 436.72,57.60C424.94,81.42 430.92,98.19 445.78,105.54C455.10,110.14 478.57,104.58 501.43,81.78L499.45,78.57C481.83,93.49 466.58,99.99 460.67,97.07C452.61,93.08 455.48,76.45 466.90,53.35C472.74,41.52 483.93,26.55 487.33,28.23ZM570.29,113.81C570.29,113.81 543.06,137.79 530.16,131.42C523.72,128.23 523.93,115.63 529.66,99.97L585.80,85.59C587.57,82.01 590.61,62.33 573.59,53.92C551.56,43.04 518.15,64.64 505.40,90.43C493.63,114.25 498.27,131.47 514.21,139.35C531.58,147.94 560.00,130.12 572.27,117.01ZM531.43,95.49C532.49,92.89 533.64,90.12 535.05,87.25C549.22,58.59 557.69,55.43 561.89,55.05C565.01,54.59 569.72,67.61 561.68,86.15Z" fill="#ffffff" stroke="#000000"/>
    <path d="M-910.99,465.97L-908.82,469.92L-908.82,487.97L-910.99,492L-903.01,492C-897.88,492 -890.88,490.52 -890.88,485.05C-890.88,481.17 -893.70,478.93 -898.22,477.86C-895.52,476.80 -892.48,475.13 -892.48,471.71C-892.48,467.19 -897.23,465.97 -902.70,465.97ZM-904.11,467.19L-902.85,467.19C-900.38,467.19 -897.15,467.91 -897.15,472.47C-897.15,475.43 -899.47,477.64 -904.11,477.64ZM-904.11,490.52L-904.11,478.59C-899.47,478.59 -896.20,479.92 -896.20,484.93C-896.20,488.58 -899.28,490.52 -902.97,490.52ZM-886.02,470.11L-886.02,471.25L-888.60,472.35L-886.02,475.28L-886.02,492L-878.84,492L-881.65,488.73L-881.65,465.02L-888.60,467.19ZM-866.26,492L-859.31,492L-861.89,489.07L-861.89,473.38L-866.83,473.38L-866.26,475.70C-866.26,478.97 -869.11,485.54 -871.01,489.23C-871.16,487.71 -871.28,485.27 -871.28,478.85L-871.28,472.62L-878.46,473.38L-875.65,476.65L-875.65,485.81C-875.65,488.58 -875.15,491.09 -874.92,492.30L-871.50,492C-870.71,490.90 -867.74,485.39 -866.26,479.76ZM-846.42,492L-839.47,492L-842.05,489.07L-842.05,473.38L-846.99,473.38L-846.42,475.70C-846.42,478.97 -849.27,485.54 -851.17,489.23C-851.33,487.71 -851.44,485.27 -851.44,478.85L-851.44,472.62L-858.62,473.38L-855.81,476.65L-855.81,485.81C-855.81,488.58 -855.32,491.09 -855.09,492.30L-851.67,492C-850.87,490.90 -847.91,485.39 -846.42,479.76ZM-818.95,492L-813.33,492L-814.88,489.80L-814.88,469.50L-812.22,465.97L-819.75,465.97L-816.63,469.24L-816.63,487.67L-831.45,465.97L-837.42,465.97L-833.92,470.80L-833.92,488.47L-836.58,492L-829.13,492L-832.21,488.73L-832.21,473.42ZM-796.11,483.37C-796.11,483.37 -798.73,489.76 -801.47,489.76C-802.84,489.76 -803.86,487.59 -804.21,484.44L-795.85,477.26C-795.85,476.50 -796.99,472.89 -800.60,472.89C-805.27,472.89 -809.15,479.38 -809.15,484.86C-809.15,489.91 -806.90,492.46 -803.52,492.46C-799.84,492.46 -796.49,487.02 -795.50,483.75ZM-804.28,483.53C-804.32,482.99 -804.36,482.42 -804.36,481.82C-804.36,475.74 -803.18,474.48 -802.50,474.06C-802.00,473.72 -800.10,475.55 -799.91,479.38ZM-781.06,492L-774.68,492L-777.87,489.53L-782.39,481.74C-780.99,479.92 -778.59,476.65 -777.42,473.38L-782.85,473.38L-780.38,475.47C-780.38,477.60 -781.94,479.42 -782.93,480.83L-787.26,473.38L-793.64,473.38L-790.87,475.77L-786.54,482.99C-788.17,485.05 -791.48,488.92 -792.58,492L-786.80,492L-789.08,489.91C-789.08,487.90 -787.18,485.54 -785.97,483.91ZM-760.77,473.80L-760.77,473.38L-766.81,473.38L-766.81,466.92L-771.11,473.38L-773.81,473.38L-771.22,475.62L-771.22,486.41C-771.15,492.19 -768.30,492.46 -766.93,492.46C-764.57,492.46 -761.95,488.77 -760.89,484.55L-761.30,484.40C-762.10,486.76 -763.81,489.64 -765.03,489.64C-766.05,489.64 -766.81,489.42 -766.81,485.24L-766.81,475.74ZM-758.45,479.84L-758.45,482.73L-749.98,482.73L-749.98,479.84ZM-746.83,465.97L-744.66,469.92L-744.66,487.97L-746.83,492L-738.85,492C-733.72,492 -726.72,490.52 -726.72,485.05C-726.72,481.17 -729.54,478.93 -734.06,477.86C-731.36,476.80 -728.32,475.13 -728.32,471.71C-728.32,467.19 -733.07,465.97 -738.54,465.97ZM-739.95,467.19L-738.69,467.19C-736.22,467.19 -732.99,467.91 -732.99,472.47C-732.99,475.43 -735.31,477.64 -739.95,477.64ZM-739.95,490.52L-739.95,478.59C-735.31,478.59 -732.04,479.92 -732.04,484.93C-732.04,488.58 -735.12,490.52 -738.81,490.52ZM-723.80,484.44C-723.80,489.57 -720.68,492.53 -716.62,492.53C-711.45,492.53 -706.96,487.10 -706.96,481.17C-706.96,476.15 -709.85,472.92 -714.60,472.92C-719.96,472.92 -723.80,478.32 -723.80,484.44ZM-716.08,474.14C-714.94,474.14 -711.98,476.19 -711.98,482.88C-711.98,489.15 -714.22,491.28 -715.36,491.28C-716.50,491.28 -719.01,488.20 -719.01,481.89C-719.01,475.17 -717.22,474.14 -716.08,474.14ZM-702.82,470.11L-702.82,471.25L-705.41,472.35L-702.82,475.28L-702.82,492L-695.64,492L-698.45,488.73L-698.45,465.02L-705.41,467.19ZM-676.15,492L-678.96,489.34L-678.96,465.02L-685.91,467.19L-683.33,470.11L-683.33,473.46C-690.43,474.22 -694.35,479.35 -694.35,485.81C-694.35,488.88 -693.09,491.62 -691.95,492.42L-689.14,492C-686.90,488.39 -684.28,483.26 -682.95,477.83L-683.40,482.23L-683.40,492.34ZM-688.53,489.07C-688.99,489.07 -689.64,487.48 -689.64,483.75C-689.64,479.92 -688.42,474.52 -683.33,474.48C-683.37,478.51 -687.81,489.07 -688.53,489.07ZM-671.36,487.97L-674.02,492L-663.99,492L-666.65,487.97L-666.65,470.00L-663.99,465.97L-674.02,465.97L-671.36,470.00ZM-649.13,473.80L-649.13,473.38L-655.17,473.38L-655.17,466.92L-659.46,473.38L-662.16,473.38L-659.58,475.62L-659.58,486.41C-659.50,492.19 -656.65,492.46 -655.28,492.46C-652.93,492.46 -650.31,488.77 -649.24,484.55L-649.66,484.40C-650.46,486.76 -652.17,489.64 -653.38,489.64C-654.41,489.64 -655.17,489.42 -655.17,485.24L-655.17,475.74ZM-642.29,492C-640.05,488.39 -637.42,483.26 -636.09,477.83L-636.55,482.23L-636.55,492L-629.29,492L-632.10,488.73L-632.10,475.43L-630.66,473.38L-634.99,473.38C-642.93,473.53 -647.27,478.74 -647.27,485.81C-647.27,488.88 -646.24,491.62 -645.10,492.42ZM-641.68,489.07C-642.14,489.07 -642.55,487.48 -642.55,483.75C-642.55,479.92 -641.57,474.52 -636.47,474.48C-636.51,478.51 -640.96,489.07 -641.68,489.07ZM-626.06,470.11L-626.06,471.25L-628.65,472.35L-626.06,475.28L-626.06,492L-618.88,492L-621.69,488.73L-621.69,465.02L-628.65,467.19ZM-610.52,467.72L-613.67,464.22L-616.87,467.72L-613.67,471.25ZM-611.28,488.73L-611.28,473L-618.23,475.55L-615.65,478.47L-615.65,492L-608.47,492ZM-594.98,478.32L-594.86,478.17L-597.52,472.85L-597.90,472.85C-602.54,474.03 -607.18,479.27 -607.18,485.05C-607.18,490.10 -604.74,492.46 -601.59,492.46C-599.61,492.46 -596.08,489.53 -594.10,483.72L-594.71,483.34C-596.46,487.36 -598.51,489.76 -599.77,489.76C-601.48,489.76 -602.39,486.68 -602.39,481.78C-602.39,479.27 -601.74,475.77 -601.02,475.77Z"/>
</svg>