<?xml version="1.0"?>
<svg xmlns="http://www.w3.org/2000/svg" width="1920" height="1080" viewBox="-960 -540 1920 1080">
    <path d="M-142.08,-280.20L-150.96,-333.48L-168.72,-324.60L-213.12,-333.48L-239.76,-315.72L-248.64,-289.08L-239.76,-253.56L-222,-218.04L-204.24,-191.40L-204.24,-173.64L-213.12,-164.76L-230.88,-155.88L-257.52,-155.88L-284.16,-200.28L-293.04,-200.28L-284.16,-138.12L-266.40,-147L-222,-138.12L-186.48,-155.88L-177.60,-191.40L-186.48,-226.92L-204.24,-262.44L-222,-289.08L-213.12,-306.84L-204.24,-315.72L-177.60,-315.72L-150.96,-280.20ZM-142.08,-147L-133.20,-147L-124.32,-164.76L-124.32,-173.64L-142.08,-182.52L-150.96,-182.52L-159.84,-164.76L-159.84,-155.88ZM17.76,-164.76L44.40,-191.40L62.16,-218.04L71.04,-262.44L53.28,-306.84L8.88,-324.60L-17.76,-324.60L-53.28,-306.84L-79.92,-280.20L-97.68,-253.56L-106.56,-209.16L-88.80,-164.76L-44.40,-147L-17.76,-147ZM35.52,-271.32L35.52,-244.68L17.76,-191.40L-8.88,-164.76L-26.64,-155.88L-44.40,-155.88L-62.16,-164.76L-71.04,-200.28L-71.04,-226.92L-53.28,-280.20L-8.88,-315.72L8.88,-315.72L26.64,-306.84ZM88.80,-147L97.68,-147L106.56,-164.76L106.56,-173.64L88.80,-182.52L79.92,-182.52L71.04,-164.76L71.04,-155.88ZM266.40,-280.20L257.52,-333.48L239.76,-324.60L195.36,-333.48L168.72,-315.72L159.84,-289.08L168.72,-253.56L186.48,-218.04L204.24,-191.40L204.24,-173.64L195.36,-164.76L177.60,-155.88L150.96,-155.88L124.32,-200.28L115.44,-200.28L124.32,-138.12L142.08,-147L186.48,-138.12L222.00,-155.88L230.88,-191.40L222.00,-226.92L204.24,-262.44L186.48,-289.08L195.36,-306.84L204.24,-315.72L230.88,-315.72L257.52,-280.20ZM266.40,-147L275.28,-147L284.16,-164.76L284.16,-173.64L266.40,-182.52L257.52,-182.52L248.64,-164.76L248.64,-155.88Z" fill="#ffffff" stroke="#000000"/>
    <path d="M-134.83,-280.40L-141.38,-333.47L-159.32,-325.43L-202.86,-336.08L-229.96,-319.63L-239.86,-293.65L-232.57,-258.15L-216.49,-222.27L-200.04,-195.17L-200.79,-177.61L-209.94,-169.19L-227.88,-161.16L-254.23,-162.27L-278.72,-207.31L-287.50,-207.68L-281.33,-145.83L-263.39,-153.86L-219.85,-143.22L-183.97,-159.29L-173.69,-194.05L-180.99,-229.56L-197.06,-265.44L-213.51,-292.53L-203.98,-309.73L-194.83,-318.14L-168.48,-317.02L-143.62,-280.77ZM-140.42,-148.65L-131.64,-148.27L-122.11,-165.47L-121.74,-174.25L-138.93,-183.78L-147.72,-184.15L-157.25,-166.96L-157.62,-158.18ZM18.42,-159.50L45.89,-184.74L64.57,-210.34L75.22,-253.89L59.52,-298.55L16.35,-317.98L-10.00,-319.09L-45.88,-303.02L-73.35,-277.79L-92.04,-252.18L-102.68,-208.64L-86.98,-163.98L-43.81,-144.55L-17.46,-143.43ZM40.46,-264.16L39.34,-237.81L19.54,-185.85L-7.93,-160.62L-25.87,-152.59L-43.43,-153.33L-60.63,-162.86L-67.92,-198.36L-66.80,-224.71L-47.00,-276.67L-1.59,-309.94L15.97,-309.19L33.17,-299.66ZM87.94,-138.96L96.73,-138.58L106.25,-155.78L106.63,-164.56L89.43,-174.09L80.65,-174.46L71.12,-157.27L70.75,-148.49ZM269.20,-263.25L262.65,-316.32L244.71,-308.29L201.17,-318.93L174.07,-302.49L164.17,-276.51L171.46,-241.00L187.54,-205.12L203.99,-178.03L203.24,-160.46L194.09,-152.05L176.15,-144.01L149.80,-145.13L125.31,-190.17L116.53,-190.54L122.70,-128.68L140.64,-136.72L184.19,-126.07L220.06,-142.15L230.34,-176.91L223.05,-212.42L206.97,-248.29L190.52,-275.39L200.05,-292.58L209.21,-300.99L235.56,-299.88L260.41,-263.63ZM263.61,-131.50L272.39,-131.13L281.92,-148.32L282.29,-157.11L265.10,-166.64L256.32,-167.01L246.79,-149.82L246.41,-141.03Z" fill="#ffffff" stroke="#000000"/>
    <path d="M-127.69,-280.54L-131.94,-333.31L-150.02,-326.11L-192.64,-338.47L-220.13,-323.33L-231.01,-298.06L-225.29,-262.64L-210.89,-226.48L-195.76,-198.99L-197.24,-181.65L-206.65,-173.71L-224.72,-166.52L-250.74,-168.73L-273.07,-214.30L-281.74,-215.03L-278.23,-153.60L-260.15,-160.79L-217.53,-148.44L-181.37,-162.83L-169.75,-196.78L-175.47,-232.20L-189.86,-268.36L-205.00,-295.85L-194.85,-312.45L-185.44,-320.39L-159.43,-318.17L-136.36,-281.28ZM-138.75,-150.47L-130.08,-149.74L-119.93,-166.34L-119.20,-175.01L-135.80,-185.16L-144.47,-185.90L-154.62,-169.29L-155.36,-160.62ZM18.80,-154.55L47.03,-178.35L66.58,-202.89L78.94,-245.51L65.28,-290.34L23.40,-311.36L-2.61,-313.58L-38.77,-299.18L-66.99,-275.38L-86.55,-250.84L-98.91,-208.22L-85.25,-163.39L-43.37,-142.37L-17.35,-140.15ZM44.99,-257.13L42.78,-231.11L21.02,-180.56L-7.21,-156.76L-25.29,-149.56L-42.63,-151.04L-59.24,-161.18L-64.96,-196.60L-62.75,-222.62L-40.98,-273.17L5.32,-304.17L22.66,-302.69L39.27,-292.55ZM86.70,-131.31L95.37,-130.57L105.52,-147.18L106.25,-155.85L89.65,-165.99L80.98,-166.73L70.83,-150.12L70.09,-141.45ZM271.18,-246.63L266.93,-299.39L248.85,-292.20L206.23,-304.56L178.75,-289.42L167.86,-264.15L173.58,-228.73L187.98,-192.57L203.11,-165.08L201.63,-147.74L192.23,-139.80L174.15,-132.61L148.13,-134.82L125.81,-180.39L117.14,-181.12L120.65,-119.69L138.73,-126.88L181.34,-114.53L217.50,-128.92L229.12,-162.87L223.40,-198.29L209.01,-234.45L193.88,-261.94L204.02,-278.54L213.43,-286.48L239.44,-284.26L262.51,-247.37ZM260.12,-116.56L268.79,-115.83L278.94,-132.43L279.67,-141.10L263.07,-151.25L254.40,-151.99L244.25,-135.38L243.52,-126.71Z" fill="#ffffff" stroke="#000000"/>
    <path d="M-120.65,-280.64L-122.63,-333.00L-140.81,-326.64L-182.44,-340.65L-210.26,-326.84L-222.08,-302.30L-217.91,-267.03L-205.19,-230.67L-191.38,-202.85L-193.57,-185.76L-203.21,-178.31L-221.39,-171.95L-247.02,-175.23L-267.19,-221.23L-275.73,-222.32L-274.84,-161.42L-256.66,-167.78L-215.03,-153.77L-178.67,-166.49L-165.75,-199.57L-169.92,-234.84L-182.64,-271.20L-196.45,-299.02L-185.72,-315.01L-176.08,-322.46L-150.45,-319.19L-129.19,-281.73ZM-137.04,-152.48L-128.50,-151.39L-117.77,-167.38L-116.67,-175.93L-132.67,-186.65L-141.21,-187.75L-151.94,-171.75L-153.03,-163.21ZM18.94,-149.90L47.85,-172.25L68.22,-195.70L82.22,-237.32L70.60,-282.23L30.07,-304.78L4.43,-308.06L-31.93,-295.34L-60.84,-272.99L-81.21,-249.54L-95.21,-207.92L-83.59,-163.01L-43.06,-140.46L-17.42,-137.18ZM49.14,-250.24L45.86,-224.61L22.22,-175.53L-6.69,-153.17L-24.87,-146.82L-41.96,-149.00L-57.96,-159.73L-62.13,-195.00L-58.85,-220.63L-35.21,-269.71L11.88,-298.42L28.97,-296.24L44.97,-285.51ZM85.10,-124.07L93.65,-122.97L104.38,-138.97L105.47,-147.51L89.48,-158.24L80.93,-159.33L70.20,-143.34L69.11,-134.79ZM272.38,-230.37L270.39,-282.72L252.21,-276.37L210.58,-290.37L182.76,-276.57L170.94,-252.03L175.11,-216.76L187.83,-180.40L201.64,-152.58L199.45,-135.49L189.82,-128.04L171.64,-121.68L146.01,-124.96L125.84,-170.96L117.29,-172.05L118.19,-111.15L136.37,-117.51L178.00,-103.50L214.36,-116.22L227.27,-149.30L223.10,-184.57L210.38,-220.93L196.57,-248.75L207.30,-264.74L216.94,-272.19L242.57,-268.92L263.83,-231.46ZM255.98,-102.21L264.53,-101.12L275.26,-117.11L276.35,-125.65L260.36,-136.38L251.81,-137.48L241.08,-121.48L239.99,-112.94Z" fill="#ffffff" stroke="#000000"/>
    <path d="M-113.68,-280.69L-113.45,-332.55L-131.70,-327.02L-172.27,-342.62L-200.36,-330.13L-213.08,-306.36L-210.43,-271.31L-199.38,-234.83L-186.89,-206.74L-189.77,-189.94L-199.61,-182.97L-217.86,-177.45L-243.06,-181.77L-261.08,-228.09L-269.48,-229.53L-271.15,-169.28L-252.91,-174.80L-212.33,-159.20L-175.84,-170.25L-161.69,-202.42L-164.33,-237.47L-175.38,-273.96L-187.87,-302.05L-176.59,-317.41L-166.75,-324.37L-141.54,-320.06L-122.09,-282.13ZM-135.27,-154.65L-126.87,-153.22L-115.59,-168.58L-114.15,-176.98L-129.51,-188.26L-137.92,-189.70L-149.20,-174.34L-150.64,-165.94ZM18.85,-145.56L48.38,-166.45L69.50,-188.78L85.10,-229.35L75.49,-274.24L36.35,-298.24L11.15,-302.56L-25.34,-291.51L-54.87,-270.62L-75.99,-248.29L-91.59,-207.72L-81.98,-162.83L-42.84,-138.82L-17.64,-134.51ZM52.93,-243.51L48.61,-218.30L23.17,-170.76L-6.36,-149.87L-24.60,-144.35L-41.40,-147.23L-56.77,-158.51L-59.42,-193.56L-55.10,-218.76L-29.66,-266.30L18.11,-292.72L34.91,-289.84L50.28,-278.56ZM83.19,-117.24L91.60,-115.80L102.88,-131.17L104.32,-139.57L88.95,-150.85L80.55,-152.29L69.27,-136.92L67.83,-128.52ZM272.83,-214.49L273.06,-266.35L254.82,-260.82L214.24,-276.42L186.16,-263.93L173.44,-240.17L176.08,-205.12L187.13,-168.63L199.62,-140.54L196.74,-123.74L186.90,-116.77L168.66,-111.25L143.45,-115.57L125.44,-161.90L117.03,-163.34L115.36,-103.08L133.61,-108.60L174.18,-93.01L210.67,-104.05L224.83,-136.23L222.18,-171.27L211.13,-207.76L198.65,-235.85L209.93,-251.21L219.77,-258.18L244.97,-253.86L264.43,-215.93ZM251.24,-88.46L259.64,-87.02L270.93,-102.38L272.36,-110.79L257.00,-122.07L248.60,-123.51L237.32,-108.14L235.88,-99.74Z" fill="#ffffff" stroke="#000000"/>
    <path d="M-106.80,-280.70L-104.39,-331.96L-122.66,-327.26L-162.12,-344.39L-190.41,-333.22L-203.99,-310.25L-202.84,-275.49L-193.45,-238.95L-182.28,-210.66L-185.83,-194.16L-195.85,-187.69L-214.12,-182.99L-238.86,-188.32L-254.73,-234.88L-262.97,-236.66L-267.15,-177.15L-248.88,-181.85L-209.42,-164.72L-172.89,-174.12L-157.54,-205.33L-158.68,-240.09L-168.08,-276.63L-179.24,-304.93L-167.45,-319.64L-157.42,-326.12L-132.68,-320.79L-115.04,-282.48ZM-133.43,-156.99L-125.18,-155.22L-113.38,-169.94L-111.61,-178.18L-126.32,-189.98L-134.57,-191.76L-146.37,-177.04L-148.14,-168.79ZM18.57,-141.53L48.64,-160.95L70.46,-182.14L87.58,-221.60L79.97,-266.39L42.28,-291.76L17.54,-297.08L-19.00,-287.69L-49.07,-268.27L-70.89,-247.08L-88.01,-207.62L-80.39,-162.84L-42.71,-137.47L-17.97,-132.14ZM56.37,-236.95L51.04,-212.21L23.90,-166.27L-6.17,-146.86L-24.44,-142.16L-40.93,-145.71L-55.65,-157.51L-56.80,-192.27L-51.47,-217.02L-24.33,-262.95L24.01,-287.06L40.51,-283.51L55.22,-271.71ZM81.00,-110.84L89.25,-109.06L101.04,-123.78L102.82,-132.03L88.10,-143.82L79.85,-145.60L68.06,-130.88L66.28,-122.63ZM272.57,-199.04L274.97,-250.29L256.71,-245.60L217.25,-262.72L188.95,-251.55L175.38,-228.59L176.53,-193.82L185.92,-157.28L197.09,-128.99L193.54,-112.50L183.51,-106.03L165.24,-101.33L140.50,-106.66L124.64,-153.22L116.39,-154.99L112.21,-95.49L130.48,-100.18L169.94,-83.06L206.48,-92.45L221.83,-123.67L220.68,-158.43L211.29,-194.97L200.12,-223.26L211.92,-237.98L221.94,-244.45L246.68,-239.13L264.32,-200.81ZM245.94,-75.33L254.19,-73.56L265.99,-88.27L267.76,-96.52L253.04,-108.32L244.79,-110.09L233.00,-95.38L231.22,-87.13Z" fill="#ffffff" stroke="#000000"/>
    <path d="M-99.97,-280.67L-95.44,-331.24L-113.70,-327.36L-151.99,-345.94L-180.43,-336.09L-194.81,-313.96L-195.14,-279.54L-187.38,-243.03L-177.53,-214.59L-181.73,-198.43L-191.91,-192.45L-210.17,-188.58L-234.40,-194.88L-248.13,-241.58L-256.21,-243.68L-262.84,-185.03L-244.58,-188.90L-206.29,-170.32L-169.78,-178.07L-153.29,-208.29L-152.97,-242.70L-160.72,-279.22L-170.58,-307.65L-158.30,-321.71L-148.12,-327.69L-123.88,-321.38L-108.05,-282.77ZM-131.49,-159.49L-123.41,-157.39L-111.13,-171.44L-109.03,-179.52L-123.08,-191.80L-131.16,-193.90L-143.44,-179.85L-145.54,-171.77ZM18.13,-137.83L48.67,-155.76L71.13,-175.79L89.71,-214.09L84.06,-258.68L47.87,-285.34L23.63,-291.64L-12.88,-283.89L-43.42,-265.96L-65.88,-245.93L-84.46,-207.63L-78.81,-163.04L-42.62,-136.38L-18.39,-130.08ZM59.50,-230.57L53.19,-206.33L24.43,-162.06L-6.11,-144.13L-24.36,-140.25L-40.52,-144.46L-54.58,-156.74L-54.25,-191.15L-47.95,-215.39L-19.19,-259.66L29.61,-281.47L45.77,-277.26L59.82,-264.98ZM78.56,-104.86L86.63,-102.76L98.91,-116.82L101.01,-124.90L86.96,-137.18L78.88,-139.28L66.60,-125.22L64.50,-117.14ZM271.64,-184.02L276.17,-234.59L257.91,-230.72L219.62,-249.30L191.18,-239.45L176.80,-217.31L176.47,-182.90L184.23,-146.38L194.08,-117.94L189.88,-101.79L179.70,-95.81L161.44,-91.93L137.21,-98.24L123.47,-144.93L115.40,-147.03L108.77,-88.38L127.03,-92.26L165.32,-73.67L201.83,-81.43L218.32,-111.64L218.64,-146.06L210.89,-182.57L201.03,-211.01L213.31,-225.06L223.49,-231.04L247.73,-224.74L263.56,-186.12ZM240.12,-62.84L248.20,-60.74L260.48,-74.80L262.58,-82.88L248.53,-95.16L240.45,-97.26L228.17,-83.20L226.07,-75.12Z" fill="#ffffff" stroke="#000000"/>
    <path d="M-93.20,-280.59L-86.60,-330.39L-104.81,-327.32L-141.88,-347.30L-170.41,-338.75L-185.55,-317.47L-187.31,-283.47L-181.18,-247.05L-172.63,-218.52L-177.47,-202.73L-187.78,-197.25L-205.99,-194.18L-229.68,-201.43L-241.29,-248.16L-249.19,-250.58L-258.20,-192.88L-239.99,-195.95L-202.92,-175.97L-166.50,-182.10L-148.94,-211.28L-147.18,-245.28L-153.31,-281.70L-161.86,-310.23L-149.13,-323.60L-138.82,-329.09L-115.13,-321.84L-101.10,-283.00ZM-129.43,-162.13L-121.53,-159.71L-108.81,-173.09L-106.39,-180.99L-119.77,-193.72L-127.67,-196.13L-140.40,-182.76L-142.81,-174.86ZM17.55,-134.44L48.49,-150.89L71.53,-169.75L91.50,-206.82L87.79,-251.14L53.13,-279.01L29.44,-286.26L-6.98,-280.12L-37.92,-263.68L-60.96,-244.82L-80.93,-207.75L-77.22,-163.43L-42.56,-135.56L-18.87,-128.31ZM62.33,-224.38L55.08,-200.69L24.80,-158.14L-6.14,-141.69L-24.35,-138.62L-40.15,-143.46L-53.53,-156.18L-51.76,-190.19L-44.51,-213.88L-14.23,-256.43L34.92,-275.94L50.72,-271.11L64.10,-258.38ZM75.90,-99.32L83.79,-96.91L96.52,-110.29L98.94,-118.18L85.56,-130.91L77.66,-133.33L64.93,-119.95L62.52,-112.05ZM270.07,-169.47L276.67,-219.27L258.46,-216.20L221.39,-236.18L192.87,-227.63L177.72,-206.36L175.96,-172.35L182.09,-135.93L190.64,-107.41L185.81,-91.61L175.49,-86.13L157.28,-83.07L133.59,-90.31L121.98,-137.05L114.08,-139.46L105.07,-81.76L123.28,-84.83L160.35,-64.86L196.77,-70.99L214.33,-100.16L216.09,-134.17L209.96,-170.59L201.41,-199.11L214.14,-212.49L224.46,-217.97L248.15,-210.72L262.18,-171.89ZM233.84,-51.01L241.74,-48.60L254.47,-61.98L256.88,-69.87L243.50,-82.60L235.61,-85.02L222.88,-71.64L220.46,-63.74Z" fill="#ffffff" stroke="#000000"/>
    <path d="M-86.47,-280.46L-77.86,-329.41L-95.99,-327.14L-131.79,-348.44L-160.34,-341.19L-176.20,-320.79L-179.37,-287.26L-174.84,-251.00L-167.58,-222.45L-173.02,-207.05L-183.44,-202.06L-201.57,-199.79L-224.68,-207.95L-234.20,-254.63L-241.91,-257.35L-253.23,-200.70L-235.11,-202.97L-199.30,-181.67L-163.05,-186.20L-144.47,-214.30L-141.30,-247.83L-145.84,-284.09L-153.09,-312.64L-139.95,-325.33L-129.52,-330.31L-106.41,-322.15L-94.17,-283.18ZM-127.25,-164.90L-119.55,-162.19L-106.40,-174.87L-103.69,-182.58L-116.38,-195.72L-124.08,-198.44L-137.22,-185.75L-139.94,-178.05ZM16.86,-131.38L48.13,-146.33L71.69,-164.01L92.99,-199.81L91.17,-243.77L58.09,-272.77L34.98,-280.92L-1.27,-276.39L-32.54,-261.43L-56.11,-243.76L-77.40,-207.96L-75.59,-164.00L-42.51,-135.00L-19.39,-126.84ZM64.89,-218.39L56.73,-195.28L25.01,-154.49L-6.25,-139.53L-24.38,-137.27L-39.79,-142.70L-52.48,-155.84L-49.31,-189.38L-41.15,-212.49L-9.43,-253.28L39.96,-270.50L55.37,-265.06L68.06,-251.92ZM73.05,-94.22L80.76,-91.50L93.90,-104.19L96.62,-111.89L83.93,-125.04L76.22,-127.75L63.08,-115.06L60.36,-107.36ZM267.91,-155.41L276.52,-204.35L258.39,-202.08L222.59,-223.38L194.04,-216.13L178.18,-195.73L175.01,-162.20L179.55,-125.95L186.80,-97.40L181.36,-81.99L170.94,-77.00L152.81,-74.74L129.70,-82.89L120.18,-129.57L112.48,-132.29L101.15,-75.64L119.28,-77.91L155.08,-56.61L191.33,-61.14L209.91,-89.24L213.08,-122.78L208.55,-159.03L201.30,-187.58L214.44,-200.27L224.86,-205.25L247.97,-197.10L260.21,-158.12ZM227.13,-39.85L234.84,-37.13L247.98,-49.82L250.70,-57.52L238.01,-70.66L230.30,-73.38L217.16,-60.69L214.44,-52.99Z" fill="#ffffff" stroke="#000000"/>
    <path d="M-79.78,-280.29L-69.22,-328.30L-87.23,-326.82L-121.71,-349.37L-150.23,-343.40L-166.76,-323.91L-171.30,-290.90L-168.34,-254.88L-162.37,-226.37L-168.39,-211.37L-178.90,-206.88L-196.91,-205.40L-219.41,-214.43L-226.85,-260.95L-234.35,-263.96L-247.92,-208.46L-229.91,-209.94L-195.43,-187.39L-159.41,-190.35L-139.87,-217.34L-135.33,-250.34L-138.29,-286.36L-144.26,-314.88L-130.74,-326.87L-120.23,-331.36L-97.74,-322.33L-87.28,-283.30ZM-124.92,-167.80L-117.42,-164.79L-103.90,-176.78L-100.89,-184.28L-112.88,-197.80L-120.38,-200.81L-133.90,-188.82L-136.91,-181.32ZM16.09,-128.62L47.61,-142.09L71.64,-158.57L94.19,-193.06L94.24,-236.58L62.76,-266.62L40.26,-275.65L4.25,-272.69L-27.28,-259.22L-51.31,-242.75L-73.86,-208.26L-73.91,-164.74L-42.43,-134.69L-19.93,-125.66ZM67.20,-212.60L58.17,-190.10L25.11,-151.12L-6.41,-137.65L-24.42,-136.17L-39.42,-142.19L-51.41,-155.71L-46.87,-188.72L-37.84,-211.22L-4.78,-250.19L44.75,-265.14L59.75,-259.12L71.74,-245.61ZM70.06,-89.55L77.56,-86.54L91.08,-98.53L94.09,-106.03L82.10,-119.55L74.60,-122.56L61.08,-110.57L58.07,-103.07ZM265.20,-141.84L275.75,-189.85L257.75,-188.37L223.26,-210.92L194.74,-204.95L178.21,-185.46L173.67,-152.45L176.63,-116.44L182.60,-87.92L176.58,-72.92L166.07,-68.43L148.07,-66.95L125.57,-75.98L118.12,-122.51L110.62,-125.52L97.05,-70.01L115.06,-71.49L149.55,-48.94L185.56,-51.90L205.10,-78.89L209.64,-111.90L206.68,-147.91L200.71,-176.43L214.23,-188.42L224.74,-192.91L247.24,-183.88L257.70,-144.85ZM220.05,-29.35L227.55,-26.34L241.07,-38.33L244.08,-45.83L232.09,-59.35L224.59,-62.36L211.07,-50.37L208.06,-42.87Z" fill="#ffffff" stroke="#000000"/>
    <path d="M-73.11,-280.07L-60.66,-327.06L-78.52,-326.35L-111.65,-350.08L-140.08,-345.38L-157.23,-326.81L-163.10,-294.39L-161.69,-258.68L-156.98,-230.25L-163.56,-215.68L-174.13,-211.68L-191.99,-210.97L-213.84,-220.84L-219.25,-267.13L-226.54,-270.41L-242.27,-216.14L-224.41,-216.84L-191.28,-193.12L-155.57,-194.53L-135.13,-220.38L-129.26,-252.81L-130.68,-288.52L-135.38,-316.95L-121.52,-328.23L-110.95,-332.22L-89.09,-322.36L-80.39,-283.36ZM-122.44,-170.81L-115.15,-167.52L-101.29,-178.80L-98.00,-186.08L-109.28,-199.94L-116.57,-203.23L-130.43,-191.95L-133.72,-184.67ZM15.25,-126.18L46.97,-138.17L71.41,-153.45L95.13,-186.58L97.01,-229.58L67.16,-260.59L45.31,-270.45L9.60,-269.04L-22.12,-257.05L-46.55,-241.77L-70.28,-208.64L-72.15,-165.64L-42.31,-134.63L-20.46,-124.77ZM69.28,-207.02L59.42,-185.16L25.12,-148.04L-6.60,-136.05L-24.45,-135.34L-39.02,-141.92L-50.30,-155.78L-44.43,-188.20L-34.57,-210.06L-0.27,-247.18L49.31,-259.88L63.87,-253.30L75.15,-239.44ZM66.95,-85.31L74.24,-82.02L88.10,-93.30L91.38,-100.58L80.10,-114.44L72.82,-117.73L58.96,-106.45L55.67,-99.17ZM261.96,-128.80L274.41,-175.80L256.55,-175.09L223.42,-198.81L194.99,-194.11L177.84,-175.55L171.97,-143.12L173.38,-107.41L178.09,-78.98L171.51,-64.41L160.94,-60.42L143.08,-59.71L121.23,-69.57L115.82,-115.86L108.53,-119.15L92.80,-64.87L110.66,-65.58L143.79,-41.85L179.50,-43.27L199.94,-69.11L205.81,-101.54L204.39,-137.25L199.69,-165.68L213.55,-176.96L224.12,-180.96L245.98,-171.09L254.68,-132.09ZM212.63,-19.54L219.92,-16.25L233.78,-27.53L237.07,-34.82L225.79,-48.68L218.50,-51.97L204.64,-40.69L201.35,-33.40Z" fill="#ffffff" stroke="#000000"/>
    <path d="M-903.88,492L-906.92,488.96L-902.36,482.88L-893.24,482.88L-891.72,484.40L-891.72,488.96L-894.76,492L-884.12,492L-887.16,488.96L-887.16,460.08L-891.72,463.12L-891.72,464.64L-909.96,488.96L-914.52,492ZM-891.72,467.68L-891.72,479.84L-893.24,481.36L-900.84,481.36L-899.32,478.32ZM-862.84,476.80L-864.36,481.36L-870.44,487.44L-875,488.96L-876.52,488.96L-867.40,475.28L-867.40,472.24L-870.44,470.72L-875,472.24L-882.60,479.84L-881.08,481.36L-873.48,473.76L-871.96,473.76L-881.08,488.96L-881.08,490.48L-879.56,492L-876.52,492L-868.92,488.96L-862.84,482.88L-859.80,476.80L-859.80,473.76L-861.32,472.24L-864.36,472.24L-865.88,475.28L-864.36,476.80ZM-835.48,472.24L-837,470.72L-840.04,475.28L-841.56,472.24L-847.64,470.72L-855.24,476.80L-858.28,484.40L-856.76,490.48L-853.72,492L-850.68,492L-846.12,487.44L-846.12,490.48L-844.60,492L-840.04,490.48L-832.44,482.88L-833.96,481.36L-841.56,488.96L-843.08,488.96ZM-850.68,488.96L-852.20,488.96L-853.72,484.40L-850.68,478.32L-846.12,473.76L-843.08,473.76L-841.56,476.80L-841.56,478.32L-846.12,484.40ZM-832.44,479.84L-830.92,481.36L-823.32,473.76L-821.80,473.76L-830.92,490.48L-829.40,492L-826.36,492L-820.28,479.84L-815.72,476.80L-811.16,476.80L-809.64,472.24L-812.68,470.72L-815.72,472.24L-820.28,478.32L-821.80,478.32L-818.76,473.76L-818.76,472.24L-820.28,470.72L-824.84,472.24ZM-788.36,472.24L-789.88,470.72L-792.92,475.28L-794.44,472.24L-800.52,470.72L-808.12,476.80L-811.16,484.40L-809.64,490.48L-806.60,492L-803.56,492L-799,487.44L-799,490.48L-797.48,492L-792.92,490.48L-785.32,482.88L-786.84,481.36L-794.44,488.96L-795.96,488.96ZM-803.56,488.96L-805.08,488.96L-806.60,484.40L-803.56,478.32L-799,473.76L-795.96,473.76L-794.44,476.80L-794.44,478.32L-799,484.40ZM-783.80,479.84L-783.80,482.88L-774.68,482.88L-774.68,479.84ZM-765.56,461.60L-762.52,464.64L-770.12,488.96L-773.16,492L-757.96,492L-750.36,488.96L-745.80,482.88L-747.32,476.80L-751.88,475.28L-748.84,473.76L-744.28,469.20L-745.80,463.12L-753.40,461.60ZM-765.56,488.96L-757.96,464.64L-756.44,463.12L-753.40,463.12L-750.36,464.64L-750.36,469.20L-753.40,473.76L-757.96,475.28L-761,475.28L-761,476.80L-756.44,476.80L-753.40,478.32L-751.88,482.88L-754.92,487.44L-761,490.48L-764.04,490.48ZM-736.68,492L-733.64,492L-726.04,487.44L-721.48,478.32L-724.52,472.24L-730.60,470.72L-738.20,475.28L-742.76,484.40L-739.72,490.48ZM-730.60,473.76L-727.56,473.76L-726.04,478.32L-729.08,484.40L-733.64,488.96L-736.68,488.96L-738.20,484.40L-735.16,478.32ZM-715.40,488.96L-701.72,460.08L-712.36,460.08L-712.36,461.60L-707.80,461.60L-719.96,488.96L-719.96,490.48L-716.92,492L-712.36,490.48L-704.76,482.88L-706.28,481.36L-713.88,488.96ZM-689.56,492L-688.04,492L-685,490.48L-677.40,482.88L-678.92,481.36L-686.52,488.96L-688.04,488.96L-674.36,460.08L-685,460.08L-685,461.60L-680.44,461.60L-685,475.28L-686.52,472.24L-692.60,470.72L-700.20,476.80L-703.24,484.40L-701.72,490.48L-698.68,492L-695.64,492L-691.08,487.44L-691.08,490.48ZM-695.64,488.96L-697.16,488.96L-698.68,484.40L-695.64,478.32L-691.08,473.76L-688.04,473.76L-686.52,476.80L-686.52,478.32L-691.08,484.40ZM-669.80,488.96L-662.20,464.64L-657.64,461.60L-669.80,461.60L-666.76,464.64L-674.36,488.96L-678.92,492L-666.76,492ZM-657.64,488.96L-650.04,473.76L-645.48,473.76L-645.48,472.24L-650.04,472.24L-647,466.16L-650.04,466.16L-651.56,470.72L-654.60,472.24L-657.64,472.24L-657.64,473.76L-654.60,473.76L-662.20,488.96L-662.20,490.48L-660.68,492L-657.64,492L-654.60,490.48L-647,482.88L-648.52,481.36L-656.12,488.96ZM-621.16,472.24L-622.68,470.72L-625.72,475.28L-627.24,472.24L-633.32,470.72L-640.92,476.80L-643.96,484.40L-642.44,490.48L-639.40,492L-636.36,492L-631.80,487.44L-631.80,490.48L-630.28,492L-625.72,490.48L-618.12,482.88L-619.64,481.36L-627.24,488.96L-628.76,488.96ZM-636.36,488.96L-637.88,488.96L-639.40,484.40L-636.36,478.32L-631.80,473.76L-628.76,473.76L-627.24,476.80L-627.24,478.32L-631.80,484.40ZM-613.56,488.96L-599.88,460.08L-610.52,460.08L-610.52,461.60L-605.96,461.60L-618.12,488.96L-618.12,490.48L-615.08,492L-610.52,490.48L-602.92,482.88L-604.44,481.36L-612.04,488.96ZM-586.20,467.68L-584.68,467.68L-583.16,464.64L-583.16,463.12L-586.20,461.60L-587.72,461.60L-589.24,464.64L-589.24,466.16ZM-602.92,479.84L-601.40,481.36L-593.80,473.76L-592.28,473.76L-601.40,488.96L-601.40,490.48L-599.88,492L-596.84,492L-593.80,490.48L-586.20,482.88L-587.72,481.36L-595.32,488.96L-596.84,488.96L-587.72,473.76L-587.72,472.24L-590.76,470.72L-595.32,472.24ZM-564.92,478.32L-564.92,475.28L-566.44,472.24L-572.52,470.72L-580.12,475.28L-584.68,484.40L-583.16,490.48L-580.12,492L-577.08,492L-574.04,490.48L-567.96,484.40L-569.48,482.88L-575.56,488.96L-578.60,488.96L-580.12,484.40L-577.08,478.32L-572.52,473.76L-569.48,473.76L-569.48,478.32Z"/>
</svg>