<?xml version="1.0"?>
<svg xmlns="http://www.w3.org/2000/svg" width="1920" height="1080" viewBox="-960 -540 1920 1080">
    <path d="M-478.04,-147L-455.84,-147C-433.89,-147 -421.07,-155.63 -421.07,-178.08L-421.07,-206.44C-421.07,-223.46 -423.78,-237.52 -431.18,-242.94L-447.70,-241.46L-447.70,-243.93C-434.63,-250.59 -424.77,-259.72 -424.77,-278.95L-424.77,-295.97C-424.77,-318.42 -436.11,-327.05 -455.84,-327.05L-478.04,-327.05ZM-454.86,-245.41L-459.54,-243.44L-459.54,-310.28L-457.57,-310.28C-446.96,-310.28 -443.26,-305.84 -443.26,-289.81L-443.26,-264.15C-443.26,-255.52 -445.48,-249.60 -454.86,-245.41ZM-452.64,-238.01C-444.00,-238.01 -439.56,-232.83 -439.56,-221.73L-439.56,-184.24C-439.56,-168.21 -444.25,-163.77 -457.57,-163.77L-459.54,-163.77L-459.54,-235.54C-457.57,-237.02 -455.35,-238.01 -452.64,-238.01ZM-380.36,-297.45C-395.90,-297.45 -407.99,-279.45 -407.99,-263.91C-407.99,-252.56 -406.51,-238.50 -401.57,-226.67L-377.90,-226.67C-398.12,-247.14 -402.31,-256.26 -402.31,-266.62C-402.31,-275.25 -399.11,-280.68 -386.28,-280.68C-378.14,-280.68 -376.17,-278.71 -376.17,-270.81L-376.17,-225.19C-395.66,-206.93 -406.01,-199.04 -406.01,-179.06L-406.01,-162.05C-406.01,-150.21 -401.08,-144.53 -391.71,-144.53C-382.34,-144.53 -376.17,-150.45 -372.47,-187.20L-370.00,-186.71C-372.96,-151.69 -368.52,-144.53 -358.41,-144.53C-346.82,-144.53 -344.35,-156.37 -344.60,-171.91L-345.34,-214.09L-348.79,-214.09L-349.53,-170.92C-349.78,-162.79 -351.51,-161.31 -353.73,-161.31C-356.44,-161.31 -358.91,-162.79 -358.91,-176.10L-358.91,-277.23C-358.91,-289.81 -366.06,-297.45 -380.36,-297.45ZM-384.56,-162.54C-387.02,-162.54 -388.75,-164.02 -388.75,-168.46L-388.75,-193.12C-388.75,-203.48 -387.02,-209.40 -376.17,-220.01L-376.17,-200.27C-376.17,-177.58 -379.13,-162.54 -384.56,-162.54ZM-292.80,-274.02C-292.80,-267.61 -296.99,-258.24 -311.79,-229.38L-293.04,-229.38C-288.85,-251.33 -288.11,-267.85 -288.11,-274.27C-288.11,-289.81 -294.28,-297.45 -307.10,-297.45C-320.67,-297.45 -332.26,-288.33 -332.26,-263.91L-332.26,-173.39C-332.26,-152.18 -325.35,-144.53 -312.04,-144.53C-297.24,-144.53 -290.09,-162.29 -290.58,-185.72L-291.32,-215.57L-294.77,-215.57L-295.51,-186.46C-296.00,-170.68 -298.47,-161.31 -304.14,-161.31C-309.82,-161.31 -315.00,-164.02 -315.00,-181.78L-315.00,-266.37C-315.00,-275.25 -313.52,-280.68 -306.12,-280.68C-296.74,-280.68 -292.80,-278.71 -292.80,-274.02ZM-254.56,-327.05L-271.83,-327.05L-271.83,-147L-254.56,-147L-254.56,-212.11C-254.56,-216.80 -254.32,-220.99 -253.82,-224.94C-244.94,-225.93 -240.75,-221.49 -239.27,-203.97L-234.34,-147L-215.59,-147L-226.94,-233.57L-251.36,-230.36L-252.59,-231.60C-251.60,-236.78 -249.88,-241.96 -247.16,-248.62C-239.27,-268.10 -233.84,-275.25 -223.24,-278.21L-217.81,-279.69L-217.81,-294.99L-240.01,-294.99L-258.02,-233.82L-260.48,-234.31L-254.56,-307.07ZM-147.26,-282.41L-125.81,-282.41L-125.81,-294.99L-148.74,-294.99L-149.98,-296.96L-144.80,-328.78L-147.51,-329.52C-151.46,-323.60 -158.86,-320.64 -164.53,-319.40L-164.53,-294.99L-175.87,-294.99L-175.87,-282.41L-164.53,-282.41L-164.53,-173.39C-164.53,-152.18 -158.12,-144.53 -145.54,-144.53C-131.48,-144.53 -124.82,-161.31 -125.31,-183.26L-126.05,-215.57L-129.50,-215.57L-130.24,-184.00C-130.74,-167.47 -132.71,-161.31 -138.63,-161.31C-142.82,-161.31 -147.26,-164.02 -147.26,-181.78ZM-87.82,-144.53C-73.26,-144.53 -60.93,-153.66 -60.93,-177.83L-60.93,-268.59C-60.93,-289.81 -69.07,-297.45 -84.86,-297.45C-99.41,-297.45 -111.74,-288.33 -111.74,-264.15L-111.74,-173.39C-111.74,-152.18 -103.35,-144.53 -87.82,-144.53ZM-87.82,-280.68C-82.88,-280.68 -78.20,-277.97 -78.20,-260.21L-78.20,-175.36C-78.20,-166.73 -79.43,-161.31 -84.86,-161.31C-90.04,-161.31 -94.48,-164.02 -94.48,-181.78L-94.48,-266.62C-94.48,-275.25 -93.24,-280.68 -87.82,-280.68ZM13.56,-282.41L35.02,-282.41L35.02,-294.99L12.08,-294.99L10.85,-296.96L16.03,-328.78L13.32,-329.52C9.37,-323.60 1.97,-320.64 -3.70,-319.40L-3.70,-294.99L-15.05,-294.99L-15.05,-282.41L-3.70,-282.41L-3.70,-173.39C-3.70,-152.18 2.71,-144.53 15.29,-144.53C29.35,-144.53 36.01,-161.31 35.51,-183.26L34.77,-215.57L31.32,-215.57L30.58,-184.00C30.09,-167.47 28.12,-161.31 22.20,-161.31C18.00,-161.31 13.56,-164.02 13.56,-181.78ZM66.35,-327.05L49.09,-327.05L49.09,-147L66.35,-147L66.35,-240.48C66.35,-263.66 71.53,-280.68 78.44,-280.68C83.12,-280.68 84.36,-276.73 84.36,-267.85L84.36,-147L101.62,-147L101.62,-277.47C101.62,-289.81 94.96,-297.45 85.84,-297.45C76.46,-297.45 68.08,-291.29 62.90,-254.29L60.43,-254.78L66.35,-292.27ZM165.75,-268.35C165.75,-289.81 158.60,-297.45 145.04,-297.45C130.24,-297.45 118.89,-288.33 118.89,-263.91L118.89,-173.39C118.89,-152.18 126.54,-144.53 141.58,-144.53C158.11,-144.53 166.00,-162.29 165.51,-185.72L164.77,-215.32L161.31,-215.32L160.57,-186.46C160.08,-170.68 156.88,-161.31 149.48,-161.31C142.57,-161.31 136.16,-164.02 136.16,-181.78L136.16,-228.89L165.75,-228.89ZM150.96,-260.21L150.96,-232.34L136.16,-232.34L136.16,-266.37C136.16,-275.25 137.39,-280.68 143.31,-280.68C148.24,-280.68 150.96,-278.21 150.96,-260.21ZM217.81,-147L240.00,-147C261.95,-147 274.78,-155.63 274.78,-178.08L274.78,-206.44C274.78,-223.46 272.07,-237.52 264.67,-242.94L248.14,-241.46L248.14,-243.93C261.21,-250.59 271.08,-259.72 271.08,-278.95L271.08,-295.97C271.08,-318.42 259.73,-327.05 240.00,-327.05L217.81,-327.05ZM240.99,-245.41L236.30,-243.44L236.30,-310.28L238.28,-310.28C248.88,-310.28 252.58,-305.84 252.58,-289.81L252.58,-264.15C252.58,-255.52 250.36,-249.60 240.99,-245.41ZM243.21,-238.01C251.84,-238.01 256.28,-232.83 256.28,-221.73L256.28,-184.24C256.28,-168.21 251.60,-163.77 238.28,-163.77L236.30,-163.77L236.30,-235.54C238.28,-237.02 240.50,-238.01 243.21,-238.01ZM314.25,-144.53C328.80,-144.53 341.13,-153.66 341.13,-177.83L341.13,-268.59C341.13,-289.81 332.99,-297.45 317.21,-297.45C302.66,-297.45 290.33,-288.33 290.33,-264.15L290.33,-173.39C290.33,-152.18 298.71,-144.53 314.25,-144.53ZM314.25,-280.68C319.18,-280.68 323.87,-277.97 323.87,-260.21L323.87,-175.36C323.87,-166.73 322.64,-161.31 317.21,-161.31C312.03,-161.31 307.59,-164.02 307.59,-181.78L307.59,-266.62C307.59,-275.25 308.82,-280.68 314.25,-280.68ZM382.33,-144.53C396.88,-144.53 409.21,-153.66 409.21,-177.83L409.21,-268.59C409.21,-289.81 401.07,-297.45 385.29,-297.45C370.74,-297.45 358.41,-288.33 358.41,-264.15L358.41,-173.39C358.41,-152.18 366.79,-144.53 382.33,-144.53ZM382.33,-280.68C387.26,-280.68 391.95,-277.97 391.95,-260.21L391.95,-175.36C391.95,-166.73 390.72,-161.31 385.29,-161.31C380.11,-161.31 375.67,-164.02 375.67,-181.78L375.67,-266.62C375.67,-275.25 376.90,-280.68 382.33,-280.68ZM444.00,-327.05L426.73,-327.05L426.73,-147L444.00,-147L444.00,-212.11C444.00,-216.80 444.24,-220.99 444.74,-224.94C453.62,-225.93 457.81,-221.49 459.29,-203.97L464.22,-147L482.97,-147L471.62,-233.57L447.20,-230.36L445.97,-231.60C446.96,-236.78 448.68,-241.96 451.40,-248.62C459.29,-268.10 464.72,-275.25 475.32,-278.21L480.75,-279.69L480.75,-294.99L458.55,-294.99L440.54,-233.82L438.08,-234.31L444.00,-307.07Z" fill="#ffffff" stroke="#000000"/>
    <path d="M-485.05,-121.15L-463.10,-122.13C-441.39,-123.09 -429.08,-132.19 -430.07,-154.39L-431.32,-182.45C-432.06,-199.28 -435.37,-213.06 -442.92,-218.10L-459.20,-215.91L-459.31,-218.35C-446.67,-225.51 -437.32,-234.97 -438.16,-254.00L-438.91,-270.83C-439.90,-293.03 -451.50,-301.07 -471.01,-300.20L-492.96,-299.23ZM-466.45,-219.50L-471.00,-217.35L-473.93,-283.45L-471.98,-283.54C-461.49,-284.00 -457.64,-279.78 -456.93,-263.92L-455.81,-238.55C-455.43,-230.01 -457.36,-224.06 -466.45,-219.50ZM-463.93,-212.28C-455.39,-212.66 -450.77,-207.73 -450.28,-196.76L-448.64,-159.68C-447.93,-143.82 -452.37,-139.23 -465.54,-138.64L-467.50,-138.55L-470.65,-209.54C-468.76,-211.09 -466.61,-212.16 -463.93,-212.28ZM-395.06,-274.25C-410.43,-273.56 -421.59,-255.22 -420.91,-239.86C-420.41,-228.64 -418.33,-214.80 -412.93,-203.30L-389.51,-204.34C-410.41,-223.70 -414.96,-232.54 -415.41,-242.79C-415.79,-251.33 -412.86,-256.83 -400.18,-257.40C-392.13,-257.76 -390.09,-255.89 -389.74,-248.08L-387.74,-202.96C-406.21,-184.05 -416.10,-175.79 -415.23,-156.03L-414.48,-139.20C-413.96,-127.49 -408.83,-122.10 -399.56,-122.51C-390.29,-122.92 -384.45,-129.04 -382.41,-165.55L-379.95,-165.17C-381.34,-130.41 -376.63,-123.53 -366.63,-123.97C-355.17,-124.48 -353.25,-136.30 -354.17,-151.65L-356.76,-193.33L-360.17,-193.18L-359.01,-150.46C-358.89,-142.40 -360.54,-140.86 -362.73,-140.76C-365.42,-140.64 -367.92,-142.00 -368.51,-155.17L-372.95,-255.19C-373.50,-267.63 -380.91,-274.87 -395.06,-274.25ZM-393.28,-140.63C-395.72,-140.52 -397.49,-141.91 -397.69,-146.30L-398.77,-170.69C-399.22,-180.94 -397.78,-186.87 -387.51,-197.83L-386.64,-178.32C-385.65,-155.88 -387.91,-140.87 -393.28,-140.63ZM-307.43,-254.92C-307.14,-248.58 -310.88,-239.12 -324.25,-209.93L-305.71,-210.76C-302.53,-232.65 -302.52,-249.03 -302.80,-255.37C-303.48,-270.74 -309.92,-278.03 -322.60,-277.46C-336.02,-276.87 -347.08,-267.33 -346.01,-243.18L-342.03,-153.66C-341.10,-132.68 -333.94,-125.42 -320.76,-126.01C-306.13,-126.66 -299.83,-144.54 -301.35,-167.69L-303.39,-197.17L-306.81,-197.02L-306.26,-168.20C-306.06,-152.57 -308.08,-143.19 -313.69,-142.94C-319.31,-142.69 -324.55,-145.15 -325.33,-162.71L-329.04,-246.38C-329.43,-255.16 -328.21,-260.59 -320.89,-260.92C-311.62,-261.33 -307.63,-259.55 -307.43,-254.92ZM-271.94,-309.04L-289.01,-308.29L-281.10,-130.21L-264.03,-130.97L-266.89,-195.37C-267.10,-200.01 -267.04,-204.16 -266.72,-208.09C-257.98,-209.45 -253.64,-205.25 -251.41,-187.99L-244.03,-131.86L-225.49,-132.68L-240.51,-217.81L-264.52,-213.56L-265.79,-214.73C-265.05,-219.89 -263.57,-225.09 -261.18,-231.80C-254.23,-251.42 -249.17,-258.73 -238.81,-262.12L-233.51,-263.82L-234.18,-278.95L-256.14,-277.97L-271.26,-216.69L-273.72,-217.06L-271.06,-289.29ZM-163.86,-269.61L-142.63,-270.55L-143.19,-282.99L-165.87,-281.98L-167.18,-283.88L-163.45,-315.57L-166.17,-316.19C-169.81,-310.16 -177.00,-306.91 -182.56,-305.44L-181.48,-281.29L-192.71,-280.79L-192.15,-268.35L-180.93,-268.85L-176.14,-161.03C-175.21,-140.05 -168.53,-132.77 -156.09,-133.32C-142.19,-133.94 -136.34,-150.82 -137.79,-172.51L-139.94,-204.43L-143.36,-204.28L-142.70,-173.02C-142.46,-156.66 -144.14,-150.47 -150.00,-150.21C-154.14,-150.03 -158.65,-152.52 -159.44,-170.08ZM-99.00,-135.86C-84.61,-136.50 -72.82,-146.07 -73.88,-169.97L-77.87,-259.74C-78.80,-280.72 -87.18,-287.92 -102.80,-287.23C-117.19,-286.59 -128.98,-277.02 -127.92,-253.12L-123.93,-163.35C-123.00,-142.37 -114.37,-135.18 -99.00,-135.86ZM-104.99,-270.51C-100.11,-270.73 -95.35,-268.25 -94.57,-250.69L-90.85,-166.77C-90.47,-158.24 -91.45,-152.81 -96.81,-152.58C-101.94,-152.35 -106.45,-154.84 -107.23,-172.40L-110.95,-256.31C-111.33,-264.85 -110.35,-270.27 -104.99,-270.51ZM-4.79,-276.67L16.43,-277.61L15.88,-290.06L-6.81,-289.05L-8.12,-290.95L-4.39,-322.64L-7.11,-323.25C-10.75,-317.23 -17.94,-313.97 -23.50,-312.50L-22.42,-288.35L-33.64,-287.86L-33.09,-275.42L-21.87,-275.91L-17.08,-168.09C-16.15,-147.12 -9.47,-139.84 2.97,-140.39C16.87,-141.01 22.72,-157.89 21.27,-179.57L19.12,-211.50L15.71,-211.35L16.36,-180.09C16.60,-163.72 14.92,-157.54 9.06,-157.28C4.92,-157.10 0.41,-159.58 -0.37,-177.15ZM45.45,-323.14L28.38,-322.39L36.29,-144.31L53.36,-145.07L49.26,-237.52C48.24,-260.45 52.61,-277.51 59.44,-277.81C64.08,-278.02 65.47,-274.17 65.86,-265.39L71.17,-145.86L88.24,-146.62L82.51,-275.66C81.97,-287.86 75.05,-295.13 66.02,-294.73C56.75,-294.32 48.73,-287.85 45.23,-251.03L42.77,-251.41L46.98,-288.75ZM146.34,-269.45C145.40,-290.68 137.99,-297.92 124.57,-297.33C109.94,-296.68 99.12,-287.15 100.19,-263.00L104.17,-173.48C105.10,-152.50 113.00,-145.28 127.88,-145.94C144.22,-146.66 151.25,-164.57 149.73,-187.73L147.70,-216.96L144.28,-216.81L144.82,-188.24C145.02,-172.61 142.26,-163.20 134.95,-162.87C128.12,-162.57 121.65,-164.97 120.87,-182.53L118.80,-229.12L148.08,-230.42ZM132.06,-260.75L133.29,-233.19L118.65,-232.54L117.16,-266.20C116.77,-274.98 117.75,-280.40 123.60,-280.66C128.48,-280.88 131.27,-278.56 132.06,-260.75ZM203.15,-151.72L225.11,-152.70C246.82,-153.66 259.12,-162.77 258.14,-184.96L256.89,-213.02C256.14,-229.85 252.84,-243.63 245.29,-248.67L229.01,-246.48L228.90,-248.92C241.54,-256.08 250.89,-265.54 250.05,-284.57L249.30,-301.40C248.31,-323.60 236.71,-331.64 217.20,-330.77L195.24,-329.80ZM221.76,-250.07L217.21,-247.92L214.28,-314.02L216.23,-314.11C226.72,-314.58 230.57,-310.35 231.28,-294.49L232.40,-269.12C232.78,-260.58 230.85,-254.63 221.76,-250.07ZM224.28,-242.85C232.82,-243.23 237.44,-238.30 237.93,-227.33L239.57,-190.25C240.28,-174.39 235.84,-169.80 222.66,-169.21L220.71,-169.13L217.56,-240.11C219.45,-241.66 221.60,-242.73 224.28,-242.85ZM298.65,-153.52C313.04,-154.16 324.84,-163.73 323.77,-187.64L319.79,-277.40C318.86,-298.38 310.47,-305.59 294.86,-304.89C280.47,-304.25 268.67,-294.69 269.73,-270.78L273.72,-181.01C274.65,-160.03 283.28,-152.84 298.65,-153.52ZM292.67,-288.17C297.55,-288.39 302.30,-285.91 303.08,-268.35L306.81,-184.44C307.19,-175.90 306.21,-170.48 300.84,-170.24C295.72,-170.01 291.21,-172.50 290.43,-190.06L286.70,-273.98C286.32,-282.52 287.30,-287.94 292.67,-288.17ZM365.98,-156.51C380.37,-157.15 392.17,-166.72 391.11,-190.63L387.12,-280.39C386.19,-301.37 377.80,-308.58 362.19,-307.88C347.80,-307.24 336.00,-297.68 337.06,-273.77L341.05,-184.00C341.98,-163.02 350.61,-155.83 365.98,-156.51ZM360.00,-291.17C364.88,-291.38 369.63,-288.91 370.41,-271.34L374.14,-187.43C374.52,-178.89 373.54,-173.47 368.17,-173.23C363.05,-173.00 358.54,-175.49 357.76,-193.06L354.03,-276.97C353.65,-285.51 354.63,-290.93 360.00,-291.17ZM418.95,-339.73L401.88,-338.98L409.79,-160.90L426.86,-161.66L424.00,-226.06C423.80,-230.70 423.86,-234.85 424.17,-238.78C432.91,-240.14 437.25,-235.94 439.48,-218.68L446.87,-162.55L465.41,-163.37L450.38,-248.50L426.37,-244.25L425.10,-245.42C425.85,-250.58 427.33,-255.78 429.72,-262.49C436.67,-282.11 441.72,-289.42 452.08,-292.81L457.38,-294.51L456.71,-309.64L434.75,-308.66L419.63,-247.38L417.17,-247.76L419.83,-319.98Z" fill="#ffffff" stroke="#000000"/>
    <path d="M-490.60,-95.05L-468.93,-96.98C-447.50,-98.89 -435.74,-108.43 -437.69,-130.34L-440.15,-158.03C-441.63,-174.64 -445.50,-188.13 -453.19,-192.78L-469.20,-189.90L-469.41,-192.31C-457.23,-199.94 -448.39,-209.71 -450.06,-228.49L-451.54,-245.10C-453.49,-267.01 -465.32,-274.45 -484.58,-272.74L-506.25,-270.81ZM-476.52,-193.13L-480.92,-190.80L-486.73,-256.04L-484.81,-256.21C-474.45,-257.14 -470.46,-253.12 -469.06,-237.47L-466.83,-212.44C-466.08,-204.01 -467.74,-198.04 -476.52,-193.13ZM-473.71,-186.10C-465.28,-186.85 -460.50,-182.18 -459.54,-171.35L-456.28,-134.75C-454.89,-119.10 -459.07,-114.36 -472.07,-113.20L-474.00,-113.03L-480.24,-183.09C-478.44,-184.71 -476.36,-185.87 -473.71,-186.10ZM-408.33,-250.40C-423.49,-249.05 -433.73,-230.43 -432.38,-215.26C-431.39,-204.19 -428.73,-190.59 -422.88,-179.46L-399.77,-181.52C-421.29,-199.75 -426.18,-208.29 -427.08,-218.40C-427.83,-226.83 -425.17,-232.40 -412.65,-233.52C-404.70,-234.22 -402.61,-232.47 -401.92,-224.77L-397.95,-180.23C-415.39,-160.72 -424.81,-152.11 -423.08,-132.61L-421.60,-116.00C-420.57,-104.44 -415.26,-99.33 -406.11,-100.15C-396.97,-100.96 -391.46,-107.28 -391.04,-143.47L-388.59,-143.20C-388.44,-108.76 -383.48,-102.16 -373.61,-103.04C-362.30,-104.05 -360.92,-115.82 -362.51,-130.97L-366.90,-172.07L-370.27,-171.77L-367.24,-129.57C-366.77,-121.61 -368.33,-120.01 -370.49,-119.82C-373.14,-119.58 -375.68,-120.81 -376.84,-133.82L-385.62,-232.53C-386.72,-244.80 -394.36,-251.65 -408.33,-250.40ZM-400.70,-118.35C-403.10,-118.13 -404.92,-119.43 -405.30,-123.76L-407.45,-147.83C-408.35,-157.95 -407.18,-163.87 -397.50,-175.17L-395.79,-155.91C-393.82,-133.76 -395.40,-118.82 -400.70,-118.35ZM-320.82,-235.14C-320.26,-228.88 -323.54,-219.37 -335.47,-189.91L-317.18,-191.54C-314.99,-213.33 -315.70,-229.53 -316.26,-235.79C-317.61,-250.96 -324.30,-257.88 -336.82,-256.77C-350.06,-255.59 -360.58,-245.68 -358.46,-221.84L-350.59,-133.48C-348.75,-112.78 -341.34,-105.91 -328.34,-107.07C-313.90,-108.36 -308.46,-126.31 -310.98,-149.14L-314.29,-178.21L-317.66,-177.91L-315.86,-149.44C-314.97,-133.98 -316.56,-124.62 -322.10,-124.13C-327.63,-123.64 -332.92,-125.83 -334.47,-143.17L-341.82,-225.75C-342.59,-234.42 -341.62,-239.84 -334.39,-240.48C-325.25,-241.30 -321.22,-239.71 -320.82,-235.14ZM-288.10,-290.23L-304.95,-288.73L-289.31,-112.97L-272.45,-114.47L-278.11,-178.03C-278.52,-182.61 -278.64,-186.72 -278.50,-190.62C-269.92,-192.35 -265.44,-188.38 -262.48,-171.42L-252.71,-116.23L-234.41,-117.86L-253.01,-201.38L-276.57,-196.13L-277.88,-197.22C-277.37,-202.37 -276.13,-207.57 -274.06,-214.31C-268.05,-234.01 -263.38,-241.47 -253.28,-245.28L-248.11,-247.19L-249.44,-262.12L-271.11,-260.19L-283.37,-198.92L-285.82,-199.19L-286.36,-270.72ZM-179.48,-255.97L-158.54,-257.84L-159.63,-270.12L-182.02,-268.12L-183.39,-269.94L-181.10,-301.45L-183.82,-301.94C-187.15,-295.81 -194.12,-292.28 -199.55,-290.59L-197.43,-266.75L-208.50,-265.76L-207.41,-253.49L-196.33,-254.47L-186.86,-148.06C-185.02,-127.35 -178.09,-120.45 -165.82,-121.54C-152.09,-122.76 -147.05,-139.71 -149.44,-161.10L-152.97,-192.57L-156.34,-192.27L-154.32,-161.39C-153.36,-145.22 -154.75,-139.03 -160.53,-138.51C-164.62,-138.15 -169.19,-140.41 -170.74,-157.74ZM-109.47,-126.55C-95.27,-127.82 -84.02,-137.80 -86.12,-161.39L-94.01,-249.99C-95.85,-270.70 -104.46,-277.45 -119.87,-276.08C-134.08,-274.82 -145.32,-264.84 -143.22,-241.24L-135.33,-152.64C-133.49,-131.94 -124.64,-125.20 -109.47,-126.55ZM-121.30,-259.45C-116.49,-259.88 -111.68,-257.64 -110.13,-240.31L-102.76,-157.49C-102.01,-149.06 -102.74,-143.65 -108.04,-143.18C-113.10,-142.73 -117.67,-145.00 -119.21,-162.33L-126.58,-245.15C-127.33,-253.58 -126.60,-258.98 -121.30,-259.45ZM-22.49,-269.95L-1.55,-271.81L-2.64,-284.09L-25.03,-282.10L-26.40,-283.92L-24.11,-315.42L-26.83,-315.91C-30.16,-309.79 -37.13,-306.26 -42.56,-304.56L-40.44,-280.73L-51.51,-279.74L-50.42,-267.46L-39.34,-268.45L-29.87,-162.03C-28.03,-141.33 -21.10,-134.42 -8.83,-135.51C4.90,-136.74 9.94,-153.69 7.55,-175.07L4.02,-206.55L0.65,-206.25L2.67,-175.36C3.63,-159.19 2.24,-153.00 -3.54,-152.49C-7.64,-152.12 -12.20,-154.38 -13.75,-171.72ZM25.16,-318.11L8.30,-316.61L23.95,-140.86L40.80,-142.36L32.68,-233.61C30.66,-256.24 34.24,-273.30 40.98,-273.90C45.56,-274.31 47.10,-270.56 47.88,-261.89L58.38,-143.92L75.23,-145.42L63.89,-272.78C62.82,-284.82 55.66,-291.71 46.75,-290.91C37.60,-290.10 29.95,-283.35 28.11,-246.79L25.66,-247.05L28.18,-284.16ZM127.29,-269.45C125.42,-290.39 117.78,-297.24 104.54,-296.06C90.09,-294.77 79.81,-284.88 81.93,-261.04L89.80,-172.69C91.64,-151.98 99.77,-145.18 114.45,-146.49C130.58,-147.92 136.75,-165.94 134.23,-188.77L130.93,-217.60L127.56,-217.30L129.35,-189.07C130.24,-173.62 127.92,-164.19 120.70,-163.55C113.96,-162.95 107.46,-165.04 105.92,-182.37L101.83,-228.36L130.72,-230.93ZM113.55,-260.22L115.97,-233.01L101.53,-231.73L98.57,-264.95C97.80,-273.62 98.53,-279.02 104.31,-279.54C109.12,-279.96 111.99,-277.79 113.55,-260.22ZM188.64,-155.52L210.31,-157.45C231.74,-159.36 243.51,-168.90 241.56,-190.81L239.09,-218.49C237.61,-235.10 233.74,-248.59 226.05,-253.25L210.05,-250.37L209.83,-252.77C222.02,-260.41 230.85,-270.17 229.18,-288.95L227.70,-305.57C225.75,-327.47 213.93,-334.92 194.67,-333.20L173.00,-331.27ZM202.72,-253.60L198.32,-251.26L192.51,-316.51L194.44,-316.68C204.79,-317.60 208.79,-313.59 210.18,-297.94L212.41,-272.90C213.16,-264.47 211.51,-258.50 202.72,-253.60ZM205.53,-246.57C213.96,-247.32 218.74,-242.65 219.71,-231.81L222.97,-195.22C224.36,-179.57 220.17,-174.83 207.17,-173.67L205.24,-173.50L199.01,-243.56C200.80,-245.17 202.88,-246.33 205.53,-246.57ZM283.00,-161.49C297.21,-162.76 308.45,-172.74 306.35,-196.33L298.46,-284.93C296.62,-305.63 288.01,-312.39 272.60,-311.02C258.40,-309.75 247.15,-299.77 249.25,-276.18L257.14,-187.58C258.98,-166.88 267.83,-160.14 283.00,-161.49ZM271.17,-294.39C275.99,-294.82 280.80,-292.58 282.34,-275.24L289.71,-192.42C290.46,-184.00 289.73,-178.59 284.43,-178.12C279.38,-177.67 274.81,-179.93 273.26,-197.27L265.89,-280.09C265.14,-288.51 265.87,-293.92 271.17,-294.39ZM349.46,-167.41C363.66,-168.67 374.91,-178.65 372.81,-202.25L364.92,-290.84C363.08,-311.55 354.47,-318.31 339.06,-316.93C324.85,-315.67 313.61,-305.69 315.71,-282.10L323.60,-193.50C325.44,-172.79 334.29,-166.06 349.46,-167.41ZM337.63,-300.31C342.44,-300.73 347.25,-298.49 348.79,-281.16L356.17,-198.34C356.92,-189.91 356.18,-184.51 350.89,-184.04C345.83,-183.59 341.26,-185.85 339.72,-203.18L332.35,-286.00C331.60,-294.43 332.33,-299.83 337.63,-300.31ZM393.79,-350.93L376.94,-349.43L392.58,-173.67L409.44,-175.17L403.78,-238.73C403.37,-243.31 403.25,-247.42 403.39,-251.32C411.97,-253.05 416.45,-249.08 419.41,-232.12L429.18,-176.93L447.48,-178.56L428.88,-262.08L405.32,-256.83L404.01,-257.92C404.53,-263.07 405.76,-268.27 407.83,-275.01C413.84,-294.71 418.52,-302.17 428.61,-305.98L433.78,-307.89L432.45,-322.82L410.78,-320.89L398.52,-259.62L396.07,-259.89L395.53,-331.43Z" fill="#ffffff" stroke="#000000"/>
    <path d="M-494.67,-68.78L-473.33,-71.64C-452.23,-74.47 -441.01,-84.42 -443.90,-106.00L-447.55,-133.27C-449.75,-149.63 -454.16,-162.80 -461.98,-167.06L-477.67,-163.51L-477.99,-165.88C-466.28,-173.97 -457.97,-184.01 -460.45,-202.51L-462.64,-218.87C-465.53,-240.45 -477.55,-247.29 -496.52,-244.74L-517.86,-241.89ZM-485.06,-166.38L-489.31,-163.88L-497.92,-228.14L-496.02,-228.40C-485.83,-229.76 -481.70,-225.97 -479.63,-210.56L-476.33,-185.90C-475.22,-177.60 -476.59,-171.62 -485.06,-166.38ZM-481.97,-159.56C-473.67,-160.67 -468.74,-156.26 -467.31,-145.59L-462.48,-109.55C-460.41,-94.13 -464.35,-89.26 -477.15,-87.55L-479.05,-87.29L-488.29,-156.30C-486.59,-157.97 -484.58,-159.21 -481.97,-159.56ZM-420.14,-226.01C-435.08,-224.01 -444.38,-205.14 -442.38,-190.20C-440.92,-179.30 -437.69,-165.97 -431.42,-155.22L-408.65,-158.27C-430.74,-175.35 -435.94,-183.58 -437.28,-193.54C-438.39,-201.84 -436.00,-207.47 -423.67,-209.12C-415.85,-210.17 -413.70,-208.53 -412.68,-200.94L-406.80,-157.07C-423.19,-137.02 -432.13,-128.10 -429.56,-108.89L-427.36,-92.53C-425.84,-81.14 -420.37,-76.33 -411.36,-77.53C-402.34,-78.74 -397.18,-85.23 -398.36,-121.03L-395.92,-120.88C-394.26,-86.82 -389.07,-80.52 -379.34,-81.82C-368.20,-83.31 -367.35,-95.01 -369.59,-109.92L-375.73,-150.37L-379.05,-149.93L-374.21,-108.34C-373.39,-100.48 -374.86,-98.84 -377.00,-98.55C-379.61,-98.20 -382.17,-99.31 -383.88,-112.11L-396.91,-209.33C-398.53,-221.42 -406.39,-227.85 -420.14,-226.01ZM-406.80,-95.76C-409.17,-95.45 -411.02,-96.65 -411.59,-100.92L-414.77,-124.63C-416.10,-134.59 -415.20,-140.50 -406.14,-152.09L-403.60,-133.12C-400.67,-111.31 -401.58,-96.46 -406.80,-95.76ZM-332.94,-214.76C-332.11,-208.60 -334.94,-199.05 -345.45,-169.40L-327.43,-171.81C-326.22,-193.46 -327.64,-209.44 -328.47,-215.60C-330.47,-230.54 -337.38,-237.10 -349.71,-235.45C-362.75,-233.70 -372.72,-223.43 -369.58,-199.96L-357.92,-112.93C-355.19,-92.54 -347.56,-86.08 -334.76,-87.80C-320.53,-89.70 -315.94,-107.70 -319.43,-130.16L-323.99,-158.76L-327.31,-158.31L-324.27,-130.23C-322.71,-115.00 -323.88,-105.67 -329.33,-104.94C-334.78,-104.21 -340.11,-106.15 -342.40,-123.22L-353.30,-204.55C-354.44,-213.09 -353.72,-218.50 -346.60,-219.45C-337.59,-220.66 -333.54,-219.27 -332.94,-214.76ZM-303.01,-270.67L-319.61,-268.45L-296.42,-95.35L-279.82,-97.57L-288.21,-160.17C-288.81,-164.67 -289.11,-168.74 -289.15,-172.60C-280.74,-174.69 -276.13,-170.96 -272.46,-154.31L-260.37,-100.17L-242.35,-102.59L-264.41,-184.36L-287.47,-178.13L-288.82,-179.16C-288.54,-184.26 -287.54,-189.47 -285.79,-196.22C-280.71,-215.97 -276.42,-223.54 -266.60,-227.75L-261.58,-229.87L-263.55,-244.58L-284.89,-241.72L-294.32,-180.59L-296.76,-180.75L-300.44,-251.46ZM-194.10,-241.57L-173.47,-244.33L-175.09,-256.43L-197.14,-253.47L-198.58,-255.21L-197.70,-286.47L-200.40,-286.83C-203.44,-280.63 -210.17,-276.83 -215.46,-274.92L-212.32,-251.44L-223.23,-249.98L-221.61,-237.89L-210.70,-239.35L-196.66,-134.54C-193.93,-114.14 -186.78,-107.62 -174.68,-109.24C-161.17,-111.05 -156.92,-128.03 -160.23,-149.07L-165.10,-180.04L-168.42,-179.60L-165.06,-149.15C-163.41,-133.20 -164.51,-127.02 -170.20,-126.25C-174.23,-125.71 -178.85,-127.75 -181.14,-144.82ZM-119.19,-116.67C-105.20,-118.55 -94.52,-128.91 -97.63,-152.15L-109.32,-239.41C-112.05,-259.80 -120.86,-266.11 -136.04,-264.07C-150.03,-262.20 -160.71,-251.84 -157.60,-228.60L-145.91,-141.34C-143.18,-120.94 -134.13,-114.67 -119.19,-116.67ZM-136.73,-247.57C-131.98,-248.20 -127.13,-246.20 -124.84,-229.12L-113.91,-147.55C-112.80,-139.25 -113.29,-133.88 -118.50,-133.18C-123.48,-132.51 -128.10,-134.55 -130.39,-151.62L-141.32,-233.19C-142.43,-241.49 -141.94,-246.87 -136.73,-247.57ZM-39.48,-262.28L-18.85,-265.05L-20.47,-277.14L-42.52,-274.19L-43.96,-275.93L-43.08,-307.18L-45.78,-307.54C-48.82,-301.34 -55.55,-297.55 -60.84,-295.63L-57.70,-272.15L-68.61,-270.69L-66.99,-258.60L-56.08,-260.06L-42.04,-155.25C-39.31,-134.86 -32.16,-128.33 -20.06,-129.95C-6.55,-131.77 -2.30,-148.75 -5.61,-169.79L-10.48,-200.76L-13.80,-200.31L-10.44,-169.86C-8.79,-153.91 -9.89,-147.73 -15.58,-146.97C-19.61,-146.43 -24.23,-148.46 -26.52,-165.54ZM5.52,-312.00L-11.08,-309.78L12.11,-136.68L28.71,-138.90L16.67,-228.77C13.68,-251.06 16.47,-268.09 23.11,-268.98C27.62,-269.58 29.31,-265.95 30.45,-257.41L46.02,-141.22L62.62,-143.44L45.81,-268.88C44.23,-280.74 36.84,-287.23 28.07,-286.06C19.05,-284.85 11.79,-277.84 11.57,-241.61L9.14,-241.76L10.00,-278.57ZM108.65,-268.37C105.89,-289.00 98.02,-295.43 84.98,-293.68C70.75,-291.78 61.02,-281.54 64.17,-258.07L75.83,-171.04C78.56,-150.65 86.89,-144.28 101.36,-146.22C117.25,-148.35 122.55,-166.44 119.05,-188.90L114.53,-217.26L111.21,-216.82L114.22,-188.98C115.77,-173.74 113.90,-164.31 106.79,-163.36C100.15,-162.47 93.63,-164.25 91.34,-181.33L85.28,-226.62L113.73,-230.43ZM95.47,-258.64L99.06,-231.84L84.83,-229.94L80.45,-262.66C79.30,-271.20 79.79,-276.57 85.48,-277.34C90.22,-277.97 93.15,-275.95 95.47,-258.64ZM174.32,-158.41L195.66,-161.27C216.77,-164.10 227.99,-174.05 225.09,-195.63L221.44,-222.89C219.25,-239.26 214.83,-252.42 207.02,-256.69L191.32,-253.14L191.00,-255.51C202.71,-263.59 211.02,-273.64 208.54,-292.13L206.35,-308.49C203.46,-330.07 191.44,-336.91 172.47,-334.37L151.13,-331.51ZM183.94,-256.01L179.68,-253.51L171.08,-317.77L172.97,-318.02C183.17,-319.39 187.30,-315.60 189.36,-300.18L192.67,-275.52C193.78,-267.22 192.41,-261.25 183.94,-256.01ZM187.02,-249.18C195.32,-250.29 200.26,-245.88 201.69,-235.21L206.52,-199.17C208.58,-183.76 204.65,-178.89 191.84,-177.17L189.95,-176.92L180.70,-245.92C182.41,-247.60 184.41,-248.83 187.02,-249.18ZM267.36,-168.46C281.35,-170.33 292.03,-180.70 288.92,-203.93L277.23,-291.20C274.50,-311.59 265.69,-317.89 250.51,-315.86C236.52,-313.98 225.84,-303.62 228.95,-280.38L240.64,-193.12C243.38,-172.73 252.42,-166.46 267.36,-168.46ZM249.83,-299.35C254.57,-299.99 259.42,-297.98 261.71,-280.91L272.64,-199.34C273.75,-191.04 273.26,-185.66 268.05,-184.97C263.07,-184.30 258.45,-186.34 256.16,-203.41L245.23,-284.98C244.12,-293.28 244.61,-298.65 249.83,-299.35ZM332.81,-177.23C346.80,-179.10 357.49,-189.47 354.37,-212.70L342.68,-299.97C339.95,-320.36 331.14,-326.66 315.96,-324.63C301.97,-322.75 291.29,-312.39 294.41,-289.15L306.10,-201.89C308.83,-181.50 317.88,-175.23 332.81,-177.23ZM315.28,-308.12C320.02,-308.76 324.88,-306.75 327.16,-289.68L338.09,-208.11C339.20,-199.81 338.72,-194.43 333.50,-193.73C328.52,-193.07 323.90,-195.10 321.61,-212.18L310.69,-293.75C309.58,-302.05 310.06,-307.42 315.28,-308.12ZM368.59,-360.64L352.00,-358.42L375.19,-185.32L391.78,-187.54L383.40,-250.14C382.79,-254.65 382.49,-258.71 382.46,-262.57C390.87,-264.66 395.47,-260.93 399.15,-244.29L411.23,-190.15L429.25,-192.56L407.19,-274.33L384.13,-268.10L382.78,-269.13C383.07,-274.24 384.06,-279.44 385.81,-286.19C390.89,-305.94 395.18,-313.52 405.00,-317.73L410.02,-319.85L408.06,-334.55L386.71,-331.69L377.28,-270.57L374.85,-270.72L371.17,-341.44Z" fill="#ffffff" stroke="#000000"/>
    <path d="M-497.27,-42.43L-476.30,-46.19C-455.56,-49.92 -444.90,-60.25 -448.71,-81.46L-453.52,-108.26C-456.40,-124.34 -461.35,-137.16 -469.26,-141.03L-484.63,-136.83L-485.04,-139.16C-473.82,-147.67 -466.05,-157.97 -469.31,-176.15L-472.19,-192.23C-476.00,-213.44 -488.18,-219.67 -506.83,-216.32L-527.80,-212.56ZM-492.05,-139.35L-496.15,-136.69L-507.48,-199.85L-505.62,-200.18C-495.60,-201.98 -491.35,-198.41 -488.63,-183.27L-484.28,-159.03C-482.81,-150.87 -483.91,-144.90 -492.05,-139.35ZM-488.70,-132.74C-480.54,-134.20 -475.47,-130.06 -473.59,-119.57L-467.23,-84.15C-464.51,-69.00 -468.19,-64.01 -480.77,-61.75L-482.64,-61.41L-494.81,-129.23C-493.20,-130.97 -491.26,-132.28 -488.70,-132.74ZM-430.49,-201.16C-445.17,-198.52 -453.54,-179.46 -450.90,-164.78C-448.98,-154.06 -445.20,-141.02 -438.53,-130.67L-416.16,-134.69C-438.74,-150.60 -444.25,-158.51 -446.00,-168.30C-447.47,-176.46 -445.36,-182.13 -433.24,-184.30C-425.55,-185.69 -423.35,-184.16 -422.01,-176.70L-414.27,-133.58C-429.59,-113.03 -438.04,-103.82 -434.65,-84.94L-431.77,-68.86C-429.76,-57.67 -424.14,-53.15 -415.28,-54.74C-406.42,-56.33 -401.60,-62.97 -404.34,-98.32L-401.92,-98.27C-398.78,-64.68 -393.37,-58.67 -383.82,-60.39C-372.86,-62.35 -372.54,-73.96 -375.41,-88.60L-383.26,-128.32L-386.52,-127.74L-379.90,-86.83C-378.76,-79.10 -380.14,-77.40 -382.23,-77.03C-384.80,-76.57 -387.38,-77.55 -389.64,-90.13L-406.78,-185.68C-408.92,-197.57 -416.97,-203.58 -430.49,-201.16ZM-411.57,-72.97C-413.90,-72.55 -415.79,-73.65 -416.54,-77.85L-420.72,-101.15C-422.48,-110.94 -421.85,-116.83 -413.39,-128.69L-410.05,-110.04C-406.20,-88.60 -406.45,-73.89 -411.57,-72.97ZM-343.78,-193.86C-342.69,-187.81 -345.06,-178.24 -354.15,-148.46L-336.44,-151.64C-336.20,-173.09 -338.30,-188.83 -339.39,-194.89C-342.02,-209.57 -349.15,-215.75 -361.27,-213.58C-374.08,-211.28 -383.49,-200.69 -379.35,-177.62L-364.00,-92.09C-360.40,-72.04 -352.58,-65.99 -340.00,-68.25C-326.01,-70.76 -322.27,-88.75 -326.71,-110.81L-332.46,-138.88L-335.73,-138.30L-331.49,-110.67C-329.28,-95.67 -330.02,-86.40 -335.38,-85.44C-340.74,-84.47 -346.10,-86.16 -349.11,-102.94L-363.45,-182.88C-364.96,-191.27 -364.48,-196.64 -357.49,-197.90C-348.63,-199.49 -344.57,-198.29 -343.78,-193.86ZM-316.64,-250.45L-332.95,-247.53L-302.42,-77.40L-286.11,-80.33L-297.15,-141.85C-297.94,-146.28 -298.42,-150.28 -298.62,-154.10C-290.40,-156.53 -285.69,-153.05 -281.32,-136.75L-267.00,-83.76L-249.28,-86.93L-274.69,-166.81L-297.21,-159.64L-298.59,-160.60C-298.53,-165.66 -297.78,-170.85 -296.35,-177.60C-292.19,-197.35 -288.28,-205.03 -278.76,-209.62L-273.88,-211.94L-276.48,-226.39L-297.45,-222.63L-304.09,-161.78L-306.51,-161.82L-313.25,-231.58ZM-207.68,-226.47L-187.40,-230.11L-189.54,-241.99L-211.21,-238.10L-212.71,-239.76L-213.21,-270.70L-215.90,-270.94C-218.63,-264.68 -225.12,-260.62 -230.27,-258.50L-226.13,-235.43L-236.85,-233.50L-234.71,-221.62L-223.99,-223.54L-205.51,-120.53C-201.91,-100.49 -194.56,-94.35 -182.67,-96.48C-169.39,-98.87 -165.94,-115.84 -170.13,-136.50L-176.30,-166.91L-179.57,-166.32L-174.91,-136.36C-172.58,-120.67 -173.39,-114.51 -178.99,-113.50C-182.95,-112.79 -187.61,-114.60 -190.62,-131.38ZM-128.13,-106.27C-114.38,-108.74 -104.27,-119.45 -108.37,-142.29L-123.76,-228.06C-127.36,-248.10 -136.35,-253.94 -151.26,-251.27C-165.01,-248.80 -175.12,-238.08 -171.02,-215.24L-155.63,-129.48C-152.03,-109.44 -142.81,-103.64 -128.13,-106.27ZM-151.22,-234.92C-146.56,-235.75 -141.67,-233.98 -138.66,-217.20L-124.27,-137.03C-122.80,-128.88 -123.05,-123.54 -128.18,-122.62C-133.07,-121.74 -137.73,-123.55 -140.74,-140.33L-155.12,-220.50C-156.59,-228.66 -156.34,-234.00 -151.22,-234.92ZM-55.71,-253.74L-35.44,-257.38L-37.57,-269.26L-59.25,-265.37L-60.75,-267.03L-61.25,-297.97L-63.94,-298.21C-66.66,-291.95 -73.15,-287.90 -78.30,-285.77L-74.16,-262.70L-84.88,-260.77L-82.75,-248.89L-72.03,-250.81L-53.54,-147.80C-49.95,-127.76 -42.59,-121.62 -30.70,-123.75C-17.42,-126.14 -13.97,-143.12 -18.16,-163.77L-24.34,-194.18L-27.60,-193.59L-22.95,-163.64C-20.61,-147.94 -21.43,-141.78 -27.02,-140.77C-30.98,-140.06 -35.64,-141.87 -38.65,-158.65ZM-13.41,-304.87L-29.72,-301.94L0.81,-131.82L17.13,-134.74L1.27,-223.07C-2.66,-244.98 -0.65,-261.94 5.88,-263.11C10.30,-263.90 12.14,-260.38 13.64,-251.99L34.14,-137.80L50.45,-140.72L28.33,-264.01C26.24,-275.66 18.65,-281.76 10.02,-280.21C1.17,-278.62 -5.71,-271.37 -4.33,-235.54L-6.74,-235.58L-7.51,-272.01ZM90.48,-266.26C86.84,-286.54 78.78,-292.55 65.96,-290.25C51.98,-287.74 42.81,-277.19 46.95,-254.12L62.30,-168.59C65.89,-148.55 74.42,-142.62 88.63,-145.17C104.25,-147.97 108.69,-166.09 104.25,-188.15L98.54,-215.99L95.27,-215.40L99.47,-188.01C101.68,-173.01 100.24,-163.61 93.25,-162.36C86.72,-161.19 80.20,-162.66 77.19,-179.44L69.20,-223.95L97.17,-228.97ZM77.87,-256.06L82.60,-229.73L68.62,-227.22L62.84,-259.38C61.34,-267.77 61.58,-273.10 67.18,-274.11C71.84,-274.95 74.82,-273.07 77.87,-256.06ZM160.24,-160.43L181.21,-164.19C201.95,-167.91 212.61,-178.24 208.80,-199.45L203.99,-226.25C201.11,-242.33 196.16,-255.16 188.25,-259.03L172.88,-254.83L172.47,-257.16C183.69,-265.67 191.46,-275.97 188.20,-294.14L185.31,-310.22C181.51,-331.43 169.32,-337.66 150.68,-334.32L129.70,-330.55ZM165.46,-257.35L161.36,-254.69L150.03,-317.84L151.89,-318.18C161.91,-319.98 166.16,-316.41 168.88,-301.26L173.23,-277.02C174.69,-268.87 173.60,-262.90 165.46,-257.35ZM168.81,-250.73C176.96,-252.19 182.04,-248.05 183.92,-237.57L190.28,-202.14C193.00,-186.99 189.32,-182.00 176.74,-179.75L174.87,-179.41L162.70,-247.23C164.31,-248.96 166.24,-250.27 168.81,-250.73ZM251.78,-174.45C265.54,-176.92 275.64,-187.63 271.54,-210.47L256.15,-296.23C252.55,-316.28 243.57,-322.12 228.65,-319.44C214.90,-316.98 204.80,-306.26 208.89,-283.42L224.29,-197.66C227.88,-177.62 237.10,-171.81 251.78,-174.45ZM228.70,-303.10C233.36,-303.93 238.25,-302.16 241.26,-285.38L255.65,-205.21C257.11,-197.06 256.86,-191.72 251.74,-190.80C246.84,-189.92 242.19,-191.73 239.18,-208.51L224.79,-288.68C223.33,-296.84 223.57,-302.17 228.70,-303.10ZM316.11,-185.99C329.86,-188.46 339.97,-199.18 335.87,-222.01L320.48,-307.78C316.88,-327.82 307.90,-333.67 292.98,-330.99C279.23,-328.52 269.12,-317.81 273.22,-294.97L288.61,-209.20C292.21,-189.16 301.43,-183.36 316.11,-185.99ZM293.03,-314.64C297.69,-315.48 302.58,-313.71 305.59,-296.93L319.98,-216.76C321.44,-208.60 321.19,-203.26 316.07,-202.34C311.17,-201.47 306.52,-203.28 303.51,-220.06L289.12,-300.23C287.66,-308.38 287.90,-313.72 293.03,-314.64ZM343.43,-368.91L327.12,-365.98L357.65,-195.85L373.97,-198.78L362.92,-260.31C362.13,-264.74 361.65,-268.74 361.45,-272.55C369.67,-274.99 374.39,-271.51 378.75,-255.21L393.08,-202.21L410.79,-205.39L385.39,-285.27L362.86,-278.10L361.48,-279.05C361.54,-284.11 362.29,-289.30 363.73,-296.05C367.88,-315.80 371.79,-323.48 381.31,-328.08L386.19,-330.40L383.60,-344.85L362.62,-341.08L355.98,-280.23L353.57,-280.28L346.82,-350.03Z" fill="#ffffff" stroke="#000000"/>
    <path d="M-498.40,-16.07L-477.83,-20.72C-457.49,-25.31 -447.41,-35.99 -452.11,-56.79L-458.04,-83.07C-461.60,-98.84 -467.05,-111.30 -475.04,-114.79L-490.05,-109.96L-490.56,-112.24C-479.84,-121.15 -472.61,-131.67 -476.63,-149.50L-480.19,-165.27C-484.88,-186.07 -497.20,-191.69 -515.49,-187.57L-536.06,-182.92ZM-497.50,-112.12L-501.43,-109.31L-515.41,-171.25L-513.58,-171.66C-503.75,-173.88 -499.40,-170.54 -496.04,-155.68L-490.68,-131.91C-488.87,-123.91 -489.69,-117.96 -497.50,-112.12ZM-493.90,-105.73C-485.90,-107.53 -480.70,-103.66 -478.38,-93.38L-470.54,-58.63C-467.18,-43.78 -470.60,-38.68 -482.94,-35.90L-484.77,-35.49L-499.78,-102.00C-498.26,-103.78 -496.41,-105.16 -493.90,-105.73ZM-439.35,-175.92C-453.75,-172.68 -461.19,-153.46 -457.94,-139.06C-455.56,-128.55 -451.25,-115.83 -444.20,-105.89L-422.26,-110.84C-445.29,-125.58 -451.08,-133.16 -453.25,-142.76C-455.05,-150.76 -453.22,-156.46 -441.33,-159.14C-433.79,-160.85 -431.55,-159.43 -429.90,-152.12L-420.35,-109.83C-434.59,-88.84 -442.54,-79.36 -438.36,-60.85L-434.80,-45.08C-432.33,-34.11 -426.57,-29.88 -417.89,-31.84C-409.20,-33.80 -404.72,-40.58 -408.98,-75.41L-406.59,-75.47C-402.01,-42.39 -396.40,-36.69 -387.03,-38.81C-376.29,-41.23 -376.48,-52.72 -379.96,-67.07L-389.46,-106.00L-392.66,-105.27L-384.32,-65.12C-382.85,-57.53 -384.14,-55.79 -386.19,-55.33C-388.71,-54.76 -391.30,-55.62 -394.09,-67.96L-415.24,-161.67C-417.87,-173.33 -426.10,-178.92 -439.35,-175.92ZM-415.02,-50.02C-417.31,-49.51 -419.22,-50.52 -420.15,-54.63L-425.30,-77.49C-427.47,-87.09 -427.11,-92.94 -419.27,-105.03L-415.14,-86.75C-410.40,-65.72 -409.99,-51.16 -415.02,-50.02ZM-353.31,-172.52C-351.96,-166.58 -353.89,-157.02 -361.57,-127.18L-344.20,-131.10C-344.90,-152.32 -347.67,-167.79 -349.01,-173.73C-352.26,-188.13 -359.58,-193.93 -371.46,-191.25C-384.03,-188.41 -392.87,-177.53 -387.76,-154.90L-368.83,-71.02C-364.39,-51.36 -356.40,-45.72 -344.05,-48.51C-330.34,-51.60 -327.42,-69.55 -332.78,-91.16L-339.71,-118.66L-342.91,-117.94L-337.51,-90.82C-334.66,-76.09 -334.99,-66.89 -340.25,-65.70C-345.50,-64.51 -350.87,-65.94 -354.58,-82.40L-372.28,-160.80C-374.13,-169.03 -373.90,-174.36 -367.04,-175.91C-358.36,-177.87 -354.29,-176.87 -353.31,-172.52ZM-328.96,-229.66L-344.96,-226.05L-307.31,-59.20L-291.31,-62.81L-304.93,-123.15C-305.91,-127.49 -306.55,-131.43 -306.92,-135.19C-298.90,-137.96 -294.09,-134.73 -289.05,-118.81L-272.57,-67.04L-255.20,-70.96L-283.81,-148.81L-305.77,-140.74L-307.17,-141.62C-307.34,-146.63 -306.82,-151.79 -305.70,-158.53C-302.46,-178.23 -298.93,-186.00 -289.72,-190.96L-285.00,-193.46L-288.20,-207.63L-308.77,-202.99L-312.66,-142.54L-315.05,-142.48L-324.78,-211.15ZM-220.19,-210.73L-200.31,-215.22L-202.94,-226.88L-224.19,-222.08L-225.75,-223.65L-227.60,-254.22L-230.27,-254.34C-232.69,-248.03 -238.93,-243.73 -243.93,-241.41L-238.82,-218.78L-249.34,-216.41L-246.71,-204.75L-236.19,-207.12L-213.39,-106.10C-208.96,-86.44 -201.42,-80.70 -189.76,-83.33C-176.73,-86.27 -174.07,-103.20 -179.11,-123.44L-186.56,-153.23L-189.76,-152.51L-183.84,-123.10C-180.84,-107.68 -181.38,-101.55 -186.87,-100.31C-190.75,-99.44 -195.43,-101.02 -199.15,-117.48ZM-136.27,-95.40C-122.78,-98.44 -113.27,-109.48 -118.32,-131.88L-137.30,-215.99C-141.74,-235.64 -150.88,-241.03 -165.51,-237.73C-178.99,-234.68 -188.51,-223.65 -183.46,-201.25L-164.48,-117.14C-160.04,-97.48 -150.67,-92.15 -136.27,-95.40ZM-164.74,-221.56C-160.17,-222.60 -155.26,-221.06 -151.55,-204.61L-133.80,-125.98C-132.00,-117.98 -132.01,-112.69 -137.03,-111.56C-141.83,-110.48 -146.52,-112.06 -150.23,-128.52L-167.97,-207.14C-169.78,-215.14 -169.77,-220.43 -164.74,-221.56ZM-71.16,-244.37L-51.27,-248.85L-53.90,-260.51L-75.16,-255.71L-76.71,-257.28L-78.57,-287.85L-81.24,-287.97C-83.66,-281.66 -89.89,-277.37 -94.89,-275.04L-89.79,-252.41L-100.30,-250.04L-97.67,-238.38L-87.15,-240.76L-64.36,-139.73C-59.92,-120.08 -52.38,-114.33 -40.72,-116.96C-27.69,-119.90 -25.03,-136.84 -30.08,-157.08L-37.52,-186.86L-40.72,-186.14L-34.80,-156.73C-31.80,-141.31 -32.34,-135.19 -37.83,-133.95C-41.71,-133.07 -46.40,-134.66 -50.11,-151.11ZM-31.57,-296.78L-47.57,-293.17L-9.92,-126.32L6.08,-129.93L-13.47,-216.55C-18.32,-238.04 -17.08,-254.89 -10.68,-256.33C-6.33,-257.31 -4.37,-253.91 -2.51,-245.69L22.77,-133.69L38.76,-137.30L11.48,-258.21C8.90,-269.64 1.13,-275.33 -7.33,-273.42C-16.01,-271.46 -22.50,-264.00 -19.56,-228.63L-21.95,-228.57L-24.30,-264.55ZM72.82,-263.17C68.33,-283.05 60.10,-288.64 47.53,-285.80C33.82,-282.71 25.21,-271.88 30.32,-249.25L49.25,-165.37C53.69,-145.71 62.37,-140.23 76.31,-143.37C91.63,-146.83 95.23,-164.94 89.87,-186.55L82.99,-213.82L79.79,-213.10L85.14,-186.20C87.99,-171.47 86.98,-162.11 80.12,-160.57C73.72,-159.12 67.21,-160.30 63.50,-176.75L53.64,-220.41L81.07,-226.60ZM60.81,-252.53L66.64,-226.70L52.92,-223.61L45.80,-255.15C43.95,-263.38 43.96,-268.66 49.44,-269.90C54.01,-270.93 57.04,-269.21 60.81,-252.53ZM146.43,-161.60L167.00,-166.24C187.35,-170.83 197.43,-181.52 192.73,-202.31L186.80,-228.60C183.24,-244.37 177.79,-256.83 169.79,-260.31L154.79,-255.48L154.27,-257.77C165.00,-266.67 172.23,-277.19 168.21,-295.02L164.65,-310.79C159.95,-331.59 147.63,-337.22 129.35,-333.09L108.78,-328.45ZM147.34,-257.65L143.41,-254.84L129.43,-316.78L131.26,-317.19C141.08,-319.41 145.44,-316.07 148.79,-301.21L154.16,-277.44C155.96,-269.44 155.15,-263.49 147.34,-257.65ZM150.94,-251.25C158.94,-253.06 164.14,-249.19 166.46,-238.90L174.30,-204.16C177.65,-189.30 174.24,-184.21 161.90,-181.42L160.07,-181.01L145.06,-247.52C146.58,-249.31 148.43,-250.69 150.94,-251.25ZM236.32,-179.48C249.81,-182.53 259.33,-193.56 254.27,-215.96L235.29,-300.07C230.85,-319.73 221.71,-325.11 207.09,-321.81C193.60,-318.77 184.08,-307.73 189.14,-285.33L208.12,-201.22C212.55,-181.57 221.92,-176.24 236.32,-179.48ZM207.85,-305.65C212.42,-306.68 217.33,-305.15 221.05,-288.69L238.79,-210.07C240.59,-202.07 240.59,-196.78 235.56,-195.65C230.76,-194.56 226.08,-196.15 222.36,-212.60L204.62,-291.23C202.81,-299.23 202.82,-304.52 207.85,-305.65ZM299.41,-193.72C312.90,-196.77 322.42,-207.80 317.36,-230.20L298.38,-314.31C293.94,-333.97 284.80,-339.35 270.17,-336.05C256.69,-333.01 247.17,-321.97 252.22,-299.57L271.21,-215.46C275.64,-195.80 285.01,-190.47 299.41,-193.72ZM270.94,-319.89C275.51,-320.92 280.42,-319.39 284.13,-302.93L301.88,-224.30C303.68,-216.30 303.68,-211.02 298.65,-209.88C293.85,-208.80 289.17,-210.39 285.45,-226.84L267.71,-305.47C265.90,-313.47 265.91,-318.75 270.94,-319.89ZM318.39,-375.76L302.39,-372.14L340.04,-205.29L356.04,-208.91L342.43,-269.25C341.45,-273.59 340.80,-277.53 340.43,-281.29C348.45,-284.06 353.27,-280.82 358.30,-264.90L374.79,-213.13L392.16,-217.05L363.54,-294.91L341.58,-286.83L340.18,-287.71C340.01,-292.72 340.53,-297.88 341.65,-304.62C344.89,-324.33 348.42,-332.09 357.63,-337.05L362.35,-339.56L359.15,-353.73L338.58,-349.09L334.69,-288.64L332.30,-288.58L322.57,-357.24Z" fill="#ffffff" stroke="#000000"/>
    <path d="M-498.08,10.20L-477.95,4.71C-458.04,-0.72 -448.55,-11.72 -454.10,-32.08L-461.12,-57.80C-465.33,-73.23 -471.27,-85.31 -479.32,-88.40L-493.94,-82.97L-494.55,-85.21C-484.34,-94.48 -477.65,-105.20 -482.41,-122.64L-486.62,-138.08C-492.18,-158.43 -504.60,-163.45 -522.49,-158.57L-542.62,-153.08ZM-501.40,-84.78L-505.16,-81.83L-521.70,-142.44L-519.91,-142.93C-510.29,-145.56 -505.84,-142.45 -501.87,-127.91L-495.53,-104.65C-493.39,-96.82 -493.94,-90.90 -501.40,-84.78ZM-497.56,-78.62C-489.73,-80.75 -484.42,-77.16 -481.68,-67.09L-472.40,-33.09C-468.43,-18.55 -471.58,-13.37 -483.66,-10.07L-485.45,-9.59L-503.21,-74.67C-501.79,-76.50 -500.02,-77.95 -497.56,-78.62ZM-446.72,-150.40C-460.81,-146.56 -467.32,-127.24 -463.47,-113.15C-460.67,-102.86 -455.85,-90.48 -448.44,-80.96L-426.97,-86.82C-450.38,-100.38 -456.44,-107.62 -459.00,-117.01C-461.14,-124.84 -459.57,-130.56 -447.94,-133.73C-440.56,-135.74 -438.28,-134.44 -436.33,-127.29L-425.04,-85.91C-438.19,-64.53 -445.64,-54.81 -440.69,-36.70L-436.48,-21.26C-433.55,-10.53 -427.68,-6.60 -419.18,-8.92C-410.68,-11.24 -406.55,-18.14 -412.29,-52.38L-409.93,-52.54C-403.95,-20.05 -398.15,-14.66 -388.98,-17.16C-378.47,-20.03 -379.16,-31.38 -383.23,-45.41L-394.34,-83.47L-397.47,-82.62L-387.46,-43.29C-385.67,-35.85 -386.87,-34.08 -388.88,-33.53C-391.34,-32.86 -393.94,-33.59 -397.24,-45.67L-422.26,-137.37C-425.37,-148.78 -433.75,-153.94 -446.72,-150.40ZM-417.14,-27.02C-419.38,-26.41 -421.31,-27.33 -422.41,-31.35L-428.51,-53.72C-431.08,-63.11 -430.98,-68.91 -423.76,-81.21L-418.88,-63.32C-413.26,-42.74 -412.22,-28.36 -417.14,-27.02ZM-361.52,-150.82C-359.93,-145.01 -361.41,-135.47 -367.69,-105.64L-350.69,-110.28C-352.32,-131.22 -355.74,-146.39 -357.33,-152.20C-361.17,-166.30 -368.66,-171.70 -380.29,-168.53C-392.59,-165.17 -400.84,-154.03 -394.80,-131.89L-372.41,-49.80C-367.16,-30.57 -359.00,-25.34 -346.92,-28.64C-333.50,-32.30 -331.41,-50.17 -337.66,-71.30L-345.71,-98.18L-348.84,-97.32L-342.31,-70.75C-338.85,-56.31 -338.77,-47.20 -343.92,-45.80C-349.06,-44.39 -354.43,-45.57 -358.82,-61.68L-379.75,-138.40C-381.95,-146.45 -381.95,-151.73 -375.24,-153.57C-366.74,-155.88 -362.68,-155.07 -361.52,-150.82ZM-339.96,-208.37L-355.62,-204.10L-311.07,-40.82L-295.41,-45.09L-311.53,-104.14C-312.68,-108.39 -313.50,-112.25 -314.03,-115.95C-306.22,-119.05 -301.32,-116.06 -295.64,-100.54L-277.07,-50.10L-260.08,-54.73L-291.78,-130.43L-313.13,-121.49L-314.56,-122.30C-314.94,-127.24 -314.66,-132.36 -313.85,-139.07C-311.51,-158.70 -308.36,-166.53 -299.47,-171.83L-294.92,-174.52L-298.70,-188.39L-318.83,-182.89L-320.03,-122.97L-322.39,-122.81L-335.02,-190.25ZM-231.61,-194.43L-212.15,-199.74L-215.27,-211.15L-236.07,-205.48L-237.67,-206.96L-240.85,-237.09L-243.49,-237.09C-245.61,-230.75 -251.58,-226.24 -256.42,-223.71L-250.38,-201.57L-260.67,-198.76L-257.56,-187.36L-247.27,-190.16L-220.30,-91.30C-215.05,-72.07 -207.34,-66.72 -195.93,-69.83C-183.18,-73.31 -181.30,-90.17 -187.17,-109.95L-195.84,-139.07L-198.97,-138.21L-191.83,-109.40C-188.19,-94.29 -188.45,-88.21 -193.82,-86.75C-197.62,-85.71 -202.32,-87.07 -206.71,-103.18ZM-143.59,-84.11C-130.39,-87.71 -121.47,-99.04 -127.45,-120.96L-149.91,-203.27C-155.15,-222.50 -164.43,-227.42 -178.74,-223.52C-191.94,-219.92 -200.86,-208.59 -194.88,-186.67L-172.43,-104.36C-167.18,-85.13 -157.68,-80.27 -143.59,-84.11ZM-177.28,-207.58C-172.80,-208.80 -167.88,-207.50 -163.49,-191.39L-142.50,-114.45C-140.36,-106.62 -140.14,-101.40 -145.06,-100.05C-149.75,-98.77 -154.45,-100.13 -158.84,-116.24L-179.84,-193.18C-181.97,-201.01 -182.20,-206.23 -177.28,-207.58ZM-85.77,-234.23L-66.31,-239.54L-69.42,-250.94L-90.22,-245.27L-91.83,-246.75L-95.00,-276.89L-97.65,-276.89C-99.76,-270.54 -105.74,-266.03 -110.58,-263.51L-104.54,-241.36L-114.82,-238.55L-111.71,-227.15L-101.42,-229.95L-74.45,-131.09C-69.20,-111.86 -61.49,-106.51 -50.09,-109.62C-37.34,-113.10 -35.45,-129.96 -41.33,-149.74L-49.99,-178.86L-53.12,-178.01L-45.98,-149.19C-42.34,-134.09 -42.61,-128.01 -47.97,-126.54C-51.78,-125.50 -56.47,-126.87 -60.87,-142.97ZM-48.94,-287.77L-64.60,-283.50L-20.05,-120.22L-4.39,-124.49L-27.52,-209.26C-33.26,-230.29 -32.77,-247.00 -26.51,-248.71C-22.26,-249.87 -20.16,-246.60 -17.97,-238.55L11.93,-128.95L27.59,-133.22L-4.69,-251.54C-7.74,-262.72 -15.67,-268.01 -23.95,-265.75C-32.45,-263.43 -38.53,-255.77 -34.07,-220.93L-36.43,-220.77L-40.34,-256.23ZM55.73,-259.13C50.42,-278.59 42.04,-283.76 29.74,-280.40C16.32,-276.74 8.29,-265.66 14.33,-243.51L36.72,-161.43C41.97,-142.19 50.80,-137.15 64.44,-140.87C79.43,-144.96 82.19,-163.02 75.95,-184.14L67.95,-210.80L64.82,-209.95L71.29,-183.59C74.75,-169.16 74.16,-159.86 67.45,-158.03C61.19,-156.32 54.70,-157.20 50.31,-173.30L38.65,-216.02L65.49,-223.35ZM44.32,-248.09L51.22,-222.82L37.80,-219.15L29.37,-250.02C27.18,-258.07 26.95,-263.30 32.32,-264.76C36.80,-265.98 39.87,-264.42 44.32,-248.09ZM132.95,-161.97L153.08,-167.46C172.99,-172.89 182.49,-183.89 176.93,-204.25L169.91,-229.97C165.70,-245.40 159.76,-257.48 151.71,-260.57L137.09,-255.14L136.48,-257.37C146.69,-266.65 153.38,-277.36 148.62,-294.81L144.41,-310.24C138.85,-330.60 126.43,-335.62 108.54,-330.74L88.41,-325.24ZM129.63,-256.95L125.87,-254.00L109.33,-314.61L111.12,-315.10C120.74,-317.72 125.19,-314.61 129.16,-300.07L135.50,-276.81C137.64,-268.99 137.09,-263.07 129.63,-256.95ZM133.47,-250.79C141.30,-252.92 146.61,-249.32 149.36,-239.26L158.63,-205.26C162.60,-190.72 159.45,-185.54 147.37,-182.24L145.58,-181.75L127.82,-246.84C129.24,-248.67 131.01,-250.11 133.47,-250.79ZM221.02,-183.59C234.22,-187.19 243.15,-198.52 237.17,-220.44L214.71,-302.75C209.46,-321.98 200.19,-326.90 185.87,-323.00C172.68,-319.40 163.75,-308.07 169.73,-286.15L192.19,-203.84C197.44,-184.61 206.93,-179.75 221.02,-183.59ZM187.34,-307.06C191.81,-308.28 196.73,-306.98 201.13,-290.87L222.12,-213.93C224.26,-206.10 224.48,-200.88 219.56,-199.53C214.86,-198.25 210.16,-199.61 205.77,-215.72L184.78,-292.66C182.64,-300.49 182.42,-305.71 187.34,-307.06ZM282.76,-200.44C295.96,-204.04 304.89,-215.36 298.90,-237.28L276.45,-319.59C271.20,-338.83 261.93,-343.75 247.61,-339.84C234.42,-336.24 225.49,-324.92 231.47,-303.00L253.93,-220.69C259.18,-201.45 268.67,-196.59 282.76,-200.44ZM249.08,-323.90C253.55,-325.12 258.47,-323.82 262.87,-307.72L283.86,-230.78C285.99,-222.95 286.22,-217.72 281.30,-216.38C276.60,-215.10 271.90,-216.46 267.51,-232.56L246.52,-309.50C244.38,-317.33 244.16,-322.56 249.08,-323.90ZM293.53,-381.21L277.87,-376.94L322.42,-213.66L338.08,-217.93L321.97,-276.98C320.81,-281.23 319.99,-285.09 319.46,-288.79C327.27,-291.89 332.17,-288.90 337.85,-273.38L356.42,-222.94L373.42,-227.57L341.71,-303.27L320.36,-294.32L318.93,-295.14C318.55,-300.08 318.83,-305.20 319.64,-311.91C321.98,-331.54 325.13,-339.36 334.02,-344.67L338.57,-347.36L334.79,-361.22L314.66,-355.73L313.46,-295.81L311.11,-295.65L298.47,-363.09Z" fill="#ffffff" stroke="#000000"/>
    <path d="M-496.30,36.31L-476.65,30.00C-457.21,23.76 -448.31,12.47 -454.69,-7.41L-462.76,-32.52C-467.60,-47.59 -474.00,-59.27 -482.09,-61.97L-496.30,-55.96L-497.01,-58.14C-487.32,-67.76 -481.18,-78.64 -486.65,-95.68L-491.49,-110.74C-497.88,-130.62 -510.38,-135.04 -527.85,-129.43L-547.50,-123.11ZM-503.76,-57.42L-507.35,-54.34L-526.36,-113.52L-524.61,-114.08C-515.22,-117.10 -510.68,-114.22 -506.12,-100.02L-498.83,-77.31C-496.37,-69.67 -496.65,-63.80 -503.76,-57.42ZM-499.69,-51.50C-492.05,-53.95 -486.64,-50.63 -483.49,-40.80L-472.83,-7.61C-468.27,6.59 -471.15,11.85 -482.95,15.64L-484.69,16.20L-505.10,-47.35C-503.78,-49.22 -502.09,-50.73 -499.69,-51.50ZM-452.60,-124.68C-466.36,-120.26 -471.94,-100.88 -467.52,-87.13C-464.29,-77.08 -458.99,-65.05 -451.25,-55.97L-430.29,-62.70C-454.01,-75.08 -460.32,-81.97 -463.27,-91.14C-465.72,-98.78 -464.43,-104.50 -453.07,-108.15C-445.86,-110.46 -443.56,-109.28 -441.31,-102.29L-428.34,-61.89C-440.40,-40.18 -447.33,-30.25 -441.65,-12.56L-436.81,2.51C-433.44,12.99 -427.46,16.61 -419.16,13.95C-410.86,11.28 -407.08,4.29 -414.26,-29.31L-411.93,-29.57C-404.60,2.28 -398.63,7.35 -389.68,4.48C-379.41,1.18 -380.60,-10.00 -385.23,-23.69L-397.88,-60.82L-400.94,-59.84L-389.32,-21.41C-387.22,-14.14 -388.33,-12.34 -390.30,-11.70C-392.70,-10.93 -395.30,-11.54 -399.09,-23.34L-427.85,-112.88C-431.42,-124.01 -439.93,-128.75 -452.60,-124.68ZM-417.95,-4.03C-420.13,-3.33 -422.08,-4.15 -423.34,-8.08L-430.36,-29.92C-433.30,-39.09 -433.46,-44.82 -426.86,-57.30L-421.25,-39.83C-414.80,-19.74 -413.14,-5.57 -417.95,-4.03ZM-368.40,-128.83C-366.58,-123.16 -367.62,-113.67 -372.52,-83.91L-355.92,-89.24C-358.45,-109.87 -362.50,-124.71 -364.32,-130.39C-368.74,-144.14 -376.37,-149.16 -387.73,-145.51C-399.74,-141.66 -407.41,-130.28 -400.47,-108.66L-374.73,-28.51C-368.70,-9.73 -360.41,-4.92 -348.61,-8.71C-335.51,-12.92 -334.23,-30.68 -341.33,-51.28L-350.47,-77.50L-353.52,-76.52L-345.90,-50.53C-341.85,-36.42 -341.37,-27.42 -346.39,-25.80C-351.42,-24.19 -356.77,-25.12 -361.82,-40.84L-385.88,-115.75C-388.41,-123.61 -388.64,-128.84 -382.09,-130.94C-373.79,-133.61 -369.73,-132.98 -368.40,-128.83ZM-349.62,-186.66L-364.91,-181.75L-313.71,-22.33L-298.42,-27.24L-316.94,-84.89C-318.27,-89.04 -319.25,-92.82 -319.93,-96.46C-312.35,-99.86 -307.37,-97.12 -301.08,-82.03L-280.52,-32.99L-263.92,-38.32L-298.58,-111.75L-319.29,-101.96L-320.73,-102.71C-321.33,-107.57 -321.28,-112.65 -320.77,-119.32C-319.32,-138.81 -316.55,-146.69 -308.00,-152.33L-303.62,-155.18L-307.97,-168.72L-327.62,-162.41L-326.17,-103.13L-328.49,-102.86L-343.94,-168.97ZM-241.92,-177.65L-222.92,-183.75L-226.50,-194.88L-246.81,-188.36L-248.46,-189.76L-252.92,-219.40L-255.53,-219.29C-257.34,-212.92 -263.05,-208.20 -267.73,-205.49L-260.78,-183.87L-270.83,-180.65L-267.25,-169.51L-257.21,-172.74L-226.21,-76.21C-220.17,-57.42 -212.32,-52.48 -201.18,-56.06C-188.74,-60.05 -187.61,-76.80 -194.29,-96.09L-204.13,-124.49L-207.19,-123.51L-198.87,-95.35C-194.60,-80.57 -194.60,-74.55 -199.84,-72.87C-203.55,-71.68 -208.25,-72.82 -213.30,-88.54ZM-150.08,-72.47C-137.19,-76.61 -128.87,-88.19 -135.74,-109.60L-161.55,-189.96C-167.58,-208.75 -176.96,-213.20 -190.94,-208.71C-203.82,-204.57 -212.15,-192.99 -205.28,-171.59L-179.47,-91.22C-173.43,-72.44 -163.83,-68.05 -150.08,-72.47ZM-188.79,-193.02C-184.42,-194.42 -179.50,-193.35 -174.45,-177.63L-150.33,-102.50C-147.87,-94.86 -147.42,-89.70 -152.22,-88.16C-156.81,-86.69 -161.51,-87.83 -166.56,-103.55L-190.69,-178.68C-193.14,-186.32 -193.60,-191.48 -188.79,-193.02ZM-99.51,-223.38L-80.51,-229.48L-84.09,-240.62L-104.40,-234.10L-106.05,-235.49L-110.52,-265.14L-113.13,-265.02C-114.94,-258.66 -120.65,-253.93 -125.32,-251.23L-118.38,-229.61L-128.42,-226.38L-124.85,-215.24L-114.80,-218.47L-83.80,-121.94C-77.77,-103.16 -69.92,-98.21 -58.78,-101.79C-46.33,-105.79 -45.20,-122.53 -51.88,-141.83L-61.73,-170.23L-64.78,-169.24L-56.46,-141.08C-52.20,-126.31 -52.19,-120.29 -57.43,-118.60C-61.15,-117.41 -65.85,-118.55 -70.90,-134.27ZM-65.47,-277.92L-80.75,-273.01L-29.56,-113.58L-14.27,-118.49L-40.85,-201.26C-47.44,-221.79 -47.70,-238.33 -41.58,-240.30C-37.43,-241.63 -35.22,-238.49 -32.69,-230.62L1.67,-123.61L16.96,-128.52L-20.14,-244.05C-23.65,-254.97 -31.72,-259.85 -39.80,-257.25C-48.10,-254.59 -53.77,-246.74 -47.83,-212.51L-50.16,-212.25L-55.58,-247.12ZM39.24,-254.21C33.14,-273.21 24.63,-277.94 12.62,-274.09C-0.48,-269.88 -7.93,-258.57 -0.99,-236.95L24.75,-156.80C30.78,-138.02 39.73,-133.42 53.05,-137.70C67.68,-142.40 69.62,-160.37 62.52,-180.98L53.45,-206.97L50.39,-205.99L57.94,-180.23C61.99,-166.11 61.82,-156.90 55.27,-154.80C49.15,-152.83 42.70,-153.41 37.65,-169.14L24.26,-210.85L50.46,-219.26ZM28.45,-242.79L36.38,-218.11L23.28,-213.91L13.60,-244.04C11.07,-251.91 10.62,-257.06 15.86,-258.74C20.23,-260.15 23.33,-258.74 28.45,-242.79ZM119.84,-161.56L139.49,-167.87C158.93,-174.11 167.83,-185.41 161.45,-205.28L153.38,-230.39C148.55,-245.46 142.15,-257.14 134.05,-259.84L119.84,-253.83L119.14,-256.02C128.82,-265.63 134.96,-276.51 129.49,-293.55L124.65,-308.62C118.27,-328.49 105.77,-332.91 88.29,-327.30L68.64,-320.99ZM112.38,-255.29L108.80,-252.21L89.79,-311.40L91.54,-311.96C100.93,-314.97 105.46,-312.09 110.02,-297.90L117.32,-275.19C119.77,-267.54 119.49,-261.67 112.38,-255.29ZM116.45,-249.37C124.10,-251.83 129.50,-248.50 132.66,-238.67L143.32,-205.48C147.88,-191.28 144.99,-186.02 133.20,-182.23L131.45,-181.67L111.04,-245.22C112.37,-247.09 114.05,-248.60 116.45,-249.37ZM205.94,-186.80C218.82,-190.94 227.15,-202.53 220.27,-223.93L194.46,-304.30C188.43,-323.08 179.05,-327.53 165.07,-323.05C152.19,-318.91 143.86,-307.32 150.74,-285.92L176.55,-205.55C182.58,-186.77 192.18,-182.38 205.94,-186.80ZM167.22,-307.35C171.59,-308.76 176.51,-307.69 181.56,-291.96L205.69,-216.84C208.14,-209.19 208.59,-204.04 203.79,-202.49C199.20,-201.02 194.50,-202.16 189.45,-217.89L165.32,-293.01C162.87,-300.66 162.42,-305.81 167.22,-307.35ZM266.22,-206.16C279.10,-210.30 287.43,-221.89 280.56,-243.29L254.75,-323.66C248.71,-342.44 239.33,-346.89 225.36,-342.41C212.47,-338.27 204.15,-326.68 211.02,-305.28L236.83,-224.91C242.86,-206.13 252.46,-201.74 266.22,-206.16ZM227.50,-326.71C231.87,-328.12 236.79,-327.05 241.84,-311.32L265.97,-236.20C268.42,-228.55 268.88,-223.40 264.07,-221.85C259.48,-220.38 254.78,-221.52 249.73,-237.24L225.61,-312.37C223.15,-320.02 222.70,-325.17 227.50,-326.71ZM268.92,-385.31L253.64,-380.40L304.83,-220.97L320.12,-225.88L301.61,-283.54C300.27,-287.69 299.30,-291.47 298.61,-295.10C306.20,-298.50 311.17,-295.76 317.46,-280.68L338.03,-231.63L354.63,-236.96L319.96,-310.39L299.26,-300.61L297.81,-301.35C297.21,-306.22 297.27,-311.29 297.78,-317.96C299.23,-337.46 302.00,-345.34 310.55,-350.97L314.93,-353.83L310.58,-367.37L290.93,-361.05L292.38,-301.77L290.05,-301.51L274.60,-367.62Z" fill="#ffffff" stroke="#000000"/>
    <path d="M-493.11,62.18L-473.96,55.08C-455.02,48.06 -446.72,36.51 -453.90,17.15L-462.98,-7.32C-468.42,-22.00 -475.26,-33.26 -483.38,-35.57L-497.16,-29.01L-497.95,-31.13C-488.80,-41.06 -483.21,-52.09 -489.36,-68.68L-494.81,-83.36C-501.99,-102.72 -514.54,-106.54 -531.56,-100.23L-550.70,-93.13ZM-504.59,-30.12L-508.00,-26.92L-529.38,-84.58L-527.68,-85.21C-518.53,-88.60 -513.92,-85.95 -508.79,-72.13L-500.59,-50.00C-497.82,-42.55 -497.85,-36.74 -504.59,-30.12ZM-500.31,-24.45C-492.86,-27.21 -487.37,-24.16 -483.82,-14.59L-471.83,17.75C-466.70,31.58 -469.32,36.91 -480.81,41.17L-482.51,41.80L-505.47,-20.11C-504.25,-22.02 -502.65,-23.58 -500.31,-24.45ZM-456.98,-98.84C-470.38,-93.87 -475.05,-74.48 -470.08,-61.07C-466.45,-51.29 -460.67,-39.63 -452.63,-31.00L-432.21,-38.57C-456.20,-49.76 -462.74,-56.29 -466.05,-65.23C-468.81,-72.67 -467.78,-78.38 -456.72,-82.48C-449.70,-85.09 -447.37,-84.02 -444.84,-77.21L-430.25,-37.85C-441.21,-15.87 -447.62,-5.75 -441.23,11.48L-435.79,26.16C-432.00,36.37 -425.93,39.69 -417.85,36.69C-409.76,33.69 -406.34,26.62 -414.90,-6.27L-412.62,-6.63C-403.97,24.53 -397.85,29.28 -389.13,26.04C-379.13,22.33 -380.79,11.33 -385.97,-1.99L-400.10,-38.14L-403.08,-37.03L-389.91,0.44C-387.52,7.54 -388.53,9.36 -390.45,10.07C-392.79,10.94 -395.39,10.45 -399.65,-1.03L-432.00,-88.26C-436.02,-99.11 -444.64,-103.42 -456.98,-98.84ZM-417.44,18.87C-419.57,19.66 -421.53,18.94 -422.95,15.11L-430.84,-6.17C-434.15,-15.10 -434.56,-20.76 -428.59,-33.38L-422.28,-16.36C-415.02,3.21 -412.76,17.14 -417.44,18.87ZM-373.95,-106.64C-371.90,-101.11 -372.52,-91.69 -376.05,-62.06L-359.88,-68.06C-363.29,-88.33 -367.94,-102.82 -369.99,-108.36C-374.96,-121.76 -382.72,-126.38 -393.79,-122.28C-405.49,-117.94 -412.57,-106.36 -404.76,-85.30L-375.80,-7.22C-369.01,11.08 -360.61,15.47 -349.12,11.20C-336.36,6.47 -335.87,-11.14 -343.79,-31.19L-353.98,-56.70L-356.95,-55.59L-348.28,-30.25C-343.66,-16.48 -342.79,-7.60 -347.68,-5.79C-352.57,-3.97 -357.91,-4.66 -363.59,-19.97L-390.65,-92.95C-393.49,-100.61 -393.95,-105.76 -387.57,-108.13C-379.49,-111.13 -375.45,-110.69 -373.95,-106.64ZM-357.93,-164.62L-372.83,-159.09L-315.23,-3.79L-300.34,-9.31L-321.17,-65.48C-322.66,-69.52 -323.79,-73.21 -324.63,-76.77C-317.29,-80.47 -312.25,-77.98 -305.37,-63.35L-282.89,-15.78L-266.72,-21.78L-304.20,-92.82L-324.24,-82.24L-325.70,-82.91C-326.50,-87.70 -326.67,-92.72 -326.46,-99.33C-325.89,-118.66 -323.49,-126.57 -315.29,-132.51L-311.08,-135.53L-315.98,-148.72L-335.12,-141.61L-331.09,-83.09L-333.37,-82.73L-351.54,-147.38ZM-251.10,-160.43L-232.59,-167.30L-236.61,-178.15L-256.40,-170.81L-258.09,-172.12L-263.80,-201.22L-266.38,-200.99C-267.89,-194.62 -273.33,-189.70 -277.82,-186.82L-270.01,-165.76L-279.80,-162.13L-275.78,-151.28L-265.99,-154.91L-231.11,-60.88C-224.33,-42.58 -216.35,-38.03 -205.50,-42.06C-193.37,-46.56 -193.00,-63.15 -200.44,-81.93L-211.42,-109.56L-214.40,-108.46L-204.94,-80.99C-200.07,-66.58 -199.80,-60.63 -204.91,-58.74C-208.53,-57.39 -213.22,-58.31 -218.90,-73.63ZM-155.71,-60.52C-143.16,-65.18 -135.44,-77.00 -143.17,-97.84L-172.21,-176.14C-179.00,-194.43 -188.46,-198.43 -202.08,-193.38C-214.63,-188.72 -222.35,-176.90 -214.62,-156.05L-185.58,-77.76C-178.80,-59.47 -169.12,-55.55 -155.71,-60.52ZM-199.27,-177.96C-195.01,-179.54 -190.10,-178.70 -184.42,-163.38L-157.28,-90.19C-154.52,-82.75 -153.84,-77.67 -158.53,-75.94C-162.99,-74.28 -167.69,-75.20 -173.37,-90.52L-200.51,-163.70C-203.27,-171.15 -203.95,-176.23 -199.27,-177.96ZM-112.37,-211.88L-93.86,-218.75L-97.88,-229.60L-117.67,-222.26L-119.36,-223.57L-125.07,-252.67L-127.65,-252.44C-129.16,-246.07 -134.60,-241.15 -139.10,-238.27L-131.29,-217.21L-141.07,-213.58L-137.05,-202.73L-127.26,-206.36L-92.39,-112.32C-85.60,-94.03 -77.62,-89.48 -66.77,-93.51C-54.65,-98.00 -54.27,-114.60 -61.72,-133.38L-72.69,-161.01L-75.67,-159.91L-66.21,-132.44C-61.35,-118.03 -61.08,-112.08 -66.18,-110.18C-69.80,-108.84 -74.50,-109.76 -80.18,-125.08ZM-81.12,-267.28L-96.01,-261.75L-38.41,-106.45L-23.52,-111.97L-53.42,-192.60C-60.84,-212.60 -61.82,-228.94 -55.86,-231.15C-51.82,-232.65 -49.49,-229.64 -46.65,-221.98L-7.99,-117.73L6.90,-123.25L-34.83,-235.80C-38.78,-246.43 -46.97,-250.90 -54.84,-247.98C-62.93,-244.98 -68.19,-236.98 -60.82,-203.41L-63.10,-203.05L-69.99,-237.28ZM23.41,-248.44C16.54,-266.95 7.93,-271.26 -3.77,-266.92C-16.54,-262.18 -23.41,-250.68 -15.60,-229.62L13.36,-151.54C20.15,-133.25 29.19,-129.10 42.17,-133.91C56.42,-139.20 57.55,-157.04 49.63,-177.09L39.52,-202.38L36.54,-201.28L45.13,-176.15C49.76,-162.38 49.99,-153.27 43.61,-150.90C37.65,-148.69 31.25,-148.98 25.57,-164.30L10.50,-204.93L36.03,-214.40ZM13.25,-236.69L22.16,-212.65L9.40,-207.91L-1.49,-237.27C-4.33,-244.93 -5.00,-250.01 0.10,-251.90C4.36,-253.48 7.49,-252.22 13.25,-236.69ZM107.13,-160.42L126.27,-167.52C145.21,-174.54 153.51,-186.09 146.33,-205.45L137.26,-229.92C131.81,-244.60 124.97,-255.86 116.86,-258.17L103.07,-251.61L102.29,-253.74C111.43,-263.66 117.02,-274.69 110.87,-291.28L105.42,-305.96C98.24,-325.32 85.70,-329.14 68.68,-322.83L49.53,-315.73ZM95.64,-252.72L92.23,-249.52L70.85,-307.18L72.55,-307.81C81.70,-311.20 86.31,-308.56 91.44,-294.73L99.65,-272.60C102.41,-265.16 102.39,-259.34 95.64,-252.72ZM99.92,-247.05C107.37,-249.81 112.86,-246.77 116.41,-237.19L128.40,-204.85C133.53,-191.02 130.91,-185.70 119.42,-181.44L117.72,-180.80L94.76,-242.71C95.98,-244.62 97.58,-246.18 99.92,-247.05ZM191.11,-189.14C203.66,-193.80 211.38,-205.62 203.64,-226.47L174.61,-304.76C167.82,-323.06 158.36,-327.05 144.74,-322.00C132.19,-317.34 124.47,-305.53 132.20,-284.68L161.24,-206.38C168.02,-188.09 177.70,-184.17 191.11,-189.14ZM147.55,-306.58C151.81,-308.16 156.72,-307.32 162.40,-292.00L189.54,-218.82C192.30,-211.37 192.97,-206.29 188.29,-204.56C183.83,-202.90 179.13,-203.82 173.45,-219.14L146.31,-292.33C143.54,-299.77 142.87,-304.85 147.55,-306.58ZM249.83,-210.92C262.38,-215.58 270.10,-227.40 262.37,-248.25L233.33,-326.54C226.55,-344.83 217.08,-348.83 203.47,-343.78C190.91,-339.12 183.20,-327.30 190.93,-306.45L219.96,-228.16C226.75,-209.87 236.43,-205.95 249.83,-210.92ZM206.28,-328.36C210.53,-329.94 215.44,-329.10 221.12,-313.78L248.27,-240.59C251.03,-233.15 251.70,-228.07 247.02,-226.34C242.55,-224.68 237.85,-225.60 232.17,-240.92L205.03,-314.11C202.27,-321.55 201.60,-326.63 206.28,-328.36ZM244.64,-388.09L229.75,-382.56L287.34,-227.26L302.24,-232.78L281.41,-288.94C279.91,-292.99 278.78,-296.68 277.94,-300.24C285.28,-303.94 290.32,-301.45 297.20,-286.82L319.68,-239.25L335.85,-245.24L298.37,-316.29L278.33,-305.71L276.87,-306.38C276.07,-311.17 275.90,-316.19 276.11,-322.80C276.69,-342.13 279.08,-350.04 287.28,-355.98L291.49,-358.99L286.60,-372.19L267.45,-365.08L271.48,-306.56L269.20,-306.20L251.03,-370.85Z" fill="#ffffff" stroke="#000000"/>
    <path d="M-488.50,87.73L-469.89,79.87C-451.49,72.10 -443.80,60.33 -451.74,41.51L-461.78,17.73C-467.81,3.46 -475.06,-7.36 -483.18,-9.29L-496.51,-2.20L-497.38,-4.27C-488.78,-14.48 -483.74,-25.62 -490.55,-41.75L-496.57,-56.02C-504.52,-74.83 -517.09,-78.05 -533.63,-71.07L-552.24,-63.21ZM-503.90,-2.98L-507.13,0.34L-530.79,-55.70L-529.14,-56.40C-520.25,-60.15 -515.57,-57.74 -509.90,-44.30L-500.82,-22.80C-497.76,-15.56 -497.53,-9.81 -503.90,-2.98ZM-499.42,2.44C-492.19,-0.62 -486.63,2.15 -482.70,11.46L-469.43,42.89C-463.76,56.33 -466.11,61.71 -477.28,66.42L-478.93,67.12L-504.34,6.95C-503.21,5.01 -501.70,3.40 -499.42,2.44ZM-459.87,-72.97C-472.90,-67.47 -476.66,-48.10 -471.16,-35.08C-467.14,-25.56 -460.93,-14.30 -452.60,-6.12L-432.75,-14.51C-456.95,-24.51 -463.70,-30.67 -467.36,-39.36C-470.42,-46.60 -469.65,-52.28 -458.90,-56.82C-452.08,-59.70 -449.72,-58.74 -446.93,-52.13L-430.78,-13.88C-440.65,8.32 -446.54,18.61 -439.47,35.35L-433.45,49.62C-429.26,59.55 -423.11,62.56 -415.26,59.24C-407.40,55.92 -404.33,48.78 -414.23,16.66L-411.99,16.20C-402.07,46.61 -395.82,51.03 -387.34,47.45C-377.62,43.35 -379.75,32.55 -385.45,19.61L-401.00,-15.48L-403.90,-14.26L-389.24,22.18C-386.57,29.10 -387.49,30.95 -389.35,31.73C-391.63,32.69 -394.22,32.33 -398.93,21.16L-434.73,-63.62C-439.18,-74.16 -447.88,-78.04 -459.87,-72.97ZM-415.63,41.61C-417.70,42.48 -419.67,41.86 -421.24,38.13L-429.97,17.46C-433.64,8.77 -434.29,3.20 -428.95,-9.53L-421.96,7.01C-413.93,26.03 -411.08,39.69 -415.63,41.61ZM-378.17,-84.33C-375.90,-78.95 -376.10,-69.61 -378.29,-40.18L-362.58,-46.82C-366.83,-66.70 -372.06,-80.82 -374.33,-86.19C-379.83,-99.22 -387.71,-103.45 -398.46,-98.91C-409.83,-94.10 -416.32,-82.35 -407.67,-61.88L-375.63,14.00C-368.13,31.78 -359.63,35.75 -348.46,31.04C-336.06,25.80 -336.35,8.38 -345.06,-11.09L-356.24,-35.85L-359.13,-34.62L-349.45,-9.96C-344.28,3.44 -343.03,12.17 -347.78,14.18C-352.54,16.19 -357.84,15.75 -364.13,0.86L-394.07,-70.06C-397.22,-77.50 -397.90,-82.58 -391.69,-85.20C-383.84,-88.51 -379.83,-88.26 -378.17,-84.33ZM-364.89,-142.32L-379.36,-136.21L-315.63,14.74L-301.16,8.62L-324.20,-45.96C-325.86,-49.89 -327.14,-53.49 -328.12,-56.98C-321.03,-60.95 -315.94,-58.71 -308.50,-44.55L-284.20,1.46L-268.49,-5.17L-308.64,-73.73L-327.98,-62.40L-329.45,-63.00C-330.45,-67.69 -330.84,-72.64 -330.92,-79.18C-331.20,-98.31 -329.19,-106.23 -321.34,-112.46L-317.32,-115.63L-322.73,-128.45L-341.34,-120.59L-334.78,-62.94L-337.02,-62.48L-357.82,-125.57ZM-259.13,-142.87L-241.14,-150.47L-245.60,-161.01L-264.83,-152.89L-266.56,-154.11L-273.48,-182.62L-276.01,-182.28C-277.23,-175.92 -282.38,-170.82 -286.70,-167.78L-278.06,-147.31L-287.57,-143.29L-283.12,-132.75L-273.61,-136.76L-235.02,-45.37C-227.51,-27.59 -219.43,-23.45 -208.88,-27.90C-197.10,-32.88 -197.45,-49.30 -205.63,-67.52L-217.69,-94.35L-220.59,-93.13L-210.03,-66.40C-204.60,-52.37 -204.07,-46.50 -209.03,-44.41C-212.54,-42.92 -217.23,-43.62 -223.51,-58.51ZM-160.49,-48.33C-148.29,-53.48 -141.19,-65.50 -149.74,-85.76L-181.87,-161.85C-189.38,-179.64 -198.91,-183.16 -212.14,-177.58C-224.34,-172.43 -231.45,-160.41 -222.89,-140.15L-190.76,-64.06C-183.26,-46.27 -173.52,-42.83 -160.49,-48.33ZM-208.69,-162.47C-204.55,-164.21 -199.66,-163.60 -193.38,-148.71L-163.34,-77.58C-160.29,-70.35 -159.40,-65.36 -163.95,-63.44C-168.29,-61.61 -172.97,-62.31 -179.26,-77.20L-209.29,-148.33C-212.35,-155.56 -213.23,-160.55 -208.69,-162.47ZM-124.31,-199.80L-106.32,-207.40L-110.77,-217.94L-130.00,-209.82L-131.73,-211.04L-138.65,-239.55L-141.19,-239.21C-142.40,-232.85 -147.56,-227.75 -151.88,-224.71L-143.23,-204.24L-152.74,-200.22L-148.29,-189.67L-138.78,-193.69L-100.19,-102.30C-92.68,-84.52 -84.60,-80.38 -74.06,-84.83C-62.27,-89.81 -62.62,-106.22 -70.81,-124.45L-82.86,-151.28L-85.76,-150.05L-75.20,-123.33C-69.77,-109.30 -69.24,-103.43 -74.20,-101.33C-77.72,-99.85 -82.40,-100.55 -88.69,-115.44ZM-95.86,-255.91L-110.33,-249.80L-46.60,-98.86L-32.12,-104.97L-65.21,-183.34C-73.42,-202.77 -75.10,-218.87 -69.31,-221.32C-65.38,-222.98 -62.95,-220.11 -59.81,-212.66L-17.03,-111.35L-2.56,-117.46L-48.74,-226.84C-53.10,-237.18 -61.39,-241.23 -69.04,-238.00C-76.90,-234.68 -81.75,-226.54 -73.00,-193.69L-75.24,-193.23L-83.55,-226.76ZM8.26,-241.89C0.66,-259.88 -8.04,-263.75 -19.41,-258.95C-31.82,-253.71 -38.10,-242.05 -29.46,-221.58L2.58,-145.69C10.09,-127.91 19.21,-124.21 31.82,-129.53C45.67,-135.38 46.00,-153.07 37.30,-172.53L26.20,-197.08L23.30,-195.86L32.90,-171.41C38.07,-158.00 38.70,-149.01 32.50,-146.39C26.71,-143.94 20.37,-143.95 14.09,-158.84L-2.59,-198.33L22.22,-208.81ZM-1.27,-229.83L8.60,-206.46L-3.81,-201.22L-15.86,-229.76C-19.00,-237.20 -19.89,-242.19 -14.92,-244.28C-10.79,-246.03 -7.64,-244.92 -1.27,-229.83ZM94.85,-158.58L113.46,-166.44C131.86,-174.21 139.55,-185.99 131.61,-204.80L121.57,-228.58C115.55,-242.85 108.29,-253.67 100.17,-255.60L86.84,-248.51L85.97,-250.58C94.57,-260.79 99.61,-271.93 92.80,-288.06L86.78,-302.33C78.83,-321.14 66.26,-324.37 49.72,-317.38L31.11,-309.52ZM79.45,-249.29L76.22,-245.98L52.56,-302.01L54.21,-302.71C63.10,-306.46 67.78,-304.05 73.45,-290.61L82.53,-269.11C85.59,-261.87 85.82,-256.12 79.45,-249.29ZM83.93,-243.87C91.17,-246.93 96.72,-244.16 100.65,-234.85L113.92,-203.42C119.59,-189.98 117.24,-184.60 106.07,-179.89L104.42,-179.19L79.01,-239.36C80.14,-241.30 81.65,-242.91 83.93,-243.87ZM176.57,-190.65C188.77,-195.81 195.88,-207.82 187.32,-228.08L155.20,-304.17C147.69,-321.96 138.16,-325.49 124.92,-319.90C112.72,-314.75 105.62,-302.73 114.17,-282.47L146.30,-206.38C153.81,-188.60 163.55,-185.15 176.57,-190.65ZM128.38,-304.79C132.51,-306.54 137.40,-305.92 143.69,-291.03L173.72,-219.91C176.78,-212.67 177.67,-207.68 173.12,-205.76C168.77,-203.93 164.09,-204.63 157.81,-219.52L127.77,-290.65C124.72,-297.88 123.83,-302.87 128.38,-304.79ZM233.65,-214.75C245.85,-219.90 252.95,-231.92 244.40,-252.18L212.27,-328.27C204.76,-346.06 195.23,-349.58 182.00,-344.00C169.80,-338.85 162.69,-326.83 171.25,-306.57L203.37,-230.48C210.88,-212.69 220.62,-209.25 233.65,-214.75ZM185.45,-328.89C189.59,-330.63 194.48,-330.02 200.76,-315.13L230.80,-244.00C233.85,-236.77 234.74,-231.78 230.19,-229.86C225.85,-228.03 221.17,-228.73 214.88,-243.62L184.85,-314.75C181.79,-321.98 180.90,-326.97 185.45,-328.89ZM220.74,-389.59L206.26,-383.48L270.00,-232.54L284.47,-238.65L261.42,-293.24C259.76,-297.16 258.49,-300.77 257.50,-304.25C264.60,-308.22 269.68,-305.98 277.12,-291.83L301.43,-245.81L317.14,-252.44L276.98,-321.00L257.65,-309.67L256.18,-310.27C255.17,-314.96 254.79,-319.91 254.70,-326.46C254.42,-345.59 256.44,-353.50 264.28,-359.74L268.31,-362.90L262.90,-375.72L244.29,-367.86L250.84,-310.21L248.60,-309.75L227.81,-372.84Z" fill="#ffffff" stroke="#000000"/>
    <path d="M-482.53,112.88L-464.48,104.30C-446.64,95.81 -439.56,83.84 -448.23,65.60L-459.20,42.54C-465.77,28.71 -473.41,18.33 -481.52,16.78L-494.38,24.37L-495.34,22.37C-487.29,11.90 -482.80,0.67 -490.23,-14.96L-496.81,-28.79C-505.48,-47.04 -518.04,-49.67 -534.08,-42.04L-552.12,-33.46ZM-501.72,23.93L-504.77,27.35L-530.60,-26.98L-529.00,-27.74C-520.38,-31.84 -515.66,-29.66 -509.46,-16.63L-499.55,4.22C-496.21,11.23 -495.73,16.90 -501.72,23.93ZM-497.06,29.09C-490.04,25.75 -484.43,28.24 -480.14,37.27L-465.65,67.74C-459.45,80.77 -461.55,86.19 -472.37,91.33L-473.97,92.10L-501.72,33.76C-500.69,31.80 -499.26,30.14 -497.06,29.09ZM-461.29,-47.16C-473.92,-41.15 -476.78,-21.85 -470.78,-9.22C-466.39,0.00 -459.76,10.86 -451.17,18.57L-431.93,9.42C-456.28,0.60 -463.21,-5.20 -467.22,-13.62C-470.55,-20.63 -470.04,-26.28 -459.62,-31.24C-453.01,-34.39 -450.64,-33.55 -447.59,-27.13L-429.95,9.95C-438.73,32.32 -444.10,42.74 -436.38,58.98L-429.80,72.81C-425.23,82.43 -419.02,85.13 -411.41,81.51C-403.79,77.89 -401.06,70.69 -412.26,39.40L-410.07,38.84C-398.94,68.45 -392.56,72.55 -384.34,68.64C-374.92,64.16 -377.49,53.59 -383.70,41.05L-400.60,7.06L-403.41,8.39L-387.33,43.76C-384.38,50.47 -385.21,52.34 -387.02,53.20C-389.22,54.25 -391.80,54.00 -396.95,43.17L-436.03,-39.02C-440.90,-49.24 -449.67,-52.69 -461.29,-47.16ZM-412.55,64.11C-414.56,65.07 -416.53,64.53 -418.25,60.92L-427.78,40.88C-431.79,32.46 -432.67,26.98 -427.95,14.16L-420.32,30.20C-411.55,48.64 -408.14,62.02 -412.55,64.11ZM-381.07,-61.96C-378.59,-56.75 -378.37,-47.51 -379.25,-18.34L-364.01,-25.58C-369.09,-45.05 -374.87,-58.76 -377.35,-63.98C-383.36,-76.60 -391.32,-80.44 -401.75,-75.48C-412.77,-70.23 -418.67,-58.34 -409.23,-38.49L-374.24,35.08C-366.04,52.32 -357.48,55.86 -346.65,50.72C-334.62,45.00 -335.67,27.80 -345.13,8.94L-357.27,-15.03L-360.07,-13.69L-349.43,10.25C-343.73,23.27 -342.11,31.84 -346.72,34.03C-351.33,36.23 -356.59,36.02 -363.45,21.59L-396.15,-47.17C-399.58,-54.39 -400.48,-59.37 -394.46,-62.23C-386.85,-65.85 -382.88,-65.77 -381.07,-61.96ZM-370.49,-119.84L-384.52,-113.17L-314.92,33.17L-300.89,26.50L-326.06,-26.43C-327.87,-30.24 -329.29,-33.74 -330.42,-37.14C-323.58,-41.37 -318.46,-39.38 -310.48,-25.72L-284.45,18.68L-269.22,11.43L-311.90,-54.54L-330.51,-42.50L-331.99,-43.03C-333.19,-47.62 -333.79,-52.49 -334.16,-58.95C-335.27,-77.84 -333.63,-85.75 -326.15,-92.26L-322.31,-95.56L-328.22,-107.99L-346.26,-99.41L-337.26,-42.73L-339.45,-42.18L-362.76,-103.60ZM-266.02,-125.03L-248.58,-133.33L-253.44,-143.55L-272.09,-134.68L-273.85,-135.81L-281.94,-163.67L-284.43,-163.23C-285.35,-156.89 -290.22,-151.62 -294.35,-148.43L-284.91,-128.58L-294.14,-124.20L-289.27,-113.97L-280.05,-118.36L-237.91,-29.76C-229.72,-12.52 -221.55,-8.78 -211.32,-13.64C-199.90,-19.08 -200.97,-35.28 -209.85,-52.93L-222.94,-78.91L-225.75,-77.57L-214.15,-51.63C-208.16,-38.01 -207.38,-32.23 -212.19,-29.94C-215.60,-28.32 -220.26,-28.81 -227.12,-43.24ZM-164.41,-35.95C-152.58,-41.58 -146.09,-53.76 -155.43,-73.41L-190.52,-147.18C-198.71,-164.42 -208.28,-167.49 -221.11,-161.38C-232.94,-155.76 -239.44,-143.58 -230.09,-123.93L-195.01,-50.16C-186.81,-32.92 -177.04,-29.95 -164.41,-35.95ZM-217.04,-146.61C-213.03,-148.51 -208.17,-148.12 -201.31,-133.69L-168.51,-64.73C-165.17,-57.71 -164.08,-52.83 -168.49,-50.73C-172.70,-48.73 -177.36,-49.22 -184.22,-63.65L-217.02,-132.61C-220.35,-139.62 -221.45,-144.51 -217.04,-146.61ZM-135.31,-187.20L-117.87,-195.49L-122.73,-205.72L-141.37,-196.85L-143.14,-197.98L-151.22,-225.84L-153.72,-225.39C-154.63,-219.05 -159.50,-213.79 -163.64,-210.59L-154.20,-190.75L-163.42,-186.36L-158.56,-176.14L-149.34,-180.52L-107.20,-91.92C-99.00,-74.68 -90.83,-70.95 -80.61,-75.81C-69.18,-81.24 -70.25,-97.45 -79.14,-115.10L-92.23,-141.07L-95.04,-139.74L-83.43,-113.79C-77.45,-100.17 -76.67,-94.40 -81.48,-92.11C-84.89,-90.49 -89.54,-90.98 -96.41,-105.41ZM-109.66,-243.89L-123.69,-237.21L-54.10,-90.88L-40.06,-97.55L-76.20,-173.52C-85.16,-192.37 -87.53,-208.20 -81.91,-210.87C-78.10,-212.68 -75.58,-209.95 -72.14,-202.73L-25.43,-104.51L-11.40,-111.18L-61.83,-217.23C-66.60,-227.25 -74.96,-230.89 -82.38,-227.36C-90.00,-223.74 -94.43,-215.49 -84.34,-183.42L-86.54,-182.86L-96.22,-215.62ZM-6.18,-234.60C-14.47,-252.04 -23.24,-255.49 -34.26,-250.25C-46.29,-244.53 -51.99,-232.72 -42.55,-212.88L-7.56,-139.31C0.64,-122.07 9.81,-118.81 22.04,-124.62C35.47,-131.01 35.02,-148.50 25.56,-167.35L13.52,-191.12L10.71,-189.78L21.27,-166.04C26.97,-153.02 27.98,-144.17 21.97,-141.31C16.36,-138.64 10.10,-138.36 3.23,-152.80L-14.98,-191.08L9.08,-202.53ZM-15.06,-222.26L-4.28,-199.61L-16.31,-193.89L-29.47,-221.56C-32.90,-228.77 -34.00,-233.66 -29.18,-235.95C-25.18,-237.85 -22.02,-236.90 -15.06,-222.26ZM83.03,-156.09L101.08,-164.67C118.92,-173.16 126.00,-185.13 117.33,-203.37L106.37,-226.43C99.79,-240.26 92.15,-250.63 84.04,-252.18L71.18,-244.59L70.22,-246.60C78.28,-257.06 82.77,-268.30 75.33,-283.93L68.75,-297.76C60.08,-316.01 47.52,-318.64 31.48,-311.01L13.44,-302.43ZM63.84,-245.04L60.79,-241.62L34.96,-295.95L36.56,-296.71C45.18,-300.81 49.90,-298.63 56.10,-285.60L66.02,-264.75C69.35,-257.74 69.84,-252.07 63.84,-245.04ZM68.50,-239.88C75.52,-243.22 81.13,-240.72 85.42,-231.70L99.91,-201.23C106.11,-188.20 104.02,-182.78 93.19,-177.64L91.59,-176.87L63.84,-235.21C64.88,-237.17 66.30,-238.83 68.50,-239.88ZM162.37,-191.37C174.20,-196.99 180.70,-209.17 171.35,-228.82L136.27,-302.59C128.07,-319.83 118.50,-322.90 105.67,-316.80C93.84,-311.17 87.35,-298.99 96.69,-279.34L131.78,-205.57C139.97,-188.33 149.75,-185.36 162.37,-191.37ZM109.75,-302.02C113.76,-303.93 118.62,-303.53 125.48,-289.10L158.28,-220.14C161.61,-213.13 162.71,-208.24 158.30,-206.14C154.09,-204.14 149.43,-204.63 142.57,-219.06L109.77,-288.02C106.43,-295.04 105.34,-299.92 109.75,-302.02ZM217.71,-217.68C229.54,-223.31 236.03,-235.49 226.69,-255.14L191.60,-328.91C183.41,-346.14 173.84,-349.21 161.01,-343.11C149.18,-337.49 142.68,-325.30 152.03,-305.66L187.11,-231.89C195.31,-214.65 205.08,-211.67 217.71,-217.68ZM165.08,-328.34C169.09,-330.24 173.95,-329.85 180.81,-315.42L213.61,-246.46C216.95,-239.44 218.04,-234.55 213.63,-232.46C209.42,-230.45 204.76,-230.94 197.90,-245.38L165.10,-314.34C161.77,-321.35 160.67,-326.24 165.08,-328.34ZM197.28,-389.86L183.25,-383.19L252.84,-236.85L266.88,-243.52L241.71,-296.44C239.90,-300.25 238.48,-303.76 237.35,-307.15C244.19,-311.39 249.31,-309.40 257.28,-295.74L283.31,-251.34L298.55,-258.59L255.86,-324.56L237.26,-312.52L235.78,-313.04C234.58,-317.63 233.98,-322.51 233.61,-328.97C232.49,-347.86 234.14,-355.77 241.62,-362.28L245.45,-365.58L239.54,-378.00L221.50,-369.42L230.51,-312.75L228.32,-312.20L205.00,-373.62Z" fill="#ffffff" stroke="#000000"/>
    <path d="M-908.57,461.18L-911.73,461.18L-911.73,492L-904.01,492L-904.01,489.26L-908.57,489.26ZM-894.09,471.23C-894.09,467.56 -895.31,466.25 -897.63,466.25C-900.16,466.25 -902.11,467.81 -902.11,471.99L-902.11,487.48C-902.11,491.11 -900.80,492.42 -898.22,492.42C-895.39,492.42 -894.04,489.38 -894.13,485.37L-894.25,480.31L-894.85,480.31L-894.97,485.25C-895.06,487.95 -895.61,489.55 -896.87,489.55C-898.05,489.55 -899.15,489.09 -899.15,486.05L-899.15,477.98L-894.09,477.98ZM-896.62,472.62L-896.62,477.39L-899.15,477.39L-899.15,471.57C-899.15,470.05 -898.94,469.12 -897.93,469.12C-897.08,469.12 -896.62,469.54 -896.62,472.62ZM-887.96,461.18L-891.13,461.18L-891.55,492L-888.22,492L-889.36,469.96L-888.93,469.96L-885.43,489.89L-884.46,489.89L-881.76,469.96L-881.29,469.96L-881.84,492L-878.59,492L-879.01,461.18L-881.67,461.18L-884.12,481.15L-884.59,481.15ZM-870.02,492L-867.06,492L-867.06,466.67L-870.02,466.67L-870.02,482.71C-870.02,486.64 -870.91,489.55 -872.09,489.55C-872.89,489.55 -873.10,488.88 -873.10,487.36L-873.10,466.67L-876.06,466.67L-876.06,489.00C-876.06,491.11 -874.92,492.42 -873.35,492.42C-871.75,492.42 -870.31,491.37 -869.43,485.03L-869.01,485.12L-870.02,491.54ZM-858.32,469.37C-857.56,469.37 -857.18,469.71 -857.18,470.47C-857.18,471.23 -858.07,473.04 -860.48,478.11L-857.27,478.11C-856.55,474.35 -856.42,471.52 -856.42,470.43C-856.42,467.64 -857.06,466.25 -858.32,466.25C-859.76,466.25 -860.81,467.30 -861.70,473.64L-862.12,473.55L-861.19,467.13L-861.19,466.67L-864.11,466.67L-864.11,492L-861.15,492L-861.15,475.87C-861.15,471.61 -859.67,469.37 -858.32,469.37ZM-846.97,473.64L-846.37,469.50C-846.08,467.39 -847.09,466.25 -848.44,466.25C-849.96,466.25 -851.27,467.30 -852.16,473.64L-852.58,473.55L-851.57,467.13L-851.57,466.67L-854.52,466.67L-854.52,492L-851.57,492L-851.57,475.96C-851.57,472.12 -850.68,469.12 -849.71,469.12C-849.08,469.12 -848.91,469.79 -848.91,471.31L-848.91,492L-845.95,492L-845.95,475.96C-845.95,472.12 -845.07,469.12 -844.09,469.12C-843.46,469.12 -843.29,469.79 -843.29,471.31L-843.29,492L-840.34,492L-840.34,469.67C-840.34,467.56 -841.39,466.25 -842.83,466.25C-844.35,466.25 -845.66,467.30 -846.54,473.72ZM-831.34,492L-828.39,492L-828.39,466.67L-831.34,466.67L-831.34,482.71C-831.34,486.64 -832.23,489.55 -833.41,489.55C-834.21,489.55 -834.42,488.88 -834.42,487.36L-834.42,466.67L-837.38,466.67L-837.38,489.00C-837.38,491.11 -836.24,492.42 -834.68,492.42C-833.07,492.42 -831.64,491.37 -830.75,485.03L-830.33,485.12L-831.34,491.54ZM-819.65,469.37C-818.89,469.37 -818.51,469.71 -818.51,470.47C-818.51,471.23 -819.39,473.04 -821.80,478.11L-818.59,478.11C-817.87,474.35 -817.75,471.52 -817.75,470.43C-817.75,467.64 -818.38,466.25 -819.65,466.25C-821.08,466.25 -822.14,467.30 -823.02,473.64L-823.45,473.55L-822.52,467.13L-822.52,466.67L-825.43,466.67L-825.43,492L-822.48,492L-822.48,475.87C-822.48,471.61 -821.00,469.37 -819.65,469.37ZM-807.83,471.23C-807.83,467.56 -809.05,466.25 -811.37,466.25C-813.90,466.25 -815.85,467.81 -815.85,471.99L-815.85,487.48C-815.85,491.11 -814.54,492.42 -811.96,492.42C-809.13,492.42 -807.78,489.38 -807.87,485.37L-807.99,480.31L-808.59,480.31L-808.71,485.25C-808.80,487.95 -809.35,489.55 -810.61,489.55C-811.79,489.55 -812.89,489.09 -812.89,486.05L-812.89,477.98L-807.83,477.98ZM-810.36,472.62L-810.36,477.39L-812.89,477.39L-812.89,471.57C-812.89,470.05 -812.68,469.12 -811.67,469.12C-810.82,469.12 -810.36,469.54 -810.36,472.62ZM-805.50,478.74L-798.41,478.74L-798.41,477.35L-805.50,477.35ZM-796.30,492L-793.13,492L-793.13,480.85C-791.82,480.26 -791.11,480.81 -790.94,481.87L-789.33,492L-786.12,492L-788.49,479.80L-791.06,480.14L-791.11,479.63C-788.66,478.49 -786.76,476.97 -786.76,473.64L-786.76,466.50C-786.76,462.66 -788.87,461.18 -792.50,461.18L-796.30,461.18ZM-792.33,479.38L-793.13,479.71L-793.13,464.05L-792.79,464.05C-790.68,464.05 -789.92,464.81 -789.92,467.56L-789.92,476.17C-789.92,477.65 -790.43,478.57 -792.33,479.38ZM-775.99,471.23C-775.99,467.56 -777.21,466.25 -779.54,466.25C-782.07,466.25 -784.01,467.81 -784.01,471.99L-784.01,487.48C-784.01,491.11 -782.70,492.42 -780.13,492.42C-777.30,492.42 -775.95,489.38 -776.03,485.37L-776.16,480.31L-776.75,480.31L-776.88,485.25C-776.96,487.95 -777.51,489.55 -778.78,489.55C-779.96,489.55 -781.06,489.09 -781.06,486.05L-781.06,477.98L-775.99,477.98ZM-778.52,472.62L-778.52,477.39L-781.06,477.39L-781.06,471.57C-781.06,470.05 -780.84,469.12 -779.83,469.12C-778.99,469.12 -778.52,469.54 -778.52,472.62ZM-764.63,472.45C-764.63,469.75 -766.24,468.19 -768.56,467.89L-768.56,467.39C-766.57,467.43 -765.10,468.02 -762.65,471.52L-762.65,466.67L-768.73,466.67C-771.22,466.67 -773.33,468.23 -773.33,472.37L-773.33,482.12C-773.33,484.27 -772.78,485.63 -771.77,486.39C-772.48,487.27 -773.71,488.33 -773.71,489.76C-773.71,490.86 -773.03,491.41 -772.06,491.66L-772.06,491.92C-773.20,492.42 -774.13,493.39 -774.13,494.91C-774.13,496.18 -773.12,497.49 -770.58,497.49C-767.08,497.49 -763.03,493.98 -763.03,491.75C-763.03,490.02 -764.25,489.13 -766.87,489.13L-771.34,489.13C-772.15,489.13 -772.40,488.92 -772.40,488.54C-772.40,488.12 -771.81,487.40 -771.09,486.72C-770.58,486.98 -769.95,487.06 -769.23,487.06C-766.74,487.06 -764.63,485.54 -764.63,481.57ZM-769.23,469.54C-768.39,469.54 -767.59,470.00 -767.59,473.04L-767.59,482.12C-767.59,483.60 -767.80,484.53 -768.73,484.53C-769.61,484.53 -770.37,484.06 -770.37,481.02L-770.37,471.95C-770.37,470.47 -770.16,469.54 -769.23,469.54ZM-771.77,493.22C-771.77,492.76 -771.56,492.34 -770.88,492L-766.87,492C-765.43,492 -765.10,492.59 -765.10,493.60C-765.10,494.45 -765.90,494.79 -767.84,494.79C-771.13,494.79 -771.77,494.07 -771.77,493.22ZM-755.13,492L-752.18,492L-752.18,466.67L-755.13,466.67L-755.13,482.71C-755.13,486.64 -756.02,489.55 -757.20,489.55C-758.00,489.55 -758.21,488.88 -758.21,487.36L-758.21,466.67L-761.17,466.67L-761.17,489.00C-761.17,491.11 -760.03,492.42 -758.47,492.42C-756.86,492.42 -755.43,491.37 -754.54,485.03L-754.12,485.12L-755.13,491.54ZM-746.26,461.18L-749.22,461.18L-749.22,492L-746.26,492ZM-739.00,466.25C-741.66,466.25 -743.73,469.33 -743.73,471.99C-743.73,473.93 -743.48,476.34 -742.63,478.36L-738.58,478.36C-742.04,474.86 -742.76,473.30 -742.76,471.52C-742.76,470.05 -742.21,469.12 -740.02,469.12C-738.62,469.12 -738.29,469.46 -738.29,470.81L-738.29,478.62C-741.62,481.74 -743.39,483.09 -743.39,486.51L-743.39,489.42C-743.39,491.45 -742.55,492.42 -740.94,492.42C-739.34,492.42 -738.29,491.41 -737.65,485.12L-737.23,485.20C-737.74,491.20 -736.98,492.42 -735.25,492.42C-733.26,492.42 -732.84,490.40 -732.88,487.74L-733.01,480.52L-733.60,480.52L-733.73,487.90C-733.77,489.30 -734.06,489.55 -734.44,489.55C-734.91,489.55 -735.33,489.30 -735.33,487.02L-735.33,469.71C-735.33,467.56 -736.55,466.25 -739.00,466.25ZM-739.72,489.34C-740.14,489.34 -740.44,489.09 -740.44,488.33L-740.44,484.11C-740.44,482.33 -740.14,481.32 -738.29,479.50L-738.29,482.88C-738.29,486.76 -738.79,489.34 -739.72,489.34ZM-724.99,469.37C-724.23,469.37 -723.85,469.71 -723.85,470.47C-723.85,471.23 -724.73,473.04 -727.14,478.11L-723.93,478.11C-723.21,474.35 -723.09,471.52 -723.09,470.43C-723.09,467.64 -723.72,466.25 -724.99,466.25C-726.42,466.25 -727.48,467.30 -728.36,473.64L-728.78,473.55L-727.86,467.13L-727.86,466.67L-730.77,466.67L-730.77,492L-727.81,492L-727.81,475.87C-727.81,471.61 -726.34,469.37 -724.99,469.37Z"/>
</svg>