<?xml version="1.0"?>
<svg xmlns="http://www.w3.org/2000/svg" width="1920" height="1080" viewBox="-960 -540 1920 1080">
    <path d="M-192.03,-305.34C-192.03,-298.44 -193.76,-288.82 -211.03,-251.82L-192.28,-251.82C-187.84,-276.73 -187.35,-294.00 -187.35,-306.58C-187.35,-321.87 -193.51,-329.52 -206.34,-329.52C-220.65,-329.52 -232.73,-320.39 -232.73,-296.22L-232.73,-173.39C-232.73,-152.18 -225.33,-144.53 -211.27,-144.53C-196.47,-144.53 -189.32,-162.29 -189.82,-185.72L-190.55,-215.57L-194.01,-215.57L-194.75,-186.46C-195.24,-170.68 -197.71,-161.31 -204.12,-161.31C-209.05,-161.31 -214.23,-164.02 -214.23,-181.78L-214.23,-298.68C-214.23,-307.32 -212.75,-312.74 -206.34,-312.74C-195.98,-312.74 -192.03,-310.77 -192.03,-305.34ZM-156.02,-327.05L-173.28,-327.05L-173.28,-147L-156.02,-147ZM-143.19,-314.47L-117.05,-314.47L-117.05,-327.05L-143.19,-327.05ZM-121.49,-294.99L-138.75,-294.99L-138.75,-147L-121.49,-147ZM-60.07,-254.29L-56.62,-278.46C-54.89,-290.79 -60.81,-297.45 -68.70,-297.45C-77.58,-297.45 -85.23,-291.29 -90.41,-254.29L-92.87,-254.78L-86.95,-292.27L-86.95,-294.99L-104.22,-294.99L-104.22,-147L-86.95,-147L-86.95,-240.72C-86.95,-263.17 -81.77,-280.68 -76.10,-280.68C-72.40,-280.68 -71.41,-276.73 -71.41,-267.85L-71.41,-147L-54.15,-147L-54.15,-240.72C-54.15,-263.17 -48.97,-280.68 -43.30,-280.68C-39.60,-280.68 -38.61,-276.73 -38.61,-267.85L-38.61,-147L-21.35,-147L-21.35,-277.47C-21.35,-289.81 -27.51,-297.45 -35.90,-297.45C-44.78,-297.45 -52.42,-291.29 -57.60,-253.80ZM21.09,-297.45C5.55,-297.45 -6.54,-279.45 -6.54,-263.91C-6.54,-252.56 -5.06,-238.50 -0.12,-226.67L23.55,-226.67C3.33,-247.14 -0.86,-256.26 -0.86,-266.62C-0.86,-275.25 2.34,-280.68 15.17,-280.68C23.31,-280.68 25.28,-278.71 25.28,-270.81L25.28,-225.19C5.79,-206.93 -4.56,-199.04 -4.56,-179.06L-4.56,-162.05C-4.56,-150.21 0.37,-144.53 9.74,-144.53C19.11,-144.53 25.28,-150.45 28.98,-187.20L31.45,-186.71C28.49,-151.69 32.93,-144.53 43.04,-144.53C54.63,-144.53 57.10,-156.37 56.85,-171.91L56.11,-214.09L52.66,-214.09L51.92,-170.92C51.67,-162.79 49.94,-161.31 47.72,-161.31C45.01,-161.31 42.54,-162.79 42.54,-176.10L42.54,-277.23C42.54,-289.81 35.39,-297.45 21.09,-297.45ZM16.89,-162.54C14.43,-162.54 12.70,-164.02 12.70,-168.46L12.70,-193.12C12.70,-203.48 14.43,-209.40 25.28,-220.01L25.28,-200.27C25.28,-177.58 22.32,-162.54 16.89,-162.54ZM90.40,-282.41L111.86,-282.41L111.86,-294.99L88.92,-294.99L87.69,-296.96L92.87,-328.78L90.15,-329.52C86.21,-323.60 78.81,-320.64 73.14,-319.40L73.14,-294.99L61.79,-294.99L61.79,-282.41L73.14,-282.41L73.14,-173.39C73.14,-152.18 79.55,-144.53 92.13,-144.53C106.19,-144.53 112.84,-161.31 112.35,-183.26L111.61,-215.57L108.16,-215.57L107.42,-184.00C106.93,-167.47 104.95,-161.31 99.03,-161.31C94.84,-161.31 90.40,-164.02 90.40,-181.78ZM172.78,-268.35C172.78,-289.81 165.63,-297.45 152.07,-297.45C137.27,-297.45 125.92,-288.33 125.92,-263.91L125.92,-173.39C125.92,-152.18 133.57,-144.53 148.61,-144.53C165.14,-144.53 173.03,-162.29 172.54,-185.72L171.80,-215.32L168.34,-215.32L167.60,-186.46C167.11,-170.68 163.91,-161.31 156.51,-161.31C149.60,-161.31 143.19,-164.02 143.19,-181.78L143.19,-228.89L172.78,-228.89ZM157.99,-260.21L157.99,-232.34L143.19,-232.34L143.19,-266.37C143.19,-275.25 144.42,-280.68 150.34,-280.68C155.27,-280.68 157.99,-278.21 157.99,-260.21ZM235.93,-174.87C235.93,-196.33 203.13,-248.86 203.13,-269.83C203.13,-276.24 205.10,-280.68 213.24,-280.68C223.60,-280.68 227.55,-278.95 227.55,-274.51C227.55,-269.58 224.34,-262.43 213.24,-240.48L229.52,-240.48C231.74,-253.55 232.23,-264.89 232.23,-274.76C232.23,-290.05 226.07,-297.45 213.24,-297.45C198.44,-297.45 185.86,-288.82 185.86,-266.87C185.86,-240.23 218.67,-197.07 218.67,-172.65C218.67,-166.24 216.69,-161.31 208.55,-161.31C196.47,-161.31 191.78,-163.28 191.78,-167.72C191.78,-172.90 194.99,-180.79 207.57,-204.96L189.81,-204.96C188.08,-194.11 187.10,-180.05 187.10,-167.47C187.10,-152.18 194.00,-144.53 208.55,-144.53C223.35,-144.53 235.93,-153.66 235.93,-174.87Z" fill="#ffffff" stroke="#000000"/>
    <path d="M-189.65,-303.42C-189.79,-296.59 -191.70,-287.10 -209.57,-250.85L-191.02,-250.45C-186.10,-275.02 -185.25,-292.09 -184.98,-304.54C-184.66,-319.68 -190.60,-327.38 -203.30,-327.65C-217.45,-327.95 -229.61,-319.17 -230.12,-295.25L-232.70,-173.67C-233.15,-152.68 -225.99,-144.96 -212.07,-144.66C-197.42,-144.35 -189.97,-161.78 -189.97,-184.98L-190.07,-214.53L-193.49,-214.60L-194.83,-185.81C-195.65,-170.20 -198.29,-160.98 -204.64,-161.11C-209.52,-161.21 -214.59,-164.01 -214.22,-181.59L-211.76,-297.30C-211.57,-305.84 -210.00,-311.18 -203.65,-311.05C-193.40,-310.83 -189.53,-308.79 -189.65,-303.42ZM-153.54,-324.15L-170.63,-324.51L-174.42,-146.30L-157.33,-145.94ZM-141.11,-311.43L-115.23,-310.88L-114.97,-323.33L-140.84,-323.88ZM-120.04,-291.68L-137.12,-292.05L-140.24,-145.58L-123.15,-145.21ZM-60.10,-250.11L-56.18,-273.96C-54.21,-286.13 -59.93,-292.85 -67.74,-293.01C-76.53,-293.20 -84.22,-287.26 -90.13,-250.75L-92.56,-251.29L-85.91,-288.27L-85.86,-290.96L-102.94,-291.32L-106.06,-144.85L-88.97,-144.48L-87.00,-237.25C-86.53,-259.47 -81.03,-276.69 -75.42,-276.57C-71.75,-276.49 -70.86,-272.56 -71.05,-263.78L-73.59,-144.16L-56.50,-143.79L-54.53,-236.56C-54.06,-258.77 -48.56,-276.00 -42.95,-275.88C-39.29,-275.80 -38.39,-271.87 -38.58,-263.09L-41.12,-143.47L-24.03,-143.10L-21.29,-272.24C-21.03,-284.45 -26.97,-292.15 -35.27,-292.32C-44.06,-292.51 -51.76,-286.57 -57.67,-249.57ZM21.13,-291.12C5.75,-291.45 -6.59,-273.88 -6.92,-258.50C-7.16,-247.28 -5.99,-233.33 -1.35,-221.51L22.08,-221.01C2.50,-241.70 -1.46,-250.82 -1.24,-261.07C-1.06,-269.61 2.22,-274.92 14.92,-274.65C22.98,-274.48 24.89,-272.48 24.72,-264.67L23.76,-219.51C4.09,-201.85 -6.33,-194.26 -6.75,-174.49L-7.11,-157.64C-7.36,-145.92 -2.59,-140.21 6.68,-140.01C15.96,-139.81 22.19,-145.54 26.62,-181.84L29.05,-181.30C25.39,-146.69 29.63,-139.52 39.64,-139.31C51.11,-139.06 53.80,-150.73 53.89,-166.11L54.04,-207.87L50.62,-207.95L48.98,-165.24C48.57,-157.19 46.83,-155.76 44.63,-155.81C41.94,-155.87 39.53,-157.38 39.82,-170.56L41.94,-270.65C42.21,-283.10 35.29,-290.82 21.13,-291.12ZM14.14,-157.68C11.70,-157.73 10.02,-159.23 10.12,-163.63L10.63,-188.04C10.85,-198.29 12.69,-204.11 23.65,-214.38L23.24,-194.85C22.76,-172.39 19.51,-157.56 14.14,-157.68ZM89.42,-274.77L110.66,-274.32L110.92,-286.77L88.22,-287.25L87.04,-289.23L92.84,-320.62L90.17,-321.41C86.14,-315.63 78.75,-312.86 73.11,-311.75L72.60,-287.59L61.37,-287.83L61.10,-275.38L72.33,-275.14L70.04,-167.24C69.59,-146.24 75.78,-138.54 88.23,-138.27C102.14,-137.98 109.09,-154.44 109.06,-176.17L109.01,-208.17L105.59,-208.24L104.19,-177.01C103.36,-160.67 101.27,-154.60 95.41,-154.73C91.26,-154.82 86.93,-157.60 87.30,-175.17ZM170.67,-259.12C171.12,-280.36 164.20,-288.08 150.77,-288.37C136.12,-288.68 124.70,-279.88 124.19,-255.72L122.28,-166.12C121.84,-145.13 129.24,-137.40 144.14,-137.08C160.49,-136.74 168.68,-154.15 168.68,-177.35L168.57,-206.66L165.15,-206.73L163.82,-178.18C162.99,-162.57 159.62,-153.36 152.30,-153.52C145.46,-153.66 139.17,-156.48 139.55,-174.06L140.54,-220.69L169.83,-220.06ZM155.85,-251.38L155.26,-223.79L140.61,-224.11L141.33,-257.79C141.52,-266.58 142.85,-271.93 148.71,-271.80C153.59,-271.70 156.23,-269.20 155.85,-251.38ZM231.20,-165.27C231.65,-186.51 200.29,-239.20 200.73,-259.95C200.86,-266.30 202.91,-270.65 210.97,-270.48C221.22,-270.26 225.09,-268.47 225.00,-264.07C224.89,-259.19 221.57,-252.18 210.12,-230.69L226.23,-230.34C228.70,-243.24 229.43,-254.45 229.64,-264.22C229.96,-279.35 224.01,-286.81 211.32,-287.08C196.67,-287.39 184.04,-279.11 183.58,-257.38C183.02,-231.02 214.58,-187.61 214.06,-163.44C213.93,-157.09 211.87,-152.25 203.82,-152.42C191.85,-152.68 187.26,-154.73 187.35,-159.12C187.46,-164.25 190.80,-171.99 203.76,-195.65L186.18,-196.03C184.24,-185.32 182.97,-171.43 182.71,-158.98C182.39,-143.84 189.06,-136.13 203.46,-135.82C218.11,-135.51 230.75,-144.28 231.20,-165.27Z" fill="#ffffff" stroke="#000000"/>
    <path d="M-187.30,-301.59C-187.59,-294.83 -189.68,-285.49 -208.12,-249.98L-189.77,-249.20C-184.39,-273.41 -183.18,-290.29 -182.66,-302.61C-182.02,-317.58 -187.74,-325.32 -200.30,-325.86C-214.31,-326.45 -226.52,-318.02 -227.53,-294.35L-232.64,-174.09C-233.53,-153.32 -226.60,-145.53 -212.84,-144.94C-198.35,-144.33 -190.60,-161.42 -190.11,-184.38L-189.59,-213.63L-192.97,-213.77L-194.91,-185.31C-196.05,-169.87 -198.86,-160.80 -205.13,-161.07C-209.96,-161.27 -214.92,-164.14 -214.18,-181.53L-209.31,-296.00C-208.95,-304.45 -207.28,-309.70 -201.00,-309.43C-190.86,-309.00 -187.07,-306.91 -187.30,-301.59ZM-151.13,-321.34L-168.04,-322.06L-175.54,-145.78L-158.63,-145.06ZM-139.10,-308.49L-113.50,-307.40L-112.97,-319.72L-138.57,-320.81ZM-118.66,-288.51L-135.56,-289.23L-141.73,-144.34L-124.82,-143.62ZM-60.22,-246.11L-55.83,-269.63C-53.62,-281.63 -59.14,-288.40 -66.87,-288.73C-75.56,-289.10 -83.31,-283.38 -89.92,-247.37L-92.31,-247.96L-84.96,-284.42L-84.84,-287.07L-101.75,-287.79L-107.91,-142.90L-91.01,-142.18L-87.11,-233.94C-86.17,-255.92 -80.37,-272.85 -74.81,-272.61C-71.19,-272.46 -70.39,-268.55 -70.76,-259.86L-75.80,-141.53L-58.89,-140.81L-54.99,-232.58C-54.05,-254.55 -48.25,-271.48 -42.70,-271.25C-39.07,-271.09 -38.27,-267.19 -38.64,-258.49L-43.68,-140.16L-26.77,-139.44L-21.34,-267.19C-20.82,-279.27 -26.54,-287.01 -34.75,-287.36C-43.45,-287.73 -51.19,-282.01 -57.82,-245.52ZM21.04,-284.99C5.83,-285.63 -6.76,-268.51 -7.40,-253.29C-7.88,-242.19 -7.01,-228.36 -2.68,-216.56L20.51,-215.58C1.56,-236.46 -2.17,-245.57 -1.74,-255.71C-1.38,-264.17 1.99,-269.35 14.55,-268.81C22.52,-268.47 24.37,-266.46 24.04,-258.73L22.14,-214.05C2.30,-197.00 -8.17,-189.70 -9.01,-170.14L-9.72,-153.48C-10.21,-141.88 -5.62,-136.12 3.56,-135.73C12.74,-135.34 19.02,-140.88 24.18,-176.71L26.57,-176.12C22.21,-141.96 26.26,-134.77 36.16,-134.35C47.51,-133.86 50.42,-145.35 50.83,-160.58L51.86,-201.90L48.48,-202.05L45.96,-159.82C45.37,-151.86 43.62,-150.48 41.45,-150.57C38.79,-150.69 36.44,-152.24 36.99,-165.28L41.21,-264.29C41.73,-276.61 35.05,-284.39 21.04,-284.99ZM11.31,-153.07C8.90,-153.17 7.27,-154.69 7.46,-159.04L8.48,-183.18C8.92,-193.33 10.85,-199.05 21.92,-208.98L21.10,-189.66C20.15,-167.45 16.63,-152.84 11.31,-153.07ZM88.28,-267.37L109.29,-266.47L109.81,-278.79L87.36,-279.74L86.23,-281.73L92.63,-312.66L90.00,-313.50C85.89,-307.87 78.52,-305.28 72.92,-304.31L71.90,-280.40L60.79,-280.87L60.27,-268.56L71.38,-268.09L66.83,-161.35C65.95,-140.58 71.91,-132.83 84.23,-132.30C97.99,-131.72 105.21,-147.86 105.64,-169.37L106.26,-201.04L102.88,-201.18L100.84,-170.30C99.67,-154.14 97.48,-148.19 91.69,-148.43C87.58,-148.61 83.35,-151.45 84.09,-168.84ZM168.36,-250.17C169.25,-271.18 162.57,-278.96 149.29,-279.53C134.80,-280.14 123.31,-271.68 122.29,-247.77L118.52,-159.15C117.63,-138.38 124.80,-130.57 139.53,-129.95C155.71,-129.26 164.18,-146.32 164.67,-169.28L165.18,-198.29L161.80,-198.43L159.87,-170.21C158.73,-154.77 155.20,-145.73 147.96,-146.04C141.20,-146.33 135.03,-149.25 135.77,-166.64L137.73,-212.76L166.71,-211.53ZM153.53,-242.82L152.37,-215.53L137.88,-216.14L139.30,-249.47C139.67,-258.16 141.10,-263.42 146.90,-263.18C151.73,-262.97 154.28,-260.44 153.53,-242.82ZM226.29,-156.01C227.19,-177.02 197.26,-229.83 198.13,-250.35C198.40,-256.63 200.51,-260.90 208.48,-260.56C218.63,-260.13 222.42,-258.27 222.23,-253.92C222.03,-249.09 218.59,-242.22 206.81,-221.19L222.75,-220.52C225.46,-233.22 226.42,-244.31 226.83,-253.97C227.47,-268.94 221.74,-276.44 209.18,-276.98C194.69,-277.60 182.02,-269.67 181.10,-248.17C179.99,-222.09 210.31,-178.47 209.29,-154.56C209.03,-148.28 206.89,-143.53 198.92,-143.87C187.09,-144.37 182.58,-146.50 182.77,-150.85C182.98,-155.92 186.45,-163.51 199.77,-186.66L182.39,-187.40C180.24,-176.84 178.69,-163.12 178.17,-150.80C177.53,-135.83 183.97,-128.06 198.22,-127.45C212.71,-126.83 225.41,-135.24 226.29,-156.01Z" fill="#ffffff" stroke="#000000"/>
    <path d="M-184.99,-299.86C-185.42,-293.17 -187.69,-283.97 -206.69,-249.22L-188.54,-248.06C-182.70,-271.90 -181.16,-288.59 -180.38,-300.76C-179.43,-315.57 -184.93,-323.35 -197.35,-324.14C-211.19,-325.03 -223.46,-316.94 -224.95,-293.54L-232.55,-174.64C-233.86,-154.11 -227.17,-146.25 -213.56,-145.38C-199.24,-144.46 -191.21,-161.21 -190.24,-183.92L-189.11,-212.86L-192.45,-213.07L-194.97,-184.95C-196.42,-169.70 -199.39,-160.78 -205.60,-161.17C-210.37,-161.48 -215.22,-164.42 -214.12,-181.61L-206.89,-294.78C-206.36,-303.14 -204.59,-308.30 -198.38,-307.91C-188.35,-307.26 -184.66,-305.11 -184.99,-299.86ZM-148.79,-318.64L-165.50,-319.71L-176.63,-145.42L-159.92,-144.35ZM-137.15,-305.67L-111.84,-304.05L-111.06,-316.23L-136.37,-317.85ZM-117.34,-285.47L-134.05,-286.54L-143.20,-143.28L-126.49,-142.21ZM-60.40,-242.27L-55.57,-265.46C-53.13,-277.29 -58.45,-284.10 -66.09,-284.59C-74.69,-285.14 -82.47,-279.64 -89.77,-244.15L-92.13,-244.78L-84.08,-280.71L-83.91,-283.33L-100.62,-284.40L-109.78,-141.15L-93.06,-140.08L-87.27,-230.81C-85.88,-252.53 -79.78,-269.16 -74.29,-268.81C-70.71,-268.58 -70.00,-264.70 -70.55,-256.11L-78.02,-139.12L-61.31,-138.05L-55.51,-228.78C-54.12,-250.50 -48.03,-267.14 -42.54,-266.78C-38.95,-266.56 -38.24,-262.67 -38.79,-254.08L-46.27,-137.09L-29.55,-136.02L-21.48,-262.32C-20.72,-274.26 -26.22,-282.04 -34.34,-282.56C-42.93,-283.11 -50.71,-277.62 -58.05,-241.64ZM20.83,-279.04C5.79,-280.00 -7.03,-263.32 -7.99,-248.28C-8.69,-237.29 -8.13,-223.59 -4.08,-211.83L18.84,-210.36C0.52,-231.43 -2.97,-240.52 -2.33,-250.55C-1.80,-258.91 1.64,-263.96 14.06,-263.17C21.94,-262.67 23.73,-260.63 23.24,-252.99L20.42,-208.82C0.43,-192.36 -10.09,-185.36 -11.33,-166.02L-12.38,-149.55C-13.11,-138.09 -8.69,-132.29 0.39,-131.71C9.46,-131.13 15.79,-136.48 21.65,-171.83L24.01,-171.20C18.97,-137.48 22.83,-130.28 32.62,-129.65C43.84,-128.93 46.96,-140.24 47.68,-155.30L49.57,-196.17L46.23,-196.39L42.85,-154.65C42.10,-146.79 40.34,-145.46 38.19,-145.60C35.57,-145.77 33.27,-147.35 34.09,-160.24L40.35,-258.13C41.13,-270.31 34.67,-278.15 20.83,-279.04ZM8.42,-148.70C6.04,-148.85 4.46,-150.39 4.73,-154.69L6.26,-178.56C6.90,-188.59 8.93,-194.21 20.10,-203.81L18.88,-184.71C17.47,-162.74 13.68,-148.36 8.42,-148.70ZM86.99,-260.19L107.77,-258.86L108.54,-271.04L86.34,-272.46L85.27,-274.44L92.25,-304.92L89.67,-305.80C85.48,-300.32 78.14,-297.91 72.57,-297.07L71.06,-273.43L60.08,-274.13L59.30,-261.96L70.28,-261.25L63.54,-155.72C62.23,-135.19 67.96,-127.39 80.14,-126.62C93.75,-125.75 101.23,-141.57 102.11,-162.85L103.39,-194.17L100.05,-194.39L97.38,-163.87C95.88,-147.90 93.59,-142.06 87.86,-142.42C83.80,-142.68 79.67,-145.58 80.77,-162.77ZM165.87,-241.48C167.20,-262.26 160.75,-270.10 147.62,-270.94C133.29,-271.85 121.75,-263.72 120.24,-240.08L114.64,-152.46C113.33,-131.93 120.26,-124.05 134.82,-123.12C150.82,-122.10 159.55,-138.80 160.53,-161.52L161.64,-190.21L158.30,-190.43L155.80,-162.54C154.34,-147.29 150.66,-138.41 143.50,-138.87C136.81,-139.30 130.77,-142.32 131.87,-159.51L134.78,-205.11L163.43,-203.28ZM151.05,-234.52L149.32,-207.54L135.00,-208.46L137.10,-241.40C137.65,-250.00 139.18,-255.18 144.91,-254.81C149.69,-254.50 152.16,-251.95 151.05,-234.52ZM221.22,-147.09C222.55,-167.86 194.04,-220.74 195.34,-241.04C195.74,-247.25 197.92,-251.42 205.80,-250.92C215.83,-250.28 219.54,-248.36 219.27,-244.07C218.96,-239.29 215.41,-232.56 203.31,-212.00L219.07,-211.00C222.03,-223.51 223.21,-234.46 223.82,-244.01C224.76,-258.82 219.25,-266.36 206.84,-267.15C192.51,-268.07 179.80,-260.49 178.44,-239.24C176.80,-213.46 205.88,-169.65 204.37,-146.01C203.97,-139.80 201.76,-135.15 193.88,-135.65C182.18,-136.40 177.77,-138.60 178.04,-142.90C178.36,-147.91 181.95,-155.35 195.63,-177.97L178.43,-179.07C176.09,-168.67 174.27,-155.12 173.49,-142.95C172.54,-128.14 178.76,-120.32 192.84,-119.42C207.17,-118.50 219.91,-126.56 221.22,-147.09Z" fill="#ffffff" stroke="#000000"/>
    <path d="M-182.72,-298.21C-183.28,-291.61 -185.72,-282.55 -205.25,-248.57L-187.32,-247.04C-181.04,-270.50 -179.16,-286.98 -178.13,-299.01C-176.89,-313.64 -182.16,-321.45 -194.43,-322.50C-208.11,-323.67 -220.42,-315.92 -222.39,-292.80L-232.41,-175.31C-234.14,-155.03 -227.68,-147.11 -214.24,-145.96C-200.08,-144.76 -191.79,-161.16 -190.35,-183.61L-188.62,-212.22L-191.93,-212.50L-195.01,-184.72C-196.77,-169.66 -199.89,-160.90 -206.03,-161.42C-210.74,-161.82 -215.48,-164.84 -214.03,-181.83L-204.49,-293.65C-203.79,-301.91 -201.93,-306.98 -195.80,-306.46C-185.89,-305.61 -182.27,-303.40 -182.72,-298.21ZM-146.50,-316.04L-163.01,-317.44L-177.70,-145.22L-161.18,-143.81ZM-135.25,-302.96L-110.24,-300.83L-109.22,-312.86L-134.23,-314.99ZM-116.08,-282.55L-132.59,-283.96L-144.66,-142.41L-128.15,-141.00ZM-60.65,-238.61L-55.38,-261.45C-52.72,-273.11 -57.84,-279.96 -65.39,-280.60C-73.88,-281.33 -81.70,-276.05 -89.67,-241.09L-91.99,-241.76L-83.27,-277.14L-83.05,-279.73L-99.56,-281.14L-111.63,-139.59L-95.12,-138.18L-87.47,-227.83C-85.64,-249.30 -79.26,-265.63 -73.83,-265.16C-70.30,-264.86 -69.67,-261.01 -70.40,-252.51L-80.26,-136.91L-63.74,-135.51L-56.10,-225.16C-54.27,-246.62 -47.88,-262.95 -42.46,-262.49C-38.92,-262.19 -38.30,-258.33 -39.02,-249.84L-48.88,-134.24L-32.36,-132.83L-21.72,-257.63C-20.72,-269.43 -25.99,-277.24 -34.01,-277.93C-42.50,-278.65 -50.32,-273.38 -58.33,-237.94ZM20.50,-273.28C5.63,-274.55 -7.40,-258.31 -8.66,-243.45C-9.59,-232.60 -9.32,-219.03 -5.57,-207.30L17.08,-205.37C-0.59,-226.60 -3.86,-235.67 -3.02,-245.58C-2.31,-253.84 1.20,-258.77 13.47,-257.72C21.25,-257.06 22.98,-255.01 22.33,-247.46L18.61,-203.81C-1.51,-187.94 -12.07,-181.24 -13.70,-162.13L-15.08,-145.85C-16.05,-134.53 -11.79,-128.70 -2.83,-127.94C6.14,-127.17 12.52,-132.33 19.05,-167.18L21.37,-166.51C15.68,-133.25 19.35,-126.04 29.02,-125.22C40.11,-124.27 43.43,-135.40 44.46,-150.28L47.20,-190.68L43.89,-190.96L39.67,-149.74C38.77,-141.97 36.99,-140.70 34.87,-140.88C32.28,-141.10 30.04,-142.72 31.12,-155.46L39.37,-252.18C40.40,-264.22 34.18,-272.11 20.50,-273.28ZM5.48,-144.57C3.12,-144.78 1.59,-146.33 1.95,-150.58L3.97,-174.17C4.81,-184.08 6.94,-189.60 18.19,-198.86L16.58,-179.99C14.73,-158.28 10.67,-144.13 5.48,-144.57ZM85.57,-253.24L106.09,-251.49L107.12,-263.52L85.18,-265.39L84.16,-267.38L91.71,-297.39L89.18,-298.32C84.92,-292.98 77.60,-290.75 72.07,-290.03L70.08,-266.68L59.23,-267.60L58.20,-255.57L69.05,-254.64L60.16,-150.37C58.43,-130.08 63.94,-122.24 75.98,-121.22C89.42,-120.07 97.16,-135.57 98.48,-156.61L100.41,-187.57L97.10,-187.85L93.82,-157.72C92.00,-141.95 89.61,-136.21 83.95,-136.69C79.94,-137.04 75.91,-139.99 77.36,-156.98ZM163.23,-233.07C164.98,-253.59 158.76,-261.49 145.78,-262.60C131.63,-263.80 120.03,-256.00 118.04,-232.64L110.66,-146.06C108.93,-125.77 115.62,-117.84 130.01,-116.61C145.81,-115.26 154.81,-131.60 156.25,-154.06L157.96,-182.43L154.65,-182.71L151.59,-155.17C149.83,-140.11 146.00,-131.40 138.92,-132.01C132.32,-132.57 126.41,-135.69 127.85,-152.67L131.70,-197.74L160.01,-195.32ZM148.41,-226.49L146.13,-199.83L131.98,-201.04L134.75,-233.60C135.48,-242.09 137.10,-247.18 142.76,-246.70C147.48,-246.29 149.87,-243.71 148.41,-226.49ZM216.00,-138.50C217.75,-159.03 190.66,-211.96 192.37,-232.01C192.89,-238.14 195.14,-242.23 202.93,-241.56C212.84,-240.72 216.47,-238.75 216.11,-234.50C215.71,-229.78 212.06,-223.20 199.65,-203.11L215.22,-201.78C218.41,-214.10 219.81,-224.92 220.61,-234.35C221.86,-248.98 216.56,-256.56 204.30,-257.61C190.14,-258.81 177.41,-251.58 175.61,-230.59C173.44,-205.11 201.30,-161.15 199.31,-137.79C198.78,-131.66 196.49,-127.10 188.71,-127.76C177.15,-128.75 172.83,-131.02 173.19,-135.26C173.61,-140.22 177.32,-147.51 191.33,-169.60L174.34,-171.05C171.80,-160.81 169.71,-147.44 168.69,-135.41C167.44,-120.78 173.42,-112.91 187.34,-111.72C201.50,-110.51 214.27,-118.22 216.00,-138.50Z" fill="#ffffff" stroke="#000000"/>
    <path d="M-180.47,-296.66C-181.16,-290.13 -183.76,-281.22 -203.80,-248.01L-186.10,-246.12C-179.39,-269.21 -177.18,-285.47 -175.92,-297.35C-174.37,-311.79 -179.43,-319.64 -191.54,-320.93C-205.06,-322.37 -217.39,-314.97 -219.83,-292.14L-232.21,-176.11C-234.35,-156.07 -228.13,-148.11 -214.85,-146.69C-200.88,-145.20 -192.33,-161.25 -190.43,-183.43L-188.12,-211.70L-191.38,-212.05L-195.02,-184.63C-197.07,-169.77 -200.35,-161.16 -206.41,-161.81C-211.07,-162.31 -215.69,-165.39 -213.90,-182.17L-202.11,-292.60C-201.24,-300.76 -199.29,-305.73 -193.23,-305.09C-183.45,-304.04 -179.92,-301.78 -180.47,-296.66ZM-144.26,-313.53L-160.57,-315.27L-178.72,-145.19L-162.41,-143.45ZM-133.41,-300.35L-108.71,-297.72L-107.44,-309.60L-132.14,-312.23ZM-114.87,-279.76L-131.18,-281.50L-146.10,-141.71L-129.79,-139.97ZM-60.96,-235.12L-55.26,-257.61C-52.38,-269.08 -57.30,-275.97 -64.76,-276.77C-73.15,-277.66 -80.99,-272.61 -89.61,-238.18L-91.89,-238.90L-82.52,-273.71L-82.25,-276.28L-98.56,-278.02L-113.48,-138.22L-97.17,-136.48L-87.72,-225.02C-85.46,-246.22 -78.80,-262.24 -73.44,-261.67C-69.94,-261.29 -69.41,-257.47 -70.31,-249.08L-82.49,-134.92L-66.18,-133.18L-56.73,-221.71C-54.47,-242.91 -47.81,-258.93 -42.45,-258.36C-38.96,-257.99 -38.42,-254.16 -39.32,-245.77L-51.50,-131.61L-35.19,-129.87L-22.04,-253.12C-20.80,-264.77 -25.85,-272.61 -33.77,-273.46C-42.16,-274.35 -50.00,-269.30 -58.68,-234.41ZM20.06,-267.71C5.38,-269.28 -7.85,-253.49 -9.42,-238.81C-10.56,-228.09 -10.58,-214.66 -7.12,-202.98L15.25,-200.60C-1.79,-221.97 -4.83,-231.02 -3.79,-240.80C-2.92,-248.96 0.66,-253.76 12.78,-252.47C20.46,-251.65 22.13,-249.58 21.33,-242.13L16.73,-199.02C-3.51,-183.75 -14.09,-177.34 -16.11,-158.46L-17.82,-142.39C-19.02,-131.21 -14.93,-125.35 -6.08,-124.40C2.78,-123.46 9.20,-128.43 16.40,-162.77L18.68,-162.06C12.35,-129.27 15.82,-122.07 25.38,-121.05C36.33,-119.88 39.85,-130.81 41.18,-145.52L44.74,-185.43L41.48,-185.78L36.42,-145.08C35.37,-137.42 33.59,-136.19 31.49,-136.42C28.93,-136.69 26.75,-138.34 28.09,-150.92L38.29,-246.44C39.56,-258.33 33.57,-266.27 20.06,-267.71ZM2.49,-140.69C0.17,-140.94 -1.32,-142.51 -0.87,-146.71L1.62,-170.00C2.66,-179.79 4.89,-185.21 16.21,-194.13L14.22,-175.49C11.93,-154.06 7.62,-140.14 2.49,-140.69ZM84.02,-246.51L104.29,-244.35L105.56,-256.23L83.89,-258.54L82.92,-260.53L91.02,-290.06L88.53,-291.04C84.21,-285.84 76.92,-283.79 71.44,-283.20L68.98,-260.13L58.26,-261.28L56.99,-249.40L67.71,-248.25L56.72,-145.27C54.58,-125.24 59.87,-117.37 71.75,-116.10C85.03,-114.68 93.01,-129.85 94.76,-150.64L97.32,-181.23L94.05,-181.58L90.17,-151.83C88.04,-136.27 85.55,-130.65 79.96,-131.24C76.00,-131.67 72.08,-134.68 73.87,-151.45ZM160.42,-224.92C162.59,-245.19 156.60,-253.14 143.79,-254.51C129.81,-256.00 118.17,-248.52 115.71,-225.46L106.58,-139.95C104.44,-119.91 110.89,-111.92 125.11,-110.40C140.72,-108.74 149.96,-124.72 151.86,-146.90L154.14,-174.93L150.88,-175.28L147.27,-148.10C145.22,-133.23 141.24,-124.70 134.25,-125.45C127.73,-126.15 121.95,-129.36 123.74,-146.13L128.49,-190.63L156.44,-187.65ZM145.62,-218.73L142.81,-192.40L128.83,-193.89L132.27,-226.05C133.16,-234.43 134.87,-239.43 140.46,-238.84C145.12,-238.34 147.44,-235.74 145.62,-218.73ZM210.65,-130.26C212.81,-150.53 187.12,-203.46 189.24,-223.26C189.88,-229.32 192.19,-233.32 199.88,-232.50C209.67,-231.45 213.22,-229.42 212.77,-225.23C212.28,-220.57 208.53,-214.14 195.83,-194.52L211.21,-192.88C214.62,-205.00 216.23,-215.67 217.23,-224.99C218.77,-239.43 213.69,-247.05 201.57,-248.34C187.59,-249.83 174.84,-242.94 172.63,-222.21C169.94,-197.05 196.58,-152.97 194.12,-129.90C193.47,-123.84 191.11,-119.38 183.42,-120.20C172.00,-121.42 167.78,-123.76 168.22,-127.95C168.75,-132.84 172.57,-139.98 186.89,-161.54L170.11,-163.33C167.39,-153.25 165.04,-140.07 163.77,-128.19C162.23,-113.75 167.98,-105.83 181.73,-104.36C195.71,-102.87 208.51,-110.22 210.65,-130.26Z" fill="#ffffff" stroke="#000000"/>
    <path d="M-178.24,-295.18C-179.06,-288.75 -181.83,-279.98 -202.35,-247.56L-184.87,-245.31C-177.75,-268.01 -175.23,-284.05 -173.72,-295.77C-171.89,-310.03 -176.73,-317.90 -188.69,-319.43C-202.02,-321.14 -214.38,-314.08 -217.27,-291.54L-231.97,-177.02C-234.50,-157.25 -228.52,-149.23 -215.41,-147.55C-201.61,-145.78 -192.82,-161.48 -190.48,-183.39L-187.60,-211.30L-190.82,-211.72L-194.99,-184.67C-197.34,-170.01 -200.76,-161.57 -206.74,-162.33C-211.34,-162.92 -215.84,-166.07 -213.72,-182.63L-199.73,-291.63C-198.70,-299.68 -196.67,-304.56 -190.69,-303.79C-181.03,-302.56 -177.59,-300.24 -178.24,-295.18ZM-142.06,-311.11L-158.16,-313.18L-179.70,-145.31L-163.60,-143.24ZM-131.61,-297.85L-107.23,-294.72L-105.73,-306.45L-130.10,-309.58ZM-113.70,-277.09L-129.80,-279.15L-147.50,-141.18L-131.40,-139.11ZM-61.31,-231.80L-55.20,-253.92C-52.11,-265.21 -56.83,-272.13 -64.19,-273.07C-72.47,-274.14 -80.34,-269.30 -89.59,-235.43L-91.83,-236.18L-81.83,-270.43L-81.50,-272.96L-97.60,-275.02L-115.30,-137.05L-99.21,-134.98L-87.99,-222.37C-85.31,-243.29 -78.39,-259.00 -73.10,-258.32C-69.65,-257.88 -69.20,-254.08 -70.26,-245.80L-84.72,-133.12L-68.62,-131.06L-57.41,-218.44C-54.73,-239.37 -47.80,-255.08 -42.51,-254.40C-39.06,-253.95 -38.61,-250.16 -39.68,-241.88L-54.13,-129.20L-38.04,-127.13L-22.43,-248.78C-20.95,-260.28 -25.79,-268.15 -33.61,-269.15C-41.89,-270.21 -49.75,-265.38 -59.07,-231.04ZM19.52,-262.33C5.04,-264.19 -8.39,-248.85 -10.25,-234.36C-11.60,-223.78 -11.90,-210.50 -8.72,-198.87L13.35,-196.04C-3.05,-217.55 -5.87,-226.56 -4.63,-236.21C-3.60,-244.26 0.04,-248.94 12.00,-247.40C19.59,-246.43 21.19,-244.35 20.25,-237.00L14.79,-194.45C-5.56,-179.77 -16.16,-173.65 -18.55,-155.02L-20.59,-139.15C-22.01,-128.12 -18.09,-122.24 -9.35,-121.12C-0.61,-119.99 5.85,-124.78 13.69,-158.60L15.93,-157.84C8.99,-125.54 12.27,-118.34 21.70,-117.13C32.51,-115.75 36.22,-126.49 37.85,-141.01L42.20,-180.42L38.99,-180.83L33.13,-140.68C31.93,-133.12 30.14,-131.94 28.07,-132.21C25.54,-132.53 23.42,-134.21 25.01,-146.63L37.11,-240.91C38.61,-252.64 32.86,-260.62 19.52,-262.33ZM-0.52,-137.05C-2.82,-137.34 -4.26,-138.93 -3.73,-143.07L-0.78,-166.06C0.46,-175.72 2.78,-181.03 14.17,-189.62L11.81,-171.23C9.09,-150.07 4.53,-136.40 -0.52,-137.05ZM82.35,-240.01L102.35,-237.45L103.86,-249.18L82.47,-251.92L81.56,-253.91L90.19,-282.95L87.75,-283.97C83.37,-278.92 76.11,-277.04 70.68,-276.57L67.76,-253.81L57.18,-255.16L55.67,-243.44L66.25,-242.08L53.21,-140.44C50.67,-120.66 55.74,-112.77 67.47,-111.26C80.57,-109.58 88.79,-124.42 90.95,-144.95L94.13,-175.16L90.91,-175.57L86.44,-146.23C84.01,-130.88 81.43,-125.36 75.91,-126.07C72.00,-126.57 68.19,-129.63 70.31,-146.19ZM157.48,-217.05C160.04,-237.06 154.29,-245.04 141.64,-246.67C127.85,-248.44 116.18,-241.28 113.25,-218.52L102.43,-134.12C99.89,-114.35 106.10,-106.30 120.13,-104.50C135.54,-102.53 145.02,-118.14 147.36,-140.05L150.22,-167.73L147.00,-168.14L142.85,-141.33C140.51,-126.67 136.40,-118.31 129.50,-119.20C123.06,-120.02 117.40,-123.32 119.53,-139.88L125.16,-183.80L152.76,-180.26ZM142.71,-211.23L139.37,-185.25L125.58,-187.02L129.65,-218.75C130.71,-227.03 132.51,-231.94 138.03,-231.23C142.63,-230.64 144.86,-228.02 142.71,-211.23ZM205.17,-122.34C207.74,-142.35 183.44,-195.26 185.95,-214.80C186.71,-220.78 189.08,-224.68 196.67,-223.71C206.33,-222.47 209.80,-220.39 209.27,-216.25C208.68,-211.65 204.84,-205.37 191.86,-186.23L207.04,-184.28C210.67,-196.20 212.49,-206.72 213.67,-215.92C215.50,-230.18 210.64,-237.81 198.68,-239.35C184.88,-241.12 172.12,-234.57 169.49,-214.11C166.31,-189.27 191.73,-145.11 188.81,-122.34C188.04,-116.36 185.61,-112.00 178.02,-112.97C166.76,-114.42 162.62,-116.82 163.15,-120.96C163.77,-125.79 167.71,-132.76 182.33,-153.79L165.77,-155.92C162.86,-146.00 160.26,-133.01 158.76,-121.29C156.93,-107.03 162.45,-99.07 176.02,-97.33C189.82,-95.56 202.63,-102.57 205.17,-122.34Z" fill="#ffffff" stroke="#000000"/>
    <path d="M-176.02,-293.80C-176.98,-287.45 -179.89,-278.84 -200.87,-247.19L-183.63,-244.61C-176.11,-266.90 -173.28,-282.72 -171.54,-294.28C-169.44,-308.35 -174.05,-316.23 -185.85,-318.00C-199.00,-319.97 -211.38,-313.25 -214.71,-291.02L-231.65,-178.05C-234.58,-158.54 -228.83,-150.49 -215.90,-148.55C-202.29,-146.51 -193.26,-161.86 -190.48,-183.47L-187.05,-211.02L-190.22,-211.50L-194.92,-184.83C-197.55,-170.38 -201.11,-162.10 -207.01,-162.99C-211.54,-163.67 -215.93,-166.88 -213.48,-183.21L-197.36,-290.73C-196.17,-298.67 -194.06,-303.46 -188.16,-302.57C-178.63,-301.15 -175.28,-298.79 -176.02,-293.80ZM-139.91,-308.79L-155.79,-311.17L-180.62,-145.58L-164.74,-143.20ZM-129.84,-295.45L-105.80,-291.85L-104.06,-303.42L-128.11,-307.02ZM-112.57,-274.54L-128.45,-276.92L-148.86,-140.82L-132.98,-138.43ZM-61.70,-228.64L-55.19,-250.39C-51.90,-261.50 -56.42,-268.44 -63.68,-269.53C-71.85,-270.75 -79.73,-266.13 -89.60,-232.82L-91.80,-233.62L-81.18,-267.28L-80.81,-269.77L-96.69,-272.16L-117.10,-136.05L-101.22,-133.67L-88.29,-219.87C-85.20,-240.51 -78.02,-255.90 -72.80,-255.12C-69.40,-254.61 -69.03,-250.85 -70.26,-242.68L-86.93,-131.53L-71.05,-129.15L-58.12,-215.35C-55.03,-235.99 -47.85,-251.38 -42.63,-250.60C-39.23,-250.09 -38.86,-246.32 -40.09,-238.15L-56.76,-127.00L-40.88,-124.62L-22.88,-244.62C-21.18,-255.96 -25.80,-263.84 -33.51,-265.00C-41.68,-266.23 -49.56,-261.61 -59.50,-227.84ZM18.90,-257.14C4.61,-259.28 -8.99,-244.39 -11.14,-230.10C-12.70,-219.67 -13.28,-206.53 -10.37,-194.96L11.40,-191.70C-4.38,-213.32 -6.97,-222.29 -5.54,-231.81C-4.35,-239.75 -0.66,-244.30 11.14,-242.53C18.63,-241.41 20.17,-239.32 19.08,-232.06L12.79,-190.10C-7.65,-176.00 -18.27,-170.17 -21.02,-151.80L-23.37,-136.14C-25.00,-125.26 -21.25,-119.36 -12.63,-118.07C-4.01,-116.77 2.48,-121.37 10.95,-154.65L13.15,-153.86C5.60,-122.06 8.69,-114.87 17.99,-113.47C28.66,-111.87 32.56,-122.42 34.47,-136.75L39.61,-175.64L36.43,-176.11L29.80,-136.52C28.45,-129.07 26.66,-127.95 24.62,-128.25C22.12,-128.63 20.06,-130.33 21.89,-142.58L35.84,-235.58C37.58,-247.15 32.05,-255.17 18.90,-257.14ZM-3.57,-133.64C-5.84,-133.98 -7.22,-135.58 -6.61,-139.66L-3.21,-162.34C-1.78,-171.87 0.63,-177.08 12.07,-185.33L9.35,-167.19C6.22,-146.32 1.42,-132.89 -3.57,-133.64ZM80.57,-233.74L100.31,-230.78L102.04,-242.35L80.95,-245.52L80.08,-247.50L89.24,-276.05L86.84,-277.10C82.40,-272.20 75.18,-270.50 69.80,-270.15L66.43,-247.69L55.99,-249.26L54.26,-237.69L64.69,-236.12L49.66,-135.86C46.73,-116.35 51.57,-108.44 63.14,-106.70C76.07,-104.76 84.51,-119.27 87.08,-139.53L90.86,-169.34L87.68,-169.82L82.65,-140.89C79.92,-125.76 77.25,-120.36 71.81,-121.17C67.95,-121.75 64.24,-124.86 66.69,-141.19ZM154.40,-209.45C157.36,-229.18 151.84,-237.20 139.36,-239.07C125.75,-241.12 114.06,-234.29 110.69,-211.83L98.20,-128.58C95.28,-109.07 101.26,-100.99 115.09,-98.91C130.29,-96.63 140.00,-111.87 142.78,-133.49L146.18,-160.82L143.00,-161.29L138.34,-134.85C135.71,-120.40 131.47,-112.23 124.67,-113.25C118.31,-114.20 112.79,-117.58 115.24,-133.91L121.74,-177.24L148.96,-173.16ZM139.67,-204.01L135.82,-178.37L122.21,-180.41L126.91,-211.72C128.13,-219.88 130.02,-224.70 135.46,-223.89C140.00,-223.21 142.15,-220.56 139.67,-204.01ZM199.59,-114.77C202.54,-134.50 179.62,-187.34 182.51,-206.63C183.40,-212.52 185.82,-216.33 193.31,-215.21C202.84,-213.78 206.23,-211.65 205.62,-207.57C204.94,-203.03 201.00,-196.89 187.77,-178.24L202.74,-175.99C206.58,-187.71 208.60,-198.07 209.96,-207.15C212.07,-221.21 207.42,-228.87 195.62,-230.64C182.01,-232.68 169.25,-226.47 166.23,-206.28C162.55,-181.79 186.77,-137.56 183.40,-115.11C182.52,-109.21 180.02,-104.94 172.53,-106.07C161.42,-107.73 157.38,-110.20 157.99,-114.28C158.71,-119.04 162.75,-125.86 177.65,-146.35L161.32,-148.80C158.23,-139.06 155.39,-126.27 153.65,-114.70C151.54,-100.63 156.84,-92.65 170.22,-90.64C183.83,-88.60 196.66,-95.26 199.59,-114.77Z" fill="#ffffff" stroke="#000000"/>
    <path d="M-173.82,-292.49C-174.90,-286.23 -177.96,-277.77 -199.38,-246.92L-182.38,-244.00C-174.47,-265.89 -171.34,-281.47 -169.38,-292.88C-167.00,-306.74 -171.40,-314.64 -183.03,-316.63C-196.00,-318.86 -208.38,-312.47 -212.14,-290.55L-231.27,-179.18C-234.58,-159.95 -229.06,-151.87 -216.31,-149.68C-202.89,-147.37 -193.64,-162.36 -190.44,-183.68L-186.46,-210.86L-189.59,-211.39L-194.80,-185.12C-197.70,-170.88 -201.40,-162.77 -207.21,-163.77C-211.69,-164.54 -215.96,-167.80 -213.19,-183.91L-194.98,-289.91C-193.64,-297.74 -191.45,-302.43 -185.64,-301.43C-176.25,-299.81 -172.97,-297.41 -173.82,-292.49ZM-137.78,-306.56L-153.44,-309.25L-181.48,-145.99L-165.83,-143.31ZM-128.11,-293.16L-104.40,-289.08L-102.45,-300.49L-126.15,-304.56ZM-111.47,-272.11L-127.12,-274.80L-150.17,-140.62L-134.52,-137.93ZM-62.12,-225.64L-55.22,-247.02C-51.73,-257.93 -56.06,-264.89 -63.22,-266.12C-71.27,-267.50 -79.16,-263.10 -89.62,-230.37L-91.78,-231.20L-80.58,-264.27L-80.15,-266.73L-95.81,-269.42L-118.86,-135.24L-103.20,-132.55L-88.61,-217.53C-85.11,-237.88 -77.69,-252.95 -72.54,-252.07C-69.19,-251.49 -68.91,-247.76 -70.29,-239.71L-89.12,-130.13L-73.46,-127.44L-58.86,-212.42C-55.37,-232.77 -47.94,-247.84 -42.80,-246.96C-39.44,-246.38 -39.16,-242.65 -40.55,-234.60L-59.37,-125.02L-43.72,-122.33L-23.39,-240.63C-21.47,-251.81 -25.87,-259.71 -33.48,-261.01C-41.53,-262.39 -49.42,-258.00 -59.96,-224.81ZM18.19,-252.14C4.10,-254.56 -9.66,-240.11 -12.08,-226.02C-13.85,-215.74 -14.70,-202.76 -12.07,-191.26L9.40,-187.57C-5.75,-209.28 -8.13,-218.21 -6.51,-227.60C-5.17,-235.43 -1.42,-239.85 10.21,-237.85C17.59,-236.58 19.07,-234.49 17.84,-227.33L10.74,-185.96C-9.77,-172.44 -20.40,-166.90 -23.51,-148.79L-26.16,-133.36C-28.00,-122.62 -24.41,-116.71 -15.91,-115.25C-7.42,-113.79 -0.90,-118.20 8.17,-150.94L10.33,-150.11C2.20,-118.81 5.11,-111.64 14.28,-110.06C24.79,-108.26 28.87,-118.61 31.06,-132.73L36.96,-171.09L33.83,-171.63L26.44,-132.61C24.95,-125.27 23.15,-124.19 21.14,-124.54C18.68,-124.96 16.67,-126.69 18.75,-138.76L34.50,-230.46C36.46,-241.86 31.16,-249.91 18.19,-252.14ZM-6.62,-130.46C-8.86,-130.84 -10.20,-132.46 -9.50,-136.48L-5.66,-158.84C-4.05,-168.24 -1.56,-173.34 9.93,-181.26L6.86,-163.37C3.32,-142.80 -1.71,-129.62 -6.62,-130.46ZM78.70,-227.70L98.15,-224.35L100.11,-235.76L79.31,-239.33L78.50,-241.31L88.16,-269.36L85.81,-270.45C81.31,-265.70 74.14,-264.17 68.80,-263.93L65.00,-241.79L54.71,-243.56L52.75,-232.15L63.04,-230.39L46.06,-131.54C42.76,-112.31 47.38,-104.38 58.79,-102.42C71.53,-100.23 80.18,-114.40 83.16,-134.38L87.52,-163.79L84.39,-164.33L78.80,-135.82C75.78,-120.91 73.03,-115.63 67.66,-116.55C63.86,-117.20 60.26,-120.35 63.02,-136.45ZM151.21,-202.12C154.55,-221.57 149.25,-229.62 136.95,-231.73C123.54,-234.04 111.83,-227.53 108.02,-205.39L93.92,-123.32C90.62,-104.08 96.36,-95.96 110.00,-93.62C124.99,-91.04 134.91,-105.92 138.11,-127.24L142.05,-154.19L138.92,-154.73L133.75,-128.68C130.85,-114.44 126.48,-106.44 119.77,-107.60C113.51,-108.67 108.12,-112.13 110.88,-128.23L118.22,-170.95L145.06,-166.34ZM136.52,-197.04L132.18,-171.77L118.76,-174.08L124.06,-204.94C125.45,-212.99 127.41,-217.72 132.78,-216.80C137.25,-216.03 139.32,-213.37 136.52,-197.04ZM193.90,-107.52C197.24,-126.98 175.68,-179.72 178.95,-198.73C179.95,-204.55 182.43,-208.27 189.81,-207.00C199.20,-205.38 202.51,-203.20 201.82,-199.18C201.05,-194.71 197.03,-188.72 183.55,-170.54L198.31,-168.01C202.35,-179.52 204.57,-189.73 206.11,-198.67C208.49,-212.54 204.05,-220.21 192.42,-222.20C179.00,-224.51 166.25,-218.64 162.83,-198.74C158.68,-174.59 181.70,-130.34 177.90,-108.20C176.90,-102.39 174.34,-98.22 166.96,-99.49C156.01,-101.37 152.06,-103.89 152.76,-107.92C153.56,-112.61 157.70,-119.27 172.87,-139.23L156.77,-141.99C153.51,-132.42 150.43,-119.83 148.47,-108.42C146.09,-94.56 151.16,-86.55 164.35,-84.28C177.77,-81.98 190.60,-88.29 193.90,-107.52Z" fill="#ffffff" stroke="#000000"/>
    <path d="M-171.62,-291.26C-172.81,-285.09 -176.02,-276.79 -197.85,-246.73L-181.10,-243.49C-172.83,-264.97 -169.40,-280.31 -167.22,-291.55C-164.57,-305.21 -168.76,-313.11 -180.21,-315.33C-192.99,-317.81 -205.37,-311.74 -209.56,-290.15L-230.82,-180.42C-234.49,-161.47 -229.20,-153.36 -216.64,-150.92C-203.42,-148.36 -193.96,-162.99 -190.34,-184.01L-185.84,-210.80L-188.92,-211.39L-194.62,-185.52C-197.80,-171.51 -201.62,-163.56 -207.35,-164.67C-211.76,-165.52 -215.92,-168.84 -212.84,-184.71L-192.60,-289.15C-191.11,-296.86 -188.85,-301.46 -183.12,-300.35C-173.86,-298.55 -170.68,-296.11 -171.62,-291.26ZM-135.69,-304.41L-151.11,-307.40L-182.28,-146.55L-166.85,-143.56ZM-126.40,-290.96L-103.05,-286.43L-100.87,-297.67L-124.23,-302.19ZM-110.39,-269.79L-125.81,-272.78L-151.43,-140.57L-136.00,-137.58ZM-62.56,-222.80L-55.29,-243.80C-51.61,-254.52 -55.75,-261.49 -62.80,-262.86C-70.73,-264.39 -78.63,-260.21 -89.66,-228.05L-91.78,-228.92L-80.00,-261.39L-79.53,-263.81L-94.96,-266.80L-120.58,-134.60L-105.15,-131.61L-88.93,-215.34C-85.04,-235.39 -77.38,-250.14 -72.31,-249.15C-69.01,-248.51 -68.81,-244.82 -70.35,-236.89L-91.27,-128.92L-75.85,-125.93L-59.62,-209.66C-55.74,-229.71 -48.08,-244.46 -43.01,-243.48C-39.70,-242.84 -39.51,-239.14 -41.04,-231.21L-61.96,-123.24L-46.54,-120.25L-23.95,-236.81C-21.82,-247.83 -26.00,-255.73 -33.50,-257.18C-41.43,-258.72 -49.33,-254.53 -60.44,-221.94ZM17.41,-247.31C3.53,-250.00 -10.38,-236.01 -13.07,-222.13C-15.04,-211.99 -16.15,-199.18 -13.79,-187.75L7.36,-183.65C-7.16,-205.44 -9.33,-214.32 -7.53,-223.57C-6.04,-231.28 -2.24,-235.58 9.22,-233.36C16.49,-231.95 17.91,-229.84 16.55,-222.79L8.65,-182.03C-11.92,-169.09 -22.54,-163.84 -26.00,-145.99L-28.94,-130.79C-30.99,-120.21 -27.57,-114.29 -19.19,-112.66C-10.82,-111.04 -4.29,-115.26 5.38,-147.45L7.50,-146.59C-1.21,-115.81 1.52,-108.65 10.55,-106.90C20.91,-104.89 25.16,-115.04 27.63,-128.97L34.27,-166.77L31.19,-167.37L23.05,-128.94C21.42,-121.71 19.63,-120.69 17.64,-121.07C15.22,-121.54 13.27,-123.29 15.58,-135.19L33.08,-225.53C35.26,-236.77 30.19,-244.84 17.41,-247.31ZM-9.69,-127.51C-11.89,-127.94 -13.18,-129.56 -12.41,-133.53L-8.14,-155.56C-6.35,-164.81 -3.78,-169.80 7.75,-177.40L4.34,-159.77C0.41,-139.50 -4.84,-126.57 -9.69,-127.51ZM76.73,-221.87L95.90,-218.16L98.08,-229.40L77.59,-233.37L76.83,-235.34L86.96,-262.87L84.67,-264.00C80.12,-259.40 72.99,-258.03 67.71,-257.92L63.49,-236.10L53.35,-238.06L51.17,-226.83L61.31,-224.86L42.44,-127.47C38.77,-108.52 43.17,-100.58 54.41,-98.40C66.97,-95.97 75.82,-109.80 79.18,-129.50L84.11,-158.49L81.03,-159.09L74.90,-131.01C71.60,-116.33 68.77,-111.17 63.48,-112.19C59.74,-112.92 56.24,-116.11 59.31,-131.97ZM147.90,-195.05C151.61,-214.22 146.55,-222.29 134.43,-224.64C121.21,-227.20 109.49,-221.01 105.27,-199.20L89.60,-118.33C85.92,-99.38 91.43,-91.23 104.87,-88.62C119.64,-85.76 129.76,-100.26 133.38,-121.28L137.84,-147.85L134.75,-148.45L129.10,-122.80C125.92,-108.78 121.44,-100.96 114.83,-102.24C108.66,-103.44 103.40,-106.97 106.47,-122.84L114.63,-164.92L141.07,-159.80ZM133.27,-190.34L128.45,-165.44L115.22,-168.01L121.12,-198.41C122.65,-206.35 124.69,-210.98 129.98,-209.96C134.39,-209.10 136.39,-206.43 133.27,-190.34ZM188.13,-100.61C191.85,-119.78 171.64,-172.39 175.26,-191.12C176.37,-196.85 178.91,-200.48 186.18,-199.07C195.43,-197.27 198.66,-195.05 197.89,-191.08C197.04,-186.68 192.93,-180.84 179.22,-163.15L193.76,-160.33C198.01,-171.63 200.41,-181.68 202.12,-190.49C204.77,-204.15 200.54,-211.83 189.08,-214.05C175.86,-216.61 163.13,-211.08 159.33,-191.47C154.72,-167.67 176.55,-123.43 172.32,-101.62C171.21,-95.89 168.60,-91.82 161.33,-93.23C150.53,-95.32 146.68,-97.90 147.45,-101.86C148.35,-106.49 152.58,-112.99 168.00,-132.40L152.14,-135.48C148.72,-126.08 145.40,-113.69 143.22,-102.45C140.58,-88.79 145.42,-80.77 158.42,-78.25C171.64,-75.69 184.46,-81.66 188.13,-100.61Z" fill="#ffffff" stroke="#000000"/>
    <path d="M-169.42,-290.10C-170.73,-284.03 -174.08,-275.89 -196.29,-246.63L-179.80,-243.07C-171.16,-264.14 -167.45,-279.23 -165.06,-290.30C-162.16,-303.75 -166.13,-311.65 -177.41,-314.08C-190.00,-316.80 -202.36,-311.07 -206.95,-289.81L-230.28,-181.75C-234.31,-163.09 -229.26,-154.96 -216.89,-152.29C-203.87,-149.48 -194.20,-163.74 -190.19,-184.45L-185.17,-210.84L-188.21,-211.50L-194.39,-186.04C-197.82,-172.24 -201.77,-164.47 -207.41,-165.68C-211.75,-166.62 -215.79,-169.99 -212.42,-185.61L-190.21,-288.46C-188.57,-296.06 -186.24,-300.55 -180.60,-299.33C-171.48,-297.36 -168.39,-294.88 -169.42,-290.10ZM-133.61,-302.36L-148.80,-305.64L-183.00,-147.24L-167.81,-143.96ZM-124.71,-288.85L-101.71,-283.89L-99.33,-294.95L-122.32,-299.92ZM-109.32,-267.59L-124.51,-270.87L-152.62,-140.68L-137.43,-137.40ZM-63.02,-220.12L-55.39,-240.73C-51.53,-251.25 -55.47,-258.23 -62.42,-259.73C-70.23,-261.42 -78.13,-257.45 -89.71,-225.88L-91.79,-226.79L-79.46,-258.64L-78.94,-261.03L-94.13,-264.31L-122.24,-134.12L-107.05,-130.84L-89.25,-213.29C-84.99,-233.04 -77.10,-247.46 -72.11,-246.38C-68.86,-245.68 -68.74,-242.02 -70.43,-234.21L-93.38,-127.89L-78.19,-124.61L-60.39,-207.06C-56.13,-226.81 -48.24,-241.23 -43.25,-240.15C-40.00,-239.45 -39.88,-235.79 -41.57,-227.98L-64.53,-121.66L-49.34,-118.38L-24.55,-233.16C-22.21,-244.01 -26.18,-251.91 -33.56,-253.50C-41.37,-255.19 -49.27,-251.22 -60.95,-219.22ZM16.57,-242.68C2.90,-245.63 -11.15,-232.08 -14.10,-218.41C-16.26,-208.43 -17.63,-195.78 -15.53,-184.43L5.29,-179.93C-8.61,-201.79 -10.56,-210.61 -8.60,-219.72C-6.96,-227.32 -3.10,-231.48 8.18,-229.05C15.34,-227.50 16.70,-225.39 15.20,-218.45L6.53,-178.30C-14.08,-165.95 -24.69,-160.97 -28.48,-143.40L-31.72,-128.43C-33.96,-118.01 -30.70,-112.09 -22.46,-110.31C-14.21,-108.52 -7.66,-112.56 2.57,-144.19L4.65,-143.29C-4.61,-113.04 -2.06,-105.90 6.83,-103.98C17.03,-101.78 21.45,-111.72 24.19,-125.44L31.55,-162.68L28.51,-163.34L19.66,-125.51C17.90,-118.40 16.10,-117.42 14.14,-117.84C11.76,-118.36 9.87,-120.13 12.40,-131.85L31.61,-220.81C34.00,-231.87 29.16,-239.96 16.57,-242.68ZM-12.74,-124.79C-14.91,-125.25 -16.15,-126.88 -15.31,-130.79L-10.62,-152.49C-8.66,-161.60 -6.01,-166.48 5.55,-173.75L1.80,-156.39C-2.51,-136.43 -7.97,-123.76 -12.74,-124.79ZM74.69,-216.27L93.57,-212.20L95.96,-223.26L75.78,-227.62L75.07,-229.59L85.67,-256.60L83.42,-257.76C78.83,-253.31 71.75,-252.11 66.53,-252.10L61.89,-230.62L51.91,-232.77L49.52,-221.71L59.50,-219.55L38.79,-123.65C34.76,-104.99 38.95,-97.04 50.02,-94.66C62.39,-91.98 71.43,-105.47 75.17,-124.88L80.65,-153.44L77.62,-154.10L70.97,-126.47C67.40,-112.02 64.49,-106.97 59.28,-108.10C55.59,-108.89 52.20,-112.12 55.58,-127.75ZM144.50,-188.26C148.57,-207.13 143.73,-215.22 131.80,-217.80C118.78,-220.61 107.06,-214.73 102.43,-193.25L85.23,-113.62C81.20,-94.96 86.48,-86.78 99.71,-83.93C114.25,-80.79 124.57,-94.91 128.58,-115.62L133.55,-141.79L130.52,-142.45L124.38,-117.20C120.95,-103.41 116.35,-95.77 109.84,-97.18C103.77,-98.49 98.64,-102.10 102.01,-117.72L110.96,-159.16L137.00,-153.54ZM129.93,-183.91L124.64,-159.39L111.62,-162.20L118.08,-192.14C119.77,-199.95 121.89,-204.49 127.09,-203.37C131.43,-202.43 133.35,-199.75 129.93,-183.91ZM182.29,-94.03C186.37,-112.90 167.49,-165.35 171.47,-183.79C172.69,-189.44 175.27,-192.97 182.43,-191.42C191.54,-189.45 194.68,-187.18 193.84,-183.28C192.90,-178.94 188.72,-173.26 174.79,-156.05L189.11,-152.96C193.55,-164.04 196.14,-173.93 198.01,-182.61C200.92,-196.06 196.90,-203.74 185.61,-206.17C172.60,-208.99 159.89,-203.78 155.72,-184.47C150.66,-161.04 171.32,-116.83 166.68,-95.35C165.46,-89.71 162.79,-85.75 155.63,-87.29C145.00,-89.59 141.25,-92.22 142.09,-96.12C143.08,-100.68 147.40,-107.01 163.05,-125.89L147.43,-129.26C143.85,-120.04 140.31,-107.86 137.92,-96.79C135.02,-83.34 139.64,-75.30 152.44,-72.54C165.46,-69.73 178.26,-75.37 182.29,-94.03Z" fill="#ffffff" stroke="#000000"/>
    <path d="M-908.57,461.18L-911.73,461.18L-911.73,492L-904.01,492L-904.01,489.26L-908.57,489.26ZM-894.09,471.23C-894.09,467.56 -895.31,466.25 -897.63,466.25C-900.16,466.25 -902.11,467.81 -902.11,471.99L-902.11,487.48C-902.11,491.11 -900.80,492.42 -898.22,492.42C-895.39,492.42 -894.04,489.38 -894.13,485.37L-894.25,480.31L-894.85,480.31L-894.97,485.25C-895.06,487.95 -895.61,489.55 -896.87,489.55C-898.05,489.55 -899.15,489.09 -899.15,486.05L-899.15,477.98L-894.09,477.98ZM-896.62,472.62L-896.62,477.39L-899.15,477.39L-899.15,471.57C-899.15,470.05 -898.94,469.12 -897.93,469.12C-897.08,469.12 -896.62,469.54 -896.62,472.62ZM-887.96,461.18L-891.13,461.18L-891.55,492L-888.22,492L-889.36,469.96L-888.93,469.96L-885.43,489.89L-884.46,489.89L-881.76,469.96L-881.29,469.96L-881.84,492L-878.59,492L-879.01,461.18L-881.67,461.18L-884.12,481.15L-884.59,481.15ZM-870.02,492L-867.06,492L-867.06,466.67L-870.02,466.67L-870.02,482.71C-870.02,486.64 -870.91,489.55 -872.09,489.55C-872.89,489.55 -873.10,488.88 -873.10,487.36L-873.10,466.67L-876.06,466.67L-876.06,489.00C-876.06,491.11 -874.92,492.42 -873.35,492.42C-871.75,492.42 -870.31,491.37 -869.43,485.03L-869.01,485.12L-870.02,491.54ZM-858.32,469.37C-857.56,469.37 -857.18,469.71 -857.18,470.47C-857.18,471.23 -858.07,473.04 -860.48,478.11L-857.27,478.11C-856.55,474.35 -856.42,471.52 -856.42,470.43C-856.42,467.64 -857.06,466.25 -858.32,466.25C-859.76,466.25 -860.81,467.30 -861.70,473.64L-862.12,473.55L-861.19,467.13L-861.19,466.67L-864.11,466.67L-864.11,492L-861.15,492L-861.15,475.87C-861.15,471.61 -859.67,469.37 -858.32,469.37ZM-846.97,473.64L-846.37,469.50C-846.08,467.39 -847.09,466.25 -848.44,466.25C-849.96,466.25 -851.27,467.30 -852.16,473.64L-852.58,473.55L-851.57,467.13L-851.57,466.67L-854.52,466.67L-854.52,492L-851.57,492L-851.57,475.96C-851.57,472.12 -850.68,469.12 -849.71,469.12C-849.08,469.12 -848.91,469.79 -848.91,471.31L-848.91,492L-845.95,492L-845.95,475.96C-845.95,472.12 -845.07,469.12 -844.09,469.12C-843.46,469.12 -843.29,469.79 -843.29,471.31L-843.29,492L-840.34,492L-840.34,469.67C-840.34,467.56 -841.39,466.25 -842.83,466.25C-844.35,466.25 -845.66,467.30 -846.54,473.72ZM-831.34,492L-828.39,492L-828.39,466.67L-831.34,466.67L-831.34,482.71C-831.34,486.64 -832.23,489.55 -833.41,489.55C-834.21,489.55 -834.42,488.88 -834.42,487.36L-834.42,466.67L-837.38,466.67L-837.38,489.00C-837.38,491.11 -836.24,492.42 -834.68,492.42C-833.07,492.42 -831.64,491.37 -830.75,485.03L-830.33,485.12L-831.34,491.54ZM-819.65,469.37C-818.89,469.37 -818.51,469.71 -818.51,470.47C-818.51,471.23 -819.39,473.04 -821.80,478.11L-818.59,478.11C-817.87,474.35 -817.75,471.52 -817.75,470.43C-817.75,467.64 -818.38,466.25 -819.65,466.25C-821.08,466.25 -822.14,467.30 -823.02,473.64L-823.45,473.55L-822.52,467.13L-822.52,466.67L-825.43,466.67L-825.43,492L-822.48,492L-822.48,475.87C-822.48,471.61 -821.00,469.37 -819.65,469.37ZM-807.83,471.23C-807.83,467.56 -809.05,466.25 -811.37,466.25C-813.90,466.25 -815.85,467.81 -815.85,471.99L-815.85,487.48C-815.85,491.11 -814.54,492.42 -811.96,492.42C-809.13,492.42 -807.78,489.38 -807.87,485.37L-807.99,480.31L-808.59,480.31L-808.71,485.25C-808.80,487.95 -809.35,489.55 -810.61,489.55C-811.79,489.55 -812.89,489.09 -812.89,486.05L-812.89,477.98L-807.83,477.98ZM-810.36,472.62L-810.36,477.39L-812.89,477.39L-812.89,471.57C-812.89,470.05 -812.68,469.12 -811.67,469.12C-810.82,469.12 -810.36,469.54 -810.36,472.62ZM-805.50,478.74L-798.41,478.74L-798.41,477.35L-805.50,477.35ZM-796.30,492L-793.13,492L-793.13,480.85C-791.82,480.26 -791.11,480.81 -790.94,481.87L-789.33,492L-786.12,492L-788.49,479.80L-791.06,480.14L-791.11,479.63C-788.66,478.49 -786.76,476.97 -786.76,473.64L-786.76,466.50C-786.76,462.66 -788.87,461.18 -792.50,461.18L-796.30,461.18ZM-792.33,479.38L-793.13,479.71L-793.13,464.05L-792.79,464.05C-790.68,464.05 -789.92,464.81 -789.92,467.56L-789.92,476.17C-789.92,477.65 -790.43,478.57 -792.33,479.38ZM-775.99,471.23C-775.99,467.56 -777.21,466.25 -779.54,466.25C-782.07,466.25 -784.01,467.81 -784.01,471.99L-784.01,487.48C-784.01,491.11 -782.70,492.42 -780.13,492.42C-777.30,492.42 -775.95,489.38 -776.03,485.37L-776.16,480.31L-776.75,480.31L-776.88,485.25C-776.96,487.95 -777.51,489.55 -778.78,489.55C-779.96,489.55 -781.06,489.09 -781.06,486.05L-781.06,477.98L-775.99,477.98ZM-778.52,472.62L-778.52,477.39L-781.06,477.39L-781.06,471.57C-781.06,470.05 -780.84,469.12 -779.83,469.12C-778.99,469.12 -778.52,469.54 -778.52,472.62ZM-764.63,472.45C-764.63,469.75 -766.24,468.19 -768.56,467.89L-768.56,467.39C-766.57,467.43 -765.10,468.02 -762.65,471.52L-762.65,466.67L-768.73,466.67C-771.22,466.67 -773.33,468.23 -773.33,472.37L-773.33,482.12C-773.33,484.27 -772.78,485.63 -771.77,486.39C-772.48,487.27 -773.71,488.33 -773.71,489.76C-773.71,490.86 -773.03,491.41 -772.06,491.66L-772.06,491.92C-773.20,492.42 -774.13,493.39 -774.13,494.91C-774.13,496.18 -773.12,497.49 -770.58,497.49C-767.08,497.49 -763.03,493.98 -763.03,491.75C-763.03,490.02 -764.25,489.13 -766.87,489.13L-771.34,489.13C-772.15,489.13 -772.40,488.92 -772.40,488.54C-772.40,488.12 -771.81,487.40 -771.09,486.72C-770.58,486.98 -769.95,487.06 -769.23,487.06C-766.74,487.06 -764.63,485.54 -764.63,481.57ZM-769.23,469.54C-768.39,469.54 -767.59,470.00 -767.59,473.04L-767.59,482.12C-767.59,483.60 -767.80,484.53 -768.73,484.53C-769.61,484.53 -770.37,484.06 -770.37,481.02L-770.37,471.95C-770.37,470.47 -770.16,469.54 -769.23,469.54ZM-771.77,493.22C-771.77,492.76 -771.56,492.34 -770.88,492L-766.87,492C-765.43,492 -765.10,492.59 -765.10,493.60C-765.10,494.45 -765.90,494.79 -767.84,494.79C-771.13,494.79 -771.77,494.07 -771.77,493.22ZM-755.13,492L-752.18,492L-752.18,466.67L-755.13,466.67L-755.13,482.71C-755.13,486.64 -756.02,489.55 -757.20,489.55C-758.00,489.55 -758.21,488.88 -758.21,487.36L-758.21,466.67L-761.17,466.67L-761.17,489.00C-761.17,491.11 -760.03,492.42 -758.47,492.42C-756.86,492.42 -755.43,491.37 -754.54,485.03L-754.12,485.12L-755.13,491.54ZM-746.26,461.18L-749.22,461.18L-749.22,492L-746.26,492ZM-739.00,466.25C-741.66,466.25 -743.73,469.33 -743.73,471.99C-743.73,473.93 -743.48,476.34 -742.63,478.36L-738.58,478.36C-742.04,474.86 -742.76,473.30 -742.76,471.52C-742.76,470.05 -742.21,469.12 -740.02,469.12C-738.62,469.12 -738.29,469.46 -738.29,470.81L-738.29,478.62C-741.62,481.74 -743.39,483.09 -743.39,486.51L-743.39,489.42C-743.39,491.45 -742.55,492.42 -740.94,492.42C-739.34,492.42 -738.29,491.41 -737.65,485.12L-737.23,485.20C-737.74,491.20 -736.98,492.42 -735.25,492.42C-733.26,492.42 -732.84,490.40 -732.88,487.74L-733.01,480.52L-733.60,480.52L-733.73,487.90C-733.77,489.30 -734.06,489.55 -734.44,489.55C-734.91,489.55 -735.33,489.30 -735.33,487.02L-735.33,469.71C-735.33,467.56 -736.55,466.25 -739.00,466.25ZM-739.72,489.34C-740.14,489.34 -740.44,489.09 -740.44,488.33L-740.44,484.11C-740.44,482.33 -740.14,481.32 -738.29,479.50L-738.29,482.88C-738.29,486.76 -738.79,489.34 -739.72,489.34ZM-724.99,469.37C-724.23,469.37 -723.85,469.71 -723.85,470.47C-723.85,471.23 -724.73,473.04 -727.14,478.11L-723.93,478.11C-723.21,474.35 -723.09,471.52 -723.09,470.43C-723.09,467.64 -723.72,466.25 -724.99,466.25C-726.42,466.25 -727.48,467.30 -728.36,473.64L-728.78,473.55L-727.86,467.13L-727.86,466.67L-730.77,466.67L-730.77,492L-727.81,492L-727.81,475.87C-727.81,471.61 -726.34,469.37 -724.99,469.37Z"/>
</svg>