<?xml version="1.0"?>
<svg xmlns="http://www.w3.org/2000/svg" width="1920" height="1080" viewBox="-960 -540 1920 1080">
    <path d="M-756.84,-147L-756.84,-285.75L-736.03,-285.75L-736.03,-230.25L-673.59,-230.25L-673.59,-285.75L-652.78,-285.75L-652.78,-147L-673.59,-147L-673.59,-209.44L-736.03,-209.44L-736.03,-147ZM-630.88,-174.75L-630.88,-223.31L-623.94,-223.31L-623.94,-237.19L-617.00,-237.19L-617.00,-244.13L-603.13,-244.13L-603.13,-251.06L-575.38,-251.06L-575.38,-244.13L-561.50,-244.13L-561.50,-237.19L-554.57,-237.19L-554.57,-223.31L-547.63,-223.31L-547.63,-195.56L-610.07,-195.56L-610.07,-174.75L-603.13,-174.75L-603.13,-167.81L-575.38,-167.81L-575.38,-174.75L-568.44,-174.75L-568.44,-181.69L-547.63,-181.69L-547.63,-167.81L-554.57,-167.81L-554.57,-160.88L-561.50,-160.88L-561.50,-153.94L-575.38,-153.94L-575.38,-147L-603.13,-147L-603.13,-153.94L-617.00,-153.94L-617.00,-160.88L-623.94,-160.88L-623.94,-174.75ZM-610.07,-209.44L-568.44,-209.44L-568.44,-223.31L-575.38,-223.31L-575.38,-230.25L-603.13,-230.25L-603.13,-223.31L-610.07,-223.31ZM-526.17,-147L-526.17,-285.75L-505.35,-285.75L-505.35,-147ZM-480.21,-147L-480.21,-285.75L-459.39,-285.75L-459.39,-147ZM-437.50,-174.75L-437.50,-223.31L-430.56,-223.31L-430.56,-237.19L-423.62,-237.19L-423.62,-244.13L-409.75,-244.13L-409.75,-251.06L-382.00,-251.06L-382.00,-244.13L-368.12,-244.13L-368.12,-237.19L-361.18,-237.19L-361.18,-223.31L-354.25,-223.31L-354.25,-174.75L-361.18,-174.75L-361.18,-160.88L-368.12,-160.88L-368.12,-153.94L-382.00,-153.94L-382.00,-147L-409.75,-147L-409.75,-153.94L-423.62,-153.94L-423.62,-160.88L-430.56,-160.88L-430.56,-174.75ZM-416.68,-174.75L-409.75,-174.75L-409.75,-167.81L-382.00,-167.81L-382.00,-174.75L-375.06,-174.75L-375.06,-223.31L-382.00,-223.31L-382.00,-230.25L-409.75,-230.25L-409.75,-223.31L-416.68,-223.31ZM-339.50,-147L-339.50,-167.81L-318.69,-167.81L-318.69,-133.13L-325.63,-133.13L-325.63,-126.19L-339.50,-126.19L-339.50,-133.13L-332.57,-133.13L-332.57,-140.06L-325.63,-140.06L-325.63,-147ZM-231.11,-147L-231.11,-285.75L-210.29,-285.75L-210.29,-147ZM-190.56,-251.06L-190.56,-285.75L-176.69,-285.75L-176.69,-251.06ZM-152.41,-147L-152.41,-251.06L-131.60,-251.06L-131.60,-237.19L-124.66,-237.19L-124.66,-244.13L-117.72,-244.13L-117.72,-251.06L-96.91,-251.06L-96.91,-244.13L-89.97,-244.13L-89.97,-237.19L-76.10,-237.19L-76.10,-244.13L-69.16,-244.13L-69.16,-251.06L-41.41,-251.06L-41.41,-244.13L-34.47,-244.13L-34.47,-237.19L-27.53,-237.19L-27.53,-223.31L-20.60,-223.31L-20.60,-147L-41.41,-147L-41.41,-223.31L-48.35,-223.31L-48.35,-230.25L-69.16,-230.25L-69.16,-223.31L-76.10,-223.31L-76.10,-147L-96.91,-147L-96.91,-223.31L-103.85,-223.31L-103.85,-230.25L-117.72,-230.25L-117.72,-223.31L-124.66,-223.31L-124.66,-216.38L-131.60,-216.38L-131.60,-147ZM65.04,-147L65.04,-285.75L85.85,-285.75L85.85,-223.31L92.79,-223.31L92.79,-230.25L99.73,-230.25L99.73,-237.19L106.66,-237.19L106.66,-244.13L113.60,-244.13L113.60,-251.06L120.54,-251.06L120.54,-258L127.48,-258L127.48,-264.94L134.41,-264.94L134.41,-271.88L141.35,-271.88L141.35,-278.81L148.29,-278.81L148.29,-285.75L176.04,-285.75L176.04,-278.81L169.10,-278.81L169.10,-271.88L162.16,-271.88L162.16,-264.94L155.23,-264.94L155.23,-258L148.29,-258L148.29,-251.06L141.35,-251.06L141.35,-244.13L134.41,-244.13L134.41,-237.19L127.48,-237.19L127.48,-230.25L120.54,-230.25L120.54,-216.38L127.48,-216.38L127.48,-209.44L134.41,-209.44L134.41,-202.50L141.35,-202.50L141.35,-195.56L148.29,-195.56L148.29,-188.63L155.23,-188.63L155.23,-181.69L162.16,-181.69L162.16,-174.75L169.10,-174.75L169.10,-167.81L176.04,-167.81L176.04,-160.88L182.98,-160.88L182.98,-153.94L189.91,-153.94L189.91,-147L162.16,-147L162.16,-153.94L155.23,-153.94L155.23,-160.88L148.29,-160.88L148.29,-167.81L141.35,-167.81L141.35,-174.75L134.41,-174.75L134.41,-181.69L127.48,-181.69L127.48,-188.63L120.54,-188.63L120.54,-195.56L113.60,-195.56L113.60,-202.50L106.66,-202.50L106.66,-209.44L99.73,-209.44L99.73,-202.50L92.79,-202.50L92.79,-195.56L85.85,-195.56L85.85,-147ZM211.81,-147L211.81,-251.06L232.62,-251.06L232.62,-237.19L239.56,-237.19L239.56,-244.13L246.50,-244.13L246.50,-251.06L274.25,-251.06L274.25,-244.13L281.19,-244.13L281.19,-237.19L288.12,-237.19L288.12,-223.31L281.19,-223.31L281.19,-216.38L274.25,-216.38L274.25,-223.31L267.31,-223.31L267.31,-230.25L246.50,-230.25L246.50,-223.31L239.56,-223.31L239.56,-216.38L232.62,-216.38L232.62,-147ZM306.77,-147L306.77,-251.06L327.58,-251.06L327.58,-147ZM306.77,-264.94L306.77,-285.75L327.58,-285.75L327.58,-264.94ZM350.78,-160.88L350.78,-174.75L357.71,-174.75L357.71,-181.69L364.65,-181.69L364.65,-174.75L371.59,-174.75L371.59,-167.81L378.53,-167.81L378.53,-160.88L392.40,-160.88L392.40,-167.81L399.34,-167.81L399.34,-181.69L392.40,-181.69L392.40,-188.63L385.46,-188.63L385.46,-195.56L371.59,-195.56L371.59,-202.50L364.65,-202.50L364.65,-209.44L357.71,-209.44L357.71,-216.38L350.78,-216.38L350.78,-237.19L357.71,-237.19L357.71,-244.13L364.65,-244.13L364.65,-251.06L406.28,-251.06L406.28,-244.13L413.21,-244.13L413.21,-223.31L399.34,-223.31L399.34,-230.25L392.40,-230.25L392.40,-237.19L378.53,-237.19L378.53,-230.25L371.59,-230.25L371.59,-223.31L378.53,-223.31L378.53,-216.38L385.46,-216.38L385.46,-209.44L399.34,-209.44L399.34,-202.50L406.28,-202.50L406.28,-195.56L413.21,-195.56L413.21,-188.63L420.15,-188.63L420.15,-160.88L413.21,-160.88L413.21,-153.94L406.28,-153.94L406.28,-147L364.65,-147L364.65,-153.94L357.71,-153.94L357.71,-160.88ZM438.15,-230.25L438.15,-251.06L452.02,-251.06L452.02,-278.81L472.83,-278.81L472.83,-251.06L500.58,-251.06L500.58,-230.25L472.83,-230.25L472.83,-147L452.02,-147L452.02,-230.25ZM520.10,-147L520.10,-251.06L540.91,-251.06L540.91,-147ZM520.10,-264.94L520.10,-285.75L540.91,-285.75L540.91,-264.94ZM562.80,-174.75L562.80,-223.31L569.74,-223.31L569.74,-237.19L576.68,-237.19L576.68,-244.13L590.55,-244.13L590.55,-251.06L618.30,-251.06L618.30,-244.13L625.24,-244.13L625.24,-237.19L632.18,-237.19L632.18,-251.06L652.99,-251.06L652.99,-147L632.18,-147L632.18,-160.88L625.24,-160.88L625.24,-153.94L618.30,-153.94L618.30,-147L590.55,-147L590.55,-153.94L576.68,-153.94L576.68,-160.88L569.74,-160.88L569.74,-174.75ZM583.62,-174.75L590.55,-174.75L590.55,-167.81L618.30,-167.81L618.30,-174.75L625.24,-174.75L625.24,-181.69L632.18,-181.69L632.18,-216.38L625.24,-216.38L625.24,-223.31L618.30,-223.31L618.30,-230.25L590.55,-230.25L590.55,-223.31L583.62,-223.31ZM675.54,-147L675.54,-251.06L696.35,-251.06L696.35,-237.19L703.29,-237.19L703.29,-244.13L710.23,-244.13L710.23,-251.06L731.04,-251.06L731.04,-244.13L744.91,-244.13L744.91,-237.19L751.85,-237.19L751.85,-223.31L758.79,-223.31L758.79,-147L737.98,-147L737.98,-223.31L731.04,-223.31L731.04,-230.25L710.23,-230.25L710.23,-223.31L703.29,-223.31L703.29,-216.38L696.35,-216.38L696.35,-147Z" fill="#ffffff" stroke="#000000"/>
    <path d="M-749.68,-169.23L-744.82,-306.51L-724.23,-305.78L-726.17,-250.87L-664.40,-248.68L-662.45,-303.59L-641.86,-302.86L-646.73,-165.58L-667.32,-166.31L-665.13,-228.08L-726.90,-230.27L-729.09,-168.50ZM-624.09,-192.27L-622.39,-240.31L-615.52,-240.07L-615.04,-253.80L-608.17,-253.55L-607.93,-260.42L-594.20,-259.93L-593.96,-266.80L-566.50,-265.82L-566.75,-258.96L-553.02,-258.47L-553.26,-251.61L-546.40,-251.36L-546.88,-237.64L-540.02,-237.39L-540.99,-209.94L-602.77,-212.13L-603.50,-191.54L-596.63,-191.29L-596.88,-184.43L-569.42,-183.46L-569.18,-190.32L-562.31,-190.08L-562.07,-196.94L-541.48,-196.21L-541.97,-182.48L-548.83,-182.73L-549.07,-175.86L-555.94,-176.11L-556.18,-169.24L-569.91,-169.73L-570.15,-162.86L-597.61,-163.84L-597.36,-170.70L-611.09,-171.19L-610.85,-178.05L-617.71,-178.30L-617.23,-192.02ZM-602.28,-225.86L-561.10,-224.40L-560.61,-238.12L-567.48,-238.37L-567.23,-245.23L-594.69,-246.20L-594.93,-239.34L-601.79,-239.58ZM-521.46,-161.14L-516.59,-298.41L-496.00,-297.68L-500.87,-160.41ZM-475.99,-159.53L-471.12,-296.80L-450.53,-296.07L-455.40,-158.80ZM-432.76,-185.48L-431.06,-233.53L-424.19,-233.29L-423.71,-247.01L-416.84,-246.77L-416.60,-253.63L-402.87,-253.15L-402.63,-260.01L-375.17,-259.04L-375.42,-252.17L-361.69,-251.69L-361.93,-244.82L-355.07,-244.58L-355.56,-230.85L-348.69,-230.61L-350.39,-182.56L-357.26,-182.81L-357.75,-169.08L-364.61,-169.32L-364.85,-162.46L-378.58,-162.94L-378.82,-156.08L-406.28,-157.05L-406.04,-163.92L-419.76,-164.41L-419.52,-171.27L-426.38,-171.51L-425.90,-185.24ZM-412.17,-184.75L-405.31,-184.51L-405.55,-177.65L-378.09,-176.67L-377.85,-183.54L-370.99,-183.29L-369.28,-231.34L-376.15,-231.58L-375.90,-238.45L-403.36,-239.42L-403.60,-232.56L-410.47,-232.80ZM-336.78,-154.59L-336.05,-175.18L-315.46,-174.45L-316.68,-140.13L-323.54,-140.38L-323.79,-133.51L-337.51,-134.00L-337.27,-140.86L-330.41,-140.62L-330.16,-147.48L-323.30,-147.24L-323.06,-154.10ZM-229.54,-150.79L-224.67,-288.06L-204.08,-287.33L-208.94,-150.06ZM-185.77,-252.32L-184.56,-286.64L-170.83,-286.16L-172.05,-251.84ZM-151.67,-148.03L-148.02,-250.98L-127.43,-250.25L-127.92,-236.53L-121.06,-236.28L-120.81,-243.15L-113.95,-242.90L-113.70,-249.77L-93.11,-249.04L-93.36,-242.17L-86.49,-241.93L-86.74,-235.07L-73.01,-234.58L-72.77,-241.44L-65.90,-241.20L-65.66,-248.06L-38.20,-247.09L-38.45,-240.23L-31.58,-239.98L-31.83,-233.12L-24.96,-232.88L-25.45,-219.15L-18.58,-218.91L-21.26,-143.40L-41.85,-144.13L-39.18,-219.64L-46.04,-219.88L-45.80,-226.74L-66.39,-227.47L-66.63,-220.61L-73.50,-220.85L-76.17,-145.35L-96.76,-146.08L-94.09,-221.58L-100.95,-221.83L-100.71,-228.69L-114.43,-229.18L-114.68,-222.31L-121.54,-222.56L-121.79,-215.69L-128.65,-215.94L-131.08,-147.30ZM63.46,-140.40L68.33,-277.68L88.92,-276.95L86.73,-215.17L93.60,-214.93L93.84,-221.79L100.70,-221.55L100.95,-228.41L107.81,-228.17L108.05,-235.03L114.92,-234.79L115.16,-241.65L122.02,-241.41L122.27,-248.27L129.13,-248.03L129.37,-254.89L136.24,-254.65L136.48,-261.51L143.35,-261.27L143.59,-268.13L150.45,-267.89L150.70,-274.76L178.15,-273.78L177.91,-266.92L171.04,-267.16L170.80,-260.30L163.94,-260.54L163.69,-253.68L156.83,-253.92L156.59,-247.06L149.72,-247.30L149.48,-240.44L142.62,-240.68L142.37,-233.82L135.51,-234.06L135.27,-227.20L128.40,-227.44L128.16,-220.57L121.29,-220.82L120.81,-207.09L127.67,-206.85L127.43,-199.98L134.29,-199.74L134.05,-192.88L140.91,-192.63L140.67,-185.77L147.53,-185.53L147.29,-178.66L154.15,-178.42L153.91,-171.55L160.77,-171.31L160.53,-164.45L167.39,-164.20L167.15,-157.34L174.01,-157.10L173.77,-150.23L180.63,-149.99L180.39,-143.13L187.26,-142.88L187.01,-136.02L159.56,-136.99L159.80,-143.86L152.94,-144.10L153.18,-150.96L146.32,-151.21L146.56,-158.07L139.70,-158.31L139.94,-165.18L133.07,-165.42L133.32,-172.28L126.45,-172.53L126.70,-179.39L119.83,-179.64L120.08,-186.50L113.21,-186.74L113.46,-193.61L106.59,-193.85L106.84,-200.71L99.97,-200.96L99.73,-194.09L92.87,-194.34L92.62,-187.47L85.76,-187.72L84.05,-139.67ZM208.68,-135.25L212.33,-238.21L232.92,-237.48L232.43,-223.75L239.29,-223.51L239.54,-230.37L246.40,-230.13L246.65,-236.99L274.10,-236.02L273.86,-229.15L280.72,-228.91L280.48,-222.05L287.34,-221.80L286.85,-208.08L279.99,-208.32L279.75,-201.46L272.88,-201.70L273.13,-208.56L266.26,-208.81L266.51,-215.67L245.92,-216.40L245.67,-209.54L238.81,-209.78L238.56,-202.92L231.70,-203.16L229.27,-134.52ZM302.62,-131.92L306.27,-234.88L326.87,-234.15L323.22,-131.19ZM306.76,-248.60L307.49,-269.20L328.08,-268.47L327.35,-247.87ZM346.65,-144.10L347.14,-157.83L354.00,-157.59L354.25,-164.45L361.11,-164.21L360.87,-157.34L367.73,-157.10L367.49,-150.24L374.35,-149.99L374.11,-143.13L387.84,-142.64L388.08,-149.51L394.94,-149.26L395.43,-162.99L388.57,-163.23L388.81,-170.10L381.95,-170.34L382.19,-177.21L368.46,-177.69L368.70,-184.56L361.84,-184.80L362.08,-191.66L355.22,-191.91L355.46,-198.77L348.60,-199.01L349.33,-219.61L356.19,-219.36L356.44,-226.23L363.30,-225.98L363.54,-232.85L404.73,-231.39L404.48,-224.52L411.35,-224.28L410.62,-203.69L396.89,-204.17L397.13,-211.04L390.27,-211.28L390.51,-218.15L376.79,-218.63L376.54,-211.77L369.68,-212.01L369.44,-205.15L376.30,-204.90L376.06,-198.04L382.92,-197.80L382.68,-190.93L396.40,-190.45L396.16,-183.58L403.02,-183.34L402.78,-176.48L409.64,-176.23L409.40,-169.37L416.26,-169.13L415.29,-141.67L408.43,-141.91L408.18,-135.05L401.32,-135.29L401.08,-128.43L359.89,-129.89L360.14,-136.75L353.27,-137.00L353.52,-143.86ZM435.53,-209.68L436.26,-230.27L449.99,-229.78L450.96,-257.24L471.55,-256.51L470.58,-229.05L498.03,-228.08L497.30,-207.49L469.85,-208.46L466.93,-126.09L446.34,-126.82L449.26,-209.19ZM513.69,-124.44L517.34,-227.39L537.93,-226.66L534.28,-123.71ZM517.82,-241.12L518.55,-261.71L539.15,-260.98L538.42,-240.39ZM556.92,-150.39L558.62,-198.44L565.48,-198.20L565.97,-211.92L572.83,-211.68L573.08,-218.54L586.80,-218.06L587.05,-224.92L614.50,-223.95L614.26,-217.08L621.12,-216.84L620.88,-209.98L627.74,-209.73L628.23,-223.46L648.82,-222.73L645.17,-119.77L624.58,-120.50L625.07,-134.23L618.20,-134.48L617.96,-127.61L611.10,-127.86L610.85,-120.99L583.40,-121.96L583.64,-128.83L569.91,-129.32L570.16,-136.18L563.29,-136.42L563.78,-150.15ZM577.51,-149.66L584.37,-149.42L584.13,-142.56L611.58,-141.58L611.83,-148.45L618.69,-148.20L618.93,-155.07L625.80,-154.82L627.01,-189.14L620.15,-189.39L620.39,-196.25L613.53,-196.49L613.77,-203.36L586.32,-204.33L586.07,-197.47L579.21,-197.71ZM667.48,-118.98L671.13,-221.94L691.72,-221.21L691.23,-207.48L698.10,-207.24L698.34,-214.10L705.20,-213.86L705.45,-220.72L726.04,-219.99L725.80,-213.13L739.52,-212.64L739.28,-205.78L746.14,-205.54L745.66,-191.81L752.52,-191.57L749.84,-116.06L729.25,-116.79L731.93,-192.30L725.07,-192.54L725.31,-199.40L704.72,-200.13L704.47,-193.27L697.61,-193.51L697.37,-186.65L690.50,-186.89L688.07,-118.25Z" fill="#ffffff" stroke="#000000"/>
    <path d="M-741.78,-191.20L-732.15,-326.83L-711.81,-325.38L-715.66,-271.13L-654.62,-266.80L-650.77,-321.05L-630.43,-319.61L-640.06,-183.97L-660.40,-185.42L-656.07,-246.45L-717.10,-250.79L-721.44,-189.75ZM-616.73,-209.58L-613.36,-257.05L-606.57,-256.57L-605.61,-270.13L-598.83,-269.65L-598.35,-276.43L-584.79,-275.47L-584.30,-282.25L-557.18,-280.33L-557.66,-273.54L-544.10,-272.58L-544.58,-265.80L-537.79,-265.32L-538.76,-251.75L-531.98,-251.27L-533.90,-224.15L-594.94,-228.48L-596.38,-208.14L-589.60,-207.65L-590.08,-200.87L-562.96,-198.95L-562.47,-205.73L-555.69,-205.25L-555.21,-212.03L-534.87,-210.58L-535.83,-197.02L-542.61,-197.50L-543.09,-190.72L-549.87,-191.20L-550.35,-184.42L-563.92,-185.38L-564.40,-178.60L-591.53,-180.53L-591.04,-187.31L-604.61,-188.27L-604.13,-195.05L-610.91,-195.53L-609.95,-209.10ZM-593.97,-242.04L-553.28,-239.15L-552.32,-252.72L-559.10,-253.20L-558.62,-259.98L-585.75,-261.91L-586.23,-255.13L-593.01,-255.61ZM-516.29,-175.19L-506.66,-310.82L-486.32,-309.37L-495.95,-173.74ZM-471.36,-172.00L-461.73,-307.63L-441.39,-306.18L-451.02,-170.55ZM-427.69,-196.16L-424.32,-243.63L-417.54,-243.15L-416.57,-256.71L-409.79,-256.23L-409.31,-263.01L-395.75,-262.05L-395.26,-268.83L-368.14,-266.90L-368.62,-260.12L-355.06,-259.16L-355.54,-252.38L-348.76,-251.90L-349.72,-238.33L-342.94,-237.85L-346.31,-190.38L-353.09,-190.86L-354.05,-177.30L-360.83,-177.78L-361.32,-171.00L-374.88,-171.96L-375.36,-165.18L-402.49,-167.10L-402.01,-173.89L-415.57,-174.85L-415.09,-181.63L-421.87,-182.11L-420.91,-195.68ZM-407.34,-194.71L-400.56,-194.23L-401.04,-187.45L-373.92,-185.52L-373.43,-192.31L-366.65,-191.82L-363.28,-239.30L-370.06,-239.78L-369.58,-246.56L-396.71,-248.48L-397.19,-241.70L-403.97,-242.18ZM-333.82,-162.23L-332.38,-182.57L-312.03,-181.13L-314.44,-147.22L-321.22,-147.70L-321.70,-140.92L-335.27,-141.88L-334.79,-148.67L-328.00,-148.18L-327.52,-154.97L-320.74,-154.48L-320.26,-161.27ZM-227.86,-154.71L-218.23,-290.34L-197.88,-288.90L-207.51,-153.26ZM-181.01,-253.62L-178.60,-287.53L-165.03,-286.56L-167.44,-252.65ZM-150.93,-149.24L-143.71,-250.97L-123.36,-249.52L-124.32,-235.96L-117.54,-235.48L-117.06,-242.26L-110.28,-241.78L-109.80,-248.56L-89.45,-247.12L-89.93,-240.34L-83.15,-239.85L-83.63,-233.07L-70.07,-232.11L-69.59,-238.89L-62.81,-238.41L-62.33,-245.19L-35.20,-243.27L-35.68,-236.48L-28.90,-236.00L-29.38,-229.22L-22.60,-228.74L-23.56,-215.18L-16.78,-214.69L-22.08,-140.10L-42.42,-141.54L-37.13,-216.14L-43.91,-216.62L-43.43,-223.40L-63.77,-224.85L-64.25,-218.06L-71.03,-218.55L-76.33,-143.95L-96.68,-145.39L-91.38,-219.99L-98.16,-220.47L-97.68,-227.25L-111.24,-228.22L-111.72,-221.43L-118.51,-221.92L-118.99,-215.13L-125.77,-215.62L-130.58,-147.80ZM61.63,-134.15L71.26,-269.79L91.61,-268.34L87.28,-207.31L94.06,-206.82L94.54,-213.61L101.32,-213.12L101.80,-219.91L108.58,-219.42L109.07,-226.21L115.85,-225.72L116.33,-232.51L123.11,-232.02L123.59,-238.81L130.37,-238.33L130.85,-245.11L137.64,-244.63L138.12,-251.41L144.90,-250.93L145.38,-257.71L152.16,-257.23L152.64,-264.01L179.77,-262.08L179.29,-255.30L172.51,-255.78L172.03,-249.00L165.24,-249.48L164.76,-242.70L157.98,-243.18L157.50,-236.40L150.72,-236.88L150.24,-230.10L143.46,-230.58L142.97,-223.80L136.19,-224.28L135.71,-217.50L128.93,-217.98L128.45,-211.20L121.67,-211.68L120.70,-198.12L127.48,-197.63L127.00,-190.85L133.78,-190.37L133.30,-183.59L140.08,-183.11L139.60,-176.33L146.38,-175.85L145.90,-169.06L152.68,-168.58L152.20,-161.80L158.99,-161.32L158.50,-154.54L165.29,-154.06L164.80,-147.27L171.59,-146.79L171.10,-140.01L177.89,-139.53L177.40,-132.75L184.19,-132.27L183.70,-125.48L156.58,-127.41L157.06,-134.19L150.28,-134.67L150.76,-141.46L143.98,-141.94L144.46,-148.72L137.68,-149.20L138.16,-155.98L131.38,-156.46L131.86,-163.25L125.08,-163.73L125.56,-170.51L118.78,-170.99L119.26,-177.77L112.48,-178.25L112.96,-185.03L106.18,-185.52L106.66,-192.30L99.88,-192.78L99.39,-186.00L92.61,-186.48L92.13,-179.70L85.35,-180.18L81.98,-132.71ZM205.11,-123.96L212.33,-225.69L232.68,-224.25L231.71,-210.68L238.50,-210.20L238.98,-216.98L245.76,-216.50L246.24,-223.28L273.37,-221.36L272.89,-214.57L279.67,-214.09L279.19,-207.31L285.97,-206.83L285.00,-193.27L278.22,-193.75L277.74,-186.97L270.96,-187.45L271.44,-194.23L264.66,-194.71L265.14,-201.49L244.80,-202.94L244.31,-196.16L237.53,-196.64L237.05,-189.86L230.27,-190.34L225.45,-122.52ZM297.93,-117.37L305.16,-219.10L325.50,-217.65L318.28,-115.93ZM306.12,-232.66L307.56,-253.01L327.91,-251.56L326.46,-231.22ZM341.92,-127.88L342.88,-141.45L349.66,-140.96L350.14,-147.75L356.93,-147.27L356.44,-140.48L363.23,-140.00L362.74,-133.22L369.53,-132.74L369.04,-125.96L382.61,-124.99L383.09,-131.78L389.87,-131.29L390.83,-144.86L384.05,-145.34L384.53,-152.12L377.75,-152.60L378.23,-159.38L364.67,-160.35L365.15,-167.13L358.37,-167.61L358.85,-174.39L352.07,-174.87L352.55,-181.66L345.77,-182.14L347.21,-202.48L354.00,-202.00L354.48,-208.78L361.26,-208.30L361.74,-215.08L402.43,-212.19L401.95,-205.41L408.73,-204.93L407.29,-184.58L393.72,-185.55L394.20,-192.33L387.42,-192.81L387.90,-199.59L374.34,-200.56L373.86,-193.77L367.08,-194.26L366.60,-187.47L373.38,-186.99L372.90,-180.21L379.68,-179.73L379.20,-172.95L392.76,-171.98L392.28,-165.20L399.06,-164.72L398.58,-157.94L405.36,-157.46L404.88,-150.68L411.66,-150.19L409.73,-123.07L402.95,-123.55L402.47,-116.77L395.69,-117.25L395.21,-110.47L354.52,-113.36L355.00,-120.14L348.22,-120.62L348.70,-127.40ZM432.14,-189.64L433.58,-209.98L447.15,-209.02L449.07,-236.14L469.42,-234.70L467.49,-207.57L494.62,-205.65L493.17,-185.30L466.05,-187.23L460.27,-105.85L439.92,-107.29L445.70,-188.67ZM506.47,-102.57L513.69,-204.29L534.04,-202.85L526.81,-101.12ZM514.66,-217.86L516.10,-238.20L536.44,-236.76L535.00,-216.41ZM550.15,-126.73L553.52,-174.20L560.30,-173.72L561.26,-187.28L568.04,-186.80L568.52,-193.58L582.09,-192.62L582.57,-199.40L609.70,-197.48L609.21,-190.70L616.00,-190.21L615.51,-183.43L622.30,-182.95L623.26,-196.51L643.60,-195.07L636.38,-93.34L616.04,-94.79L617.00,-108.35L610.22,-108.83L609.74,-102.05L602.95,-102.53L602.47,-95.75L575.35,-97.68L575.83,-104.46L562.26,-105.42L562.75,-112.20L555.96,-112.69L556.93,-126.25ZM570.49,-125.29L577.27,-124.80L576.79,-118.02L603.92,-116.10L604.40,-122.88L611.18,-122.40L611.66,-129.18L618.44,-128.70L620.85,-162.61L614.07,-163.09L614.55,-169.87L607.77,-170.35L608.25,-177.13L581.12,-179.06L580.64,-172.28L573.86,-172.76ZM658.42,-91.78L665.64,-193.50L685.99,-192.06L685.03,-178.50L691.81,-178.02L692.29,-184.80L699.07,-184.32L699.55,-191.10L719.90,-189.65L719.42,-182.87L732.98,-181.91L732.50,-175.13L739.28,-174.64L738.32,-161.08L745.10,-160.60L739.80,-86.00L719.46,-87.45L724.75,-162.04L717.97,-162.53L718.45,-169.31L698.11,-170.75L697.63,-163.97L690.84,-164.45L690.36,-157.67L683.58,-158.15L678.77,-90.33Z" fill="#ffffff" stroke="#000000"/>
    <path d="M-733.14,-212.87L-718.86,-346.69L-698.79,-344.55L-704.50,-291.02L-644.28,-284.59L-638.56,-338.12L-618.49,-335.98L-632.77,-202.15L-652.85,-204.30L-646.42,-264.52L-706.64,-270.95L-713.07,-210.72ZM-608.80,-226.66L-603.80,-273.50L-597.11,-272.79L-595.68,-286.17L-588.99,-285.46L-588.27,-292.15L-574.89,-290.72L-574.18,-297.41L-547.41,-294.56L-548.12,-287.87L-534.74,-286.44L-535.46,-279.75L-528.76,-279.03L-530.19,-265.65L-523.50,-264.93L-526.36,-238.17L-586.58,-244.60L-588.72,-224.52L-582.03,-223.81L-582.74,-217.12L-555.98,-214.26L-555.27,-220.95L-548.57,-220.24L-547.86,-226.93L-527.79,-224.79L-529.21,-211.40L-535.91,-212.12L-536.62,-205.43L-543.31,-206.14L-544.02,-199.45L-557.41,-200.88L-558.12,-194.19L-584.89,-197.04L-584.17,-203.73L-597.56,-205.16L-596.84,-211.85L-603.53,-212.57L-602.10,-225.95ZM-585.15,-257.98L-545.00,-253.69L-543.57,-267.08L-550.27,-267.79L-549.55,-274.48L-576.32,-277.34L-577.03,-270.65L-583.72,-271.36ZM-510.65,-189.12L-496.37,-322.95L-476.30,-320.81L-490.58,-186.98ZM-466.32,-184.39L-452.04,-318.22L-431.97,-316.07L-446.25,-182.25ZM-422.27,-206.76L-417.28,-253.60L-410.58,-252.88L-409.16,-266.27L-402.46,-265.55L-401.75,-272.24L-388.37,-270.82L-387.65,-277.51L-360.89,-274.65L-361.60,-267.96L-348.22,-266.53L-348.93,-259.84L-342.24,-259.12L-343.67,-245.74L-336.98,-245.03L-341.98,-198.19L-348.67,-198.90L-350.10,-185.52L-356.79,-186.23L-357.50,-179.54L-370.89,-180.97L-371.60,-174.28L-398.37,-177.14L-397.65,-183.83L-411.03,-185.26L-410.32,-191.95L-417.01,-192.66L-415.58,-206.04ZM-402.20,-204.62L-395.51,-203.90L-396.22,-197.21L-369.46,-194.35L-368.74,-201.04L-362.05,-200.33L-357.05,-247.17L-363.74,-247.88L-363.03,-254.58L-389.80,-257.43L-390.51,-250.74L-397.20,-251.46ZM-330.61,-169.91L-328.47,-189.98L-308.40,-187.84L-311.97,-154.38L-318.66,-155.09L-319.37,-148.40L-332.76,-149.83L-332.04,-156.52L-325.35,-155.81L-324.64,-162.50L-317.95,-161.79L-317.23,-168.48ZM-226.06,-158.75L-211.78,-292.57L-191.71,-290.43L-205.99,-156.60ZM-176.25,-254.94L-172.68,-288.40L-159.29,-286.97L-162.86,-253.52ZM-150.16,-150.65L-139.44,-251.02L-119.37,-248.87L-120.80,-235.49L-114.11,-234.78L-113.39,-241.47L-106.70,-240.75L-105.99,-247.45L-85.91,-245.30L-86.63,-238.61L-79.94,-237.90L-80.65,-231.21L-67.27,-229.78L-66.55,-236.47L-59.86,-235.76L-59.15,-242.45L-32.38,-239.59L-33.10,-232.90L-26.41,-232.18L-27.12,-225.49L-20.43,-224.78L-21.86,-211.40L-15.17,-210.68L-23.02,-137.08L-43.09,-139.22L-35.24,-212.82L-41.93,-213.54L-41.22,-220.23L-61.29,-222.37L-62.00,-215.68L-68.70,-216.40L-76.55,-142.79L-96.63,-144.93L-88.77,-218.54L-95.46,-219.25L-94.75,-225.94L-108.13,-227.37L-108.84,-220.68L-115.54,-221.39L-116.25,-214.70L-122.94,-215.42L-130.08,-148.50ZM59.58,-128.26L73.86,-262.09L93.93,-259.95L87.51,-199.72L94.20,-199.01L94.91,-205.70L101.60,-204.99L102.32,-211.68L109.01,-210.96L109.72,-217.66L116.41,-216.94L117.13,-223.63L123.82,-222.92L124.53,-229.61L131.22,-228.90L131.94,-235.59L138.63,-234.87L139.34,-241.57L146.04,-240.85L146.75,-247.54L153.44,-246.83L154.16,-253.52L180.92,-250.66L180.21,-243.97L173.52,-244.69L172.80,-237.99L166.11,-238.71L165.40,-232.02L158.70,-232.73L157.99,-226.04L151.30,-226.75L150.58,-220.06L143.89,-220.78L143.18,-214.09L136.49,-214.80L135.77,-208.11L129.08,-208.82L128.37,-202.13L121.68,-202.85L120.25,-189.46L126.94,-188.75L126.23,-182.06L132.92,-181.34L132.20,-174.65L138.89,-173.94L138.18,-167.25L144.87,-166.53L144.16,-159.84L150.85,-159.13L150.13,-152.43L156.83,-151.72L156.11,-145.03L162.80,-144.32L162.09,-137.62L168.78,-136.91L168.07,-130.22L174.76,-129.50L174.04,-122.81L180.73,-122.10L180.02,-115.41L153.26,-118.26L153.97,-124.96L147.28,-125.67L147.99,-132.36L141.30,-133.07L142.01,-139.77L135.32,-140.48L136.04,-147.17L129.35,-147.89L130.06,-154.58L123.37,-155.29L124.08,-161.98L117.39,-162.70L118.11,-169.39L111.41,-170.10L112.13,-176.79L105.44,-177.51L106.15,-184.20L99.46,-184.91L98.75,-178.22L92.05,-178.94L91.34,-172.24L84.65,-172.96L79.65,-126.12ZM201.14,-113.15L211.85,-213.52L231.93,-211.38L230.50,-198.00L237.19,-197.28L237.90,-203.98L244.60,-203.26L245.31,-209.95L272.07,-207.10L271.36,-200.41L278.05,-199.69L277.34,-193.00L284.03,-192.29L282.60,-178.90L275.91,-179.62L275.20,-172.93L268.50,-173.64L269.22,-180.33L262.53,-181.05L263.24,-187.74L243.17,-189.88L242.45,-183.19L235.76,-183.90L235.05,-177.21L228.36,-177.92L221.21,-111.01ZM292.73,-103.38L303.44,-203.75L323.51,-201.61L312.80,-101.24ZM304.87,-217.13L307.01,-237.21L327.09,-235.06L324.94,-214.99ZM336.61,-112.23L338.03,-125.61L344.72,-124.90L345.44,-131.59L352.13,-130.88L351.42,-124.19L358.11,-123.47L357.39,-116.78L364.08,-116.07L363.37,-109.37L376.75,-107.95L377.47,-114.64L384.16,-113.92L385.59,-127.31L378.90,-128.02L379.61,-134.71L372.92,-135.43L373.63,-142.12L360.25,-143.55L360.96,-150.24L354.27,-150.95L354.99,-157.64L348.30,-158.36L349.01,-165.05L342.32,-165.76L344.46,-185.84L351.15,-185.12L351.87,-191.81L358.56,-191.10L359.27,-197.79L399.42,-193.51L398.71,-186.81L405.40,-186.10L403.25,-166.03L389.87,-167.45L390.59,-174.15L383.89,-174.86L384.61,-181.55L371.23,-182.98L370.51,-176.29L363.82,-177.00L363.11,-170.31L369.80,-169.60L369.08,-162.91L375.78,-162.19L375.06,-155.50L388.44,-154.07L387.73,-147.38L394.42,-146.67L393.71,-139.97L400.40,-139.26L399.68,-132.57L406.38,-131.86L403.52,-105.09L396.83,-105.80L396.11,-99.11L389.42,-99.83L388.71,-93.14L348.56,-97.42L349.27,-104.11L342.58,-104.83L343.30,-111.52ZM428.02,-170.15L430.16,-190.23L443.54,-188.80L446.40,-215.56L466.47,-213.42L463.62,-186.65L490.38,-183.80L488.24,-163.72L461.47,-166.58L452.90,-86.28L432.83,-88.43L441.40,-168.72ZM498.49,-81.42L509.20,-181.79L529.27,-179.65L518.56,-79.28ZM510.63,-195.17L512.77,-215.25L532.85,-213.10L530.70,-193.03ZM542.54,-103.79L547.54,-150.63L554.23,-149.91L555.66,-163.30L562.35,-162.58L563.06,-169.27L576.45,-167.84L577.16,-174.54L603.93,-171.68L603.21,-164.99L609.90,-164.27L609.19,-157.58L615.88,-156.87L617.31,-170.25L637.38,-168.11L626.67,-67.74L606.60,-69.88L608.02,-83.26L601.33,-83.98L600.62,-77.29L593.93,-78.00L593.21,-71.31L566.45,-74.17L567.16,-80.86L553.78,-82.29L554.49,-88.98L547.80,-89.69L549.23,-103.07ZM562.61,-101.65L569.30,-100.93L568.59,-94.24L595.36,-91.38L596.07,-98.07L602.76,-97.36L603.48,-104.05L610.17,-103.34L613.74,-136.79L607.05,-137.51L607.76,-144.20L601.07,-144.91L601.78,-151.61L575.02,-154.46L574.30,-147.77L567.61,-148.49ZM648.42,-65.42L659.13,-165.79L679.20,-163.65L677.77,-150.26L684.47,-149.55L685.18,-156.24L691.87,-155.53L692.59,-162.22L712.66,-160.08L711.95,-153.38L725.33,-151.96L724.61,-145.26L731.31,-144.55L729.88,-131.17L736.57,-130.45L728.71,-56.85L708.64,-58.99L716.49,-132.60L709.80,-133.31L710.52,-140.00L690.44,-142.14L689.73,-135.45L683.04,-136.17L682.32,-129.47L675.63,-130.19L668.49,-63.28Z" fill="#ffffff" stroke="#000000"/>
    <path d="M-723.77,-234.21L-704.95,-366.08L-685.17,-363.25L-692.70,-310.51L-633.36,-302.04L-625.84,-354.78L-606.06,-351.96L-624.88,-220.10L-644.66,-222.92L-636.19,-282.26L-695.52,-290.73L-703.99,-231.39ZM-600.30,-243.50L-593.71,-289.65L-587.12,-288.71L-585.24,-301.90L-578.65,-300.96L-577.71,-307.55L-564.52,-305.67L-563.58,-312.26L-537.21,-308.50L-538.15,-301.90L-524.96,-300.02L-525.90,-293.43L-519.31,-292.49L-521.19,-279.30L-514.60,-278.36L-518.36,-251.99L-577.70,-260.46L-580.52,-240.68L-573.93,-239.74L-574.87,-233.14L-548.50,-229.38L-547.56,-235.97L-540.96,-235.03L-540.02,-241.62L-520.24,-238.80L-522.12,-225.61L-528.72,-226.56L-529.66,-219.96L-536.25,-220.90L-537.19,-214.31L-550.38,-216.19L-551.32,-209.60L-577.69,-213.36L-576.75,-219.96L-589.94,-221.84L-589.00,-228.43L-595.59,-229.37L-593.71,-242.56ZM-575.82,-273.64L-536.26,-268.00L-534.38,-281.18L-540.97,-282.12L-540.03,-288.72L-566.40,-292.48L-567.34,-285.89L-573.94,-286.83ZM-504.55,-202.92L-485.73,-334.79L-465.95,-331.96L-484.77,-200.10ZM-460.87,-196.69L-442.05,-328.55L-422.27,-325.73L-441.09,-193.87ZM-416.52,-217.27L-409.93,-263.42L-403.34,-262.48L-401.45,-275.67L-394.86,-274.73L-393.92,-281.32L-380.73,-279.44L-379.79,-286.03L-353.42,-282.27L-354.36,-275.67L-341.17,-273.79L-342.12,-267.20L-335.52,-266.26L-337.40,-253.07L-330.81,-252.13L-337.40,-205.98L-343.99,-206.92L-345.87,-193.73L-352.47,-194.67L-353.41,-188.08L-366.59,-189.96L-367.54,-183.37L-393.91,-187.13L-392.97,-193.73L-406.15,-195.61L-405.21,-202.20L-411.81,-203.14L-409.92,-216.33ZM-396.74,-214.45L-390.14,-213.51L-391.08,-206.91L-364.71,-203.15L-363.77,-209.74L-357.18,-208.80L-350.59,-254.95L-357.18,-255.89L-356.24,-262.49L-382.62,-266.25L-383.56,-259.66L-390.15,-260.60ZM-327.15,-177.60L-324.33,-197.38L-304.55,-194.56L-309.25,-161.60L-315.85,-162.54L-316.79,-155.94L-329.97,-157.83L-329.03,-164.42L-322.44,-163.48L-321.50,-170.07L-314.91,-169.13L-313.97,-175.72ZM-224.13,-162.90L-205.31,-294.77L-185.53,-291.94L-204.35,-160.08ZM-171.49,-256.30L-166.78,-289.27L-153.60,-287.38L-158.30,-254.42ZM-149.34,-152.23L-135.23,-251.13L-115.45,-248.30L-117.33,-235.12L-110.74,-234.18L-109.80,-240.77L-103.20,-239.83L-102.26,-246.42L-82.48,-243.60L-83.42,-237.00L-76.83,-236.06L-77.77,-229.47L-64.58,-227.59L-63.64,-234.18L-57.05,-233.24L-56.11,-239.83L-29.74,-236.07L-30.68,-229.48L-24.08,-228.54L-25.02,-221.94L-18.43,-221.00L-20.31,-207.81L-13.72,-206.87L-24.07,-134.35L-43.85,-137.17L-33.50,-209.70L-40.09,-210.64L-39.15,-217.23L-58.93,-220.05L-59.87,-213.46L-66.47,-214.40L-76.82,-141.88L-96.60,-144.70L-86.25,-217.22L-92.84,-218.17L-91.90,-224.76L-105.08,-226.64L-106.02,-220.05L-112.62,-220.99L-113.56,-214.40L-120.15,-215.34L-129.56,-149.40ZM57.31,-122.73L76.13,-254.60L95.91,-251.77L87.44,-192.44L94.04,-191.49L94.98,-198.09L101.57,-197.15L102.51,-203.74L109.11,-202.80L110.05,-209.39L116.64,-208.45L117.58,-215.04L124.17,-214.10L125.11,-220.70L131.71,-219.76L132.65,-226.35L139.24,-225.41L140.18,-232.00L146.78,-231.06L147.72,-237.65L154.31,-236.71L155.25,-243.31L181.62,-239.54L180.68,-232.95L174.09,-233.89L173.15,-227.30L166.56,-228.24L165.61,-221.64L159.02,-222.58L158.08,-215.99L151.49,-216.93L150.55,-210.34L143.95,-211.28L143.01,-204.69L136.42,-205.63L135.48,-199.03L128.89,-199.98L127.94,-193.38L121.35,-194.32L119.47,-181.14L126.06,-180.20L125.12,-173.60L131.71,-172.66L130.77,-166.07L137.37,-165.13L136.43,-158.53L143.02,-157.59L142.08,-151.00L148.67,-150.06L147.73,-143.47L154.32,-142.53L153.38,-135.93L159.98,-134.99L159.03,-128.40L165.63,-127.46L164.69,-120.86L171.28,-119.92L170.34,-113.33L176.93,-112.39L175.99,-105.80L149.62,-109.56L150.56,-116.15L143.97,-117.09L144.91,-123.69L138.31,-124.63L139.25,-131.22L132.66,-132.16L133.60,-138.76L127.01,-139.70L127.95,-146.29L121.36,-147.23L122.30,-153.82L115.70,-154.76L116.65,-161.36L110.05,-162.30L110.99,-168.89L104.40,-169.83L105.34,-176.43L98.75,-177.37L97.81,-170.77L91.21,-171.71L90.27,-165.12L83.68,-166.06L77.09,-119.91ZM196.80,-102.83L210.92,-201.72L230.70,-198.90L228.81,-185.71L235.41,-184.77L236.35,-191.37L242.94,-190.43L243.88,-197.02L270.25,-193.25L269.31,-186.66L275.91,-185.72L274.97,-179.13L281.56,-178.19L279.68,-165.00L273.08,-165.94L272.14,-159.35L265.55,-160.29L266.49,-166.88L259.90,-167.82L260.84,-174.42L241.06,-177.24L240.12,-170.65L233.52,-171.59L232.58,-164.99L225.99,-165.93L216.58,-100.00ZM287.04,-89.95L301.16,-188.84L320.94,-186.02L306.82,-87.12ZM303.04,-202.03L305.86,-221.81L325.64,-218.99L322.82,-199.21ZM330.75,-97.16L332.63,-110.35L339.23,-109.41L340.17,-116.00L346.76,-115.06L345.82,-108.47L352.41,-107.53L351.47,-100.93L358.07,-99.99L357.13,-93.40L370.31,-91.52L371.25,-98.11L377.85,-97.17L379.73,-110.36L373.13,-111.30L374.08,-117.89L367.48,-118.83L368.42,-125.42L355.24,-127.31L356.18,-133.90L349.58,-134.84L350.53,-141.43L343.93,-142.37L344.87,-148.97L338.28,-149.91L341.10,-169.69L347.70,-168.75L348.64,-175.34L355.23,-174.40L356.17,-180.99L395.73,-175.35L394.79,-168.75L401.38,-167.81L398.56,-148.03L385.37,-149.91L386.31,-156.51L379.72,-157.45L380.66,-164.04L367.48,-165.92L366.54,-159.33L359.94,-160.27L359.00,-153.68L365.59,-152.74L364.65,-146.14L371.25,-145.20L370.31,-138.61L383.49,-136.73L382.55,-130.13L389.14,-129.19L388.20,-122.60L394.80,-121.66L393.86,-115.07L400.45,-114.13L396.68,-87.75L390.09,-88.69L389.15,-82.10L382.56,-83.04L381.62,-76.45L342.06,-82.09L343.00,-88.69L336.40,-89.63L337.35,-96.22ZM423.20,-151.24L426.02,-171.02L439.20,-169.14L442.97,-195.51L462.75,-192.69L458.98,-166.32L485.36,-162.55L482.53,-142.78L456.16,-146.54L444.87,-67.42L425.09,-70.24L436.38,-149.36ZM489.79,-61.01L503.90,-159.91L523.68,-157.09L509.56,-58.19ZM505.78,-173.09L508.61,-192.87L528.38,-190.05L525.56,-170.27ZM534.14,-81.59L540.73,-127.74L547.32,-126.80L549.20,-139.99L555.79,-139.05L556.73,-145.64L569.92,-143.76L570.86,-150.35L597.24,-146.59L596.29,-139.99L602.89,-139.05L601.95,-132.46L608.54,-131.52L610.42,-144.71L630.20,-141.88L616.09,-42.98L596.31,-45.81L598.19,-58.99L591.60,-59.93L590.65,-53.34L584.06,-54.28L583.12,-47.69L556.75,-51.45L557.69,-58.05L544.50,-59.93L545.44,-66.52L538.85,-67.46L540.73,-80.65ZM553.92,-78.77L560.51,-77.83L559.57,-71.23L585.94,-67.47L586.88,-74.06L593.48,-73.12L594.42,-79.71L601.01,-78.77L605.72,-111.74L599.12,-112.68L600.06,-119.27L593.47,-120.21L594.41,-126.81L568.04,-130.57L567.10,-123.98L560.51,-124.92ZM637.51,-39.93L651.63,-138.82L671.41,-136.00L669.53,-122.81L676.12,-121.87L677.06,-128.47L683.65,-127.53L684.59,-134.12L704.37,-131.30L703.43,-124.70L716.62,-122.82L715.68,-116.23L722.27,-115.29L720.39,-102.10L726.98,-101.16L716.63,-28.63L696.85,-31.46L707.20,-103.98L700.61,-104.92L701.55,-111.52L681.77,-114.34L680.83,-107.75L674.24,-108.69L673.30,-102.09L666.70,-103.04L657.29,-37.10Z" fill="#ffffff" stroke="#000000"/>
    <path d="M-713.68,-255.20L-690.45,-384.95L-670.99,-381.47L-680.28,-329.57L-621.89,-319.11L-612.60,-371.01L-593.14,-367.53L-616.37,-237.78L-635.84,-241.26L-625.38,-299.65L-683.77,-310.11L-694.22,-251.72ZM-591.25,-260.06L-583.12,-305.47L-576.63,-304.31L-574.31,-317.29L-567.82,-316.12L-566.66,-322.61L-553.68,-320.29L-552.52,-326.77L-526.57,-322.13L-527.73,-315.64L-514.76,-313.32L-515.92,-306.83L-509.43,-305.67L-511.76,-292.69L-505.27,-291.53L-509.92,-265.58L-568.30,-276.04L-571.79,-256.57L-565.30,-255.41L-566.46,-248.93L-540.51,-244.28L-539.35,-250.77L-532.86,-249.60L-531.70,-256.09L-512.24,-252.61L-514.56,-239.63L-521.05,-240.79L-522.21,-234.31L-528.70,-235.47L-529.86,-228.98L-542.84,-231.30L-544.00,-224.82L-569.95,-229.46L-568.79,-235.95L-581.76,-238.27L-580.60,-244.76L-587.09,-245.92L-584.76,-258.90ZM-565.98,-289.01L-527.05,-282.04L-524.73,-295.02L-531.22,-296.18L-530.06,-302.67L-556.01,-307.31L-557.17,-300.82L-563.66,-301.99ZM-497.98,-216.57L-474.74,-346.32L-455.28,-342.84L-478.52,-213.09ZM-455.00,-208.88L-431.76,-338.63L-412.30,-335.14L-435.54,-205.39ZM-410.41,-227.68L-402.28,-273.09L-395.79,-271.93L-393.47,-284.90L-386.98,-283.74L-385.82,-290.23L-372.85,-287.90L-371.68,-294.39L-345.73,-289.74L-346.90,-283.26L-333.92,-280.93L-335.08,-274.44L-328.60,-273.28L-330.92,-260.31L-324.43,-259.15L-332.56,-213.73L-339.05,-214.90L-341.38,-201.92L-347.86,-203.08L-349.03,-196.60L-362.00,-198.92L-363.16,-192.43L-389.11,-197.08L-387.95,-203.57L-400.92,-205.89L-399.76,-212.38L-406.25,-213.54L-403.93,-226.51ZM-390.95,-224.19L-384.46,-223.03L-385.63,-216.54L-359.68,-211.89L-358.51,-218.38L-352.03,-217.22L-343.89,-262.63L-350.38,-263.79L-349.22,-270.28L-375.17,-274.93L-376.33,-268.44L-382.82,-269.60ZM-323.43,-185.32L-319.94,-204.78L-300.48,-201.29L-306.29,-168.86L-312.77,-170.02L-313.94,-163.53L-326.91,-165.85L-325.75,-172.34L-319.26,-171.18L-318.10,-177.67L-311.61,-176.50L-310.45,-182.99ZM-222.06,-167.16L-198.82,-296.91L-179.36,-293.43L-202.60,-163.68ZM-166.72,-257.68L-160.91,-290.12L-147.94,-287.80L-153.75,-255.36ZM-148.47,-153.98L-131.04,-251.29L-111.58,-247.81L-113.90,-234.83L-107.42,-233.67L-106.25,-240.16L-99.77,-239.00L-98.60,-245.49L-79.14,-242.00L-80.30,-235.51L-73.82,-234.35L-74.98,-227.86L-62.00,-225.54L-60.84,-232.03L-54.35,-230.87L-53.19,-237.35L-27.24,-232.71L-28.40,-226.22L-21.92,-225.06L-23.08,-218.57L-16.59,-217.41L-18.92,-204.43L-12.43,-203.27L-25.21,-131.91L-44.67,-135.39L-31.89,-206.76L-38.38,-207.92L-37.22,-214.41L-56.68,-217.89L-57.84,-211.40L-64.33,-212.57L-77.11,-141.20L-96.57,-144.69L-83.79,-216.05L-90.28,-217.21L-89.12,-223.70L-102.09,-226.02L-103.25,-219.54L-109.74,-220.70L-110.90,-214.21L-117.39,-215.37L-129.01,-150.50ZM54.87,-117.57L78.11,-247.32L97.57,-243.83L87.11,-185.44L93.60,-184.28L94.76,-190.77L101.25,-189.61L102.41,-196.10L108.90,-194.93L110.06,-201.42L116.55,-200.26L117.71,-206.75L124.20,-205.59L125.36,-212.07L131.85,-210.91L133.01,-217.40L139.50,-216.24L140.66,-222.72L147.15,-221.56L148.31,-228.05L154.79,-226.89L155.96,-233.38L181.91,-228.73L180.74,-222.24L174.26,-223.40L173.09,-216.92L166.61,-218.08L165.45,-211.59L158.96,-212.75L157.80,-206.26L151.31,-207.43L150.15,-200.94L143.66,-202.10L142.50,-195.61L136.01,-196.77L134.85,-190.29L128.36,-191.45L127.20,-184.96L120.71,-186.12L118.39,-173.15L124.88,-171.99L123.71,-165.50L130.20,-164.34L129.04,-157.85L135.53,-156.69L134.37,-150.20L140.85,-149.04L139.69,-142.55L146.18,-141.39L145.02,-134.90L151.50,-133.74L150.34,-127.25L156.83,-126.09L155.67,-119.60L162.16,-118.44L160.99,-111.95L167.48,-110.79L166.32,-104.31L172.81,-103.14L171.64,-96.66L145.70,-101.30L146.86,-107.79L140.37,-108.95L141.53,-115.44L135.04,-116.60L136.21,-123.09L129.72,-124.25L130.88,-130.74L124.39,-131.90L125.55,-138.39L119.07,-139.55L120.23,-146.04L113.74,-147.20L114.90,-153.69L108.42,-154.85L109.58,-161.34L103.09,-162.50L104.25,-168.98L97.76,-170.15L96.60,-163.66L90.12,-164.82L88.95,-158.33L82.47,-159.49L74.33,-114.08ZM192.12,-92.99L209.55,-190.30L229.01,-186.82L226.69,-173.84L233.17,-172.68L234.34,-179.17L240.82,-178.00L241.98,-184.49L267.93,-179.84L266.77,-173.36L273.26,-172.20L272.10,-165.71L278.59,-164.55L276.26,-151.57L269.77,-152.73L268.61,-146.25L262.13,-147.41L263.29,-153.89L256.80,-155.06L257.96,-161.54L238.50,-165.03L237.34,-158.54L230.85,-159.70L229.69,-153.22L223.20,-154.38L211.58,-89.50ZM280.92,-77.09L298.34,-174.40L317.81,-170.91L300.38,-73.60ZM300.67,-187.37L304.15,-206.84L323.62,-203.35L320.13,-183.89ZM324.40,-82.69L326.72,-95.67L333.21,-94.51L334.37,-100.99L340.86,-99.83L339.69,-93.34L346.18,-92.18L345.02,-85.69L351.51,-84.53L350.35,-78.04L363.32,-75.72L364.48,-82.21L370.97,-81.05L373.29,-94.02L366.81,-95.18L367.97,-101.67L361.48,-102.83L362.64,-109.32L349.67,-111.64L350.83,-118.13L344.34,-119.29L345.50,-125.78L339.02,-126.94L340.18,-133.43L333.69,-134.59L337.18,-154.05L343.66,-152.89L344.82,-159.38L351.31,-158.22L352.47,-164.70L391.40,-157.73L390.24,-151.25L396.72,-150.08L393.24,-130.62L380.26,-132.95L381.43,-139.43L374.94,-140.60L376.10,-147.08L363.12,-149.41L361.96,-142.92L355.48,-144.08L354.31,-137.59L360.80,-136.43L359.64,-129.94L366.13,-128.78L364.96,-122.29L377.94,-119.97L376.78,-113.48L383.27,-112.32L382.10,-105.83L388.59,-104.67L387.43,-98.19L393.92,-97.02L389.27,-71.07L382.78,-72.24L381.62,-65.75L375.13,-66.91L373.97,-60.42L335.05,-67.39L336.21,-73.88L329.72,-75.04L330.88,-81.53ZM417.71,-132.93L421.20,-152.40L434.17,-150.07L438.82,-176.02L458.28,-172.54L453.64,-146.59L479.59,-141.94L476.10,-122.48L450.15,-127.13L436.21,-49.28L416.75,-52.76L430.69,-130.61ZM480.41,-41.36L497.83,-138.67L517.29,-135.19L499.87,-37.88ZM500.16,-151.65L503.64,-171.11L523.10,-167.63L519.62,-148.16ZM524.99,-60.16L533.12,-105.57L539.61,-104.41L541.93,-117.38L548.42,-116.22L549.58,-122.71L562.56,-120.39L563.72,-126.87L589.67,-122.23L588.51,-115.74L595.00,-114.58L593.83,-108.09L600.32,-106.93L602.64,-119.90L622.11,-116.42L604.68,-19.11L585.22,-22.59L587.54,-35.57L581.05,-36.73L579.89,-30.24L573.40,-31.40L572.24,-24.92L546.29,-29.56L547.45,-36.05L534.48,-38.37L535.64,-44.86L529.15,-46.02L531.48,-59.00ZM544.45,-56.67L550.94,-55.51L549.78,-49.03L575.73,-44.38L576.89,-50.87L583.38,-49.70L584.54,-56.19L591.03,-55.03L596.84,-87.47L590.35,-88.63L591.51,-95.12L585.02,-96.28L586.18,-102.76L560.23,-107.41L559.07,-100.92L552.59,-102.09ZM625.76,-15.33L643.19,-112.64L662.65,-109.16L660.33,-96.18L666.82,-95.02L667.98,-101.51L674.47,-100.35L675.63,-106.83L695.09,-103.35L693.93,-96.86L706.90,-94.54L705.74,-88.05L712.23,-86.89L709.91,-73.91L716.39,-72.75L703.61,-1.39L684.15,-4.87L696.93,-76.24L690.44,-77.40L691.60,-83.89L672.14,-87.37L670.98,-80.88L664.49,-82.05L663.33,-75.56L656.84,-76.72L645.23,-11.85Z" fill="#ffffff" stroke="#000000"/>
    <path d="M-702.89,-275.82L-675.36,-403.30L-656.24,-399.17L-667.25,-348.18L-609.88,-335.79L-598.87,-386.79L-579.75,-382.66L-607.27,-255.17L-626.40,-259.30L-614.01,-316.67L-671.38,-329.06L-683.77,-271.69ZM-581.65,-276.32L-572.02,-320.95L-565.64,-319.57L-562.89,-332.32L-556.51,-330.94L-555.14,-337.32L-542.39,-334.56L-541.01,-340.94L-515.52,-335.43L-516.89,-329.06L-504.14,-326.31L-505.52,-319.93L-499.15,-318.55L-501.90,-305.81L-495.52,-304.43L-501.03,-278.93L-558.40,-291.32L-562.53,-272.20L-556.15,-270.82L-557.53,-264.45L-532.03,-258.94L-530.65,-265.31L-524.28,-263.94L-522.90,-270.31L-503.78,-266.18L-506.53,-253.43L-512.91,-254.81L-514.28,-248.44L-520.66,-249.81L-522.04,-243.44L-534.78,-246.19L-536.16,-239.82L-561.66,-245.32L-560.28,-251.70L-573.03,-254.45L-571.65,-260.82L-578.03,-262.20L-575.28,-274.95ZM-555.65,-304.07L-517.40,-295.81L-514.65,-308.56L-521.02,-309.93L-519.64,-316.31L-545.14,-321.81L-546.52,-315.44L-552.89,-316.82ZM-490.94,-230.05L-463.42,-357.54L-444.29,-353.41L-471.82,-225.92ZM-448.71,-220.94L-421.19,-348.42L-402.06,-344.29L-429.59,-216.81ZM-403.96,-237.96L-394.33,-282.58L-387.96,-281.20L-385.20,-293.95L-378.83,-292.58L-377.45,-298.95L-364.70,-296.20L-363.33,-302.57L-337.83,-297.07L-339.21,-290.69L-326.46,-287.94L-327.83,-281.57L-321.46,-280.19L-324.21,-267.44L-317.84,-266.07L-327.47,-221.44L-333.85,-222.82L-336.60,-210.07L-342.97,-211.45L-344.35,-205.07L-357.10,-207.83L-358.47,-201.45L-383.97,-206.96L-382.60,-213.33L-395.34,-216.08L-393.97,-222.46L-400.34,-223.84L-397.59,-236.58ZM-384.84,-233.83L-378.47,-232.46L-379.84,-226.08L-354.35,-220.58L-352.97,-226.95L-346.60,-225.57L-336.96,-270.19L-343.34,-271.57L-341.96,-277.95L-367.46,-283.45L-368.83,-277.08L-375.21,-278.45ZM-319.43,-193.02L-315.30,-212.15L-296.18,-208.02L-303.06,-176.15L-309.44,-177.52L-310.81,-171.15L-323.56,-173.90L-322.18,-180.27L-315.81,-178.90L-314.43,-185.27L-308.06,-183.90L-306.68,-190.27ZM-219.83,-171.52L-192.31,-299.01L-173.18,-294.88L-200.71,-167.39ZM-161.94,-259.09L-155.06,-290.96L-142.31,-288.21L-149.19,-256.34ZM-147.52,-155.91L-126.88,-251.52L-107.76,-247.39L-110.51,-234.64L-104.13,-233.27L-102.76,-239.64L-96.38,-238.27L-95.01,-244.64L-75.88,-240.51L-77.26,-234.14L-70.89,-232.76L-72.26,-226.39L-59.51,-223.63L-58.14,-230.01L-51.76,-228.63L-50.39,-235.01L-24.89,-229.50L-26.27,-223.13L-19.89,-221.75L-21.27,-215.38L-14.89,-214.00L-17.65,-201.25L-11.27,-199.87L-26.41,-129.76L-45.53,-133.89L-30.39,-204.00L-36.77,-205.38L-35.39,-211.75L-54.52,-215.88L-55.89,-209.51L-62.27,-210.88L-77.40,-140.77L-96.53,-144.90L-81.39,-215.01L-87.76,-216.39L-86.39,-222.76L-99.14,-225.52L-100.51,-219.14L-106.89,-220.52L-108.26,-214.14L-114.64,-215.52L-128.40,-151.78ZM52.27,-112.77L79.80,-240.26L98.92,-236.13L86.54,-178.76L92.91,-177.38L94.29,-183.76L100.66,-182.38L102.04,-188.75L108.41,-187.38L109.79,-193.75L116.16,-192.37L117.54,-198.75L123.91,-197.37L125.29,-203.75L131.66,-202.37L133.04,-208.75L139.41,-207.37L140.79,-213.74L147.16,-212.37L148.54,-218.74L154.92,-217.37L156.29,-223.74L181.79,-218.23L180.41,-211.86L174.04,-213.24L172.66,-206.86L166.29,-208.24L164.91,-201.86L158.54,-203.24L157.16,-196.87L150.79,-198.24L149.41,-191.87L143.04,-193.24L141.66,-186.87L135.29,-188.25L133.91,-181.87L127.53,-183.25L126.16,-176.87L119.78,-178.25L117.03,-165.50L123.41,-164.12L122.03,-157.75L128.40,-156.37L127.03,-150.00L133.40,-148.62L132.03,-142.25L138.40,-140.87L137.02,-134.50L143.40,-133.12L142.02,-126.75L148.40,-125.37L147.02,-119.00L153.39,-117.62L152.02,-111.25L158.39,-109.87L157.02,-103.50L163.39,-102.12L162.01,-95.75L168.39,-94.37L167.01,-87.99L141.51,-93.50L142.89,-99.87L136.52,-101.25L137.89,-107.62L131.52,-109.00L132.89,-115.38L126.52,-116.75L127.90,-123.13L121.52,-124.50L122.90,-130.88L116.52,-132.25L117.90,-138.63L111.53,-140.00L112.90,-146.38L106.53,-147.75L107.90,-154.13L101.53,-155.50L102.91,-161.88L96.53,-163.26L95.16,-156.88L88.78,-158.26L87.40,-151.88L81.03,-153.26L71.40,-108.64ZM187.13,-83.65L207.78,-179.27L226.90,-175.14L224.15,-162.39L230.52,-161.01L231.90,-167.39L238.27,-166.01L239.65,-172.38L265.14,-166.88L263.77,-160.51L270.14,-159.13L268.77,-152.75L275.14,-151.38L272.39,-138.63L266.01,-140.01L264.64,-133.63L258.26,-135.01L259.64,-141.38L253.27,-142.76L254.64,-149.13L235.52,-153.26L234.14,-146.89L227.77,-148.26L226.39,-141.89L220.02,-143.27L206.25,-79.52ZM274.38,-64.81L295.02,-160.43L314.15,-156.30L293.50,-60.68ZM297.78,-173.18L301.91,-192.30L321.03,-188.17L316.90,-169.05ZM317.57,-68.83L320.32,-81.58L326.70,-80.20L328.07,-86.58L334.45,-85.20L333.07,-78.83L339.45,-77.45L338.07,-71.08L344.44,-69.70L343.07,-63.33L355.82,-60.57L357.19,-66.95L363.57,-65.57L366.32,-78.32L359.95,-79.70L361.32,-86.07L354.95,-87.45L356.32,-93.82L343.57,-96.57L344.95,-102.95L338.58,-104.32L339.95,-110.70L333.58,-112.07L334.95,-118.45L328.58,-119.83L332.71,-138.95L339.08,-137.57L340.46,-143.95L346.83,-142.57L348.21,-148.94L386.46,-140.69L385.08,-134.31L391.45,-132.94L387.33,-113.81L374.58,-116.57L375.95,-122.94L369.58,-124.32L370.96,-130.69L358.21,-133.44L356.83,-127.07L350.46,-128.45L349.08,-122.07L355.45,-120.69L354.08,-114.32L360.45,-112.94L359.08,-106.57L371.82,-103.82L370.45,-97.44L376.82,-96.07L375.45,-89.69L381.82,-88.32L380.44,-81.94L386.82,-80.57L381.31,-55.07L374.94,-56.44L373.56,-50.07L367.19,-51.45L365.81,-45.07L327.57,-53.33L328.94,-59.70L322.57,-61.08L323.94,-67.45ZM411.61,-115.24L415.74,-134.36L428.49,-131.61L433.99,-157.11L453.12,-152.98L447.61,-127.48L473.11,-121.98L468.98,-102.85L443.48,-108.36L426.97,-31.87L407.84,-36.00L424.36,-112.49ZM470.39,-22.49L491.04,-118.11L510.16,-113.98L489.52,-18.36ZM493.79,-130.86L497.92,-149.98L517.04,-145.85L512.91,-126.73ZM515.14,-39.52L524.77,-84.14L531.15,-82.76L533.90,-95.51L540.27,-94.13L541.65,-100.51L554.40,-97.75L555.78,-104.13L581.27,-98.62L579.90,-92.25L586.27,-90.87L584.90,-84.50L591.27,-83.12L594.02,-95.87L613.15,-91.74L592.50,3.87L573.38,-0.26L576.13,-13.00L569.76,-14.38L568.38,-8.01L562.01,-9.38L560.63,-3.01L535.13,-8.51L536.51,-14.89L523.76,-17.64L525.14,-24.01L518.76,-25.39L521.51,-38.14ZM534.26,-35.39L540.64,-34.01L539.26,-27.64L564.76,-22.13L566.13,-28.51L572.51,-27.13L573.88,-33.50L580.26,-32.13L587.14,-64.00L580.77,-65.38L582.14,-71.75L575.77,-73.13L577.14,-79.50L551.65,-85.01L550.27,-78.63L543.90,-80.01ZM613.22,8.35L633.86,-87.27L652.99,-83.14L650.23,-70.39L656.61,-69.02L657.98,-75.39L664.36,-74.01L665.73,-80.39L684.86,-76.26L683.48,-69.88L696.23,-67.13L694.85,-60.76L701.23,-59.38L698.47,-46.63L704.85,-45.26L689.71,24.86L670.59,20.73L685.73,-49.39L679.35,-50.76L680.73,-57.14L661.60,-61.27L660.23,-54.89L653.85,-56.27L652.48,-49.89L646.10,-51.27L632.34,12.47Z" fill="#ffffff" stroke="#000000"/>
    <path d="M-691.40,-296.02L-659.72,-421.10L-640.95,-416.35L-653.63,-366.32L-597.34,-352.06L-584.66,-402.09L-565.90,-397.34L-597.59,-272.25L-616.35,-277.01L-602.09,-333.29L-658.38,-347.55L-672.64,-291.26ZM-571.51,-292.27L-560.42,-336.05L-554.16,-334.47L-551.00,-346.97L-544.74,-345.39L-543.16,-351.64L-530.65,-348.48L-529.06,-354.73L-504.05,-348.39L-505.63,-342.14L-493.12,-338.97L-494.71,-332.72L-488.45,-331.13L-491.62,-318.62L-485.37,-317.04L-491.70,-292.02L-547.99,-306.28L-552.74,-287.52L-546.49,-285.93L-548.07,-279.68L-523.06,-273.34L-521.47,-279.60L-515.22,-278.01L-513.63,-284.27L-494.87,-279.51L-498.04,-267.00L-504.29,-268.59L-505.88,-262.33L-512.13,-263.92L-513.72,-257.66L-526.23,-260.83L-527.81,-254.58L-552.83,-260.92L-551.24,-267.17L-563.75,-270.34L-562.17,-276.59L-568.42,-278.18L-565.25,-290.69ZM-544.82,-318.79L-507.30,-309.28L-504.13,-321.79L-510.38,-323.38L-508.80,-329.63L-533.82,-335.97L-535.40,-329.71L-541.66,-331.30ZM-483.44,-243.34L-451.76,-368.43L-433.00,-363.67L-464.68,-238.59ZM-442.01,-232.84L-410.32,-357.93L-391.56,-353.18L-423.25,-228.09ZM-397.17,-248.11L-386.08,-291.89L-379.82,-290.30L-376.66,-302.81L-370.40,-301.23L-368.82,-307.48L-356.31,-304.31L-354.72,-310.57L-329.71,-304.23L-331.29,-297.98L-318.78,-294.81L-320.37,-288.55L-314.11,-286.97L-317.28,-274.46L-311.03,-272.88L-322.12,-229.10L-328.37,-230.68L-331.54,-218.17L-337.79,-219.76L-339.38,-213.50L-351.89,-216.67L-353.47,-210.42L-378.49,-216.75L-376.90,-223.01L-389.41,-226.18L-387.83,-232.43L-394.08,-234.02L-390.91,-246.52ZM-378.41,-243.36L-372.15,-241.77L-373.73,-235.52L-348.72,-229.18L-347.13,-235.43L-340.88,-233.85L-329.79,-277.63L-336.04,-279.21L-334.46,-285.47L-359.48,-291.81L-361.06,-285.55L-367.32,-287.14ZM-315.16,-200.71L-310.41,-219.48L-291.65,-214.72L-299.57,-183.45L-305.82,-185.04L-307.41,-178.78L-319.92,-181.95L-318.33,-188.20L-312.08,-186.62L-310.49,-192.87L-304.24,-191.29L-302.65,-197.54ZM-217.44,-175.96L-185.75,-301.05L-166.99,-296.29L-198.68,-171.21ZM-157.13,-260.52L-149.20,-291.79L-136.70,-288.62L-144.62,-257.35ZM-146.49,-157.99L-122.73,-251.80L-103.96,-247.05L-107.13,-234.54L-100.88,-232.96L-99.29,-239.21L-93.04,-237.63L-91.46,-243.88L-72.69,-239.13L-74.28,-232.87L-68.02,-231.29L-69.61,-225.04L-57.10,-221.87L-55.51,-228.12L-49.26,-226.54L-47.67,-232.79L-22.66,-226.45L-24.24,-220.20L-17.99,-218.62L-19.57,-212.36L-13.32,-210.78L-16.49,-198.27L-10.23,-196.68L-27.66,-127.89L-46.42,-132.64L-28.99,-201.44L-35.25,-203.02L-33.66,-209.28L-52.43,-214.03L-54.01,-207.77L-60.27,-209.36L-77.69,-140.56L-96.46,-145.31L-79.03,-214.11L-85.28,-215.70L-83.70,-221.95L-96.21,-225.12L-97.79,-218.86L-104.05,-220.45L-105.63,-214.19L-111.89,-215.78L-127.73,-153.24ZM49.54,-108.33L81.23,-233.42L99.99,-228.67L85.73,-172.38L91.99,-170.79L93.57,-177.05L99.83,-175.46L101.41,-181.72L107.67,-180.13L109.25,-186.39L115.50,-184.80L117.09,-191.06L123.34,-189.47L124.93,-195.73L131.18,-194.14L132.77,-200.40L139.02,-198.81L140.60,-205.07L146.86,-203.48L148.44,-209.74L154.70,-208.15L156.28,-214.41L181.30,-208.07L179.71,-201.82L173.46,-203.40L171.88,-197.15L165.62,-198.73L164.04,-192.48L157.78,-194.06L156.20,-187.81L149.94,-189.39L148.36,-183.14L142.11,-184.72L140.52,-178.47L134.27,-180.05L132.68,-173.80L126.43,-175.38L124.84,-169.12L118.59,-170.71L115.42,-158.20L121.68,-156.62L120.09,-150.36L126.35,-148.78L124.76,-142.52L131.02,-140.94L129.43,-134.68L135.69,-133.10L134.10,-126.85L140.36,-125.26L138.77,-119.01L145.03,-117.42L143.44,-111.17L149.70,-109.58L148.11,-103.33L154.37,-101.75L152.78,-95.49L159.04,-93.91L157.45,-87.65L163.71,-86.07L162.12,-79.81L137.10,-86.15L138.69,-92.41L132.43,-93.99L134.02,-100.24L127.76,-101.83L129.35,-108.08L123.09,-109.67L124.68,-115.92L118.42,-117.51L120.01,-123.76L113.75,-125.34L115.34,-131.60L109.08,-133.18L110.67,-139.44L104.41,-141.02L106.00,-147.28L99.74,-148.86L101.33,-155.11L95.07,-156.70L93.49,-150.44L87.24,-152.03L85.65,-145.77L79.40,-147.36L68.31,-103.58ZM181.86,-74.81L205.63,-168.63L224.39,-163.88L221.22,-151.37L227.48,-149.78L229.06,-156.04L235.31,-154.45L236.90,-160.71L261.92,-154.37L260.33,-148.12L266.59,-146.53L265.00,-140.28L271.26,-138.69L268.09,-126.19L261.83,-127.77L260.25,-121.51L253.99,-123.10L255.58,-129.35L249.32,-130.94L250.91,-137.19L232.15,-141.94L230.56,-135.69L224.31,-137.27L222.72,-131.02L216.47,-132.60L200.63,-70.06ZM267.47,-53.13L291.23,-146.94L310.00,-142.19L286.23,-48.38ZM294.40,-159.45L299.15,-178.22L317.92,-173.46L313.16,-154.70ZM310.31,-55.59L313.48,-68.10L319.74,-66.51L321.32,-72.77L327.57,-71.18L325.99,-64.93L332.24,-63.34L330.66,-57.09L336.91,-55.51L335.33,-49.25L347.84,-46.08L349.42,-52.34L355.68,-50.75L358.85,-63.26L352.59,-64.85L354.18,-71.10L347.92,-72.68L349.51,-78.94L337.00,-82.11L338.58,-88.36L332.33,-89.95L333.91,-96.20L327.66,-97.78L329.24,-104.04L322.99,-105.62L327.74,-124.39L333.99,-122.80L335.58,-129.06L341.83,-127.47L343.42,-133.73L380.94,-124.22L379.36,-117.97L385.61,-116.38L380.86,-97.62L368.35,-100.79L369.94,-107.04L363.68,-108.63L365.27,-114.88L352.76,-118.05L351.17,-111.79L344.92,-113.38L343.33,-107.12L349.59,-105.54L348.00,-99.29L354.26,-97.70L352.67,-91.45L365.18,-88.28L363.60,-82.02L369.85,-80.44L368.27,-74.19L374.52,-72.60L372.94,-66.35L379.19,-64.76L372.86,-39.75L366.60,-41.33L365.02,-35.08L358.76,-36.66L357.18,-30.41L319.65,-39.91L321.24,-46.17L314.98,-47.75L316.57,-54.00ZM404.92,-98.18L409.67,-116.94L422.18,-113.77L428.52,-138.79L447.28,-134.04L440.95,-109.02L465.96,-102.68L461.21,-83.92L436.19,-90.26L417.18,-15.21L398.42,-19.96L417.43,-95.01ZM459.79,-4.41L483.55,-98.23L502.32,-93.48L478.55,0.34ZM486.72,-110.74L491.47,-129.50L510.24,-124.75L505.49,-105.98ZM504.63,-19.68L515.72,-63.46L521.97,-61.87L525.14,-74.38L531.40,-72.80L532.98,-79.05L545.49,-75.88L547.07,-82.14L572.09,-75.80L570.51,-69.55L576.76,-67.96L575.18,-61.71L581.43,-60.12L584.60,-72.63L603.36,-67.88L579.60,25.93L560.84,21.18L564.01,8.67L557.75,7.09L556.17,13.34L549.91,11.76L548.33,18.01L523.31,11.68L524.89,5.42L512.39,2.25L513.97,-4.00L507.72,-5.58L510.88,-18.09ZM523.39,-14.93L529.65,-13.34L528.06,-7.09L553.08,-0.75L554.66,-7.00L560.92,-5.42L562.50,-11.67L568.76,-10.09L576.68,-41.36L570.42,-42.95L572.01,-49.20L565.75,-50.78L567.34,-57.04L542.32,-63.38L540.74,-57.12L534.48,-58.71ZM599.93,31.08L623.69,-62.73L642.45,-57.98L639.28,-45.47L645.54,-43.89L647.12,-50.14L653.38,-48.56L654.96,-54.81L673.72,-50.06L672.14,-43.80L684.65,-40.63L683.06,-34.38L689.32,-32.80L686.15,-20.29L692.41,-18.70L674.98,50.09L656.22,45.34L673.64,-23.46L667.39,-25.04L668.97,-31.29L650.21,-36.05L648.62,-29.79L642.37,-31.38L640.79,-25.12L634.53,-26.71L618.69,35.84Z" fill="#ffffff" stroke="#000000"/>
    <path d="M-679.23,-315.78L-643.52,-438.33L-625.14,-432.98L-639.42,-383.96L-584.27,-367.89L-569.99,-416.91L-551.61,-411.55L-587.32,-289.00L-605.70,-294.35L-589.63,-349.50L-644.78,-365.57L-660.85,-310.42ZM-560.83,-307.87L-548.34,-350.77L-542.21,-348.98L-538.64,-361.24L-532.51,-359.45L-530.72,-365.58L-518.47,-362.01L-516.68,-368.14L-492.17,-360.99L-493.96,-354.87L-481.70,-351.29L-483.49,-345.17L-477.36,-343.38L-480.93,-331.13L-474.80,-329.34L-481.95,-304.83L-537.10,-320.90L-542.45,-302.52L-536.32,-300.73L-538.11,-294.60L-513.60,-287.46L-511.81,-293.59L-505.69,-291.80L-503.90,-297.93L-485.52,-292.57L-489.09,-280.32L-495.22,-282.10L-497.00,-275.98L-503.13,-277.76L-504.91,-271.63L-517.17,-275.21L-518.95,-269.08L-543.47,-276.22L-541.68,-282.35L-553.94,-285.92L-552.15,-292.05L-558.28,-293.83L-554.71,-306.09ZM-533.52,-333.15L-496.76,-322.44L-493.19,-334.70L-499.31,-336.48L-497.53,-342.61L-522.04,-349.75L-523.83,-343.62L-529.95,-345.41ZM-475.49,-256.41L-439.78,-378.97L-421.39,-373.61L-457.10,-251.06ZM-434.89,-244.58L-399.18,-367.14L-380.80,-361.78L-416.51,-239.23ZM-390.03,-258.10L-377.53,-301.00L-371.40,-299.21L-367.83,-311.47L-361.70,-309.68L-359.92,-315.81L-347.66,-312.24L-345.87,-318.37L-321.36,-311.22L-323.15,-305.10L-310.89,-301.52L-312.68,-295.40L-306.55,-293.61L-310.12,-281.36L-304.00,-279.57L-316.49,-236.68L-322.62,-238.46L-326.19,-226.21L-332.32,-227.99L-334.11,-221.86L-346.36,-225.44L-348.15,-219.31L-372.66,-226.45L-370.87,-232.58L-383.13,-236.15L-381.34,-242.28L-387.47,-244.06L-383.90,-256.32ZM-371.64,-252.75L-365.51,-250.96L-367.30,-244.83L-342.79,-237.69L-341.00,-243.82L-334.88,-242.03L-322.38,-284.93L-328.51,-286.71L-326.72,-292.84L-351.23,-299.98L-353.02,-293.85L-359.14,-295.64ZM-310.61,-208.37L-305.26,-226.76L-286.87,-221.40L-295.80,-190.76L-301.93,-192.55L-303.72,-186.42L-315.97,-189.99L-314.18,-196.12L-308.06,-194.33L-306.27,-200.46L-300.14,-198.67L-298.36,-204.80ZM-214.87,-180.47L-179.16,-303.03L-160.78,-297.67L-196.49,-175.12ZM-152.28,-261.96L-143.35,-292.59L-131.10,-289.02L-140.02,-258.38ZM-145.36,-160.22L-118.58,-252.14L-100.19,-246.78L-103.76,-234.52L-97.64,-232.74L-95.85,-238.87L-89.72,-237.08L-87.94,-243.21L-69.55,-237.85L-71.34,-231.72L-65.21,-229.94L-67.00,-223.81L-54.74,-220.24L-52.96,-226.37L-46.83,-224.58L-45.04,-230.71L-20.53,-223.57L-22.32,-217.44L-16.19,-215.65L-17.98,-209.53L-11.85,-207.74L-15.42,-195.49L-9.29,-193.70L-28.93,-126.30L-47.32,-131.65L-27.68,-199.06L-33.80,-200.84L-32.02,-206.97L-50.40,-212.33L-52.19,-206.20L-58.31,-207.98L-77.95,-140.58L-96.34,-145.94L-76.70,-213.34L-82.82,-215.13L-81.04,-221.25L-93.29,-224.82L-95.08,-218.70L-101.21,-220.48L-102.99,-214.35L-109.12,-216.14L-126.98,-154.86ZM46.71,-104.26L82.42,-226.81L100.80,-221.45L84.73,-166.30L90.86,-164.52L92.64,-170.65L98.77,-168.86L100.56,-174.99L106.68,-173.20L108.47,-179.33L114.60,-177.55L116.38,-183.67L122.51,-181.89L124.29,-188.02L130.42,-186.23L132.21,-192.36L138.34,-190.57L140.12,-196.70L146.25,-194.91L148.03,-201.04L154.16,-199.26L155.95,-205.38L180.46,-198.24L178.67,-192.12L172.55,-193.90L170.76,-187.77L164.63,-189.56L162.85,-183.43L156.72,-185.22L154.93,-179.09L148.81,-180.87L147.02,-174.75L140.89,-176.53L139.11,-170.40L132.98,-172.19L131.19,-166.06L125.07,-167.85L123.28,-161.72L117.15,-163.51L113.58,-151.25L119.71,-149.46L117.92,-143.34L124.05,-141.55L122.27,-135.42L128.39,-133.64L126.61,-127.51L132.74,-125.72L130.95,-119.60L137.08,-117.81L135.29,-111.68L141.42,-109.90L139.64,-103.77L145.76,-101.99L143.98,-95.86L150.11,-94.07L148.32,-87.94L154.45,-86.16L152.66,-80.03L158.79,-78.25L157.00,-72.12L132.49,-79.26L134.28,-85.39L128.15,-87.17L129.94,-93.30L123.81,-95.09L125.59,-101.21L119.47,-103.00L121.25,-109.13L115.12,-110.91L116.91,-117.04L110.78,-118.83L112.57,-124.95L106.44,-126.74L108.23,-132.87L102.10,-134.65L103.88,-140.78L97.76,-142.57L99.54,-148.69L93.41,-150.48L91.63,-144.35L85.50,-146.14L83.71,-140.01L77.59,-141.79L65.09,-98.90ZM176.34,-66.48L203.13,-158.40L221.51,-153.04L217.94,-140.79L224.07,-139.00L225.85,-145.13L231.98,-143.34L233.77,-149.47L258.28,-142.33L256.49,-136.20L262.62,-134.42L260.83,-128.29L266.96,-126.50L263.39,-114.25L257.26,-116.03L255.48,-109.90L249.35,-111.69L251.13,-117.82L245.01,-119.60L246.79,-125.73L228.41,-131.09L226.62,-124.96L220.50,-126.75L218.71,-120.62L212.58,-122.40L194.73,-61.13ZM260.22,-42.04L287.00,-133.96L305.38,-128.60L278.60,-36.69ZM290.57,-146.21L295.93,-164.60L314.31,-159.24L308.95,-140.86ZM302.66,-42.97L306.23,-55.23L312.36,-53.44L314.14,-59.57L320.27,-57.79L318.49,-51.66L324.61,-49.87L322.83,-43.74L328.96,-41.96L327.17,-35.83L339.43,-32.26L341.21,-38.39L347.34,-36.60L350.91,-48.86L344.78,-50.64L346.57,-56.77L340.44,-58.56L342.23,-64.68L329.97,-68.25L331.76,-74.38L325.63,-76.17L327.41,-82.30L321.29,-84.08L323.07,-90.21L316.94,-91.99L322.30,-110.38L328.43,-108.59L330.21,-114.72L336.34,-112.93L338.13,-119.06L374.89,-108.35L373.11,-102.22L379.24,-100.44L373.88,-82.05L361.62,-85.62L363.41,-91.75L357.28,-93.54L359.07,-99.66L346.81,-103.24L345.03,-97.11L338.90,-98.89L337.11,-92.77L343.24,-90.98L341.46,-84.85L347.58,-83.07L345.80,-76.94L358.05,-73.37L356.27,-67.24L362.39,-65.46L360.61,-59.33L366.74,-57.54L364.95,-51.41L371.08,-49.63L363.94,-25.12L357.81,-26.90L356.02,-20.78L349.90,-22.56L348.11,-16.43L311.34,-27.15L313.13,-33.27L307.00,-35.06L308.79,-41.19ZM397.69,-81.76L403.04,-100.15L415.30,-96.58L422.44,-121.09L440.82,-115.73L433.68,-91.22L458.19,-84.08L452.83,-65.69L428.32,-72.84L406.90,0.70L388.52,-4.66L409.94,-78.19ZM448.64,12.86L475.43,-79.06L493.81,-73.70L467.03,18.22ZM479.00,-91.31L484.35,-109.69L502.74,-104.34L497.38,-85.96ZM493.51,-0.66L506.01,-43.55L512.13,-41.77L515.71,-54.02L521.83,-52.24L523.62,-58.37L535.87,-54.79L537.66,-60.92L562.17,-53.78L560.38,-47.65L566.51,-45.87L564.73,-39.74L570.85,-37.95L574.43,-50.21L592.81,-44.85L566.03,47.06L547.64,41.71L551.21,29.45L545.09,27.66L543.30,33.79L537.17,32.01L535.39,38.13L510.88,30.99L512.66,24.87L500.41,21.29L502.19,15.17L496.07,13.38L499.64,1.13ZM511.89,4.70L518.02,6.48L516.23,12.61L540.74,19.75L542.53,13.62L548.66,15.41L550.44,9.28L556.57,11.07L565.50,-19.57L559.37,-21.36L561.16,-27.48L555.03,-29.27L556.81,-35.40L532.30,-42.54L530.52,-36.41L524.39,-38.20ZM585.94,52.86L612.72,-39.05L631.11,-33.69L627.54,-21.44L633.66,-19.65L635.45,-25.78L641.58,-24.00L643.36,-30.12L661.74,-24.77L659.96,-18.64L672.21,-15.07L670.43,-8.94L676.56,-7.15L672.99,5.10L679.11,6.89L659.47,74.29L641.09,68.93L660.73,1.53L654.60,-0.26L656.39,-6.38L638.01,-11.74L636.22,-5.61L630.09,-7.40L628.31,-1.27L622.18,-3.06L604.32,58.22Z" fill="#ffffff" stroke="#000000"/>
    <path d="M-666.40,-335.08L-626.81,-454.97L-608.82,-449.03L-624.66,-401.07L-570.71,-383.26L-554.87,-431.21L-536.89,-425.27L-576.48,-305.38L-594.46,-311.32L-576.65,-365.27L-630.60,-383.09L-648.42,-329.14ZM-549.64,-323.11L-535.78,-365.07L-529.79,-363.09L-525.83,-375.08L-519.83,-373.10L-517.85,-379.10L-505.86,-375.14L-503.88,-381.13L-479.91,-373.21L-481.89,-367.22L-469.90,-363.26L-471.88,-357.27L-465.88,-355.29L-469.84,-343.30L-463.85,-341.32L-471.76,-317.34L-525.72,-335.16L-531.66,-317.17L-525.66,-315.19L-527.64,-309.20L-503.66,-301.28L-501.68,-307.27L-495.69,-305.29L-493.71,-311.29L-475.72,-305.35L-479.68,-293.36L-485.68,-295.34L-487.66,-289.34L-493.65,-291.32L-495.63,-285.33L-507.62,-289.29L-509.60,-283.29L-533.58,-291.21L-531.60,-297.21L-543.59,-301.17L-541.61,-307.16L-547.61,-309.14L-543.65,-321.13ZM-521.76,-347.15L-485.79,-335.27L-481.83,-347.26L-487.82,-349.24L-485.85,-355.23L-509.82,-363.15L-511.80,-357.16L-517.80,-359.13ZM-467.08,-269.25L-427.48,-389.14L-409.50,-383.21L-449.09,-263.31ZM-427.36,-256.14L-387.77,-376.03L-369.78,-370.09L-409.38,-250.20ZM-382.54,-267.93L-368.68,-309.89L-362.69,-307.91L-358.73,-319.90L-352.73,-317.92L-350.75,-323.91L-338.76,-319.95L-336.78,-325.95L-312.80,-318.03L-314.78,-312.04L-302.79,-308.08L-304.77,-302.08L-298.78,-300.10L-302.74,-288.11L-296.74,-286.13L-310.60,-244.17L-316.60,-246.15L-320.56,-234.16L-326.55,-236.14L-328.53,-230.15L-340.52,-234.10L-342.50,-228.11L-366.48,-236.03L-364.50,-242.02L-376.49,-245.98L-374.51,-251.98L-380.50,-253.96L-376.54,-265.95ZM-364.55,-261.99L-358.56,-260.01L-360.54,-254.01L-336.56,-246.09L-334.58,-252.09L-328.59,-250.11L-314.73,-292.07L-320.72,-294.05L-318.74,-300.05L-342.72,-307.97L-344.70,-301.97L-350.70,-303.95ZM-305.78,-215.98L-299.84,-233.97L-281.86,-228.03L-291.76,-198.06L-297.75,-200.04L-299.73,-194.04L-311.72,-198.00L-309.74,-203.99L-303.75,-202.02L-301.77,-208.01L-295.77,-206.03L-293.79,-212.02ZM-212.12,-185.05L-172.52,-304.94L-154.54,-299.01L-194.13,-179.11ZM-147.39,-263.40L-137.49,-293.38L-125.50,-289.42L-135.40,-259.44ZM-144.11,-162.59L-114.42,-252.51L-96.43,-246.57L-100.39,-234.59L-94.40,-232.61L-92.42,-238.60L-86.42,-236.62L-84.44,-242.62L-66.46,-236.68L-68.44,-230.68L-62.44,-228.70L-64.42,-222.71L-52.44,-218.75L-50.46,-224.74L-44.46,-222.76L-42.48,-228.76L-18.50,-220.84L-20.48,-214.84L-14.49,-212.86L-16.47,-206.87L-10.47,-204.89L-14.43,-192.90L-8.44,-190.92L-30.21,-124.98L-48.20,-130.92L-26.42,-196.86L-32.42,-198.84L-30.44,-204.83L-48.42,-210.77L-50.40,-204.78L-56.39,-206.76L-78.17,-140.82L-96.16,-146.76L-74.38,-212.70L-80.37,-214.68L-78.39,-220.67L-90.38,-224.63L-92.36,-218.64L-98.36,-220.62L-100.34,-214.62L-106.33,-216.60L-126.13,-156.65ZM43.78,-100.54L83.38,-220.44L101.36,-214.50L83.54,-160.54L89.54,-158.56L91.52,-164.56L97.51,-162.58L99.49,-168.57L105.49,-166.59L107.47,-172.59L113.46,-170.61L115.44,-176.60L121.44,-174.62L123.42,-180.62L129.41,-178.64L131.39,-184.63L137.38,-182.65L139.36,-188.65L145.36,-186.67L147.34,-192.66L153.33,-190.68L155.31,-196.68L179.29,-188.76L177.31,-182.77L171.32,-184.74L169.34,-178.75L163.34,-180.73L161.36,-174.74L155.37,-176.71L153.39,-170.72L147.39,-172.70L145.41,-166.71L139.42,-168.69L137.44,-162.69L131.45,-164.67L129.47,-158.68L123.47,-160.66L121.49,-154.66L115.50,-156.64L111.54,-144.65L117.53,-142.67L115.55,-136.68L121.55,-134.70L119.57,-128.70L125.56,-126.72L123.58,-120.73L129.58,-118.75L127.60,-112.75L133.59,-110.77L131.61,-104.78L137.61,-102.80L135.63,-96.80L141.62,-94.82L139.64,-88.83L145.64,-86.85L143.66,-80.86L149.65,-78.88L147.67,-72.88L153.67,-70.90L151.69,-64.91L127.71,-72.83L129.69,-78.82L123.69,-80.80L125.67,-86.79L119.68,-88.77L121.66,-94.77L115.66,-96.75L117.64,-102.74L111.65,-104.72L113.63,-110.72L107.63,-112.70L109.61,-118.69L103.62,-120.67L105.60,-126.67L99.60,-128.65L101.58,-134.64L95.59,-136.62L97.57,-142.62L91.57,-144.60L89.59,-138.60L83.60,-140.58L81.62,-134.59L75.62,-136.57L61.77,-94.60ZM170.61,-58.66L200.30,-148.58L218.29,-142.64L214.33,-130.65L220.32,-128.67L222.30,-134.66L228.30,-132.69L230.28,-138.68L254.26,-130.76L252.28,-124.77L258.27,-122.79L256.29,-116.79L262.29,-114.81L258.33,-102.82L252.33,-104.80L250.35,-98.81L244.36,-100.79L246.34,-106.78L240.34,-108.76L242.32,-114.76L224.34,-120.70L222.36,-114.70L216.36,-116.68L214.38,-110.69L208.39,-112.67L188.59,-52.72ZM252.66,-31.56L282.36,-121.48L300.34,-115.54L270.64,-25.62ZM286.32,-133.47L292.25,-151.45L310.24,-145.52L304.30,-127.53ZM294.65,-30.99L298.61,-42.98L304.60,-41.00L306.58,-47.00L312.58,-45.02L310.60,-39.02L316.59,-37.04L314.61,-31.05L320.61,-29.07L318.63,-23.07L330.62,-19.11L332.60,-25.11L338.59,-23.13L342.55,-35.12L336.56,-37.10L338.54,-43.09L332.54,-45.07L334.52,-51.07L322.53,-55.03L324.51,-61.02L318.52,-63.00L320.50,-68.99L314.50,-70.97L316.48,-76.97L310.49,-78.95L316.43,-96.93L322.42,-94.95L324.40,-100.95L330.39,-98.97L332.37,-104.96L368.34,-93.08L366.36,-87.09L372.36,-85.11L366.42,-67.13L354.43,-71.09L356.41,-77.08L350.41,-79.06L352.39,-85.05L340.40,-89.01L338.42,-83.02L332.43,-85.00L330.45,-79.00L336.44,-77.02L334.46,-71.03L340.46,-69.05L338.48,-63.06L350.47,-59.10L348.49,-53.10L354.48,-51.12L352.50,-45.13L358.50,-43.15L356.52,-37.15L362.51,-35.17L354.60,-11.19L348.60,-13.17L346.62,-7.18L340.63,-9.16L338.65,-3.16L302.68,-15.04L304.66,-21.04L298.66,-23.02L300.64,-29.01ZM389.94,-66.01L395.88,-83.99L407.87,-80.03L415.79,-104.01L433.77,-98.07L425.85,-74.09L449.83,-66.17L443.89,-48.19L419.91,-56.11L396.16,15.83L378.17,9.89L401.93,-62.05ZM437.00,29.32L466.69,-60.60L484.68,-54.67L454.98,35.25ZM470.65,-72.59L476.59,-90.58L494.58,-84.64L488.64,-66.65ZM481.82,17.52L495.68,-24.44L501.67,-22.46L505.63,-34.45L511.63,-32.47L513.61,-38.46L525.60,-34.50L527.58,-40.50L551.55,-32.58L549.57,-26.58L555.57,-24.60L553.59,-18.61L559.58,-16.63L563.54,-28.62L581.53,-22.68L551.83,67.24L533.85,61.30L537.81,49.31L531.81,47.33L529.83,53.33L523.84,51.35L521.86,57.34L497.88,49.42L499.86,43.43L487.87,39.47L489.85,33.47L483.86,31.49L487.81,19.50ZM499.80,23.46L505.80,25.44L503.82,31.44L527.80,39.36L529.78,33.36L535.77,35.34L537.75,29.35L543.75,31.33L553.65,1.35L547.65,-0.63L549.63,-6.62L543.64,-8.60L545.62,-14.60L521.64,-22.51L519.66,-16.52L513.66,-18.50ZM571.31,73.67L601.01,-16.25L618.99,-10.31L615.04,1.68L621.03,3.66L623.01,-2.33L629.00,-0.35L630.98,-6.35L648.97,-0.41L646.99,5.59L658.98,9.55L657.00,15.54L662.99,17.52L659.03,29.51L665.03,31.49L643.25,97.43L625.27,91.49L647.04,25.55L641.05,23.57L643.03,17.58L625.05,11.64L623.07,17.63L617.07,15.65L615.09,21.65L609.10,19.67L589.30,79.61Z" fill="#ffffff" stroke="#000000"/>
    <path d="M-652.92,-353.88L-609.59,-471.00L-592.02,-464.50L-609.35,-417.65L-556.65,-398.15L-539.32,-444.99L-521.75,-438.49L-565.09,-321.38L-582.65,-327.88L-563.15,-380.58L-615.85,-400.08L-635.36,-347.38ZM-537.94,-337.96L-522.77,-378.95L-516.91,-376.79L-512.58,-388.50L-506.72,-386.33L-504.56,-392.19L-492.85,-387.85L-490.68,-393.71L-467.26,-385.04L-469.42,-379.19L-457.71,-374.85L-459.88,-369.00L-454.02,-366.83L-458.36,-355.12L-452.50,-352.95L-461.17,-329.53L-513.87,-349.03L-520.37,-331.46L-514.51,-329.30L-516.68,-323.44L-493.26,-314.77L-491.09,-320.63L-485.24,-318.46L-483.07,-324.32L-465.50,-317.82L-469.84,-306.11L-475.69,-308.27L-477.86,-302.42L-483.71,-304.58L-485.88,-298.73L-497.59,-303.06L-499.76,-297.21L-523.18,-305.87L-521.01,-311.73L-532.73,-316.06L-530.56,-321.92L-536.42,-324.09L-532.08,-335.80ZM-509.54,-360.74L-474.40,-347.74L-470.07,-359.45L-475.92,-361.62L-473.76,-367.47L-497.18,-376.14L-499.35,-370.29L-505.20,-372.45ZM-458.22,-281.84L-414.88,-398.95L-397.32,-392.45L-440.65,-275.33ZM-419.43,-267.48L-376.09,-384.59L-358.52,-378.09L-401.86,-260.98ZM-374.71,-277.56L-359.54,-318.55L-353.69,-316.39L-349.35,-328.10L-343.50,-325.93L-341.33,-331.79L-329.62,-327.45L-327.45,-333.31L-304.03,-324.64L-306.20,-318.79L-294.48,-314.45L-296.65,-308.60L-290.80,-306.43L-295.13,-294.72L-289.27,-292.55L-304.44,-251.56L-310.30,-253.73L-314.63,-242.02L-320.49,-244.18L-322.65,-238.33L-334.36,-242.66L-336.53,-236.81L-359.95,-245.47L-357.79,-251.33L-369.50,-255.66L-367.33,-261.52L-373.19,-263.69L-368.85,-275.40ZM-357.14,-271.06L-351.29,-268.90L-353.45,-263.04L-330.03,-254.37L-327.86,-260.23L-322.01,-258.06L-306.84,-299.05L-312.70,-301.22L-310.53,-307.07L-333.95,-315.74L-336.12,-309.89L-341.97,-312.05ZM-300.66,-223.53L-294.16,-241.10L-276.60,-234.60L-287.43,-205.32L-293.29,-207.49L-295.45,-201.63L-307.17,-205.97L-305.00,-211.82L-299.14,-209.66L-296.98,-215.51L-291.12,-213.34L-288.95,-219.20ZM-209.17,-189.68L-165.83,-306.79L-148.27,-300.29L-191.60,-183.18ZM-142.45,-264.85L-131.61,-294.13L-119.90,-289.80L-130.74,-260.52ZM-142.74,-165.10L-110.24,-252.93L-92.67,-246.43L-97.01,-234.72L-91.15,-232.55L-88.99,-238.41L-83.13,-236.24L-80.96,-242.10L-63.40,-235.60L-65.56,-229.74L-59.71,-227.58L-61.87,-221.72L-50.16,-217.39L-48.00,-223.24L-42.14,-221.08L-39.97,-226.93L-16.55,-218.26L-18.72,-212.41L-12.86,-210.24L-15.03,-204.39L-9.17,-202.22L-13.51,-190.51L-7.65,-188.34L-31.49,-123.93L-49.05,-130.43L-25.22,-194.84L-31.07,-197.01L-28.91,-202.86L-46.47,-209.36L-48.64,-203.51L-54.50,-205.68L-78.33,-141.26L-95.90,-147.76L-72.06,-212.18L-77.92,-214.34L-75.75,-220.20L-87.46,-224.53L-89.63,-218.68L-95.49,-220.84L-97.65,-214.99L-103.51,-217.15L-125.18,-158.60ZM40.80,-97.18L84.13,-214.30L101.70,-207.80L82.20,-155.09L88.05,-152.93L90.22,-158.78L96.08,-156.62L98.24,-162.47L104.10,-160.31L106.27,-166.16L112.12,-163.99L114.29,-169.85L120.14,-167.68L122.31,-173.54L128.17,-171.37L130.33,-177.23L136.19,-175.06L138.36,-180.92L144.21,-178.75L146.38,-184.61L152.23,-182.44L154.40,-188.29L177.82,-179.63L175.66,-173.77L169.80,-175.94L167.63,-170.08L161.78,-172.25L159.61,-166.39L153.76,-168.56L151.59,-162.70L145.73,-164.87L143.57,-159.02L137.71,-161.18L135.54,-155.33L129.69,-157.49L127.52,-151.64L121.67,-153.80L119.50,-147.95L113.64,-150.12L109.31,-138.40L115.17,-136.24L113.00,-130.38L118.85,-128.22L116.69,-122.36L122.54,-120.19L120.38,-114.34L126.23,-112.17L124.07,-106.31L129.92,-104.15L127.75,-98.29L133.61,-96.12L131.44,-90.27L137.30,-88.10L135.13,-82.25L140.99,-80.08L138.82,-74.22L144.68,-72.06L142.51,-66.20L148.37,-64.03L146.20,-58.18L122.78,-66.85L124.94,-72.70L119.09,-74.87L121.25,-80.72L115.40,-82.89L117.57,-88.75L111.71,-90.91L113.88,-96.77L108.02,-98.94L110.19,-104.79L104.33,-106.96L106.50,-112.81L100.64,-114.98L102.81,-120.84L96.95,-123.00L99.12,-128.86L93.27,-131.03L95.43,-136.88L89.58,-139.05L87.41,-133.19L81.55,-135.36L79.39,-129.50L73.53,-131.67L58.36,-90.68ZM164.68,-51.34L197.18,-139.18L214.75,-132.68L210.42,-120.96L216.27,-118.80L218.44,-124.65L224.30,-122.49L226.46,-128.34L249.88,-119.67L247.72,-113.82L253.57,-111.65L251.41,-105.80L257.26,-103.63L252.93,-91.92L247.07,-94.08L244.91,-88.23L239.05,-90.40L241.22,-96.25L235.36,-98.42L237.53,-104.27L219.96,-110.77L217.79,-104.92L211.94,-107.09L209.77,-101.23L203.92,-103.40L182.25,-44.84ZM244.83,-21.68L277.33,-109.52L294.90,-103.02L262.40,-15.18ZM281.67,-121.23L288.17,-138.80L305.73,-132.30L299.23,-114.73ZM286.31,-19.65L290.65,-31.36L296.50,-29.19L298.67,-35.05L304.52,-32.88L302.36,-27.03L308.21,-24.86L306.05,-19.00L311.90,-16.84L309.73,-10.98L321.45,-6.65L323.61,-12.50L329.47,-10.34L333.80,-22.05L327.95,-24.21L330.11,-30.07L324.26,-32.24L326.42,-38.09L314.71,-42.43L316.88,-48.28L311.02,-50.45L313.19,-56.30L307.34,-58.47L309.50,-64.33L303.65,-66.49L310.15,-84.06L316.00,-81.89L318.17,-87.75L324.03,-85.58L326.19,-91.44L361.33,-78.44L359.16,-72.58L365.02,-70.41L358.51,-52.85L346.80,-57.18L348.97,-63.04L343.11,-65.20L345.28,-71.06L333.57,-75.39L331.40,-69.54L325.55,-71.70L323.38,-65.85L329.24,-63.68L327.07,-57.83L332.93,-55.66L330.76,-49.80L342.47,-45.47L340.30,-39.61L346.16,-37.45L343.99,-31.59L349.85,-29.42L347.68,-23.57L353.54,-21.40L344.87,2.02L339.01,-0.15L336.85,5.71L330.99,3.54L328.82,9.40L293.69,-3.60L295.86,-9.46L290.00,-11.63L292.17,-17.48ZM381.73,-50.92L388.23,-68.48L399.94,-64.15L408.60,-87.57L426.17,-81.07L417.50,-57.65L440.93,-48.98L434.43,-31.41L411.00,-40.08L385.00,30.19L367.44,23.69L393.44,-46.58ZM424.89,44.95L457.40,-42.89L474.96,-36.39L442.46,51.45ZM461.73,-54.60L468.23,-72.17L485.80,-65.67L479.30,-48.10ZM469.61,34.86L484.78,-6.13L490.63,-3.96L494.97,-15.67L500.82,-13.50L502.99,-19.36L514.70,-15.03L516.87,-20.88L540.29,-12.21L538.12,-6.36L543.98,-4.19L541.81,1.66L547.67,3.83L552.00,-7.88L569.57,-1.38L537.07,86.46L519.50,79.96L523.83,68.24L517.98,66.08L515.81,71.93L509.96,69.77L507.79,75.62L484.37,66.95L486.53,61.10L474.82,56.77L476.99,50.91L471.13,48.74L475.47,37.03ZM487.18,41.36L493.03,43.53L490.87,49.39L514.29,58.05L516.46,52.20L522.31,54.37L524.48,48.51L530.33,50.68L541.17,21.40L535.31,19.23L537.48,13.38L531.62,11.21L533.79,5.35L510.37,-3.31L508.20,2.54L502.35,0.37ZM556.10,93.50L588.60,5.66L606.17,12.16L601.83,23.87L607.69,26.04L609.86,20.19L615.71,22.35L617.88,16.50L635.45,23.00L633.28,28.85L644.99,33.19L642.82,39.04L648.68,41.21L644.35,52.92L650.20,55.09L626.37,119.50L608.80,113.00L632.64,48.59L626.78,46.42L628.95,40.56L611.38,34.06L609.21,39.92L603.36,37.75L601.19,43.61L595.33,41.44L573.67,100.00Z" fill="#ffffff" stroke="#000000"/>
    <path d="M-913,471.81L-913,468.25L-892.81,468.25L-892.81,471.81L-901.13,471.81L-901.13,492L-904.69,492L-904.69,471.81ZM-891.03,487.25L-891.03,478.94L-889.84,478.94L-889.84,476.56L-888.66,476.56L-888.66,475.38L-886.28,475.38L-886.28,474.19L-881.53,474.19L-881.53,475.38L-879.16,475.38L-879.16,476.56L-877.97,476.56L-877.97,478.94L-876.78,478.94L-876.78,483.69L-887.47,483.69L-887.47,487.25L-886.28,487.25L-886.28,488.44L-881.53,488.44L-881.53,487.25L-880.34,487.25L-880.34,486.06L-876.78,486.06L-876.78,488.44L-877.97,488.44L-877.97,489.63L-879.16,489.63L-879.16,490.81L-881.53,490.81L-881.53,492L-886.28,492L-886.28,490.81L-888.66,490.81L-888.66,489.63L-889.84,489.63L-889.84,487.25ZM-887.47,481.31L-880.34,481.31L-880.34,478.94L-881.53,478.94L-881.53,477.75L-886.28,477.75L-886.28,478.94L-887.47,478.94ZM-873.26,492L-873.26,474.19L-869.69,474.19L-869.69,476.56L-868.51,476.56L-868.51,475.38L-867.32,475.38L-867.32,474.19L-862.57,474.19L-862.57,475.38L-861.38,475.38L-861.38,476.56L-860.19,476.56L-860.19,478.94L-861.38,478.94L-861.38,480.13L-862.57,480.13L-862.57,478.94L-863.76,478.94L-863.76,477.75L-867.32,477.75L-867.32,478.94L-868.51,478.94L-868.51,480.13L-869.69,480.13L-869.69,492ZM-857.15,492L-857.15,474.19L-853.59,474.19L-853.59,476.56L-852.40,476.56L-852.40,475.38L-851.21,475.38L-851.21,474.19L-847.65,474.19L-847.65,475.38L-846.46,475.38L-846.46,476.56L-844.09,476.56L-844.09,475.38L-842.90,475.38L-842.90,474.19L-838.15,474.19L-838.15,475.38L-836.96,475.38L-836.96,476.56L-835.78,476.56L-835.78,478.94L-834.59,478.94L-834.59,492L-838.15,492L-838.15,478.94L-839.34,478.94L-839.34,477.75L-842.90,477.75L-842.90,478.94L-844.09,478.94L-844.09,492L-847.65,492L-847.65,478.94L-848.84,478.94L-848.84,477.75L-851.21,477.75L-851.21,478.94L-852.40,478.94L-852.40,480.13L-853.59,480.13L-853.59,492ZM-830.69,492L-830.69,474.19L-827.13,474.19L-827.13,492ZM-830.69,471.81L-830.69,468.25L-827.13,468.25L-827.13,471.81ZM-822.97,492L-822.97,474.19L-819.41,474.19L-819.41,476.56L-818.22,476.56L-818.22,475.38L-817.04,475.38L-817.04,474.19L-813.47,474.19L-813.47,475.38L-811.10,475.38L-811.10,476.56L-809.91,476.56L-809.91,478.94L-808.72,478.94L-808.72,492L-812.29,492L-812.29,478.94L-813.47,478.94L-813.47,477.75L-817.04,477.75L-817.04,478.94L-818.22,478.94L-818.22,480.13L-819.41,480.13L-819.41,492ZM-805.38,487.25L-805.38,478.94L-804.20,478.94L-804.20,476.56L-803.01,476.56L-803.01,475.38L-800.63,475.38L-800.63,474.19L-795.88,474.19L-795.88,475.38L-794.70,475.38L-794.70,476.56L-793.51,476.56L-793.51,474.19L-789.95,474.19L-789.95,492L-793.51,492L-793.51,489.63L-794.70,489.63L-794.70,490.81L-795.88,490.81L-795.88,492L-800.63,492L-800.63,490.81L-803.01,490.81L-803.01,489.63L-804.20,489.63L-804.20,487.25ZM-801.82,487.25L-800.63,487.25L-800.63,488.44L-795.88,488.44L-795.88,487.25L-794.70,487.25L-794.70,486.06L-793.51,486.06L-793.51,480.13L-794.70,480.13L-794.70,478.94L-795.88,478.94L-795.88,477.75L-800.63,477.75L-800.63,478.94L-801.82,478.94ZM-785.94,492L-785.94,468.25L-782.38,468.25L-782.38,492ZM-778.89,483.69L-778.89,480.13L-765.82,480.13L-765.82,483.69ZM-762.89,484.88L-762.89,475.38L-761.71,475.38L-761.71,473L-760.52,473L-760.52,471.81L-759.33,471.81L-759.33,470.63L-758.14,470.63L-758.14,469.44L-754.58,469.44L-754.58,468.25L-748.64,468.25L-748.64,469.44L-745.08,469.44L-745.08,470.63L-743.89,470.63L-743.89,473L-742.71,473L-742.71,474.19L-741.52,474.19L-741.52,475.38L-746.27,475.38L-746.27,474.19L-747.46,474.19L-747.46,473L-749.83,473L-749.83,471.81L-753.39,471.81L-753.39,473L-755.77,473L-755.77,474.19L-756.96,474.19L-756.96,475.38L-758.14,475.38L-758.14,477.75L-759.33,477.75L-759.33,482.50L-758.14,482.50L-758.14,484.88L-756.96,484.88L-756.96,486.06L-755.77,486.06L-755.77,487.25L-753.39,487.25L-753.39,488.44L-749.83,488.44L-749.83,487.25L-747.46,487.25L-747.46,486.06L-746.27,486.06L-746.27,484.88L-745.08,484.88L-745.08,482.50L-752.21,482.50L-752.21,478.94L-741.52,478.94L-741.52,486.06L-742.71,486.06L-742.71,487.25L-743.89,487.25L-743.89,489.63L-745.08,489.63L-745.08,490.81L-748.64,490.81L-748.64,492L-754.58,492L-754.58,490.81L-758.14,490.81L-758.14,489.63L-759.33,489.63L-759.33,488.44L-760.52,488.44L-760.52,487.25L-761.71,487.25L-761.71,484.88ZM-737.81,492L-737.81,474.19L-734.24,474.19L-734.24,476.56L-733.06,476.56L-733.06,475.38L-731.87,475.38L-731.87,474.19L-727.12,474.19L-727.12,475.38L-725.93,475.38L-725.93,476.56L-724.74,476.56L-724.74,478.94L-725.93,478.94L-725.93,480.13L-727.12,480.13L-727.12,478.94L-728.31,478.94L-728.31,477.75L-731.87,477.75L-731.87,478.94L-733.06,478.94L-733.06,480.13L-734.24,480.13L-734.24,492ZM-722.11,487.25L-722.11,478.94L-720.92,478.94L-720.92,476.56L-719.73,476.56L-719.73,475.38L-717.36,475.38L-717.36,474.19L-712.61,474.19L-712.61,475.38L-710.23,475.38L-710.23,476.56L-709.05,476.56L-709.05,478.94L-707.86,478.94L-707.86,487.25L-709.05,487.25L-709.05,489.63L-710.23,489.63L-710.23,490.81L-712.61,490.81L-712.61,492L-717.36,492L-717.36,490.81L-719.73,490.81L-719.73,489.63L-720.92,489.63L-720.92,487.25ZM-718.55,487.25L-717.36,487.25L-717.36,488.44L-712.61,488.44L-712.61,487.25L-711.42,487.25L-711.42,478.94L-712.61,478.94L-712.61,477.75L-717.36,477.75L-717.36,478.94L-718.55,478.94ZM-704.85,477.75L-704.85,474.19L-702.48,474.19L-702.48,469.44L-698.92,469.44L-698.92,474.19L-694.17,474.19L-694.17,477.75L-698.92,477.75L-698.92,492L-702.48,492L-702.48,477.75ZM-691.38,487.25L-691.38,478.94L-690.20,478.94L-690.20,476.56L-689.01,476.56L-689.01,475.38L-686.63,475.38L-686.63,474.19L-681.88,474.19L-681.88,475.38L-679.51,475.38L-679.51,476.56L-678.32,476.56L-678.32,478.94L-677.13,478.94L-677.13,483.69L-687.82,483.69L-687.82,487.25L-686.63,487.25L-686.63,488.44L-681.88,488.44L-681.88,487.25L-680.70,487.25L-680.70,486.06L-677.13,486.06L-677.13,488.44L-678.32,488.44L-678.32,489.63L-679.51,489.63L-679.51,490.81L-681.88,490.81L-681.88,492L-686.63,492L-686.63,490.81L-689.01,490.81L-689.01,489.63L-690.20,489.63L-690.20,487.25ZM-687.82,481.31L-680.70,481.31L-680.70,478.94L-681.88,478.94L-681.88,477.75L-686.63,477.75L-686.63,478.94L-687.82,478.94ZM-673.79,489.63L-673.79,487.25L-672.61,487.25L-672.61,486.06L-671.42,486.06L-671.42,487.25L-670.23,487.25L-670.23,488.44L-669.04,488.44L-669.04,489.63L-666.67,489.63L-666.67,488.44L-665.48,488.44L-665.48,486.06L-666.67,486.06L-666.67,484.88L-667.86,484.88L-667.86,483.69L-670.23,483.69L-670.23,482.50L-671.42,482.50L-671.42,481.31L-672.61,481.31L-672.61,480.13L-673.79,480.13L-673.79,476.56L-672.61,476.56L-672.61,475.38L-671.42,475.38L-671.42,474.19L-664.29,474.19L-664.29,475.38L-663.11,475.38L-663.11,478.94L-665.48,478.94L-665.48,477.75L-666.67,477.75L-666.67,476.56L-669.04,476.56L-669.04,477.75L-670.23,477.75L-670.23,478.94L-669.04,478.94L-669.04,480.13L-667.86,480.13L-667.86,481.31L-665.48,481.31L-665.48,482.50L-664.29,482.50L-664.29,483.69L-663.11,483.69L-663.11,484.88L-661.92,484.88L-661.92,489.63L-663.11,489.63L-663.11,490.81L-664.29,490.81L-664.29,492L-671.42,492L-671.42,490.81L-672.61,490.81L-672.61,489.63ZM-658.76,487.25L-658.76,478.94L-657.58,478.94L-657.58,476.56L-656.39,476.56L-656.39,475.38L-654.01,475.38L-654.01,474.19L-649.26,474.19L-649.26,475.38L-648.08,475.38L-648.08,476.56L-646.89,476.56L-646.89,474.19L-643.33,474.19L-643.33,499.13L-646.89,499.13L-646.89,489.63L-648.08,489.63L-648.08,490.81L-649.26,490.81L-649.26,492L-654.01,492L-654.01,490.81L-656.39,490.81L-656.39,489.63L-657.58,489.63L-657.58,487.25ZM-655.20,487.25L-654.01,487.25L-654.01,488.44L-649.26,488.44L-649.26,487.25L-648.08,487.25L-648.08,486.06L-646.89,486.06L-646.89,480.13L-648.08,480.13L-648.08,478.94L-649.26,478.94L-649.26,477.75L-654.01,477.75L-654.01,478.94L-655.20,478.94ZM-639.28,489.63L-639.28,474.19L-635.72,474.19L-635.72,487.25L-634.53,487.25L-634.53,488.44L-630.97,488.44L-630.97,487.25L-629.78,487.25L-629.78,486.06L-628.59,486.06L-628.59,474.19L-625.03,474.19L-625.03,492L-628.59,492L-628.59,489.63L-629.78,489.63L-629.78,490.81L-630.97,490.81L-630.97,492L-636.91,492L-636.91,490.81L-638.09,490.81L-638.09,489.63ZM-621.58,487.25L-621.58,478.94L-620.39,478.94L-620.39,476.56L-619.21,476.56L-619.21,475.38L-616.83,475.38L-616.83,474.19L-612.08,474.19L-612.08,475.38L-609.71,475.38L-609.71,476.56L-608.52,476.56L-608.52,478.94L-607.33,478.94L-607.33,483.69L-618.02,483.69L-618.02,487.25L-616.83,487.25L-616.83,488.44L-612.08,488.44L-612.08,487.25L-610.89,487.25L-610.89,486.06L-607.33,486.06L-607.33,488.44L-608.52,488.44L-608.52,489.63L-609.71,489.63L-609.71,490.81L-612.08,490.81L-612.08,492L-616.83,492L-616.83,490.81L-619.21,490.81L-619.21,489.63L-620.39,489.63L-620.39,487.25ZM-618.02,481.31L-610.89,481.31L-610.89,478.94L-612.08,478.94L-612.08,477.75L-616.83,477.75L-616.83,478.94L-618.02,478.94Z"/>
</svg>