<?xml version="1.0"?>
<svg xmlns="http://www.w3.org/2000/svg" width="1920" height="1080" viewBox="-960 -540 1920 1080">
    <path d="M-439.56,-280.20L-448.44,-333.48L-466.20,-324.60L-510.60,-333.48L-537.24,-315.72L-546.12,-289.08L-537.24,-253.56L-519.48,-218.04L-501.72,-191.40L-501.72,-173.64L-510.60,-164.76L-528.36,-155.88L-555,-155.88L-581.64,-200.28L-590.52,-200.28L-581.64,-138.12L-563.88,-147L-519.48,-138.12L-483.96,-155.88L-475.08,-191.40L-483.96,-226.92L-501.72,-262.44L-519.48,-289.08L-510.60,-306.84L-501.72,-315.72L-475.08,-315.72L-448.44,-280.20ZM-359.64,-289.08L-350.76,-289.08L-341.88,-306.84L-341.88,-315.72L-359.64,-324.60L-368.52,-324.60L-377.40,-306.84L-377.40,-297.96ZM-457.32,-218.04L-448.44,-209.16L-404.04,-253.56L-395.16,-253.56L-448.44,-164.76L-448.44,-155.88L-439.56,-147L-421.80,-147L-404.04,-155.88L-359.64,-200.28L-368.52,-209.16L-412.92,-164.76L-421.80,-164.76L-368.52,-253.56L-368.52,-262.44L-386.28,-271.32L-412.92,-262.44ZM-270.84,-147L-261.96,-147L-244.20,-155.88L-199.80,-200.28L-208.68,-209.16L-253.08,-164.76L-261.96,-164.76L-182.04,-333.48L-244.20,-333.48L-244.20,-324.60L-217.56,-324.60L-244.20,-244.68L-253.08,-262.44L-288.60,-271.32L-333,-235.80L-350.76,-191.40L-341.88,-155.88L-324.12,-147L-306.36,-147L-279.72,-173.64L-279.72,-155.88ZM-306.36,-164.76L-315.24,-164.76L-324.12,-191.40L-306.36,-226.92L-279.72,-253.56L-261.96,-253.56L-253.08,-235.80L-253.08,-226.92L-279.72,-191.40ZM-75.48,-226.92L-75.48,-244.68L-84.36,-262.44L-119.88,-271.32L-164.28,-244.68L-190.92,-191.40L-182.04,-155.88L-164.28,-147L-146.52,-147L-128.76,-155.88L-93.24,-191.40L-102.12,-200.28L-137.64,-164.76L-155.40,-164.76L-164.28,-191.40L-146.52,-226.92L-119.88,-253.56L-102.12,-253.56L-102.12,-226.92L-119.88,-218.04L-146.52,-218.04L-146.52,-209.16L-102.12,-209.16ZM-75.48,-218.04L-66.60,-209.16L-22.20,-253.56L-13.32,-253.56L-66.60,-155.88L-57.72,-147L-39.96,-147L-4.44,-218.04L22.20,-244.68L39.96,-253.56L48.84,-244.68L4.44,-164.76L4.44,-155.88L13.32,-147L31.08,-147L48.84,-155.88L93.24,-200.28L84.36,-209.16L39.96,-164.76L31.08,-164.76L75.48,-235.80L75.48,-262.44L48.84,-271.32L22.20,-262.44L-4.44,-235.80L4.44,-253.56L4.44,-262.44L-4.44,-271.32L-31.08,-262.44ZM137.64,-147L155.40,-147L199.80,-173.64L226.44,-226.92L208.68,-262.44L173.16,-271.32L128.76,-244.68L102.12,-191.40L119.88,-155.88ZM173.16,-253.56L190.92,-253.56L199.80,-226.92L182.04,-191.40L155.40,-164.76L137.64,-164.76L128.76,-191.40L146.52,-226.92ZM261.96,-164.76L306.36,-253.56L333,-253.56L333,-262.44L306.36,-262.44L324.12,-297.96L306.36,-297.96L297.48,-271.32L279.72,-262.44L261.96,-262.44L261.96,-253.56L279.72,-253.56L235.32,-164.76L235.32,-155.88L244.20,-147L261.96,-147L279.72,-155.88L324.12,-200.28L315.24,-209.16L270.84,-164.76ZM457.32,-226.92L457.32,-244.68L448.44,-262.44L412.92,-271.32L368.52,-244.68L341.88,-191.40L350.76,-155.88L368.52,-147L386.28,-147L404.04,-155.88L439.56,-191.40L430.68,-200.28L395.16,-164.76L377.40,-164.76L368.52,-191.40L386.28,-226.92L412.92,-253.56L430.68,-253.56L430.68,-226.92L412.92,-218.04L386.28,-218.04L386.28,-209.16L430.68,-209.16ZM501.72,-226.92L510.60,-226.92L519.48,-244.68L519.48,-253.56L501.72,-262.44L492.84,-262.44L483.96,-244.68L483.96,-235.80ZM475.08,-147L483.96,-147L492.84,-164.76L492.84,-173.64L475.08,-182.52L466.20,-182.52L457.32,-164.76L457.32,-155.88ZM-714.84,23.50L-714.84,-3.14L-697.08,-56.42L-652.68,-91.94L-634.92,-91.94L-617.16,-74.18L-617.16,-47.54L-599.40,-47.54L-581.64,-65.30L-590.52,-83.06L-634.92,-100.82L-661.56,-100.82L-697.08,-83.06L-723.72,-56.42L-741.48,-29.78L-750.36,14.62L-732.60,59.02L-697.08,76.78L-661.56,76.78L-634.92,59.02L-608.28,32.38L-617.16,23.50L-643.80,50.14L-670.44,67.90L-688.20,67.90L-705.96,59.02ZM-572.76,59.02L-492.84,-109.70L-555.00,-109.70L-555.00,-100.82L-528.36,-100.82L-599.40,59.02L-599.40,67.90L-581.64,76.78L-555.00,67.90L-510.60,23.50L-519.48,14.62L-563.88,59.02ZM-412.92,-65.30L-404.04,-65.30L-395.16,-83.06L-395.16,-91.94L-412.92,-100.82L-421.80,-100.82L-430.68,-83.06L-430.68,-74.18ZM-510.60,5.74L-501.72,14.62L-457.32,-29.78L-448.44,-29.78L-501.72,59.02L-501.72,67.90L-492.84,76.78L-475.08,76.78L-457.32,67.90L-412.92,23.50L-421.80,14.62L-466.20,59.02L-475.08,59.02L-421.80,-29.78L-421.80,-38.66L-439.56,-47.54L-466.20,-38.66ZM-270.84,-3.14L-253.08,-20.90L-235.32,-29.78L-226.44,-20.90L-270.84,59.02L-270.84,67.90L-261.96,76.78L-244.20,76.78L-226.44,67.90L-182.04,23.50L-190.92,14.62L-235.32,59.02L-244.20,59.02L-199.80,-12.02L-199.80,-38.66L-226.44,-47.54L-253.08,-38.66L-270.84,-20.90L-270.84,-38.66L-288.60,-47.54L-315.24,-38.66L-341.88,-12.02L-333.00,-29.78L-333.00,-38.66L-341.88,-47.54L-368.52,-38.66L-412.92,5.74L-404.04,14.62L-359.64,-29.78L-350.76,-29.78L-404.04,67.90L-395.16,76.78L-377.40,76.78L-341.88,5.74L-315.24,-20.90L-297.48,-29.78L-288.60,-20.90L-333.00,67.90L-324.12,76.78L-306.36,76.78ZM-39.96,-38.66L-48.84,-47.54L-66.60,-20.90L-75.48,-38.66L-111.00,-47.54L-155.40,-12.02L-173.16,32.38L-164.28,67.90L-146.52,76.78L-128.76,76.78L-102.12,50.14L-102.12,67.90L-93.24,76.78L-66.60,67.90L-22.20,23.50L-31.08,14.62L-75.48,59.02L-84.36,59.02ZM-128.76,59.02L-137.64,59.02L-146.52,32.38L-128.76,-3.14L-102.12,-29.78L-84.36,-29.78L-75.48,-12.02L-75.48,-3.14L-102.12,32.38ZM4.44,59.02L48.84,-29.78L75.48,-29.78L75.48,-38.66L48.84,-38.66L66.60,-74.18L48.84,-74.18L39.96,-47.54L22.20,-38.66L4.44,-38.66L4.44,-29.78L22.20,-29.78L-22.20,59.02L-22.20,67.90L-13.32,76.78L4.44,76.78L22.20,67.90L66.60,23.50L57.72,14.62L13.32,59.02ZM199.80,-3.14L199.80,-20.90L190.92,-38.66L155.40,-47.54L111.00,-20.90L84.36,32.38L93.24,67.90L111.00,76.78L128.76,76.78L146.52,67.90L182.04,32.38L173.16,23.50L137.64,59.02L119.88,59.02L111.00,32.38L128.76,-3.14L155.40,-29.78L173.16,-29.78L173.16,-3.14L155.40,5.74L128.76,5.74L128.76,14.62L173.16,14.62ZM244.20,-100.82L261.96,-83.06L217.56,59.02L199.80,76.78L288.60,76.78L333.00,59.02L359.64,23.50L350.76,-12.02L324.12,-20.90L341.88,-29.78L368.52,-56.42L359.64,-91.94L315.24,-100.82ZM244.20,59.02L288.60,-83.06L297.48,-91.94L315.24,-91.94L333.00,-83.06L333.00,-56.42L315.24,-29.78L288.60,-20.90L270.84,-20.90L270.84,-12.02L297.48,-12.02L315.24,-3.14L324.12,23.50L306.36,50.14L270.84,67.90L253.08,67.90ZM510.60,-38.66L501.72,-47.54L483.96,-20.90L475.08,-38.66L439.56,-47.54L395.16,-12.02L377.40,32.38L386.28,67.90L404.04,76.78L421.80,76.78L448.44,50.14L448.44,67.90L457.32,76.78L483.96,67.90L528.36,23.50L519.48,14.62L475.08,59.02L466.20,59.02ZM421.80,59.02L412.92,59.02L404.04,32.38L421.80,-3.14L448.44,-29.78L466.20,-29.78L475.08,-12.02L475.08,-3.14L448.44,32.38ZM546.12,67.90L546.12,41.26L537.24,32.38L519.48,41.26L519.48,67.90L537.24,76.78L555.00,76.78L581.64,67.90L599.40,50.14L599.40,32.38L590.52,-12.02L590.52,-29.78L608.28,-38.66L608.28,-12.02L617.16,-3.14L634.92,-12.02L634.92,-38.66L608.28,-47.54L572.76,-38.66L563.88,-20.90L563.88,-3.14L572.76,32.38L572.76,50.14L555.00,67.90ZM759.24,-3.14L759.24,-20.90L750.36,-38.66L714.84,-47.54L670.44,-20.90L643.80,32.38L652.68,67.90L670.44,76.78L688.20,76.78L705.96,67.90L741.48,32.38L732.60,23.50L697.08,59.02L679.32,59.02L670.44,32.38L688.20,-3.14L714.84,-29.78L732.60,-29.78L732.60,-3.14L714.84,5.74L688.20,5.74L688.20,14.62L732.60,14.62Z" fill="#ffffff" stroke="#000000"/>
    <path d="M-441.94,-273.08L-450.90,-325.80L-468.45,-316.95L-512.43,-325.61L-538.75,-307.94L-547.46,-281.54L-538.57,-246.41L-520.88,-211.29L-503.21,-184.98L-503.16,-167.39L-511.92,-158.57L-529.48,-149.73L-555.85,-149.65L-582.36,-193.52L-591.15,-193.50L-582.17,-131.99L-564.62,-140.83L-520.63,-132.17L-485.52,-149.86L-476.84,-185.06L-485.74,-220.19L-503.43,-255.30L-521.09,-281.62L-512.35,-299.23L-503.59,-308.05L-477.22,-308.13L-450.73,-273.05ZM-362.85,-282.11L-354.06,-282.14L-345.32,-299.74L-345.35,-308.54L-362.96,-317.27L-371.75,-317.25L-380.49,-299.64L-380.46,-290.85ZM-459.34,-211.48L-450.52,-202.72L-406.70,-246.81L-397.91,-246.84L-450.38,-158.76L-450.36,-149.97L-441.54,-141.21L-423.96,-141.26L-406.40,-150.11L-362.58,-194.20L-371.40,-202.96L-415.22,-158.87L-424.01,-158.84L-371.53,-246.92L-371.56,-255.71L-389.17,-264.45L-415.52,-255.57ZM-274.51,-141.72L-265.72,-141.75L-248.16,-150.59L-204.34,-194.68L-213.16,-203.45L-256.98,-159.36L-265.77,-159.33L-187.16,-326.60L-248.70,-326.41L-248.67,-317.62L-222.30,-317.70L-248.43,-238.50L-257.27,-256.06L-292.47,-264.74L-336.31,-229.44L-353.76,-185.43L-344.86,-150.30L-327.25,-141.56L-309.67,-141.61L-283.38,-168.07L-283.33,-150.48ZM-309.73,-159.19L-318.52,-159.17L-327.39,-185.51L-309.91,-220.73L-283.62,-247.19L-266.04,-247.24L-257.19,-229.69L-257.17,-220.89L-283.43,-185.65ZM-81.34,-221.43L-81.40,-239.01L-90.24,-256.57L-125.43,-265.25L-169.31,-238.75L-195.52,-185.92L-186.62,-150.78L-169.01,-142.04L-151.43,-142.10L-133.88,-150.94L-98.82,-186.21L-107.64,-194.98L-142.69,-159.71L-160.28,-159.65L-169.15,-186.00L-151.67,-221.22L-125.38,-247.67L-107.80,-247.73L-107.72,-221.35L-125.27,-212.51L-151.65,-212.43L-151.62,-203.63L-107.66,-203.77ZM-81.32,-212.64L-72.50,-203.88L-28.68,-247.97L-19.89,-247.99L-72.34,-151.13L-63.52,-142.37L-45.94,-142.42L-10.99,-212.86L15.30,-239.31L32.86,-248.16L41.68,-239.39L-2.04,-160.14L-2.01,-151.35L6.81,-142.58L24.39,-142.64L41.95,-151.48L85.77,-195.57L76.95,-204.34L33.13,-160.24L24.34,-160.22L68.08,-230.68L68.00,-257.06L41.60,-265.77L15.25,-256.89L-11.04,-230.44L-2.30,-248.05L-2.33,-256.84L-11.15,-265.60L-37.50,-256.73ZM129.89,-142.96L147.47,-143.01L191.34,-169.52L217.56,-222.35L199.87,-257.46L164.67,-266.14L120.80,-239.63L94.59,-186.81L112.28,-151.70ZM164.73,-248.56L182.31,-248.61L191.18,-222.27L173.71,-187.05L147.41,-160.59L129.83,-160.54L120.96,-186.89L138.43,-222.11ZM252.91,-160.92L296.59,-248.96L322.97,-249.05L322.94,-257.84L296.57,-257.76L314.04,-292.97L296.46,-292.92L287.75,-266.52L270.19,-257.67L252.61,-257.62L252.64,-248.83L270.22,-248.88L226.54,-160.84L226.56,-152.05L235.38,-143.28L252.96,-143.34L270.52,-152.18L314.34,-196.27L305.52,-205.04L261.70,-160.94ZM446.13,-223.05L446.07,-240.63L437.23,-258.19L402.04,-266.87L358.16,-240.36L331.95,-187.53L340.85,-152.40L358.46,-143.66L376.04,-143.71L393.59,-152.56L428.65,-187.83L419.83,-196.59L384.78,-161.32L367.19,-161.27L358.32,-187.61L375.80,-222.83L402.09,-249.29L419.67,-249.34L419.75,-222.97L402.20,-214.12L375.82,-214.04L375.85,-205.25L419.81,-205.39ZM490.08,-223.18L498.87,-223.21L507.61,-240.82L507.58,-249.61L489.97,-258.35L481.18,-258.32L472.45,-240.71L472.47,-231.92ZM463.95,-143.98L472.74,-144.01L481.48,-161.62L481.45,-170.41L463.84,-179.15L455.05,-179.12L446.31,-161.51L446.34,-152.72ZM-713.55,28.42L-713.63,2.04L-696.21,-50.76L-652.36,-86.06L-634.78,-86.11L-617.14,-68.58L-617.06,-42.21L-599.48,-42.26L-581.95,-59.90L-590.79,-77.45L-634.80,-94.90L-661.18,-94.82L-696.29,-77.13L-722.58,-50.68L-740.08,-24.25L-748.74,19.73L-731.02,63.64L-695.80,81.11L-660.64,81.00L-634.32,63.34L-608.03,36.89L-616.85,28.12L-643.14,54.58L-669.46,72.24L-687.04,72.29L-704.65,63.56ZM-572.78,63.15L-494.17,-104.12L-555.71,-103.93L-555.68,-95.14L-529.31,-95.22L-599.15,63.23L-599.13,72.02L-581.52,80.76L-555.17,71.89L-511.35,27.80L-520.17,19.03L-563.99,63.12ZM-414.92,-60.41L-406.13,-60.44L-397.39,-78.05L-397.42,-86.84L-415.03,-95.57L-423.82,-95.55L-432.55,-77.94L-432.53,-69.15ZM-511.41,10.22L-502.59,18.98L-458.77,-25.11L-449.97,-25.14L-502.45,62.94L-502.43,71.73L-493.61,80.49L-476.02,80.44L-458.47,71.59L-414.65,27.50L-423.47,18.74L-467.29,62.83L-476.08,62.85L-423.60,-25.22L-423.63,-34.01L-441.24,-42.75L-467.58,-33.87ZM-274.07,0.70L-256.54,-16.94L-238.99,-25.78L-230.17,-17.02L-273.88,62.24L-273.86,71.03L-265.04,79.79L-247.45,79.74L-229.90,70.89L-186.08,26.80L-194.90,18.04L-238.72,62.13L-247.51,62.15L-203.77,-8.31L-203.85,-34.68L-230.25,-43.39L-256.60,-34.52L-274.12,-16.89L-274.18,-34.47L-291.79,-43.20L-318.13,-34.33L-344.43,-7.88L-335.69,-25.49L-335.72,-34.28L-344.53,-43.04L-370.88,-34.17L-414.70,9.92L-405.88,18.68L-362.06,-25.41L-353.27,-25.43L-405.72,71.43L-396.90,80.19L-379.32,80.14L-344.37,9.70L-318.08,-16.75L-300.52,-25.60L-291.71,-16.83L-335.39,71.21L-326.58,79.98L-308.99,79.93ZM-45.61,-35.17L-54.43,-43.93L-71.93,-17.50L-80.77,-35.06L-115.96,-43.74L-159.81,-8.44L-177.26,35.57L-168.36,70.70L-150.75,79.44L-133.17,79.39L-106.88,52.93L-106.82,70.51L-98.01,79.28L-71.66,70.41L-27.84,26.32L-36.66,17.55L-80.48,61.64L-89.27,61.67ZM-133.22,61.80L-142.01,61.83L-150.89,35.48L-133.41,0.27L-107.12,-26.19L-89.54,-26.24L-80.69,-8.69L-80.67,0.10L-106.93,35.35ZM-1.36,61.40L42.33,-26.65L68.70,-26.73L68.68,-35.52L42.30,-35.44L59.78,-70.66L42.20,-70.60L33.49,-44.20L15.93,-35.36L-1.65,-35.30L-1.63,-26.51L15.96,-26.57L-27.73,61.48L-27.70,70.27L-18.88,79.04L-1.30,78.98L16.25,70.14L60.07,26.05L51.26,17.28L7.44,61.37ZM191.86,-0.73L191.81,-18.31L182.96,-35.87L147.77,-44.55L103.90,-18.04L77.68,34.78L86.58,69.92L104.19,78.66L121.77,78.61L139.33,69.76L174.39,34.49L165.57,25.72L130.51,61.00L112.93,61.05L104.06,34.70L121.53,-0.51L147.82,-26.97L165.41,-27.02L165.49,-0.65L147.93,8.20L121.56,8.28L121.59,17.07L165.54,16.93ZM235.52,-97.57L253.16,-80.04L209.63,60.75L192.10,78.39L280.01,78.12L323.92,60.40L350.18,25.16L341.28,-9.98L314.88,-18.69L332.44,-27.53L358.73,-53.99L349.83,-89.13L305.85,-97.78ZM236.01,60.67L279.53,-80.12L288.29,-88.94L305.88,-88.99L323.49,-80.25L323.57,-53.88L306.06,-27.45L279.72,-18.58L262.14,-18.53L262.16,-9.74L288.54,-9.82L306.15,-1.08L315.02,25.27L297.52,51.69L262.41,69.38L244.82,69.44ZM499.44,-36.84L490.63,-45.60L473.12,-19.17L464.28,-36.73L429.09,-45.41L385.24,-10.11L367.79,33.90L376.69,69.03L394.30,77.77L411.88,77.72L438.17,51.26L438.23,68.84L447.05,77.61L473.39,68.74L517.21,24.65L508.40,15.88L464.58,59.97L455.78,60.00ZM411.83,60.13L403.04,60.16L394.17,33.81L411.64,-1.40L437.93,-27.86L455.51,-27.91L464.36,-10.36L464.39,-1.57L438.12,33.68ZM534.93,68.55L534.85,42.17L526.03,33.41L508.48,42.26L508.56,68.63L526.17,77.37L543.75,77.31L570.10,68.44L587.62,50.80L587.57,33.22L578.64,-10.71L578.59,-28.29L596.15,-37.13L596.23,-10.76L605.05,-2.00L622.60,-10.84L622.52,-37.21L596.12,-45.93L560.98,-37.03L552.24,-19.42L552.30,-1.83L561.20,33.30L561.25,50.89L543.72,68.52ZM745.70,-2.43L745.65,-20.01L736.80,-37.57L701.61,-46.25L657.74,-19.74L631.53,33.09L640.43,68.23L658.03,76.96L675.62,76.91L693.17,68.06L728.23,32.79L719.41,24.03L684.35,59.30L666.77,59.35L657.90,33.01L675.37,-2.21L701.67,-28.67L719.25,-28.72L719.33,-2.35L701.77,6.50L675.40,6.58L675.43,15.37L719.38,15.24Z" fill="#ffffff" stroke="#000000"/>
    <path d="M-444.17,-266.00L-453.19,-318.16L-470.54,-309.35L-514.10,-317.79L-540.11,-300.22L-548.65,-274.06L-539.73,-239.31L-522.11,-204.60L-504.55,-178.60L-504.44,-161.20L-513.09,-152.44L-530.44,-143.63L-556.55,-143.47L-582.92,-186.83L-591.63,-186.77L-582.55,-125.91L-565.20,-134.72L-521.63,-126.28L-486.93,-143.90L-478.44,-178.76L-487.36,-213.52L-504.98,-248.22L-522.54,-274.22L-513.95,-291.68L-505.30,-300.43L-479.19,-300.59L-452.87,-265.95ZM-365.90,-275.18L-357.20,-275.23L-348.60,-292.69L-348.66,-301.39L-366.11,-309.99L-374.82,-309.94L-383.41,-292.48L-383.36,-283.78ZM-461.20,-204.98L-452.44,-196.33L-409.20,-240.11L-400.50,-240.16L-452.18,-152.82L-452.12,-144.11L-443.37,-135.47L-425.96,-135.57L-408.61,-144.38L-365.37,-188.16L-374.12,-196.81L-417.37,-153.03L-426.07,-152.98L-374.39,-240.32L-374.44,-249.02L-391.90,-257.62L-417.95,-248.75ZM-278.02,-136.48L-269.32,-136.53L-251.97,-145.34L-208.73,-189.12L-217.48,-197.77L-260.73,-153.99L-269.43,-153.94L-192.12,-319.76L-253.04,-319.39L-252.98,-310.68L-226.88,-310.84L-252.50,-232.36L-261.31,-249.71L-296.18,-258.20L-339.47,-223.13L-356.61,-179.51L-347.70,-144.75L-330.24,-136.16L-312.83,-136.27L-286.89,-162.53L-286.78,-145.13ZM-312.94,-153.67L-321.64,-153.62L-330.50,-179.67L-313.31,-214.59L-287.37,-240.85L-269.96,-240.96L-261.15,-223.61L-261.10,-214.91L-286.99,-179.94ZM-87.06,-215.97L-87.16,-233.38L-95.97,-250.73L-130.83,-259.22L-174.18,-232.84L-199.97,-180.47L-191.06,-145.71L-173.60,-137.12L-156.19,-137.23L-138.84,-146.03L-104.25,-181.06L-113.00,-189.71L-147.60,-154.68L-165.00,-154.58L-173.86,-180.63L-156.67,-215.55L-130.73,-241.81L-113.32,-241.92L-113.16,-215.81L-130.51,-207.00L-156.62,-206.84L-156.57,-198.14L-113.06,-198.41ZM-87.00,-207.27L-78.25,-198.62L-35.00,-242.40L-26.30,-242.45L-77.93,-146.41L-69.17,-137.76L-51.77,-137.87L-17.38,-207.70L8.56,-233.96L25.91,-242.77L34.67,-234.12L-8.36,-155.54L-8.31,-146.83L0.45,-138.19L17.85,-138.29L35.20,-147.10L78.45,-190.88L69.69,-199.53L26.45,-155.75L17.74,-155.70L60.83,-225.58L60.67,-251.69L34.51,-260.23L8.46,-251.37L-17.49,-225.10L-8.90,-242.56L-8.95,-251.26L-17.70,-259.91L-43.76,-251.05ZM122.28,-138.93L139.68,-139.04L183.03,-165.41L208.82,-217.79L191.20,-252.49L156.34,-260.98L112.99,-234.60L87.20,-182.23L104.82,-147.53ZM156.45,-243.57L173.85,-243.68L182.71,-217.63L165.52,-182.71L139.58,-156.44L122.17,-156.34L113.31,-182.39L130.50,-217.31ZM244.00,-157.08L286.98,-244.37L313.09,-244.53L313.03,-253.23L286.93,-253.07L304.12,-287.99L286.71,-287.88L278.17,-261.72L260.82,-252.91L243.42,-252.81L243.47,-244.11L260.87,-244.21L217.90,-156.92L217.95,-148.22L226.71,-139.57L244.11,-139.68L261.46,-148.49L304.71,-192.27L295.95,-200.91L252.71,-157.14ZM435.08,-219.17L434.97,-236.58L426.16,-253.93L391.30,-262.42L347.95,-236.04L322.16,-183.67L331.08,-148.91L348.54,-140.32L365.94,-140.43L383.29,-149.23L417.89,-184.26L409.13,-192.91L374.54,-157.88L357.13,-157.78L348.27,-183.83L365.46,-218.75L391.41,-245.01L408.81,-245.12L408.97,-219.01L391.62,-210.20L365.51,-210.04L365.57,-201.34L409.08,-201.61ZM478.59,-219.44L487.29,-219.49L495.89,-236.95L495.83,-245.65L478.38,-254.25L469.67,-254.19L461.08,-236.74L461.13,-228.03ZM452.96,-140.96L461.67,-141.01L470.26,-158.47L470.21,-167.17L452.75,-175.77L444.05,-175.71L435.45,-158.26L435.51,-149.55ZM-712.11,33.27L-712.27,7.16L-695.19,-45.16L-651.89,-80.23L-634.49,-80.34L-616.97,-63.04L-616.81,-36.93L-599.41,-37.04L-582.11,-54.55L-590.92,-71.90L-634.54,-89.04L-660.65,-88.88L-695.35,-71.26L-721.29,-45.00L-738.54,-18.78L-746.97,24.78L-729.30,68.19L-694.39,85.38L-659.58,85.16L-633.58,67.60L-607.63,41.33L-616.39,32.68L-642.33,58.95L-668.33,76.51L-685.74,76.62L-703.20,68.03ZM-572.66,67.23L-495.36,-98.60L-556.27,-98.22L-556.22,-89.52L-530.11,-89.68L-598.77,67.39L-598.72,76.09L-581.26,84.68L-555.21,75.82L-511.96,32.04L-520.72,23.39L-563.96,67.17ZM-416.77,-55.57L-408.07,-55.62L-399.47,-73.08L-399.53,-81.78L-416.98,-90.37L-425.69,-90.32L-434.28,-72.86L-434.23,-64.16ZM-512.07,14.64L-503.31,23.29L-460.07,-20.49L-451.37,-20.54L-503.05,66.80L-502.99,75.50L-494.24,84.15L-476.83,84.04L-459.48,75.24L-416.24,31.46L-424.99,22.81L-468.24,66.59L-476.94,66.64L-425.26,-20.70L-425.31,-29.41L-442.77,-38.00L-468.82,-29.14ZM-277.16,4.50L-259.86,-13.01L-242.51,-21.82L-233.76,-13.17L-276.79,65.41L-276.73,74.12L-267.98,82.76L-250.57,82.66L-233.22,73.85L-189.98,30.07L-198.73,21.42L-241.98,65.20L-250.68,65.25L-207.60,-4.63L-207.76,-30.74L-233.92,-39.28L-259.97,-30.42L-277.27,-12.91L-277.37,-30.31L-294.83,-38.91L-320.89,-30.04L-346.83,-3.78L-338.24,-21.24L-338.29,-29.94L-347.05,-38.59L-373.10,-29.73L-416.34,14.05L-407.59,22.70L-364.34,-21.08L-355.64,-21.13L-407.27,74.92L-398.51,83.56L-381.11,83.46L-346.73,13.63L-320.78,-12.64L-303.43,-21.45L-294.67,-12.80L-337.65,74.49L-328.89,83.14L-311.49,83.03ZM-51.12,-31.70L-59.87,-40.35L-77.12,-14.13L-85.92,-31.48L-120.79,-39.97L-164.08,-4.90L-181.22,38.72L-172.31,73.48L-154.85,82.07L-137.45,81.96L-111.50,55.70L-111.39,73.10L-102.64,81.75L-76.58,72.89L-33.34,29.11L-42.09,20.46L-85.34,64.24L-94.04,64.29ZM-137.55,64.56L-146.25,64.61L-155.12,38.56L-137.92,3.64L-111.98,-22.62L-94.57,-22.73L-85.76,-5.38L-85.71,3.32L-111.60,38.29ZM-7.02,63.76L35.96,-23.53L62.07,-23.69L62.01,-32.39L35.91,-32.23L53.10,-67.15L35.69,-67.04L27.15,-40.88L9.80,-32.07L-7.60,-31.96L-7.55,-23.26L9.85,-23.37L-33.12,63.92L-33.07,72.62L-24.32,81.27L-6.91,81.16L10.44,72.36L53.68,28.58L44.93,19.93L1.68,63.71ZM184.06,1.67L183.95,-15.73L175.14,-33.08L140.28,-41.57L96.93,-15.20L71.14,37.17L80.06,71.93L97.52,80.52L114.92,80.42L132.27,71.61L166.87,36.59L158.11,27.94L123.52,62.96L106.11,63.07L97.25,37.01L114.44,2.10L140.39,-24.17L157.79,-24.28L157.95,1.83L140.60,10.64L114.49,10.80L114.55,19.50L158.06,19.24ZM226.98,-94.32L244.49,-77.02L201.84,62.48L184.54,79.99L271.56,79.46L314.96,61.79L340.86,26.82L331.94,-7.94L305.78,-16.48L323.13,-25.29L349.08,-51.56L340.16,-86.31L296.60,-94.75ZM227.94,62.32L270.60,-77.18L279.25,-85.94L296.65,-86.04L314.11,-77.45L314.27,-51.34L297.03,-25.13L270.97,-16.27L253.57,-16.16L253.62,-7.46L279.73,-7.62L297.19,0.98L306.05,27.03L288.80,53.24L254.10,70.86L236.70,70.97ZM488.42,-35.00L479.67,-43.65L462.42,-17.44L453.61,-34.79L418.75,-43.28L375.45,-8.20L358.32,35.41L367.23,70.17L384.69,78.76L402.09,78.66L428.04,52.39L428.15,69.80L436.90,78.44L462.96,69.58L506.20,25.80L497.44,17.16L454.20,60.93L445.50,60.99ZM401.99,61.25L393.28,61.31L384.42,35.25L401.61,0.34L427.56,-25.93L444.96,-26.04L453.77,-8.68L453.83,0.02L427.93,34.99ZM523.87,69.21L523.71,43.10L514.96,34.45L497.60,43.26L497.76,69.37L515.22,77.96L532.63,77.86L558.68,69.00L575.98,51.48L575.87,34.08L566.90,-9.38L566.80,-26.78L584.15,-35.59L584.31,-9.48L593.06,-0.84L610.41,-9.64L610.25,-35.75L584.09,-44.29L549.34,-35.38L540.74,-17.92L540.85,-0.52L549.77,34.24L549.87,51.64L532.57,69.16ZM732.30,-1.69L732.19,-19.09L723.38,-36.44L688.52,-44.93L645.17,-18.56L619.38,33.81L628.30,68.57L645.76,77.16L663.16,77.06L680.51,68.25L715.11,33.23L706.35,24.58L671.76,59.60L654.35,59.71L645.49,33.65L662.68,-1.26L688.63,-27.53L706.03,-27.64L706.19,-1.53L688.84,7.28L662.73,7.44L662.79,16.14L706.30,15.88Z" fill="#ffffff" stroke="#000000"/>
    <path d="M-446.23,-258.97L-455.32,-310.57L-472.47,-301.80L-515.61,-310.02L-541.29,-292.56L-549.67,-266.64L-540.74,-232.26L-523.20,-197.97L-505.73,-172.29L-505.58,-155.06L-514.11,-146.37L-531.26,-137.60L-557.10,-137.36L-583.33,-180.19L-591.94,-180.11L-582.78,-119.89L-565.63,-128.67L-522.48,-120.45L-488.19,-137.99L-479.89,-172.52L-488.82,-206.90L-506.37,-241.19L-523.83,-266.87L-515.38,-284.18L-506.84,-292.87L-481.00,-293.11L-454.85,-258.89ZM-368.79,-268.30L-360.18,-268.38L-351.72,-285.68L-351.80,-294.30L-369.11,-302.75L-377.72,-302.67L-386.18,-285.37L-386.10,-276.75ZM-462.90,-198.52L-454.21,-189.99L-411.54,-233.45L-402.93,-233.53L-453.82,-146.92L-453.74,-138.31L-445.04,-129.77L-427.82,-129.93L-410.67,-138.70L-368.00,-182.17L-376.69,-190.70L-419.36,-147.24L-427.98,-147.16L-377.09,-233.77L-377.17,-242.38L-394.47,-250.84L-420.23,-241.98ZM-281.39,-131.28L-272.78,-131.36L-255.63,-140.13L-212.96,-183.59L-221.65,-192.13L-264.33,-148.66L-272.94,-148.58L-196.92,-312.95L-257.22,-312.39L-257.14,-303.78L-231.30,-304.02L-256.42,-226.26L-265.20,-243.41L-299.73,-251.71L-342.48,-216.86L-359.31,-173.63L-350.38,-139.26L-333.07,-130.80L-315.85,-130.96L-290.24,-157.04L-290.09,-139.81ZM-316.00,-148.19L-324.62,-148.11L-333.47,-173.87L-316.56,-208.48L-290.96,-234.56L-273.73,-234.72L-264.96,-217.57L-264.88,-208.96L-290.40,-174.27ZM-92.61,-210.54L-92.77,-227.77L-101.54,-244.91L-136.08,-253.21L-178.91,-226.97L-204.27,-175.06L-195.34,-140.68L-178.03,-132.23L-160.81,-132.39L-143.66,-141.16L-109.52,-175.93L-118.22,-184.46L-152.35,-149.69L-169.58,-149.53L-178.43,-175.30L-161.52,-209.91L-135.92,-235.98L-118.69,-236.14L-118.45,-210.30L-135.60,-201.53L-161.44,-201.29L-161.36,-192.68L-118.30,-193.08ZM-92.54,-201.93L-83.84,-193.39L-41.17,-236.85L-32.56,-236.93L-83.37,-141.71L-74.68,-133.18L-57.45,-133.34L-23.63,-202.56L1.97,-228.64L19.12,-237.41L27.81,-228.87L-14.54,-150.96L-14.46,-142.35L-5.77,-133.81L11.46,-133.97L28.60,-142.74L71.27,-186.20L62.58,-194.74L19.91,-151.28L11.30,-151.20L53.73,-220.50L53.49,-246.34L27.57,-254.71L1.81,-245.86L-23.79,-219.79L-15.33,-237.09L-15.41,-245.71L-24.10,-254.24L-49.87,-245.39ZM114.82,-134.92L132.04,-135.08L174.87,-161.31L200.24,-213.23L182.69,-247.53L148.16,-255.82L105.33,-229.59L79.97,-177.67L97.51,-143.38ZM148.32,-238.60L165.54,-238.75L174.40,-212.99L157.49,-178.38L131.88,-152.31L114.66,-152.15L105.81,-177.91L122.72,-212.52ZM235.24,-153.26L277.52,-239.78L303.36,-240.02L303.28,-248.63L277.44,-248.40L294.35,-283.01L277.12,-282.85L268.75,-256.93L251.60,-248.16L234.37,-248.00L234.45,-239.39L251.68,-239.55L209.40,-153.02L209.48,-144.41L218.17,-135.87L235.40,-136.03L252.55,-144.80L295.22,-188.26L286.53,-196.80L243.86,-153.34ZM424.18,-215.29L424.02,-232.52L415.25,-249.66L380.72,-257.96L337.89,-231.73L312.52,-179.81L321.45,-145.43L338.76,-136.98L355.99,-137.14L373.13,-145.91L407.27,-180.68L398.58,-189.21L364.44,-154.44L347.21,-154.29L338.36,-180.05L355.27,-214.66L380.88,-240.73L398.10,-240.89L398.34,-215.05L381.19,-206.28L355.35,-206.04L355.43,-197.43L398.50,-197.83ZM467.25,-215.69L475.86,-215.77L484.31,-233.07L484.23,-241.68L466.93,-250.14L458.32,-250.06L449.86,-232.75L449.94,-224.14ZM442.12,-137.93L450.73,-138.01L459.19,-155.31L459.11,-163.93L441.80,-172.38L433.19,-172.30L424.73,-155.00L424.81,-146.38ZM-710.53,38.05L-710.77,12.21L-694.02,-39.62L-651.27,-74.47L-634.05,-74.63L-616.66,-57.56L-616.42,-31.72L-599.20,-31.88L-582.13,-49.27L-590.90,-66.41L-634.12,-83.24L-659.96,-83.01L-694.26,-65.46L-719.86,-39.39L-736.85,-13.39L-745.07,29.76L-727.44,72.66L-692.83,89.57L-658.38,89.26L-632.70,71.79L-607.10,45.72L-615.79,37.18L-641.39,63.26L-667.07,80.72L-684.30,80.88L-701.61,72.43ZM-572.41,71.24L-496.39,-93.12L-556.68,-92.57L-556.61,-83.96L-530.77,-84.19L-598.25,71.48L-598.17,80.09L-580.86,88.55L-555.10,79.69L-512.43,36.23L-521.12,27.70L-563.79,71.16ZM-418.48,-50.77L-409.86,-50.85L-401.41,-68.16L-401.49,-76.77L-418.79,-85.22L-427.41,-85.14L-435.86,-67.84L-435.78,-59.23ZM-512.59,19.01L-503.90,27.54L-461.23,-15.92L-452.61,-16.00L-503.50,70.61L-503.42,79.22L-494.73,87.75L-477.50,87.60L-460.36,78.82L-417.68,35.36L-426.38,26.83L-469.05,70.29L-477.66,70.37L-426.77,-16.24L-426.85,-24.85L-444.16,-33.31L-469.92,-24.46ZM-280.11,8.26L-263.04,-9.13L-245.90,-17.90L-237.20,-9.37L-279.56,68.55L-279.48,77.16L-270.78,85.70L-253.56,85.54L-236.41,76.77L-193.74,33.30L-202.43,24.77L-245.10,68.23L-253.72,68.31L-211.28,-0.99L-211.52,-26.83L-237.44,-35.21L-263.20,-26.36L-280.27,-8.97L-280.43,-26.20L-297.73,-34.65L-323.49,-25.80L-349.10,0.28L-340.64,-17.03L-340.72,-25.64L-349.41,-34.18L-375.17,-25.33L-417.84,18.14L-409.15,26.67L-366.48,-16.79L-357.87,-16.87L-408.68,78.35L-399.98,86.88L-382.76,86.72L-348.94,17.50L-323.34,-8.58L-306.19,-17.35L-297.50,-8.81L-339.77,77.72L-331.08,86.25L-313.85,86.09ZM-56.48,-28.26L-65.18,-36.79L-82.16,-10.79L-90.94,-27.94L-125.47,-36.24L-168.22,-1.39L-185.05,41.84L-176.12,76.21L-158.81,84.67L-141.59,84.51L-115.98,58.43L-115.83,75.66L-107.13,84.19L-81.37,75.34L-38.70,31.88L-47.39,23.34L-90.07,66.81L-98.68,66.89ZM-141.74,67.28L-150.36,67.36L-159.21,41.60L-142.30,6.99L-116.70,-19.09L-99.47,-19.25L-90.70,-2.10L-90.62,6.51L-116.14,41.20ZM-12.55,66.09L29.73,-20.43L55.57,-20.67L55.49,-29.29L29.65,-29.05L46.56,-63.66L29.33,-63.50L20.96,-37.58L3.81,-28.81L-13.42,-28.65L-13.34,-20.04L3.89,-20.20L-38.39,66.33L-38.31,74.94L-29.61,83.48L-12.39,83.32L4.76,74.55L47.43,31.09L38.74,22.55L-3.93,66.01ZM176.39,4.06L176.23,-13.17L167.46,-30.31L132.93,-38.61L90.10,-12.38L64.74,39.54L73.67,73.92L90.97,82.37L108.20,82.21L125.34,73.44L159.48,38.67L150.79,30.14L116.65,64.91L99.43,65.06L90.58,39.30L107.49,4.69L133.09,-21.38L150.31,-21.54L150.55,4.30L133.40,13.07L107.56,13.31L107.64,21.92L150.71,21.52ZM218.59,-91.08L235.97,-74.01L194.17,64.19L177.10,81.58L263.24,80.79L306.14,63.16L331.67,28.47L322.74,-5.90L296.82,-14.28L313.97,-23.05L339.57,-49.12L330.64,-83.50L287.49,-91.72ZM220.01,63.96L261.81,-74.25L270.34,-82.94L287.57,-83.10L304.88,-74.65L305.11,-48.81L288.13,-22.81L262.36,-13.96L245.14,-13.80L245.22,-5.19L271.06,-5.42L288.36,3.03L297.21,28.79L280.22,54.79L245.93,72.33L228.70,72.49ZM477.54,-33.16L468.84,-41.70L451.86,-15.70L443.08,-32.85L408.55,-41.14L365.80,-6.30L348.97,36.93L357.90,71.30L375.21,79.76L392.43,79.60L418.04,53.52L418.19,70.75L426.89,79.28L452.65,70.43L495.32,26.97L486.63,18.44L443.96,61.90L435.34,61.98ZM392.28,62.37L383.66,62.45L374.81,36.69L391.72,2.08L417.32,-24.00L434.55,-24.16L443.32,-7.01L443.40,1.60L417.88,36.30ZM512.94,69.88L512.70,44.04L504.01,35.50L486.86,44.28L487.10,70.11L504.41,78.57L521.63,78.41L547.39,69.56L564.46,52.18L564.30,34.95L555.29,-8.04L555.14,-25.26L572.28,-34.04L572.52,-8.20L581.21,0.34L598.36,-8.43L598.12,-34.27L572.20,-42.65L537.83,-33.72L529.38,-16.41L529.53,0.81L538.46,35.19L538.62,52.41L521.55,69.80ZM719.02,-0.93L718.87,-18.16L710.09,-35.30L675.56,-43.60L632.73,-17.36L607.37,34.55L616.30,68.93L633.60,77.38L650.83,77.22L667.98,68.45L702.11,33.68L693.42,25.15L659.29,59.92L642.06,60.08L633.21,34.32L650.12,-0.30L675.72,-26.37L692.95,-26.53L693.18,-0.69L676.04,8.08L650.20,8.32L650.28,16.93L693.34,16.54Z" fill="#ffffff" stroke="#000000"/>
    <path d="M-448.14,-252.00L-457.29,-303.04L-474.23,-294.31L-516.96,-302.31L-542.32,-284.95L-550.53,-259.27L-541.59,-225.28L-524.13,-191.39L-506.76,-166.03L-506.56,-148.98L-514.97,-140.35L-531.92,-131.62L-557.49,-131.30L-583.59,-173.61L-592.11,-173.51L-582.85,-113.94L-565.91,-122.67L-523.19,-114.67L-489.30,-132.14L-481.19,-166.34L-490.13,-200.33L-507.60,-234.22L-524.96,-259.58L-516.65,-276.74L-508.23,-285.36L-482.65,-285.68L-456.66,-251.89ZM-371.53,-261.46L-363.00,-261.57L-354.69,-278.72L-354.79,-287.24L-371.94,-295.56L-380.47,-295.46L-388.78,-278.30L-388.68,-269.78ZM-464.46,-192.12L-455.83,-183.70L-413.73,-226.84L-405.21,-226.95L-455.31,-141.08L-455.20,-132.56L-446.57,-124.14L-429.52,-124.35L-412.58,-133.08L-370.48,-176.22L-379.11,-184.64L-421.21,-141.50L-429.73,-141.39L-379.63,-227.26L-379.74,-235.79L-396.89,-244.10L-422.36,-235.26ZM-284.61,-126.12L-276.09,-126.23L-259.15,-134.96L-217.05,-178.10L-225.68,-186.52L-267.77,-143.38L-276.30,-143.27L-201.57,-306.17L-261.23,-305.44L-261.13,-296.92L-235.56,-297.23L-260.19,-220.20L-268.92,-237.14L-303.12,-245.25L-345.33,-210.63L-361.85,-167.80L-352.91,-133.81L-335.76,-125.49L-318.71,-125.70L-293.45,-151.59L-293.24,-134.54ZM-318.92,-142.75L-327.44,-142.65L-336.28,-168.12L-319.65,-202.42L-294.39,-228.31L-277.34,-228.52L-268.61,-211.57L-268.51,-203.05L-293.66,-168.64ZM-98.02,-205.14L-98.23,-222.19L-106.96,-239.13L-141.17,-247.24L-183.47,-221.14L-208.42,-169.68L-199.48,-135.69L-182.32,-127.38L-165.28,-127.58L-148.33,-136.32L-114.65,-170.83L-123.28,-179.25L-156.96,-144.74L-174.01,-144.53L-182.85,-170.00L-166.22,-204.30L-140.96,-230.19L-123.91,-230.40L-123.59,-204.82L-140.54,-196.09L-166.11,-195.78L-166.01,-187.25L-123.39,-187.78ZM-97.92,-196.61L-89.29,-188.19L-47.19,-231.34L-38.67,-231.44L-88.66,-137.05L-80.03,-128.63L-62.99,-128.84L-29.72,-197.45L-4.47,-223.33L12.48,-232.07L21.11,-223.65L-20.57,-146.41L-20.47,-137.88L-11.84,-129.46L5.21,-129.67L22.15,-138.41L64.25,-181.55L55.62,-189.97L13.52,-146.83L5.00,-146.72L46.78,-215.44L46.47,-241.01L20.79,-249.22L-4.67,-240.38L-29.93,-214.50L-21.62,-231.65L-21.72,-240.17L-30.35,-248.59L-55.82,-239.76ZM107.50,-130.93L124.55,-131.14L166.85,-157.23L191.80,-208.69L174.33,-242.58L140.13,-250.68L97.82,-224.59L72.88,-173.13L90.35,-139.24ZM140.34,-233.64L157.39,-233.84L166.23,-208.38L149.60,-174.07L124.34,-148.18L107.29,-147.98L98.45,-173.44L115.08,-207.75ZM226.63,-149.44L268.20,-235.20L293.78,-235.52L293.67,-244.04L268.10,-243.73L284.73,-278.03L267.68,-277.82L259.47,-252.15L242.53,-243.41L225.48,-243.20L225.58,-234.68L242.63,-234.89L201.05,-149.12L201.16,-140.60L209.79,-132.18L226.84,-132.39L243.78,-141.12L285.88,-184.27L277.25,-192.69L235.15,-149.54ZM413.43,-211.41L413.22,-228.45L404.49,-245.40L370.28,-253.50L327.98,-227.41L303.03,-175.95L311.97,-141.96L329.13,-133.64L346.17,-133.85L363.12,-142.59L396.80,-177.10L388.17,-185.52L354.49,-151.01L337.44,-150.80L328.60,-176.26L345.23,-210.57L370.49,-236.46L387.54,-236.66L387.85,-211.09L370.91,-202.36L345.34,-202.05L345.44,-193.52L388.06,-194.04ZM456.05,-211.93L464.57,-212.03L472.89,-229.19L472.78,-237.71L455.63,-246.02L447.11,-245.92L438.79,-228.77L438.90,-220.24ZM431.42,-134.90L439.94,-135.00L448.26,-152.15L448.15,-160.68L431.00,-168.99L422.47,-168.89L414.16,-151.74L414.26,-143.21ZM-708.82,42.77L-709.13,17.19L-692.71,-34.16L-650.50,-68.78L-633.46,-68.99L-616.20,-52.15L-615.89,-26.58L-598.84,-26.79L-582.00,-44.04L-590.73,-60.99L-633.56,-77.51L-659.13,-77.20L-693.02,-59.73L-718.28,-33.85L-735.01,-8.07L-743.02,34.66L-725.45,77.07L-691.14,93.70L-657.04,93.28L-631.68,75.92L-606.42,50.04L-615.05,41.62L-640.31,67.50L-665.67,84.86L-682.72,85.07L-699.87,76.76ZM-572.01,75.19L-497.28,-87.71L-556.95,-86.98L-556.84,-78.45L-531.27,-78.77L-597.58,75.50L-597.48,84.03L-580.33,92.34L-554.86,83.51L-512.76,40.36L-521.39,31.94L-563.49,75.09ZM-420.04,-46.03L-411.51,-46.13L-403.20,-63.28L-403.30,-71.81L-420.46,-80.12L-428.98,-80.02L-437.30,-62.87L-437.19,-54.34ZM-512.97,23.31L-504.34,31.73L-462.24,-11.41L-453.72,-11.51L-503.82,74.36L-503.71,82.88L-495.08,91.30L-478.04,91.09L-461.09,82.36L-418.99,39.21L-427.62,30.79L-469.72,73.94L-478.25,74.04L-428.15,-11.83L-428.25,-20.35L-445.40,-28.67L-470.87,-19.83ZM-282.92,11.97L-266.08,-5.29L-249.14,-14.02L-240.51,-5.60L-282.19,71.64L-282.09,80.16L-273.46,88.58L-256.41,88.37L-239.46,79.64L-197.37,36.50L-205.99,28.08L-248.09,71.22L-256.62,71.33L-214.83,2.61L-215.15,-22.96L-240.82,-31.17L-266.29,-22.34L-283.13,-5.08L-283.34,-22.13L-300.49,-30.44L-325.96,-21.60L-351.22,4.28L-342.90,-12.87L-343.01,-21.40L-351.64,-29.82L-377.10,-20.98L-419.20,22.17L-410.57,30.59L-368.48,-12.56L-359.95,-12.66L-409.95,81.73L-401.32,90.15L-384.27,89.94L-351.01,21.33L-325.75,-4.56L-308.81,-13.29L-300.18,-4.87L-341.75,80.89L-333.13,89.31L-316.08,89.11ZM-61.71,-24.84L-70.34,-33.26L-87.07,-7.48L-95.81,-24.43L-130.01,-32.53L-172.21,2.09L-188.74,44.92L-179.80,78.91L-162.64,87.22L-145.59,87.02L-120.34,61.13L-120.13,78.18L-111.50,86.60L-86.03,77.76L-43.93,34.62L-52.56,26.20L-94.66,69.34L-103.18,69.45ZM-145.80,69.97L-154.33,70.07L-163.16,44.60L-146.53,10.30L-121.28,-15.59L-104.23,-15.80L-95.49,1.15L-95.39,9.67L-120.54,44.08ZM-17.94,68.40L23.64,-17.36L49.21,-17.68L49.10,-26.20L23.53,-25.89L40.16,-60.19L23.11,-59.98L14.90,-34.31L-2.04,-25.57L-19.09,-25.37L-18.99,-16.84L-1.94,-17.05L-43.51,68.71L-43.41,77.24L-34.78,85.66L-17.73,85.45L-0.79,76.72L41.31,33.57L32.68,25.15L-9.42,68.30ZM168.86,6.43L168.65,-10.62L159.92,-27.56L125.72,-35.67L83.41,-9.57L58.46,41.89L67.41,75.88L84.56,84.19L101.61,83.99L118.55,75.25L152.23,40.74L143.60,32.32L109.92,66.83L92.87,67.04L84.04,41.57L100.67,7.27L125.93,-18.62L142.97,-18.83L143.29,6.75L126.34,15.48L100.77,15.79L100.88,24.32L143.50,23.79ZM210.33,-87.86L227.59,-71.02L186.64,65.89L169.80,83.15L255.04,82.11L297.45,64.53L322.61,30.12L313.67,-3.87L287.99,-12.08L304.93,-20.81L330.19,-46.70L321.25,-80.69L278.52,-88.69ZM212.21,65.58L253.16,-71.33L261.58,-79.96L278.63,-80.17L295.78,-71.85L296.10,-46.28L279.36,-20.50L253.89,-11.66L236.84,-11.45L236.95,-2.93L262.52,-3.24L279.67,5.07L288.51,30.54L271.78,56.32L237.89,73.79L220.84,74.00ZM466.79,-31.32L458.16,-39.74L441.42,-13.96L432.69,-30.90L398.49,-39.01L356.29,-4.39L339.76,38.44L348.70,72.43L365.86,80.75L382.90,80.54L408.16,54.65L408.37,71.70L417.00,80.12L442.47,71.28L484.57,28.14L475.94,19.72L433.84,62.86L425.32,62.97ZM382.69,63.49L374.17,63.59L365.33,38.13L381.96,3.82L407.22,-22.06L424.27,-22.27L433.00,-5.33L433.11,3.19L407.95,37.60ZM502.14,70.55L501.82,44.98L493.20,36.56L476.25,45.29L476.57,70.87L493.72,79.18L510.77,78.97L536.23,70.13L553.07,52.88L552.86,35.83L543.82,-6.69L543.61,-23.74L560.55,-32.47L560.87,-6.90L569.50,1.52L586.44,-7.21L586.13,-32.78L560.45,-40.99L526.46,-32.05L518.14,-14.90L518.35,2.15L527.29,36.14L527.50,53.19L510.66,70.45ZM705.88,-0.15L705.67,-17.20L696.94,-34.14L662.74,-42.25L620.43,-16.15L595.49,35.31L604.43,69.30L621.58,77.61L638.63,77.40L655.57,68.67L689.25,34.16L680.62,25.74L646.94,60.25L629.90,60.46L621.06,34.99L637.69,0.69L662.95,-25.20L680.00,-25.41L680.31,0.16L663.37,8.90L637.79,9.21L637.90,17.74L680.52,17.21Z" fill="#ffffff" stroke="#000000"/>
    <path d="M-449.89,-245.08L-459.10,-295.56L-475.84,-286.86L-518.14,-294.65L-543.19,-277.40L-551.24,-251.96L-542.29,-218.35L-524.90,-184.87L-507.64,-159.82L-507.38,-142.95L-515.69,-134.39L-532.43,-125.69L-557.73,-125.31L-583.69,-167.09L-592.12,-166.96L-582.78,-108.05L-566.04,-116.74L-523.74,-108.95L-490.25,-126.34L-482.34,-160.21L-491.29,-193.82L-508.68,-227.30L-525.93,-252.35L-517.76,-269.35L-509.45,-277.91L-484.15,-278.30L-458.32,-244.95ZM-374.10,-254.68L-365.67,-254.80L-357.49,-271.80L-357.62,-280.24L-374.62,-288.42L-383.06,-288.29L-391.23,-271.29L-391.10,-262.85ZM-465.85,-185.77L-457.29,-177.47L-415.76,-220.29L-407.33,-220.42L-456.64,-135.29L-456.51,-126.86L-447.95,-118.55L-431.08,-118.81L-414.34,-127.50L-372.81,-170.32L-381.38,-178.63L-422.90,-135.81L-431.34,-135.68L-382.02,-220.81L-382.15,-229.24L-399.15,-237.42L-424.33,-228.59ZM-287.69,-121.01L-279.25,-121.14L-262.51,-129.83L-220.98,-172.65L-229.55,-180.96L-271.07,-138.14L-279.51,-138.01L-206.05,-299.43L-265.09,-298.53L-264.97,-290.10L-239.66,-290.48L-263.80,-214.18L-272.50,-230.92L-306.36,-238.84L-348.02,-204.45L-364.25,-162.02L-355.29,-128.41L-338.30,-120.23L-321.43,-120.49L-296.51,-146.18L-296.25,-129.31ZM-321.68,-137.36L-330.12,-137.23L-338.94,-162.41L-322.59,-196.41L-297.67,-222.10L-280.80,-222.36L-272.11,-205.62L-271.98,-197.18L-296.77,-163.05ZM-103.28,-199.77L-103.54,-216.64L-112.23,-233.38L-146.10,-241.29L-187.89,-215.34L-212.42,-164.35L-203.46,-130.73L-186.47,-122.56L-169.60,-122.82L-152.85,-131.51L-119.63,-165.77L-128.20,-174.07L-161.42,-139.82L-178.29,-139.56L-187.11,-164.73L-170.76,-198.73L-145.84,-224.42L-128.97,-224.68L-128.58,-199.38L-145.32,-190.68L-170.63,-190.30L-170.50,-181.86L-128.32,-182.51ZM-103.15,-191.33L-94.58,-183.02L-53.06,-225.85L-44.62,-225.97L-93.81,-132.41L-85.25,-124.11L-68.38,-124.37L-35.67,-192.36L-10.75,-218.06L5.99,-226.75L14.55,-218.44L-26.46,-141.88L-26.33,-133.45L-17.77,-125.14L-0.90,-125.40L15.85,-134.09L57.37,-176.92L48.81,-185.22L7.28,-142.40L-1.15,-142.27L39.99,-210.40L39.60,-235.70L14.17,-243.75L-11.01,-234.93L-35.93,-209.23L-27.75,-226.23L-27.88,-234.67L-36.44,-242.97L-61.62,-234.15ZM100.33,-126.95L117.20,-127.21L158.98,-153.16L183.51,-204.16L166.13,-237.64L132.26,-245.56L90.47,-219.61L65.94,-168.61L83.33,-135.13ZM132.51,-228.69L149.38,-228.95L158.21,-203.77L141.85,-169.77L116.94,-144.08L100.07,-143.82L91.24,-169.00L107.60,-203.00ZM218.16,-145.63L259.04,-230.63L284.34,-231.01L284.22,-239.45L258.91,-239.06L275.26,-273.06L258.39,-272.80L250.35,-247.37L233.61,-238.67L216.74,-238.42L216.86,-229.98L233.73,-230.24L192.85,-145.24L192.98,-136.81L201.55,-128.50L218.42,-128.76L235.16,-137.45L276.68,-180.28L268.12,-188.58L226.59,-145.76ZM402.82,-207.52L402.56,-224.39L393.87,-241.13L360.00,-249.05L318.21,-223.10L293.68,-172.10L302.64,-138.49L319.64,-130.31L336.51,-130.57L353.25,-139.26L386.47,-173.52L377.90,-181.83L344.68,-147.57L327.81,-147.31L318.99,-172.49L335.34,-206.49L360.26,-232.18L377.13,-232.44L377.52,-207.13L360.78,-198.44L335.47,-198.05L335.60,-189.62L377.78,-190.26ZM445.00,-208.17L453.43,-208.29L461.61,-225.29L461.48,-233.73L444.48,-241.91L436.05,-241.78L427.87,-224.78L428.00,-216.34ZM420.86,-131.86L429.29,-131.99L437.47,-148.99L437.34,-157.43L420.34,-165.60L411.90,-165.47L403.73,-148.47L403.86,-140.04ZM-706.95,47.41L-707.34,22.10L-691.25,-28.77L-649.59,-63.15L-632.72,-63.41L-615.59,-46.80L-615.20,-21.50L-598.33,-21.75L-581.72,-38.88L-590.42,-55.62L-632.85,-71.85L-658.15,-71.46L-691.64,-54.07L-716.55,-28.38L-733.04,-2.82L-740.82,39.49L-723.31,81.40L-689.31,97.76L-655.57,97.24L-630.52,79.98L-605.61,54.29L-614.17,45.98L-639.09,71.68L-664.13,88.94L-681.00,89.19L-698.00,81.02ZM-571.48,79.08L-498.02,-82.35L-557.06,-81.44L-556.93,-73.01L-531.63,-73.40L-596.78,79.47L-596.65,87.90L-579.65,96.08L-554.48,87.26L-512.95,44.43L-521.51,36.13L-563.04,78.95ZM-421.46,-41.34L-413.02,-41.47L-404.85,-58.47L-404.97,-66.90L-421.97,-75.08L-430.41,-74.95L-438.59,-57.95L-438.46,-49.51ZM-513.21,27.56L-504.64,35.87L-463.11,-6.95L-454.68,-7.08L-504.00,78.04L-503.87,86.48L-495.30,94.79L-478.43,94.53L-461.69,85.83L-420.16,43.01L-428.73,34.71L-470.26,77.53L-478.69,77.66L-429.37,-7.47L-429.50,-15.90L-446.50,-24.08L-471.68,-15.26ZM-285.59,15.64L-268.98,-1.49L-252.24,-10.18L-243.68,-1.88L-284.69,74.69L-284.56,83.12L-275.99,91.43L-259.12,91.17L-242.38,82.47L-200.85,39.65L-209.42,31.35L-250.95,74.17L-259.38,74.30L-218.24,6.17L-218.63,-19.13L-244.06,-27.18L-269.24,-18.36L-285.85,-1.23L-286.11,-18.10L-303.11,-26.28L-328.28,-17.45L-353.20,8.24L-345.02,-8.76L-345.15,-17.20L-353.72,-25.50L-378.89,-16.68L-420.42,26.14L-411.86,34.45L-370.33,-8.37L-361.89,-8.50L-411.08,85.06L-402.52,93.36L-385.65,93.11L-352.94,25.11L-328.03,-0.58L-311.28,-9.28L-302.72,-0.97L-343.60,84.02L-335.04,92.33L-318.17,92.07ZM-66.80,-21.46L-75.36,-29.77L-91.85,-4.20L-100.54,-20.94L-134.41,-28.86L-176.07,5.52L-192.29,47.96L-183.34,81.57L-166.34,89.75L-149.47,89.49L-124.55,63.79L-124.29,80.66L-115.73,88.97L-90.55,80.15L-49.02,37.33L-57.59,29.02L-99.12,71.84L-107.55,71.97ZM-149.73,72.62L-158.16,72.75L-166.98,47.57L-150.63,13.57L-125.71,-12.12L-108.84,-12.38L-100.15,4.36L-100.02,12.80L-124.81,46.92ZM-23.20,70.68L17.68,-14.32L42.99,-14.71L42.86,-23.14L17.55,-22.75L33.90,-56.75L17.03,-56.49L8.99,-31.06L-7.75,-22.36L-24.62,-22.11L-24.49,-13.67L-7.62,-13.93L-48.51,71.07L-48.38,79.50L-39.81,87.81L-22.94,87.55L-6.20,78.86L35.33,36.03L26.76,27.73L-14.77,70.55ZM161.46,8.79L161.21,-8.08L152.51,-24.82L118.64,-32.74L76.86,-6.79L52.33,44.21L61.28,77.82L78.28,86.00L95.15,85.74L111.89,77.05L145.11,42.79L136.55,34.48L103.32,68.74L86.45,69.00L77.63,43.82L93.98,9.82L118.90,-15.87L135.77,-16.13L136.16,9.18L119.42,17.87L94.11,18.26L94.24,26.69L136.42,26.05ZM202.22,-84.64L219.35,-68.03L179.24,67.58L162.63,84.71L246.98,83.41L288.89,65.90L313.68,31.77L304.73,-1.84L279.30,-9.89L296.04,-18.58L320.95,-44.27L312.00,-77.89L269.70,-85.67ZM204.54,67.19L244.65,-68.42L252.96,-76.98L269.83,-77.24L286.83,-69.06L287.21,-43.76L270.73,-18.19L245.56,-9.37L228.69,-9.11L228.81,-0.68L254.12,-1.07L271.12,7.11L279.94,32.29L263.46,57.85L229.98,75.24L213.11,75.50ZM456.17,-29.47L447.61,-37.78L431.13,-12.21L422.43,-28.96L388.56,-36.87L346.90,-2.49L330.68,39.95L339.63,73.56L356.63,81.73L373.50,81.48L398.42,55.78L398.68,72.65L407.24,80.96L432.42,72.14L473.95,29.31L465.38,21.01L423.85,63.83L415.42,63.96ZM373.24,64.61L364.81,64.73L355.99,39.56L372.34,5.56L397.26,-20.13L414.13,-20.39L422.82,-3.65L422.95,4.78L398.16,38.91ZM491.46,71.23L491.08,45.93L482.51,37.62L465.77,46.31L466.16,71.62L483.16,79.80L500.03,79.54L525.20,70.71L541.81,53.59L541.56,36.72L532.47,-5.33L532.22,-22.20L548.96,-30.89L549.34,-5.59L557.91,2.72L574.65,-5.98L574.26,-31.28L548.83,-39.33L515.22,-30.38L507.04,-13.38L507.30,3.49L516.25,37.10L516.51,53.97L499.90,71.10ZM692.87,0.65L692.61,-16.22L683.92,-32.96L650.05,-40.88L608.26,-14.93L583.73,36.07L592.68,69.68L609.68,77.86L626.55,77.60L643.29,68.90L676.52,34.65L667.95,26.34L634.73,60.60L617.86,60.86L609.04,35.68L625.39,1.68L650.31,-24.01L667.18,-24.27L667.56,1.04L650.82,9.73L625.52,10.12L625.65,18.55L667.82,17.91Z" fill="#ffffff" stroke="#000000"/>
    <path d="M-451.48,-238.21L-460.75,-288.13L-477.29,-279.48L-519.17,-287.06L-543.90,-269.90L-551.78,-244.71L-542.82,-211.48L-525.52,-178.41L-508.37,-153.68L-508.06,-136.99L-516.25,-128.49L-532.79,-119.83L-557.83,-119.37L-583.63,-160.64L-591.98,-160.49L-582.56,-102.22L-566.02,-110.87L-524.14,-103.30L-491.06,-120.60L-483.33,-154.14L-492.29,-187.37L-509.60,-220.44L-526.75,-245.17L-518.71,-262.02L-510.52,-270.52L-485.48,-270.98L-459.83,-238.06ZM-376.52,-247.94L-368.18,-248.09L-360.14,-264.93L-360.29,-273.28L-377.14,-281.32L-385.48,-281.17L-393.52,-264.32L-393.37,-255.97ZM-467.10,-179.48L-458.60,-171.29L-417.64,-213.79L-409.29,-213.94L-457.83,-129.56L-457.68,-121.21L-449.18,-113.02L-432.49,-113.33L-415.95,-121.98L-374.99,-164.48L-383.49,-172.67L-424.45,-130.17L-432.80,-130.02L-384.25,-214.40L-384.41,-222.74L-401.25,-230.78L-426.14,-221.98ZM-290.61,-115.94L-282.26,-116.09L-265.73,-124.74L-224.76,-167.24L-233.26,-175.43L-274.23,-132.94L-282.57,-132.78L-210.37,-292.73L-268.79,-291.66L-268.64,-283.31L-243.60,-283.77L-267.26,-208.20L-275.91,-224.74L-309.45,-232.47L-350.56,-198.32L-366.49,-156.29L-357.53,-123.06L-340.68,-115.02L-323.99,-115.32L-299.42,-140.82L-299.11,-124.13ZM-324.30,-132.02L-332.65,-131.86L-341.45,-156.75L-325.37,-190.44L-300.80,-215.93L-284.11,-216.24L-275.45,-199.70L-275.30,-191.36L-299.72,-157.51ZM-108.38,-194.43L-108.69,-211.12L-117.34,-227.66L-150.88,-235.39L-192.15,-209.58L-216.27,-159.05L-207.31,-125.82L-190.46,-117.78L-173.77,-118.09L-157.23,-126.74L-124.46,-160.74L-132.96,-168.93L-165.73,-134.93L-182.42,-134.62L-191.23,-159.51L-175.15,-193.20L-150.57,-218.70L-133.88,-219.00L-133.42,-193.96L-149.96,-185.31L-175.00,-184.85L-174.84,-176.51L-133.11,-177.27ZM-108.23,-186.08L-99.73,-177.89L-58.77,-220.38L-50.42,-220.54L-98.81,-127.81L-90.31,-119.62L-73.62,-119.93L-41.46,-187.31L-16.89,-212.80L-0.35,-221.46L8.15,-213.27L-32.20,-137.39L-32.04,-129.04L-23.54,-120.85L-6.85,-121.15L9.69,-129.81L50.65,-172.30L42.15,-180.50L1.19,-138.00L-7.16,-137.85L33.34,-205.38L32.88,-230.42L7.69,-238.30L-17.19,-229.50L-41.77,-204.00L-33.73,-220.84L-33.89,-229.19L-42.38,-237.38L-67.27,-228.58ZM93.30,-123.00L109.99,-123.30L151.26,-149.11L175.37,-199.64L158.07,-232.72L124.53,-240.45L83.26,-214.65L59.15,-164.11L76.45,-131.03ZM124.84,-223.76L141.53,-224.07L150.34,-199.18L134.26,-165.49L109.68,-139.99L92.99,-139.69L84.18,-164.57L100.26,-198.26ZM209.83,-141.84L250.03,-226.06L275.06,-226.52L274.91,-234.87L249.87,-234.41L265.95,-268.10L249.26,-267.79L241.37,-242.60L224.83,-233.95L208.14,-233.64L208.30,-225.29L224.99,-225.60L184.79,-141.38L184.95,-133.03L193.45,-124.84L210.14,-125.14L226.68,-133.80L267.64,-176.29L259.14,-184.49L218.18,-141.99ZM392.36,-203.63L392.06,-220.32L383.40,-236.86L349.87,-244.59L308.60,-218.79L284.48,-168.25L293.44,-135.02L310.29,-126.99L326.98,-127.29L343.52,-135.94L376.29,-169.94L367.79,-178.13L335.02,-144.14L318.33,-143.83L309.52,-168.71L325.60,-202.40L350.17,-227.90L366.87,-228.21L367.33,-203.17L350.79,-194.52L325.75,-194.06L325.90,-185.71L367.63,-186.48ZM434.09,-204.40L442.44,-204.55L450.48,-221.40L450.32,-229.74L433.48,-237.78L425.13,-237.63L417.09,-220.78L417.25,-212.44ZM410.44,-128.83L418.78,-128.98L426.82,-145.82L426.67,-154.17L409.82,-162.21L401.48,-162.06L393.44,-145.21L393.59,-136.87ZM-704.95,51.97L-705.41,26.94L-689.64,-23.45L-648.53,-57.60L-631.84,-57.90L-614.84,-41.52L-614.38,-16.48L-597.69,-16.79L-581.30,-33.79L-589.95,-50.32L-631.99,-66.25L-657.03,-65.79L-690.10,-48.48L-714.68,-22.99L-730.91,2.36L-738.49,44.24L-721.03,85.66L-687.34,101.74L-653.96,101.13L-629.23,83.98L-604.65,58.48L-613.15,50.29L-637.73,75.78L-662.46,92.94L-679.15,93.24L-695.99,85.20ZM-570.81,82.90L-498.61,-77.05L-557.03,-75.98L-556.88,-67.63L-531.84,-68.09L-595.84,83.36L-595.69,91.71L-578.85,99.75L-553.96,90.94L-513.00,48.44L-521.50,40.25L-562.46,82.75ZM-422.73,-36.70L-414.39,-36.85L-406.35,-53.70L-406.50,-62.05L-423.34,-70.08L-431.69,-69.93L-439.73,-53.09L-439.58,-44.74ZM-513.31,31.75L-504.81,39.95L-463.85,-2.55L-455.50,-2.70L-504.04,81.67L-503.89,90.02L-495.39,98.21L-478.70,97.91L-462.16,89.25L-421.20,46.76L-429.70,38.56L-470.66,81.06L-479.00,81.21L-430.46,-3.16L-430.62,-11.51L-447.46,-19.55L-472.35,-10.74ZM-288.12,19.26L-271.74,2.27L-255.20,-6.39L-246.70,1.81L-287.05,77.68L-286.90,86.03L-278.40,94.22L-261.71,93.92L-245.17,85.26L-204.21,42.77L-212.71,34.57L-253.67,77.07L-262.01,77.22L-221.51,9.69L-221.97,-15.35L-247.16,-23.23L-272.05,-14.43L-288.43,2.57L-288.74,-14.12L-305.58,-22.16L-330.47,-13.35L-355.04,12.15L-347.00,-4.70L-347.16,-13.04L-355.66,-21.24L-380.54,-12.43L-421.50,30.07L-413.00,38.26L-372.04,-4.24L-363.70,-4.39L-412.08,88.33L-403.58,96.52L-386.89,96.22L-354.74,28.84L-330.16,3.34L-313.62,-5.31L-305.12,2.88L-345.32,87.10L-336.82,95.30L-320.13,94.99ZM-71.75,-18.11L-80.25,-26.30L-96.48,-0.96L-105.13,-17.49L-138.67,-25.23L-179.78,8.92L-195.71,50.96L-186.75,84.19L-169.90,92.23L-153.21,91.92L-128.63,66.42L-128.33,83.12L-119.83,91.31L-94.94,82.50L-53.98,40.01L-62.48,31.81L-103.44,74.31L-111.79,74.46ZM-153.52,75.23L-161.86,75.38L-170.67,50.50L-154.59,16.81L-130.01,-8.69L-113.32,-9.00L-104.67,7.54L-104.52,15.89L-128.94,49.73ZM-28.33,72.93L11.86,-11.30L36.90,-11.76L36.75,-20.10L11.71,-19.64L27.79,-53.33L11.10,-53.03L3.21,-27.84L-13.33,-19.18L-30.02,-18.88L-29.86,-10.53L-13.17,-10.84L-53.37,73.39L-53.21,81.73L-44.72,89.93L-28.02,89.62L-11.49,80.97L29.48,38.47L20.98,30.28L-19.98,72.77ZM154.20,11.13L153.90,-5.56L145.24,-22.10L111.71,-29.83L70.44,-4.03L46.32,46.51L55.28,79.74L72.13,87.78L88.82,87.47L105.36,78.82L138.12,44.82L129.63,36.63L96.86,70.63L80.16,70.93L71.36,46.05L87.44,12.36L112.01,-13.14L128.71,-13.45L129.17,11.59L112.63,20.24L87.59,20.71L87.74,29.05L129.47,28.28ZM194.24,-81.44L211.24,-65.05L171.97,69.25L155.58,86.24L239.04,84.71L280.46,67.25L304.89,33.41L295.93,0.18L270.74,-7.71L287.28,-16.36L311.85,-41.86L302.89,-75.09L261.01,-82.67ZM197.01,68.79L236.28,-65.51L244.47,-74.01L261.16,-74.32L278.01,-66.28L278.47,-41.24L262.24,-15.90L237.35,-7.09L220.66,-6.79L220.82,1.56L245.85,1.10L262.70,9.14L271.50,34.02L255.27,59.37L222.20,76.67L205.51,76.98ZM445.69,-27.62L437.19,-35.81L420.96,-10.47L412.31,-27.01L378.77,-34.74L337.66,-0.59L321.73,41.45L330.69,74.68L347.54,82.71L364.23,82.41L388.81,56.91L389.11,73.60L397.61,81.79L422.50,72.99L463.46,30.49L454.96,22.30L414.00,64.80L405.65,64.95ZM363.92,65.72L355.58,65.87L346.77,40.99L362.85,7.30L387.42,-18.20L404.12,-18.51L412.77,-1.97L412.92,6.38L388.50,40.22ZM480.92,71.91L480.46,46.88L471.96,38.68L455.42,47.34L455.88,72.37L472.72,80.41L489.42,80.11L514.30,71.30L530.68,54.30L530.38,37.61L521.26,-3.97L520.96,-20.66L537.50,-29.31L537.96,-4.27L546.45,3.92L562.99,-4.73L562.53,-29.77L537.34,-37.66L504.11,-28.70L496.07,-11.85L496.38,4.84L505.34,38.07L505.65,54.76L489.26,71.76ZM679.99,1.47L679.68,-15.23L671.03,-31.76L637.49,-39.50L596.22,-13.69L572.11,36.84L581.07,70.07L597.91,78.11L614.60,77.80L631.14,69.15L663.91,35.16L655.41,26.96L622.64,60.96L605.95,61.27L597.14,36.38L613.22,2.69L637.80,-22.80L654.49,-23.11L654.95,1.93L638.41,10.58L613.37,11.04L613.53,19.38L655.26,18.62Z" fill="#ffffff" stroke="#000000"/>
    <path d="M-452.92,-231.40L-462.24,-280.76L-478.57,-272.15L-520.03,-279.52L-544.45,-262.47L-552.17,-237.53L-543.21,-204.68L-525.99,-172.01L-508.94,-147.59L-508.59,-131.08L-516.67,-122.64L-533.00,-114.03L-557.77,-113.50L-583.43,-154.25L-591.68,-154.08L-582.19,-96.46L-565.85,-105.07L-524.39,-97.70L-491.72,-114.92L-484.17,-148.12L-493.14,-180.97L-510.36,-213.64L-527.40,-238.06L-519.50,-254.75L-511.42,-263.18L-486.65,-263.71L-461.17,-231.22ZM-378.79,-241.25L-370.53,-241.42L-362.63,-258.11L-362.80,-266.37L-379.49,-274.27L-387.75,-274.10L-395.65,-257.41L-395.48,-249.15ZM-468.19,-173.25L-459.76,-165.17L-419.36,-207.34L-411.10,-207.51L-458.87,-123.88L-458.69,-115.63L-450.26,-107.55L-433.75,-107.90L-417.41,-116.51L-377.01,-158.68L-385.45,-166.76L-425.85,-124.59L-434.10,-124.42L-386.33,-208.04L-386.51,-216.30L-403.20,-224.20L-427.79,-215.41ZM-293.39,-110.91L-285.13,-111.09L-268.79,-119.70L-228.40,-161.87L-236.83,-169.95L-277.23,-127.78L-285.49,-127.60L-214.54,-286.07L-272.34,-284.83L-272.16,-276.58L-247.39,-277.11L-270.57,-202.27L-279.18,-218.60L-312.38,-226.15L-352.95,-192.24L-368.58,-150.60L-359.62,-117.75L-342.93,-109.85L-326.41,-110.21L-302.18,-135.51L-301.82,-118.99ZM-326.77,-126.72L-335.02,-126.54L-343.81,-151.13L-328.01,-184.51L-303.77,-209.81L-287.26,-210.17L-278.65,-193.83L-278.47,-185.58L-302.53,-152.02ZM-113.34,-189.12L-113.69,-205.63L-122.30,-221.97L-155.51,-229.52L-196.26,-203.86L-219.96,-153.79L-211.00,-120.94L-194.31,-113.04L-177.80,-113.39L-161.46,-122.00L-129.14,-155.74L-137.58,-163.82L-169.89,-130.08L-186.41,-129.73L-195.19,-154.32L-179.39,-187.70L-155.15,-213.00L-138.64,-213.36L-138.11,-188.59L-154.44,-179.98L-179.21,-179.45L-179.04,-171.19L-137.75,-172.07ZM-113.16,-180.86L-104.73,-172.78L-64.33,-214.95L-56.07,-215.13L-103.66,-123.24L-95.23,-115.16L-78.72,-115.52L-47.11,-182.28L-22.87,-207.58L-6.54,-216.19L1.90,-208.11L-37.79,-132.92L-37.61,-124.66L-29.18,-116.58L-12.67,-116.94L3.67,-125.55L44.07,-167.71L35.63,-175.79L-4.76,-133.63L-13.02,-133.45L26.85,-200.39L26.31,-225.16L1.37,-232.88L-23.23,-224.09L-47.46,-198.79L-39.56,-215.48L-39.74,-223.74L-48.17,-231.82L-72.76,-223.03ZM86.41,-119.06L102.92,-119.41L143.68,-145.07L167.38,-195.14L150.16,-227.81L116.96,-235.36L76.21,-209.70L52.50,-159.63L69.72,-126.96ZM117.31,-218.85L133.83,-219.20L142.61,-194.61L126.81,-161.23L102.57,-135.93L86.06,-135.57L77.27,-160.17L93.07,-193.55ZM201.65,-138.05L241.16,-221.50L265.93,-222.03L265.75,-230.29L240.98,-229.76L256.79,-263.14L240.27,-262.79L232.55,-237.84L216.21,-229.23L199.70,-228.87L199.88,-220.62L216.39,-220.97L176.88,-137.52L177.06,-129.27L185.49,-121.19L202.00,-121.54L218.34,-130.15L258.74,-172.32L250.30,-180.40L209.91,-138.23ZM382.05,-199.74L381.70,-216.26L373.09,-232.59L339.88,-240.14L299.13,-214.49L275.43,-164.42L284.39,-131.57L301.08,-123.67L317.59,-124.02L333.93,-132.63L366.25,-166.36L357.81,-174.44L325.50,-140.71L308.98,-140.36L300.20,-164.95L316.00,-198.33L340.24,-223.63L356.75,-223.98L357.28,-199.21L340.95,-190.60L316.18,-190.07L316.35,-181.81L357.64,-182.70ZM423.33,-200.63L431.59,-200.81L439.49,-217.50L439.32,-225.75L422.63,-233.66L414.37,-233.48L406.47,-216.79L406.64,-208.53ZM400.16,-125.79L408.42,-125.97L416.32,-142.66L416.14,-150.91L399.45,-158.82L391.19,-158.64L383.29,-141.95L383.47,-133.69ZM-702.81,56.47L-703.34,31.70L-687.89,-18.20L-647.32,-52.11L-630.81,-52.46L-613.94,-36.30L-613.41,-11.53L-596.89,-11.89L-580.74,-28.76L-589.35,-45.09L-630.98,-60.72L-655.75,-60.19L-688.42,-42.97L-712.66,-17.66L-728.64,7.46L-736.01,48.92L-718.62,89.85L-685.24,105.65L-652.21,104.94L-627.79,87.90L-603.56,62.60L-611.99,54.52L-636.23,79.82L-660.64,96.86L-677.16,97.22L-693.85,89.32ZM-570.00,86.66L-499.06,-71.81L-556.85,-70.57L-556.67,-62.31L-531.90,-62.84L-594.77,87.19L-594.59,95.45L-577.90,103.35L-553.31,94.56L-512.91,52.39L-521.35,44.31L-561.74,86.48ZM-423.86,-32.12L-415.61,-32.30L-407.70,-48.99L-407.88,-57.24L-424.57,-65.15L-432.83,-64.97L-440.73,-48.28L-440.55,-40.02ZM-513.27,35.88L-504.83,43.96L-464.44,1.79L-456.18,1.61L-503.95,85.24L-503.77,93.50L-495.34,101.58L-478.82,101.22L-462.49,92.61L-422.09,50.44L-430.52,42.37L-470.92,84.53L-479.18,84.71L-431.41,1.08L-431.59,-7.17L-448.28,-15.08L-472.87,-6.29ZM-290.52,22.84L-274.36,5.97L-258.02,-2.64L-249.59,5.44L-289.28,80.64L-289.10,88.89L-280.67,96.97L-264.15,96.62L-247.82,88.01L-207.42,45.84L-215.86,37.76L-256.25,79.93L-264.51,80.11L-224.64,13.17L-225.17,-11.60L-250.12,-19.33L-274.71,-10.54L-290.87,6.33L-291.23,-10.18L-307.92,-18.09L-332.51,-9.30L-356.75,16.00L-348.84,-0.69L-349.02,-8.94L-357.46,-17.02L-382.05,-8.24L-422.44,33.93L-414.01,42.01L-373.61,-0.16L-365.36,-0.33L-412.95,91.55L-404.52,99.63L-388.00,99.28L-356.39,32.51L-332.15,7.21L-315.82,-1.40L-307.39,6.68L-346.90,90.13L-338.46,98.21L-321.95,97.86ZM-76.56,-14.79L-84.99,-22.87L-100.97,2.26L-109.58,-14.08L-142.79,-21.63L-183.36,12.28L-198.99,53.92L-190.02,86.77L-173.33,94.67L-156.82,94.32L-132.58,69.02L-132.23,85.53L-123.79,93.61L-99.20,84.82L-58.80,42.65L-67.24,34.57L-107.64,76.74L-115.89,76.92ZM-157.17,77.80L-165.43,77.98L-174.22,53.39L-158.41,20.01L-134.18,-5.29L-117.66,-5.65L-109.05,10.69L-108.88,18.95L-132.94,52.50ZM-33.33,75.15L6.18,-8.30L30.95,-8.83L30.78,-17.09L6.01,-16.56L21.81,-49.94L5.30,-49.59L-2.43,-24.64L-18.76,-16.03L-35.27,-15.67L-35.10,-7.42L-18.58,-7.77L-58.10,75.68L-57.92,83.93L-49.49,92.01L-32.97,91.66L-16.64,83.05L23.76,40.88L15.33,32.80L-25.07,74.97ZM147.08,13.46L146.72,-3.06L138.11,-19.39L104.91,-26.94L64.16,-1.29L40.45,48.78L49.42,81.63L66.11,89.53L82.62,89.18L98.95,80.57L131.27,46.84L122.84,38.76L90.52,72.49L74.01,72.84L65.22,48.25L81.02,14.87L105.26,-10.43L121.78,-10.78L122.31,13.99L105.97,22.60L81.20,23.13L81.38,31.38L122.66,30.50ZM186.41,-78.25L203.28,-62.09L164.83,70.90L148.67,87.76L231.24,85.99L272.16,68.59L296.22,35.04L287.26,2.19L262.31,-5.54L278.65,-14.15L302.89,-39.45L293.92,-72.30L252.46,-79.67ZM189.60,70.37L228.05,-62.62L236.13,-71.06L252.64,-71.41L269.33,-63.51L269.86,-38.74L253.88,-13.62L229.29,-4.83L212.77,-4.47L212.95,3.78L237.72,3.25L254.41,11.15L263.20,35.75L247.22,60.87L214.55,78.09L198.03,78.44ZM435.35,-25.77L426.91,-33.85L410.93,-8.73L402.32,-25.06L369.12,-32.61L328.54,1.30L312.91,42.94L321.88,75.79L338.57,83.69L355.08,83.34L379.32,58.04L379.68,74.55L388.11,82.63L412.70,73.84L453.10,31.67L444.66,23.59L404.27,65.76L396.01,65.94ZM354.73,66.82L346.47,67.00L337.68,42.41L353.49,9.03L377.73,-16.27L394.24,-16.63L402.85,-0.29L403.03,7.96L378.97,41.52ZM470.50,72.60L469.97,47.83L461.53,39.75L445.20,48.36L445.73,73.13L462.42,81.03L478.93,80.68L503.52,71.89L519.68,55.02L519.33,38.51L510.19,-2.59L509.83,-19.11L526.17,-27.72L526.70,-2.95L535.13,5.13L551.47,-3.48L550.94,-28.25L525.99,-35.97L493.14,-27.01L485.24,-10.32L485.59,6.19L494.56,39.04L494.91,55.56L478.75,72.42ZM667.24,2.30L666.88,-14.22L658.27,-30.55L625.07,-38.10L584.32,-12.44L560.61,37.63L569.57,70.47L586.26,78.38L602.78,78.02L619.11,69.41L651.43,35.68L643.00,27.60L610.68,61.33L594.17,61.69L585.38,37.09L601.18,3.71L625.42,-21.59L641.94,-21.94L642.47,2.83L626.13,11.44L601.36,11.97L601.54,20.23L642.82,19.34Z" fill="#ffffff" stroke="#000000"/>
    <path d="M-454.20,-224.64L-463.57,-273.44L-479.70,-264.87L-520.74,-272.04L-544.84,-255.11L-552.40,-230.40L-543.44,-197.94L-526.30,-165.67L-509.37,-141.57L-508.96,-125.23L-516.93,-116.87L-533.07,-108.30L-557.57,-107.70L-583.07,-147.93L-591.24,-147.73L-581.67,-90.76L-565.53,-99.33L-524.50,-92.16L-492.23,-109.30L-484.86,-142.17L-493.83,-174.64L-510.97,-206.90L-527.90,-231.00L-520.14,-247.54L-512.17,-255.91L-487.67,-256.51L-462.36,-224.44ZM-380.89,-234.61L-372.73,-234.81L-364.96,-251.34L-365.16,-259.51L-381.69,-267.28L-389.86,-267.08L-397.63,-250.54L-397.43,-242.38ZM-469.13,-167.07L-460.76,-159.10L-420.93,-200.94L-412.76,-201.14L-459.76,-118.27L-459.56,-110.10L-451.19,-102.13L-434.86,-102.53L-418.73,-111.10L-378.89,-152.94L-387.26,-160.90L-427.09,-119.07L-435.26,-118.87L-388.26,-201.74L-388.46,-209.91L-404.99,-217.67L-429.30,-208.91ZM-296.02,-105.94L-287.85,-106.14L-271.72,-114.70L-231.88,-156.54L-240.25,-164.51L-280.08,-122.67L-288.25,-122.47L-218.55,-279.45L-275.72,-278.05L-275.52,-269.88L-251.02,-270.48L-273.72,-196.38L-282.29,-212.51L-315.16,-219.88L-355.19,-186.21L-370.52,-144.97L-361.56,-112.50L-345.02,-104.74L-328.69,-105.14L-304.79,-130.24L-304.39,-113.90ZM-329.09,-121.47L-337.25,-121.27L-346.02,-145.57L-330.49,-178.64L-306.59,-203.74L-290.25,-204.14L-281.69,-188.01L-281.49,-179.84L-305.19,-146.57ZM-118.14,-183.85L-118.54,-200.18L-127.11,-216.31L-159.98,-223.68L-200.21,-198.18L-223.51,-148.57L-214.55,-116.11L-198.01,-108.34L-181.68,-108.74L-165.54,-117.31L-133.68,-150.78L-142.04,-158.74L-173.91,-125.27L-190.25,-124.87L-199.01,-149.18L-183.48,-182.24L-159.58,-207.35L-143.25,-207.75L-142.64,-183.25L-158.78,-174.68L-183.28,-174.08L-183.08,-165.91L-142.24,-166.91ZM-117.94,-175.68L-109.58,-167.71L-69.74,-209.55L-61.57,-209.75L-108.37,-118.71L-100.01,-110.74L-83.67,-111.14L-52.61,-177.28L-28.70,-202.38L-12.57,-210.95L-4.20,-202.98L-43.24,-128.48L-43.04,-120.31L-34.67,-112.34L-18.34,-112.74L-2.20,-121.31L37.63,-163.15L29.27,-171.12L-10.57,-129.28L-18.74,-129.08L20.50,-195.42L19.90,-219.92L-4.80,-227.48L-29.11,-218.72L-53.01,-193.62L-45.24,-210.15L-45.44,-218.32L-53.81,-226.28L-78.11,-217.52ZM79.67,-115.15L96.00,-115.55L136.24,-141.05L159.54,-190.65L142.40,-222.92L109.54,-230.29L69.30,-204.79L46.00,-155.18L63.14,-122.91ZM109.94,-213.95L126.27,-214.35L135.04,-190.05L119.51,-156.98L95.60,-131.88L79.27,-131.48L70.50,-155.78L86.04,-188.85ZM193.61,-134.28L232.44,-216.96L256.95,-217.56L256.74,-225.73L232.24,-225.12L247.78,-258.19L231.44,-257.79L223.88,-233.09L207.74,-224.52L191.41,-224.12L191.61,-215.96L207.94,-216.36L169.11,-133.68L169.31,-125.52L177.68,-117.55L194.01,-117.95L210.14,-126.52L249.98,-168.35L241.61,-176.32L201.78,-134.48ZM371.89,-195.86L371.49,-212.19L362.92,-228.33L330.05,-235.69L289.81,-210.19L266.51,-160.59L275.48,-128.12L292.02,-120.35L308.35,-120.75L324.48,-129.32L356.35,-162.79L347.99,-170.76L316.12,-137.29L299.78,-136.89L291.02,-161.19L306.55,-194.26L330.45,-219.36L346.78,-219.76L347.38,-195.26L331.25,-186.69L306.75,-186.09L306.95,-177.92L347.78,-178.92ZM412.72,-196.86L420.89,-197.06L428.66,-213.60L428.46,-221.76L411.92,-229.53L403.75,-229.33L395.99,-212.79L396.19,-204.63ZM390.02,-122.76L398.19,-122.96L405.96,-139.49L405.76,-147.66L389.22,-155.42L381.05,-155.22L373.29,-138.69L373.49,-130.52ZM-700.53,60.88L-701.13,36.38L-686.00,-13.02L-645.96,-46.69L-629.63,-47.09L-612.89,-31.16L-612.29,-6.66L-595.96,-7.06L-580.03,-23.79L-588.59,-39.93L-629.83,-55.26L-654.33,-54.66L-686.60,-37.52L-710.50,-12.42L-726.23,12.48L-733.40,53.52L-716.06,93.95L-683.00,109.49L-650.33,108.69L-626.23,91.75L-602.32,66.65L-610.69,58.68L-634.59,83.78L-658.69,100.72L-675.03,101.12L-691.56,93.35ZM-569.06,90.35L-499.36,-66.63L-556.53,-65.23L-556.33,-57.06L-531.82,-57.66L-593.56,90.95L-593.36,99.12L-576.82,106.88L-552.52,98.12L-512.69,56.28L-521.05,48.31L-560.89,90.15ZM-424.85,-27.60L-416.68,-27.80L-408.92,-44.33L-409.12,-52.50L-425.65,-60.26L-433.82,-60.06L-441.59,-43.53L-441.38,-35.36ZM-513.09,39.94L-504.72,47.91L-464.89,6.07L-456.72,5.87L-503.72,88.75L-503.52,96.91L-495.15,104.88L-478.82,104.48L-462.68,95.91L-422.85,54.08L-431.22,46.11L-471.05,87.95L-479.22,88.15L-432.22,5.27L-432.42,-2.89L-448.95,-10.66L-473.25,-1.89ZM-292.77,26.37L-276.84,9.64L-260.71,1.07L-252.34,9.04L-291.37,83.54L-291.17,91.71L-282.81,99.68L-266.47,99.27L-250.34,90.71L-210.50,48.87L-218.87,40.90L-258.70,82.74L-266.87,82.94L-227.64,16.60L-228.24,-7.90L-252.94,-15.47L-277.24,-6.70L-293.17,10.04L-293.58,-6.30L-310.11,-14.06L-334.41,-5.30L-358.31,19.81L-350.55,3.27L-350.75,-4.90L-359.11,-12.86L-383.41,-4.10L-423.25,37.74L-414.88,45.71L-375.05,3.87L-366.88,3.67L-413.68,94.71L-405.31,102.68L-388.98,102.28L-357.91,36.14L-334.01,11.04L-317.88,2.47L-309.51,10.44L-348.34,93.11L-339.98,101.08L-323.64,100.68ZM-81.23,-11.50L-89.60,-19.47L-105.33,5.43L-113.90,-10.70L-146.77,-18.07L-186.80,15.60L-202.13,56.84L-193.17,89.31L-176.63,97.07L-160.30,96.67L-136.40,71.57L-136.00,87.90L-127.63,95.87L-103.33,87.10L-63.49,45.27L-71.86,37.30L-111.70,79.14L-119.86,79.34ZM-160.70,80.34L-168.87,80.54L-177.63,56.24L-162.10,23.17L-138.20,-1.93L-121.86,-2.34L-113.30,13.80L-113.10,21.97L-136.80,55.24ZM-38.19,77.33L0.64,-5.34L25.14,-5.94L24.94,-14.11L0.44,-13.51L15.98,-46.57L-0.36,-46.17L-7.93,-21.47L-24.06,-12.91L-40.39,-12.50L-40.19,-4.34L-23.86,-4.74L-62.69,77.93L-62.49,86.10L-54.13,94.07L-37.79,93.67L-21.66,85.10L18.18,43.26L9.81,35.30L-30.02,77.13ZM140.08,15.76L139.68,-0.58L131.12,-16.71L98.25,-24.08L58.01,1.43L34.71,51.03L43.68,83.50L60.21,91.27L76.55,90.87L92.68,82.30L124.55,48.83L116.18,40.86L84.32,74.33L67.98,74.73L59.21,50.43L74.75,17.36L98.65,-7.74L114.98,-8.14L115.58,16.36L99.45,24.93L74.95,25.53L75.15,33.70L115.98,32.69ZM178.72,-75.08L195.45,-59.15L157.82,72.53L141.89,89.26L223.56,87.26L263.99,69.93L287.69,36.66L278.73,4.19L254.02,-3.38L270.16,-11.95L294.06,-37.05L285.09,-69.52L244.05,-76.68ZM182.32,71.93L219.95,-59.75L227.92,-68.11L244.25,-68.52L260.79,-60.75L261.39,-36.25L245.66,-11.35L221.36,-2.58L205.02,-2.18L205.22,5.99L229.72,5.39L246.26,13.16L255.03,37.46L239.29,62.36L207.02,79.49L190.69,79.89ZM425.13,-23.92L416.77,-31.88L401.03,-6.98L392.47,-23.12L359.60,-30.48L319.56,3.19L304.23,44.42L313.20,76.89L329.73,84.66L346.07,84.26L369.97,59.16L370.37,75.49L378.73,83.46L403.03,74.69L442.87,32.85L434.50,24.89L394.67,66.72L386.50,66.92ZM345.66,67.92L337.50,68.12L328.73,43.82L344.26,10.75L368.16,-14.35L384.50,-14.75L393.07,1.38L393.27,9.55L369.57,42.82ZM460.20,73.29L459.60,48.79L451.24,40.82L435.10,49.39L435.70,73.89L452.24,81.65L468.57,81.25L492.87,72.49L508.81,55.75L508.41,39.42L499.24,-1.22L498.84,-17.55L514.97,-26.12L515.57,-1.62L523.94,6.35L540.07,-2.22L539.47,-26.72L514.77,-34.29L482.30,-25.32L474.54,-8.78L474.94,7.55L483.91,40.02L484.31,56.35L468.37,73.09ZM654.61,3.14L654.21,-13.19L645.65,-29.32L612.78,-36.69L572.54,-11.19L549.24,38.42L558.21,70.88L574.75,78.65L591.08,78.25L607.21,69.68L639.08,36.21L630.71,28.25L598.85,61.72L582.51,62.12L573.74,37.82L589.28,4.75L613.18,-20.36L629.51,-20.76L630.11,3.75L613.98,12.31L589.48,12.91L589.68,21.08L630.51,20.08Z" fill="#ffffff" stroke="#000000"/>
    <path d="M-455.32,-217.94L-464.74,-266.18L-480.67,-257.66L-521.28,-264.62L-545.07,-247.80L-552.48,-223.35L-543.51,-191.26L-526.46,-159.39L-509.64,-135.60L-509.19,-119.45L-517.05,-111.15L-532.98,-102.62L-557.21,-101.96L-582.56,-141.68L-590.64,-141.45L-581.00,-85.13L-565.07,-93.66L-524.46,-86.69L-492.59,-103.74L-485.40,-136.27L-494.37,-168.36L-511.42,-200.23L-528.24,-224.01L-520.61,-240.39L-512.76,-248.69L-488.52,-249.36L-463.40,-217.72ZM-382.84,-228.02L-374.77,-228.25L-367.14,-244.62L-367.36,-252.70L-383.74,-260.33L-391.81,-260.11L-399.45,-243.73L-399.22,-235.66ZM-469.92,-160.95L-461.62,-153.10L-422.34,-194.60L-414.26,-194.82L-460.50,-112.71L-460.28,-104.63L-451.98,-96.78L-435.82,-97.22L-419.89,-105.74L-380.62,-147.25L-388.92,-155.10L-428.19,-113.60L-436.27,-113.38L-390.03,-195.49L-390.25,-203.57L-406.63,-211.20L-430.64,-202.45ZM-298.50,-101.01L-290.43,-101.23L-274.49,-109.75L-235.22,-151.26L-243.52,-159.11L-282.79,-117.61L-290.87,-117.39L-222.40,-272.87L-278.95,-271.31L-278.73,-263.23L-254.49,-263.90L-276.72,-190.53L-285.24,-206.46L-317.78,-213.65L-357.27,-180.23L-372.32,-139.39L-363.35,-107.30L-346.97,-99.67L-330.81,-100.12L-307.25,-125.02L-306.80,-108.86ZM-331.26,-116.27L-339.34,-116.05L-348.08,-140.06L-332.82,-172.82L-309.25,-197.72L-293.10,-198.16L-284.58,-182.23L-284.35,-174.15L-307.69,-141.17ZM-122.80,-178.61L-123.24,-194.76L-131.77,-210.70L-164.30,-217.88L-204.02,-192.54L-226.92,-143.40L-217.95,-111.31L-201.57,-103.68L-185.41,-104.13L-169.48,-112.65L-138.06,-145.85L-146.36,-153.71L-177.78,-120.51L-193.94,-120.06L-202.68,-144.07L-187.42,-176.83L-163.86,-201.73L-147.70,-202.17L-147.03,-177.94L-162.96,-169.42L-187.20,-168.75L-186.97,-160.67L-146.59,-161.79ZM-122.58,-170.53L-114.27,-162.68L-75.00,-204.18L-66.92,-204.40L-112.94,-114.21L-104.64,-106.36L-88.48,-106.80L-57.95,-172.31L-34.39,-197.22L-18.46,-205.74L-10.16,-197.88L-48.54,-124.07L-48.32,-115.99L-40.02,-108.14L-23.86,-108.58L-7.93,-117.11L31.35,-158.61L23.05,-166.46L-16.23,-124.96L-24.31,-124.74L14.30,-190.47L13.63,-214.71L-10.82,-222.12L-34.83,-213.37L-58.40,-188.47L-50.77,-204.85L-50.99,-212.93L-59.29,-220.78L-83.30,-212.03ZM73.07,-111.26L89.23,-111.70L128.95,-137.05L151.84,-186.18L134.80,-218.05L102.26,-225.24L62.54,-199.89L39.65,-150.75L56.69,-118.89ZM102.71,-209.08L118.87,-209.53L127.61,-185.52L112.35,-152.76L88.78,-127.86L72.63,-127.41L63.88,-151.42L79.15,-184.18ZM185.72,-130.53L223.88,-212.42L248.11,-213.09L247.89,-221.17L223.65,-220.50L238.92,-253.26L222.76,-252.81L215.35,-228.36L199.42,-219.83L183.26,-219.39L183.49,-211.31L199.64,-211.75L161.48,-129.86L161.70,-121.79L170.01,-113.93L186.16,-114.38L202.09,-122.90L241.37,-164.40L233.07,-172.26L193.79,-130.75ZM361.87,-191.98L361.42,-208.13L352.90,-224.07L320.36,-231.25L280.64,-205.90L257.75,-156.77L266.72,-124.68L283.09,-117.05L299.25,-117.50L315.18,-126.02L346.60,-159.22L338.30,-167.08L306.88,-133.87L290.73,-133.43L281.98,-157.44L297.24,-190.19L320.81,-215.10L336.96,-215.54L337.63,-191.31L321.70,-182.79L297.47,-182.12L297.69,-174.04L338.08,-175.15ZM402.25,-193.09L410.33,-193.31L417.96,-209.69L417.74,-217.77L401.36,-225.40L393.29,-225.18L385.65,-208.80L385.88,-200.72ZM380.03,-119.72L388.10,-119.95L395.74,-136.32L395.51,-144.40L379.14,-152.03L371.06,-151.81L363.43,-135.43L363.65,-127.36ZM-698.11,65.22L-698.78,40.99L-683.96,-7.92L-644.46,-41.35L-628.31,-41.79L-611.71,-26.08L-611.04,-1.85L-594.88,-2.29L-579.17,-18.90L-587.70,-34.83L-628.53,-49.87L-652.76,-49.20L-684.63,-32.15L-708.19,-7.25L-723.68,17.43L-730.65,58.04L-713.38,97.98L-680.62,113.24L-648.31,112.35L-624.52,95.53L-600.96,70.63L-609.26,62.77L-632.82,87.67L-656.61,104.50L-672.76,104.94L-689.14,97.31ZM-567.98,93.97L-499.51,-61.51L-556.05,-59.95L-555.83,-51.87L-531.60,-52.54L-592.21,94.64L-591.99,102.72L-575.61,110.35L-551.60,101.60L-512.32,60.10L-520.62,52.24L-559.90,93.75ZM-425.70,-23.13L-417.62,-23.35L-409.99,-39.73L-410.21,-47.81L-426.59,-55.44L-434.67,-55.22L-442.30,-38.84L-442.07,-30.76ZM-512.77,43.94L-504.47,51.80L-465.19,10.30L-457.12,10.07L-503.35,92.19L-503.13,100.27L-494.83,108.12L-478.68,107.67L-462.74,99.15L-423.47,57.65L-431.77,49.79L-471.04,91.30L-479.12,91.52L-432.88,9.41L-433.11,1.33L-449.48,-6.30L-473.49,2.44ZM-294.89,29.85L-279.18,13.25L-263.25,4.73L-254.95,12.58L-293.33,86.40L-293.11,94.47L-284.81,102.33L-268.66,101.88L-252.72,93.36L-213.45,51.86L-221.75,44.00L-261.02,85.50L-269.10,85.73L-230.49,19.99L-231.16,-4.24L-255.62,-11.65L-279.63,-2.91L-295.34,13.70L-295.78,-2.46L-312.16,-10.09L-336.17,-1.35L-359.74,23.56L-352.11,7.18L-352.33,-0.90L-360.63,-8.76L-384.64,-0.01L-423.91,41.49L-415.61,49.35L-376.34,7.85L-368.26,7.62L-414.28,97.81L-405.98,105.67L-389.82,105.22L-359.29,39.71L-335.73,14.81L-319.79,6.29L-311.49,14.14L-349.66,96.03L-341.35,103.89L-325.20,103.44ZM-85.76,-8.25L-94.06,-16.11L-109.55,8.57L-118.07,-7.36L-150.61,-14.55L-190.11,18.88L-205.15,59.71L-196.18,91.80L-179.80,99.43L-163.64,98.99L-140.08,74.08L-139.63,90.24L-131.33,98.09L-107.32,89.35L-68.05,47.85L-76.35,39.99L-115.62,81.49L-123.70,81.72ZM-164.09,82.83L-172.17,83.05L-180.91,59.04L-165.65,26.29L-142.08,1.38L-125.93,0.94L-117.41,16.87L-117.18,24.95L-140.53,57.93ZM-42.92,79.49L-4.76,-2.40L19.47,-3.07L19.25,-11.15L-4.99,-10.48L10.28,-43.24L-5.88,-42.79L-13.29,-18.34L-29.22,-9.81L-45.37,-9.37L-45.15,-1.29L-29.00,-1.73L-67.16,80.16L-66.93,88.23L-58.63,96.09L-42.48,95.64L-26.55,87.12L12.73,45.62L4.43,37.76L-34.85,79.27ZM133.23,18.04L132.78,1.89L124.26,-14.05L91.72,-21.23L52.00,4.12L29.11,53.25L38.08,85.34L54.45,92.97L70.61,92.52L86.54,84.00L117.96,50.80L109.66,42.94L78.24,76.15L62.09,76.59L53.34,52.58L68.60,19.82L92.17,-5.08L108.32,-5.52L108.99,18.71L93.06,27.23L68.83,27.90L69.05,35.98L109.44,34.87ZM171.16,-71.93L187.77,-56.22L150.94,74.14L135.23,90.74L216.01,88.51L255.95,71.24L279.29,38.27L270.32,6.18L245.87,-1.23L261.80,-9.76L285.37,-34.66L276.40,-66.75L235.79,-73.71ZM175.17,73.47L212.00,-56.88L219.85,-65.19L236.01,-65.63L252.39,-58.00L253.06,-33.77L237.57,-9.09L213.56,-0.34L197.40,0.10L197.63,8.18L221.86,7.51L238.24,15.15L246.98,39.16L231.50,63.84L199.63,80.88L183.47,81.33ZM415.06,-22.07L406.75,-29.92L391.27,-5.24L382.74,-21.18L350.21,-28.36L310.71,5.06L295.67,45.90L304.64,77.99L321.02,85.62L337.17,85.17L360.74,60.27L361.18,76.43L369.49,84.28L393.50,75.53L432.77,34.03L424.47,26.18L385.20,67.68L377.12,67.90ZM336.73,69.02L328.65,69.24L319.91,45.23L335.17,12.47L358.73,-12.43L374.89,-12.87L383.41,3.06L383.64,11.14L360.29,44.12ZM450.04,73.98L449.37,49.74L441.07,41.89L425.14,50.41L425.81,74.64L442.19,82.28L458.34,81.83L482.35,73.08L498.06,56.48L497.62,40.33L488.42,0.16L487.98,-15.99L503.91,-24.52L504.58,-0.28L512.88,7.57L528.81,-0.95L528.14,-25.19L503.69,-32.59L471.60,-23.63L463.97,-7.25L464.41,8.91L473.38,41.00L473.83,57.15L458.12,73.75ZM642.12,4.01L641.68,-12.15L633.15,-28.08L600.62,-35.27L560.90,-9.92L538.00,39.21L546.97,71.30L563.35,78.93L579.51,78.49L595.44,69.96L626.86,36.76L618.56,28.91L587.14,62.11L570.98,62.56L562.24,38.55L577.50,5.79L601.07,-19.11L617.22,-19.56L617.89,4.67L601.96,13.20L577.72,13.87L577.95,21.94L618.34,20.83Z" fill="#ffffff" stroke="#000000"/>
    <path d="M-456.29,-211.30L-465.75,-258.99L-481.48,-250.51L-521.67,-257.27L-545.14,-240.56L-552.39,-216.35L-543.43,-184.64L-526.47,-153.18L-509.76,-129.70L-509.27,-113.73L-517.01,-105.50L-532.75,-97.02L-556.71,-96.28L-581.90,-135.49L-589.89,-135.24L-580.19,-79.57L-564.45,-88.05L-524.27,-81.29L-492.80,-98.24L-485.80,-130.44L-494.76,-162.15L-511.72,-193.61L-528.43,-217.09L-520.93,-233.31L-513.19,-241.54L-489.22,-242.27L-464.28,-211.06ZM-384.64,-221.49L-376.65,-221.74L-369.15,-237.96L-369.40,-245.95L-385.62,-253.45L-393.61,-253.20L-401.11,-236.98L-400.86,-228.99ZM-470.55,-154.89L-462.32,-147.15L-423.60,-188.32L-415.62,-188.56L-461.10,-107.21L-460.85,-99.22L-452.62,-91.48L-436.64,-91.97L-420.91,-100.44L-382.19,-141.61L-390.43,-149.35L-429.14,-108.19L-437.13,-107.94L-391.65,-189.30L-391.90,-197.28L-408.12,-204.78L-431.84,-196.06ZM-300.84,-96.13L-292.85,-96.37L-277.12,-104.85L-238.41,-146.02L-246.64,-153.76L-285.36,-112.60L-293.34,-112.35L-226.10,-266.33L-282.02,-264.62L-281.77,-256.63L-257.81,-257.36L-279.57,-184.73L-288.05,-200.47L-320.25,-207.47L-359.21,-174.30L-373.96,-133.87L-364.99,-102.16L-348.77,-94.66L-332.80,-95.15L-309.56,-119.85L-309.08,-103.87ZM-333.28,-111.13L-341.27,-110.88L-350.00,-134.60L-335.00,-167.04L-311.77,-191.74L-295.79,-192.23L-287.31,-176.50L-287.07,-168.51L-310.05,-135.83ZM-127.30,-173.41L-127.79,-189.39L-136.27,-205.12L-168.47,-212.13L-207.68,-186.94L-230.17,-138.27L-221.20,-106.57L-204.98,-99.07L-189.01,-99.56L-173.27,-108.03L-142.30,-140.97L-150.53,-148.71L-181.51,-115.78L-197.48,-115.29L-206.21,-139.01L-191.21,-171.45L-167.98,-196.15L-152.00,-196.64L-151.27,-172.68L-167.00,-164.20L-190.97,-163.46L-190.72,-155.47L-150.78,-156.70ZM-127.06,-165.42L-118.83,-157.68L-80.11,-198.84L-72.12,-199.09L-117.36,-109.75L-109.12,-102.00L-93.15,-102.49L-63.15,-167.38L-39.92,-192.08L-24.19,-200.56L-15.96,-192.81L-53.70,-119.70L-53.45,-111.71L-45.22,-103.96L-29.24,-104.45L-13.51,-112.93L25.21,-154.10L16.97,-161.84L-21.74,-120.67L-29.73,-120.43L8.25,-185.56L7.52,-209.52L-16.69,-216.78L-40.41,-208.06L-63.64,-183.36L-56.14,-199.58L-56.39,-207.57L-64.62,-215.31L-88.34,-206.59ZM66.62,-107.39L82.59,-107.88L121.80,-133.07L144.30,-181.73L127.34,-213.20L95.14,-220.21L55.94,-195.02L33.44,-146.35L50.40,-114.89ZM95.63,-204.23L111.61,-204.72L120.33,-181.00L105.33,-148.56L82.10,-123.86L66.13,-123.37L57.41,-147.09L72.40,-179.53ZM177.96,-126.80L215.46,-207.90L239.42,-208.64L239.18,-216.62L215.21,-215.89L230.21,-248.33L214.23,-247.84L206.98,-223.63L191.25,-215.16L175.27,-214.67L175.52,-206.68L191.49,-207.17L154.00,-126.06L154.24,-118.07L162.48,-110.33L178.45,-110.82L194.18,-119.30L232.90,-160.46L224.67,-168.21L185.95,-127.04ZM351.99,-188.10L351.50,-204.08L343.02,-219.81L310.83,-226.82L271.62,-201.63L249.12,-152.96L258.09,-121.26L274.31,-113.76L290.29,-114.25L306.02,-122.72L336.99,-155.66L328.76,-163.40L297.79,-130.47L281.81,-129.98L273.09,-153.70L288.08,-186.14L311.32,-210.84L327.29,-211.33L328.03,-187.36L312.29,-178.89L288.33,-178.15L288.57,-170.16L328.52,-171.39ZM391.93,-189.32L399.92,-189.57L407.42,-205.79L407.17,-213.78L390.95,-221.28L382.96,-221.03L375.47,-204.81L375.71,-196.82ZM370.17,-116.69L378.16,-116.94L385.66,-133.16L385.41,-141.15L369.19,-148.65L361.20,-148.40L353.70,-132.18L353.95,-124.19ZM-695.55,69.49L-696.29,45.52L-681.78,-2.90L-642.82,-36.07L-626.84,-36.56L-610.38,-21.08L-609.64,2.89L-593.67,2.40L-578.18,-14.07L-586.66,-29.80L-627.09,-44.55L-651.05,-43.82L-682.52,-26.86L-705.75,-2.16L-720.99,22.29L-727.75,62.48L-710.55,101.93L-678.11,116.93L-646.16,115.95L-622.68,99.24L-599.45,74.54L-607.68,66.79L-630.91,91.49L-654.39,108.20L-670.36,108.69L-686.59,101.19ZM-566.76,97.52L-499.52,-56.46L-555.44,-54.74L-555.19,-46.76L-531.23,-47.49L-590.73,98.26L-590.48,106.25L-574.26,113.74L-550.54,105.02L-511.82,63.86L-520.06,56.11L-558.77,97.28ZM-426.40,-18.72L-418.41,-18.96L-410.91,-35.19L-411.16,-43.17L-427.38,-50.67L-435.37,-50.43L-442.87,-34.21L-442.62,-26.22ZM-512.31,47.88L-504.08,55.62L-465.36,14.46L-457.38,14.21L-502.86,95.56L-502.61,103.55L-494.38,111.30L-478.40,110.81L-462.67,102.33L-423.95,61.16L-432.19,53.42L-470.90,94.58L-478.89,94.83L-433.41,13.48L-433.66,5.49L-449.88,-2.01L-473.60,6.71ZM-296.88,33.28L-281.39,16.81L-265.66,8.34L-257.42,16.08L-295.16,89.20L-294.92,97.19L-286.68,104.93L-270.71,104.44L-254.98,95.96L-216.26,54.80L-224.49,47.05L-263.21,88.22L-271.20,88.46L-233.21,23.33L-233.95,-0.63L-258.16,-7.88L-281.88,0.84L-297.37,17.30L-297.86,1.33L-314.08,-6.17L-337.80,2.55L-361.03,27.25L-353.53,11.03L-353.77,3.04L-362.01,-4.70L-385.73,4.02L-424.44,45.19L-416.21,52.93L-377.49,11.76L-369.50,11.52L-414.74,100.86L-406.51,108.60L-390.53,108.11L-360.54,43.23L-337.31,18.53L-321.57,10.05L-313.34,17.79L-350.83,98.90L-342.60,106.64L-326.63,106.15ZM-90.16,-5.04L-98.39,-12.78L-113.64,11.67L-122.11,-4.06L-154.31,-11.07L-193.27,22.11L-208.03,62.54L-199.06,94.25L-182.84,101.75L-166.86,101.26L-143.63,76.56L-143.14,92.53L-134.91,100.28L-111.19,91.56L-72.47,50.39L-80.70,42.65L-119.42,83.81L-127.41,84.06ZM-167.35,85.28L-175.34,85.53L-184.06,61.81L-169.06,29.36L-145.83,4.66L-129.86,4.17L-121.38,19.91L-121.13,27.89L-144.12,60.58ZM-47.53,81.61L-10.03,0.50L13.93,-0.23L13.69,-8.22L-10.28,-7.49L4.72,-39.93L-11.26,-39.44L-18.51,-15.23L-34.24,-6.75L-50.22,-6.26L-49.97,1.73L-34.00,1.24L-71.49,82.34L-71.25,90.33L-63.01,98.07L-47.04,97.59L-31.30,89.11L7.41,47.94L-0.82,40.20L-39.54,81.36ZM126.50,20.30L126.01,4.33L117.53,-11.40L85.34,-18.41L46.13,6.78L23.63,55.44L32.60,87.15L48.82,94.65L64.80,94.16L80.53,85.68L111.50,52.75L103.27,45.00L72.30,77.94L56.32,78.43L47.60,54.71L62.60,22.26L85.83,-2.44L101.80,-2.93L102.54,21.04L86.81,29.52L62.84,30.25L63.09,38.24L103.03,37.02ZM163.75,-68.79L180.22,-53.30L144.19,75.73L128.70,92.20L208.59,89.75L248.04,72.55L271.02,39.86L262.06,8.15L237.85,0.90L253.58,-7.58L276.81,-32.28L267.84,-63.98L227.66,-70.75ZM168.16,75.00L204.18,-54.04L211.92,-62.27L227.90,-62.76L244.12,-55.26L244.86,-31.30L229.61,-6.84L205.89,1.88L189.92,2.37L190.16,10.36L214.13,9.62L230.35,17.12L239.07,40.84L223.83,65.30L192.37,82.25L176.39,82.74ZM405.11,-20.22L396.88,-27.96L381.64,-3.51L373.16,-19.24L340.96,-26.25L302.00,6.93L287.25,47.36L296.21,79.07L312.43,86.57L328.41,86.08L351.64,61.38L352.13,77.36L360.36,85.10L384.08,76.38L422.80,35.21L414.57,27.47L375.85,68.63L367.86,68.88ZM327.92,70.10L319.93,70.35L311.21,46.63L326.21,14.18L349.44,-10.52L365.41,-11.00L373.89,4.73L374.14,12.72L351.15,45.40ZM440.00,74.66L439.27,50.70L431.03,42.95L415.30,51.43L416.04,75.40L432.26,82.90L448.23,82.41L471.95,73.68L487.44,57.22L486.95,41.24L477.74,1.54L477.25,-14.43L492.98,-22.91L493.72,1.05L501.95,8.80L517.68,0.32L516.95,-23.64L492.74,-30.90L461.03,-21.93L453.53,-5.71L454.02,10.27L462.99,41.97L463.48,57.95L447.99,74.42ZM629.76,4.88L629.27,-11.10L620.79,-26.83L588.60,-33.84L549.39,-8.65L526.89,40.02L535.86,71.72L552.08,79.22L568.06,78.73L583.79,70.26L614.76,37.32L606.53,29.58L575.56,62.51L559.58,63.00L550.86,39.28L565.86,6.84L589.09,-17.86L605.06,-18.35L605.80,5.62L590.06,14.09L566.10,14.83L566.34,22.82L606.29,21.59Z" fill="#ffffff" stroke="#000000"/>
    <path d="M-903.88,492L-906.92,488.96L-902.36,482.88L-893.24,482.88L-891.72,484.40L-891.72,488.96L-894.76,492L-884.12,492L-887.16,488.96L-887.16,460.08L-891.72,463.12L-891.72,464.64L-909.96,488.96L-914.52,492ZM-891.72,467.68L-891.72,479.84L-893.24,481.36L-900.84,481.36L-899.32,478.32ZM-862.84,476.80L-864.36,481.36L-870.44,487.44L-875,488.96L-876.52,488.96L-867.40,475.28L-867.40,472.24L-870.44,470.72L-875,472.24L-882.60,479.84L-881.08,481.36L-873.48,473.76L-871.96,473.76L-881.08,488.96L-881.08,490.48L-879.56,492L-876.52,492L-868.92,488.96L-862.84,482.88L-859.80,476.80L-859.80,473.76L-861.32,472.24L-864.36,472.24L-865.88,475.28L-864.36,476.80ZM-835.48,472.24L-837,470.72L-840.04,475.28L-841.56,472.24L-847.64,470.72L-855.24,476.80L-858.28,484.40L-856.76,490.48L-853.72,492L-850.68,492L-846.12,487.44L-846.12,490.48L-844.60,492L-840.04,490.48L-832.44,482.88L-833.96,481.36L-841.56,488.96L-843.08,488.96ZM-850.68,488.96L-852.20,488.96L-853.72,484.40L-850.68,478.32L-846.12,473.76L-843.08,473.76L-841.56,476.80L-841.56,478.32L-846.12,484.40ZM-832.44,479.84L-830.92,481.36L-823.32,473.76L-821.80,473.76L-830.92,490.48L-829.40,492L-826.36,492L-820.28,479.84L-815.72,476.80L-811.16,476.80L-809.64,472.24L-812.68,470.72L-815.72,472.24L-820.28,478.32L-821.80,478.32L-818.76,473.76L-818.76,472.24L-820.28,470.72L-824.84,472.24ZM-788.36,472.24L-789.88,470.72L-792.92,475.28L-794.44,472.24L-800.52,470.72L-808.12,476.80L-811.16,484.40L-809.64,490.48L-806.60,492L-803.56,492L-799,487.44L-799,490.48L-797.48,492L-792.92,490.48L-785.32,482.88L-786.84,481.36L-794.44,488.96L-795.96,488.96ZM-803.56,488.96L-805.08,488.96L-806.60,484.40L-803.56,478.32L-799,473.76L-795.96,473.76L-794.44,476.80L-794.44,478.32L-799,484.40ZM-783.80,479.84L-783.80,482.88L-774.68,482.88L-774.68,479.84ZM-765.56,461.60L-762.52,464.64L-770.12,488.96L-773.16,492L-757.96,492L-750.36,488.96L-745.80,482.88L-747.32,476.80L-751.88,475.28L-748.84,473.76L-744.28,469.20L-745.80,463.12L-753.40,461.60ZM-765.56,488.96L-757.96,464.64L-756.44,463.12L-753.40,463.12L-750.36,464.64L-750.36,469.20L-753.40,473.76L-757.96,475.28L-761,475.28L-761,476.80L-756.44,476.80L-753.40,478.32L-751.88,482.88L-754.92,487.44L-761,490.48L-764.04,490.48ZM-736.68,492L-733.64,492L-726.04,487.44L-721.48,478.32L-724.52,472.24L-730.60,470.72L-738.20,475.28L-742.76,484.40L-739.72,490.48ZM-730.60,473.76L-727.56,473.76L-726.04,478.32L-729.08,484.40L-733.64,488.96L-736.68,488.96L-738.20,484.40L-735.16,478.32ZM-715.40,488.96L-701.72,460.08L-712.36,460.08L-712.36,461.60L-707.80,461.60L-719.96,488.96L-719.96,490.48L-716.92,492L-712.36,490.48L-704.76,482.88L-706.28,481.36L-713.88,488.96ZM-689.56,492L-688.04,492L-685,490.48L-677.40,482.88L-678.92,481.36L-686.52,488.96L-688.04,488.96L-674.36,460.08L-685,460.08L-685,461.60L-680.44,461.60L-685,475.28L-686.52,472.24L-692.60,470.72L-700.20,476.80L-703.24,484.40L-701.72,490.48L-698.68,492L-695.64,492L-691.08,487.44L-691.08,490.48ZM-695.64,488.96L-697.16,488.96L-698.68,484.40L-695.64,478.32L-691.08,473.76L-688.04,473.76L-686.52,476.80L-686.52,478.32L-691.08,484.40ZM-669.80,488.96L-662.20,464.64L-657.64,461.60L-669.80,461.60L-666.76,464.64L-674.36,488.96L-678.92,492L-666.76,492ZM-657.64,488.96L-650.04,473.76L-645.48,473.76L-645.48,472.24L-650.04,472.24L-647,466.16L-650.04,466.16L-651.56,470.72L-654.60,472.24L-657.64,472.24L-657.64,473.76L-654.60,473.76L-662.20,488.96L-662.20,490.48L-660.68,492L-657.64,492L-654.60,490.48L-647,482.88L-648.52,481.36L-656.12,488.96ZM-621.16,472.24L-622.68,470.72L-625.72,475.28L-627.24,472.24L-633.32,470.72L-640.92,476.80L-643.96,484.40L-642.44,490.48L-639.40,492L-636.36,492L-631.80,487.44L-631.80,490.48L-630.28,492L-625.72,490.48L-618.12,482.88L-619.64,481.36L-627.24,488.96L-628.76,488.96ZM-636.36,488.96L-637.88,488.96L-639.40,484.40L-636.36,478.32L-631.80,473.76L-628.76,473.76L-627.24,476.80L-627.24,478.32L-631.80,484.40ZM-613.56,488.96L-599.88,460.08L-610.52,460.08L-610.52,461.60L-605.96,461.60L-618.12,488.96L-618.12,490.48L-615.08,492L-610.52,490.48L-602.92,482.88L-604.44,481.36L-612.04,488.96ZM-586.20,467.68L-584.68,467.68L-583.16,464.64L-583.16,463.12L-586.20,461.60L-587.72,461.60L-589.24,464.64L-589.24,466.16ZM-602.92,479.84L-601.40,481.36L-593.80,473.76L-592.28,473.76L-601.40,488.96L-601.40,490.48L-599.88,492L-596.84,492L-593.80,490.48L-586.20,482.88L-587.72,481.36L-595.32,488.96L-596.84,488.96L-587.72,473.76L-587.72,472.24L-590.76,470.72L-595.32,472.24ZM-564.92,478.32L-564.92,475.28L-566.44,472.24L-572.52,470.72L-580.12,475.28L-584.68,484.40L-583.16,490.48L-580.12,492L-577.08,492L-574.04,490.48L-567.96,484.40L-569.48,482.88L-575.56,488.96L-578.60,488.96L-580.12,484.40L-577.08,478.32L-572.52,473.76L-569.48,473.76L-569.48,478.32Z"/>
</svg>