<?xml version="1.0"?>
<svg xmlns="http://www.w3.org/2000/svg" width="1920" height="1080" viewBox="-960 -540 1920 1080">
    <path d="M-410.37,-217.82L-439.67,-228.25L-411.92,-235.58L-401.27,-264.44L-411.48,-290.86L-433.68,-302.40L-532.91,-302.40L-532.91,-297.52L-523.14,-296.85L-515.82,-286.86L-515.82,-162.54L-523.14,-152.55L-532.91,-151.88L-532.91,-147L-433.46,-147L-402.38,-163.87L-393.72,-188.74ZM-448.77,-290.63L-436.79,-276.20L-435.01,-248.01L-452.10,-231.58L-482.52,-231.58L-482.52,-287.97L-475.64,-294.63ZM-444.33,-154.77L-475.64,-154.77L-482.52,-161.43L-482.52,-223.81L-443.22,-217.37L-431.46,-200.28L-429.24,-174.53ZM-273.17,-161.65L-280.27,-169.64L-280.27,-229.81C-285.60,-238.46 -290.71,-247.12 -296.04,-255.56C-310.02,-257.56 -323.57,-259.11 -337.55,-261.11C-350.43,-254.89 -363.75,-249.34 -376.84,-243.35L-360.86,-210.27L-355.98,-210.27C-352.87,-222.48 -349.98,-234.47 -346.88,-246.68L-321.12,-251.78C-317.57,-245.57 -314.24,-239.35 -310.69,-232.91L-310.69,-208.27C-328.67,-204.28 -350.87,-199.17 -368.63,-195.17C-372.63,-187.18 -376.84,-179.41 -380.84,-171.64C-374.63,-162.32 -368.85,-153.22 -362.86,-143.89C-350.43,-145.00 -338.44,-145.67 -326.01,-147L-310.69,-165.65L-310.69,-143.89L-259.85,-153.44L-259.85,-158.32ZM-333.55,-156.99C-338.22,-160.10 -343.10,-163.43 -347.76,-166.54L-347.76,-185.63C-336.44,-191.84 -322.45,-198.73 -310.69,-204.94L-310.69,-170.75C-317.79,-166.31 -326.45,-160.99 -333.55,-156.99ZM-135.09,-158.32L-139.30,-167.20L-139.30,-260.89L-186.81,-252.01L-186.81,-247.12L-173.49,-243.79L-169.72,-234.91L-169.72,-171.64C-178.38,-168.09 -186.81,-164.32 -195.47,-160.76C-200.58,-166.31 -205.90,-171.64 -211.01,-177.19L-211.01,-260.89L-258.52,-252.01L-258.52,-247.12L-245.20,-243.79L-241.42,-234.91L-241.42,-168.31C-237.65,-161.65 -233.65,-155.21 -229.88,-148.55C-220.33,-147 -210.79,-145.45 -201.24,-143.89L-169.72,-166.09L-169.50,-143.89L-122.21,-152.77L-122.21,-157.66ZM6.10,-184.52L-9.21,-165.87L-21.65,-159.21L-56.05,-157.43L-63.82,-166.98L-63.82,-221.81L-27.20,-221.59L-17.65,-214.49L-13.43,-204.72L-8.33,-204.72L-8.33,-250.23L-13.43,-250.23L-17.65,-240.46L-27.64,-233.58L-27.64,-233.36L-63.82,-233.14L-63.82,-282.42L-56.05,-291.97L-22.09,-290.41L-9.66,-283.53L4.11,-264.88L9.66,-264.88L4.99,-302.40L-114.22,-302.40L-114.22,-297.52L-104.45,-296.85L-97.13,-286.86L-97.13,-162.54L-104.45,-152.55L-114.22,-151.88L-114.22,-147L5.44,-147L11.66,-184.52ZM110.45,-261.77C103.12,-259.78 95.57,-258.22 88.24,-256.22C82.25,-247.57 76.26,-237.80 70.26,-229.14L70.26,-261.77L22.76,-252.23L22.76,-247.34L36.08,-244.01C37.41,-241.13 38.52,-238.02 39.85,-235.13L39.85,-162.54C37.41,-159.21 34.97,-155.88 32.52,-152.55L22.76,-151.88L22.76,-147L96.46,-147L96.46,-151.88C90.91,-152.11 85.36,-152.33 79.81,-152.55L70.26,-162.54L70.26,-222.48L96.24,-243.57C98.46,-242.68 100.68,-241.79 102.90,-240.91L114.00,-213.82L118.88,-213.82L129.76,-250.67C123.32,-254.67 116.88,-257.78 110.45,-261.77ZM259.63,-163.65L252.53,-171.64L252.53,-317.94L205.02,-309.06L205.02,-304.18L218.34,-300.85L222.11,-291.97L222.11,-253.78C213.01,-256.22 203.24,-258.67 194.36,-261.11C179.71,-254.89 164.84,-248.90 150.18,-242.68C145.30,-228.92 140.19,-214.93 135.31,-201.17L145.97,-162.32C159.73,-156.32 173.27,-150.11 187.04,-144.11L222.11,-166.31L222.11,-144.11L272.95,-155.44L272.95,-160.32ZM195.03,-164.09C185.93,-172.31 177.05,-180.74 167.94,-188.96L163.73,-225.14C168.17,-232.47 172.83,-240.02 177.27,-247.34L200.36,-250.45C207.24,-247.12 215.01,-243.13 222.11,-239.57L222.11,-172.75C213.45,-170.09 203.46,-166.76 195.03,-164.09ZM349.76,-160.99C340.22,-164.09 330.67,-166.98 321.12,-170.09C316.68,-181.19 312.02,-192.29 307.58,-203.17L387.28,-206.27L376.62,-244.68C366.41,-250.45 355.98,-256.00 345.77,-261.77C330.00,-258.89 314.02,-256.45 298.26,-253.56C290.04,-240.91 282.05,-228.03 273.84,-215.38C277.61,-198.73 281.16,-181.85 284.94,-165.20L319.57,-144.11C334.44,-145.00 349.32,-146.11 364.19,-147C371.52,-155.21 379.07,-165.20 386.39,-173.42L383.51,-175.86C372.18,-171.42 361.08,-165.43 349.76,-160.99ZM326.45,-252.45C332.89,-250.90 339.33,-249.56 345.77,-248.01L358.20,-218.93L307.36,-210.49C308.47,-221.37 309.36,-232.25 310.25,-242.90ZM524.92,-152.55L518.04,-162.54L518.04,-236.69C514.26,-243.35 510.27,-249.79 506.49,-256.45C496.95,-258 487.40,-259.55 477.85,-261.11L442.56,-238.91L442.56,-261.11L395.05,-252.23L395.05,-247.34L408.37,-244.01L412.14,-235.13L412.14,-162.54L404.82,-152.55L395.05,-151.88L395.05,-147L459.21,-147L459.21,-151.88L449.44,-152.55L442.56,-162.54L442.56,-233.36C453.66,-237.80 460.98,-239.80 472.08,-244.24C477.19,-238.69 482.52,-233.36 487.62,-227.81L487.62,-162.54L480.30,-152.55L470.53,-151.88L470.53,-147L534.69,-147L534.69,-151.88Z" fill="#ffffff" stroke="#000000"/>
    <path d="M-414.39,-208.39L-443.50,-218.41L-416.11,-225.95L-405.85,-254.63L-416.23,-280.68L-438.33,-291.88L-536.57,-290.86L-536.52,-286.02L-526.84,-285.47L-519.48,-275.65L-518.21,-152.58L-525.36,-142.62L-535.02,-141.86L-534.97,-137.02L-436.51,-138.04L-405.92,-155.06L-397.60,-179.77ZM-453.15,-280.08L-441.14,-265.91L-439.09,-238.02L-455.84,-221.58L-485.95,-221.27L-486.53,-277.09L-479.79,-283.76ZM-447.36,-145.62L-478.35,-145.30L-485.23,-151.82L-485.87,-213.58L-446.91,-207.61L-435.08,-190.81L-432.62,-165.34ZM-277.99,-154.19L-285.11,-162.03L-285.72,-221.59C-291.09,-230.10 -296.23,-238.62 -301.59,-246.92C-315.46,-248.75 -328.88,-250.15 -342.75,-251.99C-355.43,-245.70 -368.56,-240.07 -381.46,-234.00L-365.30,-201.42L-360.47,-201.47C-357.51,-213.59 -354.78,-225.49 -351.83,-237.61L-326.39,-242.93C-322.81,-236.81 -319.45,-230.69 -315.86,-224.35L-315.61,-199.96C-333.37,-195.82 -355.30,-190.54 -372.84,-186.40C-376.71,-178.44 -380.81,-170.71 -384.68,-162.98C-378.43,-153.81 -372.63,-144.86 -366.60,-135.69C-354.30,-136.92 -342.44,-137.70 -330.15,-139.14L-315.17,-157.76L-314.95,-136.23L-264.72,-146.20L-264.77,-151.03ZM-337.72,-148.96C-342.37,-151.99 -347.24,-155.23 -351.88,-158.26L-352.08,-177.16C-340.94,-183.43 -327.16,-190.39 -315.58,-196.66L-315.23,-162.82C-322.21,-158.35 -330.73,-152.99 -337.72,-148.96ZM-141.26,-152.31L-145.53,-161.06L-146.49,-253.80L-193.43,-244.52L-193.38,-239.69L-180.16,-236.53L-176.33,-227.78L-175.68,-165.14C-184.22,-161.54 -192.53,-157.72 -201.06,-154.11C-206.18,-159.55 -211.51,-164.77 -216.62,-170.21L-217.48,-253.07L-264.42,-243.79L-264.37,-238.95L-251.14,-235.79L-247.32,-227.04L-246.63,-161.11C-242.83,-154.56 -238.81,-148.22 -235.00,-141.67C-225.54,-140.23 -216.07,-138.79 -206.61,-137.35L-175.63,-159.65L-175.18,-137.67L-128.46,-146.95L-128.51,-151.79ZM-1.76,-179.69L-16.73,-161.08L-28.97,-154.36L-63.02,-152.24L-70.81,-161.61L-71.37,-215.90L-35.10,-216.05L-25.58,-209.12L-21.31,-199.49L-16.25,-199.55L-16.72,-244.60L-21.77,-244.55L-25.85,-234.83L-35.67,-227.92L-35.66,-227.70L-71.48,-227.11L-71.99,-275.89L-64.40,-285.42L-30.76,-284.23L-18.38,-277.55L-4.56,-259.23L0.93,-259.29L-4.07,-296.38L-122.08,-295.16L-122.03,-290.32L-112.36,-289.76L-105.00,-279.95L-103.73,-156.88L-110.88,-146.91L-120.54,-146.15L-120.49,-141.32L-2.03,-142.55L3.74,-179.75ZM100.74,-257.24C93.51,-255.19 86.05,-253.58 78.82,-251.52C72.97,-242.89 67.14,-233.16 61.30,-224.53L60.96,-256.83L14.03,-246.89L14.08,-242.06L27.30,-238.90C28.65,-236.06 29.78,-232.99 31.13,-230.15L31.87,-158.28C29.49,-154.96 27.10,-151.64 24.72,-148.32L15.06,-147.56L15.11,-142.72L88.07,-143.48L88.02,-148.32C82.53,-148.48 77.03,-148.64 71.53,-148.80L61.98,-158.60L61.36,-217.93L86.86,-239.08C89.07,-238.22 91.27,-237.37 93.48,-236.51L104.75,-209.81L109.58,-209.86L119.97,-246.45C113.56,-250.34 107.15,-253.35 100.74,-257.24ZM249.43,-161.64L242.32,-169.48L240.81,-314.30L193.88,-305.03L193.93,-300.19L207.15,-297.03L210.97,-288.28L211.36,-250.48C202.33,-252.80 192.63,-255.12 183.82,-257.45C169.38,-251.14 154.71,-245.06 140.27,-238.75C135.58,-225.08 130.67,-211.18 125.98,-197.50L136.92,-159.15C150.61,-153.36 164.08,-147.35 177.77,-141.55L212.26,-163.89L212.49,-141.91L262.70,-153.64L262.65,-158.48ZM185.47,-161.41C176.38,-169.45 167.50,-177.71 158.41,-185.75L153.86,-221.53C158.18,-228.83 162.72,-236.35 167.04,-243.65L189.86,-246.96C196.71,-243.73 204.44,-239.86 211.51,-236.41L212.20,-170.26C203.65,-167.54 193.80,-164.14 185.47,-161.41ZM338.68,-159.93C329.20,-162.90 319.72,-165.66 310.24,-168.64C305.73,-179.59 301.00,-190.53 296.49,-201.25L375.36,-205.14L364.42,-243.05C354.25,-248.66 343.86,-254.05 333.69,-259.66C318.12,-256.64 302.32,-254.06 286.75,-251.04C278.75,-238.43 270.97,-225.60 262.96,-212.99C266.87,-196.55 270.56,-179.88 274.47,-163.44L308.97,-142.91C323.68,-143.95 338.40,-145.20 353.11,-146.23C360.28,-154.44 367.65,-164.40 374.82,-172.61L371.94,-175.00C360.77,-170.48 349.85,-164.44 338.68,-159.93ZM314.67,-250.23C321.06,-248.76 327.45,-247.51 333.83,-246.03L346.44,-217.37L296.20,-208.50C297.19,-219.28 297.95,-230.06 298.72,-240.61ZM512.17,-153.37L505.25,-163.19L504.49,-236.59C500.69,-243.15 496.66,-249.48 492.86,-256.03C483.39,-257.48 473.93,-258.92 464.46,-260.36L429.75,-238.02L429.52,-259.99L382.58,-250.72L382.63,-245.88L395.85,-242.72L399.68,-233.97L400.42,-162.10L393.27,-152.14L383.61,-151.38L383.66,-146.55L447.17,-147.20L447.12,-152.04L437.45,-152.60L430.53,-162.42L429.80,-232.52C440.75,-237.03 447.98,-239.08 458.92,-243.59C464.03,-238.15 469.36,-232.93 474.47,-227.49L475.14,-162.88L467.99,-152.91L458.33,-152.15L458.38,-147.32L521.89,-147.98L521.84,-152.81Z" fill="#ffffff" stroke="#000000"/>
    <path d="M-418.13,-198.96L-447.06,-208.58L-420.02,-216.33L-410.16,-244.82L-420.71,-270.49L-442.69,-281.35L-539.92,-279.34L-539.82,-274.55L-530.24,-274.10L-522.86,-264.46L-520.33,-142.65L-527.30,-132.72L-536.86,-131.86L-536.76,-127.08L-439.32,-129.10L-409.21,-146.26L-401.23,-170.80ZM-457.24,-269.52L-445.20,-255.62L-442.89,-228.04L-459.31,-211.59L-489.11,-210.98L-490.25,-266.22L-483.64,-272.89ZM-450.13,-136.49L-480.80,-135.86L-487.68,-142.24L-488.95,-203.36L-450.32,-197.85L-438.44,-181.34L-435.74,-156.16ZM-282.57,-146.71L-289.69,-154.40L-290.92,-213.34C-296.31,-221.72 -301.49,-230.10 -306.88,-238.26C-320.63,-239.93 -333.93,-241.18 -347.67,-242.85C-360.16,-236.50 -373.10,-230.79 -385.81,-224.65L-369.48,-192.57L-364.69,-192.67C-361.89,-204.69 -359.31,-216.50 -356.51,-228.52L-331.38,-234.05C-327.78,-228.03 -324.39,-222.01 -320.78,-215.77L-320.28,-191.63C-337.81,-187.35 -359.46,-181.89 -376.78,-177.62C-380.53,-169.71 -384.51,-162.01 -388.27,-154.31C-381.99,-145.30 -376.15,-136.50 -370.08,-127.49C-357.93,-128.83 -346.19,-129.73 -334.04,-131.28L-319.41,-149.87L-318.97,-128.55L-269.35,-138.93L-269.45,-143.72ZM-341.64,-140.92C-346.27,-143.87 -351.12,-147.03 -355.75,-149.98L-356.14,-168.69C-345.17,-175.01 -331.61,-182.04 -320.21,-188.37L-319.51,-154.87C-326.38,-150.37 -334.76,-144.98 -341.64,-140.92ZM-147.21,-146.26L-151.52,-154.87L-153.43,-246.66L-199.79,-236.99L-199.69,-232.21L-186.58,-229.22L-182.70,-220.59L-181.41,-158.60C-189.82,-154.95 -198.01,-151.08 -206.42,-147.42C-211.54,-152.75 -216.87,-157.87 -221.98,-163.20L-223.68,-245.20L-270.05,-235.54L-269.95,-230.75L-256.83,-227.76L-252.95,-219.14L-251.60,-153.88C-247.77,-147.43 -243.72,-141.21 -239.89,-134.76C-230.50,-133.43 -221.12,-132.10 -211.73,-130.77L-181.30,-153.16L-180.63,-131.42L-134.48,-141.08L-134.58,-145.86ZM-9.40,-174.79L-24.03,-156.21L-36.08,-149.43L-69.76,-146.99L-77.56,-156.19L-78.68,-209.91L-42.78,-210.44L-33.29,-203.67L-28.95,-194.19L-23.95,-194.29L-24.88,-238.88L-29.88,-238.78L-33.81,-229.12L-43.46,-222.18L-43.46,-221.96L-78.91,-221.00L-79.91,-269.29L-72.49,-278.80L-39.18,-277.97L-26.86,-271.48L-12.99,-253.49L-7.56,-253.60L-12.89,-290.27L-129.69,-287.85L-129.59,-283.06L-120.01,-282.61L-112.63,-272.97L-110.10,-151.16L-117.07,-141.22L-126.63,-140.37L-126.53,-135.59L-9.29,-138.02L-3.97,-174.90ZM91.26,-252.60C84.12,-250.50 76.76,-248.82 69.62,-246.72C63.92,-238.11 58.25,-228.42 52.55,-219.81L51.89,-251.79L5.53,-241.47L5.63,-236.68L18.75,-233.69C20.12,-230.89 21.27,-227.87 22.63,-225.07L24.11,-153.94C21.78,-150.63 19.46,-147.32 17.13,-144.01L7.57,-143.15L7.67,-138.37L79.89,-139.87L79.79,-144.65C74.35,-144.76 68.90,-144.86 63.46,-144.97L53.90,-154.56L52.69,-213.29L77.71,-234.48C79.90,-233.66 82.09,-232.83 84.29,-232.01L95.71,-205.69L100.50,-205.79L110.41,-242.12C104.02,-245.91 97.65,-248.82 91.26,-252.60ZM239.42,-159.49L232.30,-167.18L229.33,-310.52L182.96,-300.86L183.06,-296.07L196.18,-293.08L200.05,-284.46L200.83,-247.04C191.86,-249.25 182.24,-251.45 173.49,-253.66C159.26,-247.27 144.81,-241.09 130.58,-234.71C126.08,-221.12 121.36,-207.31 116.85,-193.73L128.08,-155.88C141.69,-150.29 155.08,-144.47 168.69,-138.88L202.61,-161.34L203.06,-139.59L252.64,-151.72L252.54,-156.50ZM176.12,-158.62C167.03,-166.48 158.16,-174.57 149.07,-182.43L144.21,-217.80C148.41,-225.07 152.82,-232.56 157.02,-239.82L179.58,-243.34C186.39,-240.22 194.09,-236.46 201.12,-233.12L202.48,-167.65C194.05,-164.86 184.33,-161.40 176.12,-158.62ZM327.79,-158.72C318.37,-161.57 308.96,-164.20 299.54,-167.05C294.97,-177.84 290.17,-188.62 285.60,-199.19L363.63,-203.85L352.40,-241.26C342.28,-246.71 331.95,-251.94 321.82,-257.39C306.44,-254.24 290.83,-251.52 275.44,-248.37C267.65,-235.81 260.08,-223.03 252.29,-210.46C256.33,-194.23 260.15,-177.77 264.19,-161.53L298.55,-141.57C313.10,-142.74 327.65,-144.13 342.21,-145.31C349.22,-153.50 356.41,-163.44 363.42,-171.64L360.55,-173.98C349.54,-169.39 338.79,-163.30 327.79,-158.72ZM303.09,-247.86C309.43,-246.47 315.76,-245.29 322.10,-243.90L334.87,-215.66L285.23,-206.36C286.10,-217.04 286.75,-227.72 287.40,-238.18ZM499.58,-154.01L492.63,-163.66L491.12,-236.31C487.29,-242.76 483.24,-248.98 479.41,-255.43C470.03,-256.76 460.64,-258.09 451.26,-259.42L417.12,-236.95L416.67,-258.70L370.30,-249.03L370.40,-244.25L383.52,-241.26L387.40,-232.63L388.88,-161.51L381.90,-151.57L372.34,-150.72L372.44,-145.93L435.30,-147.24L435.20,-152.02L425.62,-152.48L418.67,-162.12L417.24,-231.51C428.02,-236.09 435.16,-238.19 445.94,-242.77C451.06,-237.43 456.39,-232.32 461.50,-226.99L462.83,-163.04L455.85,-153.10L446.30,-152.25L446.40,-147.47L509.26,-148.77L509.16,-153.56Z" fill="#ffffff" stroke="#000000"/>
    <path d="M-421.61,-189.53L-450.34,-198.77L-423.66,-206.71L-414.20,-235.01L-424.89,-260.31L-446.76,-270.84L-542.97,-267.84L-542.83,-263.11L-533.34,-262.76L-525.93,-253.29L-522.18,-132.76L-528.98,-122.85L-538.44,-121.91L-538.29,-117.18L-441.86,-120.18L-412.24,-137.47L-404.59,-161.84ZM-461.05,-258.97L-448.99,-245.35L-446.42,-218.06L-462.49,-201.62L-491.98,-200.70L-493.68,-255.37L-487.21,-262.04ZM-452.64,-127.38L-482.99,-126.44L-489.86,-132.69L-491.75,-193.17L-453.46,-188.11L-441.53,-171.90L-438.60,-146.99ZM-286.90,-139.22L-294.03,-146.75L-295.85,-205.08C-301.27,-213.31 -306.49,-221.56 -311.91,-229.57C-325.53,-231.09 -338.70,-232.19 -352.32,-233.70C-364.62,-227.29 -377.36,-221.50 -389.88,-215.30L-373.39,-183.71L-368.65,-183.86C-366.01,-195.79 -363.57,-207.50 -360.93,-219.43L-336.11,-225.16C-332.48,-219.24 -329.07,-213.31 -325.43,-207.18L-324.68,-183.29C-342.00,-178.87 -363.37,-173.25 -380.47,-168.84C-384.10,-160.97 -387.95,-153.31 -391.59,-145.66C-385.29,-136.80 -379.42,-128.15 -373.32,-119.29C-361.30,-120.75 -349.70,-121.75 -337.69,-123.42L-323.40,-141.96L-322.74,-120.87L-273.74,-131.66L-273.89,-136.39ZM-345.31,-132.88C-349.92,-135.75 -354.76,-138.83 -359.37,-141.70L-359.95,-160.21C-349.16,-166.58 -335.80,-173.68 -324.58,-180.06L-323.55,-146.91C-330.31,-142.39 -338.54,-136.97 -345.31,-132.88ZM-152.93,-140.15L-157.28,-148.64L-160.11,-239.47L-205.90,-229.42L-205.75,-224.69L-192.74,-221.86L-188.81,-213.37L-186.91,-152.02C-195.19,-148.32 -203.26,-144.41 -211.54,-140.70C-216.66,-145.93 -221.99,-150.93 -227.11,-156.16L-229.63,-237.30L-275.42,-227.26L-275.28,-222.53L-262.26,-219.70L-258.33,-211.20L-256.33,-146.63C-252.47,-140.29 -248.40,-134.17 -244.54,-127.83C-235.24,-126.61 -225.93,-125.39 -216.63,-124.17L-186.74,-146.64L-185.85,-125.13L-140.28,-135.16L-140.42,-139.90ZM-16.83,-169.81L-31.12,-151.27L-42.97,-144.44L-76.28,-141.68L-84.10,-150.70L-85.75,-203.86L-50.23,-204.75L-40.76,-198.15L-36.38,-188.81L-31.43,-188.96L-32.80,-233.09L-37.75,-232.93L-41.54,-223.33L-51.02,-216.36L-51.02,-216.15L-86.09,-214.84L-87.58,-262.62L-80.33,-272.11L-47.36,-271.63L-35.09,-265.33L-21.19,-247.67L-15.81,-247.83L-21.46,-284.07L-137.04,-280.47L-136.89,-275.74L-127.40,-275.39L-120.00,-265.92L-116.25,-145.39L-123.05,-135.48L-132.50,-134.54L-132.35,-129.81L-16.34,-133.42L-11.45,-169.98ZM82.00,-247.86C74.96,-245.70 67.69,-243.97 60.65,-241.81C55.10,-233.24 49.58,-223.58 44.03,-215.01L43.05,-246.65L-2.73,-235.96L-2.58,-231.23L10.44,-228.40C11.81,-225.64 12.98,-222.66 14.36,-219.90L16.55,-149.52C14.28,-146.22 12.02,-142.92 9.75,-139.61L0.30,-138.67L0.45,-133.94L71.91,-136.16L71.76,-140.90C66.37,-140.94 60.98,-140.99 55.60,-141.04L46.04,-150.44L44.23,-208.55L68.78,-229.78C70.96,-228.99 73.14,-228.19 75.32,-227.40L86.89,-201.48L91.63,-201.62L101.06,-237.68C94.70,-241.36 88.37,-244.18 82.00,-247.86ZM229.60,-157.23L222.47,-164.76L218.06,-306.60L172.27,-296.56L172.42,-291.82L185.43,-289.00L189.36,-280.50L190.51,-243.48C181.61,-245.57 172.07,-247.65 163.38,-249.75C149.37,-243.28 135.13,-237.02 121.11,-230.55C116.79,-217.06 112.26,-203.34 107.94,-189.85L119.44,-152.51C132.97,-147.11 146.28,-141.49 159.81,-136.10L193.15,-158.68L193.82,-137.15L242.76,-149.66L242.62,-154.40ZM166.96,-155.71C157.88,-163.40 149.02,-171.31 139.95,-179.00L134.77,-213.95C138.85,-221.19 143.14,-228.65 147.23,-235.89L169.52,-239.60C176.29,-236.57 183.94,-232.93 190.94,-229.71L192.95,-164.92C184.64,-162.08 175.05,-158.55 166.96,-155.71ZM317.07,-157.36C307.72,-160.09 298.38,-162.60 289.03,-165.32C284.39,-175.95 279.53,-186.57 274.90,-196.98L352.08,-202.40L340.59,-239.32C330.51,-244.60 320.23,-249.67 310.15,-254.96C294.96,-251.68 279.54,-248.84 264.34,-245.56C256.76,-233.05 249.40,-220.32 241.82,-207.80C245.98,-191.78 249.93,-175.52 254.09,-159.50L288.31,-140.09C302.70,-141.40 317.09,-142.93 331.48,-144.24C338.34,-152.42 345.35,-162.34 352.21,-170.52L349.34,-172.80C338.49,-168.15 327.91,-162.01 317.07,-157.36ZM291.71,-245.34C298.00,-244.02 304.28,-242.93 310.57,-241.61L323.50,-213.79L274.46,-204.08C275.21,-214.66 275.75,-225.23 276.29,-235.59ZM487.14,-154.47L480.17,-163.94L477.93,-235.83C474.07,-242.18 470.01,-248.30 466.15,-254.64C456.84,-255.86 447.54,-257.08 438.24,-258.30L404.69,-235.71L404.02,-257.23L358.22,-247.19L358.37,-242.45L371.39,-239.63L375.31,-231.13L377.50,-160.75L370.70,-150.84L361.25,-149.90L361.40,-145.17L423.60,-147.10L423.45,-151.84L413.96,-152.19L406.99,-161.67L404.85,-230.33C415.48,-234.97 422.52,-237.13 433.15,-241.76C438.27,-236.54 443.60,-231.53 448.71,-226.31L450.68,-163.03L443.88,-153.12L434.43,-152.18L434.58,-147.44L496.78,-149.38L496.63,-154.12Z" fill="#ffffff" stroke="#000000"/>
    <path d="M-424.82,-180.13L-453.35,-188.97L-427.02,-197.10L-417.95,-225.21L-428.80,-250.14L-450.55,-260.33L-545.73,-256.38L-545.54,-251.70L-536.14,-251.45L-528.72,-242.16L-523.77,-122.91L-530.40,-113.04L-539.74,-112.01L-539.55,-107.33L-444.15,-111.28L-415.01,-128.70L-407.70,-152.90ZM-464.56,-248.44L-452.49,-235.08L-449.66,-208.11L-465.40,-191.67L-494.58,-190.46L-496.82,-244.55L-490.49,-251.21ZM-454.90,-118.30L-484.92,-117.06L-491.79,-123.17L-494.27,-183.01L-456.32,-178.40L-444.36,-162.47L-441.20,-137.86ZM-290.99,-131.72L-298.13,-139.10L-300.52,-196.80C-305.98,-204.90 -311.22,-213.00 -316.66,-220.88C-330.16,-222.24 -343.21,-223.19 -356.70,-224.55C-368.81,-218.07 -381.36,-212.22 -393.69,-205.95L-377.04,-174.86L-372.35,-175.05C-369.86,-186.89 -367.57,-198.50 -365.07,-210.34L-340.58,-216.26C-336.92,-210.44 -333.48,-204.61 -329.82,-198.58L-328.84,-174.94C-345.93,-170.39 -367.02,-164.61 -383.89,-160.07C-387.41,-152.25 -391.14,-144.62 -394.67,-137.01C-388.33,-128.32 -382.43,-119.82 -376.31,-111.11C-364.43,-112.67 -352.96,-113.79 -341.09,-115.56L-327.14,-134.06L-326.27,-113.19L-277.89,-124.37L-278.09,-129.05ZM-348.73,-124.84C-353.32,-127.64 -358.14,-130.64 -362.74,-133.43L-363.50,-151.74C-352.88,-158.16 -339.74,-165.31 -328.70,-171.75L-327.34,-138.95C-333.98,-134.41 -342.07,-128.96 -348.73,-124.84ZM-158.42,-134.02L-162.81,-142.37L-166.54,-232.23L-211.76,-221.82L-211.56,-217.13L-198.65,-214.47L-194.68,-206.10L-192.16,-145.42C-200.33,-141.66 -208.27,-137.71 -216.43,-133.96C-221.55,-139.08 -226.87,-143.98 -231.99,-149.10L-235.32,-229.37L-280.54,-218.96L-280.34,-214.28L-267.43,-211.62L-263.46,-203.25L-260.81,-139.37C-256.92,-133.13 -252.84,-127.11 -248.95,-120.88C-239.73,-119.76 -230.51,-118.65 -221.30,-117.54L-191.94,-140.09L-190.85,-118.81L-145.84,-129.21L-146.04,-133.89ZM-24.03,-164.76L-37.98,-146.27L-49.64,-139.38L-82.57,-136.31L-90.41,-145.16L-92.59,-197.75L-57.45,-199.00L-48.01,-192.56L-43.57,-183.36L-38.68,-183.57L-40.49,-227.22L-45.38,-227.01L-49.04,-217.48L-58.35,-210.48L-58.34,-210.27L-93.04,-208.61L-95.00,-255.88L-87.93,-265.35L-55.29,-265.21L-43.09,-259.11L-29.14,-241.77L-23.82,-241.99L-29.79,-277.79L-144.13,-273.04L-143.94,-268.36L-134.54,-268.11L-127.12,-258.82L-122.17,-139.57L-128.80,-129.70L-138.14,-128.67L-137.95,-123.99L-23.18,-128.75L-18.71,-164.98ZM72.98,-243.02C66.03,-240.81 58.85,-239.02 51.90,-236.81C46.50,-228.27 41.14,-218.66 35.73,-210.12L34.43,-241.42L-10.75,-230.37L-10.56,-225.69L2.35,-223.02C3.74,-220.31 4.93,-217.37 6.32,-214.66L9.21,-145.02C7.00,-141.73 4.79,-138.44 2.58,-135.15L-6.76,-134.12L-6.57,-129.44L64.13,-132.37L63.93,-137.06C58.60,-137.05 53.27,-137.04 47.94,-137.03L38.38,-146.24L36.00,-203.73L60.07,-224.99C62.24,-224.23 64.40,-223.46 66.57,-222.70L78.29,-197.16L82.98,-197.36L91.94,-233.14C85.61,-236.72 79.31,-239.44 72.98,-243.02ZM219.97,-154.84L212.84,-162.22L207.02,-302.54L161.80,-292.14L162.00,-287.45L174.91,-284.79L178.88,-276.42L180.40,-239.80C171.57,-241.78 162.11,-243.73 153.49,-245.72C139.69,-239.17 125.66,-232.83 111.85,-226.29C107.71,-212.89 103.37,-199.27 99.24,-185.87L111.00,-149.04C124.44,-143.83 137.68,-138.41 151.12,-133.21L183.88,-155.90L184.77,-134.60L233.08,-147.49L232.88,-152.17ZM157.99,-152.69C148.93,-160.21 140.08,-167.95 131.02,-175.46L125.54,-210.00C129.51,-217.21 133.68,-224.63 137.64,-231.84L159.67,-235.74C166.40,-232.82 174.01,-229.29 180.97,-226.17L183.63,-162.07C175.43,-159.17 165.98,-155.58 157.99,-152.69ZM306.53,-155.87C297.25,-158.47 287.98,-160.86 278.70,-163.46C274.00,-173.93 269.09,-184.39 264.40,-194.65L340.72,-200.80L328.97,-237.21C318.94,-242.34 308.71,-247.25 298.69,-252.38C283.68,-248.99 268.45,-246.01 253.45,-242.61C246.07,-230.15 238.92,-217.48 231.54,-205.02C235.83,-189.20 239.90,-173.15 244.19,-157.33L278.24,-138.48C292.48,-139.93 306.70,-141.58 320.93,-143.03C327.63,-151.20 334.47,-161.08 341.17,-169.25L338.31,-171.48C327.62,-166.77 317.22,-160.58 306.53,-155.87ZM280.53,-242.67C286.77,-241.44 293.00,-240.41 299.24,-239.18L312.32,-211.78L263.89,-201.67C264.52,-212.14 264.94,-222.61 265.37,-232.87ZM474.88,-154.75L467.88,-164.06L464.93,-235.18C461.04,-241.41 456.95,-247.43 453.07,-253.67C443.85,-254.78 434.63,-255.89 425.41,-257.00L392.44,-234.30L391.56,-255.60L346.34,-245.19L346.53,-240.50L359.44,-237.84L363.42,-229.47L366.31,-159.84L359.68,-149.97L350.33,-148.94L350.53,-144.26L412.07,-146.81L411.87,-151.49L402.48,-151.74L395.48,-161.05L392.66,-228.98C403.13,-233.68 410.08,-235.89 420.55,-240.59C425.67,-235.47 430.99,-230.57 436.11,-225.45L438.70,-162.85L432.08,-152.97L422.73,-151.94L422.93,-147.26L484.47,-149.81L484.27,-154.50Z" fill="#ffffff" stroke="#000000"/>
    <path d="M-427.77,-170.74L-456.08,-179.20L-430.12,-187.52L-421.43,-215.42L-432.42,-239.98L-454.05,-249.84L-548.19,-244.96L-547.95,-240.32L-538.65,-240.17L-531.21,-231.05L-525.09,-113.11L-531.55,-103.27L-540.78,-102.16L-540.54,-97.52L-446.19,-102.42L-417.53,-119.96L-410.54,-143.97ZM-467.79,-237.94L-455.71,-224.84L-452.63,-198.17L-468.04,-181.75L-496.90,-180.25L-499.67,-233.75L-493.47,-240.40ZM-456.89,-109.26L-486.59,-107.72L-493.44,-113.70L-496.52,-172.88L-458.92,-168.70L-446.91,-153.07L-443.54,-128.74ZM-294.84,-124.21L-301.98,-131.44L-304.94,-188.52C-310.42,-196.47 -315.69,-204.43 -321.16,-212.18C-334.53,-213.38 -347.45,-214.19 -360.82,-215.40C-372.73,-208.87 -385.09,-202.95 -397.22,-196.61L-380.43,-166.02L-375.80,-166.26C-373.45,-178.00 -371.30,-189.51 -368.95,-201.25L-344.77,-207.36C-341.10,-201.64 -337.63,-195.90 -333.95,-189.97L-332.73,-166.59C-349.60,-161.92 -370.41,-155.98 -387.06,-151.31C-390.46,-143.54 -394.08,-135.96 -397.48,-128.39C-391.13,-119.85 -385.20,-111.50 -379.06,-102.95C-367.32,-104.61 -355.98,-105.83 -344.25,-107.71L-330.63,-126.15L-329.56,-105.51L-281.80,-117.07L-282.04,-121.71ZM-351.90,-116.82C-356.48,-119.53 -361.28,-122.45 -365.85,-125.17L-366.79,-143.29C-356.36,-149.74 -343.43,-156.96 -332.57,-163.43L-330.89,-131.00C-337.41,-126.44 -345.36,-120.96 -351.90,-116.82ZM-163.68,-127.85L-168.12,-136.06L-172.73,-224.94L-217.36,-214.18L-217.12,-209.55L-204.32,-207.04L-200.30,-198.81L-197.19,-138.78C-205.23,-134.98 -213.05,-130.99 -221.08,-127.19C-226.20,-132.21 -231.52,-137.00 -236.64,-142.01L-240.76,-221.42L-285.39,-210.65L-285.15,-206.02L-272.35,-203.52L-268.33,-195.28L-265.05,-132.09C-261.15,-125.96 -257.04,-120.05 -253.13,-113.91C-244.00,-112.91 -234.86,-111.91 -225.73,-110.90L-196.92,-133.51L-195.61,-112.46L-151.19,-123.22L-151.43,-127.85ZM-31.01,-159.65L-44.63,-141.20L-56.09,-134.27L-88.65,-130.89L-96.49,-139.57L-99.19,-191.59L-64.43,-193.18L-55.02,-186.91L-50.54,-177.85L-45.70,-178.11L-47.94,-221.28L-52.78,-221.03L-56.30,-211.56L-65.44,-204.54L-65.43,-204.32L-99.75,-202.33L-102.18,-249.09L-95.27,-258.53L-62.97,-258.73L-50.84,-252.81L-36.86,-235.79L-31.60,-236.07L-37.87,-271.43L-150.97,-265.56L-150.73,-260.93L-141.43,-260.78L-133.99,-251.66L-127.87,-133.72L-134.33,-123.88L-143.56,-122.77L-143.32,-118.13L-29.80,-124.02L-25.75,-159.92ZM64.17,-238.08C57.32,-235.82 50.24,-233.98 43.39,-231.72C38.12,-223.21 32.92,-213.65 27.66,-205.14L26.05,-236.10L-18.55,-224.71L-18.31,-220.07L-5.51,-217.57C-4.10,-214.90 -2.90,-212.00 -1.49,-209.33L2.08,-140.46C-0.07,-137.18 -2.22,-133.90 -4.38,-130.62L-13.61,-129.51L-13.37,-124.87L56.55,-128.50L56.31,-133.14C51.04,-133.07 45.76,-133.01 40.48,-132.95L30.94,-141.96L27.99,-198.82L51.59,-220.11C53.74,-219.38 55.89,-218.64 58.04,-217.91L69.90,-192.76L74.54,-193.00L83.04,-228.50C76.74,-231.97 70.48,-234.61 64.17,-238.08ZM210.54,-152.33L203.40,-159.56L196.20,-298.36L151.57,-287.60L151.81,-282.96L164.61,-280.46L168.63,-272.22L170.51,-235.99C161.75,-237.86 152.36,-239.70 143.82,-241.58C130.23,-234.96 116.41,-228.54 102.81,-221.92C98.86,-208.62 94.70,-195.10 90.75,-181.81L102.77,-145.47C116.12,-140.46 129.27,-135.23 142.63,-130.22L174.81,-153.01L175.91,-131.95L223.58,-145.19L223.34,-149.83ZM149.23,-149.57C140.19,-156.92 131.35,-164.48 122.31,-171.83L116.52,-205.95C120.38,-213.12 124.43,-220.51 128.28,-227.68L150.03,-231.76C156.72,-228.94 164.29,-225.53 171.21,-222.51L174.50,-159.12C166.41,-156.17 157.10,-152.51 149.23,-149.57ZM296.18,-154.24C286.97,-156.72 277.77,-158.99 268.56,-161.46C263.80,-171.78 258.83,-182.08 254.09,-192.18L329.54,-199.05L317.54,-234.96C307.57,-239.94 297.40,-244.69 287.43,-249.66C272.62,-246.15 257.57,-243.05 242.76,-239.53C235.59,-227.12 228.64,-214.51 221.47,-202.10C225.87,-186.49 230.07,-170.66 234.47,-155.05L268.37,-136.75C282.43,-138.32 296.49,-140.11 310.56,-141.68C317.10,-149.83 323.77,-159.68 330.32,-167.84L327.46,-170.01C316.94,-165.24 306.70,-159.01 296.18,-154.24ZM269.56,-239.87C275.75,-238.71 281.92,-237.76 288.11,-236.60L301.33,-209.63L253.51,-199.12C254.03,-209.49 254.34,-219.86 254.66,-230.01ZM462.77,-154.86L455.75,-164.00L452.10,-234.34C448.19,-240.47 444.08,-246.39 440.18,-252.52C431.04,-253.52 421.91,-254.53 412.78,-255.53L380.38,-232.73L379.29,-253.79L334.65,-243.03L334.89,-238.40L347.70,-235.89L351.71,-227.66L355.29,-158.78L348.83,-148.95L339.59,-147.83L339.83,-143.20L400.70,-146.36L400.46,-150.99L391.16,-151.14L384.14,-160.28L380.66,-227.47C390.97,-232.23 397.82,-234.48 408.13,-239.24C413.25,-234.23 418.57,-229.43 423.68,-224.42L426.90,-162.50L420.44,-152.66L411.20,-151.55L411.44,-146.91L472.31,-150.07L472.07,-154.71Z" fill="#ffffff" stroke="#000000"/>
    <path d="M-430.45,-161.38L-458.55,-169.46L-432.94,-177.96L-424.63,-205.65L-435.76,-229.84L-457.26,-239.38L-550.36,-233.58L-550.07,-228.99L-540.87,-228.94L-533.41,-220.00L-526.15,-103.36L-532.44,-93.56L-541.57,-92.37L-541.28,-87.78L-447.97,-93.59L-419.80,-111.24L-413.13,-135.07ZM-470.74,-227.45L-458.65,-214.62L-455.33,-188.27L-470.41,-171.86L-498.94,-170.08L-502.24,-222.98L-496.17,-229.63ZM-458.63,-100.25L-488.00,-98.42L-494.84,-104.27L-498.49,-162.79L-461.25,-159.05L-449.21,-143.70L-445.62,-119.67ZM-298.45,-116.71L-305.58,-123.79L-309.10,-180.23C-314.60,-188.04 -319.90,-195.87 -325.39,-203.47C-338.63,-204.53 -351.43,-205.20 -364.66,-206.25C-376.38,-199.67 -388.55,-193.68 -400.49,-187.29L-383.56,-157.20L-378.98,-157.48C-376.78,-169.12 -374.77,-180.53 -372.57,-192.17L-348.71,-198.46C-345.01,-192.84 -341.52,-187.20 -337.82,-181.37L-336.38,-158.25C-353.01,-153.45 -373.54,-147.37 -389.97,-142.58C-393.25,-134.85 -396.76,-127.31 -400.05,-119.79C-393.67,-111.40 -387.73,-103.20 -381.56,-94.80C-369.96,-96.57 -358.75,-97.90 -347.17,-99.87L-333.88,-118.26L-332.61,-97.85L-285.48,-109.78L-285.76,-114.36ZM-354.83,-108.80C-359.39,-111.45 -364.16,-114.29 -368.72,-116.93L-369.83,-134.84C-359.58,-141.34 -346.86,-148.61 -336.18,-155.13L-334.18,-123.05C-340.59,-118.47 -348.40,-112.97 -354.83,-108.80ZM-168.71,-121.65L-173.19,-129.74L-178.66,-217.63L-222.71,-206.52L-222.43,-201.94L-209.74,-199.59L-205.68,-191.48L-201.98,-132.12C-209.89,-128.29 -217.59,-124.25 -225.50,-120.41C-230.62,-125.32 -235.93,-130.01 -241.04,-134.92L-245.93,-213.44L-289.99,-202.33L-289.70,-197.75L-277.01,-195.40L-272.95,-187.29L-269.06,-124.81C-265.13,-118.78 -261.00,-112.98 -257.07,-106.95C-248.03,-106.05 -238.98,-105.15 -229.93,-104.25L-201.66,-126.92L-200.15,-106.10L-156.31,-117.20L-156.59,-121.78ZM-37.78,-154.48L-51.06,-136.09L-62.33,-129.11L-94.51,-125.44L-102.36,-133.94L-105.56,-185.38L-71.18,-187.31L-61.81,-181.21L-57.29,-172.29L-52.50,-172.59L-55.15,-215.28L-59.94,-214.99L-63.33,-205.58L-72.30,-198.53L-72.29,-198.33L-106.22,-196.00L-109.10,-242.24L-102.37,-251.65L-70.42,-252.18L-58.35,-246.45L-44.35,-229.76L-39.14,-230.08L-45.71,-265.01L-157.55,-258.04L-157.27,-253.46L-148.06,-253.41L-140.61,-244.46L-133.34,-127.83L-139.63,-118.03L-148.76,-116.83L-148.47,-112.25L-36.21,-119.24L-32.57,-154.80ZM55.60,-233.05C48.84,-230.75 41.85,-228.85 35.10,-226.55C29.98,-218.08 24.93,-208.56 19.81,-200.09L17.90,-230.71L-26.11,-218.97L-25.83,-214.39L-13.14,-212.05C-11.72,-209.42 -10.49,-206.57 -9.08,-203.94L-4.83,-135.83C-6.93,-132.56 -9.03,-129.30 -11.12,-126.03L-20.25,-124.83L-19.96,-120.25L49.18,-124.56L48.90,-129.14C43.68,-129.02 38.46,-128.91 33.24,-128.79L23.70,-137.61L20.20,-193.84L43.33,-215.15C45.47,-214.44 47.60,-213.74 49.74,-213.04L61.73,-188.27L66.32,-188.56L74.37,-223.77C68.09,-227.14 61.87,-229.68 55.60,-233.05ZM201.29,-149.71L194.16,-156.80L185.61,-294.05L141.56,-282.94L141.85,-278.36L154.54,-276.02L158.60,-267.90L160.83,-232.08C152.15,-233.84 142.84,-235.56 134.37,-237.33C120.98,-230.64 107.38,-224.15 94.00,-217.46C90.22,-204.27 86.25,-190.85 82.47,-177.65L94.73,-141.82C108.00,-137.00 121.07,-131.96 134.33,-127.14L165.94,-150.02L167.24,-129.19L214.27,-142.79L213.99,-147.37ZM140.66,-146.35C131.64,-153.53 122.82,-160.92 113.80,-168.10L107.73,-201.80C111.46,-208.93 115.40,-216.29 119.13,-223.42L140.61,-227.69C147.26,-224.96 154.79,-221.67 161.66,-218.75L165.56,-156.06C157.60,-153.06 148.42,-149.35 140.66,-146.35ZM286.01,-152.48C276.87,-154.84 267.75,-156.99 258.61,-159.35C253.80,-169.50 248.77,-179.64 243.97,-189.59L318.56,-197.16L306.32,-232.57C296.40,-237.39 286.29,-241.99 276.37,-246.80C261.75,-243.18 246.90,-239.95 232.28,-236.32C225.31,-223.97 218.57,-211.42 211.60,-199.07C216.12,-183.67 220.43,-168.05 224.95,-152.65L258.67,-134.89C272.57,-136.59 286.46,-138.50 300.37,-140.20C306.76,-148.34 313.26,-158.15 319.65,-166.28L316.80,-168.41C306.44,-163.58 296.37,-157.31 286.01,-152.48ZM258.80,-236.93C264.93,-235.85 271.05,-234.97 277.18,-233.89L290.54,-207.33L243.34,-196.45C243.74,-206.72 243.94,-216.98 244.15,-227.03ZM450.83,-154.80L443.79,-163.77L439.46,-233.34C435.53,-239.36 431.41,-245.17 427.48,-251.20C418.43,-252.10 409.38,-253.00 400.34,-253.90L368.52,-231.01L367.22,-251.84L323.17,-240.73L323.45,-236.15L336.14,-233.80L340.20,-225.69L344.45,-157.58L338.16,-147.78L329.03,-146.59L329.32,-142.01L389.51,-145.75L389.22,-150.34L380.02,-150.39L372.98,-159.36L368.84,-225.80C379.00,-230.61 385.75,-232.92 395.91,-237.73C401.02,-232.82 406.33,-228.14 411.45,-223.23L415.26,-161.99L408.97,-152.19L399.84,-151.00L400.13,-146.42L460.32,-150.16L460.04,-154.75Z" fill="#ffffff" stroke="#000000"/>
    <path d="M-432.87,-152.06L-460.75,-159.76L-435.50,-168.42L-427.57,-195.91L-438.82,-219.73L-460.19,-228.94L-552.23,-222.25L-551.91,-217.72L-542.80,-217.76L-535.33,-208.99L-526.95,-93.67L-533.07,-83.91L-542.09,-82.64L-541.76,-78.11L-449.51,-84.81L-421.81,-102.56L-415.46,-126.20ZM-473.40,-217.01L-461.31,-204.43L-457.76,-178.40L-472.51,-162.01L-500.72,-159.96L-504.52,-212.26L-498.58,-218.90ZM-460.12,-91.29L-489.15,-89.18L-495.99,-94.89L-500.19,-152.75L-463.31,-149.43L-451.24,-134.37L-447.45,-110.63ZM-301.82,-109.21L-308.95,-116.14L-313.01,-171.95C-318.53,-179.62 -323.85,-187.31 -329.36,-194.77C-342.47,-195.68 -355.14,-196.21 -368.24,-197.12C-379.77,-190.49 -391.75,-184.44 -403.49,-178.00L-386.44,-148.39L-381.91,-148.72C-379.85,-160.26 -377.98,-171.57 -375.92,-183.11L-352.38,-189.58C-348.66,-184.05 -345.16,-178.51 -341.43,-172.78L-339.77,-149.92C-356.17,-145.00 -376.42,-138.77 -392.63,-133.87C-395.79,-126.18 -399.18,-118.69 -402.36,-111.22C-395.97,-102.99 -390.00,-94.93 -383.81,-86.69C-372.36,-88.56 -361.28,-89.98 -349.84,-92.06L-336.89,-110.39L-335.42,-90.21L-288.91,-102.49L-289.24,-107.02ZM-357.52,-100.81C-362.05,-103.38 -366.81,-106.14 -371.34,-108.71L-372.63,-126.42C-362.54,-132.95 -350.03,-140.28 -339.54,-146.83L-337.24,-115.12C-343.53,-110.53 -351.20,-105.00 -357.52,-100.81ZM-173.52,-115.43L-178.03,-123.38L-184.35,-210.28L-227.81,-198.84L-227.48,-194.31L-214.90,-192.12L-210.80,-184.14L-206.54,-125.45C-214.33,-121.57 -221.90,-117.50 -229.69,-113.63C-234.80,-118.43 -240.10,-123.01 -245.21,-127.82L-250.86,-205.45L-294.32,-194.01L-293.99,-189.48L-281.41,-187.29L-277.32,-179.30L-272.82,-117.53C-268.87,-111.61 -264.73,-105.90 -260.78,-99.98C-251.83,-99.18 -242.87,-98.38 -233.91,-97.59L-206.16,-120.30L-204.46,-99.73L-161.20,-111.15L-161.53,-115.68ZM-44.32,-149.25L-57.27,-130.92L-68.35,-123.91L-100.15,-119.94L-108.00,-128.27L-111.70,-179.13L-77.71,-181.39L-68.37,-175.45L-63.80,-166.67L-59.07,-167.02L-62.14,-209.23L-66.87,-208.89L-70.13,-199.54L-78.93,-192.48L-78.91,-192.28L-112.46,-189.63L-115.79,-235.35L-109.22,-244.72L-77.61,-245.57L-65.62,-240.03L-51.59,-223.66L-46.44,-224.03L-53.30,-258.52L-163.88,-250.48L-163.55,-245.95L-154.44,-245.99L-146.97,-237.22L-138.59,-121.90L-144.71,-112.14L-153.73,-110.87L-153.40,-106.34L-42.41,-114.41L-39.17,-149.63ZM47.25,-227.95C40.59,-225.60 33.69,-223.65 27.03,-221.30C22.06,-212.87 17.16,-203.40 12.18,-194.97L9.98,-225.24L-33.44,-213.18L-33.11,-208.65L-20.53,-206.46C-19.10,-203.87 -17.86,-201.06 -16.43,-198.48L-11.54,-131.14C-13.58,-127.89 -15.62,-124.63 -17.66,-121.38L-26.68,-120.10L-26.35,-115.57L42.02,-120.54L41.69,-125.07C36.53,-124.91 31.36,-124.74 26.20,-124.57L16.67,-133.19L12.63,-188.79L35.30,-210.10C37.42,-209.43 39.54,-208.75 41.66,-208.08L53.78,-183.71L58.31,-184.04L65.91,-218.95C59.67,-222.22 53.49,-224.67 47.25,-227.95ZM192.24,-146.99L185.12,-153.92L175.25,-289.62L131.78,-278.18L132.11,-273.65L144.69,-271.46L148.79,-263.48L151.37,-228.06C142.76,-229.71 133.53,-231.32 125.13,-232.99C111.96,-226.23 98.57,-219.67 85.40,-212.92C81.80,-199.82 78.00,-186.50 74.40,-173.41L86.90,-138.09C100.08,-133.46 113.06,-128.61 126.23,-123.97L157.26,-146.93L158.76,-126.34L205.15,-140.27L204.82,-144.80ZM132.29,-143.05C123.30,-150.05 114.49,-157.28 105.49,-164.28L99.14,-197.56C102.77,-204.66 106.58,-211.97 110.21,-219.07L131.41,-223.51C138.02,-220.88 145.50,-217.70 152.32,-214.88L156.83,-152.90C148.98,-149.85 139.94,-146.09 132.29,-143.05ZM276.03,-150.60C266.96,-152.84 257.91,-154.87 248.85,-157.11C243.98,-167.10 238.91,-177.09 234.06,-186.88L307.77,-195.13L295.30,-230.04C285.44,-234.70 275.38,-239.15 265.52,-243.81C251.10,-240.07 236.44,-236.73 222.01,-232.99C215.24,-220.70 208.70,-208.22 201.93,-195.93C206.56,-180.74 210.99,-165.33 215.61,-150.14L249.16,-132.91C262.89,-134.74 276.62,-136.77 290.35,-138.60C296.59,-146.71 302.92,-156.48 309.16,-164.60L306.32,-166.67C296.12,-161.79 286.23,-155.48 276.03,-150.60ZM248.24,-233.86C254.31,-232.85 260.37,-232.05 266.45,-231.05L279.94,-204.91L233.36,-193.66C233.65,-203.82 233.74,-213.97 233.85,-223.92ZM439.06,-154.58L432.01,-163.38L427.01,-232.16C423.06,-238.08 418.92,-243.79 414.97,-249.71C406.01,-250.51 397.05,-251.30 388.09,-252.10L356.84,-229.13L355.35,-249.72L311.88,-238.28L312.21,-233.75L324.79,-231.56L328.89,-223.58L333.78,-156.24L327.66,-146.48L318.65,-145.21L318.98,-140.68L378.49,-145.00L378.16,-149.53L369.05,-149.49L361.99,-158.29L357.22,-223.98C367.21,-228.85 373.88,-231.20 383.87,-236.06C388.98,-231.26 394.28,-226.68 399.39,-221.87L403.79,-161.33L397.67,-151.57L388.66,-150.30L388.99,-145.77L448.50,-150.09L448.17,-154.62Z" fill="#ffffff" stroke="#000000"/>
    <path d="M-435.02,-142.77L-462.68,-150.10L-437.80,-158.93L-430.23,-186.20L-441.60,-209.65L-462.84,-218.54L-553.82,-210.98L-553.45,-206.50L-544.44,-206.63L-536.96,-198.03L-527.49,-84.05L-533.44,-74.33L-542.35,-72.98L-541.98,-68.50L-450.79,-76.08L-423.58,-93.92L-417.54,-117.37ZM-475.78,-206.60L-463.69,-194.28L-459.91,-168.57L-474.33,-152.20L-502.22,-149.89L-506.52,-201.59L-500.71,-208.22ZM-461.36,-82.37L-490.05,-79.99L-496.87,-85.57L-501.63,-142.76L-465.11,-139.86L-453.02,-125.08L-449.02,-101.64ZM-304.95,-101.73L-312.07,-108.51L-316.66,-163.67C-322.20,-171.20 -327.55,-178.75 -333.07,-186.08C-346.05,-186.85 -358.58,-187.24 -371.56,-188.01C-382.89,-181.33 -394.68,-175.22 -406.23,-168.73L-389.06,-139.62L-384.58,-139.99C-382.66,-151.42 -380.93,-162.63 -379.01,-174.07L-355.79,-180.71C-352.06,-175.28 -348.53,-169.84 -344.78,-164.20L-342.90,-141.61C-359.09,-136.58 -379.05,-130.20 -395.03,-125.19C-398.08,-117.55 -401.36,-110.11 -404.43,-102.68C-398.02,-94.61 -392.03,-86.70 -385.83,-78.61C-374.51,-80.57 -363.57,-82.10 -352.28,-84.27L-339.65,-102.53L-338.00,-82.58L-292.11,-95.21L-292.49,-99.69ZM-359.96,-92.85C-364.47,-95.35 -369.20,-98.03 -373.71,-100.52L-375.17,-118.02C-365.26,-124.59 -352.96,-131.96 -342.65,-138.56L-340.04,-107.21C-346.22,-102.60 -353.75,-97.06 -359.96,-92.85ZM-178.10,-109.20L-182.64,-117.02L-189.78,-202.91L-232.66,-191.15L-232.29,-186.67L-219.82,-184.63L-215.69,-176.78L-210.87,-118.77C-218.53,-114.85 -225.98,-110.75 -233.65,-106.83C-238.75,-111.53 -244.04,-116.01 -249.15,-120.71L-255.52,-197.45L-298.41,-185.68L-298.03,-181.21L-285.57,-179.17L-281.43,-171.31L-276.35,-110.25C-272.39,-104.43 -268.23,-98.84 -264.26,-93.02C-255.39,-92.32 -246.52,-91.62 -237.65,-90.93L-210.44,-113.68L-208.55,-93.35L-165.87,-105.09L-166.24,-109.57ZM-50.64,-143.98L-63.27,-125.71L-74.16,-118.66L-105.57,-114.41L-113.42,-122.57L-117.60,-172.84L-84.00,-175.43L-74.71,-169.64L-70.10,-161.01L-65.41,-161.40L-68.88,-203.12L-73.56,-202.73L-76.69,-193.46L-85.32,-186.39L-85.30,-186.18L-118.46,-183.22L-122.22,-228.41L-115.82,-237.75L-84.56,-238.91L-72.64,-233.55L-58.60,-217.50L-53.51,-217.93L-60.65,-251.97L-169.95,-242.88L-169.57,-238.41L-160.57,-238.54L-153.09,-229.94L-143.61,-115.96L-149.57,-106.24L-158.47,-104.89L-158.10,-100.41L-48.40,-109.53L-45.56,-144.40ZM39.13,-222.76C32.57,-220.37 25.76,-218.37 19.20,-215.98C14.36,-207.58 9.61,-198.17 4.78,-189.78L2.29,-219.70L-40.54,-207.32L-40.17,-202.85L-27.70,-200.81C-26.26,-198.26 -25.01,-195.50 -23.56,-192.95L-18.03,-126.40C-20.02,-123.16 -22.00,-119.92 -23.99,-116.68L-32.89,-115.32L-32.52,-110.85L35.05,-116.46L34.68,-120.94C29.58,-120.72 24.47,-120.50 19.37,-120.28L9.85,-128.72L5.28,-183.67L27.49,-204.99C29.59,-204.34 31.70,-203.70 33.80,-203.05L46.04,-179.07L50.52,-179.44L57.68,-214.05C51.48,-217.23 45.34,-219.59 39.13,-222.76ZM183.39,-144.17L176.26,-150.95L165.11,-285.08L122.23,-273.32L122.61,-268.84L135.07,-266.80L139.21,-258.95L142.12,-223.94C133.59,-225.49 124.45,-226.98 116.12,-228.54C103.16,-221.73 89.98,-215.10 77.02,-208.28C73.59,-195.29 69.97,-182.08 66.55,-169.09L79.28,-134.28C92.35,-129.83 105.24,-125.17 118.32,-120.72L148.79,-143.75L150.48,-123.39L196.22,-137.65L195.85,-142.13ZM124.12,-139.65C115.15,-146.49 106.37,-153.54 97.40,-160.38L90.77,-193.24C94.28,-200.29 97.98,-207.57 101.50,-214.62L122.43,-219.23C128.99,-216.70 136.42,-213.63 143.20,-210.92L148.29,-149.65C140.56,-146.55 131.65,-142.73 124.12,-139.65ZM266.23,-148.59C257.24,-150.71 248.26,-152.63 239.28,-154.75C234.36,-164.59 229.24,-174.41 224.34,-184.05L297.17,-192.97L284.48,-227.37C274.67,-231.89 264.68,-236.18 254.88,-240.69C240.65,-236.85 226.18,-233.39 211.95,-229.54C205.38,-217.31 199.04,-204.90 192.47,-192.67C197.20,-177.69 201.74,-162.50 206.47,-147.52L239.83,-130.82C253.40,-132.77 266.95,-134.92 280.52,-136.87C286.61,-144.96 292.77,-154.69 298.86,-162.78L296.03,-164.80C285.99,-159.87 276.27,-153.53 266.23,-148.59ZM237.88,-230.67C243.90,-229.74 249.91,-229.01 255.93,-228.07L269.54,-202.36L223.58,-190.75C223.77,-200.81 223.75,-210.85 223.75,-220.69ZM427.46,-154.21L420.39,-162.84L414.74,-230.82C410.77,-236.64 406.62,-242.24 402.65,-248.06C393.78,-248.76 384.91,-249.45 376.04,-250.15L345.37,-227.11L343.67,-247.46L300.79,-235.70L301.17,-231.22L313.63,-229.18L317.77,-221.33L323.30,-154.77L317.35,-145.05L308.44,-143.70L308.81,-139.22L367.64,-144.11L367.26,-148.59L358.26,-148.45L351.19,-157.09L345.79,-222.02C355.63,-226.93 362.19,-229.32 372.03,-234.24C377.14,-229.54 382.43,-225.06 387.53,-220.36L392.50,-160.52L386.55,-150.81L377.64,-149.45L378.02,-144.97L436.84,-149.86L436.47,-154.34Z" fill="#ffffff" stroke="#000000"/>
    <path d="M-436.91,-133.52L-464.35,-140.49L-439.83,-149.48L-432.62,-176.53L-444.11,-199.60L-465.20,-208.18L-555.11,-199.76L-554.70,-195.34L-545.79,-195.56L-538.31,-187.13L-527.77,-74.50L-533.56,-64.82L-542.35,-63.39L-541.94,-58.97L-451.83,-67.40L-425.10,-85.32L-419.36,-108.58ZM-477.88,-196.24L-465.80,-184.18L-461.80,-158.79L-475.90,-142.45L-503.45,-139.87L-508.23,-190.96L-502.56,-197.58ZM-462.34,-73.52L-490.70,-70.86L-497.50,-76.31L-502.79,-132.83L-466.65,-130.33L-454.54,-115.84L-450.34,-92.70ZM-307.85,-94.26L-314.96,-100.90L-320.06,-155.41C-325.62,-162.80 -330.98,-170.21 -336.53,-177.41C-349.37,-178.03 -361.77,-178.29 -374.61,-178.92C-385.75,-172.19 -397.35,-166.03 -408.71,-159.49L-391.42,-130.88L-386.99,-131.29C-385.21,-142.62 -383.61,-153.72 -381.83,-165.05L-358.93,-171.86C-355.19,-166.53 -351.65,-161.18 -347.88,-155.65L-345.79,-133.32C-361.75,-128.18 -381.43,-121.67 -397.18,-116.54C-400.12,-108.96 -403.29,-101.56 -406.25,-94.19C-399.82,-86.26 -393.82,-78.51 -387.60,-70.57C-376.43,-72.63 -365.63,-74.25 -354.48,-76.51L-342.18,-94.70L-340.33,-74.99L-295.08,-87.95L-295.50,-92.37ZM-362.16,-84.92C-366.65,-87.34 -371.36,-89.94 -375.84,-92.36L-377.46,-109.66C-367.73,-116.25 -355.64,-123.67 -345.51,-130.30L-342.61,-99.33C-348.67,-94.70 -356.06,-89.14 -362.16,-84.92ZM-182.45,-102.95L-187.03,-110.64L-194.97,-195.52L-237.26,-183.45L-236.85,-179.02L-224.50,-177.14L-220.33,-169.41L-214.96,-112.08C-222.51,-108.13 -229.83,-104.00 -237.37,-100.05C-242.47,-104.64 -247.75,-109.02 -252.84,-113.61L-259.94,-189.44L-302.23,-177.37L-301.82,-172.94L-289.47,-171.06L-285.29,-163.33L-279.65,-102.99C-275.66,-97.27 -271.50,-91.78 -267.51,-86.07C-258.73,-85.47 -249.95,-84.87 -241.17,-84.27L-214.49,-107.06L-212.41,-86.96L-170.32,-99.02L-170.73,-103.44ZM-56.75,-138.66L-69.05,-120.46L-79.75,-113.37L-110.77,-108.85L-118.62,-116.84L-123.27,-166.52L-90.06,-169.42L-80.81,-163.80L-76.16,-155.30L-71.54,-155.74L-75.39,-196.97L-80.02,-196.54L-83.01,-187.33L-91.48,-180.25L-91.46,-180.05L-124.23,-176.78L-128.41,-221.43L-122.18,-230.74L-91.27,-232.21L-79.42,-227.03L-65.37,-211.30L-60.34,-211.77L-67.75,-245.37L-175.76,-235.26L-175.35,-230.84L-166.44,-231.06L-158.96,-222.63L-148.42,-109.99L-154.21,-100.32L-163.00,-98.89L-162.59,-94.46L-54.17,-104.61L-51.72,-139.13ZM31.24,-217.50C24.77,-215.07 18.06,-213.02 11.59,-210.59C6.90,-202.24 2.29,-192.88 -2.40,-184.53L-5.17,-214.09L-47.40,-201.42L-46.99,-196.99L-34.64,-195.10C-33.19,-192.60 -31.92,-189.88 -30.47,-187.38L-24.31,-121.61C-26.24,-118.38 -28.17,-115.16 -30.10,-111.93L-38.90,-110.50L-38.48,-106.08L28.30,-112.32L27.88,-116.75C22.83,-116.48 17.79,-116.21 12.74,-115.94L3.24,-124.18L-1.84,-178.49L19.91,-199.80C21.99,-199.19 24.08,-198.57 26.17,-197.95L38.52,-174.36L42.95,-174.77L49.68,-209.08C43.51,-212.16 37.41,-214.43 31.24,-217.50ZM174.72,-141.24L167.61,-147.88L155.21,-280.44L112.91,-268.36L113.33,-263.94L125.68,-262.05L129.85,-254.32L133.09,-219.73C124.63,-221.17 115.58,-222.55 107.33,-224.01C94.58,-217.14 81.61,-210.45 68.86,-203.57C65.60,-190.69 62.16,-177.58 58.90,-164.70L71.85,-130.40C84.83,-126.14 97.63,-121.65 110.61,-117.39L140.50,-140.48L142.39,-120.36L187.49,-134.93L187.07,-139.36ZM116.15,-136.17C107.21,-142.84 98.45,-149.73 89.51,-156.40L82.62,-188.83C86.02,-195.84 89.60,-203.08 93.00,-210.09L113.66,-214.87C120.18,-212.43 127.56,-209.47 134.29,-206.85L139.96,-146.31C132.34,-143.16 123.57,-139.30 116.15,-136.17ZM256.61,-146.47C247.70,-148.48 238.81,-150.28 229.89,-152.29C224.93,-161.97 219.76,-171.63 214.82,-181.11L286.77,-190.69L273.85,-224.58C264.11,-228.94 254.19,-233.09 244.45,-237.45C230.41,-233.50 216.14,-229.93 202.10,-225.98C195.73,-213.82 189.58,-201.48 183.21,-189.31C188.04,-174.55 192.69,-159.56 197.52,-144.80L230.69,-128.63C244.09,-130.69 257.47,-132.96 270.87,-135.02C276.81,-143.09 282.81,-152.78 288.75,-160.84L285.92,-162.81C276.04,-157.83 266.49,-151.45 256.61,-146.47ZM227.74,-227.37C233.70,-226.50 239.65,-225.84 245.61,-224.98L259.34,-199.69L214.00,-187.73C214.08,-197.68 213.96,-207.61 213.86,-217.34ZM416.03,-153.68L408.95,-162.15L402.66,-229.33C398.68,-235.04 394.51,-240.54 390.53,-246.25C381.74,-246.85 372.96,-247.45 364.18,-248.05L334.08,-224.94L332.20,-245.05L289.91,-232.98L290.32,-228.56L302.67,-226.67L306.85,-218.94L313.00,-153.17L307.21,-143.50L298.42,-142.06L298.83,-137.64L356.96,-143.08L356.55,-147.50L347.64,-147.28L340.56,-155.75L334.55,-219.91C344.23,-224.88 350.70,-227.31 360.38,-232.27C365.48,-227.67 370.76,-223.30 375.86,-218.70L381.39,-159.57L375.60,-149.90L366.80,-148.46L367.22,-144.04L425.35,-149.48L424.93,-153.90Z" fill="#ffffff" stroke="#000000"/>
    <path d="M-438.55,-124.32L-465.75,-130.93L-441.60,-140.07L-434.74,-166.90L-446.35,-189.60L-467.29,-197.87L-556.12,-188.62L-555.67,-184.25L-546.86,-184.56L-539.38,-176.30L-527.80,-65.02L-533.42,-55.39L-542.11,-53.89L-541.65,-49.51L-452.62,-58.78L-426.37,-76.77L-420.94,-99.84ZM-479.71,-185.93L-467.64,-174.13L-463.42,-149.05L-477.19,-132.76L-504.42,-129.92L-509.67,-180.40L-504.13,-187.00ZM-463.08,-64.72L-491.10,-61.80L-497.88,-67.12L-503.69,-122.97L-467.92,-120.86L-455.80,-106.66L-451.41,-83.81ZM-310.51,-86.82L-317.61,-93.31L-323.21,-147.17C-328.79,-154.42 -334.17,-161.70 -339.72,-168.75C-352.43,-169.24 -364.69,-169.37 -377.40,-169.85C-388.35,-163.09 -399.75,-156.88 -410.92,-150.30L-393.53,-122.18L-389.16,-122.63C-387.51,-133.85 -386.05,-144.85 -384.40,-156.07L-361.82,-163.04C-358.07,-157.80 -354.51,-152.55 -350.73,-147.12L-348.43,-125.06C-364.16,-119.81 -383.55,-113.17 -399.08,-107.94C-401.91,-100.41 -404.97,-93.06 -407.82,-85.74C-401.39,-77.97 -395.37,-70.36 -389.14,-62.57C-378.11,-64.72 -367.44,-66.43 -356.44,-68.78L-344.46,-86.90L-342.44,-67.43L-297.82,-80.71L-298.27,-85.08ZM-364.13,-77.02C-368.59,-79.37 -373.27,-81.90 -377.73,-84.25L-379.51,-101.34C-369.95,-107.96 -358.08,-115.42 -348.12,-122.08L-344.94,-91.47C-350.88,-86.84 -358.14,-81.26 -364.13,-77.02ZM-186.59,-96.70L-191.19,-104.26L-199.91,-188.12L-241.62,-175.75L-241.16,-171.37L-228.93,-169.63L-224.72,-162.04L-218.83,-105.40C-226.25,-101.41 -233.45,-97.25 -240.87,-93.26C-245.96,-97.76 -251.22,-102.03 -256.31,-106.52L-264.10,-181.44L-305.80,-169.07L-305.35,-164.70L-293.12,-162.96L-288.91,-155.36L-282.71,-95.74C-278.71,-90.13 -274.53,-84.74 -270.53,-79.13C-261.84,-78.63 -253.15,-78.12 -244.46,-77.62L-218.31,-100.43L-216.05,-80.58L-174.54,-92.93L-175.00,-97.30ZM-62.64,-133.30L-74.61,-115.18L-85.12,-108.06L-115.76,-103.27L-123.60,-111.09L-128.71,-160.17L-95.90,-163.39L-86.69,-157.92L-82.01,-149.56L-77.43,-150.04L-81.67,-190.78L-86.24,-190.30L-89.11,-181.17L-97.41,-174.08L-97.39,-173.88L-129.76,-170.31L-134.35,-214.43L-128.29,-223.69L-97.74,-225.47L-85.97,-220.46L-71.91,-205.05L-66.94,-205.57L-74.61,-238.72L-181.33,-227.62L-180.87,-223.25L-172.06,-223.56L-164.58,-215.30L-153.00,-104.01L-158.62,-94.39L-167.31,-92.88L-166.85,-88.51L-59.74,-99.65L-57.67,-133.82ZM23.57,-212.17C17.20,-209.70 10.59,-207.61 4.21,-205.14C-0.34,-196.83 -4.80,-187.53 -9.36,-179.22L-12.40,-208.43L-54.04,-195.46L-53.58,-191.09L-41.35,-189.35C-39.89,-186.89 -38.60,-184.21 -37.14,-181.75L-30.38,-116.77C-32.26,-113.56 -34.13,-110.35 -36.01,-107.14L-44.69,-105.64L-44.24,-101.27L21.74,-108.13L21.29,-112.50C16.30,-112.18 11.31,-111.87 6.32,-111.55L-3.16,-119.60L-8.74,-173.26L12.55,-194.56C14.62,-193.97 16.69,-193.38 18.76,-192.79L31.22,-169.58L35.59,-170.04L41.89,-204.04C35.76,-207.01 29.71,-209.20 23.57,-212.17ZM166.25,-138.23L159.15,-144.72L145.53,-275.69L103.82,-263.31L104.28,-258.94L116.51,-257.20L120.72,-249.60L124.27,-215.42C115.90,-216.76 106.93,-218.04 98.75,-219.39C86.21,-212.47 73.46,-205.71 60.92,-198.79C57.83,-186.01 54.56,-173.01 51.47,-160.24L64.63,-126.45C77.51,-122.37 90.21,-118.07 103.09,-113.98L132.42,-137.12L134.49,-117.25L178.94,-132.12L178.49,-136.49ZM108.38,-132.61C99.47,-139.12 90.74,-145.84 81.82,-152.35L74.68,-184.35C77.97,-191.32 81.44,-198.51 84.73,-205.48L105.11,-210.41C111.58,-208.07 118.91,-205.22 125.60,-202.70L131.82,-142.89C124.32,-139.69 115.69,-135.78 108.38,-132.61ZM247.19,-144.24C238.35,-146.13 229.54,-147.83 220.70,-149.72C215.69,-159.24 210.49,-168.75 205.50,-178.07L276.55,-188.28L263.44,-221.66C253.76,-225.88 243.90,-229.88 234.22,-234.09C220.38,-230.04 206.30,-226.37 192.46,-222.31C186.28,-210.22 180.33,-197.95 174.16,-185.86C179.08,-171.31 183.84,-156.53 188.76,-141.98L221.73,-126.33C234.96,-128.51 248.17,-130.89 261.41,-133.07C267.20,-141.10 273.02,-150.75 278.82,-158.78L276.01,-160.70C266.29,-155.67 256.91,-149.27 247.19,-144.24ZM217.80,-223.95C223.71,-223.15 229.60,-222.56 235.50,-221.77L249.34,-196.89L204.62,-184.61C204.60,-194.45 204.38,-204.27 204.18,-213.89ZM404.77,-153.00L397.68,-161.30L390.77,-227.68C386.77,-233.29 382.60,-238.68 378.60,-244.29C369.91,-244.79 361.22,-245.30 352.53,-245.80L323.00,-222.64L320.93,-242.51L279.23,-230.14L279.68,-225.76L291.92,-224.02L296.12,-216.43L302.88,-151.44L297.26,-141.82L288.57,-140.31L289.03,-135.94L346.46,-141.91L346.01,-146.29L337.20,-145.97L330.11,-154.27L323.51,-217.67C333.04,-222.68 339.41,-225.15 348.93,-230.16C354.02,-225.66 359.28,-221.39 364.37,-216.90L370.45,-158.47L364.82,-148.85L356.14,-147.34L356.60,-142.97L414.03,-148.94L413.57,-153.32Z" fill="#ffffff" stroke="#000000"/>
    <path d="M-889.36,490.56C-892.75,491.20 -896.17,491.89 -899.55,492.49C-902.70,491.05 -905.82,489.53 -908.93,488.05C-909.92,484.17 -910.91,480.33 -911.86,476.46L-906.12,467.03C-902.70,466.39 -899.36,465.55 -895.98,464.91C-892.82,466.43 -889.74,468.06 -886.63,469.58C-885.56,473.08 -884.42,476.65 -883.44,480.14C-885.41,483.68 -887.39,487.06 -889.36,490.56ZM-900.31,467.03L-905.17,469.96C-905.13,473.46 -905.06,476.99 -905.02,480.49C-903.58,483.45 -902.17,486.41 -900.73,489.38C-898.75,489.61 -896.81,489.87 -894.84,490.10L-890.12,487.10C-890.24,483.72 -890.39,480.30 -890.50,476.91L-895.03,467.79C-896.77,467.53 -898.56,467.30 -900.31,467.03ZM-866.53,472.35C-867.78,472.70 -869.07,472.96 -870.33,473.30C-871.35,474.79 -872.38,476.46 -873.40,477.94L-873.40,472.35L-881.54,473.99L-881.54,474.82L-879.26,475.39C-879.03,475.89 -878.84,476.42 -878.61,476.91L-878.61,489.34C-879.03,489.91 -879.45,490.48 -879.86,491.05L-881.54,491.16L-881.54,492L-868.92,492L-868.92,491.16C-869.87,491.13 -870.82,491.09 -871.77,491.05L-873.40,489.34L-873.40,479.08L-868.96,475.47C-868.58,475.62 -868.20,475.77 -867.82,475.93L-865.92,480.56L-865.08,480.56L-863.22,474.25C-864.32,473.57 -865.42,473.04 -866.53,472.35ZM-848.59,488.01C-849.24,488.35 -849.92,488.66 -850.57,489.00L-853.30,489.00C-853.80,488.39 -854.25,487.74 -854.75,487.14L-854.75,474.52L-849.12,474.52L-849.12,473L-854.75,473L-854.75,468.06L-856.11,468.06L-857.90,471.44C-858.55,471.94 -859.15,472.47 -859.80,473L-862.35,473L-862.35,474.48L-860.37,474.48L-859.95,475.47L-859.95,487.93C-859.46,489.07 -858.93,490.25 -858.43,491.39L-852.66,492.42C-851.14,491.28 -849.46,490.14 -847.94,489.00ZM-842.17,468.63C-841.26,468.48 -840.53,468.36 -839.81,468.25L-838.71,466.08C-838.86,465.36 -839.05,464.64 -839.20,463.92C-839.89,463.61 -840.57,463.31 -841.22,462.97L-843.57,463.42C-844.03,464.03 -844.41,464.68 -844.83,465.32C-844.64,466.12 -844.37,466.92 -844.22,467.72C-843.54,468.02 -842.89,468.33 -842.17,468.63ZM-837.91,491.05L-839.17,489.34L-839.17,473L-841.64,473L-847.30,474.52L-847.30,475.36L-845.02,475.93L-844.37,477.45L-844.37,489.34L-845.63,491.05L-847.30,491.16L-847.30,492L-836.24,492L-836.24,491.16ZM-816.25,476.53L-818.80,480.87L-819.37,480.87C-820.13,479.08 -820.93,476.72 -821.69,474.94C-823.09,474.60 -824.46,474.29 -825.87,473.95L-828.53,475.58C-828.68,477.75 -828.79,479.95 -828.94,482.12C-828.15,484.10 -827.31,486.07 -826.51,488.05C-824.99,488.58 -823.47,489.07 -821.95,489.61C-820.13,488.85 -818.27,488.12 -816.44,487.36L-815.95,487.78L-819.75,492C-822.18,492.15 -824.61,492.38 -827.04,492.53L-832.97,488.88C-833.62,486.03 -834.23,483.15 -834.87,480.30C-833.47,478.13 -832.10,475.93 -830.69,473.76C-828.11,473.27 -825.49,472.85 -822.90,472.35C-821.27,472.89 -819.67,473.34 -818.04,473.87C-817.43,474.75 -816.86,475.66 -816.25,476.53ZM-796.19,489.49L-797.40,488.12L-797.40,477.83C-798.32,476.34 -799.19,474.86 -800.10,473.42C-802.50,473.08 -804.81,472.81 -807.21,472.47C-809.41,473.53 -811.69,474.48 -813.93,475.51L-811.20,481.17L-810.36,481.17C-809.83,479.08 -809.34,477.03 -808.80,474.94L-804.40,474.06C-803.79,475.13 -803.22,476.19 -802.61,477.29L-802.61,481.51C-805.69,482.20 -809.49,483.07 -812.53,483.75C-813.21,485.12 -813.93,486.45 -814.62,487.78C-813.55,489.38 -812.57,490.94 -811.54,492.53C-809.41,492.34 -807.36,492.23 -805.23,492L-802.61,488.81L-802.61,492.53L-793.91,490.90L-793.91,490.06ZM-806.52,490.29C-807.32,489.76 -808.16,489.19 -808.96,488.66L-808.96,485.39C-807.02,484.32 -804.62,483.15 -802.61,482.08L-802.61,487.93C-803.83,488.69 -805.31,489.61 -806.52,490.29ZM-792.01,481.36L-792.01,483.64L-779.89,483.64L-779.89,481.36ZM-756.21,479.88L-761.23,478.09L-756.48,476.84L-754.65,471.90L-756.40,467.38L-760.20,465.40L-777.19,465.40L-777.19,466.24L-775.52,466.35L-774.26,468.06L-774.26,489.34L-775.52,491.05L-777.19,491.16L-777.19,492L-760.16,492L-754.84,489.11L-753.36,484.86ZM-762.79,467.41L-760.73,469.88L-760.43,474.71L-763.36,477.52L-768.56,477.52L-768.56,467.87L-767.38,466.73ZM-762.03,490.67L-767.38,490.67L-768.56,489.53L-768.56,478.85L-761.84,479.95L-759.82,482.88L-759.44,487.29ZM-734.13,490.52C-737.06,491.24 -739.95,491.77 -742.87,492.49C-744.96,491.32 -747.09,490.29 -749.18,489.11C-749.87,486.26 -750.59,483.41 -751.27,480.56L-747.28,474.29L-738.54,472.35L-731.51,475.85C-730.83,478.70 -730.14,481.55 -729.46,484.40ZM-742.23,474.48C-743.22,475.05 -744.17,475.66 -745.15,476.23C-745.31,478.55 -745.46,481.36 -745.61,483.60C-744.39,485.65 -743.14,487.71 -741.92,489.76L-738.54,489.99C-737.67,489.45 -736.76,488.88 -735.88,488.35L-735.12,481.09C-736.26,479.08 -737.93,476.72 -739.11,474.79C-740.14,474.67 -741.20,474.60 -742.23,474.48ZM-718.74,491.05L-719.92,489.34L-719.92,462.74L-728.05,464.26L-728.05,465.10L-725.77,465.67L-725.13,467.19L-725.13,489.38L-726.34,491.05L-728.02,491.16L-728.02,492L-717.07,492L-717.07,491.16ZM-694.61,489.15L-695.83,487.78L-695.83,462.74L-703.96,464.26L-703.96,465.10L-701.68,465.67L-701.04,467.19L-701.04,473.72C-702.59,473.30 -704.27,472.89 -705.79,472.47C-708.29,473.53 -710.84,474.56 -713.35,475.62C-714.18,477.98 -715.06,480.37 -715.89,482.73L-714.07,489.38C-711.71,490.40 -709.40,491.47 -707.04,492.49L-701.04,488.69L-701.04,492.49L-692.33,490.56L-692.33,489.72ZM-705.67,489.07C-707.23,487.67 -708.75,486.22 -710.31,484.82L-711.03,478.62C-710.27,477.37 -709.47,476.08 -708.71,474.82L-704.76,474.29C-703.58,474.86 -702.25,475.55 -701.04,476.15L-701.04,487.59C-702.52,488.05 -704.23,488.62 -705.67,489.07Z"/>
</svg>