<?xml version="1.0"?>
<svg xmlns="http://www.w3.org/2000/svg" width="1920" height="1080" viewBox="-960 -540 1920 1080">
    <path d="M-128.87,-275.98L-128.87,-170.53L-141.75,-148.33L-141.75,-147L-78.92,-147L-101.57,-170.53L-101.57,-218.71L-45.40,-218.71L-45.40,-228.92L-101.57,-228.92L-101.57,-291.08L-66.71,-291.08L-40.51,-252.45L-39.63,-252.45L-39.63,-299.07L-141.75,-299.07ZM19.43,-288.86L1.00,-309.28L-17.65,-288.86L1.00,-268.21ZM14.99,-166.09L14.99,-258L-25.64,-243.13L-10.54,-226.03L-10.54,-147L31.41,-147ZM75.37,-258L34.74,-243.13L49.84,-226.03L49.84,-147L78.70,-147L75.37,-160.54C75.37,-179.19 91.13,-216.04 102.23,-238.02L104.01,-237.80C106.45,-229.14 108.45,-213.60 108.45,-178.97L108.45,-147L150.40,-147L133.98,-166.09L133.98,-191.84C133.98,-237.13 133.53,-243.57 127.76,-261.33L106.01,-255.78C101.34,-249.34 84.03,-217.15 75.37,-184.30Z" fill="#ffffff" stroke="#000000"/>
    <path d="M-121.24,-275.98L-125.93,-171.69L-139.66,-150.31L-139.71,-148.99L-77.58,-146.19L-98.93,-170.48L-96.78,-218.12L-41.24,-215.62L-40.78,-225.72L-96.33,-228.22L-93.56,-289.70L-59.09,-288.14L-34.90,-248.78L-34.03,-248.74L-31.95,-294.84L-132.95,-299.39ZM26.00,-282.12L8.68,-303.14L-10.67,-283.77L6.85,-262.52ZM16.14,-160.90L20.23,-251.80L-20.61,-238.89L-6.44,-221.31L-9.96,-143.15L31.54,-141.29ZM79.95,-249.11L39.11,-236.21L53.28,-218.63L49.76,-140.47L78.31,-139.18L75.62,-152.72C76.45,-171.17 93.67,-206.91 105.63,-228.15L107.38,-227.85C109.41,-219.18 110.69,-203.73 109.15,-169.47L107.73,-137.86L149.22,-135.99L133.83,-155.60L134.97,-181.07C136.99,-225.86 136.83,-232.25 131.92,-250.07L110.15,-245.55C105.25,-239.39 86.70,-208.32 76.67,-176.22Z" fill="#ffffff" stroke="#000000"/>
    <path d="M-113.74,-275.91L-123.02,-172.99L-137.54,-152.45L-137.66,-151.15L-76.33,-145.62L-96.37,-170.58L-92.13,-217.60L-37.31,-212.66L-36.41,-222.63L-91.23,-227.57L-85.76,-288.24L-51.74,-285.17L-29.57,-245.17L-28.70,-245.09L-24.60,-290.59L-124.27,-299.58ZM32.14,-275.43L15.95,-296.98L-4.05,-278.69L12.34,-256.90ZM17.00,-155.99L25.09,-245.70L-15.87,-234.76L-2.64,-216.74L-9.60,-139.61L31.36,-135.91ZM84.03,-240.39L43.07,-229.44L56.30,-211.43L49.34,-134.29L77.51,-131.75L75.45,-145.26C77.09,-163.46 95.72,-198.05 108.49,-218.52L110.20,-218.15C111.82,-209.48 112.41,-194.14 109.36,-160.34L106.54,-129.13L147.50,-125.44L133.14,-145.52L135.41,-170.66C139.39,-214.86 139.53,-221.18 135.46,-239.03L113.73,-235.52C108.62,-229.65 88.88,-199.75 77.54,-168.45Z" fill="#ffffff" stroke="#000000"/>
    <path d="M-106.35,-275.78L-120.10,-174.42L-135.37,-154.76L-135.55,-153.48L-75.16,-145.29L-93.86,-170.86L-87.57,-217.16L-33.59,-209.84L-32.25,-219.65L-86.24,-226.98L-78.13,-286.73L-44.63,-282.18L-24.49,-241.63L-23.64,-241.52L-17.56,-286.33L-115.71,-299.65ZM37.87,-268.81L22.83,-290.85L2.24,-273.65L17.47,-251.37ZM17.59,-151.39L29.58,-239.73L-11.41,-230.73L0.87,-212.33L-9.44,-136.37L30.89,-130.89ZM87.62,-231.85L46.63,-222.86L58.91,-204.46L48.60,-128.49L76.34,-124.73L74.91,-138.18C77.34,-156.10 97.30,-189.47 110.83,-209.15L112.51,-208.70C113.73,-200.06 113.62,-184.86 109.11,-151.57L104.94,-120.85L145.27,-115.37L131.97,-135.87L135.33,-160.62C141.23,-204.15 141.65,-210.40 138.41,-228.22L116.78,-225.72C111.46,-220.14 90.61,-191.46 78.01,-161.01Z" fill="#ffffff" stroke="#000000"/>
    <path d="M-99.06,-275.59L-117.17,-175.99L-133.14,-157.23L-133.37,-155.97L-74.03,-145.18L-91.38,-171.30L-83.10,-216.80L-30.05,-207.15L-28.30,-216.80L-81.35,-226.44L-70.68,-285.16L-37.76,-279.17L-19.65,-238.19L-18.81,-238.03L-10.80,-282.07L-107.26,-299.60ZM43.22,-262.28L29.32,-284.74L8.20,-268.65L22.27,-245.95ZM17.94,-147.09L33.73,-233.90L-7.20,-226.83L4.12,-208.09L-9.45,-133.44L30.18,-126.24ZM90.76,-223.53L49.83,-216.46L61.16,-197.72L47.59,-123.07L74.85,-118.12L74.03,-131.48C77.23,-149.09 98.44,-181.19 112.70,-200.05L114.34,-199.53C115.16,-190.94 114.38,-175.91 108.43,-143.20L102.94,-113.01L142.57,-105.80L130.33,-126.66L134.76,-150.98C142.53,-193.76 143.22,-199.91 140.82,-217.68L119.32,-216.17C113.81,-210.89 91.92,-183.46 78.10,-153.92Z" fill="#ffffff" stroke="#000000"/>
    <path d="M-91.86,-275.34L-114.19,-177.68L-130.82,-159.85L-131.10,-158.61L-72.92,-145.31L-88.91,-171.90L-78.71,-216.51L-26.69,-204.62L-24.53,-214.08L-76.54,-225.97L-63.38,-283.54L-31.10,-276.15L-15.02,-234.83L-14.20,-234.65L-4.33,-277.82L-98.90,-299.45ZM48.20,-255.86L35.46,-278.68L13.86,-263.71L26.76,-240.64ZM18.09,-143.11L37.55,-228.22L-3.22,-223.05L7.14,-204.02L-9.60,-130.83L29.26,-121.95ZM93.47,-215.43L52.70,-210.26L63.06,-191.24L46.33,-118.04L73.05,-111.93L72.84,-125.18C76.79,-142.45 99.19,-173.24 114.12,-191.24L115.72,-190.66C116.15,-182.13 114.71,-167.31 107.37,-135.24L100.60,-105.63L139.46,-96.75L128.29,-117.91L133.74,-141.76C143.33,-183.70 144.28,-189.75 142.70,-207.42L121.38,-206.89C115.69,-201.92 92.84,-175.77 77.87,-147.18Z" fill="#ffffff" stroke="#000000"/>
    <path d="M-84.75,-275.03L-111.16,-179.50L-128.39,-162.61L-128.72,-161.40L-71.80,-145.66L-86.42,-172.66L-74.36,-216.30L-23.47,-202.23L-20.91,-211.48L-71.80,-225.55L-56.23,-281.87L-24.65,-273.14L-10.59,-231.58L-9.79,-231.36L1.89,-273.60L-90.63,-299.18ZM52.83,-249.55L41.26,-272.67L19.24,-258.84L30.97,-235.46ZM18.06,-139.44L41.08,-222.71L0.55,-219.41L9.94,-200.14L-9.86,-128.53L28.16,-118.02ZM95.79,-207.58L55.26,-204.28L64.65,-185.01L44.85,-113.41L71.00,-106.18L71.38,-119.28C76.05,-136.18 99.56,-165.62 115.12,-182.75L116.67,-182.10C116.72,-173.65 114.64,-159.07 105.96,-127.69L97.95,-98.73L135.97,-88.22L125.87,-109.63L132.32,-132.96C143.66,-173.99 144.87,-179.94 144.09,-197.47L122.99,-197.89C117.15,-193.23 93.40,-168.40 77.33,-140.80Z" fill="#ffffff" stroke="#000000"/>
    <path d="M-77.70,-274.68L-108.06,-181.42L-125.84,-165.50L-126.22,-164.32L-70.66,-146.23L-83.91,-173.56L-70.04,-216.16L-20.37,-200.00L-17.43,-209.03L-67.10,-225.20L-49.21,-280.17L-18.39,-270.13L-6.34,-228.43L-5.56,-228.18L7.86,-269.40L-82.44,-298.80ZM57.15,-243.37L46.73,-266.74L24.36,-254.04L34.91,-230.42ZM17.88,-136.09L44.34,-217.36L4.13,-215.90L12.56,-196.44L-10.19,-126.55L26.91,-114.47ZM97.74,-199.98L57.53,-198.52L65.96,-179.06L43.20,-109.17L68.73,-100.86L69.68,-113.79C75.05,-130.29 99.60,-158.34 115.74,-174.58L117.24,-173.87C116.91,-165.51 114.21,-151.19 104.24,-120.57L95.03,-92.30L132.14,-80.22L123.11,-101.83L130.52,-124.60C143.56,-164.65 145.02,-170.47 145.03,-187.84L124.19,-189.20C118.21,-184.84 93.63,-161.36 76.52,-134.80Z" fill="#ffffff" stroke="#000000"/>
    <path d="M-70.72,-274.26L-104.86,-183.46L-123.14,-168.51L-123.57,-167.36L-69.47,-147.02L-81.35,-174.61L-65.75,-216.10L-17.38,-197.91L-14.07,-206.70L-62.44,-224.89L-42.31,-278.42L-12.30,-267.13L-2.25,-225.39L-1.48,-225.10L13.61,-265.25L-74.33,-298.31ZM61.16,-237.33L51.90,-260.88L29.23,-249.34L38.60,-225.52ZM17.58,-133.05L47.34,-212.20L7.54,-212.54L15.00,-192.93L-10.59,-124.88L25.54,-111.29ZM99.34,-192.64L59.54,-192.99L67.00,-173.38L41.41,-105.32L66.26,-95.98L67.78,-108.72C73.82,-124.78 99.33,-151.41 116.00,-166.74L117.46,-165.97C116.76,-157.73 113.45,-143.70 102.23,-113.87L91.88,-86.35L128.01,-72.76L120.05,-94.52L128.39,-116.70C143.05,-155.69 144.75,-161.38 145.53,-178.55L125.00,-180.81C118.90,-176.78 93.57,-154.66 75.47,-129.17Z" fill="#ffffff" stroke="#000000"/>
    <path d="M-63.78,-273.79L-101.55,-185.58L-120.28,-171.62L-120.76,-170.51L-68.20,-148.00L-78.71,-175.80L-61.45,-216.10L-14.47,-195.97L-10.81,-204.52L-57.80,-224.64L-35.53,-276.64L-6.37,-264.15L1.70,-222.45L2.45,-222.13L19.15,-261.13L-66.28,-297.72ZM64.89,-231.43L56.79,-255.12L33.87,-244.72L42.08,-220.77ZM17.19,-130.33L50.12,-207.21L10.81,-209.32L17.31,-189.62L-11.00,-123.50L24.10,-108.47ZM100.63,-185.58L61.32,-187.69L67.82,-167.98L39.51,-101.87L63.65,-91.53L65.72,-104.05C72.40,-119.65 98.78,-144.83 115.94,-159.24L117.35,-158.42C116.29,-150.30 112.39,-136.59 99.99,-107.62L88.54,-80.88L123.63,-65.85L116.73,-87.70L125.96,-109.24C142.18,-147.13 144.12,-152.67 145.65,-169.60L125.46,-172.75C119.26,-169.03 93.24,-148.31 74.23,-123.93Z" fill="#ffffff" stroke="#000000"/>
    <path d="M-56.88,-273.26L-98.12,-187.78L-117.24,-174.83L-117.77,-173.75L-66.84,-149.17L-75.99,-177.10L-57.15,-216.15L-11.62,-194.18L-7.63,-202.46L-53.15,-224.43L-28.84,-274.81L-0.59,-261.18L5.53,-219.62L6.25,-219.28L24.49,-257.07L-58.29,-297.01ZM68.36,-225.69L61.41,-249.45L38.31,-240.19L45.35,-216.16ZM16.74,-127.92L52.69,-202.42L13.94,-206.25L19.49,-186.49L-11.42,-122.43L22.59,-106.02ZM101.64,-178.80L62.89,-182.63L68.44,-162.87L37.53,-98.81L60.92,-87.52L63.52,-99.80C70.81,-114.92 98.00,-138.62 115.59,-152.10L116.95,-151.22C115.54,-143.25 111.08,-129.87 97.54,-101.80L85.03,-75.89L119.04,-59.48L113.19,-81.38L123.27,-102.25C140.98,-138.96 143.14,-144.35 145.41,-161.00L125.60,-165.01C119.30,-161.62 92.68,-142.30 72.81,-119.06Z" fill="#ffffff" stroke="#000000"/>
    <path d="M-910.99,465.97L-908.82,469.92L-908.82,487.97L-910.99,492L-903.01,492C-897.88,492 -890.88,490.52 -890.88,485.05C-890.88,481.17 -893.70,478.93 -898.22,477.86C-895.52,476.80 -892.48,475.13 -892.48,471.71C-892.48,467.19 -897.23,465.97 -902.70,465.97ZM-904.11,467.19L-902.85,467.19C-900.38,467.19 -897.15,467.91 -897.15,472.47C-897.15,475.43 -899.47,477.64 -904.11,477.64ZM-904.11,490.52L-904.11,478.59C-899.47,478.59 -896.20,479.92 -896.20,484.93C-896.20,488.58 -899.28,490.52 -902.97,490.52ZM-886.02,470.11L-886.02,471.25L-888.60,472.35L-886.02,475.28L-886.02,492L-878.84,492L-881.65,488.73L-881.65,465.02L-888.60,467.19ZM-866.26,492L-859.31,492L-861.89,489.07L-861.89,473.38L-866.83,473.38L-866.26,475.70C-866.26,478.97 -869.11,485.54 -871.01,489.23C-871.16,487.71 -871.28,485.27 -871.28,478.85L-871.28,472.62L-878.46,473.38L-875.65,476.65L-875.65,485.81C-875.65,488.58 -875.15,491.09 -874.92,492.30L-871.50,492C-870.71,490.90 -867.74,485.39 -866.26,479.76ZM-846.42,492L-839.47,492L-842.05,489.07L-842.05,473.38L-846.99,473.38L-846.42,475.70C-846.42,478.97 -849.27,485.54 -851.17,489.23C-851.33,487.71 -851.44,485.27 -851.44,478.85L-851.44,472.62L-858.62,473.38L-855.81,476.65L-855.81,485.81C-855.81,488.58 -855.32,491.09 -855.09,492.30L-851.67,492C-850.87,490.90 -847.91,485.39 -846.42,479.76ZM-818.95,492L-813.33,492L-814.88,489.80L-814.88,469.50L-812.22,465.97L-819.75,465.97L-816.63,469.24L-816.63,487.67L-831.45,465.97L-837.42,465.97L-833.92,470.80L-833.92,488.47L-836.58,492L-829.13,492L-832.21,488.73L-832.21,473.42ZM-796.11,483.37C-796.11,483.37 -798.73,489.76 -801.47,489.76C-802.84,489.76 -803.86,487.59 -804.21,484.44L-795.85,477.26C-795.85,476.50 -796.99,472.89 -800.60,472.89C-805.27,472.89 -809.15,479.38 -809.15,484.86C-809.15,489.91 -806.90,492.46 -803.52,492.46C-799.84,492.46 -796.49,487.02 -795.50,483.75ZM-804.28,483.53C-804.32,482.99 -804.36,482.42 -804.36,481.82C-804.36,475.74 -803.18,474.48 -802.50,474.06C-802.00,473.72 -800.10,475.55 -799.91,479.38ZM-781.06,492L-774.68,492L-777.87,489.53L-782.39,481.74C-780.99,479.92 -778.59,476.65 -777.42,473.38L-782.85,473.38L-780.38,475.47C-780.38,477.60 -781.94,479.42 -782.93,480.83L-787.26,473.38L-793.64,473.38L-790.87,475.77L-786.54,482.99C-788.17,485.05 -791.48,488.92 -792.58,492L-786.80,492L-789.08,489.91C-789.08,487.90 -787.18,485.54 -785.97,483.91ZM-760.77,473.80L-760.77,473.38L-766.81,473.38L-766.81,466.92L-771.11,473.38L-773.81,473.38L-771.22,475.62L-771.22,486.41C-771.15,492.19 -768.30,492.46 -766.93,492.46C-764.57,492.46 -761.95,488.77 -760.89,484.55L-761.30,484.40C-762.10,486.76 -763.81,489.64 -765.03,489.64C-766.05,489.64 -766.81,489.42 -766.81,485.24L-766.81,475.74ZM-758.45,479.84L-758.45,482.73L-749.98,482.73L-749.98,479.84ZM-746.83,465.97L-744.66,469.92L-744.66,487.97L-746.83,492L-738.85,492C-733.72,492 -726.72,490.52 -726.72,485.05C-726.72,481.17 -729.54,478.93 -734.06,477.86C-731.36,476.80 -728.32,475.13 -728.32,471.71C-728.32,467.19 -733.07,465.97 -738.54,465.97ZM-739.95,467.19L-738.69,467.19C-736.22,467.19 -732.99,467.91 -732.99,472.47C-732.99,475.43 -735.31,477.64 -739.95,477.64ZM-739.95,490.52L-739.95,478.59C-735.31,478.59 -732.04,479.92 -732.04,484.93C-732.04,488.58 -735.12,490.52 -738.81,490.52ZM-723.80,484.44C-723.80,489.57 -720.68,492.53 -716.62,492.53C-711.45,492.53 -706.96,487.10 -706.96,481.17C-706.96,476.15 -709.85,472.92 -714.60,472.92C-719.96,472.92 -723.80,478.32 -723.80,484.44ZM-716.08,474.14C-714.94,474.14 -711.98,476.19 -711.98,482.88C-711.98,489.15 -714.22,491.28 -715.36,491.28C-716.50,491.28 -719.01,488.20 -719.01,481.89C-719.01,475.17 -717.22,474.14 -716.08,474.14ZM-702.82,470.11L-702.82,471.25L-705.41,472.35L-702.82,475.28L-702.82,492L-695.64,492L-698.45,488.73L-698.45,465.02L-705.41,467.19ZM-676.15,492L-678.96,489.34L-678.96,465.02L-685.91,467.19L-683.33,470.11L-683.33,473.46C-690.43,474.22 -694.35,479.35 -694.35,485.81C-694.35,488.88 -693.09,491.62 -691.95,492.42L-689.14,492C-686.90,488.39 -684.28,483.26 -682.95,477.83L-683.40,482.23L-683.40,492.34ZM-688.53,489.07C-688.99,489.07 -689.64,487.48 -689.64,483.75C-689.64,479.92 -688.42,474.52 -683.33,474.48C-683.37,478.51 -687.81,489.07 -688.53,489.07ZM-671.36,487.97L-674.02,492L-663.99,492L-666.65,487.97L-666.65,470.00L-663.99,465.97L-674.02,465.97L-671.36,470.00ZM-649.13,473.80L-649.13,473.38L-655.17,473.38L-655.17,466.92L-659.46,473.38L-662.16,473.38L-659.58,475.62L-659.58,486.41C-659.50,492.19 -656.65,492.46 -655.28,492.46C-652.93,492.46 -650.31,488.77 -649.24,484.55L-649.66,484.40C-650.46,486.76 -652.17,489.64 -653.38,489.64C-654.41,489.64 -655.17,489.42 -655.17,485.24L-655.17,475.74ZM-642.29,492C-640.05,488.39 -637.42,483.26 -636.09,477.83L-636.55,482.23L-636.55,492L-629.29,492L-632.10,488.73L-632.10,475.43L-630.66,473.38L-634.99,473.38C-642.93,473.53 -647.27,478.74 -647.27,485.81C-647.27,488.88 -646.24,491.62 -645.10,492.42ZM-641.68,489.07C-642.14,489.07 -642.55,487.48 -642.55,483.75C-642.55,479.92 -641.57,474.52 -636.47,474.48C-636.51,478.51 -640.96,489.07 -641.68,489.07ZM-626.06,470.11L-626.06,471.25L-628.65,472.35L-626.06,475.28L-626.06,492L-618.88,492L-621.69,488.73L-621.69,465.02L-628.65,467.19ZM-610.52,467.72L-613.67,464.22L-616.87,467.72L-613.67,471.25ZM-611.28,488.73L-611.28,473L-618.23,475.55L-615.65,478.47L-615.65,492L-608.47,492ZM-594.98,478.32L-594.86,478.17L-597.52,472.85L-597.90,472.85C-602.54,474.03 -607.18,479.27 -607.18,485.05C-607.18,490.10 -604.74,492.46 -601.59,492.46C-599.61,492.46 -596.08,489.53 -594.10,483.72L-594.71,483.34C-596.46,487.36 -598.51,489.76 -599.77,489.76C-601.48,489.76 -602.39,486.68 -602.39,481.78C-602.39,479.27 -601.74,475.77 -601.02,475.77Z"/>
</svg>