<?xml version="1.0"?>
<svg xmlns="http://www.w3.org/2000/svg" width="1920" height="1080" viewBox="-960 -540 1920 1080">
    <path d="M-903.12,492.38C-899.47,492.38 -895.14,489.80 -895.14,485.43C-895.14,481.55 -897.23,480.07 -901.83,477.86C-905.32,476.15 -906.96,474.98 -906.96,472.28C-906.96,469.92 -905.32,468.10 -902.70,468.10C-901.03,468.10 -899.89,468.59 -898.33,469.88L-896.66,474.06L-896.01,474.06L-896.39,468.14C-898.41,467.11 -900.19,466.54 -902.51,466.54C-906.27,466.54 -909.85,470.00 -909.85,473.34C-909.85,476.76 -907.95,478.21 -904.49,479.95C-900.50,481.93 -897.99,482.73 -897.99,486.15C-897.99,489.11 -899.78,490.86 -902.93,490.86C-904.64,490.86 -906.27,490.37 -908.10,488.92L-910.07,484.55L-910.72,484.55L-910.34,490.63C-908.02,491.81 -906.16,492.38 -903.12,492.38ZM-891.07,500.74L-883.40,500.74L-883.40,500.13L-886.10,499.18L-886.10,491.77C-884.99,492.15 -883.70,492.38 -882.37,492.38C-877.58,492.38 -873.67,488.85 -873.67,482.61C-873.67,477.60 -876.44,474.52 -880.24,474.52C-882.30,474.52 -884.01,475.20 -885.94,476.84L-886.17,476.84L-886.40,474.52L-886.70,474.52L-891.15,476.12L-891.15,476.53L-888.68,477.83L-888.68,499.18L-891.07,500.13ZM-881.92,476.61C-878.88,476.61 -876.18,478.74 -876.18,483.60C-876.18,488.88 -878.50,490.90 -881.19,490.90C-883.09,490.90 -884.58,490.44 -886.10,489.34L-886.10,478.05C-884.84,477.10 -883.40,476.61 -881.92,476.61ZM-861.89,492.38C-858.89,492.38 -856.57,490.78 -855.43,488.77L-855.43,488.35L-855.54,488.35C-857.10,489.45 -858.89,490.02 -860.71,490.02C-865.42,490.02 -867.40,486.79 -867.40,482.80C-867.40,482.69 -867.40,482.61 -867.40,482.50L-855.58,482.50L-855.43,482.35C-855.58,477.37 -857.98,474.52 -861.97,474.52C-866.22,474.52 -869.95,478.59 -869.95,484.02C-869.95,488.96 -866.98,492.38 -861.89,492.38ZM-862.54,475.85C-859.95,475.85 -858.51,477.60 -857.98,481.13L-867.29,481.13C-866.83,477.79 -864.97,475.85 -862.54,475.85ZM-843.57,492.38C-840.57,492.38 -838.25,490.78 -837.11,488.77L-837.11,488.35L-837.23,488.35C-838.79,489.45 -840.61,490.02 -842.40,490.02C-847.07,490.02 -849.05,486.79 -849.05,482.80C-849.05,478.32 -846.96,475.85 -843.88,475.85C-842.09,475.85 -840.95,476.72 -840.04,477.94L-839.09,479.23L-838.86,479.23L-837.57,478.17C-837.27,477.94 -837.19,477.71 -837.19,477.45C-837.19,477.07 -837.49,476.69 -838.03,476.15C-839.01,475.24 -840.95,474.52 -842.97,474.52C-847.91,474.52 -851.59,478.51 -851.59,484.02C-851.59,488.96 -848.63,492.38 -843.57,492.38ZM-827.65,492.38C-825.37,492.38 -823.97,491.16 -823.47,490.14L-823.47,489.87L-823.55,489.83C-824.23,490.10 -825.11,490.29 -826.13,490.29C-827.73,490.29 -828.94,489.61 -828.94,488.20L-828.94,476.50L-823.93,476.50L-823.93,474.90L-828.94,474.90L-828.94,470.72L-829.25,470.72L-831.34,474.90L-834.72,476.19L-834.72,476.50L-831.53,476.50L-831.53,488.62C-831.53,491.01 -829.82,492.38 -827.65,492.38ZM-820.20,492L-812.45,492L-812.45,491.39L-815.23,490.44L-815.23,479.12C-814.20,477.67 -813.10,477.03 -811.84,477.03C-811.31,477.03 -810.82,477.10 -810.32,477.29L-809.18,477.79L-808.99,477.79L-808.39,476.27C-808.27,476.04 -808.27,475.85 -808.27,475.70C-808.27,475.32 -808.69,475.05 -809.22,474.82C-809.53,474.67 -810.10,474.52 -810.51,474.52C-811.84,474.52 -812.87,474.82 -815.15,477.83L-815.26,477.83L-815.53,474.52L-815.83,474.52L-820.28,476.12L-820.28,476.53L-817.81,477.83L-817.81,490.44L-820.20,491.39ZM-801.89,492.38C-799.76,492.38 -797.78,491.39 -796.45,490.10L-796.30,490.10C-795.96,491.43 -795.01,492.38 -793.34,492.38C-791.78,492.38 -790.72,491.51 -790.22,490.63L-790.22,490.56L-790.30,490.48L-791.97,490.48C-792.96,490.48 -793.53,490.25 -793.91,489.87L-793.91,478.66C-793.91,475.62 -796.30,474.52 -799.15,474.52C-800.67,474.52 -802.19,475.20 -803.60,476.12C-804.93,476.95 -805.57,478.13 -805.57,479.19C-805.57,480.03 -805.35,480.18 -804.59,480.18L-802.99,480.18L-802.80,479.99L-802.80,478.74C-802.80,477.07 -802.12,476.04 -800.06,476.04C-798.24,476.04 -796.45,477.48 -796.45,479.38L-796.45,482.31L-800.14,483.22C-804.36,484.25 -806.03,485.96 -806.03,488.43C-806.03,490.90 -804.28,492.38 -801.89,492.38ZM-803.48,487.71C-803.48,485.84 -802.61,484.63 -796.45,483.41L-796.45,489.38C-797.90,490.06 -799.19,490.37 -800.44,490.37C-802.38,490.37 -803.48,489.49 -803.48,487.71ZM-787.98,492L-780.49,492L-780.49,491.39L-783.00,490.44L-783.00,463.50L-783.31,463.50L-788.06,464.94L-788.06,465.32L-785.59,466.81L-785.59,490.44L-787.98,491.39ZM-776.92,483.34L-766.47,483.34L-766.47,481.13L-776.92,481.13ZM-762.10,492L-743.56,492L-743.56,483.72L-744.20,483.72L-746.48,490.21L-756.14,490.21L-756.14,468.82L-752.72,467.68L-752.72,466.92L-762.10,466.92L-762.10,467.68L-759.10,468.82L-759.10,490.10L-762.10,491.24ZM-735.31,469.35C-734.17,469.35 -733.37,468.52 -733.37,467.41C-733.37,466.27 -734.17,465.48 -735.31,465.48C-736.41,465.48 -737.25,466.27 -737.25,467.41C-737.25,468.52 -736.41,469.35 -735.31,469.35ZM-738.69,492L-731.21,492L-731.21,491.39L-733.72,490.44L-733.72,474.52L-734.02,474.52L-738.77,475.96L-738.77,476.34L-736.30,477.83L-736.30,490.44L-738.69,491.39ZM-719.81,486.45C-716.12,486.45 -713.39,483.91 -713.39,480.49C-713.39,479.08 -713.92,477.52 -714.75,476.65L-714.64,476.50L-710.95,476.76L-710.95,474.90L-716.46,475.20C-717.38,474.82 -718.74,474.52 -719.81,474.52C-723.49,474.52 -726.23,477.10 -726.23,480.49C-726.23,482.65 -725.17,484.44 -723.46,485.50L-723.46,485.69L-725.58,486.87C-726.23,487.48 -726.50,488.24 -726.50,489.15C-726.50,490.67 -725.51,491.81 -723.72,492.23L-723.72,492.34L-726.23,494.17C-726.65,494.85 -726.88,495.65 -726.88,496.60C-726.88,499.14 -725.01,501.12 -720.34,501.12C-715.02,501.12 -711.60,497.89 -711.60,494.70C-711.60,491.81 -713.27,490.21 -716.69,490.21L-721.14,490.21C-723.30,490.21 -724.25,489.57 -724.25,488.09C-724.25,487.21 -723.80,486.45 -722.51,485.96C-721.71,486.30 -720.80,486.45 -719.81,486.45ZM-719.43,485.24C-721.86,485.24 -723.61,483.37 -723.61,480.37C-723.61,477.67 -722.32,475.70 -720.07,475.70C-717.79,475.70 -716.05,477.52 -716.05,480.60C-716.05,483.30 -717.34,485.24 -719.43,485.24ZM-724.56,496.18C-724.56,494.43 -724.10,493.18 -722.70,492.34C-722.54,492.38 -722.32,492.38 -722.13,492.38L-718.10,492.38C-714.98,492.38 -713.92,493.10 -713.92,495.42C-713.92,497.85 -716.35,500.13 -719.85,500.13C-722.51,500.13 -724.56,498.46 -724.56,496.18ZM-707.08,492L-699.40,492L-699.40,491.39L-702.10,490.48L-702.10,478.47C-701.07,477.37 -699.14,476.80 -697.73,476.80C-695.34,476.80 -693.66,478.17 -693.66,480.75L-693.66,490.48L-696.36,491.39L-696.36,492L-688.69,492L-688.69,491.39L-691.08,490.44L-691.08,479.27C-691.08,476.15 -693.28,474.52 -696.32,474.52C-698.45,474.52 -700.09,475.39 -701.99,477.29L-702.10,477.29L-702.10,463.50L-702.40,463.50L-707.15,464.94L-707.15,465.32L-704.68,466.81L-704.68,490.44L-707.08,491.39ZM-679.49,492.38C-677.21,492.38 -675.80,491.16 -675.31,490.14L-675.31,489.87L-675.39,489.83C-676.07,490.10 -676.94,490.29 -677.97,490.29C-679.57,490.29 -680.78,489.61 -680.78,488.20L-680.78,476.50L-675.77,476.50L-675.77,474.90L-680.78,474.90L-680.78,470.72L-681.09,470.72L-683.18,474.90L-686.56,476.19L-686.56,476.50L-683.37,476.50L-683.37,488.62C-683.37,491.01 -681.66,492.38 -679.49,492.38Z"/>
</svg>