<?xml version="1.0"?>
<svg xmlns="http://www.w3.org/2000/svg" width="1920" height="1080" viewBox="-960 -540 1920 1080">
    <path d="M-182.71,-302.40L-87.25,-302.40L-87.25,-285.08L-164.06,-285.08L-164.06,-233.58L-88.58,-233.58L-88.58,-216.26L-164.06,-216.26L-164.06,-147L-182.71,-147ZM-14.43,-289.97C-14.43,-294.26 -12.91,-297.92 -9.88,-300.96C-6.84,-303.99 -3.18,-305.51 1.11,-305.51C5.40,-305.51 9.07,-303.99 12.10,-300.96C15.13,-297.92 16.65,-294.26 16.65,-289.97C16.65,-285.68 15.13,-282.01 12.10,-278.98C9.07,-275.95 5.40,-274.43 1.11,-274.43C-3.18,-274.43 -6.84,-275.95 -9.88,-278.98C-12.91,-282.01 -14.43,-285.68 -14.43,-289.97ZM-45.95,-162.98L-7.33,-162.98L-7.33,-241.13L-41.96,-241.13L-41.96,-257.11L9.99,-257.11L9.99,-162.98L45.95,-162.98L45.95,-147L-45.95,-147ZM104.56,-147L87.25,-147L87.25,-257.11L104.56,-257.11L104.56,-238.46L107.23,-238.46C114.03,-252.97 125.87,-260.22 142.75,-260.22C155.47,-260.22 165.61,-256.26 173.16,-248.34C180.71,-240.43 184.48,-228.55 184.48,-212.71L184.48,-147L167.17,-147L167.17,-209.16C167.17,-220.70 164.58,-229.36 159.40,-235.13C154.22,-240.91 147.19,-243.79 138.31,-243.79C127.80,-243.79 119.55,-240.20 113.55,-233.02C107.56,-225.85 104.56,-216.26 104.56,-204.28Z" fill="#ffffff" stroke="#000000"/>
    <path d="M-201.11,-286.90L-106.72,-291.53L-105.88,-274.41L-181.84,-270.68L-179.34,-219.75L-104.70,-223.41L-103.86,-206.29L-178.50,-202.63L-175.14,-134.14L-193.58,-133.24ZM-34.12,-282.77C-34.33,-287.01 -33.00,-290.71 -30.15,-293.85C-27.30,-297.00 -23.75,-298.68 -19.51,-298.89C-15.26,-299.09 -11.57,-297.77 -8.42,-294.92C-5.27,-292.07 -3.59,-288.52 -3.39,-284.27C-3.18,-280.03 -4.50,-276.33 -7.35,-273.19C-10.21,-270.04 -13.75,-268.36 -18.00,-268.15C-22.24,-267.95 -25.94,-269.27 -29.09,-272.12C-32.23,-274.97 -33.91,-278.52 -34.12,-282.77ZM-59.13,-155.67L-20.94,-157.55L-24.73,-234.82L-58.97,-233.14L-59.75,-248.94L-8.38,-251.46L-3.81,-158.39L31.75,-160.13L32.52,-144.33L-58.36,-139.87ZM90.48,-147.17L73.35,-146.33L68.01,-255.21L85.14,-256.05L86.04,-237.61L88.67,-237.74C94.70,-252.41 106.06,-260.16 122.74,-260.97C135.33,-261.59 145.54,-258.17 153.39,-250.70C161.24,-243.24 165.55,-231.68 166.31,-216.02L169.50,-151.04L152.38,-150.20L149.36,-211.67C148.80,-223.08 145.82,-231.52 140.42,-236.98C135.02,-242.43 127.93,-244.94 119.15,-244.51C108.76,-244.00 100.77,-240.06 95.19,-232.67C89.62,-225.28 87.12,-215.66 87.70,-203.80Z" fill="#ffffff" stroke="#000000"/>
    <path d="M-218.32,-270.41L-125.22,-279.56L-123.56,-262.67L-198.47,-255.31L-193.53,-205.07L-119.92,-212.31L-118.26,-195.42L-191.87,-188.19L-185.23,-120.63L-203.42,-118.84ZM-53.01,-274.42C-53.42,-278.60 -52.29,-282.32 -49.62,-285.57C-46.96,-288.82 -43.53,-290.65 -39.34,-291.06C-35.16,-291.48 -31.44,-290.35 -28.19,-287.68C-24.94,-285.01 -23.11,-281.58 -22.70,-277.40C-22.29,-273.21 -23.41,-269.49 -26.08,-266.24C-28.75,-262.99 -32.18,-261.16 -36.36,-260.75C-40.55,-260.34 -44.27,-261.47 -47.52,-264.14C-50.77,-266.81 -52.60,-270.23 -53.01,-274.42ZM-71.58,-147.55L-33.90,-151.25L-41.40,-227.47L-75.17,-224.15L-76.71,-239.73L-26.04,-244.72L-17.01,-152.91L18.06,-156.36L19.59,-140.77L-70.04,-131.96ZM76.75,-146.39L59.87,-144.73L49.31,-252.12L66.19,-253.79L67.98,-235.60L70.58,-235.85C75.83,-250.65 86.68,-258.86 103.14,-260.48C115.55,-261.70 125.82,-258.81 133.94,-251.81C142.06,-244.81 146.88,-233.59 148.40,-218.15L154.70,-154.06L137.81,-152.40L131.85,-213.02C130.74,-224.28 127.39,-232.48 121.78,-237.61C116.18,-242.74 109.04,-244.88 100.38,-244.03C90.13,-243.02 82.43,-238.73 77.27,-231.16C72.12,-223.58 70.11,-213.95 71.26,-202.25Z" fill="#ffffff" stroke="#000000"/>
    <path d="M-234.28,-253.01L-142.68,-266.57L-140.22,-249.96L-213.92,-239.04L-206.60,-189.62L-134.18,-200.35L-131.72,-183.73L-204.14,-173.01L-194.30,-106.55L-212.19,-103.90ZM-71.04,-264.99C-71.65,-269.11 -70.72,-272.84 -68.24,-276.18C-65.76,-279.52 -62.46,-281.50 -58.34,-282.11C-54.22,-282.72 -50.49,-281.78 -47.15,-279.30C-43.81,-276.82 -41.83,-273.53 -41.22,-269.41C-40.61,-265.29 -41.54,-261.56 -44.02,-258.22C-46.51,-254.87 -49.80,-252.90 -53.92,-252.29C-58.04,-251.68 -61.77,-252.61 -65.11,-255.09C-68.46,-257.57 -70.43,-260.87 -71.04,-264.99ZM-83.25,-138.67L-46.18,-144.15L-57.29,-219.14L-90.52,-214.22L-92.79,-229.55L-42.94,-236.93L-29.57,-146.61L4.94,-151.73L7.21,-136.39L-80.98,-123.33ZM63.45,-144.72L46.83,-142.26L31.19,-247.91L47.80,-250.37L50.45,-232.48L53.01,-232.86C57.48,-247.74 67.81,-256.38 84.00,-258.78C96.21,-260.59 106.50,-258.23 114.87,-251.71C123.24,-245.18 128.55,-234.32 130.80,-219.13L140.14,-156.07L123.52,-153.61L114.69,-213.26C113.05,-224.33 109.33,-232.27 103.54,-237.08C97.75,-241.88 90.60,-243.65 82.08,-242.39C71.99,-240.89 64.59,-236.28 59.85,-228.54C55.12,-220.80 53.61,-211.18 55.31,-199.67Z" fill="#ffffff" stroke="#000000"/>
    <path d="M-248.94,-234.79L-159.05,-252.64L-155.81,-236.34L-228.14,-221.98L-218.51,-173.48L-147.44,-187.59L-144.20,-171.29L-215.27,-157.17L-202.32,-91.95L-219.88,-88.47ZM-88.16,-254.55C-88.96,-258.59 -88.22,-262.33 -85.93,-265.75C-83.64,-269.18 -80.48,-271.29 -76.43,-272.09C-72.39,-272.89 -68.66,-272.15 -65.24,-269.86C-61.81,-267.57 -59.70,-264.41 -58.90,-260.36C-58.09,-256.32 -58.84,-252.59 -61.13,-249.17C-63.42,-245.74 -66.58,-243.63 -70.62,-242.83C-74.66,-242.02 -78.40,-242.77 -81.82,-245.06C-85.25,-247.35 -87.36,-250.51 -88.16,-254.55ZM-94.10,-129.09L-57.73,-136.31L-72.34,-209.89L-104.95,-203.42L-107.94,-218.47L-59.02,-228.18L-41.42,-139.55L-7.56,-146.27L-4.57,-131.22L-91.11,-114.04ZM50.62,-142.18L34.31,-138.94L13.72,-242.63L30.03,-245.86L33.51,-228.31L36.02,-228.80C39.72,-243.73 49.51,-252.78 65.40,-255.93C77.39,-258.31 87.67,-256.48 96.26,-250.43C104.85,-244.39 110.62,-233.91 113.58,-219.00L125.87,-157.13L109.56,-153.89L97.94,-212.42C95.78,-223.29 91.73,-230.96 85.77,-235.42C79.81,-239.89 72.65,-241.29 64.29,-239.63C54.40,-237.67 47.30,-232.74 43.00,-224.87C38.69,-216.99 37.66,-207.40 39.91,-196.11Z" fill="#ffffff" stroke="#000000"/>
    <path d="M-262.27,-215.85L-174.29,-237.85L-170.30,-221.90L-241.09,-204.19L-229.22,-156.73L-159.66,-174.12L-155.67,-158.16L-225.23,-140.77L-209.27,-76.93L-226.46,-72.63ZM-104.32,-243.18C-105.31,-247.13 -104.75,-250.86 -102.65,-254.35C-100.56,-257.85 -97.53,-260.09 -93.58,-261.08C-89.62,-262.07 -85.89,-261.52 -82.40,-259.42C-78.90,-257.32 -76.66,-254.30 -75.67,-250.34C-74.68,-246.38 -75.24,-242.66 -77.33,-239.16C-79.43,-235.67 -82.46,-233.43 -86.41,-232.44C-90.37,-231.45 -94.09,-232.00 -97.59,-234.10C-101.08,-236.20 -103.33,-239.22 -104.32,-243.18ZM-104.10,-118.88L-68.50,-127.78L-86.51,-199.80L-118.43,-191.82L-122.11,-206.55L-74.24,-218.52L-52.55,-131.77L-19.40,-140.06L-15.72,-125.33L-100.42,-104.15ZM38.30,-138.84L22.34,-134.85L-3.04,-236.33L12.92,-240.32L17.22,-223.13L19.67,-223.75C22.61,-238.68 31.85,-248.10 47.40,-251.98C59.13,-254.92 69.38,-253.60 78.16,-248.05C86.95,-242.49 93.16,-232.41 96.81,-217.82L111.95,-157.26L95.99,-153.27L81.67,-210.55C79.01,-221.19 74.63,-228.58 68.52,-232.70C62.42,-236.83 55.27,-237.87 47.09,-235.82C37.41,-233.40 30.63,-228.19 26.76,-220.19C22.89,-212.20 22.34,-202.67 25.10,-191.62Z" fill="#ffffff" stroke="#000000"/>
    <path d="M-274.24,-196.28L-188.36,-222.29L-183.64,-206.71L-252.75,-185.78L-238.71,-139.45L-170.81,-160.01L-166.09,-144.43L-234.00,-123.87L-215.13,-61.55L-231.90,-56.47ZM-119.46,-230.94C-120.63,-234.80 -120.26,-238.51 -118.36,-242.07C-116.46,-245.62 -113.58,-247.98 -109.71,-249.15C-105.85,-250.32 -102.14,-249.96 -98.59,-248.05C-95.03,-246.15 -92.67,-243.27 -91.50,-239.41C-90.33,-235.54 -90.70,-231.84 -92.60,-228.28C-94.50,-224.72 -97.39,-222.36 -101.25,-221.19C-105.11,-220.02 -108.82,-220.39 -112.37,-222.29C-115.93,-224.20 -118.29,-227.08 -119.46,-230.94ZM-113.23,-108.11L-78.48,-118.63L-99.77,-188.94L-130.92,-179.50L-135.28,-193.88L-88.54,-208.03L-62.90,-123.35L-30.54,-133.15L-26.19,-118.77L-108.87,-93.73ZM26.54,-134.73L10.96,-130.02L-19.04,-229.08L-3.46,-233.80L1.62,-217.02L4.02,-217.75C6.19,-232.65 14.87,-242.40 30.05,-247.00C41.50,-250.46 51.70,-249.66 60.64,-244.60C69.59,-239.53 76.22,-229.87 80.54,-215.62L98.44,-156.51L82.86,-151.79L65.93,-207.71C62.78,-218.10 58.09,-225.18 51.86,-228.96C45.63,-232.74 38.52,-233.43 30.53,-231.01C21.07,-228.14 14.63,-222.67 11.19,-214.58C7.75,-206.49 7.67,-197.05 10.94,-186.26Z" fill="#ffffff" stroke="#000000"/>
    <path d="M-284.83,-176.16L-201.22,-206.02L-195.80,-190.86L-263.08,-166.83L-246.97,-121.72L-180.86,-145.33L-175.44,-130.17L-241.55,-106.56L-219.88,-45.90L-236.21,-40.06ZM-133.56,-217.91C-134.90,-221.67 -134.72,-225.36 -133.01,-228.96C-131.30,-232.57 -128.57,-235.04 -124.81,-236.39C-121.05,-237.73 -117.37,-237.54 -113.76,-235.84C-110.15,-234.13 -107.68,-231.40 -106.34,-227.64C-105.00,-223.88 -105.18,-220.19 -106.89,-216.59C-108.59,-212.98 -111.33,-210.51 -115.09,-209.16C-118.85,-207.82 -122.53,-208.01 -126.13,-209.71C-129.74,-211.42 -132.22,-214.15 -133.56,-217.91ZM-121.45,-96.84L-87.61,-108.92L-112.06,-177.36L-142.39,-166.53L-147.39,-180.53L-101.89,-196.78L-72.45,-114.34L-40.95,-125.59L-35.95,-111.59L-116.45,-82.84ZM15.38,-129.92L0.21,-124.51L-34.23,-220.94L-19.07,-226.36L-13.23,-210.03L-10.90,-210.86C-9.47,-225.69 -1.37,-235.75 13.40,-241.03C24.55,-245.01 34.67,-244.71 43.76,-240.14C52.84,-235.56 59.86,-226.34 64.82,-212.47L85.37,-154.92L70.21,-149.51L50.76,-203.95C47.15,-214.06 42.18,-220.83 35.83,-224.26C29.49,-227.70 22.43,-228.03 14.65,-225.25C5.45,-221.96 -0.65,-216.24 -3.66,-208.08C-6.66,-199.92 -6.29,-190.58 -2.54,-180.09Z" fill="#ffffff" stroke="#000000"/>
    <path d="M-294.01,-155.60L-212.85,-189.15L-206.76,-174.43L-272.07,-147.43L-253.96,-103.64L-189.79,-130.17L-183.70,-115.45L-247.88,-88.92L-223.53,-30.03L-239.38,-23.48ZM-146.57,-204.18C-148.08,-207.83 -148.08,-211.48 -146.56,-215.12C-145.05,-218.77 -142.47,-221.35 -138.82,-222.85C-135.17,-224.36 -131.52,-224.36 -127.88,-222.85C-124.23,-221.34 -121.65,-218.75 -120.15,-215.11C-118.64,-211.46 -118.64,-207.81 -120.15,-204.16C-121.67,-200.52 -124.25,-197.94 -127.90,-196.43C-131.54,-194.92 -135.19,-194.92 -138.84,-196.44C-142.48,-197.95 -145.06,-200.53 -146.57,-204.18ZM-128.73,-85.14L-95.89,-98.72L-123.36,-165.15L-152.81,-152.98L-158.42,-166.57L-114.26,-184.83L-81.17,-104.80L-50.59,-117.44L-44.98,-103.86L-123.12,-71.55ZM4.85,-124.46L-9.87,-118.37L-48.58,-211.99L-33.85,-218.07L-27.30,-202.22L-25.03,-203.16C-24.34,-217.88 -16.83,-228.21 -2.48,-234.14C8.34,-238.61 18.35,-238.81 27.55,-234.73C36.75,-230.65 44.13,-221.88 49.70,-208.42L72.80,-152.55L58.08,-146.46L36.23,-199.31C32.17,-209.13 26.92,-215.58 20.49,-218.66C14.06,-221.75 7.07,-221.73 -0.48,-218.61C-9.42,-214.92 -15.17,-208.97 -17.74,-200.76C-20.32,-192.55 -19.50,-183.34 -15.28,-173.15Z" fill="#ffffff" stroke="#000000"/>
    <path d="M-301.77,-134.68L-223.22,-171.76L-216.49,-157.51L-279.70,-127.67L-259.69,-85.29L-197.58,-114.61L-190.85,-100.36L-252.97,-71.04L-226.06,-14.04L-241.41,-6.80ZM-158.47,-189.82C-160.14,-193.35 -160.31,-196.95 -158.99,-200.63C-157.67,-204.30 -155.25,-206.97 -151.72,-208.64C-148.19,-210.31 -144.58,-210.48 -140.91,-209.17C-137.23,-207.85 -134.56,-205.42 -132.89,-201.89C-131.22,-198.36 -131.05,-194.75 -132.37,-191.08C-133.69,-187.40 -136.11,-184.73 -139.64,-183.07C-143.18,-181.40 -146.78,-181.22 -150.45,-182.54C-154.13,-183.86 -156.80,-186.28 -158.47,-189.82ZM-135.08,-73.07L-103.29,-88.08L-133.65,-152.39L-162.15,-138.93L-168.36,-152.09L-125.61,-172.27L-89.04,-94.81L-59.45,-108.78L-53.24,-95.62L-128.87,-59.92ZM-5.01,-118.39L-19.26,-111.66L-62.03,-202.28L-47.78,-209.00L-40.54,-193.66L-38.35,-194.69C-38.38,-209.27 -31.45,-219.84 -17.57,-226.40C-7.10,-231.34 2.78,-232.02 12.07,-228.44C21.36,-224.85 29.08,-216.55 35.23,-203.51L60.76,-149.44L46.51,-142.71L22.36,-193.86C17.88,-203.36 12.38,-209.48 5.88,-212.22C-0.63,-214.96 -7.53,-214.60 -14.84,-211.15C-23.49,-207.07 -28.88,-200.91 -31.03,-192.68C-33.17,-184.44 -31.92,-175.39 -27.26,-165.52Z" fill="#ffffff" stroke="#000000"/>
    <path d="M-308.12,-113.49L-232.32,-153.93L-224.98,-140.18L-285.98,-107.64L-264.16,-66.74L-204.22,-98.72L-196.89,-84.97L-256.82,-52.99L-227.48,2.01L-242.29,9.91ZM-169.23,-174.90C-171.05,-178.31 -171.39,-181.86 -170.27,-185.56C-169.15,-189.25 -166.88,-192.01 -163.47,-193.83C-160.06,-195.64 -156.51,-195.99 -152.82,-194.87C-149.12,-193.74 -146.37,-191.48 -144.55,-188.07C-142.73,-184.66 -142.38,-181.11 -143.51,-177.42C-144.63,-173.72 -146.90,-170.97 -150.31,-169.15C-153.71,-167.33 -157.27,-166.98 -160.96,-168.11C-164.65,-169.23 -167.41,-171.50 -169.23,-174.90ZM-140.47,-60.72L-109.80,-77.08L-142.90,-139.13L-170.40,-124.46L-177.17,-137.15L-135.92,-159.16L-96.05,-84.41L-67.49,-99.65L-60.72,-86.96L-133.70,-48.02ZM-14.18,-111.78L-27.93,-104.45L-74.57,-191.89L-60.82,-199.22L-52.92,-184.41L-50.81,-185.54C-51.55,-199.94 -45.22,-210.72 -31.82,-217.86C-21.71,-223.26 -11.98,-224.41 -2.64,-221.32C6.71,-218.23 14.74,-210.39 21.45,-197.82L49.29,-145.64L35.53,-138.30L9.20,-187.66C4.31,-196.83 -1.41,-202.61 -7.97,-205.00C-14.53,-207.39 -21.33,-206.70 -28.38,-202.94C-36.73,-198.49 -41.76,-192.14 -43.48,-183.90C-45.20,-175.66 -43.52,-166.78 -38.44,-157.26Z" fill="#ffffff" stroke="#000000"/>
    <path d="M-895.10,473.08C-895.10,472.21 -895.27,471.45 -895.61,470.80C-895.96,470.14 -896.42,469.59 -897.00,469.16C-897.58,468.73 -898.26,468.40 -899.02,468.17C-899.78,467.95 -900.57,467.83 -901.41,467.83C-902.14,467.83 -902.84,467.93 -903.50,468.12C-904.16,468.31 -904.75,468.58 -905.27,468.93C-905.79,469.29 -906.20,469.73 -906.50,470.24C-906.81,470.76 -906.96,471.37 -906.96,472.05L-906.96,472.28C-906.96,473.01 -906.81,473.64 -906.50,474.16C-906.20,474.68 -905.75,475.12 -905.15,475.49C-904.56,475.86 -903.82,476.16 -902.93,476.40C-902.04,476.64 -901.00,476.85 -899.81,477.03C-897.03,477.46 -894.98,478.28 -893.66,479.48C-892.34,480.68 -891.68,482.30 -891.68,484.32L-891.68,484.78C-891.68,485.92 -891.88,486.96 -892.27,487.92C-892.66,488.87 -893.25,489.68 -894.02,490.37C-894.79,491.05 -895.75,491.58 -896.89,491.96C-898.03,492.34 -899.35,492.53 -900.84,492.53C-902.54,492.53 -904.04,492.29 -905.34,491.79C-906.65,491.30 -907.74,490.61 -908.61,489.74C-909.49,488.87 -910.15,487.84 -910.61,486.66C-911.06,485.48 -911.29,484.20 -911.29,482.80L-911.29,481.66L-908.10,481.66L-908.10,482.58C-908.10,484.91 -907.46,486.65 -906.18,487.82C-904.90,488.99 -903.12,489.57 -900.84,489.57C-898.86,489.57 -897.38,489.13 -896.38,488.26C-895.37,487.38 -894.87,486.22 -894.87,484.78L-894.87,484.55C-894.87,483.16 -895.39,482.09 -896.41,481.36C-897.44,480.63 -899.10,480.09 -901.41,479.76C-902.75,479.59 -903.96,479.31 -905.04,478.95C-906.12,478.58 -907.03,478.10 -907.79,477.50C-908.55,476.91 -909.14,476.19 -909.54,475.36C-909.95,474.52 -910.15,473.53 -910.15,472.39L-910.15,471.94C-910.15,470.90 -909.93,469.95 -909.50,469.09C-909.07,468.22 -908.47,467.48 -907.70,466.84C-906.93,466.21 -906.00,465.72 -904.92,465.38C-903.85,465.04 -902.66,464.87 -901.37,464.87C-899.88,464.87 -898.54,465.08 -897.36,465.51C-896.18,465.94 -895.19,466.52 -894.38,467.24C-893.57,467.96 -892.95,468.81 -892.54,469.79C-892.12,470.76 -891.91,471.78 -891.91,472.85L-891.91,474.44L-895.10,474.44ZM-884.16,499.60L-887.12,499.60L-887.12,473.15L-884.16,473.15L-884.16,476.12L-883.70,476.12C-883.04,474.98 -882.13,474.11 -880.97,473.51C-879.80,472.92 -878.53,472.62 -877.17,472.62C-876.00,472.62 -874.90,472.84 -873.86,473.27C-872.82,473.70 -871.90,474.32 -871.10,475.13C-870.31,475.94 -869.67,476.94 -869.21,478.13C-868.74,479.32 -868.50,480.68 -868.50,482.20L-868.50,482.96C-868.50,484.50 -868.73,485.87 -869.19,487.06C-869.64,488.25 -870.27,489.25 -871.07,490.06C-871.86,490.87 -872.80,491.49 -873.86,491.90C-874.92,492.32 -876.05,492.53 -877.24,492.53C-877.85,492.53 -878.47,492.46 -879.10,492.32C-879.74,492.18 -880.34,491.97 -880.91,491.68C-881.48,491.39 -882.00,491.03 -882.49,490.61C-882.97,490.19 -883.37,489.69 -883.70,489.11L-884.16,489.11ZM-877.85,489.72C-876.94,489.72 -876.10,489.56 -875.34,489.24C-874.58,488.93 -873.92,488.48 -873.35,487.90C-872.78,487.31 -872.33,486.60 -872.02,485.77C-871.70,484.93 -871.54,483.99 -871.54,482.96L-871.54,482.20C-871.54,481.18 -871.70,480.26 -872.02,479.44C-872.33,478.62 -872.78,477.91 -873.35,477.31C-873.92,476.72 -874.59,476.26 -875.36,475.93C-876.13,475.60 -876.96,475.43 -877.85,475.43C-878.74,475.43 -879.56,475.60 -880.32,475.95C-881.08,476.29 -881.75,476.76 -882.32,477.37C-882.88,477.98 -883.33,478.71 -883.66,479.55C-883.99,480.40 -884.16,481.33 -884.16,482.35L-884.16,482.80C-884.16,483.84 -883.99,484.79 -883.66,485.64C-883.33,486.48 -882.88,487.21 -882.32,487.82C-881.75,488.43 -881.08,488.90 -880.32,489.23C-879.56,489.56 -878.74,489.72 -877.85,489.72ZM-849.50,488.81L-849.96,488.81C-850.57,490.07 -851.41,491.01 -852.48,491.62C-853.56,492.23 -854.70,492.53 -855.89,492.53C-857.13,492.53 -858.28,492.32 -859.34,491.90C-860.41,491.49 -861.34,490.87 -862.14,490.04C-862.93,489.22 -863.56,488.21 -864.02,487.02C-864.47,485.83 -864.70,484.45 -864.70,482.88L-864.70,482.27C-864.70,480.73 -864.47,479.36 -864.02,478.17C-863.56,476.98 -862.93,475.97 -862.14,475.15C-861.34,474.32 -860.41,473.70 -859.34,473.27C-858.28,472.84 -857.15,472.62 -855.96,472.62C-854.67,472.62 -853.50,472.90 -852.45,473.48C-851.40,474.04 -850.57,474.93 -849.96,476.12L-849.50,476.12L-849.50,473.15L-846.54,473.15L-846.54,488.12C-846.54,488.88 -846.20,489.26 -845.51,489.26L-844.56,489.26L-844.56,492L-846.58,492C-847.44,492 -848.14,491.72 -848.68,491.16C-849.23,490.61 -849.50,489.90 -849.50,489.04ZM-855.58,489.72C-854.70,489.72 -853.88,489.56 -853.13,489.23C-852.38,488.90 -851.74,488.43 -851.21,487.82C-850.68,487.21 -850.26,486.48 -849.96,485.64C-849.65,484.79 -849.50,483.84 -849.50,482.80L-849.50,482.35C-849.50,481.33 -849.65,480.40 -849.96,479.55C-850.26,478.71 -850.69,477.98 -851.23,477.37C-851.78,476.76 -852.42,476.29 -853.17,475.95C-853.92,475.60 -854.72,475.43 -855.58,475.43C-856.47,475.43 -857.28,475.60 -858.01,475.93C-858.75,476.26 -859.39,476.72 -859.93,477.31C-860.48,477.91 -860.90,478.63 -861.21,479.48C-861.51,480.33 -861.66,481.26 -861.66,482.27L-861.66,482.88C-861.66,485.03 -861.10,486.71 -859.97,487.92C-858.84,489.12 -857.38,489.72 -855.58,489.72ZM-822.29,485.31C-822.50,486.35 -822.85,487.31 -823.34,488.20C-823.83,489.09 -824.46,489.85 -825.22,490.50C-825.98,491.14 -826.87,491.65 -827.88,492C-828.89,492.35 -830.02,492.53 -831.26,492.53C-832.58,492.53 -833.83,492.32 -835.01,491.89C-836.18,491.46 -837.22,490.83 -838.10,490.01C-838.99,489.18 -839.69,488.17 -840.21,486.98C-840.73,485.79 -840.99,484.43 -840.99,482.88L-840.99,482.42C-840.99,480.90 -840.73,479.54 -840.21,478.32C-839.69,477.10 -838.99,476.08 -838.10,475.24C-837.22,474.41 -836.18,473.76 -835.01,473.30C-833.83,472.85 -832.58,472.62 -831.26,472.62C-830.07,472.62 -828.97,472.80 -827.96,473.15C-826.94,473.51 -826.05,474.01 -825.28,474.65C-824.50,475.30 -823.87,476.07 -823.38,476.95C-822.88,477.84 -822.55,478.80 -822.37,479.84L-825.33,480.52C-825.41,479.87 -825.59,479.23 -825.89,478.61C-826.18,477.98 -826.57,477.44 -827.06,476.97C-827.56,476.50 -828.16,476.13 -828.87,475.85C-829.58,475.57 -830.40,475.43 -831.34,475.43C-832.25,475.43 -833.11,475.60 -833.90,475.95C-834.70,476.29 -835.40,476.77 -836.01,477.39C-836.62,478.01 -837.10,478.75 -837.44,479.61C-837.78,480.47 -837.95,481.41 -837.95,482.42L-837.95,482.88C-837.95,483.94 -837.78,484.90 -837.44,485.75C-837.10,486.60 -836.62,487.31 -836.01,487.90C-835.40,488.48 -834.69,488.93 -833.88,489.24C-833.07,489.56 -832.20,489.72 -831.26,489.72C-830.32,489.72 -829.51,489.57 -828.81,489.28C-828.11,488.99 -827.52,488.61 -827.03,488.14C-826.53,487.67 -826.14,487.14 -825.85,486.53C-825.56,485.92 -825.36,485.29 -825.26,484.63ZM-814.50,483.49C-814.43,485.36 -813.85,486.87 -812.76,488.01C-811.67,489.15 -810.15,489.72 -808.20,489.72C-807.31,489.72 -806.54,489.62 -805.88,489.42C-805.22,489.21 -804.66,488.93 -804.19,488.58C-803.72,488.23 -803.34,487.81 -803.05,487.35C-802.76,486.88 -802.52,486.38 -802.34,485.84L-799.53,486.60C-800.06,488.35 -801.05,489.78 -802.48,490.88C-803.91,491.98 -805.84,492.53 -808.27,492.53C-809.61,492.53 -810.85,492.30 -811.98,491.83C-813.10,491.36 -814.07,490.70 -814.88,489.83C-815.69,488.97 -816.33,487.95 -816.78,486.76C-817.24,485.57 -817.47,484.25 -817.47,482.80L-817.47,481.89C-817.47,480.57 -817.23,479.35 -816.77,478.21C-816.30,477.07 -815.64,476.08 -814.81,475.26C-813.97,474.44 -812.99,473.79 -811.86,473.32C-810.74,472.85 -809.51,472.62 -808.20,472.62C-806.65,472.62 -805.31,472.90 -804.19,473.48C-803.06,474.04 -802.13,474.75 -801.41,475.58C-800.69,476.42 -800.16,477.33 -799.82,478.32C-799.48,479.31 -799.30,480.22 -799.30,481.06L-799.30,483.49ZM-808.20,475.43C-809.03,475.43 -809.81,475.57 -810.53,475.83C-811.25,476.10 -811.89,476.47 -812.43,476.95C-812.98,477.43 -813.42,478.00 -813.76,478.64C-814.11,479.29 -814.33,479.99 -814.43,480.75L-802.27,480.75C-802.32,479.94 -802.51,479.21 -802.86,478.55C-803.20,477.89 -803.64,477.33 -804.19,476.88C-804.73,476.42 -805.35,476.07 -806.05,475.81C-806.75,475.56 -807.46,475.43 -808.20,475.43ZM-794.97,465.40L-788.89,465.40L-785.32,490.63L-784.86,490.63L-781.29,465.40L-775.21,465.40L-775.21,492L-778.18,492L-778.18,466.77L-778.63,466.77L-782.20,492L-787.98,492L-791.55,466.77L-792.01,466.77L-792.01,492L-794.97,492ZM-752.37,482.80C-752.37,484.37 -752.63,485.76 -753.15,486.96C-753.67,488.17 -754.36,489.18 -755.22,490.01C-756.09,490.83 -757.09,491.46 -758.24,491.89C-759.40,492.32 -760.59,492.53 -761.84,492.53C-763.10,492.53 -764.31,492.32 -765.45,491.89C-766.59,491.46 -767.59,490.83 -768.45,490.01C-769.31,489.18 -770.00,488.17 -770.52,486.96C-771.04,485.76 -771.30,484.37 -771.30,482.80L-771.30,482.35C-771.30,480.80 -771.04,479.43 -770.52,478.23C-770.00,477.02 -769.30,476.00 -768.43,475.17C-767.56,474.33 -766.55,473.70 -765.41,473.27C-764.27,472.84 -763.08,472.62 -761.84,472.62C-760.59,472.62 -759.40,472.84 -758.26,473.27C-757.12,473.70 -756.12,474.33 -755.24,475.17C-754.37,476.00 -753.67,477.02 -753.15,478.23C-752.63,479.43 -752.37,480.80 -752.37,482.35ZM-761.84,489.72C-760.92,489.72 -760.08,489.56 -759.31,489.24C-758.54,488.93 -757.86,488.47 -757.28,487.86C-756.69,487.25 -756.24,486.52 -755.91,485.67C-755.58,484.82 -755.41,483.87 -755.41,482.80L-755.41,482.35C-755.41,481.33 -755.58,480.40 -755.91,479.55C-756.24,478.71 -756.69,477.98 -757.28,477.37C-757.86,476.76 -758.54,476.29 -759.33,475.95C-760.11,475.60 -760.95,475.43 -761.84,475.43C-762.72,475.43 -763.56,475.60 -764.34,475.95C-765.13,476.29 -765.81,476.76 -766.40,477.37C-766.98,477.98 -767.43,478.71 -767.76,479.55C-768.09,480.40 -768.26,481.33 -768.26,482.35L-768.26,482.80C-768.26,483.87 -768.09,484.82 -767.76,485.67C-767.43,486.52 -766.98,487.25 -766.40,487.86C-765.81,488.47 -765.14,488.93 -764.36,489.24C-763.59,489.56 -762.75,489.72 -761.84,489.72ZM-743.94,492L-746.90,492L-746.90,473.15L-743.94,473.15L-743.94,476.34L-743.48,476.34C-742.32,473.86 -740.29,472.62 -737.40,472.62C-735.22,472.62 -733.49,473.30 -732.20,474.65C-730.90,476.01 -730.26,478.04 -730.26,480.75L-730.26,492L-733.22,492L-733.22,481.36C-733.22,479.38 -733.67,477.90 -734.55,476.91C-735.44,475.93 -736.64,475.43 -738.16,475.43C-739.96,475.43 -741.37,476.05 -742.40,477.27C-743.42,478.50 -743.94,480.14 -743.94,482.20ZM-705.86,482.80C-705.86,484.37 -706.12,485.76 -706.64,486.96C-707.16,488.17 -707.85,489.18 -708.71,490.01C-709.57,490.83 -710.58,491.46 -711.73,491.89C-712.89,492.32 -714.08,492.53 -715.32,492.53C-716.59,492.53 -717.79,492.32 -718.93,491.89C-720.07,491.46 -721.07,490.83 -721.94,490.01C-722.80,489.18 -723.49,488.17 -724.01,486.96C-724.53,485.76 -724.79,484.37 -724.79,482.80L-724.79,482.35C-724.79,480.80 -724.53,479.43 -724.01,478.23C-723.49,477.02 -722.79,476.00 -721.92,475.17C-721.04,474.33 -720.04,473.70 -718.90,473.27C-717.76,472.84 -716.57,472.62 -715.32,472.62C-714.08,472.62 -712.89,472.84 -711.75,473.27C-710.61,473.70 -709.61,474.33 -708.73,475.17C-707.86,476.00 -707.16,477.02 -706.64,478.23C-706.12,479.43 -705.86,480.80 -705.86,482.35ZM-715.32,489.72C-714.41,489.72 -713.57,489.56 -712.80,489.24C-712.02,488.93 -711.35,488.47 -710.76,487.86C-710.18,487.25 -709.73,486.52 -709.40,485.67C-709.07,484.82 -708.90,483.87 -708.90,482.80L-708.90,482.35C-708.90,481.33 -709.07,480.40 -709.40,479.55C-709.73,478.71 -710.18,477.98 -710.76,477.37C-711.35,476.76 -712.03,476.29 -712.82,475.95C-713.60,475.60 -714.44,475.43 -715.32,475.43C-716.21,475.43 -717.05,475.60 -717.83,475.95C-718.62,476.29 -719.30,476.76 -719.88,477.37C-720.47,477.98 -720.92,478.71 -721.25,479.55C-721.58,480.40 -721.75,481.33 -721.75,482.35L-721.75,482.80C-721.75,483.87 -721.58,484.82 -721.25,485.67C-720.92,486.52 -720.47,487.25 -719.88,487.86C-719.30,488.47 -718.62,488.93 -717.85,489.24C-717.08,489.56 -716.24,489.72 -715.32,489.72ZM-697.77,480.75L-686.37,480.75L-686.37,483.49L-697.77,483.49ZM-660.49,492L-663.68,492L-663.68,483.11C-663.68,482.45 -663.83,481.94 -664.14,481.59C-664.44,481.23 -664.97,481.06 -665.73,481.06L-674.02,481.06L-674.02,492L-677.21,492L-677.21,465.40L-667.71,465.40C-666.34,465.40 -665.15,465.60 -664.14,465.99C-663.12,466.38 -662.28,466.91 -661.61,467.57C-660.94,468.22 -660.43,468.99 -660.09,469.86C-659.75,470.74 -659.58,471.66 -659.58,472.62L-659.58,473.76C-659.58,474.75 -659.85,475.74 -660.40,476.72C-660.94,477.71 -661.78,478.47 -662.92,479.00L-662.92,479.46C-662.16,479.59 -661.57,479.89 -661.14,480.37C-660.71,480.85 -660.49,481.54 -660.49,482.42ZM-674.02,478.09L-668.09,478.09C-666.29,478.09 -664.96,477.71 -664.08,476.93C-663.21,476.16 -662.77,475.03 -662.77,473.53L-662.77,472.85C-662.77,471.51 -663.21,470.42 -664.08,469.60C-664.96,468.78 -666.29,468.36 -668.09,468.36L-674.02,468.36ZM-651.71,483.49C-651.64,485.36 -651.05,486.87 -649.96,488.01C-648.87,489.15 -647.35,489.72 -645.40,489.72C-644.52,489.72 -643.74,489.62 -643.09,489.42C-642.43,489.21 -641.86,488.93 -641.40,488.58C-640.93,488.23 -640.55,487.81 -640.26,487.35C-639.96,486.88 -639.73,486.38 -639.55,485.84L-636.74,486.60C-637.27,488.35 -638.25,489.78 -639.69,490.88C-641.12,491.98 -643.05,492.53 -645.48,492.53C-646.82,492.53 -648.06,492.30 -649.19,491.83C-650.31,491.36 -651.28,490.70 -652.09,489.83C-652.90,488.97 -653.54,487.95 -653.99,486.76C-654.45,485.57 -654.68,484.25 -654.68,482.80L-654.68,481.89C-654.68,480.57 -654.44,479.35 -653.97,478.21C-653.50,477.07 -652.85,476.08 -652.02,475.26C-651.18,474.44 -650.20,473.79 -649.07,473.32C-647.94,472.85 -646.72,472.62 -645.40,472.62C-643.86,472.62 -642.52,472.90 -641.40,473.48C-640.27,474.04 -639.34,474.75 -638.62,475.58C-637.90,476.42 -637.37,477.33 -637.03,478.32C-636.68,479.31 -636.51,480.22 -636.51,481.06L-636.51,483.49ZM-645.40,475.43C-646.24,475.43 -647.02,475.57 -647.74,475.83C-648.46,476.10 -649.10,476.47 -649.64,476.95C-650.19,477.43 -650.63,478.00 -650.97,478.64C-651.31,479.29 -651.53,479.99 -651.64,480.75L-639.48,480.75C-639.53,479.94 -639.72,479.21 -640.07,478.55C-640.41,477.89 -640.85,477.33 -641.40,476.88C-641.94,476.42 -642.56,476.07 -643.26,475.81C-643.95,475.56 -644.67,475.43 -645.40,475.43ZM-616.30,489.11L-616.75,489.11C-617.36,490.25 -618.19,491.11 -619.24,491.68C-620.29,492.25 -621.44,492.53 -622.68,492.53C-623.95,492.53 -625.14,492.32 -626.25,491.89C-627.37,491.46 -628.35,490.83 -629.20,490.02C-630.05,489.21 -630.72,488.21 -631.21,487.00C-631.71,485.80 -631.95,484.43 -631.95,482.88L-631.95,482.27C-631.95,480.75 -631.70,479.39 -631.19,478.19C-630.69,476.98 -630.01,475.97 -629.18,475.15C-628.34,474.32 -627.37,473.70 -626.25,473.27C-625.14,472.84 -623.97,472.62 -622.76,472.62C-621.39,472.62 -620.19,472.92 -619.17,473.51C-618.14,474.11 -617.33,474.98 -616.75,476.12L-616.30,476.12L-616.30,473.15L-613.33,473.15L-613.33,496.64C-613.33,497.50 -613.60,498.21 -614.15,498.76C-614.69,499.32 -615.40,499.60 -616.26,499.60L-628.53,499.60L-628.53,496.86L-617.32,496.86C-616.64,496.86 -616.30,496.48 -616.30,495.72ZM-622.60,489.72C-621.72,489.72 -620.89,489.56 -620.13,489.23C-619.37,488.90 -618.71,488.43 -618.14,487.82C-617.57,487.21 -617.12,486.48 -616.79,485.64C-616.46,484.79 -616.30,483.84 -616.30,482.80L-616.30,482.35C-616.30,481.33 -616.46,480.40 -616.79,479.55C-617.12,478.71 -617.57,477.98 -618.14,477.37C-618.71,476.76 -619.38,476.29 -620.15,475.95C-620.93,475.60 -621.74,475.43 -622.60,475.43C-623.49,475.43 -624.32,475.60 -625.09,475.93C-625.87,476.26 -626.54,476.72 -627.11,477.33C-627.68,477.94 -628.12,478.66 -628.44,479.50C-628.75,480.33 -628.91,481.26 -628.91,482.27L-628.91,482.88C-628.91,483.94 -628.75,484.89 -628.44,485.73C-628.12,486.57 -627.68,487.28 -627.11,487.88C-626.54,488.47 -625.87,488.93 -625.11,489.24C-624.35,489.56 -623.52,489.72 -622.60,489.72ZM-593.91,473.15L-590.95,473.15L-590.95,492L-593.91,492L-593.91,488.58L-594.37,488.58C-594.98,489.80 -595.78,490.76 -596.76,491.47C-597.75,492.18 -599.01,492.53 -600.53,492.53C-601.56,492.53 -602.52,492.36 -603.40,492.02C-604.27,491.68 -605.02,491.16 -605.64,490.48C-606.26,489.80 -606.74,488.95 -607.08,487.93C-607.42,486.92 -607.59,485.74 -607.59,484.40L-607.59,473.15L-604.63,473.15L-604.63,484.02C-604.63,486.00 -604.22,487.44 -603.41,488.35C-602.60,489.26 -601.36,489.72 -599.69,489.72C-597.89,489.72 -596.48,489.11 -595.45,487.88C-594.43,486.65 -593.91,485.01 -593.91,482.96ZM-584.11,489.26L-577.27,489.26L-577.27,468.14L-583.88,468.14L-583.88,465.40L-574.31,465.40L-574.31,489.26L-567.47,489.26L-567.47,492L-584.11,492ZM-547.17,488.81L-547.63,488.81C-548.24,490.07 -549.08,491.01 -550.16,491.62C-551.23,492.23 -552.37,492.53 -553.56,492.53C-554.80,492.53 -555.95,492.32 -557.02,491.90C-558.08,491.49 -559.01,490.87 -559.81,490.04C-560.61,489.22 -561.23,488.21 -561.69,487.02C-562.15,485.83 -562.37,484.45 -562.37,482.88L-562.37,482.27C-562.37,480.73 -562.15,479.36 -561.69,478.17C-561.23,476.98 -560.61,475.97 -559.81,475.15C-559.01,474.32 -558.08,473.70 -557.02,473.27C-555.95,472.84 -554.82,472.62 -553.63,472.62C-552.34,472.62 -551.17,472.90 -550.12,473.48C-549.07,474.04 -548.24,474.93 -547.63,476.12L-547.17,476.12L-547.17,473.15L-544.21,473.15L-544.21,488.12C-544.21,488.88 -543.87,489.26 -543.18,489.26L-542.23,489.26L-542.23,492L-544.25,492C-545.11,492 -545.81,491.72 -546.36,491.16C-546.90,490.61 -547.17,489.90 -547.17,489.04ZM-553.25,489.72C-552.37,489.72 -551.55,489.56 -550.80,489.23C-550.06,488.90 -549.42,488.43 -548.88,487.82C-548.35,487.21 -547.93,486.48 -547.63,485.64C-547.33,484.79 -547.17,483.84 -547.17,482.80L-547.17,482.35C-547.17,481.33 -547.33,480.40 -547.63,479.55C-547.93,478.71 -548.36,477.98 -548.90,477.37C-549.45,476.76 -550.09,476.29 -550.84,475.95C-551.59,475.60 -552.39,475.43 -553.25,475.43C-554.14,475.43 -554.95,475.60 -555.69,475.93C-556.42,476.26 -557.06,476.72 -557.60,477.31C-558.15,477.91 -558.57,478.63 -558.88,479.48C-559.18,480.33 -559.33,481.26 -559.33,482.27L-559.33,482.88C-559.33,485.03 -558.77,486.71 -557.64,487.92C-556.52,489.12 -555.05,489.72 -553.25,489.72ZM-538.66,473.15L-531.82,473.15L-531.82,475.66L-531.37,475.66C-530.88,474.62 -530.20,473.85 -529.31,473.36C-528.43,472.87 -527.41,472.62 -526.27,472.62C-524.37,472.62 -522.84,473.24 -521.68,474.48C-520.51,475.72 -519.89,477.53 -519.81,479.92L-522.93,480.37C-522.93,478.62 -523.35,477.36 -524.18,476.59C-525.02,475.82 -526.05,475.43 -527.26,475.43C-528.05,475.43 -528.72,475.58 -529.29,475.89C-529.86,476.19 -530.34,476.61 -530.72,477.14C-531.10,477.67 -531.38,478.29 -531.56,479.00C-531.73,479.71 -531.82,480.47 -531.82,481.28L-531.82,489.26L-527.03,489.26L-527.03,492L-539.12,492L-539.12,489.26L-534.79,489.26L-534.79,475.89L-538.66,475.89Z"/>
</svg>