<?xml version="1.0"?>
<svg xmlns="http://www.w3.org/2000/svg" width="1920" height="1080" viewBox="-960 -540 1920 1080">
    <path d="M-563.88,-200.28L-563.88,-226.92L-546.12,-280.20L-501.72,-315.72L-483.96,-315.72L-466.20,-297.96L-466.20,-271.32L-448.44,-271.32L-430.68,-289.08L-439.56,-306.84L-483.96,-324.60L-510.60,-324.60L-546.12,-306.84L-572.76,-280.20L-590.52,-253.56L-599.40,-209.16L-581.64,-164.76L-546.12,-147L-510.60,-147L-492.84,-155.88L-475.08,-173.64L-457.32,-200.28L-439.56,-218.04L-492.84,-218.04L-483.96,-200.28L-492.84,-173.64L-501.72,-164.76L-519.48,-155.88L-528.36,-155.88L-555,-173.64ZM-439.56,-218.04L-430.68,-209.16L-386.28,-253.56L-377.40,-253.56L-430.68,-155.88L-421.80,-147L-404.04,-147L-368.52,-218.04L-341.88,-235.80L-315.24,-235.80L-306.36,-262.44L-324.12,-271.32L-341.88,-262.44L-368.52,-226.92L-377.40,-226.92L-359.64,-253.56L-359.64,-262.44L-368.52,-271.32L-395.16,-262.44ZM-182.04,-262.44L-190.92,-271.32L-208.68,-244.68L-217.56,-262.44L-253.08,-271.32L-297.48,-235.80L-315.24,-191.40L-306.36,-155.88L-288.60,-147L-270.84,-147L-244.20,-173.64L-244.20,-155.88L-235.32,-147L-208.68,-155.88L-164.28,-200.28L-173.16,-209.16L-217.56,-164.76L-226.44,-164.76ZM-270.84,-164.76L-279.72,-164.76L-288.60,-191.40L-270.84,-226.92L-244.20,-253.56L-226.44,-253.56L-217.56,-235.80L-217.56,-226.92L-244.20,-191.40ZM-146.52,-155.88L-146.52,-182.52L-155.40,-191.40L-173.16,-182.52L-173.16,-155.88L-155.40,-147L-137.64,-147L-111.00,-155.88L-93.24,-173.64L-93.24,-191.40L-102.12,-235.80L-102.12,-253.56L-84.36,-262.44L-84.36,-235.80L-75.48,-226.92L-57.72,-235.80L-57.72,-262.44L-84.36,-271.32L-119.88,-262.44L-128.76,-244.68L-128.76,-226.92L-119.88,-191.40L-119.88,-173.64L-137.64,-155.88ZM13.32,-271.32L-13.32,-262.44L-57.72,-218.04L-48.84,-209.16L-4.44,-253.56L4.44,-253.56L-75.48,-93.72L-93.24,-93.72L-93.24,-84.84L-13.32,-84.84L-13.32,-93.72L-48.84,-93.72L-13.32,-173.64L-4.44,-147L31.08,-147L75.48,-182.52L93.24,-226.92L84.36,-262.44L66.60,-271.32L39.96,-262.44L22.20,-244.68L22.20,-262.44ZM39.96,-244.68L57.72,-253.56L66.60,-226.92L48.84,-191.40L22.20,-164.76L4.44,-164.76L-4.44,-182.52L-4.44,-191.40L13.32,-218.04ZM199.80,-164.76L244.20,-253.56L270.84,-253.56L270.84,-262.44L244.20,-262.44L261.96,-297.96L244.20,-297.96L235.32,-271.32L217.56,-262.44L199.80,-262.44L199.80,-253.56L217.56,-253.56L173.16,-164.76L173.16,-155.88L182.04,-147L199.80,-147L217.56,-155.88L261.96,-200.28L253.08,-209.16L208.68,-164.76ZM333.00,-324.60L297.48,-235.80L253.08,-155.88L261.96,-147L279.72,-147L315.24,-218.04L341.88,-244.68L359.64,-253.56L368.52,-244.68L324.12,-164.76L324.12,-155.88L333.00,-147L350.76,-147L368.52,-155.88L412.92,-200.28L404.04,-209.16L359.64,-164.76L350.76,-164.76L395.16,-235.80L395.16,-262.44L368.52,-271.32L341.88,-262.44L324.12,-244.68L368.52,-333.48L306.36,-333.48L306.36,-324.60ZM537.24,-226.92L537.24,-244.68L528.36,-262.44L492.84,-271.32L448.44,-244.68L421.80,-191.40L430.68,-155.88L448.44,-147L466.20,-147L483.96,-155.88L519.48,-191.40L510.60,-200.28L475.08,-164.76L457.32,-164.76L448.44,-191.40L466.20,-226.92L492.84,-253.56L510.60,-253.56L510.60,-226.92L492.84,-218.04L466.20,-218.04L466.20,-209.16L510.60,-209.16ZM-510.60,23.50L-519.48,23.50L-546.12,67.90L-599.40,67.90L-608.28,59.02L-590.52,-3.14L-581.64,-12.02L-546.12,-12.02L-528.36,5.74L-528.36,-38.66L-546.12,-20.90L-581.64,-20.90L-581.64,-29.78L-563.88,-83.06L-555,-91.94L-510.60,-91.94L-483.96,-56.42L-475.08,-56.42L-483.96,-109.70L-519.48,-100.82L-608.28,-100.82L-590.52,-83.06L-634.92,59.02L-661.56,76.78L-537.24,76.78L-519.48,85.66ZM-421.80,-47.54L-448.44,-38.66L-492.84,5.74L-483.96,14.62L-439.56,-29.78L-430.68,-29.78L-510.60,130.06L-528.36,130.06L-528.36,138.94L-448.44,138.94L-448.44,130.06L-483.96,130.06L-448.44,50.14L-439.56,76.78L-404.04,76.78L-359.64,41.26L-341.88,-3.14L-350.76,-38.66L-368.52,-47.54L-395.16,-38.66L-412.92,-20.90L-412.92,-38.66ZM-395.16,-20.90L-377.40,-29.78L-368.52,-3.14L-386.28,32.38L-412.92,59.02L-430.68,59.02L-439.56,41.26L-439.56,32.38L-421.80,5.74ZM-270.84,-100.82L-306.36,-12.02L-350.76,67.90L-341.88,76.78L-324.12,76.78L-288.60,5.74L-261.96,-20.90L-244.20,-29.78L-235.32,-20.90L-279.72,59.02L-279.72,67.90L-270.84,76.78L-253.08,76.78L-235.32,67.90L-190.92,23.50L-199.80,14.62L-244.20,59.02L-253.08,59.02L-208.68,-12.02L-208.68,-38.66L-235.32,-47.54L-261.96,-38.66L-279.72,-20.90L-235.32,-109.70L-297.48,-109.70L-297.48,-100.82ZM-66.60,-3.14L-66.60,-20.90L-75.48,-38.66L-111,-47.54L-155.40,-20.90L-182.04,32.38L-173.16,67.90L-155.40,76.78L-137.64,76.78L-119.88,67.90L-84.36,32.38L-93.24,23.50L-128.76,59.02L-146.52,59.02L-155.40,32.38L-137.64,-3.14L-111,-29.78L-93.24,-29.78L-93.24,-3.14L-111,5.74L-137.64,5.74L-137.64,14.62L-93.24,14.62ZM75.48,-3.14L93.24,-20.90L111,-29.78L119.88,-20.90L75.48,59.02L75.48,67.90L84.36,76.78L102.12,76.78L119.88,67.90L164.28,23.50L155.40,14.62L111,59.02L102.12,59.02L146.52,-12.02L146.52,-38.66L119.88,-47.54L93.24,-38.66L75.48,-20.90L75.48,-38.66L57.72,-47.54L31.08,-38.66L4.44,-12.02L13.32,-29.78L13.32,-38.66L4.44,-47.54L-22.20,-38.66L-66.60,5.74L-57.72,14.62L-13.32,-29.78L-4.44,-29.78L-57.72,67.90L-48.84,76.78L-31.08,76.78L4.44,5.74L31.08,-20.90L48.84,-29.78L57.72,-20.90L13.32,67.90L22.20,76.78L39.96,76.78ZM288.60,-3.14L288.60,-20.90L279.72,-38.66L244.20,-47.54L199.80,-20.90L173.16,32.38L182.04,67.90L199.80,76.78L217.56,76.78L235.32,67.90L270.84,32.38L261.96,23.50L226.44,59.02L208.68,59.02L199.80,32.38L217.56,-3.14L244.20,-29.78L261.96,-29.78L261.96,-3.14L244.20,5.74L217.56,5.74L217.56,14.62L261.96,14.62ZM288.60,5.74L297.48,14.62L341.88,-29.78L350.76,-29.78L297.48,67.90L306.36,76.78L324.12,76.78L359.64,5.74L386.28,-12.02L412.92,-12.02L421.80,-38.66L404.04,-47.54L386.28,-38.66L359.64,-3.14L350.76,-3.14L368.52,-29.78L368.52,-38.66L359.64,-47.54L333.00,-38.66ZM546.12,-38.66L537.24,-47.54L519.48,-20.90L510.60,-38.66L475.08,-47.54L430.68,-12.02L412.92,32.38L421.80,67.90L439.56,76.78L457.32,76.78L483.96,50.14L483.96,67.90L492.84,76.78L519.48,67.90L563.88,23.50L555.00,14.62L510.60,59.02L501.72,59.02ZM457.32,59.02L448.44,59.02L439.56,32.38L457.32,-3.14L483.96,-29.78L501.72,-29.78L510.60,-12.02L510.60,-3.14L483.96,32.38ZM590.52,59.02L670.44,-109.70L608.28,-109.70L608.28,-100.82L634.92,-100.82L563.88,59.02L563.88,67.90L581.64,76.78L608.28,67.90L652.68,23.50L643.80,14.62L599.40,59.02Z" fill="#ffffff" stroke="#000000"/>
    <path d="M-561.40,-203.16L-561.03,-229.54L-542.71,-282.03L-498.27,-316.58L-480.69,-316.33L-463.36,-298.51L-463.72,-272.14L-446.14,-271.89L-428.32,-289.23L-436.86,-306.93L-480.57,-325.12L-506.94,-325.49L-542.35,-308.40L-569.09,-282.40L-587.03,-256.27L-596.44,-212.45L-579.47,-168.25L-544.56,-150.18L-509.39,-149.69L-491.69,-158.23L-473.86,-175.57L-455.92,-201.69L-438.09,-219.03L-490.83,-219.76L-482.29,-202.06L-491.45,-175.81L-500.36,-167.14L-518.06,-158.60L-526.85,-158.72L-552.98,-176.67ZM-438.09,-219.03L-429.42,-210.11L-384.86,-253.45L-376.07,-253.33L-430.16,-157.37L-421.49,-148.46L-403.91,-148.21L-367.77,-218.05L-341.15,-235.26L-314.78,-234.89L-305.62,-261.14L-323.08,-270.17L-340.78,-261.63L-367.64,-226.84L-376.43,-226.96L-358.49,-253.08L-358.36,-261.87L-367.03,-270.79L-393.52,-262.36ZM-182.56,-259.42L-191.22,-268.33L-209.17,-242.21L-217.72,-259.91L-252.76,-269.19L-297.20,-234.64L-315.39,-190.94L-307.09,-155.65L-289.64,-146.62L-272.05,-146.37L-245.32,-172.38L-245.56,-154.79L-236.89,-145.88L-210.40,-154.30L-165.83,-197.64L-174.50,-206.55L-219.07,-163.22L-227.86,-163.34ZM-271.81,-163.95L-280.60,-164.08L-289.02,-190.57L-270.95,-225.49L-244.21,-251.49L-226.63,-251.24L-218.09,-233.54L-218.21,-224.75L-245.07,-189.96ZM-148.87,-153.44L-148.50,-179.82L-157.17,-188.73L-174.87,-180.18L-175.24,-153.81L-157.78,-144.78L-140.20,-144.53L-113.71,-152.95L-95.88,-170.29L-95.63,-187.87L-103.81,-231.94L-103.57,-249.52L-85.86,-258.07L-86.23,-231.70L-77.56,-222.79L-59.86,-231.33L-59.49,-257.70L-85.74,-266.86L-121.02,-258.56L-130.06,-241.10L-130.30,-223.52L-122.01,-188.24L-122.25,-170.66L-140.08,-153.32ZM10.95,-265.51L-15.54,-257.09L-60.10,-213.75L-51.44,-204.84L-6.87,-248.17L1.92,-248.05L-79.40,-90.93L-96.98,-91.18L-97.11,-82.39L-17.99,-81.28L-17.87,-90.07L-53.03,-90.56L-16.77,-169.18L-8.34,-142.69L26.82,-142.20L71.26,-176.75L89.45,-220.45L81.15,-255.74L63.70,-264.77L37.20,-256.35L19.38,-239.02L19.62,-256.60ZM36.96,-238.77L54.66,-247.32L63.08,-220.82L45.01,-185.91L18.27,-159.90L0.69,-160.15L-7.85,-177.85L-7.73,-186.64L10.22,-212.77ZM194.08,-157.45L239.26,-244.74L265.63,-244.37L265.75,-253.16L239.38,-253.53L257.45,-288.44L239.87,-288.69L230.71,-262.44L213.01,-253.90L195.43,-254.14L195.31,-245.35L212.89,-245.11L167.71,-157.82L167.59,-149.03L176.25,-140.11L193.83,-139.87L211.54,-148.41L256.10,-191.75L247.43,-200.66L202.87,-157.33ZM328.14,-313.83L291.75,-226.42L246.70,-147.92L255.37,-139.01L272.95,-138.76L309.09,-208.59L335.83,-234.60L353.53,-243.14L362.20,-234.23L317.14,-155.73L317.02,-146.94L325.69,-138.03L343.27,-137.78L360.97,-146.33L405.54,-189.66L396.87,-198.58L352.31,-155.24L343.51,-155.36L388.45,-225.07L388.82,-251.44L362.57,-260.60L336.07,-252.18L318.25,-234.84L363.43,-322.13L301.89,-322.99L301.77,-314.20ZM528.97,-214.32L529.22,-231.90L520.67,-249.60L485.63,-258.88L441.31,-233.12L414.21,-180.75L422.51,-145.47L439.96,-136.43L457.54,-136.19L475.25,-144.73L510.90,-179.40L502.23,-188.31L466.58,-153.64L449.00,-153.89L440.58,-180.38L458.65,-215.30L485.39,-241.30L502.97,-241.06L502.60,-214.69L484.90,-206.14L458.53,-206.51L458.40,-197.72L502.35,-197.10ZM-511.75,19.09L-520.54,18.97L-547.53,62.55L-600.27,61.81L-608.94,52.90L-590.50,-8.39L-581.58,-17.05L-546.42,-16.56L-529.09,1.26L-528.47,-42.69L-546.30,-25.35L-581.46,-25.84L-581.34,-34.64L-563.02,-87.13L-554.11,-95.80L-510.15,-95.19L-484.27,-59.66L-475.48,-59.53L-483.54,-112.40L-518.82,-104.10L-606.73,-105.33L-589.39,-87.50L-635.31,52.53L-661.92,69.74L-538.86,71.46L-521.40,80.50ZM-422.87,-50.01L-449.36,-41.58L-493.92,1.75L-485.26,10.67L-440.69,-32.67L-431.90,-32.55L-513.22,124.57L-530.80,124.33L-530.93,133.12L-451.81,134.22L-451.69,125.43L-486.85,124.94L-450.59,46.32L-442.16,72.81L-407.00,73.30L-362.56,38.76L-344.37,-4.95L-352.67,-40.23L-370.12,-49.27L-396.62,-40.85L-414.44,-23.51L-414.20,-41.09ZM-396.86,-23.27L-379.16,-31.81L-370.74,-5.32L-388.81,29.60L-415.55,55.60L-433.13,55.35L-441.67,37.65L-441.55,28.86L-423.60,2.74ZM-272.69,-100.66L-309.08,-13.25L-354.14,65.25L-345.47,74.16L-327.89,74.41L-291.75,4.58L-265.01,-21.43L-247.30,-29.97L-238.64,-21.06L-283.69,57.44L-283.82,66.23L-275.15,75.14L-257.57,75.39L-239.86,66.84L-195.30,23.51L-203.97,14.59L-248.53,57.93L-257.32,57.81L-212.39,-11.90L-212.02,-38.27L-238.27,-47.43L-264.76,-39.01L-282.59,-21.67L-237.41,-108.96L-298.94,-109.82L-299.06,-101.03ZM-71.86,-1.15L-71.62,-18.73L-80.16,-36.43L-115.20,-45.71L-159.52,-19.95L-186.63,32.42L-178.33,67.70L-160.87,76.74L-143.29,76.99L-125.59,68.44L-89.94,33.77L-98.60,24.86L-134.26,59.53L-151.84,59.28L-160.26,32.79L-142.19,-2.13L-115.45,-28.13L-97.87,-27.89L-98.24,-1.51L-115.94,7.03L-142.31,6.66L-142.43,15.45L-98.48,16.07ZM68.78,0.82L86.61,-16.52L104.31,-25.06L112.98,-16.15L67.92,62.35L67.80,71.14L76.47,80.05L94.05,80.30L111.75,71.75L156.32,28.42L147.65,19.50L103.08,62.84L94.29,62.72L139.23,-6.99L139.59,-33.36L113.35,-42.52L86.85,-34.10L69.03,-16.76L69.27,-34.34L51.81,-43.38L25.32,-34.96L-1.42,-8.95L7.62,-26.41L7.74,-35.20L-0.93,-44.12L-27.42,-35.69L-71.99,7.64L-63.32,16.56L-18.75,-26.78L-9.96,-26.66L-64.06,69.30L-55.39,78.21L-37.81,78.46L-1.66,8.63L25.07,-17.38L42.78,-25.92L51.45,-17.01L6.27,70.28L14.93,79.19L32.51,79.44ZM279.75,3.76L279.99,-13.82L271.45,-31.52L236.41,-40.80L192.09,-15.04L164.98,37.33L173.28,72.61L190.74,81.65L208.32,81.89L226.02,73.35L261.68,38.68L253.01,29.77L217.36,64.44L199.78,64.19L191.35,37.70L209.43,2.78L236.17,-23.22L253.75,-22.98L253.38,3.40L235.67,11.94L209.30,11.57L209.18,20.36L253.13,20.98ZM279.63,12.55L288.29,21.47L332.86,-21.87L341.65,-21.75L287.56,74.21L296.22,83.12L313.81,83.37L349.95,13.54L376.57,-3.68L402.94,-3.31L412.09,-29.56L394.64,-38.59L376.93,-30.05L350.07,4.75L341.28,4.62L359.23,-21.50L359.35,-30.29L350.69,-39.21L324.19,-30.78ZM535.16,-27.84L526.49,-36.75L508.54,-10.63L500.00,-28.33L464.96,-37.61L420.52,-3.06L402.32,40.64L410.62,75.93L428.08,84.96L445.66,85.21L472.40,59.21L472.15,76.79L480.82,85.70L507.32,77.28L551.88,33.94L543.21,25.03L498.65,68.36L489.86,68.24ZM445.91,67.63L437.12,67.50L428.69,41.01L446.77,6.10L473.50,-19.91L491.09,-19.66L499.63,-1.96L499.51,6.83L472.65,41.62ZM577.76,69.47L659.21,-96.44L597.67,-97.30L597.55,-88.51L623.92,-88.14L551.39,69.10L551.27,77.89L568.73,86.93L595.22,78.50L639.78,35.17L631.12,26.25L586.55,69.59Z" fill="#ffffff" stroke="#000000"/>
    <path d="M-558.83,-206.08L-558.10,-232.17L-539.24,-283.88L-494.78,-317.46L-477.38,-316.98L-460.47,-299.09L-461.19,-273.00L-443.80,-272.51L-425.91,-289.42L-434.13,-307.06L-477.13,-325.68L-503.23,-326.40L-538.51,-309.98L-565.34,-284.61L-583.47,-259.00L-593.38,-215.75L-577.20,-171.77L-542.89,-153.40L-508.09,-152.42L-490.45,-160.64L-472.57,-177.55L-454.44,-203.16L-436.55,-220.07L-488.75,-221.53L-480.54,-203.89L-489.96,-178.04L-498.91,-169.58L-516.55,-161.37L-525.25,-161.61L-550.86,-179.74ZM-436.55,-220.07L-428.10,-211.13L-383.39,-253.41L-374.69,-253.17L-429.56,-158.94L-421.10,-149.99L-403.70,-149.51L-366.96,-218.13L-340.38,-234.80L-314.28,-234.07L-304.86,-259.92L-322.01,-269.11L-339.65,-260.90L-366.72,-226.83L-375.42,-227.07L-357.29,-252.68L-357.05,-261.38L-365.51,-270.32L-391.85,-262.35ZM-183.07,-256.52L-191.52,-265.46L-209.65,-239.85L-217.86,-257.49L-252.42,-267.16L-296.88,-233.58L-315.50,-190.57L-307.77,-155.54L-290.62,-146.35L-273.22,-145.86L-246.39,-171.23L-246.88,-153.83L-238.42,-144.89L-212.08,-152.86L-167.37,-195.14L-175.83,-204.09L-220.54,-161.80L-229.24,-162.05ZM-272.73,-163.26L-281.43,-163.51L-289.40,-189.85L-271.03,-224.16L-244.20,-249.52L-226.81,-249.04L-218.59,-231.40L-218.84,-222.70L-245.91,-188.63ZM-151.19,-151.16L-150.46,-177.26L-158.92,-186.20L-176.56,-177.99L-177.29,-151.89L-160.13,-142.71L-142.73,-142.22L-116.39,-150.19L-98.51,-167.10L-98.02,-184.50L-105.51,-228.24L-105.02,-245.64L-87.38,-253.85L-88.11,-227.75L-79.65,-218.81L-62.01,-227.02L-61.28,-253.12L-87.14,-262.55L-122.18,-254.82L-131.36,-237.67L-131.85,-220.27L-124.12,-185.23L-124.61,-167.83L-142.49,-150.92ZM8.55,-259.88L-17.79,-251.91L-62.50,-209.63L-54.04,-200.68L-9.33,-242.96L-0.63,-242.72L-83.30,-88.33L-100.70,-88.81L-100.94,-80.11L-22.65,-77.93L-22.40,-86.62L-57.20,-87.60L-20.22,-164.92L-12.25,-138.58L22.55,-137.60L67.02,-171.19L85.63,-214.19L77.90,-249.23L60.75,-258.42L34.41,-250.45L16.52,-233.54L17.01,-250.93ZM33.92,-233.05L51.56,-241.26L59.53,-214.92L41.16,-180.61L14.34,-155.25L-3.06,-155.73L-11.28,-173.37L-11.03,-182.07L7.09,-207.68ZM188.32,-150.39L234.24,-236.16L260.34,-235.43L260.58,-244.13L234.48,-244.86L252.85,-279.17L235.46,-279.66L226.03,-253.80L208.39,-245.59L190.99,-246.08L190.75,-237.38L208.14,-236.89L162.22,-151.11L161.98,-142.42L170.43,-133.47L187.83,-132.99L205.47,-141.20L250.18,-183.48L241.72,-192.42L197.01,-150.14ZM323.17,-303.32L285.95,-217.31L240.27,-140.23L248.72,-131.29L266.12,-130.80L302.86,-199.42L329.69,-224.79L347.33,-233.00L355.78,-224.06L310.10,-146.98L309.86,-138.29L318.32,-129.34L335.71,-128.86L353.35,-137.07L398.06,-179.35L389.61,-188.29L344.90,-146.01L336.20,-146.26L381.64,-214.63L382.37,-240.73L356.51,-250.16L330.17,-242.19L312.29,-225.28L358.21,-311.05L297.32,-312.75L297.08,-304.05ZM520.58,-202.05L521.06,-219.44L512.85,-237.09L478.30,-246.76L434.07,-221.87L406.52,-170.41L414.25,-135.37L431.40,-126.19L448.80,-125.70L466.44,-133.91L502.21,-167.74L493.75,-176.68L457.99,-142.85L440.59,-143.34L432.62,-169.68L450.99,-203.99L477.81,-229.36L495.21,-228.87L494.48,-202.78L476.84,-194.56L450.74,-195.29L450.50,-186.59L494.00,-185.38ZM-512.76,14.60L-521.45,14.35L-548.77,57.12L-600.96,55.66L-609.42,46.72L-590.32,-13.69L-581.38,-22.14L-546.58,-21.17L-529.67,-3.29L-528.45,-46.78L-546.34,-29.87L-581.13,-30.84L-580.89,-39.54L-562.03,-91.25L-553.09,-99.71L-509.60,-98.49L-484.47,-62.97L-475.77,-62.72L-483.01,-115.16L-518.05,-107.43L-605.04,-109.86L-588.13,-91.98L-635.51,45.99L-662.10,62.66L-540.31,66.06L-523.16,75.25ZM-423.82,-52.57L-450.16,-44.60L-494.87,-2.32L-486.42,6.63L-441.71,-35.65L-433.01,-35.41L-515.67,118.98L-533.07,118.50L-533.31,127.20L-455.02,129.38L-454.78,120.69L-489.57,119.71L-452.59,42.39L-444.62,68.73L-409.83,69.71L-365.36,36.12L-346.75,-6.88L-354.47,-41.92L-371.63,-51.11L-397.97,-43.14L-415.85,-26.23L-415.37,-43.62ZM-398.45,-25.74L-380.81,-33.95L-372.84,-7.61L-391.21,26.70L-418.04,52.07L-435.44,51.58L-443.65,33.94L-443.41,25.24L-425.28,-0.37ZM-274.48,-100.63L-311.71,-14.61L-357.39,62.46L-348.93,71.41L-331.53,71.89L-294.79,3.27L-267.97,-22.10L-250.33,-30.31L-241.87,-21.37L-287.55,55.71L-287.80,64.41L-279.34,73.35L-261.94,73.84L-244.30,65.62L-199.59,23.34L-208.05,14.40L-252.76,56.68L-261.46,56.44L-216.02,-11.94L-215.29,-38.04L-241.14,-47.46L-267.48,-39.49L-285.37,-22.58L-239.44,-108.36L-300.33,-110.06L-300.58,-101.36ZM-77.08,0.65L-76.59,-16.75L-84.80,-34.39L-119.36,-44.06L-163.58,-19.18L-191.14,32.28L-183.41,67.32L-166.25,76.51L-148.85,76.99L-131.21,68.78L-95.45,34.96L-103.90,26.02L-139.67,59.84L-157.07,59.35L-165.04,33.01L-146.67,-1.30L-119.84,-26.66L-102.44,-26.18L-103.17,-0.08L-120.81,8.13L-146.91,7.40L-147.15,16.10L-103.66,17.32ZM62.11,4.53L79.99,-12.38L97.63,-20.59L106.09,-11.65L60.41,65.43L60.16,74.13L68.62,83.07L86.02,83.55L103.66,75.34L148.37,33.06L139.91,24.12L95.20,66.40L86.50,66.16L131.94,-2.22L132.67,-28.32L106.82,-37.75L80.48,-29.78L62.59,-12.86L63.08,-30.26L45.92,-39.45L19.58,-31.48L-7.24,-6.11L1.94,-23.26L2.19,-31.96L-6.27,-40.90L-32.61,-32.93L-77.32,9.35L-68.86,18.29L-24.15,-23.99L-15.45,-23.75L-70.32,70.48L-61.86,79.42L-44.47,79.91L-7.73,11.29L19.10,-14.08L36.74,-22.29L45.20,-13.35L-0.73,72.43L7.73,81.37L25.13,81.85ZM270.88,10.37L271.37,-7.03L263.16,-24.67L228.60,-34.34L184.38,-9.46L156.83,42.00L164.55,77.04L181.71,86.23L199.11,86.71L216.75,78.50L252.51,44.68L244.06,35.73L208.29,69.56L190.89,69.07L182.92,42.73L201.29,8.42L228.12,-16.95L245.52,-16.46L244.79,9.64L227.15,17.85L201.05,17.12L200.81,25.82L244.30,27.03ZM270.64,19.06L279.10,28.01L323.81,-14.27L332.51,-14.03L277.64,80.20L286.10,89.14L303.49,89.63L340.23,21.01L366.82,4.34L392.91,5.07L402.34,-20.79L385.19,-29.97L367.55,-21.76L340.48,12.31L331.78,12.07L349.90,-13.54L350.15,-22.24L341.69,-31.19L315.35,-23.22ZM524.13,-17.38L515.67,-26.33L497.54,-0.72L489.33,-18.36L454.78,-28.03L410.31,5.55L391.70,48.56L399.43,83.60L416.58,92.79L433.98,93.27L460.80,67.90L460.32,85.30L468.77,94.24L495.11,86.27L539.82,43.99L531.37,35.05L486.66,77.33L477.96,77.09ZM434.46,75.87L425.77,75.63L417.80,49.29L436.17,14.98L462.99,-10.39L480.39,-9.90L488.60,7.74L488.36,16.44L461.29,50.51ZM564.95,79.52L647.86,-83.58L586.96,-85.28L586.72,-76.58L612.82,-75.85L538.85,78.79L538.61,87.49L555.76,96.67L582.10,88.70L626.81,46.42L618.36,37.48L573.65,79.76Z" fill="#ffffff" stroke="#000000"/>
    <path d="M-556.16,-209.01L-555.08,-234.83L-535.70,-285.74L-491.23,-318.37L-474.02,-317.64L-457.53,-299.71L-458.61,-273.89L-441.40,-273.17L-423.46,-289.66L-431.35,-307.24L-473.66,-326.25L-499.47,-327.33L-534.62,-311.56L-561.52,-286.83L-579.81,-261.73L-590.22,-219.06L-574.81,-175.31L-541.11,-156.65L-506.69,-155.21L-489.11,-163.10L-471.18,-179.59L-452.89,-204.68L-434.95,-221.17L-486.59,-223.34L-478.71,-205.77L-488.39,-180.31L-497.36,-172.06L-514.93,-164.18L-523.54,-164.54L-548.64,-182.83ZM-434.95,-221.17L-426.71,-212.21L-381.88,-253.43L-373.27,-253.07L-428.87,-160.57L-420.63,-151.60L-403.42,-150.88L-366.11,-218.29L-339.57,-234.42L-313.75,-233.34L-304.06,-258.79L-320.91,-268.12L-338.48,-260.24L-365.74,-226.90L-374.35,-227.26L-356.06,-252.35L-355.70,-260.96L-363.94,-269.93L-390.12,-262.40ZM-183.58,-253.75L-191.82,-262.71L-210.11,-237.62L-218.00,-255.19L-252.06,-265.24L-296.54,-232.62L-315.55,-190.31L-308.39,-155.52L-291.54,-146.20L-274.32,-145.47L-247.42,-170.21L-248.15,-153.00L-239.90,-144.03L-213.72,-151.56L-168.89,-192.78L-177.13,-201.75L-221.97,-160.52L-230.57,-160.88ZM-273.60,-162.69L-282.21,-163.05L-289.73,-189.23L-271.08,-222.93L-244.18,-247.66L-226.97,-246.94L-219.08,-229.37L-219.44,-220.76L-246.70,-187.42ZM-153.48,-149.03L-152.40,-174.85L-160.64,-183.82L-178.22,-175.93L-179.30,-150.11L-162.45,-140.79L-145.23,-140.06L-119.05,-147.59L-101.12,-164.08L-100.40,-181.29L-107.20,-224.68L-106.48,-241.89L-88.91,-249.78L-89.99,-223.96L-81.75,-214.99L-64.17,-222.88L-63.09,-248.70L-88.55,-258.38L-123.33,-251.22L-132.66,-234.37L-133.38,-217.16L-126.22,-182.37L-126.94,-165.16L-144.87,-148.67ZM6.12,-254.42L-20.06,-246.89L-64.89,-205.67L-56.65,-196.70L-11.82,-237.93L-3.21,-237.57L-87.16,-85.90L-104.37,-86.62L-104.73,-78.02L-27.27,-74.77L-26.91,-83.38L-61.34,-84.82L-23.67,-160.83L-16.14,-134.65L18.28,-133.21L62.75,-165.83L81.77,-208.14L74.61,-242.93L57.75,-252.25L31.58,-244.73L13.64,-228.24L14.36,-245.45ZM30.85,-227.52L48.43,-235.40L55.95,-209.22L37.30,-175.52L10.40,-150.78L-6.82,-151.51L-14.70,-169.08L-14.34,-177.68L3.95,-202.78ZM182.52,-143.57L229.15,-227.83L254.97,-226.75L255.33,-235.35L229.51,-236.43L248.17,-270.14L230.96,-270.86L221.27,-245.40L203.70,-237.52L186.48,-238.24L186.12,-229.63L203.34,-228.91L156.70,-144.65L156.34,-136.05L164.58,-127.08L181.80,-126.36L199.37,-134.24L244.20,-175.47L235.96,-184.44L191.12,-143.21ZM318.10,-293.07L280.07,-208.45L233.79,-132.80L242.04,-123.83L259.25,-123.11L296.56,-190.52L323.46,-215.25L341.03,-223.14L349.28,-214.17L303.00,-138.52L302.64,-129.92L310.89,-120.95L328.10,-120.23L345.67,-128.11L390.51,-169.34L382.26,-178.31L337.43,-137.08L328.82,-137.44L374.74,-204.48L375.82,-230.30L350.36,-239.99L324.18,-232.47L306.25,-215.98L352.88,-300.23L292.64,-302.76L292.28,-294.15ZM512.07,-190.11L512.79,-207.32L504.91,-224.89L470.84,-234.94L426.73,-210.93L398.75,-160.37L405.91,-125.59L422.77,-116.26L439.98,-115.54L457.55,-123.42L493.42,-156.41L485.17,-165.37L449.30,-132.39L432.09,-133.11L424.57,-159.29L443.22,-192.99L470.12,-217.73L487.34,-217.01L486.25,-191.19L468.68,-183.31L442.86,-184.39L442.50,-175.78L485.53,-173.98ZM-513.61,10.02L-522.22,9.66L-549.84,51.61L-601.48,49.45L-609.72,40.48L-589.98,-19.04L-581.02,-27.28L-546.59,-25.84L-530.10,-7.91L-528.30,-50.94L-546.23,-34.45L-580.66,-35.89L-580.30,-44.50L-560.92,-95.41L-551.95,-103.66L-508.92,-101.85L-484.55,-66.35L-475.94,-65.99L-482.38,-117.98L-517.17,-110.82L-603.23,-114.43L-586.74,-96.49L-635.54,39.40L-662.08,55.53L-541.59,60.58L-524.74,69.91ZM-424.67,-55.22L-450.85,-47.69L-495.68,-6.47L-487.43,2.50L-442.60,-38.73L-433.99,-38.37L-517.94,113.30L-535.15,112.58L-535.51,121.18L-458.06,124.43L-457.70,115.82L-492.12,114.38L-454.45,38.37L-446.93,64.55L-412.50,65.99L-368.03,33.37L-349.02,-8.94L-356.18,-43.73L-373.03,-53.05L-399.21,-45.53L-417.14,-29.04L-416.42,-46.25ZM-399.93,-28.32L-382.36,-36.20L-374.83,-10.02L-393.49,23.68L-420.39,48.42L-437.60,47.69L-445.49,30.12L-445.12,21.52L-426.83,-3.58ZM-276.20,-100.72L-314.23,-16.10L-360.51,59.55L-352.26,68.51L-335.05,69.23L-297.74,1.83L-270.84,-22.91L-253.27,-30.79L-245.02,-21.83L-291.30,53.83L-291.66,62.43L-283.41,71.40L-266.20,72.12L-248.63,64.24L-203.79,23.01L-212.04,14.04L-256.87,55.27L-265.48,54.91L-219.56,-12.14L-218.48,-37.96L-243.94,-47.64L-270.12,-40.12L-288.05,-23.63L-241.41,-107.89L-301.66,-110.41L-302.02,-101.80ZM-82.23,2.24L-81.51,-14.97L-89.39,-32.55L-123.45,-42.59L-167.57,-18.58L-195.55,31.97L-188.39,66.76L-171.53,76.09L-154.32,76.81L-136.75,68.92L-100.88,35.94L-109.13,26.98L-144.99,59.96L-162.21,59.24L-169.73,33.06L-151.08,-0.65L-124.18,-25.38L-106.96,-24.66L-108.05,1.16L-125.62,9.04L-151.44,7.96L-151.80,16.57L-108.77,18.37ZM55.47,8.01L73.40,-8.48L90.98,-16.37L99.22,-7.40L52.94,68.25L52.58,76.86L60.83,85.82L78.04,86.55L95.61,78.66L140.45,37.43L132.20,28.47L87.37,69.69L78.76,69.33L124.68,2.29L125.76,-23.53L100.30,-33.22L74.12,-25.69L56.19,-9.20L56.91,-26.41L40.06,-35.74L13.88,-28.22L-13.02,-3.48L-3.69,-20.33L-3.33,-28.94L-11.58,-37.91L-37.75,-30.38L-82.59,10.85L-74.34,19.81L-29.51,-21.41L-20.90,-21.05L-76.51,71.45L-68.26,80.42L-51.05,81.14L-13.74,13.73L13.16,-11.01L30.73,-18.89L38.98,-9.92L-7.66,74.33L0.59,83.30L17.80,84.02ZM262.01,16.67L262.74,-0.55L254.85,-18.12L220.79,-28.17L176.67,-4.15L148.69,46.40L155.86,81.19L172.71,90.51L189.92,91.23L207.49,83.35L243.36,50.37L235.11,41.40L199.25,74.38L182.04,73.66L174.51,47.48L193.17,13.78L220.07,-10.96L237.28,-10.23L236.20,15.58L218.62,23.47L192.81,22.39L192.44,30.99L235.47,32.80ZM261.65,25.27L269.90,34.24L314.73,-6.99L323.34,-6.63L267.73,85.87L275.98,94.84L293.19,95.56L330.50,28.16L357.04,12.03L382.86,13.11L392.55,-12.35L375.70,-21.68L358.12,-13.79L330.86,19.55L322.26,19.19L340.55,-5.91L340.91,-14.51L332.67,-23.48L306.49,-15.96ZM513.03,-7.30L504.79,-16.27L486.49,8.83L478.61,-8.74L444.54,-18.79L400.07,13.83L381.06,56.14L388.22,90.92L405.07,100.25L422.28,100.97L449.18,76.24L448.46,93.45L456.71,102.42L482.89,94.89L527.72,53.66L519.47,44.70L474.64,85.92L466.03,85.56ZM423.00,83.76L414.40,83.40L406.87,57.22L425.53,23.52L452.43,-1.22L469.64,-0.50L477.53,17.08L477.17,25.68L449.90,59.02ZM552.09,89.17L636.40,-71.10L576.16,-73.62L575.80,-65.02L601.62,-63.94L526.28,88.09L525.92,96.69L542.77,106.02L568.95,98.50L613.78,57.27L605.53,48.30L560.70,89.53Z" fill="#ffffff" stroke="#000000"/>
    <path d="M-553.40,-211.97L-551.97,-237.50L-532.09,-287.62L-487.63,-319.29L-470.61,-318.33L-454.54,-300.36L-455.96,-274.83L-438.94,-273.87L-420.97,-289.94L-428.53,-307.44L-470.13,-326.85L-495.67,-328.27L-530.66,-313.15L-557.63,-289.05L-576.08,-264.46L-586.97,-222.38L-572.32,-178.87L-539.23,-159.95L-505.18,-158.04L-487.68,-165.60L-469.71,-181.67L-451.26,-206.26L-433.28,-222.33L-484.35,-225.18L-476.79,-207.68L-486.73,-182.63L-495.72,-174.59L-513.22,-167.03L-521.73,-167.51L-546.31,-185.96ZM-433.28,-222.33L-425.25,-213.34L-380.31,-253.52L-371.80,-253.04L-428.10,-162.27L-420.07,-153.28L-403.04,-152.33L-365.19,-218.52L-338.71,-234.12L-313.17,-232.69L-303.23,-257.75L-319.78,-267.21L-337.28,-259.65L-364.72,-227.03L-373.23,-227.51L-354.78,-252.09L-354.30,-260.60L-362.34,-269.59L-388.35,-262.51ZM-184.07,-251.09L-192.11,-260.08L-210.56,-235.49L-218.12,-252.99L-251.69,-263.41L-296.15,-231.74L-315.55,-190.13L-308.94,-155.61L-292.39,-146.15L-275.37,-145.20L-248.41,-169.30L-249.36,-152.28L-241.33,-143.29L-215.32,-150.38L-170.38,-190.56L-178.41,-199.54L-223.35,-159.36L-231.86,-159.84ZM-274.42,-162.22L-282.93,-162.70L-290.02,-188.71L-271.09,-221.80L-244.13,-245.91L-227.10,-244.96L-219.54,-227.46L-220.02,-218.94L-247.46,-186.33ZM-155.73,-147.05L-154.31,-172.58L-162.34,-181.57L-179.84,-174.01L-181.27,-148.47L-164.72,-139.01L-147.70,-138.06L-121.69,-145.14L-103.71,-161.21L-102.76,-178.24L-108.89,-221.27L-107.94,-238.29L-90.44,-245.85L-91.87,-220.32L-83.84,-211.33L-66.34,-218.89L-64.91,-244.43L-89.97,-254.37L-124.49,-247.76L-133.95,-231.21L-134.91,-214.19L-128.30,-179.66L-129.25,-162.64L-147.22,-146.57ZM3.66,-249.13L-22.35,-242.05L-67.29,-201.87L-59.25,-192.88L-14.32,-233.06L-5.81,-232.58L-90.97,-83.66L-108.00,-84.61L-108.47,-76.10L-31.87,-71.82L-31.39,-80.33L-65.44,-82.23L-27.11,-156.93L-20.03,-130.92L14.02,-129.02L58.48,-160.69L77.88,-202.29L71.27,-236.81L54.73,-246.28L28.72,-239.19L10.74,-223.12L11.69,-240.14ZM27.77,-222.17L45.26,-229.73L52.35,-203.72L33.42,-170.62L6.46,-146.52L-10.56,-147.47L-18.12,-164.97L-17.65,-173.48L0.80,-198.06ZM176.69,-137.00L224.01,-219.74L249.54,-218.31L250.02,-226.82L224.48,-228.25L243.41,-261.34L226.38,-262.29L216.45,-237.24L198.95,-229.68L181.92,-230.63L181.45,-222.12L198.47,-221.16L151.16,-138.43L150.68,-129.92L158.72,-120.93L175.74,-119.98L193.24,-127.54L238.17,-167.72L230.14,-176.70L185.20,-136.53ZM312.93,-283.07L274.12,-199.86L227.28,-125.63L235.32,-116.65L252.34,-115.70L290.19,-181.88L317.16,-205.99L334.66,-213.55L342.69,-204.56L295.85,-130.34L295.38,-121.83L303.41,-112.84L320.43,-111.89L337.93,-119.45L382.87,-159.63L374.83,-168.62L329.90,-128.44L321.39,-128.91L367.75,-194.63L369.18,-220.16L344.12,-230.10L318.11,-223.01L300.13,-206.94L347.45,-289.68L287.87,-293.01L287.39,-284.50ZM503.46,-178.50L504.41,-195.52L496.85,-213.02L463.28,-223.44L419.29,-200.28L390.91,-150.64L397.51,-116.12L414.06,-106.66L431.08,-105.70L448.58,-113.26L484.53,-145.41L476.50,-154.39L440.55,-122.25L423.52,-123.20L416.44,-149.21L435.37,-182.31L462.33,-206.41L479.35,-205.46L477.92,-179.93L460.42,-172.37L434.89,-173.80L434.41,-165.28L476.97,-162.91ZM-514.32,5.38L-522.83,4.90L-550.74,46.03L-601.81,43.18L-609.85,34.19L-589.49,-24.44L-580.51,-32.47L-546.46,-30.57L-530.39,-12.60L-528.01,-55.15L-545.98,-39.08L-580.03,-40.99L-579.56,-49.50L-559.68,-99.62L-550.69,-107.65L-508.13,-105.27L-484.50,-69.80L-475.99,-69.32L-481.65,-120.87L-516.17,-114.26L-601.28,-119.02L-585.21,-101.04L-635.38,32.76L-661.87,48.36L-542.71,55.02L-526.16,64.48ZM-425.40,-57.96L-451.41,-50.87L-496.34,-10.69L-488.31,-1.71L-443.37,-41.88L-434.86,-41.41L-520.03,107.52L-537.05,106.56L-537.53,115.08L-460.92,119.36L-460.45,110.85L-494.49,108.94L-456.16,34.24L-449.08,60.25L-415.03,62.16L-370.57,30.49L-351.17,-11.12L-357.78,-45.64L-374.33,-55.10L-400.34,-48.02L-418.31,-31.95L-417.36,-48.97ZM-401.29,-30.99L-383.79,-38.55L-376.71,-12.54L-395.63,20.55L-422.59,44.66L-439.62,43.71L-447.18,26.21L-446.70,17.70L-428.25,-6.89ZM-277.85,-100.94L-316.65,-17.72L-363.49,56.50L-355.45,65.49L-338.43,66.44L-300.58,0.25L-273.62,-23.86L-256.12,-31.42L-248.08,-22.43L-294.92,51.80L-295.40,60.31L-287.36,69.29L-270.34,70.25L-252.84,62.69L-207.90,22.51L-215.94,13.52L-260.88,53.70L-269.39,53.22L-223.02,-12.49L-221.60,-38.03L-246.65,-47.96L-272.66,-40.88L-290.64,-24.81L-243.32,-107.54L-302.90,-110.88L-303.38,-102.36ZM-87.31,3.63L-86.36,-13.39L-93.92,-30.89L-127.49,-41.30L-171.48,-18.15L-199.87,31.49L-193.26,66.02L-176.71,75.48L-159.69,76.43L-142.19,68.87L-106.24,36.73L-114.28,27.74L-150.23,59.88L-167.25,58.93L-174.33,32.92L-155.41,-0.17L-128.45,-24.28L-111.42,-23.33L-112.85,2.21L-130.35,9.77L-155.88,8.34L-156.36,16.85L-113.80,19.23ZM48.87,11.25L66.84,-4.82L84.34,-12.38L92.38,-3.40L45.54,70.83L45.06,79.34L53.10,88.33L70.12,89.28L87.62,81.72L132.56,41.54L124.52,32.55L79.58,72.73L71.07,72.25L117.44,6.54L118.86,-18.99L93.81,-28.93L67.80,-21.85L49.82,-5.78L50.77,-22.80L34.23,-32.26L8.21,-25.18L-18.75,-1.07L-9.28,-17.62L-8.81,-26.13L-16.84,-35.12L-42.85,-28.03L-87.79,12.15L-79.76,21.13L-34.82,-19.05L-26.31,-18.57L-82.61,72.20L-74.57,81.19L-57.55,82.14L-19.70,15.95L7.26,-8.16L24.76,-15.72L32.80,-6.73L-14.52,76.01L-6.48,85.00L10.54,85.95ZM253.15,22.67L254.10,5.64L246.54,-11.86L212.97,-22.27L168.98,0.89L140.59,50.53L147.20,85.05L163.75,94.51L180.77,95.46L198.27,87.90L234.22,55.76L226.18,46.77L190.23,78.92L173.21,77.96L166.13,51.95L185.05,18.86L212.02,-5.25L229.04,-4.30L227.61,21.24L210.11,28.80L184.58,27.37L184.10,35.88L226.66,38.26ZM252.67,31.18L260.71,40.17L305.64,-0.01L314.15,0.46L257.85,91.23L265.89,100.22L282.91,101.17L320.76,34.98L347.25,19.39L372.78,20.82L382.72,-4.24L366.17,-13.71L348.68,-6.15L321.24,26.47L312.73,26.00L331.18,1.41L331.65,-7.10L323.62,-16.08L297.61,-9.00ZM501.88,2.42L493.85,-6.57L475.40,18.01L467.84,0.52L434.27,-9.90L389.81,21.77L370.40,63.37L377.01,97.90L393.56,107.36L410.58,108.31L437.54,84.20L436.59,101.23L444.63,110.21L470.64,103.13L515.57,62.95L507.54,53.96L462.60,94.14L454.09,93.67ZM411.53,91.29L403.02,90.81L395.94,64.80L414.86,31.71L441.83,7.60L458.85,8.55L466.41,26.05L465.93,34.56L438.50,67.18ZM539.21,98.42L624.85,-59.01L565.27,-62.34L564.79,-53.83L590.33,-52.40L513.67,97.00L513.20,105.51L529.74,114.97L555.75,107.89L600.69,67.71L592.65,58.72L547.72,98.90Z" fill="#ffffff" stroke="#000000"/>
    <path d="M-550.54,-214.94L-548.77,-240.18L-528.41,-289.50L-483.98,-320.22L-467.15,-319.04L-451.49,-301.04L-453.26,-275.79L-436.43,-274.61L-418.42,-290.27L-425.66,-307.69L-466.56,-327.46L-491.80,-329.22L-526.64,-314.75L-553.66,-291.27L-572.25,-267.20L-583.61,-225.71L-569.72,-182.45L-537.23,-163.27L-503.57,-160.92L-486.15,-168.15L-468.15,-183.81L-449.55,-207.88L-431.54,-223.53L-482.03,-227.06L-474.80,-209.64L-484.98,-184.98L-493.98,-177.16L-511.40,-169.92L-519.82,-170.51L-543.88,-189.10ZM-431.54,-223.53L-423.71,-214.53L-378.70,-253.66L-370.28,-253.07L-427.25,-164.04L-419.42,-155.03L-402.59,-153.85L-364.22,-218.82L-337.80,-233.89L-312.55,-232.13L-302.37,-256.78L-318.61,-266.38L-336.03,-259.14L-363.63,-227.24L-372.05,-227.83L-353.45,-251.90L-352.86,-260.31L-360.69,-269.32L-386.52,-262.67ZM-184.55,-248.55L-192.38,-257.55L-210.98,-233.48L-218.21,-250.90L-251.29,-261.67L-295.72,-230.95L-315.49,-190.05L-309.43,-155.80L-293.19,-146.21L-276.36,-145.03L-249.34,-168.51L-250.52,-151.68L-242.69,-142.67L-216.86,-149.33L-171.84,-188.46L-179.67,-197.46L-224.69,-158.33L-233.10,-158.92ZM-275.18,-161.86L-283.59,-162.45L-290.24,-188.28L-271.06,-220.77L-244.05,-244.25L-227.22,-243.07L-219.98,-225.65L-220.57,-217.24L-248.17,-185.34ZM-157.95,-145.21L-156.19,-170.45L-164.01,-179.46L-181.43,-172.22L-183.20,-146.97L-166.95,-137.38L-150.12,-136.20L-124.29,-142.85L-106.28,-158.51L-105.10,-175.34L-110.58,-218.00L-109.40,-234.83L-91.98,-242.07L-93.75,-216.83L-85.92,-207.82L-68.50,-215.06L-66.74,-240.31L-91.39,-250.49L-125.64,-244.43L-135.24,-228.18L-136.41,-211.35L-130.35,-177.10L-131.53,-160.27L-149.54,-144.62ZM1.18,-244.02L-24.66,-237.37L-69.68,-198.23L-61.85,-189.23L-16.83,-228.36L-8.42,-227.77L-94.75,-81.59L-111.58,-82.77L-112.17,-74.35L-36.43,-69.06L-35.84,-77.47L-69.50,-79.83L-30.54,-153.21L-23.89,-127.38L9.77,-125.02L54.20,-155.74L73.97,-196.64L67.91,-230.89L51.67,-240.49L25.83,-233.84L7.83,-218.18L9.00,-235.01ZM24.66,-217.00L42.08,-224.24L48.73,-198.41L29.54,-165.92L2.53,-142.44L-14.30,-143.62L-21.54,-161.04L-20.95,-169.45L-2.35,-193.52ZM170.84,-130.67L218.80,-211.89L244.05,-210.12L244.64,-218.54L219.39,-220.30L238.57,-252.79L221.74,-253.96L211.56,-229.31L194.14,-222.07L177.31,-223.24L176.72,-214.83L193.56,-213.65L145.59,-132.44L145.01,-124.02L152.83,-115.02L169.66,-113.84L187.08,-121.08L232.10,-160.22L224.28,-169.22L179.26,-130.09ZM307.66,-273.33L268.12,-191.53L220.74,-118.73L228.57,-109.72L245.40,-108.55L283.77,-173.52L310.78,-197.00L328.20,-204.24L336.03,-195.23L288.66,-122.44L288.07,-114.02L295.90,-105.02L312.73,-103.84L330.15,-111.08L375.16,-150.21L367.34,-159.22L322.32,-120.08L313.90,-120.67L360.69,-185.05L362.45,-210.30L337.79,-220.48L311.96,-213.83L293.95,-198.18L341.91,-279.39L283.01,-283.51L282.42,-275.09ZM494.75,-167.22L495.92,-184.05L488.68,-201.47L455.61,-212.24L411.77,-189.94L382.99,-141.21L389.05,-106.96L405.30,-97.37L422.13,-96.19L439.55,-103.43L475.56,-134.74L467.73,-143.74L431.72,-112.43L414.89,-113.61L408.24,-139.45L427.42,-171.93L454.43,-195.41L471.27,-194.24L469.50,-168.99L452.08,-161.75L426.83,-163.52L426.25,-155.10L468.32,-152.16ZM-514.87,0.66L-523.29,0.07L-551.47,40.39L-601.97,36.85L-609.79,27.85L-588.84,-29.88L-579.84,-37.71L-546.18,-35.35L-530.52,-17.35L-527.58,-59.42L-545.59,-43.77L-579.25,-46.12L-578.66,-54.54L-558.30,-103.85L-549.30,-111.68L-507.22,-108.74L-484.33,-73.31L-475.91,-72.72L-480.80,-123.81L-515.05,-117.74L-599.20,-123.63L-583.55,-105.62L-635.04,26.09L-661.46,41.15L-543.65,49.39L-527.40,58.98ZM-426.01,-60.78L-451.84,-54.13L-496.86,-14.99L-489.04,-5.99L-444.02,-45.12L-435.60,-44.54L-521.93,101.65L-538.76,100.47L-539.35,108.89L-463.61,114.18L-463.02,105.77L-496.68,103.41L-457.73,30.03L-451.08,55.86L-417.41,58.21L-372.98,27.50L-353.21,-13.41L-359.27,-47.66L-375.52,-57.25L-401.35,-50.60L-419.36,-34.94L-418.18,-51.77ZM-402.53,-33.77L-385.11,-41.01L-378.46,-15.17L-397.64,17.31L-424.65,40.80L-441.48,39.62L-448.72,22.20L-448.13,13.78L-429.54,-10.29ZM-279.42,-101.27L-318.96,-19.47L-366.33,53.33L-358.51,62.33L-341.68,63.51L-303.31,-1.46L-276.30,-24.94L-258.88,-32.18L-251.05,-23.18L-298.42,49.62L-299.01,58.04L-291.18,67.04L-274.35,68.22L-256.93,60.98L-211.91,21.84L-219.74,12.84L-264.76,51.98L-273.18,51.39L-226.39,-12.99L-224.63,-38.24L-249.28,-48.42L-275.12,-41.77L-293.13,-26.12L-245.16,-107.33L-304.07,-111.45L-304.66,-103.03ZM-92.33,4.83L-91.16,-12.00L-98.39,-29.42L-131.47,-40.18L-175.31,-17.88L-204.09,30.85L-198.02,65.10L-181.78,74.69L-164.95,75.87L-147.53,68.63L-111.52,37.32L-119.34,28.32L-155.36,59.62L-172.19,58.45L-178.84,32.61L-159.66,0.13L-132.64,-23.35L-115.81,-22.18L-117.58,3.07L-135.00,10.31L-160.24,8.54L-160.83,16.96L-118.76,19.90ZM42.32,14.25L60.32,-1.40L77.74,-8.64L85.57,0.36L38.20,73.16L37.61,81.57L45.44,90.58L62.27,91.75L79.69,84.51L124.70,45.38L116.88,36.38L71.86,75.51L63.44,74.92L110.23,10.54L111.99,-14.71L87.33,-24.89L61.50,-18.24L43.49,-2.58L44.67,-19.41L28.43,-29.00L2.59,-22.35L-24.42,1.13L-14.83,-15.12L-14.24,-23.53L-22.07,-32.54L-47.90,-25.88L-92.92,13.25L-85.09,22.25L-40.07,-16.88L-31.66,-16.29L-88.62,72.75L-80.80,81.75L-63.97,82.93L-25.60,17.96L1.41,-5.52L18.83,-12.76L26.66,-3.76L-21.30,77.45L-13.47,86.46L3.36,87.63ZM244.29,28.37L245.46,11.54L238.22,-5.88L205.15,-16.65L161.31,5.66L132.53,54.38L138.59,88.63L154.84,98.23L171.67,99.40L189.09,92.16L225.10,60.86L217.27,51.85L181.26,83.16L164.43,81.98L157.78,56.15L176.96,23.66L203.97,0.18L220.80,1.36L219.04,26.61L201.62,33.84L176.37,32.08L175.79,40.49L217.86,43.44ZM243.70,36.79L251.52,45.79L296.54,6.65L304.96,7.24L247.99,96.28L255.82,105.29L272.65,106.46L311.02,41.49L337.44,26.43L362.69,28.19L372.87,3.53L356.63,-6.06L339.21,1.18L311.61,33.08L303.19,32.49L321.79,8.42L322.38,0.00L314.55,-9.00L288.72,-2.35ZM490.69,11.77L482.86,2.77L464.26,26.84L457.03,9.42L423.95,-1.35L379.52,29.37L359.75,70.27L365.81,104.52L382.05,114.11L398.88,115.29L425.90,91.81L424.72,108.64L432.55,117.64L458.38,110.99L503.40,71.86L495.57,62.85L450.55,101.99L442.14,101.40ZM400.06,98.46L391.65,97.87L385.00,72.04L404.18,39.55L431.19,16.07L448.02,17.25L455.26,34.67L454.67,43.08L427.07,74.98ZM526.29,107.28L613.21,-47.31L554.30,-51.43L553.71,-43.02L578.96,-41.25L501.05,105.52L500.46,113.93L516.70,123.53L542.54,116.88L587.55,77.74L579.73,68.74L534.71,107.87Z" fill="#ffffff" stroke="#000000"/>
    <path d="M-547.57,-217.92L-545.48,-242.88L-524.65,-291.39L-480.27,-321.17L-463.63,-319.77L-448.39,-301.74L-450.49,-276.78L-433.85,-275.39L-415.82,-290.63L-422.74,-307.96L-462.94,-328.09L-487.89,-330.18L-522.56,-316.34L-549.61,-293.48L-568.34,-269.92L-580.15,-229.03L-567.00,-186.05L-535.13,-166.62L-501.86,-163.82L-484.52,-170.74L-466.49,-185.98L-447.76,-209.54L-429.73,-224.78L-479.63,-228.97L-472.71,-211.64L-483.13,-187.38L-492.14,-179.76L-509.48,-172.84L-517.79,-173.54L-541.35,-192.27ZM-429.73,-224.78L-422.11,-215.76L-377.03,-253.86L-368.71,-253.16L-426.30,-165.86L-418.68,-156.84L-402.04,-155.44L-363.18,-219.19L-336.83,-233.73L-311.88,-231.64L-301.47,-255.89L-317.40,-265.61L-334.74,-258.69L-362.48,-227.51L-370.80,-228.21L-352.07,-251.77L-351.37,-260.08L-358.99,-269.10L-384.64,-262.88ZM-185.01,-246.12L-192.63,-255.13L-211.36,-231.58L-218.29,-248.91L-250.86,-260.02L-295.24,-230.24L-315.37,-190.05L-309.85,-156.08L-293.91,-146.36L-277.27,-144.97L-250.22,-167.83L-251.62,-151.19L-244.00,-142.17L-218.35,-148.40L-173.27,-186.49L-180.89,-195.51L-225.97,-157.41L-234.29,-158.11ZM-275.88,-161.60L-284.19,-162.30L-290.42,-187.95L-270.99,-219.83L-243.94,-242.69L-227.30,-241.29L-220.38,-223.96L-221.08,-215.64L-248.83,-184.46ZM-160.12,-143.51L-158.03,-168.46L-165.65,-177.48L-182.98,-170.56L-185.08,-145.60L-169.14,-135.89L-152.50,-134.49L-126.85,-140.71L-108.82,-155.95L-107.42,-172.59L-112.25,-214.88L-110.85,-231.51L-93.52,-238.43L-95.61,-213.48L-87.99,-204.46L-70.66,-211.39L-68.56,-236.34L-92.82,-246.75L-126.79,-241.23L-136.50,-225.29L-137.90,-208.65L-132.38,-174.68L-133.77,-158.05L-151.81,-142.81ZM-1.32,-239.07L-26.97,-232.85L-72.06,-194.75L-64.44,-185.73L-19.35,-223.83L-11.04,-223.13L-98.47,-79.69L-115.10,-81.09L-115.80,-72.77L-40.94,-66.49L-40.24,-74.81L-73.51,-77.60L-33.96,-149.67L-27.73,-124.02L5.54,-121.22L49.92,-151.00L70.05,-191.19L64.52,-225.16L48.59,-234.88L22.93,-228.66L4.90,-213.42L6.30,-230.05ZM21.54,-212.02L38.87,-218.94L45.09,-193.29L25.66,-161.41L-1.38,-138.56L-18.02,-139.95L-24.94,-157.29L-24.24,-165.61L-5.51,-189.16ZM164.97,-124.59L213.55,-204.28L238.50,-202.18L239.20,-210.50L214.25,-212.59L233.68,-244.47L217.04,-245.87L206.63,-221.61L189.29,-214.69L172.66,-216.09L171.96,-207.77L188.59,-206.37L140.02,-126.68L139.32,-118.37L146.94,-109.35L163.58,-107.95L180.91,-114.87L225.99,-152.97L218.37,-161.99L173.29,-123.89ZM302.31,-263.84L262.06,-183.45L214.18,-112.08L221.80,-103.06L238.44,-101.67L277.30,-165.42L304.35,-188.28L321.68,-195.20L329.30,-186.18L281.43,-114.81L280.73,-106.49L288.35,-97.48L304.98,-96.08L322.32,-103.00L367.40,-141.10L359.78,-150.11L314.70,-112.02L306.38,-112.72L353.56,-175.77L355.65,-200.72L331.40,-211.13L305.74,-204.91L287.71,-189.67L336.28,-269.36L278.06,-274.25L277.36,-265.93ZM485.94,-156.27L487.34,-172.91L480.42,-190.24L447.85,-201.36L404.16,-179.89L375.02,-132.08L380.54,-98.11L396.48,-88.40L413.12,-87.00L430.45,-93.92L466.52,-124.40L458.90,-133.42L422.83,-102.94L406.19,-104.33L399.97,-129.99L419.40,-161.86L446.45,-184.72L463.09,-183.32L460.99,-158.37L443.66,-151.45L418.70,-153.54L418.00,-145.23L459.59,-141.73ZM-515.27,-4.12L-523.58,-4.82L-552.03,34.68L-601.94,30.49L-609.56,21.47L-588.03,-35.36L-579.02,-42.98L-545.74,-40.18L-530.51,-22.15L-527.01,-63.74L-545.05,-48.50L-578.32,-51.30L-577.62,-59.61L-556.79,-108.13L-547.78,-115.74L-506.19,-112.25L-484.03,-76.89L-475.71,-76.19L-479.84,-126.79L-513.81,-121.27L-596.99,-128.25L-581.75,-110.22L-634.51,19.37L-660.86,33.92L-544.41,43.69L-528.47,53.41ZM-426.50,-63.68L-452.15,-57.46L-497.23,-19.36L-489.61,-10.34L-444.53,-48.44L-436.21,-47.74L-523.65,95.70L-540.28,94.30L-540.98,102.62L-466.12,108.90L-465.42,100.58L-498.69,97.79L-459.14,25.72L-452.91,51.38L-419.64,54.17L-375.26,24.39L-355.13,-15.80L-360.65,-49.77L-376.59,-59.49L-402.24,-53.27L-420.28,-38.03L-418.88,-54.66ZM-403.64,-36.63L-386.31,-43.55L-380.08,-17.90L-399.51,13.98L-426.56,36.83L-443.20,35.44L-450.12,18.10L-449.42,9.79L-430.69,-13.77ZM-280.90,-101.71L-321.16,-21.33L-369.04,50.04L-361.42,59.06L-344.78,60.45L-305.92,-3.30L-278.87,-26.15L-261.54,-33.08L-253.92,-24.06L-301.79,47.31L-302.49,55.63L-294.87,64.64L-278.24,66.04L-260.90,59.12L-215.82,21.02L-223.44,12.01L-268.52,50.10L-276.84,49.41L-229.66,-13.65L-227.57,-38.60L-251.82,-49.01L-277.48,-42.79L-295.51,-27.55L-246.93,-107.24L-305.16,-112.13L-305.86,-103.81ZM-97.27,5.85L-95.88,-10.79L-102.80,-28.12L-135.37,-39.24L-179.06,-17.77L-208.20,30.04L-202.68,64.01L-186.74,73.72L-170.10,75.12L-152.77,68.20L-116.70,37.72L-124.32,28.71L-160.39,59.18L-177.02,57.79L-183.25,32.13L-163.82,0.26L-136.77,-22.60L-120.13,-21.20L-122.23,3.75L-139.56,10.67L-164.52,8.58L-165.21,16.90L-123.62,20.39ZM35.81,17.02L53.85,1.78L71.18,-5.14L78.80,3.88L30.92,75.25L30.23,83.56L37.85,92.58L54.48,93.98L71.82,87.06L116.90,48.96L109.28,39.94L64.20,78.04L55.88,77.34L103.05,14.29L105.15,-10.66L80.89,-21.08L55.24,-14.85L37.21,0.38L38.61,-16.25L22.67,-25.97L-2.98,-19.74L-30.03,3.12L-20.32,-12.82L-19.62,-21.14L-27.24,-30.16L-52.89,-23.93L-97.97,14.16L-90.35,23.18L-45.27,-14.92L-36.95,-14.22L-94.54,73.09L-86.92,82.10L-70.29,83.50L-31.43,19.75L-4.38,-3.11L12.95,-10.03L20.57,-1.01L-28.00,78.68L-20.38,87.69L-3.74,89.09ZM235.44,33.78L236.84,17.15L229.92,-0.19L197.35,-11.30L153.66,10.16L124.52,57.97L130.04,91.94L145.98,101.66L162.61,103.06L179.95,96.14L216.01,65.66L208.39,56.64L172.33,87.12L155.69,85.72L149.47,60.07L168.90,28.20L195.95,5.34L212.58,6.73L210.49,31.69L193.16,38.61L168.20,36.51L167.50,44.83L209.09,48.32ZM234.74,42.10L242.36,51.12L287.45,13.02L295.76,13.72L238.17,101.02L245.79,110.04L262.43,111.44L301.29,47.69L327.64,33.15L352.59,35.24L363.01,10.99L347.07,1.27L329.73,8.19L301.99,39.37L293.67,38.67L312.40,15.11L313.10,6.80L305.48,-2.22L279.83,4.00ZM479.46,20.76L471.84,11.75L453.11,35.30L446.18,17.97L413.61,6.86L369.23,36.64L349.10,76.83L354.62,110.80L370.56,120.52L387.20,121.91L414.25,99.05L412.85,115.69L420.47,124.71L446.12,118.48L491.20,80.39L483.58,71.37L438.50,109.47L430.18,108.77ZM388.60,105.28L380.28,104.58L374.05,78.93L393.48,47.05L420.53,24.19L437.17,25.59L444.09,42.92L443.39,51.24L415.64,82.42ZM513.36,115.75L601.49,-36.00L543.27,-40.89L542.57,-32.57L567.52,-30.48L488.41,113.66L487.71,121.98L503.65,131.69L529.30,125.47L574.38,87.37L566.76,78.35L521.68,116.45Z" fill="#ffffff" stroke="#000000"/>
    <path d="M-544.51,-220.91L-542.09,-245.57L-520.82,-293.27L-476.50,-322.12L-460.07,-320.51L-445.24,-302.46L-447.66,-277.80L-431.22,-276.19L-413.17,-291.02L-419.78,-308.26L-459.26,-328.73L-483.92,-331.14L-518.40,-317.93L-545.48,-295.69L-564.33,-272.64L-576.58,-232.36L-564.17,-189.65L-532.91,-169.99L-500.03,-166.76L-482.79,-173.37L-464.74,-188.20L-445.88,-211.24L-427.83,-226.07L-477.15,-230.91L-470.54,-213.66L-481.18,-189.81L-490.20,-182.40L-507.45,-175.79L-515.66,-176.60L-538.71,-195.45ZM-427.83,-226.07L-420.42,-217.05L-375.30,-254.11L-367.08,-253.31L-425.26,-167.73L-417.84,-158.71L-401.40,-157.10L-362.08,-219.62L-335.81,-233.64L-311.16,-231.23L-300.52,-255.08L-316.15,-264.91L-333.40,-258.30L-361.28,-227.84L-369.50,-228.65L-350.64,-251.69L-349.83,-259.91L-357.25,-268.94L-382.71,-263.14ZM-185.45,-243.80L-192.87,-252.82L-211.72,-229.78L-218.33,-247.02L-250.40,-258.46L-294.72,-229.62L-315.19,-190.13L-310.19,-156.45L-294.56,-146.62L-278.12,-145.01L-251.05,-167.25L-252.66,-150.81L-245.24,-141.79L-219.78,-147.59L-174.66,-184.65L-182.07,-193.68L-227.19,-156.61L-235.41,-157.42ZM-276.51,-161.45L-284.73,-162.25L-290.53,-187.71L-270.87,-218.98L-243.79,-241.22L-227.36,-239.61L-220.75,-222.36L-221.55,-214.14L-249.43,-183.69ZM-162.25,-141.95L-159.83,-166.60L-167.24,-175.63L-184.49,-169.02L-186.90,-144.36L-171.27,-134.53L-154.83,-132.92L-129.37,-138.72L-111.32,-153.55L-109.71,-169.99L-113.90,-211.89L-112.29,-228.33L-95.05,-234.93L-97.46,-210.28L-90.05,-201.25L-72.81,-207.86L-70.39,-232.52L-94.24,-243.15L-127.92,-238.16L-137.75,-222.52L-139.36,-206.09L-134.37,-172.41L-135.98,-155.97L-154.03,-141.14ZM-3.83,-234.29L-29.29,-228.49L-74.42,-191.42L-67.00,-182.40L-21.88,-219.46L-13.66,-218.66L-102.14,-77.97L-118.57,-79.58L-119.38,-71.36L-45.41,-64.11L-44.60,-72.33L-77.48,-75.55L-37.35,-146.30L-31.55,-120.83L1.33,-117.61L45.64,-146.46L66.11,-185.94L61.12,-219.62L45.48,-229.45L20.02,-223.65L1.97,-208.83L3.58,-225.26ZM18.41,-207.21L35.65,-213.82L41.45,-188.36L21.79,-157.10L-5.28,-134.86L-21.72,-136.47L-28.33,-153.71L-27.52,-161.93L-8.67,-184.98ZM159.10,-118.74L208.25,-196.90L232.91,-194.48L233.71,-202.70L209.06,-205.12L228.72,-236.38L212.28,-238.00L201.64,-214.14L184.40,-207.54L167.96,-209.15L167.16,-200.93L183.59,-199.32L134.44,-121.16L133.64,-112.94L141.05,-103.91L157.49,-102.30L174.73,-108.91L219.85,-145.98L212.44,-155.00L167.32,-117.93ZM296.89,-254.60L255.95,-175.63L207.61,-105.69L215.02,-96.66L231.46,-95.05L270.78,-157.58L297.85,-179.82L315.10,-186.43L322.51,-177.40L274.16,-107.46L273.36,-99.24L280.77,-90.22L297.21,-88.60L314.45,-95.21L359.58,-132.28L352.16,-141.30L307.04,-104.24L298.82,-105.04L346.36,-166.76L348.78,-191.42L324.93,-202.06L299.47,-196.26L281.42,-181.43L330.57,-259.59L273.04,-265.23L272.23,-257.01ZM477.06,-145.65L478.67,-162.09L472.07,-179.33L439.99,-190.78L396.48,-170.15L366.99,-123.25L371.99,-89.57L387.62,-79.74L404.06,-78.13L421.30,-84.74L457.40,-114.39L449.99,-123.41L413.89,-93.76L397.45,-95.37L391.65,-120.83L411.31,-152.10L438.38,-174.34L454.82,-172.73L452.40,-148.07L435.16,-141.46L410.50,-143.88L409.70,-135.66L450.79,-131.63ZM-515.50,-8.96L-523.72,-9.77L-552.41,28.91L-601.72,24.08L-609.14,15.05L-587.06,-40.87L-578.03,-48.28L-545.16,-45.06L-530.33,-27.01L-526.30,-68.10L-544.35,-53.28L-577.23,-56.50L-576.42,-64.72L-555.15,-112.42L-546.12,-119.84L-505.03,-115.81L-483.59,-80.51L-475.38,-79.71L-478.76,-129.83L-512.44,-124.83L-594.63,-132.89L-579.81,-114.84L-633.79,12.64L-660.06,26.66L-545.00,37.94L-529.36,47.77ZM-426.87,-66.65L-452.33,-60.85L-497.45,-23.79L-490.04,-14.76L-444.92,-51.83L-436.70,-51.02L-525.17,89.67L-541.61,88.06L-542.42,96.28L-468.45,103.53L-467.64,95.31L-500.52,92.09L-460.39,21.34L-454.59,46.80L-421.71,50.02L-377.39,21.18L-356.93,-18.31L-361.92,-51.99L-377.55,-61.82L-403.02,-56.02L-421.07,-41.19L-419.45,-57.63ZM-404.63,-39.58L-387.38,-46.19L-381.58,-20.72L-401.24,10.54L-428.32,32.78L-444.76,31.17L-451.36,13.92L-450.56,5.71L-431.70,-17.34ZM-282.31,-102.27L-323.24,-23.30L-371.59,46.64L-364.18,55.66L-347.74,57.28L-308.42,-5.25L-281.34,-27.49L-264.10,-34.10L-256.69,-25.08L-305.03,44.87L-305.84,53.09L-298.43,62.11L-281.99,63.72L-264.74,57.11L-219.62,20.05L-227.03,11.02L-272.16,48.09L-280.38,47.28L-232.83,-14.44L-230.42,-39.10L-254.27,-49.73L-279.73,-43.93L-297.78,-29.10L-248.63,-107.27L-306.16,-112.91L-306.97,-104.69ZM-102.14,6.67L-100.52,-9.77L-107.13,-27.01L-139.20,-38.45L-182.71,-17.82L-212.21,29.07L-207.21,62.75L-191.58,72.59L-175.14,74.20L-157.90,67.59L-121.80,37.94L-129.21,28.91L-165.31,58.56L-181.75,56.95L-187.55,31.49L-167.89,0.23L-140.81,-22.01L-124.38,-20.40L-126.79,4.25L-144.04,10.86L-168.69,8.45L-169.50,16.66L-128.40,20.69ZM29.37,19.56L47.42,4.74L64.66,-1.87L72.07,7.16L23.73,77.10L22.92,85.32L30.33,94.34L46.77,95.95L64.02,89.35L109.14,52.28L101.73,43.25L56.60,80.32L48.38,79.52L95.93,17.79L98.34,-6.86L74.49,-17.50L49.03,-11.70L30.98,3.13L32.59,-13.31L16.96,-23.14L-8.50,-17.34L-35.58,4.90L-25.75,-10.73L-24.94,-18.95L-32.36,-27.98L-57.82,-22.17L-102.94,14.89L-95.53,23.92L-50.40,-13.15L-42.19,-12.34L-100.36,73.23L-92.95,82.25L-76.51,83.87L-37.19,21.34L-10.12,-0.90L7.13,-7.51L14.54,1.52L-34.61,79.68L-27.20,88.70L-10.76,90.31ZM226.62,38.90L228.24,22.47L221.63,5.22L189.56,-6.22L146.05,14.41L116.55,61.30L121.55,94.99L137.18,104.82L153.62,106.43L170.86,99.82L206.96,70.17L199.55,61.14L163.45,90.80L147.01,89.18L141.21,63.72L160.87,32.46L187.95,10.22L204.38,11.83L201.97,36.49L184.72,43.09L160.07,40.68L159.26,48.90L200.35,52.92ZM225.82,47.12L233.23,56.15L278.35,19.08L286.57,19.89L228.40,105.46L235.81,114.49L252.25,116.10L291.57,53.57L317.84,39.55L342.50,41.97L353.13,18.11L337.50,8.28L320.26,14.89L292.38,45.35L284.16,44.54L303.01,21.50L303.82,13.28L296.40,4.25L270.94,10.06ZM468.20,29.40L460.78,20.37L441.93,43.42L435.32,26.17L403.25,14.73L358.93,43.58L338.47,83.06L343.46,116.74L359.09,126.57L375.53,128.18L402.61,105.94L401.00,122.38L408.41,131.41L433.87,125.61L478.99,88.54L471.58,79.52L426.46,116.58L418.24,115.78ZM377.14,111.75L368.92,110.94L363.12,85.48L382.78,54.21L409.86,31.97L426.30,33.59L432.90,50.83L432.10,59.05L404.22,89.51ZM500.43,123.83L589.71,-25.08L532.18,-30.72L531.37,-22.50L556.03,-20.08L475.77,121.42L474.97,129.63L490.60,139.47L516.06,133.66L561.18,96.60L553.77,87.57L508.65,124.64Z" fill="#ffffff" stroke="#000000"/>
    <path d="M-541.35,-223.91L-538.61,-248.27L-516.91,-295.16L-472.68,-323.08L-456.44,-321.26L-442.02,-303.20L-444.76,-278.84L-428.52,-277.02L-410.46,-291.44L-416.76,-308.59L-455.53,-329.38L-479.89,-332.11L-514.18,-319.51L-541.27,-297.89L-560.24,-275.35L-572.91,-235.67L-561.23,-193.26L-530.57,-173.38L-498.10,-169.73L-480.95,-176.03L-462.89,-190.45L-443.92,-212.98L-425.86,-227.40L-474.58,-232.86L-468.28,-215.71L-479.13,-192.27L-488.16,-185.06L-505.31,-178.76L-513.42,-179.67L-535.96,-198.64ZM-425.86,-227.40L-418.66,-218.37L-373.51,-254.41L-365.39,-253.50L-424.12,-169.66L-416.91,-160.63L-400.67,-158.81L-360.91,-220.11L-334.74,-233.62L-310.38,-230.89L-299.53,-254.33L-314.86,-264.27L-332.01,-257.98L-360.00,-228.23L-368.12,-229.14L-349.15,-251.68L-348.24,-259.80L-355.45,-268.83L-380.72,-263.44ZM-185.87,-241.59L-193.08,-250.62L-212.05,-228.08L-218.34,-245.23L-249.91,-256.99L-294.14,-229.07L-314.93,-190.29L-310.46,-156.91L-295.13,-146.97L-278.89,-145.15L-251.81,-166.77L-253.63,-150.54L-246.42,-141.51L-221.15,-146.89L-176.01,-182.93L-183.21,-191.96L-228.36,-155.92L-236.48,-156.83ZM-277.07,-161.39L-285.19,-162.30L-290.58,-187.56L-270.70,-218.22L-243.61,-239.84L-227.37,-238.02L-221.08,-220.87L-221.99,-212.75L-249.98,-183.01ZM-164.32,-140.52L-161.59,-164.88L-168.80,-173.90L-185.94,-167.61L-188.68,-143.25L-173.35,-133.31L-157.11,-131.49L-131.85,-136.88L-113.79,-151.29L-111.97,-167.53L-115.53,-209.04L-113.71,-225.27L-96.56,-231.57L-99.29,-207.21L-92.09,-198.18L-74.94,-204.48L-72.21,-228.84L-95.65,-239.69L-129.04,-235.21L-138.98,-219.89L-140.80,-203.65L-136.32,-170.26L-138.14,-154.03L-156.20,-139.61ZM-6.35,-229.67L-31.61,-224.29L-76.76,-188.25L-69.55,-179.22L-24.41,-215.26L-16.29,-214.35L-105.74,-76.40L-121.98,-78.23L-122.89,-70.11L-49.82,-61.91L-48.91,-70.03L-81.39,-73.67L-40.72,-143.10L-35.33,-117.83L-2.86,-114.19L41.38,-142.11L62.17,-180.88L57.69,-214.27L42.37,-224.21L17.10,-218.82L-0.96,-204.41L0.86,-220.64ZM15.28,-202.59L32.43,-208.88L37.81,-183.62L17.93,-152.96L-9.15,-131.34L-25.39,-133.16L-31.69,-150.31L-30.78,-158.43L-11.81,-180.96ZM153.22,-113.13L202.92,-189.76L227.27,-187.03L228.18,-195.15L203.83,-197.88L223.71,-228.53L207.47,-230.35L196.62,-206.91L179.47,-200.61L163.24,-202.43L162.32,-194.31L178.56,-192.49L128.86,-115.86L127.95,-107.74L135.16,-98.71L151.40,-96.89L168.55,-103.19L213.69,-139.23L206.48,-148.26L161.34,-112.22ZM291.39,-245.61L249.81,-168.06L201.02,-99.54L208.23,-90.52L224.47,-88.69L264.23,-150.00L291.31,-171.63L308.46,-177.92L315.67,-168.89L266.88,-100.38L265.97,-92.26L273.18,-83.23L289.42,-81.41L306.56,-87.71L351.71,-123.75L344.50,-132.78L299.36,-96.74L291.24,-97.65L339.12,-158.04L341.85,-182.40L318.40,-193.25L293.13,-187.86L275.08,-173.45L324.77,-250.08L267.94,-256.46L267.03,-248.34ZM468.10,-135.36L469.92,-151.59L463.63,-168.74L432.06,-180.50L388.74,-160.70L358.92,-114.72L363.39,-81.33L378.72,-71.39L394.96,-69.57L412.11,-75.87L448.22,-104.70L441.02,-113.73L404.90,-84.90L388.66,-86.72L383.27,-111.99L403.15,-142.64L430.24,-164.27L446.48,-162.44L443.75,-138.09L426.60,-131.79L402.24,-134.52L401.33,-126.40L441.93,-121.85ZM-515.58,-13.85L-523.70,-14.77L-552.61,23.10L-601.32,17.63L-608.53,8.60L-585.92,-46.41L-576.89,-53.61L-544.41,-49.97L-530.00,-31.91L-525.44,-72.51L-543.50,-58.09L-575.98,-61.73L-575.07,-69.85L-553.37,-116.74L-544.34,-123.95L-503.74,-119.40L-483.03,-84.19L-474.91,-83.28L-477.57,-132.90L-510.95,-128.43L-592.14,-137.53L-577.72,-119.47L-632.88,5.87L-659.06,19.38L-545.40,32.13L-530.07,42.07ZM-427.11,-69.70L-452.38,-64.31L-497.52,-28.27L-490.31,-19.24L-445.17,-55.28L-437.05,-54.37L-526.51,83.57L-542.74,81.75L-543.65,89.87L-470.59,98.06L-469.68,89.94L-502.15,86.30L-461.48,16.88L-456.09,42.14L-423.62,45.78L-379.38,17.86L-358.59,-20.91L-363.07,-54.30L-378.40,-64.24L-403.66,-58.85L-421.72,-44.43L-419.90,-60.67ZM-405.48,-42.61L-388.34,-48.91L-382.95,-23.64L-402.83,7.01L-429.92,28.64L-446.15,26.82L-452.45,9.67L-451.54,1.55L-432.57,-20.99ZM-283.63,-102.93L-325.21,-25.39L-374.00,43.13L-366.79,52.16L-350.55,53.98L-310.79,-7.33L-283.70,-28.95L-266.56,-35.25L-259.35,-26.22L-308.14,42.29L-309.05,50.41L-301.84,59.44L-285.60,61.26L-268.45,54.97L-223.31,18.93L-230.52,9.90L-275.66,45.94L-283.78,45.03L-235.90,-15.37L-233.17,-39.73L-256.62,-50.58L-281.88,-45.19L-299.94,-30.77L-250.24,-107.41L-307.07,-113.78L-307.98,-105.66ZM-106.91,7.32L-105.09,-8.92L-111.39,-26.07L-142.95,-37.83L-186.28,-18.03L-216.10,27.95L-211.62,61.34L-196.30,71.28L-180.06,73.10L-162.91,66.80L-126.79,37.97L-134.00,28.94L-170.12,57.77L-186.36,55.95L-191.74,30.69L-171.86,0.03L-144.78,-21.59L-128.54,-19.77L-131.27,4.59L-148.42,10.88L-172.77,8.15L-173.68,16.27L-133.09,20.82ZM22.99,21.89L41.04,7.47L58.19,1.17L65.40,10.20L16.61,78.72L15.70,86.84L22.91,95.86L39.15,97.69L56.29,91.39L101.44,55.35L94.23,46.32L49.09,82.36L40.97,81.45L88.85,21.05L91.58,-3.30L68.13,-14.15L42.87,-8.77L24.81,5.65L26.63,-10.59L11.30,-20.53L-13.97,-15.14L-41.05,6.48L-31.11,-8.84L-30.20,-16.96L-37.41,-25.99L-62.68,-20.61L-107.82,15.44L-100.62,24.46L-55.47,-11.58L-47.35,-10.67L-106.08,73.18L-98.87,82.21L-82.63,84.03L-42.87,22.72L-15.79,1.10L1.36,-5.20L8.57,3.83L-41.13,80.46L-33.92,89.49L-17.68,91.31ZM217.83,43.74L219.66,27.50L213.36,10.35L181.79,-1.41L138.47,18.40L108.65,64.38L113.13,97.76L128.45,107.70L144.69,109.52L161.84,103.23L197.95,74.39L190.75,65.36L154.63,94.20L138.39,92.37L133.01,67.11L152.88,36.45L179.97,14.83L196.21,16.65L193.48,41.01L176.33,47.30L151.97,44.57L151.06,52.69L191.66,57.24ZM216.92,51.86L224.13,60.89L269.28,24.85L277.40,25.76L218.67,109.60L225.88,118.63L242.11,120.45L281.87,59.14L308.05,45.64L332.41,48.37L343.26,24.92L327.93,14.98L310.78,21.28L282.78,51.02L274.67,50.11L293.63,27.58L294.54,19.46L287.34,10.43L262.07,15.82ZM456.92,37.67L449.71,28.64L430.74,51.18L424.44,34.03L392.88,22.27L348.64,50.19L327.85,88.96L332.33,122.35L347.66,132.29L363.89,134.11L390.98,112.48L389.16,128.72L396.37,137.75L421.64,132.36L466.78,96.32L459.57,87.29L414.43,123.33L406.31,122.42ZM365.72,117.87L357.60,116.96L352.21,91.69L372.09,61.04L399.18,39.41L415.41,41.24L421.71,58.38L420.80,66.50L392.80,96.25ZM487.50,131.53L577.86,-14.53L521.03,-20.91L520.12,-12.79L544.48,-10.06L463.14,128.80L462.23,136.92L477.56,146.86L502.82,141.47L547.97,105.43L540.76,96.40L495.61,132.44Z" fill="#ffffff" stroke="#000000"/>
    <path d="M-538.08,-226.90L-535.04,-250.96L-512.93,-297.03L-468.79,-324.04L-452.76,-322.01L-438.75,-303.95L-441.79,-279.90L-425.75,-277.88L-407.69,-291.89L-413.69,-308.93L-451.75,-330.03L-475.80,-333.07L-509.89,-321.08L-536.98,-300.07L-556.05,-278.05L-569.13,-238.97L-558.16,-196.86L-528.12,-176.78L-496.05,-172.73L-479.00,-178.72L-460.94,-192.73L-441.87,-214.75L-423.81,-228.76L-471.92,-234.84L-465.92,-217.79L-476.98,-194.75L-486.01,-187.75L-503.06,-181.76L-511.07,-182.77L-533.10,-201.84ZM-423.81,-228.76L-416.81,-219.73L-371.66,-254.75L-363.64,-253.74L-422.88,-171.63L-415.88,-162.60L-399.85,-160.57L-359.68,-220.66L-333.60,-233.66L-309.55,-230.62L-298.49,-253.66L-313.51,-263.70L-330.56,-257.71L-358.66,-228.68L-366.68,-229.69L-347.61,-251.72L-346.60,-259.73L-353.60,-268.76L-378.66,-263.78ZM-186.25,-239.48L-193.26,-248.51L-212.33,-226.48L-218.32,-243.53L-249.38,-255.60L-293.51,-228.59L-314.61,-190.53L-310.64,-157.45L-295.62,-147.41L-279.59,-145.38L-252.50,-166.40L-254.53,-150.36L-247.52,-141.33L-222.46,-146.31L-177.31,-181.33L-184.31,-190.36L-229.46,-155.34L-237.48,-156.35ZM-277.56,-161.42L-285.58,-162.43L-290.56,-187.49L-270.48,-217.54L-243.39,-238.55L-227.35,-236.53L-221.36,-219.48L-222.37,-211.46L-250.47,-182.43ZM-166.34,-139.22L-163.30,-163.27L-170.30,-172.30L-187.35,-166.31L-190.39,-142.26L-175.37,-132.22L-159.33,-130.19L-134.27,-135.17L-116.21,-149.18L-114.18,-165.22L-117.14,-206.31L-115.11,-222.35L-98.07,-228.34L-101.10,-204.29L-94.10,-195.26L-77.05,-201.25L-74.01,-225.30L-97.05,-236.36L-130.13,-232.39L-140.18,-217.37L-142.20,-201.33L-138.24,-168.25L-140.26,-152.22L-158.32,-138.21ZM-8.86,-225.22L-33.93,-220.24L-79.08,-185.22L-72.07,-176.19L-26.92,-211.21L-18.91,-210.20L-109.29,-75.00L-125.32,-77.03L-126.34,-69.01L-54.18,-59.90L-53.17,-67.91L-85.24,-71.96L-44.06,-140.07L-39.08,-115.00L-7.01,-110.95L37.13,-137.96L58.23,-176.02L54.26,-209.10L39.24,-219.14L14.17,-214.16L-3.89,-200.15L-1.86,-216.19ZM12.15,-198.13L29.20,-204.12L34.17,-179.06L14.09,-149.01L-13.00,-128.00L-29.03,-130.03L-35.03,-147.07L-34.01,-155.09L-14.94,-177.12ZM147.34,-107.75L197.55,-182.85L221.61,-179.82L222.62,-187.83L198.57,-190.87L218.65,-220.91L202.62,-222.94L191.56,-199.90L174.52,-193.91L158.48,-195.93L157.47,-187.92L173.50,-185.89L123.29,-110.78L122.28,-102.77L129.28,-93.74L145.32,-91.71L162.36,-97.70L207.51,-132.73L200.51,-141.76L155.36,-106.73ZM285.83,-236.86L243.63,-160.74L194.43,-93.65L201.44,-84.62L217.47,-82.60L257.64,-142.68L284.73,-163.70L301.78,-169.69L308.78,-160.66L259.58,-93.57L258.57,-85.55L265.57,-76.52L281.61,-74.50L298.65,-80.49L343.80,-115.51L336.80,-124.54L291.65,-89.52L283.63,-90.53L331.82,-149.60L334.86,-173.66L311.82,-184.71L286.76,-179.73L268.70,-165.72L318.91,-240.83L262.79,-247.92L261.78,-239.90ZM459.08,-125.38L461.11,-141.42L455.11,-158.47L424.06,-170.53L380.93,-151.55L350.81,-106.48L354.77,-73.40L369.80,-63.36L385.83,-61.33L402.88,-67.32L439.00,-95.34L431.99,-104.37L395.87,-76.35L379.84,-78.38L374.86,-103.44L394.94,-133.49L422.03,-154.50L438.07,-152.47L435.03,-128.42L417.98,-122.43L393.93,-125.47L392.92,-117.45L433.00,-112.39ZM-515.49,-18.80L-523.51,-19.81L-552.63,17.24L-600.73,11.16L-607.73,2.13L-584.61,-51.96L-575.58,-58.97L-543.51,-54.92L-529.50,-36.86L-524.44,-76.94L-542.50,-62.93L-574.57,-66.98L-573.55,-75.00L-551.44,-121.08L-542.41,-128.08L-502.33,-123.02L-482.33,-87.91L-474.31,-86.90L-476.25,-136.02L-509.33,-132.05L-589.50,-142.18L-575.50,-124.12L-631.78,-0.91L-657.86,12.09L-545.62,26.27L-530.60,36.31ZM-427.22,-72.81L-452.29,-67.83L-497.43,-32.81L-490.43,-23.78L-445.28,-58.80L-437.26,-57.79L-527.65,77.41L-543.68,75.38L-544.69,83.40L-472.54,92.51L-471.53,84.50L-503.59,80.45L-462.41,12.34L-457.43,37.41L-425.37,41.46L-381.23,14.45L-360.13,-23.61L-364.10,-56.69L-379.12,-66.73L-404.18,-61.75L-422.24,-47.74L-420.22,-63.78ZM-406.21,-45.72L-389.16,-51.71L-384.18,-26.65L-404.27,3.40L-431.36,24.41L-447.39,22.38L-453.38,5.34L-452.37,-2.68L-433.30,-24.71ZM-284.86,-103.69L-327.05,-27.57L-376.25,39.52L-369.25,48.55L-353.21,50.57L-313.04,-9.52L-285.95,-30.53L-268.91,-36.52L-261.90,-27.49L-311.10,39.60L-312.11,47.62L-305.11,56.65L-289.07,58.67L-272.03,52.68L-226.88,17.66L-233.88,8.63L-279.03,43.65L-287.05,42.64L-238.86,-16.44L-235.82,-40.49L-258.86,-51.54L-283.93,-46.56L-301.99,-32.55L-251.77,-107.66L-307.89,-114.75L-308.91,-106.73ZM-111.60,7.78L-109.58,-8.25L-115.57,-25.30L-146.62,-37.36L-189.75,-18.38L-219.87,26.69L-215.91,59.77L-200.89,69.81L-184.85,71.84L-167.81,65.85L-131.69,37.83L-138.69,28.80L-174.81,56.82L-190.84,54.79L-195.82,29.73L-175.74,-0.32L-148.65,-21.33L-132.61,-19.30L-135.65,4.75L-152.70,10.74L-176.75,7.70L-177.76,15.72L-137.68,20.78ZM16.67,23.99L34.73,9.98L51.78,3.99L58.78,13.02L9.58,80.11L8.57,88.12L15.58,97.15L31.61,99.18L48.66,93.19L93.81,58.17L86.80,49.14L41.65,84.16L33.63,83.15L81.82,24.07L84.86,0.02L61.82,-11.03L36.76,-6.06L18.70,7.95L20.72,-8.08L5.70,-18.12L-19.36,-13.14L-46.45,7.87L-36.41,-7.15L-35.40,-15.17L-42.40,-24.20L-67.47,-19.22L-112.61,15.80L-105.61,24.83L-60.46,-10.19L-52.44,-9.18L-111.69,72.93L-104.68,81.96L-88.65,83.99L-48.48,23.90L-21.39,2.89L-4.34,-3.10L2.66,5.93L-47.55,81.04L-40.54,90.07L-24.51,92.09ZM209.08,48.29L211.11,32.26L205.12,15.21L174.06,3.14L130.94,22.13L100.81,67.20L104.78,100.28L119.80,110.32L135.83,112.34L152.88,106.35L189.00,78.33L181.99,69.30L145.87,97.32L129.84,95.30L124.86,70.23L144.95,40.19L172.04,19.18L188.07,21.20L185.03,45.25L167.98,51.25L143.93,48.21L142.92,56.22L183.01,61.29ZM208.07,56.31L215.07,65.34L260.22,30.32L268.24,31.33L209.00,113.44L216.00,122.47L232.04,124.50L272.21,64.41L298.28,51.41L322.33,54.45L333.39,31.41L318.37,21.37L301.32,27.36L273.22,56.39L265.20,55.38L284.27,33.35L285.29,25.34L278.28,16.31L253.22,21.29ZM445.63,45.59L438.62,36.56L419.55,58.59L413.56,41.54L382.50,29.47L338.37,56.48L317.27,94.54L321.24,127.62L336.26,137.66L352.29,139.69L379.38,118.67L377.36,134.71L384.36,143.74L409.43,138.76L454.57,103.74L447.57,94.71L402.42,129.73L394.40,128.72ZM354.32,123.65L346.30,122.64L341.32,97.58L361.41,67.53L388.50,46.52L404.53,48.54L410.52,65.59L409.51,73.61L381.41,102.64ZM474.57,138.84L565.97,-4.37L509.85,-11.46L508.84,-3.44L532.89,-0.40L450.52,135.80L449.51,143.82L464.53,153.86L489.60,148.88L534.75,113.86L527.74,104.83L482.59,139.85Z" fill="#ffffff" stroke="#000000"/>
    <path d="M-534.70,-229.90L-531.37,-253.64L-508.87,-298.90L-464.85,-325.00L-449.02,-322.77L-435.41,-304.72L-438.75,-280.98L-422.92,-278.75L-404.87,-292.36L-410.56,-309.30L-447.90,-330.69L-471.65,-334.02L-505.53,-322.64L-532.61,-302.24L-551.77,-280.72L-565.25,-242.26L-554.98,-200.46L-525.55,-180.19L-493.89,-175.74L-476.95,-181.43L-458.90,-195.03L-439.73,-216.55L-421.68,-230.15L-469.16,-236.83L-463.47,-219.89L-474.73,-197.26L-483.75,-190.45L-500.69,-184.76L-508.61,-185.88L-530.12,-205.04ZM-421.68,-230.15L-414.88,-221.13L-369.75,-255.14L-361.83,-254.03L-421.55,-173.64L-414.75,-164.62L-398.92,-162.39L-358.37,-221.26L-332.40,-233.75L-308.66,-230.41L-297.40,-253.04L-312.12,-263.18L-329.06,-257.49L-357.25,-229.17L-365.17,-230.28L-346.00,-251.80L-344.89,-259.72L-351.69,-268.74L-376.55,-264.17ZM-186.61,-237.47L-193.41,-246.50L-212.57,-224.98L-218.26,-241.92L-248.81,-254.29L-292.83,-228.19L-314.22,-190.84L-310.75,-158.07L-296.03,-147.93L-280.21,-145.71L-253.13,-166.12L-255.35,-150.29L-248.55,-141.26L-223.69,-145.84L-178.56,-179.85L-185.36,-188.88L-230.50,-154.87L-238.41,-155.98ZM-277.98,-161.54L-285.90,-162.65L-290.47,-187.51L-270.20,-216.94L-243.12,-237.34L-227.29,-235.12L-221.60,-218.18L-222.71,-210.27L-250.90,-181.95ZM-168.29,-138.05L-164.96,-161.80L-171.76,-170.82L-188.70,-165.13L-192.04,-141.39L-177.32,-131.25L-161.49,-129.03L-136.64,-133.61L-118.58,-147.21L-116.36,-163.04L-118.71,-203.72L-116.49,-219.55L-99.55,-225.24L-102.89,-201.50L-96.08,-192.47L-79.14,-198.16L-75.81,-221.90L-98.44,-233.15L-131.21,-229.69L-141.34,-214.97L-143.57,-199.14L-140.10,-166.38L-142.33,-150.55L-160.38,-136.94ZM-11.38,-220.92L-36.23,-216.34L-81.37,-182.33L-74.56,-173.31L-29.43,-207.32L-21.52,-206.20L-112.77,-73.76L-128.59,-75.98L-129.71,-68.07L-58.48,-58.06L-57.37,-65.97L-89.02,-70.42L-47.36,-137.20L-42.78,-112.35L-11.12,-107.90L32.90,-133.99L54.29,-171.34L50.82,-204.11L36.11,-214.25L11.25,-209.67L-6.80,-196.07L-4.58,-211.89ZM9.03,-193.84L25.97,-199.53L30.54,-174.68L10.27,-145.24L-16.81,-124.84L-32.64,-127.06L-38.33,-144.00L-37.22,-151.92L-18.05,-173.44ZM141.47,-102.60L192.17,-176.18L215.91,-172.84L217.02,-180.75L193.28,-184.09L213.56,-213.52L197.73,-215.75L186.48,-193.12L169.54,-187.43L153.71,-189.65L152.59,-181.74L168.42,-179.51L117.73,-105.93L116.62,-98.02L123.42,-88.99L139.25,-86.77L156.19,-92.46L201.32,-126.47L194.52,-135.49L149.39,-101.48ZM280.21,-228.37L237.43,-153.68L187.85,-88.01L194.65,-78.98L210.48,-76.76L251.03,-135.62L278.11,-156.03L295.05,-161.72L301.85,-152.69L252.27,-87.03L251.16,-79.11L257.96,-70.08L273.79,-67.86L290.73,-73.55L335.86,-107.56L329.06,-116.59L283.93,-82.58L276.02,-83.69L324.48,-141.44L327.82,-165.18L305.19,-176.44L280.33,-171.86L262.28,-158.25L312.97,-231.84L257.57,-239.62L256.46,-231.71ZM450.00,-115.73L452.22,-131.56L446.53,-148.50L415.99,-160.87L373.08,-142.68L342.67,-98.53L346.13,-65.77L360.85,-55.63L376.68,-53.40L393.62,-59.09L429.72,-86.30L422.92,-95.33L386.81,-68.12L370.99,-70.34L366.41,-95.20L386.69,-124.63L413.76,-145.04L429.59,-142.81L426.26,-119.07L409.32,-113.38L385.57,-116.72L384.46,-108.80L424.03,-103.24ZM-515.24,-23.78L-523.16,-24.90L-552.46,11.34L-599.95,4.67L-606.75,-4.36L-583.14,-57.54L-574.11,-64.34L-542.45,-59.89L-528.85,-41.84L-523.29,-81.41L-541.34,-67.80L-573.00,-72.25L-571.88,-80.17L-549.38,-125.43L-540.36,-132.23L-500.79,-126.67L-481.49,-91.68L-473.58,-90.56L-474.82,-139.16L-507.59,-135.70L-586.73,-146.82L-573.13,-128.76L-630.49,-7.70L-656.46,4.79L-545.66,20.36L-530.94,30.50ZM-427.20,-75.98L-452.06,-71.40L-497.19,-37.39L-490.39,-28.36L-445.26,-62.37L-437.34,-61.26L-528.59,71.19L-544.42,68.96L-545.53,76.88L-474.30,86.89L-473.19,78.97L-504.85,74.52L-463.18,7.74L-458.60,32.60L-426.95,37.05L-382.93,10.95L-361.54,-26.40L-365.00,-59.17L-379.72,-69.30L-404.57,-64.73L-422.63,-51.12L-420.40,-66.95ZM-406.80,-48.90L-389.86,-54.59L-385.28,-29.73L-405.56,-0.30L-432.64,20.11L-448.46,17.88L-454.15,0.94L-453.04,-6.97L-433.88,-28.49ZM-285.99,-104.56L-328.77,-29.86L-378.35,35.81L-371.55,44.83L-355.72,47.06L-315.16,-11.81L-288.08,-32.22L-271.14,-37.91L-264.34,-28.88L-313.92,36.79L-315.03,44.70L-308.23,53.73L-292.40,55.95L-275.46,50.26L-230.33,16.25L-237.13,7.23L-282.26,41.24L-290.18,40.12L-241.71,-17.63L-238.37,-41.37L-261.00,-52.62L-285.86,-48.04L-303.91,-34.44L-253.22,-108.02L-308.62,-115.81L-309.73,-107.89ZM-116.19,8.08L-113.97,-7.75L-119.66,-24.69L-150.21,-37.05L-193.11,-18.87L-223.53,25.28L-220.06,58.05L-205.35,68.19L-189.52,70.41L-172.58,64.72L-136.47,37.51L-143.27,28.49L-179.38,55.69L-195.21,53.47L-199.79,28.62L-179.51,-0.82L-152.43,-21.22L-136.60,-19.00L-139.94,4.74L-156.88,10.43L-180.62,7.10L-181.73,15.01L-142.16,20.57ZM10.43,25.87L28.49,12.27L45.43,6.58L52.23,15.61L2.65,81.27L1.54,89.19L8.34,98.21L24.17,100.44L41.11,94.75L86.24,60.74L79.44,51.71L34.30,85.72L26.39,84.61L74.86,26.86L78.20,3.11L55.56,-8.14L30.71,-3.56L12.66,10.05L14.88,-5.78L0.17,-15.92L-24.69,-11.34L-51.77,9.06L-41.63,-5.65L-40.52,-13.57L-47.32,-22.59L-72.18,-18.02L-117.31,15.99L-110.50,25.02L-65.37,-8.99L-57.46,-7.88L-117.18,72.51L-110.38,81.53L-94.55,83.76L-53.99,24.89L-26.91,4.48L-9.97,-1.21L-3.17,7.82L-53.86,81.40L-47.06,90.43L-31.23,92.65ZM200.37,52.57L202.60,36.74L196.91,19.80L166.36,7.43L123.46,25.62L93.04,69.76L96.51,102.53L111.22,112.67L127.05,114.90L143.99,109.21L180.10,82.00L173.30,72.97L137.19,100.18L121.36,97.96L116.78,73.10L137.06,43.67L164.14,23.26L179.97,25.49L176.63,49.23L159.69,54.92L135.95,51.58L134.84,59.50L174.41,65.06ZM199.26,60.48L206.06,69.51L251.20,35.50L259.11,36.61L199.39,116.99L206.19,126.02L222.02,128.24L262.58,69.38L288.54,56.88L312.29,60.22L323.54,37.59L308.82,27.45L291.88,33.14L263.69,61.46L255.77,60.35L274.94,38.83L276.05,30.92L269.25,21.89L244.39,26.47ZM434.34,53.16L427.53,44.13L408.37,65.65L402.68,48.71L372.13,36.35L328.11,62.45L306.73,99.79L310.19,132.56L324.91,142.70L340.74,144.92L367.82,124.52L365.59,140.35L372.39,149.37L397.25,144.79L442.38,110.78L435.58,101.76L390.45,135.77L382.53,134.66ZM342.96,129.10L335.05,127.98L330.47,103.13L350.75,73.70L377.82,53.29L393.65,55.51L399.34,72.45L398.23,80.37L370.04,108.69ZM461.67,145.78L554.03,5.42L498.63,-2.37L497.52,5.55L521.26,8.88L437.93,142.44L436.82,150.36L451.54,160.49L476.39,155.92L521.52,121.91L514.72,112.88L469.59,146.89Z" fill="#ffffff" stroke="#000000"/>
    <path d="M-903.88,492L-906.92,488.96L-902.36,482.88L-893.24,482.88L-891.72,484.40L-891.72,488.96L-894.76,492L-884.12,492L-887.16,488.96L-887.16,460.08L-891.72,463.12L-891.72,464.64L-909.96,488.96L-914.52,492ZM-891.72,467.68L-891.72,479.84L-893.24,481.36L-900.84,481.36L-899.32,478.32ZM-862.84,476.80L-864.36,481.36L-870.44,487.44L-875,488.96L-876.52,488.96L-867.40,475.28L-867.40,472.24L-870.44,470.72L-875,472.24L-882.60,479.84L-881.08,481.36L-873.48,473.76L-871.96,473.76L-881.08,488.96L-881.08,490.48L-879.56,492L-876.52,492L-868.92,488.96L-862.84,482.88L-859.80,476.80L-859.80,473.76L-861.32,472.24L-864.36,472.24L-865.88,475.28L-864.36,476.80ZM-835.48,472.24L-837,470.72L-840.04,475.28L-841.56,472.24L-847.64,470.72L-855.24,476.80L-858.28,484.40L-856.76,490.48L-853.72,492L-850.68,492L-846.12,487.44L-846.12,490.48L-844.60,492L-840.04,490.48L-832.44,482.88L-833.96,481.36L-841.56,488.96L-843.08,488.96ZM-850.68,488.96L-852.20,488.96L-853.72,484.40L-850.68,478.32L-846.12,473.76L-843.08,473.76L-841.56,476.80L-841.56,478.32L-846.12,484.40ZM-832.44,479.84L-830.92,481.36L-823.32,473.76L-821.80,473.76L-830.92,490.48L-829.40,492L-826.36,492L-820.28,479.84L-815.72,476.80L-811.16,476.80L-809.64,472.24L-812.68,470.72L-815.72,472.24L-820.28,478.32L-821.80,478.32L-818.76,473.76L-818.76,472.24L-820.28,470.72L-824.84,472.24ZM-788.36,472.24L-789.88,470.72L-792.92,475.28L-794.44,472.24L-800.52,470.72L-808.12,476.80L-811.16,484.40L-809.64,490.48L-806.60,492L-803.56,492L-799,487.44L-799,490.48L-797.48,492L-792.92,490.48L-785.32,482.88L-786.84,481.36L-794.44,488.96L-795.96,488.96ZM-803.56,488.96L-805.08,488.96L-806.60,484.40L-803.56,478.32L-799,473.76L-795.96,473.76L-794.44,476.80L-794.44,478.32L-799,484.40ZM-783.80,479.84L-783.80,482.88L-774.68,482.88L-774.68,479.84ZM-765.56,461.60L-762.52,464.64L-770.12,488.96L-773.16,492L-757.96,492L-750.36,488.96L-745.80,482.88L-747.32,476.80L-751.88,475.28L-748.84,473.76L-744.28,469.20L-745.80,463.12L-753.40,461.60ZM-765.56,488.96L-757.96,464.64L-756.44,463.12L-753.40,463.12L-750.36,464.64L-750.36,469.20L-753.40,473.76L-757.96,475.28L-761,475.28L-761,476.80L-756.44,476.80L-753.40,478.32L-751.88,482.88L-754.92,487.44L-761,490.48L-764.04,490.48ZM-736.68,492L-733.64,492L-726.04,487.44L-721.48,478.32L-724.52,472.24L-730.60,470.72L-738.20,475.28L-742.76,484.40L-739.72,490.48ZM-730.60,473.76L-727.56,473.76L-726.04,478.32L-729.08,484.40L-733.64,488.96L-736.68,488.96L-738.20,484.40L-735.16,478.32ZM-715.40,488.96L-701.72,460.08L-712.36,460.08L-712.36,461.60L-707.80,461.60L-719.96,488.96L-719.96,490.48L-716.92,492L-712.36,490.48L-704.76,482.88L-706.28,481.36L-713.88,488.96ZM-689.56,492L-688.04,492L-685,490.48L-677.40,482.88L-678.92,481.36L-686.52,488.96L-688.04,488.96L-674.36,460.08L-685,460.08L-685,461.60L-680.44,461.60L-685,475.28L-686.52,472.24L-692.60,470.72L-700.20,476.80L-703.24,484.40L-701.72,490.48L-698.68,492L-695.64,492L-691.08,487.44L-691.08,490.48ZM-695.64,488.96L-697.16,488.96L-698.68,484.40L-695.64,478.32L-691.08,473.76L-688.04,473.76L-686.52,476.80L-686.52,478.32L-691.08,484.40ZM-669.80,488.96L-662.20,464.64L-657.64,461.60L-669.80,461.60L-666.76,464.64L-674.36,488.96L-678.92,492L-666.76,492ZM-657.64,488.96L-650.04,473.76L-645.48,473.76L-645.48,472.24L-650.04,472.24L-647,466.16L-650.04,466.16L-651.56,470.72L-654.60,472.24L-657.64,472.24L-657.64,473.76L-654.60,473.76L-662.20,488.96L-662.20,490.48L-660.68,492L-657.64,492L-654.60,490.48L-647,482.88L-648.52,481.36L-656.12,488.96ZM-621.16,472.24L-622.68,470.72L-625.72,475.28L-627.24,472.24L-633.32,470.72L-640.92,476.80L-643.96,484.40L-642.44,490.48L-639.40,492L-636.36,492L-631.80,487.44L-631.80,490.48L-630.28,492L-625.72,490.48L-618.12,482.88L-619.64,481.36L-627.24,488.96L-628.76,488.96ZM-636.36,488.96L-637.88,488.96L-639.40,484.40L-636.36,478.32L-631.80,473.76L-628.76,473.76L-627.24,476.80L-627.24,478.32L-631.80,484.40ZM-613.56,488.96L-599.88,460.08L-610.52,460.08L-610.52,461.60L-605.96,461.60L-618.12,488.96L-618.12,490.48L-615.08,492L-610.52,490.48L-602.92,482.88L-604.44,481.36L-612.04,488.96ZM-586.20,467.68L-584.68,467.68L-583.16,464.64L-583.16,463.12L-586.20,461.60L-587.72,461.60L-589.24,464.64L-589.24,466.16ZM-602.92,479.84L-601.40,481.36L-593.80,473.76L-592.28,473.76L-601.40,488.96L-601.40,490.48L-599.88,492L-596.84,492L-593.80,490.48L-586.20,482.88L-587.72,481.36L-595.32,488.96L-596.84,488.96L-587.72,473.76L-587.72,472.24L-590.76,470.72L-595.32,472.24ZM-564.92,478.32L-564.92,475.28L-566.44,472.24L-572.52,470.72L-580.12,475.28L-584.68,484.40L-583.16,490.48L-580.12,492L-577.08,492L-574.04,490.48L-567.96,484.40L-569.48,482.88L-575.56,488.96L-578.60,488.96L-580.12,484.40L-577.08,478.32L-572.52,473.76L-569.48,473.76L-569.48,478.32Z"/>
</svg>