<?xml version="1.0"?>
<svg xmlns="http://www.w3.org/2000/svg" width="1920" height="1080" viewBox="-960 -540 1920 1080">
    <path d="M-825.56,-147L-825.56,-285.75L-749.25,-285.75L-749.25,-278.81L-742.31,-278.81L-742.31,-271.88L-735.38,-271.88L-735.38,-264.94L-728.44,-264.94L-728.44,-230.25L-735.38,-230.25L-735.38,-223.31L-742.31,-223.31L-742.31,-216.38L-749.25,-216.38L-749.25,-209.44L-804.75,-209.44L-804.75,-147ZM-804.75,-230.25L-756.19,-230.25L-756.19,-237.19L-749.25,-237.19L-749.25,-258L-756.19,-258L-756.19,-264.94L-804.75,-264.94ZM-704.16,-147L-704.16,-251.06L-683.34,-251.06L-683.34,-237.19L-676.41,-237.19L-676.41,-244.13L-669.47,-244.13L-669.47,-251.06L-641.72,-251.06L-641.72,-244.13L-634.78,-244.13L-634.78,-237.19L-627.84,-237.19L-627.84,-223.31L-634.78,-223.31L-634.78,-216.38L-641.72,-216.38L-641.72,-223.31L-648.66,-223.31L-648.66,-230.25L-669.47,-230.25L-669.47,-223.31L-676.41,-223.31L-676.41,-216.38L-683.34,-216.38L-683.34,-147ZM-612.45,-174.75L-612.45,-223.31L-605.51,-223.31L-605.51,-237.19L-598.58,-237.19L-598.58,-244.13L-584.70,-244.13L-584.70,-251.06L-556.95,-251.06L-556.95,-244.13L-543.08,-244.13L-543.08,-237.19L-536.14,-237.19L-536.14,-223.31L-529.20,-223.31L-529.20,-174.75L-536.14,-174.75L-536.14,-160.88L-543.08,-160.88L-543.08,-153.94L-556.95,-153.94L-556.95,-147L-584.70,-147L-584.70,-153.94L-598.58,-153.94L-598.58,-160.88L-605.51,-160.88L-605.51,-174.75ZM-591.64,-174.75L-584.70,-174.75L-584.70,-167.81L-556.95,-167.81L-556.95,-174.75L-550.01,-174.75L-550.01,-223.31L-556.95,-223.31L-556.95,-230.25L-584.70,-230.25L-584.70,-223.31L-591.64,-223.31ZM-507.96,-105.38L-507.96,-251.06L-487.14,-251.06L-487.14,-105.38ZM-507.96,-264.94L-507.96,-285.75L-487.14,-285.75L-487.14,-264.94ZM-465.25,-174.75L-465.25,-223.31L-458.31,-223.31L-458.31,-237.19L-451.37,-237.19L-451.37,-244.13L-437.50,-244.13L-437.50,-251.06L-409.75,-251.06L-409.75,-244.13L-395.87,-244.13L-395.87,-237.19L-388.93,-237.19L-388.93,-223.31L-382.00,-223.31L-382.00,-195.56L-444.43,-195.56L-444.43,-174.75L-437.50,-174.75L-437.50,-167.81L-409.75,-167.81L-409.75,-174.75L-402.81,-174.75L-402.81,-181.69L-382.00,-181.69L-382.00,-167.81L-388.93,-167.81L-388.93,-160.88L-395.87,-160.88L-395.87,-153.94L-409.75,-153.94L-409.75,-147L-437.50,-147L-437.50,-153.94L-451.37,-153.94L-451.37,-160.88L-458.31,-160.88L-458.31,-174.75ZM-444.43,-209.44L-402.81,-209.44L-402.81,-223.31L-409.75,-223.31L-409.75,-230.25L-437.50,-230.25L-437.50,-223.31L-444.43,-223.31ZM-363.79,-174.75L-363.79,-223.31L-356.85,-223.31L-356.85,-237.19L-349.91,-237.19L-349.91,-244.13L-336.04,-244.13L-336.04,-251.06L-308.29,-251.06L-308.29,-244.13L-294.41,-244.13L-294.41,-237.19L-287.47,-237.19L-287.47,-216.38L-301.35,-216.38L-301.35,-223.31L-308.29,-223.31L-308.29,-230.25L-336.04,-230.25L-336.04,-223.31L-342.97,-223.31L-342.97,-174.75L-336.04,-174.75L-336.04,-167.81L-308.29,-167.81L-308.29,-174.75L-301.35,-174.75L-301.35,-181.69L-287.47,-181.69L-287.47,-160.88L-294.41,-160.88L-294.41,-153.94L-308.29,-153.94L-308.29,-147L-336.04,-147L-336.04,-153.94L-349.91,-153.94L-349.91,-160.88L-356.85,-160.88L-356.85,-174.75ZM-268.61,-230.25L-268.61,-251.06L-254.74,-251.06L-254.74,-278.81L-233.92,-278.81L-233.92,-251.06L-206.17,-251.06L-206.17,-230.25L-233.92,-230.25L-233.92,-147L-254.74,-147L-254.74,-230.25ZM-123.79,-147L-123.79,-285.75L-61.35,-285.75L-61.35,-278.81L-40.54,-278.81L-40.54,-271.88L-33.60,-271.88L-33.60,-264.94L-26.67,-264.94L-26.67,-258L-19.73,-258L-19.73,-244.13L-12.79,-244.13L-12.79,-188.63L-19.73,-188.63L-19.73,-174.75L-26.67,-174.75L-26.67,-167.81L-33.60,-167.81L-33.60,-160.88L-40.54,-160.88L-40.54,-153.94L-61.35,-153.94L-61.35,-147ZM-102.98,-167.81L-68.29,-167.81L-68.29,-174.75L-54.42,-174.75L-54.42,-181.69L-47.48,-181.69L-47.48,-188.63L-40.54,-188.63L-40.54,-202.50L-33.60,-202.50L-33.60,-230.25L-40.54,-230.25L-40.54,-244.13L-47.48,-244.13L-47.48,-251.06L-54.42,-251.06L-54.42,-258L-68.29,-258L-68.29,-264.94L-102.98,-264.94ZM8.67,-147L8.67,-251.06L29.48,-251.06L29.48,-237.19L36.42,-237.19L36.42,-244.13L43.36,-244.13L43.36,-251.06L71.11,-251.06L71.11,-244.13L78.05,-244.13L78.05,-237.19L84.98,-237.19L84.98,-223.31L78.05,-223.31L78.05,-216.38L71.11,-216.38L71.11,-223.31L64.17,-223.31L64.17,-230.25L43.36,-230.25L43.36,-223.31L36.42,-223.31L36.42,-216.38L29.48,-216.38L29.48,-147ZM100.38,-174.75L100.38,-223.31L107.31,-223.31L107.31,-237.19L114.25,-237.19L114.25,-244.13L128.13,-244.13L128.13,-251.06L155.88,-251.06L155.88,-244.13L162.81,-244.13L162.81,-237.19L169.75,-237.19L169.75,-251.06L190.56,-251.06L190.56,-147L169.75,-147L169.75,-160.88L162.81,-160.88L162.81,-153.94L155.88,-153.94L155.88,-147L128.13,-147L128.13,-153.94L114.25,-153.94L114.25,-160.88L107.31,-160.88L107.31,-174.75ZM121.19,-174.75L128.13,-174.75L128.13,-167.81L155.88,-167.81L155.88,-174.75L162.81,-174.75L162.81,-181.69L169.75,-181.69L169.75,-216.38L162.81,-216.38L162.81,-223.31L155.88,-223.31L155.88,-230.25L128.13,-230.25L128.13,-223.31L121.19,-223.31ZM209.86,-230.25L209.86,-251.06L230.67,-251.06L230.67,-230.25L237.61,-230.25L237.61,-209.44L244.55,-209.44L244.55,-188.63L251.48,-188.63L251.48,-167.81L258.42,-167.81L258.42,-188.63L265.36,-188.63L265.36,-209.44L272.30,-209.44L272.30,-223.31L279.23,-223.31L279.23,-209.44L286.17,-209.44L286.17,-188.63L293.11,-188.63L293.11,-167.81L300.05,-167.81L300.05,-188.63L306.98,-188.63L306.98,-209.44L313.92,-209.44L313.92,-230.25L320.86,-230.25L320.86,-251.06L341.67,-251.06L341.67,-230.25L334.73,-230.25L334.73,-209.44L327.80,-209.44L327.80,-181.69L320.86,-181.69L320.86,-160.88L313.92,-160.88L313.92,-147L286.17,-147L286.17,-160.88L279.23,-160.88L279.23,-181.69L272.30,-181.69L272.30,-160.88L265.36,-160.88L265.36,-147L237.61,-147L237.61,-160.88L230.67,-160.88L230.67,-181.69L223.73,-181.69L223.73,-209.44L216.80,-209.44L216.80,-230.25ZM362.27,-147L362.27,-285.75L424.71,-285.75L424.71,-278.81L445.52,-278.81L445.52,-271.88L452.46,-271.88L452.46,-264.94L459.39,-264.94L459.39,-258L466.33,-258L466.33,-244.13L473.27,-244.13L473.27,-188.63L466.33,-188.63L466.33,-174.75L459.39,-174.75L459.39,-167.81L452.46,-167.81L452.46,-160.88L445.52,-160.88L445.52,-153.94L424.71,-153.94L424.71,-147ZM383.08,-167.81L417.77,-167.81L417.77,-174.75L431.64,-174.75L431.64,-181.69L438.58,-181.69L438.58,-188.63L445.52,-188.63L445.52,-202.50L452.46,-202.50L452.46,-230.25L445.52,-230.25L445.52,-244.13L438.58,-244.13L438.58,-251.06L431.64,-251.06L431.64,-258L417.77,-258L417.77,-264.94L383.08,-264.94ZM492.35,-174.75L492.35,-223.31L499.28,-223.31L499.28,-237.19L506.22,-237.19L506.22,-244.13L520.10,-244.13L520.10,-251.06L547.85,-251.06L547.85,-244.13L561.72,-244.13L561.72,-237.19L568.66,-237.19L568.66,-223.31L575.60,-223.31L575.60,-174.75L568.66,-174.75L568.66,-160.88L561.72,-160.88L561.72,-153.94L547.85,-153.94L547.85,-147L520.10,-147L520.10,-153.94L506.22,-153.94L506.22,-160.88L499.28,-160.88L499.28,-174.75ZM513.16,-174.75L520.10,-174.75L520.10,-167.81L547.85,-167.81L547.85,-174.75L554.78,-174.75L554.78,-223.31L547.85,-223.31L547.85,-230.25L520.10,-230.25L520.10,-223.31L513.16,-223.31ZM592.72,-230.25L592.72,-251.06L613.54,-251.06L613.54,-230.25L620.47,-230.25L620.47,-209.44L627.41,-209.44L627.41,-188.63L634.35,-188.63L634.35,-167.81L641.29,-167.81L641.29,-188.63L648.22,-188.63L648.22,-209.44L655.16,-209.44L655.16,-223.31L662.10,-223.31L662.10,-209.44L669.04,-209.44L669.04,-188.63L675.97,-188.63L675.97,-167.81L682.91,-167.81L682.91,-188.63L689.85,-188.63L689.85,-209.44L696.79,-209.44L696.79,-230.25L703.72,-230.25L703.72,-251.06L724.54,-251.06L724.54,-230.25L717.60,-230.25L717.60,-209.44L710.66,-209.44L710.66,-181.69L703.72,-181.69L703.72,-160.88L696.79,-160.88L696.79,-147L669.04,-147L669.04,-160.88L662.10,-160.88L662.10,-181.69L655.16,-181.69L655.16,-160.88L648.22,-160.88L648.22,-147L620.47,-147L620.47,-160.88L613.54,-160.88L613.54,-181.69L606.60,-181.69L606.60,-209.44L599.66,-209.44L599.66,-230.25ZM744.26,-147L744.26,-251.06L765.08,-251.06L765.08,-237.19L772.01,-237.19L772.01,-244.13L778.95,-244.13L778.95,-251.06L799.76,-251.06L799.76,-244.13L813.64,-244.13L813.64,-237.19L820.58,-237.19L820.58,-223.31L827.51,-223.31L827.51,-147L806.70,-147L806.70,-223.31L799.76,-223.31L799.76,-230.25L778.95,-230.25L778.95,-223.31L772.01,-223.31L772.01,-216.38L765.08,-216.38L765.08,-147Z" fill="#ffffff" stroke="#000000"/>
    <path d="M-815.72,-180.73L-809.32,-317.95L-733.85,-314.43L-734.17,-307.57L-727.31,-307.25L-727.63,-300.39L-720.77,-300.07L-721.09,-293.21L-714.23,-292.89L-715.83,-258.58L-722.69,-258.90L-723.01,-252.04L-729.87,-252.36L-730.19,-245.50L-737.05,-245.82L-737.37,-238.96L-792.26,-241.52L-795.14,-179.77ZM-791.30,-262.10L-743.27,-259.86L-742.95,-266.72L-736.09,-266.40L-735.13,-286.99L-741.99,-287.31L-741.67,-294.17L-789.70,-296.41ZM-695.66,-175.14L-690.86,-278.05L-670.28,-277.09L-670.92,-263.37L-664.06,-263.05L-663.74,-269.91L-656.88,-269.59L-656.56,-276.45L-629.11,-275.17L-629.43,-268.31L-622.57,-267.99L-622.89,-261.13L-616.03,-260.81L-616.67,-247.09L-623.53,-247.41L-623.85,-240.55L-630.71,-240.87L-630.39,-247.73L-637.25,-248.05L-636.93,-254.91L-657.51,-255.87L-657.83,-249.01L-664.70,-249.33L-665.01,-242.47L-671.88,-242.78L-675.07,-174.18ZM-603.69,-198.35L-601.45,-246.38L-594.59,-246.06L-593.95,-259.78L-587.09,-259.46L-586.77,-266.32L-573.05,-265.68L-572.73,-272.54L-545.28,-271.26L-545.60,-264.40L-531.88,-263.76L-532.20,-256.90L-525.34,-256.58L-525.98,-242.86L-519.12,-242.54L-521.36,-194.52L-528.22,-194.84L-528.86,-181.11L-535.72,-181.43L-536.04,-174.57L-549.76,-175.21L-550.08,-168.35L-577.52,-169.63L-577.20,-176.49L-590.92,-177.13L-590.60,-183.99L-597.47,-184.31L-596.83,-198.03ZM-583.10,-197.39L-576.24,-197.07L-576.56,-190.21L-549.12,-188.93L-548.80,-195.80L-541.94,-195.48L-539.70,-243.50L-546.56,-243.82L-546.24,-250.68L-573.69,-251.96L-574.01,-245.10L-580.87,-245.42ZM-503.55,-124.93L-496.83,-269.00L-476.25,-268.05L-482.96,-123.97ZM-496.19,-282.73L-495.23,-303.31L-474.65,-302.35L-475.61,-281.77ZM-458.11,-191.57L-455.87,-239.59L-449.01,-239.27L-448.37,-252.99L-441.51,-252.67L-441.19,-259.54L-427.47,-258.90L-427.15,-265.76L-399.71,-264.48L-400.03,-257.62L-386.31,-256.98L-386.63,-250.12L-379.77,-249.80L-380.41,-236.08L-373.55,-235.76L-374.82,-208.31L-436.57,-211.19L-437.53,-190.61L-430.67,-190.29L-430.99,-183.43L-403.55,-182.15L-403.23,-189.01L-396.37,-188.69L-396.05,-195.55L-375.46,-194.59L-376.10,-180.87L-382.96,-181.19L-383.28,-174.33L-390.14,-174.65L-390.46,-167.79L-404.19,-168.43L-404.51,-161.57L-431.95,-162.85L-431.63,-169.71L-445.35,-170.35L-445.03,-177.21L-451.89,-177.53L-451.25,-191.25ZM-435.93,-224.91L-394.77,-222.99L-394.13,-236.72L-400.99,-237.04L-400.67,-243.90L-428.11,-245.17L-428.43,-238.31L-435.29,-238.63ZM-357.77,-186.89L-355.54,-234.92L-348.68,-234.60L-348.04,-248.32L-341.18,-248.00L-340.86,-254.86L-327.13,-254.22L-326.81,-261.08L-299.37,-259.80L-299.69,-252.94L-285.97,-252.30L-286.29,-245.44L-279.43,-245.12L-280.39,-224.54L-294.11,-225.18L-293.79,-232.04L-300.65,-232.36L-300.33,-239.22L-327.77,-240.50L-328.09,-233.64L-334.95,-233.96L-337.19,-185.93L-330.33,-185.61L-330.65,-178.75L-303.21,-177.47L-302.89,-184.33L-296.03,-184.01L-295.71,-190.87L-281.99,-190.24L-282.95,-169.65L-289.81,-169.97L-290.13,-163.11L-303.85,-163.75L-304.17,-156.89L-331.61,-158.17L-331.29,-165.03L-345.01,-165.67L-344.69,-172.53L-351.55,-172.85L-350.91,-186.57ZM-261.10,-237.39L-260.14,-257.97L-246.42,-257.33L-245.14,-284.78L-224.55,-283.82L-225.83,-256.37L-198.39,-255.09L-199.35,-234.51L-226.79,-235.79L-230.63,-153.46L-251.21,-154.42L-247.37,-236.75ZM-121.72,-148.39L-115.32,-285.60L-53.58,-282.72L-53.90,-275.86L-33.31,-274.90L-33.63,-268.04L-26.77,-267.72L-27.09,-260.86L-20.23,-260.54L-20.55,-253.68L-13.69,-253.36L-14.33,-239.64L-7.47,-239.32L-10.03,-184.44L-16.89,-184.76L-17.53,-171.03L-24.39,-171.35L-24.71,-164.49L-31.57,-164.81L-31.89,-157.95L-38.75,-158.27L-39.07,-151.41L-59.65,-152.37L-59.97,-145.51ZM-100.18,-168.01L-65.87,-166.41L-65.55,-173.27L-51.83,-172.63L-51.51,-179.49L-44.65,-179.17L-44.33,-186.03L-37.47,-185.71L-36.83,-199.44L-29.97,-199.12L-28.69,-226.56L-35.55,-226.88L-34.91,-240.60L-41.77,-240.92L-41.45,-247.78L-48.31,-248.10L-47.99,-254.96L-61.72,-255.60L-61.40,-262.46L-95.70,-264.06ZM9.28,-142.28L14.08,-245.19L34.66,-244.23L34.02,-230.51L40.88,-230.19L41.20,-237.05L48.06,-236.73L48.38,-243.59L75.82,-242.31L75.50,-235.45L82.36,-235.13L82.04,-228.27L88.90,-227.95L88.26,-214.23L81.40,-214.55L81.08,-207.69L74.22,-208.01L74.54,-214.87L67.68,-215.19L68.00,-222.05L47.42,-223.01L47.10,-216.15L40.24,-216.47L39.92,-209.61L33.06,-209.93L29.86,-141.32ZM101.25,-165.50L103.49,-213.52L110.35,-213.20L110.99,-226.92L117.85,-226.60L118.17,-233.47L131.89,-232.83L132.21,-239.69L159.65,-238.41L159.33,-231.55L166.19,-231.23L165.87,-224.37L172.73,-224.05L173.37,-237.77L193.95,-236.81L189.16,-133.90L168.58,-134.86L169.22,-148.58L162.35,-148.90L162.03,-142.04L155.17,-142.36L154.85,-135.50L127.41,-136.78L127.73,-143.64L114.01,-144.28L114.33,-151.14L107.47,-151.46L108.11,-165.18ZM121.83,-164.54L128.69,-164.22L128.37,-157.36L155.81,-156.08L156.13,-162.94L162.99,-162.62L163.31,-169.48L170.17,-169.16L171.77,-203.46L164.91,-203.78L165.23,-210.65L158.37,-210.96L158.69,-217.83L131.25,-219.10L130.93,-212.24L124.07,-212.56ZM212.08,-215.34L213.04,-235.92L233.62,-234.96L232.66,-214.38L239.52,-214.06L238.56,-193.48L245.42,-193.16L244.46,-172.57L251.32,-172.25L250.36,-151.67L257.22,-151.35L258.18,-171.94L265.04,-171.62L266.00,-192.20L272.86,-191.88L273.50,-205.60L280.36,-205.28L279.72,-191.56L286.58,-191.24L285.63,-170.66L292.49,-170.34L291.53,-149.75L298.39,-149.43L299.35,-170.02L306.21,-169.70L307.17,-190.28L314.03,-189.96L314.99,-210.54L321.85,-210.22L322.81,-230.80L343.39,-229.84L342.43,-209.26L335.57,-209.58L334.61,-189.00L327.75,-189.32L326.47,-161.88L319.61,-162.20L318.65,-141.61L311.79,-141.93L311.15,-128.21L283.71,-129.49L284.35,-143.21L277.49,-143.53L278.44,-164.12L271.58,-164.43L270.62,-143.85L263.76,-144.17L263.12,-130.45L235.68,-131.73L236.32,-145.45L229.46,-145.77L230.42,-166.35L223.56,-166.67L224.84,-194.12L217.98,-194.44L218.94,-215.02ZM358.96,-125.98L365.35,-263.20L427.10,-260.32L426.78,-253.46L447.36,-252.50L447.04,-245.64L453.90,-245.32L453.58,-238.46L460.44,-238.14L460.13,-231.28L466.99,-230.96L466.35,-217.24L473.21,-216.92L470.65,-162.03L463.79,-162.35L463.15,-148.63L456.29,-148.95L455.97,-142.09L449.11,-142.41L448.79,-135.55L441.93,-135.87L441.61,-129.01L421.03,-129.97L420.71,-123.11ZM380.50,-145.61L414.80,-144.01L415.12,-150.87L428.85,-150.23L429.17,-157.09L436.03,-156.77L436.35,-163.63L443.21,-163.31L443.85,-177.03L450.71,-176.71L451.99,-204.16L445.12,-204.48L445.76,-218.20L438.90,-218.52L439.22,-225.38L432.36,-225.70L432.68,-232.56L418.96,-233.20L419.28,-240.06L384.98,-241.66ZM488.88,-147.43L491.11,-195.46L497.98,-195.14L498.61,-208.86L505.48,-208.54L505.80,-215.40L519.52,-214.76L519.84,-221.62L547.28,-220.34L546.96,-213.48L560.68,-212.84L560.36,-205.98L567.22,-205.66L566.58,-191.94L573.44,-191.62L571.20,-143.59L564.34,-143.91L563.70,-130.19L556.84,-130.51L556.52,-123.65L542.80,-124.29L542.48,-117.43L515.04,-118.71L515.36,-125.57L501.64,-126.21L501.96,-133.07L495.10,-133.39L495.74,-147.11ZM509.46,-146.47L516.32,-146.15L516.00,-139.29L543.44,-138.01L543.76,-144.87L550.62,-144.55L552.86,-192.58L546.00,-192.90L546.32,-199.76L518.88,-201.04L518.56,-194.18L511.70,-194.50ZM590.70,-197.69L591.66,-218.27L612.24,-217.31L611.28,-196.73L618.14,-196.41L617.18,-175.83L624.04,-175.51L623.08,-154.93L629.95,-154.61L628.99,-134.03L635.85,-133.71L636.81,-154.29L643.67,-153.97L644.63,-174.55L651.49,-174.23L652.13,-187.95L658.99,-187.63L658.35,-173.91L665.21,-173.59L664.25,-153.01L671.11,-152.69L670.15,-132.11L677.01,-131.79L677.97,-152.37L684.83,-152.05L685.79,-172.63L692.65,-172.31L693.61,-192.89L700.47,-192.57L701.43,-213.16L722.01,-212.20L721.05,-191.62L714.19,-191.94L713.23,-171.35L706.37,-171.67L705.09,-144.23L698.23,-144.55L697.27,-123.97L690.41,-124.29L689.77,-110.57L662.33,-111.85L662.97,-125.57L656.11,-125.89L657.07,-146.47L650.21,-146.79L649.25,-126.21L642.39,-126.53L641.75,-112.80L614.31,-114.08L614.94,-127.81L608.08,-128.12L609.04,-148.71L602.18,-149.03L603.46,-176.47L596.60,-176.79L597.56,-197.37ZM736.73,-108.38L741.52,-211.29L762.10,-210.33L761.46,-196.61L768.33,-196.29L768.64,-203.15L775.51,-202.83L775.83,-209.69L796.41,-208.73L796.09,-201.87L809.81,-201.23L809.49,-194.37L816.35,-194.05L815.71,-180.33L822.57,-180.01L819.05,-104.54L798.47,-105.50L801.99,-180.97L795.13,-181.29L795.45,-188.15L774.87,-189.11L774.55,-182.25L767.69,-182.57L767.37,-175.71L760.51,-176.03L757.31,-107.42Z" fill="#ffffff" stroke="#000000"/>
    <path d="M-804.40,-213.93L-791.75,-349.31L-717.29,-342.36L-717.92,-335.59L-711.15,-334.95L-711.79,-328.19L-705.02,-327.55L-705.65,-320.78L-698.88,-320.15L-702.04,-286.30L-708.81,-286.94L-709.44,-280.17L-716.21,-280.80L-716.85,-274.03L-723.61,-274.66L-724.25,-267.89L-778.40,-272.95L-784.09,-212.03ZM-776.50,-293.26L-729.12,-288.83L-728.49,-295.60L-721.72,-294.97L-719.82,-315.28L-726.59,-315.91L-725.96,-322.68L-773.34,-327.11ZM-685.94,-202.86L-676.45,-304.40L-656.14,-302.50L-657.41,-288.96L-650.64,-288.33L-650.01,-295.10L-643.24,-294.47L-642.61,-301.24L-615.53,-298.71L-616.16,-291.94L-609.39,-291.31L-610.02,-284.54L-603.26,-283.90L-604.52,-270.37L-611.29,-271.00L-611.92,-264.23L-618.69,-264.86L-618.06,-271.63L-624.83,-272.26L-624.20,-279.03L-644.50,-280.93L-645.14,-274.16L-651.91,-274.79L-652.54,-268.02L-659.31,-268.66L-665.63,-200.96ZM-593.93,-221.58L-589.50,-268.96L-582.73,-268.33L-581.47,-281.87L-574.70,-281.24L-574.07,-288.01L-560.53,-286.74L-559.89,-293.51L-532.82,-290.98L-533.45,-284.21L-519.91,-282.95L-520.54,-276.18L-513.77,-275.55L-515.04,-262.01L-508.27,-261.37L-512.70,-213.99L-519.47,-214.62L-520.73,-201.08L-527.50,-201.72L-528.13,-194.95L-541.67,-196.21L-542.30,-189.44L-569.38,-191.97L-568.75,-198.74L-582.29,-200.01L-581.65,-206.77L-588.42,-207.41L-587.16,-220.95ZM-573.62,-219.68L-566.85,-219.05L-567.48,-212.28L-540.41,-209.75L-539.77,-216.52L-533.00,-215.89L-528.58,-263.27L-535.35,-263.90L-534.71,-270.67L-561.79,-273.20L-562.42,-266.43L-569.19,-267.07ZM-498.29,-144.36L-485.01,-286.52L-464.70,-284.62L-477.98,-142.46ZM-483.74,-300.05L-481.85,-320.36L-461.54,-318.46L-463.44,-298.16ZM-450.29,-208.16L-445.87,-255.55L-439.10,-254.91L-437.83,-268.45L-431.06,-267.82L-430.43,-274.59L-416.89,-273.32L-416.26,-280.09L-389.18,-277.56L-389.81,-270.79L-376.28,-269.53L-376.91,-262.76L-370.14,-262.13L-371.40,-248.59L-364.63,-247.96L-367.16,-220.88L-428.09,-226.57L-429.98,-206.26L-423.21,-205.63L-423.85,-198.86L-396.77,-196.33L-396.14,-203.10L-389.37,-202.47L-388.74,-209.24L-368.43,-207.34L-369.69,-193.80L-376.46,-194.43L-377.09,-187.67L-383.86,-188.30L-384.50,-181.53L-398.03,-182.79L-398.67,-176.02L-425.74,-178.55L-425.11,-185.32L-438.65,-186.59L-438.02,-193.36L-444.79,-193.99L-443.52,-207.53ZM-426.82,-240.11L-386.21,-236.32L-384.94,-249.85L-391.71,-250.49L-391.08,-257.26L-418.16,-259.78L-418.79,-253.02L-425.56,-253.65ZM-351.29,-198.91L-346.86,-246.30L-340.10,-245.66L-338.83,-259.20L-332.06,-258.57L-331.43,-265.34L-317.89,-264.08L-317.26,-270.84L-290.18,-268.31L-290.81,-261.55L-277.27,-260.28L-277.91,-253.51L-271.14,-252.88L-273.03,-232.57L-286.57,-233.84L-285.94,-240.61L-292.71,-241.24L-292.08,-248.01L-319.16,-250.54L-319.79,-243.77L-326.56,-244.40L-330.98,-197.01L-324.21,-196.38L-324.85,-189.61L-297.77,-187.08L-297.14,-193.85L-290.37,-193.22L-289.74,-199.99L-276.20,-198.72L-278.09,-178.42L-284.86,-179.05L-285.50,-172.28L-299.03,-173.54L-299.67,-166.78L-326.74,-169.31L-326.11,-176.07L-339.65,-177.34L-339.02,-184.11L-345.79,-184.74L-344.52,-198.28ZM-253.37,-244.39L-251.47,-264.70L-237.93,-263.43L-235.40,-290.51L-215.09,-288.61L-217.62,-261.54L-190.55,-259.01L-192.44,-238.70L-219.52,-241.23L-227.11,-160.00L-247.42,-161.89L-239.83,-243.13ZM-119.65,-149.96L-107.00,-285.34L-46.08,-279.65L-46.71,-272.88L-26.40,-270.99L-27.03,-264.22L-20.26,-263.58L-20.90,-256.82L-14.13,-256.18L-14.76,-249.41L-7.99,-248.78L-9.25,-235.24L-2.48,-234.61L-7.54,-180.46L-14.31,-181.09L-15.58,-167.55L-22.35,-168.18L-22.98,-161.41L-29.75,-162.05L-30.38,-155.28L-37.15,-155.91L-37.78,-149.14L-58.09,-151.04L-58.72,-144.27ZM-97.44,-168.37L-63.59,-165.21L-62.96,-171.98L-49.42,-170.71L-48.79,-177.48L-42.02,-176.85L-41.39,-183.62L-34.62,-182.99L-33.36,-196.52L-26.59,-195.89L-24.06,-222.97L-30.83,-223.60L-29.56,-237.14L-36.33,-237.77L-35.70,-244.54L-42.47,-245.17L-41.84,-251.94L-55.37,-253.21L-54.74,-259.98L-88.59,-263.14ZM9.61,-137.88L19.09,-239.42L39.40,-237.53L38.13,-223.99L44.90,-223.36L45.54,-230.12L52.30,-229.49L52.94,-236.26L80.01,-233.73L79.38,-226.96L86.15,-226.33L85.52,-219.56L92.29,-218.93L91.02,-205.39L84.25,-206.02L83.62,-199.25L76.85,-199.89L77.48,-206.66L70.72,-207.29L71.35,-214.06L51.04,-215.95L50.41,-209.18L43.64,-209.82L43.01,-203.05L36.24,-203.68L29.91,-135.99ZM101.62,-156.60L106.04,-203.99L112.81,-203.35L114.08,-216.89L120.85,-216.26L121.48,-223.03L135.02,-221.77L135.65,-228.53L162.73,-226.01L162.09,-219.24L168.86,-218.60L168.23,-211.83L175.00,-211.20L176.26,-224.74L196.57,-222.84L187.09,-121.30L166.78,-123.20L168.04,-136.74L161.27,-137.37L160.64,-130.60L153.87,-131.24L153.24,-124.47L126.16,-127.00L126.80,-133.77L113.26,-135.03L113.89,-141.80L107.12,-142.43L108.39,-155.97ZM121.92,-154.71L128.69,-154.07L128.06,-147.30L155.14,-144.77L155.77,-151.54L162.54,-150.91L163.17,-157.68L169.94,-157.05L173.10,-190.89L166.33,-191.53L166.97,-198.30L160.20,-198.93L160.83,-205.70L133.75,-208.23L133.12,-201.46L126.35,-202.09ZM213.50,-200.78L215.40,-221.08L235.71,-219.19L233.81,-198.88L240.58,-198.25L238.68,-177.94L245.45,-177.31L243.55,-157.00L250.32,-156.37L248.43,-136.06L255.20,-135.43L257.09,-155.73L263.86,-155.10L265.76,-175.41L272.53,-174.78L273.79,-188.32L280.56,-187.68L279.30,-174.15L286.07,-173.51L284.17,-153.21L290.94,-152.57L289.04,-132.27L295.81,-131.63L297.71,-151.94L304.48,-151.31L306.38,-171.62L313.14,-170.98L315.04,-191.29L321.81,-190.66L323.71,-210.97L344.02,-209.07L342.12,-188.76L335.35,-189.39L333.45,-169.09L326.68,-169.72L324.15,-142.64L317.38,-143.27L315.49,-122.97L308.72,-123.60L307.45,-110.06L280.38,-112.59L281.64,-126.13L274.87,-126.76L276.77,-147.07L270.00,-147.70L268.10,-127.39L261.33,-128.03L260.07,-114.49L232.99,-117.02L234.26,-130.55L227.49,-131.19L229.38,-151.49L222.61,-152.13L225.14,-179.20L218.37,-179.84L220.27,-200.14ZM354.63,-105.65L367.27,-241.04L428.20,-235.35L427.57,-228.58L447.87,-226.68L447.24,-219.91L454.01,-219.28L453.38,-212.51L460.15,-211.88L459.51,-205.11L466.28,-204.48L465.02,-190.94L471.79,-190.31L466.73,-136.15L459.96,-136.78L458.70,-123.24L451.93,-123.88L451.29,-117.11L444.52,-117.74L443.89,-110.97L437.12,-111.60L436.49,-104.83L416.18,-106.73L415.55,-99.96ZM376.83,-124.06L410.68,-120.90L411.31,-127.67L424.85,-126.41L425.48,-133.18L432.25,-132.54L432.88,-139.31L439.65,-138.68L440.92,-152.22L447.69,-151.59L450.22,-178.66L443.45,-179.30L444.71,-192.83L437.94,-193.47L438.57,-200.24L431.80,-200.87L432.44,-207.64L418.90,-208.90L419.53,-215.67L385.68,-218.83ZM484.08,-120.87L488.51,-168.26L495.28,-167.63L496.54,-181.16L503.31,-180.53L503.94,-187.30L517.48,-186.04L518.11,-192.81L545.19,-190.28L544.56,-183.51L558.10,-182.24L557.46,-175.47L564.23,-174.84L562.97,-161.30L569.74,-160.67L565.31,-113.29L558.54,-113.92L557.28,-100.38L550.51,-101.01L549.88,-94.24L536.34,-95.51L535.70,-88.74L508.63,-91.27L509.26,-98.04L495.72,-99.30L496.35,-106.07L489.58,-106.70L490.85,-120.24ZM504.39,-118.98L511.16,-118.34L510.52,-111.57L537.60,-109.05L538.23,-115.81L545.00,-115.18L549.43,-162.57L542.66,-163.20L543.29,-169.97L516.22,-172.50L515.58,-165.73L508.81,-166.36ZM587.08,-165.88L588.98,-186.19L609.29,-184.29L607.39,-163.98L614.16,-163.35L612.26,-143.04L619.03,-142.41L617.13,-122.10L623.90,-121.47L622.01,-101.16L628.78,-100.53L630.67,-120.84L637.44,-120.20L639.34,-140.51L646.11,-139.88L647.37,-153.42L654.14,-152.79L652.88,-139.25L659.65,-138.61L657.75,-118.31L664.52,-117.67L662.62,-97.37L669.39,-96.73L671.29,-117.04L678.06,-116.41L679.95,-136.72L686.72,-136.08L688.62,-156.39L695.39,-155.76L697.29,-176.07L717.60,-174.17L715.70,-153.86L708.93,-154.50L707.03,-134.19L700.26,-134.82L697.73,-107.74L690.96,-108.38L689.07,-88.07L682.30,-88.70L681.03,-75.16L653.96,-77.69L655.22,-91.23L648.45,-91.86L650.35,-112.17L643.58,-112.80L641.68,-92.49L634.91,-93.13L633.65,-79.59L606.57,-82.12L607.84,-95.66L601.07,-96.29L602.96,-116.60L596.19,-117.23L598.72,-144.31L591.95,-144.94L593.85,-165.25ZM727.36,-70.83L736.85,-172.37L757.15,-170.48L755.89,-156.94L762.66,-156.30L763.29,-163.07L770.06,-162.44L770.69,-169.21L791.00,-167.31L790.37,-160.54L803.91,-159.28L803.27,-152.51L810.04,-151.88L808.78,-138.34L815.55,-137.71L808.59,-63.25L788.28,-65.14L795.24,-139.60L788.47,-140.24L789.10,-147.01L768.79,-148.90L768.16,-142.13L761.39,-142.77L760.76,-136.00L753.99,-136.63L747.67,-68.94Z" fill="#ffffff" stroke="#000000"/>
    <path d="M-791.64,-246.51L-772.90,-379.79L-699.59,-369.48L-700.53,-362.81L-693.87,-361.88L-694.80,-355.21L-688.14,-354.28L-689.08,-347.61L-682.41,-346.68L-687.10,-313.36L-693.76,-314.29L-694.70,-307.63L-701.37,-308.57L-702.30,-301.90L-708.97,-302.84L-709.90,-296.18L-763.21,-303.67L-771.65,-243.70ZM-760.40,-323.67L-713.76,-317.10L-712.82,-323.77L-706.15,-322.83L-703.34,-342.82L-710.01,-343.76L-709.07,-350.42L-755.72,-356.98ZM-675.02,-230.11L-660.97,-330.07L-640.97,-327.26L-642.85,-313.93L-636.18,-312.99L-635.25,-319.65L-628.58,-318.72L-627.65,-325.38L-600.99,-321.63L-601.93,-314.97L-595.26,-314.03L-596.20,-307.37L-589.54,-306.43L-591.41,-293.10L-598.08,-294.04L-599.01,-287.38L-605.68,-288.31L-604.74,-294.98L-611.40,-295.91L-610.47,-302.58L-630.46,-305.39L-631.40,-298.73L-638.06,-299.66L-639.00,-293.00L-645.66,-293.94L-655.03,-227.30ZM-583.19,-244.38L-576.63,-291.02L-569.96,-290.09L-568.09,-303.41L-561.43,-302.48L-560.49,-309.14L-547.16,-307.27L-546.22,-313.93L-519.57,-310.18L-520.51,-303.52L-507.18,-301.64L-508.11,-294.98L-501.45,-294.04L-503.33,-280.71L-496.66,-279.78L-503.22,-233.13L-509.89,-234.07L-511.76,-220.74L-518.42,-221.68L-519.36,-215.01L-532.69,-216.89L-533.63,-210.22L-560.28,-213.97L-559.34,-220.64L-572.67,-222.51L-571.73,-229.18L-578.40,-230.11L-576.52,-243.44ZM-563.20,-241.57L-556.53,-240.63L-557.47,-233.96L-530.81,-230.22L-529.88,-236.88L-523.21,-235.94L-516.65,-282.59L-523.32,-283.53L-522.38,-290.19L-549.03,-293.94L-549.97,-287.28L-556.64,-288.21ZM-492.19,-163.62L-472.50,-303.56L-452.51,-300.75L-472.19,-160.81ZM-470.63,-316.89L-467.82,-336.88L-447.83,-334.07L-450.64,-314.08ZM-441.79,-224.49L-435.23,-271.14L-428.57,-270.20L-426.69,-283.53L-420.03,-282.59L-419.09,-289.26L-405.76,-287.38L-404.83,-294.04L-378.17,-290.30L-379.11,-283.63L-365.78,-281.76L-366.72,-275.09L-360.05,-274.16L-361.93,-260.83L-355.26,-259.89L-359.01,-233.24L-418.99,-241.67L-421.80,-221.68L-415.13,-220.74L-416.07,-214.08L-389.42,-210.33L-388.48,-216.99L-381.82,-216.06L-380.88,-222.72L-360.89,-219.91L-362.76,-206.58L-369.43,-207.52L-370.36,-200.86L-377.03,-201.79L-377.96,-195.13L-391.29,-197.00L-392.23,-190.34L-418.88,-194.09L-417.95,-200.75L-431.27,-202.63L-430.34,-209.29L-437.00,-210.23L-435.13,-223.55ZM-417.11,-255.00L-377.13,-249.38L-375.26,-262.70L-381.92,-263.64L-380.98,-270.30L-407.64,-274.05L-408.57,-267.39L-415.24,-268.33ZM-344.33,-210.79L-337.77,-257.43L-331.11,-256.49L-329.23,-269.82L-322.57,-268.89L-321.63,-275.55L-308.30,-273.67L-307.37,-280.34L-280.71,-276.59L-281.65,-269.93L-268.32,-268.05L-269.26,-261.39L-262.60,-260.45L-265.41,-240.46L-278.73,-242.33L-277.80,-249.00L-284.46,-249.93L-283.52,-256.60L-310.18,-260.35L-311.12,-253.68L-317.78,-254.62L-324.34,-207.97L-317.68,-207.04L-318.61,-200.37L-291.96,-196.62L-291.02,-203.29L-284.36,-202.35L-283.42,-209.01L-270.09,-207.14L-272.90,-187.15L-279.57,-188.09L-280.51,-181.42L-293.83,-183.30L-294.77,-176.63L-321.43,-180.38L-320.49,-187.05L-333.82,-188.92L-332.88,-195.58L-339.54,-196.52L-337.67,-209.85ZM-245.42,-251.24L-242.60,-271.23L-229.28,-269.36L-225.53,-296.01L-205.54,-293.20L-209.28,-266.54L-182.63,-262.80L-185.44,-242.80L-212.10,-246.55L-223.34,-166.59L-243.33,-169.40L-232.09,-249.36ZM-117.55,-151.71L-98.81,-284.99L-38.84,-276.55L-39.77,-269.89L-19.78,-267.08L-20.72,-260.41L-14.06,-259.47L-14.99,-252.81L-8.33,-251.87L-9.27,-245.21L-2.60,-244.27L-4.48,-230.95L2.19,-230.01L-5.31,-176.70L-11.97,-177.63L-13.85,-164.31L-20.51,-165.24L-21.45,-158.58L-28.11,-159.52L-29.05,-152.85L-35.71,-153.79L-36.65,-147.13L-56.64,-149.94L-57.58,-143.28ZM-94.75,-168.89L-61.43,-164.20L-60.50,-170.87L-47.17,-168.99L-46.23,-175.66L-39.57,-174.72L-38.63,-181.38L-31.97,-180.45L-30.09,-193.77L-23.43,-192.84L-19.68,-219.49L-26.34,-220.43L-24.47,-233.76L-31.13,-234.69L-30.20,-241.36L-36.86,-242.30L-35.92,-248.96L-49.25,-250.83L-48.31,-257.50L-81.63,-262.18ZM9.68,-133.82L23.74,-233.77L43.73,-230.96L41.86,-217.63L48.52,-216.70L49.46,-223.36L56.12,-222.42L57.06,-229.09L83.71,-225.34L82.78,-218.67L89.44,-217.74L88.50,-211.07L95.17,-210.14L93.29,-196.81L86.63,-197.75L85.69,-191.08L79.03,-192.02L79.97,-198.68L73.30,-199.62L74.24,-206.28L54.25,-209.10L53.31,-202.43L46.65,-203.37L45.71,-196.70L39.05,-197.64L29.67,-131.00ZM101.52,-148.08L108.08,-194.73L114.74,-193.79L116.62,-207.12L123.28,-206.18L124.22,-212.85L137.54,-210.97L138.48,-217.64L165.14,-213.89L164.20,-207.22L170.86,-206.29L169.93,-199.62L176.59,-198.68L178.46,-212.01L198.46,-209.20L184.40,-109.24L164.41,-112.06L166.28,-125.38L159.62,-126.32L158.68,-119.66L152.02,-120.59L151.08,-113.93L124.42,-117.68L125.36,-124.34L112.03,-126.22L112.97,-132.88L106.31,-133.82L108.18,-147.15ZM121.51,-145.27L128.17,-144.33L127.24,-137.67L153.89,-133.92L154.83,-140.59L161.49,-139.65L162.43,-146.31L169.09,-145.37L173.78,-178.69L167.12,-179.63L168.05,-186.29L161.39,-187.23L162.33,-193.90L135.67,-197.64L134.73,-190.98L128.07,-191.92ZM214.18,-186.60L216.99,-206.59L236.98,-203.78L234.17,-183.79L240.83,-182.85L238.02,-162.86L244.69,-161.93L241.87,-141.93L248.54,-141.00L245.73,-121.01L252.39,-120.07L255.20,-140.06L261.87,-139.12L264.68,-159.11L271.34,-158.18L273.22,-171.50L279.88,-170.57L278.00,-157.24L284.67,-156.30L281.86,-136.31L288.52,-135.37L285.71,-115.38L292.37,-114.45L295.18,-134.44L301.85,-133.50L304.66,-153.49L311.32,-152.55L314.14,-172.55L320.80,-171.61L323.61,-191.60L343.60,-188.79L340.79,-168.80L334.13,-169.73L331.32,-149.74L324.65,-150.68L320.90,-124.02L314.24,-124.96L311.43,-104.97L304.76,-105.91L302.89,-92.58L276.23,-96.33L278.11,-109.66L271.44,-110.59L274.26,-130.58L267.59,-131.52L264.78,-111.53L258.12,-112.47L256.24,-99.14L229.59,-102.89L231.46,-116.22L224.80,-117.15L227.61,-137.15L220.95,-138.08L224.69,-164.74L218.03,-165.67L220.84,-185.67ZM349.33,-86.05L368.07,-219.32L428.05,-210.89L427.11,-204.23L447.10,-201.42L446.16,-194.75L452.83,-193.81L451.89,-187.15L458.55,-186.21L457.62,-179.55L464.28,-178.61L462.40,-165.28L469.07,-164.35L461.57,-111.04L454.91,-111.97L453.03,-98.65L446.37,-99.58L445.43,-92.92L438.77,-93.86L437.83,-87.19L431.17,-88.13L430.23,-81.47L410.24,-84.28L409.30,-77.61ZM372.13,-103.23L405.45,-98.54L406.39,-105.21L419.71,-103.33L420.65,-110.00L427.32,-109.06L428.25,-115.72L434.92,-114.79L436.79,-128.11L443.45,-127.18L447.20,-153.83L440.54,-154.77L442.41,-168.10L435.75,-169.03L436.69,-175.70L430.02,-176.63L430.96,-183.30L417.63,-185.17L418.57,-191.84L385.25,-196.52ZM478.02,-95.13L484.58,-141.78L491.25,-140.84L493.12,-154.17L499.78,-153.23L500.72,-159.90L514.05,-158.02L514.99,-164.69L541.64,-160.94L540.70,-154.27L554.03,-152.40L553.09,-145.73L559.76,-144.80L557.88,-131.47L564.55,-130.53L557.99,-83.89L551.32,-84.82L549.45,-71.50L542.79,-72.43L541.85,-65.77L528.52,-67.64L527.58,-60.98L500.93,-64.73L501.87,-71.39L488.54,-73.27L489.48,-79.93L482.81,-80.87L484.69,-94.19ZM498.01,-92.32L504.68,-91.38L503.74,-84.72L530.40,-80.97L531.33,-87.63L538.00,-86.70L544.56,-133.34L537.89,-134.28L538.83,-140.95L512.17,-144.69L511.24,-138.03L504.57,-138.97ZM581.94,-134.88L584.75,-154.87L604.74,-152.06L601.93,-132.07L608.59,-131.13L605.78,-111.14L612.44,-110.21L609.63,-90.21L616.30,-89.28L613.48,-69.29L620.15,-68.35L622.96,-88.34L629.62,-87.40L632.44,-107.39L639.10,-106.46L640.97,-119.78L647.64,-118.85L645.76,-105.52L652.43,-104.58L649.62,-84.59L656.28,-83.65L653.47,-63.66L660.13,-62.73L662.94,-82.72L669.61,-81.78L672.42,-101.77L679.08,-100.83L681.89,-120.83L688.56,-119.89L691.37,-139.88L711.36,-137.07L708.55,-117.08L701.88,-118.01L699.07,-98.02L692.41,-98.96L688.66,-72.30L682.00,-73.24L679.19,-53.25L672.52,-54.19L670.65,-40.86L643.99,-44.61L645.87,-57.94L639.20,-58.87L642.01,-78.86L635.35,-79.80L632.54,-59.81L625.88,-60.75L624.00,-47.42L597.35,-51.17L599.22,-64.50L592.56,-65.43L595.37,-85.42L588.70,-86.36L592.45,-113.02L585.79,-113.95L588.60,-133.95ZM716.25,-34.45L730.31,-134.40L750.30,-131.59L748.43,-118.26L755.09,-117.33L756.03,-123.99L762.69,-123.05L763.63,-129.72L783.62,-126.91L782.68,-120.24L796.01,-118.37L795.07,-111.70L801.74,-110.77L799.86,-97.44L806.53,-96.50L796.22,-23.20L776.23,-26.01L786.54,-99.31L779.87,-100.25L780.81,-106.91L760.82,-109.73L759.88,-103.06L753.22,-104.00L752.28,-97.34L745.62,-98.27L736.24,-31.63Z" fill="#ffffff" stroke="#000000"/>
    <path d="M-777.46,-278.42L-752.79,-409.31L-680.80,-395.74L-682.03,-389.20L-675.49,-387.97L-676.72,-381.42L-670.18,-380.19L-671.41,-373.64L-664.87,-372.41L-671.03,-339.69L-677.58,-340.92L-678.81,-334.37L-685.36,-335.61L-686.59,-329.06L-693.14,-330.30L-694.37,-323.75L-746.73,-333.62L-757.83,-274.72ZM-743.03,-353.25L-697.21,-344.62L-695.98,-351.16L-689.44,-349.93L-685.73,-369.57L-692.28,-370.80L-691.05,-377.34L-736.86,-385.98ZM-662.93,-256.83L-644.43,-355.00L-624.79,-351.30L-627.26,-338.21L-620.72,-336.98L-619.48,-343.52L-612.94,-342.29L-611.70,-348.83L-585.52,-343.90L-586.76,-337.36L-580.21,-336.12L-581.45,-329.58L-574.90,-328.34L-577.37,-315.25L-583.91,-316.49L-585.15,-309.94L-591.69,-311.18L-590.46,-317.72L-597.00,-318.95L-595.77,-325.50L-615.40,-329.20L-616.64,-322.66L-623.18,-323.89L-624.42,-317.34L-630.96,-318.58L-643.30,-253.13ZM-571.48,-266.70L-562.85,-312.52L-556.30,-311.28L-553.84,-324.37L-547.29,-323.14L-546.06,-329.68L-532.97,-327.22L-531.73,-333.76L-505.56,-328.83L-506.79,-322.28L-493.70,-319.82L-494.93,-313.27L-488.39,-312.04L-490.86,-298.95L-484.31,-297.71L-492.95,-251.90L-499.49,-253.13L-501.96,-240.05L-508.50,-241.28L-509.74,-234.73L-522.83,-237.20L-524.06,-230.66L-550.24,-235.59L-549.00,-242.14L-562.09,-244.60L-560.86,-251.15L-567.41,-252.38L-564.94,-265.47ZM-551.85,-263.00L-545.30,-261.77L-546.54,-255.22L-520.36,-250.29L-519.12,-256.84L-512.58,-255.60L-503.95,-301.42L-510.49,-302.65L-509.26,-309.19L-535.44,-314.13L-536.67,-307.58L-543.21,-308.82ZM-485.24,-182.68L-459.33,-320.12L-439.70,-316.42L-465.60,-178.98ZM-456.87,-333.21L-453.17,-352.84L-433.53,-349.14L-437.23,-329.50ZM-432.61,-240.53L-423.98,-286.34L-417.43,-285.11L-414.96,-298.20L-408.42,-296.97L-407.19,-303.51L-394.10,-301.04L-392.86,-307.59L-366.68,-302.65L-367.92,-296.11L-354.83,-293.64L-356.06,-287.10L-349.52,-285.86L-351.98,-272.77L-345.44,-271.54L-350.37,-245.36L-409.28,-256.46L-412.98,-236.83L-406.43,-235.60L-407.67,-229.05L-381.49,-224.12L-380.25,-230.66L-373.71,-229.43L-372.47,-235.97L-352.84,-232.27L-355.31,-219.18L-361.85,-220.42L-363.09,-213.87L-369.63,-215.10L-370.86,-208.56L-383.95,-211.03L-385.19,-204.48L-411.37,-209.42L-410.13,-215.96L-423.22,-218.43L-421.99,-224.97L-428.53,-226.21L-426.07,-239.30ZM-406.81,-269.55L-367.54,-262.15L-365.07,-275.24L-371.62,-276.47L-370.38,-283.02L-396.56,-287.95L-397.80,-281.41L-404.34,-282.64ZM-336.89,-222.49L-328.26,-268.30L-321.71,-267.07L-319.25,-280.16L-312.70,-278.92L-311.47,-285.47L-298.38,-283.00L-297.15,-289.55L-270.97,-284.61L-272.20,-278.07L-259.11,-275.60L-260.34,-269.06L-253.80,-267.82L-257.50,-248.19L-270.59,-250.66L-269.36,-257.20L-275.90,-258.43L-274.67,-264.98L-300.85,-269.91L-302.08,-263.37L-308.62,-264.60L-317.26,-218.79L-310.71,-217.55L-311.95,-211.01L-285.77,-206.08L-284.54,-212.62L-277.99,-211.39L-276.76,-217.93L-263.67,-215.46L-267.37,-195.83L-273.91,-197.06L-275.15,-190.52L-288.24,-192.99L-289.47,-186.44L-315.65,-191.38L-314.42,-197.92L-327.51,-200.39L-326.27,-206.93L-332.82,-208.17L-330.35,-221.25ZM-237.24,-257.92L-233.54,-277.56L-220.45,-275.09L-215.52,-301.27L-195.88,-297.57L-200.82,-271.39L-174.64,-266.46L-178.34,-246.82L-204.52,-251.76L-219.32,-173.22L-238.95,-176.92L-224.15,-255.46ZM-115.42,-153.64L-90.75,-284.53L-31.85,-273.43L-33.08,-266.88L-13.45,-263.18L-14.68,-256.64L-8.13,-255.41L-9.37,-248.86L-2.82,-247.63L-4.06,-241.08L2.49,-239.85L0.02,-226.76L6.57,-225.53L-3.30,-173.17L-9.85,-174.40L-12.31,-161.31L-18.86,-162.55L-20.09,-156.00L-26.64,-157.23L-27.87,-150.69L-34.42,-151.92L-35.65,-145.38L-55.28,-149.08L-56.52,-142.53ZM-92.09,-169.57L-59.36,-163.40L-58.13,-169.95L-45.04,-167.48L-43.80,-174.02L-37.26,-172.79L-36.03,-179.34L-29.48,-178.10L-27.01,-191.19L-20.47,-189.96L-15.54,-216.14L-22.08,-217.37L-19.61,-230.46L-26.16,-231.69L-24.92,-238.24L-31.47,-239.47L-30.24,-246.02L-43.33,-248.48L-42.09,-255.03L-74.82,-261.20ZM9.54,-130.08L28.05,-228.25L47.68,-224.55L45.21,-211.46L51.76,-210.23L52.99,-216.78L59.54,-215.54L60.77,-222.09L86.95,-217.15L85.72,-210.61L92.26,-209.37L91.03,-202.83L97.57,-201.60L95.11,-188.51L88.56,-189.74L87.33,-183.20L80.78,-184.43L82.02,-190.97L75.47,-192.21L76.70,-198.75L57.07,-202.45L55.84,-195.91L49.29,-197.14L48.06,-190.60L41.51,-191.83L29.18,-126.38ZM100.99,-139.96L109.63,-185.77L116.17,-184.54L118.64,-197.63L125.18,-196.39L126.42,-202.94L139.51,-200.47L140.74,-207.01L166.92,-202.08L165.69,-195.54L172.23,-194.30L171.00,-187.76L177.54,-186.52L180.01,-199.61L199.64,-195.91L181.14,-97.74L161.51,-101.44L163.97,-114.53L157.43,-115.76L156.19,-109.22L149.65,-110.45L148.42,-103.91L122.24,-108.84L123.47,-115.39L110.38,-117.85L111.61,-124.40L105.07,-125.63L107.54,-138.72ZM120.63,-136.26L127.17,-135.02L125.94,-128.48L152.12,-123.54L153.35,-130.09L159.89,-128.85L161.13,-135.40L167.67,-134.17L173.84,-166.89L167.30,-168.12L168.53,-174.67L161.98,-175.90L163.22,-182.45L137.04,-187.38L135.81,-180.84L129.26,-182.07ZM214.14,-172.85L217.85,-192.48L237.48,-188.78L233.78,-169.15L240.32,-167.91L236.62,-148.28L243.17,-147.05L239.47,-127.41L246.01,-126.18L242.31,-106.54L248.86,-105.31L252.56,-124.94L259.10,-123.71L262.80,-143.34L269.35,-142.11L271.81,-155.20L278.36,-153.97L275.89,-140.88L282.44,-139.64L278.74,-120.01L285.28,-118.78L281.58,-99.14L288.12,-97.91L291.83,-117.54L298.37,-116.31L302.07,-135.94L308.62,-134.71L312.32,-154.34L318.86,-153.11L322.56,-172.74L342.20,-169.04L338.50,-149.41L331.95,-150.64L328.25,-131.01L321.71,-132.24L316.77,-106.06L310.23,-107.30L306.53,-87.66L299.98,-88.90L297.51,-75.81L271.33,-80.74L273.80,-93.83L267.26,-95.06L270.96,-114.70L264.41,-115.93L260.71,-96.30L254.17,-97.53L251.70,-84.44L225.52,-89.38L227.99,-102.47L221.44,-103.70L225.14,-123.33L218.60,-124.57L223.53,-150.75L216.99,-151.98L220.69,-171.61ZM343.12,-67.21L367.79,-198.11L426.70,-187.00L425.46,-180.46L445.10,-176.76L443.86,-170.21L450.41,-168.98L449.17,-162.44L455.72,-161.20L454.49,-154.66L461.03,-153.42L458.56,-140.33L465.11,-139.10L455.24,-86.74L448.70,-87.98L446.23,-74.89L439.68,-76.12L438.45,-69.57L431.90,-70.81L430.67,-64.26L424.13,-65.50L422.89,-58.95L403.26,-62.65L402.03,-56.11ZM366.46,-83.14L399.18,-76.98L400.41,-83.52L413.50,-81.05L414.74,-87.60L421.28,-86.37L422.52,-92.91L429.06,-91.68L431.53,-104.77L438.07,-103.53L443.01,-129.71L436.46,-130.94L438.93,-144.03L432.38,-145.27L433.62,-151.81L427.07,-153.05L428.31,-159.59L415.22,-162.06L416.45,-168.60L383.73,-174.77ZM470.77,-70.26L479.41,-116.07L485.95,-114.84L488.42,-127.93L494.96,-126.70L496.20,-133.24L509.29,-130.77L510.52,-137.32L536.70,-132.38L535.46,-125.84L548.55,-123.37L547.32,-116.83L553.87,-115.59L551.40,-102.50L557.94,-101.27L549.31,-55.46L542.76,-56.69L540.30,-43.60L533.75,-44.84L532.52,-38.29L519.43,-40.76L518.19,-34.21L492.02,-39.15L493.25,-45.69L480.16,-48.16L481.39,-54.70L474.85,-55.94L477.32,-69.03ZM490.41,-66.56L496.95,-65.33L495.72,-58.78L521.90,-53.85L523.13,-60.39L529.67,-59.16L538.31,-104.97L531.76,-106.21L533.00,-112.75L506.82,-117.68L505.58,-111.14L499.04,-112.37ZM575.33,-104.77L579.03,-124.40L598.67,-120.70L594.97,-101.07L601.51,-99.84L597.81,-80.20L604.36,-78.97L600.66,-59.33L607.20,-58.10L603.50,-38.47L610.05,-37.23L613.75,-56.87L620.29,-55.63L623.99,-75.27L630.54,-74.03L633.00,-87.12L639.55,-85.89L637.08,-72.80L643.63,-71.57L639.93,-51.93L646.47,-50.70L642.77,-31.06L649.31,-29.83L653.01,-49.47L659.56,-48.23L663.26,-67.87L669.80,-66.63L673.51,-86.27L680.05,-85.03L683.75,-104.67L703.39,-100.97L699.68,-81.33L693.14,-82.57L689.44,-62.93L682.89,-64.17L677.96,-37.99L671.42,-39.22L667.71,-19.59L661.17,-20.82L658.70,-7.73L632.52,-12.66L634.99,-25.75L628.45,-26.99L632.15,-46.62L625.60,-47.86L621.90,-28.22L615.36,-29.45L612.89,-16.36L586.71,-21.30L589.18,-34.39L582.63,-35.62L586.33,-55.26L579.79,-56.49L584.72,-82.67L578.18,-83.90L581.88,-103.54ZM703.49,0.71L722.00,-97.46L741.63,-93.76L739.16,-80.67L745.71,-79.44L746.94,-85.98L753.49,-84.75L754.72,-91.29L774.35,-87.59L773.12,-81.05L786.21,-78.58L784.98,-72.03L791.52,-70.80L789.05,-57.71L795.60,-56.48L782.03,15.51L762.40,11.81L775.97,-60.18L769.42,-61.41L770.65,-67.96L751.02,-71.66L749.79,-65.11L743.24,-66.35L742.01,-59.80L735.46,-61.03L723.13,4.41Z" fill="#ffffff" stroke="#000000"/>
    <path d="M-761.91,-309.58L-731.49,-437.84L-660.95,-421.11L-662.47,-414.69L-656.06,-413.17L-657.58,-406.76L-651.17,-405.24L-652.69,-398.83L-646.27,-397.30L-653.88,-365.24L-660.29,-366.76L-661.81,-360.35L-668.23,-361.87L-669.75,-355.46L-676.16,-356.98L-677.68,-350.56L-728.98,-362.73L-742.67,-305.02ZM-724.42,-381.97L-679.53,-371.32L-678.01,-377.74L-671.60,-376.22L-667.03,-395.45L-673.45,-396.98L-671.93,-403.39L-716.81,-414.03ZM-649.69,-282.96L-626.87,-379.16L-607.63,-374.59L-610.67,-361.77L-604.26,-360.25L-602.74,-366.66L-596.33,-365.14L-594.81,-371.55L-569.16,-365.47L-570.68,-359.05L-564.26,-357.53L-565.79,-351.12L-559.37,-349.60L-562.41,-336.77L-568.83,-338.30L-570.35,-331.88L-576.76,-333.40L-575.24,-339.82L-581.65,-341.34L-580.13,-347.75L-599.37,-352.31L-600.89,-345.90L-607.30,-347.42L-608.82,-341.01L-615.24,-342.53L-630.45,-278.40ZM-558.83,-288.51L-548.19,-333.40L-541.77,-331.88L-538.73,-344.70L-532.32,-343.18L-530.80,-349.60L-517.97,-346.55L-516.45,-352.97L-490.80,-346.88L-492.32,-340.47L-479.50,-337.43L-481.02,-331.02L-474.60,-329.50L-477.65,-316.67L-471.23,-315.15L-481.88,-270.26L-488.29,-271.78L-491.33,-258.96L-497.75,-260.48L-499.27,-254.06L-512.09,-257.11L-513.61,-250.69L-539.27,-256.78L-537.74,-263.19L-550.57,-266.23L-549.05,-272.64L-555.46,-274.16L-552.42,-286.99ZM-539.59,-283.95L-533.18,-282.43L-534.70,-276.01L-509.05,-269.93L-507.53,-276.34L-501.12,-274.82L-490.47,-319.71L-496.88,-321.23L-495.36,-327.65L-521.01,-333.73L-522.54,-327.32L-528.95,-328.84ZM-477.45,-201.47L-445.51,-336.14L-426.27,-331.58L-458.21,-196.91ZM-442.47,-348.97L-437.91,-368.21L-418.67,-363.64L-423.23,-344.41ZM-422.76,-256.24L-412.12,-301.13L-405.70,-299.61L-402.66,-312.43L-396.25,-310.91L-394.73,-317.32L-381.90,-314.28L-380.38,-320.70L-354.73,-314.61L-356.25,-308.20L-343.43,-305.16L-344.95,-298.74L-338.53,-297.22L-341.58,-284.40L-335.16,-282.88L-341.25,-257.23L-398.96,-270.91L-403.52,-251.68L-397.11,-250.16L-398.63,-243.74L-372.98,-237.66L-371.46,-244.07L-365.05,-242.55L-363.53,-248.96L-344.29,-244.40L-347.33,-231.58L-353.74,-233.10L-355.26,-226.68L-361.68,-228.20L-363.20,-221.79L-376.02,-224.83L-377.54,-218.42L-403.20,-224.50L-401.67,-230.92L-414.50,-233.96L-412.98,-240.37L-419.39,-241.89L-416.35,-254.72ZM-395.92,-283.74L-357.44,-274.61L-354.40,-287.44L-360.81,-288.96L-359.29,-295.37L-384.94,-301.46L-386.47,-295.04L-392.88,-296.57ZM-328.98,-234.00L-318.33,-278.88L-311.92,-277.36L-308.88,-290.19L-302.46,-288.67L-300.94,-295.08L-288.12,-292.04L-286.60,-298.45L-260.94,-292.37L-262.47,-285.96L-249.64,-282.91L-251.16,-276.50L-244.75,-274.98L-249.31,-255.74L-262.14,-258.78L-260.62,-265.20L-267.03,-266.72L-265.51,-273.13L-291.16,-279.21L-292.68,-272.80L-299.09,-274.32L-309.74,-229.43L-303.33,-227.91L-304.85,-221.50L-279.20,-215.42L-277.67,-221.83L-271.26,-220.31L-269.74,-226.72L-256.92,-223.68L-261.48,-204.44L-267.89,-205.96L-269.41,-199.55L-282.24,-202.59L-283.76,-196.18L-309.41,-202.26L-307.89,-208.67L-320.71,-211.72L-319.19,-218.13L-325.61,-219.65L-322.56,-232.47ZM-228.83,-264.43L-224.27,-283.67L-211.45,-280.63L-205.36,-306.28L-186.12,-301.72L-192.21,-276.07L-166.56,-269.98L-171.12,-250.74L-196.77,-256.83L-215.02,-179.88L-234.26,-184.44L-216.01,-261.39ZM-113.22,-155.73L-82.80,-283.99L-25.09,-270.30L-26.61,-263.88L-7.37,-259.32L-8.89,-252.91L-2.48,-251.39L-4.00,-244.98L2.41,-243.45L0.89,-237.04L7.31,-235.52L4.26,-222.70L10.68,-221.17L-1.49,-169.87L-7.90,-171.39L-10.94,-158.57L-17.36,-160.09L-18.88,-153.68L-25.29,-155.20L-26.81,-148.78L-33.22,-150.31L-34.75,-143.89L-53.98,-148.46L-55.50,-142.04ZM-89.42,-170.41L-57.36,-162.80L-55.83,-169.21L-43.01,-166.17L-41.49,-172.59L-35.07,-171.06L-33.55,-177.48L-27.14,-175.96L-24.10,-188.78L-17.69,-187.26L-11.60,-212.91L-18.02,-214.43L-14.97,-227.26L-21.39,-228.78L-19.87,-235.19L-26.28,-236.71L-24.76,-243.13L-37.58,-246.17L-36.06,-252.58L-68.13,-260.18ZM9.22,-126.69L32.04,-222.88L51.28,-218.32L48.23,-205.49L54.65,-203.97L56.17,-210.39L62.58,-208.86L64.10,-215.28L89.75,-209.19L88.23,-202.78L94.64,-201.26L93.12,-194.85L99.54,-193.33L96.49,-180.50L90.08,-182.02L88.56,-175.61L82.15,-177.13L83.67,-183.54L77.26,-185.06L78.78,-191.48L59.54,-196.04L58.02,-189.63L51.60,-191.15L50.08,-184.73L43.67,-186.26L28.46,-122.13ZM100.08,-132.24L110.72,-177.13L117.13,-175.61L120.18,-188.43L126.59,-186.91L128.11,-193.32L140.94,-190.28L142.46,-196.69L168.11,-190.61L166.59,-184.20L173.00,-182.68L171.48,-176.26L177.89,-174.74L180.93,-187.57L200.17,-183.01L177.36,-86.81L158.12,-91.38L161.16,-104.20L154.75,-105.72L153.23,-99.31L146.81,-100.83L145.29,-94.42L119.64,-100.50L121.16,-106.92L108.34,-109.96L109.86,-116.37L103.45,-117.89L106.49,-130.72ZM119.31,-127.67L125.73,-126.15L124.21,-119.74L149.86,-113.66L151.38,-120.07L157.79,-118.55L159.31,-124.96L165.72,-123.44L173.33,-155.50L166.92,-157.03L168.44,-163.44L162.02,-164.96L163.54,-171.37L137.89,-177.46L136.37,-171.04L129.96,-172.56ZM213.44,-159.54L218.01,-178.78L237.24,-174.21L232.68,-154.97L239.09,-153.45L234.53,-134.22L240.94,-132.69L236.38,-113.46L242.79,-111.94L238.23,-92.70L244.64,-91.18L249.21,-110.41L255.62,-108.89L260.18,-128.13L266.60,-126.61L269.64,-139.44L276.05,-137.92L273.01,-125.09L279.42,-123.57L274.86,-104.33L281.27,-102.81L276.71,-83.57L283.12,-82.05L287.68,-101.29L294.10,-99.77L298.66,-119.01L305.07,-117.49L309.63,-136.72L316.05,-135.20L320.61,-154.44L339.85,-149.88L335.29,-130.64L328.87,-132.16L324.31,-112.92L317.90,-114.44L311.81,-88.79L305.40,-90.31L300.84,-71.08L294.43,-72.60L291.38,-59.77L265.73,-65.85L268.77,-78.68L262.36,-80.20L266.92,-99.44L260.51,-100.96L255.95,-81.72L249.54,-83.24L246.49,-70.42L220.84,-76.50L223.89,-89.33L217.47,-90.85L222.04,-110.09L215.62,-111.61L221.71,-137.26L215.29,-138.78L219.86,-158.02ZM336.07,-49.17L366.49,-177.43L424.21,-163.74L422.68,-157.33L441.92,-152.76L440.40,-146.35L446.81,-144.83L445.29,-138.42L451.71,-136.90L450.19,-130.48L456.60,-128.96L453.56,-116.14L459.97,-114.62L447.80,-63.31L441.39,-64.84L438.35,-52.01L431.93,-53.53L430.41,-47.12L424.00,-48.64L422.48,-42.23L416.07,-43.75L414.55,-37.33L395.31,-41.90L393.79,-35.48ZM359.87,-63.85L391.94,-56.24L393.46,-62.66L406.28,-59.61L407.80,-66.03L414.22,-64.51L415.74,-70.92L422.15,-69.40L425.19,-82.22L431.61,-80.70L437.69,-106.35L431.28,-107.87L434.32,-120.70L427.91,-122.22L429.43,-128.63L423.01,-130.15L424.53,-136.57L411.71,-139.61L413.23,-146.02L381.17,-153.63ZM462.40,-46.31L473.04,-91.20L479.45,-89.67L482.50,-102.50L488.91,-100.98L490.43,-107.39L503.26,-104.35L504.78,-110.76L530.43,-104.68L528.91,-98.27L541.73,-95.22L540.21,-88.81L546.62,-87.29L543.58,-74.47L549.99,-72.94L539.35,-28.06L532.94,-29.58L529.89,-16.75L523.48,-18.27L521.96,-11.86L509.13,-14.90L507.61,-8.49L481.96,-14.57L483.48,-20.98L470.66,-24.03L472.18,-30.44L465.77,-31.96L468.81,-44.79ZM481.63,-41.74L488.05,-40.22L486.53,-33.81L512.18,-27.73L513.70,-34.14L520.11,-32.62L530.76,-77.51L524.34,-79.03L525.86,-85.44L500.21,-91.52L498.69,-85.11L492.28,-86.63ZM567.35,-75.60L571.91,-94.84L591.15,-90.28L586.58,-71.04L593.00,-69.52L588.43,-50.28L594.85,-48.76L590.28,-29.52L596.70,-28.00L592.13,-8.76L598.55,-7.24L603.11,-26.48L609.52,-24.96L614.09,-44.20L620.50,-42.68L623.54,-55.50L629.95,-53.98L626.91,-41.16L633.32,-39.63L628.76,-20.40L635.17,-18.88L630.61,0.36L637.02,1.88L641.59,-17.35L648.00,-15.83L652.56,-35.07L658.97,-33.55L663.54,-52.79L669.95,-51.27L674.51,-70.51L693.75,-65.94L689.19,-46.71L682.78,-48.23L678.21,-28.99L671.80,-30.51L665.72,-4.86L659.30,-6.38L654.74,12.86L648.33,11.34L645.29,24.16L619.64,18.08L622.68,5.25L616.26,3.73L620.83,-15.50L614.41,-17.03L609.85,2.21L603.44,0.69L600.40,13.52L574.75,7.43L577.79,-5.39L571.38,-6.91L575.94,-26.15L569.53,-27.67L575.61,-53.32L569.20,-54.84L573.76,-74.08ZM689.17,34.57L711.99,-61.62L731.23,-57.06L728.18,-44.23L734.60,-42.71L736.12,-49.12L742.53,-47.60L744.05,-54.01L763.29,-49.45L761.77,-43.04L774.59,-40.00L773.07,-33.58L779.49,-32.06L776.44,-19.24L782.86,-17.72L766.13,52.82L746.89,48.26L763.62,-22.28L757.21,-23.80L758.73,-30.21L739.49,-34.78L737.97,-28.36L731.55,-29.88L730.03,-23.47L723.62,-24.99L708.41,39.14Z" fill="#ffffff" stroke="#000000"/>
    <path d="M-745.01,-339.93L-709.03,-465.30L-640.08,-445.51L-641.88,-439.24L-635.61,-437.45L-637.41,-431.18L-631.14,-429.38L-632.94,-423.11L-626.67,-421.31L-635.67,-389.97L-641.94,-391.77L-643.73,-385.50L-650.00,-387.30L-651.80,-381.03L-658.07,-382.83L-659.87,-376.56L-710.02,-390.95L-726.20,-334.54ZM-704.62,-409.76L-660.74,-397.17L-658.94,-403.43L-652.67,-401.64L-647.28,-420.44L-653.55,-422.24L-651.75,-428.51L-695.63,-441.10ZM-635.31,-308.46L-608.33,-402.48L-589.53,-397.08L-593.13,-384.55L-586.86,-382.75L-585.06,-389.02L-578.79,-387.22L-576.99,-393.49L-551.92,-386.29L-553.72,-380.02L-547.45,-378.23L-549.25,-371.96L-542.98,-370.16L-546.58,-357.62L-552.84,-359.42L-554.64,-353.15L-560.91,-354.95L-559.11,-361.22L-565.38,-363.02L-563.58,-369.29L-582.39,-374.68L-584.19,-368.41L-590.45,-370.21L-592.25,-363.94L-598.52,-365.74L-616.51,-303.06ZM-545.26,-309.75L-532.67,-353.63L-526.40,-351.83L-522.80,-364.37L-516.53,-362.57L-514.74,-368.84L-502.20,-365.24L-500.40,-371.51L-475.33,-364.31L-477.13,-358.05L-464.59,-354.45L-466.39,-348.18L-460.12,-346.38L-463.72,-333.85L-457.45,-332.05L-470.04,-288.17L-476.31,-289.97L-479.91,-277.43L-486.17,-279.23L-487.97,-272.96L-500.51,-276.56L-502.31,-270.29L-527.38,-277.49L-525.58,-283.75L-538.12,-287.35L-536.32,-293.62L-542.59,-295.42L-538.99,-307.95ZM-526.45,-304.36L-520.19,-302.56L-521.98,-296.29L-496.91,-289.10L-495.11,-295.36L-488.84,-293.56L-476.25,-337.44L-482.52,-339.24L-480.72,-345.51L-505.80,-352.70L-507.60,-346.44L-513.86,-348.23ZM-468.83,-219.98L-431.06,-351.61L-412.25,-346.22L-450.03,-214.58ZM-427.46,-364.15L-422.06,-382.95L-403.26,-377.56L-408.66,-358.75ZM-412.25,-271.59L-399.66,-315.47L-393.39,-313.67L-389.80,-326.20L-383.53,-324.40L-381.73,-330.67L-369.19,-327.08L-367.40,-333.34L-342.32,-326.15L-344.12,-319.88L-331.58,-316.28L-333.38,-310.01L-327.11,-308.22L-330.71,-295.68L-324.44,-293.88L-331.64,-268.81L-388.05,-285.00L-393.45,-266.19L-387.18,-264.39L-388.98,-258.12L-363.91,-250.93L-362.11,-257.20L-355.84,-255.40L-354.04,-261.67L-335.24,-256.27L-338.83,-243.73L-345.10,-245.53L-346.90,-239.27L-353.17,-241.06L-354.97,-234.80L-367.50,-238.39L-369.30,-232.12L-394.38,-239.32L-392.58,-245.59L-405.11,-249.18L-403.31,-255.45L-409.58,-257.25L-405.99,-269.79ZM-384.46,-297.53L-346.85,-286.74L-343.25,-299.28L-349.52,-301.08L-347.72,-307.34L-372.79,-314.54L-374.59,-308.27L-380.86,-310.07ZM-320.58,-245.28L-307.99,-289.16L-301.72,-287.36L-298.12,-299.90L-291.86,-298.10L-290.06,-304.37L-277.52,-300.77L-275.72,-307.04L-250.65,-299.84L-252.45,-293.57L-239.91,-289.98L-241.71,-283.71L-235.44,-281.91L-240.84,-263.11L-253.37,-266.70L-251.57,-272.97L-257.84,-274.77L-256.04,-281.04L-281.12,-288.23L-282.92,-281.96L-289.18,-283.76L-301.78,-239.89L-295.51,-238.09L-297.31,-231.82L-272.23,-224.62L-270.43,-230.89L-264.17,-229.09L-262.37,-235.36L-249.83,-231.76L-255.23,-212.96L-261.49,-214.76L-263.29,-208.49L-275.83,-212.09L-277.63,-205.82L-302.70,-213.01L-300.90,-219.28L-313.44,-222.88L-311.64,-229.15L-317.91,-230.95L-314.31,-243.48ZM-220.20,-270.75L-214.80,-289.56L-202.27,-285.96L-195.07,-311.03L-176.27,-305.64L-183.46,-280.56L-158.39,-273.37L-163.78,-254.56L-188.86,-261.76L-210.44,-186.54L-229.25,-191.94L-207.66,-267.15ZM-110.93,-157.99L-74.96,-283.35L-18.54,-267.16L-20.34,-260.89L-1.54,-255.50L-3.34,-249.23L2.93,-247.43L1.13,-241.16L7.40,-239.36L5.60,-233.10L11.87,-231.30L8.27,-218.76L14.54,-216.96L0.15,-166.82L-6.11,-168.61L-9.71,-156.08L-15.98,-157.88L-17.78,-151.61L-24.05,-153.41L-25.85,-147.14L-32.11,-148.94L-33.91,-142.67L-52.72,-148.07L-54.52,-141.80ZM-86.73,-171.39L-55.39,-162.40L-53.59,-168.67L-41.05,-165.07L-39.26,-171.34L-32.99,-169.54L-31.19,-175.81L-24.92,-174.01L-21.32,-186.55L-15.05,-184.75L-7.86,-209.82L-14.13,-211.62L-10.53,-224.16L-16.80,-225.96L-15.00,-232.22L-21.27,-234.02L-19.47,-240.29L-32.01,-243.89L-30.21,-250.16L-61.55,-259.15ZM8.75,-123.64L35.73,-217.67L54.54,-212.27L50.94,-199.73L57.21,-197.93L59.01,-204.20L65.28,-202.40L67.08,-208.67L92.15,-201.48L90.35,-195.21L96.62,-193.41L94.82,-187.14L101.09,-185.34L97.49,-172.81L91.22,-174.61L89.42,-168.34L83.16,-170.14L84.95,-176.40L78.69,-178.20L80.48,-184.47L61.68,-189.87L59.88,-183.60L53.61,-185.40L51.81,-179.13L45.55,-180.93L27.56,-118.25ZM98.81,-124.94L111.40,-168.82L117.67,-167.02L121.26,-179.55L127.53,-177.76L129.33,-184.02L141.87,-180.43L143.67,-186.69L168.74,-179.50L166.94,-173.23L173.21,-171.43L171.41,-165.16L177.68,-163.37L181.28,-175.90L200.08,-170.51L173.10,-76.48L154.30,-81.88L157.89,-94.42L151.62,-96.21L149.83,-89.95L143.56,-91.74L141.76,-85.48L116.69,-92.67L118.48,-98.94L105.95,-102.54L107.75,-108.80L101.48,-110.60L105.08,-123.14ZM117.61,-119.54L123.88,-117.74L122.08,-111.48L147.16,-104.28L148.95,-110.55L155.22,-108.75L157.02,-115.02L163.29,-113.22L172.28,-144.56L166.01,-146.36L167.81,-152.63L161.54,-154.43L163.34,-160.70L138.27,-167.89L136.47,-161.62L130.20,-163.42ZM212.12,-146.70L217.51,-165.50L236.32,-160.11L230.92,-141.30L237.19,-139.50L231.80,-120.70L238.06,-118.90L232.67,-100.10L238.94,-98.30L233.54,-79.49L239.81,-77.69L245.20,-96.50L251.47,-94.70L256.87,-113.51L263.14,-111.71L266.73,-124.24L273.00,-122.44L269.41,-109.91L275.67,-108.11L270.28,-89.30L276.55,-87.51L271.15,-68.70L277.42,-66.90L282.81,-85.71L289.08,-83.91L294.48,-102.71L300.75,-100.91L306.14,-119.72L312.41,-117.92L317.81,-136.73L336.61,-131.33L331.22,-112.52L324.95,-114.32L319.55,-95.52L313.28,-97.32L306.09,-72.24L299.82,-74.04L294.42,-55.24L288.16,-57.04L284.56,-44.50L259.49,-51.69L263.08,-64.23L256.81,-66.03L262.21,-84.83L255.94,-86.63L250.55,-67.83L244.28,-69.63L240.68,-57.09L215.61,-64.29L219.20,-76.82L212.94,-78.62L218.33,-97.43L212.06,-99.22L219.26,-124.30L212.99,-126.10L218.39,-144.90ZM328.24,-31.97L364.21,-157.33L420.63,-141.14L418.83,-134.87L437.64,-129.48L435.84,-123.21L442.10,-121.41L440.31,-115.14L446.57,-113.34L444.78,-107.08L451.04,-105.28L447.45,-92.74L453.71,-90.94L439.33,-40.80L433.06,-42.59L429.46,-30.06L423.19,-31.86L421.39,-25.59L415.12,-27.39L413.33,-21.12L407.06,-22.92L405.26,-16.65L386.45,-22.05L384.66,-15.78ZM352.44,-45.37L383.78,-36.38L385.58,-42.65L398.12,-39.05L399.92,-45.32L406.19,-43.52L407.98,-49.79L414.25,-47.99L417.85,-60.53L424.12,-58.73L431.31,-83.80L425.04,-85.60L428.64,-98.14L422.37,-99.94L424.17,-106.20L417.90,-108.00L419.70,-114.27L407.17,-117.87L408.96,-124.14L377.62,-133.13ZM452.97,-23.31L465.56,-67.19L471.82,-65.39L475.42,-77.93L481.69,-76.13L483.49,-82.40L496.03,-78.80L497.82,-85.07L522.90,-77.87L521.10,-71.61L533.64,-68.01L531.84,-61.74L538.11,-59.94L534.51,-47.41L540.78,-45.61L528.19,-1.73L521.92,-3.53L518.32,9.01L512.05,7.21L510.25,13.48L497.72,9.88L495.92,16.15L470.84,8.95L472.64,2.69L460.11,-0.91L461.90,-7.18L455.64,-8.98L459.23,-21.51ZM471.77,-17.92L478.04,-16.12L476.24,-9.85L501.31,-2.66L503.11,-8.92L509.38,-7.12L521.97,-51.00L515.70,-52.80L517.50,-59.07L492.43,-66.26L490.63,-60.00L484.36,-61.80ZM558.05,-47.43L563.45,-66.24L582.25,-60.84L576.85,-42.04L583.12,-40.24L577.73,-21.44L583.99,-19.64L578.60,-0.83L584.87,0.97L579.47,19.77L585.74,21.57L591.14,2.77L597.40,4.56L602.80,-14.24L609.07,-12.44L612.67,-24.98L618.93,-23.18L615.34,-10.64L621.60,-8.84L616.21,9.96L622.48,11.76L617.08,30.56L623.35,32.36L628.75,13.56L635.01,15.36L640.41,-3.45L646.68,-1.65L652.07,-20.45L658.34,-18.66L663.74,-37.46L682.54,-32.06L677.15,-13.26L670.88,-15.06L665.48,3.75L659.21,1.95L652.02,27.02L645.75,25.22L640.36,44.03L634.09,42.23L630.49,54.76L605.42,47.57L609.01,35.03L602.75,33.23L608.14,14.43L601.87,12.63L596.48,31.44L590.21,29.64L586.61,42.17L561.54,34.98L565.14,22.44L558.87,20.64L564.26,1.84L558.00,0.04L565.19,-25.03L558.92,-26.83L564.32,-45.64ZM673.39,67.07L700.37,-26.95L719.17,-21.55L715.58,-9.02L721.84,-7.22L723.64,-13.49L729.91,-11.69L731.71,-17.96L750.51,-12.56L748.72,-6.29L761.25,-2.69L759.45,3.57L765.72,5.37L762.12,17.91L768.39,19.71L748.61,88.66L729.80,83.26L749.59,14.31L743.32,12.51L745.12,6.24L726.31,0.85L724.52,7.12L718.25,5.32L716.45,11.59L710.18,9.79L692.19,72.47Z" fill="#ffffff" stroke="#000000"/>
    <path d="M-726.81,-369.41L-685.48,-491.65L-618.25,-468.92L-620.31,-462.81L-614.20,-460.74L-616.27,-454.63L-610.15,-452.57L-612.22,-446.45L-606.11,-444.39L-616.44,-413.83L-622.55,-415.89L-624.62,-409.78L-630.73,-411.85L-632.80,-405.74L-638.91,-407.80L-640.98,-401.69L-689.87,-418.22L-708.47,-363.21ZM-683.67,-436.56L-640.89,-422.09L-638.82,-428.21L-632.71,-426.14L-626.51,-444.47L-632.62,-446.54L-630.56,-452.65L-673.34,-467.12ZM-619.84,-333.25L-588.85,-424.93L-570.51,-418.73L-574.65,-406.51L-568.53,-404.44L-566.47,-410.55L-560.36,-408.49L-558.29,-414.60L-533.84,-406.33L-535.91,-400.22L-529.80,-398.16L-531.86,-392.04L-525.75,-389.98L-529.88,-377.75L-535.99,-379.82L-538.06,-373.71L-544.17,-375.77L-542.11,-381.89L-548.22,-383.95L-546.15,-390.06L-564.49,-396.26L-566.55,-390.15L-572.67,-392.22L-574.73,-386.11L-580.84,-388.17L-601.51,-327.05ZM-530.79,-330.38L-516.32,-373.17L-510.21,-371.10L-506.08,-383.33L-499.96,-381.26L-497.90,-387.37L-485.67,-383.24L-483.61,-389.35L-459.16,-381.09L-461.23,-374.97L-449.00,-370.84L-451.07,-364.73L-444.96,-362.66L-449.09,-350.44L-442.98,-348.37L-457.44,-305.59L-463.55,-307.66L-467.69,-295.43L-473.80,-297.50L-475.86,-291.39L-488.09,-295.52L-490.15,-289.41L-514.60,-297.67L-512.54,-303.78L-524.76,-307.92L-522.69,-314.03L-528.81,-316.09L-524.67,-328.32ZM-512.45,-324.19L-506.34,-322.12L-508.40,-316.01L-483.96,-307.74L-481.89,-313.85L-475.78,-311.79L-461.31,-354.57L-467.43,-356.64L-465.36,-362.75L-489.81,-371.02L-491.87,-364.90L-497.99,-366.97ZM-459.39,-238.14L-415.99,-366.49L-397.66,-360.29L-441.05,-231.94ZM-411.86,-378.72L-405.66,-397.05L-387.33,-390.85L-393.52,-372.52ZM-401.10,-286.54L-386.63,-329.32L-380.52,-327.26L-376.39,-339.48L-370.27,-337.42L-368.21,-343.53L-355.98,-339.39L-353.92,-345.51L-329.47,-337.24L-331.54,-331.13L-319.31,-327.00L-321.38,-320.88L-315.27,-318.82L-319.40,-306.59L-313.29,-304.53L-321.55,-280.08L-376.56,-298.68L-382.76,-280.34L-376.65,-278.27L-378.71,-272.16L-354.27,-263.90L-352.20,-270.01L-346.09,-267.94L-344.02,-274.05L-325.69,-267.86L-329.82,-255.63L-335.93,-257.70L-338.00,-251.59L-344.11,-253.65L-346.17,-247.54L-358.40,-251.67L-360.47,-245.56L-384.91,-253.83L-382.85,-259.94L-395.07,-264.07L-393.00,-270.18L-399.12,-272.25L-394.98,-284.47ZM-372.43,-310.90L-335.76,-298.50L-331.62,-310.73L-337.74,-312.79L-335.67,-318.91L-360.12,-327.17L-362.18,-321.06L-368.30,-323.12ZM-311.71,-256.32L-297.24,-299.10L-291.13,-297.04L-287.00,-309.26L-280.89,-307.19L-278.82,-313.31L-266.60,-309.17L-264.53,-315.29L-240.08,-307.02L-242.15,-300.91L-229.92,-296.78L-231.99,-290.66L-225.88,-288.60L-232.08,-270.26L-244.30,-274.39L-242.23,-280.51L-248.35,-282.57L-246.28,-288.68L-270.73,-296.95L-272.80,-290.84L-278.91,-292.90L-293.37,-250.12L-287.26,-248.05L-289.33,-241.94L-264.88,-233.68L-262.81,-239.79L-256.70,-237.72L-254.63,-243.83L-242.41,-239.70L-248.61,-221.37L-254.72,-223.43L-256.79,-217.32L-269.01,-221.45L-271.08,-215.34L-295.52,-223.61L-293.46,-229.72L-305.68,-233.85L-303.62,-239.96L-309.73,-242.03L-305.60,-254.25ZM-211.33,-276.87L-205.13,-295.20L-192.90,-291.07L-184.64,-315.52L-166.30,-309.32L-174.57,-284.87L-150.12,-276.61L-156.32,-258.27L-180.77,-266.54L-205.56,-193.19L-223.90,-199.39L-199.10,-272.74ZM-108.53,-160.39L-67.21,-282.63L-12.20,-264.03L-14.27,-257.92L4.07,-251.72L2.00,-245.61L8.12,-243.54L6.05,-237.43L12.16,-235.36L10.10,-229.25L16.21,-227.19L12.07,-214.96L18.19,-212.90L1.66,-164.00L-4.46,-166.07L-8.59,-153.84L-14.70,-155.91L-16.77,-149.80L-22.88,-151.86L-24.95,-145.75L-31.06,-147.82L-33.12,-141.70L-51.46,-147.90L-53.53,-141.79ZM-84.00,-172.53L-53.44,-162.19L-51.37,-168.31L-39.15,-164.17L-37.08,-170.29L-30.97,-168.22L-28.90,-174.33L-22.79,-172.26L-18.66,-184.49L-12.55,-182.42L-4.28,-206.87L-10.39,-208.94L-6.26,-221.16L-12.37,-223.23L-10.31,-229.34L-16.42,-231.41L-14.35,-237.52L-26.58,-241.65L-24.51,-247.76L-55.07,-258.09ZM8.17,-120.93L39.16,-212.61L57.50,-206.42L53.37,-194.19L59.48,-192.13L61.54,-198.24L67.66,-196.17L69.72,-202.28L94.17,-194.02L92.10,-187.91L98.22,-185.84L96.15,-179.73L102.26,-177.66L98.13,-165.44L92.02,-167.50L89.95,-161.39L83.84,-163.46L85.90,-169.57L79.79,-171.64L81.86,-177.75L63.52,-183.95L61.46,-177.84L55.34,-179.90L53.28,-173.79L47.17,-175.86L26.50,-114.74ZM97.23,-118.07L111.69,-160.85L117.80,-158.79L121.93,-171.01L128.05,-168.94L130.11,-175.06L142.34,-170.92L144.40,-177.04L168.85,-168.77L166.79,-162.66L172.90,-160.59L170.83,-154.48L176.94,-152.41L181.08,-164.64L199.41,-158.44L168.42,-66.76L150.08,-72.96L154.21,-85.18L148.10,-87.25L146.03,-81.14L139.92,-83.20L137.86,-77.09L113.41,-85.35L115.47,-91.47L103.25,-95.60L105.32,-101.71L99.20,-103.78L103.34,-116.00ZM115.56,-111.87L121.67,-109.80L119.61,-103.69L144.06,-95.43L146.12,-101.54L152.23,-99.47L154.30,-105.58L160.41,-103.52L170.74,-134.08L164.63,-136.14L166.70,-142.26L160.59,-144.32L162.65,-150.43L138.20,-158.70L136.14,-152.59L130.03,-154.65ZM210.21,-134.35L216.41,-152.69L234.75,-146.49L228.55,-128.16L234.66,-126.09L228.46,-107.75L234.57,-105.69L228.37,-87.35L234.49,-85.28L228.29,-66.95L234.40,-64.88L240.60,-83.22L246.71,-81.15L252.91,-99.49L259.02,-97.42L263.15,-109.65L269.27,-107.58L265.13,-95.36L271.25,-93.29L265.05,-74.95L271.16,-72.89L264.96,-54.55L271.07,-52.48L277.27,-70.82L283.38,-68.75L289.58,-87.09L295.69,-85.02L301.89,-103.36L308.00,-101.29L314.20,-119.63L332.54,-113.43L326.34,-95.09L320.23,-97.16L314.03,-78.82L307.92,-80.89L299.65,-56.44L293.54,-58.51L287.34,-40.17L281.23,-42.24L277.10,-30.02L252.65,-38.28L256.78,-50.50L250.67,-52.57L256.87,-70.91L250.76,-72.97L244.56,-54.64L238.44,-56.70L234.31,-44.48L209.86,-52.75L214.00,-64.97L207.88,-67.04L214.08,-85.37L207.97,-87.44L216.24,-111.89L210.12,-113.95L216.32,-132.29ZM319.69,-15.62L361.02,-137.86L416.02,-119.26L413.96,-113.15L432.29,-106.95L430.23,-100.84L436.34,-98.77L434.27,-92.66L440.39,-90.59L438.32,-84.48L444.43,-82.41L440.30,-70.19L446.41,-68.12L429.88,-19.23L423.77,-21.29L419.64,-9.07L413.52,-11.13L411.46,-5.02L405.34,-7.09L403.28,-0.98L397.17,-3.04L395.10,3.07L376.76,-3.13L374.70,2.98ZM344.22,-27.75L374.78,-17.42L376.85,-23.53L389.07,-19.40L391.14,-25.51L397.25,-23.45L399.32,-29.56L405.43,-27.49L409.56,-39.72L415.68,-37.65L423.94,-62.10L417.83,-64.16L421.96,-76.39L415.85,-78.45L417.92,-84.57L411.80,-86.63L413.87,-92.74L401.65,-96.88L403.71,-102.99L373.15,-113.32ZM442.56,-1.32L457.02,-44.10L463.13,-42.04L467.26,-54.26L473.38,-52.20L475.44,-58.31L487.67,-54.17L489.73,-60.29L514.18,-52.02L512.11,-45.91L524.34,-41.78L522.27,-35.66L528.38,-33.60L524.25,-21.37L530.36,-19.31L515.90,23.48L509.79,21.41L505.65,33.63L499.54,31.57L497.48,37.68L485.25,33.55L483.19,39.66L458.74,31.39L460.80,25.28L448.58,21.15L450.65,15.04L444.53,12.97L448.67,0.75ZM460.89,4.88L467.00,6.95L464.94,13.06L489.39,21.32L491.45,15.21L497.56,17.28L512.03,-25.51L505.92,-27.57L507.98,-33.69L483.53,-41.95L481.47,-35.84L475.36,-37.91ZM547.52,-20.32L553.72,-38.65L572.05,-32.46L565.86,-14.12L571.97,-12.05L565.77,6.28L571.88,8.35L565.68,26.69L571.79,28.75L565.59,47.09L571.71,49.15L577.91,30.82L584.02,32.88L590.22,14.55L596.33,16.61L600.46,4.39L606.57,6.46L602.44,18.68L608.55,20.75L602.35,39.08L608.47,41.15L602.27,59.49L608.38,61.55L614.58,43.22L620.69,45.28L626.89,26.95L633.00,29.01L639.20,10.68L645.31,12.74L651.51,-5.59L669.85,0.61L663.65,18.94L657.54,16.88L651.34,35.21L645.22,33.15L636.96,57.59L630.85,55.53L624.65,73.86L618.54,71.80L614.40,84.02L589.96,75.76L594.09,63.53L587.98,61.47L594.18,43.13L588.06,41.06L581.86,59.40L575.75,57.33L571.62,69.56L547.17,61.29L551.30,49.07L545.19,47.00L551.39,28.66L545.28,26.60L553.54,2.15L547.43,0.08L553.63,-18.25ZM656.23,98.16L687.23,6.48L705.56,12.68L701.43,24.90L707.54,26.97L709.61,20.86L715.72,22.93L717.79,16.81L736.12,23.01L734.06,29.12L746.28,33.26L744.22,39.37L750.33,41.44L746.20,53.66L752.31,55.73L729.58,122.96L711.24,116.76L733.97,49.53L727.86,47.46L729.93,41.35L711.59,35.15L709.52,41.26L703.41,39.20L701.34,45.31L695.23,43.24L674.57,104.36Z" fill="#ffffff" stroke="#000000"/>
    <path d="M-707.34,-397.96L-660.87,-516.85L-595.48,-491.29L-597.81,-485.35L-591.86,-483.02L-594.19,-477.08L-588.24,-474.75L-590.57,-468.81L-584.62,-466.49L-596.24,-436.76L-602.18,-439.09L-604.51,-433.14L-610.45,-435.47L-612.77,-429.52L-618.72,-431.84L-621.04,-425.90L-668.60,-444.49L-689.51,-390.99ZM-661.63,-462.32L-620.02,-446.06L-617.69,-452.00L-611.75,-449.68L-604.78,-467.51L-610.72,-469.84L-608.40,-475.78L-650.01,-492.04ZM-603.31,-357.30L-568.46,-446.47L-550.63,-439.50L-555.27,-427.61L-549.33,-425.28L-547.01,-431.23L-541.06,-428.90L-538.74,-434.85L-514.96,-425.55L-517.28,-419.61L-511.34,-417.29L-513.66,-411.34L-507.72,-409.02L-512.36,-397.13L-518.31,-399.45L-520.63,-393.51L-526.58,-395.83L-524.25,-401.78L-530.20,-404.10L-527.87,-410.04L-545.71,-417.01L-548.03,-411.07L-553.98,-413.39L-556.30,-407.45L-562.24,-409.77L-585.48,-350.33ZM-515.44,-350.36L-499.17,-391.97L-493.23,-389.65L-488.58,-401.54L-482.64,-399.22L-480.32,-405.16L-468.43,-400.51L-466.10,-406.46L-442.32,-397.17L-444.65,-391.22L-432.76,-386.57L-435.08,-380.63L-429.14,-378.31L-433.78,-366.42L-427.84,-364.09L-444.10,-322.48L-450.05,-324.81L-454.70,-312.92L-460.64,-315.24L-462.96,-309.29L-474.85,-313.94L-477.18,-308.00L-500.95,-317.29L-498.63,-323.24L-510.52,-327.88L-508.20,-333.83L-514.14,-336.15L-509.49,-348.04ZM-497.60,-343.39L-491.66,-341.07L-493.98,-335.12L-470.21,-325.83L-467.88,-331.78L-461.94,-329.45L-445.67,-371.06L-451.62,-373.39L-449.29,-379.33L-473.07,-388.63L-475.40,-382.68L-481.34,-385.00ZM-449.13,-255.92L-400.34,-380.76L-382.51,-373.79L-431.30,-248.95ZM-395.69,-392.65L-388.72,-410.48L-370.89,-403.51L-377.86,-385.68ZM-389.30,-301.06L-373.04,-342.67L-367.09,-340.35L-362.45,-352.24L-356.50,-349.92L-354.18,-355.86L-342.29,-351.22L-339.97,-357.16L-316.19,-347.87L-318.51,-341.92L-306.62,-337.27L-308.95,-331.33L-303.00,-329.01L-307.65,-317.12L-301.70,-314.79L-311.00,-291.02L-364.50,-311.93L-371.47,-294.09L-365.52,-291.77L-367.85,-285.82L-344.07,-276.53L-341.75,-282.48L-335.80,-280.15L-333.48,-286.10L-315.64,-279.13L-320.29,-267.24L-326.23,-269.56L-328.56,-263.62L-334.50,-265.94L-336.83,-260.00L-348.72,-264.64L-351.04,-258.70L-374.82,-267.99L-372.49,-273.94L-384.38,-278.58L-382.06,-284.53L-388.00,-286.85L-383.36,-298.74ZM-359.85,-323.82L-324.18,-309.88L-319.54,-321.76L-325.48,-324.09L-323.16,-330.03L-346.94,-339.33L-349.26,-333.38L-355.20,-335.70ZM-302.36,-267.08L-286.10,-308.70L-280.15,-306.37L-275.51,-318.26L-269.56,-315.94L-267.24,-321.88L-255.35,-317.24L-253.03,-323.18L-229.25,-313.89L-231.57,-307.94L-219.68,-303.29L-222.01,-297.35L-216.06,-295.03L-223.03,-277.19L-234.92,-281.84L-232.60,-287.78L-238.54,-290.11L-236.22,-296.05L-260.00,-305.35L-262.32,-299.40L-268.26,-301.73L-284.53,-260.11L-278.58,-257.79L-280.91,-251.84L-257.13,-242.55L-254.81,-248.50L-248.86,-246.17L-246.54,-252.12L-234.65,-247.47L-241.62,-229.64L-247.56,-231.96L-249.89,-226.02L-261.78,-230.66L-264.10,-224.72L-287.88,-234.01L-285.55,-239.96L-297.44,-244.60L-295.12,-250.55L-301.06,-252.87L-296.42,-264.76ZM-202.22,-282.77L-195.25,-300.60L-183.36,-295.95L-174.07,-319.73L-156.24,-312.76L-165.53,-288.98L-141.75,-279.69L-148.72,-261.86L-172.50,-271.15L-200.38,-199.81L-218.21,-206.78L-190.33,-278.12ZM-106.01,-162.93L-59.54,-281.82L-6.04,-260.91L-8.36,-254.97L9.47,-248.00L7.15,-242.05L13.09,-239.73L10.77,-233.78L16.71,-231.46L14.39,-225.52L20.33,-223.19L15.69,-211.30L21.63,-208.98L3.04,-161.42L-2.90,-163.75L-7.55,-151.86L-13.49,-154.18L-15.82,-148.24L-21.76,-150.56L-24.08,-144.61L-30.03,-146.94L-32.35,-140.99L-50.19,-147.96L-52.51,-142.02ZM-81.21,-173.79L-51.48,-162.18L-49.16,-168.12L-37.27,-163.47L-34.95,-169.42L-29.00,-167.10L-26.68,-173.04L-20.74,-170.72L-16.09,-182.61L-10.14,-180.28L-0.85,-204.06L-6.79,-206.38L-2.15,-218.27L-8.09,-220.60L-5.77,-226.54L-11.71,-228.86L-9.39,-234.81L-21.28,-239.46L-18.96,-245.40L-48.68,-257.02ZM7.49,-118.57L42.34,-207.74L60.18,-200.77L55.53,-188.88L61.48,-186.55L63.80,-192.50L69.74,-190.17L72.07,-196.12L95.85,-186.83L93.52,-180.88L99.47,-178.56L97.14,-172.61L103.09,-170.29L98.44,-158.40L92.50,-160.72L90.17,-154.78L84.23,-157.10L86.55,-163.05L80.61,-165.37L82.93,-171.31L65.10,-178.29L62.77,-172.34L56.83,-174.66L54.51,-168.72L48.56,-171.04L25.33,-111.60ZM95.37,-111.63L111.63,-153.25L117.58,-150.92L122.22,-162.81L128.17,-160.49L130.49,-166.43L142.38,-161.79L144.70,-167.73L168.48,-158.44L166.16,-152.49L172.10,-150.17L169.78,-144.22L175.72,-141.90L180.37,-153.79L198.20,-146.82L163.35,-57.65L145.52,-64.62L150.17,-76.51L144.22,-78.83L141.90,-72.89L135.95,-75.21L133.63,-69.27L109.85,-78.56L112.18,-84.51L100.29,-89.15L102.61,-95.10L96.67,-97.42L101.31,-109.31ZM113.20,-104.66L119.15,-102.34L116.82,-96.39L140.60,-87.10L142.92,-93.05L148.87,-90.72L151.19,-96.67L157.14,-94.34L168.75,-124.07L162.81,-126.39L165.13,-132.33L159.19,-134.66L161.51,-140.60L137.73,-149.90L135.41,-143.95L129.47,-146.27ZM207.77,-122.52L214.74,-140.36L232.57,-133.39L225.60,-115.55L231.55,-113.23L224.58,-95.40L230.52,-93.07L223.55,-75.24L229.49,-72.92L222.52,-55.08L228.47,-52.76L235.44,-70.59L241.38,-68.27L248.35,-86.10L254.30,-83.78L258.95,-95.67L264.89,-93.34L260.24,-81.46L266.19,-79.13L259.22,-61.30L265.16,-58.98L258.19,-41.14L264.14,-38.82L271.11,-56.65L277.05,-54.33L284.02,-72.16L289.97,-69.84L296.94,-87.67L302.88,-85.35L309.85,-103.18L327.69,-96.21L320.71,-78.38L314.77,-80.70L307.80,-62.87L301.86,-65.19L292.56,-41.41L286.62,-43.74L279.65,-25.90L273.70,-28.23L269.06,-16.34L245.28,-25.63L249.92,-37.52L243.98,-39.84L250.95,-57.68L245.01,-60.00L238.04,-42.17L232.09,-44.49L227.44,-32.60L203.67,-41.89L208.31,-53.78L202.37,-56.11L209.34,-73.94L203.39,-76.26L212.69,-100.04L206.74,-102.37L213.71,-120.20ZM310.48,-0.15L356.95,-119.04L410.45,-98.13L408.13,-92.18L425.96,-85.21L423.64,-79.27L429.58,-76.94L427.26,-71.00L433.20,-68.68L430.88,-62.73L436.83,-60.41L432.18,-48.52L438.12,-46.20L419.54,1.36L413.59,-0.96L408.94,10.93L403.00,8.60L400.68,14.55L394.73,12.22L392.41,18.17L386.46,15.85L384.14,21.79L366.31,14.82L363.98,20.76ZM335.29,-11.01L365.01,0.61L367.33,-5.34L379.22,-0.69L381.54,-6.64L387.49,-4.31L389.81,-10.26L395.76,-7.93L400.40,-19.82L406.35,-17.50L415.64,-41.28L409.70,-43.60L414.34,-55.49L408.40,-57.81L410.72,-63.76L404.78,-66.08L407.10,-72.03L395.21,-76.67L397.54,-82.62L367.81,-94.23ZM431.24,19.64L447.50,-21.97L453.45,-19.65L458.09,-31.54L464.04,-29.22L466.36,-35.16L478.25,-30.51L480.57,-36.46L504.35,-27.16L502.03,-21.22L513.92,-16.57L511.59,-10.63L517.54,-8.30L512.89,3.58L518.84,5.91L502.57,47.52L496.63,45.20L491.98,57.09L486.04,54.76L483.71,60.71L471.82,56.06L469.50,62.00L445.72,52.71L448.04,46.77L436.16,42.12L438.48,36.18L432.53,33.85L437.18,21.96ZM449.07,26.61L455.02,28.93L452.69,34.88L476.47,44.17L478.79,38.23L484.74,40.55L501.00,-1.06L495.06,-3.39L497.38,-9.33L473.60,-18.62L471.28,-12.68L465.33,-15.00ZM535.83,5.70L542.80,-12.13L560.64,-5.16L553.67,12.67L559.61,14.99L552.64,32.83L558.59,35.15L551.62,52.98L557.56,55.31L550.59,73.14L556.54,75.46L563.51,57.63L569.45,59.95L576.42,42.12L582.37,44.44L587.01,32.55L592.96,34.88L588.31,46.77L594.25,49.09L587.28,66.92L593.23,69.25L586.26,87.08L592.20,89.40L599.17,71.57L605.12,73.89L612.09,56.06L618.03,58.38L625.00,40.55L630.95,42.87L637.92,25.04L655.75,32.01L648.78,49.84L642.84,47.52L635.87,65.35L629.92,63.03L620.63,86.81L614.68,84.49L607.71,102.32L601.77,100.00L597.12,111.89L573.34,102.59L577.99,90.70L572.05,88.38L579.02,70.55L573.07,68.22L566.10,86.06L560.16,83.73L555.51,95.62L531.73,86.33L536.38,74.44L530.43,72.12L537.40,54.28L531.46,51.96L540.75,28.18L534.81,25.86L541.78,8.02ZM637.81,127.79L672.66,38.62L690.49,45.59L685.84,57.48L691.79,59.80L694.11,53.86L700.06,56.18L702.38,50.23L720.21,57.20L717.89,63.15L729.78,67.80L727.46,73.74L733.40,76.06L728.75,87.95L734.70,90.28L709.14,155.67L691.31,148.70L716.86,83.31L710.92,80.98L713.24,75.04L695.41,68.07L693.09,74.01L687.14,71.69L684.82,77.63L678.87,75.31L655.64,134.76Z" fill="#ffffff" stroke="#000000"/>
    <path d="M-686.67,-425.51L-635.28,-540.84L-571.85,-512.57L-574.42,-506.81L-568.65,-504.24L-571.22,-498.47L-565.45,-495.90L-568.02,-490.14L-562.26,-487.57L-575.10,-458.73L-580.87,-461.30L-583.44,-455.54L-589.20,-458.11L-591.77,-452.34L-597.54,-454.91L-600.11,-449.14L-646.24,-469.70L-669.37,-417.80ZM-638.53,-487.00L-598.17,-469.01L-595.60,-474.78L-589.83,-472.21L-582.12,-489.51L-587.89,-492.08L-585.32,-497.84L-625.69,-515.83ZM-585.75,-380.54L-547.21,-467.04L-529.91,-459.33L-535.05,-447.80L-529.28,-445.23L-526.71,-451.00L-520.95,-448.43L-518.38,-454.19L-495.31,-443.92L-497.88,-438.15L-492.11,-435.58L-494.68,-429.81L-488.92,-427.24L-494.06,-415.71L-499.82,-418.28L-502.39,-412.51L-508.16,-415.08L-505.59,-420.85L-511.36,-423.42L-508.79,-429.19L-526.09,-436.89L-528.66,-431.13L-534.42,-433.70L-536.99,-427.93L-542.76,-430.50L-568.45,-372.83ZM-499.25,-369.64L-481.26,-410.01L-475.49,-407.44L-470.36,-418.97L-464.59,-416.40L-462.02,-422.17L-450.49,-417.03L-447.92,-422.80L-424.85,-412.52L-427.42,-406.75L-415.89,-401.62L-418.46,-395.85L-412.69,-393.28L-417.83,-381.75L-412.06,-379.18L-430.05,-338.81L-435.81,-341.38L-440.95,-329.85L-446.72,-332.42L-449.29,-326.65L-460.82,-331.79L-463.39,-326.02L-486.46,-336.30L-483.89,-342.07L-495.42,-347.20L-492.85,-352.97L-498.62,-355.54L-493.48,-367.07ZM-481.95,-361.94L-476.18,-359.37L-478.75,-353.60L-455.68,-343.32L-453.11,-349.09L-447.35,-346.52L-429.36,-386.88L-435.13,-389.45L-432.56,-395.22L-455.63,-405.50L-458.20,-399.73L-463.96,-402.30ZM-438.08,-273.28L-384.12,-394.37L-366.82,-386.67L-420.78,-265.57ZM-378.99,-405.91L-371.28,-423.21L-353.98,-415.50L-361.69,-398.20ZM-376.89,-315.12L-358.90,-355.49L-353.13,-352.92L-348.00,-364.45L-342.23,-361.88L-339.66,-367.65L-328.13,-362.51L-325.56,-368.28L-302.49,-358.00L-305.06,-352.23L-293.53,-347.10L-296.10,-341.33L-290.33,-338.76L-295.47,-327.23L-289.70,-324.66L-299.98,-301.59L-351.88,-324.72L-359.59,-307.42L-353.82,-304.85L-356.39,-299.08L-333.32,-288.80L-330.75,-294.57L-324.99,-292.00L-322.42,-297.77L-305.12,-290.06L-310.26,-278.52L-316.02,-281.09L-318.59,-275.33L-324.36,-277.90L-326.93,-272.13L-338.46,-277.27L-341.03,-271.50L-364.10,-281.78L-361.53,-287.55L-373.06,-292.69L-370.49,-298.45L-376.26,-301.02L-371.12,-312.55ZM-346.74,-336.25L-312.14,-320.83L-307.00,-332.37L-312.77,-334.93L-310.20,-340.70L-333.27,-350.98L-335.83,-345.21L-341.60,-347.78ZM-292.55,-277.55L-274.56,-317.91L-268.80,-315.34L-263.66,-326.88L-257.89,-324.31L-255.32,-330.07L-243.79,-324.93L-241.22,-330.70L-218.15,-320.42L-220.72,-314.66L-209.19,-309.52L-211.76,-303.75L-205.99,-301.18L-213.70,-283.88L-225.23,-289.02L-222.67,-294.79L-228.43,-297.36L-225.86,-303.12L-248.93,-313.40L-251.50,-307.63L-257.27,-310.20L-275.25,-269.84L-269.48,-267.27L-272.05,-261.50L-248.99,-251.22L-246.42,-256.99L-240.65,-254.42L-238.08,-260.19L-226.55,-255.05L-234.26,-237.75L-240.02,-240.32L-242.59,-234.55L-254.13,-239.69L-256.70,-233.92L-279.76,-244.20L-277.19,-249.97L-288.73,-255.11L-286.16,-260.87L-291.92,-263.44L-286.78,-274.98ZM-192.88,-288.43L-185.18,-305.73L-173.64,-300.59L-163.37,-323.66L-146.07,-315.95L-156.34,-292.88L-133.28,-282.60L-140.99,-265.31L-164.05,-275.58L-194.88,-206.38L-212.18,-214.09L-181.35,-283.29ZM-103.34,-165.59L-51.95,-280.93L-0.05,-257.80L-2.62,-252.03L14.68,-244.33L12.11,-238.56L17.88,-235.99L15.31,-230.22L21.07,-227.65L18.50,-221.89L24.27,-219.32L19.13,-207.79L24.90,-205.22L4.34,-159.08L-1.42,-161.65L-6.56,-150.12L-12.33,-152.69L-14.90,-146.92L-20.67,-149.49L-23.24,-143.73L-29.00,-146.29L-31.57,-140.53L-48.87,-148.24L-51.44,-142.47ZM-78.33,-175.19L-49.50,-162.34L-46.93,-168.11L-35.40,-162.97L-32.83,-168.73L-27.06,-166.16L-24.49,-171.93L-18.72,-169.36L-13.59,-180.89L-7.82,-178.32L2.46,-201.39L-3.31,-203.96L1.83,-215.49L-3.94,-218.06L-1.37,-223.83L-7.13,-226.40L-4.56,-232.17L-16.10,-237.30L-13.53,-243.07L-42.36,-255.92ZM6.77,-116.53L45.31,-203.03L62.61,-195.33L57.47,-183.79L63.23,-181.22L65.80,-186.99L71.57,-184.42L74.14,-190.19L97.21,-179.91L94.64,-174.14L100.40,-171.57L97.83,-165.81L103.60,-163.24L98.46,-151.70L92.70,-154.27L90.13,-148.51L84.36,-151.08L86.93,-156.84L81.16,-159.41L83.73,-165.18L66.43,-172.89L63.86,-167.12L58.10,-169.69L55.53,-163.92L49.76,-166.49L24.07,-108.83ZM93.27,-105.64L111.26,-146.00L117.02,-143.43L122.16,-154.97L127.93,-152.40L130.50,-158.16L142.03,-153.02L144.60,-158.79L167.67,-148.51L165.10,-142.75L170.86,-140.18L168.30,-134.41L174.06,-131.84L179.20,-143.38L196.50,-135.67L157.96,-49.17L140.66,-56.88L145.80,-68.41L140.03,-70.98L137.46,-65.21L131.70,-67.78L129.13,-62.01L106.06,-72.29L108.63,-78.06L97.10,-83.20L99.67,-88.96L93.90,-91.53L99.04,-103.07ZM110.57,-97.93L116.34,-95.36L113.77,-89.59L136.83,-79.31L139.40,-85.08L145.17,-82.51L147.74,-88.28L153.51,-85.71L166.35,-114.54L160.59,-117.11L163.16,-122.88L157.39,-125.45L159.96,-131.21L136.89,-141.49L134.32,-135.73L128.56,-138.29ZM204.83,-111.22L212.54,-128.52L229.84,-120.81L222.13,-103.51L227.90,-100.94L220.19,-83.64L225.96,-81.07L218.25,-63.77L224.01,-61.20L216.31,-43.91L222.07,-41.34L229.78,-58.64L235.55,-56.07L243.26,-73.37L249.02,-70.80L254.16,-82.33L259.93,-79.76L254.79,-68.23L260.55,-65.66L252.85,-48.36L258.61,-45.79L250.90,-28.49L256.67,-25.92L264.38,-43.22L270.15,-40.65L277.85,-57.95L283.62,-55.38L291.33,-72.68L297.10,-70.11L304.80,-87.41L322.10,-79.70L314.40,-62.40L308.63,-64.97L300.92,-47.67L295.15,-50.24L284.88,-27.17L279.11,-29.74L271.40,-12.44L265.64,-15.01L260.50,-3.48L237.43,-13.76L242.57,-25.29L236.80,-27.86L244.51,-45.16L238.74,-47.73L231.04,-30.43L225.27,-33.00L220.13,-21.47L197.06,-31.74L202.20,-43.28L196.44,-45.85L204.14,-63.15L198.38,-65.72L208.66,-88.78L202.89,-91.35L210.60,-108.65ZM300.68,14.42L352.07,-100.91L403.97,-77.78L401.40,-72.02L418.70,-64.31L416.13,-58.54L421.90,-55.97L419.33,-50.20L425.09,-47.64L422.53,-41.87L428.29,-39.30L423.15,-27.77L428.92,-25.20L408.36,20.94L402.60,18.37L397.46,29.90L391.69,27.33L389.12,33.10L383.36,30.53L380.79,36.29L375.02,33.72L372.45,39.49L355.15,31.78L352.58,37.55ZM325.69,4.83L354.52,17.68L357.09,11.91L368.63,17.05L371.20,11.29L376.96,13.86L379.53,8.09L385.30,10.66L390.44,-0.87L396.20,1.69L406.48,-21.37L400.71,-23.94L405.85,-35.47L400.09,-38.04L402.66,-43.81L396.89,-46.38L399.46,-52.15L387.93,-57.29L390.50,-63.05L361.66,-75.90ZM419.08,39.53L437.07,-0.83L442.84,1.74L447.98,-9.80L453.74,-7.23L456.31,-12.99L467.84,-7.85L470.41,-13.62L493.48,-3.34L490.91,2.42L502.44,7.56L499.87,13.33L505.64,15.90L500.50,27.43L506.27,30.00L488.28,70.37L482.52,67.80L477.38,79.33L471.61,76.76L469.04,82.53L457.51,77.39L454.94,83.16L431.87,72.88L434.44,67.11L422.91,61.97L425.48,56.21L419.71,53.64L424.85,42.10ZM436.38,47.24L442.15,49.81L439.58,55.58L462.65,65.86L465.22,60.09L470.98,62.66L488.97,22.29L483.20,19.72L485.77,13.96L462.71,3.68L460.14,9.45L454.37,6.88ZM523.07,30.58L530.78,13.28L548.08,20.99L540.37,38.29L546.14,40.86L538.43,58.16L544.20,60.73L536.49,78.02L542.26,80.59L534.55,97.89L540.32,100.46L548.02,83.16L553.79,85.73L561.50,68.43L567.27,71.00L572.40,59.47L578.17,62.04L573.03,73.57L578.80,76.14L571.09,93.44L576.86,96.01L569.15,113.31L574.92,115.88L582.62,98.58L588.39,101.15L596.10,83.85L601.87,86.42L609.57,69.12L615.34,71.69L623.05,54.39L640.35,62.10L632.64,79.40L626.87,76.83L619.17,94.13L613.40,91.56L603.12,114.62L597.35,112.05L589.65,129.35L583.88,126.79L578.74,138.32L555.67,128.04L560.81,116.51L555.05,113.94L562.75,96.64L556.99,94.07L549.28,111.37L543.51,108.80L538.37,120.33L515.31,110.06L520.45,98.52L514.68,95.95L522.39,78.65L516.62,76.08L526.90,53.02L521.13,50.45L528.84,33.15ZM618.21,155.90L656.75,69.40L674.05,77.11L668.91,88.65L674.67,91.21L677.24,85.45L683.01,88.02L685.58,82.25L702.88,89.96L700.31,95.73L711.84,100.86L709.27,106.63L715.04,109.20L709.90,120.73L715.67,123.30L687.41,186.74L670.11,179.03L698.37,115.60L692.60,113.03L695.17,107.26L677.87,99.55L675.30,105.32L669.54,102.75L666.97,108.51L661.20,105.95L635.51,163.61Z" fill="#ffffff" stroke="#000000"/>
    <path d="M-664.83,-452.00L-608.75,-563.58L-547.39,-532.74L-550.19,-527.16L-544.61,-524.35L-547.41,-518.77L-541.84,-515.97L-544.64,-510.39L-539.06,-507.59L-553.08,-479.69L-558.66,-482.50L-561.46,-476.92L-567.04,-479.72L-569.85,-474.14L-575.42,-476.95L-578.23,-471.37L-622.86,-493.80L-648.09,-443.59ZM-614.45,-510.54L-575.40,-490.91L-572.59,-496.49L-567.01,-493.68L-558.60,-510.42L-564.18,-513.22L-561.38,-518.80L-600.43,-538.43ZM-567.20,-402.93L-525.14,-486.62L-508.41,-478.20L-514.02,-467.05L-508.44,-464.24L-505.63,-469.82L-500.05,-467.02L-497.25,-472.60L-474.93,-461.38L-477.74,-455.80L-472.16,-453.00L-474.96,-447.42L-469.39,-444.62L-474.99,-433.46L-480.57,-436.26L-483.38,-430.68L-488.95,-433.49L-486.15,-439.07L-491.73,-441.87L-488.93,-447.45L-505.66,-455.86L-508.47,-450.28L-514.04,-453.09L-516.85,-447.51L-522.43,-450.31L-550.47,-394.52ZM-482.24,-388.19L-462.62,-427.24L-457.04,-424.43L-451.43,-435.59L-445.85,-432.79L-443.05,-438.36L-431.89,-432.76L-429.08,-438.34L-406.77,-427.12L-409.57,-421.54L-398.42,-415.93L-401.22,-410.35L-395.64,-407.55L-401.25,-396.39L-395.67,-393.59L-415.30,-354.54L-420.88,-357.34L-426.48,-346.18L-432.06,-348.99L-434.87,-343.41L-446.02,-349.02L-448.83,-343.44L-471.14,-354.65L-468.34,-360.23L-479.50,-365.84L-476.69,-371.42L-482.27,-374.22L-476.66,-385.38ZM-465.51,-379.77L-459.93,-376.97L-462.73,-371.39L-440.42,-360.18L-437.61,-365.75L-432.03,-362.95L-412.41,-402.00L-417.99,-404.80L-415.18,-410.38L-437.50,-421.60L-440.30,-416.02L-445.88,-418.82ZM-426.25,-290.16L-367.37,-407.32L-350.63,-398.91L-409.52,-281.75ZM-361.76,-418.47L-353.35,-435.21L-336.61,-426.80L-345.03,-410.06ZM-363.87,-328.69L-344.24,-367.74L-338.66,-364.94L-333.05,-376.09L-327.48,-373.29L-324.67,-378.87L-313.51,-373.26L-310.71,-378.84L-288.40,-367.62L-291.20,-362.05L-280.04,-356.44L-282.85,-350.86L-277.27,-348.05L-282.88,-336.90L-277.30,-334.09L-288.51,-311.78L-338.72,-337.01L-347.13,-320.28L-341.55,-317.47L-344.36,-311.89L-322.04,-300.68L-319.24,-306.26L-313.66,-303.45L-310.86,-309.03L-294.12,-300.62L-299.73,-289.46L-305.31,-292.27L-308.11,-286.69L-313.69,-289.49L-316.49,-283.91L-327.65,-289.52L-330.45,-283.94L-352.77,-295.16L-349.97,-300.74L-361.12,-306.35L-358.32,-311.92L-363.90,-314.73L-358.29,-325.89ZM-333.11,-348.17L-299.64,-331.35L-294.03,-342.50L-299.61,-345.31L-296.81,-350.89L-319.12,-362.10L-321.93,-356.52L-327.51,-359.33ZM-282.28,-287.68L-262.65,-326.73L-257.07,-323.93L-251.47,-335.09L-245.89,-332.28L-243.08,-337.86L-231.93,-332.25L-229.12,-337.83L-206.81,-326.62L-209.61,-321.04L-198.45,-315.43L-201.26,-309.85L-195.68,-307.05L-204.09,-290.31L-215.25,-295.92L-212.44,-301.50L-218.02,-304.30L-215.22,-309.88L-237.53,-321.10L-240.34,-315.52L-245.92,-318.32L-265.54,-279.27L-259.96,-276.47L-262.77,-270.89L-240.45,-259.67L-237.65,-265.25L-232.07,-262.45L-229.27,-268.02L-218.11,-262.42L-226.52,-245.68L-232.10,-248.48L-234.90,-242.91L-246.06,-248.51L-248.87,-242.94L-271.18,-254.15L-268.38,-259.73L-279.53,-265.34L-276.73,-270.92L-282.31,-273.72L-276.70,-284.88ZM-183.31,-293.84L-174.90,-310.58L-163.75,-304.97L-152.53,-327.29L-135.79,-318.88L-147.01,-296.56L-124.69,-285.35L-133.11,-268.61L-155.42,-279.83L-189.07,-212.88L-205.80,-221.29L-172.16,-288.24ZM-100.51,-168.37L-44.43,-279.94L5.78,-254.71L2.98,-249.13L19.71,-240.72L16.91,-235.14L22.49,-232.33L19.68,-226.76L25.26,-223.95L22.46,-218.37L28.04,-215.57L22.43,-204.41L28.01,-201.61L5.58,-156.98L-0.00,-159.78L-5.61,-148.62L-11.19,-151.43L-13.99,-145.85L-19.57,-148.65L-22.37,-143.07L-27.95,-145.88L-30.76,-140.30L-47.49,-148.71L-50.30,-143.13ZM-75.36,-176.69L-47.46,-162.67L-44.66,-168.25L-33.50,-162.64L-30.70,-168.22L-25.12,-165.42L-22.32,-171.00L-16.74,-168.19L-11.13,-179.35L-5.55,-176.55L5.66,-198.86L0.09,-201.67L5.69,-212.82L0.12,-215.63L2.92,-221.21L-2.66,-224.01L0.14,-229.59L-11.01,-235.20L-8.21,-240.77L-36.10,-254.79ZM6.01,-114.83L48.07,-198.51L64.81,-190.10L59.20,-178.94L64.78,-176.14L67.58,-181.72L73.16,-178.91L75.97,-184.49L98.28,-173.28L95.48,-167.70L101.06,-164.89L98.25,-159.31L103.83,-156.51L98.22,-145.35L92.64,-148.16L89.84,-142.58L84.26,-145.38L87.06,-150.96L81.49,-153.76L84.29,-159.34L67.55,-167.76L64.75,-162.18L59.17,-164.98L56.37,-159.40L50.79,-162.21L22.75,-106.42ZM90.97,-100.08L110.60,-139.13L116.18,-136.33L121.79,-147.49L127.37,-144.68L130.17,-150.26L141.33,-144.65L144.13,-150.23L166.45,-139.02L163.64,-133.44L169.22,-130.63L166.42,-125.05L172.00,-122.25L177.60,-133.41L194.34,-125.00L152.28,-41.31L135.54,-49.73L141.15,-60.88L135.57,-63.69L132.77,-58.11L127.19,-60.91L124.39,-55.33L102.07,-66.55L104.88,-72.13L93.72,-77.74L96.52,-83.32L90.94,-86.12L96.55,-97.28ZM107.71,-91.67L113.29,-88.86L110.48,-83.29L132.80,-72.07L135.60,-77.65L141.18,-74.84L143.99,-80.42L149.56,-77.62L163.58,-105.51L158.00,-108.32L160.81,-113.90L155.23,-116.70L158.03,-122.28L135.72,-133.49L132.92,-127.92L127.34,-130.72ZM201.44,-100.46L209.86,-117.20L226.59,-108.79L218.18,-92.05L223.76,-89.24L215.35,-72.51L220.93,-69.70L212.51,-52.97L218.09,-50.16L209.68,-33.43L215.26,-30.62L223.67,-47.36L229.25,-44.56L237.66,-61.29L243.24,-58.49L248.85,-69.65L254.43,-66.84L248.82,-55.69L254.40,-52.88L245.99,-36.14L251.56,-33.34L243.15,-16.60L248.73,-13.80L257.14,-30.54L262.72,-27.73L271.13,-44.47L276.71,-41.67L285.12,-58.40L290.70,-55.60L299.12,-72.33L315.85,-63.92L307.44,-47.19L301.86,-49.99L293.45,-33.25L287.87,-36.06L276.65,-13.74L271.08,-16.55L262.66,0.19L257.09,-2.61L251.48,8.54L229.16,-2.67L234.77,-13.83L229.19,-16.63L237.60,-33.37L232.02,-36.17L223.61,-19.44L218.03,-22.24L212.43,-11.08L190.11,-22.30L195.72,-33.46L190.14,-36.26L198.55,-53.00L192.97,-55.80L204.19,-78.12L198.61,-80.92L207.02,-97.66ZM290.35,28.08L346.43,-83.49L396.64,-58.26L393.84,-52.68L410.57,-44.27L407.77,-38.69L413.35,-35.88L410.54,-30.30L416.12,-27.50L413.32,-21.92L418.90,-19.12L413.29,-7.96L418.87,-5.16L396.44,39.47L390.86,36.67L385.25,47.83L379.67,45.02L376.87,50.60L371.29,47.80L368.49,53.38L362.91,50.57L360.10,56.15L343.37,47.74L340.56,53.32ZM315.50,19.76L343.40,33.78L346.20,28.20L357.36,33.81L360.16,28.23L365.74,31.03L368.54,25.45L374.12,28.26L379.73,17.10L385.31,19.90L396.53,-2.41L390.95,-5.21L396.55,-16.37L390.98,-19.18L393.78,-24.75L388.20,-27.56L391.00,-33.14L379.85,-38.74L382.65,-44.32L354.76,-58.34ZM406.17,58.34L425.80,19.29L431.38,22.10L436.99,10.94L442.56,13.74L445.37,8.16L456.53,13.77L459.33,8.19L481.64,19.41L478.84,24.99L490.00,30.59L487.19,36.17L492.77,38.98L487.17,50.13L492.74,52.94L473.12,91.99L467.54,89.19L461.93,100.34L456.35,97.54L453.55,103.12L442.39,97.51L439.59,103.09L417.27,91.87L420.07,86.29L408.92,80.69L411.72,75.11L406.14,72.30L411.75,61.15ZM422.91,66.75L428.49,69.56L425.68,75.14L448.00,86.35L450.80,80.77L456.38,83.58L476.01,44.53L470.43,41.72L473.23,36.14L450.92,24.93L448.11,30.51L442.54,27.70ZM509.32,54.28L517.73,37.55L534.47,45.96L526.06,62.69L531.64,65.50L523.22,82.23L528.80,85.04L520.39,101.77L525.97,104.58L517.56,121.31L523.14,124.12L531.55,107.38L537.13,110.19L545.54,93.45L551.12,96.25L556.73,85.10L562.30,87.90L556.70,99.06L562.27,101.86L553.86,118.60L559.44,121.40L551.03,138.14L556.61,140.94L565.02,124.21L570.60,127.01L579.01,110.27L584.59,113.08L593.00,96.34L598.58,99.14L606.99,82.41L623.73,90.82L615.32,107.56L609.74,104.75L601.33,121.49L595.75,118.69L584.53,141.00L578.95,138.20L570.54,154.93L564.96,152.13L559.35,163.29L537.04,152.07L542.65,140.91L537.07,138.11L545.48,121.37L539.90,118.57L531.49,135.30L525.91,132.50L520.30,143.66L497.99,132.44L503.60,121.28L498.02,118.48L506.43,101.74L500.85,98.94L512.07,76.63L506.49,73.82L514.90,57.09ZM597.53,182.48L639.59,98.79L656.33,107.21L650.72,118.36L656.30,121.17L659.10,115.59L664.68,118.39L667.49,112.81L684.22,121.23L681.42,126.80L692.58,132.41L689.77,137.99L695.35,140.80L689.74,151.95L695.32,154.76L664.48,216.12L647.74,207.71L678.59,146.34L673.01,143.54L675.81,137.96L659.07,129.55L656.27,135.13L650.69,132.32L647.89,137.90L642.31,135.10L614.27,190.89Z" fill="#ffffff" stroke="#000000"/>
    <path d="M-913,471.81L-913,468.25L-892.81,468.25L-892.81,471.81L-901.13,471.81L-901.13,492L-904.69,492L-904.69,471.81ZM-891.03,487.25L-891.03,478.94L-889.84,478.94L-889.84,476.56L-888.66,476.56L-888.66,475.38L-886.28,475.38L-886.28,474.19L-881.53,474.19L-881.53,475.38L-879.16,475.38L-879.16,476.56L-877.97,476.56L-877.97,478.94L-876.78,478.94L-876.78,483.69L-887.47,483.69L-887.47,487.25L-886.28,487.25L-886.28,488.44L-881.53,488.44L-881.53,487.25L-880.34,487.25L-880.34,486.06L-876.78,486.06L-876.78,488.44L-877.97,488.44L-877.97,489.63L-879.16,489.63L-879.16,490.81L-881.53,490.81L-881.53,492L-886.28,492L-886.28,490.81L-888.66,490.81L-888.66,489.63L-889.84,489.63L-889.84,487.25ZM-887.47,481.31L-880.34,481.31L-880.34,478.94L-881.53,478.94L-881.53,477.75L-886.28,477.75L-886.28,478.94L-887.47,478.94ZM-873.26,492L-873.26,474.19L-869.69,474.19L-869.69,476.56L-868.51,476.56L-868.51,475.38L-867.32,475.38L-867.32,474.19L-862.57,474.19L-862.57,475.38L-861.38,475.38L-861.38,476.56L-860.19,476.56L-860.19,478.94L-861.38,478.94L-861.38,480.13L-862.57,480.13L-862.57,478.94L-863.76,478.94L-863.76,477.75L-867.32,477.75L-867.32,478.94L-868.51,478.94L-868.51,480.13L-869.69,480.13L-869.69,492ZM-857.15,492L-857.15,474.19L-853.59,474.19L-853.59,476.56L-852.40,476.56L-852.40,475.38L-851.21,475.38L-851.21,474.19L-847.65,474.19L-847.65,475.38L-846.46,475.38L-846.46,476.56L-844.09,476.56L-844.09,475.38L-842.90,475.38L-842.90,474.19L-838.15,474.19L-838.15,475.38L-836.96,475.38L-836.96,476.56L-835.78,476.56L-835.78,478.94L-834.59,478.94L-834.59,492L-838.15,492L-838.15,478.94L-839.34,478.94L-839.34,477.75L-842.90,477.75L-842.90,478.94L-844.09,478.94L-844.09,492L-847.65,492L-847.65,478.94L-848.84,478.94L-848.84,477.75L-851.21,477.75L-851.21,478.94L-852.40,478.94L-852.40,480.13L-853.59,480.13L-853.59,492ZM-830.69,492L-830.69,474.19L-827.13,474.19L-827.13,492ZM-830.69,471.81L-830.69,468.25L-827.13,468.25L-827.13,471.81ZM-822.97,492L-822.97,474.19L-819.41,474.19L-819.41,476.56L-818.22,476.56L-818.22,475.38L-817.04,475.38L-817.04,474.19L-813.47,474.19L-813.47,475.38L-811.10,475.38L-811.10,476.56L-809.91,476.56L-809.91,478.94L-808.72,478.94L-808.72,492L-812.29,492L-812.29,478.94L-813.47,478.94L-813.47,477.75L-817.04,477.75L-817.04,478.94L-818.22,478.94L-818.22,480.13L-819.41,480.13L-819.41,492ZM-805.38,487.25L-805.38,478.94L-804.20,478.94L-804.20,476.56L-803.01,476.56L-803.01,475.38L-800.63,475.38L-800.63,474.19L-795.88,474.19L-795.88,475.38L-794.70,475.38L-794.70,476.56L-793.51,476.56L-793.51,474.19L-789.95,474.19L-789.95,492L-793.51,492L-793.51,489.63L-794.70,489.63L-794.70,490.81L-795.88,490.81L-795.88,492L-800.63,492L-800.63,490.81L-803.01,490.81L-803.01,489.63L-804.20,489.63L-804.20,487.25ZM-801.82,487.25L-800.63,487.25L-800.63,488.44L-795.88,488.44L-795.88,487.25L-794.70,487.25L-794.70,486.06L-793.51,486.06L-793.51,480.13L-794.70,480.13L-794.70,478.94L-795.88,478.94L-795.88,477.75L-800.63,477.75L-800.63,478.94L-801.82,478.94ZM-785.94,492L-785.94,468.25L-782.38,468.25L-782.38,492ZM-778.89,483.69L-778.89,480.13L-765.82,480.13L-765.82,483.69ZM-762.89,484.88L-762.89,475.38L-761.71,475.38L-761.71,473L-760.52,473L-760.52,471.81L-759.33,471.81L-759.33,470.63L-758.14,470.63L-758.14,469.44L-754.58,469.44L-754.58,468.25L-748.64,468.25L-748.64,469.44L-745.08,469.44L-745.08,470.63L-743.89,470.63L-743.89,473L-742.71,473L-742.71,474.19L-741.52,474.19L-741.52,475.38L-746.27,475.38L-746.27,474.19L-747.46,474.19L-747.46,473L-749.83,473L-749.83,471.81L-753.39,471.81L-753.39,473L-755.77,473L-755.77,474.19L-756.96,474.19L-756.96,475.38L-758.14,475.38L-758.14,477.75L-759.33,477.75L-759.33,482.50L-758.14,482.50L-758.14,484.88L-756.96,484.88L-756.96,486.06L-755.77,486.06L-755.77,487.25L-753.39,487.25L-753.39,488.44L-749.83,488.44L-749.83,487.25L-747.46,487.25L-747.46,486.06L-746.27,486.06L-746.27,484.88L-745.08,484.88L-745.08,482.50L-752.21,482.50L-752.21,478.94L-741.52,478.94L-741.52,486.06L-742.71,486.06L-742.71,487.25L-743.89,487.25L-743.89,489.63L-745.08,489.63L-745.08,490.81L-748.64,490.81L-748.64,492L-754.58,492L-754.58,490.81L-758.14,490.81L-758.14,489.63L-759.33,489.63L-759.33,488.44L-760.52,488.44L-760.52,487.25L-761.71,487.25L-761.71,484.88ZM-737.81,492L-737.81,474.19L-734.24,474.19L-734.24,476.56L-733.06,476.56L-733.06,475.38L-731.87,475.38L-731.87,474.19L-727.12,474.19L-727.12,475.38L-725.93,475.38L-725.93,476.56L-724.74,476.56L-724.74,478.94L-725.93,478.94L-725.93,480.13L-727.12,480.13L-727.12,478.94L-728.31,478.94L-728.31,477.75L-731.87,477.75L-731.87,478.94L-733.06,478.94L-733.06,480.13L-734.24,480.13L-734.24,492ZM-722.11,487.25L-722.11,478.94L-720.92,478.94L-720.92,476.56L-719.73,476.56L-719.73,475.38L-717.36,475.38L-717.36,474.19L-712.61,474.19L-712.61,475.38L-710.23,475.38L-710.23,476.56L-709.05,476.56L-709.05,478.94L-707.86,478.94L-707.86,487.25L-709.05,487.25L-709.05,489.63L-710.23,489.63L-710.23,490.81L-712.61,490.81L-712.61,492L-717.36,492L-717.36,490.81L-719.73,490.81L-719.73,489.63L-720.92,489.63L-720.92,487.25ZM-718.55,487.25L-717.36,487.25L-717.36,488.44L-712.61,488.44L-712.61,487.25L-711.42,487.25L-711.42,478.94L-712.61,478.94L-712.61,477.75L-717.36,477.75L-717.36,478.94L-718.55,478.94ZM-704.85,477.75L-704.85,474.19L-702.48,474.19L-702.48,469.44L-698.92,469.44L-698.92,474.19L-694.17,474.19L-694.17,477.75L-698.92,477.75L-698.92,492L-702.48,492L-702.48,477.75ZM-691.38,487.25L-691.38,478.94L-690.20,478.94L-690.20,476.56L-689.01,476.56L-689.01,475.38L-686.63,475.38L-686.63,474.19L-681.88,474.19L-681.88,475.38L-679.51,475.38L-679.51,476.56L-678.32,476.56L-678.32,478.94L-677.13,478.94L-677.13,483.69L-687.82,483.69L-687.82,487.25L-686.63,487.25L-686.63,488.44L-681.88,488.44L-681.88,487.25L-680.70,487.25L-680.70,486.06L-677.13,486.06L-677.13,488.44L-678.32,488.44L-678.32,489.63L-679.51,489.63L-679.51,490.81L-681.88,490.81L-681.88,492L-686.63,492L-686.63,490.81L-689.01,490.81L-689.01,489.63L-690.20,489.63L-690.20,487.25ZM-687.82,481.31L-680.70,481.31L-680.70,478.94L-681.88,478.94L-681.88,477.75L-686.63,477.75L-686.63,478.94L-687.82,478.94ZM-673.79,489.63L-673.79,487.25L-672.61,487.25L-672.61,486.06L-671.42,486.06L-671.42,487.25L-670.23,487.25L-670.23,488.44L-669.04,488.44L-669.04,489.63L-666.67,489.63L-666.67,488.44L-665.48,488.44L-665.48,486.06L-666.67,486.06L-666.67,484.88L-667.86,484.88L-667.86,483.69L-670.23,483.69L-670.23,482.50L-671.42,482.50L-671.42,481.31L-672.61,481.31L-672.61,480.13L-673.79,480.13L-673.79,476.56L-672.61,476.56L-672.61,475.38L-671.42,475.38L-671.42,474.19L-664.29,474.19L-664.29,475.38L-663.11,475.38L-663.11,478.94L-665.48,478.94L-665.48,477.75L-666.67,477.75L-666.67,476.56L-669.04,476.56L-669.04,477.75L-670.23,477.75L-670.23,478.94L-669.04,478.94L-669.04,480.13L-667.86,480.13L-667.86,481.31L-665.48,481.31L-665.48,482.50L-664.29,482.50L-664.29,483.69L-663.11,483.69L-663.11,484.88L-661.92,484.88L-661.92,489.63L-663.11,489.63L-663.11,490.81L-664.29,490.81L-664.29,492L-671.42,492L-671.42,490.81L-672.61,490.81L-672.61,489.63ZM-658.76,487.25L-658.76,478.94L-657.58,478.94L-657.58,476.56L-656.39,476.56L-656.39,475.38L-654.01,475.38L-654.01,474.19L-649.26,474.19L-649.26,475.38L-648.08,475.38L-648.08,476.56L-646.89,476.56L-646.89,474.19L-643.33,474.19L-643.33,499.13L-646.89,499.13L-646.89,489.63L-648.08,489.63L-648.08,490.81L-649.26,490.81L-649.26,492L-654.01,492L-654.01,490.81L-656.39,490.81L-656.39,489.63L-657.58,489.63L-657.58,487.25ZM-655.20,487.25L-654.01,487.25L-654.01,488.44L-649.26,488.44L-649.26,487.25L-648.08,487.25L-648.08,486.06L-646.89,486.06L-646.89,480.13L-648.08,480.13L-648.08,478.94L-649.26,478.94L-649.26,477.75L-654.01,477.75L-654.01,478.94L-655.20,478.94ZM-639.28,489.63L-639.28,474.19L-635.72,474.19L-635.72,487.25L-634.53,487.25L-634.53,488.44L-630.97,488.44L-630.97,487.25L-629.78,487.25L-629.78,486.06L-628.59,486.06L-628.59,474.19L-625.03,474.19L-625.03,492L-628.59,492L-628.59,489.63L-629.78,489.63L-629.78,490.81L-630.97,490.81L-630.97,492L-636.91,492L-636.91,490.81L-638.09,490.81L-638.09,489.63ZM-621.58,487.25L-621.58,478.94L-620.39,478.94L-620.39,476.56L-619.21,476.56L-619.21,475.38L-616.83,475.38L-616.83,474.19L-612.08,474.19L-612.08,475.38L-609.71,475.38L-609.71,476.56L-608.52,476.56L-608.52,478.94L-607.33,478.94L-607.33,483.69L-618.02,483.69L-618.02,487.25L-616.83,487.25L-616.83,488.44L-612.08,488.44L-612.08,487.25L-610.89,487.25L-610.89,486.06L-607.33,486.06L-607.33,488.44L-608.52,488.44L-608.52,489.63L-609.71,489.63L-609.71,490.81L-612.08,490.81L-612.08,492L-616.83,492L-616.83,490.81L-619.21,490.81L-619.21,489.63L-620.39,489.63L-620.39,487.25ZM-618.02,481.31L-610.89,481.31L-610.89,478.94L-612.08,478.94L-612.08,477.75L-616.83,477.75L-616.83,478.94L-618.02,478.94Z"/>
</svg>