<?xml version="1.0"?>
<svg xmlns="http://www.w3.org/2000/svg" width="1920" height="1080" viewBox="-960 -540 1920 1080">
    <path d="M-903.13,476.64C-901.88,476.45 -900.83,476.28 -899.99,476.13C-899.15,475.97 -898.08,475.76 -896.78,475.49C-896.71,475.47 -896.29,475.39 -895.52,475.23C-895.26,475.61 -895.07,476.06 -894.95,476.58C-894.82,477.10 -894.76,477.63 -894.76,478.16C-894.76,478.91 -894.86,479.64 -895.06,480.34C-895.26,481.04 -895.47,481.51 -895.71,481.76C-896.08,481.82 -896.54,481.85 -897.08,481.85C-898.04,481.85 -899.02,481.71 -899.99,481.44C-900.97,481.17 -901.90,480.78 -902.79,480.27L-902.89,480.37C-902.39,481.74 -902.02,482.96 -901.76,484.04C-901.50,485.12 -901.37,486.20 -901.37,487.31C-901.37,487.66 -901.38,488.03 -901.42,488.40C-901.48,489.15 -901.84,489.84 -902.49,490.44C-903.14,491.05 -903.91,491.52 -904.82,491.86C-905.72,492.20 -906.56,492.37 -907.34,492.37C-908.06,492.37 -908.76,492.18 -909.44,491.80C-910.12,491.41 -910.71,490.94 -911.23,490.39C-911.74,489.83 -912.13,489.29 -912.41,488.77L-911.20,486.23L-906.88,486.23L-912.59,468.75C-912.60,468.66 -912.61,468.53 -912.61,468.34C-912.61,467.55 -912.42,466.68 -912.05,465.72C-911.68,464.76 -911.21,463.99 -910.64,463.41L-902.31,465.15L-895.74,463.26C-895.18,463.56 -894.74,464.08 -894.45,464.82C-894.15,465.56 -894,466.39 -894,467.32C-894,468.31 -894.17,469.25 -894.50,470.12C-894.83,471.00 -895.31,471.65 -895.91,472.05C-898.35,471.71 -901.24,471.05 -904.59,470.09ZM-885.41,481.89C-885.35,481.59 -885.26,481.14 -885.16,480.54C-885.05,479.94 -884.97,479.46 -884.91,479.10C-884.57,477.04 -884.26,475.29 -883.95,473.84C-883.65,472.40 -883.30,471.24 -882.90,470.37C-882.13,470.19 -881.33,470.11 -880.53,470.11C-879.40,470.11 -878.36,470.26 -877.40,470.57C-876.44,470.88 -875.66,471.24 -875.06,471.66C-874.94,472.44 -874.89,473.26 -874.89,474.11C-874.89,475.51 -875.00,476.94 -875.23,478.41C-875.46,479.87 -875.72,481.21 -876.02,482.41C-876.95,482.93 -877.93,483.19 -878.95,483.19C-879.57,483.19 -880.26,483.09 -881.03,482.91C-881.02,482.48 -881.01,481.45 -881.01,479.83C-881.01,478.64 -881.02,477.82 -881.03,477.38L-881.94,477.23C-882.40,478.58 -883.08,481.00 -883.98,484.49L-884.63,486.92L-881.23,486.47L-880.18,488.96C-880.91,490.11 -881.79,490.96 -882.83,491.53C-883.87,492.09 -884.99,492.37 -886.21,492.37C-886.90,492.37 -887.51,492.31 -888.04,492.19C-888.58,492.06 -889.03,491.83 -889.40,491.48C-889.61,491.29 -889.85,491.01 -890.13,490.63C-890.41,490.24 -890.66,489.81 -890.87,489.34C-891.09,488.86 -891.20,488.41 -891.20,487.97C-891.20,487.70 -891.15,487.45 -891.07,487.23L-889.58,483.56L-892.91,472.28C-892.42,471.58 -891.75,471.05 -890.90,470.67C-890.05,470.29 -889.14,470.11 -888.17,470.11C-887.16,470.11 -886.26,470.30 -885.48,470.68L-885.61,481.85ZM-865.28,474.73C-865.28,476.67 -865.35,478.47 -865.49,480.13C-865.63,481.80 -865.88,483.43 -866.22,485.04L-865.67,485.30C-865.23,484.88 -864.74,484.18 -864.17,483.19C-863.61,482.20 -863.09,481.18 -862.62,480.13C-862.15,479.09 -861.85,478.32 -861.71,477.82C-862.07,473.54 -862.25,471.13 -862.25,470.59C-862.04,470.45 -861.64,470.33 -861.05,470.23C-860.45,470.12 -859.82,470.07 -859.14,470.07C-858.01,470.07 -857.04,470.25 -856.21,470.61C-855.39,470.97 -854.65,471.53 -854.00,472.31L-854.00,472.52C-854.00,473.14 -854.15,474.31 -854.45,476.04C-854.75,477.77 -855.15,479.60 -855.65,481.51C-856.14,483.42 -856.66,485.01 -857.19,486.29L-853.98,484.58L-852.40,486.82C-853.11,488.46 -853.91,489.79 -854.82,490.82C-855.73,491.85 -856.69,492.37 -857.69,492.37C-858.27,492.37 -858.89,492.20 -859.55,491.86C-860.22,491.52 -860.80,491.07 -861.31,490.52C-861.36,490.47 -861.48,490.34 -861.67,490.14C-861.86,489.95 -862.01,489.71 -862.11,489.42C-862.22,489.14 -862.27,488.80 -862.27,488.42C-862.27,488.32 -862.26,488.15 -862.23,487.90C-862.06,486.18 -861.85,484.52 -861.60,482.91L-861.88,482.78C-862.82,485.17 -863.85,487.36 -864.95,489.37C-866.06,491.37 -867.05,492.37 -867.93,492.37C-868.24,492.37 -868.55,492.29 -868.85,492.14C-869.15,491.98 -869.53,491.75 -869.97,491.42L-870.62,491.00C-871.25,490.59 -871.73,490.24 -872.06,489.95C-872.39,489.66 -872.55,489.34 -872.55,488.99L-870.99,481.37L-873.87,473.37C-873.55,472.58 -873.03,471.92 -872.31,471.40C-871.59,470.88 -870.80,470.50 -869.93,470.26C-869.07,470.02 -868.22,469.90 -867.39,469.90C-866.55,469.90 -865.91,470.01 -865.46,470.22C-865.34,471.53 -865.28,473.03 -865.28,474.73ZM-844.94,487.18C-843.44,484.68 -841.93,481.58 -840.40,477.90C-841.61,476.91 -842.54,475.64 -843.20,474.09C-842.83,473.32 -842.26,472.59 -841.49,471.92C-840.72,471.26 -839.89,470.72 -838.98,470.31C-838.07,469.90 -837.22,469.68 -836.42,469.66C-835.87,470.19 -835.35,470.88 -834.86,471.72C-834.37,472.56 -833.98,473.45 -833.70,474.39C-833.41,475.33 -833.27,476.21 -833.27,477.03C-833.72,477.79 -834.36,478.77 -835.20,479.96C-836.04,481.15 -836.96,482.31 -837.96,483.46C-837.79,483.71 -837.52,484.05 -837.14,484.48C-836.76,484.90 -836.41,485.28 -836.09,485.60C-835.36,485.23 -834.63,484.65 -833.90,483.87L-831.71,485.56C-831.71,486.56 -831.76,487.36 -831.87,487.96C-831.97,488.56 -832.18,489.19 -832.47,489.83C-832.86,490.68 -833.38,491.32 -834.03,491.74C-834.69,492.16 -835.43,492.37 -836.26,492.37C-836.85,492.37 -837.49,492.27 -838.19,492.06C-838.99,491.81 -839.67,491.26 -840.22,490.41C-840.77,489.57 -841.21,488.55 -841.55,487.36L-841.92,487.77C-843.03,488.96 -843.94,489.89 -844.64,490.56C-845.33,491.24 -846.08,491.84 -846.87,492.37C-847.16,492.33 -847.56,492.20 -848.08,491.96C-848.60,491.73 -849.11,491.44 -849.62,491.09C-850.12,490.74 -850.51,490.40 -850.77,490.05C-850.72,488.28 -850.55,486.48 -850.26,484.65C-849.97,482.82 -849.60,481.18 -849.17,479.72C-849.93,477.28 -850.53,474.99 -850.98,472.86C-851.43,470.73 -851.92,468.04 -852.44,464.80C-851.82,464.03 -850.93,463.39 -849.77,462.86C-848.60,462.33 -847.45,462.07 -846.31,462.07C-845.15,462.07 -844.21,462.36 -843.49,462.94C-843.47,463.43 -843.46,464.21 -843.46,465.28C-843.46,468.37 -843.63,472.00 -843.98,476.16C-844.32,480.33 -844.71,483.97 -845.15,487.08ZM-816.42,485.52C-816.68,486.19 -817.22,487.08 -818.03,488.20C-818.84,489.31 -819.72,490.28 -820.68,491.12C-821.64,491.95 -822.49,492.37 -823.23,492.37C-823.99,492.37 -824.85,492.12 -825.82,491.63C-826.79,491.13 -827.63,490.51 -828.33,489.75C-829.02,489.00 -829.39,488.26 -829.41,487.55C-829.41,487.27 -829.33,486.80 -829.17,486.13C-829.01,485.45 -828.69,484.34 -828.21,482.80L-829.13,476.15L-830.91,476.04C-831.05,475.67 -831.15,475.24 -831.21,474.74C-831.27,474.25 -831.30,473.77 -831.30,473.30C-831.30,473.04 -831.30,472.86 -831.29,472.76L-829.21,472.04L-828.08,465.30C-827.88,465.20 -827.58,465.12 -827.19,465.05C-826.80,464.98 -826.38,464.95 -825.92,464.95C-825.29,464.95 -824.67,465.01 -824.05,465.13C-823.43,465.26 -822.89,465.44 -822.43,465.69L-822.64,470.90L-818.52,470.07C-818.01,470.93 -817.76,471.87 -817.76,472.89C-817.76,473.49 -817.82,474.03 -817.95,474.49C-818.08,474.96 -818.27,475.50 -818.50,476.14C-819.91,476.25 -821.35,476.33 -822.82,476.40L-822.79,486.21L-818.78,482.91ZM-807.70,474.73C-807.70,476.67 -807.77,478.47 -807.92,480.13C-808.06,481.80 -808.30,483.43 -808.65,485.04L-808.09,485.30C-807.66,484.88 -807.16,484.18 -806.60,483.19C-806.04,482.20 -805.52,481.18 -805.05,480.13C-804.58,479.09 -804.28,478.32 -804.14,477.82C-804.50,473.54 -804.68,471.13 -804.68,470.59C-804.47,470.45 -804.07,470.33 -803.47,470.23C-802.88,470.12 -802.24,470.07 -801.56,470.07C-800.43,470.07 -799.46,470.25 -798.64,470.61C-797.82,470.97 -797.08,471.53 -796.42,472.31L-796.42,472.52C-796.42,473.14 -796.57,474.31 -796.88,476.04C-797.18,477.77 -797.58,479.60 -798.07,481.51C-798.57,483.42 -799.08,485.01 -799.61,486.29L-796.40,484.58L-794.83,486.82C-795.53,488.46 -796.34,489.79 -797.25,490.82C-798.16,491.85 -799.11,492.37 -800.11,492.37C-800.69,492.37 -801.32,492.20 -801.98,491.86C-802.64,491.52 -803.22,491.07 -803.73,490.52C-803.78,490.47 -803.90,490.34 -804.09,490.14C-804.28,489.95 -804.43,489.71 -804.54,489.42C-804.64,489.14 -804.70,488.80 -804.70,488.42C-804.70,488.32 -804.68,488.15 -804.66,487.90C-804.49,486.18 -804.28,484.52 -804.03,482.91L-804.31,482.78C-805.25,485.17 -806.27,487.36 -807.38,489.37C-808.48,491.37 -809.48,492.37 -810.36,492.37C-810.66,492.37 -810.97,492.29 -811.27,492.14C-811.58,491.98 -811.95,491.75 -812.40,491.42L-813.05,491.00C-813.68,490.59 -814.16,490.24 -814.48,489.95C-814.81,489.66 -814.98,489.34 -814.98,488.99L-813.42,481.37L-816.29,473.37C-815.97,472.58 -815.45,471.92 -814.73,471.40C-814.02,470.88 -813.23,470.50 -812.36,470.26C-811.49,470.02 -810.65,469.90 -809.82,469.90C-808.98,469.90 -808.33,470.01 -807.89,470.22C-807.76,471.53 -807.70,473.03 -807.70,474.73ZM-787.18,481.89C-787.12,481.59 -787.04,481.14 -786.93,480.54C-786.83,479.94 -786.74,479.46 -786.68,479.10C-786.35,477.04 -786.03,475.29 -785.72,473.84C-785.42,472.40 -785.07,471.24 -784.68,470.37C-783.90,470.19 -783.10,470.11 -782.30,470.11C-781.18,470.11 -780.13,470.26 -779.17,470.57C-778.22,470.88 -777.43,471.24 -776.83,471.66C-776.72,472.44 -776.66,473.26 -776.66,474.11C-776.66,475.51 -776.77,476.94 -777.00,478.41C-777.23,479.87 -777.50,481.21 -777.79,482.41C-778.72,482.93 -779.70,483.19 -780.72,483.19C-781.34,483.19 -782.03,483.09 -782.80,482.91C-782.79,482.48 -782.78,481.45 -782.78,479.83C-782.78,478.64 -782.79,477.82 -782.80,477.38L-783.71,477.23C-784.17,478.58 -784.85,481.00 -785.75,484.49L-786.40,486.92L-783.01,486.47L-781.95,488.96C-782.68,490.11 -783.56,490.96 -784.60,491.53C-785.64,492.09 -786.77,492.37 -787.98,492.37C-788.67,492.37 -789.28,492.31 -789.82,492.19C-790.35,492.06 -790.80,491.83 -791.17,491.48C-791.38,491.29 -791.62,491.01 -791.90,490.63C-792.18,490.24 -792.43,489.81 -792.65,489.34C-792.86,488.86 -792.97,488.41 -792.97,487.97C-792.97,487.70 -792.93,487.45 -792.84,487.23L-791.36,483.56L-794.68,472.28C-794.19,471.58 -793.53,471.05 -792.67,470.67C-791.82,470.29 -790.91,470.11 -789.95,470.11C-788.93,470.11 -788.03,470.30 -787.25,470.68L-787.38,481.85ZM-759.79,478.31C-759.71,478.65 -759.66,479.04 -759.66,479.46C-759.66,480.77 -760.13,482.33 -761.06,484.15C-761.48,484.19 -762.08,484.21 -762.86,484.21C-763.83,484.21 -765.30,484.18 -767.24,484.11C-769.19,484.05 -771.35,483.98 -773.71,483.89C-773.75,483.52 -773.77,483.17 -773.77,482.83C-773.77,482.14 -773.68,481.53 -773.51,480.99C-773.33,480.45 -773.05,479.86 -772.67,479.22ZM-732.69,485.51C-732.72,486.41 -732.93,487.33 -733.31,488.28C-733.68,489.23 -734.12,490.04 -734.62,490.72C-735.01,491.26 -735.49,491.68 -736.06,491.95C-736.63,492.23 -737.27,492.37 -737.97,492.37C-738.64,492.37 -739.40,492.24 -740.24,491.96C-742.29,491.31 -743.57,488.44 -744.08,483.37L-749.05,482.70C-748.70,483.52 -748.37,484.84 -748.04,486.67C-747.71,488.51 -747.49,490.11 -747.38,491.50C-747.80,491.78 -748.30,492 -748.87,492.15C-749.43,492.30 -750.03,492.37 -750.65,492.37C-751.59,492.37 -752.48,492.22 -753.34,491.93C-754.19,491.63 -754.84,491.23 -755.29,490.72C-755.00,489.33 -754.75,488.26 -754.54,487.51C-754.33,486.76 -754.07,485.96 -753.76,485.13C-754.06,484.53 -754.40,482.90 -754.77,480.25C-755.15,477.59 -755.49,474.81 -755.78,471.90C-756.07,468.98 -756.21,467.14 -756.21,466.38L-756.19,466.15C-755.64,465.40 -754.89,464.79 -753.95,464.33C-753.01,463.86 -752.04,463.63 -751.04,463.63C-749.90,463.63 -748.88,463.93 -747.99,464.54L-749.76,473.76L-749.22,474.02L-744.26,463.59C-744.00,463.52 -743.65,463.45 -743.20,463.38C-742.75,463.31 -742.28,463.28 -741.80,463.28C-741.28,463.28 -740.64,463.38 -739.88,463.57C-739.11,463.77 -738.32,464.07 -737.49,464.47C-736.66,464.88 -735.90,465.37 -735.21,465.95C-735.18,467.80 -735.32,469.87 -735.63,472.16C-735.93,474.44 -736.38,476.58 -736.99,478.58C-737.71,479.65 -738.65,480.67 -739.81,481.65C-739.43,482.36 -739.04,483.02 -738.65,483.60C-738.26,484.19 -737.83,484.73 -737.34,485.21C-736.67,484.97 -735.83,484.44 -734.80,483.61ZM-743.35,470.64C-744.20,471.93 -745.20,473.52 -746.36,475.41C-747.52,477.30 -748.31,478.68 -748.74,479.53L-742.87,479.12C-742.55,477.03 -742.39,474.94 -742.39,472.83C-742.39,472.05 -742.42,471.37 -742.48,470.79ZM-723.76,486.73C-723.39,486.66 -722.93,486.49 -722.38,486.23C-721.83,485.97 -721.06,485.59 -720.07,485.08C-719.30,484.67 -718.52,484.27 -717.71,483.87L-716.13,486.45C-716.68,487.18 -717.50,488.01 -718.61,488.95C-719.72,489.88 -720.91,490.69 -722.17,491.36C-723.44,492.03 -724.59,492.37 -725.62,492.37C-725.94,492.37 -726.25,492.29 -726.56,492.12C-726.87,491.95 -727.21,491.68 -727.58,491.29C-727.90,490.97 -728.15,490.74 -728.31,490.61C-728.57,490.37 -728.81,490.17 -729.04,489.99C-729.27,489.81 -729.41,489.69 -729.48,489.64C-729.86,489.30 -730.12,488.98 -730.26,488.69C-730.41,488.40 -730.48,488.08 -730.48,487.75C-730.48,487.53 -730.46,487.28 -730.42,487.01C-730.37,486.54 -730.35,486.11 -730.35,485.73C-730.35,484.00 -730.47,482.14 -730.71,480.16C-730.95,478.18 -731.20,476.76 -731.46,475.89C-731.61,475.39 -731.68,475.05 -731.68,474.89C-731.68,474.40 -731.32,473.80 -730.58,473.11C-729.84,472.42 -729.13,471.86 -728.44,471.42C-727.76,471.00 -726.95,470.60 -726.01,470.23C-725.07,469.85 -724.29,469.66 -723.67,469.66C-723.24,469.68 -722.75,469.87 -722.22,470.22C-721.03,471.02 -720.10,471.59 -719.43,471.91C-718.75,472.24 -717.93,472.58 -716.95,472.93L-716.43,473.11C-716.28,473.17 -716.18,473.24 -716.12,473.30C-716.05,473.36 -716.00,473.47 -715.94,473.64C-715.88,473.81 -715.83,474.08 -715.76,474.45C-715.69,474.89 -715.65,475.37 -715.65,475.88C-715.65,476.87 -715.78,477.60 -716.04,478.08C-716.15,478.28 -716.69,478.91 -717.64,479.97C-718.59,481.02 -719.68,482.19 -720.92,483.46C-722.16,484.72 -723.28,485.82 -724.30,486.73ZM-720.59,477.64C-721.26,477.49 -722.46,477.14 -724.19,476.58C-724.19,477.26 -724.23,478.49 -724.32,480.27C-724.40,482.05 -724.50,483.37 -724.61,484.21L-724.63,484.26L-724.11,483.52C-723.30,482.33 -722.60,481.28 -722.03,480.38C-721.45,479.47 -720.97,478.55 -720.59,477.64ZM-694.35,472.33L-694.43,472.70C-694.56,473.33 -694.70,473.90 -694.84,474.41C-694.99,474.92 -695.22,475.56 -695.56,476.34C-695.89,477.12 -696.36,478.03 -696.97,479.09L-694.52,493.15C-694.78,494.15 -695.25,495.11 -695.93,496.04C-696.61,496.96 -697.43,497.77 -698.40,498.47C-699.36,499.17 -700.39,499.70 -701.48,500.07C-701.74,500.11 -702.00,500.13 -702.27,500.13C-703.14,500.13 -704.06,499.96 -705.04,499.63C-706.02,499.29 -706.89,498.89 -707.66,498.42C-708.44,497.95 -708.97,497.53 -709.25,497.16C-709.26,497.00 -709.27,496.78 -709.27,496.51C-709.27,496.06 -709.24,495.68 -709.17,495.36C-709.10,495.04 -708.97,494.57 -708.79,493.97C-707.86,494.18 -706.61,494.38 -705.05,494.57C-703.48,494.76 -702.28,494.86 -701.44,494.86C-701.41,494.12 -701.40,493.52 -701.40,493.08C-701.40,491.91 -701.45,490.08 -701.55,487.58C-701.66,485.17 -701.71,483.38 -701.70,482.20L-701.94,482.04C-702.71,484.24 -703.57,486.25 -704.53,488.08C-705.49,489.90 -706.39,491.18 -707.25,491.91C-707.63,492.20 -708.00,492.35 -708.36,492.35C-708.66,492.35 -708.95,492.28 -709.25,492.12C-709.55,491.97 -709.91,491.73 -710.33,491.42C-710.54,491.28 -710.81,491.11 -711.14,490.92C-711.69,490.61 -712.09,490.34 -712.36,490.11C-712.62,489.87 -712.76,489.59 -712.76,489.27L-712.72,488.14C-712.67,487.23 -712.65,486.53 -712.65,486.06C-712.65,484.39 -712.75,482.53 -712.96,480.49C-713.17,478.44 -713.48,476.74 -713.87,475.39C-714.01,474.94 -714.08,474.60 -714.08,474.37C-714.08,474.22 -714.04,474.08 -713.96,473.93C-713.89,473.78 -713.77,473.59 -713.59,473.35C-712.90,472.47 -712.09,471.77 -711.17,471.23C-710.25,470.69 -709.41,470.31 -708.65,470.09C-707.89,469.86 -707.28,469.72 -706.82,469.66C-705.95,470.27 -705.21,471.00 -704.58,471.86C-703.94,472.72 -703.24,473.82 -702.46,475.15C-702.47,474.40 -702.51,473.29 -702.57,471.83L-702.61,470.59C-702.40,470.45 -702.00,470.33 -701.40,470.23C-700.81,470.12 -700.17,470.07 -699.49,470.07C-698.37,470.07 -697.39,470.25 -696.57,470.61C-695.75,470.97 -695.01,471.53 -694.35,472.31L-694.37,472.33ZM-706.56,485.71C-705.95,485.12 -705.24,484.11 -704.41,482.70C-703.58,481.29 -702.94,480.10 -702.48,479.12C-702.45,478.83 -702.44,478.66 -702.44,478.62L-702.44,477.64C-702.97,477.50 -703.76,477.33 -704.82,477.12L-706.34,476.79L-706.34,478.77C-706.34,480.81 -706.60,483.04 -707.12,485.45ZM-684.98,474.73C-684.98,476.67 -685.05,478.47 -685.19,480.13C-685.34,481.80 -685.58,483.43 -685.93,485.04L-685.37,485.30C-684.94,484.88 -684.44,484.18 -683.88,483.19C-683.31,482.20 -682.80,481.18 -682.33,480.13C-681.86,479.09 -681.56,478.32 -681.42,477.82C-681.78,473.54 -681.96,471.13 -681.96,470.59C-681.75,470.45 -681.34,470.33 -680.75,470.23C-680.16,470.12 -679.52,470.07 -678.84,470.07C-677.71,470.07 -676.74,470.25 -675.92,470.61C-675.09,470.97 -674.36,471.53 -673.70,472.31L-673.70,472.52C-673.70,473.14 -673.85,474.31 -674.15,476.04C-674.46,477.77 -674.86,479.60 -675.35,481.51C-675.85,483.42 -676.36,485.01 -676.89,486.29L-673.68,484.58L-672.10,486.82C-672.81,488.46 -673.62,489.79 -674.53,490.82C-675.44,491.85 -676.39,492.37 -677.39,492.37C-677.97,492.37 -678.60,492.20 -679.26,491.86C-679.92,491.52 -680.50,491.07 -681.01,490.52C-681.06,490.47 -681.18,490.34 -681.37,490.14C-681.56,489.95 -681.71,489.71 -681.82,489.42C-681.92,489.14 -681.98,488.80 -681.98,488.42C-681.98,488.32 -681.96,488.15 -681.94,487.90C-681.77,486.18 -681.56,484.52 -681.31,482.91L-681.59,482.78C-682.53,485.17 -683.55,487.36 -684.66,489.37C-685.76,491.37 -686.76,492.37 -687.63,492.37C-687.94,492.37 -688.25,492.29 -688.55,492.14C-688.86,491.98 -689.23,491.75 -689.68,491.42L-690.33,491.00C-690.96,490.59 -691.44,490.24 -691.76,489.95C-692.09,489.66 -692.25,489.34 -692.25,488.99L-690.70,481.37L-693.57,473.37C-693.25,472.58 -692.73,471.92 -692.01,471.40C-691.30,470.88 -690.50,470.50 -689.64,470.26C-688.77,470.02 -687.93,469.90 -687.10,469.90C-686.26,469.90 -685.61,470.01 -685.17,470.22C-685.04,471.53 -684.98,473.03 -684.98,474.73ZM-670.16,489.44C-670.33,489.24 -670.46,489.03 -670.56,488.82C-670.65,488.60 -670.69,488.34 -670.69,488.03C-670.69,487.92 -670.67,487.70 -670.62,487.38L-669.34,480.76C-669.69,478.96 -670.02,476.86 -670.35,474.46C-670.68,472.05 -670.95,469.89 -671.16,467.96C-671.37,466.04 -671.46,464.98 -671.42,464.80C-670.81,464.03 -669.95,463.39 -668.83,462.86C-667.71,462.33 -666.60,462.07 -665.50,462.07C-664.36,462.07 -663.44,462.36 -662.73,462.94C-662.83,465.84 -663.02,469.01 -663.28,472.46C-663.55,475.91 -663.96,480.48 -664.52,486.17L-661.86,484.93L-660.38,487.29C-660.63,488.05 -661.01,488.83 -661.55,489.62C-662.08,490.40 -662.70,491.06 -663.40,491.58C-664.11,492.11 -664.82,492.37 -665.55,492.37C-666.32,492.37 -667.11,492.08 -667.93,491.50C-668.75,490.92 -669.49,490.23 -670.16,489.44ZM-638.21,486.84C-638.92,488.49 -639.74,489.82 -640.65,490.85C-641.55,491.88 -642.52,492.39 -643.53,492.39C-644.10,492.39 -644.71,492.22 -645.37,491.87C-646.02,491.52 -646.60,491.08 -647.11,490.53C-647.16,490.48 -647.28,490.36 -647.46,490.16C-647.65,489.97 -647.79,489.72 -647.90,489.44C-648.01,489.15 -648.06,488.82 -648.06,488.44C-648.06,488.21 -648.05,488.04 -648.04,487.92C-647.87,486.20 -647.66,484.53 -647.41,482.93L-647.69,482.80C-649.63,487.77 -651.24,490.81 -652.51,491.93C-652.89,492.22 -653.27,492.37 -653.62,492.37C-653.92,492.37 -654.22,492.29 -654.51,492.14C-654.81,491.98 -655.18,491.75 -655.61,491.44C-655.77,491.33 -656.05,491.17 -656.44,490.94C-656.99,490.63 -657.39,490.36 -657.66,490.13C-657.93,489.89 -658.06,489.61 -658.08,489.29C-658.08,488.94 -658.07,488.64 -658.06,488.36C-658.03,487.57 -658.02,486.93 -658.02,486.43C-658.02,484.81 -658.15,482.92 -658.40,480.77C-658.66,478.61 -659.00,476.82 -659.43,475.41C-659.58,474.90 -659.65,474.56 -659.65,474.39C-659.65,474.24 -659.62,474.09 -659.55,473.95C-659.48,473.80 -659.36,473.61 -659.19,473.37C-658.51,472.49 -657.71,471.78 -656.80,471.25C-655.88,470.71 -655.05,470.33 -654.29,470.11C-653.54,469.88 -652.93,469.74 -652.47,469.68C-651.57,470.30 -650.75,471.07 -650.02,472.01C-649.29,472.94 -648.59,474.00 -647.91,475.17C-647.92,474.42 -647.96,473.31 -648.02,471.85L-648.06,470.61C-647.85,470.47 -647.45,470.35 -646.85,470.24C-646.26,470.14 -645.62,470.09 -644.94,470.09C-643.81,470.09 -642.84,470.27 -642.02,470.63C-641.20,470.98 -640.46,471.55 -639.80,472.33C-639.75,472.75 -639.88,473.84 -640.17,475.61C-640.47,477.37 -640.87,479.26 -641.38,481.28C-641.89,483.29 -642.42,484.97 -642.99,486.30L-639.78,484.60ZM-651.94,485.73C-651.34,485.13 -650.65,484.15 -649.85,482.76C-649.05,481.37 -648.41,480.17 -647.93,479.14C-647.90,478.84 -647.89,478.68 -647.89,478.64L-647.89,477.66C-648.58,477.50 -649.38,477.32 -650.28,477.14L-651.86,476.80L-651.84,478.79L-651.84,479.40C-651.84,481.28 -652.06,483.30 -652.49,485.47ZM-630.56,481.89C-630.50,481.59 -630.42,481.14 -630.31,480.54C-630.20,479.94 -630.12,479.46 -630.06,479.10C-629.73,477.04 -629.41,475.29 -629.10,473.84C-628.80,472.40 -628.45,471.24 -628.06,470.37C-627.28,470.19 -626.48,470.11 -625.68,470.11C-624.56,470.11 -623.51,470.26 -622.55,470.57C-621.60,470.88 -620.81,471.24 -620.21,471.66C-620.10,472.44 -620.04,473.26 -620.04,474.11C-620.04,475.51 -620.15,476.94 -620.38,478.41C-620.61,479.87 -620.88,481.21 -621.17,482.41C-622.10,482.93 -623.08,483.19 -624.10,483.19C-624.72,483.19 -625.41,483.09 -626.18,482.91C-626.17,482.48 -626.16,481.45 -626.16,479.83C-626.16,478.64 -626.17,477.82 -626.18,477.38L-627.09,477.23C-627.55,478.58 -628.23,481.00 -629.13,484.49L-629.78,486.92L-626.39,486.47L-625.33,488.96C-626.06,490.11 -626.94,490.96 -627.98,491.53C-629.02,492.09 -630.15,492.37 -631.36,492.37C-632.05,492.37 -632.66,492.31 -633.20,492.19C-633.73,492.06 -634.18,491.83 -634.55,491.48C-634.76,491.29 -635.00,491.01 -635.28,490.63C-635.56,490.24 -635.81,489.81 -636.02,489.34C-636.24,488.86 -636.35,488.41 -636.35,487.97C-636.35,487.70 -636.31,487.45 -636.22,487.23L-634.74,483.56L-638.06,472.28C-637.57,471.58 -636.91,471.05 -636.05,470.67C-635.20,470.29 -634.29,470.11 -633.33,470.11C-632.31,470.11 -631.41,470.30 -630.63,470.68L-630.76,481.85Z"/>
</svg>