<?xml version="1.0"?>
<svg xmlns="http://www.w3.org/2000/svg" width="1920" height="1080" viewBox="-960 -540 1920 1080">
    <path d="M-704.07,-147L-643.69,-301.29L-662.78,-308.64L-714.73,-171.20L-765.35,-308.64L-785.33,-301.29L-725.61,-147ZM-610.10,-281.74L-602.88,-289.64L-602.87,-300.93L-610.23,-309.02L-620.49,-309.02L-627.66,-300.95L-627.66,-289.68L-620.37,-281.74ZM-605.28,-147L-605.28,-262.44L-625.26,-262.44L-625.26,-147ZM-564.34,-182.76L-581.32,-174.83L-570.01,-152.18L-535.81,-142.42L-503.18,-150.54L-488.23,-178.19L-497.21,-201.88L-516.65,-211.87L-543.57,-219.15L-558.53,-225.14L-563.43,-234.37L-557.01,-245.75L-538.18,-249.93L-520.08,-245.00L-512.30,-230.31L-495.49,-238.23L-505.27,-257.57L-537.42,-266.99L-569.26,-258.82L-582.94,-232.12L-574.06,-210.92L-554.03,-201.37L-525.59,-193.84L-512.18,-187.11L-508.64,-176.42L-517.56,-163.01L-535.13,-159.45L-556.36,-166.43ZM-372.30,-262.44L-392.28,-262.44L-392.28,-199.86L-400.93,-169.94L-423.51,-159.69L-442.23,-168.35L-447.66,-191.99L-447.66,-262.44L-467.64,-262.44L-467.64,-191.84L-460.11,-156.41L-427.61,-142.49L-406.03,-147.83L-390.28,-163.65L-390.28,-147L-372.30,-147ZM-273.30,-224.42L-338.40,-204.45L-351.65,-176.85L-339.76,-150.64L-311.59,-142.43L-290.92,-146.45L-271.97,-160.35L-272.06,-147L-253.41,-147L-253.39,-221.47L-263.90,-255.36L-298.44,-266.99L-329.52,-259.40L-344.63,-236.87L-328.79,-227.13L-318.61,-244.68L-300.48,-250.68L-281.05,-244.99ZM-273.30,-206.76L-273.31,-177.53L-287.44,-165.16L-308.39,-158.73L-323.44,-162.63L-330.35,-177.74L-321.44,-193.43ZM-202.80,-147L-202.80,-306.84L-222.78,-306.84L-222.78,-147ZM-158.78,-281.74L-151.56,-289.64L-151.54,-300.93L-158.90,-309.02L-169.16,-309.02L-176.33,-300.95L-176.34,-289.68L-169.04,-281.74ZM-153.96,-147L-153.96,-262.44L-173.94,-262.44L-173.94,-147ZM-37.63,-147L-37.63,-163.65L-108.22,-163.65L-38.96,-245.79L-38.96,-262.44L-126.43,-262.44L-126.43,-245.79L-62.49,-245.79L-130.65,-163.65L-130.65,-147ZM0.84,-281.74L8.06,-289.64L8.08,-300.93L0.72,-309.02L-9.55,-309.02L-16.71,-300.95L-16.72,-289.68L-9.42,-281.74ZM5.66,-147L5.66,-262.44L-14.32,-262.44L-14.32,-147ZM33.97,-147L53.95,-147L53.95,-209.83L62.62,-239.49L85.20,-249.74L103.91,-241.08L109.34,-217.82L109.34,-147L129.32,-147L129.32,-217.82L121.75,-253.03L89.26,-266.96L67.69,-262.20L51.95,-245.79L51.95,-262.44L33.97,-262.44ZM201.22,-98.70L242.57,-116.06L252.53,-154.55L252.53,-262.44L234.77,-262.44L234.77,-246.90L221.69,-261.65L201.45,-267.42L163.97,-250.05L150.96,-205.16L163.97,-160.26L201.45,-142.89L219.32,-147.15L232.55,-159.21L232.49,-150.74L225.42,-124.90L201.69,-115.92L183.21,-121.13L175.94,-136.79L159.95,-129.46L170.02,-108.22ZM202.58,-250.43L224.64,-238.99L234.98,-205.14L225.49,-171.29L202.58,-159.86L180.27,-171.29L171.35,-205.14L180.27,-238.99ZM414.03,-160.11L374.05,-179.33L361.25,-226.93L374.90,-274.51L414.03,-293.73L445.35,-283.09L460.21,-255.46L479.01,-264.96L459.40,-297.60L414.03,-311.84L357.64,-286.95L338.62,-226.91L357.64,-166.88L414.03,-142.00L459.31,-156.46L478.56,-187.97L460.21,-198.15L443.84,-170.55ZM579.08,-311.84L521.57,-286.95L501.42,-226.91L521.56,-166.88L579.08,-142.00L636.40,-166.88L656.55,-226.91L636.40,-286.95ZM579.08,-160.13L537.97,-179.35L524.04,-226.93L538.81,-274.51L579.08,-293.73L619.12,-274.51L633.87,-226.93L619.12,-179.35ZM776.16,-146.92L776.16,-165.94L698.90,-165.94L711.45,-184.07L734.70,-202.13L764.03,-229.23L777.02,-263.11L763.55,-299.09L727.67,-311.80L691.18,-298.11L678.06,-266.06L696.64,-259.05L704.62,-283.85L727.21,-293.69L749.06,-285.09L756.65,-263.58L747.90,-241.04L725.97,-219.91L688.32,-188.45L675.43,-163.65L675.43,-147Z" fill="#ffffff" stroke="#000000"/>
    <path d="M-707.18,-119.93L-652.34,-274.52L-671.46,-281.18L-718.50,-143.54L-772.95,-277.92L-792.48,-270.02L-728.49,-119.25ZM-618.48,-256.24L-611.59,-264.29L-611.93,-275.46L-619.47,-283.23L-629.63,-282.91L-636.46,-274.70L-636.11,-263.54L-628.64,-255.92ZM-609.43,-123.07L-613.10,-237.30L-632.87,-236.66L-629.20,-122.44ZM-570.06,-159.76L-586.60,-151.37L-574.70,-129.31L-540.55,-120.74L-508.51,-129.82L-494.60,-157.65L-504.24,-180.81L-523.80,-190.08L-550.66,-196.42L-565.65,-201.88L-570.80,-210.85L-564.80,-222.32L-546.30,-227.05L-528.24,-222.74L-520.08,-208.45L-503.70,-216.83L-513.98,-235.65L-546.09,-243.96L-577.34,-234.85L-590.03,-208.00L-580.57,-187.31L-560.45,-178.49L-532.06,-171.95L-518.59,-165.71L-514.74,-155.25L-523.14,-141.70L-540.41,-137.61L-561.64,-143.85ZM-382.56,-244.70L-402.33,-244.06L-400.35,-182.14L-407.96,-152.26L-429.97,-141.40L-448.77,-149.38L-454.90,-172.60L-457.14,-242.30L-476.91,-241.67L-474.66,-171.81L-466.08,-136.99L-433.48,-124.25L-412.30,-130.22L-397.22,-146.37L-396.69,-129.90L-378.90,-130.47ZM-283.40,-210.22L-347.18,-188.39L-359.41,-160.67L-346.82,-135.10L-318.68,-127.88L-298.35,-132.51L-280.05,-146.87L-279.71,-133.65L-261.26,-134.25L-263.60,-207.93L-275.08,-241.14L-309.63,-251.55L-340.14,-243.05L-354.37,-220.28L-338.39,-211.14L-328.88,-228.83L-311.13,-235.34L-291.72,-230.33ZM-282.84,-192.75L-281.92,-163.83L-295.51,-151.13L-316.04,-144.11L-331.05,-147.49L-338.37,-162.22L-330.05,-178.03ZM-211.18,-135.85L-216.25,-294.01L-236.02,-293.38L-230.95,-135.22ZM-171.90,-270.58L-165.01,-278.63L-165.35,-289.80L-172.89,-297.57L-183.04,-297.24L-189.88,-289.03L-189.52,-277.87L-182.06,-270.25ZM-162.85,-137.41L-166.52,-251.63L-186.29,-251.00L-182.62,-136.77ZM-47.74,-141.10L-48.27,-157.58L-118.13,-155.33L-52.20,-238.81L-52.73,-255.29L-139.28,-252.51L-138.75,-236.03L-75.48,-238.06L-140.31,-154.62L-139.78,-138.15ZM-13.96,-275.65L-7.07,-283.70L-7.41,-294.87L-14.95,-302.64L-25.10,-302.31L-31.94,-294.10L-31.58,-282.94L-24.12,-275.32ZM-4.91,-142.48L-8.58,-256.70L-28.35,-256.07L-24.68,-141.84ZM23.10,-143.38L42.87,-144.01L40.88,-206.18L48.51,-235.80L70.53,-246.66L89.32,-238.69L95.43,-215.84L97.68,-145.77L117.45,-146.40L115.20,-216.48L106.59,-251.07L74.01,-263.83L52.80,-258.44L37.76,-241.70L37.23,-258.17L19.44,-257.60ZM190.13,-100.90L230.50,-119.38L239.12,-157.79L235.69,-264.54L218.12,-263.98L218.61,-248.60L205.20,-262.78L184.99,-267.85L148.46,-249.47L137.02,-204.63L151.31,-160.63L188.95,-144.62L206.50,-149.41L219.20,-161.76L219.41,-153.38L213.25,-127.59L190.05,-117.95L171.59,-122.52L163.90,-137.78L148.32,-130.02L158.96,-109.32ZM186.65,-251.08L208.85,-240.46L220.15,-207.29L211.83,-173.49L189.53,-161.46L167.09,-172.06L157.19,-205.26L164.94,-239.05ZM398.75,-168.42L358.58,-186.17L344.41,-232.86L356.40,-280.37L394.50,-300.63L425.84,-291.10L441.42,-264.23L459.72,-274.23L439.28,-305.91L393.93,-318.55L338.92,-292.14L322.01,-232.12L342.74,-173.33L399.32,-150.50L443.67,-166.25L461.71,-198.04L443.24,-207.53L427.91,-179.70ZM557.24,-323.79L501.13,-297.34L483.10,-237.29L504.94,-178.54L562.64,-155.74L618.57,-182.18L636.60,-242.22L614.76,-300.99ZM562.06,-173.68L520.78,-191.39L505.48,-238.03L518.59,-285.58L557.82,-305.88L598.05,-288.13L614.16,-241.52L601.07,-193.97ZM757.49,-166.87L756.89,-185.69L680.44,-183.24L692.28,-201.58L714.72,-220.19L742.88,-247.93L754.66,-281.86L740.19,-317.05L704.27,-328.48L668.60,-313.77L656.64,-281.64L675.25,-275.29L682.36,-300.09L704.40,-310.55L726.29,-302.72L734.48,-281.68L726.54,-259.11L705.52,-237.50L669.25,-205.18L657.30,-180.23L657.83,-163.75Z" fill="#ffffff" stroke="#000000"/>
    <path d="M-709.17,-92.89L-659.81,-247.58L-678.95,-253.56L-721.11,-115.88L-779.25,-247.11L-798.33,-238.67L-730.23,-91.53ZM-625.74,-230.57L-619.17,-238.75L-619.87,-249.79L-627.57,-257.24L-637.61,-256.60L-644.11,-248.26L-643.41,-237.23L-635.78,-229.92ZM-612.55,-99.10L-619.81,-212.00L-639.35,-210.74L-632.09,-97.84ZM-574.76,-136.65L-590.86,-127.82L-578.38,-106.38L-544.32,-98.98L-512.92,-108.98L-500.04,-136.96L-510.31,-159.56L-529.95,-168.11L-556.73,-173.54L-571.74,-178.46L-577.12,-187.17L-571.55,-198.71L-553.39,-203.98L-535.39,-200.29L-526.86,-186.41L-510.92,-195.22L-521.69,-213.52L-553.72,-220.71L-584.35,-210.72L-596.05,-183.75L-586.04,-163.58L-565.85,-155.49L-537.56,-149.92L-524.03,-144.17L-519.89,-133.94L-527.77,-120.27L-544.73,-115.68L-565.93,-121.18ZM-391.96,-226.64L-411.50,-225.38L-407.56,-164.18L-414.15,-134.38L-435.58,-122.93L-454.44,-130.23L-461.23,-153.01L-465.66,-221.90L-485.20,-220.65L-480.76,-151.61L-471.16,-117.43L-438.51,-105.85L-417.74,-112.43L-403.33,-128.89L-402.29,-112.61L-384.70,-113.74ZM-292.75,-195.68L-355.16,-172.06L-366.38,-144.24L-353.11,-119.34L-325.04,-113.09L-305.07,-118.32L-287.42,-133.11L-286.67,-120.04L-268.43,-121.21L-273.09,-194.05L-285.50,-226.53L-320.01,-235.73L-349.93,-226.36L-363.29,-203.38L-347.18,-194.85L-338.34,-212.64L-320.98,-219.65L-301.62,-215.31ZM-291.64,-178.41L-289.81,-149.82L-302.85,-136.83L-322.94,-129.23L-337.90,-132.10L-345.61,-146.44L-337.88,-162.35ZM-218.93,-124.39L-228.98,-280.72L-248.52,-279.46L-238.47,-123.14ZM-184.35,-258.94L-177.78,-267.12L-178.48,-278.16L-186.18,-285.61L-196.22,-284.97L-202.72,-276.62L-202.02,-265.59L-194.39,-258.29ZM-171.17,-127.46L-178.42,-240.36L-197.96,-239.11L-190.71,-126.21ZM-57.40,-134.78L-58.45,-151.06L-127.49,-146.62L-64.91,-231.31L-65.96,-247.59L-151.50,-242.09L-150.45,-225.81L-87.92,-229.83L-149.41,-145.21L-148.37,-128.93ZM-28.25,-268.97L-21.68,-277.15L-22.37,-288.19L-30.08,-295.64L-40.12,-295.00L-46.62,-286.66L-45.91,-275.63L-38.28,-268.32ZM-15.06,-137.50L-22.32,-250.40L-41.86,-249.14L-34.60,-136.24ZM12.63,-139.28L32.17,-140.53L28.22,-201.97L34.83,-231.53L56.27,-242.97L75.12,-235.68L81.88,-213.27L86.33,-144.01L105.87,-145.27L101.42,-214.53L91.81,-248.48L59.16,-260.07L38.36,-254.06L24.00,-237.02L22.96,-253.30L5.37,-252.17ZM179.23,-102.56L218.58,-122.13L225.89,-160.40L219.11,-265.91L201.74,-264.80L202.72,-249.60L189.00,-263.20L168.84,-267.58L133.28,-248.22L123.38,-203.50L138.93,-160.42L176.67,-145.78L193.89,-151.07L206.06,-163.70L206.54,-155.41L201.25,-129.70L178.61,-119.43L160.20,-123.36L152.11,-138.21L136.93,-130.04L148.12,-109.90ZM171.02,-251.03L193.32,-241.23L205.55,-208.77L198.40,-175.07L176.71,-162.45L154.17,-172.23L143.33,-204.77L149.92,-238.44ZM383.49,-175.98L343.18,-192.27L327.68,-238.02L338.04,-285.41L375.09,-306.66L406.40,-298.23L422.66,-272.14L440.45,-282.61L419.23,-313.30L373.95,-324.37L320.37,-296.49L305.54,-236.57L327.91,-179.06L384.63,-158.28L428.00,-175.26L444.85,-207.29L426.26,-216.09L411.99,-188.07ZM535.37,-334.74L480.69,-306.79L464.76,-246.81L488.23,-189.37L546.04,-168.65L600.54,-196.59L616.47,-256.56L593.00,-314.01ZM544.90,-186.38L503.50,-202.59L486.88,-248.25L498.34,-295.71L536.51,-317.04L576.87,-300.76L594.29,-255.15L582.86,-207.69ZM738.47,-185.85L737.28,-204.45L661.72,-199.59L672.85,-218.12L694.46,-237.24L721.44,-265.59L732.02,-299.53L716.58,-333.88L680.69,-344.05L645.86,-328.36L635.05,-296.20L653.67,-290.51L659.91,-315.26L681.38,-326.31L703.29,-319.27L712.06,-298.71L704.92,-276.12L684.81,-254.08L649.96,-220.94L638.92,-195.88L639.97,-179.59Z" fill="#ffffff" stroke="#000000"/>
    <path d="M-710.03,-65.92L-666.12,-220.51L-685.24,-225.83L-722.58,-88.29L-784.26,-216.26L-802.87,-207.31L-730.83,-63.91ZM-631.87,-204.77L-625.63,-213.07L-626.67,-223.98L-634.53,-231.10L-644.44,-230.15L-650.61,-221.69L-649.56,-210.80L-641.78,-203.81ZM-614.65,-75.13L-625.42,-186.59L-644.71,-184.72L-633.94,-73.26ZM-578.46,-113.47L-594.11,-104.23L-581.08,-83.41L-547.15,-77.18L-516.40,-88.07L-504.55,-116.16L-515.42,-138.19L-535.13,-146.03L-561.79,-150.54L-576.80,-154.93L-582.39,-163.38L-577.25,-174.97L-559.46,-180.76L-541.53,-177.69L-532.65,-164.23L-517.16,-173.45L-528.40,-191.21L-560.31,-197.31L-590.30,-186.44L-601.01,-159.39L-590.47,-139.76L-570.24,-132.40L-542.07,-127.78L-528.50,-122.53L-524.09,-112.54L-531.45,-98.77L-548.08,-93.68L-569.22,-98.45ZM-400.47,-208.31L-419.76,-206.45L-413.92,-146.02L-419.49,-116.33L-440.33,-104.33L-459.22,-110.95L-466.66,-133.26L-473.23,-201.28L-492.52,-199.42L-485.94,-131.26L-475.36,-97.75L-442.69,-87.34L-422.35,-94.51L-408.62,-111.25L-407.07,-95.17L-389.70,-96.85ZM-301.34,-180.83L-362.33,-155.48L-372.55,-127.60L-358.63,-103.40L-330.66,-98.10L-311.08,-103.91L-294.08,-119.10L-292.92,-106.20L-274.92,-107.93L-281.83,-179.84L-295.14,-211.58L-329.58,-219.59L-358.88,-209.36L-371.37,-186.20L-355.16,-178.28L-346.98,-196.16L-330.03,-203.65L-310.74,-199.97ZM-299.69,-163.78L-296.98,-135.56L-309.47,-122.29L-329.10,-114.13L-343.98,-116.49L-352.07,-130.44L-344.93,-146.42ZM-226.05,-112.65L-240.95,-266.98L-260.24,-265.12L-245.34,-110.79ZM-196.11,-246.85L-189.88,-255.16L-190.91,-266.06L-198.77,-273.18L-208.68,-272.23L-214.85,-263.77L-213.80,-252.88L-206.02,-245.89ZM-178.89,-117.21L-189.66,-228.67L-208.95,-226.80L-198.18,-115.34ZM-66.58,-128.05L-68.13,-144.13L-136.29,-137.55L-77.07,-223.31L-78.63,-239.39L-163.08,-231.23L-161.53,-215.16L-99.79,-221.12L-157.94,-135.46L-156.39,-119.38ZM-42.00,-261.73L-35.76,-270.04L-36.80,-280.94L-44.66,-288.06L-54.57,-287.11L-60.74,-278.65L-59.69,-267.76L-51.91,-260.78ZM-24.78,-132.09L-35.54,-243.55L-54.83,-241.69L-44.07,-130.23ZM2.55,-134.73L21.84,-136.59L15.99,-197.25L21.59,-226.70L42.44,-238.70L61.31,-232.09L68.72,-210.13L75.32,-141.76L94.61,-143.62L88.01,-211.99L77.42,-245.28L44.76,-255.71L24.36,-249.10L10.70,-231.79L9.15,-247.86L-8.21,-246.19ZM168.54,-103.69L206.85,-124.30L212.87,-162.39L202.81,-266.56L185.66,-264.91L187.11,-249.91L173.10,-262.92L153.03,-266.61L118.46,-246.34L110.09,-201.79L126.83,-159.66L164.64,-146.37L181.50,-152.15L193.14,-165.03L193.87,-156.85L189.46,-131.24L167.39,-120.36L149.06,-123.67L140.57,-138.11L125.82,-129.54L137.53,-109.97ZM155.70,-250.31L178.07,-241.33L191.21,-209.60L185.20,-176.04L164.15,-162.87L141.54,-171.82L129.77,-203.67L135.23,-237.19ZM368.28,-182.82L327.88,-197.65L311.10,-242.42L319.84,-289.63L355.82,-311.83L387.06,-304.48L403.98,-279.19L421.24,-290.12L399.27,-319.80L354.13,-329.31L302.01,-300.03L289.24,-240.29L313.20,-184.10L369.97,-165.34L412.34,-183.52L427.98,-215.74L409.32,-223.86L396.09,-195.68ZM513.49,-344.70L460.29,-315.32L446.43,-255.47L471.47,-199.39L529.32,-180.73L582.35,-210.10L596.20,-269.93L571.16,-326.02ZM527.63,-198.23L486.15,-212.95L468.27,-257.59L478.09,-304.91L515.18,-327.22L555.63,-312.40L574.31,-267.83L564.50,-220.52ZM719.15,-203.85L717.37,-222.21L642.78,-215.01L653.21,-233.69L673.97,-253.30L699.76,-282.20L709.15,-316.11L692.79,-349.60L656.96,-358.52L623.00,-341.90L613.33,-309.74L631.92,-304.70L637.31,-329.39L658.21,-341.00L680.10,-334.73L689.43,-314.67L683.09,-292.09L663.89,-269.65L630.46,-235.76L620.34,-210.61L621.89,-194.54Z" fill="#ffffff" stroke="#000000"/>
    <path d="M-709.79,-39.06L-671.26,-193.38L-690.34,-198.03L-722.91,-60.79L-787.99,-185.43L-806.11,-175.98L-730.29,-36.42ZM-636.88,-178.90L-630.98,-187.31L-632.35,-198.06L-640.35,-204.86L-650.12,-203.60L-655.95,-195.03L-654.57,-184.30L-646.65,-177.64ZM-615.73,-51.20L-629.92,-161.11L-648.94,-158.66L-634.75,-48.75ZM-581.14,-90.29L-596.33,-80.65L-582.79,-60.47L-549.02,-55.38L-518.95,-67.12L-508.12,-95.29L-519.58,-116.74L-539.32,-123.86L-565.84,-127.48L-580.82,-131.35L-586.62,-139.53L-581.91,-151.16L-564.49,-157.45L-546.65,-154.97L-537.44,-141.94L-522.41,-151.56L-534.10,-168.77L-565.86,-173.79L-595.18,-162.09L-604.92,-134.99L-593.86,-115.90L-573.62,-109.26L-545.61,-105.60L-532.02,-100.83L-527.33,-91.09L-534.18,-77.23L-550.47,-71.67L-571.54,-75.72ZM-408.09,-189.74L-427.12,-187.29L-419.43,-127.70L-423.99,-98.16L-444.22,-85.62L-463.12,-91.57L-471.19,-113.41L-479.85,-180.48L-498.87,-178.03L-490.19,-110.81L-478.66,-78.00L-446.02,-68.74L-426.13,-76.48L-413.07,-93.48L-411.03,-77.62L-393.91,-79.83ZM-309.17,-165.71L-368.69,-138.70L-377.92,-110.80L-363.37,-87.30L-335.54,-82.95L-316.35,-89.31L-300.03,-104.88L-298.47,-92.15L-280.72,-94.44L-289.84,-165.35L-304.01,-196.33L-338.33,-203.15L-366.99,-192.11L-378.61,-168.80L-362.33,-161.48L-354.80,-179.43L-338.27,-187.37L-319.07,-184.35ZM-307.00,-148.90L-303.41,-121.07L-315.34,-107.55L-334.50,-98.85L-349.31,-100.72L-357.75,-114.26L-351.19,-130.29ZM-232.52,-100.66L-252.17,-252.85L-271.19,-250.39L-251.55,-98.21ZM-207.17,-234.36L-201.27,-242.77L-202.64,-253.52L-210.64,-260.32L-220.41,-259.06L-226.24,-250.50L-224.86,-239.76L-216.94,-233.10ZM-186.02,-106.67L-200.21,-216.58L-219.23,-214.12L-205.05,-104.21ZM-75.27,-120.96L-77.31,-136.81L-144.53,-128.14L-88.68,-214.85L-90.72,-230.71L-174.00,-219.96L-171.95,-204.11L-111.08,-211.96L-165.88,-125.38L-163.83,-109.53ZM-55.20,-253.97L-49.29,-262.39L-50.66,-273.14L-58.67,-279.94L-68.44,-278.68L-74.27,-270.11L-72.89,-259.37L-64.97,-252.71ZM-34.05,-126.28L-48.24,-236.19L-67.26,-233.74L-53.07,-123.82ZM-7.10,-129.76L11.93,-132.21L4.21,-192.03L8.81,-221.34L29.05,-233.87L47.94,-227.93L55.96,-206.45L64.66,-139.02L83.68,-141.48L74.98,-208.90L63.45,-241.49L30.81,-250.77L10.85,-243.58L-2.12,-226.03L-4.16,-241.88L-21.28,-239.67ZM158.08,-104.33L195.32,-125.93L200.06,-163.80L186.80,-266.53L169.89,-264.34L171.80,-249.55L157.54,-261.98L137.56,-265.00L104.01,-243.84L97.14,-199.51L115.04,-158.36L152.86,-146.42L169.36,-152.68L180.47,-165.79L181.45,-157.71L177.90,-132.24L156.41,-120.78L138.17,-123.47L129.32,-137.48L115.00,-128.54L127.20,-109.55ZM140.73,-248.96L163.14,-240.78L177.14,-209.81L172.26,-176.42L151.86,-162.72L129.21,-170.86L116.56,-201.99L120.89,-235.32ZM353.14,-188.94L312.72,-202.33L294.69,-246.08L301.84,-293.06L336.72,-316.16L367.86,-309.88L385.40,-285.40L402.13,-296.76L379.45,-325.43L334.50,-333.40L283.87,-302.78L273.14,-243.28L298.62,-188.46L355.37,-171.70L396.70,-191.04L411.16,-223.40L392.44,-230.84L380.24,-202.55ZM491.64,-353.69L439.95,-322.93L428.14,-263.28L454.70,-208.61L512.51,-191.99L564.04,-222.72L575.84,-282.35L549.28,-337.04ZM510.29,-209.24L468.79,-222.49L449.68,-266.08L457.90,-313.20L493.87,-336.45L534.35,-323.07L554.25,-279.58L546.05,-232.46ZM699.55,-220.89L697.21,-239.00L623.66,-229.50L633.37,-248.31L653.30,-268.36L677.89,-297.77L686.09,-331.62L668.85,-364.22L633.12,-371.91L600.06,-354.39L591.51,-322.27L610.07,-317.87L614.62,-342.47L634.91,-354.62L656.77,-349.11L666.64,-329.56L661.08,-307.03L642.80,-284.22L610.81,-249.64L601.60,-224.44L603.64,-208.59Z" fill="#ffffff" stroke="#000000"/>
    <path d="M-708.45,-12.38L-675.24,-166.23L-694.25,-170.23L-722.11,-33.45L-790.44,-154.66L-808.06,-144.74L-728.64,-9.11ZM-640.77,-153.00L-635.20,-161.51L-636.90,-172.09L-645.03,-178.57L-654.65,-177.01L-660.15,-168.35L-658.44,-157.78L-650.40,-151.44ZM-615.80,-27.37L-633.32,-135.63L-652.06,-132.60L-634.54,-24.34ZM-582.83,-67.12L-597.55,-57.11L-583.51,-37.58L-549.95,-33.61L-520.59,-46.19L-510.77,-74.39L-522.78,-95.24L-542.53,-101.66L-568.87,-104.40L-583.82,-107.75L-589.82,-115.65L-585.52,-127.30L-568.49,-134.08L-550.77,-132.20L-541.25,-119.61L-526.69,-129.59L-538.79,-146.24L-570.37,-150.20L-598.99,-137.70L-607.76,-110.59L-596.23,-92.06L-575.99,-86.13L-548.17,-83.39L-534.58,-79.11L-529.64,-69.63L-535.97,-55.70L-551.90,-49.69L-572.87,-53.02ZM-414.83,-170.99L-433.57,-167.96L-424.07,-109.27L-427.64,-79.90L-447.26,-66.86L-466.13,-72.14L-474.81,-93.49L-485.51,-159.55L-504.24,-156.52L-493.53,-90.31L-481.08,-58.23L-448.50,-50.10L-429.07,-58.39L-416.70,-75.62L-414.17,-60.00L-397.31,-62.73ZM-316.22,-150.36L-374.24,-121.75L-382.48,-93.86L-367.35,-71.08L-339.68,-67.66L-320.91,-74.57L-305.25,-90.48L-303.31,-77.94L-285.82,-80.77L-297.09,-150.62L-312.10,-180.80L-346.26,-186.47L-374.25,-174.63L-385.00,-151.21L-368.66,-144.48L-361.79,-162.48L-345.70,-170.86L-326.61,-168.48ZM-313.54,-133.80L-309.12,-106.39L-320.49,-92.64L-339.16,-83.43L-353.86,-84.80L-362.64,-97.93L-356.66,-113.99ZM-238.35,-88.46L-262.61,-238.35L-281.35,-235.32L-257.09,-85.42ZM-217.52,-221.50L-211.95,-230.01L-213.64,-240.59L-221.78,-247.07L-231.40,-245.51L-236.90,-236.85L-235.19,-226.27L-227.15,-219.94ZM-192.55,-95.87L-210.07,-204.13L-228.81,-201.10L-211.29,-92.84ZM-83.46,-113.53L-85.98,-129.14L-152.19,-118.42L-99.70,-205.97L-102.23,-221.58L-184.25,-208.31L-181.73,-192.69L-121.77,-202.40L-173.22,-115.02L-170.69,-99.41ZM-67.83,-245.72L-62.26,-254.23L-63.95,-264.82L-72.09,-271.29L-81.71,-269.73L-87.21,-261.08L-85.50,-250.50L-77.46,-244.17ZM-42.86,-120.10L-60.38,-228.35L-79.12,-225.32L-61.60,-117.06ZM-16.31,-124.39L2.43,-127.42L-7.11,-186.34L-3.48,-215.47L16.14,-228.52L35.00,-223.24L43.62,-202.24L54.37,-135.83L73.10,-138.86L62.36,-205.28L49.92,-237.15L17.34,-245.28L-2.18,-237.54L-14.44,-219.77L-16.97,-235.38L-33.83,-232.65ZM147.87,-104.48L184.01,-127.03L187.50,-164.64L171.13,-265.82L154.47,-263.13L156.83,-248.55L142.33,-260.40L122.47,-262.74L89.96,-240.76L84.58,-196.69L103.59,-156.56L141.37,-145.95L157.49,-152.66L168.06,-165.98L169.29,-158.03L166.59,-132.72L145.70,-120.71L127.57,-122.78L118.37,-136.36L104.50,-127.07L117.16,-108.67ZM126.11,-246.98L148.54,-239.60L163.37,-209.42L159.60,-176.24L139.86,-162.04L117.20,-169.38L103.70,-199.76L106.93,-232.87ZM338.12,-194.37L297.71,-206.32L278.48,-249.02L284.06,-295.71L317.84,-319.68L348.83,-314.45L366.95,-290.79L383.14,-302.56L359.80,-330.19L315.09,-336.66L265.98,-304.76L257.26,-245.57L284.21,-192.16L340.86,-177.39L381.13,-197.82L394.40,-230.29L375.65,-237.06L364.49,-208.68ZM469.87,-361.71L419.72,-329.64L409.93,-270.28L437.94,-217.04L495.65,-202.44L545.63,-234.47L555.41,-293.82L527.41,-347.07ZM492.90,-219.44L451.43,-231.22L431.14,-273.73L437.78,-320.59L472.62,-344.73L513.09,-332.78L534.14,-290.40L527.53,-243.54ZM679.72,-236.96L676.84,-254.80L604.39,-243.07L613.40,-261.98L632.47,-282.45L655.86,-312.31L662.90,-346.05L644.81,-377.76L609.22,-384.23L577.08,-365.84L569.65,-333.80L588.14,-330.05L591.86,-354.52L611.55,-367.18L633.34,-362.42L643.72,-343.40L638.94,-320.94L621.58,-297.80L591.04,-262.58L582.73,-237.36L585.25,-221.75Z" fill="#ffffff" stroke="#000000"/>
    <path d="M-706.02,14.10L-678.06,-139.12L-696.99,-142.46L-720.20,-6.31L-791.62,-124.01L-808.73,-113.64L-725.89,17.97ZM-643.56,-127.12L-638.31,-135.71L-640.33,-146.13L-648.58,-152.27L-658.04,-150.42L-663.20,-141.69L-661.18,-131.28L-653.02,-125.27ZM-614.87,-3.67L-635.63,-110.18L-654.07,-106.59L-633.30,-0.08ZM-583.53,-44.03L-597.76,-33.66L-583.26,-14.79L-549.95,-11.94L-521.30,-25.30L-512.49,-53.51L-525.03,-73.75L-544.77,-79.47L-570.91,-81.34L-585.79,-84.18L-591.97,-91.80L-588.09,-103.46L-571.47,-110.71L-553.89,-109.41L-544.07,-97.26L-529.99,-107.59L-542.48,-123.68L-573.84,-126.59L-601.75,-113.32L-609.56,-86.22L-597.56,-68.26L-577.36,-63.05L-549.76,-61.22L-536.19,-57.42L-531.00,-48.20L-536.82,-34.22L-552.39,-27.77L-573.22,-30.40ZM-420.68,-152.09L-439.11,-148.49L-427.85,-90.75L-430.46,-61.59L-449.44,-48.07L-468.28,-52.70L-477.54,-73.54L-490.21,-138.53L-508.64,-134.94L-495.95,-69.80L-482.62,-38.47L-450.13,-31.47L-431.19,-40.28L-419.50,-57.71L-416.50,-42.34L-399.91,-45.58ZM-322.50,-134.82L-378.97,-104.68L-386.23,-76.84L-370.55,-54.79L-343.08,-52.29L-324.73,-59.71L-309.75,-75.94L-307.43,-63.61L-290.22,-66.96L-303.59,-135.68L-319.39,-165.05L-353.35,-169.57L-380.66,-156.98L-390.55,-133.48L-374.18,-127.34L-367.95,-145.35L-352.30,-154.15L-333.35,-152.40ZM-319.32,-118.52L-314.08,-91.55L-324.89,-77.59L-343.06,-67.89L-357.64,-68.79L-366.74,-81.49L-361.34,-97.57ZM-243.52,-76.07L-272.28,-223.54L-290.71,-219.95L-261.96,-72.47ZM-227.15,-208.30L-221.91,-216.89L-223.92,-227.31L-232.17,-233.45L-241.64,-231.61L-246.80,-222.87L-244.77,-212.46L-236.62,-206.45ZM-198.46,-84.85L-219.23,-191.36L-237.66,-187.77L-216.90,-81.26ZM-91.14,-105.78L-94.13,-121.14L-159.26,-108.44L-110.13,-196.68L-113.13,-212.04L-193.83,-196.31L-190.83,-180.95L-131.85,-192.45L-179.95,-104.41L-176.96,-89.04ZM-79.88,-237.01L-74.64,-245.60L-76.65,-256.02L-84.90,-262.16L-94.37,-260.32L-99.53,-251.58L-97.50,-241.17L-89.35,-235.17ZM-51.19,-113.56L-71.96,-220.07L-90.39,-216.48L-69.63,-109.97ZM-25.08,-118.65L-6.64,-122.25L-17.94,-180.21L-15.28,-209.14L3.71,-222.66L22.53,-218.04L31.72,-197.55L44.46,-132.21L62.89,-135.80L50.15,-201.14L36.84,-232.27L4.36,-239.28L-14.69,-231.01L-26.25,-213.04L-29.25,-228.40L-45.84,-225.16ZM137.92,-104.18L172.95,-127.63L175.21,-164.93L155.81,-264.47L139.42,-261.28L142.21,-246.94L127.50,-258.20L107.78,-259.89L76.33,-237.11L72.40,-193.35L92.48,-154.27L130.18,-144.98L145.91,-152.13L155.94,-165.64L157.41,-157.81L155.54,-132.70L135.26,-120.15L117.27,-121.63L107.74,-134.77L94.31,-125.13L107.43,-107.35ZM111.88,-244.41L134.30,-237.82L149.92,-208.45L147.25,-175.51L128.18,-160.85L105.53,-167.38L91.22,-197.00L93.36,-229.84ZM323.22,-199.11L282.87,-209.65L262.51,-251.27L266.54,-297.62L299.18,-322.39L330.00,-318.21L348.68,-295.39L364.31,-307.54L340.35,-334.13L295.93,-339.10L248.38,-306.00L241.63,-247.18L269.97,-195.22L326.47,-182.40L365.65,-203.89L377.74,-236.42L358.98,-242.52L348.84,-214.10ZM448.21,-368.78L399.63,-335.48L391.83,-276.46L421.22,-224.70L478.76,-212.09L527.17,-245.36L534.96,-304.36L505.57,-356.14ZM475.49,-228.81L434.11,-239.15L412.70,-280.55L417.77,-327.10L451.46,-352.08L491.86,-341.55L514.03,-300.30L508.98,-253.75ZM659.70,-252.08L656.28,-269.62L585.00,-255.73L593.32,-274.72L611.52,-295.56L633.71,-325.84L639.60,-359.43L620.70,-390.21L585.31,-395.48L554.10,-376.28L547.77,-344.36L566.17,-341.23L569.07,-365.55L588.14,-378.69L609.85,-374.68L620.72,-356.20L616.70,-333.84L600.27,-310.39L571.19,-274.60L563.76,-249.40L566.76,-234.03Z" fill="#ffffff" stroke="#000000"/>
    <path d="M-702.52,40.31L-679.73,-112.08L-698.56,-114.78L-717.19,20.58L-791.55,-93.54L-808.14,-82.74L-722.04,44.78ZM-645.23,-101.31L-640.32,-109.97L-642.65,-120.21L-651.00,-126.02L-660.30,-123.90L-665.13,-115.10L-662.80,-104.87L-654.54,-99.19ZM-612.95,19.85L-636.86,-84.81L-654.98,-80.67L-631.07,23.99ZM-583.24,-21.06L-596.99,-10.35L-582.05,7.85L-549.02,9.62L-521.11,-4.51L-513.29,-32.68L-526.33,-52.30L-546.04,-57.33L-571.94,-58.35L-586.75,-60.68L-593.11,-68.03L-589.64,-79.68L-573.43,-87.37L-556.00,-86.65L-545.91,-74.94L-532.31,-85.61L-545.18,-101.11L-576.28,-103.00L-603.46,-88.99L-610.32,-61.95L-597.89,-44.57L-577.75,-40.06L-550.40,-39.13L-536.85,-35.80L-531.43,-26.84L-536.74,-12.84L-551.93,-5.97L-572.62,-7.90ZM-425.63,-133.08L-443.75,-128.94L-430.78,-72.20L-432.43,-43.28L-450.78,-29.31L-469.55,-33.29L-479.37,-53.59L-493.96,-117.46L-512.08,-113.32L-497.45,-49.32L-483.28,-18.76L-450.93,-12.86L-432.48,-22.18L-421.47,-39.78L-418.02,-24.69L-401.72,-28.41ZM-328.00,-119.11L-382.89,-87.52L-389.18,-59.76L-372.97,-38.45L-345.73,-36.85L-327.82,-44.77L-313.53,-61.30L-310.84,-49.18L-293.93,-53.04L-309.33,-120.56L-325.89,-149.11L-359.62,-152.50L-386.22,-139.18L-395.25,-115.63L-378.87,-110.08L-373.28,-128.09L-358.09,-137.29L-339.29,-136.16ZM-324.34,-103.10L-318.30,-76.60L-328.55,-62.45L-346.21,-52.28L-360.66,-52.70L-370.06,-64.97L-365.23,-81.04ZM-248.04,-63.53L-281.15,-208.44L-299.27,-204.30L-266.16,-59.39ZM-236.05,-194.81L-231.14,-203.47L-233.46,-213.70L-241.81,-219.52L-251.11,-217.39L-255.94,-208.59L-253.61,-198.36L-245.35,-192.68ZM-203.76,-73.64L-227.68,-178.31L-245.79,-174.17L-221.88,-69.50ZM-98.30,-97.74L-101.74,-112.84L-165.75,-98.21L-119.97,-187.03L-123.42,-202.13L-202.72,-184.01L-199.27,-168.91L-141.30,-182.16L-186.08,-93.57L-182.63,-78.47ZM-91.33,-227.87L-86.42,-236.53L-88.74,-246.77L-97.09,-252.58L-106.40,-250.46L-111.22,-241.65L-108.89,-231.43L-100.64,-225.74ZM-59.05,-106.71L-82.96,-211.37L-101.08,-207.23L-77.16,-102.57ZM-33.38,-112.57L-15.27,-116.71L-28.28,-173.67L-26.57,-202.36L-8.22,-216.33L10.54,-212.36L20.28,-192.39L34.95,-128.18L53.06,-132.32L38.39,-196.53L24.24,-226.88L-8.10,-232.79L-26.68,-224.00L-37.54,-205.86L-40.99,-220.96L-57.29,-217.23ZM128.26,-103.43L162.16,-127.73L163.20,-164.69L140.85,-262.51L124.75,-258.83L127.97,-244.74L113.06,-255.40L93.51,-256.45L63.13,-232.93L60.64,-189.53L81.73,-151.53L119.31,-143.54L134.64,-151.10L144.12,-164.78L145.83,-157.09L144.78,-132.20L125.12,-119.14L107.28,-120.04L97.44,-132.72L84.47,-122.77L98.00,-105.60ZM98.06,-241.28L120.43,-235.47L136.82,-206.92L135.22,-174.27L116.82,-159.16L94.23,-164.90L79.13,-193.74L80.20,-226.28ZM308.48,-203.19L268.25,-212.33L246.79,-252.84L249.31,-298.80L280.80,-324.33L311.40,-321.17L330.59,-299.20L345.67,-311.71L321.14,-337.24L277.05,-340.75L231.07,-306.51L226.27,-248.13L255.95,-197.65L312.23,-186.77L350.28,-209.26L361.21,-241.82L342.47,-247.25L333.34,-218.83ZM426.69,-374.94L379.70,-340.47L373.87,-281.85L404.57,-231.61L461.87,-220.96L508.69,-255.39L514.51,-313.99L483.82,-364.25ZM458.11,-237.39L416.86,-246.30L394.38,-286.56L397.91,-332.76L430.44,-358.52L470.72,-349.39L493.95,-309.31L490.43,-263.11ZM639.53,-266.25L635.59,-283.49L565.55,-267.49L573.16,-286.53L590.50,-307.72L611.48,-338.36L616.24,-371.76L596.58,-401.60L561.41,-405.69L531.16,-385.71L525.91,-353.94L544.21,-351.43L546.31,-375.57L564.75,-389.18L586.34,-385.90L597.67,-367.97L594.41,-345.73L578.91,-322.03L551.28,-285.70L544.74,-260.55L548.19,-245.45Z" fill="#ffffff" stroke="#000000"/>
    <path d="M-697.96,66.23L-680.27,-85.17L-698.98,-87.25L-713.10,47.19L-790.24,-63.29L-806.31,-52.09L-717.13,71.26ZM-645.82,-75.62L-641.24,-84.34L-643.86,-94.39L-652.30,-99.87L-661.44,-97.47L-665.93,-88.62L-663.30,-78.58L-654.95,-73.22ZM-610.06,43.15L-637.02,-59.57L-654.80,-54.90L-627.84,47.82ZM-581.98,1.76L-595.23,12.79L-579.88,30.31L-547.17,31.00L-520.03,16.15L-513.18,-11.95L-526.71,-30.93L-546.34,-35.28L-571.99,-35.47L-586.71,-37.31L-593.23,-44.37L-590.17,-56.00L-574.39,-64.12L-557.13,-63.95L-546.78,-52.70L-533.67,-63.68L-546.89,-78.60L-577.69,-79.48L-604.12,-64.76L-610.06,-37.81L-597.21,-21.02L-577.15,-17.20L-550.08,-17.15L-536.58,-14.29L-530.93,-5.60L-535.74,8.41L-550.54,15.69L-571.06,14.43ZM-429.70,-114.00L-447.48,-109.33L-432.86,-53.64L-433.57,-25.00L-451.27,-10.60L-469.95,-13.94L-480.31,-33.70L-496.76,-96.39L-514.54,-91.72L-498.05,-28.90L-483.07,0.87L-450.90,5.66L-432.95,-4.13L-422.63,-21.89L-418.74,-7.07L-402.74,-11.27ZM-332.73,-103.29L-385.99,-70.31L-391.33,-42.66L-374.63,-22.11L-347.64,-21.39L-330.19,-29.79L-316.58,-46.59L-313.54,-34.69L-296.94,-39.04L-314.32,-105.32L-331.59,-133.02L-365.04,-135.30L-390.93,-121.29L-399.11,-97.71L-382.73,-92.74L-377.78,-110.73L-363.05,-120.31L-344.43,-119.79ZM-328.60,-87.57L-321.79,-61.56L-331.47,-47.25L-348.61,-36.64L-362.91,-36.59L-372.59,-48.43L-368.33,-64.47ZM-251.90,-50.87L-289.24,-193.10L-307.02,-188.43L-269.68,-46.20ZM-244.21,-181.05L-239.63,-189.77L-242.25,-199.82L-250.69,-205.30L-259.82,-202.90L-264.32,-194.05L-261.69,-184.01L-253.34,-178.65ZM-208.44,-62.28L-235.41,-165.00L-253.19,-160.33L-226.22,-57.61ZM-104.93,-89.45L-108.82,-104.27L-171.64,-87.77L-129.19,-177.05L-133.08,-191.86L-210.91,-171.43L-207.02,-156.61L-150.13,-171.55L-191.59,-82.54L-187.70,-67.72ZM-102.17,-218.33L-97.59,-227.05L-100.21,-237.10L-108.66,-242.58L-117.79,-240.19L-122.28,-231.33L-119.65,-221.29L-111.31,-215.94ZM-66.41,-99.56L-93.37,-202.29L-111.15,-197.62L-84.19,-94.89ZM-41.22,-106.17L-23.44,-110.84L-38.11,-166.75L-37.33,-195.17L-19.63,-209.56L-0.95,-206.23L9.30,-186.80L25.85,-123.78L43.63,-128.45L27.08,-191.46L12.13,-221.03L-20.03,-225.84L-38.12,-216.56L-48.29,-198.28L-52.18,-213.10L-68.18,-208.90ZM118.89,-102.27L151.64,-127.37L151.50,-163.94L126.30,-259.95L110.49,-255.80L114.12,-241.98L99.04,-252.04L79.68,-252.46L50.39,-228.24L49.30,-185.25L71.36,-148.34L108.77,-141.64L123.69,-149.60L132.63,-163.43L134.56,-155.87L134.31,-131.23L115.29,-117.70L97.63,-118.02L87.50,-130.25L74.98,-120.00L88.91,-103.45ZM84.66,-237.60L106.96,-232.57L124.07,-204.86L123.53,-172.53L105.82,-157.00L83.29,-161.96L67.45,-190.00L67.48,-222.21ZM293.91,-206.62L253.85,-214.38L231.35,-253.75L232.38,-299.28L262.70,-325.52L293.06,-323.37L312.74,-302.25L327.25,-315.10L302.18,-339.57L258.47,-341.63L214.11,-306.32L211.21,-248.45L242.15,-199.47L298.14,-190.51L335.06,-213.95L344.83,-246.49L326.12,-251.26L318.00,-222.87ZM405.34,-380.19L359.98,-344.61L356.08,-286.48L388.02,-237.77L445.01,-229.06L490.21,-264.59L494.12,-322.71L462.17,-371.44ZM440.78,-245.19L399.71,-252.69L376.20,-291.78L378.23,-337.57L409.57,-364.07L449.69,-356.33L473.93,-317.43L471.92,-271.65ZM619.24,-279.48L614.79,-296.40L546.05,-278.35L552.98,-297.42L569.45,-318.92L589.22,-349.89L592.86,-383.07L572.47,-411.94L537.57,-414.87L508.30,-394.16L504.12,-362.58L522.29,-360.68L523.60,-384.61L541.40,-398.65L562.85,-396.09L574.63,-378.73L572.11,-356.63L557.53,-332.70L531.37,-295.91L525.70,-270.83L529.59,-256.02Z" fill="#ffffff" stroke="#000000"/>
    <path d="M-692.38,91.80L-679.69,-58.44L-698.25,-59.90L-707.94,73.45L-787.72,-33.32L-803.24,-21.73L-711.16,97.38ZM-645.33,-50.09L-641.08,-58.86L-643.99,-68.71L-652.51,-73.86L-661.46,-71.20L-665.62,-62.30L-662.70,-52.46L-654.28,-47.43ZM-606.20,66.19L-636.12,-34.51L-653.55,-29.33L-623.63,71.37ZM-579.76,24.39L-592.51,35.71L-576.78,52.54L-544.41,52.19L-518.05,36.64L-512.18,8.65L-526.15,-9.69L-545.70,-13.37L-571.07,-12.74L-585.67,-14.09L-592.34,-20.86L-589.69,-32.46L-574.34,-40.99L-557.28,-41.37L-546.69,-30.57L-534.08,-41.84L-547.62,-56.18L-578.10,-56.07L-603.76,-40.68L-608.77,-13.85L-595.54,2.34L-575.59,5.49L-548.82,4.68L-535.39,7.08L-529.53,15.48L-533.83,29.49L-548.23,37.16L-568.56,36.56ZM-432.89,-94.89L-450.32,-89.71L-434.09,-35.12L-433.89,-6.78L-450.93,8.01L-469.51,5.31L-480.37,-13.91L-498.63,-75.36L-516.06,-70.18L-497.76,-8.60L-482.00,20.36L-450.05,24.08L-432.61,13.83L-422.97,-4.05L-418.65,10.47L-402.97,5.81ZM-336.68,-87.38L-388.29,-53.09L-392.69,-25.58L-375.53,-5.80L-348.82,-5.94L-331.83,-14.81L-318.91,-31.84L-315.53,-20.17L-299.26,-25.00L-318.54,-89.97L-336.49,-116.81L-369.64,-118.00L-394.79,-103.33L-402.12,-79.76L-385.78,-75.37L-381.45,-93.31L-367.19,-103.24L-348.77,-103.32ZM-332.10,-71.98L-324.53,-46.48L-333.65,-32.02L-350.26,-20.98L-364.39,-20.49L-374.34,-31.88L-370.64,-47.87ZM-255.11,-38.12L-296.54,-177.55L-313.96,-172.37L-272.54,-32.94ZM-251.63,-167.07L-247.38,-175.83L-250.29,-185.68L-258.81,-190.83L-267.76,-188.17L-271.92,-179.28L-269.00,-169.44L-260.59,-164.41ZM-212.50,-50.78L-242.42,-151.48L-259.85,-146.30L-229.93,-45.60ZM-111.03,-80.93L-115.35,-95.45L-176.93,-77.16L-137.80,-166.76L-142.11,-181.28L-218.41,-158.61L-214.10,-144.09L-158.32,-160.66L-196.49,-71.35L-192.17,-56.82ZM-112.40,-208.44L-108.14,-217.20L-111.05,-227.05L-119.57,-232.20L-128.53,-229.54L-132.69,-220.65L-129.77,-210.81L-121.35,-205.78ZM-73.27,-92.15L-103.19,-192.85L-120.62,-187.67L-90.70,-86.97ZM-48.57,-99.49L-31.14,-104.66L-47.43,-159.47L-47.56,-187.59L-30.51,-202.38L-11.94,-199.68L-1.19,-180.79L17.17,-119.02L34.60,-124.20L16.24,-185.97L0.52,-214.72L-31.43,-218.46L-49.02,-208.71L-58.49,-190.32L-62.81,-204.85L-78.49,-200.19ZM109.84,-100.71L141.41,-126.56L140.12,-162.71L112.16,-256.83L96.66,-252.23L100.69,-238.67L85.46,-248.15L66.31,-247.94L38.12,-223.07L38.41,-180.54L61.39,-144.75L98.58,-139.30L113.07,-147.65L121.48,-161.60L123.63,-154.20L124.16,-129.83L105.79,-115.85L88.31,-115.60L77.91,-127.37L65.87,-116.84L80.16,-100.92ZM71.70,-233.41L93.91,-229.15L111.70,-202.30L112.19,-170.31L95.17,-154.40L72.75,-158.59L56.20,-185.81L55.20,-217.65ZM279.56,-209.42L239.70,-215.83L216.21,-254.03L215.78,-299.08L244.93,-325.98L275.01,-324.82L295.13,-304.57L309.07,-317.73L283.51,-341.12L240.23,-341.78L197.49,-305.45L196.46,-248.15L228.61,-200.72L284.25,-193.63L320.00,-217.98L328.63,-250.45L309.98,-254.58L302.85,-226.26ZM384.21,-384.55L340.49,-347.94L338.48,-290.34L371.61,-243.20L428.22,-236.41L471.78,-272.97L473.80,-330.55L440.66,-377.71ZM423.53,-252.22L382.69,-258.33L358.20,-296.22L358.76,-341.56L388.90,-368.76L428.81,-362.37L454.01,-324.69L453.47,-279.36ZM598.86,-291.77L593.94,-308.36L526.55,-288.34L532.79,-307.41L548.39,-329.19L566.95,-360.43L569.51,-393.35L548.43,-421.25L513.83,-423.03L485.55,-401.63L482.42,-370.28L500.44,-368.98L500.98,-392.68L518.13,-407.12L539.42,-405.28L551.61,-388.48L549.82,-366.56L536.17,-342.44L511.48,-305.24L506.67,-280.26L510.98,-265.74Z" fill="#ffffff" stroke="#000000"/>
    <path d="M-685.78,116.98L-678.00,-31.94L-696.39,-32.79L-701.75,99.34L-783.99,-3.67L-798.97,8.27L-704.17,123.09ZM-643.77,-24.77L-639.85,-33.57L-643.04,-43.22L-651.62,-48.04L-660.39,-45.13L-664.22,-36.20L-661.02,-26.57L-652.54,-21.86ZM-601.40,88.93L-634.17,-9.66L-651.24,-3.99L-618.47,94.61ZM-576.59,46.77L-588.83,58.36L-572.75,74.50L-540.77,73.13L-515.21,56.92L-510.29,29.06L-524.68,11.38L-544.13,8.37L-569.18,9.79L-583.66,8.92L-590.46,2.44L-588.21,-9.11L-573.31,-18.02L-556.45,-18.95L-545.64,-8.61L-533.54,-20.15L-547.38,-33.89L-577.50,-32.81L-602.38,-16.79L-606.48,9.89L-592.89,25.48L-573.07,27.95L-546.63,26.30L-533.28,28.25L-527.22,36.37L-531.03,50.36L-545.02,58.39L-565.13,58.45ZM-435.19,-75.80L-452.26,-70.13L-434.49,-16.67L-433.39,11.33L-449.76,26.50L-468.21,24.41L-479.56,5.76L-499.56,-54.40L-516.62,-48.73L-496.58,11.56L-480.08,39.68L-448.38,42.35L-431.47,31.66L-422.51,13.68L-417.78,27.90L-402.42,22.80ZM-339.85,-71.43L-389.78,-35.89L-393.26,-8.56L-375.66,10.45L-349.27,9.46L-332.76,0.16L-320.53,-17.09L-316.81,-5.66L-300.89,-10.95L-322.00,-74.56L-340.60,-100.52L-373.41,-100.65L-397.80,-85.35L-404.30,-61.82L-388.01,-58.00L-384.30,-75.87L-370.52,-86.14L-352.31,-86.80ZM-334.84,-56.34L-326.55,-31.38L-335.10,-16.80L-351.17,-5.36L-365.13,-4.42L-375.32,-15.37L-372.17,-31.30ZM-257.66,-25.32L-303.03,-161.84L-320.10,-156.16L-274.72,-19.65ZM-258.31,-152.89L-254.39,-161.69L-257.58,-171.34L-266.16,-176.16L-274.93,-173.25L-278.76,-164.32L-275.56,-154.69L-267.08,-149.98ZM-215.95,-39.19L-248.72,-137.78L-265.78,-132.11L-233.01,-33.52ZM-116.59,-72.21L-121.32,-86.43L-181.61,-66.39L-145.78,-156.20L-150.50,-170.42L-225.21,-145.59L-220.48,-131.37L-165.87,-149.52L-200.76,-60.02L-196.04,-45.80ZM-121.99,-198.21L-118.07,-207.01L-121.26,-216.65L-129.84,-221.47L-138.61,-218.56L-142.43,-209.63L-139.24,-200.00L-130.76,-195.29ZM-79.62,-84.50L-112.39,-183.09L-129.46,-177.42L-96.69,-78.83ZM-55.44,-92.54L-38.38,-98.21L-56.21,-151.86L-57.24,-179.66L-40.86,-194.82L-22.42,-192.74L-11.18,-174.41L8.92,-113.93L25.99,-119.60L5.88,-180.08L-10.57,-208.01L-42.27,-210.68L-59.35,-200.49L-68.13,-182.01L-72.86,-196.23L-88.21,-191.13ZM101.11,-98.77L131.50,-125.33L129.07,-161.02L98.44,-253.17L83.27,-248.13L87.69,-234.86L72.33,-243.74L53.40,-242.93L26.33,-217.45L27.96,-175.41L51.82,-140.77L88.76,-136.56L102.82,-145.28L110.68,-159.33L113.04,-152.08L114.34,-128.01L96.62,-113.61L79.36,-112.81L68.70,-124.11L57.13,-113.32L71.76,-98.04ZM59.20,-228.74L81.29,-225.23L99.73,-199.25L101.22,-167.65L84.91,-151.38L62.61,-154.81L45.38,-181.19L43.39,-212.63ZM265.42,-211.62L225.82,-216.69L201.39,-253.71L199.53,-298.22L227.49,-325.74L257.27,-325.55L277.80,-306.16L291.16,-319.62L265.15,-341.93L222.35,-341.20L181.26,-303.94L182.06,-247.26L215.34,-201.40L270.56,-196.16L305.13,-221.36L312.63,-253.74L294.07,-257.22L287.92,-229.00ZM363.32,-388.06L321.26,-350.48L321.10,-293.48L355.34,-247.93L411.53,-243.01L453.42,-280.53L453.59,-337.52L419.34,-383.08ZM406.38,-258.49L365.82,-263.24L340.41,-299.92L339.52,-344.75L368.46,-372.59L408.11,-367.55L434.21,-331.10L435.12,-286.27ZM578.45,-303.16L573.05,-319.40L507.07,-297.47L512.63,-316.52L527.37,-338.54L544.72,-370.02L546.20,-402.63L524.48,-429.54L490.23,-430.21L462.95,-408.15L460.85,-377.06L478.71,-376.35L478.48,-399.79L494.98,-414.62L516.08,-413.47L528.67,-397.25L527.60,-375.52L514.87,-351.25L491.64,-313.69L487.68,-288.85L492.40,-274.63Z" fill="#ffffff" stroke="#000000"/>
    <path d="M-906.35,492L-906.35,469.28L-898.22,492L-894.99,492L-886.86,469.28L-886.86,492L-883.25,492L-883.25,464.64L-888.22,464.64L-896.55,487.33L-904.68,464.64L-909.96,464.64L-909.96,492ZM-865.67,478.75L-876.82,482.17L-879.09,486.89L-877.05,491.38L-872.23,492.78L-868.69,492.09L-865.45,489.71L-865.46,492L-862.27,492L-862.27,479.25L-864.06,473.45L-869.98,471.46L-875.30,472.76L-877.88,476.62L-875.17,478.28L-873.43,475.28L-870.33,474.25L-867.00,475.23ZM-865.67,481.77L-865.68,486.77L-868.09,488.89L-871.68,489.99L-874.26,489.33L-875.44,486.74L-873.91,484.05ZM-857.12,492L-853.70,492L-853.70,481.25L-852.22,476.17L-848.35,474.41L-845.15,475.90L-844.22,479.88L-844.22,492L-840.80,492L-840.80,479.88L-842.09,473.85L-847.66,471.47L-851.35,472.28L-854.04,475.09L-854.04,472.24L-857.12,472.24ZM-833.34,468.94L-832.11,467.58L-832.10,465.65L-833.36,464.27L-835.12,464.27L-836.35,465.65L-836.35,467.58L-835.10,468.94ZM-832.52,492L-832.52,472.24L-835.94,472.24L-835.94,492ZM-818.31,468.12L-817.85,465.29L-820.94,464.71L-825.30,466.41L-826.70,471.29L-826.70,472.24L-829.67,472.24L-829.67,474.86L-826.70,474.86L-826.70,492L-823.40,492L-823.40,474.86L-819.56,474.86L-819.56,472.24L-823.40,472.24L-823.40,471.21L-822.75,468.65L-820.52,467.74ZM-807.97,471.46L-814.77,474.29L-817.39,482.12L-814.77,489.95L-807.97,492.78L-801.17,489.95L-798.55,482.12L-801.16,474.29ZM-807.97,489.87L-812.08,488.06L-813.90,482.12L-812.08,476.18L-807.97,474.37L-803.85,476.18L-802.04,482.12L-803.85,488.06ZM-795.03,492L-791.61,492L-791.61,481.25L-790.13,476.17L-786.26,474.41L-783.06,475.90L-782.13,479.88L-782.13,492L-778.71,492L-778.71,479.88L-780.00,473.85L-785.56,471.47L-789.26,472.28L-791.95,475.09L-791.95,472.24L-795.03,472.24ZM-765.45,492.27L-765.45,492.26L-765.85,489.32L-767.38,489.55L-769.03,488.71L-769.32,486.22L-769.32,474.86L-765.94,474.86L-765.94,472.24L-769.32,472.24L-769.32,465.40L-772.74,465.40L-772.74,472.24L-775.55,472.24L-775.55,474.86L-772.74,474.86L-772.74,486.22L-771.96,491.00L-768.07,492.63ZM-737.50,487.93L-737.50,478.13L-749.05,478.13L-749.05,481.31L-740.99,481.31L-740.97,486.22L-748.63,489.75L-755.95,486.41L-758.55,478.32L-756.06,470.17L-749.21,466.88L-744.27,468.25L-741.30,473.01L-738.24,471.11L-741.44,465.93L-749.13,463.79L-758.98,468.04L-762.42,478.32L-758.78,488.60L-748.74,492.86ZM-724.35,474.77L-721.78,475.62L-720.76,472.73L-724.11,471.47L-727.37,472.48L-729.65,475.66L-729.65,472.24L-732.73,472.24L-732.73,491.81L-729.31,492L-729.31,481.32L-728.06,476.56ZM-710.01,471.46L-716.81,474.29L-719.42,482.12L-716.81,489.95L-710.01,492.78L-703.20,489.95L-700.58,482.12L-703.20,474.29ZM-710.01,489.87L-714.12,488.06L-715.93,482.12L-714.12,476.18L-710.01,474.37L-705.89,476.18L-704.07,482.12L-705.89,488.06ZM-688.58,492.27L-688.58,492.26L-688.97,489.32L-690.51,489.55L-692.15,488.71L-692.45,486.22L-692.45,474.86L-689.07,474.86L-689.07,472.24L-692.45,472.24L-692.45,465.40L-695.87,465.40L-695.87,472.24L-698.68,472.24L-698.68,474.86L-695.87,474.86L-695.87,486.22L-695.09,491.00L-691.19,492.63ZM-680.57,488.24L-682.57,483.00L-667.90,482.99L-667.71,481.63L-669.97,474.39L-676.83,471.45L-683.53,474.28L-686.05,482.11L-683.53,489.93L-676.83,492.76L-671.18,491.10L-668.58,487.02L-671.25,485.36L-673.32,488.74L-676.63,489.86ZM-682.45,480.26L-680.31,475.73L-676.83,474.35L-672.95,476.00L-671.40,480.26ZM-661.99,485.88L-664.90,487.24L-662.96,491.11L-657.11,492.78L-651.52,491.39L-648.97,486.66L-650.50,482.61L-653.83,480.90L-658.44,479.65L-661.00,478.62L-661.84,477.05L-660.74,475.10L-657.52,474.38L-654.42,475.23L-653.09,477.74L-650.21,476.38L-651.88,473.07L-657.39,471.46L-662.84,472.86L-665.18,477.43L-663.66,481.06L-660.23,482.69L-655.36,483.98L-653.07,485.13L-652.46,486.96L-653.99,489.26L-656.99,489.87L-660.63,488.67ZM-641.92,483.45L-638.72,483.45L-637.20,484.67L-633.14,492.30L-630.05,490.63L-634.16,483.45L-636.67,482.04L-634.62,480.06L-632.77,476.14L-631.66,475.64L-630.10,475.39L-630.56,472.24L-633.40,472.52L-635.30,474.17L-637.43,478.82L-638.72,480.60L-641.91,480.60L-641.91,464.64L-643.66,464.64L-645.32,464.64L-645.33,492L-641.92,492ZM-625.58,492.01L-615.04,492.01L-607.42,490.45L-604.53,484.21L-606.06,480.03L-610.31,477.70L-606.80,475.27L-605.82,471.62L-608.58,466.13L-615.58,464.63L-625.58,464.63ZM-621.94,476.42L-621.95,467.89L-616.40,467.89L-611.64,468.44L-609.62,472.08L-611.57,475.51L-615.93,476.42ZM-621.94,488.79L-621.94,479.64L-615.54,479.64L-610.64,480.53L-608.45,484.21L-610.32,488.02L-615.04,488.79ZM-592.40,471.46L-599.20,474.29L-601.81,482.12L-599.20,489.95L-592.40,492.78L-585.59,489.95L-582.97,482.12L-585.59,474.29ZM-592.40,489.87L-596.51,488.06L-598.32,482.12L-596.51,476.18L-592.40,474.37L-588.28,476.18L-586.46,482.12L-588.28,488.06ZM-571.27,471.46L-578.07,474.29L-580.68,482.12L-578.07,489.95L-571.27,492.78L-564.46,489.95L-561.85,482.12L-564.46,474.29ZM-571.27,489.87L-575.38,488.06L-577.19,482.12L-575.38,476.18L-571.27,474.37L-567.15,476.18L-565.33,482.12L-567.15,488.06ZM-554.82,483.45L-551.62,483.45L-550.10,484.67L-546.04,492.30L-542.96,490.63L-547.06,483.45L-549.57,482.04L-547.52,480.06L-545.67,476.14L-544.56,475.64L-543.00,475.39L-543.46,472.24L-546.31,472.52L-548.20,474.17L-550.34,478.82L-551.62,480.60L-554.82,480.60L-554.82,464.64L-556.56,464.64L-558.23,464.64L-558.23,492L-554.82,492Z"/>
</svg>