<?xml version="1.0"?>
<svg xmlns="http://www.w3.org/2000/svg" width="1920" height="1080" viewBox="-960 -540 1920 1080">
    <path d="M-653.12,-147L-607.84,-147L-607.84,-151.44L-626.93,-156.99L-609.83,-200.50L-555.00,-200.50L-537.68,-157.21L-556.78,-151.44L-556.78,-147L-505.05,-147L-505.05,-151.44L-519.26,-157.21L-575.42,-294.63L-583.19,-294.63L-640.03,-156.77L-653.12,-151.44ZM-605.84,-210.94L-582.75,-269.32L-559.22,-210.94ZM-354.09,-144.78C-329.89,-144.78 -317.90,-149.22 -304.81,-155.66L-302.59,-190.07L-306.58,-190.07L-319.68,-164.54C-328.12,-158.99 -337.88,-154.33 -352.98,-154.33C-384.73,-154.33 -409.59,-180.97 -409.59,-223.81C-409.59,-259.33 -385.17,-286.42 -351.65,-286.42C-340.33,-286.42 -332.11,-282.64 -320.79,-274.43L-309.25,-248.01L-305.03,-248.01L-305.92,-285.08C-318.13,-290.86 -329.00,-295.74 -350.54,-295.74C-392.05,-295.74 -426.68,-259.55 -426.68,-216.26C-426.68,-175.19 -397.82,-144.78 -354.09,-144.78ZM-223.55,-144.78C-195.36,-144.78 -176.05,-167.20 -176.05,-196.95C-176.05,-226.70 -195.36,-249.12 -223.55,-249.12C-251.75,-249.12 -271.06,-226.70 -271.06,-196.95C-271.06,-167.20 -251.75,-144.78 -223.55,-144.78ZM-220.45,-152.55C-243.31,-152.55 -254.63,-175.86 -254.63,-201.61C-254.63,-222.70 -245.09,-241.57 -226.22,-241.57C-203.13,-241.57 -192.47,-218.04 -192.47,-192.51C-192.47,-172.31 -201.35,-152.55 -220.45,-152.55ZM-153.40,-147L-108.56,-147L-108.56,-150.55L-124.32,-156.10L-124.32,-226.03C-118.33,-232.47 -107.00,-235.80 -98.79,-235.80C-84.80,-235.80 -75.04,-227.81 -75.04,-212.71L-75.04,-156.10L-90.80,-150.55L-90.80,-147L-45.95,-147L-45.95,-150.55L-59.94,-156.10L-59.94,-221.37C-59.94,-239.57 -72.82,-249.12 -90.58,-249.12C-103.01,-249.12 -112.55,-244.01 -123.65,-232.91L-124.54,-232.91L-126.10,-249.12L-127.87,-249.12L-153.85,-239.80L-153.85,-237.35L-139.42,-229.81L-139.42,-156.10L-153.40,-150.55ZM20.42,-144.78C37.96,-144.78 51.50,-154.10 58.16,-165.87L58.16,-168.31L57.50,-168.31C48.40,-161.87 37.74,-158.54 27.31,-158.54C0.00,-158.54 -11.54,-177.41 -11.54,-200.72C-11.54,-226.92 0.67,-241.35 18.65,-241.35C29.08,-241.35 35.74,-236.24 41.07,-229.14L46.62,-221.59L47.95,-221.59L55.50,-227.81C57.28,-229.14 57.72,-230.47 57.72,-232.03C57.72,-234.25 55.94,-236.47 52.84,-239.57C47.06,-244.90 35.74,-249.12 23.98,-249.12C-4.88,-249.12 -26.42,-225.81 -26.42,-193.62C-26.42,-164.76 -9.10,-144.78 20.42,-144.78ZM78.81,-147L122.54,-147L122.54,-150.55L107.89,-156.10L107.89,-313.50L106.12,-313.50L78.37,-305.06L78.37,-302.84L92.80,-294.19L92.80,-156.10L78.81,-150.55ZM183.37,-144.78C195.36,-144.78 204.68,-149.66 215.78,-160.76L216.67,-160.76L216.67,-147L247.53,-147L247.53,-150.55L231.77,-155.88L231.77,-246.90L200.02,-246.90L200.02,-243.35L216.67,-237.80L216.67,-167.87C210.68,-161.43 199.58,-158.10 191.59,-158.10C177.82,-158.10 168.28,-166.09 168.28,-181.19L168.28,-246.90L138.53,-246.90L138.53,-243.35L153.18,-237.80L153.18,-172.53C153.18,-154.33 165.83,-144.78 183.37,-144.78ZM298.37,-144.78C315.68,-144.78 332.33,-156.32 332.33,-174.08C332.33,-193.40 320.35,-198.50 305.03,-205.16C290.82,-211.38 283.94,-215.82 283.94,-226.03C283.94,-235.80 290.38,-242.02 301.03,-242.02C308.58,-242.02 315.68,-238.46 319.90,-229.36L325.45,-218.48L328.34,-218.48L328.34,-242.02C320.35,-246.23 311.69,-249.12 300.59,-249.12C285.49,-249.12 270.62,-236.47 270.62,-221.15C270.62,-206.05 278.83,-199.17 295.26,-192.29C311.24,-185.41 319.01,-181.41 319.01,-169.20C319.01,-158.10 311.69,-151.66 298.81,-151.66C287.27,-151.66 280.16,-156.32 276.39,-164.76L270.84,-176.08L267.95,-176.08L267.95,-151.88C277.50,-147 285.94,-144.78 298.37,-144.78ZM380.06,-279.31C386.72,-279.31 391.39,-284.20 391.39,-290.63C391.39,-297.29 386.72,-301.96 380.06,-301.96C373.63,-301.96 368.74,-297.29 368.74,-290.63C368.74,-284.20 373.63,-279.31 380.06,-279.31ZM360.31,-147L404.04,-147L404.04,-150.55L389.39,-156.10L389.39,-249.12L387.61,-249.12L359.86,-240.68L359.86,-238.46L374.29,-229.81L374.29,-156.10L360.31,-150.55ZM474.41,-144.78C502.61,-144.78 521.92,-167.20 521.92,-196.95C521.92,-226.70 502.61,-249.12 474.41,-249.12C446.22,-249.12 426.91,-226.70 426.91,-196.95C426.91,-167.20 446.22,-144.78 474.41,-144.78ZM477.52,-152.55C454.66,-152.55 443.33,-175.86 443.33,-201.61C443.33,-222.70 452.88,-241.57 471.75,-241.57C494.84,-241.57 505.49,-218.04 505.49,-192.51C505.49,-172.31 496.61,-152.55 477.52,-152.55ZM544.57,-147L589.41,-147L589.41,-150.55L573.65,-156.10L573.65,-226.03C579.64,-232.47 590.96,-235.80 599.18,-235.80C613.16,-235.80 622.93,-227.81 622.93,-212.71L622.93,-156.10L607.17,-150.55L607.17,-147L652.01,-147L652.01,-150.55L638.03,-156.10L638.03,-221.37C638.03,-239.57 625.15,-249.12 607.39,-249.12C594.96,-249.12 585.41,-244.01 574.31,-232.91L573.43,-232.91L571.87,-249.12L570.10,-249.12L544.12,-239.80L544.12,-237.35L558.55,-229.81L558.55,-156.10L544.57,-150.55Z" fill="#ffffff" stroke="#000000"/>
    <path d="M-655.95,-125.90L-611.13,-127.04L-611.24,-131.43L-630.28,-136.45L-614.46,-179.94L-560.19,-181.32L-541.96,-138.92L-560.71,-132.72L-560.60,-128.33L-509.41,-129.63L-509.52,-134.03L-523.72,-139.38L-582.77,-273.96L-590.46,-273.77L-643.23,-135.90L-656.06,-130.29ZM-610.76,-190.37L-589.39,-248.73L-564.63,-191.54ZM-359.95,-131.24C-336.00,-131.85 -324.25,-136.55 -311.45,-143.25L-310.12,-177.36L-314.07,-177.26L-326.39,-151.66C-334.60,-145.96 -344.15,-141.10 -359.09,-140.72C-390.51,-139.92 -415.79,-165.65 -416.87,-208.06C-417.76,-243.21 -394.28,-270.63 -361.10,-271.48C-349.90,-271.76 -341.67,-268.23 -330.26,-260.39L-318.17,-234.53L-313.99,-234.64L-315.81,-271.31C-328.04,-276.71 -338.93,-281.27 -360.24,-280.73C-401.32,-279.68 -434.69,-243.00 -433.59,-200.16C-432.56,-159.51 -403.23,-130.14 -359.95,-131.24ZM-230.76,-134.53C-202.86,-135.24 -184.31,-157.92 -185.06,-187.36C-185.81,-216.80 -205.49,-238.50 -233.39,-237.79C-261.29,-237.08 -279.84,-214.41 -279.09,-184.96C-278.34,-155.52 -258.66,-133.82 -230.76,-134.53ZM-227.88,-142.30C-250.51,-141.72 -262.30,-164.51 -262.95,-189.99C-263.48,-210.86 -254.51,-229.78 -235.84,-230.26C-212.99,-230.84 -201.85,-207.82 -201.20,-182.55C-200.69,-162.56 -208.98,-142.78 -227.88,-142.30ZM-161.39,-138.50L-117.01,-139.63L-117.10,-143.14L-132.83,-148.24L-134.60,-217.45C-128.83,-223.97 -117.71,-227.55 -109.58,-227.76C-95.74,-228.11 -85.87,-220.45 -85.49,-205.50L-84.06,-149.48L-99.52,-143.59L-99.43,-140.07L-55.05,-141.20L-55.14,-144.72L-69.12,-149.86L-70.76,-214.45C-71.22,-232.47 -84.21,-241.59 -101.78,-241.15C-114.09,-240.83 -123.41,-235.54 -134.11,-224.27L-134.99,-224.25L-136.94,-240.25L-138.69,-240.21L-164.17,-230.32L-164.10,-227.91L-149.63,-220.80L-147.77,-147.86L-161.48,-142.01ZM10.70,-140.68C28.06,-141.12 41.23,-150.69 47.52,-162.50L47.46,-164.92L46.80,-164.90C37.95,-158.30 27.49,-154.74 17.17,-154.48C-9.86,-153.79 -21.76,-172.17 -22.35,-195.24C-23.01,-221.17 -11.29,-235.76 6.51,-236.21C16.84,-236.47 23.56,-231.59 29.01,-224.69L34.69,-217.36L36.01,-217.39L43.32,-223.74C45.05,-225.10 45.45,-226.43 45.41,-227.97C45.36,-230.16 43.54,-232.32 40.39,-235.31C34.54,-240.44 23.23,-244.33 11.59,-244.03C-16.98,-243.31 -37.70,-219.69 -36.89,-187.84C-36.16,-159.27 -18.52,-139.94 10.70,-140.68ZM68.43,-144.35L111.71,-145.45L111.62,-148.97L96.98,-154.09L93.01,-309.86L91.26,-309.82L64.00,-300.77L64.06,-298.57L78.56,-290.37L82.04,-153.71L68.34,-147.86ZM171.97,-144.79C183.83,-145.09 192.94,-150.16 203.64,-161.42L204.52,-161.45L204.87,-147.82L235.41,-148.60L235.32,-152.12L219.58,-156.99L217.29,-247.07L185.87,-246.27L185.96,-242.76L202.58,-237.69L204.34,-168.48C198.57,-161.95 187.67,-158.38 179.76,-158.18C166.14,-157.83 156.49,-165.50 156.11,-180.44L154.45,-245.47L125.01,-244.72L125.10,-241.21L139.74,-236.08L141.39,-171.49C141.85,-153.47 154.61,-144.35 171.97,-144.79ZM285.78,-147.69C302.91,-148.12 319.10,-159.97 318.65,-177.54C318.17,-196.66 306.17,-201.41 290.85,-207.62C276.63,-213.41 269.70,-217.63 269.45,-227.74C269.20,-237.40 275.42,-243.72 285.96,-243.99C293.43,-244.18 300.55,-240.84 304.96,-231.94L310.72,-221.31L313.58,-221.39L312.99,-244.67C304.97,-248.65 296.33,-251.29 285.34,-251.01C270.40,-250.63 256.00,-237.73 256.39,-222.57C256.77,-207.63 265.07,-201.02 281.50,-194.63C297.50,-188.22 305.29,-184.46 305.59,-172.37C305.87,-161.39 298.79,-154.83 286.04,-154.51C274.62,-154.22 267.47,-158.65 263.52,-166.91L257.74,-177.97L254.89,-177.90L255.50,-153.95C265.07,-149.36 273.47,-147.37 285.78,-147.69ZM363.24,-282.89C369.83,-283.06 374.32,-288.01 374.16,-294.38C373.99,-300.97 369.26,-305.47 362.67,-305.30C356.30,-305.14 351.58,-300.40 351.75,-293.81C351.91,-287.44 356.87,-282.73 363.24,-282.89ZM347.02,-151.44L390.30,-152.55L390.21,-156.06L375.57,-161.19L373.23,-253.24L371.47,-253.20L344.22,-244.15L344.27,-241.95L358.77,-233.75L360.63,-160.81L346.93,-154.96ZM460.01,-152.12C487.91,-152.83 506.46,-175.51 505.71,-204.95C504.96,-234.39 485.28,-256.10 457.38,-255.39C429.47,-254.68 410.92,-232.00 411.67,-202.56C412.42,-173.12 432.10,-151.41 460.01,-152.12ZM462.89,-159.89C440.26,-159.32 428.46,-182.10 427.81,-207.59C427.28,-228.46 436.25,-247.37 454.93,-247.85C477.78,-248.43 488.92,-225.41 489.56,-200.14C490.07,-180.15 481.78,-160.37 462.89,-159.89ZM529.38,-156.09L573.76,-157.22L573.67,-160.74L557.93,-165.83L556.17,-235.04C561.94,-241.56 573.06,-245.14 581.19,-245.35C595.03,-245.70 604.90,-238.04 605.28,-223.10L606.71,-167.07L591.25,-161.18L591.34,-157.67L635.72,-158.80L635.63,-162.31L621.65,-167.45L620.00,-232.05C619.54,-250.06 606.56,-259.19 588.98,-258.74C576.68,-258.43 567.36,-253.13 556.65,-241.87L555.77,-241.84L553.83,-257.84L552.07,-257.80L526.60,-247.92L526.66,-245.50L541.13,-238.39L542.99,-165.45L529.29,-159.60Z" fill="#ffffff" stroke="#000000"/>
    <path d="M-658.01,-104.82L-613.69,-107.08L-613.91,-111.42L-632.87,-115.90L-618.31,-159.34L-564.64,-162.08L-545.54,-120.57L-563.93,-113.97L-563.71,-109.63L-513.09,-112.21L-513.31,-116.55L-527.50,-121.49L-589.33,-253.18L-596.93,-252.80L-645.68,-115.03L-658.23,-109.16ZM-614.92,-169.75L-595.24,-228.05L-569.29,-172.08ZM-365.23,-117.56C-341.54,-118.77 -330.03,-123.71 -317.53,-130.67L-317.08,-164.46L-320.99,-164.26L-332.53,-138.62C-340.51,-132.77 -349.84,-127.72 -364.62,-126.96C-395.69,-125.38 -421.35,-150.21 -423.49,-192.15C-425.26,-226.91 -402.71,-254.64 -369.90,-256.31C-358.82,-256.87 -350.59,-253.59 -339.10,-246.12L-326.49,-220.84L-322.36,-221.05L-325.08,-257.29C-337.32,-262.33 -348.21,-266.56 -369.28,-265.49C-409.91,-263.42 -442.00,-226.28 -439.84,-183.91C-437.79,-143.71 -408.03,-115.38 -365.23,-117.56ZM-237.47,-124.08C-209.87,-125.48 -192.09,-148.39 -193.57,-177.51C-195.06,-206.62 -215.08,-227.60 -242.67,-226.20C-270.27,-224.79 -288.05,-201.88 -286.57,-172.77C-285.08,-143.65 -265.06,-122.67 -237.47,-124.08ZM-234.81,-131.84C-257.19,-130.70 -269.44,-152.94 -270.72,-178.15C-271.77,-198.79 -263.37,-217.74 -244.90,-218.68C-222.31,-219.83 -210.70,-197.33 -209.43,-172.34C-208.42,-152.57 -216.13,-132.79 -234.81,-131.84ZM-168.92,-129.75L-125.03,-131.99L-125.21,-135.46L-140.91,-140.11L-144.40,-208.55C-138.85,-215.15 -127.94,-218.97 -119.90,-219.38C-106.21,-220.08 -96.25,-212.75 -95.50,-197.97L-92.67,-142.57L-107.82,-136.35L-107.65,-132.87L-63.76,-135.11L-63.93,-138.59L-77.90,-143.32L-81.15,-207.20C-82.06,-225.02 -95.14,-233.72 -112.52,-232.83C-124.69,-232.21 -133.78,-226.74 -144.09,-215.32L-144.96,-215.28L-147.29,-231.06L-149.03,-230.97L-173.98,-220.55L-173.86,-218.16L-159.36,-211.49L-155.68,-139.36L-169.10,-133.23ZM1.32,-136.25C18.49,-137.12 31.27,-146.92 37.21,-158.77L37.08,-161.16L36.43,-161.13C27.85,-154.37 17.58,-150.58 7.37,-150.06C-19.36,-148.70 -31.59,-166.59 -32.76,-189.41C-34.06,-215.05 -22.83,-229.78 -5.23,-230.68C4.98,-231.20 11.75,-226.53 17.32,-219.84L23.13,-212.73L24.43,-212.80L31.51,-219.26C33.18,-220.65 33.55,-221.98 33.47,-223.50C33.36,-225.67 31.51,-227.76 28.31,-230.64C22.40,-235.57 11.11,-239.13 -0.41,-238.55C-28.65,-237.11 -48.57,-213.22 -46.96,-181.71C-45.52,-153.47 -27.58,-134.78 1.32,-136.25ZM58.35,-141.33L101.16,-143.52L100.98,-146.99L86.36,-151.69L78.51,-305.74L76.77,-305.65L50.03,-296.01L50.15,-293.84L64.70,-286.09L71.59,-150.94L58.18,-144.81ZM160.80,-144.38C172.54,-144.98 181.42,-150.22 191.73,-161.64L192.60,-161.68L193.28,-148.21L223.49,-149.75L223.31,-153.23L207.62,-157.66L203.08,-246.74L172.00,-245.16L172.18,-241.68L188.75,-237.08L192.24,-168.64C186.70,-162.04 176.00,-158.22 168.18,-157.82C154.71,-157.14 144.97,-164.48 144.21,-179.26L140.93,-243.57L111.82,-242.09L112.00,-238.61L126.61,-233.91L129.87,-170.03C130.78,-152.21 143.64,-143.50 160.80,-144.38ZM273.35,-150.11C290.30,-150.98 306.02,-163.11 305.13,-180.49C304.17,-199.39 292.18,-203.79 276.86,-209.55C262.64,-214.92 255.69,-218.92 255.18,-228.92C254.69,-238.48 260.68,-244.88 271.11,-245.42C278.50,-245.79 285.63,-242.67 290.21,-233.97L296.18,-223.60L299.01,-223.75L297.83,-246.78C289.80,-250.51 281.18,-252.90 270.32,-252.35C255.55,-251.59 241.62,-238.47 242.38,-223.47C243.14,-208.70 251.52,-202.37 267.94,-196.46C283.93,-190.52 291.73,-187.00 292.34,-175.05C292.90,-164.18 286.05,-157.51 273.44,-156.87C262.15,-156.30 254.96,-160.51 250.85,-168.57L244.85,-179.38L242.02,-179.23L243.23,-155.55C252.82,-151.25 261.19,-149.49 273.35,-150.11ZM346.60,-285.86C353.12,-286.19 357.44,-291.21 357.12,-297.51C356.78,-304.03 351.99,-308.36 345.47,-308.02C339.17,-307.70 334.62,-302.90 334.95,-296.38C335.27,-290.08 340.30,-285.54 346.60,-285.86ZM333.86,-155.38L376.67,-157.56L376.49,-161.04L361.87,-165.74L357.23,-256.78L355.49,-256.69L328.75,-247.05L328.87,-244.87L343.42,-237.12L347.10,-164.98L333.69,-158.85ZM445.65,-158.90C473.25,-160.30 491.03,-183.21 489.55,-212.33C488.07,-241.44 468.04,-262.42 440.45,-261.02C412.85,-259.61 395.07,-236.70 396.55,-207.59C398.04,-178.47 418.06,-157.49 445.65,-158.90ZM448.31,-166.66C425.93,-165.52 413.69,-187.77 412.40,-212.97C411.35,-233.61 419.75,-252.56 438.22,-253.50C460.82,-254.65 472.42,-232.15 473.69,-207.16C474.70,-187.39 466.99,-167.61 448.31,-166.66ZM514.20,-164.57L558.09,-166.81L557.92,-170.28L542.21,-174.93L538.72,-243.37C544.27,-249.97 555.18,-253.80 563.22,-254.21C576.91,-254.90 586.87,-247.57 587.62,-232.79L590.45,-177.39L575.30,-171.17L575.48,-167.69L619.37,-169.93L619.19,-173.41L605.22,-178.14L601.97,-242.02C601.06,-259.84 587.98,-268.54 570.60,-267.65C558.43,-267.03 549.34,-261.56 539.03,-250.14L538.16,-250.10L535.83,-265.88L534.10,-265.79L509.14,-255.37L509.26,-252.98L523.76,-246.31L527.44,-174.18L514.03,-168.05Z" fill="#ffffff" stroke="#000000"/>
    <path d="M-659.31,-83.79L-615.51,-87.14L-615.84,-91.43L-634.71,-95.39L-621.40,-138.74L-568.37,-142.80L-548.41,-102.21L-566.45,-95.21L-566.12,-90.92L-516.09,-94.75L-516.42,-99.04L-530.59,-103.57L-595.09,-232.32L-602.60,-231.75L-647.36,-94.20L-659.64,-88.08ZM-618.31,-149.12L-600.30,-207.30L-573.22,-152.58ZM-369.93,-103.78C-346.52,-105.57 -335.26,-110.75 -323.07,-117.95L-323.47,-151.39L-327.33,-151.09L-338.11,-125.43C-345.86,-119.44 -354.96,-114.21 -369.56,-113.09C-400.26,-110.74 -426.28,-134.67 -429.46,-176.11C-432.08,-210.46 -410.47,-238.46 -378.05,-240.94C-367.10,-241.78 -358.88,-238.74 -347.32,-231.63L-334.20,-206.94L-330.12,-207.25L-333.72,-243.04C-345.96,-247.72 -356.84,-251.64 -377.67,-250.04C-417.82,-246.97 -448.63,-209.41 -445.43,-167.54C-442.39,-127.82 -412.22,-100.54 -369.93,-103.78ZM-243.68,-113.44C-216.41,-115.53 -199.39,-138.64 -201.59,-167.41C-203.79,-196.19 -224.13,-216.44 -251.40,-214.35C-278.67,-212.27 -295.69,-189.15 -293.49,-160.38C-291.28,-131.61 -270.94,-111.35 -243.68,-113.44ZM-241.25,-121.19C-263.36,-119.49 -276.04,-141.20 -277.94,-166.11C-279.50,-186.50 -271.67,-205.46 -253.42,-206.86C-231.09,-208.57 -219.04,-186.60 -217.15,-161.90C-215.65,-142.37 -222.78,-122.60 -241.25,-121.19ZM-175.99,-120.78L-132.62,-124.10L-132.88,-127.54L-148.54,-131.74L-153.71,-199.37C-148.39,-206.04 -137.69,-210.10 -129.75,-210.71C-116.22,-211.74 -106.18,-204.74 -105.06,-190.14L-100.87,-135.39L-115.71,-128.85L-115.44,-125.42L-72.07,-128.74L-72.33,-132.17L-86.27,-136.50L-91.10,-199.63C-92.45,-217.23 -105.61,-225.51 -122.79,-224.20C-134.81,-223.28 -143.67,-217.63 -153.58,-206.08L-154.44,-206.01L-157.14,-221.57L-158.86,-221.44L-183.29,-210.50L-183.11,-208.14L-168.59,-201.90L-163.14,-130.62L-176.25,-124.22ZM-7.71,-131.50C9.25,-132.80 21.66,-142.82 27.23,-154.69L27.05,-157.06L26.41,-157.01C18.08,-150.11 8.02,-146.10 -2.07,-145.32C-28.48,-143.30 -41.04,-160.70 -42.77,-183.24C-44.71,-208.58 -33.97,-223.44 -16.57,-224.77C-6.48,-225.54 0.34,-221.10 6.02,-214.62L11.94,-207.73L13.23,-207.83L20.07,-214.40C21.69,-215.82 22.02,-217.14 21.91,-218.64C21.74,-220.79 19.86,-222.81 16.62,-225.58C10.65,-230.31 -0.62,-233.55 -12.00,-232.68C-39.91,-230.54 -59.01,-206.40 -56.63,-175.27C-54.49,-147.36 -36.26,-129.32 -7.71,-131.50ZM48.60,-137.97L90.90,-141.21L90.63,-144.64L76.05,-148.93L64.40,-301.16L62.68,-301.03L36.47,-290.81L36.63,-288.67L51.23,-281.36L61.45,-147.81L48.33,-141.41ZM149.89,-143.56C161.49,-144.45 170.14,-149.87 180.06,-161.42L180.91,-161.49L181.93,-148.18L211.78,-150.46L211.52,-153.90L195.88,-157.88L189.14,-245.92L158.43,-243.57L158.70,-240.13L175.21,-235.99L180.39,-168.36C175.07,-161.69 164.58,-157.65 156.85,-157.06C143.54,-156.04 133.71,-163.06 132.60,-177.66L127.73,-241.21L98.96,-239.01L99.22,-235.58L113.80,-231.29L118.64,-168.17C119.98,-150.56 132.93,-142.27 149.89,-143.56ZM261.11,-152.08C277.86,-153.36 293.11,-165.76 291.79,-182.93C290.36,-201.61 278.39,-205.67 263.08,-210.97C248.88,-215.93 241.90,-219.72 241.14,-229.59C240.42,-239.04 246.18,-245.53 256.49,-246.32C263.79,-246.88 270.92,-243.97 275.68,-235.48L281.85,-225.37L284.64,-225.58L282.90,-248.34C274.86,-251.83 266.27,-253.98 255.53,-253.16C240.93,-252.04 227.49,-238.70 228.62,-223.88C229.74,-209.28 238.19,-203.24 254.59,-197.80C270.56,-192.32 278.37,-189.03 279.27,-177.22C280.09,-166.49 273.49,-159.72 261.03,-158.77C249.87,-157.91 242.65,-161.90 238.38,-169.78L232.17,-180.31L229.38,-180.10L231.17,-156.70C240.76,-152.68 249.09,-151.16 261.11,-152.08ZM330.17,-288.24C336.61,-288.73 340.76,-293.80 340.28,-300.03C339.79,-306.47 334.93,-310.64 328.49,-310.14C322.26,-309.67 317.89,-304.80 318.38,-298.35C318.85,-292.13 323.94,-287.76 330.17,-288.24ZM320.85,-158.81L363.15,-162.05L362.89,-165.48L348.31,-169.77L341.42,-259.73L339.70,-259.60L313.49,-249.39L313.65,-247.24L328.25,-239.93L333.71,-168.65L320.59,-162.25ZM431.38,-165.11C458.65,-167.20 475.67,-190.31 473.46,-219.09C471.26,-247.86 450.92,-268.11 423.65,-266.03C396.39,-263.94 379.37,-240.82 381.57,-212.05C383.77,-183.28 404.11,-163.02 431.38,-165.11ZM433.81,-172.86C411.69,-171.16 399.02,-192.87 397.11,-217.78C395.55,-238.17 403.39,-257.13 421.64,-258.53C443.97,-260.24 456.01,-238.27 457.90,-213.57C459.40,-194.04 452.27,-174.27 433.81,-172.86ZM499.06,-172.45L542.43,-175.77L542.17,-179.21L526.52,-183.41L521.34,-251.04C526.66,-257.71 537.36,-261.77 545.31,-262.38C558.84,-263.41 568.87,-256.41 569.99,-241.81L574.18,-187.06L559.35,-180.52L559.61,-177.09L602.98,-180.41L602.72,-183.84L588.78,-188.17L583.95,-251.30C582.60,-268.91 569.44,-277.18 552.27,-275.87C540.24,-274.95 531.39,-269.30 521.47,-257.75L520.62,-257.68L517.91,-273.24L516.19,-273.11L491.76,-262.17L491.94,-259.81L506.46,-253.57L511.92,-182.29L498.80,-175.89Z" fill="#ffffff" stroke="#000000"/>
    <path d="M-659.85,-62.83L-616.60,-67.25L-617.03,-71.49L-635.81,-74.93L-623.73,-118.15L-571.36,-123.50L-550.60,-83.85L-568.27,-76.48L-567.83,-72.24L-518.43,-77.28L-518.87,-81.53L-533.00,-85.65L-600.05,-211.41L-607.47,-210.65L-648.29,-73.44L-660.28,-67.07ZM-620.93,-128.51L-604.58,-186.52L-576.41,-133.06ZM-374.05,-89.90C-350.94,-92.26 -339.92,-97.67 -328.04,-105.10L-329.28,-138.18L-333.10,-137.79L-343.11,-112.13C-350.63,-106.01 -359.50,-100.60 -373.92,-99.13C-404.24,-96.03 -430.58,-119.04 -434.77,-159.96C-438.23,-193.88 -417.55,-222.13 -385.54,-225.40C-374.73,-226.51 -366.51,-223.71 -354.90,-216.97L-341.30,-192.87L-337.27,-193.28L-341.73,-228.60C-353.96,-232.92 -364.82,-236.52 -385.39,-234.42C-425.04,-230.37 -454.58,-192.43 -450.35,-151.08C-446.34,-111.86 -415.81,-85.63 -374.05,-89.90ZM-249.38,-102.64C-222.46,-105.40 -206.20,-128.69 -209.10,-157.10C-212.01,-185.51 -232.64,-205.04 -259.57,-202.29C-286.49,-199.54 -302.75,-176.24 -299.85,-147.83C-296.94,-119.42 -276.31,-99.89 -249.38,-102.64ZM-247.17,-110.37C-269.01,-108.13 -282.10,-129.29 -284.61,-153.89C-286.67,-174.03 -279.40,-192.98 -261.37,-194.82C-239.32,-197.08 -226.85,-175.64 -224.36,-151.26C-222.39,-131.97 -228.94,-112.23 -247.17,-110.37ZM-182.60,-111.61L-139.77,-115.99L-140.12,-119.38L-155.72,-123.14L-162.54,-189.93C-157.45,-196.66 -146.96,-200.95 -139.11,-201.75C-125.76,-203.11 -115.65,-196.43 -114.17,-182.02L-108.65,-127.95L-123.16,-121.11L-122.81,-117.72L-79.99,-122.10L-80.33,-125.49L-94.23,-129.43L-100.60,-191.76C-102.38,-209.14 -115.61,-217.00 -132.57,-215.27C-144.44,-214.06 -153.06,-208.25 -162.58,-196.56L-163.43,-196.48L-166.49,-211.80L-168.19,-211.63L-192.08,-200.19L-191.85,-197.86L-177.33,-192.06L-170.13,-121.67L-182.95,-115.00ZM-16.38,-126.46C0.37,-128.17 12.40,-138.40 17.61,-150.28L17.37,-152.62L16.73,-152.55C8.67,-145.51 -1.18,-141.29 -11.15,-140.28C-37.23,-137.61 -50.09,-154.50 -52.37,-176.77C-54.92,-201.78 -44.67,-216.76 -27.50,-218.51C-17.53,-219.53 -10.68,-215.30 -4.89,-209.04L1.14,-202.37L2.42,-202.50L9.02,-209.18C10.58,-210.62 10.88,-211.94 10.73,-213.42C10.51,-215.54 8.60,-217.49 5.32,-220.15C-0.71,-224.68 -11.93,-227.60 -23.17,-226.45C-50.73,-223.64 -69.02,-199.27 -65.88,-168.53C-63.06,-140.97 -44.57,-123.58 -16.38,-126.46ZM39.17,-134.28L80.93,-138.55L80.59,-141.94L66.05,-145.81L50.69,-296.13L48.99,-295.96L23.31,-285.19L23.53,-283.07L38.16,-276.21L51.64,-144.34L38.82,-137.67ZM139.24,-142.37C150.69,-143.54 159.12,-149.11 168.64,-160.79L169.48,-160.88L170.83,-147.74L200.30,-150.75L199.95,-154.14L184.38,-157.69L175.49,-244.62L145.18,-241.52L145.52,-238.13L161.97,-234.45L168.79,-167.67C163.70,-160.93 153.42,-156.67 145.79,-155.89C132.64,-154.54 122.75,-161.25 121.27,-175.66L114.86,-238.42L86.45,-235.51L86.79,-232.12L101.33,-228.25L107.70,-165.92C109.48,-148.53 122.49,-140.65 139.24,-142.37ZM249.07,-153.59C265.60,-155.28 280.38,-167.93 278.64,-184.89C276.76,-203.34 264.81,-207.04 249.53,-211.91C235.36,-216.46 228.35,-220.03 227.35,-229.78C226.40,-239.11 231.94,-245.67 242.12,-246.71C249.33,-247.45 256.46,-244.75 261.38,-236.47L267.74,-226.62L270.49,-226.91L268.20,-249.38C260.15,-252.63 251.60,-254.54 241.00,-253.45C226.58,-251.98 213.61,-238.44 215.11,-223.82C216.58,-209.40 225.10,-203.63 241.46,-198.66C257.40,-193.65 265.21,-190.59 266.40,-178.93C267.48,-168.33 261.12,-161.46 248.82,-160.21C237.79,-159.08 230.55,-162.84 226.13,-170.53L219.72,-180.80L216.97,-180.52L219.33,-157.41C228.92,-153.67 237.19,-152.38 249.07,-153.59ZM313.96,-290.05C320.32,-290.70 324.29,-295.82 323.66,-301.96C323.01,-308.33 318.11,-312.32 311.75,-311.67C305.60,-311.04 301.39,-306.11 302.04,-299.75C302.67,-293.61 307.81,-289.42 313.96,-290.05ZM308.00,-161.76L349.77,-166.03L349.42,-169.42L334.89,-173.29L325.81,-262.12L324.11,-261.95L298.43,-251.18L298.65,-249.06L313.28,-242.20L320.47,-171.81L307.66,-165.15ZM417.19,-170.78C444.12,-173.53 460.38,-196.83 457.47,-225.24C454.57,-253.65 433.94,-273.17 407.01,-270.42C380.08,-267.67 363.83,-244.37 366.73,-215.96C369.63,-187.55 390.27,-168.02 417.19,-170.78ZM419.40,-178.50C397.57,-176.27 384.48,-197.42 381.97,-222.02C379.91,-242.16 387.18,-261.11 405.20,-262.95C427.25,-265.21 439.73,-243.77 442.22,-219.39C444.19,-200.10 437.64,-180.36 419.40,-178.50ZM483.97,-179.74L526.80,-184.12L526.46,-187.51L510.86,-191.28L504.03,-258.06C509.13,-264.79 519.62,-269.08 527.46,-269.88C540.82,-271.25 550.93,-264.57 552.40,-250.15L557.93,-196.09L543.42,-189.25L543.76,-185.85L586.59,-190.23L586.24,-193.62L572.34,-197.56L565.97,-259.89C564.20,-277.28 550.97,-285.14 534.01,-283.40C522.13,-282.19 513.52,-276.38 504.00,-264.70L503.15,-264.61L500.08,-279.94L498.39,-279.76L474.49,-268.32L474.73,-265.99L489.25,-260.19L496.44,-189.80L483.63,-183.14Z" fill="#ffffff" stroke="#000000"/>
    <path d="M-659.64,-41.98L-616.96,-47.44L-617.50,-51.63L-636.16,-54.55L-625.30,-97.62L-573.63,-104.23L-552.09,-65.53L-569.38,-57.79L-568.85,-53.60L-520.11,-59.84L-520.64,-64.03L-534.73,-67.75L-604.23,-190.47L-611.55,-189.53L-648.47,-52.76L-660.17,-46.16ZM-622.79,-107.93L-608.08,-165.73L-578.86,-113.55ZM-377.59,-75.96C-354.79,-78.88 -344.02,-84.51 -332.46,-92.16L-334.52,-124.85L-338.28,-124.37L-347.55,-98.73C-354.83,-92.48 -363.47,-86.91 -377.69,-85.09C-407.61,-81.26 -434.25,-103.36 -439.42,-143.74C-443.70,-177.21 -423.96,-205.68 -392.37,-209.72C-381.70,-211.09 -373.51,-208.52 -361.85,-202.15L-347.78,-178.64L-343.81,-179.15L-349.12,-213.98C-361.32,-217.95 -372.16,-221.24 -392.45,-218.64C-431.57,-213.63 -459.84,-175.36 -454.62,-134.56C-449.66,-95.86 -418.80,-70.68 -377.59,-75.96ZM-254.58,-91.71C-228.01,-95.11 -212.52,-118.57 -216.11,-146.60C-219.70,-174.63 -240.60,-193.43 -267.17,-190.03C-293.74,-186.63 -309.23,-163.17 -305.64,-135.14C-302.05,-107.10 -281.15,-88.31 -254.58,-91.71ZM-252.59,-99.40C-274.14,-96.64 -287.62,-117.24 -290.72,-141.51C-293.27,-161.38 -286.55,-180.32 -268.77,-182.59C-247.01,-185.38 -234.13,-164.49 -231.05,-140.43C-228.62,-121.40 -234.60,-101.71 -252.59,-99.40ZM-188.74,-102.26L-146.49,-107.67L-146.92,-111.02L-162.44,-114.35L-170.87,-180.24C-166.00,-187.03 -155.74,-191.54 -148.00,-192.53C-134.82,-194.21 -124.65,-187.86 -122.83,-173.64L-116.00,-120.29L-130.18,-113.16L-129.75,-109.81L-87.50,-115.22L-87.92,-118.57L-101.77,-122.11L-109.65,-183.61C-111.84,-200.77 -125.13,-208.21 -141.86,-206.07C-153.58,-204.57 -161.96,-198.61 -171.08,-186.81L-171.91,-186.70L-175.33,-201.78L-177.01,-201.57L-200.36,-189.65L-200.06,-187.35L-185.55,-181.98L-176.66,-112.53L-189.17,-105.61ZM-24.68,-121.14C-8.15,-123.25 3.48,-133.67 8.34,-145.56L8.05,-147.86L7.42,-147.78C-0.38,-140.62 -10.02,-136.20 -19.85,-134.94C-45.59,-131.64 -58.74,-148.03 -61.55,-170.00C-64.71,-194.68 -54.95,-209.75 -38.00,-211.92C-28.17,-213.18 -21.28,-209.17 -15.40,-203.12L-9.26,-196.68L-8.00,-196.84L-1.64,-203.61C-0.13,-205.08 0.13,-206.39 -0.06,-207.85C-0.33,-209.94 -2.27,-211.82 -5.57,-214.37C-11.65,-218.70 -22.83,-221.31 -33.92,-219.89C-61.11,-216.41 -78.59,-191.84 -74.71,-161.51C-71.23,-134.31 -52.50,-117.58 -24.68,-121.14ZM30.07,-130.27L71.28,-135.55L70.85,-138.90L56.38,-142.36L37.39,-290.68L35.72,-290.46L10.59,-279.16L10.85,-277.07L25.49,-270.65L42.15,-140.54L29.64,-133.62ZM128.87,-140.79C140.16,-142.24 148.36,-147.97 157.48,-159.77L158.32,-159.87L159.98,-146.90L189.06,-150.63L188.63,-153.97L173.13,-157.09L162.15,-242.86L132.24,-239.03L132.67,-235.68L149.03,-232.46L157.46,-166.57C152.59,-159.78 142.53,-155.30 135.00,-154.34C122.03,-152.68 112.07,-159.06 110.25,-173.28L102.32,-235.20L74.29,-231.61L74.72,-228.27L89.20,-224.80L97.07,-163.30C99.27,-146.15 112.34,-138.68 128.87,-140.79ZM237.23,-154.67C253.55,-156.76 267.84,-169.64 265.70,-186.38C263.37,-204.58 251.46,-207.94 236.22,-212.37C222.08,-216.51 215.06,-219.87 213.83,-229.49C212.65,-238.69 217.97,-245.33 228.01,-246.61C235.12,-247.52 242.25,-245.03 247.32,-236.97L253.86,-227.39L256.58,-227.73L253.74,-249.91C245.70,-252.92 237.20,-254.59 226.74,-253.25C212.51,-251.43 200.02,-237.72 201.87,-223.28C203.69,-209.06 212.26,-203.56 228.57,-199.06C244.46,-194.50 252.27,-191.67 253.74,-180.17C255.08,-169.71 248.95,-162.76 236.82,-161.21C225.94,-159.81 218.68,-163.35 214.11,-170.84L207.51,-180.84L204.80,-180.49L207.71,-157.69C217.30,-154.24 225.52,-153.17 237.23,-154.67ZM297.98,-291.29C304.26,-292.10 308.06,-297.26 307.29,-303.33C306.48,-309.60 301.53,-313.43 295.25,-312.63C289.19,-311.85 285.15,-306.87 285.95,-300.60C286.73,-294.53 291.92,-290.52 297.98,-291.29ZM295.33,-164.23L336.54,-169.51L336.11,-172.85L321.63,-176.32L310.41,-263.97L308.74,-263.75L283.61,-252.46L283.88,-250.36L298.52,-243.95L307.41,-174.49L294.90,-167.58ZM403.12,-175.90C429.69,-179.30 445.18,-202.76 441.59,-230.79C438.01,-258.83 417.10,-277.62 390.53,-274.22C363.97,-270.82 348.47,-247.36 352.06,-219.33C355.65,-191.30 376.55,-172.50 403.12,-175.90ZM405.11,-183.60C383.56,-180.84 370.08,-201.44 366.98,-225.71C364.43,-245.58 371.15,-264.51 388.93,-266.79C410.69,-269.57 423.57,-248.69 426.65,-224.63C429.09,-205.59 423.10,-185.90 405.11,-183.60ZM468.96,-186.46L511.21,-191.87L510.79,-195.21L495.26,-198.54L486.83,-264.44C491.70,-271.23 501.97,-275.73 509.71,-276.72C522.89,-278.41 533.05,-272.06 534.88,-257.83L541.70,-204.49L527.52,-197.36L527.95,-194.01L570.21,-199.42L569.78,-202.77L555.93,-206.31L548.06,-267.81C545.86,-284.97 532.58,-292.41 515.84,-290.26C504.13,-288.77 495.75,-282.80 486.63,-271.00L485.79,-270.90L482.37,-285.98L480.70,-285.77L457.34,-273.85L457.64,-271.55L472.15,-266.17L481.04,-196.72L468.53,-189.80Z" fill="#ffffff" stroke="#000000"/>
    <path d="M-658.69,-21.26L-616.61,-27.74L-617.25,-31.86L-635.78,-34.29L-626.12,-77.16L-575.18,-85.00L-552.90,-47.26L-569.81,-39.17L-569.17,-35.04L-521.12,-42.44L-521.75,-46.57L-535.78,-49.90L-607.62,-169.53L-614.84,-168.42L-647.91,-32.21L-659.32,-25.38ZM-623.90,-87.42L-610.80,-144.97L-580.59,-94.09ZM-380.55,-61.98C-358.07,-65.44 -347.57,-71.28 -336.32,-79.13L-339.18,-111.42L-342.89,-110.85L-351.41,-85.26C-358.45,-78.89 -366.86,-73.16 -380.88,-71.01C-410.38,-66.46 -437.29,-87.66 -443.42,-127.46C-448.50,-160.46 -429.69,-189.12 -398.54,-193.91C-388.03,-195.53 -379.85,-193.20 -368.16,-187.19L-353.66,-164.30L-349.74,-164.90L-355.87,-199.22C-368.04,-202.83 -378.84,-205.82 -398.85,-202.73C-437.42,-196.80 -464.41,-158.22 -458.22,-118.00C-452.34,-79.85 -421.18,-55.72 -380.55,-61.98ZM-259.28,-80.65C-233.08,-84.69 -218.35,-108.28 -222.60,-135.92C-226.86,-163.55 -248.01,-181.62 -274.20,-177.59C-300.40,-173.56 -315.13,-149.96 -310.88,-122.32C-306.62,-94.69 -285.47,-76.62 -259.28,-80.65ZM-257.50,-88.32C-278.74,-85.04 -292.60,-105.08 -296.28,-129.01C-299.30,-148.60 -293.13,-167.50 -275.60,-170.20C-254.15,-173.50 -240.88,-153.16 -237.23,-129.44C-234.34,-110.67 -239.76,-91.05 -257.50,-88.32ZM-194.42,-92.75L-152.76,-99.17L-153.26,-102.47L-168.70,-105.37L-178.71,-170.34C-174.06,-177.17 -164.02,-181.89 -156.39,-183.06C-143.39,-185.06 -133.17,-179.04 -131.01,-165.01L-122.92,-112.42L-136.76,-105.01L-136.26,-101.71L-94.59,-108.12L-95.10,-111.42L-108.89,-114.58L-118.23,-175.22C-120.83,-192.13 -134.16,-199.15 -150.66,-196.61C-162.21,-194.84 -170.35,-188.73 -179.07,-176.83L-179.90,-176.70L-183.66,-191.53L-185.31,-191.28L-208.11,-178.90L-207.76,-176.63L-193.27,-171.68L-182.73,-103.21L-194.93,-96.05ZM-32.61,-115.56C-16.31,-118.07 -5.07,-128.67 -0.56,-140.55L-0.91,-142.82L-1.53,-142.72C-9.07,-135.44 -18.49,-130.82 -28.18,-129.33C-53.55,-125.42 -66.98,-141.30 -70.31,-162.96C-74.06,-187.30 -64.78,-202.45 -48.07,-205.02C-38.38,-206.51 -31.46,-202.72 -25.50,-196.88L-19.26,-190.67L-18.02,-190.86L-11.90,-197.71C-10.44,-199.20 -10.22,-200.50 -10.44,-201.95C-10.76,-204.01 -12.73,-205.82 -16.06,-208.26C-22.18,-212.39 -33.30,-214.69 -44.24,-213.00C-71.05,-208.87 -87.72,-184.14 -83.11,-154.23C-78.99,-127.42 -60.04,-111.33 -32.61,-115.56ZM21.32,-125.97L61.95,-132.23L61.44,-135.53L47.03,-138.59L24.52,-284.82L22.87,-284.57L-1.71,-272.76L-1.39,-270.70L13.25,-264.72L33.01,-136.43L20.81,-129.27ZM118.78,-138.87C129.92,-140.58 137.88,-146.45 146.60,-158.36L147.43,-158.48L149.40,-145.69L178.07,-150.11L177.56,-153.41L162.15,-156.10L149.13,-240.67L119.64,-236.12L120.15,-232.82L136.41,-230.05L146.41,-165.08C141.77,-158.24 131.93,-153.56 124.50,-152.42C111.72,-150.45 101.70,-156.51 99.54,-170.53L90.14,-231.58L62.51,-227.33L63.01,-224.03L77.42,-220.97L86.76,-160.33C89.36,-143.42 102.48,-136.36 118.78,-138.87ZM225.62,-155.32C241.70,-157.80 255.52,-170.90 252.98,-187.40C250.22,-205.35 238.35,-208.38 223.16,-212.37C209.07,-216.11 202.05,-219.26 200.59,-228.74C199.19,-237.82 204.28,-244.51 214.18,-246.04C221.19,-247.12 228.30,-244.83 233.52,-236.98L240.23,-227.67L242.91,-228.08L239.55,-249.94C231.52,-252.72 223.06,-254.16 212.75,-252.57C198.73,-250.41 186.72,-236.53 188.91,-222.30C191.07,-208.27 199.68,-203.06 215.93,-199.01C231.77,-194.91 239.56,-192.30 241.30,-180.96C242.89,-170.65 237.01,-163.62 225.04,-161.78C214.32,-160.13 207.05,-163.44 202.34,-170.74L195.56,-180.46L192.88,-180.05L196.34,-157.57C205.91,-154.40 214.07,-153.54 225.62,-155.32ZM282.27,-291.99C288.46,-292.95 292.09,-298.15 291.17,-304.13C290.21,-310.32 285.22,-313.98 279.03,-313.03C273.05,-312.11 269.18,-307.08 270.13,-300.89C271.05,-294.91 276.29,-291.07 282.27,-291.99ZM282.84,-166.24L323.47,-172.50L322.96,-175.80L308.56,-178.86L295.25,-265.28L293.60,-265.02L269.03,-253.22L269.34,-251.15L283.99,-245.18L294.53,-176.70L282.33,-169.54ZM389.17,-180.51C415.36,-184.54 430.10,-208.13 425.84,-235.77C421.59,-263.41 400.44,-281.48 374.24,-277.44C348.05,-273.41 333.31,-249.81 337.57,-222.18C341.83,-194.54 362.98,-176.47 389.17,-180.51ZM390.95,-188.17C369.70,-184.90 355.85,-204.93 352.17,-228.86C349.15,-248.45 355.32,-267.35 372.85,-270.05C394.30,-273.35 407.56,-253.01 411.22,-229.30C414.11,-210.53 408.68,-190.90 390.95,-188.17ZM454.03,-192.60L495.69,-199.02L495.18,-202.32L479.74,-205.22L469.74,-270.19C474.39,-277.03 484.43,-281.74 492.06,-282.92C505.05,-284.92 515.27,-278.89 517.43,-264.87L525.53,-212.27L511.68,-204.86L512.19,-201.56L553.85,-207.98L553.34,-211.28L539.56,-214.43L530.22,-275.07C527.61,-291.98 514.29,-299.01 497.79,-296.47C486.24,-294.69 478.10,-288.58 469.37,-276.68L468.55,-276.55L464.79,-291.39L463.14,-291.13L440.34,-278.75L440.69,-276.48L455.18,-271.54L465.72,-203.06L453.52,-195.90Z" fill="#ffffff" stroke="#000000"/>
    <path d="M-657.00,-0.70L-615.55,-8.17L-616.28,-12.23L-634.67,-14.16L-626.20,-56.81L-576.01,-65.85L-553.03,-29.08L-569.55,-20.65L-568.82,-16.59L-521.47,-25.12L-522.20,-29.18L-536.16,-32.12L-610.23,-148.63L-617.34,-147.35L-646.62,-11.80L-657.73,-4.76ZM-624.26,-67.01L-612.76,-124.26L-581.59,-74.70ZM-382.94,-47.98C-360.79,-51.97 -350.55,-58.01 -339.62,-66.06L-343.27,-97.92L-346.92,-97.26L-354.70,-71.73C-361.51,-65.26 -369.68,-59.39 -383.50,-56.90C-412.55,-51.66 -439.70,-71.94 -446.77,-111.16C-452.62,-143.67 -434.74,-172.49 -404.06,-178.01C-393.70,-179.88 -385.56,-177.78 -373.84,-172.13L-358.92,-149.85L-355.06,-150.55L-361.98,-184.34C-374.11,-187.61 -384.87,-190.28 -404.58,-186.73C-442.58,-179.89 -468.31,-141.05 -461.17,-101.43C-454.40,-63.84 -422.97,-40.76 -382.94,-47.98ZM-263.46,-69.50C-237.66,-74.15 -223.68,-97.86 -228.58,-125.09C-233.49,-152.31 -254.86,-169.65 -280.67,-165.00C-306.47,-160.35 -320.45,-136.64 -315.55,-109.42C-310.64,-82.19 -289.27,-64.85 -263.46,-69.50ZM-261.90,-77.13C-282.83,-73.36 -297.03,-92.82 -301.28,-116.39C-304.76,-135.70 -299.13,-154.54 -281.86,-157.65C-260.73,-161.46 -247.10,-141.68 -242.89,-118.31C-239.56,-99.82 -244.43,-80.27 -261.90,-77.13ZM-199.62,-83.10L-158.58,-90.50L-159.16,-93.75L-174.50,-96.23L-186.04,-160.23C-181.61,-167.11 -171.80,-172.03 -164.28,-173.38C-151.48,-175.69 -141.22,-169.98 -138.73,-156.17L-129.40,-104.35L-142.91,-96.68L-142.32,-93.43L-101.28,-100.82L-101.86,-104.07L-115.58,-106.84L-126.34,-166.58C-129.34,-183.24 -142.70,-189.86 -158.96,-186.93C-170.34,-184.88 -178.23,-178.63 -186.56,-166.64L-187.37,-166.49L-191.47,-181.07L-193.09,-180.78L-215.33,-167.96L-214.93,-165.73L-200.48,-161.20L-188.32,-93.74L-200.21,-86.35ZM-40.16,-109.73C-24.11,-112.63 -13.25,-123.39 -9.09,-135.26L-9.50,-137.49L-10.11,-137.38C-17.38,-129.99 -26.58,-125.19 -36.13,-123.47C-61.12,-118.96 -74.80,-134.33 -78.64,-155.67C-82.96,-179.64 -74.17,-194.86 -57.71,-197.83C-48.16,-199.55 -41.22,-195.97 -35.17,-190.35L-28.85,-184.36L-27.63,-184.58L-21.75,-191.51C-20.34,-193.02 -20.15,-194.31 -20.41,-195.74C-20.78,-197.77 -22.77,-199.51 -26.12,-201.84C-32.29,-205.76 -43.34,-207.76 -54.11,-205.82C-80.53,-201.06 -96.39,-176.17 -91.09,-146.71C-86.33,-120.30 -67.18,-104.86 -40.16,-109.73ZM12.91,-121.39L52.94,-128.60L52.36,-131.86L38.03,-134.52L12.08,-278.58L10.45,-278.29L-13.56,-265.99L-13.19,-263.96L1.44,-258.41L24.21,-132.03L12.33,-124.64ZM108.98,-136.60C119.95,-138.58 127.68,-144.59 136.01,-156.58L136.82,-156.72L139.09,-144.13L167.34,-149.21L166.75,-152.47L151.45,-154.74L136.44,-238.05L107.38,-232.82L107.97,-229.56L124.12,-227.23L135.65,-163.23C131.23,-156.35 121.62,-151.47 114.30,-150.15C101.71,-147.88 91.65,-153.62 89.16,-167.44L78.33,-227.58L51.10,-222.68L51.68,-219.42L66.01,-216.76L76.77,-157.02C79.77,-140.36 92.93,-133.71 108.98,-136.60ZM214.23,-155.57C230.08,-158.42 243.42,-171.73 240.49,-187.99C237.30,-205.67 225.49,-208.36 210.37,-211.93C196.34,-215.28 189.31,-218.21 187.63,-227.55C186.02,-236.49 190.88,-243.24 200.64,-245.00C207.55,-246.25 214.63,-244.17 220.00,-236.53L226.87,-227.49L229.51,-227.97L225.63,-249.50C217.62,-252.05 209.22,-253.26 199.06,-251.43C185.24,-248.94 173.72,-234.91 176.24,-220.89C178.73,-207.07 187.38,-202.13 203.55,-198.54C219.32,-194.87 227.09,-192.50 229.10,-181.32C230.93,-171.16 225.29,-164.06 213.50,-161.94C202.94,-160.03 195.67,-163.13 190.82,-170.23L183.88,-179.68L181.23,-179.20L185.23,-157.05C194.77,-154.16 202.85,-153.52 214.23,-155.57ZM266.82,-292.17C272.92,-293.27 276.38,-298.51 275.32,-304.40C274.22,-310.50 269.18,-313.99 263.09,-312.90C257.20,-311.83 253.49,-306.76 254.59,-300.67C255.65,-294.77 260.93,-291.11 266.82,-292.17ZM270.56,-167.81L310.59,-175.02L310.00,-178.27L295.67,-180.94L280.34,-266.07L278.71,-265.78L254.70,-253.48L255.07,-251.45L269.70,-245.91L281.86,-178.45L269.97,-171.06ZM375.36,-184.60C401.17,-189.25 415.15,-212.95 410.24,-240.18C405.34,-267.41 383.96,-284.74 358.16,-280.09C332.35,-275.45 318.37,-251.74 323.28,-224.51C328.18,-197.28 349.56,-179.95 375.36,-184.60ZM376.93,-192.22C356.00,-188.45 341.79,-207.92 337.54,-231.49C334.07,-250.79 339.69,-269.64 356.96,-272.75C378.09,-276.55 391.73,-256.77 395.94,-233.41C399.27,-214.92 394.40,-195.37 376.93,-192.22ZM439.20,-198.20L480.25,-205.59L479.66,-208.84L464.32,-211.32L452.79,-275.33C457.21,-282.21 467.03,-287.12 474.54,-288.48C487.35,-290.78 497.60,-285.08 500.09,-271.26L509.43,-219.45L495.92,-211.77L496.50,-208.52L537.55,-215.91L536.96,-219.16L523.24,-221.94L512.48,-281.68C509.48,-298.34 496.12,-304.95 479.87,-302.02C468.49,-299.97 460.59,-293.73 452.26,-281.74L451.45,-281.59L447.36,-296.17L445.73,-295.87L423.50,-283.06L423.90,-280.82L438.35,-276.29L450.50,-208.83L438.62,-201.45Z" fill="#ffffff" stroke="#000000"/>
    <path d="M-654.59,19.68L-613.79,11.25L-614.61,7.25L-632.85,5.80L-625.54,-36.58L-576.14,-46.79L-552.48,-11.01L-568.61,-2.26L-567.78,1.74L-521.18,-7.88L-522.00,-11.88L-535.88,-14.44L-612.06,-127.80L-619.06,-126.35L-644.61,8.44L-655.42,15.68ZM-623.89,-46.73L-613.95,-103.63L-581.88,-55.41ZM-384.75,-33.98C-362.95,-38.48 -352.98,-44.72 -342.37,-52.95L-346.78,-84.37L-350.38,-83.63L-357.43,-58.19C-364.00,-51.62 -371.93,-45.60 -385.53,-42.79C-414.13,-36.88 -441.49,-56.25 -449.47,-94.86C-456.08,-126.86 -439.12,-155.81 -408.92,-162.05C-398.71,-164.15 -390.61,-162.28 -378.88,-156.99L-363.56,-135.33L-359.76,-136.12L-367.46,-169.36C-379.54,-172.28 -390.25,-174.66 -409.65,-170.65C-447.05,-162.93 -471.52,-123.88 -463.46,-84.87C-455.82,-47.87 -424.16,-25.84 -384.75,-33.98ZM-267.14,-58.28C-241.74,-63.52 -228.51,-87.32 -234.05,-114.12C-239.59,-140.93 -261.16,-157.53 -286.56,-152.28C-311.97,-147.04 -325.19,-123.24 -319.66,-96.44C-314.12,-69.64 -292.55,-53.03 -267.14,-58.28ZM-265.79,-65.86C-286.39,-61.60 -300.93,-80.49 -305.72,-103.70C-309.65,-122.70 -304.56,-141.48 -287.56,-144.99C-266.76,-149.29 -252.78,-130.07 -248.03,-107.06C-244.27,-88.86 -248.59,-69.41 -265.79,-65.86ZM-204.35,-73.33L-163.95,-81.68L-164.61,-84.88L-179.84,-86.95L-192.86,-149.95C-188.66,-156.87 -179.08,-161.98 -171.68,-163.51C-159.07,-166.11 -148.79,-160.73 -145.98,-147.12L-135.44,-96.12L-148.61,-88.19L-147.95,-84.99L-107.54,-93.33L-108.20,-96.53L-121.84,-98.93L-133.99,-157.74C-137.38,-174.14 -150.75,-180.34 -166.75,-177.03C-177.96,-174.72 -185.61,-168.34 -193.54,-156.28L-194.34,-156.11L-198.76,-170.42L-200.36,-170.09L-222.02,-156.86L-221.57,-154.66L-207.16,-150.54L-193.44,-84.14L-205.01,-76.53ZM-47.33,-103.69C-31.52,-106.95 -21.06,-117.87 -17.25,-129.71L-17.70,-131.91L-18.30,-131.79C-25.31,-124.29 -34.29,-119.31 -43.69,-117.37C-68.29,-112.29 -82.20,-127.14 -86.54,-148.14C-91.42,-171.74 -83.10,-187.02 -66.90,-190.36C-57.50,-192.31 -50.55,-188.95 -44.43,-183.54L-38.02,-177.77L-36.82,-178.02L-31.18,-185.02C-29.82,-186.55 -29.67,-187.84 -29.96,-189.24C-30.37,-191.24 -32.39,-192.91 -35.77,-195.13C-41.96,-198.85 -52.94,-200.55 -63.55,-198.36C-89.55,-192.98 -104.61,-167.97 -98.62,-138.97C-93.25,-112.97 -73.93,-98.19 -47.33,-103.69ZM4.87,-116.55L44.27,-124.69L43.61,-127.89L29.37,-130.17L0.08,-271.98L-1.52,-271.65L-24.95,-258.88L-24.54,-256.88L-9.93,-251.77L15.77,-127.36L4.20,-119.75ZM99.49,-134.02C110.29,-136.25 117.78,-142.38 125.71,-154.45L126.51,-154.62L129.08,-142.21L156.88,-147.96L156.22,-151.16L141.02,-153.02L124.08,-235.03L95.48,-229.12L96.14,-225.92L112.18,-224.02L125.19,-161.02C120.99,-154.10 111.61,-149.03 104.41,-147.55C92.01,-144.98 81.92,-150.41 79.11,-164.01L66.88,-223.21L40.08,-217.68L40.74,-214.48L54.97,-212.20L67.12,-153.40C70.51,-137.00 83.69,-130.75 99.49,-134.02ZM203.10,-155.42C218.70,-158.64 231.55,-172.14 228.24,-188.14C224.65,-205.55 212.90,-207.91 197.86,-211.06C183.90,-214.02 176.87,-216.74 174.97,-225.94C173.15,-234.74 177.80,-241.54 187.40,-243.52C194.20,-244.93 201.26,-243.05 206.75,-235.63L213.78,-226.87L216.38,-227.40L212.00,-248.61C204.01,-250.92 195.68,-251.91 185.67,-249.84C172.07,-247.03 161.03,-232.86 163.88,-219.06C166.69,-205.46 175.37,-200.79 191.45,-197.65C207.13,-194.42 214.88,-192.27 217.15,-181.26C219.22,-171.26 213.82,-164.10 202.21,-161.70C191.81,-159.55 184.55,-162.43 179.57,-169.33L172.47,-178.50L169.87,-177.96L174.37,-156.16C183.88,-153.54 191.89,-153.11 203.10,-155.42ZM251.66,-291.84C257.66,-293.08 260.95,-298.34 259.75,-304.14C258.52,-310.14 253.45,-313.48 247.45,-312.24C241.65,-311.04 238.11,-305.93 239.35,-299.93C240.55,-294.13 245.86,-290.64 251.66,-291.84ZM258.49,-168.95L297.89,-177.09L297.23,-180.29L282.99,-182.56L265.68,-266.37L264.08,-266.04L240.65,-253.27L241.06,-251.27L255.68,-246.16L269.39,-179.75L257.83,-172.15ZM361.71,-188.19C387.11,-193.43 400.34,-217.23 394.80,-244.03C389.26,-270.84 367.69,-287.44 342.29,-282.19C316.89,-276.95 303.66,-253.15 309.19,-226.35C314.73,-199.55 336.31,-182.94 361.71,-188.19ZM363.06,-195.77C342.46,-191.51 327.92,-210.40 323.13,-233.61C319.20,-252.61 324.29,-271.39 341.29,-274.90C362.09,-279.20 376.07,-259.98 380.83,-236.98C384.59,-218.77 380.26,-199.32 363.06,-195.77ZM424.50,-203.24L464.90,-211.59L464.24,-214.79L449.01,-216.86L435.99,-279.86C440.19,-286.78 449.78,-291.89 457.18,-293.42C469.78,-296.02 480.07,-290.64 482.88,-277.04L493.41,-226.03L480.24,-218.10L480.90,-214.90L521.31,-223.24L520.65,-226.44L507.01,-228.84L494.86,-287.65C491.48,-304.05 478.10,-310.25 462.10,-306.95C450.90,-304.63 443.25,-298.25 435.31,-286.19L434.51,-286.02L430.09,-300.33L428.49,-300.00L406.83,-286.77L407.28,-284.57L421.69,-280.45L435.41,-214.05L423.84,-206.44Z" fill="#ffffff" stroke="#000000"/>
    <path d="M-651.47,39.84L-611.33,30.48L-612.25,26.55L-630.32,25.57L-624.16,-16.52L-575.57,-27.86L-551.27,6.93L-567.00,15.99L-566.08,19.92L-520.24,9.23L-521.16,5.30L-534.94,3.12L-613.13,-107.05L-620.01,-105.44L-641.88,28.48L-652.38,35.91ZM-622.78,-26.59L-614.39,-83.11L-581.46,-36.23ZM-386.00,-20.01C-364.56,-25.01 -354.85,-31.43 -344.57,-39.84L-349.72,-70.79L-353.26,-69.97L-359.59,-44.63C-365.92,-37.97 -373.61,-31.82 -386.99,-28.70C-415.12,-22.14 -442.67,-40.61 -451.52,-78.58C-458.87,-110.05 -442.83,-139.10 -413.12,-146.03C-403.08,-148.37 -395.02,-146.73 -383.29,-141.79L-367.60,-120.76L-363.86,-121.64L-372.31,-154.31C-384.33,-156.90 -394.98,-158.98 -414.06,-154.53C-450.85,-145.94 -474.06,-106.72 -465.11,-68.35C-456.62,-31.96 -424.76,-10.97 -386.00,-20.01ZM-270.32,-47.00C-245.33,-52.83 -232.85,-76.69 -239.00,-103.05C-245.15,-129.41 -266.90,-145.29 -291.89,-139.46C-316.88,-133.64 -329.36,-109.77 -323.21,-83.41C-317.06,-57.05 -295.30,-41.17 -270.32,-47.00ZM-269.17,-54.53C-289.44,-49.80 -304.29,-68.12 -309.61,-90.94C-313.97,-109.63 -309.41,-128.32 -292.69,-132.22C-272.23,-137.00 -257.92,-118.35 -252.64,-95.72C-248.47,-77.82 -252.25,-58.47 -269.17,-54.53ZM-208.61,-63.47L-168.87,-72.74L-169.60,-75.89L-184.72,-77.55L-199.18,-139.52C-195.19,-146.46 -185.85,-151.75 -178.57,-153.45C-166.18,-156.34 -155.87,-151.28 -152.75,-137.90L-141.04,-87.73L-153.86,-79.56L-153.13,-76.41L-113.39,-85.68L-114.12,-88.83L-127.66,-90.86L-141.16,-148.70C-144.92,-164.83 -158.31,-170.63 -174.04,-166.96C-185.06,-164.38 -192.47,-157.89 -200.01,-145.75L-200.79,-145.57L-205.52,-159.61L-207.10,-159.24L-228.19,-145.61L-227.68,-143.45L-213.33,-139.74L-198.10,-74.43L-209.34,-66.62ZM-54.10,-97.44C-38.56,-101.06 -28.49,-112.12 -25.02,-123.93L-25.52,-126.09L-26.11,-125.95C-32.85,-118.37 -41.60,-113.21 -50.85,-111.06C-75.05,-105.41 -89.18,-119.75 -94.00,-140.40C-99.42,-163.62 -91.58,-178.93 -75.64,-182.65C-66.40,-184.81 -59.44,-181.66 -53.25,-176.46L-46.77,-170.92L-45.59,-171.20L-40.18,-178.27C-38.89,-179.81 -38.77,-181.09 -39.09,-182.46C-39.55,-184.43 -41.58,-186.03 -44.98,-188.14C-51.19,-191.67 -62.10,-193.07 -72.53,-190.64C-98.10,-184.67 -112.37,-159.56 -105.71,-131.03C-99.75,-105.46 -80.27,-91.33 -54.10,-97.44ZM-2.82,-111.47L35.94,-120.52L35.20,-123.66L21.07,-125.55L-11.47,-265.04L-13.04,-264.67L-35.89,-251.46L-35.43,-249.49L-20.86,-244.80L7.69,-122.43L-3.56,-114.62ZM90.30,-131.12C100.92,-133.60 108.18,-139.86 115.72,-151.99L116.51,-152.17L119.35,-139.97L146.70,-146.35L145.96,-149.50L130.90,-150.97L112.08,-231.63L83.94,-225.06L84.68,-221.92L100.58,-220.44L115.04,-158.47C111.06,-151.52 101.91,-146.28 94.83,-144.63C82.63,-141.78 72.52,-146.89 69.40,-160.27L55.81,-218.50L29.45,-212.35L30.18,-209.20L44.31,-207.31L57.81,-149.47C61.57,-133.34 74.76,-127.50 90.30,-131.12ZM192.21,-154.90C207.56,-158.48 219.93,-172.15 216.25,-187.89C212.26,-205.00 200.58,-207.05 185.63,-209.79C171.75,-212.36 164.74,-214.87 162.63,-223.92C160.61,-232.58 165.03,-239.42 174.47,-241.62C181.16,-243.18 188.19,-241.50 193.81,-234.31L200.98,-225.81L203.53,-226.41L198.67,-247.26C190.71,-249.35 182.44,-250.12 172.61,-247.82C159.23,-244.70 148.66,-230.41 151.83,-216.84C154.95,-203.46 163.65,-199.06 179.64,-196.36C195.22,-193.56 202.94,-191.63 205.46,-180.81C207.75,-170.97 202.59,-163.75 191.18,-161.09C180.95,-158.70 173.69,-161.36 168.60,-168.06L161.34,-176.95L158.79,-176.35L163.79,-154.90C173.26,-152.55 181.19,-152.33 192.21,-154.90ZM236.80,-291.01C242.70,-292.39 245.82,-297.68 244.49,-303.38C243.11,-309.29 238.02,-312.45 232.12,-311.08C226.41,-309.75 223.05,-304.60 224.42,-298.70C225.75,-293.00 231.09,-289.68 236.80,-291.01ZM246.64,-169.67L285.40,-178.71L284.66,-181.86L270.53,-183.75L251.30,-266.18L249.73,-265.81L226.88,-252.60L227.34,-250.63L241.92,-245.94L257.15,-180.63L245.91,-172.82ZM348.22,-191.29C373.21,-197.12 385.69,-220.98 379.54,-247.35C373.39,-273.71 351.64,-289.59 326.65,-283.76C301.67,-277.93 289.19,-254.07 295.34,-227.70C301.49,-201.34 323.24,-185.46 348.22,-191.29ZM349.37,-198.82C329.11,-194.09 314.26,-212.41 308.93,-235.23C304.57,-253.92 309.13,-272.62 325.85,-276.52C346.31,-281.29 360.62,-262.64 365.90,-240.02C370.08,-222.11 366.29,-202.77 349.37,-198.82ZM409.93,-207.76L449.68,-217.03L448.94,-220.18L433.83,-221.84L419.37,-283.81C423.35,-290.76 432.69,-296.05 439.97,-297.75C452.37,-300.64 462.68,-295.58 465.80,-282.20L477.50,-232.03L464.68,-223.85L465.41,-220.70L505.16,-229.98L504.42,-233.12L490.88,-235.15L477.39,-292.99C473.62,-309.12 460.24,-314.92 444.50,-311.25C433.48,-308.68 426.08,-302.18 418.54,-290.05L417.75,-289.87L413.02,-303.91L411.45,-303.54L390.36,-289.91L390.86,-287.74L405.21,-284.04L420.45,-218.72L409.20,-210.91Z" fill="#ffffff" stroke="#000000"/>
    <path d="M-647.64,59.77L-608.20,49.50L-609.20,45.64L-627.09,45.13L-622.07,3.36L-574.31,-9.07L-549.41,24.70L-564.73,34.06L-563.72,37.93L-518.67,26.20L-519.68,22.33L-533.36,20.53L-613.43,-86.43L-620.20,-84.67L-638.45,48.29L-648.65,55.90ZM-620.95,-6.64L-614.08,-62.72L-580.35,-17.21ZM-386.69,-6.09C-365.61,-11.58 -356.17,-18.16 -346.23,-26.74L-352.09,-57.21L-355.57,-56.31L-361.19,-31.10C-367.28,-24.35 -374.73,-18.08 -387.88,-14.66C-415.53,-7.46 -443.23,-25.03 -452.94,-62.34C-460.99,-93.28 -445.87,-122.41 -416.67,-130.01C-406.81,-132.57 -398.80,-131.15 -387.07,-126.56L-371.03,-106.17L-367.36,-107.12L-376.54,-139.21C-388.48,-141.47 -399.06,-143.26 -417.82,-138.38C-453.97,-128.97 -475.93,-89.60 -466.12,-51.89C-456.81,-16.12 -424.78,3.82 -386.69,-6.09ZM-272.99,-35.69C-248.43,-42.08 -236.70,-65.98 -243.44,-91.89C-250.18,-117.80 -272.09,-132.95 -296.65,-126.56C-321.20,-120.17 -332.94,-96.26 -326.20,-70.35C-319.45,-44.44 -297.55,-29.29 -272.99,-35.69ZM-272.05,-43.16C-291.96,-37.97 -307.11,-55.71 -312.95,-78.14C-317.73,-96.51 -313.69,-115.11 -297.26,-119.38C-277.15,-124.62 -262.53,-106.54 -256.74,-84.30C-252.16,-66.71 -255.42,-47.49 -272.05,-43.16ZM-212.39,-53.52L-173.34,-63.69L-174.14,-66.78L-189.13,-68.04L-204.98,-128.95C-201.22,-135.92 -192.11,-141.39 -184.96,-143.25C-172.78,-146.42 -162.46,-141.67 -159.04,-128.52L-146.20,-79.22L-158.67,-70.81L-157.87,-67.72L-118.81,-77.88L-119.61,-80.98L-133.05,-82.64L-147.85,-139.49C-151.98,-155.34 -165.36,-160.74 -180.83,-156.71C-191.65,-153.89 -198.81,-147.28 -205.96,-135.10L-206.74,-134.90L-211.76,-148.66L-213.31,-148.26L-233.82,-134.25L-233.26,-132.12L-218.99,-128.82L-202.28,-64.62L-213.20,-56.62ZM-60.49,-91.00C-45.22,-94.97 -35.54,-106.17 -32.40,-117.92L-32.96,-120.05L-33.54,-119.90C-40.00,-112.23 -48.53,-106.91 -57.62,-104.55C-81.40,-98.36 -95.73,-112.17 -101.02,-132.48C-106.96,-155.29 -99.59,-170.63 -83.93,-174.71C-74.84,-177.07 -67.89,-174.13 -61.64,-169.15L-55.09,-163.84L-53.93,-164.14L-48.77,-171.27C-47.52,-172.83 -47.44,-174.09 -47.79,-175.44C-48.29,-177.38 -50.34,-178.91 -53.75,-180.91C-59.99,-184.24 -70.81,-185.35 -81.05,-182.68C-106.19,-176.14 -119.66,-150.95 -112.36,-122.92C-105.82,-97.78 -86.21,-84.30 -60.49,-91.00ZM-10.14,-106.17L27.95,-116.08L27.14,-119.18L13.12,-120.69L-22.56,-257.78L-24.11,-257.38L-46.36,-243.74L-45.86,-241.80L-31.33,-237.54L-0.02,-117.27L-10.95,-109.26ZM81.43,-127.94C91.87,-130.66 98.89,-137.03 106.04,-149.21L106.81,-149.41L109.93,-137.42L136.81,-144.42L136.00,-147.51L121.07,-148.58L100.43,-227.86L72.78,-220.66L73.59,-217.57L89.35,-216.51L105.20,-155.60C101.44,-148.63 92.53,-143.22 85.57,-141.40C73.58,-138.28 63.45,-143.08 60.03,-156.23L45.13,-213.46L19.22,-206.72L20.03,-203.62L34.05,-202.11L48.84,-145.27C52.97,-129.41 66.16,-123.96 81.43,-127.94ZM181.59,-154.01C196.67,-157.94 208.56,-171.77 204.53,-187.24C200.15,-204.06 188.55,-205.79 173.70,-208.12C159.92,-210.31 152.92,-212.61 150.60,-221.51C148.39,-230.02 152.59,-236.89 161.87,-239.31C168.44,-241.02 175.43,-239.53 181.17,-232.56L188.47,-224.35L190.98,-225.00L185.65,-245.50C177.73,-247.36 169.54,-247.91 159.87,-245.39C146.72,-241.97 136.63,-227.58 140.11,-214.24C143.53,-201.09 152.24,-196.96 168.11,-194.69C183.60,-192.32 191.27,-190.60 194.04,-179.96C196.55,-170.29 191.63,-163.03 180.42,-160.11C170.36,-157.49 163.12,-159.94 157.92,-166.43L150.52,-175.03L148.00,-174.38L153.49,-153.30C162.91,-151.21 170.76,-151.19 181.59,-154.01ZM222.25,-289.71C228.05,-291.22 231.00,-296.53 229.54,-302.14C228.03,-307.94 222.91,-310.94 217.11,-309.43C211.51,-307.97 208.31,-302.80 209.82,-297.00C211.28,-291.39 216.64,-288.25 222.25,-289.71ZM235.03,-169.99L273.13,-179.90L272.32,-183.00L258.30,-184.51L237.21,-265.53L235.67,-265.12L213.41,-251.48L213.91,-249.55L228.44,-245.28L245.15,-181.09L234.23,-173.08ZM334.92,-193.92C359.48,-200.32 371.22,-224.22 364.47,-250.13C357.73,-276.04 335.82,-291.19 311.27,-284.80C286.71,-278.41 274.97,-254.50 281.72,-228.59C288.46,-202.68 310.37,-187.53 334.92,-193.92ZM335.87,-201.40C315.95,-196.21 300.81,-213.95 294.97,-236.38C290.19,-254.75 294.22,-273.35 310.66,-277.62C330.77,-282.86 345.38,-264.78 351.17,-242.54C355.75,-224.95 352.50,-205.72 335.87,-201.40ZM395.52,-211.76L434.58,-221.93L433.77,-225.02L418.79,-226.28L402.93,-287.19C406.69,-294.16 415.80,-299.62 422.95,-301.49C435.14,-304.66 445.46,-299.91 448.88,-286.76L461.71,-237.46L449.24,-229.05L450.05,-225.96L489.11,-236.12L488.30,-239.22L474.86,-240.88L460.06,-297.73C455.94,-313.58 442.56,-318.98 427.09,-314.95C416.26,-312.13 409.10,-305.52 401.95,-293.34L401.18,-293.13L396.15,-306.90L394.60,-306.49L374.10,-292.48L374.65,-290.36L388.93,-287.05L405.64,-222.86L394.72,-214.86Z" fill="#ffffff" stroke="#000000"/>
    <path d="M-903.12,492.38C-899.47,492.38 -895.14,489.80 -895.14,485.43C-895.14,481.55 -897.23,480.07 -901.83,477.86C-905.32,476.15 -906.96,474.98 -906.96,472.28C-906.96,469.92 -905.32,468.10 -902.70,468.10C-901.03,468.10 -899.89,468.59 -898.33,469.88L-896.66,474.06L-896.01,474.06L-896.39,468.14C-898.41,467.11 -900.19,466.54 -902.51,466.54C-906.27,466.54 -909.85,470.00 -909.85,473.34C-909.85,476.76 -907.95,478.21 -904.49,479.95C-900.50,481.93 -897.99,482.73 -897.99,486.15C-897.99,489.11 -899.78,490.86 -902.93,490.86C-904.64,490.86 -906.27,490.37 -908.10,488.92L-910.07,484.55L-910.72,484.55L-910.34,490.63C-908.02,491.81 -906.16,492.38 -903.12,492.38ZM-891.07,500.74L-883.40,500.74L-883.40,500.13L-886.10,499.18L-886.10,491.77C-884.99,492.15 -883.70,492.38 -882.37,492.38C-877.58,492.38 -873.67,488.85 -873.67,482.61C-873.67,477.60 -876.44,474.52 -880.24,474.52C-882.30,474.52 -884.01,475.20 -885.94,476.84L-886.17,476.84L-886.40,474.52L-886.70,474.52L-891.15,476.12L-891.15,476.53L-888.68,477.83L-888.68,499.18L-891.07,500.13ZM-881.92,476.61C-878.88,476.61 -876.18,478.74 -876.18,483.60C-876.18,488.88 -878.50,490.90 -881.19,490.90C-883.09,490.90 -884.58,490.44 -886.10,489.34L-886.10,478.05C-884.84,477.10 -883.40,476.61 -881.92,476.61ZM-861.89,492.38C-858.89,492.38 -856.57,490.78 -855.43,488.77L-855.43,488.35L-855.54,488.35C-857.10,489.45 -858.89,490.02 -860.71,490.02C-865.42,490.02 -867.40,486.79 -867.40,482.80C-867.40,482.69 -867.40,482.61 -867.40,482.50L-855.58,482.50L-855.43,482.35C-855.58,477.37 -857.98,474.52 -861.97,474.52C-866.22,474.52 -869.95,478.59 -869.95,484.02C-869.95,488.96 -866.98,492.38 -861.89,492.38ZM-862.54,475.85C-859.95,475.85 -858.51,477.60 -857.98,481.13L-867.29,481.13C-866.83,477.79 -864.97,475.85 -862.54,475.85ZM-843.57,492.38C-840.57,492.38 -838.25,490.78 -837.11,488.77L-837.11,488.35L-837.23,488.35C-838.79,489.45 -840.61,490.02 -842.40,490.02C-847.07,490.02 -849.05,486.79 -849.05,482.80C-849.05,478.32 -846.96,475.85 -843.88,475.85C-842.09,475.85 -840.95,476.72 -840.04,477.94L-839.09,479.23L-838.86,479.23L-837.57,478.17C-837.27,477.94 -837.19,477.71 -837.19,477.45C-837.19,477.07 -837.49,476.69 -838.03,476.15C-839.01,475.24 -840.95,474.52 -842.97,474.52C-847.91,474.52 -851.59,478.51 -851.59,484.02C-851.59,488.96 -848.63,492.38 -843.57,492.38ZM-827.65,492.38C-825.37,492.38 -823.97,491.16 -823.47,490.14L-823.47,489.87L-823.55,489.83C-824.23,490.10 -825.11,490.29 -826.13,490.29C-827.73,490.29 -828.94,489.61 -828.94,488.20L-828.94,476.50L-823.93,476.50L-823.93,474.90L-828.94,474.90L-828.94,470.72L-829.25,470.72L-831.34,474.90L-834.72,476.19L-834.72,476.50L-831.53,476.50L-831.53,488.62C-831.53,491.01 -829.82,492.38 -827.65,492.38ZM-820.20,492L-812.45,492L-812.45,491.39L-815.23,490.44L-815.23,479.12C-814.20,477.67 -813.10,477.03 -811.84,477.03C-811.31,477.03 -810.82,477.10 -810.32,477.29L-809.18,477.79L-808.99,477.79L-808.39,476.27C-808.27,476.04 -808.27,475.85 -808.27,475.70C-808.27,475.32 -808.69,475.05 -809.22,474.82C-809.53,474.67 -810.10,474.52 -810.51,474.52C-811.84,474.52 -812.87,474.82 -815.15,477.83L-815.26,477.83L-815.53,474.52L-815.83,474.52L-820.28,476.12L-820.28,476.53L-817.81,477.83L-817.81,490.44L-820.20,491.39ZM-801.89,492.38C-799.76,492.38 -797.78,491.39 -796.45,490.10L-796.30,490.10C-795.96,491.43 -795.01,492.38 -793.34,492.38C-791.78,492.38 -790.72,491.51 -790.22,490.63L-790.22,490.56L-790.30,490.48L-791.97,490.48C-792.96,490.48 -793.53,490.25 -793.91,489.87L-793.91,478.66C-793.91,475.62 -796.30,474.52 -799.15,474.52C-800.67,474.52 -802.19,475.20 -803.60,476.12C-804.93,476.95 -805.57,478.13 -805.57,479.19C-805.57,480.03 -805.35,480.18 -804.59,480.18L-802.99,480.18L-802.80,479.99L-802.80,478.74C-802.80,477.07 -802.12,476.04 -800.06,476.04C-798.24,476.04 -796.45,477.48 -796.45,479.38L-796.45,482.31L-800.14,483.22C-804.36,484.25 -806.03,485.96 -806.03,488.43C-806.03,490.90 -804.28,492.38 -801.89,492.38ZM-803.48,487.71C-803.48,485.84 -802.61,484.63 -796.45,483.41L-796.45,489.38C-797.90,490.06 -799.19,490.37 -800.44,490.37C-802.38,490.37 -803.48,489.49 -803.48,487.71ZM-787.98,492L-780.49,492L-780.49,491.39L-783.00,490.44L-783.00,463.50L-783.31,463.50L-788.06,464.94L-788.06,465.32L-785.59,466.81L-785.59,490.44L-787.98,491.39ZM-776.92,483.34L-766.47,483.34L-766.47,481.13L-776.92,481.13ZM-762.10,492L-743.56,492L-743.56,483.72L-744.20,483.72L-746.48,490.21L-756.14,490.21L-756.14,468.82L-752.72,467.68L-752.72,466.92L-762.10,466.92L-762.10,467.68L-759.10,468.82L-759.10,490.10L-762.10,491.24ZM-735.31,469.35C-734.17,469.35 -733.37,468.52 -733.37,467.41C-733.37,466.27 -734.17,465.48 -735.31,465.48C-736.41,465.48 -737.25,466.27 -737.25,467.41C-737.25,468.52 -736.41,469.35 -735.31,469.35ZM-738.69,492L-731.21,492L-731.21,491.39L-733.72,490.44L-733.72,474.52L-734.02,474.52L-738.77,475.96L-738.77,476.34L-736.30,477.83L-736.30,490.44L-738.69,491.39ZM-719.81,486.45C-716.12,486.45 -713.39,483.91 -713.39,480.49C-713.39,479.08 -713.92,477.52 -714.75,476.65L-714.64,476.50L-710.95,476.76L-710.95,474.90L-716.46,475.20C-717.38,474.82 -718.74,474.52 -719.81,474.52C-723.49,474.52 -726.23,477.10 -726.23,480.49C-726.23,482.65 -725.17,484.44 -723.46,485.50L-723.46,485.69L-725.58,486.87C-726.23,487.48 -726.50,488.24 -726.50,489.15C-726.50,490.67 -725.51,491.81 -723.72,492.23L-723.72,492.34L-726.23,494.17C-726.65,494.85 -726.88,495.65 -726.88,496.60C-726.88,499.14 -725.01,501.12 -720.34,501.12C-715.02,501.12 -711.60,497.89 -711.60,494.70C-711.60,491.81 -713.27,490.21 -716.69,490.21L-721.14,490.21C-723.30,490.21 -724.25,489.57 -724.25,488.09C-724.25,487.21 -723.80,486.45 -722.51,485.96C-721.71,486.30 -720.80,486.45 -719.81,486.45ZM-719.43,485.24C-721.86,485.24 -723.61,483.37 -723.61,480.37C-723.61,477.67 -722.32,475.70 -720.07,475.70C-717.79,475.70 -716.05,477.52 -716.05,480.60C-716.05,483.30 -717.34,485.24 -719.43,485.24ZM-724.56,496.18C-724.56,494.43 -724.10,493.18 -722.70,492.34C-722.54,492.38 -722.32,492.38 -722.13,492.38L-718.10,492.38C-714.98,492.38 -713.92,493.10 -713.92,495.42C-713.92,497.85 -716.35,500.13 -719.85,500.13C-722.51,500.13 -724.56,498.46 -724.56,496.18ZM-707.08,492L-699.40,492L-699.40,491.39L-702.10,490.48L-702.10,478.47C-701.07,477.37 -699.14,476.80 -697.73,476.80C-695.34,476.80 -693.66,478.17 -693.66,480.75L-693.66,490.48L-696.36,491.39L-696.36,492L-688.69,492L-688.69,491.39L-691.08,490.44L-691.08,479.27C-691.08,476.15 -693.28,474.52 -696.32,474.52C-698.45,474.52 -700.09,475.39 -701.99,477.29L-702.10,477.29L-702.10,463.50L-702.40,463.50L-707.15,464.94L-707.15,465.32L-704.68,466.81L-704.68,490.44L-707.08,491.39ZM-679.49,492.38C-677.21,492.38 -675.80,491.16 -675.31,490.14L-675.31,489.87L-675.39,489.83C-676.07,490.10 -676.94,490.29 -677.97,490.29C-679.57,490.29 -680.78,489.61 -680.78,488.20L-680.78,476.50L-675.77,476.50L-675.77,474.90L-680.78,474.90L-680.78,470.72L-681.09,470.72L-683.18,474.90L-686.56,476.19L-686.56,476.50L-683.37,476.50L-683.37,488.62C-683.37,491.01 -681.66,492.38 -679.49,492.38Z"/>
</svg>