<?xml version="1.0"?>
<svg xmlns="http://www.w3.org/2000/svg" width="1920" height="1080" viewBox="-960 -540 1920 1080">
    <path d="M-789.01,-199.31L-807.53,-191.37L-790.71,-155.91L-742.32,-142.02L-701.50,-153.76L-682.27,-190.47L-693.40,-219.11L-722.36,-234.16L-768.23,-247.82L-779.49,-255.50L-783.25,-267.01L-771.62,-287.50L-747.26,-293.73L-719.81,-284.79L-708.99,-260.21L-690.24,-267.45L-705.02,-299.55L-748.21,-311.83L-786.44,-300.38L-804.13,-265.65L-798.35,-243.97L-770.66,-226.70L-724.12,-213.57L-709.96,-203.62L-705.44,-189.34L-715.51,-168.20L-743.26,-160.13L-775.04,-169.95ZM-658.01,-102.60L-638.03,-102.60L-638.03,-159.21L-625.51,-147.48L-607.01,-142.86L-569.49,-160.24L-556.46,-205.13L-569.49,-250.02L-607.01,-267.40L-626.57,-262.02L-640.25,-246.68L-640.25,-262.44L-658.01,-262.44ZM-608.14,-159.84L-631.04,-171.27L-640.52,-205.11L-630.19,-238.97L-608.14,-250.41L-585.80,-238.97L-576.89,-205.11L-585.80,-171.27ZM-465.44,-224.42L-530.54,-204.45L-543.79,-176.85L-531.90,-150.64L-503.73,-142.43L-483.06,-146.45L-464.11,-160.35L-464.20,-147L-445.55,-147L-445.53,-221.47L-456.04,-255.36L-490.58,-266.99L-521.67,-259.40L-536.77,-236.87L-520.93,-227.13L-510.75,-244.68L-492.62,-250.68L-473.19,-244.99ZM-465.44,-206.76L-465.45,-177.53L-479.58,-165.16L-500.54,-158.73L-515.58,-162.63L-522.49,-177.74L-513.58,-193.43ZM-368.66,-159.43L-392.13,-170.02L-402.17,-204.72L-392.13,-239.43L-368.66,-250.02L-350.50,-243.70L-339.45,-223.28L-322.25,-231.89L-337.08,-256.66L-368.66,-266.99L-407.84,-250.46L-422.56,-204.72L-407.85,-158.98L-368.66,-142.45L-337.08,-152.67L-322.47,-176.87L-339.45,-185.92L-350.51,-165.70ZM-274.29,-168.96L-285.94,-199.60L-200.24,-199.61L-199.13,-207.61L-212.35,-249.90L-252.40,-267.08L-291.57,-250.55L-306.29,-204.81L-291.57,-159.07L-252.40,-142.54L-219.42,-152.28L-204.24,-176.08L-219.80,-185.79L-231.90,-166.04L-251.27,-159.53ZM-285.27,-215.60L-272.73,-242.02L-252.42,-250.12L-229.77,-240.49L-220.67,-215.60ZM-165.74,-182.76L-182.71,-174.83L-171.41,-152.18L-137.21,-142.42L-104.58,-150.54L-89.63,-178.19L-98.61,-201.88L-118.05,-211.87L-144.97,-219.15L-159.93,-225.14L-164.83,-234.37L-158.41,-245.75L-139.58,-249.93L-121.48,-245.00L-113.70,-230.31L-96.89,-238.23L-106.67,-257.57L-138.82,-266.99L-170.66,-258.82L-184.34,-232.12L-175.46,-210.92L-155.43,-201.37L-126.98,-193.84L-113.58,-187.11L-110.04,-176.42L-118.96,-163.01L-136.53,-159.45L-157.76,-166.43ZM-69.04,-147L-48.92,-147L-48.92,-209.83L-40.26,-239.07L-17.69,-249.32L1.04,-240.67L6.45,-217.08L6.44,-147L26.37,-147L26.45,-217.24L18.87,-252.61L-13.62,-266.54L-34.93,-261.65L-48.95,-246.68L-48.95,-306.84L-69.04,-306.84ZM69.99,-281.74L77.21,-289.64L77.23,-300.93L69.87,-309.02L59.61,-309.02L52.44,-300.95L52.44,-289.68L59.73,-281.74ZM74.81,-147L74.81,-262.44L54.83,-262.44L54.83,-147ZM103.67,-102.60L123.65,-102.60L123.65,-159.21L136.18,-147.48L154.68,-142.86L192.19,-160.24L205.22,-205.13L192.19,-250.02L154.68,-267.40L135.11,-262.02L121.43,-246.68L121.43,-262.44L103.67,-262.44ZM153.54,-159.84L130.65,-171.27L121.16,-205.11L131.50,-238.97L153.54,-250.41L175.88,-238.97L184.79,-205.11L175.88,-171.27ZM403.37,-147L403.37,-165.87L311.91,-165.87L311.91,-219.15L390.05,-219.15L390.05,-238.02L311.91,-238.02L311.91,-287.97L401.15,-287.97L401.15,-306.84L290.82,-306.84L290.82,-147ZM503.81,-224.42L438.71,-204.45L425.46,-176.85L437.35,-150.64L465.52,-142.43L486.19,-146.45L505.14,-160.35L505.05,-147L523.70,-147L523.73,-221.47L513.21,-255.36L478.67,-266.99L447.59,-259.40L432.48,-236.87L448.33,-227.13L458.50,-244.68L476.63,-250.68L496.06,-244.99ZM503.81,-206.76L503.80,-177.53L489.67,-165.16L468.72,-158.73L453.67,-162.63L446.76,-177.74L455.67,-193.43ZM603.27,-247.65L618.27,-242.68L624.26,-259.55L604.71,-266.96L585.63,-261.05L572.32,-242.46L572.32,-262.44L554.33,-262.44L554.33,-148.13L574.31,-147L574.31,-209.38L581.62,-237.22ZM688.82,-145.45L688.82,-145.46L686.52,-162.67L677.57,-161.33L667.94,-166.21L666.22,-180.74L666.22,-247.12L685.98,-247.12L685.98,-262.44L666.22,-262.44L666.22,-302.40L646.24,-302.40L646.24,-262.44L629.81,-262.44L629.81,-247.12L646.24,-247.12L646.24,-180.74L650.80,-152.87L673.55,-143.32ZM710.62,-147L730.75,-147L730.75,-209.83L739.41,-239.07L761.97,-249.32L780.71,-240.67L786.11,-217.08L786.10,-147L806.03,-147L806.12,-217.24L798.53,-252.61L766.04,-266.54L744.73,-261.65L730.72,-246.68L730.72,-306.84L710.62,-306.84Z" fill="#ffffff" stroke="#000000"/>
    <path d="M-785.00,-202.50L-803.42,-194.84L-787.13,-159.57L-739.36,-145.31L-698.84,-156.52L-679.43,-192.66L-690.14,-221.13L-718.66,-236.32L-763.93,-250.32L-775.00,-258.03L-778.60,-269.47L-766.88,-289.63L-742.70,-295.55L-715.61,-286.41L-705.16,-261.98L-686.52,-268.95L-700.82,-300.88L-743.45,-313.48L-781.42,-302.53L-799.29,-268.34L-793.78,-246.81L-766.55,-229.43L-720.62,-215.96L-706.70,-205.97L-702.37,-191.77L-712.56,-170.95L-740.11,-163.25L-771.47,-173.30ZM-656.31,-105.42L-636.53,-105.22L-635.95,-161.26L-623.67,-149.51L-605.41,-144.76L-568.09,-161.58L-554.73,-205.88L-567.17,-250.46L-604.13,-268.04L-623.55,-262.92L-637.25,-247.87L-637.08,-263.47L-654.67,-263.66ZM-606.35,-161.57L-628.90,-173.12L-637.94,-206.73L-627.36,-240.14L-605.42,-251.23L-583.43,-239.68L-574.95,-206.07L-584.12,-172.66ZM-464.43,-224.04L-529.08,-204.94L-542.48,-177.76L-530.98,-151.68L-503.17,-143.27L-482.67,-147.04L-463.77,-160.60L-463.99,-147.39L-445.53,-147.19L-444.74,-220.91L-454.80,-254.57L-488.88,-266.44L-519.72,-259.25L-534.91,-237.10L-519.33,-227.30L-509.08,-244.56L-491.07,-250.31L-471.89,-244.49ZM-464.61,-206.56L-464.92,-177.62L-479.03,-165.52L-499.84,-159.37L-514.69,-163.38L-521.38,-178.42L-512.40,-193.86ZM-369.28,-158.70L-392.41,-169.43L-401.99,-203.89L-391.69,-238.14L-368.35,-248.38L-350.44,-241.95L-339.71,-221.62L-322.60,-229.97L-337.02,-254.63L-368.18,-265.19L-407.13,-249.23L-422.18,-204.10L-408.09,-158.67L-369.46,-141.90L-338.09,-151.69L-323.39,-175.50L-340.09,-184.63L-351.26,-164.73ZM-275.77,-167.17L-286.98,-197.62L-202.15,-196.76L-200.97,-204.66L-213.62,-246.66L-253.09,-264.08L-292.04,-248.12L-307.08,-202.99L-292.98,-157.56L-254.37,-140.79L-221.62,-150.09L-206.35,-173.50L-221.65,-183.28L-233.83,-163.85L-253.08,-157.60ZM-286.16,-213.45L-273.47,-239.48L-253.28,-247.29L-230.96,-237.53L-222.20,-212.79ZM-168.17,-179.72L-185.05,-172.04L-174.09,-149.50L-140.34,-139.49L-107.95,-147.20L-92.87,-174.42L-101.51,-197.96L-120.66,-208.05L-147.23,-215.53L-161.98,-221.62L-166.74,-230.80L-160.26,-242.00L-141.57,-245.94L-123.71,-240.87L-116.16,-226.25L-99.44,-233.93L-108.92,-253.17L-140.65,-262.83L-172.25,-255.06L-186.07,-228.77L-177.50,-207.70L-157.77,-198.03L-129.69,-190.29L-116.49,-183.49L-113.09,-172.87L-122.06,-159.69L-139.49,-156.34L-160.43,-163.47ZM-72.81,-143.32L-52.89,-143.12L-52.24,-205.31L-43.37,-234.17L-20.92,-244.09L-2.47,-235.33L2.65,-211.93L1.91,-142.55L21.64,-142.34L22.45,-211.88L15.30,-246.97L-16.71,-261.09L-37.86,-256.47L-51.89,-241.79L-51.27,-301.35L-71.16,-301.56ZM66.21,-275.28L73.44,-283.03L73.58,-294.21L66.37,-302.29L56.21,-302.40L49.04,-294.48L48.92,-283.32L56.05,-275.39ZM69.60,-141.85L70.79,-256.12L51.01,-256.33L49.82,-142.05ZM97.72,-97.59L117.49,-97.39L118.08,-153.43L130.35,-141.69L148.62,-136.93L185.93,-153.75L199.29,-198.05L186.86,-242.63L149.90,-260.22L130.48,-255.09L116.78,-240.04L116.94,-255.65L99.36,-255.83ZM147.67,-153.74L125.12,-165.30L116.08,-198.90L126.66,-232.31L148.60,-243.41L170.60,-231.85L179.07,-198.24L169.90,-164.83ZM394.86,-138.47L395.05,-157.15L304.51,-158.09L305.06,-210.83L382.41,-210.03L382.61,-228.71L305.25,-229.51L305.76,-278.96L394.11,-278.04L394.30,-296.72L285.08,-297.86L283.44,-139.62ZM495.08,-214.08L430.43,-194.98L417.03,-167.80L428.53,-141.72L456.34,-133.31L476.84,-137.07L495.74,-150.64L495.51,-137.42L513.97,-137.23L514.77,-210.95L504.71,-244.61L470.63,-256.48L439.78,-249.29L424.60,-227.14L440.18,-217.33L450.43,-234.60L468.44,-240.35L487.62,-234.53ZM494.90,-196.59L494.59,-167.66L480.47,-155.56L459.67,-149.41L444.81,-153.42L438.12,-168.45L447.11,-183.90ZM593.78,-236.05L608.58,-230.98L614.69,-247.62L595.40,-255.15L576.46,-249.50L563.08,-231.23L563.29,-251.01L545.49,-251.20L544.31,-138.03L564.08,-136.71L564.72,-198.47L572.24,-225.95ZM677.42,-134.00L677.42,-134.01L675.32,-151.07L666.45,-149.84L656.97,-154.77L655.41,-169.17L656.09,-234.88L675.65,-234.68L675.81,-249.84L656.25,-250.05L656.66,-289.60L636.88,-289.81L636.47,-250.25L620.21,-250.42L620.05,-235.26L636.31,-235.09L635.63,-169.38L639.86,-141.74L662.28,-132.05ZM699.02,-135.31L718.94,-135.10L719.58,-197.30L728.46,-226.16L750.91,-236.08L769.36,-227.31L774.47,-203.91L773.74,-134.53L793.47,-134.33L794.28,-203.86L787.13,-238.95L755.11,-253.08L733.97,-248.46L719.94,-233.78L720.55,-293.34L700.66,-293.54Z" fill="#ffffff" stroke="#000000"/>
    <path d="M-780.89,-205.70L-799.20,-198.30L-783.44,-163.22L-736.30,-148.62L-696.07,-159.29L-676.49,-194.87L-686.80,-223.16L-714.87,-238.49L-759.54,-252.81L-770.41,-260.56L-773.87,-271.92L-762.06,-291.75L-738.06,-297.36L-711.34,-288.04L-701.25,-263.75L-682.72,-270.46L-696.55,-302.21L-738.62,-315.12L-776.32,-304.67L-794.35,-271.01L-789.13,-249.65L-762.35,-232.17L-717.02,-218.35L-703.35,-208.32L-699.21,-194.23L-709.51,-173.72L-736.86,-166.38L-767.80,-176.65ZM-654.50,-108.28L-634.92,-107.87L-633.77,-163.34L-621.74,-151.59L-603.71,-146.69L-566.60,-162.96L-552.92,-206.67L-564.78,-250.92L-601.18,-268.71L-620.46,-263.84L-634.17,-249.08L-633.85,-264.53L-651.25,-264.89ZM-604.48,-163.35L-626.68,-175.01L-635.28,-208.37L-624.47,-241.33L-602.63,-252.09L-580.98,-240.42L-572.94,-207.07L-582.36,-174.09ZM-463.35,-223.72L-527.54,-205.48L-541.08,-178.71L-529.96,-152.78L-502.53,-144.17L-482.19,-147.69L-463.35,-160.92L-463.71,-147.84L-445.44,-147.46L-443.89,-220.42L-453.50,-253.84L-487.12,-265.94L-517.72,-259.14L-532.98,-237.37L-517.66,-227.51L-507.33,-244.49L-489.45,-250.00L-470.52,-244.04ZM-463.71,-206.42L-464.31,-177.78L-478.41,-165.94L-499.07,-160.07L-513.73,-164.20L-520.20,-179.15L-511.15,-194.34ZM-369.84,-158.07L-392.62,-168.92L-401.76,-203.13L-391.21,-236.93L-368.00,-246.83L-350.33,-240.27L-339.92,-220.04L-322.90,-228.13L-336.92,-252.69L-367.65,-263.46L-406.38,-248.06L-421.73,-203.55L-408.25,-158.43L-370.19,-141.44L-339.04,-150.80L-324.24,-174.22L-340.68,-183.43L-351.94,-163.85ZM-277.19,-165.49L-287.97,-195.74L-204.01,-194.02L-202.76,-201.83L-214.86,-243.53L-253.75,-261.18L-292.46,-245.78L-307.81,-201.26L-294.32,-156.15L-256.28,-139.16L-223.77,-148.03L-208.41,-171.04L-223.45,-180.88L-235.72,-161.77L-254.83,-155.78ZM-287.00,-211.41L-274.17,-237.05L-254.11,-244.57L-232.11,-234.67L-223.70,-210.10ZM-170.55,-176.81L-187.34,-169.38L-176.73,-146.95L-143.42,-136.69L-111.28,-143.99L-96.07,-170.78L-104.38,-194.17L-123.24,-204.36L-149.46,-212.04L-163.99,-218.21L-168.61,-227.35L-162.09,-238.37L-143.55,-242.08L-125.92,-236.88L-118.60,-222.33L-101.97,-229.76L-111.15,-248.90L-142.46,-258.79L-173.82,-251.42L-187.77,-225.54L-179.50,-204.60L-160.07,-194.83L-132.35,-186.87L-119.36,-180.00L-116.11,-169.46L-125.12,-156.50L-142.41,-153.37L-163.06,-160.64ZM-76.54,-139.80L-56.82,-139.39L-55.54,-200.95L-46.46,-229.42L-24.14,-239.01L-5.96,-230.15L-1.14,-206.93L-2.58,-138.26L16.95,-137.86L18.46,-206.68L11.75,-241.49L-19.80,-255.80L-40.78,-251.44L-54.82,-237.05L-53.59,-296.00L-73.28,-296.41ZM62.43,-268.99L69.67,-276.58L69.91,-287.64L62.87,-295.72L52.81,-295.93L45.62,-288.17L45.39,-277.12L52.37,-269.20ZM64.41,-136.87L66.76,-249.98L47.19,-250.39L44.84,-137.28ZM91.79,-92.78L111.36,-92.38L112.51,-147.84L124.55,-136.09L142.58,-131.19L179.69,-147.46L193.37,-191.18L181.51,-235.43L145.11,-253.22L125.83,-248.34L112.12,-233.59L112.44,-249.03L95.04,-249.39ZM141.81,-147.85L119.61,-159.51L111.01,-192.87L121.82,-225.83L143.65,-236.59L165.31,-224.93L173.35,-191.57L163.93,-158.59ZM386.33,-130.19L386.72,-148.68L297.10,-150.54L298.19,-202.74L374.75,-201.15L375.13,-219.64L298.57,-221.23L299.59,-270.17L387.03,-268.35L387.41,-286.84L279.31,-289.09L276.05,-132.48ZM486.31,-204.00L422.12,-185.76L408.58,-158.99L419.70,-133.06L447.13,-124.45L467.47,-127.96L486.31,-141.20L485.95,-128.12L504.22,-127.74L505.77,-200.70L496.16,-234.12L462.55,-246.22L431.94,-239.42L416.68,-217.65L432.01,-207.79L442.33,-224.77L460.22,-230.28L479.14,-224.32ZM485.95,-186.69L485.35,-158.06L471.25,-146.22L450.59,-140.35L435.93,-144.47L429.47,-159.42L438.52,-174.62ZM584.24,-224.73L598.83,-219.56L605.05,-235.97L586.04,-243.62L567.23,-238.22L553.80,-220.28L554.21,-239.86L536.59,-240.22L534.26,-128.22L553.82,-126.71L555.09,-187.83L562.81,-214.95ZM665.98,-122.86L665.98,-122.87L664.07,-139.78L655.28,-138.65L645.95,-143.63L644.55,-157.90L645.91,-222.94L665.26,-222.54L665.58,-237.54L646.22,-237.95L647.03,-277.10L627.45,-277.50L626.64,-238.35L610.54,-238.69L610.23,-223.68L626.33,-223.34L624.98,-158.31L628.88,-130.90L650.97,-121.08ZM687.37,-123.94L707.09,-123.53L708.37,-185.08L717.45,-213.56L739.77,-223.15L757.94,-214.28L762.76,-191.07L761.33,-122.40L780.85,-121.99L782.37,-190.81L775.65,-225.62L744.10,-239.93L723.13,-235.58L709.09,-221.19L710.31,-280.14L690.62,-280.54Z" fill="#ffffff" stroke="#000000"/>
    <path d="M-776.67,-208.88L-794.87,-201.75L-779.63,-166.87L-733.13,-151.93L-693.20,-162.09L-673.46,-197.09L-683.37,-225.20L-711.00,-240.66L-755.06,-255.29L-765.74,-263.08L-769.04,-274.35L-757.15,-293.87L-733.34,-299.17L-707.00,-289.67L-697.25,-265.52L-678.85,-271.97L-692.21,-303.54L-733.71,-316.75L-771.13,-306.80L-789.33,-273.67L-784.38,-252.47L-758.05,-234.89L-713.33,-220.75L-699.90,-210.68L-695.95,-196.69L-706.36,-176.50L-733.50,-169.52L-764.02,-180.00ZM-652.58,-111.17L-633.21,-110.56L-631.50,-165.45L-619.71,-153.69L-601.92,-148.66L-565.02,-164.38L-551.03,-207.51L-562.31,-251.43L-598.16,-269.41L-617.29,-264.78L-631.01,-250.32L-630.54,-265.60L-647.75,-266.14ZM-602.50,-165.16L-624.36,-176.93L-632.53,-210.03L-621.49,-242.54L-599.77,-252.97L-578.46,-241.20L-570.84,-208.11L-580.50,-175.56ZM-462.21,-223.46L-525.93,-206.06L-539.60,-179.71L-528.87,-153.93L-501.80,-145.13L-481.64,-148.40L-462.85,-161.30L-463.34,-148.36L-445.26,-147.80L-442.98,-220.00L-452.15,-253.17L-485.29,-265.49L-515.66,-259.07L-530.98,-237.69L-515.92,-227.77L-505.52,-244.47L-487.76,-249.74L-469.10,-243.64ZM-462.74,-206.34L-463.63,-178.00L-477.70,-166.43L-498.21,-160.83L-512.68,-165.06L-518.93,-179.93L-509.81,-194.87ZM-370.33,-157.52L-392.77,-168.50L-401.46,-202.45L-390.67,-235.79L-367.59,-245.35L-350.18,-238.68L-340.08,-218.55L-323.15,-226.38L-336.78,-250.84L-367.08,-261.81L-405.57,-246.97L-421.23,-203.07L-408.34,-158.27L-370.84,-141.07L-339.92,-150.01L-325.03,-173.04L-341.21,-182.32L-352.55,-163.06ZM-278.55,-163.91L-288.92,-193.97L-205.84,-191.40L-204.52,-199.11L-216.06,-240.51L-254.37,-258.38L-292.84,-243.54L-308.49,-199.64L-295.61,-154.84L-258.13,-137.64L-225.86,-146.08L-210.42,-168.70L-225.21,-178.59L-237.54,-159.81L-256.52,-154.08ZM-287.79,-209.46L-274.83,-234.70L-254.90,-241.94L-233.23,-231.92L-225.15,-207.51ZM-172.89,-174.02L-189.59,-166.84L-179.31,-144.54L-146.45,-134.04L-114.57,-140.93L-99.24,-167.29L-107.23,-190.53L-125.78,-200.80L-151.65,-208.67L-165.98,-214.93L-170.45,-224.02L-163.88,-234.87L-145.50,-238.35L-128.10,-233.02L-121.01,-218.54L-104.47,-225.72L-113.36,-244.76L-144.24,-254.87L-175.37,-247.90L-189.43,-222.43L-181.47,-201.61L-162.34,-191.74L-134.98,-183.59L-122.19,-176.66L-119.08,-166.19L-128.13,-153.46L-145.28,-150.53L-165.64,-157.94ZM-80.22,-136.42L-60.71,-135.82L-58.81,-196.73L-49.53,-224.82L-27.34,-234.08L-9.44,-225.12L-4.91,-202.09L-7.04,-134.14L12.28,-133.54L14.49,-201.64L8.20,-236.16L-22.88,-250.65L-43.69,-246.55L-57.73,-232.46L-55.91,-290.79L-75.39,-291.39ZM58.65,-262.86L65.89,-270.30L66.25,-281.25L59.35,-289.32L49.40,-289.63L42.21,-282.02L41.86,-271.08L48.70,-263.17ZM59.25,-132.08L62.74,-244.00L43.37,-244.60L39.88,-132.68ZM85.89,-88.16L105.26,-87.56L106.97,-142.44L118.76,-130.69L136.55,-125.66L173.45,-141.37L187.44,-184.50L176.16,-228.42L140.32,-246.40L121.19,-241.77L107.46,-227.31L107.94,-242.59L90.72,-243.13ZM135.97,-142.15L114.12,-153.92L105.94,-187.02L116.98,-219.53L138.70,-229.96L160.01,-218.19L167.63,-185.10L157.97,-152.55ZM377.80,-122.15L378.37,-140.45L289.69,-143.21L291.30,-194.87L367.07,-192.51L367.64,-210.80L291.87,-213.16L293.38,-261.59L379.91,-258.90L380.48,-277.19L273.50,-280.52L268.68,-125.55ZM477.51,-194.18L413.79,-176.79L400.12,-150.43L410.85,-124.65L437.92,-115.85L458.08,-119.12L476.87,-132.03L476.38,-119.08L494.46,-118.52L496.73,-190.72L487.57,-223.90L454.42,-236.21L424.06,-229.80L408.73,-208.41L423.80,-198.49L434.19,-215.19L451.95,-220.46L470.62,-214.36ZM476.98,-177.06L476.09,-148.72L462.01,-137.15L441.51,-131.55L427.04,-135.79L420.79,-150.65L429.91,-165.59ZM574.64,-213.70L589.04,-208.43L595.36,-224.61L576.62,-232.37L557.95,-227.22L544.48,-209.60L545.08,-228.97L527.65,-229.52L524.19,-118.69L543.53,-116.99L545.42,-177.47L553.34,-204.24ZM654.50,-112.03L654.50,-112.03L652.79,-128.80L644.07,-127.77L634.89,-132.79L633.66,-146.93L635.66,-211.29L654.82,-210.69L655.28,-225.54L636.13,-226.14L637.33,-264.88L617.96,-265.48L616.75,-226.74L600.83,-227.24L600.36,-212.39L616.29,-211.89L614.29,-147.53L617.86,-120.37L639.63,-110.42ZM675.69,-112.87L695.20,-112.27L697.09,-173.18L706.37,-201.27L728.56,-210.53L746.46,-201.57L750.99,-178.54L748.87,-110.59L768.19,-109.99L770.39,-178.09L764.11,-212.61L733.03,-227.10L712.22,-223.00L698.18,-208.91L700.00,-267.24L680.51,-267.84Z" fill="#ffffff" stroke="#000000"/>
    <path d="M-772.35,-212.06L-790.43,-205.19L-775.71,-170.51L-729.85,-155.25L-690.23,-164.89L-670.33,-199.33L-679.85,-227.25L-707.03,-242.84L-750.49,-257.77L-760.98,-265.58L-764.13,-276.77L-752.16,-295.96L-728.55,-300.96L-702.57,-291.30L-693.17,-267.29L-674.89,-273.49L-687.79,-304.87L-728.73,-318.37L-765.86,-308.90L-784.21,-276.30L-779.53,-255.27L-753.66,-237.61L-709.54,-223.16L-696.36,-213.05L-692.59,-199.17L-703.10,-179.29L-730.03,-172.66L-760.12,-183.35ZM-650.55,-114.08L-631.39,-113.29L-629.13,-167.59L-617.59,-155.83L-600.03,-150.67L-563.35,-165.84L-549.07,-208.38L-559.78,-251.96L-595.07,-270.12L-614.05,-265.74L-627.78,-251.57L-627.15,-266.69L-644.18,-267.40ZM-600.44,-167.00L-621.94,-178.87L-629.69,-211.71L-618.43,-243.78L-596.83,-253.87L-575.86,-242.01L-568.66,-209.18L-578.56,-177.07ZM-460.99,-223.25L-524.23,-206.69L-538.04,-180.75L-527.68,-155.13L-500.98,-146.14L-481.00,-149.17L-462.27,-161.75L-462.89,-148.95L-445.00,-148.20L-442.01,-219.63L-450.74,-252.56L-483.41,-265.09L-513.53,-259.05L-528.91,-238.04L-514.10,-228.07L-503.65,-244.49L-486.02,-249.52L-467.61,-243.30ZM-461.70,-206.31L-462.87,-178.28L-476.92,-166.97L-497.27,-161.64L-511.55,-165.98L-517.58,-180.76L-508.40,-195.45ZM-370.75,-157.06L-392.84,-168.15L-401.09,-201.84L-390.07,-234.73L-367.14,-243.95L-349.97,-237.17L-340.19,-217.14L-323.35,-224.71L-336.58,-249.06L-366.46,-260.23L-404.70,-245.94L-420.65,-202.65L-408.36,-158.19L-371.43,-140.78L-340.73,-149.31L-325.76,-171.95L-341.68,-181.30L-353.10,-162.36ZM-279.85,-162.44L-289.81,-192.29L-207.61,-188.89L-206.23,-196.51L-217.22,-237.60L-254.95,-255.68L-293.18,-241.38L-309.12,-198.10L-296.83,-153.64L-259.92,-136.22L-227.89,-144.25L-212.38,-166.48L-226.92,-176.41L-239.31,-157.95L-258.15,-152.48ZM-288.53,-207.61L-275.45,-232.46L-255.65,-239.42L-234.30,-229.28L-226.56,-205.04ZM-175.19,-171.35L-191.79,-164.42L-181.85,-142.24L-149.43,-131.52L-117.81,-138.01L-102.37,-163.94L-110.03,-187.02L-128.29,-197.38L-153.81,-205.43L-167.92,-211.77L-172.26,-220.81L-165.65,-231.48L-147.41,-234.74L-130.25,-229.28L-123.38,-214.88L-106.94,-221.82L-115.55,-240.75L-146.01,-251.07L-176.88,-244.50L-191.06,-219.43L-183.39,-198.75L-164.56,-188.79L-137.57,-180.44L-124.99,-173.44L-122.02,-163.05L-131.10,-150.54L-148.10,-147.82L-168.18,-155.37ZM-83.86,-133.20L-64.56,-132.39L-62.06,-192.66L-52.58,-220.36L-30.53,-229.29L-12.91,-220.24L-8.66,-197.41L-11.46,-130.19L7.65,-129.39L10.53,-196.77L4.67,-230.99L-25.94,-245.65L-46.57,-241.81L-60.62,-228.00L-58.22,-285.71L-77.49,-286.51ZM54.87,-256.89L62.11,-264.19L62.57,-275.01L55.84,-283.07L45.99,-283.48L38.80,-276.02L38.34,-265.21L45.02,-257.30ZM54.12,-127.46L58.72,-238.19L39.56,-238.99L34.96,-128.26ZM80.03,-83.73L99.20,-82.93L101.45,-137.23L113.00,-125.47L130.56,-120.31L167.23,-135.49L181.52,-178.03L170.81,-221.60L135.52,-239.77L116.54,-235.38L102.81,-221.21L103.44,-236.33L86.40,-237.04ZM130.15,-136.64L108.64,-148.52L100.89,-181.36L112.15,-213.42L133.76,-223.51L154.72,-211.65L161.92,-178.82L152.03,-146.71ZM369.27,-114.37L370.02,-132.47L282.29,-136.11L284.41,-187.22L359.36,-184.10L360.12,-202.20L285.16,-205.32L287.15,-253.23L372.75,-249.67L373.51,-267.77L267.68,-272.17L261.31,-118.85ZM468.69,-184.62L405.45,-168.06L391.64,-142.12L402.00,-116.50L428.70,-107.51L448.68,-110.54L467.41,-123.12L466.79,-110.32L484.68,-109.57L487.67,-181.00L478.94,-213.93L446.27,-226.46L416.15,-220.42L400.77,-199.41L415.58,-189.44L426.03,-205.86L443.66,-210.89L462.07,-204.67ZM467.98,-167.68L466.81,-139.65L452.76,-128.34L432.41,-123.01L418.13,-127.35L412.10,-142.13L421.28,-156.82ZM565.01,-202.94L579.20,-197.58L585.62,-213.52L567.16,-221.40L548.63,-216.50L535.11,-199.20L535.91,-218.36L518.66,-219.08L514.11,-109.43L533.23,-107.56L535.71,-167.39L543.83,-193.80ZM642.99,-101.51L643.00,-101.51L641.47,-118.12L632.84,-117.19L623.80,-122.25L622.73,-136.26L625.37,-199.93L644.32,-199.14L644.93,-213.83L625.98,-214.62L627.58,-252.95L608.41,-253.74L606.82,-215.42L591.06,-216.07L590.45,-201.38L606.21,-200.72L603.56,-137.06L606.82,-110.14L628.26,-100.07ZM663.97,-102.12L683.27,-101.32L685.77,-161.58L695.25,-189.29L717.30,-198.22L734.93,-189.17L739.17,-166.34L736.37,-99.11L755.48,-98.32L758.37,-165.69L752.50,-199.92L721.89,-214.58L701.26,-210.73L687.22,-196.93L689.61,-254.64L670.34,-255.44Z" fill="#ffffff" stroke="#000000"/>
    <path d="M-767.93,-215.22L-785.89,-208.61L-771.68,-174.14L-726.45,-158.58L-687.15,-167.70L-667.10,-201.58L-676.24,-229.30L-702.98,-245.01L-745.82,-260.23L-756.12,-268.07L-759.12,-279.18L-747.08,-298.04L-723.67,-302.75L-698.06,-292.91L-689.01,-269.07L-670.86,-275.01L-683.30,-306.19L-723.67,-319.97L-760.51,-310.99L-779.00,-278.91L-774.58,-258.06L-749.16,-240.31L-705.66,-225.56L-692.72,-215.43L-689.14,-201.65L-699.73,-182.09L-726.45,-175.80L-756.12,-186.69ZM-648.41,-117.02L-629.45,-116.04L-626.66,-169.74L-615.36,-157.99L-598.04,-152.71L-561.59,-167.34L-547.02,-209.29L-557.17,-252.52L-591.90,-270.86L-610.73,-266.72L-624.46,-252.84L-623.68,-267.79L-640.53,-268.66ZM-598.28,-168.87L-619.43,-180.84L-626.77,-213.42L-615.29,-245.03L-593.81,-254.79L-573.19,-242.84L-566.40,-210.28L-576.52,-178.61ZM-459.71,-223.10L-522.46,-207.37L-536.39,-181.84L-526.40,-156.38L-500.08,-147.21L-480.27,-150.00L-461.61,-162.25L-462.35,-149.59L-444.66,-148.67L-440.96,-219.32L-449.27,-251.99L-481.47,-264.73L-511.33,-259.06L-526.77,-238.43L-512.22,-228.41L-501.70,-244.55L-484.21,-249.35L-466.05,-243.00ZM-460.58,-206.35L-462.04,-178.62L-476.05,-167.58L-496.24,-162.51L-510.32,-166.95L-516.14,-181.63L-506.91,-196.08ZM-371.09,-156.67L-392.84,-167.88L-400.66,-201.30L-389.42,-233.73L-366.63,-242.62L-349.71,-235.73L-340.24,-215.81L-323.49,-223.13L-336.34,-247.36L-365.79,-258.72L-403.78,-244.97L-420.00,-202.30L-408.30,-158.18L-371.93,-140.57L-341.47,-148.70L-326.42,-170.94L-342.08,-180.36L-353.57,-161.73ZM-281.10,-161.06L-290.64,-190.70L-209.34,-186.50L-207.89,-194.02L-218.35,-234.80L-255.50,-253.07L-293.47,-239.32L-309.69,-196.65L-297.98,-152.53L-261.64,-134.92L-229.86,-142.53L-214.29,-164.37L-228.57,-174.35L-241.03,-156.21L-259.72,-150.98ZM-289.22,-205.85L-276.02,-230.30L-256.35,-236.98L-235.33,-226.73L-227.93,-202.67ZM-177.43,-168.81L-193.93,-162.12L-184.32,-140.07L-152.35,-129.12L-120.99,-135.22L-105.45,-160.72L-112.80,-183.64L-130.76,-194.08L-155.93,-202.31L-169.83,-208.73L-174.03,-217.72L-167.37,-228.20L-149.30,-231.24L-132.38,-225.67L-125.72,-211.35L-109.38,-218.04L-117.71,-236.87L-147.74,-247.39L-178.35,-241.20L-192.64,-216.55L-185.27,-196.00L-166.74,-185.95L-140.12,-177.41L-127.74,-170.36L-124.90,-160.05L-134.02,-147.77L-150.87,-145.25L-170.66,-152.92ZM-87.46,-130.11L-68.37,-129.12L-65.27,-188.73L-55.61,-216.05L-33.69,-224.66L-16.35,-215.52L-12.38,-192.88L-15.85,-126.39L3.06,-125.41L6.60,-192.05L1.15,-225.97L-28.99,-240.79L-49.44,-237.20L-63.48,-223.69L-60.51,-280.77L-79.58,-281.76ZM51.09,-251.09L58.33,-258.23L58.90,-268.94L52.32,-276.98L42.58,-277.49L35.39,-270.19L34.82,-259.49L41.35,-251.60ZM49.02,-123.02L54.71,-232.54L35.76,-233.53L30.07,-124.01ZM74.21,-79.48L93.17,-78.49L95.96,-132.20L107.26,-120.45L124.58,-115.16L161.03,-129.80L175.61,-171.75L165.46,-214.98L130.72,-233.31L111.90,-229.17L98.17,-215.29L98.94,-230.24L82.09,-231.12ZM124.35,-131.32L103.19,-143.29L95.86,-175.87L107.33,-207.48L128.81,-217.25L149.44,-205.29L156.22,-172.74L146.10,-141.06ZM360.73,-106.83L361.66,-124.73L274.89,-129.24L277.52,-179.79L351.65,-175.93L352.58,-193.84L278.45,-197.69L280.91,-245.08L365.58,-240.68L366.51,-258.58L261.83,-264.02L253.95,-112.37ZM459.84,-175.33L397.09,-159.59L383.16,-134.06L393.15,-108.60L419.47,-99.43L439.28,-102.22L457.94,-114.48L457.20,-101.81L474.89,-100.90L478.58,-171.55L470.28,-204.22L438.08,-216.95L408.22,-211.29L392.78,-190.66L407.33,-180.64L417.85,-196.78L435.34,-201.58L453.50,-195.23ZM458.96,-158.57L457.51,-130.84L443.50,-119.80L423.30,-114.73L409.22,-119.17L403.41,-133.85L412.64,-148.30ZM555.34,-192.46L569.33,-187.01L575.84,-202.72L557.66,-210.71L539.27,-206.04L525.72,-189.06L526.70,-208.02L509.64,-208.91L504.01,-100.46L522.91,-98.40L525.98,-157.58L534.29,-183.63ZM631.46,-91.29L631.47,-91.29L630.13,-107.74L621.58,-106.91L612.68,-112.01L611.77,-125.88L615.04,-188.86L633.78,-187.88L634.54,-202.42L615.79,-203.39L617.76,-241.30L598.81,-242.29L596.84,-204.38L581.25,-205.19L580.50,-190.65L596.08,-189.84L592.81,-126.87L595.76,-100.20L616.87,-90.02ZM652.23,-91.68L671.32,-90.69L674.41,-150.29L684.07,-177.61L705.99,-186.23L723.33,-177.09L727.30,-154.45L723.84,-87.96L742.74,-86.98L746.29,-153.62L740.83,-187.54L710.70,-202.36L690.24,-198.77L676.20,-185.26L679.17,-242.33L660.11,-243.33Z" fill="#ffffff" stroke="#000000"/>
    <path d="M-763.39,-218.37L-781.24,-212.01L-767.53,-177.76L-722.94,-161.90L-683.96,-170.52L-663.78,-203.84L-672.53,-231.36L-698.83,-247.17L-741.06,-262.67L-751.17,-270.53L-754.03,-281.56L-741.92,-300.10L-718.70,-304.52L-693.47,-294.52L-684.76,-270.83L-666.74,-276.53L-678.73,-307.51L-718.53,-321.56L-755.07,-313.04L-773.70,-281.50L-769.54,-260.82L-744.57,-243.00L-701.68,-227.96L-688.98,-217.80L-685.58,-204.13L-696.26,-184.89L-722.77,-178.94L-752.01,-190.02ZM-646.15,-119.98L-627.41,-118.81L-624.09,-171.92L-613.03,-160.18L-595.95,-154.77L-559.74,-168.88L-544.88,-210.23L-554.48,-253.11L-588.66,-271.61L-607.33,-267.71L-621.06,-254.11L-620.14,-268.90L-636.80,-269.94ZM-596.02,-170.76L-616.83,-182.82L-623.75,-215.13L-612.07,-246.29L-590.72,-255.73L-570.43,-243.69L-564.05,-211.41L-574.39,-180.18ZM-458.36,-223.00L-520.61,-208.08L-534.65,-182.96L-525.03,-157.67L-499.08,-148.32L-479.45,-150.88L-460.87,-162.82L-461.73,-150.29L-444.23,-149.20L-439.85,-219.07L-447.73,-251.48L-479.46,-264.41L-509.06,-259.11L-524.55,-238.86L-510.26,-228.79L-499.69,-244.66L-482.33,-249.23L-464.43,-242.76ZM-459.40,-206.43L-461.12,-179.01L-475.10,-168.23L-495.13,-163.42L-509.02,-167.96L-514.62,-182.55L-505.34,-196.75ZM-371.36,-156.36L-392.76,-167.67L-400.15,-200.82L-388.70,-232.79L-366.06,-241.35L-349.40,-234.36L-340.22,-214.56L-323.58,-221.63L-336.05,-245.73L-365.07,-257.28L-402.79,-244.06L-419.29,-202.01L-408.16,-158.24L-372.36,-140.44L-342.13,-148.17L-327.02,-170.02L-342.41,-179.51L-353.97,-161.19ZM-282.27,-159.78L-291.41,-189.21L-211.01,-184.21L-209.50,-191.64L-219.43,-232.09L-256.00,-250.55L-293.71,-237.34L-310.20,-195.29L-299.07,-151.51L-263.29,-133.71L-231.77,-140.92L-216.14,-162.37L-230.16,-172.39L-242.68,-154.57L-261.23,-149.59ZM-289.85,-204.18L-276.54,-228.24L-257.01,-234.65L-236.32,-224.29L-229.24,-200.40ZM-179.63,-166.38L-196.02,-159.93L-186.74,-138.02L-155.22,-126.86L-124.13,-132.57L-108.49,-157.64L-115.52,-180.39L-133.18,-190.90L-158.01,-199.30L-171.69,-205.80L-175.76,-214.74L-169.06,-225.05L-151.15,-227.87L-134.46,-222.18L-128.02,-207.94L-111.79,-214.39L-119.83,-233.11L-149.44,-243.83L-179.79,-238.02L-194.19,-213.77L-187.10,-193.37L-168.87,-183.23L-142.62,-174.51L-130.44,-167.41L-127.74,-157.17L-136.89,-145.12L-153.59,-142.80L-173.09,-150.59ZM-91.00,-127.17L-72.12,-125.99L-68.44,-184.94L-58.61,-211.87L-36.83,-220.16L-19.77,-210.95L-16.07,-188.50L-20.19,-122.75L-1.49,-121.59L2.70,-187.48L-2.35,-221.11L-32.01,-236.08L-52.29,-232.74L-66.31,-219.51L-62.79,-275.95L-81.65,-277.13ZM47.32,-245.45L54.56,-252.44L55.24,-263.03L48.81,-271.05L39.18,-271.65L31.98,-264.50L31.32,-253.92L37.70,-246.05ZM43.96,-118.75L50.72,-227.06L31.97,-228.23L25.22,-119.92ZM68.44,-75.41L87.19,-74.24L90.50,-127.35L101.56,-115.61L118.64,-110.20L154.86,-124.31L169.71,-165.66L160.11,-208.54L125.93,-227.04L107.26,-223.13L93.53,-209.54L94.46,-224.33L77.79,-225.37ZM118.58,-126.19L97.76,-138.25L90.85,-170.56L102.52,-201.72L123.88,-211.16L144.16,-199.12L150.54,-166.84L140.20,-135.61ZM352.21,-99.53L353.31,-117.23L267.51,-122.58L270.62,-172.57L343.94,-168.00L345.04,-185.70L271.73,-190.27L274.65,-237.13L358.38,-231.91L359.48,-249.62L255.97,-256.07L246.61,-106.11ZM450.97,-166.28L388.72,-151.36L374.68,-126.24L384.30,-100.95L410.25,-91.61L429.88,-94.17L448.46,-106.10L447.60,-93.58L465.10,-92.49L469.48,-162.35L461.60,-194.76L429.87,-207.69L400.27,-202.39L384.78,-182.14L399.07,-172.08L409.64,-187.94L427.00,-192.51L444.90,-186.04ZM449.93,-149.71L448.21,-122.30L434.23,-111.51L414.20,-106.71L400.31,-111.25L394.71,-125.83L403.99,-140.03ZM545.64,-182.26L559.42,-176.72L566.03,-192.20L548.12,-200.29L529.88,-195.86L516.29,-179.20L517.46,-197.94L500.59,-199.00L493.90,-91.75L512.58,-89.52L516.23,-148.05L524.71,-173.74ZM619.92,-81.37L619.92,-81.37L618.77,-97.66L610.29,-96.93L601.55,-102.07L600.78,-115.80L604.67,-178.08L623.20,-176.92L624.10,-191.29L605.56,-192.45L607.90,-229.94L589.16,-231.11L586.82,-193.62L571.41,-194.58L570.51,-180.21L585.92,-179.25L582.04,-116.97L584.68,-90.56L605.47,-80.26ZM640.46,-81.55L659.34,-80.37L663.02,-139.31L672.86,-166.24L694.63,-174.54L711.70,-165.32L715.39,-142.88L711.28,-77.13L729.97,-75.97L734.17,-141.86L729.12,-175.49L699.45,-190.46L679.18,-187.12L665.15,-173.89L668.67,-230.33L649.82,-231.51Z" fill="#ffffff" stroke="#000000"/>
    <path d="M-758.76,-221.50L-776.47,-215.39L-763.27,-181.37L-719.32,-165.21L-680.66,-173.35L-660.35,-206.10L-668.73,-233.42L-694.58,-249.33L-736.21,-265.10L-746.13,-272.98L-748.84,-283.91L-736.67,-302.13L-713.66,-306.26L-688.80,-296.12L-680.42,-272.59L-662.54,-278.04L-674.08,-308.82L-713.31,-323.12L-749.55,-315.08L-768.30,-284.06L-764.40,-263.56L-739.88,-245.67L-697.61,-230.35L-685.14,-220.17L-681.92,-206.61L-692.69,-187.68L-718.97,-182.07L-747.78,-193.33ZM-643.78,-122.96L-625.25,-121.61L-621.42,-174.12L-610.60,-162.39L-593.75,-156.86L-557.78,-170.45L-542.67,-211.20L-551.72,-253.72L-585.34,-272.37L-603.85,-268.70L-617.58,-255.40L-616.51,-270.02L-632.99,-271.22ZM-593.66,-172.68L-614.12,-184.83L-620.64,-216.86L-608.76,-247.57L-587.54,-256.69L-567.60,-244.57L-561.62,-212.57L-572.17,-181.77ZM-456.94,-222.95L-518.67,-208.82L-532.82,-184.12L-523.56,-159.00L-497.99,-149.49L-478.54,-151.82L-460.03,-163.43L-461.02,-151.05L-443.72,-149.79L-438.67,-218.87L-446.13,-251.01L-477.39,-264.13L-506.73,-259.19L-522.26,-239.32L-508.22,-229.21L-497.60,-244.80L-480.38,-249.14L-462.74,-242.55ZM-458.13,-206.57L-460.12,-179.46L-474.06,-168.93L-493.93,-164.38L-507.62,-169.02L-513.01,-183.50L-503.68,-197.45ZM-371.55,-156.13L-392.61,-167.54L-399.58,-200.40L-387.92,-231.92L-365.44,-240.15L-349.02,-233.07L-340.15,-213.38L-323.62,-220.21L-335.70,-244.18L-364.29,-255.90L-401.75,-243.21L-418.50,-201.78L-407.94,-158.36L-372.70,-140.38L-342.72,-147.72L-327.54,-169.19L-342.67,-178.73L-354.30,-160.73ZM-283.38,-158.60L-292.12,-187.80L-212.63,-182.03L-211.06,-189.37L-220.47,-229.49L-256.46,-248.13L-293.90,-235.44L-310.64,-194.01L-300.08,-150.59L-264.87,-132.61L-233.61,-139.42L-217.93,-160.47L-231.70,-170.53L-244.26,-153.03L-262.67,-148.30ZM-290.42,-202.60L-277.00,-226.26L-257.62,-232.40L-237.26,-221.94L-230.50,-198.24ZM-181.76,-164.07L-198.05,-157.86L-189.09,-136.08L-158.03,-124.72L-127.21,-130.05L-111.48,-154.69L-118.20,-177.27L-135.57,-187.85L-160.04,-196.42L-173.51,-202.99L-177.44,-211.87L-170.71,-222.00L-152.96,-224.60L-136.51,-218.81L-130.29,-204.65L-114.16,-210.87L-121.92,-229.47L-151.10,-240.38L-181.19,-234.95L-195.68,-211.11L-188.88,-190.85L-170.95,-180.63L-145.07,-171.73L-133.09,-164.58L-130.53,-154.43L-139.71,-142.59L-156.25,-140.47L-175.46,-148.38ZM-94.49,-124.37L-75.82,-123.01L-71.58,-181.28L-61.57,-207.83L-39.95,-215.81L-23.16,-206.52L-19.73,-184.28L-24.48,-119.27L-5.99,-117.93L-1.17,-183.07L-5.82,-216.39L-35.01,-231.51L-55.11,-228.41L-69.12,-215.47L-65.06,-271.27L-83.69,-272.63ZM43.57,-239.96L50.80,-246.80L51.58,-257.27L45.30,-265.27L35.78,-265.97L28.59,-258.97L27.82,-248.50L34.05,-240.65ZM38.94,-114.65L46.74,-221.73L28.21,-223.08L20.41,-116.00ZM62.72,-71.52L81.25,-70.17L85.07,-122.68L95.89,-110.95L112.74,-105.43L148.71,-119.01L163.83,-159.77L154.77,-202.29L121.15,-220.94L102.64,-217.27L88.92,-203.96L89.98,-218.58L73.51,-219.78ZM112.84,-121.25L92.37,-133.39L85.86,-165.43L97.73,-196.13L118.95,-205.26L138.90,-193.14L144.88,-161.13L134.33,-130.34ZM343.70,-92.47L344.97,-109.97L260.14,-116.15L263.73,-165.57L336.22,-160.29L337.49,-177.79L265.01,-183.07L268.38,-229.40L351.16,-223.37L352.43,-240.88L250.09,-248.33L239.30,-100.07ZM442.09,-157.50L380.35,-143.37L366.20,-118.67L375.46,-93.55L401.04,-84.04L420.48,-86.37L438.99,-97.98L438.01,-85.60L455.31,-84.34L460.36,-153.42L452.90,-185.56L421.64,-198.68L392.30,-193.74L376.77,-173.87L390.80,-163.76L401.42,-179.34L418.65,-183.69L436.29,-177.10ZM440.89,-141.11L438.91,-114.01L424.97,-103.48L405.10,-98.93L391.41,-103.57L386.02,-118.05L395.34,-132.00ZM535.91,-172.33L549.49,-166.71L556.18,-181.95L538.55,-190.14L520.45,-185.95L506.85,-169.60L508.20,-188.14L491.52,-189.35L483.80,-83.32L502.25,-80.93L506.47,-138.79L515.12,-164.11ZM608.36,-71.76L608.36,-71.76L607.39,-87.89L599.00,-87.25L590.40,-92.42L589.78,-106.02L594.26,-167.59L612.59,-166.25L613.62,-180.46L595.30,-181.79L598.00,-218.86L579.46,-220.21L576.77,-183.14L561.53,-184.25L560.49,-170.05L575.73,-168.94L571.25,-107.37L573.59,-81.20L594.05,-70.81ZM628.69,-71.72L647.35,-70.36L651.59,-128.64L661.60,-155.18L683.23,-163.16L700.02,-153.87L703.44,-131.63L698.70,-66.62L717.18,-65.28L722.01,-130.43L717.36,-163.74L688.16,-178.86L668.07,-175.76L654.06,-162.82L658.12,-218.62L639.48,-219.98Z" fill="#ffffff" stroke="#000000"/>
    <path d="M-754.01,-224.61L-771.60,-218.75L-758.89,-184.96L-715.58,-168.52L-677.26,-176.17L-656.83,-208.36L-664.84,-235.47L-690.25,-251.48L-731.26,-267.50L-741.00,-275.40L-743.57,-286.24L-731.34,-304.14L-708.53,-307.99L-684.04,-297.70L-676.00,-274.34L-658.25,-279.55L-669.36,-310.11L-708.02,-324.66L-743.95,-317.08L-762.82,-286.59L-759.17,-266.27L-735.10,-248.32L-693.43,-232.74L-681.21,-222.54L-678.16,-209.09L-689.01,-190.48L-715.06,-185.20L-743.45,-196.63ZM-641.29,-125.95L-622.97,-124.42L-618.65,-176.32L-608.07,-164.61L-591.46,-158.97L-555.74,-172.04L-540.36,-212.20L-548.88,-254.35L-581.95,-273.15L-600.30,-269.71L-614.01,-256.69L-612.81,-271.14L-629.09,-272.49ZM-591.20,-174.62L-611.32,-186.85L-617.43,-218.60L-605.37,-248.85L-584.29,-257.66L-564.68,-245.46L-559.10,-213.74L-569.85,-183.39ZM-455.44,-222.94L-516.65,-209.60L-530.90,-185.31L-522.00,-160.37L-496.80,-150.69L-477.54,-152.80L-459.11,-164.10L-460.21,-151.86L-443.12,-150.44L-437.41,-218.71L-444.46,-250.59L-475.24,-263.89L-504.32,-259.30L-519.89,-239.80L-506.10,-229.66L-495.44,-244.97L-478.36,-249.09L-460.98,-242.39ZM-456.79,-206.75L-459.03,-179.95L-472.93,-169.68L-492.63,-165.39L-506.12,-170.11L-511.31,-184.50L-501.94,-198.20ZM-371.67,-155.96L-392.38,-167.46L-398.94,-200.05L-387.08,-231.10L-364.75,-239.02L-348.59,-231.84L-340.01,-212.28L-323.59,-218.86L-335.29,-242.70L-363.46,-254.58L-400.64,-242.42L-417.63,-201.61L-407.63,-158.55L-372.96,-140.40L-343.23,-147.35L-327.99,-168.43L-342.87,-178.02L-354.55,-160.33ZM-284.42,-157.50L-292.76,-186.48L-214.19,-179.95L-212.57,-187.20L-221.46,-226.98L-256.87,-245.79L-294.04,-233.62L-311.02,-192.81L-301.02,-149.75L-266.37,-131.61L-235.39,-138.02L-219.65,-158.68L-233.17,-168.78L-245.78,-151.59L-264.04,-147.10ZM-290.93,-201.10L-277.42,-224.37L-258.18,-230.24L-238.14,-219.69L-231.70,-196.17ZM-183.84,-161.87L-200.01,-155.89L-191.38,-134.26L-160.77,-122.70L-130.23,-127.66L-114.41,-151.87L-120.84,-174.28L-137.90,-184.92L-162.02,-193.65L-175.28,-200.28L-179.08,-209.11L-172.32,-219.06L-154.73,-221.46L-138.52,-215.55L-132.51,-201.49L-116.49,-207.47L-123.98,-225.95L-152.73,-237.04L-182.55,-231.97L-197.13,-208.54L-190.61,-188.43L-172.97,-178.14L-147.47,-169.07L-135.70,-161.88L-133.26,-151.81L-142.46,-140.19L-158.85,-138.26L-177.77,-146.29ZM-97.92,-121.70L-79.47,-120.17L-74.68,-177.77L-64.50,-203.92L-43.03,-211.60L-26.52,-202.23L-23.36,-180.20L-28.72,-115.94L-10.45,-114.42L-5.01,-178.81L-9.26,-211.82L-37.98,-227.07L-57.89,-224.22L-71.89,-211.56L-67.30,-266.72L-85.72,-268.25ZM39.83,-234.63L47.06,-241.32L47.94,-251.67L41.81,-259.65L32.40,-260.43L25.21,-253.58L24.34,-243.24L30.43,-235.41ZM33.97,-110.72L42.78,-216.56L24.46,-218.09L15.65,-112.25ZM57.04,-67.81L75.36,-66.29L79.68,-118.19L90.27,-106.48L106.87,-100.84L142.59,-113.91L157.97,-154.07L149.45,-196.22L116.38,-215.02L98.03,-211.58L84.32,-198.55L85.52,-213.00L69.24,-214.36ZM107.13,-116.48L87.01,-128.71L80.90,-160.47L92.96,-190.72L114.04,-199.52L133.65,-187.33L139.24,-155.61L128.48,-125.26ZM335.20,-85.65L336.65,-102.95L252.79,-109.93L256.85,-158.78L328.50,-152.81L329.94,-170.11L258.29,-176.08L262.11,-221.87L343.93,-215.06L345.37,-232.36L244.21,-240.78L232.01,-94.24ZM433.20,-148.96L371.98,-135.62L357.73,-111.33L366.63,-86.39L391.84,-76.72L411.10,-78.82L429.52,-90.12L428.42,-77.89L445.52,-76.46L451.23,-144.74L444.18,-176.61L413.39,-189.91L384.32,-185.33L368.75,-165.82L382.53,-155.68L393.20,-170.99L410.28,-175.11L427.66,-168.42ZM431.85,-132.77L429.61,-105.98L415.71,-95.71L396.01,-91.41L382.51,-96.14L377.33,-110.52L386.70,-124.22ZM526.16,-162.67L539.53,-156.97L546.31,-171.98L528.95,-180.26L511.01,-176.30L497.38,-160.27L498.91,-178.59L482.42,-179.96L473.70,-75.16L491.93,-72.60L496.69,-129.79L505.51,-154.76ZM596.79,-62.44L596.79,-62.44L596.00,-78.41L587.69,-77.86L579.24,-83.07L578.77,-96.52L583.83,-157.38L601.95,-155.87L603.12,-169.92L585.00,-171.42L588.05,-208.06L569.73,-209.59L566.68,-172.95L551.62,-174.20L550.45,-160.16L565.51,-158.90L560.45,-98.05L562.50,-72.14L582.63,-61.65ZM616.90,-62.20L635.35,-60.66L640.14,-118.26L650.32,-144.41L671.79,-152.09L688.30,-142.72L691.46,-120.69L686.10,-56.44L704.37,-54.91L709.81,-119.31L705.56,-152.31L676.83,-167.57L656.92,-164.71L642.93,-152.05L647.52,-207.21L629.10,-208.74Z" fill="#ffffff" stroke="#000000"/>
    <path d="M-749.16,-227.69L-766.62,-222.07L-754.39,-188.52L-711.72,-171.82L-673.74,-179.00L-653.21,-210.62L-660.85,-237.52L-685.82,-253.61L-726.22,-269.88L-735.77,-277.79L-738.20,-288.54L-725.92,-306.12L-703.32,-309.69L-679.21,-299.26L-671.49,-276.08L-653.89,-281.05L-664.55,-311.39L-702.64,-326.18L-738.26,-319.04L-757.23,-289.09L-753.83,-268.95L-730.21,-250.95L-689.16,-235.11L-677.17,-224.89L-674.29,-211.56L-685.22,-193.26L-711.04,-188.31L-739.00,-199.91ZM-638.68,-128.95L-620.58,-127.25L-615.77,-178.54L-605.42,-166.85L-589.06,-161.10L-553.59,-173.66L-537.97,-213.22L-545.97,-255.00L-578.48,-273.93L-596.66,-270.72L-610.36,-257.98L-609.02,-272.26L-625.11,-273.77ZM-588.64,-176.57L-608.41,-188.87L-614.13,-220.34L-601.90,-250.14L-580.95,-258.63L-561.68,-246.37L-556.48,-214.94L-567.43,-185.03ZM-453.87,-222.97L-514.55,-210.41L-528.89,-186.53L-520.35,-161.77L-495.52,-151.94L-476.45,-153.83L-458.11,-164.81L-459.32,-152.72L-442.42,-151.14L-436.07,-218.61L-442.72,-250.21L-473.03,-263.68L-501.84,-259.44L-517.44,-240.31L-503.91,-230.14L-493.20,-245.17L-476.27,-249.07L-459.14,-242.27ZM-455.37,-206.97L-457.86,-180.49L-471.71,-170.48L-491.24,-166.43L-504.54,-171.24L-509.52,-185.52L-500.12,-198.98ZM-371.70,-155.87L-392.06,-167.46L-398.21,-199.75L-386.17,-230.34L-364.00,-237.95L-348.09,-230.68L-339.81,-211.24L-323.50,-217.58L-334.83,-241.28L-362.56,-253.32L-399.47,-241.68L-416.69,-201.48L-407.25,-158.79L-373.14,-140.49L-343.66,-147.06L-328.37,-167.75L-342.98,-177.39L-354.72,-160.02ZM-285.39,-156.49L-293.34,-185.24L-215.70,-177.98L-214.01,-185.13L-222.40,-224.56L-257.23,-243.53L-294.12,-231.88L-311.34,-191.69L-301.89,-149.00L-267.80,-130.70L-237.09,-136.72L-221.32,-157.00L-234.59,-167.12L-247.23,-150.25L-265.33,-146.00ZM-291.38,-199.68L-277.77,-222.56L-258.68,-228.17L-238.98,-217.52L-232.84,-194.20ZM-185.87,-159.78L-201.92,-154.04L-193.60,-132.55L-163.44,-120.80L-133.19,-125.40L-117.30,-149.18L-123.42,-171.41L-140.19,-182.11L-163.95,-190.99L-177.00,-197.69L-180.66,-206.46L-173.88,-216.23L-156.46,-218.42L-140.48,-212.41L-134.68,-198.44L-118.78,-204.20L-126.00,-222.54L-154.32,-233.81L-183.87,-229.11L-198.53,-206.08L-192.28,-186.12L-174.95,-175.76L-149.81,-166.53L-138.24,-159.29L-135.94,-149.31L-145.16,-137.92L-161.38,-136.18L-180.02,-144.31ZM-101.29,-119.17L-83.06,-117.46L-77.72,-174.38L-67.39,-200.15L-46.08,-207.52L-29.84,-198.08L-26.94,-176.26L-32.90,-112.76L-14.85,-111.07L-8.81,-174.70L-12.68,-207.39L-40.93,-222.77L-60.65,-220.15L-74.62,-207.78L-69.51,-262.28L-87.72,-263.99ZM36.12,-229.45L43.33,-235.99L44.31,-246.22L38.32,-254.18L29.03,-255.05L21.85,-248.34L20.89,-238.13L26.82,-230.32ZM29.05,-106.96L38.85,-211.55L20.75,-213.25L10.94,-108.65ZM51.42,-64.28L69.53,-62.58L74.33,-113.87L84.68,-102.18L101.05,-96.43L136.52,-108.99L152.13,-148.55L144.14,-190.33L111.63,-209.26L93.44,-206.05L79.75,-193.31L81.09,-207.59L65.00,-209.10ZM101.47,-111.90L81.69,-124.20L75.97,-155.67L88.21,-185.47L109.16,-193.96L128.42,-181.70L133.62,-150.27L122.67,-120.36ZM326.73,-79.06L328.33,-96.16L245.46,-103.92L249.99,-152.20L320.79,-145.56L322.39,-162.66L251.59,-169.29L255.83,-214.55L336.69,-206.97L338.29,-224.07L238.33,-233.44L224.75,-88.62ZM424.30,-140.68L363.62,-128.11L349.28,-104.23L357.83,-79.47L382.65,-69.65L401.72,-71.53L420.07,-82.52L418.85,-70.43L435.75,-68.84L442.10,-136.31L435.45,-167.91L405.14,-181.38L376.33,-177.15L360.73,-158.02L374.26,-147.85L384.97,-162.88L401.90,-166.78L419.03,-159.98ZM422.80,-124.68L420.31,-98.20L406.46,-88.18L386.93,-84.14L373.63,-88.95L368.65,-103.23L378.06,-116.69ZM516.39,-153.28L529.56,-147.51L536.42,-162.28L519.33,-170.65L501.55,-166.92L487.90,-151.21L489.60,-169.31L473.31,-170.84L463.60,-67.27L481.61,-64.55L486.91,-121.07L495.89,-145.67ZM585.22,-53.42L585.23,-53.42L584.60,-69.22L576.38,-68.77L568.07,-74.00L567.75,-87.32L573.38,-147.46L591.28,-145.78L592.58,-159.66L574.68,-161.34L578.07,-197.54L559.97,-199.24L556.58,-163.03L541.69,-164.43L540.39,-150.55L555.28,-149.15L549.64,-89.01L551.41,-63.37L571.21,-52.79ZM605.11,-52.97L623.34,-51.27L628.67,-108.19L639.01,-133.95L660.32,-141.32L676.56,-131.89L679.46,-110.06L673.50,-46.56L691.55,-44.87L697.59,-108.51L693.72,-141.20L665.47,-156.58L645.75,-153.96L631.78,-141.58L636.89,-196.09L618.68,-197.79Z" fill="#ffffff" stroke="#000000"/>
    <path d="M-744.20,-230.74L-761.52,-225.36L-749.77,-192.06L-707.75,-175.11L-670.11,-181.81L-649.48,-212.88L-656.77,-239.55L-681.29,-255.72L-721.08,-272.23L-730.44,-280.15L-732.73,-290.81L-720.41,-308.07L-698.03,-311.37L-674.28,-300.81L-666.89,-277.80L-649.43,-282.53L-659.67,-312.65L-697.18,-327.67L-732.48,-320.98L-751.55,-291.54L-748.40,-271.59L-725.22,-253.55L-684.79,-237.46L-673.04,-227.23L-670.33,-214.02L-681.32,-196.04L-706.90,-191.40L-734.44,-203.16ZM-635.96,-131.96L-618.07,-130.09L-612.79,-180.77L-602.68,-169.10L-586.55,-163.24L-551.35,-175.30L-535.49,-214.27L-542.97,-255.67L-574.93,-274.72L-592.95,-271.73L-606.62,-259.27L-605.15,-273.38L-621.05,-275.04ZM-585.98,-178.54L-605.41,-190.91L-610.74,-222.09L-598.33,-251.43L-577.53,-259.62L-558.60,-247.29L-553.78,-216.16L-564.92,-186.69ZM-452.22,-223.04L-512.36,-211.24L-526.79,-187.77L-518.59,-163.20L-494.14,-153.22L-475.26,-154.89L-457.01,-165.57L-458.33,-153.63L-441.64,-151.89L-434.67,-218.54L-440.91,-249.86L-470.75,-263.50L-499.28,-259.60L-514.91,-240.85L-501.63,-230.65L-490.89,-245.40L-474.10,-249.08L-457.24,-242.18ZM-453.87,-207.23L-456.60,-181.07L-470.40,-171.31L-489.76,-167.51L-502.86,-172.41L-507.64,-186.58L-498.20,-199.79ZM-371.64,-155.84L-391.66,-167.51L-397.42,-199.51L-385.19,-229.64L-363.19,-236.93L-347.53,-229.58L-339.54,-210.27L-323.34,-216.38L-334.30,-239.93L-361.61,-252.12L-398.22,-240.98L-415.67,-201.41L-406.77,-159.09L-373.23,-140.64L-344.00,-146.84L-328.68,-167.14L-343.03,-176.83L-354.81,-159.76ZM-286.28,-155.57L-293.85,-184.08L-217.14,-176.10L-215.40,-183.15L-223.29,-222.24L-257.54,-241.36L-294.14,-230.21L-311.58,-190.64L-302.68,-148.32L-269.15,-129.88L-238.72,-135.52L-222.91,-155.41L-235.93,-165.56L-248.61,-149.00L-266.55,-144.98ZM-291.76,-198.34L-278.07,-220.83L-259.14,-226.18L-239.76,-215.45L-233.93,-192.32ZM-187.82,-157.80L-203.76,-152.28L-195.75,-130.95L-166.05,-119.02L-136.08,-123.25L-120.12,-146.61L-125.95,-168.65L-142.42,-179.41L-165.83,-188.44L-178.67,-195.20L-182.20,-203.91L-175.39,-213.50L-158.14,-215.49L-142.40,-209.38L-136.81,-195.51L-121.02,-201.03L-127.97,-219.26L-155.87,-230.69L-185.13,-226.34L-199.87,-203.72L-193.90,-183.92L-176.86,-173.49L-152.10,-164.10L-140.73,-156.83L-138.56,-146.93L-147.79,-135.76L-163.85,-134.20L-182.20,-142.44ZM-104.60,-116.77L-86.59,-114.89L-80.73,-171.13L-70.25,-196.50L-49.09,-203.57L-33.13,-194.08L-30.49,-172.46L-37.03,-109.73L-19.19,-107.87L-12.57,-170.74L-16.06,-203.11L-43.84,-218.61L-63.37,-216.22L-77.31,-204.12L-71.70,-257.98L-89.69,-259.85ZM32.42,-224.41L39.63,-230.82L40.69,-240.92L34.86,-248.85L25.67,-249.81L18.51,-243.25L17.45,-233.16L23.24,-225.37ZM24.17,-103.35L34.94,-206.69L17.06,-208.55L6.29,-105.21ZM45.87,-60.91L63.75,-59.05L69.03,-109.73L79.15,-98.05L95.28,-92.20L130.48,-104.26L146.33,-143.23L138.85,-184.63L106.89,-203.68L88.88,-200.69L75.20,-188.23L76.67,-202.34L60.77,-204.00ZM95.84,-107.50L76.42,-119.87L71.08,-151.05L83.49,-180.39L104.29,-188.58L123.22,-176.25L128.04,-145.11L116.90,-115.65ZM318.29,-72.71L320.05,-89.60L238.17,-98.13L243.14,-145.82L313.09,-138.53L314.85,-155.43L244.90,-162.71L249.56,-207.43L329.45,-199.10L331.21,-216.00L232.44,-226.29L217.53,-83.20ZM415.41,-132.64L355.27,-120.84L340.84,-97.37L349.04,-72.79L373.49,-62.82L392.37,-64.49L410.62,-75.17L409.30,-63.22L425.99,-61.48L432.96,-128.14L426.72,-159.46L396.88,-173.09L368.35,-169.20L352.72,-150.44L366.00,-140.25L376.74,-155.00L393.53,-158.68L410.39,-151.78ZM413.76,-116.83L411.03,-90.67L397.23,-80.91L377.87,-77.11L364.77,-82.00L359.99,-96.18L369.43,-109.39ZM506.61,-144.16L519.57,-138.31L526.51,-152.86L509.70,-161.31L492.07,-157.80L478.42,-142.40L480.28,-160.29L464.18,-161.96L453.52,-59.64L471.30,-56.76L477.12,-112.60L486.26,-136.84ZM573.66,-44.70L573.66,-44.70L573.20,-60.33L565.07,-59.96L556.91,-65.23L556.72,-78.40L562.91,-137.82L580.60,-135.97L582.03,-149.68L564.34,-151.53L568.07,-187.30L550.18,-189.16L546.46,-153.39L531.75,-154.92L530.32,-141.21L545.03,-139.68L538.84,-80.26L540.32,-54.88L559.79,-44.21ZM593.32,-44.05L611.33,-42.17L617.19,-98.41L627.67,-123.78L648.83,-130.85L664.79,-121.36L667.43,-99.74L660.89,-37.01L678.72,-35.15L685.35,-98.02L681.86,-130.39L654.08,-145.89L634.55,-143.50L620.60,-131.40L626.22,-185.26L608.23,-187.13Z" fill="#ffffff" stroke="#000000"/>
    <path d="M-906.35,492L-906.35,469.28L-898.22,492L-894.99,492L-886.86,469.28L-886.86,492L-883.25,492L-883.25,464.64L-888.22,464.64L-896.55,487.33L-904.68,464.64L-909.96,464.64L-909.96,492ZM-865.67,478.75L-876.82,482.17L-879.09,486.89L-877.05,491.38L-872.23,492.78L-868.69,492.09L-865.45,489.71L-865.46,492L-862.27,492L-862.27,479.25L-864.06,473.45L-869.98,471.46L-875.30,472.76L-877.88,476.62L-875.17,478.28L-873.43,475.28L-870.33,474.25L-867.00,475.23ZM-865.67,481.77L-865.68,486.77L-868.09,488.89L-871.68,489.99L-874.26,489.33L-875.44,486.74L-873.91,484.05ZM-857.12,492L-853.70,492L-853.70,481.25L-852.22,476.17L-848.35,474.41L-845.15,475.90L-844.22,479.88L-844.22,492L-840.80,492L-840.80,479.88L-842.09,473.85L-847.66,471.47L-851.35,472.28L-854.04,475.09L-854.04,472.24L-857.12,472.24ZM-833.34,468.94L-832.11,467.58L-832.10,465.65L-833.36,464.27L-835.12,464.27L-836.35,465.65L-836.35,467.58L-835.10,468.94ZM-832.52,492L-832.52,472.24L-835.94,472.24L-835.94,492ZM-818.31,468.12L-817.85,465.29L-820.94,464.71L-825.30,466.41L-826.70,471.29L-826.70,472.24L-829.67,472.24L-829.67,474.86L-826.70,474.86L-826.70,492L-823.40,492L-823.40,474.86L-819.56,474.86L-819.56,472.24L-823.40,472.24L-823.40,471.21L-822.75,468.65L-820.52,467.74ZM-807.97,471.46L-814.77,474.29L-817.39,482.12L-814.77,489.95L-807.97,492.78L-801.17,489.95L-798.55,482.12L-801.16,474.29ZM-807.97,489.87L-812.08,488.06L-813.90,482.12L-812.08,476.18L-807.97,474.37L-803.85,476.18L-802.04,482.12L-803.85,488.06ZM-795.03,492L-791.61,492L-791.61,481.25L-790.13,476.17L-786.26,474.41L-783.06,475.90L-782.13,479.88L-782.13,492L-778.71,492L-778.71,479.88L-780.00,473.85L-785.56,471.47L-789.26,472.28L-791.95,475.09L-791.95,472.24L-795.03,472.24ZM-765.45,492.27L-765.45,492.26L-765.85,489.32L-767.38,489.55L-769.03,488.71L-769.32,486.22L-769.32,474.86L-765.94,474.86L-765.94,472.24L-769.32,472.24L-769.32,465.40L-772.74,465.40L-772.74,472.24L-775.55,472.24L-775.55,474.86L-772.74,474.86L-772.74,486.22L-771.96,491.00L-768.07,492.63ZM-737.50,487.93L-737.50,478.13L-749.05,478.13L-749.05,481.31L-740.99,481.31L-740.97,486.22L-748.63,489.75L-755.95,486.41L-758.55,478.32L-756.06,470.17L-749.21,466.88L-744.27,468.25L-741.30,473.01L-738.24,471.11L-741.44,465.93L-749.13,463.79L-758.98,468.04L-762.42,478.32L-758.78,488.60L-748.74,492.86ZM-724.35,474.77L-721.78,475.62L-720.76,472.73L-724.11,471.47L-727.37,472.48L-729.65,475.66L-729.65,472.24L-732.73,472.24L-732.73,491.81L-729.31,492L-729.31,481.32L-728.06,476.56ZM-710.01,471.46L-716.81,474.29L-719.42,482.12L-716.81,489.95L-710.01,492.78L-703.20,489.95L-700.58,482.12L-703.20,474.29ZM-710.01,489.87L-714.12,488.06L-715.93,482.12L-714.12,476.18L-710.01,474.37L-705.89,476.18L-704.07,482.12L-705.89,488.06ZM-688.58,492.27L-688.58,492.26L-688.97,489.32L-690.51,489.55L-692.15,488.71L-692.45,486.22L-692.45,474.86L-689.07,474.86L-689.07,472.24L-692.45,472.24L-692.45,465.40L-695.87,465.40L-695.87,472.24L-698.68,472.24L-698.68,474.86L-695.87,474.86L-695.87,486.22L-695.09,491.00L-691.19,492.63ZM-680.57,488.24L-682.57,483.00L-667.90,482.99L-667.71,481.63L-669.97,474.39L-676.83,471.45L-683.53,474.28L-686.05,482.11L-683.53,489.93L-676.83,492.76L-671.18,491.10L-668.58,487.02L-671.25,485.36L-673.32,488.74L-676.63,489.86ZM-682.45,480.26L-680.31,475.73L-676.83,474.35L-672.95,476.00L-671.40,480.26ZM-661.99,485.88L-664.90,487.24L-662.96,491.11L-657.11,492.78L-651.52,491.39L-648.97,486.66L-650.50,482.61L-653.83,480.90L-658.44,479.65L-661.00,478.62L-661.84,477.05L-660.74,475.10L-657.52,474.38L-654.42,475.23L-653.09,477.74L-650.21,476.38L-651.88,473.07L-657.39,471.46L-662.84,472.86L-665.18,477.43L-663.66,481.06L-660.23,482.69L-655.36,483.98L-653.07,485.13L-652.46,486.96L-653.99,489.26L-656.99,489.87L-660.63,488.67ZM-641.92,483.45L-638.72,483.45L-637.20,484.67L-633.14,492.30L-630.05,490.63L-634.16,483.45L-636.67,482.04L-634.62,480.06L-632.77,476.14L-631.66,475.64L-630.10,475.39L-630.56,472.24L-633.40,472.52L-635.30,474.17L-637.43,478.82L-638.72,480.60L-641.91,480.60L-641.91,464.64L-643.66,464.64L-645.32,464.64L-645.33,492L-641.92,492ZM-625.58,492.01L-615.04,492.01L-607.42,490.45L-604.53,484.21L-606.06,480.03L-610.31,477.70L-606.80,475.27L-605.82,471.62L-608.58,466.13L-615.58,464.63L-625.58,464.63ZM-621.94,476.42L-621.95,467.89L-616.40,467.89L-611.64,468.44L-609.62,472.08L-611.57,475.51L-615.93,476.42ZM-621.94,488.79L-621.94,479.64L-615.54,479.64L-610.64,480.53L-608.45,484.21L-610.32,488.02L-615.04,488.79ZM-592.40,471.46L-599.20,474.29L-601.81,482.12L-599.20,489.95L-592.40,492.78L-585.59,489.95L-582.97,482.12L-585.59,474.29ZM-592.40,489.87L-596.51,488.06L-598.32,482.12L-596.51,476.18L-592.40,474.37L-588.28,476.18L-586.46,482.12L-588.28,488.06ZM-571.27,471.46L-578.07,474.29L-580.68,482.12L-578.07,489.95L-571.27,492.78L-564.46,489.95L-561.85,482.12L-564.46,474.29ZM-571.27,489.87L-575.38,488.06L-577.19,482.12L-575.38,476.18L-571.27,474.37L-567.15,476.18L-565.33,482.12L-567.15,488.06ZM-554.82,483.45L-551.62,483.45L-550.10,484.67L-546.04,492.30L-542.96,490.63L-547.06,483.45L-549.57,482.04L-547.52,480.06L-545.67,476.14L-544.56,475.64L-543.00,475.39L-543.46,472.24L-546.31,472.52L-548.20,474.17L-550.34,478.82L-551.62,480.60L-554.82,480.60L-554.82,464.64L-556.56,464.64L-558.23,464.64L-558.23,492L-554.82,492Z"/>
</svg>