<?xml version="1.0"?>
<svg xmlns="http://www.w3.org/2000/svg" width="1920" height="1080" viewBox="-960 -540 1920 1080">
    <path d="M-594.96,-306.84L-683.76,-182.52L-683.76,-306.84L-666,-324.60L-728.16,-324.60L-710.40,-306.84L-710.40,-138.12L-692.64,-147L-577.20,-306.84L-550.56,-324.60L-612.72,-324.60ZM-479.52,-289.08L-470.64,-289.08L-461.76,-306.84L-461.76,-315.72L-479.52,-324.60L-488.40,-324.60L-497.28,-306.84L-497.28,-297.96ZM-577.20,-218.04L-568.32,-209.16L-523.92,-253.56L-515.04,-253.56L-568.32,-164.76L-568.32,-155.88L-559.44,-147L-541.68,-147L-523.92,-155.88L-479.52,-200.28L-488.40,-209.16L-532.80,-164.76L-541.68,-164.76L-488.40,-253.56L-488.40,-262.44L-506.16,-271.32L-532.80,-262.44ZM-461.76,-155.88L-461.76,-182.52L-470.64,-191.40L-488.40,-182.52L-488.40,-155.88L-470.64,-147L-452.88,-147L-426.24,-155.88L-408.48,-173.64L-408.48,-191.40L-417.36,-235.80L-417.36,-253.56L-399.60,-262.44L-399.60,-235.80L-390.72,-226.92L-372.96,-235.80L-372.96,-262.44L-399.60,-271.32L-435.12,-262.44L-444.00,-244.68L-444.00,-226.92L-435.12,-191.40L-435.12,-173.64L-452.88,-155.88ZM-204.24,-200.28L-213.12,-209.16L-257.52,-164.76L-266.40,-164.76L-213.12,-253.56L-222.00,-262.44L-239.76,-262.44L-275.28,-200.28L-310.80,-164.76L-319.68,-164.76L-328.56,-182.52L-284.16,-253.56L-284.16,-262.44L-301.92,-271.32L-328.56,-262.44L-372.96,-218.04L-364.08,-209.16L-319.68,-253.56L-310.80,-253.56L-355.20,-182.52L-346.32,-155.88L-328.56,-147L-310.80,-147L-284.16,-173.64L-284.16,-155.88L-275.28,-147L-266.40,-147L-248.64,-155.88ZM-62.16,-262.44L-71.04,-271.32L-88.80,-244.68L-97.68,-262.44L-133.20,-271.32L-177.60,-235.80L-195.36,-191.40L-186.48,-155.88L-168.72,-147L-150.96,-147L-124.32,-173.64L-124.32,-155.88L-115.44,-147L-88.80,-155.88L-44.40,-200.28L-53.28,-209.16L-97.68,-164.76L-106.56,-164.76ZM-150.96,-164.76L-159.84,-164.76L-168.72,-191.40L-150.96,-226.92L-124.32,-253.56L-106.56,-253.56L-97.68,-235.80L-97.68,-226.92L-124.32,-191.40ZM-17.76,-164.76L62.16,-333.48L0.00,-333.48L0.00,-324.60L26.64,-324.60L-44.40,-164.76L-44.40,-155.88L-26.64,-147L0.00,-155.88L44.40,-200.28L35.52,-209.16L-8.88,-164.76ZM142.08,-289.08L150.96,-289.08L159.84,-306.84L159.84,-315.72L142.08,-324.60L133.20,-324.60L124.32,-306.84L124.32,-297.96ZM44.40,-218.04L53.28,-209.16L97.68,-253.56L106.56,-253.56L53.28,-164.76L53.28,-155.88L62.16,-147L79.92,-147L97.68,-155.88L142.08,-200.28L133.20,-209.16L88.80,-164.76L79.92,-164.76L133.20,-253.56L133.20,-262.44L115.44,-271.32L88.80,-262.44ZM230.88,-182.52L222,-191.40L204.24,-182.52L204.24,-164.76L168.72,-173.64L266.40,-262.44L257.52,-271.32L239.76,-253.56L204.24,-271.32L159.84,-262.44L159.84,-218.04L168.72,-218.04L168.72,-235.80L177.60,-244.68L222,-235.80L124.32,-155.88L133.20,-147L150.96,-164.76L168.72,-147L213.12,-147L230.88,-155.88ZM355.20,-289.08L364.08,-289.08L372.96,-306.84L372.96,-315.72L355.20,-324.60L346.32,-324.60L337.44,-306.84L337.44,-297.96ZM257.52,-218.04L266.40,-209.16L310.80,-253.56L319.68,-253.56L266.40,-164.76L266.40,-155.88L275.28,-147L293.04,-147L310.80,-155.88L355.20,-200.28L346.32,-209.16L301.92,-164.76L293.04,-164.76L346.32,-253.56L346.32,-262.44L328.56,-271.32L301.92,-262.44ZM355.20,-218.04L364.08,-209.16L408.48,-253.56L417.36,-253.56L364.08,-155.88L372.96,-147L390.72,-147L426.24,-218.04L452.88,-244.68L470.64,-253.56L479.52,-244.68L435.12,-164.76L435.12,-155.88L444.00,-147L461.76,-147L479.52,-155.88L523.92,-200.28L515.04,-209.16L470.64,-164.76L461.76,-164.76L506.16,-235.80L506.16,-262.44L479.52,-271.32L452.88,-262.44L426.24,-235.80L435.12,-253.56L435.12,-262.44L426.24,-271.32L399.60,-262.44ZM541.68,-173.64L541.68,-164.76L550.56,-155.88L506.16,-138.12L497.28,-120.36L506.16,-93.72L541.68,-75.96L559.44,-75.96L594.96,-84.84L612.72,-111.48L612.72,-129.24L568.32,-164.76L568.32,-173.64L594.96,-173.64L639.36,-200.28L648.24,-226.92L639.36,-253.56L666.00,-253.56L666.00,-262.44L630.48,-262.44L594.96,-271.32L550.56,-244.68L541.68,-218.04L559.44,-182.52ZM594.96,-253.56L612.72,-253.56L621.60,-226.92L621.60,-218.04L594.96,-191.40L577.20,-191.40L568.32,-218.04L568.32,-226.92ZM559.44,-147L586.08,-120.36L586.08,-102.60L559.44,-84.84L532.80,-102.60L523.92,-120.36L532.80,-138.12ZM-199.80,23.50L-199.80,-3.14L-182.04,-56.42L-137.64,-91.94L-119.88,-91.94L-102.12,-74.18L-102.12,-47.54L-84.36,-47.54L-66.60,-65.30L-75.48,-83.06L-119.88,-100.82L-146.52,-100.82L-182.04,-83.06L-208.68,-56.42L-226.44,-29.78L-235.32,14.62L-217.56,59.02L-182.04,76.78L-146.52,76.78L-119.88,59.02L-93.24,32.38L-102.12,23.50L-128.76,50.14L-155.40,67.90L-173.16,67.90L-190.92,59.02ZM48.84,59.02L75.48,32.38L93.24,5.74L102.12,-38.66L84.36,-83.06L39.96,-100.82L13.32,-100.82L-22.20,-83.06L-48.84,-56.42L-66.60,-29.78L-75.48,14.62L-57.72,59.02L-13.32,76.78L13.32,76.78ZM66.60,-47.54L66.60,-20.90L48.84,32.38L22.20,59.02L4.44,67.90L-13.32,67.90L-31.08,59.02L-39.96,23.50L-39.96,-3.14L-22.20,-56.42L22.20,-91.94L39.96,-91.94L57.72,-83.06ZM146.52,-65.30L155.40,-83.06L173.16,-91.94L199.80,-83.06L208.68,-47.54L190.92,-12.02L164.28,14.62L84.36,67.90L84.36,76.78L173.16,76.78L199.80,85.66L217.56,23.50L208.68,23.50L173.16,67.90L119.88,59.02L164.28,32.38L199.80,5.74L235.32,-38.66L235.32,-56.42L226.44,-83.06L190.92,-100.82L164.28,-100.82L128.76,-83.06L119.88,-56.42L137.64,-29.78L146.52,-29.78Z" fill="#ffffff" stroke="#000000"/>
    <path d="M-609.06,-271.09L-690.80,-143.83L-696.87,-266.76L-680.17,-285.18L-741.64,-282.15L-723.21,-265.45L-714.97,-98.62L-697.84,-108.27L-591.50,-271.96L-566.03,-290.82L-627.49,-287.78ZM-494.05,-259.17L-485.27,-259.60L-477.36,-277.60L-477.79,-286.38L-495.78,-294.29L-504.56,-293.86L-512.48,-275.86L-512.04,-267.08ZM-587.17,-184.15L-577.95,-175.81L-536.22,-221.88L-527.44,-222.31L-575.78,-131.90L-575.35,-123.12L-566.14,-114.78L-548.57,-115.64L-531.45,-125.29L-489.71,-171.36L-498.93,-179.71L-540.66,-133.64L-549.44,-133.20L-501.09,-223.61L-501.53,-232.39L-519.52,-240.31L-545.43,-230.22ZM-469.98,-128.33L-471.28,-154.67L-480.50,-163.02L-497.63,-153.37L-496.33,-127.03L-478.33,-119.11L-460.77,-119.98L-434.86,-130.06L-418.17,-148.49L-419.04,-166.05L-429.98,-209.52L-430.85,-227.08L-413.72,-236.73L-412.42,-210.39L-403.21,-202.04L-386.08,-211.69L-387.38,-238.03L-414.16,-245.51L-448.85,-234.99L-456.76,-217.00L-455.89,-199.44L-445.38,-164.75L-444.51,-147.19L-461.20,-128.76ZM-217.52,-184.80L-226.73,-193.15L-268.47,-147.08L-277.25,-146.65L-228.90,-237.05L-238.11,-245.40L-255.67,-244.53L-287.76,-181.33L-321.15,-144.48L-329.93,-144.04L-339.58,-161.17L-299.14,-233.58L-299.58,-242.36L-317.57,-250.28L-343.48,-240.20L-385.21,-194.13L-376.00,-185.78L-334.27,-231.85L-325.48,-232.28L-365.92,-159.87L-355.84,-133.96L-337.84,-126.05L-320.28,-126.92L-295.24,-154.56L-294.37,-137.00L-285.16,-128.65L-276.38,-129.09L-259.25,-138.73ZM-80.06,-253.20L-89.28,-261.55L-105.54,-234.34L-115.19,-251.47L-150.74,-258.52L-192.91,-221.23L-208.30,-176.46L-197.79,-141.77L-179.79,-133.86L-162.23,-134.72L-137.19,-162.36L-136.32,-144.80L-127.11,-136.46L-101.20,-146.54L-59.47,-192.61L-68.68,-200.96L-110.42,-154.88L-119.20,-154.45ZM-163.10,-152.28L-171.88,-151.85L-181.96,-177.76L-166.14,-213.75L-141.09,-241.39L-123.53,-242.26L-113.89,-225.13L-113.45,-216.35L-138.06,-179.93ZM-31.39,-158.79L39.39,-329.52L-22.07,-326.48L-21.64,-317.70L4.71,-319.00L-57.73,-157.49L-57.30,-148.71L-39.31,-140.79L-13.40,-150.87L28.34,-196.94L19.12,-205.29L-22.61,-159.22ZM120.59,-289.52L129.37,-289.95L137.28,-307.95L136.85,-316.73L118.85,-324.64L110.07,-324.21L102.16,-306.21L102.59,-297.43ZM27.47,-214.51L36.68,-206.16L78.42,-252.23L87.20,-252.66L38.85,-162.26L39.29,-153.48L48.50,-145.13L66.06,-146.00L83.19,-155.64L124.92,-201.71L115.71,-210.06L73.97,-163.99L65.19,-163.56L113.54,-253.96L113.11,-262.74L95.11,-270.66L69.20,-260.58ZM213.59,-188.49L204.38,-196.84L187.25,-187.19L188.12,-169.63L152.56,-176.67L244.81,-269.25L235.60,-277.60L218.91,-259.17L182.92,-274.99L139.45,-264.04L141.62,-220.14L150.40,-220.58L149.53,-238.14L157.88,-247.35L202.21,-240.74L109.53,-156.94L118.74,-148.60L135.44,-167.03L153.87,-150.33L197.77,-152.50L214.90,-162.15ZM331.32,-299.93L340.10,-300.36L348.01,-318.35L347.58,-327.13L329.58,-335.05L320.80,-334.61L312.89,-316.62L313.32,-307.84ZM238.20,-224.91L247.42,-216.57L289.15,-262.64L297.93,-263.07L249.58,-172.66L250.02,-163.88L259.23,-155.54L276.79,-156.40L293.92,-166.05L335.65,-212.12L326.44,-220.47L284.71,-174.40L275.93,-173.96L324.27,-264.37L323.84,-273.15L305.84,-281.06L279.94,-270.98ZM334.79,-229.68L344.00,-221.33L385.74,-267.41L394.52,-267.84L346.60,-168.65L355.82,-160.30L373.38,-161.17L405.03,-233.15L430.07,-260.79L447.20,-270.44L456.41,-262.09L416.41,-180.90L416.85,-172.12L426.06,-163.77L443.62,-164.64L460.75,-174.29L502.48,-220.36L493.27,-228.71L451.54,-182.64L442.75,-182.20L483.19,-254.61L481.89,-280.96L455.11,-288.44L429.20,-278.35L404.16,-250.71L412.08,-268.71L411.64,-277.49L402.43,-285.83L376.52,-275.75ZM521.35,-194.88L521.78,-186.10L530.99,-177.76L487.96,-158.03L480.04,-140.03L490.13,-114.13L526.12,-98.30L543.68,-99.17L578.36,-109.68L594.62,-136.89L593.76,-154.45L548.12,-187.41L547.69,-196.19L574.03,-197.49L616.63,-226.00L624.11,-252.77L614.03,-278.68L640.37,-279.98L639.94,-288.76L604.81,-287.03L569.26,-294.07L526.66,-265.56L519.18,-238.79L538.47,-204.53ZM570.13,-276.51L587.69,-277.38L597.77,-251.47L598.20,-242.69L573.16,-215.05L555.60,-214.18L545.52,-240.09L545.09,-248.87ZM540.21,-169.41L567.85,-144.37L568.72,-126.81L543.24,-107.95L516.03,-124.21L506.39,-141.33L514.30,-159.33ZM-202.20,36.25L-203.50,9.91L-188.54,-43.64L-146.37,-80.93L-128.81,-81.80L-110.38,-65.11L-109.08,-38.77L-91.52,-39.63L-74.83,-58.06L-84.48,-75.19L-129.25,-90.58L-155.59,-89.28L-189.84,-69.99L-214.88,-42.34L-231.14,-15.13L-237.76,29.20L-218.03,72.24L-182.04,88.06L-146.92,86.33L-121.44,67.47L-96.40,39.83L-105.61,31.48L-130.66,59.12L-156.13,77.98L-173.69,78.85L-191.69,70.94ZM45.39,59.23L70.43,31.59L86.69,4.38L93.30,-39.96L73.57,-82.99L28.80,-98.39L2.46,-97.09L-31.79,-77.79L-56.83,-50.15L-73.09,-22.94L-79.71,21.40L-59.98,64.43L-15.21,79.83L11.13,78.52ZM57.75,-47.00L59.05,-20.66L44.09,32.89L19.05,60.53L1.92,70.18L-15.64,71.04L-33.64,63.13L-44.15,28.44L-45.45,2.10L-30.49,-51.45L11.68,-88.74L29.24,-89.61L47.23,-81.69ZM135.90,-68.47L143.82,-86.46L160.94,-96.11L187.72,-88.63L198.23,-53.94L182.41,-17.95L157.37,9.69L80.94,66.28L81.38,75.06L169.18,70.72L195.96,78.20L210.48,15.87L201.70,16.30L168.75,61.94L115.63,55.76L158.23,27.25L192.06,-0.82L225.01,-46.46L224.14,-64.02L214.06,-89.93L178.07,-105.76L151.73,-104.46L117.48,-85.16L110.00,-58.39L128.86,-32.91L137.64,-33.35Z" fill="#ffffff" stroke="#000000"/>
    <path d="M-620.97,-234.78L-695.57,-104.97L-707.57,-226.21L-691.97,-245.25L-752.59,-239.24L-733.55,-223.64L-717.26,-59.10L-700.80,-69.47L-603.65,-236.50L-579.39,-256.39L-640.01,-250.39ZM-506.68,-228.61L-498.02,-229.47L-491.07,-247.65L-491.93,-256.31L-510.11,-263.25L-518.77,-262.39L-525.71,-244.22L-524.86,-235.56ZM-595.08,-149.90L-585.56,-142.10L-546.55,-189.68L-537.89,-190.54L-581.28,-98.80L-580.42,-90.14L-570.90,-82.33L-553.58,-84.05L-537.12,-94.42L-498.10,-142.01L-507.62,-149.81L-546.64,-102.23L-555.30,-101.37L-511.91,-193.11L-512.77,-201.77L-530.94,-208.72L-556.07,-197.49ZM-476.50,-100.42L-479.07,-126.40L-488.59,-134.21L-505.05,-123.83L-502.48,-97.85L-484.30,-90.91L-466.98,-92.62L-441.86,-103.85L-426.25,-122.89L-427.97,-140.21L-440.91,-182.65L-442.63,-199.97L-426.17,-210.35L-423.59,-184.37L-414.08,-176.56L-397.61,-186.94L-400.19,-212.92L-427.02,-219.01L-460.81,-206.92L-467.75,-188.74L-466.04,-171.42L-453.95,-137.64L-452.23,-120.32L-467.84,-101.28ZM-229.64,-168.59L-239.16,-176.39L-278.17,-128.80L-286.83,-127.95L-243.45,-219.69L-252.96,-227.49L-270.28,-225.78L-298.92,-161.73L-330.13,-123.66L-338.79,-122.80L-349.17,-139.27L-312.73,-212.83L-313.59,-221.49L-331.76,-228.44L-356.89,-217.21L-395.90,-169.62L-386.38,-161.82L-347.37,-209.40L-338.71,-210.26L-375.15,-136.69L-363.92,-111.57L-345.74,-104.63L-328.42,-106.34L-305.01,-134.89L-303.30,-117.57L-293.78,-109.77L-285.12,-110.63L-268.66,-121.00ZM-97.08,-242.93L-106.60,-250.73L-121.35,-223.04L-131.72,-239.50L-167.22,-244.73L-207.09,-205.80L-220.13,-160.79L-208.04,-127.00L-189.86,-120.06L-172.54,-121.77L-149.13,-150.33L-147.42,-133.01L-137.90,-125.20L-112.77,-136.44L-73.76,-184.02L-83.28,-191.83L-122.29,-144.24L-130.95,-143.38ZM-174.25,-139.09L-182.91,-138.24L-194.14,-163.36L-180.25,-199.71L-156.85,-228.27L-139.53,-229.98L-129.15,-213.52L-128.29,-204.86L-150.84,-167.65ZM-44.35,-151.95L17.30,-324.21L-43.32,-318.21L-42.46,-309.55L-16.48,-312.12L-70.33,-149.38L-69.47,-140.72L-51.30,-133.78L-26.17,-145.01L12.84,-192.60L3.32,-200.40L-35.69,-152.81ZM99.53,-288.63L108.19,-289.49L115.13,-307.66L114.27,-316.32L96.10,-323.27L87.44,-322.41L80.49,-304.23L81.35,-295.57ZM11.12,-209.92L20.64,-202.11L59.65,-249.70L68.31,-250.56L24.93,-158.81L25.79,-150.15L35.30,-142.35L52.62,-144.07L69.09,-154.44L108.10,-202.03L98.58,-209.83L59.57,-162.24L50.91,-161.39L94.30,-253.13L93.44,-261.79L75.26,-268.74L50.14,-257.50ZM196.41,-193.28L186.90,-201.08L170.43,-190.71L172.15,-173.39L136.65,-178.62L223.34,-274.65L213.82,-282.45L198.22,-263.42L161.86,-277.31L119.42,-264.36L123.70,-221.06L132.36,-221.92L130.65,-239.24L138.45,-248.76L182.61,-244.38L95.07,-157.01L104.58,-149.21L120.19,-168.25L139.22,-152.64L182.52,-156.93L198.99,-167.30ZM307.37,-309.21L316.03,-310.06L322.97,-328.24L322.11,-336.90L303.94,-343.85L295.28,-342.99L288.33,-324.81L289.19,-316.15ZM218.97,-230.49L228.48,-222.69L267.50,-270.28L276.16,-271.14L232.77,-179.39L233.63,-170.73L243.14,-162.93L260.47,-164.64L276.93,-175.02L315.94,-222.61L306.42,-230.41L267.41,-182.82L258.75,-181.96L302.14,-273.71L301.28,-282.37L283.10,-289.31L257.98,-278.08ZM314.23,-239.93L323.74,-232.12L362.76,-279.71L371.42,-280.57L328.89,-180.16L338.41,-172.36L355.73,-174.07L383.51,-246.78L406.91,-275.34L423.38,-285.71L432.89,-277.91L397.31,-195.68L398.17,-187.02L407.69,-179.22L425.01,-180.93L441.47,-191.31L480.48,-238.90L470.96,-246.70L431.95,-199.11L423.29,-198.25L459.73,-271.82L457.16,-297.80L430.32,-303.89L405.20,-292.66L381.79,-264.10L388.74,-282.28L387.88,-290.94L378.36,-298.75L353.24,-287.51ZM500.37,-214.63L501.23,-205.97L510.75,-198.17L469.16,-176.56L462.22,-158.38L473.45,-133.26L509.81,-119.37L527.13,-121.08L560.91,-133.17L575.66,-160.87L573.94,-178.19L527.21,-208.54L526.35,-217.20L552.33,-219.78L593.06,-250.04L599.15,-276.88L587.92,-302.00L613.90,-304.57L613.04,-313.24L578.40,-309.81L542.90,-315.04L502.18,-284.77L496.09,-257.93L516.84,-225.01ZM544.62,-297.72L561.94,-299.43L573.17,-274.31L574.03,-265.65L550.62,-237.10L533.30,-235.38L522.07,-260.50L521.21,-269.16ZM520.27,-190.37L548.82,-166.96L550.53,-149.64L526.27,-129.74L498.57,-144.49L488.20,-160.96L495.14,-179.13ZM-203.71,49.22L-206.28,23.24L-194.10,-30.44L-154.23,-69.37L-136.91,-71.08L-117.88,-55.48L-115.30,-29.50L-97.98,-31.21L-82.38,-50.25L-92.75,-66.71L-137.77,-79.74L-163.75,-77.17L-196.67,-56.42L-220.08,-27.87L-234.83,-0.17L-239.20,43.99L-217.60,85.57L-181.24,99.46L-146.60,96.03L-122.34,76.14L-98.93,47.59L-108.45,39.78L-131.85,68.34L-156.12,88.23L-173.44,89.94L-191.62,83.00ZM42.21,59.85L65.61,31.30L80.36,3.60L84.73,-40.56L63.13,-82.14L18.11,-95.18L-7.87,-92.60L-40.79,-71.85L-64.20,-43.30L-78.95,-15.61L-83.32,28.55L-61.72,70.14L-16.70,83.17L9.28,80.60ZM49.24,-45.79L51.81,-19.81L39.63,33.87L16.22,62.42L-0.24,72.80L-17.56,74.51L-35.74,67.57L-47.83,33.78L-50.40,7.80L-38.22,-45.87L1.65,-84.80L18.97,-86.51L37.15,-79.57ZM125.46,-70.82L132.41,-89.00L148.87,-99.38L175.71,-93.29L187.80,-59.51L173.91,-23.15L150.50,5.40L77.70,65.08L78.56,73.74L165.16,65.17L192.00,71.25L203.32,8.92L194.66,9.78L164.30,56.51L111.49,52.99L152.21,22.72L184.28,-6.69L214.63,-53.42L212.92,-70.74L201.69,-95.86L165.33,-109.75L139.35,-107.18L106.43,-86.43L100.34,-59.59L120.23,-35.33L128.89,-36.18Z" fill="#ffffff" stroke="#000000"/>
    <path d="M-630.68,-198.05L-698.09,-66.08L-715.87,-185.35L-701.37,-204.93L-761.01,-196.04L-741.43,-181.54L-717.29,-19.67L-701.52,-30.73L-613.64,-200.59L-590.62,-221.44L-650.26,-212.55ZM-517.39,-197.53L-508.87,-198.80L-502.89,-217.11L-504.16,-225.63L-522.47,-231.61L-530.99,-230.34L-536.97,-212.03L-535.69,-203.51ZM-600.94,-115.40L-591.15,-108.15L-554.90,-157.10L-546.38,-158.37L-584.79,-65.55L-583.52,-57.03L-573.73,-49.79L-556.70,-52.33L-540.93,-63.39L-504.68,-112.34L-514.47,-119.58L-550.72,-70.64L-559.24,-69.37L-520.82,-162.18L-522.09,-170.70L-540.40,-176.68L-564.69,-164.35ZM-481.29,-72.28L-485.10,-97.84L-494.89,-105.09L-510.66,-94.03L-506.85,-68.47L-488.54,-62.49L-471.50,-65.03L-447.21,-77.36L-432.72,-96.94L-435.26,-113.98L-450.13,-155.31L-452.67,-172.35L-436.90,-183.41L-433.09,-157.85L-423.30,-150.60L-407.53,-161.66L-411.34,-187.22L-438.17,-191.92L-470.98,-178.32L-476.96,-160.01L-474.42,-142.98L-460.81,-110.17L-458.27,-93.13L-472.77,-73.55ZM-240.58,-151.72L-250.37,-158.97L-286.62,-110.02L-295.13,-108.75L-256.72,-201.56L-266.51,-208.81L-283.55,-206.27L-308.74,-141.56L-337.73,-102.40L-346.25,-101.13L-357.31,-116.89L-324.88,-191.40L-326.15,-199.92L-344.46,-205.90L-368.74,-193.57L-404.99,-144.62L-395.20,-137.37L-358.95,-186.32L-350.44,-187.59L-382.87,-113.08L-370.54,-88.79L-352.23,-82.82L-335.19,-85.36L-313.44,-114.73L-310.90,-97.69L-301.11,-90.44L-292.59,-91.71L-276.83,-102.77ZM-113.16,-231.68L-122.95,-238.93L-136.18,-210.83L-147.24,-226.60L-182.59,-230.04L-220.10,-189.61L-230.79,-144.47L-217.19,-111.66L-198.88,-105.68L-181.84,-108.22L-160.09,-137.59L-157.55,-120.55L-147.76,-113.31L-123.48,-125.64L-87.23,-174.59L-97.02,-181.83L-133.27,-132.89L-141.79,-131.62ZM-184.38,-125.26L-192.90,-123.99L-205.23,-148.28L-193.28,-184.90L-171.53,-214.27L-154.49,-216.81L-143.43,-201.04L-142.16,-192.52L-162.64,-154.63ZM-56.59,-144.32L-4.05,-317.62L-63.69,-308.73L-62.42,-300.21L-36.86,-304.02L-82.15,-140.51L-80.88,-131.99L-62.57,-126.01L-38.28,-138.34L-2.04,-187.29L-11.83,-194.54L-48.07,-145.59ZM78.97,-286.46L87.49,-287.73L93.47,-306.04L92.20,-314.56L73.89,-320.54L65.37,-319.26L59.39,-300.96L60.66,-292.44ZM-4.58,-204.33L5.21,-197.08L41.46,-246.03L49.98,-247.30L11.56,-154.48L12.83,-145.96L22.62,-138.71L39.66,-141.25L55.43,-152.31L91.68,-201.26L81.89,-208.51L45.64,-159.56L37.12,-158.29L75.53,-251.11L74.26,-259.63L55.95,-265.61L31.67,-253.28ZM179.41,-196.93L169.62,-204.18L153.85,-193.12L156.39,-176.08L121.05,-179.52L202.06,-278.69L192.27,-285.93L177.77,-266.35L141.15,-278.31L99.82,-263.44L106.17,-220.84L114.69,-222.11L112.15,-239.15L119.40,-248.94L163.27,-246.77L80.99,-156.13L90.78,-148.88L105.28,-168.46L124.86,-153.96L167.45,-160.31L183.22,-171.37ZM283.44,-316.95L291.96,-318.22L297.94,-336.53L296.67,-345.05L278.36,-351.02L269.84,-349.75L263.86,-331.45L265.13,-322.93ZM199.89,-234.82L209.68,-227.57L245.92,-276.52L254.44,-277.79L216.03,-184.97L217.30,-176.45L227.09,-169.20L244.13,-171.74L259.90,-182.80L296.14,-231.75L286.35,-239.00L250.11,-190.05L241.59,-188.78L280.00,-281.60L278.73,-290.12L260.42,-296.10L236.13,-283.77ZM293.60,-248.79L303.39,-241.54L339.64,-290.49L348.16,-291.76L311.01,-190.43L320.80,-183.18L337.84,-185.72L361.76,-258.96L383.50,-288.32L399.27,-299.38L409.06,-292.14L377.90,-209.11L379.17,-200.59L388.96,-193.34L406.00,-195.88L421.77,-206.94L458.01,-255.89L448.22,-263.14L411.98,-214.19L403.46,-212.92L435.89,-287.43L432.08,-312.99L405.25,-317.69L380.96,-305.36L359.22,-275.99L365.19,-294.30L363.92,-302.82L354.13,-310.07L329.85,-297.74ZM478.86,-232.87L480.13,-224.35L489.92,-217.11L449.86,-193.71L443.89,-175.41L456.22,-151.12L492.83,-139.16L509.87,-141.70L542.68,-155.30L555.91,-183.40L553.37,-200.44L505.69,-228.17L504.42,-236.68L529.98,-240.50L568.76,-272.41L573.47,-299.23L561.14,-323.52L586.70,-327.33L585.43,-335.85L551.35,-330.77L516.00,-334.21L477.22,-302.30L472.51,-275.47L494.63,-243.93ZM518.54,-317.17L535.58,-319.71L547.91,-295.42L549.18,-286.90L527.44,-257.53L510.40,-254.99L498.07,-279.28L496.80,-287.80ZM499.71,-209.86L529.08,-188.11L531.62,-171.07L508.60,-150.22L480.50,-163.45L469.44,-179.22L475.42,-197.53ZM-204.31,62.34L-208.12,36.78L-198.70,-16.88L-161.19,-57.31L-144.15,-59.85L-124.57,-45.35L-120.76,-19.79L-103.72,-22.33L-89.22,-41.91L-100.28,-57.68L-145.42,-68.37L-170.98,-64.56L-202.51,-42.44L-224.26,-13.07L-237.49,15.03L-239.65,58.90L-216.26,98.95L-179.65,110.91L-145.57,105.83L-122.55,84.98L-100.80,55.61L-110.59,48.36L-132.34,77.73L-155.36,98.58L-172.40,101.12L-190.71,95.14ZM39.32,60.84L61.07,31.47L74.29,3.37L76.46,-40.49L53.07,-80.55L7.93,-91.24L-17.63,-87.43L-49.16,-65.31L-70.91,-35.94L-84.14,-7.84L-86.31,36.03L-62.91,76.09L-17.78,86.77L7.78,82.96ZM41.11,-43.93L44.92,-18.37L35.51,35.28L13.76,64.65L-2.01,75.71L-19.05,78.25L-37.36,72.28L-50.96,39.47L-54.77,13.91L-45.35,-39.75L-7.84,-80.18L9.20,-82.72L27.51,-76.74ZM115.25,-72.40L121.22,-90.71L136.99,-101.77L163.82,-97.07L177.42,-64.26L165.47,-27.64L143.72,1.73L74.67,64.28L75.94,72.80L161.13,60.10L187.96,64.80L196.11,2.63L187.59,3.90L159.86,51.58L107.47,50.68L146.26,18.77L176.53,-11.87L204.25,-59.55L201.71,-76.59L189.38,-100.88L152.76,-112.83L127.20,-109.02L95.67,-86.90L90.96,-60.07L111.81,-37.06L120.33,-38.33Z" fill="#ffffff" stroke="#000000"/>
    <path d="M-638.17,-161.03L-698.36,-27.29L-721.76,-144.32L-708.39,-164.38L-766.90,-152.68L-746.84,-139.30L-715.08,19.52L-700.03,7.82L-621.45,-164.38L-599.72,-186.11L-658.23,-174.41ZM-526.15,-166.05L-517.79,-167.72L-512.78,-186.11L-514.45,-194.47L-532.84,-199.48L-541.20,-197.81L-546.22,-179.42L-544.54,-171.06ZM-604.73,-80.78L-594.70,-74.10L-561.26,-124.25L-552.90,-125.92L-586.34,-32.30L-584.67,-23.94L-574.64,-17.25L-557.92,-20.60L-542.88,-32.30L-509.44,-82.45L-519.47,-89.14L-552.91,-38.99L-561.27,-37.31L-527.83,-130.94L-529.50,-139.30L-547.89,-144.31L-571.30,-130.94ZM-484.36,-44.00L-489.38,-69.08L-499.41,-75.77L-514.45,-64.06L-509.44,-38.99L-491.05,-33.97L-474.33,-37.31L-450.92,-50.69L-437.55,-70.75L-440.89,-87.47L-457.61,-127.59L-460.95,-144.31L-445.91,-156.01L-440.89,-130.94L-430.86,-124.25L-415.81,-135.95L-420.83,-161.03L-447.58,-164.37L-479.34,-149.33L-484.36,-130.94L-481.02,-114.22L-465.97,-82.45L-462.63,-65.73L-476.00,-45.67ZM-250.30,-134.27L-260.33,-140.96L-293.77,-90.81L-302.13,-89.14L-268.69,-182.76L-278.72,-189.45L-295.44,-186.10L-317.17,-120.90L-343.92,-80.78L-352.28,-79.11L-363.99,-94.15L-335.56,-169.39L-337.23,-177.74L-355.63,-182.76L-379.03,-169.39L-412.47,-119.23L-402.44,-112.54L-369.00,-162.70L-360.64,-164.37L-389.06,-89.14L-375.69,-65.73L-357.30,-60.72L-340.58,-64.06L-320.52,-94.15L-317.18,-77.43L-307.14,-70.75L-298.78,-72.42L-283.74,-84.12ZM-128.25,-219.54L-138.28,-226.22L-149.99,-197.80L-161.69,-212.85L-196.80,-214.52L-231.91,-172.73L-240.27,-127.59L-225.22,-95.82L-206.83,-90.80L-190.11,-94.15L-170.05,-124.24L-166.71,-107.52L-156.68,-100.83L-133.27,-114.21L-99.83,-164.36L-109.86,-171.05L-143.30,-120.90L-151.66,-119.22ZM-193.46,-110.87L-201.82,-109.20L-215.19,-132.60L-205.16,-169.38L-185.10,-199.47L-168.38,-202.82L-156.67,-187.77L-155.00,-179.41L-173.39,-140.96ZM-68.07,-135.94L-24.60,-309.81L-83.11,-298.11L-81.44,-289.75L-56.36,-294.77L-93.15,-130.93L-91.47,-122.57L-73.08,-117.55L-49.68,-130.93L-16.24,-181.08L-26.27,-187.77L-59.71,-137.61ZM59.00,-283.06L67.36,-284.73L72.37,-303.12L70.70,-311.48L52.31,-316.50L43.95,-314.83L38.93,-296.44L40.61,-288.08ZM-19.58,-197.80L-9.55,-191.11L23.89,-241.27L32.25,-242.94L-1.19,-149.31L0.48,-140.96L10.51,-134.27L27.23,-137.61L42.27,-149.31L75.71,-199.47L65.68,-206.16L32.24,-156.00L23.88,-154.33L57.32,-247.95L55.65,-256.31L37.26,-261.33L13.86,-247.95ZM162.65,-199.47L152.62,-206.15L137.57,-194.45L140.91,-177.73L105.81,-179.40L181.04,-281.39L171.01,-288.07L157.64,-268.01L120.85,-278.04L80.73,-261.33L89.09,-219.53L97.45,-221.20L94.10,-237.92L100.79,-247.95L144.26,-247.95L67.35,-154.33L77.38,-147.64L90.76,-167.70L110.82,-154.33L152.62,-162.69L167.66,-174.39ZM259.62,-323.18L267.98,-324.85L272.99,-343.24L271.32,-351.60L252.93,-356.62L244.57,-354.95L239.56,-336.56L241.23,-328.20ZM181.04,-237.92L191.07,-231.23L224.51,-281.38L232.87,-283.06L199.43,-189.43L201.10,-181.07L211.13,-174.39L227.85,-177.73L242.90,-189.43L276.34,-239.59L266.31,-246.27L232.87,-196.12L224.51,-194.45L257.95,-288.07L256.28,-296.43L237.88,-301.45L214.48,-288.07ZM272.99,-256.31L283.02,-249.62L316.46,-299.77L324.82,-301.44L293.05,-199.46L303.08,-192.77L319.80,-196.12L339.87,-269.68L359.93,-299.77L374.98,-311.47L385.01,-304.79L358.26,-221.19L359.93,-212.84L369.96,-206.15L386.68,-209.49L401.72,-221.19L435.16,-271.35L425.13,-278.04L391.69,-227.88L383.33,-226.21L411.76,-301.44L406.74,-326.52L379.99,-329.86L356.59,-316.49L336.52,-286.40L341.54,-304.79L339.87,-313.15L329.84,-319.83L306.43,-306.46ZM456.90,-249.61L458.57,-241.25L468.60,-234.57L430.15,-209.49L425.13,-191.10L438.50,-167.69L475.28,-157.66L492.00,-161.00L523.77,-176.05L535.47,-204.47L532.13,-221.19L483.65,-246.27L481.97,-254.63L507.05,-259.64L543.83,-293.08L547.18,-319.83L533.80,-343.24L558.88,-348.25L557.21,-356.61L523.77,-349.92L488.66,-351.60L451.88,-318.16L448.54,-291.41L471.94,-261.32ZM492.01,-334.88L508.73,-338.22L522.10,-314.81L523.77,-306.45L503.71,-276.36L486.99,-273.02L473.62,-296.43L471.94,-304.78ZM478.63,-227.88L508.72,-207.82L512.07,-191.10L490.33,-169.36L461.91,-181.07L450.21,-196.11L455.22,-214.50ZM-203.99,75.54L-209.01,50.47L-202.32,-3.03L-167.21,-44.83L-150.49,-48.17L-130.43,-34.80L-125.42,-9.72L-108.70,-13.06L-95.32,-33.12L-107.02,-48.17L-152.16,-56.53L-177.24,-51.52L-207.34,-28.11L-227.40,1.98L-239.10,30.40L-239.10,73.87L-214.03,112.32L-177.25,122.36L-143.81,115.67L-122.07,93.94L-102.01,63.84L-112.04,57.16L-132.11,87.25L-153.84,108.98L-170.56,112.33L-188.95,107.31ZM36.75,62.18L56.81,32.08L68.52,3.66L68.52,-39.81L43.44,-78.26L-1.70,-86.62L-26.77,-81.61L-56.87,-58.20L-76.93,-28.11L-88.64,0.31L-88.64,43.78L-63.56,82.24L-18.42,90.60L6.66,85.58ZM33.41,-41.48L38.43,-16.40L31.74,37.10L11.67,67.19L-3.37,78.89L-20.09,82.24L-38.48,77.22L-53.53,45.45L-58.54,20.38L-51.85,-33.12L-16.74,-74.92L-0.03,-78.26L18.37,-73.24ZM105.30,-73.24L110.32,-91.63L125.36,-103.34L152.11,-99.99L167.16,-68.23L157.13,-31.44L137.06,-1.35L71.86,63.85L73.53,72.21L157.13,55.49L183.87,58.84L188.89,-3.02L180.53,-1.35L155.45,47.13L103.63,48.80L140.41,15.37L168.83,-16.40L193.91,-64.88L190.57,-81.60L177.19,-105.01L140.41,-115.04L115.33,-110.02L85.24,-86.62L81.90,-59.87L103.63,-38.13L111.99,-39.81Z" fill="#ffffff" stroke="#000000"/>
    <path d="M-643.44,-123.86L-696.41,11.27L-725.25,-103.26L-713.01,-123.74L-770.27,-109.32L-749.79,-97.08L-710.65,58.36L-696.35,46.05L-627.08,-127.98L-606.66,-150.52L-663.92,-136.10ZM-532.98,-134.28L-524.80,-136.34L-520.73,-154.76L-522.80,-162.94L-541.22,-167.00L-549.40,-164.94L-553.46,-146.52L-551.40,-138.34ZM-606.48,-46.17L-596.24,-40.05L-565.64,-91.26L-557.46,-93.32L-585.94,0.85L-583.88,9.03L-573.64,15.15L-557.28,11.03L-542.98,-1.27L-512.37,-52.47L-522.61,-58.59L-553.22,-7.39L-561.40,-5.33L-532.92,-99.50L-534.98,-107.68L-553.40,-111.74L-575.88,-97.38ZM-485.71,-15.69L-491.89,-40.23L-502.13,-46.35L-516.43,-34.05L-510.25,-9.51L-491.83,-5.45L-475.47,-9.57L-452.99,-23.93L-440.75,-44.41L-444.87,-60.78L-463.35,-99.62L-467.47,-115.98L-453.17,-128.28L-446.99,-103.74L-436.75,-97.62L-422.45,-109.92L-428.63,-134.46L-455.23,-136.46L-485.89,-120.04L-489.95,-101.62L-485.83,-85.26L-469.41,-54.59L-465.29,-38.23L-477.53,-17.75ZM-258.78,-116.34L-269.02,-122.46L-299.62,-71.26L-307.80,-69.20L-279.32,-163.36L-289.56,-169.48L-305.92,-165.36L-324.22,-99.86L-348.70,-58.90L-356.88,-56.84L-369.18,-71.14L-344.76,-146.88L-346.82,-155.06L-365.24,-159.12L-387.73,-144.76L-418.33,-93.56L-408.09,-87.44L-377.48,-138.64L-369.30,-140.70L-393.73,-64.96L-379.36,-42.47L-360.94,-38.41L-344.58,-42.54L-326.22,-73.26L-322.10,-56.90L-311.86,-50.78L-303.68,-52.84L-289.38,-65.14ZM-142.31,-206.57L-152.55,-212.69L-162.73,-184.03L-175.03,-198.33L-209.81,-198.27L-242.48,-155.24L-248.54,-110.22L-232.11,-79.56L-213.69,-75.50L-197.33,-79.62L-178.97,-110.34L-174.85,-93.98L-164.61,-87.86L-142.13,-102.22L-111.53,-153.43L-121.77,-159.55L-152.37,-108.34L-160.55,-106.28ZM-201.45,-95.98L-209.63,-93.92L-223.99,-116.40L-215.87,-153.24L-197.51,-183.97L-181.15,-188.09L-168.85,-173.79L-166.79,-165.61L-183.09,-126.70ZM-78.74,-126.88L-44.26,-300.86L-101.53,-286.43L-99.47,-278.25L-74.92,-284.43L-103.29,-120.70L-101.22,-112.52L-82.80,-108.46L-60.32,-122.82L-29.72,-174.03L-39.96,-180.15L-70.56,-128.94ZM39.66,-278.50L47.84,-280.56L51.90,-298.98L49.84,-307.16L31.42,-311.22L23.24,-309.16L19.18,-290.74L21.24,-282.56ZM-33.84,-190.39L-23.60,-184.27L7.00,-235.47L15.18,-237.53L-13.30,-143.37L-11.24,-135.18L-1.00,-129.06L15.36,-133.18L29.66,-145.49L60.27,-196.69L50.03,-202.81L19.42,-151.61L11.24,-149.55L39.72,-243.71L37.66,-251.89L19.24,-255.95L-3.24,-241.59ZM146.19,-200.93L135.95,-207.05L121.65,-194.75L125.77,-178.39L90.99,-178.33L160.37,-282.80L150.13,-288.92L137.89,-268.44L101.05,-276.56L62.21,-258.07L72.51,-217.17L80.69,-219.23L76.57,-235.59L82.69,-245.83L125.65,-247.95L54.21,-151.67L64.45,-145.55L76.69,-166.03L97.17,-153.79L138.07,-164.09L152.37,-176.39ZM236.00,-327.94L244.18,-330.00L248.24,-348.42L246.18,-356.60L227.76,-360.66L219.58,-358.60L215.52,-340.18L217.58,-332.00ZM162.49,-239.83L172.73,-233.71L203.34,-284.92L211.52,-286.98L183.03,-192.81L185.09,-184.63L195.34,-178.51L211.70,-182.63L226.00,-194.93L256.60,-246.13L246.36,-252.26L215.76,-201.05L207.58,-198.99L236.06,-293.16L234.00,-301.34L215.58,-305.40L193.09,-291.04ZM252.48,-262.50L262.72,-256.38L293.32,-307.58L301.50,-309.64L275.08,-207.29L285.32,-201.17L301.68,-205.29L317.92,-278.98L336.28,-309.70L350.59,-322.00L360.83,-315.88L338.47,-231.95L340.53,-223.77L350.77,-217.65L367.13,-221.77L381.43,-234.07L412.03,-285.28L401.79,-291.40L371.19,-240.20L363.01,-238.14L387.43,-313.88L381.25,-338.42L354.65,-340.42L332.16,-326.06L313.80,-295.34L317.86,-313.76L315.80,-321.94L305.56,-328.06L283.08,-313.70ZM434.57,-264.86L436.63,-256.68L446.87,-250.56L410.09,-223.89L406.03,-205.47L420.39,-182.99L457.23,-174.87L473.60,-178.99L504.26,-195.41L514.44,-224.08L510.32,-240.44L461.17,-262.86L459.11,-271.04L483.66,-277.22L518.38,-312.06L520.38,-338.66L506.02,-361.15L530.56,-367.33L528.50,-375.51L495.78,-367.27L460.99,-367.21L426.27,-332.36L424.27,-305.76L448.87,-277.16ZM465.11,-350.84L481.47,-354.96L495.84,-332.48L497.90,-324.30L479.53,-293.58L463.17,-289.46L448.81,-311.94L446.75,-320.12ZM457.11,-244.44L487.84,-226.08L491.96,-209.71L471.54,-187.17L442.87,-197.35L430.57,-211.65L434.63,-230.08ZM-202.77,88.78L-208.95,64.24L-204.95,11.03L-172.29,-31.99L-155.93,-36.11L-135.44,-23.87L-129.26,0.67L-112.90,-3.45L-100.66,-23.93L-112.96,-38.23L-157.99,-44.29L-182.53,-38.11L-211.13,-13.51L-229.49,17.21L-239.67,45.88L-237.55,88.84L-210.89,125.62L-174.05,133.74L-141.32,125.50L-120.90,102.96L-102.54,72.24L-112.78,66.12L-131.14,96.84L-151.56,119.38L-167.93,123.50L-186.35,119.44ZM34.53,63.82L52.89,33.09L63.07,4.43L60.95,-38.53L34.29,-75.31L-10.74,-81.37L-35.28,-75.19L-63.88,-50.59L-82.24,-19.87L-92.42,8.79L-90.30,51.76L-63.64,88.54L-18.62,94.60L5.93,88.42ZM26.17,-38.47L32.35,-13.93L28.35,39.27L9.99,70.00L-4.31,82.30L-20.68,86.42L-39.10,82.36L-55.52,51.70L-61.70,27.15L-57.70,-26.05L-25.04,-69.07L-8.68,-73.19L9.75,-69.13ZM95.67,-73.38L99.73,-91.80L114.03,-104.10L140.63,-102.10L157.06,-71.44L148.94,-34.59L130.57,-3.87L69.31,63.75L71.37,71.94L153.18,51.33L179.78,53.33L181.72,-8.05L173.54,-5.99L151.12,43.15L99.97,47.33L134.69,12.49L161.24,-20.29L183.66,-69.44L179.54,-85.80L165.18,-108.28L128.33,-116.40L103.79,-110.22L75.19,-85.62L73.19,-59.01L95.73,-38.59L103.91,-40.65Z" fill="#ffffff" stroke="#000000"/>
    <path d="M-646.51,-86.66L-692.26,49.47L-726.35,-62.31L-715.26,-83.15L-771.14,-66.10L-750.30,-55.00L-704.03,96.70L-690.50,83.84L-630.54,-91.53L-611.46,-114.81L-667.35,-97.76ZM-537.85,-102.35L-529.86,-104.79L-526.75,-123.19L-529.19,-131.17L-547.59,-134.29L-555.57,-131.85L-558.69,-113.45L-556.25,-105.46ZM-606.19,-11.69L-595.77,-6.14L-568.03,-58.24L-560.04,-60.67L-583.60,33.78L-581.16,41.76L-570.74,47.31L-554.77,42.44L-541.24,29.59L-513.50,-22.51L-523.92,-28.06L-551.66,24.04L-559.64,26.47L-536.09,-67.98L-538.53,-75.96L-556.93,-79.08L-578.45,-63.79ZM-485.35,12.54L-492.66,-11.41L-503.08,-16.96L-516.61,-4.11L-509.30,19.84L-490.90,22.96L-474.93,18.09L-453.42,2.80L-442.32,-18.04L-447.19,-34.01L-467.35,-71.49L-472.22,-87.46L-458.69,-100.32L-451.38,-76.36L-440.96,-70.82L-427.43,-83.67L-434.73,-107.62L-461.12,-108.30L-490.62,-90.58L-493.74,-72.17L-488.87,-56.20L-471.14,-26.70L-466.27,-10.73L-477.37,10.10ZM-265.99,-98.00L-276.41,-103.55L-304.15,-51.46L-312.14,-49.02L-288.59,-143.47L-299.01,-149.02L-314.97,-144.15L-329.86,-78.52L-352.06,-36.84L-360.04,-34.41L-372.90,-47.94L-352.46,-123.99L-354.89,-131.98L-373.30,-135.09L-394.81,-119.80L-422.56,-67.70L-412.14,-62.15L-384.39,-114.25L-376.41,-116.69L-396.85,-40.64L-381.56,-19.12L-363.16,-16.01L-347.19,-20.88L-330.54,-52.13L-325.67,-36.17L-315.25,-30.62L-307.27,-33.05L-293.73,-45.91ZM-155.29,-192.86L-165.71,-198.41L-174.37,-169.58L-187.23,-183.12L-221.60,-181.36L-251.78,-137.25L-255.57,-92.46L-237.85,-62.95L-219.44,-59.84L-203.47,-64.71L-186.83,-95.97L-181.96,-80.00L-171.54,-74.45L-150.02,-89.74L-122.28,-141.84L-132.70,-147.39L-160.44,-95.29L-168.42,-92.86ZM-208.34,-80.68L-216.33,-78.24L-231.62,-99.76L-225.39,-136.57L-208.75,-167.83L-192.78,-172.70L-179.92,-159.16L-177.49,-151.18L-191.70,-111.94ZM-88.58,-117.21L-63.00,-290.82L-118.89,-273.78L-116.45,-265.79L-92.50,-273.10L-112.54,-109.90L-110.10,-101.92L-91.70,-98.81L-70.18,-114.10L-42.44,-166.19L-52.86,-171.74L-80.60,-119.64ZM21.04,-272.82L29.02,-275.26L32.13,-293.66L29.70,-301.64L11.29,-304.76L3.31,-302.32L0.20,-283.92L2.63,-275.93ZM-47.31,-182.16L-36.89,-176.61L-9.14,-228.71L-1.16,-231.14L-24.71,-136.69L-22.28,-128.71L-11.86,-123.16L4.11,-128.03L17.64,-140.88L45.39,-192.98L34.97,-198.53L7.22,-146.43L-0.76,-144.00L22.79,-238.45L20.36,-246.43L1.95,-249.55L-19.56,-234.26ZM130.10,-201.37L119.68,-206.91L106.15,-194.06L111.02,-178.09L76.65,-176.33L140.12,-282.96L129.70,-288.51L118.60,-267.67L81.79,-273.90L44.31,-253.74L56.49,-213.82L64.47,-216.25L59.60,-232.22L65.15,-242.64L107.50,-246.83L41.60,-148.19L52.02,-142.64L63.11,-163.48L83.95,-152.38L123.87,-164.56L137.40,-177.41ZM212.65,-331.27L220.64,-333.70L223.75,-352.11L221.31,-360.09L202.91,-363.20L194.93,-360.77L191.81,-342.37L194.25,-334.38ZM144.31,-240.61L154.73,-235.06L182.47,-287.16L190.46,-289.59L166.91,-195.14L169.34,-187.15L179.76,-181.61L195.73,-186.48L209.26,-199.33L237.01,-251.43L226.59,-256.98L198.84,-204.88L190.86,-202.44L214.41,-296.90L211.97,-304.88L193.57,-307.99L172.05,-292.70ZM232.13,-267.40L242.55,-261.85L270.30,-313.94L278.28,-316.38L257.17,-213.94L267.59,-208.39L283.55,-213.26L296.01,-286.88L312.65,-318.14L326.19,-330.99L336.61,-325.44L318.60,-241.41L321.04,-233.42L331.46,-227.88L347.43,-232.75L360.96,-245.60L388.70,-297.70L378.28,-303.25L350.54,-251.15L342.56,-248.71L362.99,-324.76L355.69,-348.72L329.30,-349.39L307.78,-334.10L291.14,-302.85L294.25,-321.25L291.81,-329.23L281.40,-334.78L259.88,-319.49ZM411.98,-278.62L414.41,-270.63L424.83,-265.08L389.78,-236.94L386.67,-218.54L401.96,-197.02L438.76,-190.79L454.73,-195.66L484.23,-213.39L492.90,-242.21L488.03,-258.18L438.36,-277.94L435.93,-285.92L459.88,-293.23L492.49,-329.36L493.17,-355.74L477.88,-377.26L501.84,-384.57L499.40,-392.55L467.46,-382.81L433.09,-381.05L400.48,-344.92L399.80,-318.54L425.51,-291.47ZM437.96,-365.08L453.93,-369.96L469.22,-348.44L471.66,-340.45L455.01,-309.20L439.04,-304.33L423.75,-325.84L421.32,-333.83ZM435.25,-259.53L466.51,-242.89L471.38,-226.92L452.30,-203.65L423.47,-212.31L410.62,-225.84L413.73,-244.24ZM-200.63,101.98L-207.93,78.02L-206.58,25.25L-176.40,-18.86L-160.43,-23.73L-139.59,-12.64L-132.29,11.32L-116.32,6.44L-105.22,-14.39L-118.08,-27.93L-162.87,-31.72L-186.82,-24.41L-213.88,1.30L-230.53,32.55L-239.19,61.38L-235.00,103.73L-206.86,138.78L-170.05,145.01L-138.11,135.27L-119.03,111.99L-102.39,80.74L-112.80,75.19L-129.45,106.45L-148.53,129.72L-164.50,134.59L-182.90,131.48ZM32.67,65.72L49.31,34.47L57.97,5.64L53.78,-36.71L25.64,-71.76L-19.15,-75.55L-43.11,-68.25L-70.17,-42.54L-86.82,-11.28L-95.48,17.54L-91.29,59.90L-63.14,94.95L-18.35,98.74L5.60,91.43ZM19.41,-34.96L26.72,-11.00L25.36,41.77L8.71,73.03L-4.82,85.88L-20.79,90.76L-39.19,87.64L-56.92,58.14L-64.22,34.19L-62.87,-18.59L-32.69,-62.70L-16.72,-67.57L1.69,-64.46ZM86.40,-72.84L89.51,-91.24L103.04,-104.10L129.43,-103.42L147.16,-73.92L140.93,-37.11L124.28,-5.85L67.04,63.97L69.47,71.95L149.31,47.60L175.70,48.28L174.62,-12.48L166.64,-10.05L146.88,39.61L96.54,46.24L129.15,10.11L153.78,-23.58L173.54,-73.24L168.67,-89.21L153.38,-110.73L116.58,-116.95L92.62,-109.65L65.56,-83.94L64.88,-57.55L88.15,-38.47L96.14,-40.90Z" fill="#ffffff" stroke="#000000"/>
    <path d="M-647.39,-49.57L-685.95,87.18L-725.10,-21.61L-715.15,-42.74L-769.54,-23.17L-748.41,-13.22L-695.28,134.42L-682.54,121.06L-631.85,-55.16L-614.13,-79.09L-668.52,-59.52ZM-540.78,-70.38L-533.01,-73.17L-530.83,-91.51L-533.63,-99.28L-551.96,-101.46L-559.73,-98.67L-561.91,-80.33L-559.12,-72.56ZM-603.89,22.54L-593.32,27.52L-568.45,-25.32L-560.68,-28.11L-579.34,66.37L-576.55,74.14L-565.98,79.12L-550.44,73.52L-537.69,60.16L-512.82,7.33L-523.39,2.35L-548.26,55.19L-556.03,57.98L-537.37,-36.50L-540.16,-44.27L-558.50,-46.45L-579.02,-30.29ZM-483.30,40.59L-491.69,17.28L-502.25,12.30L-515.00,25.67L-506.61,48.98L-488.27,51.16L-472.73,45.56L-452.21,29.40L-442.27,8.27L-447.86,-7.27L-469.61,-43.33L-475.20,-58.87L-462.46,-72.23L-454.07,-48.92L-443.50,-43.94L-430.76,-57.31L-439.14,-80.62L-465.25,-80.00L-493.54,-61.05L-495.72,-42.71L-490.12,-27.17L-471.17,1.12L-465.58,16.66L-475.53,37.79ZM-271.93,-79.35L-282.50,-84.32L-307.37,-31.49L-315.14,-28.69L-296.48,-123.18L-307.04,-128.15L-322.58,-122.56L-334.09,-56.98L-353.99,-14.71L-361.76,-11.92L-375.13,-24.66L-358.64,-100.81L-361.44,-108.58L-379.77,-110.76L-400.29,-94.60L-425.16,-41.77L-414.60,-36.79L-389.72,-89.63L-381.95,-92.42L-398.44,-16.28L-382.28,4.24L-363.94,6.42L-348.40,0.83L-333.48,-30.87L-327.88,-15.33L-317.32,-10.36L-309.55,-13.15L-296.80,-26.52ZM-167.17,-178.48L-177.74,-183.46L-184.89,-154.55L-198.25,-167.30L-232.13,-163.88L-259.80,-118.82L-261.36,-74.38L-242.41,-46.09L-224.07,-43.91L-208.53,-49.50L-193.60,-81.20L-188.01,-65.66L-177.45,-60.69L-156.93,-76.85L-132.06,-129.68L-142.62,-134.65L-167.50,-81.82L-175.27,-79.02ZM-214.12,-65.04L-221.89,-62.25L-238.05,-82.76L-233.69,-119.44L-218.77,-151.14L-203.23,-156.73L-189.86,-143.99L-187.07,-136.21L-199.20,-96.74ZM-97.56,-106.98L-80.75,-279.79L-135.14,-260.22L-132.35,-252.45L-109.04,-260.84L-120.87,-98.60L-118.08,-90.83L-99.74,-88.65L-79.22,-104.81L-54.35,-157.64L-64.92,-162.61L-89.79,-109.78ZM3.17,-266.10L10.94,-268.90L13.12,-287.24L10.32,-295.01L-8.02,-297.19L-15.79,-294.39L-17.97,-276.05L-15.17,-268.28ZM-59.94,-173.18L-49.38,-168.21L-24.50,-221.04L-16.73,-223.84L-35.39,-129.35L-32.60,-121.58L-22.03,-116.61L-6.49,-122.20L6.25,-135.56L31.13,-188.40L20.56,-193.37L-4.31,-140.54L-12.08,-137.74L6.58,-232.22L3.78,-239.99L-14.55,-242.17L-35.07,-226.01ZM114.43,-200.81L103.86,-205.79L91.11,-192.43L96.71,-176.89L62.83,-173.47L120.34,-281.94L109.78,-286.91L99.83,-265.78L63.15,-270.13L27.10,-248.38L41.08,-209.53L48.85,-212.33L43.26,-227.87L48.23,-238.43L89.88,-244.64L29.57,-143.95L40.13,-138.98L50.08,-160.11L71.22,-150.16L110.07,-164.14L122.81,-177.50ZM189.66,-333.21L197.43,-336.00L199.61,-354.34L196.82,-362.11L178.48,-364.29L170.71,-361.49L168.53,-343.16L171.33,-335.39ZM126.55,-240.29L137.12,-235.31L161.99,-288.14L169.76,-290.94L151.10,-196.46L153.90,-188.69L164.46,-183.71L180.01,-189.30L192.75,-202.67L217.62,-255.50L207.06,-260.48L182.18,-207.64L174.41,-204.85L193.08,-299.33L190.28,-307.10L171.94,-309.28L151.43,-293.12ZM212.03,-271.04L222.60,-266.07L247.47,-318.90L255.24,-321.70L239.37,-219.44L249.94,-214.47L265.48,-220.06L274.20,-293.41L289.12,-325.11L301.87,-338.47L312.43,-333.50L298.74,-249.58L301.54,-241.81L312.11,-236.84L327.65,-242.43L340.39,-255.79L365.27,-308.63L354.70,-313.60L329.83,-260.77L322.06,-257.97L338.54,-334.12L330.15,-357.43L304.04,-356.81L283.53,-340.65L268.60,-308.95L270.78,-327.29L267.99,-335.06L257.42,-340.03L236.90,-323.88ZM389.20,-290.91L391.99,-283.14L402.56,-278.16L369.30,-248.64L367.12,-230.30L383.28,-209.79L419.95,-205.43L435.49,-211.02L463.78,-229.98L470.93,-258.88L465.34,-274.42L415.30,-291.52L412.51,-299.29L435.82,-307.68L466.28,-344.97L465.67,-371.08L449.51,-391.60L472.82,-399.99L470.02,-407.76L438.94,-396.57L405.06,-393.16L374.60,-355.87L375.22,-329.76L401.94,-304.27ZM410.66,-377.62L426.20,-383.21L442.36,-362.69L445.15,-354.92L430.23,-323.22L414.69,-317.63L398.53,-338.15L395.73,-345.92ZM413.13,-273.19L444.83,-258.26L450.42,-242.72L432.70,-218.79L403.79,-225.94L390.43,-238.69L392.61,-257.03ZM-197.58,115.07L-205.97,91.76L-207.21,39.54L-179.54,-5.52L-164.00,-11.11L-142.86,-1.16L-134.47,22.15L-118.93,16.56L-108.98,-4.57L-122.35,-17.32L-166.79,-18.88L-190.10,-10.49L-215.59,16.23L-230.52,47.93L-237.67,76.84L-231.46,118.49L-201.94,151.75L-165.27,156.10L-134.18,144.92L-116.46,120.99L-101.54,89.29L-112.11,84.32L-127.03,116.02L-144.75,139.95L-160.29,145.54L-178.63,143.36ZM31.18,67.87L46.10,36.17L53.26,7.26L47.05,-34.39L17.53,-67.65L-26.92,-69.21L-50.23,-60.82L-75.72,-34.10L-90.65,-2.40L-97.80,26.51L-91.59,68.16L-62.07,101.42L-17.62,102.98L5.69,94.59ZM13.17,-30.97L21.56,-7.66L22.79,44.55L7.87,76.25L-4.88,89.62L-20.42,95.21L-38.76,93.03L-57.71,64.74L-66.10,41.43L-67.33,-10.78L-39.66,-55.85L-24.12,-61.44L-5.79,-59.26ZM77.51,-71.68L79.69,-90.02L92.44,-103.38L118.54,-104.00L137.50,-75.71L133.14,-39.04L118.22,-7.34L65.06,64.45L67.85,72.22L145.56,44.26L171.67,43.65L167.64,-16.34L159.87,-13.55L142.77,36.49L93.35,45.50L123.81,8.21L146.51,-26.29L163.61,-76.33L158.02,-91.87L141.86,-112.39L105.18,-116.74L81.87,-108.35L56.38,-81.63L57.00,-55.52L80.93,-37.80L88.70,-40.60Z" fill="#ffffff" stroke="#000000"/>
    <path d="M-646.10,-12.72L-677.53,124.28L-721.52,18.70L-712.72,-2.67L-765.51,19.32L-744.14,28.12L-684.45,171.41L-672.51,157.58L-631.02,-19.00L-614.68,-43.51L-667.47,-21.52ZM-541.78,-38.48L-534.24,-41.62L-532.98,-59.85L-536.12,-67.39L-554.35,-68.65L-561.89,-65.50L-563.15,-47.28L-560.01,-39.74ZM-599.60,56.41L-588.92,60.81L-566.92,7.39L-559.38,4.25L-573.21,98.52L-570.07,106.06L-559.39,110.46L-544.30,104.17L-532.36,90.35L-510.36,36.93L-521.05,32.53L-543.05,85.95L-550.59,89.09L-536.76,-5.17L-539.90,-12.72L-558.12,-13.97L-577.60,2.99ZM-479.57,68.36L-489.00,45.73L-499.68,41.33L-511.62,55.16L-502.20,77.78L-483.97,79.04L-468.89,72.75L-449.41,55.79L-440.61,34.42L-446.89,19.34L-470.14,-15.23L-476.43,-30.31L-464.48,-44.13L-455.06,-21.51L-444.38,-17.11L-432.44,-30.93L-441.86,-53.56L-467.63,-51.67L-494.65,-31.57L-495.91,-13.34L-489.62,1.74L-469.52,28.76L-463.23,43.85L-472.03,65.21ZM-276.58,-60.46L-287.27,-64.86L-309.26,-11.45L-316.81,-8.30L-302.97,-102.57L-313.66,-106.97L-328.74,-100.68L-336.91,-35.33L-354.51,7.40L-362.05,10.55L-375.88,-1.40L-363.31,-77.43L-366.45,-84.98L-384.67,-86.23L-404.15,-69.27L-426.15,-15.85L-415.47,-11.45L-393.47,-64.87L-385.93,-68.01L-398.50,8.03L-381.54,27.51L-363.31,28.77L-348.23,22.49L-335.03,-9.56L-328.75,5.52L-318.06,9.92L-310.52,6.78L-298.58,-7.05ZM-177.91,-163.52L-188.60,-167.92L-194.25,-139.01L-208.08,-150.95L-241.39,-145.93L-266.53,-100.05L-265.90,-56.06L-245.79,-29.04L-227.57,-27.78L-212.48,-34.07L-199.29,-66.11L-193.00,-51.03L-182.32,-46.63L-162.84,-63.60L-140.84,-117.01L-151.52,-121.41L-173.52,-68.00L-181.06,-64.86ZM-218.77,-49.15L-226.31,-46.01L-243.28,-65.49L-240.76,-101.94L-227.56,-133.99L-212.48,-140.27L-198.65,-128.33L-195.51,-120.79L-205.57,-81.20ZM-105.65,-96.27L-97.47,-267.84L-150.26,-245.84L-147.12,-238.30L-124.49,-247.73L-128.27,-86.85L-125.13,-79.31L-106.91,-78.05L-87.42,-95.02L-65.43,-148.43L-76.11,-152.83L-98.11,-99.42ZM-13.89,-258.40L-6.35,-261.55L-5.09,-279.77L-8.23,-287.31L-26.46,-288.57L-34.00,-285.43L-35.25,-267.20L-32.11,-259.66ZM-71.71,-163.51L-61.03,-159.12L-39.03,-212.53L-31.49,-215.67L-45.32,-121.41L-42.18,-113.87L-31.49,-109.47L-16.41,-115.75L-4.47,-129.58L17.53,-182.99L6.85,-187.39L-15.15,-133.98L-22.69,-130.83L-8.86,-225.10L-12.00,-232.64L-30.23,-233.90L-49.71,-216.93ZM99.23,-199.33L88.54,-203.73L76.60,-189.90L82.89,-174.82L49.58,-169.79L101.12,-279.77L90.43,-284.16L81.63,-262.80L45.18,-265.31L10.62,-242.06L26.33,-204.36L33.87,-207.50L27.59,-222.58L31.99,-233.27L72.83,-241.43L18.16,-139.00L28.84,-134.60L37.64,-155.97L59.00,-147.17L96.71,-162.88L108.65,-176.70ZM167.10,-333.81L174.64,-336.95L175.90,-355.17L172.76,-362.71L154.54,-363.97L146.99,-360.83L145.74,-342.61L148.88,-335.06ZM109.28,-238.92L119.97,-234.52L141.96,-287.93L149.51,-291.07L135.67,-196.81L138.82,-189.27L149.50,-184.87L164.58,-191.15L176.52,-204.98L198.52,-258.39L187.84,-262.79L165.84,-209.38L158.30,-206.24L172.13,-300.50L168.99,-308.04L150.76,-309.30L131.28,-292.33ZM192.24,-273.48L202.92,-269.08L224.92,-322.49L232.46,-325.63L221.77,-223.83L232.45,-219.43L247.54,-225.71L252.57,-298.61L265.77,-330.66L277.71,-344.48L288.39,-340.09L278.96,-256.50L282.10,-248.96L292.78,-244.56L307.87,-250.85L319.81,-264.67L341.81,-318.09L331.12,-322.49L309.13,-269.07L301.58,-265.93L314.16,-341.97L304.73,-364.59L278.97,-362.71L259.48,-345.74L246.28,-313.69L247.54,-331.92L244.40,-339.46L233.72,-343.86L214.24,-326.89ZM366.31,-301.75L369.46,-294.21L380.14,-289.81L348.72,-259.01L347.46,-240.79L364.42,-221.31L400.87,-218.79L415.96,-225.08L442.98,-245.18L448.64,-274.09L442.35,-289.17L392.08,-303.63L388.94,-311.17L411.56,-320.60L439.84,-358.93L437.96,-384.70L420.99,-404.18L443.62,-413.60L440.48,-421.14L410.31,-408.58L377.00,-403.55L348.72,-365.22L350.61,-339.45L378.26,-315.57ZM383.29,-388.47L398.37,-394.75L415.34,-375.27L418.48,-367.73L405.28,-335.68L390.20,-329.40L373.23,-348.88L370.09,-356.42ZM390.82,-285.41L422.87,-272.21L429.16,-257.13L412.81,-232.62L383.91,-238.27L370.08,-250.22L371.34,-268.44ZM-193.64,128.01L-203.06,105.38L-206.83,53.85L-181.69,7.98L-166.61,1.69L-145.24,10.49L-135.82,33.12L-120.74,26.83L-111.94,5.47L-125.76,-6.47L-169.75,-5.85L-192.38,3.58L-216.26,31.23L-229.46,63.28L-235.11,92.19L-226.95,133.03L-196.16,164.46L-159.71,166.97L-129.54,154.41L-113.20,129.90L-100.00,97.85L-110.69,93.45L-123.88,125.50L-140.22,150.01L-155.31,156.29L-173.53,155.03ZM30.08,70.20L43.28,38.15L48.94,9.25L40.77,-31.60L9.98,-63.02L-34.01,-62.40L-56.63,-52.97L-80.51,-25.32L-93.71,6.73L-99.37,35.63L-91.20,76.48L-60.41,107.91L-16.42,107.28L6.20,97.85ZM7.47,-26.58L16.89,-3.95L20.66,47.58L7.46,79.63L-4.48,93.45L-19.56,99.74L-37.79,98.48L-57.90,71.46L-67.32,48.83L-71.09,-2.70L-45.95,-48.57L-30.87,-54.86L-12.64,-53.60ZM69.05,-69.93L70.31,-88.16L82.25,-101.98L108.02,-103.87L128.13,-76.84L125.61,-40.39L112.41,-8.35L63.39,65.18L66.53,72.72L141.95,41.30L167.71,39.42L160.80,-19.65L153.26,-16.51L138.81,33.76L90.42,45.07L118.70,6.74L139.44,-28.45L153.89,-78.73L147.61,-93.81L130.64,-113.29L94.19,-115.81L71.57,-106.38L47.69,-78.73L49.57,-52.97L74.08,-36.63L81.62,-39.77Z" fill="#ffffff" stroke="#000000"/>
    <path d="M-642.68,23.76L-667.05,160.64L-715.65,58.48L-708.00,36.94L-759.08,61.25L-737.54,68.90L-671.58,207.54L-660.46,193.30L-628.09,16.82L-613.14,-8.19L-664.22,16.11ZM-540.88,-6.77L-533.58,-10.25L-533.22,-28.31L-536.70,-35.61L-554.76,-35.96L-562.06,-32.49L-562.41,-14.42L-558.94,-7.13ZM-593.37,89.79L-582.60,93.62L-563.47,39.77L-556.18,36.30L-565.24,130.10L-561.77,137.40L-551.00,141.22L-536.41,134.28L-525.28,120.04L-506.16,66.20L-516.93,62.37L-536.05,116.21L-543.35,119.69L-534.29,25.89L-537.76,18.59L-555.82,18.24L-574.24,35.95ZM-474.21,95.74L-484.62,73.85L-495.39,70.02L-506.51,84.26L-496.10,106.15L-478.03,106.51L-463.44,99.56L-445.02,81.85L-437.37,60.31L-444.31,45.72L-468.97,12.71L-475.91,-1.89L-464.79,-16.13L-454.37,5.76L-443.60,9.59L-432.48,-4.65L-442.90,-26.54L-468.26,-23.43L-493.98,-2.24L-494.33,15.82L-487.39,30.42L-466.20,56.13L-459.26,70.73L-466.91,92.27ZM-279.95,-41.43L-290.72,-45.25L-309.85,8.59L-317.14,12.06L-308.08,-81.74L-318.85,-85.56L-333.44,-78.62L-338.33,-13.65L-353.63,29.42L-360.92,32.89L-375.17,21.77L-366.45,-53.96L-369.93,-61.26L-387.99,-61.61L-406.41,-43.90L-425.54,9.94L-414.77,13.77L-395.64,-40.08L-388.35,-43.55L-397.06,32.19L-379.34,50.60L-361.28,50.96L-346.68,44.01L-335.21,11.71L-328.27,26.30L-317.50,30.13L-310.20,26.66L-299.08,12.42ZM-187.50,-148.06L-198.27,-151.88L-202.45,-123.05L-216.69,-134.17L-249.35,-127.58L-271.95,-81.03L-269.18,-37.60L-248.00,-11.89L-229.93,-11.53L-215.34,-18.48L-203.86,-50.78L-196.92,-36.19L-186.15,-32.36L-167.73,-50.08L-148.60,-103.92L-159.37,-107.74L-178.50,-53.90L-185.80,-50.43ZM-222.28,-33.07L-229.58,-29.60L-247.29,-48.02L-246.58,-84.15L-235.11,-116.46L-220.51,-123.40L-206.27,-112.28L-202.80,-104.98L-210.81,-65.38ZM-112.83,-85.15L-113.12,-255.04L-164.20,-230.73L-160.72,-223.44L-138.83,-233.85L-134.72,-74.73L-131.25,-67.43L-113.18,-67.08L-94.76,-84.79L-75.63,-138.64L-86.40,-142.46L-105.53,-88.62ZM-30.09,-249.80L-22.79,-253.27L-22.43,-271.33L-25.91,-278.63L-43.97,-278.98L-51.27,-275.51L-51.62,-257.45L-48.15,-250.15ZM-82.58,-153.23L-71.81,-149.41L-52.68,-203.25L-45.39,-206.72L-54.45,-112.92L-50.98,-105.62L-40.21,-101.80L-25.62,-108.74L-14.49,-122.98L4.63,-176.83L-6.14,-180.65L-25.26,-126.81L-32.56,-123.34L-23.50,-217.14L-26.97,-224.43L-45.03,-224.79L-63.45,-207.07ZM84.55,-196.95L73.78,-200.77L62.65,-186.53L69.60,-171.94L36.94,-165.35L82.49,-276.51L71.72,-280.33L64.07,-258.80L27.94,-259.50L-5.08,-234.85L12.28,-198.36L19.58,-201.84L12.64,-216.43L16.46,-227.20L56.42,-237.26L7.40,-133.40L18.17,-129.57L25.82,-151.11L47.35,-143.46L83.84,-160.82L94.96,-175.06ZM145.04,-333.12L152.34,-336.59L152.69,-354.66L149.22,-361.95L131.16,-362.31L123.86,-358.83L123.51,-340.77L126.98,-333.47ZM92.55,-236.55L103.32,-232.73L122.45,-286.57L129.74,-290.04L120.68,-196.24L124.15,-188.95L134.92,-185.12L149.51,-192.06L160.63,-206.30L179.76,-260.15L168.99,-263.97L149.87,-210.13L142.57,-206.66L151.63,-300.46L148.16,-307.76L130.10,-308.11L111.68,-290.40ZM172.82,-274.74L183.59,-270.92L202.71,-324.76L210.01,-328.23L204.42,-227.13L215.19,-223.31L229.78,-230.25L231.19,-302.52L242.67,-334.82L253.79,-349.06L264.56,-345.24L259.32,-262.21L262.79,-254.91L273.56,-251.08L288.16,-258.03L299.28,-272.27L318.40,-326.11L307.63,-329.94L288.51,-276.09L281.21,-272.62L289.92,-348.36L279.51,-370.25L254.14,-367.13L235.73,-349.42L224.25,-317.11L224.60,-335.18L221.13,-342.47L210.36,-346.30L191.94,-328.59ZM343.41,-311.16L346.88,-303.87L357.65,-300.04L328.11,-268.09L327.76,-250.02L345.47,-231.60L381.60,-230.90L396.20,-237.84L421.91,-259.02L426.09,-287.86L419.15,-302.45L368.78,-314.28L365.30,-321.58L387.19,-331.99L413.26,-371.24L410.15,-396.61L392.43,-415.03L414.33,-425.44L410.85,-432.74L381.67,-418.85L349.01,-412.26L322.94,-373.01L326.05,-347.65L354.54,-325.40ZM355.95,-397.67L370.54,-404.61L388.26,-386.19L391.73,-378.89L380.25,-346.59L365.66,-339.64L347.95,-358.06L344.47,-365.36ZM368.42,-296.22L400.73,-284.74L407.67,-270.15L392.72,-245.14L363.89,-249.32L349.65,-260.44L350.00,-278.50ZM-188.81,140.72L-199.23,118.83L-205.47,68.10L-182.87,21.56L-168.27,14.61L-146.74,22.26L-136.32,44.16L-121.73,37.21L-114.08,15.67L-128.32,4.55L-171.75,7.32L-193.64,17.73L-215.88,46.21L-227.36,78.52L-231.54,107.35L-221.47,147.31L-189.52,176.85L-153.39,177.56L-124.20,163.67L-109.25,138.66L-97.78,106.36L-108.55,102.53L-120.02,134.84L-134.97,159.85L-149.56,166.79L-167.63,166.44ZM29.39,72.70L40.86,40.39L45.04,11.56L34.98,-28.40L3.03,-57.94L-40.40,-55.17L-62.29,-44.76L-84.54,-16.28L-96.01,16.03L-100.19,44.86L-90.13,84.82L-58.18,114.36L-14.75,111.60L7.14,101.18ZM2.32,-21.81L12.74,0.08L18.97,50.81L7.50,83.11L-3.62,97.36L-18.22,104.30L-36.28,103.95L-57.47,78.23L-67.88,56.34L-74.12,5.61L-51.52,-40.93L-36.93,-47.88L-18.86,-47.52ZM61.05,-67.65L61.40,-85.71L72.53,-99.95L97.89,-103.07L119.07,-77.36L118.37,-41.22L106.89,-8.92L62.05,66.11L65.52,73.41L138.49,38.69L163.85,35.57L154.15,-22.45L146.85,-18.98L135.02,31.39L87.76,44.93L113.83,5.68L132.61,-30.10L144.44,-80.47L137.49,-95.07L119.78,-113.49L83.65,-114.19L61.76,-103.78L39.51,-75.30L42.63,-49.94L67.64,-34.99L74.94,-38.46Z" fill="#ffffff" stroke="#000000"/>
    <path d="M-637.16,59.76L-654.55,196.16L-707.55,97.61L-701.04,75.97L-750.31,102.46L-728.66,108.97L-656.74,242.71L-646.45,228.10L-623.08,52.19L-609.54,26.76L-658.81,53.25ZM-538.09,24.63L-531.05,20.84L-531.58,2.98L-535.37,-4.06L-553.23,-3.53L-560.27,0.26L-559.74,18.12L-555.95,25.16ZM-585.23,122.58L-574.41,125.83L-558.14,71.71L-551.10,67.92L-555.48,161.02L-551.69,168.06L-540.87,171.32L-526.79,163.74L-516.50,149.14L-500.23,95.02L-511.06,91.76L-527.33,145.88L-534.36,149.67L-529.99,56.57L-533.77,49.53L-551.63,50.06L-568.96,68.46ZM-467.23,122.64L-478.59,101.52L-489.41,98.27L-499.70,112.88L-488.35,133.99L-470.48,133.46L-456.41,125.89L-439.08,107.50L-432.57,85.85L-440.14,71.77L-466.11,40.36L-473.68,26.29L-463.38,11.68L-452.03,32.79L-441.20,36.05L-430.91,21.44L-442.27,0.32L-467.17,4.64L-491.54,26.82L-491.01,44.68L-483.44,58.76L-461.26,83.13L-453.68,97.20L-460.19,118.85ZM-282.04,-22.33L-292.86,-25.58L-309.13,28.54L-316.16,32.32L-311.79,-60.78L-322.61,-64.03L-336.69,-56.46L-338.34,7.95L-351.36,51.25L-358.40,55.03L-373.01,44.74L-368.10,-30.49L-371.88,-37.53L-389.74,-37.00L-407.07,-18.61L-423.34,35.51L-412.52,38.77L-396.25,-15.35L-389.21,-19.14L-394.12,56.10L-375.73,73.43L-357.86,72.90L-343.79,65.33L-334.03,32.85L-326.46,46.93L-315.63,50.18L-308.59,46.40L-298.30,31.79ZM-195.91,-132.17L-206.74,-135.42L-209.46,-106.73L-224.07,-117.03L-256.01,-108.92L-276.06,-61.84L-271.21,-19.08L-249.03,5.29L-231.17,4.76L-217.09,-2.81L-207.33,-35.28L-199.76,-21.21L-188.94,-17.95L-171.61,-36.35L-155.34,-90.47L-166.16,-93.72L-182.43,-39.60L-189.47,-35.82ZM-224.66,-16.89L-231.70,-13.10L-250.10,-30.43L-251.16,-66.16L-241.40,-98.63L-227.32,-106.20L-212.71,-95.91L-208.93,-88.87L-214.90,-49.36ZM-119.08,-73.67L-127.66,-241.47L-176.93,-214.97L-173.14,-207.94L-152.02,-219.29L-140.20,-62.31L-136.41,-55.27L-118.55,-55.81L-101.22,-74.20L-84.95,-128.32L-95.78,-131.57L-112.04,-77.45ZM-45.38,-240.35L-38.34,-244.13L-38.87,-262.00L-42.66,-269.03L-60.52,-268.50L-67.56,-264.72L-67.03,-246.85L-63.24,-239.82ZM-92.52,-142.40L-81.70,-139.15L-65.43,-193.27L-58.39,-197.05L-62.77,-103.95L-58.99,-96.91L-48.16,-93.66L-34.09,-101.23L-23.79,-115.84L-7.53,-169.96L-18.35,-173.21L-34.62,-119.09L-41.66,-115.31L-37.28,-208.41L-41.06,-215.45L-58.93,-214.91L-76.26,-196.52ZM70.43,-193.74L59.61,-196.99L49.31,-182.38L56.89,-168.30L24.95,-160.20L64.52,-272.23L53.69,-275.48L47.19,-253.83L11.46,-252.77L-19.95,-226.80L-1.02,-191.61L6.02,-195.39L-1.55,-209.47L1.70,-220.30L40.68,-232.18L-2.68,-127.20L8.15,-123.94L14.65,-145.59L36.30,-139.08L71.49,-158.01L81.79,-172.62ZM123.55,-331.20L130.59,-334.98L130.05,-352.84L126.27,-359.88L108.41,-359.35L101.37,-355.57L101.90,-337.70L105.69,-330.66ZM76.41,-233.25L87.23,-229.99L103.50,-284.11L110.53,-287.90L106.16,-194.80L109.94,-187.76L120.77,-184.51L134.84,-192.08L145.14,-206.69L161.40,-260.81L150.58,-264.06L134.31,-209.94L127.27,-206.16L131.65,-299.26L127.87,-306.29L110.00,-305.76L92.67,-287.37ZM153.83,-274.89L164.65,-271.63L180.92,-325.75L187.96,-329.54L187.37,-229.40L198.19,-226.15L212.27,-233.72L210.14,-305.17L219.90,-337.64L230.19,-352.25L241.02,-349.00L239.89,-266.72L243.68,-259.68L254.50,-256.43L268.58,-264.00L278.87,-278.61L295.14,-332.73L284.31,-335.98L268.05,-281.86L261.01,-278.08L265.92,-353.32L254.56,-374.43L229.66,-370.11L212.33,-351.72L202.57,-319.25L202.04,-337.11L198.25,-344.15L187.43,-347.40L170.10,-329.01ZM320.57,-319.19L324.36,-312.15L335.18,-308.89L307.56,-275.89L308.09,-258.03L326.48,-240.70L362.21,-241.76L376.29,-249.33L400.66,-271.51L403.38,-300.20L395.81,-314.28L345.47,-323.50L341.69,-330.54L362.80,-341.90L386.64,-381.94L382.32,-406.84L363.93,-424.17L385.04,-435.53L381.26,-442.57L353.10,-427.43L321.16,-419.32L297.33,-379.28L301.64,-354.38L330.86,-333.80ZM328.73,-405.25L342.81,-412.82L361.21,-395.49L364.99,-388.45L355.23,-355.98L341.15,-348.41L322.76,-365.74L318.97,-372.77ZM346.00,-305.64L378.48,-295.88L386.05,-281.80L372.50,-256.37L343.81,-259.09L329.20,-269.38L328.67,-287.25ZM-183.12,153.15L-194.48,132.03L-203.12,82.23L-183.06,35.15L-168.99,27.58L-147.34,34.09L-135.98,55.20L-121.90,47.63L-115.40,25.98L-130.01,15.69L-172.77,20.54L-193.89,31.90L-214.47,61.12L-224.23,93.59L-226.95,122.27L-215.06,161.25L-182.06,188.88L-146.34,187.81L-118.18,172.67L-104.64,147.24L-94.88,114.77L-105.70,111.51L-115.46,143.98L-129.00,169.42L-143.08,176.99L-160.94,177.52ZM29.10,75.32L38.86,42.84L41.58,14.16L29.69,-24.82L-3.31,-52.45L-46.08,-47.60L-67.19,-36.24L-87.78,-7.02L-97.54,25.45L-100.26,54.14L-88.37,93.12L-55.36,120.74L-12.60,115.89L8.52,104.53ZM-2.25,-16.72L9.11,4.40L17.74,54.20L7.98,86.67L-2.31,101.28L-16.39,108.85L-34.25,109.38L-56.43,85.01L-67.78,63.90L-76.42,14.10L-56.37,-32.99L-42.29,-40.56L-24.43,-41.09ZM53.53,-64.87L53.00,-82.73L63.29,-97.34L88.19,-101.65L110.37,-77.29L111.44,-41.56L101.68,-9.09L61.04,67.21L64.83,74.25L135.21,36.40L160.11,32.08L147.69,-24.76L140.65,-20.98L131.43,29.36L85.41,45.03L109.25,4.99L126.05,-31.27L135.27,-81.60L127.70,-95.68L109.31,-113.01L73.58,-111.95L52.47,-100.59L31.88,-71.37L36.20,-46.47L61.63,-32.93L68.67,-36.71Z" fill="#ffffff" stroke="#000000"/>
    <path d="M-903.88,492L-906.92,488.96L-902.36,482.88L-893.24,482.88L-891.72,484.40L-891.72,488.96L-894.76,492L-884.12,492L-887.16,488.96L-887.16,460.08L-891.72,463.12L-891.72,464.64L-909.96,488.96L-914.52,492ZM-891.72,467.68L-891.72,479.84L-893.24,481.36L-900.84,481.36L-899.32,478.32ZM-862.84,476.80L-864.36,481.36L-870.44,487.44L-875,488.96L-876.52,488.96L-867.40,475.28L-867.40,472.24L-870.44,470.72L-875,472.24L-882.60,479.84L-881.08,481.36L-873.48,473.76L-871.96,473.76L-881.08,488.96L-881.08,490.48L-879.56,492L-876.52,492L-868.92,488.96L-862.84,482.88L-859.80,476.80L-859.80,473.76L-861.32,472.24L-864.36,472.24L-865.88,475.28L-864.36,476.80ZM-835.48,472.24L-837,470.72L-840.04,475.28L-841.56,472.24L-847.64,470.72L-855.24,476.80L-858.28,484.40L-856.76,490.48L-853.72,492L-850.68,492L-846.12,487.44L-846.12,490.48L-844.60,492L-840.04,490.48L-832.44,482.88L-833.96,481.36L-841.56,488.96L-843.08,488.96ZM-850.68,488.96L-852.20,488.96L-853.72,484.40L-850.68,478.32L-846.12,473.76L-843.08,473.76L-841.56,476.80L-841.56,478.32L-846.12,484.40ZM-832.44,479.84L-830.92,481.36L-823.32,473.76L-821.80,473.76L-830.92,490.48L-829.40,492L-826.36,492L-820.28,479.84L-815.72,476.80L-811.16,476.80L-809.64,472.24L-812.68,470.72L-815.72,472.24L-820.28,478.32L-821.80,478.32L-818.76,473.76L-818.76,472.24L-820.28,470.72L-824.84,472.24ZM-788.36,472.24L-789.88,470.72L-792.92,475.28L-794.44,472.24L-800.52,470.72L-808.12,476.80L-811.16,484.40L-809.64,490.48L-806.60,492L-803.56,492L-799,487.44L-799,490.48L-797.48,492L-792.92,490.48L-785.32,482.88L-786.84,481.36L-794.44,488.96L-795.96,488.96ZM-803.56,488.96L-805.08,488.96L-806.60,484.40L-803.56,478.32L-799,473.76L-795.96,473.76L-794.44,476.80L-794.44,478.32L-799,484.40ZM-783.80,479.84L-783.80,482.88L-774.68,482.88L-774.68,479.84ZM-765.56,461.60L-762.52,464.64L-770.12,488.96L-773.16,492L-757.96,492L-750.36,488.96L-745.80,482.88L-747.32,476.80L-751.88,475.28L-748.84,473.76L-744.28,469.20L-745.80,463.12L-753.40,461.60ZM-765.56,488.96L-757.96,464.64L-756.44,463.12L-753.40,463.12L-750.36,464.64L-750.36,469.20L-753.40,473.76L-757.96,475.28L-761,475.28L-761,476.80L-756.44,476.80L-753.40,478.32L-751.88,482.88L-754.92,487.44L-761,490.48L-764.04,490.48ZM-736.68,492L-733.64,492L-726.04,487.44L-721.48,478.32L-724.52,472.24L-730.60,470.72L-738.20,475.28L-742.76,484.40L-739.72,490.48ZM-730.60,473.76L-727.56,473.76L-726.04,478.32L-729.08,484.40L-733.64,488.96L-736.68,488.96L-738.20,484.40L-735.16,478.32ZM-715.40,488.96L-701.72,460.08L-712.36,460.08L-712.36,461.60L-707.80,461.60L-719.96,488.96L-719.96,490.48L-716.92,492L-712.36,490.48L-704.76,482.88L-706.28,481.36L-713.88,488.96ZM-689.56,492L-688.04,492L-685,490.48L-677.40,482.88L-678.92,481.36L-686.52,488.96L-688.04,488.96L-674.36,460.08L-685,460.08L-685,461.60L-680.44,461.60L-685,475.28L-686.52,472.24L-692.60,470.72L-700.20,476.80L-703.24,484.40L-701.72,490.48L-698.68,492L-695.64,492L-691.08,487.44L-691.08,490.48ZM-695.64,488.96L-697.16,488.96L-698.68,484.40L-695.64,478.32L-691.08,473.76L-688.04,473.76L-686.52,476.80L-686.52,478.32L-691.08,484.40ZM-669.80,488.96L-662.20,464.64L-657.64,461.60L-669.80,461.60L-666.76,464.64L-674.36,488.96L-678.92,492L-666.76,492ZM-657.64,488.96L-650.04,473.76L-645.48,473.76L-645.48,472.24L-650.04,472.24L-647,466.16L-650.04,466.16L-651.56,470.72L-654.60,472.24L-657.64,472.24L-657.64,473.76L-654.60,473.76L-662.20,488.96L-662.20,490.48L-660.68,492L-657.64,492L-654.60,490.48L-647,482.88L-648.52,481.36L-656.12,488.96ZM-621.16,472.24L-622.68,470.72L-625.72,475.28L-627.24,472.24L-633.32,470.72L-640.92,476.80L-643.96,484.40L-642.44,490.48L-639.40,492L-636.36,492L-631.80,487.44L-631.80,490.48L-630.28,492L-625.72,490.48L-618.12,482.88L-619.64,481.36L-627.24,488.96L-628.76,488.96ZM-636.36,488.96L-637.88,488.96L-639.40,484.40L-636.36,478.32L-631.80,473.76L-628.76,473.76L-627.24,476.80L-627.24,478.32L-631.80,484.40ZM-613.56,488.96L-599.88,460.08L-610.52,460.08L-610.52,461.60L-605.96,461.60L-618.12,488.96L-618.12,490.48L-615.08,492L-610.52,490.48L-602.92,482.88L-604.44,481.36L-612.04,488.96ZM-586.20,467.68L-584.68,467.68L-583.16,464.64L-583.16,463.12L-586.20,461.60L-587.72,461.60L-589.24,464.64L-589.24,466.16ZM-602.92,479.84L-601.40,481.36L-593.80,473.76L-592.28,473.76L-601.40,488.96L-601.40,490.48L-599.88,492L-596.84,492L-593.80,490.48L-586.20,482.88L-587.72,481.36L-595.32,488.96L-596.84,488.96L-587.72,473.76L-587.72,472.24L-590.76,470.72L-595.32,472.24ZM-564.92,478.32L-564.92,475.28L-566.44,472.24L-572.52,470.72L-580.12,475.28L-584.68,484.40L-583.16,490.48L-580.12,492L-577.08,492L-574.04,490.48L-567.96,484.40L-569.48,482.88L-575.56,488.96L-578.60,488.96L-580.12,484.40L-577.08,478.32L-572.52,473.76L-569.48,473.76L-569.48,478.32Z"/>
</svg>