<?xml version="1.0"?>
<svg xmlns="http://www.w3.org/2000/svg" width="1920" height="1080" viewBox="-960 -540 1920 1080">
    <path d="M-513.93,-147L-513.93,-178.08L-541.68,-178.08L-532.80,-204.50L-481.30,-204.50L-471.31,-178.08L-496.84,-178.08L-496.84,-147L-430.01,-147L-430.01,-178.08L-453.10,-178.08L-487.96,-273.54L-472.19,-273.54L-472.19,-309.06L-526.14,-309.06L-572.09,-178.08L-594.52,-178.08L-594.52,-147ZM-508.16,-276.43L-487.07,-220.26L-527.69,-220.26ZM-412.48,-178.75L-412.48,-146.78C-406.26,-147 -369.63,-147 -357.20,-146.78L-357.20,-178.75L-376.96,-178.75L-376.96,-211.38C-370.96,-226.92 -358.31,-233.36 -341.44,-233.36C-320.57,-233.36 -312.13,-223.15 -312.13,-200.50L-312.13,-178.75L-333.67,-178.75L-333.67,-146.78C-324.34,-147 -300.14,-146.78 -277.94,-146.78L-277.94,-178.75L-298.15,-178.75L-298.15,-214.27C-298.15,-257.78 -310.80,-271.32 -340.33,-271.32C-356.98,-271.32 -372.52,-261.55 -376.96,-244.68L-376.96,-269.10L-412.48,-269.10L-412.48,-232.69C-408.48,-232.91 -400.04,-232.91 -391.39,-232.91L-391.39,-178.75ZM-81.92,-197.84L-81.92,-178.97L-153.40,-178.97L-153.40,-219.59L-103.67,-219.59L-103.67,-199.84L-93.02,-199.84L-93.02,-250.67L-103.67,-250.67L-103.67,-232.03L-153.40,-232.03L-153.40,-269.10L-83.47,-269.10L-83.47,-251.56L-70.60,-251.56L-70.60,-309.06L-189.14,-309.06L-189.14,-269.10L-169.16,-269.10L-169.16,-178.97L-189.14,-178.97L-189.14,-147L-69.04,-147L-69.04,-197.84ZM-47.95,-178.75L-47.95,-146.78C-41.74,-147 -5.11,-147 7.33,-146.78L7.33,-178.75L-12.43,-178.75L-12.43,-211.38C-6.44,-226.92 6.22,-233.36 23.09,-233.36C43.96,-233.36 52.39,-223.15 52.39,-200.50L52.39,-178.75L30.86,-178.75L30.86,-146.78C40.18,-147 64.38,-146.78 86.58,-146.78L86.58,-178.75L66.38,-178.75L66.38,-214.27C66.38,-257.78 53.72,-271.32 24.20,-271.32C7.55,-271.32 -7.99,-261.55 -12.43,-244.68L-12.43,-269.10L-47.95,-269.10L-47.95,-232.69C-43.96,-232.91 -35.52,-232.91 -26.86,-232.91L-26.86,-178.75ZM191.81,-147L230.21,-147L230.21,-178.97L204.02,-178.97L204.02,-324.60L162.95,-324.60L162.95,-285.75L189.59,-285.75L189.59,-249.34C182.04,-265.99 166.72,-271.10 152.74,-271.32C125.21,-271.54 106.56,-253.78 106.56,-206.05C106.56,-167.20 123.88,-144.78 153.62,-144.78C169.83,-144.78 183.37,-153.88 190.25,-166.09ZM154.51,-170.98C131.20,-170.98 119.44,-184.96 119.66,-205.83C119.66,-222.26 131.42,-235.36 154.07,-235.36C179.82,-235.36 189.37,-222.48 189.59,-206.05L189.59,-184.30C182.04,-173.64 170.94,-170.98 154.51,-170.98ZM287.93,-304.40C287.93,-317.27 280.83,-322.38 268.84,-322.38C255.52,-322.38 248.86,-317.05 248.86,-304.40C248.86,-291.74 255.97,-285.75 268.84,-285.75C280.39,-285.75 287.93,-291.74 287.93,-304.40ZM244.64,-178.75L244.64,-146.78C254.19,-147 263.29,-147 272.39,-147L280.16,-147C289.71,-147 299.26,-146.78 309.25,-146.78L309.25,-178.75L286.82,-178.75L286.82,-264.66L244.64,-264.66L244.64,-228.25L272.39,-228.25L272.39,-178.75ZM329.23,-178.75L329.23,-146.78C335.44,-147 372.07,-147 384.50,-146.78L384.50,-178.75L364.75,-178.75L364.75,-211.38C370.74,-226.92 383.39,-233.36 400.27,-233.36C421.13,-233.36 429.57,-223.15 429.57,-200.50L429.57,-178.75L408.04,-178.75L408.04,-146.78C417.36,-147 441.56,-146.78 463.76,-146.78L463.76,-178.75L443.56,-178.75L443.56,-214.27C443.56,-257.78 430.90,-271.32 401.38,-271.32C384.73,-271.32 369.19,-261.55 364.75,-244.68L364.75,-269.10L329.23,-269.10L329.23,-232.69C333.22,-232.91 341.66,-232.91 350.32,-232.91L350.32,-178.75ZM536.13,-93.05C572.76,-93.05 589.19,-114.37 589.19,-133.46C589.19,-152.11 579.42,-164.54 558.11,-164.32C542.35,-164.09 529.91,-160.32 516.37,-160.32C510.16,-160.32 505.72,-163.87 505.49,-171.42C505.27,-175.86 508.38,-178.97 512.15,-180.97C519.26,-178.30 527.03,-177.41 534.35,-177.41C554.78,-177.41 581.20,-185.18 581.20,-219.37C581.20,-227.59 580.31,-234.47 578.75,-240.46C585.86,-244.24 596.51,-240.91 596.51,-240.91L604.51,-269.10C588.97,-270.88 577.42,-267.77 571.65,-256.22C563.66,-267.10 550.56,-271.32 534.35,-271.32C506.60,-271.32 488.40,-258.22 488.40,-218.93C488.40,-205.83 491.95,-196.73 497.72,-190.51C490.62,-185.18 487.96,-176.75 488.18,-169.20C488.40,-156.77 497.06,-143.23 514.82,-143.23C529.91,-143.23 543.23,-146.33 555.89,-146.33C564.32,-146.33 570.98,-141.89 570.98,-135.68C570.98,-127.91 561.88,-120.36 537.68,-120.36C515.71,-120.36 497.06,-127.91 489.29,-139.45L483.74,-120.14C489.29,-104.82 511.93,-93.05 536.13,-93.05ZM534.35,-196.51C512.38,-196.51 503.05,-207.38 503.05,-218.26C503.27,-230.69 511.93,-238.91 534.35,-238.91C556.11,-238.91 566.32,-231.14 566.54,-218.26C566.54,-208.27 555.89,-196.51 534.35,-196.51Z" fill="#ffffff" stroke="#000000"/>
    <path d="M-512.87,-149.12L-512.48,-179.89L-539.95,-180.24L-530.82,-206.28L-479.84,-205.63L-470.28,-179.35L-495.55,-179.67L-495.95,-148.90L-429.80,-148.06L-429.41,-178.83L-452.26,-179.12L-485.56,-274.06L-469.95,-273.86L-469.51,-309.02L-522.91,-309.70L-570.05,-180.62L-592.25,-180.90L-592.64,-150.14ZM-505.52,-277.17L-485.35,-221.30L-525.57,-221.82ZM-412.04,-179.26L-412.44,-147.62C-406.28,-147.76 -370.02,-147.30 -357.72,-146.92L-357.32,-178.56L-376.87,-178.81L-376.46,-211.12C-370.33,-226.43 -357.72,-232.64 -341.02,-232.43C-320.36,-232.16 -312.14,-221.95 -312.43,-199.53L-312.70,-178.00L-334.02,-178.27L-334.42,-146.62C-325.19,-146.72 -301.24,-146.20 -279.26,-145.92L-278.86,-177.56L-298.86,-177.82L-298.41,-212.98C-297.86,-256.05 -310.22,-269.62 -339.44,-269.99C-355.93,-270.20 -371.43,-260.73 -376.04,-244.08L-375.73,-268.26L-410.89,-268.71L-411.35,-232.67C-407.40,-232.83 -399.04,-232.73 -390.47,-232.62L-391.16,-179.00ZM-84.57,-193.99L-84.81,-175.31L-155.57,-176.21L-155.06,-216.43L-105.83,-215.80L-106.08,-196.24L-95.53,-196.10L-94.89,-246.43L-105.44,-246.56L-105.67,-228.10L-154.90,-228.73L-154.43,-265.43L-85.21,-264.55L-85.43,-247.19L-72.68,-247.02L-71.96,-303.94L-189.31,-305.44L-189.81,-265.88L-170.03,-265.63L-171.17,-176.41L-190.95,-176.66L-191.36,-145.01L-72.47,-143.50L-71.82,-193.82ZM-51.19,-174.66L-51.59,-143.01C-45.43,-143.15 -9.17,-142.69 3.13,-142.31L3.53,-173.96L-16.02,-174.21L-15.61,-206.51C-9.48,-221.82 3.13,-228.03 19.83,-227.82C40.48,-227.56 48.71,-217.34 48.42,-194.92L48.15,-173.39L26.83,-173.66L26.42,-142.01C35.66,-142.12 59.61,-141.59 81.58,-141.31L81.99,-172.96L61.99,-173.21L62.44,-208.37C62.99,-251.45 50.63,-265.01 21.41,-265.39C4.92,-265.60 -10.58,-256.12 -15.19,-239.48L-14.88,-263.65L-50.04,-264.10L-50.51,-228.06C-46.55,-228.23 -38.20,-228.12 -29.62,-228.01L-30.31,-174.39ZM185.75,-140.20L223.77,-139.71L224.18,-171.36L198.25,-171.69L200.09,-315.86L159.43,-316.37L158.94,-277.92L185.31,-277.58L184.85,-241.54C177.59,-258.12 162.49,-263.36 148.65,-263.76C121.40,-264.33 102.72,-246.98 102.11,-199.73C101.62,-161.28 118.48,-138.86 147.93,-138.48C163.97,-138.28 177.49,-147.12 184.46,-159.12ZM149.14,-164.41C126.06,-164.70 114.59,-178.69 115.08,-199.35C115.28,-215.61 127.10,-228.43 149.51,-228.14C175.00,-227.82 184.29,-214.95 184.30,-198.68L184.03,-177.15C176.42,-166.69 165.40,-164.20 149.14,-164.41ZM282.90,-294.80C283.06,-307.54 276.10,-312.69 264.23,-312.84C251.04,-313.01 244.38,-307.82 244.22,-295.29C244.06,-282.76 251.02,-276.74 263.77,-276.58C275.19,-276.43 282.74,-282.27 282.90,-294.80ZM238.46,-170.96L238.06,-139.31C247.51,-139.41 256.52,-139.30 265.53,-139.18L273.22,-139.08C282.67,-138.96 292.12,-138.62 302.01,-138.50L302.41,-170.14L280.21,-170.43L281.30,-255.47L239.55,-256.01L239.09,-219.97L266.56,-219.61L265.93,-170.61ZM322.19,-169.89L321.78,-138.24C327.94,-138.38 364.20,-137.92 376.51,-137.54L376.91,-169.19L357.35,-169.44L357.76,-201.75C363.89,-217.05 376.50,-223.27 393.20,-223.05C413.86,-222.79 422.08,-212.57 421.80,-190.16L421.52,-168.62L400.20,-168.89L399.80,-137.25C409.03,-137.35 432.98,-136.82 454.96,-136.54L455.36,-168.19L435.37,-168.44L435.82,-203.61C436.37,-246.68 424.01,-260.24 394.78,-260.62C378.30,-260.83 362.79,-251.36 358.18,-234.71L358.49,-258.88L323.33,-259.33L322.87,-223.29C326.83,-223.46 335.18,-223.35 343.75,-223.24L343.07,-169.62ZM525.92,-82.45C562.18,-81.98 578.72,-102.87 578.96,-121.77C579.19,-140.23 569.68,-152.66 548.58,-152.71C532.98,-152.69 520.62,-149.11 507.22,-149.28C501.06,-149.36 496.71,-152.93 496.59,-160.41C496.42,-164.81 499.54,-167.84 503.30,-169.77C510.30,-167.05 517.98,-166.07 525.23,-165.98C545.45,-165.72 571.70,-173.08 572.13,-206.92C572.24,-215.05 571.44,-221.88 569.98,-227.83C577.06,-231.48 587.57,-228.04 587.57,-228.04L595.84,-255.85C580.47,-257.81 569.01,-254.88 563.15,-243.52C555.37,-254.39 542.46,-258.73 526.42,-258.94C498.95,-259.29 480.76,-246.55 480.27,-207.65C480.10,-194.69 483.50,-185.63 489.14,-179.41C482.04,-174.22 479.29,-165.91 479.42,-158.43C479.48,-146.12 487.88,-132.61 505.46,-132.38C520.40,-132.19 533.63,-135.10 546.16,-134.94C554.51,-134.83 561.04,-130.35 560.97,-124.20C560.87,-116.51 551.76,-109.15 527.81,-109.46C506.05,-109.73 487.69,-117.44 480.14,-128.97L474.40,-109.92C479.70,-94.69 501.97,-82.75 525.92,-82.45ZM525.47,-184.88C503.72,-185.16 494.62,-196.04 494.76,-206.81C495.14,-219.11 503.81,-227.14 526.01,-226.85C547.55,-226.58 557.56,-218.76 557.61,-206.01C557.49,-196.12 546.79,-184.61 525.47,-184.88Z" fill="#ffffff" stroke="#000000"/>
    <path d="M-511.72,-151.29L-510.94,-181.74L-538.12,-182.44L-528.76,-208.10L-478.31,-206.81L-469.18,-180.68L-494.19,-181.31L-494.97,-150.87L-429.50,-149.19L-428.73,-179.64L-451.35,-180.22L-483.10,-274.61L-467.66,-274.22L-466.77,-309.02L-519.62,-310.37L-567.92,-183.20L-589.89,-183.76L-590.66,-153.31ZM-502.82,-277.95L-483.57,-222.39L-523.37,-223.41ZM-411.53,-179.86L-412.33,-148.54C-406.23,-148.60 -370.35,-147.68 -358.17,-147.16L-357.37,-178.47L-376.73,-178.97L-375.91,-210.94C-369.65,-226.01 -357.09,-232.00 -340.57,-231.58C-320.12,-231.06 -312.11,-220.84 -312.68,-198.66L-313.22,-177.35L-334.32,-177.88L-335.12,-146.57C-325.98,-146.55 -302.28,-145.73 -280.53,-145.17L-279.73,-176.49L-299.52,-177.00L-298.63,-211.79C-297.54,-254.42 -309.60,-268.01 -338.53,-268.74C-354.84,-269.16 -370.31,-259.98 -375.08,-243.56L-374.47,-267.49L-409.27,-268.37L-410.18,-232.71C-406.26,-232.82 -397.99,-232.61 -389.51,-232.40L-390.87,-179.33ZM-87.21,-190.29L-87.68,-171.80L-157.71,-173.59L-156.70,-213.39L-107.98,-212.15L-108.47,-192.79L-98.03,-192.52L-96.76,-242.33L-107.20,-242.60L-107.67,-224.33L-156.39,-225.57L-155.46,-261.89L-86.95,-260.14L-87.39,-242.96L-74.77,-242.64L-73.33,-298.97L-189.47,-301.93L-190.47,-262.79L-170.90,-262.29L-173.16,-173.99L-192.73,-174.49L-193.53,-143.17L-75.87,-140.16L-74.60,-189.97ZM-54.41,-170.74L-55.21,-139.42C-49.12,-139.48 -13.23,-138.56 -1.06,-138.03L-0.26,-169.35L-19.61,-169.85L-18.80,-201.82C-12.54,-216.89 0.02,-222.88 16.55,-222.46C37.00,-221.94 45.00,-211.72 44.44,-189.54L43.89,-168.23L22.80,-168.76L22.00,-137.45C31.14,-137.43 54.84,-136.61 76.59,-136.05L77.39,-167.37L57.60,-167.88L58.48,-202.67C59.57,-245.30 47.51,-258.88 18.59,-259.62C2.28,-260.04 -13.19,-250.86 -17.96,-234.44L-17.35,-258.37L-52.15,-259.25L-53.06,-223.59C-49.14,-223.70 -40.88,-223.49 -32.39,-223.28L-33.75,-170.21ZM179.68,-133.64L217.31,-132.68L218.11,-163.99L192.44,-164.65L196.09,-307.32L155.85,-308.35L154.88,-270.29L180.98,-269.62L180.07,-233.95C173.09,-250.45 158.21,-255.84 144.51,-256.41C117.55,-257.31 98.84,-240.38 97.64,-193.62C96.67,-155.56 113.08,-133.16 142.22,-132.42C158.10,-132.01 171.59,-140.59 178.64,-152.38ZM143.74,-158.06C120.91,-158.64 109.73,-172.64 110.47,-193.08C110.88,-209.17 122.74,-221.71 144.92,-221.14C170.15,-220.50 179.18,-207.64 178.98,-191.54L178.44,-170.23C170.78,-159.98 159.84,-157.65 143.74,-158.06ZM277.79,-285.43C278.12,-298.05 271.28,-303.23 259.54,-303.53C246.49,-303.86 239.83,-298.81 239.52,-286.41C239.20,-274.01 246.01,-267.96 258.62,-267.64C269.93,-267.35 277.48,-273.03 277.79,-285.43ZM232.24,-163.42L231.44,-132.10C240.80,-132.08 249.71,-131.85 258.63,-131.62L266.24,-131.43C275.60,-131.19 284.94,-130.73 294.73,-130.48L295.53,-161.80L273.56,-162.36L275.71,-246.53L234.39,-247.58L233.48,-211.92L260.66,-211.22L259.43,-162.72ZM315.10,-161.30L314.30,-129.98C320.40,-130.04 356.28,-129.13 368.46,-128.60L369.26,-159.92L349.90,-160.41L350.72,-192.38C356.98,-207.46 369.54,-213.45 386.07,-213.02C406.51,-212.50 414.52,-202.29 413.95,-180.10L413.41,-158.79L392.31,-159.33L391.51,-128.01C400.65,-127.99 424.35,-127.17 446.10,-126.61L446.90,-157.93L427.11,-158.44L428.00,-193.24C429.09,-235.86 417.03,-249.45 388.10,-250.19C371.79,-250.60 356.32,-241.42 351.55,-225.00L352.16,-248.93L317.36,-249.82L316.45,-214.15C320.37,-214.27 328.64,-214.06 337.12,-213.84L335.76,-160.77ZM515.66,-72.17C551.54,-71.25 568.17,-91.72 568.65,-110.43C569.12,-128.70 559.86,-141.12 538.97,-141.44C523.53,-141.61 511.25,-138.23 497.98,-138.56C491.89,-138.72 487.63,-142.31 487.61,-149.71C487.50,-154.07 490.62,-157.03 494.37,-158.90C501.26,-156.11 508.85,-155.04 516.03,-154.86C536.04,-154.35 562.11,-161.30 562.97,-194.79C563.17,-202.84 562.48,-209.61 561.10,-215.52C568.16,-219.04 578.51,-215.51 578.51,-215.51L587.05,-242.93C571.87,-245.06 560.48,-242.30 554.54,-231.14C546.98,-241.99 534.26,-246.45 518.38,-246.86C491.19,-247.55 473.03,-235.18 472.05,-196.68C471.72,-183.85 474.97,-174.84 480.47,-168.61C473.38,-163.57 470.56,-155.37 470.59,-147.97C470.49,-135.78 478.64,-122.30 496.03,-121.86C510.82,-121.48 523.95,-124.19 536.35,-123.87C544.61,-123.66 551.03,-119.15 550.87,-113.06C550.68,-105.44 541.57,-98.28 517.86,-98.88C496.33,-99.43 478.25,-107.29 470.93,-118.80L465.01,-100.02C470.06,-84.87 491.95,-72.78 515.66,-72.17ZM516.51,-173.57C494.98,-174.12 486.11,-185.01 486.38,-195.66C486.91,-207.84 495.60,-215.67 517.57,-215.11C538.88,-214.56 548.69,-206.69 548.59,-194.07C548.34,-184.29 537.60,-173.03 516.51,-173.57Z" fill="#ffffff" stroke="#000000"/>
    <path d="M-510.47,-153.52L-509.31,-183.64L-536.21,-184.68L-526.62,-209.95L-476.70,-208.04L-468.00,-182.06L-492.74,-183.01L-493.90,-152.88L-429.13,-150.40L-427.97,-180.53L-450.35,-181.39L-480.59,-275.21L-465.31,-274.62L-463.99,-309.05L-516.28,-311.06L-565.69,-185.81L-587.42,-186.64L-588.58,-156.51ZM-500.07,-278.76L-481.71,-223.53L-521.09,-225.04ZM-410.95,-180.52L-412.14,-149.54C-406.10,-149.52 -370.60,-148.16 -358.56,-147.48L-357.37,-178.47L-376.52,-179.20L-375.31,-210.83C-368.92,-225.67 -356.42,-231.44 -340.06,-230.82C-319.84,-230.04 -312.04,-219.83 -312.88,-197.88L-313.69,-176.79L-334.56,-177.59L-335.75,-146.61C-326.70,-146.48 -303.26,-145.36 -281.74,-144.54L-280.55,-175.53L-300.13,-176.28L-298.81,-210.70C-297.20,-252.88 -308.96,-266.48 -337.58,-267.57C-353.72,-268.19 -369.14,-259.30 -374.07,-243.11L-373.17,-266.78L-407.59,-268.10L-408.95,-232.81C-405.07,-232.88 -396.89,-232.56 -388.50,-232.24L-390.51,-179.74ZM-89.84,-186.75L-90.54,-168.46L-159.82,-171.11L-158.32,-210.49L-110.12,-208.65L-110.85,-189.49L-100.52,-189.10L-98.63,-238.38L-108.96,-238.77L-109.65,-220.70L-157.85,-222.54L-156.48,-258.48L-88.69,-255.88L-89.35,-238.88L-76.87,-238.40L-74.73,-294.14L-189.64,-298.54L-191.12,-259.81L-171.76,-259.06L-175.10,-171.70L-194.47,-172.44L-195.66,-141.46L-79.24,-136.99L-77.35,-186.27ZM-57.62,-166.98L-58.81,-136.00C-52.78,-135.98 -17.27,-134.62 -5.23,-133.94L-4.04,-164.93L-23.19,-165.66L-21.98,-197.29C-15.59,-212.14 -3.09,-217.91 13.27,-217.28C33.49,-216.50 41.29,-206.29 40.45,-184.34L39.64,-163.26L18.77,-164.06L17.58,-133.07C26.63,-132.94 50.07,-131.82 71.59,-131.00L72.78,-161.99L53.20,-162.74L54.52,-197.17C56.13,-239.34 44.37,-252.94 15.75,-254.03C-0.39,-254.65 -15.81,-245.76 -20.74,-229.57L-19.84,-253.24L-54.27,-254.56L-55.62,-219.27C-51.74,-219.34 -43.56,-219.03 -35.17,-218.70L-37.18,-166.20ZM173.60,-127.31L210.82,-125.88L212.01,-156.87L186.62,-157.84L192.03,-299.00L152.22,-300.52L150.78,-262.87L176.60,-261.88L175.25,-226.59C168.55,-243.01 153.89,-248.52 140.34,-249.26C113.67,-250.50 94.93,-233.98 93.16,-187.71C91.72,-150.05 107.67,-127.68 136.50,-126.57C152.21,-125.97 165.67,-134.29 172.80,-145.87ZM138.34,-151.93C115.74,-152.80 104.86,-166.79 105.85,-187.01C106.46,-202.93 118.35,-215.19 140.30,-214.35C165.26,-213.39 174.03,-200.56 173.64,-184.63L172.83,-163.54C165.12,-153.49 154.26,-151.32 138.34,-151.93ZM272.62,-276.30C273.09,-288.78 266.40,-293.99 254.78,-294.44C241.87,-294.93 235.21,-290.02 234.74,-277.75C234.27,-265.49 240.94,-259.41 253.42,-258.93C264.61,-258.50 272.15,-264.03 272.62,-276.30ZM225.99,-156.11L224.80,-125.13C234.06,-124.99 242.88,-124.65 251.71,-124.31L259.24,-124.02C268.49,-123.67 277.74,-123.10 287.42,-122.73L288.61,-153.72L266.87,-154.55L270.06,-237.82L229.18,-239.39L227.83,-204.10L254.72,-203.07L252.89,-155.08ZM307.97,-152.97L306.79,-121.99C312.82,-121.97 348.32,-120.61 360.37,-119.93L361.55,-150.92L342.40,-151.65L343.61,-183.29C350.00,-198.13 362.51,-203.90 378.86,-203.27C399.09,-202.49 406.88,-192.28 406.04,-170.33L405.23,-149.25L384.36,-150.05L383.17,-119.06C392.22,-118.93 415.67,-117.81 437.19,-116.99L438.37,-147.98L418.79,-148.73L420.11,-183.16C421.73,-225.33 409.96,-238.93 381.35,-240.02C365.21,-240.64 349.78,-231.75 344.85,-215.56L345.76,-239.23L311.33,-240.55L309.98,-205.26C313.86,-205.33 322.03,-205.02 330.43,-204.69L328.41,-152.19ZM505.34,-62.23C540.84,-60.87 557.56,-80.91 558.27,-99.42C558.96,-117.50 549.96,-129.91 529.29,-130.48C514.00,-130.86 501.81,-127.66 488.69,-128.16C482.66,-128.39 478.49,-132.00 478.56,-139.32C478.50,-143.64 481.63,-146.53 485.37,-148.33C492.15,-145.48 499.65,-144.34 506.75,-144.06C526.55,-143.30 552.44,-149.85 553.71,-182.99C554.02,-190.95 553.41,-197.66 552.13,-203.53C559.16,-206.92 569.36,-203.30 569.36,-203.30L578.15,-230.33C563.16,-232.63 551.85,-230.04 545.83,-219.07C538.49,-229.91 525.95,-234.48 510.24,-235.08C483.34,-236.12 465.21,-224.10 463.75,-186.01C463.26,-173.31 466.37,-164.36 471.73,-158.12C464.65,-153.22 461.75,-145.14 461.69,-137.82C461.44,-125.76 469.33,-112.31 486.55,-111.65C501.18,-111.09 514.20,-113.61 526.47,-113.14C534.65,-112.82 540.94,-108.27 540.71,-102.25C540.42,-94.72 531.31,-87.74 507.86,-88.64C486.56,-89.45 468.76,-97.46 461.66,-108.94L455.56,-90.43C460.37,-75.37 481.88,-63.13 505.34,-62.23ZM507.46,-162.57C486.16,-163.38 477.52,-174.28 477.93,-184.82C478.60,-196.86 487.30,-204.50 509.04,-203.67C530.12,-202.86 539.73,-194.95 539.47,-182.46C539.10,-172.78 528.33,-161.77 507.46,-162.57Z" fill="#ffffff" stroke="#000000"/>
    <path d="M-509.12,-155.79L-507.60,-185.59L-534.21,-186.95L-524.40,-211.84L-475.02,-209.32L-466.74,-183.50L-491.21,-184.75L-492.74,-154.95L-428.67,-151.68L-427.15,-181.48L-449.28,-182.61L-478.02,-275.84L-462.91,-275.07L-461.17,-309.12L-512.89,-311.76L-563.37,-188.44L-584.86,-189.54L-586.39,-159.74ZM-497.25,-279.60L-479.78,-224.71L-518.73,-226.70ZM-410.30,-181.26L-411.87,-150.61C-405.90,-150.52 -370.78,-148.72 -358.87,-147.90L-357.30,-178.55L-376.24,-179.52L-374.65,-210.80C-368.14,-225.41 -355.69,-230.96 -339.51,-230.13C-319.51,-229.11 -311.92,-218.91 -313.03,-197.20L-314.09,-176.34L-334.74,-177.39L-336.31,-146.75C-327.36,-146.50 -304.17,-145.10 -282.88,-144.01L-281.32,-174.66L-300.69,-175.65L-298.95,-209.71C-296.81,-251.43 -308.28,-265.03 -336.59,-266.48C-352.55,-267.29 -367.93,-258.69 -373.01,-242.73L-371.82,-266.14L-405.87,-267.88L-407.66,-232.98C-403.81,-232.99 -395.73,-232.58 -387.42,-232.16L-390.08,-180.22ZM-92.44,-183.36L-93.37,-165.27L-161.90,-168.77L-159.91,-207.72L-112.23,-205.29L-113.20,-186.34L-102.99,-185.82L-100.49,-234.56L-110.71,-235.08L-111.63,-217.21L-159.30,-219.64L-157.48,-255.19L-90.44,-251.76L-91.30,-234.95L-78.95,-234.32L-76.14,-289.44L-189.79,-295.25L-191.75,-256.94L-172.60,-255.96L-177.01,-169.55L-196.17,-170.53L-197.74,-139.88L-82.59,-133.99L-80.10,-182.73ZM-60.81,-163.39L-62.38,-132.74C-56.41,-132.65 -21.29,-130.86 -9.38,-130.04L-7.81,-160.68L-26.76,-161.65L-25.16,-192.94C-18.65,-207.55 -6.20,-213.10 9.97,-212.27C29.98,-211.25 37.57,-201.04 36.46,-179.33L35.39,-158.48L14.75,-159.53L13.18,-128.88C22.13,-128.64 45.32,-127.24 66.60,-126.15L68.17,-156.80L48.80,-157.79L50.54,-191.85C52.67,-233.56 41.21,-247.17 12.90,-248.61C-3.07,-249.43 -18.44,-240.83 -23.53,-224.87L-22.33,-248.28L-56.38,-250.02L-58.17,-215.11C-54.33,-215.13 -46.24,-214.72 -37.94,-214.29L-40.59,-162.36ZM167.50,-121.21L204.32,-119.33L205.89,-149.98L180.77,-151.26L187.91,-290.88L148.53,-292.90L146.63,-255.65L172.17,-254.34L170.39,-219.44C163.97,-235.77 149.53,-241.42 136.13,-242.31C109.75,-243.88 91.00,-227.76 88.66,-182.00C86.76,-144.75 102.26,-122.41 130.78,-120.95C146.32,-120.16 159.75,-128.22 166.95,-139.59ZM132.92,-146.02C110.57,-147.16 99.97,-161.15 101.21,-181.15C102.02,-196.90 113.94,-208.88 135.65,-207.77C160.34,-206.51 168.86,-193.69 168.27,-177.93L167.20,-157.07C159.44,-147.23 148.67,-145.22 132.92,-146.02ZM267.37,-267.40C268.01,-279.75 261.45,-284.99 249.95,-285.58C237.18,-286.23 230.53,-281.45 229.91,-269.32C229.29,-257.19 235.81,-251.09 248.16,-250.46C259.22,-249.89 266.75,-255.27 267.37,-267.40ZM219.71,-149.06L218.15,-118.41C227.31,-118.15 236.04,-117.70 244.76,-117.26L252.21,-116.88C261.36,-116.41 270.51,-115.73 280.08,-115.24L281.65,-145.89L260.15,-146.99L264.36,-229.36L223.92,-231.42L222.14,-196.52L248.74,-195.16L246.32,-147.70ZM300.81,-144.91L299.24,-114.26C305.21,-114.17 340.33,-112.37 352.24,-111.55L353.80,-142.20L334.86,-143.17L336.46,-174.46C342.97,-189.06 355.42,-194.61 371.59,-193.79C391.60,-192.77 399.19,-182.56 398.08,-160.85L397.01,-139.99L376.37,-141.05L374.80,-110.40C383.75,-110.15 406.94,-108.76 428.22,-107.67L429.79,-138.32L410.42,-139.31L412.16,-173.36C414.29,-215.08 402.82,-228.68 374.52,-230.13C358.55,-230.95 343.18,-222.34 338.09,-206.38L339.29,-229.80L305.23,-231.54L303.45,-196.63C307.29,-196.65 315.38,-196.23 323.68,-195.81L321.03,-143.88ZM494.98,-52.61C530.09,-50.82 546.89,-70.45 547.83,-88.75C548.74,-106.63 539.98,-119.03 519.54,-119.86C504.42,-120.42 492.31,-117.41 479.33,-118.07C473.37,-118.38 469.29,-122.00 469.44,-129.25C469.45,-133.52 472.58,-136.34 476.30,-138.07C482.98,-135.17 490.38,-133.94 497.41,-133.58C516.99,-132.58 542.70,-138.74 544.37,-171.51C544.78,-179.39 544.26,-186.03 543.06,-191.85C550.06,-195.12 560.11,-191.41 560.11,-191.41L569.16,-218.05C554.35,-220.51 543.13,-218.10 537.03,-207.31C529.90,-218.13 517.55,-222.82 502.01,-223.61C475.40,-224.97 457.31,-213.31 455.38,-175.63C454.74,-163.08 457.70,-154.18 462.93,-147.93C455.86,-143.17 452.89,-135.22 452.73,-127.97C452.34,-116.04 459.97,-102.63 477.00,-101.76C491.47,-101.02 504.40,-103.35 516.53,-102.73C524.62,-102.31 530.79,-97.73 530.48,-91.77C530.10,-84.32 521.00,-77.53 497.80,-78.72C476.73,-79.79 459.22,-87.94 452.34,-99.39L446.07,-81.15C450.64,-66.19 471.78,-53.80 494.98,-52.61ZM498.34,-151.89C477.27,-152.96 468.86,-163.85 469.40,-174.28C470.22,-186.19 478.92,-193.64 500.42,-192.54C521.28,-191.47 530.69,-183.52 530.27,-171.17C529.78,-161.59 518.99,-150.83 498.34,-151.89Z" fill="#ffffff" stroke="#000000"/>
    <path d="M-507.68,-158.11L-505.80,-187.57L-532.11,-189.26L-522.09,-213.76L-473.26,-210.64L-465.39,-184.99L-489.59,-186.54L-491.48,-157.07L-428.12,-153.02L-426.24,-182.49L-448.13,-183.89L-475.39,-276.50L-460.44,-275.55L-458.29,-309.22L-509.44,-312.49L-560.94,-191.10L-582.20,-192.46L-584.08,-162.99ZM-494.37,-280.46L-477.77,-225.94L-516.29,-228.40ZM-409.57,-182.06L-411.51,-151.75C-405.60,-151.58 -370.88,-149.36 -359.10,-148.40L-357.17,-178.71L-375.90,-179.90L-373.92,-210.84C-367.30,-225.21 -354.91,-230.55 -338.91,-229.53C-319.13,-228.26 -311.75,-218.07 -313.12,-196.60L-314.44,-175.98L-334.86,-177.28L-336.79,-146.97C-327.94,-146.62 -305.01,-144.94 -283.96,-143.60L-282.03,-173.90L-301.18,-175.13L-299.03,-208.80C-296.39,-250.06 -307.57,-263.66 -335.56,-265.45C-351.34,-266.46 -366.67,-258.14 -371.90,-242.41L-370.42,-265.57L-404.10,-267.72L-406.30,-233.20C-402.50,-233.17 -394.50,-232.66 -386.30,-232.13L-389.58,-180.78ZM-95.03,-180.12L-96.17,-162.23L-163.94,-166.57L-161.48,-205.08L-114.33,-202.07L-115.53,-183.34L-105.43,-182.69L-102.35,-230.89L-112.45,-231.54L-113.58,-213.86L-160.72,-216.87L-158.48,-252.02L-92.18,-247.78L-93.24,-231.15L-81.04,-230.37L-77.55,-284.88L-189.94,-292.07L-192.36,-254.18L-173.42,-252.97L-178.88,-167.52L-197.83,-168.73L-199.76,-138.43L-85.90,-131.15L-82.82,-179.34ZM-63.98,-159.97L-65.92,-129.66C-60.01,-129.49 -25.28,-127.27 -13.51,-126.31L-11.57,-156.62L-30.30,-157.81L-28.33,-188.75C-21.70,-203.12 -9.32,-208.46 6.68,-207.44C26.46,-206.17 33.84,-195.98 32.47,-174.51L31.15,-153.88L10.74,-155.19L8.80,-124.88C17.65,-124.53 40.58,-122.85 61.63,-121.51L63.56,-151.81L44.41,-153.04L46.56,-186.71C49.20,-227.96 38.03,-241.57 10.03,-243.36C-5.75,-244.37 -21.08,-236.05 -26.31,-220.32L-24.83,-243.47L-58.50,-245.63L-60.71,-211.11C-56.91,-211.08 -48.91,-210.57 -40.70,-210.04L-43.99,-158.69ZM161.40,-115.34L197.82,-113.01L199.75,-143.32L174.92,-144.91L183.74,-282.98L144.81,-285.46L142.45,-248.63L167.71,-247.02L165.50,-212.50C159.35,-228.74 145.14,-234.51 131.90,-235.57C105.81,-237.45 87.05,-221.74 84.16,-176.49C81.81,-139.66 96.87,-117.35 125.07,-115.55C140.43,-114.57 153.82,-122.37 161.09,-133.53ZM127.50,-140.33C105.40,-141.74 95.09,-155.72 96.57,-175.49C97.56,-191.06 109.51,-202.77 130.98,-201.39C155.39,-199.83 163.66,-187.05 162.88,-171.46L161.56,-150.83C153.76,-141.19 143.07,-139.33 127.50,-140.33ZM262.08,-258.74C262.86,-270.94 256.43,-276.22 245.07,-276.94C232.44,-277.75 225.80,-273.10 225.03,-261.10C224.27,-249.11 230.64,-242.99 242.85,-242.21C253.79,-241.51 261.31,-246.74 262.08,-258.74ZM213.42,-142.23L211.48,-111.93C220.55,-111.56 229.18,-111.01 237.80,-110.46L245.17,-109.98C254.22,-109.41 263.26,-108.62 272.73,-108.01L274.67,-138.32L253.41,-139.68L258.62,-221.13L218.63,-223.69L216.42,-189.17L242.73,-187.49L239.73,-140.55ZM293.61,-137.11L291.67,-106.80C297.58,-106.63 332.31,-104.41 344.08,-103.45L346.02,-133.76L327.28,-134.96L329.26,-165.89C335.89,-180.26 348.27,-185.60 364.27,-184.58C384.05,-183.31 391.43,-173.12 390.06,-151.65L388.74,-131.03L368.33,-132.33L366.39,-102.02C375.24,-101.67 398.17,-99.99 419.22,-98.65L421.15,-128.96L402.00,-130.18L404.15,-163.85C406.79,-205.11 395.61,-218.71 367.62,-220.50C351.84,-221.51 336.51,-213.19 331.28,-197.47L332.76,-220.62L299.08,-222.77L296.88,-188.25C300.68,-188.22 308.68,-187.71 316.89,-187.18L313.60,-135.83ZM484.57,-43.33C519.30,-41.11 536.17,-60.32 537.33,-78.42C538.46,-96.10 529.95,-108.48 509.73,-109.56C494.77,-110.30 482.76,-107.48 469.92,-108.30C464.03,-108.67 460.03,-112.31 460.28,-119.48C460.34,-123.70 463.47,-126.46 467.17,-128.13C473.74,-125.17 481.06,-123.86 488.00,-123.41C507.37,-122.18 532.88,-127.94 534.95,-160.35C535.45,-168.14 535.03,-174.72 533.92,-180.50C540.88,-183.64 550.78,-179.84 550.78,-179.84L560.07,-206.09C545.44,-208.71 534.31,-206.47 528.14,-195.87C521.22,-206.67 509.06,-211.46 493.69,-212.44C467.38,-214.12 449.33,-202.81 446.95,-165.56C446.16,-153.14 448.97,-144.29 454.07,-138.05C447.01,-133.43 443.97,-125.59 443.73,-118.43C443.18,-106.63 450.57,-93.26 467.41,-92.19C481.72,-91.27 494.54,-93.41 506.54,-92.64C514.53,-92.13 520.58,-87.52 520.20,-81.63C519.73,-74.26 510.64,-67.66 487.70,-69.12C466.87,-70.45 449.64,-78.74 442.98,-90.15L436.54,-72.18C440.88,-57.32 461.63,-44.79 484.57,-43.33ZM489.16,-141.51C468.32,-142.85 460.14,-153.72 460.80,-164.04C461.77,-175.81 470.47,-183.07 491.73,-181.71C512.36,-180.40 521.57,-172.41 521.00,-160.19C520.39,-150.72 509.58,-140.21 489.16,-141.51Z" fill="#ffffff" stroke="#000000"/>
    <path d="M-506.14,-160.46L-503.90,-189.59L-529.91,-191.59L-519.69,-215.71L-471.42,-212.01L-463.95,-186.53L-487.88,-188.36L-490.12,-159.23L-427.49,-154.43L-425.25,-183.56L-446.89,-185.22L-472.69,-277.19L-457.92,-276.06L-455.36,-309.35L-505.92,-313.23L-558.42,-193.78L-579.43,-195.39L-581.67,-166.26ZM-491.42,-281.35L-475.69,-227.19L-513.77,-230.12ZM-408.77,-182.92L-411.07,-152.96C-405.23,-152.72 -370.89,-150.08 -359.26,-148.98L-356.96,-178.94L-375.48,-180.36L-373.13,-210.95C-366.39,-225.08 -354.07,-230.21 -338.26,-228.99C-318.70,-227.49 -311.53,-217.31 -313.16,-196.09L-314.72,-175.70L-334.90,-177.25L-337.20,-147.29C-328.45,-146.83 -305.79,-144.88 -284.98,-143.28L-282.68,-173.24L-301.61,-174.70L-299.06,-207.99C-295.93,-248.77 -306.81,-262.37 -334.49,-264.49C-350.09,-265.69 -365.36,-257.65 -370.73,-242.16L-368.98,-265.05L-402.27,-267.60L-404.89,-233.48C-401.13,-233.40 -393.22,-232.79 -385.10,-232.17L-389.00,-181.40ZM-97.58,-177.03L-98.94,-159.35L-165.94,-164.49L-163.01,-202.57L-116.41,-198.99L-117.83,-180.47L-107.84,-179.71L-104.18,-227.35L-114.17,-228.12L-115.51,-210.64L-162.12,-214.22L-159.45,-248.97L-93.91,-243.94L-95.17,-227.50L-83.10,-226.57L-78.97,-280.46L-190.08,-288.99L-192.95,-251.54L-174.23,-250.10L-180.71,-165.62L-199.44,-167.06L-201.74,-137.10L-89.17,-128.46L-85.51,-176.11ZM-67.12,-156.70L-69.42,-126.74C-63.58,-126.50 -29.25,-123.86 -17.61,-122.76L-15.31,-152.72L-33.83,-154.14L-31.48,-184.73C-24.75,-198.86 -12.42,-203.99 3.39,-202.77C22.95,-201.27 30.12,-191.09 28.49,-169.87L26.93,-149.48L6.74,-151.03L4.44,-121.07C13.20,-120.60 35.86,-118.65 56.67,-117.06L58.97,-147.02L40.03,-148.47L42.59,-181.76C45.72,-222.55 34.83,-236.15 7.16,-238.27C-8.44,-239.47 -23.71,-231.43 -29.09,-215.94L-27.33,-238.83L-60.62,-241.38L-63.24,-207.26C-59.48,-207.18 -51.57,-206.57 -43.46,-205.95L-47.35,-155.18ZM155.31,-109.70L191.31,-106.93L193.61,-136.90L169.05,-138.78L179.53,-275.27L141.04,-278.23L138.24,-241.81L163.21,-239.90L160.59,-205.78C154.71,-221.92 140.73,-227.81 127.63,-229.03C101.85,-231.21 83.09,-215.91 79.66,-171.17C76.86,-134.76 91.48,-112.50 119.36,-110.36C134.55,-109.20 147.90,-116.75 155.23,-127.70ZM122.08,-134.85C100.23,-136.53 90.21,-150.48 91.92,-170.02C93.10,-185.42 105.07,-196.85 126.29,-195.22C150.43,-193.37 158.45,-180.62 157.48,-165.20L155.91,-144.81C148.07,-135.37 137.48,-133.67 122.08,-134.85ZM256.73,-250.30C257.65,-262.37 251.36,-267.67 240.13,-268.53C227.64,-269.49 221.02,-264.97 220.11,-253.11C219.20,-241.25 225.42,-235.12 237.49,-234.20C248.31,-233.37 255.82,-238.44 256.73,-250.30ZM207.11,-135.65L204.81,-105.69C213.78,-105.21 222.31,-104.55 230.84,-103.90L238.12,-103.34C247.07,-102.65 256.00,-101.76 265.36,-101.04L267.66,-131.00L246.65,-132.62L252.83,-213.14L213.29,-216.17L210.67,-182.05L236.68,-180.05L233.12,-133.65ZM286.39,-129.56L284.09,-99.60C289.93,-99.36 324.26,-96.73 335.90,-95.63L338.20,-125.59L319.68,-127.01L322.03,-157.60C328.76,-171.73 341.08,-176.85 356.90,-175.64C376.46,-174.14 383.63,-163.96 382.00,-142.74L380.43,-122.35L360.25,-123.90L357.95,-93.93C366.71,-93.47 389.37,-91.52 410.18,-89.93L412.48,-119.89L393.54,-121.34L396.10,-154.63C399.23,-195.41 388.34,-209.02 360.67,-211.14C345.06,-212.34 329.80,-204.30 324.42,-188.81L326.18,-211.69L292.89,-214.25L290.27,-180.13C294.03,-180.05 301.94,-179.44 310.05,-178.82L306.15,-128.05ZM474.14,-34.37C508.47,-31.73 525.40,-50.52 526.78,-68.42C528.12,-85.90 519.86,-98.25 499.87,-99.58C485.08,-100.50 473.16,-97.86 460.46,-98.83C454.64,-99.28 450.73,-102.93 451.07,-110.02C451.18,-114.20 454.31,-116.89 458.00,-118.49C464.46,-115.48 471.68,-114.09 478.55,-113.56C497.69,-112.09 523.01,-117.47 525.47,-149.52C526.06,-157.21 525.72,-163.73 524.70,-169.46C531.63,-172.48 541.37,-168.60 541.37,-168.60L550.89,-194.45C536.45,-197.23 525.41,-195.15 519.17,-184.74C512.46,-195.51 500.49,-200.41 485.30,-201.57C459.29,-203.57 441.29,-192.60 438.46,-155.77C437.52,-143.50 440.19,-134.71 445.16,-128.47C438.12,-123.99 435.01,-116.27 434.68,-109.18C433.99,-97.52 441.13,-84.20 457.78,-82.92C471.93,-81.84 484.63,-83.79 496.49,-82.88C504.40,-82.28 510.32,-77.63 509.88,-71.81C509.32,-64.53 500.24,-58.11 477.56,-59.85C456.96,-61.43 440.03,-69.84 433.58,-81.22L426.99,-63.52C431.09,-48.76 451.46,-36.11 474.14,-34.37ZM479.92,-131.45C459.32,-133.04 451.36,-143.90 452.15,-154.10C453.25,-165.73 461.96,-172.81 482.97,-171.20C503.36,-169.63 512.37,-161.61 511.65,-149.53C510.94,-140.17 500.10,-129.91 479.92,-131.45Z" fill="#ffffff" stroke="#000000"/>
    <path d="M-504.49,-162.86L-501.91,-191.64L-527.62,-193.95L-517.20,-217.68L-469.49,-213.41L-462.43,-188.11L-486.08,-190.23L-488.66,-161.44L-426.76,-155.89L-424.18,-184.68L-445.57,-186.60L-469.93,-277.91L-455.33,-276.60L-452.38,-309.51L-502.35,-313.98L-555.79,-196.47L-576.56,-198.33L-579.14,-169.54ZM-488.40,-282.26L-473.53,-228.49L-511.16,-231.86ZM-407.88,-183.84L-410.54,-154.23C-404.76,-153.92 -370.83,-150.88 -359.33,-149.64L-356.68,-179.25L-374.98,-180.89L-372.27,-211.12C-365.43,-225.02 -353.17,-229.93 -337.55,-228.53C-318.22,-226.80 -311.25,-216.64 -313.13,-195.66L-314.94,-175.51L-334.88,-177.30L-337.54,-147.69C-328.88,-147.12 -306.48,-144.91 -285.92,-143.06L-283.27,-172.67L-301.98,-174.35L-299.03,-207.25C-295.42,-247.56 -306.02,-261.15 -333.37,-263.60C-348.79,-264.98 -363.99,-257.23 -369.51,-241.97L-367.48,-264.59L-400.38,-267.53L-403.40,-233.81C-399.69,-233.68 -391.87,-232.98 -383.85,-232.27L-388.35,-182.09ZM-100.11,-174.09L-101.67,-156.61L-167.89,-162.54L-164.51,-200.17L-118.45,-196.05L-120.09,-177.75L-110.22,-176.86L-106.00,-223.95L-115.87,-224.84L-117.42,-207.56L-163.48,-211.69L-160.41,-246.03L-95.63,-240.23L-97.09,-223.98L-85.16,-222.91L-80.39,-276.17L-190.20,-286.01L-193.51,-249.00L-175.01,-247.34L-182.49,-163.85L-200.99,-165.51L-203.65,-135.90L-92.40,-125.93L-88.18,-173.02ZM-70.23,-153.58L-72.88,-123.97C-67.11,-123.66 -33.18,-120.62 -21.68,-119.38L-19.02,-149.00L-37.33,-150.64L-34.62,-180.86C-27.78,-194.76 -15.52,-199.67 0.11,-198.27C19.44,-196.54 26.40,-186.38 24.53,-165.41L22.72,-145.26L2.77,-147.04L0.12,-117.43C8.77,-116.86 31.17,-114.65 51.73,-112.81L54.39,-142.42L35.67,-144.09L38.62,-177.00C42.23,-217.30 31.64,-230.90 4.29,-233.35C-11.14,-234.73 -26.34,-226.97 -31.85,-211.71L-29.83,-234.33L-62.73,-237.28L-65.75,-203.55C-62.03,-203.43 -54.22,-202.73 -46.20,-202.01L-50.69,-151.83ZM149.22,-104.28L184.80,-101.09L187.45,-130.70L163.19,-132.88L175.27,-267.77L137.23,-271.18L134.01,-235.20L158.68,-232.98L155.66,-199.26C150.05,-215.31 136.29,-221.31 123.35,-222.68C97.87,-225.17 79.12,-210.26 75.16,-166.05C71.94,-130.07 86.11,-107.86 113.67,-105.39C128.68,-104.05 141.98,-111.35 149.37,-122.09ZM116.67,-129.58C95.08,-131.52 85.34,-145.45 87.28,-164.76C88.64,-179.98 100.62,-191.13 121.60,-189.25C145.45,-187.12 153.23,-174.40 152.07,-159.16L150.26,-139.01C142.39,-129.77 131.88,-128.22 116.67,-129.58ZM251.33,-242.10C252.40,-254.02 246.24,-259.34 235.14,-260.34C222.80,-261.44 216.19,-257.06 215.14,-245.34C214.09,-233.62 220.17,-227.48 232.10,-226.41C242.79,-225.45 250.28,-230.37 251.33,-242.10ZM200.80,-129.30L198.15,-99.69C207.01,-99.10 215.44,-98.34 223.87,-97.59L231.07,-96.94C239.91,-96.15 248.73,-95.15 257.99,-94.32L260.64,-123.94L239.87,-125.80L247.00,-205.38L207.93,-208.88L204.91,-175.16L230.61,-172.85L226.50,-127.00ZM279.15,-122.28L276.49,-92.67C282.27,-92.36 316.20,-89.32 327.70,-88.08L330.35,-117.69L312.05,-119.33L314.76,-149.56C321.60,-163.46 333.86,-168.37 349.48,-166.97C368.81,-165.24 375.78,-155.08 373.90,-134.10L372.09,-113.95L352.15,-115.74L349.49,-86.12C358.15,-85.56 380.55,-83.34 401.11,-81.50L403.76,-111.11L385.05,-112.79L388.00,-145.69C391.61,-185.99 381.01,-199.59 353.66,-202.04C338.24,-203.42 323.04,-195.66 317.52,-180.40L319.55,-203.02L286.65,-205.97L283.63,-172.25C287.34,-172.12 295.16,-171.42 303.18,-170.70L298.68,-120.53ZM463.69,-25.73C497.62,-22.69 514.60,-41.07 516.19,-58.75C517.74,-76.02 509.72,-88.35 489.96,-89.91C475.34,-91.02 463.51,-88.55 450.97,-89.68C445.21,-90.19 441.39,-93.85 441.81,-100.86C441.98,-104.99 445.11,-107.61 448.78,-109.15C455.14,-106.09 462.26,-104.63 469.04,-104.02C487.96,-102.32 513.08,-107.33 515.92,-139.00C516.60,-146.60 516.35,-153.05 515.40,-158.73C522.30,-161.64 531.89,-157.67 531.89,-157.67L541.64,-183.12C527.39,-186.06 516.44,-184.14 510.13,-173.92C503.63,-184.66 491.85,-189.66 476.84,-191.00C451.13,-193.31 433.19,-182.68 429.92,-146.29C428.84,-134.15 431.37,-125.43 436.20,-119.19C429.18,-114.85 426.01,-107.25 425.59,-100.24C424.76,-88.71 431.66,-75.45 448.11,-73.97C462.09,-72.72 474.69,-74.49 486.41,-73.44C494.23,-72.74 500.03,-68.08 499.51,-62.32C498.87,-55.12 489.81,-48.88 467.39,-50.89C447.04,-52.72 430.39,-61.26 424.15,-72.59L417.41,-55.17C421.28,-40.52 441.27,-27.74 463.69,-25.73ZM470.63,-121.70C450.27,-123.53 442.54,-134.38 443.44,-144.45C444.68,-155.95 453.38,-162.84 474.15,-160.98C494.30,-159.17 503.12,-151.13 502.25,-139.18C501.42,-129.93 490.58,-119.92 470.63,-121.70Z" fill="#ffffff" stroke="#000000"/>
    <path d="M-502.74,-165.28L-499.83,-193.72L-525.23,-196.33L-514.62,-219.67L-467.48,-214.84L-460.82,-189.73L-484.18,-192.12L-487.10,-163.68L-425.94,-157.41L-423.03,-185.85L-444.16,-188.02L-467.10,-278.65L-452.68,-277.18L-449.35,-309.68L-498.72,-314.74L-553.06,-199.18L-573.58,-201.28L-576.50,-172.84ZM-485.32,-283.19L-471.29,-229.81L-508.47,-233.62ZM-406.91,-184.82L-409.91,-155.56C-404.20,-155.18 -370.68,-151.74 -359.32,-150.38L-356.32,-179.63L-374.41,-181.49L-371.35,-211.35C-364.40,-225.01 -352.22,-229.72 -336.78,-228.14C-317.68,-226.18 -310.91,-216.04 -313.04,-195.32L-315.08,-175.41L-334.79,-177.43L-337.79,-148.17C-329.23,-147.50 -307.11,-145.02 -286.79,-142.94L-283.79,-172.20L-302.28,-174.09L-298.95,-206.60C-294.87,-246.42 -305.18,-260.00 -332.20,-262.77C-347.44,-264.34 -362.58,-256.85 -368.22,-241.83L-365.93,-264.18L-398.44,-267.51L-401.85,-234.19C-398.18,-234.02 -390.46,-233.23 -382.53,-232.41L-387.61,-182.84ZM-102.60,-171.28L-104.37,-154.01L-169.79,-160.72L-165.98,-197.90L-120.47,-193.24L-122.32,-175.15L-112.57,-174.15L-107.80,-220.68L-117.55,-221.68L-119.30,-204.61L-164.81,-209.28L-161.33,-243.21L-97.33,-236.65L-98.98,-220.60L-87.19,-219.39L-81.80,-272.01L-190.30,-283.13L-194.04,-246.56L-175.76,-244.69L-184.21,-162.20L-202.50,-164.07L-205.50,-134.81L-95.58,-123.55L-90.81,-170.08ZM-73.30,-150.62L-76.30,-121.37C-70.59,-120.99 -37.07,-117.55 -25.71,-116.18L-22.71,-145.44L-40.79,-147.29L-37.73,-177.16C-30.79,-190.82 -18.60,-195.53 -3.16,-193.94C15.94,-191.98 22.70,-181.85 20.58,-161.12L18.54,-141.21L-1.17,-143.23L-4.17,-113.98C4.38,-113.30 26.51,-110.83 46.83,-108.75L49.82,-138.01L31.34,-139.90L34.67,-172.41C38.75,-212.23 28.44,-225.81 1.42,-228.58C-13.82,-230.14 -28.96,-222.66 -34.61,-207.64L-32.32,-229.99L-64.82,-233.32L-68.24,-200.00C-64.56,-199.82 -56.84,-199.03 -48.92,-198.22L-54.00,-148.65ZM143.15,-99.08L178.30,-95.48L181.30,-124.74L157.32,-127.19L170.99,-260.48L133.40,-264.33L129.75,-228.77L154.13,-226.27L150.72,-192.95C145.37,-208.90 131.83,-215.01 119.05,-216.52C93.88,-219.31 75.15,-204.80 70.67,-161.12C67.03,-125.57 80.77,-103.42 108.00,-100.63C122.83,-99.11 136.08,-106.17 143.52,-116.70ZM111.27,-124.52C89.93,-126.71 80.48,-140.61 82.64,-159.69C84.18,-174.73 96.18,-185.61 116.90,-183.48C140.47,-181.07 148.00,-168.39 146.66,-153.33L144.62,-133.42C136.71,-124.38 126.30,-122.98 111.27,-124.52ZM245.89,-234.12C247.10,-245.90 241.08,-251.24 230.10,-252.36C217.91,-253.61 211.32,-249.36 210.13,-237.78C208.94,-226.20 214.88,-220.05 226.67,-218.84C237.23,-217.76 244.70,-222.53 245.89,-234.12ZM194.49,-123.18L191.49,-93.92C200.24,-93.23 208.57,-92.38 216.90,-91.52L224.02,-90.79C232.75,-89.90 241.47,-88.80 250.61,-87.86L253.61,-117.12L233.09,-119.22L241.15,-197.85L202.54,-201.81L199.13,-168.49L224.53,-165.88L219.88,-120.58ZM271.90,-115.24L268.90,-85.99C274.61,-85.61 308.13,-82.17 319.49,-80.80L322.49,-110.06L304.40,-111.91L307.46,-141.78C314.41,-155.44 326.59,-160.15 342.03,-158.56C361.13,-156.61 367.90,-146.47 365.77,-125.74L363.73,-105.83L344.02,-107.85L341.02,-78.60C349.58,-77.92 371.70,-75.45 392.02,-73.37L395.02,-102.63L376.53,-104.52L379.86,-137.03C383.94,-176.85 373.63,-190.43 346.61,-193.20C331.37,-194.76 316.23,-187.28 310.59,-172.26L312.88,-194.61L280.37,-197.94L276.96,-164.62C280.63,-164.44 288.35,-163.65 296.28,-162.84L291.20,-113.27ZM453.22,-17.41C486.74,-13.98 503.77,-31.94 505.57,-49.41C507.31,-66.48 499.54,-78.77 480.02,-80.57C465.57,-81.84 453.84,-79.56 441.44,-80.83C435.75,-81.41 432.02,-85.08 432.53,-92.01C432.74,-96.09 435.88,-98.64 439.52,-100.12C445.77,-97.01 452.80,-95.47 459.50,-94.78C478.20,-92.87 503.10,-97.50 506.31,-128.79C507.08,-136.31 506.91,-142.69 506.05,-148.32C512.91,-151.11 522.35,-147.06 522.35,-147.06L532.31,-172.12C518.25,-175.20 507.40,-173.44 501.03,-163.41C494.74,-174.12 483.14,-179.21 468.31,-180.73C442.92,-183.33 425.03,-173.05 421.34,-137.09C420.11,-125.10 422.51,-116.44 427.21,-110.21C420.21,-106.00 416.98,-98.53 416.47,-91.60C415.51,-80.20 422.16,-66.99 438.42,-65.33C452.23,-63.91 464.72,-65.51 476.30,-64.32C484.02,-63.53 489.70,-58.84 489.11,-53.15C488.38,-46.04 479.35,-39.99 457.20,-42.26C437.09,-44.32 420.73,-52.97 414.70,-64.27L407.81,-47.11C411.45,-32.57 431.07,-19.68 453.22,-17.41ZM461.30,-112.26C441.18,-114.32 433.67,-125.15 434.69,-135.11C436.06,-146.46 444.75,-153.17 465.27,-151.06C485.18,-149.02 493.80,-140.95 492.80,-129.15C491.86,-120.01 481.00,-110.24 461.30,-112.26Z" fill="#ffffff" stroke="#000000"/>
    <path d="M-500.89,-167.73L-497.65,-195.83L-522.73,-198.72L-511.95,-221.68L-465.39,-216.31L-459.11,-191.38L-482.19,-194.05L-485.44,-165.95L-425.03,-158.98L-421.79,-187.07L-442.66,-189.48L-464.21,-279.42L-449.96,-277.77L-446.25,-309.88L-495.02,-315.51L-550.23,-201.90L-570.50,-204.24L-573.74,-176.14ZM-482.17,-284.13L-468.96,-231.16L-505.69,-235.40ZM-405.86,-185.85L-409.20,-156.95C-403.55,-156.50 -370.44,-152.68 -359.23,-151.18L-355.89,-180.08L-373.75,-182.14L-370.35,-211.64C-363.31,-225.06 -351.20,-229.56 -335.94,-227.80C-317.08,-225.63 -310.52,-215.52 -312.88,-195.04L-315.15,-175.38L-334.62,-177.62L-337.95,-148.73C-329.50,-147.95 -307.65,-145.23 -287.58,-142.91L-284.25,-171.81L-302.51,-173.92L-298.80,-206.03C-294.26,-245.36 -304.29,-258.93 -330.98,-262.01C-346.03,-263.74 -361.10,-256.53 -366.87,-241.74L-364.33,-263.82L-396.44,-267.53L-400.23,-234.61C-396.60,-234.40 -388.97,-233.52 -381.15,-232.61L-386.80,-183.65ZM-105.05,-168.62L-107.01,-151.56L-171.64,-159.02L-167.40,-195.74L-122.44,-190.56L-124.50,-172.69L-114.87,-171.58L-109.57,-217.54L-119.20,-218.65L-121.15,-201.79L-166.10,-206.98L-162.23,-240.50L-99.02,-233.20L-100.85,-217.35L-89.21,-216.00L-83.21,-267.98L-190.37,-280.35L-194.54,-244.23L-176.48,-242.14L-185.89,-160.66L-203.95,-162.75L-207.28,-133.85L-98.71,-121.32L-93.41,-167.27ZM-76.33,-147.82L-79.67,-118.92C-74.03,-118.47 -40.91,-114.65 -29.70,-113.15L-26.36,-142.05L-44.22,-144.11L-40.82,-173.61C-33.78,-187.03 -21.67,-191.53 -6.41,-189.77C12.45,-187.60 19.01,-177.48 16.65,-157.01L14.38,-137.35L-5.09,-139.59L-8.42,-110.69C0.03,-109.92 21.88,-107.20 41.95,-104.88L45.28,-133.78L27.02,-135.89L30.73,-168.00C35.27,-207.33 25.24,-220.89 -1.45,-223.97C-16.50,-225.71 -31.57,-218.50 -37.34,-203.71L-34.80,-225.79L-66.91,-229.50L-70.70,-196.58C-67.07,-196.37 -59.44,-195.49 -51.62,-194.58L-57.27,-145.61ZM137.10,-94.10L171.82,-90.10L175.15,-118.99L151.47,-121.73L166.67,-253.38L129.54,-257.66L125.48,-222.54L149.57,-219.76L145.77,-186.85C140.68,-202.69 127.37,-208.90 114.75,-210.56C89.89,-213.64 71.17,-199.53 66.19,-156.38C62.14,-121.26 75.46,-99.18 102.35,-96.08C117.00,-94.39 130.19,-101.20 137.69,-111.52ZM105.88,-119.67C84.81,-122.10 75.63,-135.97 78.01,-154.81C79.73,-169.66 91.73,-180.28 112.20,-177.91C135.48,-175.23 142.77,-162.59 141.25,-147.72L138.98,-128.05C131.05,-119.20 120.73,-117.95 105.88,-119.67ZM240.42,-226.36C241.76,-238.00 235.87,-243.36 225.03,-244.61C212.99,-246.00 206.42,-241.88 205.10,-230.44C203.78,-219.00 209.57,-212.84 221.21,-211.50C231.65,-210.29 239.10,-214.92 240.42,-226.36ZM188.17,-117.29L184.84,-88.39C193.49,-87.59 201.72,-86.64 209.95,-85.69L216.97,-84.88C225.60,-83.89 234.21,-82.69 243.24,-81.65L246.57,-110.55L226.30,-112.89L235.27,-190.55L197.14,-194.95L193.34,-162.04L218.43,-159.15L213.26,-114.39ZM264.64,-108.46L261.30,-79.56C266.94,-79.12 300.06,-75.29 311.27,-73.80L314.61,-102.70L296.75,-104.76L300.15,-134.26C307.19,-147.68 319.30,-152.18 334.55,-150.42C353.42,-148.24 359.98,-138.13 357.62,-117.66L355.35,-97.99L335.88,-100.24L332.54,-71.34C341.00,-70.57 362.85,-67.84 382.92,-65.53L386.25,-94.43L367.99,-96.54L371.70,-128.65C376.24,-167.98 366.21,-181.54 339.52,-184.62C324.47,-186.36 309.40,-179.15 303.63,-164.36L306.17,-186.44L274.06,-190.14L270.26,-157.23C273.90,-157.01 281.53,-156.13 289.35,-155.23L283.70,-106.26ZM442.74,-9.41C475.85,-5.59 492.92,-23.14 494.92,-40.40C496.86,-57.26 489.33,-69.52 470.04,-71.54C455.77,-72.98 444.14,-70.87 431.89,-72.28C426.27,-72.93 422.63,-76.60 423.22,-83.45C423.48,-87.49 426.61,-89.97 430.23,-91.39C436.38,-88.24 443.31,-86.62 449.93,-85.86C468.40,-83.73 493.09,-88.00 496.66,-118.90C497.51,-126.33 497.43,-132.64 496.65,-138.22C503.46,-140.89 512.75,-136.77 512.75,-136.77L522.92,-161.42C509.05,-164.65 498.29,-163.04 491.87,-153.21C485.78,-163.88 474.38,-169.06 459.73,-170.75C434.64,-173.64 416.82,-163.70 412.72,-128.18C411.35,-116.34 413.62,-107.74 418.19,-101.52C411.21,-97.44 407.92,-90.10 407.33,-83.25C406.24,-71.99 412.65,-58.84 428.71,-56.99C442.35,-55.42 454.72,-56.84 466.16,-55.52C473.78,-54.63 479.34,-49.93 478.69,-44.31C477.88,-37.28 468.87,-31.41 446.99,-33.93C427.12,-36.23 411.05,-45.00 405.23,-56.24L398.20,-39.36C401.62,-24.93 420.86,-11.94 442.74,-9.41ZM451.92,-103.12C432.06,-105.41 424.76,-116.22 425.90,-126.05C427.40,-137.27 436.08,-143.79 456.35,-141.45C476.02,-139.18 484.44,-131.09 483.29,-119.43C482.25,-110.40 471.39,-100.87 451.92,-103.12Z" fill="#ffffff" stroke="#000000"/>
    <path d="M-498.93,-170.21L-495.36,-197.95L-520.14,-201.13L-509.18,-223.70L-463.21,-217.80L-457.32,-193.07L-480.10,-196.00L-483.67,-168.25L-424.02,-160.59L-420.45,-188.34L-441.06,-190.98L-461.24,-280.19L-447.17,-278.39L-443.10,-310.09L-491.25,-316.28L-547.29,-204.62L-567.30,-207.19L-570.86,-179.44ZM-478.94,-285.08L-466.55,-232.53L-502.82,-237.18ZM-404.72,-186.92L-408.39,-158.39C-402.81,-157.87 -370.11,-153.67 -359.04,-152.05L-355.38,-180.59L-373.01,-182.85L-369.28,-211.98C-362.14,-225.17 -350.11,-229.47 -335.05,-227.53C-316.42,-225.14 -310.06,-215.06 -312.65,-194.85L-315.15,-175.42L-334.37,-177.89L-338.03,-149.36C-329.69,-148.49 -308.11,-145.51 -288.29,-142.97L-284.63,-171.51L-302.66,-173.82L-298.59,-205.53C-293.61,-244.37 -303.35,-257.91 -329.71,-261.29C-344.57,-263.20 -359.56,-256.26 -365.46,-241.71L-362.66,-263.51L-394.37,-267.58L-398.54,-235.08C-394.95,-234.82 -387.42,-233.85 -379.69,-232.86L-385.90,-184.51ZM-107.45,-166.09L-109.62,-149.24L-173.43,-157.43L-168.77,-193.70L-124.38,-188.00L-126.65,-170.36L-117.13,-169.14L-111.31,-214.52L-120.82,-215.75L-122.96,-199.10L-167.35,-204.80L-163.10,-237.89L-100.68,-229.88L-102.68,-214.22L-91.19,-212.75L-84.60,-264.08L-190.43,-277.66L-195.01,-241.99L-177.17,-239.70L-187.50,-159.24L-205.33,-161.53L-209.00,-132.99L-101.79,-119.23L-95.96,-164.61ZM-79.32,-145.15L-82.98,-116.62C-77.41,-116.10 -44.71,-111.90 -33.64,-110.28L-29.98,-138.82L-47.61,-141.08L-43.87,-170.21C-36.74,-183.40 -24.71,-187.70 -9.65,-185.76C8.98,-183.37 15.34,-173.29 12.75,-153.07L10.25,-133.65L-8.97,-136.12L-12.63,-107.58C-4.28,-106.71 17.29,-103.74 37.11,-101.20L40.77,-129.74L22.74,-132.05L26.81,-163.76C31.79,-202.60 22.05,-216.14 -4.31,-219.52C-19.17,-221.43 -34.16,-214.49 -40.06,-199.94L-37.26,-221.74L-68.97,-225.81L-73.14,-193.31C-69.55,-193.05 -62.02,-192.08 -54.29,-191.09L-60.49,-142.74ZM131.07,-89.34L165.35,-84.94L169.02,-113.48L145.63,-116.48L162.32,-246.48L125.66,-251.19L121.21,-216.50L144.99,-213.45L140.81,-180.95C135.98,-196.68 122.90,-202.99 110.44,-204.79C85.89,-208.15 67.21,-194.43 61.74,-151.82C57.29,-117.14 70.17,-95.14 96.73,-91.73C111.20,-89.88 124.33,-96.45 131.87,-106.56ZM100.52,-115.02C79.71,-117.69 70.81,-131.52 73.40,-150.12C75.29,-164.79 87.29,-175.13 107.50,-172.54C130.49,-169.59 137.54,-157.00 135.85,-142.31L133.36,-122.89C125.40,-114.24 115.19,-113.13 100.52,-115.02ZM234.91,-218.83C236.39,-230.32 230.63,-235.70 219.93,-237.07C208.04,-238.60 201.49,-234.60 200.04,-223.31C198.59,-212.01 204.24,-205.85 215.73,-204.37C226.04,-203.05 233.46,-207.53 234.91,-218.83ZM181.87,-111.62L178.21,-83.09C186.76,-82.19 194.88,-81.15 203.01,-80.10L209.94,-79.21C218.46,-78.12 226.96,-76.83 235.88,-75.68L239.54,-104.22L219.53,-106.79L229.37,-183.48L191.72,-188.32L187.55,-155.82L212.32,-152.64L206.64,-108.44ZM257.38,-101.93L253.71,-73.39C259.29,-72.88 291.99,-68.68 303.06,-67.06L306.72,-95.60L289.08,-97.86L292.82,-126.99C299.96,-140.18 311.99,-144.47 327.05,-142.54C345.68,-140.15 352.04,-130.07 349.44,-109.85L346.95,-90.43L327.73,-92.90L324.06,-64.36C332.41,-63.49 353.99,-60.52 373.81,-57.98L377.47,-86.51L359.44,-88.83L363.51,-120.54C368.49,-159.38 358.75,-172.92 332.39,-176.30C317.53,-178.21 302.54,-171.27 296.64,-156.72L299.44,-178.52L267.73,-182.59L263.56,-150.09C267.15,-149.83 274.68,-148.86 282.41,-147.87L276.20,-99.51ZM432.25,-1.73C464.95,2.47 482.06,-14.67 484.25,-31.71C486.39,-48.36 479.09,-60.58 460.04,-62.82C445.94,-64.43 434.41,-62.49 422.33,-64.04C416.78,-64.75 413.22,-68.43 413.89,-75.19C414.20,-79.18 417.33,-81.60 420.93,-82.95C426.96,-79.76 433.80,-78.08 440.34,-77.24C458.57,-74.90 483.04,-78.80 486.96,-109.32C487.90,-116.66 487.90,-122.90 487.20,-128.43C493.97,-130.98 503.10,-126.79 503.10,-126.79L513.47,-151.04C499.80,-154.41 489.14,-152.96 482.66,-143.31C476.77,-153.94 465.56,-159.21 451.10,-161.06C426.33,-164.24 408.57,-154.64 404.07,-119.56C402.57,-107.87 404.70,-99.34 409.14,-93.13C402.19,-89.18 398.84,-81.96 398.17,-75.20C396.95,-64.07 403.13,-50.99 418.98,-48.96C432.46,-47.23 444.70,-48.47 456.00,-47.02C463.53,-46.06 468.96,-41.33 468.25,-35.78C467.36,-28.85 458.37,-23.15 436.77,-25.92C417.15,-28.44 401.37,-37.32 395.76,-48.51L388.59,-31.91C391.79,-17.60 410.65,-4.50 432.25,-1.73ZM442.52,-94.28C422.90,-96.80 415.83,-107.58 417.07,-117.29C418.70,-128.36 427.37,-134.70 447.38,-132.13C466.80,-129.64 475.03,-121.53 473.75,-110.01C472.61,-101.09 461.75,-91.81 442.52,-94.28Z" fill="#ffffff" stroke="#000000"/>
    <path d="M-910.72,482.04L-910.72,492L-908.52,492L-908.52,488.92C-906.69,491.01 -903.46,492.38 -899.93,492.38C-893.09,492.38 -889.52,489.72 -889.52,484.89C-889.48,480.45 -892.33,477.45 -900.19,476.80C-906.05,476.31 -907.11,475.09 -907.11,473.38C-907.11,471.44 -905.63,469.54 -900.50,469.54C-896.09,469.54 -894.23,471.10 -892.86,472.24L-890.66,472.24L-890.66,463.88L-892.86,463.88L-892.86,466.73C-894.34,464.72 -897.15,463.12 -900.57,463.12C-906.88,463.12 -910.49,466.65 -910.49,471.21C-910.49,476.04 -908.40,478.78 -900.42,479.38C-895.25,479.76 -893.13,481.25 -893.13,483.11C-893.13,485.20 -895.14,486.79 -900.31,486.79C-904.37,486.79 -907.41,484.67 -908.52,482.04ZM-867.89,492C-866.37,492 -865.31,491.47 -864.63,490.59L-864.63,485.88C-865.50,486.98 -866.45,487.33 -867.63,487.33C-868.54,487.33 -869.34,486.87 -869.64,486.00L-869.64,479.99C-869.64,472.96 -871.96,470.72 -877.13,470.72C-879.98,470.72 -882.37,471.59 -883.82,473.30L-883.66,478.21C-882.64,476.99 -880.74,475.96 -877.51,475.96C-873.94,475.96 -872.26,477.45 -872.07,481.02C-873.67,479.92 -876.33,479.57 -878.12,479.57C-882.64,479.57 -885.72,482.12 -885.72,486.11C-885.72,489.80 -883.13,492.38 -877.74,492.38C-875.27,492.38 -872.87,491.35 -871.58,489.95C-870.82,491.28 -869.53,492 -867.89,492ZM-877.70,487.63C-881.23,487.63 -882.75,486.68 -882.75,485.01C-882.75,483.26 -881.16,482.27 -877.43,482.27C-875.30,482.27 -873.59,482.84 -872.04,484.02L-872.04,485.96C-873.25,487.10 -875.34,487.63 -877.70,487.63ZM-851.63,492L-846.42,477.33L-843.46,477.33L-843.46,471.10L-853.11,471.10L-853.11,477.33L-850.98,477.33L-854.25,487.25L-857.90,477.33L-855.70,477.33L-855.70,471.10L-863.60,471.10L-863.60,477.33L-860.56,477.33L-855.24,492ZM-823.36,492C-821.84,492 -820.77,491.47 -820.09,490.59L-820.09,485.88C-820.96,486.98 -821.91,487.33 -823.09,487.33C-824.00,487.33 -824.80,486.87 -825.11,486.00L-825.11,479.99C-825.11,472.96 -827.42,470.72 -832.59,470.72C-835.44,470.72 -837.84,471.59 -839.28,473.30L-839.13,478.21C-838.10,476.99 -836.20,475.96 -832.97,475.96C-829.40,475.96 -827.73,477.45 -827.54,481.02C-829.13,479.92 -831.79,479.57 -833.58,479.57C-838.10,479.57 -841.18,482.12 -841.18,486.11C-841.18,489.80 -838.60,492.38 -833.20,492.38C-830.73,492.38 -828.34,491.35 -827.04,489.95C-826.28,491.28 -824.99,492 -823.36,492ZM-833.16,487.63C-836.70,487.63 -838.22,486.68 -838.22,485.01C-838.22,483.26 -836.62,482.27 -832.90,482.27C-830.77,482.27 -829.06,482.84 -827.50,484.02L-827.50,485.96C-828.72,487.10 -830.81,487.63 -833.16,487.63ZM-805.16,489.95L-806.18,486.11C-806.79,486.79 -808.08,487.33 -809.68,487.29C-811.54,487.25 -812.83,486.30 -812.83,483.56L-812.83,477.41L-807.13,477.41L-807.13,471.48L-812.83,471.48L-812.83,466.54L-815.30,466.54L-815.30,471.48L-818.30,471.48L-818.30,477.41L-815.30,477.41L-815.30,486.19C-815.30,490.78 -813.14,492.38 -810.17,492.38C-808.01,492.38 -805.84,491.47 -805.16,489.95ZM-785.74,487.21L-787.52,485.50C-788.63,487.02 -790.22,487.82 -793.57,487.78C-797.06,487.74 -799.30,486.53 -799.80,483.18L-785.13,483.18C-785.13,473.80 -788.40,470.72 -793.57,470.72C-798.13,470.72 -802.12,473.76 -802.12,481.85C-802.12,488.01 -799.19,492.38 -793.49,492.38C-789.80,492.38 -786.99,490.10 -785.74,487.21ZM-793.76,476.50C-789.88,476.50 -787.49,478.40 -787.49,480.71L-799.80,480.71C-799.27,477.83 -796.61,476.50 -793.76,476.50ZM-772.21,482.27L-772.21,479.46L-782.47,479.46L-782.47,482.27ZM-768.98,482.04L-768.98,492L-766.78,492L-766.78,488.92C-764.95,491.01 -761.72,492.38 -758.19,492.38C-751.35,492.38 -747.78,489.72 -747.78,484.89C-747.74,480.45 -750.59,477.45 -758.45,476.80C-764.31,476.31 -765.37,475.09 -765.37,473.38C-765.37,471.44 -763.89,469.54 -758.76,469.54C-754.35,469.54 -752.49,471.10 -751.12,472.24L-748.92,472.24L-748.92,463.88L-751.12,463.88L-751.12,466.73C-752.60,464.72 -755.41,463.12 -758.83,463.12C-765.14,463.12 -768.75,466.65 -768.75,471.21C-768.75,476.04 -766.66,478.78 -758.68,479.38C-753.51,479.76 -751.39,481.25 -751.39,483.11C-751.39,485.20 -753.40,486.79 -758.57,486.79C-762.63,486.79 -765.67,484.67 -766.78,482.04ZM-727.60,487.21L-729.38,485.50C-730.49,487.02 -732.08,487.82 -735.43,487.78C-738.92,487.74 -741.16,486.53 -741.66,483.18L-726.99,483.18C-726.99,473.80 -730.26,470.72 -735.43,470.72C-739.99,470.72 -743.98,473.76 -743.98,481.85C-743.98,488.01 -741.05,492.38 -735.35,492.38C-731.66,492.38 -728.85,490.10 -727.60,487.21ZM-735.62,476.50C-731.74,476.50 -729.35,478.40 -729.35,480.71L-741.66,480.71C-741.13,477.83 -738.47,476.50 -735.62,476.50ZM-723.38,486.60L-723.38,492.08C-722.32,492.04 -716.05,492.04 -713.92,492.08L-713.92,486.60L-717.34,486.60L-717.34,481.17C-717.34,478.51 -715.97,477.03 -714.11,477.03C-712.40,477.03 -711.49,477.45 -711.03,478.43L-709.59,472.13C-710.57,471.29 -711.45,470.72 -713.27,470.72C-714.83,470.72 -716.73,471.78 -717.60,474.06L-718.90,471.10L-723.38,471.10L-723.38,477.33C-722.47,477.33 -721.40,477.29 -719.85,477.33L-719.85,486.60ZM-699.33,465.06C-699.33,462.85 -700.54,461.98 -702.59,461.98C-704.87,461.98 -706.01,462.89 -706.01,465.06C-706.01,467.22 -704.80,468.25 -702.59,468.25C-700.62,468.25 -699.33,467.22 -699.33,465.06ZM-706.74,486.57L-706.74,492.04C-705.10,492 -703.54,492 -701.99,492L-700.66,492C-699.02,492 -697.39,492.04 -695.68,492.04L-695.68,486.57L-699.52,486.57L-699.52,471.86L-706.74,471.86L-706.74,478.09L-701.99,478.09L-701.99,486.57ZM-682.23,492L-682.23,486.53L-686.79,486.53L-686.79,478.09L-682.11,478.09L-682.11,471.86L-686.75,471.86C-687.13,469.09 -685.15,467.53 -683.02,467.53C-681.96,467.53 -681.12,467.76 -680.67,468.10L-680.36,463.20C-681.24,462.51 -682.30,461.98 -683.75,461.98C-687.36,461.98 -690.05,464.94 -689.29,471.86L-692.26,471.86L-692.26,478.09L-689.26,478.09L-689.26,486.53L-692.22,486.53L-692.22,492Z"/>
</svg>