<?xml version="1.0"?>
<svg xmlns="http://www.w3.org/2000/svg" width="1920" height="1080" viewBox="-960 -540 1920 1080">
    <path d="M-447.44,-299.07L-434.79,-275.98L-434.79,-170.53L-447.44,-147L-400.82,-147C-370.85,-147 -330.00,-155.66 -330.00,-187.63C-330.00,-210.27 -346.43,-223.37 -372.85,-229.58C-357.09,-235.80 -339.33,-245.57 -339.33,-265.55C-339.33,-291.97 -367.08,-299.07 -399.04,-299.07ZM-407.26,-291.97L-399.93,-291.97C-385.50,-291.97 -366.63,-287.75 -366.63,-261.11C-366.63,-243.79 -380.17,-230.92 -407.26,-230.92ZM-407.26,-155.66L-407.26,-225.37C-380.17,-225.37 -361.08,-217.60 -361.08,-188.29C-361.08,-166.98 -379.06,-155.66 -400.60,-155.66ZM-283.83,-147C-270.73,-168.09 -255.41,-198.06 -247.64,-229.81L-250.30,-204.05L-250.30,-147L-207.90,-147L-224.33,-166.09L-224.33,-243.79L-215.89,-255.78L-241.20,-255.78C-287.60,-254.89 -312.91,-224.48 -312.91,-183.19C-312.91,-165.20 -306.91,-149.22 -300.25,-144.56ZM-280.27,-164.09C-282.94,-164.09 -285.38,-173.42 -285.38,-195.17C-285.38,-217.60 -279.61,-249.12 -249.86,-249.34C-250.08,-225.81 -276.06,-164.09 -280.27,-164.09ZM-134.42,-147L-93.79,-147L-108.89,-164.09L-108.89,-255.78L-137.75,-255.78L-134.42,-242.24C-134.42,-223.15 -151.07,-184.74 -162.17,-163.21C-163.06,-172.09 -163.72,-186.29 -163.72,-223.81L-163.72,-260.22L-205.68,-255.78L-189.25,-236.69L-189.25,-183.19C-189.25,-166.98 -186.37,-152.33 -185.04,-145.22L-165.06,-147C-160.39,-153.44 -143.08,-185.63 -134.42,-218.48ZM-79.36,-147L26.53,-147L28.97,-195.17L27.86,-195.62L-2.55,-154.99L-39.18,-154.99L-39.18,-219.59L18.54,-219.59L18.54,-229.58L-39.18,-229.58L-39.18,-291.08L-4.55,-291.08L21.42,-252.45L22.53,-252.45L22.53,-299.07L-79.36,-299.07L-66.71,-275.98L-66.71,-170.53ZM133.31,-221.37L133.98,-222.26L115.33,-258.89L112.44,-258.89C99.35,-240.24 88.47,-212.27 82.03,-187.40L82.03,-258L41.40,-243.13L56.50,-226.03L56.50,-147L83.80,-147L82.03,-160.54C82.03,-182.96 100.90,-228.03 104.01,-229.36ZM244.09,-147L227.66,-162.54L227.66,-304.62L187.03,-291.97L202.13,-274.87L202.13,-255.34C160.62,-250.90 137.75,-220.93 137.75,-183.19C137.75,-165.20 145.08,-149.22 151.74,-144.56L168.16,-147C181.26,-168.09 196.58,-198.06 204.35,-229.81L201.69,-204.05L201.69,-145.00ZM171.72,-164.09C169.05,-164.09 165.28,-173.42 165.28,-195.17C165.28,-217.60 172.38,-249.12 202.13,-249.34C201.91,-225.81 175.93,-164.09 171.72,-164.09ZM328.67,-197.39C328.67,-197.39 313.35,-160.10 297.37,-160.10C289.38,-160.10 283.38,-172.75 281.38,-191.18L330.22,-233.14C330.22,-237.58 323.57,-258.67 302.47,-258.67C275.17,-258.67 252.52,-220.70 252.52,-188.74C252.52,-159.21 265.62,-144.34 285.38,-144.34C306.91,-144.34 326.45,-176.08 332.22,-195.17ZM280.94,-196.51C280.72,-199.61 280.50,-202.94 280.50,-206.50C280.50,-242.02 287.38,-249.34 291.38,-251.78C294.26,-253.78 305.36,-243.13 306.47,-220.70ZM381.51,-258L340.88,-243.13L355.98,-226.03L355.98,-147L384.84,-147L381.51,-160.54C381.51,-179.19 397.27,-216.04 408.37,-238.02L410.14,-237.80C412.59,-229.14 414.58,-213.60 414.58,-178.97L414.58,-147L456.54,-147L440.11,-166.09L440.11,-191.84C440.11,-237.13 439.67,-243.57 433.90,-261.33L412.14,-255.78C407.48,-249.34 390.16,-217.15 381.51,-184.30Z" fill="#ffffff" stroke="#000000"/>
    <path d="M-444.44,-299.83L-432.26,-276.79L-433.83,-172.41L-446.71,-149.30L-400.56,-148.61C-370.89,-148.16 -330.33,-156.12 -329.85,-187.77C-329.52,-210.18 -345.58,-223.39 -371.64,-229.94C-355.95,-235.86 -338.22,-245.26 -337.92,-265.04C-337.53,-291.19 -364.89,-298.64 -396.54,-299.11ZM-404.77,-292.20L-397.52,-292.09C-383.24,-291.88 -364.62,-287.42 -365.02,-261.05C-365.28,-243.91 -378.87,-231.37 -405.68,-231.77ZM-406.80,-157.27L-405.77,-226.28C-378.96,-225.87 -360.17,-217.90 -360.61,-188.89C-360.93,-167.79 -378.90,-156.85 -400.21,-157.17ZM-284.75,-146.86C-271.47,-167.54 -255.86,-196.98 -247.70,-228.29L-250.72,-202.84L-251.57,-146.36L-209.59,-145.73L-225.57,-164.88L-224.41,-241.79L-215.88,-253.53L-240.94,-253.91C-286.88,-253.72 -312.38,-223.99 -313.00,-183.12C-313.27,-165.32 -307.57,-149.40 -301.05,-144.69ZM-280.98,-163.73C-283.62,-163.77 -285.89,-173.04 -285.57,-194.57C-285.24,-216.77 -279.05,-247.89 -249.60,-247.66C-250.17,-224.37 -276.80,-163.67 -280.98,-163.73ZM-136.85,-144.64L-96.64,-144.03L-111.33,-161.18L-109.96,-251.94L-138.53,-252.37L-135.44,-238.91C-135.72,-220.01 -152.77,-182.24 -164.08,-161.09C-164.83,-169.90 -165.28,-183.97 -164.72,-221.11L-164.18,-257.15L-205.78,-253.38L-189.80,-234.23L-190.60,-181.27C-190.84,-165.23 -188.20,-150.68 -186.99,-143.63L-167.18,-145.09C-162.47,-151.40 -144.85,-183.00 -135.79,-215.40ZM-82.36,-143.82L22.47,-142.24L25.60,-189.89L24.51,-190.34L-6.20,-150.58L-42.46,-151.13L-41.50,-215.08L15.64,-214.22L15.79,-224.11L-41.35,-224.97L-40.43,-285.84L-6.15,-285.32L18.98,-246.70L20.08,-246.68L20.78,-292.83L-80.09,-294.35L-67.91,-271.31L-69.48,-166.92ZM129.28,-214.26L129.95,-215.13L112.04,-251.67L109.18,-251.71C95.94,-233.45 84.75,-205.92 78.01,-181.41L79.06,-251.29L38.62,-237.17L53.31,-220.02L52.13,-141.79L79.16,-141.38L77.61,-154.82C77.94,-177.01 97.29,-221.34 100.39,-222.61ZM237.83,-139.00L221.80,-154.62L223.91,-295.27L183.51,-283.35L198.20,-266.20L197.91,-246.86C156.75,-243.08 133.67,-213.76 133.10,-176.40C132.84,-158.60 139.85,-142.67 146.37,-137.95L162.67,-140.13C175.95,-160.81 191.56,-190.25 199.73,-221.56L196.70,-196.10L195.82,-137.65ZM166.44,-157.00C163.80,-157.03 160.21,-166.32 160.53,-187.86C160.87,-210.05 168.37,-241.15 197.82,-240.93C197.25,-217.64 170.62,-156.93 166.44,-157.00ZM322.31,-187.62C322.31,-187.62 306.59,-150.93 290.76,-151.17C282.85,-151.29 277.11,-163.90 275.40,-182.17L324.38,-222.98C324.44,-227.37 318.16,-248.35 297.29,-248.66C270.26,-249.07 247.28,-211.83 246.80,-180.18C246.36,-150.96 259.10,-136.04 278.66,-135.74C299.98,-135.42 319.79,-166.56 325.79,-185.37ZM275.04,-187.45C274.87,-190.53 274.70,-193.83 274.75,-197.35C275.28,-232.51 282.20,-239.66 286.20,-242.02C289.08,-243.95 299.91,-233.24 300.68,-211.02ZM375.51,-246.83L335.07,-232.71L349.76,-215.56L348.58,-137.33L377.15,-136.90L374.06,-150.35C374.34,-168.81 390.49,-205.06 401.80,-226.65L403.56,-226.40C405.85,-217.79 407.59,-202.38 407.08,-168.10L406.60,-136.45L448.13,-135.83L432.16,-154.97L432.54,-180.46C433.21,-225.29 432.87,-231.67 427.42,-249.34L405.80,-244.17C401.09,-237.87 383.47,-206.26 374.41,-173.87Z" fill="#ffffff" stroke="#000000"/>
    <path d="M-441.40,-300.63L-429.69,-277.64L-432.80,-174.35L-445.89,-151.67L-400.22,-150.30C-370.86,-149.41 -330.60,-156.69 -329.65,-188.00C-328.98,-210.18 -344.69,-223.50 -370.38,-230.37C-354.76,-235.99 -337.08,-245.04 -336.49,-264.61C-335.71,-290.48 -362.68,-298.26 -394.00,-299.21ZM-402.25,-292.49L-395.07,-292.27C-380.94,-291.85 -362.58,-287.16 -363.37,-261.06C-363.88,-244.10 -377.52,-231.89 -404.05,-232.69ZM-406.27,-158.97L-404.22,-227.25C-377.69,-226.45 -359.21,-218.28 -360.08,-189.57C-360.71,-168.70 -378.65,-158.14 -399.75,-158.77ZM-285.62,-146.84C-272.17,-167.12 -256.28,-196.02 -247.73,-226.89L-251.10,-201.74L-252.78,-145.86L-211.25,-144.60L-226.78,-163.79L-224.48,-239.90L-215.87,-251.40L-240.66,-252.14C-286.13,-252.64 -311.82,-223.60 -313.04,-183.15C-313.57,-165.53 -308.17,-149.70 -301.78,-144.94ZM-281.64,-163.48C-284.25,-163.56 -286.36,-172.77 -285.72,-194.08C-285.06,-216.04 -278.47,-246.75 -249.33,-246.09C-250.24,-223.05 -277.50,-163.36 -281.64,-163.48ZM-139.27,-142.44L-99.47,-141.24L-113.76,-158.43L-111.05,-248.24L-139.32,-249.09L-136.46,-235.73C-137.02,-217.03 -154.46,-179.90 -165.97,-159.13C-166.58,-167.86 -166.81,-181.79 -165.71,-218.54L-164.63,-254.21L-205.86,-251.10L-190.33,-231.91L-191.91,-179.50C-192.39,-163.63 -190.00,-149.19 -188.90,-142.19L-169.28,-143.34C-164.52,-149.51 -146.61,-180.53 -137.16,-212.46ZM-85.34,-140.81L18.39,-137.69L22.21,-184.81L21.13,-185.27L-9.86,-146.38L-45.74,-147.46L-43.84,-210.74L12.70,-209.03L13.00,-218.82L-43.54,-220.52L-41.73,-280.76L-7.80,-279.74L16.50,-241.13L17.59,-241.10L18.96,-286.77L-80.85,-289.77L-69.14,-266.78L-72.25,-163.49ZM125.18,-207.39L125.86,-208.24L108.68,-244.67L105.85,-244.75C92.47,-226.87 80.99,-199.80 73.95,-175.63L76.03,-244.78L35.80,-231.41L50.08,-214.22L47.75,-136.80L74.50,-136.00L73.16,-149.32C73.82,-171.28 93.63,-214.87 96.72,-216.08ZM231.50,-131.27L215.87,-146.98L220.06,-286.15L179.89,-274.96L194.18,-257.77L193.60,-238.63C152.80,-235.50 129.52,-206.82 128.41,-169.85C127.88,-152.24 134.58,-136.37 140.97,-131.60L157.13,-133.51C170.58,-153.78 186.47,-182.69 195.02,-213.56L191.65,-188.41L189.91,-130.56ZM161.12,-150.15C158.51,-150.23 155.08,-159.47 155.73,-180.78C156.39,-202.75 164.28,-233.42 193.42,-232.76C192.51,-209.71 165.25,-150.03 161.12,-150.15ZM315.84,-178.14C315.84,-178.14 299.74,-142.06 284.08,-142.53C276.25,-142.76 270.75,-155.34 269.34,-173.44L318.42,-213.10C318.55,-217.45 312.65,-238.31 291.99,-238.93C265.24,-239.74 241.94,-203.22 241.00,-171.90C240.13,-142.98 252.52,-128.03 271.87,-127.44C292.97,-126.81 313.04,-157.33 319.26,-175.86ZM269.06,-178.68C268.94,-181.73 268.82,-185.00 268.92,-188.48C269.97,-223.27 276.93,-230.24 280.91,-232.52C283.80,-234.39 294.36,-223.62 294.78,-201.63ZM369.39,-235.95L329.15,-222.58L343.44,-205.39L341.10,-127.97L369.37,-127.12L366.51,-140.48C367.06,-158.75 383.59,-194.38 395.11,-215.58L396.84,-215.31C398.98,-206.76 400.48,-191.48 399.46,-157.55L398.51,-126.24L439.61,-125.00L424.09,-144.19L424.85,-169.41C426.18,-213.78 425.94,-220.10 420.81,-237.66L399.33,-232.87C394.57,-226.70 376.66,-195.68 367.21,-163.75Z" fill="#ffffff" stroke="#000000"/>
    <path d="M-438.31,-301.46L-427.06,-278.54L-431.68,-176.36L-444.97,-154.11L-399.80,-152.07C-370.76,-150.75 -330.80,-157.35 -329.40,-188.33C-328.40,-210.27 -343.75,-223.68 -369.08,-230.86C-353.53,-236.20 -335.89,-244.89 -335.02,-264.25C-333.86,-289.85 -360.44,-297.94 -391.42,-299.34ZM-399.69,-292.82L-392.59,-292.50C-378.61,-291.87 -360.51,-286.95 -361.67,-261.14C-362.43,-244.36 -376.12,-232.48 -402.36,-233.66ZM-405.66,-160.74L-402.61,-228.28C-376.36,-227.10 -358.20,-218.73 -359.48,-190.34C-360.42,-169.69 -378.34,-159.50 -399.20,-160.45ZM-286.43,-146.94C-272.81,-166.80 -256.66,-195.17 -247.74,-225.60L-251.45,-200.76L-253.95,-145.47L-212.86,-143.62L-227.94,-162.84L-224.54,-238.13L-215.84,-249.38L-240.36,-250.48C-285.36,-251.66 -311.22,-223.29 -313.03,-183.28C-313.81,-165.86 -308.71,-150.10 -302.46,-145.29ZM-282.24,-163.35C-284.82,-163.47 -286.78,-172.61 -285.83,-193.69C-284.84,-215.42 -277.87,-245.71 -249.03,-244.62C-250.28,-221.83 -278.15,-163.17 -282.24,-163.35ZM-141.65,-140.40L-102.29,-138.62L-116.17,-155.84L-112.15,-244.69L-140.12,-245.95L-137.48,-232.69C-138.32,-214.18 -156.14,-177.70 -167.83,-157.32C-168.31,-165.96 -168.33,-179.76 -166.69,-216.11L-165.09,-251.39L-205.94,-248.93L-190.86,-229.71L-193.20,-177.86C-193.91,-162.16 -191.76,-147.84 -190.78,-140.89L-171.34,-141.74C-166.54,-147.77 -148.35,-178.21 -138.52,-209.67ZM-88.30,-137.99L14.31,-133.35L18.78,-179.92L17.73,-180.40L-13.52,-142.37L-49.02,-143.97L-46.19,-206.57L9.74,-204.04L10.18,-213.72L-45.75,-216.25L-43.06,-275.84L-9.50,-274.32L13.98,-235.76L15.05,-235.71L17.10,-280.88L-81.64,-285.34L-70.39,-262.42L-75.01,-160.24ZM121.04,-200.74L121.72,-201.57L105.26,-237.88L102.46,-238.01C88.95,-220.51 77.19,-193.88 69.86,-170.07L72.95,-238.48L32.93,-225.85L46.81,-208.62L43.35,-132.04L69.81,-130.84L68.68,-144.04C69.66,-165.77 89.92,-208.61 92.99,-209.77ZM225.13,-123.82L209.89,-139.60L216.11,-277.28L176.19,-266.79L190.07,-249.57L189.21,-230.64C148.79,-228.15 125.32,-200.11 123.67,-163.54C122.88,-146.12 129.28,-130.31 135.53,-125.50L151.56,-127.15C165.17,-147.01 181.33,-175.38 190.25,-205.80L186.54,-180.97L183.95,-123.74ZM155.75,-143.56C153.16,-143.67 149.92,-152.87 150.87,-173.95C151.85,-195.68 160.11,-225.92 188.95,-224.83C187.70,-202.04 159.83,-143.37 155.75,-143.56ZM309.29,-168.95C309.29,-168.95 292.82,-133.48 277.33,-134.18C269.58,-134.53 264.33,-147.06 263.20,-165.00L312.37,-203.52C312.56,-207.82 307.03,-228.55 286.59,-229.47C260.13,-230.67 236.53,-194.87 235.13,-163.90C233.84,-135.28 245.88,-120.30 265.02,-119.43C285.89,-118.49 306.21,-148.40 312.64,-166.64ZM263.00,-170.18C262.93,-173.20 262.86,-176.44 263.01,-179.88C264.57,-214.30 271.56,-221.10 275.54,-223.29C278.42,-225.10 288.71,-214.29 288.80,-192.51ZM363.15,-225.36L323.13,-212.73L337.01,-195.51L333.55,-118.92L361.51,-117.66L358.88,-130.93C359.70,-149.00 376.58,-184.02 388.30,-204.83L390.01,-204.53C392.00,-196.04 393.26,-180.89 391.74,-147.33L390.34,-116.36L431.00,-114.52L415.91,-133.74L417.04,-158.69C419.02,-202.58 418.88,-208.83 414.06,-226.30L392.74,-221.87C387.94,-215.84 369.75,-185.40 359.92,-153.94Z" fill="#ffffff" stroke="#000000"/>
    <path d="M-435.18,-302.32L-424.39,-279.47L-430.48,-178.42L-443.96,-156.60L-399.29,-153.91C-370.57,-152.18 -330.93,-158.11 -329.08,-188.75C-327.77,-210.45 -342.76,-223.95 -367.71,-231.43C-352.25,-236.48 -334.67,-244.81 -333.51,-263.96C-331.99,-289.27 -358.17,-297.68 -388.80,-299.53ZM-397.08,-293.20L-390.06,-292.77C-376.24,-291.94 -358.40,-286.81 -359.94,-261.28C-360.94,-244.69 -374.66,-233.13 -400.61,-234.69ZM-404.96,-162.58L-400.93,-229.38C-374.98,-227.81 -357.13,-219.26 -358.82,-191.18C-360.06,-170.76 -377.94,-160.95 -398.58,-162.19ZM-287.18,-147.15C-273.41,-166.60 -257.00,-194.44 -247.72,-224.41L-251.76,-199.89L-255.06,-145.21L-214.42,-142.76L-229.06,-162.01L-224.57,-236.46L-215.80,-247.46L-240.05,-248.93C-284.56,-250.76 -310.57,-223.07 -312.96,-183.51C-314.00,-166.27 -309.17,-150.61 -303.06,-145.76ZM-282.79,-163.32C-285.34,-163.48 -287.14,-172.55 -285.88,-193.40C-284.59,-214.89 -277.24,-244.76 -248.72,-243.26C-250.29,-220.72 -278.75,-163.08 -282.79,-163.32ZM-144.01,-138.52L-105.08,-136.17L-118.56,-153.42L-113.26,-241.28L-140.92,-242.95L-138.51,-229.78C-139.61,-211.49 -157.78,-175.64 -169.66,-155.65C-170.00,-164.21 -169.82,-177.86 -167.65,-213.82L-165.55,-248.70L-206.01,-246.87L-191.37,-227.63L-194.46,-176.36C-195.40,-160.83 -193.48,-146.62 -192.61,-139.74L-173.37,-140.29C-168.53,-146.19 -150.07,-176.03 -139.88,-207.02ZM-91.25,-135.34L10.22,-129.22L15.35,-175.24L14.31,-175.73L-17.18,-138.56L-52.28,-140.67L-48.55,-202.58L6.76,-199.24L7.34,-208.82L-47.97,-212.15L-44.42,-271.08L-11.24,-269.08L11.42,-230.56L12.49,-230.50L15.18,-275.17L-82.47,-281.06L-71.67,-258.20L-77.77,-157.16ZM116.84,-194.32L117.53,-195.13L101.78,-231.31L99.02,-231.47C85.39,-214.36 73.35,-188.18 65.74,-164.73L69.82,-232.38L30.03,-220.47L43.51,-203.22L38.94,-127.49L65.11,-125.91L64.19,-138.99C65.48,-160.48 86.17,-202.57 89.23,-203.67ZM218.70,-116.65L203.86,-132.49L212.07,-268.64L172.40,-258.86L185.88,-241.61L184.75,-222.89C144.72,-221.03 121.07,-193.63 118.89,-157.47C117.85,-140.24 123.95,-124.50 130.06,-119.65L145.95,-121.04C159.72,-140.49 176.13,-168.32 185.41,-198.30L181.37,-173.77L177.95,-117.18ZM150.34,-137.21C147.79,-137.37 144.71,-146.52 145.96,-167.37C147.26,-188.85 155.89,-218.65 184.41,-217.14C182.84,-194.61 154.38,-136.97 150.34,-137.21ZM302.66,-160.05C302.66,-160.05 285.83,-125.20 270.51,-126.12C262.86,-126.58 257.84,-139.06 256.99,-156.83L306.22,-194.21C306.48,-198.47 301.31,-219.06 281.10,-220.28C254.94,-221.86 231.04,-186.79 229.20,-156.16C227.49,-127.86 239.18,-112.85 258.12,-111.71C278.75,-110.47 299.31,-139.76 305.94,-157.72ZM256.88,-161.96C256.84,-164.95 256.82,-168.16 257.03,-171.56C259.08,-205.60 266.10,-212.22 270.07,-214.33C272.95,-216.08 282.97,-205.22 282.74,-183.67ZM356.80,-215.08L317.01,-203.17L330.49,-185.92L325.92,-110.19L353.58,-108.52L351.17,-121.69C352.24,-139.56 369.48,-173.96 381.38,-194.38L383.07,-194.06C384.91,-185.63 385.93,-170.62 383.93,-137.43L382.08,-106.80L422.29,-104.38L407.65,-123.62L409.14,-148.30C411.75,-191.69 411.70,-197.89 407.19,-215.24L386.03,-211.18C381.19,-205.28 362.73,-175.43 352.54,-144.45Z" fill="#ffffff" stroke="#000000"/>
    <path d="M-431.99,-303.21L-421.65,-280.44L-429.19,-180.54L-442.85,-159.15L-398.69,-155.82C-370.30,-153.68 -330.99,-158.97 -328.70,-189.25C-327.08,-210.70 -341.71,-224.28 -366.29,-232.06C-350.92,-236.82 -333.40,-244.80 -331.97,-263.73C-330.08,-288.76 -355.86,-297.47 -386.14,-299.75ZM-394.43,-293.61L-387.49,-293.09C-373.82,-292.06 -356.25,-286.71 -358.15,-261.48C-359.39,-245.07 -373.14,-233.84 -398.79,-235.78ZM-404.17,-164.48L-399.19,-230.52C-373.53,-228.59 -356.00,-219.86 -358.10,-192.10C-359.62,-171.91 -377.46,-162.47 -397.86,-164.01ZM-287.86,-147.47C-273.95,-166.51 -257.29,-193.80 -247.67,-223.32L-252.03,-199.12L-256.11,-145.07L-215.94,-142.04L-230.14,-161.30L-224.59,-234.91L-215.74,-245.66L-239.71,-247.47C-283.73,-249.94 -309.88,-222.94 -312.83,-183.82C-314.11,-166.79 -309.57,-151.22 -303.60,-146.33ZM-283.28,-163.40C-285.80,-163.59 -287.45,-172.60 -285.89,-193.21C-284.29,-214.45 -276.57,-243.90 -248.37,-241.99C-250.26,-219.71 -279.28,-163.10 -283.28,-163.40ZM-146.33,-136.79L-107.84,-133.89L-120.92,-151.16L-114.37,-238.02L-141.71,-240.08L-139.52,-227.01C-140.89,-208.93 -159.40,-173.73 -171.46,-154.13C-171.66,-162.60 -171.28,-176.11 -168.60,-211.65L-166.00,-246.14L-206.06,-244.93L-191.86,-225.67L-195.69,-174.99C-196.84,-159.64 -195.16,-145.55 -194.40,-138.72L-175.35,-138.98C-170.47,-144.75 -151.77,-174.00 -141.22,-204.51ZM-94.17,-132.86L6.14,-125.29L11.90,-170.75L10.88,-171.25L-20.84,-134.94L-55.54,-137.56L-50.92,-198.76L3.76,-194.63L4.47,-204.10L-50.21,-208.22L-45.81,-266.47L-13.01,-264.00L8.84,-225.55L9.89,-225.47L13.22,-269.64L-83.31,-276.92L-72.97,-254.14L-80.50,-154.25ZM112.61,-188.12L113.31,-188.91L98.26,-224.94L95.52,-225.15C81.78,-208.42 69.48,-182.70 61.60,-159.60L66.65,-226.48L27.10,-215.29L40.18,-198.02L34.53,-123.15L60.40,-121.20L59.69,-134.16C61.29,-155.40 82.38,-196.74 85.42,-197.78ZM212.24,-109.75L197.79,-125.65L207.94,-260.24L168.55,-251.15L181.63,-233.88L180.23,-215.38C140.59,-214.14 116.79,-187.38 114.09,-151.63C112.80,-134.59 118.60,-118.93 124.58,-114.03L140.32,-115.17C154.23,-134.22 170.88,-161.51 180.51,-191.03L176.15,-166.83L171.93,-110.89ZM144.90,-131.11C142.38,-131.30 139.47,-140.41 141.02,-161.02C142.62,-182.26 151.61,-211.61 179.80,-209.70C177.91,-187.42 148.90,-130.81 144.90,-131.11ZM295.96,-151.45C295.96,-151.45 278.79,-117.21 263.65,-118.35C256.08,-118.92 251.30,-131.34 250.73,-148.94L299.99,-185.19C300.31,-189.40 295.50,-209.85 275.53,-211.36C249.66,-213.31 225.50,-178.97 223.21,-148.68C221.10,-120.71 232.45,-105.69 251.16,-104.28C271.56,-102.74 292.34,-131.42 299.17,-149.09ZM250.69,-154.01C250.70,-156.98 250.73,-160.15 250.98,-163.51C253.52,-197.16 260.56,-203.61 264.52,-205.63C267.40,-207.32 277.15,-196.43 276.60,-175.11ZM350.35,-205.08L310.80,-193.90L323.88,-176.62L318.23,-101.76L345.57,-99.69L343.38,-112.76C344.72,-130.43 362.28,-164.21 374.37,-184.24L376.03,-183.90C377.73,-175.52 378.51,-160.66 376.04,-127.85L373.75,-97.57L413.50,-94.57L399.30,-113.83L401.14,-138.23C404.38,-181.13 404.41,-187.26 400.22,-204.50L379.21,-200.79C374.33,-195.03 355.63,-165.77 345.08,-135.26Z" fill="#ffffff" stroke="#000000"/>
    <path d="M-428.75,-304.12L-418.86,-281.43L-427.80,-182.71L-441.64,-161.76L-398.00,-157.80C-369.94,-155.26 -330.97,-159.90 -328.26,-189.83C-326.34,-211.03 -340.61,-224.69 -364.81,-232.75C-349.53,-237.23 -332.07,-244.87 -330.38,-263.57C-328.14,-288.30 -353.52,-297.31 -383.44,-300.02ZM-391.73,-294.06L-384.88,-293.44C-371.37,-292.22 -354.06,-286.67 -356.32,-261.73C-357.79,-245.52 -371.56,-234.61 -396.91,-236.91ZM-403.29,-166.46L-397.38,-231.71C-372.03,-229.42 -354.81,-220.52 -357.30,-193.09C-359.10,-173.14 -376.90,-164.07 -397.06,-165.89ZM-288.47,-147.88C-274.42,-166.52 -257.54,-193.28 -247.58,-222.34L-252.25,-198.45L-257.09,-145.04L-217.40,-141.45L-231.16,-160.71L-224.57,-233.45L-215.65,-243.96L-239.35,-246.11C-282.86,-249.21 -309.13,-222.88 -312.63,-184.23C-314.16,-167.39 -309.90,-151.92 -304.06,-146.99ZM-283.70,-163.59C-286.19,-163.81 -287.69,-172.75 -285.84,-193.12C-283.94,-214.11 -275.87,-243.13 -248.00,-240.81C-250.20,-218.80 -279.75,-163.23 -283.70,-163.59ZM-148.60,-135.22L-110.57,-131.77L-123.25,-149.05L-115.48,-234.89L-142.50,-237.33L-140.53,-224.37C-142.15,-206.50 -160.99,-171.96 -173.21,-152.74C-173.29,-161.13 -172.71,-174.49 -169.52,-209.61L-166.44,-243.69L-206.09,-243.09L-192.33,-223.83L-196.87,-173.74C-198.24,-158.57 -196.78,-144.61 -196.14,-137.85L-177.28,-137.81C-172.37,-143.45 -153.43,-172.11 -142.54,-202.14ZM-97.06,-130.55L2.07,-121.57L8.44,-166.46L7.44,-166.97L-24.48,-131.52L-58.77,-134.62L-53.29,-195.10L0.75,-190.21L1.59,-199.56L-52.44,-204.45L-47.23,-262.02L-14.81,-259.09L6.23,-220.72L7.27,-220.63L11.23,-264.27L-84.17,-272.91L-74.28,-250.22L-83.22,-151.50ZM108.34,-182.14L109.04,-182.91L94.69,-218.79L91.99,-219.03C78.15,-202.68 65.59,-177.42 57.45,-154.69L63.44,-220.78L24.15,-210.30L36.83,-193.01L30.13,-119.03L55.69,-116.71L55.18,-129.54C57.08,-150.53 78.57,-191.12 81.59,-192.10ZM205.74,-103.12L191.68,-119.06L203.73,-252.07L164.62,-243.67L177.31,-226.39L175.65,-208.10C136.41,-207.46 112.46,-181.35 109.26,-146.01C107.74,-129.18 113.24,-113.60 119.08,-108.67L134.67,-109.56C148.72,-128.19 165.60,-154.95 175.56,-184.01L170.89,-160.13L165.88,-104.85ZM139.44,-125.26C136.95,-125.49 134.20,-134.54 136.05,-154.90C137.95,-175.89 147.27,-204.80 175.14,-202.49C172.94,-180.48 143.39,-124.90 139.44,-125.26ZM289.20,-143.13C289.20,-143.13 271.70,-109.51 256.73,-110.87C249.25,-111.54 244.71,-123.90 244.41,-141.32L293.69,-176.46C294.06,-180.61 289.62,-200.92 269.87,-202.71C244.31,-205.02 219.89,-171.41 217.18,-141.48C214.68,-113.84 225.68,-98.80 244.17,-97.13C264.33,-95.30 285.31,-123.36 292.34,-140.75ZM244.44,-146.34C244.50,-149.27 244.57,-152.41 244.87,-155.73C247.88,-188.99 254.95,-195.26 258.90,-197.21C261.77,-198.83 271.26,-187.92 270.39,-166.83ZM343.80,-195.38L304.51,-184.90L317.19,-167.62L310.49,-93.63L337.51,-91.19L335.54,-104.15C337.12,-121.60 355.00,-154.77 367.26,-174.40L368.90,-174.04C370.45,-165.73 371.00,-151.01 368.07,-118.59L365.36,-88.66L404.64,-85.11L390.88,-104.37L393.06,-128.48C396.90,-170.88 397.03,-176.94 393.13,-194.06L372.29,-190.71C367.38,-185.08 348.44,-156.41 337.55,-126.38Z" fill="#ffffff" stroke="#000000"/>
    <path d="M-425.45,-305.05L-416.01,-282.46L-426.32,-184.93L-440.33,-164.41L-397.21,-159.85C-369.50,-156.92 -330.87,-160.93 -327.74,-190.49C-325.53,-211.44 -339.44,-225.16 -363.26,-233.49C-348.08,-237.70 -330.70,-244.99 -328.74,-263.47C-326.16,-287.90 -351.13,-297.19 -380.69,-300.31ZM-388.99,-294.55L-382.21,-293.83C-368.87,-292.42 -351.83,-286.67 -354.43,-262.04C-356.13,-246.02 -369.91,-235.44 -394.96,-238.09ZM-402.32,-168.49L-395.50,-232.95C-370.45,-230.30 -353.56,-221.25 -356.42,-194.15C-358.51,-174.44 -376.25,-165.73 -396.16,-167.83ZM-289.01,-148.40C-274.84,-166.63 -257.74,-192.85 -247.45,-221.45L-252.43,-197.89L-258.01,-145.12L-218.79,-140.98L-232.12,-160.24L-224.52,-232.10L-215.54,-242.36L-238.95,-244.84C-281.95,-248.56 -308.33,-222.90 -312.37,-184.71C-314.13,-168.08 -310.15,-152.72 -304.44,-147.75ZM-284.06,-163.87C-286.52,-164.13 -287.87,-172.99 -285.74,-193.11C-283.54,-213.85 -275.12,-242.44 -247.59,-239.73C-250.10,-217.99 -280.15,-163.45 -284.06,-163.87ZM-150.84,-133.79L-113.26,-129.81L-125.55,-147.10L-116.58,-231.89L-143.27,-234.72L-141.52,-221.87C-143.39,-204.21 -162.54,-170.32 -174.91,-151.49C-174.87,-159.79 -174.09,-173.00 -170.42,-207.69L-166.86,-241.37L-206.10,-241.36L-192.77,-222.10L-198.01,-172.62C-199.59,-157.63 -198.36,-143.80 -197.82,-137.10L-179.17,-136.78C-174.23,-142.28 -155.06,-170.36 -143.84,-199.90ZM-99.92,-128.40L-1.98,-118.04L4.99,-162.36L4.01,-162.88L-28.10,-128.28L-61.97,-131.86L-55.65,-191.61L-2.27,-185.96L-1.30,-195.20L-54.68,-200.85L-48.66,-257.72L-16.63,-254.33L3.61,-216.07L4.64,-215.96L9.20,-259.07L-85.04,-269.04L-75.60,-246.45L-85.91,-148.93ZM104.05,-176.38L104.75,-177.13L91.09,-212.84L88.42,-213.12C74.48,-197.15 61.69,-172.35 53.30,-149.98L60.20,-215.27L21.18,-205.49L33.47,-188.20L25.73,-115.11L50.99,-112.44L50.67,-125.14C52.86,-145.88 74.72,-185.71 77.73,-186.64ZM199.23,-96.76L185.55,-112.74L199.45,-244.14L160.64,-236.41L172.93,-219.13L171.02,-201.06C132.19,-201.01 108.11,-175.53 104.42,-140.63C102.66,-124.00 107.87,-108.50 113.58,-103.54L129.01,-104.19C143.18,-122.41 160.28,-148.63 170.57,-177.23L165.59,-153.67L159.82,-99.06ZM133.97,-119.65C131.50,-119.91 128.92,-128.90 131.05,-149.02C133.25,-169.76 142.90,-198.22 170.43,-195.52C167.93,-173.77 137.87,-119.24 133.97,-119.65ZM282.38,-135.09C282.38,-135.09 264.57,-102.10 249.78,-103.66C242.39,-104.44 238.09,-116.73 238.04,-133.97L287.31,-168.00C287.75,-172.10 283.65,-192.26 264.15,-194.32C238.89,-196.99 214.24,-164.10 211.11,-134.53C208.22,-107.23 218.88,-92.19 237.15,-90.26C257.07,-88.15 278.24,-115.60 285.45,-132.69ZM238.15,-138.94C238.25,-141.84 238.37,-144.94 238.72,-148.22C242.19,-181.07 249.27,-187.18 253.21,-189.04C256.07,-190.61 265.30,-179.67 264.13,-158.82ZM337.17,-185.98L298.15,-176.19L310.44,-158.91L302.70,-85.82L329.40,-82.99L327.64,-95.84C329.46,-113.09 347.65,-145.63 360.06,-164.87L361.68,-164.49C363.09,-156.24 363.42,-141.68 360.03,-109.65L356.91,-80.08L395.71,-75.98L382.39,-95.24L384.91,-119.06C389.34,-160.94 389.55,-166.94 385.95,-183.93L365.29,-180.93C360.35,-175.43 341.19,-147.35 329.96,-117.81Z" fill="#ffffff" stroke="#000000"/>
    <path d="M-422.10,-305.99L-413.09,-283.51L-424.75,-187.20L-438.91,-167.10L-396.33,-161.95C-368.96,-158.64 -330.69,-162.03 -327.16,-191.23C-324.65,-211.91 -338.21,-225.69 -361.65,-234.28C-346.57,-238.22 -329.27,-245.18 -327.06,-263.43C-324.14,-287.56 -348.70,-297.11 -377.90,-300.64ZM-386.19,-295.06L-379.49,-294.25C-366.31,-292.66 -349.55,-286.72 -352.49,-262.39C-354.40,-246.57 -368.20,-236.31 -392.93,-239.30ZM-401.25,-170.57L-393.55,-234.24C-368.81,-231.24 -352.23,-222.04 -355.47,-195.27C-357.83,-175.81 -375.50,-167.45 -395.17,-169.83ZM-289.47,-149.02C-275.18,-166.83 -257.88,-192.51 -247.27,-220.65L-252.55,-197.42L-258.86,-145.31L-220.13,-140.63L-233.02,-159.88L-224.44,-230.85L-215.41,-240.86L-238.52,-243.66C-281.00,-247.98 -307.47,-223.00 -312.04,-185.28C-314.02,-168.86 -310.32,-153.60 -304.75,-148.60ZM-284.34,-164.24C-286.77,-164.53 -287.97,-173.32 -285.57,-193.19C-283.09,-213.67 -274.33,-241.82 -247.14,-238.74C-249.94,-217.27 -280.49,-163.77 -284.34,-164.24ZM-153.02,-132.50L-115.91,-128.01L-127.81,-145.29L-117.67,-229.03L-144.03,-232.22L-142.49,-219.49C-144.60,-202.05 -164.05,-168.81 -176.57,-150.37C-176.40,-158.58 -175.44,-171.63 -171.29,-205.90L-167.27,-239.15L-206.08,-239.73L-193.18,-220.48L-199.10,-171.61C-200.89,-156.81 -199.87,-143.11 -199.44,-136.48L-181.00,-135.89C-176.03,-141.25 -156.65,-168.74 -145.11,-197.79ZM-102.73,-126.42L-6.01,-114.71L1.54,-158.44L0.58,-158.97L-31.69,-125.23L-65.15,-129.28L-58.01,-188.28L-5.29,-181.90L-4.19,-191.02L-56.90,-197.40L-50.11,-253.57L-18.48,-249.74L0.98,-211.59L1.99,-211.47L7.14,-254.05L-85.92,-265.31L-76.92,-242.82L-88.57,-146.51ZM99.73,-170.84L100.44,-171.57L87.46,-207.09L84.82,-207.41C70.80,-191.82 57.77,-167.48 49.14,-145.48L56.94,-209.96L18.20,-200.86L30.09,-183.58L21.36,-111.40L46.30,-108.38L46.17,-120.95C48.65,-141.43 70.87,-180.50 73.85,-181.37ZM192.69,-90.67L179.40,-106.68L195.11,-236.44L156.60,-229.38L168.50,-212.09L166.34,-194.25C127.94,-194.78 103.74,-169.94 99.57,-135.47C97.58,-119.05 102.50,-103.64 108.07,-98.64L123.35,-99.06C137.64,-116.87 154.94,-142.55 165.55,-170.69L160.27,-147.46L153.74,-93.53ZM128.48,-114.28C126.05,-114.57 123.63,-123.51 126.04,-143.38C128.51,-163.85 138.49,-191.86 165.68,-188.78C162.88,-167.31 132.33,-113.81 128.48,-114.28ZM275.51,-127.34C275.51,-127.34 257.40,-94.97 242.80,-96.74C235.50,-97.62 231.43,-109.84 231.64,-126.89L280.88,-159.82C281.37,-163.87 277.62,-183.87 258.36,-186.20C233.42,-189.22 208.54,-157.05 205.01,-127.85C201.75,-100.89 212.06,-85.85 230.11,-83.67C249.78,-81.29 271.13,-108.12 278.51,-124.92ZM231.82,-131.81C231.96,-134.67 232.13,-137.74 232.52,-140.98C236.45,-173.42 243.54,-179.35 247.46,-181.14C250.32,-182.65 259.28,-171.69 257.81,-151.09ZM330.47,-176.86L291.72,-167.76L303.62,-150.48L294.88,-78.30L321.24,-75.11L319.70,-87.85C321.76,-104.88 340.23,-136.79 352.79,-155.64L354.39,-155.24C355.67,-147.06 355.77,-132.65 351.94,-101.02L348.41,-71.82L386.73,-67.18L373.84,-86.44L376.68,-109.96C381.69,-151.32 382.00,-157.25 378.69,-174.11L358.20,-171.44C353.23,-166.08 333.86,-138.59 322.32,-109.54Z" fill="#ffffff" stroke="#000000"/>
    <path d="M-418.69,-306.95L-410.12,-284.58L-423.08,-189.50L-437.38,-169.84L-395.34,-164.11C-368.32,-160.42 -330.43,-163.21 -326.50,-192.03C-323.71,-212.45 -336.92,-226.28 -359.97,-235.13C-345.00,-238.80 -327.78,-245.42 -325.33,-263.44C-322.08,-287.26 -346.23,-297.07 -375.05,-301.00ZM-383.33,-295.61L-376.72,-294.71C-363.71,-292.93 -347.22,-286.81 -350.49,-262.79C-352.62,-247.18 -366.41,-237.23 -390.83,-240.56ZM-400.08,-172.70L-391.52,-235.56C-367.10,-232.23 -350.84,-222.87 -354.44,-196.45C-357.06,-177.24 -374.66,-169.24 -394.08,-171.88ZM-289.85,-149.72C-275.45,-167.13 -257.96,-192.27 -247.05,-219.94L-252.62,-197.05L-259.63,-145.60L-221.40,-140.39L-233.86,-159.63L-224.31,-229.68L-215.23,-239.46L-238.05,-242.57C-280.00,-247.47 -306.55,-223.16 -311.63,-185.93C-313.84,-169.71 -310.40,-154.56 -304.97,-149.54ZM-284.55,-164.70C-286.95,-165.03 -288.01,-173.74 -285.33,-193.35C-282.58,-213.57 -273.50,-241.28 -246.65,-237.83C-249.74,-216.64 -280.75,-164.18 -284.55,-164.70ZM-155.14,-131.36L-118.51,-126.37L-130.02,-143.63L-118.75,-226.30L-144.77,-229.85L-143.43,-217.23C-145.78,-200.02 -165.52,-167.43 -178.17,-149.38C-177.88,-157.50 -176.73,-170.39 -172.12,-204.22L-167.65,-237.05L-206.02,-238.20L-193.56,-218.97L-200.14,-170.73C-202.13,-156.12 -201.33,-142.55 -201.00,-135.98L-182.76,-135.13C-177.77,-140.36 -158.20,-167.25 -146.35,-195.81ZM-105.50,-124.59L-10.02,-111.58L-1.90,-154.71L-2.84,-155.25L-35.26,-122.36L-68.29,-126.86L-60.35,-185.11L-8.30,-178.01L-7.07,-187.02L-59.12,-194.12L-51.56,-249.56L-20.33,-245.31L-1.66,-207.28L-0.66,-207.15L5.07,-249.18L-86.81,-261.71L-78.24,-239.33L-91.20,-144.25ZM95.40,-165.51L96.11,-166.23L83.80,-201.55L81.20,-201.90C67.10,-186.70 53.85,-162.81 44.99,-141.18L53.67,-204.84L15.21,-196.42L26.72,-179.15L17.00,-107.89L41.62,-104.54L41.69,-116.96C44.44,-137.18 67.00,-175.50 69.96,-176.31ZM186.15,-84.83L173.24,-100.86L190.71,-228.97L152.52,-222.56L164.03,-205.29L161.63,-187.67C123.65,-188.77 99.35,-164.56 94.71,-130.53C92.50,-114.32 97.14,-99.01 102.58,-93.98L117.69,-94.17C132.09,-111.57 149.59,-136.71 160.49,-164.38L154.93,-141.49L147.67,-88.24ZM122.99,-109.14C120.59,-109.47 118.33,-118.34 121.01,-137.96C123.76,-158.17 134.04,-185.73 160.89,-182.27C157.80,-161.08 126.80,-108.62 122.99,-109.14ZM268.60,-119.88C268.60,-119.88 250.21,-88.13 235.80,-90.09C228.59,-91.08 224.74,-103.22 225.20,-120.08L274.40,-151.91C274.94,-155.91 271.53,-175.75 252.52,-178.34C227.90,-181.70 202.81,-150.25 198.88,-121.43C195.25,-94.81 205.23,-79.78 223.05,-77.36C242.47,-74.71 263.98,-100.93 271.53,-117.44ZM225.46,-124.94C225.64,-127.77 225.85,-130.80 226.29,-134.00C230.65,-166.03 237.76,-171.79 241.66,-173.50C244.51,-174.95 253.21,-163.98 251.45,-143.62ZM323.69,-168.03L285.24,-159.61L296.75,-142.34L287.03,-71.08L313.05,-67.53L311.71,-80.15C314.01,-96.97 332.75,-128.26 345.46,-146.71L347.03,-146.29C348.17,-138.18 348.06,-123.93 343.80,-92.70L339.88,-63.88L377.71,-58.72L365.24,-77.95L368.41,-101.17C373.97,-142.01 374.36,-147.87 371.34,-164.59L351.04,-162.26C346.05,-157.03 326.48,-130.13 314.63,-101.57Z" fill="#ffffff" stroke="#000000"/>
    <path d="M-415.21,-307.92L-407.07,-285.67L-421.30,-191.83L-435.74,-172.60L-394.26,-166.31C-367.59,-162.26 -330.07,-164.46 -325.76,-192.90C-322.70,-213.05 -335.55,-226.92 -358.22,-236.02C-343.35,-239.42 -326.23,-245.72 -323.54,-263.50C-319.97,-287.00 -343.70,-297.07 -372.15,-301.39ZM-380.42,-296.17L-373.90,-295.18C-361.06,-293.24 -344.84,-286.94 -348.43,-263.23C-350.77,-247.82 -364.56,-238.19 -388.66,-241.85ZM-398.82,-174.88L-389.41,-236.91C-365.31,-233.25 -349.37,-223.76 -353.32,-197.69C-356.20,-178.72 -373.73,-171.08 -392.89,-173.98ZM-290.15,-150.52C-275.65,-167.52 -257.97,-192.12 -246.78,-219.32L-252.62,-196.76L-260.32,-145.99L-222.59,-140.27L-234.63,-159.48L-224.15,-228.62L-215.02,-238.14L-237.54,-241.56C-278.95,-247.03 -305.57,-223.39 -311.15,-186.64C-313.57,-170.64 -310.40,-155.61 -305.10,-150.56ZM-284.68,-165.25C-287.05,-165.61 -287.97,-174.24 -285.03,-193.59C-282.01,-213.55 -272.61,-240.82 -246.11,-237.00C-249.49,-216.09 -280.93,-164.68 -284.68,-165.25ZM-157.21,-130.35L-121.06,-124.87L-132.18,-142.12L-119.81,-223.70L-145.49,-227.60L-144.35,-215.10C-146.93,-198.11 -166.93,-166.18 -179.71,-148.52C-179.30,-156.54 -177.98,-169.27 -172.91,-202.66L-168.00,-235.05L-205.93,-236.77L-193.89,-217.56L-201.12,-169.95C-203.30,-155.53 -202.71,-142.10 -202.49,-135.60L-184.47,-134.49C-179.45,-139.59 -159.70,-165.89 -147.56,-193.96ZM-108.22,-122.92L-13.99,-108.63L-5.32,-151.16L-6.24,-151.71L-38.79,-119.66L-71.38,-124.61L-62.66,-182.09L-11.30,-174.30L-9.96,-183.19L-61.32,-190.98L-53.02,-245.70L-22.20,-241.03L-4.30,-203.15L-3.31,-203.00L2.98,-244.48L-87.69,-258.24L-79.55,-235.98L-93.78,-142.15ZM91.06,-160.39L91.78,-161.09L80.13,-196.20L77.56,-196.59C63.39,-181.77 49.93,-158.34 40.85,-137.09L50.38,-199.91L12.22,-192.15L23.34,-174.91L12.68,-104.58L36.97,-100.90L37.22,-113.19C40.25,-133.14 63.12,-170.69 66.07,-171.46ZM179.60,-79.26L167.08,-95.31L186.26,-221.73L148.40,-215.96L159.52,-198.71L156.89,-181.32C119.35,-182.98 94.96,-159.40 89.86,-125.81C87.43,-109.81 91.80,-94.60 97.09,-89.55L112.04,-89.51C126.54,-106.51 144.22,-131.11 155.42,-158.31L149.57,-135.75L141.60,-83.21ZM117.51,-104.24C115.14,-104.60 113.04,-113.41 115.97,-132.76C119.00,-152.72 129.58,-179.81 156.08,-175.99C152.70,-155.08 121.26,-103.67 117.51,-104.24ZM261.66,-112.69C261.66,-112.69 243.00,-81.57 228.78,-83.72C221.66,-84.80 218.04,-96.87 218.75,-113.54L267.87,-144.28C268.47,-148.23 265.39,-167.90 246.62,-170.74C222.33,-174.43 197.05,-143.71 192.74,-115.26C188.75,-88.99 198.40,-73.98 215.98,-71.32C235.14,-68.41 256.81,-94.02 264.52,-110.23ZM219.07,-118.34C219.29,-121.13 219.55,-124.13 220.03,-127.29C224.82,-158.89 231.93,-164.48 235.82,-166.12C238.66,-167.51 247.09,-156.53 245.06,-136.42ZM316.86,-159.48L278.70,-151.73L289.83,-134.48L279.16,-64.16L304.84,-60.26L303.70,-72.76C306.22,-89.36 325.22,-120.02 338.06,-138.08L339.61,-137.64C340.62,-129.61 340.30,-115.51 335.62,-84.69L331.31,-56.25L368.64,-50.58L356.60,-69.79L360.08,-92.70C366.19,-133.00 366.67,-138.79 363.93,-155.37L343.82,-153.37C338.80,-148.27 319.05,-121.97 306.91,-93.90Z" fill="#ffffff" stroke="#000000"/>
    <path d="M-910.99,465.97L-908.82,469.92L-908.82,487.97L-910.99,492L-903.01,492C-897.88,492 -890.88,490.52 -890.88,485.05C-890.88,481.17 -893.70,478.93 -898.22,477.86C-895.52,476.80 -892.48,475.13 -892.48,471.71C-892.48,467.19 -897.23,465.97 -902.70,465.97ZM-904.11,467.19L-902.85,467.19C-900.38,467.19 -897.15,467.91 -897.15,472.47C-897.15,475.43 -899.47,477.64 -904.11,477.64ZM-904.11,490.52L-904.11,478.59C-899.47,478.59 -896.20,479.92 -896.20,484.93C-896.20,488.58 -899.28,490.52 -902.97,490.52ZM-886.02,470.11L-886.02,471.25L-888.60,472.35L-886.02,475.28L-886.02,492L-878.84,492L-881.65,488.73L-881.65,465.02L-888.60,467.19ZM-866.26,492L-859.31,492L-861.89,489.07L-861.89,473.38L-866.83,473.38L-866.26,475.70C-866.26,478.97 -869.11,485.54 -871.01,489.23C-871.16,487.71 -871.28,485.27 -871.28,478.85L-871.28,472.62L-878.46,473.38L-875.65,476.65L-875.65,485.81C-875.65,488.58 -875.15,491.09 -874.92,492.30L-871.50,492C-870.71,490.90 -867.74,485.39 -866.26,479.76ZM-846.42,492L-839.47,492L-842.05,489.07L-842.05,473.38L-846.99,473.38L-846.42,475.70C-846.42,478.97 -849.27,485.54 -851.17,489.23C-851.33,487.71 -851.44,485.27 -851.44,478.85L-851.44,472.62L-858.62,473.38L-855.81,476.65L-855.81,485.81C-855.81,488.58 -855.32,491.09 -855.09,492.30L-851.67,492C-850.87,490.90 -847.91,485.39 -846.42,479.76ZM-818.95,492L-813.33,492L-814.88,489.80L-814.88,469.50L-812.22,465.97L-819.75,465.97L-816.63,469.24L-816.63,487.67L-831.45,465.97L-837.42,465.97L-833.92,470.80L-833.92,488.47L-836.58,492L-829.13,492L-832.21,488.73L-832.21,473.42ZM-796.11,483.37C-796.11,483.37 -798.73,489.76 -801.47,489.76C-802.84,489.76 -803.86,487.59 -804.21,484.44L-795.85,477.26C-795.85,476.50 -796.99,472.89 -800.60,472.89C-805.27,472.89 -809.15,479.38 -809.15,484.86C-809.15,489.91 -806.90,492.46 -803.52,492.46C-799.84,492.46 -796.49,487.02 -795.50,483.75ZM-804.28,483.53C-804.32,482.99 -804.36,482.42 -804.36,481.82C-804.36,475.74 -803.18,474.48 -802.50,474.06C-802.00,473.72 -800.10,475.55 -799.91,479.38ZM-781.06,492L-774.68,492L-777.87,489.53L-782.39,481.74C-780.99,479.92 -778.59,476.65 -777.42,473.38L-782.85,473.38L-780.38,475.47C-780.38,477.60 -781.94,479.42 -782.93,480.83L-787.26,473.38L-793.64,473.38L-790.87,475.77L-786.54,482.99C-788.17,485.05 -791.48,488.92 -792.58,492L-786.80,492L-789.08,489.91C-789.08,487.90 -787.18,485.54 -785.97,483.91ZM-760.77,473.80L-760.77,473.38L-766.81,473.38L-766.81,466.92L-771.11,473.38L-773.81,473.38L-771.22,475.62L-771.22,486.41C-771.15,492.19 -768.30,492.46 -766.93,492.46C-764.57,492.46 -761.95,488.77 -760.89,484.55L-761.30,484.40C-762.10,486.76 -763.81,489.64 -765.03,489.64C-766.05,489.64 -766.81,489.42 -766.81,485.24L-766.81,475.74ZM-758.45,479.84L-758.45,482.73L-749.98,482.73L-749.98,479.84ZM-746.83,465.97L-744.66,469.92L-744.66,487.97L-746.83,492L-738.85,492C-733.72,492 -726.72,490.52 -726.72,485.05C-726.72,481.17 -729.54,478.93 -734.06,477.86C-731.36,476.80 -728.32,475.13 -728.32,471.71C-728.32,467.19 -733.07,465.97 -738.54,465.97ZM-739.95,467.19L-738.69,467.19C-736.22,467.19 -732.99,467.91 -732.99,472.47C-732.99,475.43 -735.31,477.64 -739.95,477.64ZM-739.95,490.52L-739.95,478.59C-735.31,478.59 -732.04,479.92 -732.04,484.93C-732.04,488.58 -735.12,490.52 -738.81,490.52ZM-723.80,484.44C-723.80,489.57 -720.68,492.53 -716.62,492.53C-711.45,492.53 -706.96,487.10 -706.96,481.17C-706.96,476.15 -709.85,472.92 -714.60,472.92C-719.96,472.92 -723.80,478.32 -723.80,484.44ZM-716.08,474.14C-714.94,474.14 -711.98,476.19 -711.98,482.88C-711.98,489.15 -714.22,491.28 -715.36,491.28C-716.50,491.28 -719.01,488.20 -719.01,481.89C-719.01,475.17 -717.22,474.14 -716.08,474.14ZM-702.82,470.11L-702.82,471.25L-705.41,472.35L-702.82,475.28L-702.82,492L-695.64,492L-698.45,488.73L-698.45,465.02L-705.41,467.19ZM-676.15,492L-678.96,489.34L-678.96,465.02L-685.91,467.19L-683.33,470.11L-683.33,473.46C-690.43,474.22 -694.35,479.35 -694.35,485.81C-694.35,488.88 -693.09,491.62 -691.95,492.42L-689.14,492C-686.90,488.39 -684.28,483.26 -682.95,477.83L-683.40,482.23L-683.40,492.34ZM-688.53,489.07C-688.99,489.07 -689.64,487.48 -689.64,483.75C-689.64,479.92 -688.42,474.52 -683.33,474.48C-683.37,478.51 -687.81,489.07 -688.53,489.07ZM-671.36,487.97L-674.02,492L-663.99,492L-666.65,487.97L-666.65,470.00L-663.99,465.97L-674.02,465.97L-671.36,470.00ZM-649.13,473.80L-649.13,473.38L-655.17,473.38L-655.17,466.92L-659.46,473.38L-662.16,473.38L-659.58,475.62L-659.58,486.41C-659.50,492.19 -656.65,492.46 -655.28,492.46C-652.93,492.46 -650.31,488.77 -649.24,484.55L-649.66,484.40C-650.46,486.76 -652.17,489.64 -653.38,489.64C-654.41,489.64 -655.17,489.42 -655.17,485.24L-655.17,475.74ZM-642.29,492C-640.05,488.39 -637.42,483.26 -636.09,477.83L-636.55,482.23L-636.55,492L-629.29,492L-632.10,488.73L-632.10,475.43L-630.66,473.38L-634.99,473.38C-642.93,473.53 -647.27,478.74 -647.27,485.81C-647.27,488.88 -646.24,491.62 -645.10,492.42ZM-641.68,489.07C-642.14,489.07 -642.55,487.48 -642.55,483.75C-642.55,479.92 -641.57,474.52 -636.47,474.48C-636.51,478.51 -640.96,489.07 -641.68,489.07ZM-626.06,470.11L-626.06,471.25L-628.65,472.35L-626.06,475.28L-626.06,492L-618.88,492L-621.69,488.73L-621.69,465.02L-628.65,467.19ZM-610.52,467.72L-613.67,464.22L-616.87,467.72L-613.67,471.25ZM-611.28,488.73L-611.28,473L-618.23,475.55L-615.65,478.47L-615.65,492L-608.47,492ZM-594.98,478.32L-594.86,478.17L-597.52,472.85L-597.90,472.85C-602.54,474.03 -607.18,479.27 -607.18,485.05C-607.18,490.10 -604.74,492.46 -601.59,492.46C-599.61,492.46 -596.08,489.53 -594.10,483.72L-594.71,483.34C-596.46,487.36 -598.51,489.76 -599.77,489.76C-601.48,489.76 -602.39,486.68 -602.39,481.78C-602.39,479.27 -601.74,475.77 -601.02,475.77Z"/>
</svg>