<?xml version="1.0"?>
<svg xmlns="http://www.w3.org/2000/svg" width="1920" height="1080" viewBox="-960 -540 1920 1080">
    <path d="M-486.96,-224.26L-486.96,-201.83L-448.55,-201.83L-448.55,-198.50C-448.55,-178.97 -463.42,-169.42 -483.18,-169.42C-510.49,-169.42 -524.47,-186.96 -524.47,-220.26C-524.47,-252.45 -508.93,-270.65 -484.07,-270.65C-467.42,-270.65 -455.65,-263.33 -450.99,-247.57L-422.58,-259.78C-434.12,-284.42 -452.55,-295.74 -484.29,-295.74C-527.80,-295.74 -556.22,-267.10 -556.22,-220.04C-556.22,-172.31 -529.14,-144.78 -488.73,-144.78C-468.09,-144.78 -453.21,-152.11 -445.00,-165.65L-443.67,-147L-422.13,-147L-422.13,-224.26ZM-391.50,-147L-361.08,-147L-361.08,-204.50C-361.08,-224.48 -347.54,-234.02 -334.00,-234.02C-327.12,-234.02 -323.34,-233.36 -320.23,-232.25L-316.68,-257.78C-319.35,-259.33 -323.79,-260.22 -328.67,-260.22C-345.99,-260.22 -357.31,-251.56 -363.08,-236.24L-365.08,-258L-391.50,-258ZM-196.36,-165.65C-201.69,-165.65 -204.35,-168.31 -204.35,-174.08L-204.35,-219.15C-204.35,-246.46 -223.89,-260.22 -252.97,-260.22C-281.83,-260.22 -298.70,-247.34 -303.81,-227.81L-277.83,-219.82C-274.06,-232.91 -265.18,-238.02 -254.30,-238.02C-242.54,-238.02 -234.54,-230.47 -234.54,-217.82L-234.54,-213.60L-272.73,-205.83C-292.71,-201.83 -303.58,-191.18 -303.58,-174.75C-303.58,-155.21 -289.60,-144.78 -266.95,-144.78C-252.97,-144.78 -238.76,-150.55 -231.66,-160.76C-228.33,-150.33 -218.11,-145.22 -205.46,-145.00C-199.47,-145.00 -194.58,-146.11 -191.03,-147.89L-189.26,-166.76C-191.25,-166.09 -193.92,-165.65 -196.36,-165.65ZM-259.18,-166.31C-266.95,-166.31 -273.17,-170.31 -273.17,-177.64C-273.17,-185.41 -268.07,-188.07 -257.85,-190.07L-234.54,-194.73L-234.54,-187.85C-234.54,-171.64 -246.53,-166.31 -259.18,-166.31ZM-125.98,-144.78C-94.24,-144.78 -76.70,-160.32 -76.70,-181.63C-76.70,-196.51 -85.36,-207.38 -107.34,-211.82L-129.98,-216.49C-140.86,-218.71 -144.41,-222.26 -144.41,-226.92C-144.41,-233.80 -137.53,-237.80 -124.88,-237.80C-113.33,-237.80 -102.23,-232.03 -95.57,-221.81L-77.37,-239.57C-86.91,-253.12 -103.56,-260.22 -125.76,-260.22C-158.17,-260.22 -174.60,-243.13 -174.60,-225.14C-174.60,-208.05 -164.83,-197.39 -139.08,-192.07L-119.55,-188.07C-109.78,-186.07 -107.34,-182.52 -107.34,-177.86C-107.34,-170.53 -114.88,-167.20 -126.43,-167.20C-142.63,-167.20 -154.62,-174.75 -161.73,-185.41L-179.26,-167.65C-167.72,-152.99 -148.41,-144.78 -125.98,-144.78ZM13.21,-260.22C-4.33,-260.22 -17.65,-250.67 -23.86,-236.24L-25.20,-258L-52.50,-258L-52.50,-100.38L-22.09,-100.38L-22.09,-166.09C-15.87,-153.44 -3.89,-144.78 12.54,-144.78C39.85,-144.78 60.27,-166.31 60.27,-202.72C60.27,-238.91 40.29,-260.22 13.21,-260.22ZM3.66,-168.09C-12.10,-168.09 -22.09,-181.19 -22.09,-202.50C-22.09,-224.26 -11.66,-236.91 4.11,-236.91C20.31,-236.91 29.86,-224.92 29.86,-202.50C29.86,-180.08 19.87,-168.09 3.66,-168.09ZM226.55,-174.08C221.89,-170.09 216.78,-167.87 209.23,-167.87C199.69,-167.87 193.92,-172.53 193.92,-183.19L193.92,-235.36L229.44,-235.36L229.44,-258L193.92,-258L193.92,-291.97L163.50,-283.53L163.50,-258L143.08,-258L143.08,-235.36L163.50,-235.36L163.50,-178.30C163.50,-153.88 178.82,-144.78 201.24,-144.78C213.01,-144.78 224.11,-148.11 231.43,-153.88ZM250.08,-147L280.50,-147L280.50,-205.61C280.50,-227.81 293.15,-236.24 306.03,-236.24C317.57,-236.24 325.78,-230.03 325.78,-210.94L325.78,-147L356.20,-147L356.20,-219.82C356.20,-246.68 339.33,-260.22 316.24,-260.22C300.48,-260.22 287.60,-253.34 280.50,-239.13L280.50,-306.62L250.08,-306.62ZM490.29,-208.49C490.29,-238.24 470.97,-260.22 437.45,-260.22C404.37,-260.22 381.29,-238.91 381.29,-202.50C381.29,-166.09 403.93,-144.78 439.01,-144.78C461.65,-144.78 480.96,-154.77 488.07,-172.31L463.87,-181.63C459.43,-172.75 451.88,-167.42 438.78,-167.42C423.47,-167.42 413.48,-175.64 411.03,-192.95L489.40,-192.95C489.84,-196.95 490.29,-202.50 490.29,-208.49ZM437.23,-237.80C450.99,-237.80 459.43,-229.36 460.98,-214.04L411.26,-214.04C414.14,-229.81 423.24,-237.80 437.23,-237.80ZM-404.82,0.85L-435.45,0.85L-435.45,147.37L-404.82,147.37ZM-303.58,34.15C-320.68,34.15 -334.44,41.70 -341.32,57.24L-342.43,36.37L-369.74,36.37L-369.74,147.37L-339.33,147.37L-339.33,88.54C-339.33,66.34 -326.67,58.13 -314.02,58.13C-302.47,58.13 -294.04,64.34 -294.04,83.21L-294.04,147.37L-263.63,147.37L-263.63,74.56C-263.63,47.69 -280.50,34.15 -303.58,34.15ZM-159.51,36.37L-187.48,124.06L-214.78,36.37L-247.42,36.37L-205.24,147.37L-170.16,147.37L-127.98,36.37ZM-95.79,20.39C-83.14,20.39 -76.92,15.06 -76.92,4.18C-76.92,-6.70 -83.14,-12.25 -95.79,-12.25C-108.45,-12.25 -114.66,-6.70 -114.66,4.18C-114.66,15.06 -108.45,20.39 -95.79,20.39ZM-80.70,36.37L-111.11,36.37L-111.11,147.37L-80.70,147.37ZM-4.11,149.59C27.64,149.59 45.18,134.05 45.18,112.74C45.18,97.87 36.52,86.99 14.54,82.55L-8.10,77.89C-18.98,75.67 -22.53,72.11 -22.53,67.45C-22.53,60.57 -15.65,56.57 -3.00,56.57C8.55,56.57 19.65,62.35 26.31,72.56L44.51,54.80C34.97,41.26 18.32,34.15 -3.88,34.15C-36.30,34.15 -52.72,51.25 -52.72,69.23C-52.72,86.32 -42.96,96.98 -17.20,102.31L2.33,106.30C12.10,108.30 14.54,111.85 14.54,116.51C14.54,123.84 6.99,127.17 -4.55,127.17C-20.76,127.17 -32.74,119.62 -39.85,108.97L-57.39,126.73C-45.84,141.38 -26.53,149.59 -4.11,149.59ZM84.69,20.39C97.35,20.39 103.56,15.06 103.56,4.18C103.56,-6.70 97.35,-12.25 84.69,-12.25C72.04,-12.25 65.82,-6.70 65.82,4.18C65.82,15.06 72.04,20.39 84.69,20.39ZM99.79,36.37L69.38,36.37L69.38,147.37L99.79,147.37ZM198.14,34.15C181.04,34.15 168.61,42.81 162.39,55.46L162.39,-12.25L131.98,-12.25L131.98,147.37L158.84,147.37L159.95,124.28C166.17,139.38 179.49,149.59 197.25,149.59C224.55,149.59 244.76,128.28 244.76,92.09C244.76,55.69 224.55,34.15 198.14,34.15ZM188.15,126.28C172.61,126.28 162.39,113.85 162.39,92.09C162.39,71.00 172.61,57.46 188.37,57.46C204.80,57.46 214.34,69.45 214.34,91.87C214.34,114.29 204.57,126.28 188.15,126.28ZM301.14,-12.25L270.73,-12.25L270.73,116.51C270.73,139.60 280.28,149.59 301.81,149.59C309.14,149.59 317.57,147.82 322.46,144.93L325.12,124.95C320.24,126.73 317.79,127.17 312.69,127.17C304.47,127.17 301.14,123.40 301.14,113.18ZM444.78,85.88C444.78,56.13 425.46,34.15 391.94,34.15C358.86,34.15 335.78,55.46 335.78,91.87C335.78,128.28 358.42,149.59 393.49,149.59C416.14,149.59 435.45,139.60 442.56,122.06L418.36,112.74C413.92,121.62 406.37,126.95 393.27,126.95C377.96,126.95 367.97,118.73 365.52,101.42L443.89,101.42C444.33,97.42 444.78,91.87 444.78,85.88ZM391.72,56.57C405.48,56.57 413.92,65.01 415.47,80.33L365.74,80.33C368.63,64.57 377.73,56.57 391.72,56.57Z" fill="#ffffff" stroke="#000000"/>
    <path d="M-483.94,-227.94L-484.34,-205.75L-446.33,-205.05L-446.39,-201.75C-446.74,-182.42 -461.64,-173.24 -481.19,-173.60C-508.22,-174.09 -521.75,-191.70 -521.14,-224.67C-520.56,-256.53 -504.85,-274.27 -480.24,-273.82C-463.76,-273.51 -452.24,-266.05 -447.91,-250.36L-419.57,-261.93C-430.55,-286.53 -448.58,-298.07 -480.00,-298.65C-523.07,-299.44 -551.72,-271.61 -552.57,-225.02C-553.44,-177.78 -527.13,-150.04 -487.13,-149.31C-466.70,-148.93 -451.84,-155.91 -443.47,-169.17L-442.49,-150.69L-421.17,-150.30L-419.77,-226.77ZM-390.85,-149.74L-360.74,-149.19L-359.70,-206.10C-359.34,-225.88 -345.76,-235.08 -332.36,-234.84C-325.54,-234.71 -321.82,-233.99 -318.76,-232.83L-314.78,-258.04C-317.39,-259.62 -321.77,-260.58 -326.61,-260.67C-343.75,-260.98 -355.11,-252.62 -361.10,-237.56L-362.68,-259.13L-388.83,-259.61ZM-197.35,-164.66C-202.63,-164.76 -205.22,-167.44 -205.11,-173.16L-204.30,-217.77C-203.80,-244.79 -222.89,-258.77 -251.67,-259.30C-280.24,-259.82 -297.17,-247.38 -302.58,-228.14L-277.02,-219.76C-273.04,-232.65 -264.16,-237.55 -253.40,-237.35C-241.75,-237.14 -233.97,-229.52 -234.20,-216.99L-234.28,-212.82L-272.22,-205.82C-292.07,-202.23 -303.03,-191.88 -303.32,-175.62C-303.68,-156.28 -290.02,-145.70 -267.61,-145.29C-253.77,-145.03 -239.60,-150.49 -232.38,-160.47C-229.27,-150.08 -219.26,-144.84 -206.74,-144.39C-200.80,-144.28 -195.95,-145.29 -192.40,-146.99L-190.30,-165.63C-192.29,-165.01 -194.94,-164.62 -197.35,-164.66ZM-259.53,-166.46C-267.22,-166.60 -273.30,-170.67 -273.17,-177.92C-273.03,-185.61 -267.92,-188.16 -257.78,-189.95L-234.62,-194.14L-234.75,-187.33C-235.04,-171.29 -247.00,-166.23 -259.53,-166.46ZM-128.07,-142.73C-96.65,-142.16 -79.01,-157.22 -78.62,-178.31C-78.35,-193.04 -86.73,-203.96 -108.40,-208.76L-130.73,-213.78C-141.46,-216.17 -144.91,-219.76 -144.82,-224.37C-144.70,-231.18 -137.81,-235.01 -125.29,-234.78C-113.86,-234.57 -102.98,-228.66 -96.57,-218.43L-78.23,-235.68C-87.44,-249.26 -103.79,-256.59 -125.76,-256.99C-157.84,-257.58 -174.41,-240.96 -174.74,-223.16C-175.05,-206.24 -165.58,-195.51 -140.18,-189.77L-120.92,-185.46C-111.28,-183.31 -108.93,-179.75 -109.02,-175.13C-109.15,-167.88 -116.68,-164.72 -128.11,-164.93C-144.15,-165.23 -155.88,-172.92 -162.72,-183.59L-180.40,-166.33C-169.24,-151.62 -150.27,-143.14 -128.07,-142.73ZM11.80,-254.47C-5.56,-254.79 -18.92,-245.58 -25.33,-231.41L-26.26,-252.97L-53.29,-253.47L-56.14,-97.45L-26.04,-96.90L-24.85,-161.94C-18.92,-149.31 -7.21,-140.52 9.05,-140.22C36.07,-139.73 56.68,-160.67 57.34,-196.71C58.00,-232.53 38.61,-253.98 11.80,-254.47ZM0.68,-163.45C-14.92,-163.74 -24.57,-176.89 -24.19,-197.98C-23.79,-219.52 -13.24,-231.85 2.37,-231.57C18.41,-231.27 27.64,-219.23 27.23,-197.04C26.83,-174.85 16.72,-163.16 0.68,-163.45ZM221.41,-165.35C216.72,-161.48 211.63,-159.37 204.16,-159.51C194.71,-159.68 189.08,-164.40 189.27,-174.95L190.22,-226.59L225.38,-225.94L225.79,-248.36L190.63,-249.00L191.24,-282.62L160.99,-274.82L160.52,-249.55L140.31,-249.92L139.90,-227.51L160.11,-227.14L159.08,-170.67C158.64,-146.49 173.63,-137.21 195.83,-136.80C207.47,-136.59 218.52,-139.68 225.88,-145.26ZM244.21,-138.11L274.32,-137.56L275.38,-195.57C275.78,-217.55 288.46,-225.67 301.20,-225.44C312.63,-225.23 320.65,-218.92 320.30,-200.03L319.14,-136.74L349.25,-136.19L350.57,-208.26C351.06,-234.85 334.60,-248.56 311.75,-248.98C296.15,-249.27 283.28,-242.69 275.99,-228.75L277.21,-295.56L247.10,-296.11ZM483.09,-194.63C483.63,-224.07 464.91,-246.18 431.73,-246.79C398.99,-247.38 375.75,-226.71 375.09,-190.67C374.43,-154.63 396.45,-133.13 431.17,-132.49C453.59,-132.08 472.89,-141.62 480.24,-158.85L456.45,-168.52C451.90,-159.81 444.33,-154.67 431.36,-154.91C416.20,-155.19 406.46,-163.50 404.36,-180.68L481.93,-179.26C482.44,-183.21 482.98,-188.69 483.09,-194.63ZM431.10,-224.60C444.72,-224.35 452.92,-215.84 454.18,-200.65L404.96,-201.55C408.10,-217.10 417.26,-224.85 431.10,-224.60ZM-406.71,-3.63L-437.04,-4.19L-439.69,140.84L-409.37,141.40ZM-307.11,31.16C-324.03,30.85 -337.79,38.08 -344.89,53.33L-345.61,32.66L-372.63,32.16L-374.65,142.03L-344.54,142.58L-343.48,84.35C-343.07,62.38 -330.40,54.48 -317.87,54.71C-306.45,54.92 -298.21,61.22 -298.55,79.90L-299.71,143.41L-269.61,143.96L-268.29,71.88C-267.80,45.29 -284.26,31.58 -307.11,31.16ZM-164.54,35.97L-193.81,122.26L-219.25,34.97L-251.56,34.38L-211.82,145.01L-177.10,145.65L-133.33,36.54ZM-101.18,21.31C-88.66,21.53 -82.41,16.37 -82.21,5.61C-82.01,-5.16 -88.07,-10.77 -100.59,-11.00C-113.12,-11.23 -119.37,-5.85 -119.57,4.92C-119.76,15.69 -113.71,21.08 -101.18,21.31ZM-86.53,37.40L-116.63,36.85L-118.65,146.72L-88.54,147.27ZM-12.77,150.86C18.65,151.43 36.29,136.37 36.68,115.27C36.95,100.55 28.58,89.63 6.90,84.83L-15.43,79.81C-26.15,77.41 -29.60,73.83 -29.52,69.22C-29.40,62.41 -22.51,58.58 -9.99,58.81C1.44,59.01 12.32,64.93 18.73,75.16L37.07,57.91C27.87,44.33 11.52,37.00 -10.46,36.60C-42.54,36.01 -59.11,52.63 -59.44,70.43C-59.75,87.35 -50.27,98.07 -24.88,103.81L-5.61,108.12C4.02,110.28 6.37,113.84 6.29,118.45C6.16,125.71 -1.38,128.86 -12.80,128.66C-28.84,128.36 -40.57,120.67 -47.41,110.00L-65.09,127.26C-53.93,141.97 -34.96,150.45 -12.77,150.86ZM77.47,24.58C89.99,24.81 96.24,19.64 96.44,8.88C96.64,-1.89 90.59,-7.50 78.06,-7.73C65.54,-7.96 59.28,-2.57 59.08,8.19C58.89,18.96 64.94,24.35 77.47,24.58ZM92.12,40.67L62.02,40.12L60.01,149.99L90.11,150.54ZM189.51,40.26C172.59,39.95 160.13,48.29 153.74,60.70L154.97,-6.32L124.87,-6.87L121.97,151.13L148.56,151.61L150.08,128.78C155.96,143.84 168.96,154.19 186.54,154.51C213.57,155.00 233.95,134.27 234.60,98.45C235.26,62.42 215.66,40.74 189.51,40.26ZM177.95,131.27C162.57,130.99 152.69,118.50 153.08,96.96C153.46,76.09 163.82,62.87 179.42,63.15C195.68,63.45 204.91,75.49 204.50,97.68C204.10,119.88 194.21,131.57 177.95,131.27ZM292.31,-3.80L262.21,-4.35L259.87,123.10C259.45,145.95 268.72,156.01 290.04,156.40C297.29,156.53 305.67,154.93 310.56,152.16L313.56,132.43C308.69,134.10 306.26,134.50 301.21,134.41C293.08,134.26 289.85,130.46 290.04,120.35ZM432.71,95.93C433.24,66.48 414.53,44.38 381.34,43.77C348.60,43.17 325.36,63.85 324.70,99.88C324.04,135.92 346.07,157.43 380.79,158.06C403.20,158.47 422.50,148.94 429.85,131.70L406.07,122.04C401.51,130.75 393.95,135.88 380.98,135.65C365.82,135.37 356.08,127.06 353.98,109.87L431.54,111.29C432.06,107.35 432.60,101.86 432.71,95.93ZM380.72,65.96C394.34,66.21 402.54,74.71 403.80,89.90L354.58,89.00C357.72,73.45 366.87,65.71 380.72,65.96Z" fill="#ffffff" stroke="#000000"/>
    <path d="M-480.82,-231.65L-481.62,-209.69L-444.01,-208.31L-444.13,-205.05C-444.83,-185.92 -459.74,-177.10 -479.09,-177.81C-505.83,-178.79 -518.90,-196.47 -517.71,-229.08C-516.55,-260.61 -500.68,-277.88 -476.33,-276.98C-460.02,-276.39 -448.76,-268.79 -444.76,-253.19L-416.50,-264.12C-426.92,-288.67 -444.56,-300.42 -475.65,-301.56C-518.26,-303.12 -547.12,-276.09 -548.80,-230.00C-550.52,-183.26 -524.98,-155.33 -485.41,-153.88C-465.19,-153.14 -450.36,-159.78 -441.83,-172.75L-441.20,-154.44L-420.11,-153.66L-417.33,-229.32ZM-390.10,-152.56L-360.32,-151.47L-358.25,-207.78C-357.54,-227.35 -343.93,-236.21 -330.67,-235.73C-323.93,-235.48 -320.26,-234.69 -317.26,-233.49L-312.86,-258.37C-315.41,-259.99 -319.73,-261.02 -324.51,-261.19C-341.47,-261.81 -352.87,-253.74 -359.07,-238.94L-360.25,-260.32L-386.12,-261.27ZM-198.33,-163.83C-203.55,-164.02 -206.06,-166.72 -205.85,-172.37L-204.23,-216.51C-203.26,-243.25 -221.89,-257.43 -250.38,-258.47C-278.64,-259.51 -295.62,-247.51 -301.33,-228.56L-276.18,-219.80C-272.01,-232.49 -263.13,-237.17 -252.48,-236.78C-240.95,-236.36 -233.40,-228.68 -233.85,-216.29L-234.00,-212.16L-271.68,-205.92C-291.39,-202.72 -302.42,-192.67 -303.01,-176.59C-303.71,-157.45 -290.39,-146.73 -268.21,-145.92C-254.52,-145.42 -240.40,-150.56 -233.07,-160.31C-230.18,-149.97 -220.37,-144.60 -207.98,-143.93C-202.11,-143.72 -197.29,-144.63 -193.75,-146.24L-191.33,-164.66C-193.31,-164.08 -195.94,-163.74 -198.33,-163.83ZM-259.83,-166.73C-267.44,-167.01 -273.39,-171.15 -273.12,-178.32C-272.84,-185.93 -267.75,-188.36 -257.67,-189.95L-234.68,-193.68L-234.93,-186.94C-235.51,-171.07 -247.44,-166.28 -259.83,-166.73ZM-130.16,-140.86C-99.07,-139.72 -81.33,-154.31 -80.57,-175.19C-80.03,-189.75 -88.12,-200.72 -109.49,-205.85L-131.50,-211.23C-142.07,-213.80 -145.42,-217.40 -145.25,-221.97C-145.01,-228.71 -138.12,-232.37 -125.73,-231.92C-114.43,-231.51 -103.76,-225.46 -97.61,-215.22L-79.14,-231.96C-88.00,-245.56 -104.06,-253.11 -125.80,-253.91C-157.54,-255.07 -174.24,-238.92 -174.89,-221.31C-175.50,-204.57 -166.32,-193.78 -141.29,-187.64L-122.30,-183.03C-112.80,-180.72 -110.54,-177.16 -110.71,-172.59C-110.97,-165.41 -118.48,-162.42 -129.79,-162.84C-145.66,-163.42 -157.13,-171.24 -163.70,-181.93L-181.51,-165.17C-170.73,-150.41 -152.11,-141.67 -130.16,-140.86ZM10.30,-248.93C-6.87,-249.55 -20.26,-240.68 -26.86,-226.77L-27.39,-248.13L-54.13,-249.11L-59.78,-94.74L-30.00,-93.65L-27.64,-158.01C-22.01,-145.39 -10.58,-136.48 5.51,-135.89C32.25,-134.91 53.03,-155.27 54.33,-190.93C55.63,-226.36 36.83,-247.95 10.30,-248.93ZM-2.35,-159.04C-17.79,-159.61 -27.10,-172.79 -26.34,-193.66C-25.55,-214.97 -14.88,-226.99 0.55,-226.42C16.43,-225.84 25.34,-213.76 24.54,-191.80C23.74,-169.84 13.52,-158.46 -2.35,-159.04ZM216.15,-156.91C211.44,-153.17 206.36,-151.18 198.97,-151.45C189.62,-151.79 184.13,-156.56 184.52,-167.00L186.39,-218.09L221.17,-216.82L221.99,-238.99L187.20,-240.27L188.42,-273.53L158.33,-266.36L157.41,-241.36L137.41,-242.09L136.60,-219.92L156.60,-219.18L154.55,-163.31C153.68,-139.39 168.35,-129.93 190.31,-129.12C201.84,-128.70 212.83,-131.56 220.21,-136.95ZM238.22,-129.55L268.01,-128.45L270.11,-185.85C270.91,-207.59 283.60,-215.40 296.21,-214.94C307.52,-214.53 315.34,-208.14 314.66,-189.45L312.36,-126.83L342.15,-125.74L344.76,-197.05C345.72,-223.36 329.69,-237.23 307.07,-238.05C291.64,-238.62 278.78,-232.34 271.31,-218.68L273.74,-284.78L243.95,-285.87ZM475.67,-181.15C476.74,-210.29 458.61,-232.50 425.78,-233.70C393.39,-234.89 370.01,-214.85 368.71,-179.19C367.40,-143.54 388.81,-121.85 423.16,-120.59C445.34,-119.78 464.61,-128.87 472.20,-145.79L448.84,-155.79C444.17,-147.26 436.59,-142.31 423.76,-142.78C408.76,-143.33 399.27,-151.73 397.50,-168.78L474.24,-165.96C474.82,-169.86 475.46,-175.28 475.67,-181.15ZM424.76,-211.75C438.24,-211.26 446.20,-202.70 447.17,-187.64L398.47,-189.42C401.86,-204.76 411.06,-212.26 424.76,-211.75ZM-408.45,-8.24L-438.46,-9.34L-443.71,134.15L-413.71,135.25ZM-310.51,28.00C-327.25,27.39 -341.00,34.29 -348.30,49.26L-348.63,28.78L-375.38,27.80L-379.36,136.51L-349.57,137.60L-347.46,79.98C-346.67,58.24 -333.98,50.65 -321.59,51.11C-310.28,51.52 -302.24,57.91 -302.92,76.39L-305.22,139.22L-275.43,140.32L-272.82,69.00C-271.86,42.70 -287.90,28.83 -310.51,28.00ZM-169.48,35.34L-200.02,120.22L-223.62,33.36L-255.58,32.19L-218.25,142.41L-183.90,143.67L-138.61,36.47ZM-106.51,21.98C-94.12,22.43 -87.84,17.43 -87.45,6.78C-87.06,-3.87 -92.95,-9.53 -105.34,-9.98C-117.73,-10.44 -124.02,-5.23 -124.41,5.43C-124.80,16.08 -118.91,21.52 -106.51,21.98ZM-92.30,38.17L-122.09,37.08L-126.07,145.79L-96.28,146.88ZM-21.36,151.80C9.73,152.94 27.47,138.35 28.23,117.48C28.77,102.91 20.68,91.95 -0.69,86.81L-22.70,81.43C-33.27,78.87 -36.62,75.26 -36.45,70.70C-36.21,63.96 -29.32,60.29 -16.93,60.74C-5.63,61.16 5.04,67.21 11.19,77.45L29.66,60.71C20.80,47.10 4.74,39.55 -17.00,38.75C-48.74,37.59 -65.44,53.74 -66.09,71.35C-66.70,88.09 -57.52,98.88 -32.49,105.02L-13.50,109.64C-4.00,111.94 -1.74,115.51 -1.91,120.07C-2.17,127.25 -9.68,130.24 -20.99,129.83C-36.86,129.24 -48.33,121.42 -54.90,110.73L-72.72,127.49C-61.94,142.26 -43.32,151.00 -21.36,151.80ZM70.24,28.45C82.64,28.90 88.92,23.91 89.31,13.26C89.70,2.60 83.81,-3.06 71.42,-3.51C59.02,-3.96 52.74,1.25 52.35,11.90C51.96,22.56 57.85,28.00 70.24,28.45ZM84.46,44.65L54.67,43.56L50.69,152.26L80.47,153.35ZM180.85,46.00C164.11,45.39 151.62,53.42 145.08,65.59L147.51,-0.72L117.72,-1.81L112.00,154.51L138.31,155.47L140.22,132.90C145.77,147.91 158.45,158.39 175.84,159.02C202.58,160.00 223.13,139.86 224.43,104.42C225.73,68.76 206.72,46.95 180.85,46.00ZM167.76,135.87C152.54,135.31 142.99,122.77 143.77,101.46C144.52,80.81 155.01,67.91 170.45,68.48C186.54,69.07 195.45,81.15 194.65,103.11C193.85,125.07 183.85,136.46 167.76,135.87ZM283.39,4.26L253.61,3.17L248.99,129.27C248.16,151.88 257.15,162.00 278.24,162.78C285.42,163.04 293.74,161.60 298.63,158.95L301.95,139.48C297.11,141.04 294.70,141.39 289.70,141.21C281.65,140.91 278.53,137.10 278.89,127.10ZM420.54,105.51C421.61,76.37 403.48,54.16 370.65,52.95C338.26,51.77 314.88,71.81 313.58,107.47C312.27,143.12 333.68,164.81 368.03,166.06C390.21,166.88 409.48,157.79 417.07,140.87L393.70,130.87C389.04,139.40 381.45,144.35 368.63,143.88C353.63,143.33 344.14,134.93 342.37,117.88L419.11,120.69C419.69,116.80 420.33,111.38 420.54,105.51ZM369.63,74.90C383.11,75.40 391.07,83.96 392.04,99.02L343.34,97.24C346.73,81.90 355.93,74.40 369.63,74.90Z" fill="#ffffff" stroke="#000000"/>
    <path d="M-477.61,-235.37L-478.80,-213.66L-441.60,-211.61L-441.78,-208.39C-442.82,-189.46 -457.74,-181.01 -476.87,-182.06C-503.32,-183.52 -515.93,-201.25 -514.16,-233.50C-512.44,-264.68 -496.42,-281.48 -472.34,-280.16C-456.22,-279.27 -445.21,-271.55 -441.53,-256.03L-413.36,-266.35C-423.23,-290.83 -440.47,-302.78 -471.22,-304.47C-513.36,-306.78 -542.41,-280.56 -544.92,-234.98C-547.46,-188.75 -522.69,-160.64 -483.56,-158.49C-463.56,-157.39 -448.77,-163.70 -440.09,-176.37L-439.79,-158.24L-418.94,-157.10L-414.82,-231.92ZM-389.26,-155.46L-359.81,-153.84L-356.75,-209.53C-355.68,-228.88 -342.06,-237.41 -328.94,-236.69C-322.28,-236.32 -318.66,-235.48 -315.71,-234.24L-310.91,-258.77C-313.40,-260.42 -317.66,-261.52 -322.39,-261.78C-339.16,-262.70 -350.58,-254.92 -356.99,-240.39L-357.77,-261.56L-383.35,-262.97ZM-199.27,-163.13C-204.43,-163.42 -206.87,-166.14 -206.56,-171.73L-204.16,-215.38C-202.71,-241.83 -220.90,-256.20 -249.07,-257.75C-277.02,-259.28 -294.04,-247.71 -300.03,-229.06L-275.30,-219.94C-270.95,-232.42 -262.07,-236.89 -251.54,-236.31C-240.14,-235.69 -232.80,-227.95 -233.48,-215.70L-233.70,-211.61L-271.10,-206.12C-290.66,-203.31 -301.77,-193.57 -302.64,-177.66C-303.68,-158.74 -290.69,-147.89 -268.76,-146.68C-255.21,-145.94 -241.14,-150.77 -233.72,-160.28C-231.05,-150.00 -221.43,-144.51 -209.19,-143.62C-203.38,-143.30 -198.59,-144.12 -195.06,-145.65L-192.33,-163.83C-194.30,-163.29 -196.91,-163.00 -199.27,-163.13ZM-260.09,-167.12C-267.61,-167.54 -273.42,-171.74 -273.03,-178.84C-272.62,-186.36 -267.53,-188.67 -257.53,-190.06L-234.71,-193.33L-235.07,-186.67C-235.94,-170.97 -247.83,-166.45 -260.09,-167.12ZM-132.22,-139.18C-101.48,-137.48 -83.66,-151.60 -82.53,-172.24C-81.74,-186.65 -89.54,-197.65 -110.59,-203.12L-132.28,-208.84C-142.69,-211.57 -145.94,-215.20 -145.70,-219.71C-145.33,-226.38 -138.45,-229.88 -126.20,-229.21C-115.02,-228.59 -104.57,-222.41 -98.67,-212.17L-80.09,-228.40C-88.61,-242.02 -104.36,-249.79 -125.86,-250.97C-157.25,-252.70 -174.08,-237.02 -175.03,-219.60C-175.94,-203.04 -167.05,-192.20 -142.39,-185.67L-123.68,-180.76C-114.33,-178.31 -112.15,-174.73 -112.40,-170.22C-112.79,-163.12 -120.28,-160.30 -131.46,-160.92C-147.16,-161.78 -158.37,-169.73 -164.68,-180.43L-182.61,-164.16C-172.21,-149.35 -153.94,-140.37 -132.22,-139.18ZM8.74,-243.57C-8.25,-244.50 -21.66,-235.97 -28.45,-222.32L-28.58,-243.47L-55.03,-244.92L-63.42,-92.26L-33.96,-90.64L-30.46,-154.28C-25.12,-141.70 -13.97,-132.67 1.95,-131.80C28.39,-130.34 49.32,-150.11 51.26,-185.38C53.19,-220.42 34.97,-242.13 8.74,-243.57ZM-5.41,-154.85C-20.68,-155.69 -29.66,-168.91 -28.52,-189.55C-27.37,-210.62 -16.59,-222.32 -1.32,-221.48C14.38,-220.62 22.98,-208.50 21.79,-186.78C20.60,-165.06 10.28,-153.99 -5.41,-154.85ZM210.78,-148.78C206.05,-145.16 200.99,-143.28 193.68,-143.69C184.43,-144.19 179.09,-149.02 179.66,-159.34L182.44,-209.87L216.84,-207.98L218.04,-229.91L183.64,-231.80L185.45,-264.70L155.54,-258.14L154.18,-233.42L134.40,-234.51L133.20,-212.57L152.98,-211.49L149.94,-156.23C148.64,-132.58 162.99,-122.94 184.71,-121.75C196.10,-121.12 207.03,-123.76 214.43,-128.96ZM232.13,-121.30L261.59,-119.68L264.71,-176.44C265.89,-197.95 278.59,-205.44 291.07,-204.76C302.25,-204.14 309.87,-197.68 308.85,-179.19L305.45,-117.27L334.91,-115.65L338.78,-186.17C340.21,-212.19 324.59,-226.21 302.23,-227.43C286.97,-228.27 274.13,-222.29 266.49,-208.91L270.09,-274.28L240.63,-275.90ZM468.05,-168.07C469.63,-196.88 452.10,-219.19 419.63,-220.98C387.59,-222.74 364.10,-203.33 362.16,-168.07C360.22,-132.80 381.02,-110.96 414.99,-109.09C436.92,-107.88 456.16,-116.53 463.97,-133.14L441.03,-143.46C436.26,-135.09 428.67,-130.34 415.98,-131.03C401.14,-131.85 391.91,-140.34 390.46,-157.24L466.36,-153.06C467.01,-156.91 467.73,-162.26 468.05,-168.07ZM418.22,-199.28C431.55,-198.54 439.27,-189.92 439.96,-175.00L391.80,-177.65C395.44,-192.76 404.68,-200.02 418.22,-199.28ZM-410.04,-12.97L-439.71,-14.60L-447.51,127.31L-417.84,128.94ZM-313.76,24.67C-330.32,23.76 -344.05,30.34 -351.55,45.02L-351.51,24.75L-377.96,23.30L-383.87,130.80L-354.41,132.42L-351.28,75.45C-350.10,53.94 -337.40,46.66 -325.15,47.34C-313.97,47.95 -306.13,54.42 -307.13,72.70L-310.55,134.84L-281.09,136.46L-277.21,65.93C-275.78,39.91 -291.40,25.90 -313.76,24.67ZM-174.34,34.49L-206.10,117.93L-227.88,31.55L-259.48,29.81L-224.54,139.56L-190.57,141.43L-143.81,36.17ZM-111.78,22.40C-99.52,23.08 -93.22,18.25 -92.64,7.71C-92.06,-2.82 -97.78,-8.53 -110.04,-9.20C-122.30,-9.88 -128.61,-4.83 -129.19,5.70C-129.77,16.24 -124.03,21.73 -111.78,22.40ZM-98.01,38.69L-127.46,37.07L-133.38,144.58L-103.92,146.20ZM-29.86,152.43C0.89,154.12 18.70,140.00 19.84,119.36C20.63,104.95 12.82,93.95 -8.23,88.48L-29.91,82.76C-40.33,80.03 -43.58,76.40 -43.33,71.89C-42.96,65.22 -36.08,61.72 -23.83,62.39C-12.65,63.01 -2.20,69.19 3.70,79.43L22.28,63.20C13.76,49.58 -1.99,41.81 -23.49,40.63C-54.89,38.90 -71.71,54.58 -72.67,72.00C-73.58,88.56 -64.68,99.40 -40.02,105.93L-21.32,110.84C-11.96,113.30 -9.79,116.87 -10.03,121.38C-10.42,128.48 -17.91,131.30 -29.09,130.68C-44.79,129.82 -56.00,121.87 -62.31,111.17L-80.24,127.44C-69.84,142.25 -51.57,151.23 -29.86,152.43ZM63.03,32.01C75.29,32.69 81.59,27.86 82.17,17.32C82.75,6.79 77.02,1.08 64.77,0.41C52.51,-0.27 46.20,4.78 45.62,15.31C45.04,25.85 50.77,31.34 63.03,32.01ZM76.80,48.30L47.34,46.68L41.43,154.19L70.89,155.81ZM172.17,51.39C155.61,50.48 143.11,58.20 136.42,70.12L140.02,4.55L110.57,2.93L102.07,157.52L128.08,158.95L130.39,136.65C135.60,151.60 147.96,162.20 165.16,163.15C191.61,164.60 212.31,145.04 214.24,109.99C216.18,74.73 197.76,52.79 172.17,51.39ZM157.59,140.09C142.54,139.26 133.31,126.67 134.47,105.60C135.59,85.18 146.20,72.60 161.47,73.44C177.38,74.32 185.99,86.44 184.79,108.15C183.60,129.87 173.50,140.96 157.59,140.09ZM274.41,11.93L244.95,10.31L238.09,135.02C236.86,157.38 245.58,167.57 266.43,168.72C273.53,169.11 281.80,167.83 286.68,165.30L290.32,146.09C285.50,147.55 283.11,147.85 278.16,147.58C270.21,147.14 267.18,143.31 267.73,133.42ZM408.30,114.62C409.88,85.81 392.35,63.49 359.88,61.71C327.84,59.95 304.34,79.36 302.41,114.62C300.47,149.88 321.26,171.73 355.24,173.60C377.17,174.80 396.41,166.16 404.22,149.55L381.28,139.23C376.51,147.59 368.91,152.35 356.23,151.65C341.39,150.84 332.15,142.35 330.71,125.45L406.61,129.62C407.25,125.78 407.98,120.42 408.30,114.62ZM358.47,83.41C371.80,84.14 379.52,92.76 380.21,107.68L332.05,105.04C335.68,89.92 344.92,82.67 358.47,83.41Z" fill="#ffffff" stroke="#000000"/>
    <path d="M-474.29,-239.11L-475.87,-217.64L-439.10,-214.94L-439.33,-211.76C-440.70,-193.05 -455.62,-184.96 -474.53,-186.35C-500.68,-188.26 -512.84,-206.04 -510.50,-237.92C-508.24,-268.74 -492.08,-285.08 -468.27,-283.33C-452.33,-282.16 -441.58,-274.32 -438.22,-258.90L-410.16,-268.60C-419.48,-293.00 -436.33,-305.13 -466.72,-307.36C-508.38,-310.42 -537.60,-285.00 -540.91,-239.94C-544.26,-194.24 -520.26,-165.98 -481.58,-163.14C-461.81,-161.69 -447.06,-167.66 -438.24,-180.05L-438.27,-162.10L-417.66,-160.59L-412.23,-234.56ZM-388.33,-158.44L-359.21,-156.30L-355.17,-211.35C-353.76,-230.48 -340.13,-238.67 -327.16,-237.72C-320.57,-237.23 -317.01,-236.33 -314.11,-235.05L-308.92,-259.24C-311.36,-260.92 -315.55,-262.08 -320.22,-262.42C-336.80,-263.64 -348.25,-256.15 -354.85,-241.89L-355.24,-262.86L-380.53,-264.71ZM-200.19,-162.59C-205.29,-162.96 -207.65,-165.70 -207.24,-171.22L-204.08,-214.37C-202.16,-240.51 -219.90,-255.06 -247.74,-257.11C-275.37,-259.13 -292.43,-247.99 -298.69,-229.65L-274.39,-220.17C-269.85,-232.45 -260.99,-236.71 -250.58,-235.95C-239.31,-235.12 -232.19,-227.33 -233.08,-215.22L-233.38,-211.18L-270.48,-206.42C-289.89,-204.00 -301.05,-194.56 -302.21,-178.83C-303.58,-160.13 -290.92,-149.15 -269.24,-147.56C-255.85,-146.58 -241.84,-151.11 -234.32,-160.39C-231.87,-150.16 -222.45,-144.56 -210.35,-143.46C-204.61,-143.04 -199.86,-143.76 -196.33,-145.21L-193.31,-163.15C-195.27,-162.65 -197.85,-162.41 -200.19,-162.59ZM-260.29,-167.64C-267.73,-168.18 -273.40,-172.44 -272.88,-179.46C-272.34,-186.90 -267.26,-189.09 -257.35,-190.28L-234.70,-193.11L-235.18,-186.52C-236.32,-171.01 -248.17,-166.75 -260.29,-167.64ZM-134.27,-137.66C-103.88,-135.43 -86.00,-149.08 -84.50,-169.48C-83.45,-183.72 -90.98,-194.75 -111.71,-200.54L-133.06,-206.60C-143.32,-209.49 -146.47,-213.14 -146.14,-217.60C-145.66,-224.19 -138.79,-227.53 -126.68,-226.64C-115.62,-225.83 -105.40,-219.53 -99.74,-209.28L-81.07,-225.01C-89.25,-238.64 -104.70,-246.61 -125.95,-248.17C-156.98,-250.45 -173.91,-235.24 -175.18,-218.02C-176.38,-201.65 -167.77,-190.77 -143.49,-183.86L-125.07,-178.66C-115.86,-176.06 -113.77,-172.49 -114.10,-168.02C-114.61,-161.01 -122.07,-158.35 -133.12,-159.16C-148.64,-160.30 -159.59,-168.37 -165.64,-179.07L-183.68,-163.30C-173.66,-148.46 -155.74,-139.24 -134.27,-137.66ZM7.10,-238.41C-9.69,-239.64 -23.11,-231.44 -30.08,-218.06L-29.82,-238.98L-55.97,-240.90L-67.04,-89.99L-37.92,-87.85L-33.30,-150.77C-28.24,-138.22 -17.37,-129.09 -1.64,-127.93C24.50,-126.01 45.57,-145.20 48.13,-180.05C50.67,-214.70 33.03,-236.51 7.10,-238.41ZM-8.51,-150.87C-23.60,-151.98 -32.24,-165.22 -30.75,-185.63C-29.22,-206.46 -18.34,-217.84 -3.25,-216.73C12.27,-215.59 20.57,-203.45 18.99,-181.98C17.42,-160.51 7.01,-149.73 -8.51,-150.87ZM205.31,-140.96C200.57,-137.46 195.52,-135.69 188.30,-136.22C179.16,-136.89 173.96,-141.76 174.71,-151.96L178.37,-201.91L212.38,-199.42L213.97,-221.10L179.96,-223.59L182.35,-256.11L152.64,-250.17L150.84,-225.73L131.29,-227.16L129.70,-205.48L149.25,-204.05L145.25,-149.42C143.53,-126.04 157.56,-116.25 179.02,-114.68C190.29,-113.85 201.15,-116.26 208.57,-121.27ZM225.94,-113.37L255.06,-111.24L259.18,-167.35C260.74,-188.60 273.44,-195.79 285.77,-194.89C296.82,-194.08 304.25,-187.55 302.91,-169.27L298.42,-108.05L327.54,-105.92L332.65,-175.63C334.54,-201.35 319.34,-215.50 297.23,-217.13C282.14,-218.23 269.33,-212.55 261.53,-199.44L266.27,-264.06L237.15,-266.19ZM460.24,-155.38C462.33,-183.86 445.38,-206.26 413.28,-208.61C381.61,-210.93 358.01,-192.15 355.46,-157.29C352.90,-122.44 373.08,-100.44 406.66,-97.98C428.34,-96.39 447.54,-104.59 455.57,-120.89L433.06,-131.51C428.18,-123.32 420.58,-118.75 408.04,-119.67C393.38,-120.75 384.39,-129.31 383.27,-146.06L458.30,-140.56C459.00,-144.35 459.82,-149.64 460.24,-155.38ZM411.50,-187.16C424.67,-186.19 432.16,-177.52 432.57,-162.75L384.96,-166.24C388.83,-181.13 398.11,-188.14 411.50,-187.16ZM-411.46,-17.82L-440.80,-19.97L-451.09,120.31L-421.76,122.47ZM-316.88,21.18C-333.25,19.98 -346.95,26.24 -354.64,40.63L-354.23,20.57L-380.38,18.66L-388.17,124.93L-359.05,127.07L-354.92,70.74C-353.36,49.49 -340.67,42.51 -328.55,43.40C-317.50,44.21 -309.86,50.75 -311.19,68.82L-315.69,130.25L-286.57,132.38L-281.46,62.67C-279.57,36.95 -294.78,22.80 -316.88,21.18ZM-179.09,33.42L-212.03,115.41L-232.02,29.54L-263.26,27.25L-230.67,136.48L-197.09,138.95L-148.91,35.64ZM-116.97,22.59C-104.85,23.48 -98.53,18.82 -97.76,8.40C-97.00,-2.01 -102.56,-7.76 -114.68,-8.65C-126.79,-9.54 -133.13,-4.66 -133.90,5.75C-134.66,16.17 -129.08,21.71 -116.97,22.59ZM-103.64,38.96L-132.76,36.82L-140.55,143.10L-111.43,145.23ZM-38.26,152.74C-7.87,154.97 10.02,141.32 11.51,120.92C12.56,106.68 5.03,95.65 -15.70,89.86L-37.05,83.80C-47.31,80.91 -50.46,77.26 -50.13,72.80C-49.65,66.21 -42.78,62.87 -30.66,63.76C-19.61,64.57 -9.39,70.88 -3.73,81.12L14.95,65.39C6.76,51.76 -8.68,43.79 -29.94,42.23C-60.97,39.95 -77.90,55.16 -79.16,72.38C-80.36,88.75 -71.76,99.64 -47.48,106.55L-29.06,111.74C-19.84,114.34 -17.76,117.91 -18.08,122.38C-18.60,129.39 -26.06,132.05 -37.11,131.24C-52.63,130.10 -63.57,122.03 -69.63,111.33L-87.67,127.10C-77.64,141.94 -59.73,151.16 -38.26,152.74ZM55.83,35.27C67.95,36.16 74.28,31.50 75.04,21.08C75.80,10.67 70.24,4.92 58.13,4.03C46.01,3.14 39.67,8.02 38.91,18.43C38.14,28.85 43.72,34.38 55.83,35.27ZM69.16,51.64L40.05,49.50L32.25,155.77L61.37,157.91ZM163.48,56.42C147.11,55.22 134.60,62.63 127.76,74.31L132.52,9.49L103.40,7.35L92.19,160.17L117.91,162.06L120.59,140.03C125.48,154.92 137.52,165.63 154.52,166.88C180.66,168.80 201.50,149.81 204.05,115.17C206.60,80.31 188.77,58.27 163.48,56.42ZM147.44,143.92C132.57,142.83 123.66,130.21 125.19,109.38C126.67,89.19 137.40,76.94 152.49,78.05C168.22,79.20 176.52,91.35 174.94,112.82C173.37,134.29 163.17,145.08 147.44,143.92ZM265.36,19.23L236.24,17.10L227.20,140.37C225.58,162.48 234.01,172.71 254.63,174.23C261.65,174.74 269.85,173.63 274.73,171.21L278.68,152.27C273.88,153.63 271.51,153.88 266.62,153.52C258.76,152.95 255.83,149.10 256.55,139.32ZM395.99,123.27C398.08,94.79 381.13,72.39 349.03,70.03C317.37,67.71 293.76,86.49 291.21,121.35C288.65,156.21 308.83,178.20 342.41,180.67C364.09,182.26 383.29,174.05 391.32,157.76L368.81,147.13C363.93,155.32 356.33,159.89 343.79,158.97C329.13,157.89 320.14,149.33 319.02,132.58L394.05,138.08C394.75,134.29 395.57,129.01 395.99,123.27ZM347.25,91.48C360.43,92.45 367.91,101.12 368.32,115.89L320.71,112.40C324.58,97.51 333.86,90.50 347.25,91.48Z" fill="#ffffff" stroke="#000000"/>
    <path d="M-470.88,-242.86L-472.83,-221.64L-436.49,-218.31L-436.78,-215.16C-438.48,-196.68 -453.38,-188.94 -472.07,-190.65C-497.90,-193.02 -509.61,-210.83 -506.72,-242.33C-503.92,-272.79 -487.64,-288.66 -464.12,-286.50C-448.37,-285.05 -437.87,-277.10 -434.83,-261.78L-406.89,-270.87C-415.67,-295.18 -432.12,-307.49 -462.15,-310.25C-503.32,-314.03 -532.68,-289.40 -536.77,-244.88C-540.92,-199.73 -517.69,-171.33 -479.46,-167.82C-459.93,-166.03 -445.22,-171.67 -436.28,-183.77L-436.64,-166.01L-416.26,-164.14L-409.56,-237.23ZM-387.28,-161.48L-358.51,-158.84L-353.52,-213.23C-351.78,-232.13 -338.14,-239.99 -325.33,-238.81C-318.82,-238.21 -315.31,-237.26 -312.46,-235.94L-306.89,-259.78C-309.27,-261.48 -313.39,-262.71 -318.02,-263.13C-334.40,-264.64 -345.86,-257.43 -352.65,-243.44L-352.65,-264.19L-377.64,-266.49ZM-201.06,-162.17C-206.10,-162.64 -208.39,-165.39 -207.89,-170.85L-203.97,-213.48C-201.60,-239.31 -218.89,-254.03 -246.40,-256.56C-273.70,-259.06 -290.78,-248.35 -297.31,-230.31L-273.43,-220.49C-268.72,-232.56 -259.88,-236.62 -249.59,-235.67C-238.46,-234.65 -231.55,-226.82 -232.65,-214.84L-233.02,-210.85L-269.81,-206.82C-289.06,-204.77 -300.28,-195.64 -301.71,-180.10C-303.40,-161.62 -291.08,-150.53 -269.66,-148.56C-256.42,-147.35 -242.48,-151.58 -234.87,-160.62C-232.63,-150.46 -223.41,-144.74 -211.46,-143.43C-205.79,-142.91 -201.07,-143.54 -197.56,-144.91L-194.24,-162.61C-196.19,-162.15 -198.75,-161.96 -201.06,-162.17ZM-260.43,-168.26C-267.79,-168.93 -273.32,-173.26 -272.68,-180.19C-272.01,-187.54 -266.95,-189.61 -257.11,-190.62L-234.66,-193.00L-235.25,-186.49C-236.66,-171.16 -248.46,-167.16 -260.43,-168.26ZM-136.29,-136.32C-106.26,-133.56 -88.32,-146.74 -86.47,-166.90C-85.18,-180.97 -92.42,-192.02 -112.83,-198.13L-133.85,-204.50C-143.95,-207.55 -147.00,-211.22 -146.59,-215.63C-146.00,-222.14 -139.14,-225.32 -127.17,-224.22C-116.25,-223.22 -106.25,-216.79 -100.83,-206.56L-82.07,-221.78C-89.92,-235.42 -105.06,-243.58 -126.06,-245.51C-156.72,-248.33 -173.75,-233.58 -175.31,-216.57C-176.79,-200.40 -168.48,-189.47 -144.58,-182.19L-126.44,-176.72C-117.38,-173.98 -115.38,-170.40 -115.78,-165.99C-116.42,-159.06 -123.85,-156.57 -134.77,-157.57C-150.10,-158.98 -160.78,-167.16 -166.58,-177.86L-184.71,-162.58C-175.06,-147.72 -157.51,-138.27 -136.29,-136.32ZM5.41,-233.44C-11.18,-234.96 -24.61,-227.09 -31.74,-213.98L-31.11,-234.68L-56.95,-237.05L-70.63,-87.94L-41.86,-85.29L-36.16,-147.46C-31.37,-134.95 -20.79,-125.72 -5.24,-124.29C20.59,-121.92 41.78,-140.52 44.94,-174.96C48.08,-209.19 31.03,-231.09 5.41,-233.44ZM-11.62,-147.11C-26.53,-148.48 -34.85,-161.74 -32.99,-181.90C-31.10,-202.48 -20.14,-213.55 -5.22,-212.18C10.11,-210.77 18.10,-198.60 16.15,-177.39C14.20,-156.18 3.71,-145.71 -11.62,-147.11ZM199.76,-133.43C195.00,-130.05 189.98,-128.40 182.84,-129.05C173.81,-129.88 168.75,-134.79 169.67,-144.87L174.21,-194.23L207.81,-191.14L209.77,-212.56L176.17,-215.65L179.12,-247.78L149.62,-242.44L147.40,-218.29L128.08,-220.06L126.11,-198.64L145.43,-196.87L140.48,-142.89C138.36,-119.79 152.06,-109.85 173.27,-107.90C184.40,-106.88 195.19,-109.07 202.62,-113.89ZM219.67,-105.76L248.44,-103.12L253.53,-158.57C255.46,-179.57 268.16,-186.45 280.34,-185.33C291.26,-184.33 298.49,-177.73 296.83,-159.67L291.28,-99.19L320.05,-96.55L326.38,-165.43C328.71,-190.84 313.93,-205.12 292.08,-207.13C277.17,-208.49 264.39,-203.10 256.44,-190.28L262.30,-254.12L233.53,-256.76ZM452.25,-143.08C454.83,-171.22 438.47,-193.69 406.75,-196.60C375.46,-199.47 351.77,-181.32 348.61,-146.87C345.44,-112.43 365.02,-90.30 398.20,-87.26C419.62,-85.29 438.76,-93.06 447.00,-109.04L424.92,-119.96C419.95,-111.94 412.35,-107.56 399.95,-108.70C385.46,-110.03 376.73,-118.66 375.92,-135.26L450.06,-128.45C450.82,-132.19 451.72,-137.41 452.25,-143.08ZM404.60,-175.41C417.62,-174.21 424.87,-165.50 425.01,-150.87L377.96,-155.19C382.06,-169.85 391.37,-176.62 404.60,-175.41ZM-412.72,-22.76L-441.71,-25.43L-454.43,113.19L-425.45,115.85ZM-319.85,17.53C-336.02,16.04 -349.70,21.99 -357.56,36.09L-356.79,16.26L-382.63,13.88L-392.26,118.89L-363.49,121.53L-358.38,65.88C-356.46,44.88 -343.77,38.21 -331.80,39.30C-320.88,40.31 -313.44,46.92 -315.08,64.77L-320.65,125.47L-291.88,128.11L-285.55,59.22C-283.22,33.81 -298.01,19.53 -319.85,17.53ZM-183.74,32.14L-217.82,112.67L-236.03,27.34L-266.91,24.51L-236.64,133.18L-203.46,136.22L-153.92,34.88ZM-122.08,22.55C-110.11,23.65 -103.76,19.15 -102.82,8.86C-101.87,-1.43 -107.27,-7.22 -119.24,-8.32C-131.21,-9.42 -137.58,-4.71 -138.52,5.58C-139.46,15.87 -134.05,21.45 -122.08,22.55ZM-109.18,38.99L-137.96,36.34L-147.60,141.35L-118.82,143.99ZM-46.56,152.75C-16.53,155.50 1.41,142.32 3.26,122.16C4.56,108.09 -2.69,97.05 -23.10,90.94L-44.11,84.56C-54.21,81.52 -57.26,77.85 -56.86,73.44C-56.26,66.93 -49.40,63.75 -37.43,64.85C-26.51,65.85 -16.51,72.27 -11.10,82.51L7.67,67.29C-0.19,53.65 -15.32,45.48 -36.32,43.56C-66.99,40.74 -84.01,55.49 -85.57,72.50C-87.06,88.67 -78.74,99.60 -54.84,106.87L-36.71,112.35C-27.64,115.09 -25.64,118.66 -26.05,123.07C-26.68,130.00 -34.11,132.50 -45.03,131.50C-60.36,130.09 -71.05,121.91 -76.84,111.21L-94.98,126.49C-85.33,141.35 -67.77,150.80 -46.56,152.75ZM48.67,38.23C60.64,39.33 66.98,34.83 67.93,24.54C68.87,14.24 63.47,8.45 51.50,7.36C39.53,6.26 33.17,10.97 32.22,21.26C31.28,31.55 36.70,37.13 48.67,38.23ZM61.56,54.66L32.79,52.02L23.15,157.03L51.92,159.67ZM154.79,61.10C138.62,59.62 126.11,66.73 119.13,78.16L125.01,14.10L96.24,11.46L82.37,162.46L107.79,164.80L110.84,143.05C115.41,157.87 127.12,168.69 143.93,170.23C169.76,172.60 190.72,154.20 193.86,119.96C197.02,85.52 179.78,63.39 154.79,61.10ZM137.34,147.39C122.64,146.04 114.06,133.39 115.95,112.81C117.78,92.86 128.61,80.93 143.53,82.30C159.07,83.73 167.06,95.90 165.11,117.11C163.16,138.32 152.88,148.82 137.34,147.39ZM256.27,26.15L227.50,23.51L216.31,145.32C214.31,167.16 222.47,177.44 242.84,179.31C249.77,179.95 257.91,179.00 262.78,176.70L267.04,158.02C262.26,159.28 259.91,159.49 255.08,159.05C247.31,158.33 244.49,154.47 245.38,144.81ZM383.63,131.45C386.21,103.31 369.85,80.84 338.14,77.93C306.84,75.06 283.15,93.22 279.99,127.66C276.83,162.10 296.40,184.23 329.58,187.27C351.00,189.24 370.14,181.47 378.39,165.49L356.30,154.57C351.33,162.59 343.73,166.97 331.34,165.83C316.85,164.50 308.11,155.87 307.30,139.27L381.44,146.08C382.21,142.34 383.11,137.12 383.63,131.45ZM335.98,99.12C349.00,100.32 356.25,109.03 356.39,123.66L309.34,119.34C313.44,104.68 322.75,97.91 335.98,99.12Z" fill="#ffffff" stroke="#000000"/>
    <path d="M-467.36,-246.60L-469.67,-225.65L-433.79,-221.70L-434.13,-218.58C-436.14,-200.33 -451.03,-192.95 -469.49,-194.98C-495.00,-197.80 -506.26,-215.62 -502.83,-246.74C-499.51,-276.81 -483.11,-292.22 -459.88,-289.66C-444.33,-287.94 -434.09,-279.88 -431.36,-264.68L-403.55,-273.16C-411.80,-297.37 -427.84,-309.85 -457.51,-313.12C-498.16,-317.60 -527.66,-293.77 -532.51,-249.80C-537.43,-205.20 -514.96,-176.69 -477.21,-172.53C-457.92,-170.40 -443.27,-175.71 -434.20,-187.52L-434.88,-169.96L-414.76,-167.74L-406.79,-239.92ZM-386.13,-164.58L-357.71,-161.45L-351.79,-215.17C-349.73,-233.84 -336.09,-241.36 -323.44,-239.97C-317.01,-239.26 -313.55,-238.25 -310.76,-236.89L-304.81,-260.38C-307.14,-262.10 -311.20,-263.39 -315.76,-263.89C-331.94,-265.68 -343.41,-258.76 -350.38,-245.04L-350.01,-265.57L-374.69,-268.29ZM-201.89,-161.90C-206.86,-162.45 -209.08,-165.21 -208.48,-170.60L-203.84,-212.71C-201.03,-238.22 -217.86,-253.10 -245.03,-256.09C-272.00,-259.07 -289.09,-248.78 -295.87,-231.05L-272.43,-220.90C-267.55,-232.75 -258.73,-236.61 -248.56,-235.49C-237.57,-234.28 -230.88,-226.40 -232.19,-214.58L-232.62,-210.64L-269.10,-207.31C-288.18,-205.64 -299.44,-196.80 -301.13,-181.45C-303.15,-163.20 -291.15,-152.01 -270.00,-149.67C-256.93,-148.23 -243.06,-152.16 -235.37,-160.97C-233.33,-150.88 -224.32,-145.06 -212.52,-143.55C-206.92,-142.93 -202.24,-143.46 -198.74,-144.75L-195.13,-162.20C-197.07,-161.79 -199.60,-161.65 -201.89,-161.90ZM-260.52,-168.99C-267.78,-169.79 -273.17,-174.17 -272.42,-181.01C-271.62,-188.27 -266.57,-190.24 -256.82,-191.05L-234.57,-193.00L-235.27,-186.57C-236.94,-171.43 -248.69,-167.69 -260.52,-168.99ZM-138.28,-135.15C-108.62,-131.88 -90.63,-144.59 -88.44,-164.50C-86.91,-178.40 -93.87,-189.45 -113.95,-195.87L-134.63,-202.56C-144.56,-205.75 -147.52,-209.44 -147.03,-213.79C-146.33,-220.22 -139.48,-223.25 -127.66,-221.94C-116.87,-220.75 -107.10,-214.22 -101.93,-203.99L-83.09,-218.71C-90.61,-232.34 -105.44,-240.70 -126.18,-242.98C-156.46,-246.32 -173.57,-232.05 -175.43,-215.24C-177.19,-199.27 -169.16,-188.31 -145.65,-180.68L-127.81,-174.93C-118.89,-172.06 -116.97,-168.49 -117.45,-164.13C-118.21,-157.29 -125.60,-154.95 -136.39,-156.14C-151.53,-157.81 -161.95,-166.10 -167.49,-176.79L-185.71,-162.00C-176.43,-147.12 -159.23,-137.46 -138.28,-135.15ZM3.67,-228.66C-12.72,-230.47 -26.15,-222.92 -33.44,-210.08L-32.45,-230.55L-57.96,-233.36L-74.20,-86.09L-45.79,-82.96L-39.01,-144.35C-34.51,-131.89 -24.20,-122.57 -8.85,-120.87C16.66,-118.06 37.96,-136.07 41.72,-170.09C45.44,-203.90 28.97,-225.87 3.67,-228.66ZM-14.75,-143.57C-29.47,-145.19 -37.46,-158.46 -35.26,-178.37C-33.02,-198.70 -21.97,-209.45 -7.24,-207.82C7.90,-206.15 15.59,-193.97 13.28,-173.02C10.96,-152.07 0.40,-141.90 -14.75,-143.57ZM194.12,-126.20C189.36,-122.94 184.36,-121.40 177.30,-122.17C168.38,-123.16 163.47,-128.11 164.57,-138.07L169.95,-186.81L203.13,-183.15L205.47,-204.31L172.28,-207.97L175.78,-239.70L146.49,-234.95L143.86,-211.10L124.78,-213.21L122.45,-192.05L141.53,-189.94L135.65,-136.64C133.13,-113.82 146.51,-103.74 167.46,-101.43C178.45,-100.21 189.16,-102.18 196.60,-106.82ZM213.32,-98.47L241.74,-95.33L247.78,-150.09C250.06,-170.83 262.76,-177.41 274.79,-176.09C285.57,-174.90 292.61,-168.24 290.64,-150.40L284.05,-90.67L312.47,-87.53L319.97,-155.57C322.74,-180.66 308.37,-195.06 286.80,-197.44C272.07,-199.06 259.33,-193.96 251.23,-181.41L258.18,-244.47L229.77,-247.60ZM444.09,-131.17C447.15,-158.96 431.37,-181.49 400.05,-184.94C369.14,-188.35 345.38,-170.82 341.62,-136.80C337.87,-102.79 356.83,-80.54 389.61,-76.92C410.76,-74.59 429.84,-81.93 438.28,-97.59L416.64,-108.79C411.57,-100.96 403.97,-96.75 391.73,-98.10C377.42,-99.68 368.93,-108.39 368.44,-124.82L441.66,-116.74C442.48,-120.43 443.47,-125.57 444.09,-131.17ZM397.53,-164.02C410.39,-162.60 417.41,-153.85 417.28,-139.38L370.82,-144.50C375.14,-158.93 384.46,-165.46 397.53,-164.02ZM-413.81,-27.81L-442.44,-30.97L-457.54,105.93L-428.91,109.09ZM-322.66,13.73C-338.63,11.97 -352.27,17.60 -360.30,31.42L-359.19,11.80L-384.70,8.99L-396.14,112.70L-367.72,115.83L-361.66,60.87C-359.37,40.13 -346.70,33.75 -334.88,35.06C-324.09,36.25 -316.85,42.93 -318.80,60.56L-325.41,120.50L-296.99,123.64L-289.49,55.60C-286.72,30.50 -301.09,16.11 -322.66,13.73ZM-188.27,30.65L-223.44,109.70L-239.92,24.96L-270.41,21.59L-242.44,129.65L-209.67,133.27L-158.82,33.90ZM-127.09,22.29C-115.27,23.59 -108.91,19.25 -107.79,9.09C-106.67,-1.08 -111.91,-6.90 -123.73,-8.21C-135.55,-9.51 -141.93,-4.96 -143.06,5.20C-144.18,15.36 -138.92,20.98 -127.09,22.29ZM-114.64,38.78L-143.05,35.64L-154.49,139.35L-126.08,142.49ZM-54.74,152.45C-25.08,155.73 -7.09,143.01 -4.90,123.10C-3.37,109.20 -10.33,98.15 -30.41,91.73L-51.09,85.04C-61.02,81.85 -63.98,78.16 -63.50,73.81C-62.79,67.38 -55.94,64.35 -44.12,65.66C-33.34,66.85 -23.56,73.38 -18.39,83.61L0.45,68.89C-7.07,55.26 -21.90,46.90 -42.64,44.62C-72.92,41.28 -90.03,55.56 -91.89,72.36C-93.65,88.33 -85.62,99.29 -62.11,106.92L-44.27,112.67C-35.35,115.54 -33.43,119.11 -33.91,123.47C-34.67,130.31 -42.06,132.65 -52.85,131.46C-67.99,129.79 -78.41,121.50 -83.95,110.81L-102.17,125.60C-92.89,140.48 -75.69,150.14 -54.74,152.45ZM41.54,40.89C53.36,42.19 59.72,37.85 60.84,27.69C61.96,17.52 56.73,11.70 44.90,10.39C33.08,9.09 26.70,13.64 25.58,23.80C24.46,33.96 29.72,39.58 41.54,40.89ZM54.00,57.38L25.58,54.24L14.14,157.95L42.56,161.09ZM146.11,65.44C130.14,63.67 117.63,70.48 110.52,81.66L117.50,18.40L89.08,15.27L72.63,164.40L97.73,167.17L101.15,145.71C105.40,160.46 116.79,171.37 133.39,173.20C158.90,176.02 179.97,158.19 183.70,124.38C187.45,90.36 170.80,68.16 146.11,65.44ZM127.29,150.49C112.77,148.88 104.51,136.22 106.75,115.89C108.92,96.18 119.86,84.58 134.59,86.21C149.93,87.90 157.62,100.09 155.31,121.04C153.00,141.99 142.64,152.18 127.29,150.49ZM247.14,32.70L218.72,29.57L205.45,149.87C203.07,171.44 210.96,181.76 231.08,183.98C237.93,184.73 245.99,183.94 250.85,181.75L255.40,163.36C250.66,164.51 248.33,164.68 243.56,164.15C235.88,163.30 233.16,159.43 234.21,149.89ZM371.23,139.18C374.30,111.39 358.51,88.86 327.19,85.41C296.29,82.00 272.52,99.53 268.77,133.55C265.02,167.57 283.98,189.81 316.75,193.43C337.91,195.76 356.98,188.42 365.43,172.76L343.78,161.56C338.71,169.40 331.11,173.60 318.88,172.25C304.56,170.67 296.08,161.96 295.58,145.53L368.80,153.61C369.63,149.92 370.61,144.78 371.23,139.18ZM324.68,106.33C337.54,107.75 344.55,116.50 344.42,130.98L297.96,125.85C302.28,111.42 311.61,104.89 324.68,106.33Z" fill="#ffffff" stroke="#000000"/>
    <path d="M-463.74,-250.35L-466.40,-229.67L-430.98,-225.10L-431.37,-222.03C-433.69,-204.01 -448.55,-196.98 -466.77,-199.32C-491.96,-202.57 -502.77,-220.41 -498.82,-251.12C-494.99,-280.82 -478.49,-295.76 -455.56,-292.80C-440.20,-290.82 -430.22,-282.67 -427.79,-267.58L-400.13,-275.46C-407.85,-299.56 -423.50,-312.20 -452.78,-315.97C-492.92,-321.14 -522.53,-298.10 -528.12,-254.69C-533.80,-210.67 -512.09,-182.06 -474.82,-177.26C-455.78,-174.80 -441.19,-179.79 -432.00,-191.30L-432.99,-173.95L-413.13,-171.39L-403.94,-242.65ZM-384.87,-167.75L-356.82,-164.13L-349.98,-217.16C-347.61,-235.59 -333.98,-242.79 -321.49,-241.18C-315.14,-240.36 -311.74,-239.30 -309.01,-237.91L-302.70,-261.03C-304.97,-262.78 -308.96,-264.13 -313.46,-264.71C-329.43,-266.77 -340.91,-260.13 -348.05,-246.68L-347.31,-266.99L-371.68,-270.13ZM-202.66,-161.75C-207.58,-162.38 -209.72,-165.16 -209.03,-170.48L-203.68,-212.05C-200.43,-237.24 -216.81,-252.25 -243.64,-255.71C-270.26,-259.14 -287.35,-249.27 -294.38,-231.86L-271.37,-221.40C-266.34,-233.03 -257.54,-236.69 -247.50,-235.39C-236.65,-233.99 -230.18,-226.08 -231.68,-214.41L-232.18,-210.52L-268.33,-207.89C-287.23,-206.58 -298.53,-198.04 -300.48,-182.89C-302.81,-164.87 -291.15,-153.59 -270.26,-150.89C-257.36,-149.23 -243.57,-152.87 -235.80,-161.44C-233.97,-151.42 -225.16,-145.50 -213.51,-143.79C-207.98,-143.08 -203.35,-143.52 -199.86,-144.74L-195.98,-161.93C-197.90,-161.55 -200.41,-161.46 -202.66,-161.75ZM-260.53,-169.83C-267.70,-170.76 -272.96,-175.18 -272.09,-181.94C-271.16,-189.11 -266.14,-190.96 -256.48,-191.58L-234.43,-193.11L-235.24,-186.77C-237.17,-171.82 -248.86,-168.33 -260.53,-169.83ZM-140.23,-134.14C-110.95,-130.36 -92.93,-142.61 -90.39,-162.27C-88.63,-175.99 -95.32,-187.05 -115.06,-193.76L-135.39,-200.75C-145.16,-204.09 -148.02,-207.79 -147.46,-212.09C-146.65,-218.44 -139.82,-221.31 -128.15,-219.80C-117.50,-218.43 -107.95,-211.79 -103.02,-201.58L-84.12,-215.79C-91.32,-229.42 -105.83,-237.95 -126.31,-240.59C-156.20,-244.44 -173.39,-230.63 -175.52,-214.04C-177.56,-198.28 -169.81,-187.29 -146.69,-179.31L-129.15,-173.30C-120.38,-170.30 -118.55,-166.73 -119.10,-162.43C-119.97,-155.67 -127.33,-153.50 -137.98,-154.87C-152.92,-156.80 -163.08,-165.19 -168.37,-175.86L-186.66,-161.56C-177.75,-146.68 -160.91,-136.80 -140.23,-134.14ZM1.88,-224.07C-14.30,-226.16 -27.72,-218.94 -35.17,-206.36L-33.81,-226.59L-59.00,-229.84L-77.73,-84.45L-49.68,-80.84L-41.87,-141.45C-37.64,-129.04 -27.61,-119.63 -12.46,-117.67C12.73,-114.43 34.13,-131.86 38.45,-165.44C42.76,-198.82 26.86,-220.85 1.88,-224.07ZM-17.88,-140.23C-32.42,-142.10 -40.07,-155.37 -37.54,-175.03C-34.95,-195.10 -23.83,-205.53 -9.29,-203.65C5.66,-201.73 13.04,-189.54 10.37,-168.85C7.71,-148.17 -2.93,-138.30 -17.88,-140.23ZM188.42,-119.26C183.65,-116.13 178.67,-114.69 171.71,-115.59C162.90,-116.72 158.14,-121.71 159.40,-131.54L165.60,-179.66L198.37,-175.44L201.06,-196.32L168.29,-200.55L172.33,-231.87L143.28,-227.71L140.24,-204.16L121.40,-206.59L118.71,-185.70L137.55,-183.27L130.77,-130.65C127.87,-108.12 140.91,-97.91 161.59,-95.24C172.45,-93.84 183.08,-95.60 190.52,-100.05ZM206.91,-91.49L234.96,-87.87L241.93,-141.93C244.56,-162.41 257.24,-168.68 269.12,-167.15C279.76,-165.78 286.60,-159.07 284.33,-141.46L276.73,-82.49L304.79,-78.87L313.44,-146.04C316.63,-170.81 302.68,-185.31 281.38,-188.05C266.85,-189.93 254.15,-185.11 245.91,-172.85L253.93,-235.10L225.88,-238.71ZM435.77,-119.66C439.31,-147.09 424.11,-169.66 393.19,-173.65C362.68,-177.58 338.85,-160.66 334.52,-127.08C330.19,-93.50 348.55,-71.15 380.90,-66.98C401.79,-64.29 420.79,-71.21 429.42,-86.54L408.21,-98.02C403.06,-90.36 395.47,-86.34 383.39,-87.90C369.26,-89.72 361.02,-98.48 360.82,-114.74L433.11,-105.43C433.99,-109.06 435.06,-114.13 435.77,-119.66ZM390.32,-152.99C403.01,-151.36 409.79,-142.57 409.40,-128.26L363.54,-134.17C368.07,-148.36 377.42,-154.65 390.32,-152.99ZM-414.73,-32.95L-442.99,-36.60L-460.40,98.55L-432.14,102.19ZM-325.31,9.79C-341.08,7.76 -354.67,13.09 -362.87,26.60L-361.41,7.22L-386.60,3.98L-399.79,106.36L-371.74,109.98L-364.75,55.71C-362.11,35.24 -349.46,29.16 -337.79,30.67C-327.14,32.04 -320.10,38.78 -322.34,56.18L-329.97,115.36L-301.91,118.97L-293.26,51.81C-290.07,27.03 -304.02,12.54 -325.31,9.79ZM-192.68,28.97L-228.91,106.53L-243.67,22.40L-273.77,18.52L-248.06,125.91L-215.71,130.08L-163.61,32.71ZM-132.02,21.80C-120.34,23.30 -113.98,19.13 -112.68,9.09C-111.39,-0.94 -116.47,-6.80 -128.14,-8.30C-139.81,-9.81 -146.20,-5.43 -147.49,4.61C-148.79,14.64 -143.69,20.29 -132.02,21.80ZM-119.99,38.33L-148.04,34.72L-161.24,137.10L-133.19,140.72ZM-62.80,151.87C-33.52,155.64 -15.50,143.39 -12.97,123.74C-11.20,110.02 -17.89,98.95 -37.64,92.25L-57.97,85.25C-67.74,81.91 -70.59,78.22 -70.04,73.92C-69.22,67.57 -62.40,64.70 -50.72,66.20C-40.08,67.58 -30.52,74.22 -25.60,84.43L-6.69,70.21C-13.89,56.59 -28.40,48.06 -48.88,45.42C-78.77,41.56 -95.96,55.38 -98.10,71.96C-100.13,87.73 -92.39,98.72 -69.27,106.70L-51.72,112.70C-42.95,115.71 -41.12,119.28 -41.67,123.58C-42.54,130.33 -49.90,132.51 -60.55,131.13C-75.50,129.21 -85.66,120.82 -90.94,110.15L-109.23,124.45C-100.32,139.33 -83.49,149.20 -62.80,151.87ZM34.46,43.25C46.13,44.75 52.50,40.58 53.79,30.54C55.08,20.51 50.01,14.65 38.34,13.15C26.67,11.64 20.27,16.03 18.98,26.06C17.69,36.09 22.79,41.75 34.46,43.25ZM46.48,59.79L18.43,56.17L5.24,158.56L33.29,162.17ZM137.46,69.43C121.69,67.40 109.20,73.91 101.96,84.84L110.01,22.38L81.95,18.77L62.98,166.00L87.76,169.19L91.53,148.03C95.47,162.69 106.54,173.69 122.92,175.80C148.11,179.05 169.27,161.79 173.57,128.41C177.90,94.83 161.83,72.57 137.46,69.43ZM117.29,153.22C102.96,151.37 95.02,138.69 97.60,118.62C100.11,99.17 111.14,87.90 125.68,89.77C140.83,91.72 148.21,103.91 145.55,124.59C142.88,145.28 132.45,155.17 117.29,153.22ZM237.99,38.88L209.93,35.26L194.63,154.03C191.88,175.32 199.50,185.67 219.36,188.23C226.12,189.10 234.11,188.47 238.96,186.38L243.79,168.27C239.08,169.33 236.77,169.45 232.06,168.84C224.49,167.87 221.86,163.99 223.08,154.57ZM358.81,146.46C362.34,119.02 347.14,96.45 316.22,92.47C285.71,88.53 261.88,105.45 257.55,139.03C253.23,172.61 271.58,194.96 303.93,199.13C324.82,201.82 343.82,194.90 352.46,179.57L331.25,168.09C326.10,175.76 318.50,179.77 306.42,178.22C292.29,176.40 284.05,167.63 283.86,151.37L356.14,160.68C357.03,157.05 358.09,151.98 358.81,146.46ZM313.35,113.12C326.05,114.76 332.82,123.54 332.44,137.85L286.57,131.94C291.11,117.75 300.45,111.46 313.35,113.12Z" fill="#ffffff" stroke="#000000"/>
    <path d="M-460.00,-254.09L-463.01,-233.68L-428.06,-228.53L-428.51,-225.50C-431.13,-207.72 -445.95,-201.02 -463.93,-203.68C-488.78,-207.34 -499.16,-225.18 -494.69,-255.49C-490.36,-284.79 -473.78,-299.27 -451.15,-295.93C-435.99,-293.70 -426.27,-285.45 -424.14,-270.48L-396.64,-277.78C-403.84,-301.75 -419.09,-314.53 -447.98,-318.79C-487.58,-324.64 -517.29,-302.39 -523.61,-259.55C-530.02,-216.11 -509.06,-187.42 -472.29,-181.99C-453.50,-179.22 -438.98,-183.89 -429.68,-195.12L-430.98,-177.96L-411.38,-175.07L-401.00,-245.39ZM-383.49,-170.96L-355.81,-166.88L-348.09,-219.21C-345.41,-237.39 -331.80,-244.26 -319.48,-242.44C-313.21,-241.52 -309.87,-240.41 -307.19,-238.98L-300.53,-261.74C-302.74,-263.51 -306.66,-264.91 -311.11,-265.57C-326.87,-267.90 -338.34,-261.54 -345.65,-248.37L-344.54,-268.44L-368.59,-271.99ZM-203.38,-161.73C-208.23,-162.45 -210.30,-165.23 -209.53,-170.48L-203.47,-211.50C-199.81,-236.35 -215.74,-251.50 -242.21,-255.41C-268.48,-259.28 -285.56,-249.83 -292.83,-232.73L-270.26,-221.97C-265.07,-233.39 -256.30,-236.84 -246.40,-235.38C-235.69,-233.80 -229.43,-225.86 -231.13,-214.34L-231.70,-210.50L-267.50,-208.56C-286.22,-207.60 -297.55,-199.36 -299.75,-184.41C-302.38,-166.63 -291.05,-155.26 -270.44,-152.22C-257.71,-150.34 -244.00,-153.68 -236.17,-162.02C-234.54,-152.08 -225.93,-146.06 -214.44,-144.16C-208.99,-143.36 -204.39,-143.71 -200.92,-144.85L-196.77,-161.79C-198.68,-161.45 -201.16,-161.40 -203.38,-161.73ZM-260.48,-170.77C-267.55,-171.82 -272.67,-176.29 -271.69,-182.95C-270.64,-190.03 -265.64,-191.77 -256.07,-192.21L-234.23,-193.33L-235.16,-187.06C-237.33,-172.31 -248.96,-169.07 -260.48,-170.77ZM-142.14,-133.29C-113.24,-129.03 -95.19,-140.81 -92.33,-160.21C-90.33,-173.75 -96.75,-184.81 -116.16,-191.80L-136.14,-199.09C-145.75,-202.57 -148.50,-206.28 -147.88,-210.52C-146.95,-216.79 -140.15,-219.50 -128.64,-217.80C-118.13,-216.25 -108.80,-209.51 -104.11,-199.32L-85.16,-213.04C-92.03,-226.64 -106.23,-235.35 -126.43,-238.33C-155.93,-242.68 -173.18,-229.33 -175.59,-212.96C-177.89,-197.40 -170.43,-186.39 -147.71,-178.08L-130.46,-171.82C-121.84,-168.69 -120.10,-165.13 -120.72,-160.89C-121.71,-154.22 -129.02,-152.21 -139.53,-153.76C-154.28,-155.93 -164.18,-164.41 -169.21,-175.06L-187.56,-161.25C-179.02,-146.37 -162.54,-136.30 -142.14,-133.29ZM0.05,-219.67C-15.91,-222.02 -29.32,-215.12 -36.91,-202.82L-35.20,-222.80L-60.05,-226.47L-81.22,-83.01L-53.54,-78.93L-44.71,-138.74C-40.75,-126.38 -31.01,-116.89 -16.05,-114.69C8.80,-111.02 30.28,-127.88 35.17,-161.02C40.03,-193.95 24.70,-216.03 0.05,-219.67ZM-21.01,-137.10C-35.35,-139.21 -42.69,-152.48 -39.82,-171.87C-36.90,-191.67 -25.71,-201.79 -11.36,-199.67C3.39,-197.50 10.47,-185.30 7.46,-164.90C4.45,-144.49 -6.26,-134.92 -21.01,-137.10ZM182.66,-112.63C177.88,-109.61 172.93,-108.28 166.06,-109.29C157.38,-110.57 152.75,-115.59 154.18,-125.29L161.18,-172.77L193.51,-168.00L196.55,-188.61L164.23,-193.38L168.79,-224.30L139.97,-220.70L136.54,-197.47L117.95,-200.21L114.91,-179.60L133.50,-176.86L125.84,-124.93C122.56,-102.70 135.28,-92.36 155.69,-89.35C166.40,-87.77 176.95,-89.31 184.39,-93.58ZM200.44,-84.82L228.12,-80.73L235.99,-134.07C238.97,-154.28 251.62,-160.26 263.34,-158.53C273.85,-156.98 280.49,-150.22 277.93,-132.84L269.34,-74.65L297.02,-70.57L306.80,-136.84C310.41,-161.29 296.87,-175.88 275.85,-178.98C261.51,-181.10 248.87,-176.56 240.49,-164.58L249.55,-226.01L221.87,-230.09ZM427.32,-108.53C431.31,-135.61 416.69,-158.20 386.18,-162.70C356.07,-167.15 332.19,-150.85 327.31,-117.71C322.42,-84.58 340.17,-62.14 372.09,-57.43C392.70,-54.39 411.62,-60.89 420.44,-75.90L399.67,-87.63C394.43,-80.14 386.85,-76.31 374.93,-78.07C360.99,-80.12 353.00,-88.94 353.10,-105.03L424.42,-94.51C425.36,-98.08 426.51,-103.08 427.32,-108.53ZM382.96,-142.33C395.49,-140.48 402.04,-131.67 401.39,-117.52L356.13,-124.19C360.88,-138.15 370.23,-144.20 382.96,-142.33ZM-415.47,-38.18L-443.35,-42.29L-463.02,91.06L-435.14,95.18ZM-327.80,5.72C-343.36,3.43 -356.90,8.45 -365.25,21.67L-363.46,2.52L-388.31,-1.14L-403.22,99.88L-375.54,103.97L-367.64,50.42C-364.66,30.22 -352.04,24.44 -340.52,26.14C-330.01,27.69 -323.17,34.48 -325.70,51.66L-334.32,110.05L-306.64,114.13L-296.86,47.86C-293.25,23.41 -306.79,8.82 -327.80,5.72ZM-196.97,27.09L-234.20,103.14L-247.28,19.66L-276.98,15.28L-253.50,121.97L-221.57,126.68L-168.28,31.32ZM-136.83,21.09C-125.32,22.79 -118.94,18.78 -117.48,8.88C-116.02,-1.02 -120.93,-6.91 -132.45,-8.61C-143.97,-10.31 -150.37,-6.09 -151.83,3.81C-153.29,13.71 -148.35,19.39 -136.83,21.09ZM-125.24,37.67L-152.92,33.58L-167.82,134.61L-140.14,138.69ZM-70.73,151.00C-41.84,155.26 -23.79,143.47 -20.93,124.07C-18.93,110.54 -25.35,99.47 -44.76,92.48L-64.74,85.20C-74.34,81.72 -77.10,78.01 -76.47,73.76C-75.55,67.50 -68.75,64.79 -57.23,66.49C-46.73,68.04 -37.40,74.78 -32.71,84.97L-13.76,71.25C-20.63,57.64 -34.83,48.94 -55.03,45.96C-84.53,41.61 -101.78,54.96 -104.19,71.33C-106.49,86.89 -99.03,97.90 -76.31,106.20L-59.06,112.46C-50.44,115.59 -48.69,119.15 -49.32,123.40C-50.30,130.06 -57.62,132.08 -68.13,130.53C-82.88,128.36 -92.77,119.88 -97.81,109.22L-116.16,123.03C-107.62,137.92 -91.14,147.99 -70.73,151.00ZM27.44,45.33C38.95,47.03 45.33,43.01 46.79,33.11C48.25,23.21 43.33,17.32 31.82,15.62C20.30,13.93 13.90,18.14 12.44,28.04C10.98,37.94 15.92,43.63 27.44,45.33ZM39.03,61.90L11.35,57.82L-3.56,158.84L24.13,162.93ZM128.84,73.09C113.28,70.79 100.80,77.00 93.45,87.68L102.54,26.06L74.86,21.97L53.42,167.25L77.87,170.86L81.98,149.99C85.61,164.57 96.36,175.65 112.53,178.03C137.38,181.70 158.63,165.02 163.49,132.08C168.38,98.94 152.88,76.63 128.84,73.09ZM107.37,155.60C93.23,153.51 85.61,140.82 88.53,121.02C91.36,101.83 102.47,90.87 116.82,92.99C131.77,95.20 138.85,107.39 135.84,127.80C132.83,148.20 122.33,157.80 107.37,155.60ZM228.82,44.69L201.14,40.60L183.85,157.79C180.75,178.81 188.10,189.18 207.70,192.07C214.36,193.06 222.28,192.57 227.11,190.60L232.22,172.78C227.54,173.74 225.25,173.81 220.61,173.13C213.13,172.02 210.61,168.14 211.98,158.85ZM346.37,153.28C350.37,126.20 335.74,103.61 305.23,99.11C275.12,94.67 251.25,110.96 246.36,144.10C241.47,177.24 259.22,199.67 291.14,204.38C311.75,207.42 330.67,200.92 339.49,185.92L318.72,174.18C313.49,181.67 305.90,185.50 293.98,183.74C280.04,181.69 272.05,172.87 272.15,156.78L343.48,167.30C344.42,163.73 345.57,158.74 346.37,153.28ZM302.02,119.48C314.54,121.33 321.09,130.14 320.45,144.29L275.19,137.62C279.93,123.66 289.29,117.61 302.02,119.48Z" fill="#ffffff" stroke="#000000"/>
    <path d="M-456.16,-257.82L-459.51,-237.69L-425.03,-231.96L-425.53,-228.97C-428.44,-211.43 -443.22,-205.08 -460.96,-208.03C-485.47,-212.11 -495.41,-229.94 -490.43,-259.83C-485.63,-288.73 -468.96,-302.75 -446.64,-299.04C-431.70,-296.55 -422.23,-288.22 -420.40,-273.38L-393.06,-280.09C-399.75,-303.94 -414.60,-316.85 -443.10,-321.59C-482.16,-328.09 -511.94,-306.62 -518.97,-264.37C-526.09,-221.53 -505.89,-192.77 -469.62,-186.74C-451.08,-183.66 -436.64,-188.02 -427.24,-198.95L-428.83,-182.01L-409.50,-178.79L-397.97,-248.14ZM-382.00,-174.22L-354.70,-169.68L-346.11,-221.29C-343.13,-239.23 -329.55,-245.78 -317.39,-243.76C-311.22,-242.73 -307.93,-241.57 -305.30,-240.11L-298.30,-262.49C-300.46,-264.29 -304.32,-265.75 -308.70,-266.48C-324.25,-269.06 -335.70,-262.98 -343.17,-250.09L-341.72,-269.92L-365.43,-273.86ZM-204.05,-161.83C-208.83,-162.63 -210.82,-165.42 -209.96,-170.60L-203.23,-211.05C-199.16,-235.56 -214.64,-250.84 -240.75,-255.18C-266.65,-259.48 -283.72,-250.44 -291.22,-233.67L-269.10,-222.62C-263.75,-233.81 -255.02,-237.07 -245.26,-235.45C-234.69,-233.69 -228.65,-225.72 -230.53,-214.36L-231.16,-210.58L-266.60,-209.30C-285.13,-208.70 -296.49,-200.75 -298.94,-186.01C-301.86,-168.47 -290.86,-157.02 -270.53,-153.64C-257.98,-151.55 -244.36,-154.61 -236.46,-162.72C-235.03,-152.85 -226.62,-146.74 -215.30,-144.66C-209.92,-143.76 -205.37,-144.03 -201.91,-145.09L-197.50,-161.77C-199.40,-161.47 -201.85,-161.47 -204.05,-161.83ZM-260.34,-171.81C-267.32,-172.97 -272.30,-177.48 -271.21,-184.06C-270.05,-191.03 -265.07,-192.66 -255.60,-192.93L-233.98,-193.64L-235.01,-187.46C-237.43,-172.91 -248.98,-169.92 -260.34,-171.81ZM-143.99,-132.59C-115.49,-127.86 -97.43,-139.19 -94.25,-158.32C-92.03,-171.67 -98.17,-182.73 -117.24,-189.99L-136.87,-197.56C-146.30,-201.18 -148.96,-204.89 -148.27,-209.08C-147.24,-215.26 -140.47,-217.82 -129.11,-215.93C-118.74,-214.21 -109.64,-207.37 -105.19,-197.21L-86.19,-210.43C-92.74,-224.01 -106.63,-232.87 -126.56,-236.19C-155.65,-241.03 -172.95,-228.13 -175.63,-211.99C-178.19,-196.65 -171.01,-185.62 -148.69,-177.00L-131.75,-170.49C-123.28,-167.24 -121.61,-163.69 -122.31,-159.50C-123.40,-152.93 -130.68,-151.06 -141.04,-152.79C-155.59,-155.21 -165.22,-163.77 -170.01,-174.40L-188.40,-161.07C-180.23,-146.20 -164.11,-135.94 -143.99,-132.59ZM-1.80,-215.44C-17.55,-218.06 -30.93,-211.48 -38.66,-199.46L-36.61,-219.18L-61.12,-223.26L-84.65,-81.77L-57.35,-77.23L-47.54,-136.22C-43.85,-123.93 -34.38,-114.37 -19.63,-111.92C4.88,-107.84 26.43,-124.12 31.86,-156.80C37.26,-189.29 22.51,-211.40 -1.80,-215.44ZM-24.13,-134.17C-38.28,-136.52 -45.29,-149.77 -42.11,-168.90C-38.86,-188.43 -27.60,-198.23 -13.45,-195.88C1.09,-193.46 7.87,-181.27 4.53,-161.15C1.18,-141.02 -9.58,-131.75 -24.13,-134.17ZM176.85,-106.28C172.07,-103.39 167.15,-102.16 160.38,-103.28C151.81,-104.71 147.32,-109.75 148.91,-119.32L156.70,-166.15L188.59,-160.85L191.97,-181.18L160.08,-186.48L165.15,-216.97L136.59,-213.94L132.78,-191.02L114.44,-194.07L111.06,-173.74L129.40,-170.69L120.88,-119.47C117.24,-97.55 129.63,-87.10 149.76,-83.75C160.32,-81.99 170.78,-83.33 178.22,-87.41ZM193.93,-78.45L221.23,-73.91L229.98,-126.52C233.29,-146.45 245.91,-152.14 257.47,-150.21C267.83,-148.49 274.28,-141.68 271.43,-124.55L261.89,-67.15L289.19,-62.61L300.06,-127.98C304.07,-152.09 290.94,-166.77 270.22,-170.21C256.07,-172.56 243.48,-168.31 234.98,-156.61L245.06,-217.20L217.76,-221.74ZM418.73,-97.80C423.18,-124.50 409.12,-147.11 379.03,-152.12C349.33,-157.06 325.43,-141.37 319.99,-108.69C314.56,-76.01 331.70,-53.49 363.19,-48.26C383.52,-44.88 402.35,-50.96 411.34,-65.65L391.01,-77.63C385.70,-70.32 378.13,-66.66 366.37,-68.62C352.62,-70.91 344.88,-79.77 345.27,-95.68L415.62,-83.98C416.61,-87.50 417.84,-92.42 418.73,-97.80ZM375.48,-132.02C387.84,-129.97 394.15,-121.14 393.26,-107.16L348.62,-114.58C353.56,-128.30 362.93,-134.11 375.48,-132.02ZM-416.03,-43.48L-443.53,-48.06L-465.40,83.47L-437.90,88.04ZM-330.12,1.52C-345.47,-1.03 -358.95,3.69 -367.45,16.61L-365.33,-2.29L-389.84,-6.36L-406.41,93.28L-379.11,97.82L-370.33,45.01C-367.01,25.08 -354.43,19.59 -343.07,21.48C-332.71,23.21 -326.06,30.05 -328.88,46.99L-338.45,104.58L-311.15,109.12L-300.28,43.75C-296.27,19.64 -309.40,4.96 -330.12,1.52ZM-201.12,25.02L-239.32,99.56L-250.74,16.77L-280.04,11.90L-258.74,117.83L-227.25,123.07L-172.82,29.72ZM-141.54,20.18C-130.18,22.07 -123.80,18.21 -122.18,8.45C-120.56,-1.32 -125.31,-7.23 -136.67,-9.12C-148.03,-11.00 -154.44,-6.95 -156.06,2.82C-157.68,12.58 -152.90,18.29 -141.54,20.18ZM-130.37,36.78L-157.68,32.24L-174.24,131.88L-146.94,136.42ZM-78.52,149.85C-50.02,154.59 -31.96,143.26 -28.78,124.12C-26.56,110.77 -32.71,99.71 -51.77,92.45L-71.40,84.88C-80.84,81.27 -83.50,77.55 -82.80,73.36C-81.77,67.19 -75.00,64.63 -63.64,66.51C-53.28,68.24 -44.17,75.08 -39.72,85.24L-20.73,72.01C-27.28,58.43 -41.16,49.57 -61.09,46.25C-90.19,41.42 -107.48,54.31 -110.17,70.45C-112.72,85.80 -105.54,96.82 -83.22,105.45L-66.28,111.95C-57.81,115.20 -56.15,118.75 -56.84,122.94C-57.94,129.52 -65.21,131.38 -75.57,129.65C-90.12,127.24 -99.75,118.67 -104.54,108.04L-122.94,121.37C-114.76,136.25 -98.65,146.50 -78.52,149.85ZM20.48,47.12C31.84,49.01 38.21,45.15 39.84,35.39C41.46,25.62 36.71,19.71 25.35,17.83C13.99,15.94 7.58,19.99 5.96,29.76C4.34,39.52 9.12,45.23 20.48,47.12ZM31.64,63.72L4.34,59.18L-12.23,158.82L15.08,163.36ZM120.26,76.41C104.91,73.86 92.46,79.77 84.99,90.21L95.10,29.42L67.80,24.88L43.97,168.17L68.08,172.18L72.53,151.62C75.85,166.10 86.29,177.25 102.23,179.90C126.74,183.98 148.06,167.86 153.46,135.38C158.89,102.70 143.97,80.35 120.26,76.41ZM97.54,157.62C83.59,155.30 76.28,142.62 79.52,123.09C82.67,104.16 93.86,93.52 108.01,95.88C122.76,98.33 129.54,110.51 126.19,130.64C122.84,150.77 112.29,160.07 97.54,157.62ZM219.65,50.13L192.35,45.59L173.13,161.18C169.68,181.91 176.76,192.30 196.09,195.51C202.67,196.61 210.51,196.27 215.32,194.41L220.70,176.87C216.05,177.74 213.79,177.77 209.20,177.01C201.83,175.78 199.40,171.90 200.93,162.73ZM333.94,159.66C338.38,132.95 324.32,110.34 294.23,105.34C264.54,100.40 240.63,116.09 235.20,148.77C229.76,181.45 246.91,203.96 278.40,209.20C298.72,212.58 317.55,206.49 326.55,191.81L306.22,179.83C300.91,187.14 293.33,190.79 281.58,188.84C267.83,186.55 260.08,177.69 260.48,161.78L330.82,173.48C331.82,169.95 333.05,165.04 333.94,159.66ZM290.69,125.43C303.04,127.49 309.36,136.32 308.46,150.30L263.82,142.88C268.77,129.16 278.13,123.35 290.69,125.43Z" fill="#ffffff" stroke="#000000"/>
    <path d="M-452.20,-261.53L-455.88,-241.69L-421.89,-235.40L-422.44,-232.45C-425.64,-215.16 -440.36,-209.15 -457.85,-212.39C-482.01,-216.86 -491.52,-234.67 -486.06,-264.14C-480.79,-292.63 -464.05,-306.19 -442.05,-302.12C-427.31,-299.39 -418.10,-290.98 -416.56,-276.27L-389.41,-282.42C-395.59,-306.11 -410.04,-319.15 -438.13,-324.35C-476.64,-331.48 -506.48,-310.80 -514.19,-269.15C-522.01,-226.91 -502.55,-198.11 -466.80,-191.49C-448.53,-188.11 -434.16,-192.15 -424.68,-202.79L-426.55,-186.07L-407.50,-182.54L-394.84,-250.91ZM-380.38,-177.52L-353.47,-172.54L-344.05,-223.42C-340.77,-241.10 -327.23,-247.33 -315.24,-245.11C-309.15,-243.98 -305.92,-242.78 -303.35,-241.28L-296.03,-263.30C-298.13,-265.11 -301.91,-266.62 -306.23,-267.42C-321.56,-270.26 -333.00,-264.45 -340.61,-251.84L-338.82,-271.42L-362.20,-275.75ZM-204.64,-162.05C-209.36,-162.92 -211.28,-165.72 -210.33,-170.82L-202.95,-210.71C-198.47,-234.87 -213.51,-250.25 -239.24,-255.02C-264.78,-259.75 -281.82,-251.12 -289.54,-234.66L-267.87,-223.34C-262.38,-234.31 -253.68,-237.37 -244.06,-235.59C-233.65,-233.66 -227.81,-225.67 -229.88,-214.47L-230.57,-210.74L-265.64,-210.12C-283.97,-209.86 -295.35,-202.21 -298.04,-187.67C-301.24,-170.38 -290.57,-158.86 -270.53,-155.15C-258.16,-152.86 -244.64,-155.64 -236.68,-163.51C-235.44,-153.73 -227.24,-147.54 -216.08,-145.27C-210.77,-144.29 -206.27,-144.47 -202.84,-145.46L-198.17,-161.87C-200.05,-161.61 -202.48,-161.65 -204.64,-162.05ZM-260.13,-172.93C-267.01,-174.21 -271.85,-178.76 -270.65,-185.24C-269.38,-192.12 -264.42,-193.64 -255.06,-193.74L-233.67,-194.04L-234.79,-187.95C-237.45,-173.61 -248.93,-170.86 -260.13,-172.93ZM-145.78,-132.05C-117.69,-126.85 -99.62,-137.73 -96.13,-156.59C-93.69,-169.75 -99.57,-180.80 -118.29,-188.33L-137.57,-196.16C-146.83,-199.91 -149.39,-203.63 -148.63,-207.76C-147.50,-213.85 -140.76,-216.26 -129.56,-214.19C-119.34,-212.29 -110.46,-205.37 -106.24,-195.24L-87.22,-207.97C-93.45,-221.52 -107.02,-230.54 -126.67,-234.17C-155.35,-239.48 -172.69,-227.05 -175.64,-211.14C-178.44,-196.01 -171.54,-184.98 -149.62,-176.04L-132.99,-169.31C-124.67,-165.94 -123.09,-162.39 -123.86,-158.27C-125.06,-151.78 -132.28,-150.07 -142.50,-151.97C-156.84,-154.62 -166.21,-163.27 -170.75,-173.86L-189.19,-161.02C-181.37,-146.16 -165.62,-135.72 -145.78,-132.05ZM-3.69,-211.40C-19.21,-214.28 -32.56,-208.01 -40.42,-196.26L-38.04,-215.73L-62.20,-220.20L-88.03,-80.72L-61.11,-75.73L-50.35,-133.89C-46.92,-121.67 -37.73,-112.04 -23.19,-109.35C0.97,-104.88 22.58,-120.59 28.54,-152.81C34.47,-184.83 20.28,-206.96 -3.69,-211.40ZM-27.23,-131.44C-41.18,-134.02 -47.87,-147.25 -44.38,-166.11C-40.82,-185.36 -29.51,-194.85 -15.56,-192.27C-1.22,-189.61 5.27,-177.44 1.59,-157.59C-2.08,-137.75 -12.89,-128.78 -27.23,-131.44ZM171.00,-100.22C166.22,-97.45 161.34,-96.32 154.66,-97.55C146.21,-99.12 141.87,-104.19 143.61,-113.62L152.16,-159.79L183.59,-153.97L187.30,-174.01L155.87,-179.83L161.44,-209.89L133.14,-207.40L128.96,-184.81L110.88,-188.16L107.17,-168.12L125.24,-164.77L115.90,-114.28C111.89,-92.67 123.96,-82.11 143.80,-78.43C154.21,-76.50 164.58,-77.63 172.01,-81.54ZM187.39,-72.39L214.30,-67.41L223.91,-119.28C227.54,-138.92 240.12,-144.31 251.52,-142.20C261.73,-140.31 267.98,-133.47 264.86,-116.57L254.38,-59.99L281.29,-55.01L293.23,-119.45C297.63,-143.22 284.92,-157.97 264.48,-161.75C250.54,-164.33 238.01,-160.35 229.40,-148.94L240.46,-208.67L213.54,-213.65ZM410.03,-87.45C414.91,-113.78 401.42,-136.39 371.75,-141.89C342.48,-147.31 318.55,-132.23 312.59,-100.01C306.62,-67.79 323.17,-45.22 354.21,-39.47C374.25,-35.76 392.98,-41.44 402.14,-55.80L382.25,-68.01C376.87,-60.88 369.32,-57.40 357.72,-59.55C344.17,-62.06 336.67,-70.96 337.35,-86.69L406.70,-73.85C407.75,-77.31 409.05,-82.15 410.03,-87.45ZM367.88,-122.08C380.06,-119.83 386.14,-110.98 385.01,-97.17L341.00,-105.32C346.14,-118.79 355.50,-124.37 367.88,-122.08ZM-416.40,-48.86L-443.51,-53.88L-467.52,75.78L-440.41,80.80ZM-332.27,-2.80C-347.40,-5.60 -360.81,-1.18 -369.45,11.44L-367.01,-7.21L-391.18,-11.68L-409.37,86.55L-382.45,91.53L-372.81,39.47C-369.17,19.83 -356.63,14.63 -345.43,16.70C-335.22,18.60 -328.77,25.48 -331.86,42.18L-342.37,98.96L-315.46,103.94L-303.53,39.50C-299.13,15.73 -311.84,0.98 -332.27,-2.80ZM-205.13,22.77L-244.25,95.79L-254.05,13.71L-282.93,8.36L-263.79,113.51L-232.75,119.25L-177.23,27.93ZM-146.13,19.06C-134.93,21.14 -128.55,17.44 -126.77,7.81C-124.99,-1.81 -129.58,-7.74 -140.78,-9.82C-151.98,-11.89 -158.39,-8.00 -160.17,1.63C-161.95,11.26 -157.32,16.99 -146.13,19.06ZM-135.39,35.68L-162.30,30.70L-180.49,128.93L-153.57,133.91ZM-86.16,148.43C-58.07,153.63 -40.00,142.75 -36.51,123.89C-34.07,110.73 -39.95,99.68 -58.67,92.15L-77.95,84.32C-87.21,80.57 -89.77,76.84 -89.01,72.72C-87.88,66.63 -81.13,64.22 -69.94,66.29C-59.72,68.18 -50.84,75.11 -46.62,85.24L-27.60,72.50C-33.83,58.96 -47.40,49.94 -67.05,46.30C-95.73,40.99 -113.07,53.43 -116.02,69.34C-118.82,84.47 -111.92,95.50 -90.00,104.43L-73.37,111.17C-65.05,114.54 -63.47,118.08 -64.24,122.21C-65.44,128.69 -72.66,130.40 -82.88,128.51C-97.22,125.86 -106.59,117.21 -111.13,106.62L-129.56,119.46C-121.75,134.32 -106.00,144.75 -86.16,148.43ZM13.60,48.64C24.79,50.71 31.17,47.01 32.95,37.39C34.73,27.76 30.14,21.83 18.94,19.76C7.74,17.68 1.33,21.58 -0.45,31.20C-2.23,40.83 2.40,46.56 13.60,48.64ZM24.34,65.26L-2.58,60.27L-20.77,158.50L6.15,163.49ZM111.73,79.41C96.60,76.61 84.18,82.23 76.61,92.41L87.70,32.49L60.79,27.51L34.63,168.76L58.41,173.16L63.17,152.91C66.20,167.29 76.31,178.51 92.03,181.42C116.20,185.89 137.57,170.34 143.49,138.32C149.46,106.10 135.11,83.73 111.73,79.41ZM87.80,159.30C74.04,156.75 67.04,144.08 70.61,124.83C74.06,106.16 85.32,95.85 99.27,98.43C113.81,101.13 120.29,113.30 116.62,133.14C112.94,152.98 102.33,161.99 87.80,159.30ZM210.49,55.22L183.58,50.24L162.48,164.19C158.70,184.62 165.51,195.02 184.56,198.55C191.05,199.75 198.80,199.56 203.60,197.81L209.23,180.57C204.62,181.34 202.38,181.33 197.86,180.49C190.60,179.15 188.27,175.26 189.94,166.22ZM321.52,165.60C326.40,139.27 312.91,116.66 283.24,111.16C253.97,105.74 230.05,120.82 224.08,153.04C218.11,185.26 234.66,207.83 265.70,213.58C285.74,217.29 304.47,211.61 313.63,197.25L293.74,185.04C288.36,192.17 280.81,195.65 269.22,193.50C255.66,190.99 248.17,182.09 248.84,166.36L318.19,179.20C319.24,175.74 320.54,170.90 321.52,165.60ZM279.37,130.97C291.55,133.22 297.64,142.07 296.50,155.88L252.49,147.73C257.63,134.26 266.99,128.68 279.37,130.97Z" fill="#ffffff" stroke="#000000"/>
    <path d="M-904.98,492L-898.94,492L-895.48,478.32L-894.30,472.39L-894.23,472.39L-893.05,478.32L-889.55,492L-883.66,492L-876.37,466.92L-881.73,466.92L-886.63,487.63L-891.72,466.92L-896.74,466.92L-901.75,487.63L-906.69,466.92L-912.28,466.92ZM-864.21,472.62C-869.95,472.62 -873.94,476.31 -873.94,482.50C-873.94,488.69 -869.95,492.38 -864.21,492.38C-858.47,492.38 -854.48,488.69 -854.48,482.50C-854.48,476.31 -858.47,472.62 -864.21,472.62ZM-864.21,476.50C-861.40,476.50 -859.72,478.47 -859.72,482.50C-859.72,486.53 -861.40,488.50 -864.21,488.50C-867.06,488.50 -868.73,486.53 -868.73,482.50C-868.73,478.47 -867.06,476.50 -864.21,476.50ZM-850.11,492L-844.90,492L-844.90,482.16C-844.90,478.74 -842.59,477.10 -840.27,477.10C-839.09,477.10 -838.44,477.22 -837.91,477.41L-837.30,473.04C-837.76,472.77 -838.52,472.62 -839.36,472.62C-842.32,472.62 -844.26,474.10 -845.25,476.72L-845.59,473L-850.11,473ZM-820.17,492L-814.28,492L-821.88,480.45L-814.73,473L-820.66,473L-828.87,481.70L-828.87,464.68L-834.07,464.68L-834.07,492L-828.87,492L-828.87,487.29L-825.41,483.60ZM-801.51,466.54C-807.93,466.54 -811.77,470.00 -811.77,474.44C-811.77,478.21 -809.22,480.26 -804.78,481.25L-799.68,482.39C-797.29,482.92 -796.57,483.91 -796.57,485.16C-796.57,487.10 -798.32,488.16 -801.39,488.16C-805.12,488.16 -808.27,486.41 -809.98,483.94L-812.95,487.48C-810.67,490.37 -806.60,492.38 -801.39,492.38C-795.35,492.38 -791.17,489.49 -791.17,484.51C-791.17,481.02 -793.19,478.85 -798.13,477.75L-802.80,476.69C-805.42,476.08 -806.33,475.17 -806.33,473.80C-806.33,472.13 -804.97,470.76 -801.70,470.76C-798.47,470.76 -796.11,471.94 -794.02,474.60L-791.10,471.21C-793.53,468.14 -796.95,466.54 -801.51,466.54ZM-769.36,488.81C-770.27,488.81 -770.73,488.35 -770.73,487.36L-770.73,479.65C-770.73,474.98 -774.07,472.62 -779.05,472.62C-783.99,472.62 -786.88,474.82 -787.75,478.17L-783.31,479.54C-782.66,477.29 -781.14,476.42 -779.28,476.42C-777.26,476.42 -775.90,477.71 -775.90,479.88L-775.90,480.60L-782.43,481.93C-785.85,482.61 -787.71,484.44 -787.71,487.25C-787.71,490.59 -785.32,492.38 -781.44,492.38C-779.05,492.38 -776.62,491.39 -775.40,489.64C-774.83,491.43 -773.08,492.30 -770.92,492.34C-769.89,492.34 -769.06,492.15 -768.45,491.85L-768.14,488.62C-768.49,488.73 -768.94,488.81 -769.36,488.81ZM-780.11,488.69C-781.44,488.69 -782.51,488.01 -782.51,486.76C-782.51,485.43 -781.63,484.97 -779.89,484.63L-775.90,483.83L-775.90,485.01C-775.90,487.78 -777.95,488.69 -780.11,488.69ZM-753.59,472.62C-756.52,472.62 -758.87,473.91 -760.05,476.57L-760.24,473L-764.91,473L-764.91,492L-759.71,492L-759.71,481.93C-759.71,478.13 -757.54,476.72 -755.38,476.72C-753.40,476.72 -751.96,477.79 -751.96,481.02L-751.96,492L-746.75,492L-746.75,479.54C-746.75,474.94 -749.64,472.62 -753.59,472.62ZM-733.79,492.38C-728.36,492.38 -725.36,489.72 -725.36,486.07C-725.36,483.53 -726.84,481.66 -730.60,480.90L-734.48,480.11C-736.34,479.73 -736.95,479.12 -736.95,478.32C-736.95,477.14 -735.77,476.46 -733.60,476.46C-731.63,476.46 -729.73,477.45 -728.59,479.19L-725.47,476.15C-727.10,473.84 -729.95,472.62 -733.75,472.62C-739.30,472.62 -742.11,475.55 -742.11,478.62C-742.11,481.55 -740.44,483.37 -736.03,484.29L-732.69,484.97C-731.02,485.31 -730.60,485.92 -730.60,486.72C-730.60,487.97 -731.89,488.54 -733.87,488.54C-736.64,488.54 -738.69,487.25 -739.91,485.43L-742.91,488.47C-740.94,490.97 -737.63,492.38 -733.79,492.38ZM-707.34,479.69L-720.76,479.69L-720.76,484.17L-707.34,484.17ZM-691.73,466.54C-698.15,466.54 -701.99,470.00 -701.99,474.44C-701.99,478.21 -699.44,480.26 -694.99,481.25L-689.90,482.39C-687.51,482.92 -686.79,483.91 -686.79,485.16C-686.79,487.10 -688.53,488.16 -691.61,488.16C-695.34,488.16 -698.49,486.41 -700.20,483.94L-703.16,487.48C-700.88,490.37 -696.82,492.38 -691.61,492.38C-685.57,492.38 -681.39,489.49 -681.39,484.51C-681.39,481.02 -683.40,478.85 -688.34,477.75L-693.02,476.69C-695.64,476.08 -696.55,475.17 -696.55,473.80C-696.55,472.13 -695.18,470.76 -691.92,470.76C-688.69,470.76 -686.33,471.94 -684.24,474.60L-681.31,471.21C-683.75,468.14 -687.17,466.54 -691.73,466.54ZM-659.35,481.47C-659.35,476.38 -662.66,472.62 -668.39,472.62C-674.06,472.62 -678.01,476.27 -678.01,482.50C-678.01,488.73 -674.13,492.38 -668.13,492.38C-664.25,492.38 -660.95,490.67 -659.73,487.67L-663.87,486.07C-664.63,487.59 -665.92,488.50 -668.17,488.50C-670.79,488.50 -672.50,487.10 -672.92,484.13L-659.50,484.13C-659.43,483.45 -659.35,482.50 -659.35,481.47ZM-668.43,476.46C-666.08,476.46 -664.63,477.90 -664.37,480.52L-672.88,480.52C-672.38,477.83 -670.83,476.46 -668.43,476.46ZM-654.94,492L-649.74,492L-649.74,481.93C-649.74,478.21 -647.57,476.72 -645.56,476.72C-643.62,476.72 -642.25,477.79 -642.25,480.56L-642.25,492L-637.04,492L-637.04,481.78C-637.04,478.47 -635.18,476.72 -632.86,476.72C-630.96,476.72 -629.60,477.79 -629.60,480.56L-629.60,492L-624.43,492L-624.39,479.54C-624.35,474.86 -627.47,472.62 -631.15,472.62C-633.74,472.62 -636.44,473.84 -637.61,476.38C-638.72,473.87 -641.07,472.62 -643.81,472.62C-646.51,472.62 -648.82,473.87 -650.08,476.42L-650.27,473L-654.94,473ZM-616.41,470.26C-614.24,470.26 -613.18,469.35 -613.18,467.49C-613.18,465.63 -614.24,464.68 -616.41,464.68C-618.58,464.68 -619.64,465.63 -619.64,467.49C-619.64,469.35 -618.58,470.26 -616.41,470.26ZM-613.83,473L-619.03,473L-619.03,492L-613.83,492ZM-607.78,492L-596.42,492C-590.46,492 -587.26,489.45 -587.26,485.12C-587.26,482.20 -589.20,479.84 -592.70,479.35L-592.70,479.31C-589.54,478.78 -587.91,476.46 -587.91,473.76C-587.91,469.43 -590.72,466.92 -596.80,466.92L-607.78,466.92ZM-602.69,477.45L-602.69,470.99L-597.49,470.99C-594.71,470.99 -593.34,472.05 -593.34,474.22C-593.34,476.38 -594.71,477.45 -597.49,477.45ZM-602.69,488.05L-602.69,481.47L-596.88,481.47C-594.07,481.47 -592.70,482.65 -592.70,484.74C-592.70,486.83 -594.07,488.05 -596.88,488.05ZM-574.12,472.62C-579.85,472.62 -583.84,476.31 -583.84,482.50C-583.84,488.69 -579.85,492.38 -574.12,492.38C-568.38,492.38 -564.39,488.69 -564.39,482.50C-564.39,476.31 -568.38,472.62 -574.12,472.62ZM-574.12,476.50C-571.30,476.50 -569.63,478.47 -569.63,482.50C-569.63,486.53 -571.30,488.50 -574.12,488.50C-576.97,488.50 -578.64,486.53 -578.64,482.50C-578.64,478.47 -576.97,476.50 -574.12,476.50ZM-554.89,464.68L-560.09,464.68L-560.09,486.72C-560.09,490.67 -558.46,492.38 -554.77,492.38C-553.52,492.38 -552.08,492.08 -551.24,491.58L-550.78,488.16C-551.62,488.47 -552.04,488.54 -552.91,488.54C-554.32,488.54 -554.89,487.90 -554.89,486.15ZM-534.75,464.68L-534.75,476.19C-535.77,474.03 -537.79,472.62 -540.52,472.62C-545.24,472.62 -548.85,476.23 -548.85,482.54C-548.85,488.73 -545.43,492.38 -540.71,492.38C-537.86,492.38 -535.51,490.86 -534.44,488.31L-534.22,492L-529.54,492L-529.54,464.68ZM-539.19,488.39C-542.01,488.39 -543.64,486.34 -543.64,482.50C-543.64,478.66 -541.93,476.61 -539.12,476.61C-536.46,476.61 -534.75,478.74 -534.75,482.35C-534.75,486.19 -536.50,488.39 -539.19,488.39Z"/>
</svg>