<?xml version="1.0"?>
<svg xmlns="http://www.w3.org/2000/svg" width="1920" height="1080" viewBox="-960 -540 1920 1080">
    <path d="M-542.35,-147L-542.35,-165.87L-633.81,-165.87L-633.81,-219.15L-555.67,-219.15L-555.67,-238.02L-633.81,-238.02L-633.81,-287.97L-544.57,-287.97L-544.57,-306.84L-654.90,-306.84L-654.90,-147ZM-462.65,-147L-420.69,-258L-438.45,-264.22L-471.97,-170.09L-505.05,-264.22L-522.81,-258L-480.85,-147ZM-378.18,-168.96L-389.83,-199.60L-304.14,-199.61L-303.03,-207.61L-316.25,-249.90L-356.30,-267.08L-395.47,-250.55L-410.19,-204.81L-395.47,-159.07L-356.30,-142.54L-323.32,-152.28L-308.14,-176.08L-323.69,-185.79L-335.80,-166.04L-355.17,-159.53ZM-389.17,-215.60L-376.63,-242.02L-356.32,-250.12L-333.67,-240.49L-324.56,-215.60ZM-232.78,-247.65L-217.78,-242.68L-211.79,-259.55L-231.34,-266.96L-250.42,-261.05L-263.74,-242.46L-263.74,-262.44L-281.72,-262.44L-281.72,-148.13L-261.74,-147L-261.74,-209.38L-254.43,-237.22ZM-187.15,-117.70L-193.58,-118.81L-197.15,-102.58L-184.49,-100.38L-162.68,-109.90L-149.57,-134.23L-103.67,-257.56L-120.77,-264.22L-154.28,-172.53L-188.48,-264.22L-206.46,-257.56L-163.59,-148.12L-168.16,-135.58L-176.72,-122.03ZM-36.23,-145.45L-36.23,-145.46L-38.53,-162.67L-47.48,-161.33L-57.11,-166.21L-58.83,-180.74L-58.83,-247.12L-39.07,-247.12L-39.07,-262.44L-58.83,-262.44L-58.83,-302.40L-78.81,-302.40L-78.81,-262.44L-95.24,-262.44L-95.24,-247.12L-78.81,-247.12L-78.81,-180.74L-74.25,-152.87L-51.50,-143.32ZM-14.43,-147L5.69,-147L5.69,-209.83L14.35,-239.07L36.92,-249.32L55.65,-240.67L61.06,-217.08L61.05,-147L80.98,-147L81.07,-217.24L73.48,-252.61L40.99,-266.54L19.68,-261.65L5.67,-246.68L5.67,-306.84L-14.43,-306.84ZM124.60,-281.74L131.83,-289.64L131.84,-300.93L124.48,-309.02L114.22,-309.02L107.05,-300.95L107.05,-289.68L114.34,-281.74ZM129.43,-147L129.43,-262.44L109.45,-262.44L109.45,-147ZM157.74,-147L177.72,-147L177.72,-209.83L186.38,-239.49L208.96,-249.74L227.68,-241.08L233.10,-217.82L233.10,-147L253.08,-147L253.08,-217.82L245.52,-253.03L213.03,-266.96L191.45,-262.20L175.72,-245.79L175.72,-262.44L157.74,-262.44ZM324.99,-98.70L366.34,-116.06L376.29,-154.55L376.29,-262.44L358.53,-262.44L358.53,-246.90L345.45,-261.65L325.21,-267.42L287.73,-250.05L274.73,-205.16L287.73,-160.26L325.21,-142.89L343.09,-147.15L356.31,-159.21L356.25,-150.74L349.19,-124.90L325.46,-115.92L306.97,-121.13L299.70,-136.79L283.72,-129.46L293.79,-108.22ZM326.35,-250.43L348.41,-238.99L358.74,-205.14L349.25,-171.29L326.35,-159.86L304.03,-171.29L295.12,-205.14L304.03,-238.99ZM482.25,-281.74L489.47,-289.64L489.49,-300.93L482.12,-309.02L471.86,-309.02L464.69,-300.95L464.69,-289.68L471.98,-281.74ZM487.07,-147L487.07,-262.44L467.09,-262.44L467.09,-147ZM528.01,-182.76L511.04,-174.83L522.34,-152.18L556.54,-142.42L589.17,-150.54L604.12,-178.19L595.14,-201.88L575.70,-211.87L548.78,-219.15L533.82,-225.14L528.92,-234.37L535.34,-245.75L554.17,-249.93L572.27,-245.00L580.05,-230.31L596.86,-238.23L587.08,-257.57L554.93,-266.99L523.09,-258.82L509.41,-232.12L518.29,-210.92L538.32,-201.37L566.77,-193.84L580.17,-187.11L583.71,-176.42L574.79,-163.01L557.22,-159.45L535.99,-166.43ZM-456.99,39.69L-496.97,20.47L-509.76,-27.13L-496.11,-74.71L-456.99,-93.93L-425.66,-83.29L-410.81,-55.66L-392.01,-65.16L-411.61,-97.80L-456.99,-112.04L-513.38,-87.15L-532.40,-27.11L-513.38,32.92L-456.99,57.80L-411.71,43.34L-392.46,11.83L-410.81,1.65L-427.18,29.25ZM-317.47,-67.19L-357.21,-50.66L-372.49,-4.92L-357.20,40.82L-317.47,57.35L-277.72,40.81L-262.43,-4.92L-277.71,-50.66ZM-317.47,40.37L-341.49,29.79L-352.09,-4.90L-341.48,-39.61L-317.47,-50.20L-293.42,-39.61L-282.80,-4.90L-293.42,29.79ZM-241.86,52.80L-221.88,52.80L-221.88,-10.03L-213.22,-39.69L-190.64,-49.94L-171.92,-41.28L-166.50,-18.02L-166.50,52.80L-146.52,52.80L-146.52,-18.02L-154.08,-53.23L-186.57,-67.16L-208.15,-62.40L-223.88,-45.99L-223.88,-62.64L-241.86,-62.64ZM-118.65,52.80L-98.67,52.80L-98.67,-10.03L-90.01,-39.69L-67.43,-49.94L-48.71,-41.28L-43.29,-18.02L-43.29,52.80L-23.31,52.80L-23.31,-18.02L-30.87,-53.23L-63.36,-67.16L-84.94,-62.40L-100.67,-45.99L-100.67,-62.64L-118.65,-62.64ZM29.41,30.84L17.76,0.20L103.45,0.19L104.56,-7.81L91.34,-50.10L51.29,-67.28L12.12,-50.75L-2.59,-5.01L12.12,40.73L51.29,57.26L84.27,47.52L99.46,23.72L83.90,14.01L71.79,33.76L52.43,40.27ZM18.43,-15.80L30.96,-42.22L51.27,-50.32L73.93,-40.69L83.03,-15.80ZM172.14,40.37L148.67,29.78L138.62,-4.92L148.67,-39.63L172.14,-50.22L190.29,-43.90L201.34,-23.48L218.54,-32.09L203.72,-56.86L172.14,-67.19L132.96,-50.66L118.23,-4.92L132.94,40.82L172.14,57.35L203.72,47.13L218.32,22.93L201.34,13.88L190.28,34.10ZM291.22,54.35L291.22,54.34L288.92,37.13L279.97,38.47L270.34,33.59L268.62,19.06L268.62,-47.32L288.38,-47.32L288.38,-62.64L268.62,-62.64L268.62,-102.60L248.64,-102.60L248.64,-62.64L232.21,-62.64L232.21,-47.32L248.64,-47.32L248.64,19.06L253.20,46.93L275.95,56.48ZM337.99,30.84L326.34,0.20L412.03,0.19L413.14,-7.81L399.92,-50.10L359.87,-67.28L320.70,-50.75L305.99,-5.01L320.70,40.73L359.87,57.26L392.85,47.52L408.04,23.72L392.48,14.01L380.37,33.76L361.01,40.27ZM327.01,-15.80L339.54,-42.22L359.85,-50.32L382.51,-40.69L391.61,-15.80ZM527.69,-107.04L507.71,-107.04L507.71,-50.63L495.20,-62.08L476.69,-66.70L439.20,-49.32L426.19,-4.43L439.20,40.46L476.69,57.84L496.28,52.46L509.93,37.04L509.93,52.80L527.69,52.80ZM477.84,-49.72L500.74,-38.28L510.23,-4.43L499.89,29.42L477.84,40.85L455.50,29.42L446.58,-4.43L455.50,-38.28Z" fill="#ffffff" stroke="#000000"/>
    <path d="M-545.87,-130.59L-546.28,-149.27L-636.80,-147.28L-637.96,-200.01L-560.62,-201.71L-561.03,-220.39L-638.37,-218.69L-639.46,-268.13L-551.13,-270.07L-551.54,-288.75L-660.75,-286.35L-657.27,-128.14ZM-466.98,-132.33L-427.87,-243.10L-445.58,-248.87L-476.71,-154.98L-511.50,-247.42L-528.94,-240.88L-485.00,-131.93ZM-383.86,-155.90L-396.06,-185.97L-311.24,-187.85L-310.32,-195.79L-324.32,-237.35L-364.34,-253.49L-402.75,-236.28L-416.32,-190.68L-400.76,-145.73L-361.63,-130.22L-329.19,-140.58L-314.69,-164.47L-330.29,-173.75L-341.85,-153.93L-360.88,-147.07ZM-395.75,-201.82L-383.91,-228.25L-363.99,-236.71L-341.36,-227.67L-331.81,-203.23ZM-241.66,-236.95L-226.71,-232.36L-221.14,-249.19L-240.66,-256.09L-259.41,-249.83L-272.19,-231.14L-272.62,-250.91L-290.42,-250.52L-287.93,-137.38L-268.13,-136.70L-269.49,-198.44L-262.86,-226.15ZM-193.66,-109.32L-200.06,-110.28L-203.23,-94.14L-190.66,-92.24L-169.28,-102.14L-156.84,-126.50L-114.09,-249.56L-131.15,-255.78L-162.33,-164.31L-198.17,-254.31L-215.82,-247.33L-171.01,-139.94L-175.27,-127.43L-183.44,-113.83ZM-44.90,-140.07L-44.90,-140.08L-47.55,-157.07L-56.38,-155.55L-66.01,-160.17L-68.03,-174.51L-69.48,-240.21L-49.92,-240.64L-50.26,-255.80L-69.81,-255.37L-70.68,-294.92L-90.46,-294.49L-89.59,-254.94L-105.85,-254.58L-105.51,-239.42L-89.25,-239.78L-87.81,-174.08L-82.69,-146.59L-59.97,-137.63ZM-23.35,-142.08L-3.44,-142.52L-4.80,-204.70L3.13,-233.84L25.24,-244.47L43.97,-236.31L49.84,-213.09L51.35,-143.72L71.08,-144.16L69.63,-213.68L61.36,-248.52L28.90,-261.61L7.91,-256.30L-5.63,-241.18L-6.94,-300.72L-26.83,-300.28ZM111.32,-278.47L118.30,-286.45L118.07,-297.62L110.61,-305.47L100.45,-305.25L93.53,-297.10L93.77,-285.94L101.17,-278.24ZM119.03,-145.21L116.52,-259.47L96.74,-259.03L99.25,-144.78ZM147.05,-145.83L166.82,-146.26L165.46,-208.45L173.39,-237.99L195.52,-248.63L214.23,-240.47L220.10,-217.56L221.64,-147.47L241.42,-147.90L239.88,-218.00L231.62,-252.68L199.17,-265.76L177.91,-260.58L162.70,-244.00L162.33,-260.48L144.54,-260.09ZM313.64,-101.67L354.19,-119.74L363.20,-158.05L360.85,-264.84L343.27,-264.46L343.61,-249.07L330.35,-263.39L310.19,-268.66L273.47,-250.65L261.57,-205.93L275.43,-161.78L312.90,-145.40L330.50,-150.01L343.32,-162.23L343.45,-153.85L337.02,-128.12L313.73,-118.72L295.32,-123.47L287.78,-138.81L272.12,-131.21L282.55,-110.40ZM311.68,-251.87L333.77,-241.03L344.73,-207.74L336.07,-174.04L313.65,-162.23L291.32,-173.05L281.76,-206.36L289.85,-240.06ZM465.30,-286.25L472.28,-294.23L472.05,-305.40L464.59,-313.25L454.43,-313.03L447.51,-304.89L447.75,-293.72L455.15,-286.03ZM473.01,-152.99L470.50,-267.25L450.72,-266.82L453.23,-152.56ZM512.75,-189.28L496.12,-181.06L507.81,-158.89L541.87,-149.97L573.99,-158.72L588.18,-186.42L578.78,-209.67L559.32,-219.13L532.52,-225.75L517.58,-231.36L512.53,-240.38L518.64,-251.78L537.19,-256.33L555.21,-251.84L563.22,-237.47L579.69,-245.68L569.59,-264.61L537.57,-273.23L506.23,-264.45L493.27,-237.73L502.52,-216.94L522.55,-207.92L550.87,-201.09L564.28,-194.72L568.02,-184.22L559.48,-170.75L542.17,-166.84L521.01,-173.29ZM-457.32,52.33L-497.31,34.18L-511.01,-12.66L-498.53,-60.05L-460.23,-79.92L-428.99,-70.07L-413.69,-43.05L-395.29,-52.86L-415.40,-84.74L-460.62,-97.84L-515.89,-71.99L-533.41,-12.15L-513.28,46.85L-456.93,70.25L-412.43,54.95L-394.06,23.35L-412.44,13.67L-428.04,41.35ZM-321.55,-56.49L-360.53,-39.27L-374.65,6.33L-358.53,51.27L-318.84,66.77L-279.86,49.54L-265.72,3.94L-281.84,-41.00ZM-319.21,49.97L-343.22,40.02L-354.47,5.91L-344.72,-28.67L-321.18,-39.68L-297.15,-29.72L-285.89,4.40L-295.64,38.97ZM-244.11,60.62L-224.34,60.19L-225.70,-1.99L-217.77,-31.54L-195.64,-42.18L-176.93,-34.02L-171.06,-11.11L-169.52,58.98L-149.74,58.55L-151.29,-11.55L-159.54,-46.23L-191.99,-59.31L-213.25,-54.13L-228.46,-37.55L-228.83,-54.03L-246.62,-53.64ZM-122.16,57.94L-102.39,57.51L-103.76,-4.68L-95.83,-34.22L-73.70,-44.86L-54.98,-36.70L-49.11,-13.79L-47.57,56.30L-27.80,55.87L-29.34,-14.23L-37.59,-48.91L-70.05,-61.99L-91.30,-56.81L-106.52,-40.23L-106.88,-56.71L-124.68,-56.32ZM23.90,32.98L11.71,2.92L96.52,1.03L97.45,-6.90L83.44,-48.47L43.43,-64.60L5.02,-47.39L-8.55,-1.80L7.01,43.15L46.14,58.66L78.57,48.30L93.08,24.41L77.47,15.14L65.92,34.95L46.89,41.82ZM12.02,-12.94L23.86,-39.36L43.78,-47.82L66.41,-38.79L75.96,-14.34ZM165.38,39.31L141.92,29.34L131.22,-4.79L140.41,-39.36L163.41,-50.35L181.52,-44.49L192.90,-24.52L209.73,-33.42L194.52,-57.61L163.04,-67.15L124.62,-49.94L111.04,-4.34L126.59,40.61L165.75,56.11L196.78,45.32L210.71,21.05L193.71,12.46L183.20,32.71ZM283.54,50.55L283.55,50.55L280.89,33.56L272.07,35.08L262.43,30.46L260.41,16.12L258.97,-49.58L278.52,-50.01L278.19,-65.17L258.63,-64.74L257.76,-104.30L237.99,-103.86L238.86,-64.31L222.60,-63.95L222.93,-48.79L239.19,-49.15L240.64,16.55L245.75,44.04L268.48,53.00ZM329.32,26.27L317.13,-3.80L401.94,-5.68L402.87,-13.62L388.86,-55.19L348.85,-71.32L310.44,-54.11L296.87,-8.51L312.43,36.44L351.56,51.94L383.99,41.59L398.50,17.70L382.89,8.42L371.34,28.23L352.31,35.10ZM317.44,-19.65L329.28,-46.08L349.20,-54.54L371.83,-45.50L381.38,-21.06ZM514.09,-114.33L494.31,-113.89L495.54,-58.06L482.90,-69.12L464.49,-73.29L427.76,-55.27L415.85,-10.56L429.71,33.59L467.20,49.97L486.46,44.22L499.65,28.66L499.99,44.26L517.57,43.88ZM466.00,-56.51L488.91,-45.69L499.03,-12.39L489.54,21.34L467.97,33.13L445.60,22.30L436.04,-11.00L444.13,-44.70Z" fill="#ffffff" stroke="#000000"/>
    <path d="M-548.81,-114.17L-549.62,-132.64L-639.17,-128.70L-641.46,-180.87L-564.96,-184.23L-565.77,-202.71L-642.28,-199.34L-644.43,-248.25L-557.05,-252.09L-557.87,-270.56L-665.89,-265.81L-659.00,-109.32ZM-470.78,-117.60L-434.48,-228.08L-452.14,-233.40L-480.90,-139.80L-517.34,-230.54L-534.46,-223.69L-488.60,-116.82ZM-389.03,-142.74L-401.75,-172.23L-317.86,-175.94L-317.11,-183.81L-331.88,-224.65L-371.83,-239.74L-409.47,-221.87L-421.91,-176.46L-405.53,-132.31L-366.47,-117.81L-334.59,-128.77L-320.76,-152.73L-336.40,-161.57L-347.41,-141.71L-366.09,-134.50ZM-401.79,-187.93L-390.65,-214.34L-371.12,-223.14L-348.53,-214.69L-338.54,-190.71ZM-250.06,-226.04L-235.16,-221.83L-230.02,-238.60L-249.49,-245.01L-267.91,-238.40L-280.15,-219.63L-281.01,-239.19L-298.61,-238.42L-293.69,-126.50L-274.08,-126.26L-276.76,-187.33L-270.81,-214.90ZM-199.79,-100.78L-206.14,-101.59L-208.93,-85.55L-196.44,-83.94L-175.50,-94.20L-163.71,-118.58L-124.09,-241.30L-141.11,-247.09L-169.97,-155.88L-207.40,-244.17L-224.72,-236.88L-178.03,-131.58L-181.97,-119.11L-189.76,-105.47ZM-53.23,-134.45L-53.23,-134.46L-56.22,-151.22L-64.93,-149.52L-74.56,-153.88L-76.87,-168.03L-79.73,-233.02L-60.39,-233.87L-61.05,-248.87L-80.39,-248.02L-82.11,-287.14L-101.67,-286.28L-99.95,-247.16L-116.04,-246.45L-115.38,-231.45L-99.29,-232.16L-96.43,-167.17L-90.77,-140.08L-68.09,-131.71ZM-31.95,-136.91L-12.25,-137.77L-14.95,-199.28L-7.73,-228.29L13.92,-239.30L32.63,-231.63L38.94,-208.78L41.95,-140.16L61.46,-141.02L58.52,-209.79L49.57,-244.09L17.16,-256.33L-3.49,-250.63L-16.57,-235.36L-19.16,-294.27L-38.83,-293.40ZM98.37,-274.82L105.10,-282.86L104.63,-293.92L97.07,-301.52L87.03,-301.08L80.36,-292.87L80.84,-281.83L88.32,-274.37ZM108.89,-143.10L103.92,-256.13L84.36,-255.27L89.33,-142.24ZM136.61,-144.32L156.17,-145.18L153.47,-206.69L160.67,-236.11L182.34,-247.12L201.04,-239.45L207.34,-216.90L210.40,-147.57L229.96,-148.43L226.91,-217.77L217.98,-251.91L185.58,-264.15L164.66,-258.56L149.96,-241.82L149.24,-258.12L131.64,-257.35ZM302.44,-104.24L342.18,-123.01L350.26,-161.13L345.61,-266.76L328.23,-265.99L328.89,-250.78L315.45,-264.65L295.39,-269.44L259.45,-250.81L248.64,-206.30L263.31,-162.91L300.76,-147.51L318.07,-152.45L330.50,-164.83L330.81,-156.53L325.00,-130.93L302.16,-121.12L283.84,-125.43L276.04,-140.44L260.71,-132.58L271.48,-112.22ZM297.23,-252.85L319.33,-242.60L330.90,-209.90L323.07,-176.35L301.13,-164.18L278.80,-174.41L268.61,-207.16L275.88,-240.69ZM448.52,-290.22L455.25,-298.27L454.78,-309.32L447.22,-316.93L437.18,-316.49L430.51,-308.28L430.99,-297.23L438.47,-289.78ZM459.04,-158.51L454.07,-271.53L434.51,-270.67L439.48,-157.65ZM497.59,-195.29L481.31,-186.79L493.35,-165.10L527.26,-157.01L558.86,-166.38L572.30,-194.09L562.49,-216.90L543.02,-225.84L516.36,-231.81L501.45,-237.03L496.25,-245.85L502.05,-257.27L520.31,-262.17L538.24,-258.12L546.49,-244.08L562.60,-252.56L552.20,-271.07L520.32,-278.91L489.49,-269.53L477.25,-242.81L486.86,-222.44L506.88,-213.95L535.05,-207.80L548.46,-201.79L552.39,-191.48L544.24,-177.97L527.19,-173.72L506.11,-179.64ZM-457.20,64.94L-497.17,47.84L-511.74,1.79L-500.43,-45.38L-462.95,-65.89L-431.83,-56.82L-416.09,-30.40L-398.09,-40.52L-418.69,-71.63L-463.73,-83.61L-517.87,-56.82L-533.91,2.78L-512.70,60.73L-456.42,82.66L-412.71,66.55L-395.22,34.88L-413.62,25.70L-428.46,53.43ZM-325.20,-45.72L-363.40,-27.82L-376.38,17.62L-359.45,61.74L-319.84,76.21L-281.63,58.31L-268.63,12.88L-285.56,-31.25ZM-320.57,59.59L-344.55,50.27L-356.42,16.76L-347.53,-17.68L-324.47,-29.08L-300.47,-19.75L-288.58,13.77L-297.48,48.20ZM-246.01,68.50L-226.45,67.64L-229.16,6.13L-221.95,-23.28L-200.28,-34.29L-181.59,-26.62L-175.28,-4.08L-172.23,65.26L-152.67,64.40L-155.72,-4.94L-164.64,-39.08L-197.05,-51.32L-217.97,-45.74L-232.66,-28.99L-233.38,-45.29L-250.99,-44.52ZM-125.38,63.20L-105.82,62.34L-108.53,0.83L-101.32,-28.59L-79.66,-39.60L-60.96,-31.93L-54.65,-9.38L-51.60,59.95L-32.04,59.09L-35.09,-10.25L-44.01,-44.39L-76.42,-56.63L-97.34,-51.04L-112.03,-34.30L-112.75,-50.60L-130.36,-49.83ZM18.63,35.32L5.91,5.83L89.80,2.12L90.55,-5.76L75.78,-46.59L35.83,-61.68L-1.81,-43.81L-14.25,1.60L2.13,45.75L41.19,60.25L73.07,49.29L86.90,25.33L71.26,16.49L60.25,36.35L41.57,43.56ZM5.87,-9.87L17.01,-36.28L36.54,-45.08L59.13,-36.63L69.12,-12.65ZM158.78,38.50L135.34,29.15L124.02,-4.40L132.36,-38.81L154.88,-50.19L172.93,-44.79L184.62,-25.27L201.09,-34.44L185.51,-58.05L154.15,-66.81L116.50,-48.94L104.05,-3.52L120.42,40.63L159.51,55.12L189.99,43.76L203.24,19.44L186.23,11.31L176.27,31.58ZM275.97,47.06L275.97,47.05L272.97,30.29L264.27,31.99L254.64,27.63L252.32,13.48L249.46,-51.51L268.81,-52.36L268.15,-67.36L248.80,-66.51L247.08,-105.63L227.52,-104.77L229.24,-65.65L213.16,-64.94L213.82,-49.94L229.90,-50.65L232.76,14.34L238.42,41.43L261.11,49.80ZM320.75,22.03L308.02,-7.46L391.92,-11.17L392.66,-19.05L377.90,-59.88L337.95,-74.98L300.31,-57.11L287.87,-11.69L304.25,32.46L343.31,46.95L375.18,36.00L389.02,12.04L373.37,3.20L362.37,23.06L343.69,30.27ZM307.99,-23.16L319.12,-49.57L338.66,-58.38L361.25,-49.93L371.23,-25.94ZM500.54,-121.14L480.98,-120.28L483.41,-65.05L470.66,-75.72L452.34,-79.44L416.39,-60.81L405.58,-16.30L420.26,27.09L457.71,42.49L476.65,36.38L489.36,20.69L490.04,36.12L507.42,35.36ZM454.20,-62.87L477.11,-52.66L487.86,-19.92L479.20,13.66L458.10,25.80L435.73,15.57L425.54,-17.18L432.82,-50.71Z" fill="#ffffff" stroke="#000000"/>
    <path d="M-551.18,-97.75L-552.38,-116.01L-640.91,-110.17L-644.32,-161.73L-568.68,-166.73L-569.89,-184.99L-645.52,-180.00L-648.71,-228.35L-562.34,-234.05L-563.54,-252.31L-670.33,-245.26L-660.12,-90.55ZM-474.04,-102.84L-440.52,-212.96L-458.11,-217.84L-484.54,-124.59L-522.57,-213.59L-539.36,-206.43L-491.66,-101.68ZM-393.69,-129.50L-406.92,-158.40L-323.98,-163.90L-323.42,-171.71L-338.92,-211.79L-378.78,-225.86L-415.64,-207.36L-426.95,-162.15L-409.79,-118.82L-370.82,-105.32L-339.52,-116.86L-326.34,-140.87L-342.02,-149.27L-352.48,-129.38L-370.81,-121.84ZM-407.30,-173.94L-396.85,-200.31L-377.71,-209.45L-355.17,-201.58L-344.77,-178.07ZM-257.99,-214.95L-243.15,-211.11L-238.43,-227.82L-257.83,-233.74L-275.91,-226.80L-287.61,-207.95L-288.89,-227.29L-306.30,-226.14L-298.99,-115.50L-279.58,-115.69L-283.57,-176.07L-278.27,-203.47ZM-205.51,-92.09L-211.81,-92.75L-214.22,-76.82L-201.83,-75.50L-181.33,-86.11L-170.20,-110.49L-133.66,-232.80L-150.63,-238.15L-177.20,-147.27L-216.16,-233.82L-233.14,-226.23L-184.65,-123.04L-188.28,-110.62L-195.69,-96.95ZM-61.22,-128.60L-61.21,-128.61L-64.54,-145.13L-73.12,-143.26L-82.75,-147.36L-85.34,-161.32L-89.59,-225.56L-70.46,-226.83L-71.44,-241.65L-90.56,-240.39L-93.12,-279.07L-112.46,-277.79L-109.90,-239.11L-125.80,-238.06L-124.82,-223.24L-108.92,-224.29L-104.68,-160.04L-98.49,-133.35L-75.86,-125.56ZM-40.21,-131.50L-20.73,-132.78L-24.75,-193.59L-18.24,-222.45L2.95,-233.82L21.64,-226.63L28.38,-204.15L32.85,-136.32L52.13,-137.59L47.73,-205.59L38.12,-239.33L5.79,-250.74L-14.52,-244.65L-27.13,-229.26L-30.98,-287.49L-50.43,-286.20ZM85.75,-270.80L92.23,-278.91L91.53,-289.84L83.88,-297.20L73.95,-296.54L67.53,-288.27L68.25,-277.36L75.81,-270.14ZM99.03,-140.69L91.65,-252.43L72.31,-251.15L79.69,-139.41ZM126.43,-142.50L145.77,-143.78L141.75,-204.59L148.24,-233.85L169.44,-245.22L188.11,-238.03L194.84,-215.86L199.37,-147.32L218.71,-148.60L214.18,-217.14L204.61,-250.73L172.28,-262.14L151.70,-256.16L137.52,-239.27L136.45,-255.38L119.05,-254.24ZM291.39,-106.45L330.31,-125.89L337.48,-163.78L330.58,-268.21L313.39,-267.07L314.39,-252.03L300.79,-265.47L280.83,-269.77L245.66,-250.55L235.94,-206.27L251.40,-163.65L288.79,-149.23L305.82,-154.49L317.85,-167.01L318.33,-158.81L313.15,-133.35L290.75,-123.15L272.53,-127.01L264.49,-141.69L249.48,-133.58L260.59,-113.66ZM283.01,-253.39L305.10,-243.73L317.27,-211.62L310.24,-178.25L288.80,-165.73L266.47,-175.36L255.68,-207.55L262.15,-240.89ZM431.90,-293.66L438.39,-301.77L437.68,-312.70L430.04,-320.06L420.11,-319.40L413.69,-311.14L414.40,-300.22L421.97,-293.00ZM445.19,-163.55L437.81,-275.29L418.47,-274.01L425.85,-162.28ZM482.53,-200.79L466.60,-192.02L478.99,-170.82L512.72,-163.56L543.78,-173.51L556.48,-201.23L546.28,-223.58L526.82,-232.01L500.31,-237.33L485.44,-242.18L480.11,-250.79L485.60,-262.22L503.56,-267.47L521.39,-263.85L529.85,-250.13L545.62,-258.88L534.92,-276.97L503.20,-284.03L472.90,-274.08L461.37,-247.37L471.32,-227.42L491.31,-219.45L519.33,-213.99L532.73,-208.33L536.84,-198.21L529.07,-184.66L512.29,-180.09L491.30,-185.49ZM-456.63,77.49L-496.55,61.44L-511.98,16.19L-501.81,-30.73L-465.17,-51.84L-434.17,-43.54L-418.02,-17.75L-400.43,-28.15L-421.49,-58.49L-466.33,-69.36L-519.31,-41.67L-533.89,17.66L-511.64,74.54L-455.47,95.02L-412.57,78.13L-395.95,46.40L-414.36,37.72L-428.44,65.48ZM-328.41,-34.88L-365.83,-16.34L-377.69,28.91L-359.97,72.20L-320.45,85.66L-283.04,67.12L-271.16,21.87L-288.87,-21.42ZM-321.54,69.23L-345.47,60.53L-357.95,27.62L-349.90,-6.64L-327.33,-18.43L-303.38,-9.72L-290.88,23.19L-298.94,57.45ZM-247.57,76.43L-228.23,75.15L-232.25,14.34L-225.76,-14.92L-204.55,-26.29L-185.89,-19.10L-179.15,3.07L-174.63,71.61L-155.29,70.33L-159.81,1.79L-169.39,-31.81L-201.72,-43.21L-222.30,-37.23L-236.48,-20.34L-237.54,-36.46L-254.95,-35.31ZM-128.32,68.55L-108.98,67.27L-112.99,6.47L-106.50,-22.80L-85.30,-34.16L-66.63,-26.98L-59.90,-4.81L-55.37,63.73L-36.03,62.46L-40.56,-6.09L-50.13,-39.68L-82.47,-51.09L-103.05,-45.10L-117.23,-28.22L-118.29,-44.33L-135.70,-43.18ZM13.59,37.83L0.36,8.92L83.30,3.43L83.86,-4.38L68.36,-44.46L28.50,-58.53L-8.36,-40.03L-19.68,5.18L-2.51,48.51L36.46,62.01L67.76,50.47L80.93,26.46L65.25,18.06L54.80,37.95L36.47,45.49ZM-0.02,-6.61L10.42,-32.98L29.56,-42.12L52.10,-34.25L62.51,-10.74ZM152.34,37.93L128.95,29.18L117.01,-3.76L124.51,-38.00L146.55,-49.75L164.53,-44.79L176.53,-25.74L192.63,-35.17L176.69,-58.19L145.47,-66.18L108.60,-47.67L97.27,-2.46L114.44,40.87L153.43,54.36L183.34,42.46L195.93,18.10L178.92,10.43L169.50,30.70ZM268.49,43.85L268.50,43.84L265.17,27.33L256.59,29.20L246.96,25.09L244.37,11.13L240.12,-53.11L259.25,-54.38L258.27,-69.20L239.14,-67.94L236.59,-106.62L217.25,-105.34L219.81,-66.66L203.90,-65.61L204.88,-50.79L220.78,-51.84L225.03,12.41L231.22,39.10L253.85,46.89ZM312.26,18.11L299.03,-10.80L381.97,-16.30L382.53,-24.10L367.03,-64.19L327.17,-78.26L290.31,-59.76L278.99,-14.54L296.16,28.79L335.13,42.28L366.43,30.74L379.60,6.73L363.93,-1.67L353.47,18.22L335.14,25.76ZM298.65,-26.33L309.10,-52.71L328.24,-61.85L350.78,-53.98L361.18,-30.46ZM487.06,-127.47L467.72,-126.20L471.33,-71.60L458.48,-81.88L440.28,-85.17L405.10,-65.95L395.37,-21.67L410.84,20.95L448.24,35.37L466.85,28.91L479.08,13.11L480.09,28.37L497.28,27.23ZM442.48,-68.81L465.37,-59.20L476.71,-27.04L468.87,6.38L448.27,18.85L425.91,9.22L415.11,-22.97L421.58,-56.31Z" fill="#ffffff" stroke="#000000"/>
    <path d="M-552.97,-81.35L-554.56,-99.40L-642.03,-91.69L-646.52,-142.64L-571.79,-149.23L-573.38,-167.27L-648.11,-160.68L-652.32,-208.45L-566.98,-215.97L-568.57,-234.02L-674.08,-224.72L-660.61,-71.86ZM-476.76,-88.07L-445.99,-197.76L-463.50,-202.20L-487.62,-109.36L-527.19,-196.59L-543.65,-189.15L-494.17,-86.54ZM-397.84,-116.19L-411.56,-144.51L-329.61,-151.75L-329.23,-159.48L-345.44,-198.81L-385.18,-211.86L-421.25,-192.76L-431.46,-147.77L-413.53,-105.27L-374.68,-92.77L-343.96,-104.86L-331.45,-128.91L-347.15,-136.88L-357.06,-116.98L-375.03,-109.11ZM-412.27,-159.87L-402.51,-186.19L-383.77,-195.65L-361.30,-188.35L-350.49,-165.31ZM-265.43,-203.70L-250.66,-200.21L-246.35,-216.85L-265.68,-222.29L-283.42,-215.03L-294.59,-196.13L-296.27,-215.24L-313.47,-213.72L-303.83,-104.40L-284.63,-105.01L-289.89,-164.66L-285.25,-191.90ZM-210.83,-83.27L-217.08,-83.79L-219.12,-67.98L-206.83,-66.94L-186.78,-77.88L-176.29,-102.25L-142.80,-224.06L-159.70,-228.99L-184.02,-138.49L-224.45,-223.28L-241.09,-215.39L-190.86,-114.35L-194.18,-101.98L-201.22,-88.29ZM-68.85,-122.54L-68.85,-122.54L-72.50,-138.82L-80.95,-136.78L-90.56,-140.63L-93.44,-154.39L-99.03,-217.86L-80.14,-219.53L-81.43,-234.18L-100.32,-232.51L-103.69,-270.72L-122.80,-269.04L-119.43,-230.83L-135.14,-229.44L-133.85,-214.79L-118.14,-216.18L-112.54,-152.70L-105.83,-126.43L-83.27,-119.21ZM-48.13,-125.86L-28.89,-127.56L-34.19,-187.64L-28.37,-216.33L-7.65,-228.04L10.99,-221.34L18.15,-199.24L24.05,-132.22L43.11,-133.90L37.27,-201.08L27.03,-234.26L-5.21,-244.85L-25.18,-238.38L-37.32,-222.87L-42.39,-280.41L-61.61,-278.71ZM73.47,-266.43L79.71,-274.60L78.77,-285.40L71.05,-292.51L61.23,-291.65L55.06,-283.33L56.01,-272.54L63.65,-265.57ZM89.44,-137.99L79.70,-248.38L60.60,-246.70L70.33,-136.30ZM116.51,-140.37L135.62,-142.06L130.32,-202.14L136.10,-231.23L156.84,-242.94L175.46,-236.24L182.61,-214.45L188.58,-146.73L207.69,-148.41L201.72,-216.14L191.51,-249.17L159.27,-259.75L139.04,-253.38L125.38,-236.36L123.97,-252.28L106.78,-250.77ZM280.52,-108.29L318.60,-128.37L324.87,-166.02L315.78,-269.19L298.79,-267.70L300.10,-252.84L286.35,-265.84L266.51,-269.65L232.14,-249.88L223.48,-205.85L239.71,-164.02L277.01,-150.56L293.75,-156.14L305.37,-168.79L306.03,-160.69L301.46,-135.38L279.52,-124.80L261.40,-128.22L253.13,-142.58L238.46,-134.22L249.88,-114.76ZM269.03,-253.50L291.09,-244.42L303.83,-212.92L297.60,-179.75L276.66,-166.89L254.36,-175.94L242.98,-207.55L248.66,-240.68ZM415.48,-296.58L421.71,-304.75L420.78,-315.55L413.06,-322.67L403.24,-321.80L397.07,-313.48L398.02,-302.69L405.66,-295.72ZM431.45,-168.14L421.71,-278.53L402.61,-276.85L412.34,-166.46ZM467.58,-205.79L452.02,-196.77L464.74,-176.06L498.27,-169.61L528.79,-180.13L540.75,-207.84L530.17,-229.73L510.73,-237.65L484.38,-242.34L469.57,-246.81L464.10,-255.21L469.28,-266.64L486.94,-272.23L504.66,-269.03L513.34,-255.64L528.74,-264.64L517.76,-282.31L486.23,-288.61L456.47,-278.10L445.64,-251.42L455.91,-231.90L475.87,-224.45L503.71,-219.65L517.09,-214.34L521.38,-204.42L513.98,-190.85L497.48,-185.96L476.60,-190.85ZM-455.61,89.98L-495.46,74.97L-511.71,30.53L-502.67,-16.12L-466.87,-37.80L-436.02,-30.26L-419.48,-5.09L-402.31,-15.77L-423.81,-45.32L-468.40,-55.11L-520.23,-26.56L-533.35,32.46L-510.10,88.26L-454.08,107.30L-412.00,89.65L-396.25,57.90L-414.65,49.71L-427.98,77.49ZM-331.19,-23.99L-367.81,-4.83L-378.56,40.20L-360.09,82.65L-320.69,95.10L-284.08,75.94L-273.31,30.92L-291.78,-11.54ZM-322.13,78.87L-345.99,70.78L-359.06,38.49L-351.84,4.41L-329.76,-7.74L-305.87,0.36L-292.79,32.65L-300.02,66.73ZM-248.78,84.38L-229.67,82.70L-234.97,22.62L-229.19,-6.48L-208.45,-18.18L-189.83,-11.48L-182.68,10.31L-176.71,78.03L-157.60,76.34L-163.57,8.62L-173.78,-24.41L-206.02,-34.99L-226.25,-28.63L-239.91,-11.61L-241.32,-27.53L-258.51,-26.01ZM-130.96,73.99L-111.85,72.31L-117.15,12.23L-111.36,-16.87L-90.63,-28.57L-72.00,-21.87L-64.86,-0.08L-58.89,67.64L-39.78,65.96L-45.75,-1.77L-55.95,-34.80L-88.19,-45.38L-108.43,-39.01L-122.09,-21.99L-123.49,-37.92L-140.69,-36.40ZM8.78,40.51L-4.94,12.20L77.01,4.95L77.39,-2.78L61.19,-42.11L21.44,-55.16L-14.63,-36.05L-24.84,8.93L-6.91,51.43L31.94,63.93L62.66,51.84L75.17,27.80L59.47,19.82L49.56,39.73L31.59,47.59ZM-5.65,-3.16L4.11,-29.49L22.85,-38.94L45.32,-31.65L56.13,-8.61ZM146.08,37.60L122.74,29.45L110.21,-2.89L116.89,-36.93L138.44,-49.04L156.34,-44.53L168.62,-25.93L184.35,-35.62L168.08,-58.05L137.01,-65.27L100.93,-46.16L90.71,-1.18L108.63,41.33L147.51,53.83L176.85,41.40L188.77,17.02L171.77,9.80L162.90,30.06ZM261.13,40.92L261.13,40.92L257.48,24.64L249.03,26.68L239.42,22.83L236.55,9.08L230.95,-54.40L249.84,-56.07L248.55,-70.72L229.66,-69.05L226.29,-107.26L207.18,-105.58L210.55,-67.37L194.84,-65.98L196.13,-51.33L211.84,-52.72L217.44,10.76L224.15,37.03L246.71,44.25ZM303.87,14.50L290.15,-13.82L372.10,-21.06L372.49,-28.80L356.28,-68.12L316.53,-81.18L280.47,-62.07L270.25,-17.09L288.18,25.42L327.03,37.92L357.75,25.82L370.26,1.78L354.57,-6.20L344.66,13.71L326.68,21.57ZM289.44,-29.18L299.20,-55.50L317.94,-64.96L340.42,-57.66L351.22,-34.62ZM473.67,-133.35L454.56,-131.67L459.31,-77.73L446.38,-87.61L428.29,-90.47L393.91,-70.69L385.25,-26.67L401.48,15.16L438.79,28.62L457.07,21.83L468.83,5.93L470.16,21.00L487.14,19.50ZM430.83,-74.34L453.69,-65.33L465.61,-33.75L458.58,-0.51L438.46,12.28L416.13,3.23L404.75,-28.39L410.42,-61.51Z" fill="#ffffff" stroke="#000000"/>
    <path d="M-554.20,-65.00L-556.17,-82.82L-642.54,-73.28L-648.09,-123.60L-574.30,-131.74L-576.27,-149.56L-650.06,-141.41L-655.26,-188.58L-570.99,-197.88L-572.96,-215.70L-677.14,-204.20L-660.48,-53.27ZM-478.95,-73.30L-450.90,-182.49L-468.31,-186.51L-490.16,-94.13L-531.20,-179.57L-547.32,-171.85L-496.14,-71.41ZM-401.48,-102.84L-415.67,-130.56L-334.76,-139.50L-334.54,-147.17L-351.43,-185.72L-391.04,-197.77L-426.30,-178.08L-435.43,-133.36L-416.77,-91.70L-378.06,-80.17L-347.93,-92.81L-336.08,-116.87L-351.78,-124.42L-361.15,-104.50L-378.76,-96.34ZM-416.71,-145.74L-407.62,-171.99L-389.29,-181.76L-366.90,-175.03L-355.71,-152.47ZM-272.38,-192.30L-257.70,-189.17L-253.80,-205.73L-273.04,-210.68L-290.43,-203.11L-301.07,-184.17L-303.15,-203.04L-320.13,-201.16L-308.22,-93.22L-289.23,-94.24L-295.74,-153.15L-291.74,-180.19ZM-215.75,-74.34L-221.94,-74.72L-223.62,-59.03L-211.43,-58.27L-191.83,-69.53L-181.99,-93.87L-151.50,-215.11L-168.34,-219.61L-190.42,-129.55L-232.27,-212.56L-248.56,-204.40L-196.67,-105.53L-199.69,-93.21L-206.35,-79.52ZM-76.14,-116.28L-76.13,-116.28L-80.10,-132.30L-88.41,-130.10L-98.01,-133.71L-101.15,-147.25L-108.07,-209.93L-89.41,-211.99L-91.01,-226.45L-109.67,-224.39L-113.83,-262.13L-132.70,-260.04L-128.53,-222.31L-144.04,-220.60L-142.45,-206.13L-126.94,-207.85L-120.02,-145.17L-112.81,-119.32L-90.33,-112.67ZM-55.71,-120.01L-36.71,-122.11L-43.26,-181.43L-38.12,-209.95L-17.88,-221.98L0.71,-215.76L8.27,-194.06L15.56,-127.88L34.38,-129.96L27.14,-196.29L16.29,-228.90L-15.84,-238.67L-35.45,-231.83L-47.12,-216.23L-53.39,-273.04L-72.37,-270.94ZM61.53,-261.73L67.53,-269.95L66.37,-280.61L58.58,-287.48L48.88,-286.41L42.96,-278.05L44.13,-267.40L51.84,-260.66ZM80.13,-135.00L68.10,-244.01L49.23,-241.93L61.26,-132.92ZM106.86,-137.95L125.73,-140.04L119.18,-199.36L124.27,-228.27L144.53,-240.31L163.10,-234.08L170.64,-212.68L178.02,-145.81L196.89,-147.89L189.51,-214.76L178.70,-247.22L146.57,-256.99L126.69,-250.25L113.55,-233.11L111.81,-248.83L94.83,-246.96ZM269.82,-109.78L307.06,-130.47L312.45,-167.86L301.20,-269.74L284.43,-267.89L286.05,-253.21L272.17,-265.77L252.45,-269.12L218.87,-248.81L211.27,-205.06L228.23,-164.03L265.43,-151.52L281.87,-157.41L293.10,-170.18L293.92,-162.17L289.95,-137.04L268.47,-126.09L250.48,-129.08L241.98,-143.11L227.65,-134.52L239.37,-115.51ZM255.29,-253.19L277.32,-244.69L290.61,-213.80L285.17,-180.85L264.73,-167.67L242.47,-176.14L230.53,-207.17L235.42,-240.07ZM399.24,-299.00L405.24,-307.22L404.08,-317.88L396.28,-324.75L386.59,-323.68L380.67,-315.32L381.84,-304.67L389.55,-297.93ZM417.84,-172.28L405.81,-281.28L386.94,-279.20L398.97,-170.19ZM452.77,-210.31L437.57,-201.05L450.60,-180.84L483.92,-175.19L513.88,-186.26L525.12,-213.93L514.17,-235.36L494.77,-242.77L468.60,-246.84L453.84,-250.94L448.25,-259.13L453.13,-270.55L470.48,-276.46L488.08,-273.69L496.95,-260.63L512.00,-269.87L500.75,-287.10L469.42,-292.65L440.20,-281.61L430.07,-254.98L440.66,-235.89L460.57,-228.95L488.21,-224.81L501.57,-219.85L506.03,-210.13L499.00,-196.54L482.78,-191.34L462.01,-195.72ZM-454.15,102.39L-493.90,88.41L-510.94,44.80L-503.01,-1.55L-468.07,-23.78L-437.39,-17.00L-420.48,7.55L-403.72,-3.39L-425.63,-32.16L-469.96,-40.88L-520.62,-11.50L-532.32,47.17L-508.10,101.87L-452.26,119.49L-411.01,101.12L-396.12,69.36L-414.51,61.66L-427.09,89.43ZM-333.54,-13.07L-369.35,6.68L-379.00,51.46L-359.81,93.06L-320.56,104.52L-284.75,84.77L-275.08,39.99L-294.27,-1.61ZM-322.33,88.50L-346.12,81.01L-359.75,49.35L-353.35,15.48L-331.77,2.97L-307.96,10.47L-294.32,42.13L-300.73,76.00ZM-249.65,92.35L-230.78,90.27L-237.33,30.95L-232.24,2.03L-211.98,-10.00L-193.41,-3.77L-185.86,17.63L-178.48,84.50L-159.62,82.42L-167.00,15.55L-177.81,-16.91L-209.94,-26.68L-229.82,-19.94L-242.96,-2.81L-244.70,-18.53L-261.68,-16.65ZM-133.30,79.51L-114.44,77.43L-120.98,18.11L-115.89,-10.81L-95.64,-22.84L-77.06,-16.61L-69.52,4.79L-62.14,71.66L-43.27,69.58L-50.65,2.71L-61.46,-29.75L-93.59,-39.52L-113.47,-32.78L-126.62,-15.65L-128.35,-31.37L-145.33,-29.49ZM4.22,43.35L-9.97,15.63L70.94,6.69L71.16,-0.98L54.26,-39.53L14.66,-51.58L-20.61,-31.89L-29.74,12.83L-11.07,54.49L27.64,66.02L57.77,53.38L69.62,29.32L53.92,21.77L44.55,41.69L26.94,49.85ZM-11.01,0.45L-1.93,-25.81L16.41,-35.57L38.80,-28.84L49.99,-6.28ZM139.98,37.47L116.72,29.92L103.62,-1.80L109.49,-35.62L130.54,-48.07L148.35,-44.00L160.91,-25.87L176.25,-35.79L159.67,-57.63L128.77,-64.09L93.50,-44.40L84.36,0.32L103.02,41.98L141.75,53.50L170.51,40.57L181.77,16.19L164.80,9.42L156.46,29.66ZM253.88,38.26L253.89,38.26L249.92,22.24L241.61,24.44L232.01,20.83L228.87,7.29L221.95,-55.39L240.61,-57.45L239.01,-71.91L220.36,-69.85L216.19,-107.58L197.33,-105.50L201.49,-67.77L185.98,-66.06L187.57,-51.59L203.09,-53.31L210.00,9.37L217.21,35.22L239.69,41.87ZM295.60,11.19L281.41,-16.52L362.32,-25.47L362.54,-33.13L345.65,-71.69L306.04,-83.74L270.77,-64.05L261.65,-19.32L280.31,22.33L319.02,33.86L349.15,21.22L361.00,-2.84L345.30,-10.38L335.93,9.53L318.32,17.70ZM280.37,-31.70L289.46,-57.96L307.79,-67.73L330.18,-61.00L341.37,-38.44ZM460.36,-138.78L441.50,-136.69L447.38,-83.43L434.37,-92.93L416.41,-95.37L382.82,-75.05L375.21,-31.30L392.18,9.73L429.39,22.23L447.32,15.11L458.61,-0.88L460.25,14.01L477.02,12.16ZM419.27,-79.46L442.08,-71.04L454.56,-40.06L448.33,-7.03L428.70,6.06L406.41,-2.40L394.46,-33.43L399.36,-66.33Z" fill="#ffffff" stroke="#000000"/>
    <path d="M-554.87,-48.71L-557.20,-66.29L-642.43,-54.98L-649.02,-104.63L-576.20,-114.29L-578.54,-131.88L-651.35,-122.22L-657.53,-168.76L-574.37,-179.79L-576.70,-197.38L-679.51,-183.74L-659.75,-34.79ZM-480.61,-58.56L-455.23,-167.18L-472.55,-170.78L-492.15,-78.92L-534.61,-162.54L-550.39,-154.56L-497.57,-56.31ZM-404.61,-89.46L-419.26,-116.57L-339.41,-127.18L-339.36,-134.77L-356.91,-172.54L-396.35,-183.60L-430.81,-163.35L-438.87,-118.91L-419.50,-78.11L-380.95,-67.55L-351.42,-80.70L-340.22,-104.76L-355.92,-111.89L-364.76,-91.99L-382.00,-83.52ZM-420.61,-131.57L-412.20,-157.74L-394.27,-167.80L-371.97,-161.63L-360.41,-139.55ZM-278.85,-180.76L-264.26,-177.99L-260.76,-194.45L-279.90,-198.94L-296.94,-191.07L-307.05,-172.10L-309.52,-190.72L-326.28,-188.50L-312.15,-81.98L-293.39,-83.40L-301.10,-141.53L-297.74,-168.37ZM-220.26,-65.31L-226.40,-65.55L-227.71,-49.99L-215.64,-49.51L-196.50,-61.07L-187.29,-85.36L-159.77,-205.96L-176.52,-210.05L-196.41,-120.48L-239.62,-201.68L-255.55,-193.25L-202.07,-96.57L-204.78,-84.33L-211.08,-70.64ZM-83.07,-109.83L-83.06,-109.84L-87.34,-125.60L-95.51,-123.24L-105.08,-126.60L-108.49,-139.93L-116.69,-201.78L-98.28,-204.22L-100.17,-218.50L-118.59,-216.05L-123.53,-253.29L-142.14,-250.82L-137.20,-213.58L-152.51,-211.55L-150.62,-197.28L-135.31,-199.31L-127.10,-137.46L-119.41,-112.05L-97.03,-105.96ZM-62.94,-113.97L-44.19,-116.46L-51.96,-175.00L-47.50,-203.33L-27.74,-215.67L-9.21,-209.92L-1.26,-188.61L7.39,-123.30L25.96,-125.77L17.36,-191.23L5.92,-223.25L-26.08,-232.22L-45.33,-225.03L-56.54,-209.34L-63.98,-265.40L-82.70,-262.92ZM49.96,-256.72L55.71,-264.97L54.33,-275.50L46.47,-282.13L36.91,-280.86L31.23,-272.45L32.62,-261.94L40.40,-255.45ZM71.11,-131.76L56.84,-239.33L38.22,-236.86L52.49,-129.29ZM97.49,-135.26L116.11,-137.73L108.34,-196.27L112.75,-224.98L132.52,-237.33L151.03,-231.57L158.96,-210.56L167.72,-144.57L186.33,-147.04L177.58,-213.03L166.18,-244.91L134.18,-253.87L114.66,-246.77L102.03,-229.54L99.97,-245.05L83.22,-242.83ZM259.31,-110.93L295.70,-132.21L300.21,-169.31L286.87,-269.85L270.33,-267.65L272.25,-253.17L258.24,-265.30L238.66,-268.18L205.89,-247.35L199.31,-203.91L216.99,-163.69L254.06,-152.13L270.19,-158.31L281.02,-171.18L282.01,-163.28L278.62,-138.33L257.62,-127.03L239.75,-129.60L231.04,-143.29L217.05,-134.49L229.06,-115.94ZM241.82,-252.48L263.79,-244.55L277.61,-214.28L272.95,-181.57L253.02,-168.08L230.81,-175.98L218.32,-206.41L222.44,-239.06ZM383.22,-300.93L388.97,-309.19L387.60,-319.71L379.74,-326.34L370.17,-325.07L364.49,-316.67L365.88,-306.16L373.66,-299.66ZM404.37,-175.97L390.10,-283.54L371.48,-281.07L385.75,-173.50ZM438.10,-214.36L423.27,-204.87L436.60,-185.16L469.68,-180.29L499.08,-191.89L509.59,-219.51L498.30,-240.47L478.94,-247.38L452.96,-250.83L438.28,-254.57L432.57,-262.55L437.15,-273.96L454.18,-280.18L471.65,-277.82L480.71,-265.09L495.40,-274.56L483.90,-291.37L452.78,-296.17L424.12,-284.62L414.67,-258.05L425.56,-239.40L445.41,-232.97L472.85,-229.47L486.17,-224.86L490.79,-215.33L484.14,-201.74L468.20,-196.24L447.56,-200.13ZM-452.25,114.71L-491.88,101.74L-509.69,58.97L-502.85,12.94L-468.77,-9.81L-438.27,-3.76L-421.01,20.15L-404.66,8.97L-426.97,-19.02L-471.01,-26.68L-520.48,3.48L-530.78,61.78L-505.64,115.37L-450.01,131.58L-409.61,112.51L-395.57,80.76L-413.92,73.55L-425.77,101.29ZM-335.45,-2.14L-370.45,18.18L-379.02,62.69L-359.13,103.42L-320.06,113.91L-285.06,93.59L-276.47,49.08L-296.36,8.35ZM-322.16,98.09L-345.85,91.20L-360.02,60.18L-354.42,26.53L-333.35,13.69L-309.64,20.59L-295.45,51.62L-301.06,85.26ZM-250.17,100.33L-231.55,97.86L-239.32,39.31L-234.91,10.60L-215.14,-1.74L-196.63,4.01L-188.70,25.02L-179.94,91.01L-161.33,88.54L-170.08,22.55L-181.48,-9.32L-213.48,-18.29L-233.00,-11.19L-245.63,6.05L-247.69,-9.47L-264.44,-7.25ZM-135.36,85.09L-116.74,82.62L-124.51,24.08L-120.10,-4.63L-100.32,-16.98L-81.81,-11.22L-73.89,9.79L-65.13,75.78L-46.51,73.31L-55.27,7.32L-66.67,-24.56L-98.66,-33.52L-118.18,-26.42L-130.82,-9.19L-132.87,-24.70L-149.63,-22.48ZM-0.11,46.33L-14.75,19.22L65.10,8.61L65.15,1.02L47.60,-36.75L8.16,-47.81L-26.30,-27.56L-34.36,16.88L-14.99,57.68L23.55,68.24L53.08,55.09L64.29,31.03L48.59,23.90L39.75,43.80L22.51,52.27ZM-16.10,4.22L-7.69,-21.95L10.24,-32.01L32.54,-25.83L44.09,-3.76ZM134.07,37.56L110.89,30.60L97.24,-0.50L102.31,-34.08L122.87,-46.85L140.57,-43.21L153.40,-25.55L168.36,-35.70L151.48,-56.94L120.77,-62.67L86.31,-42.42L78.24,2.02L97.60,42.82L136.17,53.38L164.34,39.96L174.95,15.60L158.01,9.27L150.20,29.47ZM246.76,35.86L246.77,35.86L242.49,20.10L234.32,22.46L224.75,19.10L221.34,5.77L213.14,-56.08L231.55,-58.52L229.66,-72.80L211.24,-70.36L206.30,-107.59L187.69,-105.12L192.63,-67.89L177.32,-65.85L179.21,-51.58L194.52,-53.61L202.73,8.24L210.42,33.65L232.80,39.74ZM287.44,8.18L272.80,-18.93L352.65,-29.54L352.69,-37.13L335.15,-74.90L295.70,-85.96L261.25,-65.71L253.19,-21.27L272.56,19.53L311.10,30.09L340.63,16.94L351.83,-7.12L336.14,-14.25L327.30,5.66L310.05,14.12ZM271.44,-33.92L279.86,-60.10L297.78,-70.15L320.08,-63.98L331.64,-41.91ZM447.17,-143.76L428.55,-141.29L435.52,-88.73L422.45,-97.84L404.63,-99.86L371.85,-79.03L365.27,-35.59L382.95,4.63L420.03,16.19L437.61,8.75L448.43,-7.31L450.38,7.38L466.93,5.19ZM407.80,-84.19L430.55,-76.36L443.58,-45.98L438.13,-13.16L419.00,0.21L396.77,-7.68L384.27,-38.11L388.40,-70.76Z" fill="#ffffff" stroke="#000000"/>
    <path d="M-554.98,-32.50L-557.67,-49.84L-641.73,-36.80L-649.32,-85.77L-577.51,-96.91L-580.20,-114.25L-652.01,-103.11L-659.13,-149.01L-577.12,-161.73L-579.81,-179.08L-681.20,-163.35L-658.42,-16.45ZM-481.74,-43.86L-459.00,-151.85L-476.21,-155.03L-493.60,-63.75L-537.41,-145.54L-552.85,-137.29L-498.47,-41.26ZM-407.25,-76.08L-422.32,-102.57L-343.57,-114.81L-343.69,-122.31L-361.87,-159.29L-401.12,-169.37L-434.76,-148.60L-441.76,-104.46L-421.72,-64.52L-383.37,-54.92L-354.44,-68.57L-343.89,-92.61L-359.57,-99.32L-367.88,-79.44L-384.75,-70.69ZM-423.99,-117.38L-416.23,-143.45L-398.72,-153.78L-376.53,-148.17L-364.62,-126.58ZM-284.84,-169.12L-270.34,-166.70L-267.24,-183.06L-286.27,-187.07L-302.95,-178.92L-312.54,-159.94L-315.39,-178.30L-331.92,-175.74L-315.62,-70.69L-297.10,-72.50L-305.99,-129.83L-303.25,-156.45ZM-224.37,-56.20L-230.45,-56.30L-231.41,-40.88L-219.46,-40.67L-200.78,-52.52L-192.20,-76.75L-167.60,-196.63L-184.26,-200.32L-201.98,-111.28L-246.48,-190.66L-262.06,-181.98L-207.06,-87.52L-209.48,-75.34L-215.41,-61.67ZM-89.64,-103.22L-89.64,-103.22L-94.21,-118.72L-102.24,-116.21L-111.78,-119.32L-115.44,-132.43L-124.90,-193.44L-106.74,-196.25L-108.92,-210.33L-127.08,-207.51L-132.78,-244.24L-151.14,-241.39L-145.44,-204.66L-160.54,-202.32L-158.36,-188.25L-143.26,-190.59L-133.80,-129.59L-125.64,-104.62L-103.37,-99.08ZM-69.82,-107.75L-51.33,-110.62L-60.28,-168.36L-56.49,-196.47L-37.21,-209.11L-18.76,-203.82L-10.43,-182.92L-0.45,-118.51L17.86,-121.35L7.93,-185.92L-4.09,-217.34L-35.93,-225.51L-54.82,-217.98L-65.56,-202.22L-74.14,-257.51L-92.61,-254.65ZM38.75,-251.40L44.26,-259.69L42.66,-270.07L34.74,-276.46L25.31,-274.99L19.88,-266.55L21.48,-256.19L29.31,-249.94ZM62.38,-128.26L45.93,-234.35L27.57,-231.50L44.02,-125.41ZM88.40,-132.29L106.76,-135.14L97.81,-192.88L101.54,-221.37L120.84,-234.01L139.27,-228.73L147.57,-208.12L157.66,-143.04L176.02,-145.88L165.93,-210.97L153.96,-242.24L122.12,-250.42L102.96,-242.97L90.84,-225.65L88.47,-240.95L71.95,-238.38ZM248.99,-111.75L284.52,-133.59L288.18,-170.38L272.80,-269.54L256.48,-267.01L258.69,-252.73L244.57,-264.41L225.15,-266.84L193.18,-245.52L187.63,-202.42L205.98,-163.01L242.90,-152.39L258.72,-158.85L269.15,-171.82L270.31,-164.03L267.50,-139.27L246.97,-127.64L229.24,-129.80L220.32,-143.15L206.68,-134.13L218.96,-116.05ZM228.61,-251.38L250.52,-244.01L264.84,-214.37L260.94,-181.92L241.52,-168.15L219.39,-175.47L206.37,-205.30L209.74,-237.69ZM367.42,-302.38L372.93,-310.67L371.34,-321.05L363.42,-327.44L353.99,-325.97L348.55,-317.54L350.16,-307.17L357.99,-300.92ZM391.06,-179.24L374.61,-285.33L356.24,-282.48L372.70,-176.39ZM423.59,-217.94L409.12,-208.23L422.74,-189.02L455.56,-184.93L484.39,-197.05L494.19,-224.59L482.56,-245.08L463.26,-251.49L437.49,-254.34L422.89,-257.72L417.07,-265.49L421.35,-276.87L438.06,-283.40L455.39,-281.44L464.63,-269.05L478.95,-278.73L467.21,-295.11L436.33,-299.19L408.23,-287.13L399.46,-260.65L410.64,-242.44L430.41,-236.51L457.63,-233.65L470.90,-229.37L475.68,-220.05L469.40,-206.46L453.76,-200.68L433.26,-204.07ZM-449.93,126.91L-489.41,114.94L-507.95,73.02L-502.19,27.35L-468.97,4.11L-438.67,9.42L-421.08,32.70L-405.15,21.28L-427.82,-5.92L-471.55,-12.53L-519.83,18.37L-528.75,76.27L-502.71,128.72L-447.34,143.55L-407.79,123.80L-394.59,92.10L-412.91,85.36L-424.02,113.06ZM-336.94,8.79L-371.11,29.65L-378.62,73.86L-358.06,113.72L-319.18,123.24L-285.01,102.38L-277.48,58.17L-298.04,18.31ZM-321.60,107.64L-345.19,101.35L-359.88,70.97L-355.08,37.56L-334.52,24.41L-310.91,30.71L-296.20,61.09L-301.02,94.49ZM-250.35,108.29L-231.99,105.44L-240.95,47.70L-237.21,19.21L-217.92,6.57L-199.49,11.86L-191.19,32.46L-181.09,97.54L-162.73,94.70L-172.83,29.61L-184.80,-1.66L-216.64,-9.84L-235.79,-2.39L-247.91,14.94L-250.28,-0.37L-266.81,2.20ZM-137.12,90.72L-118.76,87.88L-127.72,30.14L-123.98,1.64L-104.69,-11.00L-86.26,-5.71L-77.96,14.90L-67.86,79.98L-49.50,77.13L-59.60,12.05L-71.57,-19.23L-103.41,-27.40L-122.56,-19.95L-134.68,-2.63L-137.05,-17.93L-153.58,-15.37ZM-4.18,49.44L-19.25,22.94L59.50,10.71L59.38,3.21L41.20,-33.77L1.94,-43.85L-31.70,-23.08L-38.70,21.06L-18.66,60.99L19.70,70.60L48.62,56.95L59.18,32.91L43.50,26.20L35.19,46.08L18.31,54.82ZM-20.92,8.14L-13.17,-17.93L4.34,-28.27L26.53,-22.65L38.45,-1.07ZM128.34,37.85L105.27,31.46L91.09,1.00L95.37,-32.32L115.43,-45.40L133.02,-42.19L146.08,-25.00L160.66,-35.36L143.51,-56.00L113.01,-61.00L79.36,-40.23L72.35,3.91L92.39,43.85L130.76,53.45L158.33,39.56L168.30,15.24L151.41,9.34L144.12,29.50ZM239.77,33.72L239.78,33.72L235.20,18.22L227.17,20.73L217.63,17.62L213.98,4.51L204.51,-56.49L222.67,-59.31L220.49,-73.39L202.33,-70.57L196.63,-107.30L178.27,-104.45L183.97,-67.72L168.87,-65.38L171.05,-51.30L186.15,-53.65L195.61,7.36L203.78,32.32L226.04,37.86ZM279.41,5.45L264.33,-21.04L343.08,-33.28L342.96,-40.78L324.79,-77.76L285.53,-87.84L251.89,-67.07L244.89,-22.93L264.93,17.01L303.28,26.61L332.21,12.96L342.77,-11.08L327.08,-17.79L318.78,2.09L301.90,10.83ZM262.66,-35.85L270.42,-61.92L287.93,-72.26L310.12,-66.64L322.03,-45.06ZM434.09,-148.31L415.73,-145.46L423.77,-93.62L410.64,-102.35L392.97,-103.96L361.00,-82.65L355.43,-39.54L373.80,-0.14L410.73,10.49L427.96,2.75L438.31,-13.37L440.56,1.12L456.88,-1.41ZM396.45,-88.53L419.12,-81.28L432.67,-51.52L427.99,-18.94L409.36,-5.29L387.20,-12.61L374.17,-42.44L377.55,-74.83Z" fill="#ffffff" stroke="#000000"/>
    <path d="M-554.54,-16.39L-557.58,-33.48L-640.43,-18.76L-649.00,-67.02L-578.22,-79.60L-581.26,-96.69L-652.04,-84.11L-660.08,-129.36L-579.24,-143.72L-582.28,-160.82L-682.22,-143.06L-656.49,1.73ZM-482.35,-29.22L-462.21,-136.52L-479.30,-139.29L-494.51,-48.63L-539.62,-128.57L-554.71,-120.08L-498.84,-26.29ZM-409.38,-62.70L-424.86,-88.58L-347.24,-102.39L-347.52,-109.81L-366.30,-145.99L-405.35,-155.10L-438.17,-133.82L-444.13,-90.02L-423.44,-50.96L-385.30,-42.29L-356.99,-56.43L-347.07,-80.43L-362.73,-86.72L-370.51,-66.88L-387.01,-57.87ZM-426.83,-103.18L-419.73,-129.14L-402.63,-139.74L-380.56,-134.67L-368.31,-113.58ZM-290.34,-157.39L-275.95,-155.30L-273.23,-171.55L-292.14,-175.11L-308.47,-166.68L-317.54,-147.70L-320.75,-165.80L-337.04,-162.91L-318.64,-59.36L-300.36,-61.56L-310.40,-118.06L-308.27,-144.45ZM-228.08,-47.02L-234.09,-46.99L-234.71,-31.72L-222.88,-31.76L-204.67,-43.90L-196.71,-68.04L-174.98,-187.14L-191.54,-190.42L-207.13,-101.98L-252.87,-179.52L-268.09,-170.60L-211.64,-78.37L-213.76,-66.28L-219.33,-52.62ZM-95.85,-96.45L-95.85,-96.46L-100.71,-111.68L-108.59,-109.03L-118.10,-111.90L-122.00,-124.78L-132.68,-184.91L-114.79,-188.09L-117.25,-201.97L-135.15,-198.79L-141.58,-234.98L-159.68,-231.77L-153.25,-195.57L-168.13,-192.92L-165.66,-179.05L-150.78,-181.69L-140.10,-121.57L-131.48,-97.05L-109.34,-92.06ZM-76.35,-101.37L-58.12,-104.60L-68.23,-161.51L-65.10,-189.40L-46.30,-202.32L-27.94,-197.49L-19.25,-177.00L-7.98,-113.52L10.07,-116.72L-1.15,-180.36L-13.72,-211.18L-45.39,-218.57L-63.90,-210.71L-74.19,-194.89L-83.87,-249.38L-102.08,-246.15ZM27.90,-245.79L33.17,-254.12L31.37,-264.34L23.40,-270.49L14.10,-268.84L8.91,-260.37L10.72,-250.16L18.60,-244.14ZM53.96,-124.52L35.38,-229.09L17.28,-225.87L35.86,-121.31ZM79.60,-129.08L97.70,-132.29L87.59,-189.20L90.66,-217.47L109.47,-230.39L127.81,-225.56L136.47,-205.36L147.87,-141.21L165.96,-144.43L154.57,-208.57L142.05,-239.25L110.38,-246.64L91.60,-238.85L79.99,-221.46L77.31,-236.54L61.02,-233.64ZM238.87,-112.25L273.54,-134.63L276.35,-171.10L258.99,-268.82L242.90,-265.97L245.40,-251.89L231.18,-263.14L211.92,-265.12L180.77,-243.34L176.21,-200.59L195.22,-162.02L231.96,-152.31L247.47,-159.05L257.51,-172.10L258.82,-164.42L256.58,-139.88L236.53,-127.93L218.95,-129.67L209.84,-142.68L196.54,-133.47L209.08,-115.85ZM215.68,-249.91L237.51,-243.10L252.32,-214.09L249.17,-181.91L230.26,-167.87L208.21,-174.63L194.68,-203.85L197.31,-235.95ZM351.86,-303.36L357.13,-311.68L355.32,-321.91L347.35,-328.06L338.06,-326.41L332.87,-317.94L334.68,-307.72L342.56,-301.71ZM377.91,-182.09L359.33,-286.66L341.23,-283.44L359.81,-178.87ZM409.24,-221.08L395.14,-211.16L409.03,-192.46L441.58,-189.12L469.83,-201.73L478.92,-229.19L466.97,-249.20L447.75,-255.12L422.20,-257.38L407.68,-260.40L401.76,-267.96L405.74,-279.31L422.13,-286.13L439.32,-284.57L448.72,-272.52L462.67,-282.40L450.71,-298.34L420.07,-301.70L392.54,-289.17L384.45,-262.79L395.90,-245.02L415.59,-239.59L442.56,-237.35L455.79,-233.41L460.72,-224.29L454.80,-210.71L439.45,-204.66L419.10,-207.57ZM-447.17,138.98L-486.48,128.00L-505.73,86.95L-501.03,41.65L-468.68,17.94L-438.59,22.54L-420.69,45.18L-405.19,33.54L-428.20,7.13L-471.60,1.54L-518.67,33.16L-526.23,90.61L-499.34,141.92L-444.26,155.38L-405.57,134.99L-393.21,103.35L-411.46,97.08L-421.85,124.72ZM-337.99,19.70L-371.33,41.07L-377.81,84.96L-356.60,123.94L-317.95,132.51L-284.61,111.14L-278.12,67.25L-299.32,28.28ZM-320.68,117.14L-344.15,111.42L-359.33,81.70L-355.31,48.56L-335.26,35.10L-311.77,40.82L-296.57,70.55L-300.60,103.68ZM-250.20,116.22L-232.10,113.01L-242.21,56.10L-239.14,27.84L-220.33,14.92L-201.99,19.75L-193.33,39.95L-181.93,104.09L-163.84,100.88L-175.24,36.73L-187.75,6.06L-219.42,-1.33L-238.20,6.45L-249.81,23.85L-252.49,8.76L-268.78,11.66ZM-138.59,96.39L-120.50,93.18L-130.61,36.27L-127.54,8.00L-108.73,-4.92L-90.38,-0.09L-81.73,20.11L-70.33,84.26L-52.23,81.04L-63.63,16.90L-76.15,-13.78L-107.82,-21.17L-126.60,-13.38L-138.21,4.01L-140.89,-11.07L-157.18,-8.17ZM-8.01,52.67L-23.50,26.79L54.12,12.98L53.84,5.56L35.06,-30.61L-3.98,-39.73L-36.80,-18.45L-42.77,25.35L-22.08,64.41L16.06,73.08L44.37,58.95L54.29,34.94L38.64,28.65L30.85,48.49L14.35,57.50ZM-25.47,12.19L-18.36,-13.76L-1.27,-24.37L20.80,-19.29L33.05,1.79ZM122.80,38.33L99.84,32.51L85.16,2.69L88.67,-30.36L108.22,-43.73L125.69,-40.93L138.98,-24.21L153.18,-34.78L135.76,-54.83L105.49,-59.10L72.66,-37.83L66.69,5.98L87.37,45.04L125.54,53.70L152.50,39.37L161.83,15.10L145.00,9.63L138.23,29.72ZM232.92,31.82L232.92,31.82L228.06,16.59L220.17,19.24L210.67,16.38L206.77,3.49L196.09,-56.64L213.98,-59.82L211.52,-73.69L193.62,-70.51L187.19,-106.71L169.09,-103.49L175.52,-67.30L160.64,-64.65L163.11,-50.78L177.99,-53.42L188.67,6.70L197.29,31.22L219.43,36.21ZM271.50,3.00L256.02,-22.88L333.64,-36.69L333.36,-44.11L314.57,-80.29L275.53,-89.40L242.71,-68.12L236.74,-24.32L257.44,14.74L295.58,23.41L323.89,9.28L333.80,-14.73L318.15,-21.02L310.37,-1.18L293.87,7.83ZM254.05,-37.48L261.15,-63.43L278.24,-74.04L300.31,-68.96L312.56,-47.88ZM421.14,-152.43L403.05,-149.22L412.13,-98.12L398.95,-106.47L381.44,-107.68L350.28,-85.91L345.72,-43.15L364.73,-4.58L401.49,5.13L418.36,-2.90L428.25,-19.07L430.79,-4.79L446.87,-7.65ZM385.22,-92.49L407.80,-85.81L421.84,-56.67L417.92,-24.35L399.80,-10.45L377.71,-17.21L364.19,-46.43L366.82,-78.53Z" fill="#ffffff" stroke="#000000"/>
    <path d="M-553.55,-0.40L-556.93,-17.24L-638.54,-0.88L-648.07,-48.41L-578.34,-62.39L-581.72,-79.23L-651.44,-65.25L-660.38,-109.82L-580.75,-125.78L-584.12,-142.62L-682.57,-122.88L-653.98,19.73ZM-482.44,-14.66L-464.86,-121.20L-481.82,-123.57L-494.89,-33.59L-541.24,-111.66L-555.98,-102.93L-498.68,-11.40ZM-411.01,-49.36L-426.88,-74.61L-350.43,-89.95L-350.86,-97.28L-370.23,-132.65L-409.03,-140.82L-441.02,-119.06L-445.97,-75.62L-424.66,-37.44L-386.75,-29.70L-359.07,-44.29L-349.78,-68.24L-365.40,-74.12L-372.67,-54.34L-388.78,-45.06ZM-429.15,-89.01L-422.69,-114.83L-406.02,-125.68L-384.08,-121.15L-371.51,-100.56ZM-295.35,-145.57L-281.08,-143.83L-278.75,-159.95L-297.52,-163.06L-313.48,-154.38L-322.04,-135.41L-325.61,-153.24L-341.66,-150.02L-321.21,-48.03L-303.18,-50.59L-314.34,-106.25L-312.80,-132.39ZM-231.38,-37.79L-237.33,-37.63L-237.61,-22.51L-225.91,-22.81L-208.16,-35.21L-200.82,-59.26L-181.92,-177.51L-198.37,-180.39L-211.87,-92.60L-258.78,-168.28L-273.63,-159.12L-215.81,-69.15L-217.65,-57.14L-222.86,-43.52ZM-101.70,-89.55L-101.70,-89.55L-106.83,-104.50L-114.58,-101.71L-124.04,-104.34L-128.17,-117.00L-140.05,-176.22L-122.42,-179.76L-125.16,-193.42L-142.79,-189.89L-149.93,-225.54L-167.76,-221.97L-160.61,-186.31L-175.27,-183.38L-172.53,-169.71L-157.87,-172.65L-146.00,-113.42L-136.95,-89.37L-114.94,-84.91ZM-82.52,-94.83L-64.57,-98.43L-75.80,-154.49L-73.31,-182.13L-55.01,-195.31L-36.74,-190.94L-27.70,-170.86L-15.17,-108.33L2.61,-111.90L-9.88,-174.58L-22.98,-204.78L-54.45,-211.40L-72.59,-203.23L-82.42,-187.36L-93.18,-241.04L-111.11,-237.45ZM17.43,-239.92L22.46,-248.26L20.46,-258.34L12.44,-264.24L3.28,-262.41L-1.67,-253.93L0.35,-243.86L8.27,-238.09ZM45.83,-120.56L25.18,-223.56L7.36,-219.99L28.01,-116.99ZM71.09,-125.63L88.92,-129.20L77.68,-185.26L80.11,-213.27L98.42,-226.46L116.67,-222.08L125.67,-202.29L138.34,-139.11L156.16,-142.68L143.50,-205.87L130.45,-235.93L98.97,-242.55L80.57,-234.44L69.47,-216.99L66.49,-231.84L50.44,-228.63ZM228.96,-112.45L262.75,-135.33L264.75,-171.45L245.45,-267.72L229.60,-264.54L232.38,-250.68L218.07,-261.50L198.98,-263.03L168.65,-240.82L165.07,-198.44L184.71,-160.71L221.26,-151.91L236.45,-158.91L246.09,-172.04L247.55,-164.47L245.87,-140.15L226.30,-127.90L208.88,-129.24L199.59,-141.91L186.64,-132.51L199.42,-115.36ZM203.03,-248.07L224.76,-241.81L240.04,-213.45L237.63,-181.55L219.23,-167.26L197.28,-173.47L183.27,-202.07L185.17,-233.87ZM336.54,-303.89L341.56,-312.24L339.56,-322.31L331.55,-328.22L322.39,-326.38L317.44,-317.90L319.45,-307.83L327.38,-302.06ZM364.94,-184.53L344.29,-287.53L326.46,-283.96L347.11,-180.96ZM395.07,-223.77L381.35,-213.65L395.48,-195.46L427.74,-192.87L455.41,-205.96L463.80,-233.30L451.55,-252.83L432.41,-258.27L407.10,-259.95L392.68,-262.62L386.65,-269.97L390.35,-281.28L406.40,-288.38L423.43,-287.21L433.00,-275.49L446.58,-285.57L434.40,-301.08L404.03,-303.74L377.08,-290.74L369.65,-264.48L381.36,-247.15L400.94,-242.21L427.67,-240.58L440.83,-236.97L445.90,-228.07L440.34,-214.51L425.30,-208.19L405.12,-210.62ZM-444.00,150.91L-483.11,140.91L-503.04,100.73L-499.37,55.83L-467.90,31.69L-438.05,35.58L-419.85,57.57L-404.78,45.73L-428.11,20.11L-471.14,15.53L-517.00,47.82L-523.23,104.79L-495.53,154.95L-440.76,167.06L-402.95,146.06L-391.41,114.50L-409.60,108.70L-419.27,136.26ZM-338.63,30.58L-371.13,52.44L-376.58,95.99L-354.76,134.06L-316.35,141.70L-283.85,119.84L-278.38,76.30L-300.20,38.22ZM-319.39,126.56L-342.72,121.42L-358.38,92.36L-355.13,59.49L-335.59,45.75L-312.24,50.89L-296.56,79.96L-299.83,112.82ZM-249.71,124.12L-231.88,120.55L-243.12,64.49L-240.70,36.48L-222.38,23.29L-204.13,27.67L-195.13,47.46L-182.47,110.64L-164.64,107.07L-177.31,43.88L-190.35,13.82L-221.83,7.20L-240.23,15.31L-251.34,32.76L-254.31,17.91L-270.36,21.12ZM-139.78,102.08L-121.95,98.51L-133.19,42.45L-130.76,14.44L-112.45,1.25L-94.20,5.63L-85.20,25.42L-72.53,88.60L-54.71,85.03L-67.37,21.84L-80.42,-8.22L-111.90,-14.84L-130.30,-6.73L-141.40,10.72L-144.38,-4.13L-160.43,-0.92ZM-11.60,56.01L-27.47,30.76L48.99,15.41L48.55,8.08L29.19,-27.29L-9.62,-35.45L-41.61,-13.70L-46.56,29.75L-25.25,67.93L12.66,75.67L40.34,61.08L49.63,37.12L34.01,31.24L26.75,51.03L10.63,60.30ZM-29.74,16.36L-23.28,-9.46L-6.60,-20.32L15.33,-15.78L27.90,4.80ZM117.46,38.98L94.62,33.73L79.45,4.56L82.21,-28.20L101.25,-41.85L118.58,-39.46L132.10,-23.22L145.90,-33.98L128.24,-53.42L98.22,-56.99L66.21,-35.24L61.26,8.21L82.57,46.39L120.49,54.13L146.84,39.37L155.54,15.16L138.78,10.12L132.52,30.14ZM226.21,30.15L226.21,30.15L221.07,15.20L213.33,17.99L203.87,15.36L199.73,2.70L187.86,-56.52L205.49,-60.06L202.75,-73.72L185.12,-70.19L177.97,-105.84L160.14,-102.27L167.29,-66.62L152.63,-63.68L155.37,-50.01L170.03,-52.95L181.91,6.28L190.96,30.33L212.96,34.79ZM263.73,0.81L247.86,-24.44L324.32,-39.79L323.88,-47.11L304.52,-82.48L265.71,-90.65L233.72,-68.89L228.77,-25.45L250.08,12.73L287.99,20.47L315.67,5.88L324.96,-18.07L309.34,-23.96L302.07,-4.17L285.96,5.11ZM245.59,-38.84L252.05,-64.66L268.73,-75.52L290.66,-70.98L303.23,-50.39ZM408.34,-156.15L390.51,-152.57L400.60,-102.24L387.38,-110.22L370.05,-111.03L339.71,-88.82L336.12,-46.43L355.76,-8.71L392.32,0.09L408.83,-8.21L418.26,-24.42L421.08,-10.35L436.93,-13.53ZM374.11,-96.09L396.58,-89.98L411.10,-61.47L407.94,-29.42L390.31,-15.28L368.33,-21.48L354.31,-50.08L356.22,-81.89Z" fill="#ffffff" stroke="#000000"/>
    <path d="M-552.03,15.45L-555.73,-1.12L-636.07,16.83L-646.52,-29.97L-577.89,-45.31L-581.59,-61.88L-650.23,-46.54L-660.03,-90.42L-581.64,-107.93L-585.35,-124.51L-682.26,-102.85L-650.89,37.54ZM-482.03,-0.19L-466.96,-105.92L-483.78,-107.89L-494.75,-18.64L-542.27,-94.82L-556.65,-85.88L-498.01,3.38ZM-412.15,-36.05L-428.39,-60.68L-353.13,-77.51L-353.72,-84.75L-373.63,-119.30L-412.18,-126.53L-443.34,-104.32L-447.29,-61.26L-425.39,-23.97L-387.74,-17.14L-360.68,-32.17L-352.02,-56.06L-367.59,-61.54L-374.34,-41.81L-390.08,-32.29ZM-430.95,-74.86L-425.12,-100.53L-408.87,-111.63L-387.08,-107.62L-374.20,-87.54ZM-299.88,-133.71L-285.73,-132.29L-283.78,-148.28L-302.40,-150.95L-318.00,-142.01L-326.05,-123.08L-329.97,-140.62L-345.76,-137.10L-323.33,-36.69L-305.56,-39.62L-317.80,-94.41L-316.85,-120.30ZM-234.29,-28.52L-240.16,-28.23L-240.11,-13.28L-228.56,-13.83L-211.27,-26.48L-204.53,-50.42L-188.42,-167.75L-204.74,-170.24L-216.18,-83.14L-264.22,-156.95L-278.70,-147.58L-219.57,-59.87L-221.13,-47.96L-225.98,-34.37ZM-107.18,-82.52L-107.18,-82.52L-112.59,-97.19L-120.18,-94.26L-129.59,-96.66L-133.96,-109.08L-146.99,-167.39L-129.63,-171.26L-132.64,-184.72L-149.99,-180.84L-157.83,-215.94L-175.38,-212.02L-167.54,-176.92L-181.97,-173.69L-178.96,-160.24L-164.54,-163.46L-151.51,-105.16L-142.03,-81.57L-120.18,-77.65ZM-88.34,-88.16L-70.66,-92.11L-82.99,-147.29L-81.13,-174.68L-63.32,-188.11L-45.16,-184.18L-35.79,-164.53L-22.04,-102.97L-4.54,-106.88L-18.25,-168.60L-31.85,-198.17L-63.12,-204.03L-80.88,-195.56L-90.25,-179.65L-102.06,-232.50L-119.71,-228.55ZM7.34,-233.79L12.13,-242.15L9.93,-252.07L1.88,-257.73L-7.14,-255.72L-11.85,-247.23L-9.64,-237.32L-1.68,-231.78ZM38.02,-116.39L15.36,-217.79L-2.19,-213.87L20.47,-112.47ZM62.88,-121.95L80.43,-125.87L68.10,-181.05L69.89,-208.81L87.71,-222.24L105.85,-218.31L115.18,-198.94L129.08,-136.74L146.63,-140.66L132.73,-202.86L119.18,-232.30L87.91,-238.16L69.89,-229.75L59.29,-212.25L56.02,-226.87L40.23,-223.34ZM219.26,-112.35L252.18,-135.71L253.37,-171.47L232.19,-266.24L216.59,-262.75L219.64,-249.10L205.26,-259.49L186.35,-260.59L156.84,-237.97L154.23,-195.99L174.46,-159.11L210.79,-151.20L225.66,-158.46L234.90,-171.64L236.51,-164.19L235.38,-140.11L216.30,-127.57L199.04,-128.52L189.58,-140.84L176.98,-131.27L189.99,-114.59ZM190.68,-245.89L212.30,-240.17L228.03,-212.46L226.33,-180.87L208.46,-166.33L186.61,-172.00L172.14,-199.97L173.33,-231.46ZM321.47,-303.98L326.26,-312.34L324.06,-322.26L316.01,-327.93L306.99,-325.91L302.28,-317.42L304.49,-307.51L312.45,-301.97ZM352.15,-186.58L329.49,-287.98L311.94,-284.06L334.60,-182.66ZM381.09,-226.03L367.74,-215.73L382.11,-198.05L414.07,-196.19L441.14,-209.73L448.84,-236.96L436.30,-256.00L417.26,-260.96L392.20,-262.07L377.88,-264.40L371.76,-271.53L375.17,-282.79L390.89,-290.16L407.75,-289.38L417.47,-278.00L430.67,-288.26L418.29,-303.33L388.21,-305.30L361.84,-291.87L355.07,-265.73L367.02,-248.86L386.49,-244.39L412.96,-243.37L426.05,-240.08L431.26,-231.39L426.06,-217.86L411.32,-211.28L391.31,-213.25ZM-440.42,162.68L-479.30,153.64L-499.88,114.35L-497.23,69.87L-466.64,45.31L-437.04,48.51L-418.56,69.87L-403.92,57.83L-427.54,33.01L-470.19,29.41L-514.84,62.33L-519.76,118.81L-491.27,167.80L-436.86,178.58L-399.93,156.99L-389.20,125.54L-407.32,120.20L-416.28,147.66ZM-338.84,41.42L-370.51,63.73L-374.95,106.91L-352.55,144.08L-314.40,150.80L-282.74,128.48L-278.28,85.31L-300.68,48.13ZM-317.73,135.89L-340.91,131.32L-357.03,102.92L-354.53,70.36L-335.51,56.34L-312.31,60.92L-296.17,89.32L-298.69,121.88ZM-248.89,131.97L-231.34,128.05L-243.67,72.87L-241.88,45.11L-224.06,31.68L-205.92,35.61L-196.59,54.98L-182.69,117.18L-165.14,113.26L-179.04,51.06L-192.60,21.62L-223.87,15.76L-241.88,24.17L-252.48,41.67L-255.75,27.05L-271.55,30.58ZM-140.67,107.79L-123.12,103.87L-135.45,48.69L-133.66,20.93L-115.84,7.50L-97.70,11.43L-88.37,30.80L-74.47,93.00L-56.92,89.08L-70.82,26.87L-84.38,-2.56L-115.65,-8.43L-133.66,-0.01L-144.26,17.49L-147.53,2.86L-163.33,6.39ZM-14.93,59.44L-31.17,34.82L44.09,17.99L43.50,10.75L23.58,-23.80L-14.96,-31.03L-46.13,-8.83L-50.07,34.24L-28.17,71.53L9.48,78.36L36.54,63.33L45.20,39.44L29.63,33.96L22.87,53.69L7.14,63.21ZM-33.73,20.63L-27.90,-5.04L-11.65,-16.14L10.13,-12.13L23.01,7.95ZM112.30,39.80L89.61,35.11L73.98,6.60L75.99,-25.86L94.53,-39.77L111.71,-37.78L125.43,-22.02L138.84,-32.95L120.96,-51.79L91.19,-54.67L60.02,-32.47L56.07,10.60L77.97,47.89L115.64,54.71L141.37,39.54L149.44,15.42L132.76,10.80L127.01,30.73ZM219.64,28.71L219.64,28.70L214.24,14.03L206.64,16.97L197.23,14.57L192.87,2.14L179.84,-56.16L197.19,-60.04L194.19,-73.49L176.83,-69.61L168.99,-104.71L151.44,-100.79L159.28,-65.69L144.85,-62.47L147.86,-49.01L162.29,-52.24L175.32,6.06L184.79,29.65L206.65,33.58ZM256.11,-1.12L239.87,-25.74L315.13,-42.58L314.53,-49.81L294.62,-84.36L256.07,-91.59L224.91,-69.39L220.97,-26.32L242.87,10.96L280.52,17.79L307.57,2.76L316.24,-21.12L300.67,-26.60L293.91,-6.88L278.18,2.65ZM237.31,-39.93L243.14,-65.60L259.39,-76.70L281.17,-72.69L294.05,-52.61ZM395.67,-159.46L378.13,-155.54L389.20,-105.99L375.96,-113.59L358.80,-114.01L329.28,-91.39L326.65,-49.41L346.90,-12.53L383.24,-4.63L399.38,-13.20L408.35,-29.42L411.45,-15.58L427.04,-19.06ZM363.14,-99.33L385.49,-93.78L400.47,-65.90L398.03,-34.15L380.91,-19.78L359.04,-25.43L344.57,-53.41L345.76,-84.90Z" fill="#ffffff" stroke="#000000"/>
    <path d="M-906.35,492L-906.35,469.28L-898.22,492L-894.99,492L-886.86,469.28L-886.86,492L-883.25,492L-883.25,464.64L-888.22,464.64L-896.55,487.33L-904.68,464.64L-909.96,464.64L-909.96,492ZM-865.67,478.75L-876.82,482.17L-879.09,486.89L-877.05,491.38L-872.23,492.78L-868.69,492.09L-865.45,489.71L-865.46,492L-862.27,492L-862.27,479.25L-864.06,473.45L-869.98,471.46L-875.30,472.76L-877.88,476.62L-875.17,478.28L-873.43,475.28L-870.33,474.25L-867.00,475.23ZM-865.67,481.77L-865.68,486.77L-868.09,488.89L-871.68,489.99L-874.26,489.33L-875.44,486.74L-873.91,484.05ZM-857.12,492L-853.70,492L-853.70,481.25L-852.22,476.17L-848.35,474.41L-845.15,475.90L-844.22,479.88L-844.22,492L-840.80,492L-840.80,479.88L-842.09,473.85L-847.66,471.47L-851.35,472.28L-854.04,475.09L-854.04,472.24L-857.12,472.24ZM-833.34,468.94L-832.11,467.58L-832.10,465.65L-833.36,464.27L-835.12,464.27L-836.35,465.65L-836.35,467.58L-835.10,468.94ZM-832.52,492L-832.52,472.24L-835.94,472.24L-835.94,492ZM-818.31,468.12L-817.85,465.29L-820.94,464.71L-825.30,466.41L-826.70,471.29L-826.70,472.24L-829.67,472.24L-829.67,474.86L-826.70,474.86L-826.70,492L-823.40,492L-823.40,474.86L-819.56,474.86L-819.56,472.24L-823.40,472.24L-823.40,471.21L-822.75,468.65L-820.52,467.74ZM-807.97,471.46L-814.77,474.29L-817.39,482.12L-814.77,489.95L-807.97,492.78L-801.17,489.95L-798.55,482.12L-801.16,474.29ZM-807.97,489.87L-812.08,488.06L-813.90,482.12L-812.08,476.18L-807.97,474.37L-803.85,476.18L-802.04,482.12L-803.85,488.06ZM-795.03,492L-791.61,492L-791.61,481.25L-790.13,476.17L-786.26,474.41L-783.06,475.90L-782.13,479.88L-782.13,492L-778.71,492L-778.71,479.88L-780.00,473.85L-785.56,471.47L-789.26,472.28L-791.95,475.09L-791.95,472.24L-795.03,472.24ZM-765.45,492.27L-765.45,492.26L-765.85,489.32L-767.38,489.55L-769.03,488.71L-769.32,486.22L-769.32,474.86L-765.94,474.86L-765.94,472.24L-769.32,472.24L-769.32,465.40L-772.74,465.40L-772.74,472.24L-775.55,472.24L-775.55,474.86L-772.74,474.86L-772.74,486.22L-771.96,491.00L-768.07,492.63ZM-737.50,487.93L-737.50,478.13L-749.05,478.13L-749.05,481.31L-740.99,481.31L-740.97,486.22L-748.63,489.75L-755.95,486.41L-758.55,478.32L-756.06,470.17L-749.21,466.88L-744.27,468.25L-741.30,473.01L-738.24,471.11L-741.44,465.93L-749.13,463.79L-758.98,468.04L-762.42,478.32L-758.78,488.60L-748.74,492.86ZM-724.35,474.77L-721.78,475.62L-720.76,472.73L-724.11,471.47L-727.37,472.48L-729.65,475.66L-729.65,472.24L-732.73,472.24L-732.73,491.81L-729.31,492L-729.31,481.32L-728.06,476.56ZM-710.01,471.46L-716.81,474.29L-719.42,482.12L-716.81,489.95L-710.01,492.78L-703.20,489.95L-700.58,482.12L-703.20,474.29ZM-710.01,489.87L-714.12,488.06L-715.93,482.12L-714.12,476.18L-710.01,474.37L-705.89,476.18L-704.07,482.12L-705.89,488.06ZM-688.58,492.27L-688.58,492.26L-688.97,489.32L-690.51,489.55L-692.15,488.71L-692.45,486.22L-692.45,474.86L-689.07,474.86L-689.07,472.24L-692.45,472.24L-692.45,465.40L-695.87,465.40L-695.87,472.24L-698.68,472.24L-698.68,474.86L-695.87,474.86L-695.87,486.22L-695.09,491.00L-691.19,492.63ZM-680.57,488.24L-682.57,483.00L-667.90,482.99L-667.71,481.63L-669.97,474.39L-676.83,471.45L-683.53,474.28L-686.05,482.11L-683.53,489.93L-676.83,492.76L-671.18,491.10L-668.58,487.02L-671.25,485.36L-673.32,488.74L-676.63,489.86ZM-682.45,480.26L-680.31,475.73L-676.83,474.35L-672.95,476.00L-671.40,480.26ZM-661.99,485.88L-664.90,487.24L-662.96,491.11L-657.11,492.78L-651.52,491.39L-648.97,486.66L-650.50,482.61L-653.83,480.90L-658.44,479.65L-661.00,478.62L-661.84,477.05L-660.74,475.10L-657.52,474.38L-654.42,475.23L-653.09,477.74L-650.21,476.38L-651.88,473.07L-657.39,471.46L-662.84,472.86L-665.18,477.43L-663.66,481.06L-660.23,482.69L-655.36,483.98L-653.07,485.13L-652.46,486.96L-653.99,489.26L-656.99,489.87L-660.63,488.67ZM-641.92,483.45L-638.72,483.45L-637.20,484.67L-633.14,492.30L-630.05,490.63L-634.16,483.45L-636.67,482.04L-634.62,480.06L-632.77,476.14L-631.66,475.64L-630.10,475.39L-630.56,472.24L-633.40,472.52L-635.30,474.17L-637.43,478.82L-638.72,480.60L-641.91,480.60L-641.91,464.64L-643.66,464.64L-645.32,464.64L-645.33,492L-641.92,492ZM-625.58,492.01L-615.04,492.01L-607.42,490.45L-604.53,484.21L-606.06,480.03L-610.31,477.70L-606.80,475.27L-605.82,471.62L-608.58,466.13L-615.58,464.63L-625.58,464.63ZM-621.94,476.42L-621.95,467.89L-616.40,467.89L-611.64,468.44L-609.62,472.08L-611.57,475.51L-615.93,476.42ZM-621.94,488.79L-621.94,479.64L-615.54,479.64L-610.64,480.53L-608.45,484.21L-610.32,488.02L-615.04,488.79ZM-592.40,471.46L-599.20,474.29L-601.81,482.12L-599.20,489.95L-592.40,492.78L-585.59,489.95L-582.97,482.12L-585.59,474.29ZM-592.40,489.87L-596.51,488.06L-598.32,482.12L-596.51,476.18L-592.40,474.37L-588.28,476.18L-586.46,482.12L-588.28,488.06ZM-571.27,471.46L-578.07,474.29L-580.68,482.12L-578.07,489.95L-571.27,492.78L-564.46,489.95L-561.85,482.12L-564.46,474.29ZM-571.27,489.87L-575.38,488.06L-577.19,482.12L-575.38,476.18L-571.27,474.37L-567.15,476.18L-565.33,482.12L-567.15,488.06ZM-554.82,483.45L-551.62,483.45L-550.10,484.67L-546.04,492.30L-542.96,490.63L-547.06,483.45L-549.57,482.04L-547.52,480.06L-545.67,476.14L-544.56,475.64L-543.00,475.39L-543.46,472.24L-546.31,472.52L-548.20,474.17L-550.34,478.82L-551.62,480.60L-554.82,480.60L-554.82,464.64L-556.56,464.64L-558.23,464.64L-558.23,492L-554.82,492Z"/>
</svg>