<?xml version="1.0"?>
<svg xmlns="http://www.w3.org/2000/svg" width="1920" height="1080" viewBox="-960 -540 1920 1080">
    <path d="M-438.89,-147L-426.91,-147L-426.91,-227.81L-485.74,-227.81L-485.74,-211.60L-440.23,-211.60C-442.22,-186.52 -461.98,-175.64 -491.95,-175.64C-525.92,-175.64 -545.01,-193.18 -545.01,-221.15C-544.79,-249.12 -528.58,-271.99 -491.95,-271.99C-469.97,-271.99 -453.99,-266.66 -444.22,-254.67L-431.12,-254.67L-431.12,-311.28L-444.22,-311.28L-444.22,-287.75C-453.32,-302.40 -471.75,-311.28 -491.95,-311.28C-530.58,-311.28 -559.00,-287.53 -559.00,-225.59C-559.00,-170.75 -532.36,-144.78 -492.40,-144.78C-469.75,-144.78 -452.21,-150.33 -441.11,-164.98ZM-402.49,-178.52L-402.49,-146.56C-396.27,-146.78 -359.64,-146.78 -347.21,-146.56L-347.21,-178.52L-367.19,-178.52L-367.19,-210.27C-367.19,-225.81 -359.20,-234.47 -348.32,-234.47C-338.33,-234.47 -333.00,-232.03 -330.34,-226.25L-321.90,-263.11C-327.67,-267.99 -332.78,-271.32 -343.43,-271.32C-352.54,-271.32 -363.64,-265.10 -368.74,-251.78L-376.29,-269.10L-402.49,-269.10L-402.49,-232.69C-397.16,-232.69 -390.94,-232.91 -381.84,-232.69L-381.84,-178.52ZM-202.24,-147C-193.36,-147 -187.15,-150.11 -183.15,-155.21L-183.15,-182.74C-188.26,-176.30 -193.81,-174.31 -200.69,-174.31C-206.02,-174.31 -210.68,-176.97 -212.45,-182.08L-212.45,-217.15C-212.45,-258.22 -226.00,-271.32 -256.19,-271.32C-272.84,-271.32 -286.82,-266.21 -295.26,-256.22L-294.37,-227.59C-288.38,-234.69 -277.28,-240.68 -258.41,-240.68C-237.54,-240.68 -227.77,-232.03 -226.66,-211.16C-235.99,-217.60 -251.53,-219.59 -261.96,-219.59C-288.38,-219.59 -306.36,-204.72 -306.36,-181.41C-306.36,-159.88 -291.26,-144.78 -259.74,-144.78C-245.31,-144.78 -231.32,-150.77 -223.78,-158.99C-219.34,-151.22 -211.79,-147 -202.24,-147ZM-259.52,-172.53C-280.16,-172.53 -289.04,-178.08 -289.04,-187.85C-289.04,-198.06 -279.72,-203.83 -257.96,-203.83C-245.53,-203.83 -235.54,-200.50 -226.44,-193.62L-226.44,-182.30C-233.54,-175.64 -245.75,-172.53 -259.52,-172.53ZM-79.48,-177.86C-79.48,-202.50 -91.02,-212.27 -122.77,-215.38C-142.30,-217.37 -148.74,-221.37 -148.74,-227.14C-148.74,-235.36 -139.19,-241.79 -122.54,-241.79C-103.90,-241.79 -97.01,-236.69 -92.80,-228.70L-82.36,-228.70L-82.36,-269.32L-92.80,-269.32L-92.80,-259.78C-101.01,-267.10 -114.11,-271.32 -126.32,-271.32C-149.18,-271.32 -165.39,-258 -165.39,-237.13C-165.39,-210.94 -152.96,-202.28 -124.10,-199.39C-105.23,-197.39 -97.24,-193.40 -97.24,-187.40C-97.24,-179.86 -105.45,-173.20 -125.43,-173.20C-145.41,-173.20 -149.18,-180.97 -156.07,-189.85L-166.06,-189.85L-166.06,-147L-156.07,-147L-156.07,-159.43C-148.74,-150.77 -136.09,-144.78 -121.43,-144.78C-94.79,-144.78 -79.48,-157.88 -79.48,-177.86ZM-57.28,-134.35L-57.28,-102.38C-51.06,-102.60 -14.43,-102.60 -2.00,-102.38L-2.00,-134.35L-21.76,-134.35L-21.76,-161.21C-11.77,-149.89 0.44,-144.78 13.10,-144.78C40.18,-144.78 60.61,-164.09 60.61,-204.28C60.61,-254.89 41.07,-271.32 14.43,-271.32C0.67,-271.32 -14.43,-265.10 -21.76,-249.56L-21.76,-269.10L-57.28,-269.10L-57.28,-232.69C-53.28,-232.91 -44.84,-232.91 -36.19,-232.91L-36.19,-134.35ZM12.21,-173.20C-2.44,-173.42 -16.21,-177.41 -21.76,-188.96L-21.76,-210.49C-21.76,-225.81 -11.77,-234.47 12.88,-234.47C33.97,-234.47 47.29,-224.70 47.29,-206.05C47.51,-181.19 34.19,-172.75 12.21,-173.20ZM224.00,-158.99L218.00,-181.41C214.45,-177.41 206.90,-174.31 197.58,-174.53C186.70,-174.75 179.15,-180.30 179.15,-196.28L179.15,-232.25L212.45,-232.25L212.45,-266.88L179.15,-266.88L179.15,-295.74L164.72,-295.74L164.72,-266.88L147.19,-266.88L147.19,-232.25L164.72,-232.25L164.72,-180.97C164.72,-154.10 177.38,-144.78 194.69,-144.78C207.35,-144.78 220.00,-150.11 224.00,-158.99ZM302.36,-147L302.36,-178.97L280.16,-178.97L280.16,-211.16C285.94,-226.70 298.15,-233.14 315.02,-233.14C333.89,-233.14 343.88,-222.92 343.88,-200.50L343.88,-178.97L320.35,-178.97L320.35,-147L378.73,-147L378.73,-178.97L357.86,-178.97L357.86,-214.49C357.86,-257.78 345.65,-271.32 318.79,-271.32C300.59,-271.32 286.38,-263.11 280.16,-248.45L280.16,-324.16L243.98,-324.16L243.98,-285.31L265.96,-285.31L265.96,-178.97L243.98,-178.97L243.98,-147ZM494.39,-174.97L483.96,-184.96C477.52,-176.08 468.20,-171.42 448.66,-171.64C428.24,-171.86 415.14,-178.97 412.25,-198.50L497.95,-198.50C497.95,-253.34 478.85,-271.32 448.66,-271.32C422.02,-271.32 398.71,-253.56 398.71,-206.27C398.71,-170.31 415.81,-144.78 449.11,-144.78C470.64,-144.78 487.07,-158.10 494.39,-174.97ZM447.55,-237.58C470.20,-237.58 484.18,-226.48 484.18,-212.93L412.25,-212.93C415.36,-229.81 430.90,-237.58 447.55,-237.58ZM-413.59,66.12L-413.59,34.82L-445.11,34.82L-445.11,-55.98L-414.92,-55.98L-414.92,-95.94L-492.17,-95.94L-492.17,-55.98L-461.09,-55.98L-461.09,34.82L-493.51,34.82L-493.51,66.12ZM-386.95,34.37L-386.95,66.34C-380.73,66.12 -344.10,66.12 -331.67,66.34L-331.67,34.37L-351.43,34.37L-351.43,1.74C-345.43,-13.80 -332.78,-20.24 -315.91,-20.24C-295.04,-20.24 -286.60,-10.03 -286.60,12.62L-286.60,34.37L-308.14,34.37L-308.14,66.34C-298.81,66.12 -274.61,66.34 -252.41,66.34L-252.41,34.37L-272.62,34.37L-272.62,-1.15C-272.62,-44.66 -285.27,-58.20 -314.80,-58.20C-331.45,-58.20 -346.99,-48.43 -351.43,-31.56L-351.43,-55.98L-386.95,-55.98L-386.95,-19.57C-382.95,-19.79 -374.51,-19.79 -365.86,-19.79L-365.86,34.37ZM-169.16,66.12L-138.75,-19.57L-121.43,-19.57L-121.43,-55.98L-177.82,-55.98L-177.82,-19.57L-165.39,-19.57L-184.48,38.37L-205.79,-19.57L-192.92,-19.57L-192.92,-55.98L-239.09,-55.98L-239.09,-19.57L-221.33,-19.57L-190.25,66.12ZM-63.71,-91.28C-63.71,-104.15 -70.82,-109.26 -82.81,-109.26C-96.13,-109.26 -102.79,-103.93 -102.79,-91.28C-102.79,-78.62 -95.68,-72.63 -82.81,-72.63C-71.26,-72.63 -63.71,-78.62 -63.71,-91.28ZM-107.00,34.37L-107.00,66.34C-97.46,66.12 -88.36,66.12 -79.25,66.12L-71.48,66.12C-61.94,66.12 -52.39,66.34 -42.40,66.34L-42.40,34.37L-64.82,34.37L-64.82,-51.54L-107.00,-51.54L-107.00,-15.13L-79.25,-15.13L-79.25,34.37ZM66.38,35.26C66.38,10.62 54.83,0.85 23.09,-2.26C3.55,-4.25 -2.89,-8.25 -2.89,-14.02C-2.89,-22.24 6.66,-28.67 23.31,-28.67C41.96,-28.67 48.84,-23.57 53.06,-15.58L63.49,-15.58L63.49,-56.20L53.06,-56.20L53.06,-46.66C44.84,-53.98 31.75,-58.20 19.54,-58.20C-3.33,-58.20 -19.54,-44.88 -19.54,-24.01C-19.54,2.18 -7.10,10.84 21.76,13.73C40.63,15.73 48.62,19.72 48.62,25.72C48.62,33.26 40.40,39.92 20.42,39.92C0.44,39.92 -3.33,32.15 -10.21,23.27L-20.20,23.27L-20.20,66.12L-10.21,66.12L-10.21,53.69C-2.89,62.35 9.77,68.34 24.42,68.34C51.06,68.34 66.38,55.24 66.38,35.26ZM135.20,-91.28C135.20,-104.15 128.09,-109.26 116.11,-109.26C102.79,-109.26 96.13,-103.93 96.13,-91.28C96.13,-78.62 103.23,-72.63 116.11,-72.63C127.65,-72.63 135.20,-78.62 135.20,-91.28ZM91.91,34.37L91.91,66.34C101.45,66.12 110.56,66.12 119.66,66.12L127.43,66.12C136.97,66.12 146.52,66.34 156.51,66.34L156.51,34.37L134.09,34.37L134.09,-51.54L91.91,-51.54L91.91,-15.13L119.66,-15.13L119.66,34.37ZM246.86,68.34C276.61,68.34 293.71,45.92 293.71,7.07C293.71,-40.66 275.28,-58.42 247.97,-58.20C233.77,-57.98 218.23,-52.65 210.68,-36.22L210.68,-111.26L172.05,-111.26L172.05,-72.41L196.25,-72.41L196.25,34.15L172.05,34.15L172.05,66.12L208.46,66.12L210.01,47.03C217.12,59.24 230.66,68.34 246.86,68.34ZM245.53,42.14C227.77,42.14 218.00,39.04 210.68,29.05L210.68,7.07C210.90,-10.03 220.45,-22.24 246.42,-22.24C269.29,-22.24 280.61,-10.25 280.61,7.07C280.83,28.60 269.06,42.14 245.53,42.14ZM355.42,68.34C371.41,68.34 380.51,61.68 385.39,54.58L379.18,30.38C374.96,34.82 368.30,37.26 359.42,37.26C346.54,37.26 341.66,29.49 341.66,16.17L341.66,-111.70L304.81,-111.70L304.81,-72.85L326.56,-72.85L326.56,33.04C326.56,57.91 335.89,68.34 355.42,68.34ZM495.50,38.15L485.07,28.16C478.63,37.04 469.31,41.70 449.77,41.48C429.35,41.26 416.25,34.15 413.36,14.62L499.06,14.62C499.06,-40.22 479.96,-58.20 449.77,-58.20C423.13,-58.20 399.82,-40.44 399.82,6.85C399.82,42.81 416.92,68.34 450.22,68.34C471.75,68.34 488.18,55.02 495.50,38.15ZM448.66,-24.46C471.31,-24.46 485.29,-13.36 485.29,0.19L413.36,0.19C416.47,-16.69 432.01,-24.46 448.66,-24.46Z" fill="#ffffff" stroke="#000000"/>
    <path d="M-434.74,-159.11L-422.88,-158.66L-419.86,-238.60L-478.06,-240.81L-478.66,-224.77L-433.64,-223.07C-436.56,-198.33 -456.51,-188.31 -486.16,-189.43C-519.76,-190.70 -537.99,-208.76 -536.94,-236.44C-535.68,-264.10 -518.79,-286.12 -482.55,-284.74C-460.81,-283.92 -445.20,-278.05 -435.98,-265.83L-423.02,-265.34L-420.90,-321.34L-433.86,-321.83L-434.74,-298.55C-443.20,-313.39 -461.09,-322.86 -481.08,-323.62C-519.30,-325.06 -548.30,-302.63 -550.61,-241.35C-552.67,-187.11 -527.28,-160.41 -487.75,-158.92C-465.35,-158.07 -447.79,-162.90 -436.26,-176.98ZM-397.54,-188.93L-398.74,-157.31C-392.58,-157.30 -356.34,-155.92 -344.05,-155.24L-342.86,-186.87L-362.62,-187.61L-361.43,-219.02C-360.85,-234.39 -352.62,-242.66 -341.86,-242.25C-331.98,-241.88 -326.80,-239.26 -324.38,-233.45L-314.65,-269.59C-320.18,-274.64 -325.11,-278.13 -335.65,-278.53C-344.65,-278.87 -355.87,-273.13 -361.42,-260.15L-368.24,-277.56L-394.15,-278.54L-395.51,-242.52C-390.24,-242.32 -384.09,-242.31 -375.09,-241.75L-377.12,-188.16ZM-200.62,-150.25C-191.84,-149.92 -185.57,-152.76 -181.43,-157.66L-180.40,-184.90C-185.69,-178.72 -191.25,-176.95 -198.06,-177.21C-203.33,-177.41 -207.85,-180.22 -209.41,-185.34L-208.10,-220.04C-206.56,-260.67 -219.47,-274.13 -249.34,-275.26C-265.81,-275.88 -279.84,-271.36 -288.56,-261.79L-288.75,-233.42C-282.55,-240.23 -271.35,-245.74 -252.68,-245.04C-232.04,-244.25 -222.70,-235.32 -222.38,-214.64C-231.36,-221.36 -246.66,-223.91 -256.98,-224.30C-283.12,-225.29 -301.46,-211.25 -302.34,-188.19C-303.14,-166.89 -288.77,-151.39 -257.59,-150.21C-243.31,-149.67 -229.25,-155.07 -221.48,-162.92C-217.38,-155.07 -210.07,-150.61 -200.62,-150.25ZM-256.33,-177.65C-276.75,-178.43 -285.33,-184.25 -284.97,-193.91C-284.58,-204.02 -275.14,-209.38 -253.62,-208.56C-241.32,-208.10 -231.56,-204.43 -222.82,-197.28L-223.24,-186.08C-230.52,-179.76 -242.71,-177.14 -256.33,-177.65ZM-78.02,-176.19C-77.09,-200.56 -88.15,-210.66 -119.44,-214.92C-138.69,-217.63 -144.91,-221.82 -144.69,-227.53C-144.39,-235.66 -134.70,-241.67 -118.23,-241.05C-99.78,-240.35 -93.16,-235.04 -89.29,-226.98L-78.97,-226.59L-77.45,-266.78L-87.77,-267.17L-88.13,-257.72C-95.98,-265.28 -108.78,-269.94 -120.86,-270.40C-143.48,-271.26 -160.01,-258.68 -160.79,-238.04C-161.77,-212.12 -149.80,-203.09 -121.35,-199.16C-102.76,-196.48 -95.00,-192.22 -95.23,-186.29C-95.51,-178.83 -103.89,-172.55 -123.65,-173.29C-143.42,-174.04 -146.86,-181.87 -153.34,-190.91L-163.22,-191.29L-164.82,-148.90L-154.94,-148.52L-154.48,-160.82C-147.55,-151.98 -135.26,-145.58 -120.76,-145.03C-94.41,-144.03 -78.76,-156.42 -78.02,-176.19ZM-57.68,-132.31L-58.88,-100.68C-52.72,-100.67 -16.48,-99.30 -4.19,-98.61L-3.00,-130.24L-22.54,-130.98L-21.54,-157.55C-12.08,-145.98 -0.19,-140.47 12.33,-140.00C39.12,-138.98 60.05,-157.33 61.56,-197.08C63.45,-247.15 44.74,-264.13 18.38,-265.13C4.77,-265.65 -10.40,-260.06 -18.23,-244.96L-17.50,-264.29L-52.64,-265.62L-54.00,-229.60C-50.04,-229.67 -41.69,-229.36 -33.13,-229.03L-36.82,-131.52ZM12.51,-168.14C-1.97,-168.91 -15.44,-173.38 -20.50,-185.01L-19.69,-206.31C-19.12,-221.46 -8.91,-229.65 15.47,-228.73C36.33,-227.94 49.14,-217.78 48.44,-199.33C47.73,-174.73 34.24,-166.88 12.51,-168.14ZM221.50,-146.16L216.41,-168.56C212.75,-164.74 205.16,-161.95 195.95,-162.52C185.20,-163.15 177.94,-168.92 178.53,-184.73L179.88,-220.31L212.82,-219.07L214.12,-253.33L181.18,-254.57L182.26,-283.12L167.98,-283.66L166.90,-255.11L149.55,-255.77L148.26,-221.51L165.61,-220.85L163.69,-170.12C162.68,-143.54 174.85,-133.85 191.98,-133.20C204.50,-132.73 217.22,-137.52 221.50,-146.16ZM298.58,-131.36L299.78,-162.99L277.81,-163.82L279.02,-195.67C285.31,-210.82 297.63,-216.74 314.32,-216.10C332.99,-215.40 342.49,-204.92 341.65,-182.74L340.85,-161.44L317.57,-162.32L316.37,-130.69L374.13,-128.51L375.33,-160.13L354.68,-160.91L356.01,-196.05C357.63,-238.88 346.06,-252.73 319.49,-253.74C301.48,-254.42 287.11,-246.83 280.42,-232.56L283.25,-307.45L247.45,-308.81L246.00,-270.38L267.74,-269.55L263.76,-164.35L242.02,-165.18L240.82,-133.55ZM489.60,-151.85L479.65,-162.12C472.95,-153.58 463.55,-149.32 444.23,-150.27C424.04,-151.25 411.35,-158.77 409.22,-178.20L494.00,-175.00C496.05,-229.24 477.83,-247.75 447.97,-248.88C421.61,-249.87 397.89,-233.18 396.12,-186.40C394.77,-150.82 410.72,-124.92 443.67,-123.68C464.97,-122.87 481.72,-135.43 489.60,-151.85ZM445.60,-215.54C468.01,-214.69 481.43,-203.18 480.92,-189.79L409.76,-192.48C413.47,-209.05 429.13,-216.16 445.60,-215.54ZM-417.68,52.67L-416.51,21.71L-447.70,20.53L-444.30,-69.30L-414.43,-68.17L-412.93,-107.70L-489.36,-110.59L-490.86,-71.06L-460.11,-69.90L-463.51,19.93L-495.57,18.72L-496.74,49.68ZM-390.14,22.27L-391.33,53.89C-385.18,53.90 -348.94,55.28 -336.65,55.96L-335.45,24.33L-355.00,23.59L-353.78,-8.69C-347.26,-23.84 -334.51,-29.73 -317.81,-29.10C-297.17,-28.32 -289.21,-17.90 -290.05,4.50L-290.87,26.02L-312.17,25.22L-313.37,56.84C-304.14,56.97 -280.20,58.10 -258.24,58.93L-257.05,27.30L-277.03,26.54L-275.70,-8.59C-274.07,-51.64 -286.08,-65.51 -315.29,-66.62C-331.77,-67.24 -347.51,-58.16 -352.53,-41.63L-351.62,-65.79L-386.76,-67.12L-388.12,-31.10C-384.16,-31.17 -375.81,-30.86 -367.25,-30.53L-369.27,23.05ZM-175.88,61.82L-142.58,-21.81L-125.45,-21.16L-124.09,-57.18L-179.87,-59.29L-181.23,-23.28L-168.93,-22.81L-189.99,33.80L-208.91,-24.32L-196.17,-23.84L-194.80,-59.86L-240.49,-61.59L-241.85,-25.57L-224.28,-24.90L-196.74,61.03ZM-65.66,-89.94C-65.18,-102.68 -72.02,-108.00 -83.88,-108.45C-97.05,-108.94 -103.84,-103.92 -104.32,-91.40C-104.79,-78.89 -97.99,-72.69 -85.25,-72.21C-73.83,-71.78 -66.14,-77.42 -65.66,-89.94ZM-113.19,32.74L-114.39,64.37C-104.94,64.51 -95.93,64.85 -86.93,65.19L-79.24,65.48C-69.80,65.84 -60.36,66.41 -50.48,66.79L-49.28,35.16L-71.46,34.32L-68.25,-50.67L-109.98,-52.25L-111.34,-16.23L-83.89,-15.19L-85.74,33.78ZM58.30,40.11C59.22,15.73 48.17,5.64 16.88,1.38C-2.37,-1.33 -8.59,-5.53 -8.38,-11.24C-8.07,-19.36 1.61,-25.37 18.09,-24.75C36.53,-24.05 43.15,-18.74 47.02,-10.68L57.35,-10.29L58.87,-50.48L48.55,-50.87L48.19,-41.43C40.34,-48.98 27.54,-53.65 15.46,-54.10C-7.16,-54.96 -23.69,-42.39 -24.48,-21.74C-25.46,4.17 -13.48,13.20 14.96,17.14C33.55,19.82 41.31,24.07 41.09,30.00C40.80,37.47 32.43,43.75 12.66,43.00C-7.10,42.26 -10.55,34.43 -17.02,25.39L-26.90,25.01L-28.51,67.40L-18.63,67.77L-18.16,55.47C-11.24,64.31 1.06,70.72 15.55,71.27C41.91,72.26 57.55,59.88 58.30,40.11ZM131.12,-82.50C131.60,-95.23 124.76,-100.55 112.90,-101.00C99.73,-101.50 92.94,-96.48 92.47,-83.96C91.99,-71.44 98.80,-65.24 111.53,-64.76C122.95,-64.33 130.65,-69.98 131.12,-82.50ZM83.59,40.19L82.39,71.82C91.84,71.95 100.85,72.29 109.85,72.63L117.54,72.93C126.98,73.28 136.42,73.86 146.30,74.23L147.50,42.61L125.32,41.77L128.53,-43.23L86.81,-44.80L85.44,-8.79L112.90,-7.75L111.04,41.23ZM235.61,79.59C265.04,80.71 282.79,59.16 284.25,20.73C286.04,-26.49 268.47,-44.75 241.45,-45.55C227.38,-45.86 211.81,-41.17 203.73,-25.20L206.54,-99.44L168.32,-100.88L166.87,-62.45L190.81,-61.54L186.82,43.88L162.88,42.97L161.68,74.60L197.70,75.96L199.95,57.13C206.53,69.47 219.58,78.99 235.61,79.59ZM235.28,53.63C217.71,52.96 208.16,49.52 201.29,39.36L202.11,17.62C202.97,0.72 212.87,-11.00 238.57,-10.03C261.19,-9.17 271.94,3.11 271.29,20.24C270.70,41.55 258.56,54.51 235.28,53.63ZM343.01,83.66C358.82,84.25 368.08,78.01 373.17,71.16L367.93,46.99C363.59,51.22 356.91,53.39 348.13,53.06C335.39,52.58 330.85,44.71 331.35,31.53L336.13,-94.97L299.68,-96.35L298.22,-57.92L319.74,-57.11L315.78,47.66C314.85,72.25 323.68,82.92 343.01,83.66ZM482.72,59.03L472.77,48.76C466.07,57.30 456.67,61.56 437.36,60.61C417.16,59.63 404.47,52.11 402.34,32.68L487.12,35.88C489.17,-18.36 470.96,-36.87 441.09,-38.00C414.73,-39.00 391.01,-22.30 389.24,24.48C387.89,60.06 403.85,85.96 436.79,87.20C458.09,88.01 474.84,75.45 482.72,59.03ZM438.73,-4.66C461.13,-3.81 474.55,7.70 474.04,21.09L402.88,18.40C406.59,1.82 422.25,-5.28 438.73,-4.66Z" fill="#ffffff" stroke="#000000"/>
    <path d="M-430.17,-171.17L-418.46,-170.29L-412.47,-249.25L-469.96,-253.61L-471.16,-237.77L-426.69,-234.40C-430.50,-210.04 -450.61,-200.87 -479.90,-203.09C-513.09,-205.60 -530.45,-224.16 -528.38,-251.49C-526.09,-278.81 -508.56,-299.95 -472.76,-297.24C-451.29,-295.61 -436.06,-289.22 -427.40,-276.78L-414.61,-275.81L-410.41,-331.13L-423.21,-332.10L-424.95,-309.11C-432.76,-324.10 -450.11,-334.14 -469.85,-335.64C-507.60,-338.50 -537.13,-317.39 -541.71,-256.86C-545.78,-203.28 -521.67,-175.93 -482.62,-172.97C-460.49,-171.29 -442.94,-175.42 -431.01,-188.91ZM-392.26,-199.28L-394.63,-168.04C-388.54,-167.80 -352.74,-165.09 -340.61,-163.95L-338.24,-195.19L-357.77,-196.67L-355.41,-227.69C-354.26,-242.88 -345.81,-250.75 -335.18,-249.94C-325.42,-249.20 -320.40,-246.42 -318.22,-240.58L-307.25,-275.97C-312.53,-281.17 -317.27,-284.80 -327.68,-285.59C-336.58,-286.27 -347.88,-281.01 -353.86,-268.37L-359.95,-285.85L-385.55,-287.79L-388.25,-252.22C-383.04,-251.82 -376.95,-251.58 -368.07,-250.69L-372.08,-197.76ZM-198.92,-153.65C-190.24,-152.99 -183.93,-155.57 -179.65,-160.26L-177.61,-187.16C-183.08,-181.25 -188.65,-179.71 -195.37,-180.22C-200.58,-180.61 -204.94,-183.56 -206.30,-188.68L-203.70,-222.96C-200.66,-263.09 -212.92,-276.89 -242.42,-279.13C-258.70,-280.36 -272.74,-276.41 -281.72,-267.27L-282.98,-239.22C-276.59,-245.72 -265.30,-250.75 -246.86,-249.36C-226.47,-247.81 -217.57,-238.63 -218.03,-218.15C-226.66,-225.14 -241.70,-228.24 -251.90,-229.01C-277.71,-230.97 -296.38,-217.76 -298.11,-194.99C-299.71,-173.94 -286.07,-158.07 -255.27,-155.74C-241.17,-154.67 -227.05,-159.49 -219.07,-166.96C-215.31,-159.04 -208.24,-154.36 -198.92,-153.65ZM-252.99,-182.84C-273.17,-184.37 -281.44,-190.45 -280.71,-199.99C-279.96,-209.97 -270.42,-214.92 -249.16,-213.31C-237.01,-212.39 -227.49,-208.40 -219.11,-201.00L-219.95,-189.94C-227.38,-183.95 -239.54,-181.82 -252.99,-182.84ZM-76.66,-174.71C-74.84,-198.79 -85.40,-209.19 -116.19,-214.58C-135.13,-217.98 -141.13,-222.36 -140.70,-228.00C-140.09,-236.03 -130.29,-241.61 -114.01,-240.38C-95.79,-239.00 -89.45,-233.50 -85.92,-225.38L-75.72,-224.61L-72.71,-264.31L-82.91,-265.08L-83.61,-255.75C-91.10,-263.52 -103.58,-268.61 -115.52,-269.51C-137.86,-271.21 -154.68,-259.39 -156.23,-239.00C-158.17,-213.40 -146.66,-204.02 -118.67,-199.06C-100.38,-195.71 -92.87,-191.21 -93.31,-185.36C-93.87,-177.98 -102.39,-172.08 -121.91,-173.56C-141.44,-175.04 -144.55,-182.91 -150.62,-192.10L-160.38,-192.84L-163.55,-150.97L-153.79,-150.23L-152.87,-162.38C-146.35,-153.38 -134.43,-146.58 -120.11,-145.50C-94.08,-143.52 -78.14,-155.19 -76.66,-174.71ZM-58.19,-130.55L-60.56,-99.31C-54.47,-99.07 -18.67,-96.35 -6.54,-95.22L-4.17,-126.46L-23.48,-127.92L-21.49,-154.17C-12.57,-142.37 -1.02,-136.47 11.35,-135.53C37.82,-133.53 59.21,-150.89 62.18,-190.16C65.93,-239.62 48.05,-257.12 22.02,-259.09C8.57,-260.11 -6.64,-255.15 -14.95,-240.51L-13.50,-259.60L-48.21,-262.23L-50.91,-226.65C-46.99,-226.57 -38.74,-225.95 -30.28,-225.31L-37.58,-128.99ZM12.59,-163.37C-1.71,-164.67 -14.87,-169.59 -19.44,-181.29L-17.84,-202.33C-16.71,-217.30 -6.31,-225.02 17.77,-223.19C38.38,-221.63 50.68,-211.10 49.30,-192.88C47.67,-168.56 34.03,-161.31 12.59,-163.37ZM218.49,-133.80L214.30,-156.16C210.53,-152.51 202.92,-150.04 193.83,-150.94C183.21,-151.96 176.25,-157.95 177.43,-173.57L180.10,-208.71L212.64,-206.24L215.20,-240.09L182.66,-242.55L184.80,-270.76L170.70,-271.82L168.56,-243.62L151.42,-244.92L148.86,-211.08L166.00,-209.78L162.20,-159.67C160.21,-133.42 171.88,-123.37 188.81,-122.09C201.17,-121.15 213.93,-125.42 218.49,-133.80ZM294.18,-116.28L296.55,-147.52L274.86,-149.17L277.24,-180.62C284.03,-195.38 296.44,-200.77 312.93,-199.52C331.37,-198.12 340.37,-187.40 338.71,-165.49L337.12,-144.45L314.12,-146.19L311.76,-114.95L368.81,-110.63L371.18,-141.87L350.79,-143.41L353.42,-178.12C356.62,-220.42 345.69,-234.56 319.44,-236.55C301.66,-237.90 287.16,-230.92 280.00,-217.07L285.61,-291.04L250.25,-293.72L247.37,-255.76L268.85,-254.13L260.97,-150.22L239.50,-151.85L237.13,-120.61ZM483.91,-129.40L474.45,-139.93C467.50,-131.73 458.05,-127.87 438.97,-129.53C419.03,-131.26 406.76,-139.17 405.38,-158.47L489.12,-152.13C493.18,-205.71 475.86,-224.70 446.35,-226.93C420.32,-228.91 396.23,-213.28 392.73,-167.07C390.06,-131.93 404.88,-105.71 437.42,-103.25C458.46,-101.65 475.50,-113.45 483.91,-129.40ZM442.77,-194.04C464.90,-192.36 477.74,-180.48 476.74,-167.25L406.45,-172.58C410.74,-188.83 426.50,-195.27 442.77,-194.04ZM-421.22,38.96L-418.90,8.37L-449.71,6.04L-442.99,-82.69L-413.48,-80.45L-410.52,-119.50L-486.02,-125.22L-488.98,-86.18L-458.61,-83.87L-465.33,4.85L-497.00,2.45L-499.32,33.04ZM-392.84,9.91L-395.21,41.15C-389.12,41.39 -353.32,44.11 -341.19,45.24L-338.82,14.00L-358.13,12.54L-355.71,-19.35C-348.70,-34.09 -335.86,-39.45 -319.37,-38.20C-298.98,-36.65 -291.50,-26.05 -293.17,-3.92L-294.78,17.34L-315.83,15.75L-318.19,46.99C-309.07,47.46 -285.44,49.47 -263.74,51.11L-261.37,19.87L-281.12,18.38L-278.49,-16.33C-275.26,-58.85 -286.63,-73.02 -315.48,-75.21C-331.75,-76.44 -347.66,-68.05 -353.25,-51.89L-351.44,-75.75L-386.15,-78.38L-388.84,-42.81C-384.92,-42.73 -376.68,-42.10 -368.22,-41.46L-372.23,11.47ZM-182.37,57.06L-146.31,-24.43L-129.39,-23.14L-126.69,-58.72L-181.79,-62.90L-184.49,-27.32L-172.34,-26.40L-195.29,28.81L-211.82,-29.39L-199.24,-28.44L-196.54,-64.02L-241.67,-67.43L-244.36,-31.86L-227.01,-30.54L-202.98,55.50ZM-67.67,-88.94C-66.72,-101.52 -73.28,-107.04 -85.00,-107.93C-98.01,-108.91 -104.92,-104.20 -105.85,-91.83C-106.79,-79.47 -100.29,-73.08 -87.71,-72.13C-76.43,-71.28 -68.61,-76.57 -67.67,-88.94ZM-119.28,30.64L-121.65,61.88C-112.30,62.37 -103.41,63.04 -94.51,63.72L-86.92,64.29C-77.59,65.00 -68.28,65.92 -58.52,66.66L-56.15,35.42L-78.06,33.76L-71.70,-50.19L-112.92,-53.31L-115.61,-17.74L-88.50,-15.68L-92.16,32.70ZM50.08,44.35C51.91,20.27 41.35,9.87 10.56,4.48C-8.38,1.08 -14.38,-3.30 -13.95,-8.94C-13.34,-16.97 -3.54,-22.55 12.73,-21.32C30.95,-19.94 37.30,-14.44 40.83,-6.32L51.03,-5.54L54.04,-45.24L43.84,-46.02L43.13,-36.69C35.65,-44.46 23.16,-49.55 11.23,-50.45C-11.11,-52.14 -27.94,-40.33 -29.48,-19.94C-31.42,5.66 -19.92,15.04 8.07,20.00C26.36,23.35 33.88,27.85 33.43,33.70C32.88,41.08 24.36,46.98 4.83,45.50C-14.69,44.02 -17.81,36.15 -23.87,26.96L-33.64,26.22L-36.81,68.09L-27.05,68.83L-26.13,56.68C-19.61,65.69 -7.69,72.48 6.63,73.56C32.66,75.54 48.60,63.87 50.08,44.35ZM126.70,-74.21C127.66,-86.79 121.09,-92.31 109.38,-93.20C96.36,-94.18 89.46,-89.47 88.52,-77.10C87.59,-64.74 94.08,-58.35 106.67,-57.40C117.95,-56.55 125.77,-61.84 126.70,-74.21ZM75.10,45.37L72.73,76.61C82.07,77.10 90.97,77.77 99.86,78.45L107.46,79.02C116.78,79.73 126.10,80.65 135.86,81.39L138.23,50.15L116.31,48.49L122.68,-35.46L81.46,-38.58L78.76,-3.01L105.88,-0.95L102.21,47.43ZM224.00,90.04C253.07,92.24 271.44,71.60 274.31,33.63C277.85,-13.01 261.16,-31.73 234.46,-33.54C220.56,-34.37 204.98,-30.31 196.39,-14.82L201.94,-88.15L164.20,-91.01L161.32,-53.04L184.96,-51.25L177.07,52.88L153.43,51.09L151.06,82.33L186.64,85.02L189.57,66.48C195.61,78.94 208.17,88.84 224.00,90.04ZM224.64,64.34C207.29,63.02 197.97,59.26 191.55,48.96L193.18,27.48C194.66,10.79 204.90,-0.43 230.28,1.49C252.62,3.19 262.80,15.74 261.52,32.66C260.14,53.72 247.64,66.08 224.64,64.34ZM330.09,98.08C345.71,99.26 355.09,93.43 360.39,86.85L356.11,62.74C351.66,66.77 344.97,68.66 336.29,68.00C323.71,67.05 319.51,59.09 320.50,46.08L329.97,-78.88L293.96,-81.61L291.08,-43.64L312.34,-42.03L304.50,61.45C302.66,85.74 311.00,96.63 330.09,98.08ZM469.21,78.95L459.75,68.41C452.80,76.61 443.35,80.48 424.27,78.81C404.33,77.08 392.06,69.17 390.69,49.87L474.42,56.21C478.48,2.63 461.16,-16.36 431.66,-18.59C405.62,-20.56 381.53,-4.94 378.03,41.27C375.36,76.42 390.18,102.63 422.72,105.10C443.76,106.69 460.80,94.89 469.21,78.95ZM428.07,14.30C450.20,15.98 463.04,27.86 462.04,41.09L391.75,35.77C396.04,19.51 411.80,13.07 428.07,14.30Z" fill="#ffffff" stroke="#000000"/>
    <path d="M-425.18,-183.17L-413.63,-181.86L-404.76,-259.74L-461.45,-266.20L-463.23,-250.58L-419.37,-245.58C-424.05,-221.62 -444.29,-213.31 -473.17,-216.60C-505.91,-220.33 -522.38,-239.33 -519.31,-266.29C-516.03,-293.22 -497.90,-313.48 -462.59,-309.46C-441.41,-307.04 -426.59,-300.15 -418.49,-287.53L-405.87,-286.09L-399.65,-340.65L-412.28,-342.09L-414.86,-319.41C-422.03,-334.53 -438.81,-345.11 -458.28,-347.33C-495.51,-351.57 -525.50,-331.80 -532.30,-272.10C-538.32,-219.26 -515.50,-191.30 -476.99,-186.91C-455.17,-184.42 -437.65,-187.85 -425.35,-200.75ZM-386.63,-209.56L-390.14,-178.75C-384.13,-178.28 -348.83,-174.26 -336.87,-172.68L-333.36,-203.49L-352.61,-205.68L-349.13,-236.28C-347.42,-251.25 -338.77,-258.72 -328.28,-257.53C-318.66,-256.43 -313.79,-253.49 -311.86,-247.63L-299.68,-282.22C-304.71,-287.57 -309.26,-291.34 -319.53,-292.51C-328.30,-293.50 -339.68,-288.73 -346.07,-276.46L-351.44,-293.97L-376.69,-296.85L-380.68,-261.76C-375.55,-261.18 -369.53,-260.71 -360.79,-259.49L-366.73,-207.29ZM-197.11,-157.19C-188.55,-156.21 -182.22,-158.52 -177.80,-163.01L-174.78,-189.54C-180.41,-183.89 -185.98,-182.58 -192.61,-183.33C-197.75,-183.92 -201.95,-187.00 -203.10,-192.11L-199.24,-225.92C-194.73,-265.50 -206.35,-279.61 -235.45,-282.92C-251.49,-284.75 -265.53,-281.37 -274.76,-272.67L-277.05,-244.97C-270.49,-251.16 -259.14,-255.71 -240.95,-253.64C-220.84,-251.35 -212.37,-241.93 -213.60,-221.70C-221.88,-228.93 -236.63,-232.56 -246.69,-233.71C-272.15,-236.61 -291.11,-224.25 -293.67,-201.78C-296.04,-181.03 -283.15,-164.82 -252.77,-161.36C-238.86,-159.78 -224.72,-164.02 -216.54,-171.10C-213.12,-163.13 -206.31,-158.23 -197.11,-157.19ZM-249.50,-188.08C-269.40,-190.35 -277.35,-196.67 -276.28,-206.09C-275.16,-215.93 -265.54,-220.47 -244.57,-218.08C-232.59,-216.71 -223.32,-212.41 -215.31,-204.77L-216.55,-193.86C-224.13,-188.22 -236.24,-186.57 -249.50,-188.08ZM-75.40,-173.44C-72.69,-197.19 -82.75,-207.87 -113.00,-214.36C-131.61,-218.43 -137.38,-222.99 -136.74,-228.55C-135.84,-236.46 -125.93,-241.62 -109.89,-239.79C-91.91,-237.74 -85.84,-232.07 -82.66,-223.90L-72.60,-222.76L-68.14,-261.91L-78.19,-263.06L-79.24,-253.86C-86.35,-261.82 -98.51,-267.32 -110.28,-268.66C-132.32,-271.17 -149.40,-260.12 -151.69,-240.00C-154.57,-214.76 -143.54,-205.05 -116.04,-199.10C-98.07,-195.10 -90.81,-190.37 -91.47,-184.59C-92.30,-177.32 -100.95,-171.80 -120.20,-174.00C-139.46,-176.19 -142.24,-184.09 -147.90,-193.41L-157.53,-194.50L-162.23,-153.21L-152.60,-152.11L-151.24,-164.10C-145.13,-154.95 -133.59,-147.78 -119.47,-146.17C-93.80,-143.25 -77.59,-154.19 -75.40,-173.44ZM-58.78,-129.07L-62.29,-98.26C-56.28,-97.79 -20.98,-93.77 -9.02,-92.19L-5.51,-123.00L-24.55,-125.17L-21.60,-151.06C-13.22,-139.05 -2.01,-132.79 10.19,-131.40C36.29,-128.42 58.09,-144.80 62.51,-183.52C68.06,-232.30 51.04,-250.28 25.37,-253.21C12.10,-254.72 -3.13,-250.39 -11.90,-236.21L-9.75,-255.04L-43.99,-258.94L-47.98,-223.85C-44.11,-223.63 -35.98,-222.70 -27.63,-221.75L-38.46,-126.75ZM12.45,-158.88C-1.65,-160.70 -14.47,-166.07 -18.55,-177.80L-16.19,-198.56C-14.51,-213.32 -3.93,-220.57 19.82,-217.86C40.15,-215.54 51.91,-204.67 49.86,-186.70C47.35,-162.71 33.58,-156.04 12.45,-158.88ZM215.00,-121.93L211.69,-144.20C207.83,-140.74 200.21,-138.57 191.25,-139.81C180.79,-141.22 174.13,-147.40 175.88,-162.80L179.83,-197.46L211.92,-193.80L215.73,-227.18L183.63,-230.84L186.80,-258.65L172.90,-260.24L169.73,-232.42L152.82,-234.35L149.02,-200.97L165.92,-199.05L160.29,-149.62C157.34,-123.73 168.51,-113.36 185.20,-111.46C197.40,-110.07 210.18,-113.81 215.00,-121.93ZM289.21,-101.77L292.72,-132.58L271.33,-135.02L274.86,-166.04C282.13,-180.39 294.61,-185.25 310.87,-183.40C329.05,-181.32 337.56,-170.39 335.10,-148.78L332.73,-128.02L310.06,-130.61L306.54,-99.80L362.81,-93.39L366.33,-124.20L346.21,-126.49L350.11,-160.72C354.87,-202.44 344.59,-216.83 318.70,-219.78C301.15,-221.78 286.56,-215.43 278.96,-201.99L287.27,-274.95L252.40,-278.92L248.13,-241.48L269.31,-239.06L257.64,-136.58L236.45,-138.99L232.94,-108.18ZM477.36,-107.64L468.40,-118.42C461.22,-110.57 451.72,-107.10 432.92,-109.46C413.26,-111.91 401.41,-120.20 400.78,-139.34L483.37,-129.93C489.39,-182.78 472.96,-202.21 443.86,-205.52C418.19,-208.45 393.77,-193.89 388.58,-148.32C384.63,-113.66 398.30,-87.17 430.40,-83.52C451.15,-81.15 468.44,-92.19 477.36,-107.64ZM439.09,-173.12C460.91,-170.64 473.17,-158.40 471.68,-145.35L402.36,-153.25C407.21,-169.17 423.04,-174.95 439.09,-173.12ZM-424.20,25.00L-420.76,-5.16L-451.14,-8.63L-441.17,-96.13L-412.07,-92.82L-407.68,-131.33L-482.14,-139.81L-486.53,-101.30L-456.57,-97.89L-466.55,-10.38L-497.78,-13.94L-501.22,16.23ZM-395.04,-2.67L-398.55,28.14C-392.53,28.61 -357.23,32.63 -345.27,34.21L-341.76,3.40L-360.80,1.23L-357.22,-30.22C-349.74,-44.54 -336.83,-49.35 -320.57,-47.50C-300.46,-45.21 -293.45,-34.44 -295.94,-12.62L-298.33,8.35L-319.08,5.99L-322.59,36.80C-313.58,37.61 -290.28,40.48 -268.89,42.92L-265.38,12.11L-284.85,9.89L-280.95,-24.34C-276.17,-66.28 -286.88,-80.72 -315.33,-83.96C-331.38,-85.79 -347.43,-78.08 -353.56,-62.31L-350.88,-85.85L-385.11,-89.75L-389.11,-54.66C-385.24,-54.43 -377.11,-53.51 -368.76,-52.56L-374.71,-0.35ZM-188.63,51.84L-149.91,-27.40L-133.22,-25.50L-129.22,-60.59L-183.57,-66.78L-187.57,-31.69L-175.58,-30.33L-200.35,23.42L-214.52,-34.76L-202.11,-33.35L-198.12,-68.44L-242.62,-73.51L-246.62,-38.42L-229.50,-36.47L-208.96,49.53ZM-69.72,-88.27C-68.30,-100.68 -74.59,-106.38 -86.14,-107.70C-98.98,-109.16 -105.98,-104.76 -107.37,-92.56C-108.76,-80.37 -102.58,-73.81 -90.17,-72.39C-79.04,-71.13 -71.11,-76.07 -69.72,-88.27ZM-125.24,28.07L-128.75,58.88C-119.52,59.72 -110.75,60.72 -101.98,61.72L-94.49,62.57C-85.29,63.62 -76.11,64.88 -66.49,65.98L-62.98,35.17L-84.59,32.71L-75.15,-50.09L-115.80,-54.73L-119.80,-19.64L-93.06,-16.59L-98.49,31.12ZM41.76,47.97C44.47,24.22 34.42,13.54 4.16,7.06C-14.45,2.99 -20.21,-1.57 -19.58,-7.13C-18.68,-15.05 -8.77,-20.21 7.28,-18.38C25.25,-16.33 31.32,-10.65 34.51,-2.49L44.57,-1.34L49.03,-40.50L38.97,-41.64L37.92,-32.44C30.81,-40.40 18.65,-45.91 6.88,-47.25C-15.15,-49.76 -32.24,-38.70 -34.53,-18.59C-37.40,6.66 -26.37,16.37 1.12,22.32C19.09,26.31 26.35,31.04 25.70,36.82C24.87,44.09 16.22,49.61 -3.04,47.42C-22.29,45.22 -25.08,37.32 -30.73,28.01L-40.36,26.91L-45.07,68.20L-35.44,69.30L-34.07,57.32C-27.96,66.47 -16.43,73.63 -2.31,75.24C23.37,78.17 39.57,67.23 41.76,47.97ZM121.99,-66.43C123.40,-78.84 117.11,-84.54 105.56,-85.85C92.72,-87.32 85.72,-82.91 84.33,-70.72C82.94,-58.52 89.13,-51.96 101.54,-50.55C112.66,-49.28 120.60,-54.23 121.99,-66.43ZM66.47,49.92L62.96,80.73C72.18,81.56 80.95,82.56 89.73,83.56L97.21,84.41C106.41,85.46 115.59,86.73 125.22,87.82L128.73,57.01L107.12,54.55L116.55,-28.25L75.90,-32.88L71.90,2.21L98.65,5.25L93.21,52.97ZM212.08,99.67C240.75,102.94 259.68,83.20 263.95,45.76C269.19,-0.24 253.38,-19.38 227.04,-22.16C213.33,-23.51 197.76,-20.08 188.69,-5.08L196.93,-77.39L159.70,-81.64L155.43,-44.19L178.75,-41.54L167.05,61.16L143.73,58.51L140.22,89.31L175.31,93.31L178.90,75.08C184.41,87.63 196.46,97.89 212.08,99.67ZM213.67,74.28C196.55,72.33 187.48,68.26 181.52,57.83L183.93,36.64C186.02,20.19 196.56,9.48 221.60,12.33C243.63,14.84 253.23,27.64 251.33,44.32C249.18,65.10 236.35,76.86 213.67,74.28ZM316.70,111.59C332.11,113.35 341.61,107.93 347.10,101.62L343.76,77.61C339.21,81.43 332.52,83.05 323.97,82.08C311.56,80.66 307.70,72.64 309.17,59.80L323.21,-63.44L287.69,-67.48L283.43,-30.04L304.39,-27.65L292.76,74.40C290.03,98.37 297.87,109.45 316.70,111.59ZM455.02,97.88L446.06,87.10C438.88,94.95 429.39,98.42 410.58,96.06C390.92,93.61 379.08,85.32 378.44,66.18L461.03,75.59C467.05,22.74 450.63,3.31 421.53,-0.00C395.85,-2.93 371.44,11.63 366.25,57.20C362.30,91.86 375.97,118.34 408.06,122.00C428.81,124.37 446.11,113.33 455.02,97.88ZM416.75,32.40C438.58,34.88 450.84,47.12 449.35,60.17L380.03,52.27C384.88,36.35 400.71,30.57 416.75,32.40Z" fill="#ffffff" stroke="#000000"/>
    <path d="M-419.77,-195.09L-408.40,-193.35L-396.71,-270.04L-452.54,-278.55L-454.88,-263.17L-411.69,-256.59C-417.22,-233.07 -437.54,-225.60 -465.98,-229.94C-498.22,-234.85 -513.80,-254.26 -509.75,-280.81C-505.50,-307.32 -486.81,-326.68 -452.05,-321.38C-431.19,-318.20 -416.79,-310.83 -409.25,-298.04L-396.82,-296.14L-388.63,-349.87L-401.06,-351.76L-404.47,-329.43C-410.99,-344.65 -427.19,-355.75 -446.36,-358.67C-483.02,-364.26 -513.42,-345.83 -522.39,-287.04C-530.32,-235.00 -508.79,-206.50 -470.87,-200.72C-449.38,-197.44 -431.93,-200.17 -419.28,-212.47ZM-380.66,-219.74L-385.28,-189.40C-379.35,-188.71 -344.59,-183.41 -332.82,-181.40L-328.20,-211.74L-347.16,-214.63L-342.57,-244.76C-340.32,-259.51 -331.48,-266.57 -321.16,-264.99C-311.68,-263.55 -306.98,-260.46 -305.28,-254.60L-291.94,-288.35C-296.72,-293.82 -301.08,-297.72 -311.19,-299.26C-319.83,-300.58 -331.26,-296.28 -338.04,-284.38L-342.70,-301.91L-367.56,-305.70L-372.82,-271.14C-367.77,-270.37 -361.84,-269.68 -353.23,-268.16L-361.07,-216.75ZM-195.18,-160.85C-186.75,-159.57 -180.41,-161.62 -175.87,-165.88L-171.89,-192.01C-177.67,-186.64 -183.23,-185.54 -189.76,-186.54C-194.81,-187.31 -198.85,-190.51 -199.80,-195.62L-194.72,-228.90C-188.78,-267.88 -199.74,-282.27 -228.39,-286.64C-244.19,-289.05 -258.21,-286.22 -267.66,-277.96L-270.96,-250.66C-264.24,-256.53 -252.84,-260.62 -234.93,-257.89C-215.13,-254.87 -207.11,-245.24 -209.08,-225.27C-216.99,-232.73 -231.45,-236.87 -241.35,-238.38C-266.43,-242.21 -285.64,-230.69 -289.02,-208.57C-292.13,-188.13 -279.99,-171.62 -250.07,-167.06C-236.38,-164.97 -222.24,-168.64 -213.88,-175.34C-210.79,-167.33 -204.24,-162.23 -195.18,-160.85ZM-245.85,-193.37C-265.44,-196.35 -273.06,-202.90 -271.65,-212.17C-270.17,-221.87 -260.49,-225.99 -239.84,-222.85C-228.04,-221.05 -219.04,-216.44 -211.40,-208.59L-213.04,-197.85C-220.75,-192.56 -232.78,-191.37 -245.85,-193.37ZM-74.21,-172.38C-70.64,-195.76 -80.19,-206.70 -109.86,-214.24C-128.12,-218.97 -133.65,-223.69 -132.81,-229.17C-131.62,-236.96 -121.63,-241.69 -105.83,-239.28C-88.13,-236.59 -82.34,-230.74 -79.49,-222.55L-69.59,-221.04L-63.71,-259.60L-73.62,-261.10L-75.00,-252.05C-81.73,-260.19 -93.55,-266.08 -105.14,-267.85C-126.84,-271.16 -144.15,-260.86 -147.17,-241.06C-150.96,-216.20 -140.41,-206.18 -113.44,-199.27C-95.82,-194.64 -88.81,-189.69 -89.68,-184.00C-90.77,-176.84 -99.53,-171.71 -118.49,-174.60C-137.46,-177.49 -139.91,-185.41 -145.16,-194.83L-154.64,-196.28L-160.84,-155.62L-151.36,-154.17L-149.56,-165.97C-143.86,-156.69 -132.72,-149.17 -118.81,-147.05C-93.53,-143.20 -77.10,-153.41 -74.21,-172.38ZM-59.43,-127.87L-64.06,-97.53C-58.13,-96.84 -23.36,-91.54 -11.60,-89.53L-6.97,-119.87L-25.72,-122.73L-21.84,-148.22C-14.00,-136.03 -3.15,-129.42 8.86,-127.59C34.57,-123.67 56.74,-139.05 62.56,-177.18C69.88,-225.22 53.72,-243.63 28.43,-247.49C15.37,-249.48 0.14,-245.76 -9.06,-232.08L-6.23,-250.62L-39.94,-255.76L-45.21,-221.20C-41.38,-220.84 -33.38,-219.62 -25.16,-218.36L-39.42,-124.82ZM12.13,-154.69C-1.74,-157.02 -14.23,-162.80 -17.82,-174.56L-14.71,-195.00C-12.49,-209.53 -1.76,-216.30 21.63,-212.74C41.64,-209.69 52.87,-198.49 50.17,-180.79C46.79,-157.16 32.92,-151.09 12.13,-154.69ZM211.07,-110.56L208.63,-132.71C204.68,-129.43 197.06,-127.57 188.25,-129.13C177.96,-130.92 171.59,-137.28 173.91,-152.45L179.11,-186.58L210.71,-181.76L215.72,-214.63L184.12,-219.44L188.30,-246.83L174.60,-248.92L170.43,-221.53L153.78,-224.07L148.77,-191.20L165.42,-188.67L158.00,-140.00C154.11,-114.50 164.77,-103.82 181.20,-101.32C193.21,-99.49 205.99,-102.71 211.07,-110.56ZM283.71,-87.85L288.33,-118.19L267.26,-121.40L271.92,-151.95C279.65,-165.86 292.17,-170.21 308.18,-167.77C326.09,-165.04 334.09,-153.90 330.85,-132.62L327.73,-112.18L305.40,-115.59L300.77,-85.25L356.18,-76.80L360.81,-107.14L341.00,-110.16L346.14,-143.87C352.41,-184.95 342.78,-199.57 317.28,-203.46C300.01,-206.09 285.34,-200.35 277.32,-187.34L288.27,-259.19L253.93,-264.42L248.31,-227.55L269.16,-224.37L253.78,-123.46L232.92,-126.63L228.30,-96.30ZM470.00,-86.62L461.54,-97.61C454.15,-90.11 444.62,-87.03 426.12,-90.07C406.76,-93.24 395.36,-101.87 395.45,-120.83L476.77,-108.43C484.71,-160.47 469.19,-180.30 440.54,-184.67C415.25,-188.52 390.56,-175.04 383.72,-130.16C378.52,-96.03 391.05,-69.33 422.65,-64.51C443.09,-61.40 460.60,-71.66 470.00,-86.62ZM434.60,-152.81C456.09,-149.53 467.76,-136.97 465.80,-124.12L397.54,-134.53C402.93,-150.09 418.80,-155.21 434.60,-152.81ZM-426.59,10.83L-422.06,-18.87L-451.98,-23.43L-438.84,-109.60L-410.19,-105.24L-404.41,-143.16L-477.72,-154.34L-483.51,-116.41L-454.01,-111.92L-467.15,-25.75L-497.91,-30.43L-502.43,-0.73ZM-396.71,-15.44L-401.34,14.90C-395.41,15.59 -360.64,20.89 -348.88,22.90L-344.25,-7.44L-363.00,-10.30L-358.28,-41.27C-350.34,-55.15 -337.40,-59.43 -321.39,-56.99C-301.59,-53.97 -295.06,-43.06 -298.33,-21.57L-301.48,-0.92L-321.92,-4.04L-326.54,26.30C-317.66,27.44 -294.73,31.15 -273.66,34.36L-269.04,4.02L-288.21,1.10L-283.07,-32.61C-276.77,-73.90 -286.82,-88.59 -314.85,-92.86C-330.65,-95.27 -346.81,-88.25 -353.46,-72.88L-349.93,-96.05L-383.64,-101.19L-388.91,-66.64C-385.08,-66.27 -377.08,-65.05 -368.86,-63.80L-376.70,-12.39ZM-194.62,46.19L-153.36,-30.73L-136.93,-28.23L-131.66,-62.78L-185.17,-70.94L-190.44,-36.38L-178.64,-34.58L-205.14,17.64L-216.99,-40.43L-204.77,-38.57L-199.50,-73.12L-243.32,-79.80L-248.59,-45.25L-231.74,-42.68L-214.64,43.14ZM-71.77,-87.93C-69.91,-100.15 -75.92,-106.02 -87.29,-107.75C-99.93,-109.68 -107.02,-105.59 -108.86,-93.58C-110.69,-81.57 -104.81,-74.85 -92.59,-72.99C-81.64,-71.32 -73.61,-75.92 -71.77,-87.93ZM-131.04,25.06L-135.66,55.40C-126.57,56.57 -117.93,57.88 -109.29,59.20L-101.92,60.33C-92.86,61.71 -83.83,63.30 -74.35,64.74L-69.73,34.40L-91.01,31.16L-78.58,-50.37L-118.61,-56.48L-123.87,-21.92L-97.54,-17.91L-104.70,29.07ZM33.38,50.98C36.95,27.60 27.40,16.66 -2.28,9.12C-20.53,4.39 -26.06,-0.33 -25.22,-5.81C-24.03,-13.60 -14.04,-18.33 1.76,-15.92C19.46,-13.23 25.25,-7.38 28.09,0.81L38.00,2.32L43.87,-36.24L33.97,-37.75L32.59,-28.69C25.86,-36.83 14.03,-42.72 2.45,-44.49C-19.25,-47.80 -36.56,-37.50 -39.58,-17.70C-43.37,7.16 -32.82,17.18 -5.85,24.09C11.77,28.72 18.77,33.67 17.91,39.36C16.82,46.52 8.06,51.65 -10.91,48.76C-29.87,45.87 -32.32,37.95 -37.57,28.53L-47.05,27.08L-53.25,67.74L-43.77,69.19L-41.97,57.39C-36.27,66.67 -25.13,74.19 -11.22,76.31C14.06,80.16 30.49,69.95 33.38,50.98ZM117.00,-59.15C118.86,-71.37 112.86,-77.24 101.48,-78.98C88.84,-80.91 81.75,-76.81 79.92,-64.80C78.09,-52.79 83.96,-46.08 96.18,-44.22C107.14,-42.55 115.17,-47.14 117.00,-59.15ZM57.74,53.83L53.11,84.17C62.21,85.34 70.84,86.66 79.48,87.98L86.86,89.10C95.91,90.48 104.94,92.07 114.42,93.52L119.05,63.18L97.77,59.94L110.20,-21.60L70.17,-27.70L64.90,6.85L91.24,10.87L84.07,57.85ZM199.88,108.49C228.12,112.79 247.58,93.98 253.20,57.11C260.11,11.82 245.19,-7.70 219.24,-11.44C205.73,-13.29 190.21,-10.48 180.67,4.02L191.52,-67.19L154.86,-72.78L149.24,-35.91L172.21,-32.41L156.79,68.72L133.83,65.22L129.20,95.56L163.76,100.82L167.99,82.93C172.97,95.55 184.50,106.14 199.88,108.49ZM202.41,83.43C185.55,80.86 176.73,76.50 171.23,65.96L174.41,45.10C177.09,28.91 187.92,18.71 212.57,22.46C234.27,25.77 243.28,38.79 240.77,55.22C237.87,75.69 224.74,86.84 202.41,83.43ZM302.91,124.19C318.08,126.50 327.68,121.50 333.34,115.47L330.94,91.60C326.30,95.20 319.63,96.56 311.20,95.27C298.98,93.41 295.47,85.33 297.39,72.69L315.89,-48.67L280.92,-54.00L275.30,-17.13L295.95,-13.98L280.63,86.52C277.03,110.11 284.37,121.37 302.91,124.19ZM440.22,115.80L431.76,104.81C424.37,112.31 414.84,115.39 396.34,112.35C376.99,109.18 365.58,100.55 365.67,81.59L447.00,93.99C454.93,41.95 439.41,22.12 410.76,17.75C385.47,13.90 360.78,27.38 353.94,72.26C348.74,106.39 361.27,133.09 392.87,137.91C413.31,141.02 430.83,130.76 440.22,115.80ZM404.82,49.61C426.31,52.89 437.98,65.45 436.02,78.30L367.76,67.89C373.15,52.33 389.02,47.21 404.82,49.61Z" fill="#ffffff" stroke="#000000"/>
    <path d="M-413.94,-206.89L-402.75,-204.75L-388.32,-280.15L-443.22,-290.66L-446.11,-275.54L-403.65,-267.41C-409.99,-244.36 -430.37,-237.74 -458.33,-243.09C-490.02,-249.16 -504.71,-268.93 -499.71,-295.03C-494.51,-321.09 -475.30,-339.53 -441.13,-332.99C-420.62,-329.06 -406.66,-321.24 -399.68,-308.31L-387.46,-305.97L-377.35,-358.79L-389.57,-361.13L-393.78,-339.17C-399.65,-354.47 -415.26,-366.05 -434.11,-369.65C-470.15,-376.55 -500.91,-359.46 -511.97,-301.67C-521.76,-250.50 -501.54,-221.51 -464.26,-214.38C-443.13,-210.33 -425.77,-212.38 -412.80,-224.07ZM-374.34,-229.81L-380.05,-199.98C-374.21,-199.08 -340.03,-192.53 -328.47,-190.11L-322.76,-219.94L-341.40,-223.50L-335.73,-253.12C-332.96,-267.62 -323.96,-274.28 -313.81,-272.33C-304.48,-270.55 -299.95,-267.32 -298.49,-261.46L-284.04,-294.34C-288.56,-299.93 -292.73,-303.94 -302.67,-305.85C-311.16,-307.47 -322.63,-303.65 -329.77,-292.14L-333.72,-309.64L-358.16,-314.32L-364.67,-280.35C-359.69,-279.40 -353.85,-278.50 -345.40,-276.66L-355.07,-226.12ZM-193.13,-164.64C-184.84,-163.05 -178.49,-164.84 -173.85,-168.89L-168.93,-194.58C-174.84,-189.48 -180.38,-188.61 -186.80,-189.84C-191.77,-190.79 -195.65,-194.11 -196.39,-199.19L-190.13,-231.92C-182.79,-270.24 -193.09,-284.88 -221.26,-290.27C-236.80,-293.24 -250.76,-290.97 -260.41,-283.16L-264.70,-256.28C-257.84,-261.84 -246.41,-265.45 -228.80,-262.08C-209.33,-258.35 -201.76,-248.53 -204.46,-228.86C-212.01,-236.53 -226.15,-241.17 -235.88,-243.03C-260.53,-247.75 -279.97,-237.08 -284.13,-215.33C-287.98,-195.24 -276.59,-178.46 -247.17,-172.83C-233.71,-170.25 -219.59,-173.35 -211.08,-179.67C-208.32,-171.62 -202.03,-166.34 -193.13,-164.64ZM-242.01,-198.68C-261.27,-202.37 -268.57,-209.14 -266.82,-218.25C-265.00,-227.78 -255.27,-231.50 -234.97,-227.61C-223.37,-225.39 -214.64,-220.50 -207.38,-212.46L-209.40,-201.89C-217.22,-196.95 -229.17,-196.23 -242.01,-198.68ZM-73.07,-171.51C-68.67,-194.50 -77.69,-205.67 -106.76,-214.24C-124.63,-219.60 -129.93,-224.47 -128.89,-229.86C-127.43,-237.52 -117.37,-241.83 -101.84,-238.85C-84.44,-235.52 -78.93,-229.53 -76.42,-221.32L-66.68,-219.46L-59.43,-257.36L-69.16,-259.23L-70.87,-250.32C-77.22,-258.62 -88.69,-264.90 -100.08,-267.08C-121.42,-271.16 -138.92,-261.63 -142.65,-242.15C-147.32,-217.71 -137.27,-207.41 -110.86,-199.57C-93.61,-194.33 -86.86,-189.18 -87.93,-183.58C-89.28,-176.54 -98.14,-171.79 -116.78,-175.36C-135.42,-178.93 -137.55,-186.85 -142.39,-196.37L-151.71,-198.15L-159.36,-158.17L-150.04,-156.39L-147.82,-167.99C-142.53,-158.60 -131.79,-150.75 -118.12,-148.13C-93.27,-143.38 -76.63,-152.86 -73.07,-171.51ZM-60.12,-126.94L-65.83,-97.11C-59.99,-96.21 -25.81,-89.67 -14.25,-87.24L-8.54,-117.07L-26.98,-120.60L-22.18,-145.66C-14.88,-133.32 -4.40,-126.37 7.40,-124.11C32.68,-119.28 55.18,-133.65 62.36,-171.14C71.39,-218.37 56.10,-237.19 31.24,-241.94C18.40,-244.40 3.20,-241.30 -6.41,-228.11L-2.92,-246.33L-36.06,-252.68L-42.56,-218.71C-38.79,-218.20 -30.92,-216.69 -22.84,-215.15L-40.44,-123.18ZM11.65,-150.78C-1.98,-153.61 -14.11,-159.79 -17.23,-171.56L-13.38,-191.65C-10.65,-205.94 0.22,-212.24 23.21,-207.84C42.89,-204.07 53.57,-192.58 50.24,-175.18C46.01,-151.94 32.08,-146.45 11.65,-150.78ZM206.72,-99.71L205.14,-121.70C201.11,-118.61 193.51,-117.05 184.85,-118.93C174.74,-121.08 168.69,-127.60 171.54,-142.52L177.96,-176.07L209.04,-170.13L215.22,-202.44L184.15,-208.39L189.30,-235.32L175.84,-237.89L170.68,-210.96L154.32,-214.10L148.14,-181.78L164.50,-178.65L155.34,-130.80C150.55,-105.74 160.69,-94.78 176.85,-91.68C188.65,-89.42 201.41,-92.14 206.72,-99.71ZM277.70,-74.53L283.41,-104.36L262.70,-108.32L268.45,-138.36C276.61,-151.83 289.15,-155.65 304.89,-152.64C322.50,-149.27 330.00,-137.96 325.99,-117.04L322.15,-96.94L300.19,-101.15L294.48,-71.32L348.96,-60.89L354.67,-90.72L335.20,-94.45L341.54,-127.59C349.27,-167.98 340.30,-182.80 315.23,-187.59C298.25,-190.85 283.52,-185.72 275.11,-173.16L288.63,-243.79L254.86,-250.25L247.92,-214.00L268.43,-210.08L249.44,-110.86L228.94,-114.78L223.23,-84.96ZM461.88,-66.34L453.92,-77.52C446.33,-70.39 436.80,-67.70 418.61,-71.40C399.59,-75.25 388.64,-84.22 389.44,-102.96L469.39,-87.66C479.18,-138.83 464.58,-159.01 436.41,-164.40C411.55,-169.16 386.63,-156.75 378.19,-112.63C371.77,-79.07 383.16,-52.20 414.23,-46.25C434.32,-42.41 452.03,-51.90 461.88,-66.34ZM429.35,-133.12C450.48,-129.07 461.54,-116.22 459.13,-103.58L392.01,-116.43C397.93,-131.62 413.81,-136.09 429.35,-133.12ZM-428.38,-3.52L-422.79,-32.73L-452.21,-38.36L-435.99,-123.08L-407.82,-117.69L-400.68,-154.97L-472.77,-168.77L-479.91,-131.48L-450.91,-125.93L-467.12,-41.21L-497.36,-47.00L-502.95,-17.79ZM-397.86,-28.38L-403.56,1.44C-397.72,2.35 -363.55,8.89 -351.99,11.32L-346.28,-18.51L-364.71,-22.04L-358.89,-52.49C-350.52,-65.92 -337.56,-69.67 -321.82,-66.66C-302.35,-62.93 -296.30,-51.89 -300.34,-30.77L-304.23,-10.47L-324.32,-14.31L-330.03,15.52C-321.29,16.98 -298.75,21.50 -278.04,25.47L-272.33,-4.36L-291.18,-7.97L-284.83,-41.11C-277.06,-81.71 -286.45,-96.61 -314.00,-101.88C-329.54,-104.85 -345.78,-98.51 -352.94,-83.56L-348.58,-106.35L-381.72,-112.69L-388.22,-78.72C-384.45,-78.21 -376.58,-76.71 -368.50,-75.16L-378.18,-24.62ZM-200.32,40.13L-156.64,-34.40L-140.48,-31.31L-133.98,-65.28L-186.59,-75.35L-193.10,-41.38L-181.50,-39.16L-209.66,11.50L-219.20,-46.37L-207.18,-44.07L-200.68,-78.04L-243.76,-86.29L-250.27,-52.32L-233.69,-49.15L-220.00,36.36ZM-73.82,-87.91C-71.52,-99.92 -77.24,-105.95 -88.42,-108.09C-100.85,-110.47 -108.02,-106.69 -110.28,-94.88C-112.54,-83.08 -106.98,-76.22 -94.96,-73.92C-84.19,-71.85 -76.08,-76.10 -73.82,-87.91ZM-136.65,21.60L-142.36,51.43C-133.41,52.93 -124.92,54.56 -116.43,56.18L-109.18,57.57C-100.27,59.27 -91.40,61.18 -82.08,62.97L-76.37,33.14L-97.29,29.14L-81.95,-51.03L-121.31,-58.56L-127.81,-24.59L-101.92,-19.63L-110.76,26.56ZM24.97,53.39C29.37,30.40 20.34,19.23 -8.73,10.66C-26.60,5.30 -31.89,0.43 -30.86,-4.96C-29.39,-12.62 -19.34,-16.93 -3.80,-13.95C13.60,-10.62 19.11,-4.63 21.62,3.58L31.35,5.44L38.61,-32.46L28.87,-34.33L27.17,-25.42C20.81,-33.72 9.34,-40.00 -2.05,-42.18C-23.38,-46.26 -40.88,-36.73 -44.61,-17.25C-49.29,7.19 -39.24,17.49 -12.82,25.33C4.43,30.57 11.17,35.72 10.10,41.32C8.75,48.36 -0.10,53.11 -18.74,49.54C-37.39,45.97 -39.52,38.05 -44.35,28.53L-53.68,26.75L-61.33,66.73L-52.01,68.51L-49.79,56.91C-44.50,66.30 -33.76,74.15 -20.09,76.77C4.77,81.52 21.40,72.04 24.97,53.39ZM111.78,-52.39C114.08,-64.40 108.36,-70.43 97.17,-72.58C84.75,-74.95 77.58,-71.17 75.32,-59.36C73.06,-47.56 78.62,-40.70 90.63,-38.40C101.40,-36.34 109.52,-40.58 111.78,-52.39ZM48.95,57.12L43.24,86.95C52.19,88.45 60.68,90.08 69.17,91.70L76.42,93.09C85.33,94.79 94.20,96.70 103.52,98.49L109.23,68.66L88.30,64.66L103.65,-15.51L64.29,-23.04L57.79,10.93L83.68,15.89L74.84,62.08ZM187.47,116.49C215.22,121.80 235.18,103.93 242.11,67.68C250.64,23.15 236.62,3.28 211.10,-1.39C197.80,-3.72 182.35,-1.52 172.37,12.46L185.77,-57.55L149.73,-64.45L142.79,-28.20L165.37,-23.88L146.34,75.55L123.77,71.23L118.06,101.06L152.03,107.56L156.89,90.02C161.34,102.68 172.35,113.59 187.47,116.49ZM190.90,91.81C174.33,88.63 165.77,83.99 160.72,73.36L164.64,52.85C167.90,36.94 178.99,27.26 203.23,31.89C224.56,35.98 232.99,49.18 229.89,65.34C226.26,85.47 212.86,96.01 190.90,91.81ZM288.76,135.87C303.67,138.73 313.35,134.14 319.18,128.38L317.70,104.69C312.97,108.08 306.32,109.17 298.04,107.59C286.02,105.29 282.85,97.16 285.23,84.74L308.07,-34.58L273.68,-41.16L266.74,-4.91L287.04,-1.02L268.13,97.78C263.69,120.98 270.53,132.38 288.76,135.87ZM424.86,132.71L416.90,121.53C409.31,128.67 399.78,131.35 381.59,127.66C362.57,123.80 351.62,114.83 352.42,96.09L432.37,111.39C442.16,60.23 427.56,40.04 399.39,34.65C374.53,29.89 349.61,42.30 341.17,86.42C334.75,119.98 346.14,146.85 377.21,152.80C397.30,156.64 415.01,147.15 424.86,132.71ZM392.33,65.94C413.46,69.98 424.52,82.83 422.11,95.47L354.99,82.63C360.91,67.44 376.79,62.96 392.33,65.94Z" fill="#ffffff" stroke="#000000"/>
    <path d="M-407.68,-218.58L-396.70,-216.04L-379.61,-290.05L-433.49,-302.50L-436.92,-287.65L-395.24,-278.03C-402.37,-255.47 -422.77,-249.69 -450.22,-256.03C-481.33,-263.21 -495.11,-283.31 -489.19,-308.93C-483.07,-334.50 -463.39,-352.02 -429.84,-344.27C-409.71,-339.62 -396.20,-331.36 -389.79,-318.32L-377.79,-315.55L-365.82,-367.40L-377.82,-370.17L-382.79,-348.62C-388.03,-363.96 -403.03,-375.99 -421.53,-380.26C-456.91,-388.43 -487.96,-372.68 -501.06,-315.95C-512.66,-265.73 -493.75,-236.31 -457.15,-227.86C-436.41,-223.07 -419.17,-224.44 -405.91,-235.52ZM-367.67,-239.75L-374.43,-210.47C-368.69,-209.36 -335.14,-201.61 -323.80,-198.78L-317.04,-228.06L-335.34,-232.29L-328.62,-261.36C-325.34,-275.60 -316.19,-281.84 -306.22,-279.54C-297.07,-277.42 -292.71,-274.06 -291.49,-268.21L-275.97,-300.18C-280.22,-305.87 -284.20,-310.00 -293.96,-312.26C-302.29,-314.18 -313.77,-310.83 -321.27,-299.71L-324.52,-317.17L-348.51,-322.71L-356.21,-289.36C-351.33,-288.24 -345.59,-287.13 -337.30,-285.00L-348.76,-235.38ZM-190.93,-168.53C-182.79,-166.65 -176.44,-168.19 -171.70,-172.02L-165.88,-197.23C-171.92,-192.41 -177.43,-191.76 -183.73,-193.21C-188.61,-194.34 -192.32,-197.77 -192.86,-202.82L-185.45,-234.94C-176.76,-272.56 -186.39,-287.42 -214.05,-293.81C-229.30,-297.33 -243.19,-295.61 -253.03,-288.24L-258.27,-261.82C-251.28,-267.06 -239.84,-270.21 -222.56,-266.22C-203.45,-261.80 -196.33,-251.81 -199.73,-232.46C-206.90,-240.33 -220.72,-245.44 -230.27,-247.65C-254.47,-253.24 -274.08,-243.42 -279.01,-222.07C-283.57,-202.34 -272.93,-185.32 -244.06,-178.66C-230.84,-175.61 -216.77,-178.14 -208.12,-184.07C-205.69,-176.01 -199.67,-170.55 -190.93,-168.53ZM-237.99,-204.03C-256.90,-208.39 -263.86,-215.35 -261.79,-224.30C-259.63,-233.65 -249.87,-236.97 -229.95,-232.37C-218.56,-229.74 -210.11,-224.58 -203.23,-216.35L-205.63,-205.98C-213.54,-201.38 -225.38,-201.12 -237.99,-204.03ZM-71.96,-170.83C-66.75,-193.40 -75.26,-204.79 -103.68,-214.35C-121.15,-220.31 -126.20,-225.33 -124.98,-230.62C-123.24,-238.14 -113.14,-242.02 -97.89,-238.50C-80.81,-234.56 -75.58,-228.43 -73.41,-220.21L-63.85,-218.01L-55.26,-255.22L-64.82,-257.42L-66.84,-248.68C-72.81,-257.13 -83.92,-263.76 -95.10,-266.34C-116.04,-271.18 -133.70,-262.40 -138.11,-243.29C-143.65,-219.30 -134.10,-208.74 -108.28,-199.99C-91.42,-194.17 -84.94,-188.82 -86.21,-183.33C-87.80,-176.42 -96.74,-172.06 -115.04,-176.28C-133.34,-180.51 -135.15,-188.42 -139.57,-198.01L-148.72,-200.12L-157.78,-160.88L-148.63,-158.77L-146.01,-170.15C-141.13,-160.68 -130.80,-152.51 -117.38,-149.41C-92.98,-143.78 -76.19,-152.53 -71.96,-170.83ZM-60.83,-126.29L-67.59,-97.01C-61.85,-95.90 -28.30,-88.15 -16.96,-85.32L-10.20,-114.60L-28.30,-118.78L-22.61,-143.38C-15.86,-130.90 -5.76,-123.64 5.83,-120.96C30.64,-115.23 53.43,-128.60 61.93,-165.41C72.63,-211.77 58.21,-230.94 33.81,-236.58C21.21,-239.49 6.07,-236.99 -3.93,-224.30L0.20,-242.20L-32.33,-249.71L-40.03,-216.36C-36.32,-215.72 -28.60,-213.94 -20.67,-212.11L-41.51,-121.83ZM11.03,-147.18C-2.34,-150.48 -14.10,-157.05 -16.75,-168.79L-12.19,-188.52C-8.95,-202.55 2.03,-208.37 24.60,-203.15C43.91,-198.69 54.05,-186.93 50.10,-169.85C45.05,-147.03 31.07,-142.12 11.03,-147.18ZM202.00,-89.38L201.25,-111.18C197.16,-108.27 189.59,-107.02 181.09,-109.20C171.18,-111.70 165.44,-118.38 168.82,-133.02L176.42,-165.96L206.92,-158.92L214.25,-190.64L183.75,-197.68L189.85,-224.11L176.63,-227.16L170.53,-200.73L154.47,-204.44L147.14,-172.72L163.21,-169.01L152.36,-122.04C146.68,-97.44 156.30,-86.22 172.16,-82.56C183.75,-79.88 196.47,-82.09 202.00,-89.38ZM271.24,-61.82L278.00,-91.10L257.67,-95.80L264.48,-125.28C273.05,-138.29 285.60,-141.61 301.05,-138.04C318.33,-134.05 325.32,-122.58 320.58,-102.05L316.03,-82.32L294.47,-87.30L287.71,-58.02L341.19,-45.67L347.95,-74.95L328.84,-79.37L336.35,-111.90C345.50,-151.55 337.18,-166.53 312.58,-172.22C295.91,-176.06 281.16,-171.55 272.36,-159.44L288.37,-228.78L255.23,-236.43L247.01,-200.85L267.14,-196.20L244.66,-98.80L224.53,-103.45L217.77,-74.17ZM453.04,-46.84L445.60,-58.19C437.82,-51.42 428.30,-49.12 410.45,-53.46C391.79,-57.98 381.30,-67.25 382.78,-85.76L461.27,-67.64C472.87,-117.86 459.18,-138.37 431.53,-144.75C407.13,-150.39 382.02,-139.05 372.02,-95.74C364.42,-62.80 374.68,-35.80 405.18,-28.76C424.90,-24.21 442.76,-32.93 453.04,-46.84ZM423.38,-114.08C444.12,-109.29 454.58,-96.17 451.71,-83.76L385.84,-98.97C392.25,-113.77 408.13,-117.60 423.38,-114.08ZM-429.57,-18.03L-422.95,-46.70L-451.82,-53.36L-432.62,-136.53L-404.97,-130.14L-396.52,-166.74L-467.27,-183.08L-475.73,-146.48L-447.26,-139.91L-466.46,-56.74L-496.15,-63.60L-502.77,-34.93ZM-398.45,-41.47L-405.21,-12.19C-399.47,-11.08 -365.92,-3.33 -354.58,-0.50L-347.82,-29.78L-365.92,-33.96L-359.02,-63.85C-350.24,-76.81 -337.29,-80.03 -321.84,-76.47C-302.73,-72.05 -297.16,-60.92 -301.95,-40.18L-306.55,-20.25L-326.27,-24.80L-333.03,4.48C-324.44,6.24 -302.33,11.56 -282.00,16.26L-275.24,-13.02L-293.74,-17.29L-286.23,-49.83C-277.03,-89.68 -285.75,-104.76 -312.79,-111.00C-328.04,-114.52 -344.34,-108.86 -351.98,-94.35L-346.81,-116.71L-379.35,-124.23L-387.05,-90.88C-383.34,-90.24 -375.61,-88.45 -367.68,-86.62L-379.14,-37.01ZM-205.70,33.66L-159.72,-38.39L-143.86,-34.73L-136.16,-68.08L-187.81,-80.00L-195.51,-46.66L-184.12,-44.03L-213.86,5.00L-221.13,-52.57L-209.33,-49.85L-201.64,-83.20L-243.93,-92.96L-251.63,-59.61L-235.36,-55.86L-225.02,29.20ZM-75.83,-88.20C-73.11,-100.00 -78.54,-106.17 -89.52,-108.71C-101.72,-111.53 -108.94,-108.05 -111.62,-96.46C-114.29,-84.87 -109.06,-77.88 -97.26,-75.16C-86.69,-72.72 -78.51,-76.61 -75.83,-88.20ZM-142.05,17.73L-148.81,47.01C-140.02,48.82 -131.69,50.75 -123.35,52.67L-116.23,54.32C-107.49,56.34 -98.79,58.56 -89.64,60.67L-82.88,31.39L-103.42,26.65L-85.25,-52.04L-123.89,-60.96L-131.58,-27.61L-106.17,-21.75L-116.64,23.60ZM16.56,55.21C21.77,32.64 13.26,21.25 -15.16,11.69C-32.63,5.73 -37.68,0.71 -36.46,-4.58C-34.72,-12.10 -24.62,-15.98 -9.37,-12.46C7.71,-8.52 12.94,-2.38 15.11,5.83L24.67,8.03L33.26,-29.18L23.70,-31.38L21.68,-22.64C15.71,-31.09 4.60,-37.72 -6.58,-40.30C-27.52,-45.14 -45.18,-36.36 -49.59,-17.25C-55.13,6.74 -45.58,17.30 -19.76,26.05C-2.90,31.87 3.58,37.22 2.31,42.71C0.72,49.62 -8.22,53.98 -26.52,49.76C-44.82,45.53 -46.63,37.62 -51.05,28.03L-60.20,25.92L-69.26,65.16L-60.11,67.27L-57.49,55.89C-52.61,65.37 -42.28,73.53 -28.86,76.63C-4.46,82.26 12.33,73.51 16.56,55.21ZM106.35,-46.14C109.07,-57.93 103.65,-64.11 92.67,-66.65C80.47,-69.46 73.24,-65.99 70.57,-54.40C67.89,-42.81 73.13,-35.82 84.92,-33.10C95.50,-30.65 103.68,-34.55 106.35,-46.14ZM40.13,59.79L33.37,89.07C42.16,90.89 50.50,92.81 58.83,94.74L65.95,96.38C74.69,98.40 83.39,100.62 92.54,102.73L99.30,73.45L78.76,68.71L96.93,-9.98L58.30,-18.90L50.60,14.45L76.02,20.32L65.55,65.66ZM174.87,123.67C202.12,129.96 222.52,113.04 230.73,77.46C240.83,33.74 227.71,13.58 202.65,8.01C189.59,5.21 174.23,6.80 163.84,20.25L179.71,-48.48L144.33,-56.65L136.11,-21.06L158.28,-15.95L135.74,81.65L113.58,76.54L106.82,105.82L140.17,113.52L145.63,96.36C149.55,109.04 160.03,120.24 174.87,123.67ZM179.19,99.40C162.93,95.64 154.64,90.73 150.04,80.03L154.69,59.90C158.51,44.29 169.83,35.12 193.62,40.62C214.56,45.45 222.40,58.83 218.74,74.69C214.39,94.46 200.75,104.37 179.19,99.40ZM274.30,146.63C288.94,150.01 298.69,145.83 304.66,140.36L304.09,116.88C299.28,120.06 292.67,120.88 284.53,119.01C272.74,116.28 269.91,108.13 272.73,95.93L299.77,-21.18L266.02,-28.98L257.80,6.60L277.73,11.21L255.33,108.19C250.08,130.97 256.41,142.50 274.30,146.63ZM408.99,148.60L401.54,137.24C393.77,144.01 384.24,146.31 366.40,141.98C347.74,137.45 337.24,128.18 338.73,109.67L417.22,127.80C428.81,77.57 415.13,57.07 387.48,50.68C363.08,45.05 337.97,56.38 327.97,99.69C320.37,132.63 330.62,159.63 361.12,166.67C380.85,171.23 398.71,162.50 408.99,148.60ZM379.32,81.35C400.06,86.14 410.53,99.26 407.66,111.67L341.78,96.46C348.20,81.66 364.07,77.83 379.32,81.35Z" fill="#ffffff" stroke="#000000"/>
    <path d="M-400.99,-230.11L-390.23,-227.20L-370.57,-299.73L-423.37,-314.05L-427.32,-299.50L-386.47,-288.43C-394.37,-266.39 -414.75,-261.44 -441.65,-268.73C-472.14,-277.00 -485.01,-297.38 -478.20,-322.49C-471.19,-347.54 -451.08,-364.13 -418.20,-355.21C-398.48,-349.86 -385.43,-341.19 -379.57,-328.06L-367.82,-324.87L-354.04,-375.68L-365.80,-378.87L-371.53,-357.75C-376.13,-373.11 -390.51,-385.57 -408.64,-390.48C-443.31,-399.88 -474.60,-385.48 -489.67,-329.88C-503.02,-280.66 -485.42,-250.86 -449.56,-241.14C-429.23,-235.63 -412.14,-236.34 -398.61,-246.80ZM-360.64,-249.55L-368.42,-220.86C-362.79,-219.54 -329.91,-210.63 -318.80,-207.41L-311.02,-236.10L-328.96,-240.96L-321.23,-269.46C-317.45,-283.41 -308.17,-289.23 -298.41,-286.59C-289.44,-284.15 -285.25,-280.67 -284.26,-274.84L-267.73,-305.86C-271.72,-311.65 -275.49,-315.88 -285.06,-318.48C-293.23,-320.69 -304.70,-317.81 -312.53,-307.10L-315.09,-324.48L-338.60,-330.85L-347.46,-298.17C-342.68,-296.88 -337.04,-295.56 -328.93,-293.15L-342.11,-244.53ZM-188.57,-172.53C-180.60,-170.37 -174.27,-171.65 -169.44,-175.26L-162.74,-199.97C-168.89,-195.43 -174.36,-194.99 -180.53,-196.66C-185.32,-197.96 -188.85,-201.48 -189.20,-206.50L-180.67,-237.98C-170.67,-274.85 -179.64,-289.90 -206.74,-297.25C-221.69,-301.30 -235.48,-300.12 -245.49,-293.20L-251.66,-267.28C-244.55,-272.20 -233.13,-274.88 -216.19,-270.29C-197.46,-265.21 -190.80,-255.06 -194.88,-236.06C-201.68,-244.11 -215.15,-249.68 -224.51,-252.22C-248.22,-258.65 -267.98,-249.67 -273.66,-228.75C-278.90,-209.42 -269.02,-192.20 -240.72,-184.53C-227.77,-181.02 -213.76,-182.99 -204.98,-188.53C-202.89,-180.48 -197.14,-174.85 -188.57,-172.53ZM-233.77,-209.38C-252.30,-214.41 -258.92,-221.55 -256.55,-230.32C-254.06,-239.48 -244.29,-242.39 -224.76,-237.10C-213.60,-234.08 -205.44,-228.66 -198.95,-220.26L-201.70,-210.10C-209.70,-205.85 -221.42,-206.03 -233.77,-209.38ZM-70.87,-170.35C-64.87,-192.47 -72.86,-204.05 -100.60,-214.57C-117.65,-221.11 -122.45,-226.27 -121.05,-231.45C-119.05,-238.82 -108.91,-242.28 -93.97,-238.22C-77.23,-233.69 -72.30,-227.43 -70.45,-219.23L-61.09,-216.69L-51.20,-253.16L-60.57,-255.69L-62.89,-247.13C-68.48,-255.70 -79.21,-262.67 -90.17,-265.64C-110.70,-271.21 -128.48,-263.20 -133.56,-244.47C-139.94,-220.95 -130.88,-210.15 -105.68,-200.54C-89.23,-194.16 -83.03,-188.63 -84.49,-183.25C-86.32,-176.47 -95.32,-172.49 -113.25,-177.35C-131.19,-182.21 -132.68,-190.11 -136.70,-199.75L-145.67,-202.18L-156.09,-163.72L-147.12,-161.29L-144.10,-172.45C-139.63,-162.90 -129.73,-154.44 -116.58,-150.87C-92.67,-144.39 -75.73,-152.42 -70.87,-170.35ZM-61.53,-125.90L-69.31,-97.20C-63.68,-95.89 -30.80,-86.98 -19.69,-83.75L-11.91,-112.45L-29.65,-117.25L-23.11,-141.36C-16.90,-128.77 -7.18,-121.22 4.18,-118.14C28.49,-111.55 51.52,-123.91 61.30,-159.98C73.61,-205.41 60.08,-224.91 36.16,-231.40C23.81,-234.75 8.75,-232.84 -1.61,-220.67L3.14,-238.21L-28.74,-246.85L-37.60,-214.17C-33.96,-213.40 -26.39,-211.35 -18.61,-209.24L-42.60,-120.76ZM10.29,-143.86C-2.80,-147.62 -14.19,-154.56 -16.36,-166.27L-11.12,-185.60C-7.39,-199.35 3.68,-204.69 25.80,-198.70C44.73,-193.56 54.31,-181.56 49.77,-164.82C43.92,-142.44 29.91,-138.11 10.29,-143.86ZM196.94,-79.57L197.01,-101.16C192.85,-98.43 185.32,-97.48 177.01,-99.95C167.30,-102.80 161.87,-109.61 165.76,-123.96L174.51,-156.24L204.40,-148.14L212.83,-179.23L182.94,-187.33L189.96,-213.23L177.01,-216.74L169.99,-190.84L154.25,-195.11L145.82,-164.02L161.56,-159.75L149.08,-113.72C142.55,-89.61 151.64,-78.16 167.18,-73.95C178.54,-70.87 191.19,-72.57 196.94,-79.57ZM264.36,-49.74L272.14,-78.44L252.22,-83.84L260.05,-112.73C269.01,-125.28 281.54,-128.09 296.68,-123.98C313.62,-119.39 320.10,-107.79 314.64,-87.67L309.40,-68.34L288.28,-74.06L280.50,-45.37L332.91,-31.16L340.69,-59.86L321.96,-64.93L330.60,-96.82C341.14,-135.67 333.47,-150.80 309.36,-157.34C293.02,-161.77 278.27,-157.85 269.12,-146.21L287.54,-214.16L255.06,-222.97L245.61,-188.09L265.34,-182.75L239.46,-87.30L219.73,-92.64L211.96,-63.95ZM443.54,-28.12L436.60,-39.63C428.66,-33.23 419.16,-31.31 401.68,-36.26C383.40,-41.43 373.37,-51.00 375.53,-69.23L452.45,-48.38C465.79,-97.60 453.03,-118.39 425.93,-125.73C402.02,-132.22 376.77,-121.95 365.27,-79.50C356.52,-47.22 365.65,-20.15 395.54,-12.04C414.87,-6.80 432.85,-14.76 443.54,-28.12ZM416.72,-95.72C437.05,-90.21 446.90,-76.84 443.61,-64.68L379.04,-82.19C385.94,-96.57 401.78,-99.77 416.72,-95.72ZM-430.13,-32.66L-422.52,-60.76L-450.81,-68.43L-428.72,-149.93L-401.62,-142.58L-391.90,-178.45L-461.24,-197.25L-470.96,-161.38L-443.07,-153.82L-465.16,-72.32L-494.25,-80.20L-501.87,-52.11ZM-398.50,-54.67L-406.28,-25.98C-400.64,-24.66 -367.76,-15.75 -356.66,-12.53L-348.88,-41.22L-366.61,-46.03L-358.67,-75.32C-349.51,-87.81 -336.59,-90.51 -321.44,-86.41C-302.71,-81.33 -297.62,-70.11 -303.13,-49.78L-308.43,-30.26L-327.76,-35.50L-335.54,-6.80C-327.11,-4.73 -305.45,1.36 -285.52,6.76L-277.74,-21.94L-295.87,-26.85L-287.23,-58.73C-276.64,-97.79 -284.71,-113.03 -311.21,-120.21C-326.15,-124.26 -342.48,-119.28 -350.57,-105.21L-344.63,-127.13L-376.51,-135.77L-385.37,-103.09C-381.73,-102.32 -374.16,-100.27 -366.39,-98.16L-379.57,-49.54ZM-210.74,26.82L-162.59,-42.70L-147.05,-38.49L-138.19,-71.17L-188.80,-84.89L-197.66,-52.21L-186.50,-49.18L-217.74,-1.82L-222.77,-59.01L-211.21,-55.88L-202.35,-88.56L-243.80,-99.80L-252.66,-67.12L-236.72,-62.80L-229.67,21.68ZM-77.79,-88.81C-74.66,-100.36 -79.79,-106.67 -90.55,-109.59C-102.51,-112.83 -109.78,-109.67 -112.86,-98.31C-115.94,-86.95 -111.02,-79.85 -99.46,-76.71C-89.10,-73.90 -80.87,-77.45 -77.79,-88.81ZM-147.22,13.45L-155.00,42.14C-146.38,44.26 -138.21,46.48 -130.04,48.69L-123.06,50.58C-114.49,52.91 -105.98,55.43 -97.01,57.86L-89.23,29.17L-109.36,23.71L-88.45,-53.41L-126.32,-63.67L-135.17,-30.99L-110.27,-24.24L-122.31,20.20ZM8.19,56.43C14.19,34.31 6.20,22.74 -21.54,12.22C-38.59,5.68 -43.39,0.52 -41.99,-4.66C-39.99,-12.03 -29.85,-15.49 -14.91,-11.44C1.83,-6.90 6.76,-0.64 8.61,7.56L17.97,10.10L27.86,-26.37L18.49,-28.91L16.17,-20.34C10.58,-28.91 -0.15,-35.89 -11.11,-38.86C-31.64,-44.42 -49.42,-36.41 -54.50,-17.68C-60.88,5.84 -51.82,16.63 -26.62,26.25C-10.17,32.63 -3.97,38.16 -5.43,43.54C-7.26,50.32 -16.26,54.30 -34.19,49.44C-52.13,44.57 -53.62,36.68 -57.64,27.04L-66.61,24.60L-77.03,63.06L-68.06,65.49L-65.04,54.34C-60.57,63.89 -50.67,72.35 -37.52,75.91C-13.61,82.40 3.33,74.37 8.19,56.43ZM100.76,-40.40C103.89,-51.96 98.75,-58.27 87.99,-61.19C76.04,-64.43 68.76,-61.27 65.68,-49.91C62.61,-38.55 67.52,-31.44 79.08,-28.31C89.44,-25.50 97.68,-29.05 100.76,-40.40ZM31.32,61.85L23.54,90.54C32.17,92.67 40.34,94.88 48.51,97.10L55.48,98.99C64.05,101.31 72.56,103.83 81.53,106.26L89.31,77.57L69.18,72.11L90.09,-5.00L52.23,-15.27L43.37,17.41L68.28,24.16L56.23,68.60ZM162.15,130.04C188.85,137.28 209.65,121.31 219.10,86.44C230.72,43.60 218.50,23.17 193.93,16.73C181.13,13.47 165.88,14.47 155.11,27.38L173.37,-39.97L138.70,-49.37L129.24,-14.50L150.96,-8.61L125.03,87.04L103.31,81.15L95.53,109.84L128.21,118.70L134.25,101.94C137.66,114.63 147.60,126.10 162.15,130.04ZM167.33,106.20C151.38,101.88 143.37,96.72 139.23,85.97L144.58,66.24C148.93,50.95 160.47,42.31 183.79,48.63C204.31,54.20 211.56,67.71 207.35,83.25C202.30,102.64 188.45,111.93 167.33,106.20ZM259.59,156.46C273.94,160.35 283.73,156.58 289.84,151.40L290.15,128.16C285.28,131.12 278.71,131.69 270.74,129.53C259.18,126.40 256.69,118.24 259.93,106.28L291.04,-8.50L257.97,-17.47L248.51,17.41L268.04,22.70L242.27,117.75C236.22,140.07 242.05,151.70 259.59,156.46ZM392.67,163.44L385.74,151.94C377.80,158.34 368.30,160.26 350.81,155.30C332.54,150.13 322.51,140.57 324.67,122.33L401.59,143.18C414.93,93.97 402.17,73.18 375.07,65.83C351.16,59.35 325.91,69.62 314.41,112.06C305.65,144.35 314.79,171.42 344.68,179.52C364.01,184.76 381.99,176.80 392.67,163.44ZM365.86,95.85C386.19,101.36 396.04,114.73 392.74,126.88L328.18,109.38C335.08,94.99 350.92,91.80 365.86,95.85Z" fill="#ffffff" stroke="#000000"/>
    <path d="M-393.88,-241.49L-383.35,-238.20L-361.20,-309.17L-412.87,-325.29L-417.31,-311.06L-377.34,-298.58C-385.97,-277.10 -406.31,-272.96 -432.63,-281.18C-462.46,-290.49 -474.42,-311.13 -466.75,-335.69C-458.89,-360.20 -438.39,-375.83 -406.22,-365.79C-386.92,-359.77 -374.34,-350.71 -369.05,-337.50L-357.54,-333.91L-342.03,-383.63L-353.53,-387.22L-359.98,-366.55C-363.96,-381.92 -377.70,-394.76 -395.45,-400.30C-429.37,-410.89 -460.84,-397.82 -477.81,-343.42C-492.85,-295.27 -476.57,-265.16 -441.48,-254.20C-421.59,-247.99 -404.67,-248.06 -390.90,-257.89ZM-353.27,-259.19L-362.03,-231.12C-356.51,-229.61 -324.34,-219.57 -313.48,-215.96L-304.72,-244.04L-322.27,-249.51L-313.56,-277.39C-309.30,-291.04 -299.91,-296.45 -290.36,-293.47C-281.59,-290.73 -277.58,-287.13 -276.82,-281.33L-259.31,-311.38C-263.04,-317.25 -266.61,-321.58 -275.97,-324.50C-283.96,-326.99 -295.41,-324.58 -303.55,-314.28L-305.43,-331.55L-328.44,-338.74L-338.42,-306.76C-333.74,-305.30 -328.22,-303.79 -320.29,-301.10L-335.13,-253.53ZM-186.05,-176.62C-178.25,-174.18 -171.94,-175.21 -167.03,-178.60L-159.49,-202.77C-165.73,-198.52 -171.16,-198.28 -177.20,-200.17C-181.88,-201.63 -185.24,-205.25 -185.40,-210.22L-175.79,-241.02C-164.53,-277.09 -172.83,-292.31 -199.35,-300.58C-213.97,-305.15 -227.65,-304.50 -237.80,-298.04L-244.87,-272.64C-237.66,-277.24 -226.27,-279.46 -209.70,-274.29C-191.37,-268.57 -185.16,-258.28 -189.91,-239.65C-196.33,-247.86 -209.43,-253.88 -218.60,-256.74C-241.80,-263.98 -261.67,-255.85 -268.06,-235.38C-273.96,-216.46 -264.84,-199.07 -237.15,-190.43C-224.48,-186.47 -210.56,-187.90 -201.68,-193.05C-199.91,-185.01 -194.43,-179.23 -186.05,-176.62ZM-229.35,-214.74C-247.48,-220.40 -253.76,-227.70 -251.08,-236.28C-248.28,-245.25 -238.51,-247.76 -219.41,-241.80C-208.49,-238.39 -200.63,-232.73 -194.52,-224.19L-197.63,-214.25C-205.69,-210.35 -217.26,-210.96 -229.35,-214.74ZM-69.78,-170.06C-63.02,-191.70 -70.48,-203.45 -97.51,-214.88C-114.12,-221.99 -118.68,-227.26 -117.10,-232.33C-114.84,-239.55 -104.70,-242.58 -90.07,-238.02C-73.70,-232.91 -69.05,-226.54 -67.54,-218.36L-58.38,-215.50L-47.24,-251.18L-56.40,-254.04L-59.02,-245.66C-64.22,-254.34 -74.57,-261.64 -85.29,-264.98C-105.38,-271.25 -123.26,-264.00 -128.98,-245.67C-136.16,-222.66 -127.62,-211.65 -103.06,-201.21C-87.04,-194.28 -81.11,-188.58 -82.76,-183.32C-84.83,-176.69 -93.87,-173.09 -111.41,-178.57C-128.96,-184.04 -130.14,-191.90 -133.75,-201.59L-142.53,-204.32L-154.27,-166.70L-145.50,-163.96L-142.09,-174.88C-138.03,-165.26 -128.56,-156.53 -115.69,-152.52C-92.30,-145.21 -75.25,-152.52 -69.78,-170.06ZM-62.21,-125.77L-70.97,-97.69C-65.45,-96.18 -33.28,-86.14 -22.42,-82.54L-13.66,-110.61L-31.01,-116.03L-23.65,-139.62C-17.98,-126.94 -8.66,-119.11 2.46,-115.64C26.24,-108.21 49.47,-119.58 60.49,-154.87C74.36,-199.32 61.71,-219.10 38.31,-226.40C26.22,-230.17 11.26,-228.85 0.57,-217.21L5.92,-234.37L-25.27,-244.11L-35.25,-212.13C-31.68,-211.23 -24.27,-208.92 -16.67,-206.55L-43.69,-119.98ZM9.47,-140.84C-3.34,-145.05 -14.33,-152.33 -16.04,-163.99L-10.14,-182.90C-5.94,-196.35 5.21,-201.22 26.85,-194.46C45.37,-188.68 54.39,-176.45 49.28,-160.08C42.66,-138.18 28.65,-134.42 9.47,-140.84ZM191.57,-70.30L192.45,-91.64C188.23,-89.10 180.75,-88.44 172.63,-91.19C163.13,-94.37 158.03,-101.31 162.41,-115.35L172.27,-146.94L201.51,-137.81L211.00,-168.22L181.76,-177.35L189.67,-202.69L177.00,-206.65L169.09,-181.30L153.68,-186.11L144.19,-155.70L159.59,-150.89L145.54,-105.85C138.17,-82.26 146.73,-70.61 161.94,-65.86C173.05,-62.39 185.62,-63.60 191.57,-70.30ZM257.10,-38.30L265.87,-66.37L246.37,-72.46L255.19,-100.73C264.52,-112.79 277.01,-115.10 291.83,-110.47C308.40,-105.30 314.37,-93.59 308.23,-73.90L302.32,-54.99L281.66,-61.44L272.89,-33.37L324.17,-17.36L332.93,-45.44L314.61,-51.16L324.34,-82.35C336.21,-120.37 329.20,-135.61 305.61,-142.97C289.62,-147.96 274.89,-144.64 265.42,-133.48L286.17,-199.96L254.39,-209.88L243.74,-175.76L263.04,-169.74L233.89,-76.35L214.59,-82.37L205.83,-54.30ZM433.41,-10.22L426.99,-21.86C418.90,-15.82 409.43,-14.28 392.34,-19.83C374.46,-25.63 364.91,-35.46 367.73,-53.40L442.98,-29.91C458.01,-78.07 446.18,-99.10 419.66,-107.37C396.27,-114.67 370.93,-105.47 357.96,-63.94C348.11,-32.36 356.12,-5.25 385.36,3.88C404.28,9.78 422.35,2.59 433.41,-10.22ZM409.44,-78.04C429.32,-71.84 438.56,-58.25 434.85,-46.36L371.68,-66.08C379.04,-80.04 394.81,-82.61 409.44,-78.04ZM-430.07,-47.38L-421.49,-74.87L-449.18,-83.51L-424.29,-163.25L-397.78,-154.98L-386.82,-190.07L-454.67,-211.25L-465.62,-176.16L-438.33,-167.64L-463.22,-87.90L-491.68,-96.78L-500.26,-69.29ZM-397.98,-67.96L-406.74,-39.89C-401.22,-38.38 -369.05,-28.34 -358.19,-24.73L-349.43,-52.81L-366.78,-58.22L-357.84,-86.88C-348.31,-98.89 -335.44,-101.07 -320.62,-96.45C-302.29,-90.73 -297.68,-79.45 -303.89,-59.56L-309.85,-40.45L-328.77,-46.36L-337.53,-18.28C-329.28,-15.92 -308.09,-9.09 -288.59,-3.01L-279.83,-31.08L-297.57,-36.62L-287.83,-67.81C-275.91,-106.03 -283.31,-121.39 -309.24,-129.48C-323.86,-134.05 -340.19,-129.73 -348.71,-116.13L-342.02,-137.57L-373.21,-147.31L-383.19,-115.34C-379.62,-114.44 -372.21,-112.12 -364.61,-109.75L-379.46,-62.18ZM-215.42,19.62L-165.22,-47.30L-150.01,-42.56L-140.03,-74.53L-189.55,-89.99L-199.53,-58.01L-188.62,-54.60L-221.27,-8.95L-224.10,-65.68L-212.79,-62.15L-202.81,-94.12L-243.36,-106.78L-253.34,-74.81L-237.75,-69.94L-233.94,13.84ZM-79.67,-89.71C-76.14,-101.01 -80.98,-107.45 -91.50,-110.73C-103.20,-114.38 -110.51,-111.53 -113.98,-100.42C-117.45,-89.30 -112.85,-82.09 -101.55,-78.56C-91.41,-75.40 -83.14,-78.59 -79.67,-89.71ZM-152.13,8.78L-160.89,36.85C-152.45,39.27 -144.45,41.77 -136.46,44.26L-129.64,46.39C-121.25,49.01 -112.93,51.82 -104.16,54.56L-95.39,26.48L-115.08,20.34L-91.53,-55.11L-128.58,-66.67L-138.56,-34.70L-114.19,-27.09L-127.76,16.38ZM-0.10,57.08C6.65,35.44 -0.81,23.70 -27.84,12.27C-44.45,5.16 -49.01,-0.12 -47.42,-5.19C-45.17,-12.40 -35.02,-15.44 -20.40,-10.87C-4.02,-5.76 0.62,0.61 2.13,8.78L11.30,11.64L22.43,-24.03L13.27,-26.89L10.65,-18.51C5.45,-27.20 -4.90,-34.49 -15.62,-37.84C-35.70,-44.11 -53.59,-36.85 -59.31,-18.52C-66.49,4.48 -57.94,15.49 -33.39,25.94C-17.37,32.87 -11.44,38.57 -13.09,43.83C-15.15,50.46 -24.19,54.06 -41.74,48.58C-59.29,43.10 -60.47,35.24 -64.08,25.56L-72.85,22.82L-84.60,60.45L-75.83,63.19L-72.42,52.27C-68.36,61.88 -58.89,70.61 -46.02,74.63C-22.62,81.93 -5.58,74.63 -0.10,57.08ZM95.02,-35.18C98.55,-46.49 93.71,-52.92 83.18,-56.21C71.48,-59.86 64.18,-57.01 60.71,-45.89C57.24,-34.78 61.83,-27.57 73.14,-24.04C83.28,-20.87 91.55,-24.07 95.02,-35.18ZM22.56,63.30L13.80,91.38C22.24,93.80 30.23,96.29 38.23,98.79L45.05,100.92C53.44,103.53 61.76,106.35 70.53,109.08L79.29,81.01L59.60,74.86L83.15,-0.59L46.11,-12.15L36.13,19.82L60.50,27.43L46.93,70.91ZM149.33,135.61C175.46,143.76 196.62,128.75 207.27,94.64C220.35,52.72 209.04,32.07 184.99,24.78C172.46,21.08 157.35,21.50 146.22,33.86L166.78,-32.04L132.86,-42.63L122.21,-8.51L143.46,-1.88L114.25,91.71L93.00,85.07L84.24,113.15L116.21,123.13L122.81,106.79C125.70,119.46 135.10,131.16 149.33,135.61ZM155.34,112.24C139.75,107.37 132.02,101.96 128.33,91.18L134.35,71.88C139.23,56.93 150.96,48.82 173.77,55.94C193.85,62.21 200.51,75.84 195.76,91.05C190.06,110.02 176.01,118.69 155.34,112.24ZM244.67,165.36C258.71,169.74 268.53,166.39 274.76,161.49L275.94,138.54C271.02,141.28 264.50,141.60 256.70,139.16C245.39,135.63 243.23,127.47 246.88,115.77L281.94,3.47L249.57,-6.63L238.92,27.49L258.03,33.46L229.00,126.45C222.19,148.29 227.51,160.01 244.67,165.36ZM375.97,177.25L369.54,165.61C361.46,171.65 351.99,173.19 334.89,167.64C317.02,161.84 307.46,152.01 310.28,134.06L385.54,157.55C400.57,109.40 388.73,88.37 362.22,80.10C338.82,72.79 313.48,82.00 300.52,123.53C290.66,155.11 298.68,182.22 327.92,191.35C346.83,197.25 364.91,190.06 375.97,177.25ZM351.99,109.43C371.88,115.63 381.12,129.22 377.41,141.11L314.24,121.39C321.59,107.43 337.37,104.86 351.99,109.43Z" fill="#ffffff" stroke="#000000"/>
    <path d="M-386.35,-252.67L-376.07,-249.03L-351.52,-318.34L-401.98,-336.22L-406.90,-322.31L-367.87,-308.49C-377.20,-287.58 -397.45,-284.25 -423.16,-293.35C-452.30,-303.67 -463.35,-324.52 -454.85,-348.51C-446.16,-372.44 -425.31,-387.13 -393.89,-376.00C-375.04,-369.32 -362.95,-359.90 -358.21,-346.65L-346.97,-342.67L-329.78,-391.23L-341.01,-395.21L-348.16,-375.02C-351.52,-390.35 -364.63,-403.57 -381.96,-409.71C-415.09,-421.44 -446.68,-409.70 -465.50,-356.57C-482.16,-309.53 -467.19,-279.16 -432.92,-267.02C-413.49,-260.14 -396.76,-259.57 -382.79,-268.77ZM-345.54,-268.65L-355.25,-241.23C-349.85,-239.53 -318.43,-228.40 -307.84,-224.44L-298.12,-251.86L-315.26,-257.93L-305.62,-285.16C-300.90,-298.49 -291.41,-303.49 -282.08,-300.18C-273.51,-297.15 -269.68,-293.44 -269.15,-287.67L-250.72,-316.72C-254.19,-322.67 -257.56,-327.07 -266.70,-330.31C-274.50,-333.08 -285.91,-331.12 -294.34,-321.24L-295.55,-338.39L-318.03,-346.35L-329.09,-315.12C-324.52,-313.50 -319.12,-311.80 -311.38,-308.84L-327.83,-262.38ZM-183.35,-180.78C-175.73,-178.08 -169.46,-178.86 -164.48,-182.02L-156.11,-205.64C-162.45,-201.67 -167.82,-201.64 -173.72,-203.73C-178.29,-205.35 -181.48,-209.05 -181.45,-213.97L-170.80,-244.06C-158.32,-279.29 -165.96,-294.64 -191.86,-303.81C-206.14,-308.87 -219.69,-308.73 -229.96,-302.73L-237.90,-277.89C-230.60,-282.17 -219.25,-283.93 -203.07,-278.20C-185.17,-271.86 -179.42,-261.47 -184.81,-243.23C-190.85,-251.59 -203.57,-258.02 -212.52,-261.19C-235.18,-269.22 -255.13,-261.92 -262.21,-241.92C-268.75,-223.45 -260.39,-205.92 -233.35,-196.34C-220.97,-191.96 -207.15,-192.85 -198.18,-197.60C-196.73,-189.59 -191.54,-183.68 -183.35,-180.78ZM-224.72,-220.08C-242.43,-226.35 -248.37,-233.81 -245.40,-242.19C-242.30,-250.95 -232.54,-253.07 -213.88,-246.46C-203.22,-242.68 -195.66,-236.79 -189.94,-228.12L-193.38,-218.41C-201.50,-214.85 -212.92,-215.90 -224.72,-220.08ZM-68.67,-169.95C-61.18,-191.09 -68.12,-202.98 -94.40,-215.29C-110.55,-222.94 -114.86,-228.32 -113.11,-233.27C-110.61,-240.32 -100.47,-242.94 -86.19,-237.88C-70.19,-232.22 -65.84,-225.75 -64.65,-217.61L-55.70,-214.44L-43.36,-249.29L-52.31,-252.46L-55.21,-244.27C-60.03,-253.05 -69.98,-260.65 -80.46,-264.35C-100.07,-271.30 -118.02,-264.80 -124.36,-246.90C-132.31,-224.43 -124.28,-213.22 -100.40,-201.98C-84.82,-194.53 -79.18,-188.68 -81.00,-183.54C-83.29,-177.06 -92.36,-173.84 -109.50,-179.91C-126.64,-185.98 -127.52,-193.80 -130.72,-203.50L-139.29,-206.54L-152.31,-169.79L-143.74,-166.75L-139.96,-177.41C-136.31,-167.76 -127.28,-158.78 -114.71,-154.33C-91.86,-146.23 -74.74,-152.81 -68.67,-169.95ZM-62.84,-125.88L-72.55,-98.46C-67.15,-96.77 -35.73,-85.64 -25.14,-81.67L-15.42,-109.09L-32.37,-115.09L-24.21,-138.14C-19.08,-125.39 -10.16,-117.30 0.69,-113.46C23.93,-105.23 47.31,-115.59 59.52,-150.06C74.90,-193.48 63.13,-213.50 40.28,-221.60C28.47,-225.78 13.63,-225.03 2.63,-213.93L8.56,-230.69L-21.91,-241.48L-32.97,-210.25C-29.47,-209.22 -22.23,-206.66 -14.81,-204.03L-44.75,-119.48ZM8.56,-138.10C-3.94,-142.74 -14.53,-150.35 -15.78,-161.94L-9.24,-180.41C-4.59,-193.55 6.61,-197.94 27.75,-190.46C45.84,-184.05 54.30,-171.63 48.63,-155.63C41.27,-134.23 27.28,-131.04 8.56,-138.10ZM185.92,-61.58L187.59,-82.63C183.33,-80.28 175.91,-79.91 167.98,-82.93C158.72,-86.43 153.93,-93.48 158.78,-107.19L169.71,-138.04L198.27,-127.92L208.79,-157.63L180.23,-167.75L189.00,-192.50L176.62,-196.89L167.85,-172.13L152.81,-177.46L142.29,-147.75L157.33,-142.42L141.75,-98.44C133.59,-75.39 141.61,-63.55 156.47,-58.29C167.32,-54.45 179.79,-55.17 185.92,-61.58ZM249.50,-27.49L259.21,-54.91L240.17,-61.65L249.95,-89.26C259.62,-100.84 272.05,-102.65 286.52,-97.53C302.71,-91.80 308.18,-80.00 301.36,-60.77L294.82,-42.30L274.64,-49.45L264.92,-22.02L315.01,-4.29L324.72,-31.71L306.82,-38.05L317.61,-68.52C330.76,-105.65 324.40,-120.98 301.36,-129.14C285.74,-134.67 271.06,-131.94 261.28,-121.26L284.27,-186.19L253.23,-197.19L241.43,-163.86L260.28,-157.18L227.98,-65.97L209.13,-72.65L199.42,-45.22ZM422.72,6.86L416.80,-4.88C408.58,0.78 399.17,1.94 382.48,-4.18C365.03,-10.58 355.95,-20.65 359.41,-38.28L432.92,-12.25C449.57,-59.29 438.66,-80.51 412.76,-89.68C389.91,-97.78 364.52,-89.62 350.15,-49.06C339.23,-18.21 346.14,8.88 374.70,19.00C393.17,25.54 411.31,19.10 422.72,6.86ZM401.56,-61.08C420.98,-54.20 429.61,-40.43 425.49,-28.81L363.79,-50.66C371.58,-64.19 387.28,-66.13 401.56,-61.08ZM-429.38,-62.17L-419.87,-89.02L-446.91,-98.60L-419.33,-176.48L-393.43,-167.31L-381.29,-201.59L-447.56,-225.06L-459.70,-190.78L-433.04,-181.34L-460.63,-103.45L-488.43,-113.30L-497.94,-86.45ZM-396.89,-81.31L-406.60,-53.88C-401.20,-52.19 -369.78,-41.06 -359.18,-37.09L-349.47,-64.51L-366.42,-70.52L-356.50,-98.51C-346.64,-110.02 -333.83,-111.70 -319.36,-106.57C-301.46,-100.23 -297.32,-88.91 -304.20,-69.49L-310.81,-50.82L-329.28,-57.37L-338.99,-29.94C-330.93,-27.30 -310.24,-19.76 -291.20,-13.02L-281.49,-40.44L-298.81,-46.57L-288.02,-77.04C-274.81,-114.37 -281.55,-129.83 -306.87,-138.80C-321.16,-143.86 -337.45,-140.20 -346.39,-127.07L-338.97,-148.02L-369.44,-158.81L-380.50,-127.58C-377.00,-126.56 -369.77,-124.00 -362.34,-121.36L-378.80,-74.90ZM-219.72,12.08L-167.60,-52.18L-152.74,-46.92L-141.68,-78.15L-190.05,-95.28L-201.11,-64.05L-190.45,-60.28L-224.43,-16.37L-225.11,-72.55L-214.06,-68.64L-203.00,-99.87L-242.61,-113.90L-253.67,-82.67L-238.44,-77.27L-237.81,5.68ZM-81.45,-90.90C-77.54,-101.94 -82.08,-108.48 -92.36,-112.12C-103.79,-116.17 -111.12,-113.62 -114.96,-102.77C-118.81,-91.91 -114.53,-84.61 -103.49,-80.70C-93.59,-77.19 -85.29,-80.04 -81.45,-90.90ZM-156.75,3.74L-166.46,31.16C-158.21,33.87 -150.40,36.63 -142.59,39.40L-135.93,41.76C-127.74,44.66 -119.62,47.75 -111.05,50.78L-101.34,23.36L-120.57,16.55L-94.47,-57.15L-130.65,-69.96L-141.71,-38.73L-117.91,-30.30L-132.95,12.17ZM-8.30,57.17C-0.81,36.03 -7.75,24.14 -34.03,11.83C-50.18,4.19 -54.49,-1.20 -52.74,-6.15C-50.24,-13.19 -40.10,-15.82 -25.82,-10.76C-9.82,-5.09 -5.47,1.38 -4.28,9.51L4.67,12.68L17.01,-22.17L8.06,-25.34L5.16,-17.15C0.34,-25.93 -9.61,-33.52 -20.08,-37.23C-39.70,-44.18 -57.65,-37.68 -63.99,-19.78C-71.94,2.69 -63.91,13.90 -40.03,25.14C-24.45,32.59 -18.81,38.44 -20.63,43.58C-22.92,50.06 -31.99,53.28 -49.13,47.21C-66.27,41.14 -67.15,33.33 -70.35,23.62L-78.92,20.58L-91.94,57.34L-83.37,60.37L-79.59,49.71C-75.94,59.36 -66.90,68.35 -54.34,72.80C-31.48,80.89 -14.37,74.31 -8.30,57.17ZM89.18,-30.47C93.09,-41.52 88.55,-48.05 78.26,-51.70C66.84,-55.74 59.51,-53.19 55.66,-42.34C51.82,-31.49 56.09,-24.19 67.14,-20.27C77.04,-16.77 85.33,-19.62 89.18,-30.47ZM13.87,64.16L4.16,91.58C12.42,94.29 20.22,97.06 28.03,99.82L34.70,102.18C42.89,105.08 51.01,108.17 59.58,111.21L69.29,83.79L50.05,76.98L76.15,3.28L39.97,-9.53L28.91,21.70L52.72,30.13L37.68,72.59ZM136.48,140.37C161.99,149.41 183.47,135.37 195.27,102.04C209.77,61.10 199.36,40.27 175.87,32.16C163.61,28.04 148.66,27.89 137.20,39.69L159.99,-24.68L126.86,-36.41L115.06,-3.09L135.81,4.26L103.44,95.67L82.69,88.32L72.97,115.74L104.20,126.80L111.34,110.90C113.72,123.53 122.57,135.45 136.48,140.37ZM143.29,117.50C128.06,112.10 120.62,106.47 117.37,95.67L124.05,76.82C129.43,62.22 141.33,54.65 163.61,62.54C183.22,69.49 189.29,83.21 184.03,98.06C177.68,116.60 163.48,124.64 143.29,117.50ZM229.60,173.35C243.31,178.21 253.14,175.26 259.49,170.65L261.50,148.00C256.54,150.53 250.08,150.60 242.47,147.90C231.42,143.99 229.59,135.84 233.64,124.42L272.48,14.73L240.87,3.53L229.07,36.86L247.73,43.47L215.56,134.30C208.01,155.63 212.84,167.42 229.60,173.35ZM358.93,190.01L353.01,178.27C344.79,183.93 335.38,185.10 318.69,178.97C301.24,172.57 292.16,162.50 295.62,144.87L369.13,170.90C385.78,123.86 374.87,102.64 348.97,93.47C326.12,85.37 300.73,93.53 286.36,134.09C275.44,164.94 282.35,192.03 310.91,202.15C329.38,208.69 347.52,202.25 358.93,190.01ZM337.77,122.07C357.19,128.95 365.82,142.72 361.70,154.34L300.00,132.49C307.79,118.96 323.48,117.02 337.77,122.07Z" fill="#ffffff" stroke="#000000"/>
    <path d="M-378.40,-263.65L-368.37,-259.66L-341.52,-327.25L-390.72,-346.80L-396.11,-333.25L-358.04,-318.12C-368.05,-297.80 -388.19,-295.27 -413.26,-305.23C-441.67,-316.52 -451.81,-337.53 -442.51,-360.93C-433.03,-384.25 -411.88,-397.99 -381.24,-385.82C-362.86,-378.51 -351.26,-368.74 -347.07,-355.47L-336.12,-351.12L-317.31,-398.47L-328.26,-402.82L-336.08,-383.14C-338.83,-398.42 -351.29,-411.97 -368.18,-418.68C-400.49,-431.52 -432.15,-421.09 -452.73,-369.29C-470.96,-323.42 -457.31,-292.85 -423.88,-279.57C-404.94,-272.04 -388.43,-270.86 -374.28,-279.42ZM-337.47,-277.91L-348.09,-251.18C-342.82,-249.30 -312.18,-237.12 -301.86,-232.81L-291.23,-259.54L-307.95,-266.18L-297.40,-292.74C-292.23,-305.73 -282.67,-310.32 -273.57,-306.71C-265.22,-303.39 -261.57,-299.57 -261.26,-293.86L-241.96,-321.88C-245.16,-327.88 -248.33,-332.36 -257.24,-335.91C-264.85,-338.93 -276.20,-337.42 -284.90,-327.98L-285.46,-344.97L-307.37,-353.67L-319.47,-323.22C-315.01,-321.45 -309.74,-319.57 -302.20,-316.36L-320.20,-271.05ZM-180.46,-185.00C-173.03,-182.05 -166.80,-182.59 -161.76,-185.53L-152.61,-208.55C-159.02,-204.87 -164.33,-205.04 -170.09,-207.33C-174.54,-209.10 -177.56,-212.87 -177.35,-217.74L-165.69,-247.07C-152.04,-281.42 -159.02,-296.88 -184.27,-306.91C-198.19,-312.45 -211.59,-312.82 -221.96,-307.27L-230.74,-283.02C-223.36,-286.97 -212.09,-288.30 -196.31,-282.03C-178.85,-275.09 -173.56,-264.60 -179.56,-246.78C-185.22,-255.26 -197.56,-262.10 -206.28,-265.57C-228.38,-274.35 -248.36,-267.88 -256.11,-248.38C-263.27,-230.37 -255.66,-212.73 -229.29,-202.25C-217.22,-197.46 -203.53,-197.83 -194.49,-202.19C-193.36,-194.21 -188.44,-188.18 -180.46,-185.00ZM-219.88,-225.39C-237.15,-232.25 -242.73,-239.84 -239.49,-248.01C-236.09,-256.56 -226.38,-258.29 -208.18,-251.06C-197.78,-246.92 -190.53,-240.82 -185.21,-232.04L-188.97,-222.57C-197.12,-219.36 -208.37,-220.82 -219.88,-225.39ZM-67.52,-170.02C-59.33,-190.63 -65.74,-202.63 -91.26,-215.78C-106.94,-223.95 -111.00,-229.43 -109.08,-234.26C-106.35,-241.13 -96.23,-243.34 -82.30,-237.81C-66.70,-231.61 -62.64,-225.05 -61.77,-216.97L-53.04,-213.50L-39.54,-247.48L-48.27,-250.95L-51.44,-242.96C-55.88,-251.82 -65.43,-259.70 -75.64,-263.76C-94.77,-271.35 -112.75,-265.60 -119.69,-248.14C-128.39,-226.23 -120.87,-214.86 -97.69,-202.86C-82.57,-194.92 -77.21,-188.92 -79.21,-183.90C-81.71,-177.59 -90.80,-174.75 -107.51,-181.39C-124.22,-188.03 -124.79,-195.78 -127.60,-205.50L-135.96,-208.82L-150.19,-172.98L-141.84,-169.66L-137.71,-180.06C-134.46,-170.38 -125.86,-161.16 -113.61,-156.29C-91.33,-147.44 -74.16,-153.31 -67.52,-170.02ZM-63.41,-126.25L-74.04,-99.51C-68.77,-97.63 -38.13,-85.46 -27.80,-81.14L-17.18,-107.88L-33.71,-114.44L-24.78,-136.91C-20.19,-124.12 -11.67,-115.79 -1.09,-111.59C21.57,-102.59 45.07,-111.96 58.42,-145.56C75.24,-187.90 64.36,-208.13 42.08,-216.98C30.57,-221.56 15.87,-221.38 4.58,-210.81L11.07,-227.15L-18.64,-238.96L-30.73,-208.50C-27.32,-207.36 -20.26,-204.56 -13.02,-201.68L-45.78,-119.24ZM7.61,-135.65C-4.57,-140.71 -14.75,-148.62 -15.56,-160.12L-8.40,-178.13C-3.31,-190.94 7.92,-194.87 28.53,-186.68C46.17,-179.67 54.07,-167.07 47.87,-151.48C39.79,-130.61 25.85,-127.98 7.61,-135.65ZM180.03,-53.39L182.47,-74.13C178.17,-71.97 170.83,-71.88 163.10,-75.16C154.08,-78.97 149.61,-86.12 154.92,-99.48L166.87,-129.57L194.72,-118.50L206.23,-147.47L178.38,-158.53L187.97,-182.67L175.90,-187.47L166.31,-163.33L151.64,-169.15L140.13,-140.19L154.80,-134.36L137.76,-91.47C128.83,-69.00 136.32,-57.00 150.80,-51.24C161.38,-47.04 173.74,-47.29 180.03,-53.39ZM241.59,-17.32L252.22,-44.06L233.65,-51.44L244.35,-78.36C254.34,-89.44 266.69,-90.77 280.80,-85.16C296.58,-78.89 301.55,-67.03 294.10,-48.27L286.94,-30.26L267.26,-38.08L256.63,-11.34L305.47,8.06L316.09,-18.68L298.64,-25.61L310.44,-55.32C324.83,-91.53 319.11,-106.92 296.65,-115.84C281.42,-121.89 266.81,-119.74 256.74,-109.55L281.90,-172.87L251.63,-184.90L238.72,-152.40L257.10,-145.10L221.77,-56.16L203.38,-63.46L192.76,-36.72ZM411.50,23.10L406.10,11.27C397.76,16.56 388.41,17.36 372.15,10.69C355.14,3.71 346.54,-6.58 350.62,-23.88L422.29,4.60C440.52,-41.27 430.52,-62.65 405.27,-72.69C382.99,-81.54 357.59,-74.43 341.88,-34.88C329.93,-4.80 335.74,22.23 363.59,33.30C381.60,40.46 399.77,34.78 411.50,23.10ZM393.13,-44.83C412.07,-37.31 420.08,-23.37 415.58,-12.05L355.42,-35.95C363.62,-49.03 379.20,-50.36 393.13,-44.83ZM-428.05,-76.98L-417.65,-103.16L-444.02,-113.64L-413.84,-189.58L-388.59,-179.55L-375.31,-212.97L-439.93,-238.64L-453.21,-205.22L-427.21,-194.89L-457.38,-118.95L-484.49,-129.72L-494.90,-103.54ZM-395.22,-94.68L-405.84,-67.94C-400.57,-66.06 -369.93,-53.89 -359.61,-49.57L-348.98,-76.31L-365.51,-82.88L-354.67,-110.17C-344.49,-121.18 -331.76,-122.36 -317.65,-116.75C-300.20,-109.82 -296.54,-98.47 -304.06,-79.53L-311.29,-61.34L-329.30,-68.49L-339.93,-41.75C-332.05,-38.84 -311.89,-30.61 -293.32,-23.24L-282.70,-49.98L-299.59,-56.69L-287.79,-86.40C-273.33,-122.79 -279.41,-138.32 -304.11,-148.13C-318.04,-153.67 -334.28,-150.66 -343.60,-138.03L-335.48,-158.45L-365.19,-170.25L-377.29,-139.80C-373.88,-138.66 -366.82,-135.86 -359.58,-132.98L-377.58,-87.67ZM-223.62,4.24L-169.70,-57.32L-155.22,-51.57L-143.12,-82.02L-190.28,-100.76L-202.38,-70.31L-191.98,-66.18L-227.21,-24.06L-225.78,-79.60L-215.01,-75.32L-202.91,-105.78L-241.53,-121.12L-253.63,-90.67L-238.77,-84.77L-241.25,-2.77ZM-83.11,-92.36C-78.83,-103.13 -83.08,-109.77 -93.10,-113.75C-104.25,-118.18 -111.59,-115.93 -115.79,-105.35C-120.00,-94.76 -116.05,-87.39 -105.28,-83.11C-95.62,-79.28 -87.32,-81.78 -83.11,-92.36ZM-161.07,-1.65L-171.70,25.08C-163.64,28.07 -156.03,31.10 -148.41,34.12L-141.92,36.70C-133.93,39.87 -126.02,43.23 -117.66,46.55L-107.04,19.81L-125.80,12.36L-97.25,-59.50L-132.52,-73.51L-144.62,-43.06L-121.41,-33.84L-137.86,7.57ZM-16.35,56.70C-8.16,36.09 -14.57,24.09 -40.09,10.94C-55.77,2.78 -59.83,-2.71 -57.91,-7.53C-55.18,-14.40 -45.05,-16.62 -31.13,-11.08C-15.53,-4.89 -11.47,1.67 -10.60,9.76L-1.87,13.22L11.63,-20.76L2.90,-24.22L-0.27,-16.24C-4.71,-25.10 -14.26,-32.98 -24.47,-37.03C-43.60,-44.63 -61.58,-38.88 -68.51,-21.42C-77.22,0.49 -69.70,11.86 -46.52,23.87C-31.40,31.81 -26.04,37.81 -28.03,42.82C-30.54,49.13 -39.63,51.97 -56.34,45.33C-73.05,38.69 -73.62,30.94 -76.43,21.23L-84.78,17.91L-99.02,53.74L-90.67,57.06L-86.54,46.66C-83.29,56.34 -74.69,65.56 -62.44,70.43C-40.16,79.28 -22.99,73.42 -16.35,56.70ZM83.26,-26.26C87.54,-37.03 83.29,-43.67 73.27,-47.65C62.13,-52.08 54.78,-49.83 50.58,-39.25C46.37,-28.66 50.32,-21.29 61.09,-17.01C70.75,-13.18 79.05,-15.68 83.26,-26.26ZM5.30,64.45L-5.33,91.18C2.73,94.17 10.34,97.20 17.96,100.22L24.46,102.80C32.44,105.97 40.35,109.33 48.71,112.65L59.33,85.91L40.58,78.46L69.13,6.60L33.85,-7.41L21.75,23.04L44.96,32.26L28.51,73.67ZM123.61,144.35C148.50,154.23 170.24,141.16 183.15,108.67C199.02,68.74 189.51,47.77 166.59,38.88C154.64,34.34 139.87,33.64 128.10,44.87L153.03,-17.89L120.72,-30.73L107.81,1.76L128.05,9.81L92.64,98.93L72.40,90.89L61.78,117.63L92.23,129.73L99.87,114.28C101.76,126.85 110.06,138.96 123.61,144.35ZM131.21,122.00C116.35,116.09 109.21,110.25 106.41,99.46L113.71,81.08C119.58,66.85 131.62,59.81 153.34,68.44C172.47,76.04 177.95,89.83 172.20,104.31C165.23,122.40 150.89,129.82 131.21,122.00ZM214.41,180.42C227.78,185.73 237.61,183.19 244.05,178.87L246.90,156.57C241.89,158.88 235.51,158.71 228.08,155.76C217.31,151.48 215.81,143.35 220.24,132.21L262.73,25.26L231.91,13.02L219.00,45.51L237.19,52.74L202.00,141.31C193.74,162.11 198.07,173.93 214.41,180.42ZM341.61,201.72L336.20,189.90C327.87,195.19 318.52,195.99 302.25,189.31C285.25,182.34 276.65,172.04 280.73,154.74L352.40,183.22C370.62,137.36 360.63,115.97 335.38,105.94C313.10,97.09 287.70,104.19 271.98,143.74C260.03,173.82 265.85,200.86 293.70,211.92C311.71,219.08 329.88,213.40 341.61,201.72ZM323.24,133.79C342.18,141.32 350.18,155.25 345.68,166.58L285.52,142.67C293.73,129.59 309.31,128.26 323.24,133.79Z" fill="#ffffff" stroke="#000000"/>
    <path d="M-910.72,482.04L-910.72,492L-908.52,492L-908.52,488.92C-906.69,491.01 -903.46,492.38 -899.93,492.38C-893.09,492.38 -889.52,489.72 -889.52,484.89C-889.48,480.45 -892.33,477.45 -900.19,476.80C-906.05,476.31 -907.11,475.09 -907.11,473.38C-907.11,471.44 -905.63,469.54 -900.50,469.54C-896.09,469.54 -894.23,471.10 -892.86,472.24L-890.66,472.24L-890.66,463.88L-892.86,463.88L-892.86,466.73C-894.34,464.72 -897.15,463.12 -900.57,463.12C-906.88,463.12 -910.49,466.65 -910.49,471.21C-910.49,476.04 -908.40,478.78 -900.42,479.38C-895.25,479.76 -893.13,481.25 -893.13,483.11C-893.13,485.20 -895.14,486.79 -900.31,486.79C-904.37,486.79 -907.41,484.67 -908.52,482.04ZM-867.89,492C-866.37,492 -865.31,491.47 -864.63,490.59L-864.63,485.88C-865.50,486.98 -866.45,487.33 -867.63,487.33C-868.54,487.33 -869.34,486.87 -869.64,486.00L-869.64,479.99C-869.64,472.96 -871.96,470.72 -877.13,470.72C-879.98,470.72 -882.37,471.59 -883.82,473.30L-883.66,478.21C-882.64,476.99 -880.74,475.96 -877.51,475.96C-873.94,475.96 -872.26,477.45 -872.07,481.02C-873.67,479.92 -876.33,479.57 -878.12,479.57C-882.64,479.57 -885.72,482.12 -885.72,486.11C-885.72,489.80 -883.13,492.38 -877.74,492.38C-875.27,492.38 -872.87,491.35 -871.58,489.95C-870.82,491.28 -869.53,492 -867.89,492ZM-877.70,487.63C-881.23,487.63 -882.75,486.68 -882.75,485.01C-882.75,483.26 -881.16,482.27 -877.43,482.27C-875.30,482.27 -873.59,482.84 -872.04,484.02L-872.04,485.96C-873.25,487.10 -875.34,487.63 -877.70,487.63ZM-851.63,492L-846.42,477.33L-843.46,477.33L-843.46,471.10L-853.11,471.10L-853.11,477.33L-850.98,477.33L-854.25,487.25L-857.90,477.33L-855.70,477.33L-855.70,471.10L-863.60,471.10L-863.60,477.33L-860.56,477.33L-855.24,492ZM-823.36,492C-821.84,492 -820.77,491.47 -820.09,490.59L-820.09,485.88C-820.96,486.98 -821.91,487.33 -823.09,487.33C-824.00,487.33 -824.80,486.87 -825.11,486.00L-825.11,479.99C-825.11,472.96 -827.42,470.72 -832.59,470.72C-835.44,470.72 -837.84,471.59 -839.28,473.30L-839.13,478.21C-838.10,476.99 -836.20,475.96 -832.97,475.96C-829.40,475.96 -827.73,477.45 -827.54,481.02C-829.13,479.92 -831.79,479.57 -833.58,479.57C-838.10,479.57 -841.18,482.12 -841.18,486.11C-841.18,489.80 -838.60,492.38 -833.20,492.38C-830.73,492.38 -828.34,491.35 -827.04,489.95C-826.28,491.28 -824.99,492 -823.36,492ZM-833.16,487.63C-836.70,487.63 -838.22,486.68 -838.22,485.01C-838.22,483.26 -836.62,482.27 -832.90,482.27C-830.77,482.27 -829.06,482.84 -827.50,484.02L-827.50,485.96C-828.72,487.10 -830.81,487.63 -833.16,487.63ZM-805.16,489.95L-806.18,486.11C-806.79,486.79 -808.08,487.33 -809.68,487.29C-811.54,487.25 -812.83,486.30 -812.83,483.56L-812.83,477.41L-807.13,477.41L-807.13,471.48L-812.83,471.48L-812.83,466.54L-815.30,466.54L-815.30,471.48L-818.30,471.48L-818.30,477.41L-815.30,477.41L-815.30,486.19C-815.30,490.78 -813.14,492.38 -810.17,492.38C-808.01,492.38 -805.84,491.47 -805.16,489.95ZM-785.74,487.21L-787.52,485.50C-788.63,487.02 -790.22,487.82 -793.57,487.78C-797.06,487.74 -799.30,486.53 -799.80,483.18L-785.13,483.18C-785.13,473.80 -788.40,470.72 -793.57,470.72C-798.13,470.72 -802.12,473.76 -802.12,481.85C-802.12,488.01 -799.19,492.38 -793.49,492.38C-789.80,492.38 -786.99,490.10 -785.74,487.21ZM-793.76,476.50C-789.88,476.50 -787.49,478.40 -787.49,480.71L-799.80,480.71C-799.27,477.83 -796.61,476.50 -793.76,476.50ZM-772.21,482.27L-772.21,479.46L-782.47,479.46L-782.47,482.27ZM-768.98,482.04L-768.98,492L-766.78,492L-766.78,488.92C-764.95,491.01 -761.72,492.38 -758.19,492.38C-751.35,492.38 -747.78,489.72 -747.78,484.89C-747.74,480.45 -750.59,477.45 -758.45,476.80C-764.31,476.31 -765.37,475.09 -765.37,473.38C-765.37,471.44 -763.89,469.54 -758.76,469.54C-754.35,469.54 -752.49,471.10 -751.12,472.24L-748.92,472.24L-748.92,463.88L-751.12,463.88L-751.12,466.73C-752.60,464.72 -755.41,463.12 -758.83,463.12C-765.14,463.12 -768.75,466.65 -768.75,471.21C-768.75,476.04 -766.66,478.78 -758.68,479.38C-753.51,479.76 -751.39,481.25 -751.39,483.11C-751.39,485.20 -753.40,486.79 -758.57,486.79C-762.63,486.79 -765.67,484.67 -766.78,482.04ZM-727.60,487.21L-729.38,485.50C-730.49,487.02 -732.08,487.82 -735.43,487.78C-738.92,487.74 -741.16,486.53 -741.66,483.18L-726.99,483.18C-726.99,473.80 -730.26,470.72 -735.43,470.72C-739.99,470.72 -743.98,473.76 -743.98,481.85C-743.98,488.01 -741.05,492.38 -735.35,492.38C-731.66,492.38 -728.85,490.10 -727.60,487.21ZM-735.62,476.50C-731.74,476.50 -729.35,478.40 -729.35,480.71L-741.66,480.71C-741.13,477.83 -738.47,476.50 -735.62,476.50ZM-723.38,486.60L-723.38,492.08C-722.32,492.04 -716.05,492.04 -713.92,492.08L-713.92,486.60L-717.34,486.60L-717.34,481.17C-717.34,478.51 -715.97,477.03 -714.11,477.03C-712.40,477.03 -711.49,477.45 -711.03,478.43L-709.59,472.13C-710.57,471.29 -711.45,470.72 -713.27,470.72C-714.83,470.72 -716.73,471.78 -717.60,474.06L-718.90,471.10L-723.38,471.10L-723.38,477.33C-722.47,477.33 -721.40,477.29 -719.85,477.33L-719.85,486.60ZM-699.33,465.06C-699.33,462.85 -700.54,461.98 -702.59,461.98C-704.87,461.98 -706.01,462.89 -706.01,465.06C-706.01,467.22 -704.80,468.25 -702.59,468.25C-700.62,468.25 -699.33,467.22 -699.33,465.06ZM-706.74,486.57L-706.74,492.04C-705.10,492 -703.54,492 -701.99,492L-700.66,492C-699.02,492 -697.39,492.04 -695.68,492.04L-695.68,486.57L-699.52,486.57L-699.52,471.86L-706.74,471.86L-706.74,478.09L-701.99,478.09L-701.99,486.57ZM-682.23,492L-682.23,486.53L-686.79,486.53L-686.79,478.09L-682.11,478.09L-682.11,471.86L-686.75,471.86C-687.13,469.09 -685.15,467.53 -683.02,467.53C-681.96,467.53 -681.12,467.76 -680.67,468.10L-680.36,463.20C-681.24,462.51 -682.30,461.98 -683.75,461.98C-687.36,461.98 -690.05,464.94 -689.29,471.86L-692.26,471.86L-692.26,478.09L-689.26,478.09L-689.26,486.53L-692.22,486.53L-692.22,492Z"/>
</svg>