<?xml version="1.0"?>
<svg xmlns="http://www.w3.org/2000/svg" width="1920" height="1080" viewBox="-960 -540 1920 1080">
    <path d="M-603.23,-327.05L-621.72,-327.05L-621.72,-147L-576.59,-147L-576.59,-163.03L-603.23,-163.03ZM-541.56,-144.53C-527.01,-144.53 -514.68,-153.66 -514.68,-177.83L-514.68,-268.59C-514.68,-289.81 -522.82,-297.45 -538.60,-297.45C-553.15,-297.45 -565.48,-288.33 -565.48,-264.15L-565.48,-173.39C-565.48,-152.18 -557.10,-144.53 -541.56,-144.53ZM-541.56,-280.68C-536.63,-280.68 -531.94,-277.97 -531.94,-260.21L-531.94,-175.36C-531.94,-166.73 -533.17,-161.31 -538.60,-161.31C-543.78,-161.31 -548.22,-164.02 -548.22,-181.78L-548.22,-266.62C-548.22,-275.25 -546.99,-280.68 -541.56,-280.68ZM-488.53,-294.99L-507.27,-294.99L-482.61,-147L-475.70,-147L-464.85,-241.96L-462.13,-241.96L-445.61,-147L-438.70,-147L-413.30,-294.99L-433.52,-294.99L-437.72,-193.62L-440.43,-193.62L-446.10,-242.94L-454.00,-294.99L-464.60,-294.99L-475.95,-193.62L-478.66,-193.62L-481.13,-242.94ZM-391.76,-227.21L-340.92,-278.05L-340.92,-236.65L-216.59,-236.65L-216.59,-217.89L-340.92,-217.89L-340.92,-176.38ZM-191.29,-327.05L-191.29,-311.02L-170.82,-311.02L-170.82,-147L-152.32,-147L-152.32,-311.02L-131.85,-311.02L-131.85,-327.05ZM-75.12,-268.35C-75.12,-289.81 -82.27,-297.45 -95.83,-297.45C-110.63,-297.45 -121.98,-288.33 -121.98,-263.91L-121.98,-173.39C-121.98,-152.18 -114.33,-144.53 -99.29,-144.53C-82.76,-144.53 -74.87,-162.29 -75.36,-185.72L-76.10,-215.32L-79.56,-215.32L-80.29,-186.46C-80.79,-170.68 -83.99,-161.31 -91.39,-161.31C-98.30,-161.31 -104.71,-164.02 -104.71,-181.78L-104.71,-228.89L-75.12,-228.89ZM-89.91,-260.21L-89.91,-232.34L-104.71,-232.34L-104.71,-266.37C-104.71,-275.25 -103.48,-280.68 -97.56,-280.68C-92.63,-280.68 -89.91,-278.21 -89.91,-260.21ZM-18.38,-274.02C-18.38,-267.61 -22.57,-258.24 -37.37,-229.38L-18.63,-229.38C-14.44,-251.33 -13.70,-267.85 -13.70,-274.27C-13.70,-289.81 -19.86,-297.45 -32.69,-297.45C-46.25,-297.45 -57.84,-288.33 -57.84,-263.91L-57.84,-173.39C-57.84,-152.18 -50.94,-144.53 -37.62,-144.53C-22.82,-144.53 -15.67,-162.29 -16.16,-185.72L-16.90,-215.57L-20.35,-215.57L-21.09,-186.46C-21.59,-170.68 -24.05,-161.31 -29.73,-161.31C-35.40,-161.31 -40.58,-164.02 -40.58,-181.78L-40.58,-266.37C-40.58,-275.25 -39.10,-280.68 -31.70,-280.68C-22.33,-280.68 -18.38,-278.71 -18.38,-274.02ZM19.61,-327.05L2.34,-327.05L2.34,-147L19.61,-147L19.61,-240.48C19.61,-263.66 24.79,-280.68 31.69,-280.68C36.38,-280.68 37.61,-276.73 37.61,-267.85L37.61,-147L54.88,-147L54.88,-277.47C54.88,-289.81 48.22,-297.45 39.09,-297.45C29.72,-297.45 21.33,-291.29 16.15,-254.29L13.69,-254.78L19.61,-292.27ZM126.66,-327.05L108.16,-327.05L105.70,-147L125.18,-147L118.52,-275.75L120.99,-275.75L141.46,-159.33L147.13,-159.33L162.92,-275.75L165.63,-275.75L162.42,-147L181.42,-147L178.95,-327.05L163.41,-327.05L149.10,-210.39L146.39,-210.39ZM221.38,-297.45C205.84,-297.45 193.76,-279.45 193.76,-263.91C193.76,-252.56 195.24,-238.50 200.17,-226.67L223.85,-226.67C203.62,-247.14 199.43,-256.26 199.43,-266.62C199.43,-275.25 202.64,-280.68 215.46,-280.68C223.60,-280.68 225.57,-278.71 225.57,-270.81L225.57,-225.19C206.09,-206.93 195.73,-199.04 195.73,-179.06L195.73,-162.05C195.73,-150.21 200.66,-144.53 210.03,-144.53C219.41,-144.53 225.57,-150.45 229.27,-187.20L231.74,-186.71C228.78,-151.69 233.22,-144.53 243.33,-144.53C254.92,-144.53 257.39,-156.37 257.14,-171.91L256.40,-214.09L252.95,-214.09L252.21,-170.92C251.96,-162.79 250.24,-161.31 248.02,-161.31C245.30,-161.31 242.84,-162.79 242.84,-176.10L242.84,-277.23C242.84,-289.81 235.69,-297.45 221.38,-297.45ZM217.19,-162.54C214.72,-162.54 212.99,-164.02 212.99,-168.46L212.99,-193.12C212.99,-203.48 214.72,-209.40 225.57,-220.01L225.57,-200.27C225.57,-177.58 222.61,-162.54 217.19,-162.54ZM318.56,-261.20C318.56,-276.98 309.19,-286.11 295.63,-287.83L295.63,-290.79C307.22,-290.55 315.85,-287.09 330.16,-266.62L330.16,-294.99L294.64,-294.99C280.09,-294.99 267.76,-285.86 267.76,-261.69L267.76,-204.71C267.76,-192.14 270.96,-184.24 276.88,-179.80C272.69,-174.62 265.54,-168.46 265.54,-160.07C265.54,-153.66 269.48,-150.45 275.16,-148.97L275.16,-147.49C268.50,-144.53 263.07,-138.86 263.07,-129.98C263.07,-122.58 268.99,-114.94 283.79,-114.94C304.26,-114.94 327.94,-135.41 327.94,-148.48C327.94,-158.59 320.78,-163.77 305.49,-163.77L279.35,-163.77C274.66,-163.77 273.18,-165.00 273.18,-167.22C273.18,-169.69 276.64,-173.88 280.83,-177.83C283.79,-176.35 287.49,-175.86 291.68,-175.86C306.23,-175.86 318.56,-184.74 318.56,-207.92ZM291.68,-278.21C296.61,-278.21 301.30,-275.50 301.30,-257.74L301.30,-204.71C301.30,-196.08 300.07,-190.66 294.64,-190.66C289.46,-190.66 285.02,-193.37 285.02,-211.13L285.02,-264.15C285.02,-272.79 286.25,-278.21 291.68,-278.21ZM276.88,-139.85C276.88,-142.56 278.11,-145.03 282.06,-147L305.49,-147C313.88,-147 315.85,-143.55 315.85,-137.63C315.85,-132.69 311.16,-130.72 299.82,-130.72C280.58,-130.72 276.88,-134.91 276.88,-139.85ZM363.95,-297.45C348.41,-297.45 336.33,-279.45 336.33,-263.91C336.33,-252.56 337.81,-238.50 342.74,-226.67L366.42,-226.67C346.20,-247.14 342.00,-256.26 342.00,-266.62C342.00,-275.25 345.21,-280.68 358.03,-280.68C366.17,-280.68 368.15,-278.71 368.15,-270.81L368.15,-225.19C348.66,-206.93 338.30,-199.04 338.30,-179.06L338.30,-162.05C338.30,-150.21 343.24,-144.53 352.61,-144.53C361.98,-144.53 368.15,-150.45 371.85,-187.20L374.31,-186.71C371.35,-151.69 375.79,-144.53 385.90,-144.53C397.50,-144.53 399.96,-156.37 399.72,-171.91L398.98,-214.09L395.52,-214.09L394.78,-170.92C394.54,-162.79 392.81,-161.31 390.59,-161.31C387.88,-161.31 385.41,-162.79 385.41,-176.10L385.41,-277.23C385.41,-289.81 378.26,-297.45 363.95,-297.45ZM359.76,-162.54C357.29,-162.54 355.57,-164.02 355.57,-168.46L355.57,-193.12C355.57,-203.48 357.29,-209.40 368.15,-220.01L368.15,-200.27C368.15,-177.58 365.19,-162.54 359.76,-162.54ZM404.66,-147L456.94,-147L456.94,-166.73L425.37,-155.39L424.14,-157.11L455.46,-294.99L410.33,-294.99L410.33,-275.25L434.75,-286.35L436.47,-284.38ZM464.84,-314.47L490.99,-314.47L490.99,-327.05L464.84,-327.05ZM486.55,-294.99L469.28,-294.99L469.28,-147L486.55,-147ZM521.08,-294.99L503.82,-294.99L503.82,-147L521.08,-147L521.08,-240.72C521.08,-263.66 526.26,-280.68 533.17,-280.68C537.85,-280.68 539.09,-276.73 539.09,-267.85L539.09,-147L556.35,-147L556.35,-277.47C556.35,-289.81 549.69,-297.45 540.57,-297.45C531.19,-297.45 522.81,-291.29 517.63,-254.29L515.16,-254.78L521.08,-292.27ZM620.48,-268.35C620.48,-289.81 613.33,-297.45 599.77,-297.45C584.97,-297.45 573.62,-288.33 573.62,-263.91L573.62,-173.39C573.62,-152.18 581.27,-144.53 596.31,-144.53C612.84,-144.53 620.73,-162.29 620.24,-185.72L619.50,-215.32L616.04,-215.32L615.30,-186.46C614.81,-170.68 611.61,-161.31 604.21,-161.31C597.30,-161.31 590.89,-164.02 590.89,-181.78L590.89,-228.89L620.48,-228.89ZM605.69,-260.21L605.69,-232.34L590.89,-232.34L590.89,-266.37C590.89,-275.25 592.12,-280.68 598.04,-280.68C602.97,-280.68 605.69,-278.21 605.69,-260.21Z" fill="#ffffff" stroke="#000000"/>
    <path d="M-615.92,-295.52L-634.22,-294.76L-626.82,-116.66L-582.18,-118.52L-582.84,-134.38L-609.19,-133.28ZM-547.43,-117.52C-533.04,-118.11 -521.21,-127.65 -522.20,-151.56L-525.93,-241.33C-526.80,-262.32 -535.17,-269.54 -550.78,-268.90C-565.17,-268.30 -577.00,-258.77 -576.01,-234.86L-572.28,-145.08C-571.41,-124.10 -562.80,-116.88 -547.43,-117.52ZM-553.02,-252.18C-548.14,-252.39 -543.39,-249.90 -542.66,-232.33L-539.18,-148.41C-538.83,-139.87 -539.82,-134.45 -545.19,-134.23C-550.31,-134.01 -554.82,-136.52 -555.55,-154.08L-559.03,-238.01C-559.38,-246.54 -558.39,-251.96 -553.02,-252.18ZM-501.15,-268.51L-519.69,-267.74L-489.22,-122.38L-482.38,-122.66L-475.55,-217.03L-472.87,-217.14L-452.62,-123.90L-445.79,-124.18L-426.74,-271.60L-446.74,-270.77L-446.73,-170.33L-449.41,-170.22L-457.05,-218.78L-466.99,-269.93L-477.48,-269.49L-484.54,-168.76L-487.23,-168.65L-491.69,-217.34ZM-402.65,-205.45L-354.45,-257.82L-352.75,-216.87L-229.77,-221.97L-229.00,-203.42L-351.98,-198.32L-350.27,-157.25ZM-208.45,-312.43L-207.80,-296.57L-187.55,-297.41L-180.81,-135.18L-162.51,-135.94L-169.25,-298.17L-149.00,-299.01L-149.66,-314.87ZM-91.13,-259.14C-92.01,-280.36 -99.40,-287.63 -112.82,-287.08C-127.46,-286.47 -138.30,-276.98 -137.30,-252.82L-133.58,-163.29C-132.71,-142.31 -124.84,-135.06 -109.95,-135.67C-93.61,-136.35 -86.53,-154.24 -87.98,-177.40L-89.93,-206.64L-93.34,-206.50L-92.89,-177.93C-92.73,-162.29 -95.52,-152.89 -102.84,-152.59C-109.67,-152.30 -116.12,-154.73 -116.85,-172.29L-118.79,-218.89L-89.51,-220.10ZM-105.43,-250.48L-104.29,-222.91L-118.93,-222.30L-120.32,-255.97C-120.69,-264.75 -119.69,-270.17 -113.84,-270.41C-108.96,-270.62 -106.17,-268.29 -105.43,-250.48ZM-35.24,-267.08C-34.98,-260.74 -38.74,-251.29 -52.20,-222.14L-33.66,-222.91C-30.41,-244.80 -30.36,-261.17 -30.62,-267.51C-31.26,-282.88 -37.67,-290.19 -50.36,-289.67C-63.77,-289.11 -74.87,-279.61 -73.86,-255.46L-70.15,-165.92C-69.28,-144.94 -62.13,-137.66 -48.96,-138.21C-34.32,-138.81 -27.97,-156.67 -29.42,-179.83L-31.38,-209.32L-34.80,-209.18L-34.33,-180.36C-34.17,-164.73 -36.23,-155.35 -41.84,-155.12C-47.45,-154.89 -52.68,-157.36 -53.41,-174.92L-56.89,-258.60C-57.25,-267.39 -56.01,-272.81 -48.69,-273.12C-39.42,-273.50 -35.44,-271.71 -35.24,-267.08ZM0.15,-321.09L-16.92,-320.38L-9.53,-142.29L7.55,-143.00L3.71,-235.46C2.76,-258.39 7.18,-275.44 14.01,-275.72C18.65,-275.91 20.03,-272.06 20.39,-263.28L25.36,-143.74L42.43,-144.44L37.08,-273.50C36.57,-285.70 29.67,-292.99 20.64,-292.61C11.37,-292.23 3.33,-285.79 -0.27,-248.98L-2.73,-249.37L1.58,-286.69ZM106.05,-325.49L87.75,-324.73L92.70,-146.53L111.98,-147.33L100.10,-274.41L102.54,-274.51L127.57,-160.20L133.18,-160.43L144.02,-276.23L146.70,-276.34L148.81,-148.86L167.60,-149.64L157.77,-327.63L142.40,-327.00L133.04,-211.01L130.35,-210.90ZM200.95,-300.10C185.58,-299.46 174.37,-281.16 175.01,-265.79C175.47,-254.56 177.51,-240.72 182.88,-229.21L206.30,-230.18C185.45,-249.60 180.93,-258.46 180.51,-268.70C180.15,-277.24 183.10,-282.74 195.79,-283.27C203.84,-283.60 205.87,-281.73 206.19,-273.92L208.07,-228.79C189.54,-209.94 179.62,-201.70 180.44,-181.94L181.14,-165.11C181.63,-153.40 186.74,-147.99 196.01,-148.37C205.28,-148.76 211.14,-154.87 213.29,-191.37L215.75,-190.98C214.26,-156.22 218.94,-149.33 228.94,-149.74C240.41,-150.22 242.36,-162.03 241.48,-177.39L239.02,-219.08L235.60,-218.94L236.64,-176.21C236.73,-168.15 235.09,-166.62 232.89,-166.52C230.21,-166.41 227.71,-167.78 227.16,-180.95L223.01,-280.98C222.49,-293.42 215.10,-300.69 200.95,-300.10ZM202.34,-166.48C199.91,-166.38 198.14,-167.77 197.95,-172.16L196.94,-196.56C196.52,-206.80 197.98,-212.73 208.28,-223.67L209.09,-204.15C210.02,-181.70 207.71,-166.70 202.34,-166.48ZM298.57,-268.23C297.92,-283.84 288.28,-292.48 274.79,-293.63L274.67,-296.56C286.14,-296.79 294.82,-293.73 309.81,-274.07L308.65,-302.13L273.52,-300.67C259.13,-300.07 247.30,-290.54 248.29,-266.63L250.63,-210.27C251.15,-197.83 254.65,-190.15 260.68,-186.01C256.75,-180.71 249.93,-174.32 250.27,-166.02C250.53,-159.68 254.57,-156.67 260.24,-155.44L260.30,-153.98C253.84,-150.78 248.70,-144.94 249.07,-136.16C249.37,-128.84 255.54,-121.52 270.18,-122.13C290.43,-122.97 313.01,-144.19 312.47,-157.12C312.05,-167.12 304.77,-171.95 289.64,-171.32L263.78,-170.25C259.15,-170.06 257.63,-171.22 257.54,-173.41C257.44,-175.85 260.68,-180.14 264.67,-184.22C267.66,-182.87 271.34,-182.54 275.48,-182.71C289.88,-183.31 301.71,-192.60 300.76,-215.53ZM271.28,-283.96C276.16,-284.16 280.91,-281.67 281.64,-264.10L283.81,-211.65C284.17,-203.11 283.17,-197.69 277.80,-197.47C272.68,-197.26 268.18,-199.76 267.45,-217.32L265.27,-269.78C264.92,-278.32 265.91,-283.73 271.28,-283.96ZM262.32,-146.48C262.21,-149.17 263.33,-151.66 267.15,-153.77L290.33,-154.73C298.62,-155.08 300.72,-151.74 300.96,-145.89C301.16,-141.01 296.61,-138.87 285.39,-138.40C266.36,-137.61 262.53,-141.60 262.32,-146.48ZM341.98,-305.95C326.61,-305.32 315.39,-287.01 316.03,-271.64C316.50,-260.42 318.54,-246.57 323.90,-235.06L347.33,-236.04C326.48,-255.46 321.96,-264.31 321.53,-274.56C321.18,-283.10 324.13,-288.59 336.81,-289.12C344.86,-289.45 346.90,-287.58 347.22,-279.78L349.09,-234.64C330.57,-215.79 320.65,-207.56 321.47,-187.80L322.17,-170.96C322.65,-159.25 327.76,-153.84 337.04,-154.23C346.31,-154.61 352.16,-160.72 354.31,-197.22L356.77,-196.84C355.28,-162.07 359.97,-155.18 369.97,-155.60C381.44,-156.07 383.39,-167.88 382.51,-183.24L380.05,-224.93L376.63,-224.79L377.67,-182.06C377.76,-174.00 376.11,-172.47 373.92,-172.38C371.23,-172.27 368.73,-173.63 368.19,-186.80L364.03,-286.83C363.52,-299.27 356.13,-306.54 341.98,-305.95ZM343.37,-172.33C340.93,-172.23 339.16,-173.62 338.98,-178.01L337.97,-202.41C337.54,-212.66 339.01,-218.58 349.31,-229.52L350.12,-210.00C351.05,-187.56 348.74,-172.55 343.37,-172.33ZM388.42,-158.81L440.14,-160.95L439.33,-180.47L408.57,-167.95L407.28,-169.61L432.60,-307.27L387.95,-305.42L388.76,-285.90L412.46,-297.88L414.25,-296.00ZM441.08,-326.93L466.94,-328.00L466.42,-340.44L440.56,-339.37ZM463.34,-308.55L446.27,-307.84L452.34,-161.46L469.42,-162.17ZM497.50,-309.96L480.43,-309.26L486.50,-162.88L503.58,-163.59L499.73,-256.29C498.79,-278.98 503.21,-296.03 510.04,-296.31C514.68,-296.50 516.06,-292.65 516.43,-283.87L521.39,-164.32L538.47,-165.03L533.11,-294.09C532.60,-306.29 525.70,-313.58 516.67,-313.20C507.40,-312.82 499.36,-306.38 495.76,-269.57L493.30,-269.96L497.61,-307.28ZM596.92,-287.70C596.04,-308.92 588.65,-316.19 575.23,-315.64C560.60,-315.03 549.75,-305.54 550.75,-281.38L554.47,-191.85C555.34,-170.87 563.21,-163.62 578.10,-164.23C594.44,-164.91 601.52,-182.80 600.07,-205.96L598.12,-235.20L594.71,-235.06L595.16,-206.49C595.32,-190.85 592.53,-181.45 585.21,-181.15C578.38,-180.87 571.93,-183.29 571.20,-200.85L569.27,-247.45L598.54,-248.66ZM582.62,-279.04L583.76,-251.47L569.12,-250.86L567.73,-284.53C567.36,-293.31 568.36,-298.73 574.21,-298.97C579.09,-299.18 581.88,-296.85 582.62,-279.04Z" fill="#ffffff" stroke="#000000"/>
    <path d="M-626.92,-263.58L-644.99,-262.08L-630.36,-86.24L-586.28,-89.90L-587.59,-105.56L-613.60,-103.39ZM-551.87,-90.34C-537.66,-91.52 -526.36,-101.43 -528.32,-125.04L-535.69,-213.68C-537.42,-234.40 -545.99,-241.20 -561.40,-239.92C-575.61,-238.74 -586.92,-228.83 -584.95,-205.22L-577.58,-116.58C-575.86,-95.86 -567.05,-89.08 -551.87,-90.34ZM-562.93,-223.30C-558.11,-223.70 -553.32,-221.43 -551.87,-204.09L-544.98,-121.23C-544.28,-112.80 -545.05,-107.40 -550.35,-106.96C-555.40,-106.54 -559.96,-108.83 -561.40,-126.17L-568.29,-209.03C-568.99,-217.46 -568.23,-222.86 -562.93,-223.30ZM-512.30,-241.58L-530.60,-240.06L-494.50,-97.53L-487.75,-98.10L-484.87,-191.71L-482.22,-191.93L-458.37,-100.54L-451.62,-101.10L-438.83,-247.69L-458.58,-246.05L-454.44,-146.71L-457.09,-146.49L-466.64,-194.20L-478.57,-244.38L-488.93,-243.52L-491.78,-143.60L-494.43,-143.38L-500.84,-191.36ZM-412.29,-183.25L-366.77,-237.03L-363.40,-196.59L-241.98,-206.69L-240.45,-188.38L-361.88,-178.28L-358.51,-137.73ZM-224.61,-297.03L-223.31,-281.38L-203.32,-283.04L-190.00,-122.86L-171.93,-124.36L-185.25,-284.54L-165.26,-286.21L-166.56,-301.86ZM-106.39,-249.14C-108.13,-270.10 -115.74,-276.98 -128.98,-275.88C-143.44,-274.68 -153.78,-264.85 -151.79,-241.00L-144.44,-152.60C-142.72,-131.88 -134.63,-125.04 -119.94,-126.26C-103.80,-127.60 -97.53,-145.58 -99.92,-168.43L-103.04,-197.27L-106.42,-196.99L-104.79,-168.75C-103.99,-153.29 -106.36,-143.88 -113.59,-143.28C-120.34,-142.72 -126.82,-144.85 -128.26,-162.19L-132.09,-208.20L-103.18,-210.60ZM-120.18,-239.99L-117.91,-212.77L-132.37,-211.57L-135.13,-244.81C-135.85,-253.48 -135.09,-258.88 -129.31,-259.36C-124.49,-259.76 -121.64,-257.57 -120.18,-239.99ZM-51.44,-259.29C-50.92,-253.03 -54.25,-243.53 -66.36,-214.15L-48.05,-215.67C-45.74,-237.45 -46.36,-253.65 -46.88,-259.91C-48.14,-275.09 -54.79,-282.05 -67.31,-281.01C-80.56,-279.91 -91.14,-270.06 -89.16,-246.21L-81.81,-157.81C-80.08,-137.09 -72.72,-130.18 -59.71,-131.27C-45.26,-132.47 -39.72,-150.39 -42.10,-173.24L-45.25,-202.32L-48.62,-202.04L-46.98,-173.56C-46.18,-158.10 -47.82,-148.75 -53.37,-148.29C-58.91,-147.83 -64.18,-150.05 -65.63,-167.40L-72.50,-250.02C-73.22,-258.69 -72.21,-264.11 -64.99,-264.71C-55.83,-265.47 -51.82,-263.87 -51.44,-259.29ZM-18.64,-314.16L-35.51,-312.76L-20.88,-136.92L-4.02,-138.32L-11.61,-229.62C-13.50,-252.26 -9.82,-269.30 -3.08,-269.86C1.50,-270.24 3.03,-266.49 3.75,-257.81L13.56,-139.78L30.42,-141.19L19.83,-268.61C18.83,-280.66 11.70,-287.58 2.79,-286.84C-6.37,-286.08 -14.05,-279.38 -16.11,-242.82L-18.56,-243.11L-15.82,-280.20ZM85.91,-322.86L67.84,-321.36L80.05,-145.31L99.08,-146.90L82.12,-272.09L84.53,-272.29L113.98,-160.26L119.52,-160.72L125.48,-275.70L128.13,-275.92L135.46,-149.92L154.00,-151.46L136.97,-327.10L121.80,-325.84L117.30,-210.75L114.65,-210.53ZM180.82,-301.65C165.64,-300.38 155.30,-281.82 156.56,-266.64C157.48,-255.56 160.07,-241.95 165.85,-230.79L188.97,-232.71C167.56,-251.06 162.72,-259.64 161.88,-269.75C161.18,-278.18 163.87,-283.74 176.40,-284.78C184.35,-285.45 186.43,-283.68 187.07,-275.97L190.78,-231.41C173.23,-212.00 163.76,-203.45 165.38,-183.94L166.76,-167.32C167.72,-155.76 173.00,-150.62 182.15,-151.38C191.31,-152.14 196.85,-158.42 197.48,-194.61L199.93,-194.33C199.88,-159.89 204.80,-153.26 214.67,-154.08C225.99,-155.03 227.44,-166.79 225.94,-181.94L221.79,-223.07L218.42,-222.79L221.20,-180.58C221.62,-172.61 220.06,-171.02 217.89,-170.84C215.24,-170.62 212.71,-171.87 211.63,-184.88L203.41,-283.64C202.39,-295.92 194.79,-302.81 180.82,-301.65ZM187.68,-169.54C185.27,-169.34 183.46,-170.65 183.10,-174.99L181.10,-199.07C180.26,-209.19 181.46,-215.11 191.20,-226.35L192.80,-207.08C194.65,-184.92 192.98,-169.99 187.68,-169.54ZM278.67,-274.13C277.39,-289.55 267.50,-297.70 254.11,-298.28L253.87,-301.17C265.21,-301.87 273.92,-299.20 289.55,-280.37L287.25,-308.07L252.56,-305.19C238.35,-304.00 227.05,-294.09 229.01,-270.48L233.64,-214.84C234.66,-202.56 238.43,-195.11 244.58,-191.25C240.90,-185.86 234.42,-179.25 235.10,-171.06C235.62,-164.80 239.73,-161.99 245.39,-161.00L245.51,-159.56C239.25,-156.13 234.41,-150.15 235.13,-141.48C235.73,-134.25 242.14,-127.26 256.59,-128.46C276.58,-130.13 298.04,-152.04 296.98,-164.81C296.16,-174.69 288.75,-179.16 273.82,-177.92L248.29,-175.80C243.71,-175.42 242.16,-176.50 241.98,-178.67C241.78,-181.08 244.82,-185.45 248.59,-189.65C251.60,-188.44 255.25,-188.26 259.35,-188.60C273.56,-189.78 284.88,-199.46 283.00,-222.10ZM251.04,-288.57C255.85,-288.97 260.65,-286.70 262.09,-269.35L266.40,-217.57C267.10,-209.14 266.34,-203.74 261.04,-203.30C255.98,-202.87 251.42,-205.16 249.98,-222.51L245.67,-274.30C244.97,-282.73 245.74,-288.13 251.04,-288.57ZM247.82,-152.23C247.60,-154.88 248.60,-157.39 252.30,-159.64L275.18,-161.54C283.37,-162.22 285.58,-159.01 286.06,-153.23C286.46,-148.41 282.04,-146.10 270.96,-145.18C252.17,-143.62 248.22,-147.41 247.82,-152.23ZM320.06,-313.22C304.88,-311.96 294.54,-293.40 295.80,-278.22C296.72,-267.14 299.31,-253.53 305.09,-242.37L328.21,-244.29C306.80,-262.64 301.96,-271.22 301.12,-281.33C300.42,-289.76 303.11,-295.32 315.64,-296.36C323.59,-297.03 325.67,-295.26 326.32,-287.55L330.02,-242.99C312.47,-223.58 303.00,-215.03 304.62,-195.52L306.00,-178.90C306.96,-167.34 312.24,-162.20 321.40,-162.96C330.55,-163.72 336.09,-170.00 336.72,-206.19L339.17,-205.91C339.12,-171.47 344.04,-164.84 353.91,-165.66C365.24,-166.60 366.68,-178.37 365.18,-193.52L361.03,-234.65L357.66,-234.37L360.44,-192.16C360.86,-184.19 359.30,-182.60 357.13,-182.42C354.48,-182.20 351.95,-183.45 350.87,-196.46L342.66,-295.22C341.63,-307.50 334.03,-314.39 320.06,-313.22ZM326.92,-181.12C324.51,-180.92 322.70,-182.23 322.34,-186.56L320.34,-210.65C319.50,-220.77 320.70,-226.69 330.44,-237.93L332.04,-218.66C333.89,-196.50 332.22,-181.56 326.92,-181.12ZM372.03,-169.59L423.09,-173.84L421.49,-193.11L391.58,-179.47L390.24,-181.05L409.63,-318.25L365.55,-314.58L367.15,-295.31L390.10,-308.13L391.94,-306.35ZM417.21,-338.04L442.74,-340.16L441.72,-352.45L416.18,-350.32ZM439.99,-320.77L423.12,-319.37L435.14,-174.84L452.01,-176.25ZM473.71,-323.58L456.85,-322.17L468.87,-177.65L485.73,-179.05L478.12,-270.58C476.26,-292.99 479.93,-310.03 486.68,-310.59C491.25,-310.97 492.78,-307.21 493.50,-298.54L503.32,-180.51L520.18,-181.92L509.58,-309.34C508.58,-321.38 501.45,-328.31 492.54,-327.57C483.39,-326.81 475.70,-320.10 473.65,-283.55L471.20,-283.83L473.93,-320.93ZM572.96,-305.64C571.21,-326.59 563.61,-333.48 550.36,-332.38C535.91,-331.17 525.57,-321.34 527.55,-297.49L534.90,-209.09C536.62,-188.38 544.71,-181.53 559.41,-182.75C575.54,-184.09 581.81,-202.08 579.43,-224.92L576.30,-253.77L572.93,-253.49L574.55,-225.24C575.35,-209.79 572.98,-200.37 565.75,-199.77C559.01,-199.21 552.52,-201.34 551.08,-218.68L547.26,-264.69L576.16,-267.10ZM559.16,-296.48L561.43,-269.27L546.98,-268.06L544.21,-301.30C543.49,-309.98 544.25,-315.38 550.03,-315.86C554.85,-316.26 557.70,-314.07 559.16,-296.48Z" fill="#ffffff" stroke="#000000"/>
    <path d="M-636.22,-231.32L-654.03,-229.09L-632.35,-55.80L-588.91,-61.23L-590.84,-76.66L-616.48,-73.45ZM-554.89,-63.07C-540.89,-64.83 -530.12,-75.10 -533.03,-98.36L-543.96,-185.72C-546.51,-206.14 -555.27,-212.51 -570.46,-210.61C-584.46,-208.86 -595.24,-198.59 -592.33,-175.33L-581.40,-87.97C-578.84,-67.55 -569.85,-61.20 -554.89,-63.07ZM-571.29,-194.12C-566.54,-194.71 -561.70,-192.66 -559.56,-175.57L-549.35,-93.91C-548.31,-85.60 -548.84,-80.23 -554.07,-79.57C-559.05,-78.95 -563.65,-81.03 -565.79,-98.12L-576.00,-179.78C-577.04,-188.09 -576.51,-193.46 -571.29,-194.12ZM-521.96,-214.27L-540.01,-212.01L-498.45,-72.55L-491.80,-73.38L-492.79,-166.08L-490.18,-166.41L-462.84,-77.00L-456.19,-77.83L-449.56,-223.33L-469.03,-220.89L-460.86,-122.82L-463.47,-122.49L-474.87,-169.29L-488.73,-218.43L-498.94,-217.15L-497.65,-118.22L-500.26,-117.89L-508.58,-165.07ZM-420.67,-160.69L-377.86,-215.75L-372.87,-175.89L-253.20,-190.86L-250.94,-172.81L-370.61,-157.84L-365.61,-117.88ZM-239.74,-280.92L-237.81,-265.49L-218.10,-267.96L-198.35,-110.09L-180.55,-112.32L-200.30,-270.18L-180.60,-272.65L-182.53,-288.08ZM-120.85,-238.41C-123.44,-259.06 -131.24,-265.56 -144.30,-263.93C-158.54,-262.15 -168.36,-252.00 -165.42,-228.49L-154.52,-141.37C-151.97,-120.96 -143.69,-114.52 -129.21,-116.33C-113.30,-118.32 -107.84,-136.36 -111.14,-158.85L-115.42,-187.25L-118.74,-186.84L-115.98,-158.97C-114.55,-143.72 -116.51,-134.31 -123.63,-133.42C-130.28,-132.59 -136.78,-134.43 -138.91,-151.52L-144.59,-196.86L-116.10,-200.43ZM-134.11,-228.79L-130.76,-201.97L-145.00,-200.19L-149.10,-232.95C-150.17,-241.49 -149.64,-246.86 -143.94,-247.58C-139.19,-248.17 -136.28,-246.12 -134.11,-228.79ZM-66.93,-250.70C-66.16,-244.53 -69.06,-235.00 -79.83,-205.45L-61.79,-207.70C-60.40,-229.34 -61.68,-245.33 -62.45,-251.50C-64.32,-266.46 -71.17,-273.08 -83.52,-271.53C-96.57,-269.90 -106.63,-259.72 -103.69,-236.22L-92.79,-149.09C-90.24,-128.68 -82.67,-122.15 -69.85,-123.75C-55.61,-125.54 -50.86,-143.49 -54.16,-165.98L-58.47,-194.62L-61.79,-194.20L-59.00,-166.10C-57.57,-150.85 -58.82,-141.53 -64.28,-140.85C-69.74,-140.16 -75.05,-142.15 -77.19,-159.24L-87.37,-240.67C-88.44,-249.22 -87.67,-254.62 -80.55,-255.51C-71.53,-256.64 -67.49,-255.21 -66.93,-250.70ZM-36.75,-306.31L-53.37,-304.24L-31.69,-130.94L-15.07,-133.02L-26.32,-222.99C-29.12,-245.30 -26.18,-262.31 -19.53,-263.14C-15.02,-263.70 -13.36,-260.05 -12.29,-251.51L2.26,-135.19L18.88,-137.27L3.17,-262.85C1.68,-274.72 -5.65,-281.27 -14.43,-280.17C-23.45,-279.05 -30.78,-272.10 -31.31,-235.87L-33.74,-236.05L-32.56,-272.84ZM66.29,-319.20L48.49,-316.98L67.79,-143.38L86.54,-145.73L64.63,-268.85L67.01,-269.14L100.73,-159.56L106.19,-160.24L107.36,-274.19L109.97,-274.52L122.39,-150.21L140.67,-152.50L116.62,-325.50L101.66,-323.63L101.94,-209.62L99.33,-209.29ZM161.02,-302.12C146.06,-300.25 136.60,-281.47 138.47,-266.51C139.84,-255.59 142.95,-242.24 149.13,-231.44L171.92,-234.29C149.99,-251.56 144.85,-259.84 143.60,-269.81C142.57,-278.11 145.00,-283.72 157.34,-285.27C165.18,-286.25 167.31,-284.59 168.26,-276.99L173.76,-233.07C157.20,-213.16 148.18,-204.31 150.59,-185.09L152.64,-168.71C154.06,-157.31 159.49,-152.44 168.51,-153.57C177.53,-154.70 182.76,-161.14 181.89,-196.96L184.33,-196.78C185.69,-162.71 190.83,-156.37 200.56,-157.58C211.72,-158.98 212.67,-170.67 210.56,-185.60L204.77,-226.10L201.44,-225.69L205.93,-184.05C206.67,-176.19 205.19,-174.56 203.05,-174.29C200.44,-173.96 197.89,-175.09 196.28,-187.91L184.11,-285.24C182.59,-297.35 174.79,-303.85 161.02,-302.12ZM173.23,-171.76C170.86,-171.47 169.02,-172.68 168.48,-176.96L165.51,-200.70C164.26,-210.67 165.21,-216.57 174.38,-228.09L176.76,-209.10C179.49,-187.26 178.45,-172.42 173.23,-171.76ZM258.93,-278.93C257.03,-294.12 246.91,-301.78 233.64,-301.80L233.28,-304.65C244.47,-305.81 253.20,-303.53 269.43,-285.55L266.01,-312.85L231.83,-308.57C217.82,-306.82 207.05,-296.55 209.96,-273.29L216.82,-218.45C218.34,-206.34 222.37,-199.13 228.61,-195.57C225.19,-190.08 219.05,-183.28 220.06,-175.21C220.83,-169.04 225.02,-166.43 230.66,-165.69L230.84,-164.26C224.78,-160.61 220.24,-154.50 221.31,-145.95C222.20,-138.83 228.82,-132.19 243.06,-133.97C262.77,-136.43 283.09,-158.99 281.52,-171.57C280.30,-181.30 272.79,-185.43 258.07,-183.58L232.91,-180.44C228.40,-179.87 226.83,-180.88 226.56,-183.02C226.26,-185.39 229.08,-189.84 232.64,-194.15C235.67,-193.08 239.29,-193.05 243.33,-193.55C257.33,-195.31 268.13,-205.34 265.34,-227.65ZM231.00,-292.07C235.75,-292.66 240.59,-290.62 242.72,-273.53L249.11,-222.49C250.15,-214.18 249.61,-208.81 244.39,-208.15C239.41,-207.53 234.81,-209.61 232.67,-226.70L226.28,-277.74C225.24,-286.05 225.78,-291.42 231.00,-292.07ZM233.42,-157.11C233.09,-159.72 233.98,-162.25 237.54,-164.62L260.09,-167.44C268.17,-168.45 270.48,-165.37 271.19,-159.67C271.79,-154.92 267.51,-152.46 256.59,-151.09C238.08,-148.77 234.01,-152.36 233.42,-157.11ZM298.25,-319.29C283.29,-317.42 273.83,-298.63 275.70,-283.68C277.06,-272.76 280.18,-259.41 286.35,-248.60L309.14,-251.46C287.21,-268.72 282.08,-277.00 280.83,-286.97C279.79,-295.28 282.22,-300.89 294.57,-302.43C302.40,-303.41 304.54,-301.75 305.49,-294.16L310.98,-250.24C294.43,-230.33 285.41,-221.48 287.81,-202.25L289.86,-185.87C291.29,-174.48 296.72,-169.61 305.74,-170.74C314.76,-171.87 319.98,-178.31 319.12,-214.13L321.55,-213.95C322.92,-179.88 328.05,-173.53 337.79,-174.75C348.95,-176.15 349.89,-187.84 347.79,-202.76L341.99,-243.27L338.67,-242.85L343.16,-201.22C343.90,-193.36 342.42,-191.72 340.28,-191.46C337.67,-191.13 335.12,-192.26 333.51,-205.08L321.34,-302.41C319.82,-314.51 312.02,-321.01 298.25,-319.29ZM310.46,-188.93C308.08,-188.63 306.24,-189.85 305.71,-194.12L302.74,-217.86C301.49,-227.83 302.44,-233.74 311.61,-245.25L313.98,-226.26C316.72,-204.42 315.68,-189.58 310.46,-188.93ZM355.54,-179.38L405.87,-185.68L403.49,-204.67L374.47,-189.95L373.08,-191.46L386.62,-327.93L343.18,-322.50L345.56,-303.51L367.72,-317.13L369.62,-315.44ZM393.30,-347.82L418.47,-350.97L416.95,-363.07L391.79,-359.93ZM416.54,-331.68L399.92,-329.60L417.74,-187.16L434.36,-189.24ZM449.78,-335.84L433.16,-333.76L450.98,-191.32L467.60,-193.40L456.31,-283.61C453.55,-305.69 456.49,-322.69 463.13,-323.52C467.64,-324.09 469.31,-320.44 470.38,-311.89L484.93,-195.57L501.54,-197.65L485.83,-323.23C484.35,-335.10 477.02,-341.65 468.24,-340.56C459.21,-339.43 451.89,-332.48 451.36,-296.25L448.92,-296.43L450.11,-333.22ZM548.66,-322.17C546.08,-342.82 538.27,-349.32 525.22,-347.68C510.97,-345.90 501.15,-335.75 504.09,-312.25L514.99,-225.13C517.55,-204.71 525.82,-198.27 540.31,-200.09C556.21,-202.07 561.67,-220.12 558.37,-242.61L554.10,-271.01L550.77,-270.59L553.54,-242.73C554.96,-227.48 553.00,-218.07 545.88,-217.18C539.24,-216.35 532.74,-218.19 530.60,-235.28L524.93,-280.62L553.41,-284.18ZM535.40,-312.55L538.75,-285.73L524.51,-283.94L520.41,-316.70C519.34,-325.25 519.88,-330.62 525.57,-331.33C530.32,-331.93 533.23,-329.88 535.40,-312.55Z" fill="#ffffff" stroke="#000000"/>
    <path d="M-643.82,-198.83L-661.34,-195.90L-632.79,-25.43L-590.05,-32.58L-592.59,-47.76L-617.82,-43.54ZM-556.50,-35.80C-542.72,-38.11 -532.49,-48.71 -536.32,-71.59L-550.71,-157.53C-554.08,-177.61 -563.00,-183.56 -577.94,-181.06C-591.72,-178.75 -601.95,-168.15 -598.12,-145.27L-583.72,-59.33C-580.36,-39.25 -571.21,-33.34 -556.50,-35.80ZM-578.08,-164.71C-573.41,-165.49 -568.55,-163.66 -565.73,-146.85L-552.28,-66.52C-550.91,-58.35 -551.22,-53.01 -556.35,-52.15C-561.26,-51.33 -565.89,-53.20 -568.71,-70.01L-582.16,-150.34C-583.53,-158.51 -583.22,-163.85 -578.08,-164.71ZM-530.14,-186.66L-547.89,-183.69L-501.07,-47.49L-494.53,-48.58L-499.31,-140.21L-496.74,-140.64L-466.04,-53.35L-459.50,-54.45L-458.91,-198.59L-478.06,-195.38L-465.96,-98.74L-468.53,-98.31L-481.72,-144.12L-497.45,-192.14L-507.49,-190.46L-502.15,-92.68L-504.72,-92.25L-514.88,-138.56ZM-427.77,-137.84L-387.70,-194.04L-381.13,-154.83L-263.41,-174.55L-260.44,-156.79L-378.16,-137.08L-371.58,-97.77ZM-253.80,-264.15L-251.26,-248.97L-231.87,-252.22L-205.86,-96.93L-188.35,-99.86L-214.36,-255.15L-194.98,-258.40L-197.52,-273.58ZM-134.49,-227.00C-137.90,-247.31 -145.88,-253.42 -158.72,-251.27C-172.74,-248.92 -182.03,-238.48 -178.16,-215.36L-163.81,-129.66C-160.44,-109.58 -151.99,-103.55 -137.75,-105.93C-122.10,-108.56 -117.44,-126.62 -121.62,-148.73L-127.02,-176.63L-130.29,-176.09L-126.41,-148.65C-124.38,-133.62 -125.93,-124.24 -132.93,-123.07C-139.47,-121.97 -145.97,-123.52 -148.79,-140.34L-156.26,-184.94L-128.24,-189.63ZM-147.21,-216.94L-142.79,-190.56L-156.81,-188.21L-162.20,-220.44C-163.61,-228.84 -163.30,-234.18 -157.70,-235.11C-153.03,-235.90 -150.07,-233.99 -147.21,-216.94ZM-81.68,-241.36C-80.66,-235.29 -83.14,-225.75 -92.58,-196.08L-74.83,-199.06C-74.34,-220.51 -76.26,-236.27 -77.28,-242.34C-79.74,-257.05 -86.79,-263.31 -98.94,-261.28C-111.78,-259.13 -121.31,-248.65 -117.44,-225.53L-103.08,-139.83C-99.72,-119.75 -91.97,-113.60 -79.36,-115.71C-65.35,-118.06 -61.39,-136.01 -65.57,-158.11L-71.01,-186.25L-74.28,-185.71L-70.36,-158.03C-68.32,-143.01 -69.17,-133.74 -74.54,-132.84C-79.92,-131.95 -85.25,-133.69 -88.07,-150.51L-101.48,-230.60C-102.89,-239.01 -102.35,-244.38 -95.34,-245.56C-86.47,-247.04 -82.42,-245.80 -81.68,-241.36ZM-54.12,-297.60L-70.46,-294.86L-41.91,-124.39L-25.57,-127.12L-40.39,-215.63C-44.07,-237.58 -41.86,-254.51 -35.32,-255.61C-30.88,-256.35 -29.09,-252.81 -27.68,-244.40L-8.52,-129.98L7.83,-132.72L-12.86,-256.25C-14.82,-267.93 -22.33,-274.11 -30.98,-272.66C-39.85,-271.18 -46.81,-264.01 -45.85,-228.16L-48.26,-228.23L-48.60,-264.67ZM47.24,-314.57L29.73,-311.64L55.94,-140.77L74.39,-143.86L47.67,-264.71L50.01,-265.10L87.85,-158.12L93.22,-159.02L89.71,-271.75L92.27,-272.18L109.65,-149.77L127.64,-152.78L96.75,-322.86L82.04,-320.40L86.99,-207.67L84.42,-207.24ZM141.62,-301.57C126.91,-299.10 118.32,-280.14 120.78,-265.43C122.58,-254.69 126.21,-241.61 132.76,-231.18L155.18,-234.94C132.78,-251.11 127.37,-259.09 125.72,-268.90C124.35,-277.07 126.53,-282.72 138.67,-284.75C146.38,-286.04 148.56,-284.49 149.81,-277.01L157.05,-233.81C141.49,-213.44 132.94,-204.32 136.10,-185.41L138.80,-169.30C140.68,-158.09 146.25,-153.50 155.12,-154.98C164.00,-156.47 168.90,-163.05 166.57,-198.43L168.99,-198.36C171.74,-164.73 177.08,-158.66 186.65,-160.26C197.63,-162.10 198.08,-173.70 195.39,-188.38L188.00,-228.19L184.73,-227.64L190.87,-186.66C191.93,-178.91 190.53,-177.24 188.43,-176.89C185.86,-176.46 183.29,-177.47 181.18,-190.08L165.14,-285.82C163.15,-297.73 155.16,-303.84 141.62,-301.57ZM159.04,-173.17C156.71,-172.77 154.84,-173.90 154.13,-178.11L150.22,-201.46C148.58,-211.27 149.27,-217.14 157.87,-228.91L161.00,-210.22C164.59,-188.74 164.18,-174.03 159.04,-173.17ZM239.38,-282.65C236.88,-297.60 226.56,-304.75 213.44,-304.23L212.97,-307.04C223.99,-308.64 232.71,-306.74 249.50,-289.63L245.00,-316.48L211.37,-310.85C197.59,-308.54 187.37,-297.95 191.20,-275.06L200.23,-221.12C202.23,-209.21 206.51,-202.24 212.82,-198.98C209.67,-193.41 203.88,-186.44 205.21,-178.50C206.23,-172.43 210.47,-170.02 216.08,-169.51L216.31,-168.11C210.48,-164.25 206.24,-158.02 207.65,-149.62C208.82,-142.61 215.64,-136.31 229.65,-138.66C249.03,-141.90 268.20,-165.04 266.13,-177.42C264.53,-186.99 256.93,-190.76 242.45,-188.34L217.70,-184.19C213.26,-183.45 211.67,-184.38 211.31,-186.48C210.92,-188.82 213.53,-193.33 216.87,-197.74C219.91,-196.80 223.49,-196.92 227.46,-197.59C241.24,-199.90 251.51,-210.26 247.83,-232.21ZM211.23,-294.50C215.90,-295.28 220.77,-293.46 223.58,-276.64L231.99,-226.44C233.36,-218.26 233.05,-212.93 227.92,-212.07C223.01,-211.25 218.38,-213.11 215.56,-229.93L207.15,-280.13C205.78,-288.31 206.09,-293.64 211.23,-294.50ZM219.16,-161.15C218.73,-163.72 219.51,-166.25 222.93,-168.74L245.11,-172.46C253.05,-173.79 255.47,-170.83 256.41,-165.23C257.19,-160.55 253.07,-157.94 242.32,-156.14C224.11,-153.09 219.94,-156.48 219.16,-161.15ZM276.61,-324.18C261.90,-321.71 253.31,-302.75 255.77,-288.04C257.57,-277.29 261.20,-264.22 267.75,-253.79L290.17,-257.55C267.77,-273.72 262.36,-281.70 260.71,-291.50C259.34,-299.68 261.52,-305.32 273.66,-307.36C281.37,-308.65 283.55,-307.09 284.80,-299.62L292.04,-256.42C276.48,-236.05 267.93,-226.93 271.09,-208.02L273.79,-191.90C275.67,-180.69 281.24,-176.11 290.11,-177.59C298.99,-179.08 303.89,-185.66 301.56,-221.04L303.98,-220.97C306.73,-187.34 312.07,-181.27 321.64,-182.87C332.62,-184.71 333.07,-196.31 330.38,-210.98L322.99,-250.80L319.72,-250.25L325.86,-209.27C326.92,-201.52 325.52,-199.85 323.42,-199.49C320.85,-199.06 318.28,-200.07 316.17,-212.69L300.13,-308.43C298.14,-320.34 290.15,-326.44 276.61,-324.18ZM294.03,-195.77C291.70,-195.38 289.83,-196.51 289.12,-200.71L285.21,-224.07C283.57,-233.87 284.27,-239.75 292.86,-251.51L295.99,-232.83C299.59,-211.35 299.17,-196.63 294.03,-195.77ZM339.00,-188.18L388.51,-196.47L385.38,-215.15L357.29,-199.41L355.85,-200.85L363.64,-336.35L320.91,-329.19L324.04,-310.51L345.40,-324.89L347.34,-323.30ZM369.43,-356.29L394.19,-360.43L392.19,-372.34L367.44,-368.20ZM393.07,-341.28L376.73,-338.54L400.19,-198.43L416.54,-201.17ZM425.77,-346.76L409.42,-344.02L432.89,-203.90L449.24,-206.64L434.37,-295.38C430.74,-317.10 432.94,-334.03 439.48,-335.13C443.92,-335.87 445.71,-332.33 447.12,-323.92L466.28,-209.50L482.63,-212.24L461.94,-335.77C459.98,-347.45 452.47,-353.63 443.83,-352.18C434.95,-350.70 427.99,-343.53 428.95,-307.68L426.54,-307.75L426.20,-344.19ZM524.11,-337.30C520.71,-357.62 512.72,-363.72 499.88,-361.57C485.87,-359.22 476.57,-348.78 480.44,-325.66L494.80,-239.96C498.16,-219.88 506.61,-213.85 520.86,-216.24C536.50,-218.86 541.16,-236.92 536.98,-259.03L531.58,-286.93L528.32,-286.39L532.19,-258.95C534.23,-243.92 532.68,-234.54 525.67,-233.37C519.13,-232.27 512.63,-233.83 509.81,-250.64L502.34,-295.24L530.37,-299.94ZM511.39,-327.25L515.81,-300.86L501.80,-298.51L496.40,-330.74C494.99,-339.14 495.30,-344.48 500.90,-345.42C505.57,-346.20 508.53,-344.29 511.39,-327.25Z" fill="#ffffff" stroke="#000000"/>
    <path d="M-649.72,-166.21L-666.92,-162.59L-631.69,4.79L-589.73,-4.04L-592.87,-18.94L-617.63,-13.73ZM-556.69,-8.60C-543.16,-11.44 -533.48,-22.34 -538.21,-44.81L-555.96,-129.19C-560.11,-148.91 -569.18,-154.42 -583.85,-151.33C-597.38,-148.49 -607.06,-137.59 -602.33,-115.12L-584.57,-30.74C-580.42,-11.02 -571.13,-5.56 -556.69,-8.60ZM-583.32,-135.16C-578.74,-136.13 -573.85,-134.52 -570.37,-118.02L-553.77,-39.14C-552.09,-31.12 -552.17,-25.83 -557.21,-24.77C-562.03,-23.75 -566.69,-25.41 -570.16,-41.92L-586.76,-120.79C-588.45,-128.82 -588.37,-134.10 -583.32,-135.16ZM-536.82,-158.84L-554.24,-155.17L-502.36,-22.42L-495.94,-23.78L-504.43,-114.17L-501.91,-114.71L-467.97,-29.66L-461.55,-31.01L-466.88,-173.56L-485.69,-169.60L-469.75,-74.54L-472.27,-74.01L-487.20,-118.76L-504.72,-165.59L-514.58,-163.52L-505.29,-67.06L-507.81,-66.53L-519.76,-111.91ZM-433.60,-114.77L-396.29,-171.98L-388.18,-133.48L-272.60,-157.81L-268.93,-140.37L-384.52,-116.05L-376.39,-77.45ZM-266.77,-246.80L-263.63,-231.89L-244.60,-235.90L-212.51,-83.42L-195.32,-87.04L-227.41,-239.52L-208.37,-243.52L-211.51,-258.43ZM-147.28,-214.96C-151.48,-234.90 -159.63,-240.61 -172.24,-237.96C-186.00,-235.06 -194.76,-224.36 -189.98,-201.66L-172.27,-117.51C-168.12,-97.79 -159.52,-92.18 -145.53,-95.13C-130.17,-98.36 -126.31,-116.41 -131.35,-138.10L-137.83,-165.47L-141.04,-164.79L-136.08,-137.82C-133.45,-123.05 -134.60,-113.71 -141.48,-112.26C-147.90,-110.91 -154.39,-112.18 -157.86,-128.69L-167.08,-172.48L-139.56,-178.27ZM-159.45,-204.49L-154.00,-178.59L-167.75,-175.69L-174.41,-207.33C-176.15,-215.59 -176.07,-220.87 -170.56,-222.03C-165.98,-222.99 -162.97,-221.23 -159.45,-204.49ZM-95.65,-231.33C-94.40,-225.37 -96.46,-215.83 -104.57,-186.11L-87.15,-189.78C-87.54,-211.01 -90.09,-226.51 -91.34,-232.48C-94.38,-246.92 -101.61,-252.82 -113.54,-250.31C-126.15,-247.66 -135.14,-236.91 -130.36,-214.21L-112.65,-130.06C-108.50,-110.34 -100.59,-104.58 -88.20,-107.19C-74.45,-110.09 -71.27,-127.99 -76.31,-149.68L-82.84,-177.28L-86.05,-176.60L-81.04,-149.40C-78.42,-134.63 -78.87,-125.44 -84.15,-124.33C-89.42,-123.22 -94.77,-124.72 -98.24,-141.23L-114.79,-219.88C-116.53,-228.13 -116.22,-233.47 -109.34,-234.91C-100.62,-236.75 -96.57,-235.69 -95.65,-231.33ZM-70.71,-288.06L-86.76,-284.68L-51.54,-117.30L-35.49,-120.68L-53.77,-207.58C-58.31,-229.13 -56.82,-245.97 -50.40,-247.32C-46.05,-248.23 -44.13,-244.81 -42.39,-236.55L-18.75,-124.20L-2.70,-127.58L-28.22,-248.87C-30.64,-260.34 -38.32,-266.14 -46.81,-264.36C-55.52,-262.52 -62.11,-255.15 -59.69,-219.74L-62.08,-219.72L-63.91,-255.73ZM28.81,-309.00L11.61,-305.38L44.54,-137.52L62.66,-141.33L31.28,-259.72L33.57,-260.20L75.38,-155.98L80.65,-157.09L72.55,-268.40L75.07,-268.94L97.28,-148.62L114.94,-152.34L77.42,-319.23L62.97,-316.19L72.50,-204.94L69.98,-204.41ZM122.65,-300.02C108.21,-296.98 100.50,-277.88 103.54,-263.43C105.76,-252.88 109.88,-240.10 116.78,-230.06L138.80,-234.70C115.99,-249.77 110.31,-257.43 108.28,-267.06C106.59,-275.09 108.51,-280.76 120.43,-283.27C128.00,-284.86 130.22,-283.41 131.76,-276.08L140.69,-233.66C126.15,-212.88 118.06,-203.52 121.97,-184.94L125.30,-169.12C127.62,-158.12 133.31,-153.81 142.02,-155.64C150.74,-157.48 155.31,-164.18 151.56,-199.07L153.95,-199.10C158.05,-165.96 163.58,-160.18 172.98,-162.16C183.75,-164.42 183.73,-175.91 180.46,-190.31L171.52,-229.37L168.31,-228.70L176.07,-188.43C177.43,-180.81 176.12,-179.10 174.05,-178.66C171.53,-178.13 168.95,-179.03 166.34,-191.41L146.56,-285.42C144.10,-297.11 135.95,-302.82 122.65,-300.02ZM145.15,-173.78C142.86,-173.30 140.96,-174.33 140.10,-178.46L135.27,-201.39C133.24,-211.02 133.69,-216.86 141.70,-228.84L145.56,-210.50C150.00,-189.41 150.20,-174.84 145.15,-173.78ZM220.09,-285.33C217.01,-300.00 206.51,-306.65 193.56,-305.60L192.98,-308.35C203.80,-310.39 212.50,-308.87 229.81,-292.64L224.26,-319.01L191.24,-312.06C177.71,-309.21 168.03,-298.32 172.76,-275.85L183.91,-222.88C186.37,-211.19 190.90,-204.48 197.27,-201.51C194.38,-195.87 188.94,-188.74 190.58,-180.95C191.84,-174.98 196.13,-172.78 201.69,-172.51L201.98,-171.13C196.37,-167.08 192.44,-160.74 194.17,-152.49C195.62,-145.61 202.62,-139.66 216.38,-142.56C235.41,-146.56 253.42,-170.22 250.86,-182.38C248.88,-191.78 241.22,-195.19 227.00,-192.20L202.70,-187.09C198.34,-186.17 196.72,-187.03 196.29,-189.09C195.81,-191.38 198.20,-195.96 201.32,-200.45C204.36,-199.65 207.90,-199.91 211.80,-200.73C225.32,-203.58 235.05,-214.25 230.52,-235.80ZM191.77,-295.89C196.36,-296.85 201.24,-295.25 204.72,-278.74L215.09,-229.44C216.78,-221.42 216.70,-216.13 211.65,-215.07C206.84,-214.06 202.18,-215.71 198.71,-232.22L188.33,-281.52C186.64,-289.54 186.73,-294.83 191.77,-295.89ZM205.08,-164.36C204.55,-166.89 205.22,-169.42 208.50,-172.03L230.28,-176.61C238.08,-178.25 240.59,-175.43 241.75,-169.92C242.71,-165.34 238.74,-162.59 228.19,-160.37C210.31,-156.60 206.05,-159.78 205.08,-164.36ZM255.20,-327.91C240.75,-324.87 233.04,-305.77 236.08,-291.33C238.30,-280.78 242.42,-268.00 249.33,-257.96L271.34,-262.59C248.53,-277.66 242.85,-285.33 240.82,-294.96C239.13,-302.98 241.05,-308.65 252.97,-311.16C260.54,-312.76 262.76,-311.31 264.30,-303.97L273.23,-261.55C258.69,-240.77 250.60,-231.41 254.51,-212.84L257.84,-197.02C260.16,-186.01 265.85,-181.70 274.57,-183.53C283.28,-185.37 287.85,-192.08 284.10,-226.97L286.49,-226.99C290.59,-193.85 296.12,-188.07 305.52,-190.05C316.30,-192.32 316.27,-203.81 313.00,-218.20L304.06,-257.27L300.85,-256.59L308.61,-216.32C309.97,-208.71 308.66,-206.99 306.59,-206.56C304.07,-206.03 301.49,-206.92 298.88,-219.30L279.10,-313.31C276.64,-325.00 268.49,-330.71 255.20,-327.91ZM277.69,-201.67C275.40,-201.19 273.51,-202.23 272.64,-206.35L267.81,-229.28C265.78,-238.91 266.23,-244.75 274.25,-256.74L278.11,-238.39C282.54,-217.30 282.74,-202.73 277.69,-201.67ZM322.47,-196.01L371.08,-206.24L367.22,-224.58L340.09,-207.86L338.60,-209.22L340.75,-343.52L298.79,-334.69L302.65,-316.35L323.18,-331.45L325.17,-329.95ZM345.66,-363.47L369.96,-368.59L367.50,-380.28L343.20,-375.17ZM369.65,-349.60L353.60,-346.23L382.55,-208.65L398.60,-212.03ZM401.75,-356.36L385.70,-352.98L414.65,-215.41L430.70,-218.79L412.37,-305.92C407.88,-327.24 409.36,-344.08 415.78,-345.43C420.14,-346.34 422.06,-342.92 423.80,-334.66L447.44,-222.31L463.49,-225.69L437.96,-346.98C435.55,-358.45 427.86,-364.25 419.38,-362.47C410.67,-360.63 404.08,-353.26 406.50,-317.85L404.11,-317.83L402.28,-353.84ZM499.37,-351.05C495.17,-370.99 487.03,-376.70 474.42,-374.05C460.66,-371.15 451.90,-360.45 456.67,-337.75L474.38,-253.60C478.53,-233.88 487.14,-228.27 501.12,-231.21C516.49,-234.45 520.35,-252.50 515.31,-274.19L508.83,-301.56L505.62,-300.88L510.58,-273.91C513.21,-259.14 512.06,-249.80 505.18,-248.35C498.76,-247.00 492.27,-248.27 488.79,-264.78L479.58,-308.57L507.09,-314.36ZM487.21,-340.58L492.66,-314.67L478.90,-311.78L472.24,-343.42C470.50,-351.67 470.59,-356.96 476.09,-358.12C480.68,-359.08 483.68,-357.32 487.21,-340.58Z" fill="#ffffff" stroke="#000000"/>
    <path d="M-653.92,-133.53L-670.77,-129.25L-629.08,34.78L-587.96,24.33L-591.67,9.73L-615.94,15.89ZM-555.48,18.47C-542.22,15.10 -533.10,3.93 -538.69,-18.09L-559.71,-100.78C-564.62,-120.11 -573.81,-125.19 -588.19,-121.53C-601.45,-118.16 -610.57,-106.99 -604.97,-84.97L-583.95,-2.28C-579.04,17.04 -569.63,22.07 -555.48,18.47ZM-587.00,-105.57C-582.51,-106.71 -577.61,-105.32 -573.50,-89.14L-553.85,-11.85C-551.85,-3.98 -551.72,1.25 -556.66,2.50C-561.38,3.70 -566.05,2.26 -570.17,-13.92L-589.81,-91.22C-591.81,-99.08 -591.95,-104.31 -587.00,-105.57ZM-542.00,-130.88L-559.08,-126.54L-502.34,2.57L-496.05,0.97L-508.15,-88.05L-505.68,-88.68L-468.63,-6.00L-462.34,-7.60L-473.47,-148.30L-491.89,-143.62L-472.24,-50.29L-474.71,-49.67L-491.30,-93.29L-510.54,-138.88L-520.20,-136.42L-507.07,-41.44L-509.54,-40.81L-523.21,-85.18ZM-438.15,-91.55L-403.61,-149.64L-394.02,-111.91L-280.75,-140.70L-276.40,-123.62L-389.67,-94.83L-380.06,-57.00ZM-278.63,-228.92L-274.92,-214.31L-256.27,-219.06L-218.29,-69.63L-201.44,-73.91L-239.42,-223.34L-220.77,-228.08L-224.48,-242.68ZM-159.20,-202.34C-164.17,-221.89 -172.46,-227.20 -184.82,-224.06C-198.30,-220.63 -206.52,-209.69 -200.87,-187.45L-179.91,-104.98C-174.99,-85.66 -166.26,-80.46 -152.55,-83.95C-137.50,-87.77 -134.42,-105.78 -140.29,-127.01L-147.82,-153.81L-150.97,-153.01L-144.96,-126.54C-141.75,-112.05 -142.50,-102.77 -149.24,-101.06C-155.54,-99.46 -162.01,-100.44 -166.12,-116.62L-177.03,-159.54L-150.06,-166.39ZM-170.80,-191.50L-164.34,-166.11L-177.83,-162.68L-185.71,-193.69C-187.76,-201.78 -187.90,-207.01 -182.50,-208.38C-178.01,-209.52 -174.97,-207.91 -170.80,-191.50ZM-108.83,-220.65C-107.34,-214.81 -108.99,-205.30 -115.79,-175.58L-98.72,-179.92C-99.98,-200.89 -103.13,-216.12 -104.62,-221.96C-108.21,-236.12 -115.60,-241.65 -127.29,-238.68C-139.65,-235.54 -148.09,-224.54 -142.44,-202.30L-121.48,-119.83C-116.57,-100.51 -108.50,-95.14 -96.37,-98.23C-82.89,-101.66 -80.48,-119.49 -86.36,-140.72L-93.94,-167.74L-97.09,-166.94L-91.03,-140.25C-87.82,-125.76 -87.90,-116.65 -93.06,-115.34C-98.23,-114.02 -103.58,-115.29 -107.69,-131.47L-127.28,-208.54C-129.34,-216.63 -129.25,-221.92 -122.50,-223.63C-113.97,-225.80 -109.91,-224.92 -108.83,-220.65ZM-86.50,-277.76L-102.23,-273.76L-60.54,-109.73L-44.81,-113.73L-66.45,-198.89C-71.82,-220.01 -71.04,-236.71 -64.75,-238.31C-60.48,-239.40 -58.44,-236.09 -56.39,-228.00L-28.40,-117.90L-12.67,-121.89L-42.89,-240.76C-45.74,-251.99 -53.58,-257.42 -61.89,-255.31C-70.43,-253.13 -76.64,-245.58 -72.80,-210.67L-75.16,-210.55L-78.45,-246.07ZM11.03,-302.55L-5.82,-298.26L33.62,-133.66L51.37,-138.17L15.49,-253.92L17.74,-254.50L63.35,-153.18L68.52,-154.49L55.94,-264.21L58.41,-264.83L85.30,-146.80L102.61,-151.20L58.67,-314.65L44.51,-311.06L58.49,-201.46L56.02,-200.83ZM104.18,-297.52C90.02,-293.92 83.18,-274.72 86.78,-260.56C89.40,-250.22 94.01,-237.76 101.24,-228.12L122.81,-233.60C99.65,-247.57 93.72,-254.91 91.32,-264.35C89.32,-272.21 90.98,-277.90 102.67,-280.87C110.08,-282.75 112.34,-281.41 114.16,-274.22L124.73,-232.65C111.20,-211.51 103.60,-201.92 108.22,-183.72L112.16,-168.22C114.90,-157.43 120.71,-153.41 129.25,-155.58C137.79,-157.75 142.04,-164.57 136.90,-198.90L139.26,-199.03C144.67,-166.43 150.37,-160.95 159.58,-163.29C170.15,-165.97 169.65,-177.33 165.83,-191.43L155.39,-229.68L152.24,-228.88L161.56,-189.39C163.22,-181.91 161.99,-180.17 159.97,-179.65C157.50,-179.02 154.91,-179.80 151.82,-191.93L128.41,-284.06C125.49,-295.52 117.21,-300.83 104.18,-297.52ZM131.60,-173.64C129.35,-173.06 127.43,-174.01 126.41,-178.06L120.69,-200.53C118.30,-209.96 118.50,-215.76 125.93,-227.93L130.50,-209.96C135.75,-189.28 136.54,-174.89 131.60,-173.64ZM201.11,-286.99C197.45,-301.37 186.80,-307.51 174.04,-305.95L173.36,-308.64C183.98,-311.10 192.64,-309.96 210.41,-294.62L203.85,-320.46L171.49,-312.23C158.23,-308.86 149.11,-297.69 154.71,-275.67L167.90,-223.77C170.81,-212.31 175.56,-205.86 181.98,-203.19C179.36,-197.50 174.27,-190.22 176.22,-182.58C177.70,-176.74 182.04,-174.74 187.55,-174.70L187.89,-173.35C182.51,-169.11 178.88,-162.69 180.94,-154.60C182.65,-147.86 189.81,-142.26 203.30,-145.69C221.95,-150.43 238.78,-174.56 235.75,-186.47C233.41,-195.69 225.69,-198.75 211.76,-195.21L187.94,-189.15C183.67,-188.07 182.04,-188.85 181.52,-190.87C180.95,-193.12 183.13,-197.74 186.03,-202.30C189.07,-201.64 192.56,-202.05 196.38,-203.02C209.64,-206.39 218.81,-217.33 213.45,-238.46ZM172.68,-296.27C177.17,-297.41 182.07,-296.03 186.18,-279.85L198.46,-231.54C200.46,-223.67 200.59,-218.44 195.65,-217.19C190.93,-215.99 186.26,-217.43 182.14,-233.61L169.86,-281.92C167.87,-289.78 167.73,-295.01 172.68,-296.27ZM191.24,-166.79C190.61,-169.26 191.16,-171.79 194.30,-174.50L215.64,-179.93C223.28,-181.87 225.88,-179.18 227.25,-173.79C228.39,-169.29 224.58,-166.41 214.25,-163.78C196.72,-159.33 192.38,-162.29 191.24,-166.79ZM234.06,-330.53C219.91,-326.93 213.07,-307.73 216.67,-293.58C219.29,-283.24 223.90,-270.77 231.13,-261.13L252.70,-266.61C229.54,-280.58 223.60,-287.92 221.21,-297.36C219.21,-305.23 220.87,-310.91 232.56,-313.88C239.97,-315.77 242.22,-314.43 244.05,-307.24L254.62,-265.67C241.09,-244.53 233.48,-234.94 238.11,-216.74L242.05,-201.23C244.79,-190.45 250.60,-186.42 259.14,-188.59C267.68,-190.76 271.92,-197.58 266.78,-231.92L269.15,-232.04C274.56,-199.45 280.26,-193.96 289.47,-196.30C300.03,-198.99 299.54,-210.34 295.72,-224.44L285.28,-262.69L282.13,-261.89L291.45,-222.40C293.11,-214.93 291.88,-213.18 289.86,-212.67C287.39,-212.04 284.80,-212.82 281.71,-224.95L258.30,-317.08C255.38,-328.53 247.10,-333.84 234.06,-330.53ZM261.49,-206.65C259.24,-206.08 257.32,-207.03 256.29,-211.07L250.58,-233.54C248.18,-242.98 248.39,-248.77 255.82,-260.95L260.39,-242.97C265.64,-222.30 266.43,-207.91 261.49,-206.65ZM305.99,-202.89L353.62,-215.00L349.05,-232.98L322.92,-215.33L321.40,-216.62L318.01,-349.48L276.89,-339.02L281.45,-321.05L301.13,-336.81L303.16,-335.42ZM322.04,-369.40L345.85,-375.45L342.94,-386.91L319.12,-380.86ZM346.32,-356.67L330.59,-352.68L364.86,-217.86L380.59,-221.85ZM377.78,-364.67L362.05,-360.67L396.32,-225.85L412.05,-229.85L390.35,-315.24C385.04,-336.13 385.81,-352.84 392.11,-354.44C396.38,-355.52 398.41,-352.21 400.47,-344.12L428.45,-234.02L444.18,-238.02L413.97,-356.88C411.11,-368.12 403.28,-373.54 394.96,-371.43C386.42,-369.26 380.21,-361.70 384.06,-326.80L381.70,-326.67L378.41,-362.20ZM474.51,-363.42C469.54,-382.97 461.26,-388.28 448.90,-385.14C435.42,-381.71 427.19,-370.77 432.85,-348.52L453.81,-266.06C458.72,-246.74 467.46,-241.54 481.16,-245.03C496.22,-248.85 499.30,-266.86 493.42,-288.09L485.89,-314.88L482.75,-314.08L488.75,-287.62C491.96,-273.13 491.21,-263.85 484.47,-262.13C478.18,-260.53 471.71,-261.52 467.59,-277.70L456.69,-320.62L483.65,-327.47ZM462.91,-352.58L469.37,-327.19L455.89,-323.76L448.00,-354.77C445.95,-362.86 445.82,-368.09 451.21,-369.46C455.70,-370.60 458.75,-368.98 462.91,-352.58Z" fill="#ffffff" stroke="#000000"/>
    <path d="M-656.43,-100.89L-672.92,-95.97L-624.97,64.47L-584.75,52.45L-589.02,38.16L-612.76,45.26ZM-552.88,45.32C-539.92,41.44 -531.36,30.03 -537.79,8.49L-561.96,-72.39C-567.61,-91.29 -576.90,-95.93 -590.97,-91.73C-603.93,-87.85 -612.49,-76.44 -606.05,-54.90L-581.89,25.98C-576.24,44.88 -566.73,49.46 -552.88,45.32ZM-589.14,-76.00C-584.74,-77.31 -579.84,-76.14 -575.11,-60.32L-552.52,15.28C-550.22,22.98 -549.88,28.14 -554.71,29.59C-559.33,30.96 -564.01,29.73 -568.73,13.91L-591.33,-61.70C-593.63,-69.39 -593.97,-74.55 -589.14,-76.00ZM-545.69,-102.87L-562.39,-97.87L-501.01,27.42L-494.85,25.58L-510.47,-61.92L-508.05,-62.64L-468.04,17.57L-461.89,15.73L-478.66,-122.90L-496.68,-117.51L-473.42,-26.07L-475.84,-25.35L-494.03,-67.79L-514.92,-112.06L-524.37,-109.24L-507.49,-15.89L-509.90,-15.17L-525.24,-58.46ZM-441.42,-68.25L-409.66,-127.08L-398.63,-90.19L-287.84,-123.30L-282.85,-106.59L-393.64,-73.48L-382.58,-36.48ZM-289.37,-210.59L-285.10,-196.30L-266.86,-201.75L-223.19,-55.60L-206.70,-60.53L-250.38,-206.68L-232.14,-212.13L-236.41,-226.41ZM-170.22,-189.22C-175.94,-208.34 -184.35,-213.24 -196.43,-209.63C-209.62,-205.69 -217.30,-194.54 -210.80,-172.78L-186.69,-92.12C-181.05,-73.22 -172.20,-68.45 -158.79,-72.45C-144.07,-76.85 -141.76,-94.78 -148.44,-115.53L-156.98,-141.70L-160.06,-140.78L-153.03,-114.87C-149.27,-100.68 -149.63,-91.47 -156.22,-89.50C-162.38,-87.66 -168.81,-88.37 -173.54,-104.19L-186.09,-146.17L-159.71,-154.05ZM-181.24,-178.02L-173.82,-153.19L-187.01,-149.25L-196.07,-179.58C-198.43,-187.49 -198.78,-192.65 -193.51,-194.23C-189.11,-195.54 -186.04,-194.07 -181.24,-178.02ZM-121.18,-209.38C-119.47,-203.66 -120.71,-194.20 -126.21,-164.54L-109.51,-169.53C-111.62,-190.21 -115.36,-205.13 -117.07,-210.85C-121.21,-224.69 -128.74,-229.86 -140.17,-226.45C-152.25,-222.84 -160.15,-211.62 -153.65,-189.86L-129.55,-109.20C-123.90,-90.30 -115.71,-85.33 -103.84,-88.87C-90.65,-92.82 -89.01,-110.54 -95.69,-131.29L-104.30,-157.69L-107.37,-156.77L-100.28,-130.64C-96.52,-116.44 -96.22,-107.43 -101.27,-105.92C-106.33,-104.41 -111.67,-105.45 -116.40,-121.27L-138.92,-196.65C-141.29,-204.57 -141.41,-209.80 -134.82,-211.77C-126.47,-214.26 -122.43,-213.55 -121.18,-209.38ZM-101.45,-266.75L-116.83,-262.15L-68.89,-101.71L-53.51,-106.31L-78.40,-189.61C-84.57,-210.26 -84.49,-226.81 -78.33,-228.65C-74.16,-229.89 -72.01,-226.71 -69.64,-218.79L-37.46,-111.11L-22.08,-115.70L-56.82,-231.96C-60.10,-242.95 -68.07,-247.99 -76.21,-245.56C-84.56,-243.07 -90.39,-235.34 -85.15,-200.99L-87.48,-200.78L-92.19,-235.76ZM-6.06,-295.25L-22.54,-290.33L23.21,-129.24L40.57,-134.42L0.35,-247.37L2.55,-248.03L51.79,-149.75L56.84,-151.26L39.91,-259.19L42.33,-259.92L73.75,-144.34L90.68,-149.40L40.53,-309.18L26.69,-305.04L45.01,-197.28L42.59,-196.55ZM86.22,-294.10C72.38,-289.96 66.40,-270.70 70.54,-256.86C73.56,-246.75 78.62,-234.61 86.17,-225.38L107.27,-231.68C83.80,-244.54 77.63,-251.55 74.87,-260.78C72.57,-268.48 73.99,-274.17 85.41,-277.58C92.67,-279.75 94.95,-278.52 97.05,-271.48L109.20,-230.82C96.70,-209.37 89.57,-199.58 94.89,-181.78L99.42,-166.62C102.58,-156.07 108.48,-152.33 116.83,-154.82C125.19,-157.32 129.10,-164.23 122.61,-197.96L124.94,-198.18C131.63,-166.19 137.49,-160.99 146.50,-163.69C156.83,-166.77 155.88,-177.98 151.52,-191.76L139.63,-229.14L136.55,-228.23L147.39,-189.57C149.34,-182.25 148.19,-180.47 146.21,-179.88C143.80,-179.16 141.20,-179.82 137.66,-191.69L110.73,-281.79C107.38,-293.00 98.97,-297.91 86.22,-294.10ZM118.41,-172.77C116.22,-172.11 114.28,-172.97 113.10,-176.93L106.53,-198.90C103.77,-208.14 103.74,-213.87 110.58,-226.21L115.84,-208.63C121.88,-188.41 123.25,-174.21 118.41,-172.77ZM182.48,-287.67C178.27,-301.74 167.49,-307.38 154.94,-305.30L154.16,-307.94C164.55,-310.81 173.16,-310.03 191.36,-295.60L183.81,-320.87L152.16,-311.41C139.19,-307.54 130.63,-296.12 137.07,-274.58L152.24,-223.82C155.59,-212.61 160.55,-206.43 167.01,-204.05C164.65,-198.32 159.92,-190.92 162.15,-183.45C163.86,-177.73 168.23,-175.93 173.68,-176.12L174.07,-174.80C168.93,-170.39 165.60,-163.89 167.97,-155.98C169.94,-149.38 177.25,-144.15 190.43,-148.09C208.68,-153.54 224.32,-178.09 220.84,-189.73C218.15,-198.74 210.40,-201.45 196.77,-197.38L173.47,-190.42C169.30,-189.17 167.65,-189.88 167.06,-191.86C166.40,-194.05 168.36,-198.71 171.05,-203.34C174.08,-202.81 177.51,-203.36 181.24,-204.47C194.21,-208.35 202.84,-219.54 196.66,-240.20ZM153.99,-295.68C158.38,-296.99 163.28,-295.82 168.01,-280.00L182.13,-232.75C184.43,-225.06 184.78,-219.89 179.94,-218.45C175.33,-217.07 170.65,-218.30 165.92,-234.13L151.80,-281.38C149.50,-289.07 149.15,-294.23 153.99,-295.68ZM177.65,-168.45C176.92,-170.86 177.37,-173.39 180.36,-176.20L201.24,-182.44C208.71,-184.67 211.39,-182.12 212.96,-176.85C214.28,-172.45 210.63,-169.44 200.52,-166.42C183.37,-161.30 178.96,-164.05 177.65,-168.45ZM213.27,-332.07C199.42,-327.93 193.45,-308.67 197.58,-294.82C200.60,-284.71 205.67,-272.58 213.21,-263.34L234.31,-269.65C210.84,-282.50 204.67,-289.52 201.91,-298.75C199.62,-306.44 201.03,-312.13 212.46,-315.55C219.71,-317.71 221.99,-316.48 224.09,-309.45L236.24,-268.79C223.74,-247.34 216.61,-237.55 221.93,-219.75L226.47,-204.58C229.62,-194.03 235.52,-190.29 243.88,-192.79C252.23,-195.28 256.14,-202.20 249.66,-235.93L251.98,-236.15C258.67,-204.15 264.53,-198.96 273.54,-201.65C283.87,-204.74 282.92,-215.95 278.56,-229.73L266.67,-267.11L263.60,-266.19L274.43,-227.53C276.38,-220.21 275.23,-218.44 273.25,-217.85C270.84,-217.12 268.25,-217.78 264.70,-229.65L237.77,-319.76C234.42,-330.97 226.01,-335.88 213.27,-332.07ZM245.45,-210.73C243.26,-210.08 241.32,-210.94 240.14,-214.89L233.57,-236.87C230.82,-246.10 230.78,-251.83 237.62,-264.17L242.88,-246.59C248.92,-226.37 250.29,-212.18 245.45,-210.73ZM289.60,-208.84L336.19,-222.77L330.94,-240.35L305.83,-221.83L304.27,-223.04L295.46,-354.24L255.25,-342.22L260.50,-324.64L279.30,-341.03L281.37,-339.73ZM298.63,-374.10L321.93,-381.06L318.58,-392.27L295.28,-385.31ZM323.16,-362.51L307.78,-357.92L347.18,-226.05L362.57,-230.65ZM353.93,-371.71L338.55,-367.11L377.95,-235.25L393.34,-239.85L368.38,-323.36C362.27,-343.80 362.36,-360.34 368.51,-362.18C372.69,-363.43 374.84,-360.24 377.20,-352.33L409.38,-244.64L424.77,-249.24L390.02,-365.50C386.74,-376.49 378.77,-381.53 370.64,-379.10C362.29,-376.60 356.46,-368.87 361.69,-334.53L359.36,-334.31L354.65,-369.29ZM449.60,-374.44C443.89,-393.56 435.48,-398.47 423.39,-394.86C410.20,-390.92 402.52,-379.77 409.03,-358.01L433.13,-277.35C438.78,-258.45 447.63,-253.68 461.03,-257.68C475.76,-262.08 478.06,-280.01 471.38,-300.75L462.84,-326.93L459.77,-326.01L466.79,-300.10C470.55,-285.90 470.19,-276.70 463.60,-274.73C457.45,-272.89 451.01,-273.60 446.28,-289.42L433.74,-331.40L460.11,-339.28ZM438.58,-363.25L446.00,-338.42L432.82,-334.48L423.75,-364.81C421.39,-372.72 421.04,-377.88 426.32,-379.46C430.71,-380.77 433.79,-379.29 438.58,-363.25Z" fill="#ffffff" stroke="#000000"/>
    <path d="M-657.27,-68.38L-673.36,-62.84L-619.39,93.77L-580.14,80.24L-584.94,66.29L-608.11,74.28ZM-548.93,71.88C-536.27,67.52 -528.28,55.89 -535.53,34.86L-562.73,-44.08C-569.09,-62.53 -578.46,-66.74 -592.19,-62.01C-604.85,-57.65 -612.84,-46.02 -605.59,-24.99L-578.39,53.95C-572.03,72.40 -562.44,76.54 -548.93,71.88ZM-589.74,-46.54C-585.45,-48.02 -580.56,-47.06 -575.24,-31.61L-549.80,42.18C-547.22,49.69 -546.66,54.78 -551.38,56.41C-555.89,57.96 -560.56,56.93 -565.88,41.49L-591.32,-32.31C-593.90,-39.82 -594.46,-44.91 -589.74,-46.54ZM-547.90,-74.88L-564.20,-69.26L-498.39,52.07L-492.38,50.00L-511.41,-35.85L-509.05,-36.66L-466.21,40.98L-460.20,38.91L-482.47,-97.43L-500.06,-91.36L-473.32,-1.94L-475.68,-1.12L-495.40,-42.33L-517.86,-85.23L-527.09,-82.05L-506.57,9.52L-508.93,10.34L-525.86,-31.83ZM-443.42,-44.94L-414.44,-104.39L-402.02,-68.38L-293.88,-105.65L-288.26,-89.34L-396.40,-52.07L-383.96,-15.96ZM-298.97,-191.86L-294.17,-177.92L-276.36,-184.05L-227.20,-41.39L-211.11,-46.94L-260.27,-189.60L-242.47,-195.74L-247.27,-209.68ZM-180.33,-175.63C-186.76,-194.29 -195.28,-198.80 -207.07,-194.73C-219.95,-190.30 -227.08,-178.96 -219.76,-157.72L-192.63,-78.99C-186.27,-60.54 -177.33,-56.18 -164.24,-60.69C-149.87,-65.64 -148.32,-83.46 -155.78,-103.69L-165.29,-129.21L-168.30,-128.17L-160.29,-102.85C-155.99,-88.98 -155.97,-79.86 -162.40,-77.64C-168.41,-75.57 -174.80,-76.01 -180.12,-91.46L-194.24,-132.43L-168.50,-141.30ZM-190.76,-164.11L-182.41,-139.87L-195.28,-135.44L-205.48,-165.04C-208.14,-172.76 -208.70,-177.85 -203.55,-179.63C-199.26,-181.11 -196.16,-179.77 -190.76,-164.11ZM-132.68,-197.57C-130.76,-191.99 -131.60,-182.58 -135.82,-153.05L-119.52,-158.67C-122.45,-179.02 -126.76,-193.61 -128.68,-199.19C-133.34,-212.70 -140.99,-217.51 -152.15,-213.66C-163.95,-209.60 -171.30,-198.18 -163.98,-176.94L-136.84,-98.21C-130.49,-79.76 -122.19,-75.18 -110.60,-79.18C-97.73,-83.61 -96.83,-101.20 -104.28,-121.43L-113.87,-147.17L-116.88,-146.13L-108.80,-120.60C-104.49,-106.72 -103.83,-97.83 -108.76,-96.13C-113.70,-94.43 -119.02,-95.24 -124.34,-110.68L-149.70,-184.26C-152.36,-191.99 -152.70,-197.15 -146.26,-199.37C-138.11,-202.18 -134.09,-201.65 -132.68,-197.57ZM-115.54,-255.08L-130.55,-249.90L-76.58,-93.30L-61.57,-98.47L-89.59,-179.78C-96.54,-199.95 -97.13,-216.30 -91.12,-218.37C-87.05,-219.78 -84.79,-216.71 -82.13,-208.99L-45.90,-103.87L-30.89,-109.05L-70.00,-222.53C-73.69,-233.26 -81.78,-237.91 -89.72,-235.18C-97.87,-232.37 -103.31,-224.49 -96.73,-190.76L-99.02,-190.45L-105.11,-224.83ZM-22.42,-287.17L-38.51,-281.62L13.31,-124.28L30.26,-130.12L-14.12,-240.11L-11.98,-240.85L40.72,-145.73L45.66,-147.43L24.49,-253.42L26.85,-254.23L62.66,-141.28L79.17,-146.98L23.06,-302.84L9.54,-298.19L32.07,-192.43L29.71,-191.61ZM68.84,-289.82C55.32,-285.16 50.21,-265.88 54.86,-252.36C58.27,-242.49 63.77,-230.71 71.61,-221.89L92.20,-228.99C68.47,-240.73 62.09,-247.41 58.99,-256.42C56.40,-263.93 57.56,-269.61 68.72,-273.46C75.80,-275.90 78.10,-274.77 80.47,-267.91L94.15,-228.22C82.67,-206.50 76.03,-196.53 82.01,-179.16L87.11,-164.35C90.66,-154.06 96.65,-150.60 104.81,-153.41C112.96,-156.22 116.55,-163.22 108.75,-196.29L111.04,-196.60C118.97,-165.25 124.97,-160.36 133.77,-163.39C143.85,-166.87 142.45,-177.90 137.58,-191.34L124.29,-227.81L121.29,-226.77L133.58,-189.01C135.81,-181.85 134.75,-180.05 132.82,-179.38C130.46,-178.57 127.87,-179.12 123.88,-190.70L93.56,-278.66C89.79,-289.60 81.28,-294.11 68.84,-289.82ZM105.63,-171.21C103.49,-170.48 101.54,-171.25 100.21,-175.11L92.82,-196.56C89.71,-205.57 89.44,-211.24 95.70,-223.71L101.61,-206.55C108.42,-186.81 110.35,-172.84 105.63,-171.21ZM164.24,-287.41C159.50,-301.14 148.62,-306.27 136.30,-303.71L135.41,-306.28C145.57,-309.54 154.11,-309.13 172.69,-295.61L164.19,-320.28L133.30,-309.63C120.64,-305.27 112.65,-293.64 119.90,-272.61L136.97,-223.06C140.74,-212.12 145.90,-206.21 152.38,-204.13C150.28,-198.36 145.91,-190.86 148.42,-183.56C150.35,-177.98 154.74,-176.38 160.12,-176.79L160.56,-175.50C155.66,-170.93 152.64,-164.37 155.30,-156.65C157.52,-150.21 164.96,-145.34 177.83,-149.77C195.63,-155.91 210.09,-180.81 206.17,-192.18C203.14,-200.98 195.37,-203.34 182.07,-198.76L159.33,-190.92C155.25,-189.52 153.60,-190.14 152.93,-192.08C152.19,-194.22 153.94,-198.90 156.40,-203.59C159.42,-203.19 162.79,-203.87 166.43,-205.13C179.09,-209.49 187.15,-220.91 180.21,-241.08ZM135.75,-294.16C140.04,-295.64 144.93,-294.68 150.25,-279.24L166.15,-233.11C168.74,-225.60 169.29,-220.51 164.57,-218.89C160.07,-217.34 155.39,-218.36 150.07,-233.81L134.17,-279.93C131.59,-287.44 131.03,-292.53 135.75,-294.16ZM164.36,-169.37C163.54,-171.73 163.88,-174.25 166.72,-177.15L187.10,-184.17C194.39,-186.68 197.14,-184.27 198.92,-179.12C200.39,-174.83 196.91,-171.71 187.04,-168.31C170.31,-162.54 165.83,-165.08 164.36,-169.37ZM192.85,-332.56C179.33,-327.90 174.22,-308.61 178.87,-295.10C182.28,-285.23 187.78,-273.45 195.62,-264.63L216.21,-271.73C192.48,-283.47 186.10,-290.15 183.00,-299.16C180.41,-306.67 181.57,-312.35 192.73,-316.19C199.81,-318.63 202.11,-317.51 204.48,-310.64L218.16,-270.96C206.68,-249.24 200.04,-239.27 206.02,-221.89L211.12,-207.09C214.67,-196.79 220.66,-193.34 228.82,-196.15C236.97,-198.96 240.56,-205.95 232.76,-239.03L235.05,-239.34C242.98,-207.99 248.98,-203.10 257.78,-206.13C267.86,-209.60 266.46,-220.64 261.59,-234.08L248.30,-270.54L245.30,-269.51L257.59,-231.74C259.82,-224.59 258.76,-222.79 256.83,-222.12C254.47,-221.31 251.88,-221.86 247.89,-233.44L217.57,-321.40C213.80,-332.34 205.29,-336.84 192.85,-332.56ZM229.64,-213.95C227.50,-213.21 225.55,-213.98 224.22,-217.84L216.83,-239.30C213.72,-248.31 213.45,-253.97 219.71,-266.45L225.62,-249.29C232.43,-229.55 234.36,-215.58 229.64,-213.95ZM273.35,-213.89L318.83,-229.57L312.91,-246.73L288.86,-227.40L287.27,-228.53L273.18,-357.84L233.92,-344.31L239.84,-327.15L257.75,-344.12L259.84,-342.92ZM275.50,-377.60L298.24,-385.44L294.47,-396.38L271.73,-388.54ZM300.22,-367.16L285.20,-361.98L329.56,-233.27L344.58,-238.44ZM330.26,-377.51L315.24,-372.33L359.60,-243.62L374.61,-248.79L346.52,-330.31C339.65,-350.26 339.05,-366.62 345.06,-368.69C349.13,-370.09 351.39,-367.03 354.05,-359.31L390.28,-254.19L405.29,-259.37L366.18,-372.85C362.49,-383.58 354.40,-388.23 346.46,-385.50C338.31,-382.69 332.87,-374.81 339.45,-341.08L337.16,-340.77L331.07,-375.15ZM424.70,-384.14C418.27,-402.80 409.76,-407.31 397.96,-403.24C385.09,-398.81 377.95,-387.47 385.27,-366.23L412.40,-287.50C418.76,-269.05 427.71,-264.69 440.79,-269.20C455.16,-274.15 456.71,-291.96 449.25,-312.20L439.74,-337.72L436.74,-336.68L444.74,-311.36C449.04,-297.48 449.06,-288.37 442.63,-286.15C436.62,-284.08 430.23,-284.52 424.91,-299.97L410.79,-340.94L436.53,-349.81ZM414.27,-372.62L422.62,-348.38L409.75,-343.94L399.55,-373.55C396.89,-381.27 396.33,-386.36 401.48,-388.14C405.77,-389.61 408.87,-388.28 414.27,-372.62Z" fill="#ffffff" stroke="#000000"/>
    <path d="M-656.46,-36.09L-672.14,-29.95L-612.38,122.61L-574.13,107.63L-579.45,94.05L-602.02,102.89ZM-543.63,98.09C-531.30,93.26 -523.88,81.44 -531.91,60.96L-562.03,-15.95C-569.07,-33.92 -578.51,-37.70 -591.88,-32.46C-604.21,-27.63 -611.63,-15.80 -603.61,4.68L-573.48,81.58C-566.44,99.55 -556.80,103.25 -543.63,98.09ZM-588.82,-17.27C-584.64,-18.90 -579.77,-18.16 -573.88,-3.11L-545.72,68.78C-542.85,76.09 -542.10,81.10 -546.69,82.90C-551.08,84.62 -555.74,83.79 -561.64,68.75L-589.80,-3.14C-592.66,-10.46 -593.42,-15.46 -588.82,-17.27ZM-548.63,-46.99L-564.52,-40.77L-494.50,76.43L-488.65,74.14L-510.97,-9.92L-508.67,-10.82L-463.15,64.15L-457.30,61.86L-484.90,-71.96L-502.03,-65.25L-471.94,22.04L-474.24,22.94L-495.42,-16.98L-519.38,-58.45L-528.36,-54.93L-504.33,34.73L-506.63,35.63L-525.09,-5.35ZM-444.15,-21.69L-417.95,-81.64L-404.20,-46.55L-298.86,-87.82L-292.63,-71.93L-397.98,-30.66L-384.20,4.52ZM-307.43,-172.82L-302.11,-159.23L-284.76,-166.03L-230.32,-27.05L-214.65,-33.19L-269.09,-172.17L-251.74,-178.96L-257.06,-192.55ZM-189.51,-161.64C-196.63,-179.82 -205.23,-183.93 -216.72,-179.42C-229.26,-174.51 -235.85,-163.01 -227.74,-142.32L-197.70,-65.63C-190.66,-47.65 -181.64,-43.71 -168.89,-48.71C-154.89,-54.19 -154.10,-71.86 -162.29,-91.55L-172.74,-116.38L-175.67,-115.23L-166.72,-90.54C-161.90,-77.00 -161.50,-67.99 -167.77,-65.54C-173.62,-63.25 -179.96,-63.42 -185.85,-78.46L-201.49,-118.38L-176.41,-128.20ZM-199.35,-149.83L-190.10,-126.22L-202.63,-121.30L-213.93,-150.14C-216.88,-157.67 -217.64,-162.67 -212.62,-164.64C-208.44,-166.28 -205.32,-165.09 -199.35,-149.83ZM-143.32,-185.28C-141.19,-179.84 -141.63,-170.51 -144.59,-141.15L-128.71,-147.37C-132.45,-167.36 -137.30,-181.61 -139.43,-187.04C-144.59,-200.21 -152.35,-204.64 -163.22,-200.38C-174.71,-195.88 -181.51,-184.30 -173.40,-163.61L-143.36,-86.91C-136.32,-68.94 -127.93,-64.76 -116.64,-69.18C-104.10,-74.09 -103.94,-91.51 -112.13,-111.20L-122.66,-136.24L-125.59,-135.09L-116.56,-110.19C-111.74,-96.65 -110.71,-87.89 -115.52,-86.01C-120.33,-84.12 -125.62,-84.70 -131.51,-99.75L-159.59,-171.43C-162.54,-178.95 -163.09,-184.04 -156.82,-186.50C-148.87,-189.61 -144.88,-189.25 -143.32,-185.28ZM-128.73,-242.82L-143.36,-237.09L-83.60,-84.53L-68.97,-90.26L-100.00,-169.47C-107.69,-189.11 -108.95,-205.25 -103.10,-207.54C-99.13,-209.10 -96.78,-206.16 -93.83,-198.64L-53.72,-96.24L-39.09,-101.97L-82.39,-212.52C-86.49,-222.97 -94.67,-227.24 -102.40,-224.21C-110.34,-221.10 -115.40,-213.09 -107.51,-180.02L-109.76,-179.62L-117.19,-213.35ZM-38.03,-278.35L-53.70,-272.21L3.97,-118.84L20.48,-125.30L-27.90,-232.18L-25.81,-233.00L30.18,-141.16L34.99,-143.04L9.72,-246.92L12.02,-247.82L52.04,-137.66L68.13,-143.97L6.28,-295.71L-6.89,-290.55L19.71,-186.95L17.41,-186.05ZM52.05,-284.71C38.89,-279.55 34.62,-260.29 39.78,-247.12C43.55,-237.51 49.47,-226.09 57.58,-217.69L77.64,-225.55C53.71,-236.19 47.13,-242.53 43.69,-251.30C40.82,-258.62 41.74,-264.28 52.60,-268.54C59.50,-271.24 61.83,-270.22 64.45,-263.53L79.59,-224.87C69.14,-202.94 62.98,-192.81 69.61,-175.89L75.26,-161.47C79.19,-151.44 85.26,-148.27 93.20,-151.38C101.14,-154.49 104.40,-161.55 95.33,-193.92L97.59,-194.32C106.71,-163.66 112.84,-159.07 121.41,-162.43C131.23,-166.28 129.39,-177.13 124.03,-190.21L109.40,-225.70L106.47,-224.56L120.17,-187.74C122.67,-180.76 121.69,-178.93 119.81,-178.20C117.51,-177.30 114.93,-177.73 110.51,-189.02L76.95,-274.70C72.77,-285.36 64.17,-289.46 52.05,-284.71ZM93.28,-169.01C91.19,-168.19 89.24,-168.87 87.76,-172.63L79.58,-193.53C76.14,-202.31 75.64,-207.90 81.31,-220.48L87.86,-203.77C95.39,-184.54 97.88,-170.81 93.28,-169.01ZM146.43,-286.25C141.19,-299.62 130.22,-304.25 118.16,-301.21L117.17,-303.71C127.08,-307.35 135.54,-307.29 154.45,-294.69L145.04,-318.73L114.95,-306.94C102.62,-302.11 95.20,-290.28 103.22,-269.80L122.13,-221.53C126.30,-210.87 131.64,-205.25 138.13,-203.45C136.30,-197.67 132.28,-190.07 135.07,-182.97C137.20,-177.53 141.60,-176.13 146.90,-176.75L147.39,-175.50C142.73,-170.78 140.02,-164.18 142.96,-156.65C145.42,-150.38 152.97,-145.87 165.51,-150.78C182.86,-157.58 196.13,-182.78 191.79,-193.86C188.43,-202.42 180.65,-204.44 167.69,-199.36L145.54,-190.69C141.57,-189.13 139.91,-189.68 139.17,-191.56C138.35,-193.65 139.89,-198.35 142.13,-203.09C145.13,-202.82 148.43,-203.63 151.98,-205.02C164.31,-209.85 171.81,-221.47 164.12,-241.11ZM118.00,-291.75C122.18,-293.38 127.06,-292.64 132.95,-277.59L150.55,-232.66C153.42,-225.35 154.17,-220.34 149.57,-218.54C145.19,-216.82 140.52,-217.65 134.63,-232.69L117.03,-277.62C114.16,-284.94 113.41,-289.94 118.00,-291.75ZM151.39,-169.60C150.49,-171.89 150.72,-174.39 153.41,-177.38L173.26,-185.15C180.37,-187.94 183.18,-185.67 185.15,-180.65C186.79,-176.47 183.47,-173.24 173.86,-169.48C157.56,-163.09 153.03,-165.42 151.39,-169.60ZM172.86,-332.04C159.69,-326.88 155.43,-307.61 160.58,-294.45C164.35,-284.83 170.27,-273.41 178.38,-265.02L198.44,-272.88C174.51,-283.51 167.93,-289.85 164.49,-298.63C161.63,-305.94 162.54,-311.60 173.41,-315.86C180.30,-318.56 182.63,-317.54 185.25,-310.86L200.40,-272.20C189.94,-250.26 183.79,-240.14 190.42,-223.21L196.07,-208.79C200.00,-198.76 206.06,-195.59 214.00,-198.70C221.94,-201.81 225.20,-208.87 216.14,-241.24L218.39,-241.64C227.51,-210.98 233.64,-206.40 242.21,-209.75C252.03,-213.60 250.20,-224.45 244.83,-237.53L230.20,-273.02L227.28,-271.88L240.98,-235.06C243.47,-228.08 242.50,-226.26 240.62,-225.52C238.32,-224.62 235.74,-225.05 231.32,-236.34L197.75,-322.02C193.58,-332.68 184.98,-336.78 172.86,-332.04ZM214.08,-216.33C211.99,-215.51 210.04,-216.19 208.57,-219.95L200.38,-240.85C196.94,-249.63 196.44,-255.22 202.12,-267.81L208.66,-251.09C216.20,-231.86 218.68,-218.13 214.08,-216.33ZM257.28,-218.07L301.59,-235.42L295.04,-252.14L272.05,-232.05L270.44,-233.10L251.21,-360.32L212.97,-345.34L219.52,-328.62L236.52,-346.13L238.64,-345.03ZM252.69,-379.94L274.84,-388.62L270.67,-399.28L248.52,-390.60ZM277.55,-370.64L262.92,-364.91L312.04,-239.52L326.67,-245.25ZM306.81,-382.10L292.18,-376.37L341.30,-250.98L355.93,-256.71L324.82,-336.12C317.21,-355.56 315.95,-371.70 321.80,-373.99C325.77,-375.55 328.12,-372.61 331.07,-365.09L371.19,-262.69L385.81,-268.42L342.51,-378.97C338.41,-389.42 330.23,-393.69 322.50,-390.66C314.56,-387.55 309.50,-379.54 317.39,-346.47L315.14,-346.07L307.71,-379.80ZM399.88,-392.52C392.76,-410.71 384.16,-414.81 372.66,-410.31C360.12,-405.39 353.54,-393.90 361.64,-373.21L391.69,-296.51C398.73,-278.54 407.75,-274.60 420.49,-279.59C434.50,-285.08 435.29,-302.74 427.09,-322.43L416.64,-347.27L413.72,-346.12L422.67,-321.42C427.49,-307.88 427.88,-298.88 421.61,-296.42C415.76,-294.13 409.43,-294.30 403.53,-309.35L387.90,-349.26L412.98,-359.09ZM390.04,-380.72L399.29,-357.10L386.75,-352.19L375.45,-381.03C372.51,-388.55 371.75,-393.56 376.77,-395.52C380.95,-397.16 384.06,-395.97 390.04,-380.72Z" fill="#ffffff" stroke="#000000"/>
    <path d="M-654.03,-4.08L-669.26,2.63L-603.95,150.92L-566.77,134.55L-572.59,121.35L-594.53,131.01ZM-537.03,123.88C-525.04,118.60 -518.19,106.61 -526.96,86.70L-559.89,11.94C-567.58,-5.53 -577.06,-8.88 -590.06,-3.15C-602.05,2.13 -608.89,14.12 -600.12,34.03L-567.20,108.79C-559.51,126.26 -549.83,129.51 -537.03,123.88ZM-586.41,11.74C-582.35,9.95 -577.51,10.48 -571.07,25.11L-540.29,94.99C-537.16,102.10 -536.20,107.02 -540.67,108.99C-544.94,110.87 -549.58,110.24 -556.02,95.62L-586.80,25.73C-589.93,18.62 -590.88,13.71 -586.41,11.74ZM-547.92,-19.28L-563.36,-12.48L-489.36,100.46L-483.68,97.95L-509.18,15.81L-506.95,14.82L-458.89,87.04L-453.20,84.53L-485.96,-46.57L-502.62,-39.23L-469.30,45.78L-471.53,46.77L-494.10,8.19L-519.48,-31.81L-528.21,-27.96L-500.79,59.65L-503.02,60.63L-522.95,20.90ZM-443.64,1.44L-420.20,-58.88L-405.18,-24.77L-302.77,-69.87L-295.97,-54.43L-398.38,-9.33L-383.32,24.87ZM-314.73,-153.51L-308.92,-140.31L-292.05,-147.73L-232.56,-12.64L-217.32,-19.35L-276.82,-154.44L-259.96,-161.87L-265.77,-175.07ZM-197.75,-147.31C-205.53,-164.98 -214.20,-168.68 -225.37,-163.76C-237.56,-158.39 -243.59,-146.76 -234.74,-126.65L-201.90,-52.09C-194.21,-34.62 -185.14,-31.10 -172.74,-36.56C-159.13,-42.55 -159.07,-60.04 -167.98,-79.16L-179.33,-103.27L-182.17,-102.02L-172.31,-77.98C-166.99,-64.80 -166.23,-55.92 -172.33,-53.23C-178.02,-50.73 -184.28,-50.64 -190.72,-65.26L-207.81,-104.06L-183.43,-114.80ZM-206.99,-135.23L-196.88,-112.28L-209.06,-106.91L-221.41,-134.94C-224.63,-142.26 -225.58,-147.17 -220.71,-149.32C-216.65,-151.11 -213.52,-150.06 -206.99,-135.23ZM-153.08,-172.56C-150.75,-167.28 -150.80,-158.04 -152.53,-128.90L-137.09,-135.70C-141.60,-155.30 -146.98,-169.18 -149.31,-174.46C-154.94,-187.26 -162.80,-191.32 -173.36,-186.67C-184.53,-181.75 -190.77,-170.03 -181.91,-149.91L-149.08,-75.36C-141.38,-57.89 -132.92,-54.09 -121.95,-58.93C-109.76,-64.29 -110.31,-81.52 -119.22,-100.64L-130.65,-124.95L-133.50,-123.70L-123.55,-99.46C-118.23,-86.27 -116.86,-77.66 -121.53,-75.60C-126.21,-73.55 -131.46,-73.90 -137.90,-88.53L-168.59,-158.21C-171.81,-165.52 -172.56,-170.53 -166.46,-173.21C-158.74,-176.61 -154.78,-176.42 -153.08,-172.56ZM-141.02,-230.01L-155.24,-223.75L-89.93,-75.45L-75.71,-81.72L-109.62,-158.71C-118.03,-177.81 -119.94,-193.70 -114.25,-196.21C-110.39,-197.91 -107.94,-195.10 -104.72,-187.79L-60.88,-88.25L-46.66,-94.51L-93.99,-201.98C-98.46,-212.13 -106.72,-216.02 -114.24,-212.70C-121.96,-209.31 -126.63,-201.18 -117.47,-168.83L-119.68,-168.34L-128.41,-201.37ZM-52.85,-268.85L-68.08,-262.14L-4.80,-112.94L11.25,-120.01L-40.94,-223.64L-38.91,-224.54L20.18,-136.07L24.85,-138.13L-4.38,-239.74L-2.14,-240.73L41.92,-133.52L57.56,-140.41L-9.78,-287.82L-22.58,-282.18L7.96,-180.90L5.72,-179.92ZM35.91,-278.83C23.11,-273.19 19.68,-253.98 25.32,-241.18C29.44,-231.84 35.75,-220.79 44.11,-212.83L63.61,-221.42C39.53,-230.94 32.77,-236.94 29.01,-245.47C25.88,-252.58 26.55,-258.22 37.11,-262.87C43.82,-265.82 46.16,-264.91 49.02,-258.41L65.57,-220.83C56.14,-198.73 50.48,-188.47 57.72,-172.01L63.90,-158.00C68.19,-148.24 74.31,-145.36 82.03,-148.76C89.75,-152.16 92.68,-159.27 82.40,-190.88L84.61,-191.37C94.88,-161.45 101.13,-157.17 109.46,-160.84C119.00,-165.04 116.74,-175.69 110.90,-188.40L94.99,-222.87L92.15,-221.62L107.20,-185.80C109.95,-179.00 109.06,-177.16 107.23,-176.35C105.00,-175.37 102.43,-175.69 97.60,-186.66L60.92,-269.95C56.35,-280.32 47.69,-284.02 35.91,-278.83ZM81.39,-166.19C79.36,-165.29 77.40,-165.88 75.79,-169.54L66.84,-189.86C63.09,-198.39 62.36,-203.89 67.45,-216.56L74.61,-200.31C82.84,-181.62 85.86,-168.15 81.39,-166.19ZM129.10,-284.22C123.38,-297.22 112.35,-301.34 100.55,-297.84L99.47,-300.28C109.11,-304.28 117.48,-304.57 136.68,-292.89L126.39,-316.26L97.14,-303.37C85.16,-298.09 78.31,-286.10 87.08,-266.20L107.74,-219.27C112.31,-208.91 117.81,-203.57 124.30,-202.06C122.72,-196.27 119.07,-188.60 122.11,-181.69C124.44,-176.41 128.85,-175.20 134.06,-176.04L134.59,-174.82C130.18,-169.97 127.77,-163.33 130.99,-156.01C133.68,-149.92 141.33,-145.77 153.51,-151.14C170.38,-158.56 182.45,-184.01 177.71,-194.78C174.04,-203.11 166.27,-204.78 153.68,-199.23L132.14,-189.75C128.28,-188.05 126.62,-188.53 125.81,-190.36C124.92,-192.39 126.24,-197.09 128.26,-201.87C131.24,-201.72 134.46,-202.66 137.92,-204.18C149.90,-209.46 156.84,-221.24 148.43,-240.34ZM100.79,-288.48C104.85,-290.27 109.69,-289.74 116.14,-275.11L135.37,-231.44C138.50,-224.33 139.46,-219.41 134.99,-217.44C130.72,-215.56 126.08,-216.19 119.64,-230.81L100.40,-274.49C97.27,-281.60 96.32,-286.52 100.79,-288.48ZM138.79,-169.15C137.81,-171.38 137.93,-173.86 140.46,-176.92L159.76,-185.42C166.67,-188.46 169.55,-186.33 171.69,-181.46C173.48,-177.39 170.34,-174.07 160.99,-169.95C145.15,-162.98 140.58,-165.09 138.79,-169.15ZM153.34,-330.55C140.54,-324.91 137.12,-305.70 142.75,-292.90C146.87,-283.55 153.19,-272.51 161.54,-264.55L181.05,-273.14C156.96,-282.66 150.20,-288.66 146.44,-297.19C143.31,-304.30 143.98,-309.93 154.55,-314.59C161.25,-317.54 163.59,-316.63 166.45,-310.13L183.01,-272.55C173.58,-250.44 167.91,-240.19 175.15,-223.73L181.33,-209.71C185.62,-199.96 191.74,-197.08 199.46,-200.48C207.18,-203.88 210.11,-210.99 199.83,-242.60L202.04,-243.09C212.31,-213.17 218.56,-208.89 226.89,-212.56C236.44,-216.76 234.17,-227.41 228.33,-240.12L212.42,-274.59L209.58,-273.33L224.63,-237.51C227.38,-230.72 226.49,-228.88 224.66,-228.07C222.43,-227.09 219.86,-227.41 215.03,-238.38L178.35,-321.67C173.78,-332.03 165.12,-335.74 153.34,-330.55ZM198.82,-217.90C196.79,-217.01 194.83,-217.60 193.22,-221.26L184.28,-241.57C180.52,-250.11 179.79,-255.61 184.88,-268.28L192.04,-252.03C200.27,-233.34 203.29,-219.87 198.82,-217.90ZM241.44,-221.39L284.51,-240.36L277.35,-256.61L255.46,-235.81L253.82,-236.79L229.61,-361.71L192.43,-345.34L199.59,-329.09L215.67,-347.09L217.81,-346.09ZM230.26,-381.16L251.80,-390.65L247.23,-401.01L225.70,-391.52ZM255.21,-372.99L240.99,-366.72L294.67,-244.83L308.89,-251.10ZM283.65,-385.51L269.43,-379.25L323.11,-257.36L337.33,-263.62L303.33,-340.82C295.01,-359.71 293.11,-375.61 298.80,-378.11C302.65,-379.81 305.10,-377.01 308.32,-369.70L352.16,-270.15L366.38,-276.42L319.05,-383.88C314.58,-394.04 306.32,-397.92 298.81,-394.61C291.09,-391.21 286.42,-383.09 295.57,-350.74L293.36,-350.25L284.64,-383.28ZM375.19,-399.63C367.41,-417.30 358.74,-421.01 347.57,-416.09C335.38,-410.72 329.34,-399.09 338.20,-378.98L371.04,-304.42C378.73,-286.95 387.80,-283.42 400.19,-288.88C413.80,-294.88 413.86,-312.37 404.96,-331.49L393.61,-355.60L390.77,-354.34L400.63,-330.31C405.95,-317.13 406.70,-308.24 400.61,-305.56C394.92,-303.05 388.66,-302.96 382.21,-317.59L365.13,-356.39L389.50,-367.13ZM365.95,-387.56L376.06,-364.60L363.87,-359.23L351.53,-387.27C348.31,-394.58 347.35,-399.50 352.23,-401.65C356.29,-403.44 359.42,-402.39 365.95,-387.56Z" fill="#ffffff" stroke="#000000"/>
    <path d="M-908.57,461.18L-911.73,461.18L-911.73,492L-904.01,492L-904.01,489.26L-908.57,489.26ZM-894.09,471.23C-894.09,467.56 -895.31,466.25 -897.63,466.25C-900.16,466.25 -902.11,467.81 -902.11,471.99L-902.11,487.48C-902.11,491.11 -900.80,492.42 -898.22,492.42C-895.39,492.42 -894.04,489.38 -894.13,485.37L-894.25,480.31L-894.85,480.31L-894.97,485.25C-895.06,487.95 -895.61,489.55 -896.87,489.55C-898.05,489.55 -899.15,489.09 -899.15,486.05L-899.15,477.98L-894.09,477.98ZM-896.62,472.62L-896.62,477.39L-899.15,477.39L-899.15,471.57C-899.15,470.05 -898.94,469.12 -897.93,469.12C-897.08,469.12 -896.62,469.54 -896.62,472.62ZM-887.96,461.18L-891.13,461.18L-891.55,492L-888.22,492L-889.36,469.96L-888.93,469.96L-885.43,489.89L-884.46,489.89L-881.76,469.96L-881.29,469.96L-881.84,492L-878.59,492L-879.01,461.18L-881.67,461.18L-884.12,481.15L-884.59,481.15ZM-870.02,492L-867.06,492L-867.06,466.67L-870.02,466.67L-870.02,482.71C-870.02,486.64 -870.91,489.55 -872.09,489.55C-872.89,489.55 -873.10,488.88 -873.10,487.36L-873.10,466.67L-876.06,466.67L-876.06,489.00C-876.06,491.11 -874.92,492.42 -873.35,492.42C-871.75,492.42 -870.31,491.37 -869.43,485.03L-869.01,485.12L-870.02,491.54ZM-858.32,469.37C-857.56,469.37 -857.18,469.71 -857.18,470.47C-857.18,471.23 -858.07,473.04 -860.48,478.11L-857.27,478.11C-856.55,474.35 -856.42,471.52 -856.42,470.43C-856.42,467.64 -857.06,466.25 -858.32,466.25C-859.76,466.25 -860.81,467.30 -861.70,473.64L-862.12,473.55L-861.19,467.13L-861.19,466.67L-864.11,466.67L-864.11,492L-861.15,492L-861.15,475.87C-861.15,471.61 -859.67,469.37 -858.32,469.37ZM-846.97,473.64L-846.37,469.50C-846.08,467.39 -847.09,466.25 -848.44,466.25C-849.96,466.25 -851.27,467.30 -852.16,473.64L-852.58,473.55L-851.57,467.13L-851.57,466.67L-854.52,466.67L-854.52,492L-851.57,492L-851.57,475.96C-851.57,472.12 -850.68,469.12 -849.71,469.12C-849.08,469.12 -848.91,469.79 -848.91,471.31L-848.91,492L-845.95,492L-845.95,475.96C-845.95,472.12 -845.07,469.12 -844.09,469.12C-843.46,469.12 -843.29,469.79 -843.29,471.31L-843.29,492L-840.34,492L-840.34,469.67C-840.34,467.56 -841.39,466.25 -842.83,466.25C-844.35,466.25 -845.66,467.30 -846.54,473.72ZM-831.34,492L-828.39,492L-828.39,466.67L-831.34,466.67L-831.34,482.71C-831.34,486.64 -832.23,489.55 -833.41,489.55C-834.21,489.55 -834.42,488.88 -834.42,487.36L-834.42,466.67L-837.38,466.67L-837.38,489.00C-837.38,491.11 -836.24,492.42 -834.68,492.42C-833.07,492.42 -831.64,491.37 -830.75,485.03L-830.33,485.12L-831.34,491.54ZM-819.65,469.37C-818.89,469.37 -818.51,469.71 -818.51,470.47C-818.51,471.23 -819.39,473.04 -821.80,478.11L-818.59,478.11C-817.87,474.35 -817.75,471.52 -817.75,470.43C-817.75,467.64 -818.38,466.25 -819.65,466.25C-821.08,466.25 -822.14,467.30 -823.02,473.64L-823.45,473.55L-822.52,467.13L-822.52,466.67L-825.43,466.67L-825.43,492L-822.48,492L-822.48,475.87C-822.48,471.61 -821.00,469.37 -819.65,469.37ZM-807.83,471.23C-807.83,467.56 -809.05,466.25 -811.37,466.25C-813.90,466.25 -815.85,467.81 -815.85,471.99L-815.85,487.48C-815.85,491.11 -814.54,492.42 -811.96,492.42C-809.13,492.42 -807.78,489.38 -807.87,485.37L-807.99,480.31L-808.59,480.31L-808.71,485.25C-808.80,487.95 -809.35,489.55 -810.61,489.55C-811.79,489.55 -812.89,489.09 -812.89,486.05L-812.89,477.98L-807.83,477.98ZM-810.36,472.62L-810.36,477.39L-812.89,477.39L-812.89,471.57C-812.89,470.05 -812.68,469.12 -811.67,469.12C-810.82,469.12 -810.36,469.54 -810.36,472.62ZM-805.50,478.74L-798.41,478.74L-798.41,477.35L-805.50,477.35ZM-796.30,492L-793.13,492L-793.13,480.85C-791.82,480.26 -791.11,480.81 -790.94,481.87L-789.33,492L-786.12,492L-788.49,479.80L-791.06,480.14L-791.11,479.63C-788.66,478.49 -786.76,476.97 -786.76,473.64L-786.76,466.50C-786.76,462.66 -788.87,461.18 -792.50,461.18L-796.30,461.18ZM-792.33,479.38L-793.13,479.71L-793.13,464.05L-792.79,464.05C-790.68,464.05 -789.92,464.81 -789.92,467.56L-789.92,476.17C-789.92,477.65 -790.43,478.57 -792.33,479.38ZM-775.99,471.23C-775.99,467.56 -777.21,466.25 -779.54,466.25C-782.07,466.25 -784.01,467.81 -784.01,471.99L-784.01,487.48C-784.01,491.11 -782.70,492.42 -780.13,492.42C-777.30,492.42 -775.95,489.38 -776.03,485.37L-776.16,480.31L-776.75,480.31L-776.88,485.25C-776.96,487.95 -777.51,489.55 -778.78,489.55C-779.96,489.55 -781.06,489.09 -781.06,486.05L-781.06,477.98L-775.99,477.98ZM-778.52,472.62L-778.52,477.39L-781.06,477.39L-781.06,471.57C-781.06,470.05 -780.84,469.12 -779.83,469.12C-778.99,469.12 -778.52,469.54 -778.52,472.62ZM-764.63,472.45C-764.63,469.75 -766.24,468.19 -768.56,467.89L-768.56,467.39C-766.57,467.43 -765.10,468.02 -762.65,471.52L-762.65,466.67L-768.73,466.67C-771.22,466.67 -773.33,468.23 -773.33,472.37L-773.33,482.12C-773.33,484.27 -772.78,485.63 -771.77,486.39C-772.48,487.27 -773.71,488.33 -773.71,489.76C-773.71,490.86 -773.03,491.41 -772.06,491.66L-772.06,491.92C-773.20,492.42 -774.13,493.39 -774.13,494.91C-774.13,496.18 -773.12,497.49 -770.58,497.49C-767.08,497.49 -763.03,493.98 -763.03,491.75C-763.03,490.02 -764.25,489.13 -766.87,489.13L-771.34,489.13C-772.15,489.13 -772.40,488.92 -772.40,488.54C-772.40,488.12 -771.81,487.40 -771.09,486.72C-770.58,486.98 -769.95,487.06 -769.23,487.06C-766.74,487.06 -764.63,485.54 -764.63,481.57ZM-769.23,469.54C-768.39,469.54 -767.59,470.00 -767.59,473.04L-767.59,482.12C-767.59,483.60 -767.80,484.53 -768.73,484.53C-769.61,484.53 -770.37,484.06 -770.37,481.02L-770.37,471.95C-770.37,470.47 -770.16,469.54 -769.23,469.54ZM-771.77,493.22C-771.77,492.76 -771.56,492.34 -770.88,492L-766.87,492C-765.43,492 -765.10,492.59 -765.10,493.60C-765.10,494.45 -765.90,494.79 -767.84,494.79C-771.13,494.79 -771.77,494.07 -771.77,493.22ZM-755.13,492L-752.18,492L-752.18,466.67L-755.13,466.67L-755.13,482.71C-755.13,486.64 -756.02,489.55 -757.20,489.55C-758.00,489.55 -758.21,488.88 -758.21,487.36L-758.21,466.67L-761.17,466.67L-761.17,489.00C-761.17,491.11 -760.03,492.42 -758.47,492.42C-756.86,492.42 -755.43,491.37 -754.54,485.03L-754.12,485.12L-755.13,491.54ZM-746.26,461.18L-749.22,461.18L-749.22,492L-746.26,492ZM-739.00,466.25C-741.66,466.25 -743.73,469.33 -743.73,471.99C-743.73,473.93 -743.48,476.34 -742.63,478.36L-738.58,478.36C-742.04,474.86 -742.76,473.30 -742.76,471.52C-742.76,470.05 -742.21,469.12 -740.02,469.12C-738.62,469.12 -738.29,469.46 -738.29,470.81L-738.29,478.62C-741.62,481.74 -743.39,483.09 -743.39,486.51L-743.39,489.42C-743.39,491.45 -742.55,492.42 -740.94,492.42C-739.34,492.42 -738.29,491.41 -737.65,485.12L-737.23,485.20C-737.74,491.20 -736.98,492.42 -735.25,492.42C-733.26,492.42 -732.84,490.40 -732.88,487.74L-733.01,480.52L-733.60,480.52L-733.73,487.90C-733.77,489.30 -734.06,489.55 -734.44,489.55C-734.91,489.55 -735.33,489.30 -735.33,487.02L-735.33,469.71C-735.33,467.56 -736.55,466.25 -739.00,466.25ZM-739.72,489.34C-740.14,489.34 -740.44,489.09 -740.44,488.33L-740.44,484.11C-740.44,482.33 -740.14,481.32 -738.29,479.50L-738.29,482.88C-738.29,486.76 -738.79,489.34 -739.72,489.34ZM-724.99,469.37C-724.23,469.37 -723.85,469.71 -723.85,470.47C-723.85,471.23 -724.73,473.04 -727.14,478.11L-723.93,478.11C-723.21,474.35 -723.09,471.52 -723.09,470.43C-723.09,467.64 -723.72,466.25 -724.99,466.25C-726.42,466.25 -727.48,467.30 -728.36,473.64L-728.78,473.55L-727.86,467.13L-727.86,466.67L-730.77,466.67L-730.77,492L-727.81,492L-727.81,475.87C-727.81,471.61 -726.34,469.37 -724.99,469.37Z"/>
</svg>