<?xml version="1.0"?>
<svg xmlns="http://www.w3.org/2000/svg" width="1920" height="1080" viewBox="-960 -540 1920 1080">
    <path d="M-879.12,-324.60L-861.36,-306.84L-905.76,-164.76L-932.40,-147L-825.84,-147L-790.32,-164.76L-763.68,-191.40L-745.92,-218.04L-737.04,-262.44L-754.80,-306.84L-799.20,-324.60ZM-772.56,-244.68L-790.32,-191.40L-816.96,-164.76L-834.72,-155.88L-870.24,-155.88L-879.12,-164.76L-834.72,-306.84L-825.84,-315.72L-799.20,-315.72L-781.44,-306.84L-772.56,-271.32ZM-692.64,-200.28L-692.64,-226.92L-674.88,-280.20L-630.48,-315.72L-612.72,-315.72L-594.96,-297.96L-594.96,-271.32L-577.20,-271.32L-559.44,-289.08L-568.32,-306.84L-612.72,-324.60L-639.36,-324.60L-674.88,-306.84L-701.52,-280.20L-719.28,-253.56L-728.16,-209.16L-710.40,-164.76L-674.88,-147L-639.36,-147L-612.72,-164.76L-586.08,-191.40L-594.96,-200.28L-621.60,-173.64L-648.24,-155.88L-666,-155.88L-683.76,-164.76ZM-390.72,-324.60L-461.76,-324.60L-444,-306.84L-488.40,-164.76L-515.04,-147L-444,-147L-461.76,-164.76L-444,-226.92L-435.12,-235.80L-346.32,-235.80L-346.32,-226.92L-364.08,-164.76L-390.72,-147L-319.68,-147L-337.44,-164.76L-293.04,-306.84L-266.40,-324.60L-337.44,-324.60L-319.68,-306.84L-337.44,-253.56L-346.32,-244.68L-435.12,-244.68L-435.12,-253.56L-417.36,-306.84ZM-204.24,-289.08L-195.36,-289.08L-186.48,-306.84L-186.48,-315.72L-204.24,-324.60L-213.12,-324.60L-222,-306.84L-222,-297.96ZM-301.92,-218.04L-293.04,-209.16L-248.64,-253.56L-239.76,-253.56L-293.04,-164.76L-293.04,-155.88L-284.16,-147L-266.40,-147L-248.64,-155.88L-204.24,-200.28L-213.12,-209.16L-257.52,-164.76L-266.40,-164.76L-213.12,-253.56L-213.12,-262.44L-230.88,-271.32L-257.52,-262.44ZM-186.48,-173.64L-186.48,-164.76L-177.60,-155.88L-222,-138.12L-230.88,-120.36L-222,-93.72L-186.48,-75.96L-168.72,-75.96L-133.20,-84.84L-115.44,-111.48L-115.44,-129.24L-159.84,-164.76L-159.84,-173.64L-133.20,-173.64L-88.80,-200.28L-79.92,-226.92L-88.80,-253.56L-62.16,-253.56L-62.16,-262.44L-97.68,-262.44L-133.20,-271.32L-177.60,-244.68L-186.48,-218.04L-168.72,-182.52ZM-133.20,-253.56L-115.44,-253.56L-106.56,-226.92L-106.56,-218.04L-133.20,-191.40L-150.96,-191.40L-159.84,-218.04L-159.84,-226.92ZM-168.72,-147L-142.08,-120.36L-142.08,-102.60L-168.72,-84.84L-195.36,-102.60L-204.24,-120.36L-195.36,-138.12ZM-8.88,-324.60L-44.40,-235.80L-88.80,-155.88L-79.92,-147L-62.16,-147L-26.64,-218.04L0,-244.68L17.76,-253.56L26.64,-244.68L-17.76,-164.76L-17.76,-155.88L-8.88,-147L8.88,-147L26.64,-155.88L71.04,-200.28L62.16,-209.16L17.76,-164.76L8.88,-164.76L53.28,-235.80L53.28,-262.44L26.64,-271.32L0,-262.44L-17.76,-244.68L26.64,-333.48L-35.52,-333.48L-35.52,-324.60ZM275.28,-315.72L248.64,-306.84L186.48,-191.40L186.48,-306.84L204.24,-324.60L142.08,-324.60L159.84,-306.84L159.84,-138.12L177.60,-147L248.64,-280.20L248.64,-138.12L257.52,-147L355.20,-306.84L381.84,-324.60L319.68,-324.60L337.44,-306.84L275.28,-200.28ZM497.28,-262.44L488.40,-271.32L470.64,-244.68L461.76,-262.44L426.24,-271.32L381.84,-235.80L364.08,-191.40L372.96,-155.88L390.72,-147L408.48,-147L435.12,-173.64L435.12,-155.88L444.00,-147L470.64,-155.88L515.04,-200.28L506.16,-209.16L461.76,-164.76L452.88,-164.76ZM408.48,-164.76L399.60,-164.76L390.72,-191.40L408.48,-226.92L435.12,-253.56L452.88,-253.56L461.76,-235.80L461.76,-226.92L435.12,-191.40ZM541.68,-164.76L586.08,-253.56L612.72,-253.56L612.72,-262.44L586.08,-262.44L603.84,-297.96L586.08,-297.96L577.20,-271.32L559.44,-262.44L541.68,-262.44L541.68,-253.56L559.44,-253.56L515.04,-164.76L515.04,-155.88L523.92,-147L541.68,-147L559.44,-155.88L603.84,-200.28L594.96,-209.16L550.56,-164.76ZM737.04,-226.92L737.04,-244.68L728.16,-262.44L692.64,-271.32L648.24,-244.68L621.60,-191.40L630.48,-155.88L648.24,-147L666.00,-147L683.76,-155.88L719.28,-191.40L710.40,-200.28L674.88,-164.76L657.12,-164.76L648.24,-191.40L666.00,-226.92L692.64,-253.56L710.40,-253.56L710.40,-226.92L692.64,-218.04L666.00,-218.04L666.00,-209.16L710.40,-209.16ZM737.04,-218.04L745.92,-209.16L790.32,-253.56L799.20,-253.56L745.92,-155.88L754.80,-147L772.56,-147L808.08,-218.04L834.72,-235.80L861.36,-235.80L870.24,-262.44L852.48,-271.32L834.72,-262.44L808.08,-226.92L799.20,-226.92L816.96,-253.56L816.96,-262.44L808.08,-271.32L781.44,-262.44ZM-208.68,41.26L-208.68,-100.82L-270.84,-100.82L-253.08,-83.06L-297.48,59.02L-324.12,76.78L-261.96,76.78L-279.72,59.02L-235.32,-91.94L-235.32,85.66L-217.56,76.78L-119.88,-74.18L-164.28,59.02L-190.92,76.78L-119.88,76.78L-137.64,59.02L-93.24,-83.06L-66.60,-100.82L-119.88,-100.82ZM48.84,-38.66L39.96,-47.54L22.20,-20.90L13.32,-38.66L-22.20,-47.54L-66.60,-12.02L-84.36,32.38L-75.48,67.90L-57.72,76.78L-39.96,76.78L-13.32,50.14L-13.32,67.90L-4.44,76.78L22.20,67.90L66.60,23.50L57.72,14.62L13.32,59.02L4.44,59.02ZM-39.96,59.02L-48.84,59.02L-57.72,32.38L-39.96,-3.14L-13.32,-29.78L4.44,-29.78L13.32,-12.02L13.32,-3.14L-13.32,32.38ZM66.60,5.74L75.48,14.62L119.88,-29.78L128.76,-29.78L75.48,67.90L84.36,76.78L102.12,76.78L137.64,5.74L164.28,-12.02L190.92,-12.02L199.80,-38.66L182.04,-47.54L164.28,-38.66L137.64,-3.14L128.76,-3.14L146.52,-29.78L146.52,-38.66L137.64,-47.54L111,-38.66ZM226.44,32.38L226.44,59.02L235.32,76.78L253.08,76.78L279.72,59.02L315.24,23.50L306.36,14.62L270.84,50.14L253.08,50.14L244.20,41.26L244.20,23.50L261.96,23.50L288.60,14.62L315.24,-12.02L315.24,-29.78L288.60,-47.54L261.96,-38.66L235.32,-3.14L226.44,-3.14L288.60,-109.70L226.44,-109.70L226.44,-100.82L253.08,-100.82L217.56,-12.02L173.16,67.90L182.04,76.78L199.80,76.78L235.32,-3.14ZM244.20,5.74L270.84,-29.78L279.72,-29.78L288.60,-12.02L279.72,5.74L261.96,14.62L244.20,14.62Z" fill="#ffffff" stroke="#000000"/>
    <path d="M-868.06,-340.12L-850.92,-322.11L-898.37,-182.59L-925.17,-165.67L-819.71,-163.04L-784.12,-179.74L-757.10,-205.45L-738.86,-231.38L-728.98,-275.10L-745.46,-319.48L-788.97,-338.15ZM-764.57,-258.40L-783.46,-206.11L-810.49,-180.40L-828.28,-172.05L-863.44,-172.92L-872.01,-181.93L-824.56,-321.45L-815.55,-330.02L-789.18,-329.36L-771.83,-320.14L-763.91,-284.76ZM-686.57,-212.49L-685.91,-238.85L-667.02,-291.14L-622.20,-325.20L-604.63,-324.76L-587.49,-306.75L-588.14,-280.38L-570.57,-279.94L-552.55,-297.08L-560.90,-314.88L-604.41,-333.55L-630.77,-334.21L-666.36,-317.51L-693.39,-291.80L-711.62,-265.87L-721.51,-222.15L-705.02,-177.77L-670.31,-159.32L-635.15,-158.44L-608.35,-175.36L-581.33,-201.07L-589.90,-210.07L-616.92,-184.37L-643.72,-167.45L-661.30,-167.89L-678.66,-177.11ZM-384.70,-328.07L-455.00,-329.83L-437.86,-311.81L-485.31,-172.29L-512.12,-155.37L-441.81,-153.62L-458.95,-171.63L-439.84,-232.72L-430.83,-241.28L-342.94,-239.09L-343.16,-230.31L-362.27,-169.22L-389.08,-152.30L-318.77,-150.55L-335.91,-168.57L-288.46,-308.09L-261.66,-325.01L-331.96,-326.76L-314.83,-308.74L-333.72,-256.45L-342.73,-247.88L-430.61,-250.07L-430.39,-258.86L-411.50,-311.15ZM-201.01,-288.32L-192.23,-288.10L-183.00,-305.46L-182.78,-314.25L-200.14,-323.47L-208.93,-323.69L-218.15,-306.33L-218.37,-297.55ZM-299.44,-220.42L-290.87,-211.41L-245.83,-254.26L-237.04,-254.04L-291.97,-167.47L-292.19,-158.68L-283.62,-149.68L-266.04,-149.24L-248.24,-157.59L-203.21,-200.43L-211.77,-209.44L-256.81,-166.59L-265.60,-166.81L-210.68,-253.38L-210.46,-262.17L-227.82,-271.40L-254.40,-263.27ZM-186.29,-173.63L-186.50,-164.84L-177.94,-155.83L-222.32,-139.35L-231.54,-122.00L-223.41,-95.41L-188.70,-76.96L-171.12,-76.52L-135.75,-84.43L-117.51,-110.36L-117.07,-127.94L-160.14,-164.18L-159.92,-172.97L-133.55,-172.32L-88.96,-197.59L-79.51,-223.73L-87.64,-250.32L-61.28,-249.66L-61.06,-258.45L-96.21,-259.32L-131.14,-268.99L-175.74,-243.72L-185.19,-217.57L-168.49,-181.98ZM-131.58,-251.41L-114.01,-250.97L-105.87,-224.39L-106.09,-215.60L-133.12,-189.89L-150.69,-190.33L-158.82,-216.92L-158.61,-225.70ZM-169.37,-146.83L-143.66,-119.80L-144.10,-102.23L-170.90,-85.31L-196.83,-103.54L-205.18,-121.34L-195.95,-138.70ZM-6.79,-318.65L-44.14,-231.64L-90.05,-153.64L-81.48,-144.64L-63.90,-144.20L-27.00,-213.63L0.03,-239.34L17.82,-247.69L26.39,-238.68L-19.52,-160.68L-19.74,-151.89L-11.17,-142.88L6.40,-142.44L24.20,-150.79L69.24,-193.64L60.67,-202.65L15.63,-159.80L6.84,-160.02L52.54,-229.23L53.19,-255.60L27.05,-265.05L0.46,-256.91L-17.55,-239.78L28.58,-326.56L-32.94,-328.10L-33.16,-319.31ZM274.22,-302.85L247.64,-294.72L183.27,-182.00L186.12,-296.25L204.13,-313.39L142.61,-314.93L159.75,-296.91L155.59,-129.93L173.38,-138.28L246.98,-268.36L243.47,-127.74L252.48,-136.31L353.10,-292.09L379.90,-309.01L318.38,-310.55L335.52,-292.53L271.37,-188.60ZM492.62,-244.64L484.05,-253.65L465.81,-227.72L457.46,-245.52L422.53,-255.19L377.71,-221.13L359.04,-177.62L366.95,-142.25L384.31,-133.02L401.88,-132.58L428.91,-158.29L428.47,-140.72L437.04,-131.71L463.62,-139.84L508.66,-182.69L500.09,-191.69L455.05,-148.85L446.27,-149.07ZM402.32,-150.16L393.53,-150.38L385.40,-176.97L403.86,-211.68L430.88,-237.39L448.46,-236.95L456.81,-219.15L456.59,-210.37L429.35,-175.87ZM534.15,-146.88L580.28,-233.66L606.65,-233.01L606.87,-241.80L580.50,-242.45L598.96,-277.17L581.38,-277.61L571.93,-251.46L554.14,-243.11L536.56,-243.55L536.34,-234.76L553.92,-234.32L507.78,-147.53L507.57,-138.74L516.13,-129.74L533.71,-129.30L551.51,-137.65L596.55,-180.50L587.98,-189.50L542.94,-146.66ZM729.03,-203.57L729.47,-221.15L721.12,-238.95L686.18,-248.61L641.58,-223.34L613.90,-171.27L621.82,-135.90L639.17,-126.67L656.75,-126.23L674.55,-134.58L710.58,-168.86L702.01,-177.87L665.98,-143.59L648.40,-144.03L640.27,-170.61L658.72,-205.33L685.74,-231.03L703.32,-230.60L702.66,-204.23L684.87,-195.88L658.50,-196.54L658.28,-187.75L702.23,-186.65ZM728.81,-194.79L737.38,-185.78L782.42,-228.62L791.21,-228.41L736.07,-133.05L744.63,-124.04L762.21,-123.60L799.12,-193.03L825.92,-209.95L852.29,-209.29L861.73,-235.44L844.38,-244.67L826.58,-236.32L799.34,-201.82L790.55,-202.04L808.78,-227.97L809.00,-236.76L800.43,-245.76L773.85,-237.63ZM-213.56,38.50L-210.05,-102.11L-271.57,-103.65L-254.43,-85.63L-301.88,53.89L-328.69,70.81L-267.17,72.34L-284.31,54.33L-236.64,-93.98L-241.02,81.79L-223.22,73.44L-122.83,-73.56L-170.06,57.18L-196.86,74.09L-126.55,75.85L-143.69,57.83L-96.24,-81.69L-69.44,-98.61L-122.17,-99.92ZM43.28,-34.24L34.71,-43.25L16.47,-17.32L8.12,-35.12L-26.81,-44.78L-71.63,-10.72L-90.30,32.78L-82.39,68.15L-65.03,77.38L-47.45,77.82L-20.43,52.11L-20.87,69.69L-12.30,78.70L14.28,70.56L59.32,27.72L50.75,18.71L5.71,61.56L-3.07,61.34ZM-47.02,60.24L-55.80,60.02L-63.94,33.44L-45.48,-1.28L-18.46,-26.98L-0.88,-26.55L7.47,-8.75L7.25,0.04L-19.99,34.53ZM59.76,10.14L68.33,19.15L113.37,-23.70L122.16,-23.48L67.01,71.88L75.58,80.89L93.16,81.33L130.07,11.89L156.87,-5.03L183.24,-4.37L192.68,-30.51L175.32,-39.74L157.53,-31.39L130.29,3.11L121.50,2.89L139.73,-23.04L139.95,-31.83L131.38,-40.84L104.80,-32.71ZM217.29,40.45L216.64,66.82L224.99,84.61L242.56,85.05L269.37,68.13L305.40,33.85L296.83,24.85L260.80,59.12L243.22,58.68L234.65,49.68L235.09,32.10L252.67,32.54L279.25,24.41L306.28,-1.30L306.71,-18.88L280.79,-37.11L254.20,-28.98L226.96,5.52L218.17,5.30L282.32,-98.63L220.80,-100.16L220.58,-91.38L246.95,-90.72L209.60,-3.71L163.69,74.29L172.26,83.30L189.83,83.74L226.96,5.52ZM235.53,14.52L262.77,-19.97L271.56,-19.75L279.91,-1.96L270.68,15.40L252.89,23.75L235.31,23.31Z" fill="#ffffff" stroke="#000000"/>
    <path d="M-856.65,-355.36L-840.14,-337.11L-890.53,-200.21L-917.48,-184.13L-813.18,-178.92L-777.54,-194.57L-750.17,-219.35L-731.48,-244.55L-720.62,-287.58L-735.84,-331.90L-778.43,-351.46ZM-756.26,-271.93L-776.24,-220.65L-803.62,-195.87L-821.44,-188.05L-856.20,-189.78L-864.46,-198.91L-814.06,-335.81L-804.94,-344.06L-778.86,-342.76L-761.91,-333.20L-754.96,-298.00ZM-680.20,-224.57L-678.90,-250.64L-658.92,-301.93L-613.72,-334.52L-596.34,-333.66L-579.82,-315.41L-581.12,-289.33L-563.74,-288.46L-545.49,-304.98L-553.32,-322.80L-595.91,-342.35L-621.98,-343.65L-657.61,-328.00L-684.99,-303.23L-703.67,-278.02L-714.53,-235.00L-699.32,-190.67L-665.42,-171.55L-630.65,-169.82L-603.71,-185.90L-576.34,-210.67L-584.59,-219.80L-611.97,-195.02L-638.91,-178.94L-656.30,-179.81L-673.24,-189.37ZM-378.62,-331.51L-448.15,-334.98L-431.63,-316.73L-482.03,-179.83L-508.97,-163.75L-439.44,-160.28L-455.95,-178.53L-435.54,-238.50L-426.41,-246.76L-339.50,-242.42L-339.93,-233.73L-360.35,-173.76L-387.29,-157.68L-317.76,-154.21L-334.27,-172.46L-283.88,-309.35L-256.93,-325.44L-326.47,-328.91L-309.95,-310.65L-329.94,-259.37L-339.06,-251.11L-425.98,-255.45L-425.54,-264.14L-405.56,-315.42ZM-197.83,-287.63L-189.14,-287.20L-179.58,-304.15L-179.14,-312.84L-196.09,-322.40L-204.78,-322.83L-214.34,-305.88L-214.78,-297.19ZM-296.90,-222.87L-288.65,-213.75L-243.02,-255.04L-234.33,-254.60L-290.81,-170.29L-291.25,-161.60L-282.99,-152.47L-265.61,-151.60L-247.79,-159.43L-202.16,-200.72L-210.42,-209.84L-256.05,-168.55L-264.74,-168.99L-208.25,-253.30L-207.82,-261.99L-224.77,-271.55L-251.28,-264.16ZM-186.08,-173.78L-186.52,-165.08L-178.26,-155.96L-222.58,-140.74L-232.14,-123.79L-224.75,-97.29L-190.85,-78.17L-173.47,-77.30L-138.27,-84.26L-119.58,-109.47L-118.72,-126.85L-160.44,-163.78L-160.01,-172.47L-133.93,-171.17L-89.17,-195.08L-79.18,-220.72L-86.57,-247.23L-60.50,-245.93L-60.06,-254.62L-94.83,-256.36L-129.16,-266.78L-173.92,-242.87L-183.91,-217.23L-168.27,-181.60ZM-130.03,-249.40L-112.65,-248.53L-105.26,-222.02L-105.69,-213.33L-133.07,-188.56L-150.45,-189.42L-157.84,-215.93L-157.41,-224.62ZM-170.00,-146.83L-145.23,-119.46L-146.09,-102.07L-173.04,-85.99L-198.24,-104.68L-206.07,-122.49L-196.51,-139.44ZM-4.88,-312.86L-43.98,-227.68L-91.34,-151.62L-83.08,-142.50L-65.70,-141.63L-27.47,-209.43L-0.09,-234.20L17.73,-242.03L25.99,-232.90L-21.38,-156.84L-21.81,-148.15L-13.55,-139.03L3.83,-138.16L21.65,-145.98L67.28,-187.27L59.02,-196.40L13.39,-155.11L4.70,-155.54L51.63,-222.91L52.93,-248.98L27.29,-258.98L0.78,-251.59L-17.47,-235.07L30.32,-319.82L-30.52,-322.85L-30.95,-314.16ZM272.82,-290.29L246.31,-282.90L179.83,-172.95L185.47,-285.94L203.72,-302.45L142.88,-305.49L159.39,-287.24L151.16,-122.10L168.97,-129.92L245.01,-256.83L238.07,-117.76L247.20,-126.02L350.61,-277.70L377.55,-293.78L316.71,-296.81L333.23,-278.56L267.18,-177.30ZM487.51,-227.30L479.25,-236.43L460.56,-211.22L452.74,-229.03L418.41,-239.46L373.22,-206.86L353.66,-164.27L360.62,-129.07L377.57,-119.51L394.95,-118.65L422.33,-143.42L421.46,-126.04L429.72,-116.91L456.23,-124.30L501.85,-165.59L493.60,-174.72L447.97,-133.43L439.28,-133.86ZM395.82,-136.03L387.13,-136.46L379.74,-162.97L398.86,-196.87L426.23,-221.64L443.62,-220.78L451.44,-202.96L451.01,-194.27L423.20,-160.80ZM526.19,-129.52L573.99,-214.27L600.06,-212.97L600.50,-221.66L574.42,-222.96L593.54,-256.86L576.16,-257.73L566.16,-232.09L548.35,-224.26L530.96,-225.13L530.53,-216.44L547.91,-215.57L500.12,-130.83L499.69,-122.13L507.94,-113.01L525.33,-112.14L543.14,-119.97L588.77,-161.26L580.51,-170.38L534.89,-129.09ZM720.45,-180.83L721.31,-198.21L713.49,-216.03L679.16,-226.45L634.40,-202.54L605.72,-151.70L612.68,-116.50L629.63,-106.94L647.01,-106.07L664.83,-113.89L701.33,-146.93L693.07,-156.05L656.57,-123.02L639.19,-123.89L631.79,-150.40L650.91,-184.29L678.29,-209.07L695.67,-208.20L694.37,-182.13L676.55,-174.30L650.48,-175.60L650.05,-166.91L693.50,-164.74ZM720.01,-172.13L728.27,-163.01L773.90,-204.30L782.59,-203.86L725.67,-110.86L733.93,-101.73L751.31,-100.87L789.54,-168.66L816.49,-184.75L842.56,-183.45L852.55,-209.09L835.60,-218.65L817.79,-210.82L789.98,-177.36L781.29,-177.79L799.97,-203.00L800.40,-211.69L792.15,-220.81L765.64,-213.42ZM-218.31,35.48L-211.37,-103.59L-272.21,-106.62L-255.69,-88.37L-306.09,48.52L-333.03,64.61L-272.19,67.64L-288.71,49.39L-237.88,-96.20L-246.55,77.63L-228.73,69.81L-125.75,-73.18L-175.71,55.03L-202.66,71.11L-133.12,74.58L-149.64,56.33L-99.24,-80.57L-72.30,-96.65L-124.45,-99.25ZM37.65,-30.17L29.40,-39.30L10.71,-14.09L2.89,-31.91L-31.45,-42.33L-76.64,-9.73L-96.19,32.86L-89.23,68.06L-72.28,77.61L-54.90,78.48L-27.52,53.71L-28.39,71.09L-20.13,80.22L6.37,72.83L52.00,31.54L43.74,22.41L-1.88,63.70L-10.57,63.27ZM-54.03,61.10L-62.72,60.67L-70.11,34.16L-51.00,0.26L-23.62,-24.52L-6.24,-23.65L1.59,-5.83L1.15,2.86L-26.66,36.33ZM52.87,14.15L61.13,23.28L106.75,-18.01L115.44,-17.58L58.52,75.43L66.78,84.55L84.17,85.42L122.40,17.62L149.34,1.54L175.42,2.84L185.41,-22.80L168.46,-32.36L150.64,-24.53L122.83,8.93L114.14,8.50L132.83,-16.71L133.26,-25.40L125.00,-34.53L98.49,-27.14ZM208.02,48.03L206.72,74.11L214.54,91.93L231.92,92.79L258.86,76.71L295.37,43.68L287.11,34.55L250.61,67.59L233.22,66.72L224.97,57.59L225.83,40.21L243.22,41.08L269.72,33.69L297.10,8.91L297.97,-8.47L272.76,-27.15L246.25,-19.76L218.44,13.70L209.75,13.27L275.80,-88.00L214.95,-91.03L214.52,-82.34L240.60,-81.04L201.49,4.14L154.13,80.20L162.39,89.32L179.77,90.19L218.44,13.70ZM226.70,22.83L254.51,-10.64L263.20,-10.21L271.03,7.61L261.47,24.56L243.65,32.39L226.27,31.52Z" fill="#ffffff" stroke="#000000"/>
    <path d="M-844.90,-370.29L-829.01,-351.82L-882.26,-217.61L-909.31,-202.36L-806.24,-194.64L-770.59,-209.24L-742.89,-233.08L-723.78,-257.56L-711.98,-299.87L-725.94,-344.10L-767.60,-364.50ZM-747.62,-285.26L-768.66,-235.01L-796.36,-211.17L-814.18,-203.87L-848.54,-206.44L-856.49,-215.68L-803.24,-349.89L-794.01,-357.84L-768.24,-355.91L-751.71,-346.03L-745.69,-311.03ZM-673.53,-236.52L-671.60,-262.29L-650.56,-312.54L-605.04,-343.68L-587.86,-342.39L-571.97,-323.93L-573.90,-298.16L-556.72,-296.87L-538.25,-312.76L-545.56,-330.59L-587.22,-350.98L-612.99,-352.91L-648.63,-338.31L-676.33,-314.47L-695.44,-289.99L-707.25,-247.68L-693.29,-203.45L-660.21,-183.70L-625.86,-181.12L-598.80,-196.37L-571.10,-220.21L-579.05,-229.44L-606.75,-205.60L-633.80,-190.36L-650.98,-191.64L-667.52,-201.52ZM-372.48,-334.90L-441.20,-340.04L-425.30,-321.58L-478.55,-187.36L-505.60,-172.11L-436.89,-166.97L-452.78,-185.43L-431.10,-244.27L-421.86,-252.22L-335.97,-245.78L-336.61,-237.19L-358.29,-178.35L-385.35,-163.10L-316.63,-157.96L-332.53,-176.42L-279.28,-310.64L-252.23,-325.89L-320.94,-331.03L-305.05,-312.57L-326.09,-262.32L-335.32,-254.37L-421.22,-260.81L-420.58,-269.40L-399.54,-319.65ZM-194.67,-287.02L-186.08,-286.38L-176.21,-302.92L-175.56,-311.51L-192.10,-321.38L-200.69,-322.03L-210.57,-305.49L-211.21,-296.90ZM-294.31,-225.39L-286.36,-216.15L-240.20,-255.88L-231.61,-255.24L-289.58,-173.21L-290.22,-164.62L-282.28,-155.38L-265.10,-154.10L-247.27,-161.40L-201.11,-201.13L-209.05,-210.36L-255.22,-170.63L-263.81,-171.27L-205.84,-253.31L-205.19,-261.90L-221.73,-271.78L-248.14,-265.12ZM-185.86,-174.07L-186.50,-165.48L-178.56,-156.25L-222.79,-142.29L-232.67,-125.75L-226.01,-99.34L-192.94,-79.59L-175.76,-78.30L-140.76,-84.32L-121.65,-108.80L-120.36,-125.98L-160.74,-163.55L-160.09,-172.14L-134.32,-170.21L-89.44,-192.76L-78.92,-217.89L-85.58,-244.30L-59.82,-242.37L-59.17,-250.96L-93.53,-253.53L-127.24,-264.70L-172.12,-242.15L-182.64,-217.02L-168.04,-181.38ZM-128.53,-247.52L-111.35,-246.23L-104.69,-219.82L-105.34,-211.23L-133.04,-187.39L-150.22,-188.68L-156.87,-215.09L-156.23,-223.68ZM-170.61,-147.02L-146.77,-119.32L-148.06,-102.14L-175.12,-86.89L-199.60,-106.00L-206.90,-123.82L-197.02,-140.36ZM-3.13,-307.22L-43.92,-223.90L-92.66,-149.81L-84.72,-140.58L-67.54,-139.29L-28.03,-205.44L-0.33,-229.28L17.49,-236.58L25.44,-227.34L-23.30,-153.26L-23.95,-144.67L-16.00,-135.43L1.18,-134.15L19.00,-141.45L65.17,-181.18L57.22,-190.41L11.06,-150.68L2.47,-151.33L50.56,-216.82L52.49,-242.59L27.37,-253.11L0.95,-246.45L-17.51,-230.56L31.87,-313.24L-28.26,-317.74L-28.90,-309.15ZM271.09,-278.04L244.68,-271.38L176.19,-164.22L184.55,-275.89L203.02,-291.78L142.89,-296.28L158.78,-277.82L146.56,-114.62L164.38,-121.92L242.75,-245.61L232.45,-108.18L241.69,-116.13L347.75,-263.66L374.81,-278.91L314.68,-283.41L330.57,-264.95L262.73,-166.38ZM481.97,-210.42L474.02,-219.65L454.91,-195.17L447.61,-212.99L413.90,-224.16L368.37,-193.01L347.98,-151.35L353.99,-116.35L370.53,-106.48L387.71,-105.19L415.41,-129.03L414.12,-111.85L422.07,-102.61L448.48,-109.27L494.64,-149.00L486.70,-158.24L440.53,-118.51L431.94,-119.15ZM388.99,-122.37L380.41,-123.01L373.75,-149.42L393.50,-182.49L421.20,-206.33L438.38,-205.05L445.68,-187.22L445.04,-178.63L416.69,-146.21ZM517.84,-112.72L567.22,-195.39L592.99,-193.46L593.63,-202.05L567.86,-203.98L587.62,-237.05L570.44,-238.34L559.92,-213.22L542.10,-205.91L524.92,-207.20L524.27,-198.61L541.45,-197.32L492.07,-114.65L491.43,-106.06L499.37,-96.82L516.55,-95.54L534.37,-102.84L580.54,-142.57L572.59,-151.80L526.43,-112.07ZM711.31,-158.68L712.60,-175.86L705.30,-193.69L671.58,-204.85L626.70,-182.30L597.07,-132.69L603.09,-97.69L619.62,-87.81L636.80,-86.53L654.63,-93.83L691.56,-125.61L683.61,-134.85L646.68,-103.06L629.50,-104.35L622.84,-130.76L642.60,-163.83L670.29,-187.67L687.47,-186.38L685.54,-160.62L667.72,-153.31L641.95,-155.24L641.31,-146.65L684.26,-143.44ZM710.67,-150.10L718.61,-140.86L764.78,-180.59L773.37,-179.95L714.75,-89.32L722.70,-80.09L739.88,-78.80L779.38,-144.95L806.44,-160.20L832.21,-158.26L842.73,-183.39L826.19,-193.27L808.37,-185.96L780.03,-153.54L771.44,-154.18L790.55,-178.66L791.19,-187.25L783.25,-196.48L756.83,-189.83ZM-222.91,32.19L-212.61,-105.25L-272.74,-109.75L-256.85,-91.29L-310.09,42.93L-337.14,58.18L-277.02,62.68L-292.91,44.22L-239.02,-98.59L-251.89,73.20L-234.07,65.90L-128.65,-73.04L-181.25,52.58L-208.30,67.83L-139.59,72.98L-155.48,54.51L-102.23,-79.70L-75.18,-94.95L-126.72,-98.81ZM31.98,-26.46L24.03,-35.69L4.93,-11.21L-2.38,-29.03L-36.09,-40.20L-81.61,-9.06L-102.01,32.60L-95.99,67.61L-79.46,77.48L-62.28,78.77L-34.58,54.93L-35.87,72.11L-27.92,81.34L-1.51,74.69L44.66,34.95L36.71,25.72L-9.46,65.45L-18.05,64.81ZM-60.99,61.59L-69.58,60.95L-76.24,34.54L-56.49,1.46L-28.79,-22.37L-11.61,-21.09L-4.31,-3.26L-4.95,5.33L-33.29,37.75ZM45.94,17.78L53.89,27.01L100.05,-12.72L108.64,-12.08L50.03,78.55L57.97,87.78L75.15,89.07L114.66,22.92L141.71,7.68L167.48,9.61L178.00,-15.52L161.47,-25.40L143.64,-18.09L115.30,14.33L106.71,13.69L125.82,-10.79L126.47,-19.38L118.52,-28.61L92.11,-21.95ZM198.62,55.13L196.69,80.90L204.00,98.72L221.17,100.01L248.23,84.76L285.16,52.97L277.22,43.74L240.28,75.52L223.10,74.24L215.16,65.00L216.45,47.83L233.62,49.11L260.04,42.45L287.74,18.62L289.02,1.44L264.54,-17.67L238.13,-11.01L209.79,21.41L201.20,20.77L269.05,-77.80L208.92,-82.30L208.28,-73.72L234.04,-71.78L193.25,11.54L144.51,85.62L152.46,94.86L169.64,96.14L209.79,21.41ZM217.73,30.65L246.08,-1.78L254.67,-1.14L261.97,16.68L252.09,33.22L234.27,40.52L217.09,39.24Z" fill="#ffffff" stroke="#000000"/>
    <path d="M-832.82,-384.91L-817.55,-366.24L-873.54,-234.77L-900.68,-220.35L-798.89,-210.17L-763.27,-223.74L-735.27,-246.64L-715.76,-270.39L-703.04,-311.95L-715.76,-356.06L-756.48,-377.27ZM-738.67,-298.38L-760.72,-249.18L-788.71,-226.28L-806.53,-219.50L-840.46,-222.89L-848.09,-232.22L-792.10,-363.70L-782.77,-371.33L-757.32,-368.79L-741.21,-358.61L-736.12,-323.83ZM-666.57,-248.33L-664.02,-273.78L-641.96,-322.98L-596.16,-352.66L-579.19,-350.97L-563.92,-332.30L-566.47,-306.86L-549.51,-305.16L-530.84,-320.43L-537.63,-338.24L-578.34,-359.45L-603.79,-361.99L-639.42,-348.42L-667.41,-325.52L-686.92,-301.77L-699.65,-260.21L-686.93,-216.10L-654.69,-195.74L-620.76,-192.35L-593.62,-206.76L-565.63,-229.67L-573.26,-239.00L-601.25,-216.10L-628.40,-201.68L-645.36,-203.37L-661.48,-213.55ZM-366.28,-338.24L-434.14,-345.02L-418.87,-326.36L-474.86,-194.89L-502.01,-180.47L-434.15,-173.68L-449.42,-192.34L-426.51,-250.02L-417.18,-257.65L-332.36,-249.17L-333.20,-240.69L-356.11,-183.01L-383.25,-168.59L-315.39,-161.80L-330.66,-180.46L-274.67,-311.94L-247.53,-326.36L-315.39,-333.14L-300.12,-314.48L-322.18,-265.28L-331.51,-257.65L-416.33,-266.14L-415.48,-274.62L-393.43,-323.82ZM-191.55,-286.49L-183.06,-285.64L-172.88,-301.75L-172.03,-310.24L-188.15,-320.42L-196.63,-321.26L-206.81,-305.15L-207.66,-296.67ZM-291.64,-227.96L-284.01,-218.63L-237.35,-256.80L-228.87,-255.95L-288.25,-176.22L-289.10,-167.73L-281.46,-158.40L-264.50,-156.71L-246.69,-163.49L-200.03,-201.66L-207.66,-210.99L-254.32,-172.82L-262.80,-173.67L-203.42,-253.40L-202.57,-261.89L-218.69,-272.07L-244.99,-266.13ZM-185.61,-174.52L-186.46,-166.03L-178.83,-156.70L-222.94,-143.98L-233.11,-127.86L-227.18,-101.57L-194.95,-81.21L-177.98,-79.51L-143.20,-84.60L-123.69,-108.35L-121.99,-125.32L-161.01,-163.49L-160.16,-171.97L-134.72,-169.43L-89.76,-190.63L-78.73,-215.23L-84.67,-241.52L-59.22,-238.98L-58.37,-247.46L-92.30,-250.86L-125.38,-262.73L-170.34,-241.53L-181.37,-216.93L-167.80,-181.30ZM-127.08,-245.77L-110.11,-244.07L-104.18,-217.77L-105.03,-209.29L-133.02,-186.39L-149.98,-188.09L-155.92,-214.38L-155.07,-222.87ZM-171.19,-147.37L-148.29,-119.38L-149.99,-102.41L-177.13,-88.00L-200.88,-107.51L-207.67,-125.32L-197.49,-141.44ZM-1.54,-301.75L-43.95,-220.32L-94.00,-148.22L-86.37,-138.89L-69.40,-137.19L-28.68,-201.66L-0.69,-224.56L17.12,-231.34L24.76,-222.01L-25.29,-149.91L-26.14,-141.43L-18.51,-132.10L-1.54,-130.40L16.27,-137.19L62.93,-175.36L55.29,-184.69L8.64,-146.52L0.15,-147.37L49.36,-210.98L51.90,-236.43L27.30,-247.46L1.01,-241.52L-17.66,-226.25L33.24,-306.84L-26.14,-312.78L-26.98,-304.29ZM269.05,-266.11L242.76,-260.17L172.35,-155.84L183.38,-266.11L202.04,-281.38L142.67,-287.32L157.93,-268.66L141.81,-107.49L159.62,-114.28L240.21,-234.73L226.64,-99.01L235.97,-106.64L344.55,-249.99L371.69,-264.41L312.31,-270.35L327.58,-251.69L258.02,-155.84ZM476.02,-194.00L468.39,-203.33L448.88,-179.58L442.09,-197.40L409.01,-209.27L363.21,-179.59L342.00,-138.87L347.09,-104.09L363.20,-93.91L380.17,-92.22L408.16,-115.12L406.46,-98.15L414.10,-88.82L440.39,-94.76L487.05,-132.93L479.42,-142.26L432.76,-104.09L424.28,-104.94ZM381.87,-109.18L373.38,-110.03L367.45,-136.33L387.81,-168.56L415.80,-191.46L432.76,-189.76L439.55,-171.95L438.70,-163.47L409.86,-132.08ZM509.10,-96.45L560.00,-177.03L585.45,-174.49L586.30,-182.97L560.85,-185.52L581.21,-217.75L564.24,-219.45L553.21,-194.85L535.40,-188.06L518.44,-189.76L517.59,-181.28L534.55,-179.58L483.65,-99.00L482.81,-90.52L490.44,-81.19L507.41,-79.49L525.22,-86.27L571.87,-124.44L564.24,-133.77L517.58,-95.60ZM701.66,-137.16L703.35,-154.13L696.57,-171.94L663.49,-183.82L618.53,-162.61L587.99,-114.26L593.08,-79.48L609.19,-69.31L626.16,-67.61L643.97,-74.39L681.30,-104.93L673.66,-114.26L636.34,-83.72L619.37,-85.42L613.44,-111.72L633.80,-143.95L661.79,-166.85L678.75,-165.15L676.21,-139.71L658.40,-132.92L632.95,-135.47L632.10,-126.99L674.51,-122.74ZM700.81,-128.68L708.44,-119.35L755.10,-157.52L763.58,-156.67L703.35,-68.45L710.98,-59.12L727.95,-57.43L768.67,-121.89L795.81,-136.31L821.26,-133.76L832.29,-158.36L816.17,-168.54L798.36,-161.76L769.52,-130.37L761.03,-131.22L780.54,-154.97L781.39,-163.45L773.76,-172.79L747.46,-166.85ZM-227.35,28.64L-213.78,-107.08L-273.15,-113.02L-257.89,-94.36L-313.87,37.12L-341.02,51.54L-281.64,57.48L-296.91,38.81L-240.07,-101.15L-257.04,68.50L-239.23,61.72L-131.50,-73.15L-186.64,49.85L-213.78,64.26L-145.92,71.05L-161.19,52.39L-105.20,-79.09L-78.06,-93.51L-128.95,-98.60ZM26.28,-23.10L18.64,-32.43L-0.87,-8.68L-7.65,-26.49L-40.74,-38.37L-86.54,-8.68L-107.75,32.03L-102.66,66.81L-86.54,76.99L-69.58,78.69L-41.59,55.79L-43.28,72.75L-35.65,82.08L-9.35,76.15L37.30,37.98L29.67,28.65L-16.99,66.82L-25.47,65.97ZM-67.88,61.72L-76.37,60.88L-82.30,34.58L-61.94,2.35L-33.95,-20.55L-16.98,-18.86L-10.20,-1.04L-11.05,7.44L-39.89,38.82ZM39.00,21.01L46.63,30.34L93.29,-7.83L101.77,-6.98L41.54,81.24L49.17,90.57L66.14,92.27L106.86,27.80L134.00,13.38L159.45,15.93L170.48,-8.67L154.36,-18.85L136.55,-12.07L107.71,19.32L99.22,18.47L118.73,-5.28L119.58,-13.76L111.95,-23.09L85.65,-17.16ZM189.14,61.73L186.59,87.18L193.38,104.99L210.34,106.69L237.49,92.27L274.81,61.74L267.18,52.41L229.85,82.94L212.89,81.24L205.25,71.91L206.95,54.95L223.92,56.65L250.21,50.71L278.20,27.81L279.90,10.84L256.15,-8.67L229.86,-2.73L201.01,28.65L192.53,27.80L262.09,-68.05L202.71,-73.99L201.87,-65.50L227.31,-62.96L184.90,18.47L134.85,90.57L142.48,99.90L159.45,101.60L201.01,28.65ZM208.65,37.98L237.49,6.60L245.97,7.45L252.76,25.26L242.58,41.38L224.76,48.16L207.80,46.47Z" fill="#ffffff" stroke="#000000"/>
    <path d="M-820.40,-399.20L-805.76,-380.36L-864.39,-251.68L-891.60,-238.08L-791.15,-225.50L-755.57,-238.04L-727.32,-260.01L-707.43,-283.02L-693.82,-323.83L-705.31,-367.78L-745.07,-389.76ZM-729.39,-311.28L-752.43,-263.15L-780.69,-241.19L-798.48,-234.92L-831.96,-239.11L-839.28,-248.53L-780.65,-377.21L-771.23,-384.54L-746.12,-381.39L-730.42,-370.92L-726.25,-336.39ZM-659.30,-259.99L-656.16,-285.10L-633.12,-333.23L-587.08,-361.47L-570.34,-359.37L-555.69,-340.53L-558.84,-315.42L-542.10,-313.32L-523.26,-327.97L-529.53,-345.75L-569.29,-367.74L-594.40,-370.89L-629.98,-358.34L-658.24,-336.37L-678.12,-313.36L-691.74,-272.55L-680.24,-228.60L-648.85,-207.67L-615.37,-203.47L-588.16,-217.07L-559.90,-239.03L-567.23,-248.45L-595.48,-226.49L-622.69,-212.89L-639.43,-214.99L-655.13,-225.46ZM-360.02,-341.52L-426.99,-349.91L-412.34,-331.07L-470.97,-202.39L-498.18,-188.79L-431.22,-180.40L-445.86,-199.24L-421.78,-255.74L-412.36,-263.06L-328.66,-252.57L-329.70,-244.20L-353.79,-187.71L-381.00,-174.11L-314.03,-165.72L-328.67,-184.56L-270.04,-313.25L-242.83,-326.84L-309.80,-335.23L-295.16,-316.39L-318.19,-268.27L-327.61,-260.94L-411.31,-271.43L-410.26,-279.80L-387.23,-327.93ZM-188.44,-286.02L-180.06,-284.97L-169.60,-300.66L-168.55,-309.03L-184.24,-319.50L-192.61,-320.55L-203.08,-304.86L-204.13,-296.49ZM-288.90,-230.59L-281.58,-221.17L-234.48,-257.78L-226.11,-256.73L-286.82,-179.32L-287.87,-170.95L-280.55,-161.53L-263.81,-159.43L-246.02,-165.70L-198.92,-202.31L-206.24,-211.73L-253.34,-175.12L-261.71,-176.17L-201.00,-253.58L-199.95,-261.96L-215.64,-272.42L-241.80,-267.20ZM-185.33,-175.10L-186.38,-166.73L-179.05,-157.31L-223.00,-145.82L-233.47,-130.12L-228.25,-103.96L-196.86,-83.03L-180.12,-80.93L-145.59,-85.11L-125.70,-108.12L-123.61,-124.86L-161.26,-163.59L-160.21,-171.96L-135.10,-168.81L-90.10,-188.68L-78.59,-212.74L-83.81,-238.90L-58.70,-235.76L-57.65,-244.13L-91.13,-248.32L-123.57,-260.89L-168.57,-241.02L-180.08,-216.96L-167.54,-181.38ZM-125.67,-244.15L-108.92,-242.05L-103.70,-215.89L-104.75,-207.52L-133.01,-185.55L-149.75,-187.65L-154.97,-213.81L-153.92,-222.18ZM-171.73,-147.89L-149.77,-119.64L-151.86,-102.90L-179.07,-89.30L-202.09,-109.19L-208.36,-126.98L-197.89,-142.67ZM-0.09,-296.43L-44.06,-216.92L-95.35,-146.83L-88.03,-137.41L-71.28,-135.31L-29.41,-198.08L-1.16,-220.05L16.63,-226.32L23.96,-216.90L-27.33,-146.81L-28.38,-138.44L-21.06,-129.02L-4.32,-126.92L13.47,-133.19L60.57,-169.80L53.24,-179.22L6.15,-142.61L-2.22,-143.66L48.02,-205.38L51.17,-230.50L27.10,-242.01L0.94,-236.79L-17.90,-222.14L34.44,-300.61L-24.15,-307.95L-25.20,-299.58ZM266.72,-254.50L240.56,-249.28L168.33,-147.80L181.97,-256.62L200.81,-271.26L142.21,-278.60L156.86,-259.76L136.93,-100.72L154.72,-107.00L237.42,-224.17L220.64,-90.24L230.06,-97.56L341.01,-236.69L368.22,-250.29L309.62,-257.63L324.27,-238.79L253.09,-145.68ZM469.69,-178.06L462.37,-187.48L442.48,-164.47L436.21,-182.26L403.78,-194.82L357.73,-166.58L335.75,-126.83L339.92,-92.30L355.61,-81.83L372.36,-79.73L400.61,-101.70L398.52,-84.96L405.84,-75.54L432.00,-80.76L479.09,-117.37L471.77,-126.79L424.68,-90.18L416.31,-91.23ZM374.45,-96.47L366.08,-97.52L360.86,-123.68L381.79,-155.07L410.05,-177.03L426.79,-174.93L433.07,-157.15L432.02,-148.77L402.71,-118.44ZM500.01,-80.74L552.35,-159.21L577.46,-156.06L578.51,-164.43L553.40,-167.58L574.34,-198.96L557.59,-201.06L546.08,-176.99L528.29,-170.72L511.55,-172.82L510.50,-164.45L527.24,-162.35L474.90,-83.89L473.85,-75.52L481.17,-66.10L497.91,-64.00L515.70,-70.27L562.80,-106.88L555.48,-116.30L508.38,-79.69ZM691.50,-116.27L693.60,-133.01L687.33,-150.80L654.90,-163.36L609.90,-143.49L578.49,-96.42L582.67,-61.89L598.36,-51.42L615.10,-49.32L632.89,-55.59L670.57,-84.88L663.25,-94.30L625.57,-65.01L608.83,-67.11L603.60,-93.27L624.54,-124.66L652.80,-146.62L669.54,-144.52L666.39,-119.41L648.60,-113.14L623.49,-116.28L622.44,-107.91L664.30,-102.67ZM690.46,-107.90L697.78,-98.48L744.87,-135.09L753.24,-134.04L691.49,-48.25L698.81,-38.83L715.55,-36.74L757.42,-99.51L784.63,-113.10L809.74,-109.96L821.26,-134.02L805.57,-144.49L787.78,-138.21L758.47,-107.88L750.10,-108.93L769.99,-131.94L771.03,-140.31L763.71,-149.73L737.55,-144.50ZM-231.63,24.84L-214.85,-109.09L-273.45,-116.43L-258.80,-97.59L-317.43,31.10L-344.64,44.69L-286.05,52.03L-300.69,33.19L-241.01,-103.86L-261.99,63.55L-244.20,57.28L-134.29,-73.49L-191.88,46.83L-219.08,60.42L-152.12,68.81L-166.76,49.97L-108.13,-78.71L-80.92,-92.31L-131.15,-98.60ZM20.55,-20.08L13.23,-29.50L-6.66,-6.49L-12.93,-24.28L-45.36,-36.84L-91.41,-8.60L-113.39,31.15L-109.22,65.68L-93.53,76.15L-76.78,78.25L-48.53,56.28L-50.62,73.02L-43.30,82.44L-17.14,77.22L29.95,40.61L22.63,31.19L-24.46,67.80L-32.83,66.75ZM-74.69,61.51L-83.06,60.46L-88.28,34.30L-67.35,2.91L-39.09,-19.05L-22.35,-16.95L-16.07,0.84L-17.12,9.21L-46.43,39.54ZM32.05,23.87L39.37,33.29L86.47,-3.32L94.84,-2.27L33.08,83.51L40.40,92.93L57.14,95.03L99.02,32.26L126.23,18.66L151.34,21.81L162.85,-2.25L147.16,-12.72L129.37,-6.45L100.06,23.89L91.69,22.84L111.58,-0.18L112.63,-8.55L105.31,-17.97L79.15,-12.74ZM179.58,67.86L176.43,92.97L182.70,110.76L199.44,112.86L226.65,99.26L264.33,69.97L257.01,60.55L219.33,89.84L202.59,87.74L195.27,78.32L197.37,61.58L214.11,63.68L240.27,58.46L268.52,36.49L270.62,19.75L247.61,-0.14L221.45,5.09L192.14,35.42L183.77,34.37L254.95,-58.73L196.35,-66.07L195.31,-57.70L220.42,-54.56L176.45,24.95L125.16,95.05L132.48,104.47L149.22,106.56L192.14,35.42ZM199.46,44.84L228.77,14.51L237.14,15.55L243.41,33.34L232.95,49.04L215.16,55.31L198.41,53.21Z" fill="#ffffff" stroke="#000000"/>
    <path d="M-807.67,-413.16L-793.65,-394.16L-854.82,-268.32L-882.07,-255.54L-783.02,-240.62L-747.51,-252.15L-719.02,-273.18L-698.78,-295.45L-684.31,-335.48L-694.60,-379.24L-733.38,-401.96ZM-719.81,-323.95L-743.78,-276.91L-772.28,-255.88L-790.03,-250.11L-823.04,-255.09L-830.06,-264.59L-768.89,-390.43L-759.39,-397.44L-734.63,-393.71L-719.36,-382.97L-716.08,-348.71ZM-651.75,-271.48L-648.01,-296.25L-624.04,-343.28L-577.80,-370.08L-561.29,-367.59L-547.27,-348.60L-551.00,-323.83L-534.49,-321.35L-515.50,-335.37L-521.26,-353.12L-560.05,-375.85L-584.81,-379.58L-620.31,-368.04L-648.81,-347.01L-669.05,-324.74L-683.52,-284.71L-673.23,-240.96L-642.70,-219.47L-609.68,-214.50L-582.43,-227.27L-553.94,-248.31L-560.95,-257.80L-589.44,-236.77L-616.69,-224.00L-633.20,-226.48L-648.47,-237.22ZM-353.70,-344.75L-419.73,-354.70L-405.71,-335.71L-466.88,-209.86L-494.13,-197.09L-428.10,-187.14L-442.12,-206.13L-416.90,-261.42L-407.40,-268.43L-324.86,-255.99L-326.11,-247.74L-351.32,-192.45L-378.57,-179.67L-312.54,-169.72L-326.56,-188.72L-265.39,-314.56L-238.14,-327.34L-304.17,-337.29L-290.15,-318.30L-314.12,-271.26L-323.62,-264.25L-406.16,-276.69L-404.92,-284.94L-380.95,-331.98ZM-185.34,-285.62L-177.08,-284.38L-166.34,-299.64L-165.10,-307.89L-180.36,-318.63L-188.62,-319.88L-199.36,-304.61L-200.60,-296.36ZM-286.08,-233.27L-279.07,-223.77L-231.58,-258.82L-223.33,-257.58L-285.29,-182.50L-286.53,-174.25L-279.52,-164.75L-263.02,-162.26L-245.26,-168.03L-197.77,-203.08L-204.78,-212.58L-252.27,-177.52L-260.53,-178.77L-198.57,-253.85L-197.32,-262.10L-212.59,-272.84L-238.59,-268.32ZM-185.00,-175.83L-186.24,-167.57L-179.23,-158.08L-222.99,-147.79L-233.73,-132.52L-229.21,-106.52L-198.68,-85.03L-182.17,-82.55L-147.91,-85.83L-127.67,-108.10L-125.18,-124.61L-161.48,-163.84L-160.24,-172.10L-135.47,-168.37L-90.47,-186.91L-78.49,-210.43L-83.01,-236.43L-58.25,-232.70L-57.00,-240.96L-90.02,-245.93L-121.79,-259.16L-166.79,-240.62L-178.78,-217.10L-167.25,-181.60ZM-124.28,-242.65L-107.77,-240.17L-103.25,-214.16L-104.49,-205.91L-132.99,-184.87L-149.49,-187.36L-154.02,-213.37L-152.77,-221.62ZM-172.22,-148.58L-151.19,-120.09L-153.68,-103.58L-180.93,-90.80L-203.20,-111.04L-208.97,-128.79L-198.23,-144.06ZM1.23,-291.27L-44.23,-213.71L-96.69,-145.64L-89.68,-136.14L-73.17,-133.65L-30.21,-194.71L-1.71,-215.74L16.04,-221.51L23.05,-212.01L-29.42,-143.94L-30.66,-135.69L-23.65,-126.19L-7.14,-123.70L10.61,-129.47L58.10,-164.52L51.09,-174.02L3.60,-138.97L-4.65,-140.21L46.57,-200.03L50.30,-224.79L26.78,-236.77L0.77,-232.25L-18.22,-218.23L35.49,-294.55L-22.29,-303.26L-23.54,-295.00ZM264.11,-243.22L238.11,-238.70L164.16,-140.10L180.33,-247.40L199.32,-261.42L141.54,-270.13L155.57,-251.13L131.93,-94.31L149.69,-100.07L234.37,-213.93L214.47,-81.87L223.97,-88.88L337.15,-223.77L364.40,-236.55L306.62,-245.25L320.65,-226.26L247.94,-135.92ZM463.00,-162.60L455.99,-172.10L435.75,-149.82L429.98,-167.58L398.21,-180.81L351.97,-154.01L329.24,-115.23L332.52,-80.97L347.78,-70.22L364.29,-67.74L392.78,-88.77L390.30,-72.26L397.31,-62.76L423.31,-67.28L470.80,-102.34L463.79,-111.83L416.30,-76.78L408.05,-78.03ZM366.78,-84.24L358.52,-85.49L354.00,-111.49L375.48,-142.02L403.98,-163.05L420.49,-160.57L426.25,-142.81L425.01,-134.56L395.27,-105.28ZM490.59,-65.59L544.30,-141.91L569.06,-138.18L570.30,-146.43L545.54,-150.16L567.02,-180.69L550.51,-183.18L538.53,-159.66L520.78,-153.90L504.27,-156.38L503.03,-148.13L519.53,-145.64L465.83,-69.32L464.58,-61.07L471.59,-51.57L488.10,-49.08L505.85,-54.85L553.34,-89.90L546.33,-99.40L498.84,-64.35ZM680.88,-96.00L683.37,-112.51L677.60,-130.26L645.83,-143.49L600.83,-124.95L568.61,-79.16L571.88,-44.90L587.15,-34.16L603.66,-31.67L621.41,-37.44L659.40,-65.48L652.39,-74.97L614.40,-46.93L597.89,-49.42L593.37,-75.43L614.85,-105.95L643.34,-126.99L659.85,-124.50L656.12,-99.74L638.37,-93.97L613.61,-97.70L612.36,-89.45L653.63,-83.23ZM679.64,-87.75L686.65,-78.25L734.14,-113.30L742.39,-112.06L679.19,-28.73L686.20,-19.23L702.71,-16.74L745.67,-77.80L772.92,-90.58L797.68,-86.85L809.67,-110.37L794.40,-121.11L776.65,-115.34L746.92,-86.06L738.66,-87.30L758.90,-109.57L760.14,-117.83L753.13,-127.33L727.13,-122.80ZM-235.73,20.81L-215.83,-111.26L-273.61,-119.96L-259.59,-100.97L-320.76,24.88L-348.01,37.66L-290.23,46.36L-304.25,27.37L-241.84,-106.73L-266.71,58.35L-248.96,52.58L-137.02,-74.06L-196.95,43.54L-224.20,56.31L-158.17,66.26L-172.19,47.27L-111.02,-78.58L-83.77,-91.36L-133.29,-98.82ZM14.83,-17.41L7.82,-26.91L-12.42,-4.63L-18.19,-22.38L-49.96,-35.61L-96.20,-8.82L-118.93,29.97L-115.65,64.23L-100.39,74.97L-83.88,77.46L-55.39,56.43L-57.87,72.93L-50.86,82.43L-24.86,77.91L22.63,42.86L15.62,33.36L-31.87,68.41L-40.12,67.17ZM-81.39,60.95L-89.65,59.70L-94.17,33.70L-72.69,3.17L-44.19,-17.86L-27.68,-15.37L-21.92,2.38L-23.16,10.63L-52.90,39.92ZM25.12,26.35L32.13,35.85L79.62,0.79L87.87,2.04L24.67,85.37L31.68,94.87L48.18,97.36L91.15,36.30L118.40,23.52L143.16,27.25L155.15,3.73L139.88,-7.01L122.13,-1.24L92.39,28.04L84.14,26.80L104.38,4.53L105.62,-3.73L98.61,-13.23L72.61,-8.70ZM169.96,73.50L166.23,98.26L172.00,116.01L188.50,118.50L215.75,105.72L253.74,77.68L246.73,68.18L208.74,96.22L192.23,93.74L185.22,84.24L187.71,67.73L204.22,70.22L230.23,65.70L258.72,44.67L261.21,28.16L238.93,7.92L212.93,12.44L183.19,41.73L174.93,40.48L247.64,-49.86L189.86,-58.57L188.62,-50.31L213.38,-46.58L167.92,30.98L115.46,99.05L122.47,108.55L138.98,111.04L183.19,41.73ZM190.20,51.22L219.94,21.94L228.19,23.18L233.96,40.93L223.22,56.20L205.46,61.96L188.96,59.48Z" fill="#ffffff" stroke="#000000"/>
    <path d="M-794.62,-426.77L-781.22,-407.64L-844.82,-284.68L-872.09,-272.71L-774.49,-255.51L-739.09,-266.04L-710.40,-286.14L-689.83,-307.67L-674.53,-346.90L-683.62,-390.44L-721.42,-413.87ZM-709.93,-336.37L-734.79,-290.44L-763.49,-270.34L-781.19,-265.08L-813.73,-270.81L-820.43,-280.38L-756.82,-403.34L-747.25,-410.04L-722.86,-405.74L-708.02,-394.74L-705.63,-360.77ZM-643.90,-282.80L-639.60,-307.20L-614.73,-353.13L-568.33,-378.50L-552.06,-375.63L-538.66,-356.50L-542.97,-332.10L-526.70,-329.23L-507.57,-342.63L-512.83,-360.33L-550.63,-383.76L-575.03,-388.06L-610.43,-377.53L-639.13,-357.44L-659.69,-335.90L-675.00,-296.67L-665.90,-253.14L-636.23,-231.14L-603.70,-225.40L-576.43,-237.37L-547.73,-257.47L-554.43,-267.03L-583.13,-246.94L-610.40,-234.97L-626.67,-237.84L-641.50,-248.84ZM-347.30,-347.92L-412.37,-359.39L-398.97,-340.26L-462.57,-217.30L-489.84,-205.33L-424.77,-193.86L-438.17,-213.00L-411.87,-267.06L-402.31,-273.76L-320.98,-259.42L-322.41,-251.29L-348.71,-197.23L-375.98,-185.26L-310.91,-173.79L-324.31,-192.93L-260.71,-315.89L-233.44,-327.85L-298.51,-339.32L-285.11,-320.19L-309.98,-274.26L-319.54,-267.56L-400.87,-281.89L-399.44,-290.03L-374.57,-335.96ZM-182.25,-285.28L-174.11,-283.85L-163.11,-298.68L-161.68,-306.82L-176.51,-317.82L-184.64,-319.25L-195.64,-304.42L-197.08,-296.28ZM-283.18,-235.99L-276.48,-226.42L-228.64,-259.92L-220.51,-258.49L-283.65,-185.76L-285.08,-177.63L-278.38,-168.06L-262.11,-165.19L-244.42,-170.46L-196.58,-203.95L-203.28,-213.52L-251.11,-180.02L-259.25,-181.46L-196.11,-254.19L-194.68,-262.32L-209.51,-273.32L-235.34,-269.49ZM-184.62,-176.69L-186.05,-168.55L-179.35,-158.99L-222.88,-149.89L-233.88,-135.06L-230.05,-109.22L-200.39,-87.22L-184.12,-84.36L-150.16,-86.76L-129.59,-108.29L-126.72,-124.55L-161.65,-164.25L-160.22,-172.39L-135.82,-168.09L-90.85,-185.32L-78.42,-208.28L-82.25,-234.11L-57.85,-229.81L-56.42,-237.95L-88.95,-243.68L-120.05,-257.55L-165.01,-240.32L-177.45,-217.35L-166.92,-181.95ZM-122.92,-241.28L-106.65,-238.42L-102.82,-212.58L-104.25,-204.45L-132.95,-184.35L-149.22,-187.22L-153.05,-213.05L-151.62,-221.18ZM-172.65,-149.42L-152.55,-120.72L-155.42,-104.45L-182.69,-92.49L-204.22,-113.06L-209.48,-130.76L-198.48,-145.59ZM2.42,-286.28L-44.45,-210.68L-98.02,-144.65L-91.32,-135.08L-75.06,-132.22L-31.05,-191.55L-2.35,-211.64L15.35,-216.91L22.04,-207.34L-31.52,-141.31L-32.96,-133.18L-26.26,-123.62L-9.99,-120.75L7.71,-126.01L55.54,-159.51L48.84,-169.08L1.01,-135.58L-7.12,-137.01L45.01,-194.91L49.31,-219.31L26.35,-231.74L0.51,-227.91L-18.62,-214.51L36.38,-288.67L-20.55,-298.71L-21.98,-290.58ZM261.24,-232.27L235.41,-228.43L159.84,-132.74L178.47,-238.47L197.61,-251.87L140.68,-261.90L154.08,-242.77L126.84,-88.24L144.54,-93.51L231.10,-204.03L208.17,-73.91L217.73,-80.61L333.00,-211.23L360.27,-223.19L303.34,-233.23L316.74,-214.10L242.60,-126.54ZM455.96,-147.63L449.26,-157.19L428.70,-135.66L423.43,-153.36L392.33,-167.23L345.93,-141.86L322.50,-104.07L324.90,-70.10L339.73,-59.10L355.99,-56.23L384.69,-76.33L381.83,-60.07L388.53,-50.50L414.36,-54.33L462.19,-87.83L455.49,-97.39L407.66,-63.90L399.53,-65.33ZM358.86,-72.50L350.73,-73.93L346.90,-99.77L368.90,-129.43L397.60,-149.53L413.86,-146.66L419.13,-128.96L417.69,-120.83L387.56,-92.60ZM480.86,-50.99L535.86,-125.16L560.26,-120.86L561.69,-128.99L537.29,-133.29L559.29,-162.95L543.03,-165.82L530.59,-142.86L512.89,-137.59L496.63,-140.46L495.19,-132.32L511.46,-129.46L456.46,-55.30L455.02,-47.16L461.72,-37.60L477.99,-34.73L495.69,-39.99L543.52,-73.49L536.82,-83.06L488.99,-49.56ZM669.82,-76.39L672.69,-92.65L667.42,-110.35L636.32,-124.22L591.36,-106.99L558.35,-62.49L560.75,-28.53L575.59,-17.53L591.85,-14.66L609.55,-19.92L647.82,-46.72L641.12,-56.29L602.85,-29.49L586.59,-32.36L582.75,-58.19L604.75,-87.85L633.45,-107.95L649.72,-105.09L645.42,-80.69L627.72,-75.42L603.32,-79.72L601.89,-71.59L642.55,-64.42ZM668.38,-68.25L675.08,-58.69L722.92,-92.18L731.05,-90.75L666.48,-9.89L673.18,-0.32L689.45,2.55L733.45,-56.78L760.71,-68.75L785.11,-64.45L797.55,-87.41L782.72,-98.41L765.02,-93.15L734.88,-64.92L726.75,-66.35L747.32,-87.88L748.75,-96.01L742.05,-105.58L716.22,-101.75ZM-239.64,16.55L-216.71,-113.58L-273.64,-123.62L-260.24,-104.48L-323.84,18.48L-351.11,30.44L-294.18,40.48L-307.58,21.34L-242.54,-109.75L-271.21,52.91L-253.51,47.65L-139.68,-74.85L-201.85,39.98L-229.11,51.95L-164.05,63.42L-177.45,44.28L-113.84,-78.68L-86.58,-90.64L-135.38,-99.24ZM9.12,-15.07L2.42,-24.64L-18.15,-3.11L-23.42,-20.81L-54.51,-34.68L-100.91,-9.31L-124.35,28.49L-121.95,62.45L-107.12,73.45L-90.85,76.32L-62.15,56.22L-65.02,72.49L-58.32,82.05L-32.49,78.22L15.35,44.72L8.65,35.16L-39.19,68.65L-47.32,67.22ZM-87.98,60.05L-96.12,58.62L-99.95,32.79L-77.95,3.12L-49.25,-16.98L-32.98,-14.11L-27.72,3.59L-29.15,11.72L-59.28,39.95ZM18.21,28.46L24.91,38.03L72.75,4.53L80.88,5.96L16.31,86.82L23.01,96.39L39.28,99.26L83.28,39.93L110.54,27.96L134.94,32.26L147.38,9.30L132.55,-1.70L114.85,3.56L84.71,31.79L76.58,30.36L97.15,8.83L98.58,0.70L91.88,-8.87L66.05,-5.04ZM160.31,78.66L156.01,103.06L161.27,120.76L177.54,123.63L204.80,111.66L243.07,84.87L236.37,75.30L198.11,102.10L181.84,99.23L175.14,89.66L178.01,73.40L194.27,76.26L220.11,72.43L248.81,52.33L251.67,36.07L230.14,15.50L204.31,19.33L174.17,47.56L166.04,46.13L240.18,-41.43L183.25,-51.46L181.81,-43.33L206.21,-39.03L159.34,36.56L105.77,102.59L112.47,112.16L128.74,115.03L174.17,47.56ZM180.87,57.13L211.01,28.90L219.14,30.33L224.41,48.03L213.41,62.87L195.71,68.13L179.44,65.26Z" fill="#ffffff" stroke="#000000"/>
    <path d="M-781.27,-440.03L-768.49,-420.78L-834.42,-300.75L-861.68,-289.59L-765.59,-270.17L-730.32,-279.71L-701.44,-298.88L-680.57,-319.67L-664.47,-358.09L-672.39,-401.36L-709.20,-425.47ZM-699.74,-348.54L-725.46,-303.73L-754.34,-284.57L-771.98,-279.79L-804.01,-286.27L-810.40,-295.89L-744.46,-415.93L-734.84,-422.32L-710.81,-417.46L-696.42,-406.22L-694.88,-372.57ZM-635.76,-293.94L-630.91,-317.96L-605.18,-362.77L-558.67,-386.71L-542.65,-383.48L-529.87,-364.22L-534.73,-340.20L-518.71,-336.96L-499.46,-349.74L-504.23,-367.38L-541.03,-391.48L-565.06,-396.34L-600.33,-386.80L-629.20,-367.63L-650.07,-346.84L-666.17,-308.42L-658.25,-265.15L-629.45,-242.66L-597.42,-236.18L-570.16,-247.34L-541.29,-266.51L-547.68,-276.14L-576.55,-256.97L-603.81,-245.81L-619.83,-249.05L-634.23,-260.29ZM-340.84,-351.03L-404.90,-363.97L-392.12,-344.72L-458.06,-224.69L-485.32,-213.53L-421.25,-200.58L-434.03,-219.83L-406.69,-272.65L-397.06,-279.04L-316.99,-262.86L-318.60,-254.85L-345.95,-202.03L-373.21,-190.87L-309.15,-177.92L-321.93,-197.18L-255.99,-317.21L-228.73,-328.37L-292.80,-341.32L-280.02,-322.06L-305.74,-277.25L-315.37,-270.86L-395.45,-287.05L-393.83,-295.06L-368.10,-339.87ZM-179.15,-285.01L-171.15,-283.39L-159.90,-297.79L-158.28,-305.80L-172.68,-317.04L-180.69,-318.66L-191.93,-304.26L-193.55,-296.25ZM-280.18,-238.75L-273.80,-229.12L-225.67,-261.07L-217.66,-259.45L-281.89,-189.09L-283.51,-181.08L-277.12,-171.45L-261.10,-168.21L-243.47,-172.99L-195.34,-204.93L-201.73,-214.56L-249.86,-182.61L-257.86,-184.23L-193.63,-254.60L-192.02,-262.61L-206.41,-273.85L-232.05,-270.70ZM-184.18,-177.67L-185.79,-169.67L-179.40,-160.04L-222.68,-152.12L-233.92,-137.72L-230.77,-112.08L-201.98,-89.59L-185.96,-86.35L-152.31,-87.89L-131.44,-108.67L-128.21,-124.69L-161.77,-164.81L-160.15,-172.82L-136.13,-167.96L-91.24,-183.89L-78.37,-206.30L-81.53,-231.94L-57.50,-227.09L-55.88,-235.09L-87.92,-241.57L-118.33,-256.05L-163.22,-240.12L-176.08,-217.71L-166.54,-182.44ZM-121.56,-240.03L-105.55,-236.80L-102.40,-211.15L-104.01,-203.15L-132.89,-183.98L-148.91,-187.22L-152.06,-212.86L-150.44,-220.86ZM-173.02,-150.41L-153.85,-121.54L-157.08,-105.52L-184.34,-94.36L-205.13,-115.23L-209.90,-132.86L-198.66,-147.26ZM3.49,-281.44L-44.72,-207.83L-99.33,-143.86L-92.94,-134.23L-76.92,-130.99L-31.95,-188.58L-3.07,-207.75L14.57,-212.52L20.96,-202.90L-33.65,-138.92L-35.27,-130.91L-28.88,-121.28L-12.86,-118.05L4.77,-122.82L52.90,-154.76L46.51,-164.39L-1.62,-132.44L-9.62,-134.06L43.36,-190.03L48.22,-214.06L25.81,-226.92L0.17,-223.77L-19.08,-210.99L37.14,-282.97L-18.92,-294.30L-20.53,-286.29ZM258.12,-221.64L232.48,-218.49L155.38,-125.72L176.42,-229.82L195.67,-242.60L139.62,-253.93L152.40,-234.67L121.65,-82.53L139.29,-87.30L227.62,-194.47L201.73,-66.34L211.35,-72.73L328.57,-199.07L355.83,-210.23L299.77,-221.56L312.55,-202.31L237.08,-117.54ZM448.60,-133.14L442.21,-142.77L421.34,-121.98L416.57,-139.61L386.16,-154.09L339.65,-130.15L315.54,-93.35L317.07,-59.70L331.47,-48.46L347.49,-45.22L376.36,-64.39L373.13,-48.38L379.52,-38.75L405.16,-41.90L453.29,-73.85L446.90,-83.48L398.77,-51.53L390.76,-53.15ZM350.72,-61.24L342.71,-62.86L339.56,-88.50L362.05,-117.29L390.93,-136.46L406.94,-133.22L411.72,-115.59L410.10,-107.58L379.60,-80.41ZM470.84,-36.96L527.06,-108.95L551.08,-104.09L552.70,-112.10L528.68,-116.96L551.17,-145.75L535.15,-148.99L522.29,-126.58L504.65,-121.81L488.64,-125.05L487.02,-117.04L503.04,-113.80L446.81,-41.82L445.20,-33.81L451.59,-24.18L467.60,-20.95L485.24,-25.72L533.37,-57.67L526.98,-67.29L478.85,-35.34ZM658.34,-57.41L661.57,-73.43L656.80,-91.06L626.39,-105.54L581.50,-89.61L547.76,-46.42L549.30,-12.77L563.69,-1.53L579.71,1.71L597.34,-3.06L635.85,-28.62L629.46,-38.25L590.95,-12.69L574.94,-15.93L571.79,-41.57L594.27,-70.36L623.15,-89.53L639.17,-86.29L634.31,-62.27L616.68,-57.50L592.66,-62.35L591.04,-54.35L631.08,-46.25ZM656.72,-49.41L663.11,-39.78L711.24,-71.73L719.24,-70.11L653.40,8.27L659.79,17.89L675.80,21.13L720.78,-36.46L748.04,-47.62L772.06,-42.77L784.92,-65.17L770.53,-76.41L752.89,-71.64L722.40,-44.47L714.39,-46.09L735.26,-66.87L736.88,-74.88L730.49,-84.51L704.85,-81.35ZM-243.36,12.07L-217.47,-116.06L-273.52,-127.38L-260.74,-108.13L-326.67,11.90L-353.93,23.06L-297.88,34.39L-310.66,15.14L-243.11,-112.90L-275.47,47.25L-257.84,42.48L-142.24,-75.85L-206.56,36.17L-233.82,47.34L-169.75,60.28L-182.53,41.03L-116.60,-79.00L-89.34,-90.16L-137.39,-99.87ZM3.43,-13.07L-2.96,-22.70L-23.83,-1.91L-28.60,-19.54L-59.01,-34.02L-105.53,-10.09L-129.63,26.72L-128.10,60.37L-113.70,71.61L-97.69,74.85L-68.81,55.68L-72.04,71.69L-65.65,81.32L-40.01,78.17L8.12,46.22L1.73,36.59L-46.40,68.54L-54.41,66.92ZM-94.45,58.83L-102.46,57.21L-105.61,31.57L-83.12,2.78L-54.24,-16.39L-38.23,-13.15L-33.46,4.48L-35.07,12.49L-65.57,39.66ZM11.35,30.20L17.74,39.83L65.87,7.88L73.88,9.50L8.03,87.88L14.42,97.50L30.44,100.74L75.42,43.15L102.68,31.99L126.70,36.85L139.56,14.44L125.16,3.20L107.53,7.97L77.03,35.14L69.03,33.53L89.90,12.74L91.51,4.73L85.13,-4.89L59.48,-1.74ZM150.64,83.36L145.78,107.38L150.55,125.01L166.57,128.25L193.83,117.09L232.33,91.53L225.94,81.91L187.44,107.46L171.42,104.23L165.03,94.60L168.27,78.59L184.29,81.82L209.93,78.67L238.81,59.50L242.04,43.49L221.26,22.62L195.61,25.77L165.12,52.95L157.11,51.33L232.58,-33.44L176.53,-44.77L174.91,-36.76L198.94,-31.90L150.72,41.70L96.12,105.68L102.51,115.30L118.52,118.54L165.12,52.95ZM171.51,62.57L202.00,35.40L210.01,37.01L214.78,54.65L203.54,69.04L185.91,73.82L169.89,70.58Z" fill="#ffffff" stroke="#000000"/>
    <path d="M-767.62,-452.93L-755.45,-433.58L-823.61,-316.51L-850.84,-306.15L-756.30,-284.58L-721.19,-293.14L-692.16,-311.38L-671.01,-331.42L-654.15,-369.02L-660.92,-412.00L-696.71,-436.75ZM-689.26,-360.45L-715.80,-316.78L-744.83,-298.54L-762.38,-294.25L-793.89,-301.44L-799.97,-311.12L-731.82,-428.18L-722.14,-434.26L-698.51,-428.87L-684.55,-417.40L-683.86,-384.09ZM-627.34,-304.88L-621.95,-328.52L-595.40,-372.19L-548.82,-394.72L-533.06,-391.12L-520.90,-371.77L-526.30,-348.13L-510.54,-344.54L-491.19,-356.70L-495.47,-374.25L-531.27,-399.00L-554.90,-404.39L-590.01,-395.83L-619.04,-377.58L-640.19,-357.54L-657.05,-319.95L-650.29,-276.96L-622.37,-254.02L-590.85,-246.83L-563.62,-257.19L-534.60,-275.43L-540.68,-285.11L-569.71,-266.87L-596.94,-256.50L-612.69,-260.10L-626.65,-271.57ZM-334.31,-354.06L-397.34,-368.44L-385.17,-349.09L-453.33,-232.02L-480.56,-221.66L-417.53,-207.28L-429.69,-226.63L-401.35,-278.18L-391.68,-284.26L-312.89,-266.29L-314.69,-258.41L-343.03,-206.86L-370.26,-196.49L-307.24,-182.11L-319.40,-201.46L-251.24,-318.53L-224.01,-328.89L-287.04,-343.27L-274.88,-323.92L-301.42,-280.25L-311.10,-274.16L-389.88,-292.14L-388.08,-300.02L-361.54,-343.69ZM-176.06,-284.79L-168.18,-283.00L-156.70,-296.96L-154.91,-304.83L-168.86,-316.31L-176.74,-318.10L-188.22,-304.15L-190.01,-296.27ZM-277.10,-241.54L-271.02,-231.87L-222.64,-262.27L-214.76,-260.47L-280.01,-192.47L-281.80,-184.60L-275.72,-174.92L-259.97,-171.32L-242.41,-175.61L-194.03,-206.01L-200.11,-215.69L-248.49,-185.28L-256.37,-187.08L-191.12,-255.08L-189.33,-262.96L-203.29,-274.43L-228.72,-271.94ZM-183.67,-178.78L-185.47,-170.90L-179.38,-161.23L-222.37,-154.46L-233.85,-140.50L-231.36,-115.07L-203.44,-92.12L-187.69,-88.52L-154.37,-89.21L-133.22,-109.25L-129.63,-125.01L-161.83,-165.51L-160.03,-173.39L-136.40,-167.99L-91.61,-182.64L-78.34,-204.48L-80.83,-229.91L-57.19,-224.52L-55.40,-232.40L-86.91,-239.59L-116.62,-254.66L-161.41,-240.01L-174.68,-218.17L-166.11,-183.06ZM-120.22,-238.90L-104.46,-235.30L-101.98,-209.87L-103.77,-201.99L-132.80,-183.75L-148.56,-187.35L-151.04,-212.78L-149.25,-220.66ZM-173.30,-151.55L-155.06,-122.52L-158.66,-106.77L-185.89,-96.40L-205.93,-117.55L-210.21,-135.11L-198.74,-149.07ZM4.46,-276.76L-45.03,-205.17L-100.60,-143.25L-94.52,-133.57L-78.76,-129.98L-32.87,-185.81L-3.84,-204.06L13.71,-208.34L19.79,-198.66L-35.78,-136.75L-37.58,-128.87L-31.49,-119.19L-15.74,-115.60L1.82,-119.88L50.20,-150.28L44.12,-159.96L-4.26,-129.56L-12.14,-131.35L41.63,-185.39L47.02,-209.03L25.19,-222.30L-0.25,-219.81L-19.60,-207.65L37.77,-277.45L-17.38,-290.03L-19.18,-282.15ZM254.77,-211.36L229.33,-208.87L150.82,-119.04L174.19,-221.45L193.54,-233.62L138.39,-246.20L150.55,-226.85L116.40,-77.16L133.95,-81.44L223.94,-185.24L195.18,-59.18L204.85,-65.26L323.87,-187.30L351.10,-197.66L295.96,-210.25L308.12,-190.89L231.40,-108.94ZM440.94,-119.15L434.86,-128.82L413.71,-108.78L409.43,-126.34L379.71,-141.40L333.13,-118.88L308.38,-83.08L309.07,-49.77L323.03,-38.30L338.79,-34.70L367.81,-52.95L364.22,-37.19L370.30,-27.51L395.73,-30.00L444.11,-60.40L438.03,-70.08L389.65,-39.67L381.77,-41.47ZM342.38,-50.46L334.50,-52.26L332.02,-77.69L354.97,-105.61L383.99,-123.85L399.75,-120.26L404.03,-102.70L402.23,-94.82L371.41,-68.70ZM460.56,-23.50L517.92,-93.29L541.56,-87.90L543.36,-95.78L519.72,-101.17L542.67,-129.09L526.91,-132.68L513.64,-110.84L496.09,-106.56L480.33,-110.16L478.53,-102.28L494.29,-98.68L436.92,-28.89L435.12,-21.01L441.20,-11.33L456.96,-7.74L474.52,-12.02L522.90,-42.43L516.81,-52.10L468.43,-21.70ZM646.46,-39.10L650.06,-54.85L645.77,-72.41L616.06,-87.48L571.27,-72.83L536.85,-30.95L537.54,2.36L551.50,13.83L567.26,17.43L584.81,13.14L623.52,-11.18L617.43,-20.85L578.73,3.47L562.97,-0.13L560.49,-25.56L583.44,-53.48L612.46,-71.72L628.22,-68.12L622.83,-44.49L605.27,-40.21L581.64,-45.60L579.84,-37.72L619.23,-28.73ZM644.66,-31.22L650.75,-21.54L699.13,-51.94L707.00,-50.15L639.96,25.73L646.04,35.40L661.80,39.00L707.69,-16.84L734.92,-27.20L758.56,-21.81L771.83,-43.64L757.87,-55.12L740.31,-50.83L709.49,-24.71L701.61,-26.51L722.76,-46.55L724.56,-54.43L718.48,-64.11L693.04,-61.62ZM-246.87,7.38L-218.10,-118.67L-273.25,-131.26L-261.09,-111.90L-329.24,5.16L-356.48,15.52L-301.33,28.11L-313.49,8.76L-243.54,-116.19L-279.49,41.38L-261.94,37.10L-144.71,-77.06L-211.07,32.13L-238.30,42.49L-175.27,56.87L-187.44,37.52L-119.28,-79.55L-92.05,-89.91L-139.32,-100.70ZM-2.22,-11.39L-8.30,-21.07L-29.45,-1.03L-33.73,-18.58L-63.45,-33.65L-110.03,-11.13L-134.77,24.67L-134.08,57.98L-120.13,69.45L-104.37,73.05L-75.34,54.81L-78.94,70.56L-72.86,80.24L-47.42,77.75L0.96,47.35L-5.12,37.67L-53.50,68.08L-61.38,66.28ZM-100.77,57.29L-108.65,55.49L-111.14,30.06L-88.19,2.14L-59.16,-16.10L-43.41,-12.50L-39.12,5.05L-40.92,12.93L-71.75,39.05ZM4.55,31.59L10.63,41.27L59.01,10.87L66.89,12.66L-0.15,88.54L5.93,98.22L21.68,101.81L67.58,45.98L94.81,35.61L118.44,41.00L131.71,19.17L117.76,7.69L100.20,11.98L69.38,38.10L61.50,36.30L82.65,16.26L84.44,8.38L78.36,-1.29L52.93,1.19ZM140.97,87.59L135.58,111.22L139.86,128.78L155.62,132.37L182.85,122.01L221.55,97.68L215.47,88.01L176.76,112.33L161.01,108.74L154.93,99.06L158.52,83.30L174.28,86.90L199.71,84.41L228.74,66.17L232.34,50.41L212.30,29.27L186.86,31.75L156.04,57.87L148.16,56.07L224.88,-25.88L169.73,-38.47L167.93,-30.59L191.57,-25.20L142.08,46.40L86.51,108.31L92.59,117.99L108.35,121.59L156.04,57.87ZM162.12,67.55L192.94,41.43L200.82,43.22L205.10,60.78L193.63,74.74L176.08,79.02L160.32,75.43Z" fill="#ffffff" stroke="#000000"/>
    <path d="M-753.68,-465.45L-742.13,-446.02L-812.40,-331.95L-839.58,-322.38L-746.64,-298.72L-711.72,-306.32L-682.57,-323.64L-661.16,-342.94L-643.56,-379.69L-649.19,-422.36L-683.97,-447.71ZM-678.48,-372.09L-705.80,-329.56L-734.95,-312.24L-752.41,-308.44L-783.39,-316.32L-789.17,-326.04L-718.90,-440.10L-709.18,-445.87L-685.95,-439.96L-672.43,-428.27L-672.57,-395.32ZM-618.64,-315.62L-612.72,-338.85L-585.40,-381.38L-538.79,-402.50L-523.30,-398.56L-511.75,-379.12L-517.67,-355.89L-502.18,-351.95L-482.75,-363.49L-486.55,-380.96L-521.33,-406.30L-544.56,-412.22L-579.49,-404.61L-608.64,-387.29L-630.04,-368.00L-647.64,-331.25L-642.01,-288.58L-614.98,-265.20L-584.00,-257.32L-556.82,-266.89L-527.67,-284.21L-533.44,-293.93L-562.59,-276.61L-589.77,-267.03L-605.26,-270.98L-618.78,-282.66ZM-327.70,-357.01L-389.66,-372.79L-378.12,-353.35L-448.39,-239.29L-475.57,-229.72L-413.61,-213.94L-425.15,-233.38L-395.86,-283.65L-386.14,-289.42L-308.69,-269.71L-310.67,-261.96L-339.96,-211.69L-367.14,-202.11L-305.18,-186.34L-316.72,-205.78L-246.45,-319.84L-219.27,-329.41L-281.23,-345.19L-269.69,-325.75L-297.01,-283.23L-306.72,-277.45L-384.17,-297.17L-382.20,-304.91L-354.88,-347.44ZM-172.95,-284.63L-165.20,-282.66L-153.51,-296.18L-151.54,-303.92L-165.06,-315.61L-172.80,-317.58L-184.49,-304.07L-186.46,-296.32ZM-273.91,-244.36L-268.14,-234.64L-219.56,-263.51L-211.81,-261.54L-278.00,-195.92L-279.97,-188.17L-274.19,-178.46L-258.70,-174.51L-241.24,-178.31L-192.66,-207.18L-198.43,-216.90L-247.02,-188.03L-254.76,-190.00L-188.58,-255.62L-186.61,-263.37L-200.12,-275.06L-225.33,-273.23ZM-183.09,-180.00L-185.06,-172.26L-179.28,-162.54L-221.95,-156.91L-233.64,-143.39L-231.81,-118.19L-204.77,-94.81L-189.28,-90.87L-156.33,-90.72L-134.93,-110.02L-130.98,-125.51L-161.82,-166.34L-159.85,-174.09L-136.62,-168.17L-91.98,-181.55L-78.32,-202.82L-80.15,-228.02L-56.91,-222.11L-54.94,-229.85L-85.92,-237.74L-114.93,-253.37L-159.57,-239.99L-173.23,-218.73L-165.62,-183.81ZM-118.87,-237.88L-103.38,-233.94L-101.55,-208.73L-103.52,-200.99L-132.67,-183.66L-148.16,-187.61L-149.99,-212.81L-148.02,-220.56ZM-173.51,-152.83L-156.19,-123.68L-160.13,-108.19L-187.31,-98.61L-206.60,-120.02L-210.40,-137.48L-198.72,-151.00ZM5.33,-272.24L-45.36,-202.67L-101.83,-142.83L-96.06,-133.11L-80.57,-129.17L-33.82,-183.24L-4.67,-200.56L12.79,-204.36L18.57,-194.65L-37.90,-134.80L-39.87,-127.05L-34.10,-117.34L-18.61,-113.40L-1.15,-117.20L47.43,-146.06L41.66,-155.78L-6.92,-126.91L-14.67,-128.89L39.83,-180.99L45.75,-204.22L24.48,-217.88L-0.72,-216.05L-20.16,-204.50L38.28,-272.10L-15.93,-285.90L-17.90,-278.15ZM251.20,-201.40L225.99,-199.57L146.15,-112.69L171.78,-213.37L191.21,-224.92L137.00,-238.72L148.54,-219.29L111.08,-72.13L128.55,-75.94L220.08,-176.34L188.53,-52.42L198.25,-58.19L318.93,-175.92L346.11,-185.49L291.90,-199.29L303.44,-179.86L225.57,-100.72ZM433.00,-105.65L427.22,-115.36L405.82,-96.07L402.02,-113.53L373.01,-129.16L326.40,-108.04L301.05,-73.26L300.91,-40.31L314.43,-28.62L329.92,-24.68L359.07,-42.00L355.12,-26.51L360.90,-16.79L386.10,-18.62L434.68,-47.49L428.91,-57.20L380.33,-28.34L372.58,-30.31ZM333.86,-40.17L326.11,-42.14L324.28,-67.34L347.66,-94.38L376.81,-111.70L392.30,-107.76L396.10,-90.30L394.13,-82.55L363.01,-57.49ZM450.03,-10.59L508.47,-78.19L531.71,-72.27L533.68,-80.02L510.45,-85.93L533.82,-112.97L518.33,-116.91L504.67,-95.65L487.21,-91.85L471.72,-95.79L469.75,-88.04L485.24,-84.10L426.80,-16.51L424.83,-8.76L430.60,0.95L446.09,4.90L463.55,1.09L512.13,-27.77L506.36,-37.49L457.78,-8.62ZM634.22,-21.43L638.17,-36.92L634.37,-54.39L605.36,-70.02L560.72,-56.64L525.65,-16.08L525.51,16.87L539.03,28.56L554.52,32.50L571.98,28.70L610.85,5.60L605.07,-4.11L566.21,18.98L550.72,15.04L548.89,-10.17L572.26,-37.21L601.41,-54.53L616.90,-50.58L610.99,-27.35L593.53,-23.55L570.29,-29.46L568.32,-21.72L607.05,-11.86ZM632.25,-13.69L638.03,-3.97L686.61,-32.84L694.35,-30.87L626.20,42.50L631.97,52.21L647.46,56.16L694.21,2.08L721.39,-7.49L744.63,-1.58L758.29,-22.84L744.77,-34.53L727.31,-30.73L696.18,-5.66L688.44,-7.63L709.84,-26.93L711.82,-34.67L706.04,-44.39L680.84,-42.56ZM-250.16,2.50L-218.61,-121.42L-272.83,-135.22L-261.28,-115.79L-331.55,-1.73L-358.73,7.85L-304.52,21.65L-316.06,2.21L-243.82,-119.59L-283.25,35.31L-265.79,31.50L-147.08,-78.47L-215.38,27.84L-242.56,37.42L-180.60,53.19L-192.14,33.76L-121.87,-80.30L-94.69,-89.88L-141.16,-101.71ZM-7.81,-10.03L-13.58,-19.75L-34.99,-0.46L-38.79,-17.92L-67.80,-33.55L-114.41,-12.43L-139.76,22.35L-139.90,55.30L-126.38,66.99L-110.89,70.94L-81.74,53.61L-85.68,69.10L-79.91,78.82L-54.70,76.99L-6.12,48.12L-11.89,38.41L-60.48,67.27L-68.22,65.30ZM-106.95,55.45L-114.69,53.47L-116.52,28.27L-93.15,1.23L-64.00,-16.09L-48.51,-12.15L-44.70,5.31L-46.68,13.06L-77.80,38.12ZM-2.18,32.63L3.60,42.35L52.18,13.48L59.92,15.45L-8.23,88.82L-2.46,98.54L13.03,102.48L59.78,48.41L86.96,38.83L110.20,44.75L123.86,23.48L110.34,11.79L92.88,15.60L61.75,40.66L54.01,38.69L75.41,19.40L77.39,11.65L71.61,1.94L46.41,3.77ZM131.32,91.36L125.40,114.59L129.21,132.05L144.70,136.00L171.87,126.42L210.74,103.33L204.97,93.61L166.10,116.70L150.61,112.76L144.84,103.04L148.78,87.55L164.27,91.50L189.48,89.67L218.63,72.35L222.57,56.86L203.28,35.45L178.07,37.28L146.95,62.35L139.20,60.38L217.08,-18.76L162.86,-32.56L160.89,-24.82L184.13,-18.90L133.43,50.66L76.96,110.51L82.74,120.22L98.23,124.17L146.95,62.35ZM152.72,72.06L183.84,47.00L191.59,48.97L195.39,66.43L183.70,79.95L166.24,83.75L150.75,79.81Z" fill="#ffffff" stroke="#000000"/>
    <path d="M-903.88,492L-906.92,488.96L-902.36,482.88L-893.24,482.88L-891.72,484.40L-891.72,488.96L-894.76,492L-884.12,492L-887.16,488.96L-887.16,460.08L-891.72,463.12L-891.72,464.64L-909.96,488.96L-914.52,492ZM-891.72,467.68L-891.72,479.84L-893.24,481.36L-900.84,481.36L-899.32,478.32ZM-862.84,476.80L-864.36,481.36L-870.44,487.44L-875,488.96L-876.52,488.96L-867.40,475.28L-867.40,472.24L-870.44,470.72L-875,472.24L-882.60,479.84L-881.08,481.36L-873.48,473.76L-871.96,473.76L-881.08,488.96L-881.08,490.48L-879.56,492L-876.52,492L-868.92,488.96L-862.84,482.88L-859.80,476.80L-859.80,473.76L-861.32,472.24L-864.36,472.24L-865.88,475.28L-864.36,476.80ZM-835.48,472.24L-837,470.72L-840.04,475.28L-841.56,472.24L-847.64,470.72L-855.24,476.80L-858.28,484.40L-856.76,490.48L-853.72,492L-850.68,492L-846.12,487.44L-846.12,490.48L-844.60,492L-840.04,490.48L-832.44,482.88L-833.96,481.36L-841.56,488.96L-843.08,488.96ZM-850.68,488.96L-852.20,488.96L-853.72,484.40L-850.68,478.32L-846.12,473.76L-843.08,473.76L-841.56,476.80L-841.56,478.32L-846.12,484.40ZM-832.44,479.84L-830.92,481.36L-823.32,473.76L-821.80,473.76L-830.92,490.48L-829.40,492L-826.36,492L-820.28,479.84L-815.72,476.80L-811.16,476.80L-809.64,472.24L-812.68,470.72L-815.72,472.24L-820.28,478.32L-821.80,478.32L-818.76,473.76L-818.76,472.24L-820.28,470.72L-824.84,472.24ZM-788.36,472.24L-789.88,470.72L-792.92,475.28L-794.44,472.24L-800.52,470.72L-808.12,476.80L-811.16,484.40L-809.64,490.48L-806.60,492L-803.56,492L-799,487.44L-799,490.48L-797.48,492L-792.92,490.48L-785.32,482.88L-786.84,481.36L-794.44,488.96L-795.96,488.96ZM-803.56,488.96L-805.08,488.96L-806.60,484.40L-803.56,478.32L-799,473.76L-795.96,473.76L-794.44,476.80L-794.44,478.32L-799,484.40ZM-783.80,479.84L-783.80,482.88L-774.68,482.88L-774.68,479.84ZM-765.56,461.60L-762.52,464.64L-770.12,488.96L-773.16,492L-757.96,492L-750.36,488.96L-745.80,482.88L-747.32,476.80L-751.88,475.28L-748.84,473.76L-744.28,469.20L-745.80,463.12L-753.40,461.60ZM-765.56,488.96L-757.96,464.64L-756.44,463.12L-753.40,463.12L-750.36,464.64L-750.36,469.20L-753.40,473.76L-757.96,475.28L-761,475.28L-761,476.80L-756.44,476.80L-753.40,478.32L-751.88,482.88L-754.92,487.44L-761,490.48L-764.04,490.48ZM-736.68,492L-733.64,492L-726.04,487.44L-721.48,478.32L-724.52,472.24L-730.60,470.72L-738.20,475.28L-742.76,484.40L-739.72,490.48ZM-730.60,473.76L-727.56,473.76L-726.04,478.32L-729.08,484.40L-733.64,488.96L-736.68,488.96L-738.20,484.40L-735.16,478.32ZM-715.40,488.96L-701.72,460.08L-712.36,460.08L-712.36,461.60L-707.80,461.60L-719.96,488.96L-719.96,490.48L-716.92,492L-712.36,490.48L-704.76,482.88L-706.28,481.36L-713.88,488.96ZM-689.56,492L-688.04,492L-685,490.48L-677.40,482.88L-678.92,481.36L-686.52,488.96L-688.04,488.96L-674.36,460.08L-685,460.08L-685,461.60L-680.44,461.60L-685,475.28L-686.52,472.24L-692.60,470.72L-700.20,476.80L-703.24,484.40L-701.72,490.48L-698.68,492L-695.64,492L-691.08,487.44L-691.08,490.48ZM-695.64,488.96L-697.16,488.96L-698.68,484.40L-695.64,478.32L-691.08,473.76L-688.04,473.76L-686.52,476.80L-686.52,478.32L-691.08,484.40ZM-669.80,488.96L-662.20,464.64L-657.64,461.60L-669.80,461.60L-666.76,464.64L-674.36,488.96L-678.92,492L-666.76,492ZM-657.64,488.96L-650.04,473.76L-645.48,473.76L-645.48,472.24L-650.04,472.24L-647,466.16L-650.04,466.16L-651.56,470.72L-654.60,472.24L-657.64,472.24L-657.64,473.76L-654.60,473.76L-662.20,488.96L-662.20,490.48L-660.68,492L-657.64,492L-654.60,490.48L-647,482.88L-648.52,481.36L-656.12,488.96ZM-621.16,472.24L-622.68,470.72L-625.72,475.28L-627.24,472.24L-633.32,470.72L-640.92,476.80L-643.96,484.40L-642.44,490.48L-639.40,492L-636.36,492L-631.80,487.44L-631.80,490.48L-630.28,492L-625.72,490.48L-618.12,482.88L-619.64,481.36L-627.24,488.96L-628.76,488.96ZM-636.36,488.96L-637.88,488.96L-639.40,484.40L-636.36,478.32L-631.80,473.76L-628.76,473.76L-627.24,476.80L-627.24,478.32L-631.80,484.40ZM-613.56,488.96L-599.88,460.08L-610.52,460.08L-610.52,461.60L-605.96,461.60L-618.12,488.96L-618.12,490.48L-615.08,492L-610.52,490.48L-602.92,482.88L-604.44,481.36L-612.04,488.96ZM-586.20,467.68L-584.68,467.68L-583.16,464.64L-583.16,463.12L-586.20,461.60L-587.72,461.60L-589.24,464.64L-589.24,466.16ZM-602.92,479.84L-601.40,481.36L-593.80,473.76L-592.28,473.76L-601.40,488.96L-601.40,490.48L-599.88,492L-596.84,492L-593.80,490.48L-586.20,482.88L-587.72,481.36L-595.32,488.96L-596.84,488.96L-587.72,473.76L-587.72,472.24L-590.76,470.72L-595.32,472.24ZM-564.92,478.32L-564.92,475.28L-566.44,472.24L-572.52,470.72L-580.12,475.28L-584.68,484.40L-583.16,490.48L-580.12,492L-577.08,492L-574.04,490.48L-567.96,484.40L-569.48,482.88L-575.56,488.96L-578.60,488.96L-580.12,484.40L-577.08,478.32L-572.52,473.76L-569.48,473.76L-569.48,478.32Z"/>
</svg>