<?xml version="1.0"?>
<svg xmlns="http://www.w3.org/2000/svg" width="1920" height="1080" viewBox="-960 -540 1920 1080">
    <path d="M-329.89,-205.16L-318.79,-213.38L-318.79,-215.60L-379.18,-215.60L-379.18,-213.16L-356.98,-201.17L-356.98,-164.54C-362.75,-161.65 -370.30,-160.32 -374.51,-160.32C-412.25,-160.32 -420.02,-202.72 -420.02,-236.91C-420.02,-271.76 -408.48,-289.75 -387.17,-289.75C-363.19,-289.75 -351.87,-271.54 -342.32,-253.78L-339.44,-253.78L-339.44,-298.85L-372.52,-298.85C-423.35,-298.85 -451.55,-257.11 -451.55,-217.60C-451.55,-174.08 -427.79,-144.11 -389.83,-144.11C-375.85,-144.11 -363.41,-150.11 -353.20,-157.43L-333.22,-145.67L-329.89,-145.67ZM-217.34,-221.37L-216.67,-222.26L-235.32,-258.89L-238.21,-258.89C-251.30,-240.24 -262.18,-212.27 -268.62,-187.40L-268.62,-258L-309.25,-243.13L-294.15,-226.03L-294.15,-147L-266.84,-147L-268.62,-160.54C-268.62,-182.96 -249.75,-228.03 -246.64,-229.36ZM-183.82,-147C-170.72,-168.09 -155.40,-198.06 -147.63,-229.81L-150.29,-204.05L-150.29,-147L-107.89,-147L-124.32,-166.09L-124.32,-243.79L-115.88,-255.78L-141.19,-255.78C-187.59,-254.89 -212.90,-224.48 -212.90,-183.19C-212.90,-165.20 -206.90,-149.22 -200.24,-144.56ZM-180.26,-164.09C-182.93,-164.09 -185.37,-173.42 -185.37,-195.17C-185.37,-217.60 -179.60,-249.12 -149.85,-249.34C-150.07,-225.81 -176.05,-164.09 -180.26,-164.09ZM-42.40,-222.92L-43.51,-255.78L-59.27,-255.78C-83.69,-255.78 -97.68,-237.13 -97.68,-221.37C-97.68,-197.17 -53.95,-186.07 -53.95,-164.32C-53.95,-158.32 -57.50,-155.44 -64.16,-155.44C-77.03,-155.44 -88.36,-169.20 -100.34,-186.74L-101.01,-184.74L-95.68,-147L-77.48,-147C-48.84,-147 -36.41,-165.65 -36.41,-180.30C-36.41,-203.83 -80.81,-221.15 -80.81,-236.69C-80.81,-242.24 -79.25,-245.12 -73.04,-245.12C-63.27,-245.12 -52.17,-235.80 -43.73,-222.70ZM38.41,-255.78C28.64,-236.24 19.31,-212.05 12.65,-185.63L12.65,-259.11L-27.97,-246.46L-12.88,-229.36L-12.88,-113.92L-18.20,-99.27L29.08,-99.27L12.65,-111.70L12.65,-138.34C53.72,-143.67 75.04,-178.08 75.04,-207.16C75.04,-228.92 67.27,-249.12 60.38,-259.78ZM12.65,-158.10C12.65,-179.41 32.41,-235.58 36.85,-235.58C40.85,-235.58 47.51,-218.71 47.51,-195.17C47.51,-176.08 42.18,-144.34 12.65,-144.11ZM202.91,-253.34L202.91,-255.78L167.61,-255.78L167.61,-293.52L142.52,-255.78L126.76,-255.78L141.86,-242.68L141.86,-179.63C142.30,-145.89 158.95,-144.34 166.94,-144.34C180.71,-144.34 196.03,-165.87 202.24,-190.51L199.80,-191.40C195.14,-177.64 185.15,-160.76 178.04,-160.76C172.05,-160.76 167.61,-162.10 167.61,-186.52L167.61,-242.02ZM248.86,-304.62L208.24,-291.97L223.33,-274.87L223.33,-147L252.19,-147L248.86,-160.54C248.86,-179.19 264.62,-216.04 275.72,-238.02L277.50,-237.80C279.94,-229.14 281.94,-213.60 281.94,-178.97L281.94,-147L323.90,-147L307.47,-166.09L307.47,-191.84C307.47,-237.13 307.03,-243.57 301.25,-261.33L279.50,-255.78C274.84,-249.34 257.52,-217.15 248.86,-184.30ZM408.26,-197.39C408.26,-197.39 392.94,-160.10 376.96,-160.10C368.96,-160.10 362.97,-172.75 360.97,-191.18L409.81,-233.14C409.81,-237.58 403.15,-258.67 382.06,-258.67C354.76,-258.67 332.11,-220.70 332.11,-188.74C332.11,-159.21 345.21,-144.34 364.97,-144.34C386.50,-144.34 406.04,-176.08 411.81,-195.17ZM360.53,-196.51C360.31,-199.61 360.08,-202.94 360.08,-206.50C360.08,-242.02 366.97,-249.34 370.96,-251.78C373.85,-253.78 384.95,-243.13 386.06,-220.70ZM-498.17,79.88L-513.71,103.42L-455.10,103.42L-470.64,79.88L-470.64,-25.12L-455.10,-48.65L-513.71,-48.65L-498.17,-25.12ZM-401.82,-7.58L-442.45,7.29L-427.35,24.38L-427.35,103.42L-398.49,103.42L-401.82,89.87C-401.82,71.23 -386.06,34.37 -374.96,12.40L-373.18,12.62C-370.74,21.28 -368.74,36.82 -368.74,71.45L-368.74,103.42L-340.10,103.42L-343.21,90.76L-343.21,85.66C-341.21,65.45 -325.90,30.38 -315.46,10.40C-312.80,18.39 -310.36,33.26 -310.36,71.45L-310.36,102.75L-268.40,102.75L-284.83,84.32L-284.83,58.57C-284.83,13.28 -285.27,6.85 -291.04,-10.91L-312.80,-5.36C-317.46,1.07 -334.55,32.60 -343.21,65.23L-343.21,58.57C-343.21,13.28 -343.66,6.85 -349.43,-10.91L-371.18,-5.36C-375.85,1.07 -393.16,33.26 -401.82,66.12ZM-222.89,-7.58L-263.51,7.29L-248.42,24.38L-248.42,103.42L-219.56,103.42L-222.89,89.87C-222.89,71.23 -207.13,34.37 -196.03,12.40L-194.25,12.62C-191.81,21.28 -189.81,36.82 -189.81,71.45L-189.81,103.42L-161.17,103.42L-164.28,90.76L-164.28,85.66C-162.28,65.45 -146.96,30.38 -136.53,10.40C-133.87,18.39 -131.42,33.26 -131.42,71.45L-131.42,102.75L-89.47,102.75L-105.89,84.32L-105.89,58.57C-105.89,13.28 -106.34,6.85 -112.11,-10.91L-133.87,-5.36C-138.53,1.07 -155.62,32.60 -164.28,65.23L-164.28,58.57C-164.28,13.28 -164.72,6.85 -170.50,-10.91L-192.25,-5.36C-196.91,1.07 -214.23,33.26 -222.89,66.12ZM-51.28,103.42C-38.18,82.33 -22.87,52.36 -15.10,20.61L-17.76,46.36L-17.76,103.42L24.64,103.42L8.21,84.32L8.21,6.62L16.65,-5.36L-8.66,-5.36C-55.06,-4.48 -80.36,25.94 -80.36,67.23C-80.36,85.21 -74.37,101.20 -67.71,105.86ZM-47.73,86.32C-50.39,86.32 -52.84,77.00 -52.84,55.24C-52.84,32.82 -47.06,1.30 -17.32,1.07C-17.54,24.61 -43.51,86.32 -47.73,86.32ZM102.12,-2.92L102.12,-5.36L66.82,-5.36L66.82,-43.10L41.74,-5.36L25.97,-5.36L41.07,7.73L41.07,70.78C41.51,104.53 58.16,106.08 66.16,106.08C79.92,106.08 95.24,84.55 101.45,59.90L99.01,59.02C94.35,72.78 84.36,89.65 77.26,89.65C71.26,89.65 66.82,88.32 66.82,63.90L66.82,8.40ZM189.14,53.02C189.14,53.02 173.83,90.32 157.84,90.32C149.85,90.32 143.86,77.66 141.86,59.24L190.70,17.28C190.70,12.84 184.04,-8.25 162.95,-8.25C135.64,-8.25 113.00,29.71 113.00,61.68C113.00,91.21 126.10,106.08 145.85,106.08C167.39,106.08 186.92,74.33 192.70,55.24ZM141.41,53.91C141.19,50.80 140.97,47.47 140.97,43.92C140.97,8.40 147.85,1.07 151.85,-1.37C154.73,-3.37 165.83,7.29 166.94,29.71ZM291.93,29.05L292.60,28.16L273.95,-8.47L271.06,-8.47C257.96,10.18 247.09,38.15 240.65,63.01L240.65,-7.58L200.02,7.29L215.12,24.38L215.12,103.42L242.42,103.42L240.65,89.87C240.65,67.45 259.52,22.39 262.63,21.05ZM337.66,-38.44L319.24,-58.87L300.59,-38.44L319.24,-17.80ZM333.22,84.32L333.22,-7.58L292.60,7.29L307.69,24.38L307.69,103.42L349.65,103.42ZM386.28,103.42C399.38,82.33 414.70,52.36 422.47,20.61L419.80,46.36L419.80,103.42L462.20,103.42L445.78,84.32L445.78,6.62L454.21,-5.36L428.90,-5.36C382.51,-4.48 357.20,25.94 357.20,67.23C357.20,85.21 363.19,101.20 369.85,105.86ZM389.83,86.32C387.17,86.32 384.73,77.00 384.73,55.24C384.73,32.82 390.50,1.30 420.25,1.07C420.02,24.61 394.05,86.32 389.83,86.32ZM481.07,-24.46L481.07,-17.80L465.98,-11.36L481.07,5.74L481.07,103.42L523.03,103.42L506.60,84.32L506.60,-54.20L465.98,-41.55Z" fill="#ffffff" stroke="#000000"/>
    <path d="M-329.81,-204.60L-318.71,-212.58L-318.68,-214.78L-378.46,-215.58L-378.49,-213.16L-356.68,-201.00L-357.16,-164.74C-362.92,-161.96 -370.40,-160.74 -374.58,-160.80C-411.94,-161.30 -419.07,-203.38 -418.61,-237.22C-418.15,-271.72 -406.48,-289.37 -385.38,-289.09C-361.65,-288.77 -350.68,-270.60 -341.47,-252.89L-338.61,-252.85L-338.01,-297.46L-370.76,-297.90C-421.08,-298.58 -449.55,-257.64 -450.07,-218.52C-450.65,-175.45 -427.54,-145.47 -389.96,-144.96C-376.11,-144.77 -363.73,-150.54 -353.52,-157.66L-333.90,-145.74L-330.60,-145.70ZM-218.18,-219.14L-217.51,-220.01L-235.48,-256.52L-238.34,-256.56C-251.55,-238.27 -262.69,-210.73 -269.39,-186.20L-268.45,-256.08L-308.87,-241.90L-294.15,-224.78L-295.20,-146.54L-268.17,-146.18L-269.75,-159.61C-269.45,-181.80 -250.17,-226.16 -247.08,-227.44ZM-185.98,-145.07C-172.74,-165.78 -157.17,-195.24 -149.06,-226.56L-152.04,-201.11L-152.80,-144.63L-110.83,-144.06L-126.83,-163.18L-125.80,-240.10L-117.29,-251.85L-142.34,-252.19C-188.28,-251.93 -213.74,-222.16 -214.29,-181.28C-214.53,-163.48 -208.81,-147.58 -202.28,-142.88ZM-182.24,-161.95C-184.88,-161.98 -187.17,-171.25 -186.88,-192.78C-186.58,-214.98 -180.45,-246.11 -151.00,-245.93C-151.53,-222.64 -178.06,-161.89 -182.24,-161.95ZM-44.99,-218.35L-45.65,-250.89L-61.25,-251.10C-85.42,-251.42 -99.52,-233.15 -99.73,-217.55C-100.05,-193.59 -56.90,-182.02 -57.19,-160.49C-57.27,-154.55 -60.83,-151.74 -67.42,-151.83C-80.17,-152.00 -91.19,-165.78 -102.82,-183.30L-103.51,-181.33L-98.74,-143.90L-80.72,-143.66C-52.37,-143.28 -39.81,-161.57 -39.62,-176.08C-39.31,-199.37 -83.03,-217.10 -82.82,-232.49C-82.75,-237.98 -81.17,-240.82 -75.02,-240.73C-65.35,-240.60 -54.48,-231.23 -46.31,-218.15ZM35.44,-249.80C25.51,-230.59 15.96,-206.76 9.02,-180.70L10.00,-253.44L-30.39,-241.45L-15.67,-224.33L-17.21,-110.05L-22.68,-95.62L24.13,-94.99L8.03,-107.52L8.39,-133.89C49.12,-138.62 70.67,-172.39 71.06,-201.18C71.35,-222.72 63.92,-242.82 57.25,-253.46ZM8.65,-153.45C8.94,-174.54 29.24,-229.88 33.64,-229.82C37.59,-229.77 43.96,-212.98 43.65,-189.68C43.39,-170.78 37.70,-139.43 8.47,-139.60ZM198.25,-245.19L198.29,-247.61L163.34,-248.08L163.85,-285.44L138.51,-248.41L122.91,-248.62L137.68,-235.46L136.84,-173.04C136.83,-139.63 153.29,-137.87 161.20,-137.77C174.83,-137.58 190.28,-158.70 196.76,-183.01L194.35,-183.92C189.55,-170.36 179.44,-153.79 172.41,-153.88C166.48,-153.96 162.10,-155.34 162.42,-179.51L163.16,-234.45ZM244.43,-295.34L204.04,-283.36L218.76,-266.24L217.06,-139.65L245.63,-139.27L242.51,-152.72C242.76,-171.18 258.85,-207.45 270.13,-229.06L271.89,-228.81C274.19,-220.21 275.96,-204.80 275.50,-170.52L275.07,-138.87L316.61,-138.31L300.60,-157.43L300.94,-182.93C301.55,-227.76 301.19,-234.14 295.71,-251.79L274.10,-246.59C269.40,-240.28 251.83,-208.64 242.83,-176.23ZM400.79,-187.08C400.79,-187.08 385.13,-150.36 369.30,-150.57C361.39,-150.68 355.63,-163.29 353.90,-181.55L402.80,-222.44C402.86,-226.83 396.55,-247.80 375.67,-248.08C348.64,-248.44 325.72,-211.17 325.29,-179.52C324.90,-150.29 337.67,-135.39 357.23,-135.13C378.54,-134.84 398.31,-166.01 404.27,-184.83ZM353.53,-186.83C353.35,-189.91 353.17,-193.21 353.22,-196.73C353.69,-231.89 360.60,-239.05 364.59,-241.42C367.48,-243.35 378.32,-232.66 379.12,-210.45ZM-500.18,75.34L-515.88,98.42L-457.86,99.20L-472.93,75.70L-471.54,-28.24L-455.84,-51.33L-513.86,-52.11L-498.79,-28.61ZM-403.64,-9.97L-444.06,4.22L-429.34,21.34L-430.39,99.57L-401.83,99.96L-404.94,86.51C-404.69,68.05 -388.60,31.78 -377.32,10.17L-375.56,10.41C-373.26,19.02 -371.49,34.43 -371.95,68.71L-372.38,100.35L-344.03,100.73L-346.94,88.17L-346.87,83.11C-344.62,63.14 -328.99,28.62 -318.40,8.98C-315.87,16.93 -313.65,31.69 -314.16,69.49L-314.57,100.47L-273.04,101.03L-289.05,82.57L-288.71,57.08C-288.11,12.25 -288.46,5.87 -293.94,-11.79L-315.55,-6.58C-320.25,-0.27 -337.59,30.70 -346.60,62.89L-346.51,56.30C-345.91,11.47 -346.26,5.09 -351.74,-12.57L-373.35,-7.36C-378.05,-1.05 -395.62,30.58 -404.63,62.99ZM-226.52,-7.58L-266.93,6.60L-252.22,23.72L-253.27,101.96L-224.70,102.34L-227.82,88.89C-227.57,70.43 -211.47,34.16 -200.19,12.55L-198.44,12.79C-196.14,21.40 -194.36,36.81 -194.83,71.09L-195.25,102.74L-166.90,103.12L-169.81,90.55L-169.74,85.49C-167.50,65.52 -151.86,31.00 -141.27,11.37C-138.74,19.31 -136.52,34.07 -137.03,71.87L-137.45,102.85L-95.91,103.41L-111.93,84.95L-111.58,59.46C-110.98,14.63 -111.34,8.25 -116.81,-9.41L-138.42,-4.20C-143.12,2.11 -160.47,33.09 -169.47,65.28L-169.38,58.68C-168.78,13.85 -169.13,7.47 -174.61,-10.18L-196.22,-4.98C-200.92,1.33 -218.49,32.97 -227.50,65.38ZM-58.12,104.58C-44.87,83.88 -29.31,54.41 -21.20,23.09L-24.18,48.55L-24.94,105.03L17.04,105.59L1.03,86.47L2.06,9.56L10.57,-2.20L-14.48,-2.54C-60.42,-2.27 -85.88,27.50 -86.43,68.37C-86.67,86.17 -80.95,102.07 -74.42,106.78ZM-54.38,87.71C-57.01,87.67 -59.31,78.41 -59.02,56.87C-58.72,34.68 -52.59,3.55 -23.13,3.72C-23.67,27.01 -50.20,87.76 -54.38,87.71ZM95.15,1.36L95.18,-1.06L60.24,-1.53L60.74,-38.89L35.41,-1.86L19.80,-2.07L34.57,11.09L33.73,73.50C33.72,106.91 50.19,108.67 58.10,108.78C71.72,108.96 87.17,87.85 93.65,63.54L91.25,62.63C86.45,76.19 76.34,92.76 69.30,92.67C63.37,92.59 58.99,91.21 59.32,67.03L60.06,12.09ZM180.55,57.89C180.55,57.89 164.89,94.61 149.07,94.40C141.16,94.29 135.39,81.69 133.66,63.42L182.56,22.53C182.62,18.14 176.31,-2.83 155.43,-3.11C128.40,-3.47 105.48,33.81 105.06,65.45C104.66,94.68 117.43,109.58 136.99,109.84C158.31,110.13 178.07,78.96 184.04,60.14ZM133.29,58.14C133.11,55.06 132.94,51.76 132.98,48.24C133.46,13.08 140.37,5.92 144.35,3.56C147.24,1.62 158.08,12.31 158.88,34.52ZM282.62,35.53L283.29,34.66L265.32,-1.85L262.46,-1.89C249.25,16.40 238.11,43.94 231.40,68.47L232.34,-1.41L191.93,12.77L206.64,29.89L205.59,108.13L232.62,108.49L231.04,95.06C231.34,72.87 250.62,28.50 253.72,27.23ZM328.79,-30.67L310.82,-51.13L292.09,-31.16L310.27,-10.48ZM322.76,90.80L323.98,-0.18L283.57,14.00L298.28,31.12L297.23,109.36L338.77,109.92ZM375.03,110.41C388.27,89.70 403.84,60.24 411.95,28.92L408.97,54.37L408.21,110.85L450.18,111.42L434.18,92.30L435.21,15.38L443.72,3.63L418.67,3.29C372.73,3.55 347.27,33.32 346.72,74.20C346.48,92.00 352.20,107.90 358.73,112.60ZM378.77,93.53C376.13,93.50 373.84,84.23 374.13,62.70C374.43,40.50 380.56,9.37 410.01,9.55C409.48,32.84 382.95,93.59 378.77,93.53ZM470.57,-14.91L470.48,-8.32L455.45,-2.15L470.16,14.97L468.86,111.67L510.40,112.23L494.39,93.11L496.23,-44.02L455.85,-32.04Z" fill="#ffffff" stroke="#000000"/>
    <path d="M-329.68,-204.12L-318.59,-211.87L-318.53,-214.05L-377.69,-215.64L-377.75,-213.25L-356.32,-200.92L-357.29,-165.04C-363.02,-162.36 -370.45,-161.25 -374.58,-161.37C-411.55,-162.36 -418.05,-204.10 -417.14,-237.60C-416.23,-271.74 -404.44,-289.05 -383.57,-288.49C-360.08,-287.86 -349.47,-269.73 -340.58,-252.08L-337.75,-252.00L-336.57,-296.15L-368.97,-297.02C-418.77,-298.36 -447.49,-258.22 -448.54,-219.51C-449.68,-176.88 -427.20,-146.89 -390.01,-145.89C-376.31,-145.52 -363.97,-151.07 -353.78,-157.98L-334.51,-145.92L-331.25,-145.84ZM-218.99,-217.03L-218.32,-217.88L-235.62,-254.26L-238.45,-254.33C-251.77,-236.41 -263.17,-209.30 -270.13,-185.11L-268.27,-254.27L-308.46,-240.77L-294.12,-223.62L-296.20,-146.20L-269.45,-145.48L-270.84,-158.79C-270.24,-180.76 -250.57,-224.41 -247.49,-225.63ZM-188.11,-143.29C-174.73,-163.61 -158.93,-192.56 -150.48,-223.46L-153.77,-198.30L-155.27,-142.41L-113.74,-141.29L-129.33,-160.43L-127.28,-236.54L-118.70,-248.07L-143.49,-248.73C-188.97,-249.09 -214.56,-219.96 -215.65,-179.51C-216.12,-161.89 -210.67,-146.07 -204.27,-141.33ZM-184.18,-159.94C-186.79,-160.01 -188.94,-169.21 -188.37,-190.53C-187.78,-212.49 -181.29,-243.22 -152.14,-242.65C-152.98,-219.61 -180.05,-159.83 -184.18,-159.94ZM-47.58,-213.94L-47.80,-246.16L-63.24,-246.57C-87.16,-247.22 -101.36,-229.32 -101.77,-213.88C-102.41,-190.17 -59.86,-178.14 -60.43,-156.83C-60.59,-150.96 -64.15,-148.23 -70.67,-148.40C-83.28,-148.74 -94.01,-162.52 -105.29,-180.02L-106.00,-178.08L-101.77,-140.97L-83.94,-140.49C-55.89,-139.73 -43.22,-157.67 -42.83,-172.03C-42.21,-195.08 -85.25,-213.21 -84.84,-228.44C-84.69,-233.88 -83.09,-236.66 -77.01,-236.50C-67.44,-236.24 -56.81,-226.81 -48.89,-213.76ZM32.45,-244.00C22.37,-225.12 12.60,-201.66 5.37,-175.95L7.31,-247.94L-32.82,-236.62L-18.48,-219.47L-21.53,-106.38L-27.13,-92.17L19.19,-90.92L3.43,-103.53L4.13,-129.63C44.50,-133.77 66.29,-166.92 67.05,-195.41C67.63,-216.72 60.55,-236.71 54.09,-247.34ZM4.65,-148.99C5.21,-169.87 26.05,-224.37 30.40,-224.25C34.31,-224.14 40.39,-207.44 39.77,-184.39C39.27,-165.68 33.21,-134.72 4.28,-135.29ZM193.54,-237.27L193.61,-239.66L159.03,-240.59L160.02,-277.57L134.45,-241.26L119.01,-241.67L133.45,-228.44L131.79,-166.68C131.34,-133.61 147.61,-131.65 155.44,-131.44C168.92,-131.07 184.49,-151.77 191.23,-175.74L188.86,-176.68C183.93,-163.32 173.70,-147.05 166.74,-147.24C160.87,-147.40 156.56,-148.82 157.20,-172.74L158.66,-227.11ZM239.91,-286.30L199.78,-274.97L214.12,-257.83L210.75,-132.56L239.02,-131.80L236.11,-145.15C236.61,-163.42 253.02,-199.11 264.47,-220.35L266.20,-220.08C268.37,-211.54 269.92,-196.26 269.00,-162.33L268.16,-131.02L309.27,-129.91L293.68,-149.05L294.35,-174.27C295.55,-218.64 295.28,-224.96 290.10,-242.51L268.64,-237.65C263.90,-231.46 246.09,-200.38 236.74,-168.42ZM393.24,-177.05C393.24,-177.05 377.25,-140.92 361.59,-141.34C353.76,-141.55 348.22,-154.11 346.75,-172.21L395.70,-212.03C395.82,-216.38 389.85,-237.21 369.19,-237.77C342.44,-238.49 319.25,-201.90 318.41,-170.58C317.63,-141.65 330.07,-126.74 349.43,-126.22C370.53,-125.65 390.50,-156.24 396.66,-174.79ZM346.45,-177.44C346.32,-180.49 346.19,-183.76 346.28,-187.24C347.22,-222.04 354.15,-229.03 358.13,-231.32C361.01,-233.20 371.61,-222.47 372.10,-200.48ZM-502.05,70.69L-517.89,93.33L-460.48,94.88L-475.08,71.42L-472.31,-31.45L-456.47,-54.10L-513.88,-55.64L-499.28,-32.18ZM-405.36,-12.46L-445.55,1.04L-431.21,18.19L-433.29,95.61L-405.02,96.37L-407.92,83.02C-407.43,64.75 -391.02,29.06 -379.57,7.82L-377.83,8.09C-375.67,16.63 -374.12,31.91 -375.03,65.84L-375.88,97.15L-347.82,97.91L-350.53,85.43L-350.40,80.43C-347.91,60.69 -331.98,26.73 -321.23,7.43C-318.83,15.33 -316.83,29.97 -317.84,67.38L-318.66,98.04L-277.56,99.15L-293.16,80.66L-292.49,55.43C-291.29,11.07 -291.56,4.75 -296.74,-12.80L-318.20,-7.94C-322.94,-1.75 -340.52,28.68 -349.86,60.42L-349.68,53.90C-348.49,9.53 -348.76,3.21 -353.94,-14.34L-375.40,-9.48C-380.14,-3.29 -397.95,27.79 -407.30,59.75ZM-230.07,-7.74L-270.26,5.76L-255.92,22.90L-258.00,100.33L-229.73,101.09L-232.63,87.73C-232.14,69.46 -215.73,33.78 -204.28,12.54L-202.54,12.80C-200.38,21.35 -198.83,36.63 -199.74,70.55L-200.59,101.87L-172.53,102.62L-175.24,90.15L-175.11,85.14C-172.62,65.41 -156.69,31.45 -145.94,12.15C-143.54,20.05 -141.54,34.68 -142.55,72.09L-143.37,102.76L-102.27,103.86L-117.87,85.38L-117.20,60.15C-116.00,15.78 -116.27,9.47 -121.45,-8.08L-142.91,-3.22C-147.65,2.96 -165.23,33.39 -174.57,65.14L-174.39,58.61C-173.20,14.25 -173.47,7.93 -178.65,-9.62L-200.11,-4.76C-204.85,1.42 -222.66,32.50 -232.01,64.46ZM-64.88,105.52C-51.49,85.21 -35.69,56.25 -27.25,25.35L-30.53,50.51L-32.04,106.40L9.50,107.52L-6.09,88.39L-4.04,12.27L4.54,0.75L-20.25,0.08C-65.73,-0.27 -91.33,28.85 -92.41,69.31C-92.89,86.92 -87.44,102.74 -81.04,107.48ZM-60.95,88.87C-63.56,88.80 -65.70,79.60 -65.13,58.29C-64.54,36.32 -58.05,5.59 -28.91,6.16C-29.74,29.20 -56.82,88.98 -60.95,88.87ZM88.20,5.39L88.27,3.00L53.69,2.07L54.68,-34.90L29.11,1.41L13.67,0.99L28.12,14.22L26.45,75.99C26.00,109.05 42.27,111.02 50.10,111.23C63.58,111.59 79.16,90.90 85.90,66.92L83.53,65.99C78.60,79.35 68.37,95.61 61.41,95.42C55.53,95.27 51.22,93.84 51.86,69.92L53.33,15.55ZM171.98,62.49C171.98,62.49 155.99,98.62 140.34,98.20C132.51,97.99 126.97,85.44 125.50,67.33L174.45,27.52C174.56,23.17 168.60,2.33 147.93,1.77C121.18,1.05 98.00,37.65 97.16,68.96C96.38,97.89 108.82,112.81 128.18,113.33C149.27,113.89 169.25,83.31 175.40,64.76ZM125.20,62.10C125.07,59.05 124.94,55.78 125.03,52.30C125.97,17.51 132.90,10.51 136.88,8.22C139.76,6.34 150.35,17.07 150.85,39.07ZM273.31,41.71L273.98,40.86L256.68,4.48L253.85,4.41C240.53,22.33 229.14,49.45 222.18,73.63L224.04,4.47L183.84,17.97L198.18,35.12L196.10,112.54L222.85,113.26L221.47,99.95C222.06,77.98 241.73,34.33 244.81,33.11ZM319.89,-23.20L302.38,-43.69L283.57,-24.18L301.29,-3.46ZM312.30,96.95L314.73,6.91L274.53,20.41L288.87,37.56L286.79,114.98L327.89,116.09ZM363.78,117.05C377.17,96.74 392.96,67.78 401.41,36.89L398.12,62.04L396.62,117.94L438.16,119.05L422.57,99.92L424.61,23.80L433.19,12.28L408.40,11.61C362.92,11.26 337.33,40.39 336.24,80.84C335.77,98.45 341.22,114.27 347.62,119.01ZM367.71,100.40C365.10,100.33 362.95,91.13 363.53,69.82C364.12,47.85 370.60,17.12 399.75,17.69C398.91,40.74 371.84,100.51 367.71,100.40ZM460.01,-5.72L459.84,0.81L444.88,6.72L459.22,23.86L456.64,119.55L497.75,120.66L482.16,101.52L485.81,-34.19L445.67,-22.86Z" fill="#ffffff" stroke="#000000"/>
    <path d="M-329.51,-203.73L-318.43,-211.26L-318.34,-213.41L-376.86,-215.78L-376.96,-213.41L-355.91,-200.92L-357.35,-165.42C-363.05,-162.85 -370.42,-161.85 -374.51,-162.02C-411.09,-163.49 -416.96,-204.89 -415.62,-238.03C-414.26,-271.81 -402.37,-288.79 -381.71,-287.95C-358.47,-287.02 -348.21,-268.93 -339.65,-251.34L-336.86,-251.23L-335.09,-294.91L-367.15,-296.20C-416.43,-298.19 -445.38,-258.84 -446.93,-220.54C-448.63,-178.37 -426.78,-148.39 -389.99,-146.91C-376.43,-146.36 -364.15,-151.69 -353.97,-158.39L-335.06,-146.20L-331.83,-146.07ZM-219.78,-215.04L-219.10,-215.87L-235.74,-252.10L-238.54,-252.22C-251.97,-234.66 -263.60,-207.97 -270.82,-184.12L-268.05,-252.55L-308.01,-239.72L-294.05,-222.56L-297.14,-145.96L-270.67,-144.90L-271.87,-158.09C-270.99,-179.82 -250.94,-222.76 -247.87,-223.93ZM-190.20,-141.65C-176.68,-161.57 -160.66,-190.02 -151.89,-220.49L-155.48,-195.63L-157.71,-140.34L-116.62,-138.68L-131.79,-157.82L-128.75,-233.13L-120.11,-244.42L-144.64,-245.41C-189.64,-246.36 -215.36,-217.88 -216.97,-177.86C-217.68,-160.43 -212.49,-144.70 -206.22,-139.92ZM-186.09,-158.08C-188.67,-158.18 -190.68,-167.31 -189.82,-188.40C-188.95,-210.13 -182.12,-240.46 -153.28,-239.51C-154.41,-216.71 -182.00,-157.91 -186.09,-158.08ZM-50.17,-209.70L-49.96,-241.59L-65.24,-242.21C-88.91,-243.16 -103.19,-225.63 -103.81,-210.36C-104.76,-186.90 -62.80,-174.43 -63.65,-153.35C-63.89,-147.54 -67.44,-144.88 -73.90,-145.14C-86.38,-145.65 -96.81,-159.43 -107.75,-176.90L-108.47,-174.99L-104.78,-138.20L-87.14,-137.49C-59.38,-136.37 -46.60,-153.95 -46.03,-168.15C-45.11,-190.96 -87.47,-209.48 -86.86,-224.54C-86.64,-229.92 -85.02,-232.66 -79.00,-232.42C-69.53,-232.03 -59.14,-222.56 -51.47,-209.54ZM29.43,-238.38C19.20,-219.83 9.22,-196.74 1.73,-171.40L4.60,-242.62L-35.27,-231.94L-21.30,-214.79L-25.82,-102.90L-31.56,-88.91L14.27,-87.06L-1.16,-99.75L-0.12,-125.57C39.89,-129.13 61.89,-161.64 63.03,-189.83C63.88,-210.92 57.14,-230.80 50.89,-241.40ZM0.65,-144.72C1.49,-165.37 22.83,-219.04 27.14,-218.86C31.01,-218.71 36.80,-202.09 35.88,-179.29C35.14,-160.78 28.73,-130.22 0.10,-131.16ZM188.77,-229.58L188.87,-231.95L154.66,-233.33L156.13,-269.91L130.34,-234.31L115.07,-234.93L129.19,-221.64L126.72,-160.53C125.83,-127.81 141.91,-125.65 149.65,-125.34C162.99,-124.80 178.68,-145.08 185.67,-168.72L183.34,-169.67C178.28,-156.51 167.94,-140.55 161.05,-140.83C155.24,-141.06 150.99,-142.53 151.95,-166.20L154.12,-219.99ZM235.32,-277.49L195.45,-266.81L209.41,-249.65L204.41,-125.72L232.38,-124.59L229.68,-137.84C230.41,-155.92 247.13,-191.02 258.75,-211.89L260.46,-211.60C262.49,-203.11 263.82,-187.97 262.46,-154.41L261.21,-123.42L301.88,-121.78L286.70,-140.93L287.71,-165.89C289.48,-209.78 289.30,-216.04 284.40,-233.48L263.10,-228.95C258.33,-222.89 240.29,-192.37 230.61,-160.87ZM385.61,-167.33C385.61,-167.33 369.31,-131.78 353.82,-132.40C346.07,-132.71 340.76,-145.21 339.54,-163.15L388.52,-201.91C388.69,-206.21 383.06,-226.91 362.62,-227.74C336.16,-228.80 312.72,-192.90 311.47,-161.91C310.32,-133.30 322.43,-118.37 341.58,-117.59C362.45,-116.75 382.63,-146.76 388.97,-165.03ZM339.32,-168.33C339.22,-171.35 339.14,-174.59 339.28,-178.03C340.67,-212.46 347.62,-219.29 351.59,-221.50C354.47,-223.32 364.81,-212.56 365.01,-190.79ZM-503.75,65.95L-519.74,88.15L-462.93,90.45L-477.07,67.03L-472.96,-34.74L-456.98,-56.94L-513.79,-59.24L-499.64,-35.82ZM-406.95,-15.05L-446.91,-2.23L-432.94,14.93L-436.04,91.53L-408.06,92.66L-410.76,79.41C-410.03,61.33 -393.31,26.23 -381.70,5.36L-379.98,5.65C-377.96,14.14 -376.63,29.27 -377.98,62.84L-379.23,93.82L-351.48,94.94L-353.99,82.56L-353.79,77.61C-351.07,58.11 -334.85,24.71 -323.95,5.75C-321.68,13.60 -319.90,28.12 -321.39,65.12L-322.62,95.46L-281.95,97.10L-297.15,78.60L-296.15,53.64C-294.37,9.75 -294.55,3.49 -299.45,-13.95L-320.76,-9.42C-325.53,-3.36 -343.33,26.52 -352.99,57.81L-352.73,51.36C-350.96,7.47 -351.14,1.21 -356.04,-16.23L-377.34,-11.70C-382.11,-5.64 -400.16,24.88 -409.83,56.38ZM-233.53,-8.05L-273.48,4.77L-259.52,21.93L-262.61,98.53L-234.64,99.66L-237.34,86.41C-236.61,68.33 -219.89,33.23 -208.27,12.36L-206.56,12.65C-204.53,21.14 -203.20,36.28 -204.56,69.84L-205.81,100.82L-178.05,101.95L-180.57,89.56L-180.37,84.61C-177.64,65.11 -161.43,31.71 -150.53,12.76C-148.26,20.61 -146.48,35.12 -147.97,72.13L-149.20,102.46L-108.53,104.10L-123.73,85.60L-122.72,60.64C-120.95,16.75 -121.13,10.49 -126.03,-6.95L-147.33,-2.42C-152.10,3.64 -169.90,33.52 -179.57,64.82L-179.31,58.36C-177.54,14.47 -177.72,8.21 -182.62,-9.23L-203.92,-4.70C-208.69,1.36 -226.73,31.88 -236.41,63.38ZM-71.55,106.24C-58.03,86.32 -42.01,57.87 -33.24,27.40L-36.82,52.26L-39.06,107.56L2.04,109.21L-13.14,90.07L-10.10,14.76L-1.45,3.47L-25.98,2.48C-70.98,1.53 -96.70,30.01 -98.32,70.03C-99.02,87.46 -93.84,103.19 -87.56,107.97ZM-67.44,89.82C-70.02,89.71 -72.02,80.58 -71.17,59.49C-70.29,37.76 -63.46,7.43 -34.62,8.38C-35.76,31.18 -63.35,89.98 -67.44,89.82ZM81.29,9.18L81.39,6.82L47.18,5.43L48.65,-31.14L22.86,4.45L7.59,3.84L21.71,17.12L19.24,78.23C18.35,110.95 34.43,113.11 42.17,113.42C55.51,113.96 71.20,93.69 78.19,70.05L75.86,69.09C70.80,82.25 60.46,98.21 53.57,97.93C47.76,97.70 43.51,96.23 44.47,72.57L46.64,18.77ZM163.45,66.81C163.45,66.81 147.14,102.36 131.65,101.73C123.90,101.42 118.59,88.92 117.37,70.98L166.35,32.23C166.53,27.92 160.90,7.22 140.46,6.40C113.99,5.33 90.56,41.24 89.31,72.22C88.15,100.84 100.27,115.77 119.42,116.54C140.29,117.38 160.46,87.38 166.80,69.10ZM117.15,65.80C117.06,62.78 116.97,59.54 117.11,56.10C118.50,21.68 125.46,14.84 129.43,12.63C132.30,10.81 142.65,21.57 142.84,43.35ZM264.01,47.59L264.69,46.76L248.05,10.53L245.25,10.41C231.83,27.97 220.19,54.66 212.98,78.51L215.74,10.08L175.78,22.91L189.74,40.07L186.65,116.67L213.12,117.73L211.92,104.54C212.80,82.81 232.85,39.87 235.92,38.70ZM310.97,-16.03L293.91,-36.55L275.04,-17.48L292.31,3.26ZM301.87,102.78L305.46,13.70L265.50,26.53L279.47,43.69L276.37,120.29L317.04,121.93ZM352.54,123.36C366.06,103.43 382.08,74.99 390.85,44.52L387.26,69.38L385.03,124.67L426.13,126.33L410.95,107.19L413.99,31.88L422.64,20.59L398.11,19.60C353.11,18.65 327.39,47.13 325.77,87.15C325.07,104.58 330.25,120.31 336.53,125.09ZM356.65,106.93C354.07,106.83 352.07,97.70 352.92,76.61C353.80,54.88 360.63,24.55 389.47,25.50C388.33,48.30 360.74,107.10 356.65,106.93ZM449.42,3.14L449.16,9.59L434.28,15.24L448.24,32.40L444.42,127.07L485.08,128.71L469.91,109.57L475.33,-24.70L435.46,-14.02Z" fill="#ffffff" stroke="#000000"/>
    <path d="M-329.27,-203.44L-318.21,-210.74L-318.10,-212.86L-375.98,-215.98L-376.11,-213.64L-355.44,-201.00L-357.33,-165.89C-363.02,-163.42 -370.32,-162.53 -374.36,-162.75C-410.54,-164.70 -415.80,-205.75 -414.04,-238.52C-412.24,-271.93 -400.24,-288.57 -379.81,-287.47C-356.83,-286.24 -346.92,-268.20 -338.68,-250.68L-335.92,-250.53L-333.59,-293.73L-365.30,-295.44C-414.03,-298.07 -443.21,-259.51 -445.25,-221.63C-447.50,-179.92 -426.28,-149.97 -389.88,-148.01C-376.48,-147.28 -364.25,-152.39 -354.08,-158.88L-335.54,-146.57L-332.35,-146.40ZM-220.54,-213.16L-219.86,-213.98L-235.84,-250.05L-238.61,-250.20C-252.13,-233.00 -264.00,-206.75 -271.46,-183.25L-267.81,-250.92L-307.52,-238.76L-293.93,-221.59L-298.01,-145.83L-271.84,-144.42L-272.84,-157.50C-271.68,-178.99 -251.27,-221.22 -248.22,-222.34ZM-192.25,-140.14C-178.60,-159.68 -162.37,-187.62 -153.28,-217.65L-157.17,-193.10L-160.11,-138.41L-119.47,-136.22L-134.23,-155.37L-130.22,-229.85L-121.51,-240.91L-145.77,-242.22C-190.30,-243.76 -216.13,-215.91 -218.26,-176.33C-219.19,-159.09 -214.26,-143.46 -208.12,-138.65ZM-187.96,-156.34C-190.51,-156.48 -192.37,-165.54 -191.25,-186.40C-190.09,-207.89 -182.93,-237.81 -154.40,-236.49C-155.83,-213.95 -183.92,-156.12 -187.96,-156.34ZM-52.77,-205.62L-52.13,-237.17L-67.24,-237.99C-90.65,-239.25 -105.02,-222.09 -105.84,-206.99C-107.09,-183.79 -65.74,-170.89 -66.86,-150.04C-67.17,-144.29 -70.72,-141.71 -77.11,-142.05C-89.45,-142.71 -99.59,-156.49 -110.18,-173.92L-110.92,-172.04L-107.76,-135.59L-90.31,-134.65C-62.86,-133.17 -49.98,-150.41 -49.22,-164.45C-48.01,-187.01 -89.67,-205.90 -88.87,-220.80C-88.59,-226.12 -86.95,-228.80 -80.99,-228.48C-71.63,-227.98 -61.47,-218.47 -54.06,-205.48ZM26.39,-232.95C16.02,-214.72 5.83,-192.01 -1.91,-167.03L1.88,-237.47L-37.72,-227.43L-24.13,-210.27L-30.09,-99.61L-35.95,-85.84L9.38,-83.40L-5.73,-96.16L-4.36,-121.70C35.29,-124.69 57.50,-156.57 59.00,-184.45C60.12,-205.31 53.71,-225.07 47.67,-235.64ZM-3.34,-140.64C-2.24,-161.07 19.60,-213.89 23.86,-213.66C27.69,-213.45 33.20,-196.94 31.99,-174.38C31.00,-156.08 24.26,-125.92 -4.06,-127.23ZM183.96,-222.11L184.09,-224.46L150.25,-226.28L152.20,-262.46L126.20,-227.57L111.09,-228.39L124.89,-215.05L121.63,-154.61C120.32,-122.24 136.20,-119.89 143.86,-119.48C157.05,-118.77 172.85,-138.62 180.08,-161.92L177.78,-162.90C172.60,-149.95 162.16,-134.29 155.35,-134.66C149.60,-134.97 145.41,-136.47 146.67,-159.88L149.54,-213.08ZM230.66,-268.90L191.06,-258.87L204.65,-241.70L198.05,-119.12L225.72,-117.63L223.22,-130.79C224.18,-148.66 241.20,-183.18 252.97,-203.67L254.66,-203.37C256.56,-194.94 257.67,-179.94 255.88,-146.74L254.23,-116.10L294.45,-113.93L279.69,-133.08L281.02,-157.77C283.36,-201.18 283.26,-207.38 278.65,-224.70L257.51,-220.50C252.70,-214.57 234.44,-184.61 224.45,-153.56ZM377.92,-157.89C377.92,-157.89 361.31,-122.93 345.99,-123.75C338.33,-124.16 333.24,-136.60 332.27,-154.37L381.26,-192.07C381.49,-196.33 376.19,-216.89 355.97,-217.98C329.80,-219.38 306.13,-184.16 304.48,-153.52C302.96,-125.21 314.75,-110.28 333.69,-109.26C354.33,-108.15 374.70,-137.57 381.21,-155.58ZM332.12,-159.50C332.07,-162.49 332.03,-165.69 332.21,-169.10C334.05,-203.15 341.02,-209.82 344.98,-211.95C347.85,-213.72 357.94,-202.93 357.85,-181.38ZM-505.30,61.13L-521.41,82.89L-465.23,85.91L-478.91,62.55L-473.49,-38.11L-457.38,-59.87L-513.56,-62.89L-499.88,-39.53ZM-408.42,-17.75L-448.14,-5.58L-434.55,11.58L-438.63,87.34L-410.96,88.83L-413.45,75.68C-412.49,57.80 -395.48,23.29 -383.70,2.79L-382.01,3.10C-380.12,11.52 -379.01,26.52 -380.79,59.72L-382.44,90.37L-354.99,91.85L-357.32,79.56L-357.05,74.66C-354.10,55.40 -337.60,22.56 -326.57,3.95C-324.43,11.75 -322.85,26.13 -324.82,62.74L-326.44,92.74L-286.22,94.91L-301.02,76.40L-299.69,51.71C-297.35,8.30 -297.44,2.10 -302.06,-15.22L-323.20,-11.02C-328.00,-5.09 -346.02,24.25 -356.00,55.08L-355.66,48.70C-353.32,5.28 -353.41,-0.91 -358.03,-18.23L-379.17,-14.04C-383.97,-8.11 -402.23,21.86 -412.23,52.91ZM-236.90,-8.51L-276.61,3.65L-263.02,20.82L-267.10,96.58L-239.43,98.07L-241.93,84.91C-240.97,67.04 -223.95,32.52 -212.18,12.03L-210.49,12.33C-208.59,20.76 -207.48,35.76 -209.27,68.96L-210.92,99.60L-183.47,101.08L-185.79,88.79L-185.53,83.90C-182.57,64.63 -166.08,31.80 -155.04,13.19C-152.90,20.98 -151.33,35.37 -153.30,71.97L-154.91,101.98L-114.69,104.14L-129.49,85.63L-128.16,60.95C-125.82,17.53 -125.92,11.34 -130.53,-5.98L-151.67,-1.79C-156.48,4.14 -174.49,33.48 -184.47,64.32L-184.13,57.93C-181.79,14.52 -181.89,8.32 -186.50,-9.00L-207.64,-4.80C-212.45,1.13 -230.71,31.09 -240.70,62.14ZM-78.12,106.75C-64.48,87.21 -48.25,59.27 -39.16,29.24L-43.04,53.79L-45.99,108.48L-5.34,110.67L-20.10,91.52L-16.09,17.04L-7.39,5.98L-31.65,4.68C-76.17,3.13 -102.00,30.98 -104.13,70.56C-105.06,87.80 -100.14,103.43 -94.00,108.25ZM-73.84,90.55C-76.39,90.41 -78.25,81.35 -77.13,60.49C-75.97,39.00 -68.81,9.08 -40.28,10.40C-41.71,32.95 -69.79,90.77 -73.84,90.55ZM74.42,12.73L74.54,10.39L40.71,8.57L42.66,-27.61L16.66,7.28L1.55,6.46L15.34,19.80L12.09,80.24C10.77,112.61 26.66,114.96 34.32,115.37C47.51,116.08 63.31,96.23 70.54,72.93L68.24,71.95C63.06,84.90 52.62,100.56 45.81,100.19C40.06,99.88 35.87,98.38 37.13,74.97L40.00,21.77ZM154.95,70.85C154.95,70.85 138.34,105.82 123.02,104.99C115.36,104.58 110.27,92.14 109.30,74.37L158.29,36.67C158.52,32.42 153.22,11.86 133.00,10.77C106.83,9.36 83.16,44.58 81.51,75.22C79.99,103.53 91.78,118.46 110.72,119.48C131.36,120.59 151.72,91.17 158.24,73.17ZM109.15,69.24C109.10,66.25 109.06,63.05 109.24,59.64C111.08,25.59 118.05,18.93 122.01,16.79C124.88,15.02 134.97,25.81 134.87,47.36ZM254.72,53.18L255.41,52.36L239.42,16.28L236.65,16.13C223.14,33.33 211.26,59.59 203.81,83.09L207.45,15.42L167.74,27.58L181.33,44.74L177.25,120.50L203.43,121.91L202.42,108.84C203.58,87.35 224.00,45.12 227.04,44.00ZM302.04,-9.16L285.44,-29.69L266.51,-11.07L283.32,9.68ZM291.45,108.30L296.20,20.19L256.48,32.36L270.07,49.52L265.99,125.28L306.21,127.45ZM341.33,129.34C354.97,109.80 371.20,81.86 380.29,51.83L376.41,76.38L373.46,131.07L414.11,133.26L399.35,114.11L403.36,39.62L412.06,28.57L387.80,27.26C343.28,25.72 317.45,53.57 315.32,93.15C314.39,110.39 319.31,126.02 325.45,130.83ZM345.62,113.14C343.06,113.00 341.20,103.93 342.33,83.08C343.48,61.58 350.64,31.66 379.17,32.99C377.74,55.53 349.66,113.35 345.62,113.14ZM438.80,11.65L438.46,18.04L423.65,23.43L437.24,40.59L432.20,134.23L472.42,136.40L457.66,117.25L464.81,-15.55L425.21,-5.51Z" fill="#ffffff" stroke="#000000"/>
    <path d="M-328.99,-203.22L-317.94,-210.30L-317.80,-212.40L-375.03,-216.26L-375.19,-213.94L-354.91,-201.16L-357.25,-166.44C-362.91,-164.07 -370.15,-163.29 -374.14,-163.56C-409.92,-165.97 -414.57,-206.66 -412.39,-239.06C-410.17,-272.10 -398.08,-288.41 -377.88,-287.05C-355.15,-285.52 -345.58,-267.54 -337.67,-250.10L-334.93,-249.91L-332.06,-292.63L-363.41,-294.74C-411.60,-297.98 -440.98,-260.22 -443.51,-222.77C-446.28,-181.53 -425.68,-151.60 -389.70,-149.18C-376.44,-148.29 -364.27,-153.17 -354.13,-159.47L-335.94,-147.04L-332.78,-146.83ZM-221.27,-211.40L-220.58,-212.20L-235.92,-248.11L-238.65,-248.29C-252.26,-231.45 -264.35,-205.63 -272.04,-182.47L-267.54,-249.39L-306.99,-237.88L-293.78,-220.72L-298.82,-145.81L-272.94,-144.06L-273.76,-157.01C-272.33,-178.27 -251.56,-219.78 -248.53,-220.84ZM-194.24,-138.76C-180.48,-157.92 -164.05,-185.35 -154.66,-214.94L-158.82,-190.70L-162.47,-136.62L-122.28,-133.92L-136.63,-153.06L-131.67,-226.71L-122.91,-237.54L-146.90,-239.15C-190.93,-241.27 -216.86,-214.06 -219.50,-174.92C-220.64,-157.88 -215.98,-142.34 -209.97,-137.50ZM-189.78,-154.74C-192.31,-154.91 -194.03,-163.90 -192.64,-184.53C-191.21,-205.78 -183.72,-235.29 -155.51,-233.60C-157.23,-211.31 -185.78,-154.47 -189.78,-154.74ZM-55.35,-201.70L-54.31,-232.92L-69.25,-233.92C-92.40,-235.48 -106.84,-218.70 -107.85,-203.76C-109.39,-180.82 -68.65,-167.51 -70.04,-146.89C-70.42,-141.21 -73.97,-138.70 -80.28,-139.12C-92.49,-139.94 -102.34,-153.71 -112.58,-171.10L-113.34,-169.25L-110.70,-133.14L-93.45,-131.98C-66.30,-130.15 -53.33,-147.03 -52.39,-160.92C-50.89,-183.22 -91.87,-202.47 -90.88,-217.20C-90.53,-222.46 -88.87,-225.10 -82.98,-224.70C-73.72,-224.08 -63.79,-214.53 -56.63,-201.58ZM23.34,-227.69C12.83,-209.79 2.45,-187.45 -5.55,-162.84L-0.86,-232.49L-40.18,-223.09L-26.96,-205.92L-34.33,-96.50L-40.31,-82.95L4.51,-79.93L-10.27,-92.77L-8.57,-118.02C30.70,-120.45 53.10,-151.70 54.95,-179.27C56.34,-199.89 50.27,-219.53 44.42,-230.07ZM-7.31,-136.74C-5.95,-156.95 16.37,-208.92 20.57,-208.64C24.36,-208.38 29.60,-191.97 28.10,-169.66C26.88,-151.56 19.80,-121.81 -8.20,-123.49ZM179.10,-214.87L179.26,-217.19L145.80,-219.44L148.21,-255.21L122.03,-221.04L107.09,-222.05L120.56,-208.67L116.53,-148.91C114.80,-116.90 130.48,-114.36 138.06,-113.85C151.10,-112.97 167.00,-132.41 174.46,-155.37L172.21,-156.36C166.91,-143.61 156.36,-128.26 149.63,-128.71C143.95,-129.10 139.82,-130.64 141.38,-153.79L144.92,-206.39ZM225.94,-260.55L186.62,-251.15L199.84,-233.98L191.68,-112.78L219.03,-110.93L216.74,-123.98C217.93,-141.66 235.22,-175.58 247.15,-195.71L248.81,-195.38C250.58,-187.02 251.48,-172.16 249.27,-139.34L247.23,-109.04L287.00,-106.36L272.65,-125.50L274.29,-149.91C277.18,-192.84 277.17,-198.97 272.83,-216.17L251.86,-212.30C247.03,-206.49 228.56,-177.09 218.26,-146.50ZM370.18,-148.74C370.18,-148.74 353.28,-114.37 338.12,-115.39C330.55,-115.90 325.68,-128.27 324.96,-145.86L373.93,-182.52C374.21,-186.73 369.25,-207.14 349.26,-208.49C323.37,-210.23 299.49,-175.69 297.45,-145.39C295.56,-117.41 307.03,-102.47 325.76,-101.21C346.17,-99.84 366.71,-128.68 373.40,-146.41ZM324.88,-150.94C324.87,-153.90 324.87,-157.07 325.09,-160.44C327.36,-194.11 334.35,-200.61 338.30,-202.67C341.16,-204.38 351.00,-193.57 350.62,-172.25ZM-506.68,56.22L-522.91,77.54L-467.36,81.28L-480.59,57.98L-473.89,-41.55L-457.66,-62.86L-513.21,-66.60L-499.98,-43.31ZM-409.78,-20.53L-449.23,-9.03L-436.01,8.14L-441.06,83.05L-413.70,84.89L-416.00,71.84C-414.81,54.17 -397.51,20.24 -385.59,0.12L-383.92,0.44C-382.16,8.81 -381.26,23.66 -383.47,56.49L-385.51,86.79L-358.36,88.62L-360.50,76.42L-360.18,71.59C-356.99,52.56 -340.23,20.29 -329.07,2.02C-327.05,9.77 -325.69,24.02 -328.13,60.22L-330.12,89.88L-290.35,92.56L-304.75,74.05L-303.10,49.64C-300.21,6.71 -300.22,0.58 -304.56,-16.62L-325.54,-12.75C-330.37,-6.94 -348.58,21.85 -358.87,52.23L-358.45,45.91C-355.56,2.99 -355.57,-3.14 -359.90,-20.35L-380.88,-16.47C-385.71,-10.67 -404.18,18.74 -414.48,49.33ZM-240.17,-9.11L-279.63,2.39L-266.41,19.56L-271.46,94.47L-244.10,96.31L-246.39,83.26C-245.20,65.59 -227.91,31.66 -215.99,11.54L-214.32,11.86C-212.56,20.23 -211.65,35.08 -213.87,67.91L-215.91,98.21L-188.76,100.04L-190.90,87.85L-190.57,83.01C-187.39,63.99 -170.63,31.72 -159.47,13.44C-157.45,21.19 -156.09,35.44 -158.52,71.64L-160.52,101.31L-120.75,103.98L-135.15,85.47L-133.50,61.06C-130.61,18.13 -130.62,12.00 -134.96,-5.20L-155.94,-1.33C-160.77,4.48 -178.98,33.27 -189.27,63.65L-188.84,57.33C-185.95,14.41 -185.96,8.28 -190.30,-8.92L-211.28,-5.05C-216.11,0.75 -234.57,30.16 -244.88,60.75ZM-84.60,107.05C-70.84,87.90 -54.41,60.47 -45.02,30.87L-49.19,55.11L-52.83,109.19L-12.64,111.90L-26.99,92.75L-22.03,19.11L-13.27,8.28L-37.26,6.67C-81.29,4.55 -107.22,31.76 -109.86,70.90C-111.01,87.94 -106.34,103.47 -100.33,108.32ZM-80.14,91.08C-82.67,90.91 -84.39,81.91 -83.00,61.29C-81.57,40.04 -74.09,10.53 -45.87,12.22C-47.59,34.51 -76.15,91.35 -80.14,91.08ZM67.59,16.05L67.74,13.74L34.29,11.48L36.70,-24.29L10.51,9.88L-4.43,8.88L9.04,22.26L5.02,82.02C3.28,114.03 18.97,116.56 26.54,117.07C39.59,117.95 55.48,98.52 62.95,75.56L60.69,74.56C55.39,87.31 44.85,102.66 38.11,102.21C32.43,101.83 28.31,100.28 29.87,77.14L33.41,24.53ZM146.50,74.63C146.50,74.63 129.60,109.01 114.45,107.99C106.88,107.48 102.00,95.10 101.29,77.51L150.26,40.85C150.54,36.65 145.57,16.23 125.58,14.88C99.70,13.14 75.82,47.68 73.78,77.98C71.89,105.97 83.36,120.90 102.08,122.16C122.50,123.54 143.04,94.69 149.73,76.96ZM101.21,72.43C101.19,69.47 101.20,66.30 101.42,62.93C103.69,29.26 110.68,22.76 114.62,20.70C117.49,18.99 127.33,29.80 126.95,51.12ZM245.46,58.47L246.15,57.67L230.81,21.76L228.07,21.57C214.47,38.41 202.37,64.23 194.68,87.39L199.19,20.47L159.73,31.98L172.95,49.15L167.91,124.06L193.79,125.80L192.97,112.85C194.40,91.60 215.16,50.09 218.19,49.02ZM293.11,-2.58L276.95,-23.12L257.97,-4.95L274.33,15.81ZM281.07,113.50L286.94,26.38L247.48,37.89L260.70,55.06L255.65,129.97L295.42,132.64ZM330.14,134.98C343.90,115.83 360.34,88.40 369.73,58.80L365.56,83.04L361.92,137.12L402.11,139.83L387.75,120.68L392.71,47.04L401.48,36.21L377.49,34.60C333.45,32.48 307.52,59.69 304.89,98.83C303.74,115.87 308.40,131.40 314.42,136.25ZM334.60,119.01C332.08,118.84 330.36,109.84 331.74,89.22C333.18,67.97 340.66,38.46 368.87,40.15C367.16,62.44 338.60,119.28 334.60,119.01ZM428.16,19.83L427.73,26.14L413.01,31.28L426.23,48.45L419.99,141.03L459.76,143.71L445.41,124.57L454.25,-6.74L414.94,2.66Z" fill="#ffffff" stroke="#000000"/>
    <path d="M-328.64,-203.08L-317.62,-209.94L-317.45,-212.02L-374.02,-216.59L-374.21,-214.31L-354.32,-201.39L-357.09,-167.07C-362.72,-164.80 -369.89,-164.13 -373.84,-164.45C-409.21,-167.31 -413.27,-207.62 -410.68,-239.66C-408.04,-272.31 -395.86,-288.29 -375.90,-286.67C-353.43,-284.85 -344.20,-266.94 -336.60,-249.58L-333.90,-249.36L-330.49,-291.58L-361.48,-294.09C-409.11,-297.94 -438.69,-260.97 -441.68,-223.95C-444.98,-183.18 -424.99,-153.30 -389.42,-150.42C-376.32,-149.36 -364.22,-154.04 -354.10,-160.13L-336.27,-147.59L-333.15,-147.34ZM-221.95,-209.74L-221.26,-210.52L-235.96,-246.25L-238.66,-246.47C-252.35,-229.99 -264.66,-204.61 -272.58,-181.80L-267.23,-247.95L-306.42,-237.09L-293.57,-219.93L-299.56,-145.88L-273.97,-143.81L-274.61,-156.63C-272.91,-177.64 -251.82,-218.44 -248.81,-219.45ZM-196.18,-137.52C-182.31,-156.29 -165.69,-183.21 -156.00,-212.36L-160.45,-188.44L-164.77,-134.98L-125.04,-131.77L-138.99,-150.90L-133.10,-223.70L-124.29,-234.29L-148.00,-236.21C-191.54,-238.89 -217.56,-212.32 -220.69,-173.63C-222.05,-156.78 -217.65,-141.35 -211.76,-136.48ZM-191.56,-153.27C-194.05,-153.47 -195.64,-162.39 -193.99,-182.77C-192.29,-203.78 -184.49,-232.88 -156.60,-230.83C-158.59,-208.80 -187.61,-152.95 -191.56,-153.27ZM-57.93,-197.94L-56.48,-228.81L-71.25,-230.00C-94.13,-231.85 -108.65,-215.44 -109.84,-200.67C-111.68,-178.00 -71.54,-164.29 -73.19,-143.90C-73.64,-138.29 -77.19,-135.85 -83.43,-136.36C-95.49,-137.33 -105.06,-151.09 -114.96,-168.43L-115.74,-166.61L-113.60,-130.84L-96.55,-129.46C-69.72,-127.29 -56.66,-143.82 -55.55,-157.55C-53.76,-179.60 -94.05,-199.19 -92.87,-213.75C-92.45,-218.95 -90.78,-221.53 -84.95,-221.06C-75.80,-220.32 -66.11,-210.75 -59.20,-197.83ZM20.27,-222.60C9.64,-205.04 -0.93,-183.07 -9.17,-158.83L-3.61,-227.67L-42.63,-218.90L-29.78,-201.74L-38.53,-93.58L-44.63,-80.25L-0.32,-76.67L-14.77,-89.56L-12.76,-114.52C26.13,-116.40 48.70,-147.03 50.91,-174.28C52.55,-194.66 46.81,-214.18 41.16,-224.68ZM-11.26,-133.03C-9.64,-153.00 13.12,-204.13 17.28,-203.79C21.03,-203.49 25.99,-187.18 24.21,-165.13C22.76,-147.24 15.36,-117.90 -12.32,-119.93ZM174.21,-207.85L174.40,-210.14L141.33,-212.81L144.19,-248.17L117.82,-214.72L103.05,-215.91L116.21,-202.49L111.43,-143.42C109.29,-111.77 124.77,-109.05 132.26,-108.45C145.15,-107.41 161.14,-126.42 168.83,-149.04L166.61,-150.06C161.20,-137.51 150.56,-122.46 143.90,-123.00C138.29,-123.45 134.23,-125.04 136.08,-147.92L140.28,-199.92ZM221.15,-252.42L182.13,-243.64L194.98,-226.48L185.29,-106.67L212.33,-104.49L210.24,-117.43C211.65,-134.90 229.21,-168.23 241.28,-187.98L242.92,-187.64C244.56,-179.34 245.25,-164.63 242.63,-132.18L240.21,-102.23L279.52,-99.05L265.57,-118.19L267.52,-142.31C270.95,-184.75 271.03,-190.81 266.96,-207.89L246.16,-204.34C241.30,-198.66 222.64,-169.81 212.04,-139.68ZM362.38,-139.88C362.38,-139.88 345.20,-106.09 330.22,-107.31C322.73,-107.91 318.08,-120.22 317.60,-137.64L366.54,-173.25C366.88,-177.41 362.23,-197.67 342.47,-199.27C316.89,-201.34 292.80,-167.49 290.38,-137.53C288.14,-109.87 299.28,-94.94 317.80,-93.45C337.97,-91.81 358.68,-120.08 365.54,-137.53ZM317.59,-142.66C317.62,-145.59 317.66,-148.73 317.93,-152.06C320.62,-185.34 327.62,-191.68 331.55,-193.66C334.41,-195.32 344.00,-184.49 343.34,-163.40ZM-507.90,51.24L-524.24,72.11L-469.33,76.55L-482.11,53.33L-474.15,-45.06L-457.81,-65.93L-512.72,-70.37L-499.94,-47.14ZM-411.00,-23.41L-450.19,-12.55L-437.34,4.61L-443.33,78.65L-416.29,80.84L-418.38,67.90C-416.97,50.43 -399.41,17.09 -387.35,-2.66L-385.70,-2.31C-384.07,5.98 -383.37,20.69 -386.00,53.14L-388.42,83.09L-361.59,85.26L-363.54,73.17L-363.15,68.39C-359.75,49.61 -342.74,17.91 -331.45,-0.02C-329.56,7.67 -328.40,21.79 -331.29,57.57L-333.66,86.89L-294.35,90.07L-308.35,71.56L-306.40,47.44C-302.97,5.00 -302.89,-1.06 -306.96,-18.14L-327.76,-14.59C-332.62,-8.91 -351.02,19.33 -361.61,49.25L-361.10,43.01C-357.67,0.58 -357.60,-5.49 -361.66,-22.56L-382.46,-19.01C-387.32,-13.33 -405.98,15.52 -416.59,45.64ZM-243.35,-9.86L-282.54,1.00L-269.69,18.16L-275.68,92.21L-248.64,94.40L-250.74,81.46C-249.32,63.99 -231.76,30.65 -219.70,10.90L-218.05,11.24C-216.42,19.54 -215.72,34.25 -218.35,66.70L-220.77,96.65L-193.94,98.82L-195.89,86.73L-195.50,81.95C-192.10,63.17 -175.09,31.47 -163.80,13.54C-161.91,21.23 -160.75,35.35 -163.64,71.12L-166.02,100.45L-126.70,103.63L-140.70,85.12L-138.75,60.99C-135.32,18.56 -135.24,12.50 -139.31,-4.58L-160.11,-1.03C-164.97,4.65 -183.37,32.89 -193.96,62.81L-193.45,56.57C-190.02,14.14 -189.95,8.07 -194.01,-9.01L-214.82,-5.45C-219.67,0.22 -238.33,29.07 -248.94,59.20ZM-90.98,107.15C-77.11,88.38 -60.48,61.46 -50.80,32.30L-55.25,56.23L-59.57,109.69L-19.84,112.90L-33.79,93.77L-27.90,20.97L-19.09,10.37L-42.80,8.46C-86.34,5.77 -112.36,32.35 -115.48,71.04C-116.85,87.89 -112.44,103.32 -106.55,108.19ZM-86.35,91.40C-88.85,91.20 -90.43,82.28 -88.78,61.89C-87.08,40.88 -79.29,11.79 -51.40,13.83C-53.39,35.86 -82.40,91.72 -86.35,91.40ZM60.81,19.14L60.99,16.85L27.92,14.17L30.78,-21.19L4.42,12.27L-10.35,11.08L2.80,24.50L-1.98,83.57C-4.12,115.22 11.37,117.93 18.85,118.54C31.75,119.58 47.73,100.57 55.42,77.95L53.20,76.93C47.79,89.48 37.15,104.53 30.50,103.99C24.88,103.54 20.82,101.95 22.67,79.07L26.88,27.07ZM138.11,78.15C138.11,78.15 120.93,111.93 105.95,110.72C98.46,110.11 93.81,97.80 93.33,80.39L142.27,44.78C142.61,40.62 137.96,20.35 118.20,18.75C92.62,16.68 68.53,50.54 66.11,80.49C63.87,108.15 75.01,123.08 93.53,124.58C113.70,126.21 134.41,97.95 141.27,80.50ZM93.32,75.36C93.35,72.43 93.39,69.30 93.66,65.97C96.35,32.69 103.35,26.35 107.28,24.36C110.14,22.71 119.73,33.53 119.07,54.62ZM236.23,63.47L236.92,62.69L222.22,26.96L219.52,26.74C205.83,43.22 193.52,68.60 185.61,91.41L190.95,25.26L151.76,36.12L164.61,53.28L158.62,127.33L184.21,129.40L183.57,116.58C185.27,95.57 206.36,54.77 209.38,53.76ZM284.19,3.70L268.47,-16.83L249.45,0.89L265.36,21.65ZM270.73,118.39L277.69,32.28L238.50,43.14L251.35,60.30L245.36,134.34L284.67,137.52ZM318.99,140.30C332.86,121.53 349.49,94.61 359.17,65.46L354.72,89.38L350.40,142.84L390.13,146.05L376.18,126.92L382.07,54.12L390.88,43.52L367.17,41.61C323.63,38.92 297.61,65.50 294.49,104.19C293.12,121.04 297.53,136.47 303.42,141.34ZM323.62,124.55C321.12,124.35 319.54,115.43 321.19,95.04C322.89,74.04 330.68,44.94 358.57,46.98C356.58,69.01 327.57,124.87 323.62,124.55ZM417.50,27.67L416.99,33.91L402.36,38.80L415.21,55.96L407.81,147.48L447.12,150.66L433.18,131.53L443.67,1.73L404.65,10.51Z" fill="#ffffff" stroke="#000000"/>
    <path d="M-328.23,-203.02L-317.23,-209.66L-317.04,-211.71L-372.95,-216.99L-373.16,-214.73L-353.66,-201.69L-356.86,-167.78C-362.45,-165.61 -369.56,-165.04 -373.46,-165.40C-408.41,-168.70 -411.89,-208.64 -408.91,-240.30C-405.86,-272.57 -393.60,-288.21 -373.87,-286.34C-351.67,-284.25 -342.78,-266.40 -335.49,-249.13L-332.82,-248.87L-328.88,-290.60L-359.50,-293.49C-406.57,-297.93 -436.33,-261.76 -439.78,-225.17C-443.59,-184.88 -424.21,-155.06 -389.06,-151.74C-376.11,-150.52 -364.08,-154.98 -353.98,-160.87L-336.51,-148.23L-333.43,-147.94ZM-222.60,-208.19L-221.91,-208.95L-235.97,-244.50L-238.64,-244.75C-252.40,-228.63 -264.92,-203.68 -273.05,-181.22L-266.88,-246.59L-305.79,-236.37L-293.31,-219.22L-300.22,-146.05L-274.94,-143.66L-275.40,-156.35C-273.44,-177.11 -252.03,-217.19 -249.03,-218.15ZM-198.06,-136.40C-184.09,-154.78 -167.29,-181.19 -157.32,-209.91L-162.04,-186.30L-167.03,-133.47L-127.77,-129.76L-141.31,-148.88L-134.52,-220.82L-125.66,-231.18L-149.09,-233.39C-192.13,-236.63 -218.22,-210.68 -221.83,-172.45C-223.40,-155.80 -219.25,-140.48 -213.49,-135.58ZM-193.28,-151.92C-195.75,-152.15 -197.19,-161.00 -195.29,-181.14C-193.33,-201.90 -185.23,-230.58 -157.67,-228.19C-159.93,-206.42 -189.38,-151.55 -193.28,-151.92ZM-60.49,-194.34L-58.65,-224.85L-73.24,-226.23C-95.85,-228.37 -110.43,-212.32 -111.81,-197.73C-113.93,-175.32 -74.40,-161.22 -76.31,-141.08C-76.83,-135.53 -80.37,-133.17 -86.54,-133.75C-98.46,-134.88 -107.74,-148.61 -117.31,-165.90L-118.10,-164.11L-116.46,-128.70L-99.61,-127.11C-73.09,-124.60 -59.95,-140.78 -58.67,-154.35C-56.61,-176.14 -96.21,-196.05 -94.85,-210.44C-94.37,-215.58 -92.67,-218.11 -86.92,-217.57C-77.88,-216.71 -68.41,-207.11 -61.75,-194.25ZM17.20,-217.69C6.44,-200.46 -4.30,-178.87 -12.78,-154.99L-6.36,-223.03L-45.08,-214.86L-32.59,-197.72L-42.69,-90.83L-48.90,-77.73L-5.12,-73.60L-19.24,-86.54L-16.91,-111.21C21.58,-112.55 44.32,-142.55 46.86,-169.48C48.76,-189.62 43.33,-209.00 37.89,-219.47ZM-15.19,-129.50C-13.32,-149.24 9.88,-199.51 13.99,-199.12C17.69,-198.77 22.38,-182.57 20.33,-160.78C18.66,-143.11 10.95,-114.18 -16.41,-116.55ZM169.29,-201.05L169.51,-203.31L136.82,-206.40L140.12,-241.34L113.60,-208.59L99.00,-209.97L111.84,-196.52L106.32,-138.15C103.79,-106.87 119.07,-103.97 126.47,-103.27C139.21,-102.07 155.27,-120.67 163.18,-142.94L161.00,-143.98C155.48,-131.64 144.76,-116.89 138.18,-117.51C132.63,-118.04 128.63,-119.66 130.77,-142.27L135.62,-193.65ZM216.32,-244.52L177.60,-236.35L190.08,-219.20L178.91,-100.81L205.63,-98.29L203.73,-111.12C205.36,-128.38 223.17,-161.12 235.37,-180.50L237.00,-180.14C238.50,-171.91 238.99,-157.35 235.97,-125.28L233.17,-95.69L272.02,-92.02L258.48,-111.13L260.73,-134.97C264.69,-176.91 264.84,-182.91 261.05,-199.85L240.42,-196.62C235.54,-191.06 216.69,-162.77 205.80,-133.11ZM354.53,-131.30C354.53,-131.30 337.09,-98.11 322.29,-99.51C314.89,-100.21 310.45,-112.45 310.21,-129.68L359.10,-164.26C359.48,-168.37 355.16,-188.48 335.63,-190.32C310.35,-192.71 286.07,-159.54 283.27,-129.94C280.69,-102.61 291.52,-87.69 309.81,-85.96C329.75,-84.08 350.61,-111.76 357.63,-128.94ZM310.26,-134.65C310.33,-137.55 310.41,-140.65 310.72,-143.94C313.83,-176.83 320.84,-183.01 324.75,-184.92C327.60,-186.52 336.95,-175.68 336.01,-154.83ZM-508.95,46.19L-525.40,66.62L-471.13,71.74L-483.46,48.59L-474.28,-48.63L-457.84,-69.06L-512.10,-74.18L-499.77,-51.04ZM-412.10,-26.38L-451.01,-16.16L-438.53,0.99L-445.44,74.17L-418.72,76.69L-420.62,63.86C-418.99,46.59 -401.17,13.85 -388.97,-5.53L-387.35,-5.17C-385.84,3.06 -385.35,17.62 -388.38,49.69L-391.17,79.29L-364.66,81.79L-366.43,69.80L-365.98,65.08C-362.37,46.55 -345.12,15.41 -333.71,-2.18C-331.94,5.46 -330.98,19.44 -334.32,54.79L-337.06,83.78L-298.21,87.44L-311.81,68.95L-309.56,45.10C-305.60,3.17 -305.45,-2.83 -309.24,-19.78L-329.87,-16.54C-334.75,-10.99 -353.33,16.71 -364.20,46.17L-363.62,40.00C-359.66,-1.93 -359.51,-7.93 -363.30,-24.88L-383.93,-21.64C-388.81,-16.09 -407.65,12.20 -418.54,41.87ZM-246.43,-10.73L-285.34,-0.51L-272.86,16.63L-279.77,89.81L-253.05,92.33L-254.95,79.50C-253.32,62.23 -235.50,29.49 -223.30,10.11L-221.68,10.47C-220.17,18.70 -219.68,33.27 -222.71,65.33L-225.50,94.93L-198.99,97.43L-200.76,85.45L-200.31,80.72C-196.70,62.19 -179.45,31.05 -168.04,13.46C-166.27,21.10 -165.31,35.08 -168.65,70.44L-171.39,99.42L-132.54,103.09L-146.14,84.59L-143.89,60.75C-139.93,18.81 -139.78,12.81 -143.57,-4.13L-164.20,-0.90C-169.08,4.66 -187.66,32.35 -198.53,61.81L-197.95,55.64C-193.99,13.71 -193.84,7.71 -197.63,-9.24L-218.26,-6.00C-223.14,-0.45 -241.98,27.84 -252.87,57.51ZM-97.24,107.04C-83.27,88.66 -66.47,62.25 -56.50,33.53L-61.22,57.15L-66.21,109.97L-26.95,113.68L-40.49,94.56L-33.70,22.62L-24.84,12.26L-48.27,10.05C-91.31,6.81 -117.40,32.76 -121.01,70.99C-122.58,87.64 -118.43,102.97 -112.67,107.87ZM-92.46,91.52C-94.93,91.29 -96.37,82.44 -94.47,62.30C-92.51,41.54 -84.41,12.86 -56.85,15.25C-59.11,37.02 -88.56,91.89 -92.46,91.52ZM54.08,21.99L54.30,19.73L21.62,16.65L24.91,-18.30L-1.61,14.45L-16.20,13.08L-3.37,26.52L-8.88,84.90C-11.42,116.18 3.86,119.07 11.26,119.77C24.00,120.98 40.07,102.38 47.98,80.10L45.79,79.07C40.27,91.41 29.55,106.15 22.97,105.53C17.42,105.01 13.43,103.39 15.56,80.78L20.41,29.39ZM129.77,81.40C129.77,81.40 112.32,114.59 97.52,113.19C90.13,112.50 85.68,100.26 85.44,83.02L134.33,48.44C134.72,44.33 130.40,24.22 110.87,22.38C85.59,19.99 61.30,53.16 58.51,82.76C55.93,110.10 66.75,125.01 85.05,126.74C104.99,128.62 125.85,100.94 132.86,83.76ZM85.50,78.05C85.56,75.15 85.65,72.05 85.96,68.76C89.06,35.87 96.08,29.69 99.99,27.78C102.84,26.18 112.18,37.02 111.25,57.88ZM227.03,68.18L227.73,67.42L213.66,31.88L210.99,31.62C197.23,47.74 184.72,72.69 176.58,95.15L182.75,29.79L143.84,40.01L156.32,57.15L149.41,130.33L174.69,132.72L174.23,120.02C176.19,99.26 197.60,59.19 200.60,58.22ZM275.27,9.70L260.00,-10.82L240.95,6.46L256.41,27.20ZM260.43,122.98L268.46,37.88L229.55,48.10L242.03,65.25L235.12,138.42L273.97,142.09ZM307.89,145.29C321.86,126.91 338.66,100.50 348.63,71.79L343.91,95.40L338.92,148.22L378.18,151.93L364.64,132.81L371.43,60.87L380.29,50.51L356.86,48.30C313.82,45.07 287.73,71.01 284.12,109.24C282.55,125.89 286.70,141.22 292.46,146.12ZM312.67,129.77C310.20,129.54 308.76,120.69 310.66,100.55C312.62,79.79 320.72,51.11 348.28,53.50C346.02,75.27 316.58,130.14 312.67,129.77ZM406.83,35.18L406.25,41.35L391.71,45.99L404.19,63.14L395.65,153.58L434.50,157.25L420.96,138.13L433.07,9.87L394.35,18.04Z" fill="#ffffff" stroke="#000000"/>
    <path d="M-327.75,-203.04L-316.79,-209.45L-316.57,-211.49L-371.80,-217.45L-372.04,-215.22L-352.92,-202.06L-356.54,-168.55C-362.11,-166.48 -369.14,-166.01 -373.00,-166.43C-407.52,-170.16 -410.44,-209.71 -407.06,-240.98C-403.62,-272.86 -391.28,-288.17 -371.79,-286.06C-349.86,-283.69 -341.30,-265.92 -334.32,-248.74L-331.68,-248.45L-327.23,-289.67L-357.49,-292.94C-403.99,-297.96 -433.90,-262.57 -437.80,-226.43C-442.10,-186.63 -423.33,-156.87 -388.61,-153.12C-375.82,-151.74 -363.85,-155.99 -353.79,-161.68L-336.68,-148.95L-333.63,-148.62ZM-223.20,-206.74L-222.51,-207.49L-235.94,-242.84L-238.58,-243.12C-252.41,-227.36 -265.12,-202.85 -273.46,-180.74L-266.49,-245.31L-305.12,-235.72L-293.00,-218.59L-300.81,-146.31L-275.83,-143.61L-276.12,-156.17C-273.90,-176.68 -252.19,-216.04 -249.22,-216.95ZM-199.89,-135.41C-185.82,-153.40 -168.85,-179.30 -158.61,-207.57L-163.59,-184.28L-169.23,-132.09L-130.44,-127.91L-143.58,-146.99L-135.91,-218.06L-127.00,-228.19L-150.15,-230.69C-192.68,-234.47 -218.83,-209.15 -222.91,-171.38C-224.69,-154.93 -220.79,-139.72 -215.15,-134.80ZM-194.95,-150.69C-197.39,-150.95 -198.70,-159.72 -196.55,-179.62C-194.33,-200.13 -185.94,-228.40 -158.71,-225.66C-161.24,-204.16 -191.09,-150.27 -194.95,-150.69ZM-63.04,-190.88L-60.81,-221.04L-75.22,-222.60C-97.56,-225.01 -112.20,-209.34 -113.75,-194.92C-116.14,-172.79 -77.24,-158.32 -79.39,-138.42C-79.98,-132.93 -83.51,-130.64 -89.60,-131.30C-101.38,-132.57 -110.38,-146.28 -119.61,-163.51L-120.42,-161.75L-119.27,-126.70L-102.62,-124.90C-76.43,-122.07 -63.21,-137.90 -61.77,-151.30C-59.44,-172.83 -98.34,-193.05 -96.81,-207.27C-96.26,-212.34 -94.55,-214.83 -88.87,-214.21C-79.93,-213.25 -70.70,-203.62 -64.28,-190.81ZM14.12,-212.95C3.26,-196.05 -7.66,-174.84 -16.36,-151.33L-9.10,-218.54L-47.51,-210.98L-35.40,-193.85L-46.80,-88.26L-53.12,-75.39L-9.87,-70.72L-23.67,-83.71L-21.03,-108.08C17.06,-108.89 39.95,-138.26 42.82,-164.86C44.97,-184.76 39.86,-204.01 34.62,-214.44ZM-19.08,-126.15C-16.98,-145.64 6.64,-195.07 10.70,-194.63C14.36,-194.23 18.78,-178.14 16.46,-156.62C14.57,-139.16 6.56,-110.64 -20.46,-113.36ZM164.35,-194.47L164.59,-196.70L132.30,-200.19L136.03,-234.71L109.36,-202.67L94.94,-204.22L107.45,-190.75L101.22,-133.08C98.30,-102.17 113.37,-99.11 120.68,-98.32C133.27,-96.96 149.41,-115.14 157.53,-137.07L155.39,-138.12C149.76,-125.99 138.96,-111.55 132.46,-112.25C126.98,-112.84 123.05,-114.50 125.46,-136.83L130.94,-187.60ZM211.45,-236.84L173.04,-229.27L185.16,-212.15L172.52,-95.19L198.92,-92.33L197.21,-105.05C199.06,-122.11 217.11,-154.26 229.44,-173.26L231.04,-172.89C232.42,-164.72 232.71,-150.31 229.29,-118.64L226.13,-89.40L264.51,-85.25L251.37,-104.34L253.91,-127.89C258.39,-169.32 258.62,-175.25 255.09,-192.06L234.64,-189.14C229.74,-183.71 210.72,-155.97 199.56,-126.78ZM346.65,-123.01C346.65,-123.01 328.95,-90.41 314.33,-91.99C307.02,-92.78 302.79,-104.95 302.78,-122.00L351.60,-155.55C352.04,-159.61 348.03,-179.56 328.74,-181.64C303.77,-184.34 279.30,-151.85 276.15,-122.61C273.23,-95.61 283.74,-80.71 301.81,-78.76C321.51,-76.63 342.51,-103.74 349.68,-120.63ZM302.90,-126.91C303.01,-129.78 303.13,-132.85 303.49,-136.10C306.99,-168.59 314.01,-174.61 317.91,-176.45C320.75,-177.99 329.85,-167.14 328.65,-146.53ZM-509.83,41.07L-526.37,61.06L-472.76,66.85L-484.65,43.79L-474.28,-52.26L-457.74,-72.25L-511.35,-78.04L-499.46,-54.98ZM-413.06,-29.42L-451.69,-19.83L-439.57,-2.70L-447.38,69.59L-420.98,72.44L-422.69,59.72C-420.85,42.67 -402.79,10.51 -390.47,-8.49L-388.86,-8.11C-387.49,0.05 -387.19,14.46 -390.61,46.14L-393.77,75.38L-367.58,78.21L-369.17,66.32L-368.67,61.65C-364.84,43.37 -347.37,12.80 -335.85,-4.44C-334.20,3.13 -333.44,16.98 -337.21,51.90L-340.30,80.54L-301.92,84.68L-315.13,66.20L-312.59,42.65C-308.11,1.22 -307.88,-4.71 -311.41,-21.52L-331.86,-18.60C-336.76,-13.17 -355.51,13.98 -366.65,42.97L-365.99,36.88C-361.52,-4.54 -361.29,-10.48 -364.81,-27.29L-385.26,-24.36C-390.16,-18.94 -409.18,8.80 -420.34,37.99ZM-249.40,-11.74L-288.03,-2.15L-275.91,14.97L-283.71,87.26L-257.32,90.11L-259.03,77.40C-257.18,60.34 -239.13,28.19 -226.80,9.18L-225.20,9.56C-223.82,17.72 -223.53,32.13 -226.95,63.81L-230.11,93.05L-203.91,95.88L-205.51,84.00L-205.00,79.33C-201.18,61.05 -183.70,30.48 -172.18,13.23C-170.54,20.81 -169.77,34.65 -173.54,69.58L-176.64,98.21L-138.26,102.36L-151.46,83.88L-148.92,60.32C-144.45,18.90 -144.22,12.97 -147.74,-3.85L-168.19,-0.92C-173.09,4.51 -191.84,31.65 -202.98,60.65L-202.33,54.56C-197.85,13.13 -197.62,7.20 -201.15,-9.61L-221.59,-6.69C-226.50,-1.26 -245.51,26.47 -256.68,55.67ZM-103.40,106.74C-89.33,88.74 -72.36,62.84 -62.12,34.57L-67.10,57.86L-72.74,110.05L-33.95,114.24L-47.09,95.15L-39.42,24.08L-30.52,13.95L-53.66,11.45C-96.19,7.68 -122.35,33.00 -126.42,70.77C-128.20,87.21 -124.30,102.43 -118.67,107.35ZM-98.46,91.45C-100.90,91.19 -102.21,82.42 -100.06,62.52C-97.85,42.01 -89.45,13.75 -62.22,16.48C-64.75,37.98 -94.60,91.87 -98.46,91.45ZM47.42,24.63L47.66,22.39L15.38,18.91L19.10,-15.61L-7.57,16.43L-21.99,14.87L-9.47,28.34L-15.70,86.01C-18.63,116.92 -3.55,119.99 3.76,120.78C16.35,122.13 32.48,103.95 40.60,82.03L38.46,80.97C32.83,93.10 22.03,107.55 15.53,106.85C10.05,106.25 6.12,104.60 8.53,82.26L14.02,31.50ZM121.49,84.39C121.49,84.39 103.80,116.99 89.18,115.42C81.87,114.63 77.63,102.46 77.63,85.41L126.45,51.85C126.88,47.79 122.88,27.84 103.58,25.76C78.61,23.06 54.15,55.55 50.99,84.79C48.07,111.80 58.58,126.70 76.66,128.65C96.35,130.78 117.36,103.67 124.52,86.78ZM77.75,80.49C77.85,77.63 77.98,74.56 78.33,71.31C81.84,38.82 88.86,32.80 92.75,30.96C95.59,29.42 104.69,40.26 103.49,60.88ZM217.88,72.62L218.57,71.87L205.14,36.52L202.50,36.24C188.67,52.00 175.96,76.51 167.62,98.62L174.59,34.05L135.96,43.64L148.08,60.76L140.27,133.05L165.25,135.75L164.96,123.19C167.18,102.68 188.89,63.32 191.86,62.41ZM266.37,15.40L251.54,-5.10L232.46,11.74L247.48,32.47ZM250.19,127.26L259.27,43.19L220.64,52.78L232.76,69.91L224.95,142.20L263.33,146.34ZM296.83,149.96C310.90,131.97 327.87,106.07 338.11,77.80L333.13,101.09L327.49,153.27L366.28,157.46L353.14,138.38L360.81,67.31L369.71,57.17L346.56,54.67C304.04,50.90 277.88,76.22 273.81,113.99C272.03,130.44 275.93,145.65 281.56,150.57ZM301.77,134.68C299.33,134.41 298.02,125.64 300.17,105.75C302.38,85.24 310.78,56.97 338.01,59.71C335.48,81.21 305.63,135.09 301.77,134.68ZM396.17,42.36L395.51,48.46L381.07,52.85L393.19,69.98L383.54,159.33L421.92,163.47L408.78,144.39L422.46,17.68L384.05,25.24Z" fill="#ffffff" stroke="#000000"/>
    <path d="M-327.21,-203.12L-316.28,-209.32L-316.04,-211.33L-370.59,-217.96L-370.85,-215.76L-352.12,-202.49L-356.14,-169.40C-361.67,-167.43 -368.64,-167.05 -372.45,-167.51C-406.54,-171.66 -408.90,-210.82 -405.14,-241.70C-401.31,-273.19 -388.91,-288.16 -369.66,-285.82C-348.00,-283.19 -339.77,-265.50 -333.10,-248.41L-330.49,-248.09L-325.54,-288.80L-355.42,-292.43C-401.35,-298.02 -431.40,-263.41 -435.74,-227.72C-440.52,-188.41 -422.36,-158.73 -388.07,-154.56C-375.43,-153.02 -363.54,-157.07 -353.51,-162.57L-336.76,-149.74L-333.75,-149.38ZM-223.76,-205.39L-223.06,-206.12L-235.88,-241.26L-238.48,-241.58C-252.37,-226.17 -265.27,-202.10 -273.81,-180.35L-266.06,-244.12L-304.39,-235.15L-292.63,-218.05L-301.31,-146.65L-276.65,-143.65L-276.76,-156.08C-274.30,-176.34 -252.30,-214.97 -249.35,-215.83ZM-201.64,-134.53C-187.50,-152.14 -170.37,-177.53 -159.86,-205.36L-165.09,-182.39L-171.36,-130.85L-133.06,-126.19L-145.80,-145.24L-137.27,-215.43L-128.33,-225.33L-151.19,-228.11C-193.20,-232.41 -219.40,-207.71 -223.94,-170.41C-225.92,-154.17 -222.26,-139.07 -216.75,-134.13ZM-196.56,-149.58C-198.96,-149.87 -200.15,-158.57 -197.76,-178.22C-195.29,-198.47 -186.61,-226.32 -159.72,-223.25C-162.50,-202.02 -192.75,-149.12 -196.56,-149.58ZM-65.56,-187.58L-62.95,-217.38L-77.19,-219.11C-99.25,-221.80 -113.93,-206.49 -115.66,-192.25C-118.32,-170.39 -80.03,-155.56 -82.43,-135.90C-83.08,-130.49 -86.61,-128.27 -92.63,-129.00C-104.26,-130.42 -112.97,-144.10 -121.88,-161.26L-122.70,-159.52L-122.03,-124.85L-105.59,-122.85C-79.72,-119.70 -66.44,-135.18 -64.83,-148.42C-62.24,-169.67 -100.45,-190.19 -98.74,-204.23C-98.13,-209.25 -96.41,-211.68 -90.79,-211.00C-81.97,-209.93 -72.97,-200.28 -66.79,-187.52ZM11.05,-208.38C0.08,-191.81 -11.00,-170.97 -19.92,-147.84L-11.85,-214.22L-49.94,-207.25L-38.18,-190.15L-50.86,-85.87L-57.28,-73.22L-14.57,-68.02L-28.04,-81.06L-25.12,-105.12C12.57,-105.42 35.60,-134.17 38.80,-160.44C41.19,-180.09 36.39,-199.19 31.34,-209.58ZM-22.95,-122.97C-20.60,-142.22 3.42,-190.79 7.43,-190.30C11.04,-189.86 15.20,-173.89 12.61,-152.63C10.52,-135.39 2.21,-107.29 -24.48,-110.34ZM159.38,-188.10L159.65,-190.31L127.76,-194.18L131.91,-228.28L105.10,-196.94L90.87,-198.67L103.06,-185.18L96.14,-128.23C92.83,-97.70 107.70,-94.46 114.92,-93.59C127.35,-92.07 143.56,-109.84 151.88,-131.42L149.77,-132.49C144.05,-120.57 133.17,-106.43 126.75,-107.21C121.34,-107.86 117.47,-109.56 120.15,-131.62L126.25,-181.75ZM206.53,-229.38L168.44,-222.41L180.20,-205.31L166.15,-89.80L192.22,-86.63L190.70,-99.22C192.75,-116.07 211.04,-147.63 223.48,-166.26L225.06,-165.87C226.31,-157.78 226.41,-143.52 222.60,-112.24L219.09,-83.36L256.99,-78.75L244.25,-97.80L247.08,-121.06C252.06,-161.97 252.36,-167.84 249.10,-184.51L228.84,-181.89C223.92,-176.59 204.74,-149.41 193.31,-120.68ZM338.74,-115.00C338.74,-115.00 320.80,-82.99 306.36,-84.75C299.14,-85.63 295.12,-97.72 295.34,-114.58L344.07,-147.12C344.56,-151.13 340.86,-170.91 321.81,-173.23C297.14,-176.23 272.51,-144.42 269.00,-115.55C265.76,-88.87 275.95,-74.00 293.80,-71.83C313.26,-69.46 334.39,-95.99 341.70,-112.61ZM295.52,-119.44C295.66,-122.28 295.83,-125.31 296.22,-128.52C300.12,-160.60 307.14,-166.47 311.02,-168.23C313.85,-169.72 322.71,-158.87 321.24,-138.50ZM-510.54,35.89L-527.16,55.44L-474.22,61.88L-485.67,38.91L-474.14,-55.95L-457.51,-75.50L-510.46,-81.94L-499.00,-58.97ZM-413.90,-32.54L-452.23,-23.57L-440.47,-6.47L-449.15,64.92L-423.08,68.10L-424.60,55.50C-422.55,38.65 -404.27,7.09 -391.82,-11.54L-390.24,-11.15C-388.99,-3.06 -388.89,11.20 -392.70,42.49L-396.21,71.36L-370.34,74.51L-371.76,62.74L-371.20,58.13C-367.17,40.10 -349.48,10.09 -337.86,-6.81C-336.33,0.70 -335.76,14.41 -339.95,48.90L-343.39,77.18L-305.49,81.79L-318.31,63.34L-315.48,40.07C-310.50,-0.84 -310.20,-6.70 -313.46,-23.38L-333.72,-20.76C-338.64,-15.45 -357.55,11.15 -368.95,39.68L-368.22,33.66C-363.24,-7.25 -362.94,-13.12 -366.20,-29.79L-386.46,-27.17C-391.38,-21.87 -410.56,5.31 -421.99,34.04ZM-252.26,-12.88L-290.59,-3.91L-278.83,13.19L-287.52,84.58L-261.45,87.75L-262.97,75.16C-260.92,58.31 -242.63,26.75 -230.19,8.12L-228.61,8.51C-227.35,16.60 -227.26,30.86 -231.06,62.14L-234.57,91.02L-208.70,94.17L-210.12,82.40L-209.56,77.78C-205.53,59.75 -187.84,29.75 -176.22,12.85C-174.69,20.36 -174.12,34.07 -178.32,68.56L-181.76,96.84L-143.85,101.45L-156.67,83.00L-153.84,59.73C-148.87,18.82 -148.56,12.96 -151.82,-3.72L-172.08,-1.10C-177.00,4.21 -195.91,30.81 -207.32,59.33L-206.58,53.32C-201.61,12.41 -201.30,6.54 -204.56,-10.13L-224.83,-7.51C-229.75,-2.21 -248.92,24.97 -260.36,53.70ZM-109.43,106.24C-95.29,88.63 -78.16,63.24 -67.65,35.42L-72.88,58.39L-79.15,109.93L-40.85,114.58L-53.59,95.53L-45.05,25.34L-36.12,15.44L-58.98,12.66C-100.99,8.36 -127.19,33.06 -131.73,70.36C-133.71,86.60 -130.05,101.70 -124.54,106.64ZM-104.35,91.19C-106.75,90.90 -107.94,82.21 -105.55,62.55C-103.08,42.30 -94.40,14.46 -67.51,17.52C-70.29,38.76 -100.54,91.65 -104.35,91.19ZM40.82,27.04L41.09,24.83L9.21,20.95L13.35,-13.14L-13.46,18.20L-27.69,16.47L-15.50,29.96L-22.42,86.91C-25.73,117.44 -10.86,120.67 -3.64,121.55C8.79,123.06 25.00,105.30 33.32,83.72L31.21,82.65C25.49,94.57 14.61,108.71 8.19,107.93C2.78,107.27 -1.09,105.58 1.60,83.52L7.69,33.39ZM113.29,87.14C113.29,87.14 95.35,119.14 80.92,117.39C73.70,116.51 69.67,104.42 69.89,87.56L118.62,55.02C119.11,51.01 115.41,31.23 96.36,28.91C71.69,25.91 47.06,57.71 43.55,86.59C40.31,113.26 50.51,128.14 68.35,130.31C87.81,132.67 108.94,106.14 116.25,89.53ZM70.08,82.69C70.22,79.86 70.38,76.83 70.77,73.62C74.67,41.53 81.70,35.67 85.57,33.91C88.40,32.42 97.26,43.26 95.80,63.64ZM208.77,76.77L209.47,76.04L196.65,40.90L194.05,40.59C180.16,55.99 167.27,80.07 158.72,101.82L166.47,38.05L128.14,47.02L139.90,64.12L131.22,135.51L155.88,138.51L155.77,126.08C158.23,105.83 180.23,67.19 183.18,66.33ZM257.50,20.83L243.10,0.36L224.01,16.76L238.59,37.46ZM240.00,131.24L250.10,48.22L211.77,57.19L223.53,74.29L214.84,145.68L252.74,150.29ZM285.83,154.32C299.98,136.71 317.11,111.32 327.62,83.49L322.38,106.46L316.12,158.00L354.42,162.66L341.68,143.61L350.21,73.42L359.15,63.52L336.29,60.74C294.28,56.44 268.08,81.13 263.54,118.43C261.56,134.68 265.22,149.78 270.73,154.72ZM290.92,139.27C288.51,138.97 287.33,130.28 289.72,110.63C292.19,90.37 300.86,62.53 327.76,65.60C324.98,86.83 294.73,139.73 290.92,139.27ZM385.51,49.22L384.78,55.24L370.44,59.39L382.20,76.49L371.47,164.73L409.37,169.34L396.63,150.29L411.85,25.15L373.76,32.12Z" fill="#ffffff" stroke="#000000"/>
    <path d="M-326.60,-203.27L-315.71,-209.26L-315.44,-211.24L-369.29,-218.52L-369.59,-216.35L-351.24,-202.98L-355.66,-170.31C-361.15,-168.43 -368.04,-168.15 -371.81,-168.66C-405.47,-173.21 -407.28,-211.97 -403.15,-242.46C-398.95,-273.55 -386.48,-288.19 -367.47,-285.62C-346.09,-282.73 -338.19,-265.12 -331.82,-248.13L-329.25,-247.78L-323.81,-287.98L-353.31,-291.97C-398.65,-298.10 -428.83,-264.28 -433.60,-229.04C-438.85,-190.23 -421.28,-160.64 -387.42,-156.06C-374.95,-154.37 -363.14,-158.21 -353.15,-163.52L-336.75,-150.61L-333.78,-150.21ZM-224.26,-204.14L-223.56,-204.86L-235.77,-239.77L-238.34,-240.12C-252.27,-225.07 -265.35,-201.44 -274.09,-180.04L-265.58,-243.00L-303.60,-234.64L-292.20,-217.57L-301.74,-147.08L-277.39,-143.79L-277.34,-156.08C-274.63,-176.08 -252.36,-213.99 -249.43,-214.81ZM-203.34,-133.77C-189.11,-151.00 -171.83,-175.88 -161.07,-203.26L-166.55,-180.61L-173.44,-129.72L-135.62,-124.61L-147.97,-143.62L-138.59,-212.92L-129.62,-222.59L-152.19,-225.64C-193.68,-230.45 -219.92,-206.38 -224.91,-169.55C-227.08,-153.51 -223.66,-138.54 -218.28,-133.57ZM-198.10,-148.59C-200.48,-148.91 -201.53,-157.52 -198.91,-176.92C-196.20,-196.92 -187.25,-224.34 -160.69,-220.95C-163.73,-199.99 -194.34,-148.08 -198.10,-148.59ZM-68.05,-184.42L-65.08,-213.86L-79.13,-215.76C-100.91,-218.71 -115.64,-203.76 -117.54,-189.70C-120.46,-168.12 -82.79,-152.95 -85.42,-133.54C-86.14,-128.20 -89.66,-126.05 -95.60,-126.85C-107.08,-128.41 -115.52,-142.05 -124.09,-159.14L-124.93,-157.44L-124.73,-123.14L-108.49,-120.94C-82.95,-117.48 -69.62,-132.61 -67.85,-145.68C-65.01,-166.67 -102.52,-187.47 -100.64,-201.33C-99.97,-206.28 -98.24,-208.67 -92.69,-207.92C-83.98,-206.74 -75.21,-197.08 -69.26,-184.38ZM7.99,-203.97C-3.08,-187.73 -14.32,-167.27 -23.45,-144.51L-14.58,-210.05L-52.34,-203.67L-40.94,-186.60L-54.87,-83.64L-61.39,-71.22L-19.22,-65.51L-32.37,-78.58L-29.15,-102.34C8.12,-102.14 31.28,-130.25 34.79,-156.19C37.41,-175.60 32.92,-194.55 28.07,-204.88ZM-26.77,-119.96C-24.20,-138.97 0.20,-186.68 4.16,-186.14C7.73,-185.66 11.63,-169.81 8.79,-148.82C6.49,-131.79 -2.10,-104.12 -28.46,-107.49ZM154.41,-181.95L154.70,-184.12L123.22,-188.38L127.77,-222.04L100.85,-191.41L86.79,-193.31L98.67,-179.81L91.06,-123.58C87.39,-93.43 102.05,-90.03 109.18,-89.07C121.45,-87.41 137.71,-104.76 146.23,-125.99L144.16,-127.08C138.34,-115.37 127.40,-101.52 121.06,-102.38C115.71,-103.10 111.91,-104.83 114.86,-126.61L121.56,-176.11ZM201.58,-222.14L163.82,-215.75L175.22,-198.69L159.79,-84.64L185.53,-81.16L184.19,-93.64C186.44,-110.27 204.95,-141.23 217.50,-159.50L219.06,-159.08C220.19,-151.07 220.10,-136.97 215.92,-106.08L212.06,-77.57L249.48,-72.51L237.13,-91.52L240.24,-114.48C245.71,-154.87 246.09,-160.67 243.08,-177.21L223.01,-174.88C218.07,-169.70 198.75,-143.08 187.06,-114.82ZM330.80,-107.27C330.80,-107.27 312.64,-75.86 298.38,-77.78C291.26,-78.75 287.44,-90.76 287.88,-107.43L336.50,-138.96C337.04,-142.92 333.64,-162.53 314.83,-165.08C290.48,-168.37 265.70,-137.25 261.84,-108.74C258.28,-82.40 268.17,-67.56 285.79,-65.17C305.00,-62.58 326.25,-88.53 333.70,-104.86ZM288.13,-112.24C288.30,-115.04 288.51,-118.03 288.93,-121.20C293.22,-152.88 300.24,-158.58 304.10,-160.28C306.92,-161.71 315.53,-150.87 313.81,-130.74ZM-511.07,30.65L-527.77,49.76L-475.50,56.83L-486.52,33.97L-473.85,-59.68L-457.15,-78.79L-509.42,-85.86L-498.40,-63.00ZM-414.59,-35.73L-452.62,-27.37L-441.22,-10.30L-450.75,60.18L-425.01,63.67L-426.35,51.19C-424.10,34.55 -405.60,3.59 -393.04,-14.67L-391.49,-14.26C-390.35,-6.24 -390.45,7.86 -394.63,38.74L-398.48,67.26L-372.94,70.71L-374.19,59.05L-373.57,54.50C-369.35,36.72 -351.46,7.28 -339.74,-9.28C-338.33,-1.83 -337.94,11.73 -342.55,45.79L-346.33,73.71L-308.91,78.77L-321.34,60.35L-318.23,37.39C-312.76,-3.01 -312.38,-8.80 -315.39,-25.34L-335.46,-23.01C-340.40,-17.83 -359.45,8.22 -371.11,36.28L-370.30,30.34C-364.84,-10.05 -364.46,-15.85 -367.46,-32.38L-387.53,-30.06C-392.47,-24.88 -411.80,1.74 -423.48,30.00ZM-255.01,-14.14L-293.03,-5.78L-281.63,11.29L-291.17,81.77L-265.43,85.26L-266.77,72.78C-264.52,56.15 -246.01,25.18 -233.46,6.92L-231.90,7.33C-230.77,15.35 -230.86,29.45 -235.04,60.33L-238.90,88.85L-213.36,92.30L-214.60,80.64L-213.99,76.09C-209.77,58.31 -191.87,28.88 -180.15,12.32C-178.74,19.76 -178.36,33.32 -182.97,67.38L-186.74,95.30L-149.32,100.36L-161.75,81.94L-158.64,58.98C-153.18,18.59 -152.80,12.79 -155.80,-3.75L-175.88,-1.42C-180.81,3.76 -199.86,29.81 -211.52,57.87L-210.72,51.93C-205.25,11.54 -204.87,5.75 -207.88,-10.79L-227.95,-8.47C-232.88,-3.29 -252.21,23.33 -263.90,51.59ZM-115.35,105.56C-101.12,88.33 -83.84,63.45 -73.08,36.08L-78.57,58.72L-85.45,109.61L-47.63,114.72L-59.98,95.71L-50.61,26.42L-41.64,16.74L-64.21,13.69C-105.70,8.88 -131.94,32.95 -136.92,69.78C-139.09,85.82 -135.67,100.80 -130.29,105.76ZM-110.12,90.75C-112.49,90.42 -113.55,81.81 -110.92,62.41C-108.22,42.41 -99.26,14.99 -72.71,18.38C-75.74,39.35 -106.36,91.25 -110.12,90.75ZM34.30,29.23L34.59,27.05L3.11,22.80L7.67,-10.86L-19.26,19.77L-33.32,17.87L-21.44,31.37L-29.04,87.60C-32.72,117.75 -18.06,121.14 -10.93,122.11C1.35,123.77 17.61,106.41 26.12,85.19L24.05,84.10C18.23,95.81 7.29,109.65 0.95,108.80C-4.39,108.07 -8.19,106.35 -5.25,84.57L1.45,35.07ZM105.16,89.63C105.16,89.63 87.00,121.04 72.74,119.11C65.62,118.15 61.80,106.14 62.24,89.47L110.86,57.94C111.40,53.98 108.00,34.37 89.19,31.82C64.84,28.53 40.06,59.65 36.20,88.16C32.64,114.50 42.53,129.34 60.15,131.73C79.36,134.32 100.61,108.37 108.06,92.04ZM62.49,84.66C62.66,81.86 62.87,78.87 63.30,75.70C67.58,44.02 74.60,38.31 78.46,36.62C81.28,35.19 89.89,46.03 88.18,66.16ZM199.73,80.65L200.43,79.94L188.22,45.02L185.64,44.67C171.71,59.72 158.63,83.35 149.89,104.75L158.41,41.79L120.38,50.15L131.78,67.22L122.25,137.71L146.60,141.00L146.65,128.71C149.36,108.71 171.62,70.80 174.56,69.98ZM248.66,25.98L234.69,5.54L215.59,21.50L229.73,42.17ZM229.88,134.93L240.97,52.96L202.95,61.32L214.35,78.39L204.81,148.88L242.23,153.94ZM274.90,158.36C289.13,141.13 306.41,116.25 317.17,88.88L311.68,111.52L304.80,162.41L342.62,167.52L330.27,148.51L339.64,79.21L348.61,69.54L326.04,66.49C284.55,61.68 258.31,85.75 253.33,122.58C251.16,138.62 254.58,153.60 259.96,158.56ZM280.13,143.54C277.76,143.22 276.70,134.61 279.33,115.21C282.03,95.21 290.99,67.79 317.54,71.18C314.51,92.14 283.89,144.05 280.13,143.54ZM374.88,55.75L374.07,61.69L359.83,65.61L371.23,82.68L359.45,169.80L396.87,174.86L384.52,155.85L401.24,32.30L363.47,38.69Z" fill="#ffffff" stroke="#000000"/>
    <path d="M-910.99,465.97L-908.82,469.92L-908.82,487.97L-910.99,492L-903.01,492C-897.88,492 -890.88,490.52 -890.88,485.05C-890.88,481.17 -893.70,478.93 -898.22,477.86C-895.52,476.80 -892.48,475.13 -892.48,471.71C-892.48,467.19 -897.23,465.97 -902.70,465.97ZM-904.11,467.19L-902.85,467.19C-900.38,467.19 -897.15,467.91 -897.15,472.47C-897.15,475.43 -899.47,477.64 -904.11,477.64ZM-904.11,490.52L-904.11,478.59C-899.47,478.59 -896.20,479.92 -896.20,484.93C-896.20,488.58 -899.28,490.52 -902.97,490.52ZM-886.02,470.11L-886.02,471.25L-888.60,472.35L-886.02,475.28L-886.02,492L-878.84,492L-881.65,488.73L-881.65,465.02L-888.60,467.19ZM-866.26,492L-859.31,492L-861.89,489.07L-861.89,473.38L-866.83,473.38L-866.26,475.70C-866.26,478.97 -869.11,485.54 -871.01,489.23C-871.16,487.71 -871.28,485.27 -871.28,478.85L-871.28,472.62L-878.46,473.38L-875.65,476.65L-875.65,485.81C-875.65,488.58 -875.15,491.09 -874.92,492.30L-871.50,492C-870.71,490.90 -867.74,485.39 -866.26,479.76ZM-846.42,492L-839.47,492L-842.05,489.07L-842.05,473.38L-846.99,473.38L-846.42,475.70C-846.42,478.97 -849.27,485.54 -851.17,489.23C-851.33,487.71 -851.44,485.27 -851.44,478.85L-851.44,472.62L-858.62,473.38L-855.81,476.65L-855.81,485.81C-855.81,488.58 -855.32,491.09 -855.09,492.30L-851.67,492C-850.87,490.90 -847.91,485.39 -846.42,479.76ZM-818.95,492L-813.33,492L-814.88,489.80L-814.88,469.50L-812.22,465.97L-819.75,465.97L-816.63,469.24L-816.63,487.67L-831.45,465.97L-837.42,465.97L-833.92,470.80L-833.92,488.47L-836.58,492L-829.13,492L-832.21,488.73L-832.21,473.42ZM-796.11,483.37C-796.11,483.37 -798.73,489.76 -801.47,489.76C-802.84,489.76 -803.86,487.59 -804.21,484.44L-795.85,477.26C-795.85,476.50 -796.99,472.89 -800.60,472.89C-805.27,472.89 -809.15,479.38 -809.15,484.86C-809.15,489.91 -806.90,492.46 -803.52,492.46C-799.84,492.46 -796.49,487.02 -795.50,483.75ZM-804.28,483.53C-804.32,482.99 -804.36,482.42 -804.36,481.82C-804.36,475.74 -803.18,474.48 -802.50,474.06C-802.00,473.72 -800.10,475.55 -799.91,479.38ZM-781.06,492L-774.68,492L-777.87,489.53L-782.39,481.74C-780.99,479.92 -778.59,476.65 -777.42,473.38L-782.85,473.38L-780.38,475.47C-780.38,477.60 -781.94,479.42 -782.93,480.83L-787.26,473.38L-793.64,473.38L-790.87,475.77L-786.54,482.99C-788.17,485.05 -791.48,488.92 -792.58,492L-786.80,492L-789.08,489.91C-789.08,487.90 -787.18,485.54 -785.97,483.91ZM-760.77,473.80L-760.77,473.38L-766.81,473.38L-766.81,466.92L-771.11,473.38L-773.81,473.38L-771.22,475.62L-771.22,486.41C-771.15,492.19 -768.30,492.46 -766.93,492.46C-764.57,492.46 -761.95,488.77 -760.89,484.55L-761.30,484.40C-762.10,486.76 -763.81,489.64 -765.03,489.64C-766.05,489.64 -766.81,489.42 -766.81,485.24L-766.81,475.74ZM-758.45,479.84L-758.45,482.73L-749.98,482.73L-749.98,479.84ZM-746.83,465.97L-744.66,469.92L-744.66,487.97L-746.83,492L-738.85,492C-733.72,492 -726.72,490.52 -726.72,485.05C-726.72,481.17 -729.54,478.93 -734.06,477.86C-731.36,476.80 -728.32,475.13 -728.32,471.71C-728.32,467.19 -733.07,465.97 -738.54,465.97ZM-739.95,467.19L-738.69,467.19C-736.22,467.19 -732.99,467.91 -732.99,472.47C-732.99,475.43 -735.31,477.64 -739.95,477.64ZM-739.95,490.52L-739.95,478.59C-735.31,478.59 -732.04,479.92 -732.04,484.93C-732.04,488.58 -735.12,490.52 -738.81,490.52ZM-723.80,484.44C-723.80,489.57 -720.68,492.53 -716.62,492.53C-711.45,492.53 -706.96,487.10 -706.96,481.17C-706.96,476.15 -709.85,472.92 -714.60,472.92C-719.96,472.92 -723.80,478.32 -723.80,484.44ZM-716.08,474.14C-714.94,474.14 -711.98,476.19 -711.98,482.88C-711.98,489.15 -714.22,491.28 -715.36,491.28C-716.50,491.28 -719.01,488.20 -719.01,481.89C-719.01,475.17 -717.22,474.14 -716.08,474.14ZM-702.82,470.11L-702.82,471.25L-705.41,472.35L-702.82,475.28L-702.82,492L-695.64,492L-698.45,488.73L-698.45,465.02L-705.41,467.19ZM-676.15,492L-678.96,489.34L-678.96,465.02L-685.91,467.19L-683.33,470.11L-683.33,473.46C-690.43,474.22 -694.35,479.35 -694.35,485.81C-694.35,488.88 -693.09,491.62 -691.95,492.42L-689.14,492C-686.90,488.39 -684.28,483.26 -682.95,477.83L-683.40,482.23L-683.40,492.34ZM-688.53,489.07C-688.99,489.07 -689.64,487.48 -689.64,483.75C-689.64,479.92 -688.42,474.52 -683.33,474.48C-683.37,478.51 -687.81,489.07 -688.53,489.07ZM-671.36,487.97L-674.02,492L-663.99,492L-666.65,487.97L-666.65,470.00L-663.99,465.97L-674.02,465.97L-671.36,470.00ZM-649.13,473.80L-649.13,473.38L-655.17,473.38L-655.17,466.92L-659.46,473.38L-662.16,473.38L-659.58,475.62L-659.58,486.41C-659.50,492.19 -656.65,492.46 -655.28,492.46C-652.93,492.46 -650.31,488.77 -649.24,484.55L-649.66,484.40C-650.46,486.76 -652.17,489.64 -653.38,489.64C-654.41,489.64 -655.17,489.42 -655.17,485.24L-655.17,475.74ZM-642.29,492C-640.05,488.39 -637.42,483.26 -636.09,477.83L-636.55,482.23L-636.55,492L-629.29,492L-632.10,488.73L-632.10,475.43L-630.66,473.38L-634.99,473.38C-642.93,473.53 -647.27,478.74 -647.27,485.81C-647.27,488.88 -646.24,491.62 -645.10,492.42ZM-641.68,489.07C-642.14,489.07 -642.55,487.48 -642.55,483.75C-642.55,479.92 -641.57,474.52 -636.47,474.48C-636.51,478.51 -640.96,489.07 -641.68,489.07ZM-626.06,470.11L-626.06,471.25L-628.65,472.35L-626.06,475.28L-626.06,492L-618.88,492L-621.69,488.73L-621.69,465.02L-628.65,467.19ZM-610.52,467.72L-613.67,464.22L-616.87,467.72L-613.67,471.25ZM-611.28,488.73L-611.28,473L-618.23,475.55L-615.65,478.47L-615.65,492L-608.47,492ZM-594.98,478.32L-594.86,478.17L-597.52,472.85L-597.90,472.85C-602.54,474.03 -607.18,479.27 -607.18,485.05C-607.18,490.10 -604.74,492.46 -601.59,492.46C-599.61,492.46 -596.08,489.53 -594.10,483.72L-594.71,483.34C-596.46,487.36 -598.51,489.76 -599.77,489.76C-601.48,489.76 -602.39,486.68 -602.39,481.78C-602.39,479.27 -601.74,475.77 -601.02,475.77Z"/>
</svg>