<?xml version="1.0"?>
<svg xmlns="http://www.w3.org/2000/svg" width="1920" height="1080" viewBox="-960 -540 1920 1080">
    <path d="M-513.93,-147L-513.93,-178.08L-541.68,-178.08L-532.80,-204.50L-481.30,-204.50L-471.31,-178.08L-496.84,-178.08L-496.84,-147L-430.01,-147L-430.01,-178.08L-453.10,-178.08L-487.96,-273.54L-472.19,-273.54L-472.19,-309.06L-526.14,-309.06L-572.09,-178.08L-594.52,-178.08L-594.52,-147ZM-508.16,-276.43L-487.07,-220.26L-527.69,-220.26ZM-412.48,-178.75L-412.48,-146.78C-406.26,-147 -369.63,-147 -357.20,-146.78L-357.20,-178.75L-376.96,-178.75L-376.96,-211.38C-370.96,-226.92 -358.31,-233.36 -341.44,-233.36C-320.57,-233.36 -312.13,-223.15 -312.13,-200.50L-312.13,-178.75L-333.67,-178.75L-333.67,-146.78C-324.34,-147 -300.14,-146.78 -277.94,-146.78L-277.94,-178.75L-298.15,-178.75L-298.15,-214.27C-298.15,-257.78 -310.80,-271.32 -340.33,-271.32C-356.98,-271.32 -372.52,-261.55 -376.96,-244.68L-376.96,-269.10L-412.48,-269.10L-412.48,-232.69C-408.48,-232.91 -400.04,-232.91 -391.39,-232.91L-391.39,-178.75ZM-81.92,-197.84L-81.92,-178.97L-153.40,-178.97L-153.40,-219.59L-103.67,-219.59L-103.67,-199.84L-93.02,-199.84L-93.02,-250.67L-103.67,-250.67L-103.67,-232.03L-153.40,-232.03L-153.40,-269.10L-83.47,-269.10L-83.47,-251.56L-70.60,-251.56L-70.60,-309.06L-189.14,-309.06L-189.14,-269.10L-169.16,-269.10L-169.16,-178.97L-189.14,-178.97L-189.14,-147L-69.04,-147L-69.04,-197.84ZM-47.95,-178.75L-47.95,-146.78C-41.74,-147 -5.11,-147 7.33,-146.78L7.33,-178.75L-12.43,-178.75L-12.43,-211.38C-6.44,-226.92 6.22,-233.36 23.09,-233.36C43.96,-233.36 52.39,-223.15 52.39,-200.50L52.39,-178.75L30.86,-178.75L30.86,-146.78C40.18,-147 64.38,-146.78 86.58,-146.78L86.58,-178.75L66.38,-178.75L66.38,-214.27C66.38,-257.78 53.72,-271.32 24.20,-271.32C7.55,-271.32 -7.99,-261.55 -12.43,-244.68L-12.43,-269.10L-47.95,-269.10L-47.95,-232.69C-43.96,-232.91 -35.52,-232.91 -26.86,-232.91L-26.86,-178.75ZM191.81,-147L230.21,-147L230.21,-178.97L204.02,-178.97L204.02,-324.60L162.95,-324.60L162.95,-285.75L189.59,-285.75L189.59,-249.34C182.04,-265.99 166.72,-271.10 152.74,-271.32C125.21,-271.54 106.56,-253.78 106.56,-206.05C106.56,-167.20 123.88,-144.78 153.62,-144.78C169.83,-144.78 183.37,-153.88 190.25,-166.09ZM154.51,-170.98C131.20,-170.98 119.44,-184.96 119.66,-205.83C119.66,-222.26 131.42,-235.36 154.07,-235.36C179.82,-235.36 189.37,-222.48 189.59,-206.05L189.59,-184.30C182.04,-173.64 170.94,-170.98 154.51,-170.98ZM287.93,-304.40C287.93,-317.27 280.83,-322.38 268.84,-322.38C255.52,-322.38 248.86,-317.05 248.86,-304.40C248.86,-291.74 255.97,-285.75 268.84,-285.75C280.39,-285.75 287.93,-291.74 287.93,-304.40ZM244.64,-178.75L244.64,-146.78C254.19,-147 263.29,-147 272.39,-147L280.16,-147C289.71,-147 299.26,-146.78 309.25,-146.78L309.25,-178.75L286.82,-178.75L286.82,-264.66L244.64,-264.66L244.64,-228.25L272.39,-228.25L272.39,-178.75ZM329.23,-178.75L329.23,-146.78C335.44,-147 372.07,-147 384.50,-146.78L384.50,-178.75L364.75,-178.75L364.75,-211.38C370.74,-226.92 383.39,-233.36 400.27,-233.36C421.13,-233.36 429.57,-223.15 429.57,-200.50L429.57,-178.75L408.04,-178.75L408.04,-146.78C417.36,-147 441.56,-146.78 463.76,-146.78L463.76,-178.75L443.56,-178.75L443.56,-214.27C443.56,-257.78 430.90,-271.32 401.38,-271.32C384.73,-271.32 369.19,-261.55 364.75,-244.68L364.75,-269.10L329.23,-269.10L329.23,-232.69C333.22,-232.91 341.66,-232.91 350.32,-232.91L350.32,-178.75ZM536.13,-93.05C572.76,-93.05 589.19,-114.37 589.19,-133.46C589.19,-152.11 579.42,-164.54 558.11,-164.32C542.35,-164.09 529.91,-160.32 516.37,-160.32C510.16,-160.32 505.72,-163.87 505.49,-171.42C505.27,-175.86 508.38,-178.97 512.15,-180.97C519.26,-178.30 527.03,-177.41 534.35,-177.41C554.78,-177.41 581.20,-185.18 581.20,-219.37C581.20,-227.59 580.31,-234.47 578.75,-240.46C585.86,-244.24 596.51,-240.91 596.51,-240.91L604.51,-269.10C588.97,-270.88 577.42,-267.77 571.65,-256.22C563.66,-267.10 550.56,-271.32 534.35,-271.32C506.60,-271.32 488.40,-258.22 488.40,-218.93C488.40,-205.83 491.95,-196.73 497.72,-190.51C490.62,-185.18 487.96,-176.75 488.18,-169.20C488.40,-156.77 497.06,-143.23 514.82,-143.23C529.91,-143.23 543.23,-146.33 555.89,-146.33C564.32,-146.33 570.98,-141.89 570.98,-135.68C570.98,-127.91 561.88,-120.36 537.68,-120.36C515.71,-120.36 497.06,-127.91 489.29,-139.45L483.74,-120.14C489.29,-104.82 511.93,-93.05 536.13,-93.05ZM534.35,-196.51C512.38,-196.51 503.05,-207.38 503.05,-218.26C503.27,-230.69 511.93,-238.91 534.35,-238.91C556.11,-238.91 566.32,-231.14 566.54,-218.26C566.54,-208.27 555.89,-196.51 534.35,-196.51Z" fill="#ffffff" stroke="#000000"/>
    <path d="M-519.49,-124.11L-520.59,-154.86L-548.04,-153.88L-540.19,-180.33L-489.23,-182.15L-478.42,-156.36L-503.67,-155.46L-502.58,-124.71L-436.46,-127.07L-437.56,-157.82L-460.40,-157.01L-498.26,-250.22L-482.67,-250.78L-483.92,-285.92L-537.29,-284.01L-578.13,-152.80L-600.32,-152.01L-599.22,-121.26ZM-518.35,-252.36L-495.50,-197.54L-535.69,-196.10ZM-420.23,-159.10L-419.11,-127.47C-412.96,-127.91 -376.72,-129.20 -364.41,-129.42L-365.54,-161.05L-385.09,-160.35L-386.24,-192.64C-380.86,-208.23 -368.57,-215.04 -351.88,-215.64C-331.23,-216.38 -322.52,-206.57 -321.73,-184.17L-320.96,-162.64L-342.26,-161.88L-341.13,-130.25C-331.92,-130.80 -307.97,-131.44 -286.00,-132.22L-287.13,-163.85L-307.12,-163.14L-308.37,-198.28C-309.91,-241.33 -322.91,-254.28 -352.12,-253.24C-368.59,-252.65 -383.62,-242.44 -387.42,-225.59L-388.28,-249.75L-423.43,-248.49L-422.14,-212.47C-418.19,-212.83 -409.85,-213.13 -401.28,-213.44L-399.37,-159.84ZM-93.86,-189.66L-93.20,-170.99L-163.92,-168.47L-165.36,-208.66L-116.16,-210.42L-115.46,-190.87L-104.92,-191.25L-106.71,-241.54L-117.26,-241.17L-116.60,-222.72L-165.80,-220.96L-167.11,-257.64L-97.92,-260.11L-97.30,-242.76L-84.56,-243.21L-86.59,-300.10L-203.88,-295.91L-202.47,-256.38L-182.70,-257.09L-179.52,-167.91L-199.28,-167.21L-198.16,-135.58L-79.33,-139.82L-81.13,-190.12ZM-59.59,-171.97L-58.46,-140.34C-52.31,-140.78 -16.07,-142.08 -3.77,-142.30L-4.89,-173.92L-24.44,-173.23L-25.60,-205.51C-20.21,-221.10 -7.92,-227.92 8.77,-228.51C29.42,-229.25 38.12,-219.44 38.92,-197.04L39.69,-175.52L18.39,-174.76L19.52,-143.13C28.73,-143.68 52.68,-144.31 74.65,-145.10L73.52,-176.72L53.53,-176.01L52.28,-211.15C50.74,-254.20 37.74,-267.15 8.53,-266.11C-7.94,-265.52 -22.97,-255.31 -26.77,-238.46L-27.63,-262.62L-62.78,-261.37L-61.49,-225.34C-57.54,-225.71 -49.20,-226.00 -40.63,-226.31L-38.72,-172.72ZM178.75,-149.03L216.75,-150.39L215.62,-182.02L189.70,-181.09L184.56,-325.17L143.92,-323.72L145.29,-285.29L171.65,-286.23L172.94,-250.21C164.88,-266.41 149.55,-270.92 135.70,-270.65C108.46,-269.90 90.63,-251.67 92.32,-204.44C93.69,-166.01 111.62,-144.44 141.05,-145.49C157.08,-146.06 170.16,-155.54 176.54,-167.87ZM141.00,-171.44C117.94,-170.61 105.80,-184.03 105.29,-204.69C104.71,-220.94 115.88,-234.32 138.29,-235.12C163.77,-236.02 173.67,-223.62 174.47,-207.38L175.23,-185.85C168.14,-175.04 157.25,-172.02 141.00,-171.44ZM268.29,-308.15C267.84,-320.89 260.63,-325.69 248.77,-325.27C235.59,-324.80 229.19,-319.29 229.64,-306.77C230.08,-294.25 237.32,-288.57 250.06,-289.03C261.48,-289.43 268.74,-295.63 268.29,-308.15ZM229.90,-182.31L231.03,-150.68C240.47,-151.23 249.47,-151.56 258.48,-151.88L266.16,-152.15C275.61,-152.49 285.06,-152.61 294.94,-152.96L293.82,-184.59L271.63,-183.80L268.60,-268.80L226.87,-267.31L228.15,-231.29L255.61,-232.27L257.36,-183.29ZM313.58,-185.29L314.71,-153.66C320.85,-154.10 357.10,-155.40 369.40,-155.62L368.27,-187.25L348.73,-186.55L347.57,-218.83C352.95,-234.42 365.25,-241.24 381.94,-241.83C402.59,-242.57 411.29,-232.76 412.09,-210.36L412.86,-188.84L391.56,-188.08L392.68,-156.45C401.90,-157.00 425.85,-157.63 447.81,-158.42L446.69,-190.04L426.70,-189.33L425.44,-224.47C423.91,-267.52 410.91,-280.47 381.70,-279.43C365.22,-278.84 350.19,-268.63 346.40,-251.78L345.53,-275.94L310.39,-274.69L311.68,-238.67C315.62,-239.03 323.97,-239.32 332.54,-239.63L334.45,-186.04ZM521.31,-107.82C557.55,-109.11 573.06,-130.78 572.38,-149.67C571.72,-168.12 561.62,-180.07 540.54,-179.10C524.96,-178.32 512.79,-174.15 499.39,-173.67C493.24,-173.45 488.72,-176.81 488.24,-184.27C487.86,-188.65 490.82,-191.84 494.49,-193.95C501.61,-191.56 509.33,-190.96 516.58,-191.22C536.78,-191.94 562.65,-200.56 561.44,-234.39C561.15,-242.51 560.03,-249.29 558.28,-255.17C565.17,-259.15 575.83,-256.23 575.83,-256.23L582.75,-284.41C567.31,-285.62 556.00,-282.13 550.69,-270.51C542.40,-280.99 529.30,-284.70 513.26,-284.13C485.81,-283.15 468.26,-269.55 469.65,-230.67C470.11,-217.71 473.94,-208.83 479.87,-202.88C473.03,-197.36 470.70,-188.92 471.18,-181.46C471.84,-169.17 480.89,-156.08 498.46,-156.70C513.39,-157.24 526.46,-160.78 538.98,-161.23C547.33,-161.53 554.07,-157.37 554.29,-151.22C554.57,-143.53 545.83,-135.74 521.89,-134.89C500.14,-134.11 481.43,-140.92 473.33,-152.07L468.52,-132.76C474.55,-117.81 497.37,-106.96 521.31,-107.82ZM515.90,-210.11C494.16,-209.33 484.55,-219.77 484.17,-230.53C483.95,-242.84 492.22,-251.27 514.41,-252.06C535.93,-252.83 546.31,-245.50 546.98,-232.77C547.34,-222.89 537.21,-210.87 515.90,-210.11Z" fill="#ffffff" stroke="#000000"/>
    <path d="M-523.95,-101.08L-526.12,-131.46L-553.25,-129.52L-546.42,-155.97L-496.07,-159.56L-484.46,-134.44L-509.41,-132.65L-507.24,-102.27L-441.92,-106.94L-444.10,-137.32L-466.66,-135.71L-507.40,-226.59L-492.00,-227.69L-494.48,-262.41L-547.21,-258.64L-582.98,-127.40L-604.90,-125.83L-602.73,-95.45ZM-527.35,-228.00L-502.81,-174.57L-542.53,-171.73ZM-427.00,-139.20L-424.76,-107.95C-418.70,-108.60 -382.90,-111.16 -370.73,-111.81L-372.96,-143.06L-392.28,-141.68L-394.56,-173.58C-389.78,-189.19 -377.86,-196.37 -361.37,-197.55C-340.97,-199.01 -332.01,-189.61 -330.43,-167.48L-328.91,-146.21L-349.96,-144.71L-347.73,-113.46C-338.63,-114.33 -314.96,-115.80 -293.26,-117.35L-295.49,-148.60L-315.24,-147.19L-317.72,-181.91C-320.76,-224.44 -334.08,-236.80 -362.94,-234.73C-379.22,-233.57 -393.72,-222.94 -396.88,-206.13L-398.59,-230.00L-433.31,-227.52L-430.77,-191.93C-426.88,-192.43 -418.63,-193.02 -410.17,-193.62L-406.38,-140.67ZM-105.21,-180.96L-103.89,-162.51L-173.77,-157.52L-176.61,-197.23L-128.00,-200.71L-126.62,-181.39L-116.20,-182.14L-119.75,-231.83L-130.17,-231.09L-128.87,-212.86L-177.47,-209.38L-180.07,-245.62L-111.71,-250.51L-110.48,-233.37L-97.90,-234.27L-101.91,-290.47L-217.80,-282.19L-215.00,-243.13L-195.47,-244.52L-189.17,-156.42L-208.71,-155.02L-206.47,-123.77L-89.07,-132.17L-92.62,-181.86ZM-70.67,-164.67L-68.44,-133.42C-62.38,-134.07 -26.57,-136.63 -14.41,-137.28L-16.64,-168.53L-35.95,-167.15L-38.23,-199.05C-33.46,-214.66 -21.54,-221.84 -5.05,-223.02C15.35,-224.48 24.31,-215.08 25.89,-192.95L27.41,-171.68L6.36,-170.18L8.60,-138.93C17.70,-139.80 41.36,-141.27 63.07,-142.82L60.83,-174.07L41.08,-172.66L38.60,-207.38C35.56,-249.91 22.25,-262.27 -6.62,-260.20C-22.89,-259.04 -37.40,-248.41 -40.56,-231.60L-42.27,-255.47L-76.99,-252.99L-74.44,-217.40C-70.55,-217.90 -62.31,-218.49 -53.84,-219.09L-50.06,-166.14ZM165.91,-150.39L203.45,-153.08L201.22,-184.32L175.61,-182.49L165.44,-324.85L125.29,-321.98L128.01,-284.00L154.05,-285.87L156.59,-250.28C148.05,-266.03 132.72,-269.95 119.03,-269.19C92.11,-267.48 75.12,-248.82 78.45,-202.16C81.17,-164.18 99.66,-143.48 128.74,-145.55C144.58,-146.69 157.18,-156.53 163.06,-168.95ZM127.78,-171.22C104.99,-169.59 92.51,-182.44 91.27,-202.86C90.13,-218.92 100.71,-232.54 122.85,-234.12C148.02,-235.92 158.25,-224.00 159.61,-207.96L161.13,-186.69C154.50,-175.75 143.84,-172.37 127.78,-171.22ZM248.88,-310.97C247.98,-323.55 240.68,-328.05 228.96,-327.21C215.94,-326.28 209.80,-320.61 210.68,-308.24C211.57,-295.87 218.93,-290.50 231.52,-291.40C242.80,-292.21 249.76,-298.60 248.88,-310.97ZM215.34,-185.12L217.57,-153.87C226.89,-154.75 235.79,-155.39 244.68,-156.02L252.28,-156.57C261.61,-157.23 270.96,-157.68 280.72,-158.38L278.49,-189.63L256.57,-188.06L250.57,-272.04L209.34,-269.10L211.88,-233.51L239.01,-235.45L242.47,-187.06ZM298.02,-191.03L300.25,-159.78C306.31,-160.43 342.12,-162.99 354.29,-163.64L352.05,-194.89L332.74,-193.51L330.46,-225.41C335.23,-241.02 347.15,-248.19 363.65,-249.37C384.04,-250.83 393.00,-241.44 394.59,-219.30L396.11,-198.04L375.06,-196.53L377.29,-165.28C386.39,-166.15 410.06,-167.63 431.76,-169.18L429.53,-200.43L409.78,-199.02L407.30,-233.74C404.26,-276.27 390.94,-288.62 362.08,-286.56C345.80,-285.40 331.29,-274.76 328.13,-257.96L326.43,-281.83L291.71,-279.35L294.25,-243.76C298.14,-244.25 306.39,-244.84 314.85,-245.45L318.64,-192.50ZM506.26,-121.72C542.06,-124.28 556.63,-146.26 555.30,-164.92C554.00,-183.15 543.58,-194.62 522.76,-192.91C507.37,-191.60 495.48,-187.04 482.24,-186.09C476.17,-185.66 471.58,-188.82 470.83,-196.18C470.31,-200.51 473.13,-203.76 476.68,-205.98C483.81,-203.87 491.47,-203.55 498.63,-204.06C518.59,-205.48 543.87,-214.93 541.48,-248.34C540.91,-256.37 539.56,-263.04 537.62,-268.79C544.30,-272.98 554.95,-270.46 554.95,-270.46L560.79,-298.58C545.48,-299.23 534.41,-295.39 529.58,-283.70C521.00,-293.78 507.91,-296.98 492.06,-295.85C464.94,-293.91 448.06,-279.84 450.81,-241.43C451.72,-228.62 455.83,-219.97 461.91,-214.30C455.33,-208.60 453.32,-200.16 454.06,-192.80C455.15,-180.66 464.56,-168.03 481.92,-169.27C496.68,-170.33 509.48,-174.30 521.85,-175.18C530.09,-175.77 536.91,-171.90 537.35,-165.82C537.89,-158.22 529.52,-150.21 505.87,-148.52C484.38,-146.98 465.63,-153.06 457.23,-163.80L453.15,-144.53C459.65,-129.95 482.60,-120.03 506.26,-121.72ZM497.29,-222.72C475.81,-221.18 465.93,-231.17 465.17,-241.80C464.52,-253.97 472.41,-262.60 494.33,-264.17C515.60,-265.69 526.12,-258.81 527.24,-246.24C527.94,-236.47 518.34,-224.22 497.29,-222.72Z" fill="#ffffff" stroke="#000000"/>
    <path d="M-527.32,-77.97L-530.54,-107.94L-557.30,-105.07L-551.48,-131.47L-501.80,-136.80L-489.43,-112.36L-514.05,-109.72L-510.83,-79.74L-446.39,-86.67L-449.61,-116.64L-471.88,-114.25L-515.38,-202.70L-500.18,-204.34L-503.86,-238.59L-555.89,-233.00L-586.64,-101.92L-608.26,-99.59L-605.04,-69.62ZM-535.17,-203.39L-509.01,-151.41L-548.19,-147.20ZM-432.76,-119.10L-429.45,-88.27C-423.48,-89.13 -388.15,-92.92 -376.14,-94.00L-379.45,-124.83L-398.51,-122.78L-401.89,-154.25C-397.72,-169.86 -386.18,-177.38 -369.91,-179.13C-349.78,-181.30 -340.59,-172.32 -338.24,-150.48L-335.99,-129.50L-356.75,-127.27L-353.44,-96.44C-344.47,-97.62 -321.11,-99.91 -299.70,-102.21L-303.01,-133.04L-322.50,-130.95L-326.18,-165.21C-330.69,-207.17 -344.30,-218.92 -372.77,-215.86C-388.83,-214.13 -402.80,-203.10 -405.34,-186.37L-407.87,-209.92L-442.13,-206.24L-438.35,-171.13C-434.52,-171.76 -426.39,-172.63 -418.04,-173.53L-412.42,-121.29ZM-115.94,-171.77L-113.98,-153.57L-182.92,-146.16L-187.13,-185.34L-139.17,-190.50L-137.12,-171.44L-126.85,-172.55L-132.12,-221.58L-142.39,-220.47L-140.46,-202.49L-188.42,-197.33L-192.26,-233.09L-124.82,-240.34L-123.00,-223.42L-110.58,-224.76L-116.54,-280.21L-230.88,-267.93L-226.73,-229.39L-207.46,-231.46L-198.12,-144.53L-217.39,-142.46L-214.08,-111.63L-98.25,-124.07L-103.52,-173.10ZM-81.20,-156.88L-77.89,-126.04C-71.91,-126.90 -36.59,-130.70 -24.57,-131.77L-27.89,-162.61L-46.94,-160.56L-50.32,-192.03C-46.15,-207.64 -34.62,-215.16 -18.34,-216.91C1.78,-219.07 10.98,-210.10 13.32,-188.26L15.58,-167.28L-5.19,-165.04L-1.88,-134.21C7.09,-135.39 30.45,-137.69 51.86,-139.99L48.55,-170.82L29.07,-168.72L25.39,-202.98C20.88,-244.95 7.27,-256.70 -21.21,-253.64C-37.27,-251.91 -51.24,-240.88 -53.77,-224.15L-56.30,-247.70L-90.56,-244.02L-86.79,-208.90C-82.96,-209.53 -74.82,-210.41 -66.47,-211.30L-60.86,-159.06ZM153.33,-151.11L190.37,-155.09L187.06,-185.92L161.79,-183.20L146.70,-323.66L107.09,-319.40L111.11,-281.93L136.81,-284.69L140.58,-249.58C131.58,-264.86 116.27,-268.19 102.76,-266.96C76.19,-264.32 60.04,-245.26 64.99,-199.22C69.02,-161.76 88.04,-141.92 116.73,-145.01C132.36,-146.69 144.48,-156.87 149.85,-169.36ZM114.87,-170.36C92.39,-167.95 79.59,-180.22 77.65,-200.37C75.94,-216.21 85.93,-230.06 107.77,-232.41C132.61,-235.08 143.15,-223.65 145.07,-207.83L147.32,-186.85C141.15,-175.79 130.72,-172.07 114.87,-170.36ZM229.72,-312.87C228.39,-325.29 221.01,-329.48 209.45,-328.23C196.60,-326.85 190.73,-321.02 192.04,-308.82C193.35,-296.62 200.83,-291.57 213.24,-292.91C224.38,-294.10 231.04,-300.67 229.72,-312.87ZM201.00,-187.20L204.31,-156.37C213.49,-157.57 222.27,-158.51 231.05,-159.46L238.54,-160.26C247.75,-161.25 256.98,-162.03 266.61,-163.06L263.30,-193.89L241.68,-191.57L232.77,-274.43L192.09,-270.06L195.86,-234.94L222.63,-237.82L227.76,-190.07ZM282.57,-195.96L285.88,-165.13C291.86,-165.99 327.18,-169.79 339.20,-170.86L335.88,-201.69L316.83,-199.65L313.45,-231.12C317.62,-246.73 329.15,-254.25 345.43,-256.00C365.55,-258.16 374.75,-249.18 377.09,-227.35L379.35,-206.36L358.58,-204.13L361.89,-173.30C370.86,-174.48 394.22,-176.77 415.63,-179.07L412.32,-209.91L392.84,-207.81L389.15,-242.07C384.65,-284.03 371.04,-295.78 342.56,-292.72C326.50,-291.00 312.53,-279.97 309.99,-263.24L307.46,-286.79L273.21,-283.11L276.98,-247.99C280.81,-248.62 288.95,-249.49 297.30,-250.39L302.91,-198.15ZM491.00,-134.76C526.33,-138.56 539.96,-160.81 537.98,-179.23C536.05,-197.21 525.34,-208.19 504.81,-205.77C489.63,-203.92 478.03,-198.99 464.97,-197.59C458.98,-196.94 454.33,-199.91 453.33,-207.17C452.66,-211.42 455.33,-214.74 458.76,-217.06C465.89,-215.23 473.48,-215.18 480.54,-215.94C500.24,-218.05 524.91,-228.29 521.37,-261.26C520.52,-269.18 518.95,-275.73 516.83,-281.35C523.29,-285.72 533.91,-283.61 533.91,-283.61L538.70,-311.63C523.53,-311.74 512.72,-307.54 508.35,-295.81C499.51,-305.47 486.44,-308.18 470.81,-306.50C444.05,-303.63 427.85,-289.11 431.92,-251.21C433.28,-238.58 437.65,-230.17 443.86,-224.77C437.56,-218.90 435.86,-210.49 436.86,-203.23C438.36,-191.26 448.12,-179.10 465.25,-180.94C479.80,-182.50 492.33,-186.88 504.53,-188.19C512.67,-189.07 519.55,-185.48 520.20,-179.48C521.00,-171.99 513.01,-163.76 489.67,-161.26C468.47,-158.98 449.70,-164.33 441.01,-174.65L437.66,-155.45C444.60,-141.25 467.66,-132.25 491.00,-134.76ZM478.56,-234.35C457.37,-232.07 447.25,-241.60 446.12,-252.09C445.05,-264.10 452.55,-272.92 474.17,-275.25C495.15,-277.50 505.81,-271.06 507.36,-258.67C508.39,-249.03 499.33,-236.58 478.56,-234.35Z" fill="#ffffff" stroke="#000000"/>
    <path d="M-529.60,-54.83L-533.84,-84.36L-560.21,-80.57L-555.38,-106.89L-506.44,-113.92L-493.34,-90.18L-517.60,-86.70L-513.35,-57.16L-449.86,-66.29L-454.10,-95.82L-476.04,-92.67L-522.19,-178.62L-507.22,-180.77L-512.07,-214.52L-563.33,-207.16L-589.11,-76.42L-610.42,-73.36L-606.17,-43.82ZM-541.78,-178.60L-514.07,-128.11L-552.68,-122.56ZM-437.53,-98.85L-433.16,-68.47C-427.28,-69.53 -392.48,-74.53 -380.63,-76.02L-385.00,-106.40L-403.77,-103.70L-408.23,-134.71C-404.66,-150.29 -393.51,-158.14 -377.48,-160.44C-357.65,-163.29 -348.24,-154.74 -345.15,-133.22L-342.17,-112.55L-362.64,-109.61L-358.27,-79.23C-349.44,-80.72 -326.42,-83.81 -305.32,-86.84L-309.69,-117.22L-328.88,-114.46L-333.73,-148.21C-339.68,-189.56 -353.55,-200.70 -381.61,-196.67C-397.43,-194.39 -410.86,-182.99 -412.78,-166.35L-416.11,-189.56L-449.86,-184.71L-444.89,-150.11C-441.12,-150.87 -433.11,-152.02 -424.88,-153.20L-417.48,-101.73ZM-126.02,-162.13L-123.45,-144.20L-191.37,-134.44L-196.92,-173.04L-149.67,-179.83L-146.97,-161.06L-136.84,-162.51L-143.79,-210.82L-153.91,-209.36L-151.37,-191.64L-198.62,-184.85L-203.68,-220.08L-137.23,-229.63L-134.84,-212.97L-122.60,-214.72L-130.45,-269.36L-243.10,-253.17L-237.64,-215.20L-218.66,-217.93L-206.35,-132.28L-225.34,-129.56L-220.97,-99.18L-106.85,-115.58L-113.79,-163.89ZM-91.14,-148.62L-86.78,-118.25C-80.90,-119.31 -46.09,-124.31 -34.25,-125.79L-38.61,-156.17L-57.39,-153.47L-61.84,-184.48C-58.27,-200.07 -47.13,-207.91 -31.09,-210.22C-11.26,-213.07 -1.85,-204.52 1.24,-183.00L4.21,-162.33L-16.25,-159.39L-11.89,-129.01C-3.06,-130.49 19.97,-133.59 41.06,-136.62L36.70,-166.99L17.50,-164.24L12.65,-197.99C6.71,-239.33 -7.16,-250.47 -35.22,-246.44C-51.04,-244.17 -64.48,-232.77 -66.39,-216.13L-69.73,-239.33L-103.48,-234.48L-98.51,-199.89C-94.74,-200.64 -86.72,-201.79 -78.50,-202.98L-71.10,-151.50ZM141.02,-151.20L177.52,-156.44L173.15,-186.82L148.26,-183.24L128.38,-321.63L89.35,-316.02L94.65,-279.10L119.97,-282.74L124.94,-248.14C115.49,-262.93 100.24,-265.69 86.92,-263.99C60.73,-260.45 45.44,-241.02 51.95,-195.67C57.26,-158.75 76.78,-139.81 105.04,-143.87C120.44,-146.09 132.07,-156.58 136.94,-169.13ZM102.31,-168.89C80.16,-165.70 67.07,-177.39 64.43,-197.25C62.19,-212.86 71.58,-226.91 93.10,-230.00C117.57,-233.52 128.40,-222.59 130.85,-207.01L133.82,-186.33C128.10,-175.18 117.92,-171.13 102.31,-168.89ZM210.87,-313.89C209.12,-326.12 201.67,-330.01 190.28,-328.37C177.62,-326.55 172.02,-320.58 173.75,-308.55C175.47,-296.53 183.04,-291.80 195.28,-293.56C206.25,-295.14 212.60,-301.86 210.87,-313.89ZM186.90,-188.58L191.26,-158.20C200.30,-159.71 208.95,-160.96 217.60,-162.20L224.98,-163.26C234.05,-164.56 243.16,-165.66 252.65,-167.02L248.28,-197.40L226.98,-194.34L215.25,-275.98L175.16,-270.22L180.14,-235.62L206.50,-239.41L213.26,-192.37ZM267.27,-200.13L271.63,-169.75C277.51,-170.81 312.32,-175.81 324.16,-177.30L319.80,-207.67L301.02,-204.98L296.57,-235.99C300.14,-251.57 311.28,-259.42 327.32,-261.72C347.15,-264.57 356.56,-256.02 359.65,-234.50L362.62,-213.83L342.16,-210.89L346.52,-180.51C355.35,-182.00 378.38,-185.09 399.47,-188.12L395.11,-218.50L375.91,-215.74L371.06,-249.49C365.12,-290.84 351.24,-301.98 323.19,-297.95C307.37,-295.67 293.93,-284.27 292.02,-267.63L288.68,-290.83L254.93,-285.98L259.90,-251.39C263.67,-252.14 271.69,-253.30 279.91,-254.48L287.31,-203.01ZM475.58,-146.95C510.39,-151.95 523.09,-174.45 520.48,-192.59C517.93,-210.31 506.95,-220.79 486.73,-217.67C471.78,-215.31 460.49,-210.02 447.62,-208.17C441.71,-207.32 437.01,-210.09 435.77,-217.23C434.95,-221.42 437.48,-224.80 440.79,-227.21C447.91,-225.65 455.41,-225.87 462.37,-226.87C481.78,-229.66 505.82,-240.65 501.15,-273.14C500.03,-280.94 498.25,-287.36 495.95,-292.84C502.19,-297.40 512.77,-295.69 512.77,-295.69L516.51,-323.57C501.50,-323.14 490.96,-318.61 487.05,-306.85C477.97,-316.10 464.95,-318.32 449.55,-316.10C423.18,-312.31 407.67,-297.38 413.04,-260.04C414.82,-247.60 419.44,-239.43 425.78,-234.32C419.75,-228.28 418.37,-219.90 419.61,-212.76C421.52,-200.98 431.60,-189.29 448.48,-191.72C462.82,-193.78 475.05,-198.55 487.08,-200.28C495.09,-201.43 502.03,-198.12 502.88,-192.21C503.94,-184.83 496.32,-176.42 473.33,-173.11C452.44,-170.11 433.69,-174.74 424.73,-184.64L422.09,-165.53C429.46,-151.74 452.58,-143.65 475.58,-146.95ZM459.76,-245.01C438.88,-242.01 428.53,-251.08 427.05,-261.41C425.56,-273.26 432.67,-282.24 453.97,-285.31C474.65,-288.28 485.41,-282.29 487.38,-270.08C488.75,-260.59 480.23,-247.95 459.76,-245.01Z" fill="#ffffff" stroke="#000000"/>
    <path d="M-530.79,-31.71L-536.02,-60.77L-561.97,-56.09L-558.12,-82.29L-509.97,-90.97L-496.17,-67.95L-520.04,-63.65L-514.80,-34.59L-452.33,-45.86L-457.57,-74.92L-479.16,-71.02L-527.83,-154.40L-513.10,-157.05L-519.09,-190.26L-569.52,-181.17L-590.40,-50.96L-611.37,-47.18L-606.13,-18.13ZM-547.21,-153.69L-518.02,-104.73L-556.00,-97.88ZM-441.29,-78.49L-435.90,-48.61C-430.12,-49.86 -395.88,-56.04 -384.22,-57.93L-389.60,-87.81L-408.08,-84.48L-413.58,-114.99C-410.59,-130.53 -399.85,-138.68 -384.08,-141.53C-364.57,-145.05 -354.96,-136.92 -351.14,-115.75L-347.47,-95.41L-367.60,-91.78L-362.22,-61.89C-353.54,-63.67 -330.87,-67.54 -310.12,-71.29L-315.51,-101.17L-334.40,-97.77L-340.38,-130.98C-347.72,-171.66 -361.83,-182.19 -389.44,-177.21C-405.00,-174.40 -417.89,-162.65 -419.19,-146.13L-423.31,-168.96L-456.52,-162.97L-450.38,-128.93C-446.68,-129.81 -438.79,-131.23 -430.70,-132.69L-421.57,-82.05ZM-135.46,-152.07L-132.28,-134.43L-199.11,-122.38L-205.96,-160.36L-159.47,-168.74L-156.14,-150.27L-146.17,-152.07L-154.74,-199.60L-164.71,-197.80L-161.56,-180.37L-208.05,-171.98L-214.30,-206.64L-148.92,-218.43L-145.97,-202.04L-133.93,-204.21L-143.62,-257.96L-254.46,-237.98L-247.72,-200.62L-229.04,-203.99L-213.85,-119.72L-232.53,-116.35L-227.14,-86.47L-114.85,-106.71L-123.42,-154.24ZM-100.48,-139.95L-95.09,-110.06C-89.32,-111.32 -55.07,-117.49 -43.41,-119.38L-48.80,-149.27L-67.28,-145.94L-72.78,-176.45C-69.79,-191.99 -59.05,-200.14 -43.27,-202.98C-23.76,-206.50 -14.16,-198.38 -10.34,-177.20L-6.67,-156.86L-26.80,-153.23L-21.41,-123.35C-12.73,-125.13 9.93,-129.00 30.68,-132.74L25.29,-162.63L6.41,-159.22L0.42,-192.43C-6.92,-233.11 -21.03,-243.64 -48.64,-238.66C-64.20,-235.85 -77.08,-224.10 -78.39,-207.58L-82.51,-230.41L-115.72,-224.42L-109.58,-190.38C-105.88,-191.26 -97.99,-192.69 -89.90,-194.15L-80.77,-143.50ZM129.02,-150.69L164.93,-157.16L159.54,-187.05L135.05,-182.63L110.50,-318.79L72.10,-311.86L78.65,-275.54L103.56,-280.03L109.70,-246.00C99.83,-260.29 84.65,-262.48 71.54,-260.33C45.76,-255.90 31.32,-236.15 39.37,-191.53C45.92,-155.20 65.89,-137.16 93.70,-142.18C108.85,-144.91 119.98,-155.70 124.35,-168.28ZM90.11,-166.82C68.32,-162.89 54.96,-173.98 51.65,-193.53C48.88,-208.89 57.67,-223.11 78.85,-226.93C102.92,-231.27 114.02,-220.84 116.99,-205.52L120.66,-185.18C115.40,-173.95 105.47,-169.59 90.11,-166.82ZM192.36,-314.05C190.19,-326.09 182.69,-329.66 171.48,-327.64C159.03,-325.40 153.70,-319.29 155.83,-307.46C157.96,-295.63 165.62,-291.22 177.65,-293.40C188.45,-295.34 194.49,-302.22 192.36,-314.05ZM173.07,-189.28L178.46,-159.39C187.35,-161.20 195.86,-162.74 204.37,-164.27L211.63,-165.58C220.56,-167.19 229.52,-168.59 238.86,-170.28L233.47,-200.17L212.51,-196.39L198.02,-276.71L158.59,-269.60L164.72,-235.56L190.67,-240.24L199.01,-193.95ZM252.15,-203.53L257.54,-173.65C263.31,-174.90 297.56,-181.08 309.22,-182.97L303.83,-212.85L285.36,-209.52L279.85,-240.03C282.84,-255.57 293.58,-263.72 309.36,-266.57C328.87,-270.09 338.48,-261.96 342.29,-240.79L345.96,-220.45L325.83,-216.82L331.22,-186.93C339.90,-188.71 362.56,-192.58 383.31,-196.33L377.92,-226.21L359.04,-222.81L353.05,-256.02C345.71,-296.70 331.60,-307.23 304.00,-302.25C288.43,-299.44 275.55,-287.69 274.24,-271.17L270.12,-294.00L236.92,-288.01L243.05,-253.97C246.75,-254.85 254.64,-256.27 262.73,-257.73L271.87,-207.09ZM460.03,-158.30C494.28,-164.48 506.05,-187.17 502.83,-205.02C499.68,-222.45 488.45,-232.43 468.57,-228.63C453.87,-225.77 442.88,-220.14 430.22,-217.86C424.41,-216.81 419.66,-219.38 418.18,-226.40C417.22,-230.52 419.61,-233.95 422.80,-236.45C429.89,-235.16 437.30,-235.64 444.15,-236.87C463.25,-240.31 486.63,-252.03 480.87,-284.00C479.49,-291.67 477.50,-297.96 475.03,-303.30C481.04,-308.03 491.56,-306.71 491.56,-306.71L494.28,-334.42C479.45,-333.46 469.18,-328.61 465.73,-316.84C456.43,-325.66 443.47,-327.40 428.32,-324.67C402.38,-319.99 387.56,-304.67 394.19,-267.94C396.40,-255.69 401.25,-247.78 407.70,-242.94C401.95,-236.76 400.88,-228.43 402.36,-221.41C404.67,-209.82 415.05,-198.62 431.65,-201.61C445.76,-204.16 457.69,-209.31 469.52,-211.44C477.41,-212.87 484.39,-209.84 485.43,-204.03C486.74,-196.76 479.51,-188.17 456.88,-184.09C436.34,-180.39 417.63,-184.30 408.42,-193.78L406.48,-174.79C414.26,-161.40 437.41,-154.22 460.03,-158.30ZM440.93,-254.72C420.38,-251.02 409.83,-259.61 408.00,-269.78C406.11,-281.44 412.82,-290.58 433.78,-294.36C454.12,-298.03 464.98,-292.49 467.36,-280.49C469.04,-271.15 461.06,-258.35 440.93,-254.72Z" fill="#ffffff" stroke="#000000"/>
    <path d="M-530.90,-8.67L-537.10,-37.22L-562.59,-31.67L-559.71,-57.71L-512.40,-68.00L-497.95,-45.73L-521.40,-40.63L-515.19,-12.08L-453.81,-25.43L-460.02,-53.97L-481.23,-49.36L-532.31,-130.09L-517.83,-133.24L-524.92,-165.86L-574.47,-155.09L-590.53,-25.60L-611.12,-21.12L-604.92,7.43ZM-551.44,-128.70L-520.85,-81.33L-558.17,-73.21ZM-444.05,-58.09L-437.66,-28.73C-432.00,-30.17 -398.35,-37.49 -386.89,-39.76L-393.27,-69.13L-411.42,-65.18L-417.94,-95.16C-415.53,-110.63 -405.20,-119.07 -389.70,-122.44C-370.53,-126.61 -360.74,-118.91 -356.22,-98.11L-351.88,-78.13L-371.66,-73.83L-365.27,-44.46C-356.75,-46.53 -334.48,-51.16 -314.09,-55.59L-320.47,-84.96L-339.03,-80.92L-346.12,-113.55C-354.81,-153.52 -369.14,-163.43 -396.26,-157.53C-411.55,-154.21 -423.88,-142.13 -424.59,-125.75L-429.46,-148.18L-462.09,-141.08L-454.82,-107.64C-451.19,-108.64 -443.44,-110.33 -435.49,-112.06L-424.67,-62.30ZM-144.23,-141.64L-140.46,-124.31L-206.12,-110.03L-214.23,-147.35L-168.56,-157.28L-164.61,-139.13L-154.82,-141.26L-164.97,-187.96L-174.76,-185.83L-171.04,-168.70L-216.72,-158.77L-224.12,-192.82L-159.89,-206.79L-156.38,-190.68L-144.56,-193.25L-156.04,-246.06L-264.93,-222.39L-256.95,-185.68L-238.60,-189.67L-220.60,-106.88L-238.95,-102.89L-232.57,-73.53L-122.25,-97.51L-132.40,-144.21ZM-109.22,-130.89L-102.83,-101.52C-97.17,-102.97 -63.52,-110.28 -52.06,-112.56L-58.44,-141.93L-76.59,-137.98L-83.11,-167.96C-80.70,-183.43 -70.37,-191.87 -54.87,-195.24C-35.70,-199.40 -25.91,-191.71 -21.39,-170.91L-17.04,-150.93L-36.82,-146.62L-30.44,-117.26C-21.92,-119.33 0.35,-123.96 20.74,-128.39L14.36,-157.75L-4.20,-153.72L-11.29,-186.35C-19.98,-226.31 -34.31,-236.22 -61.43,-230.33C-76.72,-227.00 -89.05,-214.93 -89.76,-198.54L-94.63,-220.97L-127.26,-213.88L-119.99,-180.44C-116.36,-181.44 -108.61,-183.12 -100.66,-184.85L-89.84,-135.10ZM117.35,-149.61L152.63,-157.28L146.25,-186.64L122.19,-181.41L93.10,-315.18L55.38,-306.98L63.14,-271.29L87.61,-276.61L94.88,-243.17C84.62,-256.96 69.53,-258.59 56.64,-256.00C31.31,-250.70 17.73,-230.67 27.26,-186.82C35.02,-151.14 55.40,-134.00 82.72,-139.94C97.61,-143.18 108.23,-154.24 112.11,-166.83ZM78.31,-164.18C56.90,-159.53 43.30,-170.02 39.33,-189.24C36.05,-204.33 44.24,-218.71 65.04,-223.23C88.70,-228.37 100.04,-218.45 103.52,-203.41L107.87,-183.42C103.06,-172.13 93.40,-167.46 78.31,-164.18ZM174.22,-313.38C171.65,-325.21 164.10,-328.48 153.09,-326.09C140.85,-323.43 135.80,-317.20 138.33,-305.58C140.85,-293.95 148.58,-289.87 160.40,-292.44C171.01,-294.74 176.74,-301.76 174.22,-313.38ZM159.55,-189.32L165.93,-159.96C174.65,-162.07 183.02,-163.88 191.38,-165.70L198.51,-167.25C207.28,-169.16 216.09,-170.86 225.27,-172.86L218.89,-202.22L198.29,-197.74L181.13,-276.66L142.39,-268.23L149.66,-234.79L175.15,-240.33L185.04,-194.86ZM237.24,-206.21L243.62,-176.85C249.29,-178.29 282.93,-185.61 294.40,-187.89L288.01,-217.25L269.87,-213.30L263.35,-243.28C265.75,-258.75 276.09,-267.19 291.59,-270.56C310.75,-274.73 320.54,-267.03 325.06,-246.23L329.41,-226.25L309.63,-221.95L316.01,-192.59C324.53,-194.65 346.80,-199.28 367.20,-203.71L360.81,-233.08L342.26,-229.04L335.16,-261.67C326.47,-301.64 312.14,-311.55 285.02,-305.65C269.73,-302.33 257.41,-290.25 256.70,-273.87L251.82,-296.30L219.19,-289.20L226.47,-255.76C230.09,-256.76 237.84,-258.45 245.79,-260.18L256.61,-210.42ZM444.40,-168.82C478.05,-176.13 488.88,-198.99 485.07,-216.53C481.34,-233.66 469.89,-243.12 450.36,-238.66C435.92,-235.31 425.26,-229.36 412.82,-226.66C407.11,-225.42 402.32,-227.79 400.61,-234.68C399.52,-238.72 401.75,-242.19 404.82,-244.78C411.88,-243.75 419.19,-244.49 425.92,-245.95C444.68,-250.03 467.40,-262.44 460.57,-293.85C458.93,-301.39 456.74,-307.54 454.12,-312.73C459.89,-317.62 470.34,-316.69 470.34,-316.69L472.05,-344.18C457.42,-342.71 447.44,-337.55 444.44,-325.79C434.93,-334.19 422.06,-335.44 407.17,-332.21C381.68,-326.67 367.57,-311.00 375.42,-274.91C378.04,-262.88 383.12,-255.22 389.66,-250.67C384.20,-244.36 383.44,-236.07 385.15,-229.19C387.84,-217.81 398.49,-207.10 414.81,-210.65C428.67,-213.66 440.29,-219.18 451.91,-221.70C459.66,-223.39 466.66,-220.64 467.90,-214.93C469.46,-207.79 462.60,-199.04 440.38,-194.21C420.19,-189.82 401.55,-193.03 392.11,-202.08L390.87,-183.23C399.03,-170.27 422.17,-163.99 444.40,-168.82ZM422.11,-263.49C401.92,-259.10 391.19,-267.23 389.01,-277.22C386.73,-288.69 393.05,-297.96 413.64,-302.44C433.63,-306.78 444.56,-301.68 447.33,-289.90C449.33,-280.72 441.89,-267.79 422.11,-263.49Z" fill="#ffffff" stroke="#000000"/>
    <path d="M-529.94,14.25L-537.08,-13.76L-562.09,-7.38L-560.16,-33.23L-513.75,-45.07L-498.67,-23.56L-521.68,-17.69L-514.53,10.32L-454.32,-5.04L-461.46,-33.05L-482.27,-27.74L-535.62,-105.75L-521.41,-109.38L-529.58,-141.38L-578.19,-128.98L-589.49,-0.39L-609.70,4.77L-602.56,32.77ZM-554.49,-103.71L-522.57,-57.94L-559.18,-48.60ZM-445.81,-37.68L-438.46,-8.87C-432.91,-10.50 -399.90,-18.92 -388.65,-21.58L-396.00,-50.39L-413.80,-45.85L-421.30,-75.25C-419.47,-90.63 -409.55,-99.34 -394.35,-103.22C-375.54,-108.02 -365.59,-100.76 -360.39,-80.35L-355.39,-60.75L-374.79,-55.80L-367.44,-26.99C-359.09,-29.33 -337.23,-34.69 -317.23,-39.80L-324.58,-68.61L-342.78,-63.96L-350.95,-95.97C-360.95,-135.18 -375.46,-144.47 -402.07,-137.69C-417.08,-133.86 -428.83,-121.49 -428.96,-105.26L-434.57,-127.27L-466.58,-119.10L-458.21,-86.29C-454.66,-87.41 -447.06,-89.35 -439.26,-91.34L-426.80,-42.53ZM-152.32,-130.87L-147.98,-113.87L-212.40,-97.43L-221.74,-134.04L-176.92,-145.48L-172.38,-127.67L-162.78,-130.12L-174.47,-175.93L-184.07,-173.48L-179.78,-156.68L-224.59,-145.25L-233.12,-178.66L-170.10,-194.73L-166.07,-178.93L-154.47,-181.89L-167.68,-233.70L-274.51,-206.45L-265.33,-170.44L-247.32,-175.03L-226.60,-93.81L-244.61,-89.22L-237.26,-60.41L-129.03,-88.02L-140.71,-133.83ZM-117.32,-121.47L-109.97,-92.67C-104.42,-94.30 -71.41,-102.72 -60.16,-105.37L-67.51,-134.18L-85.31,-129.64L-92.81,-159.05C-90.98,-174.43 -81.06,-183.14 -65.86,-187.02C-47.05,-191.81 -37.10,-184.55 -31.90,-164.15L-26.90,-144.54L-46.30,-139.59L-38.95,-110.78C-30.60,-113.13 -8.75,-118.49 11.26,-123.59L3.91,-152.40L-14.29,-147.76L-22.46,-179.76C-32.46,-218.97 -46.98,-228.27 -73.58,-221.48C-88.59,-217.65 -100.35,-205.28 -100.47,-189.06L-106.08,-211.06L-138.09,-202.90L-129.72,-170.09C-126.17,-171.21 -118.57,-173.15 -110.77,-175.14L-98.32,-126.32ZM106.03,-147.98L140.64,-156.81L133.30,-185.62L109.69,-179.60L76.21,-310.83L39.20,-301.39L48.13,-266.38L72.14,-272.50L80.51,-239.70C69.88,-252.96 54.90,-254.04 42.25,-251.03C17.39,-244.90 4.67,-224.61 15.64,-181.60C24.57,-146.59 45.33,-130.36 72.14,-137.20C86.74,-140.93 96.85,-152.24 100.25,-164.83ZM66.91,-161.01C45.91,-155.65 32.09,-165.55 27.49,-184.41C23.72,-199.21 31.31,-213.72 51.71,-218.93C74.92,-224.85 86.48,-215.44 90.46,-200.68L95.46,-181.08C91.11,-169.74 81.72,-164.79 66.91,-161.01ZM156.48,-311.92C153.52,-323.52 145.94,-326.49 135.14,-323.73C123.13,-320.67 118.36,-314.34 121.27,-302.93C124.18,-291.53 131.96,-287.76 143.56,-290.72C153.96,-293.38 159.38,-300.51 156.48,-311.92ZM146.35,-188.73L153.70,-159.93C162.25,-162.32 170.45,-164.41 178.65,-166.51L185.66,-168.29C194.26,-170.49 202.91,-172.48 211.91,-174.78L204.57,-203.58L184.36,-198.43L164.61,-275.85L126.60,-266.15L134.97,-233.35L159.98,-239.73L171.36,-195.11ZM222.57,-208.18L229.92,-179.37C235.47,-181.00 268.48,-189.42 279.73,-192.08L272.38,-220.88L254.58,-216.34L247.08,-245.75C248.91,-261.13 258.83,-269.84 274.03,-273.72C292.84,-278.52 302.79,-271.25 307.99,-250.85L312.99,-231.24L293.59,-226.29L300.94,-197.49C309.29,-199.83 331.15,-205.19 351.15,-210.29L343.80,-239.10L325.60,-234.46L317.43,-266.47C307.43,-305.68 292.91,-314.97 266.31,-308.18C251.30,-304.36 239.54,-291.98 239.42,-275.76L233.81,-297.76L201.80,-289.60L210.17,-256.79C213.72,-257.91 221.32,-259.85 229.12,-261.84L241.58,-213.03ZM428.72,-178.52C461.73,-186.94 471.63,-209.92 467.24,-227.12C462.96,-243.93 451.30,-252.89 432.14,-247.79C417.99,-243.96 407.65,-237.71 395.45,-234.59C389.85,-233.16 385.03,-235.34 383.10,-242.09C381.88,-246.04 383.96,-249.56 386.90,-252.23C393.92,-251.46 401.12,-252.45 407.73,-254.13C426.13,-258.83 448.15,-271.90 440.29,-302.71C438.40,-310.11 436.02,-316.11 433.24,-321.15C438.78,-326.19 449.15,-325.63 449.15,-325.63L449.87,-352.88C435.45,-350.91 425.77,-345.45 423.22,-333.72C413.52,-341.69 400.74,-342.48 386.14,-338.75C361.13,-332.37 347.74,-316.39 356.77,-280.98C359.78,-269.17 365.08,-261.79 371.71,-257.51C366.53,-251.08 366.07,-242.86 368.00,-236.11C371.06,-224.96 381.98,-214.75 397.98,-218.83C411.58,-222.30 422.87,-228.16 434.28,-231.07C441.88,-233.01 448.90,-230.54 450.33,-224.94C452.11,-217.94 445.65,-209.04 423.84,-203.48C404.04,-198.43 385.50,-200.94 375.84,-209.56L375.28,-190.88C383.80,-178.35 406.91,-172.96 428.72,-178.52ZM403.34,-271.33C383.53,-266.28 372.63,-273.94 370.13,-283.74C367.47,-295.00 373.38,-304.39 393.59,-309.55C413.20,-314.55 424.18,-309.89 427.34,-298.34C429.64,-289.34 422.74,-276.28 403.34,-271.33Z" fill="#ffffff" stroke="#000000"/>
    <path d="M-527.92,36.99L-535.97,9.55L-560.47,16.74L-559.47,-8.88L-514.01,-22.22L-498.35,-1.49L-520.88,5.13L-512.83,32.56L-453.84,15.25L-461.89,-12.18L-482.28,-6.20L-537.77,-81.44L-523.86,-85.53L-533.06,-116.88L-580.68,-102.91L-587.32,24.62L-607.11,30.43L-599.06,57.87ZM-556.35,-78.76L-523.19,-34.64L-559.05,-24.12ZM-446.58,-17.32L-438.30,10.90C-432.87,9.10 -400.54,-0.39 -389.50,-3.42L-397.79,-31.64L-415.23,-26.52L-423.68,-55.33C-422.42,-70.60 -412.91,-79.56 -398.02,-83.93C-379.60,-89.34 -369.51,-82.51 -363.64,-62.52L-358.00,-43.31L-377.01,-37.73L-368.73,-9.51C-360.56,-12.12 -339.14,-18.20 -319.54,-23.95L-327.82,-52.17L-345.66,-46.93L-354.86,-78.29C-366.13,-116.70 -380.81,-125.38 -406.87,-117.73C-421.57,-113.42 -432.76,-100.77 -432.31,-84.72L-438.63,-106.28L-469.99,-97.08L-460.56,-64.94C-457.09,-66.17 -449.64,-68.35 -442.00,-70.60L-427.97,-22.78ZM-159.72,-119.80L-154.83,-103.15L-217.94,-84.63L-228.46,-120.49L-184.56,-133.37L-179.45,-115.93L-170.04,-118.69L-183.21,-163.57L-192.62,-160.81L-187.78,-144.35L-231.68,-131.47L-241.29,-164.19L-179.55,-182.31L-175.01,-166.83L-163.64,-170.16L-178.54,-220.92L-283.19,-190.21L-272.84,-154.93L-255.20,-160.11L-231.85,-80.54L-249.49,-75.37L-241.21,-47.15L-135.19,-78.26L-148.36,-123.14ZM-124.79,-111.75L-116.51,-83.53C-111.08,-85.33 -78.74,-94.82 -67.71,-97.85L-75.99,-126.07L-93.44,-120.95L-101.89,-149.76C-100.62,-165.03 -91.12,-173.99 -76.23,-178.36C-57.81,-183.77 -47.71,-176.94 -41.85,-156.95L-36.21,-137.74L-55.22,-132.16L-46.94,-103.94C-38.77,-106.56 -17.35,-112.63 2.25,-118.38L-6.03,-146.60L-23.86,-141.37L-33.07,-172.72C-44.34,-211.13 -59.02,-219.81 -85.08,-212.16C-99.78,-207.85 -110.97,-195.20 -110.52,-179.16L-116.84,-200.71L-148.20,-191.51L-138.77,-159.37C-135.30,-160.60 -127.85,-162.79 -120.21,-165.03L-106.17,-117.21ZM95.09,-145.84L128.99,-155.79L120.71,-184.01L97.58,-177.22L59.86,-305.78L23.60,-295.14L33.66,-260.84L57.18,-267.75L66.61,-235.61C55.64,-248.35 40.79,-248.89 28.39,-245.46C4.03,-238.52 -7.83,-218.02 4.53,-175.88C14.60,-141.59 35.69,-126.28 61.95,-133.98C76.26,-138.18 85.86,-149.73 88.77,-162.29ZM55.95,-157.34C35.37,-151.30 21.36,-160.60 16.15,-179.08C11.90,-193.58 18.89,-208.19 38.88,-214.06C61.61,-220.73 73.38,-211.83 77.83,-197.39L83.46,-178.18C79.56,-166.82 70.45,-161.60 55.95,-157.34ZM139.17,-309.68C135.83,-321.05 128.24,-323.72 117.66,-320.61C105.90,-317.16 101.40,-310.73 104.68,-299.56C107.95,-288.39 115.78,-284.94 127.15,-288.28C137.34,-291.27 142.45,-298.51 139.17,-309.68ZM133.50,-187.55L141.79,-159.33C150.16,-162.00 158.19,-164.35 166.23,-166.71L173.08,-168.72C181.51,-171.20 190.00,-173.47 198.81,-176.06L190.53,-204.28L170.74,-198.47L148.48,-274.32L111.25,-263.39L120.68,-231.25L145.18,-238.44L158.00,-194.74ZM208.17,-209.46L216.45,-181.24C221.88,-183.05 254.22,-192.53 265.25,-195.56L256.97,-223.78L239.53,-218.66L231.07,-247.47C232.34,-262.74 241.84,-271.70 256.74,-276.07C275.16,-281.48 285.25,-274.65 291.12,-254.66L296.75,-235.45L277.74,-229.88L286.02,-201.66C294.20,-204.27 315.62,-210.34 335.21,-216.09L326.93,-244.31L309.10,-239.08L299.90,-270.43C288.62,-308.84 273.95,-317.52 247.88,-309.87C233.18,-305.56 221.99,-292.91 222.45,-276.87L216.12,-298.42L184.76,-289.22L194.20,-257.08C197.67,-258.31 205.11,-260.50 212.76,-262.74L226.79,-214.92ZM413.02,-187.41C445.36,-196.90 454.34,-219.97 449.39,-236.83C444.56,-253.29 432.72,-261.73 413.96,-256.01C400.10,-251.74 390.11,-245.18 378.15,-241.67C372.66,-240.06 367.82,-242.05 365.67,-248.66C364.33,-252.52 366.27,-256.07 369.08,-258.81C376.04,-258.30 383.13,-259.53 389.60,-261.42C407.63,-266.71 428.94,-280.42 420.08,-310.60C417.95,-317.85 415.38,-323.69 412.46,-328.58C417.75,-333.75 428.02,-333.58 428.02,-333.58L427.77,-360.53C413.60,-358.08 404.21,-352.34 402.11,-340.66C392.23,-348.19 379.58,-348.52 365.27,-344.32C340.77,-337.13 328.10,-320.85 338.28,-286.17C341.67,-274.60 347.16,-267.49 353.87,-263.50C348.98,-256.95 348.81,-248.82 350.96,-242.21C354.38,-231.29 365.53,-221.58 381.21,-226.18C394.53,-230.09 405.49,-236.29 416.66,-239.57C424.11,-241.75 431.14,-239.56 432.75,-234.07C434.76,-227.21 428.68,-218.19 407.32,-211.92C387.92,-206.23 369.50,-208.06 359.65,-216.24L359.75,-197.75C368.62,-185.66 391.66,-181.14 413.02,-187.41ZM384.65,-278.28C365.25,-272.58 354.20,-279.77 351.38,-289.37C348.36,-300.41 353.87,-309.90 373.67,-315.71C392.87,-321.34 403.90,-317.13 407.43,-305.82C410.02,-297.00 403.66,-283.86 384.65,-278.28Z" fill="#ffffff" stroke="#000000"/>
    <path d="M-524.86,59.51L-533.79,32.67L-557.75,40.64L-557.67,15.28L-513.20,0.49L-496.99,20.43L-519.03,27.76L-510.10,54.60L-452.40,35.40L-461.33,8.57L-481.27,15.20L-538.78,-57.22L-525.17,-61.75L-535.37,-92.42L-581.96,-76.92L-584.01,49.38L-603.38,55.82L-594.45,82.65ZM-557.06,-53.91L-522.71,-11.47L-557.79,0.20ZM-446.38,2.95L-437.20,30.56C-431.89,28.58 -400.26,18.06 -389.47,14.68L-398.65,-12.92L-415.71,-7.25L-425.08,-35.43C-424.37,-50.57 -415.29,-59.76 -400.72,-64.61C-382.70,-70.60 -372.49,-64.21 -365.98,-44.65L-359.73,-25.87L-378.33,-19.68L-369.15,7.92C-361.16,5.05 -340.20,-1.71 -321.03,-8.08L-330.21,-35.69L-347.66,-29.88L-357.86,-60.55C-370.36,-98.13 -385.17,-106.19 -410.67,-97.70C-425.05,-92.92 -435.66,-80.02 -434.65,-64.18L-441.66,-85.27L-472.33,-75.06L-461.87,-43.63C-458.49,-44.97 -451.20,-47.39 -443.73,-49.88L-428.17,-3.10ZM-166.43,-108.48L-161.01,-92.18L-222.74,-71.65L-234.41,-106.73L-191.47,-121.01L-185.79,-103.95L-176.59,-107.01L-191.19,-150.91L-200.39,-147.85L-195.04,-131.75L-237.98,-117.46L-248.63,-149.48L-188.24,-169.56L-183.20,-154.42L-172.09,-158.12L-188.60,-207.77L-290.97,-173.72L-279.49,-139.21L-262.24,-144.95L-236.35,-67.12L-253.60,-61.38L-244.42,-33.78L-140.71,-68.28L-155.31,-112.17ZM-131.62,-101.75L-122.44,-74.14C-117.13,-76.12 -85.50,-86.64 -74.71,-90.02L-83.89,-117.62L-100.95,-111.95L-110.32,-140.13C-109.61,-155.27 -100.53,-164.46 -85.96,-169.31C-67.94,-175.30 -57.73,-168.91 -51.22,-149.35L-44.97,-130.57L-63.57,-124.38L-54.39,-96.78C-46.40,-99.65 -25.44,-106.41 -6.27,-112.78L-15.45,-140.39L-32.90,-134.59L-43.10,-165.26C-55.60,-202.83 -70.41,-210.89 -95.91,-202.41C-110.29,-197.62 -120.90,-184.73 -119.89,-168.88L-126.90,-189.97L-157.57,-179.77L-147.11,-148.33C-143.73,-149.67 -136.44,-152.09 -128.97,-154.58L-113.41,-107.80ZM84.53,-143.20L117.69,-154.23L108.51,-181.84L85.89,-174.31L44.06,-300.06L8.60,-288.26L19.75,-254.72L42.76,-262.37L53.22,-230.93C41.92,-243.14 27.22,-243.15 15.08,-239.33C-8.75,-231.61 -19.75,-210.92 -6.04,-169.70C5.11,-136.16 26.51,-121.77 52.19,-130.32C66.19,-134.97 75.27,-146.72 77.70,-159.24ZM45.44,-153.19C25.31,-146.50 11.13,-155.19 5.33,-173.28C0.61,-187.46 7.01,-202.15 26.56,-208.65C48.80,-216.05 60.74,-207.67 65.65,-193.55L71.90,-174.77C68.44,-163.40 59.62,-157.91 45.44,-153.19ZM122.32,-306.72C118.62,-317.84 111.02,-320.21 100.67,-316.76C89.17,-312.94 84.95,-306.42 88.58,-295.50C92.22,-284.57 100.07,-281.44 111.19,-285.13C121.16,-288.45 125.96,-295.79 122.32,-306.72ZM121.03,-185.79L130.21,-158.18C138.39,-161.12 146.25,-163.73 154.11,-166.35L160.82,-168.58C169.06,-171.32 177.37,-173.87 186.00,-176.74L176.81,-204.34L157.45,-197.90L132.78,-272.09L96.36,-259.97L106.81,-228.54L130.77,-236.51L144.99,-193.76ZM194.07,-210.08L203.25,-182.48C208.55,-184.46 240.18,-194.98 250.98,-198.36L241.80,-225.96L224.74,-220.28L215.36,-248.46C216.08,-263.60 225.15,-272.80 239.72,-277.64C257.74,-283.64 267.96,-277.24 274.46,-257.69L280.71,-238.90L262.12,-232.72L271.30,-205.11C279.29,-207.98 300.25,-214.74 319.42,-221.12L310.23,-248.72L292.79,-242.92L282.59,-273.59C270.09,-311.16 255.27,-319.22 229.78,-310.74C215.40,-305.96 204.79,-293.06 205.80,-277.22L198.79,-298.30L168.11,-288.10L178.57,-256.66C181.96,-258.00 189.24,-260.43 196.72,-262.91L212.28,-216.14ZM397.34,-195.52C428.97,-206.04 437.03,-229.16 431.55,-245.65C426.19,-261.75 414.19,-269.68 395.85,-263.36C382.30,-258.64 372.65,-251.81 360.96,-247.93C355.59,-246.14 350.74,-247.93 348.38,-254.39C346.91,-258.16 348.70,-261.73 351.38,-264.54C358.28,-264.28 365.25,-265.75 371.57,-267.85C389.21,-273.72 409.79,-288.01 399.97,-317.53C397.61,-324.63 394.87,-330.31 391.80,-335.04C396.85,-340.34 407.01,-340.53 407.01,-340.53L405.81,-367.17C391.89,-364.24 382.81,-358.24 381.14,-346.61C371.12,-353.71 358.60,-353.59 344.60,-348.94C320.64,-340.97 308.68,-324.43 319.97,-290.50C323.73,-279.19 329.41,-272.35 336.18,-268.64C331.58,-262.00 331.70,-253.95 334.06,-247.49C337.82,-236.82 349.19,-227.62 364.52,-232.72C377.56,-237.05 388.17,-243.56 399.10,-247.20C406.38,-249.62 413.41,-247.70 415.19,-242.33C417.42,-235.62 411.73,-226.49 390.84,-219.54C371.86,-213.23 353.59,-214.39 343.56,-222.13L344.32,-203.86C353.51,-192.22 376.44,-188.57 397.34,-195.52ZM366.09,-284.34C347.11,-278.02 335.94,-284.74 332.81,-294.13C329.43,-304.93 334.55,-314.51 353.91,-320.95C372.70,-327.20 383.75,-323.42 387.64,-312.37C390.51,-303.74 384.68,-290.52 366.09,-284.34Z" fill="#ffffff" stroke="#000000"/>
    <path d="M-520.78,81.75L-530.55,55.54L-553.96,64.26L-554.77,39.19L-511.34,23.00L-494.61,42.14L-516.14,50.17L-506.37,76.38L-450.02,55.37L-459.79,29.16L-479.26,36.42L-538.66,-33.13L-525.37,-38.08L-536.53,-68.04L-582.02,-51.08L-579.60,73.82L-598.51,80.87L-588.74,107.08ZM-556.60,-29.21L-521.16,11.52L-555.42,24.30ZM-445.21,23.09L-435.16,50.04C-429.98,47.90 -399.09,36.39 -388.54,32.67L-398.59,5.71L-415.25,11.92L-425.51,-15.60C-425.34,-30.59 -416.69,-40.00 -402.46,-45.30C-384.87,-51.86 -374.54,-45.90 -367.42,-26.81L-360.58,-8.46L-378.74,-1.69L-368.69,25.27C-360.90,22.15 -340.42,14.73 -321.70,7.75L-331.75,-19.21L-348.79,-12.85L-359.95,-42.81C-373.63,-79.50 -388.56,-86.95 -413.46,-77.66C-427.50,-72.43 -437.54,-59.31 -435.98,-43.68L-443.65,-64.28L-473.61,-53.11L-462.16,-22.41C-458.86,-23.85 -451.75,-26.50 -444.45,-29.23L-427.42,16.46ZM-172.44,-96.93L-166.51,-81.01L-226.79,-58.54L-239.56,-92.80L-197.63,-108.44L-191.42,-91.77L-182.43,-95.12L-198.41,-138.00L-207.40,-134.65L-201.54,-118.92L-243.47,-103.29L-255.13,-134.55L-196.15,-156.54L-190.64,-141.75L-179.78,-145.79L-197.86,-194.28L-297.83,-157.02L-285.27,-123.32L-268.42,-129.60L-240.09,-53.59L-256.94,-47.31L-246.89,-20.35L-145.60,-58.10L-161.58,-100.98ZM-137.80,-91.50L-127.75,-64.55C-122.58,-66.69 -91.68,-78.20 -81.13,-81.92L-91.18,-108.88L-107.84,-102.67L-118.10,-130.19C-117.93,-145.18 -109.28,-154.59 -95.05,-159.89C-77.46,-166.45 -67.13,-160.49 -60.01,-141.40L-53.17,-123.05L-71.33,-116.28L-61.29,-89.32C-53.49,-92.44 -33.02,-99.86 -14.29,-106.84L-24.34,-133.80L-41.38,-127.44L-52.55,-157.40C-66.22,-194.09 -81.15,-201.54 -106.05,-192.25C-120.09,-187.02 -130.13,-173.90 -128.57,-158.27L-136.25,-178.87L-166.20,-167.70L-154.75,-137.00C-151.45,-138.44 -144.34,-141.09 -137.04,-143.82L-120.01,-98.13ZM74.38,-140.10L106.76,-152.18L96.72,-179.13L74.62,-170.90L28.84,-293.71L-5.79,-280.80L6.42,-248.04L28.89,-256.41L40.33,-225.71C28.73,-237.38 14.21,-236.87 2.35,-232.66C-20.94,-224.19 -31.08,-203.36 -16.08,-163.10C-3.87,-130.34 17.79,-116.88 42.87,-126.23C56.54,-131.32 65.10,-143.25 67.06,-155.71ZM35.39,-148.60C15.73,-141.27 1.41,-149.37 -4.96,-167.03C-10.13,-180.89 -4.32,-195.63 14.77,-202.75C36.49,-210.85 48.59,-202.99 53.94,-189.20L60.78,-170.86C57.76,-159.50 49.24,-153.76 35.39,-148.60ZM105.96,-303.06C101.91,-313.91 94.32,-315.99 84.21,-312.22C72.98,-308.03 69.03,-301.45 73.01,-290.77C76.99,-280.10 84.86,-277.28 95.72,-281.33C105.46,-284.96 109.94,-292.38 105.96,-303.06ZM108.95,-183.48L119.00,-156.52C126.98,-159.71 134.66,-162.57 142.34,-165.43L148.89,-167.88C156.94,-170.88 165.06,-173.69 173.48,-176.83L163.43,-203.79L144.53,-196.74L117.52,-269.20L81.95,-255.94L93.39,-225.23L116.79,-233.96L132.36,-192.21ZM180.28,-210.07L190.33,-183.11C195.51,-185.25 226.40,-196.77 236.95,-200.49L226.90,-227.45L210.24,-221.24L199.98,-248.76C200.15,-263.75 208.80,-273.16 223.03,-278.46C240.62,-285.02 250.95,-279.06 258.07,-259.96L264.91,-241.62L246.75,-234.85L256.79,-207.89C264.59,-211.01 285.06,-218.43 303.79,-225.40L293.74,-252.36L276.70,-246.01L265.53,-275.97C251.86,-312.66 236.93,-320.10 212.03,-310.82C197.99,-305.59 187.95,-292.47 189.51,-276.84L181.83,-297.44L151.88,-286.27L163.33,-255.57C166.63,-257.01 173.74,-259.66 181.04,-262.38L198.07,-216.70ZM381.71,-202.85C412.60,-214.36 419.75,-237.50 413.75,-253.60C407.89,-269.33 395.74,-276.74 377.84,-269.85C364.62,-264.71 355.32,-257.62 343.90,-253.36C338.66,-251.41 333.80,-253.01 331.24,-259.30C329.65,-262.98 331.30,-266.58 333.85,-269.45C340.68,-269.44 347.51,-271.13 353.69,-273.43C370.91,-279.85 390.75,-294.71 380.00,-323.54C377.42,-330.47 374.51,-335.99 371.31,-340.56C376.12,-345.97 386.15,-346.52 386.15,-346.52L384.03,-372.80C370.36,-369.42 361.61,-363.17 360.37,-351.62C350.21,-358.28 337.84,-357.72 324.17,-352.62C300.77,-343.90 289.53,-327.13 301.89,-294.00C306.00,-282.95 311.86,-276.39 318.68,-272.96C314.37,-266.24 314.77,-258.28 317.33,-251.99C321.43,-241.57 332.98,-232.88 347.96,-238.46C360.69,-243.20 370.95,-250.01 381.62,-253.99C388.73,-256.64 395.75,-254.99 397.70,-249.75C400.14,-243.20 394.84,-233.97 374.43,-226.36C355.90,-219.46 337.80,-219.96 327.62,-227.25L329.01,-209.22C338.51,-198.05 361.30,-195.24 381.71,-202.85ZM347.69,-289.53C329.15,-282.62 317.87,-288.87 314.45,-298.04C310.73,-308.59 315.45,-318.24 334.36,-325.29C352.71,-332.13 363.76,-328.79 368.00,-318.00C371.14,-309.57 365.85,-296.30 347.69,-289.53Z" fill="#ffffff" stroke="#000000"/>
    <path d="M-910.72,482.04L-910.72,492L-908.52,492L-908.52,488.92C-906.69,491.01 -903.46,492.38 -899.93,492.38C-893.09,492.38 -889.52,489.72 -889.52,484.89C-889.48,480.45 -892.33,477.45 -900.19,476.80C-906.05,476.31 -907.11,475.09 -907.11,473.38C-907.11,471.44 -905.63,469.54 -900.50,469.54C-896.09,469.54 -894.23,471.10 -892.86,472.24L-890.66,472.24L-890.66,463.88L-892.86,463.88L-892.86,466.73C-894.34,464.72 -897.15,463.12 -900.57,463.12C-906.88,463.12 -910.49,466.65 -910.49,471.21C-910.49,476.04 -908.40,478.78 -900.42,479.38C-895.25,479.76 -893.13,481.25 -893.13,483.11C-893.13,485.20 -895.14,486.79 -900.31,486.79C-904.37,486.79 -907.41,484.67 -908.52,482.04ZM-867.89,492C-866.37,492 -865.31,491.47 -864.63,490.59L-864.63,485.88C-865.50,486.98 -866.45,487.33 -867.63,487.33C-868.54,487.33 -869.34,486.87 -869.64,486.00L-869.64,479.99C-869.64,472.96 -871.96,470.72 -877.13,470.72C-879.98,470.72 -882.37,471.59 -883.82,473.30L-883.66,478.21C-882.64,476.99 -880.74,475.96 -877.51,475.96C-873.94,475.96 -872.26,477.45 -872.07,481.02C-873.67,479.92 -876.33,479.57 -878.12,479.57C-882.64,479.57 -885.72,482.12 -885.72,486.11C-885.72,489.80 -883.13,492.38 -877.74,492.38C-875.27,492.38 -872.87,491.35 -871.58,489.95C-870.82,491.28 -869.53,492 -867.89,492ZM-877.70,487.63C-881.23,487.63 -882.75,486.68 -882.75,485.01C-882.75,483.26 -881.16,482.27 -877.43,482.27C-875.30,482.27 -873.59,482.84 -872.04,484.02L-872.04,485.96C-873.25,487.10 -875.34,487.63 -877.70,487.63ZM-851.63,492L-846.42,477.33L-843.46,477.33L-843.46,471.10L-853.11,471.10L-853.11,477.33L-850.98,477.33L-854.25,487.25L-857.90,477.33L-855.70,477.33L-855.70,471.10L-863.60,471.10L-863.60,477.33L-860.56,477.33L-855.24,492ZM-823.36,492C-821.84,492 -820.77,491.47 -820.09,490.59L-820.09,485.88C-820.96,486.98 -821.91,487.33 -823.09,487.33C-824.00,487.33 -824.80,486.87 -825.11,486.00L-825.11,479.99C-825.11,472.96 -827.42,470.72 -832.59,470.72C-835.44,470.72 -837.84,471.59 -839.28,473.30L-839.13,478.21C-838.10,476.99 -836.20,475.96 -832.97,475.96C-829.40,475.96 -827.73,477.45 -827.54,481.02C-829.13,479.92 -831.79,479.57 -833.58,479.57C-838.10,479.57 -841.18,482.12 -841.18,486.11C-841.18,489.80 -838.60,492.38 -833.20,492.38C-830.73,492.38 -828.34,491.35 -827.04,489.95C-826.28,491.28 -824.99,492 -823.36,492ZM-833.16,487.63C-836.70,487.63 -838.22,486.68 -838.22,485.01C-838.22,483.26 -836.62,482.27 -832.90,482.27C-830.77,482.27 -829.06,482.84 -827.50,484.02L-827.50,485.96C-828.72,487.10 -830.81,487.63 -833.16,487.63ZM-805.16,489.95L-806.18,486.11C-806.79,486.79 -808.08,487.33 -809.68,487.29C-811.54,487.25 -812.83,486.30 -812.83,483.56L-812.83,477.41L-807.13,477.41L-807.13,471.48L-812.83,471.48L-812.83,466.54L-815.30,466.54L-815.30,471.48L-818.30,471.48L-818.30,477.41L-815.30,477.41L-815.30,486.19C-815.30,490.78 -813.14,492.38 -810.17,492.38C-808.01,492.38 -805.84,491.47 -805.16,489.95ZM-785.74,487.21L-787.52,485.50C-788.63,487.02 -790.22,487.82 -793.57,487.78C-797.06,487.74 -799.30,486.53 -799.80,483.18L-785.13,483.18C-785.13,473.80 -788.40,470.72 -793.57,470.72C-798.13,470.72 -802.12,473.76 -802.12,481.85C-802.12,488.01 -799.19,492.38 -793.49,492.38C-789.80,492.38 -786.99,490.10 -785.74,487.21ZM-793.76,476.50C-789.88,476.50 -787.49,478.40 -787.49,480.71L-799.80,480.71C-799.27,477.83 -796.61,476.50 -793.76,476.50ZM-772.21,482.27L-772.21,479.46L-782.47,479.46L-782.47,482.27ZM-768.98,482.04L-768.98,492L-766.78,492L-766.78,488.92C-764.95,491.01 -761.72,492.38 -758.19,492.38C-751.35,492.38 -747.78,489.72 -747.78,484.89C-747.74,480.45 -750.59,477.45 -758.45,476.80C-764.31,476.31 -765.37,475.09 -765.37,473.38C-765.37,471.44 -763.89,469.54 -758.76,469.54C-754.35,469.54 -752.49,471.10 -751.12,472.24L-748.92,472.24L-748.92,463.88L-751.12,463.88L-751.12,466.73C-752.60,464.72 -755.41,463.12 -758.83,463.12C-765.14,463.12 -768.75,466.65 -768.75,471.21C-768.75,476.04 -766.66,478.78 -758.68,479.38C-753.51,479.76 -751.39,481.25 -751.39,483.11C-751.39,485.20 -753.40,486.79 -758.57,486.79C-762.63,486.79 -765.67,484.67 -766.78,482.04ZM-727.60,487.21L-729.38,485.50C-730.49,487.02 -732.08,487.82 -735.43,487.78C-738.92,487.74 -741.16,486.53 -741.66,483.18L-726.99,483.18C-726.99,473.80 -730.26,470.72 -735.43,470.72C-739.99,470.72 -743.98,473.76 -743.98,481.85C-743.98,488.01 -741.05,492.38 -735.35,492.38C-731.66,492.38 -728.85,490.10 -727.60,487.21ZM-735.62,476.50C-731.74,476.50 -729.35,478.40 -729.35,480.71L-741.66,480.71C-741.13,477.83 -738.47,476.50 -735.62,476.50ZM-723.38,486.60L-723.38,492.08C-722.32,492.04 -716.05,492.04 -713.92,492.08L-713.92,486.60L-717.34,486.60L-717.34,481.17C-717.34,478.51 -715.97,477.03 -714.11,477.03C-712.40,477.03 -711.49,477.45 -711.03,478.43L-709.59,472.13C-710.57,471.29 -711.45,470.72 -713.27,470.72C-714.83,470.72 -716.73,471.78 -717.60,474.06L-718.90,471.10L-723.38,471.10L-723.38,477.33C-722.47,477.33 -721.40,477.29 -719.85,477.33L-719.85,486.60ZM-699.33,465.06C-699.33,462.85 -700.54,461.98 -702.59,461.98C-704.87,461.98 -706.01,462.89 -706.01,465.06C-706.01,467.22 -704.80,468.25 -702.59,468.25C-700.62,468.25 -699.33,467.22 -699.33,465.06ZM-706.74,486.57L-706.74,492.04C-705.10,492 -703.54,492 -701.99,492L-700.66,492C-699.02,492 -697.39,492.04 -695.68,492.04L-695.68,486.57L-699.52,486.57L-699.52,471.86L-706.74,471.86L-706.74,478.09L-701.99,478.09L-701.99,486.57ZM-682.23,492L-682.23,486.53L-686.79,486.53L-686.79,478.09L-682.11,478.09L-682.11,471.86L-686.75,471.86C-687.13,469.09 -685.15,467.53 -683.02,467.53C-681.96,467.53 -681.12,467.76 -680.67,468.10L-680.36,463.20C-681.24,462.51 -682.30,461.98 -683.75,461.98C-687.36,461.98 -690.05,464.94 -689.29,471.86L-692.26,471.86L-692.26,478.09L-689.26,478.09L-689.26,486.53L-692.22,486.53L-692.22,492Z"/>
</svg>