<?xml version="1.0"?>
<svg xmlns="http://www.w3.org/2000/svg" width="1920" height="1080" viewBox="-960 -540 1920 1080">
    <path d="M-545.88,-146.94L-484.25,-146.94L-439.74,-156.03L-422.89,-192.49L-431.79,-216.94L-456.62,-230.54L-436.14,-244.75L-430.41,-266.09L-446.53,-298.13L-487.44,-306.88L-545.88,-306.88ZM-524.60,-238.04L-524.64,-287.87L-492.22,-287.87L-464.44,-284.61L-452.61,-263.39L-464.01,-243.35L-489.50,-238.04ZM-524.60,-165.77L-524.56,-219.22L-487.20,-219.22L-458.59,-214.00L-445.77,-192.51L-456.69,-170.27L-484.25,-165.77ZM-374.97,-168.96L-386.61,-199.60L-300.92,-199.61L-299.81,-207.61L-313.03,-249.90L-353.08,-267.08L-392.25,-250.55L-406.97,-204.81L-392.25,-159.07L-353.08,-142.54L-320.10,-152.28L-304.92,-176.08L-320.47,-185.79L-332.58,-166.04L-351.95,-159.53ZM-385.95,-215.60L-373.41,-242.02L-353.10,-250.12L-330.45,-240.49L-321.34,-215.60ZM-279.16,-147L-259.04,-147L-259.04,-209.83L-250.38,-239.07L-227.81,-249.32L-209.08,-240.67L-203.67,-217.08L-203.68,-147L-183.76,-147L-183.67,-217.24L-191.26,-252.61L-223.74,-266.54L-245.05,-261.65L-259.07,-246.68L-259.07,-306.84L-279.16,-306.84ZM-140.13,-281.74L-132.91,-289.64L-132.89,-300.93L-140.25,-309.02L-150.52,-309.02L-157.68,-300.95L-157.69,-289.68L-150.39,-281.74ZM-135.31,-147L-135.31,-262.44L-155.29,-262.44L-155.29,-147ZM-107.00,-147L-87.02,-147L-87.02,-209.83L-78.35,-239.49L-55.77,-249.74L-37.06,-241.08L-31.63,-217.82L-31.63,-147L-11.65,-147L-11.65,-217.82L-19.22,-253.03L-51.71,-266.96L-73.28,-262.20L-89.02,-245.79L-89.02,-262.44L-107.00,-262.44ZM110.00,-306.84L90.02,-306.84L90.02,-250.43L77.51,-261.88L59.00,-266.50L21.51,-249.12L8.49,-204.23L21.51,-159.34L59.00,-141.96L78.58,-147.34L92.24,-162.76L92.24,-147L110.00,-147ZM60.15,-249.52L83.05,-238.08L92.53,-204.23L82.20,-170.38L60.15,-158.95L37.81,-170.38L28.88,-204.23L37.81,-238.08ZM249.59,-145.45L249.60,-145.46L247.29,-162.67L238.34,-161.33L228.72,-166.21L227.00,-180.74L227.00,-247.12L246.75,-247.12L246.75,-262.44L227.00,-262.44L227.00,-302.40L207.02,-302.40L207.02,-262.44L190.59,-262.44L190.59,-247.12L207.02,-247.12L207.02,-180.74L211.57,-152.87L234.32,-143.32ZM271.40,-147L291.52,-147L291.52,-209.83L300.18,-239.07L322.75,-249.32L341.48,-240.67L346.89,-217.08L346.88,-147L366.80,-147L366.89,-217.24L359.30,-252.61L326.82,-266.54L305.51,-261.65L291.49,-246.68L291.49,-306.84L271.40,-306.84ZM419.57,-168.96L407.93,-199.60L493.62,-199.61L494.73,-207.61L481.51,-249.90L441.46,-267.08L402.29,-250.55L387.57,-204.81L402.29,-159.07L441.46,-142.54L474.44,-152.28L489.62,-176.08L474.06,-185.79L461.96,-166.04L442.59,-159.53ZM408.59,-215.60L421.13,-242.02L441.44,-250.12L464.09,-240.49L473.19,-215.60ZM-384.97,0.49L-403.49,8.43L-386.67,43.89L-338.28,57.78L-297.46,46.04L-278.23,9.33L-289.36,-19.31L-318.32,-34.36L-364.19,-48.02L-375.45,-55.70L-379.21,-67.21L-367.58,-87.70L-343.22,-93.93L-315.77,-84.99L-304.95,-60.41L-286.20,-67.65L-300.98,-99.75L-344.17,-112.03L-382.40,-100.58L-400.09,-65.85L-394.31,-44.17L-366.62,-26.90L-320.08,-13.77L-305.92,-3.82L-301.40,10.46L-311.47,31.60L-339.22,39.67L-371.00,29.85ZM-244.87,82.10L-251.30,80.99L-254.87,97.22L-242.21,99.42L-220.40,89.90L-207.29,65.57L-161.39,-57.76L-178.49,-64.42L-212.00,27.27L-246.20,-64.42L-264.18,-57.76L-221.31,51.68L-225.88,64.22L-234.44,77.77ZM-122.99,52.80L-122.99,-107.04L-142.97,-107.04L-142.97,52.80ZM-74.15,52.80L-74.15,-107.04L-94.13,-107.04L-94.13,52.80ZM25.18,-24.62L-39.92,-4.65L-53.17,22.95L-41.28,49.16L-13.11,57.37L7.56,53.35L26.50,39.45L26.42,52.80L45.07,52.80L45.09,-21.67L34.58,-55.56L0.04,-67.19L-31.05,-59.60L-46.15,-37.07L-30.31,-27.33L-20.13,-44.88L-2.00,-50.88L17.43,-45.20ZM25.18,-6.96L25.17,22.27L11.04,34.64L-9.92,41.07L-24.96,37.17L-31.87,22.06L-22.96,6.37ZM95.68,-107.04L75.70,-107.04L75.70,52.80L93.46,52.80L93.46,37.26L106.16,52.27L126.12,57.76L163.60,40.39L176.62,-4.51L163.60,-49.40L126.12,-66.78L108.24,-62.51L95.68,-50.43ZM124.96,40.79L102.92,29.36L92.56,-4.49L102.06,-38.34L124.96,-49.78L147.29,-38.34L156.21,-4.49L147.29,29.36ZM292.48,-62.64L272.50,-62.64L272.50,-0.06L263.85,29.86L241.27,40.11L222.55,31.45L217.12,7.81L217.12,-62.64L197.14,-62.64L197.14,7.96L204.67,43.39L237.17,57.31L258.75,51.97L274.50,36.15L274.50,52.80L292.48,52.80ZM333.09,17.04L316.12,24.97L327.42,47.62L361.62,57.38L394.26,49.26L409.20,21.61L400.23,-2.08L380.78,-12.07L353.87,-19.35L338.91,-25.34L334.00,-34.57L340.43,-45.95L359.26,-50.13L377.35,-45.20L385.13,-30.51L401.94,-38.43L392.16,-57.77L360.02,-67.19L328.17,-59.02L314.50,-32.32L323.37,-11.12L343.40,-1.57L371.85,5.96L385.25,12.69L388.79,23.38L379.87,36.79L362.30,40.35L341.08,33.37Z" fill="#ffffff" stroke="#000000"/>
    <path d="M-546.54,-141.84L-485.52,-141.92L-441.46,-150.97L-424.83,-187.09L-433.67,-211.28L-458.27,-224.71L-438.01,-238.81L-432.35,-259.94L-448.36,-291.64L-488.87,-300.26L-546.73,-300.19ZM-525.57,-232.06L-525.67,-281.39L-493.58,-281.43L-466.07,-278.24L-454.33,-257.24L-465.60,-237.39L-490.83,-232.10ZM-525.49,-160.51L-525.51,-213.43L-488.52,-213.47L-460.20,-208.33L-447.48,-187.08L-458.27,-165.04L-485.54,-160.56ZM-377.35,-163.85L-388.92,-194.16L-304.09,-194.28L-303.00,-202.20L-316.13,-244.05L-355.80,-261.01L-394.56,-244.60L-409.08,-199.30L-394.45,-154.03L-355.66,-137.72L-323.01,-147.40L-308.01,-170.98L-323.43,-180.58L-335.39,-161.01L-354.55,-154.54ZM-388.28,-210.01L-375.90,-236.18L-355.80,-244.22L-333.36,-234.72L-324.32,-210.08ZM-282.48,-142.22L-262.56,-142.24L-262.64,-204.44L-254.10,-233.41L-231.77,-243.58L-213.21,-235.03L-207.83,-211.69L-207.76,-142.31L-188.03,-142.33L-188.03,-211.87L-195.58,-246.88L-227.76,-260.63L-248.85,-255.77L-262.71,-240.93L-262.78,-300.49L-282.67,-300.46ZM-145.00,-275.78L-137.86,-283.61L-137.86,-294.79L-145.15,-302.79L-155.31,-302.78L-162.40,-294.78L-162.39,-283.61L-155.16,-275.77ZM-140.07,-142.39L-140.20,-256.68L-159.98,-256.65L-159.85,-142.37ZM-112.04,-142.43L-92.26,-142.45L-92.33,-204.65L-83.79,-234.02L-61.45,-244.20L-42.91,-235.65L-37.51,-212.62L-37.43,-142.52L-17.65,-142.54L-17.73,-212.65L-25.26,-247.50L-57.44,-261.25L-78.80,-256.51L-94.36,-240.25L-94.38,-256.73L-112.18,-256.71ZM102.60,-300.92L82.82,-300.90L82.89,-245.06L70.48,-256.37L52.16,-260.93L15.06,-243.68L2.23,-199.22L15.17,-154.79L52.30,-137.63L71.69,-142.98L85.19,-158.27L85.21,-142.66L102.79,-142.68ZM53.32,-244.12L76.00,-232.82L85.43,-199.32L75.24,-165.80L53.42,-154.46L31.29,-165.75L22.42,-199.24L31.21,-232.77ZM240.99,-141.32L240.99,-141.32L238.69,-158.36L229.83,-157.03L220.30,-161.84L218.57,-176.23L218.49,-241.94L238.06,-241.97L238.04,-257.13L218.48,-257.11L218.43,-296.67L198.65,-296.64L198.70,-257.08L182.43,-257.06L182.45,-241.90L198.71,-241.92L198.79,-176.21L203.34,-148.62L225.87,-139.19ZM262.57,-142.88L282.49,-142.90L282.42,-205.10L290.96,-234.06L313.29,-244.24L331.84,-235.69L337.22,-212.35L337.29,-142.96L357.02,-142.99L357.03,-212.53L349.47,-247.53L317.29,-261.29L296.20,-256.42L282.35,-241.58L282.27,-301.14L262.38,-301.12ZM409.24,-164.79L397.67,-195.11L482.51,-195.23L483.60,-203.14L470.46,-244.99L430.79,-261.95L392.03,-245.54L377.52,-200.24L392.14,-154.98L430.94,-138.66L463.58,-148.34L478.58,-171.93L463.17,-181.52L451.21,-161.95L432.04,-155.48ZM398.31,-210.95L410.69,-237.13L430.79,-245.17L453.23,-235.66L462.27,-211.03ZM-387.05,3.92L-405.38,11.80L-388.69,46.88L-340.76,60.58L-300.36,48.91L-281.38,12.55L-292.42,-15.80L-321.11,-30.66L-366.54,-44.13L-377.70,-51.72L-381.43,-63.11L-369.95,-83.41L-345.84,-89.60L-318.65,-80.79L-307.91,-56.47L-289.35,-63.66L-304.02,-95.42L-346.79,-107.53L-384.63,-96.14L-402.11,-61.74L-396.35,-40.28L-368.92,-23.22L-322.83,-10.28L-308.80,-0.45L-304.31,13.69L-314.26,34.63L-341.72,42.66L-373.19,32.97ZM-248.26,84.55L-254.63,83.46L-258.14,99.53L-245.60,101.69L-224.03,92.24L-211.08,68.14L-165.78,-54.01L-182.72,-60.58L-215.78,30.22L-249.75,-60.50L-267.54,-53.89L-224.97,54.41L-229.49,66.82L-237.94,80.25ZM-127.63,55.40L-127.82,-102.85L-147.60,-102.82L-147.41,55.42ZM-79.28,55.34L-79.47,-102.90L-99.25,-102.88L-99.06,55.36ZM18.96,-21.43L-45.47,-1.58L-58.55,25.76L-46.75,51.70L-18.84,59.78L1.61,55.78L20.35,42.00L20.28,55.22L38.74,55.20L38.68,-18.53L28.23,-52.07L-5.98,-63.54L-36.74,-55.99L-51.67,-33.67L-35.97,-24.05L-25.92,-41.43L-7.98,-47.39L11.26,-41.79ZM18.98,-3.94L19.00,24.99L5.03,37.26L-15.70,43.65L-30.60,39.81L-37.47,24.85L-28.66,9.31ZM88.66,-103.11L68.88,-103.08L69.07,55.16L86.65,55.14L86.64,39.75L99.22,54.60L118.99,60.01L156.07,42.76L168.91,-1.69L155.97,-46.12L118.84,-63.28L101.14,-59.03L88.73,-47.06ZM117.83,43.21L95.98,31.92L85.70,-1.58L95.06,-35.10L117.72,-46.46L139.84,-35.16L148.71,-1.65L139.92,31.87ZM283.54,-59.38L263.76,-59.36L263.84,2.60L255.31,32.23L232.97,42.40L214.42,33.85L209.02,10.45L208.93,-59.29L189.15,-59.27L189.24,10.62L196.74,45.69L228.93,59.43L250.28,54.12L265.86,38.44L265.88,54.92L283.68,54.90ZM323.85,19.45L307.05,27.32L318.27,49.73L352.14,59.36L384.44,51.27L399.20,23.88L390.29,0.44L371.02,-9.43L344.37,-16.60L329.55,-22.52L324.68,-31.64L331.03,-42.92L349.67,-47.08L367.59,-42.21L375.31,-27.68L391.94,-35.55L382.24,-54.68L350.40,-63.97L318.89,-55.84L305.38,-29.39L314.19,-8.42L334.03,1.02L362.20,8.43L375.48,15.08L379.00,25.66L370.18,38.95L352.79,42.50L331.77,35.61Z" fill="#ffffff" stroke="#000000"/>
    <path d="M-547.06,-136.81L-486.66,-136.95L-443.05,-145.97L-426.63,-181.74L-435.41,-205.68L-459.78,-218.94L-439.74,-232.92L-434.17,-253.85L-450.05,-285.21L-490.16,-293.69L-547.43,-293.55ZM-526.41,-226.13L-526.57,-274.97L-494.80,-275.04L-467.56,-271.92L-455.92,-251.15L-467.05,-231.49L-492.02,-226.22ZM-526.24,-155.31L-526.33,-207.69L-489.71,-207.78L-461.67,-202.73L-449.06,-181.70L-459.71,-159.88L-486.70,-155.41ZM-379.61,-158.79L-391.09,-188.78L-307.12,-189.01L-306.05,-196.84L-319.10,-238.25L-358.39,-254.99L-396.74,-238.70L-411.05,-193.84L-396.53,-149.05L-358.10,-132.95L-325.80,-142.57L-310.98,-165.93L-326.25,-175.41L-338.06,-156.03L-357.03,-149.60ZM-390.48,-204.47L-378.25,-230.39L-358.37,-238.38L-336.15,-229.00L-327.17,-204.62ZM-285.67,-137.49L-265.95,-137.54L-266.10,-199.11L-257.68,-227.79L-235.59,-237.89L-217.21,-229.45L-211.86,-206.35L-211.70,-137.67L-192.17,-137.72L-192.25,-206.56L-199.77,-241.20L-231.64,-254.78L-252.51,-249.93L-266.21,-235.23L-266.36,-294.18L-286.05,-294.14ZM-149.74,-269.87L-142.68,-277.63L-142.69,-288.69L-149.92,-296.60L-159.98,-296.58L-166.98,-288.66L-166.96,-277.60L-159.79,-269.84ZM-144.69,-137.83L-144.97,-250.96L-164.55,-250.92L-164.27,-137.79ZM-116.95,-137.90L-97.37,-137.95L-97.52,-199.52L-89.10,-228.61L-66.99,-238.70L-48.63,-230.26L-43.26,-207.48L-43.09,-138.08L-23.51,-138.12L-23.68,-207.53L-31.18,-242.01L-63.05,-255.59L-84.18,-250.87L-99.56,-234.76L-99.60,-251.07L-117.22,-251.03ZM95.33,-295.05L75.75,-295.01L75.89,-239.73L63.59,-250.91L45.45,-255.40L8.75,-238.28L-3.90,-194.25L8.96,-150.29L45.74,-133.35L64.92,-138.67L78.27,-153.82L78.30,-138.37L95.71,-138.41ZM46.62,-238.77L69.08,-227.61L78.46,-194.45L68.41,-161.26L46.83,-150.01L24.90,-161.16L16.08,-194.30L24.74,-227.50ZM232.51,-137.22L232.51,-137.22L230.22,-154.09L221.45,-152.76L212.00,-157.52L210.28,-171.75L210.13,-236.80L229.49,-236.85L229.45,-251.86L210.09,-251.82L210.00,-290.98L190.42,-290.93L190.51,-251.77L174.41,-251.73L174.45,-236.72L190.55,-236.76L190.70,-171.71L195.23,-144.40L217.55,-135.09ZM253.87,-138.79L273.60,-138.84L273.45,-200.41L281.87,-229.09L303.96,-239.19L322.34,-230.75L327.69,-207.65L327.84,-138.97L347.37,-139.01L347.29,-207.85L339.78,-242.49L307.91,-256.07L287.03,-251.23L273.33,-236.52L273.19,-295.48L253.50,-295.43ZM399.04,-160.66L387.55,-190.65L471.53,-190.87L472.60,-198.71L459.54,-240.12L420.25,-256.86L381.90,-240.57L367.59,-195.71L382.12,-150.92L420.55,-134.82L452.85,-144.44L467.67,-167.80L452.40,-177.28L440.58,-157.90L421.62,-151.47ZM388.17,-206.34L400.39,-232.26L420.27,-240.25L442.50,-230.87L451.47,-206.49ZM-389.01,7.30L-407.15,15.12L-390.58,49.83L-343.12,63.33L-303.15,51.72L-284.39,15.71L-295.36,-12.34L-323.78,-27.01L-368.77,-40.29L-379.82,-47.79L-383.53,-59.07L-372.18,-79.17L-348.32,-85.33L-321.40,-76.64L-310.74,-52.58L-292.38,-59.72L-306.94,-91.14L-349.29,-103.08L-386.74,-91.76L-403.99,-57.69L-398.27,-36.45L-371.09,-19.59L-325.46,-6.83L-311.55,2.88L-307.09,16.87L-316.92,37.61L-344.09,45.59L-375.26,36.03ZM-251.52,86.95L-257.83,85.87L-261.29,101.78L-248.87,103.91L-227.53,94.53L-214.74,70.66L-170.05,-50.31L-186.82,-56.80L-219.44,33.13L-253.17,-56.64L-270.78,-50.07L-228.51,57.08L-232.96,69.37L-241.31,82.68ZM-132.15,57.94L-132.53,-98.70L-152.11,-98.65L-151.73,57.99ZM-84.29,57.83L-84.66,-98.82L-104.24,-98.77L-103.87,57.87ZM12.87,-18.28L-50.88,1.45L-63.80,28.52L-52.09,54.18L-24.46,62.16L-4.21,58.17L14.32,44.50L14.27,57.59L32.54,57.55L32.39,-15.43L22.01,-48.62L-11.87,-59.94L-42.31,-52.43L-57.06,-30.32L-41.51,-20.81L-31.58,-38.02L-13.83,-43.95L5.23,-38.42ZM12.91,-0.97L12.97,27.67L-0.85,39.83L-21.37,46.18L-36.12,42.40L-42.93,27.60L-34.23,12.20ZM81.77,-99.22L62.19,-99.17L62.57,57.47L79.97,57.43L79.93,42.20L92.41,56.88L111.98,62.22L148.67,45.10L161.33,1.08L148.46,-42.89L111.69,-59.83L94.18,-55.60L81.90,-43.74ZM110.81,45.59L89.18,34.44L78.96,1.29L88.18,-31.91L110.60,-43.17L132.51,-32.01L141.33,1.14L132.67,34.33ZM274.74,-56.17L255.16,-56.12L255.30,5.21L246.89,34.55L224.79,44.65L206.42,36.20L201.05,13.05L200.88,-55.99L181.30,-55.94L181.47,13.24L188.94,47.95L220.81,61.52L241.95,56.23L257.35,40.69L257.39,57.01L275.01,56.96ZM314.73,21.82L298.11,29.63L309.24,51.81L342.78,61.29L374.74,53.25L389.32,26.12L380.47,2.93L361.39,-6.82L335.00,-13.89L320.32,-19.73L315.49,-28.75L321.76,-39.92L340.21,-44.06L357.95,-39.27L365.61,-24.89L382.06,-32.70L372.44,-51.63L340.91,-60.79L309.72,-52.70L296.38,-26.50L305.13,-5.75L324.78,3.56L352.68,10.87L365.83,17.44L369.33,27.91L360.62,41.07L343.41,44.60L322.59,37.81Z" fill="#ffffff" stroke="#000000"/>
    <path d="M-547.45,-131.83L-487.66,-132.04L-444.52,-141.02L-428.30,-176.45L-437.02,-200.13L-461.15,-213.23L-441.34,-227.09L-435.85,-247.81L-451.61,-278.83L-491.32,-287.18L-548.01,-286.98ZM-527.12,-220.27L-527.33,-268.60L-495.89,-268.72L-468.92,-265.66L-457.38,-245.11L-468.37,-225.64L-493.07,-220.39ZM-526.87,-150.17L-527.02,-202.02L-490.77,-202.15L-463.01,-197.18L-450.50,-176.38L-461.01,-154.77L-487.73,-150.31ZM-381.73,-153.79L-393.14,-183.46L-310.02,-183.78L-308.97,-191.54L-321.94,-232.51L-360.85,-249.04L-398.78,-232.87L-412.90,-188.45L-398.47,-144.13L-360.41,-128.23L-328.45,-137.80L-313.81,-160.94L-328.93,-170.31L-340.61,-151.11L-359.37,-144.72ZM-392.55,-198.99L-380.48,-224.66L-360.81,-232.59L-338.80,-223.33L-329.88,-199.21ZM-288.73,-132.82L-269.21,-132.89L-269.43,-193.83L-261.13,-222.23L-239.28,-232.25L-221.08,-223.92L-215.75,-201.07L-215.52,-133.08L-196.18,-133.15L-196.35,-201.29L-203.83,-235.57L-235.39,-248.97L-256.04,-244.15L-269.59,-229.58L-269.80,-287.94L-289.29,-287.86ZM-154.34,-264.00L-147.36,-271.70L-147.38,-282.65L-154.55,-290.47L-164.51,-290.43L-171.43,-282.58L-171.40,-271.64L-164.29,-263.97ZM-149.19,-133.32L-149.59,-245.30L-168.97,-245.23L-168.57,-133.25ZM-121.73,-133.42L-102.35,-133.49L-102.57,-194.43L-94.27,-223.24L-72.40,-233.26L-54.21,-224.93L-48.87,-202.38L-48.63,-133.69L-29.25,-133.76L-29.49,-202.45L-36.95,-236.57L-68.51,-249.97L-89.43,-245.28L-104.63,-229.31L-104.69,-245.46L-122.13,-245.40ZM88.20,-289.22L68.82,-289.15L69.02,-234.44L56.84,-245.50L38.87,-249.91L2.57,-232.93L-9.90,-189.34L2.88,-145.84L39.31,-129.11L58.28,-134.40L71.48,-149.41L71.53,-134.12L88.76,-134.18ZM40.05,-233.45L62.29,-222.44L71.61,-189.63L61.71,-156.76L40.36,-145.60L18.65,-156.61L9.88,-189.41L18.41,-222.28ZM224.17,-133.17L224.17,-133.17L221.87,-149.86L213.20,-148.53L203.84,-153.23L202.12,-167.32L201.89,-231.71L221.06,-231.78L221.00,-246.63L201.84,-246.57L201.70,-285.33L182.32,-285.26L182.46,-246.50L166.52,-246.44L166.58,-231.58L182.51,-231.64L182.74,-167.25L187.26,-140.23L209.36,-131.04ZM245.31,-134.74L264.83,-134.81L264.61,-195.76L272.91,-224.15L294.76,-234.18L312.96,-225.84L318.29,-202.99L318.52,-135.01L337.86,-135.08L337.69,-203.21L330.21,-237.49L298.65,-250.89L278.00,-246.07L264.45,-231.50L264.24,-289.86L244.75,-289.79ZM388.96,-156.56L377.56,-186.24L460.68,-186.56L461.73,-194.31L448.76,-235.29L409.85,-251.81L371.91,-235.64L357.80,-191.22L372.23,-146.90L410.28,-131.01L442.24,-140.57L456.89,-163.72L441.76,-173.08L430.09,-153.88L411.32,-147.50ZM378.15,-201.76L390.22,-227.44L409.89,-235.36L431.90,-226.10L440.81,-201.99ZM-390.84,10.62L-408.78,18.38L-392.34,52.71L-345.35,66.02L-305.80,54.49L-287.28,18.82L-298.17,-8.93L-326.32,-23.42L-370.86,-36.51L-381.81,-43.92L-385.49,-55.08L-374.29,-74.99L-350.68,-81.12L-324.02,-72.54L-313.44,-48.74L-295.27,-55.83L-309.72,-86.92L-351.66,-98.68L-388.71,-87.43L-405.75,-53.69L-400.06,-32.67L-373.14,-16.02L-327.95,-3.45L-314.18,6.15L-309.75,20.00L-319.45,40.54L-346.33,48.46L-377.19,39.04ZM-254.66,89.29L-260.91,88.23L-264.31,103.98L-252.02,106.08L-230.90,96.76L-218.27,73.12L-174.18,-46.67L-190.79,-53.07L-222.97,35.98L-256.46,-52.83L-273.88,-46.31L-231.92,59.70L-236.31,71.87L-244.56,85.05ZM-136.54,60.44L-137.10,-94.61L-156.48,-94.54L-155.92,60.51ZM-89.17,60.27L-89.73,-94.78L-109.11,-94.71L-108.55,60.34ZM6.91,-15.18L-56.17,4.42L-68.92,31.24L-57.30,56.62L-29.94,64.48L-9.91,60.51L8.42,46.96L8.38,59.92L26.47,59.85L26.24,-12.38L15.92,-45.22L-17.63,-56.38L-47.75,-48.91L-62.32,-27.01L-46.92,-17.61L-37.12,-34.67L-19.55,-40.55L-0.68,-35.11ZM6.97,1.96L7.06,30.30L-6.60,42.36L-26.90,48.67L-41.51,44.94L-48.27,30.30L-39.68,15.05ZM75.01,-95.37L55.63,-95.30L56.19,59.74L73.41,59.68L73.36,44.61L85.73,59.12L105.10,64.38L141.40,47.39L153.88,3.81L141.09,-39.69L104.67,-56.42L87.34,-52.22L75.21,-40.46ZM103.93,47.92L82.50,36.91L72.34,4.12L81.43,-28.76L103.61,-39.93L125.31,-28.91L134.08,3.89L125.55,36.76ZM266.06,-52.99L246.68,-52.92L246.89,7.79L238.60,36.84L216.74,46.86L198.55,38.52L193.20,15.61L192.95,-52.73L173.57,-52.66L173.82,15.82L181.26,50.17L212.82,63.56L233.73,58.30L248.96,42.90L249.02,59.05L266.46,58.99ZM305.73,24.15L289.29,31.91L300.34,53.84L333.54,63.19L365.17,55.20L379.57,28.32L370.78,5.37L351.88,-4.25L325.75,-11.21L311.22,-16.97L306.43,-25.90L312.62,-36.97L330.88,-41.09L348.44,-36.36L356.04,-22.14L372.32,-29.89L362.77,-48.61L331.55,-57.64L300.69,-49.60L287.52,-23.65L296.20,-3.13L315.66,6.07L343.28,13.27L356.31,19.76L359.78,30.11L351.18,43.15L334.14,46.67L313.53,39.97Z" fill="#ffffff" stroke="#000000"/>
    <path d="M-547.71,-126.91L-488.54,-127.20L-445.85,-136.13L-429.84,-171.21L-438.50,-194.64L-462.40,-207.58L-442.80,-221.32L-437.40,-241.83L-453.03,-272.51L-492.34,-280.73L-548.44,-280.46ZM-527.69,-214.46L-527.96,-262.30L-496.84,-262.45L-470.15,-259.45L-458.70,-239.13L-469.55,-219.85L-494.00,-214.63ZM-527.36,-145.09L-527.57,-196.40L-491.70,-196.57L-464.21,-191.69L-451.81,-171.12L-462.19,-149.72L-488.63,-145.28ZM-383.73,-148.84L-395.05,-178.20L-312.79,-178.61L-311.76,-186.29L-324.64,-226.82L-363.17,-243.13L-400.70,-227.08L-414.61,-183.11L-400.27,-139.26L-362.59,-123.58L-330.98,-133.08L-316.51,-156.00L-331.49,-165.25L-343.02,-146.24L-361.59,-139.89ZM-394.48,-193.56L-382.57,-218.99L-363.11,-226.85L-341.32,-217.72L-332.47,-193.86ZM-291.66,-128.20L-272.34,-128.29L-272.63,-188.61L-264.45,-216.72L-242.83,-226.67L-224.81,-218.44L-219.51,-195.83L-219.20,-128.55L-200.07,-128.64L-200.31,-196.07L-207.75,-229.99L-239.00,-243.22L-259.44,-238.42L-272.83,-223.98L-273.10,-281.74L-292.39,-281.65ZM-158.81,-258.19L-151.91,-265.81L-151.95,-276.65L-159.05,-284.38L-168.90,-284.34L-175.74,-276.56L-175.70,-265.73L-168.66,-258.14ZM-153.56,-128.86L-154.09,-239.69L-173.27,-239.59L-172.74,-128.77ZM-126.38,-128.99L-107.20,-129.09L-107.49,-189.40L-99.31,-217.91L-77.68,-227.86L-59.67,-219.63L-54.36,-197.33L-54.03,-129.34L-34.85,-129.43L-35.18,-197.42L-42.60,-231.18L-73.85,-244.41L-94.54,-239.74L-109.57,-223.91L-109.65,-239.90L-126.91,-239.82ZM81.20,-283.44L62.02,-283.35L62.28,-229.20L50.21,-240.13L32.43,-244.48L-3.48,-227.62L-15.77,-184.47L-3.07,-141.43L33.00,-124.92L51.78,-130.18L64.82,-145.04L64.89,-129.91L81.94,-129.99ZM33.61,-228.19L55.64,-217.31L64.90,-184.85L55.14,-152.31L34.03,-141.24L12.52,-152.11L3.80,-184.56L12.21,-217.10ZM215.95,-129.15L215.95,-129.16L213.66,-145.67L205.08,-144.35L195.81,-148.98L194.10,-162.93L193.79,-226.65L212.76,-226.74L212.69,-241.45L193.72,-241.36L193.53,-279.72L174.35,-279.62L174.54,-241.26L158.77,-241.19L158.84,-226.48L174.61,-226.56L174.91,-162.84L179.42,-136.10L201.30,-127.03ZM236.87,-130.74L256.19,-130.83L255.90,-191.14L264.08,-219.26L285.70,-229.20L303.72,-220.98L309.02,-198.37L309.33,-131.09L328.47,-131.18L328.23,-198.61L320.78,-232.53L289.53,-245.75L269.09,-240.96L255.71,-226.52L255.43,-284.28L236.14,-284.18ZM379.02,-152.50L367.70,-181.86L449.96,-182.27L450.99,-189.95L438.10,-230.49L399.58,-246.79L362.05,-230.75L348.14,-186.77L362.47,-142.92L400.15,-127.24L431.77,-136.74L446.23,-159.66L431.26,-168.91L419.73,-149.90L401.16,-143.56ZM368.26,-197.22L380.18,-222.65L399.64,-230.52L421.43,-221.38L430.28,-197.52ZM-392.55,13.88L-410.29,21.58L-393.98,55.54L-347.46,68.66L-308.33,57.20L-290.04,21.87L-300.85,-5.57L-328.73,-19.89L-372.83,-32.79L-383.67,-40.11L-387.33,-51.14L-376.26,-70.87L-352.91,-76.96L-326.51,-68.50L-316.01,-44.96L-298.04,-52.00L-312.38,-82.75L-353.90,-94.34L-390.55,-83.16L-407.37,-49.74L-401.72,-28.95L-375.06,-12.50L-330.32,-0.11L-316.68,9.37L-312.28,23.07L-321.85,43.40L-348.45,51.28L-379.00,41.99ZM-257.67,91.58L-263.86,90.54L-267.21,106.13L-255.04,108.19L-234.15,98.95L-221.68,75.53L-178.19,-43.07L-194.63,-49.39L-226.37,38.78L-259.63,-49.07L-276.86,-42.60L-235.20,62.26L-239.54,74.32L-247.69,87.37ZM-140.81,62.88L-141.54,-90.56L-160.73,-90.47L-159.99,62.98ZM-93.92,62.66L-94.66,-90.78L-113.84,-90.69L-113.10,62.75ZM1.07,-12.12L-61.33,7.35L-73.92,33.90L-62.39,59.02L-35.30,66.76L-15.48,62.81L2.64,49.38L2.62,62.20L20.52,62.11L20.21,-9.38L9.96,-41.87L-23.26,-52.87L-53.06,-45.44L-67.46,-23.75L-52.20,-14.47L-42.52,-31.36L-25.14,-37.20L-6.46,-31.84ZM1.15,4.83L1.28,32.89L-12.23,44.84L-32.31,51.10L-46.77,47.43L-53.48,32.95L-45.00,17.85ZM68.38,-91.57L49.20,-91.48L49.93,61.97L66.98,61.89L66.91,46.97L79.17,61.32L98.35,66.50L134.25,49.65L146.55,6.49L133.84,-36.54L97.78,-53.05L80.63,-48.87L68.64,-37.22ZM97.17,50.21L75.95,39.34L65.86,6.90L74.81,-25.65L96.75,-36.74L118.24,-25.86L126.96,6.60L118.55,39.14ZM257.50,-49.85L238.32,-49.76L238.61,10.32L230.44,39.08L208.82,49.02L190.80,40.79L185.48,18.12L185.16,-49.50L165.98,-49.41L166.30,18.36L173.70,52.34L204.96,65.56L225.65,60.33L240.70,45.07L240.77,61.05L258.04,60.97ZM296.86,26.45L280.60,34.14L291.56,55.84L324.44,65.05L355.72,57.10L369.95,30.49L361.22,7.79L342.50,-1.72L316.64,-8.58L302.24,-14.26L297.49,-23.09L303.61,-34.05L321.67,-38.15L339.06,-33.50L346.60,-19.43L362.70,-27.12L353.22,-45.64L322.32,-54.53L291.79,-46.54L278.78,-20.84L287.40,-0.54L306.67,8.54L334.01,15.64L346.91,22.04L350.36,32.28L341.86,45.20L325.01,48.70L304.60,42.09Z" fill="#ffffff" stroke="#000000"/>
    <path d="M-547.83,-122.06L-489.28,-122.41L-447.05,-131.30L-431.25,-166.03L-439.84,-189.21L-463.51,-201.98L-444.14,-215.60L-438.81,-235.91L-454.31,-266.25L-493.23,-274.34L-548.74,-274.00ZM-528.13,-208.72L-528.45,-256.06L-497.66,-256.24L-471.24,-253.31L-459.89,-233.21L-470.60,-214.12L-494.79,-208.92ZM-527.72,-140.07L-527.99,-190.85L-492.49,-191.06L-465.29,-186.26L-452.99,-165.92L-463.24,-144.73L-489.39,-140.30ZM-385.59,-143.95L-396.83,-172.99L-315.42,-173.49L-314.41,-181.09L-327.21,-221.19L-365.36,-237.28L-402.47,-221.36L-416.19,-177.82L-401.95,-134.45L-364.65,-118.97L-333.37,-128.42L-319.08,-151.12L-333.92,-160.25L-345.30,-141.42L-363.67,-135.12ZM-396.29,-188.19L-384.53,-213.37L-365.28,-221.18L-343.70,-212.16L-334.92,-188.56ZM-294.45,-123.64L-275.34,-123.75L-275.70,-183.43L-267.63,-211.27L-246.25,-221.13L-228.41,-213.02L-223.14,-190.64L-222.75,-124.07L-203.82,-124.18L-204.14,-190.91L-211.54,-224.46L-242.49,-237.51L-262.70,-232.75L-275.93,-218.44L-276.28,-275.59L-295.37,-275.48ZM-163.14,-252.43L-156.33,-259.98L-156.37,-270.70L-163.41,-278.35L-173.16,-278.29L-179.93,-270.58L-179.87,-259.87L-172.89,-252.37ZM-157.79,-124.46L-158.45,-234.12L-177.43,-234.01L-176.77,-124.34ZM-130.90,-124.62L-111.92,-124.73L-112.28,-184.41L-104.22,-212.64L-82.82,-222.51L-64.99,-214.39L-59.71,-192.32L-59.30,-125.05L-40.32,-125.16L-40.73,-192.44L-48.11,-225.84L-79.06,-238.89L-99.53,-234.25L-114.38,-218.57L-114.47,-234.39L-131.56,-234.28ZM74.34,-277.70L55.36,-277.59L55.68,-224.00L43.72,-234.80L26.12,-239.08L-9.40,-222.36L-21.51,-179.64L-8.89,-137.07L26.83,-120.77L45.40,-126.00L58.29,-140.73L58.38,-125.75L75.25,-125.85ZM27.31,-222.97L49.12,-212.23L58.33,-180.12L48.70,-147.91L27.82,-136.92L6.53,-147.66L-2.14,-179.76L6.14,-211.97ZM207.86,-125.18L207.87,-125.18L205.58,-141.53L197.09,-140.20L187.92,-144.78L186.20,-158.58L185.82,-221.64L204.59,-221.75L204.50,-236.30L185.73,-236.19L185.50,-274.15L166.52,-274.03L166.75,-236.07L151.14,-235.98L151.23,-221.43L166.84,-221.52L167.22,-158.46L171.70,-132.01L193.37,-123.06ZM228.57,-126.77L247.69,-126.89L247.33,-186.57L255.39,-214.41L276.77,-224.27L294.61,-216.15L299.88,-193.78L300.27,-127.20L319.20,-127.32L318.89,-194.05L311.48,-227.60L280.54,-240.65L260.32,-235.89L247.09,-221.58L246.75,-278.73L227.66,-278.62ZM369.21,-148.48L357.97,-177.52L439.38,-178.02L440.38,-185.62L427.58,-225.72L389.44,-241.81L352.32,-225.89L338.60,-182.35L352.84,-138.98L390.15,-123.50L421.43,-132.95L435.71,-155.65L420.88,-164.78L409.49,-145.95L391.13,-139.65ZM358.51,-192.72L370.27,-217.90L389.52,-225.71L411.09,-216.69L419.88,-193.09ZM-394.12,17.09L-411.68,24.73L-395.50,58.32L-349.44,71.24L-310.73,59.85L-292.68,24.87L-303.41,-2.27L-331.01,-16.40L-374.66,-29.12L-385.40,-36.35L-389.04,-47.27L-378.11,-66.80L-355.01,-72.85L-328.87,-64.52L-318.46,-41.23L-300.68,-48.22L-314.91,-78.63L-356.01,-90.05L-392.26,-78.94L-408.87,-45.86L-403.25,-25.29L-376.85,-9.04L-332.56,3.16L-319.05,12.53L-314.68,26.08L-324.13,46.22L-350.44,54.04L-380.69,44.89ZM-260.56,93.81L-266.69,92.80L-269.98,108.23L-257.94,110.25L-237.28,101.08L-224.97,77.89L-182.06,-39.53L-198.34,-45.76L-229.65,41.53L-262.67,-45.37L-279.71,-38.94L-238.36,64.78L-242.63,76.72L-250.68,89.64ZM-144.95,65.28L-145.86,-86.56L-164.84,-86.45L-163.93,65.39ZM-98.55,65.00L-99.46,-86.84L-118.44,-86.73L-117.53,65.12ZM-4.64,-9.11L-66.37,10.23L-78.79,36.52L-67.35,61.36L-40.54,68.99L-20.93,65.06L-3.01,51.74L-3.02,64.43L14.70,64.32L14.30,-6.42L4.12,-38.56L-28.76,-49.41L-58.25,-42.02L-72.47,-20.54L-57.36,-11.37L-47.80,-28.10L-30.61,-33.90L-12.12,-28.61ZM-4.54,7.67L-4.38,35.43L-17.73,47.27L-37.60,53.49L-51.91,49.88L-58.57,35.56L-50.19,20.60ZM61.87,-87.81L42.89,-87.70L43.80,64.15L60.67,64.05L60.59,49.28L72.73,63.47L91.72,68.58L127.23,51.85L139.35,9.13L126.72,-33.44L91.01,-49.73L74.05,-45.58L62.19,-34.03ZM90.53,52.46L69.52,41.72L59.49,9.63L68.32,-22.59L90.02,-33.58L111.29,-22.84L119.96,9.27L111.68,41.47ZM249.08,-46.75L230.10,-46.64L230.46,12.81L222.40,41.28L201.02,51.15L183.18,43.03L177.89,20.60L177.49,-46.32L158.50,-46.21L158.91,20.85L166.27,54.47L197.22,67.51L217.69,62.31L232.56,47.20L232.66,63.01L249.74,62.91ZM288.12,28.71L272.04,36.34L282.90,57.80L315.45,66.87L346.40,58.97L360.45,32.61L351.78,10.16L333.25,0.78L307.64,-5.98L293.40,-11.59L288.68,-20.32L294.72,-31.17L312.59,-35.25L329.81,-30.67L337.28,-16.76L353.20,-24.38L343.81,-42.70L313.21,-51.46L283.01,-43.51L270.17,-18.07L278.72,2.01L297.80,10.97L324.87,17.96L337.64,24.28L341.07,34.41L332.67,47.20L316.00,50.69L295.80,44.18Z" fill="#ffffff" stroke="#000000"/>
    <path d="M-547.83,-117.26L-489.90,-117.68L-448.12,-126.52L-432.53,-160.91L-441.06,-183.84L-464.49,-196.44L-445.34,-209.94L-440.09,-230.04L-455.47,-260.05L-493.98,-268.00L-548.91,-267.61ZM-528.44,-203.03L-528.81,-249.87L-498.34,-250.09L-472.20,-247.22L-460.94,-227.35L-471.52,-208.44L-495.45,-203.27ZM-527.95,-135.11L-528.28,-185.35L-493.16,-185.60L-466.23,-180.88L-454.04,-160.77L-464.15,-139.79L-490.03,-135.38ZM-387.32,-139.12L-398.47,-167.83L-317.93,-168.43L-316.94,-175.95L-329.65,-215.61L-367.41,-231.49L-404.12,-215.69L-417.64,-172.59L-403.50,-129.70L-366.57,-114.43L-335.63,-123.81L-321.52,-146.29L-336.21,-155.31L-347.46,-136.66L-365.62,-130.41ZM-397.96,-182.88L-386.35,-207.80L-367.32,-215.55L-345.96,-206.66L-337.23,-183.32ZM-297.12,-119.12L-278.21,-119.26L-278.63,-178.31L-270.69,-205.86L-249.54,-215.65L-231.88,-207.64L-226.63,-185.51L-226.17,-119.63L-207.44,-119.77L-207.83,-185.80L-215.20,-218.99L-245.84,-231.87L-265.83,-227.12L-278.91,-212.95L-279.31,-269.51L-298.20,-269.37ZM-167.34,-246.72L-160.61,-254.20L-160.67,-264.81L-167.64,-272.36L-177.29,-272.29L-183.97,-264.66L-183.90,-254.06L-176.99,-246.65ZM-161.90,-120.10L-162.68,-228.61L-181.46,-228.47L-180.68,-119.96ZM-135.29,-120.29L-116.51,-120.42L-116.93,-179.48L-108.99,-207.42L-87.83,-217.21L-70.18,-209.20L-64.93,-187.37L-64.45,-120.80L-45.67,-120.93L-46.15,-187.50L-53.49,-220.54L-84.13,-233.42L-104.38,-228.80L-119.05,-213.27L-119.17,-228.92L-136.07,-228.80ZM67.60,-272.00L48.82,-271.87L49.21,-218.85L37.36,-229.52L19.94,-233.74L-15.18,-217.15L-27.12,-174.86L-14.58,-132.76L20.78,-116.67L39.15,-121.87L51.89,-136.45L51.99,-121.64L68.69,-121.76ZM21.13,-217.79L42.73,-207.19L51.88,-175.43L42.39,-143.55L21.75,-132.66L0.67,-143.25L-7.95,-175.00L0.21,-206.89ZM199.91,-121.25L199.91,-121.25L197.63,-137.42L189.23,-136.10L180.15,-140.62L178.43,-154.27L177.98,-216.66L196.55,-216.80L196.45,-231.19L177.88,-231.06L177.61,-268.62L158.82,-268.49L159.10,-230.93L143.65,-230.81L143.76,-216.42L159.20,-216.53L159.65,-154.13L164.12,-127.96L185.57,-119.14ZM220.39,-122.85L239.31,-122.99L238.88,-182.04L246.83,-209.59L267.97,-219.38L285.64,-211.37L290.88,-189.24L291.34,-123.36L310.07,-123.50L309.68,-189.52L302.31,-222.72L271.68,-235.59L251.68,-230.85L238.61,-216.68L238.20,-273.23L219.31,-273.10ZM359.53,-144.49L348.37,-173.21L428.92,-173.81L429.91,-181.33L417.20,-220.99L379.43,-236.87L342.73,-221.07L329.20,-177.97L343.35,-135.08L380.28,-119.81L411.21,-129.19L425.32,-151.66L410.63,-160.69L399.39,-142.04L381.23,-135.79ZM348.89,-188.26L360.50,-213.18L379.53,-220.93L400.89,-212.04L409.61,-188.70ZM-395.57,20.23L-412.93,27.82L-396.88,61.03L-351.30,73.76L-313.01,62.45L-295.19,27.82L-305.84,0.97L-333.16,-12.98L-376.37,-25.51L-387.01,-32.65L-390.62,-43.45L-379.83,-62.78L-356.97,-68.80L-331.11,-60.59L-320.77,-37.56L-303.19,-44.49L-317.31,-74.57L-357.98,-85.82L-393.85,-74.79L-410.24,-42.03L-404.66,-21.68L-378.51,-5.64L-334.68,6.39L-321.30,15.64L-316.96,29.04L-326.28,48.98L-352.31,56.75L-382.25,47.73ZM-263.33,96.00L-269.39,95.00L-272.63,110.27L-260.71,112.26L-240.28,103.16L-228.13,80.20L-185.81,-36.03L-201.93,-42.18L-232.81,44.23L-265.57,-41.72L-282.43,-35.34L-241.39,67.24L-245.61,79.06L-253.56,91.86ZM-148.97,67.63L-150.05,-82.62L-168.83,-82.48L-167.75,67.76ZM-103.06,67.30L-104.14,-82.95L-122.92,-82.81L-121.84,67.43ZM-10.22,-6.15L-71.28,13.06L-83.54,39.09L-72.19,63.65L-45.65,71.17L-26.25,67.26L-8.54,54.06L-8.53,66.62L9.00,66.49L8.52,-3.51L-1.59,-35.30L-34.14,-46.00L-63.30,-38.65L-77.35,-17.37L-62.39,-8.32L-52.95,-24.88L-35.95,-30.65L-17.64,-25.44ZM-10.10,10.45L-9.91,37.92L-23.11,49.65L-42.76,55.84L-56.93,52.27L-63.53,38.11L-55.26,23.31ZM55.50,-84.10L36.72,-83.96L37.80,66.28L54.49,66.16L54.39,51.55L66.42,65.58L85.22,70.61L120.33,54.02L132.27,11.73L119.72,-30.38L84.38,-46.46L67.60,-42.32L55.88,-30.89ZM84.02,54.66L63.22,44.06L53.26,12.32L61.96,-19.57L83.41,-30.48L104.47,-19.87L113.09,11.89L104.93,43.76ZM240.78,-43.70L222.00,-43.56L222.43,15.27L214.49,43.45L193.34,53.23L175.68,45.22L170.42,23.03L169.94,-43.19L151.16,-43.05L151.64,23.31L158.96,56.56L189.60,69.43L209.85,64.26L224.55,49.29L224.66,64.94L241.56,64.81ZM279.50,30.92L263.60,38.49L274.38,59.71L306.59,68.66L337.21,60.80L351.07,34.70L342.47,12.50L324.13,3.24L298.78,-3.42L284.67,-8.95L280.00,-17.59L285.96,-28.33L303.64,-32.39L320.68,-27.87L328.09,-14.12L343.84,-21.68L334.52,-39.79L304.24,-48.43L274.36,-40.53L261.68,-15.34L270.17,4.52L289.06,13.37L315.85,20.25L328.49,26.49L331.90,36.51L323.60,49.17L307.11,52.64L287.11,46.22Z" fill="#ffffff" stroke="#000000"/>
    <path d="M-547.70,-112.52L-490.38,-113.01L-449.05,-121.81L-433.67,-155.85L-442.14,-178.52L-465.34,-190.97L-446.41,-204.35L-441.24,-224.23L-456.49,-253.91L-494.60,-261.73L-548.95,-261.27ZM-528.62,-197.41L-529.04,-243.75L-498.89,-244.00L-473.03,-241.19L-461.86,-221.55L-472.31,-202.83L-495.98,-197.68ZM-528.05,-130.20L-528.43,-179.91L-493.69,-180.20L-467.04,-175.57L-454.95,-155.69L-464.94,-134.92L-490.53,-130.52ZM-388.92,-134.34L-399.99,-162.74L-320.30,-163.43L-319.33,-170.87L-331.96,-210.09L-369.33,-225.75L-405.63,-210.08L-418.96,-167.43L-404.92,-125.00L-368.36,-109.94L-337.76,-119.25L-323.83,-141.51L-338.38,-150.42L-349.48,-131.96L-367.44,-125.75ZM-399.50,-177.63L-388.04,-202.30L-369.22,-209.99L-348.08,-201.21L-339.42,-178.13ZM-299.66,-114.67L-280.94,-114.82L-281.43,-173.25L-273.61,-200.52L-252.70,-210.22L-235.21,-202.32L-230.00,-180.43L-229.46,-115.26L-210.93,-115.41L-211.40,-180.74L-218.73,-213.57L-249.05,-226.27L-268.83,-221.56L-281.75,-207.52L-282.22,-263.47L-300.91,-263.31ZM-171.41,-241.06L-164.76,-248.46L-164.83,-258.96L-171.74,-266.43L-181.28,-266.35L-187.89,-258.79L-187.80,-248.30L-180.96,-240.98ZM-165.88,-115.79L-166.78,-223.15L-185.36,-222.99L-184.46,-115.63ZM-139.55,-116.01L-120.97,-116.17L-121.46,-174.59L-113.63,-202.25L-92.71,-211.96L-75.24,-204.05L-70.02,-182.46L-69.46,-116.60L-50.88,-116.76L-51.44,-182.62L-58.74,-215.30L-89.06,-228.00L-109.09,-223.41L-123.60,-208.02L-123.73,-223.51L-140.45,-223.37ZM61.01,-266.35L42.42,-266.20L42.87,-213.74L31.14,-224.29L13.89,-228.44L-20.84,-211.98L-32.59,-170.13L-20.13,-128.49L14.86,-112.62L33.03,-117.78L45.61,-132.23L45.74,-117.57L62.25,-117.71ZM15.09,-212.66L36.48,-202.20L45.56,-170.79L36.21,-139.24L15.80,-128.43L-5.07,-138.89L-13.63,-170.29L-5.60,-201.85ZM192.08,-117.36L192.08,-117.36L189.81,-133.36L181.50,-132.04L172.51,-136.50L170.79,-150.00L170.27,-211.73L188.65,-211.89L188.53,-226.13L170.15,-225.98L169.84,-263.14L151.26,-262.98L151.57,-225.82L136.29,-225.69L136.41,-211.45L151.69,-211.58L152.21,-149.85L156.67,-123.96L177.90,-115.25ZM212.35,-118.97L231.06,-119.13L230.57,-177.55L238.39,-204.82L259.30,-214.53L276.79,-206.62L282.00,-184.73L282.54,-119.56L301.07,-119.71L300.60,-185.04L293.27,-217.87L262.95,-230.57L243.17,-225.86L230.25,-211.82L229.78,-267.77L211.10,-267.61ZM349.97,-140.55L338.90,-168.95L418.59,-169.63L419.56,-177.07L406.94,-216.30L369.56,-231.96L333.26,-216.29L319.93,-173.63L333.98,-131.21L370.53,-116.15L401.13,-125.46L415.06,-147.72L400.52,-156.63L389.42,-138.17L371.45,-131.96ZM339.40,-183.83L350.85,-208.51L369.67,-216.20L390.82,-207.42L399.47,-184.34ZM-396.90,23.33L-414.06,30.85L-398.14,63.69L-353.03,76.23L-315.16,65.00L-297.57,30.71L-308.14,4.16L-335.19,-9.61L-377.96,-21.95L-388.48,-29.01L-392.07,-39.68L-381.42,-58.83L-358.81,-64.81L-333.21,-56.71L-322.96,-33.94L-305.58,-40.82L-319.57,-70.56L-359.83,-81.64L-395.30,-70.69L-411.48,-38.26L-405.93,-18.14L-380.05,-2.30L-336.67,9.55L-323.42,18.69L-319.11,31.94L-328.31,51.68L-354.05,59.40L-383.68,50.51ZM-265.97,98.12L-271.97,97.14L-275.15,112.26L-263.36,114.21L-243.16,105.18L-231.16,82.46L-189.44,-32.59L-205.39,-38.65L-235.83,46.87L-268.35,-38.12L-285.02,-31.79L-244.30,69.65L-248.46,81.34L-256.31,94.02ZM-152.86,69.92L-154.11,-78.73L-172.69,-78.57L-171.44,70.08ZM-107.44,69.54L-108.69,-79.11L-127.27,-78.95L-126.02,69.70ZM-15.67,-3.24L-76.06,15.85L-88.16,41.61L-76.90,65.90L-50.64,73.31L-31.44,69.41L-13.94,56.34L-13.91,68.75L3.43,68.61L2.87,-0.65L-7.17,-32.08L-39.39,-42.63L-68.23,-35.33L-82.10,-14.26L-67.29,-5.33L-57.97,-21.72L-41.16,-27.44L-23.04,-22.31ZM-15.54,13.19L-15.32,40.37L-28.36,51.99L-47.79,58.13L-61.81,54.62L-68.36,40.62L-60.20,25.96ZM49.25,-80.43L30.67,-80.28L31.92,68.37L48.43,68.23L48.31,53.78L60.24,67.64L78.84,72.59L113.56,56.14L125.32,14.29L112.86,-27.36L77.87,-43.23L61.27,-39.12L49.69,-27.79ZM77.64,56.81L57.04,46.36L47.15,14.96L55.72,-16.60L76.93,-27.41L97.78,-16.95L106.34,14.46L98.31,46.01ZM232.61,-40.68L214.03,-40.52L214.52,17.68L206.71,45.57L185.79,55.27L168.31,47.36L163.08,25.42L162.53,-40.09L143.95,-39.94L144.50,25.72L151.78,58.61L182.11,71.30L202.14,66.16L216.66,51.33L216.79,66.81L233.51,66.67ZM271.01,33.10L255.28,40.61L265.97,61.59L297.85,70.40L328.14,62.59L341.82,36.75L333.29,14.79L315.12,5.65L290.04,-0.90L276.08,-6.36L271.45,-14.90L277.33,-25.53L294.81,-29.57L311.68,-25.12L319.03,-11.52L334.60,-19.03L325.35,-36.93L295.39,-45.44L265.84,-37.59L253.32,-12.66L261.74,6.99L280.45,15.72L306.96,22.49L319.48,28.65L322.85,38.56L314.66,51.10L298.35,54.55L278.56,48.22Z" fill="#ffffff" stroke="#000000"/>
    <path d="M-547.43,-107.85L-490.74,-108.40L-449.86,-117.15L-434.69,-150.85L-443.09,-173.26L-466.06,-185.55L-447.34,-198.81L-442.25,-218.49L-457.37,-247.82L-495.08,-255.51L-548.85,-255.00ZM-528.66,-191.85L-529.13,-237.69L-499.31,-237.97L-473.72,-235.23L-462.65,-215.81L-472.97,-197.27L-496.37,-192.16ZM-528.02,-125.36L-528.46,-174.54L-494.08,-174.87L-467.72,-170.31L-455.74,-150.66L-465.59,-130.10L-490.90,-125.72ZM-390.39,-129.62L-401.38,-157.70L-322.54,-158.48L-321.59,-165.84L-334.13,-204.63L-371.12,-220.08L-407.01,-204.52L-420.15,-162.32L-406.21,-120.37L-370.02,-105.51L-339.77,-114.76L-326.01,-136.79L-340.41,-145.59L-351.37,-127.31L-369.13,-121.15ZM-400.91,-172.43L-389.60,-196.85L-370.99,-204.48L-350.07,-195.82L-341.47,-173.00ZM-302.06,-110.26L-283.55,-110.44L-284.11,-168.24L-276.40,-195.22L-255.73,-204.85L-238.42,-197.05L-233.23,-175.41L-232.63,-110.93L-214.29,-111.11L-214.83,-175.73L-222.13,-208.20L-252.14,-220.73L-271.70,-216.04L-284.46,-202.14L-284.99,-257.49L-303.48,-257.31ZM-175.35,-235.45L-168.78,-242.78L-168.86,-253.17L-175.70,-260.55L-185.14,-260.46L-191.67,-252.97L-191.57,-242.59L-184.79,-235.36ZM-169.72,-111.54L-170.74,-217.74L-189.12,-217.56L-188.10,-111.36ZM-143.68,-111.79L-125.30,-111.96L-125.85,-169.76L-118.14,-197.12L-97.46,-206.75L-80.17,-198.95L-74.97,-177.60L-74.35,-112.45L-55.97,-112.63L-56.59,-177.78L-63.86,-210.10L-93.87,-222.63L-113.68,-218.06L-128.01,-202.83L-128.16,-218.14L-144.70,-217.99ZM54.54,-260.75L36.16,-260.57L36.66,-208.68L25.04,-219.10L7.98,-223.18L-26.36,-206.87L-37.94,-165.45L-25.56,-124.27L9.08,-108.61L27.05,-113.74L39.47,-128.05L39.61,-113.55L55.95,-113.70ZM9.19,-207.58L30.35,-197.26L39.38,-166.20L30.17,-134.97L9.99,-124.26L-10.67,-134.58L-19.18,-165.63L-11.27,-196.86ZM184.38,-113.51L184.39,-113.51L182.11,-129.34L173.89,-128.02L165.00,-132.42L163.28,-145.78L162.70,-206.84L180.87,-207.02L180.74,-221.11L162.56,-220.94L162.21,-257.70L143.83,-257.52L144.18,-220.76L129.07,-220.61L129.20,-206.52L144.32,-206.67L144.90,-145.60L149.34,-120.00L170.35,-111.41ZM204.43,-115.13L222.94,-115.31L222.38,-173.10L230.09,-200.09L250.76,-209.71L268.07,-201.92L273.26,-180.27L273.87,-115.80L292.20,-115.97L291.66,-180.59L284.37,-213.06L254.36,-225.59L234.80,-220.90L222.03,-207.01L221.50,-262.35L203.02,-262.17ZM340.55,-136.64L329.56,-164.72L408.40,-165.49L409.35,-172.86L396.81,-211.64L359.82,-227.09L323.93,-211.54L310.79,-169.33L324.74,-127.38L360.92,-112.52L391.17,-121.78L404.93,-143.81L390.53,-152.61L379.57,-134.33L361.81,-128.17ZM330.04,-179.45L341.34,-203.87L359.95,-211.50L380.87,-202.84L389.47,-180.02ZM-398.10,26.36L-415.07,33.82L-399.28,66.29L-354.64,78.65L-317.19,67.48L-299.83,33.55L-310.31,7.29L-337.09,-6.29L-379.41,-18.46L-389.83,-25.42L-393.40,-35.98L-382.88,-54.93L-360.53,-60.87L-335.19,-52.89L-325.02,-30.38L-307.83,-37.21L-321.72,-66.61L-361.55,-77.52L-396.63,-66.64L-412.60,-34.54L-407.08,-14.65L-381.45,0.99L-338.53,12.66L-325.41,21.69L-321.13,34.79L-330.21,54.33L-355.66,62.00L-384.99,53.24ZM-268.49,100.20L-274.42,99.23L-277.55,114.19L-265.89,116.11L-245.91,107.15L-234.07,84.66L-192.93,-29.20L-208.72,-35.18L-238.73,49.46L-271.01,-34.58L-287.49,-28.30L-247.08,72.00L-251.18,83.58L-258.93,96.12ZM-156.62,72.16L-158.04,-74.88L-176.42,-74.71L-175.00,72.34ZM-111.69,71.73L-113.10,-75.31L-131.49,-75.14L-130.07,71.91ZM-21.00,-0.37L-80.72,18.58L-92.66,44.08L-81.49,68.09L-55.50,75.39L-36.52,71.51L-19.21,58.56L-19.18,70.84L-2.02,70.68L-2.65,2.17L-12.62,-28.92L-44.51,-39.31L-73.03,-32.05L-86.73,-11.20L-72.07,-2.38L-62.87,-18.60L-46.24,-24.28L-28.31,-19.23ZM-20.85,15.88L-20.60,42.76L-33.49,54.28L-52.70,60.37L-66.58,56.92L-73.07,43.08L-65.01,28.56ZM43.13,-76.81L24.75,-76.64L26.16,70.41L42.50,70.25L42.36,55.95L54.18,69.65L72.59,74.53L106.91,58.21L118.50,16.80L106.12,-24.39L71.48,-40.04L55.08,-35.96L43.63,-24.74ZM71.38,58.92L50.99,48.60L41.17,17.56L49.61,-13.67L70.58,-24.40L91.22,-14.07L99.72,16.99L91.82,48.21ZM224.57,-37.71L206.19,-37.53L206.74,20.04L199.04,47.64L178.37,57.27L161.06,49.47L155.86,27.77L155.24,-37.04L136.86,-36.86L137.48,28.08L144.73,60.61L174.74,73.13L194.55,68.03L208.90,53.33L209.05,68.65L225.59,68.49ZM262.64,35.23L247.09,42.68L257.69,63.42L289.24,72.10L319.19,64.34L332.69,38.76L324.23,17.05L306.25,8.03L281.43,1.58L267.61,-3.81L263.02,-12.25L268.82,-22.78L286.11,-26.79L302.80,-22.41L310.09,-8.96L325.48,-16.40L316.32,-34.11L286.66,-42.49L257.44,-34.69L245.09,-10.01L253.44,9.41L271.96,18.03L298.19,24.70L310.58,30.78L313.93,40.58L305.85,52.99L289.71,56.43L270.13,50.19Z" fill="#ffffff" stroke="#000000"/>
    <path d="M-547.04,-103.24L-490.96,-103.85L-450.54,-112.56L-435.57,-145.90L-443.91,-168.06L-466.64,-180.19L-448.14,-193.32L-443.13,-212.80L-458.12,-241.79L-495.44,-249.36L-548.61,-248.78ZM-528.57,-186.34L-529.10,-231.69L-499.60,-232.01L-474.28,-229.32L-463.31,-210.12L-473.49,-191.78L-496.63,-186.69ZM-527.86,-120.59L-528.35,-169.22L-494.35,-169.59L-468.27,-165.12L-456.39,-145.69L-466.11,-125.34L-491.15,-120.98ZM-391.73,-124.96L-402.63,-152.72L-324.66,-153.58L-323.72,-160.86L-336.17,-199.22L-372.78,-214.45L-408.26,-199.03L-421.20,-157.26L-407.36,-115.79L-371.56,-101.13L-341.64,-110.32L-328.06,-132.13L-342.31,-140.81L-353.13,-122.72L-370.69,-116.60ZM-402.18,-167.29L-391.03,-191.46L-372.63,-199.03L-351.93,-190.49L-343.40,-167.92ZM-304.34,-105.92L-286.03,-106.12L-286.65,-163.28L-279.05,-189.98L-258.62,-199.53L-241.49,-191.84L-236.34,-170.43L-235.66,-106.66L-217.53,-106.86L-218.14,-170.77L-225.39,-202.88L-255.09,-215.24L-274.43,-210.58L-287.04,-196.82L-287.63,-251.56L-305.91,-251.36ZM-179.15,-229.89L-172.66,-237.15L-172.75,-247.43L-179.53,-254.72L-188.87,-254.62L-195.31,-247.20L-195.21,-236.94L-188.49,-229.79ZM-173.44,-107.33L-174.58,-212.38L-192.76,-212.18L-191.62,-107.14ZM-147.68,-107.61L-129.50,-107.81L-130.12,-164.98L-122.52,-192.05L-102.08,-201.60L-84.96,-193.91L-79.80,-172.79L-79.10,-108.35L-60.92,-108.55L-61.62,-172.99L-68.85,-204.95L-98.55,-217.31L-118.13,-212.77L-132.29,-197.68L-132.45,-212.83L-148.81,-212.66ZM48.21,-255.19L30.03,-254.99L30.58,-203.67L19.08,-213.96L2.20,-217.98L-31.75,-201.80L-43.15,-160.82L-30.86,-120.10L3.42,-104.66L21.19,-109.75L33.46,-123.91L33.62,-109.57L49.78,-109.74ZM3.41,-202.55L24.36,-192.36L33.32,-161.65L24.25,-130.75L4.30,-120.13L-16.15,-130.31L-24.60,-161.02L-16.81,-191.92ZM176.81,-109.71L176.82,-109.71L174.55,-125.36L166.42,-124.05L157.61,-128.39L155.91,-141.60L155.25,-202.00L173.23,-202.19L173.08,-216.13L155.10,-215.94L154.71,-252.30L136.53,-252.10L136.92,-215.74L121.97,-215.58L122.12,-201.64L137.07,-201.80L137.72,-141.40L142.15,-116.08L162.94,-107.62ZM196.64,-111.33L214.95,-111.53L214.33,-168.70L221.93,-195.39L242.36,-204.94L259.49,-197.25L264.64,-175.84L265.32,-112.07L283.45,-112.27L282.84,-176.19L275.59,-208.29L245.89,-220.65L226.55,-215.99L213.94,-202.23L213.35,-256.97L195.07,-256.78ZM331.26,-132.77L320.36,-160.53L398.33,-161.39L399.26,-168.67L386.82,-207.03L350.21,-222.26L314.73,-206.84L301.78,-165.07L315.62,-123.60L351.43,-108.94L381.35,-118.13L394.93,-139.94L380.68,-148.62L369.85,-130.53L352.29,-124.42ZM320.81,-175.10L331.96,-199.27L350.36,-206.84L371.06,-198.30L379.59,-175.73ZM-399.17,29.33L-415.95,36.74L-400.29,68.83L-356.12,81.00L-319.09,69.92L-301.96,36.33L-312.36,10.37L-338.86,-3.04L-380.74,-15.02L-391.06,-21.89L-394.59,-32.33L-384.21,-51.09L-362.11,-57.00L-337.04,-49.13L-326.96,-26.88L-309.96,-33.65L-323.73,-62.71L-363.15,-73.46L-397.83,-62.66L-413.58,-30.89L-408.10,-11.21L-382.74,4.22L-340.26,15.71L-327.28,24.63L-323.03,37.58L-331.99,56.92L-357.15,64.53L-386.17,55.91ZM-270.88,102.22L-276.75,101.27L-279.83,116.07L-268.29,117.95L-248.54,109.07L-236.85,86.80L-196.30,-25.87L-211.92,-31.76L-241.51,51.99L-273.53,-31.10L-289.83,-24.86L-249.74,74.30L-253.78,85.76L-261.44,98.17ZM-160.27,74.35L-161.84,-71.09L-180.02,-70.90L-178.45,74.55ZM-115.82,73.87L-117.39,-71.57L-135.58,-71.38L-134.00,74.07ZM-26.20,2.45L-85.25,21.26L-97.03,46.50L-85.95,70.24L-60.23,77.43L-41.47,73.57L-24.37,60.73L-24.31,72.88L-7.35,72.70L-8.05,4.94L-17.95,-25.80L-49.50,-36.04L-77.71,-28.83L-91.23,-8.18L-76.72,0.53L-67.63,-15.54L-51.20,-21.18L-33.46,-16.20ZM-26.03,18.52L-25.75,45.11L-38.49,56.51L-57.49,62.57L-71.22,59.17L-77.66,45.48L-69.70,31.12ZM37.14,-73.24L18.96,-73.05L20.53,72.40L36.69,72.23L36.54,58.09L48.24,71.62L66.45,76.42L100.39,60.24L111.80,19.26L99.51,-21.46L65.23,-36.90L49.00,-32.84L37.70,-21.73ZM65.24,60.99L45.06,50.80L35.31,20.11L43.62,-10.79L64.35,-21.43L84.78,-11.24L93.23,19.48L85.45,50.37ZM216.65,-34.77L198.47,-34.58L199.09,22.37L191.51,49.68L171.07,59.23L153.94,51.53L148.77,30.07L148.08,-34.03L129.90,-33.84L130.59,30.40L137.80,62.57L167.50,74.92L187.08,69.84L201.26,55.30L201.43,70.45L217.79,70.27ZM254.39,37.33L239.03,44.71L249.53,65.22L280.75,73.76L310.37,66.05L323.69,40.74L315.29,19.27L297.50,10.37L272.94,4.01L259.27,-1.29L254.71,-9.64L260.45,-20.06L277.54,-24.05L294.06,-19.74L301.28,-6.45L316.49,-13.82L307.41,-31.32L278.07,-39.58L249.17,-31.83L236.99,-7.40L245.27,11.80L263.59,20.30L289.55,26.87L301.81,32.86L305.14,42.55L297.16,54.84L281.20,58.26L261.82,52.11Z" fill="#ffffff" stroke="#000000"/>
    <path d="M-546.52,-98.69L-491.06,-99.36L-451.09,-108.02L-436.33,-141.02L-444.60,-162.93L-467.09,-174.89L-448.82,-187.90L-443.88,-207.17L-458.74,-235.83L-495.66,-243.26L-548.25,-242.63ZM-528.35,-180.90L-528.92,-225.75L-499.75,-226.10L-474.71,-223.47L-463.84,-204.50L-473.88,-186.34L-496.76,-181.28ZM-527.57,-115.87L-528.11,-163.97L-494.49,-164.38L-468.69,-159.98L-456.92,-140.79L-466.51,-120.65L-491.26,-116.31ZM-392.94,-120.36L-403.75,-147.80L-326.64,-148.74L-325.73,-155.95L-338.08,-193.86L-374.31,-208.89L-409.38,-193.59L-422.13,-152.27L-408.39,-111.27L-372.96,-96.81L-343.38,-105.94L-329.98,-127.52L-344.08,-136.09L-354.76,-118.19L-372.13,-112.12ZM-403.33,-162.21L-392.33,-186.12L-374.14,-193.63L-353.65,-185.21L-345.19,-162.91ZM-306.49,-101.63L-288.38,-101.85L-289.06,-158.39L-281.58,-184.80L-261.38,-194.27L-244.43,-186.68L-239.31,-165.51L-238.56,-102.44L-220.63,-102.66L-221.31,-165.87L-228.52,-197.62L-257.91,-209.81L-277.03,-205.18L-289.48,-191.55L-290.13,-245.69L-308.22,-245.47ZM-182.82,-224.39L-176.41,-231.58L-176.52,-241.74L-183.23,-248.94L-192.46,-248.83L-198.83,-241.49L-198.71,-231.34L-192.06,-224.28ZM-177.03,-103.18L-178.28,-207.07L-196.26,-206.86L-195.01,-102.97ZM-151.55,-103.49L-133.57,-103.70L-134.25,-160.24L-126.77,-187.03L-106.56,-196.50L-89.62,-188.91L-84.49,-168.03L-83.73,-104.30L-65.75,-104.52L-66.51,-168.25L-73.70,-199.85L-103.09,-212.04L-122.46,-207.53L-136.44,-192.59L-136.62,-207.57L-152.80,-207.38ZM42.01,-249.68L24.03,-249.46L24.64,-198.70L13.25,-208.86L-3.45,-212.82L-37.00,-196.78L-48.23,-156.24L-36.03,-115.98L-2.11,-100.75L15.46,-105.80L27.58,-119.83L27.75,-105.64L43.73,-105.83ZM-2.24,-197.56L18.49,-187.51L27.39,-157.15L18.46,-126.58L-1.26,-116.05L-21.49,-126.10L-29.88,-156.46L-22.22,-187.02ZM169.37,-105.95L169.38,-105.95L167.12,-121.42L159.08,-120.12L150.36,-124.40L148.66,-137.46L147.94,-197.20L165.72,-197.41L165.55,-211.20L147.77,-210.98L147.34,-246.95L129.36,-246.73L129.79,-210.77L115.01,-210.59L115.17,-196.81L129.96,-196.98L130.68,-137.25L135.08,-112.21L155.65,-103.86ZM188.98,-107.58L207.09,-107.79L206.41,-164.33L213.89,-190.75L234.09,-200.21L251.04,-192.63L256.16,-171.46L256.91,-108.39L274.84,-108.61L274.16,-171.82L266.95,-203.57L237.56,-215.75L218.44,-211.12L205.99,-197.50L205.34,-251.64L187.25,-251.42ZM322.09,-128.94L311.28,-156.38L388.40,-157.33L389.31,-164.53L376.95,-202.45L340.73,-217.47L305.65,-202.18L292.90,-160.85L306.64,-119.85L342.07,-105.40L371.65,-114.52L385.05,-136.11L370.95,-144.68L360.27,-126.77L342.91,-120.70ZM311.70,-170.79L322.70,-194.71L340.89,-202.21L361.38,-193.80L369.84,-171.49ZM-400.11,32.25L-416.70,39.59L-401.18,71.32L-357.47,83.30L-320.87,72.29L-303.96,39.05L-314.28,13.39L-340.51,0.16L-381.94,-11.63L-392.15,-18.42L-395.66,-28.74L-385.42,-47.31L-363.56,-53.18L-338.76,-45.43L-328.76,-23.43L-311.96,-30.15L-325.61,-58.88L-364.61,-69.46L-398.90,-58.73L-414.44,-27.29L-409.00,-7.84L-383.89,7.40L-341.87,18.71L-329.02,27.51L-324.80,40.32L-333.64,59.45L-358.52,67.01L-387.23,58.51ZM-273.15,104.18L-278.95,103.25L-281.99,117.89L-270.57,119.73L-251.05,110.93L-239.52,88.90L-199.54,-22.59L-215.00,-28.40L-244.16,54.47L-275.93,-27.66L-292.04,-21.48L-252.28,76.55L-256.26,87.88L-263.81,100.17ZM-163.78,76.49L-165.51,-67.35L-183.49,-67.14L-181.76,76.71ZM-119.83,75.96L-121.56,-67.88L-139.54,-67.67L-137.81,76.18ZM-31.28,5.22L-89.65,23.89L-101.27,48.87L-90.29,72.33L-64.85,79.41L-46.29,75.57L-29.39,62.86L-29.33,74.88L-12.55,74.68L-13.32,7.66L-23.15,-22.73L-54.37,-32.82L-82.25,-25.66L-95.61,-5.22L-81.24,3.37L-72.28,-12.52L-56.03,-18.12L-38.48,-13.21ZM-31.09,21.11L-30.78,47.41L-43.36,58.70L-62.15,64.72L-75.73,61.37L-82.12,47.84L-74.27,33.63ZM31.28,-69.72L13.30,-69.50L15.03,74.35L31.01,74.15L30.84,60.17L42.43,73.54L60.45,78.27L93.99,62.22L105.23,21.68L93.02,-18.58L59.10,-33.81L43.06,-29.77L31.89,-18.77ZM59.23,63.00L39.26,52.96L29.58,22.61L37.76,-7.96L58.25,-18.50L78.47,-8.45L86.86,21.92L79.20,52.48ZM208.86,-31.89L190.88,-31.67L191.56,24.65L184.09,51.67L163.89,61.14L146.94,53.54L141.80,32.33L141.04,-31.07L123.06,-30.86L123.82,32.68L130.99,64.48L160.38,76.66L179.74,71.62L193.75,57.21L193.93,72.20L210.11,72.00ZM246.28,39.38L231.08,46.70L241.50,66.97L272.39,75.38L301.67,67.72L314.82,42.67L306.48,21.45L288.88,12.67L264.58,6.41L251.05,1.18L246.53,-7.07L252.19,-17.38L269.10,-21.35L285.43,-17.10L292.59,-3.97L307.63,-11.28L298.63,-28.58L269.60,-36.71L241.03,-29.01L229.01,-4.84L237.22,14.14L255.35,22.53L281.03,28.99L293.17,34.91L296.47,44.49L288.59,56.65L272.81,60.05L253.64,53.99Z" fill="#ffffff" stroke="#000000"/>
    <path d="M-906.35,492L-906.35,469.28L-898.22,492L-894.99,492L-886.86,469.28L-886.86,492L-883.25,492L-883.25,464.64L-888.22,464.64L-896.55,487.33L-904.68,464.64L-909.96,464.64L-909.96,492ZM-865.67,478.75L-876.82,482.17L-879.09,486.89L-877.05,491.38L-872.23,492.78L-868.69,492.09L-865.45,489.71L-865.46,492L-862.27,492L-862.27,479.25L-864.06,473.45L-869.98,471.46L-875.30,472.76L-877.88,476.62L-875.17,478.28L-873.43,475.28L-870.33,474.25L-867.00,475.23ZM-865.67,481.77L-865.68,486.77L-868.09,488.89L-871.68,489.99L-874.26,489.33L-875.44,486.74L-873.91,484.05ZM-857.12,492L-853.70,492L-853.70,481.25L-852.22,476.17L-848.35,474.41L-845.15,475.90L-844.22,479.88L-844.22,492L-840.80,492L-840.80,479.88L-842.09,473.85L-847.66,471.47L-851.35,472.28L-854.04,475.09L-854.04,472.24L-857.12,472.24ZM-833.34,468.94L-832.11,467.58L-832.10,465.65L-833.36,464.27L-835.12,464.27L-836.35,465.65L-836.35,467.58L-835.10,468.94ZM-832.52,492L-832.52,472.24L-835.94,472.24L-835.94,492ZM-818.31,468.12L-817.85,465.29L-820.94,464.71L-825.30,466.41L-826.70,471.29L-826.70,472.24L-829.67,472.24L-829.67,474.86L-826.70,474.86L-826.70,492L-823.40,492L-823.40,474.86L-819.56,474.86L-819.56,472.24L-823.40,472.24L-823.40,471.21L-822.75,468.65L-820.52,467.74ZM-807.97,471.46L-814.77,474.29L-817.39,482.12L-814.77,489.95L-807.97,492.78L-801.17,489.95L-798.55,482.12L-801.16,474.29ZM-807.97,489.87L-812.08,488.06L-813.90,482.12L-812.08,476.18L-807.97,474.37L-803.85,476.18L-802.04,482.12L-803.85,488.06ZM-795.03,492L-791.61,492L-791.61,481.25L-790.13,476.17L-786.26,474.41L-783.06,475.90L-782.13,479.88L-782.13,492L-778.71,492L-778.71,479.88L-780.00,473.85L-785.56,471.47L-789.26,472.28L-791.95,475.09L-791.95,472.24L-795.03,472.24ZM-765.45,492.27L-765.45,492.26L-765.85,489.32L-767.38,489.55L-769.03,488.71L-769.32,486.22L-769.32,474.86L-765.94,474.86L-765.94,472.24L-769.32,472.24L-769.32,465.40L-772.74,465.40L-772.74,472.24L-775.55,472.24L-775.55,474.86L-772.74,474.86L-772.74,486.22L-771.96,491.00L-768.07,492.63ZM-737.50,487.93L-737.50,478.13L-749.05,478.13L-749.05,481.31L-740.99,481.31L-740.97,486.22L-748.63,489.75L-755.95,486.41L-758.55,478.32L-756.06,470.17L-749.21,466.88L-744.27,468.25L-741.30,473.01L-738.24,471.11L-741.44,465.93L-749.13,463.79L-758.98,468.04L-762.42,478.32L-758.78,488.60L-748.74,492.86ZM-724.35,474.77L-721.78,475.62L-720.76,472.73L-724.11,471.47L-727.37,472.48L-729.65,475.66L-729.65,472.24L-732.73,472.24L-732.73,491.81L-729.31,492L-729.31,481.32L-728.06,476.56ZM-710.01,471.46L-716.81,474.29L-719.42,482.12L-716.81,489.95L-710.01,492.78L-703.20,489.95L-700.58,482.12L-703.20,474.29ZM-710.01,489.87L-714.12,488.06L-715.93,482.12L-714.12,476.18L-710.01,474.37L-705.89,476.18L-704.07,482.12L-705.89,488.06ZM-688.58,492.27L-688.58,492.26L-688.97,489.32L-690.51,489.55L-692.15,488.71L-692.45,486.22L-692.45,474.86L-689.07,474.86L-689.07,472.24L-692.45,472.24L-692.45,465.40L-695.87,465.40L-695.87,472.24L-698.68,472.24L-698.68,474.86L-695.87,474.86L-695.87,486.22L-695.09,491.00L-691.19,492.63ZM-680.57,488.24L-682.57,483.00L-667.90,482.99L-667.71,481.63L-669.97,474.39L-676.83,471.45L-683.53,474.28L-686.05,482.11L-683.53,489.93L-676.83,492.76L-671.18,491.10L-668.58,487.02L-671.25,485.36L-673.32,488.74L-676.63,489.86ZM-682.45,480.26L-680.31,475.73L-676.83,474.35L-672.95,476.00L-671.40,480.26ZM-661.99,485.88L-664.90,487.24L-662.96,491.11L-657.11,492.78L-651.52,491.39L-648.97,486.66L-650.50,482.61L-653.83,480.90L-658.44,479.65L-661.00,478.62L-661.84,477.05L-660.74,475.10L-657.52,474.38L-654.42,475.23L-653.09,477.74L-650.21,476.38L-651.88,473.07L-657.39,471.46L-662.84,472.86L-665.18,477.43L-663.66,481.06L-660.23,482.69L-655.36,483.98L-653.07,485.13L-652.46,486.96L-653.99,489.26L-656.99,489.87L-660.63,488.67ZM-641.92,483.45L-638.72,483.45L-637.20,484.67L-633.14,492.30L-630.05,490.63L-634.16,483.45L-636.67,482.04L-634.62,480.06L-632.77,476.14L-631.66,475.64L-630.10,475.39L-630.56,472.24L-633.40,472.52L-635.30,474.17L-637.43,478.82L-638.72,480.60L-641.91,480.60L-641.91,464.64L-643.66,464.64L-645.32,464.64L-645.33,492L-641.92,492ZM-625.58,492.01L-615.04,492.01L-607.42,490.45L-604.53,484.21L-606.06,480.03L-610.31,477.70L-606.80,475.27L-605.82,471.62L-608.58,466.13L-615.58,464.63L-625.58,464.63ZM-621.94,476.42L-621.95,467.89L-616.40,467.89L-611.64,468.44L-609.62,472.08L-611.57,475.51L-615.93,476.42ZM-621.94,488.79L-621.94,479.64L-615.54,479.64L-610.64,480.53L-608.45,484.21L-610.32,488.02L-615.04,488.79ZM-592.40,471.46L-599.20,474.29L-601.81,482.12L-599.20,489.95L-592.40,492.78L-585.59,489.95L-582.97,482.12L-585.59,474.29ZM-592.40,489.87L-596.51,488.06L-598.32,482.12L-596.51,476.18L-592.40,474.37L-588.28,476.18L-586.46,482.12L-588.28,488.06ZM-571.27,471.46L-578.07,474.29L-580.68,482.12L-578.07,489.95L-571.27,492.78L-564.46,489.95L-561.85,482.12L-564.46,474.29ZM-571.27,489.87L-575.38,488.06L-577.19,482.12L-575.38,476.18L-571.27,474.37L-567.15,476.18L-565.33,482.12L-567.15,488.06ZM-554.82,483.45L-551.62,483.45L-550.10,484.67L-546.04,492.30L-542.96,490.63L-547.06,483.45L-549.57,482.04L-547.52,480.06L-545.67,476.14L-544.56,475.64L-543.00,475.39L-543.46,472.24L-546.31,472.52L-548.20,474.17L-550.34,478.82L-551.62,480.60L-554.82,480.60L-554.82,464.64L-556.56,464.64L-558.23,464.64L-558.23,492L-554.82,492Z"/>
</svg>