<?xml version="1.0"?>
<svg xmlns="http://www.w3.org/2000/svg" width="1920" height="1080" viewBox="-960 -540 1920 1080">
    <path d="M-439.56,-280.20L-448.44,-333.48L-466.20,-324.60L-510.60,-333.48L-537.24,-315.72L-546.12,-289.08L-537.24,-253.56L-519.48,-218.04L-501.72,-191.40L-501.72,-173.64L-510.60,-164.76L-528.36,-155.88L-555,-155.88L-581.64,-200.28L-590.52,-200.28L-581.64,-138.12L-563.88,-147L-519.48,-138.12L-483.96,-155.88L-475.08,-191.40L-483.96,-226.92L-501.72,-262.44L-519.48,-289.08L-510.60,-306.84L-501.72,-315.72L-475.08,-315.72L-448.44,-280.20ZM-359.64,-289.08L-350.76,-289.08L-341.88,-306.84L-341.88,-315.72L-359.64,-324.60L-368.52,-324.60L-377.40,-306.84L-377.40,-297.96ZM-457.32,-218.04L-448.44,-209.16L-404.04,-253.56L-395.16,-253.56L-448.44,-164.76L-448.44,-155.88L-439.56,-147L-421.80,-147L-404.04,-155.88L-359.64,-200.28L-368.52,-209.16L-412.92,-164.76L-421.80,-164.76L-368.52,-253.56L-368.52,-262.44L-386.28,-271.32L-412.92,-262.44ZM-270.84,-147L-261.96,-147L-244.20,-155.88L-199.80,-200.28L-208.68,-209.16L-253.08,-164.76L-261.96,-164.76L-182.04,-333.48L-244.20,-333.48L-244.20,-324.60L-217.56,-324.60L-244.20,-244.68L-253.08,-262.44L-288.60,-271.32L-333,-235.80L-350.76,-191.40L-341.88,-155.88L-324.12,-147L-306.36,-147L-279.72,-173.64L-279.72,-155.88ZM-306.36,-164.76L-315.24,-164.76L-324.12,-191.40L-306.36,-226.92L-279.72,-253.56L-261.96,-253.56L-253.08,-235.80L-253.08,-226.92L-279.72,-191.40ZM-75.48,-226.92L-75.48,-244.68L-84.36,-262.44L-119.88,-271.32L-164.28,-244.68L-190.92,-191.40L-182.04,-155.88L-164.28,-147L-146.52,-147L-128.76,-155.88L-93.24,-191.40L-102.12,-200.28L-137.64,-164.76L-155.40,-164.76L-164.28,-191.40L-146.52,-226.92L-119.88,-253.56L-102.12,-253.56L-102.12,-226.92L-119.88,-218.04L-146.52,-218.04L-146.52,-209.16L-102.12,-209.16ZM-75.48,-218.04L-66.60,-209.16L-22.20,-253.56L-13.32,-253.56L-66.60,-155.88L-57.72,-147L-39.96,-147L-4.44,-218.04L22.20,-244.68L39.96,-253.56L48.84,-244.68L4.44,-164.76L4.44,-155.88L13.32,-147L31.08,-147L48.84,-155.88L93.24,-200.28L84.36,-209.16L39.96,-164.76L31.08,-164.76L75.48,-235.80L75.48,-262.44L48.84,-271.32L22.20,-262.44L-4.44,-235.80L4.44,-253.56L4.44,-262.44L-4.44,-271.32L-31.08,-262.44ZM137.64,-147L155.40,-147L199.80,-173.64L226.44,-226.92L208.68,-262.44L173.16,-271.32L128.76,-244.68L102.12,-191.40L119.88,-155.88ZM173.16,-253.56L190.92,-253.56L199.80,-226.92L182.04,-191.40L155.40,-164.76L137.64,-164.76L128.76,-191.40L146.52,-226.92ZM261.96,-164.76L306.36,-253.56L333,-253.56L333,-262.44L306.36,-262.44L324.12,-297.96L306.36,-297.96L297.48,-271.32L279.72,-262.44L261.96,-262.44L261.96,-253.56L279.72,-253.56L235.32,-164.76L235.32,-155.88L244.20,-147L261.96,-147L279.72,-155.88L324.12,-200.28L315.24,-209.16L270.84,-164.76ZM457.32,-226.92L457.32,-244.68L448.44,-262.44L412.92,-271.32L368.52,-244.68L341.88,-191.40L350.76,-155.88L368.52,-147L386.28,-147L404.04,-155.88L439.56,-191.40L430.68,-200.28L395.16,-164.76L377.40,-164.76L368.52,-191.40L386.28,-226.92L412.92,-253.56L430.68,-253.56L430.68,-226.92L412.92,-218.04L386.28,-218.04L386.28,-209.16L430.68,-209.16ZM501.72,-226.92L510.60,-226.92L519.48,-244.68L519.48,-253.56L501.72,-262.44L492.84,-262.44L483.96,-244.68L483.96,-235.80ZM475.08,-147L483.96,-147L492.84,-164.76L492.84,-173.64L475.08,-182.52L466.20,-182.52L457.32,-164.76L457.32,-155.88ZM-714.84,23.50L-714.84,-3.14L-697.08,-56.42L-652.68,-91.94L-634.92,-91.94L-617.16,-74.18L-617.16,-47.54L-599.40,-47.54L-581.64,-65.30L-590.52,-83.06L-634.92,-100.82L-661.56,-100.82L-697.08,-83.06L-723.72,-56.42L-741.48,-29.78L-750.36,14.62L-732.60,59.02L-697.08,76.78L-661.56,76.78L-634.92,59.02L-608.28,32.38L-617.16,23.50L-643.80,50.14L-670.44,67.90L-688.20,67.90L-705.96,59.02ZM-572.76,59.02L-492.84,-109.70L-555.00,-109.70L-555.00,-100.82L-528.36,-100.82L-599.40,59.02L-599.40,67.90L-581.64,76.78L-555.00,67.90L-510.60,23.50L-519.48,14.62L-563.88,59.02ZM-412.92,-65.30L-404.04,-65.30L-395.16,-83.06L-395.16,-91.94L-412.92,-100.82L-421.80,-100.82L-430.68,-83.06L-430.68,-74.18ZM-510.60,5.74L-501.72,14.62L-457.32,-29.78L-448.44,-29.78L-501.72,59.02L-501.72,67.90L-492.84,76.78L-475.08,76.78L-457.32,67.90L-412.92,23.50L-421.80,14.62L-466.20,59.02L-475.08,59.02L-421.80,-29.78L-421.80,-38.66L-439.56,-47.54L-466.20,-38.66ZM-270.84,-3.14L-253.08,-20.90L-235.32,-29.78L-226.44,-20.90L-270.84,59.02L-270.84,67.90L-261.96,76.78L-244.20,76.78L-226.44,67.90L-182.04,23.50L-190.92,14.62L-235.32,59.02L-244.20,59.02L-199.80,-12.02L-199.80,-38.66L-226.44,-47.54L-253.08,-38.66L-270.84,-20.90L-270.84,-38.66L-288.60,-47.54L-315.24,-38.66L-341.88,-12.02L-333.00,-29.78L-333.00,-38.66L-341.88,-47.54L-368.52,-38.66L-412.92,5.74L-404.04,14.62L-359.64,-29.78L-350.76,-29.78L-404.04,67.90L-395.16,76.78L-377.40,76.78L-341.88,5.74L-315.24,-20.90L-297.48,-29.78L-288.60,-20.90L-333.00,67.90L-324.12,76.78L-306.36,76.78ZM-39.96,-38.66L-48.84,-47.54L-66.60,-20.90L-75.48,-38.66L-111.00,-47.54L-155.40,-12.02L-173.16,32.38L-164.28,67.90L-146.52,76.78L-128.76,76.78L-102.12,50.14L-102.12,67.90L-93.24,76.78L-66.60,67.90L-22.20,23.50L-31.08,14.62L-75.48,59.02L-84.36,59.02ZM-128.76,59.02L-137.64,59.02L-146.52,32.38L-128.76,-3.14L-102.12,-29.78L-84.36,-29.78L-75.48,-12.02L-75.48,-3.14L-102.12,32.38ZM4.44,59.02L48.84,-29.78L75.48,-29.78L75.48,-38.66L48.84,-38.66L66.60,-74.18L48.84,-74.18L39.96,-47.54L22.20,-38.66L4.44,-38.66L4.44,-29.78L22.20,-29.78L-22.20,59.02L-22.20,67.90L-13.32,76.78L4.44,76.78L22.20,67.90L66.60,23.50L57.72,14.62L13.32,59.02ZM199.80,-3.14L199.80,-20.90L190.92,-38.66L155.40,-47.54L111.00,-20.90L84.36,32.38L93.24,67.90L111.00,76.78L128.76,76.78L146.52,67.90L182.04,32.38L173.16,23.50L137.64,59.02L119.88,59.02L111.00,32.38L128.76,-3.14L155.40,-29.78L173.16,-29.78L173.16,-3.14L155.40,5.74L128.76,5.74L128.76,14.62L173.16,14.62ZM244.20,-100.82L261.96,-83.06L217.56,59.02L199.80,76.78L288.60,76.78L333.00,59.02L359.64,23.50L350.76,-12.02L324.12,-20.90L341.88,-29.78L368.52,-56.42L359.64,-91.94L315.24,-100.82ZM244.20,59.02L288.60,-83.06L297.48,-91.94L315.24,-91.94L333.00,-83.06L333.00,-56.42L315.24,-29.78L288.60,-20.90L270.84,-20.90L270.84,-12.02L297.48,-12.02L315.24,-3.14L324.12,23.50L306.36,50.14L270.84,67.90L253.08,67.90ZM510.60,-38.66L501.72,-47.54L483.96,-20.90L475.08,-38.66L439.56,-47.54L395.16,-12.02L377.40,32.38L386.28,67.90L404.04,76.78L421.80,76.78L448.44,50.14L448.44,67.90L457.32,76.78L483.96,67.90L528.36,23.50L519.48,14.62L475.08,59.02L466.20,59.02ZM421.80,59.02L412.92,59.02L404.04,32.38L421.80,-3.14L448.44,-29.78L466.20,-29.78L475.08,-12.02L475.08,-3.14L448.44,32.38ZM546.12,67.90L546.12,41.26L537.24,32.38L519.48,41.26L519.48,67.90L537.24,76.78L555.00,76.78L581.64,67.90L599.40,50.14L599.40,32.38L590.52,-12.02L590.52,-29.78L608.28,-38.66L608.28,-12.02L617.16,-3.14L634.92,-12.02L634.92,-38.66L608.28,-47.54L572.76,-38.66L563.88,-20.90L563.88,-3.14L572.76,32.38L572.76,50.14L555.00,67.90ZM759.24,-3.14L759.24,-20.90L750.36,-38.66L714.84,-47.54L670.44,-20.90L643.80,32.38L652.68,67.90L670.44,76.78L688.20,76.78L705.96,67.90L741.48,32.38L732.60,23.50L697.08,59.02L679.32,59.02L670.44,32.38L688.20,-3.14L714.84,-29.78L732.60,-29.78L732.60,-3.14L714.84,5.74L688.20,5.74L688.20,14.62L732.60,14.62Z" fill="#ffffff" stroke="#000000"/>
    <path d="M-449.02,-261.28L-459.36,-313.75L-476.68,-304.44L-520.87,-311.93L-546.72,-293.58L-554.72,-266.95L-544.90,-232.06L-526.29,-197.43L-507.93,-171.59L-507.41,-154.02L-515.94,-144.97L-533.26,-135.66L-559.62,-134.88L-587.28,-178.04L-596.06,-177.78L-585.46,-116.53L-568.15,-125.84L-523.95,-118.35L-489.32,-136.96L-481.57,-172.37L-491.40,-207.26L-510.01,-241.89L-528.36,-267.73L-520.09,-285.57L-511.57,-294.61L-485.20,-295.39L-457.80,-261.02ZM-370.19,-272.41L-361.40,-272.67L-353.13,-290.50L-353.39,-299.29L-371.23,-307.56L-380.02,-307.30L-388.28,-289.46L-388.02,-280.67ZM-464.77,-199.25L-455.73,-190.72L-413.09,-235.96L-404.30,-236.22L-454.43,-146.79L-454.17,-138.00L-445.12,-129.47L-427.55,-129.99L-410.23,-139.30L-367.59,-184.53L-376.64,-193.06L-419.28,-147.83L-428.07,-147.57L-377.94,-237.00L-378.20,-245.78L-396.03,-254.05L-422.13,-244.49ZM-278.16,-134.40L-269.37,-134.66L-252.06,-143.97L-209.42,-189.21L-218.47,-197.73L-261.11,-152.50L-269.89,-152.24L-195.74,-321.53L-257.25,-319.72L-256.99,-310.93L-230.63,-311.71L-254.66,-231.84L-263.96,-249.16L-299.37,-256.91L-342.27,-220.46L-358.55,-176.00L-348.72,-141.11L-330.89,-132.85L-313.31,-133.37L-287.73,-160.51L-287.21,-142.93ZM-313.83,-150.94L-322.62,-150.68L-332.18,-176.78L-315.65,-212.45L-290.06,-239.59L-272.49,-240.11L-263.18,-222.80L-262.92,-214.01L-288.25,-178.08ZM-87.18,-219.20L-87.70,-236.78L-97.00,-254.09L-132.41,-261.84L-175.57,-234.18L-200.37,-180.68L-190.55,-145.79L-172.71,-137.52L-155.14,-138.04L-137.82,-147.35L-103.71,-183.53L-112.76,-192.06L-146.87,-155.87L-164.45,-155.35L-174.01,-181.46L-157.48,-217.13L-131.89,-244.27L-114.32,-244.79L-113.54,-218.42L-130.85,-209.12L-157.22,-208.34L-156.96,-199.55L-113.02,-200.85ZM-86.92,-210.41L-77.87,-201.89L-35.23,-247.12L-26.44,-247.38L-76.31,-149.16L-67.27,-140.63L-49.69,-141.15L-16.62,-212.49L8.97,-239.63L26.28,-248.94L35.33,-240.41L-6.27,-160.03L-6.01,-151.24L3.03,-142.71L20.61,-143.23L37.92,-152.54L80.56,-197.77L71.52,-206.30L28.88,-161.07L20.09,-160.81L61.95,-232.40L61.17,-258.76L34.55,-266.77L8.45,-257.21L-17.14,-230.07L-8.87,-247.90L-9.13,-256.69L-18.18,-265.22L-44.28,-255.65ZM126.06,-146.35L143.63,-146.87L186.79,-174.53L211.59,-228.03L192.98,-262.66L157.57,-270.41L114.41,-242.75L89.61,-189.24L108.22,-154.61ZM158.09,-252.83L175.67,-253.35L185.23,-227.25L168.70,-191.58L143.11,-164.44L125.54,-163.92L115.97,-190.02L132.51,-225.69ZM248.56,-167.56L289.90,-256.73L316.26,-257.51L316.00,-266.29L289.64,-265.51L306.18,-301.18L288.60,-300.66L280.59,-274.04L263.28,-264.74L245.70,-264.22L245.96,-255.43L263.54,-255.95L222.20,-166.78L222.46,-157.99L231.51,-149.46L249.08,-149.98L266.40,-159.29L309.03,-204.52L299.99,-213.05L257.35,-167.82ZM440.07,-234.78L439.55,-252.35L430.24,-269.67L394.83,-277.42L351.67,-249.76L326.87,-196.25L336.69,-161.36L354.53,-153.10L372.10,-153.62L389.42,-162.92L423.53,-199.11L414.48,-207.64L380.37,-171.45L362.80,-170.93L353.23,-197.03L369.77,-232.70L395.35,-259.84L412.92,-260.36L413.70,-234.00L396.39,-224.69L370.03,-223.91L370.29,-215.13L414.22,-216.43ZM484.00,-236.08L492.79,-236.34L501.06,-254.17L500.80,-262.96L482.96,-271.23L474.18,-270.97L465.91,-253.13L466.17,-244.35ZM459.98,-156.21L468.76,-156.47L477.03,-174.31L476.77,-183.09L458.94,-191.36L450.15,-191.10L441.88,-173.27L442.14,-164.48ZM-712.55,47.29L-713.32,20.93L-697.31,-32.31L-654.41,-68.76L-636.83,-69.28L-618.74,-52.22L-617.96,-25.86L-600.39,-26.38L-583.33,-44.47L-592.64,-61.79L-637.09,-78.07L-663.46,-77.29L-698.09,-58.67L-723.67,-31.53L-740.47,-4.65L-747.95,39.55L-729.08,82.96L-693.41,99.50L-658.26,98.46L-632.42,80.11L-606.84,52.97L-615.88,44.44L-641.47,71.58L-667.31,89.93L-684.89,90.45L-702.72,82.18ZM-570.91,78.29L-496.76,-91.01L-558.27,-89.19L-558.01,-80.40L-531.65,-81.18L-597.27,79.07L-597.01,87.86L-579.18,96.12L-553.08,86.56L-510.44,41.32L-519.48,32.80L-562.12,78.03ZM-416.37,-49.41L-407.58,-49.67L-399.32,-67.50L-399.58,-76.29L-417.41,-84.56L-426.20,-84.30L-434.47,-66.46L-434.21,-57.67ZM-510.96,23.75L-501.91,32.28L-459.27,-12.96L-450.48,-13.22L-500.61,76.21L-500.35,85.00L-491.30,93.53L-473.73,93.01L-456.41,83.70L-413.78,38.47L-422.82,29.94L-465.46,75.17L-474.25,75.43L-424.12,-14.00L-424.38,-22.78L-442.21,-31.05L-468.32,-21.49ZM-273.96,7.95L-256.90,-10.14L-239.59,-19.45L-230.54,-10.92L-272.14,69.46L-271.88,78.25L-262.83,86.78L-245.26,86.26L-227.94,76.95L-185.30,31.72L-194.35,23.19L-236.99,68.42L-245.78,68.68L-203.92,-2.91L-204.70,-29.28L-231.32,-37.28L-257.42,-27.72L-274.48,-9.62L-274.99,-27.20L-292.83,-35.47L-318.93,-25.90L-344.51,1.24L-336.25,-16.59L-336.51,-25.38L-345.55,-33.91L-371.66,-24.34L-414.29,20.89L-405.25,29.42L-362.61,-15.81L-353.82,-16.07L-403.69,82.14L-394.64,90.67L-377.07,90.15L-344.00,18.82L-318.41,-8.33L-301.10,-17.63L-292.05,-9.10L-333.39,80.07L-324.34,88.60L-306.77,88.08ZM-46.52,-33.95L-55.57,-42.48L-72.37,-15.59L-81.67,-32.91L-117.08,-40.66L-159.98,-4.21L-176.26,40.24L-166.43,75.13L-148.60,83.40L-131.02,82.88L-105.44,55.74L-104.92,73.32L-95.87,81.85L-69.77,72.28L-27.13,27.04L-36.18,18.52L-78.82,63.75L-87.60,64.01ZM-131.54,65.31L-140.33,65.57L-149.89,39.47L-133.36,3.80L-107.78,-23.34L-90.20,-23.86L-80.89,-6.55L-80.63,2.24L-105.96,38.17ZM0.27,61.41L41.61,-27.76L67.97,-28.54L67.71,-37.32L41.35,-36.54L57.89,-72.21L40.31,-71.69L32.30,-45.07L14.99,-35.77L-2.59,-35.25L-2.33,-26.46L15.25,-26.98L-26.09,62.19L-25.83,70.98L-16.79,79.51L0.79,78.99L18.10,69.68L60.74,24.45L51.70,15.92L9.06,61.16ZM191.77,-5.81L191.25,-23.38L181.95,-40.70L146.54,-48.45L103.38,-20.79L78.58,32.72L88.40,67.61L106.24,75.87L123.81,75.35L141.13,66.05L175.24,29.86L166.19,21.33L132.08,57.52L114.51,58.04L104.94,31.94L121.48,-3.73L147.06,-30.87L164.63,-31.39L165.41,-5.03L148.10,4.28L121.73,5.06L121.99,13.84L165.93,12.55ZM232.86,-103.77L250.95,-86.71L211.17,55.18L194.11,73.28L281.98,70.68L325.40,51.81L350.73,15.88L340.90,-19.01L314.28,-27.02L331.59,-36.32L357.18,-63.47L347.35,-98.36L303.15,-105.84ZM237.53,54.41L277.31,-87.49L285.84,-96.54L303.41,-97.06L321.25,-88.79L322.03,-62.43L305.23,-35.55L279.13,-25.98L261.55,-25.46L261.81,-16.67L288.18,-17.45L306.01,-9.18L315.58,16.92L298.78,43.80L264.15,62.41L246.58,62.93ZM498.29,-50.04L489.25,-58.57L472.45,-31.69L463.14,-49.01L427.74,-56.75L384.84,-20.31L368.56,24.15L378.39,59.04L396.22,67.31L413.79,66.79L439.38,39.65L439.90,57.22L448.94,65.75L475.05,56.18L517.69,10.95L508.64,2.42L466.00,47.66L457.21,47.91ZM413.28,49.21L404.49,49.47L394.92,23.37L411.46,-12.30L437.04,-39.44L454.62,-39.96L463.92,-22.64L464.18,-13.86L438.86,22.07ZM536.56,54.37L535.78,28.00L526.73,19.48L509.42,28.78L510.20,55.14L528.03,63.41L545.61,62.89L571.71,53.33L588.76,35.23L588.24,17.66L578.16,-26.02L577.64,-43.59L594.95,-52.90L595.73,-26.54L604.78,-18.01L622.10,-27.32L621.32,-53.68L594.69,-61.69L559.81,-51.86L551.54,-34.03L552.06,-16.45L561.88,18.44L562.40,36.01L545.35,54.11ZM745.38,-22.16L744.86,-39.74L735.55,-57.05L700.14,-64.80L656.99,-37.14L632.18,16.36L642.01,51.25L659.84,59.52L677.42,59.00L694.73,49.69L728.84,13.50L719.79,4.98L685.68,41.16L668.11,41.68L658.54,15.58L675.08,-20.09L700.66,-47.23L718.24,-47.75L719.02,-21.39L701.70,-12.08L675.34,-11.30L675.60,-2.51L719.54,-3.81Z" fill="#ffffff" stroke="#000000"/>
    <path d="M-457.62,-242.12L-469.39,-293.73L-486.25,-284.02L-530.20,-290.14L-555.24,-271.22L-562.38,-244.64L-551.64,-210.41L-532.21,-176.69L-513.29,-151.65L-512.27,-134.28L-520.44,-125.08L-537.30,-115.36L-563.36,-113.82L-591.99,-155.72L-600.68,-155.20L-588.40,-94.91L-571.54,-104.62L-527.59,-98.50L-493.86,-117.93L-487.23,-153.19L-497.97,-187.43L-517.40,-221.15L-536.32,-246.19L-528.66,-264.07L-520.49,-273.27L-494.42,-274.82L-466.31,-241.61ZM-379.95,-255.43L-371.26,-255.95L-363.60,-273.83L-364.12,-282.52L-382.00,-290.18L-390.69,-289.67L-398.35,-271.78L-397.84,-263.09ZM-471.40,-180.28L-462.20,-172.11L-421.33,-218.12L-412.64,-218.63L-459.63,-128.67L-459.12,-119.99L-449.91,-111.81L-432.54,-112.84L-415.68,-122.56L-374.81,-168.56L-384.01,-176.73L-424.88,-130.73L-433.57,-130.22L-386.58,-220.17L-387.10,-228.86L-404.98,-236.52L-430.53,-226.29ZM-284.86,-121.58L-276.17,-122.09L-259.31,-131.80L-218.44,-177.81L-227.64,-185.98L-268.51,-139.98L-277.20,-139.46L-208.77,-309.14L-269.58,-305.55L-269.07,-296.86L-243.01,-298.40L-264.45,-218.68L-274.16,-235.54L-309.42,-242.17L-350.81,-204.85L-365.61,-160.39L-354.87,-126.15L-336.98,-118.49L-319.61,-119.52L-295.09,-147.12L-294.06,-129.75ZM-320.63,-136.89L-329.32,-136.38L-339.55,-161.93L-324.23,-197.71L-299.71,-225.31L-282.34,-226.34L-272.62,-209.47L-272.11,-200.79L-296.11,-164.50ZM-98.36,-211.06L-99.39,-228.44L-109.10,-245.30L-144.37,-251.93L-186.26,-223.30L-209.24,-169.63L-198.50,-135.40L-180.61,-127.74L-163.24,-128.77L-146.38,-138.48L-113.68,-175.29L-122.88,-183.46L-155.58,-146.66L-172.95,-145.63L-183.18,-171.18L-167.86,-206.95L-143.34,-234.56L-125.97,-235.58L-124.42,-209.52L-141.28,-199.81L-167.35,-198.27L-166.83,-189.58L-123.40,-192.15ZM-97.85,-202.38L-88.65,-194.20L-47.78,-240.21L-39.09,-240.72L-85.57,-142.08L-76.36,-133.91L-58.99,-134.93L-28.35,-206.49L-3.83,-234.09L13.03,-243.80L22.23,-235.63L-16.58,-154.88L-16.07,-146.19L-6.87,-138.02L10.51,-139.04L27.37,-148.76L68.24,-194.76L59.04,-202.94L18.17,-156.93L9.48,-156.42L48.81,-228.48L47.27,-254.55L20.69,-261.69L-4.86,-251.46L-29.38,-223.86L-21.72,-241.75L-22.23,-250.44L-31.43,-258.61L-56.98,-248.38ZM114.75,-145.21L132.13,-146.24L174.02,-174.87L197.00,-228.53L177.57,-262.25L142.31,-268.88L100.42,-240.25L77.44,-186.59L96.87,-152.87ZM143.34,-251.51L160.71,-252.54L170.94,-226.99L155.62,-191.21L131.10,-163.61L113.73,-162.58L103.50,-188.13L118.82,-223.91ZM235.35,-169.78L273.65,-259.22L299.71,-260.76L299.19,-269.44L273.13,-267.90L288.45,-303.68L271.08,-302.65L263.93,-276.08L247.07,-266.36L229.70,-265.33L230.21,-256.65L247.59,-257.67L209.29,-168.23L209.80,-159.55L219.00,-151.37L236.38,-152.40L253.24,-162.12L294.10,-208.12L284.90,-216.29L244.04,-170.29ZM422.87,-241.89L421.84,-259.26L412.13,-276.12L376.87,-282.76L334.97,-254.13L311.99,-200.46L322.73,-166.23L340.62,-158.57L358.00,-159.59L374.86,-169.31L407.55,-206.11L398.35,-214.29L365.66,-177.48L348.28,-176.45L338.05,-202.00L353.37,-237.78L377.89,-265.38L395.27,-266.41L396.81,-240.35L379.95,-230.63L353.89,-229.09L354.40,-220.40L397.84,-222.97ZM466.31,-244.46L474.99,-244.97L482.65,-262.86L482.14,-271.55L464.25,-279.21L455.56,-278.69L447.91,-260.80L448.42,-252.12ZM444.87,-164.73L453.56,-165.24L461.22,-183.13L460.70,-191.82L442.81,-199.48L434.13,-198.97L426.47,-181.08L426.98,-172.39ZM-709.35,70.91L-710.90,44.85L-696.60,-8.30L-655.22,-45.62L-637.85,-46.65L-619.45,-30.30L-617.90,-4.24L-600.53,-5.27L-584.18,-23.67L-593.90,-40.53L-638.36,-55.34L-664.42,-53.80L-698.14,-34.37L-722.67,-6.76L-738.50,20.33L-744.62,64.28L-724.67,106.68L-688.90,122.00L-654.15,119.95L-629.11,101.03L-604.59,73.43L-613.79,65.26L-638.32,92.86L-663.35,111.77L-680.72,112.80L-698.61,105.14ZM-568.30,97.44L-499.88,-72.24L-560.69,-68.65L-560.18,-59.96L-534.12,-61.50L-594.37,98.98L-593.85,107.66L-575.96,115.32L-550.42,105.10L-509.55,59.09L-518.75,50.92L-559.62,96.92ZM-419.13,-33.43L-410.44,-33.95L-402.78,-51.83L-403.29,-60.52L-421.18,-68.18L-429.87,-67.67L-437.53,-49.78L-437.01,-41.09ZM-510.58,41.72L-501.37,49.89L-460.51,3.89L-451.82,3.37L-498.81,93.33L-498.29,102.01L-489.09,110.19L-471.72,109.16L-454.86,99.44L-413.99,53.44L-423.19,45.27L-464.06,91.27L-472.74,91.78L-425.76,1.83L-426.27,-6.86L-444.16,-14.52L-469.71,-4.29ZM-276.53,19.16L-260.19,0.76L-243.33,-8.96L-234.13,-0.79L-272.94,79.97L-272.42,88.66L-263.22,96.83L-245.85,95.80L-228.99,86.09L-188.12,40.08L-197.32,31.91L-238.19,77.91L-246.88,78.43L-207.55,6.36L-209.09,-19.70L-235.67,-26.85L-261.22,-16.62L-277.56,1.78L-278.59,-15.59L-296.48,-23.25L-322.03,-13.02L-346.55,14.58L-338.89,-3.31L-339.40,-11.99L-348.60,-20.17L-374.15,-9.94L-415.02,36.07L-405.82,44.24L-364.95,-1.77L-356.26,-2.28L-402.73,96.36L-393.53,104.54L-376.16,103.51L-345.52,31.96L-321.00,4.35L-304.14,-5.36L-294.94,2.81L-333.23,92.25L-324.03,100.43L-306.66,99.40ZM-52.72,-28.95L-61.92,-37.12L-77.76,-10.03L-87.47,-26.89L-122.73,-33.53L-164.11,3.79L-178.92,48.26L-168.18,82.49L-150.29,90.15L-132.92,89.12L-108.39,61.52L-107.37,78.89L-98.17,87.07L-72.62,76.84L-31.75,30.83L-40.95,22.66L-81.82,68.67L-90.51,69.18ZM-133.94,71.75L-142.63,72.26L-152.86,46.71L-137.54,10.94L-113.02,-16.67L-95.64,-17.69L-85.93,-0.83L-85.42,7.86L-109.42,44.15ZM-3.63,64.04L34.66,-25.40L60.73,-26.94L60.21,-35.63L34.15,-34.09L49.47,-69.86L32.10,-68.84L24.95,-42.26L8.09,-32.55L-9.29,-31.52L-8.77,-22.83L8.60,-23.86L-29.70,65.58L-29.18,74.27L-19.98,82.44L-2.61,81.42L14.25,71.70L55.12,25.70L45.92,17.52L5.05,63.53ZM183.89,-8.07L182.86,-25.45L173.15,-42.31L137.88,-48.94L95.99,-20.31L73.01,33.36L83.75,67.59L101.64,75.25L119.01,74.22L135.88,64.51L168.57,27.71L159.37,19.53L126.67,56.34L109.30,57.36L99.07,31.82L114.39,-3.96L138.91,-31.56L156.29,-32.59L157.83,-6.53L140.97,3.18L114.90,4.73L115.42,13.41L158.85,10.84ZM221.67,-106.20L240.08,-89.85L204.86,51.71L188.51,70.11L275.38,64.98L317.79,45.03L341.80,8.74L331.06,-25.49L304.48,-32.64L321.34,-42.35L345.86,-69.96L335.12,-104.19L291.17,-110.31ZM230.92,50.17L266.14,-91.39L274.31,-100.59L291.68,-101.62L309.57,-93.96L311.11,-67.90L295.28,-40.81L269.73,-30.58L252.36,-29.56L252.87,-20.87L278.93,-22.41L296.82,-14.75L307.05,10.80L291.22,37.89L257.50,57.32L240.12,58.34ZM485.89,-60.80L476.68,-68.98L460.85,-41.89L451.14,-58.75L415.87,-65.38L374.49,-28.06L359.69,16.40L370.43,50.64L388.32,58.30L405.69,57.27L430.21,29.67L431.24,47.04L440.44,55.21L465.99,44.99L506.86,-1.02L497.66,-9.19L456.79,36.81L448.10,37.33ZM404.67,39.90L395.98,40.41L385.75,14.86L401.07,-20.92L425.59,-48.52L442.96,-49.55L452.68,-32.69L453.19,-24.00L429.19,12.29ZM526.80,41.39L525.26,15.33L516.06,7.15L499.20,16.87L500.74,42.93L518.63,50.59L536.00,49.56L561.55,39.33L577.90,20.93L576.87,3.56L565.61,-39.36L564.58,-56.74L581.45,-66.45L582.99,-40.39L592.19,-32.22L609.05,-41.93L607.51,-67.99L580.93,-75.14L546.70,-64.40L539.04,-46.51L540.06,-29.14L550.81,5.10L551.83,22.47L535.49,40.88ZM731.18,-40.44L730.16,-57.81L720.44,-74.67L685.18,-81.31L643.28,-52.68L620.30,0.99L631.05,35.22L648.93,42.88L666.31,41.86L683.17,32.14L715.86,-4.66L706.66,-12.84L673.97,23.97L656.59,25.00L646.37,-0.55L661.69,-36.33L686.21,-63.93L703.58,-64.96L705.12,-38.90L688.26,-29.18L662.20,-27.64L662.71,-18.95L706.15,-21.52Z" fill="#ffffff" stroke="#000000"/>
    <path d="M-465.37,-222.76L-478.52,-273.47L-494.92,-263.37L-538.58,-268.14L-562.80,-248.69L-569.09,-222.19L-557.46,-188.63L-537.25,-155.84L-517.81,-131.62L-516.28,-114.46L-524.10,-105.12L-540.50,-95.02L-566.24,-92.73L-595.79,-133.34L-604.37,-132.58L-590.45,-73.28L-574.05,-83.39L-530.39,-78.62L-497.60,-98.83L-492.07,-133.91L-503.70,-167.47L-523.90,-200.26L-543.35,-224.48L-536.30,-242.40L-528.48,-251.74L-502.74,-254.03L-473.95,-221.99ZM-388.91,-238.20L-380.33,-238.96L-373.28,-256.88L-374.04,-265.46L-391.96,-272.52L-400.54,-271.75L-407.60,-253.83L-406.84,-245.25ZM-477.19,-161.17L-467.85,-153.36L-428.76,-200.07L-420.19,-200.83L-464.04,-110.46L-463.28,-101.88L-453.94,-94.06L-436.78,-95.58L-420.38,-105.69L-381.29,-152.40L-390.63,-160.22L-429.72,-113.51L-438.30,-112.74L-394.45,-203.12L-395.21,-211.70L-413.13,-218.75L-438.11,-207.88ZM-290.92,-108.54L-282.34,-109.30L-265.94,-119.41L-226.86,-166.12L-236.20,-173.94L-275.29,-127.23L-283.87,-126.46L-221.13,-296.34L-281.19,-291.00L-280.43,-282.42L-254.69,-284.71L-273.57,-205.21L-283.67,-221.60L-318.75,-227.13L-358.60,-189.00L-371.95,-144.58L-360.32,-111.02L-342.40,-103.97L-325.24,-105.49L-301.79,-133.52L-300.26,-116.36ZM-326.76,-122.65L-335.34,-121.89L-346.21,-146.87L-332.10,-182.71L-308.65,-210.74L-291.49,-212.26L-281.38,-195.86L-280.62,-187.28L-303.31,-150.68ZM-109.03,-202.53L-110.55,-219.69L-120.65,-236.09L-155.74,-241.62L-196.35,-212.07L-217.51,-158.30L-205.89,-124.74L-187.96,-117.69L-170.80,-119.21L-154.41,-129.32L-123.14,-166.69L-132.48,-174.50L-163.75,-137.14L-180.91,-135.61L-191.77,-160.59L-177.66,-196.43L-154.21,-224.46L-137.05,-225.98L-134.76,-200.24L-151.16,-190.14L-176.90,-187.85L-176.14,-179.27L-133.24,-183.08ZM-108.26,-193.95L-98.92,-186.13L-59.83,-232.84L-51.25,-233.60L-94.35,-134.65L-85.01,-126.84L-67.85,-128.36L-39.62,-200.05L-16.17,-228.07L0.23,-238.18L9.57,-230.36L-26.47,-149.33L-25.71,-140.75L-16.37,-132.93L0.79,-134.46L17.19,-144.56L56.28,-191.27L46.94,-199.09L7.85,-152.38L-0.73,-151.62L36.07,-224.07L33.78,-249.81L7.28,-256.10L-17.70,-245.23L-41.15,-217.21L-34.09,-235.13L-34.86,-243.71L-44.20,-251.53L-69.18,-240.66ZM103.75,-143.60L120.91,-145.13L161.52,-174.68L182.69,-228.44L162.48,-261.24L127.40,-266.77L86.79,-237.22L65.62,-183.45L85.83,-150.66ZM128.92,-249.61L146.08,-251.14L156.95,-226.16L142.84,-190.31L119.39,-162.29L102.23,-160.76L91.36,-185.74L105.47,-221.58ZM222.34,-171.43L257.62,-261.04L283.36,-263.33L282.60,-271.91L256.86,-269.62L270.97,-305.47L253.81,-303.94L247.52,-277.44L231.12,-267.34L213.96,-265.81L214.72,-257.23L231.88,-258.76L196.60,-169.15L197.37,-160.57L206.71,-152.75L223.87,-154.28L240.26,-164.38L279.35,-211.09L270.01,-218.91L230.92,-172.20ZM405.76,-248.26L404.24,-265.42L394.13,-281.82L359.05,-287.35L318.44,-257.80L297.27,-204.03L308.90,-170.48L326.83,-163.42L343.98,-164.95L360.38,-175.05L391.65,-212.42L382.31,-220.24L351.04,-182.87L333.88,-181.34L323.01,-206.32L337.12,-242.16L360.58,-270.19L377.74,-271.72L380.02,-245.98L363.63,-235.87L337.89,-233.58L338.65,-225.01L381.55,-228.82ZM448.66,-252.07L457.24,-252.84L464.30,-270.76L463.54,-279.34L445.61,-286.39L437.03,-285.63L429.98,-267.71L430.74,-259.13ZM429.78,-172.57L438.36,-173.33L445.42,-191.25L444.66,-199.83L426.73,-206.89L418.15,-206.13L411.10,-188.20L411.86,-179.62ZM-705.28,94.30L-707.56,68.56L-694.98,15.56L-655.13,-22.57L-637.97,-24.10L-619.28,-8.46L-617.00,17.28L-599.84,15.75L-584.20,-2.93L-594.31,-19.33L-638.73,-32.68L-664.47,-30.39L-697.26,-10.18L-720.72,17.85L-735.59,45.11L-740.36,88.77L-719.39,130.14L-683.54,144.26L-649.22,141.21L-625.01,121.76L-601.56,93.73L-610.90,85.92L-634.35,113.94L-658.57,133.39L-675.73,134.91L-693.65,127.86ZM-564.95,116.42L-502.21,-53.45L-562.27,-48.12L-561.51,-39.54L-535.77,-41.82L-590.69,118.71L-589.93,127.29L-572.01,134.35L-547.03,123.48L-507.94,76.77L-517.28,68.95L-556.37,115.66ZM-421.19,-17.41L-412.61,-18.17L-405.55,-36.10L-406.31,-44.68L-424.23,-51.73L-432.81,-50.97L-439.87,-33.05L-439.11,-24.47ZM-509.47,59.61L-500.12,67.43L-461.04,20.72L-452.46,19.96L-496.31,110.33L-495.55,118.91L-486.21,126.72L-469.05,125.20L-452.65,115.10L-413.56,68.39L-422.91,60.57L-461.99,107.28L-470.57,108.04L-426.72,17.67L-427.48,9.09L-445.40,2.03L-470.38,12.90ZM-278.57,30.45L-262.94,11.77L-246.54,1.66L-237.20,9.48L-273.24,90.51L-272.48,99.09L-263.13,106.91L-245.97,105.38L-229.58,95.28L-190.49,48.57L-199.83,40.75L-238.92,87.46L-247.50,88.22L-210.70,15.77L-212.98,-9.97L-239.49,-16.26L-264.46,-5.39L-280.10,13.29L-281.62,-3.87L-299.54,-10.92L-324.52,-0.06L-347.97,27.97L-340.92,10.05L-341.68,1.47L-351.02,-6.35L-376.00,4.52L-415.09,51.23L-405.75,59.04L-366.66,12.33L-358.08,11.57L-401.17,110.52L-391.83,118.34L-374.67,116.82L-346.45,45.13L-323.00,17.10L-306.60,7.00L-297.26,14.82L-332.53,104.42L-323.19,112.24L-306.03,110.72ZM-58.55,-23.69L-67.89,-31.50L-82.76,-4.24L-92.87,-20.64L-127.95,-26.17L-167.80,11.96L-181.15,56.39L-169.52,89.94L-151.60,97.00L-134.44,95.47L-110.98,67.45L-109.46,84.61L-100.12,92.42L-75.14,81.56L-36.05,34.85L-45.39,27.03L-84.48,73.74L-93.06,74.50ZM-135.96,78.31L-144.54,79.08L-155.41,54.10L-141.30,18.26L-117.84,-9.77L-100.68,-11.30L-90.58,5.10L-89.82,13.68L-112.51,50.29ZM-7.26,66.88L28.01,-22.73L53.75,-25.02L52.99,-33.60L27.25,-31.31L41.36,-67.15L24.20,-65.63L17.91,-39.13L1.51,-29.02L-15.65,-27.50L-14.89,-18.92L2.27,-20.44L-33.00,69.17L-32.24,77.75L-22.90,85.56L-5.74,84.04L10.66,73.94L49.75,27.23L40.40,19.41L1.32,66.12ZM176.16,-9.95L174.63,-27.11L164.53,-43.50L129.45,-49.03L88.83,-19.48L67.67,34.28L79.30,67.84L97.22,74.89L114.38,73.37L130.78,63.26L162.05,25.90L152.70,18.08L121.43,55.45L104.27,56.97L93.41,31.99L107.52,-3.85L130.97,-31.88L148.13,-33.40L150.42,-7.66L134.02,2.44L108.28,4.73L109.04,13.31L151.94,9.50ZM210.67,-108.14L229.36,-92.50L198.65,48.59L183.02,67.27L268.82,59.65L310.19,38.68L332.88,2.07L321.25,-31.48L294.75,-37.78L311.15,-47.88L334.60,-75.91L322.97,-109.46L279.31,-114.23ZM224.39,46.30L255.10,-94.79L262.91,-104.13L280.07,-105.65L297.99,-98.60L300.28,-72.86L285.41,-45.60L260.43,-34.73L243.27,-33.20L244.03,-24.62L269.77,-26.91L287.69,-19.86L298.56,5.12L283.69,32.39L250.89,52.59L233.73,54.12ZM473.40,-70.94L464.06,-78.76L449.19,-51.50L439.08,-67.90L404.00,-73.43L364.15,-35.30L350.80,9.13L362.43,42.68L380.35,49.74L397.51,48.22L420.96,20.19L422.49,37.35L431.83,45.17L456.81,34.30L495.90,-12.41L486.55,-20.23L447.47,26.48L438.89,27.25ZM395.99,31.06L387.41,31.82L376.54,6.84L390.65,-29.00L414.10,-57.03L431.26,-58.55L441.37,-42.16L442.13,-33.58L419.44,3.03ZM516.87,28.96L514.58,3.23L505.24,-4.59L488.84,5.51L491.13,31.25L509.05,38.31L526.21,36.78L551.19,25.92L566.82,7.23L565.30,-9.93L552.91,-52.06L551.38,-69.22L567.78,-79.33L570.07,-53.59L579.41,-45.77L595.81,-55.88L593.52,-81.61L567.02,-87.91L533.46,-76.28L526.40,-58.36L527.93,-41.20L539.56,-7.64L541.08,9.52L525.45,28.20ZM716.68,-57.97L715.16,-75.13L705.06,-91.52L669.97,-97.05L629.36,-67.50L608.20,-13.74L619.82,19.82L637.75,26.87L654.91,25.35L671.30,15.24L702.57,-22.12L693.23,-29.94L661.96,7.43L644.80,8.95L633.94,-16.03L648.05,-51.87L671.50,-79.90L688.66,-81.42L690.95,-55.68L674.55,-45.58L648.81,-43.29L649.57,-34.71L692.47,-38.52Z" fill="#ffffff" stroke="#000000"/>
    <path d="M-472.26,-203.22L-486.76,-253.01L-502.68,-242.54L-546.01,-245.98L-569.40,-226.03L-574.85,-199.63L-562.37,-166.78L-541.42,-134.92L-521.47,-111.54L-519.46,-94.61L-526.92,-85.14L-542.85,-74.66L-568.25,-71.65L-598.67,-110.96L-607.13,-109.95L-591.63,-51.70L-575.71,-62.18L-532.37,-58.74L-500.52,-79.69L-496.08,-114.55L-508.56,-147.41L-529.51,-179.26L-549.46,-202.65L-543.00,-220.58L-535.54,-230.05L-510.14,-233.07L-480.73,-202.22ZM-397.08,-220.73L-388.61,-221.74L-382.16,-239.67L-383.16,-248.14L-401.10,-254.59L-409.56,-253.59L-416.02,-235.65L-415.02,-227.19ZM-482.16,-141.96L-472.69,-134.50L-435.39,-181.85L-426.92,-182.85L-467.67,-92.17L-466.66,-83.70L-457.19,-76.24L-440.26,-78.25L-424.33,-88.73L-387.03,-136.08L-396.50,-143.54L-433.80,-96.19L-442.27,-95.18L-401.53,-185.87L-402.53,-194.33L-420.47,-200.79L-444.86,-189.31ZM-296.35,-95.33L-287.88,-96.34L-271.96,-106.81L-234.65,-154.17L-244.12,-161.63L-281.43,-114.28L-289.89,-113.27L-232.80,-283.16L-292.05,-276.12L-291.05,-267.66L-265.65,-270.67L-282.01,-191.47L-292.48,-207.39L-327.35,-211.84L-365.65,-172.95L-377.56,-128.62L-365.08,-95.76L-347.14,-89.31L-330.21,-91.32L-307.83,-119.73L-305.82,-102.80ZM-332.22,-108.25L-340.69,-107.24L-352.17,-131.63L-339.25,-167.50L-316.87,-195.91L-299.94,-197.92L-289.47,-182.00L-288.46,-173.53L-309.84,-136.66ZM-119.15,-193.63L-121.16,-210.56L-131.64,-226.49L-166.50,-230.93L-205.82,-200.51L-225.18,-146.70L-212.70,-113.85L-194.76,-107.39L-177.83,-109.40L-161.91,-119.88L-132.07,-157.76L-141.54,-165.22L-171.38,-127.34L-188.31,-125.33L-199.79,-149.72L-186.88,-185.59L-164.50,-214.00L-147.56,-216.01L-144.55,-190.61L-160.48,-180.14L-185.87,-177.12L-184.87,-168.66L-142.54,-173.68ZM-118.15,-185.16L-108.68,-177.70L-71.38,-225.05L-62.91,-226.06L-102.65,-126.91L-93.18,-119.45L-76.25,-121.46L-50.43,-193.20L-28.04,-221.61L-12.12,-232.09L-2.65,-224.63L-35.93,-143.41L-34.93,-134.95L-25.46,-127.49L-8.53,-129.50L7.40,-139.97L44.70,-187.32L35.23,-194.78L-2.07,-147.43L-10.54,-146.43L23.75,-219.18L20.74,-244.57L-5.66,-250.02L-30.05,-238.54L-52.44,-210.13L-45.98,-228.07L-46.98,-236.53L-56.45,-243.99L-80.85,-232.51ZM93.06,-141.56L109.99,-143.56L149.30,-173.98L168.67,-227.79L147.72,-259.64L112.85,-264.09L73.54,-233.67L54.17,-179.86L75.12,-148.01ZM114.86,-247.16L131.79,-249.17L143.27,-224.78L130.36,-188.91L107.98,-160.50L91.05,-158.49L79.57,-182.88L92.48,-218.75ZM209.56,-172.55L241.84,-262.23L267.24,-265.25L266.23,-273.71L240.84,-270.70L253.75,-306.57L236.82,-304.56L231.37,-278.16L215.44,-267.68L198.51,-265.67L199.52,-257.21L216.45,-259.22L184.17,-169.54L185.17,-161.07L194.64,-153.61L211.57,-155.62L227.50,-166.10L264.80,-213.45L255.33,-220.91L218.03,-173.56ZM388.77,-253.92L386.76,-270.85L376.28,-286.77L341.42,-291.22L302.11,-260.80L282.74,-206.99L295.22,-174.14L313.16,-167.68L330.09,-169.69L346.01,-180.16L375.86,-218.05L366.39,-225.51L336.54,-187.63L319.61,-185.62L308.13,-210.01L321.05,-245.88L343.43,-274.29L360.36,-276.30L363.37,-250.90L347.45,-240.43L322.05,-237.41L323.06,-228.95L365.38,-233.97ZM431.10,-258.94L439.56,-259.94L446.02,-277.88L445.01,-286.35L427.08,-292.80L418.61,-291.80L412.16,-273.86L413.16,-265.40ZM414.74,-179.74L423.21,-180.74L429.66,-198.68L428.66,-207.14L410.72,-213.60L402.26,-212.59L395.80,-194.66L396.81,-186.19ZM-700.33,117.44L-703.34,92.04L-692.44,39.24L-654.13,0.36L-637.20,-1.65L-618.26,13.27L-615.24,38.66L-598.31,36.65L-583.39,17.71L-593.87,1.79L-638.20,-10.12L-663.60,-7.10L-695.45,13.85L-717.83,42.26L-731.75,69.66L-735.19,112.99L-713.24,153.31L-677.37,166.22L-643.50,162.20L-620.12,142.26L-597.74,113.85L-607.21,106.39L-629.59,134.80L-652.97,154.74L-669.91,156.75L-687.84,150.30ZM-560.86,135.22L-503.76,-34.66L-563.02,-27.63L-562.02,-19.16L-536.62,-22.18L-586.26,138.24L-585.25,146.70L-567.32,153.16L-542.92,141.68L-505.62,94.33L-515.09,86.87L-552.40,134.22ZM-422.55,-1.38L-414.09,-2.38L-407.63,-20.32L-408.63,-28.78L-426.57,-35.24L-435.04,-34.23L-441.49,-16.30L-440.49,-7.83ZM-507.63,77.40L-498.16,84.86L-460.86,37.51L-452.39,36.50L-493.14,127.19L-492.13,135.65L-482.66,143.11L-465.73,141.10L-449.81,130.63L-412.50,83.28L-421.97,75.82L-459.28,123.17L-467.74,124.17L-427.00,33.49L-428.00,25.02L-445.94,18.57L-470.33,30.05ZM-280.07,41.80L-265.15,22.86L-249.22,12.39L-239.75,19.85L-273.04,101.06L-272.03,109.53L-262.56,116.99L-245.63,114.98L-229.71,104.50L-192.40,57.15L-201.87,49.69L-239.18,97.04L-247.64,98.05L-213.35,25.30L-216.37,-0.10L-242.77,-5.55L-267.16,5.93L-282.08,24.87L-284.09,7.94L-302.03,1.49L-326.42,12.97L-348.80,41.38L-342.34,23.44L-343.35,14.98L-352.82,7.52L-377.21,19.00L-414.51,66.35L-405.04,73.81L-367.74,26.46L-359.27,25.45L-399.01,124.60L-389.54,132.06L-372.61,130.05L-346.79,58.31L-324.41,29.90L-308.48,19.42L-299.01,26.88L-331.29,116.56L-321.82,124.02L-304.89,122.01ZM-63.99,-18.18L-73.46,-25.64L-87.38,1.76L-97.85,-14.16L-132.72,-18.61L-171.03,20.28L-182.93,64.61L-170.45,97.47L-152.51,103.93L-135.58,101.92L-113.20,73.51L-111.19,90.44L-101.72,97.90L-77.33,86.42L-40.03,39.07L-49.50,31.61L-86.80,78.96L-95.26,79.96ZM-137.59,84.99L-146.06,85.99L-157.54,61.60L-144.63,25.73L-122.24,-2.68L-105.31,-4.69L-94.84,11.23L-93.83,19.70L-115.21,56.57ZM-10.61,69.91L21.67,-19.76L47.06,-22.78L46.06,-31.24L20.66,-28.23L33.57,-64.10L16.64,-62.09L11.19,-35.69L-4.73,-25.22L-21.66,-23.21L-20.66,-14.74L-3.73,-16.75L-36.01,72.93L-35.00,81.39L-25.53,88.85L-8.60,86.84L7.32,76.37L44.63,29.02L35.16,21.56L-2.15,68.91ZM168.59,-11.45L166.58,-28.38L156.11,-44.31L121.24,-48.75L81.93,-18.33L62.56,35.47L75.05,68.33L92.98,74.79L109.91,72.78L125.84,62.30L155.68,24.42L146.21,16.96L116.37,54.84L99.44,56.85L87.96,32.46L100.87,-3.41L123.25,-31.82L140.18,-33.83L143.20,-8.44L127.27,2.04L101.88,5.05L102.88,13.52L145.21,8.50ZM199.87,-109.59L218.81,-94.67L192.56,45.80L177.64,64.74L262.29,54.69L302.61,32.74L323.98,-4.14L311.50,-37.00L285.10,-42.45L301.03,-52.92L323.41,-81.33L310.92,-114.19L267.59,-117.63ZM217.95,42.78L244.20,-97.69L251.67,-107.16L268.60,-109.17L286.53,-102.71L289.55,-77.31L275.63,-49.91L251.24,-38.43L234.31,-36.42L235.31,-27.95L260.71,-30.97L278.64,-24.51L290.12,-0.12L276.21,27.29L244.36,48.23L227.42,50.24ZM460.86,-80.48L451.39,-87.94L437.48,-60.53L427.00,-76.46L392.13,-80.91L353.83,-42.02L341.92,2.32L354.41,35.17L372.34,41.63L389.27,39.62L411.65,11.21L413.66,28.14L423.13,35.60L447.52,24.12L484.83,-23.23L475.36,-30.69L438.05,16.66L429.59,17.66ZM387.26,22.69L378.80,23.69L367.32,-0.70L380.23,-36.57L402.61,-64.98L419.54,-66.99L430.02,-51.06L431.02,-42.60L409.64,-5.72ZM506.78,17.09L503.77,-8.31L494.30,-15.77L478.37,-5.30L481.39,20.10L499.32,26.56L516.25,24.55L540.64,13.07L555.56,-5.87L553.55,-22.80L540.07,-64.13L538.06,-81.06L553.98,-91.53L557.00,-66.14L566.47,-58.68L582.39,-69.15L579.38,-94.55L552.98,-100.00L520.12,-87.51L513.66,-69.58L515.67,-52.65L528.16,-19.79L530.17,-2.86L515.25,16.08ZM701.91,-74.75L699.90,-91.68L689.43,-107.61L654.56,-112.05L615.25,-81.63L595.88,-27.83L608.37,5.03L626.30,11.48L643.23,9.48L659.16,-1.00L689.00,-38.88L679.53,-46.34L649.69,-8.46L632.76,-6.45L621.28,-30.84L634.19,-66.71L656.57,-95.12L673.50,-97.13L676.52,-71.74L660.59,-61.26L635.19,-58.25L636.20,-49.78L678.53,-54.81Z" fill="#ffffff" stroke="#000000"/>
    <path d="M-478.30,-183.56L-494.09,-232.38L-509.54,-221.56L-552.50,-223.70L-575.05,-203.28L-579.67,-177.01L-566.36,-144.87L-544.71,-113.98L-524.29,-91.43L-521.81,-74.74L-528.91,-65.16L-544.36,-54.33L-569.39,-50.61L-600.63,-88.60L-608.98,-87.36L-591.94,-30.19L-576.50,-41.02L-533.53,-38.88L-502.64,-60.54L-499.26,-95.15L-512.57,-127.29L-534.22,-158.18L-554.64,-180.73L-548.77,-198.66L-541.67,-208.25L-516.64,-211.97L-486.64,-182.32ZM-404.44,-203.08L-396.10,-204.32L-390.24,-222.25L-391.48,-230.59L-409.41,-236.45L-417.75,-235.21L-423.61,-217.28L-422.37,-208.94ZM-486.30,-122.67L-476.71,-115.57L-441.20,-163.49L-432.85,-164.73L-470.50,-73.85L-469.26,-65.50L-459.68,-58.40L-442.99,-60.88L-427.54,-71.71L-392.03,-119.63L-401.61,-126.74L-437.13,-78.81L-445.47,-77.57L-407.82,-168.46L-409.06,-176.80L-426.99,-182.66L-450.78,-170.60ZM-301.14,-81.98L-292.79,-83.22L-277.35,-94.05L-241.83,-141.98L-251.42,-149.08L-286.93,-101.15L-295.28,-99.91L-243.76,-269.62L-302.17,-260.93L-300.93,-252.59L-275.90,-256.31L-289.76,-177.49L-300.59,-192.94L-335.21,-196.32L-371.96,-156.74L-382.44,-112.53L-369.13,-80.40L-351.20,-74.53L-334.52,-77.02L-313.21,-105.77L-310.72,-89.09ZM-337.00,-93.71L-345.34,-92.46L-357.41,-116.26L-345.69,-152.11L-324.38,-180.87L-307.69,-183.35L-296.86,-167.91L-295.62,-159.56L-315.69,-122.46ZM-128.74,-184.39L-131.22,-201.08L-142.05,-216.52L-176.67,-219.90L-214.66,-188.66L-232.25,-134.87L-218.94,-102.74L-201.01,-96.88L-184.32,-99.36L-168.87,-110.19L-140.46,-148.53L-150.05,-155.63L-178.46,-117.29L-195.15,-114.81L-207.22,-138.60L-195.49,-174.46L-174.18,-203.21L-157.49,-205.70L-153.77,-180.66L-169.22,-169.84L-194.25,-166.11L-193.01,-157.77L-151.29,-163.98ZM-127.50,-176.04L-117.91,-168.94L-82.40,-216.87L-74.05,-218.11L-110.46,-118.88L-100.88,-111.77L-84.19,-114.26L-60.74,-185.97L-39.43,-214.73L-23.99,-225.56L-14.40,-218.45L-44.95,-137.15L-43.71,-128.81L-34.13,-121.70L-17.44,-124.19L-1.99,-135.01L33.52,-182.94L23.94,-190.04L-11.58,-142.12L-19.92,-140.87L11.87,-213.83L8.15,-238.87L-18.13,-243.49L-41.92,-231.42L-63.23,-202.66L-57.36,-220.59L-58.61,-228.94L-68.19,-236.04L-91.98,-223.97ZM82.69,-139.08L99.38,-141.56L137.38,-172.80L154.96,-226.59L133.31,-257.49L98.69,-260.87L60.70,-229.63L43.11,-175.84L64.76,-144.94ZM101.17,-244.18L117.86,-246.66L129.93,-222.87L118.21,-187.01L96.90,-158.25L80.21,-155.77L68.14,-179.56L79.87,-215.42ZM197.03,-173.15L226.34,-262.80L251.37,-266.52L250.13,-274.86L225.10,-271.14L236.82,-307.00L220.13,-304.52L215.51,-278.24L200.06,-267.42L183.38,-264.93L184.62,-256.59L201.31,-259.07L172.00,-169.42L173.24,-161.08L182.82,-153.98L199.51,-156.46L214.96,-167.29L250.47,-215.21L240.89,-222.32L205.37,-174.39ZM371.91,-258.87L369.43,-275.55L358.60,-291.00L323.99,-294.38L285.99,-263.14L268.40,-209.35L281.71,-177.22L299.64,-171.35L316.33,-173.84L331.78,-184.66L360.19,-223.01L350.60,-230.11L322.19,-191.77L305.50,-189.28L293.44,-213.08L305.16,-248.93L326.47,-277.69L343.16,-280.17L346.88,-255.14L331.43,-244.31L306.40,-240.59L307.64,-232.25L349.36,-238.45ZM413.63,-265.07L421.98,-266.31L427.84,-284.24L426.60,-292.59L408.67,-298.45L400.32,-297.21L394.46,-279.28L395.70,-270.93ZM399.77,-186.25L408.12,-187.49L413.98,-205.42L412.74,-213.77L394.81,-219.63L386.46,-218.39L380.60,-200.46L381.84,-192.11ZM-694.51,140.29L-698.24,115.26L-689.00,62.71L-652.24,23.13L-635.55,20.64L-616.38,34.85L-612.66,59.88L-595.97,57.40L-581.77,38.23L-592.59,22.78L-636.80,12.30L-661.83,16.02L-692.72,37.68L-714.03,66.43L-727.00,93.95L-729.13,136.91L-706.24,176.15L-670.38,187.87L-637.00,182.91L-614.45,162.49L-593.14,133.74L-602.73,126.64L-624.04,155.39L-646.59,175.80L-663.28,178.29L-681.21,172.43ZM-556.04,153.81L-504.53,-15.90L-562.94,-7.22L-561.70,1.13L-536.67,-2.60L-581.08,157.53L-579.83,165.87L-561.90,171.74L-538.11,159.67L-502.60,111.74L-512.18,104.64L-547.70,152.56ZM-423.23,14.64L-414.88,13.40L-409.02,-4.53L-410.26,-12.87L-428.19,-18.73L-436.54,-17.49L-442.40,0.44L-441.16,8.78ZM-505.08,95.05L-495.50,102.15L-459.98,54.23L-451.64,52.99L-489.29,143.88L-488.05,152.22L-478.46,159.32L-461.77,156.84L-446.33,146.01L-410.81,98.09L-420.40,90.98L-455.91,138.91L-464.26,140.15L-426.60,49.26L-427.85,40.92L-445.78,35.06L-469.57,47.12ZM-281.03,53.19L-266.82,34.02L-251.38,23.20L-241.79,30.30L-272.34,111.60L-271.10,119.95L-261.51,127.05L-244.83,124.57L-229.38,113.74L-193.86,65.81L-203.45,58.71L-238.96,106.64L-247.31,107.88L-215.52,34.92L-219.24,9.89L-245.52,5.27L-269.31,17.33L-283.51,36.50L-286.00,19.82L-303.92,13.95L-327.72,26.02L-349.02,54.78L-343.16,36.85L-344.40,28.51L-353.99,21.40L-377.78,33.47L-413.30,81.40L-403.71,88.50L-368.20,40.57L-359.85,39.33L-396.26,138.57L-386.68,145.67L-369.99,143.19L-346.54,71.47L-325.23,42.71L-309.79,31.88L-300.20,38.99L-329.51,128.64L-319.92,135.74L-303.24,133.26ZM-69.05,-12.46L-78.63,-19.56L-91.60,7.96L-102.42,-7.49L-137.04,-10.87L-173.80,28.71L-184.28,72.92L-170.97,105.05L-153.04,110.91L-136.35,108.43L-115.04,79.67L-112.56,96.36L-102.97,103.47L-79.18,91.40L-43.67,43.47L-53.25,36.37L-88.77,84.29L-97.11,85.54ZM-138.83,91.74L-147.18,92.98L-159.25,69.19L-147.52,33.33L-126.21,4.58L-109.53,2.09L-98.70,17.54L-97.46,25.89L-117.53,62.99ZM-13.67,73.12L15.64,-16.53L40.67,-20.25L39.43,-28.59L14.40,-24.87L26.12,-60.73L9.43,-58.25L4.81,-31.97L-10.64,-21.15L-27.33,-18.66L-26.08,-10.32L-9.40,-12.80L-38.70,76.85L-37.46,85.19L-27.88,92.29L-11.19,89.81L4.26,78.98L39.77,31.06L30.19,23.95L-5.33,71.88ZM161.21,-12.59L158.73,-29.28L147.90,-44.73L113.28,-48.11L75.29,-16.87L57.70,36.92L71.01,69.05L88.94,74.92L105.63,72.43L121.08,61.61L149.49,23.26L139.90,16.16L111.49,54.50L94.80,56.99L82.73,33.19L94.46,-2.66L115.77,-31.42L132.46,-33.90L136.18,-8.87L120.73,1.96L95.70,5.68L96.94,14.02L138.66,7.82ZM189.28,-110.59L208.45,-96.38L186.59,43.33L172.38,62.50L255.82,50.09L295.06,27.20L315.13,-9.91L301.82,-42.04L275.55,-46.66L290.99,-57.49L312.30,-86.24L298.99,-118.38L256.03,-120.52ZM211.62,39.61L233.48,-100.11L240.58,-109.69L257.27,-112.17L275.20,-106.31L278.93,-81.28L265.96,-53.76L242.17,-41.70L225.48,-39.21L226.72,-30.87L251.76,-34.59L269.69,-28.73L281.75,-4.94L268.79,22.57L237.90,44.23L221.21,46.71ZM448.29,-89.42L438.71,-96.52L425.74,-69.00L414.92,-84.45L380.30,-87.83L343.54,-48.25L333.06,-4.04L346.37,28.09L364.30,33.95L380.99,31.47L402.30,2.71L404.78,19.40L414.36,26.51L438.16,14.44L473.67,-33.49L464.08,-40.59L428.57,7.33L420.23,8.58ZM378.51,14.78L370.16,16.02L358.09,-7.77L369.82,-43.63L391.12,-72.38L407.81,-74.87L418.64,-59.42L419.88,-51.07L399.81,-13.97ZM496.56,5.75L492.84,-19.28L483.26,-26.39L467.81,-15.56L471.53,9.47L489.46,15.33L506.15,12.85L529.94,0.78L544.15,-18.39L541.66,-35.08L527.11,-75.56L524.63,-92.24L540.08,-103.07L543.80,-78.04L553.39,-70.93L568.84,-81.76L565.11,-106.79L538.84,-111.41L506.70,-98.11L500.84,-80.18L503.32,-63.49L516.63,-31.35L519.11,-14.66L504.91,4.51ZM686.89,-90.80L684.41,-107.48L673.59,-122.93L638.97,-126.31L600.97,-95.07L583.39,-41.28L596.69,-9.15L614.62,-3.29L631.31,-5.77L646.76,-16.59L675.17,-54.94L665.59,-62.04L637.17,-23.70L620.49,-21.21L608.42,-45.01L620.14,-80.87L641.45,-109.62L658.14,-112.10L661.86,-87.07L646.42,-76.24L621.38,-72.52L622.62,-64.18L664.34,-70.38Z" fill="#ffffff" stroke="#000000"/>
    <path d="M-483.47,-163.80L-500.52,-211.63L-515.48,-200.47L-558.04,-201.33L-579.74,-180.48L-583.54,-154.36L-569.44,-122.97L-547.12,-93.04L-526.27,-71.34L-523.33,-54.91L-530.08,-45.22L-545.04,-34.06L-569.69,-29.64L-601.69,-66.31L-609.91,-64.84L-591.39,-8.80L-576.43,-19.96L-533.88,-19.10L-503.96,-41.42L-501.63,-75.75L-515.73,-107.15L-538.05,-137.07L-558.89,-158.78L-553.62,-176.68L-546.88,-186.37L-522.23,-190.78L-491.69,-162.33ZM-411.00,-185.26L-402.78,-186.73L-397.51,-204.64L-398.98,-212.86L-416.88,-218.13L-425.10,-216.66L-430.37,-198.75L-428.90,-190.54ZM-489.61,-103.35L-479.92,-96.60L-446.19,-145.04L-437.98,-146.51L-472.56,-55.52L-471.09,-47.30L-461.40,-40.56L-444.97,-43.50L-430.01,-54.66L-396.28,-103.10L-405.97,-109.84L-439.70,-61.40L-447.91,-59.93L-413.33,-150.93L-414.80,-159.14L-432.70,-164.42L-455.88,-151.78ZM-305.29,-68.51L-297.07,-69.99L-282.11,-81.15L-248.39,-129.59L-258.07,-136.33L-291.80,-87.89L-300.02,-86.42L-254.03,-255.78L-311.54,-245.48L-310.07,-237.26L-285.42,-241.67L-296.83,-163.31L-307.99,-178.27L-342.32,-180.60L-377.52,-140.38L-386.59,-96.35L-372.49,-64.96L-354.59,-59.69L-338.15,-62.63L-317.92,-91.69L-314.98,-75.26ZM-341.10,-79.06L-349.31,-77.59L-361.95,-100.77L-351.40,-136.58L-331.16,-165.64L-314.73,-168.58L-303.57,-153.62L-302.10,-145.41L-320.86,-108.13ZM-137.77,-174.84L-140.71,-191.27L-151.87,-206.23L-186.21,-208.56L-222.88,-176.55L-238.70,-122.84L-224.60,-91.45L-206.69,-86.17L-190.26,-89.12L-175.30,-100.28L-148.32,-139.03L-158.00,-145.77L-184.98,-107.02L-201.42,-104.08L-214.05,-127.26L-203.50,-163.06L-183.27,-192.13L-166.83,-195.07L-162.42,-170.42L-177.38,-159.26L-202.03,-154.85L-200.56,-146.63L-159.48,-153.99ZM-136.30,-166.62L-126.61,-159.87L-92.89,-208.31L-84.67,-209.79L-117.78,-110.58L-108.09,-103.83L-91.66,-106.77L-70.57,-178.39L-50.33,-207.46L-35.37,-218.61L-25.68,-211.87L-53.52,-130.56L-52.05,-122.35L-42.36,-115.60L-25.93,-118.55L-10.97,-129.71L22.76,-178.14L13.07,-184.89L-20.66,-136.45L-28.87,-134.98L0.44,-208.07L-3.98,-232.72L-30.10,-236.52L-53.27,-223.89L-73.51,-194.82L-68.24,-212.73L-69.71,-220.95L-79.40,-227.69L-102.57,-215.06ZM72.67,-136.20L89.10,-139.15L125.77,-171.15L141.59,-224.87L119.27,-254.79L84.93,-257.12L48.27,-225.11L32.45,-171.40L54.76,-141.48ZM87.88,-240.69L104.31,-243.63L116.94,-220.45L106.39,-184.64L86.16,-155.58L69.73,-152.64L57.09,-175.81L67.64,-211.62ZM184.76,-173.24L211.12,-262.76L235.77,-267.17L234.30,-275.39L209.65,-270.98L220.20,-306.79L203.77,-303.84L199.96,-277.72L185.00,-266.56L168.57,-263.62L170.04,-255.40L186.47,-258.35L160.11,-168.82L161.58,-160.61L171.27,-153.86L187.70,-156.80L202.66,-167.96L236.39,-216.40L226.70,-223.15L192.97,-174.71ZM355.22,-263.13L352.28,-279.56L341.12,-294.52L306.78,-296.85L270.11,-264.84L254.29,-211.13L268.39,-179.74L286.30,-174.46L302.73,-177.41L317.69,-188.57L344.67,-227.32L334.98,-234.06L308.00,-195.31L291.57,-192.37L278.94,-215.54L289.49,-251.35L309.72,-280.42L326.15,-283.36L330.57,-258.71L315.61,-247.55L290.96,-243.14L292.43,-234.92L333.51,-242.28ZM396.30,-270.48L404.52,-271.95L409.79,-289.86L408.32,-298.08L390.41,-303.35L382.20,-301.88L376.92,-283.97L378.40,-275.76ZM384.89,-192.12L393.11,-193.59L398.38,-211.50L396.91,-219.71L379.01,-224.99L370.79,-223.51L365.52,-205.61L366.99,-197.39ZM-687.86,162.82L-692.27,138.17L-684.67,85.93L-649.47,45.70L-633.04,42.76L-613.67,56.25L-609.25,80.90L-592.82,77.96L-579.33,58.58L-590.49,43.62L-634.51,34.54L-659.16,38.96L-689.08,61.28L-709.32,90.34L-721.34,117.93L-722.20,160.49L-698.41,198.63L-662.60,209.17L-629.73,203.29L-608.03,182.44L-587.79,153.38L-597.48,146.63L-617.71,175.69L-639.42,196.54L-655.85,199.48L-673.76,194.21ZM-550.51,172.14L-504.52,2.78L-562.04,13.08L-560.56,21.30L-535.91,16.88L-575.16,176.55L-573.69,184.77L-555.78,190.04L-532.61,177.41L-498.88,128.97L-508.57,122.23L-542.29,170.67ZM-423.21,30.62L-415.00,29.15L-409.72,11.24L-411.20,3.03L-429.10,-2.25L-437.32,-0.77L-442.59,17.13L-441.12,25.35ZM-501.82,112.54L-492.14,119.28L-458.41,70.84L-450.19,69.37L-484.78,160.37L-483.31,168.58L-473.62,175.33L-457.19,172.38L-442.22,161.23L-408.50,112.79L-418.19,106.04L-451.91,154.48L-460.13,155.95L-425.55,64.96L-427.02,56.74L-444.92,51.47L-468.10,64.10ZM-281.45,64.59L-267.96,45.22L-253.00,34.06L-243.31,40.80L-271.15,122.11L-269.68,130.32L-259.99,137.07L-243.56,134.13L-228.60,122.97L-194.87,74.53L-204.56,67.78L-238.28,116.22L-246.50,117.69L-217.19,44.60L-221.60,19.95L-247.73,16.15L-270.90,28.78L-284.39,48.16L-287.34,31.73L-305.24,26.45L-328.42,39.08L-348.65,68.15L-343.38,50.24L-344.85,42.03L-354.54,35.28L-377.72,47.91L-411.44,96.35L-401.75,103.10L-368.03,54.66L-359.81,53.19L-392.93,152.40L-383.24,159.14L-366.80,156.20L-345.71,84.58L-325.48,55.52L-310.51,44.36L-300.83,51.10L-327.19,140.62L-317.51,147.37L-301.07,144.43ZM-73.71,-6.53L-83.40,-13.28L-95.41,14.31L-106.57,-0.65L-140.91,-2.98L-176.11,37.25L-185.18,81.27L-171.08,112.67L-153.18,117.94L-136.74,115.00L-116.51,85.93L-113.57,102.37L-103.88,109.11L-80.70,96.48L-46.97,48.04L-56.66,41.29L-90.39,89.73L-98.60,91.21ZM-139.69,98.56L-147.90,100.03L-160.53,76.86L-149.99,41.05L-129.75,11.98L-113.32,9.04L-102.16,24.00L-100.69,32.22L-119.45,69.50ZM-16.44,76.49L9.93,-13.03L34.58,-17.45L33.11,-25.66L8.46,-21.25L19.00,-57.06L2.57,-54.11L-1.23,-27.99L-16.19,-16.83L-32.63,-13.89L-31.15,-5.67L-14.72,-8.62L-41.09,80.91L-39.62,89.12L-29.93,95.87L-13.50,92.92L1.47,81.76L35.19,33.32L25.50,26.58L-8.22,75.02ZM154.02,-13.40L151.08,-29.83L139.92,-44.79L105.58,-47.12L68.91,-15.12L53.09,38.60L67.20,69.99L85.10,75.27L101.53,72.32L116.50,61.16L143.48,22.41L133.79,15.67L106.81,54.42L90.37,57.36L77.74,34.18L88.29,-1.63L108.53,-30.69L124.96,-33.63L129.37,-8.98L114.41,2.18L89.76,6.59L91.23,14.81L132.32,7.45ZM178.92,-111.14L198.29,-97.65L180.76,41.18L167.27,60.55L249.43,45.84L287.57,22.05L306.33,-15.23L292.23,-46.63L266.11,-50.43L281.07,-61.59L301.31,-90.65L287.20,-122.05L244.65,-122.91ZM205.41,36.76L222.94,-102.06L229.69,-111.75L246.12,-114.69L264.03,-109.42L268.44,-84.77L256.42,-57.18L233.24,-44.55L216.81,-41.60L218.28,-33.39L242.93,-37.80L260.84,-32.53L273.47,-9.35L261.45,18.24L231.53,40.56L215.09,43.51ZM435.71,-97.77L426.03,-104.51L414.01,-76.92L402.85,-91.88L368.51,-94.21L333.31,-53.99L324.24,-9.96L338.34,21.43L356.24,26.71L372.68,23.76L392.91,-5.30L395.86,11.13L405.54,17.88L428.72,5.25L462.45,-43.19L452.76,-49.94L419.03,-1.50L410.82,-0.03ZM369.73,7.33L361.52,8.80L348.89,-14.38L359.43,-50.18L379.67,-79.25L396.10,-82.19L407.26,-67.23L408.73,-59.01L389.97,-21.73ZM486.24,-5.05L481.82,-29.70L472.13,-36.45L457.17,-25.29L461.59,-0.64L479.49,4.63L495.92,1.69L519.10,-10.94L532.59,-30.32L529.65,-46.75L514.08,-86.36L511.13,-102.79L526.09,-113.95L530.51,-89.30L540.20,-82.56L555.16,-93.72L550.74,-118.37L524.62,-122.17L493.23,-108.07L487.95,-90.16L490.90,-73.73L505.00,-42.33L507.94,-25.90L494.45,-6.53ZM671.66,-106.10L668.72,-122.53L657.56,-137.50L623.22,-139.83L586.55,-107.82L570.73,-54.11L584.83,-22.71L602.74,-17.44L619.17,-20.38L634.13,-31.54L661.11,-70.29L651.43,-77.04L624.45,-38.29L608.01,-35.34L595.38,-58.52L605.93,-94.33L626.16,-123.39L642.60,-126.34L647.01,-101.69L632.05,-90.53L607.40,-86.11L608.87,-77.90L649.95,-85.25Z" fill="#ffffff" stroke="#000000"/>
    <path d="M-487.80,-143.99L-506.05,-190.79L-520.52,-179.32L-562.63,-178.92L-583.49,-157.67L-586.48,-131.73L-571.62,-101.09L-548.67,-72.15L-527.42,-51.30L-524.03,-35.13L-530.42,-25.35L-544.89,-13.88L-569.14,-8.79L-601.86,-44.12L-609.94,-42.43L-589.99,12.46L-575.52,0.98L-533.42,0.59L-504.48,-22.36L-503.17,-56.38L-518.04,-87.02L-540.98,-115.96L-562.23,-136.81L-557.54,-154.67L-551.16,-164.45L-526.91,-169.54L-495.88,-142.29ZM-416.75,-167.33L-408.67,-169.02L-403.97,-186.88L-405.67,-194.97L-423.53,-199.66L-431.61,-197.96L-436.30,-180.10L-434.61,-172.02ZM-492.09,-84.02L-482.32,-77.63L-450.38,-126.52L-442.30,-128.22L-473.84,-37.22L-472.15,-29.14L-462.37,-22.75L-446.20,-26.14L-431.73,-37.61L-399.80,-86.50L-409.57,-92.89L-441.51,-44.00L-449.59,-42.31L-418.05,-133.30L-419.75,-141.39L-437.61,-146.08L-460.16,-132.91ZM-308.80,-54.96L-300.72,-56.66L-286.25,-68.13L-254.31,-117.02L-264.09,-123.41L-296.03,-74.52L-304.11,-72.82L-263.58,-241.65L-320.15,-229.78L-318.46,-221.70L-294.21,-226.78L-303.20,-148.95L-314.67,-163.42L-348.70,-164.73L-382.33,-123.92L-390.02,-80.12L-375.16,-49.48L-357.29,-44.79L-341.13,-48.18L-321.97,-77.51L-318.58,-61.35ZM-344.52,-64.34L-352.60,-62.65L-365.77,-85.20L-356.39,-120.92L-337.23,-150.26L-321.06,-153.65L-309.59,-139.18L-307.89,-131.09L-325.36,-93.68ZM-146.24,-165.00L-149.63,-181.16L-161.11,-195.63L-195.13,-196.94L-230.46,-164.21L-244.53,-110.63L-229.67,-80.00L-211.81,-75.30L-195.64,-78.69L-181.17,-90.17L-155.63,-129.28L-165.40,-135.67L-190.95,-96.55L-207.12,-93.16L-220.29,-115.72L-210.90,-151.44L-191.74,-180.77L-175.57,-184.16L-170.49,-159.91L-184.96,-148.44L-209.21,-143.35L-207.51,-135.27L-167.10,-143.75ZM-144.55,-156.92L-134.77,-150.53L-102.83,-199.42L-94.75,-201.11L-124.60,-102.03L-114.82,-95.65L-98.65,-99.04L-79.89,-170.48L-60.72,-199.81L-46.25,-211.29L-36.48,-204.90L-61.63,-123.68L-59.94,-115.60L-50.16,-109.21L-33.99,-112.60L-19.52,-124.07L12.41,-172.96L2.63,-179.35L-29.30,-130.46L-37.38,-128.76L-10.53,-201.90L-15.62,-226.15L-41.56,-229.15L-64.11,-215.98L-83.28,-186.64L-78.58,-204.50L-80.28,-212.59L-90.06,-218.97L-112.61,-205.81ZM63.00,-132.94L79.16,-136.33L114.49,-169.06L128.56,-222.64L105.62,-251.58L71.59,-252.88L36.27,-220.16L22.19,-166.57L45.14,-137.64ZM74.98,-236.71L91.15,-240.10L104.32,-217.55L94.93,-181.83L75.77,-152.50L59.61,-149.11L46.44,-171.66L55.82,-207.38ZM172.76,-172.84L196.22,-262.14L220.47,-267.23L218.77,-275.31L194.53,-270.23L203.91,-305.95L187.74,-302.56L184.75,-276.61L170.28,-265.14L154.11,-261.75L155.81,-253.67L171.97,-257.06L148.51,-167.76L150.21,-159.67L159.99,-153.29L176.15,-156.68L190.62,-168.15L222.56,-217.04L212.78,-223.43L180.84,-174.54ZM338.71,-266.72L335.32,-282.88L323.85,-297.35L289.82,-298.65L254.49,-265.93L240.42,-212.35L255.28,-181.71L273.14,-177.02L289.31,-180.41L303.78,-191.88L329.33,-230.99L319.55,-237.38L294.00,-198.27L277.83,-194.88L264.67,-217.43L274.05,-253.15L293.21,-282.49L309.38,-285.88L314.46,-261.63L299.99,-250.16L275.75,-245.07L277.44,-236.99L317.85,-245.46ZM379.12,-275.19L387.21,-276.89L391.90,-294.75L390.20,-302.83L372.34,-307.52L364.26,-305.83L359.57,-287.97L361.26,-279.88ZM370.13,-197.36L378.21,-199.06L382.91,-216.92L381.21,-225.00L363.35,-229.69L355.27,-228.00L350.58,-210.14L352.27,-202.06ZM-680.38,184.99L-685.46,160.74L-679.47,108.85L-645.84,68.05L-629.67,64.66L-610.12,77.43L-605.03,101.68L-588.87,98.29L-576.09,78.73L-587.56,64.26L-631.37,56.57L-655.62,61.66L-684.55,84.61L-703.72,113.94L-714.80,141.58L-714.40,183.69L-689.76,220.71L-654.04,230.09L-621.71,223.31L-600.85,202.06L-581.69,172.73L-591.47,166.34L-610.63,195.67L-631.49,216.92L-647.65,220.31L-665.51,215.62ZM-544.28,190.19L-503.74,21.37L-560.32,33.23L-558.63,41.32L-534.38,36.23L-568.52,195.28L-566.83,203.36L-548.97,208.05L-526.41,194.89L-494.48,146.00L-504.26,139.61L-536.19,188.50ZM-422.52,46.52L-414.44,44.83L-409.75,26.97L-411.44,18.88L-429.30,14.19L-437.39,15.89L-442.08,33.75L-440.38,41.83ZM-497.87,129.83L-488.09,136.22L-456.16,87.33L-448.07,85.63L-479.62,176.63L-477.92,184.71L-468.14,191.10L-451.98,187.71L-437.51,176.24L-405.57,127.35L-415.35,120.96L-447.28,169.85L-455.37,171.55L-423.83,80.55L-425.52,72.47L-443.38,67.77L-465.93,80.94ZM-281.34,75.98L-268.56,56.42L-254.09,44.95L-244.31,51.33L-269.47,132.55L-267.77,140.64L-258.00,147.02L-241.83,143.63L-227.36,132.16L-195.43,83.27L-205.20,76.88L-237.14,125.77L-245.22,127.47L-218.37,54.33L-223.46,30.08L-249.40,27.09L-271.95,40.26L-284.73,59.81L-288.12,43.65L-305.98,38.95L-328.53,52.12L-347.69,81.46L-343.00,63.60L-344.70,55.51L-354.47,49.13L-377.03,62.29L-408.96,111.18L-399.18,117.57L-367.25,68.68L-359.16,66.99L-389.01,166.07L-379.23,172.45L-363.07,169.06L-344.30,97.62L-325.14,68.29L-310.67,56.81L-300.89,63.20L-324.35,152.50L-314.57,158.89L-298.41,155.50ZM-77.97,-0.43L-87.75,-6.82L-98.83,20.82L-110.30,6.35L-144.33,5.05L-177.96,45.86L-185.65,89.66L-170.78,120.29L-152.92,124.99L-136.76,121.59L-117.60,92.26L-114.21,108.43L-104.43,114.81L-81.88,101.65L-49.94,52.76L-59.72,46.37L-91.65,95.26L-99.74,96.95ZM-140.15,105.43L-148.23,107.12L-161.40,84.57L-152.02,48.85L-132.85,19.52L-116.69,16.13L-105.22,30.60L-103.52,38.68L-120.99,76.10ZM-18.91,80.00L4.55,-9.30L28.80,-14.39L27.10,-22.47L2.85,-17.38L12.24,-53.10L-3.93,-49.71L-6.92,-23.77L-21.39,-12.30L-37.56,-8.91L-35.86,-0.82L-19.70,-4.22L-43.16,85.09L-41.46,93.17L-31.69,99.56L-15.52,96.17L-1.05,84.69L30.89,35.80L21.11,29.42L-10.83,78.31ZM147.04,-13.87L143.65,-30.04L132.17,-44.51L98.15,-45.81L62.82,-13.09L48.75,40.50L63.61,71.13L81.47,75.82L97.63,72.43L112.10,60.96L137.65,21.85L127.88,15.46L102.33,54.57L86.16,57.96L72.99,35.41L82.38,-0.31L101.54,-29.64L117.70,-33.03L122.79,-8.79L108.32,2.69L84.07,7.77L85.77,15.85L126.18,7.38ZM168.80,-111.26L188.36,-98.48L175.07,39.31L162.30,58.87L243.12,41.92L280.14,17.28L297.61,-20.14L282.75,-50.78L256.80,-53.77L271.27,-65.24L290.43,-94.58L275.57,-125.21L233.46,-124.82ZM199.32,34.23L212.61,-103.57L218.99,-113.35L235.16,-116.74L253.02,-112.04L258.10,-87.80L247.02,-60.16L224.47,-46.99L208.31,-43.60L210.00,-35.52L234.25,-40.60L252.11,-35.91L265.28,-13.36L254.20,14.28L225.26,37.23L209.09,40.62ZM423.14,-105.54L413.37,-111.92L402.29,-84.29L390.81,-98.76L356.79,-100.06L323.16,-59.25L315.47,-15.45L330.33,15.19L348.19,19.88L364.36,16.49L383.52,-12.85L386.91,3.32L396.69,9.71L419.24,-3.46L451.18,-52.35L441.40,-58.74L409.46,-9.85L401.38,-8.15ZM360.97,0.32L352.89,2.02L339.72,-20.53L349.10,-56.25L368.26,-85.59L384.43,-88.98L395.90,-74.51L397.60,-66.43L380.13,-29.01ZM475.82,-15.33L470.73,-39.58L460.95,-45.96L446.48,-34.49L451.57,-10.24L469.43,-5.55L485.60,-8.94L508.15,-22.11L520.92,-41.67L517.53,-57.83L500.97,-96.55L497.58,-112.71L512.05,-124.19L517.14,-99.94L526.92,-93.55L541.39,-105.02L536.30,-129.27L510.36,-132.27L479.72,-117.40L475.03,-99.54L478.42,-83.38L493.28,-52.74L496.68,-36.58L483.90,-17.02ZM656.24,-120.67L652.85,-136.84L641.37,-151.31L607.35,-152.61L572.02,-119.89L557.94,-66.31L572.81,-35.67L590.67,-30.98L606.83,-34.37L621.30,-45.84L646.85,-84.95L637.07,-91.34L611.53,-52.23L595.36,-48.84L582.19,-71.39L591.58,-107.11L610.74,-136.45L626.90,-139.84L631.99,-115.59L617.52,-104.12L593.27,-99.03L594.97,-90.95L635.38,-99.42Z" fill="#ffffff" stroke="#000000"/>
    <path d="M-491.27,-124.15L-510.69,-169.90L-524.66,-158.13L-566.28,-156.51L-586.29,-134.89L-588.49,-109.15L-572.90,-79.29L-549.36,-51.34L-527.74,-31.34L-523.92,-15.45L-529.95,-5.60L-543.92,6.17L-567.75,11.91L-601.14,-22.07L-609.08,-20.16L-587.75,33.53L-573.78,21.76L-532.15,20.14L-504.21,-3.39L-503.91,-37.08L-519.51,-66.93L-543.04,-94.88L-564.66,-114.88L-560.55,-132.68L-554.52,-142.54L-530.69,-148.27L-499.21,-122.24ZM-421.70,-149.31L-413.75,-151.22L-409.64,-169.02L-411.55,-176.96L-429.35,-181.08L-437.29,-179.16L-441.41,-161.37L-439.49,-153.42ZM-493.77,-64.73L-483.91,-58.70L-453.76,-107.97L-445.82,-109.89L-474.35,-18.99L-472.44,-11.04L-462.58,-5.01L-446.70,-8.84L-432.72,-20.61L-402.57,-69.88L-412.43,-75.91L-442.58,-26.64L-450.52,-24.72L-421.99,-115.62L-423.90,-123.57L-441.70,-127.68L-463.62,-114.00ZM-311.67,-41.35L-303.73,-43.26L-289.76,-55.03L-259.61,-104.30L-269.46,-110.33L-299.61,-61.06L-307.55,-59.15L-272.41,-227.27L-328.01,-213.88L-326.09,-205.94L-302.27,-211.68L-308.88,-134.46L-320.65,-148.43L-354.33,-148.72L-386.39,-107.39L-392.72,-63.85L-377.13,-33.99L-359.33,-29.87L-343.44,-33.70L-325.35,-63.26L-321.53,-47.38ZM-347.27,-49.58L-355.21,-47.67L-368.89,-69.59L-360.65,-105.18L-342.56,-134.75L-326.68,-138.57L-314.91,-124.60L-313.00,-116.66L-329.18,-79.15ZM-154.15,-154.91L-157.97,-170.79L-169.74,-184.76L-203.42,-185.06L-237.40,-151.67L-249.75,-98.27L-234.16,-68.42L-216.36,-64.30L-200.48,-68.12L-186.50,-79.89L-162.38,-119.31L-172.24,-125.34L-196.36,-85.92L-212.24,-82.10L-225.92,-104.01L-217.69,-139.61L-199.60,-169.17L-183.71,-173.00L-177.97,-149.17L-191.95,-137.40L-215.78,-131.66L-213.86,-123.72L-174.15,-133.28ZM-152.23,-146.96L-142.38,-140.93L-112.23,-190.21L-104.29,-192.12L-130.90,-93.28L-121.05,-87.25L-105.16,-91.07L-88.69,-162.26L-70.60,-191.83L-56.63,-203.60L-46.78,-197.57L-69.28,-116.52L-67.36,-108.58L-57.51,-102.55L-41.62,-106.37L-27.65,-118.14L2.50,-167.41L-7.36,-173.44L-37.51,-124.17L-45.45,-122.26L-21.03,-195.36L-26.77,-219.19L-52.51,-221.39L-74.43,-207.71L-92.52,-178.15L-88.40,-195.95L-90.31,-203.89L-100.17,-209.92L-122.08,-196.24ZM53.69,-129.32L69.57,-133.15L103.55,-166.54L115.90,-219.93L92.37,-247.87L58.68,-248.17L24.71,-214.78L12.36,-161.38L35.89,-133.44ZM62.51,-232.28L78.39,-236.11L92.07,-214.19L83.84,-178.60L65.75,-149.03L49.86,-145.21L36.18,-167.12L44.42,-202.72ZM161.06,-171.98L181.65,-260.97L205.48,-266.71L203.56,-274.65L179.74,-268.91L187.97,-304.51L172.09,-300.68L169.88,-274.94L155.91,-263.17L140.02,-259.35L141.93,-251.41L157.82,-255.23L137.23,-166.24L139.14,-158.30L149.00,-152.27L164.88,-156.10L178.86,-167.86L209.01,-217.14L199.15,-223.17L169.00,-173.89ZM322.41,-269.65L318.58,-285.54L306.82,-299.51L273.13,-299.80L239.16,-266.41L226.81,-213.02L242.40,-183.16L260.20,-179.04L276.08,-182.87L290.05,-194.64L314.17,-234.06L304.32,-240.09L280.20,-200.67L264.31,-196.84L250.63,-218.76L258.87,-254.35L276.96,-283.92L292.84,-287.74L298.58,-263.91L284.61,-252.15L260.78,-246.41L262.69,-238.47L302.41,-248.03ZM362.12,-279.21L370.07,-281.13L374.18,-298.92L372.27,-306.87L354.47,-310.98L346.53,-309.07L342.41,-291.27L344.32,-283.33ZM355.51,-201.99L363.45,-203.91L367.57,-221.70L365.65,-229.65L347.86,-233.76L339.91,-231.85L335.80,-214.05L337.71,-206.11ZM-672.08,206.77L-677.82,182.94L-673.41,131.46L-641.35,90.13L-625.46,86.30L-605.75,98.36L-600.01,122.19L-584.13,118.37L-572.07,98.66L-583.84,84.68L-627.37,78.36L-651.20,84.10L-679.15,107.63L-697.24,137.20L-707.39,164.85L-705.77,206.48L-680.32,242.37L-644.72,250.60L-612.95,242.95L-592.95,221.33L-574.86,191.76L-584.72,185.73L-602.81,215.30L-622.81,236.92L-638.69,240.75L-656.49,236.63ZM-537.35,207.94L-502.21,39.82L-557.80,53.21L-555.89,61.15L-532.06,55.41L-561.18,213.68L-559.27,221.62L-541.47,225.74L-519.55,212.06L-489.40,162.78L-499.26,156.75L-529.41,206.03ZM-421.16,62.32L-413.22,60.41L-409.10,42.61L-411.01,34.67L-428.81,30.55L-436.75,32.46L-440.87,50.26L-438.96,58.20ZM-493.23,146.90L-483.37,152.93L-453.22,103.65L-445.28,101.74L-473.81,192.64L-471.90,200.58L-462.04,206.62L-446.16,202.79L-432.19,191.02L-402.04,141.75L-411.89,135.72L-442.04,184.99L-449.98,186.91L-421.45,96.00L-423.36,88.06L-441.16,83.94L-463.08,97.62ZM-280.69,87.32L-268.63,67.61L-254.66,55.84L-244.80,61.87L-267.30,142.92L-265.39,150.86L-255.54,156.89L-239.65,153.07L-225.68,141.30L-195.53,92.02L-205.38,85.99L-235.53,135.27L-243.48,137.18L-219.06,64.08L-224.80,40.25L-250.54,38.05L-272.46,51.73L-284.52,71.44L-288.34,55.55L-306.14,51.43L-328.05,65.11L-346.14,94.68L-342.03,76.88L-343.94,68.94L-353.79,62.91L-375.71,76.59L-405.86,125.86L-396.00,131.89L-365.85,82.62L-357.91,80.70L-384.53,179.55L-374.68,185.58L-358.79,181.75L-342.32,110.56L-324.23,81.00L-310.26,69.23L-300.40,75.26L-320.99,164.25L-311.13,170.28L-295.25,166.45ZM-81.83,5.83L-91.69,-0.20L-101.84,27.45L-113.60,13.48L-147.29,13.18L-179.35,54.52L-185.67,98.05L-170.08,127.91L-152.28,132.03L-136.40,128.21L-118.31,98.64L-114.48,114.53L-104.63,120.56L-82.71,106.88L-52.56,57.60L-62.42,51.57L-92.57,100.85L-100.51,102.76ZM-140.22,112.32L-148.16,114.23L-161.84,92.32L-153.61,56.72L-135.52,27.16L-119.63,23.33L-107.87,37.30L-105.95,45.25L-122.13,82.76ZM-21.08,83.63L-0.49,-5.35L23.33,-11.09L21.42,-19.03L-2.41,-13.30L5.83,-48.89L-10.06,-45.07L-12.26,-19.33L-26.23,-7.56L-42.12,-3.73L-40.21,4.21L-24.32,0.38L-44.91,89.37L-43.00,97.31L-33.14,103.34L-17.26,99.52L-3.29,87.75L26.87,38.48L17.01,32.45L-13.14,81.72ZM140.27,-14.04L136.44,-29.92L124.68,-43.90L90.99,-44.19L57.02,-10.80L44.66,42.59L60.26,72.45L78.05,76.57L93.94,72.75L107.91,60.98L132.03,21.56L122.18,15.53L98.06,54.95L82.17,58.77L68.49,36.86L76.73,1.26L94.82,-28.30L110.70,-32.13L116.44,-8.30L102.47,3.47L78.64,9.20L80.55,17.15L120.26,7.58ZM158.94,-110.97L178.65,-98.91L169.54,37.74L157.48,57.45L236.91,38.32L272.79,12.87L288.97,-24.63L273.38,-54.49L247.64,-56.70L261.61,-68.46L279.70,-98.03L264.11,-127.89L222.48,-126.27ZM193.37,32.00L202.48,-104.65L208.51,-114.50L224.40,-118.33L242.19,-114.21L247.93,-90.38L237.78,-62.73L215.87,-49.05L199.98,-45.22L201.90,-37.28L225.72,-43.02L243.52,-38.90L257.20,-16.98L247.05,10.67L219.11,34.20L203.22,38.03ZM410.61,-112.74L400.75,-118.77L390.61,-91.12L378.84,-105.09L345.16,-105.39L313.09,-64.05L306.77,-20.52L322.36,9.34L340.16,13.46L356.04,9.63L374.13,-19.93L377.96,-4.05L387.81,1.99L409.73,-11.69L439.88,-60.97L430.03,-67.00L399.88,-17.72L391.93,-15.81ZM352.22,-6.25L344.28,-4.34L330.60,-26.25L338.83,-61.85L356.92,-91.41L372.81,-95.24L384.58,-81.27L386.49,-73.32L370.31,-35.82ZM465.33,-25.08L459.59,-48.91L449.74,-54.94L435.76,-43.17L441.50,-19.34L459.30,-15.23L475.18,-19.05L497.10,-32.73L509.16,-52.44L505.33,-68.33L487.83,-106.13L484.00,-122.01L497.98,-133.78L503.71,-109.95L513.57,-103.92L527.54,-115.69L521.81,-139.52L496.07,-141.72L466.21,-126.13L462.09,-108.33L465.91,-92.45L481.51,-62.59L485.33,-46.70L473.27,-26.99ZM640.65,-134.52L636.83,-150.41L625.06,-164.38L591.38,-164.67L557.40,-131.28L545.05,-77.89L560.64,-48.03L578.44,-43.91L594.32,-47.74L608.30,-59.51L632.42,-98.93L622.56,-104.96L598.44,-65.54L582.55,-61.71L568.88,-83.63L577.11,-119.22L595.20,-148.79L611.09,-152.61L616.82,-128.78L602.85,-117.02L579.02,-111.28L580.94,-103.34L620.65,-112.90Z" fill="#ffffff" stroke="#000000"/>
    <path d="M-493.89,-104.33L-514.43,-148.99L-527.90,-136.95L-569.01,-134.13L-588.15,-112.17L-589.58,-86.65L-573.29,-57.59L-549.21,-30.65L-527.24,-11.50L-523.00,4.09L-528.67,14.01L-542.14,26.06L-565.54,32.42L-599.54,-0.19L-607.34,1.93L-584.68,54.39L-571.21,42.34L-530.10,39.53L-503.16,15.44L-503.85,-17.87L-520.14,-46.93L-544.23,-73.88L-566.19,-93.02L-562.64,-110.74L-556.96,-120.66L-533.57,-127.03L-501.69,-102.21ZM-425.84,-131.23L-418.05,-133.36L-414.50,-151.07L-416.62,-158.87L-434.34,-162.42L-442.13,-160.30L-445.68,-142.58L-443.56,-134.78ZM-494.63,-45.51L-484.71,-39.83L-456.34,-89.43L-448.54,-91.55L-474.09,-0.85L-471.97,6.95L-462.05,12.62L-446.46,8.38L-432.99,-3.66L-404.62,-53.26L-414.54,-58.94L-442.91,-9.34L-450.70,-7.22L-425.15,-97.92L-427.27,-105.72L-444.99,-109.27L-466.26,-95.11ZM-313.91,-27.71L-306.11,-29.83L-292.64,-41.87L-264.27,-91.47L-274.19,-97.15L-302.56,-47.55L-310.36,-45.43L-280.52,-212.67L-335.10,-197.81L-332.97,-190.02L-309.58,-196.39L-313.87,-119.84L-325.91,-133.32L-359.22,-132.62L-389.72,-90.82L-394.70,-47.59L-378.41,-18.52L-360.69,-14.97L-345.10,-19.22L-328.07,-48.98L-323.83,-33.38ZM-349.34,-34.81L-357.14,-32.69L-371.30,-53.96L-364.20,-89.39L-347.18,-119.15L-331.59,-123.40L-319.54,-109.92L-317.42,-102.13L-332.32,-64.57ZM-161.48,-144.58L-165.73,-160.18L-177.77,-173.65L-211.08,-172.96L-243.70,-138.95L-254.35,-85.80L-238.06,-56.73L-220.35,-53.18L-204.75,-57.43L-191.28,-69.47L-168.58,-109.15L-178.50,-114.83L-201.20,-75.15L-216.79,-70.90L-230.96,-92.17L-223.86,-127.60L-206.83,-157.36L-191.24,-161.61L-184.87,-138.22L-198.34,-126.17L-221.73,-119.80L-219.61,-112.01L-180.63,-122.62ZM-159.36,-136.79L-149.44,-131.11L-121.07,-180.71L-113.27,-182.84L-136.70,-84.33L-126.78,-78.66L-111.19,-82.90L-96.98,-153.77L-79.96,-183.53L-66.49,-195.57L-56.57,-189.90L-76.45,-109.11L-74.33,-101.31L-64.41,-95.64L-48.81,-99.89L-35.34,-111.93L-6.97,-161.53L-16.89,-167.20L-45.26,-117.60L-53.06,-115.48L-31.05,-188.47L-37.42,-211.86L-62.94,-213.29L-84.21,-199.12L-101.23,-169.36L-97.68,-187.08L-99.80,-194.88L-109.72,-200.55L-130.99,-186.39ZM44.75,-125.36L60.35,-129.60L92.96,-163.61L103.62,-216.76L79.53,-243.70L46.22,-243.01L13.60,-209.00L2.95,-155.85L27.04,-128.91ZM50.47,-227.41L66.06,-231.66L80.23,-210.39L73.12,-174.96L56.10,-145.20L40.51,-140.95L26.34,-162.22L33.44,-197.66ZM149.66,-170.67L167.42,-259.26L190.81,-265.63L188.69,-273.42L165.30,-267.05L172.40,-302.49L156.81,-298.24L155.38,-272.73L141.91,-260.69L126.31,-256.44L128.44,-248.64L144.03,-252.89L126.27,-164.30L128.40,-156.51L138.32,-150.83L153.91,-155.08L167.38,-167.12L195.75,-216.72L185.83,-222.39L157.46,-172.80ZM306.34,-271.95L302.09,-287.55L290.05,-301.02L256.74,-300.32L224.12,-266.32L213.47,-213.17L229.76,-184.10L247.47,-180.55L263.07,-184.80L276.54,-196.84L299.24,-236.52L289.32,-242.19L266.62,-202.52L251.03,-198.27L236.86,-219.54L243.96,-254.97L260.98,-284.73L276.58,-288.98L282.95,-265.59L269.48,-253.54L246.09,-247.17L248.21,-239.38L287.19,-249.99ZM345.32,-282.57L353.12,-284.69L356.67,-302.41L354.55,-310.20L336.83,-313.76L329.03,-311.63L325.48,-293.92L327.61,-286.12ZM341.04,-206.03L348.83,-208.15L352.39,-225.87L350.26,-233.66L332.55,-237.21L324.75,-235.09L321.20,-217.37L323.32,-209.58ZM-663.00,228.13L-669.37,204.74L-666.51,153.72L-636.02,111.91L-620.42,107.67L-600.58,119.02L-594.22,142.41L-578.62,138.16L-567.27,118.32L-579.32,104.85L-622.55,99.87L-645.94,106.24L-672.88,130.32L-689.90,160.08L-699.13,187.72L-696.31,228.83L-670.10,263.57L-634.67,270.67L-603.48,262.18L-584.34,240.22L-567.31,210.46L-577.23,204.78L-594.26,234.54L-613.40,256.50L-628.99,260.75L-646.71,257.20ZM-529.76,225.36L-499.92,58.11L-554.50,72.97L-552.37,80.77L-528.98,74.40L-553.15,231.72L-551.02,239.52L-533.31,243.07L-512.04,228.91L-483.67,179.31L-493.59,173.63L-521.96,223.23ZM-419.13,77.99L-411.33,75.87L-407.78,58.15L-409.91,50.35L-427.62,46.80L-435.42,48.92L-438.97,66.64L-436.85,74.44ZM-487.91,163.71L-478.00,169.39L-449.62,119.79L-441.83,117.67L-467.38,208.37L-465.26,216.17L-455.34,221.85L-439.74,217.60L-426.27,205.56L-397.90,155.96L-407.82,150.28L-436.19,199.88L-443.99,202.01L-418.44,111.30L-420.56,103.50L-438.28,99.95L-459.54,114.12ZM-279.52,98.60L-268.17,78.76L-254.70,66.72L-244.78,72.39L-264.66,153.18L-262.54,160.98L-252.62,166.65L-237.02,162.41L-223.55,150.36L-195.18,100.76L-205.10,95.09L-233.47,144.69L-241.27,146.81L-219.27,73.82L-225.63,50.43L-251.15,49.00L-272.42,63.17L-283.76,83.01L-288.01,67.41L-305.73,63.86L-327.00,78.03L-344.02,107.79L-340.47,90.07L-342.59,82.27L-352.51,76.60L-373.78,90.76L-402.15,140.36L-392.23,146.04L-363.86,96.44L-356.06,94.32L-379.49,192.82L-369.57,198.49L-353.98,194.25L-339.77,123.38L-322.75,93.62L-309.28,81.58L-299.36,87.25L-317.12,175.84L-307.20,181.51L-291.60,177.27ZM-85.29,12.22L-95.21,6.55L-104.43,34.18L-116.48,20.71L-149.79,21.41L-180.28,63.21L-185.26,106.44L-168.97,135.50L-151.26,139.05L-135.66,134.81L-118.64,105.05L-114.39,120.64L-104.47,126.32L-83.21,112.15L-54.84,62.55L-64.75,56.88L-93.13,106.48L-100.92,108.60ZM-139.91,119.22L-147.70,121.34L-161.87,100.07L-154.77,64.64L-137.74,34.88L-122.15,30.63L-110.11,44.10L-107.99,51.90L-122.89,89.46ZM-22.95,87.37L-5.20,-1.21L18.19,-7.58L16.07,-15.38L-7.32,-9.01L-0.22,-44.44L-15.81,-40.20L-17.24,-14.68L-30.71,-2.64L-46.30,1.61L-44.18,9.40L-28.59,5.16L-46.34,93.74L-44.22,101.54L-34.30,107.21L-18.71,102.97L-5.24,90.92L23.13,41.33L13.21,35.65L-15.16,85.25ZM133.72,-13.91L129.48,-29.50L117.43,-42.97L84.12,-42.28L51.51,-8.27L40.85,44.88L57.14,73.94L74.86,77.49L90.45,73.25L103.92,61.20L126.62,21.53L116.70,15.85L94.00,55.53L78.41,59.78L64.24,38.51L71.35,3.07L88.37,-26.68L103.96,-30.93L110.33,-7.54L96.86,4.50L73.47,10.87L75.59,18.67L114.58,8.05ZM149.35,-110.29L169.19,-98.94L164.17,36.43L152.83,56.26L230.80,35.04L265.54,8.83L280.44,-28.73L264.15,-57.79L238.63,-59.22L252.10,-71.26L269.13,-101.02L252.84,-130.09L211.73,-127.27ZM187.57,30.06L192.59,-105.31L198.26,-115.23L213.85,-119.47L231.57,-115.92L237.94,-92.53L228.71,-64.90L207.45,-50.73L191.85,-46.48L193.97,-38.69L217.37,-45.06L235.08,-41.50L249.25,-20.24L240.02,7.40L213.08,31.49L197.49,35.73ZM398.12,-119.39L388.20,-125.07L378.98,-97.43L366.94,-110.90L333.63,-110.21L303.13,-68.41L298.15,-25.18L314.44,3.89L332.16,7.44L347.75,3.19L364.77,-26.57L369.02,-10.97L378.94,-5.30L400.21,-19.46L428.58,-69.06L418.66,-74.74L390.29,-25.14L382.49,-23.01ZM343.51,-12.40L335.71,-10.28L321.54,-31.54L328.65,-66.98L345.67,-96.74L361.26,-100.98L373.30,-87.51L375.43,-79.72L360.53,-42.16ZM454.79,-34.32L448.42,-57.71L438.50,-63.39L425.03,-51.34L431.40,-27.95L449.11,-24.40L464.71,-28.65L485.97,-42.81L497.32,-62.65L493.08,-78.25L474.67,-115.11L470.42,-130.70L483.89,-142.75L490.26,-119.35L500.18,-113.68L513.65,-125.72L507.28,-149.11L481.77,-150.54L452.70,-134.25L449.15,-116.54L453.40,-100.94L469.69,-71.88L473.93,-56.28L462.58,-36.44ZM624.93,-147.65L620.69,-163.24L608.64,-176.71L575.33,-176.02L542.72,-142.01L532.06,-88.86L548.35,-59.80L566.07,-56.24L581.66,-60.49L595.13,-72.53L617.83,-112.21L607.91,-117.89L585.21,-78.21L569.62,-73.96L555.45,-95.23L562.56,-130.66L579.58,-160.42L595.17,-164.67L601.54,-141.28L588.07,-129.23L564.68,-122.87L566.80,-115.07L605.79,-125.68Z" fill="#ffffff" stroke="#000000"/>
    <path d="M-495.68,-84.56L-517.28,-128.11L-530.25,-115.81L-570.81,-111.82L-589.09,-89.55L-589.76,-64.29L-572.81,-36.03L-548.21,-10.10L-525.94,8.18L-521.29,23.48L-526.61,33.45L-539.57,45.75L-562.51,52.73L-597.08,21.48L-604.73,23.80L-580.80,75.00L-567.83,62.70L-527.27,58.71L-501.34,34.12L-503.00,1.21L-519.95,-27.05L-544.55,-52.98L-566.82,-71.27L-563.83,-88.89L-558.51,-98.86L-535.57,-105.84L-503.33,-82.23ZM-429.19,-113.14L-421.55,-115.47L-418.55,-133.09L-420.88,-140.73L-438.50,-143.73L-446.14,-141.40L-449.14,-123.78L-446.81,-116.14ZM-494.69,-26.39L-484.72,-21.07L-458.12,-70.93L-450.47,-73.25L-473.08,17.16L-470.76,24.81L-460.79,30.13L-445.49,25.48L-432.53,13.18L-405.93,-36.68L-415.90,-42.00L-442.50,7.86L-450.15,10.19L-427.53,-80.23L-429.86,-87.88L-447.48,-90.87L-468.09,-76.25ZM-315.51,-14.07L-307.87,-16.40L-294.90,-28.69L-268.30,-78.56L-278.28,-83.88L-304.87,-34.01L-312.52,-31.69L-287.91,-197.90L-341.43,-181.61L-339.10,-173.97L-316.16,-180.95L-318.17,-105.15L-330.46,-118.12L-363.37,-116.46L-392.30,-74.25L-395.96,-31.36L-379.01,-3.11L-361.39,-0.11L-346.10,-4.76L-330.14,-34.68L-325.49,-19.39ZM-350.75,-20.06L-358.40,-17.73L-373.02,-38.34L-367.03,-73.58L-351.08,-103.49L-335.78,-108.15L-323.48,-95.18L-321.16,-87.54L-334.79,-49.97ZM-168.24,-134.06L-172.89,-149.35L-185.19,-162.32L-218.10,-160.66L-249.35,-126.09L-258.33,-73.24L-241.38,-44.98L-223.76,-41.99L-208.47,-46.64L-195.50,-58.94L-174.23,-98.83L-184.20,-104.15L-205.48,-64.26L-220.77,-59.60L-235.39,-80.22L-229.41,-115.45L-213.45,-145.37L-198.16,-150.02L-191.18,-127.08L-204.14,-114.78L-227.08,-107.81L-224.75,-100.16L-186.52,-111.79ZM-165.91,-126.42L-155.94,-121.10L-129.34,-170.96L-121.70,-173.28L-141.98,-75.22L-132.01,-69.90L-116.72,-74.55L-104.75,-145.03L-88.79,-174.94L-75.82,-187.24L-65.85,-181.92L-83.14,-101.48L-80.82,-93.83L-70.84,-88.51L-55.55,-93.16L-42.59,-105.46L-15.99,-155.32L-25.96,-160.64L-52.56,-110.78L-60.20,-108.46L-40.58,-181.26L-47.56,-204.19L-72.83,-204.86L-93.44,-190.24L-109.40,-160.32L-106.41,-177.94L-108.73,-185.58L-118.70,-190.90L-139.32,-176.28ZM36.20,-121.08L51.49,-125.73L82.74,-160.30L91.72,-213.16L67.13,-239.09L34.22,-237.43L2.96,-202.86L-6.02,-150.00L18.58,-124.07ZM38.87,-222.14L54.16,-226.79L68.78,-206.18L62.80,-170.94L46.84,-141.02L31.55,-136.37L16.92,-156.98L22.91,-192.22ZM138.59,-168.94L153.56,-257.03L176.49,-264.01L174.17,-271.66L151.23,-264.68L157.22,-299.91L141.93,-295.26L141.26,-270.00L128.29,-257.70L113.00,-253.05L115.33,-245.40L130.62,-250.05L115.65,-161.96L117.98,-154.32L127.95,-149.00L143.24,-153.65L156.21,-165.95L182.81,-215.81L172.83,-221.13L146.24,-171.27ZM290.52,-273.64L285.86,-288.93L273.57,-301.90L240.66,-300.24L209.40,-265.67L200.42,-212.81L217.38,-184.56L234.99,-181.56L250.29,-186.22L263.25,-198.51L284.53,-238.40L274.56,-243.72L253.28,-203.83L237.99,-199.18L223.36,-219.79L229.35,-255.03L245.31,-284.95L260.60,-289.60L267.58,-266.66L254.61,-254.36L231.68,-247.38L234.00,-239.74L272.23,-251.37ZM328.75,-285.27L336.39,-287.60L339.39,-305.22L337.06,-312.86L319.44,-315.86L311.80,-313.53L308.80,-295.91L311.13,-288.27ZM326.75,-209.48L334.39,-211.81L337.38,-229.42L335.06,-237.07L317.44,-240.06L309.79,-237.74L306.80,-220.12L309.13,-212.47ZM-653.15,249.05L-660.12,226.11L-658.79,175.58L-629.87,133.37L-614.57,128.71L-594.63,139.35L-587.65,162.29L-572.36,157.64L-561.72,137.69L-574.02,124.73L-616.90,121.07L-639.84,128.05L-665.77,152.64L-681.73,182.56L-690.04,210.15L-686.06,250.71L-659.13,284.28L-623.90,290.27L-593.31,280.97L-575.03,258.69L-559.07,228.78L-569.04,223.46L-585.00,253.37L-603.28,275.65L-618.58,280.30L-636.19,277.30ZM-521.51,242.41L-496.89,76.20L-550.41,92.48L-548.09,100.13L-525.15,93.15L-544.44,249.39L-542.12,257.03L-524.50,260.03L-503.89,245.40L-477.29,195.54L-487.26,190.22L-513.86,240.08ZM-416.45,93.49L-408.80,91.17L-405.81,73.55L-408.13,65.90L-425.75,62.91L-433.40,65.24L-436.39,82.85L-434.06,90.50ZM-481.94,180.25L-471.97,185.57L-445.37,135.71L-437.73,133.38L-460.34,223.80L-458.01,231.45L-448.04,236.77L-432.75,232.11L-419.78,219.81L-393.18,169.95L-403.16,164.63L-429.75,214.49L-437.40,216.82L-414.79,126.40L-417.11,118.76L-434.73,115.76L-455.34,130.39ZM-277.83,109.79L-267.19,89.85L-254.22,77.55L-244.25,82.87L-261.54,163.32L-259.22,170.96L-249.24,176.28L-233.95,171.63L-220.99,159.33L-194.39,109.47L-204.36,104.15L-230.96,154.01L-238.61,156.34L-218.99,83.54L-225.97,60.60L-251.23,59.93L-271.84,74.56L-282.48,94.50L-287.13,79.21L-304.75,76.22L-325.36,90.84L-341.32,120.76L-338.33,103.14L-340.65,95.49L-350.63,90.17L-371.24,104.80L-397.84,154.66L-387.86,159.98L-361.27,110.12L-353.62,107.79L-373.91,205.86L-363.93,211.18L-348.64,206.52L-336.67,136.05L-320.71,106.13L-307.74,93.84L-297.77,99.15L-312.74,187.25L-302.77,192.57L-287.47,187.91ZM-88.34,18.73L-98.31,13.41L-106.62,41.00L-118.92,28.03L-151.83,29.69L-180.76,71.91L-184.42,114.79L-167.47,143.05L-149.85,146.04L-134.56,141.39L-118.60,111.47L-113.94,126.76L-103.97,132.08L-83.36,117.46L-56.76,67.60L-66.73,62.28L-93.33,112.14L-100.98,114.46ZM-139.21,126.09L-146.85,128.42L-161.48,107.81L-155.49,72.57L-139.53,42.66L-124.24,38.00L-111.94,50.97L-109.62,58.62L-123.25,96.18ZM-24.52,91.20L-9.55,3.11L13.39,-3.87L11.06,-11.52L-11.88,-4.54L-5.89,-39.77L-21.18,-35.12L-21.85,-9.86L-34.82,2.44L-50.11,7.10L-47.78,14.74L-32.49,10.09L-47.46,98.18L-45.13,105.83L-35.16,111.14L-19.87,106.49L-6.90,94.19L19.70,44.33L9.73,39.01L-16.87,88.87ZM127.41,-13.50L122.75,-28.79L110.46,-41.76L77.55,-40.10L46.30,-5.53L37.32,47.33L54.27,75.58L71.88,78.58L87.18,73.92L100.14,61.63L121.42,21.74L111.45,16.42L90.17,56.31L74.88,60.96L60.25,40.35L66.24,5.11L82.20,-24.81L97.49,-29.46L104.47,-6.52L91.50,5.78L68.57,12.76L70.89,20.40L109.12,8.77ZM140.05,-109.24L159.99,-98.60L158.98,35.37L148.34,55.31L224.80,32.05L258.38,5.13L272.01,-32.44L255.06,-60.69L229.80,-61.36L242.76,-73.66L258.72,-103.58L241.77,-131.83L201.22,-127.85ZM181.92,28.39L182.93,-105.58L188.25,-115.55L203.54,-120.20L221.16,-117.21L228.14,-94.27L219.83,-66.68L199.21,-52.05L183.92,-47.40L186.25,-39.76L209.19,-46.74L226.80,-43.74L241.43,-23.13L233.12,4.46L207.19,29.06L191.89,33.71ZM385.71,-125.50L375.74,-130.82L367.42,-103.23L355.13,-116.20L322.22,-114.54L293.29,-72.32L289.63,-29.44L306.58,-1.18L324.20,1.81L339.49,-2.84L355.45,-32.76L360.10,-17.47L370.08,-12.15L390.69,-26.77L417.29,-76.64L407.31,-81.95L380.72,-32.09L373.07,-29.77ZM334.84,-18.14L327.19,-15.81L312.57,-36.42L318.56,-71.66L334.51,-101.57L349.81,-106.23L362.11,-93.26L364.43,-85.62L350.80,-48.05ZM444.21,-43.06L437.23,-66.00L427.26,-71.32L414.29,-59.02L421.27,-36.08L438.89,-33.09L454.18,-37.74L474.79,-52.36L485.43,-72.31L480.78,-87.60L461.50,-123.50L456.85,-138.79L469.82,-151.09L476.79,-128.16L486.77,-122.84L499.73,-135.13L492.75,-158.07L467.49,-158.74L439.23,-141.79L436.24,-124.17L440.89,-108.88L457.84,-80.62L462.49,-65.33L451.86,-45.38ZM609.10,-160.06L604.45,-175.35L592.15,-188.31L559.24,-186.65L527.99,-152.09L519.01,-99.23L535.96,-70.97L553.58,-67.98L568.87,-72.63L581.84,-84.93L603.11,-124.82L593.14,-130.14L571.86,-90.25L556.57,-85.60L541.95,-106.21L547.93,-141.45L563.89,-171.36L579.18,-176.02L586.16,-153.08L573.20,-140.78L550.26,-133.80L552.59,-126.15L590.82,-137.79Z" fill="#ffffff" stroke="#000000"/>
    <path d="M-903.88,492L-906.92,488.96L-902.36,482.88L-893.24,482.88L-891.72,484.40L-891.72,488.96L-894.76,492L-884.12,492L-887.16,488.96L-887.16,460.08L-891.72,463.12L-891.72,464.64L-909.96,488.96L-914.52,492ZM-891.72,467.68L-891.72,479.84L-893.24,481.36L-900.84,481.36L-899.32,478.32ZM-862.84,476.80L-864.36,481.36L-870.44,487.44L-875,488.96L-876.52,488.96L-867.40,475.28L-867.40,472.24L-870.44,470.72L-875,472.24L-882.60,479.84L-881.08,481.36L-873.48,473.76L-871.96,473.76L-881.08,488.96L-881.08,490.48L-879.56,492L-876.52,492L-868.92,488.96L-862.84,482.88L-859.80,476.80L-859.80,473.76L-861.32,472.24L-864.36,472.24L-865.88,475.28L-864.36,476.80ZM-835.48,472.24L-837,470.72L-840.04,475.28L-841.56,472.24L-847.64,470.72L-855.24,476.80L-858.28,484.40L-856.76,490.48L-853.72,492L-850.68,492L-846.12,487.44L-846.12,490.48L-844.60,492L-840.04,490.48L-832.44,482.88L-833.96,481.36L-841.56,488.96L-843.08,488.96ZM-850.68,488.96L-852.20,488.96L-853.72,484.40L-850.68,478.32L-846.12,473.76L-843.08,473.76L-841.56,476.80L-841.56,478.32L-846.12,484.40ZM-832.44,479.84L-830.92,481.36L-823.32,473.76L-821.80,473.76L-830.92,490.48L-829.40,492L-826.36,492L-820.28,479.84L-815.72,476.80L-811.16,476.80L-809.64,472.24L-812.68,470.72L-815.72,472.24L-820.28,478.32L-821.80,478.32L-818.76,473.76L-818.76,472.24L-820.28,470.72L-824.84,472.24ZM-788.36,472.24L-789.88,470.72L-792.92,475.28L-794.44,472.24L-800.52,470.72L-808.12,476.80L-811.16,484.40L-809.64,490.48L-806.60,492L-803.56,492L-799,487.44L-799,490.48L-797.48,492L-792.92,490.48L-785.32,482.88L-786.84,481.36L-794.44,488.96L-795.96,488.96ZM-803.56,488.96L-805.08,488.96L-806.60,484.40L-803.56,478.32L-799,473.76L-795.96,473.76L-794.44,476.80L-794.44,478.32L-799,484.40ZM-783.80,479.84L-783.80,482.88L-774.68,482.88L-774.68,479.84ZM-765.56,461.60L-762.52,464.64L-770.12,488.96L-773.16,492L-757.96,492L-750.36,488.96L-745.80,482.88L-747.32,476.80L-751.88,475.28L-748.84,473.76L-744.28,469.20L-745.80,463.12L-753.40,461.60ZM-765.56,488.96L-757.96,464.64L-756.44,463.12L-753.40,463.12L-750.36,464.64L-750.36,469.20L-753.40,473.76L-757.96,475.28L-761,475.28L-761,476.80L-756.44,476.80L-753.40,478.32L-751.88,482.88L-754.92,487.44L-761,490.48L-764.04,490.48ZM-736.68,492L-733.64,492L-726.04,487.44L-721.48,478.32L-724.52,472.24L-730.60,470.72L-738.20,475.28L-742.76,484.40L-739.72,490.48ZM-730.60,473.76L-727.56,473.76L-726.04,478.32L-729.08,484.40L-733.64,488.96L-736.68,488.96L-738.20,484.40L-735.16,478.32ZM-715.40,488.96L-701.72,460.08L-712.36,460.08L-712.36,461.60L-707.80,461.60L-719.96,488.96L-719.96,490.48L-716.92,492L-712.36,490.48L-704.76,482.88L-706.28,481.36L-713.88,488.96ZM-689.56,492L-688.04,492L-685,490.48L-677.40,482.88L-678.92,481.36L-686.52,488.96L-688.04,488.96L-674.36,460.08L-685,460.08L-685,461.60L-680.44,461.60L-685,475.28L-686.52,472.24L-692.60,470.72L-700.20,476.80L-703.24,484.40L-701.72,490.48L-698.68,492L-695.64,492L-691.08,487.44L-691.08,490.48ZM-695.64,488.96L-697.16,488.96L-698.68,484.40L-695.64,478.32L-691.08,473.76L-688.04,473.76L-686.52,476.80L-686.52,478.32L-691.08,484.40ZM-669.80,488.96L-662.20,464.64L-657.64,461.60L-669.80,461.60L-666.76,464.64L-674.36,488.96L-678.92,492L-666.76,492ZM-657.64,488.96L-650.04,473.76L-645.48,473.76L-645.48,472.24L-650.04,472.24L-647,466.16L-650.04,466.16L-651.56,470.72L-654.60,472.24L-657.64,472.24L-657.64,473.76L-654.60,473.76L-662.20,488.96L-662.20,490.48L-660.68,492L-657.64,492L-654.60,490.48L-647,482.88L-648.52,481.36L-656.12,488.96ZM-621.16,472.24L-622.68,470.72L-625.72,475.28L-627.24,472.24L-633.32,470.72L-640.92,476.80L-643.96,484.40L-642.44,490.48L-639.40,492L-636.36,492L-631.80,487.44L-631.80,490.48L-630.28,492L-625.72,490.48L-618.12,482.88L-619.64,481.36L-627.24,488.96L-628.76,488.96ZM-636.36,488.96L-637.88,488.96L-639.40,484.40L-636.36,478.32L-631.80,473.76L-628.76,473.76L-627.24,476.80L-627.24,478.32L-631.80,484.40ZM-613.56,488.96L-599.88,460.08L-610.52,460.08L-610.52,461.60L-605.96,461.60L-618.12,488.96L-618.12,490.48L-615.08,492L-610.52,490.48L-602.92,482.88L-604.44,481.36L-612.04,488.96ZM-586.20,467.68L-584.68,467.68L-583.16,464.64L-583.16,463.12L-586.20,461.60L-587.72,461.60L-589.24,464.64L-589.24,466.16ZM-602.92,479.84L-601.40,481.36L-593.80,473.76L-592.28,473.76L-601.40,488.96L-601.40,490.48L-599.88,492L-596.84,492L-593.80,490.48L-586.20,482.88L-587.72,481.36L-595.32,488.96L-596.84,488.96L-587.72,473.76L-587.72,472.24L-590.76,470.72L-595.32,472.24ZM-564.92,478.32L-564.92,475.28L-566.44,472.24L-572.52,470.72L-580.12,475.28L-584.68,484.40L-583.16,490.48L-580.12,492L-577.08,492L-574.04,490.48L-567.96,484.40L-569.48,482.88L-575.56,488.96L-578.60,488.96L-580.12,484.40L-577.08,478.32L-572.52,473.76L-569.48,473.76L-569.48,478.32Z"/>
</svg>