<?xml version="1.0"?>
<svg xmlns="http://www.w3.org/2000/svg" width="1920" height="1080" viewBox="-960 -540 1920 1080">
    <path d="M-469.31,-147L-469.31,-165.87L-558.77,-165.87L-558.77,-306.84L-579.86,-306.84L-579.86,-147ZM-400.94,-266.99L-440.68,-250.46L-455.96,-204.72L-440.68,-158.98L-400.94,-142.45L-361.19,-158.99L-345.90,-204.72L-361.18,-250.46ZM-400.94,-159.43L-424.96,-170.01L-435.57,-204.70L-424.96,-239.41L-400.94,-250.00L-376.89,-239.41L-366.27,-204.70L-376.89,-170.01ZM-281.50,-147L-257.52,-235.58L-235.32,-147L-215.12,-147L-180.26,-258.89L-197.36,-264.22L-224.44,-173.42L-247.75,-262.44L-267.95,-262.44L-291.71,-170.98L-317.24,-264.22L-335.66,-258.89L-302.14,-147ZM-166.28,-212.61L-77.12,-266.27L-67.17,-249.95L-128.85,-214.71L27.18,-214.71L27.18,-196.81L-128.95,-196.81L-67.22,-161.54L-77.16,-145.22L-166.28,-198.87ZM117.44,-147L117.44,-287.97L171.16,-287.97L171.16,-306.84L42.62,-306.84L42.62,-287.97L96.35,-287.97L96.35,-147ZM214.33,-168.96L202.69,-199.60L288.38,-199.61L289.49,-207.61L276.27,-249.90L236.22,-267.08L197.05,-250.55L182.33,-204.81L197.05,-159.07L236.22,-142.54L269.20,-152.28L284.38,-176.08L268.83,-185.79L256.72,-166.04L237.35,-159.53ZM203.35,-215.60L215.89,-242.02L236.20,-250.12L258.85,-240.49L267.95,-215.60ZM357.06,-159.43L333.59,-170.02L323.55,-204.72L333.59,-239.43L357.06,-250.02L375.22,-243.70L386.27,-223.28L403.47,-231.89L388.64,-256.66L357.06,-266.99L317.88,-250.46L303.16,-204.72L317.87,-158.98L357.06,-142.45L388.64,-152.67L403.24,-176.87L386.27,-185.92L375.21,-165.70ZM426.46,-147L446.59,-147L446.59,-209.83L455.25,-239.07L477.81,-249.32L496.55,-240.67L501.95,-217.08L501.94,-147L521.87,-147L521.96,-217.24L514.37,-252.61L481.88,-266.54L460.57,-261.65L446.56,-246.68L446.56,-306.84L426.46,-306.84ZM-441.67,52.80L-441.67,-79.96L-394.16,52.80L-375.29,52.80L-327.78,-79.96L-327.78,52.80L-306.69,52.80L-306.69,-107.04L-335.78,-107.04L-384.39,25.49L-431.90,-107.04L-462.76,-107.04L-462.76,52.80ZM-204.04,-24.62L-269.14,-4.65L-282.39,22.95L-270.50,49.16L-242.32,57.37L-221.65,53.35L-202.71,39.45L-202.80,52.80L-184.15,52.80L-184.12,-21.67L-194.63,-55.56L-229.18,-67.19L-260.26,-59.60L-275.37,-37.07L-259.52,-27.33L-249.35,-44.88L-231.22,-50.88L-211.79,-45.20ZM-204.04,-6.96L-204.05,22.27L-218.18,34.64L-239.13,41.07L-254.17,37.17L-261.09,22.06L-252.18,6.37ZM-110.02,101.10L-68.67,83.74L-58.72,45.25L-58.72,-62.64L-76.48,-62.64L-76.48,-47.10L-89.56,-61.85L-109.80,-67.62L-147.28,-50.25L-160.28,-5.36L-147.28,39.54L-109.80,56.91L-91.92,52.65L-78.70,40.59L-78.76,49.06L-85.82,74.90L-109.55,83.88L-128.04,78.67L-135.31,63.01L-151.29,70.34L-141.22,91.58ZM-108.66,-50.63L-86.60,-39.19L-76.26,-5.34L-85.76,28.51L-108.66,39.94L-130.98,28.51L-139.89,-5.34L-130.98,-39.19ZM40.83,-24.62L-24.27,-4.65L-37.52,22.95L-25.63,49.16L2.54,57.37L23.21,53.35L42.16,39.45L42.07,52.80L60.72,52.80L60.74,-21.67L50.23,-55.56L15.69,-67.19L-15.39,-59.60L-30.50,-37.07L-14.66,-27.33L-4.48,-44.88L13.65,-50.88L33.08,-45.20ZM40.83,-6.96L40.82,22.27L26.69,34.64L5.74,41.07L-9.31,37.17L-16.22,22.06L-7.31,6.37ZM178.82,52.80L178.82,36.15L108.22,36.15L177.49,-45.99L177.49,-62.64L90.02,-62.64L90.02,-45.99L153.96,-45.99L85.80,36.15L85.80,52.80ZM217.29,-81.94L224.51,-89.84L224.53,-101.13L217.17,-109.22L206.90,-109.22L199.74,-101.15L199.73,-89.88L207.03,-81.94ZM222.11,52.80L222.11,-62.64L202.13,-62.64L202.13,52.80ZM250.42,52.80L270.40,52.80L270.40,-10.03L279.07,-39.69L301.65,-49.94L320.36,-41.28L325.79,-18.02L325.79,52.80L345.77,52.80L345.77,-18.02L338.20,-53.23L305.71,-67.16L284.14,-62.40L268.40,-45.99L268.40,-62.64L250.42,-62.64ZM398.48,30.84L386.84,0.20L472.53,0.19L473.64,-7.81L460.42,-50.10L420.37,-67.28L381.20,-50.75L366.48,-5.01L381.20,40.73L420.37,57.26L453.35,47.52L468.53,23.72L452.97,14.01L440.87,33.76L421.50,40.27ZM387.50,-15.80L400.04,-42.22L420.35,-50.32L443.00,-40.69L452.10,-15.80Z" fill="#ffffff" stroke="#000000"/>
    <path d="M-467.58,-152.03L-467.20,-170.71L-555.76,-172.49L-552.94,-312.03L-573.82,-312.45L-577.01,-154.24ZM-397.51,-269.43L-437.18,-253.86L-453.21,-208.90L-439.00,-163.32L-400.00,-146.16L-360.33,-161.73L-344.28,-206.70L-358.49,-252.28ZM-399.66,-162.96L-423.23,-173.92L-433.03,-208.47L-421.84,-242.61L-397.85,-252.61L-374.26,-241.65L-364.44,-207.08L-375.65,-172.96ZM-281.69,-148.28L-256.18,-235.47L-235.98,-147.35L-215.98,-146.95L-179.25,-257.00L-196.06,-262.61L-224.69,-173.28L-245.98,-261.86L-265.97,-262.27L-291.31,-172.21L-314.72,-265.01L-333.07,-260.10L-302.12,-148.69ZM-166.34,-210.92L-77.01,-262.25L-67.49,-245.90L-129.24,-212.25L25.20,-209.13L24.84,-191.41L-129.71,-194.53L-69.30,-158.39L-79.47,-142.43L-166.61,-197.31ZM113.18,-140.30L116.00,-279.84L169.17,-278.76L169.55,-297.44L42.32,-300.01L41.94,-281.33L95.12,-280.26L92.30,-140.73ZM209.52,-160.10L198.61,-190.66L283.43,-188.97L284.68,-196.85L272.44,-238.98L233.15,-256.78L194.05,-241.20L178.57,-196.22L192.22,-150.66L230.66,-133.51L263.50,-142.50L279.00,-165.75L263.80,-175.68L251.42,-156.37L232.12,-150.31ZM199.59,-206.49L212.53,-232.39L232.79,-240.00L255.02,-230.02L263.53,-205.19ZM350.61,-147.82L327.59,-158.77L318.34,-193.32L328.97,-227.47L352.42,-237.48L370.26,-230.87L380.79,-210.44L397.99,-218.62L383.81,-243.42L352.76,-254.28L313.64,-238.71L298.16,-193.73L311.80,-148.16L350.27,-131.02L381.73,-140.49L396.66,-164.16L380.05,-173.45L368.69,-153.67ZM419.05,-134.13L438.97,-133.73L440.22,-195.91L449.38,-224.69L471.92,-234.38L490.29,-225.44L495.17,-201.99L493.76,-132.62L513.49,-132.22L514.98,-201.75L508.17,-236.90L476.29,-251.34L455.11,-246.93L440.93,-232.39L442.13,-291.94L422.24,-292.34ZM-444.22,46.29L-441.56,-85.12L-397.19,47.23L-378.52,47.61L-328.84,-82.84L-331.49,48.56L-310.62,48.98L-307.42,-109.23L-336.21,-109.81L-386.98,20.40L-431.35,-111.73L-461.90,-112.35L-465.09,45.86ZM-207.46,-25.60L-272.30,-7.13L-285.96,19.92L-274.72,46.10L-247.00,54.79L-226.46,51.22L-207.43,37.84L-207.78,51.06L-189.32,51.43L-187.81,-22.28L-197.54,-56.03L-231.50,-68.24L-262.41,-61.35L-277.82,-39.35L-262.33,-29.39L-251.91,-46.55L-233.84,-52.13L-214.72,-46.12ZM-207.82,-8.11L-208.41,20.81L-222.64,32.78L-243.51,38.72L-258.32,34.56L-264.86,19.47L-255.73,4.11ZM-116.92,100.71L-75.64,84.37L-65.02,46.47L-62.87,-60.32L-80.45,-60.68L-80.76,-45.30L-93.41,-60.16L-113.32,-66.28L-150.77,-49.83L-164.54,-5.65L-152.56,39.04L-115.81,56.99L-98.03,53.13L-84.71,41.45L-84.93,49.84L-92.44,75.27L-116.11,83.68L-134.30,78.15L-141.19,62.51L-157.15,69.45L-147.61,90.67ZM-112.54,-49.44L-90.93,-37.67L-81.38,-3.96L-91.45,29.35L-114.35,40.21L-136.21,28.45L-144.36,-5.23L-134.86,-38.56ZM34.90,-20.70L-29.93,-2.24L-43.59,24.81L-32.35,51.00L-4.63,59.68L15.91,56.12L34.94,42.74L34.59,55.95L53.04,56.32L54.56,-17.39L44.83,-51.14L10.87,-63.34L-20.04,-56.45L-35.45,-34.46L-19.96,-24.50L-9.54,-41.66L8.53,-47.24L27.64,-41.22ZM34.55,-3.22L33.96,25.70L19.73,37.67L-1.14,43.62L-15.95,39.46L-22.50,24.36L-13.36,9.01ZM169.94,58.68L170.28,42.20L100.40,40.79L170.60,-39.12L170.93,-55.60L84.36,-57.35L84.02,-40.87L147.31,-39.59L78.21,40.35L77.87,56.83ZM210.71,-73.91L218.02,-81.59L218.26,-92.76L211.14,-100.92L200.98,-101.13L193.72,-93.28L193.49,-82.12L200.55,-74.12ZM212.79,59.55L215.10,-54.71L195.32,-55.11L193.02,59.15ZM240.81,60.11L260.59,60.51L261.84,-1.67L271.01,-30.86L293.57,-40.55L311.92,-31.61L316.82,-8.47L315.41,61.62L335.18,62.02L336.60,-8.08L329.82,-43.07L297.94,-57.51L276.49,-53.24L260.59,-37.31L260.92,-53.79L243.12,-54.15ZM387.80,41.34L376.89,10.78L461.70,12.48L462.96,4.59L450.72,-37.53L411.42,-55.34L372.32,-39.76L356.84,5.22L370.50,50.79L408.94,67.93L441.78,58.95L457.28,35.69L442.08,25.77L429.70,45.07L410.40,51.13ZM377.86,-5.04L390.80,-30.95L411.07,-38.56L433.30,-28.58L441.81,-3.75Z" fill="#ffffff" stroke="#000000"/>
    <path d="M-465.72,-157.10L-464.97,-175.58L-552.58,-179.12L-547.00,-317.16L-567.65,-317.99L-573.98,-161.48ZM-394.03,-271.90L-433.60,-257.28L-450.36,-213.10L-437.21,-167.70L-398.95,-149.95L-359.38,-164.57L-342.60,-208.75L-355.75,-254.14ZM-398.28,-166.57L-421.39,-177.88L-430.40,-212.27L-418.64,-245.84L-394.70,-255.26L-371.57,-243.94L-362.55,-209.53L-374.32,-175.98ZM-281.81,-149.68L-254.83,-235.46L-236.60,-147.85L-216.82,-147.05L-178.26,-255.23L-194.79,-261.13L-224.90,-173.29L-244.21,-261.38L-263.99,-262.18L-290.87,-173.56L-312.18,-265.87L-330.43,-261.38L-302.03,-150.49ZM-166.40,-209.37L-76.97,-258.38L-67.88,-242.01L-129.66,-209.94L23.12,-203.77L22.42,-186.24L-130.48,-192.41L-71.42,-155.44L-81.80,-139.86L-166.95,-195.91ZM108.82,-133.90L114.40,-271.93L167.00,-269.81L167.75,-288.29L41.89,-293.37L41.14,-274.89L93.75,-272.77L88.17,-134.73ZM204.57,-151.57L194.38,-182.03L278.29,-178.66L279.69,-186.44L268.42,-228.37L229.88,-246.78L190.87,-232.14L174.65,-187.93L187.25,-142.56L224.96,-124.83L257.64,-133.06L273.44,-155.77L258.60,-165.90L245.96,-147.03L226.74,-141.42ZM195.66,-197.67L208.99,-223.05L229.19,-230.18L250.99,-219.85L258.92,-195.11ZM343.95,-136.59L321.39,-147.89L312.93,-182.27L324.14,-215.85L347.54,-225.29L365.07,-218.39L375.08,-197.96L392.26,-205.71L378.72,-230.54L348.21,-241.91L309.19,-227.28L292.96,-183.07L305.56,-137.70L343.28,-119.97L374.61,-128.72L389.86,-151.84L373.60,-161.37L361.97,-142.02ZM411.42,-121.67L431.12,-120.88L433.61,-182.40L443.25,-210.69L465.75,-219.84L483.75,-210.62L488.11,-187.31L485.33,-118.69L504.84,-117.90L507.71,-186.68L501.68,-221.61L470.42,-236.54L449.36,-232.59L435.04,-218.48L437.42,-277.39L417.74,-278.19ZM-446.56,39.63L-441.31,-90.36L-400.04,41.51L-381.56,42.26L-329.79,-85.86L-335.04,44.14L-314.39,44.97L-308.07,-111.54L-336.55,-112.69L-389.39,15.16L-430.67,-116.50L-460.89,-117.72L-467.21,38.80ZM-210.81,-26.78L-275.34,-9.80L-289.41,16.70L-278.80,42.84L-251.54,51.99L-231.14,48.87L-212.04,36.01L-212.66,49.08L-194.40,49.82L-191.42,-23.10L-200.37,-56.70L-233.74,-69.46L-264.48,-63.26L-280.16,-41.79L-265.03,-31.63L-254.38,-48.40L-236.39,-53.56L-217.58,-47.23ZM-211.51,-9.48L-212.67,19.13L-227.00,30.69L-247.77,36.16L-262.35,31.75L-268.52,16.67L-259.17,1.66ZM-123.72,100.04L-82.54,84.69L-71.28,47.39L-67.01,-58.26L-84.40,-58.96L-85.01,-43.74L-97.24,-58.70L-116.83,-65.16L-154.21,-49.63L-168.73,-6.18L-157.76,38.29L-121.75,56.79L-104.08,53.32L-90.66,42.03L-91.05,50.33L-98.99,75.35L-122.58,83.20L-140.47,77.37L-146.97,61.75L-162.92,68.29L-153.89,89.49ZM-116.39,-48.48L-95.24,-36.40L-86.45,-2.84L-97.09,29.93L-119.97,40.21L-141.37,28.14L-148.76,-5.36L-138.69,-38.16ZM28.96,-17.09L-35.57,-0.11L-49.64,26.39L-39.03,52.53L-11.77,61.67L8.63,58.56L27.73,45.70L27.12,58.77L45.38,59.50L48.35,-13.42L39.40,-47.02L6.03,-59.77L-24.70,-53.57L-40.39,-32.11L-25.26,-21.94L-14.60,-38.72L3.39,-43.88L22.19,-37.55ZM28.27,0.20L27.10,28.82L12.78,40.38L-8.00,45.84L-22.57,41.43L-28.75,26.36L-19.40,11.35ZM161.03,64.18L161.68,47.87L92.56,45.08L163.63,-32.61L164.29,-48.92L78.64,-52.38L77.98,-36.07L140.59,-33.54L70.60,44.19L69.94,60.50ZM204.02,-66.24L211.41,-73.69L211.87,-84.75L204.98,-92.96L194.93,-93.37L187.60,-85.75L187.15,-74.71L193.97,-66.65ZM203.42,65.89L207.98,-47.15L188.42,-47.94L183.85,65.10ZM231.14,67.01L250.70,67.80L253.19,6.28L262.84,-22.42L285.36,-31.57L303.35,-22.35L307.73,0.64L304.93,69.99L324.50,70.78L327.30,1.43L321.29,-33.34L290.02,-48.27L268.71,-44.46L252.65,-29.02L253.31,-45.32L235.70,-46.03ZM376.99,51.36L366.79,20.90L450.70,24.27L452.11,16.49L440.83,-25.44L402.30,-43.85L363.29,-29.21L347.07,14.99L359.67,60.37L397.37,78.10L430.05,69.87L445.86,47.16L431.01,37.03L418.38,55.89L399.15,61.50ZM368.08,5.26L381.40,-20.12L401.61,-27.25L423.41,-16.92L431.34,7.81Z" fill="#ffffff" stroke="#000000"/>
    <path d="M-463.72,-162.22L-462.61,-180.49L-549.24,-185.74L-540.96,-322.23L-561.38,-323.47L-570.76,-168.71ZM-390.48,-274.39L-429.93,-260.72L-447.41,-217.33L-435.29,-172.14L-397.79,-153.81L-358.34,-167.48L-340.85,-210.87L-352.95,-256.05ZM-396.79,-170.24L-419.44,-181.90L-427.66,-216.11L-415.35,-249.09L-391.48,-257.93L-368.82,-246.27L-360.57,-212.04L-372.89,-179.07ZM-281.88,-151.20L-253.46,-235.55L-237.17,-148.49L-217.61,-147.30L-177.29,-253.59L-193.53,-259.75L-225.09,-173.43L-242.43,-260.99L-261.99,-262.17L-290.36,-175.01L-309.60,-266.79L-327.76,-262.71L-301.87,-152.41ZM-166.47,-207.96L-76.99,-254.68L-68.32,-238.30L-130.10,-207.79L20.97,-198.63L19.92,-181.30L-131.26,-190.47L-73.55,-152.70L-84.14,-137.48L-167.28,-194.65ZM104.38,-127.78L112.66,-264.27L164.67,-261.11L165.78,-279.38L41.33,-286.93L40.22,-268.66L92.24,-265.51L83.96,-129.02ZM199.48,-143.35L190.01,-173.70L272.98,-168.68L274.52,-176.36L264.20,-218.08L226.43,-237.06L187.54,-223.36L170.61,-179.94L182.17,-134.79L219.12,-116.48L251.63,-123.98L267.73,-146.13L253.23,-156.45L240.35,-138.04L221.22,-132.87ZM191.59,-189.15L205.28,-214.00L225.42,-220.65L246.79,-210.00L254.14,-185.36ZM337.12,-125.74L315.02,-137.37L307.33,-171.57L319.09,-204.58L342.44,-213.45L359.65,-206.27L369.15,-185.85L386.30,-193.18L373.40,-218.03L343.43,-229.89L304.53,-216.18L287.58,-172.76L299.14,-127.61L336.12,-109.31L367.30,-117.34L382.86,-139.92L366.95,-149.68L355.05,-130.76ZM403.58,-109.64L423.07,-108.45L426.76,-169.28L436.86,-197.09L459.31,-205.69L476.94,-196.21L480.79,-173.06L476.66,-105.20L495.96,-104.03L500.17,-172.04L494.90,-206.73L464.26,-222.13L443.34,-218.64L428.89,-204.97L432.42,-263.22L412.97,-264.40ZM-448.69,32.85L-440.90,-95.69L-402.69,35.64L-384.42,36.75L-330.63,-89.00L-338.42,39.54L-318.00,40.78L-308.62,-113.99L-336.78,-115.69L-391.63,9.78L-429.85,-121.34L-459.73,-123.15L-469.11,31.61ZM-214.07,-28.16L-278.27,-12.64L-292.72,13.30L-282.74,39.38L-255.95,48.97L-235.70,46.30L-216.54,33.95L-217.41,46.87L-199.35,47.97L-194.95,-24.13L-203.14,-57.56L-235.91,-70.85L-266.45,-65.33L-282.40,-44.40L-267.63,-34.04L-256.75,-50.43L-238.84,-55.18L-220.36,-48.53ZM-215.10,-11.06L-216.83,17.24L-231.23,28.39L-251.90,33.39L-266.23,28.73L-272.04,13.69L-262.49,-0.98ZM-130.42,99.08L-89.36,84.71L-77.47,48.02L-71.13,-56.44L-88.33,-57.48L-89.24,-42.44L-101.04,-57.48L-120.29,-64.26L-157.60,-49.64L-172.83,-6.94L-162.87,37.29L-127.61,56.32L-110.05,53.24L-96.54,42.34L-97.09,50.54L-105.45,75.14L-128.95,82.44L-146.54,76.31L-152.66,60.72L-168.57,66.88L-160.07,88.04ZM-120.19,-47.74L-99.51,-35.37L-91.48,-1.99L-102.66,30.23L-125.51,39.95L-146.44,27.57L-153.09,-5.72L-142.47,-37.98ZM23.02,-13.78L-41.18,1.73L-55.63,27.67L-45.66,53.75L-18.86,63.35L1.39,60.67L20.54,48.33L19.68,61.25L37.73,62.34L42.13,-9.76L33.94,-43.19L1.18,-56.48L-29.36,-50.96L-45.31,-30.03L-30.54,-19.67L-19.66,-36.06L-1.76,-40.80L16.72,-34.16ZM21.98,3.32L20.26,31.61L5.85,42.77L-14.81,47.76L-29.15,43.10L-34.96,28.06L-25.41,13.39ZM152.08,69.28L153.06,53.16L84.71,49.01L156.59,-26.45L157.57,-42.57L72.88,-47.71L71.90,-31.59L133.81,-27.83L63.00,47.70L62.02,63.82ZM197.24,-58.92L204.69,-66.15L205.37,-77.08L198.72,-85.35L188.78,-85.95L181.37,-78.56L180.71,-67.64L187.30,-59.53ZM194.00,71.82L200.77,-39.95L181.43,-41.13L174.65,70.65ZM221.41,73.48L240.75,74.65L244.44,13.82L254.57,-14.39L277.04,-22.99L294.65,-13.51L298.53,9.34L294.38,77.90L313.72,79.08L317.88,10.51L312.62,-24.02L281.99,-39.42L260.81,-36.08L244.62,-21.11L245.59,-37.24L228.18,-38.29ZM366.05,60.91L356.57,30.56L439.54,35.58L441.09,27.90L430.77,-13.82L393.00,-32.80L354.11,-19.10L337.17,24.32L348.74,69.48L385.69,87.78L418.20,80.28L434.29,58.13L419.80,47.81L406.92,66.22L387.79,71.39ZM358.16,15.11L371.85,-9.74L391.99,-16.39L413.36,-5.74L420.71,18.90Z" fill="#ffffff" stroke="#000000"/>
    <path d="M-461.58,-167.37L-460.12,-185.43L-545.73,-192.36L-534.81,-327.25L-554.99,-328.88L-567.37,-175.93ZM-386.87,-276.90L-426.18,-264.16L-444.34,-221.57L-433.25,-176.62L-396.51,-157.73L-357.20,-170.47L-339.03,-213.05L-350.10,-258.00ZM-395.20,-173.97L-417.37,-185.96L-424.82,-219.98L-411.99,-252.36L-388.18,-260.64L-366.00,-248.64L-358.52,-214.61L-371.37,-182.23ZM-281.87,-152.83L-252.07,-235.73L-237.68,-149.26L-218.35,-147.69L-176.34,-252.06L-192.28,-258.48L-225.23,-173.69L-240.64,-260.68L-259.97,-262.24L-289.78,-176.56L-306.99,-267.76L-325.04,-264.09L-301.62,-154.43ZM-166.54,-206.69L-77.07,-251.13L-68.82,-234.75L-130.56,-205.80L18.74,-193.72L17.36,-176.59L-132.05,-188.68L-75.70,-150.16L-86.48,-135.31L-167.61,-193.54ZM99.86,-121.94L110.78,-256.83L162.18,-252.67L163.64,-270.73L40.65,-280.68L39.19,-262.63L90.60,-258.47L79.68,-123.58ZM194.28,-135.45L185.51,-165.67L267.50,-159.05L269.18,-166.61L259.81,-208.10L222.82,-227.64L184.06,-214.86L166.43,-172.23L176.97,-127.32L213.17,-108.48L245.49,-115.24L261.86,-136.84L247.72,-147.34L234.61,-129.38L215.57,-124.65ZM187.38,-180.93L201.43,-205.24L221.49,-211.42L242.42,-200.45L249.20,-175.93ZM330.11,-115.28L308.48,-127.23L301.55,-161.22L313.85,-193.65L337.13,-201.96L354.01,-194.51L363.01,-174.12L380.13,-181.03L367.86,-205.87L338.44,-218.21L299.67,-205.42L282.04,-162.80L292.57,-117.89L328.80,-99.04L359.81,-106.36L375.65,-128.39L360.11,-138.37L347.96,-119.88ZM395.56,-98.02L414.81,-96.46L419.68,-156.57L430.23,-183.89L452.62,-191.95L469.87,-182.21L473.22,-159.23L467.78,-92.17L486.85,-90.63L492.37,-157.83L487.85,-192.26L457.84,-208.11L437.08,-205.08L422.50,-191.84L427.16,-249.41L407.93,-250.96ZM-450.60,25.95L-440.32,-101.08L-405.14,29.63L-387.09,31.09L-331.35,-92.26L-341.63,34.77L-321.45,36.40L-309.07,-116.55L-336.90,-118.80L-393.68,4.26L-428.88,-126.24L-458.41,-128.63L-470.78,24.32ZM-217.23,-29.73L-281.07,-15.66L-295.88,9.72L-286.53,35.72L-260.21,45.75L-240.12,43.51L-220.92,31.68L-222.03,44.44L-204.19,45.89L-198.40,-25.37L-205.83,-58.61L-237.99,-72.41L-268.31,-67.56L-284.51,-47.17L-270.11,-36.63L-259.01,-52.62L-241.20,-56.96L-223.05,-50.02ZM-218.59,-12.83L-220.87,15.13L-235.34,25.88L-255.89,30.41L-269.98,25.51L-275.43,10.52L-265.69,-3.81ZM-137.00,97.84L-96.09,84.44L-83.58,48.38L-75.23,-54.86L-92.22,-56.24L-93.43,-41.37L-104.80,-56.49L-123.72,-63.59L-160.93,-49.86L-176.85,-7.91L-167.88,36.05L-133.36,55.58L-115.93,52.89L-102.34,42.37L-103.05,50.47L-111.81,74.65L-135.22,81.40L-152.50,74.98L-158.25,59.44L-174.11,65.21L-166.12,86.32ZM-123.95,-47.24L-103.73,-34.58L-96.46,-1.39L-108.16,30.26L-130.96,39.43L-151.43,26.76L-157.34,-6.31L-146.19,-38.02ZM17.08,-10.77L-46.76,3.30L-61.57,28.68L-52.23,54.68L-25.90,64.71L-5.81,62.47L13.39,50.63L12.27,63.40L30.12,64.85L35.91,-6.41L28.47,-39.65L-3.68,-53.45L-34.01,-48.60L-50.21,-28.21L-35.80,-17.67L-24.71,-33.66L-6.90,-38.00L11.26,-31.06ZM15.71,6.13L13.44,34.09L-1.04,44.84L-21.59,49.37L-35.68,44.47L-41.13,29.48L-31.38,15.15ZM143.13,73.99L144.42,58.06L76.86,52.59L149.50,-20.64L150.79,-36.57L67.09,-43.34L65.81,-27.41L126.98,-22.46L55.41,50.86L54.12,66.79ZM190.37,-51.96L197.89,-58.96L198.78,-69.76L192.36,-78.07L182.54,-78.87L175.06,-71.70L174.18,-60.91L180.55,-52.75ZM184.55,77.34L193.49,-33.12L174.37,-34.66L165.43,75.80ZM211.64,79.54L230.76,81.08L235.62,20.97L246.21,-6.74L268.61,-14.80L285.85,-5.07L289.24,17.61L283.75,85.37L302.87,86.92L308.35,19.16L303.84,-15.12L273.84,-30.97L252.82,-28.08L236.49,-13.60L237.78,-29.53L220.58,-30.92ZM355.01,69.99L346.24,39.77L428.24,46.39L429.92,38.83L420.54,-2.66L383.55,-22.20L344.79,-9.42L327.17,33.21L337.71,78.12L373.91,96.97L406.22,90.20L422.59,68.60L408.46,58.10L395.35,76.06L376.31,80.79ZM348.12,24.51L362.16,0.20L382.22,-5.98L403.15,4.99L409.93,29.51Z" fill="#ffffff" stroke="#000000"/>
    <path d="M-459.29,-172.56L-457.49,-190.39L-542.05,-198.95L-528.55,-332.19L-548.49,-334.21L-563.79,-183.14ZM-383.19,-279.42L-422.33,-267.60L-441.15,-225.83L-431.08,-181.14L-395.11,-161.71L-355.96,-173.54L-337.13,-215.30L-347.19,-259.99ZM-393.48,-177.76L-415.18,-190.06L-421.88,-223.86L-408.53,-255.65L-384.81,-263.36L-363.10,-251.05L-356.39,-217.23L-369.74,-185.46ZM-281.78,-154.58L-250.64,-236.00L-238.14,-150.16L-219.04,-148.22L-175.39,-250.64L-191.04,-257.31L-225.33,-174.09L-238.84,-260.46L-257.93,-262.39L-289.14,-178.22L-304.34,-268.79L-322.27,-265.52L-301.29,-156.55ZM-166.60,-205.57L-77.19,-247.75L-69.35,-231.37L-131.02,-203.96L16.45,-189.03L14.74,-172.11L-132.84,-187.05L-77.86,-147.81L-88.82,-133.34L-167.92,-192.57ZM95.28,-116.39L108.77,-249.63L159.55,-244.49L161.36,-262.33L39.87,-274.63L38.06,-256.79L88.84,-251.65L75.34,-118.41ZM188.96,-127.87L180.89,-157.94L261.88,-149.76L263.70,-157.21L255.25,-198.44L219.04,-218.51L180.43,-206.64L162.15,-164.82L171.68,-120.18L207.12,-100.80L239.22,-106.85L255.85,-127.90L242.08,-138.57L228.75,-121.06L209.82,-116.76ZM183.05,-173.01L197.43,-196.78L217.40,-202.49L237.89,-191.22L244.11,-166.82ZM322.95,-105.20L301.78,-117.46L295.61,-151.22L308.43,-183.06L331.62,-190.82L348.18,-183.12L356.67,-162.76L373.75,-169.25L362.11,-194.08L333.25,-206.87L294.63,-195.00L276.34,-153.17L285.86,-108.53L321.33,-89.16L352.15,-95.79L368.27,-117.27L353.09,-127.44L340.70,-109.40ZM387.36,-86.81L406.38,-84.89L412.39,-144.27L423.38,-171.08L445.69,-178.61L462.56,-168.63L465.42,-145.83L458.70,-79.59L477.53,-77.68L484.34,-144.06L480.55,-178.22L451.18,-194.49L430.57,-191.91L415.89,-179.10L421.65,-235.96L402.66,-237.89ZM-452.30,18.93L-439.59,-106.54L-407.39,23.48L-389.56,25.29L-331.95,-95.64L-344.65,29.84L-324.72,31.85L-309.42,-119.22L-336.91,-122.01L-395.55,-1.39L-427.76,-131.21L-456.93,-134.16L-472.23,16.92ZM-220.28,-31.49L-283.73,-18.85L-298.89,5.96L-290.16,31.88L-264.32,42.33L-244.40,40.51L-225.16,29.19L-226.52,41.80L-208.90,43.58L-201.74,-26.80L-208.43,-59.84L-239.97,-74.14L-270.07,-69.94L-286.51,-50.09L-272.47,-39.37L-261.17,-54.98L-243.46,-58.91L-225.64,-51.68ZM-221.97,-14.80L-224.78,12.82L-239.32,23.17L-259.74,27.24L-273.59,22.11L-278.67,7.16L-268.75,-6.81ZM-143.46,96.33L-102.71,83.88L-89.62,48.46L-79.29,-53.52L-96.08,-55.22L-97.57,-40.53L-108.52,-55.72L-127.09,-63.12L-164.18,-50.28L-180.77,-9.10L-172.77,34.58L-139.01,54.59L-121.71,52.27L-108.06,42.14L-108.92,50.14L-118.07,73.88L-141.36,80.10L-158.34,73.40L-163.71,57.91L-179.52,63.31L-172.03,84.35ZM-127.65,-46.95L-107.89,-34.03L-101.36,-1.04L-113.58,30.04L-136.32,38.65L-156.31,25.72L-161.50,-7.13L-149.83,-38.27ZM11.16,-8.06L-52.29,4.59L-67.45,29.40L-58.72,55.32L-32.88,65.77L-12.96,63.95L6.28,52.63L4.92,65.24L22.54,67.02L29.70,-3.36L23.01,-36.40L-8.53,-50.70L-38.64,-46.50L-55.07,-26.66L-41.03,-15.93L-29.73,-31.54L-12.02,-35.48L5.80,-28.24ZM9.46,8.64L6.66,36.26L-7.88,46.60L-28.30,50.67L-42.15,45.55L-47.24,30.60L-37.31,16.63ZM134.17,78.33L135.76,62.59L69.04,55.83L142.37,-15.17L143.96,-30.91L61.29,-39.28L59.70,-23.55L120.13,-17.43L47.85,53.69L46.25,69.42ZM183.43,-45.34L191.01,-52.12L192.11,-62.79L185.92,-71.14L176.22,-72.12L168.68,-65.18L167.59,-54.52L173.73,-46.33ZM175.09,82.47L186.14,-26.64L167.25,-28.55L156.20,80.56ZM201.84,85.18L220.73,87.09L226.74,27.71L237.77,0.51L260.10,-7.02L276.96,2.95L279.85,25.46L273.08,92.39L291.96,94.31L298.74,27.37L294.96,-6.63L265.59,-22.91L244.74,-20.47L228.30,-6.47L229.89,-22.21L212.89,-23.93ZM343.89,78.60L335.81,48.53L416.81,56.71L418.62,49.26L410.17,8.03L373.97,-12.04L335.36,-0.17L317.07,41.65L326.60,86.29L362.04,105.67L394.15,99.62L410.78,78.57L397.00,67.90L383.67,85.41L364.74,89.71ZM337.97,33.47L352.35,9.69L372.32,3.98L392.81,15.25L399.03,39.65Z" fill="#ffffff" stroke="#000000"/>
    <path d="M-456.86,-177.76L-454.72,-195.37L-538.20,-205.53L-522.19,-337.07L-541.87,-339.46L-560.02,-190.32ZM-379.44,-281.96L-418.40,-271.05L-437.85,-230.10L-428.78,-185.69L-393.58,-165.75L-354.61,-176.67L-335.15,-217.61L-344.21,-262.02ZM-391.65,-181.59L-412.87,-194.19L-418.82,-227.77L-404.98,-258.95L-381.37,-266.10L-360.13,-253.49L-354.16,-219.90L-368.01,-188.73ZM-281.61,-156.43L-249.18,-236.36L-238.52,-151.19L-219.67,-148.89L-174.44,-249.34L-189.79,-256.25L-225.37,-174.60L-237.01,-260.32L-255.86,-262.61L-288.42,-179.96L-301.65,-269.86L-319.45,-266.99L-300.87,-158.77ZM-166.65,-204.57L-77.35,-244.51L-69.93,-228.16L-131.48,-202.28L14.11,-184.55L12.08,-167.85L-133.61,-185.58L-80.01,-145.66L-91.14,-131.57L-168.21,-191.74ZM90.64,-111.12L106.65,-242.66L156.78,-236.56L158.93,-254.17L38.98,-268.77L36.84,-251.16L86.97,-245.06L70.96,-113.52ZM183.55,-120.61L176.16,-150.52L256.12,-140.80L258.07,-148.14L250.53,-189.10L215.11,-209.68L176.69,-198.70L157.76,-157.69L166.30,-113.34L200.97,-93.47L232.85,-98.81L249.72,-119.30L236.31,-130.13L222.77,-113.07L203.96,-109.20ZM178.60,-165.38L193.30,-188.61L213.17,-193.86L233.21,-182.30L238.88,-158.04ZM315.65,-95.50L294.95,-108.05L289.52,-141.58L302.84,-172.82L325.94,-180.04L342.16,-172.08L350.16,-151.77L367.18,-157.85L356.16,-182.64L327.86,-195.87L289.43,-184.90L270.49,-143.89L279.03,-99.54L313.72,-79.67L344.35,-85.61L360.72,-106.53L345.91,-116.91L333.29,-99.30ZM379.00,-76.03L397.77,-73.74L404.91,-132.37L416.31,-158.67L438.53,-165.67L455.03,-155.47L457.40,-132.85L449.43,-67.45L468.02,-65.19L476.08,-130.73L473.02,-164.59L444.29,-181.28L423.85,-179.14L409.07,-166.76L415.90,-222.89L397.15,-225.18ZM-453.76,11.82L-438.68,-112.06L-409.43,17.21L-391.82,19.35L-332.41,-99.13L-347.49,24.75L-327.81,27.14L-309.66,-122.00L-336.80,-125.31L-397.21,-7.16L-426.49,-136.22L-455.29,-139.73L-473.44,9.42ZM-223.23,-33.44L-286.25,-22.20L-301.74,2.05L-293.62,27.86L-268.27,38.72L-248.52,37.31L-229.27,26.50L-230.87,38.94L-213.46,41.06L-204.98,-28.42L-210.94,-61.24L-241.86,-76.02L-271.72,-72.47L-288.37,-53.16L-274.70,-42.27L-263.21,-57.49L-245.61,-61.03L-228.13,-53.52ZM-225.24,-16.96L-228.57,10.31L-243.16,20.25L-263.44,23.87L-277.03,18.53L-281.77,3.64L-271.67,-9.99ZM-149.78,94.55L-109.22,83.05L-95.57,48.26L-83.31,-52.41L-99.89,-54.43L-101.65,-39.93L-112.18,-55.17L-130.41,-62.86L-167.35,-50.90L-184.59,-10.49L-177.55,32.87L-144.55,53.35L-127.39,51.40L-113.68,41.64L-114.70,49.54L-124.22,72.85L-147.39,78.53L-164.04,71.57L-169.05,56.14L-184.80,61.16L-177.81,82.12ZM-131.28,-46.88L-111.99,-33.70L-106.19,-0.93L-118.90,29.57L-141.57,37.64L-161.09,24.44L-165.57,-8.16L-153.40,-38.74ZM5.26,-5.63L-57.76,5.61L-73.25,29.86L-65.14,55.67L-39.78,66.53L-20.03,65.12L-0.78,54.30L-2.38,66.75L15.02,68.87L23.51,-0.61L17.55,-33.43L-13.37,-48.21L-43.23,-44.66L-59.89,-25.35L-46.21,-14.46L-34.72,-29.68L-17.12,-33.22L0.36,-25.71ZM3.25,10.85L-0.08,38.12L-14.67,48.06L-34.95,51.68L-48.54,46.34L-53.28,31.45L-43.18,17.82ZM125.23,82.28L127.12,66.75L61.24,58.73L135.20,-10.05L137.10,-25.59L55.48,-35.52L53.59,-19.98L113.25,-12.72L40.32,56.18L38.43,71.72ZM176.43,-39.07L184.06,-45.63L185.36,-56.16L179.41,-64.55L169.83,-65.71L162.23,-59.00L160.94,-48.47L166.85,-40.24ZM165.62,87.20L178.73,-20.52L160.09,-22.79L146.98,84.93ZM192.04,90.42L210.68,92.69L217.82,34.06L229.27,7.37L251.51,0.37L267.99,10.57L270.40,32.89L262.36,98.98L281.01,101.24L289.05,35.16L285.99,1.45L257.26,-15.24L236.58,-13.25L220.04,0.28L221.93,-15.26L205.15,-17.30ZM332.69,86.74L325.30,56.83L405.26,66.55L407.21,59.21L399.67,18.25L364.25,-2.33L325.83,8.65L306.90,49.66L315.44,94.01L350.11,113.88L381.99,108.54L398.86,88.05L385.45,77.22L371.91,94.28L353.10,98.15ZM327.74,41.97L342.44,18.74L362.31,13.49L382.36,25.05L388.02,49.31Z" fill="#ffffff" stroke="#000000"/>
    <path d="M-454.27,-182.98L-451.80,-200.35L-534.18,-212.07L-515.71,-341.87L-535.13,-344.63L-556.07,-197.46ZM-375.61,-284.50L-414.37,-274.49L-434.42,-234.38L-426.34,-190.26L-391.92,-169.84L-353.16,-179.86L-333.09,-219.96L-341.16,-264.08ZM-389.70,-185.47L-410.43,-198.36L-415.65,-231.69L-401.34,-262.25L-377.83,-268.86L-357.08,-255.96L-351.85,-222.61L-366.17,-192.06ZM-281.35,-158.38L-247.67,-236.80L-238.83,-152.33L-220.23,-149.69L-173.49,-248.14L-188.53,-255.29L-225.36,-175.23L-235.16,-260.25L-253.76,-262.90L-287.61,-181.79L-298.91,-270.99L-316.57,-268.49L-300.36,-161.09ZM-166.68,-203.70L-77.55,-241.43L-70.53,-225.10L-131.93,-200.73L11.73,-180.30L9.38,-163.81L-134.38,-184.26L-82.15,-143.71L-93.45,-129.98L-168.48,-191.05ZM85.96,-106.13L104.42,-235.93L153.89,-228.89L156.36,-246.27L38.01,-263.10L35.54,-245.73L85.01,-238.69L66.54,-108.89ZM178.05,-113.66L171.34,-143.39L250.24,-132.19L252.31,-139.40L245.68,-180.07L211.05,-201.13L172.82,-191.04L153.28,-150.86L160.84,-106.81L194.74,-86.47L226.38,-91.11L243.48,-111.04L230.43,-122.02L216.70,-105.42L198.01,-101.96ZM174.05,-158.04L189.05,-180.73L208.81,-185.52L228.41,-173.69L233.53,-149.58ZM308.22,-86.19L288.00,-99.01L283.29,-132.28L297.09,-162.92L320.08,-169.60L335.97,-161.41L343.47,-141.16L360.44,-146.83L350.03,-171.57L322.31,-185.23L284.07,-175.14L264.52,-134.95L272.07,-90.91L305.99,-70.56L336.41,-75.83L353.02,-96.20L338.58,-106.75L325.75,-89.59ZM370.49,-65.66L389.02,-63.02L397.25,-120.87L409.05,-146.66L431.17,-153.14L447.29,-142.72L449.18,-120.30L439.99,-55.77L458.33,-53.16L467.61,-117.82L465.26,-151.38L437.17,-168.47L416.91,-166.75L402.05,-154.80L409.93,-210.20L391.42,-212.83ZM-455.00,4.60L-437.61,-117.63L-411.25,10.82L-393.88,13.30L-332.75,-102.71L-350.14,19.52L-330.72,22.28L-309.78,-124.89L-336.56,-128.70L-398.68,-13.04L-425.07,-141.29L-453.48,-145.33L-474.41,1.84ZM-226.06,-35.56L-288.62,-25.70L-304.43,-2.02L-296.91,23.67L-272.05,34.92L-252.49,33.92L-233.23,23.61L-235.06,35.89L-217.89,38.33L-208.11,-30.23L-213.35,-62.81L-243.63,-78.05L-273.24,-75.13L-290.10,-56.37L-276.79,-45.32L-265.13,-60.14L-247.65,-63.29L-230.50,-55.52ZM-228.37,-19.30L-232.21,7.61L-246.84,17.16L-266.98,20.33L-280.32,14.77L-284.70,-0.05L-274.44,-13.33ZM-155.96,92.51L-115.62,81.95L-101.41,47.81L-87.28,-51.53L-103.63,-53.86L-105.67,-39.55L-115.78,-54.84L-133.66,-62.81L-170.44,-51.72L-188.30,-12.09L-182.20,30.95L-149.97,51.86L-132.95,50.27L-119.20,40.90L-120.36,48.69L-130.25,71.56L-153.27,76.71L-169.61,69.50L-174.26,54.13L-189.93,58.78L-183.44,79.66ZM-134.84,-47.02L-116.02,-33.59L-110.94,-1.07L-124.12,28.85L-146.70,36.38L-165.75,22.93L-169.53,-9.40L-156.88,-39.40ZM-0.60,-3.49L-63.16,6.37L-78.97,30.05L-71.46,55.74L-46.59,66.99L-27.03,65.99L-7.77,55.68L-9.60,67.96L7.57,70.40L17.35,1.84L12.11,-30.74L-18.18,-45.98L-47.79,-43.06L-64.65,-24.30L-51.33,-13.25L-39.67,-28.07L-22.19,-31.22L-5.05,-23.45ZM-2.92,12.78L-6.76,39.68L-21.39,49.23L-41.52,52.40L-54.86,46.84L-59.25,32.02L-48.99,18.74ZM116.31,85.87L118.49,70.54L53.49,61.29L128.02,-5.26L130.20,-20.59L49.67,-32.05L47.49,-16.72L106.36,-8.35L32.85,58.36L30.66,73.69ZM169.38,-33.15L177.06,-39.48L178.55,-49.87L172.84,-58.29L163.39,-59.63L155.73,-53.14L154.25,-42.76L159.93,-34.50ZM156.17,91.54L171.29,-14.75L152.89,-17.37L137.77,88.92ZM182.23,95.25L200.63,97.86L208.86,40.02L220.72,13.84L242.86,7.36L258.96,17.78L260.90,39.91L251.62,105.12L270.02,107.74L279.30,42.53L276.94,9.12L248.86,-7.96L228.36,-6.40L211.73,6.64L213.91,-8.69L197.35,-11.04ZM321.43,94.42L314.72,64.69L393.62,75.89L395.69,68.68L389.06,28.01L354.44,6.95L316.21,17.04L296.67,57.22L304.22,101.27L338.12,121.61L369.77,116.97L386.86,97.04L373.81,86.06L360.08,102.66L341.39,106.12ZM317.43,50.04L332.44,27.35L352.20,22.56L371.79,34.39L376.91,58.50Z" fill="#ffffff" stroke="#000000"/>
    <path d="M-451.54,-188.21L-448.75,-205.34L-529.98,-218.58L-509.13,-346.58L-528.28,-349.70L-551.92,-204.56ZM-371.71,-287.05L-410.24,-277.92L-430.88,-238.65L-423.76,-194.85L-390.13,-173.97L-351.59,-183.10L-330.94,-222.37L-338.05,-266.16ZM-387.62,-189.38L-407.87,-202.54L-412.36,-235.61L-397.60,-265.56L-374.22,-271.62L-353.95,-258.45L-349.44,-225.36L-364.22,-195.43ZM-281.00,-160.43L-246.12,-237.31L-239.07,-153.60L-220.72,-150.61L-172.53,-247.05L-187.26,-254.42L-225.28,-175.98L-233.28,-260.26L-251.62,-263.25L-286.72,-183.71L-296.11,-272.15L-313.63,-270.04L-299.74,-163.48ZM-166.68,-202.96L-77.77,-238.50L-71.16,-222.21L-132.37,-199.33L9.31,-176.25L6.66,-159.99L-135.12,-183.09L-84.27,-141.94L-95.72,-128.59L-168.71,-190.48ZM81.25,-101.42L102.10,-229.42L150.88,-221.47L153.67,-238.61L36.96,-257.62L34.17,-240.49L82.95,-232.54L62.10,-104.54ZM172.48,-107.02L166.43,-136.56L244.25,-123.91L246.44,-131.00L240.69,-171.35L206.86,-192.88L168.85,-183.66L148.72,-144.31L155.32,-100.60L188.44,-79.79L219.83,-83.76L237.14,-103.13L224.45,-114.25L210.54,-98.10L191.98,-95.06ZM169.41,-151.00L184.70,-173.14L204.34,-177.48L223.48,-165.39L228.07,-141.44ZM300.67,-77.25L280.93,-90.34L276.94,-123.34L291.19,-153.37L314.07,-159.51L329.62,-151.09L336.64,-130.92L353.53,-136.19L343.73,-160.87L316.58,-174.93L278.56,-165.71L258.42,-126.36L265.01,-82.65L298.16,-61.84L328.35,-66.44L345.18,-86.26L331.11,-96.99L318.07,-80.27ZM361.85,-55.70L380.12,-52.73L389.42,-109.78L401.61,-135.05L423.61,-141.02L439.34,-130.39L440.76,-108.18L430.39,-44.54L448.48,-41.59L458.95,-105.36L457.29,-138.60L429.86,-156.05L409.78,-154.77L394.84,-143.24L403.74,-197.87L385.49,-200.84ZM-455.99,-2.70L-436.36,-123.24L-412.86,4.33L-395.72,7.12L-332.95,-106.40L-352.58,14.15L-333.43,17.27L-309.79,-127.87L-336.20,-132.17L-399.95,-19.02L-423.48,-146.39L-451.50,-150.96L-475.15,-5.82ZM-228.77,-37.85L-290.83,-29.34L-306.95,-6.24L-300.03,19.32L-275.66,30.94L-256.29,30.35L-237.04,20.53L-239.09,32.64L-222.16,35.40L-211.12,-32.22L-215.65,-64.55L-245.30,-80.22L-274.64,-77.93L-291.69,-59.71L-278.75,-48.52L-266.91,-62.94L-249.56,-65.71L-232.76,-57.67ZM-231.38,-21.81L-235.71,4.73L-250.37,13.88L-270.35,16.61L-283.43,10.85L-287.48,-3.90L-277.06,-16.83ZM-161.99,90.21L-121.88,80.58L-107.15,47.10L-91.19,-50.87L-107.31,-53.50L-109.61,-39.39L-119.31,-54.71L-136.83,-62.95L-173.43,-52.72L-191.89,-13.88L-186.71,28.81L-155.25,50.13L-138.39,48.91L-124.60,39.91L-125.91,47.59L-136.14,70.01L-159.02,74.65L-175.03,67.18L-179.32,51.89L-194.92,56.18L-188.92,76.96ZM-138.32,-47.36L-119.98,-33.70L-115.60,-1.43L-129.22,27.89L-151.71,34.89L-170.28,21.21L-173.37,-10.85L-160.27,-40.27ZM-6.42,-1.62L-68.49,6.88L-84.60,29.98L-77.68,55.54L-53.31,67.16L-33.95,66.57L-14.69,56.75L-16.75,68.86L0.19,71.62L11.23,4.00L6.70,-28.33L-22.95,-44.00L-52.30,-41.71L-69.35,-23.48L-56.40,-12.30L-44.57,-26.72L-27.22,-29.49L-10.41,-21.45ZM-9.03,14.41L-13.37,40.95L-28.03,50.10L-48.00,52.84L-61.09,47.07L-65.13,32.32L-54.72,19.39ZM107.43,89.09L109.89,73.97L45.79,63.53L120.83,-0.81L123.30,-15.93L43.87,-28.87L41.41,-13.75L99.46,-4.29L25.43,60.21L22.97,75.33ZM162.29,-27.57L170.02,-33.68L171.70,-43.93L166.22,-52.36L156.90,-53.88L149.20,-47.61L147.52,-37.37L152.97,-29.09ZM146.74,95.49L163.81,-9.33L145.67,-12.29L128.60,92.54ZM172.44,99.68L190.59,102.63L199.88,45.59L212.13,19.93L234.16,13.97L249.87,24.60L251.35,46.52L240.88,110.83L259.02,113.78L269.49,49.48L267.83,16.39L240.40,-1.07L220.10,0.06L203.39,12.64L205.85,-2.48L189.52,-5.14ZM310.14,101.64L304.09,72.10L381.91,84.76L384.10,77.67L378.35,37.31L344.52,15.79L306.51,25.00L286.38,64.36L292.98,108.07L326.10,128.87L357.49,124.90L374.80,105.54L362.11,94.42L348.19,110.56L329.64,113.61ZM307.06,57.67L322.36,35.53L342.00,31.18L361.14,43.27L365.72,67.22Z" fill="#ffffff" stroke="#000000"/>
    <path d="M-448.64,-193.44L-445.54,-210.33L-525.62,-225.04L-502.44,-351.21L-521.31,-354.68L-547.59,-211.62ZM-367.72,-289.60L-406.01,-281.34L-427.20,-242.91L-421.05,-199.46L-388.20,-178.13L-349.91,-186.40L-328.70,-224.81L-334.85,-268.27ZM-385.41,-193.32L-405.17,-206.74L-408.96,-239.54L-393.75,-268.86L-370.52,-274.39L-350.74,-260.96L-346.94,-228.15L-362.15,-198.84ZM-280.55,-162.56L-244.52,-237.90L-239.22,-154.97L-221.14,-151.65L-171.55,-246.06L-185.97,-253.64L-225.14,-176.83L-231.37,-260.34L-249.45,-263.66L-285.75,-185.70L-293.27,-273.35L-310.63,-271.61L-299.03,-165.96ZM-166.64,-202.35L-78.01,-235.71L-71.79,-219.47L-132.79,-198.07L6.86,-172.41L3.92,-156.39L-135.83,-182.06L-86.37,-140.35L-97.96,-127.38L-168.90,-190.04ZM76.51,-96.97L99.69,-223.14L147.77,-214.31L150.87,-231.20L35.83,-252.33L32.73,-235.44L80.81,-226.61L57.63,-100.44ZM166.84,-100.70L161.45,-130.03L238.15,-115.96L240.46,-122.93L235.58,-162.95L202.56,-184.91L164.79,-176.56L144.09,-138.04L149.74,-94.68L182.09,-73.45L213.21,-76.74L230.71,-95.55L218.38,-106.80L204.30,-91.12L185.89,-88.47ZM164.68,-144.24L180.25,-165.83L199.76,-169.74L218.45,-157.40L222.50,-133.62ZM293.02,-68.70L273.76,-82.03L270.47,-114.75L285.17,-144.16L307.91,-149.78L323.13,-141.14L329.66,-121.05L346.47,-125.93L337.27,-150.53L310.71,-164.97L272.92,-156.62L252.22,-118.10L257.87,-74.74L290.23,-53.51L320.17,-57.45L337.22,-76.71L323.52,-87.60L310.29,-71.33ZM353.09,-46.16L371.10,-42.86L381.43,-99.09L393.99,-123.84L415.88,-129.30L431.22,-118.48L432.18,-96.48L420.65,-33.75L438.48,-30.48L450.11,-93.33L449.14,-126.23L422.35,-144.05L402.47,-143.17L387.47,-132.08L397.36,-185.92L379.37,-189.23ZM-456.76,-10.07L-434.93,-128.89L-414.24,-2.26L-397.35,0.84L-333.00,-110.17L-354.83,8.65L-335.95,12.12L-309.67,-130.94L-335.70,-135.72L-401.00,-25.09L-421.73,-151.53L-449.35,-156.60L-475.63,-13.54ZM-231.34,-40.30L-292.89,-33.12L-309.29,-10.60L-302.95,14.82L-279.09,26.79L-259.93,26.59L-240.69,17.27L-242.96,29.20L-226.27,32.27L-214.00,-34.38L-217.84,-66.44L-246.84,-82.53L-275.91,-80.85L-293.13,-63.17L-280.55,-51.85L-268.57,-65.87L-251.35,-68.27L-234.90,-59.98ZM-234.25,-24.49L-239.06,1.67L-253.74,10.42L-273.55,12.73L-286.37,6.77L-290.08,-7.90L-279.52,-20.47ZM-167.87,87.68L-128.00,78.95L-112.77,46.13L-95.03,-50.43L-110.92,-53.35L-113.48,-39.44L-122.76,-54.79L-139.92,-63.29L-176.32,-53.90L-195.35,-15.86L-191.09,26.46L-160.40,48.17L-143.70,47.30L-129.88,38.68L-131.33,46.25L-141.90,68.21L-164.61,72.35L-180.30,64.64L-184.24,49.44L-199.75,53.37L-194.22,74.04ZM-141.70,-47.89L-123.84,-34.03L-120.15,-2.03L-134.21,26.70L-156.59,33.17L-174.68,19.27L-177.10,-12.49L-163.55,-41.32ZM-12.18,-0.04L-73.73,7.13L-90.12,29.66L-83.79,55.07L-59.93,67.05L-40.76,66.85L-21.53,57.53L-23.80,69.46L-7.11,72.53L5.16,5.88L1.32,-26.18L-27.68,-42.27L-56.75,-40.59L-73.97,-22.91L-61.39,-11.59L-49.40,-25.61L-32.19,-28.01L-15.73,-19.72ZM-15.08,15.77L-19.90,41.93L-34.58,50.68L-54.39,52.99L-67.21,47.03L-70.92,32.36L-60.36,19.79ZM98.60,91.95L101.34,77.04L38.15,65.44L113.65,3.31L116.39,-11.60L38.10,-25.98L35.36,-11.07L92.59,-0.56L18.08,61.75L15.34,76.65ZM155.18,-22.33L162.94,-28.21L164.82,-38.31L159.56,-46.77L150.37,-48.45L142.63,-42.41L140.77,-32.32L146.00,-24.01ZM137.34,99.06L156.32,-4.26L138.44,-7.54L119.46,95.78ZM162.68,103.72L180.56,107.00L190.89,50.77L203.52,25.65L225.42,20.19L240.75,31.01L241.78,52.72L230.13,116.11L248.02,119.39L259.66,56.01L258.68,23.25L231.89,5.44L211.80,6.15L195.02,18.25L197.76,3.35L181.66,0.40ZM298.81,108.41L293.42,79.07L370.12,93.14L372.43,86.17L367.55,46.15L334.53,24.19L296.75,32.54L276.06,71.06L281.71,114.42L314.05,135.65L345.18,132.36L362.68,113.55L350.35,102.30L336.27,117.99L317.86,120.63ZM296.65,64.86L312.22,43.27L331.72,39.36L350.42,51.70L354.47,75.48Z" fill="#ffffff" stroke="#000000"/>
    <path d="M-445.59,-198.67L-442.19,-215.31L-521.07,-231.45L-495.64,-355.75L-514.23,-359.56L-543.07,-218.62ZM-363.66,-292.13L-401.68,-284.73L-423.41,-247.16L-418.18,-204.07L-386.13,-182.33L-348.10,-189.73L-326.37,-227.30L-331.58,-270.39ZM-383.07,-197.29L-402.34,-210.96L-405.43,-243.46L-389.81,-272.15L-366.72,-277.15L-347.43,-263.47L-344.33,-230.96L-359.96,-202.28ZM-279.99,-164.78L-242.87,-238.56L-239.28,-156.45L-221.47,-152.80L-170.55,-245.17L-184.66,-252.95L-224.92,-177.78L-229.41,-260.48L-247.22,-264.12L-284.67,-187.76L-290.36,-274.58L-307.57,-273.21L-298.20,-168.51ZM-166.57,-201.85L-78.27,-233.07L-72.44,-216.88L-133.18,-196.94L4.39,-168.79L1.16,-153.00L-136.51,-181.17L-88.43,-138.94L-100.15,-126.35L-169.05,-189.73ZM71.76,-92.80L97.19,-217.09L144.56,-207.40L147.97,-224.04L34.63,-247.23L31.23,-230.59L78.60,-220.90L53.16,-96.60ZM161.15,-94.68L156.41,-123.79L231.97,-108.34L234.39,-115.19L230.37,-154.86L198.15,-177.24L160.63,-169.73L139.41,-132.06L144.13,-89.07L175.68,-67.43L206.52,-70.07L224.20,-88.32L212.24,-99.69L198.00,-84.46L179.75,-82.21ZM159.89,-137.78L175.71,-158.82L195.08,-162.29L213.31,-149.72L216.85,-126.12ZM285.28,-60.52L266.50,-74.09L263.90,-106.50L279.02,-135.29L301.63,-140.39L316.50,-131.55L322.56,-111.55L339.28,-116.04L330.67,-140.55L304.69,-155.36L267.16,-147.86L245.92,-110.18L250.64,-67.20L282.22,-45.55L311.91,-48.86L329.15,-67.56L315.81,-78.60L302.41,-62.78ZM344.23,-37.04L361.97,-33.41L373.31,-88.80L386.22,-113.03L407.97,-117.99L422.93,-106.98L423.44,-85.21L410.78,-23.42L428.35,-19.82L441.11,-81.74L440.80,-114.29L414.67,-132.44L395.00,-131.97L379.94,-121.30L390.79,-174.35L373.07,-177.97ZM-457.28,-17.52L-433.32,-134.57L-415.39,-8.94L-398.75,-5.54L-332.90,-114.02L-356.86,3.03L-338.26,6.84L-309.42,-134.09L-335.06,-139.34L-401.85,-31.26L-419.82,-156.69L-447.03,-162.26L-475.87,-21.32ZM-233.78,-42.90L-294.78,-37.04L-311.44,-15.10L-305.69,10.16L-282.33,22.48L-263.38,22.67L-244.17,13.83L-246.66,25.59L-230.21,28.95L-216.75,-36.70L-219.90,-68.48L-248.27,-84.97L-277.04,-83.89L-294.42,-66.75L-282.21,-55.30L-270.08,-68.94L-253.01,-70.96L-236.90,-62.44ZM-236.97,-27.33L-242.25,-1.56L-256.94,6.80L-276.58,8.69L-289.14,2.54L-292.51,-12.04L-281.82,-24.26ZM-173.57,84.91L-133.98,77.07L-118.26,44.93L-98.79,-50.20L-114.45,-53.41L-117.25,-39.70L-126.12,-55.07L-142.93,-63.81L-179.11,-55.25L-198.68,-18.02L-195.31,23.91L-165.40,46.00L-148.87,45.46L-135.03,37.21L-136.61,44.67L-147.50,66.18L-170.05,69.81L-185.40,61.88L-188.99,46.77L-204.41,50.34L-199.36,70.89ZM-144.99,-48.63L-127.60,-34.56L-124.60,-2.84L-139.08,25.29L-161.34,31.23L-178.95,17.13L-180.70,-14.32L-166.73,-42.56ZM-17.88,1.28L-78.88,7.15L-95.54,29.09L-89.79,54.35L-66.42,66.67L-47.47,66.85L-28.26,58.01L-30.75,69.77L-14.31,73.14L-0.85,7.48L-4.00,-24.30L-32.36,-40.79L-61.14,-39.71L-78.52,-22.57L-66.31,-11.12L-54.17,-24.75L-37.10,-26.77L-21.00,-18.26ZM-21.06,16.86L-26.35,42.62L-41.04,50.99L-60.67,52.87L-73.23,46.72L-76.60,32.15L-65.91,19.92ZM89.83,94.45L92.83,79.77L30.59,67.03L106.48,7.10L109.48,-7.58L32.36,-23.36L29.36,-8.68L85.73,2.85L10.81,62.98L7.81,77.66ZM148.06,-17.42L155.85,-23.08L157.90,-33.03L152.87,-41.49L143.82,-43.35L136.05,-37.52L134.01,-27.58L139.01,-19.27ZM128.00,102.26L148.83,0.47L131.21,-3.13L110.38,98.65ZM152.96,107.37L170.58,110.97L181.91,55.58L194.90,30.99L216.67,26.02L231.61,37.03L232.19,58.52L219.41,120.97L237.03,124.57L249.80,62.13L249.49,29.72L223.36,11.57L203.47,11.88L186.64,23.51L189.64,8.83L173.79,5.58ZM287.47,114.72L282.73,85.61L358.29,101.05L360.71,94.21L356.68,54.53L324.47,32.16L286.95,39.66L265.72,77.34L270.44,120.33L302.00,141.97L332.84,139.33L350.52,121.08L338.56,109.71L324.32,124.94L306.06,127.19ZM286.20,71.62L302.03,50.58L321.40,47.10L339.63,59.68L343.16,83.27Z" fill="#ffffff" stroke="#000000"/>
    <path d="M-906.35,492L-906.35,469.28L-898.22,492L-894.99,492L-886.86,469.28L-886.86,492L-883.25,492L-883.25,464.64L-888.22,464.64L-896.55,487.33L-904.68,464.64L-909.96,464.64L-909.96,492ZM-865.67,478.75L-876.82,482.17L-879.09,486.89L-877.05,491.38L-872.23,492.78L-868.69,492.09L-865.45,489.71L-865.46,492L-862.27,492L-862.27,479.25L-864.06,473.45L-869.98,471.46L-875.30,472.76L-877.88,476.62L-875.17,478.28L-873.43,475.28L-870.33,474.25L-867.00,475.23ZM-865.67,481.77L-865.68,486.77L-868.09,488.89L-871.68,489.99L-874.26,489.33L-875.44,486.74L-873.91,484.05ZM-857.12,492L-853.70,492L-853.70,481.25L-852.22,476.17L-848.35,474.41L-845.15,475.90L-844.22,479.88L-844.22,492L-840.80,492L-840.80,479.88L-842.09,473.85L-847.66,471.47L-851.35,472.28L-854.04,475.09L-854.04,472.24L-857.12,472.24ZM-833.34,468.94L-832.11,467.58L-832.10,465.65L-833.36,464.27L-835.12,464.27L-836.35,465.65L-836.35,467.58L-835.10,468.94ZM-832.52,492L-832.52,472.24L-835.94,472.24L-835.94,492ZM-818.31,468.12L-817.85,465.29L-820.94,464.71L-825.30,466.41L-826.70,471.29L-826.70,472.24L-829.67,472.24L-829.67,474.86L-826.70,474.86L-826.70,492L-823.40,492L-823.40,474.86L-819.56,474.86L-819.56,472.24L-823.40,472.24L-823.40,471.21L-822.75,468.65L-820.52,467.74ZM-807.97,471.46L-814.77,474.29L-817.39,482.12L-814.77,489.95L-807.97,492.78L-801.17,489.95L-798.55,482.12L-801.16,474.29ZM-807.97,489.87L-812.08,488.06L-813.90,482.12L-812.08,476.18L-807.97,474.37L-803.85,476.18L-802.04,482.12L-803.85,488.06ZM-795.03,492L-791.61,492L-791.61,481.25L-790.13,476.17L-786.26,474.41L-783.06,475.90L-782.13,479.88L-782.13,492L-778.71,492L-778.71,479.88L-780.00,473.85L-785.56,471.47L-789.26,472.28L-791.95,475.09L-791.95,472.24L-795.03,472.24ZM-765.45,492.27L-765.45,492.26L-765.85,489.32L-767.38,489.55L-769.03,488.71L-769.32,486.22L-769.32,474.86L-765.94,474.86L-765.94,472.24L-769.32,472.24L-769.32,465.40L-772.74,465.40L-772.74,472.24L-775.55,472.24L-775.55,474.86L-772.74,474.86L-772.74,486.22L-771.96,491.00L-768.07,492.63ZM-737.50,487.93L-737.50,478.13L-749.05,478.13L-749.05,481.31L-740.99,481.31L-740.97,486.22L-748.63,489.75L-755.95,486.41L-758.55,478.32L-756.06,470.17L-749.21,466.88L-744.27,468.25L-741.30,473.01L-738.24,471.11L-741.44,465.93L-749.13,463.79L-758.98,468.04L-762.42,478.32L-758.78,488.60L-748.74,492.86ZM-724.35,474.77L-721.78,475.62L-720.76,472.73L-724.11,471.47L-727.37,472.48L-729.65,475.66L-729.65,472.24L-732.73,472.24L-732.73,491.81L-729.31,492L-729.31,481.32L-728.06,476.56ZM-710.01,471.46L-716.81,474.29L-719.42,482.12L-716.81,489.95L-710.01,492.78L-703.20,489.95L-700.58,482.12L-703.20,474.29ZM-710.01,489.87L-714.12,488.06L-715.93,482.12L-714.12,476.18L-710.01,474.37L-705.89,476.18L-704.07,482.12L-705.89,488.06ZM-688.58,492.27L-688.58,492.26L-688.97,489.32L-690.51,489.55L-692.15,488.71L-692.45,486.22L-692.45,474.86L-689.07,474.86L-689.07,472.24L-692.45,472.24L-692.45,465.40L-695.87,465.40L-695.87,472.24L-698.68,472.24L-698.68,474.86L-695.87,474.86L-695.87,486.22L-695.09,491.00L-691.19,492.63ZM-680.57,488.24L-682.57,483.00L-667.90,482.99L-667.71,481.63L-669.97,474.39L-676.83,471.45L-683.53,474.28L-686.05,482.11L-683.53,489.93L-676.83,492.76L-671.18,491.10L-668.58,487.02L-671.25,485.36L-673.32,488.74L-676.63,489.86ZM-682.45,480.26L-680.31,475.73L-676.83,474.35L-672.95,476.00L-671.40,480.26ZM-661.99,485.88L-664.90,487.24L-662.96,491.11L-657.11,492.78L-651.52,491.39L-648.97,486.66L-650.50,482.61L-653.83,480.90L-658.44,479.65L-661.00,478.62L-661.84,477.05L-660.74,475.10L-657.52,474.38L-654.42,475.23L-653.09,477.74L-650.21,476.38L-651.88,473.07L-657.39,471.46L-662.84,472.86L-665.18,477.43L-663.66,481.06L-660.23,482.69L-655.36,483.98L-653.07,485.13L-652.46,486.96L-653.99,489.26L-656.99,489.87L-660.63,488.67ZM-641.92,483.45L-638.72,483.45L-637.20,484.67L-633.14,492.30L-630.05,490.63L-634.16,483.45L-636.67,482.04L-634.62,480.06L-632.77,476.14L-631.66,475.64L-630.10,475.39L-630.56,472.24L-633.40,472.52L-635.30,474.17L-637.43,478.82L-638.72,480.60L-641.91,480.60L-641.91,464.64L-643.66,464.64L-645.32,464.64L-645.33,492L-641.92,492ZM-625.58,492.01L-615.04,492.01L-607.42,490.45L-604.53,484.21L-606.06,480.03L-610.31,477.70L-606.80,475.27L-605.82,471.62L-608.58,466.13L-615.58,464.63L-625.58,464.63ZM-621.94,476.42L-621.95,467.89L-616.40,467.89L-611.64,468.44L-609.62,472.08L-611.57,475.51L-615.93,476.42ZM-621.94,488.79L-621.94,479.64L-615.54,479.64L-610.64,480.53L-608.45,484.21L-610.32,488.02L-615.04,488.79ZM-592.40,471.46L-599.20,474.29L-601.81,482.12L-599.20,489.95L-592.40,492.78L-585.59,489.95L-582.97,482.12L-585.59,474.29ZM-592.40,489.87L-596.51,488.06L-598.32,482.12L-596.51,476.18L-592.40,474.37L-588.28,476.18L-586.46,482.12L-588.28,488.06ZM-571.27,471.46L-578.07,474.29L-580.68,482.12L-578.07,489.95L-571.27,492.78L-564.46,489.95L-561.85,482.12L-564.46,474.29ZM-571.27,489.87L-575.38,488.06L-577.19,482.12L-575.38,476.18L-571.27,474.37L-567.15,476.18L-565.33,482.12L-567.15,488.06ZM-554.82,483.45L-551.62,483.45L-550.10,484.67L-546.04,492.30L-542.96,490.63L-547.06,483.45L-549.57,482.04L-547.52,480.06L-545.67,476.14L-544.56,475.64L-543.00,475.39L-543.46,472.24L-546.31,472.52L-548.20,474.17L-550.34,478.82L-551.62,480.60L-554.82,480.60L-554.82,464.64L-556.56,464.64L-558.23,464.64L-558.23,492L-554.82,492Z"/>
</svg>