<?xml version="1.0"?>
<svg xmlns="http://www.w3.org/2000/svg" width="1920" height="1080" viewBox="-960 -540 1920 1080">
    <path d="M-844.38,-147L-692.31,-147L-692.31,-171.42L-804.86,-171.42L-804.86,-220.93L-705.40,-220.93L-705.40,-245.12L-804.86,-245.12L-804.86,-295.30L-698.97,-295.30L-698.97,-319.49L-844.38,-319.49ZM-544.68,-180.74L-542.68,-226.70C-541.79,-251.78 -562.88,-273.10 -602.84,-273.10C-665.00,-273.10 -676.77,-231.14 -676.77,-231.14L-638.58,-221.37C-638.58,-221.37 -638.36,-248.68 -604.62,-248.68C-581.97,-248.68 -579.31,-234.91 -579.31,-223.59C-646.80,-217.82 -670.99,-194.06 -670.99,-173.42C-670.99,-154.77 -657.23,-144.11 -634.59,-144.11C-596.40,-144.11 -575.53,-183.85 -574.42,-185.85C-574.42,-160.99 -567.76,-144.11 -541.35,-144.11C-522.03,-144.11 -511.82,-155.66 -511.82,-155.66L-519.15,-179.63C-519.15,-179.63 -525.58,-168.53 -535.80,-168.53C-542.46,-168.53 -544.90,-173.86 -544.68,-180.74ZM-632.81,-180.97C-632.81,-192.73 -619.71,-208.05 -579.31,-211.82L-579.31,-203.17C-579.31,-203.17 -594.18,-168.53 -619.93,-168.53C-631.03,-168.53 -632.81,-175.64 -632.81,-180.97ZM-455.21,-221.81C-455.21,-221.81 -451.66,-248.68 -436.12,-248.68C-431.90,-248.68 -426.35,-246.68 -426.35,-237.58C-426.35,-220.70 -430.12,-208.27 -430.12,-208.27L-394.60,-217.37C-394.60,-217.37 -391.72,-225.59 -391.72,-240.91C-391.72,-258.22 -399.27,-273.10 -424.80,-273.10C-460.54,-273.10 -460.09,-235.36 -460.09,-235.36L-470.53,-270.21L-491.84,-270.21L-491.84,-147L-455.21,-147ZM-385.06,-248.68L-356.64,-248.68L-356.64,-190.07C-356.64,-158.32 -338.44,-144.11 -308.69,-144.11C-276.94,-144.11 -262.29,-162.32 -262.29,-162.32L-269.40,-186.29C-269.40,-186.29 -279.16,-168.53 -298.70,-168.53C-314.46,-168.53 -320.46,-177.64 -320.46,-192.73L-320.46,-248.68L-263.85,-248.68L-263.85,-270.21L-320.46,-270.21L-320.46,-316.61L-355.75,-294.41L-355.75,-270.21L-385.06,-270.21ZM-201.24,-322.60C-201.24,-322.60 -217.67,-319.49 -237.87,-319.49L-237.87,-147L-201.24,-147L-201.24,-221.59C-201.24,-221.59 -194.80,-248.68 -163.06,-248.68C-145.74,-248.68 -133.31,-240.68 -133.31,-224.26L-133.31,-147L-96.90,-147L-96.90,-222.48C-96.90,-253.78 -114.88,-273.10 -153.07,-273.10C-194.58,-273.10 -200.80,-242.90 -201.24,-240.02ZM-32.52,-196.28L-68.04,-187.18C-68.04,-187.18 -65.16,-144.11 5.66,-144.11C41.18,-144.11 69.60,-157.43 69.60,-182.52C69.60,-200.72 57.83,-214.93 26.75,-220.04L-4.33,-225.14C-18.76,-227.59 -27.86,-229.58 -27.86,-236.91C-27.86,-243.13 -20.76,-249.79 -5.22,-249.79C26.31,-249.79 27.42,-228.03 27.42,-228.03L62.94,-237.13C62.94,-237.13 57.83,-273.10 -3.66,-273.10C-36.07,-273.10 -61.83,-259.11 -61.83,-234.69C-61.83,-212.27 -39.85,-204.72 -20.31,-201.17L8.55,-195.84C25.86,-192.73 33.41,-188.96 33.41,-181.41C33.41,-172.75 20.76,-168.53 6.11,-168.53C-32.74,-168.53 -32.52,-196.28 -32.52,-196.28ZM78.48,-248.68L106.89,-248.68L106.89,-190.07C106.89,-158.32 125.10,-144.11 154.85,-144.11C186.59,-144.11 201.24,-162.32 201.24,-162.32L194.14,-186.29C194.14,-186.29 184.37,-168.53 164.84,-168.53C149.07,-168.53 143.08,-177.64 143.08,-192.73L143.08,-248.68L199.69,-248.68L199.69,-270.21L143.08,-270.21L143.08,-316.61L107.78,-294.41L107.78,-270.21L78.48,-270.21ZM262.29,-221.81C262.29,-221.81 265.85,-248.68 281.39,-248.68C285.60,-248.68 291.15,-246.68 291.15,-237.58C291.15,-220.70 287.38,-208.27 287.38,-208.27L322.90,-217.37C322.90,-217.37 325.79,-225.59 325.79,-240.91C325.79,-258.22 318.24,-273.10 292.71,-273.10C256.97,-273.10 257.41,-235.36 257.41,-235.36L246.98,-270.21L225.66,-270.21L225.66,-147L262.29,-147ZM345.77,-208.72C345.77,-172.53 374.18,-144.11 421.91,-144.11C470.09,-144.11 498.50,-172.53 498.50,-208.72C498.50,-244.68 470.09,-273.10 421.91,-273.10C374.18,-273.10 345.77,-244.68 345.77,-208.72ZM384.17,-208.72C384.17,-228.92 393.27,-248.68 421.91,-248.68C450.33,-248.68 460.10,-228.92 460.10,-208.72C460.10,-188.51 450.33,-168.53 421.91,-168.53C393.27,-168.53 384.17,-188.51 384.17,-208.72ZM636.14,-147L672.77,-147L672.77,-222.48C672.77,-253.78 655.90,-273.10 615.05,-273.10C566.21,-273.10 563.55,-235.36 563.55,-235.36L553.11,-270.21L531.80,-270.21L531.80,-147L568.43,-147L568.43,-221.59C568.43,-221.59 575.98,-248.68 605.06,-248.68C624.82,-248.68 636.14,-240.68 636.14,-224.26ZM831.50,-180.74L833.50,-226.70C834.39,-251.78 813.30,-273.10 773.34,-273.10C711.18,-273.10 699.41,-231.14 699.41,-231.14L737.59,-221.37C737.59,-221.37 737.82,-248.68 771.56,-248.68C794.20,-248.68 796.87,-234.91 796.87,-223.59C729.38,-217.82 705.18,-194.06 705.18,-173.42C705.18,-154.77 718.95,-144.11 741.59,-144.11C779.78,-144.11 800.64,-183.85 801.75,-185.85C801.75,-160.99 808.41,-144.11 834.83,-144.11C854.15,-144.11 864.36,-155.66 864.36,-155.66L857.03,-179.63C857.03,-179.63 850.59,-168.53 840.38,-168.53C833.72,-168.53 831.28,-173.86 831.50,-180.74ZM743.37,-180.97C743.37,-192.73 756.46,-208.05 796.87,-211.82L796.87,-203.17C796.87,-203.17 781.99,-168.53 756.24,-168.53C745.14,-168.53 743.37,-175.64 743.37,-180.97ZM-175.38,12.71L-211.79,12.71L-211.79,88.19C-211.79,119.49 -194.92,138.80 -154.07,138.80C-105.23,138.80 -102.56,101.06 -102.56,101.06L-92.13,135.92L-70.82,135.92L-70.82,12.71L-107.45,12.71L-107.45,87.30C-107.45,87.30 -115.00,114.38 -144.08,114.38C-163.84,114.38 -175.38,106.39 -175.38,89.96ZM-50.84,34.24L-22.42,34.24L-22.42,92.85C-22.42,124.59 -4.22,138.80 25.53,138.80C57.28,138.80 71.93,120.60 71.93,120.60L64.82,96.62C64.82,96.62 55.06,114.38 35.52,114.38C19.76,114.38 13.76,105.28 13.76,90.18L13.76,34.24L70.37,34.24L70.37,12.71L13.76,12.71L13.76,-33.69L-21.53,-11.49L-21.53,12.71L-50.84,12.71ZM120.77,86.63L85.25,95.73C85.25,95.73 88.13,138.80 158.95,138.80C194.47,138.80 222.89,125.48 222.89,100.40C222.89,82.19 211.12,67.98 180.04,62.88L148.96,57.77C134.53,55.33 125.43,53.33 125.43,46.01C125.43,39.79 132.53,33.13 148.07,33.13C179.60,33.13 180.71,54.89 180.71,54.89L216.23,45.78C216.23,45.78 211.12,9.82 149.63,9.82C117.22,9.82 91.46,23.81 91.46,48.23C91.46,70.65 113.44,78.20 132.98,81.75L161.84,87.08C179.15,90.18 186.70,93.96 186.70,101.51C186.70,110.16 174.05,114.38 159.40,114.38C120.55,114.38 120.77,86.63 120.77,86.63Z" fill="#ffffff" stroke="#000000"/>
    <path d="M-839.35,-156.72L-688.82,-154.18L-688.42,-178.36L-799.83,-180.23L-799.00,-229.24L-700.56,-227.58L-700.15,-251.53L-798.60,-253.19L-797.76,-302.85L-692.94,-301.09L-692.54,-325.04L-836.48,-327.46ZM-542.13,-185.12L-539.38,-230.58C-538.09,-255.40 -558.61,-276.84 -598.16,-277.51C-659.69,-278.55 -672.04,-237.21 -672.04,-237.21L-634.41,-226.90C-634.41,-226.90 -633.73,-253.93 -600.33,-253.37C-577.91,-252.99 -575.51,-239.32 -575.70,-228.11C-642.60,-223.53 -666.94,-200.42 -667.29,-179.98C-667.60,-161.52 -654.15,-150.74 -631.74,-150.37C-593.94,-149.73 -572.62,-188.72 -571.49,-190.67C-571.90,-166.06 -565.59,-149.25 -539.44,-148.81C-520.33,-148.49 -510.02,-159.74 -510.02,-159.74L-516.88,-183.60C-516.88,-183.60 -523.43,-172.72 -533.54,-172.89C-540.13,-173.00 -542.46,-178.32 -542.13,-185.12ZM-629.37,-186.81C-629.17,-198.46 -615.95,-213.40 -575.89,-216.47L-576.04,-207.90C-576.04,-207.90 -591.34,-173.86 -616.83,-174.29C-627.81,-174.48 -629.45,-181.54 -629.37,-186.81ZM-452.89,-224.29C-452.89,-224.29 -448.92,-250.82 -433.54,-250.56C-429.36,-250.49 -423.90,-248.42 -424.06,-239.41C-424.34,-222.71 -428.28,-210.46 -428.28,-210.46L-392.97,-218.88C-392.97,-218.88 -389.97,-226.96 -389.72,-242.13C-389.43,-259.27 -396.65,-274.12 -421.92,-274.54C-457.30,-275.14 -457.49,-237.77 -457.49,-237.77L-467.24,-272.45L-488.34,-272.80L-490.39,-150.84L-454.13,-150.23ZM-383.00,-249.71L-354.87,-249.23L-355.85,-191.22C-356.38,-159.79 -338.59,-145.43 -309.15,-144.93C-277.72,-144.40 -262.92,-162.18 -262.92,-162.18L-269.55,-186.03C-269.55,-186.03 -279.51,-168.61 -298.85,-168.94C-314.45,-169.20 -320.23,-178.31 -319.98,-193.25L-319.05,-248.63L-263.01,-247.68L-262.65,-269.00L-318.69,-269.94L-317.92,-315.87L-353.23,-294.49L-353.63,-270.53L-382.64,-271.02ZM-199.81,-319.82C-199.81,-319.82 -216.13,-317.01 -236.12,-317.35L-239.00,-146.61L-202.74,-146.00L-201.50,-219.83C-201.50,-219.83 -194.67,-246.53 -163.25,-246.00C-146.11,-245.72 -133.93,-237.60 -134.21,-221.34L-135.50,-144.86L-99.46,-144.26L-98.20,-218.97C-97.68,-249.95 -115.16,-269.37 -152.95,-270.01C-194.04,-270.70 -200.70,-240.92 -201.19,-238.07ZM-34.91,-191.97L-70.22,-183.55C-70.22,-183.55 -68.08,-140.87 2.02,-139.69C37.18,-139.10 65.53,-151.81 65.95,-176.64C66.25,-194.66 54.84,-208.92 24.16,-214.49L-6.52,-220.06C-20.76,-222.72 -29.74,-224.85 -29.62,-232.10C-29.51,-238.26 -22.37,-244.73 -6.99,-244.47C24.22,-243.94 24.95,-222.39 24.95,-222.39L60.26,-230.81C60.26,-230.81 55.81,-266.49 -5.06,-267.52C-37.14,-268.06 -62.87,-254.64 -63.28,-230.47C-63.65,-208.28 -42.02,-200.44 -22.74,-196.60L5.74,-190.84C22.83,-187.48 30.23,-183.62 30.11,-176.14C29.96,-167.57 17.37,-163.61 2.86,-163.85C-35.59,-164.50 -34.91,-191.97 -34.91,-191.97ZM75.84,-241.98L103.97,-241.50L102.99,-183.49C102.46,-152.06 120.24,-137.70 149.69,-137.20C181.11,-136.67 195.92,-154.45 195.92,-154.45L189.29,-178.30C189.29,-178.30 179.32,-160.88 159.98,-161.21C144.38,-161.47 138.60,-170.58 138.85,-185.52L139.79,-240.90L195.82,-239.95L196.18,-261.27L140.14,-262.21L140.92,-308.14L105.61,-286.76L105.20,-262.80L76.20,-263.29ZM257.34,-212.32C257.34,-212.32 261.31,-238.85 276.69,-238.59C280.86,-238.52 286.32,-236.45 286.17,-227.44C285.89,-210.74 281.95,-198.50 281.95,-198.50L317.26,-206.92C317.26,-206.92 320.25,-215.00 320.51,-230.16C320.80,-247.30 313.57,-262.15 288.30,-262.58C252.92,-263.17 252.73,-225.81 252.73,-225.81L242.99,-260.48L221.89,-260.84L219.84,-138.88L256.10,-138.27ZM339.75,-197.96C339.15,-162.15 366.80,-133.54 414.05,-132.75C461.73,-131.94 490.33,-159.60 490.94,-195.42C491.54,-231.02 463.88,-259.62 416.20,-260.42C368.95,-261.22 340.35,-233.56 339.75,-197.96ZM377.77,-197.32C378.10,-217.32 387.44,-236.73 415.79,-236.25C443.92,-235.78 453.26,-216.05 452.92,-196.06C452.58,-176.06 442.58,-156.45 414.45,-156.92C386.11,-157.40 377.43,-177.33 377.77,-197.32ZM626.15,-132.03L662.41,-131.42L663.67,-206.14C664.19,-237.12 647.81,-256.52 607.38,-257.20C559.03,-258.02 555.77,-220.70 555.77,-220.70L546.02,-255.38L524.92,-255.73L522.87,-133.77L559.13,-133.16L560.37,-207.00C560.37,-207.00 568.30,-233.68 597.08,-233.20C616.64,-232.87 627.71,-224.77 627.44,-208.50ZM820.09,-162.18L822.84,-207.63C824.14,-232.45 803.61,-253.90 764.06,-254.56C702.53,-255.60 690.18,-214.26 690.18,-214.26L727.82,-203.96C727.82,-203.96 728.49,-230.98 761.89,-230.42C784.31,-230.04 786.72,-216.37 786.53,-205.17C719.63,-200.58 695.28,-177.47 694.93,-157.03C694.62,-138.57 708.07,-127.79 730.48,-127.42C768.28,-126.78 789.60,-165.77 790.73,-167.73C790.32,-143.11 796.63,-126.30 822.78,-125.86C841.90,-125.54 852.20,-136.80 852.20,-136.80L845.35,-160.65C845.35,-160.65 838.79,-149.77 828.68,-149.94C822.09,-150.05 819.76,-155.37 820.09,-162.18ZM732.86,-163.87C733.05,-175.51 746.27,-190.46 786.33,-193.52L786.19,-184.95C786.19,-184.95 770.89,-150.92 745.40,-151.34C734.41,-151.53 732.77,-158.59 732.86,-163.87ZM-179.80,12.52L-215.84,11.92L-217.10,86.63C-217.62,117.62 -201.24,137.01 -160.81,137.70C-112.46,138.51 -109.20,101.20 -109.20,101.20L-99.45,135.87L-78.36,136.23L-76.30,14.27L-112.56,13.66L-113.80,87.49C-113.80,87.49 -121.73,114.17 -150.51,113.69C-170.07,113.36 -181.36,105.26 -181.09,89.00ZM-56.88,35.92L-28.75,36.39L-29.73,94.40C-30.26,125.83 -12.48,140.19 16.97,140.69C48.39,141.22 63.20,123.44 63.20,123.44L56.57,99.59C56.57,99.59 46.60,117.01 27.26,116.68C11.66,116.42 5.88,107.31 6.13,92.37L7.06,36.99L63.10,37.94L63.46,16.62L7.42,15.68L8.20,-30.25L-27.11,-8.86L-27.52,15.09L-56.52,14.60ZM112.11,90.64L76.80,99.06C76.80,99.06 78.94,141.73 149.04,142.92C184.20,143.51 212.55,130.80 212.96,105.97C213.27,87.95 201.86,73.69 171.18,68.11L140.50,62.54C126.26,59.88 117.28,57.75 117.40,50.50C117.51,44.35 124.65,37.87 140.03,38.13C171.24,38.66 171.97,60.21 171.97,60.21L207.28,51.80C207.28,51.80 202.83,16.11 141.96,15.09C109.87,14.55 84.15,27.96 83.74,52.13C83.37,74.33 105.00,82.17 124.28,86.01L152.76,91.76C169.84,95.13 177.25,98.99 177.13,106.46C176.98,115.03 164.39,118.99 149.88,118.75C111.43,118.10 112.11,90.64 112.11,90.64Z" fill="#ffffff" stroke="#000000"/>
    <path d="M-834.12,-166.37L-685.17,-161.35L-684.37,-185.27L-794.61,-188.98L-792.97,-237.47L-695.56,-234.19L-694.76,-257.89L-792.18,-261.17L-790.52,-310.31L-686.80,-306.82L-686.00,-330.52L-828.43,-335.32ZM-539.47,-189.53L-535.99,-234.47C-534.29,-259.01 -554.25,-280.58 -593.39,-281.90C-654.27,-283.95 -667.18,-243.25 -667.18,-243.25L-630.10,-232.42C-630.10,-232.42 -628.98,-259.16 -595.93,-258.04C-573.75,-257.29 -571.60,-243.73 -571.97,-232.64C-638.26,-229.21 -662.75,-206.74 -663.43,-186.52C-664.04,-168.26 -650.92,-157.37 -628.74,-156.62C-591.34,-155.36 -569.59,-193.59 -568.43,-195.51C-569.25,-171.16 -563.29,-154.41 -537.41,-153.54C-518.50,-152.90 -508.11,-163.87 -508.11,-163.87L-514.50,-187.60C-514.50,-187.60 -521.17,-176.94 -531.17,-177.28C-537.69,-177.50 -539.91,-182.79 -539.47,-189.53ZM-625.78,-192.65C-625.39,-204.18 -612.06,-218.75 -572.36,-221.11L-572.65,-212.63C-572.65,-212.63 -588.36,-179.20 -613.58,-180.05C-624.45,-180.42 -625.96,-187.44 -625.78,-192.65ZM-450.48,-226.80C-450.48,-226.80 -446.12,-252.99 -430.90,-252.48C-426.77,-252.34 -421.40,-250.20 -421.70,-241.29C-422.25,-224.76 -426.36,-212.71 -426.36,-212.71L-391.27,-220.45C-391.27,-220.45 -388.17,-228.40 -387.67,-243.40C-387.09,-260.36 -394.00,-275.18 -419.00,-276.02C-454.01,-277.20 -454.82,-240.22 -454.82,-240.22L-463.89,-274.71L-484.76,-275.41L-488.83,-154.73L-452.95,-153.52ZM-380.89,-250.79L-353.05,-249.86L-354.99,-192.45C-356.04,-161.36 -338.68,-146.84 -309.54,-145.86C-278.45,-144.81 -263.49,-162.16 -263.49,-162.16L-269.66,-185.88C-269.66,-185.88 -279.81,-168.80 -298.95,-169.45C-314.39,-169.97 -319.96,-179.08 -319.46,-193.87L-317.61,-248.66L-262.17,-246.79L-261.46,-267.88L-316.90,-269.75L-315.37,-315.20L-350.68,-294.62L-351.47,-270.92L-380.18,-271.89ZM-198.41,-317.13C-198.41,-317.13 -214.60,-314.63 -234.39,-315.30L-240.08,-146.35L-204.21,-145.14L-201.74,-218.20C-201.74,-218.20 -194.54,-244.51 -163.45,-243.47C-146.49,-242.89 -134.58,-234.66 -135.12,-218.57L-137.67,-142.90L-102.01,-141.70L-99.52,-215.62C-98.49,-246.28 -115.46,-265.79 -152.86,-267.05C-193.52,-268.42 -200.60,-239.06 -201.13,-236.25ZM-37.33,-187.84L-72.42,-180.10C-72.42,-180.10 -71.01,-137.82 -1.65,-135.48C33.14,-134.31 61.41,-146.42 62.24,-170.99C62.84,-188.82 51.79,-203.12 21.51,-209.15L-8.76,-215.18C-22.81,-218.05 -31.66,-220.30 -31.42,-227.48C-31.21,-233.57 -24.04,-239.86 -8.82,-239.34C22.06,-238.30 22.43,-216.96 22.43,-216.96L57.52,-224.70C57.52,-224.70 53.71,-260.09 -6.52,-262.12C-38.27,-263.19 -63.95,-250.34 -64.76,-226.43C-65.50,-204.46 -44.22,-196.35 -25.21,-192.22L2.88,-186.05C19.74,-182.44 27.01,-178.49 26.76,-171.10C26.48,-162.62 13.94,-158.90 -0.41,-159.39C-38.46,-160.67 -37.33,-187.84 -37.33,-187.84ZM73.12,-235.49L100.95,-234.56L99.02,-177.15C97.97,-146.06 115.33,-131.54 144.47,-130.56C175.56,-129.51 190.51,-146.86 190.51,-146.86L184.35,-170.58C184.35,-170.58 174.19,-153.50 155.06,-154.15C139.62,-154.67 134.05,-163.78 134.55,-178.57L136.40,-233.36L191.84,-231.49L192.55,-252.58L137.11,-254.45L138.64,-299.90L103.33,-279.32L102.53,-255.62L73.83,-256.58ZM252.27,-203.12C252.27,-203.12 256.64,-229.31 271.86,-228.80C275.99,-228.66 281.36,-226.52 281.06,-217.60C280.50,-201.08 276.40,-189.02 276.40,-189.02L311.49,-196.77C311.49,-196.77 314.58,-204.72 315.09,-219.72C315.66,-236.68 308.76,-251.50 283.75,-252.34C248.75,-253.52 247.94,-216.54 247.94,-216.54L238.87,-251.02L217.99,-251.73L213.93,-131.05L249.80,-129.84ZM333.60,-187.53C332.40,-152.09 359.30,-123.32 406.04,-121.74C453.23,-120.15 482.00,-147.05 483.19,-182.49C484.38,-217.71 457.49,-246.48 410.30,-248.07C363.55,-249.65 334.78,-222.76 333.60,-187.53ZM371.21,-186.26C371.88,-206.05 381.45,-225.10 409.50,-224.16C437.33,-223.22 446.24,-203.54 445.58,-183.76C444.91,-163.97 434.68,-144.72 406.85,-145.66C378.80,-146.61 370.55,-166.48 371.21,-186.26ZM615.97,-117.50L651.84,-116.29L654.33,-190.22C655.37,-220.88 639.48,-240.35 599.47,-241.70C551.64,-243.31 547.78,-206.44 547.78,-206.44L538.71,-240.92L517.84,-241.62L513.77,-120.94L549.65,-119.73L552.11,-192.79C552.11,-192.79 560.40,-219.07 588.88,-218.11C608.23,-217.46 619.06,-209.26 618.52,-193.17ZM808.42,-144.10L811.90,-189.04C813.60,-213.59 793.64,-235.16 754.50,-236.47C693.62,-238.53 680.71,-197.82 680.71,-197.82L717.79,-186.99C717.79,-186.99 718.91,-213.73 751.96,-212.62C774.14,-211.87 776.29,-198.30 775.92,-187.21C709.63,-183.78 685.14,-161.32 684.46,-141.10C683.84,-122.83 696.97,-111.94 719.15,-111.19C756.55,-109.93 778.30,-148.16 779.46,-150.08C778.63,-125.73 784.60,-108.99 810.48,-108.11C829.39,-107.48 839.78,-118.45 839.78,-118.45L833.39,-142.17C833.39,-142.17 826.72,-131.51 816.72,-131.85C810.19,-132.07 807.98,-137.37 808.42,-144.10ZM722.11,-147.23C722.50,-158.75 735.83,-173.32 775.53,-175.69L775.24,-167.21C775.24,-167.21 759.53,-133.78 734.31,-134.63C723.44,-134.99 721.93,-142.01 722.11,-147.23ZM-184.15,12.14L-219.81,10.94L-222.30,84.86C-223.33,115.52 -207.44,135.00 -167.43,136.34C-119.60,137.96 -115.74,101.08 -115.74,101.08L-106.67,135.56L-85.80,136.27L-81.73,15.59L-117.61,14.38L-120.07,87.44C-120.07,87.44 -128.36,113.72 -156.84,112.76C-176.20,112.10 -187.24,103.90 -186.70,87.80ZM-62.87,37.34L-35.04,38.28L-36.98,95.68C-38.03,126.77 -20.66,141.29 8.47,142.27C39.57,143.32 54.52,125.97 54.52,125.97L48.35,102.26C48.35,102.26 38.20,119.33 19.06,118.68C3.62,118.16 -1.95,109.05 -1.45,94.27L0.40,39.47L55.85,41.34L56.56,20.25L1.11,18.38L2.64,-27.06L-32.66,-6.49L-33.46,17.22L-62.16,16.25ZM103.47,94.32L68.38,102.06C68.38,102.06 69.79,144.34 139.15,146.68C173.94,147.85 202.21,135.74 203.04,111.17C203.64,93.34 192.59,79.04 162.31,73.01L132.04,66.98C117.99,64.11 109.14,61.86 109.38,54.68C109.59,48.59 116.76,42.31 131.99,42.82C162.86,43.86 163.23,65.20 163.23,65.20L198.32,57.46C198.32,57.46 194.51,22.07 134.28,20.04C102.53,18.97 76.85,31.82 76.04,55.74C75.30,77.70 96.58,85.81 115.59,89.94L143.69,96.11C160.54,99.73 167.81,103.67 167.56,111.06C167.28,119.54 154.74,123.26 140.39,122.77C102.34,121.49 103.47,94.32 103.47,94.32Z" fill="#ffffff" stroke="#000000"/>
    <path d="M-828.68,-175.94L-681.36,-168.49L-680.16,-192.15L-789.20,-197.66L-786.77,-245.62L-690.42,-240.75L-689.24,-264.19L-785.59,-269.07L-783.13,-317.67L-680.54,-312.48L-679.36,-335.92L-820.22,-343.05ZM-536.68,-193.95L-532.50,-238.37C-530.41,-262.63 -549.80,-284.31 -588.51,-286.27C-648.73,-289.31 -662.18,-249.24 -662.18,-249.24L-625.67,-237.91C-625.67,-237.91 -624.11,-264.35 -591.42,-262.70C-569.49,-261.59 -567.58,-248.12 -568.14,-237.15C-633.80,-234.87 -658.40,-213.04 -659.42,-193.04C-660.33,-174.98 -647.52,-163.98 -625.58,-162.87C-588.59,-161.00 -566.43,-198.47 -565.25,-200.35C-566.47,-176.27 -560.85,-159.59 -535.25,-158.30C-516.54,-157.35 -506.08,-168.04 -506.08,-168.04L-512.01,-191.62C-512.01,-191.62 -518.79,-181.18 -528.68,-181.68C-535.13,-182.01 -537.24,-187.29 -536.68,-193.95ZM-622.05,-198.48C-621.48,-209.88 -608.04,-224.08 -568.71,-225.75L-569.14,-217.37C-569.14,-217.37 -585.24,-184.55 -610.19,-185.81C-620.94,-186.35 -622.32,-193.32 -622.05,-198.48ZM-448.00,-229.35C-448.00,-229.35 -443.24,-255.20 -428.19,-254.44C-424.10,-254.23 -418.82,-252.03 -419.27,-243.21C-420.10,-226.86 -424.36,-215.00 -424.36,-215.00L-389.51,-222.08C-389.51,-222.08 -386.31,-229.90 -385.56,-244.74C-384.71,-261.51 -391.29,-276.29 -416.02,-277.54C-450.65,-279.29 -452.07,-242.71 -452.07,-242.71L-460.47,-276.99L-481.12,-278.03L-487.15,-158.67L-451.67,-156.88ZM-378.72,-251.94L-351.20,-250.55L-354.07,-193.77C-355.62,-163.01 -338.68,-148.36 -309.87,-146.90C-279.11,-145.34 -264.02,-162.26 -264.02,-162.26L-269.73,-185.84C-269.73,-185.84 -280.07,-169.11 -298.99,-170.07C-314.26,-170.84 -319.62,-179.95 -318.88,-194.58L-316.14,-248.77L-261.30,-246.00L-260.24,-266.86L-315.09,-269.63L-312.81,-314.58L-348.10,-294.81L-349.28,-271.36L-377.67,-272.80ZM-197.03,-314.55C-197.03,-314.55 -213.10,-312.34 -232.67,-313.33L-241.12,-146.23L-205.63,-144.43L-201.98,-216.69C-201.98,-216.69 -194.41,-242.62 -163.66,-241.06C-146.88,-240.21 -135.23,-231.86 -136.04,-215.95L-139.82,-141.10L-104.55,-139.32L-100.85,-212.44C-99.32,-242.77 -115.79,-262.36 -152.79,-264.23C-193.00,-266.26 -200.50,-237.32 -201.07,-234.54ZM-39.77,-183.91L-74.62,-176.83C-74.62,-176.83 -73.94,-134.97 -5.33,-131.50C29.08,-129.76 57.26,-141.27 58.49,-165.57C59.38,-183.21 48.68,-197.55 18.82,-204.02L-11.04,-210.49C-24.90,-213.56 -33.62,-215.94 -33.26,-223.04C-32.96,-229.06 -25.75,-235.16 -10.69,-234.40C19.85,-232.86 19.85,-211.73 19.85,-211.73L54.71,-218.80C54.71,-218.80 51.53,-253.89 -8.05,-256.91C-39.45,-258.50 -65.08,-246.21 -66.28,-222.55C-67.37,-200.83 -46.45,-192.44 -27.70,-188.04L-0.00,-181.47C16.62,-177.61 23.75,-173.58 23.38,-166.27C22.95,-157.88 10.49,-154.42 -3.71,-155.13C-41.34,-157.04 -39.77,-183.91 -39.77,-183.91ZM70.33,-229.23L97.86,-227.83L94.99,-171.06C93.43,-140.30 110.37,-125.65 139.19,-124.19C169.94,-122.63 185.03,-139.55 185.03,-139.55L179.32,-163.13C179.32,-163.13 168.99,-146.40 150.06,-147.36C134.80,-148.13 129.43,-157.24 130.17,-171.86L132.92,-226.06L187.76,-223.29L188.81,-244.15L133.97,-246.92L136.24,-291.87L100.96,-272.09L99.77,-248.65L71.39,-250.09ZM247.09,-194.20C247.09,-194.20 251.85,-220.05 266.90,-219.28C270.99,-219.08 276.27,-216.87 275.82,-208.05C274.99,-191.71 270.73,-179.85 270.73,-179.85L305.58,-186.93C305.58,-186.93 308.78,-194.74 309.53,-209.58C310.38,-226.36 303.80,-241.14 279.07,-242.39C244.44,-244.14 243.02,-207.55 243.02,-207.55L234.62,-241.83L213.97,-242.88L207.94,-123.51L243.42,-121.72ZM327.31,-177.42C325.54,-142.36 351.67,-113.44 397.91,-111.10C444.58,-108.74 473.50,-134.88 475.28,-169.93C477.04,-204.77 450.90,-233.70 404.23,-236.06C357.99,-238.39 329.07,-212.26 327.31,-177.42ZM364.52,-175.54C365.51,-195.11 375.29,-213.80 403.04,-212.40C430.57,-211.01 439.06,-191.39 438.07,-171.82C437.08,-152.24 426.64,-133.37 399.11,-134.76C371.37,-136.16 363.53,-155.97 364.52,-175.54ZM605.59,-103.40L641.08,-101.61L644.78,-174.73C646.31,-205.05 630.91,-224.59 591.34,-226.59C544.03,-228.99 539.60,-192.55 539.60,-192.55L531.20,-226.83L510.55,-227.88L504.51,-108.51L540.00,-106.72L543.65,-178.98C543.65,-178.98 552.29,-204.85 580.47,-203.42C599.61,-202.46 610.18,-194.16 609.38,-178.24ZM796.50,-126.52L800.69,-170.94C802.78,-195.20 783.39,-216.88 744.68,-218.84C684.46,-221.88 671.01,-181.81 671.01,-181.81L707.52,-170.48C707.52,-170.48 709.07,-196.92 741.76,-195.27C763.70,-194.16 765.61,-180.69 765.05,-169.72C699.39,-167.44 674.78,-145.61 673.77,-125.61C672.86,-107.55 685.67,-96.55 707.61,-95.44C744.60,-93.57 766.76,-131.04 767.93,-132.92C766.72,-108.84 772.34,-92.17 797.93,-90.87C816.65,-89.92 827.10,-100.61 827.10,-100.61L821.18,-124.19C821.18,-124.19 814.40,-113.76 804.51,-114.26C798.06,-114.58 795.95,-119.86 796.50,-126.52ZM711.13,-131.05C711.71,-142.45 725.15,-156.65 764.48,-158.33L764.05,-149.94C764.05,-149.94 747.95,-117.12 723.00,-118.38C712.24,-118.92 710.87,-125.89 711.13,-131.05ZM-188.40,11.55L-223.67,9.77L-227.37,82.89C-228.91,113.22 -213.51,132.75 -173.93,134.75C-126.62,137.15 -122.19,100.72 -122.19,100.72L-113.79,134.99L-93.14,136.04L-87.11,16.68L-122.59,14.88L-126.25,87.14C-126.25,87.14 -134.89,113.01 -163.06,111.59C-182.20,110.62 -192.99,102.31 -192.19,86.40ZM-68.81,38.52L-41.28,39.91L-44.15,96.69C-45.71,127.44 -28.77,142.10 0.05,143.55C30.81,145.11 45.89,128.19 45.89,128.19L40.19,104.62C40.19,104.62 29.85,121.34 10.93,120.39C-4.34,119.61 -9.70,110.50 -8.96,95.88L-6.22,41.68L48.62,44.46L49.67,23.59L-5.17,20.82L-2.89,-24.13L-38.18,-4.35L-39.36,19.09L-67.75,17.66ZM94.87,97.68L60.02,104.76C60.02,104.76 60.70,146.62 129.31,150.09C163.72,151.83 191.90,140.32 193.13,116.02C194.02,98.38 183.32,84.04 153.46,77.57L123.60,71.10C109.74,68.03 101.02,65.65 101.38,58.55C101.68,52.53 108.89,46.43 123.95,47.19C154.49,48.73 154.50,69.86 154.50,69.86L189.35,62.79C189.35,62.79 186.17,27.70 126.59,24.68C95.19,23.09 69.56,35.38 68.37,59.04C67.27,80.76 88.19,89.15 106.94,93.55L134.64,100.12C151.26,103.98 158.39,108.01 158.02,115.32C157.59,123.71 145.13,127.17 130.93,126.46C93.30,124.55 94.87,97.68 94.87,97.68Z" fill="#ffffff" stroke="#000000"/>
    <path d="M-823.02,-185.43L-677.37,-175.60L-675.79,-198.99L-783.60,-206.27L-780.40,-253.69L-685.14,-247.26L-683.57,-270.44L-778.83,-276.86L-775.59,-324.92L-674.16,-318.08L-672.60,-341.25L-811.88,-350.65ZM-533.78,-198.38L-528.90,-242.27C-526.43,-266.24 -545.25,-288.02 -583.53,-290.60C-643.06,-294.62 -657.05,-255.19 -657.05,-255.19L-621.10,-243.36C-621.10,-243.36 -619.13,-269.50 -586.81,-267.32C-565.12,-265.86 -563.45,-252.50 -564.19,-241.66C-629.20,-240.49 -653.91,-219.31 -655.25,-199.53C-656.45,-181.67 -643.96,-170.57 -622.27,-169.11C-585.70,-166.64 -563.14,-203.35 -561.95,-205.20C-563.55,-181.38 -558.27,-164.79 -532.96,-163.08C-514.46,-161.83 -503.94,-172.23 -503.94,-172.23L-509.40,-195.67C-509.40,-195.67 -516.29,-185.45 -526.07,-186.11C-532.45,-186.54 -534.44,-191.81 -533.78,-198.38ZM-618.19,-204.29C-617.43,-215.56 -603.89,-229.39 -564.95,-230.39L-565.51,-222.10C-565.51,-222.10 -581.99,-189.89 -606.66,-191.55C-617.29,-192.27 -618.53,-199.19 -618.19,-204.29ZM-445.44,-231.94C-445.44,-231.94 -440.30,-257.44 -425.41,-256.43C-421.37,-256.16 -416.19,-253.89 -416.78,-245.17C-417.87,-229.01 -422.28,-217.35 -422.28,-217.35L-387.67,-223.77C-387.67,-223.77 -384.38,-231.45 -383.39,-246.12C-382.27,-262.71 -388.54,-277.44 -412.99,-279.09C-447.23,-281.40 -449.24,-245.22 -449.24,-245.22L-456.98,-279.28L-477.39,-280.66L-485.36,-162.65L-450.27,-160.28ZM-376.51,-253.13L-349.29,-251.30L-353.08,-195.16C-355.13,-164.75 -338.61,-149.97 -310.12,-148.04C-279.71,-145.99 -264.50,-162.48 -264.50,-162.48L-269.76,-185.91C-269.76,-185.91 -280.26,-169.53 -298.97,-170.79C-314.07,-171.81 -319.22,-180.91 -318.25,-195.37L-314.63,-248.96L-260.41,-245.30L-259.02,-265.92L-313.24,-269.58L-310.24,-314.02L-345.48,-295.04L-347.05,-271.86L-375.12,-273.76ZM-195.67,-312.06C-195.67,-312.06 -211.60,-310.14 -230.95,-311.45L-242.10,-146.23L-207.02,-143.86L-202.20,-215.31C-202.20,-215.31 -194.28,-240.84 -163.87,-238.78C-147.29,-237.66 -135.89,-229.21 -136.96,-213.47L-141.95,-139.47L-107.08,-137.12L-102.20,-209.42C-100.18,-239.40 -116.15,-259.06 -152.72,-261.53C-192.49,-264.21 -200.39,-235.69 -201.00,-232.96ZM-42.23,-180.16L-76.84,-173.74C-76.84,-173.74 -76.86,-132.30 -9.03,-127.73C25.00,-125.43 53.07,-136.35 54.70,-160.38C55.87,-177.82 45.52,-192.19 16.08,-199.09L-13.36,-205.98C-27.02,-209.26 -35.61,-211.76 -35.14,-218.78C-34.73,-224.73 -27.50,-230.65 -12.62,-229.65C17.58,-227.61 17.24,-206.70 17.24,-206.70L51.85,-213.12C51.85,-213.12 49.28,-247.90 -9.62,-251.87C-40.67,-253.97 -66.24,-242.23 -67.81,-218.84C-69.26,-197.37 -48.70,-188.72 -30.22,-184.05L-2.92,-177.08C13.47,-172.99 20.45,-168.89 19.96,-161.66C19.40,-153.36 7.01,-150.14 -7.02,-151.09C-44.23,-153.60 -42.23,-180.16 -42.23,-180.16ZM67.48,-223.17L94.69,-221.34L90.91,-165.20C88.85,-134.79 105.37,-120.01 133.87,-118.08C164.27,-116.03 179.48,-132.52 179.48,-132.52L174.23,-155.95C174.23,-155.95 163.72,-139.57 145.01,-140.83C129.92,-141.85 124.76,-150.95 125.74,-165.41L129.35,-219.00L183.58,-215.34L184.97,-235.96L130.75,-239.62L133.74,-284.06L98.50,-265.08L96.94,-241.90L68.87,-243.80ZM241.80,-185.56C241.80,-185.56 246.94,-211.06 261.83,-210.06C265.87,-209.78 271.05,-207.51 270.46,-198.79C269.37,-182.63 264.96,-170.97 264.96,-170.97L299.57,-177.39C299.57,-177.39 302.86,-185.07 303.85,-199.75C304.97,-216.33 298.70,-231.07 274.25,-232.72C240.01,-235.03 238.00,-198.85 238.00,-198.85L230.26,-232.91L209.85,-234.28L201.88,-116.27L236.97,-113.90ZM320.91,-167.62C318.57,-132.96 343.95,-103.91 389.67,-100.82C435.81,-97.71 464.86,-123.09 467.20,-157.75C469.53,-192.20 444.15,-221.25 398.00,-224.36C352.29,-227.45 323.23,-202.07 320.91,-167.62ZM357.69,-165.14C359.00,-184.49 369.00,-202.83 396.43,-200.97C423.64,-199.14 431.72,-179.58 430.42,-160.23C429.11,-140.88 418.46,-122.38 391.25,-124.21C363.82,-126.06 356.39,-145.79 357.69,-165.14ZM595.05,-89.74L630.13,-87.37L635.01,-159.67C637.03,-189.65 622.12,-209.24 583.00,-211.88C536.22,-215.04 531.23,-179.06 531.23,-179.06L523.49,-213.12L503.07,-214.50L495.11,-96.48L530.19,-94.12L535.01,-165.56C535.01,-165.56 543.99,-191.02 571.85,-189.14C590.77,-187.86 601.10,-179.47 600.04,-163.74ZM784.35,-109.43L789.23,-153.32C791.70,-177.29 772.88,-199.07 734.61,-201.65C675.07,-205.67 661.09,-166.24 661.09,-166.24L697.03,-154.42C697.03,-154.42 699.01,-180.56 731.33,-178.38C753.02,-176.91 754.68,-163.56 753.95,-152.71C688.93,-151.55 664.22,-130.36 662.88,-110.58C661.68,-92.72 674.17,-81.62 695.86,-80.16C732.44,-77.69 754.99,-114.41 756.19,-116.25C754.58,-92.43 759.87,-75.84 785.17,-74.13C803.67,-72.89 814.20,-83.28 814.20,-83.28L808.73,-106.72C808.73,-106.72 801.85,-96.51 792.06,-97.17C785.69,-97.60 783.69,-102.86 784.35,-109.43ZM699.95,-115.34C700.71,-126.61 714.24,-140.44 753.19,-141.44L752.63,-133.15C752.63,-133.15 736.14,-100.94 711.48,-102.60C700.84,-103.32 699.60,-110.24 699.95,-115.34ZM-192.57,10.78L-227.44,8.42L-232.32,80.72C-234.34,110.70 -219.43,130.29 -180.30,132.93C-133.52,136.09 -128.53,100.11 -128.53,100.11L-120.79,134.17L-100.38,135.55L-92.42,17.54L-127.50,15.17L-132.32,86.61C-132.32,86.61 -141.30,112.07 -169.16,110.19C-188.08,108.91 -198.62,100.51 -197.56,84.78ZM-74.67,39.45L-47.45,41.29L-51.24,97.43C-53.29,127.83 -36.77,142.62 -8.28,144.54C22.13,146.59 37.34,130.10 37.34,130.10L32.08,106.68C32.08,106.68 21.58,123.06 2.87,121.80C-12.23,120.78 -17.38,111.67 -16.41,97.21L-12.79,43.63L41.43,47.29L42.82,26.66L-11.40,23.00L-8.40,-21.44L-43.65,-2.46L-45.21,20.72L-73.28,18.83ZM86.31,100.73L51.70,107.15C51.70,107.15 51.68,148.59 119.51,153.16C153.53,155.46 181.61,144.54 183.23,120.51C184.41,103.07 174.06,88.71 144.62,81.81L115.18,74.91C101.52,71.64 92.93,69.13 93.40,62.12C93.80,56.16 101.04,50.24 115.92,51.25C146.12,53.28 145.78,74.19 145.78,74.19L180.39,67.77C180.39,67.77 177.82,32.99 118.92,29.02C87.87,26.93 62.30,38.66 60.73,62.05C59.28,83.52 79.84,92.17 98.32,96.84L125.62,103.81C142.01,107.90 148.99,112.01 148.50,119.24C147.94,127.53 135.55,130.75 121.52,129.80C84.31,127.29 86.31,100.73 86.31,100.73Z" fill="#ffffff" stroke="#000000"/>
    <path d="M-817.16,-194.83L-673.21,-182.68L-671.26,-205.80L-777.81,-214.79L-773.85,-261.66L-679.70,-253.71L-677.77,-276.61L-771.92,-284.56L-767.91,-332.06L-667.66,-323.59L-665.73,-346.50L-803.38,-358.12ZM-530.76,-202.83L-525.20,-246.17C-522.35,-269.84 -540.61,-291.70 -578.44,-294.90C-637.28,-299.86 -651.78,-261.09 -651.78,-261.09L-616.41,-248.79C-616.41,-248.79 -614.02,-274.62 -582.07,-271.92C-560.64,-270.11 -559.22,-256.87 -560.12,-246.15C-624.47,-246.08 -649.27,-225.53 -650.92,-205.99C-652.41,-188.33 -640.24,-177.15 -618.80,-175.34C-582.65,-172.28 -559.72,-208.23 -558.51,-210.04C-560.50,-186.50 -555.55,-170.00 -530.54,-167.88C-512.25,-166.34 -501.66,-176.45 -501.66,-176.45L-506.68,-199.73C-506.68,-199.73 -513.66,-189.74 -523.33,-190.56C-529.64,-191.09 -531.52,-196.33 -530.76,-202.83ZM-614.17,-210.08C-613.23,-221.22 -599.61,-234.67 -561.06,-235.01L-561.75,-226.82C-561.75,-226.82 -578.60,-195.22 -602.98,-197.28C-613.49,-198.17 -614.60,-205.04 -614.17,-210.08ZM-442.79,-234.55C-442.79,-234.55 -437.28,-259.70 -422.57,-258.46C-418.58,-258.12 -413.48,-255.78 -414.21,-247.17C-415.56,-231.20 -420.12,-219.73 -420.12,-219.73L-385.77,-225.51C-385.77,-225.51 -382.38,-233.05 -381.16,-247.55C-379.78,-263.94 -385.73,-278.63 -409.90,-280.67C-443.73,-283.52 -446.33,-247.76 -446.33,-247.76L-453.42,-281.59L-473.60,-283.29L-483.44,-166.66L-448.77,-163.73ZM-374.23,-254.38L-347.33,-252.10L-352.02,-196.62C-354.55,-166.57 -338.46,-151.67 -310.30,-149.29C-280.25,-146.75 -264.92,-162.82 -264.92,-162.82L-269.73,-186.08C-269.73,-186.08 -280.40,-170.05 -298.89,-171.61C-313.81,-172.87 -318.76,-181.96 -317.55,-196.25L-313.08,-249.21L-259.49,-244.69L-257.77,-265.07L-311.36,-269.60L-307.65,-313.52L-342.84,-295.33L-344.77,-272.42L-372.51,-274.76ZM-194.32,-309.67C-194.32,-309.67 -210.12,-308.04 -229.24,-309.65L-243.03,-146.36L-208.35,-143.44L-202.39,-214.05C-202.39,-214.05 -194.13,-239.17 -164.08,-236.63C-147.69,-235.25 -136.56,-226.69 -137.87,-211.14L-144.05,-138.01L-109.58,-135.10L-103.55,-206.55C-101.05,-236.18 -116.53,-255.90 -152.67,-258.95C-191.97,-262.27 -200.27,-234.19 -200.92,-231.49ZM-44.70,-176.61L-79.05,-170.83C-79.05,-170.83 -79.76,-129.83 -12.72,-124.17C20.90,-121.33 48.87,-131.67 50.87,-155.42C52.33,-172.65 42.32,-187.04 13.31,-194.36L-15.70,-201.67C-29.17,-205.14 -37.62,-207.76 -37.04,-214.69C-36.54,-220.58 -29.28,-226.31 -14.57,-225.07C15.27,-222.55 14.58,-201.87 14.58,-201.87L48.93,-207.65C48.93,-207.65 46.97,-242.10 -11.24,-247.01C-41.92,-249.60 -67.42,-238.42 -69.37,-215.30C-71.16,-194.08 -50.96,-185.18 -32.75,-180.25L-5.86,-172.90C10.29,-168.58 17.13,-164.40 16.53,-157.26C15.84,-149.06 3.52,-146.08 -10.35,-147.25C-47.13,-150.35 -44.70,-176.61 -44.70,-176.61ZM64.56,-217.33L91.46,-215.06L86.78,-159.58C84.24,-129.53 100.34,-114.62 128.50,-112.25C158.55,-109.71 173.88,-125.77 173.88,-125.77L169.07,-149.03C169.07,-149.03 158.40,-133.00 139.91,-134.56C124.99,-135.82 120.04,-144.92 121.25,-159.21L125.72,-212.17L179.31,-207.64L181.03,-228.03L127.44,-232.55L131.15,-276.47L95.96,-258.28L94.03,-235.37L66.29,-237.72ZM236.42,-177.21C236.42,-177.21 241.93,-202.36 256.64,-201.12C260.64,-200.78 265.73,-198.44 265.00,-189.83C263.66,-173.86 259.09,-162.39 259.09,-162.39L293.44,-168.17C293.44,-168.17 296.83,-175.71 298.05,-190.21C299.44,-206.60 293.48,-221.29 269.31,-223.33C235.48,-226.18 232.88,-190.42 232.88,-190.42L225.79,-224.25L205.62,-225.95L195.77,-109.32L230.45,-106.39ZM314.39,-158.14C311.50,-123.89 336.13,-94.72 381.31,-90.90C426.92,-87.05 456.09,-111.68 458.98,-145.94C461.85,-179.98 437.23,-209.15 391.62,-213.00C346.44,-216.82 317.27,-192.19 314.39,-158.14ZM350.75,-155.07C352.37,-174.20 362.56,-192.17 389.67,-189.88C416.57,-187.61 424.24,-168.13 422.62,-149.01C421.01,-129.88 410.17,-111.75 383.27,-114.02C356.16,-116.31 349.14,-135.95 350.75,-155.07ZM584.34,-76.51L619.02,-73.59L625.05,-145.04C627.55,-174.67 613.12,-194.30 574.45,-197.57C528.22,-201.47 522.68,-165.96 522.68,-165.96L515.59,-199.78L495.42,-201.49L485.57,-84.85L520.25,-81.93L526.21,-152.54C526.21,-152.54 535.52,-177.57 563.05,-175.25C581.75,-173.67 591.83,-165.20 590.52,-149.65ZM771.97,-92.84L777.54,-136.19C780.38,-159.86 762.12,-181.72 724.29,-184.92C665.45,-189.88 650.96,-151.11 650.96,-151.11L686.32,-138.81C686.32,-138.81 688.72,-164.64 720.66,-161.94C742.10,-160.13 743.52,-146.89 742.61,-136.17C678.27,-136.10 653.46,-115.55 651.81,-96.00C650.32,-78.35 662.50,-67.16 683.93,-65.36C720.08,-62.30 743.01,-98.25 744.22,-100.06C742.23,-76.52 747.19,-60.01 772.20,-57.90C790.48,-56.36 801.07,-66.47 801.07,-66.47L796.05,-89.75C796.05,-89.75 789.07,-79.76 779.40,-80.58C773.10,-81.11 771.21,-86.35 771.97,-92.84ZM688.56,-100.10C689.50,-111.24 703.12,-124.69 741.67,-125.03L740.98,-116.84C740.98,-116.84 724.13,-85.24 699.76,-87.30C689.25,-88.19 688.13,-95.05 688.56,-100.10ZM-196.63,9.81L-231.10,6.91L-237.13,78.36C-239.63,107.99 -225.20,127.62 -186.54,130.88C-140.30,134.79 -134.76,99.27 -134.76,99.27L-127.67,133.10L-107.50,134.81L-97.65,18.17L-132.33,15.24L-138.29,85.85C-138.29,85.85 -147.60,110.89 -175.13,108.57C-193.83,106.99 -204.12,98.50 -202.81,82.95ZM-80.46,40.15L-53.56,42.42L-58.24,97.90C-60.78,127.96 -44.68,142.86 -16.52,145.24C13.53,147.77 28.85,131.71 28.85,131.71L24.04,108.45C24.04,108.45 13.38,124.48 -5.11,122.92C-20.04,121.66 -24.98,112.56 -23.78,98.27L-19.30,45.32L34.28,49.84L36.01,29.45L-17.58,24.93L-13.88,-18.99L-49.06,-0.80L-51.00,22.11L-78.74,19.77ZM77.80,103.46L43.45,109.24C43.45,109.24 42.74,150.24 109.78,155.90C143.40,158.74 171.37,148.40 173.37,124.65C174.83,107.42 164.82,93.03 135.81,85.71L106.80,78.40C93.33,74.93 84.88,72.31 85.46,65.38C85.96,59.49 93.22,53.76 107.93,55.00C137.77,57.52 137.08,78.20 137.08,78.20L171.43,72.42C171.43,72.42 169.47,37.97 111.26,33.06C80.58,30.47 55.08,41.65 53.13,64.76C51.34,85.99 71.54,94.89 89.75,99.82L116.64,107.17C132.79,111.49 139.63,115.67 139.03,122.81C138.34,131.01 126.02,133.99 112.15,132.82C75.37,129.71 77.80,103.46 77.80,103.46Z" fill="#ffffff" stroke="#000000"/>
    <path d="M-811.10,-204.14L-668.88,-189.72L-666.56,-212.55L-771.83,-223.23L-767.13,-269.53L-674.12,-260.09L-671.82,-282.72L-764.83,-292.16L-760.08,-339.08L-661.04,-329.03L-658.75,-351.66L-794.74,-365.45ZM-527.62,-207.27L-521.39,-250.06C-518.18,-273.43 -535.88,-295.37 -573.25,-299.16C-631.38,-305.05 -646.37,-266.93 -646.37,-266.93L-611.58,-254.17C-611.58,-254.17 -608.79,-279.69 -577.23,-276.49C-556.05,-274.34 -554.87,-261.21 -555.94,-250.63C-619.60,-251.63 -644.49,-231.71 -646.44,-212.40C-648.21,-194.96 -636.35,-183.69 -615.17,-181.54C-579.46,-177.92 -556.18,-213.10 -554.95,-214.87C-557.31,-191.61 -552.68,-175.20 -527.98,-172.70C-509.91,-170.87 -499.27,-180.69 -499.27,-180.69L-503.85,-203.81C-503.85,-203.81 -510.92,-194.04 -520.47,-195.01C-526.70,-195.64 -528.48,-200.86 -527.62,-207.27ZM-610.02,-215.84C-608.90,-226.84 -595.20,-239.92 -557.06,-239.62L-557.88,-231.52C-557.88,-231.52 -575.07,-200.55 -599.16,-202.99C-609.54,-204.04 -610.52,-210.85 -610.02,-215.84ZM-440.05,-237.19C-440.05,-237.19 -434.18,-261.98 -419.65,-260.51C-415.70,-260.11 -410.70,-257.71 -411.57,-249.20C-413.17,-233.42 -417.88,-222.15 -417.88,-222.15L-383.79,-227.29C-383.79,-227.29 -380.32,-234.70 -378.86,-249.03C-377.22,-265.22 -382.87,-279.85 -406.74,-282.27C-440.17,-285.66 -443.34,-250.32 -443.34,-250.32L-449.79,-283.91L-469.72,-285.93L-481.40,-170.70L-447.15,-167.23ZM-371.90,-255.66L-345.32,-252.97L-350.88,-198.16C-353.89,-168.47 -338.22,-153.45 -310.40,-150.63C-280.71,-147.62 -265.28,-163.26 -265.28,-163.26L-269.65,-186.35C-269.65,-186.35 -280.47,-170.67 -298.74,-172.52C-313.48,-174.02 -318.22,-183.10 -316.79,-197.22L-311.48,-249.54L-258.54,-244.17L-256.50,-264.31L-309.44,-269.67L-305.04,-313.07L-340.16,-295.65L-342.45,-273.02L-369.86,-275.80ZM-192.98,-307.37C-192.98,-307.37 -208.64,-306.02 -227.53,-307.93L-243.89,-146.62L-209.64,-143.14L-202.56,-212.90C-202.56,-212.90 -193.97,-237.62 -164.28,-234.61C-148.09,-232.97 -137.22,-224.31 -138.78,-208.95L-146.11,-136.70L-112.06,-133.25L-104.90,-203.84C-101.93,-233.11 -116.91,-252.88 -152.62,-256.50C-191.45,-260.44 -200.12,-232.79 -200.81,-230.13ZM-47.17,-173.23L-81.26,-168.09C-81.26,-168.09 -82.64,-127.54 -16.41,-120.82C16.81,-117.45 44.64,-127.21 47.02,-150.67C48.75,-167.70 39.09,-182.10 10.51,-189.82L-18.07,-197.55C-31.33,-201.20 -39.66,-203.93 -38.96,-210.78C-38.37,-216.60 -31.10,-222.15 -16.56,-220.68C12.92,-217.69 11.89,-197.23 11.89,-197.23L45.97,-202.38C45.97,-202.38 44.61,-236.50 -12.90,-242.33C-43.21,-245.40 -68.62,-234.76 -70.94,-211.93C-73.06,-190.96 -53.23,-181.81 -35.29,-176.64L-8.81,-168.92C7.09,-164.37 13.79,-160.13 13.08,-153.07C12.26,-144.97 0.02,-142.23 -13.68,-143.62C-50.01,-147.30 -47.17,-173.23 -47.17,-173.23ZM61.60,-211.70L88.18,-209.01L82.62,-154.19C79.61,-124.51 95.28,-109.49 123.11,-106.67C152.79,-103.66 168.22,-119.29 168.22,-119.29L163.85,-142.39C163.85,-142.39 153.03,-126.71 134.76,-128.56C120.02,-130.06 115.28,-139.14 116.71,-153.25L122.02,-205.57L174.96,-200.20L177.00,-220.34L124.06,-225.71L128.46,-269.10L93.34,-251.69L91.05,-229.06L63.64,-231.84ZM230.96,-169.15C230.96,-169.15 236.83,-193.93 251.36,-192.46C255.31,-192.06 260.31,-189.66 259.44,-181.15C257.84,-165.37 253.14,-154.10 253.14,-154.10L287.22,-159.25C287.22,-159.25 290.70,-166.65 292.15,-180.98C293.79,-197.17 288.14,-211.80 264.27,-214.22C230.84,-217.61 227.68,-182.27 227.68,-182.27L221.22,-215.86L201.29,-217.88L189.61,-102.65L223.86,-99.18ZM307.78,-148.98C304.35,-115.14 328.23,-85.87 372.87,-81.34C417.92,-76.77 447.19,-100.65 450.62,-134.49C454.03,-168.13 430.15,-197.40 385.10,-201.97C340.46,-206.49 311.19,-182.61 307.78,-148.98ZM343.70,-145.34C345.61,-164.23 356.00,-181.84 382.78,-179.13C409.36,-176.43 416.62,-157.03 414.70,-138.14C412.79,-119.24 401.76,-101.48 375.18,-104.18C348.40,-106.90 341.78,-126.44 343.70,-145.34ZM573.49,-63.72L607.74,-60.25L614.90,-130.84C617.87,-160.11 603.93,-179.77 565.72,-183.65C520.05,-188.28 513.98,-153.24 513.98,-153.24L507.53,-186.82L487.59,-188.84L475.91,-73.62L510.17,-70.14L517.24,-139.90C517.24,-139.90 526.87,-164.52 554.07,-161.76C572.54,-159.88 582.37,-151.34 580.82,-135.97ZM759.39,-76.75L765.62,-119.54C768.83,-142.91 751.12,-164.85 713.75,-168.64C655.62,-174.53 640.64,-136.41 640.64,-136.41L675.42,-123.65C675.42,-123.65 678.22,-149.17 709.78,-145.97C730.95,-143.82 732.14,-130.69 731.07,-120.11C667.40,-121.11 642.52,-101.19 640.56,-81.88C638.79,-64.44 650.66,-53.17 671.83,-51.02C707.54,-47.40 730.83,-82.59 732.05,-84.35C729.70,-61.10 734.32,-44.69 759.03,-42.18C777.09,-40.35 787.74,-50.18 787.74,-50.18L783.16,-73.29C783.16,-73.29 776.09,-63.52 766.54,-64.49C760.31,-65.12 758.53,-70.34 759.39,-76.75ZM676.99,-85.32C678.10,-96.32 691.81,-109.41 729.95,-109.10L729.13,-101.01C729.13,-101.01 711.93,-70.03 687.85,-72.47C677.47,-73.52 676.48,-80.34 676.99,-85.32ZM-200.60,8.67L-234.64,5.22L-241.80,75.81C-244.77,105.08 -230.82,124.74 -192.62,128.62C-146.95,133.25 -140.88,98.21 -140.88,98.21L-134.43,131.79L-114.49,133.81L-102.81,18.59L-137.07,15.11L-144.14,84.87C-144.14,84.87 -153.77,109.48 -180.96,106.73C-199.44,104.85 -209.48,96.28 -207.92,80.92ZM-86.17,40.62L-59.59,43.31L-65.15,98.13C-68.16,127.81 -52.48,142.83 -24.66,145.65C5.03,148.66 20.45,133.03 20.45,133.03L16.09,109.93C16.09,109.93 5.27,125.61 -13.00,123.76C-27.75,122.26 -32.49,113.18 -31.06,99.07L-25.75,46.75L27.19,52.12L29.23,31.98L-23.71,26.61L-19.31,-16.78L-54.42,0.63L-56.72,23.26L-84.12,20.48ZM69.35,105.89L35.27,111.04C35.27,111.04 33.88,151.59 100.11,158.30C133.33,161.67 161.17,151.91 163.55,128.45C165.28,111.43 155.62,97.02 127.04,89.30L98.46,81.58C85.19,77.92 76.87,75.19 77.56,68.34C78.15,62.53 85.43,56.97 99.96,58.45C129.44,61.44 128.42,81.89 128.42,81.89L162.50,76.74C162.50,76.74 161.14,42.63 103.63,36.79C73.31,33.72 47.91,44.36 45.59,67.20C43.46,88.16 63.30,97.31 81.23,102.48L107.72,110.20C123.62,114.75 130.32,119.00 129.60,126.06C128.78,134.15 116.55,136.90 102.84,135.51C66.51,131.82 69.35,105.89 69.35,105.89Z" fill="#ffffff" stroke="#000000"/>
    <path d="M-804.82,-213.34L-664.38,-196.70L-661.71,-219.26L-765.66,-231.57L-760.24,-277.29L-668.39,-266.41L-665.74,-288.76L-757.59,-299.64L-752.10,-345.97L-654.31,-334.39L-651.66,-356.74L-785.95,-372.65ZM-524.34,-211.72L-517.47,-253.94C-513.91,-277.01 -531.05,-299.00 -567.96,-303.37C-625.36,-310.17 -640.82,-272.71 -640.82,-272.71L-606.63,-259.51C-606.63,-259.51 -603.43,-284.70 -572.27,-281.01C-551.36,-278.53 -550.40,-265.53 -551.64,-255.07C-614.60,-257.13 -639.55,-237.84 -641.81,-218.77C-643.85,-201.55 -632.30,-190.20 -611.39,-187.72C-576.12,-183.55 -552.50,-217.96 -551.26,-219.69C-553.98,-196.72 -549.67,-180.41 -525.28,-177.52C-507.44,-175.41 -496.74,-184.95 -496.74,-184.95L-500.89,-207.90C-500.89,-207.90 -508.05,-198.35 -517.48,-199.47C-523.63,-200.20 -525.30,-205.38 -524.34,-211.72ZM-605.72,-221.56C-604.43,-232.43 -590.66,-245.14 -552.93,-244.21L-553.88,-236.21C-553.88,-236.21 -571.40,-205.86 -595.18,-208.67C-605.44,-209.89 -606.30,-216.64 -605.72,-221.56ZM-437.23,-239.86C-437.23,-239.86 -431.01,-264.28 -416.65,-262.58C-412.76,-262.12 -407.85,-259.66 -408.85,-251.26C-410.69,-235.67 -415.54,-224.61 -415.54,-224.61L-381.74,-229.13C-381.74,-229.13 -378.17,-236.40 -376.50,-250.54C-374.60,-266.54 -379.95,-281.10 -403.53,-283.89C-436.54,-287.80 -440.25,-252.90 -440.25,-252.90L-446.08,-286.23L-465.76,-288.56L-479.24,-174.77L-445.41,-170.76ZM-369.50,-256.99L-343.25,-253.88L-349.67,-199.75C-353.14,-170.44 -337.88,-155.32 -310.41,-152.07C-281.09,-148.60 -265.57,-163.80 -265.57,-163.80L-269.50,-186.72C-269.50,-186.72 -280.47,-171.39 -298.51,-173.53C-313.07,-175.25 -317.61,-184.31 -315.96,-198.26L-309.84,-249.92L-257.55,-243.73L-255.20,-263.62L-307.48,-269.81L-302.40,-312.66L-337.43,-296.02L-340.08,-273.67L-367.14,-276.88ZM-191.65,-305.15C-191.65,-305.15 -207.16,-304.08 -225.82,-306.29L-244.69,-146.99L-210.86,-142.98L-202.70,-211.87C-202.70,-211.87 -193.79,-236.18 -164.47,-232.70C-148.48,-230.81 -137.87,-222.07 -139.67,-206.90L-148.12,-135.55L-114.50,-131.56L-106.24,-201.27C-102.82,-230.18 -117.31,-249.99 -152.57,-254.16C-190.91,-258.70 -199.96,-231.50 -200.68,-228.88ZM-49.65,-170.04L-83.45,-165.52C-83.45,-165.52 -85.49,-125.42 -20.09,-117.68C12.71,-113.79 40.41,-122.98 43.16,-146.15C45.15,-162.96 35.84,-177.37 7.69,-185.49L-20.45,-193.60C-33.51,-197.44 -41.70,-200.28 -40.90,-207.05C-40.22,-212.79 -32.93,-218.16 -18.58,-216.46C10.54,-213.01 9.18,-192.80 9.18,-192.80L42.98,-197.32C42.98,-197.32 42.20,-231.09 -14.59,-237.82C-44.53,-241.36 -69.84,-231.26 -72.51,-208.71C-74.96,-188.00 -55.49,-178.63 -37.84,-173.21L-11.77,-165.13C3.89,-160.37 10.44,-156.06 9.62,-149.09C8.67,-141.09 -3.48,-138.58 -17.01,-140.18C-52.89,-144.43 -49.65,-170.04 -49.65,-170.04ZM58.60,-206.28L84.84,-203.17L78.43,-149.04C74.96,-119.72 90.21,-104.61 117.69,-101.36C147.01,-97.88 162.53,-113.09 162.53,-113.09L158.59,-136.01C158.59,-136.01 147.63,-120.68 129.58,-122.82C115.03,-124.54 110.49,-133.60 112.14,-147.54L118.26,-199.21L170.54,-193.02L172.90,-212.90L120.62,-219.10L125.69,-261.95L90.66,-245.31L88.02,-222.96L60.95,-226.17ZM225.42,-161.36C225.42,-161.36 231.64,-185.78 245.99,-184.08C249.89,-183.62 254.79,-181.16 253.80,-172.76C251.95,-157.18 247.11,-146.11 247.11,-146.11L280.91,-150.63C280.91,-150.63 284.47,-157.90 286.15,-172.05C288.04,-188.04 282.70,-202.60 259.12,-205.39C226.11,-209.30 222.39,-174.40 222.39,-174.40L216.57,-207.73L196.89,-210.06L183.41,-96.27L217.23,-92.27ZM301.08,-140.13C297.12,-106.71 320.25,-77.36 364.33,-72.14C408.82,-66.87 438.18,-90.00 442.14,-123.42C446.07,-156.63 422.94,-185.99 378.44,-191.26C334.36,-196.48 305.01,-173.34 301.08,-140.13ZM336.55,-135.93C338.76,-154.59 349.32,-171.84 375.77,-168.70C402.02,-165.60 408.88,-146.28 406.67,-127.62C404.46,-108.96 393.25,-91.58 367.00,-94.69C340.56,-97.82 334.34,-117.27 336.55,-135.93ZM562.50,-51.36L596.33,-47.36L604.59,-117.07C608.01,-145.97 594.54,-165.66 556.82,-170.13C511.71,-175.47 505.12,-140.91 505.12,-140.91L499.30,-174.24L479.62,-176.57L466.14,-62.78L499.97,-58.77L508.13,-127.66C508.13,-127.66 518.06,-151.85 544.92,-148.67C563.17,-146.51 572.75,-137.89 570.95,-122.71ZM746.61,-61.16L753.49,-103.38C757.05,-126.45 739.91,-148.44 703.00,-152.81C645.59,-159.61 630.14,-122.15 630.14,-122.15L664.33,-108.95C664.33,-108.95 667.53,-134.14 698.69,-130.45C719.60,-127.97 720.56,-114.97 719.32,-104.51C656.36,-106.57 631.41,-87.28 629.15,-68.21C627.11,-50.99 638.66,-39.64 659.57,-37.16C694.84,-32.99 718.46,-67.40 719.70,-69.13C716.98,-46.16 721.28,-29.85 745.68,-26.96C763.52,-24.85 774.21,-34.39 774.21,-34.39L770.07,-57.34C770.07,-57.34 762.91,-47.79 753.48,-48.91C747.33,-49.64 745.66,-54.82 746.61,-61.16ZM665.24,-71.00C666.53,-81.87 680.30,-94.58 718.03,-93.65L717.08,-85.65C717.08,-85.65 699.56,-55.30 675.77,-58.11C665.52,-59.33 664.66,-66.08 665.24,-71.00ZM-204.45,7.35L-238.07,3.36L-246.33,73.07C-249.75,101.98 -236.29,121.66 -198.56,126.13C-153.45,131.48 -146.87,96.91 -146.87,96.91L-141.04,130.24L-121.36,132.58L-107.88,18.79L-141.71,14.78L-149.87,83.67C-149.87,83.67 -159.80,107.86 -186.66,104.67C-204.91,102.51 -214.70,93.87 -212.90,78.70ZM-91.78,40.86L-65.54,43.97L-71.95,98.10C-75.43,127.41 -60.17,142.53 -32.69,145.78C-3.38,149.26 12.15,134.05 12.15,134.05L8.21,111.13C8.21,111.13 -2.75,126.46 -20.80,124.32C-35.35,122.60 -39.89,113.54 -38.24,99.59L-32.12,47.93L20.16,54.12L22.52,34.23L-29.76,28.04L-24.69,-14.81L-59.72,1.83L-62.36,24.18L-89.43,20.97ZM60.97,108.02L27.17,112.54C27.17,112.54 25.12,152.63 90.53,160.38C123.33,164.27 151.03,155.07 153.78,131.91C155.77,115.09 146.46,100.68 118.31,92.57L90.17,84.45C77.11,80.62 68.92,77.78 69.72,71.01C70.40,65.27 77.69,59.90 92.04,61.60C121.16,65.05 119.80,85.26 119.80,85.26L153.60,80.74C153.60,80.74 152.82,46.97 96.03,40.24C66.09,36.69 40.78,46.79 38.11,69.35C35.66,90.05 55.13,99.43 72.78,104.85L98.85,112.92C114.50,117.69 121.06,122.00 120.24,128.97C119.29,136.97 107.14,139.48 93.61,137.88C57.73,133.63 60.97,108.02 60.97,108.02Z" fill="#ffffff" stroke="#000000"/>
    <path d="M-798.34,-222.43L-659.70,-203.64L-656.69,-225.90L-759.30,-239.81L-753.18,-284.94L-662.51,-272.65L-659.52,-294.71L-750.19,-307.00L-743.99,-352.74L-647.45,-339.66L-644.46,-361.72L-777.02,-379.69ZM-520.95,-216.15L-513.44,-257.80C-509.53,-280.56 -526.13,-302.60 -562.56,-307.54C-619.23,-315.22 -635.14,-278.42 -635.14,-278.42L-601.53,-264.80C-601.53,-264.80 -597.96,-289.66 -567.19,-285.49C-546.55,-282.69 -545.82,-269.82 -547.22,-259.49C-609.46,-262.57 -634.46,-243.91 -637.01,-225.09C-639.32,-208.09 -628.08,-196.67 -607.44,-193.87C-572.63,-189.15 -548.69,-222.80 -547.43,-224.48C-550.51,-201.82 -546.52,-185.61 -522.44,-182.35C-504.83,-179.96 -494.09,-189.22 -494.09,-189.22L-497.81,-211.99C-497.81,-211.99 -505.05,-202.66 -514.36,-203.92C-520.43,-204.75 -522.00,-209.91 -520.95,-216.15ZM-601.27,-227.25C-599.81,-237.98 -585.98,-250.32 -548.68,-248.77L-549.75,-240.87C-549.75,-240.87 -567.59,-211.14 -591.06,-214.32C-601.18,-215.70 -601.92,-222.39 -601.27,-227.25ZM-434.31,-242.54C-434.31,-242.54 -427.75,-266.59 -413.58,-264.67C-409.74,-264.14 -404.92,-261.64 -406.05,-253.34C-408.13,-237.96 -413.11,-227.09 -413.11,-227.09L-379.60,-231.00C-379.60,-231.00 -375.96,-238.13 -374.06,-252.09C-371.92,-267.88 -376.97,-282.37 -400.24,-285.53C-432.83,-289.95 -437.09,-255.49 -437.09,-255.49L-442.29,-288.55L-461.72,-291.18L-476.95,-178.86L-443.55,-174.33ZM-367.03,-258.35L-341.13,-254.84L-348.37,-201.41C-352.29,-172.47 -337.45,-157.27 -310.33,-153.59C-281.39,-149.67 -265.79,-164.45 -265.79,-164.45L-269.30,-187.19C-269.30,-187.19 -280.40,-172.20 -298.21,-174.62C-312.58,-176.57 -316.92,-185.61 -315.05,-199.37L-308.14,-250.37L-256.53,-243.37L-253.87,-263.00L-305.48,-270.00L-299.74,-312.30L-334.66,-296.42L-337.66,-274.36L-364.37,-277.99ZM-190.32,-303.03C-190.32,-303.03 -205.68,-302.23 -224.10,-304.72L-245.42,-147.47L-212.02,-142.94L-202.80,-210.94C-202.80,-210.94 -193.59,-234.84 -164.64,-230.92C-148.86,-228.77 -138.51,-219.95 -140.54,-204.98L-150.09,-134.54L-116.90,-130.04L-107.57,-198.86C-103.70,-227.39 -117.71,-247.22 -152.52,-251.94C-190.36,-257.07 -199.76,-230.32 -200.52,-227.74ZM-52.11,-167.02L-85.62,-163.11C-85.62,-163.11 -88.31,-123.49 -23.75,-114.74C8.63,-110.35 36.18,-118.98 39.28,-141.85C41.53,-158.44 32.56,-172.85 4.86,-181.35L-22.84,-189.84C-35.70,-193.85 -43.75,-196.80 -42.84,-203.48C-42.07,-209.14 -34.78,-214.34 -20.61,-212.42C8.13,-208.52 6.45,-188.55 6.45,-188.55L39.96,-192.46C39.96,-192.46 39.75,-225.88 -16.31,-233.48C-45.86,-237.48 -71.06,-227.91 -74.08,-205.65C-76.85,-185.21 -57.75,-175.61 -40.38,-169.96L-14.73,-161.54C0.67,-156.56 7.09,-152.19 6.16,-145.31C5.09,-137.41 -6.97,-135.13 -20.33,-136.94C-55.75,-141.75 -52.11,-167.02 -52.11,-167.02ZM55.55,-201.06L81.46,-197.55L74.22,-144.12C70.29,-115.18 85.13,-99.97 112.25,-96.30C141.19,-92.37 156.80,-107.16 156.80,-107.16L153.29,-129.89C153.29,-129.89 142.19,-114.91 124.38,-117.32C110.01,-119.27 105.67,-128.31 107.54,-142.07L114.45,-193.08L166.06,-186.08L168.72,-205.71L117.11,-212.71L122.85,-255.01L87.92,-239.13L84.93,-217.07L58.22,-220.69ZM219.81,-153.85C219.81,-153.85 226.37,-177.90 240.54,-175.98C244.38,-175.46 249.20,-172.95 248.07,-164.65C245.99,-149.27 241.01,-138.41 241.01,-138.41L274.52,-142.31C274.52,-142.31 278.16,-149.44 280.06,-163.41C282.20,-179.20 277.15,-193.69 253.88,-196.84C221.29,-201.26 217.03,-166.80 217.03,-166.80L211.83,-199.87L192.40,-202.50L177.17,-90.17L210.57,-85.65ZM294.29,-131.59C289.82,-98.60 312.21,-69.19 355.73,-63.29C399.64,-57.33 429.06,-79.73 433.53,-112.72C437.98,-145.50 415.59,-174.92 371.67,-180.87C328.15,-186.77 298.74,-164.38 294.29,-131.59ZM329.30,-126.85C331.80,-145.26 342.54,-162.15 368.65,-158.61C394.56,-155.10 401.02,-135.88 398.52,-117.46C396.02,-99.05 384.65,-82.04 358.74,-85.55C332.64,-89.09 326.81,-108.43 329.30,-126.85ZM551.39,-39.44L584.78,-34.91L594.11,-103.72C597.98,-132.26 584.99,-151.95 547.75,-157.00C503.22,-163.04 496.13,-128.96 496.13,-128.96L490.92,-162.03L471.49,-164.66L456.26,-52.34L489.66,-47.81L498.88,-115.81C498.88,-115.81 509.11,-139.57 535.62,-135.97C553.63,-133.53 562.97,-124.85 560.94,-109.87ZM733.66,-46.06L741.16,-87.70C745.07,-110.46 728.48,-132.50 692.05,-137.44C635.38,-145.12 619.47,-108.32 619.47,-108.32L653.07,-94.70C653.07,-94.70 656.65,-119.57 687.41,-115.39C708.05,-112.60 708.78,-99.72 707.38,-89.40C645.14,-92.48 620.15,-73.81 617.60,-54.99C615.29,-37.99 626.52,-26.57 647.16,-23.77C681.98,-19.05 705.91,-52.70 707.17,-54.39C704.10,-31.72 708.08,-15.51 732.17,-12.25C749.78,-9.86 760.51,-19.12 760.51,-19.12L756.80,-41.89C756.80,-41.89 749.56,-32.56 740.25,-33.83C734.17,-34.65 732.61,-39.81 733.66,-46.06ZM653.34,-57.15C654.79,-67.88 668.63,-80.22 705.93,-78.67L704.86,-70.78C704.86,-70.78 687.02,-41.04 663.54,-44.23C653.42,-45.60 652.68,-52.29 653.34,-57.15ZM-208.18,5.85L-241.38,1.35L-250.70,70.17C-254.57,98.70 -241.58,118.40 -204.34,123.44C-159.81,129.48 -152.72,95.40 -152.72,95.40L-147.52,128.47L-128.09,131.10L-112.86,18.78L-146.25,14.25L-155.47,82.25C-155.47,82.25 -165.70,106.01 -192.21,102.42C-210.23,99.97 -219.76,91.26 -217.73,76.29ZM-97.31,40.88L-71.40,44.39L-78.64,97.82C-82.57,126.76 -67.73,141.97 -40.61,145.64C-11.67,149.57 3.94,134.78 3.94,134.78L0.43,112.05C0.43,112.05 -10.67,127.03 -28.48,124.62C-42.85,122.67 -47.19,113.63 -45.32,99.87L-38.41,48.86L13.20,55.86L15.86,36.23L-35.75,29.23L-30.01,-13.07L-64.94,2.81L-67.93,24.87L-94.64,21.25ZM52.67,109.85L19.16,113.76C19.16,113.76 16.47,153.38 81.03,162.13C113.41,166.52 140.96,157.89 144.06,135.02C146.31,118.43 137.34,104.02 109.64,95.52L81.94,87.03C69.08,83.02 61.03,80.07 61.94,73.39C62.71,67.73 70.00,62.53 84.17,64.45C112.91,68.35 111.23,88.32 111.23,88.32L144.74,84.41C144.74,84.41 144.53,51.00 88.47,43.39C58.92,39.39 33.72,48.96 30.70,71.22C27.93,91.66 47.03,101.26 64.40,106.91L90.05,115.33C105.45,120.31 111.87,124.68 110.94,131.56C109.87,139.46 97.81,141.74 84.45,139.93C49.03,135.12 52.67,109.85 52.67,109.85Z" fill="#ffffff" stroke="#000000"/>
    <path d="M-791.65,-231.41L-654.86,-210.51L-651.50,-232.48L-752.75,-247.95L-745.95,-292.48L-656.48,-278.81L-653.16,-300.58L-742.62,-314.25L-735.73,-359.38L-640.47,-344.83L-637.14,-366.60L-767.95,-386.58ZM-517.42,-220.58L-509.31,-261.64C-505.06,-284.09 -521.10,-306.16 -557.05,-311.65C-612.97,-320.19 -629.32,-284.06 -629.32,-284.06L-596.31,-270.03C-596.31,-270.03 -592.36,-294.56 -562.00,-289.92C-541.63,-286.81 -541.13,-274.07 -542.68,-263.88C-604.19,-267.96 -629.22,-249.92 -632.06,-231.35C-634.62,-214.57 -623.70,-203.10 -603.33,-199.98C-568.98,-194.74 -544.75,-227.61 -543.48,-229.26C-546.89,-206.89 -543.22,-190.80 -519.46,-187.17C-502.08,-184.52 -491.31,-193.50 -491.31,-193.50L-494.61,-216.07C-494.61,-216.07 -501.92,-206.97 -511.11,-208.37C-517.10,-209.29 -518.56,-214.42 -517.42,-220.58ZM-596.67,-232.89C-595.05,-243.47 -581.17,-255.45 -544.30,-253.30L-545.49,-245.51C-545.49,-245.51 -563.63,-216.40 -586.80,-219.94C-596.78,-221.46 -597.40,-228.10 -596.67,-232.89ZM-431.29,-245.23C-431.29,-245.23 -424.41,-268.90 -410.43,-266.77C-406.63,-266.19 -401.92,-263.63 -403.17,-255.44C-405.49,-240.26 -410.59,-229.60 -410.59,-229.60L-377.39,-232.90C-377.39,-232.90 -373.66,-239.90 -371.56,-253.68C-369.18,-269.25 -373.92,-283.67 -396.89,-287.18C-429.04,-292.09 -433.83,-258.08 -433.83,-258.08L-438.42,-290.87L-457.59,-293.80L-474.53,-182.96L-441.58,-177.93ZM-364.50,-259.75L-338.93,-255.85L-346.99,-203.12C-351.35,-174.57 -336.93,-159.28 -310.17,-155.20C-281.61,-150.83 -265.93,-165.20 -265.93,-165.20L-269.02,-187.74C-269.02,-187.74 -280.25,-173.11 -297.83,-175.79C-312.00,-177.96 -316.15,-186.97 -314.07,-200.55L-306.38,-250.87L-255.46,-243.09L-252.50,-262.46L-303.42,-270.24L-297.05,-311.98L-331.85,-296.86L-335.18,-275.10L-361.54,-279.12ZM-188.98,-300.99C-188.98,-300.99 -204.19,-300.45 -222.36,-303.23L-246.07,-148.06L-213.12,-143.03L-202.86,-210.13C-202.86,-210.13 -193.35,-233.60 -164.79,-229.24C-149.22,-226.86 -139.13,-217.96 -141.39,-203.19L-152.01,-133.69L-119.26,-128.69L-108.88,-196.59C-104.58,-224.74 -118.10,-244.59 -152.45,-249.84C-189.80,-255.54 -199.54,-229.24 -200.33,-226.70ZM-54.57,-164.17L-87.77,-160.87C-87.77,-160.87 -91.09,-121.73 -27.39,-111.99C4.56,-107.11 31.96,-115.19 35.40,-137.76C37.91,-154.13 29.27,-168.53 2.02,-177.39L-25.24,-186.26C-37.88,-190.44 -45.80,-193.49 -44.79,-200.08C-43.94,-205.67 -36.63,-210.68 -22.65,-208.55C5.71,-204.22 3.71,-184.49 3.71,-184.49L36.92,-187.80C36.92,-187.80 37.27,-220.85 -18.05,-229.30C-47.21,-233.76 -72.29,-224.72 -75.65,-202.75C-78.73,-182.58 -60.00,-172.77 -42.91,-166.89L-17.68,-158.13C-2.53,-152.95 3.74,-148.52 2.70,-141.73C1.51,-133.94 -10.45,-131.89 -23.63,-133.90C-58.58,-139.24 -54.57,-164.17 -54.57,-164.17ZM52.48,-196.05L78.05,-192.14L69.99,-139.42C65.63,-110.86 80.05,-95.58 106.81,-91.49C135.37,-87.13 151.05,-101.49 151.05,-101.49L147.96,-124.04C147.96,-124.04 136.73,-109.40 119.15,-112.09C104.98,-114.25 100.83,-123.26 102.91,-136.84L110.60,-187.17L161.52,-179.39L164.48,-198.76L113.56,-206.54L119.93,-248.28L85.13,-233.16L81.80,-211.39L55.44,-215.42ZM214.15,-146.62C214.15,-146.62 221.03,-170.30 235.01,-168.16C238.81,-167.58 243.52,-165.02 242.27,-156.83C239.95,-141.66 234.85,-130.99 234.85,-130.99L268.05,-134.30C268.05,-134.30 271.78,-141.29 273.88,-155.07C276.26,-170.65 271.52,-185.06 248.55,-188.57C216.40,-193.49 211.61,-159.47 211.61,-159.47L207.02,-192.26L187.85,-195.19L170.91,-84.36L203.86,-79.32ZM287.43,-123.37C282.46,-90.82 304.12,-61.35 347.05,-54.79C390.39,-48.17 419.86,-69.83 424.83,-102.38C429.77,-134.73 408.12,-164.20 364.78,-170.82C321.84,-177.38 292.38,-155.72 287.43,-123.37ZM321.98,-118.09C324.76,-136.26 335.66,-152.79 361.42,-148.85C386.99,-144.94 393.06,-125.83 390.28,-107.66C387.50,-89.48 375.97,-72.85 350.41,-76.76C324.65,-80.69 319.21,-99.92 321.98,-118.09ZM540.16,-27.94L573.11,-22.91L583.49,-90.81C587.79,-118.97 575.27,-138.66 538.52,-144.27C494.59,-150.99 487.00,-117.40 487.00,-117.40L482.41,-150.19L463.24,-153.12L446.30,-42.28L479.25,-37.25L489.51,-104.35C489.51,-104.35 500.02,-127.68 526.18,-123.68C543.95,-120.96 553.04,-112.22 550.78,-97.44ZM720.54,-31.45L728.65,-72.51C732.90,-94.96 716.86,-117.03 680.91,-122.52C624.99,-131.06 608.64,-94.94 608.64,-94.94L641.65,-80.90C641.65,-80.90 645.60,-105.43 675.96,-100.80C696.33,-97.69 696.83,-84.94 695.27,-74.75C633.77,-78.84 608.74,-60.79 605.90,-42.22C603.34,-25.45 614.26,-13.97 634.63,-10.86C668.98,-5.61 693.21,-38.49 694.48,-40.13C691.06,-17.77 694.74,-1.67 718.50,1.96C735.88,4.61 746.65,-4.37 746.65,-4.37L743.35,-26.94C743.35,-26.94 736.04,-17.84 726.85,-19.25C720.86,-20.16 719.39,-25.29 720.54,-31.45ZM641.29,-43.76C642.91,-54.35 656.79,-66.33 693.66,-64.17L692.47,-56.38C692.47,-56.38 674.33,-27.27 651.16,-30.81C641.18,-32.34 640.56,-38.97 641.29,-43.76ZM-211.80,4.20L-244.55,-0.81L-254.92,67.09C-259.22,95.25 -246.70,114.94 -209.96,120.56C-166.02,127.27 -158.44,93.68 -158.44,93.68L-153.84,126.47L-134.67,129.40L-117.74,18.57L-150.69,13.53L-160.94,80.63C-160.94,80.63 -171.45,103.96 -197.61,99.96C-215.39,97.25 -224.67,88.47 -222.42,73.69ZM-102.72,40.68L-77.16,44.59L-85.22,97.31C-89.58,125.87 -75.16,141.15 -48.40,145.24C-19.84,149.60 -4.16,135.24 -4.16,135.24L-7.25,112.69C-7.25,112.69 -18.48,127.33 -36.05,124.64C-50.23,122.48 -54.37,113.47 -52.30,99.89L-44.61,49.56L6.31,57.34L9.27,37.97L-41.65,30.19L-35.28,-11.55L-70.08,3.57L-73.40,25.34L-99.77,21.31ZM44.45,111.40L11.24,114.70C11.24,114.70 7.92,153.84 71.62,163.57C103.58,168.46 130.97,160.38 134.42,137.81C136.92,121.44 128.29,107.04 101.03,98.17L73.77,89.31C61.13,85.13 53.22,82.08 54.22,75.49C55.08,69.90 62.38,64.88 76.36,67.02C104.72,71.35 102.73,91.08 102.73,91.08L135.93,87.77C135.93,87.77 136.28,54.72 80.96,46.26C51.81,41.81 26.72,50.85 23.36,72.82C20.28,92.99 39.01,102.80 56.10,108.68L81.33,117.44C96.48,122.61 102.75,127.05 101.71,133.84C100.52,141.63 88.56,143.68 75.38,141.67C40.43,136.33 44.45,111.40 44.45,111.40Z" fill="#ffffff" stroke="#000000"/>
    <path d="M-784.77,-240.27L-649.84,-217.32L-646.15,-238.99L-746.02,-255.97L-738.55,-299.90L-650.31,-284.89L-646.66,-306.36L-734.90,-321.37L-727.33,-365.88L-633.37,-349.90L-629.72,-371.37L-758.74,-393.31ZM-513.76,-224.99L-505.06,-265.46C-500.48,-287.58 -515.98,-309.67 -551.43,-315.70C-606.59,-325.08 -623.36,-289.63 -623.36,-289.63L-590.95,-275.20C-590.95,-275.20 -586.63,-299.40 -556.69,-294.30C-536.60,-290.89 -536.32,-278.27 -538.02,-268.23C-598.77,-273.29 -623.83,-255.86 -626.94,-237.55C-629.76,-221.00 -619.15,-209.47 -599.06,-206.05C-565.18,-200.29 -540.67,-232.40 -539.39,-234.01C-543.14,-211.94 -539.77,-195.97 -516.33,-191.98C-499.20,-189.07 -488.39,-197.77 -488.39,-197.77L-491.28,-220.15C-491.28,-220.15 -498.66,-211.27 -507.73,-212.81C-513.63,-213.82 -515.00,-218.91 -513.76,-224.99ZM-591.93,-238.48C-590.15,-248.92 -576.22,-260.54 -539.80,-257.79L-541.11,-250.11C-541.11,-250.11 -559.53,-221.62 -582.38,-225.51C-592.23,-227.18 -592.73,-233.75 -591.93,-238.48ZM-428.19,-247.93C-428.19,-247.93 -420.98,-271.22 -407.19,-268.88C-403.45,-268.24 -398.83,-265.63 -400.20,-257.56C-402.75,-242.59 -407.97,-232.13 -407.97,-232.13L-375.08,-234.84C-375.08,-234.84 -371.28,-241.70 -368.97,-255.29C-366.36,-270.65 -370.81,-284.99 -393.46,-288.84C-425.17,-294.23 -430.48,-260.68 -430.48,-260.68L-434.47,-293.18L-453.38,-296.39L-471.97,-187.07L-439.47,-181.55ZM-361.89,-261.18L-336.68,-256.89L-345.52,-204.89C-350.31,-176.72 -336.30,-161.37 -309.91,-156.88C-281.74,-152.09 -265.99,-166.03 -265.99,-166.03L-268.68,-188.37C-268.68,-188.37 -280.03,-174.09 -297.36,-177.04C-311.34,-179.42 -315.29,-188.40 -313.01,-201.79L-304.57,-251.43L-254.34,-242.89L-251.09,-261.99L-301.32,-270.53L-294.32,-311.70L-328.99,-297.33L-332.64,-275.86L-358.64,-280.28ZM-187.64,-299.03C-187.64,-299.03 -202.69,-298.75 -220.61,-301.80L-246.64,-148.75L-214.14,-143.23L-202.88,-209.41C-202.88,-209.41 -193.08,-232.47 -164.92,-227.68C-149.55,-225.07 -139.73,-216.10 -142.21,-201.52L-153.86,-132.98L-121.56,-127.48L-110.17,-194.45C-105.45,-222.23 -118.49,-242.08 -152.37,-247.84C-189.20,-254.10 -199.27,-228.25 -200.10,-225.76ZM-57.00,-161.50L-89.89,-158.78C-89.89,-158.78 -93.83,-120.13 -30.99,-109.45C0.52,-104.09 27.74,-111.62 31.53,-133.88C34.27,-150.03 25.98,-164.41 -0.83,-173.63L-27.63,-182.85C-40.07,-187.19 -47.84,-190.34 -46.74,-196.84C-45.80,-202.36 -38.49,-207.19 -24.70,-204.85C3.27,-200.09 0.97,-180.62 0.97,-180.62L33.86,-183.34C33.86,-183.34 34.76,-216.02 -19.81,-225.30C-48.56,-230.19 -73.52,-221.66 -77.21,-200.00C-80.59,-180.10 -62.23,-170.09 -45.43,-163.99L-20.63,-154.91C-5.73,-149.54 0.39,-145.05 -0.75,-138.35C-2.05,-130.67 -13.92,-128.84 -26.92,-131.05C-61.39,-136.91 -57.00,-161.50 -57.00,-161.50ZM49.39,-191.23L74.60,-186.95L65.76,-134.95C60.97,-106.78 74.98,-91.43 101.37,-86.94C129.54,-82.15 145.28,-96.09 145.28,-96.09L142.60,-118.43C142.60,-118.43 131.25,-104.15 113.92,-107.10C99.93,-109.48 95.99,-118.46 98.27,-131.85L106.71,-181.49L156.94,-172.95L160.19,-192.05L109.96,-200.59L116.96,-241.76L82.29,-227.39L78.64,-205.92L52.64,-210.34ZM208.43,-139.67C208.43,-139.67 215.63,-162.96 229.42,-160.62C233.16,-159.98 237.79,-157.37 236.41,-149.30C233.87,-134.33 228.64,-123.87 228.64,-123.87L261.53,-126.58C261.53,-126.58 265.33,-133.43 267.64,-147.03C270.26,-162.39 265.80,-176.73 243.15,-180.58C211.44,-185.97 206.14,-152.42 206.14,-152.42L202.14,-184.92L183.23,-188.13L164.64,-78.81L197.14,-73.29ZM280.51,-115.45C275.05,-83.34 295.98,-53.84 338.33,-46.64C381.07,-39.37 410.57,-60.30 416.03,-92.40C421.46,-124.31 400.53,-153.81 357.79,-161.08C315.44,-168.28 285.94,-147.36 280.51,-115.45ZM314.59,-109.66C317.64,-127.58 328.70,-143.74 354.10,-139.42C379.32,-135.13 385.00,-116.12 381.95,-98.20C378.91,-80.27 367.23,-64.02 342.01,-68.31C316.60,-72.63 311.54,-91.73 314.59,-109.66ZM528.84,-16.88L561.34,-11.35L572.73,-78.32C577.45,-106.09 565.40,-125.78 529.16,-131.94C485.82,-139.31 477.76,-106.23 477.76,-106.23L473.76,-138.73L454.86,-141.94L436.26,-32.62L468.77,-27.09L480.02,-93.28C480.02,-93.28 490.80,-116.17 516.61,-111.78C534.14,-108.80 542.98,-100.00 540.50,-85.42ZM707.27,-17.34L715.98,-57.81C720.55,-79.94 705.05,-102.03 669.60,-108.06C614.44,-117.44 597.67,-81.98 597.67,-81.98L630.08,-67.56C630.08,-67.56 634.40,-91.75 664.34,-86.66C684.43,-83.24 684.71,-70.63 683.01,-60.58C622.26,-65.64 597.20,-48.22 594.09,-29.90C591.27,-13.35 601.88,-1.82 621.97,1.59C655.85,7.35 680.36,-24.75 681.64,-26.36C677.89,-4.30 681.26,11.68 704.70,15.66C721.83,18.58 732.64,9.87 732.64,9.87L729.75,-12.50C729.75,-12.50 722.37,-3.63 713.31,-5.17C707.40,-6.17 706.03,-11.27 707.27,-17.34ZM629.10,-30.84C630.88,-41.28 644.81,-52.89 681.23,-50.14L679.92,-42.46C679.92,-42.46 661.50,-13.98 638.65,-17.86C628.80,-19.54 628.30,-26.11 629.10,-30.84ZM-215.29,2.38L-247.59,-3.12L-258.98,63.85C-263.70,91.63 -251.65,111.31 -215.40,117.47C-172.07,124.84 -164.01,91.76 -164.01,91.76L-160.01,124.26L-141.10,127.47L-122.51,18.15L-155.01,12.63L-166.27,78.81C-166.27,78.81 -177.05,101.70 -202.86,97.31C-220.39,94.33 -229.42,85.50 -226.94,70.92ZM-108.04,40.27L-82.82,44.56L-91.67,96.56C-96.46,124.73 -82.45,140.08 -56.05,144.57C-27.89,149.36 -12.14,135.42 -12.14,135.42L-14.83,113.08C-14.83,113.08 -26.17,127.36 -43.51,124.41C-57.49,122.03 -61.44,113.05 -59.16,99.66L-50.72,50.02L-0.49,58.56L2.76,39.46L-47.47,30.92L-40.47,-10.25L-75.13,4.12L-78.79,25.59L-104.79,21.17ZM36.32,112.65L3.43,115.37C3.43,115.37 -0.51,154.02 62.33,164.70C93.84,170.06 121.06,162.53 124.85,140.27C127.60,124.12 119.30,109.74 92.49,100.52L65.69,91.30C53.25,86.96 45.48,83.81 46.59,77.31C47.52,71.80 54.83,66.96 68.62,69.30C96.59,74.06 94.29,93.53 94.29,93.53L127.18,90.81C127.18,90.81 128.08,58.13 73.52,48.86C44.76,43.96 19.80,52.49 16.11,74.16C12.73,94.05 31.09,104.06 47.89,110.16L72.69,119.24C87.59,124.61 93.71,129.10 92.58,135.80C91.27,143.48 79.41,145.31 66.40,143.10C31.93,137.24 36.32,112.65 36.32,112.65Z" fill="#ffffff" stroke="#000000"/>
    <path d="M-898.60,473.49C-901.68,472.89 -903.80,471.94 -903.80,470.04C-903.80,468.10 -901.45,466.62 -897.42,466.62C-888.95,466.62 -889.17,472.54 -889.17,472.54L-882.22,470.64C-882.22,470.64 -882.87,461.94 -897.15,461.94C-906.39,461.94 -910.80,466.16 -910.80,470.76C-910.80,474.48 -907.60,477.41 -901.90,478.62L-894.38,480.22C-890.31,481.09 -888.00,481.59 -888.00,484.29C-888.00,486.53 -890.73,487.82 -895.22,487.82C-905.78,487.82 -904.91,480.60 -904.91,480.60L-911.86,482.39C-911.63,486.64 -907.72,492.49 -895.10,492.49C-887.16,492.49 -881.04,489.49 -881.04,483.75C-881.04,479.80 -883.25,476.57 -890.47,475.13ZM-870.21,488.62C-870.21,488.62 -868.58,492.49 -862.69,492.49C-856.30,492.49 -851.59,487.90 -851.59,481.44C-851.59,474.98 -856.30,470.42 -862.73,470.42C-869.53,470.42 -871.39,475.74 -871.39,475.74L-872.83,470.91L-876.48,470.91L-876.48,500.47L-870.21,500.47ZM-864.74,474.60C-860.22,474.60 -858.17,477.60 -858.17,481.44C-858.17,485.27 -860.22,488.31 -864.74,488.31C-869.34,488.31 -871.20,484.93 -871.20,481.44C-871.20,477.94 -869.34,474.60 -864.74,474.60ZM-847.03,481.44C-847.03,487.63 -842.17,492.49 -834.00,492.49C-825.75,492.49 -820.89,487.63 -820.89,481.44C-820.89,475.28 -825.75,470.42 -834.00,470.42C-842.17,470.42 -847.03,475.28 -847.03,481.44ZM-840.46,481.44C-840.46,477.98 -838.90,474.60 -834.00,474.60C-829.13,474.60 -827.46,477.98 -827.46,481.44C-827.46,484.89 -829.13,488.31 -834.00,488.31C-838.90,488.31 -840.46,484.89 -840.46,481.44ZM-808.92,479.19C-808.92,479.19 -808.31,474.60 -805.65,474.60C-804.93,474.60 -803.98,474.94 -803.98,476.50C-803.98,479.38 -804.62,481.51 -804.62,481.51L-798.54,479.95C-798.54,479.95 -798.05,478.55 -798.05,475.93C-798.05,472.96 -799.34,470.42 -803.71,470.42C-809.83,470.42 -809.75,476.88 -809.75,476.88L-811.54,470.91L-815.19,470.91L-815.19,492L-808.92,492ZM-796.91,474.60L-792.05,474.60L-792.05,484.63C-792.05,490.06 -788.93,492.49 -783.84,492.49C-778.40,492.49 -775.90,489.38 -775.90,489.38L-777.11,485.27C-777.11,485.27 -778.78,488.31 -782.13,488.31C-784.83,488.31 -785.85,486.76 -785.85,484.17L-785.85,474.60L-776.16,474.60L-776.16,470.91L-785.85,470.91L-785.85,462.97L-791.89,466.77L-791.89,470.91L-796.91,470.91ZM-771.72,467.30L-765.45,467.30L-765.45,462.47L-771.72,462.47ZM-771.72,492L-765.45,492L-765.45,470.91L-771.72,470.91ZM-740.75,492L-734.48,492L-734.48,479.08C-734.48,473.72 -737.36,470.42 -744.36,470.42C-752.72,470.42 -753.17,476.88 -753.17,476.88L-754.96,470.91L-758.61,470.91L-758.61,492L-752.34,492L-752.34,479.23C-752.34,479.23 -751.04,474.60 -746.07,474.60C-742.68,474.60 -740.75,475.96 -740.75,478.78ZM-716.81,485.54C-709.40,485.54 -704.95,482.27 -704.95,478.02C-704.95,476.65 -705.41,475.39 -706.28,474.29C-707.04,472.89 -707.08,471.94 -704.91,471.94C-704.46,471.94 -703.13,472.01 -701.64,472.24L-703.09,467.57C-704.11,467.49 -705.29,467.41 -705.82,467.41C-707.88,467.41 -709.13,468.52 -709.13,470.42C-709.13,471.02 -708.75,471.75 -708.22,472.54C-710.27,471.21 -713.23,470.42 -716.88,470.42C-724.41,470.42 -728.81,473.72 -728.81,478.02C-728.81,480.87 -726.88,483.22 -723.38,484.51C-724.79,484.70 -728.70,485.39 -728.70,488.01C-728.70,491.13 -723.91,491.77 -723.42,491.81C-724.03,491.89 -729.92,492.49 -729.92,496.22C-729.92,498.35 -727.90,501.01 -721.25,501.01L-712.85,501.01C-706.32,501.01 -702.29,498.61 -702.29,494.66C-702.29,491.66 -704,488.31 -710.95,488.31L-718.74,488.31C-721.29,488.31 -722.58,487.90 -722.58,486.68C-722.58,485.39 -721.29,485.24 -720.49,485.27C-719.39,485.46 -718.14,485.54 -716.81,485.54ZM-722.47,478.02C-722.47,475.77 -721.02,474.10 -716.88,474.10C-712.74,474.10 -711.37,475.77 -711.37,478.02C-711.37,480.18 -712.74,481.85 -716.88,481.85C-721.02,481.85 -722.47,480.18 -722.47,478.02ZM-712.21,492.46C-709.70,492.61 -708.90,493.56 -708.90,495.08C-708.90,497.59 -711.75,498.00 -716.31,498.00C-721.59,498.00 -723.30,497.21 -723.30,495.12C-723.30,492 -719.77,492 -719.62,492ZM-663.99,472.54C-663.99,472.54 -665.13,461.94 -681.31,461.94C-692.41,461.94 -699.36,468.36 -699.36,477.26C-699.36,486.11 -692.03,492.49 -682.42,492.49C-673.68,492.49 -671.24,487.63 -671.24,487.63L-671.24,492L-664.90,492L-664.90,476.31L-683.29,476.31L-683.29,480.45L-671.24,480.45C-671.24,480.45 -672.04,487.82 -681.35,487.82C-688.23,487.82 -692.33,483.30 -692.33,477.26C-692.33,471.44 -688.84,466.62 -681.35,466.62C-671.05,466.62 -670.94,474.44 -670.94,474.44ZM-651.26,479.19C-651.26,479.19 -650.65,474.60 -647.99,474.60C-647.27,474.60 -646.32,474.94 -646.32,476.50C-646.32,479.38 -646.96,481.51 -646.96,481.51L-640.88,479.95C-640.88,479.95 -640.39,478.55 -640.39,475.93C-640.39,472.96 -641.68,470.42 -646.05,470.42C-652.17,470.42 -652.09,476.88 -652.09,476.88L-653.88,470.91L-657.53,470.91L-657.53,492L-651.26,492ZM-636.97,481.44C-636.97,487.63 -632.10,492.49 -623.93,492.49C-615.69,492.49 -610.82,487.63 -610.82,481.44C-610.82,475.28 -615.69,470.42 -623.93,470.42C-632.10,470.42 -636.97,475.28 -636.97,481.44ZM-630.39,481.44C-630.39,477.98 -628.84,474.60 -623.93,474.60C-619.07,474.60 -617.40,477.98 -617.40,481.44C-617.40,484.89 -619.07,488.31 -623.93,488.31C-628.84,488.31 -630.39,484.89 -630.39,481.44ZM-608.54,474.60L-603.68,474.60L-603.68,484.63C-603.68,490.06 -600.56,492.49 -595.47,492.49C-590.04,492.49 -587.53,489.38 -587.53,489.38L-588.75,485.27C-588.75,485.27 -590.42,488.31 -593.76,488.31C-596.46,488.31 -597.49,486.76 -597.49,484.17L-597.49,474.60L-587.80,474.60L-587.80,470.91L-597.49,470.91L-597.49,462.97L-603.53,466.77L-603.53,470.91L-608.54,470.91ZM-578.18,481.82L-559.71,482.20C-559.14,479.19 -559.79,470.42 -571.68,470.42C-579.55,470.42 -584.49,475.17 -584.49,481.44C-584.49,488.58 -578.49,492.49 -571.68,492.49C-560.74,492.49 -559.14,485.01 -559.14,485.01L-565.22,483.45C-565.22,483.45 -565.26,488.31 -571.04,488.31C-576.17,488.31 -578.14,485.08 -578.18,481.82ZM-566.21,478.47L-577.80,478.85C-577.80,478.85 -577.04,474.41 -571.80,474.41C-566.74,474.41 -566.21,478.47 -566.21,478.47ZM-549.26,483.56L-555.34,485.12C-555.34,485.12 -554.85,492.49 -542.73,492.49C-536.65,492.49 -531.78,490.21 -531.78,485.92C-531.78,482.80 -533.80,480.37 -539.12,479.50L-544.44,478.62C-546.91,478.21 -548.47,477.86 -548.47,476.61C-548.47,475.55 -547.25,474.41 -544.59,474.41C-539.19,474.41 -539.00,478.13 -539.00,478.13L-532.92,476.57C-532.92,476.57 -533.80,470.42 -544.32,470.42C-549.87,470.42 -554.28,472.81 -554.28,476.99C-554.28,480.83 -550.52,482.12 -547.17,482.73L-542.23,483.64C-539.27,484.17 -537.98,484.82 -537.98,486.11C-537.98,487.59 -540.14,488.31 -542.65,488.31C-549.30,488.31 -549.26,483.56 -549.26,483.56ZM-509.40,500.47L-503.09,500.47L-503.09,470.91L-506.74,470.91L-508.22,475.74C-508.22,475.74 -510.05,470.42 -516.85,470.42C-523.31,470.42 -527.98,474.98 -527.98,481.44C-527.98,487.90 -523.31,492.49 -516.89,492.49C-511.00,492.49 -509.40,488.66 -509.40,488.66ZM-514.87,474.60C-510.28,474.60 -508.38,477.94 -508.38,481.44C-508.38,484.93 -510.28,488.31 -514.87,488.31C-519.36,488.31 -521.41,485.27 -521.41,481.44C-521.41,477.60 -519.36,474.60 -514.87,474.60ZM-490.02,470.91L-496.25,470.91L-496.25,483.83C-496.25,489.19 -493.37,492.49 -486.37,492.49C-478.01,492.49 -477.56,486.03 -477.56,486.03L-475.77,492L-472.12,492L-472.12,470.91L-478.39,470.91L-478.39,483.68C-478.39,483.68 -479.69,488.31 -484.66,488.31C-488.05,488.31 -490.02,486.95 -490.02,484.13ZM-460.12,481.82L-441.65,482.20C-441.08,479.19 -441.72,470.42 -453.62,470.42C-461.48,470.42 -466.42,475.17 -466.42,481.44C-466.42,488.58 -460.42,492.49 -453.62,492.49C-442.67,492.49 -441.08,485.01 -441.08,485.01L-447.16,483.45C-447.16,483.45 -447.20,488.31 -452.97,488.31C-458.10,488.31 -460.08,485.08 -460.12,481.82ZM-448.15,478.47L-459.74,478.85C-459.74,478.85 -458.98,474.41 -453.73,474.41C-448.68,474.41 -448.15,478.47 -448.15,478.47ZM-421.24,482.58L-421.24,478.89L-437.28,478.89L-437.28,482.58ZM-402.39,462.47L-416.30,462.47L-416.30,492L-401.63,492C-391.53,492 -386.97,489.00 -386.97,483.37C-386.97,477.75 -392.59,476.76 -393.12,476.69C-392.63,476.61 -387.73,475.66 -387.73,470.72C-387.73,465.10 -392.29,462.47 -402.39,462.47ZM-402.01,474.82L-409.54,474.82L-409.54,466.62L-402.01,466.62C-397.68,466.62 -394.76,467.68 -394.76,470.72C-394.76,473.76 -397.68,474.82 -402.01,474.82ZM-409.54,487.82L-409.54,478.85L-400.91,478.85C-396.77,478.85 -394.00,480.37 -394.00,483.34C-394.00,486.38 -396.92,487.82 -401.25,487.82ZM-382.41,481.44C-382.41,487.63 -377.54,492.49 -369.37,492.49C-361.13,492.49 -356.26,487.63 -356.26,481.44C-356.26,475.28 -361.13,470.42 -369.37,470.42C-377.54,470.42 -382.41,475.28 -382.41,481.44ZM-375.83,481.44C-375.83,477.98 -374.27,474.60 -369.37,474.60C-364.51,474.60 -362.84,477.98 -362.84,481.44C-362.84,484.89 -364.51,488.31 -369.37,488.31C-374.27,488.31 -375.83,484.89 -375.83,481.44ZM-350.56,492L-344.29,492L-344.29,461.94C-344.29,461.94 -347.48,462.47 -350.56,462.47ZM-320.01,474.25C-320.01,474.25 -321.61,470.42 -327.50,470.42C-333.92,470.42 -338.59,475.01 -338.59,481.47C-338.59,487.93 -333.92,492.49 -327.46,492.49C-320.66,492.49 -318.83,487.17 -318.83,487.17L-317.35,492L-313.70,492L-313.70,461.94C-313.70,461.94 -316.86,462.47 -320.01,462.47ZM-325.48,488.31C-329.97,488.31 -332.02,485.31 -332.02,481.47C-332.02,477.64 -329.97,474.60 -325.48,474.60C-320.88,474.60 -318.98,477.98 -318.98,481.47C-318.98,484.97 -320.88,488.31 -325.48,488.31Z"/>
</svg>