<?xml version="1.0"?>
<svg xmlns="http://www.w3.org/2000/svg" width="1920" height="1080" viewBox="-960 -540 1920 1080">
    <path d="M-664.67,-147L-664.67,-178.08L-692.42,-178.08L-683.54,-204.50L-632.03,-204.50L-622.04,-178.08L-647.57,-178.08L-647.57,-147L-580.75,-147L-580.75,-178.08L-603.84,-178.08L-638.69,-273.54L-622.93,-273.54L-622.93,-309.06L-676.88,-309.06L-722.83,-178.08L-745.25,-178.08L-745.25,-147ZM-658.90,-276.43L-637.81,-220.26L-678.43,-220.26ZM-378.73,-203.61C-384.50,-186.29 -404.04,-177.86 -429.35,-177.86C-465.53,-177.86 -483.07,-193.84 -482.85,-222.92C-482.63,-251.78 -463.76,-268.66 -430.24,-268.66C-406.04,-268.66 -390.28,-263.55 -382.51,-253.78L-369.63,-253.78L-369.63,-309.06L-382.51,-309.06L-382.51,-286.86C-391.39,-301.73 -409.59,-311.28 -430.24,-311.28C-468.86,-311.28 -496.61,-287.08 -496.61,-225.59C-496.61,-170.98 -470.64,-144.78 -432.46,-144.78C-395.16,-144.78 -372.96,-162.32 -365.63,-193.62ZM-297.48,-144.78C-267.73,-144.78 -246.42,-163.21 -246.42,-205.83C-246.42,-253.12 -267.07,-271.32 -297.48,-271.32C-327.67,-271.32 -348.54,-253.12 -348.54,-205.83C-348.54,-163.21 -327.01,-144.78 -297.48,-144.78ZM-297.48,-172.97C-318.13,-172.97 -335.44,-180.74 -335.44,-205.83C-335.44,-221.37 -322.34,-234.02 -297.48,-234.02C-272.39,-234.02 -259.52,-221.59 -259.52,-205.83C-259.52,-180.97 -276.83,-172.97 -297.48,-172.97ZM-222,-178.75L-222,-146.78C-215.78,-147 -179.15,-147 -166.72,-146.78L-166.72,-178.75L-186.48,-178.75L-186.48,-211.38C-180.49,-226.92 -167.83,-233.36 -150.96,-233.36C-130.09,-233.36 -121.66,-223.15 -121.66,-200.50L-121.66,-178.75L-143.19,-178.75L-143.19,-146.78C-133.87,-147 -109.67,-146.78 -87.47,-146.78L-87.47,-178.75L-107.67,-178.75L-107.67,-214.27C-107.67,-257.78 -120.32,-271.32 -149.85,-271.32C-166.50,-271.32 -182.04,-261.55 -186.48,-244.68L-186.48,-269.10L-222,-269.10L-222,-232.69C-218.00,-232.91 -209.57,-232.91 -200.91,-232.91L-200.91,-178.75ZM27.97,-171.86L16.43,-187.63C10.43,-175.86 -0.22,-170.98 -18.65,-170.98C-44.18,-170.98 -54.61,-187.18 -54.39,-206.05C-54.17,-225.14 -40.18,-236.24 -18.65,-236.24C-0.22,-236.24 7.99,-230.47 12.88,-222.48L25.75,-222.48L25.75,-271.10L12.88,-271.10L12.88,-253.78C6.88,-265.55 -4.00,-271.32 -19.76,-271.32C-46.40,-271.32 -67.49,-253.34 -67.49,-207.16C-67.49,-164.54 -47.95,-144.78 -19.76,-144.78C4.22,-144.78 20.42,-154.55 27.97,-171.86ZM87.47,-144.78C103.45,-144.78 112.55,-151.44 117.44,-158.54L111.22,-182.74C107.00,-178.30 100.34,-175.86 91.46,-175.86C78.59,-175.86 73.70,-183.63 73.70,-196.95L73.70,-324.82L36.85,-324.82L36.85,-285.97L58.61,-285.97L58.61,-180.08C58.61,-155.21 67.93,-144.78 87.47,-144.78ZM226.44,-147L226.44,-146.78L260.85,-146.78L261.07,-178.75L239.98,-178.75L239.98,-232.91C248.20,-232.91 255.74,-232.69 260.18,-232.69L260.18,-269.10L203.35,-269.10L203.35,-232.69C206.02,-232.69 215.12,-232.91 225.55,-232.91L225.55,-196.51C220.22,-184.07 207.57,-176.30 190.70,-176.30C167.83,-176.30 160.95,-185.41 160.95,-210.71L160.95,-232.91C169.61,-232.91 177.60,-232.69 182.04,-232.69L182.04,-269.10L125.21,-269.10L125.21,-232.69C127.87,-232.69 136.75,-232.91 146.74,-232.91L146.74,-197.39C146.74,-158.10 162.50,-144.78 187.15,-144.78C206.24,-144.78 219.56,-154.33 225.33,-166.54ZM374.29,-177.86C374.29,-202.50 362.75,-212.27 331.00,-215.38C311.47,-217.37 305.03,-221.37 305.03,-227.14C305.03,-235.36 314.57,-241.79 331.22,-241.79C349.87,-241.79 356.75,-236.69 360.97,-228.70L371.41,-228.70L371.41,-269.32L360.97,-269.32L360.97,-259.78C352.76,-267.10 339.66,-271.32 327.45,-271.32C304.58,-271.32 288.38,-258 288.38,-237.13C288.38,-210.94 300.81,-202.28 329.67,-199.39C348.54,-197.39 356.53,-193.40 356.53,-187.40C356.53,-179.86 348.32,-173.20 328.34,-173.20C308.36,-173.20 304.58,-180.97 297.70,-189.85L287.71,-189.85L287.71,-147L297.70,-147L297.70,-159.43C305.03,-150.77 317.68,-144.78 332.33,-144.78C358.97,-144.78 374.29,-157.88 374.29,-177.86ZM443.11,-304.40C443.11,-317.27 436.01,-322.38 424.02,-322.38C410.70,-322.38 404.04,-317.05 404.04,-304.40C404.04,-291.74 411.14,-285.75 424.02,-285.75C435.56,-285.75 443.11,-291.74 443.11,-304.40ZM399.82,-178.75L399.82,-146.78C409.37,-147 418.47,-147 427.57,-147L435.34,-147C444.89,-147 454.43,-146.78 464.42,-146.78L464.42,-178.75L442.00,-178.75L442.00,-264.66L399.82,-264.66L399.82,-228.25L427.57,-228.25L427.57,-178.75ZM533.24,-144.78C562.99,-144.78 584.30,-163.21 584.30,-205.83C584.30,-253.12 563.66,-271.32 533.24,-271.32C503.05,-271.32 482.18,-253.12 482.18,-205.83C482.18,-163.21 503.72,-144.78 533.24,-144.78ZM533.24,-172.97C512.60,-172.97 495.28,-180.74 495.28,-205.83C495.28,-221.37 508.38,-234.02 533.24,-234.02C558.33,-234.02 571.21,-221.59 571.21,-205.83C571.21,-180.97 553.89,-172.97 533.24,-172.97ZM608.72,-178.75L608.72,-146.78C614.94,-147 651.57,-147 664.00,-146.78L664.00,-178.75L644.24,-178.75L644.24,-211.38C650.24,-226.92 662.89,-233.36 679.76,-233.36C700.63,-233.36 709.07,-223.15 709.07,-200.50L709.07,-178.75L687.53,-178.75L687.53,-146.78C696.86,-147 721.06,-146.78 743.26,-146.78L743.26,-178.75L723.05,-178.75L723.05,-214.27C723.05,-257.78 710.40,-271.32 680.87,-271.32C664.22,-271.32 648.68,-261.55 644.24,-244.68L644.24,-269.10L608.72,-269.10L608.72,-232.69C612.72,-232.91 621.16,-232.91 629.81,-232.91L629.81,-178.75Z" fill="#ffffff" stroke="#000000"/>
    <path d="M-665.83,-133.57L-666.24,-164.34L-693.71,-163.97L-685.28,-190.24L-634.29,-190.93L-624.05,-164.91L-649.32,-164.57L-648.91,-133.80L-582.76,-134.70L-583.17,-165.46L-606.03,-165.15L-641.81,-259.18L-626.21,-259.39L-626.68,-294.56L-680.08,-293.83L-723.82,-163.56L-746.02,-163.26L-745.60,-132.49ZM-661.85,-261.77L-640.22,-206.45L-680.43,-205.91ZM-383.53,-193.44C-389.02,-176.22 -408.24,-167.61 -433.29,-167.27C-469.12,-166.78 -486.69,-182.37 -486.86,-211.16C-487.03,-239.74 -468.57,-256.69 -435.39,-257.14C-411.44,-257.46 -395.76,-252.62 -387.94,-243.05L-375.20,-243.23L-375.94,-297.95L-388.68,-297.77L-388.38,-275.80C-397.37,-290.40 -415.52,-299.61 -435.96,-299.33C-474.20,-298.82 -501.34,-274.49 -500.52,-213.62C-499.79,-159.56 -473.73,-133.97 -435.93,-134.48C-399.01,-134.98 -377.27,-152.64 -370.43,-183.72ZM-302.31,-136.29C-272.87,-136.69 -252.02,-155.21 -252.59,-197.41C-253.22,-244.21 -273.90,-261.96 -304.01,-261.55C-333.90,-261.15 -354.31,-242.85 -353.68,-196.04C-353.11,-153.85 -331.54,-135.89 -302.31,-136.29ZM-302.69,-164.20C-323.13,-163.92 -340.38,-171.38 -340.71,-196.21C-340.92,-211.60 -328.12,-224.30 -303.51,-224.63C-278.68,-224.97 -265.76,-212.83 -265.55,-197.23C-265.22,-172.62 -282.25,-164.47 -302.69,-164.20ZM-228.05,-170.92L-227.62,-139.28C-221.47,-139.58 -185.21,-140.07 -172.90,-140.02L-173.33,-171.66L-192.89,-171.40L-193.33,-203.70C-187.60,-219.17 -175.16,-225.71 -158.46,-225.93C-137.80,-226.21 -129.31,-216.22 -129.01,-193.80L-128.72,-172.26L-150.04,-171.98L-149.61,-140.33C-140.38,-140.68 -116.42,-140.78 -94.45,-141.08L-94.88,-172.72L-114.87,-172.45L-115.35,-207.61C-115.93,-250.69 -128.64,-263.92 -157.87,-263.53C-174.35,-263.30 -189.60,-253.43 -193.77,-236.67L-194.10,-260.84L-229.26,-260.36L-228.77,-224.32C-224.82,-224.60 -216.47,-224.71 -207.90,-224.83L-207.17,-171.20ZM19.49,-167.45L7.85,-182.90C2.08,-171.18 -8.41,-166.20 -26.65,-165.95C-51.92,-165.61 -62.46,-181.51 -62.50,-200.20C-62.53,-219.10 -48.84,-230.27 -27.52,-230.56C-9.28,-230.81 -1.07,-225.20 3.87,-217.36L16.62,-217.53L15.97,-265.66L3.22,-265.48L3.45,-248.34C-2.64,-259.91 -13.49,-265.48 -29.09,-265.27C-55.46,-264.91 -76.10,-246.83 -75.48,-201.12C-74.91,-158.92 -55.30,-139.63 -27.40,-140.00C-3.66,-140.33 12.25,-150.21 19.49,-167.45ZM78.75,-141.44C94.57,-141.65 103.49,-148.37 108.23,-155.47L101.76,-179.34C97.64,-174.88 91.08,-172.38 82.29,-172.26C69.54,-172.09 64.60,-179.71 64.43,-192.90L62.71,-319.48L26.23,-318.99L26.75,-280.53L48.29,-280.82L49.71,-176.00C50.04,-151.38 59.41,-141.18 78.75,-141.44ZM216.29,-145.50L216.29,-145.28L250.35,-145.74L250.15,-177.39L229.27,-177.10L228.54,-230.72C236.68,-230.83 244.15,-230.72 248.55,-230.78L248.06,-266.82L191.80,-266.06L192.29,-230.02C194.92,-230.05 203.93,-230.39 214.26,-230.53L214.75,-194.49C209.64,-182.11 197.22,-174.25 180.52,-174.03C157.88,-173.72 150.95,-182.64 150.61,-207.69L150.31,-229.67C158.88,-229.78 166.79,-229.67 171.19,-229.73L170.70,-265.77L114.44,-265.01L114.93,-228.97C117.57,-229.01 126.36,-229.34 136.25,-229.48L136.72,-194.32C137.25,-155.42 153.03,-142.44 177.42,-142.77C196.32,-143.03 209.38,-152.66 214.93,-164.82ZM362.24,-178.02C361.91,-202.41 350.35,-211.93 318.88,-214.58C299.52,-216.30 293.09,-220.17 293.01,-225.88C292.90,-234.01 302.27,-240.51 318.75,-240.74C337.21,-240.99 344.09,-236.02 348.37,-228.17L358.70,-228.31L358.16,-268.52L347.83,-268.38L347.95,-258.93C339.73,-266.08 326.70,-270.08 314.62,-269.91C291.98,-269.61 276.12,-256.21 276.40,-235.55C276.75,-209.62 289.17,-201.21 317.78,-198.74C336.48,-197.02 344.45,-193.17 344.53,-187.23C344.63,-179.76 336.59,-173.06 316.81,-172.79C297.03,-172.52 293.19,-180.17 286.26,-188.86L276.37,-188.73L276.94,-146.32L286.83,-146.45L286.67,-158.76C294.03,-150.28 306.64,-144.52 321.14,-144.72C347.52,-145.07 362.50,-158.24 362.24,-178.02ZM428.67,-304.21C428.50,-316.95 421.40,-321.91 409.53,-321.75C396.34,-321.57 389.82,-316.21 389.99,-303.68C390.16,-291.16 397.27,-285.32 410.02,-285.49C421.45,-285.64 428.84,-291.68 428.67,-304.21ZM387.50,-179.24L387.92,-147.60C397.37,-147.94 406.38,-148.07 415.39,-148.19L423.08,-148.29C432.53,-148.42 441.99,-148.33 451.87,-148.46L451.45,-180.11L429.25,-179.81L428.10,-264.85L386.35,-264.29L386.83,-228.25L414.30,-228.62L414.97,-179.61ZM520.03,-147.40C549.47,-147.80 570.33,-166.33 569.75,-208.52C569.12,-255.33 548.44,-273.07 518.33,-272.67C488.45,-272.26 468.03,-253.96 468.67,-207.16C469.24,-164.96 490.80,-147.01 520.03,-147.40ZM519.65,-175.31C499.21,-175.04 481.97,-182.50 481.63,-207.33C481.42,-222.71 494.22,-235.42 518.83,-235.75C543.67,-236.08 556.58,-223.95 556.79,-208.35C557.12,-183.73 540.09,-175.59 519.65,-175.31ZM594.29,-182.04L594.72,-150.39C600.87,-150.70 637.13,-151.19 649.44,-151.13L649.01,-182.78L629.45,-182.51L629.02,-214.82C634.74,-230.28 647.18,-236.82 663.88,-237.05C684.54,-237.33 693.03,-227.33 693.33,-204.92L693.62,-183.38L672.31,-183.09L672.73,-151.45C681.96,-151.79 705.92,-151.90 727.89,-152.19L727.47,-183.84L707.47,-183.57L706.99,-218.73C706.41,-261.80 693.70,-275.04 664.47,-274.64C647.99,-274.42 632.74,-264.54 628.57,-247.78L628.24,-271.96L593.08,-271.48L593.57,-235.44C597.52,-235.71 605.87,-235.83 614.44,-235.94L615.17,-182.32Z" fill="#ffffff" stroke="#000000"/>
    <path d="M-666.63,-120.21L-667.45,-150.65L-694.64,-149.92L-686.64,-176.03L-636.18,-177.40L-625.69,-151.78L-650.70,-151.11L-649.88,-120.66L-584.42,-122.43L-585.24,-152.88L-607.86,-152.26L-644.53,-244.86L-629.09,-245.27L-630.03,-280.07L-682.88,-278.64L-724.43,-149.11L-746.40,-148.52L-745.57,-118.07ZM-664.40,-247.15L-642.25,-192.69L-682.05,-191.61ZM-388.01,-183.24C-393.21,-166.12 -412.12,-157.34 -436.92,-156.67C-472.36,-155.71 -489.97,-170.90 -490.52,-199.40C-491.07,-227.68 -473.03,-244.71 -440.19,-245.59C-416.49,-246.24 -400.91,-241.65 -393.04,-232.29L-380.42,-232.63L-381.89,-286.78L-394.50,-286.44L-393.91,-264.69C-403.01,-279.03 -421.09,-287.90 -441.32,-287.35C-479.16,-286.33 -505.71,-261.89 -504.08,-201.65C-502.63,-148.14 -476.49,-123.17 -439.08,-124.18C-402.55,-125.17 -381.26,-142.94 -374.92,-173.80ZM-306.86,-127.76C-277.71,-128.54 -257.32,-147.16 -258.45,-188.92C-259.70,-235.24 -280.41,-252.53 -310.21,-251.72C-339.78,-250.92 -359.75,-232.53 -358.49,-186.21C-357.36,-144.46 -335.78,-126.97 -306.86,-127.76ZM-307.60,-155.38C-327.83,-154.83 -345.00,-161.98 -345.66,-186.56C-346.07,-201.78 -333.58,-214.53 -309.22,-215.18C-284.64,-215.85 -271.70,-204.01 -271.28,-188.57C-270.63,-164.21 -287.38,-155.92 -307.60,-155.38ZM-233.81,-163.03L-232.97,-131.71C-226.88,-132.10 -191.00,-133.07 -178.81,-133.18L-179.66,-164.50L-199.02,-163.97L-199.88,-195.94C-194.42,-211.32 -182.19,-217.97 -165.66,-218.41C-145.22,-218.97 -136.69,-209.18 -136.09,-187.00L-135.51,-165.69L-156.61,-165.12L-155.76,-133.80C-146.63,-134.27 -122.92,-134.69 -101.17,-135.28L-102.02,-166.59L-121.81,-166.06L-122.75,-200.86C-123.90,-243.48 -136.66,-256.41 -165.58,-255.63C-181.89,-255.19 -196.86,-245.21 -200.76,-228.56L-201.41,-252.49L-236.21,-251.55L-235.24,-215.88C-231.33,-216.20 -223.07,-216.43 -214.59,-216.65L-213.15,-163.59ZM11.25,-162.91L-0.47,-178.05C-6.03,-166.36 -16.34,-161.29 -34.39,-160.81C-59.40,-160.13 -70.06,-175.73 -70.34,-194.22C-70.63,-212.93 -57.22,-224.17 -36.12,-224.74C-18.07,-225.23 -9.87,-219.80 -4.88,-212.10L7.74,-212.44L6.45,-260.07L-6.16,-259.72L-5.71,-242.76C-11.89,-254.13 -22.70,-259.49 -38.14,-259.08C-64.24,-258.37 -84.42,-240.20 -83.20,-194.96C-82.07,-153.20 -62.41,-134.37 -34.79,-135.11C-11.30,-135.75 4.32,-145.75 11.25,-162.91ZM70.26,-137.95C85.91,-138.38 94.65,-145.14 99.25,-152.23L92.52,-175.77C88.51,-171.31 82.05,-168.74 73.35,-168.51C60.73,-168.17 55.74,-175.65 55.39,-188.70L52.00,-313.97L15.90,-312.99L16.93,-274.93L38.24,-275.51L41.05,-171.77C41.71,-147.41 51.12,-137.44 70.26,-137.95ZM206.34,-143.81L206.35,-143.59L240.05,-144.50L239.43,-175.83L218.76,-175.27L217.33,-228.33C225.38,-228.55 232.78,-228.53 237.13,-228.65L236.16,-264.32L180.49,-262.81L181.45,-227.15C184.06,-227.22 192.97,-227.67 203.19,-227.95L204.16,-192.28C199.27,-179.96 187.08,-172.02 170.55,-171.57C148.15,-170.96 141.17,-179.70 140.50,-204.49L139.91,-226.24C148.39,-226.47 156.22,-226.46 160.57,-226.58L159.61,-262.25L103.93,-260.74L104.90,-225.08C107.51,-225.15 116.20,-225.60 125.99,-225.86L126.93,-191.07C127.97,-152.57 143.76,-139.94 167.90,-140.59C186.61,-141.10 199.40,-150.80 204.73,-162.92ZM350.36,-177.96C349.71,-202.10 338.14,-211.36 306.96,-213.56C287.77,-215.00 281.36,-218.75 281.20,-224.40C280.99,-232.45 290.17,-239.01 306.48,-239.45C324.75,-239.94 331.62,-235.12 335.97,-227.41L346.19,-227.68L345.11,-267.48L334.89,-267.21L335.15,-257.85C326.90,-264.81 313.96,-268.60 302.00,-268.27C279.60,-267.67 264.08,-254.19 264.63,-233.75C265.32,-208.08 277.73,-199.93 306.08,-197.87C324.62,-196.41 332.55,-192.71 332.71,-186.84C332.91,-179.44 325.04,-172.70 305.47,-172.17C285.90,-171.64 281.99,-179.15 275.02,-187.67L265.23,-187.41L266.36,-145.43L276.15,-145.70L275.82,-157.88C283.23,-149.59 295.78,-144.05 310.14,-144.44C336.23,-145.15 350.89,-158.38 350.36,-177.96ZM414.43,-303.74C414.09,-316.36 407.00,-321.17 395.25,-320.85C382.20,-320.50 375.82,-315.10 376.15,-302.71C376.49,-290.31 383.61,-284.63 396.22,-284.97C407.53,-285.27 414.77,-291.35 414.43,-303.74ZM375.35,-179.50L376.20,-148.18C385.54,-148.66 394.46,-148.90 403.38,-149.14L410.99,-149.34C420.34,-149.60 429.70,-149.63 439.48,-149.90L438.64,-181.21L416.67,-180.62L414.40,-264.78L373.08,-263.67L374.04,-228.00L401.22,-228.74L402.54,-180.24ZM506.96,-149.76C536.10,-150.55 556.49,-169.17 555.36,-210.92C554.11,-257.24 533.40,-274.53 503.60,-273.73C474.03,-272.93 454.07,-254.54 455.32,-208.22C456.45,-166.46 478.03,-148.98 506.96,-149.76ZM506.21,-177.38C485.98,-176.83 468.81,-183.99 468.15,-208.56C467.74,-223.79 480.23,-236.53 504.59,-237.19C529.17,-237.85 542.11,-226.02 542.53,-210.57C543.19,-186.22 526.44,-177.93 506.21,-177.38ZM580.00,-185.04L580.85,-153.72C586.93,-154.10 622.81,-155.07 635.00,-155.18L634.15,-186.50L614.80,-185.98L613.93,-217.95C619.39,-233.33 631.62,-239.97 648.15,-240.42C668.59,-240.97 677.13,-231.19 677.72,-209.01L678.30,-187.69L657.21,-187.12L658.05,-155.81C667.18,-156.27 690.89,-156.69 712.64,-157.28L711.79,-188.60L692.00,-188.06L691.06,-222.86C689.91,-265.49 677.15,-278.42 648.23,-277.64C631.92,-277.20 616.95,-267.21 613.05,-250.57L612.40,-274.49L577.61,-273.55L578.57,-237.88C582.48,-238.21 590.74,-238.43 599.23,-238.66L600.66,-185.59Z" fill="#ffffff" stroke="#000000"/>
    <path d="M-667.07,-106.91L-668.29,-137.03L-695.19,-135.94L-687.62,-161.89L-637.70,-163.92L-626.98,-138.71L-651.72,-137.70L-650.50,-107.58L-585.74,-110.21L-586.96,-140.33L-609.34,-139.42L-646.87,-230.57L-631.60,-231.19L-632.99,-265.62L-685.28,-263.50L-724.66,-134.74L-746.40,-133.86L-745.17,-103.74ZM-666.57,-232.57L-643.92,-178.97L-683.29,-177.37ZM-392.17,-173.02C-397.08,-156.01 -415.68,-147.06 -440.21,-146.07C-475.28,-144.64 -492.91,-159.45 -493.84,-187.64C-494.76,-215.62 -477.13,-232.72 -444.64,-234.03C-421.19,-234.99 -405.71,-230.66 -397.80,-221.49L-385.32,-222.00L-387.49,-275.58L-399.97,-275.07L-399.10,-253.55C-408.29,-267.62 -426.31,-276.16 -446.32,-275.35C-483.76,-273.83 -509.70,-249.28 -507.28,-189.68C-505.13,-136.75 -478.93,-112.38 -441.92,-113.89C-405.77,-115.35 -384.95,-133.22 -379.08,-163.85ZM-311.10,-119.19C-282.27,-120.36 -262.34,-139.06 -264.02,-180.37C-265.88,-226.20 -286.60,-243.03 -316.08,-241.84C-345.34,-240.65 -364.85,-222.18 -362.99,-176.36C-361.32,-135.04 -339.72,-118.03 -311.10,-119.19ZM-312.21,-146.52C-332.22,-145.71 -349.31,-152.56 -350.30,-176.87C-350.91,-191.93 -338.71,-204.71 -314.61,-205.69C-290.30,-206.68 -277.33,-195.13 -276.71,-179.86C-275.73,-155.76 -292.20,-147.33 -312.21,-146.52ZM-239.28,-155.08L-238.03,-124.10C-232.01,-124.56 -196.51,-126.00 -184.45,-126.27L-185.71,-157.25L-204.86,-156.48L-206.14,-188.11C-200.94,-203.40 -188.93,-210.14 -172.58,-210.80C-152.35,-211.63 -143.78,-202.06 -142.89,-180.11L-142.03,-159.03L-162.90,-158.18L-161.64,-127.20C-152.62,-127.78 -129.15,-128.51 -107.64,-129.39L-108.89,-160.37L-128.47,-159.58L-129.87,-194.00C-131.58,-236.17 -144.38,-248.80 -173.00,-247.64C-189.13,-246.99 -203.81,-236.91 -207.45,-220.38L-208.41,-244.05L-242.84,-242.65L-241.40,-207.37C-237.54,-207.74 -229.36,-208.07 -220.97,-208.41L-218.84,-155.91ZM3.26,-158.24L-8.55,-173.06C-13.89,-161.42 -24.03,-156.27 -41.89,-155.55C-66.63,-154.54 -77.38,-169.84 -77.91,-188.14C-78.44,-206.65 -65.33,-217.96 -44.45,-218.80C-26.60,-219.53 -18.41,-214.26 -13.36,-206.70L-0.88,-207.21L-2.79,-254.33L-15.27,-253.82L-14.59,-237.04C-20.86,-248.21 -31.63,-253.38 -46.91,-252.76C-72.73,-251.71 -92.46,-233.45 -90.65,-188.70C-88.97,-147.39 -69.26,-129.00 -41.93,-130.11C-18.70,-131.06 -3.37,-141.16 3.26,-158.24ZM61.99,-134.33C77.48,-134.96 86.04,-141.77 90.50,-148.85L83.52,-172.06C79.61,-167.59 73.25,-164.96 64.64,-164.61C52.16,-164.10 47.12,-171.44 46.60,-184.35L41.57,-308.29L5.85,-306.84L7.38,-269.18L28.47,-270.04L32.63,-167.41C33.61,-143.31 43.06,-133.56 61.99,-134.33ZM196.59,-141.95L196.60,-141.73L229.95,-143.08L228.91,-174.08L208.47,-173.25L206.34,-225.75C214.30,-226.07 221.63,-226.15 225.93,-226.33L224.50,-261.61L169.42,-259.38L170.85,-224.09C173.43,-224.20 182.24,-224.77 192.36,-225.18L193.79,-189.89C189.11,-177.63 177.15,-169.61 160.80,-168.94C138.64,-168.04 131.61,-176.59 130.62,-201.12L129.74,-222.64C138.13,-222.98 145.89,-223.08 150.19,-223.25L148.76,-258.54L93.68,-256.31L95.11,-221.02C97.69,-221.12 106.29,-221.69 115.97,-222.08L117.37,-187.65C118.91,-149.57 134.71,-137.28 158.60,-138.25C177.10,-139.00 189.64,-148.78 194.75,-160.84ZM338.68,-177.67C337.71,-201.55 326.14,-210.56 295.25,-212.33C276.23,-213.50 269.84,-217.12 269.61,-222.71C269.29,-230.67 278.29,-237.29 294.42,-237.94C312.50,-238.67 319.37,-234.00 323.77,-226.42L333.88,-226.83L332.29,-266.20L322.17,-265.79L322.55,-256.54C314.30,-263.32 301.44,-266.89 289.60,-266.41C267.44,-265.51 252.26,-251.96 253.08,-231.74C254.11,-206.35 266.50,-198.45 294.58,-196.78C312.95,-195.59 320.86,-192.03 321.09,-186.22C321.39,-178.91 313.69,-172.13 294.32,-171.34C274.96,-170.56 271.00,-177.94 263.98,-186.27L254.29,-185.88L255.98,-144.36L265.66,-144.75L265.17,-156.80C272.61,-148.69 285.11,-143.38 299.31,-143.96C325.13,-145.01 339.46,-158.30 338.68,-177.67ZM400.40,-303.02C399.90,-315.50 392.81,-320.17 381.19,-319.69C368.28,-319.17 362.04,-313.74 362.54,-301.48C363.03,-289.22 370.15,-283.69 382.63,-284.19C393.82,-284.65 400.90,-290.75 400.40,-303.02ZM363.39,-179.53L364.65,-148.55C373.89,-149.14 382.71,-149.50 391.53,-149.86L399.06,-150.16C408.31,-150.54 417.58,-150.70 427.26,-151.09L426.00,-182.07L404.27,-181.19L400.89,-264.46L360.01,-262.80L361.44,-227.51L388.34,-228.60L390.28,-180.62ZM494.04,-151.86C522.87,-153.03 542.80,-171.72 541.12,-213.04C539.26,-258.87 518.54,-275.70 489.06,-274.50C459.80,-273.31 440.29,-254.85 442.15,-209.02C443.82,-167.71 465.42,-150.70 494.04,-151.86ZM492.93,-179.18C472.92,-178.37 455.83,-185.22 454.84,-209.54C454.23,-224.60 466.43,-237.38 490.53,-238.35C514.84,-239.34 527.81,-227.80 528.43,-212.52C529.41,-188.42 512.94,-180.00 492.93,-179.18ZM565.86,-187.75L567.11,-156.76C573.13,-157.22 608.63,-158.66 620.69,-158.94L619.43,-189.92L600.28,-189.14L599.00,-220.77C604.20,-236.07 616.21,-242.81 632.56,-243.47C652.79,-244.29 661.36,-234.72 662.25,-212.78L663.11,-191.69L642.24,-190.85L643.50,-159.86C652.52,-160.44 675.99,-161.18 697.50,-162.05L696.25,-193.04L676.67,-192.24L675.27,-226.67C673.56,-268.84 660.76,-281.47 632.14,-280.31C616.01,-279.65 601.33,-269.57 597.69,-253.05L596.73,-276.71L562.30,-275.32L563.74,-240.03C567.60,-240.40 575.78,-240.74 584.17,-241.08L586.30,-188.58Z" fill="#ffffff" stroke="#000000"/>
    <path d="M-667.16,-93.68L-668.77,-123.48L-695.37,-122.04L-688.23,-147.82L-638.86,-150.49L-627.91,-125.69L-652.38,-124.36L-650.77,-94.57L-586.72,-98.04L-588.33,-127.83L-610.46,-126.63L-648.82,-216.33L-633.72,-217.15L-635.56,-251.20L-687.27,-248.40L-724.53,-120.46L-746.02,-119.30L-744.41,-89.50ZM-668.34,-218.05L-645.21,-165.30L-684.15,-163.20ZM-396.00,-162.78C-400.63,-145.89 -418.92,-136.79 -443.18,-135.47C-477.87,-133.60 -495.51,-148.01 -496.81,-175.90C-498.09,-203.57 -480.88,-220.73 -448.74,-222.47C-425.55,-223.72 -410.17,-219.64 -402.22,-210.68L-389.88,-211.35L-392.74,-264.34L-405.09,-263.67L-403.93,-242.39C-413.22,-256.19 -431.16,-264.40 -450.96,-263.32C-487.98,-261.32 -513.33,-236.68 -510.14,-177.74C-507.31,-125.39 -481.05,-101.62 -444.45,-103.60C-408.69,-105.54 -388.32,-123.50 -382.92,-153.89ZM-315.06,-110.60C-286.54,-112.15 -267.07,-130.92 -269.28,-171.78C-271.73,-217.10 -292.47,-233.48 -321.62,-231.91C-350.56,-230.34 -369.62,-211.81 -367.17,-166.48C-364.96,-125.62 -343.36,-109.07 -315.06,-110.60ZM-316.52,-137.63C-336.31,-136.56 -353.31,-143.11 -354.62,-167.16C-355.42,-182.05 -343.52,-194.86 -319.69,-196.15C-295.64,-197.46 -282.65,-186.21 -281.83,-171.10C-280.55,-147.26 -296.73,-138.70 -316.52,-137.63ZM-244.47,-147.08L-242.81,-116.44C-236.86,-116.97 -201.75,-118.87 -189.82,-119.30L-191.48,-149.95L-210.42,-148.92L-212.11,-180.21C-207.17,-195.41 -195.37,-202.24 -179.20,-203.12C-159.20,-204.20 -150.58,-194.85 -149.40,-173.14L-148.28,-152.29L-168.92,-151.17L-167.26,-120.52C-158.33,-121.22 -135.13,-122.26 -113.84,-123.42L-115.50,-154.06L-134.87,-153.01L-136.71,-187.06C-138.97,-228.77 -151.80,-241.10 -180.11,-239.56C-196.07,-238.70 -210.46,-228.53 -213.84,-212.13L-215.10,-235.54L-249.15,-233.69L-247.26,-198.79C-243.44,-199.21 -235.36,-199.65 -227.06,-200.10L-224.25,-148.17ZM-4.49,-153.45L-16.37,-167.96C-21.51,-156.37 -31.47,-151.14 -49.13,-150.18C-73.60,-148.86 -84.45,-163.85 -85.21,-181.95C-85.99,-200.26 -73.16,-211.63 -52.52,-212.75C-34.85,-213.70 -26.68,-208.60 -21.58,-201.19L-9.24,-201.86L-11.76,-248.46L-24.10,-247.79L-23.21,-231.19C-29.56,-242.16 -40.29,-247.13 -55.40,-246.31C-80.94,-244.93 -100.22,-226.60 -97.82,-182.34C-95.61,-141.48 -75.86,-123.55 -48.83,-125.01C-25.85,-126.26 -10.82,-136.46 -4.49,-153.45ZM53.95,-130.58C69.27,-131.40 77.65,-138.26 81.97,-145.32L74.75,-168.20C70.94,-163.72 64.68,-161.04 56.17,-160.58C43.83,-159.91 38.74,-167.10 38.05,-179.87L31.42,-302.45L-3.91,-300.54L-1.89,-263.30L18.96,-264.42L24.46,-162.91C25.75,-139.08 35.22,-129.56 53.95,-130.58ZM187.05,-139.91L187.07,-139.70L220.05,-141.49L218.61,-172.14L198.39,-171.05L195.58,-222.97C203.45,-223.40 210.70,-223.58 214.96,-223.81L213.07,-258.71L158.59,-255.76L160.48,-220.86C163.03,-221.00 171.74,-221.68 181.75,-222.22L183.64,-187.32C179.17,-175.13 167.45,-167.02 151.27,-166.15C129.35,-164.96 122.28,-173.33 120.97,-197.59L119.82,-218.87C128.12,-219.32 135.79,-219.52 140.05,-219.75L138.16,-254.65L83.68,-251.71L85.57,-216.81C88.12,-216.94 96.62,-217.62 106.20,-218.14L108.04,-184.09C110.08,-146.42 125.88,-134.47 149.50,-135.75C167.80,-136.74 180.08,-146.58 184.98,-158.58ZM327.18,-177.16C325.91,-200.79 314.33,-209.55 283.74,-210.88C264.91,-211.78 258.53,-215.28 258.23,-220.81C257.81,-228.69 266.62,-235.35 282.58,-236.22C300.46,-237.19 307.32,-232.65 311.78,-225.21L321.78,-225.75L319.67,-264.69L309.67,-264.15L310.17,-255.00C301.91,-261.60 289.14,-264.96 277.43,-264.33C255.51,-263.14 240.67,-249.53 241.75,-229.53C243.11,-204.41 255.48,-196.76 283.29,-195.49C301.49,-194.55 309.35,-191.14 309.66,-185.39C310.06,-178.16 302.53,-171.35 283.38,-170.31C264.22,-169.27 260.20,-176.53 253.14,-184.68L243.57,-184.16L245.79,-143.09L255.37,-143.61L254.72,-155.53C262.19,-147.61 274.63,-142.52 288.68,-143.28C314.22,-144.66 328.22,-158.01 327.18,-177.16ZM386.59,-302.03C385.92,-314.38 378.85,-318.90 367.36,-318.28C354.59,-317.59 348.48,-312.14 349.14,-300.01C349.79,-287.88 356.91,-282.50 369.26,-283.17C380.32,-283.77 387.25,-289.90 386.59,-302.03ZM351.61,-179.34L353.27,-148.69C362.41,-149.40 371.13,-149.87 379.86,-150.35L387.31,-150.75C396.46,-151.25 405.62,-151.53 415.20,-152.05L413.54,-182.69L392.05,-181.53L387.59,-263.88L347.15,-261.70L349.04,-226.80L375.64,-228.23L378.21,-180.78ZM481.27,-153.70C509.79,-155.24 529.26,-174.01 527.05,-214.87C524.60,-260.20 503.86,-276.58 474.71,-275.00C445.77,-273.44 426.71,-254.90 429.16,-209.57C431.37,-168.72 452.97,-152.17 481.27,-153.70ZM479.81,-180.73C460.02,-179.66 443.02,-186.21 441.71,-210.25C440.91,-225.15 452.81,-237.96 476.64,-239.25C500.69,-240.55 513.68,-229.30 514.49,-214.19C515.78,-190.36 499.60,-181.80 479.81,-180.73ZM551.86,-190.18L553.52,-159.53C559.47,-160.07 594.58,-161.97 606.51,-162.40L604.85,-193.04L585.91,-192.02L584.22,-223.30C589.16,-238.51 600.96,-245.34 617.13,-246.21C637.13,-247.30 645.75,-237.94 646.93,-216.24L648.05,-195.38L627.41,-194.26L629.07,-163.62C638.00,-164.32 661.20,-165.36 682.48,-166.51L680.83,-197.16L661.46,-196.11L659.62,-230.16C657.36,-271.87 644.53,-284.19 616.22,-282.66C600.26,-281.80 585.87,-271.63 582.49,-255.22L581.23,-278.63L547.18,-276.79L549.07,-241.89C552.88,-242.31 560.97,-242.75 569.27,-243.20L572.08,-191.27Z" fill="#ffffff" stroke="#000000"/>
    <path d="M-666.90,-80.55L-668.89,-110.01L-695.19,-108.23L-688.47,-133.84L-639.65,-137.14L-628.49,-112.74L-652.69,-111.10L-650.69,-81.64L-587.36,-85.93L-589.35,-115.39L-611.24,-113.91L-650.40,-202.15L-635.46,-203.16L-637.73,-236.83L-688.87,-233.37L-724.02,-106.28L-745.27,-104.84L-743.28,-75.38ZM-669.73,-203.59L-646.14,-151.71L-684.64,-149.10ZM-399.51,-152.55C-403.87,-135.77 -421.84,-126.52 -445.83,-124.89C-480.13,-122.57 -497.78,-136.60 -499.43,-164.18C-501.08,-191.54 -484.27,-208.75 -452.50,-210.90C-429.56,-212.45 -414.30,-208.62 -406.30,-199.86L-394.10,-200.69L-397.65,-253.08L-409.85,-252.26L-408.43,-231.21C-417.80,-244.74 -435.66,-252.62 -455.23,-251.30C-491.85,-248.82 -516.60,-224.10 -512.65,-165.82C-509.15,-114.05 -482.85,-90.89 -446.66,-93.34C-411.31,-95.73 -391.39,-113.78 -386.45,-143.92ZM-318.72,-102.00C-290.53,-103.91 -271.51,-122.74 -274.24,-163.14C-277.28,-207.96 -298.01,-223.89 -326.84,-221.94C-355.46,-220.00 -374.07,-201.41 -371.03,-156.59C-368.30,-116.19 -346.71,-100.11 -318.72,-102.00ZM-320.53,-128.72C-340.10,-127.40 -357.01,-133.65 -358.62,-157.43C-359.62,-172.16 -348.01,-184.99 -324.45,-186.59C-300.67,-188.20 -287.67,-177.24 -286.66,-162.30C-285.06,-138.73 -300.96,-130.05 -320.53,-128.72ZM-249.36,-139.04L-247.31,-108.74C-241.43,-109.35 -206.71,-111.70 -194.91,-112.28L-196.96,-142.58L-215.69,-141.32L-217.79,-172.25C-213.10,-187.36 -201.52,-194.27 -185.53,-195.36C-165.75,-196.70 -157.10,-187.56 -155.64,-166.10L-154.25,-145.47L-174.66,-144.09L-172.61,-113.79C-163.79,-114.60 -140.84,-115.94 -119.79,-117.37L-121.84,-147.67L-140.99,-146.37L-143.27,-180.04C-146.06,-221.28 -158.93,-233.30 -186.91,-231.41C-202.69,-230.34 -216.80,-220.09 -219.92,-203.81L-221.49,-226.96L-255.15,-224.68L-252.82,-190.17C-249.05,-190.64 -241.05,-191.18 -232.84,-191.73L-229.37,-140.39ZM-11.99,-148.55L-23.94,-162.75C-28.87,-151.21 -38.65,-145.90 -56.12,-144.72C-80.31,-143.08 -91.24,-157.77 -92.24,-175.67C-93.26,-193.78 -80.71,-205.20 -60.30,-206.58C-42.84,-207.76 -34.68,-202.82 -29.54,-195.56L-17.34,-196.38L-20.46,-242.47L-32.66,-241.64L-31.55,-225.23C-37.99,-235.99 -48.67,-240.77 -63.61,-239.76C-88.86,-238.05 -107.69,-219.65 -104.73,-175.88C-102.00,-135.48 -82.21,-118.01 -55.49,-119.82C-32.76,-121.36 -18.03,-131.65 -11.99,-148.55ZM46.14,-126.70C61.29,-127.72 69.49,-134.62 73.67,-141.66L66.22,-164.20C62.51,-159.72 56.35,-156.98 47.94,-156.41C35.73,-155.59 30.61,-162.64 29.75,-175.26L21.55,-296.46L-13.38,-294.10L-10.89,-257.28L9.73,-258.67L16.53,-158.30C18.12,-134.73 27.63,-125.44 46.14,-126.70ZM177.72,-137.72L177.74,-137.51L210.35,-139.71L208.51,-170.03L188.52,-168.67L185.05,-220.02C192.83,-220.54 200.00,-220.82 204.21,-221.10L201.87,-255.61L148.01,-251.97L150.34,-217.46C152.87,-217.63 161.48,-218.42 171.37,-219.09L173.71,-184.58C169.45,-172.46 157.96,-164.28 141.97,-163.20C120.29,-161.73 113.19,-169.92 111.56,-193.90L110.14,-214.95C118.34,-215.50 125.93,-215.80 130.14,-216.09L127.81,-250.60L73.94,-246.95L76.28,-212.44C78.80,-212.61 87.20,-213.39 96.67,-214.04L98.95,-180.37C101.47,-143.12 117.27,-131.51 140.62,-133.09C158.72,-134.32 170.73,-144.22 175.42,-156.16ZM315.88,-176.45C314.30,-199.81 302.73,-208.32 272.44,-209.23C253.80,-209.87 247.44,-213.25 247.07,-218.72C246.54,-226.50 255.18,-233.22 270.96,-234.29C288.63,-235.48 295.49,-231.09 300.00,-223.78L309.89,-224.45L307.28,-262.96L297.39,-262.29L298.00,-253.24C289.75,-259.66 277.06,-262.81 265.49,-262.03C243.82,-260.56 229.31,-246.90 230.65,-227.12C232.33,-202.29 244.67,-194.88 272.21,-194.00C290.22,-193.31 298.05,-190.04 298.44,-184.36C298.92,-177.20 291.56,-170.36 272.63,-169.08C253.69,-167.80 249.61,-174.92 242.52,-182.90L233.05,-182.26L235.80,-141.65L245.27,-142.29L244.47,-154.07C251.97,-146.33 264.35,-141.47 278.24,-142.41C303.49,-144.11 317.16,-157.51 315.88,-176.45ZM372.99,-300.80C372.17,-313.01 365.11,-317.39 353.74,-316.62C341.12,-315.77 335.15,-310.29 335.96,-298.30C336.77,-286.30 343.89,-281.08 356.09,-281.90C367.04,-282.64 373.81,-288.81 372.99,-300.80ZM340.02,-178.93L342.07,-148.63C351.11,-149.45 359.74,-150.04 368.36,-150.62L375.73,-151.12C384.78,-151.73 393.84,-152.13 403.31,-152.77L401.26,-183.07L380.00,-181.64L374.49,-263.07L334.51,-260.36L336.85,-225.85L363.15,-227.63L366.33,-180.71ZM468.66,-155.29C496.86,-157.20 515.88,-176.04 513.14,-216.44C510.11,-261.25 489.37,-277.18 460.55,-275.23C431.93,-273.30 413.32,-254.70 416.35,-209.88C419.09,-169.48 440.68,-153.40 468.66,-155.29ZM466.86,-182.02C447.29,-180.69 430.38,-186.95 428.77,-210.72C427.77,-225.45 439.37,-238.29 462.94,-239.88C486.72,-241.49 499.72,-230.53 500.73,-215.60C502.32,-192.03 486.42,-183.34 466.86,-182.02ZM538.03,-192.33L540.08,-162.03C545.96,-162.64 580.68,-164.99 592.47,-165.58L590.42,-195.88L571.69,-194.61L569.60,-225.54C574.29,-240.66 585.87,-247.57 601.86,-248.65C621.64,-249.99 630.29,-240.85 631.74,-219.39L633.14,-198.77L612.73,-197.39L614.78,-167.09C623.60,-167.90 646.55,-169.24 667.59,-170.66L665.54,-200.96L646.39,-199.67L644.11,-233.33C641.32,-274.57 628.46,-286.60 600.47,-284.70C584.69,-283.64 570.59,-273.38 567.46,-257.10L565.90,-280.25L532.23,-277.97L534.57,-243.46C538.34,-243.93 546.34,-244.47 554.54,-245.03L558.02,-193.68Z" fill="#ffffff" stroke="#000000"/>
    <path d="M-666.29,-67.51L-668.65,-96.63L-694.65,-94.51L-688.34,-119.94L-640.09,-123.86L-628.72,-99.87L-652.64,-97.93L-650.27,-68.81L-587.66,-73.90L-590.03,-103.02L-611.66,-101.26L-651.59,-188.04L-636.82,-189.24L-639.52,-222.52L-690.07,-218.41L-723.15,-92.20L-744.15,-90.49L-741.79,-61.37ZM-670.73,-189.21L-646.70,-138.19L-684.76,-135.10ZM-402.70,-142.32C-406.79,-125.66 -424.45,-116.26 -448.16,-114.34C-482.07,-111.58 -499.71,-125.22 -501.72,-152.49C-503.71,-179.54 -487.32,-196.79 -455.91,-199.34C-433.24,-201.18 -418.08,-197.60 -410.06,-189.04L-397.99,-190.02L-402.20,-241.81L-414.27,-240.83L-412.58,-220.03C-422.03,-233.29 -439.81,-240.85 -459.15,-239.27C-495.35,-236.33 -519.50,-211.55 -514.82,-153.93C-510.66,-102.77 -484.33,-80.20 -448.56,-83.11C-413.61,-85.95 -394.15,-104.07 -389.67,-133.96ZM-322.10,-93.39C-294.22,-95.65 -275.66,-114.54 -278.91,-154.47C-282.51,-198.78 -303.24,-214.26 -331.73,-211.94C-360.02,-209.65 -378.18,-191.00 -374.58,-146.70C-371.34,-106.76 -349.76,-91.14 -322.10,-93.39ZM-324.24,-119.80C-343.59,-118.23 -360.40,-124.19 -362.31,-147.70C-363.49,-162.25 -352.19,-175.11 -328.89,-177.00C-305.39,-178.91 -292.38,-168.24 -291.18,-153.48C-289.28,-130.18 -304.90,-121.37 -324.24,-119.80ZM-253.96,-130.96L-251.53,-101.01C-245.72,-101.69 -211.40,-104.48 -199.74,-105.22L-202.17,-135.17L-220.68,-133.66L-223.17,-164.24C-218.74,-179.25 -207.37,-186.25 -191.56,-187.53C-172.01,-189.12 -163.33,-180.20 -161.61,-158.98L-159.95,-138.60L-180.13,-136.96L-177.69,-107.01C-168.97,-107.93 -146.28,-109.56 -125.48,-111.25L-127.92,-141.20L-146.85,-139.66L-149.55,-172.94C-152.86,-213.71 -165.75,-225.43 -193.41,-223.19C-209.01,-221.92 -222.83,-211.58 -225.71,-195.44L-227.56,-218.32L-260.84,-215.61L-258.07,-181.50C-254.34,-182.01 -246.44,-182.66 -238.33,-183.31L-234.20,-132.56ZM-19.24,-143.55L-31.25,-157.43C-35.97,-145.95 -45.59,-140.57 -62.85,-139.16C-86.77,-137.22 -97.78,-151.61 -99.01,-169.30C-100.25,-187.21 -87.99,-198.67 -67.82,-200.31C-50.56,-201.72 -42.42,-196.93 -37.24,-189.82L-25.17,-190.80L-28.87,-236.35L-40.94,-235.37L-39.62,-219.15C-46.13,-229.71 -56.76,-234.29 -71.53,-233.09C-96.49,-231.06 -114.88,-212.61 -111.36,-169.35C-108.12,-129.41 -88.31,-112.39 -61.89,-114.54C-39.43,-116.36 -24.99,-126.75 -19.24,-143.55ZM38.57,-122.70C53.54,-123.92 61.56,-130.85 65.60,-137.88L57.93,-160.08C54.32,-155.60 48.26,-152.80 39.94,-152.12C27.88,-151.14 22.71,-158.05 21.70,-170.53L11.96,-290.34L-22.57,-287.53L-19.61,-251.13L0.78,-252.79L8.84,-153.57C10.73,-130.28 20.26,-121.21 38.57,-122.70ZM168.60,-135.36L168.62,-135.16L200.86,-137.78L198.63,-167.74L178.87,-166.14L174.75,-216.89C182.44,-217.51 189.53,-217.88 193.69,-218.22L190.92,-252.33L137.67,-248.00L140.45,-213.89C142.94,-214.09 151.45,-214.99 161.23,-215.79L164.00,-181.68C159.96,-169.62 148.69,-161.38 132.88,-160.10C111.46,-158.36 104.32,-166.36 102.39,-190.07L100.70,-210.87C108.81,-211.53 116.32,-211.93 120.48,-212.27L117.71,-246.38L64.46,-242.05L67.23,-207.94C69.73,-208.14 78.03,-209.03 87.39,-209.79L90.09,-176.51C93.09,-139.69 108.87,-128.41 131.96,-130.29C149.84,-131.74 161.60,-141.70 166.07,-153.58ZM304.78,-175.53C302.90,-198.62 291.34,-206.89 261.36,-207.39C242.90,-207.77 236.57,-211.03 236.13,-216.43C235.50,-224.13 243.96,-230.89 259.56,-232.16C277.03,-233.58 283.87,-229.32 288.43,-222.15L298.20,-222.94L295.11,-261.01L285.33,-260.21L286.06,-251.27C277.81,-257.51 265.21,-260.46 253.77,-259.53C232.35,-257.79 218.18,-244.08 219.77,-224.53C221.76,-199.98 234.07,-192.82 261.33,-192.31C279.16,-191.88 286.95,-188.74 287.41,-183.12C287.98,-176.05 280.80,-169.19 262.08,-167.67C243.36,-166.14 239.23,-173.14 232.11,-180.93L222.75,-180.17L226.01,-140.03L235.37,-140.79L234.42,-152.44C241.94,-144.88 254.26,-140.23 267.98,-141.35C292.94,-143.38 306.30,-156.81 304.78,-175.53ZM359.62,-299.33C358.64,-311.39 351.59,-315.64 340.36,-314.72C327.88,-313.71 322.05,-308.21 323.01,-296.36C323.98,-284.50 331.09,-279.42 343.15,-280.41C353.97,-281.28 360.58,-287.47 359.62,-299.33ZM328.63,-178.31L331.06,-148.36C339.99,-149.29 348.52,-149.99 357.04,-150.68L364.32,-151.27C373.27,-152.00 382.23,-152.52 391.59,-153.28L389.15,-183.23L368.15,-181.52L361.60,-262.01L322.09,-258.80L324.86,-224.69L350.86,-226.81L354.63,-180.42ZM456.22,-156.65C484.09,-158.91 502.65,-177.80 499.41,-217.73C495.81,-262.04 475.08,-277.52 446.58,-275.20C418.30,-272.90 400.13,-254.26 403.73,-209.96C406.98,-170.02 428.56,-154.40 456.22,-156.65ZM454.07,-183.06C434.73,-181.49 417.91,-187.45 416.00,-210.95C414.82,-225.51 426.13,-238.37 449.42,-240.26C472.93,-242.17 485.94,-231.50 487.14,-216.74C489.03,-193.44 473.42,-184.63 454.07,-183.06ZM524.35,-194.22L526.78,-164.27C532.59,-164.95 566.91,-167.74 578.58,-168.48L576.14,-198.43L557.63,-196.92L555.14,-227.50C559.58,-242.51 570.94,-249.51 586.75,-250.79C606.30,-252.38 614.98,-243.46 616.71,-222.24L618.36,-201.86L598.19,-200.22L600.62,-170.27C609.34,-171.18 632.03,-172.82 652.83,-174.51L650.40,-204.46L631.47,-202.92L628.76,-236.20C625.45,-276.97 612.56,-288.69 584.90,-286.44C569.30,-285.18 555.48,-274.84 552.61,-258.70L550.75,-281.58L517.47,-278.87L520.24,-244.76C523.97,-245.27 531.87,-245.91 539.99,-246.57L544.11,-195.82Z" fill="#ffffff" stroke="#000000"/>
    <path d="M-665.33,-54.57L-668.06,-83.34L-693.75,-80.90L-687.85,-106.14L-640.17,-110.67L-628.60,-87.09L-652.24,-84.84L-649.51,-56.07L-587.64,-61.94L-590.37,-90.72L-611.75,-88.69L-652.40,-174.01L-637.81,-175.39L-640.93,-208.28L-690.88,-203.54L-721.91,-78.23L-742.67,-76.26L-739.94,-47.49ZM-671.36,-174.90L-646.90,-124.76L-684.51,-121.19ZM-405.57,-132.10C-409.40,-115.56 -426.74,-106.04 -450.17,-103.81C-483.68,-100.63 -501.32,-113.89 -503.67,-140.84C-506.00,-167.58 -490.01,-184.85 -458.97,-187.80C-436.57,-189.93 -421.53,-186.58 -413.48,-178.22L-401.56,-179.35L-406.41,-230.53L-418.33,-229.40L-416.38,-208.85C-425.91,-221.84 -443.60,-229.08 -462.72,-227.26C-498.48,-223.87 -522.05,-199.03 -516.65,-142.09C-511.85,-91.53 -485.50,-69.56 -450.15,-72.91C-415.62,-76.19 -396.60,-94.38 -392.57,-124.00ZM-325.18,-84.77C-297.64,-87.39 -279.53,-106.32 -283.27,-145.78C-287.42,-189.56 -308.14,-204.60 -336.30,-201.93C-364.25,-199.28 -381.97,-180.59 -377.82,-136.81C-374.07,-97.35 -352.52,-82.18 -325.18,-84.77ZM-327.66,-110.88C-346.77,-109.06 -363.49,-114.74 -365.69,-137.96C-367.06,-152.35 -356.04,-165.21 -333.02,-167.40C-309.80,-169.60 -296.78,-159.22 -295.40,-144.63C-293.21,-121.61 -308.54,-112.69 -327.66,-110.88ZM-258.28,-122.85L-255.47,-93.26C-249.74,-94.01 -215.82,-97.23 -204.29,-98.11L-207.10,-127.71L-225.40,-125.97L-228.26,-156.19C-224.08,-171.10 -212.93,-178.17 -197.31,-179.66C-177.99,-181.49 -169.28,-172.78 -167.29,-151.81L-165.38,-131.67L-185.32,-129.78L-182.51,-100.18C-173.89,-101.20 -151.47,-103.12 -130.92,-105.08L-133.73,-134.67L-152.43,-132.90L-155.55,-165.78C-159.37,-206.07 -172.28,-217.49 -199.62,-214.90C-215.03,-213.44 -228.56,-203.03 -231.19,-187.02L-233.33,-209.63L-266.22,-206.51L-263.02,-172.80C-259.34,-173.35 -251.53,-174.10 -243.51,-174.86L-238.76,-124.71ZM-26.24,-138.44L-38.32,-152.02C-42.83,-140.60 -52.27,-135.14 -69.33,-133.53C-92.96,-131.28 -104.05,-145.37 -105.50,-162.86C-106.97,-180.56 -95.00,-192.06 -75.06,-193.95C-58.00,-195.57 -49.89,-190.95 -44.67,-183.98L-32.75,-185.11L-37.02,-230.12L-48.94,-228.99L-47.42,-212.96C-54.00,-223.33 -64.58,-227.72 -79.17,-226.33C-103.84,-223.99 -121.78,-205.49 -117.72,-162.74C-113.98,-123.27 -94.16,-106.70 -68.05,-109.17C-45.86,-111.28 -31.71,-121.75 -26.24,-138.44ZM31.22,-118.60C46.02,-120.00 53.86,-126.97 57.76,-133.97L49.88,-155.83C46.36,-151.35 40.41,-148.50 32.19,-147.72C20.27,-146.59 15.06,-153.35 13.89,-165.69L2.66,-284.08L-31.46,-280.84L-28.05,-244.87L-7.90,-246.78L1.40,-148.74C3.58,-125.72 13.13,-116.88 31.22,-118.60ZM159.69,-132.86L159.71,-132.66L191.57,-135.68L188.97,-165.30L169.44,-163.44L164.68,-213.59C172.29,-214.31 179.29,-214.77 183.40,-215.16L180.21,-248.87L127.59,-243.88L130.79,-210.17C133.25,-210.40 141.66,-211.41 151.32,-212.33L154.52,-178.62C150.68,-166.64 139.65,-158.33 124.03,-156.85C102.86,-154.84 95.68,-162.66 93.46,-186.10L91.51,-206.65C99.53,-207.41 106.94,-207.91 111.06,-208.30L107.86,-242.00L55.24,-237.01L58.44,-203.30C60.90,-203.54 69.11,-204.52 78.36,-205.40L81.48,-172.52C84.93,-136.14 100.69,-125.19 123.51,-127.35C141.18,-129.03 152.68,-139.04 156.95,-150.85ZM293.87,-174.42C291.70,-197.24 280.16,-205.26 250.49,-205.35C232.23,-205.49 225.92,-208.62 225.41,-213.96C224.69,-221.57 232.96,-228.37 248.38,-229.83C265.64,-231.47 272.46,-227.35 277.07,-220.32L286.73,-221.24L283.16,-258.85L273.50,-257.93L274.34,-249.09C266.09,-255.15 253.59,-257.91 242.29,-256.84C221.12,-254.83 207.28,-241.07 209.12,-221.75C211.42,-197.50 223.69,-190.57 250.66,-190.44C268.31,-190.25 276.06,-187.25 276.59,-181.70C277.25,-174.71 270.23,-167.82 251.73,-166.07C233.23,-164.31 229.06,-171.17 221.90,-178.79L212.66,-177.91L216.42,-138.24L225.67,-139.12L224.58,-150.63C232.12,-143.26 244.36,-138.82 257.93,-140.11C282.59,-142.45 295.62,-155.92 293.87,-174.42ZM346.47,-297.62C345.34,-309.54 338.31,-313.65 327.21,-312.59C314.88,-311.42 309.18,-305.91 310.29,-294.19C311.40,-282.47 318.51,-277.55 330.43,-278.68C341.12,-279.69 347.58,-285.91 346.47,-297.62ZM317.43,-177.49L320.24,-147.89C329.05,-148.93 337.48,-149.73 345.91,-150.53L353.10,-151.22C361.94,-152.05 370.80,-152.69 380.05,-153.56L377.24,-183.16L356.48,-181.19L348.93,-260.73L309.88,-257.03L313.08,-223.32L338.77,-225.76L343.12,-179.92ZM443.94,-157.76C471.48,-160.38 489.59,-179.31 485.85,-218.77C481.69,-262.55 460.98,-277.59 432.82,-274.92C404.87,-272.26 387.15,-253.58 391.30,-209.80C395.05,-170.33 416.60,-155.17 443.94,-157.76ZM441.46,-183.86C422.35,-182.05 405.63,-187.72 403.43,-210.95C402.06,-225.34 413.08,-238.20 436.10,-240.39C459.32,-242.59 472.34,-232.21 473.72,-217.62C475.91,-194.60 460.58,-185.68 441.46,-183.86ZM510.84,-195.84L513.65,-166.24C519.38,-166.99 553.29,-170.21 564.82,-171.10L562.02,-200.70L543.72,-198.96L540.86,-229.17C545.04,-244.09 556.19,-251.16 571.81,-252.64C591.13,-254.48 599.84,-245.76 601.83,-224.80L603.74,-204.66L583.80,-202.76L586.61,-173.17C595.22,-174.19 617.65,-176.11 638.20,-178.06L635.39,-207.66L616.69,-205.89L613.57,-238.77C609.74,-279.06 596.84,-290.48 569.50,-287.89C554.09,-286.43 540.56,-276.02 537.93,-260.01L535.78,-282.61L502.90,-279.49L506.10,-245.79C509.78,-246.34 517.59,-247.08 525.60,-247.84L530.36,-197.69Z" fill="#ffffff" stroke="#000000"/>
    <path d="M-664.04,-41.74L-667.12,-70.17L-692.50,-67.41L-687.01,-92.46L-639.90,-97.57L-628.14,-74.40L-651.49,-71.86L-648.40,-43.44L-587.29,-50.07L-590.37,-78.50L-611.49,-76.21L-652.84,-160.06L-638.43,-161.62L-641.96,-194.11L-691.30,-188.75L-720.32,-64.39L-740.83,-62.17L-737.74,-33.74ZM-671.61,-160.69L-646.74,-111.41L-683.90,-107.38ZM-408.13,-121.91C-411.69,-105.50 -428.72,-95.84 -451.87,-93.33C-484.97,-89.74 -502.60,-102.61 -505.28,-129.23C-507.94,-155.65 -492.36,-172.96 -461.70,-176.29C-439.57,-178.69 -424.64,-175.58 -416.57,-167.42L-404.79,-168.70L-410.28,-219.26L-422.05,-217.98L-419.85,-197.68C-429.45,-210.40 -447.05,-217.32 -465.93,-215.27C-501.26,-211.44 -524.24,-186.55 -518.13,-130.30C-512.71,-80.36 -486.35,-58.97 -451.43,-62.77C-417.32,-66.47 -398.75,-84.71 -395.16,-114.07ZM-327.98,-76.17C-300.77,-79.12 -283.11,-98.09 -287.34,-137.07C-292.03,-180.32 -312.72,-194.92 -340.54,-191.90C-368.16,-188.91 -385.43,-170.18 -380.74,-126.94C-376.51,-87.95 -354.98,-73.24 -327.98,-76.17ZM-330.78,-101.95C-349.66,-99.90 -366.27,-105.29 -368.76,-128.24C-370.30,-142.45 -359.58,-155.32 -336.84,-157.79C-313.89,-160.28 -300.88,-150.19 -299.32,-135.77C-296.85,-113.03 -311.89,-104.00 -330.78,-101.95ZM-262.31,-114.73L-259.14,-85.49C-253.48,-86.31 -219.97,-89.95 -208.58,-90.98L-211.75,-120.22L-229.83,-118.25L-233.07,-148.10C-229.13,-162.91 -218.19,-170.06 -202.76,-171.73C-183.67,-173.80 -174.94,-165.30 -172.70,-144.59L-170.54,-124.69L-190.23,-122.55L-187.06,-93.31C-178.55,-94.44 -156.40,-96.64 -136.09,-98.85L-139.27,-128.08L-157.74,-126.08L-161.27,-158.57C-165.59,-198.36 -178.51,-209.49 -205.51,-206.56C-220.74,-204.91 -233.99,-194.43 -236.37,-178.56L-238.80,-200.89L-271.28,-197.37L-267.67,-164.07C-264.04,-164.67 -256.32,-165.51 -248.40,-166.36L-243.02,-116.82ZM-33.00,-133.25L-45.12,-146.52C-49.44,-135.17 -58.70,-129.64 -75.55,-127.81C-98.90,-125.28 -110.05,-139.06 -111.72,-156.34C-113.42,-173.83 -101.73,-185.37 -82.03,-187.51C-65.18,-189.34 -57.09,-184.87 -51.83,-178.05L-40.06,-179.33L-44.88,-223.79L-56.66,-222.52L-54.94,-206.68C-61.59,-216.84 -72.11,-221.04 -86.53,-219.48C-110.89,-216.83 -128.40,-198.29 -123.81,-156.06C-119.58,-117.07 -99.75,-100.94 -73.97,-103.74C-52.04,-106.12 -38.18,-116.66 -33.00,-133.25ZM24.11,-114.39C38.73,-115.97 46.39,-122.97 50.15,-129.95L42.06,-151.47C38.65,-146.99 32.80,-144.09 24.68,-143.21C12.90,-141.93 7.66,-148.55 6.34,-160.74L-6.36,-277.69L-40.06,-274.03L-36.21,-238.50L-16.31,-240.66L-5.79,-143.81C-3.33,-121.07 6.24,-112.45 24.11,-114.39ZM150.99,-130.22L151.02,-130.01L182.49,-133.43L179.52,-162.69L160.23,-160.60L154.85,-210.14C162.36,-210.96 169.29,-211.50 173.35,-211.94L169.73,-245.24L117.75,-239.60L121.37,-206.30C123.81,-206.56 132.11,-207.67 141.65,-208.71L145.27,-175.41C141.63,-163.51 130.83,-155.14 115.39,-153.47C94.48,-151.20 87.28,-158.84 84.77,-181.99L82.56,-202.29C90.48,-203.15 97.82,-203.74 101.88,-204.18L98.26,-237.48L46.28,-231.84L49.90,-198.54C52.33,-198.81 60.43,-199.89 69.57,-200.88L73.10,-168.39C77.00,-132.46 92.74,-121.84 115.27,-124.28C132.74,-126.18 143.97,-136.23 148.04,-147.97ZM283.16,-173.12C280.71,-195.66 269.18,-203.45 239.84,-203.14C221.77,-203.02 215.49,-206.04 214.92,-211.32C214.10,-218.83 222.19,-225.67 237.42,-227.32C254.48,-229.17 261.28,-225.19 265.93,-218.29L275.47,-219.33L271.44,-256.49L261.90,-255.45L262.84,-246.72C254.60,-252.61 242.20,-255.16 231.04,-253.95C210.12,-251.68 196.62,-237.89 198.70,-218.80C201.30,-194.84 213.53,-188.16 240.21,-188.38C257.67,-188.43 265.37,-185.57 265.97,-180.09C266.72,-173.18 259.87,-166.28 241.59,-164.29C223.32,-162.31 219.09,-169.04 211.92,-176.48L202.78,-175.49L207.03,-136.30L216.17,-137.29L214.94,-148.66C222.50,-141.47 234.67,-137.24 248.07,-138.70C272.43,-141.34 285.14,-154.84 283.16,-173.12ZM333.54,-295.69C332.26,-307.47 325.26,-311.43 314.29,-310.24C302.11,-308.92 296.55,-303.38 297.80,-291.81C299.06,-280.24 306.15,-275.46 317.93,-276.74C328.49,-277.88 334.80,-284.12 333.54,-295.69ZM306.42,-176.47L309.60,-147.23C318.30,-148.38 326.63,-149.28 334.95,-150.19L342.06,-150.96C350.79,-151.90 359.55,-152.65 368.68,-153.64L365.51,-182.88L345.00,-180.65L336.47,-259.23L297.89,-255.05L301.51,-221.75L326.89,-224.50L331.80,-179.22ZM431.83,-158.65C459.03,-161.60 476.70,-180.57 472.46,-219.55C467.77,-262.80 447.08,-277.40 419.26,-274.38C391.65,-271.39 374.37,-252.66 379.06,-209.42C383.30,-170.43 404.82,-155.72 431.83,-158.65ZM429.03,-184.43C410.14,-182.38 393.53,-187.77 391.04,-210.72C389.50,-224.93 400.22,-237.80 422.96,-240.27C445.91,-242.76 458.92,-232.67 460.48,-218.25C462.95,-195.51 447.91,-186.48 429.03,-184.43ZM497.49,-197.21L500.66,-167.97C506.33,-168.79 539.83,-172.43 551.22,-173.46L548.05,-202.70L529.98,-200.73L526.74,-230.58C530.68,-245.39 541.61,-252.54 557.04,-254.21C576.13,-256.28 584.86,-247.78 587.11,-227.07L589.27,-207.17L569.57,-205.03L572.74,-175.79C581.25,-176.92 603.40,-179.12 623.71,-181.33L620.54,-210.56L602.06,-208.56L598.53,-241.05C594.21,-280.84 581.29,-291.97 554.29,-289.04C539.06,-287.39 525.82,-276.91 523.43,-261.04L521.01,-283.37L488.52,-279.85L492.13,-246.55C495.77,-247.15 503.48,-247.99 511.40,-248.84L516.78,-199.30Z" fill="#ffffff" stroke="#000000"/>
    <path d="M-662.41,-29.03L-665.84,-57.11L-690.90,-54.04L-685.80,-78.89L-639.28,-84.57L-627.34,-61.81L-650.40,-58.99L-646.97,-30.92L-586.61,-38.30L-590.04,-66.37L-610.89,-63.82L-652.92,-146.20L-638.68,-147.94L-642.60,-180.03L-691.33,-174.07L-718.38,-50.68L-738.63,-48.21L-735.20,-20.13ZM-671.48,-146.58L-646.23,-98.17L-682.93,-93.69ZM-410.38,-111.74C-413.68,-95.46 -430.39,-85.69 -453.25,-82.89C-485.94,-78.90 -503.55,-91.40 -506.56,-117.69C-509.54,-143.78 -494.36,-161.11 -464.08,-164.81C-442.23,-167.48 -427.42,-164.61 -419.33,-156.64L-407.70,-158.07L-413.80,-208.00L-425.43,-206.58L-422.98,-186.52C-432.64,-198.98 -450.14,-205.59 -468.79,-203.31C-503.68,-199.05 -526.08,-174.12 -519.29,-118.58C-513.25,-69.25 -486.90,-48.45 -452.41,-52.67C-418.72,-56.79 -400.61,-75.08 -397.44,-104.17ZM-330.49,-67.58C-303.62,-70.86 -286.40,-89.86 -291.11,-128.36C-296.33,-171.07 -316.99,-185.23 -344.46,-181.88C-371.73,-178.54 -388.57,-159.79 -383.35,-117.08C-378.65,-78.58 -357.16,-64.31 -330.49,-67.58ZM-333.60,-93.04C-352.25,-90.76 -368.75,-95.87 -371.52,-118.53C-373.24,-132.57 -362.80,-145.44 -340.34,-148.19C-317.68,-150.96 -304.68,-141.15 -302.94,-126.91C-300.19,-104.45 -314.95,-95.32 -333.60,-93.04ZM-266.06,-106.59L-262.53,-77.71C-256.94,-78.60 -223.85,-82.65 -212.60,-83.82L-216.13,-112.69L-233.98,-110.51L-237.58,-139.99C-233.88,-154.69 -223.16,-161.90 -207.92,-163.77C-189.07,-166.07 -180.33,-157.78 -177.82,-137.32L-175.42,-117.67L-194.87,-115.29L-191.34,-86.42C-182.95,-87.65 -161.06,-90.12 -141.01,-92.57L-144.54,-121.45L-162.79,-119.22L-166.71,-151.30C-171.52,-190.60 -184.44,-201.44 -211.11,-198.18C-226.15,-196.34 -239.11,-185.80 -241.26,-170.07L-243.95,-192.13L-276.04,-188.21L-272.02,-155.32C-268.43,-155.96 -260.81,-156.89 -252.99,-157.85L-247.01,-108.92ZM-39.51,-127.98L-51.68,-140.94C-55.79,-129.65 -64.88,-124.06 -81.52,-122.03C-104.58,-119.21 -115.79,-132.69 -117.68,-149.76C-119.59,-167.03 -108.18,-178.60 -88.73,-180.98C-72.08,-183.02 -64.03,-178.71 -58.73,-172.03L-47.10,-173.45L-52.47,-217.37L-64.10,-215.95L-62.19,-200.31C-68.90,-210.27 -79.37,-214.28 -93.60,-212.54C-117.67,-209.60 -134.73,-191.03 -129.63,-149.32C-124.92,-110.82 -105.10,-95.13 -79.63,-98.24C-57.97,-100.89 -44.41,-111.50 -39.51,-127.98ZM17.22,-110.08C31.66,-111.85 39.15,-118.87 42.78,-125.83L34.49,-147.00C31.17,-142.52 25.42,-139.58 17.40,-138.60C5.77,-137.18 0.50,-143.66 -0.97,-155.69L-15.09,-271.19L-48.38,-267.12L-44.09,-232.03L-24.44,-234.43L-12.74,-138.78C-10.00,-116.32 -0.42,-107.93 17.22,-110.08ZM142.51,-127.43L142.53,-127.23L173.62,-131.03L170.29,-159.93L151.24,-157.61L145.25,-206.53C152.67,-207.44 159.52,-208.07 163.53,-208.56L159.51,-241.45L108.17,-235.18L112.19,-202.29C114.60,-202.58 122.80,-203.79 132.22,-204.94L136.24,-172.05C132.80,-160.24 122.23,-151.82 106.99,-149.96C86.33,-147.43 79.11,-154.89 76.32,-177.75L73.87,-197.81C81.69,-198.76 88.93,-199.45 92.94,-199.94L88.92,-232.82L37.59,-226.55L41.61,-193.66C44.01,-193.95 52.01,-195.13 61.03,-196.24L64.96,-164.15C69.29,-128.66 85.00,-118.37 107.26,-121.09C124.51,-123.20 135.48,-133.29 139.35,-144.96ZM272.65,-171.63C269.93,-193.89 258.43,-201.44 229.41,-200.74C211.54,-200.39 205.28,-203.29 204.65,-208.50C203.74,-215.92 211.65,-222.79 226.69,-224.63C243.53,-226.69 250.32,-222.84 255.01,-216.08L264.43,-217.24L259.95,-253.93L250.52,-252.78L251.58,-244.16C243.35,-249.87 231.05,-252.23 220.02,-250.88C199.37,-248.36 186.20,-234.54 188.50,-215.69C191.40,-192.03 203.58,-185.58 229.97,-186.16C247.23,-186.44 254.89,-183.71 255.56,-178.30C256.39,-171.48 249.71,-164.56 231.66,-162.35C213.61,-160.14 209.34,-166.74 202.15,-174.01L193.12,-172.90L197.86,-134.20L206.88,-135.30L205.51,-146.53C213.08,-139.52 225.17,-135.51 238.41,-137.12C262.47,-140.06 274.86,-153.59 272.65,-171.63ZM320.84,-293.53C319.42,-305.17 312.44,-308.99 301.61,-307.67C289.58,-306.20 284.15,-300.65 285.55,-289.22C286.95,-277.79 294.03,-273.16 305.66,-274.58C316.08,-275.86 322.24,-282.10 320.84,-293.53ZM295.62,-175.26L299.15,-146.38C307.74,-147.63 315.97,-148.64 324.19,-149.65L331.21,-150.50C339.83,-151.56 348.48,-152.41 357.50,-153.51L353.97,-182.39L333.72,-179.91L324.23,-257.52L286.13,-252.86L290.15,-219.97L315.21,-223.04L320.68,-178.32ZM419.88,-159.31C446.75,-162.59 463.97,-181.59 459.26,-220.09C454.04,-262.80 433.38,-276.97 405.91,-273.61C378.64,-270.28 361.80,-251.53 367.02,-208.82C371.73,-170.31 393.21,-156.05 419.88,-159.31ZM416.77,-184.78C398.12,-182.50 381.62,-187.60 378.85,-210.26C377.14,-224.30 387.57,-237.18 410.03,-239.92C432.69,-242.69 445.69,-232.88 447.43,-218.65C450.18,-196.19 435.42,-187.06 416.77,-184.78ZM484.31,-198.32L487.84,-169.45C493.43,-170.34 526.52,-174.38 537.77,-175.55L534.24,-204.43L516.40,-202.25L512.79,-231.72C516.49,-246.42 527.21,-253.64 542.45,-255.50C561.30,-257.80 570.05,-249.51 572.55,-229.06L574.95,-209.41L555.50,-207.03L559.03,-178.15C567.43,-179.38 589.31,-181.85 609.36,-184.30L605.83,-213.18L587.58,-210.95L583.66,-243.03C578.86,-282.34 565.93,-293.17 539.26,-289.91C524.22,-288.07 511.26,-277.53 509.12,-261.80L506.42,-283.86L474.33,-279.94L478.35,-247.05C481.94,-247.69 489.56,-248.63 497.38,-249.58L503.36,-200.65Z" fill="#ffffff" stroke="#000000"/>
    <path d="M-660.44,-16.45L-664.21,-44.17L-688.96,-40.81L-684.24,-65.44L-638.31,-71.69L-626.20,-49.34L-648.97,-46.24L-645.20,-18.53L-585.61,-26.63L-589.38,-54.35L-609.97,-51.55L-652.63,-132.45L-638.57,-134.36L-642.88,-166.04L-690.99,-159.50L-716.08,-37.12L-736.08,-34.40L-732.31,-6.68ZM-670.99,-132.57L-645.37,-85.04L-681.60,-80.12ZM-412.31,-101.62C-415.36,-85.47 -431.76,-75.58 -454.33,-72.51C-486.60,-68.12 -504.18,-80.25 -507.51,-106.21C-510.81,-131.98 -496.03,-149.31 -466.13,-153.38C-444.55,-156.31 -429.88,-153.67 -421.76,-145.90L-410.28,-147.46L-416.98,-196.76L-428.47,-195.20L-425.77,-175.40C-435.50,-187.59 -452.89,-193.89 -471.30,-191.39C-505.75,-186.70 -527.56,-161.76 -520.10,-106.92C-513.48,-58.22 -487.14,-38.01 -453.09,-42.64C-419.83,-47.16 -402.16,-65.49 -399.42,-94.30ZM-332.72,-59.01C-306.19,-62.61 -289.42,-81.63 -294.59,-119.64C-300.32,-161.81 -320.94,-175.54 -348.06,-171.85C-374.99,-168.19 -391.39,-149.43 -385.66,-107.26C-380.49,-69.25 -359.05,-55.42 -332.72,-59.01ZM-336.14,-84.15C-354.55,-81.64 -370.93,-86.47 -373.98,-108.85C-375.86,-122.70 -365.71,-135.58 -343.54,-138.59C-321.17,-141.64 -308.18,-132.11 -306.27,-118.05C-303.25,-95.88 -317.73,-86.65 -336.14,-84.15ZM-269.52,-98.45L-265.65,-69.94C-260.13,-70.89 -227.46,-75.34 -216.35,-76.65L-220.23,-105.15L-237.85,-102.76L-241.81,-131.86C-238.35,-146.45 -227.84,-153.72 -212.80,-155.77C-194.19,-158.30 -185.42,-150.22 -182.68,-130.02L-180.04,-110.62L-199.24,-108.01L-195.37,-79.50C-187.08,-80.83 -165.47,-83.56 -145.67,-86.26L-149.55,-114.77L-167.57,-112.32L-171.87,-143.99C-177.15,-182.80 -190.08,-193.34 -216.41,-189.76C-231.26,-187.74 -243.93,-177.14 -245.84,-161.56L-248.81,-183.33L-280.48,-179.03L-276.07,-146.56C-272.53,-147.24 -265.01,-148.26 -257.29,-149.31L-250.72,-101.01ZM-45.77,-122.63L-57.97,-135.29C-61.89,-124.07 -70.80,-118.42 -87.23,-116.18C-110.00,-113.09 -121.27,-126.27 -123.36,-143.13C-125.48,-160.18 -114.35,-171.78 -95.15,-174.39C-78.72,-176.62 -70.69,-172.47 -65.37,-165.94L-53.89,-167.50L-59.78,-210.86L-71.26,-209.29L-69.16,-193.85C-75.94,-203.62 -86.34,-207.45 -100.39,-205.53C-124.15,-202.30 -140.78,-183.71 -135.18,-142.53C-130.01,-104.52 -110.19,-89.27 -85.05,-92.69C-63.67,-95.59 -50.40,-106.27 -45.77,-122.63ZM10.58,-105.69C24.83,-107.63 32.14,-114.67 35.63,-121.60L27.16,-142.43C23.93,-137.95 18.29,-134.97 10.37,-133.89C-1.11,-132.33 -6.41,-138.67 -8.03,-150.55L-23.53,-264.58L-56.40,-260.11L-51.69,-225.47L-32.28,-228.10L-19.44,-133.67C-16.43,-111.50 -6.85,-103.32 10.58,-105.69ZM134.24,-124.52L134.27,-124.33L164.95,-128.50L161.27,-157.04L142.47,-154.48L135.90,-202.78C143.22,-203.78 149.98,-204.50 153.94,-205.04L149.53,-237.51L98.84,-230.61L103.26,-198.14C105.63,-198.47 113.72,-199.77 123.03,-201.03L127.44,-168.57C124.20,-156.83 113.86,-148.37 98.81,-146.32C78.42,-143.55 71.18,-150.83 68.11,-173.40L65.42,-193.20C73.14,-194.25 80.29,-195.02 84.25,-195.56L79.84,-228.03L29.15,-221.14L33.57,-188.67C35.95,-188.99 43.84,-190.27 52.75,-191.48L57.05,-159.80C61.82,-124.76 77.49,-114.79 99.47,-117.78C116.49,-120.10 127.21,-130.22 130.88,-141.81ZM262.35,-169.97C259.36,-191.95 247.88,-199.26 219.20,-198.18C201.53,-197.60 195.31,-200.38 194.60,-205.53C193.61,-212.85 201.34,-219.75 216.19,-221.77C232.82,-224.03 239.58,-220.31 244.31,-213.70L253.61,-214.96L248.68,-251.19L239.38,-249.93L240.54,-241.41C232.32,-246.95 220.13,-249.12 209.24,-247.64C188.85,-244.87 176.01,-231.03 178.55,-212.42C181.72,-189.05 193.86,-182.84 219.95,-183.77C237.02,-184.27 244.63,-181.68 245.36,-176.33C246.27,-169.60 239.75,-162.67 221.94,-160.24C204.12,-157.82 199.81,-164.29 192.59,-171.38L183.69,-170.17L188.88,-131.96L197.79,-133.17L196.28,-144.25C203.87,-137.42 215.88,-133.61 228.94,-135.39C252.70,-138.62 264.77,-152.16 262.35,-169.97ZM308.38,-291.17C306.82,-302.65 299.86,-306.34 289.17,-304.89C277.29,-303.27 272.00,-297.71 273.53,-286.43C275.07,-275.15 282.13,-270.66 293.61,-272.22C303.91,-273.62 309.91,-279.88 308.38,-291.17ZM285.01,-173.86L288.89,-145.35C297.37,-146.71 305.49,-147.81 313.61,-148.92L320.54,-149.86C329.05,-151.02 337.59,-151.98 346.50,-153.19L342.62,-181.70L322.63,-178.98L312.21,-255.60L274.59,-250.48L279.01,-218.01L303.75,-221.38L309.76,-177.23ZM408.11,-159.75C434.64,-163.36 451.42,-182.38 446.25,-220.39C440.51,-262.56 419.89,-276.29 392.77,-272.60C365.84,-268.94 349.44,-250.17 355.18,-208.00C360.35,-169.99 381.78,-156.17 408.11,-159.75ZM404.70,-184.90C386.28,-182.39 369.90,-187.22 366.86,-209.59C364.97,-223.45 375.12,-236.33 397.29,-239.34C419.66,-242.38 432.65,-232.86 434.56,-218.80C437.58,-196.63 423.11,-187.40 404.70,-184.90ZM471.31,-199.20L475.18,-170.69C480.70,-171.64 513.37,-176.08 524.48,-177.39L520.60,-205.90L502.98,-203.51L499.03,-232.61C502.49,-247.19 512.99,-254.47 528.04,-256.52C546.65,-259.05 555.41,-250.96 558.16,-230.77L560.79,-211.37L541.59,-208.76L545.47,-180.25C553.76,-181.58 575.36,-184.31 595.16,-187.00L591.28,-215.51L573.27,-213.06L568.96,-244.74C563.68,-283.54 550.75,-294.09 524.42,-290.50C509.58,-288.49 496.90,-277.89 494.99,-262.31L492.03,-284.08L460.35,-279.78L464.77,-247.31C468.30,-247.99 475.83,-249.01 483.55,-250.06L490.12,-201.76Z" fill="#ffffff" stroke="#000000"/>
    <path d="M-910.72,482.04L-910.72,492L-908.52,492L-908.52,488.92C-906.69,491.01 -903.46,492.38 -899.93,492.38C-893.09,492.38 -889.52,489.72 -889.52,484.89C-889.48,480.45 -892.33,477.45 -900.19,476.80C-906.05,476.31 -907.11,475.09 -907.11,473.38C-907.11,471.44 -905.63,469.54 -900.50,469.54C-896.09,469.54 -894.23,471.10 -892.86,472.24L-890.66,472.24L-890.66,463.88L-892.86,463.88L-892.86,466.73C-894.34,464.72 -897.15,463.12 -900.57,463.12C-906.88,463.12 -910.49,466.65 -910.49,471.21C-910.49,476.04 -908.40,478.78 -900.42,479.38C-895.25,479.76 -893.13,481.25 -893.13,483.11C-893.13,485.20 -895.14,486.79 -900.31,486.79C-904.37,486.79 -907.41,484.67 -908.52,482.04ZM-867.89,492C-866.37,492 -865.31,491.47 -864.63,490.59L-864.63,485.88C-865.50,486.98 -866.45,487.33 -867.63,487.33C-868.54,487.33 -869.34,486.87 -869.64,486.00L-869.64,479.99C-869.64,472.96 -871.96,470.72 -877.13,470.72C-879.98,470.72 -882.37,471.59 -883.82,473.30L-883.66,478.21C-882.64,476.99 -880.74,475.96 -877.51,475.96C-873.94,475.96 -872.26,477.45 -872.07,481.02C-873.67,479.92 -876.33,479.57 -878.12,479.57C-882.64,479.57 -885.72,482.12 -885.72,486.11C-885.72,489.80 -883.13,492.38 -877.74,492.38C-875.27,492.38 -872.87,491.35 -871.58,489.95C-870.82,491.28 -869.53,492 -867.89,492ZM-877.70,487.63C-881.23,487.63 -882.75,486.68 -882.75,485.01C-882.75,483.26 -881.16,482.27 -877.43,482.27C-875.30,482.27 -873.59,482.84 -872.04,484.02L-872.04,485.96C-873.25,487.10 -875.34,487.63 -877.70,487.63ZM-851.63,492L-846.42,477.33L-843.46,477.33L-843.46,471.10L-853.11,471.10L-853.11,477.33L-850.98,477.33L-854.25,487.25L-857.90,477.33L-855.70,477.33L-855.70,471.10L-863.60,471.10L-863.60,477.33L-860.56,477.33L-855.24,492ZM-823.36,492C-821.84,492 -820.77,491.47 -820.09,490.59L-820.09,485.88C-820.96,486.98 -821.91,487.33 -823.09,487.33C-824.00,487.33 -824.80,486.87 -825.11,486.00L-825.11,479.99C-825.11,472.96 -827.42,470.72 -832.59,470.72C-835.44,470.72 -837.84,471.59 -839.28,473.30L-839.13,478.21C-838.10,476.99 -836.20,475.96 -832.97,475.96C-829.40,475.96 -827.73,477.45 -827.54,481.02C-829.13,479.92 -831.79,479.57 -833.58,479.57C-838.10,479.57 -841.18,482.12 -841.18,486.11C-841.18,489.80 -838.60,492.38 -833.20,492.38C-830.73,492.38 -828.34,491.35 -827.04,489.95C-826.28,491.28 -824.99,492 -823.36,492ZM-833.16,487.63C-836.70,487.63 -838.22,486.68 -838.22,485.01C-838.22,483.26 -836.62,482.27 -832.90,482.27C-830.77,482.27 -829.06,482.84 -827.50,484.02L-827.50,485.96C-828.72,487.10 -830.81,487.63 -833.16,487.63ZM-805.16,489.95L-806.18,486.11C-806.79,486.79 -808.08,487.33 -809.68,487.29C-811.54,487.25 -812.83,486.30 -812.83,483.56L-812.83,477.41L-807.13,477.41L-807.13,471.48L-812.83,471.48L-812.83,466.54L-815.30,466.54L-815.30,471.48L-818.30,471.48L-818.30,477.41L-815.30,477.41L-815.30,486.19C-815.30,490.78 -813.14,492.38 -810.17,492.38C-808.01,492.38 -805.84,491.47 -805.16,489.95ZM-785.74,487.21L-787.52,485.50C-788.63,487.02 -790.22,487.82 -793.57,487.78C-797.06,487.74 -799.30,486.53 -799.80,483.18L-785.13,483.18C-785.13,473.80 -788.40,470.72 -793.57,470.72C-798.13,470.72 -802.12,473.76 -802.12,481.85C-802.12,488.01 -799.19,492.38 -793.49,492.38C-789.80,492.38 -786.99,490.10 -785.74,487.21ZM-793.76,476.50C-789.88,476.50 -787.49,478.40 -787.49,480.71L-799.80,480.71C-799.27,477.83 -796.61,476.50 -793.76,476.50ZM-772.21,482.27L-772.21,479.46L-782.47,479.46L-782.47,482.27ZM-768.98,482.04L-768.98,492L-766.78,492L-766.78,488.92C-764.95,491.01 -761.72,492.38 -758.19,492.38C-751.35,492.38 -747.78,489.72 -747.78,484.89C-747.74,480.45 -750.59,477.45 -758.45,476.80C-764.31,476.31 -765.37,475.09 -765.37,473.38C-765.37,471.44 -763.89,469.54 -758.76,469.54C-754.35,469.54 -752.49,471.10 -751.12,472.24L-748.92,472.24L-748.92,463.88L-751.12,463.88L-751.12,466.73C-752.60,464.72 -755.41,463.12 -758.83,463.12C-765.14,463.12 -768.75,466.65 -768.75,471.21C-768.75,476.04 -766.66,478.78 -758.68,479.38C-753.51,479.76 -751.39,481.25 -751.39,483.11C-751.39,485.20 -753.40,486.79 -758.57,486.79C-762.63,486.79 -765.67,484.67 -766.78,482.04ZM-727.60,487.21L-729.38,485.50C-730.49,487.02 -732.08,487.82 -735.43,487.78C-738.92,487.74 -741.16,486.53 -741.66,483.18L-726.99,483.18C-726.99,473.80 -730.26,470.72 -735.43,470.72C-739.99,470.72 -743.98,473.76 -743.98,481.85C-743.98,488.01 -741.05,492.38 -735.35,492.38C-731.66,492.38 -728.85,490.10 -727.60,487.21ZM-735.62,476.50C-731.74,476.50 -729.35,478.40 -729.35,480.71L-741.66,480.71C-741.13,477.83 -738.47,476.50 -735.62,476.50ZM-723.38,486.60L-723.38,492.08C-722.32,492.04 -716.05,492.04 -713.92,492.08L-713.92,486.60L-717.34,486.60L-717.34,481.17C-717.34,478.51 -715.97,477.03 -714.11,477.03C-712.40,477.03 -711.49,477.45 -711.03,478.43L-709.59,472.13C-710.57,471.29 -711.45,470.72 -713.27,470.72C-714.83,470.72 -716.73,471.78 -717.60,474.06L-718.90,471.10L-723.38,471.10L-723.38,477.33C-722.47,477.33 -721.40,477.29 -719.85,477.33L-719.85,486.60ZM-699.33,465.06C-699.33,462.85 -700.54,461.98 -702.59,461.98C-704.87,461.98 -706.01,462.89 -706.01,465.06C-706.01,467.22 -704.80,468.25 -702.59,468.25C-700.62,468.25 -699.33,467.22 -699.33,465.06ZM-706.74,486.57L-706.74,492.04C-705.10,492 -703.54,492 -701.99,492L-700.66,492C-699.02,492 -697.39,492.04 -695.68,492.04L-695.68,486.57L-699.52,486.57L-699.52,471.86L-706.74,471.86L-706.74,478.09L-701.99,478.09L-701.99,486.57ZM-682.23,492L-682.23,486.53L-686.79,486.53L-686.79,478.09L-682.11,478.09L-682.11,471.86L-686.75,471.86C-687.13,469.09 -685.15,467.53 -683.02,467.53C-681.96,467.53 -681.12,467.76 -680.67,468.10L-680.36,463.20C-681.24,462.51 -682.30,461.98 -683.75,461.98C-687.36,461.98 -690.05,464.94 -689.29,471.86L-692.26,471.86L-692.26,478.09L-689.26,478.09L-689.26,486.53L-692.22,486.53L-692.22,492Z"/>
</svg>