<?xml version="1.0"?>
<svg xmlns="http://www.w3.org/2000/svg" width="1920" height="1080" viewBox="-960 -540 1920 1080">
    <path d="M-327.21,-147L-324.00,-197.56L-305.50,-197.56L-299.09,-147L-278.37,-147L-308.46,-327.05L-332.88,-327.05L-322.27,-302.14L-349.40,-147ZM-318.08,-287.59L-315.37,-287.59L-310.68,-238.26L-306.24,-202.49L-323.51,-202.49ZM-194.25,-305.34C-194.25,-298.44 -195.98,-288.82 -213.25,-251.82L-194.50,-251.82C-190.06,-276.73 -189.57,-294.00 -189.57,-306.58C-189.57,-321.87 -195.73,-329.52 -208.56,-329.52C-222.87,-329.52 -234.95,-320.39 -234.95,-296.22L-234.95,-173.39C-234.95,-152.18 -227.55,-144.53 -213.49,-144.53C-198.69,-144.53 -191.54,-162.29 -192.04,-185.72L-192.77,-215.57L-196.23,-215.57L-196.97,-186.46C-197.46,-170.68 -199.93,-161.31 -206.34,-161.31C-211.27,-161.31 -216.45,-164.02 -216.45,-181.78L-216.45,-298.68C-216.45,-307.32 -214.97,-312.74 -208.56,-312.74C-198.20,-312.74 -194.25,-310.77 -194.25,-305.34ZM-151.58,-144.53C-137.03,-144.53 -124.70,-153.66 -124.70,-177.83L-124.70,-268.59C-124.70,-289.81 -132.84,-297.45 -148.62,-297.45C-163.17,-297.45 -175.50,-288.33 -175.50,-264.15L-175.50,-173.39C-175.50,-152.18 -167.12,-144.53 -151.58,-144.53ZM-151.58,-280.68C-146.65,-280.68 -141.96,-277.97 -141.96,-260.21L-141.96,-175.36C-141.96,-166.73 -143.19,-161.31 -148.62,-161.31C-153.80,-161.31 -158.24,-164.02 -158.24,-181.78L-158.24,-266.62C-158.24,-275.25 -157.01,-280.68 -151.58,-280.68ZM-90.16,-294.99L-107.42,-294.99L-107.42,-147L-90.16,-147L-90.16,-240.72C-90.16,-263.66 -84.98,-280.68 -78.07,-280.68C-73.39,-280.68 -72.15,-276.73 -72.15,-267.85L-72.15,-147L-54.89,-147L-54.89,-277.47C-54.89,-289.81 -61.55,-297.45 -70.67,-297.45C-80.05,-297.45 -88.43,-291.29 -93.61,-254.29L-96.08,-254.78L-90.16,-292.27ZM1.85,-274.02C1.85,-267.61 -2.35,-258.24 -17.15,-229.38L1.60,-229.38C5.79,-251.33 6.53,-267.85 6.53,-274.27C6.53,-289.81 0.37,-297.45 -12.46,-297.45C-26.03,-297.45 -37.62,-288.33 -37.62,-263.91L-37.62,-173.39C-37.62,-152.18 -30.71,-144.53 -17.39,-144.53C-2.59,-144.53 4.56,-162.29 4.06,-185.72L3.33,-215.57L-0.13,-215.57L-0.87,-186.46C-1.36,-170.68 -3.83,-161.31 -9.50,-161.31C-15.17,-161.31 -20.35,-164.02 -20.35,-181.78L-20.35,-266.37C-20.35,-275.25 -18.87,-280.68 -11.47,-280.68C-2.10,-280.68 1.85,-278.71 1.85,-274.02ZM39.83,-327.05L22.57,-327.05L22.57,-147L39.83,-147ZM92.37,-147L109.64,-147L109.64,-294.99L92.37,-294.99L92.37,-201.26C92.37,-178.32 87.19,-161.31 80.29,-161.31C75.60,-161.31 74.37,-165.25 74.37,-174.13L74.37,-294.99L57.10,-294.99L57.10,-164.51C57.10,-152.18 63.76,-144.53 72.89,-144.53C82.26,-144.53 90.65,-150.70 95.83,-187.70L98.29,-187.20L92.37,-149.71ZM172.78,-174.87C172.78,-196.33 139.98,-248.86 139.98,-269.83C139.98,-276.24 141.95,-280.68 150.09,-280.68C160.45,-280.68 164.40,-278.95 164.40,-274.51C164.40,-269.58 161.19,-262.43 150.09,-240.48L166.37,-240.48C168.59,-253.55 169.08,-264.89 169.08,-274.76C169.08,-290.05 162.92,-297.45 150.09,-297.45C135.29,-297.45 122.72,-288.82 122.72,-266.87C122.72,-240.23 155.52,-197.07 155.52,-172.65C155.52,-166.24 153.55,-161.31 145.41,-161.31C133.32,-161.31 128.64,-163.28 128.64,-167.72C128.64,-172.90 131.84,-180.79 144.42,-204.96L126.66,-204.96C124.94,-194.11 123.95,-180.05 123.95,-167.47C123.95,-152.18 130.86,-144.53 145.41,-144.53C160.21,-144.53 172.78,-153.66 172.78,-174.87ZM181.18,-314.47L207.32,-314.47L207.32,-327.05L181.18,-327.05ZM202.88,-294.99L185.62,-294.99L185.62,-147L202.88,-147ZM244.07,-144.53C258.63,-144.53 270.96,-153.66 270.96,-177.83L270.96,-268.59C270.96,-289.81 262.82,-297.45 247.03,-297.45C232.48,-297.45 220.15,-288.33 220.15,-264.15L220.15,-173.39C220.15,-152.18 228.53,-144.53 244.07,-144.53ZM244.07,-280.68C249.01,-280.68 253.69,-277.97 253.69,-260.21L253.69,-175.36C253.69,-166.73 252.46,-161.31 247.03,-161.31C241.85,-161.31 237.41,-164.02 237.41,-181.78L237.41,-266.62C237.41,-275.25 238.65,-280.68 244.07,-280.68ZM305.49,-294.99L288.23,-294.99L288.23,-147L305.49,-147L305.49,-240.72C305.49,-263.66 310.67,-280.68 317.58,-280.68C322.27,-280.68 323.50,-276.73 323.50,-267.85L323.50,-147L340.76,-147L340.76,-277.47C340.76,-289.81 334.10,-297.45 324.98,-297.45C315.61,-297.45 307.22,-291.29 302.04,-254.29L299.57,-254.78L305.49,-292.27Z" fill="#ffffff" stroke="#000000"/>
    <path d="M-336.70,-125.60L-336.07,-175.75L-317.78,-176.68L-308.90,-127.01L-288.41,-128.06L-327.23,-304.56L-351.37,-303.33L-339.63,-279.23L-358.65,-124.48ZM-334.75,-265.06L-332.07,-265.19L-324.95,-216.66L-318.76,-181.52L-335.83,-180.65ZM-213.22,-288.85C-212.87,-282.02 -214.10,-272.42 -229.30,-234.98L-210.77,-235.92C-207.63,-260.77 -208.02,-277.87 -208.65,-290.30C-209.42,-305.42 -215.90,-312.67 -228.58,-312.03C-242.73,-311.31 -254.21,-301.68 -253.00,-277.78L-246.81,-156.34C-245.74,-135.36 -238.04,-128.18 -224.14,-128.88C-209.51,-129.63 -203.33,-147.55 -205.00,-170.69L-207.24,-200.16L-210.65,-199.99L-209.92,-171.17C-209.61,-155.54 -211.58,-146.15 -217.92,-145.83C-222.79,-145.58 -228.05,-148.00 -228.95,-165.56L-234.83,-281.15C-235.27,-289.68 -234.08,-295.12 -227.74,-295.44C-217.49,-295.97 -213.49,-294.21 -213.22,-288.85ZM-162.93,-132.00C-148.54,-132.73 -136.81,-142.38 -138.03,-166.28L-142.60,-256.02C-143.66,-276.99 -152.10,-284.14 -167.70,-283.34C-182.09,-282.61 -193.82,-272.97 -192.61,-249.07L-188.04,-159.33C-186.97,-138.36 -178.29,-131.22 -162.93,-132.00ZM-169.78,-266.61C-164.91,-266.86 -160.14,-264.41 -159.24,-246.86L-154.97,-162.97C-154.54,-154.43 -155.48,-149.01 -160.85,-148.73C-165.97,-148.47 -170.49,-150.93 -171.39,-168.49L-175.66,-252.38C-176.10,-260.91 -175.15,-266.34 -169.78,-266.61ZM-109.78,-283.85L-126.85,-282.98L-119.40,-136.66L-102.33,-137.53L-107.05,-230.20C-108.20,-252.88 -103.94,-269.97 -97.11,-270.31C-92.47,-270.55 -91.06,-266.71 -90.61,-257.93L-84.52,-138.44L-67.45,-139.31L-74.02,-268.31C-74.64,-280.50 -81.61,-287.73 -90.64,-287.27C-99.90,-286.80 -107.88,-280.28 -111.14,-243.44L-113.61,-243.80L-109.64,-281.17ZM-17.76,-267.75C-17.43,-261.41 -21.11,-251.94 -34.28,-222.66L-15.75,-223.60C-12.71,-245.52 -12.81,-261.89 -13.13,-268.23C-13.92,-283.60 -20.40,-290.85 -33.08,-290.20C-46.49,-289.52 -57.49,-279.91 -56.26,-255.77L-51.71,-166.27C-50.64,-145.30 -43.42,-138.09 -30.26,-138.76C-15.62,-139.50 -9.45,-157.42 -11.11,-180.56L-13.35,-210.03L-16.76,-209.86L-16.03,-181.05C-15.72,-165.42 -17.69,-156.02 -23.30,-155.74C-28.91,-155.45 -34.16,-157.87 -35.06,-175.43L-39.32,-259.08C-39.76,-267.86 -38.57,-273.29 -31.26,-273.67C-21.99,-274.14 -17.99,-272.39 -17.76,-267.75ZM17.13,-322.10L0.06,-321.23L9.13,-143.21L26.20,-144.08ZM78.15,-146.72L95.22,-147.59L87.77,-293.91L70.69,-293.04L75.41,-200.37C76.57,-177.69 72.31,-160.61 65.48,-160.26C60.84,-160.02 59.43,-163.86 58.98,-172.64L52.89,-292.13L35.82,-291.26L42.39,-162.26C43.01,-150.07 49.98,-142.85 59.01,-143.31C68.27,-143.78 76.25,-150.30 79.51,-187.14L81.97,-186.77L78.01,-149.41ZM156.25,-178.33C155.17,-199.55 120.09,-249.84 119.03,-270.56C118.71,-276.90 120.44,-281.39 128.49,-281.80C138.73,-282.32 142.72,-280.82 142.94,-276.43C143.19,-271.55 140.38,-264.32 130.51,-242.05L146.60,-242.87C148.14,-255.91 148.06,-267.15 147.56,-276.91C146.79,-292.03 140.32,-299.03 127.64,-298.39C113.01,-297.64 101.01,-288.47 102.11,-266.77C103.45,-240.43 138.06,-199.41 139.29,-175.27C139.61,-168.93 137.91,-163.95 129.86,-163.54C117.91,-162.93 113.18,-164.65 112.96,-169.04C112.70,-174.16 115.47,-182.12 126.69,-206.65L109.13,-205.76C107.97,-194.94 107.70,-180.99 108.34,-168.56C109.11,-153.44 116.32,-146.22 130.71,-146.96C145.34,-147.70 157.32,-157.36 156.25,-178.33ZM157.52,-316.78L183.36,-318.09L182.73,-330.53L156.88,-329.21ZM179.96,-298.61L162.89,-297.74L170.34,-151.42L187.41,-152.29ZM228.26,-151.93C242.65,-152.66 254.38,-162.30 253.16,-186.20L248.59,-275.94C247.53,-296.91 239.09,-304.06 223.49,-303.27C209.10,-302.53 197.37,-292.89 198.58,-268.99L203.15,-179.25C204.22,-158.28 212.90,-151.14 228.26,-151.93ZM221.40,-286.54C226.28,-286.78 231.05,-284.34 231.95,-266.78L236.22,-182.89C236.65,-174.36 235.71,-168.93 230.34,-168.66C225.22,-168.40 220.70,-170.85 219.80,-188.41L215.53,-272.30C215.09,-280.84 216.04,-286.26 221.40,-286.54ZM281.41,-303.77L264.34,-302.90L271.79,-156.59L288.86,-157.46L284.14,-250.12C282.99,-272.80 287.25,-289.89 294.08,-290.24C298.72,-290.47 300.13,-286.63 300.58,-277.85L306.67,-158.36L323.74,-159.23L317.17,-288.23C316.55,-300.43 309.58,-307.65 300.55,-307.19C291.29,-306.72 283.31,-300.20 280.05,-263.36L277.58,-263.73L281.55,-301.09Z" fill="#ffffff" stroke="#000000"/>
    <path d="M-344.74,-103.69L-346.65,-153.31L-328.61,-155.15L-317.33,-106.49L-297.13,-108.55L-344.39,-281.09L-368.20,-278.66L-355.38,-255.43L-366.38,-101.48ZM-349.84,-241.66L-347.20,-241.93L-337.72,-194.31L-329.83,-159.88L-346.66,-158.16ZM-230.89,-271.30C-230.20,-264.57 -230.93,-255.02 -244.07,-217.23L-225.80,-219.10C-223.95,-243.83 -225.19,-260.71 -226.44,-272.97C-227.96,-287.88 -234.74,-294.72 -247.24,-293.44C-261.19,-292.02 -272.06,-281.92 -269.65,-258.35L-257.43,-138.61C-255.31,-117.93 -247.34,-111.21 -233.63,-112.61C-219.21,-114.08 -214.00,-132.11 -216.81,-154.90L-220.51,-183.92L-223.87,-183.58L-221.70,-155.13C-220.61,-139.69 -222.08,-130.31 -228.33,-129.67C-233.14,-129.18 -238.46,-131.31 -240.23,-148.62L-251.87,-262.60C-252.73,-271.02 -251.82,-276.45 -245.57,-277.09C-235.47,-278.12 -231.43,-276.59 -230.89,-271.30ZM-173.27,-118.77C-159.08,-120.22 -147.97,-130.35 -150.38,-153.91L-159.41,-242.40C-161.53,-263.08 -170.22,-269.72 -185.61,-268.15C-199.80,-266.70 -210.91,-256.58 -208.51,-233.01L-199.47,-144.53C-197.36,-123.85 -188.42,-117.23 -173.27,-118.77ZM-186.83,-251.51C-182.02,-252.00 -177.18,-249.82 -175.41,-232.51L-166.96,-149.79C-166.10,-141.37 -166.77,-135.96 -172.06,-135.42C-177.11,-134.90 -181.70,-137.11 -183.47,-154.42L-191.92,-237.14C-192.78,-245.55 -192.12,-250.97 -186.83,-251.51ZM-128.37,-271.57L-145.20,-269.85L-130.47,-125.57L-113.64,-127.29L-122.97,-218.67C-125.25,-241.03 -121.90,-258.14 -115.16,-258.83C-110.60,-259.29 -109.00,-255.57 -108.12,-246.91L-96.08,-129.09L-79.25,-130.81L-92.24,-258.01C-93.47,-270.03 -100.72,-276.82 -109.62,-275.91C-118.76,-274.98 -126.32,-268.13 -127.69,-231.55L-130.14,-231.78L-128.10,-268.92ZM-36.59,-260.29C-35.95,-254.04 -39.10,-244.48 -50.66,-214.88L-32.38,-216.74C-30.48,-238.56 -31.40,-254.75 -32.04,-261.00C-33.59,-276.15 -40.36,-282.99 -52.87,-281.71C-66.09,-280.36 -76.48,-270.31 -74.05,-246.50L-65.04,-158.25C-62.93,-137.57 -55.43,-130.81 -42.45,-132.13C-28.02,-133.61 -22.82,-151.63 -25.63,-174.43L-29.32,-203.45L-32.69,-203.10L-30.51,-174.66C-29.42,-159.22 -30.89,-149.84 -36.42,-149.27C-41.95,-148.71 -47.27,-150.84 -49.04,-168.15L-57.47,-250.63C-58.35,-259.28 -57.45,-264.72 -50.23,-265.46C-41.10,-266.39 -37.05,-264.86 -36.59,-260.29ZM-4.83,-315.77L-21.66,-314.05L-3.73,-138.52L13.10,-140.24ZM64.32,-145.47L81.15,-147.19L66.42,-291.46L49.58,-289.74L58.92,-198.37C61.20,-176.01 57.84,-158.90 51.11,-158.21C46.54,-157.74 44.95,-161.47 44.06,-170.13L32.03,-287.95L15.20,-286.23L28.19,-159.03C29.42,-147.01 36.67,-140.21 45.57,-141.12C54.71,-142.06 62.27,-148.90 63.63,-185.49L66.09,-185.25L64.05,-148.11ZM139.94,-180.65C137.80,-201.57 100.59,-249.52 98.50,-269.96C97.87,-276.21 99.35,-280.73 107.28,-281.54C117.38,-282.57 121.40,-281.28 121.84,-276.96C122.33,-272.15 119.92,-264.85 111.29,-242.35L127.16,-243.97C128.02,-256.93 127.37,-268.04 126.39,-277.66C124.87,-292.57 118.12,-299.17 105.61,-297.89C91.19,-296.42 79.78,-286.75 81.97,-265.35C84.62,-239.38 120.90,-200.57 123.33,-176.76C123.97,-170.51 122.53,-165.50 114.60,-164.69C102.82,-163.49 98.05,-164.95 97.61,-169.28C97.09,-174.33 99.43,-182.34 109.29,-207.16L91.98,-205.39C91.38,-194.64 91.81,-180.83 93.07,-168.57C94.59,-153.66 102.08,-146.89 116.27,-148.34C130.70,-149.82 142.05,-159.97 139.94,-180.65ZM134.22,-317.58L159.71,-320.18L158.46,-332.45L132.97,-329.84ZM157.32,-300.75L140.49,-299.03L155.22,-154.75L172.06,-156.47ZM212.46,-158.17C226.65,-159.62 237.76,-169.74 235.36,-193.31L226.32,-281.79C224.21,-302.47 215.51,-309.12 200.12,-307.55C185.94,-306.10 174.82,-295.97 177.23,-272.41L186.26,-183.92C188.38,-163.24 197.31,-156.62 212.46,-158.17ZM198.91,-290.90C203.72,-291.39 208.55,-289.21 210.32,-271.90L218.77,-189.18C219.63,-180.77 218.97,-175.35 213.68,-174.81C208.63,-174.30 204.03,-176.50 202.26,-193.81L193.81,-276.53C192.95,-284.95 193.62,-290.36 198.91,-290.90ZM257.36,-310.96L240.53,-309.24L255.27,-164.97L272.10,-166.69L262.77,-258.06C260.48,-280.42 263.84,-297.53 270.57,-298.22C275.14,-298.68 276.73,-294.96 277.62,-286.30L289.65,-168.48L306.48,-170.20L293.49,-297.40C292.26,-309.42 285.01,-316.21 276.11,-315.31C266.98,-314.37 259.41,-307.53 258.05,-270.94L255.60,-271.18L257.63,-308.32Z" fill="#ffffff" stroke="#000000"/>
    <path d="M-351.31,-81.38L-355.69,-130.33L-337.96,-133.06L-324.35,-85.53L-304.49,-88.59L-359.90,-256.77L-383.31,-253.16L-369.46,-230.85L-372.59,-78.11ZM-363.30,-217.51L-360.70,-217.91L-348.93,-171.31L-339.40,-137.68L-355.95,-135.13ZM-247.20,-252.80C-246.19,-246.18 -246.42,-236.70 -257.52,-198.69L-239.55,-201.45C-238.96,-225.99 -241.04,-242.62 -242.89,-254.68C-245.15,-269.34 -252.19,-275.76 -264.48,-273.87C-278.20,-271.76 -288.44,-261.22 -284.87,-238.05L-266.76,-120.29C-263.63,-99.96 -255.41,-93.72 -241.93,-95.79C-227.74,-97.98 -223.50,-116.06 -227.43,-138.45L-232.54,-166.95L-235.85,-166.44L-232.27,-138.43C-230.41,-123.22 -231.40,-113.87 -237.54,-112.93C-242.27,-112.20 -247.64,-114.04 -250.26,-131.06L-267.50,-243.14C-268.78,-251.42 -268.16,-256.84 -262.01,-257.79C-252.08,-259.31 -248.00,-258.00 -247.20,-252.80ZM-182.57,-104.92C-168.62,-107.07 -158.14,-117.64 -161.71,-140.81L-175.10,-227.83C-178.23,-248.17 -187.16,-254.30 -202.29,-251.97C-216.24,-249.82 -226.72,-239.25 -223.15,-216.08L-209.76,-129.06C-206.64,-108.73 -197.47,-102.63 -182.57,-104.92ZM-202.65,-235.45C-197.92,-236.18 -193.03,-234.27 -190.41,-217.24L-177.90,-135.90C-176.62,-127.63 -177.01,-122.24 -182.21,-121.44C-187.17,-120.68 -191.83,-122.62 -194.45,-139.65L-206.96,-220.99C-208.24,-229.27 -207.86,-234.65 -202.65,-235.45ZM-145.88,-258.23L-162.43,-255.68L-140.60,-113.80L-124.05,-116.35L-137.87,-206.20C-141.26,-228.20 -138.80,-245.27 -132.18,-246.29C-127.69,-246.98 -125.92,-243.38 -124.61,-234.87L-106.79,-119.01L-90.24,-121.55L-109.48,-246.64C-111.30,-258.46 -118.81,-264.81 -127.56,-263.46C-136.55,-262.08 -143.68,-254.93 -143.19,-218.70L-145.62,-218.81L-145.48,-255.62ZM-54.58,-251.70C-53.63,-245.55 -56.27,-235.95 -66.20,-206.10L-48.23,-208.86C-47.45,-230.53 -49.18,-246.48 -50.12,-252.63C-52.42,-267.52 -59.45,-273.94 -71.75,-272.05C-84.76,-270.05 -94.52,-259.59 -90.92,-236.18L-77.57,-149.40C-74.44,-129.07 -66.69,-122.75 -53.92,-124.72C-39.74,-126.90 -35.50,-144.98 -39.43,-167.37L-44.54,-195.87L-47.85,-195.37L-44.27,-167.35C-42.41,-152.15 -43.39,-142.80 -48.83,-141.96C-54.27,-141.12 -59.64,-142.96 -62.25,-159.99L-74.73,-241.09C-76.04,-249.61 -75.42,-255.03 -68.33,-256.12C-59.35,-257.50 -55.27,-256.19 -54.58,-251.70ZM-25.98,-308.14L-42.53,-305.59L-15.97,-132.98L0.58,-135.52ZM50.95,-143.27L67.50,-145.82L45.67,-287.70L29.12,-285.15L42.94,-195.29C46.33,-173.30 43.87,-156.22 37.25,-155.21C32.76,-154.51 30.99,-158.12 29.68,-166.63L11.86,-282.49L-4.70,-279.95L14.55,-154.86C16.37,-143.04 23.88,-136.69 32.63,-138.03C41.62,-139.42 48.75,-146.57 48.25,-182.80L50.69,-182.69L50.55,-145.87ZM123.93,-181.85C120.76,-202.43 81.57,-247.95 78.47,-268.05C77.53,-274.20 78.76,-278.75 86.57,-279.95C96.50,-281.48 100.54,-280.40 101.19,-276.15C101.92,-271.42 99.90,-264.09 92.50,-241.41L108.10,-243.81C108.30,-256.67 107.10,-267.62 105.65,-277.08C103.39,-291.74 96.39,-297.92 84.09,-296.03C69.91,-293.85 59.12,-283.71 62.36,-262.67C66.29,-237.13 104.10,-200.59 107.70,-177.18C108.65,-171.03 107.49,-166.01 99.68,-164.81C88.10,-163.03 83.31,-164.23 82.66,-168.49C81.89,-173.45 83.80,-181.49 92.30,-206.52L75.27,-203.90C75.22,-193.24 76.35,-179.62 78.20,-167.56C80.46,-152.90 88.20,-146.59 102.16,-148.73C116.34,-150.91 127.06,-161.52 123.93,-181.85ZM111.38,-316.93L136.45,-320.79L134.59,-332.84L109.53,-328.99ZM135.06,-301.45L118.51,-298.90L140.34,-157.03L156.89,-159.57ZM196.75,-163.29C210.70,-165.43 221.18,-176.00 217.61,-199.17L204.22,-286.19C201.10,-306.53 192.16,-312.66 177.03,-310.33C163.08,-308.18 152.60,-297.61 156.17,-274.44L169.56,-187.42C172.68,-167.09 181.85,-160.99 196.75,-163.29ZM176.67,-293.81C181.40,-294.54 186.29,-292.63 188.91,-275.60L201.42,-194.26C202.70,-185.99 202.32,-180.60 197.11,-179.80C192.15,-179.04 187.49,-180.98 184.87,-198.01L172.36,-279.35C171.08,-287.63 171.47,-293.01 176.67,-293.81ZM233.44,-316.59L216.89,-314.04L238.72,-172.16L255.27,-174.71L241.45,-264.56C238.06,-286.56 240.52,-303.64 247.14,-304.65C251.63,-305.35 253.40,-301.74 254.71,-293.23L272.53,-177.37L289.08,-179.91L269.84,-305.00C268.02,-316.82 260.51,-323.17 251.76,-321.82C242.77,-320.44 235.64,-313.29 236.13,-277.06L233.70,-277.17L233.84,-313.98Z" fill="#ffffff" stroke="#000000"/>
    <path d="M-356.39,-58.77L-363.19,-106.93L-345.80,-110.52L-329.96,-64.23L-310.48,-68.25L-373.71,-231.69L-396.67,-226.95L-381.86,-205.59L-377.26,-54.46ZM-375.10,-192.72L-372.55,-193.24L-358.57,-147.78L-347.45,-115.01L-363.69,-111.66ZM-262.12,-233.44C-260.78,-226.95 -260.54,-217.57 -269.59,-179.44L-251.97,-183.08C-252.63,-207.36 -255.52,-223.69 -257.96,-235.51C-260.93,-249.89 -268.21,-255.88 -280.26,-253.39C-293.71,-250.62 -303.31,-239.69 -298.62,-216.97L-274.78,-101.49C-270.66,-81.54 -262.22,-75.79 -249.01,-78.52C-235.09,-81.39 -231.81,-99.47 -236.82,-121.41L-243.31,-149.32L-246.56,-148.65L-241.61,-121.15C-239.01,-106.21 -239.51,-96.92 -245.54,-95.68C-250.17,-94.72 -255.57,-96.26 -259.02,-112.96L-281.70,-222.87C-283.38,-230.99 -283.04,-236.38 -277.01,-237.62C-267.27,-239.63 -263.18,-238.54 -262.12,-233.44ZM-190.80,-90.53C-177.11,-93.36 -167.29,-104.33 -171.98,-127.06L-189.59,-212.39C-193.71,-232.33 -202.85,-237.94 -217.69,-234.88C-231.37,-232.05 -241.19,-221.08 -236.50,-198.36L-218.89,-113.02C-214.77,-93.08 -205.40,-87.52 -190.80,-90.53ZM-217.22,-218.54C-212.58,-219.49 -207.65,-217.85 -204.20,-201.16L-187.74,-121.39C-186.06,-113.27 -186.17,-107.93 -191.27,-106.88C-196.14,-105.87 -200.84,-107.56 -204.28,-124.26L-220.75,-204.03C-222.42,-212.14 -222.32,-217.48 -217.22,-218.54ZM-162.25,-243.90L-178.48,-240.55L-149.76,-101.42L-133.53,-104.77L-151.72,-192.89C-156.17,-214.45 -154.60,-231.46 -148.11,-232.80C-143.70,-233.71 -141.78,-230.24 -140.05,-221.89L-116.60,-108.27L-100.37,-111.62L-125.69,-234.28C-128.08,-245.88 -135.82,-251.78 -144.40,-250.00C-153.22,-248.19 -159.90,-240.76 -157.59,-204.97L-160.01,-204.96L-161.72,-241.35ZM-71.68,-242.05C-70.43,-236.02 -72.56,-226.39 -80.87,-196.39L-63.24,-200.03C-63.56,-221.48 -66.07,-237.16 -67.32,-243.19C-70.33,-257.80 -77.61,-263.79 -89.67,-261.30C-102.43,-258.67 -111.55,-247.84 -106.82,-224.88L-89.25,-139.78C-85.13,-119.84 -77.16,-113.99 -64.64,-116.57C-50.72,-119.44 -47.44,-137.53 -52.45,-159.46L-58.94,-187.38L-62.19,-186.71L-57.24,-159.20C-54.64,-144.26 -55.14,-134.97 -60.47,-133.87C-65.80,-132.77 -71.20,-134.32 -74.65,-151.01L-91.06,-230.55C-92.79,-238.90 -92.45,-244.29 -85.49,-245.72C-76.68,-247.54 -72.59,-246.45 -71.68,-242.05ZM-46.25,-299.28L-62.48,-295.93L-27.54,-126.65L-11.31,-130.00ZM38.08,-140.19L54.32,-143.54L25.60,-282.68L9.37,-279.33L27.56,-191.21C32.01,-169.64 30.44,-152.64 23.95,-151.30C19.54,-150.39 17.62,-153.86 15.89,-162.21L-7.56,-275.83L-23.79,-272.48L1.53,-149.81C3.92,-138.22 11.66,-132.32 20.24,-134.09C29.06,-135.91 35.74,-143.34 33.43,-179.12L35.85,-179.14L37.56,-142.74ZM108.28,-182.00C104.11,-202.17 63.08,-245.20 59.01,-264.91C57.77,-270.94 58.76,-275.50 66.41,-277.08C76.15,-279.09 80.20,-278.23 81.06,-274.06C82.02,-269.42 80.39,-262.07 74.21,-239.28L89.52,-242.44C89.07,-255.16 87.33,-265.92 85.42,-275.20C82.45,-289.57 75.22,-295.33 63.16,-292.85C49.24,-289.97 39.09,-279.42 43.35,-258.78C48.52,-233.73 87.74,-199.52 92.48,-176.56C93.72,-170.53 92.82,-165.51 85.17,-163.93C73.81,-161.59 69.02,-162.53 68.16,-166.71C67.15,-171.58 68.64,-179.62 75.77,-204.79L59.08,-201.34C59.56,-190.80 61.36,-177.39 63.80,-165.57C66.77,-151.19 74.74,-145.34 88.43,-148.17C102.34,-151.04 112.39,-162.06 108.28,-182.00ZM89.08,-314.88L113.66,-319.95L111.22,-331.78L86.64,-326.70ZM113.27,-300.77L97.03,-297.42L125.75,-158.29L141.98,-161.64ZM181.19,-167.31C194.87,-170.14 204.70,-181.11 200.00,-203.83L182.39,-289.17C178.28,-309.11 169.14,-314.72 154.30,-311.66C140.62,-308.83 130.79,-297.86 135.48,-275.14L153.10,-189.80C157.21,-169.86 166.58,-164.30 181.19,-167.31ZM154.77,-295.31C159.41,-296.27 164.34,-294.63 167.79,-277.93L184.25,-198.16C185.93,-190.05 185.82,-184.71 180.72,-183.65C175.85,-182.65 171.15,-184.34 167.70,-201.04L151.24,-280.80C149.56,-288.92 149.67,-294.26 154.77,-295.31ZM209.74,-320.68L193.51,-317.33L222.23,-178.20L238.46,-181.55L220.27,-269.67C215.82,-291.23 217.39,-308.24 223.88,-309.58C228.29,-310.49 230.21,-307.02 231.93,-298.67L255.39,-185.04L271.62,-188.39L246.30,-311.06C243.91,-322.66 236.16,-328.55 227.58,-326.78C218.77,-324.96 212.08,-317.54 214.39,-281.75L211.98,-281.74L210.27,-318.13Z" fill="#ffffff" stroke="#000000"/>
    <path d="M-359.98,-35.95L-369.12,-83.21L-352.12,-87.63L-334.13,-42.68L-315.08,-47.63L-385.80,-205.97L-408.25,-200.14L-392.54,-179.77L-380.39,-30.64ZM-385.21,-167.39L-382.71,-168.04L-366.61,-123.81L-353.98,-91.99L-369.85,-87.86ZM-275.61,-213.33C-273.96,-206.98 -273.24,-197.72 -280.27,-159.58L-263.04,-164.06C-264.91,-188.02 -268.59,-204.02 -271.59,-215.58C-275.25,-229.64 -282.75,-235.20 -294.54,-232.13C-307.69,-228.71 -316.62,-217.43 -310.84,-195.20L-281.47,-82.27C-276.40,-62.77 -267.77,-57.51 -254.84,-60.87C-241.24,-64.41 -238.91,-82.45 -244.96,-103.87L-252.78,-131.14L-255.95,-130.31L-249.68,-103.38C-246.36,-88.74 -246.38,-79.54 -252.28,-78.00C-256.81,-76.82 -262.22,-78.08 -266.47,-94.41L-294.42,-201.90C-296.49,-209.83 -296.43,-215.18 -290.53,-216.71C-281.00,-219.19 -276.90,-218.31 -275.61,-213.33ZM-197.92,-75.68C-184.54,-79.16 -175.38,-90.50 -181.16,-112.72L-202.87,-196.17C-207.94,-215.67 -217.25,-220.76 -231.76,-216.98C-245.14,-213.50 -254.30,-202.16 -248.52,-179.94L-226.82,-96.49C-221.74,-76.99 -212.21,-71.96 -197.92,-75.68ZM-230.47,-200.85C-225.94,-202.03 -220.98,-200.66 -216.74,-184.33L-196.45,-106.32C-194.38,-98.39 -194.22,-93.10 -199.21,-91.81C-203.97,-90.57 -208.70,-92.00 -212.95,-108.33L-233.24,-186.34C-235.30,-194.27 -235.46,-199.56 -230.47,-200.85ZM-177.42,-228.69L-193.30,-224.56L-157.91,-88.50L-142.04,-92.63L-164.45,-178.80C-169.93,-199.89 -169.24,-216.78 -162.89,-218.43C-158.58,-219.55 -156.51,-216.22 -154.38,-208.05L-125.48,-96.94L-109.61,-101.07L-140.81,-221.02C-143.76,-232.36 -151.71,-237.80 -160.10,-235.62C-168.72,-233.38 -174.95,-225.70 -170.87,-190.45L-173.25,-190.31L-176.77,-226.20ZM-87.82,-231.42C-86.29,-225.52 -87.90,-215.90 -94.61,-185.83L-77.37,-190.31C-78.77,-211.50 -82.04,-226.87 -83.57,-232.76C-87.29,-247.05 -94.78,-252.60 -106.58,-249.54C-119.05,-246.29 -127.52,-235.13 -121.68,-212.68L-100.04,-129.46C-94.97,-109.96 -86.79,-104.58 -74.55,-107.76C-60.94,-111.30 -58.61,-129.34 -64.67,-150.76L-72.48,-178.03L-75.66,-177.20L-69.38,-150.26C-66.06,-135.63 -66.08,-126.43 -71.30,-125.07C-76.52,-123.71 -81.93,-124.97 -86.17,-141.30L-106.40,-219.08C-108.52,-227.24 -108.46,-232.58 -101.66,-234.35C-93.04,-236.59 -88.94,-235.72 -87.82,-231.42ZM-65.57,-289.25L-81.45,-285.13L-38.39,-119.59L-22.52,-123.71ZM25.78,-136.28L41.66,-140.40L6.27,-276.46L-9.60,-272.34L12.81,-186.17C18.29,-165.08 17.60,-148.19 11.25,-146.54C6.94,-145.42 4.87,-148.75 2.74,-156.92L-26.15,-268.03L-42.03,-263.90L-10.83,-143.94C-7.88,-132.61 0.07,-127.17 8.46,-129.35C17.08,-131.59 23.31,-139.27 19.23,-174.52L21.61,-174.66L25.14,-138.77ZM93.05,-181.13C87.92,-200.86 45.20,-241.32 40.19,-260.59C38.65,-266.49 39.41,-271.04 46.89,-272.99C56.41,-275.46 60.45,-274.82 61.52,-270.74C62.70,-266.20 61.46,-258.86 56.50,-236.02L71.47,-239.92C70.38,-252.46 68.12,-263.01 65.77,-272.08C62.11,-286.14 54.67,-291.47 42.88,-288.41C29.27,-284.87 19.77,-273.92 25.02,-253.74C31.39,-229.25 71.87,-197.41 77.71,-174.96C79.24,-169.06 78.61,-164.06 71.12,-162.11C60.01,-159.22 55.23,-159.91 54.17,-164.00C52.93,-168.76 53.99,-176.78 59.78,-202.01L43.45,-197.77C44.46,-187.38 46.91,-174.21 49.92,-162.65C53.58,-148.59 61.76,-143.21 75.13,-146.69C88.74,-150.23 98.12,-161.63 93.05,-181.13ZM67.39,-311.49L91.43,-317.74L88.42,-329.30L64.38,-323.05ZM92.00,-298.76L76.13,-294.63L111.51,-158.57L127.39,-162.70ZM165.85,-170.28C179.23,-173.76 188.39,-185.10 182.61,-207.32L160.90,-290.77C155.83,-310.28 146.52,-315.36 132.01,-311.59C118.63,-308.11 109.47,-296.77 115.25,-274.54L136.95,-191.09C142.03,-171.59 151.56,-166.57 165.85,-170.28ZM133.30,-295.46C137.83,-296.64 142.79,-295.26 147.03,-278.94L167.32,-200.93C169.39,-192.99 169.55,-187.71 164.56,-186.41C159.80,-185.17 155.07,-186.60 150.82,-202.93L130.54,-280.94C128.47,-288.88 128.31,-294.16 133.30,-295.46ZM186.35,-323.30L170.47,-319.17L205.86,-183.11L221.73,-187.24L199.32,-273.41C193.84,-294.50 194.53,-311.38 200.88,-313.03C205.19,-314.15 207.26,-310.82 209.39,-302.66L238.29,-191.54L254.16,-195.67L222.96,-315.63C220.01,-326.97 212.06,-332.40 203.67,-330.22C195.05,-327.98 188.82,-320.31 192.90,-285.05L190.52,-284.92L187.00,-320.80Z" fill="#ffffff" stroke="#000000"/>
    <path d="M-362.07,-13.03L-373.49,-59.26L-356.90,-64.49L-336.87,-20.97L-318.29,-26.82L-396.14,-179.74L-418.03,-172.84L-401.49,-153.50L-381.97,-6.75ZM-393.62,-141.64L-391.18,-142.41L-373.04,-99.51L-358.96,-68.70L-374.44,-63.82ZM-287.62,-192.55C-285.67,-186.36 -284.50,-177.25 -289.52,-139.20L-272.72,-144.50C-275.78,-168.09 -280.21,-183.70 -283.77,-194.98C-288.09,-208.69 -295.78,-213.80 -307.28,-210.18C-320.10,-206.14 -328.36,-194.54 -321.53,-172.87L-286.82,-62.75C-280.83,-43.74 -272.03,-38.97 -259.43,-42.94C-246.16,-47.13 -244.77,-65.07 -251.83,-85.93L-260.93,-112.48L-264.02,-111.51L-256.46,-85.20C-252.44,-70.91 -252.01,-61.81 -257.76,-60.00C-262.18,-58.61 -267.59,-59.58 -272.61,-75.50L-305.64,-180.31C-308.08,-188.05 -308.29,-193.33 -302.54,-195.14C-293.25,-198.07 -289.15,-197.42 -287.62,-192.55ZM-203.92,-60.44C-190.88,-64.55 -182.40,-76.22 -189.23,-97.89L-214.88,-179.26C-220.87,-198.28 -230.33,-202.83 -244.48,-198.37C-257.52,-194.26 -266.00,-182.59 -259.17,-160.92L-233.53,-79.55C-227.53,-60.53 -217.85,-56.05 -203.92,-60.44ZM-242.39,-182.50C-237.97,-183.89 -233.00,-182.78 -227.98,-166.86L-204.01,-90.80C-201.57,-83.06 -201.14,-77.84 -206.01,-76.31C-210.65,-74.85 -215.40,-76.03 -220.42,-91.95L-244.39,-168.01C-246.83,-175.75 -247.26,-180.96 -242.39,-182.50ZM-191.37,-212.68L-206.85,-207.80L-165.03,-75.13L-149.56,-80.00L-176.04,-164.03C-182.52,-184.59 -182.68,-201.32 -176.49,-203.27C-172.29,-204.59 -170.07,-201.40 -167.56,-193.44L-133.41,-85.09L-117.93,-89.97L-154.80,-206.94C-158.29,-218.00 -166.42,-222.97 -174.60,-220.39C-183.00,-217.75 -188.78,-209.85 -182.97,-175.22L-185.32,-174.96L-190.60,-210.24ZM-102.96,-219.88C-101.15,-214.13 -102.26,-204.54 -107.37,-174.49L-90.57,-179.79C-93.01,-200.65 -97.02,-215.67 -98.83,-221.42C-103.22,-235.35 -110.91,-240.47 -122.41,-236.84C-134.57,-233.01 -142.38,-221.55 -135.48,-199.66L-109.91,-118.51C-103.91,-99.49 -95.56,-94.59 -83.62,-98.35C-70.35,-102.54 -68.96,-120.48 -76.02,-141.34L-85.12,-167.89L-88.21,-166.92L-80.65,-140.61C-76.64,-126.32 -76.20,-117.22 -81.28,-115.62C-86.37,-114.02 -91.78,-114.99 -96.80,-130.91L-120.70,-206.75C-123.21,-214.71 -123.42,-219.99 -116.78,-222.09C-108.38,-224.73 -104.29,-224.08 -102.96,-219.88ZM-83.89,-278.15L-99.37,-273.28L-48.49,-111.86L-33.01,-116.74ZM14.09,-131.58L29.57,-136.46L-12.25,-269.13L-27.73,-264.25L-1.24,-180.23C5.24,-159.66 5.40,-142.94 -0.79,-140.99C-4.99,-139.67 -7.21,-142.86 -9.72,-150.82L-43.87,-259.17L-59.35,-254.29L-22.48,-137.31C-18.99,-126.26 -10.86,-121.29 -2.68,-123.86C5.72,-126.51 11.50,-134.41 5.69,-169.04L8.04,-169.30L13.32,-134.01ZM78.31,-179.29C72.24,-198.53 27.99,-236.36 22.07,-255.15C20.25,-260.90 20.77,-265.44 28.07,-267.74C37.35,-270.66 41.38,-270.23 42.63,-266.25C44.03,-261.83 43.17,-254.51 39.42,-231.69L54.02,-236.29C52.32,-248.64 49.55,-258.95 46.76,-267.80C42.44,-281.51 34.82,-286.40 23.33,-282.77C10.06,-278.59 1.22,-267.30 7.42,-247.62C14.95,-223.74 56.56,-194.31 63.45,-172.42C65.27,-166.67 64.89,-161.69 57.59,-159.39C46.76,-155.98 42.00,-156.42 40.75,-160.40C39.28,-165.04 39.93,-173.03 44.37,-198.25L28.45,-193.23C29.97,-183.02 33.06,-170.13 36.61,-158.86C40.94,-145.15 49.29,-140.24 62.33,-144.35C75.60,-148.54 84.30,-160.27 78.31,-179.29ZM46.38,-306.81L69.82,-314.20L66.27,-325.48L42.83,-318.09ZM71.35,-295.48L55.87,-290.60L97.68,-157.93L113.16,-162.81ZM150.79,-172.23C163.84,-176.35 172.31,-188.01 165.48,-209.68L139.84,-291.05C133.84,-310.07 124.39,-314.63 110.24,-310.17C97.19,-306.05 88.71,-294.39 95.54,-272.72L121.19,-191.34C127.18,-172.33 136.86,-167.84 150.79,-172.23ZM112.32,-294.29C116.74,-295.69 121.71,-294.58 126.73,-278.66L150.70,-202.59C153.14,-194.85 153.57,-189.64 148.70,-188.11C144.06,-186.64 139.31,-187.82 134.30,-203.74L110.32,-279.81C107.88,-287.55 107.46,-292.76 112.32,-294.29ZM163.34,-324.47L147.87,-319.59L189.68,-186.92L205.16,-191.80L178.68,-275.83C172.19,-296.39 172.03,-313.11 178.22,-315.06C182.42,-316.39 184.64,-313.20 187.15,-305.24L221.30,-196.89L236.78,-201.77L199.91,-318.74C196.43,-329.79 188.30,-334.77 180.12,-332.19C171.71,-329.54 165.94,-321.64 171.75,-287.01L169.40,-286.76L164.11,-322.04Z" fill="#ffffff" stroke="#000000"/>
    <path d="M-362.67,9.91L-376.27,-35.20L-360.15,-41.20L-338.16,0.79L-320.10,-5.93L-404.72,-153.10L-426.01,-145.18L-408.68,-126.91L-382.02,17.11ZM-400.31,-115.59L-397.94,-116.47L-377.86,-74.99L-362.39,-45.26L-377.44,-39.66ZM-298.14,-171.22C-295.90,-165.20 -294.29,-156.26 -297.34,-118.41L-281.00,-124.49C-285.21,-147.64 -290.38,-162.85 -294.45,-173.82C-299.41,-187.14 -307.27,-191.81 -318.45,-187.65C-330.92,-183.01 -338.49,-171.14 -330.65,-150.07L-290.82,-43.01C-283.94,-24.52 -275.01,-20.26 -262.76,-24.82C-249.86,-29.62 -249.38,-47.41 -257.41,-67.68L-267.73,-93.45L-270.74,-92.33L-261.95,-66.72C-257.26,-52.80 -256.37,-43.83 -261.96,-41.75C-266.26,-40.15 -271.65,-40.84 -277.41,-56.32L-315.33,-158.22C-318.13,-165.74 -318.60,-170.95 -313.01,-173.03C-303.98,-176.39 -299.90,-175.95 -298.14,-171.22ZM-208.79,-44.90C-196.11,-49.61 -188.32,-61.57 -196.16,-82.64L-225.59,-161.75C-232.47,-180.24 -242.05,-184.26 -255.80,-179.14C-268.49,-174.42 -276.28,-162.47 -268.44,-141.40L-239.00,-62.29C-232.12,-43.80 -222.33,-39.86 -208.79,-44.90ZM-252.94,-163.56C-248.64,-165.16 -243.68,-164.32 -237.92,-148.84L-210.41,-74.89C-207.61,-67.36 -206.92,-62.23 -211.65,-60.47C-216.17,-58.79 -220.91,-59.72 -226.67,-75.20L-254.19,-149.15C-256.99,-156.67 -257.67,-161.80 -252.94,-163.56ZM-204.05,-195.95L-219.10,-190.35L-171.10,-61.37L-156.06,-66.96L-186.45,-148.66C-193.89,-168.65 -194.89,-185.16 -188.87,-187.40C-184.79,-188.92 -182.44,-185.88 -179.56,-178.14L-140.36,-72.80L-125.31,-78.40L-167.63,-192.13C-171.63,-202.88 -179.91,-207.38 -187.86,-204.42C-196.03,-201.38 -201.34,-193.29 -193.86,-159.36L-196.17,-158.99L-203.17,-193.59ZM-117.06,-207.52C-114.98,-201.93 -115.59,-192.40 -119.13,-162.45L-102.79,-168.52C-106.26,-189.02 -110.97,-203.66 -113.05,-209.25C-118.09,-222.79 -125.94,-227.46 -137.12,-223.30C-148.95,-218.90 -156.09,-207.19 -148.17,-185.90L-118.82,-107.01C-111.94,-88.52 -103.44,-84.09 -91.83,-88.41C-78.93,-93.21 -78.46,-111.01 -86.49,-131.27L-96.81,-157.05L-99.82,-155.93L-91.03,-130.32C-86.34,-116.40 -85.45,-107.43 -90.39,-105.59C-95.34,-103.75 -100.73,-104.44 -106.49,-119.92L-133.92,-193.65C-136.80,-201.39 -137.27,-206.60 -130.82,-209.00C-122.66,-212.04 -118.58,-211.60 -117.06,-207.52ZM-101.14,-266.06L-116.19,-260.46L-57.80,-103.52L-42.75,-109.12ZM3.04,-126.16L18.09,-131.76L-29.90,-260.75L-44.95,-255.15L-14.55,-173.46C-7.12,-153.46 -6.11,-136.95 -12.13,-134.71C-16.21,-133.19 -18.57,-136.23 -21.45,-143.97L-60.64,-249.31L-75.69,-243.71L-33.38,-129.99C-29.38,-119.24 -21.09,-114.73 -13.14,-117.69C-4.97,-120.73 0.34,-128.83 -7.15,-162.75L-4.84,-163.12L2.16,-128.53ZM64.09,-176.53C57.13,-195.23 11.51,-230.39 4.71,-248.66C2.63,-254.25 2.91,-258.76 10.00,-261.40C19.03,-264.76 23.03,-264.53 24.47,-260.66C26.07,-256.36 25.59,-249.09 23.04,-226.36L37.23,-231.64C34.92,-243.75 31.67,-253.80 28.47,-262.40C23.51,-275.73 15.74,-280.18 4.56,-276.02C-8.34,-271.22 -16.50,-259.61 -9.38,-240.48C-0.74,-217.26 41.85,-190.28 49.76,-169.00C51.84,-163.41 51.72,-158.47 44.63,-155.83C34.10,-151.91 29.37,-152.11 27.93,-155.98C26.25,-160.49 26.49,-168.41 29.61,-193.56L14.13,-187.80C16.15,-177.78 19.85,-165.21 23.93,-154.24C28.89,-140.92 37.39,-136.49 50.07,-141.21C62.97,-146.01 70.97,-158.04 64.09,-176.53ZM26.13,-300.93L48.92,-309.41L44.84,-320.37L22.06,-311.89ZM51.37,-290.99L36.32,-285.39L84.32,-156.40L99.36,-162.00ZM136.07,-173.21C148.75,-177.93 156.54,-189.88 148.70,-210.95L119.27,-290.06C112.39,-308.55 102.81,-312.57 89.06,-307.45C76.37,-302.74 68.58,-290.78 76.42,-269.71L105.86,-190.60C112.74,-172.11 122.53,-168.17 136.07,-173.21ZM91.92,-291.88C96.22,-293.48 101.18,-292.63 106.94,-277.15L134.45,-203.20C137.25,-195.68 137.94,-190.55 133.21,-188.79C128.69,-187.11 123.95,-188.03 118.19,-203.51L90.67,-277.46C87.87,-284.99 87.19,-290.12 91.92,-291.88ZM140.81,-324.26L125.76,-318.67L173.76,-189.68L188.80,-195.28L158.41,-276.97C150.97,-296.96 149.97,-313.48 155.99,-315.72C160.07,-317.23 162.42,-314.20 165.30,-306.46L204.50,-201.12L219.55,-206.72L177.23,-320.44C173.23,-331.19 164.95,-335.69 157.00,-332.73C148.83,-329.69 143.52,-321.60 151.00,-287.67L148.69,-287.30L141.69,-321.90Z" fill="#ffffff" stroke="#000000"/>
    <path d="M-361.78,32.76L-377.49,-11.12L-361.87,-17.86L-338.03,22.52L-320.53,14.97L-411.53,-126.18L-432.16,-117.28L-414.13,-100.10L-380.54,40.85ZM-405.28,-89.33L-402.99,-90.32L-381.06,-50.35L-364.29,-21.76L-378.87,-15.47ZM-307.14,-149.44C-304.63,-143.61 -302.58,-134.85 -303.69,-97.31L-287.86,-104.13C-293.18,-126.80 -299.05,-141.56 -303.63,-152.19C-309.20,-165.11 -317.20,-169.32 -328.03,-164.65C-340.12,-159.44 -347.00,-147.33 -338.20,-126.91L-293.46,-23.14C-285.73,-5.22 -276.70,-1.46 -264.82,-6.58C-252.32,-11.97 -252.74,-29.58 -261.69,-49.19L-273.19,-74.13L-276.11,-72.88L-266.13,-48.02C-260.80,-34.50 -259.47,-25.69 -264.89,-23.35C-269.05,-21.55 -274.42,-21.96 -280.89,-36.96L-323.47,-135.73C-326.62,-143.02 -327.34,-148.14 -321.92,-150.48C-313.17,-154.25 -309.12,-154.02 -307.14,-149.44ZM-212.51,-29.13C-200.22,-34.43 -193.13,-46.63 -201.93,-67.05L-234.99,-143.73C-242.72,-161.65 -252.38,-165.14 -265.72,-159.39C-278.01,-154.09 -285.10,-141.89 -276.30,-121.47L-243.24,-44.79C-235.51,-26.87 -225.64,-23.47 -212.51,-29.13ZM-262.11,-144.15C-257.94,-145.94 -252.99,-145.36 -246.52,-130.36L-215.62,-58.68C-212.47,-51.39 -211.54,-46.35 -216.12,-44.38C-220.50,-42.49 -225.24,-43.16 -231.71,-58.17L-262.61,-129.85C-265.76,-137.14 -266.69,-142.17 -262.11,-144.15ZM-215.43,-178.61L-230.01,-172.32L-176.11,-47.30L-161.52,-53.59L-195.66,-132.77C-204.02,-152.14 -205.84,-168.41 -200.01,-170.92C-196.05,-172.63 -193.57,-169.75 -190.34,-162.24L-146.31,-60.14L-131.73,-66.43L-179.25,-176.66C-183.75,-187.08 -192.16,-191.11 -199.87,-187.79C-207.78,-184.37 -212.62,-176.11 -203.52,-142.97L-205.79,-142.49L-214.44,-176.31ZM-130.07,-194.41C-127.73,-188.99 -127.86,-179.55 -129.85,-149.78L-114.01,-156.60C-118.47,-176.68 -123.86,-190.91 -126.20,-196.32C-131.86,-209.45 -139.85,-213.66 -150.69,-208.99C-162.15,-204.05 -168.61,-192.12 -159.72,-171.49L-126.75,-95.02C-119.02,-77.10 -110.40,-73.16 -99.15,-78.01C-86.65,-83.40 -87.07,-101.01 -96.03,-120.62L-107.52,-145.56L-110.44,-144.31L-100.46,-119.45C-95.13,-105.94 -93.80,-97.12 -98.59,-95.05C-103.38,-92.99 -108.75,-93.39 -115.22,-108.39L-146.03,-179.86C-149.27,-187.36 -149.99,-192.49 -143.74,-195.18C-135.82,-198.60 -131.77,-198.37 -130.07,-194.41ZM-117.29,-253.05L-131.87,-246.76L-66.29,-94.65L-51.70,-100.94ZM-7.32,-120.08L7.27,-126.36L-46.64,-251.38L-61.22,-245.10L-27.08,-165.92C-18.73,-146.54 -16.90,-130.27 -22.74,-127.76C-26.70,-126.05 -29.18,-128.94 -32.41,-136.44L-76.43,-238.54L-91.02,-232.25L-43.49,-122.02C-39.00,-111.60 -30.59,-107.57 -22.88,-110.89C-14.96,-114.31 -10.12,-122.57 -19.22,-155.71L-16.96,-156.20L-8.31,-122.37ZM50.46,-172.91C42.65,-191.04 -4.20,-223.47 -11.84,-241.18C-14.17,-246.60 -14.12,-251.07 -7.25,-254.04C1.50,-257.81 5.47,-257.79 7.08,-254.04C8.88,-249.87 8.78,-242.66 7.40,-220.07L21.15,-226.00C18.26,-237.85 14.55,-247.62 10.95,-255.95C5.38,-268.87 -2.52,-272.88 -13.36,-268.20C-25.86,-262.81 -33.34,-250.94 -25.35,-232.39C-15.64,-209.89 27.79,-185.38 36.69,-164.75C39.02,-159.33 39.15,-154.44 32.28,-151.48C22.07,-147.08 17.39,-147.04 15.77,-150.79C13.88,-155.16 13.72,-163.00 15.54,-188.00L0.54,-181.53C3.03,-171.74 7.32,-159.50 11.90,-148.87C17.47,-135.95 26.09,-132.01 38.39,-137.31C50.89,-142.70 58.19,-154.99 50.46,-172.91ZM6.70,-293.90L28.79,-303.43L24.21,-314.05L2.12,-304.53ZM32.14,-285.35L17.55,-279.06L71.46,-154.04L86.04,-160.33ZM121.74,-173.25C134.03,-178.55 141.13,-190.75 132.32,-211.17L99.26,-287.85C91.54,-305.77 81.87,-309.27 68.54,-303.52C56.24,-298.22 49.15,-286.01 57.95,-265.59L91.02,-188.91C98.74,-171.00 108.61,-167.59 121.74,-173.25ZM72.15,-288.27C76.31,-290.07 81.26,-289.48 87.73,-274.48L118.64,-202.80C121.78,-195.51 122.72,-190.47 118.13,-188.50C113.76,-186.61 109.02,-187.29 102.55,-202.29L71.64,-273.97C68.50,-281.26 67.56,-286.29 72.15,-288.27ZM118.83,-322.73L104.24,-316.44L158.15,-191.42L172.73,-197.71L138.59,-276.89C130.24,-296.27 128.41,-312.53 134.25,-315.04C138.21,-316.75 140.68,-313.87 143.92,-306.37L187.94,-204.27L202.53,-210.56L155.00,-320.78C150.51,-331.20 142.10,-335.23 134.39,-331.91C126.47,-328.49 121.63,-320.23 130.73,-287.09L128.47,-286.61L119.81,-320.44Z" fill="#ffffff" stroke="#000000"/>
    <path d="M-359.43,55.43L-377.16,12.87L-362.06,5.42L-336.48,44.11L-319.57,35.78L-416.57,-99.07L-436.50,-89.25L-417.82,-73.18L-377.55,64.36ZM-408.54,-62.99L-406.33,-64.09L-382.66,-25.71L-364.65,1.70L-378.74,8.64ZM-314.62,-127.31C-311.84,-121.67 -309.38,-113.13 -308.59,-75.98L-293.29,-83.52C-299.69,-105.64 -306.23,-119.93 -311.29,-130.20C-317.44,-142.68 -325.55,-146.44 -336.02,-141.28C-347.70,-135.53 -353.89,-123.22 -344.17,-103.49L-294.75,-3.23C-286.21,14.08 -277.10,17.35 -265.62,11.69C-253.54,5.74 -254.85,-11.64 -264.68,-30.56L-277.29,-54.63L-280.11,-53.24L-269.00,-29.18C-263.06,-16.10 -261.30,-7.46 -266.53,-4.88C-270.56,-2.89 -275.88,-3.02 -283.02,-17.52L-330.06,-112.94C-333.53,-119.99 -334.51,-125.01 -329.27,-127.59C-320.82,-131.76 -316.80,-131.74 -314.62,-127.31ZM-215.09,-13.22C-203.21,-19.08 -196.82,-31.49 -206.54,-51.21L-243.06,-125.30C-251.59,-142.61 -261.31,-145.58 -274.20,-139.23C-286.07,-133.37 -292.47,-120.96 -282.74,-101.23L-246.23,-27.15C-237.69,-9.84 -227.77,-6.97 -215.09,-13.22ZM-269.86,-124.35C-265.84,-126.33 -260.92,-126.00 -253.78,-111.51L-219.64,-42.26C-216.17,-35.21 -214.99,-30.28 -219.42,-28.10C-223.65,-26.02 -228.36,-26.45 -235.51,-40.94L-269.64,-110.19C-273.12,-117.24 -274.29,-122.16 -269.86,-124.35ZM-225.49,-160.74L-239.58,-153.79L-180.04,-33.00L-165.95,-39.95L-203.66,-116.45C-212.88,-135.17 -215.50,-151.14 -209.87,-153.92C-206.04,-155.81 -203.45,-153.08 -199.88,-145.83L-151.25,-47.19L-137.16,-54.14L-189.65,-160.63C-194.62,-170.70 -203.13,-174.26 -210.58,-170.59C-218.23,-166.82 -222.59,-158.41 -211.93,-126.13L-214.14,-125.54L-224.40,-158.52ZM-141.96,-180.64C-139.38,-175.41 -139.03,-166.07 -139.50,-136.56L-124.20,-144.10C-129.61,-163.71 -135.65,-177.49 -138.23,-182.73C-144.48,-195.41 -152.59,-199.17 -163.06,-194.01C-174.13,-188.55 -179.92,-176.44 -170.10,-156.51L-133.68,-82.63C-125.15,-65.31 -116.43,-61.85 -105.56,-67.21C-93.48,-73.16 -94.79,-90.54 -104.62,-109.46L-117.23,-133.52L-120.05,-132.13L-108.94,-108.08C-102.99,-95.00 -101.24,-86.36 -105.87,-84.07C-110.50,-81.79 -115.82,-81.92 -122.96,-96.42L-157.00,-165.47C-160.57,-172.72 -161.55,-177.74 -155.51,-180.72C-147.86,-184.49 -143.84,-184.47 -141.96,-180.64ZM-132.28,-239.21L-146.38,-232.26L-73.94,-85.30L-59.84,-92.25ZM-16.96,-113.39L-2.87,-120.33L-62.41,-241.12L-76.50,-234.17L-38.79,-157.68C-29.56,-138.95 -26.94,-122.98 -32.58,-120.20C-36.41,-118.31 -39.00,-121.04 -42.57,-128.29L-91.20,-226.93L-105.29,-219.98L-52.79,-113.49C-47.83,-103.42 -39.32,-99.86 -31.87,-103.53C-24.22,-107.30 -19.86,-115.71 -30.52,-147.99L-28.30,-148.58L-18.05,-115.60ZM37.46,-168.49C28.83,-186.00 -19.08,-215.68 -27.52,-232.80C-30.10,-238.03 -30.28,-242.45 -23.63,-245.72C-15.18,-249.89 -11.26,-250.07 -9.47,-246.44C-7.49,-242.42 -7.23,-235.29 -7.46,-212.91L5.83,-219.46C2.38,-231.02 -1.78,-240.48 -5.75,-248.53C-11.90,-261.01 -19.91,-264.57 -30.38,-259.41C-42.46,-253.46 -49.25,-241.35 -40.42,-223.43C-29.70,-201.69 14.44,-179.66 24.26,-159.73C26.84,-154.49 27.22,-149.67 20.57,-146.40C10.71,-141.54 6.09,-141.26 4.30,-144.89C2.22,-149.11 1.66,-156.85 2.20,-181.64L-12.29,-174.49C-9.33,-164.94 -4.48,-153.07 0.58,-142.80C6.73,-130.32 15.44,-126.86 27.32,-132.71C39.40,-138.66 45.99,-151.17 37.46,-168.49ZM-11.86,-285.81L9.48,-296.33L4.42,-306.59L-16.92,-296.08ZM13.70,-278.64L-0.39,-271.69L59.15,-150.90L73.24,-157.85ZM107.85,-172.41C119.73,-178.26 126.13,-190.67 116.40,-210.40L79.88,-284.49C71.35,-301.80 61.63,-304.77 48.74,-298.41C36.87,-292.56 30.47,-280.15 40.20,-260.42L76.72,-186.34C85.25,-169.02 95.17,-166.16 107.85,-172.41ZM53.08,-283.53C57.10,-285.52 62.02,-285.19 69.16,-270.69L103.30,-201.44C106.77,-194.40 107.95,-189.47 103.52,-187.29C99.29,-185.20 94.58,-185.63 87.43,-200.13L53.30,-269.38C49.82,-276.43 48.65,-281.35 53.08,-283.53ZM97.45,-319.92L83.36,-312.98L142.90,-192.19L156.99,-199.13L119.29,-275.63C110.06,-294.36 107.44,-310.33 113.07,-313.11C116.90,-314.99 119.49,-312.27 123.07,-305.02L171.69,-206.38L185.78,-213.32L133.29,-319.82C128.33,-329.89 119.81,-333.45 112.37,-329.77C104.72,-326.00 100.35,-317.60 111.01,-285.32L108.80,-284.73L98.55,-317.71Z" fill="#ffffff" stroke="#000000"/>
    <path d="M-355.63,77.82L-375.28,36.67L-360.74,28.56L-333.53,65.49L-317.25,56.40L-419.84,-71.91L-439.04,-61.21L-419.78,-46.28L-373.08,87.55ZM-410.10,-36.68L-407.97,-37.87L-382.66,-1.15L-363.49,25.01L-377.06,32.58ZM-320.57,-104.93C-317.54,-99.50 -314.68,-91.19 -312.02,-54.54L-297.29,-62.76C-304.73,-84.28 -311.91,-98.07 -317.42,-107.95C-324.13,-119.97 -332.33,-123.28 -342.41,-117.66C-353.65,-111.38 -359.15,-98.91 -348.55,-79.91L-294.69,16.62C-285.39,33.30 -276.23,36.06 -265.18,29.90C-253.54,23.41 -255.71,6.31 -266.37,-11.89L-280.04,-35.02L-282.75,-33.50L-270.57,-10.30C-264.04,2.32 -261.87,10.77 -266.91,13.58C-270.79,15.74 -276.05,15.88 -283.83,1.92L-335.09,-89.96C-338.88,-96.75 -340.09,-101.66 -335.05,-104.47C-326.91,-109.02 -322.94,-109.20 -320.57,-104.93ZM-216.51,2.75C-205.08,-3.63 -199.39,-16.21 -209.98,-35.21L-249.78,-106.55C-259.08,-123.22 -268.83,-125.66 -281.24,-118.74C-292.67,-112.36 -298.37,-99.78 -287.77,-80.78L-247.97,-9.44C-238.67,7.23 -228.73,9.56 -216.51,2.75ZM-276.21,-104.26C-272.33,-106.42 -267.46,-106.34 -259.67,-92.38L-222.47,-25.70C-218.69,-18.91 -217.28,-14.11 -221.54,-11.73C-225.61,-9.46 -230.29,-9.64 -238.08,-23.60L-275.28,-90.29C-279.06,-97.07 -280.47,-101.88 -276.21,-104.26ZM-234.21,-142.43L-247.78,-134.86L-182.89,-18.55L-169.32,-26.12L-210.42,-99.78C-220.47,-117.81 -223.86,-133.46 -218.44,-136.49C-214.75,-138.54 -212.05,-135.98 -208.16,-129.00L-155.17,-34.01L-141.60,-41.58L-198.81,-144.13C-204.22,-153.82 -212.80,-156.91 -219.97,-152.91C-227.34,-148.80 -231.23,-140.28 -219.08,-108.93L-221.23,-108.24L-233.02,-140.30ZM-152.70,-166.29C-149.89,-161.25 -149.08,-152.05 -148.05,-122.88L-133.32,-131.10C-139.65,-150.19 -146.32,-163.50 -149.13,-168.54C-155.94,-180.76 -164.14,-184.06 -174.22,-178.44C-184.88,-172.49 -189.99,-160.23 -179.28,-141.04L-139.60,-69.90C-130.30,-53.23 -121.52,-50.25 -111.05,-56.09C-99.42,-62.57 -101.58,-79.67 -112.24,-97.87L-125.91,-121.00L-128.62,-119.49L-116.44,-96.29C-109.91,-83.66 -107.74,-75.22 -112.20,-72.73C-116.66,-70.24 -121.92,-70.10 -129.70,-84.06L-166.80,-150.55C-170.69,-157.53 -171.91,-162.44 -166.09,-165.69C-158.72,-169.80 -154.76,-169.98 -152.70,-166.29ZM-146.09,-224.63L-159.66,-217.06L-80.72,-75.55L-67.15,-83.12ZM-25.86,-106.15L-12.29,-113.72L-77.17,-230.03L-90.74,-222.46L-49.65,-148.80C-39.59,-130.77 -36.20,-115.13 -41.63,-112.10C-45.31,-110.04 -48.01,-112.60 -51.90,-119.58L-104.89,-214.57L-118.46,-207.00L-61.26,-104.45C-55.85,-94.76 -47.26,-91.67 -40.09,-95.67C-32.72,-99.78 -28.84,-108.30 -40.99,-139.65L-38.83,-140.35L-27.05,-108.29ZM25.12,-163.32C15.72,-180.18 -33.10,-207.09 -42.29,-223.57C-45.10,-228.61 -45.50,-232.96 -39.10,-236.53C-30.96,-241.07 -27.10,-241.45 -25.16,-237.96C-22.99,-234.08 -22.38,-227.05 -21.48,-204.93L-8.68,-212.07C-12.67,-223.32 -17.26,-232.45 -21.58,-240.20C-28.29,-252.22 -36.38,-255.34 -46.46,-249.71C-58.09,-243.22 -64.19,-230.92 -54.56,-213.67C-42.89,-192.73 1.82,-173.19 12.53,-154.00C15.34,-148.96 15.95,-144.22 9.56,-140.65C0.06,-135.35 -4.49,-134.85 -6.44,-138.34C-8.71,-142.41 -9.65,-150.02 -10.36,-174.53L-24.32,-166.74C-20.92,-157.46 -15.53,-145.97 -10.01,-136.09C-3.31,-124.07 5.47,-121.09 16.91,-127.47C28.54,-133.96 34.43,-146.64 25.12,-163.32ZM-29.49,-276.72L-8.94,-288.18L-14.46,-298.07L-35.00,-286.60ZM-3.89,-270.92L-17.46,-263.35L47.43,-147.04L61.00,-154.61ZM94.46,-170.73C105.89,-177.11 111.59,-189.69 100.99,-208.69L61.19,-280.03C51.89,-296.70 42.14,-299.14 29.73,-292.22C18.30,-285.84 12.61,-273.26 23.20,-254.26L63.00,-182.92C72.30,-166.25 82.24,-163.92 94.46,-170.73ZM34.76,-277.74C38.64,-279.90 43.51,-279.82 51.30,-265.86L88.50,-199.18C92.28,-192.39 93.69,-187.59 89.43,-185.21C85.36,-182.94 80.68,-183.12 72.89,-197.08L35.69,-263.77C31.91,-270.55 30.50,-275.36 34.76,-277.74ZM76.76,-315.91L63.20,-308.34L128.08,-192.03L141.65,-199.60L100.56,-273.26C90.50,-291.29 87.11,-306.94 92.54,-309.97C96.22,-312.02 98.92,-309.46 102.81,-302.48L155.80,-207.49L169.37,-215.06L112.16,-317.61C106.76,-327.30 98.17,-330.39 91.00,-326.39C83.63,-322.28 79.74,-313.76 91.89,-282.41L89.74,-281.72L77.95,-313.78Z" fill="#ffffff" stroke="#000000"/>
    <path d="M-908.57,461.18L-911.73,461.18L-911.73,492L-904.01,492L-904.01,489.26L-908.57,489.26ZM-894.09,471.23C-894.09,467.56 -895.31,466.25 -897.63,466.25C-900.16,466.25 -902.11,467.81 -902.11,471.99L-902.11,487.48C-902.11,491.11 -900.80,492.42 -898.22,492.42C-895.39,492.42 -894.04,489.38 -894.13,485.37L-894.25,480.31L-894.85,480.31L-894.97,485.25C-895.06,487.95 -895.61,489.55 -896.87,489.55C-898.05,489.55 -899.15,489.09 -899.15,486.05L-899.15,477.98L-894.09,477.98ZM-896.62,472.62L-896.62,477.39L-899.15,477.39L-899.15,471.57C-899.15,470.05 -898.94,469.12 -897.93,469.12C-897.08,469.12 -896.62,469.54 -896.62,472.62ZM-887.96,461.18L-891.13,461.18L-891.55,492L-888.22,492L-889.36,469.96L-888.93,469.96L-885.43,489.89L-884.46,489.89L-881.76,469.96L-881.29,469.96L-881.84,492L-878.59,492L-879.01,461.18L-881.67,461.18L-884.12,481.15L-884.59,481.15ZM-870.02,492L-867.06,492L-867.06,466.67L-870.02,466.67L-870.02,482.71C-870.02,486.64 -870.91,489.55 -872.09,489.55C-872.89,489.55 -873.10,488.88 -873.10,487.36L-873.10,466.67L-876.06,466.67L-876.06,489.00C-876.06,491.11 -874.92,492.42 -873.35,492.42C-871.75,492.42 -870.31,491.37 -869.43,485.03L-869.01,485.12L-870.02,491.54ZM-858.32,469.37C-857.56,469.37 -857.18,469.71 -857.18,470.47C-857.18,471.23 -858.07,473.04 -860.48,478.11L-857.27,478.11C-856.55,474.35 -856.42,471.52 -856.42,470.43C-856.42,467.64 -857.06,466.25 -858.32,466.25C-859.76,466.25 -860.81,467.30 -861.70,473.64L-862.12,473.55L-861.19,467.13L-861.19,466.67L-864.11,466.67L-864.11,492L-861.15,492L-861.15,475.87C-861.15,471.61 -859.67,469.37 -858.32,469.37ZM-846.97,473.64L-846.37,469.50C-846.08,467.39 -847.09,466.25 -848.44,466.25C-849.96,466.25 -851.27,467.30 -852.16,473.64L-852.58,473.55L-851.57,467.13L-851.57,466.67L-854.52,466.67L-854.52,492L-851.57,492L-851.57,475.96C-851.57,472.12 -850.68,469.12 -849.71,469.12C-849.08,469.12 -848.91,469.79 -848.91,471.31L-848.91,492L-845.95,492L-845.95,475.96C-845.95,472.12 -845.07,469.12 -844.09,469.12C-843.46,469.12 -843.29,469.79 -843.29,471.31L-843.29,492L-840.34,492L-840.34,469.67C-840.34,467.56 -841.39,466.25 -842.83,466.25C-844.35,466.25 -845.66,467.30 -846.54,473.72ZM-831.34,492L-828.39,492L-828.39,466.67L-831.34,466.67L-831.34,482.71C-831.34,486.64 -832.23,489.55 -833.41,489.55C-834.21,489.55 -834.42,488.88 -834.42,487.36L-834.42,466.67L-837.38,466.67L-837.38,489.00C-837.38,491.11 -836.24,492.42 -834.68,492.42C-833.07,492.42 -831.64,491.37 -830.75,485.03L-830.33,485.12L-831.34,491.54ZM-819.65,469.37C-818.89,469.37 -818.51,469.71 -818.51,470.47C-818.51,471.23 -819.39,473.04 -821.80,478.11L-818.59,478.11C-817.87,474.35 -817.75,471.52 -817.75,470.43C-817.75,467.64 -818.38,466.25 -819.65,466.25C-821.08,466.25 -822.14,467.30 -823.02,473.64L-823.45,473.55L-822.52,467.13L-822.52,466.67L-825.43,466.67L-825.43,492L-822.48,492L-822.48,475.87C-822.48,471.61 -821.00,469.37 -819.65,469.37ZM-807.83,471.23C-807.83,467.56 -809.05,466.25 -811.37,466.25C-813.90,466.25 -815.85,467.81 -815.85,471.99L-815.85,487.48C-815.85,491.11 -814.54,492.42 -811.96,492.42C-809.13,492.42 -807.78,489.38 -807.87,485.37L-807.99,480.31L-808.59,480.31L-808.71,485.25C-808.80,487.95 -809.35,489.55 -810.61,489.55C-811.79,489.55 -812.89,489.09 -812.89,486.05L-812.89,477.98L-807.83,477.98ZM-810.36,472.62L-810.36,477.39L-812.89,477.39L-812.89,471.57C-812.89,470.05 -812.68,469.12 -811.67,469.12C-810.82,469.12 -810.36,469.54 -810.36,472.62ZM-805.50,478.74L-798.41,478.74L-798.41,477.35L-805.50,477.35ZM-796.30,492L-793.13,492L-793.13,480.85C-791.82,480.26 -791.11,480.81 -790.94,481.87L-789.33,492L-786.12,492L-788.49,479.80L-791.06,480.14L-791.11,479.63C-788.66,478.49 -786.76,476.97 -786.76,473.64L-786.76,466.50C-786.76,462.66 -788.87,461.18 -792.50,461.18L-796.30,461.18ZM-792.33,479.38L-793.13,479.71L-793.13,464.05L-792.79,464.05C-790.68,464.05 -789.92,464.81 -789.92,467.56L-789.92,476.17C-789.92,477.65 -790.43,478.57 -792.33,479.38ZM-775.99,471.23C-775.99,467.56 -777.21,466.25 -779.54,466.25C-782.07,466.25 -784.01,467.81 -784.01,471.99L-784.01,487.48C-784.01,491.11 -782.70,492.42 -780.13,492.42C-777.30,492.42 -775.95,489.38 -776.03,485.37L-776.16,480.31L-776.75,480.31L-776.88,485.25C-776.96,487.95 -777.51,489.55 -778.78,489.55C-779.96,489.55 -781.06,489.09 -781.06,486.05L-781.06,477.98L-775.99,477.98ZM-778.52,472.62L-778.52,477.39L-781.06,477.39L-781.06,471.57C-781.06,470.05 -780.84,469.12 -779.83,469.12C-778.99,469.12 -778.52,469.54 -778.52,472.62ZM-764.63,472.45C-764.63,469.75 -766.24,468.19 -768.56,467.89L-768.56,467.39C-766.57,467.43 -765.10,468.02 -762.65,471.52L-762.65,466.67L-768.73,466.67C-771.22,466.67 -773.33,468.23 -773.33,472.37L-773.33,482.12C-773.33,484.27 -772.78,485.63 -771.77,486.39C-772.48,487.27 -773.71,488.33 -773.71,489.76C-773.71,490.86 -773.03,491.41 -772.06,491.66L-772.06,491.92C-773.20,492.42 -774.13,493.39 -774.13,494.91C-774.13,496.18 -773.12,497.49 -770.58,497.49C-767.08,497.49 -763.03,493.98 -763.03,491.75C-763.03,490.02 -764.25,489.13 -766.87,489.13L-771.34,489.13C-772.15,489.13 -772.40,488.92 -772.40,488.54C-772.40,488.12 -771.81,487.40 -771.09,486.72C-770.58,486.98 -769.95,487.06 -769.23,487.06C-766.74,487.06 -764.63,485.54 -764.63,481.57ZM-769.23,469.54C-768.39,469.54 -767.59,470.00 -767.59,473.04L-767.59,482.12C-767.59,483.60 -767.80,484.53 -768.73,484.53C-769.61,484.53 -770.37,484.06 -770.37,481.02L-770.37,471.95C-770.37,470.47 -770.16,469.54 -769.23,469.54ZM-771.77,493.22C-771.77,492.76 -771.56,492.34 -770.88,492L-766.87,492C-765.43,492 -765.10,492.59 -765.10,493.60C-765.10,494.45 -765.90,494.79 -767.84,494.79C-771.13,494.79 -771.77,494.07 -771.77,493.22ZM-755.13,492L-752.18,492L-752.18,466.67L-755.13,466.67L-755.13,482.71C-755.13,486.64 -756.02,489.55 -757.20,489.55C-758.00,489.55 -758.21,488.88 -758.21,487.36L-758.21,466.67L-761.17,466.67L-761.17,489.00C-761.17,491.11 -760.03,492.42 -758.47,492.42C-756.86,492.42 -755.43,491.37 -754.54,485.03L-754.12,485.12L-755.13,491.54ZM-746.26,461.18L-749.22,461.18L-749.22,492L-746.26,492ZM-739.00,466.25C-741.66,466.25 -743.73,469.33 -743.73,471.99C-743.73,473.93 -743.48,476.34 -742.63,478.36L-738.58,478.36C-742.04,474.86 -742.76,473.30 -742.76,471.52C-742.76,470.05 -742.21,469.12 -740.02,469.12C-738.62,469.12 -738.29,469.46 -738.29,470.81L-738.29,478.62C-741.62,481.74 -743.39,483.09 -743.39,486.51L-743.39,489.42C-743.39,491.45 -742.55,492.42 -740.94,492.42C-739.34,492.42 -738.29,491.41 -737.65,485.12L-737.23,485.20C-737.74,491.20 -736.98,492.42 -735.25,492.42C-733.26,492.42 -732.84,490.40 -732.88,487.74L-733.01,480.52L-733.60,480.52L-733.73,487.90C-733.77,489.30 -734.06,489.55 -734.44,489.55C-734.91,489.55 -735.33,489.30 -735.33,487.02L-735.33,469.71C-735.33,467.56 -736.55,466.25 -739.00,466.25ZM-739.72,489.34C-740.14,489.34 -740.44,489.09 -740.44,488.33L-740.44,484.11C-740.44,482.33 -740.14,481.32 -738.29,479.50L-738.29,482.88C-738.29,486.76 -738.79,489.34 -739.72,489.34ZM-724.99,469.37C-724.23,469.37 -723.85,469.71 -723.85,470.47C-723.85,471.23 -724.73,473.04 -727.14,478.11L-723.93,478.11C-723.21,474.35 -723.09,471.52 -723.09,470.43C-723.09,467.64 -723.72,466.25 -724.99,466.25C-726.42,466.25 -727.48,467.30 -728.36,473.64L-728.78,473.55L-727.86,467.13L-727.86,466.67L-730.77,466.67L-730.77,492L-727.81,492L-727.81,475.87C-727.81,471.61 -726.34,469.37 -724.99,469.37Z"/>
</svg>