<?xml version="1.0"?>
<svg xmlns="http://www.w3.org/2000/svg" width="1920" height="1080" viewBox="-960 -540 1920 1080">
    <path d="M-892.77,-147L-740.70,-147L-740.70,-171.42L-853.26,-171.42L-853.26,-220.93L-753.80,-220.93L-753.80,-245.12L-853.26,-245.12L-853.26,-295.30L-747.36,-295.30L-747.36,-319.49L-892.77,-319.49ZM-675.21,-221.81C-675.21,-221.81 -671.66,-248.68 -656.12,-248.68C-651.90,-248.68 -646.35,-246.68 -646.35,-237.58C-646.35,-220.70 -650.13,-208.27 -650.13,-208.27L-614.61,-217.37C-614.61,-217.37 -611.72,-225.59 -611.72,-240.91C-611.72,-258.22 -619.27,-273.10 -644.80,-273.10C-680.54,-273.10 -680.10,-235.36 -680.10,-235.36L-690.53,-270.21L-711.84,-270.21L-711.84,-147L-675.21,-147ZM-585.08,-291.30L-548.45,-291.30L-548.45,-319.49L-585.08,-319.49ZM-585.08,-147L-548.45,-147L-548.45,-270.21L-585.08,-270.21ZM-402.60,-196.95C-402.60,-196.95 -403.04,-168.53 -436.56,-168.53C-462.76,-168.53 -476.97,-184.52 -476.97,-208.72C-476.97,-230.69 -465.20,-248.68 -439.67,-248.68C-400.38,-248.68 -407.04,-205.39 -407.04,-205.39L-371.52,-214.49C-371.52,-214.49 -365.97,-273.10 -440.12,-273.10C-486.29,-273.10 -515.15,-245.35 -515.15,-208.72C-515.15,-166.98 -480.08,-144.11 -440.34,-144.11C-376.62,-144.11 -367.08,-187.85 -367.08,-187.85ZM-158.40,-319.49L-239.65,-319.49L-239.65,-147L-153.96,-147C-94.91,-147 -68.27,-164.54 -68.27,-197.39C-68.27,-230.25 -101.12,-236.02 -104.23,-236.47C-101.34,-236.91 -72.71,-242.46 -72.71,-271.32C-72.71,-304.18 -99.35,-319.49 -158.40,-319.49ZM-156.18,-247.34L-200.13,-247.34L-200.13,-295.30L-156.18,-295.30C-130.87,-295.30 -113.78,-289.08 -113.78,-271.32C-113.78,-253.56 -130.87,-247.34 -156.18,-247.34ZM-200.13,-171.42L-200.13,-223.81L-149.74,-223.81C-125.54,-223.81 -109.34,-214.93 -109.34,-197.62C-109.34,-179.86 -126.43,-171.42 -151.74,-171.42ZM-4.77,-206.50L103.12,-204.28C106.45,-221.81 102.67,-273.10 33.19,-273.10C-12.77,-273.10 -41.63,-245.35 -41.63,-208.72C-41.63,-166.98 -6.55,-144.11 33.19,-144.11C97.12,-144.11 106.45,-187.85 106.45,-187.85L70.93,-196.95C70.93,-196.95 70.71,-168.53 36.96,-168.53C6.99,-168.53 -4.55,-187.40 -4.77,-206.50ZM65.16,-226.03L-2.55,-223.81C-2.55,-223.81 1.89,-249.79 32.52,-249.79C62.05,-249.79 65.16,-226.03 65.16,-226.03ZM244.09,-147L280.72,-147L280.72,-222.48C280.72,-253.78 263.85,-273.10 223.00,-273.10C174.16,-273.10 171.49,-235.36 171.49,-235.36L161.06,-270.21L139.75,-270.21L139.75,-147L176.38,-147L176.38,-221.59C176.38,-221.59 183.93,-248.68 213.01,-248.68C232.77,-248.68 244.09,-240.68 244.09,-224.26ZM345.10,-196.28L309.58,-187.18C309.58,-187.18 312.47,-144.11 383.28,-144.11C418.80,-144.11 447.22,-157.43 447.22,-182.52C447.22,-200.72 435.45,-214.93 404.37,-220.04L373.29,-225.14C358.86,-227.59 349.76,-229.58 349.76,-236.91C349.76,-243.13 356.87,-249.79 372.41,-249.79C403.93,-249.79 405.04,-228.03 405.04,-228.03L440.56,-237.13C440.56,-237.13 435.45,-273.10 373.96,-273.10C341.55,-273.10 315.79,-259.11 315.79,-234.69C315.79,-212.27 337.77,-204.72 357.31,-201.17L386.17,-195.84C403.49,-192.73 411.03,-188.96 411.03,-181.41C411.03,-172.75 398.38,-168.53 383.73,-168.53C344.88,-168.53 345.10,-196.28 345.10,-196.28ZM469.42,-208.72C469.42,-172.53 497.84,-144.11 545.57,-144.11C593.74,-144.11 622.16,-172.53 622.16,-208.72C622.16,-244.68 593.74,-273.10 545.57,-273.10C497.84,-273.10 469.42,-244.68 469.42,-208.72ZM507.83,-208.72C507.83,-228.92 516.93,-248.68 545.57,-248.68C573.98,-248.68 583.75,-228.92 583.75,-208.72C583.75,-188.51 573.98,-168.53 545.57,-168.53C516.93,-168.53 507.83,-188.51 507.83,-208.72ZM759.79,-147L796.42,-147L796.42,-222.48C796.42,-253.78 779.55,-273.10 738.71,-273.10C689.87,-273.10 687.20,-235.36 687.20,-235.36L676.77,-270.21L655.46,-270.21L655.46,-147L692.09,-147L692.09,-221.59C692.09,-221.59 699.63,-248.68 728.72,-248.68C748.47,-248.68 759.79,-240.68 759.79,-224.26ZM-590.85,-12.38C-568.21,5.82 -548.45,25.58 -531.14,45.12L-600.18,109.94L-600.18,135.92L-465.87,135.92C-448.33,166.11 -440.11,186.98 -440.11,186.98L-400.15,176.10C-400.15,176.10 -408.37,159.89 -423.47,135.92L-399.93,135.92L-399.93,111.50L-439.67,111.50C-452.99,92.18 -469.42,70.43 -488.73,48.67L-425.24,-10.60L-425.24,-36.58L-590.85,-36.58ZM-469.64,-12.38L-510.49,25.80C-524.03,12.48 -538.46,-0.61 -554.22,-12.38ZM-480.96,111.50L-555.78,111.50L-510.93,69.54C-499.39,83.97 -489.62,98.40 -480.96,111.50ZM-279.17,135.92L-239.65,135.92L-239.65,61.99L-140.19,61.99L-140.19,37.79L-239.65,37.79L-239.65,-12.38L-133.98,-12.38L-133.98,-36.58L-279.17,-36.58ZM-72.93,61.10C-72.93,61.10 -69.38,34.24 -53.84,34.24C-49.62,34.24 -44.07,36.24 -44.07,45.34C-44.07,62.21 -47.84,74.64 -47.84,74.64L-12.32,65.54C-12.32,65.54 -9.43,57.33 -9.43,42.01C-9.43,24.69 -16.98,9.82 -42.51,9.82C-78.26,9.82 -77.81,47.56 -77.81,47.56L-88.24,12.71L-109.56,12.71L-109.56,135.92L-72.93,135.92ZM47.40,76.42L155.29,78.64C158.62,61.10 154.84,9.82 85.36,9.82C39.40,9.82 10.54,37.57 10.54,74.20C10.54,115.94 45.62,138.80 85.36,138.80C149.29,138.80 158.62,95.07 158.62,95.07L123.10,85.97C123.10,85.97 122.88,114.38 89.13,114.38C59.16,114.38 47.62,95.51 47.40,76.42ZM117.33,56.88L49.62,59.10C49.62,59.10 54.06,33.13 84.69,33.13C114.22,33.13 117.33,56.88 117.33,56.88ZM216.34,86.63L180.82,95.73C180.82,95.73 183.70,138.80 254.52,138.80C290.04,138.80 318.46,125.48 318.46,100.40C318.46,82.19 306.69,67.98 275.61,62.88L244.53,57.77C230.10,55.33 221.00,53.33 221.00,46.01C221.00,39.79 228.10,33.13 243.64,33.13C275.17,33.13 276.28,54.89 276.28,54.89L311.80,45.78C311.80,45.78 306.69,9.82 245.20,9.82C212.79,9.82 187.03,23.81 187.03,48.23C187.03,70.65 209.01,78.20 228.55,81.75L257.41,87.08C274.72,90.18 282.27,93.96 282.27,101.51C282.27,110.16 269.62,114.38 254.97,114.38C216.12,114.38 216.34,86.63 216.34,86.63ZM383.95,-39.69C383.95,-39.69 367.52,-36.58 347.32,-36.58L347.32,135.92L383.95,135.92L383.95,61.32C383.95,61.32 390.39,34.24 422.13,34.24C439.45,34.24 451.88,42.23 451.88,58.66L451.88,135.92L488.29,135.92L488.29,60.44C488.29,29.13 470.31,9.82 432.12,9.82C390.61,9.82 384.39,40.01 383.95,42.90ZM-381.84,246.34L-381.84,418.83L-342.32,418.83L-342.32,344.91L-300.59,344.91C-241.54,344.91 -214.90,328.48 -214.90,295.62C-214.90,262.77 -241.54,246.34 -300.59,246.34ZM-342.32,320.71L-342.32,270.54L-298.37,270.54C-273.06,270.54 -255.97,277.86 -255.97,295.62C-255.97,313.38 -273.06,320.71 -298.37,320.71ZM-153.85,344.02C-153.85,344.02 -150.29,317.16 -134.75,317.16C-130.54,317.16 -124.99,319.16 -124.99,328.26C-124.99,345.13 -128.76,357.56 -128.76,357.56L-93.24,348.46C-93.24,348.46 -90.35,340.25 -90.35,324.93C-90.35,307.61 -97.90,292.74 -123.43,292.74C-159.17,292.74 -158.73,330.48 -158.73,330.48L-169.16,295.62L-190.48,295.62L-190.48,418.83L-153.85,418.83ZM-33.52,359.34L74.37,361.56C77.70,344.02 73.93,292.74 4.44,292.74C-41.51,292.74 -70.37,320.49 -70.37,357.12C-70.37,398.85 -35.30,421.72 4.44,421.72C68.38,421.72 77.70,377.99 77.70,377.99L42.18,368.88C42.18,368.88 41.96,397.30 8.21,397.30C-21.76,397.30 -33.30,378.43 -33.52,359.34ZM36.41,339.80L-31.30,342.02C-31.30,342.02 -26.86,316.05 3.77,316.05C33.30,316.05 36.41,339.80 36.41,339.80ZM135.42,369.55L99.90,378.65C99.90,378.65 102.79,421.72 173.60,421.72C209.12,421.72 237.54,408.40 237.54,383.31C237.54,365.11 225.77,350.90 194.69,345.80L163.61,340.69C149.18,338.25 140.08,336.25 140.08,328.92C140.08,322.71 147.19,316.05 162.73,316.05C194.25,316.05 195.36,337.80 195.36,337.80L230.88,328.70C230.88,328.70 225.77,292.74 164.28,292.74C131.87,292.74 106.12,306.72 106.12,331.14C106.12,353.57 128.09,361.11 147.63,364.67L176.49,369.99C193.81,373.10 201.35,376.88 201.35,384.42C201.35,393.08 188.70,397.30 174.05,397.30C135.20,397.30 135.42,369.55 135.42,369.55ZM290.82,369.55L255.30,378.65C255.30,378.65 258.19,421.72 329.00,421.72C364.52,421.72 392.94,408.40 392.94,383.31C392.94,365.11 381.17,350.90 350.09,345.80L319.01,340.69C304.58,338.25 295.48,336.25 295.48,328.92C295.48,322.71 302.59,316.05 318.13,316.05C349.65,316.05 350.76,337.80 350.76,337.80L386.28,328.70C386.28,328.70 381.17,292.74 319.68,292.74C287.27,292.74 261.52,306.72 261.52,331.14C261.52,353.57 283.49,361.11 303.03,364.67L331.89,369.99C349.21,373.10 356.75,376.88 356.75,384.42C356.75,393.08 344.10,397.30 329.45,397.30C290.60,397.30 290.82,369.55 290.82,369.55Z" fill="#ffffff" stroke="#000000"/>
    <path d="M-884.63,-171.66L-734.16,-166.72L-733.37,-190.88L-844.74,-194.54L-843.13,-243.52L-744.73,-240.29L-743.94,-264.24L-842.35,-267.46L-840.72,-317.11L-735.94,-313.67L-735.16,-337.61L-879.03,-342.33ZM-666.94,-238.62C-666.94,-238.62 -662.55,-265.08 -647.17,-264.58C-643.00,-264.44 -637.57,-262.29 -637.87,-253.28C-638.42,-236.59 -642.55,-224.41 -642.55,-224.41L-607.11,-232.26C-607.11,-232.26 -603.99,-240.29 -603.49,-255.45C-602.93,-272.58 -609.92,-287.55 -635.18,-288.37C-670.54,-289.54 -671.33,-252.18 -671.33,-252.18L-680.52,-287.00L-701.61,-287.70L-705.61,-165.78L-669.36,-164.59ZM-575.50,-304.45L-539.25,-303.26L-538.34,-331.16L-574.58,-332.35ZM-580.18,-161.67L-543.94,-160.48L-539.94,-282.39L-576.18,-283.58ZM-398.00,-205.17C-398.00,-205.17 -399.36,-177.07 -432.53,-178.16C-458.45,-179.01 -471.99,-195.28 -471.20,-219.23C-470.49,-240.97 -458.26,-258.38 -433.00,-257.55C-394.12,-256.28 -402.12,-213.66 -402.12,-213.66L-366.68,-221.51C-366.68,-221.51 -359.28,-279.32 -432.65,-281.73C-478.34,-283.23 -507.80,-256.71 -508.99,-220.46C-510.34,-179.17 -476.38,-155.40 -437.06,-154.12C-374.01,-152.05 -363.15,-195.01 -363.15,-195.01ZM-152.39,-318.50L-232.79,-321.13L-238.39,-150.46L-153.60,-147.68C-95.17,-145.76 -68.24,-162.25 -67.17,-194.76C-66.11,-227.27 -98.43,-234.04 -101.49,-234.58C-98.62,-234.93 -70.10,-239.49 -69.17,-268.05C-68.10,-300.56 -93.96,-316.58 -152.39,-318.50ZM-152.54,-247.03L-196.03,-248.46L-194.47,-295.91L-150.98,-294.48C-125.94,-293.66 -109.23,-286.95 -109.80,-269.38C-110.38,-251.81 -127.50,-246.21 -152.54,-247.03ZM-198.50,-173.34L-196.79,-225.18L-146.93,-223.54C-122.99,-222.76 -107.24,-213.44 -107.80,-196.31C-108.38,-178.74 -125.57,-170.94 -150.61,-171.77ZM-4.05,-201.70L102.63,-196.00C106.49,-213.25 104.42,-264.11 35.67,-266.37C-9.80,-267.86 -39.26,-241.34 -40.45,-205.10C-41.80,-163.80 -7.84,-140.04 31.48,-138.75C94.75,-136.67 105.39,-179.64 105.39,-179.64L70.54,-189.80C70.54,-189.80 69.40,-161.69 36.01,-162.79C6.36,-163.76 -4.45,-182.80 -4.05,-201.70ZM65.77,-218.76L-1.30,-218.76C-1.30,-218.76 3.94,-244.32 34.25,-243.33C63.47,-242.37 65.77,-218.76 65.77,-218.76ZM240.26,-134.76L276.50,-133.57L278.95,-208.25C279.97,-239.22 263.90,-258.88 223.48,-260.21C175.15,-261.79 171.29,-224.54 171.29,-224.54L162.10,-259.36L141.01,-260.05L137.01,-138.14L173.26,-136.95L175.68,-210.76C175.68,-210.76 184.03,-237.31 212.80,-236.37C232.35,-235.73 243.30,-227.45 242.76,-211.20ZM341.80,-180.24L306.36,-172.39C306.36,-172.39 307.82,-129.68 377.89,-127.38C413.04,-126.23 441.58,-138.49 442.40,-163.31C442.99,-181.32 431.81,-195.76 401.22,-201.82L370.63,-207.88C356.44,-210.77 347.49,-213.04 347.73,-220.29C347.93,-226.44 355.18,-232.80 370.56,-232.29C401.75,-231.27 402.14,-209.71 402.14,-209.71L437.58,-217.56C437.58,-217.56 433.70,-253.31 372.85,-255.31C340.78,-256.36 314.84,-243.36 314.05,-219.19C313.32,-197.01 334.83,-188.83 354.04,-184.68L382.42,-178.47C399.46,-174.83 406.80,-170.85 406.56,-163.38C406.28,-154.82 393.62,-151.05 379.12,-151.53C340.68,-152.79 341.80,-180.24 341.80,-180.24ZM465.22,-188.51C464.04,-152.70 491.24,-123.66 538.46,-122.11C586.13,-120.55 615.17,-147.75 616.34,-183.55C617.51,-219.14 590.32,-248.17 542.65,-249.74C495.42,-251.29 466.38,-224.09 465.22,-188.51ZM503.22,-187.26C503.87,-207.25 513.52,-226.50 541.86,-225.58C569.97,-224.65 579.00,-204.79 578.34,-184.80C577.69,-164.81 567.37,-145.35 539.26,-146.28C510.92,-147.21 502.56,-167.27 503.22,-187.26ZM750.53,-118.02L786.77,-116.83L789.22,-191.51C790.24,-222.49 774.17,-242.14 733.75,-243.47C685.43,-245.05 681.57,-207.80 681.57,-207.80L672.38,-242.62L651.29,-243.32L647.29,-121.40L683.53,-120.21L685.95,-194.02C685.95,-194.02 694.30,-220.57 723.08,-219.63C742.63,-218.99 753.57,-210.71 753.04,-194.46ZM-590.26,-28.65C-568.45,-9.91 -549.54,10.29 -533.04,30.18L-603.46,92.08L-604.30,117.78L-471.41,122.14C-455.03,152.58 -447.58,173.50 -447.58,173.50L-407.69,164.03C-407.69,164.03 -415.29,147.73 -429.45,123.51L-406.17,124.28L-405.37,100.12L-444.69,98.83C-457.25,79.28 -472.80,57.22 -491.20,35.07L-426.45,-21.52L-425.61,-47.22L-589.48,-52.60ZM-470.33,-24.72L-511.98,11.74C-524.95,-1.88 -538.80,-15.31 -554.02,-27.46ZM-485.55,97.49L-559.58,95.06L-513.84,55.00C-502.89,69.65 -493.69,84.24 -485.55,97.49ZM-286.67,128.20L-247.57,129.48L-245.17,56.33L-146.76,59.56L-145.98,35.62L-244.39,32.39L-242.76,-17.25L-138.20,-13.82L-137.41,-37.77L-281.07,-42.48ZM-80.18,60.87C-80.18,60.87 -75.79,34.40 -60.41,34.91C-56.24,35.04 -50.81,37.20 -51.11,46.21C-51.66,62.90 -55.79,75.08 -55.79,75.08L-20.35,67.23C-20.35,67.23 -17.23,59.19 -16.73,44.04C-16.17,26.90 -23.16,11.94 -48.42,11.11C-83.78,9.95 -84.57,47.31 -84.57,47.31L-93.76,12.48L-114.85,11.79L-118.85,133.70L-82.60,134.89ZM38.38,79.93L145.07,85.63C148.93,68.38 146.86,17.52 78.11,15.26C32.64,13.77 3.18,40.29 1.99,76.54C0.64,117.83 34.60,141.60 73.92,142.89C137.18,144.96 147.83,101.99 147.83,101.99L112.98,91.83C112.98,91.83 111.84,119.94 78.45,118.84C48.79,117.87 37.98,98.83 38.38,79.93ZM108.21,62.87L41.14,62.87C41.14,62.87 46.38,37.31 76.69,38.30C105.91,39.26 108.21,62.87 108.21,62.87ZM205.21,95.52L169.77,103.37C169.77,103.37 171.23,146.08 241.30,148.38C276.45,149.53 305.00,137.27 305.81,112.45C306.40,94.44 295.22,80.00 264.64,73.94L234.05,67.88C219.85,64.99 210.91,62.72 211.15,55.47C211.35,49.32 218.59,42.96 233.97,43.46C265.16,44.49 265.55,66.05 265.55,66.05L300.99,58.20C300.99,58.20 297.11,22.45 236.26,20.45C204.19,19.40 178.26,32.40 177.47,56.56C176.74,78.75 198.24,86.93 217.45,91.08L245.84,97.29C262.87,100.93 270.22,104.90 269.97,112.37C269.69,120.94 257.03,124.70 242.53,124.23C204.09,122.97 205.21,95.52 205.21,95.52ZM375.16,-24.03C375.16,-24.03 358.80,-21.49 338.81,-22.14L333.22,148.53L369.46,149.72L371.88,75.91C371.88,75.91 379.13,49.33 410.54,50.36C427.67,50.92 439.72,59.23 439.18,75.48L436.68,151.93L472.70,153.11L475.15,78.42C476.17,47.45 459.00,27.76 421.22,26.52C380.14,25.17 373.01,54.84 372.48,57.68ZM-391.85,234.12L-397.45,404.80L-358.35,406.08L-355.95,332.94L-314.65,334.29C-256.22,336.21 -229.33,320.82 -228.26,288.31C-227.20,255.80 -253.02,238.68 -311.45,236.76ZM-355.16,308.99L-353.53,259.35L-310.04,260.78C-285.00,261.60 -268.32,269.40 -268.90,286.98C-269.48,304.55 -286.63,311.24 -311.67,310.42ZM-169.43,338.18C-169.43,338.18 -165.04,311.71 -149.66,312.22C-145.49,312.35 -140.06,314.51 -140.36,323.52C-140.91,340.21 -145.04,352.39 -145.04,352.39L-109.60,344.54C-109.60,344.54 -106.48,336.50 -105.98,321.35C-105.42,304.21 -112.41,289.25 -137.67,288.42C-173.03,287.26 -173.82,324.62 -173.82,324.62L-183.01,289.79L-204.10,289.10L-208.10,411.01L-171.85,412.20ZM-50.87,357.24L55.82,362.94C59.68,345.69 57.61,294.83 -11.14,292.57C-56.61,291.08 -86.07,317.60 -87.26,353.85C-88.61,395.14 -54.65,418.91 -15.33,420.20C47.93,422.27 58.58,379.30 58.58,379.30L23.73,369.14C23.73,369.14 22.59,397.25 -10.80,396.16C-40.46,395.18 -51.27,376.14 -50.87,357.24ZM18.96,340.18L-48.11,340.18C-48.11,340.18 -42.87,314.62 -12.56,315.62C16.66,316.57 18.96,340.18 18.96,340.18ZM115.96,372.83L80.52,380.68C80.52,380.68 81.98,423.39 152.05,425.69C187.20,426.84 215.75,414.58 216.56,389.76C217.15,371.75 205.97,357.31 175.39,351.25L144.80,345.19C130.60,342.30 121.66,340.03 121.90,332.78C122.10,326.63 129.34,320.27 144.72,320.77C175.91,321.80 176.30,343.36 176.30,343.36L211.75,335.51C211.75,335.51 207.86,299.76 147.01,297.76C114.94,296.71 89.01,309.71 88.22,333.87C87.49,356.06 108.99,364.24 128.20,368.39L156.59,374.60C173.62,378.24 180.97,382.22 180.72,389.68C180.44,398.25 167.78,402.01 153.29,401.54C114.84,400.28 115.96,372.83 115.96,372.83ZM269.73,377.87L234.29,385.72C234.29,385.72 235.74,428.43 305.82,430.73C340.96,431.88 369.51,419.63 370.33,394.80C370.92,376.79 359.74,362.35 329.15,356.29L298.56,350.23C284.36,347.34 275.42,345.07 275.66,337.82C275.86,331.67 283.11,325.31 298.48,325.82C329.67,326.84 330.07,348.40 330.07,348.40L365.51,340.55C365.51,340.55 361.62,304.80 300.78,302.80C268.71,301.75 242.77,314.76 241.98,338.92C241.25,361.10 262.75,369.29 281.97,373.43L310.35,379.64C327.38,383.28 334.73,387.26 334.48,394.73C334.20,403.29 321.55,407.06 307.05,406.58C268.61,405.32 269.73,377.87 269.73,377.87Z" fill="#ffffff" stroke="#000000"/>
    <path d="M-875.72,-195.99L-727.01,-186.23L-725.44,-210.11L-835.50,-217.34L-832.33,-265.75L-735.07,-259.36L-733.51,-283.02L-830.77,-289.41L-827.55,-338.47L-724.00,-331.67L-722.44,-355.33L-864.64,-364.67ZM-658.16,-255.18C-658.16,-255.18 -652.96,-281.22 -637.76,-280.22C-633.64,-279.95 -628.34,-277.64 -628.93,-268.74C-630.01,-252.24 -634.50,-240.33 -634.50,-240.33L-599.18,-246.95C-599.18,-246.95 -595.83,-254.79 -594.85,-269.77C-593.73,-286.71 -600.16,-301.74 -625.12,-303.37C-660.08,-305.67 -662.07,-268.74 -662.07,-268.74L-670.03,-303.49L-690.87,-304.86L-698.79,-184.37L-662.97,-182.02ZM-565.56,-317.34L-529.74,-314.99L-527.93,-342.56L-563.75,-344.91ZM-574.83,-176.23L-539.01,-173.88L-531.09,-294.36L-566.91,-296.72ZM-393.17,-213.36C-393.17,-213.36 -395.43,-185.60 -428.21,-187.75C-453.82,-189.43 -466.69,-205.98 -465.14,-229.64C-463.73,-251.13 -451.07,-267.96 -426.10,-266.32C-387.67,-263.80 -396.97,-221.89 -396.97,-221.89L-361.65,-228.51C-361.65,-228.51 -352.46,-285.47 -424.97,-290.23C-470.12,-293.19 -500.13,-267.91 -502.48,-232.09C-505.16,-191.28 -472.33,-166.66 -433.47,-164.11C-371.16,-160.02 -359.02,-202.17 -359.02,-202.17ZM-146.50,-317.51L-225.95,-322.73L-237.03,-154.05L-153.23,-148.54C-95.49,-144.75 -68.31,-160.19 -66.20,-192.32C-64.09,-224.45 -95.85,-232.20 -98.86,-232.84C-96.01,-233.08 -67.65,-236.67 -65.79,-264.89C-63.68,-297.02 -88.75,-313.71 -146.50,-317.51ZM-148.96,-246.81L-191.94,-249.63L-188.86,-296.53L-145.88,-293.70C-121.13,-292.08 -104.81,-284.90 -105.95,-267.53C-107.09,-250.17 -124.21,-245.18 -148.96,-246.81ZM-196.82,-175.39L-193.45,-226.62L-144.17,-223.38C-120.51,-221.83 -105.23,-212.11 -106.35,-195.17C-107.49,-177.81 -124.74,-170.65 -149.49,-172.28ZM-3.53,-197.14L101.84,-188.04C106.22,-204.98 105.82,-255.37 37.87,-259.83C-7.06,-262.78 -37.07,-237.50 -39.42,-201.68C-42.10,-160.87 -9.27,-136.25 29.59,-133.70C92.11,-129.59 104.04,-171.76 104.04,-171.76L69.89,-182.94C69.89,-182.94 67.85,-155.17 34.85,-157.34C5.54,-159.26 -4.53,-178.46 -3.53,-197.14ZM66.11,-211.75L-0.24,-213.93C-0.24,-213.93 5.77,-239.05 35.73,-237.08C64.60,-235.18 66.11,-211.75 66.11,-211.75ZM236.01,-122.98L271.83,-120.62L276.68,-194.44C278.69,-225.05 263.43,-245.02 223.49,-247.64C175.73,-250.78 170.70,-214.04 170.70,-214.04L162.73,-248.80L141.89,-250.16L133.98,-129.68L169.80,-127.33L174.59,-200.27C174.59,-200.27 183.71,-226.27 212.15,-224.40C231.47,-223.13 242.03,-214.59 240.98,-198.52ZM337.96,-164.68L302.64,-158.06C302.64,-158.06 302.69,-115.76 371.95,-111.21C406.68,-108.93 435.32,-120.13 436.93,-144.67C438.10,-162.47 427.51,-177.12 397.45,-184.11L367.38,-191.10C353.43,-194.41 344.65,-196.95 345.12,-204.11C345.52,-210.19 352.90,-216.25 368.10,-215.25C398.92,-213.22 398.61,-191.88 398.61,-191.88L433.93,-198.50C433.93,-198.50 431.25,-233.99 371.11,-237.94C339.42,-240.03 313.34,-228.00 311.77,-204.12C310.33,-182.20 331.33,-173.40 350.21,-168.68L378.09,-161.61C394.82,-157.46 401.96,-153.29 401.48,-145.90C400.92,-137.44 388.28,-134.13 373.95,-135.07C335.96,-137.56 337.96,-164.68 337.96,-164.68ZM460.33,-168.86C458.00,-133.47 483.97,-103.86 530.64,-100.79C577.75,-97.70 607.36,-123.66 609.69,-159.05C612.00,-194.22 586.03,-223.83 538.92,-226.92C492.25,-229.99 462.64,-204.03 460.33,-168.86ZM497.88,-166.39C499.18,-186.15 509.35,-204.88 537.36,-203.04C565.14,-201.22 573.43,-181.27 572.13,-161.51C570.83,-141.76 560.00,-122.85 532.21,-124.67C504.20,-126.51 496.59,-146.63 497.88,-166.39ZM740.32,-89.86L776.14,-87.50L780.99,-161.31C783.00,-191.92 767.74,-211.89 727.79,-214.52C680.03,-217.65 675.01,-180.92 675.01,-180.92L667.04,-215.67L646.20,-217.04L638.29,-96.56L674.11,-94.20L678.90,-167.15C678.90,-167.15 688.02,-193.15 716.46,-191.28C735.78,-190.01 746.34,-181.47 745.28,-165.40ZM-589.12,-44.96C-568.14,-25.70 -550.09,-5.11 -534.41,15.11L-606.09,74.06L-607.76,99.46L-476.42,108.09C-461.21,138.74 -454.51,159.67 -454.51,159.67L-414.74,151.60C-414.74,151.60 -421.73,135.23 -434.95,110.81L-411.94,112.32L-410.37,88.44L-449.23,85.89C-461.02,66.15 -475.68,43.82 -493.17,21.30L-427.28,-32.58L-425.61,-57.98L-587.56,-68.62ZM-470.58,-37.17L-512.98,-2.46C-525.37,-16.35 -538.64,-30.09 -553.30,-42.60ZM-489.61,83.24L-562.77,78.43L-516.22,40.28C-505.86,55.14 -497.24,69.87 -489.61,83.24ZM-293.84,120.08L-255.20,122.62L-250.45,50.33L-153.20,56.71L-151.64,33.05L-248.90,26.66L-245.68,-22.40L-142.34,-15.61L-140.79,-39.28L-282.76,-48.60ZM-87.36,60.16C-87.36,60.16 -82.16,34.12 -66.96,35.12C-62.84,35.39 -57.54,37.70 -58.12,46.60C-59.21,63.10 -63.70,75.02 -63.70,75.02L-28.38,68.40C-28.38,68.40 -25.03,60.55 -24.04,45.57C-22.93,28.64 -29.36,13.61 -54.32,11.97C-89.28,9.67 -91.27,46.61 -91.27,46.61L-99.23,11.85L-120.07,10.49L-127.98,130.97L-92.16,133.32ZM29.32,82.87L134.69,91.97C139.07,75.04 138.67,24.65 70.72,20.18C25.78,17.23 -4.22,42.51 -6.57,78.33C-9.25,119.15 23.58,143.76 62.44,146.31C124.96,150.42 136.89,108.25 136.89,108.25L102.74,97.07C102.74,97.07 100.69,124.84 67.70,122.68C38.39,120.75 28.31,101.56 29.32,82.87ZM98.96,68.26L32.60,66.08C32.60,66.08 38.61,40.97 68.57,42.93C97.45,44.83 98.96,68.26 98.96,68.26ZM193.87,103.71L158.55,110.33C158.55,110.33 158.61,152.63 227.86,157.18C262.60,159.46 291.24,148.26 292.85,123.73C294.02,105.93 283.43,91.28 253.36,84.29L223.30,77.30C209.34,73.98 200.57,71.44 201.04,64.28C201.44,58.20 208.81,52.15 224.01,53.14C254.84,55.17 254.53,76.51 254.53,76.51L289.85,69.89C289.85,69.89 287.16,34.40 227.03,30.45C195.33,28.37 169.25,40.39 167.68,64.27C166.24,86.20 187.25,94.99 206.13,99.72L234.01,106.78C250.74,110.93 257.88,115.11 257.39,122.49C256.84,130.96 244.19,134.27 229.86,133.33C191.87,130.83 193.87,103.71 193.87,103.71ZM365.89,-9.05C365.89,-9.05 349.63,-7.07 329.87,-8.37L318.79,160.32L354.61,162.67L359.40,89.73C359.40,89.73 367.44,63.65 398.48,65.69C415.41,66.80 427.06,75.42 426.00,91.48L421.04,167.03L456.64,169.37L461.49,95.56C463.50,64.95 447.16,44.91 409.82,42.45C369.22,39.79 361.21,68.91 360.59,71.71ZM-401.34,221.47L-412.42,390.15L-373.78,392.69L-369.03,320.39L-328.22,323.07C-270.47,326.87 -243.36,312.51 -241.25,280.38C-239.14,248.25 -264.14,230.48 -321.88,226.68ZM-367.47,296.73L-364.25,247.67L-321.27,250.49C-296.52,252.12 -280.27,260.38 -281.41,277.75C-282.55,295.11 -299.74,301.18 -324.49,299.55ZM-184.66,331.63C-184.66,331.63 -179.46,305.59 -164.26,306.59C-160.14,306.86 -154.84,309.17 -155.43,318.07C-156.51,334.57 -161.00,346.48 -161.00,346.48L-125.68,339.86C-125.68,339.86 -122.33,332.02 -121.35,317.04C-120.23,300.10 -126.66,285.07 -151.62,283.44C-186.58,281.14 -188.57,318.07 -188.57,318.07L-196.53,283.32L-217.37,281.95L-225.29,402.44L-189.47,404.79ZM-67.98,354.34L37.38,363.44C41.77,346.50 41.37,296.11 -26.58,291.65C-71.52,288.70 -101.52,313.98 -103.87,349.80C-106.56,390.61 -73.72,415.23 -34.86,417.78C27.66,421.88 39.59,379.72 39.59,379.72L5.44,368.53C5.44,368.53 3.39,396.31 -29.60,394.14C-58.91,392.22 -68.99,373.02 -67.98,354.34ZM1.66,339.72L-64.70,337.55C-64.70,337.55 -58.69,312.43 -28.73,314.40C0.15,316.30 1.66,339.72 1.66,339.72ZM96.57,375.17L61.25,381.79C61.25,381.79 61.31,424.09 130.56,428.64C165.30,430.92 193.94,419.72 195.55,395.19C196.72,377.39 186.13,362.74 156.06,355.75L126.00,348.76C112.04,345.45 103.27,342.91 103.74,335.75C104.14,329.67 111.51,323.61 126.71,324.61C157.54,326.63 157.23,347.98 157.23,347.98L192.54,341.36C192.54,341.36 189.86,305.86 129.73,301.91C98.03,299.83 71.95,311.85 70.38,335.74C68.94,357.66 89.95,366.45 108.83,371.18L136.71,378.25C153.44,382.40 160.58,386.57 160.09,393.95C159.54,402.42 146.89,405.73 132.56,404.79C94.57,402.30 96.57,375.17 96.57,375.17ZM248.54,385.15L213.22,391.77C213.22,391.77 213.27,434.08 282.53,438.62C317.26,440.91 345.90,429.70 347.51,405.17C348.68,387.37 338.09,372.72 308.03,365.73L277.96,358.74C264.01,355.43 255.23,352.89 255.70,345.73C256.10,339.65 263.48,333.59 278.67,334.59C309.50,336.61 309.19,357.96 309.19,357.96L344.51,351.34C344.51,351.34 341.83,315.84 281.69,311.89C250.00,309.81 223.92,321.84 222.35,345.72C220.91,367.64 241.91,376.43 260.79,381.16L288.67,388.23C305.40,392.38 312.54,396.55 312.06,403.93C311.50,412.40 298.86,415.71 284.53,414.77C246.54,412.28 248.54,385.15 248.54,385.15Z" fill="#ffffff" stroke="#000000"/>
    <path d="M-866.03,-219.98L-719.24,-205.49L-716.91,-229.07L-825.56,-239.79L-820.84,-287.58L-724.84,-278.10L-722.53,-301.46L-818.54,-310.94L-813.76,-359.37L-711.54,-349.28L-709.23,-372.64L-849.60,-386.49ZM-648.89,-271.47C-648.89,-271.47 -642.90,-297.07 -627.90,-295.59C-623.83,-295.18 -618.66,-292.73 -619.53,-283.94C-621.14,-267.65 -625.97,-256.01 -625.97,-256.01L-590.81,-261.41C-590.81,-261.41 -587.24,-269.07 -585.78,-283.85C-584.13,-300.57 -590.00,-315.65 -614.65,-318.08C-649.15,-321.48 -652.32,-285.01 -652.32,-285.01L-659.07,-319.65L-679.64,-321.68L-691.38,-202.75L-656.02,-199.26ZM-555.27,-329.96L-519.91,-326.47L-517.22,-353.69L-552.58,-357.18ZM-569.01,-190.67L-533.65,-187.18L-521.92,-306.11L-557.27,-309.60ZM-388.10,-221.50C-388.10,-221.50 -391.24,-194.11 -423.60,-197.31C-448.88,-199.80 -461.08,-216.59 -458.77,-239.94C-456.68,-261.16 -443.60,-277.40 -418.96,-274.96C-381.03,-271.22 -391.58,-230.07 -391.58,-230.07L-356.43,-235.47C-356.43,-235.47 -345.49,-291.52 -417.06,-298.58C-461.64,-302.98 -492.14,-278.94 -495.63,-243.58C-499.61,-203.29 -467.92,-177.88 -429.57,-174.09C-368.06,-168.02 -354.68,-209.33 -354.68,-209.33ZM-140.70,-316.53L-219.13,-324.27L-235.56,-157.76L-152.84,-149.60C-95.84,-143.97 -68.45,-158.36 -65.32,-190.08C-62.19,-221.79 -93.36,-230.50 -96.32,-231.22C-93.49,-231.37 -65.32,-234.00 -62.57,-261.86C-59.44,-293.58 -83.69,-310.90 -140.70,-316.53ZM-145.43,-246.67L-187.86,-250.86L-183.29,-297.15L-140.86,-292.96C-116.43,-290.55 -100.52,-282.92 -102.21,-265.77C-103.90,-248.63 -121.00,-244.26 -145.43,-246.67ZM-195.09,-177.57L-190.10,-228.14L-141.46,-223.34C-118.10,-221.04 -103.30,-210.92 -104.95,-194.20C-106.64,-177.06 -123.95,-170.55 -148.38,-172.96ZM-3.17,-192.81L100.77,-180.39C105.66,-197.00 106.90,-246.87 39.82,-253.49C-4.54,-257.87 -35.04,-233.83 -38.53,-198.47C-42.51,-158.18 -10.83,-132.77 27.53,-128.98C89.25,-122.89 102.42,-164.22 102.42,-164.22L69.00,-176.39C69.00,-176.39 66.08,-148.98 33.50,-152.19C4.57,-155.05 -4.77,-174.36 -3.17,-192.81ZM66.20,-205.01L0.63,-209.32C0.63,-209.32 7.39,-233.97 36.96,-231.05C65.46,-228.24 66.20,-205.01 66.20,-205.01ZM231.39,-111.67L266.75,-108.18L273.94,-181.05C276.93,-211.26 262.48,-231.51 223.05,-235.40C175.90,-240.06 169.74,-203.88 169.74,-203.88L162.98,-238.52L142.41,-240.55L130.67,-121.61L166.03,-118.12L173.14,-190.13C173.14,-190.13 183.00,-215.55 211.08,-212.78C230.15,-210.90 240.32,-202.11 238.75,-186.25ZM333.59,-149.62L298.44,-144.22C298.44,-144.22 297.12,-102.37 365.48,-95.63C399.77,-92.24 428.47,-102.39 430.86,-126.61C432.60,-144.18 422.59,-159.02 393.08,-166.91L363.56,-174.80C349.86,-178.53 341.27,-181.32 341.97,-188.40C342.56,-194.40 350.05,-200.15 365.05,-198.67C395.48,-195.67 394.48,-174.56 394.48,-174.56L429.63,-179.96C429.63,-179.96 428.13,-215.16 368.77,-221.02C337.48,-224.11 311.29,-213.06 308.97,-189.49C306.83,-167.85 327.33,-158.47 345.85,-153.18L373.20,-145.28C389.62,-140.63 396.54,-136.27 395.82,-128.98C395.00,-120.63 382.38,-117.76 368.24,-119.16C330.74,-122.86 333.59,-149.62 333.59,-149.62ZM454.79,-149.78C451.34,-114.85 476.06,-84.71 522.14,-80.17C568.64,-75.58 598.78,-100.30 602.22,-135.23C605.65,-169.95 580.93,-200.08 534.42,-204.67C488.35,-209.22 458.21,-184.50 454.79,-149.78ZM491.86,-146.12C493.78,-165.62 504.45,-183.83 532.10,-181.10C559.53,-178.39 567.07,-158.39 565.15,-138.89C563.23,-119.39 551.89,-101.03 524.46,-103.74C496.82,-106.47 489.94,-126.62 491.86,-146.12ZM729.21,-62.54L764.57,-59.05L771.76,-131.91C774.74,-162.13 760.30,-182.38 720.86,-186.27C673.72,-190.93 667.55,-154.75 667.55,-154.75L660.80,-189.39L640.23,-191.42L628.49,-72.48L663.85,-68.99L670.95,-141.00C670.95,-141.00 680.82,-166.42 708.89,-163.65C727.97,-161.77 738.13,-152.98 736.57,-137.12ZM-587.41,-61.27C-567.29,-41.54 -550.10,-20.58 -535.24,-0.07L-608.06,55.92L-610.54,81.00L-480.89,93.79C-466.83,124.61 -460.89,145.53 -460.89,145.53L-421.28,138.84C-421.28,138.84 -427.67,122.41 -439.96,97.83L-417.24,100.07L-414.91,76.50L-453.27,72.71C-464.29,52.80 -478.08,30.23 -494.65,7.39L-427.71,-43.78L-425.24,-68.85L-585.10,-84.63ZM-470.40,-49.72L-513.47,-16.75C-525.27,-30.90 -537.96,-44.92 -552.05,-57.78ZM-493.13,68.78L-565.35,61.65L-518.07,25.42C-508.30,40.45 -500.24,55.31 -493.13,68.78ZM-300.66,111.58L-262.52,115.34L-255.47,43.98L-159.47,53.46L-157.16,30.10L-253.17,20.62L-248.39,-27.81L-146.38,-17.74L-144.08,-41.10L-284.23,-54.93ZM-94.45,59.01C-94.45,59.01 -88.46,33.42 -73.46,34.90C-69.39,35.30 -64.22,37.76 -65.09,46.54C-66.70,62.83 -71.53,74.47 -71.53,74.47L-36.37,69.07C-36.37,69.07 -32.80,61.41 -31.34,46.63C-29.69,29.91 -35.56,14.84 -60.21,12.40C-94.71,9.00 -97.88,45.47 -97.88,45.47L-104.63,10.83L-125.20,8.80L-136.94,127.74L-101.58,131.23ZM20.24,85.26L124.18,97.68C129.06,81.07 130.30,31.21 63.23,24.59C18.87,20.21 -11.63,44.25 -15.12,79.60C-19.10,119.89 12.58,145.31 50.94,149.09C112.66,155.18 125.83,113.86 125.83,113.86L92.41,101.69C92.41,101.69 89.48,129.09 56.91,125.88C27.98,123.02 18.63,103.71 20.24,85.26ZM89.60,73.06L24.03,68.75C24.03,68.75 30.79,44.10 60.37,47.02C88.87,49.84 89.60,73.06 89.60,73.06ZM182.35,111.21L147.19,116.61C147.19,116.61 145.88,158.46 214.24,165.21C248.52,168.59 277.22,158.44 279.61,134.23C281.35,116.65 271.34,101.82 241.83,93.93L212.31,86.04C198.62,82.31 190.02,79.51 190.72,72.44C191.31,66.44 198.80,60.69 213.80,62.17C244.23,65.17 243.23,86.28 243.23,86.28L278.39,80.87C278.39,80.87 276.89,45.67 217.52,39.81C186.24,36.73 160.05,47.77 157.72,71.35C155.58,92.99 176.08,102.37 194.60,107.66L221.95,115.55C238.37,120.20 245.30,124.56 244.58,131.85C243.75,140.21 231.14,143.07 216.99,141.68C179.49,137.98 182.35,111.21 182.35,111.21ZM356.18,5.24C356.18,5.24 340.02,6.68 320.52,4.75L304.09,171.26L339.45,174.75L346.55,102.75C346.55,102.75 355.35,77.22 385.99,80.24C402.71,81.89 413.95,90.79 412.38,106.65L405.02,181.23L440.17,184.69L447.36,111.83C450.34,81.62 434.82,61.26 397.96,57.62C357.89,53.67 349.01,82.22 348.31,84.96ZM-410.30,208.39L-426.73,374.90L-388.58,378.66L-381.54,307.30L-341.25,311.28C-284.25,316.90 -256.97,303.58 -253.84,271.87C-250.71,240.15 -274.86,221.76 -331.86,216.13ZM-379.24,283.94L-374.46,235.51L-332.02,239.70C-307.59,242.11 -291.79,250.81 -293.48,267.96C-295.18,285.10 -312.37,290.54 -336.80,288.13ZM-199.52,324.40C-199.52,324.40 -193.53,298.81 -178.53,300.29C-174.46,300.69 -169.29,303.15 -170.16,311.94C-171.76,328.22 -176.59,339.86 -176.59,339.86L-141.44,334.46C-141.44,334.46 -137.87,326.81 -136.41,312.02C-134.76,295.31 -140.63,280.23 -165.27,277.80C-199.77,274.39 -202.94,310.86 -202.94,310.86L-209.69,276.23L-230.27,274.19L-242.00,393.13L-206.64,396.62ZM-84.83,350.65L19.11,363.07C24.00,346.46 25.24,296.60 -41.84,289.98C-86.20,285.60 -116.70,309.64 -120.19,345.00C-124.16,385.29 -92.48,410.70 -54.12,414.49C7.59,420.58 20.76,379.25 20.76,379.25L-12.66,367.08C-12.66,367.08 -15.58,394.49 -48.15,391.27C-77.09,388.42 -86.43,369.10 -84.83,350.65ZM-15.46,338.46L-81.03,334.15C-81.03,334.15 -74.27,309.50 -44.70,312.42C-16.20,315.23 -15.46,338.46 -15.46,338.46ZM77.28,376.60L42.13,382.01C42.13,382.01 40.81,423.86 109.17,430.60C143.46,433.99 172.16,423.84 174.55,399.62C176.28,382.05 166.28,367.21 136.76,359.32L107.25,351.43C93.55,347.70 84.95,344.90 85.65,337.83C86.25,331.83 93.74,326.08 108.74,327.56C139.17,330.56 138.17,351.67 138.17,351.67L173.32,346.27C173.32,346.27 171.82,311.07 112.46,305.21C81.17,302.12 54.98,313.17 52.65,336.74C50.52,358.38 71.01,367.76 89.53,373.05L116.89,380.95C133.30,385.60 140.23,389.96 139.51,397.24C138.69,405.60 126.07,408.47 111.93,407.07C74.42,403.37 77.28,376.60 77.28,376.60ZM227.29,391.41L192.14,396.81C192.14,396.81 190.82,438.66 259.18,445.41C293.47,448.79 322.17,438.64 324.56,414.42C326.29,396.85 316.29,382.02 286.77,374.13L257.26,366.24C243.56,362.50 234.96,359.71 235.66,352.64C236.25,346.64 243.75,340.88 258.75,342.36C289.18,345.37 288.18,366.48 288.18,366.48L323.33,361.07C323.33,361.07 321.83,325.87 262.47,320.01C231.18,316.92 204.99,327.97 202.66,351.54C200.53,373.19 221.02,382.57 239.54,387.86L266.89,395.75C283.31,400.40 290.24,404.76 289.52,412.05C288.70,420.41 276.08,423.27 261.94,421.88C224.43,418.18 227.29,391.41 227.29,391.41Z" fill="#ffffff" stroke="#000000"/>
    <path d="M-855.59,-243.60L-710.86,-224.50L-707.79,-247.74L-814.92,-261.88L-808.70,-308.99L-714.04,-296.51L-711.00,-319.54L-805.66,-332.02L-799.36,-379.78L-698.58,-366.48L-695.54,-389.51L-833.93,-407.77ZM-639.13,-287.48C-639.13,-287.48 -632.38,-312.60 -617.59,-310.65C-613.58,-310.12 -608.54,-307.53 -609.69,-298.86C-611.81,-282.80 -616.96,-271.45 -616.96,-271.45L-582.01,-275.65C-582.01,-275.65 -578.23,-283.10 -576.31,-297.68C-574.13,-314.16 -579.45,-329.27 -603.75,-332.47C-637.77,-336.96 -642.08,-300.99 -642.08,-300.99L-647.64,-335.47L-667.92,-338.14L-683.39,-220.88L-648.53,-216.28ZM-544.63,-342.30L-509.76,-337.70L-506.22,-364.54L-541.09,-369.13ZM-562.74,-204.96L-527.88,-200.36L-512.41,-317.63L-547.27,-322.23ZM-382.79,-229.59C-382.79,-229.59 -386.78,-202.60 -418.69,-206.81C-443.62,-210.10 -455.14,-227.10 -452.10,-250.13C-449.34,-271.04 -435.88,-286.68 -411.58,-283.48C-374.19,-278.54 -385.96,-238.18 -385.96,-238.18L-351.01,-242.38C-351.01,-242.38 -338.37,-297.46 -408.94,-306.77C-452.89,-312.57 -483.84,-289.78 -488.44,-254.92C-493.68,-215.20 -463.17,-189.03 -425.35,-184.04C-364.71,-176.04 -350.13,-216.47 -350.13,-216.47ZM-134.99,-315.56L-212.32,-325.76L-233.98,-161.59L-152.42,-150.83C-96.22,-143.42 -68.66,-156.76 -64.54,-188.03C-60.41,-219.30 -90.96,-228.92 -93.86,-229.74C-91.06,-229.80 -63.10,-231.48 -59.48,-258.95C-55.35,-290.22 -78.79,-308.15 -134.99,-315.56ZM-141.93,-246.61L-183.77,-252.13L-177.75,-297.77L-135.91,-292.25C-111.83,-289.07 -96.34,-281.01 -98.57,-264.11C-100.80,-247.20 -117.85,-243.43 -141.93,-246.61ZM-193.30,-179.87L-186.72,-229.73L-138.76,-223.41C-115.73,-220.37 -101.42,-209.88 -103.60,-193.40C-105.83,-176.50 -123.15,-170.62 -147.24,-173.79ZM-2.96,-188.72L99.44,-173.07C104.82,-189.34 107.66,-238.62 41.53,-247.35C-2.21,-253.12 -33.16,-230.33 -37.76,-195.47C-43.00,-155.74 -12.49,-129.58 25.33,-124.59C86.19,-116.56 100.55,-157.01 100.55,-157.01L67.89,-170.13C67.89,-170.13 64.11,-143.12 31.99,-147.35C3.47,-151.12 -5.15,-170.53 -2.96,-188.72ZM66.05,-198.54L1.32,-204.93C1.32,-204.93 8.81,-229.09 37.97,-225.24C66.07,-221.54 66.05,-198.54 66.05,-198.54ZM226.42,-100.85L261.28,-96.25L270.76,-168.09C274.69,-197.88 261.06,-218.38 222.18,-223.51C175.70,-229.65 168.42,-194.06 168.42,-194.06L162.87,-228.54L142.59,-231.22L127.12,-113.95L161.98,-109.35L171.34,-180.35C171.34,-180.35 181.93,-205.18 209.61,-201.53C228.41,-199.04 238.18,-190.02 236.12,-174.38ZM328.75,-135.08L293.80,-130.87C293.80,-130.87 291.14,-89.52 358.54,-80.63C392.34,-76.17 421.06,-85.28 424.21,-109.15C426.50,-126.48 417.08,-141.48 388.14,-150.24L359.20,-159.00C345.78,-163.14 337.36,-166.18 338.28,-173.16C339.06,-179.07 346.66,-184.52 361.45,-182.57C391.46,-178.61 389.78,-157.76 389.78,-157.76L424.73,-161.97C424.73,-161.97 424.39,-196.84 365.86,-204.56C335.01,-208.63 308.74,-198.55 305.68,-175.31C302.86,-153.97 322.83,-144.02 340.98,-138.19L367.78,-129.50C383.87,-124.36 390.58,-119.82 389.63,-112.64C388.54,-104.40 375.97,-101.97 362.03,-103.81C325.05,-108.69 328.75,-135.08 328.75,-135.08ZM448.63,-131.30C444.09,-96.86 467.56,-66.25 512.99,-60.25C558.84,-54.20 589.45,-77.68 594.00,-112.12C598.51,-146.35 575.03,-176.96 529.18,-183.01C483.76,-189.00 453.14,-165.53 448.63,-131.30ZM485.18,-126.48C487.72,-145.70 498.86,-163.37 526.12,-159.77C553.16,-156.20 559.98,-136.17 557.44,-116.94C554.91,-97.72 543.10,-79.93 516.06,-83.49C488.80,-87.09 482.65,-107.25 485.18,-126.48ZM717.25,-36.10L752.11,-31.50L761.59,-103.34C765.52,-133.13 751.88,-153.63 713.01,-158.76C666.52,-164.89 659.25,-129.31 659.25,-129.31L653.69,-163.79L633.41,-166.47L617.94,-49.20L652.80,-44.60L662.17,-115.60C662.17,-115.60 672.75,-140.42 700.43,-136.77C719.24,-134.29 729.01,-125.26 726.95,-109.63ZM-585.14,-77.56C-565.88,-57.39 -549.55,-36.11 -535.52,-15.34L-609.37,37.69L-612.64,62.41L-484.81,79.27C-471.90,110.21 -466.71,131.10 -466.71,131.10L-427.31,125.77C-427.31,125.77 -433.09,109.31 -444.45,84.60L-422.05,87.55L-418.99,64.31L-456.81,59.32C-467.06,39.27 -479.96,16.50 -495.61,-6.64L-427.74,-55.08L-424.48,-79.80L-582.10,-100.59ZM-469.78,-62.34L-513.45,-31.13C-524.66,-45.51 -536.75,-59.79 -550.28,-72.96ZM-496.11,54.14L-567.31,44.74L-519.36,10.44C-510.19,25.62 -502.70,40.58 -496.11,54.14ZM-307.11,102.71L-269.50,107.68L-260.22,37.32L-165.56,49.80L-162.52,26.77L-257.18,14.29L-250.88,-33.46L-150.31,-20.20L-147.27,-43.23L-285.45,-61.46ZM-101.43,57.41C-101.43,57.41 -94.68,32.29 -79.89,34.24C-75.87,34.77 -70.84,37.36 -71.98,46.03C-74.10,62.09 -79.25,73.44 -79.25,73.44L-44.30,69.24C-44.30,69.24 -40.53,61.79 -38.60,47.21C-36.43,30.73 -41.75,15.62 -66.04,12.42C-100.06,7.93 -104.38,43.90 -104.38,43.90L-109.93,9.42L-130.22,6.75L-145.69,124.01L-110.82,128.61ZM11.17,87.09L113.57,102.75C118.95,86.48 121.79,37.20 55.66,28.47C11.92,22.70 -19.03,45.49 -23.63,80.35C-28.87,120.07 1.64,146.24 39.46,151.23C100.32,159.26 114.68,118.81 114.68,118.81L82.02,105.68C82.02,105.68 78.24,132.70 46.12,128.46C17.60,124.70 8.98,105.29 11.17,87.09ZM80.18,77.28L15.45,70.89C15.45,70.89 22.94,46.73 52.10,50.57C80.20,54.28 80.18,77.28 80.18,77.28ZM170.67,118.02L135.73,122.23C135.73,122.23 133.06,163.58 200.47,172.47C234.27,176.93 262.99,167.82 266.14,143.95C268.43,126.62 259.01,111.62 230.07,102.86L201.13,94.10C187.71,89.96 179.29,86.92 180.21,79.94C180.99,74.03 188.59,68.58 203.38,70.53C233.38,74.49 231.71,95.34 231.71,95.34L266.66,91.13C266.66,91.13 266.31,56.26 207.79,48.54C176.94,44.47 150.67,54.55 147.61,77.79C144.79,99.13 164.76,109.08 182.91,114.91L209.71,123.60C225.80,128.74 232.51,133.28 231.56,140.46C230.47,148.70 217.90,151.13 203.96,149.29C166.98,144.41 170.67,118.02 170.67,118.02ZM346.06,18.85C346.06,18.85 330.03,19.74 310.81,17.20L289.15,181.38L324.01,185.98L333.38,114.98C333.38,114.98 342.90,90.01 373.12,94.00C389.60,96.17 400.43,105.34 398.37,120.98L388.66,194.51L423.32,199.08L432.79,127.24C436.72,97.45 422.03,76.81 385.69,72.01C346.18,66.80 336.47,94.75 335.69,97.45ZM-418.70,194.92L-440.36,359.09L-402.75,364.05L-393.46,293.69L-353.74,298.93C-297.54,306.35 -270.12,294.06 -266.00,262.79C-261.87,231.52 -285.16,212.53 -341.36,205.12ZM-390.43,270.66L-384.13,222.91L-342.29,228.43C-318.20,231.61 -302.85,240.73 -305.08,257.63C-307.31,274.53 -324.50,279.36 -348.59,276.18ZM-213.97,316.51C-213.97,316.51 -207.21,291.39 -192.42,293.34C-188.41,293.87 -183.38,296.47 -184.52,305.13C-186.64,321.19 -191.79,332.55 -191.79,332.55L-156.84,328.35C-156.84,328.35 -153.06,320.89 -151.14,306.31C-148.97,289.83 -154.28,274.73 -178.58,271.52C-212.60,267.04 -216.92,303.01 -216.92,303.01L-222.47,268.53L-242.75,265.85L-258.22,383.12L-223.36,387.72ZM-101.37,346.20L1.04,361.86C6.41,345.59 9.25,296.30 -56.88,287.58C-100.62,281.81 -131.57,304.60 -136.17,339.46C-141.41,379.18 -110.89,405.35 -73.07,410.34C-12.22,418.37 2.14,377.91 2.14,377.91L-30.52,364.79C-30.52,364.79 -34.30,391.81 -66.42,387.57C-94.94,383.81 -103.56,364.40 -101.37,346.20ZM-32.36,336.39L-97.08,330.00C-97.08,330.00 -89.60,305.83 -60.44,309.68C-32.34,313.39 -32.36,336.39 -32.36,336.39ZM58.14,377.13L23.19,381.33C23.19,381.33 20.53,422.69 87.93,431.58C121.73,436.04 150.45,426.93 153.60,403.05C155.89,385.73 146.47,370.73 117.53,361.97L88.59,353.20C75.17,349.07 66.76,346.02 67.68,339.05C68.46,333.13 76.05,327.69 90.84,329.64C120.85,333.60 119.17,354.44 119.17,354.44L154.12,350.24C154.12,350.24 153.78,315.37 95.25,307.65C64.40,303.58 38.14,313.66 35.07,336.90C32.25,358.24 52.22,368.18 70.37,374.02L97.17,382.71C113.26,387.84 119.97,392.38 119.02,399.57C117.94,407.81 105.36,410.23 91.42,408.39C54.44,403.51 58.14,377.13 58.14,377.13ZM206.04,396.64L171.09,400.85C171.09,400.85 168.43,442.20 235.83,451.09C269.64,455.55 298.35,446.44 301.50,422.57C303.79,405.24 294.38,390.24 265.44,381.48L236.50,372.72C223.07,368.58 214.66,365.54 215.58,358.56C216.36,352.65 223.96,347.20 238.75,349.15C268.75,353.11 267.07,373.95 267.07,373.95L302.02,369.75C302.02,369.75 301.68,334.88 243.15,327.16C212.30,323.09 186.04,333.17 182.97,356.41C180.16,377.75 200.13,387.69 218.27,393.53L245.07,402.22C261.16,407.35 267.87,411.89 266.92,419.08C265.84,427.32 253.26,429.74 239.32,427.90C202.34,423.03 206.04,396.64 206.04,396.64Z" fill="#ffffff" stroke="#000000"/>
    <path d="M-844.41,-266.81L-701.88,-243.23L-698.09,-266.11L-803.59,-283.57L-795.91,-329.97L-702.69,-314.55L-698.94,-337.23L-792.16,-352.65L-784.38,-399.67L-685.13,-383.25L-681.37,-405.93L-817.66,-428.48ZM-628.90,-303.19C-628.90,-303.19 -621.40,-327.82 -606.84,-325.41C-602.89,-324.75 -597.99,-322.02 -599.40,-313.49C-602.02,-297.68 -607.49,-286.61 -607.49,-286.61L-572.78,-289.63C-572.78,-289.63 -568.80,-296.88 -566.43,-311.24C-563.74,-327.47 -568.51,-342.58 -592.44,-346.54C-625.94,-352.08 -631.38,-316.64 -631.38,-316.64L-635.75,-350.93L-655.73,-354.23L-674.83,-238.75L-640.50,-233.07ZM-533.65,-354.34L-499.31,-348.66L-494.94,-375.09L-529.27,-380.77ZM-556.02,-219.10L-521.69,-213.42L-502.58,-328.90L-536.92,-334.58ZM-377.24,-237.61C-377.24,-237.61 -382.06,-211.05 -413.48,-216.25C-438.04,-220.31 -448.87,-237.49 -445.12,-260.17C-441.71,-280.77 -427.90,-295.80 -403.97,-291.84C-367.14,-285.75 -380.10,-246.21 -380.10,-246.21L-345.39,-249.23C-345.39,-249.23 -331.10,-303.30 -400.60,-314.80C-443.88,-321.96 -475.23,-300.43 -480.91,-266.10C-487.38,-226.98 -458.05,-200.11 -420.81,-193.95C-361.09,-184.07 -345.36,-223.58 -345.36,-223.58ZM-129.36,-314.60L-205.52,-327.20L-232.26,-165.53L-151.95,-152.24C-96.60,-143.09 -68.91,-155.39 -63.82,-186.19C-58.72,-216.98 -88.62,-227.49 -91.47,-228.39C-88.69,-228.35 -60.99,-229.11 -56.52,-256.16C-51.42,-286.96 -74.01,-305.45 -129.36,-314.60ZM-138.47,-246.64L-179.67,-253.45L-172.23,-298.40L-131.03,-291.58C-107.31,-287.66 -92.25,-279.18 -95.01,-262.53C-97.76,-245.89 -114.75,-242.71 -138.47,-246.64ZM-191.44,-182.29L-183.32,-231.40L-136.08,-223.58C-113.40,-219.83 -99.59,-208.99 -102.28,-192.76C-105.03,-176.12 -122.36,-170.86 -146.08,-174.79ZM-2.90,-184.87L97.88,-166.06C103.72,-181.98 108.14,-230.63 43.01,-241.41C-0.06,-248.53 -31.41,-227.00 -37.09,-192.67C-43.56,-153.55 -14.23,-126.68 23.01,-120.52C82.93,-110.60 98.46,-150.15 98.46,-150.15L66.57,-164.19C66.57,-164.19 61.96,-137.59 30.33,-142.82C2.24,-147.47 -5.65,-166.94 -2.90,-184.87ZM65.67,-192.34L1.87,-200.76C1.87,-200.76 10.06,-224.41 38.77,-219.66C66.45,-215.09 65.67,-192.34 65.67,-192.34ZM221.13,-90.52L255.46,-84.84L267.16,-155.59C272.02,-184.92 259.20,-205.64 220.91,-211.98C175.14,-219.55 166.79,-184.59 166.79,-184.59L162.41,-218.88L142.44,-222.18L123.33,-106.70L157.66,-101.02L169.23,-170.93C169.23,-170.93 180.50,-195.15 207.76,-190.64C226.28,-187.57 235.65,-178.33 233.10,-162.93ZM323.44,-121.05L288.74,-118.03C288.74,-118.03 284.76,-77.21 351.14,-66.23C384.43,-60.72 413.13,-68.80 417.02,-92.31C419.84,-109.38 411.02,-124.52 382.68,-134.12L354.34,-143.73C341.19,-148.25 332.97,-151.54 334.11,-158.40C335.07,-164.23 342.76,-169.37 357.33,-166.96C386.88,-162.07 384.54,-141.51 384.54,-141.51L419.25,-144.53C419.25,-144.53 420.04,-179.03 362.40,-188.57C332.02,-193.59 305.72,-184.48 301.93,-161.59C298.45,-140.57 317.88,-130.09 335.64,-123.73L361.86,-114.26C377.61,-108.67 384.10,-103.96 382.93,-96.88C381.59,-88.77 369.07,-86.78 355.34,-89.05C318.93,-95.08 323.44,-121.05 323.44,-121.05ZM441.89,-113.42C436.28,-79.51 458.50,-48.47 503.24,-41.07C548.39,-33.60 579.43,-55.82 585.04,-89.74C590.62,-123.45 568.39,-154.49 523.24,-161.96C478.50,-169.36 447.46,-147.13 441.89,-113.42ZM477.88,-107.47C481.02,-126.40 492.61,-143.51 519.45,-139.07C546.09,-134.66 552.18,-114.63 549.04,-95.70C545.91,-76.76 533.66,-59.55 507.03,-63.96C480.18,-68.40 474.75,-88.53 477.88,-107.47ZM704.48,-10.55L738.81,-4.87L750.51,-75.62C755.37,-104.96 742.55,-125.67 704.26,-132.01C658.49,-139.58 650.14,-104.62 650.14,-104.62L645.76,-138.91L625.79,-142.21L606.68,-26.73L641.01,-21.05L652.58,-90.96C652.58,-90.96 663.85,-115.18 691.11,-110.67C709.63,-107.61 719.00,-98.36 716.46,-82.96ZM-582.31,-93.82C-563.91,-73.24 -548.45,-51.66 -535.25,-30.67L-610.01,19.39L-614.04,43.73L-488.16,64.56C-476.40,95.57 -471.94,116.41 -471.94,116.41L-432.80,112.41C-432.80,112.41 -437.99,95.94 -448.42,71.13L-426.36,74.78L-422.57,51.89L-459.82,45.73C-469.31,25.56 -481.33,2.63 -496.06,-20.76L-427.36,-66.47L-423.33,-90.82L-578.55,-116.50ZM-468.70,-75.02L-512.91,-45.57C-523.53,-60.15 -535.03,-74.66 -547.97,-88.14ZM-498.52,39.33L-568.64,27.73L-520.10,-4.64C-511.52,10.67 -504.60,25.71 -498.52,39.33ZM-313.17,93.51L-276.13,99.64L-264.67,30.35L-171.45,45.77L-167.70,23.09L-260.92,7.67L-253.14,-39.36L-154.10,-22.97L-150.34,-45.65L-286.42,-68.16ZM-108.27,55.37C-108.27,55.37 -100.78,30.74 -86.21,33.15C-82.26,33.81 -77.37,36.54 -78.78,45.07C-81.39,60.88 -86.86,71.95 -86.86,71.95L-52.16,68.93C-52.16,68.93 -48.18,61.68 -45.80,47.32C-43.12,31.09 -47.88,15.98 -71.81,12.02C-105.31,6.48 -110.75,41.92 -110.75,41.92L-115.12,7.63L-135.10,4.33L-154.20,119.81L-119.87,125.49ZM2.13,88.38L102.91,107.19C108.75,91.27 113.16,42.62 48.04,31.85C4.97,24.72 -26.39,46.26 -32.07,80.59C-38.54,119.70 -9.21,146.58 28.04,152.74C87.96,162.65 103.48,123.11 103.48,123.11L71.60,109.07C71.60,109.07 66.99,135.67 35.36,130.43C7.27,125.79 -0.62,106.31 2.13,88.38ZM70.70,80.92L6.90,72.50C6.90,72.50 15.08,48.84 43.80,53.59C71.47,58.17 70.70,80.92 70.70,80.92ZM158.89,124.15L124.19,127.17C124.19,127.17 120.21,167.99 186.59,178.97C219.88,184.48 248.58,176.40 252.47,152.89C255.29,135.82 246.47,120.68 218.13,111.08L189.79,101.47C176.64,96.95 168.42,93.66 169.56,86.80C170.52,80.97 178.21,75.83 192.78,78.24C222.32,83.13 219.99,103.69 219.99,103.69L254.69,100.67C254.69,100.67 255.48,66.17 197.85,56.63C167.47,51.61 141.16,60.72 137.38,83.61C133.90,104.63 153.33,115.11 171.09,121.47L197.31,130.94C213.06,136.53 219.55,141.24 218.38,148.32C217.04,156.43 204.52,158.42 190.79,156.15C154.38,150.13 158.89,124.15 158.89,124.15ZM335.57,31.75C335.57,31.75 319.69,32.11 300.76,28.98L274.01,190.65L308.34,196.33L319.91,126.42C319.91,126.42 330.14,102.03 359.89,106.96C376.12,109.64 386.54,119.06 383.99,134.46L372.01,206.87L406.13,212.51L417.84,141.77C422.69,112.43 408.83,91.54 373.04,85.62C334.14,79.18 323.63,106.51 322.76,109.15ZM-426.53,181.08L-453.27,342.75L-416.24,348.88L-404.77,279.59L-365.66,286.06C-310.31,295.22 -282.79,283.95 -277.70,253.16C-272.60,222.37 -295.02,202.84 -350.37,193.68ZM-401.02,256.91L-393.24,209.89L-352.04,216.70C-328.32,220.63 -313.44,230.15 -316.19,246.79C-318.94,263.44 -336.10,267.65 -359.82,263.73ZM-227.98,307.99C-227.98,307.99 -220.49,283.36 -205.92,285.77C-201.97,286.42 -197.08,289.16 -198.49,297.69C-201.11,313.50 -206.57,324.57 -206.57,324.57L-171.87,321.55C-171.87,321.55 -167.89,314.29 -165.51,299.94C-162.83,283.71 -167.60,268.60 -191.52,264.64C-225.02,259.10 -230.46,294.54 -230.46,294.54L-234.83,260.25L-254.81,256.95L-273.92,372.43L-239.58,378.11ZM-117.58,341.00L-16.80,359.81C-10.96,343.89 -6.55,295.24 -71.68,284.47C-114.75,277.34 -146.10,298.87 -151.78,333.21C-158.25,372.32 -128.92,399.19 -91.68,405.36C-31.75,415.27 -16.23,375.73 -16.23,375.73L-48.11,361.69C-48.11,361.69 -52.73,388.29 -84.35,383.05C-112.44,378.41 -120.34,358.93 -117.58,341.00ZM-49.01,333.53L-112.82,325.12C-112.82,325.12 -104.63,301.46 -75.91,306.21C-48.24,310.79 -49.01,333.53 -49.01,333.53ZM39.18,376.77L4.47,379.79C4.47,379.79 0.50,420.61 66.87,431.59C100.17,437.10 128.86,429.02 132.75,405.51C135.58,388.44 126.75,373.30 98.41,363.70L70.08,354.09C56.93,349.57 48.71,346.28 49.85,339.42C50.81,333.59 58.50,328.45 73.07,330.86C102.61,335.75 100.28,356.31 100.28,356.31L134.98,353.29C134.98,353.29 135.77,318.79 78.14,309.25C47.76,304.23 21.45,313.34 17.67,336.23C14.19,357.24 33.62,367.73 51.38,374.09L77.60,383.55C93.35,389.15 99.84,393.86 98.67,400.93C97.32,409.05 84.81,411.04 71.08,408.77C34.66,402.74 39.18,376.77 39.18,376.77ZM184.83,400.87L150.12,403.89C150.12,403.89 146.15,444.70 212.52,455.68C245.82,461.19 274.51,453.11 278.40,429.60C281.23,412.54 272.40,397.40 244.06,387.79L215.73,378.19C202.58,373.66 194.36,370.38 195.50,363.51C196.46,357.69 204.15,352.55 218.72,354.96C248.26,359.84 245.93,380.41 245.93,380.41L280.63,377.38C280.63,377.38 281.42,342.88 223.79,333.35C193.41,328.32 167.10,337.44 163.32,360.33C159.84,381.34 179.27,391.82 197.03,398.18L223.25,407.65C239.00,413.25 245.49,417.96 244.32,425.03C242.97,433.15 230.46,435.14 216.73,432.87C180.31,426.84 184.83,400.87 184.83,400.87Z" fill="#ffffff" stroke="#000000"/>
    <path d="M-832.50,-289.59L-692.31,-261.64L-687.82,-284.16L-791.58,-304.84L-782.49,-350.48L-690.80,-332.20L-686.35,-354.51L-778.04,-372.78L-768.82,-419.03L-671.20,-399.58L-666.75,-421.88L-800.80,-448.60ZM-618.19,-318.58C-618.19,-318.58 -609.98,-342.69 -595.65,-339.83C-591.77,-339.06 -587.02,-336.20 -588.69,-327.81C-591.79,-312.25 -597.55,-301.48 -597.55,-301.48L-563.14,-303.35C-563.14,-303.35 -558.97,-310.39 -556.15,-324.51C-552.97,-340.47 -557.19,-355.57 -580.73,-360.26C-613.68,-366.83 -620.20,-331.96 -620.20,-331.96L-623.42,-366.01L-643.07,-369.92L-665.71,-256.34L-631.94,-249.61ZM-522.33,-366.07L-488.56,-359.34L-483.38,-385.33L-517.15,-392.06ZM-548.85,-233.05L-515.08,-226.32L-492.44,-339.90L-526.21,-346.63ZM-371.44,-245.56C-371.44,-245.56 -377.08,-219.45 -407.98,-225.61C-432.13,-230.42 -442.29,-247.77 -437.84,-270.07C-433.80,-290.34 -419.65,-304.75 -396.12,-300.06C-359.89,-292.84 -373.99,-254.15 -373.99,-254.15L-339.57,-256.02C-339.57,-256.02 -323.68,-309.03 -392.04,-322.65C-434.61,-331.14 -466.31,-310.86 -473.04,-277.09C-480.71,-238.62 -452.58,-211.09 -415.94,-203.79C-357.21,-192.08 -340.37,-230.64 -340.37,-230.64ZM-123.81,-313.66L-198.71,-328.59L-230.41,-169.57L-151.41,-153.83C-96.97,-142.97 -69.19,-154.25 -63.15,-184.54C-57.12,-214.82 -86.34,-226.18 -89.13,-227.16C-86.39,-227.04 -58.97,-226.90 -53.66,-253.50C-47.63,-283.79 -69.37,-302.81 -123.81,-313.66ZM-135.02,-246.74L-175.54,-254.81L-166.73,-299.02L-126.21,-290.94C-102.88,-286.29 -88.26,-277.42 -91.52,-261.05C-94.79,-244.68 -111.69,-242.09 -135.02,-246.74ZM-189.49,-184.82L-179.86,-233.12L-133.41,-223.86C-111.10,-219.41 -97.79,-208.25 -100.97,-192.29C-104.24,-175.92 -121.55,-171.28 -144.88,-175.93ZM-2.95,-181.26L96.10,-159.39C102.40,-174.94 108.34,-222.91 44.28,-235.68C1.92,-244.12 -29.78,-223.85 -36.51,-190.08C-44.18,-151.60 -16.05,-124.08 20.58,-116.78C79.52,-105.03 96.15,-143.63 96.15,-143.63L65.08,-158.55C65.08,-158.55 59.66,-132.39 28.55,-138.59C0.92,-144.10 -6.25,-163.62 -2.95,-181.26ZM65.11,-186.42L2.28,-196.82C2.28,-196.82 11.14,-219.94 39.39,-214.31C66.61,-208.89 65.11,-186.42 65.11,-186.42ZM215.53,-80.68L249.30,-73.95L263.17,-143.53C268.92,-172.39 256.92,-193.30 219.26,-200.80C174.24,-209.78 164.85,-175.47 164.85,-175.47L161.63,-209.52L141.99,-213.44L119.35,-99.86L153.11,-93.13L166.82,-161.89C166.82,-161.89 178.76,-185.47 205.57,-180.13C223.78,-176.50 232.75,-167.05 229.73,-151.90ZM317.71,-107.56L283.29,-105.69C283.29,-105.69 278.04,-65.46 343.32,-52.45C376.07,-45.92 404.71,-52.98 409.32,-76.10C412.66,-92.88 404.43,-108.14 376.72,-118.56L349.00,-128.98C336.15,-133.88 328.12,-137.40 329.47,-144.15C330.61,-149.88 338.39,-154.71 352.71,-151.86C381.77,-146.07 378.80,-125.81 378.80,-125.81L413.22,-127.67C413.22,-127.67 415.12,-161.76 358.43,-173.06C328.55,-179.02 302.24,-170.86 297.75,-148.35C293.63,-127.68 312.50,-116.68 329.86,-109.81L355.49,-99.60C370.88,-93.55 377.14,-88.69 375.76,-81.73C374.17,-73.75 361.73,-72.18 348.22,-74.88C312.40,-82.01 317.71,-107.56 317.71,-107.56ZM434.60,-96.17C427.95,-62.81 448.92,-31.40 492.92,-22.62C537.33,-13.77 568.75,-34.75 575.40,-68.11C582.01,-101.26 561.03,-132.68 516.63,-141.53C472.62,-150.30 441.21,-129.33 434.60,-96.17ZM470.00,-89.11C473.72,-107.74 485.74,-124.28 512.14,-119.02C538.33,-113.80 543.71,-93.79 540.00,-75.16C536.28,-56.54 523.61,-39.92 497.41,-45.14C471.01,-50.40 466.29,-70.49 470.00,-89.11ZM690.95,14.08L724.71,20.81L738.58,-48.77C744.33,-77.63 732.33,-98.53 694.67,-106.04C649.65,-115.01 640.26,-80.71 640.26,-80.71L637.05,-114.76L617.40,-118.68L594.76,-5.09L628.53,1.64L642.23,-67.13C642.23,-67.13 654.17,-90.71 680.98,-85.36C699.19,-81.73 708.16,-72.28 705.14,-57.14ZM-578.91,-110.01C-561.38,-89.06 -546.79,-67.22 -534.42,-46.03L-609.98,1.05L-614.75,24.99L-490.94,49.67C-480.32,80.73 -476.58,101.47 -476.58,101.47L-437.74,98.79C-437.74,98.79 -442.34,82.34 -451.85,57.46L-430.15,61.79L-425.67,39.27L-462.30,31.97C-471.03,11.72 -482.18,-11.36 -495.98,-34.96L-426.56,-77.94L-421.79,-101.88L-574.46,-132.31ZM-467.17,-87.73L-511.84,-60.04C-521.87,-74.81 -532.77,-89.53 -545.14,-103.27ZM-500.37,24.38L-569.33,10.64L-520.28,-19.80C-512.29,-4.38 -505.94,10.72 -500.37,24.38ZM-318.82,83.98L-282.39,91.24L-268.81,23.09L-177.12,41.36L-172.68,19.06L-264.36,0.78L-255.14,-45.47L-157.73,-26.05L-153.28,-48.36L-287.13,-75.04ZM-114.95,52.91C-114.95,52.91 -106.74,28.80 -92.42,31.65C-88.53,32.43 -83.78,35.29 -85.45,43.68C-88.55,59.23 -94.31,70.00 -94.31,70.00L-59.90,68.14C-59.90,68.14 -55.73,61.09 -52.91,46.97C-49.73,31.01 -53.96,15.91 -77.49,11.22C-110.44,4.65 -116.97,39.52 -116.97,39.52L-120.18,5.48L-139.83,1.56L-162.47,115.14L-128.70,121.87ZM-6.84,89.14L92.21,111.01C98.50,95.45 104.45,47.49 40.39,34.72C-1.97,26.27 -33.68,46.55 -40.41,80.32C-48.08,118.79 -19.94,146.32 16.69,153.62C75.63,165.37 92.26,126.77 92.26,126.77L61.19,111.85C61.19,111.85 55.76,138.00 24.66,131.80C-2.97,126.30 -10.15,106.78 -6.84,89.14ZM61.21,83.98L-1.62,73.58C-1.62,73.58 7.25,50.45 35.49,56.08C62.71,61.51 61.21,83.98 61.21,83.98ZM147.02,129.60L112.60,131.46C112.60,131.46 107.35,171.69 172.64,184.71C205.38,191.23 234.02,184.17 238.63,161.05C241.98,144.27 233.74,129.01 206.03,118.59L178.32,108.17C165.46,103.27 157.44,99.75 158.78,93.00C159.93,87.27 167.70,82.44 182.02,85.29C211.09,91.08 208.11,111.34 208.11,111.34L242.53,109.48C242.53,109.48 244.43,75.39 187.74,64.09C157.86,58.13 131.55,66.29 127.06,88.81C122.94,109.48 141.82,120.47 159.17,127.34L184.80,137.55C200.19,143.60 206.46,148.46 205.07,155.42C203.48,163.40 191.04,164.97 177.53,162.28C141.72,155.14 147.02,129.60 147.02,129.60ZM324.75,43.95C324.75,43.95 309.03,43.79 290.41,40.08L258.71,199.10L292.48,205.83L306.19,137.06C306.19,137.06 317.10,113.28 346.36,119.11C362.33,122.29 372.32,131.95 369.30,147.09L355.10,218.31L388.67,225.00L402.54,155.42C408.29,126.56 395.26,105.45 360.06,98.44C321.79,90.81 310.51,117.50 309.57,120.08ZM-433.77,166.91L-465.46,325.92L-429.03,333.18L-415.45,265.03L-376.97,272.70C-322.54,283.55 -294.96,273.30 -288.92,243.02C-282.88,212.73 -304.42,192.69 -358.86,181.84ZM-411.00,242.73L-401.78,196.47L-361.26,204.55C-337.93,209.20 -323.52,219.10 -326.78,235.47C-330.05,251.84 -347.15,255.45 -370.48,250.80ZM-241.54,298.85C-241.54,298.85 -233.32,274.74 -219.00,277.59C-215.11,278.37 -210.36,281.23 -212.03,289.62C-215.13,305.17 -220.90,315.94 -220.90,315.94L-186.48,314.08C-186.48,314.08 -182.31,307.04 -179.50,292.91C-176.31,276.95 -180.54,261.85 -204.07,257.16C-237.02,250.59 -243.55,285.47 -243.55,285.47L-246.76,251.42L-266.41,247.50L-289.05,361.09L-255.28,367.82ZM-133.43,335.08L-34.37,356.95C-28.08,341.40 -22.14,293.43 -86.19,280.66C-128.56,272.21 -160.26,292.49 -166.99,326.26C-174.66,364.74 -146.53,392.26 -109.89,399.56C-50.95,411.31 -34.32,372.71 -34.32,372.71L-65.39,357.79C-65.39,357.79 -70.82,383.94 -101.93,377.74C-129.56,372.24 -136.73,352.72 -133.43,335.08ZM-65.37,329.92L-128.20,319.52C-128.20,319.52 -119.33,296.40 -91.09,302.02C-63.87,307.45 -65.37,329.92 -65.37,329.92ZM20.44,375.54L-13.98,377.40C-13.98,377.40 -19.23,417.63 46.05,430.65C78.80,437.17 107.44,430.12 112.05,406.99C115.39,390.21 107.16,374.95 79.45,364.53L51.73,354.11C38.88,349.21 30.85,345.70 32.20,338.94C33.34,333.21 41.12,328.38 55.44,331.23C84.50,337.03 81.53,357.29 81.53,357.29L115.94,355.42C115.94,355.42 117.85,321.33 61.16,310.03C31.28,304.07 4.97,312.24 0.48,334.75C-3.64,355.42 15.23,366.41 32.59,373.28L58.22,383.49C73.61,389.54 79.87,394.41 78.49,401.36C76.90,409.35 64.46,410.91 50.95,408.22C15.13,401.08 20.44,375.54 20.44,375.54ZM163.70,404.09L129.28,405.96C129.28,405.96 124.02,446.19 189.31,459.20C222.05,465.73 250.70,458.67 255.31,435.55C258.65,418.76 250.42,403.50 222.70,393.09L194.99,382.67C182.14,377.77 174.11,374.25 175.46,367.50C176.60,361.77 184.37,356.93 198.70,359.79C227.76,365.58 224.79,385.84 224.79,385.84L259.20,383.98C259.20,383.98 261.10,349.89 204.41,338.59C174.54,332.63 148.23,340.79 143.74,363.30C139.62,383.97 158.49,394.97 175.85,401.83L201.47,412.05C216.87,418.10 223.13,422.96 221.74,429.92C220.15,437.90 207.71,439.46 194.21,436.77C158.39,429.63 163.70,404.09 163.70,404.09Z" fill="#ffffff" stroke="#000000"/>
    <path d="M-819.87,-311.91L-682.16,-279.73L-676.99,-301.85L-778.92,-325.66L-768.45,-370.50L-678.38,-349.45L-673.26,-371.36L-763.32,-392.41L-752.71,-437.85L-656.81,-415.44L-651.69,-437.35L-783.37,-468.12ZM-607.02,-333.62C-607.02,-333.62 -598.12,-357.20 -584.05,-353.91C-580.23,-353.02 -575.62,-350.03 -577.55,-341.79C-581.12,-326.51 -587.17,-316.05 -587.17,-316.05L-553.07,-316.78C-553.07,-316.78 -548.72,-323.61 -545.48,-337.48C-541.82,-353.16 -545.50,-368.23 -568.63,-373.63C-600.99,-381.19 -608.58,-346.92 -608.58,-346.92L-610.65,-380.69L-629.95,-385.20L-656.02,-273.62L-622.85,-265.87ZM-510.69,-377.48L-477.52,-369.73L-471.55,-395.26L-504.73,-403.01ZM-541.23,-246.80L-508.05,-239.05L-481.98,-350.63L-515.15,-358.38ZM-365.40,-253.42C-365.40,-253.42 -371.81,-227.78 -402.17,-234.87C-425.89,-240.42 -435.38,-257.90 -430.26,-279.81C-425.61,-299.72 -411.15,-313.51 -388.03,-308.11C-352.44,-299.79 -367.63,-262.00 -367.63,-262.00L-333.54,-262.73C-333.54,-262.73 -316.11,-314.63 -383.26,-330.32C-425.08,-340.09 -457.09,-321.07 -464.84,-287.89C-473.67,-250.10 -446.74,-221.97 -410.76,-213.56C-353.06,-200.08 -335.16,-237.66 -335.16,-237.66ZM-118.32,-312.72L-191.90,-329.92L-228.40,-173.70L-150.80,-155.57C-97.32,-143.08 -69.48,-153.32 -62.53,-183.08C-55.58,-212.83 -84.11,-225.01 -86.83,-226.07C-84.12,-225.86 -57.02,-224.83 -50.91,-250.96C-43.96,-280.72 -64.84,-300.23 -118.32,-312.72ZM-131.57,-246.91L-171.38,-256.22L-161.23,-299.64L-121.43,-290.34C-98.51,-284.98 -84.34,-275.74 -88.10,-259.65C-91.86,-243.57 -108.66,-241.56 -131.57,-246.91ZM-187.45,-187.46L-176.36,-234.90L-130.72,-224.24C-108.81,-219.12 -96.01,-207.65 -99.68,-191.97C-103.44,-175.88 -120.70,-171.86 -143.62,-177.22ZM-3.11,-177.88L94.13,-153.04C100.86,-168.22 108.29,-215.46 45.37,-230.16C3.75,-239.89 -28.26,-220.86 -36.01,-187.69C-44.84,-149.90 -17.91,-121.77 18.07,-113.36C75.97,-99.83 93.67,-137.46 93.67,-137.46L63.43,-153.22C63.43,-153.22 57.22,-127.53 26.66,-134.67C-0.48,-141.02 -6.95,-160.55 -3.11,-177.88ZM64.36,-180.78L2.57,-193.10C2.57,-193.10 12.09,-215.68 39.83,-209.20C66.57,-202.95 64.36,-180.78 64.36,-180.78ZM209.68,-71.34L242.85,-63.59L258.82,-131.95C265.44,-160.29 254.25,-181.36 217.26,-190.00C173.03,-200.33 162.63,-166.72 162.63,-166.72L160.56,-200.49L141.26,-205.00L115.18,-93.42L148.36,-85.67L164.14,-153.22C164.14,-153.22 176.71,-176.15 203.04,-170.00C220.94,-165.82 229.50,-156.18 226.02,-141.31ZM311.58,-94.60L277.49,-93.87C277.49,-93.87 270.99,-54.26 335.12,-39.28C367.29,-31.76 395.84,-37.81 401.15,-60.53C405.00,-77.01 397.35,-92.37 370.28,-103.57L343.22,-114.77C330.67,-120.04 322.85,-123.77 324.40,-130.41C325.71,-136.03 333.56,-140.56 347.63,-137.27C376.18,-130.60 372.58,-110.67 372.58,-110.67L406.67,-111.39C406.67,-111.39 409.66,-145.04 353.97,-158.06C324.62,-164.91 298.34,-157.70 293.17,-135.58C288.42,-115.28 306.73,-103.79 323.67,-96.44L348.68,-85.51C363.70,-79.03 369.74,-74.01 368.14,-67.18C366.31,-59.34 353.96,-58.20 340.69,-61.30C305.51,-69.52 311.58,-94.60 311.58,-94.60ZM426.80,-79.55C419.14,-46.78 438.86,-15.04 482.08,-4.94C525.71,5.26 557.46,-14.46 565.11,-47.23C572.72,-79.80 553.00,-111.55 509.38,-121.74C466.15,-131.84 434.41,-112.12 426.80,-79.55ZM461.58,-71.43C465.85,-89.72 478.27,-105.69 504.21,-99.63C529.94,-93.62 534.61,-73.66 530.33,-55.36C526.06,-37.06 512.98,-21.04 487.25,-27.05C461.32,-33.11 457.30,-53.13 461.58,-71.43ZM676.70,37.78L709.87,45.53L725.85,-22.82C732.47,-51.17 721.28,-72.23 684.29,-80.87C640.06,-91.21 629.66,-57.59 629.66,-57.59L627.58,-91.37L608.28,-95.88L582.21,15.70L615.38,23.45L631.17,-44.10C631.17,-44.10 643.73,-67.03 670.07,-60.87C687.96,-56.69 696.53,-47.06 693.05,-32.18ZM-574.94,-126.11C-558.29,-104.83 -544.57,-82.76 -533.03,-61.40L-609.27,-17.31L-614.76,6.22L-493.13,34.64C-483.64,65.69 -480.62,86.33 -480.62,86.33L-442.13,84.93C-442.13,84.93 -446.13,68.52 -454.73,43.61L-433.42,48.59L-428.25,26.47L-464.24,18.07C-472.22,-2.24 -482.49,-25.42 -495.38,-49.21L-425.34,-89.46L-419.84,-112.98L-569.82,-148.02ZM-465.17,-100.46L-510.24,-74.52C-519.69,-89.45 -529.98,-104.37 -541.77,-118.36ZM-501.64,9.33L-569.39,-6.50L-519.90,-35.01C-512.50,-19.50 -506.70,-4.37 -501.64,9.33ZM-324.05,74.14L-288.27,82.51L-272.62,15.56L-182.56,36.60L-177.44,14.69L-267.50,-6.36L-256.89,-51.79L-161.19,-29.43L-156.07,-51.34L-287.55,-82.07ZM-121.45,50.03C-121.45,50.03 -112.55,26.46 -98.48,29.75C-94.66,30.64 -90.05,33.62 -91.98,41.87C-95.55,57.15 -101.60,67.61 -101.60,67.61L-67.51,66.88C-67.51,66.88 -63.15,60.05 -59.91,46.18C-56.25,30.50 -59.94,15.43 -83.06,10.03C-115.43,2.46 -123.01,36.74 -123.01,36.74L-125.08,2.96L-144.38,-1.55L-170.46,110.03L-137.28,117.79ZM-15.73,89.37L81.51,114.21C88.24,99.03 95.67,51.79 32.74,37.09C-8.87,27.36 -40.88,46.39 -48.63,79.56C-57.46,117.35 -30.54,145.48 5.45,153.89C63.35,167.42 81.05,129.79 81.05,129.79L50.81,114.03C50.81,114.03 44.60,139.72 14.04,132.58C-13.10,126.24 -19.57,106.70 -15.73,89.37ZM51.74,86.47L-10.05,74.16C-10.05,74.16 -0.54,51.57 27.21,58.06C53.95,64.30 51.74,86.47 51.74,86.47ZM135.11,134.36L101.01,135.09C101.01,135.09 94.51,174.70 158.65,189.69C190.81,197.21 219.37,191.16 224.67,168.44C228.53,151.95 220.88,136.60 193.81,125.39L166.75,114.19C154.20,108.93 146.38,105.19 147.93,98.56C149.24,92.93 157.08,88.40 171.16,91.69C199.70,98.36 196.11,118.30 196.11,118.30L230.20,117.57C230.20,117.57 233.19,83.92 177.50,70.91C148.14,64.05 121.86,71.27 116.70,93.38C111.95,113.69 130.26,125.17 147.20,132.52L172.21,143.46C187.23,149.94 193.27,154.95 191.67,161.79C189.84,169.63 177.49,170.77 164.22,167.67C129.03,159.45 135.11,134.36 135.11,134.36ZM313.63,55.44C313.63,55.44 298.09,54.78 279.80,50.50L243.29,206.71L276.47,214.46L292.25,146.91C292.25,146.91 303.81,123.75 332.56,130.46C348.24,134.13 357.81,144.00 354.33,158.87L337.99,228.84L370.96,236.54L386.93,168.19C393.55,139.84 381.36,118.54 346.78,110.46C309.18,101.68 297.16,127.71 296.15,130.23ZM-440.40,152.42L-476.90,308.63L-441.12,316.99L-425.47,250.04L-387.68,258.87C-334.20,271.37 -306.60,262.13 -299.65,232.38C-292.69,202.62 -313.34,182.11 -366.82,169.61ZM-420.35,228.13L-409.74,182.69L-369.93,191.99C-347.01,197.35 -333.08,207.60 -336.84,223.69C-340.60,239.77 -357.63,242.79 -380.55,237.43ZM-254.60,289.12C-254.60,289.12 -245.70,265.55 -231.63,268.84C-227.81,269.73 -223.20,272.71 -225.13,280.95C-228.70,296.23 -234.75,306.69 -234.75,306.69L-200.65,305.97C-200.65,305.97 -196.30,299.14 -193.06,285.27C-189.40,269.59 -193.08,254.52 -216.20,249.12C-248.57,241.55 -256.16,275.82 -256.16,275.82L-258.23,242.05L-277.53,237.54L-303.60,349.12L-270.43,356.87ZM-148.87,328.46L-51.64,353.30C-44.91,338.12 -37.48,290.88 -100.40,276.17C-142.02,266.45 -174.03,285.47 -181.78,318.65C-190.61,356.44 -163.68,384.57 -127.70,392.98C-69.80,406.51 -52.10,368.88 -52.10,368.88L-82.34,353.12C-82.34,353.12 -88.55,378.81 -119.11,371.67C-146.25,365.32 -152.71,345.79 -148.87,328.46ZM-81.41,325.56L-143.20,313.24C-143.20,313.24 -133.68,290.66 -105.94,297.14C-79.20,303.39 -81.41,325.56 -81.41,325.56ZM1.96,373.45L-32.13,374.18C-32.13,374.18 -38.63,413.79 25.50,428.78C57.67,436.29 86.22,430.24 91.53,407.53C95.38,391.04 87.73,375.68 60.66,364.48L33.60,353.28C21.05,348.02 13.23,344.28 14.78,337.65C16.09,332.02 23.94,327.49 38.01,330.78C66.56,337.45 62.96,357.39 62.96,357.39L97.05,356.66C97.05,356.66 100.04,323.01 44.35,310.00C15.00,303.14 -11.28,310.36 -16.45,332.47C-21.20,352.78 -2.89,364.26 14.05,371.61L39.06,382.55C54.08,389.02 60.12,394.04 58.52,400.87C56.69,408.72 44.34,409.86 31.07,406.76C-4.11,398.54 1.96,373.45 1.96,373.45ZM142.69,406.34L108.60,407.06C108.60,407.06 102.10,446.68 166.23,461.66C198.40,469.18 226.95,463.13 232.26,440.41C236.11,423.92 228.46,408.57 201.40,397.37L174.33,386.17C161.78,380.90 153.96,377.17 155.51,370.53C156.82,364.90 164.67,360.37 178.74,363.66C207.29,370.33 203.69,390.27 203.69,390.27L237.78,389.54C237.78,389.54 240.77,355.89 185.08,342.88C155.73,336.02 129.45,343.24 124.28,365.35C119.54,385.66 137.84,397.15 154.78,404.50L179.79,415.43C194.81,421.91 200.85,426.92 199.25,433.76C197.42,441.60 185.07,442.74 171.80,439.64C136.62,431.42 142.69,406.34 142.69,406.34Z" fill="#ffffff" stroke="#000000"/>
    <path d="M-806.55,-333.75L-671.44,-297.46L-665.61,-319.16L-765.62,-346.02L-753.80,-390.00L-665.44,-366.27L-659.66,-387.78L-748.03,-411.50L-736.06,-456.08L-641.97,-430.82L-636.20,-452.32L-765.40,-487.01ZM-595.40,-348.31C-595.40,-348.31 -585.83,-371.33 -572.02,-367.63C-568.28,-366.62 -563.82,-363.52 -565.99,-355.43C-570.02,-340.44 -576.34,-330.30 -576.34,-330.30L-542.61,-329.91C-542.61,-329.91 -538.08,-336.52 -534.43,-350.13C-530.30,-365.51 -533.45,-380.53 -556.14,-386.62C-587.89,-395.15 -596.50,-361.51 -596.50,-361.51L-597.46,-394.97L-616.40,-400.05L-645.79,-290.58L-613.25,-281.84ZM-498.73,-388.55L-466.19,-379.81L-459.46,-404.86L-492.01,-413.60ZM-533.16,-260.33L-500.61,-251.60L-471.22,-361.07L-503.76,-369.81ZM-359.10,-261.18C-359.10,-261.18 -366.28,-236.04 -396.06,-244.03C-419.34,-250.28 -428.15,-267.88 -422.37,-289.38C-417.13,-308.90 -402.39,-322.07 -379.70,-315.98C-344.79,-306.61 -361.03,-269.73 -361.03,-269.73L-327.30,-269.35C-327.30,-269.35 -308.39,-320.10 -374.27,-337.79C-415.30,-348.80 -447.56,-331.03 -456.30,-298.49C-466.26,-261.40 -440.55,-232.72 -405.24,-223.24C-348.63,-208.03 -329.71,-244.62 -329.71,-244.62ZM-112.89,-311.80L-185.08,-331.18L-226.24,-177.92L-150.10,-157.47C-97.63,-143.38 -69.77,-152.61 -61.93,-181.80C-54.10,-211.00 -81.91,-223.97 -84.57,-225.10C-81.90,-224.81 -55.13,-222.91 -48.24,-248.55C-40.40,-277.74 -60.42,-297.71 -112.89,-311.80ZM-128.13,-247.16L-167.18,-257.65L-155.74,-300.25L-116.69,-289.77C-94.20,-283.73 -80.50,-274.13 -84.73,-258.35C-88.97,-242.57 -105.64,-241.12 -128.13,-247.16ZM-185.30,-190.19L-172.80,-236.74L-128.02,-224.72C-106.52,-218.94 -94.24,-207.19 -98.37,-191.80C-102.61,-176.02 -119.81,-172.60 -142.30,-178.64ZM-3.35,-174.74L91.99,-147.03C99.13,-161.82 108.01,-208.28 46.27,-224.86C5.44,-235.83 -26.82,-218.05 -35.56,-185.51C-45.52,-148.42 -19.81,-119.74 15.50,-110.26C72.31,-95.00 91.03,-131.64 91.03,-131.64L61.64,-148.20C61.64,-148.20 54.66,-123.00 24.68,-131.06C-1.95,-138.21 -7.71,-157.73 -3.35,-174.74ZM63.45,-175.42L2.76,-189.60C2.76,-189.60 12.90,-211.62 40.12,-204.31C66.35,-197.26 63.45,-175.42 63.45,-175.42ZM203.58,-62.50L236.12,-53.76L254.13,-120.83C261.60,-148.64 251.22,-169.83 214.92,-179.57C171.53,-191.23 160.16,-158.33 160.16,-158.33L159.20,-191.79L140.26,-196.87L110.87,-87.40L143.41,-78.66L161.21,-144.94C161.21,-144.94 174.38,-167.20 200.22,-160.26C217.78,-155.55 225.93,-145.74 222.01,-131.15ZM305.08,-82.19L271.35,-82.58C271.35,-82.58 263.64,-43.63 326.56,-26.73C358.13,-18.25 386.55,-23.31 392.54,-45.60C396.88,-61.77 389.82,-77.21 363.42,-89.16L337.02,-101.11C324.78,-106.72 317.17,-110.67 318.92,-117.18C320.40,-122.70 328.30,-126.92 342.11,-123.22C370.12,-115.70 365.92,-96.10 365.92,-96.10L399.65,-95.71C399.65,-95.71 403.69,-128.89 349.05,-143.56C320.26,-151.29 294.04,-145.01 288.21,-123.31C282.86,-103.39 300.59,-91.44 317.10,-83.62L341.47,-72.00C356.11,-65.11 361.92,-59.95 360.12,-53.25C358.05,-45.55 345.80,-44.83 332.79,-48.32C298.27,-57.59 305.08,-82.19 305.08,-82.19ZM418.51,-63.58C409.88,-31.43 428.35,0.60 470.76,11.99C513.56,23.48 545.59,5.01 554.22,-27.14C562.80,-59.09 544.33,-91.12 501.53,-102.61C459.12,-114.00 427.09,-95.53 418.51,-63.58ZM452.64,-54.42C457.46,-72.37 470.26,-87.75 495.70,-80.92C520.95,-74.14 524.92,-54.25 520.10,-36.30C515.28,-18.35 501.83,-2.93 476.58,-9.71C451.14,-16.54 447.82,-36.47 452.64,-54.42ZM661.79,60.54L694.34,69.28L712.35,2.21C719.82,-25.60 709.43,-46.79 673.14,-56.53C629.74,-68.19 618.37,-35.29 618.37,-35.29L617.42,-68.75L598.48,-73.83L569.08,35.64L601.63,44.38L619.43,-21.89C619.43,-21.89 632.60,-44.16 658.44,-37.22C675.99,-32.50 684.15,-22.70 680.23,-8.11ZM-570.41,-142.10C-554.63,-120.52 -541.79,-98.25 -531.07,-76.76L-607.88,-35.64L-614.08,-12.56L-494.74,19.49C-486.36,50.50 -484.04,71.00 -484.04,71.00L-445.94,70.87C-445.94,70.87 -449.37,54.51 -457.06,29.60L-436.15,35.22L-430.33,13.52L-465.64,4.04C-472.86,-16.30 -482.27,-39.55 -494.24,-63.49L-423.68,-101.01L-417.49,-124.09L-564.64,-163.60ZM-462.71,-113.18L-508.11,-89.00C-516.97,-104.06 -526.66,-119.14 -537.86,-133.36ZM-502.32,-5.81L-568.80,-23.66L-518.94,-50.24C-512.13,-34.67 -506.89,-19.52 -502.32,-5.81ZM-328.85,64.03L-293.74,73.46L-276.10,7.77L-187.73,31.50L-181.96,10.00L-270.33,-13.73L-258.36,-58.30L-164.46,-33.09L-158.69,-54.59L-287.69,-89.23ZM-127.75,46.76C-127.75,46.76 -118.19,23.74 -104.38,27.45C-100.63,28.46 -96.18,31.56 -98.35,39.64C-102.37,54.64 -108.69,64.78 -108.69,64.78L-74.96,65.17C-74.96,65.17 -70.44,58.56 -66.78,44.95C-62.65,29.56 -65.81,14.55 -88.49,8.46C-120.25,-0.07 -128.86,33.57 -128.86,33.57L-129.81,0.11L-148.75,-4.98L-178.15,104.50L-145.60,113.24ZM-24.50,89.08L70.84,116.80C77.98,102.01 86.87,55.54 25.13,38.96C-15.71,28.00 -47.97,45.77 -56.71,78.32C-66.67,115.40 -40.96,144.09 -5.65,153.57C51.16,168.82 69.88,132.19 69.88,132.19L40.49,115.63C40.49,115.63 33.51,140.82 3.53,132.77C-23.10,125.62 -28.85,106.10 -24.50,89.08ZM42.30,88.41L-18.39,74.23C-18.39,74.23 -8.25,52.21 18.97,59.52C45.21,66.56 42.30,88.41 42.30,88.41ZM123.18,138.46L89.45,138.08C89.45,138.08 81.73,177.03 144.66,193.93C176.22,202.40 204.64,197.35 210.63,175.06C214.97,158.88 207.91,143.45 181.51,131.50L155.11,119.55C142.88,113.94 135.26,109.99 137.01,103.48C138.50,97.96 146.40,93.73 160.20,97.44C188.21,104.96 184.01,124.56 184.01,124.56L217.74,124.95C217.74,124.95 221.79,91.77 167.15,77.10C138.35,69.37 112.13,75.65 106.30,97.35C100.95,117.27 118.68,129.22 135.19,137.04L159.56,148.66C174.21,155.55 180.01,160.70 178.21,167.41C176.15,175.10 163.90,175.83 150.88,172.34C116.36,163.07 123.18,138.46 123.18,138.46ZM302.24,66.22C302.24,66.22 286.90,65.06 268.95,60.24L227.80,213.50L260.34,222.24L278.14,155.97C278.14,155.97 290.32,133.44 318.53,141.01C333.92,145.14 343.06,155.21 339.14,169.81L320.70,238.45L353.05,247.14L371.06,180.07C378.53,152.26 367.16,130.81 333.23,121.70C296.35,111.79 283.62,137.14 282.54,139.59ZM-446.42,137.65L-487.58,290.91L-452.47,300.34L-434.83,234.66L-397.75,244.61C-345.28,258.70 -317.69,250.46 -309.85,221.27C-302.01,192.08 -321.76,171.12 -374.23,157.03ZM-429.06,213.16L-417.09,168.58L-378.03,179.06C-355.54,185.10 -342.10,195.69 -346.34,211.47C-350.58,227.25 -367.51,229.68 -390.00,223.64ZM-267.15,278.84C-267.15,278.84 -257.59,255.82 -243.78,259.52C-240.03,260.53 -235.58,263.63 -237.75,271.72C-241.77,286.71 -248.09,296.85 -248.09,296.85L-214.36,297.24C-214.36,297.24 -209.84,290.63 -206.18,277.02C-202.05,261.64 -205.21,246.62 -227.89,240.53C-259.65,232.00 -268.26,265.64 -268.26,265.64L-269.21,232.18L-288.15,227.10L-317.55,336.57L-285.00,345.31ZM-163.89,321.15L-68.56,348.87C-61.42,334.08 -52.53,287.61 -114.27,271.04C-155.11,260.07 -187.37,277.84 -196.11,310.39C-206.07,347.47 -180.36,376.16 -145.05,385.64C-88.24,400.89 -69.52,364.26 -69.52,364.26L-98.91,347.70C-98.91,347.70 -105.89,372.89 -135.87,364.84C-162.50,357.69 -168.25,338.17 -163.89,321.15ZM-97.10,320.48L-157.79,306.30C-157.79,306.30 -147.65,284.28 -120.43,291.59C-94.19,298.63 -97.10,320.48 -97.10,320.48ZM-16.22,370.54L-49.95,370.15C-49.95,370.15 -57.67,409.10 5.26,426.00C36.82,434.48 65.25,429.42 71.23,407.13C75.57,390.96 68.51,375.52 42.11,363.57L15.71,351.62C3.48,346.01 -4.13,342.06 -2.39,335.55C-0.90,330.03 7.00,325.81 20.81,329.51C48.82,337.03 44.61,356.63 44.61,356.63L78.34,357.02C78.34,357.02 82.39,323.84 27.75,309.17C-1.05,301.44 -27.27,307.72 -33.10,329.42C-38.45,349.34 -20.72,361.29 -4.21,369.11L20.16,380.73C34.81,387.62 40.61,392.78 38.81,399.48C36.75,407.18 24.50,407.90 11.48,404.41C-23.04,395.14 -16.22,370.54 -16.22,370.54ZM121.85,407.61L88.12,407.23C88.12,407.23 80.41,446.18 143.33,463.08C174.90,471.55 203.32,466.50 209.31,444.21C213.65,428.03 206.59,412.60 180.19,400.65L153.79,388.70C141.55,383.08 133.94,379.14 135.69,372.63C137.17,367.10 145.07,362.88 158.88,366.59C186.89,374.11 182.69,393.71 182.69,393.71L216.42,394.09C216.42,394.09 220.46,360.92 165.82,346.25C137.03,338.52 110.81,344.80 104.98,366.50C99.63,386.42 117.36,398.37 133.87,406.19L158.24,417.81C172.88,424.70 178.69,429.85 176.89,436.56C174.82,444.25 162.57,444.98 149.56,441.49C115.04,432.22 121.85,407.61 121.85,407.61Z" fill="#ffffff" stroke="#000000"/>
    <path d="M-792.55,-355.07L-660.15,-314.82L-653.69,-336.08L-751.68,-365.88L-738.58,-408.98L-651.99,-382.65L-645.58,-403.72L-732.18,-430.05L-718.90,-473.73L-626.70,-445.70L-620.29,-466.77L-746.90,-505.26ZM-583.33,-362.63C-583.33,-362.63 -573.13,-385.07 -559.60,-380.96C-555.93,-379.84 -551.62,-376.64 -554.03,-368.71C-558.50,-354.02 -565.07,-344.20 -565.07,-344.20L-531.74,-342.72C-531.74,-342.72 -527.05,-349.11 -523.00,-362.44C-518.41,-377.52 -521.05,-392.47 -543.28,-399.23C-574.40,-408.69 -584.00,-375.71 -584.00,-375.71L-583.86,-408.82L-602.41,-414.46L-635.02,-307.18L-603.13,-297.49ZM-486.46,-399.27L-454.57,-389.57L-447.11,-414.12L-479.00,-423.82ZM-524.66,-273.63L-492.77,-263.94L-460.15,-371.21L-492.05,-380.91ZM-352.56,-268.82C-352.56,-268.82 -360.46,-244.20 -389.65,-253.07C-412.46,-260.01 -420.60,-277.68 -414.19,-298.75C-408.38,-317.89 -393.37,-330.43 -371.14,-323.67C-336.93,-313.27 -354.19,-277.34 -354.19,-277.34L-320.85,-275.86C-320.85,-275.86 -300.51,-325.42 -365.07,-345.05C-405.27,-357.27 -437.74,-340.75 -447.44,-308.86C-458.48,-272.52 -434.00,-243.33 -399.40,-232.81C-343.93,-215.94 -324.04,-251.50 -324.04,-251.50ZM-107.51,-310.88L-178.25,-332.39L-223.91,-182.20L-149.30,-159.52C-97.88,-143.89 -70.05,-152.11 -61.35,-180.72C-52.65,-209.32 -79.73,-223.04 -82.32,-224.25C-79.69,-223.88 -53.29,-221.13 -45.65,-246.26C-36.95,-274.86 -56.09,-295.25 -107.51,-310.88ZM-124.67,-247.47L-162.94,-259.11L-150.25,-300.86L-111.98,-289.22C-89.94,-282.53 -76.71,-272.59 -81.41,-257.13C-86.11,-241.66 -102.64,-240.78 -124.67,-247.47ZM-183.04,-193.01L-169.17,-238.62L-125.29,-225.28C-104.23,-218.88 -92.47,-206.86 -97.05,-191.78C-101.75,-176.32 -118.87,-173.50 -140.90,-180.20ZM-3.66,-171.84L89.69,-141.35C97.23,-155.73 107.52,-201.38 47.02,-219.77C7.01,-231.94 -25.46,-215.41 -35.16,-183.52C-46.21,-147.18 -21.72,-117.99 12.88,-107.47C68.55,-90.55 88.24,-126.16 88.24,-126.16L59.72,-143.49C59.72,-143.49 52.01,-118.81 22.63,-127.74C-3.47,-135.67 -8.52,-155.15 -3.66,-171.84ZM62.39,-170.34L2.85,-186.32C2.85,-186.32 13.60,-207.76 40.27,-199.65C65.98,-191.84 62.39,-170.34 62.39,-170.34ZM197.26,-54.17L229.16,-44.47L249.13,-110.19C257.42,-137.44 247.84,-158.72 212.28,-169.53C169.75,-182.46 157.45,-150.31 157.45,-150.31L157.59,-183.42L139.03,-189.06L106.42,-81.78L138.31,-72.09L158.06,-137.03C158.06,-137.03 171.80,-158.61 197.12,-150.92C214.32,-145.69 222.06,-135.73 217.71,-121.43ZM298.25,-70.34L264.92,-71.82C264.92,-71.82 256.03,-33.55 317.69,-14.81C348.62,-5.41 376.88,-9.48 383.52,-31.33C388.34,-47.18 381.86,-62.66 356.15,-75.33L330.44,-88.00C318.52,-93.95 311.13,-98.10 313.07,-104.48C314.71,-109.89 322.66,-113.81 336.19,-109.69C363.64,-101.35 358.84,-82.11 358.84,-82.11L392.18,-80.64C392.18,-80.64 397.25,-113.30 343.71,-129.58C315.49,-138.16 289.37,-132.80 282.91,-111.53C276.97,-92.01 294.11,-79.62 310.18,-71.36L333.89,-59.08C348.15,-51.79 353.72,-46.51 351.72,-39.94C349.43,-32.40 337.30,-32.08 324.54,-35.95C290.72,-46.24 298.25,-70.34 298.25,-70.34ZM409.78,-48.26C400.21,-16.75 417.43,15.51 458.98,28.14C500.93,40.89 533.19,23.67 542.77,-7.83C552.28,-39.14 535.06,-71.41 493.12,-84.16C451.57,-96.79 419.30,-79.57 409.78,-48.26ZM443.22,-38.09C448.57,-55.68 461.72,-70.47 486.66,-62.89C511.40,-55.37 514.67,-35.59 509.33,-18.00C503.98,-0.41 490.19,14.40 465.45,6.88C440.51,-0.70 437.88,-20.50 443.22,-38.09ZM646.27,82.33L678.16,92.03L698.14,26.31C706.42,-0.94 696.84,-22.22 661.28,-33.04C618.76,-45.96 606.45,-13.81 606.45,-13.81L606.59,-46.92L588.03,-52.56L555.42,54.72L587.31,64.41L607.06,-0.53C607.06,-0.53 620.80,-22.12 646.12,-14.42C663.32,-9.19 671.06,0.77 666.72,15.07ZM-565.32,-157.95C-550.42,-136.11 -538.45,-113.68 -528.54,-92.08L-605.81,-53.92L-612.68,-31.31L-495.75,4.24C-488.47,35.17 -486.84,55.52 -486.84,55.52L-449.17,56.62C-449.17,56.62 -452.03,40.34 -458.83,15.47L-438.34,21.70L-431.88,0.43L-466.48,-10.08C-472.96,-30.42 -481.51,-53.72 -492.56,-77.77L-421.59,-112.57L-414.72,-135.19L-558.91,-179.02ZM-459.78,-125.87L-505.45,-103.44C-513.72,-118.62 -522.81,-133.84 -533.42,-148.26ZM-502.43,-21.01L-567.56,-40.81L-517.41,-65.48C-511.18,-49.86 -506.50,-34.71 -502.43,-21.01ZM-333.19,53.66L-298.79,64.12L-279.22,-0.24L-192.63,26.08L-186.22,5.01L-272.82,-21.31L-259.54,-64.99L-167.53,-37.02L-161.13,-58.09L-287.54,-96.52ZM-133.83,43.11C-133.83,43.11 -123.63,20.66 -110.10,24.78C-106.42,25.89 -102.12,29.10 -104.53,37.03C-109.00,51.72 -115.57,61.54 -115.57,61.54L-82.24,63.02C-82.24,63.02 -77.55,56.63 -73.50,43.29C-68.91,28.22 -71.55,13.27 -93.78,6.51C-124.89,-2.95 -134.50,30.03 -134.50,30.03L-134.36,-3.08L-152.91,-8.72L-185.52,98.55L-153.63,108.25ZM-33.12,88.30L60.23,118.79C67.77,104.40 78.06,58.75 17.56,40.36C-22.45,28.20 -54.93,44.72 -64.62,76.61C-75.67,112.95 -51.18,142.14 -16.58,152.66C39.08,169.58 58.78,133.97 58.78,133.97L30.26,116.64C30.26,116.64 22.55,141.33 -6.83,132.39C-32.93,124.46 -37.98,104.98 -33.12,88.30ZM32.93,89.80L-26.61,73.81C-26.61,73.81 -15.87,52.37 10.81,60.48C36.51,68.29 32.93,89.80 32.93,89.80ZM111.26,141.90L77.93,140.43C77.93,140.43 69.04,178.69 130.70,197.43C161.63,206.83 189.89,202.76 196.53,180.92C201.35,165.07 194.87,149.58 169.16,136.91L143.45,124.24C131.53,118.29 124.14,114.14 126.08,107.77C127.72,102.35 135.67,98.44 149.20,102.55C176.65,110.89 171.85,130.13 171.85,130.13L205.19,131.61C205.19,131.61 210.26,98.94 156.72,82.67C128.50,74.09 102.38,79.45 95.92,100.71C89.98,120.23 107.12,132.62 123.19,140.88L146.91,153.16C161.16,160.45 166.73,165.73 164.73,172.31C162.44,179.84 150.31,180.17 137.55,176.29C103.73,166.01 111.26,141.90 111.26,141.90ZM290.63,76.29C290.63,76.29 275.50,74.65 257.91,69.30L212.26,219.48L244.15,229.18L263.89,164.23C263.89,164.23 276.67,142.36 304.31,150.76C319.38,155.34 328.09,165.59 323.74,179.89L303.30,247.16L335.00,256.79L354.97,191.08C363.26,163.82 352.71,142.25 319.47,132.14C283.32,121.15 269.92,145.79 268.77,148.19ZM-451.82,122.63L-497.47,272.81L-463.07,283.27L-443.50,218.90L-407.16,229.95C-355.75,245.58 -328.21,238.33 -319.51,209.72C-310.81,181.12 -329.66,159.76 -381.07,144.13ZM-437.10,197.84L-423.82,154.15L-385.54,165.79C-363.51,172.49 -350.57,183.39 -355.27,198.85C-359.97,214.31 -376.79,216.17 -398.82,209.47ZM-279.17,268.02C-279.17,268.02 -268.96,245.57 -255.43,249.68C-251.76,250.80 -247.46,254.01 -249.87,261.93C-254.33,276.62 -260.91,286.45 -260.91,286.45L-227.57,287.92C-227.57,287.92 -222.89,281.54 -218.83,268.20C-214.25,253.12 -216.88,238.18 -239.11,231.42C-270.23,221.96 -279.83,254.93 -279.83,254.93L-279.69,221.83L-298.25,216.19L-330.86,323.46L-298.97,333.15ZM-178.46,313.20L-85.11,343.69C-77.57,329.30 -67.28,283.66 -127.78,265.26C-167.79,253.10 -200.26,269.62 -209.96,301.51C-221.00,337.85 -196.52,367.04 -161.92,377.56C-106.25,394.49 -86.56,358.88 -86.56,358.88L-115.07,341.55C-115.07,341.55 -122.79,366.23 -152.17,357.30C-178.26,349.37 -183.32,329.88 -178.46,313.20ZM-112.40,314.70L-171.94,298.71C-171.94,298.71 -161.20,277.27 -134.53,285.38C-108.82,293.20 -112.40,314.70 -112.40,314.70ZM-34.07,366.81L-67.41,365.33C-67.41,365.33 -76.29,403.59 -14.63,422.34C16.29,431.74 44.56,427.66 51.20,405.82C56.02,389.97 49.53,374.49 23.82,361.82L-1.89,349.14C-13.80,343.20 -21.20,339.05 -19.26,332.67C-17.61,327.26 -9.67,323.34 3.86,327.45C31.31,335.80 26.52,355.03 26.52,355.03L59.85,356.51C59.85,356.51 64.93,323.85 11.39,307.57C-16.83,298.99 -42.96,304.35 -49.42,325.61C-55.35,345.14 -38.22,357.53 -22.15,365.79L1.57,378.07C15.82,385.36 21.40,390.64 19.40,397.21C17.11,404.75 4.97,405.07 -7.78,401.19C-41.61,390.91 -34.07,366.81 -34.07,366.81ZM101.23,407.94L67.89,406.46C67.89,406.46 59.01,444.73 120.67,463.47C151.59,472.87 179.86,468.80 186.50,446.95C191.32,431.10 184.83,415.62 159.12,402.95L133.41,390.28C121.50,384.33 114.10,380.18 116.04,373.80C117.69,368.39 125.63,364.47 139.16,368.59C166.61,376.93 161.82,396.17 161.82,396.17L195.15,397.64C195.15,397.64 200.23,364.98 146.69,348.70C118.47,340.12 92.34,345.48 85.88,366.75C79.95,386.27 97.08,398.66 113.15,406.92L136.87,419.20C151.12,426.49 156.70,431.77 154.70,438.34C152.41,445.88 140.27,446.20 127.52,442.33C93.69,432.04 101.23,407.94 101.23,407.94Z" fill="#ffffff" stroke="#000000"/>
    <path d="M-777.89,-375.87L-648.32,-331.79L-641.24,-352.59L-737.14,-385.22L-722.79,-427.40L-638.05,-398.57L-631.04,-419.19L-715.78,-448.02L-701.23,-490.77L-611.01,-460.07L-603.99,-480.69L-727.89,-522.84ZM-570.83,-376.55C-570.83,-376.55 -560.02,-398.40 -546.78,-393.90C-543.19,-392.68 -539.04,-389.37 -541.67,-381.61C-546.56,-367.24 -553.38,-357.74 -553.38,-357.74L-520.48,-355.20C-520.48,-355.20 -515.64,-361.36 -511.20,-374.41C-506.18,-389.16 -508.30,-404.03 -530.05,-411.43C-560.51,-421.79 -571.07,-389.50 -571.07,-389.50L-569.86,-422.22L-588.02,-428.40L-623.73,-323.42L-592.52,-312.80ZM-473.90,-409.63L-442.68,-399.01L-434.51,-423.03L-465.72,-433.65ZM-515.72,-286.68L-484.51,-276.06L-448.80,-381.04L-480.01,-391.66ZM-345.76,-276.34C-345.76,-276.34 -354.37,-252.26 -382.94,-261.97C-405.26,-269.57 -412.73,-287.30 -405.72,-307.92C-399.34,-326.65 -384.11,-338.56 -362.35,-331.16C-328.87,-319.77 -347.10,-284.81 -347.10,-284.81L-314.19,-282.27C-314.19,-282.27 -292.48,-330.60 -355.65,-352.09C-395.00,-365.48 -427.63,-350.20 -438.25,-318.99C-450.35,-283.43 -427.09,-253.78 -393.23,-242.26C-338.94,-223.79 -318.13,-258.29 -318.13,-258.29ZM-102.17,-309.97L-171.40,-333.52L-221.40,-186.55L-148.39,-161.71C-98.07,-144.59 -70.29,-151.81 -60.77,-179.81C-51.24,-207.80 -77.56,-222.24 -80.08,-223.52C-77.50,-223.06 -51.49,-219.49 -43.12,-244.08C-33.60,-272.08 -51.85,-292.85 -102.17,-309.97ZM-121.19,-247.85L-158.64,-260.59L-144.74,-301.45L-107.29,-288.71C-85.73,-281.37 -72.97,-271.12 -78.11,-255.99C-83.26,-240.85 -99.63,-240.51 -121.19,-247.85ZM-180.65,-195.90L-165.47,-240.54L-122.53,-225.93C-101.91,-218.92 -90.68,-206.65 -95.69,-191.90C-100.84,-176.77 -117.85,-174.54 -139.42,-181.87ZM-4.03,-169.16L87.26,-135.99C95.18,-149.97 106.83,-194.76 47.62,-214.90C8.47,-228.22 -24.17,-212.94 -34.79,-181.73C-46.88,-146.17 -23.62,-116.52 10.23,-105.00C64.71,-86.47 85.33,-121.03 85.33,-121.03L57.71,-139.08C57.71,-139.08 49.28,-114.93 20.53,-124.71C-5.01,-133.40 -9.37,-152.83 -4.03,-169.16ZM61.22,-165.53L2.88,-183.27C2.88,-183.27 14.19,-204.11 40.30,-195.23C65.45,-186.67 61.22,-165.53 61.22,-165.53ZM190.77,-46.33L221.98,-35.71L243.86,-100.02C252.93,-126.69 244.15,-148.04 209.35,-159.88C167.73,-174.04 154.52,-142.65 154.52,-142.65L155.74,-175.38L137.58,-181.55L101.86,-76.57L133.07,-65.95L154.70,-129.51C154.70,-129.51 168.98,-150.40 193.76,-141.97C210.59,-136.24 217.92,-126.15 213.16,-112.15ZM291.12,-59.04L258.21,-61.58C258.21,-61.58 248.19,-24.05 308.53,-3.52C338.79,6.77 366.87,3.66 374.14,-17.71C379.41,-33.22 373.51,-48.74 348.51,-62.10L323.50,-75.46C311.92,-81.72 304.74,-86.06 306.87,-92.30C308.67,-97.60 316.65,-101.22 329.89,-96.71C356.75,-87.57 351.39,-68.72 351.39,-68.72L384.29,-66.17C384.29,-66.17 390.37,-98.30 337.97,-116.12C310.36,-125.52 284.36,-121.07 277.28,-100.26C270.78,-81.15 287.32,-68.35 302.94,-59.66L325.98,-46.76C339.83,-39.09 345.17,-33.69 342.98,-27.26C340.47,-19.88 328.47,-19.95 315.99,-24.20C282.88,-35.46 291.12,-59.04 291.12,-59.04ZM400.65,-33.60C390.16,-2.77 406.13,29.68 446.80,43.52C487.85,57.48 520.30,41.51 530.78,10.68C541.21,-19.97 525.23,-52.42 484.19,-66.38C443.52,-80.22 411.07,-64.24 400.65,-33.60ZM433.37,-22.46C439.23,-39.68 452.71,-53.87 477.11,-45.57C501.32,-37.34 503.92,-17.67 498.06,-0.46C492.20,16.76 478.09,30.95 453.88,22.71C429.48,14.41 427.51,-5.25 433.37,-22.46ZM630.17,103.16L661.38,113.78L683.26,49.46C692.33,22.79 683.56,1.45 648.75,-10.40C607.14,-24.55 593.93,6.83 593.93,6.83L595.14,-25.89L576.98,-32.07L541.27,72.91L572.48,83.53L594.10,19.98C594.10,19.98 608.38,-0.91 633.16,7.52C650.00,13.24 657.33,23.33 652.56,37.33ZM-559.66,-173.65C-545.65,-151.57 -534.54,-129.01 -525.45,-107.35L-603.06,-72.13L-610.59,-49.99L-496.16,-11.06C-489.96,19.75 -489.01,39.91 -489.01,39.91L-451.81,42.22C-451.81,42.22 -454.11,26.03 -460.03,1.23L-439.98,8.05L-432.90,-12.76L-466.76,-24.28C-472.51,-44.59 -480.20,-67.89 -490.35,-92.03L-419.07,-124.13L-411.54,-146.26L-552.65,-194.26ZM-456.38,-138.51L-502.26,-117.82C-509.93,-133.09 -518.43,-148.43 -528.45,-163.03ZM-501.94,-36.25L-565.68,-57.93L-515.31,-80.68C-509.66,-65.04 -505.52,-49.91 -501.94,-36.25ZM-337.08,43.06L-303.41,54.51L-281.98,-8.48L-197.24,20.35L-190.22,-0.27L-274.96,-29.10L-260.42,-71.84L-170.38,-41.21L-163.37,-61.83L-287.08,-103.92ZM-139.67,39.09C-139.67,39.09 -128.85,17.23 -115.61,21.74C-112.02,22.96 -107.87,26.27 -110.51,34.03C-115.40,48.40 -122.22,57.90 -122.22,57.90L-89.32,60.44C-89.32,60.44 -84.48,54.28 -80.04,41.23C-75.02,26.48 -77.14,11.61 -98.89,4.21C-129.34,-6.15 -139.90,26.14 -139.90,26.14L-138.69,-6.58L-156.85,-12.76L-192.56,92.22L-161.35,102.84ZM-41.59,87.02L49.70,120.19C57.62,106.21 69.27,61.42 10.06,41.28C-29.09,27.96 -61.72,43.24 -72.34,74.45C-84.44,110.01 -61.18,139.66 -27.32,151.18C27.15,169.71 47.77,135.15 47.77,135.15L20.15,117.10C20.15,117.10 11.72,141.25 -17.03,131.47C-42.56,122.78 -46.93,103.35 -41.59,87.02ZM23.66,90.65L-34.68,72.91C-34.68,72.91 -23.36,52.07 2.74,60.95C27.90,69.51 23.66,90.65 23.66,90.65ZM99.40,144.69L66.50,142.15C66.50,142.15 56.47,179.69 116.81,200.21C147.08,210.51 175.15,207.40 182.42,186.02C187.70,170.51 181.79,155.00 156.79,141.64L131.79,128.28C120.20,122.01 113.02,117.67 115.15,111.43C116.95,106.13 124.93,102.52 138.17,107.02C165.03,116.16 159.67,135.02 159.67,135.02L192.58,137.56C192.58,137.56 198.65,105.44 146.25,87.61C118.64,78.22 92.64,82.67 85.56,103.48C79.06,122.58 95.60,135.38 111.22,144.07L134.26,156.98C148.12,164.64 153.45,170.05 151.27,176.48C148.76,183.86 136.75,183.78 124.27,179.53C91.17,168.27 99.40,144.69 99.40,144.69ZM278.83,85.65C278.83,85.65 263.93,83.54 246.71,77.68L196.71,224.65L227.92,235.27L249.55,171.71C249.55,171.71 262.88,150.50 289.93,159.71C304.69,164.73 312.96,175.14 308.20,189.14L285.81,254.96L316.83,265.51L338.71,201.20C347.78,174.53 338.06,152.86 305.52,141.79C270.15,129.76 256.10,153.68 254.89,156.01ZM-456.57,107.38L-506.57,254.35L-472.90,265.81L-451.47,202.82L-415.91,214.92C-365.59,232.03 -338.13,225.76 -328.61,197.76C-319.09,169.77 -337.02,148.05 -387.34,130.93ZM-444.46,182.20L-429.91,139.45L-392.46,152.19C-370.90,159.53 -358.46,170.73 -363.60,185.86C-368.75,200.99 -385.44,202.28 -407.00,194.94ZM-290.62,256.69C-290.62,256.69 -279.81,234.84 -266.57,239.34C-262.97,240.56 -258.82,243.87 -261.46,251.63C-266.35,266.01 -273.17,275.50 -273.17,275.50L-240.27,278.05C-240.27,278.05 -235.43,271.88 -230.99,258.83C-225.97,244.08 -228.09,229.22 -249.84,221.82C-280.30,211.46 -290.86,243.74 -290.86,243.74L-289.64,211.02L-307.80,204.84L-343.52,309.82L-312.31,320.44ZM-192.54,304.62L-101.26,337.79C-93.33,323.81 -81.68,279.02 -140.89,258.88C-180.04,245.56 -212.68,260.84 -223.30,292.05C-235.39,327.61 -212.14,357.26 -178.28,368.78C-123.80,387.31 -103.18,352.75 -103.18,352.75L-130.81,334.70C-130.81,334.70 -139.23,358.85 -167.98,349.07C-193.52,340.38 -197.89,320.96 -192.54,304.62ZM-127.29,308.25L-185.63,290.51C-185.63,290.51 -174.32,269.67 -148.21,278.55C-123.06,287.11 -127.29,308.25 -127.29,308.25ZM-51.55,362.30L-84.46,359.75C-84.46,359.75 -94.48,397.29 -34.14,417.81C-3.88,428.11 24.19,425.00 31.47,403.62C36.74,388.11 30.84,372.60 5.83,359.24L-19.17,345.88C-30.75,339.61 -37.93,335.27 -35.81,329.03C-34.00,323.74 -26.02,320.12 -12.78,324.62C14.08,333.76 8.72,352.62 8.72,352.62L41.62,355.16C41.62,355.16 47.70,323.04 -4.70,305.21C-32.32,295.82 -58.31,300.27 -65.39,321.08C-71.89,340.18 -55.35,352.98 -39.74,361.67L-16.69,374.58C-2.84,382.25 2.50,387.65 0.31,394.08C-2.20,401.46 -14.20,401.38 -26.69,397.14C-59.79,385.88 -51.55,362.30 -51.55,362.30ZM80.85,407.34L47.95,404.80C47.95,404.80 37.93,442.33 98.27,462.86C128.53,473.16 156.60,470.04 163.87,448.67C169.15,433.16 163.24,417.64 138.24,404.28L113.24,390.92C101.65,384.66 94.48,380.32 96.60,374.08C98.40,368.78 106.39,365.16 119.63,369.67C146.49,378.81 141.13,397.67 141.13,397.67L174.03,400.21C174.03,400.21 180.10,368.08 127.71,350.26C100.09,340.86 74.10,345.32 67.02,366.12C60.52,385.23 77.06,398.03 92.67,406.72L115.72,419.62C129.57,427.29 134.91,432.69 132.72,439.13C130.21,446.50 118.21,446.43 105.72,442.18C72.62,430.92 80.85,407.34 80.85,407.34Z" fill="#ffffff" stroke="#000000"/>
    <path d="M-898.60,473.49C-901.68,472.89 -903.80,471.94 -903.80,470.04C-903.80,468.10 -901.45,466.62 -897.42,466.62C-888.95,466.62 -889.17,472.54 -889.17,472.54L-882.22,470.64C-882.22,470.64 -882.87,461.94 -897.15,461.94C-906.39,461.94 -910.80,466.16 -910.80,470.76C-910.80,474.48 -907.60,477.41 -901.90,478.62L-894.38,480.22C-890.31,481.09 -888.00,481.59 -888.00,484.29C-888.00,486.53 -890.73,487.82 -895.22,487.82C-905.78,487.82 -904.91,480.60 -904.91,480.60L-911.86,482.39C-911.63,486.64 -907.72,492.49 -895.10,492.49C-887.16,492.49 -881.04,489.49 -881.04,483.75C-881.04,479.80 -883.25,476.57 -890.47,475.13ZM-870.21,488.62C-870.21,488.62 -868.58,492.49 -862.69,492.49C-856.30,492.49 -851.59,487.90 -851.59,481.44C-851.59,474.98 -856.30,470.42 -862.73,470.42C-869.53,470.42 -871.39,475.74 -871.39,475.74L-872.83,470.91L-876.48,470.91L-876.48,500.47L-870.21,500.47ZM-864.74,474.60C-860.22,474.60 -858.17,477.60 -858.17,481.44C-858.17,485.27 -860.22,488.31 -864.74,488.31C-869.34,488.31 -871.20,484.93 -871.20,481.44C-871.20,477.94 -869.34,474.60 -864.74,474.60ZM-847.03,481.44C-847.03,487.63 -842.17,492.49 -834.00,492.49C-825.75,492.49 -820.89,487.63 -820.89,481.44C-820.89,475.28 -825.75,470.42 -834.00,470.42C-842.17,470.42 -847.03,475.28 -847.03,481.44ZM-840.46,481.44C-840.46,477.98 -838.90,474.60 -834.00,474.60C-829.13,474.60 -827.46,477.98 -827.46,481.44C-827.46,484.89 -829.13,488.31 -834.00,488.31C-838.90,488.31 -840.46,484.89 -840.46,481.44ZM-808.92,479.19C-808.92,479.19 -808.31,474.60 -805.65,474.60C-804.93,474.60 -803.98,474.94 -803.98,476.50C-803.98,479.38 -804.62,481.51 -804.62,481.51L-798.54,479.95C-798.54,479.95 -798.05,478.55 -798.05,475.93C-798.05,472.96 -799.34,470.42 -803.71,470.42C-809.83,470.42 -809.75,476.88 -809.75,476.88L-811.54,470.91L-815.19,470.91L-815.19,492L-808.92,492ZM-796.91,474.60L-792.05,474.60L-792.05,484.63C-792.05,490.06 -788.93,492.49 -783.84,492.49C-778.40,492.49 -775.90,489.38 -775.90,489.38L-777.11,485.27C-777.11,485.27 -778.78,488.31 -782.13,488.31C-784.83,488.31 -785.85,486.76 -785.85,484.17L-785.85,474.60L-776.16,474.60L-776.16,470.91L-785.85,470.91L-785.85,462.97L-791.89,466.77L-791.89,470.91L-796.91,470.91ZM-771.72,467.30L-765.45,467.30L-765.45,462.47L-771.72,462.47ZM-771.72,492L-765.45,492L-765.45,470.91L-771.72,470.91ZM-740.75,492L-734.48,492L-734.48,479.08C-734.48,473.72 -737.36,470.42 -744.36,470.42C-752.72,470.42 -753.17,476.88 -753.17,476.88L-754.96,470.91L-758.61,470.91L-758.61,492L-752.34,492L-752.34,479.23C-752.34,479.23 -751.04,474.60 -746.07,474.60C-742.68,474.60 -740.75,475.96 -740.75,478.78ZM-716.81,485.54C-709.40,485.54 -704.95,482.27 -704.95,478.02C-704.95,476.65 -705.41,475.39 -706.28,474.29C-707.04,472.89 -707.08,471.94 -704.91,471.94C-704.46,471.94 -703.13,472.01 -701.64,472.24L-703.09,467.57C-704.11,467.49 -705.29,467.41 -705.82,467.41C-707.88,467.41 -709.13,468.52 -709.13,470.42C-709.13,471.02 -708.75,471.75 -708.22,472.54C-710.27,471.21 -713.23,470.42 -716.88,470.42C-724.41,470.42 -728.81,473.72 -728.81,478.02C-728.81,480.87 -726.88,483.22 -723.38,484.51C-724.79,484.70 -728.70,485.39 -728.70,488.01C-728.70,491.13 -723.91,491.77 -723.42,491.81C-724.03,491.89 -729.92,492.49 -729.92,496.22C-729.92,498.35 -727.90,501.01 -721.25,501.01L-712.85,501.01C-706.32,501.01 -702.29,498.61 -702.29,494.66C-702.29,491.66 -704,488.31 -710.95,488.31L-718.74,488.31C-721.29,488.31 -722.58,487.90 -722.58,486.68C-722.58,485.39 -721.29,485.24 -720.49,485.27C-719.39,485.46 -718.14,485.54 -716.81,485.54ZM-722.47,478.02C-722.47,475.77 -721.02,474.10 -716.88,474.10C-712.74,474.10 -711.37,475.77 -711.37,478.02C-711.37,480.18 -712.74,481.85 -716.88,481.85C-721.02,481.85 -722.47,480.18 -722.47,478.02ZM-712.21,492.46C-709.70,492.61 -708.90,493.56 -708.90,495.08C-708.90,497.59 -711.75,498.00 -716.31,498.00C-721.59,498.00 -723.30,497.21 -723.30,495.12C-723.30,492 -719.77,492 -719.62,492ZM-663.99,472.54C-663.99,472.54 -665.13,461.94 -681.31,461.94C-692.41,461.94 -699.36,468.36 -699.36,477.26C-699.36,486.11 -692.03,492.49 -682.42,492.49C-673.68,492.49 -671.24,487.63 -671.24,487.63L-671.24,492L-664.90,492L-664.90,476.31L-683.29,476.31L-683.29,480.45L-671.24,480.45C-671.24,480.45 -672.04,487.82 -681.35,487.82C-688.23,487.82 -692.33,483.30 -692.33,477.26C-692.33,471.44 -688.84,466.62 -681.35,466.62C-671.05,466.62 -670.94,474.44 -670.94,474.44ZM-651.26,479.19C-651.26,479.19 -650.65,474.60 -647.99,474.60C-647.27,474.60 -646.32,474.94 -646.32,476.50C-646.32,479.38 -646.96,481.51 -646.96,481.51L-640.88,479.95C-640.88,479.95 -640.39,478.55 -640.39,475.93C-640.39,472.96 -641.68,470.42 -646.05,470.42C-652.17,470.42 -652.09,476.88 -652.09,476.88L-653.88,470.91L-657.53,470.91L-657.53,492L-651.26,492ZM-636.97,481.44C-636.97,487.63 -632.10,492.49 -623.93,492.49C-615.69,492.49 -610.82,487.63 -610.82,481.44C-610.82,475.28 -615.69,470.42 -623.93,470.42C-632.10,470.42 -636.97,475.28 -636.97,481.44ZM-630.39,481.44C-630.39,477.98 -628.84,474.60 -623.93,474.60C-619.07,474.60 -617.40,477.98 -617.40,481.44C-617.40,484.89 -619.07,488.31 -623.93,488.31C-628.84,488.31 -630.39,484.89 -630.39,481.44ZM-608.54,474.60L-603.68,474.60L-603.68,484.63C-603.68,490.06 -600.56,492.49 -595.47,492.49C-590.04,492.49 -587.53,489.38 -587.53,489.38L-588.75,485.27C-588.75,485.27 -590.42,488.31 -593.76,488.31C-596.46,488.31 -597.49,486.76 -597.49,484.17L-597.49,474.60L-587.80,474.60L-587.80,470.91L-597.49,470.91L-597.49,462.97L-603.53,466.77L-603.53,470.91L-608.54,470.91ZM-578.18,481.82L-559.71,482.20C-559.14,479.19 -559.79,470.42 -571.68,470.42C-579.55,470.42 -584.49,475.17 -584.49,481.44C-584.49,488.58 -578.49,492.49 -571.68,492.49C-560.74,492.49 -559.14,485.01 -559.14,485.01L-565.22,483.45C-565.22,483.45 -565.26,488.31 -571.04,488.31C-576.17,488.31 -578.14,485.08 -578.18,481.82ZM-566.21,478.47L-577.80,478.85C-577.80,478.85 -577.04,474.41 -571.80,474.41C-566.74,474.41 -566.21,478.47 -566.21,478.47ZM-549.26,483.56L-555.34,485.12C-555.34,485.12 -554.85,492.49 -542.73,492.49C-536.65,492.49 -531.78,490.21 -531.78,485.92C-531.78,482.80 -533.80,480.37 -539.12,479.50L-544.44,478.62C-546.91,478.21 -548.47,477.86 -548.47,476.61C-548.47,475.55 -547.25,474.41 -544.59,474.41C-539.19,474.41 -539.00,478.13 -539.00,478.13L-532.92,476.57C-532.92,476.57 -533.80,470.42 -544.32,470.42C-549.87,470.42 -554.28,472.81 -554.28,476.99C-554.28,480.83 -550.52,482.12 -547.17,482.73L-542.23,483.64C-539.27,484.17 -537.98,484.82 -537.98,486.11C-537.98,487.59 -540.14,488.31 -542.65,488.31C-549.30,488.31 -549.26,483.56 -549.26,483.56ZM-509.40,500.47L-503.09,500.47L-503.09,470.91L-506.74,470.91L-508.22,475.74C-508.22,475.74 -510.05,470.42 -516.85,470.42C-523.31,470.42 -527.98,474.98 -527.98,481.44C-527.98,487.90 -523.31,492.49 -516.89,492.49C-511.00,492.49 -509.40,488.66 -509.40,488.66ZM-514.87,474.60C-510.28,474.60 -508.38,477.94 -508.38,481.44C-508.38,484.93 -510.28,488.31 -514.87,488.31C-519.36,488.31 -521.41,485.27 -521.41,481.44C-521.41,477.60 -519.36,474.60 -514.87,474.60ZM-490.02,470.91L-496.25,470.91L-496.25,483.83C-496.25,489.19 -493.37,492.49 -486.37,492.49C-478.01,492.49 -477.56,486.03 -477.56,486.03L-475.77,492L-472.12,492L-472.12,470.91L-478.39,470.91L-478.39,483.68C-478.39,483.68 -479.69,488.31 -484.66,488.31C-488.05,488.31 -490.02,486.95 -490.02,484.13ZM-460.12,481.82L-441.65,482.20C-441.08,479.19 -441.72,470.42 -453.62,470.42C-461.48,470.42 -466.42,475.17 -466.42,481.44C-466.42,488.58 -460.42,492.49 -453.62,492.49C-442.67,492.49 -441.08,485.01 -441.08,485.01L-447.16,483.45C-447.16,483.45 -447.20,488.31 -452.97,488.31C-458.10,488.31 -460.08,485.08 -460.12,481.82ZM-448.15,478.47L-459.74,478.85C-459.74,478.85 -458.98,474.41 -453.73,474.41C-448.68,474.41 -448.15,478.47 -448.15,478.47ZM-421.24,482.58L-421.24,478.89L-437.28,478.89L-437.28,482.58ZM-402.39,462.47L-416.30,462.47L-416.30,492L-401.63,492C-391.53,492 -386.97,489.00 -386.97,483.37C-386.97,477.75 -392.59,476.76 -393.12,476.69C-392.63,476.61 -387.73,475.66 -387.73,470.72C-387.73,465.10 -392.29,462.47 -402.39,462.47ZM-402.01,474.82L-409.54,474.82L-409.54,466.62L-402.01,466.62C-397.68,466.62 -394.76,467.68 -394.76,470.72C-394.76,473.76 -397.68,474.82 -402.01,474.82ZM-409.54,487.82L-409.54,478.85L-400.91,478.85C-396.77,478.85 -394.00,480.37 -394.00,483.34C-394.00,486.38 -396.92,487.82 -401.25,487.82ZM-382.41,481.44C-382.41,487.63 -377.54,492.49 -369.37,492.49C-361.13,492.49 -356.26,487.63 -356.26,481.44C-356.26,475.28 -361.13,470.42 -369.37,470.42C-377.54,470.42 -382.41,475.28 -382.41,481.44ZM-375.83,481.44C-375.83,477.98 -374.27,474.60 -369.37,474.60C-364.51,474.60 -362.84,477.98 -362.84,481.44C-362.84,484.89 -364.51,488.31 -369.37,488.31C-374.27,488.31 -375.83,484.89 -375.83,481.44ZM-350.56,492L-344.29,492L-344.29,461.94C-344.29,461.94 -347.48,462.47 -350.56,462.47ZM-320.01,474.25C-320.01,474.25 -321.61,470.42 -327.50,470.42C-333.92,470.42 -338.59,475.01 -338.59,481.47C-338.59,487.93 -333.92,492.49 -327.46,492.49C-320.66,492.49 -318.83,487.17 -318.83,487.17L-317.35,492L-313.70,492L-313.70,461.94C-313.70,461.94 -316.86,462.47 -320.01,462.47ZM-325.48,488.31C-329.97,488.31 -332.02,485.31 -332.02,481.47C-332.02,477.64 -329.97,474.60 -325.48,474.60C-320.88,474.60 -318.98,477.98 -318.98,481.47C-318.98,484.97 -320.88,488.31 -325.48,488.31Z"/>
</svg>