<?xml version="1.0"?>
<svg xmlns="http://www.w3.org/2000/svg" width="1920" height="1080" viewBox="-960 -540 1920 1080">
    <path d="M-155.40,-147L-173.16,-164.76L-146.52,-200.28L-93.24,-200.28L-84.36,-191.40L-84.36,-164.76L-102.12,-147L-39.96,-147L-57.72,-164.76L-57.72,-333.48L-84.36,-315.72L-84.36,-306.84L-190.92,-164.76L-217.56,-147ZM-84.36,-289.08L-84.36,-218.04L-93.24,-209.16L-137.64,-209.16L-128.76,-226.92ZM-31.08,-218.04L-22.20,-209.16L22.20,-253.56L31.08,-253.56L-22.20,-155.88L-13.32,-147L4.44,-147L39.96,-218.04L66.60,-244.68L84.36,-253.56L93.24,-244.68L48.84,-164.76L48.84,-155.88L57.72,-147L75.48,-147L93.24,-155.88L137.64,-200.28L128.76,-209.16L84.36,-164.76L75.48,-164.76L119.88,-235.80L119.88,-262.44L93.24,-271.32L66.60,-262.44L39.96,-235.80L48.84,-253.56L48.84,-262.44L39.96,-271.32L13.32,-262.44ZM-741.48,59.02L-697.08,-83.06L-670.44,-100.82L-741.48,-100.82L-723.72,-83.06L-768.12,59.02L-794.76,76.78L-723.72,76.78ZM-697.08,5.74L-688.20,14.62L-643.80,-29.78L-634.92,-29.78L-688.20,67.90L-679.32,76.78L-661.56,76.78L-626.04,5.74L-599.40,-20.90L-581.64,-29.78L-572.76,-20.90L-617.16,59.02L-617.16,67.90L-608.28,76.78L-590.52,76.78L-572.76,67.90L-528.36,23.50L-537.24,14.62L-581.64,59.02L-590.52,59.02L-546.12,-12.02L-546.12,-38.66L-572.76,-47.54L-599.40,-38.66L-626.04,-12.02L-617.16,-29.78L-617.16,-38.66L-626.04,-47.54L-652.68,-38.66ZM-501.72,59.02L-457.32,-29.78L-430.68,-29.78L-430.68,-38.66L-457.32,-38.66L-439.56,-74.18L-457.32,-74.18L-466.20,-47.54L-483.96,-38.66L-501.72,-38.66L-501.72,-29.78L-483.96,-29.78L-528.36,59.02L-528.36,67.90L-519.48,76.78L-501.72,76.78L-483.96,67.90L-439.56,23.50L-448.44,14.62L-492.84,59.02ZM-430.68,5.74L-421.80,14.62L-377.40,-29.78L-368.52,-29.78L-421.80,67.90L-412.92,76.78L-395.16,76.78L-359.64,5.74L-333,-12.02L-306.36,-12.02L-297.48,-38.66L-315.24,-47.54L-333,-38.66L-359.64,-3.14L-368.52,-3.14L-350.76,-29.78L-350.76,-38.66L-359.64,-47.54L-386.28,-38.66ZM-270.84,76.78L-253.08,76.78L-208.68,50.14L-182.04,-3.14L-199.80,-38.66L-235.32,-47.54L-279.72,-20.90L-306.36,32.38L-288.60,67.90ZM-235.32,-29.78L-217.56,-29.78L-208.68,-3.14L-226.44,32.38L-253.08,59.02L-270.84,59.02L-279.72,32.38L-261.96,-3.14ZM-84.36,76.78L-75.48,76.78L-57.72,67.90L-13.32,23.50L-22.20,14.62L-66.60,59.02L-75.48,59.02L4.44,-109.70L-57.72,-109.70L-57.72,-100.82L-31.08,-100.82L-57.72,-20.90L-66.60,-38.66L-102.12,-47.54L-146.52,-12.02L-164.28,32.38L-155.40,67.90L-137.64,76.78L-119.88,76.78L-93.24,50.14L-93.24,67.90ZM-119.88,59.02L-128.76,59.02L-137.64,32.38L-119.88,-3.14L-93.24,-29.78L-75.48,-29.78L-66.60,-12.02L-66.60,-3.14L-93.24,32.38ZM155.40,23.50L146.52,14.62L102.12,59.02L93.24,59.02L146.52,-29.78L137.64,-38.66L119.88,-38.66L84.36,23.50L48.84,59.02L39.96,59.02L31.08,41.26L75.48,-29.78L75.48,-38.66L57.72,-47.54L31.08,-38.66L-13.32,5.74L-4.44,14.62L39.96,-29.78L48.84,-29.78L4.44,41.26L13.32,67.90L31.08,76.78L48.84,76.78L75.48,50.14L75.48,67.90L84.36,76.78L93.24,76.78L111.00,67.90ZM279.72,-3.14L279.72,-20.90L270.84,-38.66L235.32,-47.54L190.92,-20.90L164.28,32.38L173.16,67.90L190.92,76.78L208.68,76.78L226.44,67.90L261.96,32.38L253.08,23.50L217.56,59.02L199.80,59.02L190.92,32.38L208.68,-3.14L235.32,-29.78L253.08,-29.78L253.08,-3.14ZM306.36,59.02L350.76,-29.78L377.40,-29.78L377.40,-38.66L350.76,-38.66L368.52,-74.18L350.76,-74.18L341.88,-47.54L324.12,-38.66L306.36,-38.66L306.36,-29.78L324.12,-29.78L279.72,59.02L279.72,67.90L288.60,76.78L306.36,76.78L324.12,67.90L368.52,23.50L359.64,14.62L315.24,59.02ZM475.08,-65.30L483.96,-65.30L492.84,-83.06L492.84,-91.94L475.08,-100.82L466.20,-100.82L457.32,-83.06L457.32,-74.18ZM377.40,5.74L386.28,14.62L430.68,-29.78L439.56,-29.78L386.28,59.02L386.28,67.90L395.16,76.78L412.92,76.78L430.68,67.90L475.08,23.50L466.20,14.62L421.80,59.02L412.92,59.02L466.20,-29.78L466.20,-38.66L448.44,-47.54L421.80,-38.66ZM519.48,76.78L537.24,76.78L581.64,50.14L608.28,-3.14L590.52,-38.66L555.00,-47.54L510.60,-20.90L483.96,32.38L501.72,67.90ZM555.00,-29.78L572.76,-29.78L581.64,-3.14L563.88,32.38L537.24,59.02L519.48,59.02L510.60,32.38L528.36,-3.14ZM617.16,5.74L626.04,14.62L670.44,-29.78L679.32,-29.78L626.04,67.90L634.92,76.78L652.68,76.78L688.20,5.74L714.84,-20.90L732.60,-29.78L741.48,-20.90L697.08,59.02L697.08,67.90L705.96,76.78L723.72,76.78L741.48,67.90L785.88,23.50L777,14.62L732.60,59.02L723.72,59.02L768.12,-12.02L768.12,-38.66L741.48,-47.54L714.84,-38.66L688.20,-12.02L697.08,-29.78L697.08,-38.66L688.20,-47.54L661.56,-38.66Z" fill="#ffffff" stroke="#000000"/>
    <path d="M-159.41,-142.98L-176.94,-160.61L-150.48,-195.71L-97.73,-195.57L-88.96,-186.75L-89.03,-160.38L-106.66,-142.84L-45.12,-142.68L-62.66,-160.31L-62.21,-327.34L-88.63,-309.83L-88.66,-301.04L-194.52,-160.66L-220.95,-143.15ZM-88.70,-283.46L-88.89,-213.13L-97.71,-204.36L-141.66,-204.48L-132.82,-222.03ZM-36.14,-212.99L-27.38,-204.17L16.70,-248.01L25.49,-247.99L-27.52,-151.42L-18.75,-142.61L-1.17,-142.56L34.19,-212.80L60.63,-239.10L78.23,-247.85L87.00,-239.03L42.84,-160.03L42.81,-151.24L51.58,-142.42L69.16,-142.38L86.77,-151.12L130.84,-194.96L122.07,-203.78L78.00,-159.94L69.21,-159.96L113.35,-230.17L113.42,-256.55L87.07,-265.41L60.68,-256.69L34.23,-230.38L43.07,-247.94L43.09,-256.73L34.33,-265.55L7.93,-256.83ZM-740.17,59.43L-695.84,-81.11L-669.42,-98.62L-739.75,-98.81L-722.21,-81.18L-766.54,59.36L-792.96,76.87L-722.63,77.06ZM-696.07,6.80L-687.30,15.62L-643.23,-28.22L-634.44,-28.20L-687.44,68.36L-678.67,77.18L-661.09,77.22L-625.74,6.99L-599.30,-19.32L-581.69,-28.06L-572.92,-19.25L-617.09,59.76L-617.11,68.55L-608.34,77.36L-590.76,77.41L-573.16,68.67L-529.08,24.83L-537.85,16.01L-581.92,59.85L-590.72,59.83L-546.57,-10.39L-546.50,-36.76L-572.85,-45.62L-599.25,-36.90L-625.69,-10.60L-616.86,-28.15L-616.83,-36.95L-625.60,-45.76L-652.00,-37.04ZM-502.80,60.06L-458.61,-27.73L-432.24,-27.66L-432.22,-36.46L-458.59,-36.53L-440.92,-71.64L-458.50,-71.69L-467.36,-45.34L-484.96,-36.60L-502.55,-36.64L-502.57,-27.85L-484.99,-27.80L-529.18,59.99L-529.20,68.78L-520.43,77.60L-502.85,77.64L-485.25,68.90L-441.17,25.06L-449.94,16.25L-494.01,60.08ZM-432.33,7.50L-423.57,16.32L-379.49,-27.52L-370.70,-27.50L-423.71,69.06L-414.94,77.88L-397.36,77.92L-362.01,7.69L-335.59,-9.82L-309.21,-9.75L-300.35,-36.10L-317.91,-44.94L-335.52,-36.20L-361.98,-1.10L-370.77,-1.13L-353.12,-27.45L-353.10,-36.25L-361.87,-45.06L-388.26,-36.34ZM-274.28,78.25L-256.70,78.30L-212.67,52.04L-186.16,-0.64L-203.65,-35.85L-238.79,-44.73L-282.81,-18.48L-309.33,34.20L-291.84,69.41ZM-238.84,-27.15L-221.25,-27.10L-212.53,-0.71L-230.21,34.41L-256.65,60.71L-274.23,60.67L-282.95,34.27L-265.28,-0.85ZM-89.67,78.74L-80.87,78.76L-63.27,70.02L-19.20,26.18L-27.96,17.37L-72.04,61.20L-80.83,61.18L-1.26,-105.64L-62.80,-105.80L-62.83,-97.01L-36.45,-96.94L-63.04,-17.89L-71.78,-35.50L-106.92,-44.38L-150.97,-9.33L-168.67,34.57L-159.97,69.76L-142.41,78.60L-124.83,78.65L-98.39,52.34L-98.43,69.93ZM-124.78,61.06L-133.57,61.04L-142.30,34.64L-124.62,-0.47L-98.18,-26.78L-80.59,-26.73L-71.85,-9.12L-71.87,-0.33L-98.34,34.76ZM147.84,26.62L139.07,17.81L95.00,61.65L86.20,61.62L139.18,-26.15L130.42,-34.96L112.83,-35.01L77.51,26.44L42.25,61.51L33.46,61.48L24.71,43.88L68.86,-26.33L68.88,-35.12L51.32,-43.96L24.92,-35.24L-19.15,8.60L-10.38,17.41L33.69,-26.43L42.48,-26.40L-1.66,43.81L7.06,70.21L24.62,79.04L42.20,79.09L68.65,52.79L68.60,70.37L77.37,79.18L86.16,79.21L103.76,70.46ZM270.98,0.58L271.03,-17.01L262.28,-34.61L227.14,-43.50L183.12,-17.24L156.60,35.44L165.30,70.63L182.86,79.46L200.44,79.51L218.05,70.77L253.31,35.69L244.54,26.88L209.28,61.95L191.70,61.91L182.98,35.51L200.65,0.39L227.10,-25.91L244.68,-25.87L244.61,0.51ZM297.19,62.19L341.38,-25.61L367.76,-25.54L367.78,-34.33L341.40,-34.40L359.08,-69.52L341.50,-69.57L332.64,-43.22L315.03,-34.47L297.45,-34.52L297.43,-25.73L315.01,-25.68L270.82,62.12L270.80,70.91L279.56,79.72L297.15,79.77L314.75,71.02L358.82,27.18L350.06,18.37L305.98,62.21ZM464.55,-60.45L473.34,-60.42L482.18,-77.98L482.20,-86.77L464.64,-95.61L455.85,-95.64L447.02,-78.08L446.99,-69.29ZM367.66,9.62L376.43,18.44L420.50,-25.40L429.29,-25.38L376.31,62.40L376.29,71.19L385.06,80.00L402.64,80.05L420.25,71.30L464.32,27.46L455.55,18.65L411.48,62.49L402.69,62.47L455.67,-25.31L455.69,-34.10L438.13,-42.94L411.73,-34.21ZM508.13,80.33L525.72,80.37L569.74,54.12L596.26,1.44L578.77,-33.77L543.63,-42.66L499.60,-16.40L473.09,36.28L490.57,71.49ZM543.58,-25.07L561.16,-25.03L569.88,1.37L552.21,36.49L525.76,62.79L508.18,62.75L499.46,36.35L517.14,1.23ZM605.02,10.26L613.79,19.07L657.86,-24.77L666.65,-24.75L613.65,71.82L622.42,80.63L640.00,80.68L675.35,10.44L701.80,-15.86L719.40,-24.61L728.17,-15.79L684.00,63.21L683.98,72.00L692.75,80.82L710.33,80.86L727.94,72.12L772.01,28.28L763.24,19.47L719.17,63.31L710.38,63.28L754.52,-6.93L754.59,-33.30L728.24,-42.17L701.84,-33.44L675.40,-7.14L684.24,-24.70L684.26,-33.49L675.49,-42.31L649.10,-33.58Z" fill="#ffffff" stroke="#000000"/>
    <path d="M-163.32,-139.05L-180.63,-156.55L-154.34,-191.22L-102.12,-190.94L-93.47,-182.19L-93.61,-156.08L-111.10,-138.77L-50.19,-138.45L-67.50,-155.95L-66.62,-321.29L-92.82,-304.02L-92.87,-295.32L-198.03,-156.64L-224.23,-139.37ZM-92.96,-277.92L-93.33,-208.30L-102.08,-199.64L-145.59,-199.87L-136.79,-217.23ZM-41.11,-208.02L-32.46,-199.27L11.28,-242.55L19.99,-242.51L-32.74,-147.06L-24.08,-138.31L-6.67,-138.22L28.50,-207.65L54.75,-233.62L72.20,-242.23L80.86,-233.48L36.93,-155.39L36.88,-146.69L45.54,-137.94L62.94,-137.85L80.39,-146.46L124.14,-189.74L115.48,-198.49L71.74,-155.21L63.04,-155.25L106.92,-224.64L107.06,-250.75L80.99,-259.59L54.84,-251.02L28.60,-225.06L37.39,-242.41L37.44,-251.12L28.78,-259.86L2.63,-251.30ZM-738.74,59.79L-694.49,-79.21L-668.29,-96.48L-737.91,-96.85L-720.59,-79.35L-764.85,59.66L-791.04,76.92L-721.43,77.29ZM-694.95,7.81L-686.29,16.56L-642.55,-26.72L-633.85,-26.67L-686.57,68.77L-677.91,77.52L-660.51,77.61L-625.33,8.18L-599.09,-17.79L-581.64,-26.40L-572.98,-17.65L-616.91,60.44L-616.95,69.14L-608.30,77.89L-590.89,77.98L-573.44,69.37L-529.70,26.09L-538.35,17.35L-582.10,60.63L-590.80,60.58L-546.92,-8.81L-546.78,-34.91L-572.84,-43.76L-598.99,-35.19L-625.24,-9.22L-616.44,-26.58L-616.40,-35.28L-625.05,-44.03L-651.21,-35.47ZM-503.78,61.04L-459.80,-25.75L-433.70,-25.61L-433.65,-34.31L-459.76,-34.45L-442.17,-69.17L-459.57,-69.26L-468.41,-43.20L-485.86,-34.59L-503.27,-34.68L-503.31,-25.98L-485.91,-25.89L-529.88,60.90L-529.93,69.61L-521.27,78.35L-503.87,78.45L-486.42,69.84L-442.68,26.56L-451.33,17.81L-495.07,61.09ZM-433.88,9.20L-425.23,17.95L-381.48,-25.33L-372.78,-25.29L-425.50,70.16L-416.85,78.91L-399.44,79.00L-364.26,9.57L-338.06,-7.70L-311.96,-7.56L-303.12,-33.62L-320.47,-42.42L-337.93,-33.81L-364.22,0.86L-372.92,0.82L-355.38,-25.20L-355.33,-33.90L-363.99,-42.65L-390.14,-34.08ZM-277.61,79.65L-260.21,79.74L-216.56,53.86L-190.17,1.79L-207.39,-33.11L-242.15,-42.00L-285.80,-16.12L-312.19,35.95L-294.97,70.85ZM-242.25,-24.60L-224.84,-24.50L-216.28,1.65L-233.87,36.37L-260.11,62.34L-277.52,62.24L-286.08,36.09L-268.49,1.37ZM-94.86,80.62L-86.16,80.66L-68.71,72.05L-24.97,28.77L-33.62,20.03L-77.37,63.31L-86.07,63.26L-6.87,-101.67L-67.78,-101.99L-67.83,-93.29L-41.72,-93.15L-68.25,-14.97L-76.86,-32.42L-111.62,-41.31L-155.32,-6.73L-172.95,36.69L-164.43,71.55L-147.08,80.34L-129.67,80.43L-103.43,54.46L-103.52,71.87ZM-129.58,63.03L-138.28,62.98L-146.84,36.83L-129.26,2.11L-103.01,-23.86L-85.61,-23.76L-77.00,-6.31L-77.04,2.39L-103.33,37.06ZM140.38,29.65L131.72,20.90L87.98,64.18L79.28,64.14L131.95,-22.61L123.30,-31.36L105.89,-31.45L70.76,29.28L35.76,63.91L27.06,63.86L18.45,46.41L62.33,-22.98L62.38,-31.68L45.02,-40.47L18.87,-31.91L-24.87,11.37L-16.22,20.12L27.52,-23.16L36.23,-23.12L-7.65,46.27L0.91,72.42L18.27,81.22L35.67,81.31L61.92,55.34L61.83,72.75L70.48,81.50L79.18,81.54L96.63,72.93ZM262.35,4.19L262.44,-13.21L253.83,-30.66L219.07,-39.55L175.42,-13.67L149.03,38.40L157.55,73.26L174.91,82.05L192.31,82.14L209.76,73.53L244.76,38.91L236.10,30.16L201.11,64.78L183.70,64.69L175.14,38.54L192.73,3.82L218.97,-22.15L236.38,-22.05L236.24,4.05ZM288.13,65.25L332.10,-21.55L358.21,-21.41L358.26,-30.11L332.15,-30.25L349.74,-64.96L332.33,-65.06L323.49,-39.00L306.04,-30.39L288.64,-30.48L288.59,-21.78L306.00,-21.68L262.02,65.11L261.98,73.81L270.63,82.56L288.04,82.65L305.49,74.04L349.23,30.76L340.58,22.01L296.83,65.29ZM454.12,-55.71L462.82,-55.66L471.62,-73.02L471.66,-81.72L454.31,-90.52L445.60,-90.56L436.81,-73.20L436.76,-64.50ZM358.03,13.40L366.68,22.15L410.42,-21.13L419.13,-21.08L366.45,65.66L366.40,74.36L375.06,83.11L392.47,83.21L409.92,74.60L453.66,31.32L445.00,22.57L401.26,65.85L392.56,65.80L445.23,-20.94L445.28,-29.65L427.92,-38.44L401.77,-29.88ZM496.89,83.76L514.30,83.85L557.95,57.98L584.33,5.90L567.11,-29.00L532.35,-37.89L488.70,-12.01L462.31,40.06L479.53,74.97ZM532.26,-20.48L549.66,-20.39L558.22,5.76L540.64,40.48L514.39,66.45L496.99,66.36L488.42,40.20L506.01,5.49ZM592.99,14.65L601.64,23.40L645.39,-19.88L654.09,-19.84L601.37,75.61L610.02,84.36L627.43,84.45L662.61,15.02L688.85,-10.95L706.30,-19.56L714.96,-10.81L671.03,67.28L670.98,75.98L679.64,84.73L697.05,84.82L714.50,76.21L758.24,32.93L749.58,24.18L705.84,67.46L697.14,67.42L741.02,-1.97L741.16,-28.08L715.10,-36.92L688.94,-28.35L662.70,-2.38L671.49,-19.74L671.54,-28.45L662.88,-37.19L636.73,-28.63Z" fill="#ffffff" stroke="#000000"/>
    <path d="M-167.13,-135.20L-184.22,-152.56L-158.10,-186.81L-106.42,-186.40L-97.88,-177.71L-98.08,-151.87L-115.45,-134.78L-55.15,-134.30L-72.24,-151.67L-70.94,-315.32L-96.92,-298.30L-96.98,-289.69L-201.44,-152.70L-227.42,-135.68ZM-97.12,-272.46L-97.67,-203.55L-106.35,-195.01L-149.42,-195.35L-140.67,-212.51ZM-45.99,-203.14L-37.45,-194.46L5.96,-237.18L14.58,-237.11L-37.86,-142.78L-29.31,-134.10L-12.09,-133.96L22.92,-202.59L48.96,-228.23L66.26,-236.70L74.80,-228.02L31.12,-150.84L31.05,-142.23L39.59,-133.55L56.82,-133.41L74.12,-141.89L117.53,-184.61L108.98,-193.29L65.57,-150.57L56.96,-150.64L100.57,-219.20L100.78,-245.04L75.01,-253.86L49.10,-245.45L23.05,-219.82L31.80,-236.98L31.87,-245.59L23.33,-254.27L-2.58,-245.87ZM-737.20,60.11L-693.03,-77.36L-667.06,-94.39L-735.96,-94.93L-718.87,-77.57L-763.04,59.90L-789.01,76.92L-720.11,77.47ZM-693.72,8.77L-685.17,17.45L-641.77,-25.27L-633.15,-25.20L-685.59,69.13L-677.04,77.81L-659.82,77.95L-624.81,9.32L-598.77,-16.32L-581.47,-24.79L-572.93,-16.11L-616.61,61.07L-616.68,69.68L-608.14,78.36L-590.91,78.50L-573.61,70.02L-530.20,27.30L-538.75,18.62L-582.16,61.34L-590.77,61.27L-547.16,-7.29L-546.95,-33.13L-572.72,-41.95L-598.63,-33.54L-624.68,-7.91L-615.93,-25.07L-615.86,-33.68L-624.40,-42.36L-650.31,-33.96ZM-504.64,61.96L-460.89,-23.83L-435.05,-23.63L-434.98,-32.24L-460.82,-32.45L-443.32,-66.76L-460.54,-66.90L-469.36,-41.13L-486.66,-32.65L-503.88,-32.79L-503.95,-24.18L-486.73,-24.04L-530.48,61.75L-530.55,70.37L-522.00,79.05L-504.78,79.18L-487.48,70.71L-444.07,27.98L-452.61,19.30L-496.02,62.03ZM-435.32,10.83L-426.77,19.51L-383.37,-23.21L-374.75,-23.15L-427.19,71.19L-418.64,79.87L-401.42,80.01L-366.41,11.38L-340.44,-5.65L-314.60,-5.44L-305.78,-31.21L-322.93,-39.96L-340.23,-31.49L-366.34,2.76L-374.96,2.69L-357.53,-23.01L-357.46,-31.62L-366.00,-40.30L-391.91,-31.90ZM-280.83,80.97L-263.60,81.11L-220.33,55.61L-194.08,4.13L-211.03,-30.46L-245.41,-39.34L-288.69,-13.85L-314.94,37.63L-297.99,72.22ZM-245.55,-22.12L-228.33,-21.98L-219.92,3.93L-237.42,38.24L-263.46,63.88L-280.69,63.74L-289.10,37.83L-271.60,3.52ZM-99.95,82.41L-91.34,82.48L-74.04,74.00L-30.63,31.28L-39.18,22.60L-82.58,65.32L-91.20,65.25L-12.37,-97.78L-72.67,-98.26L-72.74,-89.65L-46.90,-89.45L-73.35,-12.13L-81.83,-29.43L-116.21,-38.31L-159.56,-4.20L-177.13,38.73L-168.79,73.25L-151.63,82.00L-134.40,82.13L-108.36,56.50L-108.49,73.73ZM-134.26,64.91L-142.88,64.84L-151.29,38.93L-133.78,4.61L-107.74,-21.02L-90.51,-20.88L-82.04,-3.59L-82.10,5.03L-108.22,39.27ZM133.02,32.58L124.48,23.90L81.07,66.62L72.46,66.55L124.82,-19.17L116.28,-27.85L99.05,-27.99L64.12,32.03L29.39,66.21L20.78,66.14L12.30,48.85L55.91,-19.72L55.98,-28.33L38.83,-37.08L12.92,-28.67L-30.49,14.05L-21.95,22.73L21.46,-19.99L30.07,-19.92L-13.54,48.64L-5.13,74.55L12.02,83.30L29.25,83.44L55.30,57.80L55.16,75.03L63.70,83.71L72.32,83.78L89.61,75.31ZM253.82,7.70L253.95,-9.52L245.48,-26.82L211.09,-35.71L167.82,-10.21L141.57,41.26L149.91,75.79L167.06,84.54L184.29,84.67L201.59,76.20L236.31,42.02L227.77,33.34L193.04,67.52L175.81,67.38L167.41,41.47L184.91,7.15L210.95,-18.48L228.18,-18.34L227.98,7.50ZM279.17,68.20L322.93,-17.59L348.77,-17.38L348.84,-26.00L323.00,-26.20L340.50,-60.52L323.27,-60.66L314.45,-34.88L297.16,-26.41L279.93,-26.55L279.86,-17.93L297.09,-17.79L253.33,68.00L253.27,76.61L261.81,85.29L279.04,85.43L296.33,76.95L339.74,34.23L331.20,25.55L287.79,68.27ZM443.79,-51.08L452.40,-51.01L461.15,-68.17L461.22,-76.78L444.06,-85.53L435.45,-85.60L426.70,-68.45L426.63,-59.83ZM348.49,17.07L357.04,25.75L400.45,-16.97L409.06,-16.90L356.69,68.82L356.63,77.43L365.17,86.11L382.40,86.25L399.69,77.78L443.10,35.05L434.56,26.37L391.15,69.09L382.53,69.02L434.90,-16.70L434.97,-25.31L417.81,-34.06L391.90,-25.65ZM485.76,87.07L502.98,87.21L546.26,61.71L572.51,10.24L555.56,-24.35L521.17,-33.24L477.90,-7.74L451.65,43.73L468.60,78.32ZM521.03,-16.01L538.26,-15.87L546.67,10.04L529.17,44.35L503.12,69.99L485.89,69.85L477.49,43.94L494.99,9.62ZM581.05,18.92L589.60,27.60L633.01,-15.12L641.62,-15.05L589.19,79.28L597.73,87.97L614.96,88.10L649.96,19.47L676.01,-6.16L693.30,-14.64L701.85,-5.96L658.16,71.22L658.09,79.83L666.64,88.52L683.86,88.65L701.16,80.18L744.57,37.45L736.02,28.77L692.61,71.49L684.00,71.43L727.62,2.86L727.82,-22.98L702.05,-31.80L676.14,-23.39L650.10,2.25L658.85,-14.91L658.92,-23.53L650.37,-32.21L624.46,-23.80Z" fill="#ffffff" stroke="#000000"/>
    <path d="M-170.84,-131.42L-187.71,-148.65L-161.77,-182.48L-110.62,-181.93L-102.19,-173.32L-102.46,-147.75L-119.69,-130.88L-60.02,-130.24L-76.89,-147.47L-75.17,-309.44L-100.92,-292.66L-101.01,-284.14L-204.75,-148.83L-230.51,-132.06ZM-101.19,-267.09L-101.92,-198.89L-110.53,-190.46L-153.16,-190.91L-144.45,-207.87ZM-50.77,-198.35L-42.34,-189.73L0.73,-231.90L9.26,-231.81L-42.88,-138.59L-34.45,-129.97L-17.40,-129.79L17.42,-197.62L43.27,-222.93L60.41,-231.27L68.84,-222.65L25.40,-146.39L25.31,-137.86L33.75,-129.25L50.79,-129.07L67.93,-137.41L111.01,-179.58L102.57,-188.19L59.50,-146.03L50.98,-146.12L94.32,-213.86L94.59,-239.43L69.11,-248.23L43.45,-239.97L17.60,-214.67L26.31,-231.63L26.40,-240.16L17.96,-248.77L-7.70,-240.52ZM-735.54,60.37L-691.47,-75.57L-665.72,-92.35L-733.91,-93.07L-717.05,-75.84L-761.12,60.10L-786.87,76.87L-718.68,77.60ZM-692.38,9.67L-683.94,18.29L-640.87,-23.88L-632.35,-23.79L-684.49,69.43L-676.05,78.05L-659.01,78.23L-624.18,10.40L-598.34,-14.90L-581.20,-23.25L-572.77,-14.63L-616.20,61.63L-616.29,70.16L-607.86,78.77L-590.81,78.95L-573.67,70.61L-530.60,28.44L-539.03,19.83L-582.11,62.00L-590.63,61.91L-547.28,-5.84L-547.01,-31.41L-572.49,-40.20L-598.16,-31.95L-624.00,-6.65L-615.30,-23.61L-615.21,-32.13L-623.64,-40.75L-649.30,-32.50ZM-505.39,62.81L-461.86,-21.98L-436.29,-21.71L-436.20,-30.23L-461.77,-30.50L-444.36,-64.42L-461.41,-64.60L-470.20,-39.12L-487.34,-30.77L-504.39,-30.96L-504.48,-22.43L-487.43,-22.25L-530.96,62.54L-531.05,71.06L-522.62,79.68L-505.57,79.86L-488.43,71.52L-445.35,29.35L-453.79,20.73L-496.86,62.90ZM-436.65,12.39L-428.22,21.00L-385.14,-21.16L-376.62,-21.07L-428.76,72.15L-420.32,80.77L-403.28,80.95L-368.45,13.11L-342.70,-3.66L-317.13,-3.39L-308.33,-28.87L-325.29,-37.58L-342.43,-29.24L-368.36,4.59L-376.89,4.50L-359.57,-20.89L-359.48,-29.42L-367.91,-38.03L-393.57,-29.78ZM-283.94,82.21L-266.89,82.40L-223.99,57.27L-197.88,6.40L-214.56,-27.88L-248.57,-36.76L-291.46,-11.64L-317.58,39.23L-300.89,73.51ZM-248.75,-19.72L-231.70,-19.53L-223.45,6.13L-240.86,40.05L-266.71,65.35L-283.75,65.17L-292.01,39.50L-274.60,5.59ZM-104.92,84.12L-96.40,84.21L-79.26,75.86L-36.19,33.69L-44.62,25.08L-87.70,67.25L-96.22,67.16L-17.78,-93.99L-77.45,-94.62L-77.54,-86.10L-51.97,-85.83L-78.36,-9.38L-86.70,-26.52L-120.71,-35.41L-163.69,-1.76L-181.19,40.68L-173.03,74.87L-156.07,83.57L-139.02,83.75L-113.18,58.45L-113.36,75.50ZM-138.84,66.70L-147.37,66.61L-155.62,40.95L-138.21,7.03L-112.36,-18.27L-95.31,-18.09L-86.97,-0.95L-87.06,7.58L-113.00,41.40ZM125.78,35.41L117.34,26.80L74.27,68.97L65.74,68.88L117.79,-15.82L109.36,-24.44L92.31,-24.62L57.58,34.69L23.12,68.42L14.60,68.33L6.25,51.20L49.60,-16.55L49.69,-25.07L32.73,-33.78L7.07,-25.52L-36.01,16.65L-27.57,25.26L15.50,-16.91L24.03,-16.82L-19.32,50.92L-11.07,76.59L5.89,85.29L22.94,85.47L48.78,60.17L48.60,77.22L57.04,85.84L65.56,85.93L82.70,77.58ZM245.39,11.11L245.57,-5.94L237.22,-23.08L203.22,-31.97L160.32,-6.85L134.21,44.03L142.37,78.22L159.33,86.92L176.38,87.10L193.52,78.76L227.98,45.02L219.54,36.41L185.08,70.14L168.03,69.96L159.78,44.30L177.19,10.38L203.04,-14.92L220.09,-14.74L219.81,10.84ZM270.33,71.05L313.85,-13.74L339.43,-13.47L339.52,-21.99L313.94,-22.26L331.35,-56.18L314.31,-56.36L305.51,-30.88L288.37,-22.54L271.32,-22.72L271.23,-14.19L288.28,-14.01L244.75,70.78L244.66,79.30L253.10,87.92L270.15,88.10L287.28,79.76L330.36,37.59L321.92,28.97L278.85,71.14ZM433.56,-46.57L442.08,-46.48L450.79,-63.44L450.88,-71.96L433.92,-80.67L425.39,-80.76L416.69,-63.80L416.60,-55.28ZM339.06,20.63L347.50,29.24L390.57,-12.93L399.10,-12.83L347.05,71.87L346.95,80.39L355.39,89.00L372.44,89.19L389.58,80.84L432.65,38.67L424.22,30.06L381.14,72.23L372.62,72.14L424.67,-12.56L424.76,-21.09L407.80,-29.79L382.14,-21.54ZM474.73,90.27L491.78,90.45L534.67,65.33L560.79,14.46L544.10,-19.82L510.09,-28.71L467.20,-3.59L441.08,47.29L457.77,81.57ZM509.91,-11.66L526.96,-11.48L535.21,14.19L517.80,48.10L491.96,73.40L474.91,73.22L466.66,47.56L484.07,13.64ZM569.22,23.07L577.65,31.69L620.73,-10.48L629.25,-10.39L577.11,82.83L585.55,91.45L602.59,91.63L637.42,23.80L663.26,-1.50L680.40,-9.85L688.83,-1.23L645.40,75.03L645.31,83.56L653.74,92.17L670.79,92.35L687.93,84.01L731.00,41.84L722.57,33.23L679.49,75.40L670.97,75.31L714.32,7.56L714.59,-18.01L689.10,-26.81L663.44,-18.55L637.60,6.75L646.30,-10.21L646.39,-18.73L637.96,-27.35L612.29,-19.10Z" fill="#ffffff" stroke="#000000"/>
    <path d="M-174.45,-127.73L-191.10,-144.82L-165.34,-178.23L-114.73,-177.55L-106.41,-169.01L-106.74,-143.70L-123.84,-127.06L-64.79,-126.27L-81.44,-143.37L-79.31,-303.64L-104.84,-287.10L-104.95,-278.67L-207.97,-145.05L-233.50,-128.51ZM-105.18,-261.80L-106.07,-194.31L-114.62,-185.99L-156.80,-186.55L-148.14,-203.31ZM-55.46,-193.64L-47.14,-185.09L-4.40,-226.71L4.03,-226.60L-47.81,-134.48L-39.49,-125.94L-22.62,-125.71L12.02,-192.75L37.66,-217.72L54.65,-225.93L62.97,-217.38L19.79,-142.02L19.67,-133.59L28.00,-125.04L44.87,-124.82L61.85,-133.03L104.59,-174.64L96.26,-183.19L53.53,-141.57L45.09,-141.69L88.16,-208.61L88.50,-233.91L63.31,-242.68L37.89,-234.59L12.25,-209.62L20.91,-226.37L21.02,-234.81L12.69,-243.36L-12.72,-235.26ZM-733.77,60.58L-689.81,-73.82L-664.28,-90.36L-731.76,-91.26L-715.11,-74.16L-759.08,60.24L-784.61,76.78L-717.13,77.67ZM-690.93,10.53L-682.60,19.08L-639.87,-22.54L-631.43,-22.43L-683.28,69.69L-674.95,78.23L-658.08,78.46L-623.44,11.42L-597.80,-13.55L-580.82,-21.76L-572.50,-13.21L-615.68,62.15L-615.79,70.58L-607.47,79.13L-590.60,79.35L-573.62,71.14L-530.88,29.53L-539.20,20.98L-581.94,62.60L-590.38,62.48L-547.30,-4.44L-546.97,-29.74L-572.16,-38.52L-597.58,-30.42L-623.22,-5.45L-614.56,-22.21L-614.45,-30.64L-622.77,-39.19L-648.19,-31.09ZM-506.02,63.60L-462.73,-20.19L-437.42,-19.85L-437.31,-28.29L-462.61,-28.62L-445.30,-62.14L-462.17,-62.37L-470.94,-37.17L-487.92,-28.96L-504.79,-29.18L-504.90,-20.75L-488.03,-20.53L-531.33,63.27L-531.44,71.70L-523.12,80.25L-506.25,80.47L-489.26,72.26L-446.53,30.65L-454.85,22.10L-497.59,63.72ZM-437.87,13.89L-429.55,22.43L-386.81,-19.18L-378.37,-19.07L-430.22,73.05L-421.89,81.59L-405.02,81.82L-370.39,14.78L-344.86,-1.75L-319.55,-1.42L-310.78,-26.61L-327.54,-35.27L-344.52,-27.06L-370.27,6.35L-378.71,6.24L-361.50,-18.85L-361.39,-27.28L-369.71,-35.83L-395.13,-27.73ZM-286.93,83.39L-270.06,83.61L-227.55,58.86L-201.57,8.59L-217.99,-25.38L-251.62,-34.26L-294.13,-9.51L-320.11,40.76L-303.69,74.73ZM-251.85,-17.39L-234.97,-17.17L-226.88,8.25L-244.19,41.77L-269.84,66.74L-286.71,66.51L-294.81,41.10L-277.49,7.58ZM-109.79,85.74L-101.35,85.85L-84.37,77.64L-41.64,36.02L-49.96,27.47L-92.70,69.09L-101.13,68.98L-23.09,-90.28L-82.13,-91.07L-82.24,-82.63L-56.94,-82.30L-83.25,-6.71L-91.46,-23.70L-125.09,-32.58L-167.72,0.60L-185.15,42.55L-177.16,76.41L-160.40,85.07L-143.53,85.29L-117.89,60.32L-118.11,77.19ZM-143.31,68.42L-151.74,68.31L-159.84,42.89L-142.52,9.37L-116.88,-15.60L-100.01,-15.37L-91.80,1.61L-91.91,10.04L-117.67,43.45ZM118.63,38.15L110.31,29.60L67.57,71.22L59.14,71.11L110.87,-12.57L102.55,-21.12L85.68,-21.35L51.15,37.25L16.96,70.55L8.53,70.43L0.32,53.45L43.39,-13.47L43.50,-21.91L26.74,-30.56L1.32,-22.47L-41.41,19.15L-33.09,27.70L9.65,-13.92L18.08,-13.81L-24.99,53.12L-16.89,78.53L-0.13,87.19L16.74,87.42L42.38,62.45L42.16,79.32L50.48,87.87L58.92,87.98L75.90,79.77ZM237.06,14.41L237.29,-2.46L229.08,-19.44L195.45,-28.32L152.94,-3.58L126.96,46.70L134.94,80.55L151.70,89.21L168.57,89.43L185.56,81.22L219.75,47.93L211.42,39.38L177.23,72.67L160.36,72.45L152.26,47.03L169.58,13.52L195.22,-11.45L212.09,-11.23L211.76,14.08ZM261.59,73.79L304.88,-10.00L330.19,-9.66L330.30,-18.10L304.99,-18.43L322.31,-51.95L305.44,-52.17L296.67,-26.98L279.69,-18.77L262.82,-18.99L262.71,-10.56L279.58,-10.33L236.28,73.46L236.17,81.89L244.49,90.44L261.36,90.66L278.34,82.45L321.08,40.84L312.76,32.29L270.02,73.91ZM423.42,-42.17L431.86,-42.06L440.52,-58.82L440.63,-67.25L423.87,-75.91L415.44,-76.02L406.78,-59.27L406.66,-50.83ZM329.74,24.08L338.06,32.63L380.80,-8.99L389.23,-8.88L337.50,74.80L337.39,83.24L345.71,91.78L362.58,92.01L379.57,83.80L422.30,42.18L413.98,33.63L371.24,75.25L362.81,75.14L414.54,-8.54L414.65,-16.98L397.89,-25.64L372.48,-17.54ZM463.81,93.35L480.68,93.58L523.19,68.83L549.17,18.56L532.75,-15.41L499.12,-24.29L456.60,0.45L430.63,50.73L447.05,84.69ZM498.89,-7.42L515.76,-7.20L523.86,18.22L506.54,51.74L480.90,76.71L464.03,76.48L455.93,51.06L473.25,17.55ZM557.49,27.10L565.81,35.65L608.55,-5.97L616.99,-5.85L565.14,86.26L573.47,94.81L590.34,95.03L624.97,28.00L650.62,3.03L667.60,-5.18L675.92,3.36L632.74,78.72L632.62,87.16L640.95,95.70L657.82,95.93L674.80,87.72L717.54,46.10L709.21,37.55L666.48,79.17L658.04,79.06L701.11,12.14L701.45,-13.17L676.26,-21.94L650.84,-13.84L625.20,11.13L633.86,-5.63L633.97,-14.07L625.65,-22.61L600.23,-14.51Z" fill="#ffffff" stroke="#000000"/>
    <path d="M-177.96,-124.11L-194.39,-141.07L-168.82,-174.05L-118.74,-173.26L-110.53,-164.78L-110.93,-139.74L-127.88,-123.31L-69.46,-122.38L-85.89,-139.34L-83.36,-297.92L-108.67,-281.62L-108.80,-273.28L-211.08,-141.33L-236.38,-125.04ZM-109.06,-256.59L-110.13,-189.82L-118.61,-181.60L-160.34,-182.27L-151.73,-198.83ZM-60.05,-189.02L-51.84,-180.54L-9.44,-221.60L-1.10,-221.47L-52.64,-130.46L-44.42,-121.98L-27.73,-121.72L6.72,-187.95L32.15,-212.59L48.98,-220.67L57.19,-212.20L14.27,-137.74L14.13,-129.40L22.35,-120.92L39.04,-120.65L55.86,-128.73L98.26,-169.80L90.05,-178.28L47.65,-137.21L39.30,-137.35L82.10,-203.45L82.50,-228.49L57.59,-237.23L32.42,-229.29L6.98,-204.65L15.60,-221.21L15.73,-229.55L7.52,-238.03L-17.66,-230.08ZM-731.89,60.74L-688.03,-72.13L-662.73,-88.42L-729.50,-89.49L-713.07,-72.53L-756.93,60.34L-782.23,76.64L-715.47,77.70ZM-689.36,11.33L-681.15,19.81L-638.75,-21.26L-630.41,-21.12L-681.95,69.89L-673.73,78.37L-657.04,78.63L-622.59,12.40L-597.16,-12.24L-580.33,-20.32L-572.12,-11.85L-615.05,62.61L-615.18,70.95L-606.97,79.43L-590.27,79.70L-573.45,71.62L-531.05,30.55L-539.27,22.07L-581.66,63.14L-590.01,63.00L-547.21,-3.10L-546.81,-28.14L-571.72,-36.88L-596.89,-28.94L-622.33,-4.30L-613.72,-20.86L-613.58,-29.20L-621.80,-37.68L-646.97,-29.73ZM-506.55,64.33L-463.49,-18.46L-438.45,-18.06L-438.31,-26.41L-463.35,-26.81L-446.13,-59.93L-462.82,-60.19L-471.57,-35.29L-488.39,-27.21L-505.08,-27.47L-505.22,-19.13L-488.52,-18.86L-531.58,63.93L-531.72,72.28L-523.50,80.76L-506.81,81.03L-489.99,72.95L-447.59,31.88L-455.80,23.40L-498.20,64.47ZM-438.98,15.32L-430.77,23.80L-388.37,-17.27L-380.02,-17.13L-431.56,73.88L-423.35,82.36L-406.66,82.62L-372.21,16.38L-346.91,0.09L-321.87,0.49L-313.12,-24.42L-329.68,-33.03L-346.51,-24.95L-372.08,8.04L-380.42,7.91L-363.33,-16.87L-363.20,-25.21L-371.41,-33.69L-396.58,-25.75ZM-289.81,84.48L-273.12,84.75L-230.99,60.38L-205.15,10.70L-221.31,-22.95L-254.57,-31.83L-296.70,-7.46L-322.53,42.22L-306.37,75.87ZM-254.83,-15.14L-238.14,-14.87L-230.19,10.30L-247.42,43.42L-272.85,68.06L-289.55,67.79L-297.49,42.62L-280.27,9.50ZM-114.54,87.28L-106.20,87.41L-89.37,79.33L-46.98,38.26L-55.19,29.78L-97.59,70.85L-105.93,70.72L-28.29,-86.66L-86.71,-87.59L-86.85,-79.25L-61.81,-78.85L-88.04,-4.13L-96.12,-20.96L-129.37,-29.84L-171.64,2.88L-188.99,44.35L-181.18,77.87L-164.62,86.48L-147.93,86.74L-122.49,62.10L-122.76,78.80ZM-147.66,70.05L-156.01,69.92L-163.96,44.75L-146.73,11.63L-121.29,-13.01L-104.60,-12.74L-96.52,4.08L-96.65,12.43L-122.22,45.41ZM111.60,40.79L103.39,32.31L60.99,73.38L52.65,73.24L104.05,-9.42L95.84,-17.90L79.15,-18.17L44.83,39.73L10.91,72.58L2.57,72.45L-5.51,55.62L37.28,-10.48L37.42,-18.83L20.86,-27.44L-4.31,-19.50L-46.71,21.57L-38.50,30.05L3.90,-11.02L12.24,-10.88L-30.55,55.22L-22.60,80.39L-6.04,89.00L10.65,89.27L36.09,64.63L35.82,81.32L44.03,89.80L52.38,89.94L69.20,81.86ZM228.85,17.61L229.11,0.92L221.03,-15.91L187.78,-24.78L145.65,-0.41L119.81,49.27L127.63,82.79L144.19,91.40L160.88,91.66L177.70,83.58L211.62,50.73L203.41,42.25L169.49,75.10L152.80,74.84L144.85,49.67L162.08,16.55L187.51,-8.09L204.21,-7.82L203.81,17.21ZM252.95,76.43L296.01,-6.36L321.05,-5.96L321.18,-14.31L296.15,-14.71L313.37,-47.83L296.68,-48.09L287.93,-23.19L271.11,-15.11L254.42,-15.37L254.28,-7.03L270.97,-6.76L227.91,76.04L227.78,84.38L235.99,92.86L252.69,93.13L269.51,85.05L311.91,43.98L303.69,35.50L261.30,76.57ZM413.39,-37.89L421.74,-37.75L430.35,-54.31L430.48,-62.66L413.92,-71.27L405.58,-71.40L396.96,-54.84L396.83,-46.50ZM320.52,27.42L328.73,35.90L371.13,-5.17L379.47,-5.03L328.07,77.63L327.94,85.98L336.15,94.46L352.84,94.72L369.67,86.64L412.06,45.58L403.85,37.10L361.45,78.16L353.11,78.03L404.51,-4.63L404.65,-12.98L388.09,-21.59L362.92,-13.64ZM452.99,96.32L469.69,96.58L511.82,72.21L537.65,22.53L521.49,-11.12L488.24,-20.00L446.11,4.38L420.27,54.06L436.44,87.71ZM487.97,-3.30L504.67,-3.04L512.61,22.13L495.39,55.25L469.95,79.89L453.26,79.63L445.31,54.45L462.54,21.34ZM545.87,31.01L554.08,39.49L596.47,-1.58L604.82,-1.44L553.28,89.57L561.49,98.05L578.19,98.31L612.63,32.08L638.07,7.44L654.90,-0.64L663.11,7.83L620.18,82.29L620.05,90.63L628.26,99.11L644.96,99.38L661.78,91.30L704.18,50.23L695.96,41.75L653.57,82.82L645.22,82.68L688.02,16.58L688.41,-8.46L663.51,-17.20L638.34,-9.26L612.90,15.38L621.51,-1.18L621.65,-9.52L613.43,-18.00L588.26,-10.05Z" fill="#ffffff" stroke="#000000"/>
    <path d="M-181.37,-120.57L-197.58,-137.39L-172.19,-169.96L-122.65,-169.04L-114.55,-160.63L-115.01,-135.86L-131.83,-119.65L-74.03,-118.58L-90.24,-135.40L-87.32,-292.28L-112.40,-276.23L-112.55,-267.97L-214.09,-137.70L-239.17,-121.65ZM-112.86,-251.46L-114.09,-185.40L-122.50,-177.30L-163.78,-178.06L-155.22,-194.42ZM-64.55,-184.48L-56.44,-176.07L-14.39,-216.59L-6.13,-216.43L-57.36,-126.53L-49.26,-118.12L-32.75,-117.81L1.51,-183.25L26.74,-207.56L43.41,-215.51L51.51,-207.10L8.84,-133.56L8.69,-125.30L16.79,-116.89L33.31,-116.58L49.98,-124.53L92.03,-165.05L83.92,-173.46L41.87,-132.94L33.62,-133.10L76.13,-198.38L76.59,-223.15L51.97,-231.87L27.05,-224.08L1.82,-199.76L10.38,-216.13L10.53,-224.38L2.43,-232.79L-22.49,-225.00ZM-729.89,60.86L-686.15,-70.48L-661.08,-86.54L-727.13,-87.77L-710.92,-70.94L-754.66,60.40L-779.74,76.45L-713.69,77.68ZM-687.69,12.09L-679.58,20.50L-637.53,-20.02L-629.28,-19.87L-680.51,70.04L-672.40,78.45L-655.89,78.76L-621.63,13.31L-596.40,-11.00L-579.73,-18.95L-571.63,-10.54L-614.30,63.01L-614.45,71.27L-606.35,79.68L-589.83,79.98L-573.16,72.03L-531.11,31.52L-539.22,23.11L-581.27,63.62L-589.53,63.47L-547.01,-1.82L-546.55,-26.59L-571.17,-35.31L-596.09,-27.51L-621.33,-3.20L-612.76,-19.56L-612.61,-27.82L-620.71,-36.23L-645.64,-28.43ZM-506.96,65.00L-464.14,-16.80L-439.36,-16.34L-439.21,-24.59L-463.98,-25.05L-446.85,-57.78L-463.37,-58.08L-472.09,-33.47L-488.75,-25.52L-505.27,-25.82L-505.42,-17.57L-488.91,-17.26L-531.73,64.54L-531.88,72.80L-523.78,81.21L-507.26,81.52L-490.59,73.57L-448.54,33.05L-456.65,24.64L-498.70,65.16ZM-439.98,16.69L-431.88,25.10L-389.82,-15.42L-381.57,-15.26L-432.80,74.64L-424.69,83.05L-408.18,83.36L-373.92,17.92L-348.84,1.86L-324.07,2.33L-315.36,-22.29L-331.72,-30.86L-348.38,-22.91L-373.77,9.66L-382.03,9.51L-365.05,-14.96L-364.90,-23.21L-373.00,-31.62L-397.93,-23.83ZM-292.58,85.51L-276.07,85.82L-234.32,61.81L-208.63,12.73L-224.53,-20.60L-257.40,-29.47L-299.15,-5.47L-324.84,43.61L-308.94,76.94ZM-257.71,-12.96L-241.20,-12.65L-233.40,12.27L-250.53,44.99L-275.76,69.30L-292.27,68.99L-300.07,44.07L-282.94,11.35ZM-119.18,88.73L-110.93,88.89L-94.26,80.94L-52.21,40.42L-60.31,32.01L-102.36,72.52L-110.62,72.37L-33.39,-83.13L-91.19,-84.20L-91.34,-75.95L-66.57,-75.49L-92.73,-1.63L-100.68,-18.30L-133.55,-27.17L-175.45,5.09L-192.73,46.07L-185.09,79.25L-168.73,87.81L-152.21,88.12L-126.98,63.81L-127.29,80.32ZM-151.91,71.60L-160.16,71.45L-167.96,46.53L-150.83,13.81L-125.60,-10.51L-109.09,-10.20L-101.14,6.47L-101.29,14.73L-126.67,47.29ZM104.67,43.33L96.57,34.92L54.52,75.44L46.26,75.29L97.34,-6.36L89.24,-14.77L72.72,-15.08L38.62,42.11L4.98,74.52L-3.28,74.37L-11.23,57.70L31.28,-7.59L31.44,-15.85L15.08,-24.41L-9.85,-16.61L-51.90,23.90L-43.80,32.31L-1.74,-8.20L6.51,-8.05L-36.00,57.24L-28.20,82.16L-11.84,90.73L4.67,91.03L29.90,66.72L29.59,83.24L37.70,91.65L45.96,91.80L62.62,83.85ZM220.73,20.71L221.04,4.20L213.09,-12.47L180.22,-21.34L138.47,2.66L112.78,51.74L120.42,84.93L136.78,93.49L153.30,93.80L169.96,85.85L203.61,53.43L195.50,45.02L161.86,77.44L145.35,77.13L137.55,52.21L154.68,19.48L179.91,-4.83L196.42,-4.52L195.96,20.25ZM244.43,78.97L287.25,-2.83L312.02,-2.37L312.17,-10.63L287.40,-11.09L304.53,-43.81L288.02,-44.12L279.30,-19.50L262.63,-11.55L246.12,-11.86L245.96,-3.60L262.48,-3.29L219.66,78.51L219.50,86.77L227.61,95.18L244.12,95.49L260.79,87.54L302.84,47.02L294.74,38.61L252.69,79.12ZM403.46,-33.71L411.72,-33.56L420.28,-49.92L420.43,-58.17L404.07,-66.74L395.82,-66.89L387.25,-50.53L387.10,-42.27ZM311.41,30.66L319.51,39.07L361.56,-1.45L369.82,-1.30L318.74,80.35L318.59,88.61L326.69,97.02L343.21,97.33L359.87,89.38L401.93,48.86L393.82,40.45L351.77,80.97L343.51,80.81L394.59,-0.84L394.74,-9.09L378.38,-17.66L353.46,-9.86ZM442.29,99.17L458.80,99.48L500.55,75.47L526.24,26.39L510.34,-6.94L477.47,-15.82L435.72,8.19L410.03,57.27L425.93,90.60ZM477.16,0.70L493.67,1.01L501.47,25.93L484.34,58.65L459.11,82.96L442.60,82.65L434.80,57.73L451.93,25.01ZM534.34,34.80L542.45,43.21L584.50,2.69L592.76,2.85L541.53,92.75L549.63,101.16L566.14,101.47L600.40,36.03L625.63,11.72L642.30,3.77L650.40,12.18L607.74,85.72L607.58,93.98L615.69,102.39L632.20,102.70L648.87,94.75L690.92,54.23L682.82,45.82L640.76,86.34L632.51,86.18L675.02,20.90L675.48,-3.87L650.86,-12.59L625.94,-4.80L600.71,19.52L609.27,3.15L609.42,-5.10L601.32,-13.51L576.40,-5.72Z" fill="#ffffff" stroke="#000000"/>
    <path d="M-184.68,-117.11L-200.67,-133.79L-175.47,-165.94L-126.47,-164.90L-118.47,-156.56L-118.99,-132.06L-135.68,-116.07L-78.50,-114.85L-94.49,-131.54L-91.19,-286.72L-116.04,-270.91L-116.22,-262.74L-217.01,-134.14L-241.86,-118.32ZM-116.56,-246.40L-117.95,-181.06L-126.29,-173.07L-167.13,-173.94L-158.62,-190.10ZM-68.95,-180.02L-60.95,-171.68L-19.24,-211.65L-11.08,-211.48L-61.99,-122.67L-54.00,-114.33L-37.66,-113.99L-3.60,-178.63L21.42,-202.62L37.93,-210.44L45.92,-202.10L3.52,-129.45L3.35,-121.29L11.34,-112.94L27.68,-112.60L44.19,-120.42L85.89,-160.39L77.90,-168.73L36.19,-128.76L28.03,-128.93L70.25,-193.41L70.77,-217.91L46.44,-226.60L21.77,-218.95L-3.26,-194.97L5.26,-211.13L5.43,-219.30L-2.56,-227.64L-27.24,-219.99ZM-727.78,60.93L-684.16,-68.89L-659.31,-84.70L-724.66,-86.09L-708.67,-69.41L-752.28,60.41L-777.13,76.23L-711.79,77.61ZM-685.90,12.79L-677.91,21.13L-636.20,-18.84L-628.03,-18.66L-678.95,70.14L-670.95,78.48L-654.62,78.83L-620.56,14.18L-595.53,-9.80L-579.03,-17.62L-571.03,-9.28L-613.43,63.36L-613.60,71.53L-605.61,79.87L-589.28,80.22L-572.77,72.40L-531.06,32.42L-539.05,24.08L-580.76,64.05L-588.93,63.88L-546.70,-0.59L-546.18,-25.10L-570.51,-33.79L-595.19,-26.14L-620.21,-2.16L-611.70,-18.32L-611.52,-26.49L-619.52,-34.83L-644.19,-27.18ZM-507.25,65.62L-464.68,-15.19L-440.17,-14.67L-440.00,-22.84L-464.50,-23.36L-447.47,-55.69L-463.81,-56.03L-472.50,-31.70L-489.01,-23.88L-505.34,-24.23L-505.52,-16.06L-489.18,-15.71L-531.75,65.10L-531.93,73.26L-523.93,81.60L-507.60,81.95L-491.09,74.13L-449.38,34.16L-457.38,25.82L-499.08,65.79ZM-440.87,18.00L-432.87,26.34L-391.17,-13.63L-383.00,-13.46L-433.91,75.35L-425.92,83.69L-409.58,84.03L-375.53,19.39L-350.67,3.57L-326.17,4.09L-317.48,-20.24L-333.65,-28.75L-350.15,-20.93L-375.35,11.22L-383.52,11.04L-366.66,-13.11L-366.49,-21.28L-374.48,-29.62L-399.16,-21.97ZM-295.24,86.46L-278.90,86.81L-237.54,63.17L-212.00,14.69L-227.64,-18.33L-260.14,-27.19L-301.49,-3.56L-327.04,44.93L-311.40,77.95ZM-260.48,-10.86L-244.15,-10.51L-236.50,14.17L-253.53,46.49L-278.55,70.47L-294.89,70.13L-302.54,45.45L-285.51,13.13ZM-123.71,90.11L-115.55,90.28L-99.04,82.46L-57.33,42.49L-65.32,34.15L-107.03,74.12L-115.20,73.94L-38.39,-79.68L-95.57,-80.90L-95.74,-72.73L-71.24,-72.21L-97.30,0.78L-105.12,-15.73L-137.62,-24.59L-179.15,7.21L-196.36,47.71L-188.88,80.55L-172.72,89.07L-156.38,89.41L-131.36,65.43L-131.71,81.77ZM-156.04,73.08L-164.20,72.90L-171.85,48.23L-154.82,15.90L-129.80,-8.08L-113.46,-7.73L-105.64,8.78L-105.82,16.94L-131.01,49.09ZM97.86,45.79L89.86,37.44L48.16,77.42L39.99,77.24L90.73,-3.39L82.74,-11.74L66.40,-12.08L32.52,44.40L-0.85,76.37L-9.02,76.20L-16.84,59.69L25.39,-4.78L25.56,-12.95L9.40,-21.47L-15.28,-13.82L-56.98,26.15L-48.99,34.49L-7.28,-5.48L0.89,-5.30L-41.34,59.17L-33.69,83.85L-17.53,92.36L-1.20,92.71L23.83,68.73L23.48,85.06L31.47,93.40L39.64,93.58L56.15,85.76ZM212.73,23.71L213.07,7.38L205.25,-9.13L172.76,-18.00L131.40,5.64L105.85,54.13L113.33,86.97L129.49,95.49L145.82,95.83L162.33,88.01L195.70,56.04L187.70,47.69L154.34,79.67L138.00,79.32L130.36,54.65L147.38,22.32L172.41,-1.66L188.74,-1.31L188.22,23.19ZM236.02,81.41L278.59,0.60L303.09,1.12L303.27,-7.05L278.76,-7.57L295.79,-39.90L279.46,-40.24L270.77,-15.91L254.26,-8.09L237.92,-8.44L237.75,-0.27L254.09,0.08L211.51,80.89L211.34,89.05L219.33,97.39L235.67,97.74L252.18,89.92L293.88,49.95L285.89,41.61L244.18,81.58ZM393.63,-29.65L401.80,-29.47L410.31,-45.63L410.49,-53.80L394.33,-62.32L386.16,-62.49L377.64,-46.33L377.47,-38.16ZM302.40,33.79L310.39,42.13L352.10,2.16L360.27,2.33L309.53,82.97L309.35,91.14L317.35,99.48L333.68,99.82L350.19,92.00L391.90,52.03L383.90,43.69L342.20,83.66L334.03,83.49L384.77,2.85L384.94,-5.32L368.78,-13.83L344.11,-6.18ZM431.69,101.91L448.03,102.25L489.39,78.62L514.93,30.13L499.29,-2.89L466.79,-11.75L425.44,11.89L399.89,60.37L415.53,93.39ZM466.45,4.59L482.78,4.93L490.43,29.61L473.40,61.93L448.38,85.92L432.04,85.57L424.39,60.89L441.42,28.57ZM522.93,38.47L530.92,46.81L572.63,6.84L580.80,7.02L529.88,95.82L537.88,104.16L554.21,104.51L588.27,39.86L613.29,15.88L629.80,8.06L637.80,16.40L595.40,89.04L595.22,97.21L603.22,105.55L619.55,105.90L636.06,98.08L677.77,58.10L669.77,49.76L628.07,89.73L619.90,89.56L662.13,25.09L662.65,0.58L638.32,-8.10L613.64,-0.46L588.62,23.53L597.13,7.36L597.31,-0.80L589.31,-9.15L564.63,-1.50Z" fill="#ffffff" stroke="#000000"/>
    <path d="M-187.89,-113.72L-203.66,-130.27L-178.65,-162.00L-130.18,-160.84L-122.30,-152.57L-122.88,-128.33L-139.42,-112.56L-82.87,-111.21L-98.64,-127.75L-94.97,-281.25L-119.59,-265.67L-119.79,-257.59L-219.82,-130.65L-244.44,-115.07ZM-120.17,-241.43L-121.72,-176.81L-129.99,-168.92L-170.38,-169.89L-161.92,-185.85ZM-73.25,-175.65L-65.36,-167.38L-24.00,-206.80L-15.93,-206.61L-66.52,-118.90L-58.63,-110.63L-42.48,-110.25L-8.62,-174.10L16.20,-197.76L32.55,-205.45L40.43,-197.18L-1.70,-125.44L-1.89,-117.36L5.99,-109.09L22.15,-108.70L38.50,-116.39L79.86,-155.82L71.97,-164.09L30.62,-124.67L22.54,-124.86L64.47,-188.52L65.05,-212.76L41.01,-221.41L16.58,-213.92L-8.23,-190.26L0.23,-206.22L0.43,-214.30L-7.46,-222.57L-31.89,-215.07ZM-725.55,60.96L-682.07,-67.33L-657.45,-82.91L-722.07,-84.46L-706.30,-67.91L-749.79,60.38L-774.41,75.95L-709.78,77.50ZM-684.00,13.45L-676.11,21.72L-634.76,-17.71L-626.68,-17.51L-677.27,70.19L-669.39,78.46L-653.23,78.85L-619.37,14.99L-594.56,-8.66L-578.21,-16.35L-570.32,-8.08L-612.45,63.66L-612.64,71.74L-604.76,80.01L-588.60,80.40L-572.25,72.70L-530.89,33.28L-538.78,25.00L-580.14,64.43L-588.22,64.24L-546.28,0.58L-545.70,-23.66L-569.74,-32.32L-594.17,-24.82L-618.99,-1.16L-610.52,-17.13L-610.33,-25.20L-618.21,-33.48L-642.64,-25.98ZM-507.43,66.17L-465.11,-13.65L-440.87,-13.07L-440.68,-21.15L-464.91,-21.73L-447.99,-53.66L-464.14,-54.04L-472.80,-30.00L-489.15,-22.31L-505.31,-22.69L-505.50,-14.62L-489.34,-14.23L-531.67,65.59L-531.86,73.67L-523.97,81.94L-507.82,82.33L-491.47,74.63L-450.11,35.21L-457.99,26.93L-499.35,66.36ZM-441.64,19.24L-433.76,27.51L-392.40,-11.91L-384.32,-11.72L-434.92,75.99L-427.03,84.26L-410.88,84.64L-377.02,20.79L-352.40,5.21L-328.16,5.79L-319.50,-18.25L-335.47,-26.72L-351.82,-19.03L-376.82,12.71L-384.90,12.52L-368.17,-11.33L-367.97,-19.41L-375.86,-27.68L-400.29,-20.18ZM-297.78,87.35L-281.62,87.73L-240.65,64.46L-215.25,16.57L-230.64,-16.13L-262.76,-24.98L-303.73,-1.71L-329.13,46.18L-313.74,78.88ZM-263.15,-8.82L-246.99,-8.44L-239.49,15.99L-256.42,47.92L-281.23,71.58L-297.39,71.19L-304.89,46.76L-287.96,14.83ZM-128.13,91.40L-120.05,91.59L-103.70,83.90L-62.34,44.47L-70.23,36.20L-111.58,75.63L-119.66,75.44L-43.29,-76.32L-99.84,-77.67L-100.03,-69.59L-75.80,-69.01L-101.77,3.12L-109.46,-13.23L-141.58,-22.08L-182.75,9.26L-199.87,49.27L-192.56,81.78L-176.60,90.24L-160.44,90.63L-135.63,66.97L-136.01,83.13ZM-160.06,74.47L-168.13,74.28L-175.63,49.85L-158.70,17.92L-133.89,-5.73L-117.73,-5.35L-110.04,11.00L-110.23,19.08L-135.24,50.82ZM91.15,48.14L83.26,39.87L41.91,79.30L33.83,79.11L84.23,-0.52L76.34,-8.79L60.19,-9.18L26.52,46.60L-6.56,78.14L-14.64,77.95L-22.34,61.60L19.60,-2.07L19.79,-10.14L3.83,-18.61L-20.60,-11.11L-61.96,28.32L-54.07,36.59L-12.71,-2.84L-4.63,-2.64L-46.57,61.02L-39.07,85.45L-23.11,93.91L-6.95,94.30L17.86,70.64L17.48,86.80L25.36,95.07L33.44,95.26L49.79,87.57ZM204.83,26.61L205.21,10.45L197.52,-5.90L165.40,-14.75L124.43,8.52L99.04,56.41L106.34,88.92L122.31,97.39L138.46,97.77L154.81,90.08L187.90,58.54L180.01,50.27L146.93,81.81L130.77,81.42L123.27,56.99L140.20,25.07L165.01,1.41L181.17,1.80L180.59,26.03ZM227.71,83.74L270.04,3.92L294.27,4.50L294.46,-3.58L270.23,-4.16L287.16,-36.09L271.00,-36.47L262.34,-12.43L245.99,-4.74L229.84,-5.12L229.64,2.95L245.80,3.34L203.48,83.16L203.28,91.24L211.17,99.51L227.33,99.90L243.68,92.20L285.03,52.78L277.15,44.51L235.79,83.93ZM383.91,-25.69L391.98,-25.50L400.45,-41.46L400.64,-49.54L384.68,-58.00L376.60,-58.20L368.14,-42.23L367.94,-34.16ZM293.50,36.81L301.38,45.08L342.74,5.66L350.82,5.85L300.42,85.48L300.23,93.56L308.11,101.83L324.27,102.21L340.62,94.52L381.98,55.09L374.09,46.82L332.73,86.25L324.65,86.06L375.06,6.43L375.25,-1.65L359.28,-10.11L334.86,-2.61ZM421.21,104.53L437.37,104.92L478.34,81.65L503.73,33.75L488.35,1.05L456.23,-7.80L415.25,15.47L389.86,63.37L405.25,96.07ZM455.84,8.36L472.00,8.75L479.50,33.18L462.57,65.10L437.75,88.76L421.60,88.37L414.10,63.94L431.03,32.02ZM511.62,42.03L519.50,50.30L560.86,10.87L568.94,11.06L518.34,98.77L526.23,107.04L542.39,107.43L576.25,43.57L601.06,19.91L617.41,12.22L625.30,20.49L583.17,92.23L582.97,100.31L590.86,108.59L607.01,108.97L623.36,101.28L664.72,61.85L656.84,53.58L615.48,93.01L607.40,92.81L649.34,29.15L649.92,4.92L625.87,-3.74L601.45,3.76L576.63,27.41L585.10,11.45L585.29,3.37L577.40,-4.90L552.98,2.60Z" fill="#ffffff" stroke="#000000"/>
    <path d="M-191.00,-110.41L-206.55,-126.81L-181.73,-158.13L-133.80,-156.86L-126.02,-148.66L-126.66,-124.69L-143.06,-109.14L-87.14,-107.65L-102.69,-124.05L-98.66,-275.85L-123.05,-260.51L-123.26,-252.52L-222.53,-127.24L-246.92,-111.89ZM-123.69,-236.54L-125.39,-172.63L-133.59,-164.85L-173.53,-165.91L-165.12,-181.68ZM-77.45,-171.35L-69.67,-163.15L-28.67,-202.04L-20.68,-201.82L-70.95,-115.22L-63.17,-107.01L-47.19,-106.59L-13.54,-169.66L11.07,-192.99L27.26,-200.55L35.03,-192.35L-6.82,-121.51L-7.03,-113.52L0.74,-105.32L16.72,-104.89L32.91,-112.46L73.92,-151.34L66.14,-159.54L25.14,-120.66L17.15,-120.87L58.79,-183.72L59.43,-207.69L35.67,-216.32L11.49,-208.96L-13.11,-185.63L-4.70,-201.40L-4.49,-209.39L-12.26,-217.59L-36.44,-210.24ZM-723.20,60.94L-679.86,-65.83L-655.47,-81.17L-719.39,-82.87L-703.83,-66.47L-747.17,60.30L-771.56,75.64L-707.65,77.34ZM-681.99,14.06L-674.21,22.26L-633.20,-16.62L-625.21,-16.41L-675.48,70.20L-667.70,78.40L-651.73,78.82L-618.07,15.76L-593.47,-7.57L-577.28,-15.14L-569.50,-6.94L-611.36,63.91L-611.57,71.90L-603.79,80.10L-587.81,80.52L-571.62,72.96L-530.62,34.07L-538.39,25.87L-579.40,64.76L-587.39,64.54L-545.75,1.69L-545.11,-22.28L-568.86,-30.90L-593.04,-23.55L-617.65,-0.22L-609.23,-15.99L-609.02,-23.97L-616.80,-32.18L-640.98,-24.82ZM-507.50,66.66L-465.43,-12.17L-441.46,-11.53L-441.25,-19.52L-465.22,-20.16L-448.39,-51.69L-464.37,-52.11L-472.99,-28.36L-489.18,-20.79L-505.16,-21.22L-505.37,-13.23L-489.40,-12.80L-531.46,66.03L-531.68,74.02L-523.90,82.22L-507.92,82.64L-491.73,75.08L-450.72,36.19L-458.50,27.99L-499.51,66.88ZM-442.31,20.43L-434.53,28.63L-393.53,-10.26L-385.54,-10.04L-435.81,76.56L-428.03,84.76L-412.05,85.19L-378.40,22.12L-354.00,6.78L-330.04,7.42L-321.41,-16.34L-337.18,-24.75L-353.37,-17.18L-378.18,14.14L-386.17,13.92L-369.56,-9.62L-369.35,-17.61L-377.12,-25.81L-401.30,-18.46ZM-300.20,88.16L-284.22,88.58L-243.64,65.68L-218.40,18.38L-233.53,-14.00L-265.28,-22.84L-305.86,0.07L-331.10,47.37L-315.97,79.75ZM-265.70,-6.86L-249.72,-6.44L-242.37,17.74L-259.20,49.27L-283.80,72.61L-299.78,72.18L-307.13,48.00L-290.30,16.47ZM-132.43,92.62L-124.44,92.83L-108.25,85.26L-67.24,46.38L-75.02,38.18L-116.03,77.06L-124.02,76.85L-48.08,-73.04L-104.01,-74.52L-104.22,-66.53L-80.25,-65.90L-106.13,5.37L-113.69,-10.82L-145.44,-19.66L-186.23,11.24L-203.27,50.76L-196.13,82.93L-180.36,91.34L-164.39,91.77L-139.78,68.44L-140.21,84.41ZM-163.96,75.79L-171.95,75.58L-179.30,51.40L-162.48,19.86L-137.87,-3.47L-121.89,-3.04L-114.33,13.15L-114.54,21.14L-139.36,52.46ZM84.55,50.41L76.77,42.21L35.77,81.09L27.78,80.88L77.84,2.26L70.06,-5.94L54.08,-6.36L20.64,48.71L-12.17,79.82L-20.16,79.61L-27.72,63.42L13.92,0.56L14.13,-7.42L-1.63,-15.84L-25.81,-8.49L-66.82,30.40L-59.04,38.60L-18.03,-0.28L-10.05,-0.07L-51.69,62.78L-44.34,86.96L-28.57,95.37L-12.59,95.80L12.01,72.47L11.59,88.45L19.37,96.65L27.35,96.86L43.54,89.29ZM197.04,29.41L197.46,13.43L189.90,-2.76L158.15,-11.60L117.57,11.31L92.33,58.61L99.47,90.78L115.24,99.19L131.21,99.62L147.40,92.05L180.21,60.94L172.43,52.74L139.63,83.85L123.65,83.43L116.30,59.25L133.12,27.71L157.73,4.38L173.71,4.81L173.07,28.78ZM219.52,85.97L261.59,7.14L285.55,7.78L285.77,-0.21L261.80,-0.85L278.63,-32.38L262.65,-32.80L254.02,-9.05L237.83,-1.48L221.85,-1.91L221.64,6.08L237.62,6.51L195.55,85.34L195.34,93.33L203.12,101.53L219.09,101.95L235.29,94.39L276.29,55.50L268.51,47.30L227.51,86.18ZM374.28,-21.84L382.27,-21.63L390.69,-37.40L390.90,-45.39L375.13,-53.80L367.14,-54.01L358.73,-38.25L358.52,-30.26ZM284.71,39.73L292.48,47.94L333.49,9.05L341.48,9.26L291.42,87.88L291.21,95.87L298.99,104.07L314.96,104.50L331.16,96.93L372.16,58.05L364.39,49.85L323.38,88.73L315.39,88.52L365.45,9.90L365.66,1.91L349.89,-6.50L325.71,0.85ZM410.84,107.04L426.81,107.47L467.40,84.56L492.64,37.26L477.51,4.88L445.76,-3.96L405.18,18.95L379.94,66.25L395.07,98.63ZM445.34,12.02L461.32,12.45L468.67,36.63L451.84,68.16L427.24,91.49L411.26,91.06L403.91,66.88L420.73,35.35ZM500.41,45.46L508.19,53.66L549.20,14.78L557.19,14.99L506.92,101.60L514.69,109.80L530.67,110.23L564.33,47.16L588.93,23.83L605.12,16.27L612.90,24.47L571.04,95.31L570.83,103.30L578.61,111.50L594.59,111.92L610.78,104.36L651.78,65.47L644.01,57.27L603.00,96.16L595.01,95.94L636.65,33.09L637.29,9.12L613.53,0.50L589.36,7.85L564.75,31.18L573.16,15.42L573.38,7.43L565.60,-0.77L541.42,6.58Z" fill="#ffffff" stroke="#000000"/>
    <path d="M-903.88,492L-906.92,488.96L-902.36,482.88L-893.24,482.88L-891.72,484.40L-891.72,488.96L-894.76,492L-884.12,492L-887.16,488.96L-887.16,460.08L-891.72,463.12L-891.72,464.64L-909.96,488.96L-914.52,492ZM-891.72,467.68L-891.72,479.84L-893.24,481.36L-900.84,481.36L-899.32,478.32ZM-862.84,476.80L-864.36,481.36L-870.44,487.44L-875,488.96L-876.52,488.96L-867.40,475.28L-867.40,472.24L-870.44,470.72L-875,472.24L-882.60,479.84L-881.08,481.36L-873.48,473.76L-871.96,473.76L-881.08,488.96L-881.08,490.48L-879.56,492L-876.52,492L-868.92,488.96L-862.84,482.88L-859.80,476.80L-859.80,473.76L-861.32,472.24L-864.36,472.24L-865.88,475.28L-864.36,476.80ZM-835.48,472.24L-837,470.72L-840.04,475.28L-841.56,472.24L-847.64,470.72L-855.24,476.80L-858.28,484.40L-856.76,490.48L-853.72,492L-850.68,492L-846.12,487.44L-846.12,490.48L-844.60,492L-840.04,490.48L-832.44,482.88L-833.96,481.36L-841.56,488.96L-843.08,488.96ZM-850.68,488.96L-852.20,488.96L-853.72,484.40L-850.68,478.32L-846.12,473.76L-843.08,473.76L-841.56,476.80L-841.56,478.32L-846.12,484.40ZM-832.44,479.84L-830.92,481.36L-823.32,473.76L-821.80,473.76L-830.92,490.48L-829.40,492L-826.36,492L-820.28,479.84L-815.72,476.80L-811.16,476.80L-809.64,472.24L-812.68,470.72L-815.72,472.24L-820.28,478.32L-821.80,478.32L-818.76,473.76L-818.76,472.24L-820.28,470.72L-824.84,472.24ZM-788.36,472.24L-789.88,470.72L-792.92,475.28L-794.44,472.24L-800.52,470.72L-808.12,476.80L-811.16,484.40L-809.64,490.48L-806.60,492L-803.56,492L-799,487.44L-799,490.48L-797.48,492L-792.92,490.48L-785.32,482.88L-786.84,481.36L-794.44,488.96L-795.96,488.96ZM-803.56,488.96L-805.08,488.96L-806.60,484.40L-803.56,478.32L-799,473.76L-795.96,473.76L-794.44,476.80L-794.44,478.32L-799,484.40ZM-783.80,479.84L-783.80,482.88L-774.68,482.88L-774.68,479.84ZM-765.56,461.60L-762.52,464.64L-770.12,488.96L-773.16,492L-757.96,492L-750.36,488.96L-745.80,482.88L-747.32,476.80L-751.88,475.28L-748.84,473.76L-744.28,469.20L-745.80,463.12L-753.40,461.60ZM-765.56,488.96L-757.96,464.64L-756.44,463.12L-753.40,463.12L-750.36,464.64L-750.36,469.20L-753.40,473.76L-757.96,475.28L-761,475.28L-761,476.80L-756.44,476.80L-753.40,478.32L-751.88,482.88L-754.92,487.44L-761,490.48L-764.04,490.48ZM-736.68,492L-733.64,492L-726.04,487.44L-721.48,478.32L-724.52,472.24L-730.60,470.72L-738.20,475.28L-742.76,484.40L-739.72,490.48ZM-730.60,473.76L-727.56,473.76L-726.04,478.32L-729.08,484.40L-733.64,488.96L-736.68,488.96L-738.20,484.40L-735.16,478.32ZM-715.40,488.96L-701.72,460.08L-712.36,460.08L-712.36,461.60L-707.80,461.60L-719.96,488.96L-719.96,490.48L-716.92,492L-712.36,490.48L-704.76,482.88L-706.28,481.36L-713.88,488.96ZM-689.56,492L-688.04,492L-685,490.48L-677.40,482.88L-678.92,481.36L-686.52,488.96L-688.04,488.96L-674.36,460.08L-685,460.08L-685,461.60L-680.44,461.60L-685,475.28L-686.52,472.24L-692.60,470.72L-700.20,476.80L-703.24,484.40L-701.72,490.48L-698.68,492L-695.64,492L-691.08,487.44L-691.08,490.48ZM-695.64,488.96L-697.16,488.96L-698.68,484.40L-695.64,478.32L-691.08,473.76L-688.04,473.76L-686.52,476.80L-686.52,478.32L-691.08,484.40ZM-669.80,488.96L-662.20,464.64L-657.64,461.60L-669.80,461.60L-666.76,464.64L-674.36,488.96L-678.92,492L-666.76,492ZM-657.64,488.96L-650.04,473.76L-645.48,473.76L-645.48,472.24L-650.04,472.24L-647,466.16L-650.04,466.16L-651.56,470.72L-654.60,472.24L-657.64,472.24L-657.64,473.76L-654.60,473.76L-662.20,488.96L-662.20,490.48L-660.68,492L-657.64,492L-654.60,490.48L-647,482.88L-648.52,481.36L-656.12,488.96ZM-621.16,472.24L-622.68,470.72L-625.72,475.28L-627.24,472.24L-633.32,470.72L-640.92,476.80L-643.96,484.40L-642.44,490.48L-639.40,492L-636.36,492L-631.80,487.44L-631.80,490.48L-630.28,492L-625.72,490.48L-618.12,482.88L-619.64,481.36L-627.24,488.96L-628.76,488.96ZM-636.36,488.96L-637.88,488.96L-639.40,484.40L-636.36,478.32L-631.80,473.76L-628.76,473.76L-627.24,476.80L-627.24,478.32L-631.80,484.40ZM-613.56,488.96L-599.88,460.08L-610.52,460.08L-610.52,461.60L-605.96,461.60L-618.12,488.96L-618.12,490.48L-615.08,492L-610.52,490.48L-602.92,482.88L-604.44,481.36L-612.04,488.96ZM-586.20,467.68L-584.68,467.68L-583.16,464.64L-583.16,463.12L-586.20,461.60L-587.72,461.60L-589.24,464.64L-589.24,466.16ZM-602.92,479.84L-601.40,481.36L-593.80,473.76L-592.28,473.76L-601.40,488.96L-601.40,490.48L-599.88,492L-596.84,492L-593.80,490.48L-586.20,482.88L-587.72,481.36L-595.32,488.96L-596.84,488.96L-587.72,473.76L-587.72,472.24L-590.76,470.72L-595.32,472.24ZM-564.92,478.32L-564.92,475.28L-566.44,472.24L-572.52,470.72L-580.12,475.28L-584.68,484.40L-583.16,490.48L-580.12,492L-577.08,492L-574.04,490.48L-567.96,484.40L-569.48,482.88L-575.56,488.96L-578.60,488.96L-580.12,484.40L-577.08,478.32L-572.52,473.76L-569.48,473.76L-569.48,478.32Z"/>
</svg>