<?xml version="1.0"?>
<svg xmlns="http://www.w3.org/2000/svg" width="1920" height="1080" viewBox="-960 -540 1920 1080">
    <path d="M-284.49,-147L-272.50,-147L-272.50,-227.81L-331.33,-227.81L-331.33,-211.60L-285.82,-211.60C-287.82,-186.52 -307.58,-175.64 -337.55,-175.64C-371.52,-175.64 -390.61,-193.18 -390.61,-221.15C-390.39,-249.12 -374.18,-271.99 -337.55,-271.99C-315.57,-271.99 -299.59,-266.66 -289.82,-254.67L-276.72,-254.67L-276.72,-311.28L-289.82,-311.28L-289.82,-287.75C-298.92,-302.40 -317.35,-311.28 -337.55,-311.28C-376.18,-311.28 -404.59,-287.53 -404.59,-225.59C-404.59,-170.75 -377.95,-144.78 -337.99,-144.78C-315.35,-144.78 -297.81,-150.33 -286.71,-164.98ZM-199.24,-144.78C-169.50,-144.78 -148.18,-163.21 -148.18,-205.83C-148.18,-253.12 -168.83,-271.32 -199.24,-271.32C-229.44,-271.32 -250.30,-253.12 -250.30,-205.83C-250.30,-163.21 -228.77,-144.78 -199.24,-144.78ZM-199.24,-172.97C-219.89,-172.97 -237.21,-180.74 -237.21,-205.83C-237.21,-221.37 -224.11,-234.02 -199.24,-234.02C-174.16,-234.02 -161.28,-221.59 -161.28,-205.83C-161.28,-180.97 -178.60,-172.97 -199.24,-172.97ZM-21.87,-147C-12.99,-147 -6.77,-150.11 -2.77,-155.21L-2.77,-182.74C-7.88,-176.30 -13.43,-174.31 -20.31,-174.31C-25.64,-174.31 -30.30,-176.97 -32.08,-182.08L-32.08,-217.15C-32.08,-258.22 -45.62,-271.32 -75.81,-271.32C-92.46,-271.32 -106.45,-266.21 -114.88,-256.22L-114.00,-227.59C-108.00,-234.69 -96.90,-240.68 -78.03,-240.68C-57.16,-240.68 -47.40,-232.03 -46.29,-211.16C-55.61,-217.60 -71.15,-219.59 -81.58,-219.59C-108.00,-219.59 -125.98,-204.72 -125.98,-181.41C-125.98,-159.88 -110.89,-144.78 -79.36,-144.78C-64.93,-144.78 -50.95,-150.77 -43.40,-158.99C-38.96,-151.22 -31.41,-147 -21.87,-147ZM-79.14,-172.53C-99.79,-172.53 -108.67,-178.08 -108.67,-187.85C-108.67,-198.06 -99.34,-203.83 -77.59,-203.83C-65.16,-203.83 -55.17,-200.50 -46.06,-193.62L-46.06,-182.30C-53.17,-175.64 -65.38,-172.53 -79.14,-172.53ZM49.40,-144.78C65.38,-144.78 74.48,-151.44 79.37,-158.54L73.15,-182.74C68.93,-178.30 62.27,-175.86 53.39,-175.86C40.52,-175.86 35.63,-183.63 35.63,-196.95L35.63,-324.82L-1.22,-324.82L-1.22,-285.97L20.54,-285.97L20.54,-180.08C20.54,-155.21 29.86,-144.78 49.40,-144.78ZM265.40,-197.17L265.40,-178.30L211.90,-178.30C234.99,-197.17 270.29,-224.70 270.29,-263.99C270.29,-293.52 251.64,-311.28 216.56,-311.28C199.02,-311.28 185.26,-304.84 176.16,-296.18L176.16,-309.06L163.28,-309.06L163.28,-256.67L176.16,-256.67C183.26,-265.33 195.03,-272.65 214.12,-272.65C238.54,-272.65 250.53,-260.89 250.53,-250.90C250.53,-226.92 211.68,-194.95 162.62,-160.32L162.62,-147L278.06,-147L278.06,-147.22L278.28,-147.22L278.28,-197.17ZM339.33,-232.69C339.33,-244.46 332.44,-249.12 320.90,-249.12C307.80,-249.12 301.14,-244.24 301.14,-232.69C301.14,-222.04 308.02,-216.93 320.90,-216.93C332.22,-216.93 339.33,-222.04 339.33,-232.69ZM339.33,-166.09C339.33,-177.86 332.44,-182.52 320.90,-182.52C307.80,-182.52 301.14,-177.64 301.14,-166.09C301.14,-155.44 308.02,-150.33 320.90,-150.33C332.22,-150.33 339.33,-155.44 339.33,-166.09ZM-447.11,66.12L-447.11,35.04L-471.75,35.04L-471.75,19.50L-438.89,19.50C-398.49,19.50 -377.62,1.74 -377.62,-38.22C-377.62,-83.29 -399.38,-95.94 -438.67,-95.94L-510.82,-95.94L-510.82,-57.09L-487.51,-57.09L-487.51,35.04L-510.82,35.04L-510.82,66.12ZM-430.01,-10.91L-471.75,-10.91L-471.75,-57.09L-430.01,-57.09C-404.48,-57.09 -391.39,-49.10 -391.16,-34.00C-390.94,-20.24 -403.15,-10.91 -430.01,-10.91ZM-264.18,38.15L-274.61,28.16C-281.05,37.04 -290.38,41.70 -309.91,41.48C-330.34,41.26 -343.43,34.15 -346.32,14.62L-260.63,14.62C-260.63,-40.22 -279.72,-58.20 -309.91,-58.20C-336.55,-58.20 -359.86,-40.44 -359.86,6.85C-359.86,42.81 -342.77,68.34 -309.47,68.34C-287.93,68.34 -271.51,55.02 -264.18,38.15ZM-311.02,-24.46C-288.38,-24.46 -274.39,-13.36 -274.39,0.19L-346.32,0.19C-343.21,-16.69 -327.67,-24.46 -311.02,-24.46ZM-156.51,66.12L-118.10,66.12L-118.10,34.15L-144.30,34.15L-144.30,-111.48L-185.37,-111.48L-185.37,-72.63L-158.73,-72.63L-158.73,-36.22C-166.28,-52.87 -181.60,-57.98 -195.58,-58.20C-223.11,-58.42 -241.76,-40.66 -241.76,7.07C-241.76,45.92 -224.44,68.34 -194.69,68.34C-178.49,68.34 -164.95,59.24 -158.06,47.03ZM-193.81,42.14C-217.12,42.14 -228.88,28.16 -228.66,7.29C-228.66,-9.14 -216.89,-22.24 -194.25,-22.24C-168.50,-22.24 -158.95,-9.36 -158.73,7.07L-158.73,28.82C-166.28,39.48 -177.38,42.14 -193.81,42.14ZM-0.67,66.12C8.21,66.12 14.43,63.01 18.43,57.91L18.43,30.38C13.32,36.82 7.77,38.81 0.89,38.81C-4.44,38.81 -9.10,36.15 -10.88,31.04L-10.88,-4.03C-10.88,-45.10 -24.42,-58.20 -54.61,-58.20C-71.26,-58.20 -85.25,-53.09 -93.68,-43.10L-92.80,-14.47C-86.80,-21.57 -75.70,-27.56 -56.83,-27.56C-35.96,-27.56 -26.20,-18.91 -25.09,1.96C-34.41,-4.48 -49.95,-6.47 -60.38,-6.47C-86.80,-6.47 -104.78,8.40 -104.78,31.71C-104.78,53.24 -89.69,68.34 -58.16,68.34C-43.73,68.34 -29.75,62.35 -22.20,54.13C-17.76,61.90 -10.21,66.12 -0.67,66.12ZM-57.94,40.59C-78.59,40.59 -87.47,35.04 -87.47,25.27C-87.47,15.06 -78.14,9.29 -56.39,9.29C-43.96,9.29 -33.97,12.62 -24.86,19.50L-24.86,30.82C-31.97,37.48 -44.18,40.59 -57.94,40.59ZM83.47,120.07C120.10,120.07 136.53,98.75 136.53,79.66C136.53,61.01 126.76,48.58 105.45,48.80C89.69,49.03 77.26,52.80 63.71,52.80C57.50,52.80 53.06,49.25 52.84,41.70C52.61,37.26 55.72,34.15 59.50,32.15C66.60,34.82 74.37,35.71 81.70,35.71C102.12,35.71 128.54,27.94 128.54,-6.25C128.54,-14.47 127.65,-21.35 126.10,-27.34C133.20,-31.12 143.86,-27.79 143.86,-27.79L151.85,-55.98C136.31,-57.76 124.76,-54.65 118.99,-43.10C111,-53.98 97.90,-58.20 81.70,-58.20C53.95,-58.20 35.74,-45.10 35.74,-5.81C35.74,7.29 39.29,16.39 45.07,22.61C37.96,27.94 35.30,36.37 35.52,43.92C35.74,56.35 44.40,69.89 62.16,69.89C77.26,69.89 90.58,66.79 103.23,66.79C111.67,66.79 118.33,71.23 118.33,77.44C118.33,85.21 109.22,92.76 85.03,92.76C63.05,92.76 44.40,85.21 36.63,73.67L31.08,92.98C36.63,108.30 59.27,120.07 83.47,120.07ZM81.70,16.61C59.72,16.61 50.39,5.74 50.39,-5.14C50.62,-17.57 59.27,-25.79 81.70,-25.79C103.45,-25.79 113.66,-18.02 113.89,-5.14C113.89,4.85 103.23,16.61 81.70,16.61ZM210.90,68.34C240.65,68.34 261.96,49.91 261.96,7.29C261.96,-40.00 241.31,-58.20 210.90,-58.20C180.71,-58.20 159.84,-40.00 159.84,7.29C159.84,49.91 181.37,68.34 210.90,68.34ZM210.90,40.15C190.25,40.15 172.94,32.38 172.94,7.29C172.94,-8.25 186.04,-20.90 210.90,-20.90C235.99,-20.90 248.86,-8.47 248.86,7.29C248.86,32.15 231.55,40.15 210.90,40.15ZM336.55,120.07C373.18,120.07 389.61,98.75 389.61,79.66C389.61,61.01 379.84,48.58 358.53,48.80C342.77,49.03 330.34,52.80 316.79,52.80C310.58,52.80 306.14,49.25 305.92,41.70C305.69,37.26 308.80,34.15 312.58,32.15C319.68,34.82 327.45,35.71 334.78,35.71C355.20,35.71 381.62,27.94 381.62,-6.25C381.62,-14.47 380.73,-21.35 379.18,-27.34C386.28,-31.12 396.94,-27.79 396.94,-27.79L404.93,-55.98C389.39,-57.76 377.84,-54.65 372.07,-43.10C364.08,-53.98 350.98,-58.20 334.78,-58.20C307.03,-58.20 288.82,-45.10 288.82,-5.81C288.82,7.29 292.37,16.39 298.15,22.61C291.04,27.94 288.38,36.37 288.60,43.92C288.82,56.35 297.48,69.89 315.24,69.89C330.34,69.89 343.66,66.79 356.31,66.79C364.75,66.79 371.41,71.23 371.41,77.44C371.41,85.21 362.30,92.76 338.11,92.76C316.13,92.76 297.48,85.21 289.71,73.67L284.16,92.98C289.71,108.30 312.35,120.07 336.55,120.07ZM334.78,16.61C312.80,16.61 303.47,5.74 303.47,-5.14C303.70,-17.57 312.35,-25.79 334.78,-25.79C356.53,-25.79 366.74,-18.02 366.97,-5.14C366.97,4.85 356.31,16.61 334.78,16.61ZM436.90,112.74C455.99,112.74 461.54,100.09 470.86,74.78L505.27,-19.57L521.92,-19.57L521.92,-55.98L477.97,-55.98L477.97,-19.57L490.40,-19.57L472.42,28.16C467.53,15.73 460.21,-2.92 453.77,-19.57L465.09,-19.57L465.09,-55.98L406.93,-55.98L406.93,-19.57L428.24,-19.57C439.34,6.62 453.55,40.37 460.87,59.02L457.54,67.67C453.55,78.11 448.00,81.66 436.90,81.66C429.79,81.66 420.91,77.44 414.70,69.89L406.26,93.43C408.92,105.64 421.36,112.74 436.90,112.74Z" fill="#ffffff" stroke="#000000"/>
    <path d="M-294.26,-128.22L-282.41,-128.81L-286.35,-208.71L-344.52,-205.84L-343.73,-189.82L-298.73,-192.04C-299.48,-167.14 -318.49,-155.42 -348.12,-153.95C-381.71,-152.30 -401.44,-168.71 -402.80,-196.37C-403.95,-224.04 -389.04,-247.44 -352.82,-249.22C-331.09,-250.30 -315.02,-245.81 -304.78,-234.43L-291.83,-235.07L-294.59,-291.04L-307.54,-290.40L-306.39,-267.14C-316.10,-281.18 -334.76,-289.06 -354.73,-288.08C-392.93,-286.19 -419.87,-261.32 -416.85,-200.08C-414.17,-145.86 -386.57,-121.47 -347.05,-123.42C-324.66,-124.52 -307.59,-130.87 -297.33,-145.90ZM-209.86,-130.19C-180.44,-131.64 -160.27,-150.89 -162.35,-193.04C-164.65,-239.80 -185.95,-256.79 -216.03,-255.31C-245.88,-253.84 -265.63,-234.82 -263.32,-188.06C-261.24,-145.92 -239.05,-128.75 -209.86,-130.19ZM-211.23,-158.06C-231.65,-157.06 -249.15,-163.90 -250.37,-188.70C-251.13,-204.07 -238.79,-217.22 -214.21,-218.43C-189.40,-219.65 -176.07,-207.99 -175.30,-192.40C-174.09,-167.82 -190.82,-159.07 -211.23,-158.06ZM-34.58,-141.03C-25.79,-141.46 -19.80,-144.84 -16.10,-150.08L-17.44,-177.30C-22.17,-170.69 -27.57,-168.44 -34.37,-168.10C-39.64,-167.84 -44.38,-170.25 -46.38,-175.21L-48.09,-209.90C-50.10,-250.51 -64.12,-262.80 -93.98,-261.33C-110.44,-260.51 -124.02,-254.78 -131.88,-244.49L-129.60,-216.22C-124.02,-223.54 -113.34,-230.00 -94.68,-230.92C-74.05,-231.94 -63.96,-223.86 -61.85,-203.28C-71.38,-209.19 -86.85,-210.41 -97.16,-209.90C-123.29,-208.61 -140.34,-193.03 -139.20,-169.98C-138.15,-148.68 -122.49,-134.49 -91.32,-136.03C-77.05,-136.73 -63.52,-143.34 -56.45,-151.83C-51.68,-144.37 -44.01,-140.56 -34.58,-141.03ZM-92.45,-163.48C-112.87,-162.47 -121.92,-167.53 -122.40,-177.19C-122.89,-187.28 -113.96,-193.45 -92.44,-194.51C-80.15,-195.11 -70.11,-192.31 -60.78,-185.95L-60.22,-174.75C-66.92,-167.82 -78.84,-164.15 -92.45,-163.48ZM36.00,-142.31C51.80,-143.09 60.48,-150.12 64.96,-157.38L57.63,-181.00C53.68,-176.41 47.21,-173.67 38.43,-173.23C25.70,-172.61 20.49,-180.05 19.84,-193.22L13.61,-319.66L-22.83,-317.87L-20.94,-279.45L0.58,-280.51L5.74,-175.80C6.95,-151.22 16.68,-141.36 36.00,-142.31ZM247.03,-204.64L247.95,-185.99L195.05,-183.38C216.96,-203.16 250.52,-232.10 248.60,-270.96C247.16,-300.15 227.86,-316.80 193.17,-315.09C175.83,-314.24 162.54,-307.20 153.96,-298.20L153.33,-310.93L140.60,-310.30L143.15,-258.49L155.88,-259.12C162.49,-268.03 173.76,-275.85 192.64,-276.78C216.79,-277.97 229.22,-266.92 229.70,-257.04C230.87,-233.33 194.01,-199.83 147.19,-163.19L147.84,-150.02L261.99,-155.65L261.98,-155.87L262.20,-155.88L259.76,-205.27ZM318.39,-243.37C317.82,-255.00 310.79,-259.28 299.37,-258.72C286.42,-258.08 280.08,-252.92 280.64,-241.51C281.16,-230.97 288.21,-226.26 300.94,-226.89C312.14,-227.44 318.91,-232.83 318.39,-243.37ZM321.64,-177.52C321.07,-189.15 314.04,-193.42 302.62,-192.86C289.67,-192.22 283.32,-187.07 283.89,-175.65C284.41,-165.12 291.46,-160.40 304.19,-161.03C315.39,-161.58 322.16,-166.98 321.64,-177.52ZM-444.66,90.44L-446.18,59.70L-470.54,60.91L-471.30,45.54L-438.81,43.94C-398.86,41.97 -379.09,23.39 -381.04,-16.12C-383.24,-60.68 -405.37,-72.14 -444.22,-70.22L-515.56,-66.70L-513.67,-28.29L-490.62,-29.42L-486.13,61.67L-509.18,62.81L-507.66,93.54ZM-431.52,13.43L-472.78,15.47L-475.04,-30.19L-433.77,-32.23C-408.52,-33.47 -395.18,-26.21 -394.23,-11.29C-393.34,2.31 -404.95,12.12 -431.52,13.43ZM-265.15,53.86L-275.95,44.49C-281.88,53.58 -290.88,58.65 -310.20,59.38C-330.41,60.16 -343.71,53.77 -347.51,34.60L-262.78,30.42C-265.46,-23.80 -285.21,-40.65 -315.06,-39.18C-341.41,-37.88 -363.59,-19.18 -361.28,27.57C-359.53,63.13 -341.38,87.54 -308.46,85.92C-287.16,84.87 -271.57,70.90 -265.15,53.86ZM-314.52,-5.76C-292.13,-6.86 -277.76,3.43 -277.10,16.82L-348.22,20.33C-345.97,3.49 -330.98,-4.95 -314.52,-5.76ZM-157.32,76.27L-119.34,74.40L-120.90,42.79L-146.81,44.06L-153.91,-99.94L-194.52,-97.93L-192.62,-59.52L-166.28,-60.82L-164.50,-24.82C-172.78,-40.91 -188.18,-45.22 -202.02,-44.75C-229.25,-43.63 -246.82,-25.16 -244.49,22.03C-242.60,60.45 -224.38,81.78 -194.97,80.33C-178.94,79.54 -166.00,69.88 -159.79,57.47ZM-195.37,54.38C-218.42,55.52 -230.73,42.26 -231.53,21.62C-232.33,5.37 -221.34,-8.15 -198.94,-9.26C-173.48,-10.51 -163.41,1.75 -162.39,17.99L-161.33,39.50C-168.28,50.40 -179.12,53.58 -195.37,54.38ZM-3.22,68.67C5.56,68.24 11.55,64.86 15.26,59.62L13.91,32.40C9.18,39.01 3.79,41.26 -3.02,41.59C-8.28,41.85 -13.02,39.45 -15.03,34.49L-16.74,-0.20C-18.74,-40.81 -32.77,-53.10 -62.62,-51.63C-79.09,-50.81 -92.67,-45.08 -100.52,-34.79L-98.25,-6.52C-92.67,-13.84 -81.98,-20.31 -63.33,-21.23C-42.69,-22.24 -32.61,-14.16 -30.50,6.42C-40.03,0.51 -55.49,-0.71 -65.81,-0.20C-91.93,1.09 -108.99,16.67 -107.85,39.72C-106.80,61.02 -91.14,75.21 -59.97,73.67C-45.70,72.97 -32.16,66.36 -25.10,57.87C-20.33,65.33 -12.66,69.14 -3.22,68.67ZM-61.10,46.22C-81.52,47.23 -90.57,42.17 -91.04,32.51C-91.54,22.41 -82.60,16.25 -61.09,15.19C-48.80,14.59 -38.76,17.39 -29.42,23.75L-28.87,34.95C-35.57,41.88 -47.49,45.55 -61.10,46.22ZM82.60,117.91C118.82,116.12 134.03,94.25 133.10,75.37C132.19,56.93 121.92,45.12 100.86,46.38C85.29,47.36 73.18,51.70 59.79,52.36C53.64,52.66 49.08,49.37 48.49,41.92C48.05,37.54 50.98,34.31 54.61,32.15C61.76,34.44 69.49,34.94 76.74,34.58C96.93,33.59 122.67,24.62 121.01,-9.19C120.61,-17.31 119.39,-24.07 117.56,-29.92C124.40,-34.00 135.10,-31.23 135.10,-31.23L141.63,-59.50C126.18,-60.50 114.92,-56.86 109.77,-45.16C101.34,-55.53 88.18,-59.06 72.16,-58.27C44.72,-56.92 27.36,-43.08 29.27,-4.23C29.91,8.72 33.87,17.55 39.88,23.42C33.11,29.03 30.89,37.50 31.48,44.96C32.30,57.24 41.52,70.21 59.08,69.34C74.01,68.60 87.03,64.88 99.54,64.26C107.88,63.85 114.69,67.92 114.99,74.06C115.37,81.75 106.74,89.65 82.81,90.83C61.08,91.91 42.27,85.35 34.02,74.32L29.48,93.68C35.71,108.56 58.68,119.09 82.60,117.91ZM75.80,15.70C54.07,16.78 44.32,6.47 43.79,-4.28C43.41,-16.59 51.57,-25.13 73.74,-26.22C95.25,-27.28 105.73,-20.10 106.57,-7.38C107.06,2.50 97.10,14.65 75.80,15.70ZM206.08,60.55C235.50,59.10 255.67,39.84 253.59,-2.30C251.29,-49.06 229.99,-66.05 199.91,-64.57C170.06,-63.10 150.31,-44.08 152.62,2.67C154.70,44.82 176.89,61.99 206.08,60.55ZM204.71,32.67C184.29,33.68 166.79,26.84 165.57,2.04C164.81,-13.33 177.15,-26.48 201.73,-27.69C226.54,-28.92 239.87,-17.25 240.64,-1.67C241.86,22.92 225.12,31.67 204.71,32.67ZM332.85,105.57C369.07,103.79 384.27,81.91 383.34,63.03C382.43,44.59 372.17,32.78 351.11,34.04C335.53,35.02 323.42,39.36 310.03,40.02C303.89,40.33 299.32,37.03 298.74,29.58C298.30,25.20 301.22,21.97 304.86,19.81C312.01,22.10 319.74,22.60 326.98,22.24C347.18,21.25 372.92,12.28 371.25,-21.53C370.85,-29.65 369.64,-36.41 367.81,-42.26C374.65,-46.34 385.35,-43.57 385.35,-43.57L391.88,-71.84C376.42,-72.83 365.16,-69.20 360.02,-57.50C351.58,-67.87 338.43,-71.40 322.40,-70.61C294.96,-69.26 277.60,-55.42 279.52,-16.57C280.16,-3.61 284.11,5.21 290.12,11.08C283.36,16.69 281.13,25.16 281.72,32.62C282.55,44.90 291.77,57.87 309.33,57.00C324.26,56.26 337.28,52.54 349.79,51.93C358.13,51.51 364.93,55.58 365.23,61.73C365.61,69.41 356.98,77.32 333.05,78.50C311.32,79.57 292.52,73.01 284.27,61.98L279.72,81.35C285.96,96.22 308.92,106.75 332.85,105.57ZM326.05,3.37C304.32,4.44 294.57,-5.86 294.04,-16.62C293.65,-28.92 301.81,-37.47 323.98,-38.56C345.49,-39.62 355.97,-32.44 356.82,-19.72C357.31,-9.84 347.34,2.32 326.05,3.37ZM431.71,93.44C450.59,92.50 455.46,79.72 463.45,54.24L492.87,-40.73L509.34,-41.54L507.56,-77.54L464.10,-75.40L465.87,-39.40L478.16,-40.00L462.71,8.07C457.28,-3.99 449.12,-22.07 441.94,-38.22L453.14,-38.77L451.36,-74.77L393.85,-71.93L395.63,-35.93L416.70,-36.97C428.95,-11.61 444.65,21.06 452.80,39.14L449.93,47.87C446.49,58.38 441.17,62.16 430.20,62.70C423.17,63.05 414.19,59.31 407.67,52.15L400.48,75.83C403.71,87.78 416.35,94.19 431.71,93.44Z" fill="#ffffff" stroke="#000000"/>
    <path d="M-302.75,-108.93L-291.06,-110.08L-298.85,-188.89L-356.22,-183.22L-354.66,-167.41L-310.27,-171.80C-309.80,-147.14 -328.02,-134.63 -357.25,-131.74C-390.38,-128.47 -410.69,-143.73 -413.38,-171.01C-415.86,-198.31 -402.26,-222.17 -366.54,-225.70C-345.11,-227.82 -329.01,-224.17 -318.32,-213.42L-305.55,-214.68L-311.01,-269.89L-323.78,-268.63L-321.51,-245.68C-331.80,-259.09 -350.63,-265.97 -370.33,-264.02C-408.00,-260.30 -433.42,-234.40 -427.45,-173.99C-422.17,-120.51 -393.68,-97.75 -354.71,-101.60C-332.63,-103.79 -316.06,-110.89 -306.65,-126.25ZM-219.40,-114.98C-190.38,-117.85 -171.38,-137.87 -175.48,-179.44C-180.04,-225.56 -201.93,-241.32 -231.59,-238.39C-261.04,-235.48 -279.64,-215.71 -275.08,-169.60C-270.97,-128.03 -248.19,-112.13 -219.40,-114.98ZM-222.11,-142.48C-242.25,-140.49 -259.88,-146.39 -262.30,-170.86C-263.80,-186.01 -252.25,-199.62 -228.00,-202.01C-203.53,-204.43 -189.78,-193.55 -188.26,-178.18C-185.86,-153.93 -201.98,-144.47 -222.11,-142.48ZM-46.62,-134.24C-37.96,-135.10 -32.20,-138.73 -28.79,-144.10L-31.45,-170.94C-35.81,-164.17 -41.03,-161.69 -47.74,-161.02C-52.93,-160.51 -57.74,-162.66 -59.96,-167.47L-63.34,-201.68C-67.30,-241.73 -81.77,-253.20 -111.22,-250.29C-127.46,-248.68 -140.60,-242.35 -147.87,-231.80L-144.24,-203.95C-139.08,-211.46 -128.83,-218.38 -110.43,-220.20C-90.08,-222.21 -79.72,-214.70 -76.62,-194.46C-86.34,-199.84 -101.68,-200.29 -111.86,-199.28C-137.62,-196.74 -153.73,-180.50 -151.48,-157.77C-149.40,-136.76 -133.23,-123.50 -102.48,-126.54C-88.41,-127.93 -75.35,-135.12 -68.78,-143.86C-63.70,-136.71 -55.93,-133.32 -46.62,-134.24ZM-104.94,-153.62C-125.08,-151.63 -134.27,-156.19 -135.21,-165.71C-136.20,-175.67 -127.66,-182.20 -106.44,-184.30C-94.32,-185.50 -84.26,-183.21 -74.72,-177.38L-73.62,-166.34C-79.91,-159.16 -91.52,-154.95 -104.94,-153.62ZM23.09,-138.95C38.68,-140.49 46.91,-147.86 50.99,-155.26L42.60,-178.26C38.91,-173.53 32.65,-170.50 23.99,-169.65C11.43,-168.40 5.92,-175.51 4.64,-188.50L-7.69,-313.21L-43.63,-309.66L-39.88,-271.77L-18.67,-273.86L-8.46,-170.59C-6.06,-146.34 4.04,-137.07 23.09,-138.95ZM228.70,-210.87L230.52,-192.47L178.34,-187.31C199.04,-207.94 230.81,-238.19 227.02,-276.51C224.17,-305.30 204.27,-320.83 170.07,-317.44C152.96,-315.75 140.16,-308.15 132.12,-298.83L130.88,-311.38L118.32,-310.14L123.37,-259.05L135.93,-260.29C142.02,-269.42 152.79,-277.70 171.41,-279.54C195.22,-281.89 208.05,-271.57 209.01,-261.83C211.32,-238.45 176.52,-203.52 132.01,-165.02L133.29,-152.03L245.88,-163.16L245.85,-163.38L246.07,-163.40L241.26,-212.11ZM297.37,-252.64C296.24,-264.11 289.07,-267.99 277.82,-266.88C265.04,-265.62 259.02,-260.21 260.13,-248.96C261.16,-238.56 268.36,-234.25 280.92,-235.49C291.96,-236.58 298.40,-242.24 297.37,-252.64ZM303.79,-187.69C302.66,-199.16 295.50,-203.04 284.24,-201.93C271.46,-200.67 265.44,-195.26 266.55,-184.00C267.58,-173.61 274.78,-169.30 287.34,-170.54C298.38,-171.63 304.82,-177.29 303.79,-187.69ZM-440.79,114.60L-443.79,84.28L-467.82,86.66L-469.32,71.51L-437.27,68.34C-397.87,64.44 -379.23,45.11 -383.08,6.14C-387.43,-37.81 -409.87,-48.05 -448.19,-44.27L-518.55,-37.31L-514.81,0.58L-492.07,-1.67L-483.19,88.18L-505.92,90.43L-502.93,120.74ZM-431.55,37.82L-472.25,41.84L-476.70,-3.19L-436.00,-7.21C-411.10,-9.67 -397.56,-3.14 -395.88,11.56C-394.34,24.96 -405.35,35.23 -431.55,37.82ZM-265.09,69.68L-276.23,60.94C-281.65,70.22 -290.29,75.67 -309.37,77.34C-329.31,79.09 -342.76,73.42 -347.46,54.65L-263.89,46.39C-269.18,-7.09 -289.53,-22.78 -318.98,-19.87C-344.96,-17.31 -365.98,2.26 -361.42,48.38C-357.95,83.45 -338.82,106.70 -306.34,103.49C-285.34,101.42 -270.61,86.84 -265.09,69.68ZM-316.81,13.14C-294.72,10.96 -280.01,20.44 -278.71,33.64L-348.85,40.58C-347.45,23.82 -333.04,14.75 -316.81,13.14ZM-157.39,86.58L-119.93,82.88L-123.01,51.70L-148.56,54.23L-162.60,-87.80L-202.65,-83.84L-198.91,-45.95L-172.93,-48.52L-169.42,-13.01C-178.38,-28.52 -193.81,-32.03 -207.48,-30.90C-234.34,-28.46 -250.82,-9.34 -246.22,37.21C-242.47,75.10 -223.42,95.29 -194.41,92.43C-178.61,90.86 -166.28,80.68 -160.74,68.11ZM-196.07,66.79C-218.80,69.04 -231.63,56.53 -233.42,36.16C-235.01,20.14 -224.79,6.23 -202.71,4.05C-177.60,1.57 -167.04,13.20 -165.24,29.20L-163.15,50.42C-169.48,61.54 -180.05,65.21 -196.07,66.79ZM-5.40,71.56C3.26,70.70 9.02,67.07 12.43,61.70L9.77,34.86C5.41,41.63 0.19,44.11 -6.52,44.78C-11.71,45.29 -16.52,43.14 -18.74,38.33L-22.12,4.12C-26.08,-35.93 -40.55,-47.40 -70.00,-44.49C-86.23,-42.88 -99.38,-36.55 -106.65,-26.00L-103.02,1.85C-97.86,-5.66 -87.61,-12.58 -69.21,-14.39C-48.86,-16.41 -38.49,-8.90 -35.40,11.34C-45.11,5.96 -60.46,5.51 -70.64,6.52C-96.40,9.06 -112.50,25.30 -110.26,48.04C-108.18,69.04 -92.00,82.30 -61.26,79.26C-47.19,77.87 -34.13,70.68 -27.56,61.94C-22.48,69.09 -14.71,72.48 -5.40,71.56ZM-63.72,52.18C-83.85,54.17 -93.05,49.61 -93.99,40.09C-94.98,30.13 -86.44,23.60 -65.22,21.50C-53.10,20.30 -43.03,22.59 -33.49,28.42L-32.40,39.46C-38.69,46.64 -50.30,50.85 -63.72,52.18ZM81.86,116.06C117.58,112.52 131.55,90.16 129.71,71.54C127.91,53.35 117.18,42.17 96.42,44.44C81.07,46.17 69.31,51.05 56.10,52.36C50.04,52.96 45.37,49.92 44.42,42.58C43.78,38.27 46.51,34.94 50.00,32.63C57.18,34.54 64.85,34.66 71.99,33.95C91.91,31.99 116.92,21.86 113.63,-11.48C112.84,-19.49 111.31,-26.12 109.21,-31.81C115.78,-36.18 126.49,-33.96 126.49,-33.96L131.57,-62.22C116.24,-62.46 105.28,-58.31 100.77,-46.50C91.92,-56.34 78.74,-59.19 62.94,-57.63C35.88,-54.95 19.38,-40.42 23.17,-2.10C24.44,10.67 28.78,19.21 35.01,24.71C28.59,30.59 26.81,39.08 27.75,46.42C29.17,58.52 38.91,70.89 56.23,69.18C70.96,67.72 83.65,63.41 95.99,62.19C104.22,61.38 111.14,65.06 111.74,71.13C112.49,78.70 104.34,86.94 80.74,89.28C59.31,91.39 40.39,85.83 31.70,75.32L28.15,94.69C35.04,109.10 58.26,118.39 81.86,116.06ZM70.15,15.34C48.72,17.45 38.58,7.74 37.53,-2.86C36.54,-15.01 44.20,-23.86 66.06,-26.02C87.28,-28.11 97.99,-21.52 99.45,-8.99C100.41,0.76 91.15,13.26 70.15,15.34ZM201.14,53.32C230.15,50.46 249.16,30.43 245.05,-11.14C240.50,-57.25 218.61,-73.02 188.94,-70.08C159.50,-67.17 140.90,-47.41 145.46,-1.29C149.57,40.28 172.35,56.17 201.14,53.32ZM198.43,25.83C178.29,27.82 160.65,21.91 158.24,-2.55C156.74,-17.71 168.29,-31.31 192.54,-33.71C217.00,-36.13 230.76,-25.25 232.28,-9.87C234.68,14.37 218.56,23.84 198.43,25.83ZM328.67,91.66C364.40,88.13 378.36,65.76 376.52,47.14C374.72,28.95 364.00,17.77 343.24,20.04C327.89,21.78 316.12,26.66 302.92,27.96C296.86,28.56 292.18,25.52 291.24,18.18C290.59,13.88 293.33,10.54 296.81,8.23C304.00,10.15 311.66,10.26 318.81,9.56C338.73,7.59 363.74,-2.54 360.44,-35.88C359.65,-43.89 358.12,-50.52 356.03,-56.21C362.59,-60.58 373.31,-58.36 373.31,-58.36L378.38,-86.62C363.06,-86.86 352.10,-82.71 347.58,-70.90C338.74,-80.74 325.56,-83.59 309.75,-82.03C282.69,-79.35 266.20,-64.82 269.99,-26.50C271.25,-13.73 275.59,-5.19 281.82,0.31C275.41,6.19 273.62,14.68 274.57,22.02C275.98,34.12 285.73,46.49 303.05,44.78C317.77,43.33 330.46,39.01 342.80,37.79C351.03,36.98 357.95,40.67 358.55,46.73C359.30,54.31 351.15,62.54 327.55,64.88C306.12,67.00 287.21,61.43 278.52,50.92L274.97,70.29C281.85,84.70 305.07,93.99 328.67,91.66ZM316.97,-9.06C295.53,-6.94 285.39,-16.65 284.34,-27.26C283.36,-39.41 291.01,-48.25 312.88,-50.42C334.10,-52.51 344.80,-45.92 346.26,-33.38C347.23,-23.64 337.97,-11.14 316.97,-9.06ZM425.83,74.84C444.45,73.00 448.64,60.12 455.29,34.54L479.75,-60.79L495.99,-62.40L492.48,-97.90L449.61,-93.66L453.12,-58.16L465.25,-59.36L452.31,-11.07C446.35,-22.73 437.41,-40.21 429.52,-55.83L440.57,-56.92L437.06,-92.42L380.33,-86.82L383.84,-51.31L404.63,-53.36C417.98,-28.89 435.09,2.65 444.03,20.13L441.62,28.90C438.72,39.46 433.65,43.46 422.83,44.53C415.90,45.21 406.83,41.96 400.04,35.19L394.09,58.96C397.86,70.61 410.67,76.34 425.83,74.84Z" fill="#ffffff" stroke="#000000"/>
    <path d="M-309.93,-89.19L-298.43,-90.90L-309.97,-168.43L-366.42,-160.03L-364.10,-144.48L-320.44,-150.98C-318.77,-126.63 -336.17,-113.37 -364.93,-109.09C-397.52,-104.24 -418.34,-118.34 -422.33,-145.17C-426.12,-172.04 -413.83,-196.29 -378.69,-201.53C-357.60,-204.67 -341.51,-201.84 -330.42,-191.73L-317.86,-193.60L-325.94,-247.92L-338.51,-246.04L-335.15,-223.47C-345.97,-236.22 -364.92,-242.11 -384.30,-239.23C-421.36,-233.71 -445.23,-206.86 -436.39,-147.43C-428.55,-94.83 -399.28,-73.71 -360.95,-79.42C-339.22,-82.65 -323.19,-90.48 -314.63,-106.13ZM-227.83,-99.24C-199.28,-103.49 -181.47,-124.21 -187.56,-165.11C-194.31,-210.47 -216.72,-224.99 -245.90,-220.64C-274.87,-216.33 -292.29,-195.89 -285.53,-150.52C-279.45,-109.62 -256.15,-95.02 -227.83,-99.24ZM-231.85,-126.29C-251.66,-123.34 -269.38,-128.32 -272.97,-152.39C-275.19,-167.30 -264.43,-181.31 -240.57,-184.86C-216.51,-188.44 -202.38,-178.36 -200.12,-163.23C-196.57,-139.38 -212.04,-129.24 -231.85,-126.29ZM-57.96,-126.71C-49.44,-127.97 -43.92,-131.84 -40.82,-137.31L-44.75,-163.72C-48.73,-156.82 -53.77,-154.11 -60.37,-153.13C-65.48,-152.36 -70.34,-154.25 -72.77,-158.90L-77.78,-192.55C-83.65,-231.96 -98.51,-242.59 -127.48,-238.28C-143.45,-235.90 -156.14,-229.00 -162.81,-218.21L-157.86,-190.86C-153.13,-198.53 -143.34,-205.87 -125.23,-208.57C-105.21,-211.55 -94.60,-204.64 -90.56,-184.77C-100.42,-189.62 -115.62,-189.31 -125.63,-187.82C-150.97,-184.05 -166.10,-167.21 -162.77,-144.85C-159.69,-124.19 -143.05,-111.86 -112.81,-116.36C-98.97,-118.42 -86.40,-126.17 -80.33,-135.13C-74.96,-128.31 -67.12,-125.34 -57.96,-126.71ZM-116.56,-143.02C-136.37,-140.07 -145.68,-144.13 -147.08,-153.50C-148.54,-163.29 -140.41,-170.16 -119.54,-173.27C-107.61,-175.05 -97.55,-173.28 -87.84,-167.98L-86.22,-157.12C-92.08,-149.71 -103.36,-144.98 -116.56,-143.02ZM10.73,-134.76C26.06,-137.04 33.84,-144.73 37.51,-152.24L28.09,-174.57C24.68,-169.71 18.64,-166.41 10.12,-165.14C-2.23,-163.31 -8.03,-170.06 -9.93,-182.84L-28.20,-305.53L-63.55,-300.26L-58.00,-262.99L-37.13,-266.10L-22.01,-164.50C-18.45,-140.64 -8.02,-131.96 10.73,-134.76ZM210.48,-215.88L213.18,-197.77L161.85,-190.13C181.30,-211.53 211.24,-242.99 205.62,-280.68C201.41,-309.01 180.98,-323.39 147.33,-318.38C130.50,-315.87 118.21,-307.73 110.72,-298.12L108.88,-310.48L96.52,-308.64L104.01,-258.37L116.36,-260.21C121.94,-269.53 132.18,-278.24 150.50,-280.97C173.93,-284.46 187.11,-274.88 188.54,-265.30C191.96,-242.29 159.26,-206.07 117.13,-165.84L119.03,-153.06L229.79,-169.55L229.76,-169.76L229.97,-169.79L222.84,-217.72ZM276.34,-260.52C274.66,-271.80 267.39,-275.29 256.31,-273.64C243.74,-271.77 238.05,-266.14 239.70,-255.06C241.22,-244.84 248.56,-240.92 260.91,-242.76C271.77,-244.38 277.86,-250.29 276.34,-260.52ZM285.85,-196.62C284.17,-207.91 276.90,-211.40 265.82,-209.75C253.26,-207.88 247.57,-202.24 249.21,-191.16C250.74,-180.94 258.07,-177.02 270.42,-178.86C281.29,-180.48 287.37,-186.39 285.85,-196.62ZM-435.51,138.51L-439.95,108.69L-463.59,112.21L-465.81,97.30L-434.28,92.61C-395.52,86.84 -378.04,66.82 -383.74,28.48C-390.18,-14.76 -412.86,-23.79 -450.56,-18.18L-519.78,-7.87L-514.23,29.40L-491.87,26.07L-478.71,114.46L-501.07,117.79L-496.63,147.61ZM-430.11,62.16L-470.15,68.12L-476.75,23.82L-436.71,17.86C-412.21,14.21 -398.50,20.01 -396.13,34.46C-393.95,47.63 -404.34,58.32 -430.11,62.16ZM-264.00,85.54L-275.43,77.45C-280.34,86.89 -288.62,92.69 -307.40,95.27C-327.02,97.97 -340.60,93.03 -346.16,74.70L-263.95,62.46C-271.78,9.85 -292.67,-4.68 -321.63,-0.36C-347.19,3.44 -367.02,23.81 -360.27,69.18C-355.13,103.68 -335.08,125.74 -303.13,120.98C-282.47,117.90 -268.61,102.78 -264.00,85.54ZM-317.88,32.17C-296.15,28.94 -281.15,37.59 -279.22,50.58L-348.23,60.85C-347.65,44.22 -333.85,34.55 -317.88,32.17ZM-156.70,97.00L-119.85,91.51L-124.42,60.84L-149.55,64.58L-170.35,-75.14L-209.76,-69.27L-204.21,-32.00L-178.65,-35.80L-173.45,-0.87C-183.07,-15.77 -198.49,-18.48 -211.94,-16.69C-238.39,-12.98 -253.74,6.73 -246.92,52.52C-241.37,89.79 -221.56,108.83 -193.02,104.58C-177.47,102.27 -165.78,91.60 -160.92,78.90ZM-195.91,79.32C-218.27,82.65 -231.56,70.92 -234.32,50.86C-236.67,35.10 -227.25,20.85 -205.53,17.62C-180.82,13.94 -169.82,24.93 -167.26,40.66L-164.16,61.53C-169.88,72.84 -180.14,76.98 -195.91,79.32ZM-7.18,74.74C1.34,73.47 6.86,69.60 9.97,64.13L6.03,37.72C2.05,44.63 -2.99,47.34 -9.59,48.32C-14.70,49.08 -19.55,47.19 -21.99,42.54L-27.00,8.89C-32.86,-30.51 -47.73,-41.14 -76.69,-36.83C-92.67,-34.45 -105.36,-27.56 -112.02,-16.77L-107.08,10.58C-102.35,2.91 -92.55,-4.43 -74.45,-7.12C-54.43,-10.10 -43.82,-3.19 -39.77,16.67C-49.64,11.83 -64.83,12.13 -74.84,13.62C-100.19,17.39 -115.32,34.23 -111.99,56.60C-108.91,77.26 -92.27,89.58 -62.03,85.08C-48.18,83.02 -35.62,75.27 -29.55,66.31C-24.18,73.13 -16.34,76.10 -7.18,74.74ZM-65.78,58.43C-85.59,61.37 -94.90,57.32 -96.29,47.95C-97.75,38.15 -89.63,31.28 -68.76,28.17C-56.83,26.40 -46.77,28.16 -37.05,33.47L-35.44,44.33C-41.30,51.73 -52.57,56.46 -65.78,58.43ZM81.25,114.48C116.40,109.24 129.11,86.45 126.39,68.13C123.72,50.24 112.57,39.71 92.16,42.97C77.07,45.43 65.68,50.83 52.69,52.76C46.72,53.65 41.96,50.88 40.66,43.67C39.82,39.44 42.36,36.01 45.69,33.56C52.89,35.10 60.47,34.84 67.50,33.79C87.09,30.88 111.33,19.65 106.45,-13.15C105.27,-21.03 103.44,-27.51 101.09,-33.04C107.37,-37.67 118.07,-36.00 118.07,-36.00L121.71,-64.19C106.54,-63.68 95.91,-59.05 92.02,-47.15C82.80,-56.44 69.63,-58.62 54.08,-56.30C27.46,-52.34 11.87,-37.17 17.48,0.53C19.35,13.09 24.06,21.32 30.48,26.46C24.43,32.59 23.08,41.06 24.37,48.27C26.36,60.17 36.60,71.92 53.64,69.38C68.12,67.23 80.46,62.34 92.60,60.54C100.69,59.33 107.71,62.64 108.60,68.60C109.71,76.06 102.06,84.60 78.84,88.06C57.76,91.20 38.79,86.62 29.68,76.65L27.12,95.98C34.63,109.88 58.04,117.93 81.25,114.48ZM64.77,15.48C43.68,18.62 33.18,9.51 31.63,-0.93C30.07,-12.89 37.20,-22.00 58.71,-25.21C79.59,-28.31 90.49,-22.32 92.55,-10.00C93.97,-0.41 85.43,12.40 64.77,15.48ZM196.12,46.65C224.66,42.40 242.48,21.68 236.39,-19.22C229.63,-64.59 207.23,-79.10 178.05,-74.76C149.08,-70.45 131.66,-50.00 138.41,-4.63C144.50,36.26 167.79,50.86 196.12,46.65ZM192.09,19.60C172.28,22.55 154.56,17.57 150.98,-6.50C148.76,-21.41 159.52,-35.42 183.37,-38.98C207.44,-42.56 221.57,-32.47 223.82,-17.35C227.37,6.51 211.90,16.65 192.09,19.60ZM324.06,78.33C359.21,73.09 371.92,50.30 369.20,31.98C366.53,14.09 355.39,3.56 334.97,6.82C319.88,9.28 308.49,14.68 295.50,16.61C289.53,17.50 284.77,14.73 283.48,7.52C282.63,3.29 285.17,-0.14 288.50,-2.59C295.70,-1.05 303.28,-1.31 310.31,-2.36C329.90,-5.27 354.14,-16.50 349.26,-49.30C348.08,-57.18 346.25,-63.66 343.90,-69.19C350.18,-73.83 360.88,-72.15 360.88,-72.15L364.52,-100.34C349.35,-99.83 338.72,-95.20 334.83,-83.30C325.61,-92.59 312.44,-94.77 296.89,-92.45C270.27,-88.49 254.68,-73.32 260.29,-35.62C262.16,-23.06 266.87,-14.83 273.29,-9.69C267.24,-3.56 265.89,4.91 267.18,12.12C269.17,24.02 279.41,35.77 296.45,33.23C310.93,31.08 323.27,26.19 335.41,24.39C343.50,23.18 350.53,26.49 351.41,32.45C352.52,39.91 344.87,48.45 321.65,51.91C300.57,55.05 281.60,50.47 272.49,40.50L269.93,59.82C277.44,73.73 300.85,81.78 324.06,78.33ZM307.58,-20.67C286.50,-17.54 276.00,-26.64 274.44,-37.08C272.88,-49.04 280.01,-58.15 301.52,-61.36C322.40,-64.46 333.31,-58.47 335.36,-46.15C336.78,-36.56 328.24,-23.75 307.58,-20.67ZM419.29,56.96C437.61,54.24 441.12,41.30 446.45,15.69L465.99,-79.75L481.97,-82.13L476.76,-117.06L434.59,-110.78L439.79,-75.85L451.72,-77.62L441.29,-29.26C434.82,-40.49 425.13,-57.33 416.58,-72.39L427.44,-74.01L422.24,-108.94L366.43,-100.63L371.64,-65.70L392.08,-68.74C406.47,-45.20 424.93,-14.85 434.62,1.99L432.66,10.78C430.32,21.36 425.50,25.56 414.85,27.14C408.03,28.16 398.91,25.38 391.87,19.03L387.14,42.81C391.44,54.14 404.38,59.18 419.29,56.96Z" fill="#ffffff" stroke="#000000"/>
    <path d="M-315.80,-69.11L-304.51,-71.36L-319.70,-147.43L-375.08,-136.38L-372.04,-121.12L-329.19,-129.67C-326.36,-105.68 -342.91,-91.73 -371.13,-86.09C-403.10,-79.71 -424.37,-92.63 -429.63,-118.97C-434.68,-145.34 -423.72,-169.91 -389.24,-176.80C-368.55,-180.93 -352.50,-178.92 -341.05,-169.47L-328.72,-171.93L-339.36,-225.22L-351.69,-222.76L-347.27,-200.61C-358.59,-212.69 -377.61,-217.59 -396.62,-213.79C-432.99,-206.53 -455.28,-178.83 -443.63,-120.52C-433.33,-68.90 -403.37,-49.45 -365.75,-56.96C-344.43,-61.22 -328.96,-69.74 -321.27,-85.62ZM-235.12,-83.04C-207.12,-88.63 -190.52,-109.98 -198.53,-150.11C-207.42,-194.63 -230.28,-207.88 -258.91,-202.17C-287.33,-196.49 -303.56,-175.43 -294.67,-130.92C-286.66,-90.79 -262.92,-77.49 -235.12,-83.04ZM-240.42,-109.58C-259.86,-105.70 -277.62,-109.76 -282.34,-133.38C-285.26,-148.01 -275.31,-162.38 -251.90,-167.06C-228.28,-171.77 -213.82,-162.49 -210.86,-147.65C-206.19,-124.24 -220.99,-113.46 -240.42,-109.58ZM-68.55,-118.47C-60.19,-120.14 -54.93,-124.23 -52.13,-129.79L-57.30,-155.71C-60.90,-148.69 -65.75,-145.76 -72.22,-144.47C-77.24,-143.47 -82.13,-145.10 -84.76,-149.57L-91.35,-182.59C-99.07,-221.26 -114.28,-231.04 -142.71,-225.37C-158.38,-222.24 -170.59,-214.80 -176.65,-203.81L-170.43,-177.02C-166.13,-184.83 -156.80,-192.56 -139.04,-196.11C-119.39,-200.03 -108.57,-193.72 -103.60,-174.28C-113.59,-178.59 -128.60,-177.55 -138.42,-175.59C-163.29,-170.62 -177.42,-153.24 -173.04,-131.29C-168.99,-111.02 -151.94,-99.65 -122.27,-105.57C-108.68,-108.29 -96.64,-116.56 -91.08,-125.71C-85.44,-119.23 -77.54,-116.68 -68.55,-118.47ZM-127.27,-131.74C-146.71,-127.86 -156.11,-131.41 -157.95,-140.61C-159.87,-150.22 -152.18,-157.41 -131.69,-161.50C-119.99,-163.84 -109.96,-162.58 -100.10,-157.81L-97.97,-147.15C-103.41,-139.55 -114.32,-134.33 -127.27,-131.74ZM-1.05,-129.77C14.00,-132.78 21.31,-140.76 24.58,-148.37L14.18,-169.98C11.04,-165.01 5.23,-161.45 -3.13,-159.79C-15.25,-157.37 -21.31,-163.76 -23.81,-176.30L-47.85,-296.68L-82.54,-289.76L-75.24,-253.18L-54.76,-257.27L-34.85,-157.58C-30.18,-134.17 -19.44,-126.10 -1.05,-129.77ZM192.45,-219.70L196.00,-201.93L145.63,-191.88C163.82,-213.98 191.88,-246.53 184.49,-283.52C178.94,-311.32 158.05,-324.53 125.03,-317.94C108.52,-314.65 96.77,-306.00 89.83,-296.14L87.41,-308.26L75.29,-305.84L85.13,-256.51L97.26,-258.93C102.32,-268.42 112.02,-277.53 129.99,-281.12C152.98,-285.71 166.48,-276.88 168.35,-267.48C172.86,-244.91 142.30,-207.51 102.62,-165.69L105.12,-153.15L213.80,-174.84L213.76,-175.05L213.96,-175.09L204.58,-222.12ZM255.37,-267.03C253.16,-278.11 245.81,-281.20 234.94,-279.04C222.61,-276.57 217.26,-270.72 219.43,-259.86C221.43,-249.82 228.87,-246.31 240.99,-248.73C251.65,-250.86 257.38,-257.00 255.37,-267.03ZM267.89,-204.33C265.68,-215.41 258.33,-218.51 247.46,-216.34C235.13,-213.87 229.77,-208.02 231.94,-197.16C233.95,-187.13 241.39,-183.61 253.51,-186.03C264.17,-188.16 269.89,-194.30 267.89,-204.33ZM-428.83,162.09L-434.67,132.83L-457.87,137.47L-460.79,122.84L-429.86,116.66C-391.82,109.07 -375.51,88.42 -383.02,50.81C-391.49,8.38 -414.35,0.56 -451.35,7.94L-519.27,21.50L-511.97,58.08L-490.02,53.70L-472.71,140.43L-494.65,144.81L-488.81,174.07ZM-427.21,86.36L-466.50,94.20L-475.18,50.73L-435.89,42.89C-411.86,38.09 -398.03,43.15 -394.98,57.32C-392.18,70.24 -401.93,81.31 -427.21,86.36ZM-261.87,101.38L-273.57,93.93C-277.96,103.50 -285.87,109.64 -304.30,113.11C-323.57,116.74 -337.23,112.51 -343.62,94.66L-262.95,78.56C-273.26,26.93 -294.61,13.59 -323.04,19.27C-348.11,24.28 -366.72,45.38 -357.83,89.89C-351.07,123.75 -330.18,144.57 -298.83,138.31C-278.56,134.26 -265.60,118.64 -261.87,101.38ZM-317.74,51.24C-296.42,46.99 -281.17,54.81 -278.62,67.56L-346.34,81.08C-346.58,64.61 -333.41,54.37 -317.74,51.24ZM-155.25,107.47L-119.10,100.25L-125.10,70.16L-149.77,75.08L-177.14,-62.02L-215.80,-54.30L-208.50,-17.72L-183.42,-22.73L-176.58,11.54C-186.81,-2.71 -202.19,-4.64 -215.40,-2.22C-241.36,2.74 -255.58,22.97 -246.61,67.90C-239.30,104.48 -218.79,122.33 -190.78,116.74C-175.53,113.69 -164.49,102.58 -160.30,89.79ZM-194.87,91.91C-216.81,96.29 -230.52,85.34 -234.23,65.65C-237.32,50.18 -228.71,35.64 -207.39,31.39C-183.15,26.55 -171.74,36.87 -168.44,52.30L-164.35,72.78C-169.46,84.23 -179.40,88.82 -194.87,91.91ZM-8.54,78.18C-0.18,76.51 5.09,72.42 7.89,66.86L2.72,40.94C-0.88,47.96 -5.73,50.89 -12.21,52.18C-17.22,53.18 -22.11,51.55 -24.74,47.08L-31.34,14.06C-39.06,-24.61 -54.27,-34.39 -82.69,-28.72C-98.37,-25.59 -110.57,-18.15 -116.64,-7.16L-110.42,19.63C-106.11,11.82 -96.79,4.09 -79.02,0.54C-59.38,-3.38 -48.55,2.93 -43.59,22.37C-53.57,18.06 -68.58,19.10 -78.40,21.06C-103.27,26.03 -117.41,43.41 -113.02,65.36C-108.98,85.63 -91.93,97.00 -62.25,91.08C-48.67,88.36 -36.63,80.09 -31.06,70.94C-25.42,77.42 -17.52,79.97 -8.54,78.18ZM-67.26,64.91C-86.69,68.79 -96.10,65.24 -97.93,56.04C-99.85,46.43 -92.16,39.24 -71.68,35.15C-59.97,32.81 -49.94,34.07 -40.08,38.84L-37.95,49.50C-43.39,57.10 -54.30,62.32 -67.26,64.91ZM80.81,113.15C115.30,106.27 126.76,83.11 123.17,65.14C119.66,47.59 108.13,37.72 88.11,41.93C73.31,45.10 62.32,50.99 49.57,53.54C43.72,54.71 38.87,52.20 37.24,45.13C36.20,41.00 38.54,37.49 41.72,34.90C48.90,36.07 56.39,35.44 63.28,34.07C82.51,30.23 105.92,17.95 99.49,-14.24C97.95,-21.97 95.82,-28.28 93.23,-33.63C99.21,-38.52 109.87,-37.39 109.87,-37.39L112.09,-65.43C97.13,-64.19 86.85,-59.09 83.58,-47.14C74.01,-55.88 60.89,-57.38 45.63,-54.34C19.51,-49.12 4.83,-33.37 12.22,3.62C14.68,15.95 19.73,23.85 26.34,28.62C20.65,34.97 19.73,43.41 21.36,50.48C23.90,62.14 34.60,73.26 51.32,69.92C65.53,67.09 77.48,61.66 89.40,59.28C97.34,57.69 104.44,60.62 105.61,66.47C107.07,73.79 99.92,82.60 77.14,87.15C56.45,91.28 37.48,87.68 27.99,78.28L26.40,97.50C34.50,110.88 58.03,117.70 80.81,113.15ZM59.69,16.09C39.00,20.22 28.18,11.74 26.14,1.50C24.01,-10.25 30.62,-19.61 51.72,-23.82C72.21,-27.91 83.28,-22.52 85.91,-10.44C87.79,-1.03 79.97,12.05 59.69,16.09ZM191.05,40.50C219.06,34.91 235.66,13.56 227.65,-26.57C218.76,-71.08 195.90,-84.34 167.27,-78.62C138.84,-72.95 122.62,-51.89 131.51,-7.37C139.52,32.75 163.26,46.05 191.05,40.50ZM185.75,13.96C166.32,17.84 148.55,13.78 143.84,-9.83C140.92,-24.46 150.87,-38.84 174.28,-43.51C197.89,-48.23 212.35,-38.94 215.32,-24.11C219.99,-0.70 205.19,10.08 185.75,13.96ZM319.07,65.58C353.55,58.70 365.01,35.55 361.42,17.57C357.92,0.02 346.38,-9.85 326.36,-5.64C311.56,-2.46 300.57,3.42 287.82,5.97C281.97,7.14 277.12,4.63 275.49,-2.43C274.45,-6.57 276.79,-10.08 279.97,-12.67C287.16,-11.50 294.64,-12.13 301.54,-13.50C320.77,-17.34 344.17,-29.62 337.75,-61.81C336.21,-69.54 334.08,-75.85 331.49,-81.20C337.46,-86.09 348.12,-84.96 348.12,-84.96L350.35,-113.00C335.38,-111.75 325.10,-106.66 321.84,-94.71C312.27,-103.44 299.14,-104.95 283.89,-101.91C257.76,-96.69 243.09,-80.94 250.47,-43.95C252.93,-31.62 257.99,-23.71 264.59,-18.95C258.90,-12.60 257.98,-4.15 259.61,2.91C262.16,14.57 272.85,25.69 289.57,22.36C303.78,19.52 315.74,14.09 327.65,11.71C335.59,10.12 342.70,13.05 343.87,18.90C345.33,26.22 338.18,35.04 315.40,39.58C294.71,43.71 275.73,40.11 266.25,30.71L264.65,49.93C272.76,63.31 296.29,70.13 319.07,65.58ZM297.95,-31.48C277.26,-27.34 266.44,-35.83 264.39,-46.07C262.26,-57.82 268.87,-67.18 289.98,-71.39C310.46,-75.48 321.53,-70.09 324.16,-58.01C326.04,-48.60 318.22,-35.52 297.95,-31.48ZM412.15,39.82C430.13,36.24 432.97,23.28 437.00,-2.30L451.66,-97.59L467.33,-100.72L460.49,-134.99L419.11,-126.73L425.95,-92.46L437.65,-94.79L429.70,-46.48C422.76,-57.26 412.36,-73.44 403.17,-87.91L413.83,-90.04L406.98,-124.31L352.23,-113.38L359.07,-79.10L379.13,-83.11C394.51,-60.53 414.23,-31.44 424.63,-15.26L423.12,-6.48C421.32,4.09 416.76,8.48 406.31,10.57C399.62,11.90 390.47,9.60 383.20,3.66L379.68,27.40C384.49,38.39 397.52,42.75 412.15,39.82Z" fill="#ffffff" stroke="#000000"/>
    <path d="M-320.33,-48.76L-309.28,-51.54L-328.00,-125.99L-382.20,-112.36L-378.45,-97.43L-336.52,-107.97C-332.55,-84.40 -348.23,-69.80 -375.85,-62.85C-407.14,-54.99 -428.79,-66.72 -435.27,-92.49C-441.55,-118.32 -431.91,-143.14 -398.17,-151.62C-377.92,-156.71 -361.96,-155.51 -350.18,-146.73L-338.11,-149.76L-351.23,-201.92L-363.29,-198.88L-357.84,-177.20C-369.62,-188.59 -388.66,-192.50 -407.27,-187.82C-442.86,-178.88 -463.53,-150.41 -449.19,-93.34C-436.48,-42.82 -405.92,-25.06 -369.11,-34.32C-348.24,-39.57 -333.37,-48.74 -326.54,-64.81ZM-241.27,-66.46C-213.87,-73.35 -198.50,-95.27 -208.37,-134.54C-219.33,-178.10 -242.57,-190.09 -270.59,-183.05C-298.40,-176.05 -313.41,-154.45 -302.46,-110.88C-292.58,-71.61 -268.48,-59.62 -241.27,-66.46ZM-247.80,-92.44C-266.83,-87.66 -284.58,-90.80 -290.39,-113.92C-293.99,-128.23 -284.85,-142.93 -261.95,-148.69C-238.83,-154.50 -224.09,-146.03 -220.44,-131.50C-214.68,-108.60 -228.78,-97.22 -247.80,-92.44ZM-78.36,-109.60C-70.18,-111.66 -65.18,-115.96 -62.68,-121.59L-69.05,-146.95C-72.27,-139.84 -76.92,-136.71 -83.26,-135.12C-88.17,-133.88 -93.08,-135.26 -95.90,-139.55L-104.02,-171.87C-113.54,-209.71 -129.05,-218.64 -156.87,-211.64C-172.21,-207.78 -183.91,-199.84 -189.37,-188.68L-181.91,-162.50C-178.04,-170.44 -169.20,-178.53 -151.81,-182.90C-132.59,-187.74 -121.58,-182.02 -115.73,-163.05C-125.81,-166.82 -140.59,-165.06 -150.20,-162.65C-174.54,-156.53 -187.66,-138.66 -182.26,-117.18C-177.27,-97.34 -159.87,-86.93 -130.82,-94.23C-117.53,-97.58 -106.03,-106.34 -100.98,-115.66C-95.09,-109.53 -87.16,-107.39 -78.36,-109.60ZM-137.05,-119.85C-156.07,-115.07 -165.54,-118.13 -167.80,-127.13C-170.17,-136.53 -162.91,-144.01 -142.87,-149.05C-131.41,-151.93 -121.44,-151.18 -111.46,-146.95L-108.84,-136.51C-113.84,-128.73 -124.37,-123.04 -137.05,-119.85ZM-12.20,-124.06C2.53,-127.77 9.37,-136.01 12.23,-143.69L0.90,-164.54C-1.96,-159.47 -7.53,-155.68 -15.71,-153.62C-27.58,-150.64 -33.88,-156.67 -36.96,-168.94L-66.58,-286.75L-100.54,-278.21L-91.54,-242.42L-71.49,-247.46L-46.96,-149.90C-41.20,-126.99 -30.19,-119.54 -12.20,-124.06ZM174.68,-222.37L179.05,-204.99L129.76,-192.59C146.66,-215.33 172.80,-248.86 163.70,-285.07C156.86,-312.27 135.56,-324.31 103.25,-316.19C87.09,-312.12 75.90,-303.00 69.52,-292.92L66.54,-304.78L54.67,-301.80L66.81,-253.53L78.67,-256.51C83.21,-266.13 92.36,-275.61 109.95,-280.03C132.45,-285.69 146.22,-277.63 148.53,-268.42C154.08,-246.33 125.70,-207.88 88.52,-164.61L91.60,-152.34L197.96,-179.08L197.91,-179.28L198.11,-179.33L186.54,-225.35ZM234.56,-272.22C231.83,-283.06 224.41,-285.76 213.78,-283.09C201.71,-280.05 196.71,-274.01 199.38,-263.38C201.85,-253.56 209.37,-250.45 221.24,-253.43C231.67,-256.05 237.03,-262.40 234.56,-272.22ZM249.99,-210.86C247.26,-221.70 239.84,-224.40 229.21,-221.73C217.14,-218.69 212.13,-212.65 214.81,-202.02C217.28,-192.20 224.80,-189.09 236.66,-192.07C247.10,-194.69 252.46,-201.04 249.99,-210.86ZM-420.78,185.26L-427.98,156.63L-450.68,162.34L-454.28,148.02L-424.01,140.41C-386.79,131.05 -371.67,109.85 -380.93,73.03C-391.37,31.51 -414.35,24.90 -450.55,34.00L-517.02,50.71L-508.02,86.51L-486.55,81.11L-465.20,165.99L-486.68,171.39L-479.48,200.02ZM-422.87,110.33L-461.33,120.00L-472.02,77.45L-433.57,67.79C-410.05,61.87 -396.13,66.20 -392.43,80.06C-389.04,92.69 -398.13,104.11 -422.87,110.33ZM-258.72,117.11L-270.65,110.33C-274.52,120.00 -282.03,126.46 -300.09,130.78C-318.95,135.30 -332.67,131.79 -339.85,114.46L-260.90,94.61C-273.60,44.09 -295.36,31.95 -323.18,38.94C-347.72,45.11 -365.08,66.88 -354.13,110.44C-345.80,143.58 -324.13,163.14 -293.45,155.42C-273.61,150.43 -261.56,134.36 -258.72,117.11ZM-316.38,70.29C-295.52,65.04 -280.06,72.03 -276.93,84.51L-343.19,101.17C-344.24,84.90 -331.72,74.14 -316.38,70.29ZM-153.04,117.94L-117.66,109.05L-125.07,79.59L-149.20,85.66L-182.94,-48.51L-220.78,-39.00L-211.78,-3.20L-187.23,-9.38L-178.80,24.17C-189.61,10.58 -204.90,9.42 -217.84,12.46C-243.26,18.63 -256.32,39.31 -245.26,83.29C-236.26,119.08 -215.12,135.73 -187.71,128.83C-172.78,125.08 -162.41,113.56 -158.90,100.71ZM-192.96,104.49C-214.44,109.89 -228.52,99.73 -233.15,80.46C-236.95,65.32 -229.15,50.53 -208.28,45.28C-184.56,39.32 -172.78,48.97 -168.77,64.05L-163.73,84.10C-168.21,95.66 -177.82,100.69 -192.96,104.49ZM-9.46,81.84C-1.28,79.78 3.73,75.48 6.23,69.85L-0.15,44.49C-3.36,51.60 -8.01,54.73 -14.36,56.32C-19.26,57.56 -24.18,56.18 -27.00,51.89L-35.12,19.57C-44.64,-18.26 -60.15,-27.19 -87.96,-20.20C-103.30,-16.34 -115.01,-8.40 -120.46,2.76L-113.01,28.94C-109.13,21.00 -100.30,12.91 -82.91,8.54C-63.68,3.71 -52.68,9.42 -46.82,28.39C-56.90,24.62 -71.68,26.38 -81.30,28.79C-105.64,34.91 -118.76,52.78 -113.36,74.26C-108.37,94.10 -90.97,104.51 -61.92,97.21C-48.63,93.86 -37.13,85.10 -32.08,75.79C-26.19,81.92 -18.26,84.05 -9.46,81.84ZM-68.15,71.59C-87.17,76.37 -96.63,73.32 -98.90,64.32C-101.26,54.91 -94.01,47.43 -73.96,42.39C-62.51,39.51 -52.54,40.26 -42.56,44.50L-39.93,54.93C-44.93,62.71 -55.46,68.40 -68.15,71.59ZM80.55,112.05C114.30,103.57 124.50,80.13 120.08,62.54C115.76,45.36 103.88,36.16 84.29,41.31C69.82,45.16 59.24,51.52 46.77,54.66C41.04,56.10 36.13,53.85 34.17,46.95C32.94,42.91 35.08,39.33 38.10,36.61C45.26,37.42 52.63,36.44 59.38,34.74C78.19,30.01 100.73,16.73 92.81,-14.77C90.91,-22.33 88.50,-28.47 85.68,-33.63C91.35,-38.75 101.94,-38.16 101.94,-38.16L102.77,-65.98C88.04,-64.02 78.12,-58.48 75.48,-46.51C65.60,-54.68 52.55,-55.53 37.62,-51.78C12.05,-45.35 -1.68,-29.06 7.42,7.14C10.45,19.21 15.83,26.77 22.59,31.16C17.28,37.71 16.78,46.10 18.73,53.01C21.82,64.41 32.93,74.88 49.30,70.76C63.20,67.27 74.76,61.32 86.41,58.39C94.19,56.43 101.35,58.98 102.79,64.71C104.59,71.87 97.95,80.93 75.66,86.53C55.41,91.63 36.48,88.99 26.65,80.16L26.01,99.24C34.67,112.06 58.26,117.66 80.55,112.05ZM54.95,17.15C34.70,22.24 23.59,14.38 21.07,4.36C18.40,-7.15 24.47,-16.72 45.13,-21.91C65.17,-26.95 76.38,-22.16 79.57,-10.35C81.88,-1.15 74.79,12.16 54.95,17.15ZM185.97,34.88C213.38,27.99 228.75,6.07 218.87,-33.20C207.92,-76.76 184.68,-88.75 156.66,-81.71C128.84,-74.71 113.83,-53.11 124.79,-9.54C134.66,29.73 158.77,41.72 185.97,34.88ZM179.44,8.90C160.42,13.68 142.67,10.54 136.86,-12.58C133.26,-26.89 142.39,-41.59 165.30,-47.35C188.41,-53.16 203.15,-44.69 206.81,-30.16C212.57,-7.26 198.46,4.12 179.44,8.90ZM313.72,53.42C347.47,44.94 357.67,21.50 353.25,3.91C348.93,-13.27 337.05,-22.46 317.46,-17.32C302.99,-13.47 292.41,-7.11 279.94,-3.97C274.21,-2.53 269.30,-4.78 267.34,-11.68C266.11,-15.72 268.25,-19.30 271.27,-22.02C278.43,-21.21 285.79,-22.19 292.54,-23.89C311.36,-28.62 333.90,-41.90 325.98,-73.39C324.08,-80.96 321.66,-87.10 318.84,-92.26C324.52,-97.38 335.10,-96.78 335.10,-96.78L335.94,-124.61C321.21,-122.65 311.29,-117.11 308.65,-105.14C298.77,-113.31 285.72,-114.16 270.79,-110.40C245.22,-103.98 231.49,-87.69 240.59,-51.49C243.62,-39.42 249.00,-31.86 255.76,-27.47C250.45,-20.91 249.95,-12.52 251.90,-5.62C254.99,5.78 266.10,16.25 282.46,12.14C296.37,8.64 307.92,2.69 319.58,-0.24C327.36,-2.19 334.52,0.35 335.96,6.08C337.76,13.24 331.12,22.30 308.83,27.91C288.58,33.00 269.65,30.36 259.82,21.53L259.18,40.61C267.84,53.44 291.43,59.03 313.72,53.42ZM288.12,-41.48C267.87,-36.38 256.76,-44.25 254.24,-54.27C251.57,-65.77 257.64,-75.35 278.30,-80.54C298.34,-85.58 309.55,-80.79 312.74,-68.98C315.05,-59.77 307.96,-46.46 288.12,-41.48ZM404.47,23.43C422.06,19.01 424.25,6.06 426.97,-19.41L436.82,-114.31L452.16,-118.17L443.73,-151.71L403.23,-141.53L411.66,-107.99L423.12,-110.87L417.61,-62.73C410.23,-73.05 399.16,-88.53 389.37,-102.38L399.80,-105.00L391.37,-138.55L337.78,-125.07L346.21,-91.53L365.85,-96.47C382.14,-74.90 403.05,-47.10 414.12,-31.62L413.06,-22.87C411.79,-12.33 407.50,-7.78 397.27,-5.20C390.73,-3.56 381.57,-5.39 374.10,-10.90L371.77,12.73C377.06,23.36 390.16,27.03 404.47,23.43Z" fill="#ffffff" stroke="#000000"/>
    <path d="M-323.52,-28.24L-312.74,-31.52L-334.87,-104.19L-387.77,-88.08L-383.33,-73.50L-342.41,-85.97C-337.34,-62.86 -352.12,-47.67 -379.07,-39.46C-409.62,-30.16 -431.59,-40.70 -439.25,-65.86C-446.71,-91.07 -438.40,-116.07 -405.46,-126.10C-385.69,-132.12 -369.86,-131.71 -357.80,-123.60L-346.02,-127.19L-361.52,-178.09L-373.30,-174.51L-366.85,-153.35C-379.05,-164.03 -398.05,-166.97 -416.22,-161.44C-450.95,-150.86 -470.00,-121.72 -453.04,-66.02C-438.03,-16.71 -406.96,-0.65 -371.02,-11.59C-350.66,-17.79 -336.41,-27.59 -330.44,-43.80ZM-246.26,-49.59C-219.51,-57.73 -205.39,-80.14 -217.06,-118.47C-230.01,-160.99 -253.56,-171.70 -280.91,-163.38C-308.06,-155.11 -321.84,-133.02 -308.89,-90.50C-297.22,-52.17 -272.81,-41.50 -246.26,-49.59ZM-253.98,-74.94C-272.54,-69.29 -290.24,-71.53 -297.11,-94.09C-301.37,-108.06 -293.05,-123.03 -270.69,-129.84C-248.14,-136.71 -233.15,-129.05 -228.84,-114.88C-222.03,-92.52 -235.41,-80.59 -253.98,-74.94ZM-87.36,-100.15C-79.38,-102.59 -74.64,-107.08 -72.44,-112.77L-79.98,-137.52C-82.81,-130.34 -87.25,-127.02 -93.44,-125.13C-98.23,-123.68 -103.15,-124.79 -106.15,-128.90L-115.75,-160.44C-127.00,-197.37 -142.76,-205.44 -169.91,-197.17C-184.89,-192.62 -196.06,-184.19 -200.91,-172.90L-192.27,-147.39C-188.83,-155.42 -180.49,-163.85 -163.52,-169.02C-144.75,-174.73 -133.60,-169.62 -126.89,-151.16C-137.04,-154.40 -151.56,-151.94 -160.94,-149.08C-184.69,-141.85 -196.79,-123.55 -190.41,-102.59C-184.51,-83.22 -166.80,-73.78 -138.46,-82.41C-125.48,-86.37 -114.55,-95.58 -110.01,-105.04C-103.89,-99.27 -95.94,-97.54 -87.36,-100.15ZM-145.86,-107.43C-164.42,-101.77 -173.93,-104.33 -176.60,-113.12C-179.40,-122.30 -172.59,-130.04 -153.03,-136.00C-141.85,-139.41 -131.96,-139.15 -121.89,-135.45L-118.79,-125.27C-123.35,-117.34 -133.48,-111.20 -145.86,-107.43ZM-22.67,-117.67C-8.30,-122.05 -1.94,-130.53 0.51,-138.26L-11.71,-158.31C-14.28,-153.17 -19.60,-149.15 -27.59,-146.71C-39.17,-143.19 -45.69,-148.84 -49.33,-160.82L-84.35,-275.80L-117.49,-265.71L-106.85,-230.78L-87.29,-236.73L-58.29,-141.51C-51.48,-119.15 -40.24,-112.32 -22.67,-117.67ZM157.22,-223.93L162.39,-206.97L114.28,-192.32C129.87,-215.61 154.07,-250.03 143.31,-285.36C135.23,-311.91 113.60,-322.77 82.06,-313.17C66.29,-308.37 55.67,-298.81 49.86,-288.53L46.33,-300.11L34.75,-296.58L49.10,-249.47L60.68,-253.00C64.70,-262.73 73.27,-272.54 90.44,-277.77C112.40,-284.45 126.40,-277.16 129.13,-268.17C135.70,-246.61 109.52,-207.23 74.88,-162.65L78.53,-150.67L182.34,-182.28L182.28,-182.48L182.48,-182.54L168.80,-227.46ZM213.97,-276.12C210.75,-286.70 203.28,-289.01 192.90,-285.85C181.13,-282.26 176.47,-276.04 179.63,-265.66C182.55,-256.08 190.14,-253.37 201.72,-256.90C211.90,-260.00 216.89,-266.54 213.97,-276.12ZM232.21,-216.23C228.99,-226.81 221.52,-229.12 211.14,-225.96C199.36,-222.37 194.71,-216.15 197.87,-205.77C200.79,-196.19 208.38,-193.48 219.96,-197.01C230.14,-200.11 235.13,-206.65 232.21,-216.23ZM-411.39,207.93L-419.90,179.99L-442.06,186.73L-446.32,172.76L-416.77,163.76C-380.44,152.70 -366.54,131.01 -377.48,95.08C-389.82,54.56 -412.85,49.13 -448.18,59.89L-513.06,79.65L-502.42,114.59L-481.46,108.20L-456.23,191.05L-477.19,197.43L-468.68,225.38ZM-417.11,133.98L-454.64,145.41L-467.29,103.89L-429.76,92.46C-406.80,85.47 -392.83,89.07 -388.50,102.58C-384.53,114.90 -392.96,126.63 -417.11,133.98ZM-254.56,132.69L-266.67,126.56C-270.03,136.31 -277.14,143.06 -294.77,148.21C-313.19,153.60 -326.92,150.80 -334.86,134.02L-257.81,110.56C-272.82,61.25 -294.91,50.31 -322.06,58.57C-346.02,65.87 -362.12,88.22 -349.17,130.74C-339.32,163.08 -316.96,181.36 -287.01,172.24C-267.65,166.34 -256.52,149.87 -254.56,132.69ZM-313.82,89.22C-293.46,83.02 -277.84,89.17 -274.13,101.35L-338.81,121.05C-340.64,105.02 -328.79,93.78 -313.82,89.22ZM-150.08,128.36L-115.54,117.84L-124.29,89.10L-147.85,96.27L-187.73,-34.69L-224.66,-23.44L-214.02,11.49L-190.07,4.20L-180.10,36.94C-191.44,24.03 -206.62,23.64 -219.25,27.27C-244.07,34.60 -255.97,55.68 -242.90,98.60C-232.27,133.54 -210.55,148.96 -183.80,140.81C-169.23,136.37 -159.55,124.48 -156.70,111.62ZM-190.18,117.01C-211.14,123.39 -225.55,114.04 -231.07,95.21C-235.56,80.44 -228.57,65.44 -208.21,59.24C-185.05,52.19 -172.94,61.15 -168.24,75.87L-162.29,95.43C-166.15,107.08 -175.41,112.51 -190.18,117.01ZM-9.94,85.68C-1.95,83.25 2.79,78.76 4.98,73.07L-2.56,48.32C-5.38,55.50 -9.83,58.82 -16.02,60.70C-20.81,62.16 -25.73,61.04 -28.72,56.94L-38.33,25.40C-49.58,-11.53 -65.34,-19.60 -92.49,-11.34C-107.46,-6.78 -118.64,1.64 -123.49,12.94L-114.85,38.45C-111.40,30.42 -103.06,21.99 -86.10,16.82C-67.33,11.11 -56.18,16.22 -49.46,34.68C-59.61,31.44 -74.13,33.90 -83.52,36.76C-107.27,43.99 -119.37,62.29 -112.99,83.25C-107.09,102.62 -89.38,112.06 -61.03,103.42C-48.06,99.47 -37.12,90.25 -32.58,80.80C-26.46,86.57 -18.52,88.30 -9.94,85.68ZM-68.43,78.41C-87.00,84.06 -96.50,81.50 -99.18,72.72C-101.97,63.54 -95.17,55.79 -75.61,49.84C-64.43,46.43 -54.53,46.69 -44.46,50.39L-41.36,60.57C-45.93,68.50 -56.05,74.64 -68.43,78.41ZM80.50,111.15C113.43,101.12 122.37,77.46 117.14,60.29C112.04,43.52 99.85,35.02 80.74,41.05C66.63,45.57 56.49,52.37 44.31,56.08C38.72,57.78 33.75,55.80 31.49,49.07C30.07,45.14 32.02,41.50 34.86,38.67C41.98,39.12 49.21,37.79 55.80,35.78C74.16,30.19 95.79,15.97 86.43,-14.78C84.18,-22.16 81.50,-28.11 78.46,-33.07C83.81,-38.41 94.31,-38.33 94.31,-38.33L93.77,-65.88C79.31,-63.22 69.78,-57.26 67.75,-45.30C57.59,-52.89 44.66,-53.10 30.08,-48.66C5.13,-41.06 -7.65,-24.30 3.11,11.03C6.69,22.81 12.38,30.02 19.27,34.03C14.34,40.77 14.26,49.09 16.52,55.81C20.13,66.93 31.62,76.74 47.59,71.87C61.17,67.74 72.29,61.30 83.67,57.83C91.26,55.52 98.46,57.69 100.17,63.28C102.29,70.27 96.18,79.55 74.42,86.17C54.65,92.19 35.82,90.51 25.67,82.26L25.97,101.15C35.15,113.40 58.74,117.78 80.50,111.15ZM50.57,18.61C30.81,24.63 19.44,17.40 16.46,7.62C13.26,-3.62 18.80,-13.38 38.96,-19.52C58.52,-25.47 69.83,-21.28 73.56,-9.77C76.29,-0.78 69.93,12.72 50.57,18.61ZM180.92,29.75C207.67,21.60 221.79,-0.80 210.12,-39.13C197.17,-81.65 173.62,-92.37 146.27,-84.04C119.12,-75.77 105.34,-53.69 118.29,-11.17C129.96,27.16 154.37,37.83 180.92,29.75ZM173.20,4.39C154.63,10.05 136.93,7.80 130.06,-14.76C125.81,-28.73 134.12,-43.70 156.48,-50.50C179.04,-57.37 194.02,-49.72 198.34,-35.55C205.15,-13.19 191.76,-1.26 173.20,4.39ZM308.07,41.85C341.01,31.82 349.95,8.16 344.72,-9.01C339.61,-25.78 327.43,-34.28 308.32,-28.25C294.21,-23.73 284.06,-16.93 271.89,-13.23C266.30,-11.52 261.33,-13.50 259.06,-20.23C257.65,-24.16 259.59,-27.81 262.44,-30.64C269.56,-30.19 276.79,-31.51 283.37,-33.52C301.74,-39.11 323.37,-53.33 314.01,-84.08C311.76,-91.46 309.07,-97.41 306.04,-102.37C311.39,-107.71 321.88,-107.64 321.88,-107.64L321.35,-135.18C306.89,-132.52 297.36,-126.56 295.33,-114.60C285.17,-122.20 272.23,-122.40 257.66,-117.96C232.71,-110.36 219.92,-93.60 230.68,-58.27C234.27,-46.49 239.96,-39.28 246.85,-35.27C241.92,-28.53 241.83,-20.22 244.10,-13.49C247.71,-2.37 259.20,7.44 275.17,2.57C288.74,-1.56 299.87,-8.00 311.25,-11.47C318.84,-13.78 326.04,-11.61 327.74,-6.02C329.87,0.97 323.75,10.25 301.99,16.87C282.23,22.89 263.39,21.21 253.25,12.96L253.54,31.84C262.73,44.10 286.31,48.48 308.07,41.85ZM278.15,-50.69C258.38,-44.67 247.02,-51.90 244.04,-61.68C240.84,-72.92 246.37,-82.68 266.54,-88.82C286.10,-94.78 297.41,-90.58 301.14,-79.07C303.87,-70.08 297.51,-56.59 278.15,-50.69ZM396.30,7.79C413.47,2.56 414.99,-10.34 416.45,-35.65L421.55,-129.92L436.53,-134.48L426.56,-167.21L387.03,-155.18L397.00,-122.44L408.18,-125.84L405.08,-78.00C397.28,-87.84 385.59,-102.60 375.24,-115.81L385.42,-118.91L375.45,-151.65L323.15,-135.72L333.12,-102.99L352.28,-108.82C369.44,-88.30 391.45,-61.85 403.15,-47.09L402.52,-38.39C401.79,-27.91 397.77,-23.20 387.79,-20.16C381.40,-18.22 372.26,-19.58 364.60,-24.66L363.46,-1.19C369.20,9.06 382.32,12.04 396.30,7.79Z" fill="#ffffff" stroke="#000000"/>
    <path d="M-325.38,-7.63L-314.88,-11.40L-340.29,-82.13L-391.78,-63.63L-386.68,-49.45L-346.85,-63.75C-340.71,-41.17 -354.59,-25.44 -380.82,-16.01C-410.55,-5.33 -432.77,-14.68 -441.57,-39.16C-450.17,-63.72 -443.17,-88.82 -411.11,-100.34C-391.87,-107.25 -376.21,-107.61 -363.89,-100.19L-352.43,-104.31L-370.23,-153.86L-381.69,-149.74L-374.29,-129.14C-386.86,-139.11 -405.78,-141.08 -423.46,-134.73C-457.27,-122.59 -474.68,-92.86 -455.20,-38.65C-437.96,9.34 -406.48,23.70 -371.50,11.13C-351.69,4.01 -338.08,-6.36 -332.97,-22.67ZM-250.06,-32.49C-224.03,-41.84 -211.17,-64.67 -224.57,-101.98C-239.44,-143.36 -263.23,-152.80 -289.85,-143.24C-316.27,-133.75 -328.82,-111.26 -313.95,-69.87C-300.55,-32.56 -275.91,-23.21 -250.06,-32.49ZM-258.93,-57.17C-277.00,-50.67 -294.60,-52.03 -302.49,-73.99C-307.37,-87.59 -299.89,-102.78 -278.12,-110.60C-256.17,-118.49 -240.99,-111.65 -236.03,-97.86C-228.22,-76.10 -240.86,-63.66 -258.93,-57.17ZM-95.51,-90.20C-87.74,-92.99 -83.28,-97.67 -81.39,-103.39L-90.04,-127.49C-92.49,-120.25 -96.72,-116.75 -102.74,-114.59C-107.40,-112.91 -112.32,-113.78 -115.48,-117.69L-126.51,-148.39C-139.42,-184.34 -155.39,-191.54 -181.82,-182.05C-196.39,-176.82 -207.03,-167.95 -211.27,-156.55L-201.49,-131.77C-198.47,-139.87 -190.64,-148.61 -174.13,-154.54C-155.86,-161.10 -144.59,-156.59 -137.06,-138.68C-147.24,-141.38 -161.47,-138.24 -170.61,-134.96C-193.73,-126.66 -204.79,-107.98 -197.46,-87.58C-190.69,-68.74 -172.73,-60.27 -145.14,-70.18C-132.51,-74.72 -122.15,-84.36 -118.13,-93.92C-111.80,-88.52 -103.87,-87.20 -95.51,-90.20ZM-153.67,-94.54C-171.74,-88.05 -181.26,-90.11 -184.33,-98.66C-187.54,-107.60 -181.19,-115.58 -162.15,-122.42C-151.27,-126.33 -141.48,-126.56 -131.35,-123.40L-127.79,-113.49C-131.91,-105.42 -141.62,-98.87 -153.67,-94.54ZM-32.44,-110.66C-18.45,-115.69 -12.58,-124.38 -10.54,-132.13L-23.59,-151.36C-25.89,-146.14 -30.95,-141.91 -38.72,-139.12C-49.99,-135.07 -56.71,-140.34 -60.89,-152.00L-101.10,-263.92L-133.35,-252.33L-121.14,-218.33L-102.10,-225.17L-68.80,-132.48C-60.98,-110.72 -49.54,-104.52 -32.44,-110.66ZM140.14,-224.43L146.07,-207.92L99.25,-191.09C113.52,-214.87 135.76,-250.06 123.41,-284.45C114.12,-310.29 92.22,-319.98 61.52,-308.95C46.17,-303.43 36.15,-293.47 30.90,-283.03L26.85,-294.30L15.58,-290.25L32.06,-244.40L43.33,-248.45C46.82,-258.26 54.82,-268.37 71.53,-274.37C92.90,-282.05 107.09,-275.52 110.23,-266.78C117.77,-245.79 93.82,-205.60 61.76,-159.86L65.95,-148.20L166.99,-184.50L166.92,-184.69L167.12,-184.76L151.41,-228.48ZM193.68,-278.76C189.98,-289.06 182.49,-290.98 172.38,-287.35C160.92,-283.23 156.63,-276.86 160.26,-266.76C163.61,-257.43 171.24,-255.13 182.50,-259.17C192.41,-262.73 197.03,-269.44 193.68,-278.76ZM214.62,-220.47C210.92,-230.77 203.43,-232.69 193.32,-229.06C181.86,-224.94 177.57,-218.57 181.20,-208.47C184.55,-199.14 192.17,-196.83 203.44,-200.88C213.35,-204.44 217.97,-211.14 214.62,-220.47ZM-400.70,230.03L-410.47,202.83L-432.04,210.57L-436.92,196.97L-408.17,186.64C-372.80,173.94 -360.12,151.83 -372.69,116.86C-386.85,77.42 -409.87,73.18 -444.27,85.53L-507.41,108.22L-495.20,142.22L-474.80,134.89L-445.83,215.53L-466.23,222.86L-456.46,250.06ZM-409.96,157.23L-446.48,170.35L-461.00,129.94L-424.47,116.82C-402.13,108.79 -388.15,111.67 -383.21,124.81C-378.69,136.79 -386.45,148.79 -409.96,157.23ZM-249.39,148.03L-261.66,142.57C-264.50,152.37 -271.20,159.38 -288.37,165.33C-306.31,171.55 -320.01,169.45 -328.68,153.26L-253.68,126.32C-270.92,78.33 -293.28,68.59 -319.70,78.08C-343.02,86.46 -357.84,109.33 -342.97,150.72C-331.66,182.20 -308.68,199.17 -279.53,188.70C-260.68,181.93 -250.49,165.10 -249.39,148.03ZM-310.07,107.97C-290.25,100.85 -274.52,106.17 -270.26,118.02L-333.21,140.63C-335.80,124.89 -324.64,113.20 -310.07,107.97ZM-146.35,138.66L-112.74,126.59L-122.79,98.61L-145.72,106.84L-191.51,-20.62L-227.45,-7.71L-215.24,26.30L-191.92,17.92L-180.47,49.79C-192.31,37.59 -207.33,37.93 -219.64,42.14C-243.80,50.60 -254.54,72.01 -239.53,113.78C-227.32,147.78 -205.11,161.96 -179.08,152.61C-164.89,147.52 -155.90,135.29 -153.72,122.44ZM-186.53,129.40C-206.94,136.73 -221.63,128.19 -228.00,109.86C-233.16,95.48 -226.98,80.32 -207.16,73.20C-184.63,65.10 -172.22,73.37 -166.86,87.68L-160.02,106.72C-163.28,118.42 -172.16,124.24 -186.53,129.40ZM-9.95,89.67C-2.18,86.87 2.28,82.20 4.18,76.47L-4.48,52.38C-6.92,59.62 -11.15,63.11 -17.18,65.28C-21.84,66.95 -26.76,66.09 -29.92,62.18L-40.95,31.48C-53.86,-4.47 -69.83,-11.68 -96.25,-2.18C-110.83,3.05 -121.46,11.92 -125.71,23.31L-115.92,48.10C-112.91,40.00 -105.08,31.26 -88.57,25.33C-70.30,18.77 -59.03,23.27 -51.50,41.19C-61.68,38.49 -75.91,41.62 -85.04,44.90C-108.17,53.21 -119.23,71.88 -111.90,92.28C-105.13,111.13 -87.17,119.60 -59.58,109.69C-46.95,105.15 -36.59,95.51 -32.57,85.94C-26.24,91.35 -18.31,92.67 -9.95,89.67ZM-68.11,85.33C-86.18,91.82 -95.70,89.75 -98.77,81.20C-101.98,72.27 -95.63,64.28 -76.59,57.44C-65.71,53.53 -55.92,53.31 -45.79,56.47L-42.23,66.38C-46.35,74.44 -56.06,81.00 -68.11,85.33ZM80.65,110.43C112.71,98.91 120.39,75.09 114.39,58.38C108.52,42.06 96.06,34.25 77.48,41.15C63.76,46.30 54.06,53.51 42.21,57.77C36.77,59.72 31.76,58.01 29.20,51.47C27.61,47.65 29.35,43.96 32.03,41.02C39.08,41.12 46.16,39.45 52.57,37.15C70.45,30.73 91.13,15.62 80.38,-14.30C77.80,-21.49 74.86,-27.23 71.61,-31.99C76.64,-37.53 87.02,-37.96 87.02,-37.96L85.15,-65.15C70.99,-61.82 61.86,-55.47 60.44,-43.55C50.02,-50.56 37.23,-50.13 23.05,-45.04C-1.24,-36.31 -13.06,-19.13 -0.70,15.26C3.42,26.73 9.39,33.58 16.39,37.20C11.85,44.10 12.17,52.32 14.74,58.86C18.84,69.67 30.68,78.80 46.22,73.22C59.43,68.47 70.12,61.56 81.19,57.58C88.57,54.93 95.80,56.72 97.75,62.16C100.20,68.96 94.60,78.43 73.42,86.04C54.19,92.95 35.49,92.21 25.06,84.55L26.28,103.20C35.95,114.86 59.47,118.04 80.65,110.43ZM46.57,20.44C27.33,27.35 15.75,20.76 12.33,11.24C8.62,0.29 13.61,-9.62 33.24,-16.67C52.28,-23.51 63.66,-19.92 67.90,-8.72C71.04,0.02 65.42,13.67 46.57,20.44ZM175.92,25.09C201.95,15.74 214.81,-7.09 201.41,-44.40C186.55,-85.78 162.75,-95.22 136.13,-85.66C109.71,-76.17 97.17,-53.68 112.03,-12.29C125.43,25.02 150.07,34.37 175.92,25.09ZM167.05,0.41C148.98,6.91 131.38,5.55 123.50,-16.41C118.61,-30.01 126.10,-45.20 147.86,-53.02C169.82,-60.91 184.99,-54.07 189.95,-40.28C197.77,-18.52 185.12,-6.08 167.05,0.41ZM302.16,30.86C334.22,19.34 341.89,-4.48 335.89,-21.19C330.03,-37.51 317.57,-45.32 298.99,-38.42C285.26,-33.27 275.57,-26.06 263.71,-21.80C258.27,-19.85 253.27,-21.56 250.70,-28.10C249.11,-31.91 250.86,-35.61 253.53,-38.55C260.59,-38.45 267.67,-40.12 274.08,-42.42C291.95,-48.84 312.63,-63.95 301.89,-93.87C299.30,-101.06 296.36,-106.80 293.12,-111.56C298.15,-117.10 308.52,-117.53 308.52,-117.53L306.65,-144.72C292.49,-141.39 283.37,-135.04 281.94,-123.12C271.53,-130.13 258.74,-129.70 244.55,-124.61C220.27,-115.88 208.45,-98.70 220.81,-64.31C224.92,-52.84 230.89,-45.99 237.90,-42.37C233.36,-35.47 233.68,-27.25 236.25,-20.71C240.35,-9.90 252.18,-0.77 267.73,-6.35C280.94,-11.10 291.62,-18.01 302.70,-21.99C310.08,-24.64 317.31,-22.85 319.26,-17.41C321.70,-10.61 316.11,-1.14 294.93,6.47C275.70,13.38 257.00,12.64 246.57,4.98L247.79,23.63C257.46,35.29 280.98,38.47 302.16,30.86ZM268.08,-59.13C248.84,-52.22 237.26,-58.81 233.84,-68.33C230.12,-79.28 235.12,-89.19 254.74,-96.24C273.79,-103.08 285.17,-99.49 289.41,-88.29C292.55,-79.55 286.92,-65.90 268.08,-59.13ZM387.68,-7.10C404.39,-13.10 405.27,-25.92 405.47,-51.01L405.92,-144.40L420.50,-149.64L409.05,-181.51L370.58,-167.69L382.03,-135.82L392.91,-139.73L392.17,-92.30C383.99,-101.64 371.72,-115.66 360.85,-128.21L370.76,-131.77L359.31,-163.64L308.40,-145.35L319.85,-113.48L338.50,-120.18C356.45,-100.75 379.50,-75.68 391.77,-61.66L391.58,-53.04C391.36,-42.65 387.62,-37.79 377.91,-34.30C371.69,-32.07 362.59,-32.97 354.78,-37.62L354.79,-14.37C360.96,-4.53 374.08,-2.22 387.68,-7.10Z" fill="#ffffff" stroke="#000000"/>
    <path d="M-325.89,12.98L-315.71,8.75L-344.26,-59.90L-394.23,-39.11L-388.51,-25.35L-349.85,-41.43C-342.68,-19.41 -355.62,-3.19 -381.08,7.40C-409.94,19.40 -432.35,11.24 -442.23,-12.52C-451.93,-36.36 -446.24,-61.51 -415.12,-74.45C-396.45,-82.21 -380.99,-83.33 -368.46,-76.60L-357.33,-81.23L-377.33,-129.31L-388.46,-124.69L-380.15,-104.70C-393.05,-113.93 -411.84,-114.96 -429.00,-107.82C-461.82,-94.18 -477.56,-63.96 -455.68,-11.35C-436.31,35.23 -404.50,47.89 -370.56,33.77C-351.32,25.77 -338.39,14.86 -334.13,-1.51ZM-252.70,-15.25C-227.43,-25.76 -215.83,-48.94 -230.89,-85.15C-247.60,-125.32 -271.56,-133.49 -297.40,-122.74C-323.05,-112.08 -334.34,-89.24 -317.64,-49.07C-302.58,-12.86 -277.78,-4.82 -252.70,-15.25ZM-262.66,-39.20C-280.19,-31.91 -297.65,-32.39 -306.51,-53.70C-312.00,-66.90 -305.35,-82.28 -284.22,-91.06C-262.91,-99.92 -247.58,-93.91 -242.02,-80.52C-233.23,-59.40 -245.12,-46.49 -262.66,-39.20ZM-102.80,-79.80C-95.26,-82.94 -91.08,-87.77 -89.49,-93.52L-99.21,-116.91C-101.28,-109.63 -105.28,-105.98 -111.13,-103.55C-115.66,-101.66 -120.56,-102.28 -123.87,-105.99L-136.26,-135.79C-150.77,-170.67 -166.90,-177.01 -192.55,-166.35C-206.69,-160.47 -216.77,-151.19 -220.41,-139.72L-209.53,-115.71C-206.95,-123.86 -199.64,-132.87 -183.61,-139.54C-165.89,-146.91 -154.53,-143.01 -146.21,-125.67C-156.41,-127.85 -170.31,-124.06 -179.18,-120.37C-201.62,-111.04 -211.64,-92.05 -203.40,-72.25C-195.80,-53.96 -177.64,-46.47 -150.86,-57.60C-138.60,-62.70 -128.84,-72.73 -125.33,-82.38C-118.81,-77.35 -110.91,-76.43 -102.80,-79.80ZM-160.48,-81.25C-178.01,-73.96 -187.52,-75.54 -190.97,-83.83C-194.58,-92.51 -188.70,-100.71 -170.22,-108.39C-159.65,-112.78 -149.99,-113.48 -139.83,-110.85L-135.83,-101.24C-139.51,-93.07 -148.78,-86.12 -160.48,-81.25ZM-41.48,-103.09C-27.91,-108.74 -22.53,-117.61 -20.89,-125.37L-34.72,-143.73C-36.73,-138.47 -41.53,-134.04 -49.07,-130.90C-60.01,-126.36 -66.90,-131.23 -71.61,-142.55L-116.78,-251.17L-148.09,-238.15L-134.36,-205.15L-115.88,-212.83L-78.47,-122.88C-69.69,-101.76 -58.08,-96.19 -41.48,-103.09ZM123.50,-223.91L130.16,-207.88L84.71,-188.98C97.66,-213.16 117.92,-249.02 104.04,-282.40C93.61,-307.48 71.49,-315.98 41.69,-303.58C26.80,-297.39 17.38,-287.06 12.71,-276.49L8.16,-287.42L-2.78,-282.88L15.73,-238.37L26.67,-242.92C29.64,-252.78 37.05,-263.16 53.27,-269.91C74.01,-278.54 88.35,-272.78 91.88,-264.29C100.35,-243.92 78.64,-203.04 49.20,-156.29L53.91,-144.98L151.97,-185.76L151.89,-185.95L152.08,-186.03L134.43,-228.46ZM173.74,-280.20C169.59,-290.19 162.09,-291.72 152.29,-287.64C141.16,-283.02 137.23,-276.51 141.31,-266.71C145.07,-257.66 152.72,-255.75 163.66,-260.30C173.28,-264.30 177.51,-271.15 173.74,-280.20ZM197.27,-223.62C193.12,-233.62 185.62,-235.15 175.82,-231.07C164.69,-226.44 160.76,-219.94 164.84,-210.13C168.60,-201.08 176.25,-199.18 187.19,-203.72C196.81,-207.72 201.04,-214.57 197.27,-223.62ZM-388.74,251.47L-399.72,225.07L-420.65,233.77L-426.14,220.57L-398.23,208.96C-363.91,194.69 -352.46,172.23 -366.57,138.29C-382.50,100.00 -405.45,96.94 -438.83,110.82L-500.11,136.31L-486.39,169.31L-466.59,161.08L-434.04,239.34L-453.84,247.58L-442.86,273.98ZM-401.43,179.99L-436.89,194.74L-453.20,155.51L-417.75,140.77C-396.06,131.75 -382.11,133.91 -376.59,146.65C-371.54,158.27 -378.61,170.50 -401.43,179.99ZM-243.23,163.08L-255.62,158.28C-257.95,168.10 -264.23,175.35 -280.90,182.07C-298.33,189.09 -311.97,187.69 -321.32,172.11L-248.53,141.84C-267.90,95.26 -290.47,86.73 -316.12,97.39C-338.75,106.80 -352.27,130.13 -335.57,170.29C-322.86,200.84 -299.32,216.49 -271.03,204.73C-252.74,197.12 -243.49,180.00 -243.23,163.08ZM-305.14,126.45C-285.90,118.45 -270.10,122.94 -265.32,134.44L-326.42,159.85C-329.74,144.42 -319.28,132.33 -305.14,126.45ZM-141.89,148.80L-109.26,135.24L-120.56,108.08L-142.81,117.33L-194.26,-6.37L-229.14,8.13L-215.42,41.14L-192.79,31.73L-179.93,62.65C-192.22,51.18 -207.04,52.25 -219.00,57.00C-242.46,66.54 -252.03,88.21 -235.16,128.76C-221.44,161.76 -198.81,174.69 -173.54,164.18C-159.77,158.45 -151.48,145.94 -149.95,133.14ZM-182.04,141.61C-201.84,149.85 -216.77,142.12 -223.96,124.32C-229.76,110.36 -224.39,95.08 -205.16,87.08C-183.28,77.98 -170.63,85.55 -164.63,99.43L-156.95,117.91C-159.60,129.63 -168.08,135.81 -182.04,141.61ZM-9.50,93.75C-1.96,90.61 2.22,85.77 3.81,80.02L-5.91,56.64C-7.97,63.91 -11.98,67.57 -17.83,70.00C-22.35,71.88 -27.26,71.27 -30.57,67.56L-42.96,37.76C-57.47,2.88 -73.60,-3.47 -99.25,7.20C-113.39,13.08 -123.47,22.36 -127.10,33.83L-116.23,57.84C-113.65,49.69 -106.34,40.67 -90.31,34.01C-72.58,26.64 -61.23,30.54 -52.91,47.87C-63.11,45.70 -77.01,49.49 -85.88,53.18C-108.32,62.51 -118.34,81.50 -110.10,101.30C-102.50,119.59 -84.34,127.08 -57.56,115.95C-45.30,110.85 -35.54,100.82 -32.03,91.17C-25.51,96.20 -17.61,97.12 -9.50,93.75ZM-67.18,92.29C-84.71,99.59 -94.22,98.01 -97.67,89.71C-101.28,81.04 -95.39,72.84 -76.91,65.16C-66.35,60.76 -56.69,60.06 -46.53,62.69L-42.53,72.31C-46.21,80.48 -55.48,87.43 -67.18,92.29ZM81.03,109.85C112.14,96.91 118.57,73.00 111.83,56.78C105.24,40.94 92.55,33.83 74.52,41.55C61.21,47.31 51.98,54.90 40.48,59.69C35.20,61.88 30.17,60.43 27.32,54.10C25.56,50.41 27.10,46.67 29.60,43.64C36.58,43.39 43.49,41.40 49.72,38.81C67.07,31.60 86.76,15.66 74.68,-13.38C71.78,-20.35 68.60,-25.89 65.16,-30.43C69.86,-36.14 80.09,-37.08 80.09,-37.08L76.92,-63.85C63.09,-59.87 54.38,-53.15 53.56,-41.31C42.92,-47.73 30.31,-46.68 16.54,-40.96C-7.03,-31.15 -17.87,-13.59 -3.99,19.78C0.64,30.91 6.87,37.39 13.97,40.63C9.82,47.66 10.54,55.77 13.39,62.10C17.97,72.59 30.11,81.03 45.20,74.76C58.02,69.42 68.24,62.08 78.99,57.61C86.16,54.63 93.38,56.05 95.58,61.33C98.32,67.93 93.26,77.55 72.70,86.10C54.03,93.87 35.52,94.04 24.85,86.98L26.96,105.35C37.08,116.40 60.47,118.40 81.03,109.85ZM42.97,22.60C24.30,30.36 12.54,24.41 8.70,15.17C4.49,4.53 8.95,-5.50 27.99,-13.42C46.47,-21.11 57.89,-18.12 62.63,-7.26C66.16,1.23 61.26,14.99 42.97,22.60ZM171.00,20.89C196.27,10.38 207.86,-12.80 192.81,-49.01C176.10,-89.18 152.13,-97.35 126.30,-86.60C100.65,-75.94 89.35,-53.10 106.06,-12.93C121.12,23.28 145.92,31.32 171.00,20.89ZM161.04,-3.06C143.50,4.23 126.05,3.75 117.18,-17.56C111.69,-30.76 118.35,-46.14 139.47,-54.92C160.78,-63.78 176.11,-57.77 181.68,-44.38C190.46,-23.26 178.58,-10.35 161.04,-3.06ZM296.01,20.44C327.13,7.50 333.55,-16.41 326.81,-32.63C320.22,-48.47 307.53,-55.58 289.50,-47.86C276.19,-42.10 266.97,-34.51 255.46,-29.72C250.18,-27.53 245.16,-28.97 242.30,-35.31C240.54,-39.00 242.09,-42.74 244.59,-45.77C251.56,-46.02 258.48,-48.01 264.70,-50.60C282.05,-57.81 301.74,-73.74 289.67,-102.79C286.76,-109.76 283.58,-115.30 280.14,-119.84C284.84,-125.55 295.07,-126.49 295.07,-126.49L291.90,-153.26C278.07,-149.28 269.36,-142.56 268.54,-130.72C257.91,-137.13 245.29,-136.09 231.52,-130.37C207.95,-120.56 197.11,-103.00 211.00,-69.63C215.62,-58.50 221.86,-52.02 228.96,-48.78C224.80,-41.75 225.52,-33.64 228.38,-27.30C232.96,-16.82 245.10,-8.38 260.18,-14.65C273.01,-19.99 283.22,-27.33 293.97,-31.80C301.14,-34.78 308.36,-33.36 310.56,-28.08C313.30,-21.48 308.24,-11.86 287.68,-3.31C269.01,4.46 250.51,4.63 239.83,-2.43L241.94,15.94C252.06,26.99 275.46,28.99 296.01,20.44ZM257.95,-66.81C239.28,-59.05 227.52,-65.00 223.68,-74.24C219.47,-84.87 223.93,-94.91 242.97,-102.83C261.46,-110.52 272.88,-107.53 277.61,-96.67C281.14,-88.18 276.25,-74.42 257.95,-66.81ZM378.66,-21.24C394.88,-27.98 395.12,-40.69 394.10,-65.48L390.00,-157.79L404.14,-163.67L391.28,-194.60L353.94,-179.07L366.81,-148.14L377.37,-152.53L378.95,-105.63C370.41,-114.47 357.60,-127.72 346.25,-139.59L355.87,-143.59L343.01,-174.52L293.60,-153.97L306.46,-123.04L324.56,-130.57C343.25,-112.24 367.24,-88.59 380.05,-75.34L380.28,-66.81C380.57,-56.54 377.11,-51.56 367.68,-47.64C361.65,-45.13 352.61,-45.57 344.67,-49.79L345.81,-26.82C352.39,-17.39 365.46,-15.75 378.66,-21.24Z" fill="#ffffff" stroke="#000000"/>
    <path d="M-325.09,33.51L-315.24,28.83L-346.78,-37.60L-395.14,-14.63L-388.81,-1.31L-351.41,-19.08C-343.25,2.32 -355.25,18.98 -379.88,30.68C-407.80,43.94 -430.34,36.98 -441.26,13.98C-452.00,-9.09 -447.61,-34.22 -417.50,-48.52C-399.43,-57.10 -384.21,-58.96 -371.50,-52.92L-360.74,-58.03L-382.84,-104.56L-393.60,-99.45L-384.42,-80.11C-397.62,-88.60 -416.23,-88.70 -432.84,-80.82C-464.59,-65.74 -478.68,-35.12 -454.49,15.80C-433.09,60.87 -401.05,71.82 -368.20,56.22C-349.59,47.38 -337.34,35.97 -333.94,19.59ZM-254.15,2.05C-229.70,-9.56 -219.37,-33.03 -236.01,-68.07C-254.47,-106.94 -278.55,-113.84 -303.55,-101.97C-328.37,-90.18 -338.41,-67.07 -319.95,-28.20C-303.31,6.84 -278.42,13.58 -254.15,2.05ZM-265.16,-21.12C-282.13,-13.06 -299.39,-12.69 -309.19,-33.31C-315.25,-46.09 -309.43,-61.60 -288.99,-71.31C-268.37,-81.10 -252.93,-75.91 -246.78,-62.95C-237.07,-42.51 -248.19,-29.18 -265.16,-21.12ZM-109.21,-69.02C-101.91,-72.49 -98.02,-77.47 -96.72,-83.23L-107.47,-105.86C-109.15,-98.57 -112.94,-94.76 -118.59,-92.07C-122.97,-89.99 -127.85,-90.36 -131.30,-93.87L-144.99,-122.70C-161.03,-156.46 -177.27,-161.94 -202.09,-150.15C-215.78,-143.65 -225.28,-134.00 -228.31,-122.49L-216.40,-99.30C-214.25,-107.48 -207.46,-116.74 -191.95,-124.10C-174.80,-132.25 -163.39,-128.95 -154.33,-112.23C-164.51,-113.88 -178.06,-109.45 -186.64,-105.38C-208.36,-95.07 -217.33,-75.82 -208.23,-56.66C-199.82,-38.96 -181.52,-32.44 -155.61,-44.75C-143.75,-50.38 -134.59,-60.77 -131.59,-70.47C-124.91,-65.82 -117.06,-65.30 -109.21,-69.02ZM-166.26,-67.65C-183.23,-59.59 -192.70,-60.68 -196.51,-68.71C-200.50,-77.11 -195.09,-85.49 -177.20,-93.98C-166.98,-98.84 -157.47,-100.00 -147.30,-97.90L-142.88,-88.59C-146.12,-80.34 -154.94,-73.02 -166.26,-67.65ZM-49.77,-95.02C-36.63,-101.26 -31.75,-110.29 -30.50,-118.03L-45.06,-135.50C-46.79,-130.20 -51.32,-125.59 -58.62,-122.13C-69.20,-117.10 -76.25,-121.58 -81.45,-132.53L-131.37,-237.64L-161.66,-223.25L-146.49,-191.32L-128.61,-199.81L-87.27,-112.77C-77.56,-92.33 -65.83,-87.39 -49.77,-95.02ZM107.34,-222.41L114.70,-206.90L70.73,-186.01C82.34,-210.54 100.60,-246.95 85.26,-279.25C73.74,-303.52 51.48,-310.84 22.64,-297.14C8.23,-290.30 -0.57,-279.63 -4.68,-268.96L-9.70,-279.54L-20.29,-274.52L0.17,-231.45L10.75,-236.48C13.21,-246.37 20.02,-256.98 35.72,-264.44C55.79,-273.97 70.24,-268.98 74.14,-260.77C83.50,-241.06 64.04,-199.61 37.23,-151.99L42.43,-141.04L137.33,-186.11L137.24,-186.29L137.42,-186.38L117.92,-227.44ZM154.24,-280.47C149.64,-290.14 142.17,-291.29 132.68,-286.78C121.91,-281.67 118.34,-275.05 122.85,-265.56C127.01,-256.80 134.66,-255.29 145.24,-260.32C154.55,-264.74 158.40,-271.71 154.24,-280.47ZM180.24,-225.73C175.64,-235.40 168.17,-236.54 158.68,-232.04C147.91,-226.92 144.34,-220.31 148.85,-210.82C153.01,-202.06 160.66,-200.55 171.25,-205.58C180.55,-210.00 184.40,-216.97 180.24,-225.73ZM-375.56,272.18L-387.69,246.63L-407.95,256.25L-414.01,243.48L-387.01,230.65C-353.79,214.87 -343.57,192.13 -359.17,159.28C-376.77,122.24 -399.59,120.33 -431.89,135.67L-491.20,163.84L-476.03,195.77L-456.87,186.67L-420.90,262.40L-440.06,271.50L-427.93,297.05ZM-391.58,202.18L-425.89,218.48L-443.92,180.52L-409.61,164.22C-388.62,154.26 -374.74,155.71 -368.66,168.04C-363.10,179.26 -369.50,191.69 -391.58,202.18ZM-236.11,177.77L-248.59,173.63C-250.41,183.44 -256.26,190.92 -272.40,198.36C-289.28,206.15 -302.82,205.43 -312.82,190.49L-242.38,157.04C-263.79,111.97 -286.50,104.64 -311.32,116.42C-333.22,126.82 -345.44,150.52 -326.98,189.39C-312.94,218.96 -288.92,233.27 -261.55,220.27C-243.85,211.86 -235.55,194.50 -236.11,177.77ZM-299.06,144.60C-280.44,135.76 -264.61,139.42 -259.33,150.55L-318.45,178.63C-322.48,163.55 -312.74,151.10 -299.06,144.60ZM-136.69,158.73L-105.12,143.73L-117.60,117.46L-139.13,127.68L-195.98,7.97L-229.74,24.01L-214.58,55.94L-192.68,45.54L-178.46,75.47C-191.17,64.73 -205.75,66.51 -217.34,71.79C-240.05,82.35 -248.45,104.23 -229.81,143.47C-214.65,175.40 -191.66,187.07 -167.21,175.46C-153.89,169.13 -146.31,156.36 -145.42,143.64ZM-176.70,153.58C-195.86,162.68 -211.00,155.78 -218.96,138.54C-225.37,125.03 -220.82,109.67 -202.20,100.83C-181.03,90.78 -168.16,97.64 -161.56,111.05L-153.07,128.94C-155.12,140.64 -163.20,147.17 -176.70,153.58ZM-8.58,97.89C-1.28,94.42 2.61,89.44 3.91,83.68L-6.84,61.05C-8.53,68.34 -12.31,72.15 -17.96,74.83C-22.34,76.91 -27.22,76.54 -30.67,73.04L-44.36,44.21C-60.40,10.45 -76.64,4.97 -101.46,16.76C-115.15,23.26 -124.65,32.91 -127.68,44.42L-115.77,67.61C-113.62,59.43 -106.84,50.17 -91.32,42.81C-74.17,34.66 -62.76,37.96 -53.70,54.68C-63.88,53.03 -77.43,57.45 -86.01,61.53C-107.73,71.84 -116.70,91.09 -107.60,110.25C-99.19,127.95 -80.89,134.47 -54.98,122.16C-43.12,116.53 -33.96,106.14 -30.96,96.44C-24.28,101.09 -16.43,101.61 -8.58,97.89ZM-65.63,99.26C-82.60,107.32 -92.07,106.23 -95.88,98.20C-99.87,89.80 -94.46,81.42 -76.57,72.92C-66.35,68.07 -56.84,66.91 -46.67,69.01L-42.25,78.32C-45.49,86.57 -54.32,93.89 -65.63,99.26ZM81.64,109.38C111.75,95.08 116.93,71.15 109.48,55.46C102.20,40.13 89.32,33.72 71.89,42.23C59.02,48.56 50.27,56.52 39.14,61.80C34.03,64.23 28.99,63.04 25.86,56.93C23.95,53.36 25.29,49.59 27.61,46.48C34.49,45.90 41.22,43.59 47.25,40.73C64.04,32.76 82.72,16.06 69.37,-12.04C66.16,-18.80 62.75,-24.11 59.13,-28.43C63.50,-34.30 73.55,-35.73 73.55,-35.73L69.12,-62.02C55.65,-57.41 47.37,-50.35 47.14,-38.61C36.32,-44.43 23.91,-42.79 10.59,-36.46C-12.22,-25.63 -22.08,-7.75 -6.73,24.55C-1.62,35.31 4.85,41.41 12.02,44.27C8.26,51.42 9.37,59.39 12.50,65.51C17.53,75.64 29.94,83.39 44.53,76.46C56.94,70.57 66.68,62.81 77.08,57.87C84.02,54.58 91.22,55.63 93.65,60.74C96.68,67.13 92.15,76.88 72.26,86.33C54.19,94.91 35.92,95.99 25.02,89.53L28.00,107.57C38.54,118.00 61.75,118.83 81.64,109.38ZM39.79,25.04C21.73,33.62 9.82,28.32 5.57,19.38C0.90,9.07 4.81,-1.06 23.24,-9.82C41.12,-18.31 52.55,-15.91 57.76,-5.41C61.66,2.80 57.49,16.63 39.79,25.04ZM166.19,17.12C190.65,5.50 200.97,-17.96 184.33,-53.00C165.87,-91.87 141.79,-98.77 116.79,-86.90C91.97,-75.11 81.93,-52.00 100.39,-13.13C117.03,21.90 141.92,28.64 166.19,17.12ZM155.19,-6.06C138.21,2.00 120.95,2.37 111.15,-18.25C105.09,-31.02 110.91,-46.54 131.35,-56.24C151.97,-66.04 167.41,-60.84 173.56,-47.89C183.27,-27.45 172.16,-14.12 155.19,-6.06ZM289.67,10.58C319.78,-3.72 324.97,-27.65 317.51,-43.35C310.23,-58.67 297.35,-65.08 279.92,-56.58C267.05,-50.24 258.30,-42.29 247.17,-37.00C242.06,-34.57 237.03,-35.76 233.90,-41.88C231.98,-45.44 233.32,-49.21 235.64,-52.32C242.52,-52.91 249.26,-55.21 255.28,-58.07C272.07,-66.04 290.75,-82.74 277.40,-110.85C274.20,-117.60 270.78,-122.91 267.16,-127.23C271.53,-133.11 281.59,-134.53 281.59,-134.53L277.15,-160.82C263.68,-156.22 255.41,-149.16 255.17,-137.41C244.35,-143.23 231.94,-141.59 218.62,-135.26C195.81,-124.43 185.96,-106.55 201.30,-74.25C206.41,-63.49 212.88,-57.39 220.06,-54.54C216.30,-47.38 217.40,-39.41 220.53,-33.29C225.56,-23.16 237.97,-15.41 252.57,-22.34C264.98,-28.23 274.71,-35.99 285.11,-40.93C292.05,-44.22 299.26,-43.17 301.68,-38.06C304.72,-31.68 300.18,-21.92 280.29,-12.47C262.22,-3.89 243.95,-2.82 233.05,-9.27L236.03,8.77C246.58,19.20 269.78,20.03 289.67,10.58ZM247.83,-73.76C229.76,-65.18 217.85,-70.49 213.60,-79.43C208.93,-89.73 212.84,-99.86 231.27,-108.62C249.16,-117.11 260.58,-114.71 265.79,-104.21C269.69,-96.00 265.53,-82.17 247.83,-73.76ZM369.30,-34.62C384.99,-42.07 384.61,-54.64 382.40,-79.08L373.85,-170.07L387.53,-176.57L373.32,-206.50L337.19,-189.34L351.40,-159.41L361.62,-164.26L365.47,-118.01C356.60,-126.32 343.30,-138.79 331.51,-149.96L340.82,-154.38L326.60,-184.31L278.79,-161.60L293.01,-131.68L310.52,-140.00C329.88,-122.80 354.73,-100.61 368.03,-88.14L368.67,-79.72C369.46,-69.58 366.29,-64.50 357.16,-60.16C351.32,-57.39 342.38,-57.39 334.32,-61.17L336.57,-38.53C343.53,-29.53 356.52,-28.55 369.30,-34.62Z" fill="#ffffff" stroke="#000000"/>
    <path d="M-322.98,53.87L-313.47,48.76L-347.87,-15.32L-394.52,9.73L-387.62,22.58L-351.53,3.20C-342.44,23.95 -353.47,40.98 -377.24,53.74C-404.17,68.20 -426.78,62.42 -438.69,40.24C-450.42,17.96 -447.30,-7.07 -418.25,-22.66C-400.83,-32.01 -385.88,-34.59 -373.03,-29.25L-362.65,-34.82L-386.75,-79.71L-397.13,-74.14L-387.11,-55.48C-400.57,-63.22 -418.96,-62.42 -434.98,-53.82C-465.61,-37.38 -478.03,-6.44 -451.67,42.67C-428.32,86.15 -396.14,95.41 -364.46,78.40C-346.50,68.76 -334.96,56.89 -332.39,40.55ZM-254.43,19.34C-230.84,6.67 -221.79,-17.01 -239.93,-50.81C-260.06,-88.30 -284.18,-93.95 -308.30,-81.00C-332.24,-68.15 -341.04,-44.83 -320.91,-7.34C-302.76,26.46 -277.85,31.91 -254.43,19.34ZM-266.43,-3.02C-282.81,5.77 -299.84,6.98 -310.52,-12.91C-317.14,-25.24 -312.14,-40.85 -292.42,-51.43C-272.53,-62.11 -257.03,-57.73 -250.32,-45.23C-239.73,-25.52 -250.06,-11.81 -266.43,-3.02ZM-114.72,-57.93C-107.68,-61.71 -104.07,-66.82 -103.08,-72.57L-114.80,-94.40C-116.11,-87.12 -119.66,-83.17 -125.11,-80.24C-129.34,-77.97 -134.17,-78.10 -137.75,-81.40L-152.68,-109.21C-170.16,-141.78 -186.48,-146.40 -210.42,-133.55C-223.62,-126.46 -232.54,-116.46 -234.98,-104.94L-222.08,-82.61C-220.35,-90.80 -214.10,-100.28 -199.14,-108.31C-182.59,-117.19 -171.16,-114.48 -161.40,-98.41C-171.53,-99.54 -184.70,-94.51 -192.98,-90.07C-213.93,-78.83 -221.85,-59.38 -211.93,-40.89C-202.77,-23.82 -184.37,-18.27 -159.37,-31.69C-147.93,-37.84 -139.39,-48.54 -136.90,-58.27C-130.07,-54.00 -122.29,-53.87 -114.72,-57.93ZM-171.01,-53.79C-187.38,-45.00 -196.78,-45.62 -200.94,-53.37C-205.29,-61.47 -200.35,-70.01 -183.10,-79.27C-173.24,-84.57 -163.90,-86.18 -153.76,-84.60L-148.94,-75.62C-151.73,-67.31 -160.09,-59.65 -171.01,-53.79ZM-57.27,-86.50C-44.59,-93.31 -40.21,-102.46 -39.36,-110.17L-54.59,-126.72C-56.05,-121.40 -60.29,-116.63 -67.33,-112.85C-77.54,-107.37 -84.72,-111.45 -90.39,-122.01L-144.82,-223.41L-174.05,-207.72L-157.51,-176.92L-140.26,-186.18L-95.18,-102.21C-84.60,-82.49 -72.76,-78.19 -57.27,-86.50ZM91.72,-220.00L99.75,-205.03L57.32,-182.26C67.60,-207.05 83.87,-243.90 67.14,-275.06C54.58,-298.48 32.23,-304.62 4.41,-289.69C-9.49,-282.23 -17.67,-271.26 -21.20,-260.52L-26.68,-270.73L-36.89,-265.25L-14.59,-223.70L-4.38,-229.19C-2.43,-239.08 3.78,-249.89 18.92,-258.02C38.28,-268.42 52.80,-264.19 57.05,-256.27C67.26,-237.25 50.06,-195.37 25.90,-147.02L31.57,-136.46L123.11,-185.60L123.01,-185.77L123.19,-185.87L101.93,-225.48ZM135.22,-279.63C130.21,-288.96 122.77,-289.73 113.61,-284.81C103.23,-279.24 100.02,-272.53 104.94,-263.38C109.47,-254.93 117.10,-253.81 127.31,-259.29C136.29,-264.11 139.75,-271.18 135.22,-279.63ZM163.57,-226.82C158.56,-236.15 151.12,-236.92 141.96,-232.00C131.58,-226.43 128.37,-219.72 133.29,-210.57C137.82,-202.12 145.45,-201.00 155.66,-206.48C164.64,-211.30 168.10,-218.37 163.57,-226.82ZM-361.20,292.08L-374.43,267.44L-393.98,277.93L-400.59,265.61L-374.54,251.62C-342.50,234.42 -333.51,211.45 -350.52,179.77C-369.70,144.03 -392.34,143.26 -423.50,159.98L-480.71,190.70L-464.18,221.50L-445.69,211.58L-406.47,284.64L-424.96,294.56L-411.73,319.21ZM-380.44,223.72L-413.54,241.49L-433.19,204.87L-400.10,187.11C-379.85,176.24 -366.06,177.00 -359.46,188.88C-353.43,199.70 -359.14,212.29 -380.44,223.72ZM-228.06,192.04L-240.58,188.55C-241.91,198.34 -247.32,206.00 -262.90,214.14C-279.19,222.66 -292.60,222.60 -303.21,208.34L-235.26,171.86C-258.60,128.38 -281.39,122.25 -305.33,135.10C-326.46,146.44 -337.38,170.45 -317.25,207.94C-301.94,236.46 -277.52,249.43 -251.12,235.25C-234.04,226.09 -226.68,208.53 -228.06,192.04ZM-291.85,162.33C-273.89,152.69 -258.08,155.54 -252.31,166.28L-309.35,196.90C-314.07,182.20 -305.05,169.42 -291.85,162.33ZM-130.77,168.38L-100.31,152.03L-113.92,126.69L-134.70,137.84L-196.69,22.35L-229.25,39.84L-212.72,70.64L-191.59,59.30L-176.09,88.17C-189.17,78.18 -203.49,80.66 -214.67,86.43C-236.60,97.98 -243.82,120.00 -223.51,157.85C-206.97,188.65 -183.69,199.06 -160.10,186.40C-147.25,179.50 -140.39,166.52 -140.13,153.91ZM-170.55,165.25C-189.03,175.17 -204.32,169.09 -213.02,152.45C-220.02,139.42 -216.26,124.02 -198.31,114.38C-177.89,103.42 -164.84,109.57 -157.67,122.50L-148.41,139.75C-149.86,151.42 -157.52,158.25 -170.55,165.25ZM-7.19,102.04C-0.15,98.26 3.46,93.15 4.45,87.40L-7.27,65.57C-8.57,72.85 -12.12,76.80 -17.58,79.73C-21.81,82.00 -26.64,81.87 -30.22,78.58L-45.15,50.76C-62.63,18.20 -78.95,13.57 -102.89,26.43C-116.09,33.51 -125.01,43.52 -127.44,55.03L-114.55,77.36C-112.82,69.17 -106.57,59.70 -91.61,51.66C-75.06,42.78 -63.63,45.49 -53.87,61.56C-64.00,60.43 -77.17,65.46 -85.45,69.90C-106.39,81.15 -114.32,100.59 -104.40,119.08C-95.23,136.15 -76.84,141.70 -51.84,128.28C-40.40,122.14 -31.86,111.43 -29.37,101.70C-22.54,105.98 -14.76,106.11 -7.19,102.04ZM-63.48,106.18C-79.85,114.97 -89.25,114.35 -93.41,106.60C-97.76,98.50 -92.82,89.96 -75.57,80.70C-65.71,75.41 -56.37,73.79 -46.22,75.38L-41.40,84.35C-44.20,92.66 -52.56,100.32 -63.48,106.18ZM82.49,109.01C111.54,93.41 115.49,69.52 107.37,54.38C99.43,39.59 86.39,33.89 69.59,43.14C57.18,50.03 48.93,58.31 38.19,64.08C33.26,66.72 28.23,65.80 24.84,59.91C22.77,56.48 23.92,52.69 26.06,49.50C32.83,48.59 39.36,45.99 45.17,42.87C61.37,34.17 79.01,16.77 64.46,-10.34C60.96,-16.86 57.33,-21.94 53.54,-26.03C57.57,-32.04 67.44,-33.94 67.44,-33.94L61.77,-59.70C48.69,-54.49 40.86,-47.11 41.20,-35.50C30.23,-40.73 18.05,-38.50 5.20,-31.60C-16.80,-19.78 -25.66,-1.65 -8.94,29.51C-3.36,39.90 3.33,45.60 10.55,48.07C7.19,55.32 8.67,63.15 12.05,69.04C17.52,78.80 30.15,85.85 44.24,78.29C56.21,71.87 65.45,63.73 75.48,58.35C82.17,54.76 89.34,55.44 91.99,60.37C95.29,66.53 91.29,76.39 72.10,86.69C54.67,96.05 36.67,98.00 25.60,92.15L29.42,109.83C40.34,119.62 63.30,119.31 82.49,109.01ZM37.05,27.73C19.62,37.08 7.59,32.43 2.96,23.80C-2.15,13.85 1.22,3.65 19.00,-5.90C36.25,-15.16 47.65,-13.34 53.31,-3.23C57.56,4.70 54.12,18.56 37.05,27.73ZM161.52,13.75C185.11,1.08 194.17,-22.60 176.02,-56.40C155.89,-93.90 131.77,-99.54 107.65,-86.60C83.71,-73.74 74.91,-50.43 95.04,-12.93C113.19,20.87 138.11,26.31 161.52,13.75ZM149.52,-8.61C133.15,0.18 116.11,1.39 105.43,-18.51C98.81,-30.83 103.81,-46.44 123.53,-57.02C143.42,-67.70 158.93,-63.32 165.64,-50.82C176.22,-31.11 165.89,-17.40 149.52,-8.61ZM283.18,1.28C312.22,-14.32 316.18,-38.21 308.05,-53.35C300.11,-68.14 287.08,-73.84 270.27,-64.59C257.87,-57.70 249.61,-49.42 238.88,-43.65C233.95,-41.01 228.91,-41.93 225.52,-47.82C223.46,-51.25 224.60,-55.04 226.74,-58.23C233.51,-59.14 240.05,-61.74 245.86,-64.86C262.05,-73.56 279.70,-90.96 265.14,-118.07C261.65,-124.59 258.01,-129.67 254.23,-133.76C258.25,-139.77 268.12,-141.67 268.12,-141.67L262.46,-167.43C249.38,-162.22 241.55,-154.84 241.89,-143.23C230.92,-148.46 218.74,-146.23 205.88,-139.33C183.88,-127.51 175.02,-109.38 191.75,-78.22C197.32,-67.83 204.01,-62.13 211.24,-59.66C207.87,-52.41 209.35,-44.58 212.74,-38.69C218.21,-28.93 230.84,-21.88 244.92,-29.44C256.89,-35.86 266.13,-44.00 276.16,-49.38C282.85,-52.97 290.02,-52.29 292.67,-47.36C295.98,-41.20 291.97,-31.34 272.79,-21.04C255.36,-11.68 237.36,-9.73 226.28,-15.58L230.10,2.10C241.02,11.89 263.99,11.58 283.18,1.28ZM237.73,-80.00C220.30,-70.65 208.28,-75.30 203.65,-83.93C198.53,-93.88 201.90,-104.08 219.68,-113.63C236.93,-122.89 248.34,-121.07 254.00,-110.96C258.25,-103.03 254.81,-89.17 237.73,-80.00ZM359.63,-47.25C374.77,-55.37 373.78,-67.77 370.40,-91.81L357.53,-181.27L370.73,-188.36L355.23,-217.23L320.37,-198.52L335.87,-169.65L345.73,-174.94L351.79,-129.44C342.62,-137.22 328.88,-148.89 316.68,-159.35L325.66,-164.17L310.16,-193.04L264.04,-168.28L279.54,-139.41L296.44,-148.48C316.39,-132.43 342.02,-111.72 355.77,-100.05L356.82,-91.77C358.09,-81.80 355.20,-76.62 346.40,-71.89C340.76,-68.87 331.93,-68.43 323.79,-71.77L327.11,-49.52C334.42,-40.97 347.31,-40.63 359.63,-47.25Z" fill="#ffffff" stroke="#000000"/>
    <path d="M-910.72,482.04L-910.72,492L-908.52,492L-908.52,488.92C-906.69,491.01 -903.46,492.38 -899.93,492.38C-893.09,492.38 -889.52,489.72 -889.52,484.89C-889.48,480.45 -892.33,477.45 -900.19,476.80C-906.05,476.31 -907.11,475.09 -907.11,473.38C-907.11,471.44 -905.63,469.54 -900.50,469.54C-896.09,469.54 -894.23,471.10 -892.86,472.24L-890.66,472.24L-890.66,463.88L-892.86,463.88L-892.86,466.73C-894.34,464.72 -897.15,463.12 -900.57,463.12C-906.88,463.12 -910.49,466.65 -910.49,471.21C-910.49,476.04 -908.40,478.78 -900.42,479.38C-895.25,479.76 -893.13,481.25 -893.13,483.11C-893.13,485.20 -895.14,486.79 -900.31,486.79C-904.37,486.79 -907.41,484.67 -908.52,482.04ZM-867.89,492C-866.37,492 -865.31,491.47 -864.63,490.59L-864.63,485.88C-865.50,486.98 -866.45,487.33 -867.63,487.33C-868.54,487.33 -869.34,486.87 -869.64,486.00L-869.64,479.99C-869.64,472.96 -871.96,470.72 -877.13,470.72C-879.98,470.72 -882.37,471.59 -883.82,473.30L-883.66,478.21C-882.64,476.99 -880.74,475.96 -877.51,475.96C-873.94,475.96 -872.26,477.45 -872.07,481.02C-873.67,479.92 -876.33,479.57 -878.12,479.57C-882.64,479.57 -885.72,482.12 -885.72,486.11C-885.72,489.80 -883.13,492.38 -877.74,492.38C-875.27,492.38 -872.87,491.35 -871.58,489.95C-870.82,491.28 -869.53,492 -867.89,492ZM-877.70,487.63C-881.23,487.63 -882.75,486.68 -882.75,485.01C-882.75,483.26 -881.16,482.27 -877.43,482.27C-875.30,482.27 -873.59,482.84 -872.04,484.02L-872.04,485.96C-873.25,487.10 -875.34,487.63 -877.70,487.63ZM-851.63,492L-846.42,477.33L-843.46,477.33L-843.46,471.10L-853.11,471.10L-853.11,477.33L-850.98,477.33L-854.25,487.25L-857.90,477.33L-855.70,477.33L-855.70,471.10L-863.60,471.10L-863.60,477.33L-860.56,477.33L-855.24,492ZM-823.36,492C-821.84,492 -820.77,491.47 -820.09,490.59L-820.09,485.88C-820.96,486.98 -821.91,487.33 -823.09,487.33C-824.00,487.33 -824.80,486.87 -825.11,486.00L-825.11,479.99C-825.11,472.96 -827.42,470.72 -832.59,470.72C-835.44,470.72 -837.84,471.59 -839.28,473.30L-839.13,478.21C-838.10,476.99 -836.20,475.96 -832.97,475.96C-829.40,475.96 -827.73,477.45 -827.54,481.02C-829.13,479.92 -831.79,479.57 -833.58,479.57C-838.10,479.57 -841.18,482.12 -841.18,486.11C-841.18,489.80 -838.60,492.38 -833.20,492.38C-830.73,492.38 -828.34,491.35 -827.04,489.95C-826.28,491.28 -824.99,492 -823.36,492ZM-833.16,487.63C-836.70,487.63 -838.22,486.68 -838.22,485.01C-838.22,483.26 -836.62,482.27 -832.90,482.27C-830.77,482.27 -829.06,482.84 -827.50,484.02L-827.50,485.96C-828.72,487.10 -830.81,487.63 -833.16,487.63ZM-805.16,489.95L-806.18,486.11C-806.79,486.79 -808.08,487.33 -809.68,487.29C-811.54,487.25 -812.83,486.30 -812.83,483.56L-812.83,477.41L-807.13,477.41L-807.13,471.48L-812.83,471.48L-812.83,466.54L-815.30,466.54L-815.30,471.48L-818.30,471.48L-818.30,477.41L-815.30,477.41L-815.30,486.19C-815.30,490.78 -813.14,492.38 -810.17,492.38C-808.01,492.38 -805.84,491.47 -805.16,489.95ZM-785.74,487.21L-787.52,485.50C-788.63,487.02 -790.22,487.82 -793.57,487.78C-797.06,487.74 -799.30,486.53 -799.80,483.18L-785.13,483.18C-785.13,473.80 -788.40,470.72 -793.57,470.72C-798.13,470.72 -802.12,473.76 -802.12,481.85C-802.12,488.01 -799.19,492.38 -793.49,492.38C-789.80,492.38 -786.99,490.10 -785.74,487.21ZM-793.76,476.50C-789.88,476.50 -787.49,478.40 -787.49,480.71L-799.80,480.71C-799.27,477.83 -796.61,476.50 -793.76,476.50ZM-772.21,482.27L-772.21,479.46L-782.47,479.46L-782.47,482.27ZM-768.98,482.04L-768.98,492L-766.78,492L-766.78,488.92C-764.95,491.01 -761.72,492.38 -758.19,492.38C-751.35,492.38 -747.78,489.72 -747.78,484.89C-747.74,480.45 -750.59,477.45 -758.45,476.80C-764.31,476.31 -765.37,475.09 -765.37,473.38C-765.37,471.44 -763.89,469.54 -758.76,469.54C-754.35,469.54 -752.49,471.10 -751.12,472.24L-748.92,472.24L-748.92,463.88L-751.12,463.88L-751.12,466.73C-752.60,464.72 -755.41,463.12 -758.83,463.12C-765.14,463.12 -768.75,466.65 -768.75,471.21C-768.75,476.04 -766.66,478.78 -758.68,479.38C-753.51,479.76 -751.39,481.25 -751.39,483.11C-751.39,485.20 -753.40,486.79 -758.57,486.79C-762.63,486.79 -765.67,484.67 -766.78,482.04ZM-727.60,487.21L-729.38,485.50C-730.49,487.02 -732.08,487.82 -735.43,487.78C-738.92,487.74 -741.16,486.53 -741.66,483.18L-726.99,483.18C-726.99,473.80 -730.26,470.72 -735.43,470.72C-739.99,470.72 -743.98,473.76 -743.98,481.85C-743.98,488.01 -741.05,492.38 -735.35,492.38C-731.66,492.38 -728.85,490.10 -727.60,487.21ZM-735.62,476.50C-731.74,476.50 -729.35,478.40 -729.35,480.71L-741.66,480.71C-741.13,477.83 -738.47,476.50 -735.62,476.50ZM-723.38,486.60L-723.38,492.08C-722.32,492.04 -716.05,492.04 -713.92,492.08L-713.92,486.60L-717.34,486.60L-717.34,481.17C-717.34,478.51 -715.97,477.03 -714.11,477.03C-712.40,477.03 -711.49,477.45 -711.03,478.43L-709.59,472.13C-710.57,471.29 -711.45,470.72 -713.27,470.72C-714.83,470.72 -716.73,471.78 -717.60,474.06L-718.90,471.10L-723.38,471.10L-723.38,477.33C-722.47,477.33 -721.40,477.29 -719.85,477.33L-719.85,486.60ZM-699.33,465.06C-699.33,462.85 -700.54,461.98 -702.59,461.98C-704.87,461.98 -706.01,462.89 -706.01,465.06C-706.01,467.22 -704.80,468.25 -702.59,468.25C-700.62,468.25 -699.33,467.22 -699.33,465.06ZM-706.74,486.57L-706.74,492.04C-705.10,492 -703.54,492 -701.99,492L-700.66,492C-699.02,492 -697.39,492.04 -695.68,492.04L-695.68,486.57L-699.52,486.57L-699.52,471.86L-706.74,471.86L-706.74,478.09L-701.99,478.09L-701.99,486.57ZM-682.23,492L-682.23,486.53L-686.79,486.53L-686.79,478.09L-682.11,478.09L-682.11,471.86L-686.75,471.86C-687.13,469.09 -685.15,467.53 -683.02,467.53C-681.96,467.53 -681.12,467.76 -680.67,468.10L-680.36,463.20C-681.24,462.51 -682.30,461.98 -683.75,461.98C-687.36,461.98 -690.05,464.94 -689.29,471.86L-692.26,471.86L-692.26,478.09L-689.26,478.09L-689.26,486.53L-692.22,486.53L-692.22,492Z"/>
</svg>