<?xml version="1.0"?>
<svg xmlns="http://www.w3.org/2000/svg" width="1920" height="1080" viewBox="-960 -540 1920 1080">
    <path d="M-910.99,465.97L-908.82,469.92L-908.82,487.97L-910.99,492L-903.01,492C-897.88,492 -890.88,490.52 -890.88,485.05C-890.88,481.17 -893.70,478.93 -898.22,477.86C-895.52,476.80 -892.48,475.13 -892.48,471.71C-892.48,467.19 -897.23,465.97 -902.70,465.97ZM-904.11,467.19L-902.85,467.19C-900.38,467.19 -897.15,467.91 -897.15,472.47C-897.15,475.43 -899.47,477.64 -904.11,477.64ZM-904.11,490.52L-904.11,478.59C-899.47,478.59 -896.20,479.92 -896.20,484.93C-896.20,488.58 -899.28,490.52 -902.97,490.52ZM-886.02,470.11L-886.02,471.25L-888.60,472.35L-886.02,475.28L-886.02,492L-878.84,492L-881.65,488.73L-881.65,465.02L-888.60,467.19ZM-866.26,492L-859.31,492L-861.89,489.07L-861.89,473.38L-866.83,473.38L-866.26,475.70C-866.26,478.97 -869.11,485.54 -871.01,489.23C-871.16,487.71 -871.28,485.27 -871.28,478.85L-871.28,472.62L-878.46,473.38L-875.65,476.65L-875.65,485.81C-875.65,488.58 -875.15,491.09 -874.92,492.30L-871.50,492C-870.71,490.90 -867.74,485.39 -866.26,479.76ZM-846.42,492L-839.47,492L-842.05,489.07L-842.05,473.38L-846.99,473.38L-846.42,475.70C-846.42,478.97 -849.27,485.54 -851.17,489.23C-851.33,487.71 -851.44,485.27 -851.44,478.85L-851.44,472.62L-858.62,473.38L-855.81,476.65L-855.81,485.81C-855.81,488.58 -855.32,491.09 -855.09,492.30L-851.67,492C-850.87,490.90 -847.91,485.39 -846.42,479.76ZM-818.95,492L-813.33,492L-814.88,489.80L-814.88,469.50L-812.22,465.97L-819.75,465.97L-816.63,469.24L-816.63,487.67L-831.45,465.97L-837.42,465.97L-833.92,470.80L-833.92,488.47L-836.58,492L-829.13,492L-832.21,488.73L-832.21,473.42ZM-796.11,483.37C-796.11,483.37 -798.73,489.76 -801.47,489.76C-802.84,489.76 -803.86,487.59 -804.21,484.44L-795.85,477.26C-795.85,476.50 -796.99,472.89 -800.60,472.89C-805.27,472.89 -809.15,479.38 -809.15,484.86C-809.15,489.91 -806.90,492.46 -803.52,492.46C-799.84,492.46 -796.49,487.02 -795.50,483.75ZM-804.28,483.53C-804.32,482.99 -804.36,482.42 -804.36,481.82C-804.36,475.74 -803.18,474.48 -802.50,474.06C-802.00,473.72 -800.10,475.55 -799.91,479.38ZM-781.06,492L-774.68,492L-777.87,489.53L-782.39,481.74C-780.99,479.92 -778.59,476.65 -777.42,473.38L-782.85,473.38L-780.38,475.47C-780.38,477.60 -781.94,479.42 -782.93,480.83L-787.26,473.38L-793.64,473.38L-790.87,475.77L-786.54,482.99C-788.17,485.05 -791.48,488.92 -792.58,492L-786.80,492L-789.08,489.91C-789.08,487.90 -787.18,485.54 -785.97,483.91ZM-760.77,473.80L-760.77,473.38L-766.81,473.38L-766.81,466.92L-771.11,473.38L-773.81,473.38L-771.22,475.62L-771.22,486.41C-771.15,492.19 -768.30,492.46 -766.93,492.46C-764.57,492.46 -761.95,488.77 -760.89,484.55L-761.30,484.40C-762.10,486.76 -763.81,489.64 -765.03,489.64C-766.05,489.64 -766.81,489.42 -766.81,485.24L-766.81,475.74ZM-758.45,479.84L-758.45,482.73L-749.98,482.73L-749.98,479.84ZM-746.83,465.97L-744.66,469.92L-744.66,487.97L-746.83,492L-738.85,492C-733.72,492 -726.72,490.52 -726.72,485.05C-726.72,481.17 -729.54,478.93 -734.06,477.86C-731.36,476.80 -728.32,475.13 -728.32,471.71C-728.32,467.19 -733.07,465.97 -738.54,465.97ZM-739.95,467.19L-738.69,467.19C-736.22,467.19 -732.99,467.91 -732.99,472.47C-732.99,475.43 -735.31,477.64 -739.95,477.64ZM-739.95,490.52L-739.95,478.59C-735.31,478.59 -732.04,479.92 -732.04,484.93C-732.04,488.58 -735.12,490.52 -738.81,490.52ZM-723.80,484.44C-723.80,489.57 -720.68,492.53 -716.62,492.53C-711.45,492.53 -706.96,487.10 -706.96,481.17C-706.96,476.15 -709.85,472.92 -714.60,472.92C-719.96,472.92 -723.80,478.32 -723.80,484.44ZM-716.08,474.14C-714.94,474.14 -711.98,476.19 -711.98,482.88C-711.98,489.15 -714.22,491.28 -715.36,491.28C-716.50,491.28 -719.01,488.20 -719.01,481.89C-719.01,475.17 -717.22,474.14 -716.08,474.14ZM-702.82,470.11L-702.82,471.25L-705.41,472.35L-702.82,475.28L-702.82,492L-695.64,492L-698.45,488.73L-698.45,465.02L-705.41,467.19ZM-676.15,492L-678.96,489.34L-678.96,465.02L-685.91,467.19L-683.33,470.11L-683.33,473.46C-690.43,474.22 -694.35,479.35 -694.35,485.81C-694.35,488.88 -693.09,491.62 -691.95,492.42L-689.14,492C-686.90,488.39 -684.28,483.26 -682.95,477.83L-683.40,482.23L-683.40,492.34ZM-688.53,489.07C-688.99,489.07 -689.64,487.48 -689.64,483.75C-689.64,479.92 -688.42,474.52 -683.33,474.48C-683.37,478.51 -687.81,489.07 -688.53,489.07ZM-671.36,487.97L-674.02,492L-663.99,492L-666.65,487.97L-666.65,470.00L-663.99,465.97L-674.02,465.97L-671.36,470.00ZM-649.13,473.80L-649.13,473.38L-655.17,473.38L-655.17,466.92L-659.46,473.38L-662.16,473.38L-659.58,475.62L-659.58,486.41C-659.50,492.19 -656.65,492.46 -655.28,492.46C-652.93,492.46 -650.31,488.77 -649.24,484.55L-649.66,484.40C-650.46,486.76 -652.17,489.64 -653.38,489.64C-654.41,489.64 -655.17,489.42 -655.17,485.24L-655.17,475.74ZM-642.29,492C-640.05,488.39 -637.42,483.26 -636.09,477.83L-636.55,482.23L-636.55,492L-629.29,492L-632.10,488.73L-632.10,475.43L-630.66,473.38L-634.99,473.38C-642.93,473.53 -647.27,478.74 -647.27,485.81C-647.27,488.88 -646.24,491.62 -645.10,492.42ZM-641.68,489.07C-642.14,489.07 -642.55,487.48 -642.55,483.75C-642.55,479.92 -641.57,474.52 -636.47,474.48C-636.51,478.51 -640.96,489.07 -641.68,489.07ZM-626.06,470.11L-626.06,471.25L-628.65,472.35L-626.06,475.28L-626.06,492L-618.88,492L-621.69,488.73L-621.69,465.02L-628.65,467.19ZM-610.52,467.72L-613.67,464.22L-616.87,467.72L-613.67,471.25ZM-611.28,488.73L-611.28,473L-618.23,475.55L-615.65,478.47L-615.65,492L-608.47,492ZM-594.98,478.32L-594.86,478.17L-597.52,472.85L-597.90,472.85C-602.54,474.03 -607.18,479.27 -607.18,485.05C-607.18,490.10 -604.74,492.46 -601.59,492.46C-599.61,492.46 -596.08,489.53 -594.10,483.72L-594.71,483.34C-596.46,487.36 -598.51,489.76 -599.77,489.76C-601.48,489.76 -602.39,486.68 -602.39,481.78C-602.39,479.27 -601.74,475.77 -601.02,475.77Z"/>
</svg>