<?xml version="1.0"?>
<svg xmlns="http://www.w3.org/2000/svg" width="1920" height="1080" viewBox="-960 -540 1920 1080">
    <path d="M-596.96,-147L-565.21,-147L-618.71,-293.52L-655.34,-293.52L-708.85,-147L-677.54,-147L-665.56,-182.74L-608.95,-182.74ZM-657.79,-205.39L-643.80,-247.12L-637.58,-268.88L-637.14,-268.88L-630.48,-246.68L-616.49,-205.39ZM-350.09,-187.40L-378.29,-195.84C-382.95,-178.30 -395.16,-169.87 -411.37,-169.87C-437.12,-169.87 -451.10,-187.85 -451.10,-220.26C-451.10,-252.89 -435.79,-270.65 -411.37,-270.65C-394.94,-270.65 -384.73,-263.77 -379.84,-246.01L-352.09,-257.78C-360.31,-283.31 -382.73,-295.74 -412.70,-295.74C-455.54,-295.74 -482.85,-267.32 -482.85,-220.26C-482.85,-173.20 -455.77,-144.78 -412.25,-144.78C-382.51,-144.78 -358.97,-158.77 -350.09,-187.40ZM-276.39,-260.22C-309.91,-260.22 -333.22,-238.69 -333.22,-202.50C-333.22,-166.31 -309.91,-144.78 -276.39,-144.78C-242.87,-144.78 -219.56,-166.31 -219.56,-202.50C-219.56,-238.69 -242.87,-260.22 -276.39,-260.22ZM-276.39,-237.58C-259.96,-237.58 -250.19,-226.03 -250.19,-202.50C-250.19,-178.97 -259.96,-167.42 -276.39,-167.42C-293.04,-167.42 -302.81,-178.97 -302.81,-202.50C-302.81,-226.03 -293.04,-237.58 -276.39,-237.58ZM-127.87,-260.22C-144.97,-260.22 -158.73,-252.67 -165.61,-237.13L-166.72,-258L-194.03,-258L-194.03,-147L-163.61,-147L-163.61,-205.83C-163.61,-228.03 -150.96,-236.24 -138.31,-236.24C-126.76,-236.24 -118.33,-230.03 -118.33,-211.16L-118.33,-147L-87.91,-147L-87.91,-219.82C-87.91,-246.68 -104.78,-260.22 -127.87,-260.22ZM-6.22,-260.22C-39.74,-260.22 -62.83,-238.91 -62.83,-202.50C-62.83,-166.09 -39.96,-144.78 -5.33,-144.78C22.20,-144.78 40.18,-158.54 45.07,-178.30L17.54,-187.18C15.10,-174.53 7.55,-167.42 -5.55,-167.42C-22.20,-167.42 -32.41,-178.52 -32.41,-202.28C-32.41,-225.59 -22.87,-237.58 -5.77,-237.58C6.22,-237.58 13.54,-230.69 16.21,-217.37L44.62,-227.59C39.29,-245.79 23.53,-260.22 -6.22,-260.22ZM98.57,-306.62L68.15,-306.62L68.15,-177.86C68.15,-154.77 77.70,-144.78 99.23,-144.78C106.56,-144.78 115.00,-146.56 119.88,-149.44L122.54,-169.42C117.66,-167.65 115.22,-167.20 110.11,-167.20C101.90,-167.20 98.57,-170.98 98.57,-181.19ZM178.04,-144.78C196.03,-144.78 209.12,-151.66 216.45,-166.31L217.56,-147L244.64,-147L244.64,-258L214.23,-258L214.23,-198.28C214.23,-177.64 202.46,-168.76 189.81,-168.76C176.49,-168.76 169.16,-174.31 169.16,-191.62L169.16,-258L138.75,-258L138.75,-184.30C138.75,-156.10 155.84,-144.78 178.04,-144.78ZM321.01,-144.78C352.76,-144.78 370.30,-160.32 370.30,-181.63C370.30,-196.51 361.64,-207.38 339.66,-211.82L317.02,-216.49C306.14,-218.71 302.59,-222.26 302.59,-226.92C302.59,-233.80 309.47,-237.80 322.12,-237.80C333.67,-237.80 344.77,-232.03 351.43,-221.81L369.63,-239.57C360.08,-253.12 343.43,-260.22 321.23,-260.22C288.82,-260.22 272.39,-243.13 272.39,-225.14C272.39,-208.05 282.16,-197.39 307.91,-192.07L327.45,-188.07C337.22,-186.07 339.66,-182.52 339.66,-177.86C339.66,-170.53 332.11,-167.20 320.57,-167.20C304.36,-167.20 292.37,-174.75 285.27,-185.41L267.73,-167.65C279.28,-152.99 298.59,-144.78 321.01,-144.78ZM409.81,-273.98C422.47,-273.98 428.68,-279.31 428.68,-290.19C428.68,-301.07 422.47,-306.62 409.81,-306.62C397.16,-306.62 390.94,-301.07 390.94,-290.19C390.94,-279.31 397.16,-273.98 409.81,-273.98ZM424.91,-258L394.49,-258L394.49,-147L424.91,-147ZM507.71,-260.22C474.19,-260.22 450.88,-238.69 450.88,-202.50C450.88,-166.31 474.19,-144.78 507.71,-144.78C541.24,-144.78 564.55,-166.31 564.55,-202.50C564.55,-238.69 541.24,-260.22 507.71,-260.22ZM507.71,-237.58C524.14,-237.58 533.91,-226.03 533.91,-202.50C533.91,-178.97 524.14,-167.42 507.71,-167.42C491.06,-167.42 481.30,-178.97 481.30,-202.50C481.30,-226.03 491.06,-237.58 507.71,-237.58ZM656.23,-260.22C639.14,-260.22 625.37,-252.67 618.49,-237.13L617.38,-258L590.08,-258L590.08,-147L620.49,-147L620.49,-205.83C620.49,-228.03 633.14,-236.24 645.80,-236.24C657.34,-236.24 665.78,-230.03 665.78,-211.16L665.78,-147L696.19,-147L696.19,-219.82C696.19,-246.68 679.32,-260.22 656.23,-260.22Z" fill="#ffffff" stroke="#000000"/>
    <path d="M-602.06,-119.05L-570.65,-120.28L-629.27,-263.15L-665.50,-261.73L-712.74,-114.71L-681.78,-115.92L-671.31,-151.74L-615.30,-153.94ZM-664.50,-174.45L-652.28,-216.28L-646.98,-238.04L-646.54,-238.06L-639.09,-216.35L-623.65,-176.05ZM-359.42,-168.60L-387.64,-175.85C-391.57,-158.32 -403.32,-149.50 -419.35,-148.87C-444.83,-147.87 -459.36,-165.12 -460.62,-197.18C-461.88,-229.46 -447.42,-247.63 -423.26,-248.58C-407.01,-249.21 -396.64,-242.80 -391.12,-225.42L-364.13,-238.14C-373.24,-263.08 -395.91,-274.50 -425.55,-273.34C-467.94,-271.68 -493.85,-242.51 -492.02,-195.95C-490.19,-149.39 -462.30,-122.33 -419.26,-124.02C-389.83,-125.18 -367.09,-139.93 -359.42,-168.60ZM-289.33,-243.49C-322.50,-242.19 -344.72,-219.98 -343.31,-184.19C-341.91,-148.39 -318.01,-127.99 -284.85,-129.29C-251.69,-130.60 -229.47,-152.80 -230.87,-188.60C-232.28,-224.40 -256.17,-244.79 -289.33,-243.49ZM-288.46,-221.09C-272.20,-221.73 -262.09,-210.69 -261.18,-187.41C-260.27,-164.13 -269.48,-152.33 -285.73,-151.70C-302.20,-151.05 -312.31,-162.09 -313.23,-185.37C-314.14,-208.65 -304.93,-220.45 -288.46,-221.09ZM-142.41,-249.26C-159.32,-248.59 -172.65,-240.59 -178.85,-224.95L-180.76,-245.55L-207.77,-244.49L-203.46,-134.69L-173.38,-135.87L-175.66,-194.06C-176.52,-216.03 -164.32,-224.64 -151.81,-225.13C-140.39,-225.58 -131.80,-219.76 -131.07,-201.09L-128.58,-137.63L-98.49,-138.81L-101.32,-210.84C-102.36,-237.41 -119.57,-250.15 -142.41,-249.26ZM-22.07,-253.98C-55.23,-252.68 -77.24,-230.70 -75.83,-194.68C-74.41,-158.67 -50.97,-138.47 -16.71,-139.81C10.52,-140.88 27.78,-155.20 31.84,-174.93L4.27,-182.65C2.34,-170.04 -4.85,-162.71 -17.81,-162.21C-34.28,-161.56 -44.81,-172.14 -45.73,-195.64C-46.64,-218.70 -37.66,-230.93 -20.75,-231.59C-8.89,-232.06 -1.38,-225.54 1.78,-212.46L29.49,-223.67C23.51,-241.47 7.36,-255.13 -22.07,-253.98ZM79.79,-303.94L49.70,-302.76L54.70,-175.39C55.59,-152.55 65.43,-143.04 86.73,-143.87C93.98,-144.16 102.25,-146.24 106.97,-149.29L108.83,-169.15C104.07,-167.21 101.67,-166.67 96.62,-166.48C88.49,-166.16 85.05,-169.76 84.66,-179.86ZM164.69,-146.93C182.48,-147.63 195.17,-154.95 201.85,-169.72L203.69,-150.66L230.49,-151.71L226.18,-261.52L196.09,-260.34L198.41,-201.26C199.21,-180.84 187.92,-171.60 175.40,-171.11C162.22,-170.59 154.76,-175.80 154.09,-192.92L151.51,-258.59L121.42,-257.41L124.29,-184.50C125.38,-156.61 142.73,-146.07 164.69,-146.93ZM306.12,-152.48C337.52,-153.71 354.27,-169.77 353.44,-190.85C352.87,-205.56 343.88,-215.99 321.97,-219.53L299.38,-223.26C288.54,-225.03 284.88,-228.41 284.70,-233.02C284.44,-239.83 291.09,-244.05 303.61,-244.54C315.03,-244.99 326.23,-239.71 333.22,-229.87L350.54,-248.14C340.57,-261.17 323.82,-267.55 301.86,-266.69C269.80,-265.43 254.21,-247.88 254.91,-230.09C255.57,-213.18 265.65,-203.02 291.33,-198.75L310.81,-195.55C320.55,-193.96 323.10,-190.54 323.28,-185.93C323.57,-178.68 316.23,-175.09 304.81,-174.64C288.78,-174.01 276.63,-181.02 269.19,-191.28L252.53,-173.03C264.51,-158.99 283.94,-151.61 306.12,-152.48ZM388.95,-283.74C401.47,-284.23 407.41,-289.74 406.99,-300.50C406.57,-311.26 400.20,-316.51 387.68,-316.02C375.17,-315.53 369.23,-309.80 369.65,-299.04C370.08,-288.28 376.43,-283.25 388.95,-283.74ZM404.50,-268.51L374.42,-267.33L378.72,-157.53L408.81,-158.71ZM486.33,-273.92C453.17,-272.62 430.95,-250.42 432.35,-214.62C433.76,-178.82 457.65,-158.42 490.81,-159.73C523.97,-161.03 546.20,-183.23 544.79,-219.03C543.39,-254.83 519.49,-275.22 486.33,-273.92ZM487.21,-251.52C503.46,-252.16 513.57,-241.12 514.49,-217.84C515.40,-194.56 506.18,-182.76 489.93,-182.13C473.46,-181.48 463.35,-192.52 462.44,-215.80C461.53,-239.08 470.74,-250.88 487.21,-251.52ZM633.25,-279.69C616.34,-279.02 603.02,-271.02 596.81,-255.38L594.91,-275.98L567.89,-274.92L572.20,-165.12L602.29,-166.30L600.01,-224.50C599.14,-246.46 611.34,-255.07 623.86,-255.56C635.28,-256.01 643.87,-250.19 644.60,-231.52L647.09,-168.06L677.18,-169.24L674.35,-241.27C673.31,-267.84 656.09,-280.58 633.25,-279.69Z" fill="#ffffff" stroke="#000000"/>
    <path d="M-605.77,-91.00L-574.75,-93.44L-638.27,-232.48L-674.06,-229.67L-715.08,-82.41L-684.50,-84.81L-675.53,-120.65L-620.23,-125.00ZM-669.68,-143.37L-659.22,-185.22L-654.82,-206.96L-654.38,-206.99L-646.17,-185.81L-629.34,-146.54ZM-367.69,-149.43L-395.88,-155.51C-399.09,-138.01 -410.37,-128.83 -426.20,-127.59C-451.36,-125.61 -466.41,-142.11 -468.90,-173.77C-471.40,-205.66 -457.80,-224.18 -433.94,-226.06C-417.89,-227.32 -407.39,-221.38 -401.25,-204.40L-375.04,-218.03C-385.03,-242.34 -407.89,-252.77 -437.17,-250.47C-479.03,-247.18 -503.53,-217.32 -499.91,-171.34C-496.30,-125.36 -467.66,-99.67 -425.15,-103.01C-396.08,-105.30 -374.17,-120.77 -367.69,-149.43ZM-301.27,-226.23C-334.02,-223.65 -355.14,-200.83 -352.36,-165.47C-349.59,-130.12 -325.16,-110.87 -292.41,-113.44C-259.66,-116.02 -238.54,-138.85 -241.32,-174.20C-244.09,-209.55 -268.52,-228.80 -301.27,-226.23ZM-299.53,-204.11C-283.48,-205.37 -273.05,-194.84 -271.25,-171.85C-269.44,-148.86 -278.10,-136.83 -294.15,-135.57C-310.41,-134.29 -320.84,-144.82 -322.65,-167.81C-324.46,-190.80 -315.80,-202.83 -299.53,-204.11ZM-156.17,-237.63C-172.87,-236.32 -185.74,-227.89 -191.27,-212.18L-193.96,-232.48L-220.63,-230.38L-212.11,-121.94L-182.40,-124.27L-186.92,-181.75C-188.62,-203.44 -176.89,-212.43 -164.52,-213.41C-153.25,-214.29 -144.53,-208.87 -143.08,-190.43L-138.15,-127.75L-108.44,-130.08L-114.03,-201.22C-116.09,-227.47 -133.61,-239.40 -156.17,-237.63ZM-37.32,-246.97C-70.07,-244.40 -90.99,-221.80 -88.19,-186.23C-85.40,-150.66 -61.42,-131.60 -27.58,-134.26C-0.69,-136.37 15.82,-151.20 19.08,-170.88L-8.50,-177.44C-9.91,-164.89 -16.74,-157.37 -29.54,-156.36C-45.81,-155.08 -56.64,-165.14 -58.46,-188.35C-60.25,-211.12 -51.84,-223.57 -35.14,-224.88C-23.43,-225.80 -15.74,-219.64 -12.12,-206.83L14.86,-218.99C8.26,-236.37 -8.25,-249.26 -37.32,-246.97ZM61.50,-300.35L31.78,-298.01L41.67,-172.21C43.44,-149.66 53.53,-140.63 74.57,-142.28C81.73,-142.85 89.83,-145.23 94.38,-148.42L95.45,-168.15C90.82,-166.04 88.47,-165.42 83.48,-165.03C75.45,-164.39 71.91,-167.83 71.13,-177.80ZM151.57,-148.33C169.14,-149.72 181.40,-157.44 187.44,-172.32L190.00,-153.54L216.46,-155.62L207.94,-264.06L178.23,-261.73L182.81,-203.38C184.40,-183.21 173.59,-173.63 161.22,-172.66C148.21,-171.64 140.63,-176.50 139.30,-193.42L134.20,-258.27L104.49,-255.93L110.14,-183.92C112.31,-156.38 129.88,-146.63 151.57,-148.33ZM291.25,-159.31C322.26,-161.75 338.20,-178.28 336.57,-199.10C335.42,-213.63 326.13,-223.59 304.32,-226.24L281.84,-229.06C271.04,-230.39 267.30,-233.59 266.94,-238.15C266.41,-244.87 272.83,-249.30 285.19,-250.27C296.47,-251.16 307.75,-246.37 315.05,-236.91L331.47,-255.66C321.10,-268.15 304.29,-273.82 282.60,-272.11C250.93,-269.62 236.20,-251.66 237.58,-234.09C238.89,-217.39 249.25,-207.73 274.82,-204.50L294.21,-202.10C303.91,-200.90 306.57,-197.61 306.93,-193.06C307.49,-185.90 300.37,-182.07 289.09,-181.18C273.26,-179.94 260.97,-186.39 253.21,-196.26L237.44,-177.56C249.84,-164.13 269.34,-157.59 291.25,-159.31ZM368.08,-292.36C380.45,-293.33 386.11,-299.01 385.27,-309.64C384.44,-320.27 377.94,-325.21 365.58,-324.24C353.21,-323.27 347.57,-317.37 348.40,-306.74C349.24,-296.12 355.72,-291.39 368.08,-292.36ZM384.06,-277.90L354.34,-275.57L362.87,-167.12L392.58,-169.46ZM464.79,-286.43C432.04,-283.86 410.92,-261.03 413.70,-225.67C416.47,-190.32 440.90,-171.07 473.65,-173.65C506.40,-176.22 527.52,-199.05 524.74,-234.40C521.97,-269.75 497.54,-289.00 464.79,-286.43ZM466.53,-264.31C482.58,-265.57 493.01,-255.04 494.81,-232.05C496.62,-209.06 487.96,-197.03 471.91,-195.77C455.65,-194.49 445.22,-205.02 443.41,-228.01C441.60,-251.00 450.26,-263.03 466.53,-264.31ZM609.89,-297.83C593.19,-296.52 580.32,-288.09 574.79,-272.38L572.10,-292.68L545.43,-290.58L553.95,-182.14L583.66,-184.47L579.14,-241.95C577.44,-263.64 589.17,-272.64 601.54,-273.61C612.81,-274.49 621.53,-269.07 622.98,-250.63L627.91,-187.95L657.62,-190.29L652.03,-261.43C649.97,-287.67 632.45,-299.60 609.89,-297.83Z" fill="#ffffff" stroke="#000000"/>
    <path d="M-608.10,-62.93L-577.52,-66.54L-645.74,-201.59L-681.02,-197.42L-715.88,-50.19L-685.73,-53.75L-678.25,-89.55L-623.71,-95.99ZM-673.34,-112.24L-664.62,-154.04L-661.11,-175.70L-660.68,-175.76L-651.74,-155.13L-633.56,-116.94ZM-374.89,-129.95L-403.01,-134.87C-405.51,-117.44 -416.31,-107.93 -431.92,-106.08C-456.73,-103.15 -472.25,-118.88 -475.94,-150.10C-479.65,-181.54 -466.92,-200.39 -443.39,-203.17C-427.57,-205.04 -416.95,-199.57 -410.22,-183.02L-384.83,-197.51C-395.65,-221.17 -418.66,-230.59 -447.53,-227.18C-488.81,-222.31 -511.88,-191.82 -506.52,-146.49C-501.16,-101.15 -471.83,-76.86 -429.92,-81.81C-401.26,-85.20 -380.19,-101.35 -374.89,-129.95ZM-312.18,-208.48C-344.48,-204.67 -364.48,-181.27 -360.36,-146.41C-356.24,-111.56 -331.33,-93.47 -299.04,-97.28C-266.75,-101.10 -246.75,-124.50 -250.87,-159.35C-254.99,-194.21 -279.89,-212.30 -312.18,-208.48ZM-309.61,-186.67C-293.78,-188.54 -283.06,-178.53 -280.38,-155.87C-277.70,-133.20 -285.80,-120.96 -301.62,-119.09C-317.66,-117.20 -328.38,-127.21 -331.06,-149.88C-333.74,-172.54 -325.65,-184.78 -309.61,-186.67ZM-169.12,-225.39C-185.58,-223.45 -197.98,-214.61 -202.84,-198.86L-206.29,-218.83L-232.59,-215.72L-219.96,-108.80L-190.66,-112.26L-197.36,-168.93C-199.88,-190.31 -188.63,-199.67 -176.44,-201.11C-165.32,-202.42 -156.49,-197.40 -154.34,-179.22L-147.03,-117.41L-117.74,-120.88L-126.02,-191.02C-129.08,-216.90 -146.88,-228.02 -169.12,-225.39ZM-51.93,-239.24C-84.22,-235.43 -104.03,-212.27 -99.89,-177.20C-95.74,-142.12 -71.29,-124.20 -37.93,-128.14C-11.41,-131.27 4.34,-146.58 6.80,-166.17L-20.73,-171.59C-21.64,-159.12 -28.10,-151.42 -40.72,-149.93C-56.76,-148.03 -67.86,-157.56 -70.57,-180.44C-73.22,-202.90 -65.39,-215.53 -48.92,-217.48C-37.37,-218.84 -29.53,-213.05 -25.45,-200.52L0.76,-213.59C-6.44,-230.52 -23.27,-242.63 -51.93,-239.24ZM43.73,-295.87L14.43,-292.40L29.09,-168.37C31.72,-146.13 42.05,-137.59 62.79,-140.04C69.85,-140.88 77.78,-143.55 82.15,-146.89L82.44,-166.44C77.94,-164.17 75.64,-163.46 70.72,-162.88C62.81,-161.95 59.17,-165.20 58.01,-175.04ZM138.71,-149.02C156.03,-151.06 167.87,-159.18 173.26,-174.13L176.52,-155.65L202.61,-158.74L189.98,-265.66L160.68,-262.20L167.48,-204.67C169.83,-184.79 159.51,-174.89 147.32,-173.45C134.49,-171.94 126.80,-176.45 124.83,-193.13L117.27,-257.07L87.97,-253.61L96.36,-182.61C99.57,-155.45 117.33,-146.49 138.71,-149.02ZM276.43,-165.29C307.01,-168.91 322.14,-185.87 319.71,-206.40C318.02,-220.73 308.44,-230.22 286.76,-232.00L264.42,-233.91C253.69,-234.81 249.86,-237.83 249.33,-242.32C248.55,-248.95 254.72,-253.58 266.91,-255.02C278.03,-256.34 289.38,-252.04 296.96,-242.96L312.47,-262.14C301.74,-274.10 284.89,-279.05 263.50,-276.52C232.28,-272.83 218.40,-254.49 220.45,-237.17C222.40,-220.71 233.02,-211.55 258.43,-209.35L277.71,-207.73C287.34,-206.91 290.10,-203.77 290.63,-199.28C291.46,-192.22 284.57,-188.16 273.45,-186.84C257.84,-185.00 245.43,-190.90 237.38,-200.36L222.50,-181.25C235.29,-168.45 254.83,-162.74 276.43,-165.29ZM347.26,-299.86C359.45,-301.30 364.83,-307.14 363.60,-317.62C362.36,-328.10 355.74,-332.74 343.55,-331.30C331.36,-329.86 326.00,-323.81 327.24,-313.33C328.48,-302.85 335.07,-298.42 347.26,-299.86ZM363.63,-286.19L334.33,-282.72L346.96,-175.80L376.26,-179.26ZM443.14,-297.75C410.85,-293.93 390.84,-270.54 394.96,-235.68C399.08,-200.82 423.99,-182.73 456.28,-186.55C488.57,-190.36 508.58,-213.76 504.46,-248.62C500.34,-283.48 475.43,-301.57 443.14,-297.75ZM445.72,-275.94C461.54,-277.81 472.27,-267.80 474.95,-245.13C477.62,-222.46 469.53,-210.23 453.70,-208.36C437.66,-206.47 426.94,-216.47 424.26,-239.14C421.58,-261.81 429.68,-274.04 445.72,-275.94ZM586.21,-314.66C569.74,-312.71 557.34,-303.87 552.48,-288.12L549.04,-308.10L522.73,-304.99L535.37,-198.06L564.67,-201.53L557.97,-258.20C555.44,-279.58 566.70,-288.93 578.88,-290.37C590.01,-291.69 598.84,-286.66 600.99,-268.48L608.29,-206.68L637.59,-210.14L629.30,-280.29C626.24,-306.16 608.45,-317.29 586.21,-314.66Z" fill="#ffffff" stroke="#000000"/>
    <path d="M-609.05,-34.89L-578.94,-39.65L-651.65,-170.56L-686.38,-165.07L-715.14,-18.11L-685.46,-22.81L-679.45,-58.50L-625.77,-66.98ZM-675.48,-81.13L-668.48,-122.80L-665.85,-144.37L-665.42,-144.43L-655.78,-124.38L-636.33,-87.32ZM-381.03,-110.22L-409.02,-113.99C-410.81,-96.66 -421.13,-86.83 -436.49,-84.40C-460.91,-80.54 -476.87,-95.50 -481.73,-126.23C-486.63,-157.17 -474.76,-176.31 -451.61,-179.97C-436.03,-182.44 -425.32,-177.44 -418.02,-161.33L-393.47,-176.65C-405.09,-199.63 -428.21,-208.05 -456.63,-203.56C-497.26,-197.13 -518.89,-166.10 -511.83,-121.47C-504.78,-76.84 -474.83,-53.96 -433.57,-60.48C-405.37,-64.94 -385.15,-81.74 -381.03,-110.22ZM-322.06,-190.32C-353.84,-185.29 -372.72,-161.38 -367.29,-127.07C-361.86,-92.75 -336.53,-75.83 -304.75,-80.86C-272.96,-85.88 -254.09,-109.80 -259.51,-144.11C-264.94,-178.42 -290.27,-195.35 -322.06,-190.32ZM-318.66,-168.85C-303.08,-171.31 -292.09,-161.83 -288.56,-139.52C-285.03,-117.20 -292.56,-104.79 -308.14,-102.33C-323.93,-99.83 -334.92,-109.31 -338.45,-131.63C-341.98,-153.94 -334.45,-166.35 -318.66,-168.85ZM-181.23,-212.59C-197.44,-210.03 -209.36,-200.81 -213.55,-185.04L-217.74,-204.66L-243.63,-200.57L-226.98,-95.31L-198.14,-99.87L-206.96,-155.66C-210.29,-176.71 -199.53,-186.39 -187.53,-188.29C-176.58,-190.02 -167.65,-185.39 -164.82,-167.50L-155.20,-106.67L-126.36,-111.23L-137.28,-180.27C-141.31,-205.74 -159.34,-216.05 -181.23,-212.59ZM-65.87,-230.83C-97.66,-225.81 -116.36,-202.14 -110.90,-167.61C-105.44,-133.09 -80.56,-116.31 -47.72,-121.51C-21.62,-125.63 -6.63,-141.38 -4.96,-160.85L-32.40,-165.14C-32.82,-152.78 -38.91,-144.91 -51.33,-142.94C-67.11,-140.45 -78.46,-149.44 -82.02,-171.97C-85.52,-194.07 -78.27,-206.87 -62.06,-209.43C-50.69,-211.23 -42.71,-205.80 -38.19,-193.57L-12.77,-207.51C-20.56,-223.98 -37.67,-235.30 -65.87,-230.83ZM26.53,-290.54L-2.31,-285.98L17.00,-163.89C20.46,-142.00 31.01,-133.96 51.43,-137.19C58.37,-138.28 66.11,-141.23 70.30,-144.70L69.83,-164.05C65.47,-161.63 63.22,-160.84 58.38,-160.08C50.59,-158.85 46.87,-161.93 45.34,-171.61ZM126.16,-149.00C143.21,-151.70 154.59,-160.19 159.34,-175.18L163.29,-157.04L188.97,-161.10L172.33,-266.35L143.49,-261.79L152.44,-205.16C155.54,-185.59 145.72,-175.40 133.72,-173.50C121.09,-171.51 113.31,-175.67 110.71,-192.09L100.76,-255.03L71.92,-250.47L82.97,-180.58C87.20,-153.85 105.11,-145.68 126.16,-149.00ZM261.72,-170.44C291.82,-175.20 306.12,-192.57 302.93,-212.78C300.69,-226.88 290.85,-235.90 269.35,-236.81L247.18,-237.84C236.53,-238.31 232.63,-241.15 231.93,-245.57C230.90,-252.09 236.82,-256.91 248.82,-258.81C259.77,-260.54 271.16,-256.73 279.01,-248.05L293.61,-267.62C282.52,-279.03 265.67,-283.27 244.62,-279.94C213.89,-275.08 200.87,-256.41 203.57,-239.36C206.13,-223.15 216.99,-214.51 242.21,-213.32L261.33,-212.46C270.89,-212.03 273.74,-209.03 274.44,-204.61C275.54,-197.66 268.88,-193.37 257.94,-191.64C242.57,-189.21 230.07,-194.57 221.74,-203.61L207.77,-184.14C220.91,-171.97 240.46,-167.08 261.72,-170.44ZM326.55,-306.27C338.54,-308.17 343.64,-314.15 342.01,-324.47C340.38,-334.78 333.65,-339.11 321.65,-337.22C309.65,-335.32 304.59,-329.12 306.22,-318.81C307.85,-308.50 314.55,-304.38 326.55,-306.27ZM343.26,-293.38L314.42,-288.82L331.06,-183.57L359.90,-188.13ZM421.44,-307.90C389.66,-302.88 370.78,-278.96 376.21,-244.65C381.64,-210.34 406.97,-193.41 438.75,-198.44C470.54,-203.47 489.41,-227.38 483.99,-261.69C478.56,-296.01 453.23,-312.93 421.44,-307.90ZM424.84,-286.43C440.42,-288.90 451.41,-279.41 454.94,-257.10C458.47,-234.79 450.94,-222.38 435.36,-219.91C419.57,-217.42 408.58,-226.90 405.05,-249.21C401.52,-271.52 409.05,-283.93 424.84,-286.43ZM562.27,-330.17C546.06,-327.61 534.14,-318.39 529.95,-302.62L525.76,-322.24L499.87,-318.15L516.52,-212.90L545.36,-217.46L536.53,-273.24C533.21,-294.29 543.97,-303.98 555.97,-305.88C566.92,-307.61 575.85,-302.98 578.68,-285.08L588.30,-224.25L617.14,-228.81L606.22,-297.86C602.19,-323.33 584.16,-333.64 562.27,-330.17Z" fill="#ffffff" stroke="#000000"/>
    <path d="M-608.63,-6.97L-579.05,-12.84L-656.02,-139.47L-690.15,-132.69L-712.89,13.74L-683.72,7.95L-679.16,-27.58L-626.41,-38.05ZM-676.11,-50.11L-670.80,-91.59L-669.04,-113.02L-668.63,-113.10L-658.31,-93.64L-637.64,-57.76ZM-386.08,-90.30L-413.91,-92.95C-415.01,-75.74 -424.82,-65.62 -439.93,-62.62C-463.92,-57.86 -480.28,-72.02 -486.28,-102.22C-492.32,-132.63 -481.33,-152.02 -458.58,-156.54C-443.27,-159.58 -432.48,-155.05 -424.64,-139.41L-400.96,-155.51C-413.34,-177.78 -436.54,-185.21 -464.46,-179.66C-504.39,-171.73 -524.57,-140.20 -515.86,-96.35C-507.15,-52.50 -476.65,-31.03 -436.11,-39.08C-408.39,-44.59 -389.05,-61.97 -386.08,-90.30ZM-330.88,-171.79C-362.11,-165.59 -379.85,-141.21 -373.15,-107.49C-366.45,-73.77 -340.75,-58.02 -309.51,-64.23C-278.28,-70.43 -260.54,-94.81 -267.24,-128.53C-273.93,-162.25 -299.64,-178.00 -330.88,-171.79ZM-326.69,-150.69C-311.38,-153.73 -300.14,-144.78 -295.78,-122.86C-291.43,-100.93 -298.40,-88.37 -313.70,-85.33C-329.22,-82.24 -340.46,-91.19 -344.81,-113.12C-349.17,-135.05 -342.20,-147.61 -326.69,-150.69ZM-192.49,-199.28C-208.42,-196.12 -219.84,-186.53 -223.38,-170.78L-228.28,-190.02L-253.72,-184.97L-233.18,-81.54L-204.84,-87.17L-215.73,-141.98C-219.83,-162.67 -209.56,-172.67 -197.77,-175.01C-187.02,-177.14 -178.00,-172.91 -174.51,-155.33L-162.64,-95.55L-134.30,-101.18L-147.78,-169.03C-152.75,-194.06 -170.97,-203.55 -192.49,-199.28ZM-79.13,-221.79C-110.36,-215.59 -127.93,-191.46 -121.20,-157.53C-114.46,-123.61 -89.21,-107.98 -56.94,-114.39C-31.29,-119.49 -17.08,-135.64 -16.18,-154.95L-43.48,-158.13C-43.41,-145.89 -49.13,-137.87 -61.33,-135.45C-76.85,-132.37 -88.42,-140.82 -92.81,-162.96C-97.13,-184.68 -90.45,-197.61 -74.52,-200.78C-63.35,-202.99 -55.25,-197.94 -50.31,-186.02L-25.72,-200.79C-34.05,-216.77 -51.41,-227.30 -79.13,-221.79ZM9.92,-284.42L-18.42,-278.79L5.41,-158.81C9.68,-137.30 20.43,-129.76 40.49,-133.74C47.32,-135.10 54.85,-138.31 58.87,-141.91L57.65,-161.02C53.43,-158.46 51.24,-157.59 46.48,-156.65C38.83,-155.13 35.03,-158.03 33.14,-167.54ZM113.93,-148.33C130.68,-151.65 141.62,-160.49 145.73,-175.50L150.34,-157.71L175.58,-162.72L155.03,-266.15L126.69,-260.52L137.75,-204.88C141.57,-185.64 132.25,-175.19 120.46,-172.85C108.04,-170.38 100.19,-174.20 96.99,-190.33L84.70,-252.18L56.36,-246.55L70.00,-177.88C75.22,-151.60 93.24,-144.22 113.93,-148.33ZM247.15,-174.79C276.73,-180.66 290.19,-198.39 286.25,-218.25C283.50,-232.10 273.42,-240.64 252.12,-240.71L230.15,-240.86C219.61,-240.92 215.64,-243.57 214.78,-247.91C213.50,-254.33 219.18,-259.32 230.97,-261.67C241.72,-263.80 253.13,-260.48 261.23,-252.19L274.91,-272.11C263.50,-282.96 246.68,-286.50 225.99,-282.39C195.79,-276.40 183.64,-257.43 186.97,-240.67C190.14,-224.74 201.21,-216.62 226.19,-216.42L245.13,-216.31C254.61,-216.26 257.54,-213.40 258.40,-209.06C259.76,-202.23 253.34,-197.73 242.58,-195.60C227.48,-192.60 214.92,-197.41 206.32,-206.03L193.27,-186.23C206.74,-174.72 226.25,-170.64 247.15,-174.79ZM305.98,-311.61C317.77,-313.95 322.58,-320.07 320.56,-330.20C318.55,-340.34 311.73,-344.36 299.94,-342.02C288.15,-339.68 283.38,-333.36 285.40,-323.22C287.41,-313.08 294.19,-309.27 305.98,-311.61ZM323.00,-299.51L294.66,-293.88L315.21,-190.45L343.55,-196.08ZM399.75,-316.91C368.52,-310.70 350.78,-286.32 357.48,-252.60C364.17,-218.89 389.88,-203.13 421.12,-209.34C452.35,-215.54 470.09,-239.92 463.39,-273.64C456.69,-307.36 430.99,-323.11 399.75,-316.91ZM403.94,-295.81C419.25,-298.85 430.49,-289.90 434.84,-267.97C439.20,-246.04 432.23,-233.48 416.92,-230.44C401.41,-227.36 390.17,-236.31 385.82,-258.23C381.46,-280.16 388.43,-292.72 403.94,-295.81ZM538.14,-344.39C522.21,-341.23 510.78,-331.65 507.25,-315.89L502.35,-335.13L476.91,-330.08L497.45,-226.65L525.79,-232.28L514.90,-287.10C510.79,-307.78 521.06,-317.78 532.86,-320.12C543.61,-322.26 552.62,-318.02 556.12,-300.44L567.99,-240.66L596.33,-246.29L582.85,-314.14C577.88,-339.17 559.65,-348.66 538.14,-344.39Z" fill="#ffffff" stroke="#000000"/>
    <path d="M-606.86,20.78L-577.84,13.82L-658.85,-108.39L-692.33,-100.36L-709.13,45.29L-680.52,38.43L-677.39,3.14L-625.65,-9.27ZM-675.25,-19.27L-671.61,-60.48L-670.70,-81.73L-670.29,-81.83L-659.34,-62.99L-637.51,-28.31ZM-390.05,-70.25L-417.67,-71.78C-418.09,-54.73 -427.40,-44.34 -442.22,-40.79C-465.76,-35.15 -482.48,-48.52 -489.58,-78.15C-496.73,-107.98 -486.62,-127.57 -464.30,-132.92C-449.28,-136.52 -438.44,-132.47 -430.09,-117.31L-407.30,-134.14C-420.40,-155.68 -443.62,-162.13 -471.02,-155.56C-510.18,-146.17 -528.92,-114.22 -518.60,-71.19C-508.29,-28.17 -477.31,-8.13 -437.53,-17.67C-410.34,-24.19 -391.89,-42.13 -390.05,-70.25ZM-338.63,-152.96C-369.28,-145.62 -385.86,-120.82 -377.94,-87.75C-370.01,-54.67 -343.98,-40.09 -313.34,-47.44C-282.69,-54.78 -266.11,-79.58 -274.03,-112.65C-281.96,-145.73 -307.99,-160.31 -338.63,-152.96ZM-333.67,-132.26C-318.65,-135.86 -307.20,-127.45 -302.04,-105.94C-296.88,-84.43 -303.28,-71.74 -318.30,-68.14C-333.52,-64.49 -344.98,-72.90 -350.13,-94.41C-355.29,-115.92 -348.89,-128.62 -333.67,-132.26ZM-202.87,-185.51C-218.50,-181.76 -229.43,-171.84 -232.31,-156.13L-237.90,-174.96L-262.86,-168.98L-238.54,-67.52L-210.73,-74.18L-223.63,-127.96C-228.49,-148.25 -218.72,-158.53 -207.16,-161.30C-196.60,-163.83 -187.53,-160.00 -183.40,-142.75L-169.34,-84.10L-141.54,-90.77L-157.49,-157.33C-163.38,-181.88 -181.77,-190.57 -202.87,-185.51ZM-91.67,-212.16C-122.31,-204.82 -138.74,-180.28 -130.77,-147.00C-122.79,-113.72 -97.22,-99.25 -65.56,-106.83C-40.39,-112.87 -26.97,-129.39 -26.84,-148.52L-53.95,-150.60C-53.41,-138.50 -58.75,-130.35 -70.72,-127.48C-85.94,-123.84 -97.71,-131.74 -102.92,-153.46C-108.02,-174.77 -101.92,-187.82 -86.30,-191.56C-75.34,-194.19 -67.14,-189.50 -61.78,-177.91L-38.04,-193.47C-46.90,-208.95 -64.47,-218.68 -91.67,-212.16ZM-6.05,-277.54L-33.85,-270.87L-5.64,-153.17C-0.58,-132.07 10.34,-125.03 30.02,-129.75C36.72,-131.35 44.04,-134.82 47.87,-138.53L45.93,-157.38C41.85,-154.69 39.72,-153.74 35.05,-152.63C27.54,-150.83 23.67,-153.55 21.44,-162.88ZM102.06,-147.02C118.50,-150.96 128.96,-160.12 132.45,-175.12L137.70,-157.70L162.46,-163.64L138.13,-265.10L110.33,-258.44L123.42,-203.85C127.94,-184.98 119.13,-174.28 107.56,-171.51C95.39,-168.59 87.48,-172.06 83.68,-187.89L69.14,-248.56L41.33,-241.90L57.48,-174.53C63.66,-148.75 81.77,-142.15 102.06,-147.02ZM232.75,-178.34C261.77,-185.30 274.40,-203.35 269.73,-222.83C266.47,-236.42 256.17,-244.47 235.11,-243.71L213.38,-243.01C202.95,-242.66 198.93,-245.13 197.91,-249.39C196.40,-255.68 201.82,-260.84 213.38,-263.61C223.93,-266.14 235.35,-263.30 243.67,-255.42L256.42,-275.65C244.73,-285.93 227.95,-288.78 207.66,-283.92C178.03,-276.81 166.76,-257.59 170.70,-241.15C174.44,-225.52 185.71,-217.92 210.42,-218.70L229.15,-219.32C238.52,-219.64 241.53,-216.93 242.55,-212.67C244.15,-205.97 237.98,-201.27 227.43,-198.74C212.62,-195.19 200.00,-199.46 191.18,-207.65L179.04,-187.57C192.80,-176.71 212.25,-173.43 232.75,-178.34ZM285.61,-315.91C297.18,-318.68 301.69,-324.91 299.31,-334.86C296.93,-344.80 290.03,-348.51 278.46,-345.74C266.89,-342.96 262.43,-336.53 264.81,-326.59C267.19,-316.64 274.04,-313.13 285.61,-315.91ZM302.91,-304.60L275.11,-297.94L299.43,-196.47L327.24,-203.14ZM378.12,-324.78C347.48,-317.43 330.89,-292.64 338.82,-259.56C346.75,-226.48 372.77,-211.91 403.42,-219.25C434.06,-226.60 450.65,-251.39 442.72,-284.47C434.79,-317.55 408.76,-332.12 378.12,-324.78ZM383.08,-304.08C398.10,-307.68 409.56,-299.27 414.71,-277.76C419.87,-256.24 413.47,-243.55 398.45,-239.95C383.23,-236.30 371.77,-244.72 366.62,-266.23C361.46,-287.74 367.86,-300.43 383.08,-304.08ZM513.88,-357.32C498.25,-353.58 487.33,-343.66 484.44,-327.95L478.85,-346.78L453.89,-340.80L478.22,-239.33L506.02,-245.99L493.13,-299.77C488.26,-320.06 498.03,-330.35 509.60,-333.12C520.15,-335.65 529.22,-331.81 533.36,-314.57L547.42,-255.92L575.22,-262.58L559.26,-329.14C553.38,-353.70 534.99,-362.38 513.88,-357.32Z" fill="#ffffff" stroke="#000000"/>
    <path d="M-603.75,48.27L-575.33,40.27L-660.16,-77.40L-692.95,-68.17L-703.91,76.48L-675.89,68.59L-674.17,33.57L-623.49,19.30ZM-672.92,11.34L-670.92,-29.55L-670.84,-50.59L-670.44,-50.70L-658.88,-32.51L-635.95,0.93ZM-392.94,-50.12L-420.31,-50.57C-420.06,-33.69 -428.87,-23.06 -443.37,-18.98C-466.43,-12.49 -483.48,-25.06 -491.65,-54.07C-499.87,-83.29 -490.64,-103.05 -468.78,-109.20C-454.07,-113.34 -443.20,-109.76 -434.35,-95.09L-412.47,-112.62C-426.26,-133.40 -449.47,-138.88 -476.29,-131.32C-514.65,-120.52 -531.93,-88.20 -520.07,-46.07C-508.20,-3.94 -476.79,14.67 -437.84,3.70C-411.21,-3.80 -393.67,-22.25 -392.94,-50.12ZM-345.32,-133.89C-375.33,-125.44 -390.77,-100.28 -381.65,-67.89C-372.52,-35.50 -346.23,-22.10 -316.22,-30.55C-286.21,-39.00 -270.77,-64.15 -279.90,-96.54C-289.02,-128.94 -315.31,-142.34 -345.32,-133.89ZM-339.61,-113.62C-324.91,-117.76 -313.25,-109.89 -307.32,-88.82C-301.39,-67.75 -307.22,-54.96 -321.93,-50.82C-336.83,-46.62 -348.49,-54.49 -354.42,-75.56C-360.35,-96.62 -354.52,-109.42 -339.61,-113.62ZM-212.37,-171.33C-227.67,-167.02 -238.09,-156.79 -240.33,-141.14L-246.59,-159.54L-271.03,-152.66L-243.05,-53.30L-215.82,-60.96L-230.65,-113.63C-236.25,-133.50 -226.99,-144.04 -215.67,-147.23C-205.33,-150.14 -196.21,-146.70 -191.46,-129.81L-175.28,-72.38L-148.06,-80.05L-166.41,-145.23C-173.18,-169.28 -191.70,-177.15 -212.37,-171.33ZM-103.46,-201.99C-133.47,-193.54 -148.77,-168.64 -139.59,-136.05C-130.41,-103.46 -104.57,-90.15 -73.57,-98.88C-48.93,-105.81 -36.30,-122.67 -36.91,-141.59L-63.79,-142.60C-62.79,-130.65 -67.75,-122.39 -79.48,-119.09C-94.38,-114.89 -106.32,-122.26 -112.31,-143.52C-118.18,-164.39 -112.66,-177.52 -97.36,-181.83C-86.63,-184.86 -78.33,-180.54 -72.59,-169.29L-49.73,-185.59C-59.09,-200.55 -76.83,-209.49 -103.46,-201.99ZM-21.36,-269.94L-48.59,-262.27L-16.13,-147.01C-10.31,-126.34 0.76,-119.81 20.03,-125.23C26.59,-127.08 33.69,-130.80 37.34,-134.61L34.69,-153.17C30.76,-150.35 28.69,-149.33 24.12,-148.05C16.77,-145.98 12.83,-148.52 10.26,-157.66ZM90.58,-145.10C106.68,-149.63 116.67,-159.10 119.53,-174.06L125.40,-157.05L149.64,-163.88L121.66,-263.24L94.44,-255.57L109.49,-202.12C114.69,-183.63 106.40,-172.72 95.07,-169.53C83.15,-166.17 75.19,-169.29 70.83,-184.79L54.09,-244.21L26.87,-236.55L45.45,-170.57C52.55,-145.33 70.71,-139.50 90.58,-145.10ZM218.57,-181.14C246.98,-189.14 258.77,-207.47 253.39,-226.55C249.64,-239.87 239.15,-247.42 218.36,-245.86L196.91,-244.32C186.61,-243.57 182.54,-245.85 181.36,-250.02C179.63,-256.19 184.78,-261.50 196.11,-264.69C206.44,-267.60 217.84,-265.23 226.37,-257.77L238.19,-278.25C226.23,-287.97 209.54,-290.13 189.66,-284.54C160.65,-276.36 150.25,-256.92 154.78,-240.82C159.09,-225.52 170.52,-218.44 194.92,-220.17L213.42,-221.51C222.66,-222.19 225.75,-219.62 226.92,-215.45C228.77,-208.89 222.85,-204.01 212.52,-201.10C198.01,-197.01 185.37,-200.75 176.33,-208.50L165.11,-188.18C179.13,-177.97 198.49,-175.49 218.57,-181.14ZM265.49,-319.19C276.82,-322.37 281.04,-328.71 278.29,-338.45C275.55,-348.19 268.59,-351.59 257.26,-348.40C245.93,-345.21 241.77,-338.67 244.51,-328.94C247.25,-319.20 254.16,-316.00 265.49,-319.19ZM283.03,-308.68L255.80,-301.02L283.79,-201.65L311.01,-209.32ZM356.60,-331.54C326.59,-323.09 311.15,-297.94 320.27,-265.55C329.39,-233.15 355.69,-219.75 385.70,-228.20C415.71,-236.65 431.14,-261.81 422.02,-294.20C412.90,-326.59 386.61,-339.99 356.60,-331.54ZM362.31,-311.27C377.01,-315.41 388.67,-307.54 394.60,-286.48C400.53,-265.41 394.70,-252.61 379.99,-248.47C365.09,-244.28 353.43,-252.15 347.50,-273.21C341.57,-294.28 347.40,-307.08 362.31,-311.27ZM489.55,-368.98C474.25,-364.67 463.83,-354.45 461.58,-338.80L455.33,-357.20L430.89,-350.32L458.87,-250.95L486.09,-258.62L471.26,-311.28C465.67,-331.16 474.92,-341.70 486.25,-344.89C496.59,-347.80 505.71,-344.36 510.46,-327.47L526.63,-270.03L553.86,-277.70L535.51,-342.88C528.73,-366.93 510.22,-374.80 489.55,-368.98Z" fill="#ffffff" stroke="#000000"/>
    <path d="M-599.32,75.46L-571.54,66.45L-659.96,-46.58L-692.01,-36.18L-697.24,107.23L-669.84,98.34L-669.50,63.66L-619.96,47.59ZM-669.13,41.64L-668.74,1.14L-669.48,-19.66L-669.09,-19.79L-656.96,-2.25L-632.99,29.91ZM-394.76,-29.98L-421.83,-29.36C-420.93,-12.69 -429.22,-1.84 -443.40,2.76C-465.94,10.07 -483.28,-1.69 -492.48,-30.06C-501.75,-58.61 -493.39,-78.50 -472.02,-85.44C-457.64,-90.10 -446.75,-86.98 -437.43,-72.82L-416.49,-91.00C-430.93,-111.01 -454.08,-115.52 -480.30,-107.01C-517.80,-94.85 -533.63,-62.23 -520.27,-21.04C-506.90,20.14 -475.14,37.32 -437.06,24.97C-411.03,16.52 -394.40,-2.40 -394.76,-29.98ZM-350.94,-114.62C-380.27,-105.11 -394.56,-79.65 -384.28,-47.98C-374.01,-16.31 -347.50,-4.09 -318.16,-13.60C-288.83,-23.12 -274.54,-48.58 -284.82,-80.25C-295.09,-111.91 -321.60,-124.14 -350.94,-114.62ZM-344.51,-94.81C-330.13,-99.47 -318.31,-92.14 -311.63,-71.55C-304.94,-50.96 -310.22,-38.08 -324.59,-33.42C-339.16,-28.69 -350.99,-36.02 -357.67,-56.61C-364.35,-77.21 -359.08,-90.08 -344.51,-94.81ZM-220.97,-156.79C-235.93,-151.94 -245.83,-141.42 -247.44,-125.87L-254.33,-143.82L-278.23,-136.06L-246.72,-38.93L-220.10,-47.56L-236.80,-99.04C-243.11,-118.47 -234.36,-129.25 -223.29,-132.84C-213.19,-136.12 -204.04,-133.08 -198.69,-116.56L-180.47,-60.42L-153.86,-69.05L-174.53,-132.77C-182.15,-156.28 -200.76,-163.34 -220.97,-156.79ZM-114.51,-191.33C-143.84,-181.81 -157.99,-156.60 -147.66,-124.74C-137.32,-92.88 -111.26,-80.72 -80.96,-90.56C-56.87,-98.37 -45.04,-115.52 -46.37,-134.20L-72.98,-134.15C-71.53,-122.39 -76.12,-114.03 -87.58,-110.31C-102.15,-105.58 -114.24,-112.40 -120.98,-133.18C-127.60,-153.58 -122.65,-166.78 -107.69,-171.64C-97.20,-175.04 -88.83,-171.10 -82.72,-160.20L-60.75,-177.20C-70.58,-191.62 -88.47,-199.77 -114.51,-191.33ZM-35.98,-261.68L-62.60,-253.04L-26.04,-140.36C-19.49,-120.16 -8.30,-114.13 10.55,-120.24C16.96,-122.32 23.84,-126.27 27.29,-130.18L23.95,-148.42C20.18,-145.48 18.17,-144.40 13.70,-142.95C6.51,-140.62 2.53,-142.97 -0.37,-151.91ZM79.51,-142.61C95.25,-147.72 104.76,-157.46 107.01,-172.36L113.46,-155.77L137.16,-163.46L105.65,-260.60L79.04,-251.97L95.99,-199.71C101.85,-181.64 94.08,-170.53 83.00,-166.94C71.35,-163.15 63.36,-165.93 58.44,-181.08L39.60,-239.17L12.98,-230.54L33.91,-166.04C41.91,-141.37 60.09,-136.31 79.51,-142.61ZM204.63,-183.20C232.41,-192.21 243.34,-210.79 237.29,-229.44C233.07,-242.46 222.40,-249.52 201.91,-247.17L180.77,-244.82C170.62,-243.67 166.51,-245.77 165.18,-249.85C163.23,-255.87 168.12,-261.32 179.19,-264.92C189.29,-268.19 200.64,-266.29 209.37,-259.25L220.26,-279.96C208.06,-289.10 191.47,-290.59 172.05,-284.29C143.68,-275.08 134.16,-255.46 139.26,-239.73C144.12,-224.77 155.69,-218.21 179.74,-220.86L197.97,-222.91C207.08,-223.94 210.23,-221.52 211.55,-217.44C213.63,-211.03 207.97,-205.97 197.87,-202.70C183.69,-198.10 171.06,-201.30 161.81,-208.61L151.51,-188.09C165.77,-178.54 185.00,-176.84 204.63,-183.20ZM245.65,-321.48C256.73,-325.07 260.65,-331.50 257.57,-341.02C254.48,-350.54 247.46,-353.63 236.39,-350.04C225.32,-346.44 221.45,-339.82 224.54,-330.30C227.63,-320.78 234.58,-317.88 245.65,-321.48ZM263.40,-311.78L236.79,-303.14L268.30,-206.00L294.91,-214.64ZM335.24,-337.23C305.90,-327.71 291.62,-302.25 301.89,-270.58C312.16,-238.91 338.67,-226.69 368.01,-236.20C397.34,-245.72 411.63,-271.18 401.36,-302.85C391.08,-334.52 364.57,-346.74 335.24,-337.23ZM341.66,-317.41C356.04,-322.07 367.87,-314.74 374.55,-294.15C381.23,-273.56 375.96,-260.68 361.58,-256.02C347.01,-251.29 335.18,-258.62 328.50,-279.22C321.82,-299.81 327.09,-312.68 341.66,-317.41ZM465.20,-379.39C450.25,-374.54 440.34,-364.02 438.73,-348.47L431.84,-366.42L407.94,-358.67L439.45,-261.53L466.07,-270.16L449.37,-321.65C443.07,-341.07 451.81,-351.85 462.88,-355.45C472.98,-358.72 482.13,-355.68 487.49,-339.16L505.70,-283.02L532.32,-291.65L511.64,-355.38C504.02,-378.88 485.41,-385.94 465.20,-379.39Z" fill="#ffffff" stroke="#000000"/>
    <path d="M-593.61,102.27L-566.50,92.29L-658.27,-16.00L-689.55,-4.48L-689.15,137.46L-662.42,127.62L-663.43,93.33L-615.09,75.52ZM-663.91,71.55L-665.10,31.51L-666.63,10.98L-666.25,10.84L-653.58,27.70L-628.65,58.56ZM-395.51,-9.87L-422.24,-8.21C-420.71,8.23 -428.48,19.28 -442.32,24.37C-464.31,32.47 -481.91,21.52 -492.10,-6.16C-502.37,-34.03 -494.87,-54.01 -474.02,-61.69C-459.99,-66.86 -449.11,-64.19 -439.35,-50.56L-419.35,-69.34C-434.40,-88.56 -457.45,-92.12 -483.05,-82.69C-519.63,-69.22 -534.01,-36.36 -519.21,3.82C-504.41,44.01 -472.34,59.76 -435.19,46.07C-409.78,36.72 -394.09,17.37 -395.51,-9.87ZM-355.48,-95.24C-384.10,-84.69 -397.24,-58.97 -385.85,-28.07C-374.47,2.83 -347.80,13.88 -319.17,3.34C-290.55,-7.20 -277.41,-32.92 -288.79,-63.82C-300.18,-94.72 -326.85,-105.78 -355.48,-95.24ZM-348.36,-75.90C-334.33,-81.07 -322.36,-74.28 -314.96,-54.19C-307.55,-34.09 -312.26,-21.16 -326.29,-15.99C-340.51,-10.76 -352.48,-17.54 -359.88,-37.64C-367.28,-57.73 -362.57,-70.66 -348.36,-75.90ZM-228.66,-141.95C-243.25,-136.57 -252.63,-125.80 -253.62,-110.36L-261.13,-127.83L-284.45,-119.24L-249.54,-24.46L-223.57,-34.03L-242.07,-84.26C-249.05,-103.22 -240.83,-114.21 -230.03,-118.19C-220.17,-121.82 -211.01,-119.17 -205.07,-103.06L-184.89,-48.27L-158.92,-57.84L-181.83,-120.01C-190.28,-142.95 -208.94,-149.21 -228.66,-141.95ZM-124.77,-180.21C-153.40,-169.67 -166.41,-144.21 -154.96,-113.12C-143.51,-82.03 -117.28,-71.02 -87.71,-81.91C-64.20,-90.57 -53.17,-107.98 -55.22,-126.39L-81.52,-125.31C-79.62,-113.74 -83.83,-105.30 -95.02,-101.18C-109.24,-95.94 -121.45,-102.21 -128.92,-122.49C-136.25,-142.40 -131.87,-155.64 -117.27,-161.01C-107.03,-164.79 -98.61,-161.21 -92.15,-150.68L-71.10,-168.33C-81.37,-182.20 -99.37,-189.57 -124.77,-180.21ZM-49.89,-252.79L-75.86,-243.22L-35.36,-133.27C-28.10,-113.56 -16.81,-108.03 1.58,-114.80C7.84,-117.11 14.48,-121.28 17.75,-125.28L13.74,-143.18C10.12,-140.12 8.18,-138.98 3.82,-137.37C-3.20,-134.79 -7.23,-136.96 -10.44,-145.68ZM68.88,-139.59C84.23,-145.24 93.25,-155.24 94.90,-170.06L101.92,-153.91L125.05,-162.43L90.14,-257.22L64.17,-247.65L82.95,-196.66C89.44,-179.03 82.19,-167.74 71.38,-163.76C60.01,-159.57 52.01,-162.01 46.56,-176.80L25.69,-233.48L-0.29,-223.91L22.90,-160.97C31.76,-136.90 49.92,-132.61 68.88,-139.59ZM190.96,-184.56C218.07,-194.54 228.16,-213.33 221.46,-231.53C216.78,-244.23 205.96,-250.79 185.80,-247.67L165.00,-244.53C155.01,-243.00 150.86,-244.92 149.39,-248.90C147.23,-254.78 151.85,-260.35 162.65,-264.33C172.51,-267.97 183.80,-266.53 192.70,-259.90L202.66,-280.79C190.25,-289.36 173.80,-290.18 154.84,-283.20C127.17,-273.01 118.51,-253.24 124.17,-237.89C129.55,-223.29 141.24,-217.26 164.90,-220.81L182.84,-223.55C191.81,-224.91 195.02,-222.65 196.48,-218.67C198.79,-212.41 193.39,-207.19 183.53,-203.56C169.69,-198.47 157.08,-201.14 147.66,-208.01L138.27,-187.32C152.74,-178.44 171.82,-177.50 190.96,-184.56ZM226.15,-322.82C236.96,-326.80 240.59,-333.30 237.17,-342.59C233.75,-351.88 226.69,-354.66 215.89,-350.68C205.08,-346.70 201.52,-340.01 204.94,-330.72C208.36,-321.43 215.35,-318.84 226.15,-322.82ZM244.07,-313.91L218.10,-304.35L253.01,-209.56L278.98,-219.13ZM314.08,-341.85C285.46,-331.31 272.32,-305.59 283.71,-274.69C295.09,-243.79 321.76,-232.73 350.39,-243.28C379.01,-253.82 392.15,-279.54 380.77,-310.44C369.38,-341.34 342.71,-352.40 314.08,-341.85ZM321.20,-322.52C335.23,-327.69 347.20,-320.90 354.60,-300.81C362.01,-280.71 357.30,-267.78 343.27,-262.61C329.05,-257.38 317.08,-264.16 309.68,-284.26C302.28,-304.35 306.99,-317.28 321.20,-322.52ZM440.90,-388.57C426.31,-383.19 416.93,-372.42 415.94,-356.98L408.43,-374.45L385.11,-365.86L420.02,-271.08L445.99,-280.64L427.49,-330.88C420.51,-349.84 428.73,-360.83 439.53,-364.81C449.39,-368.44 458.55,-365.79 464.49,-349.67L484.67,-294.89L510.64,-304.45L487.73,-366.63C479.28,-389.57 460.62,-395.83 440.90,-388.57Z" fill="#ffffff" stroke="#000000"/>
    <path d="M-586.63,128.64L-560.22,117.73L-655.11,14.27L-685.58,26.87L-679.68,167.13L-653.65,156.36L-655.97,122.51L-608.89,103.04ZM-657.30,101.01L-660.02,61.48L-662.33,41.25L-661.96,41.10L-648.79,57.27L-622.95,86.80ZM-395.21,10.13L-421.56,12.82C-419.40,29.01 -426.66,40.22 -440.14,45.79C-461.55,54.65 -479.37,44.51 -490.52,17.55C-501.74,-9.59 -495.11,-29.63 -474.80,-38.03C-461.14,-43.68 -450.28,-41.47 -440.11,-28.38L-421.07,-47.71C-436.69,-66.12 -459.61,-68.74 -484.54,-58.44C-520.17,-43.70 -533.11,-10.67 -516.92,28.47C-500.73,67.61 -468.43,81.93 -432.25,66.96C-407.50,56.73 -392.74,37.01 -395.21,10.13ZM-358.95,-75.78C-386.83,-64.25 -398.81,-38.32 -386.37,-8.22C-373.92,21.87 -347.13,31.76 -319.25,20.24C-291.37,8.71 -279.39,-17.22 -291.83,-47.32C-304.28,-77.41 -331.07,-87.30 -358.95,-75.78ZM-351.16,-56.94C-337.50,-62.59 -325.41,-56.35 -317.31,-36.78C-309.22,-17.21 -313.37,-4.25 -327.04,1.40C-340.88,7.13 -352.98,0.89 -361.07,-18.68C-369.17,-38.26 -365.01,-51.22 -351.16,-56.94ZM-235.43,-126.86C-249.65,-120.98 -258.50,-109.96 -258.88,-94.67L-266.98,-111.65L-289.69,-102.26L-251.51,-9.94L-226.22,-20.40L-246.45,-69.33C-254.09,-87.79 -246.39,-98.97 -235.86,-103.33C-226.26,-107.30 -217.11,-105.03 -210.62,-89.33L-188.55,-35.97L-163.26,-46.44L-188.30,-107.00C-197.54,-129.34 -216.23,-134.80 -235.43,-126.86ZM-134.25,-168.70C-162.13,-157.17 -174.00,-131.50 -161.48,-101.22C-148.96,-70.94 -122.61,-61.08 -93.81,-72.99C-70.91,-82.46 -60.69,-100.09 -63.43,-118.20L-89.38,-116.12C-87.05,-104.76 -90.89,-96.25 -101.78,-91.75C-115.63,-86.02 -127.94,-91.74 -136.11,-111.50C-144.13,-130.88 -140.31,-144.14 -126.09,-150.02C-116.12,-154.14 -107.66,-150.94 -100.87,-140.77L-80.75,-159.04C-91.44,-172.35 -109.51,-178.93 -134.25,-168.70ZM-63.06,-243.33L-88.36,-232.86L-44.07,-125.78C-36.13,-106.57 -24.76,-101.55 -6.85,-108.96C-0.75,-111.48 5.65,-115.85 8.72,-119.93L4.06,-137.47C0.61,-134.31 -1.26,-133.10 -5.51,-131.34C-12.34,-128.52 -16.41,-130.51 -19.92,-139.01ZM58.70,-136.06C73.65,-142.25 82.18,-152.47 83.23,-167.18L90.80,-151.50L113.33,-160.81L75.15,-253.13L49.85,-242.67L70.39,-193.00C77.49,-175.83 70.76,-164.40 60.24,-160.05C49.16,-155.47 41.16,-157.56 35.20,-171.96L12.37,-227.17L-12.92,-216.71L12.43,-155.41C22.12,-131.96 40.24,-128.43 58.70,-136.06ZM177.60,-185.23C204.01,-196.15 213.25,-215.11 205.92,-232.83C200.80,-245.20 189.86,-251.27 170.05,-247.41L149.62,-243.50C139.81,-241.60 135.63,-243.33 134.03,-247.21C131.66,-252.93 136.01,-258.62 146.53,-262.98C156.14,-266.95 167.35,-265.96 176.40,-259.76L185.44,-280.79C172.84,-288.77 156.55,-288.95 138.08,-281.32C111.13,-270.17 103.34,-250.30 109.53,-235.35C115.41,-221.13 127.20,-215.63 150.45,-220.06L168.07,-223.45C176.88,-225.15 180.13,-223.03 181.74,-219.16C184.26,-213.06 179.12,-207.70 169.52,-203.73C156.04,-198.15 143.48,-200.31 133.91,-206.73L125.43,-185.93C140.07,-177.71 158.96,-177.52 177.60,-185.23ZM207.02,-323.23C217.54,-327.58 220.88,-334.15 217.14,-343.20C213.40,-352.25 206.32,-354.73 195.80,-350.37C185.27,-346.02 182.01,-339.27 185.75,-330.22C189.49,-321.17 196.50,-318.88 207.02,-323.23ZM225.07,-315.13L199.78,-304.67L237.95,-212.35L263.25,-222.81ZM293.18,-345.46C265.30,-333.93 253.32,-308.00 265.76,-277.90C278.21,-247.81 305.00,-237.92 332.88,-249.45C360.76,-260.98 372.74,-286.90 360.30,-317.00C347.85,-347.09 321.06,-356.99 293.18,-345.46ZM300.97,-326.62C314.63,-332.27 326.72,-326.03 334.82,-306.46C342.91,-286.89 338.76,-273.93 325.09,-268.28C311.25,-262.55 299.15,-268.79 291.06,-288.37C282.97,-307.94 287.12,-320.90 300.97,-326.62ZM416.70,-396.54C402.48,-390.66 393.63,-379.65 393.25,-364.36L385.15,-381.33L362.44,-371.94L400.62,-279.62L425.91,-290.08L405.68,-339.01C398.04,-357.47 405.74,-368.66 416.27,-373.01C425.87,-376.98 435.02,-374.71 441.51,-359.02L463.58,-305.66L488.87,-316.12L463.83,-376.68C454.59,-399.02 435.90,-404.48 416.70,-396.54Z" fill="#ffffff" stroke="#000000"/>
    <path d="M-904.98,492L-898.94,492L-895.48,478.32L-894.30,472.39L-894.23,472.39L-893.05,478.32L-889.55,492L-883.66,492L-876.37,466.92L-881.73,466.92L-886.63,487.63L-891.72,466.92L-896.74,466.92L-901.75,487.63L-906.69,466.92L-912.28,466.92ZM-864.21,472.62C-869.95,472.62 -873.94,476.31 -873.94,482.50C-873.94,488.69 -869.95,492.38 -864.21,492.38C-858.47,492.38 -854.48,488.69 -854.48,482.50C-854.48,476.31 -858.47,472.62 -864.21,472.62ZM-864.21,476.50C-861.40,476.50 -859.72,478.47 -859.72,482.50C-859.72,486.53 -861.40,488.50 -864.21,488.50C-867.06,488.50 -868.73,486.53 -868.73,482.50C-868.73,478.47 -867.06,476.50 -864.21,476.50ZM-850.11,492L-844.90,492L-844.90,482.16C-844.90,478.74 -842.59,477.10 -840.27,477.10C-839.09,477.10 -838.44,477.22 -837.91,477.41L-837.30,473.04C-837.76,472.77 -838.52,472.62 -839.36,472.62C-842.32,472.62 -844.26,474.10 -845.25,476.72L-845.59,473L-850.11,473ZM-820.17,492L-814.28,492L-821.88,480.45L-814.73,473L-820.66,473L-828.87,481.70L-828.87,464.68L-834.07,464.68L-834.07,492L-828.87,492L-828.87,487.29L-825.41,483.60ZM-801.51,466.54C-807.93,466.54 -811.77,470.00 -811.77,474.44C-811.77,478.21 -809.22,480.26 -804.78,481.25L-799.68,482.39C-797.29,482.92 -796.57,483.91 -796.57,485.16C-796.57,487.10 -798.32,488.16 -801.39,488.16C-805.12,488.16 -808.27,486.41 -809.98,483.94L-812.95,487.48C-810.67,490.37 -806.60,492.38 -801.39,492.38C-795.35,492.38 -791.17,489.49 -791.17,484.51C-791.17,481.02 -793.19,478.85 -798.13,477.75L-802.80,476.69C-805.42,476.08 -806.33,475.17 -806.33,473.80C-806.33,472.13 -804.97,470.76 -801.70,470.76C-798.47,470.76 -796.11,471.94 -794.02,474.60L-791.10,471.21C-793.53,468.14 -796.95,466.54 -801.51,466.54ZM-769.36,488.81C-770.27,488.81 -770.73,488.35 -770.73,487.36L-770.73,479.65C-770.73,474.98 -774.07,472.62 -779.05,472.62C-783.99,472.62 -786.88,474.82 -787.75,478.17L-783.31,479.54C-782.66,477.29 -781.14,476.42 -779.28,476.42C-777.26,476.42 -775.90,477.71 -775.90,479.88L-775.90,480.60L-782.43,481.93C-785.85,482.61 -787.71,484.44 -787.71,487.25C-787.71,490.59 -785.32,492.38 -781.44,492.38C-779.05,492.38 -776.62,491.39 -775.40,489.64C-774.83,491.43 -773.08,492.30 -770.92,492.34C-769.89,492.34 -769.06,492.15 -768.45,491.85L-768.14,488.62C-768.49,488.73 -768.94,488.81 -769.36,488.81ZM-780.11,488.69C-781.44,488.69 -782.51,488.01 -782.51,486.76C-782.51,485.43 -781.63,484.97 -779.89,484.63L-775.90,483.83L-775.90,485.01C-775.90,487.78 -777.95,488.69 -780.11,488.69ZM-753.59,472.62C-756.52,472.62 -758.87,473.91 -760.05,476.57L-760.24,473L-764.91,473L-764.91,492L-759.71,492L-759.71,481.93C-759.71,478.13 -757.54,476.72 -755.38,476.72C-753.40,476.72 -751.96,477.79 -751.96,481.02L-751.96,492L-746.75,492L-746.75,479.54C-746.75,474.94 -749.64,472.62 -753.59,472.62ZM-733.79,492.38C-728.36,492.38 -725.36,489.72 -725.36,486.07C-725.36,483.53 -726.84,481.66 -730.60,480.90L-734.48,480.11C-736.34,479.73 -736.95,479.12 -736.95,478.32C-736.95,477.14 -735.77,476.46 -733.60,476.46C-731.63,476.46 -729.73,477.45 -728.59,479.19L-725.47,476.15C-727.10,473.84 -729.95,472.62 -733.75,472.62C-739.30,472.62 -742.11,475.55 -742.11,478.62C-742.11,481.55 -740.44,483.37 -736.03,484.29L-732.69,484.97C-731.02,485.31 -730.60,485.92 -730.60,486.72C-730.60,487.97 -731.89,488.54 -733.87,488.54C-736.64,488.54 -738.69,487.25 -739.91,485.43L-742.91,488.47C-740.94,490.97 -737.63,492.38 -733.79,492.38ZM-707.34,479.69L-720.76,479.69L-720.76,484.17L-707.34,484.17ZM-691.73,466.54C-698.15,466.54 -701.99,470.00 -701.99,474.44C-701.99,478.21 -699.44,480.26 -694.99,481.25L-689.90,482.39C-687.51,482.92 -686.79,483.91 -686.79,485.16C-686.79,487.10 -688.53,488.16 -691.61,488.16C-695.34,488.16 -698.49,486.41 -700.20,483.94L-703.16,487.48C-700.88,490.37 -696.82,492.38 -691.61,492.38C-685.57,492.38 -681.39,489.49 -681.39,484.51C-681.39,481.02 -683.40,478.85 -688.34,477.75L-693.02,476.69C-695.64,476.08 -696.55,475.17 -696.55,473.80C-696.55,472.13 -695.18,470.76 -691.92,470.76C-688.69,470.76 -686.33,471.94 -684.24,474.60L-681.31,471.21C-683.75,468.14 -687.17,466.54 -691.73,466.54ZM-659.35,481.47C-659.35,476.38 -662.66,472.62 -668.39,472.62C-674.06,472.62 -678.01,476.27 -678.01,482.50C-678.01,488.73 -674.13,492.38 -668.13,492.38C-664.25,492.38 -660.95,490.67 -659.73,487.67L-663.87,486.07C-664.63,487.59 -665.92,488.50 -668.17,488.50C-670.79,488.50 -672.50,487.10 -672.92,484.13L-659.50,484.13C-659.43,483.45 -659.35,482.50 -659.35,481.47ZM-668.43,476.46C-666.08,476.46 -664.63,477.90 -664.37,480.52L-672.88,480.52C-672.38,477.83 -670.83,476.46 -668.43,476.46ZM-654.94,492L-649.74,492L-649.74,481.93C-649.74,478.21 -647.57,476.72 -645.56,476.72C-643.62,476.72 -642.25,477.79 -642.25,480.56L-642.25,492L-637.04,492L-637.04,481.78C-637.04,478.47 -635.18,476.72 -632.86,476.72C-630.96,476.72 -629.60,477.79 -629.60,480.56L-629.60,492L-624.43,492L-624.39,479.54C-624.35,474.86 -627.47,472.62 -631.15,472.62C-633.74,472.62 -636.44,473.84 -637.61,476.38C-638.72,473.87 -641.07,472.62 -643.81,472.62C-646.51,472.62 -648.82,473.87 -650.08,476.42L-650.27,473L-654.94,473ZM-616.41,470.26C-614.24,470.26 -613.18,469.35 -613.18,467.49C-613.18,465.63 -614.24,464.68 -616.41,464.68C-618.58,464.68 -619.64,465.63 -619.64,467.49C-619.64,469.35 -618.58,470.26 -616.41,470.26ZM-613.83,473L-619.03,473L-619.03,492L-613.83,492ZM-607.78,492L-596.42,492C-590.46,492 -587.26,489.45 -587.26,485.12C-587.26,482.20 -589.20,479.84 -592.70,479.35L-592.70,479.31C-589.54,478.78 -587.91,476.46 -587.91,473.76C-587.91,469.43 -590.72,466.92 -596.80,466.92L-607.78,466.92ZM-602.69,477.45L-602.69,470.99L-597.49,470.99C-594.71,470.99 -593.34,472.05 -593.34,474.22C-593.34,476.38 -594.71,477.45 -597.49,477.45ZM-602.69,488.05L-602.69,481.47L-596.88,481.47C-594.07,481.47 -592.70,482.65 -592.70,484.74C-592.70,486.83 -594.07,488.05 -596.88,488.05ZM-574.12,472.62C-579.85,472.62 -583.84,476.31 -583.84,482.50C-583.84,488.69 -579.85,492.38 -574.12,492.38C-568.38,492.38 -564.39,488.69 -564.39,482.50C-564.39,476.31 -568.38,472.62 -574.12,472.62ZM-574.12,476.50C-571.30,476.50 -569.63,478.47 -569.63,482.50C-569.63,486.53 -571.30,488.50 -574.12,488.50C-576.97,488.50 -578.64,486.53 -578.64,482.50C-578.64,478.47 -576.97,476.50 -574.12,476.50ZM-554.89,464.68L-560.09,464.68L-560.09,486.72C-560.09,490.67 -558.46,492.38 -554.77,492.38C-553.52,492.38 -552.08,492.08 -551.24,491.58L-550.78,488.16C-551.62,488.47 -552.04,488.54 -552.91,488.54C-554.32,488.54 -554.89,487.90 -554.89,486.15ZM-534.75,464.68L-534.75,476.19C-535.77,474.03 -537.79,472.62 -540.52,472.62C-545.24,472.62 -548.85,476.23 -548.85,482.54C-548.85,488.73 -545.43,492.38 -540.71,492.38C-537.86,492.38 -535.51,490.86 -534.44,488.31L-534.22,492L-529.54,492L-529.54,464.68ZM-539.19,488.39C-542.01,488.39 -543.64,486.34 -543.64,482.50C-543.64,478.66 -541.93,476.61 -539.12,476.61C-536.46,476.61 -534.75,478.74 -534.75,482.35C-534.75,486.19 -536.50,488.39 -539.19,488.39Z"/>
</svg>