<?xml version="1.0"?>
<svg xmlns="http://www.w3.org/2000/svg" width="1920" height="1080" viewBox="-960 -540 1920 1080">
    <path d="M-911.48,464.07L-907.38,464.07L-907.38,488.20L-901.94,488.20L-901.94,492L-911.48,492ZM-890.66,484.55L-890.66,486.95C-890.77,488.96 -891.38,490.37 -892.75,491.47C-893.43,492.04 -894.38,492.30 -895.63,492.30C-898.10,492.30 -899.36,490.94 -899.97,489.57C-900.31,488.77 -900.54,487.86 -900.57,486.83L-900.57,476.38C-900.46,474.37 -899.81,472.89 -898.45,471.75C-897.80,471.18 -896.85,470.91 -895.60,470.91C-893.13,470.91 -891.87,472.28 -891.26,473.61C-890.92,474.41 -890.69,475.28 -890.66,476.27L-890.66,482.31L-897.00,482.31L-897.00,486.83C-896.96,487.63 -896.74,488.20 -896.39,488.62C-896.20,488.81 -895.94,488.92 -895.60,488.92C-894.87,488.92 -894.53,488.47 -894.38,487.90C-894.27,487.59 -894.23,487.25 -894.23,486.83L-894.23,484.55ZM-897.00,479.31L-894.23,479.31L-894.23,476.38C-894.23,475.58 -894.38,475.01 -894.76,474.56C-894.95,474.37 -895.25,474.25 -895.60,474.25C-896.32,474.25 -896.62,474.75 -896.81,475.32C-896.93,475.62 -896.96,475.96 -897.00,476.38ZM-882.22,476.15C-882.22,475.81 -882.22,475.28 -882.33,474.90C-882.49,474.52 -882.79,474.25 -883.28,474.25C-883.93,474.25 -884.20,474.75 -884.31,475.36C-884.35,475.66 -884.39,476.00 -884.39,476.34C-884.39,476.69 -884.39,477.03 -884.39,477.33L-888.22,477.33L-888.22,476.46C-888.22,474.94 -887.65,473.57 -886.74,472.54C-885.83,471.52 -884.54,470.91 -883.06,470.91C-881.80,470.91 -880.66,471.40 -879.79,472.24C-878.91,473.08 -878.38,474.25 -878.38,475.62L-878.38,488.39C-878.38,490.25 -878.27,491.09 -878.12,492L-881.88,492C-882.22,491.58 -882.22,490.59 -882.22,490.33L-882.49,490.33C-882.68,490.67 -883.02,491.16 -883.55,491.58C-884.08,492 -884.80,492.30 -885.56,492.30C-886.06,492.30 -886.86,492.11 -887.46,491.35C-888.11,490.63 -888.64,489.34 -888.64,487.17C-888.64,484.86 -887.96,483.18 -887.05,482.04C-886.13,480.90 -884.99,480.18 -884.04,479.69C-883.09,479.19 -882.37,478.85 -882.22,478.43ZM-882.22,481.97C-884.08,482.77 -884.88,484.63 -884.88,486.60C-884.88,486.87 -884.84,487.33 -884.69,487.74C-884.54,488.20 -884.27,488.54 -883.82,488.54C-882.94,488.54 -882.22,488.01 -882.22,487.29ZM-866.37,481.97C-866.49,483.91 -867.17,485.27 -868.50,486.30C-869.19,486.83 -870.14,487.10 -871.31,487.10C-871.43,487.10 -871.54,487.10 -871.66,487.10C-871.77,487.10 -871.92,487.10 -872.04,487.06C-872.38,487.36 -872.57,487.67 -872.57,488.01C-872.57,488.47 -872.19,488.73 -871.62,488.88C-871.05,489.07 -870.36,489.19 -869.64,489.30C-868.43,489.45 -867.13,489.76 -866.07,490.48C-865.04,491.20 -864.32,492.30 -864.32,494.13C-864.32,496.14 -865.20,497.51 -866.41,498.31C-867.67,499.11 -869.34,499.45 -870.90,499.45C-872.72,499.41 -874.28,499.14 -875.34,498.54C-876.44,497.93 -877.05,496.94 -877.05,495.42C-877.05,494.70 -876.67,494.09 -876.10,493.56C-875.53,493.03 -874.77,492.61 -874.05,492.27C-875.30,491.92 -876.37,491.13 -876.37,489.49C-876.37,488.88 -876.03,488.28 -875.57,487.71C-875.11,487.14 -874.54,486.68 -873.97,486.38C-875.08,485.65 -875.61,484.51 -875.87,483.56C-876.03,482.99 -876.14,482.42 -876.18,481.85L-876.18,476.19C-876.03,474.25 -875.42,472.85 -874.09,471.75C-873.44,471.18 -872.49,470.91 -871.31,470.91C-869.38,470.91 -868.20,471.78 -867.48,472.81C-867.21,472.54 -866.75,472.09 -866.15,471.67C-865.58,471.25 -864.93,470.91 -864.32,470.91L-864.32,474.33C-865.35,474.33 -866.11,474.52 -866.56,474.79C-866.53,474.98 -866.49,475.17 -866.45,475.28C-866.45,475.43 -866.45,475.58 -866.41,475.70C-866.37,475.81 -866.37,475.96 -866.37,476.08ZM-870.14,476.34C-870.14,475.62 -870.29,475.17 -870.59,474.75C-870.74,474.56 -870.97,474.44 -871.31,474.44C-871.92,474.44 -872.23,474.94 -872.34,475.39C-872.42,475.66 -872.45,476.00 -872.42,476.34L-872.42,482.04C-872.45,482.77 -872.34,483.22 -872.00,483.60C-871.85,483.79 -871.62,483.91 -871.31,483.91C-870.67,483.91 -870.40,483.45 -870.25,482.99C-870.17,482.73 -870.14,482.39 -870.14,482.04ZM-871.92,492.95C-872.72,493.41 -873.33,493.98 -873.33,494.77C-873.33,495.57 -872.61,496.22 -870.82,496.22C-870.17,496.22 -869.45,496.10 -868.88,495.88C-868.31,495.65 -867.89,495.31 -867.89,494.81C-867.89,494.47 -867.93,494.20 -868.20,493.94C-868.50,493.67 -869.00,493.48 -869.95,493.33ZM-856.84,471.21L-853.00,471.21L-853.00,492L-856.84,492L-856.84,490.25C-856.91,490.29 -857.06,490.44 -857.25,490.63C-857.71,491.09 -858.24,491.62 -858.93,492C-859.27,492.19 -859.61,492.30 -859.95,492.30C-860.98,492.30 -861.70,491.70 -862.16,490.90C-862.61,490.14 -862.84,489.11 -862.84,488.24L-862.84,471.21L-859.00,471.21L-859.00,487.67C-859.00,488.47 -858.55,488.58 -858.09,488.58C-857.67,488.58 -857.44,488.35 -857.18,488.09C-857.06,487.97 -856.95,487.78 -856.84,487.59ZM-840.34,484.55L-840.34,486.95C-840.46,488.96 -841.07,490.37 -842.43,491.47C-843.12,492.04 -844.07,492.30 -845.32,492.30C-847.79,492.30 -849.05,490.94 -849.65,489.57C-850.00,488.77 -850.22,487.86 -850.26,486.83L-850.26,476.38C-850.15,474.37 -849.50,472.89 -848.13,471.75C-847.49,471.18 -846.54,470.91 -845.28,470.91C-842.81,470.91 -841.56,472.28 -840.95,473.61C-840.61,474.41 -840.38,475.28 -840.34,476.27L-840.34,482.31L-846.69,482.31L-846.69,486.83C-846.65,487.63 -846.42,488.20 -846.08,488.62C-845.89,488.81 -845.63,488.92 -845.28,488.92C-844.56,488.92 -844.22,488.47 -844.07,487.90C-843.95,487.59 -843.92,487.25 -843.92,486.83L-843.92,484.55ZM-846.69,479.31L-843.92,479.31L-843.92,476.38C-843.92,475.58 -844.07,475.01 -844.45,474.56C-844.64,474.37 -844.94,474.25 -845.28,474.25C-846.01,474.25 -846.31,474.75 -846.50,475.32C-846.61,475.62 -846.65,475.96 -846.69,476.38ZM-831.15,474.10L-831.15,469.81C-831.15,469.05 -831.30,468.52 -831.68,468.06C-831.87,467.87 -832.17,467.76 -832.52,467.76C-833.24,467.76 -833.58,468.29 -833.73,468.78C-833.85,469.09 -833.88,469.43 -833.88,469.81L-833.88,486.60C-833.88,487.40 -833.69,487.93 -833.31,488.35C-833.12,488.54 -832.86,488.66 -832.52,488.66C-831.79,488.66 -831.45,488.20 -831.30,487.63C-831.19,487.36 -831.15,487.02 -831.15,486.60L-831.15,481.55L-832.78,481.55L-832.78,478.09L-827.04,478.09L-827.04,492L-829.48,492L-829.97,490.67C-830.73,491.62 -831.83,492.30 -833.16,492.30C-834.49,492.30 -835.40,491.96 -836.09,491.35C-836.77,490.78 -837.23,490.06 -837.53,489.30C-837.87,488.43 -838.03,487.40 -837.99,486.26L-837.99,469.81C-837.95,468.71 -837.72,467.68 -837.30,466.81C-836.96,466.05 -836.47,465.29 -835.71,464.72C-834.95,464.15 -833.88,463.77 -832.52,463.77C-831.15,463.77 -830.12,464.15 -829.36,464.72C-828.60,465.29 -828.07,466.05 -827.73,466.81C-827.31,467.68 -827.08,468.71 -827.04,469.81L-827.04,474.10ZM-814.54,486.95C-814.66,488.96 -815.26,490.37 -816.59,491.47C-817.28,492.04 -818.23,492.30 -819.48,492.30C-821.95,492.30 -823.17,490.94 -823.78,489.57C-824.12,488.77 -824.35,487.86 -824.38,486.83L-824.38,476.38C-824.27,474.37 -823.66,472.89 -822.33,471.75C-821.69,471.18 -820.74,470.91 -819.48,470.91C-817.01,470.91 -815.76,472.28 -815.15,473.61C-814.81,474.41 -814.58,475.28 -814.54,476.27ZM-818.15,476.38C-818.11,475.58 -818.27,475.01 -818.65,474.56C-818.84,474.37 -819.14,474.25 -819.48,474.25C-820.20,474.25 -820.51,474.75 -820.66,475.32C-820.77,475.62 -820.81,475.96 -820.77,476.38L-820.77,486.83C-820.81,487.63 -820.62,488.20 -820.28,488.62C-820.09,488.81 -819.82,488.92 -819.48,488.92C-818.76,488.92 -818.42,488.47 -818.27,487.90C-818.15,487.59 -818.11,487.25 -818.15,486.83ZM-807.21,466.08L-807.21,471.21L-804.59,471.21L-804.59,474.67L-807.21,474.67L-807.21,485.01C-807.21,485.65 -807.21,486.49 -807.06,487.17C-806.90,487.86 -806.60,488.43 -805.99,488.43C-805.69,488.43 -805.31,488.39 -805.04,488.35C-804.89,488.31 -804.74,488.31 -804.59,488.28L-804.59,492.04C-804.78,492.08 -804.97,492.15 -805.16,492.19C-805.54,492.27 -806.03,492.30 -806.64,492.30C-808.88,492.30 -809.94,491.16 -810.48,489.72C-811.01,488.28 -811.05,486.53 -811.05,485.31L-811.05,474.67L-812.98,474.67L-812.98,471.21L-811.05,471.21L-811.05,466.08ZM-798.70,492L-802.53,492L-802.53,464.07L-798.70,464.07L-798.70,472.96C-798.62,472.92 -798.47,472.77 -798.24,472.54C-797.82,472.13 -797.25,471.56 -796.57,471.18C-796.23,470.99 -795.92,470.91 -795.58,470.91C-794.55,470.91 -793.83,471.52 -793.38,472.28C-792.92,473.08 -792.69,474.10 -792.69,474.98L-792.69,492L-796.53,492L-796.53,475.55C-796.53,474.75 -796.99,474.63 -797.44,474.63C-797.86,474.63 -798.09,474.86 -798.35,475.13C-798.47,475.28 -798.58,475.43 -798.70,475.62ZM-789.73,464.07L-785.89,464.07L-785.89,467.91L-789.73,467.91ZM-789.73,492L-789.73,471.21L-785.89,471.21L-785.89,492ZM-779.32,487.21C-779.32,487.97 -779.28,488.88 -778.25,488.88C-777.38,488.88 -777.15,488.47 -777.15,487.21L-777.15,484.32L-773.31,484.32L-773.31,486.34C-773.31,488.66 -773.73,490.14 -774.57,491.05C-775.40,491.96 -776.62,492.30 -778.25,492.30C-779.62,492.30 -780.87,491.92 -781.75,490.97C-782.62,490.02 -783.15,488.47 -783.15,486.15L-783.15,477.07C-783.15,474.75 -782.62,473.19 -781.75,472.24C-780.87,471.29 -779.62,470.91 -778.25,470.91C-776.62,470.91 -775.40,471.25 -774.57,472.16C-773.73,473.08 -773.31,474.56 -773.31,476.88L-773.31,478.51L-777.15,478.51L-777.15,476.00C-777.15,474.75 -777.38,474.33 -778.25,474.33C-779.28,474.33 -779.32,475.24 -779.32,476.00ZM-771.03,479.95L-765.52,479.95L-765.52,483.56L-771.03,483.56ZM-755.30,492L-757.43,480.22L-758.53,480.22L-758.53,492L-762.63,492L-762.63,464.07L-758.53,464.07C-753.63,464.07 -751.54,466.84 -751.54,472.13C-751.54,474.90 -752.26,477.41 -753.82,478.47L-751.20,492ZM-758.53,476.42C-757.96,476.42 -757.20,476.34 -756.59,475.81C-755.98,475.28 -755.49,474.25 -755.49,472.28C-755.49,470.30 -755.98,469.24 -756.59,468.71C-757.20,468.17 -757.96,468.14 -758.53,468.14ZM-739.30,484.55L-739.30,486.95C-739.42,488.96 -740.02,490.37 -741.39,491.47C-742.08,492.04 -743.03,492.30 -744.28,492.30C-746.75,492.30 -748.00,490.94 -748.61,489.57C-748.95,488.77 -749.18,487.86 -749.22,486.83L-749.22,476.38C-749.11,474.37 -748.46,472.89 -747.09,471.75C-746.45,471.18 -745.50,470.91 -744.24,470.91C-741.77,470.91 -740.52,472.28 -739.91,473.61C-739.57,474.41 -739.34,475.28 -739.30,476.27L-739.30,482.31L-745.65,482.31L-745.65,486.83C-745.61,487.63 -745.38,488.20 -745.04,488.62C-744.85,488.81 -744.58,488.92 -744.24,488.92C-743.52,488.92 -743.18,488.47 -743.03,487.90C-742.91,487.59 -742.87,487.25 -742.87,486.83L-742.87,484.55ZM-745.65,479.31L-742.87,479.31L-742.87,476.38C-742.87,475.58 -743.03,475.01 -743.41,474.56C-743.60,474.37 -743.90,474.25 -744.24,474.25C-744.96,474.25 -745.27,474.75 -745.46,475.32C-745.57,475.62 -745.61,475.96 -745.65,476.38ZM-727.29,481.97C-727.41,483.91 -728.09,485.27 -729.42,486.30C-730.11,486.83 -731.06,487.10 -732.23,487.10C-732.35,487.10 -732.46,487.10 -732.58,487.10C-732.69,487.10 -732.84,487.10 -732.96,487.06C-733.30,487.36 -733.49,487.67 -733.49,488.01C-733.49,488.47 -733.11,488.73 -732.54,488.88C-731.97,489.07 -731.28,489.19 -730.56,489.30C-729.35,489.45 -728.05,489.76 -726.99,490.48C-725.96,491.20 -725.24,492.30 -725.24,494.13C-725.24,496.14 -726.12,497.51 -727.33,498.31C-728.59,499.11 -730.26,499.45 -731.82,499.45C-733.64,499.41 -735.20,499.14 -736.26,498.54C-737.36,497.93 -737.97,496.94 -737.97,495.42C-737.97,494.70 -737.59,494.09 -737.02,493.56C-736.45,493.03 -735.69,492.61 -734.97,492.27C-736.22,491.92 -737.29,491.13 -737.29,489.49C-737.29,488.88 -736.95,488.28 -736.49,487.71C-736.03,487.14 -735.46,486.68 -734.89,486.38C-736.00,485.65 -736.53,484.51 -736.79,483.56C-736.95,482.99 -737.06,482.42 -737.10,481.85L-737.10,476.19C-736.95,474.25 -736.34,472.85 -735.01,471.75C-734.36,471.18 -733.41,470.91 -732.23,470.91C-730.30,470.91 -729.12,471.78 -728.40,472.81C-728.13,472.54 -727.67,472.09 -727.07,471.67C-726.50,471.25 -725.85,470.91 -725.24,470.91L-725.24,474.33C-726.27,474.33 -727.03,474.52 -727.48,474.79C-727.45,474.98 -727.41,475.17 -727.37,475.28C-727.37,475.43 -727.37,475.58 -727.33,475.70C-727.29,475.81 -727.29,475.96 -727.29,476.08ZM-731.06,476.34C-731.06,475.62 -731.21,475.17 -731.51,474.75C-731.66,474.56 -731.89,474.44 -732.23,474.44C-732.84,474.44 -733.15,474.94 -733.26,475.39C-733.34,475.66 -733.37,476.00 -733.34,476.34L-733.34,482.04C-733.37,482.77 -733.26,483.22 -732.92,483.60C-732.77,483.79 -732.54,483.91 -732.23,483.91C-731.59,483.91 -731.32,483.45 -731.17,482.99C-731.09,482.73 -731.06,482.39 -731.06,482.04ZM-732.84,492.95C-733.64,493.41 -734.25,493.98 -734.25,494.77C-734.25,495.57 -733.53,496.22 -731.74,496.22C-731.09,496.22 -730.37,496.10 -729.80,495.88C-729.23,495.65 -728.81,495.31 -728.81,494.81C-728.81,494.47 -728.85,494.20 -729.12,493.94C-729.42,493.67 -729.92,493.48 -730.87,493.33ZM-717.76,471.21L-713.92,471.21L-713.92,492L-717.76,492L-717.76,490.25C-717.83,490.29 -717.98,490.44 -718.17,490.63C-718.63,491.09 -719.16,491.62 -719.85,492C-720.19,492.19 -720.53,492.30 -720.87,492.30C-721.90,492.30 -722.62,491.70 -723.08,490.90C-723.53,490.14 -723.76,489.11 -723.76,488.24L-723.76,471.21L-719.92,471.21L-719.92,487.67C-719.92,488.47 -719.47,488.58 -719.01,488.58C-718.59,488.58 -718.36,488.35 -718.10,488.09C-717.98,487.97 -717.87,487.78 -717.76,487.59ZM-710.88,492L-710.88,464.07L-707.04,464.07L-707.04,492ZM-698.19,476.15C-698.19,475.81 -698.19,475.28 -698.30,474.90C-698.45,474.52 -698.76,474.25 -699.25,474.25C-699.90,474.25 -700.16,474.75 -700.28,475.36C-700.31,475.66 -700.35,476.00 -700.35,476.34C-700.35,476.69 -700.35,477.03 -700.35,477.33L-704.19,477.33L-704.19,476.46C-704.19,474.94 -703.62,473.57 -702.71,472.54C-701.80,471.52 -700.50,470.91 -699.02,470.91C-697.77,470.91 -696.63,471.40 -695.75,472.24C-694.88,473.08 -694.35,474.25 -694.35,475.62L-694.35,488.39C-694.35,490.25 -694.23,491.09 -694.08,492L-697.84,492C-698.19,491.58 -698.19,490.59 -698.19,490.33L-698.45,490.33C-698.64,490.67 -698.98,491.16 -699.52,491.58C-700.05,492 -700.77,492.30 -701.53,492.30C-702.02,492.30 -702.82,492.11 -703.43,491.35C-704.08,490.63 -704.61,489.34 -704.61,487.17C-704.61,484.86 -703.92,483.18 -703.01,482.04C-702.10,480.90 -700.96,480.18 -700.01,479.69C-699.06,479.19 -698.34,478.85 -698.19,478.43ZM-698.19,481.97C-700.05,482.77 -700.85,484.63 -700.85,486.60C-700.85,486.87 -700.81,487.33 -700.66,487.74C-700.50,488.20 -700.24,488.54 -699.78,488.54C-698.91,488.54 -698.19,488.01 -698.19,487.29ZM-684.05,475.17C-684.39,475.05 -684.77,475.01 -685.11,475.01C-685.72,475.01 -686.44,475.09 -687.05,475.66C-687.77,476.27 -687.89,476.91 -687.89,477.56L-687.89,492L-691.73,492L-691.73,471.21L-687.89,471.21L-687.89,473.53C-687.85,473.27 -687.58,472.62 -686.98,472.01C-686.37,471.44 -685.46,470.91 -684.05,470.91Z"/>
</svg>