<?xml version="1.0"?>
<svg xmlns="http://www.w3.org/2000/svg" width="1920" height="1080" viewBox="-960 -540 1920 1080">
    <path d="M-552.89,-260.66C-552.89,-260.66 -559.55,-322.60 -654.12,-322.60C-718.95,-322.60 -759.57,-285.08 -759.57,-233.14C-759.57,-181.41 -716.73,-144.11 -660.56,-144.11C-609.50,-144.11 -595.29,-172.53 -595.29,-172.53L-595.29,-147L-558.22,-147L-558.22,-238.69L-665.67,-238.69L-665.67,-214.49L-595.29,-214.49C-595.29,-214.49 -599.96,-171.42 -654.35,-171.42C-694.53,-171.42 -718.50,-197.84 -718.50,-233.14C-718.50,-267.10 -698.08,-295.30 -654.35,-295.30C-594.18,-295.30 -593.52,-249.56 -593.52,-249.56ZM-478.52,-221.81C-478.52,-221.81 -474.97,-248.68 -459.43,-248.68C-455.21,-248.68 -449.66,-246.68 -449.66,-237.58C-449.66,-220.70 -453.44,-208.27 -453.44,-208.27L-417.92,-217.37C-417.92,-217.37 -415.03,-225.59 -415.03,-240.91C-415.03,-258.22 -422.58,-273.10 -448.11,-273.10C-483.85,-273.10 -483.41,-235.36 -483.41,-235.36L-493.84,-270.21L-515.15,-270.21L-515.15,-147L-478.52,-147ZM-269.62,-180.74L-267.62,-226.70C-266.73,-251.78 -287.82,-273.10 -327.78,-273.10C-389.94,-273.10 -401.71,-231.14 -401.71,-231.14L-363.53,-221.37C-363.53,-221.37 -363.30,-248.68 -329.56,-248.68C-306.92,-248.68 -304.25,-234.91 -304.25,-223.59C-371.74,-217.82 -395.94,-194.06 -395.94,-173.42C-395.94,-154.77 -382.17,-144.11 -359.53,-144.11C-321.35,-144.11 -300.48,-183.85 -299.37,-185.85C-299.37,-160.99 -292.71,-144.11 -266.29,-144.11C-246.98,-144.11 -236.76,-155.66 -236.76,-155.66L-244.09,-179.63C-244.09,-179.63 -250.53,-168.53 -260.74,-168.53C-267.40,-168.53 -269.84,-173.86 -269.62,-180.74ZM-357.75,-180.97C-357.75,-192.73 -344.66,-208.05 -304.25,-211.82L-304.25,-203.17C-304.25,-203.17 -319.13,-168.53 -344.88,-168.53C-355.98,-168.53 -357.75,-175.64 -357.75,-180.97ZM-192.36,-196.28L-227.88,-187.18C-227.88,-187.18 -225.00,-144.11 -154.18,-144.11C-118.66,-144.11 -90.24,-157.43 -90.24,-182.52C-90.24,-200.72 -102.01,-214.93 -133.09,-220.04L-164.17,-225.14C-178.60,-227.59 -187.70,-229.58 -187.70,-236.91C-187.70,-243.13 -180.60,-249.79 -165.06,-249.79C-133.53,-249.79 -132.42,-228.03 -132.42,-228.03L-96.90,-237.13C-96.90,-237.13 -102.01,-273.10 -163.50,-273.10C-195.92,-273.10 -221.67,-259.11 -221.67,-234.69C-221.67,-212.27 -199.69,-204.72 -180.15,-201.17L-151.29,-195.84C-133.98,-192.73 -126.43,-188.96 -126.43,-181.41C-126.43,-172.75 -139.08,-168.53 -153.74,-168.53C-192.59,-168.53 -192.36,-196.28 -192.36,-196.28ZM-24.75,-166.76C-24.75,-166.76 -15.21,-144.11 19.20,-144.11C56.50,-144.11 84.03,-170.98 84.03,-208.72C84.03,-246.46 56.50,-273.10 18.98,-273.10C-20.76,-273.10 -31.64,-242.02 -31.64,-242.02L-40.07,-270.21L-61.38,-270.21L-61.38,-97.49L-24.75,-97.49ZM7.21,-248.68C33.63,-248.68 45.62,-231.14 45.62,-208.72C45.62,-186.29 33.63,-168.53 7.21,-168.53C-19.65,-168.53 -30.53,-188.29 -30.53,-208.72C-30.53,-229.14 -19.65,-248.68 7.21,-248.68ZM193.70,-248.68L222.11,-248.68L222.11,-190.07C222.11,-158.32 240.32,-144.11 270.06,-144.11C301.81,-144.11 316.46,-162.32 316.46,-162.32L309.36,-186.29C309.36,-186.29 299.59,-168.53 280.05,-168.53C264.29,-168.53 258.30,-177.64 258.30,-192.73L258.30,-248.68L314.91,-248.68L314.91,-270.21L258.30,-270.21L258.30,-316.61L223.00,-294.41L223.00,-270.21L193.70,-270.21ZM377.51,-322.60C377.51,-322.60 361.08,-319.49 340.88,-319.49L340.88,-147L377.51,-147L377.51,-221.59C377.51,-221.59 383.95,-248.68 415.69,-248.68C433.01,-248.68 445.44,-240.68 445.44,-224.26L445.44,-147L481.85,-147L481.85,-222.48C481.85,-253.78 463.87,-273.10 425.69,-273.10C384.17,-273.10 377.95,-242.90 377.51,-240.02ZM552.00,-206.50L659.90,-204.28C663.23,-221.81 659.45,-273.10 589.97,-273.10C544.01,-273.10 515.15,-245.35 515.15,-208.72C515.15,-166.98 550.23,-144.11 589.97,-144.11C653.90,-144.11 663.23,-187.85 663.23,-187.85L627.71,-196.95C627.71,-196.95 627.48,-168.53 593.74,-168.53C563.77,-168.53 552.23,-187.40 552.00,-206.50ZM621.93,-226.03L554.22,-223.81C554.22,-223.81 558.66,-249.79 589.30,-249.79C618.83,-249.79 621.93,-226.03 621.93,-226.03ZM-746.03,135.92L-593.96,135.92L-593.96,111.50L-706.51,111.50L-706.51,61.99L-607.06,61.99L-607.06,37.79L-706.51,37.79L-706.51,-12.38L-600.62,-12.38L-600.62,-36.58L-746.03,-36.58ZM-528.47,116.16C-528.47,116.16 -518.92,138.80 -484.51,138.80C-447.22,138.80 -419.69,111.94 -419.69,74.20C-419.69,36.46 -447.22,9.82 -484.74,9.82C-524.47,9.82 -535.35,40.90 -535.35,40.90L-543.79,12.71L-565.10,12.71L-565.10,185.42L-528.47,185.42ZM-496.50,34.24C-470.08,34.24 -458.10,51.78 -458.10,74.20C-458.10,96.62 -470.08,114.38 -496.50,114.38C-523.36,114.38 -534.24,94.62 -534.24,74.20C-534.24,53.78 -523.36,34.24 -496.50,34.24ZM-349.76,-39.69C-349.76,-39.69 -366.19,-36.58 -386.39,-36.58L-386.39,135.92L-349.76,135.92L-349.76,61.32C-349.76,61.32 -343.32,34.24 -311.58,34.24C-294.26,34.24 -281.83,42.23 -281.83,58.66L-281.83,135.92L-245.42,135.92L-245.42,60.44C-245.42,29.13 -263.40,9.82 -301.59,9.82C-343.10,9.82 -349.32,40.01 -349.76,42.90ZM-175.27,76.42L-67.38,78.64C-64.05,61.10 -67.82,9.82 -137.31,9.82C-183.26,9.82 -212.12,37.57 -212.12,74.20C-212.12,115.94 -177.04,138.80 -137.31,138.80C-73.37,138.80 -64.05,95.07 -64.05,95.07L-99.57,85.97C-99.57,85.97 -99.79,114.38 -133.53,114.38C-163.50,114.38 -175.05,95.51 -175.27,76.42ZM-105.34,56.88L-173.05,59.10C-173.05,59.10 -168.61,33.13 -137.97,33.13C-108.45,33.13 -105.34,56.88 -105.34,56.88ZM196.36,60.44C196.36,26.47 178.38,9.82 147.30,9.82C101.79,9.82 96.68,44.01 96.24,47.34C96.24,46.01 95.35,9.82 52.06,9.82C4.11,9.82 1.00,47.56 1.00,47.56L-9.43,12.71L-30.75,12.71L-30.75,135.92L5.88,135.92L5.88,61.32C5.88,61.32 13.43,34.24 40.07,34.24C62.05,34.24 64.49,48.00 64.49,59.77L64.49,135.92L101.12,135.92L101.12,61.32C101.12,61.32 108.67,34.24 135.31,34.24C157.29,34.24 159.73,48.00 159.73,59.77L159.73,135.92L196.36,135.92ZM266.51,76.42L374.40,78.64C377.73,61.10 373.96,9.82 304.47,9.82C258.52,9.82 229.66,37.57 229.66,74.20C229.66,115.94 264.74,138.80 304.47,138.80C368.41,138.80 377.73,95.07 377.73,95.07L342.21,85.97C342.21,85.97 341.99,114.38 308.25,114.38C278.28,114.38 266.73,95.51 266.51,76.42ZM336.44,56.88L268.73,59.10C268.73,59.10 273.17,33.13 303.81,33.13C333.33,33.13 336.44,56.88 336.44,56.88ZM447.66,61.10C447.66,61.10 451.22,34.24 466.76,34.24C470.97,34.24 476.52,36.24 476.52,45.34C476.52,62.21 472.75,74.64 472.75,74.64L508.27,65.54C508.27,65.54 511.16,57.33 511.16,42.01C511.16,24.69 503.61,9.82 478.08,9.82C442.34,9.82 442.78,47.56 442.78,47.56L432.35,12.71L411.03,12.71L411.03,135.92L447.66,135.92ZM656.57,102.17L658.56,56.22C659.45,31.13 638.36,9.82 598.40,9.82C536.24,9.82 524.48,51.78 524.48,51.78L562.66,61.55C562.66,61.55 562.88,34.24 596.63,34.24C619.27,34.24 621.93,48.00 621.93,59.33C554.45,65.10 530.25,88.85 530.25,109.50C530.25,128.15 544.01,138.80 566.65,138.80C604.84,138.80 625.71,99.06 626.82,97.07C626.82,121.93 633.48,138.80 659.89,138.80C679.21,138.80 689.42,127.26 689.42,127.26L682.10,103.28C682.10,103.28 675.66,114.38 665.45,114.38C658.78,114.38 656.34,109.05 656.57,102.17ZM568.43,101.95C568.43,90.18 581.53,74.87 621.93,71.09L621.93,79.75C621.93,79.75 607.06,114.38 581.31,114.38C570.21,114.38 568.43,107.28 568.43,101.95ZM709.40,135.92L746.03,135.92L746.03,-39.69C746.03,-39.69 727.38,-36.58 709.40,-36.58Z" fill="#ffffff" stroke="#000000"/>
    <path d="M-552.88,-256.00C-552.88,-256.00 -559.37,-317.33 -653.00,-317.48C-717.18,-317.59 -757.46,-280.51 -757.54,-229.08C-757.63,-177.87 -715.27,-140.88 -659.66,-140.79C-609.12,-140.71 -595.00,-168.81 -595.00,-168.81L-595.04,-143.54L-558.34,-143.48L-558.19,-234.25L-664.57,-234.42L-664.60,-210.47L-594.93,-210.35C-594.93,-210.35 -599.62,-167.72 -653.47,-167.81C-693.25,-167.88 -716.94,-194.07 -716.88,-229.02C-716.83,-262.64 -696.56,-290.52 -653.26,-290.45C-593.70,-290.35 -593.12,-245.08 -593.12,-245.08ZM-479.32,-217.42C-479.32,-217.42 -475.76,-244.00 -460.37,-243.98C-456.20,-243.97 -450.71,-241.98 -450.72,-232.97C-450.75,-216.27 -454.51,-203.97 -454.51,-203.97L-419.33,-212.92C-419.33,-212.92 -416.46,-221.05 -416.43,-236.21C-416.40,-253.36 -423.85,-268.09 -449.13,-268.14C-484.51,-268.19 -484.13,-230.83 -484.13,-230.83L-494.40,-265.35L-515.50,-265.39L-515.70,-143.41L-479.44,-143.35ZM-272.57,-176.42L-270.52,-221.91C-269.60,-246.74 -290.44,-267.87 -330.00,-267.94C-391.54,-268.04 -403.26,-226.52 -403.26,-226.52L-365.47,-216.79C-365.47,-216.79 -365.21,-243.82 -331.80,-243.77C-309.38,-243.73 -306.77,-230.10 -306.79,-218.89C-373.61,-213.29 -397.61,-189.81 -397.64,-169.37C-397.67,-150.91 -384.06,-140.34 -361.64,-140.30C-323.84,-140.24 -303.12,-179.54 -302.01,-181.52C-302.06,-156.90 -295.49,-140.19 -269.34,-140.15C-250.21,-140.12 -240.09,-151.53 -240.09,-151.53L-247.30,-175.28C-247.30,-175.28 -253.69,-164.30 -263.80,-164.31C-270.39,-164.32 -272.80,-169.60 -272.57,-176.42ZM-359.82,-176.78C-359.81,-188.43 -346.81,-203.57 -306.81,-207.24L-306.82,-198.67C-306.82,-198.67 -321.60,-164.41 -347.10,-164.45C-358.09,-164.47 -359.83,-171.50 -359.82,-176.78ZM-196.06,-191.67L-231.24,-182.72C-231.24,-182.72 -228.46,-140.08 -158.35,-139.96C-123.18,-139.91 -95.03,-153.05 -94.99,-177.88C-94.96,-195.90 -106.58,-209.99 -137.34,-215.09L-168.10,-220.20C-182.39,-222.64 -191.39,-224.63 -191.38,-231.89C-191.37,-238.04 -184.33,-244.62 -168.94,-244.60C-137.74,-244.55 -136.67,-223.01 -136.67,-223.01L-101.49,-231.96C-101.49,-231.96 -106.49,-267.57 -167.37,-267.67C-199.46,-267.72 -224.97,-253.92 -225.01,-229.74C-225.05,-207.55 -203.30,-200.04 -183.97,-196.49L-155.41,-191.17C-138.27,-188.06 -130.80,-184.31 -130.81,-176.84C-130.83,-168.27 -143.36,-164.11 -157.87,-164.14C-196.33,-164.20 -196.06,-191.67 -196.06,-191.67ZM-30.18,-162.17C-30.18,-162.17 -20.76,-139.74 13.30,-139.68C50.22,-139.62 77.52,-166.17 77.58,-203.53C77.64,-240.89 50.43,-267.31 13.29,-267.37C-26.05,-267.44 -36.87,-236.69 -36.87,-236.69L-45.17,-264.61L-66.27,-264.65L-66.56,-93.66L-30.29,-93.60ZM1.60,-243.22C27.76,-243.17 39.60,-225.79 39.56,-203.59C39.52,-181.40 27.63,-163.83 1.47,-163.88C-25.12,-163.92 -35.86,-183.50 -35.82,-203.72C-35.79,-223.94 -24.99,-243.26 1.60,-243.22ZM186.22,-242.91L214.35,-242.87L214.25,-184.84C214.20,-153.42 232.20,-139.32 261.65,-139.27C293.08,-139.22 307.62,-157.22 307.62,-157.22L300.62,-180.97C300.62,-180.97 290.92,-163.40 271.58,-163.43C255.98,-163.46 250.06,-172.48 250.08,-187.42L250.17,-242.81L306.22,-242.72L306.25,-264.03L250.21,-264.13L250.28,-310.06L215.30,-288.14L215.26,-264.18L186.25,-264.23ZM368.32,-315.80C368.32,-315.80 352.05,-312.75 332.05,-312.78L331.77,-142.01L368.03,-141.95L368.15,-215.80C368.15,-215.80 374.57,-242.60 406.00,-242.55C423.14,-242.52 435.44,-234.59 435.41,-218.33L435.28,-141.84L471.33,-141.78L471.45,-216.51C471.50,-247.50 453.73,-266.65 415.93,-266.71C374.83,-266.78 368.63,-236.90 368.18,-234.04ZM540.87,-200.57L647.68,-198.20C651.01,-215.55 647.36,-266.33 578.57,-266.44C533.07,-266.52 504.45,-239.09 504.39,-202.83C504.33,-161.51 539.01,-138.82 578.35,-138.75C641.65,-138.65 650.95,-181.93 650.95,-181.93L615.80,-191.00C615.80,-191.00 615.54,-162.87 582.13,-162.92C552.46,-162.97 541.06,-181.67 540.87,-200.57ZM610.14,-219.80L543.10,-217.71C543.10,-217.71 547.54,-243.42 577.87,-243.37C607.10,-243.32 610.14,-219.80 610.14,-219.80ZM-744.74,136.30L-594.19,136.55L-594.15,112.37L-705.58,112.19L-705.49,63.18L-607.03,63.34L-606.99,39.39L-705.46,39.22L-705.37,-10.45L-600.54,-10.27L-600.50,-34.23L-744.45,-34.47ZM-529.32,117.10C-529.32,117.10 -519.91,139.53 -485.84,139.58C-448.92,139.65 -421.62,113.10 -421.56,75.73C-421.50,38.37 -448.71,11.95 -485.85,11.89C-525.19,11.83 -536.01,42.58 -536.01,42.58L-544.32,14.65L-565.41,14.62L-565.70,185.61L-529.43,185.67ZM-497.54,36.05C-471.38,36.09 -459.54,53.47 -459.58,75.67C-459.62,97.87 -471.51,115.43 -497.67,115.39C-524.26,115.35 -535.00,95.77 -534.97,75.55C-534.93,55.33 -524.13,36.01 -497.54,36.05ZM-352.14,-36.90C-352.14,-36.90 -368.41,-33.85 -388.41,-33.88L-388.69,136.89L-352.43,136.95L-352.31,63.10C-352.31,63.10 -345.89,36.30 -314.46,36.35C-297.32,36.38 -285.02,44.31 -285.05,60.57L-285.18,137.06L-249.13,137.12L-249.01,62.39C-248.96,31.40 -266.73,12.25 -304.53,12.19C-345.63,12.12 -351.83,42.00 -352.28,44.86ZM-179.59,78.33L-72.78,80.70C-69.45,63.35 -73.10,12.57 -141.89,12.46C-187.39,12.38 -216.01,39.81 -216.07,76.07C-216.13,117.39 -181.45,140.09 -142.10,140.15C-78.81,140.26 -69.51,96.97 -69.51,96.97L-104.66,87.90C-104.66,87.90 -104.92,116.04 -138.33,115.98C-168.00,115.93 -179.40,97.23 -179.59,78.33ZM-110.32,59.10L-177.36,61.19C-177.36,61.19 -172.92,35.48 -142.59,35.53C-113.36,35.58 -110.32,59.10 -110.32,59.10ZM188.35,63.11C188.41,29.49 170.63,12.97 139.86,12.92C94.81,12.85 89.70,46.69 89.25,49.98C89.25,48.66 88.43,12.84 45.58,12.77C-1.89,12.69 -5.03,50.05 -5.03,50.05L-15.31,15.52L-36.41,15.49L-36.61,137.47L-0.34,137.53L-0.22,63.68C-0.22,63.68 7.30,36.88 33.67,36.92C55.43,36.96 57.82,50.59 57.80,62.24L57.68,137.62L93.94,137.68L94.06,63.84C94.06,63.84 101.58,37.04 127.96,37.08C149.71,37.12 152.11,50.75 152.09,62.39L151.97,137.78L188.23,137.84ZM257.78,79.05L364.59,81.42C367.91,64.07 364.26,13.29 295.47,13.18C249.97,13.10 221.36,40.53 221.30,76.79C221.23,118.11 255.92,140.81 295.26,140.87C358.55,140.98 367.86,97.69 367.86,97.69L332.71,88.63C332.71,88.63 332.44,116.76 299.03,116.70C269.36,116.65 257.96,97.95 257.78,79.05ZM327.04,59.82L260.00,61.91C260.00,61.91 264.44,36.21 294.77,36.25C324.00,36.30 327.04,59.82 327.04,59.82ZM437.14,64.18C437.14,64.18 440.70,37.59 456.09,37.62C460.26,37.63 465.75,39.61 465.74,48.62C465.71,65.33 461.95,77.63 461.95,77.63L497.13,68.68C497.13,68.68 500.00,60.55 500.03,45.38C500.06,28.24 492.61,13.50 467.33,13.46C431.95,13.40 432.33,50.77 432.33,50.77L422.06,16.24L400.96,16.21L400.76,138.19L437.02,138.25ZM643.89,105.18L645.94,59.69C646.86,34.86 626.02,13.72 586.46,13.66C524.92,13.56 513.20,55.08 513.20,55.08L550.99,64.81C550.99,64.81 551.25,37.78 584.66,37.83C607.07,37.87 609.69,51.50 609.67,62.71C542.85,68.31 518.85,91.79 518.82,112.23C518.79,130.69 532.40,141.26 554.82,141.30C592.62,141.36 613.34,102.05 614.44,100.08C614.40,124.69 620.97,141.41 647.12,141.45C666.24,141.48 676.37,130.07 676.37,130.07L669.16,106.32C669.16,106.32 662.77,117.30 652.66,117.28C646.06,117.27 643.66,111.99 643.89,105.18ZM556.63,104.82C556.65,93.17 569.65,78.03 609.65,74.36L609.64,82.93C609.64,82.93 594.86,117.19 569.36,117.15C558.37,117.13 556.63,110.09 556.63,104.82ZM696.14,138.67L732.40,138.73L732.69,-35.11C732.69,-35.11 714.22,-32.07 696.42,-32.09Z" fill="#ffffff" stroke="#000000"/>
    <path d="M-552.77,-251.39C-552.77,-251.39 -559.10,-312.11 -651.78,-312.42C-715.30,-312.63 -755.24,-275.99 -755.40,-225.08C-755.57,-174.39 -713.70,-137.70 -658.66,-137.52C-608.62,-137.36 -594.61,-165.16 -594.61,-165.16L-594.69,-140.14L-558.36,-140.02L-558.06,-229.87L-663.36,-230.22L-663.44,-206.50L-594.47,-206.28C-594.47,-206.28 -599.18,-164.09 -652.48,-164.26C-691.86,-164.39 -715.27,-190.36 -715.16,-224.95C-715.05,-258.24 -694.94,-285.80 -652.08,-285.66C-593.12,-285.47 -592.62,-240.65 -592.62,-240.65ZM-480.01,-213.08C-480.01,-213.08 -476.44,-239.39 -461.21,-239.34C-457.08,-239.33 -451.65,-237.35 -451.68,-228.43C-451.73,-211.90 -455.47,-199.73 -455.47,-199.73L-420.63,-208.53C-420.63,-208.53 -417.78,-216.57 -417.73,-231.59C-417.67,-248.55 -425.02,-263.16 -450.04,-263.24C-485.07,-263.35 -484.75,-226.37 -484.75,-226.37L-494.87,-260.56L-515.75,-260.63L-516.15,-139.88L-480.25,-139.76ZM-275.42,-172.16L-273.31,-217.19C-272.36,-241.77 -292.96,-262.72 -332.12,-262.85C-393.04,-263.05 -404.71,-221.97 -404.71,-221.97L-367.32,-212.27C-367.32,-212.27 -367.01,-239.03 -333.94,-238.92C-311.75,-238.85 -309.19,-225.35 -309.22,-214.26C-375.38,-208.82 -399.17,-185.62 -399.24,-165.39C-399.30,-147.11 -385.84,-136.62 -363.65,-136.55C-326.23,-136.43 -305.65,-175.30 -304.56,-177.26C-304.64,-152.89 -298.17,-136.33 -272.28,-136.25C-253.35,-136.19 -243.30,-147.47 -243.30,-147.47L-250.41,-170.99C-250.41,-170.99 -256.75,-160.13 -266.76,-160.16C-273.28,-160.18 -275.66,-165.41 -275.42,-172.16ZM-361.79,-172.66C-361.75,-184.19 -348.87,-199.16 -309.26,-202.73L-309.29,-194.24C-309.29,-194.24 -323.98,-160.35 -349.21,-160.43C-360.09,-160.47 -361.81,-167.44 -361.79,-172.66ZM-199.66,-187.14L-234.50,-178.33C-234.50,-178.33 -231.81,-136.12 -162.41,-135.89C-127.60,-135.77 -99.71,-148.73 -99.63,-173.32C-99.57,-191.16 -111.05,-205.12 -141.50,-210.22L-171.94,-215.33C-186.07,-217.77 -194.98,-219.76 -194.96,-226.94C-194.94,-233.03 -187.96,-239.53 -172.73,-239.48C-141.83,-239.38 -140.82,-218.05 -140.82,-218.05L-105.98,-226.86C-105.98,-226.86 -110.87,-262.12 -171.13,-262.32C-202.89,-262.42 -228.18,-248.80 -228.25,-224.87C-228.33,-202.90 -206.81,-195.43 -187.68,-191.88L-159.41,-186.57C-142.45,-183.47 -135.07,-179.74 -135.09,-172.35C-135.12,-163.86 -147.54,-159.77 -161.89,-159.82C-199.97,-159.94 -199.66,-187.14 -199.66,-187.14ZM-35.50,-157.66C-35.50,-157.66 -26.22,-135.44 7.50,-135.33C44.05,-135.21 71.12,-161.44 71.24,-198.43C71.36,-235.41 44.47,-261.61 7.70,-261.73C-31.24,-261.86 -42.00,-231.44 -42.00,-231.44L-50.18,-259.09L-71.06,-259.16L-71.62,-89.90L-35.72,-89.78ZM-3.91,-237.84C21.98,-237.75 33.68,-220.53 33.60,-198.55C33.53,-176.58 21.72,-159.21 -4.16,-159.30C-30.49,-159.38 -41.09,-178.78 -41.02,-198.80C-40.95,-218.81 -30.23,-237.92 -3.91,-237.84ZM178.84,-237.23L206.69,-237.14L206.50,-179.71C206.40,-148.60 224.19,-134.61 253.35,-134.52C284.46,-134.42 298.87,-152.21 298.87,-152.21L291.99,-175.73C291.99,-175.73 282.36,-158.35 263.22,-158.42C247.77,-158.47 241.92,-167.41 241.97,-182.20L242.15,-237.03L297.63,-236.84L297.70,-257.95L242.22,-258.13L242.37,-303.60L207.71,-281.96L207.63,-258.24L178.91,-258.34ZM359.22,-309.09C359.22,-309.09 343.11,-306.10 323.31,-306.16L322.76,-137.12L358.65,-137.00L358.89,-210.10C358.89,-210.10 365.29,-236.62 396.40,-236.52C413.37,-236.46 425.53,-228.59 425.48,-212.49L425.23,-136.78L460.91,-136.66L461.15,-210.63C461.25,-241.31 443.69,-260.29 406.27,-260.42C365.59,-260.55 359.40,-230.98 358.95,-228.16ZM529.85,-194.74L635.57,-192.22C638.89,-209.39 635.36,-259.66 567.26,-259.89C522.23,-260.04 493.86,-232.93 493.74,-197.04C493.60,-156.14 527.91,-133.61 566.85,-133.49C629.51,-133.28 638.78,-176.11 638.78,-176.11L604.00,-185.14C604.00,-185.14 603.69,-157.30 570.63,-157.40C541.26,-157.50 530.00,-176.03 529.85,-194.74ZM598.44,-213.66L532.08,-211.70C532.08,-211.70 536.51,-237.14 566.54,-237.05C595.47,-236.95 598.44,-213.66 598.44,-213.66ZM-743.32,136.63L-594.30,137.12L-594.22,113.19L-704.52,112.83L-704.36,64.31L-606.89,64.63L-606.82,40.92L-704.28,40.60L-704.12,-8.57L-600.34,-8.23L-600.27,-31.94L-742.77,-32.41ZM-530.05,117.97C-530.05,117.97 -520.77,140.19 -487.05,140.30C-450.50,140.42 -423.44,114.19 -423.31,77.20C-423.19,40.22 -450.08,14.02 -486.85,13.90C-525.79,13.77 -536.55,44.20 -536.55,44.20L-544.73,16.54L-565.62,16.47L-566.17,185.73L-530.28,185.85ZM-498.46,37.79C-472.57,37.88 -460.88,55.11 -460.95,77.08C-461.02,99.05 -472.83,116.42 -498.72,116.33C-525.04,116.25 -535.64,96.85 -535.57,76.83C-535.51,56.82 -524.78,37.71 -498.46,37.79ZM-354.42,-34.18C-354.42,-34.18 -370.52,-31.19 -390.32,-31.25L-390.88,137.79L-354.98,137.91L-354.74,64.81C-354.74,64.81 -348.34,38.29 -317.23,38.39C-300.26,38.45 -288.11,46.32 -288.16,62.42L-288.41,138.13L-252.73,138.25L-252.49,64.28C-252.38,33.60 -269.94,14.62 -307.36,14.49C-348.05,14.36 -354.24,43.93 -354.68,46.75ZM-183.79,80.17L-78.06,82.69C-74.74,65.51 -78.28,15.25 -146.37,15.02C-191.41,14.87 -219.78,41.98 -219.90,77.87C-220.03,118.77 -185.73,141.30 -146.79,141.42C-84.13,141.63 -74.85,98.80 -74.85,98.80L-109.63,89.77C-109.63,89.77 -109.94,117.61 -143.01,117.50C-172.38,117.41 -183.63,98.88 -183.79,80.17ZM-115.19,61.25L-181.56,63.21C-181.56,63.21 -177.12,37.76 -147.10,37.86C-118.16,37.96 -115.19,61.25 -115.19,61.25ZM180.46,65.70C180.57,32.42 163.00,16.04 132.54,15.94C87.94,15.79 82.83,49.28 82.38,52.54C82.38,51.24 81.63,15.77 39.21,15.63C-7.79,15.48 -10.95,52.45 -10.95,52.45L-21.07,18.26L-41.95,18.19L-42.35,138.94L-6.45,139.06L-6.21,65.96C-6.21,65.96 1.27,39.44 27.38,39.53C48.92,39.60 51.27,53.09 51.23,64.62L50.98,139.25L86.88,139.37L87.12,66.27C87.12,66.27 94.61,39.75 120.71,39.83C142.25,39.90 144.60,53.40 144.56,64.93L144.32,139.55L180.21,139.67ZM249.15,81.59L354.88,84.12C358.20,66.94 354.67,16.67 286.57,16.45C241.54,16.30 213.16,43.40 213.05,79.30C212.91,120.20 247.21,142.72 286.15,142.85C348.81,143.06 358.09,100.23 358.09,100.23L323.31,91.19C323.31,91.19 323.00,119.04 289.93,118.93C260.56,118.83 249.31,100.30 249.15,81.59ZM317.75,62.67L251.38,64.63C251.38,64.63 255.82,39.19 285.84,39.29C314.78,39.39 317.75,62.67 317.75,62.67ZM426.73,67.17C426.73,67.17 430.30,40.85 445.53,40.90C449.66,40.92 455.09,42.89 455.06,51.81C455.01,68.35 451.27,80.52 451.27,80.52L486.11,71.71C486.11,71.71 488.96,63.67 489.01,48.66C489.07,31.69 481.72,17.09 456.70,17.01C421.67,16.89 421.99,53.88 421.99,53.88L411.88,19.69L390.99,19.62L390.59,140.37L426.49,140.48ZM631.32,108.09L633.43,63.06C634.38,38.48 613.78,17.53 574.62,17.40C513.70,17.20 502.04,58.28 502.04,58.28L539.42,67.97C539.42,67.97 539.73,41.21 572.80,41.32C594.99,41.40 597.56,54.89 597.52,65.99C531.36,71.43 507.57,94.63 507.51,114.86C507.45,133.14 520.90,143.62 543.09,143.70C580.51,143.82 601.09,104.94 602.18,102.99C602.10,127.36 608.58,143.91 634.47,144.00C653.39,144.06 663.44,132.78 663.44,132.78L656.34,109.26C656.34,109.26 649.99,120.12 639.98,120.08C633.46,120.06 631.08,114.83 631.32,108.09ZM544.95,107.59C544.99,96.06 557.87,81.09 597.48,77.52L597.45,86.00C597.45,86.00 582.77,119.90 557.53,119.81C546.65,119.78 544.93,112.81 544.95,107.59ZM682.99,141.33L718.89,141.45L719.46,-30.64C719.46,-30.64 701.17,-27.66 683.55,-27.71Z" fill="#ffffff" stroke="#000000"/>
    <path d="M-552.55,-246.85C-552.55,-246.85 -558.71,-306.96 -650.45,-307.41C-713.33,-307.72 -752.91,-271.52 -753.16,-221.14C-753.41,-170.96 -712.03,-134.58 -657.55,-134.31C-608.02,-134.07 -594.10,-161.56 -594.10,-161.56L-594.23,-136.80L-558.26,-136.62L-557.82,-225.55L-662.05,-226.07L-662.16,-202.60L-593.90,-202.26C-593.90,-202.26 -598.63,-160.51 -651.39,-160.77C-690.36,-160.96 -713.49,-186.70 -713.33,-220.94C-713.16,-253.89 -693.22,-281.14 -650.79,-280.93C-592.44,-280.64 -592.01,-236.27 -592.01,-236.27ZM-480.60,-208.81C-480.60,-208.81 -477.03,-234.85 -461.95,-234.77C-457.86,-234.75 -452.49,-232.79 -452.53,-223.96C-452.61,-207.59 -456.33,-195.55 -456.33,-195.55L-421.83,-204.21C-421.83,-204.21 -419.00,-212.16 -418.92,-227.02C-418.84,-243.82 -426.09,-258.28 -450.85,-258.40C-485.52,-258.58 -485.27,-221.97 -485.27,-221.97L-495.23,-255.82L-515.90,-255.93L-516.49,-136.41L-480.96,-136.24ZM-278.16,-167.97L-276.01,-212.53C-275.02,-236.86 -295.38,-257.64 -334.14,-257.83C-394.43,-258.13 -406.05,-217.48 -406.05,-217.48L-369.06,-207.82C-369.06,-207.82 -368.71,-234.31 -335.98,-234.15C-314.02,-234.04 -311.50,-220.68 -311.55,-209.69C-377.04,-204.42 -400.63,-181.49 -400.73,-161.47C-400.82,-143.38 -387.52,-132.98 -365.55,-132.87C-328.51,-132.69 -308.08,-171.13 -306.99,-173.06C-307.11,-148.95 -300.73,-132.55 -275.11,-132.42C-256.38,-132.33 -246.41,-143.48 -246.41,-143.48L-253.41,-166.77C-253.41,-166.77 -259.70,-156.03 -269.61,-156.08C-276.07,-156.11 -278.41,-161.29 -278.16,-167.97ZM-363.65,-168.61C-363.60,-180.02 -350.82,-194.81 -311.61,-198.28L-311.65,-189.88C-311.65,-189.88 -326.24,-156.36 -351.22,-156.49C-361.99,-156.54 -363.68,-163.44 -363.65,-168.61ZM-203.15,-182.67L-237.65,-174.01C-237.65,-174.01 -235.06,-132.22 -166.36,-131.88C-131.91,-131.71 -104.28,-144.50 -104.16,-168.83C-104.08,-186.49 -115.42,-200.33 -145.54,-205.43L-175.67,-210.53C-189.65,-212.97 -198.47,-214.95 -198.44,-222.06C-198.41,-228.09 -191.48,-234.51 -176.41,-234.44C-145.83,-234.29 -144.86,-213.18 -144.86,-213.18L-110.36,-221.84C-110.36,-221.84 -115.14,-256.75 -174.79,-257.04C-206.23,-257.20 -231.28,-243.75 -231.39,-220.07C-231.50,-198.32 -210.22,-190.89 -191.29,-187.35L-163.32,-182.04C-146.54,-178.95 -139.23,-175.25 -139.27,-167.93C-139.31,-159.53 -151.60,-155.50 -165.82,-155.57C-203.50,-155.76 -203.15,-182.67 -203.15,-182.67ZM-40.71,-153.23C-40.71,-153.23 -31.56,-131.22 1.81,-131.05C37.99,-130.87 64.82,-156.80 65.00,-193.41C65.18,-230.01 38.61,-255.99 2.22,-256.17C-36.33,-256.36 -47.03,-226.26 -47.03,-226.26L-55.08,-253.65L-75.75,-253.75L-76.58,-86.22L-41.05,-86.04ZM-9.31,-232.53C16.31,-232.41 27.86,-215.34 27.75,-193.59C27.64,-171.84 15.93,-154.67 -9.70,-154.80C-35.75,-154.93 -46.21,-174.14 -46.11,-193.95C-46.01,-213.77 -35.37,-232.66 -9.31,-232.53ZM171.57,-231.64L199.13,-231.50L198.85,-174.66C198.70,-143.86 216.29,-129.99 245.15,-129.85C275.94,-129.70 290.24,-147.29 290.24,-147.29L283.46,-170.58C283.46,-170.58 273.90,-153.40 254.95,-153.49C239.66,-153.57 233.89,-162.42 233.97,-177.07L234.23,-231.33L289.14,-231.06L289.25,-251.95L234.34,-252.22L234.56,-297.22L200.21,-275.86L200.10,-252.39L171.67,-252.53ZM350.22,-302.47C350.22,-302.47 334.27,-299.53 314.68,-299.63L313.85,-132.31L349.38,-132.14L349.74,-204.49C349.74,-204.49 356.11,-230.73 386.91,-230.58C403.70,-230.49 415.72,-222.68 415.65,-206.75L415.28,-131.81L450.59,-131.64L450.95,-204.85C451.10,-235.21 433.75,-254.03 396.72,-254.22C356.45,-254.42 350.27,-225.16 349.83,-222.36ZM518.92,-189.01L623.57,-186.34C626.88,-203.33 623.47,-253.10 556.07,-253.43C511.49,-253.65 483.36,-226.87 483.19,-191.34C482.99,-150.86 516.90,-128.51 555.45,-128.32C617.46,-128.01 626.72,-170.39 626.72,-170.39L592.31,-179.39C592.31,-179.39 591.96,-151.83 559.22,-151.99C530.15,-152.13 519.05,-170.49 518.92,-189.01ZM586.85,-207.62L521.16,-205.80C521.16,-205.80 525.59,-230.97 555.31,-230.82C583.95,-230.68 586.85,-207.62 586.85,-207.62ZM-741.80,136.91L-594.29,137.63L-594.17,113.95L-703.35,113.41L-703.11,65.39L-606.64,65.86L-606.52,42.39L-703.00,41.92L-702.75,-6.75L-600.04,-6.24L-599.92,-29.71L-740.97,-30.41ZM-530.67,118.78C-530.67,118.78 -521.52,140.79 -488.14,140.96C-451.97,141.14 -425.13,115.21 -424.95,78.61C-424.77,42.00 -451.35,16.03 -487.74,15.85C-526.28,15.66 -536.98,45.75 -536.98,45.75L-545.03,18.36L-565.71,18.26L-566.53,185.79L-531.00,185.97ZM-499.27,39.48C-473.64,39.60 -462.10,56.67 -462.21,78.42C-462.31,100.17 -474.03,117.34 -499.65,117.21C-525.71,117.09 -536.17,97.87 -536.07,78.06C-535.97,58.25 -525.32,39.35 -499.27,39.48ZM-356.58,-31.53C-356.58,-31.53 -372.53,-28.59 -392.12,-28.69L-392.95,138.63L-357.42,138.81L-357.06,66.45C-357.06,66.45 -350.69,40.21 -319.89,40.36C-303.10,40.45 -291.08,48.26 -291.15,64.19L-291.53,139.13L-256.21,139.31L-255.85,66.09C-255.70,35.73 -273.05,16.91 -310.09,16.72C-350.35,16.53 -356.53,45.78 -356.97,48.58ZM-187.88,81.93L-83.23,84.60C-79.92,67.61 -83.34,17.84 -150.74,17.51C-195.31,17.29 -223.44,44.07 -223.61,79.60C-223.81,120.08 -189.90,142.43 -151.35,142.62C-89.34,142.93 -80.08,100.55 -80.08,100.55L-114.49,91.55C-114.49,91.55 -114.85,119.12 -147.58,118.95C-176.65,118.81 -187.75,100.45 -187.88,81.93ZM-119.95,63.32L-185.64,65.15C-185.64,65.15 -181.21,39.97 -151.49,40.12C-122.85,40.26 -119.95,63.32 -119.95,63.32ZM172.67,68.21C172.84,35.26 155.47,19.02 125.33,18.88C81.18,18.66 76.07,51.79 75.62,55.02C75.63,53.73 74.94,18.63 32.95,18.42C-13.57,18.19 -16.76,54.78 -16.76,54.78L-26.72,20.92L-47.39,20.82L-47.98,140.33L-12.45,140.51L-12.09,68.16C-12.09,68.16 -4.64,41.92 21.20,42.05C42.52,42.15 44.82,55.52 44.77,66.93L44.40,140.79L79.93,140.97L80.29,68.61C80.29,68.61 87.74,42.38 113.58,42.51C134.90,42.61 137.20,55.97 137.15,67.39L136.78,141.25L172.31,141.42ZM240.64,84.05L345.29,86.72C348.60,69.72 345.19,19.96 277.79,19.63C233.21,19.41 205.08,46.19 204.91,81.72C204.71,122.20 238.62,144.55 277.17,144.74C339.18,145.05 348.44,102.67 348.44,102.67L314.03,93.67C314.03,93.67 313.68,121.23 280.94,121.07C251.87,120.93 240.77,102.57 240.64,84.05ZM308.57,65.43L242.88,67.26C242.88,67.26 247.31,42.09 277.03,42.24C305.67,42.38 308.57,65.43 308.57,65.43ZM416.43,70.06C416.43,70.06 420.01,44.02 435.08,44.09C439.17,44.11 444.55,46.08 444.50,54.91C444.42,71.27 440.70,83.31 440.70,83.31L475.20,74.66C475.20,74.66 478.04,66.70 478.11,51.84C478.19,35.05 470.94,20.58 446.18,20.46C411.51,20.29 411.76,56.90 411.76,56.90L401.81,23.04L381.13,22.94L380.54,142.45L416.07,142.63ZM618.87,110.90L621.03,66.33C622.01,42.00 601.65,21.23 562.89,21.04C502.60,20.74 490.98,61.38 490.98,61.38L527.97,71.04C527.97,71.04 528.32,44.55 561.05,44.72C583.02,44.82 585.53,58.19 585.48,69.17C519.99,74.45 496.40,97.37 496.31,117.40C496.22,135.49 509.52,145.89 531.48,146.00C568.52,146.18 588.95,107.73 590.04,105.80C589.92,129.92 596.30,146.32 621.92,146.44C640.66,146.54 650.62,135.39 650.62,135.39L643.63,112.10C643.63,112.10 637.33,122.83 627.42,122.78C620.96,122.75 618.62,117.57 618.87,110.90ZM533.38,110.26C533.44,98.85 546.21,84.05 585.42,80.58L585.38,88.98C585.38,88.98 570.79,122.50 545.81,122.38C535.04,122.33 533.35,115.43 533.38,110.26ZM669.96,143.88L705.49,144.06L706.33,-26.28C706.33,-26.28 688.23,-23.35 670.78,-23.44Z" fill="#ffffff" stroke="#000000"/>
    <path d="M-552.23,-242.36C-552.23,-242.36 -558.23,-301.86 -649.02,-302.46C-711.25,-302.87 -750.49,-267.11 -750.82,-217.24C-751.14,-167.59 -710.25,-131.51 -656.33,-131.16C-607.31,-130.83 -593.49,-158.02 -593.49,-158.02L-593.65,-133.51L-558.06,-133.28L-557.48,-221.30L-660.63,-221.98L-660.79,-198.75L-593.23,-198.30C-593.23,-198.30 -597.98,-156.99 -650.19,-157.33C-688.76,-157.58 -711.61,-183.10 -711.39,-216.98C-711.17,-249.59 -691.39,-276.52 -649.41,-276.25C-591.65,-275.87 -591.30,-231.96 -591.30,-231.96ZM-481.08,-204.60C-481.08,-204.60 -477.50,-230.36 -462.59,-230.26C-458.54,-230.23 -453.22,-228.28 -453.28,-219.54C-453.38,-203.35 -457.09,-191.44 -457.09,-191.44L-422.93,-199.95C-422.93,-199.95 -420.11,-207.82 -420.01,-222.52C-419.90,-239.14 -427.05,-253.47 -451.56,-253.63C-485.87,-253.86 -485.69,-217.63 -485.69,-217.63L-495.48,-251.15L-515.94,-251.29L-516.72,-133.01L-481.56,-132.78ZM-280.80,-163.85L-278.59,-207.95C-277.58,-232.03 -297.69,-252.62 -336.05,-252.87C-395.73,-253.26 -407.29,-213.06 -407.29,-213.06L-370.69,-203.44C-370.69,-203.44 -370.31,-229.65 -337.91,-229.44C-316.17,-229.30 -313.70,-216.07 -313.78,-205.20C-378.60,-200.08 -401.98,-177.43 -402.11,-157.61C-402.23,-139.71 -389.08,-129.40 -367.34,-129.25C-330.69,-129.01 -310.40,-167.03 -309.33,-168.94C-309.48,-145.07 -303.20,-128.83 -277.84,-128.66C-259.29,-128.54 -249.42,-139.56 -249.42,-139.56L-256.30,-162.62C-256.30,-162.62 -262.55,-152.01 -272.35,-152.07C-278.75,-152.11 -281.06,-157.24 -280.80,-163.85ZM-365.41,-164.62C-365.33,-175.91 -352.66,-190.54 -313.85,-193.90L-313.91,-185.59C-313.91,-185.59 -328.40,-152.44 -353.12,-152.60C-363.78,-152.67 -365.44,-159.50 -365.41,-164.62ZM-206.54,-178.28L-240.69,-169.76C-240.69,-169.76 -238.20,-128.40 -170.21,-127.95C-136.11,-127.73 -108.75,-140.34 -108.59,-164.42C-108.48,-181.89 -119.68,-195.61 -149.49,-200.71L-179.29,-205.80C-193.13,-208.24 -201.85,-210.21 -201.81,-217.25C-201.77,-223.21 -194.91,-229.56 -179.99,-229.47C-149.72,-229.27 -148.80,-208.37 -148.80,-208.37L-114.64,-216.89C-114.64,-216.89 -119.31,-251.44 -178.35,-251.83C-209.46,-252.04 -234.27,-238.77 -234.43,-215.33C-234.57,-193.81 -213.52,-186.42 -194.79,-182.89L-167.12,-177.59C-150.51,-174.50 -143.29,-170.83 -143.34,-163.58C-143.39,-155.27 -155.57,-151.30 -169.63,-151.39C-206.93,-151.64 -206.54,-178.28 -206.54,-178.28ZM-45.82,-148.87C-45.82,-148.87 -36.80,-127.07 -3.77,-126.86C32.03,-126.62 58.63,-152.23 58.87,-188.46C59.11,-224.69 32.85,-250.44 -3.17,-250.68C-41.31,-250.93 -51.95,-221.16 -51.95,-221.16L-59.87,-248.28L-80.33,-248.42L-81.43,-82.61L-46.26,-82.38ZM-14.62,-227.31C10.74,-227.14 22.14,-210.23 22.00,-188.71C21.86,-167.18 10.24,-150.21 -15.12,-150.38C-40.91,-150.55 -51.23,-169.58 -51.10,-189.19C-50.97,-208.79 -40.40,-227.48 -14.62,-227.31ZM164.40,-226.13L191.68,-225.95L191.31,-169.69C191.11,-139.21 208.49,-125.46 237.05,-125.27C267.53,-125.07 281.71,-142.45 281.71,-142.45L275.04,-165.51C275.04,-165.51 265.55,-148.53 246.80,-148.65C231.66,-148.75 225.97,-157.53 226.06,-172.02L226.42,-225.72L280.76,-225.36L280.90,-246.04L226.55,-246.39L226.85,-290.94L192.82,-269.85L192.67,-246.62L164.54,-246.80ZM341.33,-295.94C341.33,-295.94 325.54,-293.06 306.14,-293.18L305.05,-127.59L340.22,-127.36L340.69,-198.97C340.69,-198.97 347.04,-224.93 377.52,-224.73C394.14,-224.62 406.02,-216.87 405.92,-201.10L405.43,-126.93L440.38,-126.70L440.86,-199.16C441.06,-229.21 423.92,-247.87 387.26,-248.11C347.41,-248.37 341.25,-219.42 340.81,-216.66ZM508.10,-183.37L611.66,-180.56C614.97,-197.37 611.67,-246.63 544.97,-247.07C500.85,-247.36 472.97,-220.90 472.74,-185.74C472.47,-145.67 506.00,-123.50 544.15,-123.25C605.53,-122.84 614.75,-164.77 614.75,-164.77L580.71,-173.73C580.71,-173.73 580.32,-146.45 547.93,-146.67C519.16,-146.86 508.19,-165.04 508.10,-183.37ZM575.36,-201.68L510.34,-199.98C510.34,-199.98 514.77,-224.89 544.18,-224.69C572.52,-224.51 575.36,-201.68 575.36,-201.68ZM-740.15,137.13L-594.17,138.09L-594.01,114.65L-702.06,113.93L-701.75,66.41L-606.27,67.04L-606.12,43.81L-701.59,43.18L-701.28,-4.98L-599.62,-4.31L-599.47,-27.54L-739.06,-28.46ZM-531.17,119.54C-531.17,119.54 -522.15,141.33 -489.12,141.55C-453.31,141.79 -426.72,116.17 -426.48,79.95C-426.24,43.72 -452.50,17.97 -488.51,17.73C-526.66,17.48 -537.30,47.25 -537.30,47.25L-545.22,20.13L-565.68,19.99L-566.77,185.80L-531.61,186.03ZM-499.96,41.10C-474.60,41.27 -463.21,58.18 -463.35,79.70C-463.49,101.23 -475.11,118.20 -500.47,118.03C-526.26,117.86 -536.58,98.83 -536.45,79.22C-536.32,59.61 -525.75,40.93 -499.96,41.10ZM-358.63,-28.94C-358.63,-28.94 -374.42,-26.06 -393.81,-26.19L-394.90,139.40L-359.74,139.63L-359.27,68.03C-359.27,68.03 -352.91,42.07 -322.44,42.27C-305.82,42.38 -293.93,50.13 -294.04,65.90L-294.52,140.06L-259.57,140.29L-259.10,67.83C-258.90,37.78 -276.04,19.13 -312.69,18.89C-352.55,18.63 -358.71,47.57 -359.15,50.34ZM-191.85,83.62L-88.29,86.44C-84.99,69.62 -88.28,20.37 -154.99,19.93C-199.10,19.64 -226.98,46.09 -227.22,81.26C-227.48,121.32 -193.95,143.50 -155.80,143.75C-94.43,144.15 -85.20,102.23 -85.20,102.23L-119.24,93.26C-119.24,93.26 -119.63,120.54 -152.03,120.33C-180.80,120.14 -191.76,101.95 -191.85,83.62ZM-124.60,65.31L-189.61,67.01C-189.61,67.01 -185.19,42.11 -155.78,42.30C-127.43,42.49 -124.60,65.31 -124.60,65.31ZM165.00,70.63C165.22,38.02 148.06,21.92 118.22,21.73C74.54,21.44 69.42,54.23 68.97,57.42C68.98,56.14 68.36,21.40 26.80,21.12C-19.23,20.82 -22.46,57.03 -22.46,57.03L-32.25,23.51L-52.71,23.37L-53.49,141.65L-18.33,141.88L-17.86,70.28C-17.86,70.28 -10.44,44.32 15.14,44.49C36.23,44.63 38.49,57.86 38.42,69.15L37.94,142.25L73.10,142.48L73.57,70.88C73.57,70.88 80.99,44.93 106.56,45.09C127.66,45.23 129.92,58.46 129.84,69.76L129.36,142.86L164.53,143.09ZM232.25,86.42L335.81,89.23C339.11,72.41 335.82,23.16 269.11,22.72C225.00,22.43 197.11,48.89 196.88,84.05C196.62,124.12 230.15,146.29 268.29,146.54C329.67,146.95 338.90,105.02 338.90,105.02L304.86,96.06C304.86,96.06 304.47,123.34 272.07,123.12C243.30,122.93 232.34,104.75 232.25,86.42ZM299.50,68.10L234.49,69.81C234.49,69.81 238.91,44.90 268.32,45.09C296.67,45.28 299.50,68.10 299.50,68.10ZM406.25,72.86C406.25,72.86 409.83,47.09 424.74,47.19C428.79,47.22 434.11,49.17 434.05,57.91C433.94,74.10 430.24,86.02 430.24,86.02L464.40,77.50C464.40,77.50 467.22,69.63 467.32,54.93C467.43,38.31 460.27,23.98 435.77,23.82C401.45,23.59 401.64,59.83 401.64,59.83L391.85,26.30L371.39,26.17L370.61,144.44L405.77,144.68ZM606.53,113.60L608.74,69.50C609.75,45.43 589.64,24.83 551.28,24.58C491.60,24.19 480.04,64.39 480.04,64.39L516.64,74.01C516.64,74.01 517.02,47.80 549.42,48.01C571.15,48.15 573.62,61.38 573.55,72.25C508.73,77.37 485.35,100.02 485.22,119.84C485.10,137.74 498.25,148.06 519.98,148.20C556.64,148.44 576.92,110.43 578.00,108.51C577.84,132.38 584.13,148.62 609.49,148.79C628.03,148.91 637.91,137.89 637.91,137.89L631.03,114.83C631.03,114.83 624.78,125.45 614.97,125.38C608.58,125.34 606.27,120.21 606.53,113.60ZM521.92,112.83C522.00,101.54 534.67,86.92 573.48,83.55L573.42,91.86C573.42,91.86 558.93,125.01 534.20,124.85C523.55,124.78 521.89,117.95 521.92,112.83ZM657.04,146.33L692.20,146.56L693.31,-22.01C693.31,-22.01 675.39,-19.15 658.13,-19.26Z" fill="#ffffff" stroke="#000000"/>
    <path d="M-551.81,-237.93C-551.81,-237.93 -557.65,-296.82 -647.49,-297.56C-709.07,-298.07 -747.96,-262.75 -748.36,-213.40C-748.77,-164.26 -708.36,-128.50 -655.00,-128.06C-606.50,-127.66 -592.78,-154.54 -592.78,-154.54L-592.98,-130.29L-557.76,-130.00L-557.04,-217.10L-659.11,-217.94L-659.30,-194.95L-592.45,-194.40C-592.45,-194.40 -597.21,-153.52 -648.88,-153.95C-687.05,-154.26 -709.62,-179.55 -709.35,-213.08C-709.08,-245.34 -689.46,-271.97 -647.91,-271.63C-590.76,-271.15 -590.49,-227.71 -590.49,-227.71ZM-481.46,-200.44C-481.46,-200.44 -477.88,-225.93 -463.11,-225.81C-459.11,-225.78 -453.85,-223.84 -453.92,-215.19C-454.05,-199.16 -457.74,-187.38 -457.74,-187.38L-423.92,-195.75C-423.92,-195.75 -421.12,-203.53 -421.00,-218.08C-420.86,-234.53 -427.91,-248.72 -452.17,-248.92C-486.12,-249.20 -485.99,-213.35 -485.99,-213.35L-495.63,-246.54L-515.88,-246.71L-516.84,-129.66L-482.05,-129.37ZM-283.33,-159.80L-281.07,-203.43C-280.03,-227.26 -299.90,-247.67 -337.86,-247.98C-396.91,-248.47 -408.42,-208.70 -408.42,-208.70L-372.22,-199.12C-372.22,-199.12 -371.80,-225.06 -339.74,-224.80C-318.23,-224.62 -315.81,-211.52 -315.90,-200.77C-380.05,-195.81 -403.23,-173.44 -403.39,-153.82C-403.53,-136.11 -390.54,-125.88 -369.03,-125.70C-332.76,-125.40 -312.62,-162.99 -311.55,-164.88C-311.75,-141.26 -305.55,-125.18 -280.46,-124.97C-262.11,-124.82 -252.32,-135.71 -252.32,-135.71L-259.09,-158.54C-259.09,-158.54 -265.29,-148.05 -274.99,-148.13C-281.32,-148.18 -283.60,-153.26 -283.33,-159.80ZM-367.05,-160.70C-366.96,-171.87 -354.40,-186.32 -315.99,-189.59L-316.06,-181.37C-316.06,-181.37 -330.46,-148.58 -354.92,-148.78C-365.46,-148.87 -367.10,-155.63 -367.05,-160.70ZM-209.82,-173.95L-243.63,-165.58C-243.63,-165.58 -241.23,-124.65 -173.95,-124.09C-140.21,-123.82 -113.11,-136.25 -112.92,-160.08C-112.77,-177.37 -123.84,-190.96 -153.33,-196.06L-182.81,-201.15C-196.50,-203.58 -205.13,-205.55 -205.07,-212.51C-205.02,-218.42 -198.22,-224.69 -183.46,-224.57C-153.51,-224.32 -152.63,-203.64 -152.63,-203.64L-118.82,-212.01C-118.82,-212.01 -123.39,-246.22 -181.80,-246.70C-212.59,-246.95 -237.17,-233.87 -237.36,-210.67C-237.53,-189.37 -216.71,-182.02 -198.18,-178.50L-170.81,-173.21C-154.38,-170.12 -147.24,-166.48 -147.30,-159.31C-147.37,-151.08 -159.42,-147.18 -173.34,-147.29C-210.25,-147.59 -209.82,-173.95 -209.82,-173.95ZM-50.83,-144.59C-50.83,-144.59 -41.94,-123.01 -9.25,-122.74C26.18,-122.45 52.54,-147.75 52.84,-183.60C53.13,-219.45 27.19,-244.98 -8.45,-245.27C-46.20,-245.58 -56.78,-216.14 -56.78,-216.14L-64.57,-242.99L-84.81,-243.16L-86.17,-79.08L-51.37,-78.79ZM-19.82,-222.16C5.28,-221.96 16.53,-205.20 16.35,-183.90C16.18,-162.60 4.65,-145.82 -20.44,-146.03C-45.96,-146.24 -56.14,-165.10 -55.98,-184.50C-55.82,-203.90 -45.34,-222.37 -19.82,-222.16ZM157.33,-220.70L184.33,-220.48L183.87,-164.81C183.62,-134.65 200.80,-121.01 229.06,-120.78C259.22,-120.53 273.28,-137.71 273.28,-137.71L266.72,-160.54C266.72,-160.54 257.30,-143.74 238.74,-143.90C223.77,-144.02 218.15,-152.71 218.27,-167.05L218.70,-220.20L272.48,-219.76L272.65,-240.21L218.87,-240.66L219.23,-284.73L185.53,-263.92L185.34,-240.93L157.50,-241.16ZM332.53,-289.49C332.53,-289.49 316.90,-286.67 297.71,-286.83L296.36,-122.96L331.16,-122.68L331.74,-193.54C331.74,-193.54 338.07,-219.22 368.23,-218.97C384.68,-218.83 396.42,-211.14 396.29,-195.54L395.69,-122.15L430.28,-121.86L430.87,-193.56C431.11,-223.30 414.18,-241.79 377.91,-242.09C338.47,-242.41 332.33,-213.78 331.88,-211.04ZM497.38,-177.83L599.86,-174.88C603.16,-191.51 599.98,-240.26 533.97,-240.80C490.31,-241.16 462.68,-215.03 462.39,-180.23C462.07,-140.58 495.21,-118.58 532.96,-118.27C593.70,-117.77 602.90,-159.25 602.90,-159.25L569.22,-168.17C569.22,-168.17 568.79,-141.18 536.73,-141.44C508.26,-141.68 497.45,-159.69 497.38,-177.83ZM563.97,-195.84L499.63,-194.26C499.63,-194.26 504.05,-218.90 533.15,-218.66C561.20,-218.43 563.97,-195.84 563.97,-195.84ZM-738.38,137.30L-593.92,138.49L-593.73,115.29L-700.66,114.41L-700.27,67.38L-605.79,68.16L-605.60,45.17L-700.08,44.39L-699.69,-3.27L-599.09,-2.44L-598.90,-25.43L-737.04,-26.57ZM-531.56,120.23C-531.56,120.23 -522.66,141.81 -489.98,142.08C-454.55,142.37 -428.18,117.07 -427.89,81.22C-427.59,45.37 -453.54,19.85 -489.18,19.55C-526.93,19.24 -537.50,48.68 -537.50,48.68L-545.30,21.83L-565.54,21.67L-566.89,185.74L-532.10,186.03ZM-500.55,42.66C-475.45,42.87 -464.20,59.62 -464.37,80.92C-464.55,102.22 -476.08,119.00 -501.17,118.79C-526.69,118.58 -536.87,99.73 -536.71,80.32C-536.55,60.92 -526.06,42.45 -500.55,42.66ZM-360.57,-26.42C-360.57,-26.42 -376.20,-23.60 -395.39,-23.75L-396.74,140.11L-361.94,140.40L-361.36,69.54C-361.36,69.54 -355.03,43.86 -324.87,44.11C-308.42,44.24 -296.68,51.93 -296.80,67.54L-297.41,140.93L-262.82,141.21L-262.23,69.51C-261.99,39.77 -278.92,21.28 -315.19,20.99C-354.63,20.66 -360.77,49.29 -361.21,52.03ZM-195.71,85.24L-93.24,88.19C-89.94,71.56 -93.12,22.81 -159.13,22.27C-202.79,21.91 -230.42,48.05 -230.70,82.84C-231.03,122.49 -197.89,144.49 -160.14,144.80C-99.40,145.30 -90.20,103.83 -90.20,103.83L-123.87,94.90C-123.87,94.90 -124.31,121.89 -156.36,121.63C-184.83,121.40 -195.65,103.38 -195.71,85.24ZM-129.13,67.23L-193.47,68.81C-193.47,68.81 -189.05,44.17 -159.95,44.41C-131.90,44.64 -129.13,67.23 -129.13,67.23ZM157.45,72.96C157.71,40.70 140.76,24.74 111.23,24.50C68.00,24.14 62.88,56.58 62.44,59.74C62.45,58.47 61.89,24.09 20.76,23.75C-24.79,23.38 -28.04,59.20 -28.04,59.20L-37.68,26.01L-57.92,25.85L-58.89,142.89L-24.09,143.18L-23.51,72.32C-23.51,72.32 -16.13,46.65 9.18,46.86C30.06,47.03 32.27,60.12 32.18,71.30L31.58,143.64L66.38,143.92L66.97,73.06C66.97,73.06 74.35,47.39 99.66,47.60C120.53,47.77 122.75,60.87 122.65,72.04L122.06,144.38L156.86,144.67ZM223.96,88.70L326.44,91.65C329.74,75.02 326.56,26.27 260.55,25.73C216.89,25.37 189.26,51.50 188.97,86.30C188.65,125.95 221.79,147.94 259.54,148.25C320.27,148.75 329.47,107.28 329.47,107.28L295.80,98.36C295.80,98.36 295.37,125.35 263.31,125.09C234.84,124.85 224.02,106.84 223.96,88.70ZM290.55,70.69L226.21,72.26C226.21,72.26 230.63,47.62 259.73,47.86C287.78,48.10 290.55,70.69 290.55,70.69ZM396.17,75.56C396.17,75.56 399.76,50.07 414.52,50.19C418.53,50.23 423.78,52.17 423.71,60.81C423.58,76.84 419.90,88.62 419.90,88.62L453.71,80.25C453.71,80.25 456.52,72.47 456.64,57.92C456.77,41.47 449.72,27.28 425.46,27.08C391.51,26.80 391.64,62.66 391.64,62.66L382.00,29.47L361.75,29.30L360.79,146.35L395.59,146.63ZM594.30,116.21L596.56,72.57C597.60,48.75 577.73,28.34 539.77,28.03C480.72,27.54 469.21,67.31 469.21,67.31L505.41,76.88C505.41,76.88 505.83,50.95 537.89,51.21C559.40,51.39 561.82,64.48 561.74,75.24C497.58,80.19 474.41,102.57 474.24,122.18C474.10,139.90 487.09,150.13 508.60,150.31C544.88,150.60 565.01,113.02 566.08,111.13C565.89,134.75 572.08,150.83 597.18,151.04C615.52,151.19 625.32,140.30 625.32,140.30L618.54,117.47C618.54,117.47 612.34,127.96 602.64,127.88C596.31,127.83 594.04,122.75 594.30,116.21ZM510.58,115.31C510.67,104.13 523.23,89.68 561.64,86.42L561.58,94.64C561.58,94.64 547.18,127.42 522.71,127.22C512.17,127.14 510.54,120.37 510.58,115.31ZM644.23,148.68L679.03,148.97L680.40,-17.85C680.40,-17.85 662.66,-15.04 645.58,-15.18Z" fill="#ffffff" stroke="#000000"/>
    <path d="M-551.28,-233.56C-551.28,-233.56 -556.96,-291.84 -645.85,-292.72C-706.79,-293.32 -745.32,-258.44 -745.80,-209.61C-746.28,-160.99 -706.36,-125.53 -653.56,-125.01C-605.57,-124.54 -591.95,-151.11 -591.95,-151.11L-592.19,-127.12L-557.34,-126.77L-556.49,-212.95L-657.49,-213.95L-657.71,-191.21L-591.56,-190.55C-591.56,-190.55 -596.34,-150.11 -647.47,-150.62C-685.24,-150.99 -707.53,-176.05 -707.20,-209.23C-706.88,-241.15 -687.43,-267.46 -646.32,-267.06C-589.77,-266.50 -589.57,-223.51 -589.57,-223.51ZM-481.73,-196.35C-481.73,-196.35 -478.14,-221.57 -463.54,-221.43C-459.57,-221.39 -454.38,-219.46 -454.46,-210.90C-454.62,-195.04 -458.28,-183.39 -458.28,-183.39L-424.81,-191.62C-424.81,-191.62 -422.02,-199.31 -421.88,-213.71C-421.72,-229.99 -428.67,-244.04 -452.67,-244.28C-486.26,-244.61 -486.20,-209.13 -486.20,-209.13L-495.68,-241.99L-515.71,-242.19L-516.86,-126.37L-482.43,-126.03ZM-285.76,-155.81L-283.45,-198.99C-282.38,-222.56 -302.01,-242.79 -339.57,-243.16C-398.00,-243.73 -409.45,-204.41 -409.45,-204.41L-373.65,-194.87C-373.65,-194.87 -373.18,-220.53 -341.47,-220.22C-320.18,-220.01 -317.81,-207.05 -317.91,-196.41C-381.40,-191.61 -404.37,-169.50 -404.56,-150.10C-404.73,-132.57 -391.89,-122.43 -370.61,-122.22C-334.72,-121.86 -314.73,-159.02 -313.67,-160.89C-313.90,-137.52 -307.80,-121.59 -282.97,-121.35C-264.81,-121.17 -255.11,-131.93 -255.11,-131.93L-261.77,-154.53C-261.77,-154.53 -267.92,-144.16 -277.52,-144.25C-283.78,-144.31 -286.03,-149.34 -285.76,-155.81ZM-368.60,-156.84C-368.49,-167.90 -356.03,-182.17 -318.02,-185.35L-318.10,-177.21C-318.10,-177.21 -332.40,-144.79 -356.61,-145.03C-367.04,-145.14 -368.65,-151.83 -368.60,-156.84ZM-212.99,-169.70L-246.47,-161.47C-246.47,-161.47 -244.15,-120.97 -177.59,-120.31C-144.20,-119.98 -117.37,-132.23 -117.13,-155.81C-116.97,-172.92 -127.89,-186.39 -157.06,-191.48L-186.23,-196.57C-199.77,-198.99 -208.30,-200.96 -208.24,-207.84C-208.18,-213.69 -201.44,-219.88 -186.83,-219.74C-157.20,-219.44 -156.36,-198.98 -156.36,-198.98L-122.89,-207.21C-122.89,-207.21 -127.35,-241.06 -185.15,-241.63C-215.62,-241.93 -239.96,-229.03 -240.18,-206.07C-240.39,-185.00 -219.80,-177.70 -201.47,-174.18L-174.40,-168.90C-158.15,-165.82 -151.09,-162.20 -151.16,-155.11C-151.24,-146.97 -163.17,-143.12 -176.94,-143.26C-213.46,-143.62 -212.99,-169.70 -212.99,-169.70ZM-55.72,-140.39C-55.72,-140.39 -46.96,-119.02 -14.62,-118.70C20.44,-118.35 46.56,-143.34 46.91,-178.82C47.27,-214.29 21.64,-239.59 -13.63,-239.94C-50.98,-240.31 -61.49,-211.19 -61.49,-211.19L-69.16,-237.77L-89.19,-237.97L-90.80,-75.63L-56.37,-75.29ZM-24.91,-217.09C-0.08,-216.85 11.02,-200.25 10.81,-179.17C10.61,-158.10 -0.83,-141.52 -25.66,-141.76C-50.91,-142.01 -60.95,-160.68 -60.76,-179.88C-60.57,-199.08 -50.16,-217.34 -24.91,-217.09ZM150.37,-215.36L177.08,-215.10L176.53,-160.01C176.24,-130.17 193.22,-116.64 221.18,-116.37C251.02,-116.07 264.96,-133.05 264.96,-133.05L258.51,-155.65C258.51,-155.65 249.16,-139.05 230.80,-139.23C215.98,-139.37 210.43,-147.99 210.57,-162.18L211.09,-214.76L264.30,-214.23L264.50,-234.48L211.29,-235.00L211.72,-278.61L178.34,-258.07L178.11,-235.33L150.57,-235.60ZM323.83,-283.14C323.83,-283.14 308.36,-280.37 289.37,-280.56L287.77,-118.42L322.20,-118.08L322.90,-188.20C322.90,-188.20 329.20,-213.59 359.04,-213.30C375.31,-213.14 386.93,-205.51 386.77,-190.07L386.06,-117.45L420.28,-117.11L420.98,-188.06C421.27,-217.48 404.55,-235.80 368.66,-236.16C329.63,-236.54 323.51,-208.22 323.07,-205.51ZM486.77,-172.38L588.16,-169.30C591.46,-185.75 588.38,-233.99 523.07,-234.63C479.88,-235.06 452.49,-209.24 452.15,-174.81C451.76,-135.58 484.52,-113.77 521.87,-113.40C581.97,-112.80 591.14,-153.82 591.14,-153.82L557.84,-162.71C557.84,-162.71 557.37,-136.00 525.65,-136.31C497.48,-136.59 486.80,-154.44 486.77,-172.38ZM552.68,-190.10L489.02,-188.64C489.02,-188.64 493.43,-213.01 522.23,-212.73C549.98,-212.45 552.68,-190.10 552.68,-190.10ZM-736.50,137.41L-593.56,138.82L-593.34,115.87L-699.13,114.82L-698.67,68.29L-605.19,69.21L-604.96,46.47L-698.45,45.55L-697.98,-1.61L-598.45,-0.63L-598.22,-23.37L-734.90,-24.73ZM-531.82,120.86C-531.82,120.86 -523.06,142.23 -490.72,142.55C-455.66,142.90 -429.54,117.91 -429.18,82.43C-428.83,46.96 -454.46,21.66 -489.73,21.31C-527.08,20.94 -537.59,50.06 -537.59,50.06L-545.26,23.48L-565.29,23.28L-566.90,185.62L-532.47,185.97ZM-501.01,44.16C-476.18,44.40 -465.08,61.00 -465.28,82.08C-465.49,103.15 -476.93,119.73 -501.76,119.49C-527.01,119.24 -537.05,100.57 -536.86,81.37C-536.67,62.17 -526.26,43.91 -501.01,44.16ZM-362.40,-23.97C-362.40,-23.97 -377.87,-21.20 -396.86,-21.38L-398.46,140.75L-364.03,141.09L-363.33,70.98C-363.33,70.98 -357.03,45.58 -327.19,45.88C-310.92,46.04 -299.30,53.66 -299.46,69.11L-300.17,141.72L-265.95,142.06L-265.25,71.11C-264.96,41.69 -281.68,23.37 -317.57,23.01C-356.60,22.63 -362.72,50.95 -363.16,53.66ZM-199.46,86.79L-98.07,89.88C-94.77,73.42 -97.85,25.19 -163.16,24.54C-206.35,24.11 -233.74,49.93 -234.08,84.36C-234.47,123.59 -201.71,145.41 -164.36,145.78C-104.26,146.37 -95.09,105.35 -95.09,105.35L-128.39,96.46C-128.39,96.46 -128.86,123.17 -160.58,122.86C-188.75,122.58 -199.43,104.74 -199.46,86.79ZM-133.55,69.08L-197.21,70.53C-197.21,70.53 -192.80,46.16 -164.00,46.44C-136.25,46.72 -133.55,69.08 -133.55,69.08ZM150.00,75.22C150.32,43.29 133.57,27.47 104.36,27.18C61.58,26.76 56.46,58.85 56.01,61.97C56.03,60.72 55.53,26.70 14.84,26.30C-30.24,25.85 -33.51,61.30 -33.51,61.30L-42.99,28.44L-63.02,28.24L-64.17,144.05L-29.74,144.40L-29.05,74.28C-29.05,74.28 -21.70,48.89 3.34,49.14C24.00,49.35 26.17,62.31 26.06,73.37L25.35,144.94L59.78,145.28L60.47,75.17C60.47,75.17 67.82,49.78 92.86,50.03C113.52,50.23 115.69,63.19 115.58,74.25L114.87,145.82L149.30,146.16ZM215.79,90.89L317.19,93.98C320.48,77.53 317.41,29.29 252.09,28.64C208.90,28.22 181.51,54.03 181.17,88.46C180.79,127.69 213.54,149.51 250.90,149.88C310.99,150.47 320.16,109.45 320.16,109.45L286.86,100.57C286.86,100.57 286.39,127.28 254.67,126.96C226.50,126.68 215.82,108.84 215.79,90.89ZM281.71,73.18L218.04,74.64C218.04,74.64 222.46,50.26 251.25,50.55C279.00,50.82 281.71,73.18 281.71,73.18ZM386.21,78.18C386.21,78.18 389.80,52.96 404.40,53.10C408.37,53.14 413.57,55.07 413.48,63.63C413.33,79.49 409.66,91.14 409.66,91.14L443.14,82.91C443.14,82.91 445.92,75.22 446.07,60.82C446.23,44.54 439.27,30.49 415.27,30.26C381.68,29.92 381.74,65.40 381.74,65.40L372.26,32.54L352.23,32.35L351.08,148.16L385.51,148.50ZM582.19,118.72L584.49,75.54C585.56,51.97 565.93,31.75 528.37,31.37C469.95,30.80 458.50,70.13 458.50,70.13L494.30,79.66C494.30,79.66 494.76,54.00 526.48,54.31C547.76,54.52 550.14,67.48 550.03,78.13C486.54,82.92 463.58,105.03 463.39,124.43C463.21,141.96 476.05,152.11 497.33,152.32C533.23,152.67 553.21,115.51 554.27,113.65C554.04,137.02 560.14,152.94 584.98,153.18C603.13,153.36 612.84,142.61 612.84,142.61L606.17,120.00C606.17,120.00 600.02,130.38 590.42,130.28C584.16,130.22 581.91,125.19 582.19,118.72ZM499.35,117.69C499.46,106.63 511.91,92.36 549.92,89.19L549.84,97.32C549.84,97.32 535.54,129.74 511.33,129.50C500.90,129.40 499.30,122.70 499.35,117.69ZM631.54,150.93L665.97,151.27L667.60,-13.79C667.60,-13.79 650.04,-11.04 633.14,-11.21Z" fill="#ffffff" stroke="#000000"/>
    <path d="M-550.64,-229.25C-550.64,-229.25 -556.17,-286.92 -644.12,-287.93C-704.40,-288.63 -742.58,-254.18 -743.14,-205.87C-743.69,-157.77 -704.25,-122.62 -652.02,-122.02C-604.54,-121.47 -591.02,-147.75 -591.02,-147.75L-591.29,-124.00L-556.82,-123.61L-555.83,-208.87L-655.75,-210.02L-656.01,-187.52L-590.57,-186.76C-590.57,-186.76 -595.37,-146.76 -645.95,-147.35C-683.31,-147.78 -705.32,-172.60 -704.95,-205.43C-704.58,-237.01 -685.29,-263.01 -644.62,-262.54C-588.67,-261.90 -588.54,-219.36 -588.54,-219.36ZM-481.90,-192.33C-481.90,-192.33 -478.31,-217.27 -463.86,-217.10C-459.93,-217.06 -454.79,-215.14 -454.89,-206.67C-455.07,-190.98 -458.72,-179.46 -458.72,-179.46L-425.59,-187.55C-425.59,-187.55 -422.82,-195.15 -422.65,-209.40C-422.47,-225.50 -429.33,-239.41 -453.07,-239.69C-486.30,-240.07 -486.30,-204.97 -486.30,-204.97L-495.63,-237.49L-515.44,-237.72L-516.77,-123.15L-482.70,-122.75ZM-288.07,-151.89L-285.72,-194.61C-284.63,-217.92 -304.01,-237.97 -341.17,-238.40C-398.98,-239.06 -410.37,-200.17 -410.37,-200.17L-374.97,-190.68C-374.97,-190.68 -374.47,-216.07 -343.09,-215.71C-322.03,-215.47 -319.70,-202.64 -319.82,-192.11C-382.64,-187.46 -405.40,-165.63 -405.62,-146.43C-405.82,-129.09 -393.13,-119.04 -372.08,-118.79C-336.57,-118.38 -316.74,-155.11 -315.68,-156.96C-315.95,-133.84 -309.94,-118.08 -285.37,-117.79C-267.41,-117.59 -257.79,-128.21 -257.79,-128.21L-264.34,-150.59C-264.34,-150.59 -270.45,-140.33 -279.95,-140.44C-286.14,-140.51 -288.35,-145.50 -288.07,-151.89ZM-370.03,-153.04C-369.90,-163.99 -357.56,-178.09 -319.95,-181.17L-320.04,-173.12C-320.04,-173.12 -334.24,-141.07 -358.19,-141.35C-368.51,-141.46 -370.09,-148.09 -370.03,-153.04ZM-216.06,-165.52L-249.19,-157.43C-249.19,-157.43 -246.97,-117.35 -181.11,-116.59C-148.08,-116.21 -121.52,-128.29 -121.25,-151.62C-121.05,-168.55 -131.84,-181.89 -160.69,-186.97L-189.54,-192.05C-202.93,-194.48 -211.37,-196.43 -211.29,-203.25C-211.23,-209.03 -204.55,-215.14 -190.10,-214.98C-160.78,-214.64 -159.98,-194.40 -159.98,-194.40L-126.85,-202.48C-126.85,-202.48 -131.22,-235.98 -188.40,-236.64C-218.54,-236.98 -242.64,-224.25 -242.90,-201.55C-243.14,-180.69 -222.79,-173.44 -204.66,-169.93L-177.88,-164.66C-161.81,-161.59 -154.83,-158.00 -154.91,-150.98C-155.00,-142.93 -166.81,-139.14 -180.44,-139.30C-216.57,-139.71 -216.06,-165.52 -216.06,-165.52ZM-60.51,-136.26C-60.51,-136.26 -51.88,-115.10 -19.88,-114.73C14.80,-114.33 40.69,-139.02 41.09,-174.11C41.50,-209.21 16.19,-234.28 -18.70,-234.68C-55.66,-235.11 -66.11,-206.32 -66.11,-206.32L-73.65,-232.63L-93.47,-232.86L-95.32,-72.24L-61.26,-71.85ZM-29.91,-212.10C-5.34,-211.81 5.62,-195.38 5.38,-174.53C5.14,-153.67 -6.20,-137.29 -30.77,-137.57C-55.75,-137.86 -65.65,-156.35 -65.43,-175.34C-65.21,-194.33 -54.89,-212.39 -29.91,-212.10ZM143.51,-210.10L169.93,-209.79L169.30,-155.29C168.96,-125.77 185.74,-112.36 213.40,-112.04C242.93,-111.70 256.75,-128.47 256.75,-128.47L250.40,-150.85C250.40,-150.85 241.12,-134.44 222.96,-134.65C208.30,-134.81 202.82,-143.34 202.98,-157.38L203.58,-209.41L256.23,-208.80L256.46,-228.82L203.81,-229.43L204.31,-272.58L171.25,-252.31L170.99,-229.81L143.74,-230.12ZM315.24,-276.87C315.24,-276.87 299.93,-274.16 281.14,-274.38L279.29,-113.97L313.36,-113.58L314.16,-182.94C314.16,-182.94 320.43,-208.06 349.95,-207.72C366.06,-207.53 377.53,-199.97 377.36,-184.69L376.53,-112.85L410.39,-112.46L411.19,-182.65C411.53,-211.76 395.01,-229.91 359.51,-230.32C320.90,-230.77 314.80,-202.76 314.35,-200.08ZM476.26,-167.03L576.57,-163.81C579.85,-180.08 576.89,-227.81 512.28,-228.56C469.54,-229.05 442.41,-203.56 442.01,-169.49C441.57,-130.68 473.94,-109.04 510.89,-108.61C570.35,-107.93 579.49,-148.50 579.49,-148.50L546.56,-157.34C546.56,-157.34 546.04,-130.92 514.66,-131.28C486.79,-131.60 476.26,-149.28 476.26,-167.03ZM541.50,-184.45L478.51,-183.11C478.51,-183.11 482.92,-207.22 511.41,-206.89C538.86,-206.57 541.50,-184.45 541.50,-184.45ZM-734.50,137.47L-593.09,139.10L-592.82,116.40L-697.49,115.19L-696.96,69.15L-604.47,70.22L-604.22,47.72L-696.70,46.65L-696.17,-0.01L-597.69,1.13L-597.43,-21.38L-732.65,-22.93ZM-531.97,121.43C-531.97,121.43 -523.34,142.59 -491.34,142.96C-456.66,143.36 -430.77,118.68 -430.36,83.58C-429.96,48.49 -455.27,23.42 -490.16,23.01C-527.12,22.59 -537.57,51.37 -537.57,51.37L-545.11,25.07L-564.93,24.84L-566.78,185.45L-532.72,185.84ZM-501.37,45.60C-476.80,45.88 -465.84,62.32 -466.08,83.17C-466.32,104.02 -477.66,120.41 -502.23,120.12C-527.21,119.84 -537.11,101.35 -536.89,82.35C-536.67,63.36 -526.35,45.31 -501.37,45.60ZM-364.11,-21.58C-364.11,-21.58 -379.42,-18.86 -398.21,-19.08L-400.06,141.33L-366.00,141.72L-365.20,72.36C-365.20,72.36 -358.92,47.24 -329.40,47.58C-313.29,47.77 -301.82,55.33 -301.99,70.61L-302.82,142.45L-268.97,142.84L-268.16,72.65C-267.82,43.54 -284.34,25.39 -319.85,24.98C-358.45,24.53 -364.55,52.54 -365.00,55.22ZM-203.09,88.27L-102.78,91.49C-99.50,75.21 -102.46,27.48 -167.07,26.74C-209.81,26.25 -236.94,51.74 -237.34,85.81C-237.78,124.62 -205.41,146.26 -168.46,146.68C-109.00,147.37 -99.86,106.80 -99.86,106.80L-132.80,97.95C-132.80,97.95 -133.31,124.38 -164.69,124.02C-192.56,123.69 -203.09,106.02 -203.09,88.27ZM-137.85,70.85L-200.84,72.19C-200.84,72.19 -196.43,48.08 -167.94,48.41C-140.49,48.73 -137.85,70.85 -137.85,70.85ZM142.67,77.39C143.04,45.80 126.49,30.12 97.59,29.79C55.27,29.30 50.15,61.04 49.70,64.13C49.72,62.89 49.28,29.23 9.02,28.77C-35.57,28.26 -38.86,63.32 -38.86,63.32L-48.19,30.79L-68.01,30.57L-69.33,145.14L-35.27,145.54L-34.47,76.17C-34.47,76.17 -27.16,51.06 -2.39,51.35C18.05,51.59 20.18,64.41 20.05,75.35L19.23,146.16L53.30,146.56L54.10,77.19C54.10,77.19 61.41,52.09 86.18,52.37C106.62,52.61 108.74,65.43 108.61,76.37L107.80,147.19L141.86,147.58ZM207.74,93.00L308.05,96.22C311.33,79.95 308.37,32.22 243.75,31.48C201.02,30.98 173.88,56.48 173.49,90.54C173.04,129.35 205.42,150.99 242.37,151.42C301.83,152.11 310.97,111.54 310.97,111.54L278.03,102.69C278.03,102.69 277.52,129.11 246.14,128.75C218.27,128.43 207.74,110.76 207.74,93.00ZM272.98,75.58L209.99,76.92C209.99,76.92 214.39,52.82 242.88,53.15C270.34,53.46 272.98,75.58 272.98,75.58ZM376.36,80.70C376.36,80.70 379.95,55.76 394.40,55.92C398.33,55.97 403.47,57.89 403.37,66.35C403.19,82.04 399.54,93.56 399.54,93.56L432.67,85.48C432.67,85.48 435.45,77.87 435.61,63.63C435.80,47.52 428.94,33.61 405.19,33.34C371.96,32.95 371.96,68.05 371.96,68.05L362.64,35.53L342.82,35.30L341.50,149.88L375.56,150.27ZM570.19,121.13L572.54,78.42C573.63,55.10 554.25,35.06 517.09,34.63C459.28,33.96 447.89,72.85 447.89,72.85L483.30,82.35C483.30,82.35 483.79,56.95 515.17,57.32C536.23,57.56 538.56,70.39 538.44,80.92C475.62,85.56 452.86,107.39 452.64,126.59C452.44,143.93 465.13,153.99 486.18,154.23C521.69,154.64 541.52,117.91 542.58,116.06C542.31,139.19 548.32,154.95 572.89,155.23C590.85,155.44 600.47,144.81 600.47,144.81L593.92,122.44C593.92,122.44 587.81,132.69 578.31,132.58C572.12,132.51 569.91,127.53 570.19,121.13ZM488.23,119.98C488.36,109.04 500.70,94.93 538.31,91.86L538.22,99.91C538.22,99.91 524.02,131.96 500.07,131.68C489.75,131.56 488.17,124.94 488.23,119.98ZM618.96,153.08L653.02,153.47L654.91,-9.83C654.91,-9.83 637.53,-7.14 620.81,-7.33Z" fill="#ffffff" stroke="#000000"/>
    <path d="M-549.90,-225.00C-549.90,-225.00 -555.28,-282.05 -642.28,-283.20C-701.91,-283.99 -739.74,-249.96 -740.37,-202.18C-740.99,-154.59 -702.03,-119.76 -650.36,-119.08C-603.39,-118.46 -589.98,-144.43 -589.98,-144.43L-590.29,-120.95L-556.18,-120.50L-555.07,-204.84L-653.91,-206.14L-654.21,-183.88L-589.47,-183.03C-589.47,-183.03 -594.28,-143.47 -644.31,-144.13C-681.28,-144.61 -703.01,-169.21 -702.59,-201.68C-702.18,-232.92 -683.04,-258.61 -642.81,-258.08C-587.47,-257.35 -587.41,-215.28 -587.41,-215.28ZM-481.96,-188.35C-481.96,-188.35 -478.37,-213.02 -464.07,-212.83C-460.19,-212.78 -455.11,-210.88 -455.22,-202.50C-455.42,-186.98 -459.05,-175.59 -459.05,-175.59L-426.26,-183.54C-426.26,-183.54 -423.51,-191.06 -423.32,-205.15C-423.11,-221.08 -429.87,-234.85 -453.36,-235.16C-486.24,-235.59 -486.29,-200.87 -486.29,-200.87L-495.46,-233.06L-515.07,-233.32L-516.56,-119.98L-482.87,-119.53ZM-290.28,-148.04L-287.89,-190.29C-286.77,-213.36 -305.91,-233.22 -342.67,-233.70C-399.85,-234.46 -411.19,-196.00 -411.19,-196.00L-376.18,-186.55C-376.18,-186.55 -375.64,-211.67 -344.60,-211.26C-323.77,-210.99 -321.49,-198.29 -321.62,-187.88C-383.78,-183.38 -406.33,-161.83 -406.58,-142.83C-406.80,-125.68 -394.27,-115.71 -373.44,-115.43C-338.31,-114.97 -318.63,-151.27 -317.59,-153.10C-317.89,-130.23 -311.97,-114.62 -287.67,-114.30C-269.90,-114.07 -260.36,-124.57 -260.36,-124.57L-266.81,-146.71C-266.81,-146.71 -272.87,-136.58 -282.26,-136.70C-288.39,-136.78 -290.57,-141.71 -290.28,-148.04ZM-371.36,-149.31C-371.22,-160.14 -358.98,-174.07 -321.77,-177.05L-321.87,-169.09C-321.87,-169.09 -335.97,-137.41 -359.66,-137.72C-369.87,-137.86 -371.42,-144.41 -371.36,-149.31ZM-219.03,-161.40L-251.81,-153.46C-251.81,-153.46 -249.68,-113.80 -184.53,-112.95C-151.86,-112.52 -125.56,-124.42 -125.25,-147.50C-125.03,-164.25 -135.68,-177.46 -164.21,-182.53L-192.74,-187.61C-205.99,-190.03 -214.33,-191.98 -214.25,-198.72C-214.17,-204.44 -207.55,-210.48 -193.26,-210.29C-164.26,-209.91 -163.50,-189.88 -163.50,-189.88L-130.72,-197.82C-130.72,-197.82 -134.98,-230.97 -191.55,-231.71C-221.36,-232.10 -245.22,-219.55 -245.52,-197.09C-245.79,-176.46 -225.66,-169.25 -207.74,-165.75L-181.25,-160.49C-165.36,-157.43 -158.46,-153.86 -158.55,-146.92C-158.66,-138.95 -170.35,-135.23 -183.83,-135.40C-219.57,-135.88 -219.03,-161.40 -219.03,-161.40ZM-65.20,-132.21C-65.20,-132.21 -56.69,-111.26 -25.04,-110.84C9.27,-110.39 34.92,-134.77 35.38,-169.49C35.84,-204.21 10.84,-229.05 -23.68,-229.50C-60.23,-229.98 -70.62,-201.52 -70.62,-201.52L-78.03,-227.56L-97.64,-227.82L-99.73,-68.93L-66.04,-68.49ZM-34.80,-207.18C-10.49,-206.86 0.32,-190.58 0.05,-169.95C-0.22,-149.33 -11.46,-133.13 -35.77,-133.45C-60.48,-133.78 -70.25,-152.09 -70.00,-170.88C-69.75,-189.66 -59.51,-207.50 -34.80,-207.18ZM136.75,-204.92L162.89,-204.57L162.18,-150.66C161.80,-121.46 178.37,-108.16 205.74,-107.80C234.94,-107.42 248.64,-123.99 248.64,-123.99L242.39,-146.13C242.39,-146.13 233.19,-129.91 215.22,-130.15C200.72,-130.34 195.32,-138.78 195.50,-152.67L196.18,-204.14L248.26,-203.45L248.52,-223.26L196.44,-223.94L197.00,-266.63L164.26,-246.63L163.97,-224.37L137.01,-224.73ZM306.74,-270.70C306.74,-270.70 291.59,-268.04 273.01,-268.28L270.92,-109.60L304.61,-109.16L305.52,-177.77C305.52,-177.77 311.77,-202.61 340.97,-202.23C356.90,-202.02 368.24,-194.51 368.04,-179.40L367.11,-108.33L400.60,-107.89L401.51,-177.33C401.89,-206.12 385.59,-224.11 350.46,-224.57C312.27,-225.07 306.19,-197.37 305.74,-194.73ZM465.85,-161.77L565.08,-158.42C568.36,-174.52 565.51,-221.74 501.58,-222.58C459.31,-223.14 432.42,-197.96 431.98,-164.26C431.47,-125.87 463.46,-104.41 500.02,-103.93C558.84,-103.15 567.94,-143.27 567.94,-143.27L535.38,-152.07C535.38,-152.07 534.83,-125.94 503.79,-126.34C476.22,-126.71 465.83,-144.21 465.85,-161.77ZM530.42,-178.90L468.11,-177.68C468.11,-177.68 472.51,-201.52 500.69,-201.14C527.85,-200.79 530.42,-178.90 530.42,-178.90ZM-732.38,137.49L-592.49,139.33L-592.20,116.87L-695.74,115.50L-695.14,69.96L-603.64,71.16L-603.35,48.90L-694.84,47.70L-694.23,1.54L-596.82,2.83L-596.53,-19.43L-730.29,-21.19ZM-532.01,121.95C-532.01,121.95 -523.50,142.89 -491.84,143.31C-457.54,143.76 -431.89,119.39 -431.43,84.67C-430.97,49.95 -455.97,25.11 -490.49,24.66C-527.04,24.17 -537.42,52.63 -537.42,52.63L-544.84,26.59L-564.45,26.34L-566.54,185.22L-532.85,185.67ZM-501.61,46.98C-477.30,47.30 -466.49,63.58 -466.76,84.20C-467.03,104.83 -478.27,121.02 -502.58,120.70C-527.29,120.38 -537.05,102.07 -536.81,83.28C-536.56,64.49 -526.32,46.65 -501.61,46.98ZM-365.72,-19.25C-365.72,-19.25 -380.87,-16.59 -399.45,-16.84L-401.54,141.85L-367.85,142.29L-366.94,73.67C-366.94,73.67 -360.69,48.83 -331.49,49.22C-315.56,49.43 -304.22,56.93 -304.42,72.04L-305.35,143.11L-271.86,143.55L-270.95,74.12C-270.57,45.32 -286.88,27.34 -322.00,26.88C-360.19,26.37 -366.28,54.07 -366.72,56.72ZM-206.61,89.67L-107.38,93.02C-104.11,76.93 -106.96,29.71 -170.88,28.87C-213.15,28.31 -240.04,53.49 -240.48,87.18C-240.99,125.58 -209.00,147.04 -172.44,147.52C-113.62,148.29 -104.52,108.18 -104.52,108.18L-137.08,99.37C-137.08,99.37 -137.63,125.51 -168.67,125.10C-196.24,124.74 -206.63,107.24 -206.61,89.67ZM-142.04,72.55L-204.35,73.77C-204.35,73.77 -199.96,49.93 -171.77,50.30C-144.61,50.66 -142.04,72.55 -142.04,72.55ZM135.46,79.47C135.87,48.23 119.53,32.69 90.94,32.32C49.07,31.76 43.96,63.15 43.51,66.21C43.53,64.99 43.15,31.69 3.32,31.16C-40.79,30.58 -44.10,65.26 -44.10,65.26L-53.28,33.07L-72.89,32.81L-74.38,146.16L-40.68,146.60L-39.78,77.98C-39.78,77.98 -32.51,53.16 -8.00,53.48C12.22,53.75 14.30,66.44 14.16,77.26L13.23,147.31L46.93,147.75L47.83,79.14C47.83,79.14 55.10,54.31 79.61,54.64C99.83,54.90 101.91,67.59 101.77,78.42L100.84,148.46L134.54,148.91ZM199.80,95.03L299.02,98.38C302.30,82.28 299.45,35.06 235.52,34.22C193.25,33.66 166.37,58.84 165.92,92.54C165.42,130.93 197.41,152.39 233.96,152.87C292.78,153.65 301.88,113.53 301.88,113.53L269.32,104.73C269.32,104.73 268.77,130.86 237.73,130.46C210.16,130.09 199.77,112.59 199.80,95.03ZM264.36,77.90L202.05,79.13C202.05,79.13 206.45,55.29 234.63,55.66C261.79,56.01 264.36,77.90 264.36,77.90ZM366.63,83.13C366.63,83.13 370.22,58.46 384.52,58.65C388.40,58.70 393.48,60.61 393.37,68.98C393.16,84.50 389.54,95.89 389.54,95.89L422.33,87.95C422.33,87.95 425.08,80.43 425.27,66.34C425.48,50.41 418.71,36.63 395.23,36.33C362.35,35.89 362.30,70.62 362.30,70.62L353.12,38.43L333.52,38.17L332.02,151.51L365.72,151.95ZM558.30,123.45L560.70,81.20C561.82,58.13 542.68,38.27 505.92,37.78C448.73,37.03 437.40,75.49 437.40,75.49L472.41,84.93C472.41,84.93 472.94,59.82 503.99,60.23C524.82,60.50 527.10,73.20 526.96,83.61C464.81,88.10 442.26,109.66 442.01,128.65C441.78,145.81 454.32,155.78 475.15,156.05C510.27,156.51 529.95,120.21 531.00,118.39C530.70,141.26 536.62,156.86 560.92,157.18C578.69,157.42 588.22,146.92 588.22,146.92L581.77,124.78C581.77,124.78 575.72,134.91 566.32,134.79C560.20,134.70 558.01,129.77 558.30,123.45ZM477.23,122.17C477.37,111.35 489.61,97.42 526.82,94.43L526.72,102.40C526.72,102.40 512.61,134.08 488.92,133.77C478.71,133.63 477.16,127.07 477.23,122.17ZM606.50,155.13L640.19,155.57L642.32,-5.97C642.32,-5.97 625.13,-3.34 608.59,-3.55Z" fill="#ffffff" stroke="#000000"/>
    <path d="M-549.06,-220.80C-549.06,-220.80 -554.28,-277.24 -640.33,-278.52C-699.32,-279.39 -736.79,-245.80 -737.49,-198.54C-738.19,-151.47 -699.71,-116.96 -648.60,-116.20C-602.14,-115.51 -588.83,-141.18 -588.83,-141.18L-589.17,-117.95L-555.44,-117.45L-554.20,-200.87L-651.97,-202.32L-652.30,-180.30L-588.26,-179.35C-588.26,-179.35 -593.09,-140.23 -642.58,-140.96C-679.14,-141.50 -700.60,-165.86 -700.12,-197.98C-699.66,-228.89 -680.70,-254.27 -640.90,-253.68C-586.16,-252.86 -586.17,-211.24 -586.17,-211.24ZM-481.91,-184.44C-481.91,-184.44 -478.32,-208.84 -464.18,-208.63C-460.34,-208.57 -455.32,-206.68 -455.44,-198.40C-455.67,-183.04 -459.27,-171.78 -459.27,-171.78L-426.83,-179.59C-426.83,-179.59 -424.09,-187.02 -423.88,-200.96C-423.65,-216.71 -430.32,-230.35 -453.55,-230.69C-486.07,-231.18 -486.17,-196.83 -486.17,-196.83L-495.20,-228.69L-514.59,-228.97L-516.25,-116.86L-482.92,-116.37ZM-292.39,-144.26L-289.95,-186.04C-288.80,-208.86 -307.71,-228.53 -344.07,-229.07C-400.62,-229.91 -411.90,-191.89 -411.90,-191.89L-377.28,-182.49C-377.28,-182.49 -376.71,-207.33 -346.01,-206.88C-325.41,-206.57 -323.17,-194.01 -323.32,-183.71C-384.81,-179.37 -407.14,-158.08 -407.42,-139.29C-407.67,-122.33 -395.29,-112.44 -374.69,-112.14C-339.95,-111.62 -320.42,-147.50 -319.39,-149.30C-319.72,-126.68 -313.89,-111.24 -289.85,-110.88C-272.28,-110.62 -262.83,-120.99 -262.83,-120.99L-269.17,-142.90C-269.17,-142.90 -275.18,-132.89 -284.47,-133.03C-290.53,-133.12 -292.68,-138.00 -292.39,-144.26ZM-372.58,-145.65C-372.42,-156.35 -360.29,-170.11 -323.48,-173.00L-323.60,-165.13C-323.60,-165.13 -337.60,-133.81 -361.03,-134.16C-371.13,-134.31 -372.65,-140.80 -372.58,-145.65ZM-221.88,-157.35L-254.32,-149.55C-254.32,-149.55 -252.28,-110.33 -187.84,-109.37C-155.52,-108.89 -129.49,-120.63 -129.15,-143.45C-128.90,-160.02 -139.42,-173.10 -167.63,-178.17L-195.84,-183.23C-208.94,-185.65 -217.19,-187.59 -217.09,-194.26C-217.01,-199.91 -210.46,-205.88 -196.32,-205.67C-167.63,-205.24 -166.91,-185.43 -166.91,-185.43L-134.47,-193.23C-134.47,-193.23 -138.63,-226.03 -194.59,-226.86C-224.08,-227.29 -247.70,-214.91 -248.03,-192.70C-248.33,-172.29 -228.43,-165.13 -210.71,-161.63L-184.52,-156.40C-168.81,-153.33 -161.99,-149.80 -162.09,-142.93C-162.21,-135.05 -173.78,-131.39 -187.11,-131.58C-222.46,-132.11 -221.88,-157.35 -221.88,-157.35ZM-69.77,-128.23C-69.77,-128.23 -61.39,-107.50 -30.08,-107.03C3.85,-106.53 29.26,-130.60 29.77,-164.94C30.28,-199.28 5.59,-223.89 -28.54,-224.40C-64.70,-224.93 -75.02,-196.80 -75.02,-196.80L-82.31,-222.57L-101.71,-222.85L-104.04,-65.70L-70.71,-65.20ZM-39.58,-202.33C-15.54,-201.98 -4.87,-185.86 -5.17,-165.46C-5.48,-145.05 -16.62,-129.06 -40.66,-129.41C-65.10,-129.78 -74.73,-147.90 -74.46,-166.48C-74.18,-185.07 -64.02,-202.70 -39.58,-202.33ZM130.10,-199.82L155.95,-199.44L155.16,-146.11C154.74,-117.22 171.11,-104.05 198.18,-103.65C227.06,-103.22 240.64,-119.59 240.64,-119.59L234.50,-141.50C234.50,-141.50 225.37,-125.47 207.59,-125.73C193.25,-125.95 187.92,-134.31 188.13,-148.04L188.88,-198.95L240.39,-198.18L240.68,-217.78L189.17,-218.54L189.80,-260.76L157.38,-241.04L157.05,-219.02L130.39,-219.41ZM298.35,-264.60C298.35,-264.60 283.36,-262.00 264.98,-262.27L262.65,-105.32L295.98,-104.82L296.99,-172.70C296.99,-172.70 303.21,-197.25 332.10,-196.82C347.85,-196.59 359.06,-189.15 358.83,-174.20L357.79,-103.91L390.92,-103.42L391.94,-172.10C392.36,-200.58 376.26,-218.39 341.52,-218.91C303.74,-219.47 297.68,-192.08 297.24,-189.46ZM455.55,-156.61L553.69,-153.13C556.96,-169.04 554.22,-215.76 490.99,-216.69C449.18,-217.31 422.55,-192.45 422.05,-159.12C421.49,-121.15 453.10,-99.87 489.25,-99.33C547.43,-98.47 556.50,-138.14 556.50,-138.14L524.31,-146.90C524.31,-146.90 523.72,-121.05 493.02,-121.50C465.75,-121.91 455.50,-139.23 455.55,-156.61ZM519.45,-173.44L457.81,-172.33C457.81,-172.33 462.20,-195.91 490.07,-195.49C516.94,-195.09 519.45,-173.44 519.45,-173.44ZM-730.15,137.45L-591.78,139.50L-591.45,117.28L-693.86,115.76L-693.19,70.72L-602.70,72.06L-602.37,50.04L-692.87,48.70L-692.19,3.05L-595.84,4.47L-595.51,-17.54L-727.82,-19.50ZM-531.92,122.40C-531.92,122.40 -523.54,143.14 -492.23,143.60C-458.30,144.10 -432.89,120.03 -432.38,85.69C-431.87,51.35 -456.56,26.74 -490.69,26.24C-526.85,25.70 -537.17,53.83 -537.17,53.83L-544.46,28.07L-563.86,27.78L-566.19,184.93L-532.86,185.43ZM-501.73,48.30C-477.69,48.65 -467.02,64.77 -467.32,85.18C-467.62,105.58 -478.77,121.58 -502.81,121.22C-527.25,120.86 -536.88,102.73 -536.61,84.15C-536.33,65.56 -526.17,47.94 -501.73,48.30ZM-367.21,-16.99C-367.21,-16.99 -382.20,-14.38 -400.58,-14.65L-402.91,142.30L-369.58,142.79L-368.57,74.92C-368.57,74.92 -362.35,50.36 -333.46,50.79C-317.71,51.03 -306.50,58.47 -306.73,73.41L-307.77,143.71L-274.64,144.20L-273.62,75.52C-273.20,47.04 -289.30,29.22 -324.05,28.71C-361.82,28.15 -367.88,55.54 -368.32,58.16ZM-210.01,91.01L-111.87,94.49C-108.60,78.57 -111.34,31.86 -174.57,30.92C-216.38,30.30 -243.01,55.16 -243.51,88.49C-244.07,126.47 -212.46,147.75 -176.31,148.28C-118.13,149.15 -109.06,109.48 -109.06,109.48L-141.25,100.72C-141.25,100.72 -141.84,126.57 -172.54,126.11C-199.81,125.71 -210.06,108.39 -210.01,91.01ZM-146.11,74.18L-207.75,75.28C-207.75,75.28 -203.36,51.71 -175.49,52.12C-148.62,52.52 -146.11,74.18 -146.11,74.18ZM128.35,81.48C128.81,50.57 112.67,35.18 84.39,34.76C42.98,34.15 37.88,65.19 37.43,68.21C37.45,67.00 37.13,34.06 -2.26,33.48C-45.89,32.83 -49.23,67.13 -49.23,67.13L-58.25,35.27L-77.65,34.99L-79.31,147.09L-45.98,147.59L-44.97,79.72C-44.97,79.72 -37.74,55.18 -13.50,55.54C6.50,55.83 8.53,68.39 8.38,79.09L7.35,148.38L40.68,148.87L41.68,81.00C41.68,81.00 48.92,56.46 73.16,56.82C93.15,57.12 95.19,69.67 95.03,80.38L94.01,149.66L127.34,150.16ZM191.97,96.97L290.11,100.44C293.38,84.53 290.63,37.82 227.41,36.88C185.60,36.26 158.96,61.12 158.47,94.45C157.90,132.43 189.51,153.71 225.67,154.24C283.84,155.10 292.92,115.44 292.92,115.44L260.72,106.68C260.72,106.68 260.14,132.53 229.43,132.07C202.16,131.67 191.91,114.34 191.97,96.97ZM255.86,80.14L194.22,81.24C194.22,81.24 198.61,57.67 226.49,58.08C253.35,58.48 255.86,80.14 255.86,80.14ZM357.01,85.47C357.01,85.47 360.60,61.08 374.74,61.29C378.58,61.35 383.60,63.24 383.48,71.52C383.25,86.87 379.65,98.13 379.65,98.13L412.09,90.33C412.09,90.33 414.83,82.90 415.03,68.96C415.27,53.20 408.60,39.57 385.37,39.22C352.85,38.74 352.74,73.09 352.74,73.09L343.72,41.23L324.33,40.94L322.67,153.05L356.00,153.55ZM546.53,125.66L548.97,83.87C550.12,61.06 531.21,41.38 494.85,40.85C438.29,40.01 427.02,78.03 427.02,78.03L461.63,87.43C461.63,87.43 462.20,62.59 492.91,63.04C513.51,63.35 515.75,75.91 515.60,86.21C454.11,90.55 431.77,111.84 431.50,130.62C431.24,147.59 443.62,157.47 464.23,157.78C498.97,158.29 518.50,122.42 519.53,120.61C519.20,143.24 525.03,158.68 549.07,159.04C566.64,159.30 576.09,148.93 576.09,148.93L569.75,127.02C569.75,127.02 563.74,137.03 554.45,136.89C548.39,136.80 546.24,131.92 546.53,125.66ZM466.34,124.27C466.50,113.56 478.62,99.80 515.44,96.91L515.32,104.79C515.32,104.79 501.32,136.10 477.89,135.76C467.79,135.61 466.27,129.12 466.34,124.27ZM594.15,157.08L627.48,157.57L629.85,-2.21C629.85,-2.21 612.84,0.37 596.48,0.13Z" fill="#ffffff" stroke="#000000"/>
    <path d="M-548.11,-216.65C-548.11,-216.65 -553.18,-272.49 -638.29,-273.89C-696.62,-274.85 -733.74,-241.69 -734.50,-194.94C-735.27,-148.40 -697.27,-114.20 -646.73,-113.37C-600.78,-112.61 -587.57,-137.97 -587.57,-137.97L-587.95,-115.00L-554.59,-114.45L-553.23,-196.95L-649.92,-198.55L-650.28,-176.77L-586.95,-175.73C-586.95,-175.73 -591.78,-137.04 -640.73,-137.85C-676.89,-138.44 -698.07,-162.57 -697.55,-194.34C-697.04,-224.90 -678.25,-249.97 -638.89,-249.32C-584.75,-248.43 -584.83,-207.27 -584.83,-207.27ZM-481.76,-180.59C-481.76,-180.59 -478.17,-204.71 -464.18,-204.48C-460.39,-204.42 -455.42,-202.54 -455.56,-194.35C-455.81,-179.16 -459.39,-168.03 -459.39,-168.03L-427.29,-175.70C-427.29,-175.70 -424.57,-183.05 -424.34,-196.83C-424.09,-212.41 -430.66,-225.91 -453.63,-226.29C-485.79,-226.82 -485.95,-192.85 -485.95,-192.85L-494.83,-224.37L-514.01,-224.68L-515.83,-113.81L-482.87,-113.27ZM-294.38,-140.54L-291.90,-181.86C-290.73,-204.42 -309.40,-223.91 -345.35,-224.50C-401.29,-225.43 -412.50,-187.84 -412.50,-187.84L-378.28,-178.49C-378.28,-178.49 -377.68,-203.06 -347.31,-202.56C-326.94,-202.22 -324.74,-189.79 -324.91,-179.61C-385.73,-175.41 -407.86,-154.40 -408.16,-135.82C-408.44,-119.04 -396.21,-109.24 -375.83,-108.91C-341.47,-108.34 -322.11,-143.79 -321.08,-145.57C-321.45,-123.20 -315.70,-107.92 -291.93,-107.52C-274.55,-107.24 -265.19,-117.48 -265.19,-117.48L-271.43,-139.16C-271.43,-139.16 -277.38,-129.27 -286.57,-129.42C-292.57,-129.52 -294.68,-134.35 -294.38,-140.54ZM-373.69,-142.04C-373.51,-152.63 -361.50,-166.22 -325.09,-169.02L-325.21,-161.23C-325.21,-161.23 -339.11,-130.28 -362.29,-130.66C-372.28,-130.83 -373.77,-137.25 -373.69,-142.04ZM-224.63,-153.38L-256.73,-145.71C-256.73,-145.71 -254.77,-106.91 -191.04,-105.86C-159.08,-105.34 -133.31,-116.90 -132.94,-139.48C-132.67,-155.86 -143.05,-168.82 -170.94,-173.87L-198.83,-178.93C-211.78,-181.34 -219.94,-183.27 -219.83,-189.86C-219.74,-195.46 -213.25,-201.35 -199.27,-201.12C-170.90,-200.65 -170.22,-181.05 -170.22,-181.05L-138.12,-188.72C-138.12,-188.72 -142.19,-221.16 -197.52,-222.07C-226.69,-222.55 -250.07,-210.35 -250.43,-188.37C-250.76,-168.19 -231.10,-161.08 -213.57,-157.59L-187.68,-152.37C-172.14,-149.31 -165.41,-145.81 -165.52,-139.01C-165.65,-131.22 -177.10,-127.61 -190.28,-127.83C-225.24,-128.41 -224.63,-153.38 -224.63,-153.38ZM-74.24,-124.32C-74.24,-124.32 -65.99,-103.80 -35.02,-103.29C-1.46,-102.74 23.71,-126.51 24.27,-160.47C24.83,-194.43 0.45,-218.81 -33.31,-219.36C-69.07,-219.95 -79.32,-192.15 -79.32,-192.15L-86.49,-217.64L-105.67,-217.96L-108.23,-62.54L-75.27,-61.99ZM-44.26,-197.56C-20.49,-197.17 -9.96,-181.21 -10.29,-161.04C-10.62,-140.86 -21.67,-125.05 -45.45,-125.45C-69.62,-125.84 -79.12,-143.79 -78.81,-162.16C-78.51,-180.54 -68.43,-197.96 -44.26,-197.56ZM123.55,-194.80L149.12,-194.38L148.25,-141.64C147.78,-113.07 163.95,-100.02 190.72,-99.58C219.29,-99.10 232.74,-115.27 232.74,-115.27L226.71,-136.95C226.71,-136.95 217.65,-121.11 200.07,-121.40C185.89,-121.64 180.63,-129.92 180.85,-143.50L181.68,-193.84L232.63,-193.00L232.95,-212.38L182.00,-213.22L182.69,-254.97L150.60,-235.52L150.24,-213.74L123.87,-214.18ZM290.06,-258.60C290.06,-258.60 275.23,-256.05 257.05,-256.35L254.49,-101.12L287.46,-100.58L288.56,-167.70C288.56,-167.70 294.76,-191.98 323.32,-191.51C338.91,-191.25 349.97,-183.88 349.73,-169.09L348.59,-99.57L381.35,-99.03L382.47,-166.96C382.93,-195.12 367.04,-212.77 332.67,-213.34C295.32,-213.95 289.28,-186.88 288.83,-184.28ZM445.36,-151.53L542.42,-147.94C545.67,-163.67 543.04,-209.87 480.51,-210.90C439.15,-211.58 412.77,-187.04 412.23,-154.08C411.61,-116.52 442.84,-95.42 478.60,-94.83C536.13,-93.89 545.17,-133.10 545.17,-133.10L513.34,-141.82C513.34,-141.82 512.72,-116.25 482.35,-116.75C455.38,-117.20 445.28,-134.35 445.36,-151.53ZM508.58,-168.08L447.61,-167.08C447.61,-167.08 451.99,-190.39 479.56,-189.94C506.13,-189.50 508.58,-168.08 508.58,-168.08ZM-727.79,137.36L-590.94,139.61L-590.58,117.64L-691.87,115.97L-691.13,71.42L-601.64,72.89L-601.28,51.12L-690.77,49.64L-690.03,4.50L-594.74,6.07L-594.38,-15.71L-725.23,-17.87ZM-531.72,122.80C-531.72,122.80 -523.46,143.32 -492.50,143.83C-458.94,144.38 -433.77,120.62 -433.21,86.66C-432.65,52.70 -457.03,28.32 -490.79,27.76C-526.55,27.17 -536.80,54.98 -536.80,54.98L-543.97,29.48L-563.15,29.17L-565.71,184.59L-532.74,185.13ZM-501.74,49.56C-477.96,49.95 -467.44,65.91 -467.77,86.09C-468.10,106.27 -479.15,122.07 -502.92,121.68C-527.10,121.28 -536.59,103.34 -536.29,84.96C-535.99,66.58 -525.91,49.16 -501.74,49.56ZM-368.59,-14.79C-368.59,-14.79 -383.42,-12.24 -401.60,-12.53L-404.16,142.69L-371.19,143.23L-370.09,76.11C-370.09,76.11 -363.89,51.83 -335.33,52.30C-319.74,52.56 -308.67,59.93 -308.92,74.72L-310.06,144.24L-277.30,144.78L-276.18,76.86C-275.72,48.69 -291.61,31.04 -325.97,30.47C-363.33,29.86 -369.37,56.94 -369.82,59.53ZM-213.29,92.28L-116.23,95.88C-112.98,80.14 -115.61,33.94 -178.14,32.91C-219.50,32.23 -245.88,56.77 -246.42,89.73C-247.04,127.29 -215.81,148.39 -180.05,148.98C-122.52,149.93 -113.48,110.71 -113.48,110.71L-145.31,101.99C-145.31,101.99 -145.93,127.56 -176.30,127.06C-203.27,126.61 -213.37,109.46 -213.29,92.28ZM-150.07,75.74L-211.04,76.73C-211.04,76.73 -206.66,53.42 -179.09,53.88C-152.52,54.31 -150.07,75.74 -150.07,75.74ZM121.37,83.40C121.87,52.84 105.93,37.59 77.97,37.13C37.01,36.45 31.91,67.14 31.46,70.13C31.48,68.93 31.22,36.36 -7.74,35.72C-50.89,35.01 -54.24,68.92 -54.24,68.92L-63.12,37.40L-82.29,37.09L-84.12,147.96L-51.16,148.50L-50.05,81.38C-50.05,81.38 -42.86,57.12 -18.89,57.51C0.89,57.84 2.89,70.26 2.71,80.85L1.58,149.37L34.54,149.91L35.65,82.79C35.65,82.79 42.84,58.53 66.82,58.93C86.59,59.25 88.59,71.67 88.41,82.26L87.28,150.78L120.25,151.33ZM184.26,98.83L281.31,102.42C284.57,86.69 281.93,40.49 219.41,39.46C178.05,38.78 151.67,63.32 151.13,96.28C150.51,133.84 181.73,154.94 217.49,155.53C275.03,156.47 284.07,117.26 284.07,117.26L252.24,108.54C252.24,108.54 251.62,134.11 221.25,133.61C194.28,133.16 184.17,116.01 184.26,98.83ZM247.48,82.28L186.51,83.28C186.51,83.28 190.89,59.97 218.46,60.42C245.03,60.86 247.48,82.28 247.48,82.28ZM347.50,87.73C347.50,87.73 351.09,63.61 365.08,63.84C368.87,63.90 373.84,65.78 373.70,73.97C373.45,89.15 369.87,100.29 369.87,100.29L401.97,92.62C401.97,92.62 404.69,85.27 404.92,71.49C405.17,55.91 398.60,42.41 375.63,42.03C343.46,41.50 343.30,75.47 343.30,75.47L334.43,43.95L315.25,43.63L313.43,154.51L346.39,155.05ZM534.88,127.78L537.36,86.46C538.53,63.90 519.86,44.41 483.91,43.81C427.97,42.89 416.76,80.48 416.76,80.48L450.97,89.83C450.97,89.83 451.58,65.26 481.94,65.76C502.32,66.10 504.52,78.52 504.35,88.71C443.53,92.91 421.40,113.92 421.10,132.50C420.82,149.28 433.05,159.08 453.43,159.41C487.79,159.98 507.15,124.53 508.18,122.75C507.81,145.12 513.56,160.40 537.33,160.79C554.71,161.08 564.07,150.84 564.07,150.84L557.83,129.16C557.83,129.16 551.88,139.05 542.69,138.90C536.69,138.80 534.57,133.97 534.88,127.78ZM455.57,126.28C455.74,115.69 467.76,102.10 504.17,99.30L504.04,107.09C504.04,107.09 490.15,138.04 466.97,137.65C456.98,137.49 455.49,131.07 455.57,126.28ZM581.92,158.93L614.89,159.47L617.49,1.45C617.49,1.45 600.66,3.97 584.48,3.71Z" fill="#ffffff" stroke="#000000"/>
    <path d="M-898.60,473.49C-901.68,472.89 -903.80,471.94 -903.80,470.04C-903.80,468.10 -901.45,466.62 -897.42,466.62C-888.95,466.62 -889.17,472.54 -889.17,472.54L-882.22,470.64C-882.22,470.64 -882.87,461.94 -897.15,461.94C-906.39,461.94 -910.80,466.16 -910.80,470.76C-910.80,474.48 -907.60,477.41 -901.90,478.62L-894.38,480.22C-890.31,481.09 -888.00,481.59 -888.00,484.29C-888.00,486.53 -890.73,487.82 -895.22,487.82C-905.78,487.82 -904.91,480.60 -904.91,480.60L-911.86,482.39C-911.63,486.64 -907.72,492.49 -895.10,492.49C-887.16,492.49 -881.04,489.49 -881.04,483.75C-881.04,479.80 -883.25,476.57 -890.47,475.13ZM-870.21,488.62C-870.21,488.62 -868.58,492.49 -862.69,492.49C-856.30,492.49 -851.59,487.90 -851.59,481.44C-851.59,474.98 -856.30,470.42 -862.73,470.42C-869.53,470.42 -871.39,475.74 -871.39,475.74L-872.83,470.91L-876.48,470.91L-876.48,500.47L-870.21,500.47ZM-864.74,474.60C-860.22,474.60 -858.17,477.60 -858.17,481.44C-858.17,485.27 -860.22,488.31 -864.74,488.31C-869.34,488.31 -871.20,484.93 -871.20,481.44C-871.20,477.94 -869.34,474.60 -864.74,474.60ZM-847.03,481.44C-847.03,487.63 -842.17,492.49 -834.00,492.49C-825.75,492.49 -820.89,487.63 -820.89,481.44C-820.89,475.28 -825.75,470.42 -834.00,470.42C-842.17,470.42 -847.03,475.28 -847.03,481.44ZM-840.46,481.44C-840.46,477.98 -838.90,474.60 -834.00,474.60C-829.13,474.60 -827.46,477.98 -827.46,481.44C-827.46,484.89 -829.13,488.31 -834.00,488.31C-838.90,488.31 -840.46,484.89 -840.46,481.44ZM-808.92,479.19C-808.92,479.19 -808.31,474.60 -805.65,474.60C-804.93,474.60 -803.98,474.94 -803.98,476.50C-803.98,479.38 -804.62,481.51 -804.62,481.51L-798.54,479.95C-798.54,479.95 -798.05,478.55 -798.05,475.93C-798.05,472.96 -799.34,470.42 -803.71,470.42C-809.83,470.42 -809.75,476.88 -809.75,476.88L-811.54,470.91L-815.19,470.91L-815.19,492L-808.92,492ZM-796.91,474.60L-792.05,474.60L-792.05,484.63C-792.05,490.06 -788.93,492.49 -783.84,492.49C-778.40,492.49 -775.90,489.38 -775.90,489.38L-777.11,485.27C-777.11,485.27 -778.78,488.31 -782.13,488.31C-784.83,488.31 -785.85,486.76 -785.85,484.17L-785.85,474.60L-776.16,474.60L-776.16,470.91L-785.85,470.91L-785.85,462.97L-791.89,466.77L-791.89,470.91L-796.91,470.91ZM-771.72,467.30L-765.45,467.30L-765.45,462.47L-771.72,462.47ZM-771.72,492L-765.45,492L-765.45,470.91L-771.72,470.91ZM-740.75,492L-734.48,492L-734.48,479.08C-734.48,473.72 -737.36,470.42 -744.36,470.42C-752.72,470.42 -753.17,476.88 -753.17,476.88L-754.96,470.91L-758.61,470.91L-758.61,492L-752.34,492L-752.34,479.23C-752.34,479.23 -751.04,474.60 -746.07,474.60C-742.68,474.60 -740.75,475.96 -740.75,478.78ZM-716.81,485.54C-709.40,485.54 -704.95,482.27 -704.95,478.02C-704.95,476.65 -705.41,475.39 -706.28,474.29C-707.04,472.89 -707.08,471.94 -704.91,471.94C-704.46,471.94 -703.13,472.01 -701.64,472.24L-703.09,467.57C-704.11,467.49 -705.29,467.41 -705.82,467.41C-707.88,467.41 -709.13,468.52 -709.13,470.42C-709.13,471.02 -708.75,471.75 -708.22,472.54C-710.27,471.21 -713.23,470.42 -716.88,470.42C-724.41,470.42 -728.81,473.72 -728.81,478.02C-728.81,480.87 -726.88,483.22 -723.38,484.51C-724.79,484.70 -728.70,485.39 -728.70,488.01C-728.70,491.13 -723.91,491.77 -723.42,491.81C-724.03,491.89 -729.92,492.49 -729.92,496.22C-729.92,498.35 -727.90,501.01 -721.25,501.01L-712.85,501.01C-706.32,501.01 -702.29,498.61 -702.29,494.66C-702.29,491.66 -704,488.31 -710.95,488.31L-718.74,488.31C-721.29,488.31 -722.58,487.90 -722.58,486.68C-722.58,485.39 -721.29,485.24 -720.49,485.27C-719.39,485.46 -718.14,485.54 -716.81,485.54ZM-722.47,478.02C-722.47,475.77 -721.02,474.10 -716.88,474.10C-712.74,474.10 -711.37,475.77 -711.37,478.02C-711.37,480.18 -712.74,481.85 -716.88,481.85C-721.02,481.85 -722.47,480.18 -722.47,478.02ZM-712.21,492.46C-709.70,492.61 -708.90,493.56 -708.90,495.08C-708.90,497.59 -711.75,498.00 -716.31,498.00C-721.59,498.00 -723.30,497.21 -723.30,495.12C-723.30,492 -719.77,492 -719.62,492ZM-663.99,472.54C-663.99,472.54 -665.13,461.94 -681.31,461.94C-692.41,461.94 -699.36,468.36 -699.36,477.26C-699.36,486.11 -692.03,492.49 -682.42,492.49C-673.68,492.49 -671.24,487.63 -671.24,487.63L-671.24,492L-664.90,492L-664.90,476.31L-683.29,476.31L-683.29,480.45L-671.24,480.45C-671.24,480.45 -672.04,487.82 -681.35,487.82C-688.23,487.82 -692.33,483.30 -692.33,477.26C-692.33,471.44 -688.84,466.62 -681.35,466.62C-671.05,466.62 -670.94,474.44 -670.94,474.44ZM-651.26,479.19C-651.26,479.19 -650.65,474.60 -647.99,474.60C-647.27,474.60 -646.32,474.94 -646.32,476.50C-646.32,479.38 -646.96,481.51 -646.96,481.51L-640.88,479.95C-640.88,479.95 -640.39,478.55 -640.39,475.93C-640.39,472.96 -641.68,470.42 -646.05,470.42C-652.17,470.42 -652.09,476.88 -652.09,476.88L-653.88,470.91L-657.53,470.91L-657.53,492L-651.26,492ZM-636.97,481.44C-636.97,487.63 -632.10,492.49 -623.93,492.49C-615.69,492.49 -610.82,487.63 -610.82,481.44C-610.82,475.28 -615.69,470.42 -623.93,470.42C-632.10,470.42 -636.97,475.28 -636.97,481.44ZM-630.39,481.44C-630.39,477.98 -628.84,474.60 -623.93,474.60C-619.07,474.60 -617.40,477.98 -617.40,481.44C-617.40,484.89 -619.07,488.31 -623.93,488.31C-628.84,488.31 -630.39,484.89 -630.39,481.44ZM-608.54,474.60L-603.68,474.60L-603.68,484.63C-603.68,490.06 -600.56,492.49 -595.47,492.49C-590.04,492.49 -587.53,489.38 -587.53,489.38L-588.75,485.27C-588.75,485.27 -590.42,488.31 -593.76,488.31C-596.46,488.31 -597.49,486.76 -597.49,484.17L-597.49,474.60L-587.80,474.60L-587.80,470.91L-597.49,470.91L-597.49,462.97L-603.53,466.77L-603.53,470.91L-608.54,470.91ZM-578.18,481.82L-559.71,482.20C-559.14,479.19 -559.79,470.42 -571.68,470.42C-579.55,470.42 -584.49,475.17 -584.49,481.44C-584.49,488.58 -578.49,492.49 -571.68,492.49C-560.74,492.49 -559.14,485.01 -559.14,485.01L-565.22,483.45C-565.22,483.45 -565.26,488.31 -571.04,488.31C-576.17,488.31 -578.14,485.08 -578.18,481.82ZM-566.21,478.47L-577.80,478.85C-577.80,478.85 -577.04,474.41 -571.80,474.41C-566.74,474.41 -566.21,478.47 -566.21,478.47ZM-549.26,483.56L-555.34,485.12C-555.34,485.12 -554.85,492.49 -542.73,492.49C-536.65,492.49 -531.78,490.21 -531.78,485.92C-531.78,482.80 -533.80,480.37 -539.12,479.50L-544.44,478.62C-546.91,478.21 -548.47,477.86 -548.47,476.61C-548.47,475.55 -547.25,474.41 -544.59,474.41C-539.19,474.41 -539.00,478.13 -539.00,478.13L-532.92,476.57C-532.92,476.57 -533.80,470.42 -544.32,470.42C-549.87,470.42 -554.28,472.81 -554.28,476.99C-554.28,480.83 -550.52,482.12 -547.17,482.73L-542.23,483.64C-539.27,484.17 -537.98,484.82 -537.98,486.11C-537.98,487.59 -540.14,488.31 -542.65,488.31C-549.30,488.31 -549.26,483.56 -549.26,483.56ZM-509.40,500.47L-503.09,500.47L-503.09,470.91L-506.74,470.91L-508.22,475.74C-508.22,475.74 -510.05,470.42 -516.85,470.42C-523.31,470.42 -527.98,474.98 -527.98,481.44C-527.98,487.90 -523.31,492.49 -516.89,492.49C-511.00,492.49 -509.40,488.66 -509.40,488.66ZM-514.87,474.60C-510.28,474.60 -508.38,477.94 -508.38,481.44C-508.38,484.93 -510.28,488.31 -514.87,488.31C-519.36,488.31 -521.41,485.27 -521.41,481.44C-521.41,477.60 -519.36,474.60 -514.87,474.60ZM-490.02,470.91L-496.25,470.91L-496.25,483.83C-496.25,489.19 -493.37,492.49 -486.37,492.49C-478.01,492.49 -477.56,486.03 -477.56,486.03L-475.77,492L-472.12,492L-472.12,470.91L-478.39,470.91L-478.39,483.68C-478.39,483.68 -479.69,488.31 -484.66,488.31C-488.05,488.31 -490.02,486.95 -490.02,484.13ZM-460.12,481.82L-441.65,482.20C-441.08,479.19 -441.72,470.42 -453.62,470.42C-461.48,470.42 -466.42,475.17 -466.42,481.44C-466.42,488.58 -460.42,492.49 -453.62,492.49C-442.67,492.49 -441.08,485.01 -441.08,485.01L-447.16,483.45C-447.16,483.45 -447.20,488.31 -452.97,488.31C-458.10,488.31 -460.08,485.08 -460.12,481.82ZM-448.15,478.47L-459.74,478.85C-459.74,478.85 -458.98,474.41 -453.73,474.41C-448.68,474.41 -448.15,478.47 -448.15,478.47ZM-421.24,482.58L-421.24,478.89L-437.28,478.89L-437.28,482.58ZM-402.39,462.47L-416.30,462.47L-416.30,492L-401.63,492C-391.53,492 -386.97,489.00 -386.97,483.37C-386.97,477.75 -392.59,476.76 -393.12,476.69C-392.63,476.61 -387.73,475.66 -387.73,470.72C-387.73,465.10 -392.29,462.47 -402.39,462.47ZM-402.01,474.82L-409.54,474.82L-409.54,466.62L-402.01,466.62C-397.68,466.62 -394.76,467.68 -394.76,470.72C-394.76,473.76 -397.68,474.82 -402.01,474.82ZM-409.54,487.82L-409.54,478.85L-400.91,478.85C-396.77,478.85 -394.00,480.37 -394.00,483.34C-394.00,486.38 -396.92,487.82 -401.25,487.82ZM-382.41,481.44C-382.41,487.63 -377.54,492.49 -369.37,492.49C-361.13,492.49 -356.26,487.63 -356.26,481.44C-356.26,475.28 -361.13,470.42 -369.37,470.42C-377.54,470.42 -382.41,475.28 -382.41,481.44ZM-375.83,481.44C-375.83,477.98 -374.27,474.60 -369.37,474.60C-364.51,474.60 -362.84,477.98 -362.84,481.44C-362.84,484.89 -364.51,488.31 -369.37,488.31C-374.27,488.31 -375.83,484.89 -375.83,481.44ZM-350.56,492L-344.29,492L-344.29,461.94C-344.29,461.94 -347.48,462.47 -350.56,462.47ZM-320.01,474.25C-320.01,474.25 -321.61,470.42 -327.50,470.42C-333.92,470.42 -338.59,475.01 -338.59,481.47C-338.59,487.93 -333.92,492.49 -327.46,492.49C-320.66,492.49 -318.83,487.17 -318.83,487.17L-317.35,492L-313.70,492L-313.70,461.94C-313.70,461.94 -316.86,462.47 -320.01,462.47ZM-325.48,488.31C-329.97,488.31 -332.02,485.31 -332.02,481.47C-332.02,477.64 -329.97,474.60 -325.48,474.60C-320.88,474.60 -318.98,477.98 -318.98,481.47C-318.98,484.97 -320.88,488.31 -325.48,488.31Z"/>
</svg>