<?xml version="1.0"?>
<svg xmlns="http://www.w3.org/2000/svg" width="1920" height="1080" viewBox="-960 -540 1920 1080">
    <path d="M-818.76,-199.31L-837.28,-191.37L-820.46,-155.91L-772.06,-142.02L-731.25,-153.76L-712.02,-190.47L-723.14,-219.11L-752.11,-234.16L-797.98,-247.82L-809.24,-255.50L-813.00,-267.01L-801.37,-287.50L-777.01,-293.73L-749.56,-284.79L-738.74,-260.21L-719.98,-267.45L-734.77,-299.55L-777.95,-311.83L-816.19,-300.38L-833.88,-265.65L-828.10,-243.97L-800.40,-226.70L-753.87,-213.57L-739.71,-203.62L-735.19,-189.34L-745.26,-168.20L-773.01,-160.13L-804.79,-169.95ZM-640.48,-266.99L-680.22,-250.46L-695.49,-204.72L-680.21,-158.98L-640.48,-142.45L-600.73,-158.99L-585.44,-204.72L-600.72,-250.46ZM-640.48,-159.43L-664.50,-170.01L-675.10,-204.70L-664.49,-239.41L-640.48,-250.00L-616.43,-239.41L-605.81,-204.70L-616.43,-170.01ZM-431.57,-147L-431.57,-214.27L-375.40,-297.74L-392.50,-308.64L-441.11,-232.03L-490.62,-308.64L-508.82,-297.74L-452.66,-214.27L-452.66,-147ZM-305.48,-266.99L-345.22,-250.46L-360.50,-204.72L-345.22,-158.98L-305.48,-142.45L-265.73,-158.99L-250.44,-204.72L-265.72,-250.46ZM-305.48,-159.43L-329.50,-170.01L-340.11,-204.70L-329.50,-239.41L-305.48,-250.00L-281.43,-239.41L-270.81,-204.70L-281.43,-170.01ZM-134.65,-262.44L-154.63,-262.44L-154.63,-199.86L-163.28,-169.94L-185.86,-159.69L-204.58,-168.35L-210.01,-191.99L-210.01,-262.44L-229.99,-262.44L-229.99,-191.84L-222.45,-156.41L-189.96,-142.49L-168.38,-147.83L-152.63,-163.65L-152.63,-147L-134.65,-147ZM6.22,-147L45.51,-286.42L84.80,-147L105.89,-147L146.74,-303.73L126.76,-308.64L95.46,-172.53L58.16,-306.84L32.86,-306.84L-3.33,-172.53L-35.30,-308.64L-55.72,-303.73L-14.87,-147ZM234.75,-224.42L169.64,-204.45L156.40,-176.85L168.29,-150.64L196.46,-142.43L217.13,-146.45L236.07,-160.35L235.99,-147L254.63,-147L254.66,-221.47L244.15,-255.36L209.60,-266.99L178.52,-259.40L163.42,-236.87L179.26,-227.13L189.43,-244.68L207.56,-250.68L226.99,-244.99ZM234.75,-206.76L234.73,-177.53L220.61,-165.16L199.65,-158.73L184.61,-162.63L177.69,-177.74L186.61,-193.43ZM284.72,-147L304.70,-147L304.70,-209.83L313.36,-239.49L335.95,-249.74L354.66,-241.08L360.08,-217.82L360.08,-147L380.06,-147L380.06,-217.82L372.50,-253.03L340.01,-266.96L318.44,-262.20L302.70,-245.79L302.70,-262.44L284.72,-262.44ZM457.49,-145.45L457.50,-145.46L455.19,-162.67L446.25,-161.33L436.62,-166.21L434.90,-180.74L434.90,-247.12L454.66,-247.12L454.66,-262.44L434.90,-262.44L434.90,-302.40L414.92,-302.40L414.92,-262.44L398.49,-262.44L398.49,-247.12L414.92,-247.12L414.92,-180.74L419.48,-152.87L442.22,-143.32ZM606.50,-147L606.50,-287.97L660.23,-287.97L660.23,-306.84L531.69,-306.84L531.69,-287.97L585.41,-287.97L585.41,-147ZM726.38,-266.99L686.63,-250.46L671.36,-204.72L686.64,-158.98L726.38,-142.45L766.12,-158.99L781.42,-204.72L766.14,-250.46ZM726.38,-159.43L702.35,-170.01L691.75,-204.70L702.36,-239.41L726.38,-250.00L750.42,-239.41L761.04,-204.70L750.42,-170.01ZM-665.32,52.86L-603.69,52.86L-559.17,43.77L-542.33,7.31L-551.23,-17.14L-576.06,-30.74L-555.58,-44.95L-549.84,-66.29L-565.97,-98.33L-606.88,-107.08L-665.32,-107.08ZM-644.04,-38.24L-644.08,-88.07L-611.66,-88.07L-583.87,-84.81L-572.04,-63.59L-583.45,-43.55L-608.94,-38.24ZM-644.04,34.03L-644.00,-19.42L-606.63,-19.42L-578.03,-14.20L-565.21,7.29L-576.13,29.53L-603.69,34.03ZM-494.40,30.84L-506.05,0.20L-420.36,0.19L-419.25,-7.81L-432.47,-50.10L-472.52,-67.28L-511.69,-50.75L-526.40,-5.01L-511.69,40.73L-472.52,57.26L-439.53,47.52L-424.35,23.72L-439.91,14.01L-452.01,33.76L-471.38,40.27ZM-505.38,-15.80L-492.84,-42.22L-472.54,-50.32L-449.88,-40.69L-440.78,-15.80ZM-313.57,17.50L-312.24,13.95L-240.31,13.95L-238.76,18.17L-225.22,54.58L-205.02,47.51L-264.73,-107.04L-286.27,-107.04L-346.43,47.47L-327.56,54.58ZM-247.20,-4.92L-305.14,-4.92L-275.61,-82.84ZM-53.95,39.69L-93.93,20.47L-106.72,-27.13L-93.07,-74.71L-53.95,-93.93L-22.62,-83.29L-7.77,-55.66L11.03,-65.16L-8.57,-97.80L-53.95,-112.04L-110.34,-87.15L-129.36,-27.11L-110.34,32.92L-53.95,57.80L-8.67,43.34L10.58,11.83L-7.77,1.65L-24.14,29.25ZM58.27,52.80L58.27,-107.04L38.29,-107.04L38.29,52.80ZM102.29,-81.94L109.51,-89.84L109.53,-101.13L102.17,-109.22L91.91,-109.22L84.74,-101.15L84.74,-89.88L92.03,-81.94ZM107.11,52.80L107.11,-62.64L87.14,-62.64L87.14,52.80ZM134.94,52.80L154.96,52.80L154.96,-6.92L160.41,-36.50L183.99,-49.94L199.60,-42.75L204.73,-22.70L204.73,52.80L224.71,52.80L224.71,-14.02L231.85,-39.27L253.95,-49.94L270.90,-40.86L274.73,-20.44L274.73,52.80L294.71,52.80L294.71,-27.56L285.78,-56.75L258.26,-67.16L237.43,-62.15L221.60,-44.66L209.94,-61.47L188.90,-67.05L167.94,-62.52L152.96,-46.21L152.96,-62.64L134.98,-62.64ZM392.70,-24.62L327.60,-4.65L314.35,22.95L326.24,49.16L354.41,57.37L375.08,53.35L394.03,39.45L393.94,52.80L412.59,52.80L412.61,-21.67L402.10,-55.56L367.56,-67.19L336.48,-59.60L321.37,-37.07L337.21,-27.33L347.39,-44.88L365.52,-50.88L384.95,-45.20ZM392.70,-6.96L392.69,22.27L378.56,34.64L357.61,41.07L342.56,37.17L335.65,22.06L344.56,6.37ZM492.24,54.35L492.24,54.34L489.94,37.13L480.99,38.47L471.36,33.59L469.64,19.06L469.64,-47.32L489.40,-47.32L489.40,-62.64L469.64,-62.64L469.64,-102.60L449.66,-102.60L449.66,-62.64L433.23,-62.64L433.23,-47.32L449.66,-47.32L449.66,19.06L454.22,46.93L476.97,56.48ZM539.01,30.84L527.36,0.20L613.05,0.19L614.16,-7.81L600.94,-50.10L560.89,-67.28L521.72,-50.75L507.01,-5.01L521.72,40.73L560.89,57.26L593.88,47.52L609.06,23.72L593.50,14.01L581.40,33.76L562.03,40.27ZM528.03,-15.80L540.57,-42.22L560.87,-50.32L583.53,-40.69L592.63,-15.80ZM-489.40,252.60L-436.34,252.60L-377.97,232.32L-358.72,172.22L-379.22,111.99L-439.23,92.76L-489.40,92.76ZM-468.31,233.95L-468.31,111.63L-439.23,111.63L-396.82,123.89L-380.91,172.01L-394.95,219.47L-438.56,233.95ZM-311.03,230.64L-322.68,200.00L-236.99,199.99L-235.88,191.99L-249.10,149.70L-289.14,132.52L-328.32,149.05L-343.03,194.79L-328.32,240.53L-289.14,257.06L-256.16,247.32L-240.98,223.52L-256.54,213.81L-268.64,233.56L-288.01,240.07ZM-322.01,184.00L-309.47,157.58L-289.16,149.48L-266.51,159.11L-257.41,184.00ZM-202.48,216.84L-219.46,224.77L-208.15,247.42L-173.95,257.18L-141.32,249.06L-126.37,221.41L-135.35,197.72L-154.79,187.73L-181.71,180.45L-196.67,174.46L-201.57,165.23L-195.15,153.85L-176.32,149.67L-158.22,154.60L-150.44,169.29L-133.63,161.37L-143.41,142.03L-175.56,132.61L-207.40,140.78L-221.08,167.48L-212.20,188.68L-192.17,198.23L-163.73,205.76L-150.32,212.49L-146.78,223.18L-155.70,236.59L-173.27,240.15L-194.50,233.17ZM-89.96,117.86L-82.74,109.96L-82.72,98.67L-90.08,90.58L-100.34,90.58L-107.51,98.65L-107.52,109.92L-100.22,117.86ZM-85.14,252.60L-85.14,137.16L-105.12,137.16L-105.12,252.60ZM-12.79,300.90L28.57,283.54L38.52,245.05L38.52,137.16L20.76,137.16L20.76,152.70L7.68,137.95L-12.56,132.18L-50.04,149.55L-63.05,194.44L-50.04,239.34L-12.56,256.71L5.32,252.45L18.54,240.39L18.48,248.86L11.42,274.70L-12.32,283.68L-30.80,278.47L-38.07,262.81L-54.06,270.14L-43.99,291.38ZM-11.43,149.17L10.63,160.61L20.97,194.46L11.48,228.31L-11.43,239.74L-33.74,228.31L-42.66,194.46L-33.74,160.61ZM67.05,252.60L87.03,252.60L87.03,189.77L95.69,160.11L118.28,149.86L136.99,158.52L142.41,181.78L142.41,252.60L162.39,252.60L162.39,181.78L154.83,146.57L122.34,132.64L100.76,137.40L85.03,153.81L85.03,137.16L67.05,137.16ZM215.11,230.64L203.46,200.00L289.16,199.99L290.27,191.99L277.04,149.70L237.00,132.52L197.82,149.05L183.11,194.79L197.82,240.53L237.00,257.06L269.98,247.32L285.16,223.52L269.60,213.81L257.50,233.56L238.13,240.07ZM204.13,184.00L216.67,157.58L236.98,149.48L259.63,159.11L268.73,184.00ZM360.51,151.95L375.51,156.92L381.51,140.05L361.95,132.64L342.88,138.55L329.56,157.14L329.56,137.16L311.58,137.16L311.58,251.47L331.56,252.60L331.56,190.22L338.86,162.38ZM448.70,255.39L456.57,247.37L456.52,236.09L448.57,228.16L437.38,228.21L429.51,236.23L429.56,247.51L437.51,255.44ZM432.71,214.38L452.06,214.38L452.06,208.26L455.04,192.09L465.84,178.82L485.17,160.16L494.15,133.53L479.82,100.22L442.05,87.80L408.11,100.47L394.96,130.14L411.94,137.83L422.00,113.63L442.24,105.90L463.53,112.42L472.59,134.89L466.68,153.25L453.31,166.36L437.41,184.25L432.71,208.26Z" fill="#ffffff" stroke="#000000"/>
    <path d="M-825.50,-151.67L-843.41,-142.87L-824.95,-108.68L-776.39,-97.43L-736.64,-111.14L-719.52,-148.42L-731.99,-176.17L-761.40,-189.55L-807.45,-200.70L-818.98,-207.71L-823.29,-218.90L-812.85,-239.76L-789.08,-247.17L-761.48,-239.74L-749.52,-216.00L-731.35,-224.12L-747.62,-255.10L-790.95,-265.02L-828.16,-251.73L-843.86,-216.49L-837.03,-195.34L-808.77,-179.70L-762.08,-169.11L-747.57,-160.00L-742.37,-146.11L-751.24,-124.69L-778.26,-115.29L-810.18,-123.37ZM-652.72,-227.75L-691.17,-209.37L-703.92,-163.36L-686.45,-118.93L-646.32,-104.63L-607.87,-123.02L-595.11,-169.02L-612.56,-213.46ZM-647.19,-121.41L-671.49,-130.64L-683.75,-164.39L-675.05,-199.25L-651.85,-210.95L-627.53,-201.72L-615.25,-167.96L-623.96,-133.11ZM-440.01,-119.87L-443.47,-186.37L-392.23,-271.78L-409.69,-281.68L-453.82,-203.44L-506.71,-276.63L-524.14,-264.92L-464.32,-185.29L-460.86,-118.78ZM-321.52,-244.98L-359.97,-226.60L-372.72,-180.59L-355.25,-136.15L-315.12,-121.86L-276.67,-140.25L-263.91,-186.25L-281.36,-230.68ZM-315.99,-138.64L-340.29,-147.86L-352.55,-181.62L-343.85,-216.48L-320.65,-228.18L-296.33,-218.95L-284.05,-185.18L-292.76,-150.33ZM-152.39,-249.27L-172.15,-248.24L-168.93,-186.36L-175.95,-156.34L-197.74,-145.05L-216.70,-152.65L-223.28,-175.74L-226.90,-245.39L-246.66,-244.36L-243.03,-174.57L-233.75,-139.92L-200.91,-127.83L-179.85,-134.22L-165.09,-150.67L-164.24,-134.21L-146.46,-135.14ZM-7.19,-142.38L24.49,-282.23L70.51,-146.42L91.36,-147.50L123.68,-304.56L103.68,-308.38L79.73,-172.21L35.95,-303.08L10.93,-301.78L-17.94,-167.13L-56.55,-300.05L-76.49,-294.15L-28.04,-141.29ZM214.77,-230.67L151.43,-207.58L139.75,-179.62L152.86,-154.31L181.13,-147.65L201.36,-152.68L219.37,-167.40L219.97,-154.19L238.41,-155.15L234.61,-228.78L222.47,-261.75L187.72,-271.47L157.38,-262.37L143.61,-239.32L159.77,-230.50L168.93,-248.37L186.54,-255.24L206.05,-250.62ZM215.67,-213.21L217.17,-184.32L203.83,-171.35L183.45,-163.92L168.38,-167.00L160.76,-181.59L168.77,-197.56ZM268.16,-156.70L287.91,-157.73L284.68,-219.84L291.72,-249.61L313.52,-260.91L332.47,-253.31L339.02,-230.59L342.67,-160.58L362.42,-161.60L358.78,-231.62L349.49,-266.04L316.65,-278.14L295.56,-272.33L280.85,-255.29L280.00,-271.76L262.22,-270.83ZM439.05,-164.05L439.05,-164.06L435.89,-180.96L427.11,-179.18L417.35,-183.50L414.90,-197.78L411.48,-263.41L431.02,-264.43L430.23,-279.57L410.69,-278.55L408.64,-318.06L388.89,-317.03L390.94,-277.53L374.70,-276.68L375.49,-261.54L391.73,-262.38L395.14,-196.76L401.08,-169.43L424.06,-161.16ZM586.29,-173.25L579.04,-312.62L632.16,-315.38L631.19,-334.04L504.11,-327.43L505.08,-308.77L558.19,-311.53L565.44,-172.16ZM698.64,-298.04L660.19,-279.66L647.44,-233.65L664.90,-189.21L705.04,-174.92L743.49,-193.31L756.25,-239.31L738.80,-283.75ZM704.17,-191.70L679.87,-200.92L667.60,-234.68L676.31,-269.54L699.51,-281.24L723.83,-272.01L736.11,-238.24L727.40,-203.39ZM-660.84,89.75L-599.91,86.58L-556.36,75.30L-541.58,38.39L-551.64,14.67L-576.89,2.51L-557.37,-12.60L-552.79,-33.99L-570.39,-64.84L-611.28,-71.39L-669.06,-68.38ZM-644.48,-1.41L-647.08,-50.67L-615.03,-52.34L-587.39,-50.55L-574.61,-30.18L-584.85,-9.78L-609.78,-3.22ZM-640.76,70.04L-643.48,17.19L-606.53,15.27L-577.98,18.96L-564.21,39.55L-573.86,62.10L-600.87,67.96ZM-492.99,59.19L-506.08,29.50L-421.36,25.07L-420.67,17.12L-435.92,-24.01L-476.40,-38.94L-514.27,-20.58L-526.47,25.39L-509.57,69.86L-469.99,84.19L-437.89,72.86L-424.10,48.54L-439.98,39.74L-450.93,59.89L-469.75,67.33ZM-506.24,13.64L-495.21,-13.13L-475.54,-22.18L-452.65,-13.82L-442.37,10.32ZM-314.90,36.70L-313.76,33.12L-242.65,29.42L-240.90,33.51L-225.64,68.81L-206.03,60.79L-273.02,-88.94L-294.31,-87.83L-345.84,68.02L-326.82,74.08ZM-250.43,11.12L-307.71,14.10L-282.53,-64.46ZM-57.07,45.29L-97.59,28.34L-112.68,-18.06L-101.64,-65.80L-63.95,-86.81L-32.43,-77.91L-16.32,-51.35L1.78,-61.72L-19.28,-92.98L-64.88,-104.72L-119.35,-77.22L-135.06,-16.88L-113.17,41.49L-56.14,63.19L-12.12,46.57L5.29,14.42L-13.37,5.30L-28.14,33.43ZM54.55,52.48L46.33,-105.55L26.58,-104.52L34.80,53.51ZM91.14,-83.00L97.88,-91.18L97.31,-102.34L89.62,-109.97L79.47,-109.44L72.80,-101.09L73.38,-89.94L81.00,-82.47ZM102.84,49.97L96.90,-64.16L77.15,-63.14L83.08,51.00ZM130.34,48.54L150.14,47.51L147.07,-11.53L150.94,-41.06L173.56,-55.56L189.36,-49.25L195.47,-29.70L199.35,44.95L219.10,43.92L215.67,-22.14L221.43,-47.47L242.73,-59.16L259.96,-51.05L264.78,-31.07L268.55,41.35L288.30,40.32L284.17,-39.13L273.84,-67.52L246.10,-76.40L225.76,-70.38L211.02,-52.27L198.62,-68.29L177.54,-72.73L157.05,-67.18L143.07,-50.28L142.23,-66.52L124.45,-65.60ZM381.20,-41.26L317.87,-18.17L306.19,9.80L319.29,35.10L347.57,41.77L367.80,36.73L385.81,22.01L386.41,35.22L404.85,34.26L401.05,-39.37L388.91,-72.33L354.16,-82.06L323.82,-72.96L310.04,-49.91L326.21,-41.09L335.36,-58.96L352.98,-65.82L372.48,-61.20ZM382.11,-23.80L383.60,5.10L370.27,18.06L349.89,25.49L334.81,22.41L327.20,7.82L335.20,-8.15ZM483.67,31.69L483.68,31.69L480.51,14.79L471.74,16.57L461.97,12.24L459.52,-2.04L456.11,-67.66L475.64,-68.68L474.85,-83.82L455.32,-82.81L453.26,-122.31L433.51,-121.29L435.56,-81.78L419.32,-80.93L420.11,-65.79L436.35,-66.63L439.77,-1.01L445.70,26.32L468.69,34.59ZM528.71,6.05L515.62,-23.64L600.34,-28.07L601.02,-36.02L585.78,-77.16L545.30,-92.08L507.42,-73.73L495.22,-27.75L512.13,16.72L551.70,31.05L583.81,19.72L597.59,-4.60L581.72,-13.40L570.76,6.75L551.95,14.19ZM515.45,-39.50L526.49,-66.27L546.15,-75.32L569.04,-66.96L579.32,-42.82ZM-476.64,278.18L-424.18,275.45L-367.52,252.39L-351.58,191.99L-374.94,133.50L-435.26,117.57L-484.86,120.15ZM-456.75,258.66L-463.04,137.72L-434.29,136.23L-391.73,146.17L-373.52,192.92L-384.97,240.57L-427.34,257.13ZM-301.42,247.29L-314.51,217.60L-229.79,213.18L-229.11,205.22L-244.35,164.09L-284.83,149.17L-322.71,167.52L-334.90,213.50L-318.00,257.96L-278.43,272.29L-246.32,260.97L-232.53,236.65L-248.41,227.85L-259.36,248.00L-278.18,255.43ZM-314.68,201.75L-303.64,174.98L-283.98,165.93L-261.09,174.28L-250.81,198.43ZM-194.81,228.06L-211.19,236.78L-198.85,258.60L-164.53,266.49L-132.69,256.78L-119.33,228.67L-129.42,205.71L-149.16,196.83L-176.15,191.02L-191.25,185.87L-196.57,177.00L-190.80,165.42L-172.40,160.31L-154.26,164.26L-145.81,178.39L-129.60,169.68L-140.26,151.07L-172.52,143.41L-203.59,153.13L-215.74,180.23L-205.87,200.72L-185.58,209.14L-157.07,215.12L-143.47,221.09L-139.42,231.47L-147.55,245.19L-164.74,249.62L-186.08,243.80ZM-88.66,124.42L-81.92,116.24L-82.49,105.08L-90.18,97.46L-100.33,97.98L-107.00,106.33L-106.42,117.48L-98.80,124.95ZM-76.96,257.39L-82.90,143.26L-102.65,144.28L-96.71,258.42ZM-2.95,301.42L37.05,282.13L44.90,243.57L39.36,136.90L21.80,137.81L22.60,153.18L8.91,139.27L-11.40,134.60L-47.56,153.71L-58.11,198.76L-42.94,242.47L-5.00,257.72L12.46,252.59L24.91,239.99L25.29,248.36L19.63,274.27L-3.37,284.37L-21.91,280.17L-29.90,265.07L-45.33,273.13L-34.28,293.61ZM-9.41,151.34L13.00,161.52L24.96,194.46L17.31,228.41L-4.75,240.88L-27.40,230.73L-37.95,197.73L-30.88,163.80ZM73.50,249.56L93.25,248.54L90.02,186.42L97.06,156.65L118.86,145.36L137.81,152.95L144.37,175.67L148.01,245.69L167.76,244.66L164.12,174.65L154.83,140.23L122.00,128.12L100.91,133.94L86.20,150.97L85.34,134.51L67.56,135.43ZM218.75,220.24L205.66,190.55L290.38,186.12L291.07,178.17L275.82,137.04L235.35,122.11L197.47,140.47L185.27,186.44L202.17,230.91L241.75,245.24L273.86,233.91L287.64,209.60L271.76,200.79L260.81,220.94L242.00,228.38ZM205.50,174.69L216.54,147.92L236.20,138.87L259.09,147.23L269.37,171.37ZM358.46,134.97L373.55,139.10L378.61,122.11L358.89,115.80L340.34,122.62L328.13,141.69L327.10,121.93L309.32,122.86L315.20,235.87L335.01,235.96L331.80,174.29L337.59,146.39ZM450.97,232.69L458.34,224.36L457.70,213.22L449.44,205.78L438.38,206.41L431.01,214.74L431.64,225.88L439.91,233.32ZM433.05,192.97L452.18,191.97L451.87,185.93L453.99,169.79L463.98,156.11L482.13,136.67L489.63,109.88L473.76,77.68L435.78,67.35L402.87,81.62L391.40,111.63L408.58,118.36L417.28,93.91L436.90,85.24L458.28,90.58L468.39,112.33L463.50,130.79L450.95,144.44L436.15,162.94L432.74,186.92Z" fill="#ffffff" stroke="#000000"/>
    <path d="M-829.40,-103.96L-846.65,-94.34L-826.65,-61.49L-778.07,-52.87L-739.47,-68.46L-724.47,-106.19L-738.22,-132.98L-767.98,-144.70L-814.08,-153.35L-825.83,-159.69L-830.67,-170.53L-821.42,-191.69L-798.31,-200.23L-770.64,-194.31L-757.60,-171.46L-740.06,-180.42L-757.73,-210.21L-801.07,-217.79L-837.18,-202.73L-850.89,-167.09L-843.04,-146.54L-814.30,-132.52L-767.60,-124.46L-752.79,-116.20L-746.93,-102.73L-754.60,-81.11L-780.83,-70.42L-812.80,-76.77ZM-662.51,-188.05L-699.57,-167.90L-709.81,-121.77L-690.26,-78.74L-649.85,-66.67L-612.79,-86.82L-602.53,-132.96L-622.08,-175.99ZM-651.58,-83.21L-676.07,-91.08L-689.93,-123.82L-683.12,-158.73L-660.78,-171.49L-636.27,-163.61L-622.39,-130.87L-629.21,-95.97ZM-446.69,-92.34L-453.53,-157.90L-407.27,-244.97L-425.04,-253.86L-464.64,-174.24L-520.68,-243.88L-537.31,-231.41L-474.08,-155.76L-467.24,-90.19ZM-335.98,-222.11L-373.04,-201.96L-383.28,-155.83L-363.74,-112.80L-323.32,-100.72L-286.26,-120.88L-276.01,-167.01L-295.55,-210.05ZM-325.05,-117.27L-349.54,-125.14L-363.40,-157.88L-356.59,-192.79L-334.26,-205.55L-309.74,-197.67L-295.86,-164.93L-302.69,-130.03ZM-169.01,-235.05L-188.49,-233.01L-182.12,-172.01L-187.52,-141.97L-208.48,-129.69L-227.61,-136.23L-235.31,-158.72L-242.47,-227.38L-261.94,-225.35L-254.77,-156.54L-243.82,-122.77L-210.73,-112.50L-190.24,-119.91L-176.50,-136.93L-174.80,-120.70L-157.27,-122.52ZM-19.97,-136.85L4.15,-276.73L56.63,-144.84L77.18,-146.98L101.06,-303.90L81.09,-306.65L64.42,-170.80L14.41,-297.93L-10.26,-295.35L-31.87,-160.76L-76.87,-290.17L-96.28,-283.32L-40.53,-134.70ZM194.91,-235.54L133.48,-209.46L123.37,-181.21L137.63,-156.87L165.93,-151.74L185.66,-157.76L202.71,-173.23L203.99,-160.21L222.16,-162.10L214.62,-234.69L200.93,-266.66L166.07,-274.48L136.55,-263.92L124.11,-240.43L140.55,-232.55L148.68,-250.68L165.74,-258.37L185.26,-254.81ZM196.70,-218.33L199.66,-189.84L187.15,-176.34L167.38,-167.94L152.32,-170.22L144.04,-184.24L151.14,-200.44ZM251.49,-165.16L270.96,-167.19L264.58,-228.43L270.00,-258.22L290.98,-270.51L310.10,-263.97L317.75,-241.85L324.95,-172.82L344.42,-174.85L337.22,-243.88L326.27,-277.43L293.19,-287.71L272.64,-280.88L258.97,-263.28L257.28,-279.51L239.75,-277.68ZM420.05,-181.22L420.05,-181.22L416.06,-197.77L407.47,-195.56L397.59,-199.33L394.44,-213.32L387.69,-278.02L406.95,-280.03L405.39,-294.96L386.13,-292.95L382.07,-331.90L362.59,-329.87L366.66,-290.92L350.64,-289.25L352.20,-274.32L368.21,-275.99L374.96,-211.29L382.24,-184.58L405.38,-177.59ZM565.13,-197.88L550.80,-335.28L603.17,-340.74L601.25,-359.14L475.96,-346.07L477.88,-327.68L530.25,-333.14L544.58,-195.73ZM669.78,-327.02L632.72,-306.87L622.48,-260.73L642.03,-217.70L682.44,-205.63L719.50,-225.79L729.75,-271.92L710.21,-314.95ZM680.71,-222.18L656.22,-230.05L642.36,-262.79L649.17,-297.69L671.51,-310.46L696.02,-302.58L709.90,-269.83L703.07,-234.93ZM-654.21,126.24L-594.14,119.97L-551.67,106.58L-538.96,69.33L-550.12,46.40L-575.70,35.68L-557.19,19.74L-553.76,-1.64L-572.74,-31.24L-613.51,-35.61L-670.47,-29.67ZM-642.73,35.28L-647.83,-13.29L-616.23,-16.59L-588.82,-16.24L-575.13,3.25L-584.21,23.93L-608.51,31.71ZM-635.38,105.72L-640.78,53.61L-604.36,49.81L-575.94,52.00L-561.26,71.64L-569.65,94.43L-596.05,101.61ZM-489.85,87.39L-504.32,58.72L-420.79,49.99L-420.53,42.08L-437.71,2.21L-478.49,-10.47L-514.99,9.63L-524.69,55.71L-505.69,98.80L-465.83,110.92L-434.67,98.08L-422.30,73.33L-438.45,65.45L-448.24,85.93L-466.46,94.24ZM-505.30,43.05L-495.76,16.02L-476.79,6.06L-453.73,13.14L-442.33,36.48ZM-314.95,56.01L-314.02,52.41L-243.91,45.10L-241.96,49.05L-225.06,83.16L-206.09,74.22L-280.01,-70.35L-301.00,-68.16L-343.93,88.56L-324.82,93.57ZM-252.53,27.40L-309.01,33.30L-288.15,-45.66ZM-59.64,51.24L-100.56,36.57L-117.87,-8.52L-109.40,-56.29L-73.22,-79.00L-41.61,-71.81L-24.32,-46.39L-6.96,-57.57L-29.38,-87.39L-75.06,-96.65L-127.50,-66.66L-139.93,-6.20L-115.29,50.37L-57.80,68.89L-15.13,50.19L0.43,17.52L-18.49,9.46L-31.64,38.03ZM51.08,52.61L34.83,-103.19L15.36,-101.16L31.61,54.64ZM80.29,-83.20L86.52,-91.64L85.39,-102.64L77.40,-109.78L67.39,-108.74L61.23,-100.14L62.37,-89.15L70.29,-82.16ZM98.69,47.64L86.95,-64.88L67.48,-62.85L79.21,49.67ZM125.81,44.81L145.32,42.78L139.25,-15.43L141.56,-44.81L163.17,-60.31L179.12,-54.89L186.16,-35.88L193.84,37.72L213.31,35.69L206.52,-29.45L210.91,-54.78L231.37,-67.43L248.81,-60.30L254.61,-40.79L262.06,30.60L281.53,28.57L273.36,-49.76L261.69,-77.30L233.82,-84.65L214.02,-77.65L200.37,-58.99L187.29,-74.19L166.22,-77.50L146.25,-70.95L133.31,-53.53L131.64,-69.54L114.11,-67.71ZM369.18,-56.85L307.75,-30.77L297.65,-2.53L311.90,21.82L340.20,26.95L359.94,20.93L376.99,5.46L378.26,18.48L396.44,16.59L388.89,-56.00L375.20,-87.97L340.34,-95.79L310.82,-85.24L298.39,-61.74L314.82,-53.86L322.95,-71.99L340.01,-79.68L359.53,-76.12ZM370.97,-39.64L373.93,-11.15L361.42,2.35L341.65,10.74L326.59,8.47L318.32,-5.56L325.41,-21.75ZM474.23,10.00L474.23,9.99L470.23,-6.56L461.65,-4.34L451.77,-8.11L448.62,-22.11L441.87,-86.80L461.13,-88.81L459.57,-103.74L440.31,-101.74L436.25,-140.68L416.77,-138.65L420.84,-99.70L404.82,-98.03L406.38,-83.10L422.39,-84.77L429.14,-20.07L436.42,6.63L459.56,13.63ZM517.43,-17.67L502.96,-46.35L586.48,-55.08L586.75,-62.98L569.57,-102.86L528.78,-115.53L492.28,-95.44L482.59,-49.36L501.58,-6.27L541.44,5.86L572.60,-6.99L584.98,-31.74L568.83,-39.62L559.04,-19.14L540.82,-10.82ZM501.98,-62.01L511.52,-89.04L530.49,-99.00L553.55,-91.92L564.95,-68.58ZM-462.43,303.04L-410.71,297.64L-355.88,271.94L-343.23,211.40L-369.34,154.78L-429.78,142.14L-478.68,147.24ZM-443.77,282.72L-456.20,163.49L-427.86,160.53L-385.28,168.17L-364.88,213.45L-373.74,261.14L-414.77,279.69ZM-290.80,263.50L-305.27,234.82L-221.75,226.09L-221.48,218.19L-238.66,178.31L-279.45,165.64L-315.95,185.73L-325.64,231.81L-306.64,274.90L-266.78,287.03L-235.63,274.18L-223.25,249.43L-239.40,241.55L-249.19,262.03L-267.41,270.35ZM-306.25,219.16L-296.71,192.12L-277.74,182.17L-254.68,189.25L-243.28,212.59ZM-186.40,239.01L-202.14,248.47L-188.82,269.40L-154.49,275.43L-123.51,264.20L-111.75,235.72L-122.91,213.55L-142.88,205.78L-169.85,201.43L-185.05,197.11L-190.76,188.62L-185.66,176.87L-167.73,170.88L-149.59,173.85L-140.51,187.38L-124.94,177.94L-136.43,160.09L-168.72,154.17L-198.93,165.38L-209.55,192.79L-198.74,212.55L-178.25,219.83L-149.75,224.27L-136.01,229.47L-131.47,239.53L-138.80,253.50L-155.56,258.77L-176.96,254.11ZM-86.79,131.09L-80.55,122.66L-81.68,111.65L-89.68,104.51L-99.68,105.56L-105.85,114.15L-104.71,125.14L-96.79,132.14ZM-68.39,261.94L-80.13,149.42L-99.60,151.45L-87.86,263.97ZM7.04,301.65L45.59,280.54L51.37,242.01L40.40,136.84L23.09,138.65L24.67,153.80L10.42,140.75L-9.89,137.18L-44.66,157.93L-52.77,203.01L-35.53,245.44L2.77,258.57L19.76,252.60L31.42,239.49L32.23,247.76L27.97,273.66L5.75,284.82L-12.80,281.62L-21.48,267.11L-36.31,275.87L-24.34,295.55ZM-7.06,153.63L15.61,162.53L29.13,194.48L23.31,228.44L2.15,241.91L-20.76,233.03L-32.89,200.95L-27.64,167.05ZM79.95,246.46L99.42,244.43L93.04,183.20L98.46,153.40L119.44,141.12L138.56,147.65L146.21,169.77L153.41,238.80L172.88,236.77L165.68,167.74L154.73,134.19L121.65,123.92L101.10,130.75L87.43,148.34L85.74,132.11L68.21,133.94ZM222.03,210.01L207.57,181.33L291.09,172.60L291.36,164.70L274.17,124.82L233.39,112.15L196.89,132.24L187.20,178.32L206.19,221.41L246.05,233.54L277.21,220.69L289.59,195.94L273.44,188.06L263.65,208.54L245.43,216.86ZM206.59,165.66L216.12,138.63L235.09,128.67L258.15,135.76L269.56,159.10ZM355.76,118.53L370.88,121.84L375.01,104.79L355.20,99.56L337.21,107.26L326.11,126.73L324.08,107.25L306.56,109.08L318.18,220.50L337.77,219.57L331.43,158.77L335.72,130.89ZM452.23,210.38L459.09,201.77L457.89,190.78L449.33,183.85L438.44,185.04L431.58,193.65L432.78,204.64L441.33,211.57ZM432.48,172.03L451.34,170.06L450.72,164.10L451.98,148.04L461.16,134.01L478.10,113.85L484.14,86.98L466.79,55.97L428.72,47.70L396.92,63.51L387.12,93.76L404.45,99.53L411.80,74.92L430.74,65.33L452.15,69.52L463.26,90.50L459.38,109.00L447.67,123.14L433.99,142.19L431.85,166.07Z" fill="#ffffff" stroke="#000000"/>
    <path d="M-830.47,-56.34L-847.03,-45.94L-825.57,-14.50L-777.10,-8.48L-739.76,-25.88L-726.87,-63.94L-741.84,-89.71L-771.86,-99.77L-817.87,-105.95L-829.81,-111.62L-835.15,-122.08L-827.09,-143.47L-804.69,-153.10L-777.04,-148.67L-762.97,-126.75L-746.09,-136.51L-765.09,-165.05L-808.32,-170.31L-843.24,-153.57L-854.96,-117.63L-846.15,-97.73L-817.01,-85.35L-770.44,-79.78L-755.37,-72.38L-748.89,-59.37L-755.36,-37.60L-780.73,-25.68L-812.67,-30.31ZM-669.83,-148.05L-705.43,-126.22L-713.17,-80.09L-691.64,-38.56L-651.07,-28.71L-615.48,-50.54L-607.71,-96.67L-629.24,-138.20ZM-653.63,-44.97L-678.25,-51.49L-693.63,-83.14L-688.69,-118.00L-667.27,-131.76L-642.64,-125.24L-627.23,-93.58L-632.18,-58.73ZM-451.58,-64.53L-461.71,-128.99L-420.46,-217.43L-438.48,-225.30L-473.53,-144.57L-532.51,-210.52L-548.31,-197.34L-481.92,-125.81L-471.79,-61.35ZM-348.82,-198.50L-384.42,-176.67L-392.17,-130.54L-370.63,-89.01L-330.07,-79.16L-294.47,-100.99L-286.71,-147.12L-308.23,-188.65ZM-332.62,-95.43L-357.24,-101.95L-372.62,-133.60L-367.69,-168.45L-346.26,-182.22L-321.63,-175.69L-306.23,-144.03L-311.18,-109.19ZM-184.44,-219.87L-203.59,-216.86L-194.16,-156.89L-197.95,-126.92L-218.04,-113.69L-237.29,-119.18L-246.05,-141.01L-256.66,-208.52L-275.80,-205.51L-265.17,-137.86L-252.61,-105.04L-219.38,-96.59L-199.51,-104.96L-186.80,-122.49L-184.29,-106.54L-167.06,-109.25ZM-32.08,-130.46L-15.42,-269.97L43.23,-142.30L63.44,-145.47L78.98,-301.81L59.09,-303.50L49.60,-168.37L-6.37,-291.45L-30.62,-287.64L-45.07,-153.49L-96.20,-279.10L-115.03,-271.32L-52.28,-127.29ZM175.25,-239.07L115.87,-210.13L107.34,-181.69L122.68,-158.36L150.91,-154.74L170.11,-161.70L186.17,-177.87L188.10,-165.07L205.97,-167.88L194.78,-239.24L179.60,-270.13L144.75,-276.07L116.11,-264.12L105.02,-240.26L121.67,-233.31L128.78,-251.65L145.25,-260.13L164.72,-257.62ZM177.91,-222.14L182.30,-194.14L170.63,-180.15L151.52,-170.83L136.51,-172.30L127.61,-185.75L133.79,-202.12ZM234.80,-172.41L253.94,-175.42L244.48,-235.62L248.32,-265.35L268.41,-278.57L287.65,-273.09L296.35,-251.62L307.01,-183.76L326.16,-186.77L315.49,-254.63L302.94,-287.22L269.72,-295.68L249.75,-287.87L237.15,-269.78L234.64,-285.73L217.41,-283.03ZM400.59,-196.94L400.59,-196.95L395.79,-213.10L387.42,-210.47L377.46,-213.69L373.62,-227.36L363.62,-290.96L382.56,-293.94L380.25,-308.62L361.32,-305.64L355.30,-343.93L336.15,-340.93L342.17,-302.63L326.43,-300.16L328.74,-285.48L344.48,-287.96L354.48,-224.35L363.04,-198.33L386.28,-192.60ZM543.14,-220.87L521.91,-355.95L573.39,-364.04L570.55,-382.13L447.38,-362.77L450.22,-344.68L501.70,-352.78L522.93,-217.69ZM639.94,-353.90L604.34,-332.08L596.60,-285.95L618.13,-244.42L658.69,-234.57L694.29,-256.40L702.06,-302.52L680.53,-344.05ZM656.14,-250.83L631.52,-257.35L616.14,-289.00L621.08,-323.85L642.50,-337.62L667.13,-331.09L682.54,-299.44L677.59,-264.59ZM-645.47,162.19L-586.41,152.91L-545.12,137.49L-534.47,100.02L-546.68,77.93L-572.52,68.64L-555.04,51.93L-552.75,30.62L-573.04,2.35L-613.56,0.12L-669.56,8.92ZM-638.79,71.69L-646.33,23.95L-615.27,19.07L-588.15,18.00L-573.62,36.56L-581.53,57.47L-605.16,66.41ZM-627.91,140.94L-635.92,89.72L-600.12,84.09L-571.92,84.79L-556.40,103.44L-563.51,126.40L-589.25,134.86ZM-485.00,115.35L-500.78,87.75L-418.67,74.82L-418.81,67.00L-437.84,28.46L-478.81,18.03L-513.85,39.77L-521.06,85.82L-500.08,127.43L-460.05,137.37L-429.91,123.07L-418.95,97.97L-435.32,91.01L-443.95,111.76L-461.53,120.92ZM-502.55,72.31L-494.51,45.10L-476.27,34.28L-453.12,40.10L-440.64,62.58ZM-313.74,75.33L-312.99,71.73L-244.07,60.90L-241.95,64.70L-223.49,97.55L-205.19,87.74L-285.69,-51.36L-306.33,-48.12L-340.71,109.00L-321.55,112.96ZM-253.51,43.85L-309.03,52.58L-292.47,-26.54ZM-61.61,57.49L-102.82,45.10L-122.24,1.41L-116.33,-46.24L-81.74,-70.55L-50.12,-65.07L-31.72,-40.83L-15.13,-52.77L-38.84,-81.09L-84.46,-87.90L-134.75,-55.56L-143.93,4.84L-116.67,59.50L-58.88,74.84L-17.67,54.17L-3.97,21.08L-23.09,14.08L-34.62,43.00ZM47.90,53.15L23.83,-100.01L4.68,-97.00L28.75,56.16ZM69.79,-82.59L75.52,-91.25L73.83,-102.07L65.56,-108.72L55.73,-107.17L50.08,-98.36L51.77,-87.55L59.95,-81.04ZM94.70,45.80L77.31,-64.82L58.17,-61.81L75.56,48.81ZM121.36,41.61L140.55,38.59L131.55,-18.63L132.32,-47.80L152.89,-64.23L168.93,-59.69L176.87,-41.26L188.24,31.10L207.39,28.09L197.32,-35.94L200.36,-61.21L219.93,-74.77L237.54,-68.62L244.28,-49.63L255.31,20.55L274.46,17.55L262.35,-59.46L249.40,-86.08L221.47,-91.91L202.26,-83.98L189.73,-64.83L176.02,-79.18L155.02,-81.37L135.62,-73.87L123.72,-55.98L121.25,-71.73L104.02,-69.02ZM356.70,-71.40L297.32,-42.46L288.78,-14.02L304.13,9.31L332.36,12.93L351.56,5.96L367.62,-10.21L369.55,2.60L387.42,-0.21L376.23,-71.57L361.05,-102.46L326.19,-108.41L297.55,-96.45L286.47,-72.59L303.12,-65.64L310.23,-83.99L326.70,-92.47L346.17,-89.95ZM359.36,-54.48L363.75,-26.47L352.07,-12.48L332.96,-3.17L317.96,-4.64L309.06,-18.08L315.24,-34.46ZM463.97,-10.72L463.98,-10.72L459.17,-26.88L450.80,-24.25L440.84,-27.47L437.00,-41.14L427.01,-104.74L445.94,-107.72L443.63,-122.40L424.70,-119.42L418.68,-157.71L399.54,-154.70L405.55,-116.41L389.81,-113.94L392.12,-99.26L407.86,-101.73L417.86,-38.13L426.42,-12.10L449.66,-6.38ZM505.25,-40.29L489.48,-67.89L571.59,-80.82L571.45,-88.64L552.41,-127.17L511.44,-137.61L476.40,-115.87L469.19,-69.82L490.18,-28.21L530.20,-18.27L560.34,-32.57L571.30,-57.67L554.93,-64.63L546.31,-43.88L528.73,-34.72ZM487.70,-83.33L495.74,-110.54L513.98,-121.36L537.14,-115.54L549.61,-93.06ZM-446.81,327.09L-395.97,319.10L-343.09,290.87L-333.70,230.39L-362.41,175.76L-422.81,166.37L-470.88,173.93ZM-429.41,306.05L-447.83,188.83L-419.96,184.45L-377.49,189.82L-354.99,233.53L-361.30,281.12L-400.90,301.57ZM-279.20,279.19L-294.97,251.58L-212.86,238.66L-213.00,230.84L-232.04,192.30L-273.00,181.87L-308.05,203.61L-315.26,249.66L-294.27,291.27L-254.25,301.21L-224.11,286.91L-213.15,261.81L-229.52,254.85L-238.14,275.60L-255.72,284.76ZM-296.74,236.15L-288.71,208.94L-270.47,198.12L-247.31,203.94L-234.84,226.42ZM-177.26,249.61L-192.33,259.77L-178.09,279.77L-143.85,283.98L-113.80,271.28L-103.64,242.53L-115.81,221.18L-135.95,214.53L-162.83,211.62L-178.07,208.12L-184.16,200.03L-179.72,188.15L-162.30,181.31L-144.22,183.31L-134.56,196.22L-119.64,186.09L-131.92,169.03L-164.15,164.85L-193.43,177.48L-202.51,205.12L-190.82,224.09L-170.18,230.23L-141.79,233.16L-127.94,237.59L-122.93,247.30L-129.46,261.49L-145.76,267.56L-167.15,264.06ZM-84.34,137.82L-78.61,129.16L-80.30,118.34L-88.57,111.69L-98.41,113.24L-104.06,122.05L-102.36,132.86L-94.18,139.37ZM-59.43,266.21L-76.82,155.59L-95.96,158.60L-78.58,269.22ZM17.17,301.59L54.18,278.73L57.92,240.35L41.67,136.97L24.65,139.64L27.00,154.53L12.24,142.37L-8.02,139.88L-41.32,162.18L-47.02,207.15L-27.80,248.21L10.73,259.22L27.22,252.44L38.07,238.89L39.30,247.02L36.42,272.84L15.03,285.02L-3.47,282.81L-12.79,268.91L-27.01,278.33L-14.16,297.17ZM-4.38,155.99L18.49,163.63L33.49,194.52L29.49,228.38L9.26,242.78L-13.84,235.19L-27.48,204.10L-24.04,170.32ZM86.40,243.29L105.54,240.28L96.08,180.08L99.92,150.35L120.01,137.12L139.25,142.60L147.95,164.08L158.62,231.94L177.76,228.93L167.10,161.07L154.55,128.47L121.32,120.01L101.36,127.82L88.75,145.92L86.24,129.96L69.01,132.67ZM224.97,199.95L209.20,172.34L291.31,159.42L291.17,151.59L272.13,113.06L231.16,102.63L196.12,124.37L188.91,170.42L209.90,212.03L249.92,221.97L280.06,207.67L291.02,182.57L274.65,175.61L266.03,196.36L248.45,205.52ZM207.42,156.91L215.46,129.70L233.70,118.88L256.86,124.70L269.33,147.18ZM352.45,102.65L367.57,105.14L370.77,88.07L350.92,83.93L333.53,92.46L323.57,112.28L320.56,93.13L303.33,95.84L320.54,205.38L339.86,203.45L330.47,143.67L333.27,115.90ZM452.53,188.48L458.87,179.61L457.12,168.81L448.30,162.41L437.59,164.14L431.26,173.01L433.01,183.81L441.82,190.22ZM431.03,151.59L449.58,148.67L448.65,142.81L449.08,126.87L457.43,112.53L473.14,91.74L477.73,64.86L458.98,35.11L420.92,28.89L390.31,46.15L382.18,76.56L399.60,81.37L405.60,56.66L423.83,46.21L445.21,49.25L457.27,69.41L454.38,87.90L443.54,102.48L431.00,122.01L430.11,145.73Z" fill="#ffffff" stroke="#000000"/>
    <path d="M-828.74,-8.98L-844.57,2.14L-821.74,32.11L-773.53,35.58L-737.51,16.46L-726.73,-21.83L-742.85,-46.53L-773.04,-54.93L-818.83,-58.67L-830.93,-63.65L-836.74,-73.72L-829.88,-95.27L-808.23,-105.95L-780.67,-102.99L-765.64,-82.05L-749.46,-92.56L-769.71,-119.79L-812.71,-122.77L-846.35,-104.43L-856.09,-68.31L-846.36,-49.08L-816.93,-38.35L-770.61,-35.24L-755.34,-28.70L-748.27,-16.17L-753.54,5.68L-778.00,18.76L-809.80,15.82ZM-674.68,-107.88L-708.74,-84.48L-714.03,-38.49L-690.61,1.45L-650.01,9.10L-615.95,-14.31L-610.65,-60.29L-634.06,-100.23ZM-653.37,-6.84L-678.04,-12.02L-694.87,-42.51L-691.78,-77.21L-671.32,-91.92L-646.63,-86.73L-629.78,-56.24L-632.88,-21.54ZM-454.68,-36.56L-468.00,-99.74L-431.78,-189.28L-450.00,-196.13L-480.49,-114.53L-542.17,-176.69L-557.11,-162.84L-487.81,-95.56L-474.49,-32.38ZM-360.01,-174.25L-394.07,-150.85L-399.35,-104.86L-375.94,-64.92L-335.33,-57.27L-301.28,-80.67L-295.97,-126.66L-319.38,-166.60ZM-338.70,-73.21L-363.36,-78.39L-380.19,-108.88L-377.10,-143.58L-356.64,-158.29L-331.96,-153.10L-315.11,-122.61L-318.21,-87.91ZM-198.64,-203.82L-217.41,-199.86L-205.01,-141.07L-207.21,-111.25L-226.39,-97.15L-245.69,-101.58L-255.47,-122.71L-269.43,-188.89L-288.20,-184.93L-274.21,-118.61L-260.11,-86.82L-226.83,-80.18L-207.62,-89.48L-195.96,-107.46L-192.66,-91.82L-175.77,-95.38ZM-43.45,-123.29L-34.16,-262.03L30.37,-138.86L50.18,-143.03L57.50,-298.35L37.76,-299.00L35.32,-164.95L-26.32,-283.72L-50.09,-278.71L-57.47,-145.38L-114.47,-266.89L-132.68,-258.24L-63.26,-119.11ZM155.88,-241.29L98.68,-209.63L91.71,-181.08L108.07,-158.81L136.16,-156.69L154.78,-164.56L169.82,-181.37L172.38,-168.81L189.90,-172.50L175.17,-242.46L158.58,-272.21L123.83,-276.29L96.14,-263.01L86.41,-238.85L103.22,-232.84L109.30,-251.34L125.14,-260.57L144.52,-259.08ZM159.38,-224.69L165.16,-197.24L154.34,-182.82L135.93,-172.63L121.03,-173.31L111.54,-186.14L116.80,-202.64ZM218.16,-178.46L236.93,-182.42L224.48,-241.44L226.74,-271.01L245.92,-285.12L265.22,-280.69L274.92,-259.91L288.95,-193.39L307.72,-197.35L293.69,-263.87L279.61,-295.45L246.33,-302.10L227.01,-293.35L215.48,-274.82L212.18,-290.46L195.29,-286.90ZM380.76,-211.24L380.76,-211.24L375.18,-226.96L367.05,-223.93L357.04,-226.60L352.54,-239.91L339.39,-302.26L357.95,-306.18L354.92,-320.57L336.36,-316.65L328.44,-354.19L309.67,-350.23L317.59,-312.69L302.16,-309.44L305.19,-295.05L320.62,-298.30L333.77,-235.95L343.58,-210.67L366.84,-206.21ZM520.42,-242.21L492.49,-374.63L542.96,-385.27L539.22,-403.00L418.48,-377.53L422.22,-359.81L472.68,-370.45L500.61,-238.03ZM609.25,-378.67L575.19,-355.27L569.91,-309.28L593.32,-269.34L633.92,-261.69L667.98,-285.10L673.29,-331.08L649.87,-371.02ZM630.56,-277.63L605.90,-282.81L589.06,-313.30L592.15,-348.00L612.62,-362.71L637.30,-357.53L654.15,-327.03L651.05,-292.34ZM-634.65,197.49L-576.76,185.28L-536.75,167.92L-528.15,130.33L-541.35,109.13L-567.37,101.28L-550.95,83.87L-549.78,62.69L-571.28,35.79L-611.45,35.67L-666.34,47.25ZM-632.71,107.70L-642.62,60.90L-612.17,54.48L-585.42,52.03L-570.11,69.62L-576.85,90.70L-599.74,100.75ZM-618.39,175.58L-628.95,125.37L-593.85,117.96L-565.94,117.21L-549.64,134.85L-555.50,157.91L-580.49,167.59ZM-478.47,142.94L-495.48,116.47L-414.99,99.48L-415.53,91.75L-436.32,54.65L-477.35,46.44L-510.87,69.73L-515.63,115.61L-492.74,155.66L-452.67,163.43L-423.62,147.74L-414.08,122.38L-430.61,116.34L-438.07,137.29L-454.98,147.24ZM-498.02,101.31L-491.48,74.00L-474.01,62.37L-450.82,66.93L-437.34,88.51ZM-311.25,94.59L-310.70,90.99L-243.14,76.74L-240.84,80.39L-220.91,111.91L-203.33,101.27L-290.05,-32.07L-310.28,-27.81L-336.18,129.25L-317.04,132.19ZM-253.34,60.38L-307.77,71.86L-295.47,-7.19ZM-62.98,64.00L-104.34,53.86L-125.79,11.69L-122.39,-35.71L-89.45,-61.52L-57.92,-57.73L-38.49,-34.71L-22.71,-47.37L-47.59,-74.14L-93.04,-78.52L-141.08,-43.98L-147.05,16.19L-117.29,68.81L-59.39,81.01L-19.73,58.45L-7.88,25.04L-27.14,19.11L-37.05,48.28ZM45.03,54.08L13.37,-96.06L-5.40,-92.11L26.27,58.04ZM59.69,-81.21L64.91,-90.06L62.69,-100.67L54.17,-106.81L44.53,-104.78L39.39,-95.78L41.62,-85.18L50.05,-79.18ZM90.91,44.40L68.04,-64.03L49.27,-60.08L72.14,48.36ZM117.04,38.89L135.85,34.92L124.02,-21.17L123.28,-50.03L142.77,-67.33L158.86,-63.67L167.65,-45.86L182.61,25.06L201.37,21.11L188.14,-41.66L189.84,-66.80L208.49,-81.19L226.21,-76.02L233.84,-57.60L248.35,11.20L267.12,7.24L251.20,-68.25L237.03,-93.89L209.12,-98.22L190.54,-89.39L179.15,-69.82L164.86,-83.30L143.99,-84.38L125.20,-75.97L114.36,-57.69L111.11,-73.12L94.22,-69.55ZM343.83,-84.90L286.64,-53.24L279.66,-24.70L296.02,-2.43L324.11,-0.30L342.73,-8.17L357.77,-24.98L360.33,-12.42L377.85,-16.12L363.12,-86.07L346.54,-115.82L311.78,-119.91L284.09,-106.62L274.36,-82.47L291.18,-76.46L297.26,-94.95L313.10,-104.18L332.47,-102.69ZM347.33,-68.31L353.11,-40.85L342.29,-26.43L323.88,-16.24L308.98,-16.92L299.49,-29.75L304.75,-46.25ZM452.98,-30.44L452.98,-30.44L447.40,-46.16L439.26,-43.13L429.26,-45.80L424.76,-59.12L411.61,-121.47L430.17,-125.38L427.13,-139.77L408.57,-135.86L400.66,-173.39L381.89,-169.43L389.81,-131.90L374.37,-128.64L377.41,-114.25L392.84,-117.51L405.99,-55.16L415.79,-29.88L439.06,-25.41ZM492.25,-61.79L475.24,-88.26L555.73,-105.25L555.19,-112.98L534.40,-150.08L493.37,-158.29L459.85,-135.00L455.09,-89.12L477.98,-49.07L518.05,-41.30L547.10,-56.99L556.64,-82.36L540.10,-88.40L532.65,-67.44L515.74,-57.49ZM472.70,-103.42L479.24,-130.73L496.71,-142.36L519.90,-137.80L533.38,-116.22ZM-429.83,350.26L-379.99,339.75L-329.18,309.13L-323.01,248.86L-354.20,196.35L-414.37,190.18L-461.50,200.12ZM-413.72,328.56L-437.95,213.66L-410.63,207.90L-368.37,211.02L-343.89,253.06L-347.68,300.43L-385.77,322.67ZM-266.64,294.29L-283.65,267.82L-203.16,250.83L-203.70,243.10L-224.49,206.00L-265.52,197.80L-299.04,221.08L-303.80,266.96L-280.91,307.01L-240.84,314.78L-211.79,299.09L-202.25,273.73L-218.78,267.69L-226.24,288.64L-243.15,298.59ZM-286.19,252.66L-279.65,225.36L-262.17,213.73L-238.99,218.28L-225.51,239.86ZM-167.41,259.82L-181.78,270.64L-166.67,289.68L-132.61,292.07L-103.57,277.97L-95.01,249.04L-108.13,228.56L-128.38,223.03L-155.10,221.53L-170.34,218.86L-176.78,211.17L-173.00,199.20L-156.14,191.55L-138.16,192.60L-127.95,204.86L-113.73,194.08L-126.74,177.85L-158.80,175.37L-187.09,189.36L-194.65,217.15L-182.12,235.30L-161.41,240.31L-133.20,241.74L-119.27,245.41L-113.83,254.75L-119.55,269.11L-135.35,275.94L-156.67,273.58ZM-81.32,144.56L-76.10,135.70L-78.32,125.10L-86.84,118.95L-96.48,120.99L-101.61,129.99L-99.38,140.58L-90.96,146.59ZM-50.10,270.17L-72.97,161.73L-91.73,165.69L-68.86,274.13ZM27.43,301.20L62.84,276.71L64.56,238.58L43.19,137.24L26.50,140.75L29.58,155.35L14.38,144.09L-5.78,142.67L-37.54,166.42L-40.87,211.17L-19.75,250.76L18.89,259.66L34.84,252.11L44.87,238.16L46.49,246.13L44.98,271.80L24.46,284.93L6.07,283.70L-3.86,270.44L-17.43,280.49L-3.76,298.45ZM-1.35,158.41L21.64,164.79L38.06,194.54L35.85,228.21L16.59,243.49L-6.63,237.17L-21.71,207.14L-20.04,173.58ZM92.86,240.02L111.63,236.06L99.18,177.05L101.44,147.47L120.62,133.36L139.92,137.79L149.62,158.57L163.65,225.09L182.42,221.13L168.39,154.61L154.31,123.04L121.03,116.38L101.71,125.13L90.18,143.66L86.88,128.02L69.99,131.58ZM227.59,190.06L210.58,163.59L291.07,146.60L290.53,138.87L269.73,101.76L228.71,93.56L195.19,116.85L190.43,162.73L213.31,202.78L253.38,210.54L282.43,194.86L291.98,169.49L275.44,163.45L267.98,184.40L251.08,194.36ZM208.03,148.43L214.58,121.12L232.05,109.49L255.23,114.05L268.72,135.63ZM348.58,87.34L363.65,89.03L365.94,72.00L346.10,68.92L329.36,78.25L320.53,98.34L316.57,79.58L299.68,83.14L322.33,190.51L341.32,187.62L328.96,129.02L330.31,101.43ZM451.91,167.03L457.72,157.94L455.43,147.36L446.39,141.48L435.89,143.74L430.09,152.83L432.37,163.42L441.41,169.29ZM428.76,131.67L446.94,127.84L445.73,122.09L445.33,106.31L452.84,91.71L467.30,70.35L470.46,43.56L450.40,15.11L412.47,10.92L383.09,29.55L376.62,60.03L394.09,63.89L398.74,39.16L416.23,27.89L437.52,29.79L450.47,49.11L448.57,67.52L438.60,82.49L427.21,102.44L427.55,125.93Z" fill="#ffffff" stroke="#000000"/>
    <path d="M-824.24,37.94L-839.31,49.75L-815.21,78.19L-767.39,79.14L-732.78,58.40L-724.09,20.00L-741.29,-3.58L-771.55,-10.33L-817.00,-11.67L-829.21,-15.97L-835.47,-25.63L-829.80,-47.28L-808.96,-58.94L-781.57,-57.43L-765.64,-37.51L-750.19,-48.73L-771.59,-74.60L-814.24,-75.33L-846.55,-55.48L-854.32,-19.28L-843.71,-0.79L-814.07,8.31L-768.14,9.01L-752.71,14.68L-745.08,26.70L-749.17,48.56L-772.67,62.74L-804.25,61.48ZM-677.08,-67.72L-709.53,-42.84L-712.39,2.88L-687.20,41.15L-646.68,46.62L-614.22,21.74L-611.35,-23.98L-636.54,-62.24ZM-650.82,31.04L-675.46,27.19L-693.67,-2.08L-692.40,-36.53L-672.93,-52.11L-648.27,-48.26L-630.05,-18.99L-631.33,15.46ZM-455.99,-8.54L-472.41,-70.30L-441.21,-160.64L-459.57,-166.47L-485.50,-84.27L-549.65,-142.53L-563.71,-128.08L-491.77,-65.15L-475.35,-3.39ZM-369.51,-149.48L-401.97,-124.60L-404.83,-78.88L-379.63,-40.61L-339.11,-35.14L-306.66,-60.02L-303.78,-105.74L-328.97,-144.01ZM-343.26,-50.72L-367.90,-54.57L-386.10,-83.84L-384.83,-118.29L-365.36,-133.88L-340.70,-130.02L-322.48,-100.75L-323.76,-66.30ZM-211.56,-186.99L-229.90,-182.12L-214.63,-124.66L-215.27,-95.08L-233.49,-80.16L-252.80,-83.54L-263.56,-103.92L-280.75,-168.60L-299.09,-163.72L-281.86,-98.91L-266.30,-68.22L-233.06,-63.36L-214.56,-73.54L-203.96,-91.90L-199.89,-76.62L-183.38,-81.01ZM-54.05,-115.39L-52.00,-252.98L18.10,-134.57L37.46,-139.71L36.71,-293.58L17.17,-293.21L21.65,-160.61L-45.37,-274.82L-68.61,-268.64L-69.05,-136.50L-131.62,-253.65L-149.17,-244.17L-73.42,-110.24ZM136.87,-242.24L81.97,-208.02L76.54,-179.45L93.86,-158.28L121.73,-157.63L139.72,-166.36L153.72,-183.75L156.90,-171.47L174.02,-176.02L155.87,-244.39L137.95,-272.95L103.39,-275.19L76.71,-260.64L68.34,-236.27L85.26,-231.19L90.32,-249.78L105.50,-259.72L124.73,-259.24ZM141.18,-226.03L148.30,-199.19L138.35,-184.38L120.68,-173.37L105.92,-173.27L95.88,-185.46L100.23,-202.04ZM201.65,-183.36L219.99,-188.24L204.66,-245.92L205.37,-275.27L223.60,-290.19L242.90,-286.81L253.55,-266.77L270.84,-201.75L289.18,-206.63L271.90,-271.65L256.36,-302.13L223.13,-306.99L204.48,-297.35L194.04,-278.45L189.98,-293.74L173.47,-289.35ZM360.65,-224.11L360.65,-224.11L354.33,-239.36L346.45,-235.94L336.42,-238.07L331.29,-250.99L315.09,-311.94L333.23,-316.76L329.49,-330.82L311.35,-326.00L301.60,-362.69L283.25,-357.81L293.01,-321.12L277.92,-317.11L281.66,-303.05L296.75,-307.06L312.95,-246.12L323.93,-221.64L347.15,-218.42ZM497.08,-261.90L462.67,-391.32L512.00,-404.44L507.39,-421.76L389.38,-390.39L393.99,-373.06L443.31,-386.18L477.72,-256.75ZM577.85,-401.32L545.40,-376.44L542.54,-330.72L567.73,-292.46L608.25,-286.98L640.70,-311.86L643.58,-357.58L618.39,-395.85ZM604.10,-302.56L579.46,-306.41L561.26,-335.68L562.53,-370.13L582.00,-385.72L606.66,-381.86L624.88,-352.59L623.60,-318.15ZM-621.82,232.01L-565.24,216.97L-526.58,197.75L-520.02,160.17L-534.15,139.89L-560.27,133.47L-544.94,115.42L-544.88,94.43L-567.51,68.95L-607.20,70.90L-660.86,85.16ZM-624.51,143.18L-636.71,97.44L-606.95,89.52L-580.64,85.73L-564.60,102.33L-570.18,123.51L-592.29,134.61ZM-606.88,209.52L-619.89,160.44L-585.58,151.32L-558.04,149.14L-541.03,165.74L-545.63,188.82L-569.83,199.68ZM-470.27,170.08L-488.44,144.79L-409.77,123.86L-410.70,116.25L-433.16,80.65L-474.13,74.65L-506.05,99.39L-508.40,144.97L-483.73,183.38L-443.73,188.99L-415.83,172.00L-407.70,146.44L-424.35,141.32L-430.64,162.41L-446.84,173.12ZM-491.74,129.94L-486.67,102.62L-470.00,90.22L-446.86,93.53L-432.42,114.17ZM-307.51,113.70L-307.15,110.11L-241.11,92.55L-238.66,96.05L-217.34,126.17L-200.52,114.75L-293.06,-12.57L-312.83,-7.31L-330.36,149.23L-311.30,151.15ZM-252.04,76.91L-305.24,91.05L-297.15,12.30ZM-63.73,70.70L-105.12,62.81L-128.49,22.23L-127.57,-24.78L-96.34,-51.98L-64.98,-49.85L-44.60,-28.11L-29.66,-41.43L-55.62,-66.61L-100.76,-68.60L-146.46,-31.99L-149.27,27.78L-117.15,78.25L-59.31,87.33L-21.27,63.00L-11.28,29.37L-30.61,24.50L-38.91,53.84ZM42.51,55.35L3.50,-91.40L-14.85,-86.53L24.16,60.22ZM50.04,-79.10L54.74,-88.12L52.00,-98.49L43.26,-104.12L33.84,-101.62L29.23,-92.46L31.98,-82.10L40.61,-76.60ZM87.35,43.43L59.17,-62.56L40.83,-57.68L69.00,48.30ZM112.89,36.64L131.28,31.75L116.70,-23.08L114.49,-51.56L132.85,-69.66L148.94,-66.87L158.54,-49.72L176.97,19.60L195.32,14.73L179.01,-46.62L179.40,-71.55L197.09,-86.74L214.87,-82.54L223.36,-64.73L241.23,2.52L259.58,-2.36L239.96,-76.14L224.64,-100.75L196.84,-103.60L178.93,-93.92L168.68,-73.99L153.86,-86.58L133.19,-86.57L115.05,-77.30L105.28,-58.67L101.27,-73.75L84.76,-69.36ZM330.65,-97.36L275.75,-63.13L270.33,-34.56L287.64,-13.39L315.51,-12.74L333.51,-21.47L347.51,-38.86L350.68,-26.58L367.81,-31.13L349.66,-99.51L331.73,-128.06L297.18,-130.30L270.49,-115.75L262.12,-91.38L279.05,-86.30L284.11,-104.89L299.29,-114.83L318.51,-114.35ZM334.96,-81.14L342.08,-54.30L332.13,-39.49L314.46,-28.48L299.70,-28.39L289.66,-40.57L294.02,-57.15ZM441.31,-49.15L441.31,-49.15L435.00,-64.40L427.11,-60.98L417.08,-63.11L411.95,-76.03L395.75,-136.98L413.89,-141.80L410.15,-155.86L392.01,-151.04L382.26,-187.73L363.92,-182.85L373.67,-146.16L358.59,-142.15L362.32,-128.09L377.41,-132.10L393.61,-71.16L404.60,-46.68L427.81,-43.46ZM478.52,-82.14L460.34,-107.43L539.02,-128.36L538.08,-135.97L515.62,-171.57L474.66,-177.57L442.73,-152.83L440.39,-107.25L465.06,-68.84L505.06,-63.23L532.96,-80.22L541.09,-105.78L524.44,-110.90L518.14,-89.81L501.95,-79.11ZM457.05,-122.28L462.11,-149.61L478.78,-162.00L501.93,-158.69L516.36,-138.05ZM-411.55,372.46L-362.84,359.51L-314.20,326.64L-311.20,266.76L-344.72,216.47L-404.50,213.46L-450.57,225.70ZM-396.74,350.19L-426.60,237.88L-399.90,230.78L-357.97,231.69L-331.62,271.99L-332.93,318.99L-369.43,342.93ZM-253.15,308.76L-271.32,283.48L-192.65,262.54L-193.58,254.94L-216.04,219.34L-257.00,213.34L-288.93,238.07L-291.28,283.66L-266.61,322.06L-226.61,327.68L-198.70,310.68L-190.58,285.12L-207.23,280.00L-213.52,301.09L-229.72,311.80ZM-274.62,268.62L-269.55,241.30L-252.88,228.91L-229.74,232.22L-215.30,252.85ZM-156.86,269.59L-170.51,281.02L-154.60,299.06L-120.82,299.67L-92.84,284.25L-85.87,255.21L-99.89,235.65L-120.18,231.23L-146.67,231.12L-161.87,229.26L-168.62,222.00L-165.50,209.97L-149.23,201.54L-131.41,201.65L-120.69,213.24L-107.19,201.86L-120.89,186.50L-152.70,185.69L-179.94,200.97L-185.98,228.82L-172.66,246.11L-151.94,250.00L-123.98,249.96L-110.04,252.87L-104.17,261.82L-109.09,276.31L-124.35,283.87L-145.54,282.64ZM-77.71,151.26L-73.01,142.24L-75.75,131.87L-84.48,126.24L-93.90,128.74L-98.51,137.90L-95.76,148.26L-87.13,153.76ZM-40.40,273.79L-68.57,167.80L-86.92,172.68L-58.74,278.66ZM37.82,300.47L71.55,274.45L71.29,236.68L44.96,137.62L28.65,141.96L32.44,156.22L16.84,145.88L-3.15,145.51L-33.32,170.61L-34.31,215.00L-11.41,253.04L27.24,259.85L42.61,251.58L51.81,237.27L53.82,245.07L53.64,270.51L34.05,284.55L15.80,284.27L5.31,271.68L-7.58,282.30L6.85,299.35ZM2.03,160.84L25.08,165.95L42.83,194.51L42.38,227.91L24.14,243.99L0.86,238.94L-15.58,210.04L-15.66,176.79ZM99.33,236.64L117.67,231.77L102.34,174.09L103.05,144.74L121.29,129.82L140.58,133.20L151.24,153.23L168.52,218.25L186.86,213.37L169.58,148.36L154.04,117.88L120.82,113.01L102.17,122.65L91.73,141.56L87.66,126.27L71.15,130.66ZM229.90,180.35L211.73,155.06L290.40,134.13L289.47,126.52L267.01,90.92L226.05,84.92L194.12,109.66L191.78,155.25L216.45,193.65L256.45,199.26L284.35,182.27L292.48,156.71L275.83,151.59L269.53,172.68L253.34,183.39ZM208.44,140.21L213.50,112.89L230.17,100.49L253.32,103.81L267.75,124.44ZM344.20,72.61L359.18,73.51L360.56,56.56L340.80,54.53L324.73,64.62L317.04,84.93L312.17,66.59L295.66,70.98L323.56,175.93L342.18,172.09L326.95,114.81L326.86,87.48ZM450.41,146.05L455.68,136.77L452.87,126.43L443.64,121.09L433.38,123.87L428.11,133.15L430.91,143.49L440.15,148.83ZM425.72,112.30L443.48,107.58L441.99,101.96L440.78,86.39L447.46,71.58L460.65,49.72L462.39,23.08L441.11,-4.00L403.40,-6.19L375.33,13.73L370.50,44.18L387.97,47.10L391.29,22.42L408.00,10.39L429.13,11.17L442.93,29.59L441.99,47.89L432.91,63.19L422.68,83.50L424.22,106.69Z" fill="#ffffff" stroke="#000000"/>
    <path d="M-817.01,84.27L-831.30,96.71L-806.03,123.58L-758.72,122.05L-725.59,99.78L-718.97,61.39L-737.18,38.98L-767.43,33.86L-812.41,34.87L-824.70,31.25L-831.38,22.03L-826.89,0.35L-806.89,-12.25L-779.75,-12.17L-762.99,6.70L-748.29,-5.19L-770.78,-29.64L-812.96,-28.18L-843.86,-6.90L-849.68,29.27L-838.25,47.00L-808.49,54.46L-763.07,52.79L-747.53,57.61L-739.37,69.09L-742.29,90.91L-764.79,106.13L-796.05,106.50ZM-677.03,-27.70L-707.82,-1.45L-708.30,43.88L-681.43,80.39L-641.12,83.72L-610.32,57.47L-609.83,12.14L-636.69,-24.38ZM-646.01,68.54L-670.56,66.00L-690.05,38.01L-690.56,3.90L-672.13,-12.50L-647.56,-9.96L-628.05,18.03L-627.55,52.14ZM-455.52,19.41L-474.92,-40.77L-448.74,-131.64L-467.17,-136.47L-488.58,-53.90L-554.96,-108.17L-568.11,-93.17L-493.79,-34.69L-474.39,25.49ZM-377.31,-124.30L-408.10,-98.05L-408.58,-52.72L-381.72,-16.21L-341.40,-12.88L-310.61,-39.13L-310.11,-84.46L-336.97,-120.98ZM-346.29,-28.06L-370.84,-30.60L-390.33,-58.59L-390.85,-92.69L-372.41,-109.10L-347.85,-106.55L-328.34,-78.57L-327.83,-44.46ZM-223.16,-169.49L-241.04,-163.73L-222.99,-107.73L-222.11,-78.47L-239.35,-62.79L-258.60,-65.14L-270.27,-84.73L-290.59,-147.76L-308.46,-141.99L-288.11,-78.83L-271.15,-49.31L-238.06,-46.22L-220.29,-57.22L-210.76,-75.92L-205.96,-61.02L-189.87,-66.21ZM-63.85,-106.83L-68.89,-242.89L6.47,-129.49L25.33,-135.57L16.69,-287.57L-2.60,-286.20L8.64,-155.40L-63.46,-264.81L-86.10,-257.51L-79.75,-126.91L-147.60,-239.47L-164.45,-229.19L-82.71,-100.74ZM118.29,-241.99L65.80,-205.35L61.91,-176.84L80.11,-156.81L107.68,-157.60L125.01,-167.15L137.95,-185.05L141.73,-173.08L158.41,-178.46L136.96,-245.09L117.78,-272.38L83.52,-272.83L57.90,-257.08L50.88,-232.56L67.87,-228.42L71.91,-247.05L86.40,-257.64L105.42,-258.16ZM123.38,-226.19L131.80,-200.04L122.73,-184.89L105.84,-173.10L91.25,-172.25L80.71,-183.78L84.16,-200.38ZM185.33,-187.13L203.20,-192.90L185.09,-249.10L184.28,-278.14L201.53,-293.82L220.77,-291.48L232.33,-272.23L252.75,-208.87L270.63,-214.63L250.21,-277.99L233.29,-307.31L200.21,-310.40L182.27,-299.92L172.93,-280.70L168.13,-295.60L152.04,-290.42ZM340.35,-235.57L340.35,-235.57L333.33,-250.31L325.71,-246.54L315.69,-248.12L309.96,-260.63L290.82,-320.02L308.49,-325.71L304.08,-339.42L286.40,-333.72L274.88,-369.47L257.00,-363.71L268.52,-327.96L253.83,-323.22L258.24,-309.52L272.94,-314.25L292.08,-254.87L304.20,-231.24L327.30,-229.26ZM473.22,-279.92L432.57,-406.05L480.64,-421.54L475.19,-438.42L360.19,-401.36L365.64,-384.47L413.70,-399.96L454.35,-273.84ZM545.87,-421.84L515.08,-395.59L514.60,-350.27L541.46,-313.75L581.78,-310.42L612.57,-336.68L613.06,-382.00L586.21,-418.52ZM576.88,-325.61L552.34,-328.15L532.85,-356.13L532.33,-390.24L550.77,-406.64L575.33,-404.10L594.84,-376.11L595.35,-342.01ZM-607.02,265.63L-551.88,247.86L-514.68,226.89L-510.12,189.41L-525.13,170.10L-551.27,165.10L-537.04,146.47L-538.06,125.73L-561.73,101.71L-600.86,105.68L-653.15,122.53ZM-614.25,177.99L-628.65,133.42L-599.65,124.07L-573.85,118.97L-557.15,134.55L-561.57,155.76L-582.85,167.87ZM-593.41,242.64L-608.79,194.81L-575.36,184.04L-548.26,180.46L-530.60,195.99L-533.95,219.04L-557.31,231.01ZM-460.46,196.64L-479.71,172.59L-403.05,147.86L-404.36,140.39L-428.38,106.37L-469.17,102.55L-499.45,128.63L-499.42,173.80L-473.07,210.48L-433.26,213.97L-406.56,195.75L-399.84,170.07L-416.56,165.87L-421.69,187.03L-437.14,198.44ZM-483.73,158.08L-480.13,130.83L-464.30,117.72L-441.25,119.81L-425.93,139.45ZM-302.52,132.57L-302.35,129.00L-238.00,108.26L-235.39,111.59L-212.78,140.26L-196.74,128.11L-294.74,7.06L-314.00,13.27L-323.27,168.85L-304.34,169.77ZM-249.60,93.36L-301.44,110.07L-297.49,31.84ZM-63.84,77.55L-105.15,71.89L-130.32,32.99L-131.83,-13.52L-102.37,-41.99L-71.28,-41.51L-50.02,-21.07L-35.94,-35.00L-62.89,-58.54L-107.59,-58.19L-150.87,-19.67L-150.57,39.53L-116.24,87.75L-58.62,93.75L-22.28,67.76L-14.14,34.02L-33.49,30.20L-40.18,59.62ZM40.34,56.92L-5.75,-86.09L-23.62,-80.32L22.47,62.68ZM40.87,-76.32L45.06,-85.48L41.82,-95.58L32.90,-100.70L23.71,-97.74L19.63,-88.45L22.88,-78.36L31.69,-73.36ZM84.04,42.84L50.75,-60.45L32.88,-54.68L66.17,48.60ZM108.93,34.81L126.85,29.04L109.63,-24.39L105.98,-52.42L123.19,-71.25L139.23,-69.32L149.60,-52.86L171.38,14.69L189.25,8.93L169.98,-50.86L169.09,-75.51L185.79,-91.42L203.57,-88.19L212.88,-71.03L234.00,-5.50L251.87,-11.26L228.70,-83.16L212.30,-106.69L184.68,-108.07L167.48,-97.59L158.37,-77.37L143.08,-89.05L122.65,-87.98L105.21,-77.88L96.51,-58.97L91.77,-73.67L75.68,-68.48ZM317.22,-108.78L264.74,-72.14L260.84,-43.63L279.04,-23.60L306.61,-24.39L323.94,-33.94L336.88,-51.84L340.66,-39.87L357.34,-45.25L335.89,-111.88L316.71,-139.17L282.45,-139.62L256.83,-123.87L249.81,-99.35L266.80,-95.21L270.84,-113.84L285.33,-124.43L304.35,-124.95ZM322.31,-92.98L330.73,-66.83L321.66,-51.68L304.77,-39.89L290.18,-39.04L279.64,-50.57L283.09,-67.17ZM429.05,-66.83L429.05,-66.84L422.02,-81.58L414.40,-77.80L404.39,-79.38L398.65,-91.89L379.51,-151.28L397.19,-156.98L392.77,-170.68L375.10,-164.98L363.57,-200.73L345.70,-194.97L357.22,-159.22L342.52,-154.48L346.94,-140.78L361.64,-145.52L380.78,-86.13L392.89,-62.50L416.00,-60.52ZM464.11,-101.35L444.86,-125.40L521.52,-150.13L520.21,-157.60L496.19,-191.62L455.40,-195.44L425.12,-169.36L425.15,-124.19L451.50,-87.51L491.31,-84.02L518.01,-102.25L524.73,-127.92L508.01,-132.12L502.88,-110.96L487.43,-99.55ZM440.84,-139.91L444.44,-167.17L460.27,-180.27L483.32,-178.19L498.64,-158.54ZM-392.03,393.60L-344.56,378.30L-298.19,343.32L-298.30,284.01L-334.01,236.03L-393.24,236.13L-438.12,250.60ZM-378.54,370.84L-413.81,261.40L-387.80,253.01L-346.32,251.75L-318.21,290.22L-317.09,336.73L-351.93,362.26ZM-238.78,322.52L-258.04,298.47L-181.38,273.74L-182.69,266.27L-206.71,232.25L-247.49,228.43L-277.77,254.51L-277.75,299.68L-251.39,336.36L-211.58,339.85L-184.88,321.63L-178.17,295.95L-194.88,291.75L-200.02,312.91L-215.47,324.32ZM-262.06,283.96L-258.46,256.71L-242.62,243.60L-219.58,245.69L-204.26,265.33ZM-145.65,278.87L-158.55,290.86L-141.90,307.87L-108.49,306.74L-81.63,290.06L-76.24,261.01L-91.10,242.41L-111.38,239.08L-137.55,240.33L-152.67,239.28L-159.72,232.44L-157.25,220.40L-141.61,211.23L-123.99,210.43L-112.80,221.33L-100.05,209.39L-114.37,194.91L-145.85,195.75L-171.98,212.25L-176.52,240.08L-162.47,256.48L-141.79,259.25L-114.17,257.78L-100.24,259.94L-93.98,268.49L-98.10,283.05L-112.79,291.31L-133.79,291.18ZM-73.52,157.87L-69.33,148.72L-72.57,138.61L-81.49,133.50L-90.68,136.46L-94.76,145.74L-91.51,155.83L-82.70,160.83ZM-30.35,277.03L-63.64,173.75L-81.51,179.51L-48.22,282.79ZM48.31,299.38L80.30,271.93L78.11,234.62L46.99,138.09L31.10,143.21L35.59,157.12L19.63,147.70L-0.14,148.36L-28.66,174.72L-27.36,218.63L-2.77,255.04L35.77,259.78L50.53,250.82L58.89,236.21L61.28,243.81L62.41,268.96L43.76,283.83L25.72,284.50L14.70,272.60L2.51,283.76L17.65,299.86ZM5.77,163.24L28.81,167.11L47.82,194.42L49.09,227.44L31.89,244.27L8.63,240.48L-9.11,212.77L-10.89,179.91ZM105.81,233.15L123.68,227.39L105.57,171.18L104.77,142.14L122.02,126.46L141.26,128.81L152.81,148.06L173.24,211.41L191.11,205.65L170.69,142.29L153.77,112.98L120.69,109.88L102.75,120.36L93.41,139.58L88.61,124.68L72.52,129.87ZM231.94,170.81L212.69,146.75L289.35,122.03L288.04,114.56L264.02,80.53L223.23,76.71L192.95,102.80L192.98,147.96L219.33,184.64L259.14,188.13L285.84,169.91L292.56,144.23L275.84,140.03L270.71,161.19L255.26,172.60ZM208.67,132.25L212.27,104.99L228.10,91.89L251.15,93.97L266.47,113.62ZM339.34,58.48L354.19,58.59L354.69,41.77L335.06,40.79L319.70,51.57L313.14,72.04L307.38,54.17L291.29,59.35L324.26,161.62L342.46,156.87L324.47,101.06L322.98,74.05ZM448.07,125.59L452.80,116.15L449.50,106.07L440.10,101.26L430.10,104.54L425.37,113.98L428.67,124.05L438.07,128.86ZM421.93,93.51L439.25,87.93L437.48,82.45L435.49,67.13L441.33,52.14L453.24,29.87L453.59,3.46L431.16,-22.21L393.80,-22.43L367.08,-1.30L363.88,29.03L381.28,31.01L383.30,6.46L399.19,-6.29L420.11,-6.60L434.69,10.89L434.71,29.02L426.52,44.61L417.45,65.20L420.17,88.03Z" fill="#ffffff" stroke="#000000"/>
    <path d="M-807.12,129.84L-820.60,142.86L-794.25,168.11L-747.58,164.17L-715.99,140.46L-711.43,102.20L-730.57,80.98L-760.73,77.49L-805.12,80.79L-817.44,77.85L-824.52,69.08L-821.19,47.43L-802.08,33.96L-775.26,32.64L-757.73,50.42L-743.82,37.92L-767.29,14.91L-808.89,18.53L-838.33,41.14L-842.22,77.17L-830.02,94.11L-800.24,99.95L-755.44,95.97L-739.85,99.92L-731.19,110.85L-732.95,132.56L-754.40,148.75L-785.27,150.73ZM-674.57,12.02L-703.64,39.53L-701.78,84.34L-673.37,119.04L-633.36,120.26L-604.28,92.74L-606.13,47.93L-634.54,13.23ZM-638.98,105.51L-663.36,104.26L-684.05,77.61L-686.32,43.94L-668.94,26.79L-644.54,28.03L-623.83,54.68L-621.58,88.35ZM-453.29,47.18L-475.55,-11.28L-454.35,-102.42L-472.81,-106.23L-489.72,-23.56L-558.10,-73.76L-570.31,-58.27L-493.88,-4.30L-471.62,54.16ZM-383.40,-98.83L-412.48,-71.31L-410.62,-26.50L-382.20,8.20L-342.20,9.41L-313.12,-18.11L-314.96,-62.92L-343.38,-97.62ZM-347.81,-5.34L-372.20,-6.59L-392.89,-33.23L-395.15,-66.91L-377.78,-84.06L-353.38,-82.81L-332.66,-56.16L-330.42,-22.49ZM-233.42,-151.40L-250.79,-144.79L-230.08,-90.39L-227.70,-61.53L-243.93,-45.15L-263.07,-46.48L-275.61,-65.23L-298.92,-126.46L-316.29,-119.85L-292.93,-58.49L-274.65,-30.19L-241.81,-28.84L-224.82,-40.62L-216.36,-59.58L-210.85,-45.11L-195.22,-51.06ZM-72.79,-97.67L-84.77,-231.85L-4.49,-123.68L13.84,-130.65L-2.51,-280.39L-21.50,-278.04L-3.67,-149.39L-80.53,-253.79L-102.53,-245.41L-89.54,-116.70L-162.36,-224.42L-178.49,-213.40L-91.12,-90.69ZM100.22,-240.58L50.24,-201.68L47.86,-173.31L66.87,-154.46L94.07,-156.65L110.70,-166.98L122.57,-185.33L126.91,-173.70L143.12,-179.87L118.50,-244.60L98.15,-270.58L64.28,-269.26L39.78,-252.38L34.10,-227.80L51.09,-224.58L54.13,-243.19L67.90,-254.41L86.67,-255.90ZM106.06,-225.23L115.72,-199.82L107.54,-184.39L91.45,-171.87L77.09,-170.28L66.08,-181.13L68.63,-197.72ZM169.27,-189.82L186.63,-196.44L165.85,-251.04L163.56,-279.69L179.80,-296.07L198.93,-294.74L211.34,-276.31L234.77,-214.76L252.14,-221.37L228.70,-282.92L210.48,-311.02L177.63,-312.38L160.45,-301.11L152.21,-281.64L146.70,-296.11L131.07,-290.16ZM319.95,-245.65L319.95,-245.65L312.25,-259.85L304.92,-255.73L294.93,-256.78L288.63,-268.84L266.67,-326.54L283.84,-333.07L278.77,-346.39L261.60,-339.85L248.38,-374.58L231.01,-367.97L244.23,-333.24L229.95,-327.80L235.02,-314.49L249.30,-319.93L271.26,-262.23L284.45,-239.51L307.38,-238.74ZM448.95,-296.30L402.30,-418.82L449.00,-436.60L442.75,-453.00L331.03,-410.47L337.28,-394.07L383.97,-411.84L430.62,-289.32ZM513.43,-440.25L484.36,-412.73L486.22,-367.93L514.63,-333.23L554.64,-332.01L583.71,-359.53L581.87,-404.34L553.46,-439.04ZM549.02,-346.76L524.64,-348.01L503.94,-374.66L501.68,-408.33L519.05,-425.48L543.46,-424.23L564.17,-397.58L566.42,-363.91ZM-590.33,298.24L-536.76,277.84L-501.08,255.21L-498.50,217.95L-514.33,199.64L-540.41,196.04L-527.31,176.91L-529.38,156.47L-554.00,133.95L-592.46,139.88L-643.25,159.22ZM-601.97,212.02L-618.49,168.72L-590.32,157.99L-565.09,151.63L-547.79,166.16L-551.07,187.35L-571.46,200.40ZM-578.06,274.83L-595.71,228.36L-563.24,215.99L-536.64,211.07L-518.39,225.50L-520.53,248.45L-542.99,261.48ZM-449.06,222.54L-469.32,199.77L-394.85,171.40L-396.53,164.09L-422.01,131.70L-462.50,130.02L-491.08,157.35L-488.73,201.98L-460.81,236.86L-421.29,238.27L-395.85,218.89L-390.53,193.17L-407.27,189.88L-411.25,211.05L-425.93,223.12ZM-474.04,185.64L-471.88,158.53L-456.91,144.77L-434.03,145.64L-417.89,164.26ZM-296.31,151.12L-296.32,147.59L-233.81,123.79L-231.06,126.94L-207.25,154.10L-192.03,141.28L-295.07,26.71L-313.78,33.84L-314.95,188.04L-296.20,187.97ZM-246.03,109.67L-296.39,128.84L-296.51,51.34ZM-63.31,84.50L-104.42,81.02L-131.29,43.88L-135.17,-1.99L-107.52,-31.64L-76.78,-32.76L-54.72,-13.65L-41.53,-28.14L-69.37,-50.02L-113.52,-47.37L-154.29,-7.09L-150.96,51.39L-114.56,97.27L-57.32,100.24L-22.75,72.68L-16.45,38.93L-35.76,36.15L-40.86,65.56ZM38.56,58.76L-14.32,-80.17L-31.69,-73.56L21.20,65.37ZM32.24,-72.92L35.90,-82.18L32.18,-91.99L23.11,-96.59L14.19,-93.19L10.63,-83.81L14.35,-74.00L23.32,-69.52ZM81.01,42.60L42.82,-57.74L25.45,-51.13L63.65,49.21ZM105.19,33.39L122.60,26.77L102.84,-25.14L97.79,-52.65L113.83,-72.13L129.78,-71.05L140.87,-55.33L165.86,10.30L183.22,3.69L161.11,-54.39L158.97,-78.70L174.64,-95.28L192.38,-93.00L202.46,-76.52L226.69,-12.86L244.06,-19.47L217.47,-89.32L200.05,-111.73L172.69,-111.67L156.24,-100.43L148.27,-79.99L132.57,-90.74L112.44,-88.64L95.72,-77.76L88.10,-58.63L82.66,-72.91L67.04,-66.96ZM303.61,-119.19L253.64,-80.29L251.25,-51.92L270.26,-33.07L297.46,-35.26L314.10,-45.59L325.96,-63.94L330.31,-52.31L346.51,-58.48L321.90,-123.21L301.55,-149.19L267.67,-147.87L243.17,-130.99L237.49,-106.41L254.49,-103.19L257.53,-121.80L271.30,-133.01L290.07,-134.50ZM309.45,-103.84L319.11,-78.43L310.93,-63.00L294.85,-50.48L280.48,-48.89L269.47,-59.74L272.02,-76.32ZM416.25,-83.49L416.26,-83.49L408.56,-97.69L401.22,-93.57L391.24,-94.62L384.94,-106.68L362.97,-164.38L380.15,-170.91L375.08,-184.23L357.91,-177.69L344.68,-212.42L327.32,-205.81L340.54,-171.08L326.26,-165.64L331.33,-152.33L345.61,-157.77L367.57,-100.07L380.76,-77.35L403.69,-76.58ZM449.13,-119.39L428.87,-142.17L503.34,-170.54L501.66,-177.85L476.18,-210.23L435.68,-211.91L407.11,-184.59L409.45,-139.96L437.38,-105.08L476.89,-103.67L502.33,-123.05L507.65,-148.76L490.92,-152.06L486.93,-130.88L472.25,-118.81ZM424.15,-156.30L426.31,-183.41L441.28,-197.17L464.15,-196.30L480.30,-177.67ZM-371.33,413.63L-325.22,396.07L-281.20,359.13L-284.36,300.53L-322.10,254.96L-380.62,258.10L-424.22,274.70ZM-359.17,390.44L-399.65,284.13L-374.37,274.50L-333.46,271.13L-303.71,307.69L-300.21,353.59L-333.32,380.60ZM-223.57,335.52L-243.83,312.75L-169.36,284.38L-171.04,277.07L-196.52,244.69L-237.01,243.01L-265.59,270.33L-263.25,314.96L-235.32,349.84L-195.81,351.25L-170.36,331.87L-165.05,306.16L-181.78,302.86L-185.77,324.03L-200.45,336.10ZM-248.55,298.62L-246.39,271.51L-231.42,257.75L-208.55,258.62L-192.40,277.25ZM-133.79,287.61L-145.92,300.12L-128.60,316.07L-95.65,313.24L-69.97,295.38L-66.13,266.40L-81.77,248.78L-101.98,246.53L-127.78,249.11L-142.77,248.85L-150.08,242.46L-148.26,230.44L-133.28,220.57L-115.92,218.88L-104.30,229.07L-92.31,216.62L-107.21,203.05L-138.26,205.49L-163.23,223.14L-166.29,250.87L-151.56,266.35L-130.99,268.03L-103.78,265.16L-89.90,266.58L-83.28,274.69L-86.60,289.30L-100.69,298.21L-121.45,299.16ZM-68.75,164.35L-65.08,155.09L-68.80,145.28L-77.88,140.68L-86.80,144.07L-90.36,153.46L-86.63,163.26L-77.67,167.75ZM-19.97,279.87L-58.17,179.53L-75.53,186.14L-37.34,286.48ZM58.89,297.90L89.09,269.14L85.00,232.39L49.31,138.62L33.87,144.49L39.01,158.00L22.76,149.51L3.26,151.19L-23.56,178.69L-20.02,222.01L6.14,256.72L44.47,259.43L58.60,249.81L66.10,234.95L68.85,242.33L71.26,267.13L53.60,282.78L35.81,284.37L24.31,273.17L12.84,284.83L28.63,299.96ZM9.87,165.58L32.83,168.22L53.02,194.23L55.96,226.79L39.84,244.30L16.66,241.75L-2.29,215.28L-5.74,182.91ZM112.30,229.51L129.67,222.90L108.88,168.29L106.59,139.65L122.83,123.27L141.96,124.60L154.37,143.02L177.80,204.57L195.17,197.96L171.74,136.41L153.51,108.31L120.67,106.95L103.49,118.23L95.24,137.70L89.73,123.23L74.10,129.18ZM233.72,161.43L213.46,138.66L287.93,110.29L286.25,102.98L260.77,70.60L220.28,68.92L191.70,96.24L194.05,140.87L221.97,175.75L261.49,177.16L286.93,157.78L292.25,132.07L275.51,128.77L271.53,149.94L256.85,162.01ZM208.75,124.53L210.90,97.42L225.87,83.66L248.75,84.53L264.89,103.16ZM334.06,44.93L348.74,44.28L348.37,27.64L328.92,27.67L314.30,39.12L308.87,59.68L302.26,42.32L286.63,48.27L324.46,147.62L342.20,141.99L321.56,87.77L318.69,61.16ZM444.93,105.65L449.12,96.08L445.34,86.30L435.81,82.03L426.10,85.78L421.92,95.35L425.69,105.13L435.23,109.40ZM417.47,75.30L434.29,68.89L432.26,63.58L429.50,48.54L434.50,33.43L445.12,10.82L444.11,-15.30L420.64,-39.51L383.71,-37.81L358.40,-15.56L356.79,14.57L374.09,15.64L374.82,-8.73L389.86,-22.13L410.52,-23.52L425.82,-6.98L426.77,10.93L419.48,26.75L411.58,47.56L415.44,69.98Z" fill="#ffffff" stroke="#000000"/>
    <path d="M-794.63,174.49L-807.27,188.05L-779.94,211.64L-734.05,205.36L-704.06,180.31L-701.52,142.27L-721.52,122.30L-751.48,120.40L-795.17,125.94L-807.49,123.66L-814.94,115.37L-812.76,93.81L-794.58,79.51L-768.15,76.84L-749.91,93.50L-736.82,80.44L-761.19,58.91L-802.10,64.62L-830.02,88.47L-832.01,124.27L-819.08,140.37L-789.36,144.62L-745.32,138.38L-729.70,141.49L-720.59,151.83L-721.22,173.37L-741.57,190.47L-771.97,194.01ZM-669.73,51.29L-697.04,79.96L-692.90,124.14L-663.04,156.96L-623.46,156.10L-596.15,127.42L-600.27,83.25L-630.12,50.43ZM-629.77,141.82L-653.92,141.84L-675.73,116.58L-679.70,83.43L-663.42,65.59L-639.24,65.57L-617.41,90.83L-613.46,123.98ZM-449.32,74.66L-474.31,18.04L-458.06,-73.08L-476.49,-75.90L-488.95,6.64L-559.08,-39.44L-570.35,-23.51L-492.07,25.88L-467.07,82.49ZM-387.78,-73.18L-415.09,-44.50L-410.95,-0.33L-381.10,32.49L-341.51,31.64L-314.20,2.95L-318.32,-41.22L-348.18,-74.04ZM-347.82,17.35L-371.97,17.37L-393.78,-7.89L-397.75,-41.04L-381.47,-58.88L-357.30,-58.90L-335.46,-33.63L-331.51,-0.49ZM-242.31,-132.82L-259.13,-125.40L-235.88,-72.72L-232.05,-44.33L-247.24,-27.31L-266.22,-27.65L-279.57,-45.53L-305.74,-104.82L-322.56,-97.39L-296.33,-37.98L-276.82,-10.96L-244.30,-11.31L-228.12,-23.83L-220.74,-42.99L-214.56,-28.98L-199.42,-35.66ZM-80.87,-88.00L-99.59,-219.93L-14.72,-117.20L3.03,-125.03L-20.83,-272.12L-39.47,-268.82L-15.24,-142.64L-96.53,-241.83L-117.83,-232.42L-98.39,-105.94L-175.86,-208.61L-191.23,-196.90L-98.62,-80.16ZM82.71,-238.07L35.34,-197.07L34.44,-168.92L54.19,-151.28L80.95,-154.84L96.85,-165.90L107.63,-184.64L112.52,-173.37L128.21,-180.29L100.57,-242.98L79.13,-267.60L45.73,-264.55L22.39,-246.62L18.05,-222.05L35.00,-219.73L37.05,-238.28L50.07,-250.07L68.54,-252.50ZM89.27,-223.20L100.12,-198.60L92.83,-182.93L77.58,-169.74L63.47,-167.43L52.03,-177.58L53.71,-194.10ZM153.53,-191.47L170.35,-198.90L147.01,-251.77L143.28,-279.96L158.48,-296.98L177.45,-296.64L190.65,-279.08L216.96,-219.47L233.78,-226.90L207.47,-286.50L188.02,-313.32L155.50,-312.98L139.11,-300.96L131.96,-281.30L125.78,-295.31L110.64,-288.63ZM299.52,-254.36L299.52,-254.37L291.19,-268.00L284.15,-263.55L274.24,-264.08L267.39,-275.67L242.73,-331.54L259.36,-338.88L253.67,-351.77L237.04,-344.43L222.19,-378.06L205.38,-370.64L220.22,-337.01L206.40,-330.90L212.09,-318.01L225.91,-324.11L250.58,-268.25L264.77,-246.48L287.46,-246.89ZM424.36,-311.03L371.98,-429.68L417.20,-449.64L410.19,-465.52L302.01,-417.76L309.02,-401.88L354.23,-421.84L406.61,-303.19ZM480.67,-456.56L453.36,-427.88L457.50,-383.71L487.35,-350.89L526.94,-351.74L554.25,-380.43L550.13,-424.60L520.27,-457.42ZM520.63,-366.03L496.48,-366.00L474.67,-391.27L470.70,-424.42L486.98,-442.25L511.15,-442.28L532.99,-417.01L536.94,-383.87ZM-571.80,329.72L-519.93,306.82L-485.84,282.63L-485.21,245.68L-501.79,228.41L-527.73,226.19L-515.78,206.62L-518.88,186.53L-544.36,165.56L-582.04,173.39L-631.23,195.10ZM-587.74,245.14L-606.28,203.21L-579.00,191.17L-554.40,183.58L-536.56,197.05L-538.72,218.15L-558.19,232.10ZM-560.89,305.96L-580.71,260.96L-549.27,247.08L-523.25,240.85L-504.48,254.17L-505.40,276.95L-526.93,290.97ZM-436.13,247.68L-457.32,226.22L-385.20,194.37L-387.24,187.23L-414.08,156.55L-454.17,156.97L-480.99,185.44L-476.38,229.40L-447.00,262.43L-407.89,261.79L-383.75,241.34L-379.82,215.66L-396.52,213.27L-399.37,234.39L-413.25,247.07ZM-462.70,212.51L-461.97,185.61L-447.88,171.25L-425.24,170.94L-408.33,188.51ZM-288.90,169.27L-289.09,165.79L-228.56,139.06L-225.68,142.03L-200.76,167.65L-186.38,154.19L-294.06,46.30L-312.19,54.31L-305.41,206.70L-286.89,205.67ZM-241.36,125.74L-290.13,147.26L-294.23,70.71ZM-62.14,91.48L-102.93,90.16L-131.38,54.85L-137.57,9.74L-111.79,-20.98L-81.47,-23.66L-58.70,-5.92L-46.41,-20.91L-75.03,-41.09L-118.51,-36.22L-156.73,5.68L-150.43,63.28L-112.12,106.73L-55.41,106.72L-22.68,77.73L-18.18,44.06L-37.41,42.30L-40.93,71.62ZM37.18,60.82L-22.21,-73.71L-39.02,-66.28L20.37,68.24ZM24.17,-68.94L27.31,-78.27L23.13,-87.78L13.93,-91.86L5.29,-88.04L2.26,-78.59L6.44,-69.09L15.53,-65.12ZM78.29,42.67L35.40,-54.48L18.58,-47.06L61.47,50.10ZM101.70,32.34L118.56,24.90L96.37,-25.36L89.97,-52.28L104.82,-72.36L120.63,-72.10L132.39,-57.14L160.45,6.41L177.26,-1.02L152.44,-57.26L149.07,-81.16L163.70,-98.35L181.34,-97.01L192.14,-81.25L219.36,-19.60L236.17,-27.02L206.31,-94.66L187.95,-115.90L160.93,-114.44L145.25,-102.49L138.44,-81.89L122.37,-91.70L102.59,-88.59L86.64,-76.99L80.09,-57.69L73.98,-71.52L58.85,-64.84ZM289.88,-128.59L242.51,-87.60L241.61,-59.45L261.36,-41.80L288.12,-45.37L304.02,-56.43L314.80,-75.16L319.69,-63.89L335.39,-70.82L307.74,-133.51L286.30,-158.13L252.90,-155.08L229.56,-137.15L225.22,-112.57L242.18,-110.26L244.22,-128.80L257.25,-140.59L275.71,-143.03ZM296.44,-113.73L307.29,-89.13L300.00,-73.46L284.75,-60.26L270.64,-57.96L259.21,-68.11L260.88,-84.62ZM403.00,-99.11L403.00,-99.12L394.66,-112.75L387.63,-108.30L377.72,-108.83L370.87,-120.42L346.20,-176.29L362.83,-183.63L357.14,-196.52L340.51,-189.18L325.67,-222.81L308.85,-215.39L323.70,-181.75L309.87,-175.65L315.56,-162.76L329.39,-168.86L354.05,-113.00L368.24,-91.23L390.94,-91.64ZM433.63,-136.27L412.44,-157.73L484.56,-189.59L482.52,-196.72L455.68,-227.40L415.59,-226.98L388.77,-198.52L393.38,-154.55L422.76,-121.53L461.86,-122.17L486.00,-142.62L489.94,-168.30L473.24,-170.69L470.39,-149.57L456.50,-136.89ZM407.06,-171.45L407.79,-198.35L421.88,-212.71L444.52,-213.02L461.43,-195.45ZM-349.53,432.46L-304.87,412.75L-263.28,373.99L-269.41,316.26L-309.04,273.19L-366.69,279.30L-408.91,297.94ZM-338.71,408.93L-384.15,305.98L-359.68,295.18L-319.43,289.74L-288.16,324.33L-282.35,369.49L-313.67,397.88ZM-207.56,347.71L-228.75,326.25L-156.63,294.40L-158.67,287.26L-185.51,256.58L-225.60,257.00L-252.43,285.47L-247.82,329.43L-218.44,362.46L-179.33,361.82L-155.19,341.36L-151.25,315.69L-167.96,313.30L-170.80,334.42L-184.69,347.09ZM-234.13,312.54L-233.40,285.64L-219.31,271.28L-196.67,270.96L-179.76,288.53ZM-121.33,295.76L-132.67,308.75L-114.74,323.61L-82.33,319.12L-57.88,300.16L-55.58,271.33L-71.93,254.73L-92.02,253.54L-117.37,257.42L-132.19,257.93L-139.74,251.99L-138.57,240.03L-124.27,229.51L-107.20,226.94L-95.20,236.41L-84.00,223.50L-99.41,210.86L-129.97,214.87L-153.73,233.58L-155.32,261.13L-139.98,275.67L-119.57,276.27L-92.83,272.04L-79.05,272.73L-72.10,280.41L-74.62,295.00L-88.09,304.53L-108.55,306.54ZM-63.40,170.65L-60.26,161.32L-64.44,151.81L-73.64,147.73L-82.28,151.55L-85.32,161.00L-81.13,170.50L-72.04,174.46ZM-9.28,282.26L-52.18,185.10L-68.99,192.53L-26.10,289.69ZM69.55,296.03L97.91,266.06L91.98,229.97L51.90,139.16L36.95,145.76L42.72,158.84L26.24,151.29L7.06,153.94L-18.03,182.50L-12.30,225.11L15.33,258.06L53.33,258.76L66.79,248.53L73.43,233.47L76.53,240.62L80.19,264.99L63.55,281.36L46.06,283.84L34.12,273.37L23.39,285.48L39.76,299.61ZM14.32,167.83L37.14,169.26L58.42,193.91L63.00,225.92L47.97,244.05L24.95,242.72L4.87,217.55L-0.21,185.74ZM118.80,225.72L135.62,218.30L112.27,165.42L108.55,137.24L123.74,120.22L142.71,120.55L155.92,138.12L182.23,197.72L199.05,190.30L172.73,130.69L153.29,103.87L120.77,104.21L104.38,116.24L97.23,135.89L91.04,121.88L75.91,128.56ZM235.26,152.23L214.07,130.77L286.19,98.92L284.15,91.78L257.31,61.10L217.22,61.52L190.39,89.98L195.00,133.95L224.38,166.98L263.49,166.33L287.63,145.88L291.57,120.21L274.86,117.81L272.02,138.93L258.13,151.61ZM208.69,117.05L209.42,90.16L223.51,75.79L246.15,75.48L263.06,93.05ZM328.40,31.98L342.87,30.58L341.64,14.16L322.43,15.19L308.57,27.25L304.27,47.84L296.85,31.03L281.71,37.71L324.19,133.92L341.42,127.44L318.24,74.94L314.05,48.80ZM441.05,86.26L444.70,76.59L440.46,67.12L430.82,63.40L421.43,67.60L417.78,77.27L422.02,86.74L431.65,90.47ZM412.35,57.69L428.64,50.50L426.37,45.35L422.87,30.63L427.03,15.46L436.36,-7.43L434.02,-33.18L409.59,-55.89L373.19,-52.31L349.33,-29.03L349.29,0.82L366.43,0.99L365.91,-23.13L380.08,-37.15L400.41,-39.57L416.38,-24.03L418.24,-6.38L411.85,9.63L405.11,30.59L410.08,52.54Z" fill="#ffffff" stroke="#000000"/>
    <path d="M-779.61,218.09L-791.40,232.13L-763.19,254.03L-718.18,245.46L-689.84,219.18L-689.29,181.48L-710.07,162.77L-739.77,162.43L-782.64,170.16L-794.93,168.54L-802.71,160.73L-801.67,139.32L-784.44,124.26L-758.47,120.26L-739.60,135.78L-727.34,122.21L-752.51,102.20L-792.63,109.94L-818.99,134.94L-819.11,170.40L-805.52,185.64L-775.94,188.31L-732.75,179.88L-717.17,182.15L-707.64,191.90L-707.15,213.21L-726.38,231.14L-756.22,236.20ZM-662.56,89.97L-688.07,119.70L-681.71,163.12L-650.53,194.00L-611.47,191.13L-585.97,161.39L-592.31,117.97L-623.49,87.08ZM-618.44,177.34L-642.29,178.60L-665.14,154.77L-670.76,122.23L-655.59,103.77L-631.72,102.51L-608.85,126.34L-603.25,158.88ZM-443.65,101.73L-471.24,47.09L-459.86,-43.75L-478.22,-45.59L-486.28,36.58L-557.92,-5.34L-568.24,10.98L-488.37,55.74L-460.78,110.38ZM-390.45,-47.46L-415.95,-17.73L-409.60,25.69L-378.42,56.57L-339.36,53.70L-313.86,23.96L-320.20,-19.46L-351.37,-50.35ZM-346.32,39.91L-370.18,41.17L-393.03,17.34L-398.65,-15.21L-383.48,-33.66L-359.61,-34.92L-336.74,-11.09L-331.13,21.45ZM-249.82,-113.85L-266.05,-105.65L-240.38,-54.82L-235.13,-26.97L-249.27,-9.38L-268.03,-8.74L-282.14,-25.71L-311.04,-82.93L-327.27,-74.74L-298.31,-17.39L-277.65,8.30L-245.54,6.28L-230.21,-6.92L-223.90,-26.23L-217.07,-12.70L-202.46,-20.08ZM-88.04,-77.87L-113.32,-207.24L-24.21,-110.11L-7.08,-118.76L-38.20,-262.83L-56.44,-258.62L-26.03,-135.22L-111.42,-229.02L-131.98,-218.63L-106.27,-94.69L-188.08,-192.13L-202.65,-179.77L-105.17,-69.22ZM65.82,-234.51L21.14,-191.58L21.70,-163.73L42.11,-147.31L68.36,-152.21L83.50,-163.95L93.19,-183.01L98.59,-172.13L113.74,-179.78L83.21,-240.28L60.77,-263.50L27.94,-258.78L5.80,-239.86L2.78,-215.36L19.64,-213.95L20.71,-232.37L32.97,-244.69L51.09,-248.04ZM73.07,-220.16L85.05,-196.42L78.65,-180.57L64.27,-166.75L50.45,-163.75L38.63,-173.19L39.43,-189.59ZM138.18,-192.13L154.41,-200.32L128.63,-251.35L123.50,-279.00L137.64,-296.59L156.40,-297.24L170.34,-280.57L199.40,-223.04L215.62,-231.24L186.57,-288.76L165.98,-314.26L133.88,-312.25L118.30,-299.53L112.26,-279.75L105.43,-293.27L90.82,-285.90ZM279.15,-261.75L279.16,-261.75L270.22,-274.79L263.50,-270.04L253.68,-270.05L246.32,-281.15L219.09,-335.06L235.14,-343.17L228.86,-355.61L212.81,-347.51L196.41,-379.96L180.18,-371.77L196.58,-339.31L183.23,-332.57L189.52,-320.13L202.86,-326.87L230.09,-272.95L245.23,-252.18L267.63,-253.75ZM399.56,-324.14L341.72,-438.64L385.36,-460.68L377.62,-476.01L273.21,-423.28L280.95,-407.95L324.59,-429.99L382.43,-315.49ZM447.70,-470.78L422.20,-441.05L428.56,-397.63L459.74,-366.75L498.79,-369.62L524.29,-399.36L517.95,-442.78L486.78,-473.67ZM491.83,-383.41L467.97,-382.15L445.13,-405.98L439.51,-438.52L454.67,-456.98L478.55,-458.24L501.41,-434.41L507.02,-401.87ZM-551.53,359.97L-501.46,334.69L-469.03,309.04L-470.31,272.51L-487.57,256.30L-513.32,255.45L-502.51,235.50L-506.61,215.81L-532.85,196.40L-569.67,206.07L-617.14,230.05ZM-571.61,277.24L-592.08,236.78L-565.75,223.48L-541.85,214.73L-523.53,227.11L-524.58,248.06L-543.10,262.84ZM-541.96,335.94L-563.86,292.51L-533.51,277.18L-508.13,269.69L-488.90,281.88L-488.65,304.43L-509.19,319.39ZM-421.73,271.96L-443.75,251.86L-374.16,216.69L-376.53,209.74L-404.62,180.81L-444.20,183.29L-469.24,212.78L-462.43,255.97L-431.71,287.09L-393.11,284.45L-370.31,263.00L-367.75,237.44L-384.37,235.93L-386.10,256.94L-399.16,270.18ZM-449.78,238.59L-450.43,211.98L-437.26,197.07L-414.91,195.59L-397.30,212.08ZM-280.32,186.95L-280.69,183.51L-222.27,154.01L-219.27,156.79L-193.34,180.81L-179.83,166.78L-291.74,65.75L-309.23,74.58L-294.71,224.77L-276.47,222.80ZM-235.60,141.50L-282.66,165.27L-290.65,89.86ZM-60.32,98.46L-100.69,99.25L-130.60,65.83L-139.04,21.58L-115.14,-10.08L-85.33,-14.29L-61.93,2.06L-50.56,-13.37L-79.87,-31.84L-122.57,-24.79L-158.17,18.56L-148.98,75.13L-108.91,116.09L-52.90,113.17L-22.05,82.84L-19.34,49.35L-38.42,48.61L-40.39,77.75ZM36.21,63.07L-29.36,-66.77L-45.59,-58.57L19.98,71.26ZM16.69,-64.44L19.31,-73.82L14.70,-83.00L5.40,-86.55L-2.94,-82.34L-5.45,-72.85L-0.83,-63.68L8.35,-60.23ZM75.88,43.03L28.52,-50.74L12.29,-42.54L59.65,51.23ZM98.48,31.62L114.75,23.40L90.25,-25.11L82.54,-51.37L96.18,-71.96L111.81,-72.52L124.20,-58.35L155.17,2.98L171.40,-5.21L143.99,-59.49L139.43,-82.93L153.01,-100.66L170.50,-100.24L181.98,-85.23L212.03,-25.73L228.26,-33.93L195.29,-99.21L176.06,-119.25L149.44,-116.42L134.57,-103.81L128.90,-83.10L112.52,-91.97L93.15,-87.88L77.98,-75.60L72.50,-56.20L65.76,-69.55L51.16,-62.17ZM276.09,-137.02L231.41,-94.09L231.97,-66.24L252.38,-49.82L278.63,-54.72L293.77,-66.46L303.46,-85.52L308.86,-74.64L324.01,-82.29L293.48,-142.79L271.04,-166.01L238.21,-161.28L216.07,-142.37L213.05,-117.87L229.91,-116.46L230.98,-134.88L243.24,-147.19L261.36,-150.55ZM283.34,-122.67L295.32,-98.93L288.92,-83.08L274.54,-69.26L260.72,-66.26L248.90,-75.70L249.70,-92.10ZM389.34,-113.71L389.35,-113.71L380.41,-126.75L373.69,-122.00L363.87,-122.01L356.51,-133.11L329.28,-187.02L345.33,-195.13L339.04,-207.57L322.99,-199.47L306.60,-231.92L290.37,-223.73L306.77,-191.27L293.42,-184.53L299.71,-172.09L313.05,-178.83L340.28,-124.91L355.42,-104.14L377.82,-105.71ZM417.69,-151.99L395.66,-172.10L465.26,-207.27L462.88,-214.22L434.79,-243.14L395.22,-240.67L370.18,-211.17L376.99,-167.98L407.71,-136.86L446.31,-139.51L469.10,-160.95L471.67,-186.51L455.05,-188.02L453.32,-167.01L440.26,-153.78ZM389.64,-185.37L388.98,-211.98L402.16,-226.89L424.51,-228.36L442.11,-211.87ZM-326.69,450.04L-283.59,428.27L-244.50,387.85L-253.52,331.14L-294.88,290.63L-351.51,299.62L-392.26,320.21ZM-317.21,426.24L-367.39,326.88L-343.76,314.95L-304.29,307.51L-271.62,340.07L-263.56,384.39L-293.04,414.04ZM-190.81,359.03L-212.84,338.92L-143.24,303.75L-145.62,296.80L-173.71,267.88L-213.28,270.35L-238.32,299.85L-231.51,343.04L-200.79,374.16L-162.19,371.51L-139.40,350.07L-136.83,324.51L-153.45,323.00L-155.18,344.01L-168.24,357.25ZM-218.86,325.65L-219.52,299.04L-206.34,284.13L-183.99,282.66L-166.39,299.15ZM-108.30,303.28L-118.83,316.69L-100.36,330.46L-68.57,324.35L-45.40,304.37L-44.60,275.77L-61.61,260.21L-81.51,260.07L-106.35,265.21L-120.97,266.48L-128.73,261.00L-128.19,249.11L-114.60,237.99L-97.88,234.58L-85.54,243.32L-75.13,229.98L-91.01,218.29L-120.98,223.82L-143.50,243.53L-143.65,270.82L-127.75,284.40L-107.56,283.94L-81.36,278.39L-67.72,278.36L-60.45,285.59L-62.20,300.14L-75.01,310.24L-95.11,313.27ZM-57.51,176.72L-54.88,167.34L-59.50,158.17L-68.80,154.61L-77.14,158.82L-79.65,168.32L-75.02,177.48L-65.84,180.94ZM1.69,284.19L-45.67,190.42L-61.90,198.62L-14.54,292.39ZM80.27,293.74L106.74,262.68L99.03,227.33L54.77,139.70L40.34,146.98L46.72,159.60L30.05,152.99L11.24,156.60L-12.08,186.09L-4.23,227.89L24.76,259.02L62.33,257.76L75.10,246.97L80.89,231.74L84.32,238.65L89.18,262.53L73.59,279.56L56.44,282.91L44.11,273.18L34.13,285.69L51.02,298.81ZM19.13,169.94L41.74,170.18L64.03,193.44L70.20,224.83L56.28,243.51L33.47,243.38L12.34,219.54L5.70,188.39ZM125.30,221.76L141.53,213.56L115.76,162.53L110.63,134.88L124.77,117.29L143.52,116.65L157.47,133.32L186.52,190.84L202.75,182.64L173.70,125.12L153.11,99.63L121.01,101.64L105.43,114.35L99.38,134.14L92.55,120.61L77.95,127.99ZM236.56,143.18L214.53,123.07L284.13,87.90L281.75,80.96L253.67,52.03L214.09,54.50L189.05,84.00L195.86,127.19L226.58,158.31L265.18,155.66L287.97,134.22L290.54,108.66L273.92,107.15L272.19,128.16L259.13,141.40ZM208.51,109.80L207.85,83.19L221.03,68.28L243.38,66.81L260.98,83.30ZM322.39,19.61L336.61,17.49L334.56,1.33L315.63,3.34L302.57,15.96L299.37,36.53L291.18,20.30L276.57,27.67L323.47,120.53L340.16,113.25L314.57,62.57L309.08,36.97ZM436.46,67.45L439.56,57.71L434.89,48.57L425.18,45.39L416.11,50.02L413.01,59.76L417.68,68.90L427.39,72.08ZM406.64,40.70L422.36,32.76L419.85,27.79L415.64,13.43L418.97,-1.77L427.01,-24.86L423.38,-50.18L398.08,-71.35L362.30,-65.95L339.93,-41.73L341.43,-12.24L358.37,-12.95L356.61,-36.74L369.89,-51.32L389.85,-54.76L406.42,-40.23L409.16,-22.89L403.68,-6.75L398.10,14.30L404.13,35.73Z" fill="#ffffff" stroke="#000000"/>
    <path d="M-762.14,260.47L-773.07,274.95L-744.08,295.13L-700.07,284.36L-673.43,256.94L-674.82,219.68L-696.30,202.27L-725.65,203.46L-767.60,213.29L-779.82,212.32L-787.90,205.01L-787.98,183.81L-771.73,168.05L-746.29,162.77L-726.86,177.13L-715.44,163.09L-741.34,144.62L-780.56,154.33L-805.31,180.37L-803.61,215.40L-789.40,229.76L-760.05,230.87L-717.83,220.33L-702.32,221.77L-692.41,230.91L-690.83,251.93L-708.90,270.63L-738.11,277.16ZM-653.12,127.92L-676.78,158.60L-668.27,201.15L-635.89,230.06L-597.46,225.21L-573.80,194.53L-582.30,151.97L-614.68,123.06ZM-605.05,211.95L-628.55,214.42L-652.34,192.06L-659.56,160.20L-645.53,141.20L-622.01,138.72L-598.21,161.09L-591.00,192.94ZM-436.30,128.29L-466.36,75.74L-459.79,-14.57L-478.01,-15.44L-481.76,66.14L-554.67,28.41L-564.02,45.06L-482.84,85.17L-452.77,137.72ZM-391.43,-21.80L-415.09,8.88L-406.58,51.44L-374.20,80.34L-335.77,75.49L-312.11,44.81L-320.60,2.25L-352.98,-26.65ZM-343.35,62.23L-366.85,64.70L-390.64,42.34L-397.86,10.49L-383.83,-8.52L-360.31,-10.99L-336.51,11.37L-329.30,43.22ZM-255.94,-94.59L-271.55,-85.66L-243.58,-36.77L-236.97,-9.53L-250.02,8.57L-268.52,10.17L-283.33,-5.87L-314.81,-60.91L-330.42,-51.98L-298.87,3.17L-277.15,27.48L-245.54,23.84L-231.07,10.02L-225.84,-9.38L-218.39,3.63L-204.35,-4.41ZM-94.31,-67.36L-125.92,-193.83L-32.91,-102.49L-16.44,-111.91L-54.57,-252.60L-72.37,-247.51L-36.00,-127.19L-125.16,-215.44L-144.93,-204.13L-113.17,-83.04L-198.97,-175.08L-212.74,-162.12L-110.78,-57.94ZM49.62,-229.98L7.69,-185.28L9.67,-157.80L30.68,-142.64L56.35,-148.82L70.70,-161.20L79.29,-180.52L85.19,-170.05L99.76,-178.39L66.50,-236.57L43.14,-258.35L10.95,-252.00L-9.94,-232.18L-11.67,-207.83L5.06,-207.30L5.17,-225.55L16.65,-238.34L34.37,-242.59ZM57.51,-216.18L70.56,-193.34L65.06,-177.36L51.56,-162.98L38.07,-159.30L25.91,-168.01L25.86,-184.25ZM123.26,-191.83L138.87,-200.76L110.79,-249.84L104.30,-276.88L117.36,-294.98L135.85,-296.59L150.48,-280.84L182.13,-225.51L197.74,-234.44L166.09,-289.77L144.45,-313.89L112.84,-310.25L98.11,-296.89L93.16,-277.04L85.71,-290.05L71.67,-282.01ZM258.92,-267.84L258.92,-267.84L249.43,-280.26L243.04,-275.22L233.34,-274.73L225.50,-285.31L195.83,-337.16L211.27,-345.99L204.42,-357.96L188.99,-349.13L171.13,-380.35L155.52,-371.42L173.38,-340.20L160.54,-332.86L167.39,-320.89L180.22,-328.23L209.89,-276.38L225.91,-256.64L247.95,-259.35ZM374.64,-335.64L311.63,-445.77L353.60,-469.78L345.17,-484.52L244.76,-427.07L253.19,-412.33L295.16,-436.34L358.16,-326.22ZM414.65,-482.95L390.99,-452.28L399.50,-409.72L431.88,-380.82L470.31,-385.67L493.97,-416.35L485.48,-458.91L453.10,-487.81ZM462.73,-398.92L439.23,-396.45L415.44,-418.82L408.22,-450.67L422.25,-469.68L445.76,-472.15L469.57,-449.79L476.78,-417.94ZM-529.58,388.89L-481.44,361.35L-450.72,334.35L-453.86,298.34L-471.74,283.21L-497.21,283.69L-487.57,263.43L-492.62,244.20L-519.54,226.38L-555.41,237.82L-601.07,263.94ZM-553.67,308.21L-575.97,269.30L-550.65,254.82L-527.48,244.94L-508.76,256.23L-508.71,276.98L-526.25,292.53ZM-521.37,364.67L-545.23,322.90L-516.04,306.20L-491.36,297.49L-471.74,308.55L-470.33,330.81L-489.85,346.64ZM-405.90,295.30L-428.69,276.57L-361.76,238.26L-364.47,231.52L-393.69,204.40L-432.66,208.87L-455.87,239.29L-446.92,281.60L-414.99,310.76L-377.00,306.16L-355.59,283.81L-354.37,258.43L-370.86,257.80L-371.49,278.64L-383.71,292.38ZM-435.33,263.78L-437.34,237.53L-425.09,222.13L-403.10,219.52L-384.86,234.90ZM-270.60,204.07L-271.15,200.70L-214.96,168.55L-211.86,171.15L-185.01,193.54L-172.39,178.99L-288.11,84.95L-304.93,94.57L-282.88,242.16L-264.96,239.28ZM-228.77,156.88L-274.04,182.78L-285.79,108.71ZM-57.87,105.37L-97.69,108.22L-128.96,76.75L-139.56,33.48L-117.59,0.99L-88.36,-4.70L-64.41,10.24L-53.97,-5.58L-83.87,-22.32L-125.68,-13.16L-158.61,31.48L-146.63,86.89L-104.95,125.28L-49.78,119.51L-20.87,87.98L-19.91,54.76L-38.80,55.01L-39.25,83.89ZM35.66,65.45L-35.78,-59.41L-51.39,-50.48L20.05,74.38ZM9.83,-59.48L11.94,-68.88L6.90,-77.71L-2.46,-80.74L-10.48,-76.15L-12.47,-66.64L-7.44,-57.83L1.81,-54.89ZM73.81,43.63L22.22,-46.55L6.61,-37.63L58.20,52.56ZM95.54,31.19L111.19,22.24L84.50,-24.41L75.54,-49.95L87.95,-70.99L103.36,-72.35L116.32,-58.98L150.07,-0.00L165.68,-8.93L135.81,-61.13L130.11,-84.05L142.61,-102.26L159.91,-102.74L172.01,-88.50L204.75,-31.28L220.35,-40.21L184.44,-102.99L164.42,-121.80L138.27,-117.63L124.23,-104.41L119.69,-83.67L103.07,-91.59L84.14,-86.56L69.79,-73.65L65.38,-54.21L58.03,-67.05L43.99,-59.01ZM262.31,-144.49L220.37,-99.79L222.36,-72.31L243.36,-57.15L269.04,-63.33L283.39,-75.71L291.98,-95.03L297.88,-84.56L312.44,-92.90L279.18,-151.08L255.83,-172.86L223.64,-166.51L202.75,-146.69L201.02,-122.34L217.75,-121.81L217.86,-140.06L229.34,-152.85L247.06,-157.10ZM270.20,-130.69L283.25,-107.85L277.75,-91.87L264.25,-77.49L250.76,-73.81L238.60,-82.52L238.55,-98.76ZM375.36,-127.28L375.36,-127.29L365.86,-139.71L359.47,-134.66L349.77,-134.17L341.93,-144.75L312.27,-196.61L327.70,-205.44L320.86,-217.41L305.42,-208.58L287.56,-239.79L271.95,-230.86L289.81,-199.65L276.98,-192.30L283.83,-180.34L296.66,-187.68L326.32,-135.83L342.34,-116.09L364.38,-118.79ZM401.39,-166.55L378.60,-185.28L445.53,-223.59L442.83,-230.33L413.60,-257.46L374.64,-252.98L351.42,-222.56L360.37,-180.25L392.31,-151.10L430.29,-155.69L451.71,-178.04L452.93,-203.42L436.43,-204.05L435.81,-183.21L423.58,-169.47ZM371.97,-198.08L369.95,-224.32L382.20,-239.73L404.20,-242.33L422.43,-226.95ZM-302.89,466.30L-261.44,442.59L-224.91,400.66L-236.73,345.11L-279.66,307.22L-335.13,319.01L-374.32,341.44ZM-294.75,442.31L-349.41,346.75L-326.70,333.76L-288.09,324.38L-254.15,354.86L-243.91,398.21L-271.51,429.01ZM-173.36,369.43L-196.15,350.70L-129.22,312.39L-131.92,305.65L-161.15,278.52L-200.11,283.00L-223.33,313.42L-214.38,355.73L-182.44,384.89L-144.46,380.29L-123.04,357.94L-121.82,332.56L-138.31,331.93L-138.94,352.77L-151.16,366.51ZM-202.78,337.91L-204.80,311.66L-192.55,296.26L-170.55,293.65L-152.32,309.03ZM-94.73,310.13L-104.45,323.92L-85.49,336.56L-54.41,328.90L-32.55,307.97L-33.23,279.69L-50.83,265.20L-70.49,266.08L-94.77,272.43L-109.13,274.43L-117.09,269.42L-117.15,257.65L-104.31,245.97L-87.97,241.74L-75.33,249.74L-65.74,236.03L-82.02,225.30L-111.34,232.30L-132.56,252.92L-131.32,279.89L-114.91,292.48L-94.99,290.99L-69.41,284.16L-55.93,283.43L-48.39,290.20L-49.36,304.66L-61.49,315.30L-81.20,319.32ZM-51.07,182.53L-48.96,173.12L-53.99,164.30L-63.35,161.27L-71.37,165.85L-73.36,175.36L-68.33,184.17L-59.08,187.11ZM12.92,285.63L-38.67,195.45L-54.28,204.38L-2.69,294.56ZM91.02,291.02L115.57,258.99L106.14,224.47L57.92,140.19L44.05,148.12L51.00,160.26L34.19,154.59L15.80,159.12L-5.72,189.44L4.18,230.33L34.41,259.58L71.45,256.41L83.52,245.09L88.45,229.76L92.19,236.40L98.22,259.74L83.70,277.36L66.93,281.55L54.25,272.57L45.04,285.44L62.40,297.53ZM24.28,171.89L46.62,170.96L69.83,192.79L77.54,223.48L64.75,242.64L42.21,243.68L20.12,221.23L11.96,190.80ZM131.81,217.61L147.41,208.69L119.34,159.61L112.85,132.56L125.91,114.46L144.40,112.86L159.03,128.61L190.68,183.93L206.29,175.00L174.64,119.68L152.99,95.56L121.39,99.19L106.66,112.55L101.70,132.40L94.26,119.40L80.21,127.43ZM237.66,134.29L214.87,115.56L281.80,77.25L279.10,70.51L249.87,43.38L210.90,47.86L187.69,78.28L196.64,120.59L228.58,149.74L266.56,145.15L287.97,122.80L289.19,97.42L272.70,96.78L272.07,117.62L259.85,131.37ZM208.23,102.76L206.22,76.52L218.47,61.11L240.46,58.51L258.70,73.89ZM316.08,7.83L330.01,5.01L327.16,-10.85L308.57,-7.89L296.31,5.25L294.21,25.72L285.28,10.11L271.24,18.15L322.33,107.45L338.44,99.40L310.56,50.67L303.82,25.66ZM431.20,49.22L433.76,39.44L428.68,30.66L418.92,28.01L410.21,33.05L407.64,42.83L412.72,51.62L422.48,54.27ZM400.37,24.33L415.49,15.68L412.76,10.90L407.86,-3.06L410.37,-18.25L417.13,-41.47L412.24,-66.28L386.16,-85.90L351.10,-78.73L330.25,-53.65L333.24,-24.60L349.94,-26.18L346.98,-49.59L359.34,-64.66L378.89,-69.09L396.00,-55.58L399.60,-38.60L395.01,-22.38L390.58,-1.30L397.64,19.55Z" fill="#ffffff" stroke="#000000"/>
    <path d="M-906.35,492L-906.35,469.28L-898.22,492L-894.99,492L-886.86,469.28L-886.86,492L-883.25,492L-883.25,464.64L-888.22,464.64L-896.55,487.33L-904.68,464.64L-909.96,464.64L-909.96,492ZM-865.67,478.75L-876.82,482.17L-879.09,486.89L-877.05,491.38L-872.23,492.78L-868.69,492.09L-865.45,489.71L-865.46,492L-862.27,492L-862.27,479.25L-864.06,473.45L-869.98,471.46L-875.30,472.76L-877.88,476.62L-875.17,478.28L-873.43,475.28L-870.33,474.25L-867.00,475.23ZM-865.67,481.77L-865.68,486.77L-868.09,488.89L-871.68,489.99L-874.26,489.33L-875.44,486.74L-873.91,484.05ZM-857.12,492L-853.70,492L-853.70,481.25L-852.22,476.17L-848.35,474.41L-845.15,475.90L-844.22,479.88L-844.22,492L-840.80,492L-840.80,479.88L-842.09,473.85L-847.66,471.47L-851.35,472.28L-854.04,475.09L-854.04,472.24L-857.12,472.24ZM-833.34,468.94L-832.11,467.58L-832.10,465.65L-833.36,464.27L-835.12,464.27L-836.35,465.65L-836.35,467.58L-835.10,468.94ZM-832.52,492L-832.52,472.24L-835.94,472.24L-835.94,492ZM-818.31,468.12L-817.85,465.29L-820.94,464.71L-825.30,466.41L-826.70,471.29L-826.70,472.24L-829.67,472.24L-829.67,474.86L-826.70,474.86L-826.70,492L-823.40,492L-823.40,474.86L-819.56,474.86L-819.56,472.24L-823.40,472.24L-823.40,471.21L-822.75,468.65L-820.52,467.74ZM-807.97,471.46L-814.77,474.29L-817.39,482.12L-814.77,489.95L-807.97,492.78L-801.17,489.95L-798.55,482.12L-801.16,474.29ZM-807.97,489.87L-812.08,488.06L-813.90,482.12L-812.08,476.18L-807.97,474.37L-803.85,476.18L-802.04,482.12L-803.85,488.06ZM-795.03,492L-791.61,492L-791.61,481.25L-790.13,476.17L-786.26,474.41L-783.06,475.90L-782.13,479.88L-782.13,492L-778.71,492L-778.71,479.88L-780.00,473.85L-785.56,471.47L-789.26,472.28L-791.95,475.09L-791.95,472.24L-795.03,472.24ZM-765.45,492.27L-765.45,492.26L-765.85,489.32L-767.38,489.55L-769.03,488.71L-769.32,486.22L-769.32,474.86L-765.94,474.86L-765.94,472.24L-769.32,472.24L-769.32,465.40L-772.74,465.40L-772.74,472.24L-775.55,472.24L-775.55,474.86L-772.74,474.86L-772.74,486.22L-771.96,491.00L-768.07,492.63ZM-737.50,487.93L-737.50,478.13L-749.05,478.13L-749.05,481.31L-740.99,481.31L-740.97,486.22L-748.63,489.75L-755.95,486.41L-758.55,478.32L-756.06,470.17L-749.21,466.88L-744.27,468.25L-741.30,473.01L-738.24,471.11L-741.44,465.93L-749.13,463.79L-758.98,468.04L-762.42,478.32L-758.78,488.60L-748.74,492.86ZM-724.35,474.77L-721.78,475.62L-720.76,472.73L-724.11,471.47L-727.37,472.48L-729.65,475.66L-729.65,472.24L-732.73,472.24L-732.73,491.81L-729.31,492L-729.31,481.32L-728.06,476.56ZM-710.01,471.46L-716.81,474.29L-719.42,482.12L-716.81,489.95L-710.01,492.78L-703.20,489.95L-700.58,482.12L-703.20,474.29ZM-710.01,489.87L-714.12,488.06L-715.93,482.12L-714.12,476.18L-710.01,474.37L-705.89,476.18L-704.07,482.12L-705.89,488.06ZM-688.58,492.27L-688.58,492.26L-688.97,489.32L-690.51,489.55L-692.15,488.71L-692.45,486.22L-692.45,474.86L-689.07,474.86L-689.07,472.24L-692.45,472.24L-692.45,465.40L-695.87,465.40L-695.87,472.24L-698.68,472.24L-698.68,474.86L-695.87,474.86L-695.87,486.22L-695.09,491.00L-691.19,492.63ZM-680.57,488.24L-682.57,483.00L-667.90,482.99L-667.71,481.63L-669.97,474.39L-676.83,471.45L-683.53,474.28L-686.05,482.11L-683.53,489.93L-676.83,492.76L-671.18,491.10L-668.58,487.02L-671.25,485.36L-673.32,488.74L-676.63,489.86ZM-682.45,480.26L-680.31,475.73L-676.83,474.35L-672.95,476.00L-671.40,480.26ZM-661.99,485.88L-664.90,487.24L-662.96,491.11L-657.11,492.78L-651.52,491.39L-648.97,486.66L-650.50,482.61L-653.83,480.90L-658.44,479.65L-661.00,478.62L-661.84,477.05L-660.74,475.10L-657.52,474.38L-654.42,475.23L-653.09,477.74L-650.21,476.38L-651.88,473.07L-657.39,471.46L-662.84,472.86L-665.18,477.43L-663.66,481.06L-660.23,482.69L-655.36,483.98L-653.07,485.13L-652.46,486.96L-653.99,489.26L-656.99,489.87L-660.63,488.67ZM-641.92,483.45L-638.72,483.45L-637.20,484.67L-633.14,492.30L-630.05,490.63L-634.16,483.45L-636.67,482.04L-634.62,480.06L-632.77,476.14L-631.66,475.64L-630.10,475.39L-630.56,472.24L-633.40,472.52L-635.30,474.17L-637.43,478.82L-638.72,480.60L-641.91,480.60L-641.91,464.64L-643.66,464.64L-645.32,464.64L-645.33,492L-641.92,492ZM-625.58,492.01L-615.04,492.01L-607.42,490.45L-604.53,484.21L-606.06,480.03L-610.31,477.70L-606.80,475.27L-605.82,471.62L-608.58,466.13L-615.58,464.63L-625.58,464.63ZM-621.94,476.42L-621.95,467.89L-616.40,467.89L-611.64,468.44L-609.62,472.08L-611.57,475.51L-615.93,476.42ZM-621.94,488.79L-621.94,479.64L-615.54,479.64L-610.64,480.53L-608.45,484.21L-610.32,488.02L-615.04,488.79ZM-592.40,471.46L-599.20,474.29L-601.81,482.12L-599.20,489.95L-592.40,492.78L-585.59,489.95L-582.97,482.12L-585.59,474.29ZM-592.40,489.87L-596.51,488.06L-598.32,482.12L-596.51,476.18L-592.40,474.37L-588.28,476.18L-586.46,482.12L-588.28,488.06ZM-571.27,471.46L-578.07,474.29L-580.68,482.12L-578.07,489.95L-571.27,492.78L-564.46,489.95L-561.85,482.12L-564.46,474.29ZM-571.27,489.87L-575.38,488.06L-577.19,482.12L-575.38,476.18L-571.27,474.37L-567.15,476.18L-565.33,482.12L-567.15,488.06ZM-554.82,483.45L-551.62,483.45L-550.10,484.67L-546.04,492.30L-542.96,490.63L-547.06,483.45L-549.57,482.04L-547.52,480.06L-545.67,476.14L-544.56,475.64L-543.00,475.39L-543.46,472.24L-546.31,472.52L-548.20,474.17L-550.34,478.82L-551.62,480.60L-554.82,480.60L-554.82,464.64L-556.56,464.64L-558.23,464.64L-558.23,492L-554.82,492Z"/>
</svg>