<?xml version="1.0"?>
<svg xmlns="http://www.w3.org/2000/svg" width="1920" height="1080" viewBox="-960 -540 1920 1080">
    <path d="M-297.92,-147L-273.28,-310.17L-243.98,-310.17L-219.34,-147L-242.65,-147L-247.09,-180.30L-270.17,-180.30L-274.61,-147ZM-257.30,-257.11L-257.96,-261.33L-259.30,-261.33L-259.96,-257.11L-266.84,-205.61L-250.42,-205.61ZM-185.81,-147L-208.24,-147L-208.24,-268.43L-185.81,-268.43L-185.81,-258.22C-185.37,-258.44 -184.48,-259.33 -183.15,-260.66C-180.71,-263.11 -177.38,-266.44 -173.38,-268.66C-171.38,-269.77 -169.61,-270.21 -167.61,-270.21C-161.62,-270.21 -157.40,-266.66 -154.73,-262.22C-152.07,-257.56 -150.74,-251.56 -150.74,-246.46L-150.74,-147L-173.16,-147L-173.16,-243.13C-173.16,-247.79 -175.82,-248.45 -178.49,-248.45C-180.93,-248.45 -182.26,-247.12 -183.82,-245.57C-184.48,-244.68 -185.15,-243.79 -185.81,-242.68ZM-99.23,-310.17L-44.40,-310.17L-44.40,-285.53L-75.26,-285.53L-75.26,-242.68L-53.06,-242.68L-53.06,-216.49L-75.26,-216.49L-75.26,-171.64L-44.40,-171.64L-44.40,-147L-99.23,-147ZM-8.66,-147L-31.08,-147L-31.08,-268.43L-8.66,-268.43L-8.66,-258.22C-8.21,-258.44 -7.33,-259.33 -5.99,-260.66C-3.55,-263.11 -0.22,-266.44 3.77,-268.66C5.77,-269.77 7.55,-270.21 9.55,-270.21C15.54,-270.21 19.76,-266.66 22.42,-262.22C25.09,-257.56 26.42,-251.56 26.42,-246.46L26.42,-147L4.00,-147L4.00,-243.13C4.00,-247.79 1.33,-248.45 -1.33,-248.45C-3.77,-248.45 -5.11,-247.12 -6.66,-245.57C-7.33,-244.68 -7.99,-243.79 -8.66,-242.68ZM100.34,-147L77.92,-147L77.92,-154.99C74.15,-151.44 70.82,-148.78 66.60,-146.78C64.38,-145.67 62.16,-145.22 60.16,-145.22C53.95,-145.22 49.73,-148.78 47.06,-153.44C44.18,-157.88 42.85,-163.87 42.85,-168.98L42.85,-246.46C42.85,-251.56 44.18,-257.56 47.06,-262.22C49.73,-266.66 53.95,-270.21 60.16,-270.21C64.38,-270.21 68.82,-267.77 72.15,-265.33C74.15,-263.77 75.92,-262.22 77.92,-260.44L77.92,-310.17L100.34,-310.17ZM77.92,-241.79C77.92,-245.35 74.59,-249.12 71.26,-249.12C67.93,-249.12 65.27,-246.01 65.27,-241.79L65.27,-173.64C65.27,-169.42 67.93,-166.31 71.26,-166.31C74.59,-166.31 77.92,-169.42 77.92,-173.64ZM118.10,-310.17L140.53,-310.17L140.53,-287.75L118.10,-287.75ZM118.10,-147L118.10,-268.43L140.53,-268.43L140.53,-147ZM180.71,-147L158.29,-147L158.29,-268.43L180.71,-268.43L180.71,-258.22C181.15,-258.44 182.04,-259.33 183.37,-260.66C185.81,-263.11 189.14,-266.44 193.14,-268.66C195.14,-269.77 196.91,-270.21 198.91,-270.21C204.91,-270.21 209.12,-266.66 211.79,-262.22C214.45,-257.56 215.78,-251.56 215.78,-246.46L215.78,-147L193.36,-147L193.36,-243.13C193.36,-247.79 190.70,-248.45 188.03,-248.45C185.59,-248.45 184.26,-247.12 182.71,-245.57C182.04,-244.68 181.37,-243.79 180.71,-242.68ZM287.93,-205.61C287.27,-194.29 283.27,-186.29 275.50,-180.30C271.51,-177.19 265.96,-175.64 259.07,-175.64C258.41,-175.64 257.74,-175.64 257.08,-175.64C256.41,-175.64 255.52,-175.64 254.86,-175.86C252.86,-174.08 251.75,-172.31 251.75,-170.31C251.75,-167.65 253.97,-166.09 257.30,-165.20C260.63,-164.09 264.62,-163.43 268.84,-162.76C275.95,-161.87 283.49,-160.10 289.71,-155.88C295.70,-151.66 299.92,-145.22 299.92,-134.57C299.92,-122.80 294.82,-114.81 287.71,-110.15C280.39,-105.49 270.62,-103.49 261.52,-103.49C250.86,-103.71 241.76,-105.26 235.54,-108.82C229.10,-112.37 225.55,-118.14 225.55,-127.02C225.55,-131.24 227.77,-134.79 231.10,-137.90C234.43,-141.01 238.87,-143.45 243.09,-145.45C235.76,-147.44 229.55,-152.11 229.55,-161.65C229.55,-165.20 231.55,-168.76 234.21,-172.09C236.87,-175.42 240.20,-178.08 243.53,-179.86C237.10,-184.07 233.99,-190.73 232.43,-196.28C231.55,-199.61 230.88,-202.94 230.66,-206.27L230.66,-239.35C231.55,-250.67 235.10,-258.89 242.87,-265.33C246.64,-268.66 252.19,-270.21 259.07,-270.21C270.40,-270.21 277.28,-265.10 281.50,-259.11C283.05,-260.66 285.71,-263.33 289.27,-265.77C292.60,-268.21 296.37,-270.21 299.92,-270.21L299.92,-250.23C293.93,-250.23 289.49,-249.12 286.82,-247.57C287.05,-246.46 287.27,-245.35 287.49,-244.68C287.49,-243.79 287.49,-242.90 287.71,-242.24C287.93,-241.57 287.93,-240.68 287.93,-240.02ZM265.96,-238.46C265.96,-242.68 265.07,-245.35 263.29,-247.79C262.40,-248.90 261.07,-249.56 259.07,-249.56C255.52,-249.56 253.75,-246.68 253.08,-244.01C252.64,-242.46 252.41,-240.46 252.64,-238.46L252.64,-205.16C252.41,-200.95 253.08,-198.28 255.08,-196.06C255.97,-194.95 257.30,-194.29 259.07,-194.29C262.85,-194.29 264.40,-196.95 265.29,-199.61C265.73,-201.17 265.96,-203.17 265.96,-205.16ZM255.52,-141.45C250.86,-138.79 247.31,-135.46 247.31,-130.79C247.31,-126.13 251.53,-122.36 261.96,-122.36C265.73,-122.36 269.95,-123.02 273.28,-124.36C276.61,-125.69 279.05,-127.69 279.05,-130.57C279.05,-132.57 278.83,-134.12 277.28,-135.68C275.50,-137.23 272.62,-138.34 267.07,-139.23Z" fill="#ffffff" stroke="#000000"/>
    <path d="M-295.52,-153.38L-265.28,-313.93L-236.29,-312.87L-217.77,-150.56L-240.83,-151.39L-244.02,-184.50L-266.87,-185.33L-272.46,-152.54ZM-251.37,-260.86L-251.88,-265.06L-253.20,-265.10L-254.01,-260.95L-262.66,-210.25L-246.41,-209.66ZM-184.60,-149.35L-206.78,-150.16L-202.42,-270.30L-180.24,-269.49L-180.61,-259.39C-180.16,-259.59 -179.25,-260.44 -177.88,-261.71C-175.38,-264.04 -171.97,-267.21 -167.93,-269.27C-165.92,-270.29 -164.14,-270.67 -162.17,-270.60C-156.24,-270.38 -152.19,-266.72 -149.72,-262.23C-147.25,-257.52 -146.14,-251.54 -146.33,-246.49L-149.90,-148.09L-172.08,-148.90L-168.63,-244.00C-168.46,-248.61 -171.07,-249.37 -173.71,-249.46C-176.13,-249.55 -177.49,-248.28 -179.09,-246.80C-179.78,-245.94 -180.47,-245.09 -181.17,-244.02ZM-93.08,-307.68L-38.83,-305.71L-39.72,-281.33L-70.25,-282.44L-71.79,-240.05L-49.82,-239.25L-50.76,-213.33L-72.73,-214.13L-74.34,-169.76L-43.81,-168.66L-44.69,-144.28L-98.94,-146.24ZM-9.33,-142.99L-31.52,-143.80L-27.16,-263.94L-4.97,-263.13L-5.34,-253.03C-4.89,-253.23 -3.98,-254.08 -2.62,-255.35C-0.11,-257.68 3.30,-260.85 7.34,-262.91C9.35,-263.93 11.13,-264.31 13.10,-264.24C19.03,-264.02 23.08,-260.36 25.55,-255.87C28.02,-251.16 29.12,-245.18 28.94,-240.13L25.37,-141.73L3.19,-142.54L6.64,-237.64C6.81,-242.25 4.19,-243.01 1.56,-243.10C-0.86,-243.19 -2.22,-241.92 -3.82,-240.44C-4.51,-239.58 -5.20,-238.73 -5.90,-237.66ZM98.51,-139.08L76.33,-139.88L76.61,-147.79C72.75,-144.41 69.36,-141.90 65.12,-140.07C62.88,-139.05 60.67,-138.69 58.69,-138.76C52.54,-138.99 48.50,-142.65 46.03,-147.36C43.33,-151.86 42.23,-157.84 42.41,-162.89L45.19,-239.54C45.38,-244.59 46.91,-250.47 49.93,-254.98C52.73,-259.28 57.03,-262.64 63.18,-262.42C67.35,-262.27 71.66,-259.69 74.86,-257.16C76.78,-255.55 78.49,-253.95 80.40,-252.12L82.18,-301.32L104.37,-300.51ZM79.73,-233.67C79.86,-237.18 76.70,-241.04 73.40,-241.16C70.11,-241.27 67.36,-238.30 67.21,-234.12L64.76,-166.69C64.61,-162.52 67.14,-159.35 70.43,-159.23C73.72,-159.11 77.13,-162.07 77.28,-166.24ZM121.94,-299.87L144.12,-299.07L143.32,-276.89L121.13,-277.69ZM116.08,-138.44L120.44,-258.58L142.62,-257.78L138.26,-137.64ZM178.02,-136.19L155.83,-137.00L160.19,-257.14L182.38,-256.33L182.01,-246.23C182.46,-246.43 183.37,-247.28 184.73,-248.55C187.24,-250.88 190.65,-254.05 194.68,-256.11C196.70,-257.13 198.47,-257.51 200.45,-257.44C206.38,-257.22 210.43,-253.56 212.90,-249.07C215.37,-244.36 216.47,-238.38 216.29,-233.33L212.72,-134.93L190.54,-135.74L193.99,-230.84C194.15,-235.45 191.54,-236.21 188.91,-236.30C186.49,-236.39 185.13,-235.12 183.53,-233.64C182.84,-232.79 182.15,-231.93 181.45,-230.86ZM286.21,-190.33C285.14,-179.15 280.90,-171.39 273.00,-165.74C268.93,-162.80 263.39,-161.47 256.58,-161.71C255.92,-161.74 255.26,-161.76 254.60,-161.78C253.94,-161.81 253.06,-161.84 252.41,-162.08C250.37,-160.40 249.21,-158.68 249.14,-156.70C249.04,-154.07 251.18,-152.45 254.44,-151.45C257.70,-150.24 261.63,-149.43 265.78,-148.62C272.77,-147.49 280.18,-145.46 286.18,-141.07C291.96,-136.68 295.90,-130.16 295.52,-119.61C295.09,-107.97 289.75,-100.25 282.56,-95.89C275.14,-91.54 265.41,-89.92 256.40,-90.24C245.87,-90.85 236.92,-92.71 230.90,-96.45C224.65,-100.19 221.35,-106.03 221.67,-114.82C221.82,-118.99 224.14,-122.42 227.55,-125.38C230.95,-128.33 235.43,-130.59 239.68,-132.42C232.50,-134.66 226.52,-139.49 226.86,-148.94C226.99,-152.45 229.09,-155.89 231.85,-159.09C234.61,-162.29 238.00,-164.81 241.35,-166.44C235.14,-170.85 232.30,-177.55 230.96,-183.10C230.20,-186.42 229.66,-189.74 229.56,-193.04L230.75,-225.77C232.04,-236.94 235.84,-244.94 243.76,-251.03C247.62,-254.19 253.16,-255.52 259.97,-255.28C271.17,-254.87 277.80,-249.57 281.76,-243.49C283.35,-244.97 286.08,-247.51 289.68,-249.80C293.07,-252.10 296.87,-253.94 300.38,-253.81L299.67,-234.04C293.74,-234.26 289.30,-233.32 286.61,-231.88C286.79,-230.77 286.97,-229.67 287.17,-229.00C287.14,-228.12 287.11,-227.24 287.30,-226.58C287.50,-225.91 287.46,-225.03 287.44,-224.37ZM265.64,-223.62C265.79,-227.80 265.01,-230.46 263.34,-232.94C262.50,-234.07 261.21,-234.78 259.23,-234.85C255.72,-234.98 253.86,-232.19 253.10,-229.58C252.61,-228.05 252.31,-226.09 252.46,-224.10L251.27,-191.16C250.90,-186.99 251.46,-184.33 253.36,-182.06C254.20,-180.93 255.49,-180.23 257.25,-180.16C260.98,-180.03 262.61,-182.61 263.59,-185.21C264.08,-186.73 264.37,-188.70 264.45,-190.68ZM251.84,-128.02C247.13,-125.55 243.49,-122.38 243.33,-117.77C243.16,-113.16 247.20,-109.27 257.52,-108.90C261.25,-108.76 265.45,-109.27 268.79,-110.47C272.13,-111.67 274.62,-113.55 274.73,-116.41C274.80,-118.39 274.63,-119.93 273.15,-121.53C271.45,-123.13 268.64,-124.33 263.18,-125.41Z" fill="#ffffff" stroke="#000000"/>
    <path d="M-292.91,-159.83L-257.23,-317.57L-228.59,-315.49L-216.10,-154.25L-238.88,-155.90L-240.86,-188.77L-263.42,-190.41L-270.13,-158.18ZM-245.38,-264.57L-245.73,-268.74L-247.03,-268.84L-247.98,-264.76L-258.37,-214.91L-242.31,-213.74ZM-183.33,-151.87L-205.25,-153.46L-196.62,-272.15L-174.71,-270.56L-175.43,-260.58C-174.98,-260.76 -174.05,-261.57 -172.65,-262.78C-170.09,-264.99 -166.60,-268.01 -162.54,-269.89C-160.51,-270.84 -158.74,-271.14 -156.79,-271.00C-150.93,-270.58 -147.06,-266.81 -144.77,-262.28C-142.50,-257.53 -141.62,-251.58 -141.98,-246.59L-149.05,-149.38L-170.96,-150.97L-164.14,-244.92C-163.80,-249.48 -166.36,-250.32 -168.96,-250.51C-171.35,-250.68 -172.75,-249.48 -174.38,-248.07C-175.09,-247.25 -175.81,-246.43 -176.54,-245.39ZM-87.12,-305.20L-33.52,-301.31L-35.27,-277.22L-65.43,-279.42L-68.48,-237.54L-46.78,-235.96L-48.64,-210.35L-70.34,-211.93L-73.52,-168.10L-43.36,-165.91L-45.11,-141.82L-98.71,-145.72ZM-10.18,-139.28L-32.09,-140.88L-23.47,-259.57L-1.55,-257.98L-2.28,-247.99C-1.83,-248.18 -0.89,-248.99 0.50,-250.19C3.06,-252.41 6.55,-255.42 10.62,-257.31C12.65,-258.25 14.42,-258.56 16.37,-258.42C22.23,-257.99 26.10,-254.22 28.39,-249.69C30.66,-244.95 31.54,-238.99 31.17,-234.00L24.11,-136.79L2.19,-138.39L9.02,-232.34C9.35,-236.90 6.80,-237.74 4.19,-237.93C1.80,-238.10 0.41,-236.89 -1.22,-235.48C-1.94,-234.66 -2.65,-233.84 -3.38,-232.81ZM96.37,-131.54L74.45,-133.13L75.02,-140.95C71.08,-137.74 67.63,-135.37 63.37,-133.72C61.12,-132.79 58.92,-132.52 56.96,-132.66C50.89,-133.10 47.02,-136.87 44.75,-141.62C42.24,-146.16 41.36,-152.12 41.73,-157.11L47.23,-232.84C47.59,-237.83 49.32,-243.59 52.47,-247.94C55.39,-252.09 59.77,-255.27 65.84,-254.82C69.97,-254.52 74.13,-251.82 77.21,-249.20C79.06,-247.54 80.68,-245.89 82.51,-244.01L86.04,-292.62L107.96,-291.03ZM81.18,-225.79C81.44,-229.26 78.45,-233.18 75.19,-233.42C71.94,-233.66 69.11,-230.81 68.81,-226.69L63.97,-160.07C63.67,-155.95 66.06,-152.72 69.31,-152.48C72.57,-152.25 76.04,-155.05 76.34,-159.17ZM125.31,-289.77L147.23,-288.17L145.64,-266.26L123.72,-267.85ZM113.72,-130.28L122.35,-248.97L144.27,-247.38L135.64,-128.69ZM174.91,-125.83L153.00,-127.43L161.62,-246.12L183.54,-244.52L182.82,-234.54C183.26,-234.73 184.20,-235.53 185.59,-236.74C188.15,-238.95 191.64,-241.97 195.71,-243.86C197.74,-244.80 199.51,-245.11 201.46,-244.97C207.32,-244.54 211.19,-240.77 213.48,-236.24C215.75,-231.50 216.63,-225.54 216.26,-220.55L209.20,-123.34L187.28,-124.93L194.11,-218.89C194.44,-223.45 191.89,-224.29 189.28,-224.48C186.90,-224.65 185.50,-223.44 183.87,-222.03C183.16,-221.21 182.44,-220.39 181.71,-219.35ZM283.88,-175.50C282.43,-164.48 277.95,-156.95 269.93,-151.65C265.81,-148.89 260.27,-147.77 253.55,-148.26C252.89,-148.30 252.24,-148.35 251.59,-148.40C250.94,-148.45 250.07,-148.51 249.44,-148.77C247.36,-147.18 246.15,-145.52 246.01,-143.57C245.82,-140.97 247.88,-139.29 251.07,-138.19C254.24,-136.86 258.10,-135.93 262.18,-134.98C269.06,-133.61 276.31,-131.33 282.09,-126.77C287.65,-122.22 291.31,-115.63 290.55,-105.21C289.72,-93.71 284.16,-86.26 276.89,-82.21C269.39,-78.18 259.70,-76.92 250.81,-77.56C240.41,-78.54 231.62,-80.70 225.80,-84.62C219.76,-88.54 216.70,-94.44 217.33,-103.12C217.63,-107.24 220.05,-110.56 223.52,-113.36C227.00,-116.16 231.51,-118.23 235.78,-119.88C228.76,-122.36 223.01,-127.35 223.69,-136.68C223.95,-140.16 226.15,-143.49 228.99,-146.55C231.83,-149.62 235.28,-151.98 238.66,-153.48C232.66,-158.06 230.10,-164.79 228.97,-170.33C228.34,-173.65 227.93,-176.95 227.95,-180.22L230.30,-212.55C231.97,-223.55 236.02,-231.33 244.08,-237.07C248.00,-240.06 253.54,-241.18 260.26,-240.69C271.33,-239.89 277.69,-234.41 281.39,-228.25C283.02,-229.66 285.81,-232.08 289.46,-234.21C292.89,-236.36 296.72,-238.04 300.19,-237.79L298.77,-218.26C292.91,-218.69 288.49,-217.92 285.78,-216.59C285.92,-215.49 286.05,-214.39 286.22,-213.72C286.16,-212.85 286.10,-211.99 286.27,-211.32C286.44,-210.65 286.37,-209.78 286.33,-209.13ZM264.74,-209.18C265.03,-213.30 264.36,-215.97 262.79,-218.48C262.00,-219.63 260.75,-220.37 258.80,-220.51C255.33,-220.77 253.38,-218.07 252.54,-215.52C252.00,-214.03 251.64,-212.09 251.72,-210.12L249.35,-177.57C248.83,-173.47 249.30,-170.82 251.09,-168.50C251.88,-167.36 253.13,-166.61 254.87,-166.48C258.56,-166.22 260.27,-168.71 261.32,-171.25C261.87,-172.74 262.23,-174.68 262.37,-176.63ZM247.65,-115.09C242.90,-112.82 239.19,-109.82 238.86,-105.26C238.53,-100.70 242.38,-96.72 252.58,-95.98C256.27,-95.71 260.44,-96.06 263.79,-97.12C267.14,-98.19 269.67,-99.97 269.87,-102.79C270.02,-104.74 269.91,-106.28 268.50,-107.91C266.87,-109.55 264.13,-110.84 258.77,-112.10Z" fill="#ffffff" stroke="#000000"/>
    <path d="M-290.10,-166.35L-249.14,-321.09L-220.89,-318.01L-214.32,-158.07L-236.79,-160.53L-237.57,-193.10L-259.83,-195.54L-267.62,-163.89ZM-239.32,-268.25L-239.52,-272.38L-240.80,-272.52L-241.89,-268.53L-253.95,-219.59L-238.11,-217.86ZM-181.99,-154.54L-203.61,-156.90L-190.82,-274.00L-169.20,-271.63L-170.28,-261.79C-169.82,-261.95 -168.87,-262.72 -167.45,-263.86C-164.84,-265.96 -161.28,-268.82 -157.19,-270.54C-155.14,-271.40 -153.39,-271.64 -151.46,-271.43C-145.68,-270.80 -141.99,-266.93 -139.89,-262.37C-137.81,-257.59 -137.15,-251.67 -137.69,-246.75L-148.17,-150.84L-169.79,-153.21L-159.66,-245.90C-159.17,-250.39 -161.67,-251.32 -164.24,-251.60C-166.59,-251.85 -168.02,-250.71 -169.68,-249.37C-170.42,-248.59 -171.15,-247.80 -171.91,-246.80ZM-81.32,-302.76L-28.44,-296.98L-31.04,-273.22L-60.79,-276.47L-65.31,-235.16L-43.90,-232.82L-46.66,-207.56L-68.07,-209.90L-72.79,-166.65L-43.04,-163.40L-45.63,-139.64L-98.51,-145.42ZM-11.17,-135.88L-32.79,-138.24L-20.00,-255.33L1.63,-252.97L0.55,-243.12C1.00,-243.29 1.95,-244.05 3.38,-245.20C5.99,-247.30 9.55,-250.16 13.64,-251.88C15.68,-252.74 17.44,-252.98 19.37,-252.77C25.15,-252.13 28.84,-248.26 30.94,-243.70C33.02,-238.93 33.67,-233.01 33.13,-228.08L22.66,-132.18L1.03,-134.54L11.16,-227.23C11.65,-231.73 9.15,-232.65 6.58,-232.93C4.23,-233.19 2.81,-232.05 1.14,-230.71C0.41,-229.93 -0.33,-229.14 -1.09,-228.14ZM93.94,-124.39L72.32,-126.76L73.16,-134.46C69.15,-131.43 65.66,-129.22 61.38,-127.73C59.12,-126.90 56.93,-126.70 55.01,-126.91C49.01,-127.57 45.32,-131.44 43.24,-136.21C40.93,-140.80 40.27,-146.72 40.81,-151.64L48.97,-226.35C49.51,-231.28 51.43,-236.92 54.70,-241.11C57.74,-245.11 62.18,-248.09 68.17,-247.43C72.24,-246.99 76.26,-244.17 79.22,-241.46C80.98,-239.75 82.53,-238.07 84.27,-236.14L89.51,-284.09L111.13,-281.73ZM82.30,-218.16C82.68,-221.59 79.87,-225.58 76.65,-225.93C73.44,-226.28 70.55,-223.56 70.10,-219.49L62.92,-153.78C62.48,-149.71 64.72,-146.43 67.93,-146.08C71.14,-145.73 74.68,-148.38 75.12,-152.44ZM128.25,-279.86L149.87,-277.50L147.51,-255.88L125.89,-258.24ZM111.06,-122.52L123.86,-239.62L145.48,-237.25L132.69,-120.16ZM171.43,-115.93L149.81,-118.29L162.60,-235.38L184.22,-233.02L183.15,-223.17C183.60,-223.34 184.55,-224.10 185.97,-225.25C188.59,-227.35 192.15,-230.21 196.24,-231.93C198.28,-232.79 200.04,-233.03 201.96,-232.82C207.74,-232.18 211.44,-228.32 213.54,-223.75C215.62,-218.98 216.27,-213.06 215.73,-208.13L205.25,-112.23L183.63,-114.59L193.76,-207.28C194.25,-211.78 191.75,-212.70 189.18,-212.98C186.83,-213.24 185.40,-212.10 183.74,-210.76C183.01,-209.98 182.27,-209.19 181.51,-208.19ZM281.00,-161.14C279.16,-150.30 274.47,-143.01 266.35,-138.05C262.16,-135.47 256.65,-134.56 250.01,-135.29C249.37,-135.36 248.73,-135.43 248.09,-135.50C247.44,-135.57 246.59,-135.66 245.97,-135.94C243.86,-134.44 242.60,-132.85 242.39,-130.92C242.11,-128.35 244.08,-126.62 247.20,-125.41C250.30,-123.99 254.08,-122.93 258.08,-121.84C264.83,-120.24 271.92,-117.73 277.47,-113.01C282.81,-108.31 286.20,-101.66 285.08,-91.38C283.84,-80.04 278.07,-72.87 270.73,-69.12C263.17,-65.40 253.54,-64.50 244.77,-65.46C234.52,-66.79 225.90,-69.25 220.28,-73.33C214.45,-77.43 211.63,-83.37 212.57,-91.94C213.01,-96.00 215.53,-99.20 219.07,-101.84C222.60,-104.49 227.14,-106.37 231.42,-107.86C224.57,-110.56 219.06,-115.71 220.07,-124.91C220.44,-128.34 222.74,-131.55 225.66,-134.48C228.58,-137.41 232.08,-139.63 235.47,-140.99C229.71,-145.74 227.41,-152.49 226.50,-158.00C226.00,-161.31 225.70,-164.59 225.84,-167.82L229.33,-199.72C231.37,-210.54 235.66,-218.09 243.84,-223.48C247.82,-226.29 253.34,-227.20 259.98,-226.48C270.89,-225.29 276.99,-219.64 280.43,-213.41C282.09,-214.75 284.94,-217.04 288.62,-219.02C292.09,-221.02 295.94,-222.55 299.36,-222.18L297.26,-202.91C291.48,-203.54 287.08,-202.94 284.35,-201.72C284.45,-200.63 284.54,-199.53 284.69,-198.87C284.59,-198.01 284.50,-197.15 284.64,-196.49C284.79,-195.82 284.69,-194.97 284.62,-194.33ZM263.27,-195.14C263.71,-199.21 263.14,-201.87 261.68,-204.41C260.94,-205.58 259.73,-206.36 257.80,-206.57C254.38,-206.94 252.36,-204.35 251.44,-201.85C250.85,-200.40 250.42,-198.50 250.42,-196.55L246.92,-164.44C246.26,-160.39 246.62,-157.75 248.31,-155.40C249.05,-154.24 250.27,-153.45 251.98,-153.27C255.62,-152.87 257.40,-155.28 258.53,-157.75C259.12,-159.20 259.55,-161.11 259.76,-163.03ZM242.99,-102.69C238.21,-100.62 234.43,-97.78 233.94,-93.28C233.45,-88.79 237.12,-84.71 247.18,-83.61C250.82,-83.21 254.96,-83.41 258.31,-84.34C261.66,-85.27 264.23,-86.94 264.53,-89.73C264.74,-91.65 264.69,-93.17 263.36,-94.84C261.81,-96.52 259.14,-97.90 253.88,-99.34Z" fill="#ffffff" stroke="#000000"/>
    <path d="M-287.06,-172.92L-241.01,-324.50L-213.17,-320.43L-212.41,-162.01L-234.55,-165.25L-234.15,-197.50L-256.08,-200.70L-264.92,-169.69ZM-233.19,-271.88L-233.23,-275.98L-234.50,-276.16L-235.72,-272.25L-249.40,-224.28L-233.80,-222.00ZM-180.57,-157.36L-201.87,-160.47L-185.01,-275.82L-163.71,-272.71L-165.13,-263.01C-164.68,-263.16 -163.71,-263.88 -162.26,-264.96C-159.60,-266.94 -155.98,-269.64 -151.87,-271.20C-149.82,-271.97 -148.07,-272.15 -146.17,-271.87C-140.48,-271.04 -136.97,-267.08 -135.05,-262.49C-133.17,-257.70 -132.73,-251.82 -133.44,-246.97L-147.25,-152.49L-168.55,-155.60L-155.20,-246.92C-154.56,-251.34 -157.00,-252.35 -159.53,-252.72C-161.85,-253.06 -163.30,-251.97 -164.99,-250.71C-165.74,-249.96 -166.50,-249.21 -167.29,-248.25ZM-75.68,-300.34L-23.59,-292.73L-27.01,-269.32L-56.32,-273.60L-62.27,-232.90L-41.18,-229.82L-44.82,-204.94L-65.90,-208.02L-72.13,-165.42L-42.82,-161.14L-46.24,-137.73L-98.32,-145.34ZM-12.28,-132.77L-33.58,-135.88L-16.73,-251.24L4.57,-248.12L3.15,-238.42C3.61,-238.57 4.57,-239.29 6.02,-240.37C8.68,-242.35 12.31,-245.05 16.41,-246.61C18.46,-247.39 20.21,-247.56 22.11,-247.28C27.80,-246.45 31.32,-242.49 33.23,-237.90C35.12,-233.11 35.55,-227.23 34.84,-222.38L21.04,-127.90L-0.26,-131.01L13.08,-222.33C13.73,-226.75 11.29,-227.76 8.76,-228.13C6.44,-228.47 4.99,-227.39 3.30,-226.12C2.54,-225.37 1.78,-224.62 1.00,-223.66ZM91.26,-117.64L69.96,-120.75L71.07,-128.35C66.99,-125.50 63.46,-123.43 59.17,-122.11C56.91,-121.37 54.74,-121.25 52.84,-121.53C46.94,-122.39 43.42,-126.35 41.54,-131.15C39.42,-135.77 38.98,-141.65 39.69,-146.50L50.44,-220.10C51.15,-224.95 53.25,-230.46 56.64,-234.48C59.79,-238.33 64.29,-241.12 70.19,-240.26C74.20,-239.67 78.08,-236.74 80.90,-233.95C82.58,-232.20 84.05,-230.48 85.71,-228.51L92.61,-275.75L113.91,-272.64ZM83.12,-210.80C83.61,-214.17 80.97,-218.22 77.81,-218.68C74.64,-219.15 71.68,-216.56 71.10,-212.56L61.64,-147.82C61.05,-143.81 63.15,-140.49 66.31,-140.02C69.48,-139.56 73.07,-142.05 73.66,-146.06ZM130.78,-270.17L152.08,-267.06L148.96,-245.76L127.66,-248.87ZM108.13,-115.18L124.98,-230.53L146.28,-227.42L129.43,-112.06ZM167.60,-106.49L146.30,-109.60L163.15,-224.95L184.45,-221.84L183.03,-212.14C183.49,-212.29 184.45,-213.01 185.90,-214.09C188.56,-216.07 192.19,-218.77 196.29,-220.32C198.34,-221.10 200.09,-221.28 201.99,-221.00C207.68,-220.17 211.20,-216.21 213.11,-211.62C215.00,-206.82 215.43,-200.94 214.72,-196.09L200.92,-101.62L179.62,-104.73L192.96,-196.04C193.61,-200.47 191.17,-201.47 188.64,-201.84C186.32,-202.18 184.87,-201.10 183.18,-199.84C182.42,-199.09 181.66,-198.34 180.88,-197.38ZM277.59,-147.28C275.38,-136.61 270.48,-129.58 262.27,-124.96C258.04,-122.56 252.55,-121.86 246.01,-122.81C245.38,-122.91 244.75,-123.00 244.12,-123.09C243.48,-123.18 242.64,-123.31 242.04,-123.61C239.89,-122.20 238.59,-120.67 238.31,-118.77C237.94,-116.24 239.84,-114.45 242.88,-113.15C245.89,-111.63 249.59,-110.44 253.50,-109.23C260.13,-107.40 267.05,-104.66 272.37,-99.79C277.48,-94.95 280.59,-88.25 279.11,-78.13C277.48,-66.95 271.52,-60.07 264.13,-56.63C256.52,-53.22 246.96,-52.67 238.32,-53.94C228.23,-55.63 219.80,-58.37 214.38,-62.60C208.76,-66.87 206.19,-72.85 207.42,-81.28C208.01,-85.29 210.61,-88.36 214.20,-90.85C217.80,-93.34 222.35,-95.04 226.64,-96.35C219.96,-99.27 214.70,-104.56 216.02,-113.63C216.52,-117.00 218.91,-120.10 221.90,-122.89C224.89,-125.68 228.43,-127.75 231.84,-128.98C226.31,-133.88 224.28,-140.63 223.57,-146.12C223.19,-149.41 223.02,-152.66 223.27,-155.86L227.86,-187.28C230.28,-197.91 234.79,-205.22 243.07,-210.26C247.11,-212.90 252.60,-213.60 259.14,-212.65C269.89,-211.08 275.72,-205.27 278.90,-198.99C280.59,-200.25 283.49,-202.41 287.20,-204.24C290.71,-206.10 294.57,-207.47 297.94,-206.98L295.17,-188.00C289.47,-188.83 285.10,-188.39 282.36,-187.29C282.41,-186.20 282.47,-185.12 282.59,-184.45C282.47,-183.61 282.34,-182.77 282.46,-182.10C282.58,-181.44 282.46,-180.60 282.36,-179.96ZM261.27,-181.54C261.86,-185.54 261.38,-188.20 260.03,-190.76C259.34,-191.94 258.17,-192.76 256.27,-193.04C252.90,-193.53 250.81,-191.03 249.81,-188.60C249.17,-187.18 248.68,-185.31 248.62,-183.39L244.00,-151.75C243.20,-147.78 243.46,-145.15 245.05,-142.77C245.74,-141.59 246.91,-140.77 248.60,-140.53C252.19,-140.00 254.03,-142.32 255.25,-144.73C255.88,-146.14 256.37,-148.01 256.65,-149.91ZM237.89,-90.83C233.10,-88.95 229.26,-86.28 228.61,-81.85C227.96,-77.42 231.45,-73.25 241.36,-71.80C244.94,-71.28 249.04,-71.32 252.39,-72.13C255.74,-72.93 258.34,-74.49 258.74,-77.23C259.01,-79.13 259.02,-80.64 257.76,-82.33C256.29,-84.05 253.70,-85.51 248.55,-87.12Z" fill="#ffffff" stroke="#000000"/>
    <path d="M-283.80,-179.53L-232.81,-327.78L-205.43,-322.76L-210.37,-166.07L-232.15,-170.06L-230.59,-201.94L-252.16,-205.90L-262.02,-175.54ZM-226.97,-275.46L-226.87,-279.52L-228.11,-279.75L-229.46,-275.92L-244.71,-228.97L-229.36,-226.16ZM-179.04,-160.32L-199.99,-164.17L-179.18,-277.64L-158.23,-273.79L-159.98,-264.25C-159.53,-264.38 -158.55,-265.06 -157.08,-266.08C-154.37,-267.94 -150.69,-270.48 -146.58,-271.87C-144.52,-272.57 -142.79,-272.68 -140.92,-272.33C-135.32,-271.31 -131.99,-267.27 -130.26,-262.66C-128.57,-257.85 -128.35,-252.02 -129.22,-247.25L-146.27,-154.31L-167.22,-158.16L-150.75,-247.98C-149.95,-252.33 -152.32,-253.41 -154.81,-253.87C-157.09,-254.29 -158.57,-253.27 -160.28,-252.09C-161.06,-251.37 -161.83,-250.65 -162.65,-249.73ZM-70.18,-297.96L-18.94,-288.56L-23.16,-265.54L-52.00,-270.82L-59.34,-230.79L-38.60,-226.98L-43.09,-202.50L-63.83,-206.31L-71.51,-164.41L-42.68,-159.12L-46.90,-136.09L-98.14,-145.49ZM-13.50,-129.97L-34.46,-133.81L-13.65,-247.28L7.30,-243.44L5.55,-233.90C6.01,-234.03 6.99,-234.70 8.46,-235.72C11.16,-237.58 14.85,-240.13 18.96,-241.51C21.02,-242.21 22.75,-242.32 24.62,-241.98C30.22,-240.95 33.55,-236.91 35.28,-232.30C36.97,-227.49 37.19,-221.66 36.31,-216.89L19.27,-123.96L-1.68,-127.80L14.79,-217.62C15.59,-221.98 13.22,-223.06 10.73,-223.51C8.44,-223.93 6.97,-222.91 5.25,-221.73C4.48,-221.01 3.70,-220.30 2.89,-219.37ZM88.35,-111.29L67.40,-115.13L68.77,-122.60C64.63,-119.93 61.06,-118.01 56.78,-116.86C54.52,-116.21 52.37,-116.17 50.50,-116.52C44.69,-117.58 41.36,-121.62 39.67,-126.43C37.73,-131.08 37.51,-136.91 38.39,-141.68L51.66,-214.08C52.54,-218.85 54.81,-224.22 58.31,-228.08C61.56,-231.77 66.11,-234.37 71.92,-233.30C75.86,-232.58 79.59,-229.54 82.28,-226.69C83.88,-224.89 85.27,-223.14 86.84,-221.13L95.36,-267.60L116.31,-263.76ZM83.64,-203.71C84.25,-207.03 81.79,-211.12 78.67,-211.70C75.56,-212.27 72.54,-209.82 71.82,-205.88L60.14,-142.19C59.42,-138.25 61.37,-134.89 64.48,-134.32C67.60,-133.75 71.24,-136.08 71.96,-140.02ZM132.91,-260.72L153.86,-256.87L150.01,-235.92L129.06,-239.76ZM104.94,-108.25L125.75,-221.72L146.70,-217.87L125.90,-104.40ZM163.44,-97.52L142.49,-101.36L163.30,-214.83L184.25,-210.99L182.50,-201.45C182.95,-201.58 183.94,-202.26 185.41,-203.27C188.11,-205.14 191.79,-207.68 195.91,-209.07C197.96,-209.76 199.70,-209.87 201.57,-209.53C207.17,-208.50 210.50,-204.46 212.23,-199.85C213.92,-195.04 214.14,-189.21 213.26,-184.44L196.22,-91.51L175.27,-95.35L191.74,-185.17C192.54,-189.53 190.16,-190.61 187.67,-191.06C185.39,-191.48 183.92,-190.47 182.20,-189.28C181.43,-188.56 180.65,-187.85 179.84,-186.93ZM273.68,-133.91C271.12,-123.44 266.01,-116.66 257.73,-112.39C253.46,-110.17 248.01,-109.67 241.58,-110.85C240.95,-110.96 240.33,-111.08 239.71,-111.19C239.09,-111.31 238.26,-111.46 237.67,-111.78C235.50,-110.46 234.16,-108.99 233.82,-107.13C233.36,-104.64 235.17,-102.80 238.13,-101.40C241.05,-99.80 244.67,-98.49 248.50,-97.14C254.98,-95.10 261.73,-92.14 266.82,-87.14C271.70,-82.17 274.53,-75.43 272.71,-65.47C270.69,-54.48 264.55,-47.89 257.11,-44.75C249.47,-41.65 240.00,-41.45 231.50,-43.01C221.58,-45.05 213.34,-48.06 208.14,-52.44C202.73,-56.86 200.40,-62.87 201.92,-71.16C202.65,-75.11 205.33,-78.04 208.97,-80.38C212.62,-82.71 217.18,-84.23 221.47,-85.38C214.96,-88.50 209.96,-93.92 211.59,-102.84C212.20,-106.16 214.68,-109.14 217.74,-111.79C220.80,-114.45 224.36,-116.37 227.78,-117.45C222.49,-122.50 220.72,-129.25 220.22,-134.71C219.96,-137.97 219.91,-141.20 220.27,-144.35L225.94,-175.25C228.71,-185.68 233.44,-192.75 241.80,-197.43C245.90,-199.90 251.35,-200.40 257.78,-199.22C268.36,-197.28 273.92,-191.33 276.83,-185.01C278.55,-186.19 281.50,-188.22 285.23,-189.90C288.76,-191.61 292.63,-192.83 295.95,-192.22L292.53,-173.55C286.93,-174.58 282.59,-174.30 279.83,-173.31C279.85,-172.23 279.87,-171.16 279.96,-170.49C279.81,-169.66 279.66,-168.84 279.75,-168.17C279.84,-167.51 279.69,-166.68 279.58,-166.06ZM258.77,-168.38C259.50,-172.32 259.12,-174.96 257.88,-177.55C257.24,-178.73 256.11,-179.59 254.24,-179.93C250.93,-180.54 248.77,-178.14 247.69,-175.77C247.01,-174.39 246.46,-172.56 246.33,-170.66L240.62,-139.54C239.69,-135.64 239.86,-133.04 241.34,-130.62C241.98,-129.43 243.11,-128.58 244.77,-128.27C248.30,-127.63 250.21,-129.85 251.49,-132.19C252.18,-133.56 252.72,-135.39 253.07,-137.26ZM232.40,-79.51C227.59,-77.82 223.70,-75.32 222.90,-70.96C222.10,-66.61 225.39,-62.36 235.14,-60.57C238.67,-59.92 242.73,-59.82 246.07,-60.50C249.41,-61.17 252.03,-62.62 252.52,-65.32C252.87,-67.18 252.93,-68.67 251.74,-70.39C250.35,-72.15 247.84,-73.68 242.81,-75.46Z" fill="#ffffff" stroke="#000000"/>
    <path d="M-280.30,-186.18L-224.56,-330.94L-197.67,-324.99L-208.17,-170.23L-229.57,-174.96L-226.88,-206.42L-248.07,-211.11L-258.91,-181.45ZM-220.66,-278.99L-220.42,-283.00L-221.64,-283.27L-223.11,-279.53L-239.88,-233.66L-224.80,-230.33ZM-177.40,-163.42L-197.98,-167.97L-173.34,-279.43L-152.76,-274.88L-154.83,-265.50C-154.38,-265.62 -153.38,-266.25 -151.89,-267.20C-149.15,-268.95 -145.42,-271.33 -141.30,-272.56C-139.24,-273.17 -137.52,-273.22 -135.69,-272.81C-130.19,-271.59 -127.04,-267.48 -125.49,-262.86C-123.99,-258.04 -123.99,-252.27 -125.02,-247.59L-145.21,-156.30L-165.79,-160.85L-146.28,-249.08C-145.33,-253.36 -147.64,-254.51 -150.09,-255.05C-152.33,-255.55 -153.82,-254.59 -155.56,-253.48C-156.35,-252.80 -157.15,-252.12 -157.98,-251.24ZM-64.82,-295.61L-14.49,-284.48L-19.49,-261.86L-47.81,-268.13L-56.51,-228.80L-36.14,-224.29L-41.45,-200.25L-61.83,-204.76L-70.93,-163.60L-42.61,-157.34L-47.61,-134.72L-97.94,-145.85ZM-14.80,-127.46L-35.38,-132.01L-10.74,-243.47L9.84,-238.92L7.77,-229.55C8.22,-229.66 9.22,-230.29 10.71,-231.25C13.45,-232.99 17.18,-235.37 21.30,-236.60C23.36,-237.21 25.08,-237.26 26.91,-236.85C32.41,-235.64 35.56,-231.52 37.11,-226.91C38.61,-222.09 38.61,-216.31 37.58,-211.63L17.39,-120.34L-3.19,-124.90L16.32,-213.12C17.27,-217.40 14.96,-218.55 12.51,-219.09C10.27,-219.59 8.78,-218.64 7.04,-217.53C6.24,-216.85 5.45,-216.17 4.62,-215.28ZM85.24,-105.34L64.66,-109.89L66.28,-117.23C62.10,-114.73 58.50,-112.96 54.22,-111.98C51.96,-111.42 49.83,-111.46 48.00,-111.87C42.29,-113.13 39.14,-117.24 37.64,-122.06C35.90,-126.72 35.89,-132.50 36.93,-137.18L52.65,-208.29C53.69,-212.98 56.13,-218.21 59.72,-221.90C63.07,-225.44 67.66,-227.84 73.37,-226.58C77.24,-225.72 80.82,-222.58 83.38,-219.66C84.90,-217.83 86.21,-216.05 87.69,-214.01L97.78,-259.65L118.36,-255.10ZM83.90,-196.89C84.62,-200.15 82.33,-204.29 79.27,-204.97C76.22,-205.65 73.14,-203.33 72.29,-199.46L58.45,-136.91C57.60,-133.04 59.41,-129.65 62.47,-128.97C65.52,-128.29 69.21,-130.47 70.07,-134.34ZM134.66,-251.50L155.24,-246.95L150.69,-226.37L130.11,-230.92ZM101.54,-101.73L126.19,-213.19L146.77,-208.64L122.12,-97.18ZM159.00,-89.03L138.42,-93.58L163.07,-205.03L183.65,-200.48L181.57,-191.11C182.03,-191.22 183.02,-191.86 184.52,-192.81C187.25,-194.56 190.98,-196.94 195.10,-198.16C197.16,-198.78 198.88,-198.82 200.72,-198.42C206.22,-197.20 209.37,-193.09 210.91,-188.47C212.41,-183.65 212.42,-177.88 211.38,-173.19L191.19,-81.91L170.61,-86.46L190.12,-174.69C191.07,-178.97 188.76,-180.12 186.32,-180.66C184.07,-181.15 182.58,-180.20 180.84,-179.09C180.05,-178.41 179.26,-177.73 178.42,-176.85ZM269.31,-121.06C266.40,-110.80 261.11,-104.28 252.76,-100.35C248.46,-98.31 243.06,-98.01 236.74,-99.41C236.13,-99.54 235.52,-99.68 234.91,-99.81C234.29,-99.95 233.48,-100.13 232.91,-100.47C230.72,-99.24 229.34,-97.84 228.93,-96.00C228.39,-93.56 230.11,-91.68 232.99,-90.19C235.82,-88.50 239.35,-87.07 243.09,-85.61C249.43,-83.35 256.00,-80.19 260.85,-75.05C265.49,-69.97 268.06,-63.20 265.89,-53.42C263.51,-42.62 257.20,-36.32 249.73,-33.49C242.06,-30.69 232.69,-30.84 224.34,-32.69C214.60,-35.06 206.56,-38.33 201.58,-42.85C196.39,-47.42 194.30,-53.44 196.10,-61.59C196.96,-65.46 199.72,-68.27 203.41,-70.45C207.09,-72.62 211.66,-73.96 215.94,-74.94C209.62,-78.26 204.86,-83.80 206.80,-92.56C207.52,-95.82 210.08,-98.68 213.20,-101.19C216.32,-103.71 219.92,-105.48 223.33,-106.43C218.28,-111.61 216.78,-118.35 216.48,-123.76C216.34,-127.00 216.40,-130.19 216.88,-133.29L223.59,-163.65C226.70,-173.86 231.63,-180.68 240.07,-185.01C244.21,-187.30 249.62,-187.60 255.93,-186.21C266.33,-183.91 271.61,-177.83 274.26,-171.47C276.00,-172.58 278.99,-174.48 282.74,-176.00C286.30,-177.57 290.17,-178.64 293.43,-177.92L289.37,-159.58C283.87,-160.79 279.57,-160.68 276.81,-159.79C276.79,-158.73 276.76,-157.66 276.83,-157.01C276.65,-156.19 276.47,-155.38 276.54,-154.72C276.61,-154.06 276.43,-153.25 276.29,-152.64ZM255.81,-155.67C256.66,-159.54 256.39,-162.17 255.25,-164.77C254.66,-165.97 253.58,-166.85 251.74,-167.26C248.48,-167.98 246.27,-165.69 245.12,-163.38C244.39,-162.04 243.78,-160.26 243.58,-158.38L236.82,-127.81C235.76,-123.99 235.83,-121.41 237.22,-118.96C237.81,-117.76 238.89,-116.88 240.52,-116.52C243.99,-115.76 245.95,-117.89 247.31,-120.15C248.03,-121.49 248.64,-123.28 249.05,-125.11ZM226.54,-68.75C221.72,-67.25 217.78,-64.91 216.84,-60.64C215.89,-56.36 219.00,-52.04 228.57,-49.92C232.04,-49.15 236.04,-48.91 239.37,-49.45C242.70,-50.00 245.34,-51.34 245.93,-53.99C246.34,-55.82 246.45,-57.29 245.34,-59.04C244.02,-60.82 241.60,-62.43 236.68,-64.37Z" fill="#ffffff" stroke="#000000"/>
    <path d="M-276.56,-192.83L-216.26,-333.96L-189.88,-327.11L-205.81,-174.47L-226.80,-179.92L-223.02,-210.93L-243.80,-216.33L-255.57,-187.39ZM-214.26,-282.46L-213.88,-286.42L-215.08,-286.73L-216.66,-283.09L-234.89,-238.33L-220.10,-234.49ZM-175.64,-166.64L-195.82,-171.88L-167.45,-281.19L-147.27,-275.96L-149.66,-266.76C-149.20,-266.86 -148.20,-267.45 -146.69,-268.34C-143.92,-269.97 -140.14,-272.19 -136.03,-273.25C-133.97,-273.78 -132.27,-273.77 -130.47,-273.30C-125.07,-271.90 -122.11,-267.72 -120.75,-263.10C-119.44,-258.28 -119.64,-252.57 -120.83,-247.98L-144.06,-158.45L-164.25,-163.69L-141.79,-250.22C-140.70,-254.41 -142.95,-255.64 -145.34,-256.26C-147.54,-256.83 -149.05,-255.94 -150.81,-254.90C-151.62,-254.26 -152.43,-253.62 -153.29,-252.77ZM-59.58,-293.30L-10.22,-280.49L-15.98,-258.31L-43.76,-265.52L-53.77,-226.95L-33.78,-221.76L-39.90,-198.18L-59.89,-203.37L-70.36,-163.00L-42.58,-155.79L-48.34,-133.61L-97.70,-146.42ZM-16.17,-125.26L-36.35,-130.50L-7.98,-239.81L12.20,-234.57L9.82,-225.38C10.27,-225.47 11.27,-226.07 12.78,-226.95C15.55,-228.58 19.33,-230.80 23.44,-231.87C25.50,-232.40 27.21,-232.38 29.00,-231.92C34.40,-230.52 37.37,-226.33 38.73,-221.71C40.04,-216.89 39.84,-211.19 38.64,-206.59L15.41,-117.06L-4.78,-122.30L17.68,-208.83C18.77,-213.03 16.53,-214.25 14.13,-214.87C11.93,-215.44 10.42,-214.56 8.66,-213.52C7.85,-212.88 7.04,-212.23 6.19,-211.39ZM81.96,-99.79L61.77,-105.03L63.64,-112.23C59.41,-109.91 55.79,-108.29 51.53,-107.48C49.27,-107.00 47.17,-107.11 45.37,-107.58C39.77,-109.03 36.81,-113.22 35.50,-118.04C33.94,-122.71 34.14,-128.41 35.33,-133.01L53.43,-202.75C54.62,-207.35 57.22,-212.43 60.91,-215.96C64.34,-219.33 68.97,-221.54 74.57,-220.09C78.36,-219.11 81.79,-215.87 84.22,-212.89C85.65,-211.03 86.89,-209.21 88.27,-207.15L99.89,-251.91L120.07,-246.68ZM83.92,-190.36C84.75,-193.56 82.63,-197.74 79.63,-198.51C76.63,-199.29 73.51,-197.12 72.53,-193.32L56.60,-131.97C55.62,-128.17 57.29,-124.75 60.29,-123.97C63.29,-123.20 67.01,-125.21 67.99,-129.01ZM136.06,-242.53L156.24,-237.29L151.01,-217.10L130.82,-222.34ZM97.94,-95.64L126.31,-204.96L146.49,-199.72L118.13,-90.41ZM154.30,-81.02L134.11,-86.26L162.48,-195.57L182.67,-190.33L180.28,-181.14C180.73,-181.24 181.74,-181.83 183.25,-182.71C186.02,-184.34 189.79,-186.56 193.91,-187.63C195.97,-188.16 197.67,-188.14 199.47,-187.68C204.86,-186.28 207.83,-182.09 209.19,-177.48C210.50,-172.66 210.30,-166.95 209.11,-162.35L185.87,-72.82L165.69,-78.06L188.14,-164.59C189.23,-168.79 186.99,-170.01 184.59,-170.63C182.39,-171.21 180.88,-170.32 179.12,-169.28C178.32,-168.64 177.51,-167.99 176.65,-167.15ZM264.51,-108.73C261.27,-98.69 255.80,-92.43 247.41,-88.85C243.09,-86.99 237.73,-86.88 231.53,-88.49C230.93,-88.65 230.33,-88.80 229.73,-88.96C229.13,-89.11 228.33,-89.32 227.79,-89.68C225.57,-88.54 224.16,-87.21 223.69,-85.41C223.07,-83.01 224.70,-81.09 227.49,-79.51C230.23,-77.74 233.67,-76.20 237.32,-74.62C243.50,-72.16 249.88,-68.80 254.49,-63.55C258.90,-58.35 261.20,-51.57 258.71,-41.98C255.96,-31.39 249.50,-25.39 242.01,-22.85C234.33,-20.36 225.07,-20.85 216.87,-22.97C207.33,-25.66 199.50,-29.19 194.74,-33.84C189.77,-38.54 187.92,-44.56 190.00,-52.56C190.98,-56.35 193.81,-59.03 197.53,-61.05C201.26,-63.07 205.83,-64.23 210.09,-65.05C203.96,-68.56 199.45,-74.21 201.68,-82.80C202.51,-86.00 205.14,-88.73 208.32,-91.10C211.50,-93.48 215.12,-95.10 218.53,-95.92C213.72,-101.22 212.48,-107.94 212.37,-113.30C212.35,-116.50 212.53,-119.66 213.11,-122.71L220.84,-152.48C224.28,-162.47 229.40,-169.03 237.89,-173.01C242.07,-175.13 247.43,-175.23 253.62,-173.62C263.82,-170.98 268.82,-164.77 271.21,-158.39C272.98,-159.43 276.00,-161.20 279.77,-162.57C283.33,-163.99 287.20,-164.91 290.39,-164.08L285.73,-146.10C280.33,-147.50 276.08,-147.53 273.31,-146.76C273.25,-145.71 273.20,-144.65 273.24,-144.00C273.03,-143.20 272.82,-142.40 272.87,-141.75C272.91,-141.10 272.71,-140.30 272.55,-139.70ZM252.40,-143.44C253.39,-147.24 253.21,-149.84 252.18,-152.45C251.64,-153.66 250.60,-154.57 248.80,-155.04C245.60,-155.87 243.33,-153.68 242.11,-151.44C241.35,-150.15 240.68,-148.40 240.41,-146.55L232.63,-116.57C231.45,-112.83 231.43,-110.28 232.71,-107.81C233.25,-106.60 234.29,-105.69 235.89,-105.28C239.28,-104.40 241.31,-106.43 242.73,-108.62C243.49,-109.92 244.16,-111.66 244.62,-113.46ZM220.35,-58.55C215.53,-57.24 211.55,-55.07 210.46,-50.87C209.37,-46.68 212.29,-42.29 221.68,-39.86C225.08,-38.97 229.03,-38.59 232.34,-39.01C235.65,-39.43 238.31,-40.66 238.99,-43.26C239.46,-45.05 239.62,-46.51 238.58,-48.27C237.35,-50.08 235.01,-51.75 230.22,-53.85Z" fill="#ffffff" stroke="#000000"/>
    <path d="M-272.57,-199.49L-207.89,-336.84L-182.06,-329.13L-203.29,-178.80L-223.84,-184.94L-218.98,-215.46L-239.34,-221.54L-252.02,-193.35ZM-207.77,-285.86L-207.24,-289.76L-208.42,-290.11L-210.11,-286.56L-229.74,-242.97L-215.26,-238.65ZM-173.74,-169.98L-193.50,-175.88L-161.54,-282.93L-141.77,-277.03L-144.46,-268.02C-144.01,-268.10 -142.99,-268.65 -141.47,-269.48C-138.67,-270.99 -134.86,-273.04 -130.75,-273.95C-128.70,-274.40 -127.02,-274.33 -125.26,-273.80C-119.97,-272.22 -117.19,-267.98 -116.01,-263.37C-114.89,-258.55 -115.29,-252.92 -116.63,-248.42L-142.82,-160.74L-162.58,-166.65L-137.28,-251.39C-136.05,-255.50 -138.22,-256.78 -140.57,-257.49C-142.72,-258.13 -144.25,-257.30 -146.03,-256.34C-146.85,-255.74 -147.67,-255.13 -148.55,-254.33ZM-54.46,-291.03L-6.12,-276.59L-12.61,-254.87L-39.81,-262.99L-51.09,-225.22L-31.52,-219.38L-38.42,-196.29L-57.99,-202.13L-69.79,-162.60L-42.59,-154.48L-49.08,-132.75L-97.41,-147.19ZM-17.57,-123.34L-37.33,-129.25L-5.37,-236.29L14.40,-230.39L11.71,-221.39C12.16,-221.47 13.18,-222.02 14.70,-222.84C17.50,-224.35 21.31,-226.41 25.42,-227.31C27.47,-227.77 29.15,-227.69 30.91,-227.17C36.20,-225.59 38.98,-221.35 40.16,-216.73C41.28,-211.92 40.88,-206.29 39.53,-201.78L13.35,-114.11L-6.41,-120.01L18.89,-204.75C20.12,-208.86 17.95,-210.15 15.60,-210.85C13.44,-211.49 11.92,-210.67 10.14,-209.71C9.32,-209.10 8.50,-208.49 7.62,-207.69ZM78.52,-94.65L58.76,-100.55L60.86,-107.60C56.60,-105.46 52.96,-103.99 48.72,-103.34C46.47,-102.94 44.39,-103.14 42.63,-103.66C37.15,-105.30 34.37,-109.54 33.25,-114.35C31.87,-119.02 32.28,-124.66 33.62,-129.16L54.02,-197.46C55.36,-201.96 58.11,-206.89 61.88,-210.24C65.40,-213.46 70.05,-215.48 75.53,-213.84C79.25,-212.73 82.52,-209.41 84.82,-206.38C86.17,-204.48 87.32,-202.65 88.62,-200.56L101.71,-244.39L121.47,-238.49ZM83.71,-184.12C84.64,-187.25 82.70,-191.45 79.77,-192.33C76.83,-193.20 73.67,-191.17 72.55,-187.45L54.61,-127.37C53.50,-123.65 55.03,-120.21 57.97,-119.33C60.90,-118.45 64.66,-120.32 65.77,-124.04ZM137.13,-233.81L156.90,-227.91L150.99,-208.15L131.23,-214.05ZM94.18,-89.97L126.14,-197.02L145.91,-191.12L113.94,-84.07ZM149.37,-73.49L129.60,-79.40L161.57,-186.45L181.33,-180.54L178.64,-171.54C179.09,-171.62 180.11,-172.17 181.63,-172.99C184.43,-174.50 188.24,-176.56 192.35,-177.47C194.40,-177.92 196.09,-177.84 197.85,-177.32C203.13,-175.74 205.91,-171.50 207.09,-166.88C208.21,-162.07 207.81,-156.44 206.47,-151.94L180.29,-64.26L160.52,-70.16L185.82,-154.90C187.05,-159.01 184.88,-160.30 182.53,-161.00C180.38,-161.64 178.85,-160.82 177.07,-159.86C176.25,-159.25 175.43,-158.64 174.55,-157.84ZM259.32,-96.93C255.75,-87.13 250.12,-81.13 241.70,-77.90C237.35,-76.21 232.05,-76.30 225.99,-78.11C225.40,-78.29 224.81,-78.46 224.23,-78.64C223.64,-78.81 222.86,-79.05 222.33,-79.42C220.10,-78.38 218.65,-77.10 218.13,-75.34C217.42,-72.99 218.97,-71.04 221.67,-69.38C224.32,-67.53 227.66,-65.89 231.21,-64.19C237.24,-61.54 243.42,-57.98 247.79,-52.63C251.97,-47.33 253.99,-40.55 251.18,-31.15C248.09,-20.78 241.48,-15.08 233.99,-12.84C226.31,-10.66 217.17,-11.47 209.15,-13.87C199.81,-16.87 192.20,-20.63 187.65,-25.40C182.91,-30.23 181.30,-36.25 183.64,-44.08C184.75,-47.80 187.64,-50.34 191.39,-52.21C195.15,-54.07 199.70,-55.05 203.95,-55.70C198.02,-59.39 193.76,-65.14 196.28,-73.55C197.21,-76.69 199.91,-79.29 203.13,-81.52C206.36,-83.76 209.99,-85.23 213.40,-85.92C208.83,-91.33 207.85,-98.02 207.94,-103.32C208.03,-106.49 208.32,-109.60 209.00,-112.60L217.71,-141.76C221.47,-151.50 226.77,-157.81 235.31,-161.44C239.51,-163.38 244.82,-163.29 250.88,-161.48C260.86,-158.50 265.59,-152.19 267.73,-145.79C269.50,-146.75 272.55,-148.40 276.33,-149.62C279.91,-150.89 283.76,-151.66 286.89,-150.73L281.63,-133.11C276.35,-134.69 272.14,-134.88 269.38,-134.21C269.29,-133.18 269.19,-132.14 269.21,-131.49C268.98,-130.71 268.74,-129.93 268.76,-129.28C268.78,-128.64 268.55,-127.85 268.38,-127.27ZM248.59,-131.68C249.70,-135.40 249.62,-137.98 248.70,-140.60C248.21,-141.82 247.21,-142.75 245.45,-143.28C242.32,-144.21 239.99,-142.14 238.70,-139.96C237.90,-138.71 237.18,-137.01 236.85,-135.19L228.08,-105.83C226.78,-102.17 226.66,-99.65 227.84,-97.17C228.33,-95.95 229.33,-95.02 230.90,-94.55C234.22,-93.56 236.29,-95.50 237.78,-97.61C238.58,-98.86 239.30,-100.57 239.83,-102.33ZM213.86,-48.91C209.04,-47.79 205.04,-45.79 203.81,-41.68C202.58,-37.57 205.31,-33.13 214.51,-30.38C217.83,-29.39 221.73,-28.87 225.01,-29.16C228.30,-29.46 230.98,-30.58 231.74,-33.12C232.26,-34.89 232.48,-36.31 231.51,-38.09C230.36,-39.93 228.11,-41.67 223.45,-43.91Z" fill="#ffffff" stroke="#000000"/>
    <path d="M-268.32,-206.13L-199.46,-339.59L-174.20,-331.03L-200.58,-183.20L-220.67,-190.00L-214.78,-220.00L-234.68,-226.74L-248.22,-199.33ZM-201.17,-289.19L-200.51,-293.02L-201.66,-293.41L-203.46,-289.97L-224.42,-247.58L-210.26,-242.79ZM-171.68,-173.42L-191.01,-179.96L-155.57,-284.63L-136.25,-278.09L-139.23,-269.28C-138.78,-269.35 -137.75,-269.85 -136.22,-270.61C-133.40,-272.00 -129.56,-273.90 -125.47,-274.65C-123.42,-275.02 -121.76,-274.89 -120.04,-274.30C-114.87,-272.55 -112.27,-268.26 -111.27,-263.66C-110.34,-258.86 -110.94,-253.31 -112.43,-248.91L-141.45,-163.18L-160.78,-169.72L-132.73,-252.58C-131.36,-256.60 -133.47,-257.95 -135.76,-258.73C-137.87,-259.44 -139.40,-258.68 -141.20,-257.79C-142.03,-257.22 -142.86,-256.65 -143.76,-255.89ZM-49.44,-288.79L-2.18,-272.79L-9.37,-251.55L-35.97,-260.56L-48.47,-223.63L-29.33,-217.15L-36.98,-194.57L-56.11,-201.05L-69.20,-162.39L-42.60,-153.39L-49.79,-132.15L-97.06,-148.15ZM-18.99,-121.72L-38.31,-128.26L-2.88,-232.93L16.45,-226.39L13.47,-217.58C13.92,-217.65 14.94,-218.15 16.48,-218.91C19.30,-220.30 23.14,-222.20 27.23,-222.95C29.28,-223.32 30.94,-223.19 32.66,-222.60C37.83,-220.86 40.43,-216.56 41.43,-211.96C42.36,-207.16 41.76,-201.61 40.27,-197.21L11.25,-111.48L-8.08,-118.03L19.97,-200.88C21.33,-204.90 19.23,-206.25 16.93,-207.03C14.83,-207.74 13.29,-206.98 11.50,-206.09C10.67,-205.52 9.83,-204.95 8.94,-204.19ZM74.97,-89.91L55.64,-96.45L57.97,-103.34C53.68,-101.38 50.03,-100.06 45.82,-99.56C43.58,-99.26 41.53,-99.52 39.81,-100.10C34.45,-101.92 31.86,-106.21 30.92,-111.01C29.73,-115.67 30.33,-121.23 31.82,-125.63L54.43,-192.41C55.92,-196.81 58.82,-201.59 62.67,-204.77C66.26,-207.82 70.93,-209.65 76.29,-207.83C79.92,-206.60 83.04,-203.20 85.19,-200.13C86.46,-198.20 87.54,-196.34 88.74,-194.23L103.26,-237.09L122.58,-230.55ZM83.30,-178.16C84.34,-181.22 82.57,-185.44 79.70,-186.42C76.83,-187.39 73.63,-185.49 72.40,-181.85L52.51,-123.11C51.28,-119.47 52.66,-116.01 55.53,-115.04C58.41,-114.07 62.18,-115.78 63.41,-119.41ZM137.89,-225.37L157.22,-218.82L150.67,-199.50L131.35,-206.04ZM90.27,-84.72L125.71,-189.39L145.04,-182.85L109.60,-78.18ZM144.23,-66.46L124.91,-73.00L160.35,-177.67L179.67,-171.12L176.69,-162.32C177.14,-162.38 178.16,-162.89 179.70,-163.65C182.52,-165.04 186.36,-166.94 190.45,-167.69C192.50,-168.06 194.16,-167.92 195.88,-167.34C201.05,-165.59 203.65,-161.30 204.65,-156.70C205.58,-151.90 204.98,-146.34 203.49,-141.94L174.47,-56.22L155.14,-62.76L183.19,-145.62C184.55,-149.64 182.45,-150.99 180.16,-151.76C178.05,-152.48 176.51,-151.72 174.72,-150.83C173.89,-150.26 173.05,-149.69 172.16,-148.93ZM253.76,-85.68C249.88,-76.12 244.10,-70.39 235.66,-67.49C231.31,-65.98 226.07,-66.26 220.14,-68.27C219.56,-68.46 218.99,-68.66 218.42,-68.85C217.84,-69.05 217.08,-69.31 216.57,-69.69C214.33,-68.74 212.85,-67.54 212.27,-65.82C211.49,-63.52 212.95,-61.53 215.56,-59.79C218.11,-57.87 221.36,-56.13 224.80,-54.32C230.66,-51.48 236.65,-47.75 240.78,-42.30C244.71,-36.91 246.47,-30.13 243.36,-20.95C239.93,-10.81 233.19,-5.41 225.71,-3.46C218.04,-1.58 209.03,-2.71 201.19,-5.37C192.07,-8.67 184.68,-12.67 180.35,-17.54C175.84,-22.48 174.46,-28.49 177.06,-36.15C178.29,-39.78 181.24,-42.20 185.01,-43.90C188.79,-45.61 193.33,-46.42 197.55,-46.91C191.82,-50.77 187.82,-56.60 190.61,-64.83C191.64,-67.89 194.40,-70.37 197.67,-72.46C200.94,-74.56 204.59,-75.88 207.97,-76.44C203.66,-81.95 202.92,-88.60 203.20,-93.84C203.41,-96.97 203.81,-100.03 204.59,-102.97L214.24,-131.48C218.31,-140.98 223.77,-147.02 232.34,-150.30C236.57,-152.07 241.81,-151.79 247.74,-149.78C257.50,-146.48 261.94,-140.07 263.82,-133.67C265.62,-134.56 268.69,-136.08 272.46,-137.15C276.05,-138.28 279.88,-138.90 282.95,-137.86L277.11,-120.64C271.95,-122.39 267.80,-122.73 265.05,-122.17C264.91,-121.15 264.78,-120.13 264.78,-119.49C264.52,-118.72 264.26,-117.96 264.26,-117.32C264.25,-116.68 264.00,-115.91 263.80,-115.34ZM244.40,-120.41C245.64,-124.05 245.65,-126.60 244.83,-129.23C244.39,-130.44 243.43,-131.41 241.71,-131.99C238.65,-133.03 236.28,-131.06 234.93,-128.95C234.09,-127.74 233.32,-126.09 232.92,-124.30L223.21,-95.60C221.78,-92.03 221.58,-89.54 222.65,-87.04C223.10,-85.82 224.05,-84.86 225.58,-84.34C228.83,-83.24 230.95,-85.08 232.49,-87.12C233.33,-88.33 234.10,-89.99 234.69,-91.71ZM207.10,-39.84C202.30,-38.90 198.27,-37.07 196.91,-33.05C195.55,-29.03 198.08,-24.55 207.08,-21.50C210.33,-20.40 214.16,-19.75 217.42,-19.92C220.68,-20.10 223.37,-21.11 224.21,-23.59C224.79,-25.32 225.05,-26.72 224.17,-28.51C223.09,-30.37 220.93,-32.17 216.40,-34.56Z" fill="#ffffff" stroke="#000000"/>
    <path d="M-263.81,-212.75L-190.96,-342.18L-166.31,-332.82L-197.68,-187.65L-217.29,-195.10L-210.40,-224.54L-229.82,-231.91L-244.19,-205.31ZM-194.46,-292.43L-193.67,-296.19L-194.79,-296.62L-196.70,-293.28L-218.94,-252.14L-205.12,-246.89ZM-169.47,-176.95L-188.34,-184.11L-149.56,-286.29L-130.69,-279.13L-133.95,-270.53C-133.51,-270.58 -132.48,-271.04 -130.93,-271.74C-128.10,-273.01 -124.23,-274.75 -120.16,-275.34C-118.13,-275.64 -116.49,-275.45 -114.81,-274.81C-109.77,-272.89 -107.35,-268.56 -106.53,-263.97C-105.77,-259.20 -106.57,-253.73 -108.20,-249.43L-139.96,-165.75L-158.83,-172.91L-128.13,-253.79C-126.64,-257.71 -128.67,-259.13 -130.91,-259.98C-132.96,-260.76 -134.51,-260.06 -136.31,-259.25C-137.16,-258.71 -138.00,-258.18 -138.92,-257.46ZM-44.51,-286.60L1.63,-269.09L-6.24,-248.35L-32.21,-258.21L-45.89,-222.15L-27.21,-215.06L-35.58,-193.02L-54.26,-200.11L-68.58,-162.38L-42.61,-152.52L-50.48,-131.79L-96.62,-149.30ZM-20.41,-120.37L-39.27,-127.53L-0.49,-229.71L18.37,-222.55L15.11,-213.96C15.56,-214.01 16.59,-214.47 18.13,-215.16C20.97,-216.44 24.83,-218.18 28.90,-218.77C30.94,-219.07 32.58,-218.87 34.26,-218.23C39.30,-216.32 41.72,-211.98 42.54,-207.40C43.29,-202.62 42.50,-197.15 40.87,-192.86L9.11,-109.17L-9.76,-116.33L20.94,-197.22C22.43,-201.14 20.40,-202.55 18.16,-203.40C16.10,-204.18 14.56,-203.49 12.75,-202.67C11.91,-202.14 11.06,-201.61 10.15,-200.88ZM71.31,-85.56L52.44,-92.72L55.00,-99.45C50.69,-97.67 47.03,-96.49 42.85,-96.15C40.62,-95.93 38.61,-96.26 36.93,-96.90C31.70,-98.89 29.29,-103.22 28.53,-108.00C27.52,-112.65 28.32,-118.12 29.95,-122.42L54.69,-187.61C56.32,-191.91 59.36,-196.53 63.27,-199.53C66.93,-202.41 71.62,-204.05 76.85,-202.07C80.40,-200.72 83.35,-197.25 85.37,-194.13C86.56,-192.19 87.56,-190.31 88.67,-188.18L104.55,-230.02L123.42,-222.86ZM82.72,-172.49C83.85,-175.48 82.25,-179.72 79.45,-180.78C76.65,-181.84 73.42,-180.08 72.07,-176.53L50.30,-119.18C48.96,-115.63 50.21,-112.17 53.01,-111.10C55.81,-110.04 59.60,-111.59 60.95,-115.14ZM138.36,-217.19L157.23,-210.03L150.07,-191.16L131.20,-198.32ZM86.25,-79.89L125.03,-182.07L143.90,-174.91L105.12,-72.73ZM138.93,-59.90L120.07,-67.06L158.85,-169.24L177.71,-162.08L174.45,-153.49C174.90,-153.53 175.93,-154.00 177.47,-154.69C180.31,-155.97 184.17,-157.70 188.24,-158.30C190.28,-158.59 191.92,-158.40 193.60,-157.76C198.64,-155.85 201.05,-151.51 201.88,-146.92C202.63,-142.15 201.84,-136.68 200.21,-132.38L168.45,-48.70L149.58,-55.86L180.28,-136.74C181.77,-140.67 179.74,-142.08 177.50,-142.93C175.44,-143.71 173.89,-143.01 172.09,-142.20C171.25,-141.67 170.40,-141.13 169.49,-140.41ZM247.87,-74.97C243.70,-65.66 237.78,-60.21 229.33,-57.65C224.97,-56.31 219.81,-56.77 214.02,-58.97C213.46,-59.18 212.90,-59.40 212.34,-59.61C211.78,-59.82 211.03,-60.11 210.54,-60.50C208.29,-59.65 206.79,-58.51 206.15,-56.83C205.30,-54.59 206.67,-52.57 209.19,-50.76C211.64,-48.76 214.79,-46.92 218.12,-45.02C223.82,-42.00 229.60,-38.10 233.49,-32.56C237.18,-27.10 238.68,-20.33 235.27,-11.37C231.52,-1.47 224.67,3.63 217.20,5.28C209.55,6.86 200.69,5.43 193.03,2.52C184.14,-1.07 176.97,-5.29 172.88,-10.26C168.59,-15.30 167.45,-21.30 170.28,-28.77C171.63,-32.32 174.63,-34.60 178.43,-36.15C182.22,-37.70 186.74,-38.34 190.93,-38.67C185.40,-42.69 181.66,-48.60 184.71,-56.63C185.84,-59.62 188.66,-61.97 191.96,-63.92C195.27,-65.87 198.92,-67.05 202.29,-67.48C198.22,-73.09 197.73,-79.68 198.19,-84.85C198.51,-87.94 199.01,-90.95 199.89,-93.82L210.45,-121.66C214.82,-130.90 220.43,-136.68 229.02,-139.61C233.26,-141.21 238.43,-140.75 244.22,-138.55C253.75,-134.93 257.91,-128.44 259.54,-122.05C261.34,-122.86 264.44,-124.25 268.21,-125.17C271.79,-126.16 275.60,-126.64 278.59,-125.50L272.21,-108.69C267.17,-110.61 263.08,-111.09 260.34,-110.63C260.17,-109.63 260.00,-108.62 259.98,-107.99C259.69,-107.24 259.41,-106.50 259.38,-105.87C259.36,-105.23 259.07,-104.49 258.86,-103.93ZM239.87,-109.64C241.22,-113.19 241.32,-115.71 240.61,-118.33C240.22,-119.55 239.31,-120.54 237.63,-121.18C234.64,-122.31 232.22,-120.45 230.81,-118.42C229.94,-117.25 229.12,-115.64 228.66,-113.89L218.03,-85.87C216.50,-82.39 216.21,-79.94 217.18,-77.43C217.57,-76.22 218.48,-75.23 219.97,-74.66C223.15,-73.46 225.31,-75.20 226.90,-77.16C227.77,-78.33 228.60,-79.94 229.24,-81.62ZM200.11,-31.34C195.34,-30.59 191.29,-28.92 189.80,-25.00C188.31,-21.07 190.65,-16.55 199.43,-13.22C202.61,-12.01 206.37,-11.23 209.60,-11.28C212.82,-11.34 215.52,-12.24 216.44,-14.67C217.08,-16.35 217.39,-17.73 216.57,-19.53C215.58,-21.41 213.50,-23.26 209.12,-25.78Z" fill="#ffffff" stroke="#000000"/>
    <path d="M-911.48,464.07L-907.38,464.07L-907.38,488.20L-901.94,488.20L-901.94,492L-911.48,492ZM-890.66,484.55L-890.66,486.95C-890.77,488.96 -891.38,490.37 -892.75,491.47C-893.43,492.04 -894.38,492.30 -895.63,492.30C-898.10,492.30 -899.36,490.94 -899.97,489.57C-900.31,488.77 -900.54,487.86 -900.57,486.83L-900.57,476.38C-900.46,474.37 -899.81,472.89 -898.45,471.75C-897.80,471.18 -896.85,470.91 -895.60,470.91C-893.13,470.91 -891.87,472.28 -891.26,473.61C-890.92,474.41 -890.69,475.28 -890.66,476.27L-890.66,482.31L-897.00,482.31L-897.00,486.83C-896.96,487.63 -896.74,488.20 -896.39,488.62C-896.20,488.81 -895.94,488.92 -895.60,488.92C-894.87,488.92 -894.53,488.47 -894.38,487.90C-894.27,487.59 -894.23,487.25 -894.23,486.83L-894.23,484.55ZM-897.00,479.31L-894.23,479.31L-894.23,476.38C-894.23,475.58 -894.38,475.01 -894.76,474.56C-894.95,474.37 -895.25,474.25 -895.60,474.25C-896.32,474.25 -896.62,474.75 -896.81,475.32C-896.93,475.62 -896.96,475.96 -897.00,476.38ZM-882.22,476.15C-882.22,475.81 -882.22,475.28 -882.33,474.90C-882.49,474.52 -882.79,474.25 -883.28,474.25C-883.93,474.25 -884.20,474.75 -884.31,475.36C-884.35,475.66 -884.39,476.00 -884.39,476.34C-884.39,476.69 -884.39,477.03 -884.39,477.33L-888.22,477.33L-888.22,476.46C-888.22,474.94 -887.65,473.57 -886.74,472.54C-885.83,471.52 -884.54,470.91 -883.06,470.91C-881.80,470.91 -880.66,471.40 -879.79,472.24C-878.91,473.08 -878.38,474.25 -878.38,475.62L-878.38,488.39C-878.38,490.25 -878.27,491.09 -878.12,492L-881.88,492C-882.22,491.58 -882.22,490.59 -882.22,490.33L-882.49,490.33C-882.68,490.67 -883.02,491.16 -883.55,491.58C-884.08,492 -884.80,492.30 -885.56,492.30C-886.06,492.30 -886.86,492.11 -887.46,491.35C-888.11,490.63 -888.64,489.34 -888.64,487.17C-888.64,484.86 -887.96,483.18 -887.05,482.04C-886.13,480.90 -884.99,480.18 -884.04,479.69C-883.09,479.19 -882.37,478.85 -882.22,478.43ZM-882.22,481.97C-884.08,482.77 -884.88,484.63 -884.88,486.60C-884.88,486.87 -884.84,487.33 -884.69,487.74C-884.54,488.20 -884.27,488.54 -883.82,488.54C-882.94,488.54 -882.22,488.01 -882.22,487.29ZM-866.37,481.97C-866.49,483.91 -867.17,485.27 -868.50,486.30C-869.19,486.83 -870.14,487.10 -871.31,487.10C-871.43,487.10 -871.54,487.10 -871.66,487.10C-871.77,487.10 -871.92,487.10 -872.04,487.06C-872.38,487.36 -872.57,487.67 -872.57,488.01C-872.57,488.47 -872.19,488.73 -871.62,488.88C-871.05,489.07 -870.36,489.19 -869.64,489.30C-868.43,489.45 -867.13,489.76 -866.07,490.48C-865.04,491.20 -864.32,492.30 -864.32,494.13C-864.32,496.14 -865.20,497.51 -866.41,498.31C-867.67,499.11 -869.34,499.45 -870.90,499.45C-872.72,499.41 -874.28,499.14 -875.34,498.54C-876.44,497.93 -877.05,496.94 -877.05,495.42C-877.05,494.70 -876.67,494.09 -876.10,493.56C-875.53,493.03 -874.77,492.61 -874.05,492.27C-875.30,491.92 -876.37,491.13 -876.37,489.49C-876.37,488.88 -876.03,488.28 -875.57,487.71C-875.11,487.14 -874.54,486.68 -873.97,486.38C-875.08,485.65 -875.61,484.51 -875.87,483.56C-876.03,482.99 -876.14,482.42 -876.18,481.85L-876.18,476.19C-876.03,474.25 -875.42,472.85 -874.09,471.75C-873.44,471.18 -872.49,470.91 -871.31,470.91C-869.38,470.91 -868.20,471.78 -867.48,472.81C-867.21,472.54 -866.75,472.09 -866.15,471.67C-865.58,471.25 -864.93,470.91 -864.32,470.91L-864.32,474.33C-865.35,474.33 -866.11,474.52 -866.56,474.79C-866.53,474.98 -866.49,475.17 -866.45,475.28C-866.45,475.43 -866.45,475.58 -866.41,475.70C-866.37,475.81 -866.37,475.96 -866.37,476.08ZM-870.14,476.34C-870.14,475.62 -870.29,475.17 -870.59,474.75C-870.74,474.56 -870.97,474.44 -871.31,474.44C-871.92,474.44 -872.23,474.94 -872.34,475.39C-872.42,475.66 -872.45,476.00 -872.42,476.34L-872.42,482.04C-872.45,482.77 -872.34,483.22 -872.00,483.60C-871.85,483.79 -871.62,483.91 -871.31,483.91C-870.67,483.91 -870.40,483.45 -870.25,482.99C-870.17,482.73 -870.14,482.39 -870.14,482.04ZM-871.92,492.95C-872.72,493.41 -873.33,493.98 -873.33,494.77C-873.33,495.57 -872.61,496.22 -870.82,496.22C-870.17,496.22 -869.45,496.10 -868.88,495.88C-868.31,495.65 -867.89,495.31 -867.89,494.81C-867.89,494.47 -867.93,494.20 -868.20,493.94C-868.50,493.67 -869.00,493.48 -869.95,493.33ZM-856.84,471.21L-853.00,471.21L-853.00,492L-856.84,492L-856.84,490.25C-856.91,490.29 -857.06,490.44 -857.25,490.63C-857.71,491.09 -858.24,491.62 -858.93,492C-859.27,492.19 -859.61,492.30 -859.95,492.30C-860.98,492.30 -861.70,491.70 -862.16,490.90C-862.61,490.14 -862.84,489.11 -862.84,488.24L-862.84,471.21L-859.00,471.21L-859.00,487.67C-859.00,488.47 -858.55,488.58 -858.09,488.58C-857.67,488.58 -857.44,488.35 -857.18,488.09C-857.06,487.97 -856.95,487.78 -856.84,487.59ZM-840.34,484.55L-840.34,486.95C-840.46,488.96 -841.07,490.37 -842.43,491.47C-843.12,492.04 -844.07,492.30 -845.32,492.30C-847.79,492.30 -849.05,490.94 -849.65,489.57C-850.00,488.77 -850.22,487.86 -850.26,486.83L-850.26,476.38C-850.15,474.37 -849.50,472.89 -848.13,471.75C-847.49,471.18 -846.54,470.91 -845.28,470.91C-842.81,470.91 -841.56,472.28 -840.95,473.61C-840.61,474.41 -840.38,475.28 -840.34,476.27L-840.34,482.31L-846.69,482.31L-846.69,486.83C-846.65,487.63 -846.42,488.20 -846.08,488.62C-845.89,488.81 -845.63,488.92 -845.28,488.92C-844.56,488.92 -844.22,488.47 -844.07,487.90C-843.95,487.59 -843.92,487.25 -843.92,486.83L-843.92,484.55ZM-846.69,479.31L-843.92,479.31L-843.92,476.38C-843.92,475.58 -844.07,475.01 -844.45,474.56C-844.64,474.37 -844.94,474.25 -845.28,474.25C-846.01,474.25 -846.31,474.75 -846.50,475.32C-846.61,475.62 -846.65,475.96 -846.69,476.38ZM-831.15,474.10L-831.15,469.81C-831.15,469.05 -831.30,468.52 -831.68,468.06C-831.87,467.87 -832.17,467.76 -832.52,467.76C-833.24,467.76 -833.58,468.29 -833.73,468.78C-833.85,469.09 -833.88,469.43 -833.88,469.81L-833.88,486.60C-833.88,487.40 -833.69,487.93 -833.31,488.35C-833.12,488.54 -832.86,488.66 -832.52,488.66C-831.79,488.66 -831.45,488.20 -831.30,487.63C-831.19,487.36 -831.15,487.02 -831.15,486.60L-831.15,481.55L-832.78,481.55L-832.78,478.09L-827.04,478.09L-827.04,492L-829.48,492L-829.97,490.67C-830.73,491.62 -831.83,492.30 -833.16,492.30C-834.49,492.30 -835.40,491.96 -836.09,491.35C-836.77,490.78 -837.23,490.06 -837.53,489.30C-837.87,488.43 -838.03,487.40 -837.99,486.26L-837.99,469.81C-837.95,468.71 -837.72,467.68 -837.30,466.81C-836.96,466.05 -836.47,465.29 -835.71,464.72C-834.95,464.15 -833.88,463.77 -832.52,463.77C-831.15,463.77 -830.12,464.15 -829.36,464.72C-828.60,465.29 -828.07,466.05 -827.73,466.81C-827.31,467.68 -827.08,468.71 -827.04,469.81L-827.04,474.10ZM-814.54,486.95C-814.66,488.96 -815.26,490.37 -816.59,491.47C-817.28,492.04 -818.23,492.30 -819.48,492.30C-821.95,492.30 -823.17,490.94 -823.78,489.57C-824.12,488.77 -824.35,487.86 -824.38,486.83L-824.38,476.38C-824.27,474.37 -823.66,472.89 -822.33,471.75C-821.69,471.18 -820.74,470.91 -819.48,470.91C-817.01,470.91 -815.76,472.28 -815.15,473.61C-814.81,474.41 -814.58,475.28 -814.54,476.27ZM-818.15,476.38C-818.11,475.58 -818.27,475.01 -818.65,474.56C-818.84,474.37 -819.14,474.25 -819.48,474.25C-820.20,474.25 -820.51,474.75 -820.66,475.32C-820.77,475.62 -820.81,475.96 -820.77,476.38L-820.77,486.83C-820.81,487.63 -820.62,488.20 -820.28,488.62C-820.09,488.81 -819.82,488.92 -819.48,488.92C-818.76,488.92 -818.42,488.47 -818.27,487.90C-818.15,487.59 -818.11,487.25 -818.15,486.83ZM-807.21,466.08L-807.21,471.21L-804.59,471.21L-804.59,474.67L-807.21,474.67L-807.21,485.01C-807.21,485.65 -807.21,486.49 -807.06,487.17C-806.90,487.86 -806.60,488.43 -805.99,488.43C-805.69,488.43 -805.31,488.39 -805.04,488.35C-804.89,488.31 -804.74,488.31 -804.59,488.28L-804.59,492.04C-804.78,492.08 -804.97,492.15 -805.16,492.19C-805.54,492.27 -806.03,492.30 -806.64,492.30C-808.88,492.30 -809.94,491.16 -810.48,489.72C-811.01,488.28 -811.05,486.53 -811.05,485.31L-811.05,474.67L-812.98,474.67L-812.98,471.21L-811.05,471.21L-811.05,466.08ZM-798.70,492L-802.53,492L-802.53,464.07L-798.70,464.07L-798.70,472.96C-798.62,472.92 -798.47,472.77 -798.24,472.54C-797.82,472.13 -797.25,471.56 -796.57,471.18C-796.23,470.99 -795.92,470.91 -795.58,470.91C-794.55,470.91 -793.83,471.52 -793.38,472.28C-792.92,473.08 -792.69,474.10 -792.69,474.98L-792.69,492L-796.53,492L-796.53,475.55C-796.53,474.75 -796.99,474.63 -797.44,474.63C-797.86,474.63 -798.09,474.86 -798.35,475.13C-798.47,475.28 -798.58,475.43 -798.70,475.62ZM-789.73,464.07L-785.89,464.07L-785.89,467.91L-789.73,467.91ZM-789.73,492L-789.73,471.21L-785.89,471.21L-785.89,492ZM-779.32,487.21C-779.32,487.97 -779.28,488.88 -778.25,488.88C-777.38,488.88 -777.15,488.47 -777.15,487.21L-777.15,484.32L-773.31,484.32L-773.31,486.34C-773.31,488.66 -773.73,490.14 -774.57,491.05C-775.40,491.96 -776.62,492.30 -778.25,492.30C-779.62,492.30 -780.87,491.92 -781.75,490.97C-782.62,490.02 -783.15,488.47 -783.15,486.15L-783.15,477.07C-783.15,474.75 -782.62,473.19 -781.75,472.24C-780.87,471.29 -779.62,470.91 -778.25,470.91C-776.62,470.91 -775.40,471.25 -774.57,472.16C-773.73,473.08 -773.31,474.56 -773.31,476.88L-773.31,478.51L-777.15,478.51L-777.15,476.00C-777.15,474.75 -777.38,474.33 -778.25,474.33C-779.28,474.33 -779.32,475.24 -779.32,476.00ZM-771.03,479.95L-765.52,479.95L-765.52,483.56L-771.03,483.56ZM-755.30,492L-757.43,480.22L-758.53,480.22L-758.53,492L-762.63,492L-762.63,464.07L-758.53,464.07C-753.63,464.07 -751.54,466.84 -751.54,472.13C-751.54,474.90 -752.26,477.41 -753.82,478.47L-751.20,492ZM-758.53,476.42C-757.96,476.42 -757.20,476.34 -756.59,475.81C-755.98,475.28 -755.49,474.25 -755.49,472.28C-755.49,470.30 -755.98,469.24 -756.59,468.71C-757.20,468.17 -757.96,468.14 -758.53,468.14ZM-739.30,484.55L-739.30,486.95C-739.42,488.96 -740.02,490.37 -741.39,491.47C-742.08,492.04 -743.03,492.30 -744.28,492.30C-746.75,492.30 -748.00,490.94 -748.61,489.57C-748.95,488.77 -749.18,487.86 -749.22,486.83L-749.22,476.38C-749.11,474.37 -748.46,472.89 -747.09,471.75C-746.45,471.18 -745.50,470.91 -744.24,470.91C-741.77,470.91 -740.52,472.28 -739.91,473.61C-739.57,474.41 -739.34,475.28 -739.30,476.27L-739.30,482.31L-745.65,482.31L-745.65,486.83C-745.61,487.63 -745.38,488.20 -745.04,488.62C-744.85,488.81 -744.58,488.92 -744.24,488.92C-743.52,488.92 -743.18,488.47 -743.03,487.90C-742.91,487.59 -742.87,487.25 -742.87,486.83L-742.87,484.55ZM-745.65,479.31L-742.87,479.31L-742.87,476.38C-742.87,475.58 -743.03,475.01 -743.41,474.56C-743.60,474.37 -743.90,474.25 -744.24,474.25C-744.96,474.25 -745.27,474.75 -745.46,475.32C-745.57,475.62 -745.61,475.96 -745.65,476.38ZM-727.29,481.97C-727.41,483.91 -728.09,485.27 -729.42,486.30C-730.11,486.83 -731.06,487.10 -732.23,487.10C-732.35,487.10 -732.46,487.10 -732.58,487.10C-732.69,487.10 -732.84,487.10 -732.96,487.06C-733.30,487.36 -733.49,487.67 -733.49,488.01C-733.49,488.47 -733.11,488.73 -732.54,488.88C-731.97,489.07 -731.28,489.19 -730.56,489.30C-729.35,489.45 -728.05,489.76 -726.99,490.48C-725.96,491.20 -725.24,492.30 -725.24,494.13C-725.24,496.14 -726.12,497.51 -727.33,498.31C-728.59,499.11 -730.26,499.45 -731.82,499.45C-733.64,499.41 -735.20,499.14 -736.26,498.54C-737.36,497.93 -737.97,496.94 -737.97,495.42C-737.97,494.70 -737.59,494.09 -737.02,493.56C-736.45,493.03 -735.69,492.61 -734.97,492.27C-736.22,491.92 -737.29,491.13 -737.29,489.49C-737.29,488.88 -736.95,488.28 -736.49,487.71C-736.03,487.14 -735.46,486.68 -734.89,486.38C-736.00,485.65 -736.53,484.51 -736.79,483.56C-736.95,482.99 -737.06,482.42 -737.10,481.85L-737.10,476.19C-736.95,474.25 -736.34,472.85 -735.01,471.75C-734.36,471.18 -733.41,470.91 -732.23,470.91C-730.30,470.91 -729.12,471.78 -728.40,472.81C-728.13,472.54 -727.67,472.09 -727.07,471.67C-726.50,471.25 -725.85,470.91 -725.24,470.91L-725.24,474.33C-726.27,474.33 -727.03,474.52 -727.48,474.79C-727.45,474.98 -727.41,475.17 -727.37,475.28C-727.37,475.43 -727.37,475.58 -727.33,475.70C-727.29,475.81 -727.29,475.96 -727.29,476.08ZM-731.06,476.34C-731.06,475.62 -731.21,475.17 -731.51,474.75C-731.66,474.56 -731.89,474.44 -732.23,474.44C-732.84,474.44 -733.15,474.94 -733.26,475.39C-733.34,475.66 -733.37,476.00 -733.34,476.34L-733.34,482.04C-733.37,482.77 -733.26,483.22 -732.92,483.60C-732.77,483.79 -732.54,483.91 -732.23,483.91C-731.59,483.91 -731.32,483.45 -731.17,482.99C-731.09,482.73 -731.06,482.39 -731.06,482.04ZM-732.84,492.95C-733.64,493.41 -734.25,493.98 -734.25,494.77C-734.25,495.57 -733.53,496.22 -731.74,496.22C-731.09,496.22 -730.37,496.10 -729.80,495.88C-729.23,495.65 -728.81,495.31 -728.81,494.81C-728.81,494.47 -728.85,494.20 -729.12,493.94C-729.42,493.67 -729.92,493.48 -730.87,493.33ZM-717.76,471.21L-713.92,471.21L-713.92,492L-717.76,492L-717.76,490.25C-717.83,490.29 -717.98,490.44 -718.17,490.63C-718.63,491.09 -719.16,491.62 -719.85,492C-720.19,492.19 -720.53,492.30 -720.87,492.30C-721.90,492.30 -722.62,491.70 -723.08,490.90C-723.53,490.14 -723.76,489.11 -723.76,488.24L-723.76,471.21L-719.92,471.21L-719.92,487.67C-719.92,488.47 -719.47,488.58 -719.01,488.58C-718.59,488.58 -718.36,488.35 -718.10,488.09C-717.98,487.97 -717.87,487.78 -717.76,487.59ZM-710.88,492L-710.88,464.07L-707.04,464.07L-707.04,492ZM-698.19,476.15C-698.19,475.81 -698.19,475.28 -698.30,474.90C-698.45,474.52 -698.76,474.25 -699.25,474.25C-699.90,474.25 -700.16,474.75 -700.28,475.36C-700.31,475.66 -700.35,476.00 -700.35,476.34C-700.35,476.69 -700.35,477.03 -700.35,477.33L-704.19,477.33L-704.19,476.46C-704.19,474.94 -703.62,473.57 -702.71,472.54C-701.80,471.52 -700.50,470.91 -699.02,470.91C-697.77,470.91 -696.63,471.40 -695.75,472.24C-694.88,473.08 -694.35,474.25 -694.35,475.62L-694.35,488.39C-694.35,490.25 -694.23,491.09 -694.08,492L-697.84,492C-698.19,491.58 -698.19,490.59 -698.19,490.33L-698.45,490.33C-698.64,490.67 -698.98,491.16 -699.52,491.58C-700.05,492 -700.77,492.30 -701.53,492.30C-702.02,492.30 -702.82,492.11 -703.43,491.35C-704.08,490.63 -704.61,489.34 -704.61,487.17C-704.61,484.86 -703.92,483.18 -703.01,482.04C-702.10,480.90 -700.96,480.18 -700.01,479.69C-699.06,479.19 -698.34,478.85 -698.19,478.43ZM-698.19,481.97C-700.05,482.77 -700.85,484.63 -700.85,486.60C-700.85,486.87 -700.81,487.33 -700.66,487.74C-700.50,488.20 -700.24,488.54 -699.78,488.54C-698.91,488.54 -698.19,488.01 -698.19,487.29ZM-684.05,475.17C-684.39,475.05 -684.77,475.01 -685.11,475.01C-685.72,475.01 -686.44,475.09 -687.05,475.66C-687.77,476.27 -687.89,476.91 -687.89,477.56L-687.89,492L-691.73,492L-691.73,471.21L-687.89,471.21L-687.89,473.53C-687.85,473.27 -687.58,472.62 -686.98,472.01C-686.37,471.44 -685.46,470.91 -684.05,470.91Z"/>
</svg>