<?xml version="1.0"?>
<svg xmlns="http://www.w3.org/2000/svg" width="1920" height="1080" viewBox="-960 -540 1920 1080">
    <path d="M-542.35,-147L-542.35,-165.87L-633.81,-165.87L-633.81,-219.15L-555.67,-219.15L-555.67,-238.02L-633.81,-238.02L-633.81,-287.97L-544.57,-287.97L-544.57,-306.84L-654.90,-306.84L-654.90,-147ZM-462.65,-147L-420.69,-258L-438.45,-264.22L-471.97,-170.09L-505.05,-264.22L-522.81,-258L-480.85,-147ZM-378.18,-168.96L-389.83,-199.60L-304.14,-199.61L-303.03,-207.61L-316.25,-249.90L-356.30,-267.08L-395.47,-250.55L-410.19,-204.81L-395.47,-159.07L-356.30,-142.54L-323.32,-152.28L-308.14,-176.08L-323.69,-185.79L-335.80,-166.04L-355.17,-159.53ZM-389.17,-215.60L-376.63,-242.02L-356.32,-250.12L-333.67,-240.49L-324.56,-215.60ZM-232.78,-247.65L-217.78,-242.68L-211.79,-259.55L-231.34,-266.96L-250.42,-261.05L-263.74,-242.46L-263.74,-262.44L-281.72,-262.44L-281.72,-148.13L-261.74,-147L-261.74,-209.38L-254.43,-237.22ZM-187.15,-117.70L-193.58,-118.81L-197.15,-102.58L-184.49,-100.38L-162.68,-109.90L-149.57,-134.23L-103.67,-257.56L-120.77,-264.22L-154.28,-172.53L-188.48,-264.22L-206.46,-257.56L-163.59,-148.12L-168.16,-135.58L-176.72,-122.03ZM-36.23,-145.45L-36.23,-145.46L-38.53,-162.67L-47.48,-161.33L-57.11,-166.21L-58.83,-180.74L-58.83,-247.12L-39.07,-247.12L-39.07,-262.44L-58.83,-262.44L-58.83,-302.40L-78.81,-302.40L-78.81,-262.44L-95.24,-262.44L-95.24,-247.12L-78.81,-247.12L-78.81,-180.74L-74.25,-152.87L-51.50,-143.32ZM-14.43,-147L5.69,-147L5.69,-209.83L14.35,-239.07L36.92,-249.32L55.65,-240.67L61.06,-217.08L61.05,-147L80.98,-147L81.07,-217.24L73.48,-252.61L40.99,-266.54L19.68,-261.65L5.67,-246.68L5.67,-306.84L-14.43,-306.84ZM124.60,-281.74L131.83,-289.64L131.84,-300.93L124.48,-309.02L114.22,-309.02L107.05,-300.95L107.05,-289.68L114.34,-281.74ZM129.43,-147L129.43,-262.44L109.45,-262.44L109.45,-147ZM157.74,-147L177.72,-147L177.72,-209.83L186.38,-239.49L208.96,-249.74L227.68,-241.08L233.10,-217.82L233.10,-147L253.08,-147L253.08,-217.82L245.52,-253.03L213.03,-266.96L191.45,-262.20L175.72,-245.79L175.72,-262.44L157.74,-262.44ZM324.99,-98.70L366.34,-116.06L376.29,-154.55L376.29,-262.44L358.53,-262.44L358.53,-246.90L345.45,-261.65L325.21,-267.42L287.73,-250.05L274.73,-205.16L287.73,-160.26L325.21,-142.89L343.09,-147.15L356.31,-159.21L356.25,-150.74L349.19,-124.90L325.46,-115.92L306.97,-121.13L299.70,-136.79L283.72,-129.46L293.79,-108.22ZM326.35,-250.43L348.41,-238.99L358.74,-205.14L349.25,-171.29L326.35,-159.86L304.03,-171.29L295.12,-205.14L304.03,-238.99ZM482.25,-281.74L489.47,-289.64L489.49,-300.93L482.12,-309.02L471.86,-309.02L464.69,-300.95L464.69,-289.68L471.98,-281.74ZM487.07,-147L487.07,-262.44L467.09,-262.44L467.09,-147ZM528.01,-182.76L511.04,-174.83L522.34,-152.18L556.54,-142.42L589.17,-150.54L604.12,-178.19L595.14,-201.88L575.70,-211.87L548.78,-219.15L533.82,-225.14L528.92,-234.37L535.34,-245.75L554.17,-249.93L572.27,-245.00L580.05,-230.31L596.86,-238.23L587.08,-257.57L554.93,-266.99L523.09,-258.82L509.41,-232.12L518.29,-210.92L538.32,-201.37L566.77,-193.84L580.17,-187.11L583.71,-176.42L574.79,-163.01L557.22,-159.45L535.99,-166.43ZM-456.99,39.69L-496.97,20.47L-509.76,-27.13L-496.11,-74.71L-456.99,-93.93L-425.66,-83.29L-410.81,-55.66L-392.01,-65.16L-411.61,-97.80L-456.99,-112.04L-513.38,-87.15L-532.40,-27.11L-513.38,32.92L-456.99,57.80L-411.71,43.34L-392.46,11.83L-410.81,1.65L-427.18,29.25ZM-317.47,-67.19L-357.21,-50.66L-372.49,-4.92L-357.20,40.82L-317.47,57.35L-277.72,40.81L-262.43,-4.92L-277.71,-50.66ZM-317.47,40.37L-341.49,29.79L-352.09,-4.90L-341.48,-39.61L-317.47,-50.20L-293.42,-39.61L-282.80,-4.90L-293.42,29.79ZM-241.86,52.80L-221.88,52.80L-221.88,-10.03L-213.22,-39.69L-190.64,-49.94L-171.92,-41.28L-166.50,-18.02L-166.50,52.80L-146.52,52.80L-146.52,-18.02L-154.08,-53.23L-186.57,-67.16L-208.15,-62.40L-223.88,-45.99L-223.88,-62.64L-241.86,-62.64ZM-118.65,52.80L-98.67,52.80L-98.67,-10.03L-90.01,-39.69L-67.43,-49.94L-48.71,-41.28L-43.29,-18.02L-43.29,52.80L-23.31,52.80L-23.31,-18.02L-30.87,-53.23L-63.36,-67.16L-84.94,-62.40L-100.67,-45.99L-100.67,-62.64L-118.65,-62.64ZM29.41,30.84L17.76,0.20L103.45,0.19L104.56,-7.81L91.34,-50.10L51.29,-67.28L12.12,-50.75L-2.59,-5.01L12.12,40.73L51.29,57.26L84.27,47.52L99.46,23.72L83.90,14.01L71.79,33.76L52.43,40.27ZM18.43,-15.80L30.96,-42.22L51.27,-50.32L73.93,-40.69L83.03,-15.80ZM172.14,40.37L148.67,29.78L138.62,-4.92L148.67,-39.63L172.14,-50.22L190.29,-43.90L201.34,-23.48L218.54,-32.09L203.72,-56.86L172.14,-67.19L132.96,-50.66L118.23,-4.92L132.94,40.82L172.14,57.35L203.72,47.13L218.32,22.93L201.34,13.88L190.28,34.10ZM291.22,54.35L291.22,54.34L288.92,37.13L279.97,38.47L270.34,33.59L268.62,19.06L268.62,-47.32L288.38,-47.32L288.38,-62.64L268.62,-62.64L268.62,-102.60L248.64,-102.60L248.64,-62.64L232.21,-62.64L232.21,-47.32L248.64,-47.32L248.64,19.06L253.20,46.93L275.95,56.48ZM337.99,30.84L326.34,0.20L412.03,0.19L413.14,-7.81L399.92,-50.10L359.87,-67.28L320.70,-50.75L305.99,-5.01L320.70,40.73L359.87,57.26L392.85,47.52L408.04,23.72L392.48,14.01L380.37,33.76L361.01,40.27ZM327.01,-15.80L339.54,-42.22L359.85,-50.32L382.51,-40.69L391.61,-15.80ZM527.69,-107.04L507.71,-107.04L507.71,-50.63L495.20,-62.08L476.69,-66.70L439.20,-49.32L426.19,-4.43L439.20,40.46L476.69,57.84L496.28,52.46L509.93,37.04L509.93,52.80L527.69,52.80ZM477.84,-49.72L500.74,-38.28L510.23,-4.43L499.89,29.42L477.84,40.85L455.50,29.42L446.58,-4.43L455.50,-38.28Z" fill="#ffffff" stroke="#000000"/>
    <path d="M-534.72,-170.58L-533.75,-189.24L-624.17,-193.95L-621.43,-246.62L-544.17,-242.60L-543.20,-261.26L-620.46,-265.28L-617.89,-314.66L-529.66,-310.07L-528.69,-328.73L-637.77,-334.40L-646.00,-176.38ZM-455.92,-166.48L-408.73,-274.07L-425.97,-281.13L-463.95,-189.79L-491.81,-284.55L-509.69,-279.32L-473.92,-167.42ZM-371.29,-183.85L-381.23,-214.74L-296.51,-210.34L-295.00,-218.19L-305.89,-260.68L-344.60,-279.72L-384.18,-265.40L-401.08,-220.93L-388.89,-174.96L-351.01,-156.60L-317.90,-164.53L-301.67,-187.28L-316.55,-197.69L-329.53,-178.78L-349.02,-173.34ZM-379.75,-230.52L-365.99,-256.00L-345.49,-262.96L-323.59,-252.28L-315.88,-227.20ZM-223.49,-254.16L-208.91,-248.48L-202.12,-264.85L-221.07,-273.18L-240.23,-268.32L-254.36,-250.63L-253.33,-270.38L-271.11,-271.30L-276.99,-158.29L-257.29,-156.14L-254.08,-217.82L-245.43,-244.96ZM-185.05,-123.33L-191.36,-124.76L-195.72,-108.91L-183.32,-106.08L-161.27,-114.37L-147.06,-137.75L-95.33,-257.31L-111.89,-264.78L-149.74,-175.86L-178.83,-268.26L-196.95,-262.60L-160.20,-152.20L-165.37,-140.04L-174.52,-127.08ZM-34.42,-143.01L-34.42,-143.01L-35.81,-160.16L-44.73,-159.29L-53.99,-164.61L-54.95,-179.06L-51.53,-244.69L-32.00,-243.67L-31.21,-258.82L-50.74,-259.83L-48.69,-299.34L-68.44,-300.37L-70.50,-260.86L-86.74,-261.71L-87.53,-246.56L-71.29,-245.72L-74.70,-180.09L-71.63,-152.30L-49.63,-141.69ZM-12.79,-143.42L7.11,-142.38L10.34,-204.50L20.41,-232.97L43.25,-241.94L61.32,-232.42L65.45,-208.82L61.84,-139.53L81.54,-138.51L85.24,-207.95L79.56,-243.31L48.16,-258.75L26.84,-255.01L12.21,-240.93L15.30,-300.41L-4.56,-301.45ZM131.60,-269.48L139.15,-276.92L139.75,-288.08L132.89,-296.46L122.74,-296.99L115.24,-289.38L114.65,-278.23L121.46,-270.01ZM129.44,-136.02L135.38,-250.15L115.62,-251.18L109.68,-137.04ZM157.43,-134.56L177.18,-133.53L180.41,-195.64L190.50,-224.52L213.36,-233.50L231.42,-223.97L235.58,-200.70L231.94,-130.68L251.69,-129.65L255.33,-199.67L249.67,-234.87L218.27,-250.31L196.69,-246.72L180.29,-231.30L181.14,-247.76L163.37,-248.69ZM320.29,-78.20L362.07,-93.23L373.89,-130.77L379.44,-237.44L361.88,-238.36L361.08,-222.99L348.91,-238.25L329.20,-245.00L291.25,-229.75L276.08,-186.03L286.63,-140.98L322.79,-121.87L340.68,-125.17L354.38,-136.41L353.88,-128.04L345.57,-102.86L321.65,-95.20L303.64,-101.31L297.25,-117.16L281.07,-110.74L289.94,-89.22ZM329.45,-228.14L350.67,-215.70L359.15,-181.69L348.02,-148.72L324.79,-138.60L303.31,-151.05L296.24,-184.97L306.80,-217.98ZM485.19,-251.07L492.74,-258.52L493.34,-269.67L486.47,-278.05L476.33,-278.58L468.83,-270.97L468.24,-259.82L475.04,-251.60ZM483.02,-117.61L488.96,-231.74L469.21,-232.77L463.27,-118.64ZM525.34,-150.86L508.15,-143.89L518.16,-120.91L551.47,-109.50L584.15,-115.86L600.35,-142.43L592.70,-166.31L573.99,-177.19L547.75,-185.77L533.27,-192.46L528.89,-201.83L535.83,-212.76L554.67,-215.92L572.30,-210.11L579.23,-195.19L596.26,-202.16L587.59,-221.78L556.30,-232.75L524.39,-226.31L509.50,-200.62L517.18,-179.20L536.49,-168.73L564.23,-159.82L577.13,-152.47L580.08,-141.73L570.58,-128.93L553.02,-126.31L532.40,-134.31ZM-459.94,18.38L-498.48,-2.68L-508.67,-50.40L-492.73,-96.73L-453.06,-113.72L-422.64,-101.59L-409.37,-73.51L-390.30,-81.94L-408.00,-115.22L-452.13,-131.62L-509.16,-109.92L-531.06,-51.54L-515.34,8.78L-460.87,36.28L-415.36,24.32L-394.71,-5.85L-412.32,-16.85L-429.93,9.59ZM-316.50,-80.11L-356.64,-65.81L-374.09,-21.38L-361.34,24.63L-322.90,43.02L-282.76,28.71L-265.29,-15.71L-278.04,-61.72ZM-322.03,26.24L-345.24,14.54L-353.94,-20.31L-341.66,-54.07L-317.37,-63.31L-294.14,-51.60L-285.43,-16.74L-297.71,17.01ZM-247.93,42.41L-228.17,43.44L-224.94,-18.67L-214.85,-47.55L-191.99,-56.53L-173.93,-47.00L-169.77,-23.72L-173.42,46.29L-153.66,47.32L-150.02,-22.70L-155.68,-57.89L-187.09,-73.34L-208.66,-69.75L-225.06,-54.33L-224.21,-70.79L-241.98,-71.72ZM-126.11,48.75L-106.36,49.78L-103.13,-12.33L-93.03,-41.21L-70.18,-50.18L-52.12,-40.66L-47.96,-17.38L-51.60,52.63L-31.85,53.66L-28.20,-16.36L-33.87,-51.55L-65.27,-67.00L-86.85,-63.41L-103.25,-47.99L-102.39,-64.45L-120.17,-65.38ZM21.40,34.66L11.46,3.77L96.18,8.16L97.69,0.32L86.80,-42.17L48.09,-61.22L8.51,-46.89L-8.39,-2.43L3.80,43.55L41.68,61.91L74.79,53.98L91.02,31.22L76.14,20.82L63.16,39.73L43.67,45.17ZM12.94,-12.01L26.70,-37.49L47.20,-44.45L69.10,-33.77L76.81,-8.69ZM162.02,51.43L139.36,39.75L131.22,4.92L142.93,-28.87L166.68,-38.13L184.31,-30.95L194.18,-10.20L211.63,-17.83L198.25,-43.07L167.55,-54.91L127.97,-40.59L111.06,3.88L123.25,49.85L161.15,68.21L192.89,59.74L208.58,36.56L192.26,26.74L180.28,46.16ZM279.03,71.38L279.04,71.37L277.64,54.23L268.73,55.09L259.46,49.78L258.51,35.32L261.92,-30.31L281.46,-29.29L282.25,-44.43L262.71,-45.45L264.77,-84.96L245.01,-85.98L242.96,-46.48L226.72,-47.32L225.93,-32.18L242.17,-31.33L238.75,34.29L241.83,62.08L263.82,72.70ZM326.48,50.54L316.54,19.65L401.26,24.04L402.77,16.20L391.88,-26.29L353.17,-45.34L313.59,-31.01L296.69,13.45L308.88,59.43L346.76,77.79L379.87,69.86L396.10,47.10L381.22,36.70L368.24,55.61L348.75,61.05ZM318.02,3.87L331.78,-21.61L352.28,-28.57L374.18,-17.89L381.89,7.19ZM521.13,-76.01L501.38,-77.04L498.48,-21.28L486.69,-33.23L468.63,-38.75L430.68,-23.50L415.50,20.21L426.06,65.26L462.23,84.37L481.86,80.06L496.16,65.52L495.35,81.10L512.91,82.01ZM468.90,-21.91L490.95,-9.42L498.58,24.54L486.62,57.47L464.24,67.63L442.73,55.18L435.66,21.26L446.22,-11.75Z" fill="#ffffff" stroke="#000000"/>
    <path d="M-525.98,-193.83L-524.06,-212.23L-613.21,-221.53L-607.79,-273.46L-531.62,-265.51L-529.70,-283.91L-605.87,-291.86L-600.79,-340.54L-513.80,-331.46L-511.88,-349.86L-619.42,-361.08L-635.68,-205.28ZM-448.30,-185.72L-396.11,-289.65L-412.78,-297.51L-455.04,-209.18L-477.70,-304.29L-495.64,-300.04L-466.04,-187.58ZM-363.74,-198.53L-371.97,-229.58L-288.44,-220.88L-286.55,-228.56L-295.13,-271.12L-332.42,-291.94L-372.28,-279.82L-391.28,-236.73L-381.59,-190.65L-345.09,-170.55L-311.95,-176.69L-294.73,-198.35L-308.91,-209.40L-322.72,-191.38L-342.26,-187.00ZM-369.69,-245.11L-354.78,-269.59L-334.16,-275.42L-313.06,-263.73L-306.73,-238.54ZM-214.01,-260.44L-199.89,-254.07L-192.33,-269.91L-210.64,-279.11L-229.83,-275.29L-244.70,-258.53L-242.67,-278.01L-260.20,-279.84L-271.83,-168.42L-252.47,-165.28L-246.12,-226.09L-236.17,-252.47ZM-182.74,-129.13L-188.91,-130.87L-194.03,-115.42L-181.91,-111.98L-159.69,-119.05L-144.44,-141.42L-87.15,-256.96L-103.14,-265.19L-145.13,-179.24L-169.14,-272.08L-187.34,-267.42L-156.69,-156.39L-162.42,-144.63L-172.14,-132.29ZM-32.83,-140.83L-32.82,-140.83L-33.32,-157.85L-42.17,-157.46L-51.06,-163.19L-51.26,-177.53L-44.51,-242.23L-25.25,-240.22L-23.69,-255.15L-42.95,-257.16L-38.88,-296.11L-58.36,-298.14L-62.42,-259.19L-78.43,-260.86L-79.99,-245.93L-63.98,-244.26L-70.73,-179.56L-69.13,-151.93L-47.93,-140.31ZM-11.42,-140.12L8.20,-138.07L14.59,-199.31L26.01,-226.94L49.05,-234.63L66.43,-224.29L69.30,-200.75L62.15,-132.44L81.58,-130.42L88.81,-198.87L85.01,-234.12L54.77,-251.00L33.50,-248.40L18.31,-235.23L24.43,-293.87L4.85,-295.92ZM137.81,-257.31L145.65,-264.28L146.82,-275.28L140.47,-283.92L130.46,-284.96L122.66,-277.82L121.51,-266.83L127.81,-258.35ZM128.80,-125.49L140.55,-238.01L121.07,-240.04L109.33,-127.52ZM156.40,-122.61L175.87,-120.57L182.26,-181.81L193.72,-209.84L216.78,-217.53L234.14,-207.19L237.06,-183.96L229.85,-114.94L249.33,-112.91L256.53,-181.93L252.74,-217.02L222.49,-233.90L200.98,-231.46L183.97,-217.07L185.67,-233.30L168.14,-235.13ZM314.50,-58.52L356.57,-71.22L370.19,-107.73L381.17,-212.89L363.85,-214.70L362.27,-199.55L351.03,-215.25L331.89,-222.94L293.59,-209.82L276.34,-167.39L284.45,-122.31L319.22,-101.56L337.07,-103.89L351.19,-114.30L350.27,-106.05L340.76,-81.59L316.71,-75.25L299.23,-82.21L293.73,-98.21L277.40,-92.69L285.06,-70.96ZM331.26,-206.27L351.60,-192.87L358.23,-158.82L345.54,-126.80L322.05,-117.99L301.46,-131.40L296.22,-165.29L308.35,-197.39ZM486.41,-220.92L494.25,-227.89L495.41,-238.89L489.06,-247.53L479.06,-248.57L471.25,-241.44L470.10,-230.44L476.40,-221.97ZM477.40,-89.10L489.14,-201.62L469.67,-203.65L457.92,-91.13ZM520.94,-119.79L503.59,-113.79L512.30,-90.56L544.64,-77.56L577.28,-82.16L594.66,-107.60L588.32,-131.60L570.38,-143.32L544.89,-153.15L530.92,-160.51L527.08,-170.00L534.50,-180.44L553.28,-182.60L570.41,-175.95L576.50,-160.84L593.69,-166.85L586.13,-186.70L555.75,-199.15L523.88,-194.42L507.84,-169.79L514.33,-148.23L532.88,-136.88L559.84,-126.65L572.22,-118.72L574.59,-107.94L564.53,-95.78L547.04,-94.09L527.06,-103.06ZM-461.78,-3.18L-498.79,-25.98L-506.41,-73.68L-488.27,-118.67L-448.18,-133.42L-418.73,-119.86L-407.06,-91.42L-387.77,-98.77L-403.56,-132.58L-446.34,-151.07L-503.83,-132.55L-528.48,-75.96L-516.05,-15.52L-463.62,14.47L-418.01,4.98L-396.04,-23.77L-412.89,-35.56L-431.66,-10.32ZM-314.91,-93.16L-355.33,-81.10L-374.87,-38.07L-364.63,8.07L-327.58,28.22L-287.15,16.15L-267.60,-26.87L-277.83,-73.01ZM-325.85,11.68L-348.19,-1.08L-355.00,-35.97L-341.12,-68.72L-316.64,-76.60L-294.28,-63.83L-287.46,-28.92L-301.34,3.81ZM-253.42,31.48L-233.95,33.52L-227.56,-27.72L-216.10,-55.75L-193.04,-63.44L-175.68,-53.10L-172.76,-29.87L-179.97,39.15L-160.49,41.18L-153.29,-27.84L-157.08,-62.93L-187.33,-79.81L-208.84,-77.37L-225.85,-62.98L-224.15,-79.21L-241.68,-81.04ZM-133.33,44.02L-113.86,46.05L-107.46,-15.18L-96.00,-43.21L-72.95,-50.91L-55.59,-40.57L-52.67,-17.34L-59.87,51.69L-40.40,53.72L-33.19,-15.31L-36.98,-50.39L-67.23,-67.28L-88.75,-64.84L-105.75,-50.44L-104.06,-66.67L-121.59,-68.50ZM13.22,37.68L4.98,6.63L88.51,15.33L90.40,7.66L81.82,-34.91L44.53,-55.73L4.67,-43.60L-14.33,-0.52L-4.64,45.56L31.86,65.66L65.00,59.52L82.22,37.86L68.05,26.82L54.24,44.84L34.69,49.21ZM7.26,-8.90L22.17,-33.38L42.79,-39.20L63.89,-27.52L70.23,-2.32ZM151.37,61.49L129.57,48.78L123.31,13.93L136.63,-18.87L160.58,-26.81L177.64,-18.80L186.33,2.22L203.97,-4.42L192.04,-30.06L162.31,-43.35L122.44,-31.23L103.43,11.86L113.12,57.94L149.64,78.04L181.46,71.30L198.15,49.19L182.53,38.64L169.69,57.22ZM266.01,87.23L266.02,87.23L265.52,70.21L256.67,70.60L247.78,64.87L247.58,50.53L254.33,-14.17L273.59,-12.16L275.15,-27.09L255.89,-29.10L259.96,-68.05L240.48,-70.08L236.42,-31.13L220.40,-32.80L218.85,-17.87L234.86,-16.20L228.10,48.50L229.71,76.13L250.91,87.76ZM313.99,69.08L305.76,38.03L389.28,46.73L391.18,39.05L382.59,-3.51L345.31,-24.33L305.45,-12.21L286.45,30.88L296.14,76.96L332.64,97.06L365.78,90.92L382.99,69.26L368.82,58.21L355.01,76.23L335.47,80.61ZM308.03,22.50L322.94,-1.98L343.56,-7.81L364.66,3.88L371.00,29.07ZM512.93,-46.02L493.45,-48.05L487.72,6.93L476.68,-5.50L459.11,-11.88L420.81,1.24L403.55,43.67L411.67,88.75L446.44,109.50L466.08,106.25L480.96,92.61L479.36,107.97L496.67,109.78ZM458.51,4.78L479.66,18.26L485.46,52.22L471.95,84.16L449.29,93.06L428.68,79.64L423.42,45.75L435.56,13.66Z" fill="#ffffff" stroke="#000000"/>
    <path d="M-516.14,-216.69L-513.29,-234.77L-600.93,-248.55L-592.90,-299.61L-518.03,-287.83L-515.18,-305.91L-590.06,-317.69L-582.53,-365.55L-497.02,-352.10L-494.17,-370.18L-599.90,-386.81L-623.99,-233.65ZM-439.77,-204.67L-382.83,-304.71L-398.91,-313.35L-445.22,-228.20L-462.73,-323.38L-480.69,-320.10L-457.21,-207.42ZM-355.52,-212.99L-362.07,-244.10L-279.95,-231.20L-277.68,-238.69L-283.98,-281.21L-319.77,-303.71L-359.79,-293.77L-380.78,-252.16L-373.58,-206.11L-338.54,-184.37L-305.46,-188.73L-287.33,-209.25L-300.77,-220.90L-315.35,-203.80L-334.89,-200.48ZM-359.02,-259.33L-343.02,-282.76L-322.34,-287.46L-302.08,-274.82L-297.11,-249.60ZM-204.34,-266.47L-190.71,-259.45L-182.43,-274.72L-200.05,-284.76L-219.22,-281.97L-234.78,-266.17L-231.77,-285.31L-249.00,-288.02L-266.23,-178.49L-247.25,-174.39L-237.85,-234.17L-226.66,-259.74ZM-180.19,-135.07L-186.19,-137.11L-192.05,-122.10L-180.25,-118.08L-157.93,-123.92L-141.70,-145.25L-79.13,-256.51L-94.51,-265.47L-140.43,-182.67L-159.39,-275.67L-177.62,-272.00L-153.03,-160.67L-159.31,-149.35L-169.55,-137.65ZM-31.40,-138.92L-31.40,-138.93L-31.01,-155.77L-39.79,-155.84L-48.28,-161.96L-47.74,-176.15L-37.73,-239.75L-18.80,-236.77L-16.49,-251.45L-35.42,-254.43L-29.40,-292.72L-48.55,-295.73L-54.57,-257.44L-70.31,-259.92L-72.62,-245.24L-56.88,-242.76L-66.88,-179.16L-66.72,-151.76L-46.36,-139.18ZM-10.28,-137.12L9.01,-134.09L18.47,-194.29L31.18,-221.01L54.35,-227.43L71.00,-216.31L72.62,-192.90L62.05,-125.75L81.15,-122.74L91.82,-190.04L89.88,-225.07L60.85,-243.32L39.69,-241.84L24.00,-229.61L33.07,-287.26L13.81,-290.28ZM143.26,-245.28L151.37,-251.76L153.09,-262.58L147.25,-271.44L137.42,-272.99L129.33,-266.34L127.63,-255.53L133.42,-246.83ZM127.57,-115.44L144.97,-226.06L125.82,-229.07L108.42,-118.45ZM154.70,-111.17L173.84,-108.16L183.31,-168.36L196.08,-195.48L219.27,-201.90L235.90,-190.78L237.59,-167.67L226.91,-99.82L246.06,-96.80L256.73,-164.66L254.79,-199.54L225.76,-217.79L204.37,-216.48L186.82,-203.13L189.33,-219.08L172.09,-221.79ZM307.68,-39.69L349.92,-50.08L365.26,-85.47L381.52,-188.85L364.50,-191.53L362.16,-176.64L351.85,-192.74L333.33,-201.33L294.79,-190.32L275.56,-149.27L281.26,-104.29L314.56,-81.99L332.33,-83.38L346.81,-92.95L345.48,-84.84L334.82,-61.14L310.73,-56.12L293.80,-63.90L289.19,-79.99L272.77,-75.38L279.22,-53.51ZM331.85,-184.87L351.27,-170.59L356.07,-136.59L341.87,-105.59L318.20,-98.08L298.54,-112.40L295.10,-146.18L308.75,-177.27ZM485.96,-191.38L494.07,-197.86L495.79,-208.68L489.95,-217.54L480.12,-219.09L472.03,-212.43L470.33,-201.63L476.12,-192.92ZM470.27,-61.54L487.67,-172.16L468.52,-175.17L451.12,-64.55ZM514.89,-89.64L497.43,-84.59L504.85,-61.18L536.15,-46.68L568.64,-49.54L587.13,-73.79L582.10,-97.84L564.97,-110.35L540.28,-121.37L526.85,-129.37L523.54,-138.95L531.41,-148.89L550.09,-150.05L566.68,-142.60L571.92,-127.35L589.22,-132.41L582.77,-152.42L553.38,-166.29L521.64,-163.25L504.51,-139.73L509.82,-118.09L527.57,-105.91L553.70,-94.41L565.52,-85.94L567.31,-75.16L556.74,-63.66L539.37,-62.89L520.08,-72.79ZM-462.48,-24.93L-497.90,-49.37L-502.98,-96.91L-482.73,-140.45L-442.35,-152.97L-413.93,-138.05L-403.86,-109.34L-384.41,-115.61L-398.28,-149.84L-439.62,-170.32L-497.40,-154.97L-524.68,-100.31L-515.50,-39.92L-465.21,-7.58L-419.65,-14.61L-396.45,-41.90L-412.50,-54.43L-432.34,-30.44ZM-312.68,-106.32L-353.25,-96.47L-374.79,-54.94L-367.04,-8.81L-331.45,13.02L-290.87,3.16L-269.33,-38.36L-277.07,-84.49ZM-328.89,-3.25L-350.32,-17.01L-355.25,-51.85L-339.85,-83.51L-315.24,-90.04L-293.80,-76.26L-288.85,-41.41L-304.26,-9.76ZM-258.32,20.05L-239.18,23.06L-229.71,-37.14L-216.93,-64.25L-193.75,-70.67L-177.12,-59.56L-175.43,-36.45L-186.11,31.41L-166.96,34.42L-156.29,-33.44L-158.23,-68.31L-187.26,-86.56L-208.65,-85.25L-226.20,-71.90L-223.69,-87.85L-240.92,-90.56ZM-140.26,38.62L-121.11,41.63L-111.64,-18.57L-98.87,-45.68L-75.69,-52.10L-59.06,-40.99L-57.37,-17.88L-68.04,49.98L-48.90,52.99L-38.22,-14.87L-40.17,-49.74L-69.20,-67.99L-90.59,-66.68L-108.14,-53.33L-105.63,-69.28L-122.86,-71.99ZM4.93,39.90L-1.62,8.78L80.50,21.68L82.77,14.19L76.47,-28.33L40.68,-50.82L0.66,-40.89L-20.34,0.72L-13.13,46.77L21.91,68.51L54.99,64.15L73.12,43.63L59.68,31.98L45.10,49.08L25.56,52.40ZM1.43,-6.45L17.43,-29.88L38.11,-34.58L58.37,-21.94L63.34,3.29ZM140.25,70.54L119.36,56.86L114.97,22.09L129.82,-9.65L153.91,-16.26L170.36,-7.48L177.87,13.76L195.64,8.10L185.17,-17.87L156.47,-32.53L116.43,-22.60L95.43,19.01L102.63,65.06L137.70,86.81L169.50,81.78L187.14,60.79L172.23,49.56L158.59,67.26ZM252.25,101.88L252.26,101.88L252.64,85.03L243.87,84.97L235.38,78.84L235.92,64.66L245.92,1.05L264.86,4.03L267.17,-10.65L248.23,-13.63L254.26,-51.92L235.11,-54.93L229.09,-16.64L213.35,-19.11L211.04,-4.44L226.78,-1.96L216.78,61.64L216.94,89.04L237.30,101.62ZM300.61,86.40L294.07,55.29L376.18,68.19L378.45,60.70L372.16,18.18L336.37,-4.32L296.35,5.62L275.35,47.23L282.56,93.28L317.60,115.02L350.67,110.66L368.81,90.14L355.37,78.49L340.79,95.59L321.25,98.91ZM297.12,40.06L313.12,16.63L333.80,11.93L354.05,24.57L359.02,49.79ZM503.17,-17.13L484.03,-20.14L475.53,33.91L465.26,21.06L448.22,13.84L409.68,24.85L390.44,65.90L396.15,110.88L429.45,133.18L449.03,130.97L464.44,118.26L462.07,133.36L479.08,136.04ZM446.77,30.28L466.98,44.70L470.97,78.57L455.97,109.44L433.12,117.07L413.43,102.75L409.98,68.97L423.63,37.88Z" fill="#ffffff" stroke="#000000"/>
    <path d="M-505.21,-239.09L-501.47,-256.81L-587.38,-274.94L-576.82,-324.99L-503.42,-309.50L-499.67,-327.22L-573.08,-342.71L-563.17,-389.63L-479.35,-371.94L-475.60,-389.66L-579.24,-411.54L-610.93,-261.40ZM-430.35,-223.29L-368.93,-319.23L-384.38,-328.59L-434.53,-246.82L-446.94,-341.79L-464.85,-339.48L-447.45,-226.89ZM-346.66,-227.17L-351.52,-258.25L-271.03,-241.28L-268.40,-248.57L-272.44,-290.91L-306.65,-314.99L-346.72,-307.23L-369.61,-267.18L-364.85,-221.30L-331.34,-198.01L-298.43,-200.62L-279.45,-219.97L-292.13,-232.18L-307.42,-216.02L-326.91,-213.75ZM-347.73,-273.15L-330.71,-295.49L-310.03,-299.07L-290.66,-285.53L-287.04,-260.34ZM-194.48,-272.25L-181.37,-264.62L-172.40,-279.27L-189.30,-290.11L-208.39,-288.34L-224.58,-273.52L-220.62,-292.28L-237.51,-295.85L-260.17,-188.48L-241.63,-183.45L-229.26,-242.05L-216.88,-266.75ZM-177.38,-141.14L-183.20,-143.46L-189.77,-128.93L-178.31,-124.35L-155.94,-128.97L-138.81,-149.22L-71.24,-255.96L-85.98,-265.61L-135.63,-186.13L-149.58,-279.03L-167.79,-276.34L-149.22,-165.05L-156.00,-154.18L-166.72,-143.14ZM-30.12,-137.29L-30.12,-137.30L-28.87,-153.93L-37.54,-154.44L-45.61,-160.93L-44.35,-174.92L-31.19,-237.27L-12.63,-233.36L-9.59,-247.74L-28.15,-251.66L-20.23,-289.20L-39.00,-293.16L-46.92,-255.62L-62.35,-258.88L-65.39,-244.49L-49.96,-241.23L-63.12,-178.88L-64.36,-151.80L-44.89,-138.32ZM-9.33,-134.43L9.57,-130.44L22.02,-189.45L35.96,-215.20L59.19,-220.36L75.07,-208.51L75.47,-185.29L61.57,-119.46L80.28,-115.51L94.29,-181.47L94.18,-216.20L66.42,-235.72L45.44,-235.36L29.30,-224.07L41.23,-280.58L22.36,-284.56ZM147.98,-233.42L156.33,-239.42L158.58,-250.02L153.27,-259.08L143.63,-261.11L135.30,-254.95L133.06,-244.36L138.33,-235.46ZM125.79,-105.91L148.68,-214.34L129.91,-218.30L107.02,-109.87ZM152.38,-100.29L171.15,-96.33L183.61,-155.34L197.62,-181.49L220.87,-186.64L236.73,-174.80L237.21,-151.87L223.17,-85.35L241.94,-81.39L255.98,-147.91L255.86,-182.48L228.10,-202.01L206.89,-201.82L188.86,-189.52L192.16,-205.16L175.27,-208.73ZM299.91,-21.77L342.19,-29.87L359.17,-64.05L380.56,-165.40L363.88,-168.92L360.80,-154.32L351.43,-170.77L333.57,-180.21L294.92,-171.31L273.80,-131.72L277.12,-86.98L308.88,-63.23L326.52,-63.68L341.33,-72.39L339.59,-64.45L327.83,-41.58L303.76,-37.85L287.43,-46.41L283.71,-62.56L267.24,-58.84L272.49,-36.89ZM331.26,-164.02L349.72,-148.90L352.72,-115.05L337.09,-85.14L313.31,-78.94L294.62,-94.10L292.95,-127.66L308.04,-157.70ZM483.91,-162.52L492.26,-168.51L494.52,-179.11L489.20,-188.17L479.56,-190.21L471.23,-184.05L468.99,-173.45L474.27,-164.56ZM461.73,-35.00L484.61,-143.44L465.85,-147.40L442.96,-38.96ZM507.27,-60.48L489.76,-56.39L495.88,-32.87L526.07,-16.92L558.34,-18.09L577.86,-41.10L574.12,-65.13L557.84,-78.37L534.00,-90.54L521.14,-99.13L518.36,-108.77L526.65,-118.19L545.17,-118.38L561.19,-110.16L565.58,-94.82L582.94,-98.93L577.59,-119.03L549.26,-134.26L517.73,-132.89L499.59,-110.52L503.72,-88.86L520.65,-75.91L545.87,-63.20L557.13,-54.22L558.34,-43.48L547.30,-32.65L530.09,-32.78L511.54,-43.55ZM-462.05,-46.80L-495.79,-72.78L-498.37,-120.03L-476.11,-162.02L-435.55,-172.31L-408.24,-156.11L-399.76,-127.21L-380.22,-132.41L-392.16,-166.95L-431.96,-189.32L-489.87,-177.13L-519.63,-124.50L-513.67,-64.34L-465.63,-29.80L-420.24,-34.40L-395.91,-60.18L-411.12,-73.38L-431.97,-50.70ZM-309.80,-119.54L-350.41,-111.89L-373.82,-71.96L-368.54,-25.96L-334.49,-2.56L-293.88,-10.21L-270.45,-50.14L-275.73,-96.13ZM-331.12,-18.50L-351.59,-33.20L-354.67,-67.90L-337.83,-98.39L-313.17,-103.58L-292.68,-88.86L-289.59,-54.16L-306.44,-23.67ZM-262.57,8.16L-243.81,12.12L-231.35,-46.89L-217.33,-73.04L-194.09,-78.19L-178.22,-66.35L-177.74,-43.42L-191.78,23.10L-173.02,27.06L-158.98,-39.46L-159.10,-74.03L-186.85,-93.56L-208.07,-93.37L-226.10,-81.07L-222.80,-96.71L-239.69,-100.27ZM-146.84,32.59L-128.08,36.55L-115.62,-22.47L-101.60,-48.61L-78.36,-53.76L-62.49,-41.92L-62.01,-18.99L-76.05,47.53L-57.29,51.49L-43.25,-15.03L-43.37,-49.60L-71.12,-69.13L-92.33,-68.94L-110.37,-56.64L-107.07,-72.28L-123.96,-75.85ZM-3.41,41.31L-8.28,10.23L72.21,27.20L74.84,19.91L70.81,-22.43L36.59,-46.51L-3.48,-38.75L-26.37,1.30L-21.61,47.18L11.90,70.47L44.82,67.86L63.80,48.51L51.11,36.30L35.82,52.46L16.34,54.73ZM-4.48,-4.67L12.53,-27.01L33.22,-30.59L52.58,-17.05L56.20,8.13ZM128.76,78.56L108.82,63.96L106.26,29.37L122.58,-1.23L146.72,-6.53L162.53,3.00L168.86,24.37L186.72,19.70L177.70,-6.50L150.09,-22.47L110.01,-14.72L87.11,25.33L91.86,71.21L125.40,94.51L157.08,91.17L175.60,71.34L161.45,59.47L147.05,76.26ZM237.84,115.30L237.85,115.30L239.10,98.66L230.43,98.15L222.35,91.66L223.62,77.67L236.78,15.32L255.33,19.24L258.37,4.85L239.81,0.93L247.73,-36.60L228.97,-40.57L221.05,-3.03L205.61,-6.29L202.58,8.10L218.01,11.36L204.85,73.71L203.60,100.79L223.08,114.27ZM286.44,102.49L281.57,71.40L362.06,88.37L364.69,81.09L360.66,38.74L326.45,14.67L286.38,22.43L263.49,62.47L268.24,108.36L301.76,131.65L334.67,129.04L353.65,109.69L340.96,97.48L325.67,113.63L306.19,115.91ZM285.37,56.50L302.38,34.17L323.07,30.59L342.44,44.12L346.05,69.31ZM491.96,10.59L473.20,6.63L462.01,59.61L452.53,46.38L436.06,38.37L397.40,47.26L376.28,86.85L379.60,131.59L411.37,155.35L430.83,154.18L446.72,142.40L443.59,157.20L460.28,160.73ZM433.78,54.54L453.02,69.83L455.21,103.51L438.80,133.25L415.82,139.62L397.10,124.45L395.43,90.89L410.52,60.86Z" fill="#ffffff" stroke="#000000"/>
    <path d="M-493.21,-260.97L-488.60,-278.30L-572.57,-300.64L-559.56,-349.55L-487.82,-330.47L-483.21,-347.79L-554.95,-366.88L-542.75,-412.73L-460.82,-390.94L-456.21,-408.26L-557.51,-435.21L-596.54,-288.46ZM-420.04,-241.51L-354.41,-333.17L-369.20,-343.21L-422.97,-264.98L-430.34,-359.48L-448.17,-358.11L-436.76,-245.95ZM-337.14,-241.04L-340.35,-272.01L-261.67,-251.10L-258.70,-258.16L-260.51,-300.22L-293.08,-325.77L-333.08,-320.16L-357.76,-281.77L-355.42,-236.18L-323.50,-211.44L-290.84,-212.32L-271.09,-230.47L-283.00,-243.18L-298.94,-228.01L-318.31,-226.76ZM-335.83,-286.54L-317.86,-307.74L-297.24,-310.21L-278.80,-295.84L-276.52,-270.76ZM-184.43,-277.77L-171.87,-269.55L-162.25,-283.57L-178.39,-295.14L-197.35,-294.38L-214.11,-280.57L-209.23,-298.91L-225.74,-303.30L-253.66,-198.36L-235.60,-192.44L-220.36,-249.71L-206.86,-273.48ZM-174.27,-147.32L-179.91,-149.91L-187.15,-135.88L-176.06,-130.77L-153.72,-134.19L-135.74,-153.32L-63.48,-255.33L-77.55,-265.62L-130.70,-189.63L-139.71,-282.16L-157.84,-280.44L-145.21,-169.49L-152.48,-159.10L-163.64,-148.75ZM-28.95,-135.94L-28.94,-135.94L-26.85,-152.31L-35.39,-153.27L-43.04,-160.10L-41.07,-173.86L-24.86,-234.80L-6.72,-229.97L-2.98,-244.04L-21.12,-248.86L-11.36,-285.55L-29.70,-290.43L-39.46,-253.74L-54.54,-257.75L-58.28,-243.69L-43.20,-239.68L-59.41,-178.74L-62.04,-152.04L-43.49,-137.71ZM-8.55,-132.04L9.92,-127.12L25.27,-184.80L40.36,-209.53L63.59,-213.43L78.67,-200.91L77.87,-177.94L60.75,-113.60L79.04,-108.73L96.28,-173.20L97.95,-207.52L71.53,-228.25L50.77,-228.96L34.24,-218.64L48.94,-273.87L30.49,-278.78ZM152.00,-221.78L160.56,-227.27L163.34,-237.63L158.55,-246.86L149.13,-249.36L140.58,-243.71L137.82,-233.35L142.58,-224.29ZM123.52,-96.90L151.71,-202.88L133.37,-207.76L105.18,-101.78ZM149.51,-89.99L167.85,-85.11L183.20,-142.79L198.40,-167.90L221.63,-171.80L236.70,-159.28L236.00,-136.60L218.70,-71.58L237.04,-66.70L254.34,-131.72L255.99,-165.89L229.57,-186.61L208.60,-187.51L190.15,-176.29L194.21,-191.58L177.70,-195.97ZM291.26,-4.80L333.46,-10.63L352.00,-43.54L378.35,-142.59L362.05,-146.93L358.25,-132.66L349.85,-149.39L332.68,-159.64L294.02,-152.84L271.12,-114.80L272.10,-70.41L302.26,-45.31L319.71,-44.85L334.80,-52.70L332.67,-44.93L319.88,-22.94L295.90,-20.49L280.20,-29.79L277.35,-45.94L260.88,-43.12L264.94,-21.15ZM329.57,-143.76L347.03,-127.87L348.25,-94.27L331.27,-65.51L307.45,-60.61L289.75,-76.56L289.83,-109.81L306.29,-138.71ZM480.34,-134.43L488.90,-139.92L491.67,-150.28L486.89,-159.51L477.47,-162.01L468.92,-156.36L466.16,-146.00L470.92,-136.94ZM451.86,-9.55L480.05,-115.53L461.71,-120.41L433.52,-14.43ZM498.18,-32.39L480.66,-29.25L485.50,-5.69L514.52,11.63L546.46,12.14L566.94,-9.60L564.48,-33.54L549.07,-47.46L526.14,-60.72L513.87,-69.87L511.62,-79.54L520.30,-88.42L538.61,-87.66L554.01,-78.71L557.57,-63.32L574.93,-66.50L570.68,-86.63L543.47,-103.14L512.24,-103.41L493.16,-82.24L496.13,-60.61L512.19,-46.95L536.47,-33.09L547.13,-23.64L547.77,-12.96L536.30,-2.83L519.30,-3.84L501.52,-15.44ZM-460.45,-68.73L-492.46,-96.14L-492.58,-142.96L-468.42,-183.31L-427.81,-191.40L-401.65,-173.98L-394.76,-144.99L-375.18,-149.12L-385.21,-183.88L-423.39,-208.03L-481.24,-198.96L-513.36,-148.48L-510.56,-88.72L-464.87,-52.11L-419.77,-54.33L-394.40,-78.55L-408.76,-92.38L-430.53,-71.04ZM-306.25,-132.78L-346.77,-127.31L-371.97,-89.05L-369.11,-43.32L-336.67,-18.45L-296.14,-23.92L-270.93,-62.17L-273.78,-107.89ZM-332.52,-34.03L-351.99,-49.61L-353.25,-84.05L-335.04,-113.32L-310.40,-117.18L-290.91,-101.58L-289.64,-67.13L-307.86,-37.87ZM-266.15,-4.15L-247.81,0.73L-232.46,-56.95L-217.26,-82.07L-194.03,-85.96L-178.96,-73.45L-179.66,-50.76L-196.96,14.25L-178.62,19.13L-161.32,-45.88L-159.66,-80.05L-186.09,-100.78L-207.06,-101.68L-225.51,-90.46L-221.45,-105.74L-237.95,-110.14ZM-153.03,25.94L-134.69,30.82L-119.35,-26.86L-104.15,-51.98L-80.91,-55.87L-65.84,-43.35L-66.55,-20.67L-83.84,44.34L-65.50,49.22L-48.21,-15.79L-46.55,-49.96L-72.97,-70.69L-93.94,-71.59L-112.40,-60.37L-108.33,-75.65L-124.84,-80.04ZM-11.74,41.94L-14.95,10.97L63.72,31.88L66.70,24.82L64.89,-17.24L32.32,-42.79L-7.68,-37.18L-32.36,1.21L-30.03,46.80L1.90,71.54L34.56,70.66L54.31,52.51L42.40,39.79L26.46,54.97L7.09,56.22ZM-10.43,-3.56L7.53,-24.76L28.16,-27.23L46.60,-12.86L48.88,12.22ZM116.97,85.55L98.01,70.10L97.26,35.78L114.96,6.37L139.09,2.38L154.22,12.62L159.38,34.06L177.27,30.36L169.71,4.00L143.24,-13.20L103.23,-7.60L78.54,30.80L80.87,76.39L112.82,101.13L144.31,99.47L163.62,80.82L150.25,68.37L135.16,84.22ZM222.88,127.47L222.88,127.46L224.97,111.09L216.43,110.14L208.78,103.31L210.75,89.55L226.96,28.61L245.10,33.43L248.84,19.37L230.70,14.54L240.46,-22.14L222.12,-27.02L212.36,9.66L197.28,5.65L193.54,19.71L208.62,23.73L192.41,84.67L189.78,111.37L208.34,125.69ZM271.56,117.31L268.35,86.34L347.02,107.25L349.99,100.18L348.18,58.13L315.61,32.58L275.61,38.18L250.93,76.58L253.27,122.17L285.20,146.91L317.85,146.02L337.61,127.88L325.70,115.16L309.76,130.34L290.39,131.59ZM272.87,71.81L290.83,50.61L311.45,48.14L329.90,62.51L332.18,87.59ZM479.40,37.06L461.05,32.18L447.28,83.96L438.58,70.40L422.72,61.64L384.06,68.44L361.14,106.47L362.13,150.86L392.30,175.97L411.60,175.82L427.90,164.99L424.05,179.46L440.36,183.80ZM419.63,77.50L437.86,93.60L438.30,127.00L420.54,155.54L397.51,160.65L379.79,144.70L379.86,111.45L396.32,82.55Z" fill="#ffffff" stroke="#000000"/>
    <path d="M-480.17,-282.29L-474.73,-299.17L-556.55,-325.57L-541.18,-373.23L-471.27,-350.68L-465.82,-367.56L-535.73,-390.11L-521.32,-434.80L-441.48,-409.05L-436.03,-425.93L-534.74,-457.77L-580.86,-314.77ZM-408.87,-259.29L-339.31,-346.49L-353.40,-357.18L-410.55,-282.64L-412.98,-376.39L-430.66,-375.96L-425.16,-264.55ZM-326.97,-254.57L-328.55,-285.34L-251.89,-260.62L-248.59,-267.45L-248.21,-309.10L-279.08,-336.03L-318.90,-332.54L-345.26,-295.87L-345.29,-250.70L-315.02,-224.61L-282.70,-223.81L-262.25,-240.73L-273.37,-253.90L-289.90,-239.73L-309.10,-239.49ZM-323.34,-299.46L-304.50,-319.48L-283.99,-320.87L-266.51,-305.72L-265.55,-280.82ZM-174.19,-283.01L-162.20,-274.23L-151.97,-287.60L-167.33,-299.87L-186.10,-300.08L-203.38,-287.30L-197.61,-305.17L-213.70,-310.36L-246.68,-208.10L-229.14,-201.32L-211.14,-257.13L-196.57,-279.92ZM-170.86,-153.58L-176.30,-156.43L-184.17,-142.95L-173.48,-137.32L-151.23,-139.55L-132.48,-157.53L-55.83,-254.61L-69.20,-265.51L-125.63,-193.15L-129.77,-285.04L-147.78,-284.27L-141.01,-174.00L-148.72,-164.10L-160.28,-154.45ZM-27.84,-134.86L-27.84,-134.87L-24.93,-150.94L-33.32,-152.32L-40.53,-159.46L-37.87,-172.96L-18.72,-232.34L-1.05,-226.64L3.37,-240.34L-14.30,-246.04L-2.77,-281.79L-20.64,-287.56L-32.18,-251.81L-46.87,-256.55L-51.29,-242.85L-36.60,-238.11L-55.75,-178.72L-59.72,-152.47L-42.12,-137.36ZM-7.89,-129.96L10.11,-124.15L28.24,-180.36L44.43,-204.02L67.57,-206.68L81.84,-193.53L79.87,-170.87L59.63,-108.18L77.46,-102.43L97.81,-165.24L101.23,-199.07L76.18,-220.91L55.71,-222.68L38.85,-213.33L56.21,-267.15L38.23,-272.95ZM155.37,-210.38L164.11,-215.37L167.39,-225.46L163.13,-234.82L153.95,-237.78L145.21,-232.63L141.96,-222.54L146.19,-213.34ZM120.80,-88.45L154.12,-191.72L136.24,-197.49L102.93,-94.21ZM146.13,-80.28L164.01,-74.51L182.13,-130.72L198.44,-154.75L221.61,-157.41L235.85,-144.26L233.99,-121.88L213.55,-58.53L231.43,-52.76L251.86,-116.12L255.26,-149.80L230.21,-171.64L209.53,-173.61L190.72,-163.47L195.53,-178.36L179.44,-183.55ZM281.82,11.19L323.82,7.60L343.83,-23.96L374.96,-120.49L359.08,-125.61L354.59,-111.71L347.15,-128.67L330.71,-139.68L292.16,-134.95L267.57,-98.55L266.26,-54.63L294.77,-28.27L311.99,-26.92L327.30,-33.90L324.81,-26.34L311.03,-5.26L287.21,-4.08L272.18,-14.07L270.19,-30.18L253.77,-28.23L256.65,-6.32ZM326.82,-124.15L343.25,-107.55L342.73,-74.28L324.47,-46.74L300.68,-43.13L284.02,-59.79L285.81,-92.64L303.56,-120.36ZM475.32,-107.18L484.06,-112.16L487.34,-122.26L483.09,-131.62L473.90,-134.58L465.17,-129.43L461.91,-119.34L466.14,-110.14ZM440.76,14.75L474.07,-88.52L456.19,-94.28L422.88,8.99ZM487.70,-5.43L470.23,-3.23L473.80,20.30L501.58,38.90L533.12,41.05L554.47,20.62L553.28,-3.16L538.76,-17.71L516.79,-31.98L505.13,-41.66L503.40,-51.33L512.44,-59.66L530.49,-57.96L545.26,-48.33L547.97,-32.94L565.30,-35.18L562.13,-55.30L536.09,-73.01L505.25,-74.88L485.31,-54.95L487.13,-33.42L502.29,-19.09L525.57,-4.15L535.62,5.74L535.70,16.32L523.85,25.74L507.11,23.86L490.13,11.49ZM-457.68,-90.65L-487.90,-119.38L-485.61,-165.65L-459.67,-204.28L-419.13,-210.18L-394.17,-191.63L-388.85,-162.62L-369.29,-165.70L-377.41,-200.55L-413.90,-226.38L-471.53,-220.39L-505.87,-172.17L-506.18,-112.98L-462.91,-74.45L-418.23,-74.32L-391.91,-96.95L-405.39,-111.35L-428.00,-91.38ZM-302.02,-146.00L-342.35,-142.68L-369.21,-106.17L-368.74,-60.84L-337.96,-34.59L-297.63,-37.91L-270.75,-74.41L-271.22,-119.74ZM-333.06,-49.77L-351.50,-66.17L-350.97,-100.27L-331.47,-128.26L-306.92,-130.80L-288.47,-114.39L-288.98,-80.28L-308.50,-52.30ZM-269.01,-16.84L-251.14,-11.08L-233.01,-67.28L-216.70,-91.32L-193.54,-93.97L-179.29,-80.83L-181.15,-58.45L-201.59,4.91L-183.71,10.67L-163.28,-52.68L-159.89,-86.36L-184.93,-108.20L-205.61,-110.17L-224.42,-100.03L-219.61,-114.93L-235.70,-120.12ZM-158.79,18.71L-140.91,24.48L-122.78,-31.73L-106.47,-55.76L-83.31,-58.42L-69.07,-45.27L-70.93,-22.90L-91.36,40.46L-73.49,46.22L-53.05,-17.13L-49.66,-50.81L-74.70,-72.65L-95.38,-74.62L-114.19,-64.48L-109.39,-79.37L-125.47,-84.56ZM-19.99,41.79L-21.57,11.02L55.10,35.73L58.39,28.90L58.77,-12.74L27.90,-39.67L-11.91,-36.19L-38.28,0.49L-38.31,45.65L-8.04,71.74L24.28,72.55L44.73,55.63L33.62,42.46L17.09,56.63L-2.12,56.87ZM-16.36,-3.10L2.49,-23.12L22.99,-24.51L40.48,-9.36L41.44,15.54ZM104.94,91.50L87.00,75.26L88.03,41.31L107.03,13.16L131.09,10.46L145.51,21.35L149.50,42.81L167.37,40.07L161.25,13.64L135.98,-4.72L96.16,-1.24L69.79,35.43L69.75,80.59L100.05,106.69L131.25,106.67L151.29,89.23L138.72,76.23L122.99,91.12ZM207.44,138.37L207.45,138.37L210.35,122.30L201.96,120.91L194.76,113.77L197.41,100.28L216.57,40.89L234.24,46.59L238.66,32.89L220.99,27.19L232.52,-8.56L214.64,-14.33L203.11,21.42L188.42,16.68L184.00,30.39L198.69,35.13L179.54,94.51L175.57,120.76L193.17,135.87ZM256.07,130.83L254.49,100.07L331.16,124.78L334.45,117.95L334.83,76.30L303.96,49.37L264.15,52.86L237.78,89.53L237.75,134.70L268.02,160.79L300.34,161.59L320.79,144.68L309.68,131.50L293.15,145.68L273.94,145.91ZM259.70,85.94L278.54,65.92L299.05,64.54L316.54,79.69L317.50,104.58ZM465.57,62.23L447.70,56.46L431.42,106.92L423.52,93.07L408.30,83.60L369.75,88.33L345.15,124.73L343.84,168.65L372.37,195.01L391.44,195.85L408.11,186.00L403.56,200.10L419.45,205.22ZM404.43,99.12L421.62,115.96L420.33,148.98L401.32,176.28L378.30,180.14L361.61,163.47L363.39,130.62L381.14,102.90Z" fill="#ffffff" stroke="#000000"/>
    <path d="M-466.11,-302.98L-459.86,-319.38L-539.35,-349.67L-521.71,-395.97L-453.80,-370.10L-447.55,-386.50L-515.46,-412.37L-498.92,-455.78L-421.36,-426.23L-415.12,-442.63L-511.00,-479.16L-563.93,-340.25ZM-396.85,-276.60L-323.63,-359.17L-337.01,-370.45L-397.31,-299.75L-394.89,-392.50L-412.38,-392.98L-412.67,-282.62ZM-316.18,-267.71L-316.15,-298.19L-241.68,-269.84L-238.06,-276.41L-235.55,-317.54L-264.67,-345.74L-304.18,-344.34L-332.12,-309.46L-334.47,-264.84L-305.90,-237.50L-274.02,-235.05L-252.94,-250.71L-263.24,-264.30L-280.30,-251.14L-299.29,-251.90ZM-310.28,-311.88L-290.63,-330.69L-270.30,-331.01L-253.80,-315.14L-254.13,-290.49ZM-163.76,-287.95L-152.37,-278.67L-141.57,-291.35L-156.11,-304.26L-174.65,-305.44L-192.38,-293.69L-185.76,-311.06L-201.39,-317.01L-239.24,-217.67L-222.25,-210.07L-201.59,-264.29L-186.03,-286.06ZM-167.12,-159.91L-172.35,-163.00L-180.82,-150.08L-170.55,-143.98L-148.45,-145.03L-129.00,-161.83L-48.27,-253.82L-60.92,-265.26L-120.40,-196.68L-119.77,-287.68L-137.60,-287.85L-136.58,-178.55L-144.71,-169.17L-156.63,-160.22ZM-26.78,-134.06L-26.78,-134.06L-23.08,-149.79L-31.30,-151.59L-38.05,-159.01L-34.73,-172.21L-12.76,-229.90L4.41,-223.36L9.49,-236.67L-7.68,-243.21L5.55,-277.94L-11.82,-284.56L-25.05,-249.83L-39.32,-255.27L-44.40,-241.95L-30.12,-236.52L-52.10,-178.83L-57.37,-153.10L-40.76,-137.26ZM-7.32,-128.19L10.17,-121.52L30.97,-176.12L48.18,-198.67L71.19,-200.11L84.60,-186.38L81.49,-164.10L58.28,-103.19L75.59,-96.60L98.93,-157.61L104.04,-190.86L80.42,-213.72L60.29,-216.53L43.15,-208.16L63.07,-260.44L45.60,-267.10ZM158.12,-199.25L167.01,-203.73L170.77,-213.53L167.05,-223.00L158.13,-226.40L149.23,-221.76L145.49,-211.96L149.20,-202.65ZM117.70,-80.55L155.92,-180.88L138.56,-187.49L100.33,-87.17ZM142.30,-71.18L159.67,-64.56L180.47,-119.16L197.82,-142.07L220.84,-143.50L234.24,-129.78L231.25,-107.77L207.80,-46.23L225.16,-39.61L248.61,-101.16L253.69,-134.26L230.07,-157.12L209.75,-160.13L190.64,-151.08L196.15,-165.55L180.52,-171.50ZM271.66,26.17L313.35,24.78L334.74,-5.37L370.46,-99.14L355.03,-105.02L349.88,-91.51L343.40,-108.66L327.72,-120.38L289.40,-117.69L263.23,-82.98L259.67,-39.66L286.49,-12.15L303.43,-9.94L318.92,-16.04L316.06,-8.70L301.37,11.42L277.77,11.36L263.43,0.71L262.30,-15.30L245.98,-14.23L247.70,7.57ZM323.08,-105.24L338.47,-87.99L336.24,-55.15L316.78,-28.88L293.09,-26.53L277.49,-43.85L280.94,-76.22L299.90,-102.69ZM468.93,-80.83L477.83,-85.31L481.58,-95.11L477.86,-104.58L468.94,-107.98L460.04,-103.34L456.30,-93.54L460.02,-84.23ZM428.51,37.86L466.73,-62.46L449.37,-69.08L411.15,31.25ZM475.93,20.34L458.55,21.61L460.88,45.04L487.37,64.85L518.42,68.59L540.56,49.51L540.61,25.95L527.01,10.83L506.04,-4.40L495.02,-14.57L493.81,-24.20L503.16,-31.97L520.91,-29.37L535.00,-19.09L536.90,-3.75L554.13,-5.07L552.04,-25.11L527.22,-43.94L496.84,-47.38L476.11,-28.71L476.81,-7.35L491.05,7.59L513.28,23.55L522.70,33.83L522.24,44.30L510.05,52.99L493.60,50.28L477.47,37.18ZM-453.75,-112.48L-482.13,-142.42L-477.49,-188.02L-449.87,-224.85L-409.51,-228.60L-385.80,-208.98L-382.04,-180.05L-362.56,-182.08L-368.79,-216.94L-403.51,-244.34L-460.76,-241.38L-497.17,-195.50L-500.51,-137.03L-459.74,-96.74L-415.61,-94.32L-388.44,-115.33L-401.02,-130.25L-424.38,-111.68ZM-297.10,-159.17L-337.12,-157.96L-365.54,-123.27L-367.40,-78.46L-338.34,-50.93L-298.32,-52.14L-269.89,-86.83L-268.02,-131.64ZM-332.72,-65.69L-350.10,-82.84L-347.82,-116.50L-327.11,-143.15L-302.73,-144.40L-285.34,-127.23L-287.60,-93.56L-308.32,-66.92ZM-271.13,-29.85L-253.77,-23.24L-232.96,-77.84L-215.61,-100.75L-192.59,-102.18L-179.19,-88.46L-182.19,-66.44L-205.64,-4.90L-188.27,1.72L-164.82,-59.83L-159.74,-92.93L-183.36,-115.80L-203.69,-118.81L-222.79,-109.75L-217.28,-124.22L-232.91,-130.18ZM-164.05,10.94L-146.69,17.56L-125.89,-37.04L-108.54,-59.95L-85.52,-61.38L-72.12,-47.66L-75.11,-25.65L-98.56,35.90L-81.19,42.51L-57.75,-19.03L-52.66,-52.14L-76.28,-75.00L-96.61,-78.01L-115.72,-68.96L-110.20,-83.43L-125.83,-89.38ZM-28.11,40.88L-28.09,10.40L46.39,38.76L50.00,32.18L52.51,-8.95L23.40,-37.14L-16.12,-35.74L-44.05,-0.87L-46.41,43.76L-17.84,71.09L14.05,73.55L35.13,57.89L24.82,44.30L7.76,57.45L-11.23,56.70ZM-22.21,-3.28L-2.56,-22.10L17.77,-22.41L34.27,-6.54L33.93,18.11ZM92.77,96.43L75.88,79.45L78.65,45.97L98.87,19.13L122.77,17.70L136.46,29.20L139.30,50.60L157.10,48.82L152.41,22.39L128.39,2.95L88.87,4.34L60.93,39.21L58.56,83.84L87.15,111.18L117.98,112.76L138.68,96.56L126.93,83.08L110.62,96.98ZM191.64,148.00L191.64,148.00L195.34,132.27L187.12,130.47L180.37,123.05L183.68,109.85L205.66,52.16L222.83,58.70L227.90,45.39L210.73,38.85L223.97,4.12L206.60,-2.49L193.37,32.23L179.09,26.79L174.02,40.11L188.30,45.55L166.32,103.23L161.05,128.97L177.66,144.80ZM240.07,143.06L240.09,112.58L314.57,140.93L318.18,134.36L320.69,93.23L291.57,65.03L252.06,66.43L224.12,101.31L221.77,145.93L250.34,173.27L282.23,175.72L303.30,160.06L293.00,146.47L275.94,159.63L256.95,158.87ZM245.97,98.89L265.61,80.08L285.94,79.76L302.44,95.63L302.11,120.28ZM450.59,86.04L433.22,79.43L414.55,128.45L407.46,114.36L392.91,104.22L354.57,106.91L328.39,141.61L324.84,184.93L351.67,212.45L370.47,214.26L387.45,205.38L382.23,219.07L397.66,224.95ZM388.29,119.35L404.40,136.87L401.43,169.44L381.24,195.43L358.30,198.06L342.66,180.73L346.12,148.36L365.08,121.89Z" fill="#ffffff" stroke="#000000"/>
    <path d="M-451.06,-323.00L-444.05,-338.87L-521.02,-372.88L-501.21,-417.72L-435.45,-388.66L-428.43,-404.54L-494.19,-433.60L-475.62,-475.63L-400.52,-442.45L-393.50,-458.33L-486.35,-499.35L-545.78,-364.84ZM-383.99,-293.36L-307.42,-371.17L-320.05,-383.01L-383.26,-316.26L-376.10,-407.77L-393.35,-409.14L-399.31,-300.13ZM-304.75,-280.44L-303.16,-310.55L-231.04,-278.71L-227.14,-285.02L-222.54,-325.52L-249.86,-354.87L-288.96,-355.53L-318.35,-322.50L-322.98,-278.54L-296.16,-250.07L-264.78,-246.00L-243.16,-260.39L-252.64,-274.35L-270.17,-262.23L-288.89,-263.95ZM-296.65,-323.77L-276.28,-341.35L-256.17,-340.61L-240.69,-324.09L-242.29,-299.75ZM-153.14,-292.60L-142.36,-282.84L-131.04,-294.81L-144.75,-308.31L-162.99,-310.43L-181.11,-299.74L-173.68,-316.56L-188.82,-323.24L-231.32,-227.05L-214.92,-218.67L-191.73,-271.16L-175.23,-291.87ZM-163.05,-166.27L-168.05,-169.60L-177.08,-157.27L-167.25,-150.71L-145.36,-150.62L-125.28,-166.22L-40.80,-252.94L-52.71,-264.90L-115.00,-200.20L-109.69,-290.07L-127.30,-291.15L-131.91,-183.12L-140.42,-174.27L-152.66,-166.04ZM-25.73,-133.52L-25.73,-133.52L-21.26,-148.87L-29.29,-151.07L-35.58,-158.75L-31.62,-171.62L-6.94,-227.48L9.68,-220.14L15.38,-233.03L-1.25,-240.37L13.61,-274.00L-3.21,-281.43L-18.06,-247.80L-31.89,-253.91L-37.58,-241.02L-23.76,-234.91L-48.44,-179.05L-54.97,-153.90L-39.37,-137.40ZM-6.81,-126.72L10.13,-119.24L33.49,-172.11L51.65,-193.50L74.45,-193.73L87.00,-179.48L82.78,-157.63L56.71,-98.66L73.48,-91.25L99.67,-150.33L106.44,-182.91L84.28,-206.71L64.53,-210.52L47.16,-203.13L69.53,-253.76L52.62,-261.23ZM160.29,-188.42L169.31,-192.38L173.52,-201.87L170.33,-211.42L161.70,-215.24L152.66,-211.11L148.47,-201.62L151.65,-192.23ZM114.25,-73.23L157.17,-170.38L140.36,-177.81L97.44,-80.66ZM138.08,-62.71L154.89,-55.28L178.25,-108.15L196.57,-129.89L219.38,-130.12L231.91,-115.88L227.83,-94.28L201.50,-34.69L218.31,-27.26L244.64,-86.86L251.37,-119.30L229.21,-143.10L209.28,-147.12L189.94,-139.16L196.13,-153.17L181.00,-159.85ZM260.87,40.12L302.12,40.89L324.80,12.20L364.92,-78.60L349.97,-85.20L344.19,-72.12L338.67,-89.40L323.79,-101.78L285.79,-101.09L258.15,-68.15L252.40,-25.54L277.48,3.02L294.11,6.08L309.72,0.84L306.52,7.95L290.97,27.07L267.67,25.80L254.05,14.54L253.75,-1.33L237.57,-1.11L238.15,20.51ZM318.42,-87.06L332.73,-69.23L328.85,-36.90L308.27,-11.95L284.75,-10.84L270.22,-28.76L275.30,-60.55L295.39,-85.73ZM461.26,-55.45L470.27,-59.41L474.48,-68.90L471.30,-78.45L462.66,-82.27L453.63,-78.14L449.43,-68.65L452.62,-59.26ZM415.22,59.74L458.14,-37.41L441.32,-44.84L398.40,52.31ZM462.97,44.86L445.73,45.23L446.83,68.49L471.98,89.42L502.46,94.72L525.32,77.00L526.57,53.73L513.92,38.09L493.98,21.96L483.62,11.36L482.92,1.77L492.56,-5.42L509.96,-1.93L523.35,8.95L524.44,24.20L541.53,23.78L540.49,3.87L516.94,-16.01L487.10,-20.97L465.67,-3.59L465.26,17.55L478.56,33.04L499.70,49.95L508.48,60.60L507.48,70.91L494.99,78.87L478.88,75.34L463.62,61.57ZM-448.64,-134.15L-475.14,-165.19L-468.21,-210.00L-439.03,-244.97L-398.96,-246.60L-376.56,-226.00L-374.33,-197.22L-354.97,-198.23L-359.34,-232.99L-392.23,-261.84L-448.94,-261.86L-487.27,-218.41L-493.58,-160.82L-455.38,-118.92L-411.90,-114.25L-383.98,-133.61L-395.63,-149.00L-419.67,-131.86ZM-291.49,-172.22L-331.08,-173.09L-360.94,-140.28L-365.09,-96.11L-337.79,-67.42L-298.20,-66.56L-268.33,-99.36L-264.18,-143.53ZM-331.48,-81.71L-347.77,-99.54L-343.79,-132.68L-321.96,-157.94L-297.81,-157.92L-281.51,-140.07L-285.48,-106.92L-307.32,-81.67ZM-272.48,-43.14L-255.67,-35.71L-232.31,-88.58L-213.99,-110.32L-191.18,-110.55L-178.64,-96.31L-182.73,-74.72L-209.06,-15.12L-192.25,-7.69L-165.92,-67.29L-159.19,-99.73L-181.35,-123.53L-201.28,-127.55L-220.62,-119.59L-214.43,-133.60L-229.56,-140.29ZM-168.80,2.67L-151.98,10.10L-128.63,-42.77L-110.31,-64.51L-87.49,-64.74L-74.96,-50.50L-79.05,-28.91L-105.38,30.69L-88.56,38.12L-62.23,-21.48L-55.51,-53.92L-77.67,-77.72L-97.59,-81.74L-116.94,-73.78L-110.75,-87.79L-125.88,-94.48ZM-36.04,39.24L-34.45,9.13L37.67,40.97L41.58,34.66L46.17,-5.85L18.86,-35.19L-20.25,-35.85L-49.64,-2.83L-54.26,41.14L-27.44,69.61L3.93,73.67L25.56,59.29L16.08,45.33L-1.45,57.45L-20.17,55.73ZM-27.94,-4.09L-7.56,-21.67L12.54,-20.93L28.02,-4.41L26.43,19.93ZM80.53,100.32L64.72,82.69L69.17,49.75L90.52,24.28L114.21,24.09L127.14,36.16L128.85,57.45L146.53,56.60L143.25,30.25L120.52,9.81L81.41,9.15L52.01,42.17L47.38,86.13L74.22,114.61L104.59,117.76L125.88,102.82L114.96,88.89L98.13,101.79ZM175.54,156.36L175.55,156.36L180.01,141.01L171.98,138.81L165.70,131.13L169.65,118.26L194.33,62.40L210.96,69.75L216.65,56.85L200.02,49.51L214.88,15.88L198.07,8.45L183.21,42.08L169.39,35.97L163.69,48.86L177.52,54.97L152.84,110.83L146.31,135.98L161.90,152.48ZM223.64,153.97L225.23,123.85L297.35,155.70L301.26,149.39L305.85,108.88L278.54,79.53L239.43,78.88L210.04,111.90L205.42,155.86L232.24,184.34L263.61,188.40L285.24,174.02L275.76,160.06L258.23,172.18L239.51,170.46ZM231.74,110.64L252.12,93.06L272.22,93.80L287.70,110.32L286.11,134.65ZM434.55,108.47L417.74,101.04L396.76,148.51L390.49,134.22L376.63,123.45L338.62,124.14L310.98,157.08L305.24,199.69L330.33,228.26L348.81,231.01L366.04,223.11L360.18,236.37L375.12,242.98ZM371.29,138.17L386.30,156.31L381.70,188.32L360.42,212.96L337.62,214.38L323.06,196.46L328.14,164.66L348.23,139.49Z" fill="#ffffff" stroke="#000000"/>
    <path d="M-435.05,-342.27L-427.31,-357.60L-501.59,-395.14L-479.72,-438.41L-416.25,-406.33L-408.51,-421.66L-471.97,-453.74L-451.46,-494.31L-378.99,-457.67L-371.24,-472.99L-460.85,-518.29L-526.46,-388.48ZM-370.33,-309.55L-290.68,-382.48L-302.56,-394.81L-368.42,-332.13L-356.64,-422.16L-373.62,-424.40L-385.11,-317.03ZM-292.72,-292.71L-289.60,-322.37L-220.00,-287.21L-215.82,-293.25L-209.19,-333.02L-234.66,-363.41L-273.26,-366.07L-303.99,-334.96L-310.82,-291.77L-285.79,-262.27L-255.00,-256.64L-232.90,-269.74L-241.55,-284.01L-259.49,-272.94L-277.89,-275.61ZM-282.49,-335.10L-261.46,-351.41L-241.64,-349.65L-227.20,-332.53L-230.02,-308.58ZM-142.33,-296.93L-132.18,-286.74L-120.39,-297.98L-133.23,-312.02L-151.15,-315.05L-169.59,-305.42L-161.39,-321.65L-176.00,-329.03L-222.92,-236.19L-207.16,-227.07L-181.55,-277.74L-164.19,-297.34ZM-158.61,-172.65L-163.38,-176.20L-172.94,-164.49L-163.56,-157.50L-141.94,-156.28L-121.31,-170.66L-33.40,-251.97L-44.55,-264.40L-109.41,-203.70L-99.54,-292.20L-116.88,-294.17L-126.99,-187.69L-135.85,-179.39L-148.37,-171.89ZM-24.66,-133.24L-24.65,-133.24L-19.45,-148.17L-27.27,-150.76L-33.09,-158.67L-28.52,-171.18L-1.27,-225.09L14.78,-216.98L21.07,-229.42L5.02,-237.53L21.42,-269.98L5.20,-278.18L-11.21,-245.73L-24.55,-252.48L-30.84,-240.04L-17.50,-233.29L-44.74,-179.38L-52.49,-154.87L-37.93,-137.78ZM-6.31,-125.55L10.03,-117.29L35.82,-168.31L54.86,-188.51L77.40,-187.57L89.06,-172.85L83.77,-151.48L54.99,-94.56L71.17,-86.38L100.08,-143.39L108.44,-175.23L87.77,-199.88L68.46,-204.66L50.93,-198.25L75.63,-247.11L59.31,-255.36ZM161.92,-177.90L171.03,-181.35L175.68,-190.52L173.02,-200.11L164.68,-204.32L155.55,-200.71L150.92,-191.55L153.58,-182.11ZM110.52,-66.49L157.91,-160.25L141.68,-168.45L94.29,-74.69ZM133.51,-54.87L149.74,-46.67L175.53,-97.69L194.74,-118.23L217.29,-117.28L228.94,-102.56L223.79,-81.45L194.72,-23.93L210.94,-15.73L240.02,-73.24L248.33,-104.94L227.66,-129.59L208.18,-134.59L188.67,-127.72L195.51,-141.24L180.90,-148.62ZM249.51,53.01L290.22,55.90L314.11,28.72L358.40,-58.90L343.97,-66.19L337.59,-53.57L333.03,-70.92L318.96,-83.92L281.39,-85.19L252.40,-54.07L244.53,-12.28L267.84,17.22L284.10,21.10L299.79,16.73L296.27,23.59L279.92,41.67L256.97,39.22L244.09,27.40L244.61,11.70L228.62,11.09L228.08,32.48ZM312.91,-69.65L326.13,-51.31L320.62,-19.57L299.02,4.02L275.72,3.90L262.30,-14.54L268.95,-45.69L290.09,-69.52ZM452.37,-31.08L461.48,-34.53L466.13,-43.70L463.47,-53.29L455.14,-57.50L446.01,-53.89L441.37,-44.73L444.04,-35.29ZM400.97,80.33L448.37,-13.43L432.14,-21.63L384.75,72.13ZM448.91,68.09L431.86,67.56L431.74,90.60L455.51,112.57L485.35,119.37L508.84,103.05L511.28,80.12L499.59,64.02L480.72,47.07L471.02,36.06L470.83,26.55L480.72,19.95L497.73,24.28L510.40,35.72L510.69,50.84L527.59,51.30L527.59,31.59L505.35,10.74L476.13,4.31L454.06,20.37L452.57,41.23L464.92,57.21L484.93,75.00L493.05,85.97L491.54,96.11L478.79,103.33L463.06,99.02L448.69,84.63ZM-442.37,-155.61L-466.95,-187.63L-457.80,-231.54L-427.18,-264.58L-387.52,-264.13L-366.45,-242.63L-365.72,-214.09L-346.55,-214.09L-349.08,-248.64L-380.09,-278.83L-436.10,-281.77L-476.19,-240.82L-485.39,-184.26L-449.81,-140.91L-407.10,-134.06L-378.53,-151.75L-389.25,-167.55L-413.88,-151.85ZM-285.18,-185.14L-324.25,-188.03L-355.43,-157.15L-361.80,-113.73L-336.31,-83.99L-297.24,-81.11L-266.05,-111.97L-259.68,-155.39ZM-329.34,-97.78L-344.51,-116.23L-338.88,-148.76L-316.01,-172.59L-292.16,-171.34L-276.98,-152.86L-282.60,-120.32L-305.47,-96.50ZM-273.04,-56.65L-256.82,-48.45L-231.02,-99.47L-211.81,-120.00L-189.26,-119.06L-177.62,-104.34L-182.76,-83.23L-211.84,-25.71L-195.61,-17.51L-166.54,-75.02L-158.23,-106.72L-178.89,-131.37L-198.37,-136.37L-217.88,-129.50L-211.05,-143.02L-225.65,-150.40ZM-172.98,-6.07L-156.75,2.13L-130.96,-48.89L-111.75,-69.42L-89.20,-68.48L-77.55,-53.76L-82.70,-32.65L-111.77,24.87L-95.55,33.07L-66.47,-24.44L-58.16,-56.14L-78.83,-80.79L-98.31,-85.79L-117.82,-78.92L-110.98,-92.44L-125.59,-99.82ZM-43.72,36.88L-40.60,7.22L29.00,42.38L33.18,36.35L39.81,-3.43L14.33,-33.82L-24.26,-36.48L-54.99,-5.37L-61.82,37.82L-36.79,67.32L-6.01,72.95L16.10,59.85L7.45,45.58L-10.49,56.65L-28.89,53.99ZM-33.49,-5.51L-12.46,-21.82L7.36,-20.06L21.80,-2.94L18.98,21.01ZM68.28,103.21L53.57,84.98L59.66,52.67L82.07,28.61L105.47,29.64L117.63,42.23L118.22,63.35L135.72,63.41L133.85,37.21L112.44,15.86L73.84,13.20L43.10,44.30L36.27,87.49L61.32,117.00L91.16,121.67L112.95,108.01L102.88,93.69L85.60,105.56ZM159.26,163.45L159.26,163.45L164.46,148.52L156.64,145.93L150.83,138.02L155.39,125.51L182.64,71.60L198.69,79.71L204.98,67.27L188.93,59.16L205.34,26.71L189.11,18.51L172.71,50.96L159.36,44.22L153.08,56.66L166.42,63.40L139.17,117.31L131.43,141.82L145.98,158.91ZM206.89,163.56L210.01,133.90L279.61,169.06L283.79,163.02L290.42,123.25L264.95,92.86L226.35,90.20L195.62,121.31L188.79,164.50L213.82,194.00L244.60,199.63L266.71,186.53L258.06,172.26L240.12,183.33L221.72,180.67ZM217.12,121.17L238.15,104.86L257.97,106.62L272.41,123.74L269.59,147.69ZM417.56,129.46L401.34,121.26L378.18,167.07L372.72,152.63L359.58,141.28L322.00,140.01L293.00,171.12L285.15,212.92L308.46,242.43L326.57,246.10L343.99,239.18L337.52,251.98L351.95,259.27ZM353.55,155.54L367.45,174.23L361.25,205.62L338.96,228.87L316.37,229.10L302.91,210.64L309.56,179.49L330.71,155.66Z" fill="#ffffff" stroke="#000000"/>
    <path d="M-418.12,-360.76L-409.68,-375.49L-481.12,-416.40L-457.29,-458.01L-396.26,-423.06L-387.82,-437.80L-448.85,-472.75L-426.52,-511.76L-356.81,-471.85L-348.38,-486.59L-434.55,-535.93L-506.03,-411.09ZM-355.88,-325.11L-273.47,-393.04L-284.56,-405.84L-352.83,-347.32L-336.57,-435.63L-353.22,-438.71L-370.10,-333.26ZM-280.09,-304.49L-275.48,-333.63L-208.55,-295.32L-204.11,-301.07L-195.52,-340.01L-219.12,-371.34L-257.10,-375.94L-289.05,-346.80L-298.01,-304.50L-274.81,-274.07L-244.70,-266.93L-222.19,-278.73L-230.00,-293.27L-248.29,-283.26L-266.33,-286.83ZM-267.81,-345.83L-246.20,-360.86L-226.71,-358.10L-213.33,-340.45L-217.35,-316.94ZM-131.34,-300.92L-121.84,-290.34L-109.61,-300.83L-121.58,-315.36L-139.12,-319.28L-157.83,-310.72L-148.90,-326.32L-162.94,-334.36L-214.06,-245.08L-198.96,-235.27L-171.06,-283.99L-152.91,-302.46ZM-153.81,-179.02L-158.34,-182.77L-168.38,-171.69L-159.48,-164.31L-138.19,-161.99L-117.07,-175.13L-26.07,-250.92L-36.44,-263.77L-103.61,-207.15L-89.32,-294.05L-106.35,-296.89L-121.80,-192.24L-130.99,-184.50L-143.73,-177.74ZM-23.53,-133.21L-23.52,-133.21L-17.62,-147.69L-25.21,-150.64L-30.55,-158.76L-25.39,-170.88L4.29,-222.72L19.72,-213.88L26.57,-225.85L11.14,-234.68L29.01,-265.89L13.41,-274.83L-4.46,-243.62L-17.29,-250.97L-24.15,-239.00L-11.31,-231.66L-41.00,-179.81L-49.91,-156.00L-36.41,-138.37ZM-5.81,-124.67L9.91,-115.67L38.01,-164.74L57.85,-183.70L80.06,-181.62L90.82,-166.48L84.50,-145.64L53.14,-90.91L68.71,-82.00L100.19,-136.82L110.08,-167.84L90.94,-193.25L72.11,-198.96L54.46,-193.53L81.37,-240.52L65.67,-249.51ZM163.04,-167.72L172.21,-170.67L177.28,-179.48L175.15,-189.09L167.13,-193.68L157.92,-190.58L152.88,-181.77L155.02,-172.31ZM106.55,-60.33L158.17,-150.49L142.57,-159.43L90.94,-69.27ZM128.66,-47.67L144.26,-38.74L172.36,-87.80L192.39,-107.10L214.61,-105.00L225.36,-89.87L219.19,-69.28L187.52,-13.97L203.12,-5.03L234.80,-60.34L244.63,-91.22L225.49,-116.63L206.51,-122.57L186.88,-116.79L194.33,-129.79L180.28,-137.83ZM237.69,64.84L277.74,69.79L302.73,44.17L350.98,-40.09L337.11,-48.04L330.16,-35.90L326.54,-53.26L313.32,-66.83L276.27,-70.02L246.04,-40.77L236.12,0.11L257.62,30.44L273.49,35.11L289.21,31.60L285.38,38.19L268.30,55.21L245.76,51.61L233.65,39.27L234.97,23.79L219.21,22.37L217.57,43.46ZM306.60,-53.05L318.72,-34.25L311.65,-3.18L289.10,19.00L266.10,17.69L253.78,-1.22L261.96,-31.64L284.06,-54.09ZM442.37,-7.78L451.54,-10.73L456.60,-19.53L454.47,-29.15L446.46,-33.74L437.25,-30.64L432.20,-21.83L434.35,-12.37ZM385.87,99.61L437.50,9.45L421.90,0.51L370.27,90.67ZM433.85,89.99L417.04,88.59L415.74,111.34L438.08,134.26L467.21,142.51L491.25,127.59L494.83,105.08L484.11,88.58L466.34,70.86L457.34,59.49L457.63,50.09L467.74,44.07L484.32,49.23L496.24,61.18L495.75,76.13L512.42,77.45L513.43,57.98L492.54,36.24L464.01,28.39L441.39,43.12L438.85,63.65L450.22,80.07L469.07,98.67L476.52,109.92L474.51,119.85L461.55,126.33L446.23,121.26L432.78,106.31ZM-434.95,-176.77L-457.58,-209.67L-446.28,-252.56L-414.34,-283.62L-375.19,-281.13L-355.48,-258.82L-356.24,-230.59L-337.30,-229.61L-338.02,-263.87L-367.10,-295.28L-422.27,-301.06L-463.97,-262.67L-475.96,-207.28L-443.05,-162.63L-401.22,-153.68L-372.09,-169.68L-381.87,-185.83L-407.00,-171.60ZM-278.18,-197.85L-316.61,-202.72L-349.00,-173.83L-357.52,-131.27L-333.87,-100.59L-295.44,-95.73L-263.04,-124.61L-254.52,-167.16ZM-326.28,-113.84L-340.32,-132.85L-333.08,-164.69L-309.27,-187.05L-285.78,-184.58L-271.73,-165.56L-278.96,-133.70L-302.77,-111.36ZM-272.79,-70.33L-257.19,-61.39L-229.09,-110.46L-209.06,-129.75L-186.84,-127.66L-176.09,-112.53L-182.26,-91.94L-213.93,-36.62L-198.33,-27.69L-166.66,-83.00L-156.82,-113.88L-175.96,-139.29L-194.94,-145.22L-214.57,-139.44L-207.12,-152.45L-221.17,-160.49ZM-176.56,-15.23L-160.96,-6.29L-132.86,-55.36L-112.83,-74.65L-90.61,-72.56L-79.86,-57.43L-86.03,-36.83L-117.70,18.48L-102.10,27.41L-70.43,-27.90L-60.59,-58.78L-79.73,-84.19L-98.71,-90.12L-118.34,-84.34L-110.89,-97.35L-124.94,-105.39ZM-51.10,33.84L-46.50,4.70L20.44,43.01L24.88,37.26L33.47,-1.68L9.87,-33.01L-28.12,-37.62L-60.06,-8.47L-69.03,33.83L-45.83,64.26L-15.71,71.40L6.79,59.60L-1.01,45.06L-19.30,55.07L-37.34,51.50ZM-38.82,-7.50L-17.21,-22.53L2.27,-19.77L15.66,-2.12L11.63,21.39ZM56.11,105.11L42.51,86.34L50.19,54.75L73.56,32.13L96.62,34.36L107.98,47.41L107.48,68.30L124.76,69.27L124.26,43.30L104.21,21.10L66.22,16.49L34.26,45.63L25.30,87.93L48.52,118.37L77.75,124.52L99.98,112.14L90.77,97.48L73.09,108.32ZM142.86,169.28L142.87,169.28L148.77,154.80L141.18,151.85L135.84,143.73L141.00,131.61L170.68,79.77L186.12,88.60L192.97,76.64L177.53,67.80L195.41,36.60L179.80,27.66L161.93,58.87L149.10,51.52L142.25,63.49L155.08,70.83L125.39,122.68L116.49,146.48L129.98,164.12ZM189.91,171.84L194.51,142.70L261.45,181.01L265.89,175.26L274.47,136.32L250.88,104.99L212.89,100.39L180.94,129.53L171.98,171.83L195.18,202.26L225.30,209.40L247.80,197.60L239.99,183.06L221.71,193.07L203.67,189.50ZM202.19,130.50L223.80,115.47L243.28,118.23L256.67,135.88L252.64,159.39ZM399.73,148.99L384.13,140.05L358.90,184.11L354.25,169.57L341.86,157.69L304.81,154.50L274.56,183.74L264.66,224.62L286.16,254.96L303.87,259.51L321.43,253.57L314.38,265.89L328.25,273.83ZM335.17,171.46L347.93,190.63L340.20,221.32L316.99,243.13L294.66,242.20L282.32,223.28L290.49,192.85L312.60,170.40Z" fill="#ffffff" stroke="#000000"/>
    <path d="M-906.35,492L-906.35,469.28L-898.22,492L-894.99,492L-886.86,469.28L-886.86,492L-883.25,492L-883.25,464.64L-888.22,464.64L-896.55,487.33L-904.68,464.64L-909.96,464.64L-909.96,492ZM-865.67,478.75L-876.82,482.17L-879.09,486.89L-877.05,491.38L-872.23,492.78L-868.69,492.09L-865.45,489.71L-865.46,492L-862.27,492L-862.27,479.25L-864.06,473.45L-869.98,471.46L-875.30,472.76L-877.88,476.62L-875.17,478.28L-873.43,475.28L-870.33,474.25L-867.00,475.23ZM-865.67,481.77L-865.68,486.77L-868.09,488.89L-871.68,489.99L-874.26,489.33L-875.44,486.74L-873.91,484.05ZM-857.12,492L-853.70,492L-853.70,481.25L-852.22,476.17L-848.35,474.41L-845.15,475.90L-844.22,479.88L-844.22,492L-840.80,492L-840.80,479.88L-842.09,473.85L-847.66,471.47L-851.35,472.28L-854.04,475.09L-854.04,472.24L-857.12,472.24ZM-833.34,468.94L-832.11,467.58L-832.10,465.65L-833.36,464.27L-835.12,464.27L-836.35,465.65L-836.35,467.58L-835.10,468.94ZM-832.52,492L-832.52,472.24L-835.94,472.24L-835.94,492ZM-818.31,468.12L-817.85,465.29L-820.94,464.71L-825.30,466.41L-826.70,471.29L-826.70,472.24L-829.67,472.24L-829.67,474.86L-826.70,474.86L-826.70,492L-823.40,492L-823.40,474.86L-819.56,474.86L-819.56,472.24L-823.40,472.24L-823.40,471.21L-822.75,468.65L-820.52,467.74ZM-807.97,471.46L-814.77,474.29L-817.39,482.12L-814.77,489.95L-807.97,492.78L-801.17,489.95L-798.55,482.12L-801.16,474.29ZM-807.97,489.87L-812.08,488.06L-813.90,482.12L-812.08,476.18L-807.97,474.37L-803.85,476.18L-802.04,482.12L-803.85,488.06ZM-795.03,492L-791.61,492L-791.61,481.25L-790.13,476.17L-786.26,474.41L-783.06,475.90L-782.13,479.88L-782.13,492L-778.71,492L-778.71,479.88L-780.00,473.85L-785.56,471.47L-789.26,472.28L-791.95,475.09L-791.95,472.24L-795.03,472.24ZM-765.45,492.27L-765.45,492.26L-765.85,489.32L-767.38,489.55L-769.03,488.71L-769.32,486.22L-769.32,474.86L-765.94,474.86L-765.94,472.24L-769.32,472.24L-769.32,465.40L-772.74,465.40L-772.74,472.24L-775.55,472.24L-775.55,474.86L-772.74,474.86L-772.74,486.22L-771.96,491.00L-768.07,492.63ZM-737.50,487.93L-737.50,478.13L-749.05,478.13L-749.05,481.31L-740.99,481.31L-740.97,486.22L-748.63,489.75L-755.95,486.41L-758.55,478.32L-756.06,470.17L-749.21,466.88L-744.27,468.25L-741.30,473.01L-738.24,471.11L-741.44,465.93L-749.13,463.79L-758.98,468.04L-762.42,478.32L-758.78,488.60L-748.74,492.86ZM-724.35,474.77L-721.78,475.62L-720.76,472.73L-724.11,471.47L-727.37,472.48L-729.65,475.66L-729.65,472.24L-732.73,472.24L-732.73,491.81L-729.31,492L-729.31,481.32L-728.06,476.56ZM-710.01,471.46L-716.81,474.29L-719.42,482.12L-716.81,489.95L-710.01,492.78L-703.20,489.95L-700.58,482.12L-703.20,474.29ZM-710.01,489.87L-714.12,488.06L-715.93,482.12L-714.12,476.18L-710.01,474.37L-705.89,476.18L-704.07,482.12L-705.89,488.06ZM-688.58,492.27L-688.58,492.26L-688.97,489.32L-690.51,489.55L-692.15,488.71L-692.45,486.22L-692.45,474.86L-689.07,474.86L-689.07,472.24L-692.45,472.24L-692.45,465.40L-695.87,465.40L-695.87,472.24L-698.68,472.24L-698.68,474.86L-695.87,474.86L-695.87,486.22L-695.09,491.00L-691.19,492.63ZM-680.57,488.24L-682.57,483.00L-667.90,482.99L-667.71,481.63L-669.97,474.39L-676.83,471.45L-683.53,474.28L-686.05,482.11L-683.53,489.93L-676.83,492.76L-671.18,491.10L-668.58,487.02L-671.25,485.36L-673.32,488.74L-676.63,489.86ZM-682.45,480.26L-680.31,475.73L-676.83,474.35L-672.95,476.00L-671.40,480.26ZM-661.99,485.88L-664.90,487.24L-662.96,491.11L-657.11,492.78L-651.52,491.39L-648.97,486.66L-650.50,482.61L-653.83,480.90L-658.44,479.65L-661.00,478.62L-661.84,477.05L-660.74,475.10L-657.52,474.38L-654.42,475.23L-653.09,477.74L-650.21,476.38L-651.88,473.07L-657.39,471.46L-662.84,472.86L-665.18,477.43L-663.66,481.06L-660.23,482.69L-655.36,483.98L-653.07,485.13L-652.46,486.96L-653.99,489.26L-656.99,489.87L-660.63,488.67ZM-641.92,483.45L-638.72,483.45L-637.20,484.67L-633.14,492.30L-630.05,490.63L-634.16,483.45L-636.67,482.04L-634.62,480.06L-632.77,476.14L-631.66,475.64L-630.10,475.39L-630.56,472.24L-633.40,472.52L-635.30,474.17L-637.43,478.82L-638.72,480.60L-641.91,480.60L-641.91,464.64L-643.66,464.64L-645.32,464.64L-645.33,492L-641.92,492ZM-625.58,492.01L-615.04,492.01L-607.42,490.45L-604.53,484.21L-606.06,480.03L-610.31,477.70L-606.80,475.27L-605.82,471.62L-608.58,466.13L-615.58,464.63L-625.58,464.63ZM-621.94,476.42L-621.95,467.89L-616.40,467.89L-611.64,468.44L-609.62,472.08L-611.57,475.51L-615.93,476.42ZM-621.94,488.79L-621.94,479.64L-615.54,479.64L-610.64,480.53L-608.45,484.21L-610.32,488.02L-615.04,488.79ZM-592.40,471.46L-599.20,474.29L-601.81,482.12L-599.20,489.95L-592.40,492.78L-585.59,489.95L-582.97,482.12L-585.59,474.29ZM-592.40,489.87L-596.51,488.06L-598.32,482.12L-596.51,476.18L-592.40,474.37L-588.28,476.18L-586.46,482.12L-588.28,488.06ZM-571.27,471.46L-578.07,474.29L-580.68,482.12L-578.07,489.95L-571.27,492.78L-564.46,489.95L-561.85,482.12L-564.46,474.29ZM-571.27,489.87L-575.38,488.06L-577.19,482.12L-575.38,476.18L-571.27,474.37L-567.15,476.18L-565.33,482.12L-567.15,488.06ZM-554.82,483.45L-551.62,483.45L-550.10,484.67L-546.04,492.30L-542.96,490.63L-547.06,483.45L-549.57,482.04L-547.52,480.06L-545.67,476.14L-544.56,475.64L-543.00,475.39L-543.46,472.24L-546.31,472.52L-548.20,474.17L-550.34,478.82L-551.62,480.60L-554.82,480.60L-554.82,464.64L-556.56,464.64L-558.23,464.64L-558.23,492L-554.82,492Z"/>
</svg>