<?xml version="1.0"?>
<svg xmlns="http://www.w3.org/2000/svg" width="1920" height="1080" viewBox="-960 -540 1920 1080">
    <path d="M-42.29,-205.83L-115.11,-205.83L-114.89,-140.56L-145.97,-147L-145.97,-294.85L-145.74,-294.63L-145.97,-295.07L-51.17,-295.07L-33.41,-275.09L-115.33,-275.09L-115.33,-225.81L-60.05,-225.81ZM-1.44,-266.66C-8.99,-270.21 -14.62,-275.61 -18.32,-282.86C-18.02,-285.23 -15.80,-288.27 -11.66,-291.97C-7.51,-295.67 -4.18,-297.81 -1.67,-298.40C5.88,-295 11.43,-289.75 14.98,-282.64C12.47,-276.28 6.99,-270.95 -1.44,-266.66ZM11.88,-246.90L11.88,-140.56L-15.87,-146.78L-15.87,-253.12ZM71.82,-246.90L71.82,-237.80C84.99,-250.08 96.53,-255.93 106.45,-255.34C111.18,-255.04 119.51,-249.16 131.42,-237.69C143.34,-226.22 149.66,-218.41 150.40,-214.27C151.00,-210.42 151.29,-185.85 151.29,-140.56L123.76,-146.78C124.65,-197.54 124.28,-224.40 122.65,-227.36C119.99,-232.40 115.59,-233.91 109.45,-231.92C103.30,-229.92 96.94,-226.33 90.35,-221.15C83.77,-215.97 77.59,-209.90 71.82,-202.94L71.82,-140.56L42.96,-146.78L42.96,-253.12Z" fill="#ffffff" stroke="#000000"/>
    <path d="M-43.40,-201.80L-115.47,-203.38L-116.66,-138.78L-147.29,-145.82L-144.08,-292.16L-143.86,-291.94L-144.07,-292.38L-50.25,-290.32L-33.11,-270.16L-114.19,-271.94L-115.25,-223.16L-60.54,-221.96ZM-1.65,-261.12C-9.04,-264.80 -14.49,-270.27 -18.00,-277.53C-17.65,-279.86 -15.39,-282.82 -11.21,-286.39C-7.03,-289.96 -3.68,-292.01 -1.18,-292.55C6.22,-289.01 11.60,-283.69 14.96,-276.58C12.33,-270.34 6.79,-265.19 -1.65,-261.12ZM11.11,-241.28L8.80,-136.03L-18.53,-142.78L-16.22,-248.03ZM70.43,-239.98L70.24,-230.97C83.54,-242.84 95.09,-248.38 104.89,-247.57C109.57,-247.18 117.69,-241.18 129.23,-229.56C140.77,-217.95 146.87,-210.09 147.51,-205.97C148.01,-202.15 147.77,-177.83 146.79,-133.00L119.68,-139.75C121.66,-189.98 121.87,-216.57 120.33,-219.54C117.80,-224.58 113.47,-226.17 107.35,-224.33C101.23,-222.48 94.85,-219.07 88.22,-214.09C81.59,-209.10 75.34,-203.23 69.48,-196.47L68.13,-134.73L39.70,-141.50L42.00,-246.75Z" fill="#ffffff" stroke="#000000"/>
    <path d="M-44.58,-197.98L-115.87,-201.10L-118.45,-137.19L-148.60,-144.83L-142.26,-289.58L-142.05,-289.36L-142.25,-289.80L-49.44,-285.73L-32.91,-265.41L-113.11,-268.93L-115.23,-220.67L-61.11,-218.30ZM-1.97,-255.78C-9.21,-259.58 -14.48,-265.11 -17.79,-272.37C-17.40,-274.67 -15.10,-277.55 -10.88,-280.99C-6.67,-284.44 -3.31,-286.40 -0.83,-286.87C6.42,-283.21 11.63,-277.83 14.80,-270.72C12.06,-264.60 6.47,-259.62 -1.97,-255.78ZM10.22,-235.86L5.66,-131.75L-21.25,-139.03L-16.68,-243.14ZM68.91,-233.29L68.52,-224.38C81.94,-235.84 93.49,-241.07 103.17,-240.06C107.80,-239.57 115.70,-233.45 126.87,-221.71C138.04,-209.97 143.90,-202.05 144.45,-197.96C144.86,-194.17 144.10,-170.10 142.15,-125.76L115.47,-133.03C118.52,-182.69 119.31,-209.01 117.84,-211.98C115.45,-217.02 111.20,-218.69 105.10,-217.00C99.00,-215.31 92.62,-212.07 85.95,-207.28C79.28,-202.49 72.97,-196.81 67.02,-190.25L64.34,-129.18L36.35,-136.50L40.92,-240.61Z" fill="#ffffff" stroke="#000000"/>
    <path d="M-45.82,-194.35L-116.29,-198.99L-120.24,-135.81L-149.91,-144.02L-140.49,-287.12L-140.29,-286.90L-140.48,-287.34L-48.72,-281.30L-32.81,-260.83L-112.10,-266.05L-115.24,-218.35L-61.73,-214.82ZM-2.40,-250.63C-9.48,-254.55 -14.58,-260.13 -17.70,-267.39C-17.26,-269.66 -14.92,-272.46 -10.68,-275.77C-6.43,-279.09 -3.07,-280.96 -0.60,-281.37C6.49,-277.59 11.53,-272.15 14.52,-265.05C11.68,-259.05 6.04,-254.24 -2.40,-250.63ZM9.23,-230.65L2.46,-127.73L-24.01,-135.51L-17.23,-238.44ZM67.25,-226.84L66.67,-218.03C80.20,-229.08 91.74,-234.00 101.30,-232.79C105.87,-232.21 113.55,-225.98 124.35,-214.12C135.15,-202.26 140.78,-194.30 141.23,-190.24C141.56,-186.48 140.28,-162.68 137.40,-118.85L111.15,-126.62C115.24,-175.70 116.60,-201.72 115.21,-204.69C112.95,-209.73 108.79,-211.48 102.71,-209.93C96.64,-208.39 90.25,-205.32 83.55,-200.73C76.84,-196.14 70.48,-190.66 64.45,-184.29L60.47,-123.91L32.93,-131.77L39.71,-234.69Z" fill="#ffffff" stroke="#000000"/>
    <path d="M-47.11,-190.93L-116.74,-197.05L-122.02,-134.62L-151.20,-143.38L-138.77,-284.78L-138.58,-284.55L-138.75,-284.99L-48.10,-277.02L-32.80,-256.42L-111.14,-263.31L-115.28,-216.18L-62.41,-211.53ZM-2.93,-245.67C-9.85,-249.70 -14.78,-255.34 -17.71,-262.59C-17.23,-264.83 -14.85,-267.54 -10.57,-270.73C-6.30,-273.92 -2.93,-275.69 -0.48,-276.05C6.45,-272.16 11.32,-266.67 14.12,-259.58C11.18,-253.70 5.49,-249.07 -2.93,-245.67ZM8.14,-225.66L-0.79,-123.96L-26.81,-132.24L-17.87,-233.93ZM65.47,-220.62L64.70,-211.92C78.33,-222.56 89.86,-227.18 99.29,-225.78C103.80,-225.10 111.26,-218.77 121.69,-206.80C132.12,-194.83 137.52,-186.83 137.88,-182.81C138.12,-179.08 136.34,-155.56 132.53,-112.25L106.73,-120.51C111.85,-168.98 113.75,-194.70 112.44,-197.67C110.32,-202.70 106.23,-204.52 100.19,-203.13C94.15,-201.73 87.76,-198.84 81.03,-194.44C74.30,-190.04 67.88,-184.75 61.77,-178.58L56.53,-118.93L29.45,-127.30L38.39,-228.99Z" fill="#ffffff" stroke="#000000"/>
    <path d="M-48.44,-187.71L-117.21,-195.27L-123.77,-133.62L-152.45,-142.92L-137.10,-282.54L-136.91,-282.31L-137.08,-282.75L-47.56,-272.91L-32.87,-252.19L-110.22,-260.70L-115.34,-214.16L-63.14,-208.42ZM-3.55,-240.91C-10.31,-245.05 -15.06,-250.73 -17.80,-257.96C-17.28,-260.17 -14.87,-262.80 -10.57,-265.87C-6.27,-268.93 -2.90,-270.61 -0.47,-270.91C6.31,-266.91 11.00,-261.37 13.62,-254.30C10.58,-248.55 4.86,-244.08 -3.55,-240.91ZM6.97,-220.87L-4.07,-120.45L-29.63,-129.20L-18.59,-229.62ZM63.57,-214.64L62.63,-206.05C76.34,-216.28 87.85,-220.60 97.15,-219.01C101.59,-218.24 108.84,-211.82 118.90,-199.75C128.96,-187.68 134.13,-179.65 134.40,-175.66C134.55,-171.97 132.28,-148.74 127.58,-105.97L102.23,-114.70C108.34,-162.54 110.78,-187.95 109.55,-190.91C107.56,-195.94 103.56,-197.83 97.55,-196.58C91.54,-195.33 85.16,-192.61 78.40,-188.40C71.65,-184.19 65.18,-179.10 59.01,-173.13L52.53,-114.23L25.92,-123.09L36.97,-223.51Z" fill="#ffffff" stroke="#000000"/>
    <path d="M-49.82,-184.68L-117.67,-193.66L-125.51,-132.81L-153.68,-142.63L-135.46,-280.42L-135.28,-280.18L-135.43,-280.62L-47.09,-268.94L-33.01,-248.14L-109.34,-258.23L-115.42,-212.30L-63.90,-205.49ZM-4.25,-236.34C-10.85,-240.58 -15.43,-246.30 -17.98,-253.52C-17.41,-255.69 -14.97,-258.24 -10.65,-261.18C-6.34,-264.12 -2.97,-265.70 -0.55,-265.95C6.06,-261.84 10.59,-256.26 13.02,-249.21C9.90,-243.59 4.14,-239.30 -4.25,-236.34ZM5.72,-216.28L-7.38,-117.19L-32.47,-126.40L-19.37,-225.49ZM61.58,-208.90L60.46,-200.41C74.25,-210.24 85.73,-214.26 94.89,-212.49C99.27,-211.63 106.30,-205.12 115.99,-192.97C125.68,-180.81 130.62,-172.75 130.80,-168.80C130.87,-165.14 128.12,-142.21 122.54,-100.01L97.65,-109.19C104.74,-156.39 107.70,-181.47 106.55,-184.43C104.69,-189.44 100.77,-191.40 94.80,-190.30C88.83,-189.19 82.46,-186.63 75.68,-182.61C68.91,-178.60 62.40,-173.71 56.17,-167.93L48.48,-109.80L22.35,-119.15L35.45,-218.24Z" fill="#ffffff" stroke="#000000"/>
    <path d="M-51.21,-181.85L-118.14,-192.19L-127.20,-132.18L-154.85,-142.51L-133.85,-278.40L-133.68,-278.16L-133.82,-278.60L-46.69,-265.13L-33.21,-244.25L-108.50,-255.89L-115.50,-210.59L-64.70,-202.74ZM-5.03,-231.95C-11.46,-236.29 -15.86,-242.05 -18.23,-249.24C-17.62,-251.38 -15.15,-253.85 -10.82,-256.66C-6.48,-259.48 -3.12,-260.97 -0.72,-261.16C5.73,-256.96 10.09,-251.34 12.34,-244.31C9.13,-238.82 3.34,-234.70 -5.03,-231.95ZM4.41,-211.90L-10.70,-114.17L-35.32,-123.82L-20.21,-221.56ZM59.50,-203.38L58.21,-195.02C72.06,-204.44 83.50,-208.17 92.53,-206.22C96.84,-205.27 103.65,-198.68 112.97,-186.45C122.29,-174.21 127.00,-166.14 127.09,-162.23C127.09,-158.61 123.87,-135.98 117.44,-94.36L93.02,-103.98C101.05,-150.51 104.52,-175.26 103.45,-178.21C101.71,-183.21 97.88,-185.23 91.95,-184.27C86.02,-183.30 79.67,-180.91 72.88,-177.08C66.09,-173.26 59.55,-168.56 53.25,-162.99L44.39,-105.65L18.75,-115.46L33.86,-213.20Z" fill="#ffffff" stroke="#000000"/>
    <path d="M-52.62,-179.21L-118.59,-190.89L-128.86,-131.73L-155.98,-142.54L-132.26,-276.48L-132.10,-276.25L-132.23,-276.68L-46.35,-261.48L-33.47,-240.53L-107.68,-253.67L-115.58,-209.02L-65.51,-200.16ZM-5.86,-227.76C-12.13,-232.19 -16.36,-237.98 -18.55,-245.14C-17.90,-247.24 -15.40,-249.63 -11.05,-252.32C-6.70,-255.01 -3.34,-256.42 -0.97,-256.55C5.32,-252.26 9.51,-246.61 11.59,-239.60C8.29,-234.24 2.47,-230.29 -5.86,-227.76ZM3.04,-207.72L-14.02,-111.39L-38.17,-121.47L-21.11,-217.80ZM57.34,-198.11L55.88,-189.86C69.78,-198.87 81.17,-202.32 90.06,-200.19C94.31,-199.16 100.90,-192.50 109.86,-180.20C118.81,-167.89 123.29,-159.81 123.29,-155.93C123.21,-152.35 119.54,-130.05 112.27,-89.02L88.33,-99.07C97.28,-144.91 101.26,-169.31 100.26,-172.25C98.65,-177.24 94.90,-179.32 89.02,-178.49C83.14,-177.67 76.79,-175.44 70.00,-171.80C63.20,-168.17 56.63,-163.66 50.28,-158.29L40.28,-101.77L15.13,-112.03L32.19,-208.37Z" fill="#ffffff" stroke="#000000"/>
    <path d="M-54.05,-176.75L-119.02,-189.73L-130.46,-131.45L-157.05,-142.73L-130.69,-274.67L-130.53,-274.43L-130.65,-274.87L-46.06,-257.97L-33.77,-236.97L-106.87,-251.58L-115.66,-207.60L-66.33,-197.74ZM-6.75,-223.75C-12.85,-228.26 -16.91,-234.09 -18.92,-241.22C-18.23,-243.28 -15.71,-245.59 -11.35,-248.15C-6.99,-250.71 -3.64,-252.04 -1.29,-252.12C4.84,-247.73 8.86,-242.05 10.76,-235.08C7.38,-229.85 1.54,-226.07 -6.75,-223.75ZM1.61,-203.74L-17.34,-108.85L-41.00,-119.34L-22.04,-214.24ZM55.10,-193.05L53.48,-184.93C67.42,-193.55 78.77,-196.70 87.51,-194.41C91.68,-193.30 98.06,-186.57 106.65,-174.21C115.24,-161.85 119.49,-153.75 119.41,-149.92C119.26,-146.38 115.14,-124.41 107.07,-83.99L83.61,-94.45C93.45,-139.59 97.91,-163.63 96.99,-166.56C95.51,-171.52 91.85,-173.66 86.01,-172.97C80.17,-172.29 73.85,-170.22 67.05,-166.77C60.25,-163.32 53.66,-159.01 47.27,-153.83L36.14,-98.16L11.50,-108.85L30.46,-203.75Z" fill="#ffffff" stroke="#000000"/>
    <path d="M-55.47,-174.47L-119.43,-188.72L-132.01,-131.34L-158.05,-143.07L-129.13,-272.96L-128.98,-272.72L-129.09,-273.15L-45.81,-254.61L-34.12,-233.58L-106.08,-249.61L-115.72,-206.31L-67.16,-195.50ZM-7.68,-219.92C-13.62,-224.52 -17.50,-230.36 -19.34,-237.46C-18.61,-239.48 -16.07,-241.71 -11.70,-244.15C-7.34,-246.59 -3.99,-247.82 -1.67,-247.85C4.30,-243.38 8.14,-237.68 9.87,-230.75C6.42,-225.65 0.57,-222.04 -7.68,-219.92ZM0.15,-199.96L-20.65,-106.54L-43.81,-117.43L-23.01,-210.85ZM52.81,-188.23L51.03,-180.24C65.00,-188.45 76.29,-191.33 84.88,-188.87C88.99,-187.68 95.15,-180.89 103.37,-168.48C111.59,-156.07 115.62,-147.98 115.46,-144.19C115.23,-140.69 110.69,-119.05 101.83,-79.27L78.86,-90.11C89.57,-134.54 94.50,-158.21 93.65,-161.13C92.29,-166.07 88.72,-168.26 82.93,-167.71C77.15,-167.15 70.86,-165.25 64.06,-161.98C57.26,-158.72 50.64,-154.60 44.21,-149.62L32.01,-94.82L7.87,-105.92L28.67,-199.34Z" fill="#ffffff" stroke="#000000"/>
    <path d="M-908.25,467.76L-901.71,478.05L-895.48,466.69L-890.20,467.79L-898.41,482.73L-898.33,493.10L-903.65,492L-903.65,481.55L-913,466.65ZM-886.51,478.66L-888.57,475.20C-886.79,474.75 -884.82,474.32 -882.66,473.91C-880.49,473.51 -879.13,473.32 -878.57,473.34C-878.01,473.37 -876.90,474.20 -875.23,475.83C-873.56,477.47 -872.43,478.71 -871.85,479.57C-871.64,479.88 -871.54,480.90 -871.54,482.63C-871.54,484.37 -871.57,486.35 -871.64,488.58C-871.70,490.81 -871.72,492.32 -871.69,493.10L-876.41,492L-876.37,490.06C-878.42,492.11 -880.09,493.14 -881.38,493.14C-882.60,493.11 -884.15,491.96 -886.02,489.68C-887.89,487.40 -888.83,485.77 -888.83,484.78C-888.83,483.99 -888.30,483.27 -887.24,482.61C-886.17,481.96 -884.87,481.44 -883.34,481.08C-881.81,480.71 -880.45,480.42 -879.26,480.22C-878.07,480.02 -877.05,479.88 -876.22,479.80L-876.18,478.78C-876.15,477.56 -876.80,476.90 -878.12,476.80C-879.33,476.72 -881.89,477.27 -885.79,478.43L-885.83,478.43L-885.87,478.47L-885.91,478.47L-885.94,478.47L-885.98,478.51L-886.02,478.51L-886.06,478.51L-886.10,478.55L-886.13,478.55L-886.17,478.55L-886.21,478.59L-886.25,478.59L-886.29,478.59L-886.32,478.59L-886.36,478.62L-886.40,478.62L-886.44,478.62L-886.48,478.66ZM-884.61,488.20C-884.39,488.55 -883.96,488.78 -883.32,488.88C-882.69,488.99 -881.73,488.81 -880.45,488.37C-879.17,487.93 -877.79,487.15 -876.29,486.03L-876.25,482.69C-882.94,484.64 -885.73,486.48 -884.61,488.20ZM-867.89,476.50L-869.03,473.84L-865.92,473.84L-865.92,469.73L-861.24,470.80L-861.24,473.84L-856.61,473.84L-855.47,476.50L-861.24,476.50L-861.24,481.32C-861.24,481.60 -861.24,482.02 -861.24,482.58C-861.24,483.26 -861.25,483.94 -861.26,484.63C-861.28,485.31 -861.24,485.96 -861.15,486.57C-861.06,487.17 -860.95,487.73 -860.83,488.24C-860.70,488.74 -860.48,489.15 -860.18,489.45C-859.88,489.76 -859.51,489.96 -859.08,490.06C-858.65,490.16 -858.10,490.09 -857.42,489.85C-856.75,489.61 -855.99,489.21 -855.13,488.66L-854.10,489.83C-855.57,491.18 -856.80,492.11 -857.79,492.65C-858.55,493.08 -859.59,493.01 -860.92,492.44C-862.25,491.87 -863.42,491.07 -864.42,490.04C-865.42,489.02 -865.92,488.12 -865.92,487.36L-865.92,476.50ZM-846.16,474.90L-846.16,477.71C-844.31,474.80 -842.74,473.34 -841.45,473.34C-840.81,473.34 -839.75,473.67 -838.25,474.31C-836.76,474.96 -835.51,475.62 -834.49,476.31L-837.11,480.11C-838.68,478.94 -840.05,478.30 -841.20,478.19C-842.35,478.07 -843.27,478.30 -843.95,478.87C-844.64,479.44 -845.37,480.36 -846.16,481.63L-846.16,493.10L-850.91,492.04L-850.91,473.84ZM-830.58,478.66L-832.63,475.20C-830.86,474.75 -828.89,474.32 -826.72,473.91C-824.55,473.51 -823.19,473.32 -822.64,473.34C-822.08,473.37 -820.96,474.20 -819.29,475.83C-817.62,477.47 -816.49,478.71 -815.91,479.57C-815.71,479.88 -815.61,480.90 -815.61,482.63C-815.61,484.37 -815.64,486.35 -815.70,488.58C-815.76,490.81 -815.78,492.32 -815.76,493.10L-820.47,492L-820.43,490.06C-822.48,492.11 -824.16,493.14 -825.45,493.14C-826.66,493.11 -828.21,491.96 -830.08,489.68C-831.96,487.40 -832.90,485.77 -832.90,484.78C-832.90,483.99 -832.36,483.27 -831.30,482.61C-830.24,481.96 -828.94,481.44 -827.41,481.08C-825.87,480.71 -824.51,480.42 -823.32,480.22C-822.13,480.02 -821.12,479.88 -820.28,479.80L-820.24,478.78C-820.22,477.56 -820.86,476.90 -822.18,476.80C-823.40,476.72 -825.95,477.27 -829.86,478.43L-829.89,478.43L-829.93,478.47L-829.97,478.47L-830.01,478.47L-830.05,478.51L-830.08,478.51L-830.12,478.51L-830.16,478.55L-830.20,478.55L-830.24,478.55L-830.27,478.59L-830.31,478.59L-830.35,478.59L-830.39,478.59L-830.43,478.62L-830.46,478.62L-830.50,478.62L-830.54,478.66ZM-828.68,488.20C-828.45,488.55 -828.02,488.78 -827.39,488.88C-826.75,488.99 -825.80,488.81 -824.52,488.37C-823.24,487.93 -821.85,487.15 -820.36,486.03L-820.32,482.69C-827.01,484.64 -829.79,486.48 -828.68,488.20Z"/>
</svg>