<?xml version="1.0"?>
<svg xmlns="http://www.w3.org/2000/svg" width="1920" height="1080" viewBox="-960 -540 1920 1080">
    <path d="M-522.88,-375L-592.13,-375L-592.13,-210L-557.63,-210L-557.63,-268.50L-522.88,-268.50C-485.13,-268.50 -462.13,-288.25 -462.13,-321.75C-462.13,-355.25 -485.13,-375 -522.88,-375ZM-528.13,-295.75L-557.63,-295.75L-557.63,-347.75L-528.13,-347.75C-507.38,-347.75 -497.13,-339 -497.13,-321.75C-497.13,-304.50 -507.38,-295.75 -528.13,-295.75ZM-318.38,-279.25C-318.38,-312.75 -340.13,-337.50 -377.88,-337.50C-415.13,-337.50 -441.13,-313.50 -441.13,-272.50C-441.13,-231.50 -415.63,-207.50 -376.13,-207.50C-350.63,-207.50 -328.88,-218.75 -320.88,-238.50L-348.13,-249C-353.13,-239 -361.63,-233 -376.38,-233C-393.63,-233 -404.88,-242.25 -407.63,-261.75L-319.38,-261.75C-318.88,-266.25 -318.38,-272.50 -318.38,-279.25ZM-378.13,-312.25C-362.63,-312.25 -353.13,-302.75 -351.38,-285.50L-407.38,-285.50C-404.13,-303.25 -393.88,-312.25 -378.13,-312.25ZM-202.88,-389.75L-202.88,-314C-209.63,-328.25 -222.88,-337.50 -240.88,-337.50C-271.88,-337.50 -295.63,-313.75 -295.63,-272.25C-295.63,-231.50 -273.13,-207.50 -242.13,-207.50C-223.38,-207.50 -207.88,-217.50 -200.88,-234.25L-199.38,-210L-168.63,-210L-168.63,-389.75ZM-232.13,-233.75C-250.63,-233.75 -261.38,-247.25 -261.38,-272.50C-261.38,-297.75 -250.13,-311.25 -231.63,-311.25C-214.13,-311.25 -202.88,-297.25 -202.88,-273.50C-202.88,-248.25 -214.38,-233.75 -232.13,-233.75ZM-18.38,-231C-24.38,-231 -27.38,-234 -27.38,-240.50L-27.38,-291.25C-27.38,-322 -49.38,-337.50 -82.13,-337.50C-114.63,-337.50 -133.63,-323 -139.38,-301L-110.13,-292C-105.88,-306.75 -95.88,-312.50 -83.63,-312.50C-70.38,-312.50 -61.38,-304 -61.38,-289.75L-61.38,-285L-104.38,-276.25C-126.88,-271.75 -139.13,-259.75 -139.13,-241.25C-139.13,-219.25 -123.38,-207.50 -97.88,-207.50C-82.13,-207.50 -66.13,-214 -58.13,-225.50C-54.38,-213.75 -42.88,-208 -28.63,-207.75C-21.88,-207.75 -16.38,-209 -12.38,-211L-10.38,-232.25C-12.63,-231.50 -15.63,-231 -18.38,-231ZM-89.13,-231.75C-97.88,-231.75 -104.88,-236.25 -104.88,-244.50C-104.88,-253.25 -99.13,-256.25 -87.63,-258.50L-61.38,-263.75L-61.38,-256C-61.38,-237.75 -74.88,-231.75 -89.13,-231.75ZM85.13,-233.50L46.63,-233.50C35.88,-233.50 30.63,-237 30.63,-244C30.63,-248.75 33.63,-252.50 40.88,-254.75C47.13,-253.50 54.38,-252.75 62.13,-252.75C97.38,-252.75 119.13,-269 119.13,-295C119.13,-308.50 113.38,-319.25 103.13,-326.50C105.38,-336.25 114.38,-341.75 130.13,-340.25L126.13,-364.75C104.38,-365.75 91.63,-351.75 89.13,-333.50C81.38,-336.25 72.38,-337.50 62.13,-337.50C26.88,-337.50 5.13,-321.25 5.13,-295C5.13,-279.75 11.88,-268 24.88,-260.75C12.63,-256.25 5.63,-247.50 5.63,-236C5.63,-224.25 11.63,-216.50 22.38,-212.50C6.13,-209 -0.38,-200 -0.38,-188.75C-0.38,-169.50 18.63,-156.25 61.63,-156.25C100.63,-156.25 127.38,-171.50 127.38,-200.25C127.38,-221.25 112.13,-233.50 85.13,-233.50ZM62.13,-316C75.38,-316 84.88,-308.25 84.88,-295.25C84.88,-282.25 75.38,-274.25 62.13,-274.25C48.88,-274.25 39.13,-282.25 39.13,-295.25C39.13,-308.25 48.88,-316 62.13,-316ZM61.88,-179.75C39.88,-179.75 26.63,-185.50 26.63,-194.75C26.63,-201.50 32.38,-206 40.38,-206L82.63,-206C95.63,-206 99.88,-202 99.88,-195.50C99.88,-186.75 87.63,-179.75 61.88,-179.75ZM205.13,-337.50C167.38,-337.50 141.13,-313.25 141.13,-272.50C141.13,-231.75 167.38,-207.50 205.13,-207.50C242.88,-207.50 269.13,-231.75 269.13,-272.50C269.13,-313.25 242.88,-337.50 205.13,-337.50ZM205.13,-312C223.63,-312 234.63,-299 234.63,-272.50C234.63,-246 223.63,-233 205.13,-233C186.38,-233 175.38,-246 175.38,-272.50C175.38,-299 186.38,-312 205.13,-312ZM372.13,-233.50L333.63,-233.50C322.88,-233.50 317.63,-237 317.63,-244C317.63,-248.75 320.63,-252.50 327.88,-254.75C334.13,-253.50 341.38,-252.75 349.13,-252.75C384.38,-252.75 406.13,-269 406.13,-295C406.13,-308.50 400.38,-319.25 390.13,-326.50C392.38,-336.25 401.38,-341.75 417.13,-340.25L413.13,-364.75C391.38,-365.75 378.63,-351.75 376.13,-333.50C368.38,-336.25 359.38,-337.50 349.13,-337.50C313.88,-337.50 292.13,-321.25 292.13,-295C292.13,-279.75 298.88,-268 311.88,-260.75C299.63,-256.25 292.63,-247.50 292.63,-236C292.63,-224.25 298.63,-216.50 309.38,-212.50C293.13,-209 286.63,-200 286.63,-188.75C286.63,-169.50 305.63,-156.25 348.63,-156.25C387.63,-156.25 414.38,-171.50 414.38,-200.25C414.38,-221.25 399.13,-233.50 372.13,-233.50ZM349.13,-316C362.38,-316 371.88,-308.25 371.88,-295.25C371.88,-282.25 362.38,-274.25 349.13,-274.25C335.88,-274.25 326.13,-282.25 326.13,-295.25C326.13,-308.25 335.88,-316 349.13,-316ZM348.88,-179.75C326.88,-179.75 313.63,-185.50 313.63,-194.75C313.63,-201.50 319.38,-206 327.38,-206L369.63,-206C382.63,-206 386.88,-202 386.88,-195.50C386.88,-186.75 374.63,-179.75 348.88,-179.75ZM552.63,-335L517.88,-335L495.13,-261.50L487.38,-235L480.88,-260L457.13,-335L419.13,-335L457.38,-240.75L471.13,-208.25L466.88,-197.50C462.13,-185.50 455.63,-182.50 446.13,-182.50C437.13,-182.50 430.13,-184.50 424.13,-189.50L416.88,-164.75C424.88,-159.50 435.63,-156.25 448.88,-156.25C475.38,-156.25 489.88,-168.25 502.13,-202.25Z" fill="#ffffff" stroke="#000000"/>
    <path d="M-544.25,-337.00L-612.69,-332.98L-603.12,-169.91L-569.03,-171.91L-572.42,-229.73L-538.08,-231.74C-500.77,-233.93 -479.18,-254.78 -481.12,-287.89C-483.06,-321.00 -506.94,-339.19 -544.25,-337.00ZM-544.84,-258.37L-574.00,-256.66L-577.01,-308.05L-547.86,-309.76C-527.35,-310.96 -516.71,-302.91 -515.71,-285.86C-514.71,-268.81 -524.34,-259.57 -544.84,-258.37ZM-336.59,-254.22C-338.53,-287.33 -361.46,-310.53 -398.77,-308.34C-435.58,-306.18 -459.89,-280.96 -457.51,-240.43C-455.14,-199.91 -428.54,-177.67 -389.51,-179.96C-364.30,-181.44 -343.46,-193.82 -336.70,-213.80L-364.24,-222.60C-368.60,-212.43 -376.65,-206.00 -391.23,-205.15C-408.28,-204.15 -419.93,-212.64 -423.78,-231.75L-336.56,-236.87C-336.33,-241.34 -336.20,-247.55 -336.59,-254.22ZM-397.55,-283.37C-382.24,-284.27 -372.30,-275.43 -369.57,-258.48L-424.91,-255.24C-422.73,-272.97 -413.12,-282.46 -397.55,-283.37ZM-228.85,-370.12L-224.46,-295.26C-231.95,-308.95 -245.58,-317.32 -263.37,-316.28C-294.01,-314.48 -316.11,-289.63 -313.70,-248.62C-311.34,-208.35 -287.71,-185.93 -257.07,-187.73C-238.54,-188.81 -223.80,-199.60 -217.86,-216.56L-214.97,-192.68L-184.58,-194.46L-195.00,-372.11ZM-248.71,-214.25C-267.00,-213.18 -278.40,-225.90 -279.87,-250.85C-281.33,-275.81 -270.99,-289.80 -252.71,-290.87C-235.41,-291.89 -223.48,-278.70 -222.11,-255.23C-220.64,-230.28 -231.17,-215.28 -248.71,-214.25ZM-37.30,-223.92C-43.23,-223.57 -46.37,-226.36 -46.75,-232.79L-49.69,-282.94C-51.47,-313.33 -74.11,-327.38 -106.48,-325.48C-138.60,-323.60 -156.54,-308.16 -160.94,-286.09L-131.52,-278.89C-128.17,-293.71 -118.62,-299.98 -106.51,-300.69C-93.42,-301.45 -84.03,-293.57 -83.21,-279.49L-82.93,-274.80L-124.92,-263.66C-146.90,-257.91 -158.31,-245.34 -157.23,-227.05C-155.96,-205.31 -139.71,-194.61 -114.51,-196.09C-98.95,-197.00 -83.51,-204.35 -76.27,-216.18C-71.88,-204.79 -60.18,-199.77 -46.09,-200.35C-39.42,-200.74 -34.05,-202.29 -30.21,-204.50L-29.47,-225.62C-31.65,-224.75 -34.59,-224.08 -37.30,-223.92ZM-107.27,-220.56C-115.92,-220.05 -123.10,-224.10 -123.57,-232.25C-124.08,-240.90 -118.57,-244.20 -107.34,-247.09L-81.70,-253.80L-81.25,-246.14C-80.19,-228.10 -93.19,-221.39 -107.27,-220.56ZM64.84,-232.39L26.79,-230.16C16.17,-229.54 10.78,-232.69 10.37,-239.61C10.09,-244.30 12.84,-248.18 19.88,-250.83C26.13,-249.95 33.34,-249.63 40.99,-250.08C75.83,-252.12 96.39,-269.44 94.88,-295.14C94.10,-308.48 87.79,-318.77 77.24,-325.34C78.90,-335.11 87.48,-341.07 103.13,-340.50L97.75,-364.48C76.20,-364.21 64.41,-349.63 63.00,-331.45C55.18,-333.72 46.21,-334.43 36.08,-333.84C1.25,-331.80 -19.31,-314.48 -17.79,-288.53C-16.90,-273.46 -9.55,-262.24 3.72,-255.83C-8.13,-250.67 -14.54,-241.62 -13.87,-230.25C-13.19,-218.64 -6.81,-211.33 4.04,-208.00C-11.82,-203.60 -17.72,-194.33 -17.07,-183.21C-15.95,-164.18 3.60,-152.19 46.09,-154.68C84.64,-156.94 110.19,-173.56 108.52,-201.98C107.31,-222.73 91.53,-233.95 64.84,-232.39ZM37.33,-312.59C50.42,-313.36 60.26,-306.25 61.02,-293.40C61.77,-280.55 52.84,-272.10 39.75,-271.33C26.65,-270.56 16.55,-277.90 15.80,-290.75C15.05,-303.60 24.23,-311.82 37.33,-312.59ZM44.98,-177.92C23.24,-176.65 9.81,-181.56 9.27,-190.70C8.88,-197.37 14.30,-202.15 22.21,-202.62L63.96,-205.07C76.81,-205.82 81.24,-202.11 81.62,-195.69C82.13,-187.04 70.43,-179.41 44.98,-177.92ZM177.41,-342.13C140.10,-339.94 115.56,-314.45 117.93,-274.18C120.29,-233.91 147.64,-211.46 184.94,-213.65C222.25,-215.84 246.79,-241.32 244.43,-281.60C242.07,-321.87 214.72,-344.32 177.41,-342.13ZM178.89,-316.93C197.17,-318.00 208.80,-305.79 210.33,-279.60C211.87,-253.41 201.75,-239.92 183.47,-238.85C164.94,-237.76 153.31,-249.97 151.78,-276.16C150.24,-302.35 160.36,-315.84 178.89,-316.93ZM348.48,-249.02L310.43,-246.79C299.81,-246.17 294.42,-249.32 294.01,-256.24C293.74,-260.94 296.48,-264.82 303.52,-267.46C309.77,-266.59 316.98,-266.26 324.64,-266.71C359.47,-268.76 380.03,-286.08 378.52,-311.77C377.74,-325.12 371.43,-335.41 360.88,-341.98C362.54,-351.74 371.12,-357.70 386.77,-357.13L381.40,-381.11C359.84,-380.84 348.05,-366.27 346.64,-348.08C338.82,-350.35 329.86,-351.07 319.73,-350.47C284.89,-348.43 264.33,-331.11 265.86,-305.17C266.74,-290.09 274.09,-278.87 287.36,-272.46C275.51,-267.30 269.10,-258.25 269.77,-246.89C270.45,-235.27 276.83,-227.96 287.68,-224.63C271.83,-220.23 265.93,-210.96 266.58,-199.84C267.69,-180.82 287.24,-168.82 329.74,-171.31C368.28,-173.57 393.83,-190.20 392.17,-218.61C390.95,-239.36 375.17,-250.59 348.48,-249.02ZM320.97,-329.22C334.07,-329.99 343.90,-322.88 344.66,-310.04C345.41,-297.19 336.49,-288.73 323.39,-287.96C310.30,-287.19 300.20,-294.54 299.44,-307.38C298.69,-320.23 307.88,-328.46 320.97,-329.22ZM328.62,-194.55C306.88,-193.28 293.45,-198.19 292.91,-207.34C292.52,-214.01 297.94,-218.79 305.85,-219.25L347.61,-221.70C360.45,-222.45 364.89,-218.75 365.26,-212.32C365.77,-203.67 354.07,-196.05 328.62,-194.55ZM520.99,-359.80L486.65,-357.78L468.42,-283.82L462.30,-257.18L454.43,-281.51L426.61,-354.26L389.05,-352.06L432.32,-261.13L447.79,-229.81L444.21,-218.93C440.21,-206.80 433.96,-203.46 424.57,-202.91C415.68,-202.39 408.64,-203.96 402.43,-208.55L396.69,-183.67C404.91,-178.94 415.72,-176.36 428.81,-177.12C455.00,-178.66 468.64,-191.36 478.77,-225.67Z" fill="#ffffff" stroke="#000000"/>
    <path d="M-562.85,-297.88L-630.25,-289.94L-611.35,-129.35L-577.77,-133.30L-584.47,-190.24L-550.65,-194.22C-513.91,-198.55 -493.79,-220.40 -497.62,-253.01C-501.46,-285.61 -526.11,-302.20 -562.85,-297.88ZM-558.88,-220.14L-587.59,-216.76L-593.55,-267.37L-564.84,-270.75C-544.64,-273.13 -533.67,-265.79 -531.69,-249.00C-529.71,-232.21 -538.69,-222.52 -558.88,-220.14ZM-352.85,-228.11C-356.68,-260.71 -380.69,-282.31 -417.43,-277.99C-453.68,-273.72 -476.24,-247.38 -471.54,-207.48C-466.85,-167.57 -439.28,-147.14 -400.84,-151.66C-376.02,-154.58 -356.14,-168.02 -350.61,-188.16L-378.34,-195.26C-382.06,-184.95 -389.64,-178.14 -404.00,-176.45C-420.79,-174.47 -432.80,-182.19 -437.71,-200.85L-351.82,-210.96C-351.84,-215.40 -352.07,-221.54 -352.85,-228.11ZM-414.78,-253.38C-399.69,-255.16 -389.36,-247.00 -385.68,-230.41L-440.18,-224.00C-439.05,-241.65 -430.11,-251.58 -414.78,-253.38ZM-253.09,-348.89L-244.41,-275.16C-252.61,-288.26 -266.57,-295.74 -284.09,-293.68C-314.26,-290.13 -334.66,-264.29 -329.90,-223.90C-325.24,-184.24 -300.59,-163.46 -270.42,-167.01C-252.17,-169.16 -238.23,-180.66 -233.33,-197.77L-229.09,-174.34L-199.17,-177.86L-219.75,-352.81ZM-263.69,-193.70C-281.70,-191.58 -293.70,-203.49 -296.60,-228.07C-299.49,-252.64 -290.09,-267.07 -272.08,-269.19C-255.05,-271.19 -242.49,-258.86 -239.77,-235.74C-236.88,-211.17 -246.41,-195.74 -263.69,-193.70ZM-55.34,-215.51C-61.17,-214.82 -64.44,-217.40 -65.18,-223.72L-71.00,-273.12C-74.52,-303.05 -97.71,-315.61 -129.58,-311.86C-161.21,-308.14 -178.04,-291.85 -181.12,-269.78L-151.62,-264.37C-149.17,-279.21 -140.10,-285.96 -128.18,-287.36C-115.28,-288.88 -105.55,-281.63 -103.92,-267.76L-103.37,-263.14L-144.22,-249.70C-165.60,-242.74 -176.15,-229.66 -174.03,-211.65C-171.51,-190.24 -154.84,-180.61 -130.02,-183.53C-114.69,-185.34 -99.86,-193.49 -93.39,-205.60C-88.40,-194.60 -76.55,-190.32 -62.65,-191.71C-56.08,-192.48 -50.87,-194.33 -47.20,-196.73L-47.69,-217.64C-49.80,-216.65 -52.66,-215.82 -55.34,-215.51ZM-124.28,-208.14C-132.80,-207.13 -140.13,-210.71 -141.07,-218.74C-142.07,-227.26 -136.82,-230.84 -125.88,-234.34L-100.94,-242.46L-100.05,-234.92C-97.96,-217.15 -110.41,-209.77 -124.28,-208.14ZM45.11,-229.80L7.64,-225.39C-2.82,-224.16 -8.33,-226.96 -9.13,-233.77C-9.68,-238.40 -7.19,-242.39 -0.39,-245.41C5.84,-244.91 12.98,-245.01 20.52,-245.90C54.83,-249.94 74.14,-268.24 71.16,-293.55C69.61,-306.69 62.79,-316.49 51.98,-322.37C53.05,-332.12 61.18,-338.51 76.68,-338.85L69.98,-362.24C48.70,-360.72 37.90,-345.63 37.55,-327.58C29.69,-329.37 20.79,-329.56 10.82,-328.38C-23.49,-324.35 -42.80,-306.04 -39.79,-280.49C-38.05,-265.65 -30.13,-254.99 -16.65,-249.42C-28.06,-243.64 -33.87,-234.32 -32.55,-223.12C-31.20,-211.69 -24.48,-204.83 -13.55,-202.17C-28.97,-196.90 -34.27,-187.40 -32.98,-176.45C-30.77,-157.71 -10.76,-146.99 31.09,-151.92C69.05,-156.39 93.34,-174.29 90.04,-202.28C87.64,-222.71 71.39,-232.89 45.11,-229.80ZM13.28,-307.46C26.17,-308.98 36.31,-302.52 37.80,-289.87C39.29,-277.22 30.96,-268.34 18.06,-266.82C5.16,-265.31 -5.24,-271.98 -6.73,-284.63C-8.22,-297.28 0.38,-305.94 13.28,-307.46ZM28.64,-174.82C7.23,-172.30 -6.33,-176.38 -7.39,-185.38C-8.16,-191.95 -3.08,-196.99 4.71,-197.91L45.83,-202.75C58.48,-204.24 63.08,-200.83 63.82,-194.50C64.82,-185.99 53.70,-177.77 28.64,-174.82ZM149.99,-344.76C113.25,-340.44 90.48,-313.83 95.15,-274.17C99.82,-234.51 128.14,-213.91 164.89,-218.24C201.63,-222.56 224.40,-249.17 219.73,-288.83C215.06,-328.49 186.74,-349.09 149.99,-344.76ZM152.92,-319.95C170.92,-322.06 183.12,-310.67 186.15,-284.88C189.19,-259.09 179.97,-245.18 161.96,-243.06C143.72,-240.91 131.52,-252.30 128.48,-278.09C125.45,-303.89 134.67,-317.80 152.92,-319.95ZM324.45,-262.67L286.97,-258.26C276.51,-257.03 271.00,-259.84 270.20,-266.65C269.65,-271.27 272.15,-275.26 278.94,-278.28C285.17,-277.78 292.31,-277.88 299.86,-278.77C334.16,-282.81 353.47,-301.12 350.49,-326.42C348.95,-339.56 342.12,-349.37 331.31,-355.25C332.39,-365.00 340.52,-371.38 356.02,-371.72L349.32,-395.11C328.03,-393.59 317.23,-378.51 316.88,-360.46C309.03,-362.25 300.12,-362.43 290.15,-361.26C255.84,-357.22 236.53,-338.91 239.54,-313.36C241.29,-298.52 249.20,-287.86 262.68,-282.29C251.28,-276.51 245.47,-267.19 246.78,-256.00C248.13,-244.56 254.86,-237.71 265.78,-235.04C250.36,-229.78 245.07,-220.27 246.36,-209.32C248.56,-190.59 268.57,-179.87 310.42,-184.79C348.38,-189.26 372.67,-207.17 369.38,-235.15C366.97,-255.59 350.72,-265.76 324.45,-262.67ZM292.61,-340.33C305.51,-341.85 315.64,-335.40 317.13,-322.74C318.62,-310.09 310.29,-301.22 297.39,-299.70C284.50,-298.18 274.09,-304.85 272.60,-317.50C271.11,-330.16 279.71,-338.81 292.61,-340.33ZM307.97,-207.69C286.56,-205.17 273.01,-209.25 271.95,-218.26C271.17,-224.83 276.25,-229.86 284.04,-230.78L325.16,-235.62C337.81,-237.11 342.41,-233.70 343.15,-227.38C344.16,-218.86 333.04,-210.64 307.97,-207.69ZM488.50,-382.13L454.68,-378.15L440.95,-304.01L436.44,-277.33L427.25,-300.92L395.55,-371.20L358.56,-366.84L406.59,-279.49L423.69,-249.44L420.79,-238.49C417.54,-226.26 411.56,-222.60 402.31,-221.51C393.55,-220.48 386.51,-221.62 380.10,-225.80L375.87,-200.88C384.26,-196.69 395.10,-194.76 407.99,-196.28C433.79,-199.31 446.52,-212.65 454.55,-247.15Z" fill="#ffffff" stroke="#000000"/>
    <path d="M-578.63,-257.84L-644.77,-246.09L-616.79,-88.51L-583.84,-94.36L-593.76,-150.23L-560.57,-156.12C-524.52,-162.52 -505.90,-185.29 -511.58,-217.28C-517.26,-249.27 -542.58,-264.24 -578.63,-257.84ZM-570.21,-181.26L-598.38,-176.25L-607.20,-225.92L-579.03,-230.92C-559.21,-234.44 -547.94,-227.82 -545.01,-211.35C-542.09,-194.87 -550.39,-184.78 -570.21,-181.26ZM-367.09,-201.07C-372.77,-233.06 -397.74,-253.01 -433.79,-246.61C-469.37,-240.29 -490.13,-212.96 -483.18,-173.80C-476.22,-134.65 -447.80,-116.05 -410.07,-122.75C-385.72,-127.07 -366.86,-141.50 -362.56,-161.72L-390.37,-167.13C-393.45,-156.73 -400.55,-149.56 -414.64,-147.06C-431.11,-144.13 -443.42,-151.06 -449.36,-169.22L-365.07,-184.18C-365.36,-188.57 -365.94,-194.62 -367.09,-201.07ZM-429.75,-222.45C-414.94,-225.08 -404.26,-217.62 -399.66,-201.44L-453.15,-191.94C-453.05,-209.45 -444.79,-219.78 -429.75,-222.45ZM-275.51,-326.19L-262.67,-253.84C-271.53,-266.30 -285.76,-272.89 -302.95,-269.84C-332.55,-264.58 -351.21,-237.87 -344.17,-198.24C-337.26,-159.32 -311.70,-140.21 -282.10,-145.47C-264.19,-148.65 -251.08,-160.83 -247.24,-178.01L-241.69,-155.11L-212.32,-160.32L-242.80,-331.99ZM-277.00,-172.24C-294.67,-169.10 -307.22,-180.17 -311.50,-204.28C-315.78,-228.40 -307.33,-243.20 -289.66,-246.34C-272.95,-249.31 -259.83,-237.84 -255.80,-215.16C-251.52,-191.04 -260.04,-175.25 -277.00,-172.24ZM-72.39,-205.86C-78.12,-204.84 -81.49,-207.19 -82.59,-213.40L-91.20,-261.87C-96.41,-291.24 -120.05,-302.31 -151.33,-296.76C-182.37,-291.25 -198.06,-274.18 -199.82,-252.19L-170.36,-248.56C-168.80,-263.36 -160.22,-270.55 -148.52,-272.63C-135.87,-274.88 -125.83,-268.28 -123.42,-254.67L-122.61,-250.14L-162.19,-234.49C-182.92,-226.38 -192.58,-212.84 -189.45,-195.17C-185.72,-174.16 -168.68,-165.61 -144.33,-169.93C-129.29,-172.60 -115.11,-181.52 -109.42,-193.86C-103.84,-183.28 -91.88,-179.73 -78.23,-181.91C-71.79,-183.06 -66.74,-185.18 -63.26,-187.77L-64.96,-208.41C-66.98,-207.31 -69.76,-206.32 -72.39,-205.86ZM-140.08,-194.57C-148.44,-193.09 -155.89,-196.20 -157.29,-204.08C-158.77,-212.44 -153.79,-216.28 -143.19,-220.38L-119.01,-229.84L-117.69,-222.44C-114.60,-205.01 -126.47,-196.99 -140.08,-194.57ZM26.04,-225.79L-10.73,-219.27C-21.00,-217.44 -26.60,-219.90 -27.79,-226.58C-28.60,-231.12 -26.37,-235.21 -19.83,-238.59C-13.64,-238.45 -6.59,-238.96 0.81,-240.28C34.47,-246.26 52.49,-265.46 48.08,-290.30C45.79,-303.19 38.48,-312.48 27.46,-317.67C27.96,-327.36 35.62,-334.14 50.92,-335.38L42.94,-358.10C22.00,-355.37 12.20,-339.83 12.90,-321.98C5.03,-323.29 -3.77,-322.96 -13.56,-321.22C-47.23,-315.24 -65.25,-296.04 -60.79,-270.96C-58.21,-256.40 -49.77,-246.32 -36.12,-241.60C-47.06,-235.23 -52.26,-225.68 -50.31,-214.70C-48.32,-203.48 -41.27,-197.09 -30.33,-195.10C-45.26,-189.00 -49.94,-179.30 -48.03,-168.56C-44.77,-150.17 -24.37,-140.74 16.70,-148.03C53.94,-154.64 76.90,-173.74 72.03,-201.20C68.47,-221.26 51.83,-230.37 26.04,-225.79ZM-9.92,-300.69C2.74,-302.93 13.13,-297.14 15.33,-284.73C17.53,-272.31 9.82,-263.06 -2.84,-260.81C-15.49,-258.57 -26.16,-264.55 -28.36,-276.97C-30.57,-289.38 -22.57,-298.44 -9.92,-300.69ZM12.95,-170.52C-8.06,-166.79 -21.69,-170.03 -23.26,-178.87C-24.41,-185.31 -19.68,-190.59 -12.04,-191.94L28.32,-199.11C40.73,-201.31 45.47,-198.21 46.57,-192.00C48.05,-183.65 37.54,-174.88 12.95,-170.52ZM123.01,-345.47C86.96,-339.07 66.00,-311.46 72.91,-272.54C79.82,-233.62 109.00,-214.91 145.06,-221.31C181.11,-227.71 202.07,-255.32 195.16,-294.24C188.25,-333.16 159.07,-351.87 123.01,-345.47ZM127.34,-321.12C145.00,-324.25 157.71,-313.70 162.21,-288.39C166.70,-263.08 158.40,-248.80 140.73,-245.67C122.82,-242.49 110.11,-253.04 105.62,-278.35C101.13,-303.65 109.43,-317.94 127.34,-321.12ZM300.14,-274.46L263.37,-267.93C253.11,-266.11 247.50,-268.56 246.31,-275.25C245.51,-279.78 247.74,-283.87 254.28,-287.25C260.46,-287.12 267.51,-287.63 274.91,-288.95C308.58,-294.92 326.60,-314.13 322.19,-338.96C319.90,-351.86 312.58,-361.15 301.56,-366.33C302.06,-376.03 309.72,-382.81 325.02,-384.05L317.04,-406.77C296.10,-404.03 286.30,-388.50 287.01,-370.65C279.14,-371.96 270.33,-371.63 260.54,-369.89C226.87,-363.91 208.86,-344.70 213.31,-319.63C215.89,-305.07 224.33,-294.99 237.98,-290.27C227.04,-283.90 221.84,-274.35 223.79,-263.37C225.78,-252.15 232.83,-245.76 243.77,-243.76C228.85,-237.67 224.17,-227.97 226.07,-217.22C229.34,-198.84 249.73,-189.41 290.80,-196.70C328.05,-203.31 351.01,-222.41 346.13,-249.87C342.57,-269.93 325.93,-279.04 300.14,-274.46ZM264.19,-349.35C276.84,-351.60 287.23,-345.81 289.43,-333.39C291.64,-320.98 283.92,-311.73 271.27,-309.48C258.61,-307.23 247.94,-313.22 245.74,-325.64C243.53,-338.05 251.53,-347.11 264.19,-349.35ZM287.05,-219.18C266.04,-215.45 252.41,-218.70 250.84,-227.53C249.70,-233.98 254.43,-239.25 262.07,-240.61L302.42,-247.77C314.83,-249.98 319.57,-246.88 320.67,-240.67C322.16,-232.31 311.64,-223.55 287.05,-219.18ZM455.32,-402.01L422.13,-396.12L412.87,-322.06L409.96,-295.44L399.51,-318.21L364.11,-385.81L327.82,-379.37L380.33,-295.84L398.98,-267.13L396.74,-256.15C394.24,-243.88 388.54,-239.91 379.47,-238.30C370.87,-236.78 363.85,-237.50 357.27,-241.26L354.54,-216.39C363.07,-212.73 373.89,-211.45 386.54,-213.70C411.85,-218.19 423.67,-232.11 429.60,-266.66Z" fill="#ffffff" stroke="#000000"/>
    <path d="M-591.56,-217.08L-656.22,-201.64L-619.45,-47.57L-587.23,-55.26L-600.27,-109.89L-567.82,-117.63C-532.57,-126.04 -515.50,-149.61 -522.96,-180.89C-530.43,-212.17 -556.31,-225.49 -591.56,-217.08ZM-578.80,-141.91L-606.34,-135.33L-617.93,-183.89L-590.39,-190.46C-571.01,-195.09 -559.49,-189.20 -555.65,-173.09C-551.80,-156.99 -559.42,-146.53 -578.80,-141.91ZM-379.26,-173.25C-386.73,-204.53 -412.55,-222.79 -447.80,-214.38C-482.59,-206.08 -501.52,-177.87 -492.38,-139.59C-483.24,-101.30 -454.08,-84.57 -417.20,-93.38C-393.39,-99.06 -375.58,-114.41 -372.51,-134.64L-400.30,-138.37C-402.74,-127.92 -409.34,-120.42 -423.11,-117.13C-439.22,-113.29 -451.79,-119.42 -458.70,-137.01L-376.30,-156.68C-376.83,-161.00 -377.76,-166.94 -379.26,-173.25ZM-442.41,-190.74C-427.94,-194.20 -416.95,-187.44 -411.47,-171.73L-463.76,-159.25C-464.68,-176.55 -457.12,-187.23 -442.41,-190.74ZM-296.04,-302.17L-279.16,-231.44C-288.63,-243.24 -303.07,-248.92 -319.88,-244.91C-348.82,-238.00 -365.71,-210.53 -356.46,-171.78C-347.38,-133.73 -321.02,-116.33 -292.07,-123.24C-274.56,-127.42 -262.32,-140.21 -259.51,-157.41L-252.71,-135.10L-224.00,-141.96L-264.06,-309.80ZM-288.58,-149.98C-305.86,-145.86 -318.90,-156.07 -324.53,-179.65C-330.16,-203.22 -322.66,-218.34 -305.39,-222.46C-289.05,-226.36 -275.42,-215.79 -270.13,-193.62C-264.50,-170.04 -272.01,-153.94 -288.58,-149.98ZM-88.38,-195.05C-93.98,-193.71 -97.45,-195.85 -98.90,-201.92L-110.21,-249.31C-117.06,-278.02 -141.06,-287.59 -171.64,-280.29C-201.99,-273.05 -216.50,-255.27 -216.96,-233.45L-187.65,-231.56C-186.96,-246.28 -178.91,-253.88 -167.47,-256.61C-155.10,-259.57 -144.80,-253.63 -141.62,-240.33L-140.56,-235.89L-178.77,-218.14C-198.77,-208.92 -207.54,-194.99 -203.41,-177.71C-198.51,-157.17 -181.19,-149.71 -157.37,-155.39C-142.67,-158.90 -129.18,-168.54 -124.27,-181.06C-118.15,-170.92 -106.13,-168.11 -92.77,-171.06C-86.46,-172.56 -81.61,-174.95 -78.32,-177.71L-81.19,-198.00C-83.12,-196.80 -85.81,-195.66 -88.38,-195.05ZM-154.61,-179.98C-162.78,-178.03 -170.32,-180.68 -172.16,-188.38C-174.11,-196.55 -169.41,-200.63 -159.17,-205.30L-135.83,-216.05L-134.10,-208.81C-130.03,-191.77 -141.30,-183.16 -154.61,-179.98ZM7.71,-220.45L-28.24,-211.87C-38.28,-209.48 -43.96,-211.58 -45.52,-218.11C-46.58,-222.55 -44.61,-226.72 -38.34,-230.43C-32.23,-230.66 -25.29,-231.58 -18.06,-233.30C14.86,-241.16 31.55,-261.18 25.75,-285.46C22.74,-298.06 14.98,-306.82 3.79,-311.31C3.72,-320.91 10.90,-328.05 25.94,-330.16L16.74,-352.15C-3.79,-348.23 -12.57,-332.32 -10.84,-314.72C-18.69,-315.56 -27.37,-314.72 -36.94,-312.44C-69.86,-304.58 -86.55,-284.56 -80.70,-260.05C-77.30,-245.81 -68.38,-236.34 -54.62,-232.47C-65.06,-225.54 -69.64,-215.81 -67.08,-205.07C-64.46,-194.10 -57.13,-188.20 -46.20,-186.86C-60.60,-179.97 -64.66,-170.12 -62.15,-159.61C-57.86,-141.64 -37.17,-133.50 2.98,-143.08C39.40,-151.77 60.98,-171.98 54.57,-198.82C49.89,-218.43 32.92,-226.47 7.71,-220.45ZM-32.15,-292.36C-19.78,-295.32 -9.18,-290.20 -6.28,-278.06C-3.39,-265.92 -10.47,-256.33 -22.85,-253.38C-35.22,-250.43 -46.11,-255.72 -49.00,-267.86C-51.90,-280.00 -44.52,-289.41 -32.15,-292.36ZM-2.02,-165.08C-22.56,-160.18 -36.22,-162.59 -38.28,-171.23C-39.78,-177.53 -35.42,-183.02 -27.95,-184.80L11.51,-194.22C23.64,-197.11 28.50,-194.33 29.95,-188.26C31.90,-180.09 22.02,-170.82 -2.02,-165.08ZM96.59,-344.31C61.34,-335.90 42.23,-307.40 51.31,-269.35C60.39,-231.30 90.31,-214.51 125.56,-222.92C160.81,-231.33 179.92,-259.83 170.83,-297.88C161.75,-335.93 131.84,-352.72 96.59,-344.31ZM102.27,-320.50C119.54,-324.62 132.71,-314.93 138.62,-290.19C144.52,-265.44 137.15,-250.85 119.88,-246.73C102.37,-242.55 89.20,-252.24 83.29,-276.98C77.39,-301.73 84.76,-316.32 102.27,-320.50ZM275.70,-284.42L239.75,-275.84C229.72,-273.44 224.03,-275.54 222.47,-282.07C221.41,-286.51 223.38,-290.68 229.65,-294.40C235.76,-294.62 242.70,-295.54 249.94,-297.27C282.85,-305.12 299.54,-325.14 293.75,-349.42C290.74,-362.03 282.97,-370.78 271.78,-375.27C271.71,-384.87 278.89,-392.02 293.93,-394.13L284.74,-416.11C264.20,-412.20 255.42,-396.28 257.15,-378.69C249.30,-379.53 240.62,-378.69 231.05,-376.40C198.13,-368.55 181.45,-348.53 187.30,-324.01C190.69,-309.77 199.62,-300.31 213.37,-296.43C202.94,-289.50 198.35,-279.77 200.91,-269.03C203.53,-258.06 210.86,-252.16 221.79,-250.82C207.40,-243.93 203.33,-234.08 205.84,-223.58C210.13,-205.60 230.82,-197.46 270.98,-207.05C307.39,-215.74 328.97,-235.94 322.57,-262.78C317.89,-282.39 300.92,-290.43 275.70,-284.42ZM235.84,-356.33C248.21,-359.28 258.81,-354.16 261.71,-342.02C264.61,-329.88 257.52,-320.29 245.15,-317.34C232.77,-314.39 221.89,-319.69 218.99,-331.83C216.09,-343.96 223.47,-353.37 235.84,-356.33ZM265.97,-229.04C245.43,-224.14 231.78,-226.56 229.71,-235.20C228.21,-241.50 232.58,-246.98 240.05,-248.76L279.50,-258.18C291.64,-261.08 296.50,-258.29 297.95,-252.22C299.90,-244.05 290.02,-234.78 265.97,-229.04ZM421.63,-419.42L389.18,-411.68L384.32,-337.98L382.99,-311.50L371.35,-333.40L332.45,-398.14L296.97,-389.67L353.69,-310.19L373.77,-282.90L372.20,-271.92C370.44,-259.65 365.04,-255.40 356.17,-253.29C347.77,-251.28 340.78,-251.59 334.07,-254.92L332.81,-230.19C341.45,-227.07 352.21,-226.43 364.59,-229.39C389.33,-235.29 400.20,-249.73 404.06,-284.21Z" fill="#ffffff" stroke="#000000"/>
    <path d="M-601.60,-175.80L-664.59,-156.81L-619.33,-6.74L-587.96,-16.20L-604.00,-69.41L-572.39,-78.94C-538.06,-89.29 -522.55,-113.56 -531.74,-144.03C-540.93,-174.50 -567.27,-186.16 -601.60,-175.80ZM-584.64,-102.28L-611.47,-94.19L-625.73,-141.49L-598.90,-149.58C-580.03,-155.27 -568.31,-150.12 -563.58,-134.43C-558.85,-118.74 -565.77,-107.97 -584.64,-102.28ZM-389.34,-144.80C-398.53,-175.27 -425.10,-191.82 -459.43,-181.46C-493.31,-171.25 -510.38,-142.29 -499.13,-105.00C-487.89,-67.71 -458.11,-52.87 -422.19,-63.70C-398.99,-70.70 -382.30,-86.89 -380.44,-107.05L-408.10,-109.13C-409.91,-98.66 -415.99,-90.87 -429.41,-86.83C-445.10,-82.10 -457.87,-87.43 -465.72,-104.41L-385.45,-128.61C-386.23,-132.84 -387.49,-138.66 -389.34,-144.80ZM-452.73,-158.43C-438.64,-162.68 -427.39,-156.65 -421.07,-141.44L-472.00,-126.08C-473.91,-143.11 -467.06,-154.11 -452.73,-158.43ZM-314.59,-276.98L-293.82,-208.09C-303.86,-219.20 -318.45,-223.98 -334.82,-219.04C-363.02,-210.54 -378.11,-182.42 -366.73,-144.67C-355.55,-107.61 -328.50,-91.95 -300.31,-100.45C-283.25,-105.60 -271.90,-118.94 -270.12,-136.10L-262.11,-114.45L-234.14,-122.89L-283.44,-286.38ZM-298.41,-127.07C-315.24,-122.00 -328.72,-131.33 -335.64,-154.30C-342.57,-177.26 -336.04,-192.63 -319.21,-197.70C-303.29,-202.50 -289.22,-192.85 -282.71,-171.25C-275.78,-148.28 -282.27,-131.94 -298.41,-127.07ZM-103.24,-183.20C-108.70,-181.55 -112.25,-183.46 -114.03,-189.37L-127.95,-235.53C-136.38,-263.50 -160.65,-271.56 -190.43,-262.58C-219.99,-253.66 -233.30,-235.27 -232.49,-213.68L-203.42,-213.51C-203.60,-228.10 -196.08,-236.07 -184.94,-239.43C-172.89,-243.06 -162.37,-237.80 -158.46,-224.84L-157.16,-220.52L-193.87,-200.77C-213.10,-190.50 -220.95,-176.23 -215.88,-159.40C-209.85,-139.39 -192.30,-133.02 -169.10,-140.02C-154.78,-144.34 -142.01,-154.64 -137.89,-167.29C-131.25,-157.63 -119.22,-155.56 -106.19,-159.24C-100.05,-161.09 -95.39,-163.73 -92.30,-166.65L-96.31,-186.53C-98.15,-185.23 -100.74,-183.95 -103.24,-183.20ZM-167.80,-164.47C-175.76,-162.07 -183.36,-164.25 -185.62,-171.75C-188.02,-179.71 -183.61,-184.01 -173.77,-189.22L-151.33,-201.19L-149.21,-194.14C-144.20,-177.54 -154.84,-168.38 -167.80,-164.47ZM-9.79,-213.86L-44.81,-203.30C-54.58,-200.35 -60.32,-202.09 -62.24,-208.46C-63.54,-212.78 -61.84,-217.01 -55.86,-221.05C-49.84,-221.62 -43.04,-222.93 -35.99,-225.06C-3.93,-234.72 11.40,-255.47 4.27,-279.12C0.57,-291.40 -7.61,-299.60 -18.92,-303.38C-19.55,-312.87 -12.87,-320.34 1.86,-323.29L-8.49,-344.48C-28.55,-339.42 -36.31,-323.19 -33.58,-305.91C-41.38,-306.28 -49.91,-304.95 -59.23,-302.14C-91.29,-292.47 -106.62,-271.73 -99.42,-247.85C-95.24,-233.98 -85.87,-225.14 -72.06,-222.12C-81.97,-214.66 -85.94,-204.79 -82.78,-194.33C-79.56,-183.64 -71.98,-178.23 -61.10,-177.54C-74.92,-169.90 -78.37,-159.94 -75.28,-149.70C-70.00,-132.19 -49.09,-125.35 -9.98,-137.15C25.50,-147.84 45.65,-169.05 37.76,-195.20C32.00,-214.30 14.77,-221.26 -9.79,-213.86ZM-53.33,-282.59C-41.28,-286.22 -30.52,-281.78 -26.95,-269.95C-23.39,-258.13 -29.83,-248.25 -41.88,-244.61C-53.93,-240.98 -65.00,-245.58 -68.56,-257.40C-72.13,-269.23 -65.39,-278.95 -53.33,-282.59ZM-16.19,-158.59C-36.20,-152.56 -49.83,-154.15 -52.37,-162.57C-54.22,-168.71 -50.22,-174.38 -42.95,-176.57L-4.52,-188.16C7.31,-191.72 12.27,-189.25 14.05,-183.34C16.45,-175.38 7.23,-165.65 -16.19,-158.59ZM70.84,-341.36C36.50,-331.01 19.27,-301.75 30.45,-264.69C41.63,-227.62 72.15,-212.77 106.49,-223.12C140.82,-233.47 158.05,-262.73 146.87,-299.79C135.70,-336.86 105.17,-351.71 70.84,-341.36ZM77.83,-318.17C94.66,-323.24 108.23,-314.43 115.49,-290.33C122.76,-266.23 116.32,-251.39 99.50,-246.31C82.44,-241.17 68.87,-249.98 61.60,-274.08C54.34,-298.18 60.77,-313.02 77.83,-318.17ZM251.25,-292.57L216.24,-282.01C206.46,-279.06 200.72,-280.80 198.80,-287.17C197.50,-291.49 199.20,-295.73 205.18,-299.76C211.21,-300.34 218.01,-301.64 225.05,-303.77C257.12,-313.44 272.44,-334.18 265.31,-357.83C261.61,-370.11 253.43,-378.31 242.12,-382.09C241.49,-391.58 248.17,-399.05 262.91,-402.00L252.55,-423.19C232.49,-418.14 224.73,-401.91 227.47,-384.62C219.66,-385.00 211.13,-383.66 201.81,-380.85C169.75,-371.19 154.42,-350.44 161.62,-326.56C165.80,-312.69 175.17,-303.86 188.98,-300.83C179.07,-293.38 175.10,-283.50 178.26,-273.04C181.48,-262.35 189.06,-256.95 199.94,-256.26C186.12,-248.62 182.67,-238.65 185.76,-228.42C191.04,-210.91 211.95,-204.07 251.07,-215.86C286.54,-226.56 306.69,-247.76 298.80,-273.91C293.04,-293.01 275.81,-299.97 251.25,-292.57ZM207.71,-361.30C219.76,-364.93 230.52,-360.49 234.09,-348.66C237.66,-336.84 231.21,-326.96 219.16,-323.32C207.11,-319.69 196.04,-324.29 192.48,-336.12C188.91,-347.94 195.66,-357.66 207.71,-361.30ZM244.85,-237.30C224.84,-231.27 211.21,-232.87 208.67,-241.28C206.82,-247.42 210.82,-253.09 218.09,-255.28L256.52,-266.87C268.35,-270.44 273.31,-267.96 275.09,-262.05C277.49,-254.09 268.27,-244.37 244.85,-237.30ZM387.59,-434.39L355.98,-424.86L355.45,-351.77L355.67,-325.54L342.90,-346.50L300.73,-408.20L266.16,-397.78L326.80,-322.54L348.22,-296.75L347.31,-285.81C346.28,-273.59 341.19,-269.08 332.55,-266.48C324.36,-264.01 317.45,-263.91 310.62,-266.81L310.81,-242.31C319.53,-239.73 330.20,-239.72 342.25,-243.36C366.35,-250.62 376.25,-265.51 378.07,-299.80Z" fill="#ffffff" stroke="#000000"/>
    <path d="M-608.76,-134.22L-669.87,-111.81L-616.48,33.81L-586.03,22.65L-604.96,-28.98L-574.29,-40.23C-540.98,-52.44 -527.07,-77.32 -537.91,-106.88C-548.75,-136.45 -575.44,-146.44 -608.76,-134.22ZM-587.74,-62.58L-613.78,-53.03L-630.61,-98.93L-604.57,-108.47C-586.26,-115.19 -574.38,-110.78 -568.80,-95.56C-563.22,-80.33 -569.43,-69.29 -587.74,-62.58ZM-397.29,-115.89C-408.13,-145.46 -435.34,-160.26 -468.65,-148.05C-501.53,-135.99 -516.71,-106.40 -503.44,-70.21C-490.17,-34.03 -459.90,-21.10 -425.04,-33.88C-402.54,-42.13 -386.98,-59.10 -386.31,-79.12L-413.76,-79.57C-414.93,-69.12 -420.49,-61.08 -433.51,-56.31C-448.74,-50.72 -461.66,-55.25 -470.40,-71.57L-392.51,-100.12C-393.53,-104.26 -395.11,-109.93 -397.29,-115.89ZM-460.70,-125.68C-447.02,-130.70 -435.56,-125.39 -428.44,-110.73L-477.86,-92.61C-480.74,-109.32 -474.60,-120.58 -460.70,-125.68ZM-331.11,-250.79L-306.60,-183.93C-317.17,-194.33 -331.86,-198.20 -347.74,-192.38C-375.10,-182.35 -388.38,-153.70 -374.95,-117.08C-361.76,-81.11 -334.14,-67.21 -306.78,-77.24C-290.23,-83.31 -279.79,-97.15 -279.03,-114.20L-269.86,-93.28L-242.72,-103.23L-300.89,-261.87ZM-306.45,-103.65C-322.78,-97.66 -336.63,-106.09 -344.80,-128.38C-352.97,-150.66 -347.41,-166.22 -331.09,-172.20C-315.64,-177.87 -301.18,-169.15 -293.50,-148.19C-285.33,-125.91 -290.78,-109.39 -306.45,-103.65ZM-116.91,-170.39C-122.21,-168.45 -125.83,-170.12 -127.93,-175.86L-144.35,-220.65C-154.30,-247.79 -178.74,-254.35 -207.64,-243.75C-236.32,-233.23 -248.40,-214.29 -246.35,-193.01L-217.63,-194.53C-218.65,-208.93 -211.68,-217.24 -200.87,-221.20C-189.18,-225.49 -178.49,-220.90 -173.87,-208.32L-172.34,-204.13L-207.46,-182.49C-225.86,-171.24 -232.78,-156.69 -226.80,-140.36C-219.68,-120.94 -201.98,-115.67 -179.47,-123.92C-165.57,-129.02 -153.55,-139.93 -150.22,-152.67C-143.10,-143.51 -131.09,-142.16 -118.44,-146.55C-112.48,-148.73 -108.03,-151.62 -105.15,-154.68L-110.26,-174.08C-112.00,-172.69 -114.49,-171.28 -116.91,-170.39ZM-179.60,-148.15C-187.32,-145.32 -194.95,-147.03 -197.62,-154.31C-200.45,-162.03 -196.35,-166.54 -186.93,-172.25L-165.46,-185.38L-162.95,-178.54C-157.05,-162.43 -167.02,-152.77 -179.60,-148.15ZM-26.38,-206.09L-60.36,-193.63C-69.84,-190.15 -75.61,-191.54 -77.88,-197.72C-79.41,-201.91 -77.98,-206.19 -72.31,-210.52C-66.39,-211.44 -59.75,-213.12 -52.91,-215.63C-21.80,-227.04 -7.86,-248.42 -16.27,-271.36C-20.64,-283.28 -29.20,-290.90 -40.59,-293.99C-41.76,-303.32 -35.59,-311.09 -21.21,-314.86L-32.67,-335.19C-52.19,-329.03 -58.91,-312.55 -55.21,-295.63C-62.94,-295.55 -71.29,-293.74 -80.33,-290.43C-111.44,-279.02 -125.38,-257.64 -116.88,-234.47C-111.95,-221.02 -102.19,-212.83 -88.37,-210.64C-97.73,-202.70 -101.07,-192.72 -97.35,-182.57C-93.55,-172.20 -85.75,-167.30 -74.96,-167.25C-88.17,-158.90 -91.00,-148.85 -87.36,-138.92C-81.13,-121.93 -60.07,-116.39 -22.12,-130.30C12.30,-142.92 30.97,-165.04 21.67,-190.41C14.87,-208.95 -2.55,-214.82 -26.38,-206.09ZM-73.37,-271.45C-61.68,-275.74 -50.79,-271.97 -46.58,-260.50C-42.38,-249.03 -48.17,-238.89 -59.86,-234.61C-71.56,-230.32 -82.75,-234.22 -86.96,-245.70C-91.17,-257.17 -85.07,-267.16 -73.37,-271.45ZM-29.51,-151.12C-48.92,-144.01 -62.48,-144.79 -65.47,-152.96C-67.65,-158.91 -64.03,-164.75 -56.97,-167.33L-19.69,-181.01C-8.21,-185.21 -3.17,-183.06 -1.07,-177.32C1.77,-169.60 -6.78,-159.46 -29.51,-151.12ZM45.87,-336.70C12.56,-324.49 -2.76,-294.59 10.42,-258.63C23.61,-222.66 54.62,-209.75 87.94,-221.97C121.26,-234.19 136.58,-264.08 123.39,-300.05C110.20,-336.01 79.19,-348.92 45.87,-336.70ZM54.12,-314.20C70.45,-320.18 84.37,-312.27 92.94,-288.88C101.52,-265.49 96.01,-250.46 79.69,-244.48C63.14,-238.41 49.23,-246.32 40.65,-269.71C32.07,-293.10 37.58,-308.13 54.12,-314.20ZM226.91,-298.96L192.93,-286.50C183.45,-283.02 177.68,-284.41 175.41,-290.59C173.88,-294.78 175.31,-299.06 180.98,-303.39C186.90,-304.31 193.54,-306.00 200.38,-308.50C231.49,-319.91 245.43,-341.29 237.02,-364.24C232.65,-376.15 224.09,-383.78 212.70,-386.86C211.53,-396.19 217.70,-403.96 232.08,-407.73L220.62,-428.06C201.10,-421.90 194.38,-405.42 198.08,-388.51C190.35,-388.42 182.00,-386.62 172.96,-383.30C141.85,-371.89 127.91,-350.51 136.41,-327.35C141.34,-313.89 151.10,-305.70 164.92,-303.51C155.56,-295.57 152.22,-285.59 155.94,-275.44C159.74,-265.07 167.55,-260.17 178.33,-260.12C165.12,-251.77 162.29,-241.72 165.93,-231.80C172.16,-214.81 193.22,-209.26 231.17,-223.18C265.59,-235.80 284.26,-257.91 274.96,-283.28C268.16,-301.82 250.74,-307.69 226.91,-298.96ZM179.92,-364.32C191.61,-368.61 202.50,-364.85 206.71,-353.37C210.92,-341.90 205.12,-331.77 193.43,-327.48C181.73,-323.19 170.54,-327.10 166.33,-338.57C162.13,-350.04 168.22,-360.04 179.92,-364.32ZM223.79,-244.00C204.37,-236.88 190.81,-237.66 187.82,-245.83C185.64,-251.79 189.26,-257.62 196.32,-260.21L233.60,-273.88C245.08,-278.08 250.12,-275.93 252.23,-270.19C255.06,-262.47 246.51,-252.33 223.79,-244.00ZM353.37,-446.94L322.70,-435.70L326.40,-363.47L328.14,-337.57L314.31,-357.54L269.08,-416.04L235.55,-403.74L299.80,-332.94L322.45,-308.71L322.18,-297.85C321.87,-285.72 317.11,-280.97 308.72,-277.89C300.78,-274.98 293.95,-274.48 287.04,-276.95L288.65,-252.76C297.41,-250.72 307.95,-251.33 319.64,-255.62C343.03,-264.19 351.95,-279.47 351.75,-313.44Z" fill="#ffffff" stroke="#000000"/>
    <path d="M-613.03,-92.52L-672.09,-66.85L-610.92,73.88L-581.50,61.09L-603.18,11.19L-573.54,-1.69C-541.35,-15.68 -529.05,-41.05 -541.47,-69.63C-553.89,-98.20 -580.83,-106.52 -613.03,-92.52ZM-588.12,-22.98L-613.29,-12.05L-632.56,-56.40L-607.40,-67.34C-589.70,-75.03 -577.72,-71.36 -571.32,-56.65C-564.93,-41.94 -570.43,-30.68 -588.12,-22.98ZM-403.11,-86.67C-415.53,-115.24 -443.25,-128.29 -475.45,-114.29C-507.22,-100.48 -520.50,-70.38 -505.30,-35.41C-490.10,-0.44 -459.46,10.58 -425.77,-4.06C-404.02,-13.52 -389.64,-31.17 -390.13,-50.99L-417.27,-49.84C-417.83,-39.46 -422.85,-31.19 -435.43,-25.72C-450.14,-19.32 -463.17,-23.04 -472.74,-38.66L-397.47,-71.37C-398.72,-75.40 -400.61,-80.91 -403.11,-86.67ZM-466.30,-92.66C-453.08,-98.41 -441.46,-93.83 -433.57,-79.77L-481.33,-59.01C-485.14,-75.35 -479.74,-86.83 -466.30,-92.66ZM-345.56,-223.73L-317.48,-159.13C-328.52,-168.78 -343.25,-171.75 -358.60,-165.08C-385.04,-153.59 -396.49,-124.53 -381.11,-89.13C-366.00,-54.38 -337.91,-42.25 -311.47,-53.74C-295.48,-60.69 -285.97,-74.97 -286.21,-91.85L-275.94,-71.72L-249.71,-83.12L-316.35,-236.43ZM-312.68,-79.84C-328.46,-72.98 -342.63,-80.51 -351.99,-102.04C-361.35,-123.58 -356.76,-139.26 -340.98,-146.12C-326.05,-152.61 -311.27,-144.84 -302.46,-124.58C-293.10,-103.05 -297.54,-86.42 -312.68,-79.84ZM-129.35,-156.73C-134.46,-154.51 -138.13,-155.95 -140.54,-161.50L-159.36,-204.78C-170.76,-231.01 -195.27,-236.07 -223.20,-223.93C-250.92,-211.88 -261.75,-192.47 -258.50,-171.58L-230.21,-174.75C-232.06,-188.90 -225.66,-197.51 -215.21,-202.05C-203.91,-206.97 -193.08,-203.05 -187.80,-190.90L-186.04,-186.85L-219.47,-163.44C-236.99,-151.26 -242.99,-136.49 -236.14,-120.71C-227.98,-101.94 -210.19,-97.76 -188.44,-107.22C-175.01,-113.05 -163.77,-124.53 -161.21,-137.30C-153.66,-128.67 -141.72,-128.03 -129.47,-133.10C-123.71,-135.60 -119.48,-138.71 -116.81,-141.90L-122.99,-160.76C-124.63,-159.29 -127.00,-157.75 -129.35,-156.73ZM-189.97,-131.14C-197.43,-127.90 -205.07,-129.14 -208.13,-136.18C-211.37,-143.64 -207.58,-148.33 -198.60,-154.51L-178.16,-168.72L-175.29,-162.11C-168.52,-146.55 -177.81,-136.42 -189.97,-131.14ZM-42.00,-197.23L-74.83,-182.96C-84.00,-178.97 -89.78,-180.01 -92.37,-185.98C-94.13,-190.04 -92.96,-194.35 -87.61,-198.95C-81.82,-200.20 -75.36,-202.25 -68.75,-205.12C-38.68,-218.19 -26.16,-240.12 -35.80,-262.29C-40.80,-273.81 -49.69,-280.84 -61.12,-283.23C-62.81,-292.38 -57.18,-300.40 -43.19,-304.96L-55.68,-324.38C-74.60,-317.17 -80.29,-300.50 -75.66,-284.01C-83.28,-283.48 -91.42,-281.21 -100.17,-277.41C-130.23,-264.34 -142.76,-242.42 -133.03,-220.03C-127.37,-207.02 -117.26,-199.50 -103.49,-198.14C-112.27,-189.76 -114.99,-179.70 -110.73,-169.89C-106.37,-159.87 -98.38,-155.48 -87.73,-156.06C-100.29,-147.05 -102.50,-136.96 -98.33,-127.37C-91.19,-110.95 -70.08,-106.69 -33.40,-122.63C-0.14,-137.09 17.02,-160.01 6.37,-184.54C-1.42,-202.45 -18.97,-207.24 -42.00,-197.23ZM-92.20,-259.07C-80.90,-263.98 -69.92,-260.90 -65.10,-249.81C-60.28,-238.72 -65.42,-228.37 -76.72,-223.46C-88.02,-218.55 -99.30,-221.76 -104.12,-232.85C-108.94,-243.93 -103.50,-254.16 -92.20,-259.07ZM-41.90,-142.77C-60.66,-134.61 -74.10,-134.61 -77.53,-142.49C-80.03,-148.25 -76.79,-154.22 -69.97,-157.19L-33.93,-172.85C-22.84,-177.67 -17.74,-175.83 -15.33,-170.29C-12.08,-162.83 -19.94,-152.31 -41.90,-142.77ZM21.80,-330.42C-10.40,-316.43 -23.80,-286.01 -8.69,-251.26C6.42,-216.50 37.80,-205.55 69.99,-219.54C102.19,-233.54 115.59,-263.95 100.48,-298.71C85.38,-333.46 54.00,-344.42 21.80,-330.42ZM31.25,-308.67C47.03,-315.53 61.23,-308.52 71.06,-285.92C80.88,-263.32 76.32,-248.15 60.54,-241.29C44.55,-234.34 30.35,-241.35 20.52,-263.95C10.70,-286.56 15.26,-301.72 31.25,-308.67ZM202.79,-303.63L169.95,-289.36C160.79,-285.37 155.01,-286.41 152.42,-292.38C150.65,-296.43 151.82,-300.74 157.17,-305.35C162.97,-306.60 169.43,-308.65 176.04,-311.52C206.10,-324.59 218.63,-346.51 208.99,-368.69C203.99,-380.20 195.10,-387.24 183.67,-389.62C181.97,-398.77 187.61,-406.80 201.60,-411.36L189.11,-430.77C170.18,-423.56 164.50,-406.90 169.13,-390.40C161.50,-389.88 153.36,-387.60 144.62,-383.81C114.56,-370.74 102.03,-348.81 111.76,-326.43C117.41,-313.42 127.53,-305.90 141.30,-304.53C132.52,-296.15 129.80,-286.10 134.06,-276.29C138.41,-266.27 146.40,-261.88 157.06,-262.45C144.49,-253.44 142.29,-243.36 146.46,-233.76C153.59,-217.34 174.71,-213.09 211.39,-229.03C244.65,-243.49 261.81,-266.41 251.15,-290.93C243.37,-308.84 225.82,-313.64 202.79,-303.63ZM152.59,-365.47C163.89,-370.38 174.87,-367.29 179.69,-356.20C184.51,-345.12 179.37,-334.77 168.07,-329.86C156.77,-324.95 145.49,-328.15 140.67,-339.24C135.85,-350.33 141.29,-360.56 152.59,-365.47ZM202.89,-249.16C184.12,-241.01 170.69,-241.00 167.26,-248.89C164.76,-254.65 168.00,-260.62 174.82,-263.58L210.85,-279.25C221.94,-284.07 227.05,-282.23 229.46,-276.69C232.70,-269.22 224.85,-258.71 202.89,-249.16ZM319.12,-457.11L289.48,-444.23L297.32,-373.11L300.53,-347.63L285.72,-366.55L237.66,-421.71L205.25,-407.62L272.82,-341.42L296.59,-318.79L296.95,-308.05C297.35,-296.05 292.92,-291.08 284.81,-287.56C277.14,-284.23 270.43,-283.34 263.46,-285.38L266.45,-261.58C275.22,-260.07 285.59,-261.28 296.89,-266.19C319.49,-276.02 327.41,-291.63 325.26,-325.17Z" fill="#ffffff" stroke="#000000"/>
    <path d="M-614.43,-50.92L-671.27,-22.14L-602.72,113.29L-574.40,98.96L-598.70,50.94L-570.18,36.50C-539.19,20.82 -528.52,-4.95 -542.44,-32.45C-556.36,-59.95 -583.44,-66.60 -614.43,-50.92ZM-585.81,16.32L-610.03,28.57L-631.63,-14.11L-607.42,-26.37C-590.39,-34.99 -578.34,-32.07 -571.17,-17.91C-564.00,-3.75 -568.78,7.69 -585.81,16.32ZM-406.79,-57.29C-420.71,-84.79 -448.84,-96.07 -479.83,-80.38C-510.41,-64.90 -521.77,-34.40 -504.74,-0.75C-487.70,32.91 -456.80,42.01 -424.38,25.60C-403.45,15.00 -390.27,-3.27 -391.91,-22.80L-418.64,-20.10C-418.59,-9.81 -423.07,-1.36 -435.18,4.77C-449.34,11.94 -462.42,9.02 -472.78,-5.84L-400.34,-42.51C-401.80,-46.41 -403.98,-51.75 -406.79,-57.29ZM-469.54,-59.55C-456.82,-65.99 -445.08,-62.14 -436.47,-48.71L-482.44,-25.44C-487.15,-41.36 -482.47,-53.01 -469.54,-59.55ZM-357.89,-195.98L-326.42,-133.80C-337.88,-142.70 -352.60,-144.78 -367.38,-137.30C-392.82,-124.42 -402.45,-95.06 -385.20,-61.00C-368.27,-27.55 -339.83,-17.20 -314.39,-30.08C-299.00,-37.87 -290.43,-52.52 -291.64,-69.17L-280.34,-49.89L-255.09,-62.67L-329.78,-210.21ZM-317.09,-55.78C-332.27,-48.09 -346.70,-54.71 -357.20,-75.43C-367.69,-96.16 -364.06,-111.91 -348.88,-119.60C-334.51,-126.87 -319.46,-120.05 -309.59,-100.56C-299.10,-79.83 -302.52,-63.15 -317.09,-55.78ZM-140.49,-142.33C-145.42,-139.84 -149.12,-141.06 -151.82,-146.39L-172.91,-188.05C-185.69,-213.29 -210.19,-216.87 -237.07,-203.26C-263.75,-189.76 -273.32,-169.96 -268.90,-149.52L-241.15,-154.28C-243.79,-168.16 -237.97,-177.03 -227.91,-182.12C-217.04,-187.63 -206.12,-184.39 -200.20,-172.69L-198.22,-168.79L-229.88,-143.74C-246.48,-130.70 -251.55,-115.76 -243.86,-100.58C-234.72,-82.52 -216.91,-79.42 -195.98,-90.01C-183.05,-96.56 -172.62,-108.54 -170.83,-121.30C-162.87,-113.22 -151.04,-113.27 -139.24,-118.99C-133.70,-121.80 -129.71,-125.11 -127.26,-128.41L-134.44,-146.68C-135.98,-145.13 -138.23,-143.48 -140.49,-142.33ZM-198.88,-113.55C-206.06,-109.92 -213.67,-110.70 -217.10,-117.47C-220.74,-124.66 -217.26,-129.51 -208.76,-136.13L-189.39,-151.35L-186.17,-144.99C-178.59,-130.01 -187.18,-119.47 -198.88,-113.55ZM-56.57,-187.39L-88.17,-171.39C-97.00,-166.93 -102.76,-167.62 -105.67,-173.36C-107.64,-177.26 -106.74,-181.59 -101.72,-186.45C-96.07,-188.02 -89.81,-190.41 -83.45,-193.63C-54.52,-208.28 -43.41,-230.66 -54.22,-252.00C-59.83,-263.08 -69.01,-269.51 -80.44,-271.21C-82.64,-280.14 -77.54,-288.40 -63.99,-293.71L-77.45,-312.16C-95.72,-303.94 -100.37,-287.15 -94.84,-271.13C-102.34,-270.17 -110.25,-267.46 -118.66,-263.20C-147.60,-248.55 -158.70,-226.18 -147.79,-204.63C-141.46,-192.11 -131.03,-185.27 -117.35,-184.72C-125.54,-175.94 -127.65,-165.85 -122.87,-156.41C-117.99,-146.76 -109.84,-142.90 -99.35,-144.08C-111.24,-134.45 -112.83,-124.37 -108.16,-115.13C-100.16,-99.33 -79.06,-96.35 -43.77,-114.22C-11.75,-130.42 3.87,-154.05 -8.08,-177.65C-16.80,-194.89 -34.41,-198.61 -56.57,-187.39ZM-109.73,-245.55C-98.85,-251.06 -87.84,-248.64 -82.43,-237.97C-77.03,-227.30 -81.51,-216.79 -92.38,-211.28C-103.26,-205.78 -114.59,-208.29 -119.99,-218.96C-125.39,-229.63 -120.61,-240.05 -109.73,-245.55ZM-53.32,-133.61C-71.38,-124.47 -84.65,-123.68 -88.49,-131.28C-91.30,-136.82 -88.45,-142.90 -81.88,-146.22L-47.20,-163.78C-36.53,-169.18 -31.38,-167.66 -28.68,-162.33C-25.04,-155.14 -32.19,-144.31 -53.32,-133.61ZM-1.28,-322.62C-32.27,-306.93 -43.74,-276.12 -26.81,-242.67C-9.88,-209.22 21.74,-200.22 52.73,-215.91C83.72,-231.59 95.19,-262.40 78.26,-295.85C61.32,-329.30 29.70,-338.30 -1.28,-322.62ZM9.31,-301.68C24.50,-309.37 38.93,-303.27 49.94,-281.52C60.95,-259.77 57.32,-244.53 42.13,-236.84C26.74,-229.05 12.31,-235.15 1.30,-256.90C-9.71,-278.65 -6.08,-293.89 9.31,-301.68ZM179.01,-306.64L147.40,-290.64C138.58,-286.17 132.82,-286.86 129.91,-292.61C127.93,-296.51 128.84,-300.83 133.85,-305.69C139.50,-307.26 145.77,-309.66 152.13,-312.88C181.06,-327.53 192.16,-349.90 181.36,-371.24C175.75,-382.33 166.57,-388.76 155.14,-390.45C152.94,-399.39 158.04,-407.64 171.59,-412.96L158.13,-431.41C139.86,-423.19 135.21,-406.40 140.74,-390.38C133.24,-389.42 125.33,-386.71 116.92,-382.45C87.98,-367.80 76.88,-345.42 87.79,-323.88C94.12,-311.36 104.55,-304.52 118.23,-303.97C110.04,-295.19 107.93,-285.10 112.71,-275.66C117.59,-266.01 125.74,-262.14 136.22,-263.33C124.34,-253.70 122.74,-243.61 127.42,-234.38C135.42,-218.58 156.52,-215.60 191.81,-233.46C223.83,-249.67 239.45,-273.30 227.50,-296.90C218.78,-314.14 201.17,-317.85 179.01,-306.64ZM125.85,-364.80C136.72,-370.30 147.74,-367.89 153.14,-357.22C158.55,-346.55 154.07,-336.03 143.20,-330.53C132.32,-325.02 120.99,-327.54 115.59,-338.21C110.19,-348.88 114.97,-359.29 125.85,-364.80ZM182.25,-252.86C164.20,-243.72 150.93,-242.93 147.09,-250.52C144.28,-256.06 147.13,-262.15 153.70,-265.47L188.38,-283.02C199.05,-288.43 204.20,-286.91 206.90,-281.57C210.54,-274.39 203.39,-263.56 182.25,-252.86ZM284.99,-464.95L256.47,-450.51L268.33,-380.73L272.98,-355.75L257.26,-373.57L206.60,-425.27L175.41,-409.48L245.97,-348.01L270.76,-327.04L271.74,-316.45C272.82,-304.63 268.74,-299.47 260.94,-295.52C253.55,-291.78 246.97,-290.51 239.97,-292.13L244.30,-268.80C253.05,-267.81 263.23,-269.61 274.10,-275.12C295.85,-286.13 302.77,-302.00 298.70,-335.00Z" fill="#ffffff" stroke="#000000"/>
    <path d="M-613.00,-9.59L-667.47,22.11L-591.93,151.88L-564.80,136.08L-591.58,90.07L-564.25,74.17C-534.56,56.88 -525.51,30.82 -540.85,4.47C-556.18,-21.87 -583.31,-26.87 -613.00,-9.59ZM-580.85,55.14L-604.05,68.64L-627.86,27.75L-604.66,14.24C-588.34,4.74 -576.27,6.93 -568.37,20.50C-560.48,34.06 -564.53,45.64 -580.85,55.14ZM-408.34,-27.91C-423.67,-54.26 -452.11,-63.76 -481.80,-46.48C-511.09,-29.43 -520.56,1.35 -501.79,33.59C-483.02,65.84 -451.97,73.04 -420.91,54.96C-400.85,43.28 -388.90,24.48 -391.65,5.28L-417.89,9.50C-417.24,19.65 -421.18,28.26 -432.78,35.02C-446.35,42.91 -459.43,40.79 -470.52,26.71L-401.11,-13.69C-402.78,-17.46 -405.25,-22.60 -408.34,-27.91ZM-470.44,-26.51C-458.25,-33.61 -446.43,-30.48 -437.15,-17.72L-481.19,7.92C-486.76,-7.53 -482.82,-19.30 -470.44,-26.51ZM-368.09,-167.69L-333.41,-108.12C-345.24,-116.23 -359.90,-117.44 -374.05,-109.20C-398.43,-95.01 -406.24,-65.46 -387.24,-32.82C-368.59,-0.77 -339.90,7.80 -315.52,-6.39C-300.78,-14.97 -293.17,-29.93 -295.33,-46.31L-283.05,-27.93L-258.86,-42.00L-341.15,-183.37ZM-319.68,-31.61C-334.23,-23.14 -348.86,-28.84 -360.42,-48.70C-371.98,-68.55 -369.31,-84.32 -354.76,-92.79C-341.00,-100.80 -325.74,-94.94 -314.87,-76.26C-303.31,-56.41 -305.72,-39.74 -319.68,-31.61ZM-150.31,-127.30C-155.03,-124.56 -158.76,-125.54 -161.74,-130.66L-184.97,-170.57C-199.05,-194.75 -223.45,-196.87 -249.20,-181.88C-274.76,-167.00 -283.07,-146.90 -277.52,-126.96L-250.40,-133.27C-253.81,-146.82 -248.57,-155.92 -238.94,-161.53C-228.52,-167.59 -217.55,-165.03 -211.03,-153.82L-208.85,-150.09L-238.66,-123.52C-254.30,-109.68 -258.44,-94.64 -249.97,-80.09C-239.90,-62.78 -222.13,-60.75 -202.08,-72.43C-189.69,-79.64 -180.08,-92.07 -179.06,-104.78C-170.73,-97.26 -159.05,-98.00 -147.73,-104.33C-142.42,-107.42 -138.67,-110.92 -136.44,-114.32L-144.59,-131.95C-146.02,-130.33 -148.15,-128.56 -150.31,-127.30ZM-206.30,-95.50C-213.18,-91.50 -220.74,-91.83 -224.52,-98.32C-228.53,-105.20 -225.38,-110.19 -217.36,-117.23L-199.12,-133.38L-195.57,-127.28C-187.22,-112.93 -195.09,-102.03 -206.30,-95.50ZM-70.06,-176.65L-100.34,-159.03C-108.79,-154.11 -114.52,-154.46 -117.73,-159.96C-119.90,-163.70 -119.26,-168.02 -114.59,-173.11C-109.10,-174.99 -103.05,-177.71 -96.96,-181.26C-69.24,-197.40 -59.57,-220.14 -71.47,-240.59C-77.65,-251.20 -87.10,-257.02 -98.48,-258.03C-101.17,-266.73 -96.61,-275.18 -83.54,-281.21L-97.90,-298.65C-115.46,-289.47 -119.08,-272.63 -112.69,-257.13C-120.05,-255.74 -127.70,-252.61 -135.76,-247.91C-163.48,-231.78 -173.15,-209.04 -161.13,-188.40C-154.15,-176.40 -143.46,-170.25 -129.92,-170.50C-137.49,-161.35 -138.99,-151.27 -133.73,-142.22C-128.35,-132.98 -120.08,-129.63 -109.79,-131.41C-120.97,-121.22 -121.96,-111.16 -116.81,-102.32C-108.00,-87.18 -86.99,-85.45 -53.17,-105.14C-22.50,-122.99 -8.45,-147.23 -21.61,-169.85C-31.22,-186.36 -48.82,-189.01 -70.06,-176.65ZM-125.92,-231.01C-115.49,-237.07 -104.48,-235.33 -98.52,-225.10C-92.57,-214.88 -96.38,-204.24 -106.80,-198.17C-117.22,-192.11 -128.55,-193.93 -134.50,-204.16C-140.46,-214.38 -136.34,-224.94 -125.92,-231.01ZM-63.74,-123.74C-81.04,-113.67 -94.09,-112.12 -98.33,-119.40C-101.42,-124.70 -98.95,-130.88 -92.66,-134.54L-59.43,-153.88C-49.21,-159.83 -44.04,-158.63 -41.06,-153.52C-37.06,-146.64 -43.48,-135.53 -63.74,-123.74ZM-23.29,-313.38C-52.98,-296.10 -62.53,-265.01 -43.87,-232.96C-25.21,-200.91 6.53,-193.86 36.22,-211.14C65.91,-228.42 75.45,-259.51 56.80,-291.56C38.14,-323.61 6.39,-330.66 -23.29,-313.38ZM-11.62,-293.33C2.93,-301.80 17.53,-296.61 29.66,-275.77C41.80,-254.92 39.10,-239.67 24.55,-231.20C9.80,-222.61 -4.80,-227.80 -16.93,-248.64C-29.07,-269.48 -26.37,-284.74 -11.62,-293.33ZM155.66,-308.04L125.38,-290.42C116.92,-285.50 111.19,-285.84 107.99,-291.35C105.81,-295.09 106.45,-299.41 111.13,-304.50C116.61,-306.37 122.66,-309.10 128.75,-312.65C156.48,-328.79 166.14,-351.53 154.24,-371.97C148.06,-382.59 138.62,-388.41 127.24,-389.42C124.54,-398.12 129.10,-406.57 142.18,-412.60L127.81,-430.03C110.25,-420.86 106.63,-404.02 113.02,-388.52C105.67,-387.13 98.02,-384.00 89.96,-379.30C62.23,-363.17 52.57,-340.43 64.58,-319.79C71.57,-307.79 82.25,-301.64 95.80,-301.89C88.22,-292.74 86.72,-282.66 91.99,-273.61C97.37,-264.37 105.63,-261.02 115.92,-262.80C104.74,-252.61 103.75,-242.55 108.90,-233.71C117.71,-218.57 138.72,-216.84 172.54,-236.53C203.21,-254.38 217.27,-278.62 204.11,-301.23C194.49,-317.75 176.89,-320.40 155.66,-308.04ZM99.80,-362.40C110.22,-368.46 121.24,-366.72 127.19,-356.49C133.14,-346.27 129.33,-335.63 118.91,-329.56C108.49,-323.49 97.16,-325.32 91.21,-335.55C85.26,-345.77 89.38,-356.33 99.80,-362.40ZM161.98,-255.13C144.68,-245.05 131.62,-243.51 127.39,-250.79C124.30,-256.09 126.76,-262.27 133.05,-265.93L166.28,-285.27C176.50,-291.22 181.68,-290.02 184.65,-284.91C188.66,-278.03 182.23,-266.91 161.98,-255.13ZM251.14,-470.50L223.82,-454.59L239.57,-386.37L245.61,-361.98L229.05,-378.67L176.04,-426.78L146.15,-409.38L219.38,-352.77L245.07,-333.51L246.65,-323.11C248.41,-311.49 244.67,-306.16 237.20,-301.81C230.12,-297.69 223.70,-296.06 216.69,-297.24L222.32,-274.46C231.02,-273.99 240.96,-276.36 251.38,-282.42C272.22,-294.56 278.13,-310.63 272.20,-342.98Z" fill="#ffffff" stroke="#000000"/>
    <path d="M-608.79,31.25L-660.73,65.71L-578.63,189.45L-552.76,172.29L-581.87,128.42L-555.80,111.13C-527.49,92.35 -520.07,66.09 -536.74,40.97C-553.40,15.84 -580.48,12.47 -608.79,31.25ZM-573.30,93.30L-595.42,107.98L-621.29,68.98L-599.17,54.30C-583.61,43.98 -571.57,45.44 -562.98,58.38C-554.40,71.32 -557.74,82.98 -573.30,93.30ZM-407.78,1.32C-424.45,-23.80 -453.07,-31.54 -481.39,-12.76C-509.32,5.77 -516.88,36.71 -496.48,67.45C-476.08,98.20 -445.02,103.52 -415.39,83.86C-396.27,71.18 -385.56,51.92 -389.38,33.13L-415.04,38.81C-413.82,48.80 -417.21,57.53 -428.27,64.86C-441.21,73.45 -454.25,72.11 -466.01,58.85L-399.82,14.94C-401.69,11.32 -404.42,6.38 -407.78,1.32ZM-469.01,6.30C-457.39,-1.41 -445.54,0.99 -435.64,13.05L-477.64,40.91C-484.03,25.98 -480.82,14.13 -469.01,6.30ZM-376.14,-139.02L-338.45,-82.21C-350.60,-89.53 -365.14,-89.88 -378.64,-80.92C-401.89,-65.50 -407.88,-35.87 -387.24,-4.75C-366.96,25.81 -338.15,32.62 -314.90,17.19C-300.84,7.87 -294.19,-7.35 -297.27,-23.39L-284.08,-5.95L-261.02,-21.25L-350.45,-156.06ZM-320.46,-7.47C-334.33,1.74 -349.11,-3.04 -361.67,-21.98C-374.24,-40.91 -372.52,-56.63 -358.64,-65.84C-345.52,-74.55 -330.11,-69.64 -318.30,-51.83C-305.74,-32.89 -307.15,-16.30 -320.46,-7.47ZM-158.78,-111.75C-163.28,-108.77 -167.03,-109.52 -170.26,-114.40L-195.51,-152.46C-210.81,-175.52 -235.02,-176.20 -259.58,-159.91C-283.95,-143.74 -290.99,-123.41 -284.36,-104.05L-257.94,-111.85C-262.09,-125.03 -257.45,-134.32 -248.27,-140.41C-238.33,-147.00 -227.35,-145.11 -220.26,-134.42L-217.90,-130.86L-245.79,-102.90C-260.43,-88.33 -263.65,-73.24 -254.44,-59.36C-243.50,-42.86 -225.84,-41.89 -206.71,-54.57C-194.90,-62.41 -186.14,-75.24 -185.86,-87.85C-177.20,-80.90 -165.71,-82.31 -154.90,-89.21C-149.84,-92.57 -146.34,-96.25 -144.33,-99.74L-153.40,-116.67C-154.72,-114.99 -156.72,-113.12 -158.78,-111.75ZM-212.22,-77.11C-218.78,-72.76 -226.27,-72.65 -230.37,-78.84C-234.73,-85.40 -231.91,-90.51 -224.40,-97.92L-207.33,-114.92L-203.47,-109.11C-194.39,-95.42 -201.53,-84.20 -212.22,-77.11ZM-82.40,-165.12L-111.28,-145.97C-119.34,-140.62 -125.02,-140.63 -128.50,-145.88C-130.86,-149.44 -130.48,-153.75 -126.16,-159.04C-120.85,-161.21 -115.04,-164.26 -109.23,-168.11C-82.79,-185.65 -74.57,-208.66 -87.50,-228.16C-94.22,-238.28 -103.88,-243.49 -115.17,-243.82C-118.34,-252.26 -114.32,-260.86 -101.77,-267.57L-116.96,-283.95C-133.76,-273.88 -136.36,-257.04 -129.16,-242.11C-136.34,-240.32 -143.71,-236.77 -151.40,-231.68C-177.83,-214.14 -186.06,-191.13 -173.00,-171.44C-165.41,-160.00 -154.50,-154.55 -141.15,-155.58C-148.10,-146.11 -148.99,-136.07 -143.27,-127.44C-137.42,-118.63 -129.07,-115.80 -119.02,-118.15C-129.46,-107.44 -129.86,-97.46 -124.26,-89.02C-114.69,-74.58 -93.84,-74.10 -61.59,-95.49C-32.35,-114.90 -19.87,-139.64 -34.17,-161.20C-44.62,-176.95 -62.15,-178.55 -82.40,-165.12ZM-140.70,-215.55C-130.76,-222.14 -119.78,-221.06 -113.31,-211.31C-106.85,-201.56 -109.99,-190.83 -119.93,-184.24C-129.86,-177.65 -141.16,-178.80 -147.63,-188.55C-154.09,-198.30 -150.64,-208.96 -140.70,-215.55ZM-73.10,-113.24C-89.60,-102.30 -102.40,-100.02 -107.00,-106.95C-110.36,-112.02 -108.28,-118.25 -102.28,-122.23L-70.60,-143.25C-60.85,-149.72 -55.67,-148.83 -52.44,-143.96C-48.08,-137.40 -53.79,-126.05 -73.10,-113.24ZM-44.15,-302.82C-72.46,-284.04 -80.08,-252.79 -59.81,-222.23C-39.53,-191.67 -7.78,-186.54 20.53,-205.32C48.84,-224.11 56.46,-255.35 36.19,-285.92C15.91,-316.48 -15.84,-321.60 -44.15,-302.82ZM-31.46,-283.70C-17.59,-292.90 -2.87,-288.62 10.31,-268.75C23.50,-248.88 21.72,-233.65 7.84,-224.45C-6.22,-215.12 -20.94,-219.40 -34.12,-239.27C-47.31,-259.15 -45.52,-274.37 -31.46,-283.70ZM132.84,-307.91L103.97,-288.76C95.90,-283.41 90.22,-283.42 86.74,-288.67C84.38,-292.23 84.76,-296.54 89.08,-301.83C94.39,-304.00 100.20,-307.05 106.01,-310.91C132.45,-328.44 140.68,-351.45 127.74,-370.95C121.02,-381.08 111.36,-386.28 100.07,-386.61C96.91,-395.05 100.92,-403.65 113.48,-410.36L98.29,-426.74C81.48,-416.67 78.88,-399.83 86.09,-384.90C78.91,-383.11 71.53,-379.57 63.85,-374.47C37.41,-356.93 29.18,-333.92 42.24,-314.23C49.83,-302.80 60.74,-297.34 74.10,-298.37C67.15,-288.90 66.25,-278.86 71.97,-270.23C77.82,-261.42 86.17,-258.59 96.23,-260.94C85.78,-250.23 85.38,-240.25 90.98,-231.81C100.56,-217.37 121.40,-216.89 153.65,-238.28C182.90,-257.69 195.37,-282.43 181.07,-304.00C170.62,-319.74 153.09,-321.34 132.84,-307.91ZM74.54,-358.34C84.48,-364.93 95.46,-363.85 101.93,-354.10C108.40,-344.35 105.25,-333.62 95.32,-327.03C85.38,-320.44 74.09,-321.59 67.62,-331.34C61.15,-341.09 64.61,-351.75 74.54,-358.34ZM142.14,-256.03C125.65,-245.09 112.85,-242.81 108.25,-249.74C104.89,-254.81 106.96,-261.04 112.96,-265.02L144.65,-286.04C154.40,-292.51 159.57,-291.63 162.81,-286.75C167.16,-280.19 161.46,-268.84 142.14,-256.03ZM217.71,-473.84L191.65,-456.55L211.16,-390.11L218.53,-366.38L201.21,-381.89L146.09,-426.32L117.59,-407.42L193.17,-355.76L219.65,-338.23L221.81,-328.05C224.22,-316.69 220.84,-311.21 213.71,-306.48C206.96,-302.00 200.72,-300.02 193.73,-300.78L200.61,-278.61C209.22,-278.66 218.90,-281.57 228.83,-288.16C248.71,-301.35 253.61,-317.56 245.88,-349.15Z" fill="#ffffff" stroke="#000000"/>
    <path d="M-904.98,492L-898.94,492L-895.48,478.32L-894.30,472.39L-894.23,472.39L-893.05,478.32L-889.55,492L-883.66,492L-876.37,466.92L-881.73,466.92L-886.63,487.63L-891.72,466.92L-896.74,466.92L-901.75,487.63L-906.69,466.92L-912.28,466.92ZM-864.21,472.62C-869.95,472.62 -873.94,476.31 -873.94,482.50C-873.94,488.69 -869.95,492.38 -864.21,492.38C-858.47,492.38 -854.48,488.69 -854.48,482.50C-854.48,476.31 -858.47,472.62 -864.21,472.62ZM-864.21,476.50C-861.40,476.50 -859.72,478.47 -859.72,482.50C-859.72,486.53 -861.40,488.50 -864.21,488.50C-867.06,488.50 -868.73,486.53 -868.73,482.50C-868.73,478.47 -867.06,476.50 -864.21,476.50ZM-850.11,492L-844.90,492L-844.90,482.16C-844.90,478.74 -842.59,477.10 -840.27,477.10C-839.09,477.10 -838.44,477.22 -837.91,477.41L-837.30,473.04C-837.76,472.77 -838.52,472.62 -839.36,472.62C-842.32,472.62 -844.26,474.10 -845.25,476.72L-845.59,473L-850.11,473ZM-820.17,492L-814.28,492L-821.88,480.45L-814.73,473L-820.66,473L-828.87,481.70L-828.87,464.68L-834.07,464.68L-834.07,492L-828.87,492L-828.87,487.29L-825.41,483.60ZM-801.51,466.54C-807.93,466.54 -811.77,470.00 -811.77,474.44C-811.77,478.21 -809.22,480.26 -804.78,481.25L-799.68,482.39C-797.29,482.92 -796.57,483.91 -796.57,485.16C-796.57,487.10 -798.32,488.16 -801.39,488.16C-805.12,488.16 -808.27,486.41 -809.98,483.94L-812.95,487.48C-810.67,490.37 -806.60,492.38 -801.39,492.38C-795.35,492.38 -791.17,489.49 -791.17,484.51C-791.17,481.02 -793.19,478.85 -798.13,477.75L-802.80,476.69C-805.42,476.08 -806.33,475.17 -806.33,473.80C-806.33,472.13 -804.97,470.76 -801.70,470.76C-798.47,470.76 -796.11,471.94 -794.02,474.60L-791.10,471.21C-793.53,468.14 -796.95,466.54 -801.51,466.54ZM-769.36,488.81C-770.27,488.81 -770.73,488.35 -770.73,487.36L-770.73,479.65C-770.73,474.98 -774.07,472.62 -779.05,472.62C-783.99,472.62 -786.88,474.82 -787.75,478.17L-783.31,479.54C-782.66,477.29 -781.14,476.42 -779.28,476.42C-777.26,476.42 -775.90,477.71 -775.90,479.88L-775.90,480.60L-782.43,481.93C-785.85,482.61 -787.71,484.44 -787.71,487.25C-787.71,490.59 -785.32,492.38 -781.44,492.38C-779.05,492.38 -776.62,491.39 -775.40,489.64C-774.83,491.43 -773.08,492.30 -770.92,492.34C-769.89,492.34 -769.06,492.15 -768.45,491.85L-768.14,488.62C-768.49,488.73 -768.94,488.81 -769.36,488.81ZM-780.11,488.69C-781.44,488.69 -782.51,488.01 -782.51,486.76C-782.51,485.43 -781.63,484.97 -779.89,484.63L-775.90,483.83L-775.90,485.01C-775.90,487.78 -777.95,488.69 -780.11,488.69ZM-753.59,472.62C-756.52,472.62 -758.87,473.91 -760.05,476.57L-760.24,473L-764.91,473L-764.91,492L-759.71,492L-759.71,481.93C-759.71,478.13 -757.54,476.72 -755.38,476.72C-753.40,476.72 -751.96,477.79 -751.96,481.02L-751.96,492L-746.75,492L-746.75,479.54C-746.75,474.94 -749.64,472.62 -753.59,472.62ZM-733.79,492.38C-728.36,492.38 -725.36,489.72 -725.36,486.07C-725.36,483.53 -726.84,481.66 -730.60,480.90L-734.48,480.11C-736.34,479.73 -736.95,479.12 -736.95,478.32C-736.95,477.14 -735.77,476.46 -733.60,476.46C-731.63,476.46 -729.73,477.45 -728.59,479.19L-725.47,476.15C-727.10,473.84 -729.95,472.62 -733.75,472.62C-739.30,472.62 -742.11,475.55 -742.11,478.62C-742.11,481.55 -740.44,483.37 -736.03,484.29L-732.69,484.97C-731.02,485.31 -730.60,485.92 -730.60,486.72C-730.60,487.97 -731.89,488.54 -733.87,488.54C-736.64,488.54 -738.69,487.25 -739.91,485.43L-742.91,488.47C-740.94,490.97 -737.63,492.38 -733.79,492.38ZM-707.34,479.69L-720.76,479.69L-720.76,484.17L-707.34,484.17ZM-691.73,466.54C-698.15,466.54 -701.99,470.00 -701.99,474.44C-701.99,478.21 -699.44,480.26 -694.99,481.25L-689.90,482.39C-687.51,482.92 -686.79,483.91 -686.79,485.16C-686.79,487.10 -688.53,488.16 -691.61,488.16C-695.34,488.16 -698.49,486.41 -700.20,483.94L-703.16,487.48C-700.88,490.37 -696.82,492.38 -691.61,492.38C-685.57,492.38 -681.39,489.49 -681.39,484.51C-681.39,481.02 -683.40,478.85 -688.34,477.75L-693.02,476.69C-695.64,476.08 -696.55,475.17 -696.55,473.80C-696.55,472.13 -695.18,470.76 -691.92,470.76C-688.69,470.76 -686.33,471.94 -684.24,474.60L-681.31,471.21C-683.75,468.14 -687.17,466.54 -691.73,466.54ZM-659.35,481.47C-659.35,476.38 -662.66,472.62 -668.39,472.62C-674.06,472.62 -678.01,476.27 -678.01,482.50C-678.01,488.73 -674.13,492.38 -668.13,492.38C-664.25,492.38 -660.95,490.67 -659.73,487.67L-663.87,486.07C-664.63,487.59 -665.92,488.50 -668.17,488.50C-670.79,488.50 -672.50,487.10 -672.92,484.13L-659.50,484.13C-659.43,483.45 -659.35,482.50 -659.35,481.47ZM-668.43,476.46C-666.08,476.46 -664.63,477.90 -664.37,480.52L-672.88,480.52C-672.38,477.83 -670.83,476.46 -668.43,476.46ZM-654.94,492L-649.74,492L-649.74,481.93C-649.74,478.21 -647.57,476.72 -645.56,476.72C-643.62,476.72 -642.25,477.79 -642.25,480.56L-642.25,492L-637.04,492L-637.04,481.78C-637.04,478.47 -635.18,476.72 -632.86,476.72C-630.96,476.72 -629.60,477.79 -629.60,480.56L-629.60,492L-624.43,492L-624.39,479.54C-624.35,474.86 -627.47,472.62 -631.15,472.62C-633.74,472.62 -636.44,473.84 -637.61,476.38C-638.72,473.87 -641.07,472.62 -643.81,472.62C-646.51,472.62 -648.82,473.87 -650.08,476.42L-650.27,473L-654.94,473ZM-616.41,470.26C-614.24,470.26 -613.18,469.35 -613.18,467.49C-613.18,465.63 -614.24,464.68 -616.41,464.68C-618.58,464.68 -619.64,465.63 -619.64,467.49C-619.64,469.35 -618.58,470.26 -616.41,470.26ZM-613.83,473L-619.03,473L-619.03,492L-613.83,492ZM-607.78,492L-596.42,492C-590.46,492 -587.26,489.45 -587.26,485.12C-587.26,482.20 -589.20,479.84 -592.70,479.35L-592.70,479.31C-589.54,478.78 -587.91,476.46 -587.91,473.76C-587.91,469.43 -590.72,466.92 -596.80,466.92L-607.78,466.92ZM-602.69,477.45L-602.69,470.99L-597.49,470.99C-594.71,470.99 -593.34,472.05 -593.34,474.22C-593.34,476.38 -594.71,477.45 -597.49,477.45ZM-602.69,488.05L-602.69,481.47L-596.88,481.47C-594.07,481.47 -592.70,482.65 -592.70,484.74C-592.70,486.83 -594.07,488.05 -596.88,488.05ZM-574.12,472.62C-579.85,472.62 -583.84,476.31 -583.84,482.50C-583.84,488.69 -579.85,492.38 -574.12,492.38C-568.38,492.38 -564.39,488.69 -564.39,482.50C-564.39,476.31 -568.38,472.62 -574.12,472.62ZM-574.12,476.50C-571.30,476.50 -569.63,478.47 -569.63,482.50C-569.63,486.53 -571.30,488.50 -574.12,488.50C-576.97,488.50 -578.64,486.53 -578.64,482.50C-578.64,478.47 -576.97,476.50 -574.12,476.50ZM-554.89,464.68L-560.09,464.68L-560.09,486.72C-560.09,490.67 -558.46,492.38 -554.77,492.38C-553.52,492.38 -552.08,492.08 -551.24,491.58L-550.78,488.16C-551.62,488.47 -552.04,488.54 -552.91,488.54C-554.32,488.54 -554.89,487.90 -554.89,486.15ZM-534.75,464.68L-534.75,476.19C-535.77,474.03 -537.79,472.62 -540.52,472.62C-545.24,472.62 -548.85,476.23 -548.85,482.54C-548.85,488.73 -545.43,492.38 -540.71,492.38C-537.86,492.38 -535.51,490.86 -534.44,488.31L-534.22,492L-529.54,492L-529.54,464.68ZM-539.19,488.39C-542.01,488.39 -543.64,486.34 -543.64,482.50C-543.64,478.66 -541.93,476.61 -539.12,476.61C-536.46,476.61 -534.75,478.74 -534.75,482.35C-534.75,486.19 -536.50,488.39 -539.19,488.39Z"/>
</svg>