<?xml version="1.0"?>
<svg xmlns="http://www.w3.org/2000/svg" width="1920" height="1080" viewBox="-960 -540 1920 1080">
    <path d="M-590,-410L-670,-410L-650,-390L-700,-230L-730,-210L-650,-210L-670,-230L-650,-300L-640,-310L-540,-310L-540,-300L-560,-230L-590,-210L-510,-210L-530,-230L-480,-390L-450,-410L-530,-410L-510,-390L-530,-330L-540,-320L-640,-320L-640,-330L-620,-390ZM-350,-300L-350,-320L-360,-340L-400,-350L-450,-320L-480,-260L-470,-220L-450,-210L-430,-210L-410,-220L-370,-260L-380,-270L-420,-230L-440,-230L-450,-260L-430,-300L-400,-330L-380,-330L-380,-300L-400,-290L-430,-290L-430,-280L-380,-280ZM-320,-230L-230,-420L-300,-420L-300,-410L-270,-410L-350,-230L-350,-220L-330,-210L-300,-220L-250,-270L-260,-280L-310,-230ZM-220,-230L-130,-420L-200,-420L-200,-410L-170,-410L-250,-230L-250,-220L-230,-210L-200,-220L-150,-270L-160,-280L-210,-230ZM-100,-210L-80,-210L-30,-240L0,-300L-20,-340L-60,-350L-110,-320L-140,-260L-120,-220ZM-60,-330L-40,-330L-30,-300L-50,-260L-80,-230L-100,-230L-110,-260L-90,-300ZM40,-180L60,-220L60,-240L40,-250L30,-250L20,-230L20,-220L40,-210L30,-190L10,-190L10,-180ZM200,-230L250,-390L280,-410L200,-410L220,-390L170,-230L140,-210L220,-210ZM300,-360L300,-350L340,-390L340,-400L330,-410L320,-410L310,-400ZM480,-300L500,-320L520,-330L530,-320L480,-230L480,-220L490,-210L510,-210L530,-220L580,-270L570,-280L520,-230L510,-230L560,-310L560,-340L530,-350L500,-340L480,-320L480,-340L460,-350L430,-340L400,-310L410,-330L410,-340L400,-350L370,-340L320,-290L330,-280L380,-330L390,-330L330,-220L340,-210L360,-210L400,-290L430,-320L450,-330L460,-320L410,-220L420,-210L440,-210ZM-590,22L-540,-138L-520,-158L-590,-158L-570,-138L-620,22L-650,42L-570,42ZM-470,42L-500,-38L-540,-68L-420,-158L-490,-158L-470,-138L-560,-68L-560,-58L-530,-28L-510,22L-480,52ZM-450,-38L-440,-28L-390,-78L-380,-78L-440,32L-430,42L-410,42L-370,-38L-340,-58L-310,-58L-300,-88L-320,-98L-340,-88L-370,-48L-380,-48L-360,-78L-360,-88L-370,-98L-400,-88ZM-210,-118L-200,-118L-190,-138L-190,-148L-210,-158L-220,-158L-230,-138L-230,-128ZM-320,-38L-310,-28L-260,-78L-250,-78L-310,22L-310,32L-300,42L-280,42L-260,32L-210,-18L-220,-28L-270,22L-280,22L-220,-78L-220,-88L-240,-98L-270,-88ZM-190,32L-190,2L-200,-8L-220,2L-220,32L-200,42L-180,42L-150,32L-130,12L-130,-8L-140,-58L-140,-78L-120,-88L-120,-58L-110,-48L-90,-58L-90,-88L-120,-98L-160,-88L-170,-68L-170,-48L-160,-8L-160,12L-180,32ZM-60,22L-10,-78L20,-78L20,-88L-10,-88L10,-128L-10,-128L-20,-98L-40,-88L-60,-88L-60,-78L-40,-78L-90,22L-90,32L-80,42L-60,42L-40,32L10,-18L0,-28L-50,22ZM130,-118L140,-118L150,-138L150,-148L130,-158L120,-158L110,-138L110,-128ZM20,-38L30,-28L80,-78L90,-78L30,22L30,32L40,42L60,42L80,32L130,-18L120,-28L70,22L60,22L120,-78L120,-88L100,-98L70,-88ZM290,-88L280,-98L260,-68L250,-88L210,-98L160,-58L140,-8L150,32L170,42L190,42L220,12L220,32L230,42L260,32L310,-18L300,-28L250,22L240,22ZM190,22L180,22L170,-8L190,-48L220,-78L240,-78L250,-58L250,-48L220,-8ZM310,-38L320,-28L370,-78L380,-78L320,32L330,42L350,42L390,-38L420,-68L440,-78L450,-68L400,22L400,32L410,42L430,42L450,32L500,-18L490,-28L440,22L430,22L480,-58L480,-88L450,-98L420,-88L390,-58L400,-78L400,-88L390,-98L360,-88ZM-600,94L-580,114L-630,274L-650,294L-550,294L-500,274L-470,234L-480,194L-510,184L-490,174L-460,144L-470,104L-520,94ZM-600,274L-550,114L-540,104L-520,104L-500,114L-500,144L-520,174L-550,184L-570,184L-570,194L-540,194L-520,204L-510,234L-530,264L-570,284L-590,284ZM-350,134L-340,134L-330,114L-330,104L-350,94L-360,94L-370,114L-370,124ZM-460,214L-450,224L-400,174L-390,174L-450,314L-470,354L-480,354L-480,334L-490,324L-510,334L-510,364L-480,374L-460,364L-430,334L-360,174L-360,164L-370,154L-410,164ZM-310,294L-290,294L-240,264L-210,204L-230,164L-231.50,163.75L-210,134L-220,134L-240,161.50L-270,154L-320,184L-350,244L-330,284L-328.75,284.50L-350,314L-340,314L-321.50,288.25ZM-270,174L-250,174L-249.75,175L-313.50,263.50L-320,244L-300,204ZM-310,274L-310.25,273L-246.50,184.50L-240,204L-260,244L-290,274ZM-220,214L-210,224L-160,174L-150,174L-210,284L-200,294L-180,294L-140,214L-110,194L-80,194L-70,164L-90,154L-110,164L-140,204L-150,204L-130,174L-130,164L-140,154L-170,164ZM-90,214L-80,224L-30,174L-20,174L-80,284L-70,294L-50,294L-10,214L20,184L40,174L50,184L0,274L0,284L10,294L30,294L50,284L100,234L90,224L40,274L30,274L80,194L80,164L50,154L20,164L-10,194L0,174L0,164L-10,154L-40,164ZM260,164L250,154L230,184L220,164L180,154L130,194L110,244L120,284L140,294L160,294L190,264L190,284L200,294L230,284L280,234L270,224L220,274L210,274ZM160,274L150,274L140,244L160,204L190,174L210,174L220,194L220,204L190,244ZM280,214L290,224L340,174L350,174L290,284L300,294L320,294L360,214L390,194L420,194L430,164L410,154L390,164L360,204L350,204L370,174L370,164L360,154L330,164ZM510,294L520,294L540,284L590,234L580,224L530,274L520,274L610,84L540,84L540,94L570,94L540,184L530,164L490,154L440,194L420,244L430,284L450,294L470,294L500,264L500,284ZM470,274L460,274L450,244L470,204L500,174L520,174L530,194L530,204L500,244Z" fill="#ffffff" stroke="#000000"/>
    <path d="M-612.44,-367.99L-691.51,-363.39L-670.59,-344.77L-710.81,-183.76L-739.31,-162.27L-660.24,-166.87L-681.16,-185.49L-665.42,-255.82L-656.11,-266.28L-557.28,-272.03L-556.70,-262.15L-572.44,-191.81L-600.94,-170.32L-521.88,-174.92L-542.79,-193.54L-502.58,-354.54L-474.08,-376.04L-553.14,-371.44L-532.23,-352.82L-548.54,-292.37L-557.85,-281.91L-656.68,-276.16L-657.26,-286.05L-640.94,-346.50ZM-368.92,-273.07L-370.07,-292.83L-381.10,-312.03L-421.21,-319.61L-468.90,-287.09L-495.10,-226.06L-482.92,-187.10L-462.58,-178.37L-442.81,-179.52L-423.62,-190.55L-386.39,-232.39L-396.84,-241.69L-434.08,-199.86L-453.84,-198.71L-465.45,-227.79L-447.99,-268.47L-420.06,-299.84L-400.29,-300.99L-398.57,-271.34L-417.76,-260.31L-447.41,-258.59L-446.84,-248.70L-397.42,-251.58ZM-335.25,-205.61L-257.22,-398.57L-326.40,-394.54L-325.83,-384.66L-296.18,-386.38L-364.90,-203.89L-364.32,-194.00L-343.98,-185.27L-314.90,-196.88L-268.36,-249.17L-278.82,-258.48L-325.36,-206.18ZM-236.41,-211.36L-158.39,-404.32L-227.57,-400.29L-226.99,-390.41L-197.34,-392.13L-266.06,-209.63L-265.49,-199.75L-245.15,-191.02L-216.07,-202.62L-169.53,-254.92L-179.99,-264.22L-226.53,-211.93ZM-116.66,-198.49L-96.90,-199.64L-49.20,-232.16L-23.00,-293.19L-45.07,-331.57L-85.18,-339.16L-132.87,-306.63L-159.07,-245.61L-137.00,-207.22ZM-84.03,-319.39L-64.26,-320.54L-52.65,-291.46L-70.12,-250.78L-98.05,-219.41L-117.81,-218.26L-129.42,-247.33L-111.95,-288.02ZM23.43,-176.89L40.89,-217.57L39.75,-237.34L19.40,-246.07L9.52,-245.50L0.79,-225.16L1.36,-215.27L21.70,-206.54L12.97,-186.20L-6.80,-185.05L-6.22,-175.16ZM178.69,-235.50L218.90,-396.51L247.40,-418.00L168.34,-413.40L189.25,-394.79L149.04,-233.78L120.54,-212.29L199.60,-216.89ZM270.05,-369.74L270.62,-359.85L307.85,-401.68L307.28,-411.57L296.82,-420.88L286.94,-420.30L277.63,-409.84ZM451.39,-320.78L470.01,-341.70L489.20,-352.73L499.66,-343.42L455.42,-251.60L455.99,-241.72L466.45,-232.41L486.22,-233.56L505.41,-244.59L551.95,-296.88L541.49,-306.19L494.95,-253.90L485.07,-253.32L529.89,-335.27L528.16,-364.92L497.94,-373.07L468.86,-361.47L450.24,-340.55L449.09,-360.32L428.75,-369.05L399.68,-357.44L371.75,-326.07L380.49,-346.41L379.91,-356.29L369.45,-365.60L340.38,-353.99L293.84,-301.70L304.29,-292.39L350.84,-344.68L360.72,-345.26L307.74,-233.09L318.20,-223.79L337.97,-224.93L372.90,-306.30L400.83,-337.68L420.02,-348.71L430.48,-339.40L386.81,-237.69L397.27,-228.38L417.04,-229.53ZM-587.61,58.97L-547.39,-102.04L-528.77,-122.95L-597.95,-118.93L-577.04,-100.31L-617.26,60.70L-645.76,82.19L-566.69,77.59ZM-467.86,71.84L-502.11,-5.50L-543.36,-32.85L-429.94,-128.70L-499.12,-124.68L-478.21,-106.06L-563.13,-31.70L-562.56,-21.82L-531.18,6.11L-508.54,54.37L-477.17,82.30ZM-452.69,-8.38L-442.23,0.93L-395.69,-51.36L-385.81,-51.93L-438.78,60.23L-428.32,69.54L-408.56,68.39L-373.62,-12.98L-345.12,-34.47L-315.47,-36.19L-307.32,-66.42L-327.66,-75.15L-346.85,-64.12L-374.20,-22.86L-384.08,-22.28L-366.04,-53.08L-366.62,-62.97L-377.07,-72.28L-406.15,-60.67ZM-220.09,-101.24L-210.21,-101.82L-201.47,-122.16L-202.05,-132.04L-222.39,-140.77L-232.27,-140.20L-241.01,-119.86L-240.43,-109.97ZM-324.21,-15.85L-313.75,-6.54L-267.21,-58.83L-257.32,-59.41L-310.87,42.87L-310.30,52.76L-299.84,62.07L-280.08,60.92L-260.88,49.88L-214.34,-2.41L-224.80,-11.72L-271.34,40.57L-281.23,41.15L-227.67,-61.13L-228.25,-71.02L-248.59,-79.75L-277.67,-68.14ZM-191.70,45.86L-193.43,16.21L-203.88,6.90L-223.08,17.93L-221.35,47.58L-201.01,56.32L-181.24,55.17L-152.17,43.56L-133.55,22.64L-134.70,2.88L-147.46,-45.96L-148.61,-65.73L-129.42,-76.76L-127.69,-47.11L-117.23,-37.81L-98.04,-48.84L-99.77,-78.49L-129.99,-86.65L-168.95,-74.47L-177.68,-54.12L-176.53,-34.36L-164.35,4.60L-163.20,24.37L-181.82,45.28ZM-63.79,28.50L-20.12,-73.20L9.53,-74.93L8.95,-84.81L-20.70,-83.09L-3.23,-123.77L-23.00,-122.62L-31.16,-92.40L-50.35,-81.36L-70.12,-80.21L-69.54,-70.33L-49.77,-71.48L-93.44,30.23L-92.87,40.11L-82.41,49.42L-62.64,48.27L-43.45,37.24L3.09,-15.05L-7.37,-24.36L-53.91,27.93ZM115.94,-120.79L125.83,-121.36L134.56,-141.70L133.98,-151.59L113.64,-160.32L103.76,-159.74L95.03,-139.40L95.60,-129.52ZM11.82,-35.40L22.28,-26.09L68.82,-78.38L78.71,-78.95L25.16,23.33L25.73,33.21L36.19,42.52L55.96,41.37L75.15,30.34L121.69,-21.95L111.23,-31.26L64.69,21.03L54.81,21.60L108.36,-80.68L107.78,-90.56L87.44,-99.30L58.37,-87.69ZM275.80,-100.33L265.34,-109.64L247.30,-78.84L236.27,-98.04L196.16,-105.62L149.04,-63.21L132.15,-12.65L144.33,26.31L164.67,35.05L184.44,33.90L212.36,2.52L213.51,22.29L223.97,31.60L253.05,19.99L299.59,-32.30L289.13,-41.61L242.59,10.68L232.71,11.26ZM183.29,14.13L173.41,14.71L161.80,-14.37L179.27,-55.05L207.19,-86.43L226.96,-87.58L237.99,-68.39L238.57,-58.50L211.22,-17.24ZM298.44,-52.07L308.90,-42.76L355.44,-95.05L365.32,-95.63L312.35,16.54L322.81,25.85L342.57,24.70L377.51,-56.67L405.43,-88.04L424.62,-99.07L435.08,-89.77L390.84,2.06L391.41,11.94L401.87,21.25L421.64,20.10L440.83,9.07L487.37,-43.22L476.91,-52.53L430.37,-0.24L420.49,0.33L465.31,-81.61L463.58,-111.26L433.36,-119.42L404.28,-107.81L376.36,-76.43L385.09,-96.77L384.52,-106.66L374.06,-115.97L344.98,-104.36ZM-593.35,130.71L-572.43,149.32L-612.65,310.33L-631.27,331.25L-532.44,325.50L-484.17,302.86L-456.82,261.60L-469.00,222.64L-499.23,214.48L-480.04,203.45L-452.11,172.07L-464.29,133.12L-514.28,126.11ZM-583.00,308.60L-542.79,147.60L-533.48,137.14L-513.71,135.99L-493.37,144.72L-491.64,174.37L-509.69,205.17L-538.76,216.78L-558.53,217.93L-557.95,227.81L-528.30,226.09L-507.96,234.82L-496.35,263.90L-514.40,294.70L-552.78,316.76L-572.55,317.91ZM-343.97,155.87L-334.09,155.29L-325.35,134.95L-325.93,125.07L-346.27,116.33L-356.15,116.91L-364.89,137.25L-364.31,147.13ZM-448.09,241.26L-437.63,250.57L-391.09,198.27L-381.20,197.70L-432.45,339.51L-449.92,380.20L-459.80,380.77L-460.95,361.01L-471.41,351.70L-490.60,362.73L-488.88,392.38L-458.66,400.54L-439.46,389.51L-411.54,358.13L-351.55,195.97L-352.13,186.09L-362.59,176.78L-401.54,188.97ZM-295.24,311.70L-275.47,310.55L-227.78,278.03L-201.58,217.00L-223.65,178.62L-225.14,178.46L-205.60,147.82L-215.49,148.39L-233.67,176.72L-263.75,171.03L-311.45,203.56L-337.65,264.58L-315.58,302.97L-314.32,303.39L-333.62,333.77L-323.74,333.19L-306.93,306.68ZM-262.60,190.80L-242.84,189.65L-242.53,190.63L-300.45,281.76L-308.00,262.86L-290.53,222.18ZM-296.39,291.93L-296.69,290.96L-238.77,199.83L-231.23,218.73L-248.70,259.41L-276.62,290.78ZM-210.89,227.46L-200.43,236.77L-153.89,184.48L-144.00,183.90L-196.98,296.07L-186.52,305.38L-166.76,304.23L-131.82,222.86L-103.32,201.37L-73.67,199.64L-65.51,169.42L-85.85,160.69L-105.05,171.72L-132.40,212.98L-142.28,213.55L-124.24,182.75L-124.81,172.87L-135.27,163.56L-164.35,175.17ZM-82.40,219.99L-71.95,229.29L-25.40,177.00L-15.52,176.43L-68.50,288.59L-58.04,297.90L-38.27,296.75L-3.34,215.39L24.59,184.01L43.78,172.98L54.24,182.29L9.99,274.11L10.57,284.00L21.03,293.30L40.79,292.15L59.99,281.12L106.53,228.83L96.07,219.52L49.53,271.81L39.64,272.39L84.46,190.45L82.74,160.80L52.51,152.64L23.44,164.25L-4.49,195.62L4.25,175.28L3.67,165.40L-6.79,156.09L-35.86,167.70ZM260.64,150.45L250.18,141.14L232.14,171.94L221.10,152.75L180.99,145.16L133.88,187.57L116.99,238.14L129.17,277.10L149.51,285.83L169.28,284.68L197.20,253.31L198.35,273.07L208.81,282.38L237.88,270.77L284.43,218.48L273.97,209.17L227.43,261.46L217.54,262.04ZM168.13,264.91L158.24,265.49L146.64,236.41L164.10,195.73L192.03,164.36L211.79,163.21L222.83,182.40L223.40,192.28L196.05,233.54ZM283.28,198.72L293.74,208.02L340.28,155.73L350.16,155.16L297.18,267.32L307.64,276.63L327.41,275.48L362.34,194.12L390.84,172.63L420.49,170.90L428.65,140.68L408.31,131.94L389.12,142.98L361.77,184.23L351.89,184.81L369.93,154.01L369.35,144.13L358.89,134.82L329.82,146.42ZM515.19,264.56L525.08,263.99L544.27,252.95L590.81,200.66L580.35,191.35L533.81,243.64L523.93,244.22L601.95,51.26L532.77,55.29L533.34,65.17L562.99,63.44L538.52,154.12L527.49,134.93L487.38,127.34L440.26,169.75L423.37,220.32L435.55,259.28L455.89,268.01L475.66,266.86L503.58,235.48L504.73,255.25ZM474.51,247.09L464.63,247.67L453.02,218.59L470.48,177.91L498.41,146.54L518.18,145.39L529.21,164.58L529.78,174.46L502.43,215.72Z" fill="#ffffff" stroke="#000000"/>
    <path d="M-631.88,-324.85L-709.76,-315.76L-688.02,-298.56L-718.51,-137.14L-745.44,-114.26L-667.56,-123.35L-689.30,-140.55L-677.79,-210.96L-669.19,-221.83L-571.85,-233.19L-570.72,-223.46L-582.23,-153.05L-609.16,-130.17L-531.29,-139.26L-553.03,-156.46L-522.54,-317.88L-495.61,-340.76L-573.48,-331.67L-551.74,-314.47L-564.39,-253.80L-572.99,-242.93L-670.33,-231.56L-671.46,-241.30L-658.81,-301.97ZM-385.77,-245.05L-388.04,-264.51L-400.05,-282.85L-440.12,-288.03L-485.38,-253.15L-507.77,-191.34L-493.49,-153.54L-472.89,-146.08L-453.42,-148.35L-435.09,-160.36L-400.70,-203.84L-411.57,-212.44L-445.96,-168.95L-465.42,-166.68L-478.57,-194.75L-463.64,-235.96L-437.85,-268.57L-418.38,-270.84L-414.97,-241.64L-433.31,-229.63L-462.51,-226.22L-461.37,-216.49L-412.70,-222.17ZM-348.62,-180.32L-282.60,-375.49L-350.74,-367.53L-349.60,-357.80L-320.40,-361.21L-377.82,-176.91L-376.68,-167.17L-356.08,-159.71L-328.01,-172.86L-285.02,-227.21L-295.89,-235.80L-338.88,-181.45ZM-251.28,-191.68L-185.26,-386.85L-253.40,-378.90L-252.26,-369.16L-223.06,-372.57L-280.48,-188.27L-279.34,-178.54L-258.74,-171.08L-230.67,-184.22L-187.69,-238.57L-198.56,-247.17L-241.54,-192.82ZM-132.20,-185.85L-112.73,-188.12L-67.47,-223.00L-45.09,-284.81L-69.10,-321.48L-109.17,-326.67L-154.43,-291.78L-176.82,-229.97L-152.80,-193.31ZM-106.90,-307.20L-87.43,-309.47L-74.29,-281.40L-89.21,-240.20L-115.00,-207.59L-134.47,-205.31L-147.61,-233.38L-132.69,-274.59ZM7.48,-172.55L22.41,-213.76L20.14,-233.23L-0.47,-240.69L-10.20,-239.55L-17.66,-218.95L-16.53,-209.21L4.08,-201.75L-3.39,-181.15L-22.85,-178.88L-21.72,-169.14ZM157.55,-239.40L188.04,-400.82L214.97,-423.70L137.09,-414.61L158.83,-397.42L128.34,-235.99L101.42,-213.12L179.29,-222.21ZM240.11,-377.30L241.25,-367.57L275.64,-411.05L274.51,-420.78L263.63,-429.38L253.90,-428.25L245.30,-417.38ZM422.14,-339.35L439.34,-361.09L457.67,-373.10L468.54,-364.50L430.10,-271.21L431.23,-261.48L442.10,-252.88L461.57,-255.16L479.90,-267.16L522.89,-321.51L512.02,-330.11L469.03,-275.76L459.30,-274.62L498.88,-358.18L495.47,-387.38L465.13,-393.70L437.06,-380.56L419.87,-358.82L417.60,-378.29L396.99,-385.75L368.93,-372.61L343.13,-340.00L350.60,-360.60L349.46,-370.33L338.59,-378.93L310.52,-365.79L267.54,-311.44L278.41,-302.84L321.39,-357.19L331.13,-358.33L285.22,-244.44L296.09,-235.84L315.56,-238.11L345.41,-320.53L371.20,-353.14L389.53,-365.15L400.40,-356.55L363.09,-253.53L373.96,-244.93L393.43,-247.20ZM-582.80,95.66L-552.31,-65.77L-535.11,-87.51L-603.25,-79.55L-581.51,-62.36L-612.00,99.06L-638.93,121.94L-561.06,112.85ZM-463.72,101.49L-502.01,27.03L-544.36,2.37L-437.78,-98.87L-505.91,-90.92L-484.17,-73.72L-563.82,4.64L-562.69,14.38L-530.08,40.17L-504.93,86.57L-472.32,112.36ZM-453.34,21.34L-442.47,29.94L-399.48,-24.41L-389.75,-25.54L-435.66,88.35L-424.78,96.94L-405.32,94.67L-375.47,12.26L-348.54,-10.62L-319.34,-14.03L-313.02,-44.37L-333.62,-51.83L-351.95,-39.82L-376.61,2.52L-386.34,3.66L-370.28,-27.82L-371.42,-37.55L-382.29,-46.15L-410.35,-33.01ZM-228.82,-83.80L-219.08,-84.93L-211.62,-105.54L-212.76,-115.27L-233.36,-122.73L-243.10,-121.60L-250.56,-100.99L-249.42,-91.26ZM-326.80,6.57L-315.93,15.17L-272.94,-39.18L-263.21,-40.32L-310.25,63.84L-309.11,73.58L-298.24,82.17L-278.78,79.90L-260.44,67.89L-217.46,13.54L-228.33,4.95L-271.31,59.30L-281.05,60.43L-234.01,-43.72L-235.14,-53.46L-255.75,-60.92L-283.81,-47.78ZM-192.31,59.94L-195.72,30.74L-206.59,22.14L-224.92,34.15L-221.51,63.35L-200.91,70.81L-181.44,68.54L-153.37,55.40L-136.18,33.66L-138.45,14.19L-153.86,-33.35L-156.14,-52.81L-137.80,-64.82L-134.40,-35.62L-123.53,-27.02L-105.19,-39.03L-108.60,-68.23L-138.94,-74.55L-176.74,-60.28L-184.20,-39.67L-181.93,-20.20L-167.65,17.60L-165.38,37.06L-182.57,58.80ZM-66.90,35.44L-29.60,-67.58L-0.39,-70.99L-1.53,-80.73L-30.73,-77.32L-15.81,-118.53L-35.28,-116.25L-41.60,-85.92L-59.93,-73.91L-79.40,-71.64L-78.26,-61.90L-58.80,-64.18L-96.10,38.84L-94.97,48.58L-84.10,57.18L-64.63,54.90L-46.30,42.90L-3.31,-11.45L-14.18,-20.05L-57.17,34.30ZM102.13,-122.43L111.87,-123.56L119.33,-144.17L118.19,-153.90L97.59,-161.36L87.86,-160.23L80.39,-139.62L81.53,-129.89ZM4.15,-32.06L15.02,-23.46L58.01,-77.81L67.74,-78.95L20.70,25.21L21.84,34.94L32.71,43.54L52.18,41.27L70.51,29.26L113.50,-25.09L102.63,-33.69L59.64,20.66L49.90,21.80L96.95,-82.36L95.81,-92.09L75.21,-99.55L47.14,-86.41ZM261.29,-111.41L250.42,-120.00L234.36,-88.53L222.35,-106.86L182.28,-112.05L138.15,-67.43L124.37,-16.49L138.65,21.31L159.25,28.77L178.72,26.50L204.51,-6.11L206.78,13.36L217.65,21.95L245.72,8.81L288.71,-45.54L277.84,-54.14L234.85,0.21L225.11,1.35ZM176.45,7.03L166.71,8.17L153.57,-19.90L168.49,-61.11L194.28,-93.72L213.75,-95.99L225.76,-77.66L226.89,-67.92L202.24,-25.58ZM286.43,-65.01L297.30,-56.41L340.29,-110.76L350.03,-111.90L304.12,1.99L314.99,10.59L334.46,8.32L364.31,-74.10L390.10,-106.71L408.43,-118.71L419.30,-110.12L380.86,-16.83L381.99,-7.10L392.86,1.50L412.33,-0.77L430.66,-12.78L473.65,-67.13L462.78,-75.73L419.79,-21.38L410.06,-20.24L449.64,-103.79L446.23,-132.99L415.89,-139.32L387.83,-126.18L362.03,-93.57L369.49,-114.17L368.36,-123.90L357.49,-132.50L329.42,-119.36ZM-584.35,166.88L-562.61,184.07L-593.10,345.49L-610.30,367.24L-512.96,355.87L-466.56,330.72L-441.91,288.38L-456.18,250.58L-486.52,244.26L-468.19,232.25L-442.40,199.64L-456.68,161.84L-506.48,157.79ZM-563.90,342.09L-533.41,180.66L-524.81,169.79L-505.35,167.52L-484.74,174.98L-481.33,204.18L-497.39,235.66L-525.46,248.80L-544.93,251.07L-543.79,260.81L-514.59,257.40L-493.98,264.86L-480.84,292.92L-496.90,324.40L-533.56,348.41L-553.03,350.68ZM-336.46,177.41L-326.73,176.27L-319.27,155.67L-320.40,145.93L-341.01,138.47L-350.74,139.61L-358.20,160.21L-357.06,169.94ZM-434.44,267.78L-423.57,276.37L-380.59,222.02L-370.85,220.89L-413.35,363.98L-428.27,405.19L-438.00,406.32L-440.28,386.86L-451.15,378.26L-469.48,390.26L-466.07,419.47L-435.73,425.79L-417.40,413.78L-391.61,381.17L-341.65,217.48L-342.79,207.74L-353.66,199.15L-391.46,213.43ZM-279.35,328.60L-259.88,326.33L-214.62,291.45L-192.23,229.64L-216.24,192.97L-217.73,192.90L-200.19,161.50L-209.92,162.64L-226.26,191.68L-256.32,187.78L-301.58,222.67L-323.96,284.48L-299.95,321.14L-298.68,321.49L-316.01,352.62L-306.27,351.48L-291.19,324.31ZM-254.04,207.25L-234.58,204.98L-234.22,205.92L-286.22,299.31L-294.76,281.07L-279.84,239.86ZM-281.62,309.14L-281.97,308.19L-229.98,214.80L-221.43,233.04L-236.36,274.25L-262.15,306.86ZM-200.83,240.51L-189.96,249.10L-146.97,194.75L-137.24,193.62L-183.14,307.51L-172.27,316.11L-152.80,313.83L-122.96,231.42L-96.03,208.54L-66.83,205.13L-60.50,174.79L-81.11,167.33L-99.44,179.34L-124.09,221.68L-133.83,222.82L-117.77,191.34L-118.91,181.61L-129.78,173.01L-157.84,186.16ZM-74.29,225.74L-63.42,234.33L-20.43,179.98L-10.70,178.85L-56.60,292.74L-45.73,301.33L-26.26,299.06L3.58,216.65L29.38,184.04L47.71,172.03L58.58,180.63L20.13,273.91L21.27,283.65L32.14,292.24L51.61,289.97L69.94,277.97L112.93,223.62L102.06,215.02L59.07,269.37L49.34,270.50L88.92,186.95L85.51,157.75L55.17,151.42L27.10,164.57L1.31,197.18L8.77,176.57L7.64,166.84L-3.24,158.24L-31.30,171.38ZM260.72,137.30L249.85,128.70L233.79,160.17L221.78,141.84L181.71,136.65L137.58,181.27L123.80,232.21L138.08,270.01L158.68,277.47L178.15,275.20L203.94,242.59L206.21,262.06L217.08,270.66L245.15,257.51L288.14,203.16L277.27,194.57L234.28,248.92L224.55,250.05ZM175.88,255.73L166.14,256.87L153.00,228.80L167.92,187.60L193.72,154.99L213.18,152.71L225.19,171.04L226.33,180.78L201.67,223.12ZM285.87,183.70L296.74,192.29L339.72,137.94L349.46,136.81L303.55,250.70L314.42,259.29L333.89,257.02L363.74,174.61L390.67,151.73L419.87,148.32L426.19,117.98L405.59,110.52L387.26,122.53L362.60,164.87L352.87,166.01L368.93,134.53L367.79,124.80L356.92,116.20L328.85,129.34ZM518.84,235.43L528.57,234.30L546.90,222.29L589.89,167.94L579.02,159.34L536.03,213.69L526.30,214.83L592.31,19.66L524.18,27.61L525.31,37.35L554.51,33.94L535.54,124.95L523.53,106.62L483.46,101.43L439.34,146.05L425.55,196.99L439.83,234.79L460.43,242.25L479.90,239.98L505.69,207.37L507.97,226.84ZM477.63,220.51L467.89,221.65L454.75,193.58L469.67,152.37L495.47,119.76L514.93,117.49L526.94,135.82L528.08,145.56L503.42,187.90Z" fill="#ffffff" stroke="#000000"/>
    <path d="M-648.28,-280.80L-724.70,-267.34L-702.23,-251.60L-723.08,-90.34L-748.38,-66.19L-671.95,-79.64L-694.42,-95.39L-687.09,-165.62L-679.22,-176.86L-583.69,-193.68L-582.01,-184.13L-589.34,-113.89L-614.64,-89.74L-538.21,-103.20L-560.68,-118.94L-539.83,-280.20L-514.54,-304.35L-590.96,-290.89L-568.49,-275.15L-577.50,-214.47L-585.37,-203.23L-680.91,-186.41L-682.59,-195.96L-673.57,-256.65ZM-400.50,-216.09L-403.87,-235.19L-416.78,-252.62L-456.68,-255.44L-499.40,-218.37L-517.96,-156.01L-501.68,-119.48L-480.89,-113.29L-461.79,-116.65L-444.36,-129.57L-412.88,-174.51L-424.12,-182.38L-455.60,-137.44L-474.70,-134.08L-489.30,-161.05L-476.93,-202.63L-453.31,-236.34L-434.21,-239.70L-429.16,-211.04L-446.59,-198.12L-475.25,-193.08L-473.56,-183.52L-425.80,-191.94ZM-360.07,-154.26L-306.05,-350.91L-372.92,-339.14L-371.24,-329.58L-342.58,-334.63L-388.73,-149.22L-387.05,-139.66L-366.26,-133.48L-339.28,-148.07L-299.93,-204.25L-311.16,-212.12L-350.52,-155.95ZM-264.54,-171.09L-210.52,-367.73L-277.39,-355.96L-275.71,-346.40L-247.05,-351.45L-293.20,-166.04L-291.52,-156.49L-270.73,-150.30L-243.75,-164.90L-204.40,-221.07L-215.63,-228.94L-254.99,-172.77ZM-146.54,-172.17L-127.43,-175.53L-84.71,-212.60L-66.15,-274.96L-91.98,-309.81L-131.88,-312.64L-174.60,-275.57L-193.16,-213.20L-167.33,-178.35ZM-128.51,-293.53L-109.41,-296.90L-94.81,-269.92L-107.18,-228.34L-130.80,-194.64L-149.90,-191.27L-164.50,-218.25L-152.12,-259.83ZM-7.75,-167.06L4.63,-208.63L1.26,-227.74L-19.52,-233.93L-29.08,-232.25L-35.27,-211.46L-33.58,-201.91L-12.80,-195.72L-18.98,-174.93L-38.09,-171.56L-36.41,-162.01ZM136.69,-241.74L157.54,-403.00L182.83,-427.15L106.41,-413.69L128.88,-397.95L108.03,-236.69L82.73,-212.54L159.16,-226.00ZM210.35,-382.75L212.03,-373.20L243.52,-418.14L241.83,-427.69L230.60,-435.56L221.05,-433.88L213.17,-422.64ZM392.40,-355.71L408.14,-378.18L425.56,-391.10L436.80,-383.23L404.17,-288.84L405.86,-279.29L417.09,-271.42L436.20,-274.78L453.62,-287.70L492.97,-343.87L481.74,-351.74L442.39,-295.57L432.83,-293.89L467.14,-378.72L462.09,-407.38L431.75,-411.89L404.77,-397.29L389.03,-374.82L385.67,-393.92L364.88,-400.11L337.90,-385.51L314.29,-351.81L320.48,-372.59L318.80,-382.15L307.56,-390.02L280.59,-375.42L241.23,-319.24L252.47,-311.37L291.82,-367.55L301.37,-369.23L262.56,-254.05L273.80,-246.18L292.90,-249.55L317.66,-332.70L341.27,-366.41L358.69,-379.32L369.93,-371.45L338.98,-267.51L350.22,-259.64L369.33,-263.00ZM-575.61,131.89L-554.76,-29.37L-539.02,-51.84L-605.89,-40.06L-583.42,-24.32L-604.27,136.94L-629.56,161.09L-553.14,147.63ZM-457.61,130.81L-499.72,59.43L-542.98,37.50L-443.49,-68.66L-510.36,-56.88L-487.89,-41.14L-562.09,40.87L-560.41,50.42L-526.70,74.03L-499.18,118.43L-465.48,142.05ZM-451.96,51.02L-440.72,58.89L-401.37,2.72L-391.82,1.04L-430.63,116.21L-419.40,124.08L-400.29,120.72L-375.54,37.57L-350.24,13.41L-321.58,8.37L-317.08,-21.97L-337.86,-28.16L-355.29,-15.25L-377.22,28.01L-386.77,29.69L-372.71,-2.33L-374.39,-11.88L-385.63,-19.75L-412.61,-5.15ZM-236.14,-65.77L-226.59,-67.46L-220.40,-88.24L-222.09,-97.80L-242.87,-103.99L-252.43,-102.30L-258.62,-81.52L-256.93,-71.96ZM-327.77,29.15L-316.54,37.03L-277.18,-19.15L-267.63,-20.83L-308.12,84.79L-306.44,94.34L-295.21,102.21L-276.10,98.85L-258.68,85.93L-219.32,29.76L-230.56,21.89L-269.91,78.06L-279.47,79.74L-238.97,-25.88L-240.65,-35.43L-261.44,-41.62L-288.42,-27.02ZM-191.81,74.16L-196.85,45.50L-208.09,37.63L-225.51,50.54L-220.46,79.20L-199.68,85.39L-180.57,82.03L-153.59,67.43L-137.85,44.96L-141.22,25.85L-159.18,-20.23L-162.54,-39.34L-145.12,-52.25L-140.07,-23.60L-128.84,-15.72L-111.42,-28.64L-116.46,-57.30L-146.80,-61.81L-183.33,-45.53L-189.52,-24.74L-186.16,-5.63L-169.88,30.90L-166.51,50.00L-182.25,72.47ZM-69.30,42.74L-38.36,-61.21L-9.70,-66.25L-11.38,-75.81L-40.04,-70.76L-27.66,-112.34L-46.77,-108.97L-51.27,-78.63L-68.70,-65.71L-87.80,-62.35L-86.12,-52.79L-67.01,-56.16L-97.96,47.78L-96.28,57.34L-85.04,65.21L-65.93,61.84L-48.51,48.92L-9.16,-7.25L-20.39,-15.12L-59.75,41.05ZM88.66,-122.97L98.21,-124.65L104.40,-145.44L102.72,-154.99L81.93,-161.18L72.38,-159.50L66.19,-138.71L67.87,-129.16ZM-2.97,-28.04L8.27,-20.17L47.62,-76.35L57.17,-78.03L16.68,27.60L18.36,37.15L29.60,45.02L48.70,41.66L66.13,28.74L105.48,-27.44L94.24,-35.31L54.89,20.87L45.34,22.55L85.83,-83.07L84.15,-92.63L63.36,-98.82L36.39,-84.22ZM246.55,-121.22L235.32,-129.10L221.26,-97.07L208.34,-114.50L168.45,-117.32L127.41,-70.70L116.72,-19.57L133.00,16.96L153.79,23.15L172.89,19.79L196.50,-13.92L199.87,5.19L211.10,13.06L238.08,-1.54L277.43,-57.72L266.20,-65.59L226.84,-9.41L217.29,-7.73ZM169.53,0.68L159.97,2.36L145.37,-24.61L157.75,-66.19L181.36,-99.90L200.47,-103.26L213.39,-85.84L215.07,-76.28L193.14,-33.03ZM274.07,-76.82L285.31,-68.95L324.66,-125.13L334.21,-126.81L295.40,-11.63L306.63,-3.76L325.74,-7.13L350.49,-90.28L374.11,-123.99L391.53,-136.90L402.77,-129.03L370.14,-34.65L371.82,-25.09L383.06,-17.22L402.16,-20.59L419.59,-33.50L458.94,-89.68L447.71,-97.55L408.35,-41.37L398.80,-39.69L433.11,-124.53L428.06,-153.19L397.72,-157.69L370.74,-143.09L347.13,-109.39L353.32,-130.18L351.64,-139.73L340.40,-147.60L313.42,-133.00ZM-573.05,202.36L-550.58,218.10L-571.43,379.36L-587.17,401.83L-491.64,385.01L-447.24,357.49L-425.31,314.23L-441.59,277.70L-471.93,273.19L-454.51,260.28L-430.90,226.57L-447.18,190.04L-496.63,188.90ZM-542.77,374.31L-521.92,213.05L-514.05,201.82L-494.94,198.45L-474.16,204.64L-469.11,233.30L-483.17,265.32L-510.15,279.92L-529.25,283.29L-527.57,292.84L-498.91,287.79L-478.12,293.98L-463.52,320.96L-477.58,352.98L-512.43,378.82L-531.54,382.18ZM-327.50,198.51L-317.94,196.83L-311.75,176.04L-313.44,166.49L-334.22,160.30L-343.78,161.98L-349.97,182.77L-348.28,192.32ZM-419.12,293.44L-407.89,301.31L-368.53,245.14L-358.98,243.45L-392.75,387.29L-405.12,428.87L-414.68,430.55L-418.04,411.44L-429.28,403.57L-446.70,416.49L-441.65,445.15L-411.31,449.65L-393.89,436.74L-370.28,403.03L-330.32,238.41L-332.00,228.85L-343.24,220.98L-379.77,237.27ZM-262.37,344.63L-243.26,341.27L-200.54,304.20L-181.98,241.83L-207.81,206.99L-209.29,207.00L-193.75,174.96L-203.31,176.64L-217.79,206.28L-247.71,204.16L-290.43,241.23L-308.99,303.60L-283.16,338.44L-281.88,338.71L-297.22,370.47L-287.66,368.79L-274.32,341.07ZM-244.34,223.27L-225.24,219.90L-224.83,220.82L-270.84,316.08L-280.33,298.55L-267.96,256.97ZM-265.73,325.53L-266.14,324.61L-220.13,229.35L-210.64,246.88L-223.01,288.46L-246.63,322.16ZM-189.85,253.07L-178.61,260.94L-139.26,204.76L-129.71,203.08L-168.52,318.26L-157.29,326.13L-138.18,322.76L-113.42,239.61L-88.13,215.46L-59.47,210.41L-54.96,180.07L-75.75,173.88L-93.18,186.80L-115.11,230.06L-124.66,231.74L-110.60,199.72L-112.28,190.16L-123.52,182.29L-150.49,196.89ZM-65.66,231.20L-54.42,239.07L-15.07,182.89L-5.52,181.21L-44.33,296.39L-33.10,304.26L-13.99,300.90L10.76,217.74L34.38,184.04L51.80,171.12L63.04,178.99L30.41,273.38L32.09,282.93L43.33,290.80L62.43,287.44L79.86,274.52L119.21,218.34L107.98,210.47L68.62,266.65L59.07,268.33L93.38,183.50L88.33,154.84L57.99,150.33L31.01,164.93L7.40,198.64L13.59,177.85L11.91,168.30L0.67,160.42L-26.31,175.02ZM260.29,124.56L249.05,116.69L234.99,148.71L222.07,131.29L182.18,128.46L141.14,175.09L130.45,226.22L146.73,262.75L167.52,268.93L186.62,265.57L210.24,231.86L213.60,250.97L224.84,258.84L251.81,244.24L291.17,188.06L279.93,180.19L240.58,236.37L231.02,238.05ZM183.26,246.46L173.71,248.15L159.11,221.17L171.48,179.59L195.10,145.89L214.20,142.52L227.12,159.95L228.80,169.50L206.87,212.76ZM287.80,168.96L299.04,176.83L338.39,120.65L347.94,118.97L309.13,234.15L320.37,242.02L339.47,238.65L364.23,155.50L389.52,131.35L418.18,126.30L422.69,95.96L401.90,89.77L384.47,102.69L362.54,145.95L352.99,147.63L367.05,115.61L365.37,106.05L354.13,98.18L327.16,112.78ZM520.98,206.69L530.53,205.01L547.96,192.09L587.31,135.92L576.07,128.05L536.72,184.22L527.17,185.90L581.18,-10.74L514.31,1.03L515.99,10.59L544.65,5.54L531.13,96.56L518.22,79.14L478.32,76.31L437.29,122.94L426.59,174.07L442.87,210.60L463.66,216.79L482.77,213.42L506.38,179.72L509.74,198.82ZM479.40,194.32L469.85,196.00L455.25,169.02L467.63,127.44L491.24,93.74L510.35,90.37L523.26,107.80L524.95,117.35L503.02,160.61Z" fill="#ffffff" stroke="#000000"/>
    <path d="M-661.59,-236.05L-736.33,-218.36L-713.22,-204.10L-724.56,-43.57L-748.16,-18.26L-673.42,-35.94L-696.53,-50.21L-693.32,-120.02L-686.19,-131.57L-592.77,-153.69L-590.56,-144.34L-593.77,-74.53L-617.37,-49.21L-542.64,-66.90L-565.74,-81.16L-554.41,-241.69L-530.81,-267.00L-605.54,-249.32L-582.44,-235.05L-587.85,-174.58L-594.98,-163.03L-688.40,-140.92L-690.61,-150.26L-685.20,-210.73ZM-413.07,-186.35L-417.49,-205.04L-431.25,-221.51L-470.83,-222.01L-510.91,-182.93L-525.67,-120.24L-507.48,-85.09L-486.59,-80.17L-467.90,-84.59L-451.43,-98.35L-422.91,-144.56L-434.46,-151.69L-462.98,-105.48L-481.67,-101.06L-497.64,-126.88L-487.80,-168.66L-466.41,-203.32L-447.72,-207.75L-441.09,-179.72L-457.56,-165.96L-485.59,-159.32L-483.38,-149.98L-436.67,-161.04ZM-369.56,-127.59L-327.50,-324.99L-392.89,-309.51L-390.68,-300.17L-362.65,-306.80L-397.59,-120.96L-395.38,-111.62L-374.48,-106.70L-348.67,-122.67L-313.01,-180.44L-324.57,-187.57L-360.22,-129.80ZM-276.14,-149.70L-234.08,-347.10L-299.47,-331.62L-297.26,-322.28L-269.23,-328.91L-304.17,-143.07L-301.96,-133.73L-281.06,-128.81L-255.25,-144.78L-219.59,-202.55L-231.15,-209.68L-266.80,-151.91ZM-159.62,-157.55L-140.93,-161.97L-100.86,-201.06L-86.10,-263.74L-113.63,-296.69L-153.21,-297.18L-193.28,-258.10L-208.04,-195.42L-180.51,-162.47ZM-148.78,-278.50L-130.10,-282.92L-114.12,-257.11L-123.96,-215.32L-145.36,-180.66L-164.04,-176.24L-180.02,-202.05L-170.18,-243.84ZM-22.20,-160.48L-12.36,-202.27L-16.78,-220.96L-37.68,-225.88L-47.02,-223.66L-51.94,-202.77L-49.73,-193.43L-28.83,-188.51L-33.75,-167.61L-52.44,-163.19L-50.22,-153.85ZM116.22,-242.57L127.55,-403.09L151.15,-428.41L76.42,-410.72L99.52,-396.46L88.19,-235.94L64.59,-210.62L139.32,-228.31ZM180.89,-386.12L183.10,-376.78L211.63,-422.99L209.42,-432.34L197.86,-439.47L188.52,-437.26L181.39,-425.70ZM362.31,-369.87L376.57,-392.98L393.05,-406.74L404.60,-399.61L377.79,-304.48L380.00,-295.14L391.55,-288.01L410.24,-292.43L426.71,-306.19L462.36,-363.96L450.81,-371.09L415.16,-313.32L405.82,-311.11L434.84,-396.90L428.20,-424.93L397.97,-427.64L372.15,-411.66L357.89,-388.55L353.47,-407.24L332.57,-412.16L306.76,-396.18L285.37,-361.52L290.29,-382.42L288.07,-391.76L276.52,-398.89L250.71,-382.92L215.05,-325.15L226.61,-318.02L262.26,-375.79L271.60,-378.00L239.87,-261.97L251.43,-254.84L270.11,-259.26L289.79,-342.84L311.18,-377.50L327.65,-391.26L339.21,-384.13L314.61,-279.66L326.16,-272.53L344.84,-276.95ZM-566.08,167.52L-554.74,7.00L-540.48,-16.11L-605.87,-0.63L-582.77,13.63L-594.10,174.15L-617.70,199.47L-542.97,181.78ZM-449.55,159.67L-495.26,91.57L-539.27,72.39L-447.06,-38.22L-512.46,-22.74L-489.35,-8.48L-557.95,76.81L-555.74,86.15L-521.08,107.55L-491.34,149.83L-456.68,171.23ZM-448.56,80.52L-437.00,87.65L-401.35,29.88L-392.01,27.67L-423.74,143.70L-412.18,150.83L-393.50,146.41L-373.82,62.83L-350.22,37.51L-322.19,30.88L-319.48,0.64L-340.38,-4.28L-356.85,9.48L-376.03,53.48L-385.37,55.70L-373.32,23.25L-375.53,13.91L-387.09,6.78L-412.90,22.75ZM-242.04,-47.29L-232.70,-49.50L-227.78,-70.39L-229.99,-79.73L-250.88,-84.65L-260.22,-82.44L-265.14,-61.55L-262.93,-52.21ZM-327.11,51.77L-315.56,58.90L-279.90,1.14L-270.56,-1.07L-304.50,105.61L-302.29,114.95L-290.74,122.08L-272.05,117.66L-255.58,103.90L-219.93,46.13L-231.48,39.00L-267.13,96.77L-276.48,98.98L-242.54,-7.71L-244.75,-17.05L-265.64,-21.97L-291.46,-5.99ZM-190.19,88.42L-196.82,60.40L-208.37,53.26L-224.85,67.03L-218.21,95.05L-197.32,99.97L-178.64,95.55L-152.82,79.58L-138.56,56.47L-142.98,37.79L-163.38,-6.71L-167.80,-25.40L-151.33,-39.16L-144.69,-11.13L-133.14,-4.00L-116.67,-17.77L-123.30,-45.79L-153.54,-48.50L-188.70,-30.32L-193.61,-9.42L-189.19,9.26L-171.01,44.42L-166.58,63.10L-180.85,86.21ZM-70.95,50.34L-46.36,-54.14L-18.33,-60.77L-20.54,-70.11L-48.57,-63.48L-38.73,-105.27L-57.41,-100.85L-60.12,-70.61L-76.59,-56.85L-95.28,-52.43L-93.06,-43.08L-74.38,-47.51L-98.98,56.97L-96.77,66.31L-85.22,73.44L-66.53,69.02L-50.06,55.26L-14.41,-2.51L-25.96,-9.64L-61.61,48.12ZM75.59,-122.46L84.93,-124.67L89.85,-145.57L87.64,-154.91L66.74,-159.83L57.40,-157.62L52.48,-136.72L54.69,-127.38ZM-9.49,-23.40L2.07,-16.27L37.72,-74.04L47.06,-76.25L13.12,30.44L15.33,39.78L26.89,46.91L45.57,42.49L62.04,28.72L97.70,-29.04L86.14,-36.17L50.49,21.59L41.15,23.80L75.09,-82.88L72.88,-92.22L51.98,-97.14L26.17,-81.17ZM231.69,-129.81L220.14,-136.94L208.09,-104.50L194.32,-120.97L154.74,-121.47L116.88,-73.04L109.25,-21.91L127.44,13.25L148.33,18.16L167.02,13.74L188.41,-20.92L192.83,-2.23L204.38,4.90L230.20,-11.08L265.85,-68.84L254.30,-75.97L218.64,-18.21L209.30,-16.00ZM162.59,-4.94L153.25,-2.73L137.28,-28.54L147.12,-70.33L168.51,-104.99L187.19,-109.42L200.96,-92.94L203.17,-83.60L183.99,-39.60ZM261.43,-87.53L272.98,-80.39L308.64,-138.16L317.98,-140.37L286.25,-24.34L297.80,-17.21L316.49,-21.63L336.17,-105.21L357.56,-139.87L374.03,-153.64L385.58,-146.51L358.77,-51.37L360.98,-42.03L372.54,-34.90L391.22,-39.32L407.69,-53.09L443.35,-110.85L431.80,-117.98L396.14,-60.22L386.80,-58.01L415.82,-143.80L409.19,-171.82L378.95,-174.53L353.14,-158.56L331.74,-123.90L336.66,-144.79L334.45,-154.13L322.90,-161.27L297.08,-145.29ZM-559.50,236.99L-536.39,251.26L-547.72,411.78L-561.99,434.89L-468.57,412.78L-426.28,383.04L-407.10,339.04L-425.28,303.88L-455.52,301.17L-439.05,287.41L-417.66,252.75L-435.84,217.59L-484.76,219.31ZM-519.70,405.15L-508.37,244.62L-501.24,233.07L-482.55,228.65L-461.66,233.57L-455.02,261.59L-467.07,294.04L-492.89,310.02L-511.57,314.44L-509.36,323.78L-481.34,317.15L-460.44,322.07L-444.47,347.88L-456.52,380.33L-489.46,407.86L-508.15,412.28ZM-317.11,219.09L-307.76,216.87L-302.84,195.98L-305.06,186.64L-325.95,181.72L-335.29,183.93L-340.21,204.82L-338.00,214.17ZM-402.18,318.14L-390.63,325.27L-354.97,267.51L-345.63,265.30L-370.73,409.35L-380.57,451.14L-389.91,453.35L-394.33,434.67L-405.88,427.54L-422.36,441.30L-415.72,469.33L-385.49,472.03L-369.01,458.27L-347.62,423.61L-317.60,258.66L-319.81,249.32L-331.37,242.19L-366.52,260.38ZM-244.36,359.71L-225.68,355.29L-185.60,316.21L-170.84,253.52L-198.37,220.58L-199.83,220.68L-186.32,188.13L-195.66,190.34L-208.26,220.45L-237.95,220.08L-278.02,259.16L-292.78,321.85L-265.26,354.79L-263.98,354.98L-277.31,387.24L-267.96,385.03L-256.38,356.88ZM-233.53,238.76L-214.84,234.34L-214.39,235.22L-254.37,331.99L-264.76,315.21L-254.92,273.42ZM-248.78,341.03L-249.24,340.15L-209.25,243.38L-198.87,260.16L-208.71,301.95L-230.10,336.61ZM-177.97,265.08L-166.42,272.21L-130.77,214.44L-121.42,212.23L-153.15,328.26L-141.60,335.39L-122.92,330.97L-103.24,247.39L-79.63,222.07L-51.61,215.44L-48.90,185.20L-69.79,180.28L-86.27,194.05L-105.45,238.05L-114.79,240.26L-102.74,207.81L-104.95,198.47L-116.50,191.34L-142.32,207.31ZM-56.53,236.33L-44.97,243.46L-9.32,185.70L0.02,183.49L-31.71,299.52L-20.16,306.65L-1.47,302.22L18.21,218.64L39.60,183.99L56.07,170.22L67.63,177.35L40.82,272.49L43.03,281.83L54.58,288.96L73.26,284.54L89.74,270.77L125.39,213.01L113.84,205.88L78.18,263.64L68.84,265.85L97.86,180.06L91.23,152.04L60.99,149.33L35.18,165.30L13.79,199.96L18.71,179.07L16.49,169.72L4.94,162.59L-20.87,178.57ZM259.38,112.24L247.83,105.11L235.78,137.55L222.02,121.08L182.44,120.58L144.57,169.01L136.94,220.14L155.13,255.29L176.02,260.21L194.71,255.79L216.10,221.13L220.52,239.82L232.08,246.95L257.89,230.97L293.54,173.21L281.99,166.08L246.34,223.84L237.00,226.05ZM190.29,237.11L180.94,239.32L164.97,213.50L174.81,171.71L196.20,137.06L214.89,132.63L228.65,149.11L230.86,158.45L211.68,202.45ZM289.12,154.52L300.68,161.65L336.33,103.89L345.67,101.68L313.94,217.71L325.49,224.84L344.18,220.42L363.86,136.84L387.46,111.52L415.49,104.89L418.20,74.65L397.30,69.73L380.83,83.49L361.65,127.49L352.31,129.70L364.36,97.26L362.14,87.91L350.59,80.78L324.78,96.76ZM521.68,178.40L531.02,176.19L547.49,162.43L583.14,104.67L571.59,97.53L535.94,155.30L526.59,157.51L568.66,-39.89L503.27,-24.41L505.48,-15.07L533.51,-21.70L525.38,69.01L511.62,52.54L472.04,52.04L434.17,100.46L426.54,151.59L444.73,186.75L465.62,191.67L484.31,187.25L505.70,152.59L510.12,171.27ZM479.89,168.57L470.54,170.78L454.57,144.96L464.41,103.17L485.80,68.51L504.48,64.09L518.25,80.56L520.46,89.91L501.28,133.91Z" fill="#ffffff" stroke="#000000"/>
    <path d="M-671.81,-190.82L-744.62,-169.05L-720.98,-156.28L-722.95,2.95L-744.81,29.32L-671.99,7.55L-695.64,-5.21L-696.48,-74.37L-690.10,-86.19L-599.08,-113.40L-596.36,-104.30L-595.52,-35.14L-617.38,-8.78L-544.57,-30.55L-568.21,-43.31L-566.24,-202.54L-544.38,-228.91L-617.19,-207.14L-593.55,-194.38L-595.43,-134.33L-601.81,-122.50L-692.83,-95.29L-695.55,-104.39L-693.67,-164.45ZM-423.43,-156.00L-428.87,-174.21L-443.41,-189.69L-482.54,-187.91L-519.89,-146.99L-530.87,-84.22L-510.88,-50.53L-489.96,-46.87L-471.75,-52.31L-456.27,-66.86L-430.75,-114.15L-442.57,-120.53L-468.09,-73.24L-486.30,-67.80L-503.56,-92.38L-496.24,-134.23L-477.10,-169.70L-458.90,-175.14L-450.73,-147.84L-466.22,-133.29L-493.52,-125.13L-490.80,-116.03L-445.29,-129.63ZM-377.07,-100.45L-346.86,-297.88L-410.57,-278.83L-407.85,-269.73L-380.54,-277.89L-404.38,-92.29L-401.66,-83.19L-380.73,-79.53L-356.15,-96.79L-324.24,-155.91L-336.07,-162.29L-367.97,-103.17ZM-286.05,-127.66L-255.84,-325.09L-319.55,-306.04L-316.83,-296.94L-289.52,-305.10L-313.36,-119.50L-310.64,-110.40L-289.71,-106.74L-265.13,-124.00L-233.22,-183.12L-245.05,-189.50L-276.95,-130.38ZM-171.39,-142.11L-153.18,-147.56L-115.84,-188.47L-104.86,-251.24L-133.95,-282.21L-173.08,-280.42L-210.42,-239.51L-221.40,-176.74L-192.31,-145.77ZM-167.63,-262.22L-149.43,-267.66L-132.16,-243.08L-139.48,-201.23L-158.63,-165.76L-176.83,-160.32L-194.10,-184.90L-186.78,-226.75ZM-35.80,-152.90L-28.48,-194.75L-33.92,-212.96L-54.85,-216.62L-63.95,-213.90L-67.61,-192.97L-64.89,-183.87L-43.96,-180.21L-47.62,-159.28L-65.82,-153.84L-63.10,-144.74ZM96.23,-241.95L98.20,-401.19L120.06,-427.56L47.25,-405.79L70.89,-393.02L68.92,-233.79L47.06,-207.42L119.87,-229.19ZM151.87,-387.49L154.59,-378.39L180.12,-425.68L177.40,-434.78L165.57,-441.16L156.47,-438.44L150.09,-426.62ZM332.03,-381.86L344.80,-405.50L360.28,-420.05L372.10,-413.67L351.08,-318.14L353.80,-309.04L365.63,-302.66L383.83,-308.10L399.31,-322.65L431.22,-381.76L419.39,-388.14L387.49,-329.03L378.39,-326.31L402.13,-412.73L393.97,-440.03L363.94,-440.97L339.35,-423.71L326.59,-400.06L321.15,-418.26L300.22,-421.92L275.64,-404.66L256.50,-369.19L260.16,-390.11L257.44,-399.22L245.61,-405.60L221.03,-388.33L189.12,-329.22L200.95,-322.84L232.85,-381.95L241.95,-384.67L217.27,-268.22L229.10,-261.84L247.30,-267.29L261.94,-350.99L281.08,-386.46L296.57,-401.00L308.39,-394.62L290.09,-289.99L301.91,-283.61L320.12,-289.06ZM-554.25,202.39L-552.28,43.15L-539.52,19.51L-603.23,38.55L-579.59,51.32L-581.56,210.55L-603.42,236.92L-530.61,215.15ZM-439.59,187.94L-488.66,123.29L-533.23,106.87L-448.50,-7.71L-512.21,11.34L-488.57,24.10L-551.44,112.31L-548.72,121.41L-513.25,140.55L-481.44,180.62L-445.97,199.76ZM-443.15,109.68L-431.33,116.06L-399.42,56.95L-390.32,54.23L-415.00,170.67L-403.18,177.05L-384.97,171.61L-370.34,87.91L-348.47,61.54L-321.17,53.38L-320.23,23.35L-341.15,19.69L-356.64,34.24L-373.06,78.81L-382.16,81.53L-372.12,48.78L-374.84,39.68L-386.66,33.30L-411.25,50.57ZM-246.47,-28.44L-237.37,-31.16L-233.71,-52.09L-236.43,-61.19L-257.36,-64.85L-266.46,-62.13L-270.12,-41.20L-267.40,-32.10ZM-324.83,74.31L-313.00,80.69L-281.10,21.57L-272.00,18.85L-299.40,126.20L-296.68,135.30L-284.85,141.68L-266.65,136.24L-251.17,121.69L-219.26,62.58L-231.09,56.20L-262.99,115.31L-272.09,118.03L-244.69,10.69L-247.41,1.58L-268.34,-2.07L-292.92,15.19ZM-187.45,102.64L-195.62,75.34L-207.44,68.96L-222.92,83.50L-214.76,110.81L-193.83,114.47L-175.63,109.03L-151.05,91.76L-138.28,68.11L-143.73,49.91L-166.43,7.12L-171.88,-11.08L-156.39,-25.63L-148.23,1.68L-136.41,8.06L-120.92,-6.48L-129.09,-33.79L-159.11,-34.73L-192.80,-14.74L-196.46,6.18L-191.02,24.39L-171.03,58.07L-165.59,76.28L-178.35,99.92ZM-71.85,58.17L-53.55,-46.46L-26.25,-54.62L-28.97,-63.72L-56.27,-55.56L-48.95,-97.41L-67.16,-91.97L-68.10,-61.94L-83.58,-47.40L-101.78,-41.95L-99.06,-32.85L-80.86,-38.29L-99.16,66.33L-96.43,75.43L-84.61,81.81L-66.41,76.37L-50.92,61.83L-19.02,2.71L-30.84,-3.67L-62.75,55.45ZM62.99,-120.96L72.09,-123.68L75.75,-144.61L73.03,-153.71L52.11,-157.37L43.00,-154.65L39.35,-133.72L42.07,-124.62ZM-15.36,-18.21L-3.54,-11.83L28.37,-70.95L37.47,-73.67L10.07,33.68L12.79,42.78L24.61,49.16L42.82,43.72L58.30,29.17L90.20,-29.94L78.38,-36.32L46.48,22.79L37.37,25.51L64.77,-81.83L62.05,-90.93L41.13,-94.59L16.54,-77.33ZM216.79,-137.19L204.96,-143.57L194.92,-110.83L180.38,-126.31L141.25,-124.53L106.62,-74.51L102.03,-23.56L122.01,10.13L142.94,13.78L161.14,8.34L180.28,-27.13L185.73,-8.92L197.55,-2.54L222.13,-19.81L254.04,-78.92L242.21,-85.30L210.31,-26.19L201.21,-23.47ZM155.70,-9.86L146.60,-7.14L129.33,-31.72L136.65,-73.57L155.79,-109.04L174.00,-114.49L188.54,-99.00L191.26,-89.90L174.84,-45.33ZM248.60,-97.13L260.42,-90.75L292.32,-149.86L301.42,-152.58L276.75,-36.13L288.57,-29.75L306.77,-35.20L321.41,-118.90L340.55,-154.37L356.04,-168.91L367.86,-162.53L346.84,-67.01L349.56,-57.90L361.38,-51.52L379.59,-56.97L395.07,-71.51L426.97,-130.62L415.15,-137.01L383.25,-77.89L374.15,-75.17L397.89,-161.59L389.72,-188.90L359.70,-189.83L335.11,-172.57L315.97,-137.10L319.63,-158.02L316.91,-167.13L305.08,-173.51L280.50,-156.24ZM-543.76,270.64L-520.12,283.41L-522.09,442.64L-534.85,466.29L-443.83,439.08L-403.76,407.27L-387.34,362.70L-407.33,329.01L-437.35,328.07L-421.87,313.53L-402.73,278.06L-422.72,244.37L-470.95,248.87ZM-494.78,434.48L-492.81,275.24L-486.43,263.42L-468.23,257.98L-447.30,261.64L-439.14,288.94L-449.18,321.69L-473.76,338.96L-491.97,344.40L-489.24,353.50L-461.94,345.34L-441.01,349.00L-423.75,373.58L-433.79,406.33L-464.75,435.42L-482.96,440.86ZM-305.33,239.02L-296.23,236.30L-292.57,215.38L-295.29,206.27L-316.21,202.61L-325.32,205.34L-328.97,226.26L-326.25,235.36ZM-383.68,341.77L-371.86,348.15L-339.95,289.04L-330.85,286.32L-347.37,430.07L-354.69,471.92L-363.79,474.64L-369.23,456.44L-381.05,450.06L-396.54,464.60L-388.37,491.91L-358.35,492.84L-342.86,478.30L-323.72,442.83L-303.55,278.15L-306.27,269.05L-318.09,262.67L-351.78,282.66ZM-225.38,373.77L-207.18,368.33L-169.83,327.42L-158.85,264.64L-187.94,233.67L-189.38,233.86L-177.90,200.93L-187.00,203.65L-197.72,234.12L-227.07,235.46L-264.42,276.37L-275.40,339.14L-246.31,370.11L-245.03,370.22L-256.35,402.86L-247.25,400.14L-237.41,371.66ZM-221.63,253.66L-203.42,248.22L-202.92,249.06L-236.87,346.96L-248.09,330.98L-240.77,289.13ZM-230.82,355.57L-231.32,354.72L-197.38,256.82L-186.16,272.80L-193.48,314.65L-212.62,350.12ZM-165.23,276.46L-153.41,282.84L-121.51,223.73L-112.41,221.01L-137.08,337.46L-125.26,343.84L-107.06,338.39L-92.42,254.69L-70.56,228.33L-43.25,220.16L-42.31,190.14L-63.24,186.48L-78.72,201.02L-95.14,245.59L-104.24,248.31L-94.20,215.57L-96.92,206.46L-108.75,200.08L-133.33,217.35ZM-46.91,241.09L-35.09,247.47L-3.18,188.35L5.92,185.63L-18.76,302.08L-6.94,308.46L11.27,303.02L25.91,219.32L45.05,183.85L60.53,169.31L72.35,175.69L51.34,271.21L54.06,280.31L65.88,286.69L84.08,281.25L99.57,266.71L131.47,207.59L119.65,201.21L87.74,260.32L78.64,263.05L102.38,176.62L94.22,149.32L64.19,148.38L39.61,165.65L20.46,201.12L24.12,180.19L21.40,171.09L9.58,164.71L-15.00,181.97ZM258.05,100.34L246.23,93.96L236.19,126.71L221.65,111.22L182.52,113.01L147.89,163.02L143.29,213.97L163.28,247.66L184.20,251.32L202.41,245.87L221.55,210.41L226.99,228.61L238.82,234.99L263.40,217.72L295.31,158.61L283.48,152.23L251.58,211.34L242.48,214.07ZM196.97,227.67L187.86,230.39L170.60,205.81L177.92,163.96L197.06,128.49L215.26,123.05L229.81,138.53L232.53,147.63L216.11,192.20ZM289.86,140.41L301.69,146.79L333.59,87.67L342.69,84.95L318.01,201.40L329.84,207.78L348.04,202.34L362.68,118.64L384.54,92.27L411.85,84.11L412.79,54.08L391.86,50.42L376.38,64.96L359.96,109.53L350.86,112.26L360.90,79.51L358.17,70.41L346.35,64.02L321.77,81.29ZM520.98,150.63L530.08,147.91L545.56,133.37L577.47,74.25L565.64,67.87L533.74,126.99L524.64,129.71L554.85,-67.72L491.14,-48.67L493.86,-39.57L521.17,-47.73L518.35,42.35L503.81,26.87L464.68,28.65L430.05,78.66L425.45,129.62L445.44,163.30L466.37,166.96L484.57,161.52L503.71,126.05L509.15,144.25ZM479.13,143.32L470.02,146.04L452.76,121.45L460.08,79.60L479.22,44.13L497.42,38.69L511.97,54.17L514.69,63.27L498.27,107.85Z" fill="#ffffff" stroke="#000000"/>
    <path d="M-678.91,-145.31L-749.59,-119.62L-725.50,-108.38L-718.30,49.03L-738.38,76.33L-667.70,50.65L-691.79,39.40L-696.60,-28.86L-690.98,-40.91L-602.63,-73.02L-599.42,-64.19L-594.61,4.08L-614.69,31.38L-544.02,5.69L-568.11,-5.55L-575.31,-162.96L-555.23,-190.26L-625.91,-164.58L-601.82,-153.33L-600.22,-93.90L-605.84,-81.85L-694.19,-49.74L-697.40,-58.58L-699.00,-118.01ZM-431.56,-125.19L-437.99,-142.86L-453.24,-157.32L-491.79,-153.31L-526.33,-110.75L-533.57,-48.11L-511.89,-15.99L-491.01,-13.57L-473.34,-19.99L-458.88,-35.25L-436.39,-83.43L-448.43,-89.06L-470.93,-40.87L-488.60,-34.45L-507.07,-57.75L-502.24,-99.51L-485.37,-135.64L-467.70,-142.06L-458.07,-115.56L-472.53,-100.30L-499.03,-90.67L-495.82,-81.84L-451.65,-97.89ZM-382.58,-72.98L-364.08,-269.74L-425.92,-247.26L-422.71,-238.43L-396.21,-248.06L-409.09,-63.35L-405.88,-54.52L-385.00,-52.10L-361.70,-70.57L-333.58,-130.80L-345.63,-136.42L-373.75,-76.19ZM-294.24,-105.09L-275.73,-301.85L-337.58,-279.37L-334.37,-270.54L-307.86,-280.17L-320.74,-95.46L-317.53,-86.63L-296.65,-84.21L-273.36,-102.68L-245.24,-162.91L-257.28,-168.53L-285.40,-108.30ZM-181.80,-125.96L-164.13,-132.38L-129.59,-174.94L-122.35,-237.58L-152.87,-266.49L-191.42,-262.48L-225.96,-219.92L-233.19,-157.28L-202.68,-128.37ZM-184.99,-244.81L-167.32,-251.24L-148.86,-227.94L-153.68,-186.18L-170.55,-150.05L-188.22,-143.62L-206.69,-166.92L-201.86,-208.68ZM-48.48,-144.40L-43.66,-186.16L-50.08,-203.83L-70.96,-206.25L-79.79,-203.04L-82.21,-182.16L-79.00,-173.32L-58.12,-170.91L-60.53,-150.03L-78.20,-143.61L-74.99,-134.77ZM76.82,-239.95L69.61,-397.36L89.70,-424.66L19.02,-398.98L43.11,-387.73L50.31,-230.32L30.23,-203.02L100.91,-228.71ZM123.42,-386.91L126.63,-378.08L149.12,-426.26L145.91,-435.09L133.87,-440.72L125.03,-437.51L119.41,-425.46ZM301.71,-391.70L312.95,-415.79L327.41,-431.05L339.46,-425.42L324.18,-329.86L327.39,-321.02L339.44,-315.40L357.11,-321.82L371.57,-337.08L399.69,-397.31L387.64,-402.93L359.52,-342.70L350.69,-339.49L369.17,-426.22L359.54,-452.73L329.83,-451.93L306.53,-433.46L295.29,-409.37L288.86,-427.04L267.98,-429.45L244.69,-410.98L227.82,-374.85L230.23,-395.73L227.02,-404.56L214.98,-410.19L191.68,-391.72L163.56,-331.49L175.61,-325.87L203.73,-386.10L212.56,-389.31L194.88,-272.86L206.92,-267.24L224.59,-273.66L234.24,-357.18L251.11,-393.32L265.57,-408.57L277.62,-402.95L265.55,-298.55L277.60,-292.92L295.27,-299.35ZM-540.20,236.34L-547.40,78.94L-536.16,54.84L-598.00,77.32L-573.91,88.57L-566.70,245.98L-586.79,273.28L-516.11,247.59ZM-427.76,215.48L-479.96,154.44L-524.93,140.78L-447.81,22.73L-509.65,45.21L-485.56,56.46L-542.60,147.20L-539.38,156.03L-503.25,172.90L-469.52,210.66L-433.39,227.53ZM-435.78,138.38L-423.74,144.01L-395.62,83.78L-386.78,80.57L-404.47,197.01L-392.43,202.64L-374.76,196.22L-365.11,112.69L-345.02,85.39L-318.52,75.76L-319.32,46.05L-340.20,43.63L-354.66,58.89L-368.32,103.86L-377.15,107.07L-369.12,74.15L-372.33,65.31L-384.37,59.69L-407.66,78.15ZM-249.44,-9.36L-240.61,-12.57L-238.19,-33.45L-241.40,-42.28L-262.28,-44.70L-271.12,-41.48L-273.53,-20.60L-270.32,-11.77ZM-320.93,96.64L-308.89,102.26L-280.77,42.04L-271.93,38.83L-292.83,146.44L-289.62,155.27L-277.58,160.90L-259.91,154.47L-245.45,139.22L-217.33,78.99L-229.38,73.37L-257.49,133.59L-266.33,136.80L-245.43,29.19L-248.64,20.36L-269.52,17.95L-292.81,36.41ZM-183.61,116.74L-193.24,90.24L-205.29,84.61L-219.74,99.87L-210.11,126.37L-189.23,128.79L-171.56,122.36L-148.27,103.90L-137.02,79.81L-143.44,62.14L-168.33,21.17L-174.75,3.51L-160.30,-11.75L-150.66,14.75L-138.62,20.38L-124.16,5.12L-133.79,-21.38L-163.51,-20.59L-195.63,1.09L-198.05,21.97L-191.63,39.64L-169.95,71.77L-163.53,89.44L-174.77,113.53ZM-71.97,66.16L-59.90,-38.24L-33.40,-47.87L-36.61,-56.70L-63.12,-47.07L-58.29,-88.83L-75.96,-82.41L-75.16,-52.70L-89.62,-37.44L-107.29,-31.02L-104.08,-22.18L-86.41,-28.60L-98.47,75.80L-95.26,84.63L-83.22,90.25L-65.55,83.83L-51.09,68.58L-22.97,8.35L-35.02,2.72L-63.13,62.95ZM50.94,-118.53L59.77,-121.74L62.18,-142.62L58.97,-151.45L38.09,-153.87L29.26,-150.66L26.84,-129.78L30.06,-120.94ZM-20.56,-12.53L-8.51,-6.91L19.61,-67.14L28.44,-70.35L7.54,37.26L10.75,46.10L22.80,51.72L40.47,45.30L54.93,30.04L83.05,-30.18L71.00,-35.81L42.88,24.42L34.05,27.63L54.94,-79.98L51.73,-88.81L30.85,-91.23L7.56,-72.76ZM201.92,-143.40L189.88,-149.02L181.84,-116.10L166.58,-130.56L128.03,-126.55L96.71,-75.15L95.09,-24.56L116.77,7.57L137.65,9.98L155.32,3.56L172.19,-32.58L178.61,-14.91L190.66,-9.28L213.95,-27.75L242.07,-87.98L230.02,-93.60L201.90,-33.38L193.07,-30.16ZM148.90,-14.11L140.06,-10.90L121.59,-34.19L126.42,-75.95L143.29,-112.09L160.96,-118.51L176.22,-104.05L179.43,-95.22L165.77,-50.25ZM235.65,-105.65L247.69,-100.03L275.81,-160.25L284.64,-163.46L266.96,-47.02L279.00,-41.39L296.67,-47.82L306.32,-131.34L323.19,-167.47L337.65,-182.73L349.70,-177.11L334.42,-81.54L337.63,-72.71L349.68,-67.08L367.35,-73.50L381.81,-88.76L409.92,-148.99L397.88,-154.61L369.76,-94.38L360.93,-91.17L379.41,-177.90L369.78,-204.41L340.06,-203.61L316.77,-185.14L299.90,-149.01L302.31,-169.89L299.10,-178.72L287.06,-184.34L263.76,-165.88ZM-525.92,303.16L-501.83,314.41L-494.62,471.82L-505.87,495.91L-417.53,463.80L-379.77,430.08L-366.11,385.11L-387.79,352.98L-417.51,353.78L-403.05,338.52L-386.18,302.38L-407.86,270.26L-455.24,277.48ZM-468.12,462.19L-475.32,304.78L-469.70,292.73L-452.03,286.31L-431.15,288.72L-421.52,315.23L-429.55,348.15L-452.85,366.62L-470.51,373.04L-467.30,381.88L-440.80,372.24L-419.92,374.66L-401.45,397.95L-409.49,430.87L-438.41,461.39L-456.07,467.81ZM-292.21,258.23L-283.37,255.02L-280.96,234.14L-284.17,225.30L-305.05,222.89L-313.89,226.10L-316.30,246.98L-313.09,255.82ZM-363.70,364.22L-351.66,369.85L-323.54,309.62L-314.70,306.41L-322.76,449.36L-327.58,491.12L-336.42,494.33L-342.84,476.66L-354.88,471.04L-369.34,486.29L-359.71,512.80L-330.00,512.00L-315.54,496.74L-298.67,460.61L-288.20,296.78L-291.41,287.94L-303.46,282.32L-335.58,304.00ZM-205.50,386.74L-187.83,380.32L-153.29,337.76L-146.05,275.12L-176.56,246.20L-177.97,246.46L-168.52,213.27L-177.36,216.49L-186.20,247.20L-215.11,250.21L-249.65,292.77L-256.89,355.41L-226.38,384.32L-225.11,384.37L-234.41,417.25L-225.58,414.04L-217.50,385.35ZM-208.69,267.88L-191.02,261.46L-190.48,262.26L-218.38,360.92L-230.38,345.78L-225.56,304.02ZM-211.92,369.07L-212.46,368.27L-184.56,269.61L-172.55,284.75L-177.38,326.51L-194.25,362.65ZM-151.67,287.16L-139.63,292.79L-111.51,232.56L-102.67,229.35L-120.36,345.79L-108.31,351.42L-90.65,345.00L-80.99,261.47L-60.91,234.17L-34.41,224.54L-35.21,194.83L-56.09,192.41L-70.55,207.67L-84.21,252.64L-93.04,255.85L-85.00,222.93L-88.21,214.09L-100.26,208.47L-123.55,226.93ZM-36.82,245.42L-24.78,251.04L3.34,190.82L12.18,187.61L-5.51,304.05L6.53,309.67L24.20,303.25L33.85,219.73L50.73,183.60L65.18,168.34L77.23,173.96L61.95,269.53L65.17,278.36L77.21,283.99L94.88,277.57L109.34,262.31L137.46,202.08L125.41,196.46L97.29,256.69L88.46,259.90L106.94,173.17L97.31,146.66L67.60,147.46L44.30,165.93L27.43,202.06L29.85,181.18L26.63,172.35L14.59,166.73L-8.70,185.19ZM256.33,88.86L244.29,83.24L236.25,116.17L221.00,101.71L182.45,105.72L151.12,157.11L149.50,207.71L171.18,239.83L192.06,242.25L209.73,235.82L226.60,199.69L233.02,217.36L245.07,222.98L268.36,204.51L296.48,144.28L284.43,138.66L256.32,198.89L247.48,202.10ZM203.31,218.15L194.47,221.37L176.01,198.07L180.83,156.31L197.70,120.18L215.37,113.75L230.63,128.21L233.84,137.05L220.18,182.02ZM290.06,126.62L302.10,132.24L330.22,72.01L339.06,68.80L321.37,185.25L333.41,190.87L351.08,184.45L360.73,100.93L380.82,73.63L407.32,63.99L406.52,34.28L385.64,31.87L371.18,47.12L357.52,92.09L348.69,95.30L356.73,62.38L353.51,53.54L341.47,47.92L318.18,66.39ZM518.94,123.44L527.78,120.23L542.23,104.97L570.35,44.75L558.31,39.12L530.19,99.35L521.35,102.56L539.86,-94.20L478.01,-71.72L481.23,-62.88L507.73,-72.52L510.12,16.63L494.87,2.17L456.32,6.18L424.99,57.57L423.37,108.17L445.05,140.29L465.93,142.71L483.60,136.28L500.47,100.15L506.90,117.82ZM477.18,118.62L468.35,121.83L449.88,98.53L454.70,56.77L471.57,20.64L489.24,14.21L504.50,28.67L507.71,37.51L494.05,82.48Z" fill="#ffffff" stroke="#000000"/>
    <path d="M-682.93,-99.75L-751.26,-70.32L-726.82,-60.59L-710.66,94.47L-728.93,122.58L-660.60,93.15L-685.04,83.43L-693.71,16.28L-688.84,4.06L-603.43,-32.73L-599.75,-24.19L-591.08,42.96L-609.35,71.08L-541.02,41.65L-565.46,31.92L-581.61,-123.13L-563.35,-151.25L-631.68,-121.82L-607.24,-112.10L-602.25,-53.49L-607.11,-41.27L-692.52,-4.48L-696.20,-13.02L-701.19,-71.63ZM-437.47,-94.09L-444.82,-111.17L-460.72,-124.58L-498.57,-118.40L-530.24,-74.38L-533.79,-12.10L-510.53,18.39L-489.77,19.57L-472.69,12.22L-459.28,-3.68L-439.83,-52.57L-452.05,-57.43L-471.50,-8.55L-488.59,-1.19L-508.16,-23.13L-505.80,-64.66L-491.21,-101.32L-474.13,-108.68L-463.09,-83.05L-476.49,-67.15L-502.12,-56.12L-498.44,-47.57L-455.73,-65.97ZM-386.09,-45.34L-379.12,-240.73L-438.91,-214.98L-435.23,-206.44L-409.60,-217.48L-411.71,-34.30L-408.03,-25.76L-387.27,-24.57L-365.33,-44.15L-341.01,-105.25L-353.24,-110.12L-377.55,-49.01ZM-300.67,-82.13L-293.70,-277.52L-353.49,-251.77L-349.81,-243.23L-324.19,-254.27L-326.30,-71.09L-322.62,-62.55L-301.86,-61.36L-279.91,-80.94L-255.60,-142.04L-267.82,-146.91L-292.13,-85.80ZM-190.82,-109.19L-173.74,-116.55L-142.07,-160.57L-138.52,-222.85L-170.32,-249.66L-208.16,-243.49L-239.83,-199.47L-243.38,-137.18L-211.58,-110.37ZM-200.80,-226.40L-183.72,-233.76L-164.14,-211.82L-166.51,-170.29L-181.10,-133.63L-198.18,-126.27L-217.76,-148.22L-215.39,-189.74ZM-60.20,-135.07L-57.84,-176.60L-65.20,-193.68L-85.96,-194.86L-94.50,-191.18L-95.68,-170.42L-92.00,-161.88L-71.24,-160.70L-72.42,-139.93L-89.51,-132.58L-85.83,-124.04ZM58.06,-236.64L41.91,-391.70L60.17,-419.82L-8.16,-390.39L16.28,-380.66L32.44,-225.61L14.17,-197.49L82.50,-226.92ZM95.65,-384.47L99.33,-375.93L118.78,-424.81L115.10,-433.35L102.88,-438.21L94.34,-434.54L89.48,-422.31ZM271.47,-399.44L281.19,-423.88L294.60,-439.78L306.82,-434.92L297.22,-339.65L300.90,-331.11L313.12,-326.25L330.20,-333.61L343.61,-349.51L367.92,-410.61L355.70,-415.47L331.39,-354.37L322.85,-350.69L336.12,-437.42L325.08,-463.04L295.78,-460.55L273.84,-440.97L264.11,-416.53L256.75,-433.61L235.99,-434.79L214.05,-415.21L199.46,-378.55L200.64,-399.31L196.96,-407.86L184.74,-412.72L162.80,-393.14L138.49,-332.04L150.71,-327.18L175.02,-388.28L183.56,-391.96L172.78,-275.93L185.00,-271.07L202.08,-278.42L206.82,-361.47L221.40,-398.13L234.81,-414.03L247.03,-409.17L241.11,-305.36L253.33,-300.50L270.41,-307.86ZM-524.00,269.24L-540.15,114.18L-530.43,89.74L-590.22,115.49L-565.78,125.22L-549.62,280.28L-567.89,308.40L-499.55,278.96ZM-414.14,242.17L-469.20,184.88L-514.40,173.97L-445.01,52.95L-504.80,78.70L-480.36,88.43L-531.48,181.33L-527.80,189.87L-491.14,204.46L-455.66,239.81L-419.00,254.39ZM-426.49,166.49L-414.27,171.35L-389.96,110.25L-381.42,106.57L-392.20,222.60L-379.98,227.46L-362.89,220.10L-358.16,137.05L-339.89,108.93L-314.27,97.90L-316.76,68.59L-337.53,67.41L-350.93,83.31L-361.84,128.51L-370.38,132.19L-364.33,99.21L-368.01,90.67L-380.23,85.81L-402.18,105.38ZM-250.93,9.86L-242.39,6.18L-241.20,-14.58L-244.88,-23.12L-265.64,-24.31L-274.19,-20.63L-275.37,0.13L-271.69,8.68ZM-315.45,118.66L-303.23,123.52L-278.92,62.42L-270.38,58.74L-284.84,166.23L-281.16,174.77L-268.94,179.63L-251.85,172.27L-238.45,156.37L-214.14,95.27L-226.36,90.41L-250.67,151.51L-259.21,155.19L-244.75,47.70L-248.43,39.16L-269.19,37.98L-291.14,57.56ZM-178.66,130.62L-189.70,105.00L-201.92,100.13L-215.32,116.03L-204.29,141.66L-183.52,142.84L-166.44,135.48L-144.50,115.91L-134.77,91.46L-142.13,74.38L-169.07,35.35L-176.42,18.27L-163.02,2.37L-151.98,28.00L-139.76,32.86L-126.36,16.96L-137.40,-8.66L-166.70,-6.17L-197.18,17.09L-198.37,37.85L-191.01,54.93L-167.75,85.42L-160.40,102.50L-170.12,126.94ZM-71.30,74.25L-65.39,-29.56L-39.76,-40.59L-43.44,-49.13L-69.06,-38.10L-66.70,-79.62L-83.78,-72.26L-81.28,-42.96L-94.69,-27.06L-111.77,-19.70L-108.09,-11.16L-91.01,-18.52L-96.93,85.29L-93.25,93.83L-81.03,98.69L-63.94,91.34L-50.54,75.44L-26.23,14.34L-38.45,9.47L-62.76,70.57ZM39.48,-115.23L48.02,-118.91L49.20,-139.67L45.52,-148.21L24.76,-149.39L16.22,-145.71L15.04,-124.95L18.72,-116.41ZM-25.05,-6.43L-12.82,-1.56L11.49,-62.67L20.03,-66.34L5.57,41.14L9.25,49.68L21.47,54.55L38.55,47.19L51.96,31.29L76.27,-29.81L64.05,-34.67L39.74,26.43L31.19,30.11L45.65,-77.38L41.97,-85.92L21.21,-87.11L-0.73,-67.53ZM187.18,-148.47L174.96,-153.33L168.91,-120.35L153.01,-133.75L115.17,-127.58L87.18,-75.01L88.49,-24.95L111.75,5.54L132.51,6.72L149.59,-0.64L164.18,-37.30L171.54,-20.22L183.76,-15.35L205.70,-34.93L230.01,-96.03L217.79,-100.90L193.48,-39.79L184.94,-36.12ZM142.23,-17.72L133.69,-14.04L114.11,-35.99L116.48,-77.51L131.07,-114.17L148.15,-121.53L164.05,-108.13L167.73,-99.58L156.82,-54.38ZM222.65,-113.12L234.88,-108.25L259.19,-169.36L267.73,-173.04L256.95,-57.01L269.17,-52.14L286.25,-59.50L290.99,-142.55L305.57,-179.21L318.98,-195.11L331.20,-190.25L321.60,-94.98L325.28,-86.44L337.50,-81.58L354.58,-88.93L367.99,-104.83L392.30,-165.93L380.08,-170.80L355.77,-109.70L347.23,-106.02L360.50,-192.74L349.46,-218.37L320.16,-215.87L298.21,-196.29L283.63,-159.63L284.81,-180.39L281.13,-188.93L268.91,-193.80L246.97,-174.22ZM-506.05,334.42L-481.61,344.14L-465.45,499.20L-475.18,523.64L-389.76,486.85L-354.41,451.37L-343.50,406.17L-366.76,375.68L-396.07,378.18L-382.66,362.28L-368.07,325.62L-391.33,295.13L-437.72,304.98ZM-439.83,488.16L-455.98,333.10L-451.12,320.88L-434.04,313.53L-413.28,314.71L-402.24,340.33L-408.29,373.32L-430.23,392.89L-447.31,400.25L-443.63,408.79L-418.01,397.76L-397.25,398.94L-377.67,420.88L-383.72,453.87L-410.52,485.67L-427.61,493.02ZM-277.80,276.61L-269.26,272.93L-268.07,252.17L-271.75,243.63L-292.51,242.44L-301.06,246.12L-302.24,266.88L-298.56,275.42ZM-342.32,385.41L-330.10,390.27L-305.79,329.17L-297.25,325.49L-296.99,467.14L-299.36,508.67L-307.90,512.34L-315.26,495.26L-327.48,490.40L-340.88,506.30L-329.84,531.92L-300.54,529.43L-287.14,513.53L-272.55,476.87L-271.62,314.45L-275.30,305.91L-287.52,301.05L-318.01,324.31ZM-184.77,398.55L-167.69,391.20L-136.02,347.18L-132.47,284.89L-164.26,258.08L-165.64,258.42L-158.22,225.10L-166.76,228.78L-173.73,259.63L-202.11,264.26L-233.78,308.28L-237.33,370.56L-205.53,397.37L-204.28,397.34L-211.58,430.35L-203.04,426.67L-196.71,397.87ZM-194.75,281.34L-177.67,273.98L-177.09,274.75L-198.98,373.79L-211.71,359.53L-209.34,318.00ZM-192.13,381.47L-192.71,380.71L-170.82,281.66L-158.09,295.93L-160.46,337.45L-175.04,374.11ZM-137.33,297.11L-125.11,301.97L-100.80,240.87L-92.25,237.19L-103.03,353.22L-90.81,358.08L-73.73,350.73L-69.00,267.68L-50.73,239.56L-25.11,228.52L-27.60,199.22L-48.36,198.04L-61.77,213.94L-72.68,259.14L-81.22,262.82L-75.17,229.84L-78.85,221.29L-91.07,216.43L-113.02,236.01ZM-26.29,249.28L-14.07,254.15L10.24,193.05L18.78,189.37L8.00,305.40L20.22,310.26L37.31,302.90L42.04,219.85L56.63,183.19L70.03,167.29L82.25,172.16L72.66,267.42L76.33,275.96L88.56,280.83L105.64,273.47L119.04,257.57L143.35,196.47L131.13,191.60L106.82,252.71L98.28,256.39L111.56,169.66L100.52,144.04L71.22,146.53L49.27,166.11L34.68,202.77L35.87,182.01L32.19,173.47L19.97,168.60L-1.98,188.18ZM254.26,77.81L242.04,72.95L236.00,105.93L220.10,92.53L182.25,98.70L154.26,151.26L155.57,201.33L178.83,231.82L199.59,233.00L216.68,225.64L231.26,188.98L238.62,206.06L250.84,210.93L272.79,191.35L297.10,130.25L284.88,125.38L260.57,186.48L252.02,190.16ZM209.32,208.56L200.78,212.24L181.20,190.29L183.57,148.77L198.15,112.11L215.24,104.75L231.13,118.15L234.81,126.70L223.91,171.90ZM289.74,113.16L301.96,118.03L326.27,56.92L334.81,53.24L324.03,169.27L336.26,174.14L353.34,166.78L358.07,83.73L376.34,55.61L401.96,44.57L399.47,15.27L378.70,14.09L365.30,29.99L354.39,75.19L345.85,78.87L351.90,45.89L348.22,37.35L336.00,32.48L314.05,52.06ZM515.62,96.88L524.17,93.20L537.57,77.30L561.88,16.20L549.66,11.33L525.35,72.44L516.81,76.12L523.78,-119.28L463.99,-93.53L467.67,-84.99L493.29,-96.02L500.78,-8.11L484.88,-21.52L447.04,-15.34L419.04,37.22L420.36,87.28L443.61,117.77L464.38,118.95L481.46,111.59L496.05,74.93L503.40,92.02ZM474.10,94.51L465.56,98.19L445.98,76.24L448.35,34.72L462.94,-1.94L480.02,-9.30L495.92,4.11L499.60,12.65L488.69,57.85Z" fill="#ffffff" stroke="#000000"/>
    <path d="M-683.87,-54.34L-749.66,-21.35L-724.97,-13.15L-700.10,139.06L-716.53,167.88L-650.74,134.88L-675.43,126.68L-687.85,60.87L-683.75,48.52L-601.51,7.28L-597.39,15.51L-584.97,81.32L-601.39,110.14L-535.60,77.15L-560.30,68.95L-585.16,-83.25L-568.74,-112.07L-634.53,-79.08L-609.83,-70.88L-601.54,-13.29L-605.64,-0.94L-687.88,40.30L-692.00,32.07L-700.30,-25.52ZM-441.13,-62.85L-449.38,-79.30L-465.85,-91.62L-502.87,-83.35L-531.62,-38.06L-531.55,23.66L-506.83,52.43L-486.26,52.41L-469.81,44.16L-457.49,27.69L-441.09,-21.70L-453.43,-25.80L-469.83,23.59L-486.28,31.83L-506.88,11.29L-506.92,-29.86L-494.62,-66.90L-478.18,-75.15L-465.81,-50.48L-478.13,-34.00L-502.80,-21.63L-498.68,-13.41L-457.56,-34.03ZM-387.59,-17.65L-391.93,-211.02L-449.50,-182.16L-445.38,-173.93L-420.70,-186.30L-412.27,-5.28L-408.14,2.94L-387.57,2.92L-367.02,-17.68L-346.52,-79.42L-358.87,-83.52L-379.37,-21.78ZM-305.35,-58.89L-309.69,-252.26L-367.26,-223.39L-363.14,-215.17L-338.47,-227.54L-330.03,-46.52L-325.90,-38.30L-305.33,-38.32L-284.78,-58.92L-264.28,-120.66L-276.63,-124.76L-297.13,-63.02ZM-198.42,-91.93L-181.97,-100.18L-153.22,-145.47L-153.30,-207.19L-186.24,-231.83L-223.26,-223.56L-252.01,-178.27L-251.93,-116.56L-218.99,-91.91ZM-215.01,-207.11L-198.56,-215.36L-177.97,-194.81L-177.92,-153.67L-190.22,-116.63L-206.67,-108.38L-227.26,-128.93L-227.31,-170.07ZM-70.91,-124.99L-70.96,-166.14L-79.21,-182.59L-99.78,-182.56L-108.00,-178.44L-107.98,-157.87L-103.86,-149.64L-83.28,-149.67L-83.26,-129.09L-99.71,-120.85L-95.58,-112.62ZM40.05,-232.10L15.19,-384.30L31.61,-413.12L-34.18,-380.13L-9.48,-371.93L15.38,-219.73L-1.04,-190.91L64.75,-223.90ZM68.68,-380.25L72.80,-372.02L89.20,-421.41L85.08,-429.64L72.73,-433.74L64.51,-429.61L60.41,-417.27ZM241.45,-405.13L249.65,-429.83L261.98,-446.30L274.33,-442.20L270.32,-347.57L274.45,-339.34L286.79,-335.24L303.24,-343.49L315.57,-359.96L336.07,-421.70L323.72,-425.80L303.22,-364.06L294.99,-359.94L303.12,-446.35L290.75,-471.02L261.95,-466.87L241.41,-446.28L233.21,-421.58L224.96,-438.03L204.39,-438.01L183.84,-417.41L171.54,-380.37L171.51,-400.94L167.39,-409.16L155.04,-413.26L134.49,-392.67L113.99,-330.93L126.34,-326.83L146.84,-388.57L155.07,-392.69L151.09,-277.48L163.43,-273.38L179.88,-281.63L179.79,-363.92L192.09,-400.96L204.41,-417.43L216.76,-413.33L216.88,-310.48L229.23,-306.38L245.67,-314.62ZM-505.72,300.94L-530.58,148.73L-522.38,124.04L-579.95,152.91L-555.25,161.11L-530.39,313.31L-546.81,342.13L-481.02,309.14ZM-398.78,267.90L-456.45,214.48L-501.71,206.30L-440.14,82.80L-497.71,111.67L-473.01,119.87L-518.16,214.55L-514.04,222.77L-476.99,235.07L-439.93,267.95L-402.88,280.25ZM-415.33,193.86L-402.98,197.96L-382.48,136.22L-374.25,132.09L-378.23,247.30L-365.89,251.40L-349.44,243.15L-349.53,160.87L-333.11,132.05L-308.44,119.68L-312.59,90.88L-333.16,90.90L-345.48,107.38L-353.66,152.64L-361.88,156.77L-357.81,123.85L-361.93,115.62L-374.28,111.52L-394.83,132.12ZM-250.94,29.09L-242.72,24.97L-242.74,4.40L-246.87,-3.83L-267.44,-3.80L-275.66,0.32L-275.64,20.89L-271.51,29.12ZM-308.41,140.25L-296.07,144.35L-275.57,82.61L-267.34,78.48L-275.45,185.47L-271.32,193.69L-258.98,197.79L-242.53,189.54L-230.20,173.07L-209.70,111.33L-222.05,107.23L-242.55,168.97L-250.78,173.09L-242.67,66.11L-246.79,57.89L-267.37,57.91L-287.91,78.51ZM-172.64,144.20L-185.01,119.53L-197.36,115.43L-209.68,131.90L-197.31,156.58L-176.74,156.55L-160.29,148.30L-139.74,127.71L-131.54,103.01L-139.79,86.56L-168.63,49.57L-176.88,33.12L-164.56,16.65L-152.18,41.32L-139.84,45.42L-127.51,28.95L-139.88,4.28L-168.68,8.42L-197.45,33.14L-197.43,53.72L-189.18,70.16L-164.46,98.94L-156.21,115.38L-164.41,140.08ZM-69.85,82.37L-69.97,-20.49L-45.30,-32.86L-49.42,-41.09L-74.09,-28.71L-74.14,-69.86L-90.59,-61.61L-86.44,-32.81L-98.76,-16.34L-115.21,-8.09L-111.09,0.13L-94.64,-8.12L-94.52,94.74L-90.40,102.96L-78.05,107.06L-61.60,98.82L-49.28,82.34L-28.78,20.61L-41.12,16.51L-61.62,78.24ZM28.67,-111.12L36.90,-115.25L36.87,-135.82L32.75,-144.04L12.18,-144.02L3.95,-139.89L3.98,-119.32L8.10,-111.10ZM-28.80,0.03L-16.45,4.13L4.05,-57.61L12.27,-61.73L4.17,45.25L8.29,53.48L20.64,57.58L37.09,49.33L49.41,32.86L69.91,-28.88L57.56,-32.98L37.06,28.76L28.84,32.88L36.94,-74.10L32.82,-82.33L12.25,-82.30L-8.30,-61.71ZM172.63,-152.43L160.28,-156.53L156.20,-123.61L139.73,-135.94L102.71,-127.66L78.09,-74.15L82.26,-24.78L106.98,3.99L127.55,3.97L144.00,-4.28L156.30,-41.33L164.55,-24.88L176.89,-20.78L197.44,-41.37L217.94,-103.11L205.59,-107.21L185.09,-45.47L176.87,-41.35ZM135.75,-20.73L127.53,-16.61L106.93,-37.15L106.88,-78.30L119.18,-115.34L135.63,-123.59L152.10,-111.26L156.23,-103.04L148.05,-57.77ZM209.69,-119.56L222.04,-115.46L242.54,-177.20L250.77,-181.32L246.79,-66.12L259.13,-62.02L275.58,-70.26L275.49,-152.55L287.79,-189.60L300.11,-206.07L312.46,-201.97L308.45,-107.33L312.58,-99.11L324.92,-95.01L341.37,-103.26L353.70,-119.73L374.20,-181.47L361.85,-185.57L341.35,-123.83L333.12,-119.70L341.25,-206.12L328.88,-230.79L300.09,-226.64L279.54,-206.04L267.24,-169.00L267.21,-189.57L263.09,-197.80L250.74,-201.90L230.19,-181.30ZM-484.25,364.27L-459.55,372.47L-434.69,524.68L-442.89,549.37L-360.65,508.13L-327.78,471.06L-319.60,425.80L-344.32,397.03L-373.12,401.17L-360.79,384.70L-348.49,347.66L-373.21,318.89L-418.46,331.28ZM-410.02,512.30L-434.88,360.10L-430.78,347.75L-414.33,339.51L-393.76,339.48L-381.39,364.15L-385.47,397.07L-406.01,417.67L-422.46,425.92L-418.34,434.14L-393.67,421.77L-373.09,421.74L-352.50,442.29L-356.57,475.21L-381.22,508.16L-397.67,516.40ZM-262.15,294.07L-253.93,289.95L-253.95,269.37L-258.08,261.15L-278.65,261.17L-286.87,265.30L-286.85,285.87L-282.73,294.09ZM-319.63,405.23L-307.28,409.33L-286.78,347.59L-278.55,343.46L-270.16,483.34L-270.12,524.48L-278.34,528.61L-286.59,512.16L-298.94,508.06L-311.26,524.53L-298.89,549.20L-270.09,545.06L-257.77,528.58L-245.47,491.54L-253.88,331.09L-258.01,322.87L-270.35,318.77L-299.13,343.49ZM-163.28,409.16L-146.83,400.91L-118.08,355.62L-118.15,293.90L-151.10,269.26L-152.43,269.67L-147.02,236.34L-155.24,240.46L-160.35,271.32L-188.12,277.53L-216.86,322.82L-216.79,384.53L-183.85,409.18L-182.61,409.08L-187.92,442.10L-179.70,437.98L-175.11,409.17ZM-179.87,293.97L-163.42,285.73L-162.80,286.45L-178.73,385.52L-192.12,372.16L-192.17,331.02ZM-171.52,392.71L-172.14,391.99L-156.21,292.92L-142.82,306.27L-142.78,347.42L-155.08,384.46ZM-122.25,306.25L-109.90,310.35L-89.40,248.61L-81.18,244.49L-85.16,359.69L-72.81,363.79L-56.37,355.55L-56.46,273.26L-40.04,244.44L-15.36,232.07L-19.51,203.27L-40.08,203.30L-52.41,219.77L-60.58,265.04L-68.81,269.16L-64.73,236.24L-68.86,228.02L-81.20,223.92L-101.75,244.51ZM-15.34,252.64L-2.99,256.74L17.51,195.00L25.73,190.88L21.75,306.08L34.10,310.18L50.55,301.94L50.45,219.65L62.75,182.60L75.07,166.13L87.42,170.23L83.42,264.87L87.54,273.09L99.89,277.19L116.34,268.94L128.66,252.47L149.16,190.73L136.81,186.63L116.31,248.37L108.09,252.50L116.22,166.09L103.85,141.41L75.05,145.56L54.50,166.16L42.20,203.20L42.18,182.63L38.05,174.40L25.71,170.30L5.16,190.90ZM251.88,67.18L239.53,63.08L235.45,96.00L218.98,83.68L181.96,91.95L157.34,145.47L161.51,194.83L186.23,223.61L206.80,223.58L223.25,215.33L235.55,178.29L243.80,194.74L256.14,198.84L276.69,178.24L297.19,116.50L284.84,112.40L264.34,174.14L256.12,178.27ZM215.00,198.89L206.78,203.01L186.18,182.46L186.13,141.32L198.43,104.27L214.88,96.03L231.35,108.35L235.48,116.57L227.30,161.84ZM288.94,100.05L301.29,104.15L321.79,42.42L330.02,38.29L326.04,153.50L338.38,157.60L354.83,149.35L354.74,67.06L371.16,38.24L395.83,25.87L391.68,-2.92L371.11,-2.90L358.79,13.57L350.61,58.84L342.39,62.96L346.46,30.04L342.34,21.82L329.99,17.72L309.44,38.32ZM511.09,71.00L519.31,66.87L531.63,50.40L552.13,-11.34L539.79,-15.44L519.29,46.30L511.06,50.42L506.72,-142.95L449.16,-114.08L453.28,-105.85L477.95,-118.23L490.40,-31.84L473.92,-44.16L436.90,-35.89L412.28,17.62L416.45,66.99L441.17,95.76L461.74,95.74L478.19,87.49L490.49,50.45L498.74,66.90ZM469.94,71.04L461.72,75.17L441.12,54.62L441.08,13.48L453.38,-23.57L469.82,-31.82L486.30,-19.49L490.42,-11.27L482.24,34.00Z" fill="#ffffff" stroke="#000000"/>
    <path d="M-681.78,-9.28L-744.86,27.07L-720.00,33.75L-686.71,182.62L-701.27,212.02L-638.20,175.66L-663.05,168.98L-679.10,104.71L-675.76,92.28L-596.92,46.83L-592.37,54.72L-576.33,118.99L-590.89,148.39L-527.82,112.04L-552.68,105.36L-585.97,-43.51L-571.41,-72.91L-634.48,-36.55L-609.62,-29.87L-598.12,26.52L-601.46,38.95L-680.30,84.39L-684.85,76.51L-696.35,20.12ZM-442.58,-31.63L-451.67,-47.40L-468.64,-58.62L-504.72,-48.33L-530.51,-1.95L-526.89,58.98L-500.83,85.98L-480.52,84.77L-464.75,75.68L-453.53,58.71L-440.17,8.99L-452.60,5.65L-465.95,55.37L-481.72,64.46L-503.24,45.35L-505.65,4.73L-495.63,-32.56L-479.86,-41.65L-466.23,-18.00L-477.45,-1.02L-501.11,12.61L-496.56,20.49L-457.14,-2.23ZM-387.12,9.92L-402.51,-180.77L-457.69,-148.96L-453.15,-141.08L-429.50,-154.71L-410.77,23.56L-406.22,31.44L-385.91,30.24L-366.80,8.72L-350.11,-53.42L-362.53,-56.76L-379.23,5.38ZM-308.28,-35.52L-323.67,-226.22L-378.85,-194.41L-374.31,-186.52L-350.66,-200.16L-331.93,-21.89L-327.38,-14.01L-307.07,-15.21L-287.96,-36.73L-271.27,-98.87L-283.69,-102.21L-300.39,-40.07ZM-204.58,-74.29L-188.81,-83.38L-163.02,-129.75L-166.64,-190.69L-200.59,-213.14L-236.67,-202.84L-262.45,-156.47L-258.84,-95.53L-224.89,-73.08ZM-227.58,-187.08L-211.81,-196.16L-190.29,-177.06L-187.88,-136.43L-197.90,-99.15L-213.67,-90.06L-235.19,-109.17L-237.60,-149.79ZM-80.57,-114.26L-82.98,-154.89L-92.07,-170.66L-112.38,-169.45L-120.27,-164.91L-119.06,-144.59L-114.52,-136.71L-94.20,-137.91L-93.00,-117.60L-108.77,-108.51L-104.22,-100.63ZM22.85,-226.40L-10.44,-375.26L4.12,-404.66L-58.95,-368.31L-34.09,-361.63L-0.80,-212.76L-15.36,-183.36L47.71,-219.72ZM42.61,-374.33L47.16,-366.45L60.51,-416.16L55.97,-424.05L43.54,-427.39L35.66,-422.84L32.32,-410.41ZM211.79,-408.83L218.47,-433.69L229.69,-450.66L242.12,-447.32L243.60,-353.64L248.15,-345.76L260.57,-342.42L276.34,-351.51L287.57,-368.48L304.26,-430.63L291.83,-433.96L275.14,-371.82L267.25,-367.28L270.32,-453.07L256.68,-476.72L228.49,-470.97L209.38,-449.46L202.70,-424.60L193.61,-440.37L173.30,-439.16L154.19,-417.64L144.17,-380.36L142.97,-400.67L138.42,-408.55L126.00,-411.89L106.89,-390.38L90.19,-328.23L102.62,-324.89L119.32,-387.04L127.20,-391.58L129.89,-277.59L142.32,-274.25L158.08,-283.34L153.26,-364.59L163.28,-401.88L174.50,-418.85L186.93,-415.51L192.96,-313.95L205.39,-310.61L221.15,-319.70ZM-485.46,331.30L-518.75,182.44L-512.07,157.58L-567.26,189.39L-542.40,196.07L-509.11,344.94L-523.67,374.34L-460.60,337.98ZM-381.76,292.54L-441.77,243.10L-486.94,237.62L-433.23,112.13L-488.42,143.95L-463.56,150.62L-502.71,246.71L-498.16,254.60L-460.88,264.62L-422.39,294.95L-385.10,304.96ZM-402.35,220.37L-389.92,223.71L-373.23,161.57L-365.34,157.03L-362.65,271.02L-350.23,274.36L-334.46,265.27L-339.28,184.02L-324.72,154.62L-301.06,140.98L-306.81,112.79L-327.13,113.99L-338.35,130.96L-343.82,176.13L-351.71,180.68L-349.57,147.94L-354.12,140.05L-366.55,136.71L-385.65,158.23ZM-249.49,48.23L-241.61,43.69L-242.81,23.38L-247.36,15.49L-267.67,16.70L-275.55,21.24L-274.35,41.55L-269.80,49.44ZM-299.86,161.29L-287.43,164.63L-270.73,102.49L-262.85,97.95L-264.71,204.05L-260.16,211.94L-247.73,215.28L-231.97,206.19L-220.74,189.22L-204.05,127.07L-216.47,123.73L-233.17,185.88L-241.06,190.42L-239.20,84.31L-243.74,76.43L-264.05,77.63L-283.16,99.15ZM-165.56,157.40L-179.19,133.75L-191.62,130.41L-202.84,147.38L-189.21,171.04L-168.89,169.83L-153.13,160.74L-134.02,139.22L-127.34,114.37L-136.43,98.60L-167.04,63.72L-176.13,47.96L-164.90,30.98L-151.27,54.64L-138.84,57.97L-127.62,41.00L-141.25,17.35L-169.45,23.10L-196.44,49.16L-195.23,69.47L-186.14,85.24L-160.08,112.23L-150.99,128.00L-157.67,152.86ZM-67.61,90.44L-73.63,-11.12L-49.98,-24.76L-54.53,-32.64L-78.18,-19.01L-80.59,-59.63L-96.36,-50.54L-90.61,-22.35L-101.83,-5.37L-117.60,3.72L-113.05,11.60L-97.29,2.51L-91.26,104.07L-86.72,111.96L-74.29,115.30L-58.52,106.21L-47.30,89.23L-30.60,27.09L-43.03,23.75L-59.72,85.90ZM18.56,-106.28L26.45,-110.83L25.24,-131.14L20.70,-139.02L0.38,-137.82L-7.50,-133.27L-6.29,-112.96L-1.75,-105.08ZM-31.80,6.78L-19.38,10.12L-2.68,-52.02L5.20,-56.57L3.35,49.54L7.89,57.42L20.32,60.76L36.09,51.67L47.31,34.70L64.01,-27.44L51.58,-30.78L34.88,31.36L27.00,35.90L28.86,-70.20L24.31,-78.09L4.00,-76.88L-15.11,-55.36ZM158.34,-155.34L145.91,-158.68L143.78,-125.94L126.80,-137.17L90.72,-126.87L69.48,-72.61L76.44,-24.10L102.50,2.89L122.81,1.68L138.58,-7.41L148.60,-44.69L157.69,-28.92L170.12,-25.59L189.22,-47.10L205.92,-109.25L193.49,-112.59L176.79,-50.44L168.91,-45.90ZM129.49,-23.17L121.61,-18.63L100.09,-37.74L97.68,-78.36L107.70,-115.65L123.46,-124.74L140.44,-113.51L144.98,-105.63L139.51,-60.46ZM196.83,-125.01L209.26,-121.67L225.96,-183.82L233.84,-188.36L236.53,-74.37L248.95,-71.03L264.72,-80.12L259.90,-161.37L269.92,-198.66L281.14,-215.63L293.57,-212.29L295.05,-118.61L299.60,-110.73L312.03,-107.39L327.79,-116.48L339.02,-133.45L355.71,-195.59L343.29,-198.93L326.59,-136.79L318.71,-132.24L321.77,-218.04L308.13,-241.69L279.94,-235.94L260.83,-214.42L250.81,-177.14L249.61,-197.45L245.06,-205.33L232.63,-208.67L213.53,-187.16ZM-460.62,392.61L-435.76,399.29L-402.47,548.16L-409.15,573.01L-330.31,527.57L-299.98,489.08L-294.51,443.91L-320.57,416.92L-348.76,422.67L-337.54,405.69L-327.52,368.41L-353.59,341.42L-397.55,356.25ZM-378.82,534.52L-412.11,385.66L-408.77,373.23L-393.01,364.14L-372.69,362.93L-359.06,386.59L-361.19,419.33L-380.30,440.84L-396.07,449.93L-391.52,457.82L-367.87,444.18L-347.56,442.98L-326.04,462.09L-328.18,494.83L-350.62,528.77L-366.39,537.86ZM-245.34,310.53L-237.46,305.99L-238.67,285.68L-243.21,277.79L-263.52,279.00L-271.41,283.54L-270.20,303.85L-265.66,311.74ZM-295.71,423.59L-283.28,426.93L-266.59,364.79L-258.70,360.25L-242.38,497.89L-239.97,538.51L-247.85,543.06L-256.94,527.29L-269.37,523.95L-280.60,540.93L-266.96,564.58L-238.77,558.83L-227.54,541.85L-217.52,504.57L-235.05,346.61L-239.59,338.73L-252.02,335.39L-279.01,361.45ZM-141.10,418.50L-125.33,409.41L-99.54,363.03L-103.16,302.10L-137.10,279.65L-138.40,280.13L-134.97,246.91L-142.85,251.45L-146.12,282.22L-173.18,289.94L-198.97,336.32L-195.35,397.26L-161.41,419.70L-160.19,419.53L-163.54,452.44L-155.66,447.90L-152.77,419.19ZM-164.09,305.71L-148.33,296.62L-147.67,297.30L-157.72,396.04L-171.70,383.62L-174.11,343.00ZM-150.18,402.73L-150.84,402.06L-140.80,303.31L-126.81,315.73L-124.40,356.36L-134.42,393.64ZM-106.50,314.52L-94.07,317.86L-77.37,255.72L-69.49,251.18L-66.80,365.17L-54.37,368.51L-38.60,359.42L-43.42,278.17L-28.86,248.77L-5.21,235.13L-10.96,206.94L-31.27,208.14L-42.50,225.11L-47.97,270.28L-55.85,274.83L-53.72,242.09L-58.26,234.20L-70.69,230.86L-89.80,252.38ZM-4.00,255.45L8.42,258.78L25.12,196.64L33.00,192.10L35.69,306.09L48.12,309.43L63.89,300.34L59.07,219.09L69.09,181.80L80.31,164.83L92.74,168.17L94.22,261.85L98.76,269.73L111.19,273.07L126.96,263.98L138.18,247.01L154.88,184.87L142.45,181.53L125.75,243.67L117.87,248.21L120.93,162.42L107.30,138.77L79.10,144.52L60.00,166.04L49.98,203.32L48.77,183.01L44.23,175.12L31.80,171.78L12.69,193.30ZM249.21,56.97L236.78,53.63L234.65,86.37L217.68,75.14L181.59,85.44L160.35,139.70L167.31,188.21L193.37,215.20L213.68,213.99L229.45,204.90L239.47,167.62L248.56,183.38L260.99,186.72L280.09,165.21L296.79,103.06L284.36,99.72L267.67,161.87L259.78,166.41ZM220.36,189.13L212.48,193.68L190.96,174.57L188.55,133.95L198.57,96.66L214.34,87.57L231.31,98.80L235.85,106.68L230.38,151.85ZM287.70,87.30L300.13,90.64L316.83,28.49L324.71,23.95L327.40,137.94L339.83,141.28L355.59,132.19L350.77,50.94L365.34,21.54L388.99,7.90L383.24,-20.29L362.93,-19.09L351.70,-2.11L346.23,43.06L338.34,47.60L340.48,14.86L335.93,6.97L323.51,3.64L304.40,25.15ZM505.39,45.84L513.27,41.30L524.50,24.32L541.19,-37.82L528.77,-41.16L512.07,20.99L504.18,25.53L488.79,-165.17L433.61,-133.35L438.15,-125.47L461.80,-139.10L479.05,-54.52L462.08,-65.74L426.00,-55.44L404.76,-1.19L411.71,47.32L437.77,74.31L458.09,73.11L473.85,64.02L483.87,26.73L492.96,42.50ZM464.76,48.25L456.88,52.80L435.36,33.69L432.95,-6.94L442.97,-44.22L458.74,-53.31L475.71,-42.09L480.26,-34.20L474.78,10.97Z" fill="#ffffff" stroke="#000000"/>
    <path d="M-676.72,35.21L-736.90,74.73L-711.98,79.89L-670.56,224.96L-683.25,254.83L-623.06,215.31L-647.99,210.14L-667.52,147.60L-664.94,135.14L-589.71,85.74L-584.77,93.26L-565.23,155.81L-577.92,185.67L-517.74,146.15L-542.66,140.99L-584.09,-4.08L-571.40,-33.95L-631.58,5.57L-606.65,10.74L-592.06,65.76L-594.65,78.22L-669.88,127.62L-674.82,120.09L-689.41,65.07ZM-441.83,-0.59L-451.71,-15.64L-469.11,-25.75L-504.14,-13.51L-526.94,33.76L-519.87,93.72L-492.58,118.87L-472.60,116.51L-457.55,106.63L-447.45,89.23L-437.11,39.38L-449.58,36.80L-459.91,86.65L-474.96,96.53L-497.30,78.90L-502.01,38.93L-494.26,1.54L-479.21,-8.34L-464.39,14.23L-474.50,31.63L-497.07,46.45L-492.13,53.97L-454.52,29.27ZM-384.68,37.25L-410.83,-150.15L-463.49,-115.57L-458.55,-108.05L-435.98,-122.87L-407.25,52.07L-402.31,59.59L-382.32,57.24L-364.69,34.89L-351.77,-27.42L-364.24,-30.00L-377.15,32.31ZM-309.45,-12.15L-335.59,-199.55L-388.26,-164.97L-383.32,-157.44L-360.75,-172.26L-332.01,2.67L-327.08,10.19L-307.09,7.84L-289.46,-14.50L-276.54,-76.82L-289.01,-79.40L-301.92,-17.09ZM-209.29,-56.38L-194.24,-66.26L-171.45,-113.53L-178.51,-173.49L-213.32,-193.70L-248.35,-181.46L-271.15,-134.19L-264.08,-74.24L-229.27,-54.02ZM-238.47,-166.42L-223.43,-176.30L-201.08,-158.67L-196.37,-118.69L-204.12,-81.31L-219.17,-71.43L-241.51,-89.06L-246.22,-129.03ZM-89.14,-102.97L-93.86,-142.94L-103.74,-157.99L-123.72,-155.63L-131.25,-150.69L-128.89,-130.70L-123.95,-123.18L-103.96,-125.54L-101.61,-105.55L-116.65,-95.67L-111.71,-88.15ZM6.53,-219.62L-34.89,-364.69L-22.20,-394.56L-82.39,-355.04L-57.46,-349.87L-16.04,-204.80L-28.73,-174.94L31.45,-214.45ZM17.54,-366.82L22.48,-359.30L32.81,-409.15L27.87,-416.67L15.41,-419.26L7.89,-414.32L5.31,-401.85ZM182.60,-410.60L187.76,-435.52L197.87,-452.93L210.33,-450.34L217.18,-357.94L222.12,-350.41L234.58,-347.83L249.63,-357.71L259.73,-375.11L272.65,-437.43L260.19,-440.01L247.27,-377.70L239.75,-372.76L237.84,-457.64L223.02,-480.21L195.51,-472.91L177.88,-450.57L172.72,-425.64L162.84,-440.69L142.85,-438.33L125.22,-415.99L117.47,-378.60L115.12,-398.59L110.18,-406.11L97.71,-408.70L80.08,-386.35L67.17,-324.04L79.63,-321.45L92.55,-383.77L100.07,-388.71L109.27,-276.32L121.73,-273.73L136.78,-283.61L127.35,-363.56L135.10,-400.95L145.21,-418.35L157.67,-415.77L169.45,-315.83L181.92,-313.25L196.96,-323.13ZM-463.32,360.21L-504.74,215.14L-499.57,190.21L-552.24,224.79L-527.31,229.96L-485.89,375.03L-498.58,404.90L-438.39,365.38ZM-363.16,315.98L-425.25,270.61L-470.16,267.80L-424.34,140.82L-477.00,175.39L-452.08,180.56L-485.21,277.68L-480.27,285.20L-442.88,292.95L-403.13,320.69L-365.74,328.44ZM-387.63,245.91L-375.17,248.50L-362.25,186.18L-354.73,181.24L-345.53,293.64L-333.07,296.22L-318.02,286.34L-327.45,206.39L-314.76,176.53L-292.19,161.71L-299.49,134.20L-319.47,136.56L-329.58,153.96L-332.39,198.87L-339.91,203.81L-339.68,171.36L-344.62,163.84L-357.09,161.26L-374.72,183.60ZM-246.60,67.17L-239.07,62.23L-241.43,42.25L-246.37,34.72L-266.36,37.08L-273.88,42.02L-271.52,62.00L-266.58,69.53ZM-289.83,181.70L-277.37,184.28L-264.45,121.96L-256.93,117.02L-252.67,221.89L-247.73,229.42L-235.27,232.00L-220.22,222.12L-210.11,204.72L-197.20,142.40L-209.66,139.82L-222.58,202.13L-230.10,207.07L-234.36,102.20L-239.30,94.68L-259.29,97.04L-276.92,119.38ZM-157.45,170.14L-172.27,147.57L-184.73,144.99L-194.84,162.39L-180.02,184.96L-160.04,182.60L-144.99,172.72L-127.36,150.38L-122.19,125.45L-132.07,110.41L-164.29,77.73L-174.17,62.69L-164.07,45.28L-149.25,67.85L-136.79,70.44L-126.68,53.03L-141.50,30.46L-169.01,37.76L-194.16,65.04L-191.80,85.03L-181.92,100.07L-154.64,125.23L-144.76,140.27L-149.93,165.20ZM-64.59,98.40L-76.37,-1.53L-53.80,-16.35L-58.74,-23.88L-81.31,-9.06L-86.03,-49.03L-101.07,-39.15L-93.78,-11.64L-103.88,5.76L-118.93,15.64L-113.99,23.17L-98.94,13.29L-87.16,113.22L-82.22,120.74L-69.76,123.32L-54.71,113.44L-44.60,96.04L-31.69,33.73L-44.15,31.14L-57.07,93.46ZM9.19,-100.78L16.71,-105.72L14.36,-125.71L9.42,-133.23L-10.57,-130.88L-18.09,-125.94L-15.73,-105.95L-10.79,-98.43ZM-34.04,13.74L-21.58,16.32L-8.66,-45.99L-1.14,-50.93L3.12,53.94L8.06,61.46L20.52,64.05L35.57,54.17L45.67,36.76L58.59,-25.55L46.13,-28.13L33.21,34.18L25.69,39.12L21.43,-65.75L16.49,-73.27L-3.50,-70.92L-21.13,-48.57ZM144.38,-157.25L131.92,-159.83L131.69,-127.38L114.29,-137.49L79.26,-125.26L61.40,-70.46L71.05,-22.97L98.34,2.19L118.32,-0.17L133.37,-10.05L141.12,-47.44L151.00,-32.39L163.46,-29.81L181.09,-52.15L194.01,-114.47L181.54,-117.05L168.63,-54.74L161.10,-49.80ZM123.49,-25.10L115.97,-20.16L93.62,-37.79L88.91,-77.76L96.66,-115.15L111.71,-125.03L129.11,-114.92L134.05,-107.40L131.24,-62.49ZM184.13,-129.51L196.59,-126.93L209.51,-189.25L217.03,-194.19L226.23,-81.79L238.69,-79.21L253.74,-89.09L244.31,-169.03L252.06,-206.42L262.17,-223.82L274.63,-221.24L281.47,-128.83L286.41,-121.31L298.88,-118.73L313.92,-128.61L324.03,-146.01L336.95,-208.32L324.48,-210.91L311.57,-148.59L304.04,-143.65L302.14,-228.54L287.32,-251.11L259.81,-243.81L242.18,-221.47L234.43,-184.08L232.08,-204.07L227.14,-211.59L214.67,-214.17L197.04,-191.83ZM-435.28,419.32L-410.35,424.48L-368.93,569.55L-374.09,594.48L-298.86,545.08L-271.13,505.33L-268.32,460.42L-295.60,435.27L-323.11,442.57L-313.00,425.16L-305.25,387.77L-332.53,362.62L-375.09,379.80ZM-346.36,554.73L-387.78,409.66L-385.20,397.20L-370.15,387.32L-350.16,384.96L-335.34,407.53L-335.57,439.98L-353.20,462.33L-368.25,472.21L-363.31,479.73L-340.74,464.91L-320.75,462.55L-298.41,480.18L-298.64,512.63L-318.85,547.44L-333.90,557.32ZM-227.44,325.91L-219.91,320.97L-222.27,300.99L-227.21,293.46L-247.20,295.82L-254.72,300.76L-252.36,320.75L-247.42,328.27ZM-270.67,440.44L-258.21,443.02L-245.29,380.70L-237.77,375.77L-213.75,510.73L-209.04,550.70L-216.56,555.64L-226.44,540.59L-238.90,538.01L-249.01,555.41L-234.19,577.98L-206.68,570.69L-196.58,553.28L-188.83,515.90L-215.20,360.95L-220.14,353.42L-232.60,350.84L-257.76,378.12ZM-118.31,426.52L-103.26,416.64L-80.46,369.38L-87.53,309.42L-122.34,289.20L-123.59,289.76L-122.11,256.76L-129.64,261.70L-131.10,292.26L-157.37,301.44L-180.17,348.71L-173.10,408.67L-138.29,428.88L-137.11,428.64L-138.52,461.33L-131.00,456.39L-129.80,427.88ZM-147.49,316.49L-132.45,306.61L-131.76,307.24L-136.01,405.31L-150.53,393.85L-155.24,353.88ZM-128.19,411.48L-128.87,410.85L-124.63,312.78L-110.10,324.24L-105.39,364.21L-113.14,401.60ZM-90.12,321.88L-77.65,324.46L-64.74,262.15L-57.21,257.21L-48.01,369.60L-35.55,372.19L-20.51,362.31L-29.93,282.36L-17.24,252.50L5.33,237.68L-1.97,210.17L-21.95,212.52L-32.06,229.93L-34.87,274.84L-42.39,279.78L-42.17,247.33L-47.11,239.81L-59.57,237.22L-77.20,259.57ZM7.68,257.66L20.15,260.25L33.06,197.93L40.59,192.99L49.79,305.39L62.25,307.97L77.30,298.09L67.87,218.14L75.62,180.76L85.73,163.35L98.19,165.94L105.03,258.34L109.97,265.87L122.43,268.45L137.48,258.57L147.59,241.17L160.50,178.85L148.04,176.27L135.12,238.58L127.60,243.52L125.70,158.64L110.88,136.07L83.37,143.37L65.74,165.71L57.99,203.10L55.63,183.11L50.69,175.59L38.23,173.01L20.60,195.35ZM246.30,47.15L233.83,44.57L233.61,77.02L216.20,66.91L181.17,79.15L163.31,133.94L172.97,181.44L200.25,206.59L220.24,204.23L235.28,194.35L243.03,156.96L252.91,172.01L265.37,174.59L283.00,152.25L295.92,89.94L283.46,87.35L270.54,149.67L263.02,154.61ZM225.40,179.31L217.88,184.25L195.54,166.62L190.82,126.64L198.57,89.25L213.62,79.38L231.02,89.48L235.96,97.00L233.15,141.92ZM286.04,74.89L298.50,77.47L311.42,15.16L318.94,10.22L328.14,122.61L340.61,125.19L355.65,115.31L346.23,35.37L358.92,5.50L381.49,-9.32L374.19,-36.82L354.20,-34.47L344.10,-17.07L341.29,27.85L333.76,32.79L333.99,0.34L329.05,-7.19L316.59,-9.77L298.96,12.57ZM498.59,21.46L506.12,16.52L516.22,-0.88L529.14,-63.20L516.68,-65.78L503.76,-3.47L496.24,1.47L470.09,-185.93L417.43,-151.35L422.37,-143.82L444.94,-158.64L466.82,-76.12L449.42,-86.22L414.39,-73.99L396.53,-19.19L406.19,28.30L433.47,53.45L453.45,51.10L468.50,41.22L476.25,3.83L486.13,18.87ZM458.62,26.17L451.10,31.11L428.75,13.48L424.04,-26.49L431.79,-63.88L446.84,-73.76L464.24,-63.65L469.18,-56.13L466.37,-11.22Z" fill="#ffffff" stroke="#000000"/>
    <path d="M-903.88,492L-906.92,488.96L-902.36,482.88L-893.24,482.88L-891.72,484.40L-891.72,488.96L-894.76,492L-884.12,492L-887.16,488.96L-887.16,460.08L-891.72,463.12L-891.72,464.64L-909.96,488.96L-914.52,492ZM-891.72,467.68L-891.72,479.84L-893.24,481.36L-900.84,481.36L-899.32,478.32ZM-862.84,476.80L-864.36,481.36L-870.44,487.44L-875,488.96L-876.52,488.96L-867.40,475.28L-867.40,472.24L-870.44,470.72L-875,472.24L-882.60,479.84L-881.08,481.36L-873.48,473.76L-871.96,473.76L-881.08,488.96L-881.08,490.48L-879.56,492L-876.52,492L-868.92,488.96L-862.84,482.88L-859.80,476.80L-859.80,473.76L-861.32,472.24L-864.36,472.24L-865.88,475.28L-864.36,476.80ZM-835.48,472.24L-837,470.72L-840.04,475.28L-841.56,472.24L-847.64,470.72L-855.24,476.80L-858.28,484.40L-856.76,490.48L-853.72,492L-850.68,492L-846.12,487.44L-846.12,490.48L-844.60,492L-840.04,490.48L-832.44,482.88L-833.96,481.36L-841.56,488.96L-843.08,488.96ZM-850.68,488.96L-852.20,488.96L-853.72,484.40L-850.68,478.32L-846.12,473.76L-843.08,473.76L-841.56,476.80L-841.56,478.32L-846.12,484.40ZM-832.44,479.84L-830.92,481.36L-823.32,473.76L-821.80,473.76L-830.92,490.48L-829.40,492L-826.36,492L-820.28,479.84L-815.72,476.80L-811.16,476.80L-809.64,472.24L-812.68,470.72L-815.72,472.24L-820.28,478.32L-821.80,478.32L-818.76,473.76L-818.76,472.24L-820.28,470.72L-824.84,472.24ZM-788.36,472.24L-789.88,470.72L-792.92,475.28L-794.44,472.24L-800.52,470.72L-808.12,476.80L-811.16,484.40L-809.64,490.48L-806.60,492L-803.56,492L-799,487.44L-799,490.48L-797.48,492L-792.92,490.48L-785.32,482.88L-786.84,481.36L-794.44,488.96L-795.96,488.96ZM-803.56,488.96L-805.08,488.96L-806.60,484.40L-803.56,478.32L-799,473.76L-795.96,473.76L-794.44,476.80L-794.44,478.32L-799,484.40ZM-783.80,479.84L-783.80,482.88L-774.68,482.88L-774.68,479.84ZM-765.56,461.60L-762.52,464.64L-770.12,488.96L-773.16,492L-757.96,492L-750.36,488.96L-745.80,482.88L-747.32,476.80L-751.88,475.28L-748.84,473.76L-744.28,469.20L-745.80,463.12L-753.40,461.60ZM-765.56,488.96L-757.96,464.64L-756.44,463.12L-753.40,463.12L-750.36,464.64L-750.36,469.20L-753.40,473.76L-757.96,475.28L-761,475.28L-761,476.80L-756.44,476.80L-753.40,478.32L-751.88,482.88L-754.92,487.44L-761,490.48L-764.04,490.48ZM-736.68,492L-733.64,492L-726.04,487.44L-721.48,478.32L-724.52,472.24L-730.60,470.72L-738.20,475.28L-742.76,484.40L-739.72,490.48ZM-730.60,473.76L-727.56,473.76L-726.04,478.32L-729.08,484.40L-733.64,488.96L-736.68,488.96L-738.20,484.40L-735.16,478.32ZM-715.40,488.96L-701.72,460.08L-712.36,460.08L-712.36,461.60L-707.80,461.60L-719.96,488.96L-719.96,490.48L-716.92,492L-712.36,490.48L-704.76,482.88L-706.28,481.36L-713.88,488.96ZM-689.56,492L-688.04,492L-685,490.48L-677.40,482.88L-678.92,481.36L-686.52,488.96L-688.04,488.96L-674.36,460.08L-685,460.08L-685,461.60L-680.44,461.60L-685,475.28L-686.52,472.24L-692.60,470.72L-700.20,476.80L-703.24,484.40L-701.72,490.48L-698.68,492L-695.64,492L-691.08,487.44L-691.08,490.48ZM-695.64,488.96L-697.16,488.96L-698.68,484.40L-695.64,478.32L-691.08,473.76L-688.04,473.76L-686.52,476.80L-686.52,478.32L-691.08,484.40ZM-669.80,488.96L-662.20,464.64L-657.64,461.60L-669.80,461.60L-666.76,464.64L-674.36,488.96L-678.92,492L-666.76,492ZM-657.64,488.96L-650.04,473.76L-645.48,473.76L-645.48,472.24L-650.04,472.24L-647,466.16L-650.04,466.16L-651.56,470.72L-654.60,472.24L-657.64,472.24L-657.64,473.76L-654.60,473.76L-662.20,488.96L-662.20,490.48L-660.68,492L-657.64,492L-654.60,490.48L-647,482.88L-648.52,481.36L-656.12,488.96ZM-621.16,472.24L-622.68,470.72L-625.72,475.28L-627.24,472.24L-633.32,470.72L-640.92,476.80L-643.96,484.40L-642.44,490.48L-639.40,492L-636.36,492L-631.80,487.44L-631.80,490.48L-630.28,492L-625.72,490.48L-618.12,482.88L-619.64,481.36L-627.24,488.96L-628.76,488.96ZM-636.36,488.96L-637.88,488.96L-639.40,484.40L-636.36,478.32L-631.80,473.76L-628.76,473.76L-627.24,476.80L-627.24,478.32L-631.80,484.40ZM-613.56,488.96L-599.88,460.08L-610.52,460.08L-610.52,461.60L-605.96,461.60L-618.12,488.96L-618.12,490.48L-615.08,492L-610.52,490.48L-602.92,482.88L-604.44,481.36L-612.04,488.96ZM-586.20,467.68L-584.68,467.68L-583.16,464.64L-583.16,463.12L-586.20,461.60L-587.72,461.60L-589.24,464.64L-589.24,466.16ZM-602.92,479.84L-601.40,481.36L-593.80,473.76L-592.28,473.76L-601.40,488.96L-601.40,490.48L-599.88,492L-596.84,492L-593.80,490.48L-586.20,482.88L-587.72,481.36L-595.32,488.96L-596.84,488.96L-587.72,473.76L-587.72,472.24L-590.76,470.72L-595.32,472.24ZM-564.92,478.32L-564.92,475.28L-566.44,472.24L-572.52,470.72L-580.12,475.28L-584.68,484.40L-583.16,490.48L-580.12,492L-577.08,492L-574.04,490.48L-567.96,484.40L-569.48,482.88L-575.56,488.96L-578.60,488.96L-580.12,484.40L-577.08,478.32L-572.52,473.76L-569.48,473.76L-569.48,478.32Z"/>
</svg>