<?xml version="1.0"?>
<svg xmlns="http://www.w3.org/2000/svg" width="1920" height="1080" viewBox="-960 -540 1920 1080">
    <path d="M-1.88,-210L46.13,-210L-45.63,-404.25L-122.88,-404.25L-214.63,-210L-166.88,-210L-140.13,-268.75L-28.63,-268.75ZM-90.63,-377L-77.88,-377L-41.13,-296.25L-127.63,-296.25ZM-715,-85.65L-806.50,-85.65L-806.50,108.60L-710,108.60C-643.50,108.60 -613.50,88.85 -613.50,51.85C-613.50,14.85 -650.50,8.35 -654,7.85C-650.75,7.35 -618.50,1.10 -618.50,-31.40C-618.50,-68.40 -648.50,-85.65 -715,-85.65ZM-712.50,-4.40L-762,-4.40L-762,-58.40L-712.50,-58.40C-684,-58.40 -664.75,-51.40 -664.75,-31.40C-664.75,-11.40 -684,-4.40 -712.50,-4.40ZM-762,81.10L-762,22.10L-705.25,22.10C-678,22.10 -659.75,32.10 -659.75,51.60C-659.75,71.60 -679,81.10 -707.50,81.10ZM-542,41.60L-420.50,44.10C-416.75,24.35 -421,-33.40 -499.25,-33.40C-551,-33.40 -583.50,-2.15 -583.50,39.10C-583.50,86.10 -544,111.85 -499.25,111.85C-427.25,111.85 -416.75,62.60 -416.75,62.60L-456.75,52.35C-456.75,52.35 -457,84.35 -495,84.35C-528.75,84.35 -541.75,63.10 -542,41.60ZM-463.25,19.60L-539.50,22.10C-539.50,22.10 -534.50,-7.15 -500,-7.15C-466.75,-7.15 -463.25,19.60 -463.25,19.60ZM-308,66.10C-259.25,66.10 -230,44.60 -230,16.60C-230,7.60 -233,-0.65 -238.75,-7.90C-243.75,-17.15 -244,-23.40 -229.75,-23.40C-226.75,-23.40 -218,-22.90 -208.25,-21.40L-217.75,-52.15C-224.50,-52.65 -232.25,-53.15 -235.75,-53.15C-249.25,-53.15 -257.50,-45.90 -257.50,-33.40C-257.50,-29.40 -255,-24.65 -251.50,-19.40C-265,-28.15 -284.50,-33.40 -308.50,-33.40C-358,-33.40 -387,-11.65 -387,16.60C-387,35.35 -374.25,50.85 -351.25,59.35C-360.50,60.60 -386.25,65.10 -386.25,82.35C-386.25,102.85 -354.75,107.10 -351.50,107.35C-355.50,107.85 -394.25,111.85 -394.25,136.35C-394.25,150.35 -381,167.85 -337.25,167.85L-282,167.85C-239,167.85 -212.50,152.10 -212.50,126.10C-212.50,106.35 -223.75,84.35 -269.50,84.35L-320.75,84.35C-337.50,84.35 -346,81.60 -346,73.60C-346,65.10 -337.50,64.10 -332.25,64.35C-325,65.60 -316.75,66.10 -308,66.10ZM-345.25,16.60C-345.25,1.85 -335.75,-9.15 -308.50,-9.15C-281.25,-9.15 -272.25,1.85 -272.25,16.60C-272.25,30.85 -281.25,41.85 -308.50,41.85C-335.75,41.85 -345.25,30.85 -345.25,16.60ZM-277.75,111.60C-261.25,112.60 -256,118.85 -256,128.85C-256,145.35 -274.75,148.10 -304.75,148.10C-339.50,148.10 -350.75,142.85 -350.75,129.10C-350.75,108.60 -327.50,108.60 -326.50,108.60ZM-185.75,-53.90L-144.50,-53.90L-144.50,-85.65L-185.75,-85.65ZM-185.75,108.60L-144.50,108.60L-144.50,-30.15L-185.75,-30.15ZM18,108.60L59.25,108.60L59.25,23.60C59.25,-11.65 40.25,-33.40 -5.75,-33.40C-60.75,-33.40 -63.75,9.10 -63.75,9.10L-75.50,-30.15L-99.50,-30.15L-99.50,108.60L-58.25,108.60L-58.25,24.60C-58.25,24.60 -49.75,-5.90 -17,-5.90C5.25,-5.90 18,3.10 18,21.60ZM221.75,108.60L263,108.60L263,23.60C263,-11.65 244,-33.40 198,-33.40C143,-33.40 140,9.10 140,9.10L128.25,-30.15L104.25,-30.15L104.25,108.60L145.50,108.60L145.50,24.60C145.50,24.60 154,-5.90 186.75,-5.90C209,-5.90 221.75,3.10 221.75,21.60ZM308,-53.90L349.25,-53.90L349.25,-85.65L308,-85.65ZM308,108.60L349.25,108.60L349.25,-30.15L308,-30.15ZM511.75,108.60L553,108.60L553,23.60C553,-11.65 534,-33.40 488,-33.40C433,-33.40 430,9.10 430,9.10L418.25,-30.15L394.25,-30.15L394.25,108.60L435.50,108.60L435.50,24.60C435.50,24.60 444,-5.90 476.75,-5.90C499,-5.90 511.75,3.10 511.75,21.60ZM669.25,66.10C718,66.10 747.25,44.60 747.25,16.60C747.25,7.60 744.25,-0.65 738.50,-7.90C733.50,-17.15 733.25,-23.40 747.50,-23.40C750.50,-23.40 759.25,-22.90 769,-21.40L759.50,-52.15C752.75,-52.65 745,-53.15 741.50,-53.15C728,-53.15 719.75,-45.90 719.75,-33.40C719.75,-29.40 722.25,-24.65 725.75,-19.40C712.25,-28.15 692.75,-33.40 668.75,-33.40C619.25,-33.40 590.25,-11.65 590.25,16.60C590.25,35.35 603,50.85 626,59.35C616.75,60.60 591,65.10 591,82.35C591,102.85 622.50,107.10 625.75,107.35C621.75,107.85 583,111.85 583,136.35C583,150.35 596.25,167.85 640,167.85L695.25,167.85C738.25,167.85 764.75,152.10 764.75,126.10C764.75,106.35 753.50,84.35 707.75,84.35L656.50,84.35C639.75,84.35 631.25,81.60 631.25,73.60C631.25,65.10 639.75,64.10 645,64.35C652.25,65.60 660.50,66.10 669.25,66.10ZM632,16.60C632,1.85 641.50,-9.15 668.75,-9.15C696,-9.15 705,1.85 705,16.60C705,30.85 696,41.85 668.75,41.85C641.50,41.85 632,30.85 632,16.60ZM699.50,111.60C716,112.60 721.25,118.85 721.25,128.85C721.25,145.35 702.50,148.10 672.50,148.10C637.75,148.10 626.50,142.85 626.50,129.10C626.50,108.60 649.75,108.60 650.75,108.60Z" fill="#ffffff" stroke="#000000"/>
    <path d="M-21.23,-203.98L26.19,-207.10L-77.07,-393.03L-153.39,-388.01L-231.40,-190.15L-184.23,-193.25L-161.62,-253.03L-51.47,-260.27ZM-119.76,-363.18L-107.16,-364.01L-65.61,-286.63L-151.06,-281.01ZM-717.62,-34.79L-808.01,-28.85L-795.39,163.05L-700.06,156.77C-634.37,152.45 -606.01,130.99 -608.42,94.44C-610.82,57.89 -647.80,53.87 -651.29,53.61C-648.11,52.90 -616.66,44.63 -618.77,12.53C-621.17,-24.02 -651.93,-39.11 -717.62,-34.79ZM-709.87,45.31L-758.77,48.53L-762.28,-4.82L-713.38,-8.04C-685.23,-9.89 -665.76,-4.22 -664.46,15.53C-663.16,35.29 -681.72,43.46 -709.87,45.31ZM-753.21,132.99L-757.05,74.70L-700.99,71.02C-674.07,69.24 -655.39,77.94 -654.12,97.20C-652.82,116.96 -671.22,127.59 -699.38,129.45ZM-538.45,79.67L-418.26,74.24C-415.84,54.49 -423.79,-2.28 -501.09,2.80C-552.22,6.17 -582.29,39.15 -579.61,79.90C-576.56,126.33 -535.86,149.20 -491.66,146.29C-420.53,141.61 -413.36,92.28 -413.36,92.28L-453.54,84.75C-453.54,84.75 -451.71,116.38 -489.24,118.85C-522.58,121.04 -536.81,100.89 -538.45,79.67ZM-462.09,52.82L-537.25,60.24C-537.25,60.24 -534.21,31.02 -500.13,28.78C-467.28,26.62 -462.09,52.82 -462.09,52.82ZM-305.70,88.67C-257.54,85.50 -230.04,62.36 -231.86,34.70C-232.45,25.81 -235.95,17.85 -242.10,11.06C-247.64,2.25 -248.29,-3.91 -234.21,-4.83C-231.25,-5.03 -222.57,-5.10 -212.85,-4.25L-224.23,-34.01C-230.93,-34.07 -238.62,-34.06 -242.08,-33.83C-255.41,-32.95 -263.09,-25.26 -262.28,-12.91C-262.02,-8.96 -259.24,-4.43 -255.44,0.53C-269.35,-7.23 -288.95,-11.15 -312.66,-9.59C-361.56,-6.38 -388.79,16.99 -386.96,44.90C-385.74,63.42 -372.14,77.91 -348.86,84.81C-357.92,86.65 -383.06,92.76 -381.94,109.80C-380.61,130.06 -349.22,132.21 -345.99,132.24C-349.91,133.00 -387.93,139.47 -386.34,163.67C-385.43,177.50 -371.20,193.93 -327.98,191.08L-273.40,187.49C-230.92,184.70 -205.77,167.42 -207.46,141.73C-208.74,122.22 -221.29,101.22 -266.48,104.19L-317.11,107.52C-333.66,108.61 -342.23,106.45 -342.75,98.55C-343.30,90.15 -334.97,88.61 -329.77,88.51C-322.53,89.28 -314.34,89.24 -305.70,88.67ZM-345.71,42.19C-346.67,27.62 -338.00,16.13 -311.08,14.36C-284.16,12.59 -274.56,22.87 -273.60,37.44C-272.67,51.52 -280.85,62.97 -307.77,64.74C-334.69,66.51 -344.79,56.27 -345.71,42.19ZM-272.86,131.65C-256.49,131.56 -250.90,137.40 -250.25,147.28C-249.18,163.58 -267.52,167.51 -297.16,169.46C-331.49,171.72 -342.94,167.26 -343.84,153.68C-345.17,133.43 -322.20,131.92 -321.21,131.85ZM-192.73,-37.82L-151.98,-40.50L-154.04,-71.87L-194.79,-69.19ZM-182.17,122.71L-141.42,120.03L-150.44,-17.04L-191.19,-14.36ZM19.11,109.47L59.86,106.79L54.33,22.82C52.04,-12.01 31.86,-32.26 -13.58,-29.27C-67.92,-25.69 -68.12,16.49 -68.12,16.49L-82.28,-21.52L-105.98,-19.96L-96.97,117.10L-56.22,114.42L-61.68,31.44C-61.68,31.44 -55.26,0.76 -22.91,-1.37C-0.93,-2.82 12.25,5.25 13.45,23.52ZM220.38,96.23L261.13,93.54L255.61,9.58C253.32,-25.25 233.14,-45.50 187.69,-42.51C133.36,-38.93 133.16,3.25 133.16,3.25L119.00,-34.76L95.29,-33.21L104.31,103.86L145.06,101.18L139.60,18.20C139.60,18.20 146.02,-12.48 178.37,-14.61C200.35,-16.06 213.53,-7.99 214.73,10.28ZM295.03,-69.91L335.78,-72.59L333.71,-103.95L292.96,-101.27ZM305.59,90.62L346.34,87.94L337.32,-49.13L296.57,-46.45ZM506.86,77.38L547.61,74.70L542.09,-9.27C539.80,-44.09 519.62,-64.34 474.18,-61.35C419.84,-57.78 419.64,-15.60 419.64,-15.60L405.48,-53.61L381.77,-52.05L390.79,85.02L431.54,82.33L426.08,-0.65C426.08,-0.65 432.50,-31.33 464.85,-33.46C486.83,-34.90 500.01,-26.84 501.21,-8.56ZM659.69,25.16C707.85,21.99 735.35,-1.15 733.53,-28.81C732.94,-37.70 729.44,-45.65 723.29,-52.44C717.75,-61.25 717.10,-67.41 731.18,-68.34C734.14,-68.53 742.82,-68.61 752.55,-67.76L741.16,-97.52C734.46,-97.57 726.77,-97.57 723.32,-97.34C709.98,-96.46 702.30,-88.76 703.11,-76.41C703.37,-72.46 706.15,-67.93 709.95,-62.97C696.05,-70.74 676.44,-74.66 652.73,-73.10C603.83,-69.88 576.60,-46.51 578.43,-18.61C579.65,-0.08 593.25,14.40 616.53,21.30C607.47,23.14 582.33,29.26 583.45,46.30C584.78,66.55 616.17,68.70 619.40,68.74C615.48,69.49 577.46,75.96 579.05,100.16C579.96,113.99 594.19,130.42 637.41,127.58L691.99,123.99C734.47,121.19 759.62,103.91 757.93,78.23C756.65,58.72 744.11,37.71 698.91,40.69L648.28,44.02C631.74,45.11 623.16,42.94 622.64,35.04C622.09,26.64 630.42,25.10 635.62,25.01C642.87,25.77 651.05,25.73 659.69,25.16ZM619.68,-21.32C618.72,-35.89 627.39,-47.37 654.31,-49.14C681.23,-50.91 690.83,-40.63 691.79,-26.06C692.72,-11.99 684.54,-0.53 657.62,1.24C630.70,3.01 620.60,-7.24 619.68,-21.32ZM692.53,68.14C708.90,68.06 714.49,73.89 715.14,83.77C716.21,100.07 697.87,104.00 668.23,105.95C633.90,108.21 622.45,103.76 621.55,90.17C620.22,69.92 643.19,68.41 644.18,68.35Z" fill="#ffffff" stroke="#000000"/>
    <path d="M-39.67,-196.42L6.96,-202.58L-107.11,-379.52L-182.17,-369.61L-246.37,-169.10L-199.98,-175.23L-181.53,-235.75L-73.20,-250.06ZM-147.33,-347.27L-134.95,-348.91L-88.88,-275.17L-172.92,-264.07ZM-716.55,15.95L-805.44,27.69L-780.51,216.42L-686.75,204.03C-622.14,195.49 -595.53,172.45 -600.28,136.51C-605.03,100.56 -641.81,98.99 -645.28,98.96C-642.18,98.05 -611.65,87.84 -615.83,56.27C-620.58,20.32 -651.94,7.41 -716.55,15.95ZM-703.69,94.57L-751.78,100.92L-758.71,48.46L-710.62,42.10C-682.93,38.44 -663.33,42.77 -660.76,62.20C-658.19,81.63 -676.00,90.91 -703.69,94.57ZM-740.80,183.99L-748.38,126.67L-693.24,119.38C-666.77,115.88 -647.75,123.25 -645.25,142.20C-642.68,161.63 -660.16,173.33 -687.85,176.99ZM-532.13,117.37L-413.77,104.20C-412.66,84.53 -424.20,28.97 -500.22,39.01C-550.50,45.66 -578.07,80.19 -572.77,120.27C-566.74,165.93 -525.05,185.88 -481.58,180.13C-411.63,170.89 -407.75,121.69 -407.75,121.69L-447.93,116.87C-447.93,116.87 -444.06,147.99 -480.98,152.87C-513.77,157.20 -529.13,138.22 -532.13,117.37ZM-458.44,85.88L-532.21,98.10C-532.21,98.10 -531.10,69.04 -497.58,64.61C-465.28,60.34 -458.44,85.88 -458.44,85.88ZM-301.64,111.13C-254.28,104.87 -228.62,80.23 -232.21,53.02C-233.37,44.28 -237.34,36.65 -243.86,30.35C-249.91,22.00 -250.95,15.96 -237.11,14.13C-234.19,13.75 -225.63,13.11 -215.96,13.31L-229.14,-15.34C-235.76,-14.96 -243.36,-14.45 -246.76,-14.00C-259.87,-12.27 -266.96,-4.17 -265.35,7.98C-264.84,11.86 -261.80,16.16 -257.72,20.81C-271.96,14.04 -291.58,11.44 -314.90,14.52C-362.99,20.88 -388.38,45.73 -384.75,73.18C-382.34,91.40 -367.96,104.82 -344.53,110.12C-353.35,112.53 -377.79,120.20 -375.58,136.96C-372.95,156.88 -341.80,156.97 -338.61,156.79C-342.43,157.79 -379.56,166.65 -376.42,190.45C-374.62,204.06 -359.50,219.36 -317.00,213.74L-263.32,206.65C-221.54,201.13 -197.82,182.42 -201.16,157.16C-203.69,137.98 -217.44,118.05 -261.89,123.92L-311.69,130.50C-327.96,132.65 -336.57,131.07 -337.60,123.30C-338.69,115.04 -330.56,112.97 -325.43,112.54C-318.22,112.83 -310.14,112.25 -301.64,111.13ZM-344.19,67.82C-346.08,53.49 -338.26,41.58 -311.79,38.09C-285.31,34.59 -275.16,44.12 -273.26,58.45C-271.43,72.29 -278.77,84.14 -305.24,87.63C-331.72,91.13 -342.36,81.67 -344.19,67.82ZM-266.41,151.45C-250.25,150.31 -244.35,155.70 -243.06,165.42C-240.95,181.45 -258.81,186.53 -287.96,190.38C-321.72,194.84 -333.32,191.19 -335.09,177.83C-337.72,157.91 -315.13,154.92 -314.16,154.80ZM-198.27,-21.15L-158.20,-26.45L-162.27,-57.29L-202.35,-52.00ZM-177.41,136.73L-137.34,131.43L-155.15,-3.37L-195.23,1.92ZM20.54,110.57L60.62,105.27L49.71,22.69C45.18,-11.56 23.93,-30.25 -20.76,-24.34C-74.20,-17.28 -71.66,24.40 -71.66,24.40L-88.11,-12.23L-111.43,-9.15L-93.62,125.65L-53.54,120.36L-64.32,38.75C-64.32,38.75 -59.98,8.02 -28.16,3.82C-6.55,0.96 7.00,8.07 9.37,26.04ZM218.50,84.41L258.57,79.12L247.66,-3.47C243.13,-37.71 221.88,-56.40 177.19,-50.50C123.76,-43.44 126.30,-1.76 126.30,-1.76L109.84,-38.39L86.53,-35.31L104.34,99.50L144.41,94.20L133.63,12.59C133.63,12.59 137.97,-18.13 169.79,-22.34C191.41,-25.19 204.95,-18.09 207.33,-0.11ZM281.43,-84.54L321.51,-89.83L317.43,-120.68L277.35,-115.38ZM302.29,73.34L342.37,68.04L324.56,-66.76L284.48,-61.46ZM500.25,47.18L540.32,41.89L529.41,-40.70C524.89,-74.94 503.63,-93.63 458.94,-87.73C405.51,-80.67 408.05,-38.99 408.05,-38.99L391.59,-75.62L368.28,-72.54L386.09,62.27L426.17,56.97L415.38,-24.64C415.38,-24.64 419.72,-55.36 451.54,-59.57C473.16,-62.42 486.70,-55.32 489.08,-37.34ZM647.81,-14.33C695.17,-20.59 720.83,-45.23 717.24,-72.43C716.08,-81.18 712.11,-88.81 705.59,-95.11C699.55,-103.46 698.50,-109.50 712.34,-111.33C715.26,-111.71 723.82,-112.35 733.49,-112.15L720.31,-140.80C713.69,-140.42 706.10,-139.91 702.70,-139.46C689.58,-137.73 682.50,-129.63 684.10,-117.48C684.61,-113.59 687.65,-109.30 691.73,-104.65C677.49,-111.42 657.87,-114.01 634.55,-110.93C586.46,-104.58 561.08,-79.72 564.70,-52.28C567.11,-34.06 581.49,-20.64 604.92,-15.33C596.10,-12.93 571.66,-5.25 573.87,11.51C576.50,31.42 607.65,31.51 610.84,31.33C607.02,32.33 569.89,41.19 573.03,65.00C574.83,78.60 589.95,93.90 632.46,88.28L686.13,81.19C727.91,75.67 751.63,56.97 748.30,31.70C745.76,12.52 732.01,-7.41 687.56,-1.54L637.77,5.04C621.49,7.19 612.88,5.61 611.85,-2.16C610.76,-10.42 618.89,-12.48 624.03,-12.92C631.23,-12.63 639.31,-13.20 647.81,-14.33ZM605.27,-57.64C603.37,-71.97 611.19,-83.88 637.66,-87.37C664.14,-90.87 674.30,-81.34 676.19,-67.01C678.02,-53.16 670.69,-41.32 644.21,-37.82C617.74,-34.33 607.09,-43.79 605.27,-57.64ZM683.04,25.99C699.20,24.85 705.10,30.25 706.39,39.96C708.51,55.99 690.64,61.07 661.50,64.92C627.73,69.38 616.13,65.73 614.36,52.37C611.73,32.45 634.32,29.47 635.29,29.34Z" fill="#ffffff" stroke="#000000"/>
    <path d="M-57.08,-187.42L-11.42,-196.54L-135.59,-363.89L-209.07,-349.22L-259.45,-147.02L-214.03,-156.09L-199.74,-217.05L-93.68,-238.23ZM-173.22,-329.42L-161.09,-331.84L-110.80,-262.01L-193.08,-245.58ZM-711.81,66.30L-798.84,83.68L-761.95,268.45L-670.16,250.12C-606.90,237.50 -582.12,213.01 -589.14,177.82C-596.17,142.62 -632.60,143.46 -636.02,143.65C-633.03,142.56 -603.54,130.49 -609.71,99.58C-616.74,64.38 -648.55,53.67 -711.81,66.30ZM-694.00,143.11L-741.08,152.51L-751.34,101.15L-704.25,91.74C-677.14,86.33 -657.50,89.33 -653.70,108.36C-649.91,127.38 -666.89,137.70 -694.00,143.11ZM-724.84,233.84L-736.05,177.72L-682.07,166.94C-656.15,161.77 -636.89,167.81 -633.18,186.36C-629.39,205.39 -645.89,218.08 -673.00,223.49ZM-523.08,154.49L-407.03,133.79C-407.21,114.29 -422.22,60.16 -496.66,75.03C-545.88,84.85 -570.86,120.75 -563.03,159.99C-554.10,204.70 -511.64,221.69 -469.07,213.19C-400.58,199.52 -399.95,150.67 -399.95,150.67L-439.94,148.52C-439.94,148.52 -434.10,179.01 -470.25,186.23C-502.35,192.63 -518.76,174.89 -523.08,154.49ZM-452.35,118.60L-524.40,135.46C-524.40,135.46 -525.20,106.69 -492.38,100.14C-460.76,93.82 -452.35,118.60 -452.35,118.60ZM-295.84,133.35C-249.46,124.09 -225.72,98.09 -231.04,71.45C-232.75,62.89 -237.17,55.61 -244.02,49.81C-250.53,41.96 -251.96,36.06 -238.40,33.35C-235.55,32.78 -227.13,31.60 -217.57,31.17L-232.45,3.73C-238.96,4.53 -246.43,5.53 -249.76,6.20C-262.60,8.76 -269.07,17.22 -266.70,29.11C-265.94,32.92 -262.66,36.96 -258.33,41.29C-272.83,35.53 -292.38,34.24 -315.21,38.80C-362.30,48.20 -385.75,74.40 -380.38,101.27C-376.82,119.10 -361.75,131.43 -338.26,135.14C-346.82,138.09 -370.46,147.26 -367.18,163.67C-363.29,183.17 -332.52,181.23 -329.38,180.85C-333.09,182.09 -369.19,193.25 -364.54,216.55C-361.88,229.87 -345.95,244.00 -304.34,235.69L-251.78,225.20C-210.88,217.03 -188.66,197.02 -193.60,172.29C-197.35,153.50 -212.23,134.71 -255.75,143.40L-304.50,153.13C-320.43,156.31 -329.04,155.31 -330.56,147.70C-332.17,139.62 -324.28,137.05 -319.24,136.29C-312.10,136.10 -304.16,135.01 -295.84,133.35ZM-340.67,93.34C-343.47,79.31 -336.52,67.04 -310.60,61.87C-284.68,56.69 -274.03,65.44 -271.23,79.48C-268.53,93.03 -275.00,105.20 -300.92,110.38C-326.84,115.55 -337.96,106.89 -340.67,93.34ZM-258.42,170.89C-242.54,168.70 -236.35,173.65 -234.46,183.16C-231.32,198.86 -248.64,205.04 -277.17,210.73C-310.23,217.33 -321.93,214.48 -324.54,201.40C-328.43,181.90 -306.31,177.48 -305.36,177.29ZM-202.34,-4.01L-163.10,-11.85L-169.13,-42.05L-208.37,-34.22ZM-171.48,150.56L-132.24,142.73L-158.59,10.74L-197.83,18.58ZM22.33,111.86L61.57,104.03L45.43,23.18C38.73,-10.35 16.53,-27.44 -27.23,-18.70C-79.54,-8.25 -74.33,32.74 -74.33,32.74L-92.96,-2.36L-115.79,2.20L-89.43,134.18L-50.20,126.35L-66.15,46.44C-66.15,46.44 -63.86,15.82 -32.70,9.60C-11.54,5.37 2.30,11.51 5.81,29.11ZM216.15,73.17L255.38,65.33L239.24,-15.52C232.55,-49.05 210.34,-66.13 166.59,-57.40C114.27,-46.95 119.49,-5.95 119.49,-5.95L100.86,-41.06L78.03,-36.50L104.38,95.48L143.62,87.65L127.66,7.75C127.66,7.75 129.96,-22.88 161.11,-29.10C182.27,-33.33 196.11,-27.19 199.62,-9.59ZM267.33,-97.79L306.57,-105.62L300.54,-135.82L261.30,-127.99ZM298.19,56.79L337.43,48.95L311.08,-83.03L271.84,-75.19ZM492.00,18.09L531.24,10.26L515.10,-70.60C508.40,-104.13 486.20,-121.21 442.44,-112.47C390.12,-102.03 395.34,-61.03 395.34,-61.03L376.71,-96.13L353.88,-91.58L380.23,40.41L419.47,32.57L403.52,-47.33C403.52,-47.33 405.81,-77.96 436.96,-84.18C458.13,-88.40 471.97,-82.26 475.48,-64.66ZM633.75,-52.25C680.12,-61.51 703.86,-87.51 698.54,-114.15C696.83,-122.71 692.41,-129.99 685.57,-135.79C679.05,-143.64 677.63,-149.54 691.18,-152.24C694.04,-152.81 702.46,-154.00 712.02,-154.42L697.14,-181.87C690.62,-181.06 683.16,-180.07 679.83,-179.40C666.99,-176.84 660.51,-168.38 662.89,-156.49C663.65,-152.68 666.93,-148.64 671.26,-144.31C656.75,-150.07 637.21,-151.36 614.38,-146.80C567.29,-137.40 543.84,-111.20 549.20,-84.33C552.76,-66.49 567.83,-54.17 591.33,-50.45C582.76,-47.51 559.13,-38.34 562.40,-21.93C566.29,-2.43 597.07,-4.37 600.20,-4.75C596.49,-3.51 560.39,7.65 565.05,30.96C567.71,44.27 583.63,58.40 625.25,50.10L677.80,39.60C718.71,31.44 740.92,11.42 735.99,-13.31C732.24,-32.10 717.36,-50.89 673.84,-42.20L625.09,-32.47C609.15,-29.28 600.55,-30.29 599.03,-37.90C597.41,-45.98 605.31,-48.55 610.35,-49.31C617.48,-49.49 625.43,-50.59 633.75,-52.25ZM588.91,-92.26C586.11,-106.29 593.06,-118.56 618.98,-123.73C644.90,-128.91 655.55,-120.15 658.35,-106.12C661.06,-92.57 654.59,-80.39 628.67,-75.22C602.75,-70.04 591.62,-78.70 588.91,-92.26ZM671.16,-14.71C687.05,-16.89 693.23,-11.95 695.13,-2.43C698.26,13.26 680.95,19.44 652.41,25.14C619.36,31.74 607.66,28.88 605.05,15.80C601.16,-3.70 623.27,-8.12 624.22,-8.31Z" fill="#ffffff" stroke="#000000"/>
    <path d="M-73.36,-177.10L-28.86,-189.07L-162.35,-346.27L-233.97,-327.01L-270.59,-124.05L-226.32,-135.96L-216.17,-197.10L-112.81,-224.90ZM-197.28,-309.79L-185.46,-312.97L-131.25,-247.28L-211.44,-225.71ZM-703.46,115.99L-788.28,138.81L-739.84,318.89L-650.38,294.83C-588.74,278.24 -565.85,252.45 -575.07,218.15C-584.30,183.85 -620.22,187.05 -623.59,187.46C-620.70,186.19 -592.36,172.35 -600.47,142.22C-609.69,107.92 -641.81,99.41 -703.46,115.99ZM-680.88,190.69L-726.77,203.04L-740.23,152.97L-694.34,140.63C-667.92,133.53 -648.33,135.21 -643.34,153.76C-638.36,172.30 -654.46,183.59 -680.88,190.69ZM-705.45,282.30L-720.16,227.60L-667.55,213.45C-642.29,206.66 -622.87,211.38 -618.01,229.45C-613.03,248.00 -628.50,261.60 -654.92,268.71ZM-511.35,190.82L-398.09,162.84C-399.53,143.60 -417.87,91.12 -490.42,110.63C-538.39,123.54 -560.73,160.61 -550.44,198.85C-538.72,242.42 -495.68,256.45 -454.20,245.29C-387.45,227.33 -390.00,179.06 -390.00,179.06L-429.63,179.53C-429.63,179.53 -421.89,209.26 -457.11,218.73C-488.40,227.15 -505.75,210.69 -511.35,190.82ZM-443.83,150.79L-513.89,172.12C-513.89,172.12 -516.55,143.76 -484.57,135.16C-453.74,126.87 -443.83,150.79 -443.83,150.79ZM-288.31,155.19C-243.11,143.03 -221.36,115.81 -228.34,89.85C-230.58,81.51 -235.42,74.61 -242.56,69.32C-249.50,61.99 -251.29,56.26 -238.08,52.70C-235.30,51.96 -227.06,50.24 -217.65,49.20L-234.13,23.06C-240.51,24.28 -247.82,25.75 -251.06,26.62C-263.58,29.99 -269.42,38.77 -266.30,50.35C-265.30,54.06 -261.80,57.84 -257.25,61.84C-271.94,57.09 -291.33,57.09 -313.58,63.07C-359.47,75.41 -380.93,102.81 -373.89,129.00C-369.21,146.38 -353.53,157.57 -330.08,159.71C-338.35,163.18 -361.10,173.77 -356.80,189.76C-351.68,208.77 -321.42,204.85 -318.35,204.27C-321.93,205.74 -356.86,219.11 -350.75,241.82C-347.26,254.80 -330.61,267.72 -290.05,256.81L-238.83,243.03C-198.97,232.31 -178.33,211.10 -184.81,187.00C-189.74,168.69 -205.65,151.10 -248.06,162.51L-295.58,175.29C-311.10,179.46 -319.67,179.03 -321.66,171.62C-323.78,163.74 -316.15,160.69 -311.22,159.61C-304.19,158.96 -296.42,157.37 -288.31,155.19ZM-335.18,118.59C-338.86,104.91 -332.80,92.35 -307.53,85.55C-282.27,78.76 -271.19,86.71 -267.51,100.38C-263.95,113.59 -269.55,126.04 -294.82,132.83C-320.08,139.63 -331.63,131.80 -335.18,118.59ZM-248.92,189.83C-233.37,186.64 -226.95,191.12 -224.45,200.39C-220.34,215.69 -237.04,222.91 -264.85,230.40C-297.06,239.06 -308.80,237.00 -312.23,224.25C-317.34,205.25 -295.79,199.45 -294.86,199.20ZM-204.90,13.46L-166.66,3.17L-174.57,-26.26L-212.81,-15.98ZM-164.38,164.10L-126.14,153.82L-160.73,25.19L-198.97,35.48ZM24.51,113.30L62.75,103.01L41.56,24.21C32.77,-8.47 9.73,-23.89 -32.92,-12.42C-83.90,1.29 -76.09,41.44 -76.09,41.44L-96.77,7.98L-119.02,13.97L-84.42,142.60L-46.18,132.31L-67.12,54.44C-67.12,54.44 -66.85,24.04 -36.49,15.88C-15.86,10.33 -1.80,15.49 2.82,32.65ZM213.40,62.49L251.64,52.21L230.44,-26.59C221.65,-59.27 198.62,-74.70 155.97,-63.23C104.98,-49.51 112.80,-9.36 112.80,-9.36L92.12,-42.82L69.87,-36.84L104.47,91.79L142.71,81.51L121.76,3.63C121.76,3.63 122.04,-26.76 152.40,-34.93C173.03,-40.47 187.09,-35.31 191.70,-18.16ZM252.83,-109.66L291.08,-119.94L283.16,-149.38L244.92,-139.09ZM293.35,40.99L331.60,30.70L297.00,-97.93L258.76,-87.64ZM482.24,-9.82L520.48,-20.10L499.29,-98.90C490.50,-131.58 467.46,-147.01 424.82,-135.54C373.83,-121.82 381.64,-81.68 381.64,-81.68L360.96,-115.13L338.72,-109.15L373.31,19.48L411.55,9.19L390.61,-68.68C390.61,-68.68 390.88,-99.07 421.24,-107.24C441.87,-112.79 455.93,-107.62 460.55,-90.47ZM617.65,-88.49C662.85,-100.65 684.60,-127.87 677.62,-153.83C675.38,-162.17 670.54,-169.07 663.40,-174.36C656.46,-181.69 654.67,-187.42 667.88,-190.97C670.66,-191.72 678.90,-193.44 688.31,-194.48L671.83,-220.62C665.45,-219.40 658.14,-217.93 654.90,-217.06C642.38,-213.69 636.54,-204.91 639.66,-193.32C640.66,-189.62 644.16,-185.84 648.71,-181.84C634.02,-186.59 614.63,-186.59 592.38,-180.61C546.49,-168.27 525.03,-140.87 532.07,-114.68C536.75,-97.30 552.43,-86.11 575.88,-83.96C567.61,-80.50 544.86,-69.91 549.16,-53.91C554.28,-34.91 584.54,-38.82 587.61,-39.40C584.03,-37.94 549.10,-24.57 555.21,-1.86C558.70,11.12 575.35,24.04 615.91,13.13L667.13,-0.65C706.99,-11.37 727.63,-32.58 721.15,-56.68C716.22,-74.99 700.31,-92.58 657.90,-81.17L610.38,-68.39C594.86,-64.22 586.29,-64.65 584.30,-72.06C582.18,-79.94 589.81,-82.99 594.74,-84.07C601.77,-84.72 609.54,-86.31 617.65,-88.49ZM570.78,-125.09C567.10,-138.77 573.16,-151.33 598.43,-158.13C623.69,-164.92 634.78,-156.97 638.45,-143.29C642.01,-130.08 636.41,-117.64 611.14,-110.85C585.88,-104.05 574.33,-111.88 570.78,-125.09ZM657.04,-53.85C672.59,-57.04 679.01,-52.56 681.51,-43.28C685.62,-27.99 668.93,-20.76 641.11,-13.28C608.90,-4.62 597.16,-6.68 593.73,-19.43C588.62,-38.43 610.17,-44.23 611.10,-44.48Z" fill="#ffffff" stroke="#000000"/>
    <path d="M-88.42,-165.58L-45.26,-180.29L-187.29,-326.85L-256.75,-303.17L-279.73,-100.38L-236.79,-115.02L-230.74,-176.04L-130.48,-210.21ZM-219.40,-288.55L-207.93,-292.46L-150.14,-231.11L-227.93,-204.60ZM-691.57,164.77L-773.85,192.81L-714.32,367.48L-627.55,337.91C-567.75,317.53 -546.82,290.58 -558.16,257.31C-569.50,224.04 -604.76,229.53 -608.06,230.15C-605.29,228.71 -578.21,213.20 -588.17,183.98C-599.51,150.71 -631.77,144.39 -691.57,164.77ZM-664.42,237.06L-708.93,252.23L-725.48,203.67L-680.97,188.51C-655.34,179.77 -635.89,180.17 -629.76,198.15C-623.63,216.14 -638.79,228.33 -664.42,237.06ZM-682.73,329.12L-700.81,276.06L-649.78,258.67C-625.28,250.32 -605.80,253.72 -599.83,271.26C-593.70,289.24 -608.10,303.68 -633.72,312.41ZM-497.01,226.18L-386.99,191.20C-389.67,172.29 -411.19,121.66 -481.55,145.64C-528.08,161.50 -547.73,199.56 -535.09,236.65C-520.69,278.91 -477.28,289.96 -437.04,276.25C-372.30,254.19 -377.95,206.68 -377.95,206.68L-417.06,209.72C-417.06,209.72 -407.47,238.57 -441.65,250.22C-471.99,260.56 -490.20,245.44 -497.01,226.18ZM-432.94,182.26L-500.74,207.88C-500.74,207.88 -505.20,180.04 -474.18,169.47C-444.28,159.28 -432.94,182.26 -432.94,182.26ZM-279.08,176.50C-235.25,161.56 -215.53,133.27 -224.11,108.09C-226.87,100.00 -232.10,93.50 -239.49,88.74C-246.82,81.95 -248.96,76.41 -236.15,72.04C-233.45,71.13 -225.43,68.89 -216.20,67.25L-234.17,42.51C-240.39,44.13 -247.51,46.06 -250.66,47.13C-262.80,51.27 -267.99,60.32 -264.16,71.56C-262.94,75.15 -259.23,78.66 -254.48,82.31C-269.30,78.58 -288.44,79.83 -310.02,87.18C-354.54,102.35 -373.95,130.80 -365.29,156.20C-359.54,173.06 -343.33,183.09 -320.04,183.69C-327.98,187.65 -349.75,199.58 -344.47,215.09C-338.19,233.53 -308.56,227.70 -305.56,226.93C-309.00,228.60 -342.62,244.07 -335.11,266.10C-330.82,278.69 -313.55,290.37 -274.21,276.96L-224.52,260.03C-185.86,246.85 -166.85,224.57 -174.82,201.19C-180.87,183.43 -197.73,167.10 -238.87,181.12L-284.96,196.82C-300.02,201.95 -308.50,202.09 -310.96,194.89C-313.56,187.25 -306.22,183.74 -301.43,182.36C-294.52,181.26 -286.95,179.18 -279.08,176.50ZM-327.75,143.41C-332.27,130.14 -327.10,117.34 -302.59,108.99C-278.09,100.64 -266.63,107.77 -262.11,121.04C-257.74,133.85 -262.46,146.50 -286.96,154.85C-311.47,163.20 -323.38,156.22 -327.75,143.41ZM-237.94,208.15C-222.80,203.99 -216.16,208.00 -213.10,216.99C-208.04,231.83 -224.06,240.05 -251.03,249.24C-282.28,259.89 -294.01,258.62 -298.22,246.25C-304.50,227.82 -283.59,220.70 -282.70,220.39ZM-205.93,31.13L-168.83,18.49L-178.56,-10.06L-215.66,2.58ZM-156.13,177.26L-119.04,164.62L-161.56,39.85L-198.65,52.49ZM27.09,114.82L64.18,102.18L38.13,25.75C27.33,-5.95 3.58,-19.69 -37.79,-5.59C-87.24,11.26 -76.92,50.40 -76.92,50.40L-99.51,18.71L-121.09,26.06L-78.57,150.83L-41.48,138.19L-67.22,62.65C-67.22,62.65 -68.92,32.62 -39.47,22.59C-19.47,15.77 -5.24,19.95 0.43,36.59ZM210.30,52.38L247.39,39.74L221.35,-36.69C210.54,-68.39 186.79,-82.12 145.43,-68.03C95.97,-51.17 106.30,-12.04 106.30,-12.04L83.71,-43.73L62.12,-36.38L104.64,88.39L141.74,75.75L115.99,0.22C115.99,0.22 114.29,-29.82 143.74,-39.85C163.75,-46.67 177.97,-42.48 183.64,-25.85ZM238.06,-120.17L275.16,-132.81L265.43,-161.36L228.33,-148.72ZM287.86,25.95L324.95,13.31L282.43,-111.45L245.34,-98.81ZM471.07,-36.48L508.17,-49.12L482.12,-125.56C471.32,-157.26 447.57,-170.99 406.20,-156.90C356.75,-140.04 367.07,-100.90 367.07,-100.90L344.48,-132.60L322.90,-125.24L365.42,-0.48L402.51,-13.12L376.77,-88.65C376.77,-88.65 375.07,-118.68 404.51,-128.72C424.52,-135.54 438.75,-131.35 444.41,-114.72ZM599.68,-122.97C643.51,-137.90 663.23,-166.20 654.65,-191.38C651.89,-199.47 646.66,-205.97 639.27,-210.73C631.94,-217.51 629.80,-223.06 642.62,-227.42C645.31,-228.34 653.33,-230.58 662.56,-232.21L644.60,-256.95C638.37,-255.34 631.25,-253.41 628.10,-252.34C615.96,-248.20 610.77,-239.15 614.60,-227.91C615.82,-224.32 619.53,-220.81 624.28,-217.16C609.46,-220.89 590.32,-219.64 568.74,-212.28C524.23,-197.12 504.81,-168.67 513.47,-143.27C519.22,-126.41 535.43,-116.38 558.72,-115.78C550.78,-111.82 529.01,-99.89 534.29,-84.37C540.58,-65.94 570.20,-71.77 573.20,-72.54C569.76,-70.87 536.14,-55.40 543.65,-33.36C547.94,-20.78 565.22,-9.10 604.56,-22.51L654.24,-39.44C692.90,-52.61 711.91,-74.90 703.94,-98.28C697.89,-116.04 681.03,-132.37 639.89,-118.35L593.81,-102.65C578.74,-97.51 570.26,-97.38 567.81,-104.58C565.20,-112.22 572.54,-115.72 577.34,-117.11C584.24,-118.21 591.81,-120.28 599.68,-122.97ZM551.01,-156.06C546.49,-169.33 551.66,-182.13 576.17,-190.48C600.67,-198.83 612.14,-191.70 616.66,-178.43C621.02,-165.62 616.30,-152.97 591.80,-144.62C567.29,-136.27 555.38,-143.25 551.01,-156.06ZM640.82,-91.32C655.97,-95.48 662.60,-91.47 665.67,-82.47C670.72,-67.64 654.71,-59.42 627.73,-50.23C596.48,-39.58 584.76,-40.85 580.54,-53.21C574.26,-71.65 595.17,-78.77 596.07,-79.08Z" fill="#ffffff" stroke="#000000"/>
    <path d="M-102.18,-152.97L-60.52,-170.30L-210.27,-305.77L-277.32,-277.89L-286.83,-76.18L-245.39,-93.41L-243.38,-154.06L-146.60,-194.31ZM-239.49,-265.88L-228.42,-270.48L-167.38,-213.66L-242.45,-182.44ZM-676.24,212.37L-755.65,245.40L-685.53,413.99L-601.78,379.16C-544.06,355.16 -525.15,327.19 -538.51,295.07C-551.86,262.96 -586.32,270.67 -589.54,271.50C-586.90,269.89 -561.17,252.83 -572.90,224.62C-586.25,192.51 -618.52,188.37 -676.24,212.37ZM-644.74,281.99L-687.70,299.85L-707.19,252.99L-664.23,235.12C-639.49,224.83 -620.26,223.96 -613.04,241.32C-605.82,258.67 -620.00,271.70 -644.74,281.99ZM-656.84,374.06L-678.13,322.85L-628.88,302.37C-605.23,292.53 -585.78,294.62 -578.74,311.55C-571.52,328.91 -584.80,344.10 -609.54,354.39ZM-480.15,260.37L-373.79,218.68C-377.67,200.18 -402.20,151.59 -470.12,179.84C-515.03,198.52 -531.96,237.37 -517.07,273.18C-500.11,313.97 -456.53,322.06 -417.69,305.91C-355.20,279.92 -363.86,233.38 -363.86,233.38L-402.28,238.92C-402.28,238.92 -390.95,266.79 -423.93,280.51C-453.22,292.69 -472.17,278.94 -480.15,260.37ZM-419.74,212.85L-485.02,242.54C-485.02,242.54 -491.24,215.35 -461.29,202.89C-432.44,190.89 -419.74,212.85 -419.74,212.85ZM-268.21,197.16C-225.90,179.57 -208.27,150.35 -218.38,126.05C-221.63,118.24 -227.21,112.16 -234.82,107.94C-242.50,101.72 -244.97,96.38 -232.60,91.24C-230.00,90.16 -222.22,87.43 -213.22,85.21L-232.56,61.96C-238.60,63.96 -245.51,66.32 -248.55,67.58C-260.27,72.46 -264.81,81.73 -260.30,92.58C-258.85,96.05 -254.97,99.27 -250.04,102.56C-264.91,99.84 -283.73,102.32 -304.56,110.99C-347.52,128.85 -364.84,158.20 -354.65,182.72C-347.88,198.99 -331.22,207.84 -308.19,206.92C-315.76,211.34 -336.49,224.54 -330.26,239.51C-322.86,257.31 -293.99,249.63 -291.08,248.67C-294.37,250.55 -326.56,268.01 -317.71,289.27C-312.66,301.42 -294.84,311.83 -256.87,296.04L-208.92,276.09C-171.60,260.57 -154.28,237.33 -163.67,214.77C-170.79,197.63 -188.50,182.59 -228.21,199.11L-272.69,217.61C-287.23,223.65 -295.60,224.33 -298.49,217.39C-301.55,210.01 -294.54,206.08 -289.89,204.40C-283.15,202.87 -275.81,200.32 -268.21,197.16ZM-318.41,167.65C-323.73,154.85 -319.46,141.87 -295.81,132.03C-272.16,122.20 -260.37,128.50 -255.05,141.30C-249.91,153.67 -253.75,166.46 -277.40,176.30C-301.05,186.13 -313.27,180.02 -318.41,167.65ZM-225.53,225.74C-210.85,220.65 -204.04,224.18 -200.43,232.86C-194.47,247.18 -209.75,256.33 -235.79,267.16C-265.95,279.71 -277.61,279.21 -282.57,267.28C-289.97,249.48 -269.79,241.09 -268.93,240.73ZM-205.42,48.89L-169.62,34.00L-181.08,6.44L-216.88,21.33ZM-146.77,189.92L-110.96,175.03L-161.05,54.61L-196.85,69.50ZM30.08,116.38L65.88,101.49L35.20,27.71C22.47,-2.88 -1.87,-14.90 -41.79,1.70C-89.53,21.56 -76.79,59.53 -76.79,59.53L-101.16,29.70L-121.99,38.37L-71.91,158.79L-36.10,143.90L-66.43,70.99C-66.43,70.99 -70.06,41.45 -41.63,29.63C-22.32,21.60 -8.01,24.81 -1.33,40.87ZM206.92,42.83L242.72,27.94L212.04,-45.83C199.31,-76.43 174.97,-88.45 135.05,-71.84C87.31,-51.99 100.05,-14.02 100.05,-14.02L75.68,-43.84L54.85,-35.18L104.93,85.24L140.74,70.35L110.42,-2.55C110.42,-2.55 106.78,-32.09 135.21,-43.91C154.52,-51.94 168.83,-48.74 175.51,-32.68ZM223.12,-129.34L258.92,-144.23L247.46,-171.79L211.66,-156.90ZM281.78,11.70L317.58,-3.19L267.49,-123.62L231.69,-108.73ZM458.62,-61.85L494.42,-76.74L463.74,-150.51C451.01,-181.11 426.67,-193.13 386.75,-176.52C339.01,-156.67 351.75,-118.70 351.75,-118.70L327.38,-148.52L306.55,-139.86L356.63,-19.44L392.44,-34.33L362.12,-107.23C362.12,-107.23 358.48,-136.77 386.91,-148.59C406.22,-156.62 420.53,-153.42 427.21,-137.36ZM579.97,-155.59C622.29,-173.19 639.91,-202.40 629.81,-226.71C626.56,-234.52 620.97,-240.59 613.37,-244.81C605.69,-251.04 603.22,-256.37 615.58,-261.51C618.19,-262.60 625.96,-265.32 634.97,-267.54L615.62,-290.80C609.58,-288.80 602.68,-286.43 599.64,-285.17C587.92,-280.30 583.38,-271.03 587.89,-260.18C589.33,-256.70 593.22,-253.48 598.15,-250.19C583.27,-252.91 564.45,-250.43 543.62,-241.77C500.66,-223.90 483.34,-194.55 493.54,-170.03C500.31,-153.76 516.97,-144.91 540.00,-145.83C532.42,-141.41 511.70,-128.21 517.92,-113.24C525.32,-95.45 554.20,-103.13 557.11,-104.08C553.82,-102.21 521.63,-84.75 530.47,-63.48C535.53,-51.33 553.34,-40.93 591.32,-56.72L639.27,-76.66C676.59,-92.18 693.90,-115.42 684.52,-137.98C677.39,-155.13 659.69,-170.16 619.98,-153.65L575.50,-135.15C560.96,-129.10 552.59,-128.42 549.70,-135.36C546.63,-142.74 553.65,-146.68 558.30,-148.35C565.04,-149.89 572.38,-152.43 579.97,-155.59ZM529.78,-185.10C524.45,-197.91 528.73,-210.88 552.38,-220.72C576.03,-230.56 587.81,-224.26 593.14,-211.46C598.28,-199.09 594.44,-186.29 570.79,-176.45C547.14,-166.62 534.92,-172.74 529.78,-185.10ZM622.65,-127.02C637.34,-132.10 644.15,-128.57 647.76,-119.90C653.71,-105.57 638.43,-96.42 612.39,-85.59C582.23,-73.05 570.57,-73.54 565.61,-85.48C558.21,-103.27 578.39,-111.66 579.26,-112.02Z" fill="#ffffff" stroke="#000000"/>
    <path d="M-114.57,-139.41L-74.57,-159.22L-231.20,-283.24L-295.58,-251.35L-291.88,-51.60L-252.08,-71.31L-254.04,-131.31L-161.11,-177.33ZM-257.46,-241.95L-246.83,-247.22L-182.88,-195.09L-254.97,-159.39ZM-657.57,258.55L-733.83,296.31L-653.65,458.20L-573.23,418.38C-517.81,390.93 -500.96,362.09 -516.23,331.25C-531.50,300.42 -565.02,310.27 -568.14,311.30C-565.64,309.54 -541.34,291.02 -554.76,263.93C-570.03,233.10 -602.15,231.10 -657.57,258.55ZM-621.95,325.23L-663.21,345.66L-685.49,300.66L-644.24,280.23C-620.49,268.47 -601.55,266.35 -593.30,283.02C-585.05,299.69 -598.20,313.47 -621.95,325.23ZM-627.92,416.92L-652.27,367.75L-604.97,344.33C-582.26,333.08 -562.93,333.88 -554.88,350.13C-546.62,366.80 -558.75,382.66 -582.50,394.42ZM-460.87,293.20L-358.58,245.14C-363.61,227.13 -390.98,180.76 -456.20,213.05C-499.33,234.41 -513.51,273.87 -496.49,308.24C-477.09,347.41 -433.54,352.57 -396.25,334.10C-336.24,304.39 -347.82,259.01 -347.82,259.01L-385.39,266.97C-385.39,266.97 -372.39,293.75 -404.06,309.43C-432.19,323.36 -451.79,311.01 -460.87,293.20ZM-404.32,242.36L-466.84,275.92C-466.84,275.92 -474.74,249.48 -445.99,235.24C-418.28,221.51 -404.32,242.36 -404.32,242.36ZM-255.74,217.04C-215.11,196.92 -199.61,166.93 -211.17,143.60C-214.88,136.10 -220.79,130.46 -228.57,126.79C-236.56,121.14 -239.34,116.04 -227.47,110.16C-224.97,108.92 -217.47,105.72 -208.72,102.95L-229.33,81.24C-235.16,83.61 -241.83,86.39 -244.75,87.84C-256.00,93.41 -259.88,102.86 -254.72,113.28C-253.07,116.61 -249.03,119.54 -243.94,122.47C-258.81,120.75 -277.22,124.42 -297.23,134.32C-338.48,154.75 -353.67,184.85 -342.01,208.39C-334.27,224.02 -317.25,231.68 -294.57,229.27C-301.77,234.13 -321.37,248.50 -314.25,262.88C-305.79,279.96 -277.78,270.51 -274.97,269.37C-278.10,271.44 -308.74,290.77 -298.63,311.19C-292.85,322.85 -274.59,331.97 -238.13,313.91L-192.08,291.11C-156.24,273.36 -140.66,249.30 -151.39,227.63C-159.54,211.17 -178.00,197.48 -216.13,216.36L-258.84,237.51C-272.80,244.43 -281.02,245.64 -284.32,238.98C-287.83,231.89 -281.15,227.55 -276.68,225.59C-270.12,223.64 -263.04,220.65 -255.74,217.04ZM-307.22,191.16C-313.30,178.87 -309.93,165.78 -287.22,154.53C-264.51,143.29 -252.47,148.74 -246.38,161.03C-240.50,172.91 -243.46,185.79 -266.17,197.04C-288.88,208.28 -301.34,203.04 -307.22,191.16ZM-211.75,242.48C-197.59,236.50 -190.64,239.54 -186.51,247.88C-179.70,261.63 -194.19,271.66 -219.19,284.04C-248.15,298.38 -259.69,298.65 -265.37,287.19C-273.83,270.11 -254.45,260.51 -253.62,260.10ZM-203.39,66.58L-169.01,49.55L-182.11,23.09L-216.49,40.12ZM-136.32,202.01L-101.94,184.98L-159.21,69.35L-193.58,86.37ZM33.49,117.91L67.86,100.89L32.78,30.05C18.24,0.67 -6.58,-9.61 -44.91,9.37C-90.75,32.07 -75.71,68.73 -75.71,68.73L-101.70,40.87L-121.70,50.77L-64.44,166.41L-30.06,149.38L-64.73,79.38C-64.73,79.38 -70.23,50.45 -42.94,36.93C-24.40,27.75 -10.06,29.99 -2.42,45.41ZM203.29,33.82L237.67,16.80L202.59,-54.04C188.04,-83.42 163.23,-93.70 124.89,-74.72C79.06,-52.02 94.10,-15.36 94.10,-15.36L68.10,-43.22L48.10,-33.32L105.37,82.32L139.75,65.29L105.08,-4.71C105.08,-4.71 99.57,-33.64 126.87,-47.16C145.41,-56.34 159.75,-54.10 167.39,-38.68ZM208.11,-137.20L242.48,-154.23L229.38,-180.69L195.00,-163.66ZM275.17,-1.77L309.55,-18.80L252.29,-134.43L217.91,-117.41ZM444.98,-85.87L479.36,-102.89L444.28,-173.73C429.73,-203.11 404.92,-213.39 366.58,-194.41C320.74,-171.71 335.78,-135.05 335.78,-135.05L309.79,-162.91L289.79,-153.01L347.06,-37.37L381.43,-54.40L346.76,-124.40C346.76,-124.40 341.26,-153.33 368.55,-166.85C387.10,-176.03 401.44,-173.79 409.07,-158.37ZM558.70,-186.29C599.33,-206.41 614.83,-236.40 603.28,-259.74C599.56,-267.24 593.66,-272.87 585.87,-276.54C577.89,-282.19 575.10,-287.29 586.98,-293.17C589.48,-294.41 596.97,-297.61 605.72,-300.38L585.11,-322.09C579.28,-319.72 572.61,-316.94 569.70,-315.49C558.45,-309.92 554.56,-300.47 559.72,-290.06C561.37,-286.72 565.42,-283.80 570.50,-280.86C555.64,-282.58 537.22,-278.91 517.22,-269.01C475.96,-248.58 460.77,-218.48 472.43,-194.94C480.17,-179.31 497.19,-171.66 519.87,-174.06C512.68,-169.21 493.07,-154.83 500.19,-140.45C508.65,-123.37 536.66,-132.83 539.47,-133.96C536.34,-131.89 505.70,-112.56 515.81,-92.15C521.59,-80.48 539.86,-71.36 576.32,-89.42L622.36,-112.22C658.20,-129.97 673.78,-154.03 663.05,-175.70C654.90,-192.16 636.45,-205.85 598.32,-186.97L555.61,-165.82C541.65,-158.90 533.43,-157.69 530.13,-164.36C526.62,-171.44 533.29,-175.78 537.77,-177.74C544.33,-179.69 551.41,-182.68 558.70,-186.29ZM507.23,-212.17C501.14,-224.46 504.52,-237.55 527.23,-248.80C549.94,-260.04 561.98,-254.59 568.06,-242.30C573.95,-230.42 570.99,-217.54 548.28,-206.29C525.56,-195.05 513.11,-200.29 507.23,-212.17ZM602.69,-160.85C616.85,-166.83 623.81,-163.79 627.94,-155.45C634.75,-141.70 620.25,-131.67 595.25,-119.29C566.29,-104.95 554.75,-104.68 549.07,-116.14C540.61,-133.23 559.99,-142.82 560.82,-143.23Z" fill="#ffffff" stroke="#000000"/>
    <path d="M-125.54,-125.01L-87.33,-147.17L-250.01,-259.42L-311.49,-223.77L-294.86,-26.82L-256.85,-48.86L-262.68,-107.96L-173.94,-159.42ZM-273.24,-216.96L-263.10,-222.85L-196.58,-175.54L-265.42,-135.62ZM-635.70,303.07L-708.52,345.30L-618.87,499.90L-542.07,455.36C-489.14,424.67 -474.38,395.11 -491.46,365.66C-508.53,336.21 -540.98,348.12 -544.00,349.34C-541.64,347.44 -518.86,327.58 -533.86,301.71C-550.93,272.27 -582.77,272.38 -635.70,303.07ZM-596.21,366.58L-635.60,389.43L-660.53,346.45L-621.13,323.61C-598.45,310.45 -579.90,307.14 -570.67,323.06C-561.44,338.98 -573.53,353.43 -596.21,366.58ZM-596.14,457.48L-623.37,410.52L-578.21,384.33C-556.52,371.75 -537.38,371.29 -528.38,386.81C-519.15,402.73 -530.09,419.17 -552.77,432.32ZM-439.28,324.51L-341.43,270.42C-347.56,252.97 -377.60,208.97 -439.87,245.09C-481.06,268.97 -492.50,308.84 -473.47,341.67C-451.77,379.07 -408.45,381.34 -372.84,360.68C-315.54,327.46 -329.91,283.41 -329.91,283.41L-366.48,293.72C-366.48,293.72 -351.91,319.30 -382.15,336.84C-409.01,352.41 -429.16,341.50 -439.28,324.51ZM-386.76,270.65L-446.29,307.83C-446.29,307.83 -455.81,282.25 -428.36,266.32C-401.89,250.98 -386.76,270.65 -386.76,270.65ZM-241.74,236.01C-202.95,213.51 -189.59,182.90 -202.51,160.61C-206.67,153.45 -212.86,148.27 -220.78,145.15C-229.03,140.10 -232.12,135.24 -220.77,128.66C-218.39,127.28 -211.19,123.64 -202.74,120.33L-224.49,100.25C-230.10,102.96 -236.49,106.14 -239.28,107.76C-250.02,113.99 -253.24,123.56 -247.47,133.51C-245.63,136.70 -241.45,139.32 -236.24,141.89C-251.02,141.15 -268.96,145.97 -288.06,157.05C-327.46,179.90 -340.50,210.59 -327.46,233.07C-318.81,248.00 -301.51,254.45 -279.28,250.60C-286.07,255.86 -304.48,271.33 -296.52,285.06C-287.06,301.37 -260.03,290.21 -257.33,288.91C-260.28,291.16 -289.27,312.23 -277.97,331.72C-271.50,342.87 -252.88,350.68 -218.06,330.49L-174.09,304.99C-139.87,285.14 -126.05,260.38 -138.05,239.69C-147.16,223.97 -166.27,211.65 -202.68,232.76L-243.47,256.42C-256.80,264.15 -264.83,265.88 -268.53,259.52C-272.45,252.75 -266.15,248.03 -261.85,245.81C-255.51,243.46 -248.71,240.05 -241.74,236.01ZM-294.24,213.80C-301.04,202.07 -298.56,188.93 -276.87,176.35C-255.18,163.77 -242.95,168.37 -236.14,180.11C-229.56,191.45 -231.65,204.36 -253.33,216.94C-275.02,229.52 -287.66,225.15 -294.24,213.80ZM-196.67,258.26C-183.08,251.44 -176.01,253.99 -171.40,261.95C-163.78,275.08 -177.44,285.92 -201.31,299.77C-228.97,315.81 -240.35,316.82 -246.69,305.88C-256.15,289.56 -237.65,278.83 -236.85,278.37ZM-199.83,84.08L-167.00,65.05L-181.66,39.78L-214.49,58.82ZM-124.84,213.41L-92.01,194.37L-156.04,83.95L-188.87,102.99ZM37.32,119.38L70.15,100.34L30.92,32.69C14.65,4.64 -10.51,-3.90 -47.12,17.33C-90.89,42.71 -73.66,77.92 -73.66,77.92L-101.13,52.10L-120.23,63.18L-56.19,173.61L-23.36,154.57L-62.13,87.72C-62.13,87.72 -69.44,59.52 -43.38,44.40C-25.67,34.14 -11.37,35.41 -2.83,50.14ZM199.48,25.34L232.31,6.30L193.08,-61.34C176.81,-89.40 151.65,-97.94 115.04,-76.71C71.27,-51.33 88.50,-16.12 88.50,-16.12L61.03,-41.93L41.93,-30.86L105.96,79.57L138.79,60.53L100.03,-6.32C100.03,-6.32 92.72,-34.52 118.78,-49.63C136.49,-59.90 150.79,-58.62 159.33,-43.90ZM193.13,-143.79L225.95,-162.83L211.30,-188.10L178.47,-169.06ZM268.12,-14.46L300.95,-33.50L236.92,-143.93L204.09,-124.89ZM430.28,-108.50L463.11,-127.54L423.88,-195.18C407.61,-223.24 382.45,-231.78 345.84,-210.55C302.07,-185.17 319.30,-149.96 319.30,-149.96L291.83,-175.77L272.73,-164.70L336.77,-54.27L369.59,-73.31L330.83,-140.16C330.83,-140.16 323.52,-168.36 349.58,-183.47C367.29,-193.74 381.59,-192.46 390.13,-177.74ZM536.01,-215.01C574.81,-237.51 588.17,-268.12 575.25,-290.41C571.09,-297.57 564.90,-302.75 556.97,-305.87C548.73,-310.92 545.64,-315.78 556.98,-322.36C559.37,-323.74 566.57,-327.38 575.02,-330.69L553.27,-350.77C547.66,-348.06 541.26,-344.88 538.48,-343.26C527.73,-337.03 524.51,-327.46 530.28,-317.51C532.13,-314.32 536.31,-311.70 541.52,-309.13C526.74,-309.87 508.80,-305.05 489.69,-293.97C450.30,-271.12 437.26,-240.43 450.29,-217.95C458.95,-203.02 476.25,-196.57 498.48,-200.42C491.69,-195.16 473.28,-179.69 481.24,-165.97C490.70,-149.65 517.73,-160.81 520.43,-162.11C517.48,-159.86 488.48,-138.79 499.79,-119.30C506.25,-108.15 524.88,-100.34 559.69,-120.53L603.67,-146.03C637.89,-165.88 651.71,-190.64 639.71,-211.34C630.59,-227.05 611.49,-239.37 575.08,-218.26L534.29,-194.60C520.96,-186.87 512.92,-185.14 509.23,-191.51C505.31,-198.27 511.61,-202.99 515.91,-205.21C522.25,-207.56 529.05,-210.97 536.01,-215.01ZM483.52,-237.22C476.71,-248.95 479.20,-262.09 500.89,-274.67C522.57,-287.25 534.81,-282.65 541.62,-270.91C548.20,-259.57 546.11,-246.66 524.42,-234.08C502.74,-221.50 490.10,-225.87 483.52,-237.22ZM581.09,-192.76C594.68,-199.58 601.74,-197.03 606.36,-189.07C613.97,-175.94 600.32,-165.10 576.44,-151.25C548.79,-135.21 537.41,-134.20 531.07,-145.14C521.60,-161.46 540.11,-172.19 540.90,-172.65Z" fill="#ffffff" stroke="#000000"/>
    <path d="M-135.03,-109.93L-98.77,-134.27L-266.61,-234.50L-324.98,-195.32L-295.78,-2.02L-259.70,-26.24L-269.28,-84.20L-185.04,-140.75ZM-286.79,-191.09L-277.16,-197.56L-208.43,-155.19L-273.79,-111.31ZM-610.76,345.72L-679.90,392.13L-581.38,538.89L-508.47,489.95C-458.22,456.22 -445.57,426.08 -464.34,398.13C-483.10,370.17 -514.36,384.03 -517.25,385.42C-515.05,383.40 -493.86,362.32 -510.34,337.76C-529.11,309.81 -560.52,311.99 -610.76,345.72ZM-567.67,405.84L-605.07,430.94L-632.45,390.14L-595.06,365.04C-573.52,350.58 -555.43,346.11 -545.28,361.22C-535.14,376.33 -546.13,391.38 -567.67,405.84ZM-561.70,495.54L-591.63,450.97L-548.75,422.18C-528.16,408.36 -509.30,406.66 -499.41,421.39C-489.26,436.51 -498.99,453.45 -520.52,467.90ZM-415.51,354.12L-322.45,294.38C-329.63,277.56 -362.13,236.08 -421.25,275.77C-460.35,302.02 -469.06,342.11 -448.14,373.28C-424.30,408.79 -381.40,408.21 -347.58,385.51C-293.18,348.99 -310.23,306.46 -310.23,306.46L-345.65,319.00C-345.65,319.00 -329.61,343.31 -358.32,362.58C-383.82,379.70 -404.42,370.23 -415.51,354.12ZM-367.17,297.55L-423.52,338.12C-423.52,338.12 -434.57,313.48 -408.51,295.98C-383.38,279.12 -367.17,297.55 -367.17,297.55ZM-226.29,253.95C-189.46,229.22 -178.26,198.14 -192.46,176.98C-197.03,170.18 -203.48,165.47 -211.50,162.91C-219.97,158.46 -223.33,153.86 -212.56,146.64C-210.29,145.11 -203.43,141.05 -195.30,137.24L-218.08,118.83C-223.43,121.87 -229.54,125.43 -232.18,127.20C-242.38,134.05 -244.94,143.71 -238.60,153.15C-236.57,156.18 -232.27,158.50 -226.97,160.69C-241.60,160.93 -259.00,166.85 -277.13,179.02C-314.53,204.13 -325.41,235.27 -311.08,256.61C-301.57,270.78 -284.08,276.02 -262.39,270.78C-268.75,276.42 -285.92,292.88 -277.17,305.91C-266.77,321.40 -240.82,308.63 -238.23,307.17C-241.00,309.58 -268.25,332.26 -255.83,350.77C-248.72,361.35 -229.84,367.85 -196.78,345.66L-155.04,317.64C-122.55,295.83 -110.52,270.49 -123.70,250.84C-133.72,235.92 -153.38,225.00 -187.94,248.21L-226.67,274.20C-239.32,282.70 -247.14,284.93 -251.20,278.89C-255.51,272.46 -249.59,267.40 -245.50,264.92C-239.39,262.19 -232.90,258.38 -226.29,253.95ZM-279.54,235.44C-287.02,224.29 -285.42,211.16 -264.83,197.34C-244.24,183.52 -231.87,187.27 -224.38,198.41C-217.16,209.18 -218.38,222.06 -238.97,235.88C-259.56,249.70 -272.31,246.21 -279.54,235.44ZM-180.36,272.98C-167.38,265.37 -160.25,267.43 -155.17,274.98C-146.81,287.45 -159.58,299.04 -182.24,314.25C-208.50,331.88 -219.66,333.62 -226.64,323.23C-237.03,307.74 -219.47,295.95 -218.71,295.44ZM-194.79,101.28L-163.62,80.35L-179.72,56.36L-210.89,77.29ZM-112.37,224.05L-81.20,203.13L-151.57,98.30L-182.74,119.22ZM41.58,120.71L72.74,99.79L29.63,35.57C11.75,8.93 -13.63,2.14 -48.39,25.47C-89.95,53.36 -70.66,87.00 -70.66,87.00L-99.44,63.30L-117.57,75.47L-47.20,180.31L-16.04,159.38L-58.64,95.92C-58.64,95.92 -67.69,68.56 -42.94,51.95C-26.13,40.67 -11.93,41.00 -2.55,54.98ZM195.52,17.37L226.69,-3.55L183.57,-67.77C165.70,-94.41 140.31,-101.20 105.55,-77.87C64.00,-49.98 83.29,-16.34 83.29,-16.34L54.50,-40.04L36.37,-27.87L106.74,76.97L137.91,56.04L95.30,-7.42C95.30,-7.42 86.26,-34.78 111.00,-51.39C127.81,-62.67 142.01,-62.34 151.39,-48.36ZM178.27,-149.15L209.43,-170.07L193.33,-194.06L162.16,-173.14ZM260.69,-26.37L291.85,-47.30L221.48,-152.13L190.31,-131.21ZM414.63,-129.71L445.79,-150.64L402.68,-214.86C384.80,-241.49 359.42,-248.29 324.66,-224.96C283.11,-197.06 302.40,-163.43 302.40,-163.43L273.61,-187.12L255.48,-174.95L325.85,-70.12L357.02,-91.04L314.41,-154.51C314.41,-154.51 305.37,-181.86 330.11,-198.47C346.92,-209.76 361.12,-209.43 370.50,-195.45ZM512.07,-241.71C548.90,-266.43 560.10,-297.51 545.90,-318.67C541.33,-325.47 534.88,-330.18 526.86,-332.74C518.39,-337.19 515.03,-341.79 525.80,-349.02C528.07,-350.54 534.93,-354.60 543.06,-358.41L520.28,-376.83C514.93,-373.78 508.82,-370.23 506.18,-368.45C495.98,-361.61 493.42,-351.94 499.76,-342.50C501.79,-339.48 506.09,-337.16 511.40,-334.96C496.76,-334.73 479.36,-328.80 461.23,-316.63C423.83,-291.53 412.95,-260.38 427.28,-239.04C436.79,-224.87 454.28,-219.63 475.97,-224.87C469.62,-219.24 452.44,-202.78 461.19,-189.74C471.59,-174.25 497.54,-187.02 500.13,-188.48C497.36,-186.07 470.11,-163.40 482.54,-144.89C489.64,-134.31 508.52,-127.81 541.58,-150.00L583.32,-178.02C615.81,-199.83 627.85,-225.17 614.66,-244.81C604.64,-259.73 584.98,-270.65 550.42,-247.45L511.69,-221.45C499.04,-212.96 491.22,-210.72 487.16,-216.77C482.85,-223.19 488.77,-228.26 492.86,-230.73C498.97,-233.46 505.46,-237.27 512.07,-241.71ZM458.82,-260.22C451.34,-271.36 452.94,-284.49 473.53,-298.31C494.12,-312.13 506.50,-308.38 513.98,-297.24C521.20,-286.47 519.98,-273.60 499.39,-259.78C478.81,-245.96 466.05,-249.45 458.82,-260.22ZM558.00,-222.67C570.98,-230.29 578.11,-228.23 583.19,-220.67C591.56,-208.20 578.78,-196.62 556.12,-181.40C529.86,-163.78 518.70,-162.04 511.73,-172.43C501.33,-187.91 518.89,-199.71 519.65,-200.21Z" fill="#ffffff" stroke="#000000"/>
    <path d="M-143.02,-94.28L-108.81,-120.66L-280.96,-208.68L-336.02,-166.23L-294.65,22.64L-260.62,-3.60L-273.84,-60.17L-194.38,-121.45ZM-298.06,-164.53L-288.97,-171.54L-218.40,-134.18L-280.05,-86.64ZM-582.93,386.27L-648.15,436.55L-541.39,575.00L-472.61,521.96C-425.22,485.42 -414.69,454.85 -435.03,428.48C-455.36,402.11 -485.30,417.81 -488.07,419.38C-486.03,417.24 -466.48,395.06 -484.34,371.90C-504.68,345.53 -535.54,349.72 -582.93,386.27ZM-536.50,442.80L-571.78,470.01L-601.46,431.52L-566.18,404.32C-545.86,388.65 -528.30,383.06 -517.31,397.32C-506.31,411.57 -516.19,427.14 -536.50,442.80ZM-524.79,530.94L-557.21,488.89L-516.77,457.70C-497.35,442.73 -478.84,439.82 -468.13,453.72C-457.13,467.98 -465.63,485.33 -485.95,500.99ZM-389.70,381.88L-301.73,316.89C-309.91,300.75 -344.68,261.93 -400.45,304.93C-437.33,333.37 -443.32,373.51 -420.65,402.91C-394.82,436.40 -352.52,433.05 -320.62,408.45C-269.31,368.88 -288.89,328.01 -288.89,328.01L-323.03,342.69C-323.03,342.69 -305.63,365.63 -332.71,386.52C-356.76,405.07 -377.71,397.07 -389.70,381.88ZM-345.67,322.92L-398.64,366.61C-398.64,366.61 -411.15,343.01 -386.56,324.05C-362.86,305.78 -345.67,322.92 -345.67,322.92ZM-209.46,270.74C-174.72,243.95 -165.69,212.55 -181.07,192.59C-186.02,186.18 -192.69,181.95 -200.78,179.94C-209.42,176.10 -213.04,171.78 -202.88,163.95C-200.74,162.30 -194.23,157.85 -186.46,153.56L-210.13,136.86C-215.21,140.21 -221.01,144.12 -223.51,146.04C-233.13,153.46 -235.02,163.16 -228.15,172.07C-225.96,174.92 -221.56,176.93 -216.18,178.75C-230.61,179.93 -247.40,186.91 -264.50,200.10C-299.78,227.30 -308.50,258.74 -292.97,278.88C-282.67,292.24 -265.06,296.28 -244.00,289.70C-249.90,295.67 -265.78,313.03 -256.30,325.33C-245.03,339.94 -220.25,325.65 -217.79,324.05C-220.37,326.60 -245.79,350.75 -232.32,368.21C-224.63,378.19 -205.57,383.38 -174.39,359.33L-135.01,328.97C-104.36,305.34 -94.13,279.55 -108.42,261.02C-119.28,246.94 -139.39,237.44 -171.99,262.59L-208.52,290.75C-220.46,299.96 -228.03,302.67 -232.42,296.97C-237.09,290.91 -231.59,285.53 -227.71,282.82C-221.85,279.73 -215.70,275.55 -209.46,270.74ZM-263.21,255.93C-271.32,245.42 -270.60,232.36 -251.17,217.38C-231.75,202.41 -219.29,205.30 -211.19,215.81C-203.36,225.97 -203.72,238.75 -223.15,253.73C-242.57,268.71 -255.38,266.09 -263.21,255.93ZM-162.90,286.54C-150.59,278.19 -143.41,279.76 -137.91,286.88C-128.85,298.64 -140.70,310.91 -162.08,327.40C-186.85,346.49 -197.75,348.93 -205.31,339.13C-216.57,324.52 -200.00,311.75 -199.29,311.20ZM-188.28,118.03L-158.88,95.36L-176.33,72.73L-205.73,95.40ZM-98.98,233.84L-69.58,211.17L-145.83,112.28L-175.23,134.95ZM46.24,121.86L75.64,99.19L28.92,38.61C9.55,13.49 -15.94,8.43 -48.73,33.71C-87.93,63.94 -66.71,95.88 -66.71,95.88L-96.65,74.36L-113.76,87.55L-37.50,186.44L-8.11,163.77L-54.27,103.90C-54.27,103.90 -64.97,77.49 -41.63,59.49C-25.78,47.27 -11.74,46.67 -1.58,59.86ZM191.45,9.89L220.85,-12.78L174.14,-73.36C154.76,-98.49 129.27,-103.55 96.49,-78.27C57.29,-48.04 78.51,-16.10 78.51,-16.10L48.56,-37.62L31.45,-24.43L107.71,74.46L137.11,51.79L90.94,-8.08C90.94,-8.08 80.24,-34.48 103.58,-52.48C119.44,-64.71 133.47,-65.31 143.64,-52.12ZM163.62,-153.33L193.02,-176.00L175.57,-198.63L146.17,-175.96ZM252.92,-37.52L282.32,-60.19L206.07,-159.07L176.67,-136.40ZM398.14,-149.49L427.54,-172.16L380.82,-232.75C361.45,-257.87 335.96,-262.93 303.17,-237.65C263.97,-207.42 285.19,-175.48 285.19,-175.48L255.25,-197.00L238.14,-183.81L314.40,-84.92L343.79,-107.59L297.63,-167.46C297.63,-167.46 286.93,-193.87 310.27,-211.86C326.12,-224.09 340.16,-224.69 350.32,-211.50ZM487.03,-266.34C521.78,-293.14 530.81,-324.54 515.42,-344.49C510.47,-350.91 503.80,-355.14 495.72,-357.14C487.07,-360.99 483.46,-365.31 493.61,-373.14C495.75,-374.79 502.26,-379.24 510.04,-383.53L486.37,-400.22C481.28,-396.87 475.48,-392.97 472.99,-391.04C463.37,-383.62 461.47,-373.92 468.34,-365.01C470.54,-362.16 474.93,-360.15 480.31,-358.33C465.88,-357.15 449.10,-350.17 431.99,-336.98C396.71,-309.78 388.00,-278.34 403.52,-258.21C413.83,-244.84 431.44,-240.80 452.50,-247.39C446.59,-241.41 430.71,-224.05 440.19,-211.76C451.46,-197.15 476.25,-211.43 478.70,-213.04C476.12,-210.48 450.71,-186.34 464.17,-168.87C471.86,-158.90 490.93,-153.71 522.11,-177.75L561.48,-208.12C592.13,-231.75 602.36,-257.54 588.07,-276.07C577.22,-290.14 557.11,-299.64 524.50,-274.50L487.98,-246.33C476.04,-237.12 468.47,-234.41 464.07,-240.11C459.40,-246.17 464.91,-251.56 468.79,-254.26C474.64,-257.36 480.80,-261.54 487.03,-266.34ZM433.28,-281.15C425.17,-291.66 425.90,-304.72 445.32,-319.70C464.74,-334.68 477.20,-331.78 485.31,-321.27C493.14,-311.12 492.77,-298.33 473.35,-283.35C453.93,-268.38 441.11,-271.00 433.28,-281.15ZM533.60,-250.54C545.91,-258.90 553.08,-257.33 558.58,-250.20C567.65,-238.44 555.80,-226.18 534.42,-209.69C509.65,-190.59 498.75,-188.15 491.19,-197.95C479.92,-212.56 496.49,-225.34 497.21,-225.89Z" fill="#ffffff" stroke="#000000"/>
    <path d="M-898.60,473.49C-901.68,472.89 -903.80,471.94 -903.80,470.04C-903.80,468.10 -901.45,466.62 -897.42,466.62C-888.95,466.62 -889.17,472.54 -889.17,472.54L-882.22,470.64C-882.22,470.64 -882.87,461.94 -897.15,461.94C-906.39,461.94 -910.80,466.16 -910.80,470.76C-910.80,474.48 -907.60,477.41 -901.90,478.62L-894.38,480.22C-890.31,481.09 -888.00,481.59 -888.00,484.29C-888.00,486.53 -890.73,487.82 -895.22,487.82C-905.78,487.82 -904.91,480.60 -904.91,480.60L-911.86,482.39C-911.63,486.64 -907.72,492.49 -895.10,492.49C-887.16,492.49 -881.04,489.49 -881.04,483.75C-881.04,479.80 -883.25,476.57 -890.47,475.13ZM-870.21,488.62C-870.21,488.62 -868.58,492.49 -862.69,492.49C-856.30,492.49 -851.59,487.90 -851.59,481.44C-851.59,474.98 -856.30,470.42 -862.73,470.42C-869.53,470.42 -871.39,475.74 -871.39,475.74L-872.83,470.91L-876.48,470.91L-876.48,500.47L-870.21,500.47ZM-864.74,474.60C-860.22,474.60 -858.17,477.60 -858.17,481.44C-858.17,485.27 -860.22,488.31 -864.74,488.31C-869.34,488.31 -871.20,484.93 -871.20,481.44C-871.20,477.94 -869.34,474.60 -864.74,474.60ZM-847.03,481.44C-847.03,487.63 -842.17,492.49 -834.00,492.49C-825.75,492.49 -820.89,487.63 -820.89,481.44C-820.89,475.28 -825.75,470.42 -834.00,470.42C-842.17,470.42 -847.03,475.28 -847.03,481.44ZM-840.46,481.44C-840.46,477.98 -838.90,474.60 -834.00,474.60C-829.13,474.60 -827.46,477.98 -827.46,481.44C-827.46,484.89 -829.13,488.31 -834.00,488.31C-838.90,488.31 -840.46,484.89 -840.46,481.44ZM-808.92,479.19C-808.92,479.19 -808.31,474.60 -805.65,474.60C-804.93,474.60 -803.98,474.94 -803.98,476.50C-803.98,479.38 -804.62,481.51 -804.62,481.51L-798.54,479.95C-798.54,479.95 -798.05,478.55 -798.05,475.93C-798.05,472.96 -799.34,470.42 -803.71,470.42C-809.83,470.42 -809.75,476.88 -809.75,476.88L-811.54,470.91L-815.19,470.91L-815.19,492L-808.92,492ZM-796.91,474.60L-792.05,474.60L-792.05,484.63C-792.05,490.06 -788.93,492.49 -783.84,492.49C-778.40,492.49 -775.90,489.38 -775.90,489.38L-777.11,485.27C-777.11,485.27 -778.78,488.31 -782.13,488.31C-784.83,488.31 -785.85,486.76 -785.85,484.17L-785.85,474.60L-776.16,474.60L-776.16,470.91L-785.85,470.91L-785.85,462.97L-791.89,466.77L-791.89,470.91L-796.91,470.91ZM-771.72,467.30L-765.45,467.30L-765.45,462.47L-771.72,462.47ZM-771.72,492L-765.45,492L-765.45,470.91L-771.72,470.91ZM-740.75,492L-734.48,492L-734.48,479.08C-734.48,473.72 -737.36,470.42 -744.36,470.42C-752.72,470.42 -753.17,476.88 -753.17,476.88L-754.96,470.91L-758.61,470.91L-758.61,492L-752.34,492L-752.34,479.23C-752.34,479.23 -751.04,474.60 -746.07,474.60C-742.68,474.60 -740.75,475.96 -740.75,478.78ZM-716.81,485.54C-709.40,485.54 -704.95,482.27 -704.95,478.02C-704.95,476.65 -705.41,475.39 -706.28,474.29C-707.04,472.89 -707.08,471.94 -704.91,471.94C-704.46,471.94 -703.13,472.01 -701.64,472.24L-703.09,467.57C-704.11,467.49 -705.29,467.41 -705.82,467.41C-707.88,467.41 -709.13,468.52 -709.13,470.42C-709.13,471.02 -708.75,471.75 -708.22,472.54C-710.27,471.21 -713.23,470.42 -716.88,470.42C-724.41,470.42 -728.81,473.72 -728.81,478.02C-728.81,480.87 -726.88,483.22 -723.38,484.51C-724.79,484.70 -728.70,485.39 -728.70,488.01C-728.70,491.13 -723.91,491.77 -723.42,491.81C-724.03,491.89 -729.92,492.49 -729.92,496.22C-729.92,498.35 -727.90,501.01 -721.25,501.01L-712.85,501.01C-706.32,501.01 -702.29,498.61 -702.29,494.66C-702.29,491.66 -704,488.31 -710.95,488.31L-718.74,488.31C-721.29,488.31 -722.58,487.90 -722.58,486.68C-722.58,485.39 -721.29,485.24 -720.49,485.27C-719.39,485.46 -718.14,485.54 -716.81,485.54ZM-722.47,478.02C-722.47,475.77 -721.02,474.10 -716.88,474.10C-712.74,474.10 -711.37,475.77 -711.37,478.02C-711.37,480.18 -712.74,481.85 -716.88,481.85C-721.02,481.85 -722.47,480.18 -722.47,478.02ZM-712.21,492.46C-709.70,492.61 -708.90,493.56 -708.90,495.08C-708.90,497.59 -711.75,498.00 -716.31,498.00C-721.59,498.00 -723.30,497.21 -723.30,495.12C-723.30,492 -719.77,492 -719.62,492ZM-663.99,472.54C-663.99,472.54 -665.13,461.94 -681.31,461.94C-692.41,461.94 -699.36,468.36 -699.36,477.26C-699.36,486.11 -692.03,492.49 -682.42,492.49C-673.68,492.49 -671.24,487.63 -671.24,487.63L-671.24,492L-664.90,492L-664.90,476.31L-683.29,476.31L-683.29,480.45L-671.24,480.45C-671.24,480.45 -672.04,487.82 -681.35,487.82C-688.23,487.82 -692.33,483.30 -692.33,477.26C-692.33,471.44 -688.84,466.62 -681.35,466.62C-671.05,466.62 -670.94,474.44 -670.94,474.44ZM-651.26,479.19C-651.26,479.19 -650.65,474.60 -647.99,474.60C-647.27,474.60 -646.32,474.94 -646.32,476.50C-646.32,479.38 -646.96,481.51 -646.96,481.51L-640.88,479.95C-640.88,479.95 -640.39,478.55 -640.39,475.93C-640.39,472.96 -641.68,470.42 -646.05,470.42C-652.17,470.42 -652.09,476.88 -652.09,476.88L-653.88,470.91L-657.53,470.91L-657.53,492L-651.26,492ZM-636.97,481.44C-636.97,487.63 -632.10,492.49 -623.93,492.49C-615.69,492.49 -610.82,487.63 -610.82,481.44C-610.82,475.28 -615.69,470.42 -623.93,470.42C-632.10,470.42 -636.97,475.28 -636.97,481.44ZM-630.39,481.44C-630.39,477.98 -628.84,474.60 -623.93,474.60C-619.07,474.60 -617.40,477.98 -617.40,481.44C-617.40,484.89 -619.07,488.31 -623.93,488.31C-628.84,488.31 -630.39,484.89 -630.39,481.44ZM-608.54,474.60L-603.68,474.60L-603.68,484.63C-603.68,490.06 -600.56,492.49 -595.47,492.49C-590.04,492.49 -587.53,489.38 -587.53,489.38L-588.75,485.27C-588.75,485.27 -590.42,488.31 -593.76,488.31C-596.46,488.31 -597.49,486.76 -597.49,484.17L-597.49,474.60L-587.80,474.60L-587.80,470.91L-597.49,470.91L-597.49,462.97L-603.53,466.77L-603.53,470.91L-608.54,470.91ZM-578.18,481.82L-559.71,482.20C-559.14,479.19 -559.79,470.42 -571.68,470.42C-579.55,470.42 -584.49,475.17 -584.49,481.44C-584.49,488.58 -578.49,492.49 -571.68,492.49C-560.74,492.49 -559.14,485.01 -559.14,485.01L-565.22,483.45C-565.22,483.45 -565.26,488.31 -571.04,488.31C-576.17,488.31 -578.14,485.08 -578.18,481.82ZM-566.21,478.47L-577.80,478.85C-577.80,478.85 -577.04,474.41 -571.80,474.41C-566.74,474.41 -566.21,478.47 -566.21,478.47ZM-549.26,483.56L-555.34,485.12C-555.34,485.12 -554.85,492.49 -542.73,492.49C-536.65,492.49 -531.78,490.21 -531.78,485.92C-531.78,482.80 -533.80,480.37 -539.12,479.50L-544.44,478.62C-546.91,478.21 -548.47,477.86 -548.47,476.61C-548.47,475.55 -547.25,474.41 -544.59,474.41C-539.19,474.41 -539.00,478.13 -539.00,478.13L-532.92,476.57C-532.92,476.57 -533.80,470.42 -544.32,470.42C-549.87,470.42 -554.28,472.81 -554.28,476.99C-554.28,480.83 -550.52,482.12 -547.17,482.73L-542.23,483.64C-539.27,484.17 -537.98,484.82 -537.98,486.11C-537.98,487.59 -540.14,488.31 -542.65,488.31C-549.30,488.31 -549.26,483.56 -549.26,483.56ZM-509.40,500.47L-503.09,500.47L-503.09,470.91L-506.74,470.91L-508.22,475.74C-508.22,475.74 -510.05,470.42 -516.85,470.42C-523.31,470.42 -527.98,474.98 -527.98,481.44C-527.98,487.90 -523.31,492.49 -516.89,492.49C-511.00,492.49 -509.40,488.66 -509.40,488.66ZM-514.87,474.60C-510.28,474.60 -508.38,477.94 -508.38,481.44C-508.38,484.93 -510.28,488.31 -514.87,488.31C-519.36,488.31 -521.41,485.27 -521.41,481.44C-521.41,477.60 -519.36,474.60 -514.87,474.60ZM-490.02,470.91L-496.25,470.91L-496.25,483.83C-496.25,489.19 -493.37,492.49 -486.37,492.49C-478.01,492.49 -477.56,486.03 -477.56,486.03L-475.77,492L-472.12,492L-472.12,470.91L-478.39,470.91L-478.39,483.68C-478.39,483.68 -479.69,488.31 -484.66,488.31C-488.05,488.31 -490.02,486.95 -490.02,484.13ZM-460.12,481.82L-441.65,482.20C-441.08,479.19 -441.72,470.42 -453.62,470.42C-461.48,470.42 -466.42,475.17 -466.42,481.44C-466.42,488.58 -460.42,492.49 -453.62,492.49C-442.67,492.49 -441.08,485.01 -441.08,485.01L-447.16,483.45C-447.16,483.45 -447.20,488.31 -452.97,488.31C-458.10,488.31 -460.08,485.08 -460.12,481.82ZM-448.15,478.47L-459.74,478.85C-459.74,478.85 -458.98,474.41 -453.73,474.41C-448.68,474.41 -448.15,478.47 -448.15,478.47ZM-421.24,482.58L-421.24,478.89L-437.28,478.89L-437.28,482.58ZM-402.39,462.47L-416.30,462.47L-416.30,492L-401.63,492C-391.53,492 -386.97,489.00 -386.97,483.37C-386.97,477.75 -392.59,476.76 -393.12,476.69C-392.63,476.61 -387.73,475.66 -387.73,470.72C-387.73,465.10 -392.29,462.47 -402.39,462.47ZM-402.01,474.82L-409.54,474.82L-409.54,466.62L-402.01,466.62C-397.68,466.62 -394.76,467.68 -394.76,470.72C-394.76,473.76 -397.68,474.82 -402.01,474.82ZM-409.54,487.82L-409.54,478.85L-400.91,478.85C-396.77,478.85 -394.00,480.37 -394.00,483.34C-394.00,486.38 -396.92,487.82 -401.25,487.82ZM-382.41,481.44C-382.41,487.63 -377.54,492.49 -369.37,492.49C-361.13,492.49 -356.26,487.63 -356.26,481.44C-356.26,475.28 -361.13,470.42 -369.37,470.42C-377.54,470.42 -382.41,475.28 -382.41,481.44ZM-375.83,481.44C-375.83,477.98 -374.27,474.60 -369.37,474.60C-364.51,474.60 -362.84,477.98 -362.84,481.44C-362.84,484.89 -364.51,488.31 -369.37,488.31C-374.27,488.31 -375.83,484.89 -375.83,481.44ZM-350.56,492L-344.29,492L-344.29,461.94C-344.29,461.94 -347.48,462.47 -350.56,462.47ZM-320.01,474.25C-320.01,474.25 -321.61,470.42 -327.50,470.42C-333.92,470.42 -338.59,475.01 -338.59,481.47C-338.59,487.93 -333.92,492.49 -327.46,492.49C-320.66,492.49 -318.83,487.17 -318.83,487.17L-317.35,492L-313.70,492L-313.70,461.94C-313.70,461.94 -316.86,462.47 -320.01,462.47ZM-325.48,488.31C-329.97,488.31 -332.02,485.31 -332.02,481.47C-332.02,477.64 -329.97,474.60 -325.48,474.60C-320.88,474.60 -318.98,477.98 -318.98,481.47C-318.98,484.97 -320.88,488.31 -325.48,488.31Z"/>
</svg>