<?xml version="1.0"?>
<svg xmlns="http://www.w3.org/2000/svg" width="1920" height="1080" viewBox="-960 -540 1920 1080">
    <path d="M-679,-273.75C-685.50,-254.25 -707.50,-244.75 -736,-244.75C-776.75,-244.75 -796.50,-262.75 -796.25,-295.50C-796,-328 -774.75,-347 -737,-347C-709.75,-347 -692,-341.25 -683.25,-330.25L-668.75,-330.25L-668.75,-392.50L-683.25,-392.50L-683.25,-367.50C-693.25,-384.25 -713.75,-395 -737,-395C-780.50,-395 -811.75,-367.75 -811.75,-298.50C-811.75,-237 -782.50,-207.50 -739.50,-207.50C-697.50,-207.50 -672.50,-227.25 -664.25,-262.50ZM-600.50,-207.50C-582.50,-207.50 -572.25,-215 -566.75,-223L-573.75,-250.25C-578.50,-245.25 -586,-242.50 -596,-242.50C-610.50,-242.50 -616,-251.25 -616,-266.25L-616,-410.25L-657.50,-410.25L-657.50,-366.50L-633,-366.50L-633,-247.25C-633,-219.25 -622.50,-207.50 -600.50,-207.50ZM-500.50,-387.25C-500.50,-401.75 -508.50,-407.50 -522,-407.50C-537,-407.50 -544.50,-401.50 -544.50,-387.25C-544.50,-373 -536.50,-366.25 -522,-366.25C-509,-366.25 -500.50,-373 -500.50,-387.25ZM-549.25,-245.75L-549.25,-209.75C-538.50,-210 -528.25,-210 -518,-210L-509.25,-210C-498.50,-210 -487.75,-209.75 -476.50,-209.75L-476.50,-245.75L-501.75,-245.75L-501.75,-342.50L-549.25,-342.50L-549.25,-301.50L-518,-301.50L-518,-245.75ZM-454,-245.75L-454,-209.75C-451,-210 -441.25,-210 -430,-210L-415.75,-210C-405,-210 -394.75,-209.75 -389.25,-209.75L-389.25,-245.75L-413.75,-245.75L-413.75,-283.25C-407.75,-299.25 -395,-307 -380,-307C-356,-307 -348,-296.50 -348,-270.25L-348,-245.75L-371.50,-245.75L-371.50,-209.75C-364.50,-210 -320.75,-210 -306.75,-209.75L-306.75,-245.75L-332.25,-245.75L-332.25,-281.50C-326,-299.75 -313.25,-307 -296.25,-307C-274.50,-307 -265.75,-295.50 -265.75,-270.25L-265.75,-245.75L-290.25,-245.75L-290.25,-209.75C-283.25,-210 -239.50,-210 -225.50,-209.75L-225.50,-245.75L-250,-245.75L-250,-285.75C-250,-334.75 -263.50,-350 -295,-350C-313,-350 -330,-339.25 -337,-319.75C-343,-342 -355.50,-350 -378,-350C-394.50,-350 -407.50,-341.25 -413.75,-325.75L-413.75,-347.50L-453.75,-347.50L-453.75,-306.50C-449.25,-306.75 -439.75,-306.75 -430,-306.75L-430,-245.75ZM-85.75,-210C-75.75,-210 -68.75,-213.50 -64.25,-219.25L-64.25,-250.25C-70,-243 -76.25,-240.75 -84,-240.75C-90,-240.75 -95.25,-243.75 -97.25,-249.50L-97.25,-289C-97.25,-335.25 -112.50,-350 -146.50,-350C-165.25,-350 -181,-344.25 -190.50,-333L-189.50,-300.75C-182.75,-308.75 -170.25,-315.50 -149,-315.50C-125.50,-315.50 -114.50,-305.75 -113.25,-282.25C-123.75,-289.50 -141.25,-291.75 -153,-291.75C-182.75,-291.75 -203,-275 -203,-248.75C-203,-224.50 -186,-207.50 -150.50,-207.50C-134.25,-207.50 -118.50,-214.25 -110,-223.50C-105,-214.75 -96.50,-210 -85.75,-210ZM-150.25,-238.75C-173.50,-238.75 -183.50,-245 -183.50,-256C-183.50,-267.50 -173,-274 -148.50,-274C-134.50,-274 -123.25,-270.25 -113,-262.50L-113,-249.75C-121,-242.25 -134.75,-238.75 -150.25,-238.75ZM34,-223.50L27.25,-248.75C23.25,-244.25 14.75,-240.75 4.25,-241C-8,-241.25 -16.50,-247.50 -16.50,-265.50L-16.50,-306L21,-306L21,-345L-16.50,-345L-16.50,-377.50L-32.75,-377.50L-32.75,-345L-52.50,-345L-52.50,-306L-32.75,-306L-32.75,-248.25C-32.75,-218 -18.50,-207.50 1,-207.50C15.25,-207.50 29.50,-213.50 34,-223.50ZM161.75,-241.50L150,-252.75C142.75,-242.75 132.25,-237.50 110.25,-237.75C87.25,-238 72.50,-246 69.25,-268L165.75,-268C165.75,-329.75 144.25,-350 110.25,-350C80.25,-350 54,-330 54,-276.75C54,-236.25 73.25,-207.50 110.75,-207.50C135,-207.50 153.50,-222.50 161.75,-241.50ZM109,-312C134.50,-312 150.25,-299.50 150.25,-284.25L69.25,-284.25C72.75,-303.25 90.25,-312 109,-312ZM189.50,-352.50L210.50,-352.50L210.50,-246L189.50,-246L189.50,-210L280.25,-210C319,-210 339.50,-231.25 339.50,-259.50C339.50,-283.25 333.25,-295.25 315.50,-301.50C329,-307 335.50,-316.50 335.50,-344.75C335.50,-371 317.50,-390.75 280.25,-392.50L189.50,-392.50ZM228.50,-310.25L228.50,-352.50L283.75,-352.50C310.25,-352.50 317.50,-342 317.50,-331.75C317.50,-319.75 312.25,-310.25 288.75,-310.25ZM228.50,-246L228.50,-292.25L288,-292.25C313,-292.25 320.75,-281.50 320.75,-269.75C320.75,-255.50 311,-246 288.75,-246ZM480.50,-210C490.50,-210 497.50,-213.50 502,-219.25L502,-250.25C496.25,-243 490,-240.75 482.25,-240.75C476.25,-240.75 471,-243.75 469,-249.50L469,-289C469,-335.25 453.75,-350 419.75,-350C401,-350 385.25,-344.25 375.75,-333L376.75,-300.75C383.50,-308.75 396,-315.50 417.25,-315.50C440.75,-315.50 451.75,-305.75 453,-282.25C442.50,-289.50 425,-291.75 413.25,-291.75C383.50,-291.75 363.25,-275 363.25,-248.75C363.25,-224.50 380.25,-207.50 415.75,-207.50C432,-207.50 447.75,-214.25 456.25,-223.50C461.25,-214.75 469.75,-210 480.50,-210ZM416,-238.75C392.75,-238.75 382.75,-245 382.75,-256C382.75,-267.50 393.25,-274 417.75,-274C431.75,-274 443,-270.25 453.25,-262.50L453.25,-249.75C445.25,-242.25 431.50,-238.75 416,-238.75ZM618.75,-244.75C618.75,-272.50 605.75,-283.50 570,-287C548,-289.25 540.75,-293.75 540.75,-300.25C540.75,-309.50 551.50,-316.75 570.25,-316.75C591.25,-316.75 599,-311 603.75,-302L615.50,-302L615.50,-347.75L603.75,-347.75L603.75,-337C594.50,-345.25 579.75,-350 566,-350C540.25,-350 522,-335 522,-311.50C522,-282 536,-272.25 568.50,-269C589.75,-266.75 598.75,-262.25 598.75,-255.50C598.75,-247 589.50,-239.50 567,-239.50C544.50,-239.50 540.25,-248.25 532.50,-258.25L521.25,-258.25L521.25,-210L532.50,-210L532.50,-224C540.75,-214.25 555,-207.50 571.50,-207.50C601.50,-207.50 618.75,-222.25 618.75,-244.75ZM754,-241.50L742.25,-252.75C735,-242.75 724.50,-237.50 702.50,-237.75C679.50,-238 664.75,-246 661.50,-268L758,-268C758,-329.75 736.50,-350 702.50,-350C672.50,-350 646.25,-330 646.25,-276.75C646.25,-236.25 665.50,-207.50 703,-207.50C727.25,-207.50 745.75,-222.50 754,-241.50ZM701.25,-312C726.75,-312 742.50,-299.50 742.50,-284.25L661.50,-284.25C665,-303.25 682.50,-312 701.25,-312Z" fill="#ffffff" stroke="#000000"/>
    <path d="M-676.18,-272.97C-682.76,-253.71 -704.60,-244.47 -732.82,-244.67C-773.16,-244.97 -792.58,-262.93 -792.10,-295.35C-791.62,-327.52 -770.44,-346.18 -733.07,-345.91C-706.09,-345.71 -688.56,-339.89 -679.98,-328.94L-665.63,-328.83L-665.18,-390.46L-679.53,-390.56L-679.71,-365.81C-689.49,-382.47 -709.71,-393.26 -732.73,-393.42C-775.79,-393.74 -806.92,-366.99 -807.42,-298.43C-807.86,-237.55 -779.12,-208.13 -736.55,-207.82C-694.97,-207.52 -670.08,-226.89 -661.66,-261.73ZM-598.95,-206.82C-581.13,-206.69 -570.92,-214.04 -565.42,-221.92L-572.16,-248.95C-576.89,-244.03 -584.34,-241.37 -594.24,-241.44C-608.59,-241.54 -613.97,-250.24 -613.87,-265.09L-612.83,-407.65L-653.91,-407.95L-654.23,-364.64L-629.97,-364.46L-630.83,-246.41C-631.03,-218.69 -620.72,-206.98 -598.95,-206.82ZM-498.65,-384.05C-498.55,-398.40 -506.43,-404.15 -519.79,-404.25C-534.64,-404.36 -542.11,-398.47 -542.21,-384.37C-542.31,-370.26 -534.44,-363.52 -520.09,-363.41C-507.22,-363.32 -498.75,-369.94 -498.65,-384.05ZM-547.93,-244.32L-548.19,-208.68C-537.55,-208.85 -527.40,-208.78 -517.25,-208.70L-508.59,-208.64C-497.95,-208.56 -487.31,-208.24 -476.17,-208.15L-475.91,-243.79L-500.91,-243.98L-500.21,-339.76L-547.24,-340.10L-547.53,-299.51L-516.59,-299.28L-517.00,-244.09ZM-453.64,-243.63L-453.90,-207.99C-450.93,-208.22 -441.27,-208.15 -430.14,-208.07L-416.03,-207.96C-405.39,-207.89 -395.24,-207.57 -389.80,-207.53L-389.54,-243.16L-413.79,-243.34L-413.52,-280.47C-407.47,-296.26 -394.79,-303.84 -379.94,-303.73C-356.18,-303.56 -348.34,-293.11 -348.52,-267.12L-348.70,-242.87L-371.97,-243.04L-372.22,-207.40C-365.29,-207.59 -321.98,-207.28 -308.12,-206.93L-307.86,-242.57L-333.11,-242.75L-332.85,-278.15C-326.53,-296.17 -313.86,-303.25 -297.03,-303.13C-275.50,-302.97 -266.92,-291.53 -267.10,-266.53L-267.28,-242.27L-291.53,-242.45L-291.79,-206.81C-284.86,-207.01 -241.55,-206.69 -227.69,-206.35L-227.43,-241.98L-251.68,-242.16L-251.40,-281.76C-251.04,-330.27 -264.30,-345.46 -295.48,-345.69C-313.30,-345.82 -330.21,-335.30 -337.28,-316.05C-343.06,-338.12 -355.37,-346.13 -377.65,-346.29C-393.98,-346.41 -406.92,-337.84 -413.22,-322.54L-413.06,-344.07L-452.66,-344.36L-452.95,-303.77C-448.50,-303.99 -439.09,-303.92 -429.44,-303.85L-429.88,-243.46ZM-89.34,-205.59C-79.44,-205.51 -72.48,-208.93 -67.99,-214.59L-67.76,-245.28C-73.51,-238.14 -79.71,-235.96 -87.38,-236.01C-93.32,-236.06 -98.50,-239.07 -100.44,-244.77L-100.15,-283.88C-99.82,-329.66 -114.81,-344.37 -148.47,-344.62C-167.03,-344.76 -182.67,-339.18 -192.15,-328.11L-191.39,-296.17C-184.65,-304.04 -172.23,-310.64 -151.19,-310.48C-127.93,-310.31 -117.11,-300.58 -116.04,-277.31C-126.38,-284.56 -143.69,-286.92 -155.32,-287.00C-184.78,-287.22 -204.94,-270.78 -205.13,-244.79C-205.31,-220.79 -188.60,-203.83 -153.46,-203.58C-137.37,-203.46 -121.73,-210.03 -113.25,-219.13C-108.36,-210.43 -99.98,-205.66 -89.34,-205.59ZM-152.98,-234.51C-176.00,-234.68 -185.86,-240.94 -185.78,-251.83C-185.69,-263.21 -175.25,-269.57 -151.00,-269.40C-137.14,-269.30 -126.03,-265.50 -115.94,-257.76L-116.03,-245.13C-124.00,-237.77 -137.64,-234.40 -152.98,-234.51ZM29.31,-218.09L22.81,-243.13C18.82,-238.71 10.38,-235.30 -0.02,-235.63C-12.14,-235.96 -20.51,-242.21 -20.38,-260.03L-20.09,-300.12L17.03,-299.85L17.31,-338.46L-19.81,-338.73L-19.58,-370.91L-35.66,-371.02L-35.90,-338.85L-55.45,-338.99L-55.73,-300.38L-36.18,-300.24L-36.59,-243.07C-36.81,-213.12 -22.78,-202.63 -3.48,-202.49C10.63,-202.38 24.78,-208.22 29.31,-218.09ZM155.91,-234.99L144.36,-246.21C137.11,-236.36 126.67,-231.24 104.90,-231.64C82.13,-232.06 67.58,-240.08 64.53,-261.89L160.06,-261.19C160.50,-322.32 139.36,-342.52 105.71,-342.77C76.01,-342.99 49.88,-323.38 49.49,-270.66C49.20,-230.57 68.05,-201.96 105.17,-201.69C129.18,-201.52 147.60,-216.24 155.91,-234.99ZM104.19,-305.16C129.44,-304.98 144.94,-292.49 144.83,-277.39L64.64,-277.97C68.24,-296.76 85.63,-305.29 104.19,-305.16ZM184.18,-344.67L204.97,-344.52L204.20,-239.09L183.41,-239.24L183.15,-203.60L272.99,-202.95C311.35,-202.67 331.80,-223.56 332.00,-251.52C332.18,-275.04 326.08,-286.96 308.55,-293.28C321.95,-298.62 328.46,-307.98 328.66,-335.95C328.85,-361.94 311.17,-381.62 274.31,-383.62L184.47,-384.27ZM222.48,-302.57L222.79,-344.39L277.48,-343.99C303.72,-343.80 310.82,-333.36 310.75,-323.21C310.66,-311.33 305.39,-301.96 282.13,-302.13ZM222.02,-238.96L222.35,-284.75L281.26,-284.32C306.01,-284.14 313.60,-273.44 313.52,-261.81C313.41,-247.70 303.69,-238.37 281.67,-238.53ZM471.23,-201.50C481.13,-201.43 488.09,-204.85 492.59,-210.51L492.81,-241.20C487.06,-234.06 480.86,-231.88 473.19,-231.93C467.25,-231.98 462.07,-234.98 460.13,-240.69L460.42,-279.80C460.75,-325.58 445.76,-340.29 412.10,-340.54C393.54,-340.67 377.91,-335.10 368.42,-324.03L369.18,-292.09C375.92,-299.96 388.34,-306.56 409.38,-306.40C432.64,-306.23 443.46,-296.50 444.53,-273.23C434.19,-280.48 416.88,-282.83 405.25,-282.92C375.80,-283.13 355.63,-266.70 355.44,-240.71C355.26,-216.70 371.97,-199.75 407.12,-199.50C423.20,-199.38 438.84,-205.95 447.32,-215.04C452.21,-206.35 460.59,-201.58 471.23,-201.50ZM407.59,-230.43C384.57,-230.60 374.72,-236.86 374.80,-247.75C374.88,-259.13 385.32,-265.49 409.57,-265.32C423.43,-265.21 434.54,-261.42 444.64,-253.67L444.54,-241.05C436.57,-233.69 422.93,-230.32 407.59,-230.43ZM608.35,-234.91C608.55,-262.38 595.76,-273.36 560.39,-277.09C538.63,-279.47 531.48,-283.98 531.53,-290.42C531.60,-299.57 542.29,-306.67 560.85,-306.54C581.64,-306.39 589.27,-300.64 593.91,-291.69L605.54,-291.61L605.87,-336.90L594.24,-336.99L594.16,-326.34C585.07,-334.58 570.50,-339.39 556.89,-339.48C531.39,-339.67 513.22,-324.95 513.05,-301.69C512.84,-272.48 526.63,-262.73 558.78,-259.28C579.80,-256.90 588.68,-252.38 588.63,-245.70C588.57,-237.28 579.35,-229.92 557.08,-230.09C534.81,-230.25 530.66,-238.94 523.06,-248.90L511.92,-248.98L511.58,-201.21L522.71,-201.13L522.81,-214.99C530.91,-205.28 544.97,-198.49 561.30,-198.37C591.00,-198.16 608.19,-212.64 608.35,-234.91ZM742.22,-230.72L730.67,-241.94C723.42,-232.09 712.99,-226.97 691.21,-227.38C668.44,-227.79 653.90,-235.82 650.84,-257.62L746.37,-256.92C746.82,-318.05 725.68,-338.26 692.02,-338.50C662.32,-338.72 636.19,-319.11 635.80,-266.39C635.51,-226.30 654.36,-197.70 691.49,-197.43C715.49,-197.25 733.92,-211.97 742.22,-230.72ZM690.51,-300.89C715.75,-300.71 731.25,-288.22 731.14,-273.12L650.95,-273.71C654.56,-292.49 671.94,-301.03 690.51,-300.89Z" fill="#ffffff" stroke="#000000"/>
    <path d="M-673.29,-272.23C-679.94,-253.21 -701.63,-244.22 -729.56,-244.62C-769.49,-245.21 -788.58,-263.12 -787.87,-295.21C-787.16,-327.06 -766.07,-345.37 -729.08,-344.83C-702.37,-344.44 -685.06,-338.56 -676.65,-327.65L-662.44,-327.45L-661.55,-388.44L-675.76,-388.65L-676.11,-364.15C-685.67,-380.71 -705.61,-391.54 -728.39,-391.87C-771.02,-392.49 -802.03,-366.23 -803.02,-298.37C-803.89,-238.11 -775.65,-208.79 -733.52,-208.17C-692.36,-207.57 -667.58,-226.57 -658.99,-260.99ZM-597.31,-206.19C-579.67,-205.93 -569.52,-213.14 -564.02,-220.90L-570.49,-247.70C-575.21,-242.87 -582.60,-240.28 -592.40,-240.42C-606.61,-240.63 -611.88,-249.28 -611.66,-263.98L-609.61,-405.08L-650.27,-405.68L-650.90,-362.81L-626.89,-362.46L-628.59,-245.60C-628.99,-218.17 -618.87,-206.50 -597.31,-206.19ZM-496.76,-380.90C-496.55,-395.11 -504.31,-400.86 -517.54,-401.05C-532.23,-401.26 -539.67,-395.49 -539.87,-381.53C-540.08,-367.56 -532.33,-360.83 -518.12,-360.63C-505.39,-360.44 -496.96,-366.93 -496.76,-380.90ZM-546.55,-242.94L-547.06,-207.66C-536.52,-207.75 -526.48,-207.61 -516.43,-207.46L-507.86,-207.34C-497.33,-207.18 -486.80,-206.78 -475.77,-206.62L-475.26,-241.90L-500.00,-242.26L-498.62,-337.07L-545.17,-337.74L-545.75,-297.57L-515.13,-297.12L-515.92,-242.49ZM-453.21,-241.58L-453.72,-206.30C-450.78,-206.51 -441.23,-206.37 -430.20,-206.21L-416.24,-206.00C-405.71,-205.85 -395.67,-205.46 -390.28,-205.38L-389.76,-240.66L-413.77,-241.01L-413.23,-277.75C-407.13,-293.34 -394.52,-300.76 -379.82,-300.54C-356.31,-300.20 -348.62,-289.80 -348.99,-264.07L-349.34,-240.07L-372.37,-240.40L-372.88,-205.13C-366.02,-205.27 -323.15,-204.65 -309.43,-204.20L-308.92,-239.48L-333.91,-239.84L-333.40,-274.87C-327.01,-292.67 -314.42,-299.59 -297.76,-299.35C-276.45,-299.04 -268.04,-287.64 -268.40,-262.90L-268.75,-238.89L-292.75,-239.24L-293.27,-203.97C-286.40,-204.11 -243.53,-203.49 -229.82,-203.04L-229.30,-238.32L-253.31,-238.67L-252.74,-277.86C-252.04,-325.88 -265.05,-341.02 -295.92,-341.46C-313.56,-341.72 -330.37,-331.43 -337.51,-312.42C-343.07,-334.31 -355.20,-342.33 -377.25,-342.65C-393.42,-342.88 -406.28,-334.50 -412.63,-319.40L-412.32,-340.71L-451.51,-341.28L-452.10,-301.10C-447.69,-301.29 -438.38,-301.15 -428.82,-301.01L-429.69,-241.24ZM-92.87,-201.29C-83.07,-201.15 -76.17,-204.48 -71.67,-210.05L-71.23,-240.43C-76.97,-233.41 -83.13,-231.29 -90.72,-231.40C-96.60,-231.49 -101.70,-234.50 -103.58,-240.16L-103.02,-278.87C-102.36,-324.19 -117.09,-338.86 -150.40,-339.35C-168.78,-339.61 -184.29,-334.20 -193.76,-323.32L-193.24,-291.70C-186.51,-299.44 -174.17,-305.88 -153.35,-305.58C-130.32,-305.24 -119.68,-295.53 -118.79,-272.48C-128.98,-279.74 -146.09,-282.19 -157.61,-282.36C-186.76,-282.78 -206.84,-266.66 -207.21,-240.94C-207.56,-217.18 -191.14,-200.27 -156.36,-199.77C-140.43,-199.54 -124.90,-205.93 -116.44,-214.87C-111.67,-206.22 -103.41,-201.45 -92.87,-201.29ZM-155.67,-230.39C-178.45,-230.72 -188.16,-236.98 -188.00,-247.76C-187.84,-259.03 -177.46,-265.25 -153.45,-264.90C-139.73,-264.70 -128.76,-260.87 -118.83,-253.13L-119.01,-240.63C-126.96,-233.40 -140.48,-230.16 -155.67,-230.39ZM24.66,-212.81L18.41,-237.65C14.42,-233.30 6.04,-229.99 -4.24,-230.39C-16.24,-230.81 -24.48,-237.05 -24.22,-254.69L-23.65,-294.38L13.10,-293.84L13.66,-332.06L-23.09,-332.59L-22.63,-364.44L-38.55,-364.67L-39.01,-332.82L-58.37,-333.11L-58.92,-294.89L-39.57,-294.61L-40.39,-238.02C-40.83,-208.38 -27.01,-197.88 -7.90,-197.61C6.06,-197.40 20.11,-203.08 24.66,-212.81ZM150.10,-228.63L138.75,-239.82C131.50,-230.12 121.14,-225.13 99.58,-225.69C77.05,-226.26 62.71,-234.31 59.84,-255.92L154.40,-254.54C155.28,-315.05 134.50,-335.20 101.18,-335.68C71.79,-336.11 45.78,-316.89 45.02,-264.71C44.44,-225.02 62.89,-196.58 99.64,-196.04C123.40,-195.69 141.74,-210.13 150.10,-228.63ZM99.42,-298.46C124.40,-298.10 139.66,-285.63 139.44,-270.68L60.07,-271.84C63.77,-290.41 81.04,-298.73 99.42,-298.46ZM178.88,-337.00L199.45,-336.70L197.93,-232.34L177.36,-232.64L176.84,-197.37L265.77,-196.07C303.74,-195.52 324.13,-216.05 324.53,-243.73C324.87,-267.00 318.92,-278.85 301.62,-285.23C314.92,-290.43 321.43,-299.64 321.83,-327.32C322.20,-353.05 304.85,-372.66 268.37,-374.90L179.45,-376.20ZM216.49,-295.04L217.09,-336.44L271.23,-335.66C297.20,-335.28 304.15,-324.89 304.01,-314.84C303.84,-303.08 298.56,-293.85 275.53,-294.18ZM215.57,-232.09L216.23,-277.41L274.54,-276.56C299.03,-276.20 306.47,-265.56 306.31,-254.04C306.10,-240.08 296.41,-230.91 274.61,-231.23ZM461.99,-193.21C471.79,-193.07 478.70,-196.40 483.19,-201.97L483.63,-232.35C477.90,-225.33 471.74,-223.21 464.15,-223.32C458.27,-223.41 453.16,-226.42 451.29,-232.08L451.85,-270.79C452.51,-316.11 437.78,-330.78 404.46,-331.27C386.09,-331.53 370.57,-326.12 361.10,-315.24L361.62,-283.62C368.35,-291.36 380.70,-297.80 401.52,-297.50C424.55,-297.16 435.19,-287.45 436.08,-264.40C425.89,-271.66 408.77,-274.11 397.26,-274.28C368.11,-274.70 348.03,-258.58 347.65,-232.86C347.31,-209.10 363.72,-192.19 398.51,-191.69C414.43,-191.46 429.96,-197.85 438.42,-206.79C443.20,-198.14 451.46,-193.37 461.99,-193.21ZM399.20,-222.31C376.42,-222.64 366.71,-228.90 366.86,-239.68C367.03,-250.95 377.41,-257.17 401.42,-256.82C415.14,-256.62 426.11,-252.79 436.04,-245.05L435.86,-232.55C427.91,-225.32 414.39,-222.08 399.20,-222.31ZM597.96,-225.29C598.35,-252.48 585.77,-263.45 550.79,-267.39C529.27,-269.91 522.23,-274.42 522.32,-280.79C522.45,-289.85 533.09,-296.80 551.46,-296.54C572.04,-296.24 579.55,-290.49 584.08,-281.61L595.59,-281.44L596.24,-326.27L584.73,-326.44L584.58,-315.90C575.63,-324.12 561.24,-328.98 547.77,-329.18C522.54,-329.55 504.44,-315.11 504.11,-292.08C503.69,-263.17 517.26,-253.42 549.06,-249.77C569.86,-247.26 578.61,-242.73 578.51,-236.11C578.39,-227.78 569.22,-220.57 547.17,-220.89C525.13,-221.21 521.09,-229.84 513.64,-239.75L502.61,-239.91L501.92,-192.63L512.95,-192.47L513.15,-206.19C521.09,-196.52 534.96,-189.70 551.13,-189.47C580.52,-189.04 597.64,-203.24 597.96,-225.29ZM730.44,-220.18L719.09,-231.37C711.84,-221.67 701.48,-216.68 679.93,-217.24C657.39,-217.81 643.05,-225.86 640.18,-247.46L734.74,-246.09C735.62,-306.60 714.84,-326.75 681.53,-327.23C652.13,-327.66 626.12,-308.44 625.36,-256.26C624.78,-216.57 643.24,-188.12 679.98,-187.59C703.75,-187.24 722.09,-201.68 730.44,-220.18ZM679.76,-290.01C704.75,-289.65 720.00,-277.18 719.78,-262.23L640.41,-263.39C644.11,-281.96 661.39,-290.28 679.76,-290.01Z" fill="#ffffff" stroke="#000000"/>
    <path d="M-670.32,-271.51C-677.04,-252.74 -698.57,-243.99 -726.21,-244.60C-765.73,-245.46 -784.50,-263.33 -783.56,-295.09C-782.63,-326.60 -761.62,-344.58 -725.01,-343.78C-698.59,-343.20 -681.50,-337.25 -673.24,-326.39L-659.18,-326.09L-657.86,-386.45L-671.93,-386.76L-672.46,-362.52C-681.80,-378.97 -701.45,-389.83 -724.00,-390.32C-766.18,-391.25 -797.07,-365.48 -798.53,-298.33C-799.84,-238.69 -772.09,-209.46 -730.39,-208.55C-689.66,-207.66 -665.00,-226.28 -656.25,-260.29ZM-595.60,-205.60C-578.14,-205.22 -568.04,-212.28 -562.54,-219.92L-568.75,-246.49C-573.46,-241.74 -580.79,-239.24 -590.49,-239.45C-604.55,-239.76 -609.70,-248.36 -609.38,-262.90L-606.33,-402.55L-646.58,-403.43L-647.51,-361.00L-623.75,-360.48L-626.27,-244.84C-626.87,-217.68 -616.93,-206.07 -595.60,-205.60ZM-494.81,-377.80C-494.50,-391.86 -502.14,-397.61 -515.23,-397.89C-529.78,-398.21 -537.18,-392.55 -537.48,-378.73C-537.78,-364.91 -530.17,-358.20 -516.11,-357.89C-503.50,-357.61 -495.11,-363.98 -494.81,-377.80ZM-545.09,-241.61L-545.85,-206.70C-535.42,-206.71 -525.48,-206.50 -515.54,-206.28L-507.05,-206.09C-496.63,-205.87 -486.21,-205.40 -475.30,-205.16L-474.54,-240.07L-499.02,-240.60L-496.97,-334.43L-543.04,-335.43L-543.90,-295.67L-513.60,-295.01L-514.78,-240.95ZM-452.72,-239.59L-453.48,-204.68C-450.56,-204.86 -441.11,-204.65 -430.20,-204.41L-416.38,-204.11C-405.95,-203.88 -396.02,-203.42 -390.69,-203.31L-389.92,-238.22L-413.68,-238.74L-412.89,-275.11C-406.73,-290.49 -394.20,-297.74 -379.65,-297.42C-356.38,-296.91 -348.84,-286.56 -349.40,-261.11L-349.92,-237.35L-372.71,-237.84L-373.47,-202.93C-366.68,-203.03 -324.25,-202.10 -310.68,-201.56L-309.92,-236.47L-334.65,-237.01L-333.89,-271.68C-327.44,-289.25 -314.92,-296.01 -298.44,-295.65C-277.34,-295.19 -269.10,-283.85 -269.64,-259.36L-270.16,-235.60L-293.92,-236.12L-294.68,-201.21C-287.88,-201.31 -245.46,-200.38 -231.89,-199.84L-231.12,-234.75L-254.88,-235.27L-254.04,-274.06C-253.00,-321.58 -265.77,-336.65 -296.31,-337.32C-313.77,-337.70 -330.48,-327.64 -337.68,-308.88C-343.03,-330.58 -354.98,-338.60 -376.80,-339.08C-392.81,-339.43 -405.60,-331.22 -411.99,-316.32L-411.53,-337.41L-450.32,-338.26L-451.19,-298.50C-446.82,-298.65 -437.60,-298.45 -428.15,-298.24L-429.44,-239.08ZM-96.36,-197.12C-86.66,-196.91 -79.80,-200.16 -75.31,-205.64L-74.65,-235.70C-80.38,-228.79 -86.49,-226.74 -94.01,-226.90C-99.83,-227.03 -104.85,-230.05 -106.67,-235.67L-105.83,-273.98C-104.85,-318.83 -119.33,-333.46 -152.30,-334.18C-170.49,-334.57 -185.88,-329.33 -195.33,-318.62L-195.05,-287.33C-188.33,-294.94 -176.07,-301.22 -155.46,-300.77C-132.67,-300.27 -122.21,-290.59 -121.49,-267.77C-131.52,-275.02 -148.45,-277.58 -159.84,-277.82C-188.69,-278.45 -208.68,-262.64 -209.24,-237.18C-209.75,-213.67 -193.63,-196.82 -159.20,-196.07C-143.44,-195.72 -128.03,-201.94 -119.59,-210.73C-114.92,-202.14 -106.78,-197.35 -96.36,-197.12ZM-158.30,-226.37C-180.84,-226.86 -190.41,-233.13 -190.18,-243.80C-189.93,-254.95 -179.61,-261.03 -155.85,-260.52C-142.28,-260.22 -131.45,-256.34 -121.67,-248.61L-121.94,-236.25C-129.86,-229.14 -143.27,-226.04 -158.30,-226.37ZM20.06,-207.68L14.05,-232.31C10.07,-228.03 1.76,-224.81 -8.42,-225.28C-20.29,-225.78 -28.40,-232.02 -28.02,-249.48L-27.17,-288.75L9.20,-287.96L10.03,-325.78L-26.34,-326.57L-25.65,-358.09L-41.41,-358.43L-42.10,-326.92L-61.25,-327.34L-62.08,-289.51L-42.92,-289.10L-44.15,-233.09C-44.79,-203.76 -31.19,-193.27 -12.28,-192.86C1.54,-192.56 15.48,-198.07 20.06,-207.68ZM144.33,-222.43L133.17,-233.58C125.93,-224.04 115.64,-219.17 94.31,-219.88C72.01,-220.61 57.87,-228.68 55.19,-250.08L148.77,-248.04C150.08,-307.92 129.66,-328.02 96.69,-328.74C67.59,-329.37 41.71,-310.53 40.58,-258.89C39.73,-219.62 57.78,-191.33 94.15,-190.53C117.67,-190.02 135.93,-204.18 144.33,-222.43ZM94.67,-291.91C119.40,-291.37 134.41,-278.92 134.08,-264.13L55.53,-265.84C59.33,-284.19 76.48,-292.31 94.67,-291.91ZM173.59,-329.48L193.96,-329.04L191.70,-225.76L171.34,-226.20L170.57,-191.29L258.58,-189.37C296.16,-188.55 316.49,-208.72 317.09,-236.12C317.59,-259.15 311.78,-270.92 294.70,-277.35C307.91,-282.40 314.42,-291.48 315.01,-318.87C315.57,-344.33 298.53,-363.86 262.45,-366.35L174.44,-368.27ZM210.52,-287.68L211.41,-328.66L264.99,-327.49C290.69,-326.92 297.50,-316.59 297.28,-306.65C297.03,-295.01 291.74,-285.91 268.95,-286.41ZM209.16,-225.38L210.14,-270.23L267.84,-268.97C292.08,-268.44 299.37,-257.85 299.12,-246.45C298.82,-232.63 289.16,-223.63 267.59,-224.10ZM452.78,-185.13C462.47,-184.91 469.34,-188.16 473.82,-193.64L474.48,-223.70C468.75,-216.79 462.64,-214.74 455.12,-214.91C449.31,-215.04 444.28,-218.06 442.46,-223.68L443.30,-261.98C444.28,-306.83 429.80,-321.46 396.83,-322.18C378.65,-322.58 363.25,-317.33 353.80,-306.63L354.09,-275.33C360.80,-282.95 373.07,-289.23 393.67,-288.78C416.46,-288.28 426.92,-278.59 427.64,-255.77C417.61,-263.03 400.69,-265.58 389.29,-265.83C360.44,-266.46 340.45,-250.64 339.89,-225.19C339.38,-201.67 355.50,-184.83 389.93,-184.07C405.69,-183.73 421.11,-189.94 429.55,-198.73C434.21,-190.14 442.35,-185.35 452.78,-185.13ZM390.84,-214.37C368.29,-214.87 358.72,-221.14 358.96,-231.81C359.20,-242.96 369.52,-249.04 393.28,-248.52C406.86,-248.22 417.69,-244.35 427.46,-236.62L427.19,-224.25C419.27,-217.15 405.87,-214.04 390.84,-214.37ZM587.58,-215.90C588.17,-242.81 575.80,-253.75 541.20,-257.90C519.91,-260.55 512.98,-265.07 513.12,-271.37C513.31,-280.34 523.89,-287.14 542.07,-286.75C562.44,-286.30 569.83,-280.56 574.25,-271.73L585.64,-271.48L586.61,-315.85L575.22,-316.10L574.99,-305.68C566.19,-313.87 551.99,-318.79 538.66,-319.08C513.69,-319.63 495.67,-305.47 495.17,-282.68C494.55,-254.07 507.92,-244.32 539.37,-240.48C559.93,-237.85 568.56,-233.29 568.42,-226.75C568.24,-218.50 559.11,-211.42 537.29,-211.90C515.47,-212.38 511.53,-220.95 504.23,-230.82L493.32,-231.05L492.29,-184.26L503.20,-184.02L503.50,-197.60C511.29,-187.97 524.97,-181.12 540.97,-180.77C570.07,-180.14 587.11,-194.08 587.58,-215.90ZM718.68,-209.88L707.52,-221.04C700.28,-211.49 689.98,-206.63 668.65,-207.33C646.35,-208.06 632.22,-216.13 629.53,-237.54L723.12,-235.49C724.42,-295.38 704.00,-315.47 671.03,-316.19C641.94,-316.83 616.06,-297.99 614.93,-246.35C614.07,-207.07 632.13,-178.78 668.50,-177.99C692.01,-177.47 710.27,-191.63 718.68,-209.88ZM669.01,-279.37C693.74,-278.83 708.75,-266.37 708.43,-251.58L629.88,-253.30C633.67,-271.65 650.83,-279.76 669.01,-279.37Z" fill="#ffffff" stroke="#000000"/>
    <path d="M-667.28,-270.82C-674.06,-252.29 -695.44,-243.79 -722.78,-244.59C-761.89,-245.73 -780.34,-263.55 -779.18,-294.97C-778.03,-326.15 -757.11,-343.79 -720.89,-342.74C-694.74,-341.97 -677.87,-335.96 -669.78,-325.16L-655.86,-324.75L-654.12,-384.49L-668.04,-384.89L-668.73,-360.91C-677.86,-377.26 -697.23,-388.15 -719.54,-388.80C-761.29,-390.01 -792.04,-364.74 -793.97,-298.29C-795.69,-239.27 -768.45,-210.14 -727.18,-208.94C-686.88,-207.77 -662.34,-226.02 -653.44,-259.62ZM-593.80,-205.06C-576.53,-204.55 -566.48,-211.46 -560.98,-218.99L-566.94,-245.33C-571.63,-240.67 -578.91,-238.24 -588.50,-238.52C-602.42,-238.92 -607.45,-247.47 -607.03,-261.87L-603.01,-400.05L-642.83,-401.21L-644.05,-359.23L-620.54,-358.54L-623.88,-244.11C-624.66,-217.24 -614.91,-205.67 -593.80,-205.06ZM-492.82,-374.75C-492.41,-388.66 -499.93,-394.40 -512.88,-394.78C-527.28,-395.20 -534.64,-389.65 -535.04,-375.98C-535.44,-362.30 -527.95,-355.60 -514.04,-355.20C-501.56,-354.83 -493.22,-361.07 -492.82,-374.75ZM-543.55,-240.33L-544.56,-205.78C-534.24,-205.72 -524.40,-205.44 -514.56,-205.15L-506.17,-204.91C-495.85,-204.60 -485.54,-204.06 -474.75,-203.75L-473.74,-238.30L-497.97,-239.00L-495.27,-331.84L-540.85,-333.17L-541.99,-293.83L-512.01,-292.95L-513.57,-239.46ZM-452.15,-237.67L-453.16,-203.12C-450.27,-203.28 -440.92,-203.00 -430.12,-202.69L-416.45,-202.29C-406.13,-201.99 -396.30,-201.46 -391.02,-201.31L-390.02,-235.86L-413.53,-236.54L-412.48,-272.53C-406.27,-287.71 -393.82,-294.79 -379.43,-294.37C-356.40,-293.70 -349.02,-283.40 -349.75,-258.21L-350.43,-234.70L-372.98,-235.36L-373.99,-200.81C-367.27,-200.86 -325.28,-199.64 -311.86,-199.00L-310.85,-233.55L-335.32,-234.26L-334.32,-268.57C-327.81,-285.91 -315.38,-292.51 -299.06,-292.03C-278.19,-291.42 -270.12,-280.14 -270.82,-255.91L-271.51,-232.40L-295.02,-233.09L-296.02,-198.54C-289.30,-198.59 -247.32,-197.37 -233.89,-196.73L-232.88,-231.28L-256.39,-231.96L-255.28,-270.35C-253.91,-317.37 -266.43,-332.38 -296.66,-333.26C-313.93,-333.76 -330.55,-323.92 -337.81,-305.41C-342.95,-326.92 -354.72,-334.95 -376.31,-335.58C-392.14,-336.04 -404.86,-328.01 -411.29,-313.31L-410.68,-334.18L-449.07,-335.30L-450.21,-295.95C-445.89,-296.07 -436.77,-295.80 -427.42,-295.53L-429.12,-237.00ZM-99.78,-193.07C-90.18,-192.79 -83.37,-195.95 -78.89,-201.34L-78.02,-231.09C-83.74,-224.29 -89.80,-222.31 -97.24,-222.53C-103.00,-222.69 -107.95,-225.72 -109.71,-231.29L-108.61,-269.20C-107.31,-313.58 -121.54,-328.16 -154.16,-329.11C-172.15,-329.63 -187.43,-324.56 -196.86,-314.03L-196.80,-283.05C-190.10,-290.54 -177.92,-296.67 -157.53,-296.07C-134.98,-295.42 -124.69,-285.75 -124.15,-263.17C-134.02,-270.42 -150.75,-273.07 -162.03,-273.39C-190.58,-274.23 -210.48,-258.72 -211.21,-233.53C-211.89,-210.26 -196.05,-193.47 -161.98,-192.48C-146.39,-192.02 -131.09,-198.06 -122.67,-206.70C-118.12,-198.16 -110.10,-193.37 -99.78,-193.07ZM-160.87,-222.46C-183.18,-223.11 -192.60,-229.39 -192.30,-239.94C-191.97,-250.98 -181.72,-256.92 -158.21,-256.24C-144.77,-255.84 -134.08,-251.93 -124.46,-244.21L-124.82,-231.97C-132.70,-225.00 -146.00,-222.03 -160.87,-222.46ZM15.51,-202.67L9.74,-227.09C5.77,-222.89 -2.48,-219.77 -12.55,-220.30C-24.30,-220.88 -32.28,-227.12 -31.78,-244.39L-30.65,-283.25L5.34,-282.20L6.43,-319.63L-29.56,-320.68L-28.65,-351.86L-44.24,-352.32L-45.15,-321.13L-64.10,-321.68L-65.19,-284.26L-46.24,-283.71L-47.85,-228.29C-48.70,-199.26 -35.32,-188.79 -16.61,-188.24C-2.93,-187.85 10.91,-193.20 15.51,-202.67ZM138.60,-216.38L127.64,-227.50C120.40,-218.11 110.18,-213.36 89.08,-214.22C67.01,-215.10 53.08,-223.19 50.58,-244.39L143.18,-241.69C144.90,-300.95 124.84,-320.98 92.21,-321.93C63.43,-322.77 37.68,-304.31 36.19,-253.21C35.06,-214.35 52.72,-186.22 88.71,-185.18C111.98,-184.50 130.15,-198.37 138.60,-216.38ZM89.95,-285.50C114.42,-284.79 129.19,-272.35 128.76,-257.72L51.03,-259.98C54.92,-278.12 71.96,-286.03 89.95,-285.50ZM168.33,-322.12L188.48,-321.53L185.51,-219.33L165.35,-219.92L164.35,-185.37L251.43,-182.84C288.61,-181.75 308.88,-201.57 309.67,-228.68C310.33,-251.47 304.67,-263.16 287.81,-269.65C300.92,-274.55 307.42,-283.49 308.21,-310.60C308.95,-335.79 292.23,-355.24 256.53,-357.96L169.45,-360.50ZM204.57,-280.48L205.75,-321.03L258.77,-319.48C284.20,-318.74 290.87,-308.46 290.58,-298.63C290.24,-287.11 284.94,-278.14 262.39,-278.80ZM202.78,-218.83L204.07,-263.21L261.17,-261.55C285.16,-260.85 292.29,-250.32 291.96,-239.04C291.57,-225.37 281.94,-216.52 260.59,-217.14ZM443.59,-177.24C453.18,-176.96 460.00,-180.12 464.48,-185.51L465.35,-215.26C459.62,-208.47 453.56,-206.48 446.13,-206.70C440.37,-206.87 435.42,-209.89 433.66,-215.46L434.76,-253.37C436.05,-297.75 421.83,-312.33 389.21,-313.28C371.21,-313.80 355.94,-308.73 346.51,-298.20L346.57,-267.22C353.27,-274.71 365.45,-280.84 385.84,-280.24C408.39,-279.59 418.68,-269.92 419.22,-247.34C409.35,-254.59 392.62,-257.24 381.34,-257.57C352.79,-258.40 332.89,-242.89 332.16,-217.70C331.48,-194.43 347.32,-177.64 381.39,-176.65C396.98,-176.20 412.28,-182.23 420.70,-190.87C425.25,-182.34 433.27,-177.54 443.59,-177.24ZM382.50,-206.63C360.19,-207.28 350.77,-213.56 351.07,-224.11C351.40,-235.15 361.65,-241.09 385.16,-240.41C398.60,-240.02 409.29,-236.10 418.91,-228.38L418.55,-216.14C410.66,-209.17 397.37,-206.20 382.50,-206.63ZM577.22,-206.72C578.00,-233.35 565.83,-244.27 531.62,-248.63C510.58,-251.40 503.75,-255.92 503.93,-262.16C504.19,-271.03 514.70,-277.69 532.70,-277.17C552.85,-276.58 560.12,-270.85 564.43,-262.08L575.71,-261.75L576.98,-305.65L565.71,-305.98L565.41,-295.66C556.76,-303.84 542.74,-308.81 529.55,-309.19C504.84,-309.91 486.91,-296.03 486.25,-273.48C485.42,-245.17 498.59,-235.42 529.68,-231.39C550.01,-228.64 558.52,-224.07 558.33,-217.59C558.10,-209.44 549.01,-202.50 527.42,-203.13C505.83,-203.76 501.99,-212.27 494.84,-222.09L484.04,-222.40L482.69,-176.10L493.49,-175.79L493.88,-189.22C501.52,-179.63 515.01,-172.76 530.84,-172.30C559.63,-171.46 576.60,-185.13 577.22,-206.72ZM706.92,-199.82L695.96,-210.94C688.72,-201.55 678.50,-196.81 657.39,-197.66C635.33,-198.54 621.40,-206.63 618.90,-227.84L711.50,-225.14C713.22,-284.39 693.16,-304.43 660.53,-305.38C631.74,-306.21 606.00,-287.76 604.51,-236.66C603.38,-197.79 621.04,-169.67 657.03,-168.62C680.30,-167.94 698.47,-181.82 706.92,-199.82ZM658.27,-268.95C682.74,-268.23 697.50,-255.80 697.08,-241.16L619.35,-243.43C623.24,-261.56 640.28,-269.47 658.27,-268.95Z" fill="#ffffff" stroke="#000000"/>
    <path d="M-664.16,-270.16C-671.00,-251.88 -692.22,-243.62 -719.27,-244.60C-757.96,-246.01 -776.09,-263.78 -774.72,-294.87C-773.36,-325.71 -752.53,-343.01 -716.69,-341.71C-690.82,-340.77 -674.17,-334.69 -666.24,-323.95L-652.47,-323.45L-650.32,-382.55L-664.09,-383.05L-664.95,-359.31C-673.87,-375.56 -692.96,-386.48 -715.03,-387.28C-756.33,-388.78 -786.94,-363.99 -789.33,-298.25C-791.46,-239.86 -764.71,-210.85 -723.89,-209.36C-684.01,-207.91 -659.59,-225.79 -650.54,-258.97ZM-591.92,-204.55C-574.83,-203.93 -564.84,-210.70 -559.35,-218.10L-565.05,-244.21C-569.73,-239.63 -576.95,-237.28 -586.44,-237.63C-600.21,-238.13 -605.13,-246.62 -604.61,-260.86L-599.63,-397.57L-639.03,-399.01L-640.54,-357.47L-617.28,-356.63L-621.40,-243.41C-622.37,-216.83 -612.81,-205.31 -591.92,-204.55ZM-490.77,-371.75C-490.27,-385.51 -497.67,-391.25 -510.48,-391.71C-524.72,-392.23 -532.05,-386.79 -532.54,-373.27C-533.04,-359.74 -525.67,-353.05 -511.91,-352.55C-499.57,-352.10 -491.26,-358.22 -490.77,-371.75ZM-541.94,-239.09L-543.19,-204.92C-532.98,-204.78 -523.24,-204.43 -513.51,-204.07L-505.21,-203.77C-495.00,-203.40 -484.80,-202.79 -474.12,-202.40L-472.88,-236.58L-496.85,-237.45L-493.50,-329.30L-538.60,-330.95L-540.02,-292.02L-510.35,-290.94L-512.28,-238.01ZM-451.52,-235.80L-452.76,-201.62C-449.91,-201.76 -440.65,-201.42 -429.97,-201.03L-416.44,-200.54C-406.23,-200.17 -396.51,-199.58 -391.29,-199.39L-390.05,-233.56L-413.31,-234.41L-412.01,-270.01C-405.76,-284.99 -393.39,-291.91 -379.15,-291.39C-356.36,-290.56 -349.13,-280.32 -350.04,-255.40L-350.88,-232.14L-373.19,-232.95L-374.44,-198.77C-367.78,-198.77 -326.25,-197.25 -312.97,-196.53L-311.72,-230.71L-335.93,-231.59L-334.70,-265.53C-328.13,-282.64 -315.78,-289.08 -299.64,-288.50C-278.99,-287.74 -271.08,-276.52 -271.95,-252.55L-272.80,-229.29L-296.06,-230.14L-297.30,-195.96C-290.65,-195.96 -249.11,-194.45 -235.83,-193.72L-234.59,-227.90L-257.85,-228.75L-256.46,-266.72C-254.77,-313.24 -267.06,-328.19 -296.96,-329.28C-314.05,-329.90 -330.56,-320.28 -337.88,-302.01C-342.81,-323.34 -354.40,-331.37 -375.76,-332.15C-391.43,-332.72 -404.07,-324.86 -410.54,-310.36L-409.79,-331.01L-447.76,-332.39L-449.18,-293.47C-444.90,-293.55 -435.88,-293.22 -426.62,-292.88L-428.73,-234.97ZM-103.15,-189.13C-93.65,-188.78 -86.89,-191.86 -82.42,-197.17L-81.34,-226.60C-87.05,-219.91 -93.07,-217.99 -100.42,-218.26C-106.12,-218.47 -111.00,-221.50 -112.70,-227.03L-111.33,-264.53C-109.73,-308.44 -123.70,-322.97 -155.98,-324.14C-173.78,-324.79 -188.93,-319.88 -198.34,-309.52L-198.51,-278.87C-191.82,-286.23 -179.72,-292.21 -159.55,-291.47C-137.24,-290.66 -127.13,-281.03 -126.76,-258.67C-136.48,-265.92 -153.01,-268.66 -164.17,-269.07C-192.41,-270.09 -212.21,-254.89 -213.12,-229.97C-213.96,-206.95 -198.41,-190.22 -164.71,-188.99C-149.28,-188.43 -134.09,-194.30 -125.70,-202.78C-121.26,-194.30 -113.35,-189.50 -103.15,-189.13ZM-163.39,-218.65C-185.46,-219.46 -194.74,-225.74 -194.36,-236.18C-193.96,-247.10 -183.77,-252.91 -160.51,-252.06C-147.22,-251.57 -136.67,-247.63 -127.20,-239.91L-127.64,-227.81C-135.50,-220.97 -148.67,-218.12 -163.39,-218.65ZM11.01,-197.81L5.47,-222.01C1.52,-217.88 -6.67,-214.85 -16.63,-215.45C-28.25,-216.11 -36.11,-222.34 -35.48,-239.43L-34.08,-277.87L1.52,-276.58L2.87,-313.60L-32.74,-314.90L-31.61,-345.75L-47.04,-346.32L-48.16,-315.46L-66.91,-316.14L-68.26,-279.12L-49.51,-278.44L-51.51,-223.61C-52.55,-194.89 -39.39,-184.43 -20.88,-183.76C-7.35,-183.26 6.39,-188.47 11.01,-197.81ZM132.91,-210.48L122.14,-221.56C114.92,-212.32 104.77,-207.70 83.89,-208.70C62.06,-209.73 48.33,-217.84 46.01,-238.83L137.62,-235.50C139.76,-294.12 120.05,-314.09 87.77,-315.26C59.29,-316.30 33.68,-298.22 31.83,-247.67C30.43,-209.22 47.72,-181.26 83.32,-179.96C106.34,-179.12 124.42,-192.72 132.91,-210.48ZM85.27,-279.23C109.48,-278.35 124.00,-265.94 123.47,-251.46L46.57,-254.26C50.55,-272.18 67.47,-279.88 85.27,-279.23ZM163.09,-314.90L183.03,-314.17L179.35,-213.06L159.41,-213.79L158.17,-179.61L244.32,-176.47C281.11,-175.14 301.31,-194.60 302.28,-221.42C303.10,-243.97 297.59,-255.58 280.95,-262.12C293.96,-266.88 300.46,-275.67 301.43,-302.49C302.34,-327.41 285.94,-346.79 250.63,-349.74L164.48,-352.87ZM198.66,-273.44L200.12,-313.55L252.57,-311.64C277.73,-310.72 284.25,-300.50 283.90,-290.77C283.48,-279.38 278.17,-270.54 255.86,-271.36ZM196.44,-212.44L198.04,-256.35L254.52,-254.29C278.26,-253.43 285.24,-242.95 284.84,-231.80C284.34,-218.27 274.76,-209.59 253.64,-210.36ZM434.43,-169.55C443.93,-169.21 450.69,-172.29 455.16,-177.59L456.24,-207.02C450.53,-200.34 444.52,-198.42 437.16,-198.68C431.46,-198.89 426.58,-201.92 424.88,-207.45L426.25,-244.95C427.85,-288.86 413.88,-303.39 381.60,-304.56C363.80,-305.21 348.65,-300.30 339.24,-289.95L339.07,-259.29C345.76,-266.66 357.86,-272.63 378.03,-271.90C400.34,-271.08 410.45,-261.45 410.82,-239.09C401.11,-246.34 384.57,-249.08 373.41,-249.49C345.17,-250.52 325.37,-235.31 324.46,-210.39C323.62,-187.37 339.17,-170.64 372.88,-169.42C388.30,-168.85 403.49,-174.72 411.88,-183.21C416.32,-174.73 424.23,-169.92 434.43,-169.55ZM374.19,-199.08C352.12,-199.88 342.84,-206.16 343.22,-216.60C343.62,-227.52 353.81,-233.33 377.07,-232.48C390.36,-232.00 400.92,-228.05 410.38,-220.34L409.94,-208.23C402.08,-201.39 388.91,-198.54 374.19,-199.08ZM566.89,-197.76C567.84,-224.11 555.88,-235.00 522.06,-239.56C501.26,-242.46 494.53,-246.98 494.75,-253.15C495.07,-261.93 505.53,-268.44 523.33,-267.79C543.27,-267.07 550.43,-261.34 554.62,-252.63L565.78,-252.23L567.36,-295.66L556.21,-296.07L555.83,-285.86C547.34,-294.01 533.50,-299.03 520.45,-299.51C496.00,-300.40 478.15,-286.79 477.34,-264.48C476.32,-236.47 489.28,-226.73 520.02,-222.52C540.11,-219.65 548.50,-215.07 548.27,-208.66C547.98,-200.59 538.93,-193.79 517.57,-194.57C496.21,-195.35 492.48,-203.80 485.47,-213.56L474.79,-213.95L473.12,-168.14L483.80,-167.75L484.28,-181.04C491.78,-171.50 505.08,-164.60 520.74,-164.03C549.22,-162.99 566.11,-176.40 566.89,-197.76ZM695.18,-190.00L684.41,-201.09C677.18,-191.84 667.03,-187.22 646.15,-188.22C624.33,-189.25 610.60,-197.36 608.27,-218.36L699.89,-215.02C702.02,-273.64 682.31,-293.61 650.03,-294.79C621.55,-295.83 595.94,-277.75 594.10,-227.19C592.70,-188.74 609.98,-160.78 645.58,-159.49C668.60,-158.65 686.69,-172.25 695.18,-190.00ZM647.53,-258.75C671.74,-257.87 686.26,-245.46 685.74,-230.98L608.84,-233.78C612.82,-251.70 629.73,-259.40 647.53,-258.75Z" fill="#ffffff" stroke="#000000"/>
    <path d="M-660.96,-269.53C-667.87,-251.48 -688.92,-243.46 -715.68,-244.63C-753.95,-246.30 -771.76,-264.02 -770.18,-294.76C-768.61,-325.27 -747.87,-342.25 -712.42,-340.70C-686.83,-339.58 -670.40,-333.45 -662.63,-322.76L-649.02,-322.16L-646.46,-380.62L-660.08,-381.22L-661.10,-357.74C-669.81,-373.88 -688.62,-384.82 -710.45,-385.77C-751.30,-387.56 -781.77,-363.25 -784.61,-298.22C-787.14,-240.46 -760.88,-211.56 -720.50,-209.79C-681.05,-208.07 -656.77,-225.59 -647.57,-258.36ZM-589.96,-204.09C-573.06,-203.35 -563.12,-209.97 -557.63,-217.26L-563.08,-243.14C-567.75,-238.64 -574.91,-236.36 -584.30,-236.77C-597.91,-237.37 -602.72,-245.81 -602.11,-259.90L-596.19,-395.13L-635.17,-396.83L-636.96,-355.74L-613.95,-354.74L-618.85,-242.75C-620.00,-216.46 -610.62,-204.99 -589.96,-204.09ZM-488.67,-368.79C-488.08,-382.40 -495.35,-388.13 -508.03,-388.69C-522.12,-389.30 -529.41,-383.97 -529.99,-370.59C-530.58,-357.21 -523.34,-350.54 -509.72,-349.95C-497.52,-349.41 -489.26,-355.40 -488.67,-368.79ZM-540.26,-237.90L-541.74,-204.10C-531.63,-203.89 -522.01,-203.47 -512.38,-203.05L-504.16,-202.69C-494.07,-202.25 -483.98,-201.57 -473.42,-201.11L-471.94,-234.92L-495.65,-235.95L-491.68,-326.81L-536.29,-328.76L-537.97,-290.26L-508.63,-288.98L-510.91,-236.62ZM-450.81,-233.99L-452.29,-200.19C-449.46,-200.30 -440.31,-199.90 -429.74,-199.44L-416.36,-198.85C-406.26,-198.41 -396.65,-197.75 -391.48,-197.53L-390.00,-231.34L-413.01,-232.34L-411.47,-267.56C-405.18,-282.34 -392.89,-289.09 -378.80,-288.48C-356.27,-287.49 -349.18,-277.30 -350.26,-252.65L-351.27,-229.64L-373.34,-230.61L-374.81,-196.80C-368.23,-196.75 -327.14,-194.95 -314.01,-194.14L-312.53,-227.95L-336.48,-229.00L-335.01,-262.57C-328.39,-279.45 -316.12,-285.74 -300.15,-285.04C-279.73,-284.15 -271.98,-272.99 -273.02,-249.28L-274.03,-226.27L-297.03,-227.27L-298.51,-193.47C-291.93,-193.41 -250.84,-191.62 -237.70,-190.81L-236.23,-224.62L-259.23,-225.62L-257.59,-263.18C-255.58,-309.20 -267.63,-324.08 -297.22,-325.37C-314.12,-326.11 -330.52,-316.71 -337.90,-298.69C-342.62,-319.83 -354.03,-327.85 -375.16,-328.78C-390.66,-329.45 -403.22,-321.77 -409.73,-307.47L-408.84,-327.90L-446.40,-329.54L-448.08,-291.03C-443.85,-291.08 -434.93,-290.70 -425.77,-290.29L-428.27,-233.01ZM-106.45,-185.31C-97.06,-184.90 -90.35,-187.89 -85.88,-193.11L-84.61,-222.22C-90.31,-215.65 -96.27,-213.79 -103.55,-214.11C-109.18,-214.36 -113.99,-217.39 -115.63,-222.87L-114.01,-259.97C-112.11,-303.40 -125.83,-317.88 -157.76,-319.27C-175.37,-320.04 -190.39,-315.29 -199.78,-305.12L-200.16,-274.79C-193.49,-282.02 -181.48,-287.85 -161.52,-286.98C-139.45,-286.01 -129.52,-276.40 -129.31,-254.28C-138.88,-261.52 -155.22,-264.36 -166.25,-264.84C-194.19,-266.06 -213.90,-251.16 -214.97,-226.51C-215.97,-203.74 -200.70,-187.07 -167.36,-185.62C-152.10,-184.95 -137.04,-190.64 -128.67,-198.98C-124.34,-190.56 -116.55,-185.75 -106.45,-185.31ZM-165.85,-214.95C-187.68,-215.91 -196.82,-222.19 -196.36,-232.52C-195.89,-243.32 -185.76,-248.99 -162.76,-247.98C-149.61,-247.41 -139.20,-243.43 -129.89,-235.73L-130.41,-223.75C-138.23,-217.04 -151.29,-214.32 -165.85,-214.95ZM6.56,-193.07L1.25,-217.06C-2.69,-213.00 -10.81,-210.06 -20.66,-210.72C-32.16,-211.46 -39.88,-217.68 -39.14,-234.58L-37.48,-272.62L-2.26,-271.08L-0.66,-307.70L-35.88,-309.24L-34.55,-339.76L-49.81,-340.43L-51.14,-309.91L-69.69,-310.72L-71.29,-274.09L-52.74,-273.28L-55.11,-219.05C-56.35,-190.64 -43.40,-180.20 -25.09,-179.40C-11.71,-178.81 1.92,-183.86 6.56,-193.07ZM127.27,-204.73L116.69,-215.77C109.47,-206.68 99.40,-202.18 78.75,-203.32C57.16,-204.50 43.64,-212.62 41.49,-233.41L132.11,-229.45C134.65,-287.44 115.29,-307.34 83.36,-308.73C55.18,-309.97 29.71,-292.26 27.53,-242.25C25.86,-204.22 42.76,-176.43 77.98,-174.89C100.75,-173.90 118.74,-187.22 127.27,-204.73ZM80.62,-273.10C104.57,-272.05 118.85,-259.67 118.22,-245.35L42.15,-248.67C46.22,-266.37 63.01,-273.87 80.62,-273.10ZM157.88,-307.83L177.60,-306.97L173.23,-206.95L153.51,-207.81L152.03,-174.01L237.26,-170.28C273.65,-168.69 293.77,-187.81 294.93,-214.34C295.91,-236.64 290.53,-248.16 274.12,-254.76C287.02,-259.37 293.51,-268.03 294.67,-294.56C295.75,-319.21 279.66,-338.50 244.75,-341.67L159.53,-345.39ZM192.77,-266.55L194.51,-306.23L246.39,-303.96C271.28,-302.87 277.66,-292.71 277.24,-283.09C276.74,-271.82 271.42,-263.11 249.35,-264.08ZM190.14,-206.21L192.03,-249.65L247.91,-247.20C271.39,-246.18 278.23,-235.77 277.74,-224.73C277.16,-211.35 267.61,-202.83 246.72,-203.74ZM425.31,-162.06C434.70,-161.65 441.42,-164.65 445.88,-169.87L447.16,-198.98C441.46,-192.41 435.50,-190.55 428.22,-190.87C422.58,-191.11 417.78,-194.15 416.13,-199.63L417.76,-236.72C419.65,-280.16 405.94,-294.63 374.01,-296.03C356.40,-296.80 341.37,-292.05 331.99,-281.87L331.61,-251.54C338.27,-258.78 350.29,-264.61 370.25,-263.73C392.31,-262.77 402.24,-253.16 402.45,-231.04C392.89,-238.28 376.55,-241.11 365.51,-241.59C337.58,-242.82 317.87,-227.92 316.79,-203.26C315.80,-180.49 331.07,-163.83 364.40,-162.37C379.66,-161.70 394.73,-167.40 403.09,-175.73C407.43,-167.31 415.22,-162.50 425.31,-162.06ZM365.92,-191.71C344.09,-192.66 334.95,-198.94 335.40,-209.27C335.88,-220.07 346.00,-225.75 369.01,-224.74C382.16,-224.17 392.57,-220.18 401.88,-212.48L401.35,-200.51C393.53,-193.79 380.48,-191.07 365.92,-191.71ZM556.57,-189.02C557.71,-215.08 545.95,-225.94 512.52,-230.70C491.96,-233.71 485.33,-238.24 485.60,-244.34C485.98,-253.03 496.37,-259.40 513.98,-258.63C533.70,-257.76 540.74,-252.05 544.83,-243.40L555.87,-242.92L557.75,-285.88L546.71,-286.36L546.27,-276.27C537.92,-284.40 524.27,-289.46 511.35,-290.03C487.17,-291.08 469.42,-277.75 468.45,-255.68C467.24,-227.97 479.99,-218.24 510.38,-213.86C530.24,-210.87 538.51,-206.28 538.23,-199.94C537.88,-191.95 528.89,-185.29 507.76,-186.21C486.63,-187.14 482.99,-195.53 476.13,-205.24L465.56,-205.70L463.58,-160.39L474.15,-159.93L474.72,-173.07C482.07,-163.58 495.17,-156.66 510.67,-155.98C538.84,-154.75 555.65,-167.89 556.57,-189.02ZM683.45,-180.42L672.88,-191.46C665.66,-182.37 655.58,-177.87 634.93,-179.01C613.34,-180.19 599.82,-188.31 597.67,-209.10L688.29,-205.14C690.83,-263.13 671.47,-283.03 639.54,-284.42C611.37,-285.65 585.89,-267.95 583.71,-217.94C582.05,-179.91 598.94,-152.12 634.16,-150.58C656.93,-149.59 674.92,-162.91 683.45,-180.42ZM636.81,-248.79C660.75,-247.74 675.03,-235.36 674.41,-221.04L598.34,-224.36C602.41,-242.06 619.20,-249.56 636.81,-248.79Z" fill="#ffffff" stroke="#000000"/>
    <path d="M-657.69,-268.91C-664.65,-251.11 -685.53,-243.33 -712.00,-244.68C-749.85,-246.61 -767.34,-264.26 -765.56,-294.67C-763.78,-324.84 -743.15,-341.48 -708.09,-339.69C-682.78,-338.40 -666.56,-332.22 -658.96,-321.59L-645.49,-320.90L-642.54,-378.72L-656.01,-379.41L-657.19,-356.19C-665.69,-372.22 -684.22,-383.17 -705.81,-384.27C-746.21,-386.33 -776.53,-362.51 -779.81,-298.19C-782.72,-241.07 -756.95,-212.28 -717.02,-210.24C-678.01,-208.25 -653.85,-225.41 -644.52,-257.76ZM-587.91,-203.66C-571.20,-202.81 -561.32,-209.29 -555.83,-216.46L-561.04,-242.10C-565.69,-237.68 -572.79,-235.48 -582.08,-235.95C-595.54,-236.64 -600.24,-245.03 -599.53,-258.96L-592.70,-392.71L-631.25,-394.67L-633.32,-354.04L-610.57,-352.88L-616.22,-242.12C-617.54,-216.11 -608.35,-204.70 -587.91,-203.66ZM-486.52,-365.87C-485.83,-379.34 -492.99,-385.06 -505.53,-385.70C-519.46,-386.41 -526.71,-381.19 -527.39,-367.96C-528.06,-354.72 -520.95,-348.07 -507.48,-347.39C-495.41,-346.77 -487.19,-352.64 -486.52,-365.87ZM-538.50,-236.76L-540.21,-203.32C-530.21,-203.04 -520.69,-202.56 -511.17,-202.07L-503.04,-201.66C-493.06,-201.15 -483.09,-200.41 -472.64,-199.87L-470.93,-233.31L-494.38,-234.51L-489.80,-324.37L-533.92,-326.62L-535.86,-288.54L-506.84,-287.06L-509.48,-235.28ZM-450.03,-232.24L-451.74,-198.81C-448.94,-198.90 -439.89,-198.44 -429.44,-197.90L-416.20,-197.23C-406.22,-196.72 -396.71,-196.00 -391.60,-195.74L-389.89,-229.18L-412.65,-230.34L-410.87,-265.17C-404.54,-279.74 -392.33,-286.34 -378.40,-285.63C-356.11,-284.49 -349.18,-274.36 -350.42,-249.98L-351.58,-227.22L-373.41,-228.34L-375.11,-194.90C-368.60,-194.80 -327.97,-192.73 -314.97,-191.83L-313.27,-225.27L-336.95,-226.48L-335.26,-259.68C-328.59,-276.34 -316.40,-282.46 -300.61,-281.66C-280.41,-280.63 -272.83,-269.53 -274.03,-246.08L-275.19,-223.33L-297.94,-224.49L-299.65,-191.05C-293.14,-190.95 -252.50,-188.88 -239.51,-187.98L-237.80,-221.42L-260.56,-222.58L-258.66,-259.73C-256.34,-305.24 -268.16,-320.05 -297.42,-321.54C-314.13,-322.39 -330.43,-313.21 -337.86,-295.43C-342.38,-316.38 -353.61,-324.40 -374.51,-325.47C-389.83,-326.25 -402.32,-318.74 -408.86,-304.64L-407.83,-324.84L-444.98,-326.74L-446.92,-288.66C-442.73,-288.68 -433.91,-288.23 -424.85,-287.76L-427.74,-231.11ZM-109.70,-181.59C-100.41,-181.12 -93.74,-184.04 -89.29,-189.17L-87.82,-217.96C-93.51,-211.50 -99.42,-209.70 -106.62,-210.07C-112.19,-210.36 -116.92,-213.39 -118.51,-218.83L-116.64,-255.51C-114.45,-298.47 -127.91,-312.89 -159.49,-314.50C-176.91,-315.39 -191.81,-310.80 -201.16,-300.80L-201.76,-270.80C-195.11,-277.91 -183.18,-283.58 -163.45,-282.58C-141.62,-281.46 -131.87,-271.89 -131.82,-250.00C-141.23,-257.23 -157.37,-260.15 -168.29,-260.71C-195.92,-262.12 -215.52,-247.52 -216.76,-223.14C-217.91,-200.62 -202.93,-184.02 -169.96,-182.34C-154.86,-181.57 -139.92,-187.09 -131.58,-195.28C-127.35,-186.92 -119.68,-182.10 -109.70,-181.59ZM-168.24,-211.35C-189.84,-212.45 -198.83,-218.73 -198.31,-228.95C-197.76,-239.63 -187.70,-245.17 -164.95,-244.01C-151.95,-243.35 -141.67,-239.33 -132.52,-231.65L-133.13,-219.80C-140.91,-213.22 -153.85,-210.62 -168.24,-211.35ZM2.16,-188.46L-2.91,-212.23C-6.84,-208.24 -14.90,-205.39 -24.64,-206.12C-36.01,-206.94 -43.60,-213.14 -42.75,-229.86L-40.83,-267.48L-6.00,-265.70L-4.16,-301.92L-38.98,-303.70L-37.45,-333.89L-52.54,-334.66L-54.08,-304.47L-72.42,-305.41L-74.27,-269.18L-55.93,-268.25L-58.66,-214.61C-60.09,-186.51 -47.36,-176.09 -29.25,-175.16C-16.01,-174.49 -2.49,-179.38 2.16,-188.46ZM121.67,-199.13L111.29,-210.13C104.08,-201.19 94.08,-196.81 73.66,-198.08C52.31,-199.40 38.99,-207.53 37.01,-228.12L126.64,-223.55C129.57,-280.90 110.56,-300.73 78.98,-302.34C51.11,-303.76 25.78,-286.43 23.26,-236.97C21.34,-199.35 37.86,-171.74 72.69,-169.96C95.21,-168.81 113.11,-181.87 121.67,-199.13ZM76.02,-267.10C99.70,-265.90 113.74,-253.54 113.01,-239.38L37.78,-243.21C41.93,-260.69 58.60,-267.99 76.02,-267.10ZM152.70,-300.91L172.21,-299.91L167.16,-201.00L147.66,-201.99L145.95,-168.55L230.24,-164.25C266.23,-162.42 286.28,-181.18 287.61,-207.42C288.74,-229.48 283.50,-240.92 267.31,-247.57C280.11,-252.04 286.60,-260.55 287.94,-286.79C289.18,-311.17 273.40,-330.37 238.88,-333.76L154.60,-338.06ZM186.92,-259.82L188.92,-299.06L240.24,-296.44C264.85,-295.19 271.09,-285.09 270.60,-275.57C270.04,-264.42 264.71,-255.85 242.88,-256.96ZM183.88,-200.14L186.07,-243.10L241.33,-240.28C264.55,-239.10 271.24,-228.74 270.69,-217.83C270.01,-204.60 260.50,-196.23 239.84,-197.29ZM416.23,-154.77C425.52,-154.29 432.18,-157.21 436.64,-162.34L438.11,-191.13C432.42,-184.67 426.51,-182.88 419.31,-183.25C413.74,-183.53 409.00,-186.56 407.42,-192.00L409.29,-228.69C411.48,-271.64 398.02,-286.07 366.44,-287.68C349.02,-288.57 334.12,-283.97 324.77,-273.97L324.17,-243.97C330.81,-251.08 342.74,-256.76 362.48,-255.75C384.31,-254.64 394.06,-245.06 394.11,-223.18C384.70,-230.41 368.55,-233.33 357.64,-233.88C330.01,-235.29 310.41,-220.69 309.16,-196.31C308.02,-173.79 323.00,-157.20 355.97,-155.51C371.06,-154.74 386.01,-160.27 394.35,-168.46C398.58,-160.09 406.24,-155.28 416.23,-154.77ZM357.68,-184.53C336.09,-185.63 327.10,-191.91 327.62,-202.12C328.16,-212.80 338.22,-218.34 360.98,-217.18C373.98,-216.52 384.25,-212.50 393.41,-204.82L392.80,-192.98C385.02,-186.39 372.08,-183.79 357.68,-184.53ZM546.28,-180.49C547.60,-206.27 536.04,-217.10 503.00,-222.04C482.68,-225.18 476.16,-229.70 476.46,-235.74C476.90,-244.33 487.23,-250.55 504.65,-249.66C524.15,-248.67 531.08,-242.96 535.06,-234.38L545.97,-233.82L548.14,-276.31L537.23,-276.87L536.72,-266.89C528.52,-274.99 515.04,-280.10 502.27,-280.75C478.36,-281.97 460.70,-268.90 459.58,-247.07C458.19,-219.67 470.73,-209.96 500.76,-205.40C520.39,-202.30 528.53,-197.70 528.21,-191.43C527.81,-183.53 518.87,-177.00 497.97,-178.07C477.07,-179.14 473.54,-187.46 466.81,-197.12L456.36,-197.65L454.08,-152.84L464.53,-152.30L465.19,-165.31C472.39,-155.86 485.31,-148.92 500.63,-148.13C528.49,-146.71 545.22,-159.60 546.28,-180.49ZM671.75,-171.07L661.37,-182.07C654.16,-173.13 644.16,-168.75 623.74,-170.02C602.39,-171.35 589.06,-179.48 587.09,-200.06L676.72,-195.49C679.64,-252.84 660.63,-272.67 629.05,-274.28C601.19,-275.70 575.86,-258.37 573.34,-208.91C571.42,-171.30 587.94,-143.68 622.77,-141.90C645.29,-140.76 663.18,-153.81 671.75,-171.07ZM626.09,-239.05C649.78,-237.84 663.81,-225.48 663.09,-211.32L587.86,-215.16C592.01,-232.64 608.68,-239.93 626.09,-239.05Z" fill="#ffffff" stroke="#000000"/>
    <path d="M-654.33,-268.31C-661.34,-250.75 -682.06,-243.21 -708.23,-244.73C-745.66,-246.91 -762.84,-264.50 -760.85,-294.57C-758.88,-324.41 -738.35,-340.72 -703.68,-338.70C-678.65,-337.24 -662.66,-331.00 -655.21,-320.43L-641.89,-319.66L-638.56,-376.83L-651.87,-377.61L-653.21,-354.65C-661.50,-370.56 -679.75,-381.54 -701.11,-382.78C-741.06,-385.11 -771.22,-361.76 -774.93,-298.15C-778.22,-241.67 -752.94,-213.01 -713.44,-210.71C-674.87,-208.46 -650.85,-225.26 -641.39,-257.19ZM-585.78,-203.26C-569.25,-202.30 -559.43,-208.64 -553.95,-215.69L-558.92,-241.09C-563.55,-236.76 -570.59,-234.63 -579.77,-235.17C-593.09,-235.94 -597.67,-244.28 -596.87,-258.05L-589.16,-390.31L-627.27,-392.53L-629.62,-352.35L-607.12,-351.04L-613.50,-241.51C-615.00,-215.80 -605.99,-204.44 -585.78,-203.26ZM-484.31,-363.00C-483.53,-376.32 -490.57,-382.02 -502.97,-382.75C-516.75,-383.55 -523.96,-378.44 -524.72,-365.35C-525.49,-352.27 -518.50,-345.64 -505.18,-344.86C-493.24,-344.17 -485.07,-349.91 -484.31,-363.00ZM-536.66,-235.65L-538.59,-202.59C-528.70,-202.24 -519.29,-201.69 -509.88,-201.14L-501.84,-200.67C-491.97,-200.10 -482.11,-199.29 -471.77,-198.69L-469.85,-231.75L-493.04,-233.11L-487.86,-321.96L-531.48,-324.51L-533.68,-286.85L-504.98,-285.18L-507.96,-233.98ZM-449.18,-230.55L-451.11,-197.48C-448.34,-197.55 -439.39,-197.03 -429.05,-196.43L-415.97,-195.67C-406.09,-195.09 -396.69,-194.31 -391.64,-194.02L-389.71,-227.08L-412.21,-228.39L-410.21,-262.83C-403.84,-277.21 -391.71,-283.64 -377.94,-282.84C-355.89,-281.55 -349.11,-271.48 -350.51,-247.37L-351.83,-224.87L-373.41,-226.13L-375.34,-193.07C-368.90,-192.92 -328.71,-190.58 -315.87,-189.60L-313.94,-222.66L-337.36,-224.03L-335.45,-256.86C-328.73,-273.29 -316.63,-279.26 -301.02,-278.35C-281.04,-277.19 -273.62,-266.16 -274.97,-242.97L-276.28,-220.47L-298.79,-221.78L-300.71,-188.71C-294.27,-188.57 -254.09,-186.23 -241.25,-185.25L-239.32,-218.31L-261.82,-219.62L-259.68,-256.36C-257.05,-301.36 -268.64,-316.09 -297.57,-317.78C-314.10,-318.74 -330.29,-309.78 -337.76,-292.25C-342.08,-313.00 -353.13,-321.02 -373.80,-322.23C-388.95,-323.11 -401.36,-315.77 -407.93,-301.87L-406.76,-321.84L-443.50,-323.99L-445.70,-286.33C-441.55,-286.32 -432.83,-285.81 -423.87,-285.29L-427.14,-229.26ZM-112.88,-177.99C-103.70,-177.46 -97.08,-180.30 -92.64,-185.34L-90.98,-213.81C-96.65,-207.46 -102.51,-205.73 -109.63,-206.14C-115.14,-206.46 -119.80,-209.50 -121.33,-214.89L-119.21,-251.17C-116.73,-293.64 -129.95,-308.01 -161.18,-309.83C-178.40,-310.83 -193.17,-306.39 -202.50,-296.57L-203.31,-266.90C-196.68,-273.88 -184.84,-279.41 -165.32,-278.28C-143.74,-277.02 -134.16,-267.47 -134.27,-245.82C-143.52,-253.04 -159.48,-256.05 -170.27,-256.68C-197.59,-258.27 -217.09,-243.97 -218.49,-219.86C-219.79,-197.59 -205.09,-181.07 -172.48,-179.16C-157.56,-178.29 -142.73,-183.65 -134.43,-191.69C-130.31,-183.39 -122.75,-178.57 -112.88,-177.99ZM-170.58,-207.85C-191.93,-209.10 -200.78,-215.37 -200.19,-225.48C-199.58,-236.04 -189.59,-241.45 -167.08,-240.13C-154.23,-239.38 -144.10,-235.34 -135.10,-227.67L-135.78,-215.96C-143.53,-209.50 -156.34,-207.02 -170.58,-207.85ZM-2.17,-183.98L-7.02,-207.53C-10.94,-203.61 -18.93,-200.85 -28.56,-201.64C-39.80,-202.53 -47.27,-208.73 -46.31,-225.26L-44.14,-262.45L-9.70,-260.45L-7.61,-296.27L-42.05,-298.27L-40.31,-328.12L-55.23,-328.99L-56.97,-299.14L-75.11,-300.20L-77.20,-264.38L-59.06,-263.32L-62.15,-210.28C-63.77,-182.50 -51.25,-172.10 -33.34,-171.05C-20.25,-170.29 -6.84,-175.04 -2.17,-183.98ZM116.12,-193.67L105.93,-204.63C98.74,-195.83 88.81,-191.58 68.62,-192.98C47.51,-194.44 34.39,-202.58 32.58,-222.96L121.21,-217.79C124.52,-274.51 105.86,-294.26 74.63,-296.08C47.08,-297.68 21.90,-280.72 19.05,-231.81C16.88,-194.62 33.02,-167.18 67.46,-165.17C89.73,-163.87 107.53,-176.66 116.12,-193.67ZM71.45,-261.24C94.87,-259.88 108.66,-247.55 107.85,-233.55L33.45,-237.89C37.69,-255.15 54.23,-262.25 71.45,-261.24ZM147.55,-294.13L166.84,-293.01L161.14,-195.19L141.85,-196.32L139.92,-163.25L223.27,-158.39C258.86,-156.32 278.82,-174.74 280.34,-200.68C281.61,-222.49 276.51,-233.85 260.54,-240.54C273.24,-244.87 279.72,-253.25 281.23,-279.19C282.63,-303.30 267.16,-322.41 233.04,-326.01L149.69,-330.87ZM181.11,-253.24L183.37,-292.04L234.11,-289.08C258.45,-287.66 264.55,-277.63 264.00,-268.22C263.36,-257.20 258.03,-248.75 236.44,-250.01ZM177.67,-194.23L180.14,-236.71L234.79,-233.52C257.75,-232.18 264.29,-221.89 263.67,-211.10C262.90,-198.01 253.44,-189.81 233.00,-191.00ZM407.19,-147.67C416.37,-147.13 422.99,-149.97 427.43,-155.01L429.09,-183.48C423.42,-177.13 417.56,-175.40 410.44,-175.82C404.93,-176.14 400.27,-179.17 398.74,-184.56L400.86,-220.84C403.33,-263.32 390.12,-277.68 358.89,-279.50C341.67,-280.51 326.89,-276.07 317.57,-266.25L316.76,-236.57C323.39,-243.56 335.23,-249.09 354.74,-247.95C376.33,-246.69 385.91,-237.15 385.80,-215.50C376.54,-222.72 360.59,-225.72 349.80,-226.35C322.48,-227.94 302.98,-213.65 301.57,-189.54C300.28,-167.26 314.98,-150.74 347.58,-148.84C362.51,-147.97 377.34,-153.33 385.64,-161.37C389.76,-153.06 397.31,-148.24 407.19,-147.67ZM349.49,-177.53C328.13,-178.77 319.28,-185.05 319.87,-195.15C320.49,-205.71 330.48,-211.12 352.98,-209.81C365.84,-209.06 375.97,-205.01 384.97,-197.35L384.29,-185.64C376.54,-179.18 363.72,-176.70 349.49,-177.53ZM536.02,-172.18C537.51,-197.67 526.16,-208.47 493.51,-213.59C473.43,-216.84 467.01,-221.36 467.36,-227.33C467.85,-235.83 478.11,-241.91 495.33,-240.90C514.62,-239.78 521.43,-234.08 525.31,-225.56L536.10,-224.93L538.55,-266.95L527.76,-267.58L527.19,-257.71C519.13,-265.78 505.84,-270.93 493.21,-271.67C469.56,-273.05 452.00,-260.25 450.74,-238.67C449.16,-211.57 461.49,-201.87 491.17,-197.14C510.57,-193.94 518.59,-189.32 518.23,-183.12C517.77,-175.32 508.88,-168.92 488.21,-170.13C467.55,-171.33 464.11,-179.60 457.53,-189.20L447.20,-189.80L444.61,-145.49L454.95,-144.88L455.69,-157.74C462.75,-148.34 475.48,-141.38 490.63,-140.50C518.18,-138.89 534.82,-151.51 536.02,-172.18ZM660.07,-161.95L649.88,-172.91C642.68,-164.12 632.76,-159.86 612.57,-161.27C591.46,-162.73 578.34,-170.86 576.53,-191.24L665.16,-186.08C668.47,-242.79 649.80,-262.54 618.58,-264.36C591.02,-265.97 565.84,-249.00 562.99,-200.10C560.82,-162.90 576.96,-135.46 611.41,-133.46C633.68,-132.16 651.47,-144.94 660.07,-161.95ZM615.39,-229.53C638.81,-228.16 652.61,-215.84 651.79,-201.83L577.40,-206.17C581.63,-223.43 598.17,-230.53 615.39,-229.53Z" fill="#ffffff" stroke="#000000"/>
    <path d="M-650.90,-267.74C-657.96,-250.42 -678.50,-243.10 -704.38,-244.80C-741.39,-247.23 -758.25,-264.75 -756.07,-294.47C-753.91,-323.97 -733.48,-339.96 -699.20,-337.71C-674.45,-336.08 -658.68,-329.80 -651.39,-319.29L-638.22,-318.43L-634.51,-374.96L-647.68,-375.82L-649.17,-353.12C-657.25,-368.92 -675.23,-379.91 -696.34,-381.29C-735.84,-383.88 -765.84,-361.00 -769.96,-298.12C-773.63,-242.28 -748.83,-213.74 -709.78,-211.18C-671.64,-208.68 -647.76,-225.12 -638.17,-256.64ZM-583.56,-202.90C-567.22,-201.83 -557.46,-208.03 -551.99,-214.96L-556.72,-240.13C-561.34,-235.87 -568.31,-233.82 -577.39,-234.41C-590.56,-235.28 -595.03,-243.55 -594.14,-257.17L-585.56,-387.93L-623.24,-390.40L-625.85,-350.68L-603.60,-349.22L-610.70,-240.93C-612.37,-215.51 -603.54,-204.21 -583.56,-202.90ZM-482.05,-360.16C-481.18,-373.33 -488.10,-379.03 -500.36,-379.83C-513.98,-380.73 -521.15,-375.72 -522.00,-362.79C-522.85,-349.85 -515.99,-343.24 -502.82,-342.38C-491.02,-341.60 -482.90,-347.22 -482.05,-360.16ZM-534.75,-234.58L-536.89,-201.89C-527.11,-201.48 -517.81,-200.87 -508.50,-200.25L-500.55,-199.73C-490.79,-199.09 -481.05,-198.23 -470.83,-197.56L-468.68,-230.24L-491.61,-231.75L-485.85,-319.60L-528.98,-322.43L-531.42,-285.20L-503.05,-283.34L-506.37,-232.72ZM-448.25,-228.90L-450.40,-196.21C-447.66,-196.26 -438.81,-195.68 -428.59,-195.01L-415.65,-194.16C-405.89,-193.52 -396.60,-192.68 -391.60,-192.36L-389.46,-225.05L-411.71,-226.51L-409.47,-260.56C-403.07,-274.73 -391.03,-281.01 -377.41,-280.11C-355.62,-278.68 -348.98,-268.67 -350.54,-244.84L-352.00,-222.59L-373.34,-223.99L-375.49,-191.30C-369.11,-191.11 -329.39,-188.50 -316.69,-187.44L-314.54,-220.13L-337.70,-221.65L-335.57,-254.11C-328.81,-270.31 -316.80,-276.14 -301.36,-275.12C-281.61,-273.83 -274.35,-262.86 -275.85,-239.93L-277.31,-217.69L-299.56,-219.15L-301.71,-186.46C-295.33,-186.27 -255.61,-183.66 -242.91,-182.60L-240.77,-215.29L-263.01,-216.75L-260.63,-253.07C-257.71,-297.57 -269.06,-312.22 -297.66,-314.09C-314.01,-315.17 -330.08,-306.42 -337.60,-289.13C-341.73,-309.69 -352.60,-317.70 -373.03,-319.04C-388.01,-320.02 -400.34,-312.85 -406.94,-299.15L-405.64,-318.90L-441.96,-321.28L-444.41,-284.05C-440.31,-284.01 -431.68,-283.45 -422.83,-282.87L-426.46,-227.47ZM-116.00,-174.50C-106.92,-173.90 -100.35,-176.66 -95.92,-181.62L-94.07,-209.77C-99.73,-203.53 -105.54,-201.86 -112.57,-202.32C-118.02,-202.68 -122.61,-205.71 -124.08,-211.05L-121.73,-246.92C-118.98,-288.92 -131.94,-303.22 -162.82,-305.25C-179.84,-306.36 -194.49,-302.08 -203.78,-292.43L-204.80,-263.09C-198.19,-269.95 -186.44,-275.33 -167.14,-274.07C-145.80,-272.67 -136.40,-263.16 -136.66,-241.74C-145.76,-248.95 -161.52,-252.04 -172.19,-252.74C-199.21,-254.51 -218.59,-240.51 -220.16,-216.67C-221.60,-194.65 -207.18,-178.20 -174.94,-176.09C-160.18,-175.12 -145.48,-180.31 -137.21,-188.20C-133.19,-179.96 -125.76,-175.14 -116.00,-174.50ZM-172.85,-204.45C-193.96,-205.83 -202.67,-212.11 -202.02,-222.09C-201.33,-232.54 -191.41,-237.81 -169.16,-236.35C-156.45,-235.52 -146.46,-231.44 -137.61,-223.80L-138.37,-212.22C-146.08,-205.88 -158.78,-203.53 -172.85,-204.45ZM-6.45,-179.62L-11.08,-202.95C-14.98,-199.11 -22.90,-196.43 -32.42,-197.29C-43.53,-198.24 -50.88,-204.43 -49.81,-220.77L-47.39,-257.55L-13.34,-255.31L-11.02,-290.73L-45.07,-292.96L-43.13,-322.47L-57.89,-323.44L-59.83,-293.93L-77.76,-295.10L-80.08,-259.69L-62.15,-258.51L-65.59,-206.07C-67.39,-178.61 -55.08,-168.22 -37.37,-167.06C-24.43,-166.21 -11.13,-170.81 -6.45,-179.62ZM110.62,-188.36L100.62,-199.27C93.44,-190.62 83.60,-186.48 63.64,-188.02C42.76,-189.62 29.85,-197.76 28.21,-217.93L115.83,-212.18C119.51,-268.25 101.20,-287.92 70.32,-289.95C43.08,-291.74 18.05,-275.14 14.88,-226.78C12.47,-190.01 28.23,-162.76 62.29,-160.52C84.31,-159.08 102.00,-171.59 110.62,-188.36ZM66.92,-255.52C90.08,-254.00 103.64,-241.71 102.73,-227.86L29.18,-232.69C33.49,-249.73 49.90,-256.63 66.92,-255.52ZM142.44,-287.50L161.50,-286.24L155.16,-189.54L136.09,-190.79L133.94,-158.10L216.35,-152.69C251.54,-150.38 271.42,-168.46 273.10,-194.11C274.52,-215.68 269.56,-226.94 253.81,-233.68C266.40,-237.87 272.86,-246.11 274.55,-271.76C276.11,-295.60 260.94,-314.60 227.22,-318.41L144.82,-323.82ZM175.33,-246.81L177.85,-285.17L228.02,-281.88C252.08,-280.30 258.04,-270.33 257.43,-261.03C256.71,-250.13 251.38,-241.82 230.04,-243.22ZM171.50,-188.46L174.26,-230.46L228.29,-226.92C250.99,-225.43 257.39,-215.20 256.69,-204.53C255.84,-191.59 246.42,-183.55 226.21,-184.87ZM398.19,-140.76C407.27,-140.16 413.83,-142.93 418.26,-147.88L420.11,-176.03C414.45,-169.79 408.64,-168.12 401.61,-168.58C396.16,-168.94 391.57,-171.97 390.10,-177.31L392.45,-213.18C395.21,-255.18 382.24,-269.48 351.36,-271.51C334.34,-272.62 319.69,-268.34 310.40,-258.69L309.38,-229.35C315.99,-236.21 327.74,-241.59 347.04,-240.33C368.38,-238.93 377.78,-229.42 377.52,-208.00C368.42,-215.21 352.66,-218.30 341.99,-219.00C314.98,-220.77 295.59,-206.77 294.03,-182.93C292.58,-160.91 307.01,-144.46 339.24,-142.35C354.00,-141.38 368.70,-146.57 376.97,-154.46C380.99,-146.22 388.42,-141.40 398.19,-140.76ZM341.33,-170.71C320.22,-172.09 311.51,-178.37 312.17,-188.35C312.85,-198.80 322.77,-204.07 345.02,-202.61C357.73,-201.78 367.72,-197.70 376.57,-190.06L375.81,-178.48C368.10,-172.14 355.40,-169.79 341.33,-170.71ZM525.79,-164.08C527.45,-189.28 516.30,-200.04 484.04,-205.35C464.20,-208.70 457.89,-213.22 458.27,-219.12C458.82,-227.52 469.02,-233.46 486.04,-232.35C505.11,-231.10 511.81,-225.41 515.58,-216.96L526.25,-216.26L528.98,-257.80L518.31,-258.50L517.67,-248.74C509.76,-256.78 496.65,-261.97 484.17,-262.79C460.78,-264.33 443.32,-251.79 441.92,-230.45C440.16,-203.67 452.29,-193.98 481.61,-189.09C500.77,-185.78 508.68,-181.16 508.27,-175.03C507.77,-167.31 498.92,-161.05 478.49,-162.39C458.06,-163.73 454.72,-171.93 448.28,-181.47L438.06,-182.15L435.19,-138.33L445.40,-137.66L446.24,-150.37C453.15,-141.03 465.69,-134.05 480.67,-133.07C507.91,-131.28 524.45,-143.65 525.79,-164.08ZM648.41,-153.07L638.41,-163.98C631.24,-155.33 621.39,-151.19 601.43,-152.73C580.56,-154.33 567.64,-162.47 566.00,-182.64L653.63,-176.89C657.30,-232.96 638.99,-252.63 608.11,-254.66C580.87,-256.45 555.84,-239.85 552.67,-191.50C550.26,-154.72 566.03,-127.47 600.08,-125.23C622.10,-123.79 639.79,-136.31 648.41,-153.07ZM604.72,-220.23C627.87,-218.71 641.43,-206.42 640.52,-192.57L566.97,-197.40C571.28,-214.44 587.69,-221.34 604.72,-220.23Z" fill="#ffffff" stroke="#000000"/>
    <path d="M-647.38,-267.17C-654.49,-250.10 -674.86,-243.01 -700.44,-244.87C-737.02,-247.54 -753.57,-264.99 -751.20,-294.37C-748.85,-323.53 -728.53,-339.19 -694.65,-336.72C-670.19,-334.94 -654.63,-328.61 -647.50,-318.17L-634.48,-317.22L-630.41,-373.09L-643.42,-374.04L-645.06,-351.60C-652.94,-367.29 -670.64,-378.28 -691.50,-379.81C-730.55,-382.65 -760.39,-360.24 -764.92,-298.08C-768.95,-242.88 -744.62,-214.48 -706.02,-211.67C-668.32,-208.92 -644.59,-225.01 -634.88,-256.11ZM-581.25,-202.57C-565.10,-201.39 -555.41,-207.45 -549.95,-214.27L-554.45,-239.19C-559.04,-235.01 -565.95,-233.03 -574.92,-233.69C-587.94,-234.64 -592.30,-242.85 -591.32,-256.32L-581.89,-385.57L-619.15,-388.29L-622.01,-349.02L-600.02,-347.42L-607.83,-240.38C-609.66,-215.24 -601.00,-204.01 -581.25,-202.57ZM-479.73,-357.37C-478.78,-370.38 -485.58,-376.07 -497.70,-376.95C-511.16,-377.93 -518.29,-373.04 -519.22,-360.25C-520.15,-347.46 -513.41,-340.87 -500.40,-339.92C-488.73,-339.07 -480.66,-344.58 -479.73,-357.37ZM-532.75,-233.55L-535.10,-201.23C-525.44,-200.75 -516.24,-200.08 -507.04,-199.41L-499.18,-198.84C-489.53,-198.13 -479.90,-197.21 -469.80,-196.47L-467.45,-228.78L-490.11,-230.44L-483.78,-317.28L-526.41,-320.39L-529.10,-283.59L-501.05,-281.54L-504.70,-231.50ZM-447.25,-227.31L-449.61,-195.00C-446.90,-195.02 -438.15,-194.39 -428.05,-193.65L-415.26,-192.72C-405.61,-192.01 -396.42,-191.12 -391.49,-190.76L-389.13,-223.07L-411.12,-224.68L-408.67,-258.34C-402.23,-272.30 -390.28,-278.43 -376.82,-277.44C-355.27,-275.87 -348.78,-265.92 -350.50,-242.36L-352.10,-220.37L-373.20,-221.91L-375.55,-189.60C-369.25,-189.36 -329.98,-186.50 -317.43,-185.36L-315.08,-217.67L-337.97,-219.34L-335.63,-251.43C-328.82,-267.40 -316.90,-273.07 -301.64,-271.96C-282.12,-270.54 -275.02,-259.64 -276.67,-236.98L-278.27,-214.99L-300.27,-216.59L-302.62,-184.28C-296.32,-184.04 -257.05,-181.18 -244.50,-180.04L-242.14,-212.35L-264.14,-213.96L-261.52,-249.86C-258.31,-293.84 -269.43,-308.42 -297.70,-310.48C-313.86,-311.66 -329.82,-303.12 -337.38,-286.07C-341.31,-306.44 -352.01,-314.44 -372.21,-315.91C-387.02,-316.99 -399.26,-309.99 -405.88,-296.48L-404.46,-316.01L-440.36,-318.63L-443.05,-281.82C-438.99,-281.75 -430.47,-281.13 -421.71,-280.49L-425.71,-225.74ZM-119.04,-171.11C-110.07,-170.46 -103.55,-173.14 -99.14,-178.01L-97.11,-205.83C-102.75,-199.70 -108.50,-198.09 -115.46,-198.60C-120.85,-198.99 -125.36,-202.03 -126.78,-207.32L-124.19,-242.78C-121.17,-284.29 -133.89,-298.53 -164.41,-300.76C-181.24,-301.98 -195.75,-297.85 -205.02,-288.38L-206.23,-259.36C-199.65,-266.10 -187.99,-271.34 -168.91,-269.95C-147.82,-268.41 -138.58,-258.94 -139.00,-237.77C-147.95,-244.96 -163.51,-248.13 -174.06,-248.90C-200.76,-250.84 -220.03,-237.13 -221.75,-213.57C-223.34,-191.80 -209.19,-175.43 -177.33,-173.11C-162.74,-172.04 -148.16,-177.07 -139.93,-184.82C-136.01,-176.64 -128.69,-171.82 -119.04,-171.11ZM-175.06,-201.14C-195.93,-202.66 -204.49,-208.93 -203.77,-218.80C-203.02,-229.12 -193.17,-234.27 -171.18,-232.67C-158.61,-231.75 -148.76,-227.65 -140.07,-220.02L-140.90,-208.58C-148.57,-202.37 -161.14,-200.13 -175.06,-201.14ZM-10.67,-175.39L-15.08,-198.50C-18.96,-194.72 -26.82,-192.13 -36.23,-193.05C-47.21,-194.07 -54.43,-200.24 -53.25,-216.40L-50.60,-252.75L-16.94,-250.30L-14.39,-285.30L-48.05,-287.76L-45.92,-316.93L-60.50,-317.99L-62.63,-288.82L-80.36,-290.11L-82.91,-255.11L-65.19,-253.81L-68.97,-201.98C-70.95,-174.82 -58.84,-164.47 -41.34,-163.19C-28.55,-162.26 -15.36,-166.71 -10.67,-175.39ZM105.18,-183.18L95.37,-194.05C88.21,-185.55 78.44,-181.53 58.71,-183.19C38.08,-184.92 25.36,-193.07 23.88,-213.03L110.50,-206.71C114.55,-262.14 96.57,-281.72 66.05,-283.95C39.13,-285.91 14.25,-269.68 10.77,-221.88C8.12,-185.53 23.51,-158.46 57.17,-156.00C78.94,-154.42 96.53,-166.67 105.18,-183.18ZM62.44,-249.92C85.33,-248.25 98.65,-236.00 97.65,-222.31L24.95,-227.61C29.33,-244.44 45.61,-251.15 62.44,-249.92ZM137.35,-281.00L156.20,-279.63L149.23,-184.03L130.38,-185.41L128.03,-153.09L209.48,-147.15C244.27,-144.62 264.06,-162.35 265.91,-187.71C267.46,-209.02 262.64,-220.20 247.11,-226.98C259.59,-231.03 266.05,-239.13 267.90,-264.49C269.62,-288.05 254.75,-306.96 221.43,-310.97L139.97,-316.91ZM169.60,-240.53L172.36,-278.45L221.95,-274.83C245.74,-273.10 251.56,-263.20 250.89,-254.00C250.10,-243.23 244.77,-235.04 223.68,-236.58ZM165.39,-182.85L168.42,-224.37L221.82,-220.47C244.27,-218.84 250.52,-208.68 249.75,-198.13C248.82,-185.34 239.44,-177.45 219.47,-178.91ZM389.23,-134.04C398.21,-133.39 404.72,-136.07 409.14,-140.94L411.17,-168.76C405.53,-162.63 399.77,-161.02 392.82,-161.53C387.43,-161.92 382.91,-164.96 381.49,-170.25L384.08,-205.71C387.11,-247.22 374.39,-261.46 343.87,-263.69C327.04,-264.91 312.52,-260.78 303.26,-251.31L302.04,-222.29C308.63,-229.03 320.29,-234.27 339.36,-232.88C360.46,-231.34 369.69,-221.87 369.28,-200.70C360.33,-207.89 344.77,-211.06 334.22,-211.82C307.51,-213.77 288.24,-200.06 286.52,-176.50C284.94,-154.73 299.08,-138.36 330.95,-136.04C345.53,-134.97 360.11,-140.00 368.35,-147.75C372.26,-139.57 379.58,-134.75 389.23,-134.04ZM333.22,-164.07C312.35,-165.59 303.78,-171.86 304.50,-181.73C305.25,-192.05 315.10,-197.20 337.10,-195.60C349.66,-194.68 359.52,-190.58 368.21,-182.95L367.37,-171.51C359.70,-165.30 347.13,-163.06 333.22,-164.07ZM515.60,-156.18C517.42,-181.09 506.47,-191.82 474.61,-197.30C455.01,-200.76 448.80,-205.27 449.22,-211.11C449.83,-219.41 459.95,-225.21 476.78,-223.99C495.63,-222.61 502.21,-216.94 505.89,-208.55L516.43,-207.78L519.43,-248.85L508.88,-249.62L508.18,-239.97C500.41,-247.98 487.49,-253.21 475.14,-254.11C452.03,-255.80 434.67,-243.53 433.13,-222.43C431.20,-195.95 443.12,-186.29 472.08,-181.24C491.01,-177.83 498.80,-173.20 498.35,-167.14C497.80,-159.51 489.00,-153.39 468.81,-154.86C448.61,-156.33 445.37,-164.46 439.07,-173.95L428.97,-174.68L425.81,-131.37L435.91,-130.64L436.82,-143.20C443.59,-133.91 455.94,-126.92 470.75,-125.84C497.68,-123.88 514.13,-135.99 515.60,-156.18ZM636.79,-144.41L626.98,-155.28C619.82,-146.78 610.05,-142.75 590.32,-144.42C569.69,-146.15 556.97,-154.29 555.50,-174.25L642.12,-167.94C646.16,-223.36 628.19,-242.95 597.67,-245.17C570.74,-247.14 545.87,-230.91 542.38,-183.11C539.73,-146.75 555.13,-119.69 588.79,-117.23C610.55,-115.64 628.14,-127.90 636.79,-144.41ZM594.06,-211.15C616.95,-209.48 630.27,-197.23 629.27,-183.54L556.56,-188.84C560.95,-205.67 577.23,-212.37 594.06,-211.15Z" fill="#ffffff" stroke="#000000"/>
    <path d="M-910.72,482.04L-910.72,492L-908.52,492L-908.52,488.92C-906.69,491.01 -903.46,492.38 -899.93,492.38C-893.09,492.38 -889.52,489.72 -889.52,484.89C-889.48,480.45 -892.33,477.45 -900.19,476.80C-906.05,476.31 -907.11,475.09 -907.11,473.38C-907.11,471.44 -905.63,469.54 -900.50,469.54C-896.09,469.54 -894.23,471.10 -892.86,472.24L-890.66,472.24L-890.66,463.88L-892.86,463.88L-892.86,466.73C-894.34,464.72 -897.15,463.12 -900.57,463.12C-906.88,463.12 -910.49,466.65 -910.49,471.21C-910.49,476.04 -908.40,478.78 -900.42,479.38C-895.25,479.76 -893.13,481.25 -893.13,483.11C-893.13,485.20 -895.14,486.79 -900.31,486.79C-904.37,486.79 -907.41,484.67 -908.52,482.04ZM-867.89,492C-866.37,492 -865.31,491.47 -864.63,490.59L-864.63,485.88C-865.50,486.98 -866.45,487.33 -867.63,487.33C-868.54,487.33 -869.34,486.87 -869.64,486.00L-869.64,479.99C-869.64,472.96 -871.96,470.72 -877.13,470.72C-879.98,470.72 -882.37,471.59 -883.82,473.30L-883.66,478.21C-882.64,476.99 -880.74,475.96 -877.51,475.96C-873.94,475.96 -872.26,477.45 -872.07,481.02C-873.67,479.92 -876.33,479.57 -878.12,479.57C-882.64,479.57 -885.72,482.12 -885.72,486.11C-885.72,489.80 -883.13,492.38 -877.74,492.38C-875.27,492.38 -872.87,491.35 -871.58,489.95C-870.82,491.28 -869.53,492 -867.89,492ZM-877.70,487.63C-881.23,487.63 -882.75,486.68 -882.75,485.01C-882.75,483.26 -881.16,482.27 -877.43,482.27C-875.30,482.27 -873.59,482.84 -872.04,484.02L-872.04,485.96C-873.25,487.10 -875.34,487.63 -877.70,487.63ZM-851.63,492L-846.42,477.33L-843.46,477.33L-843.46,471.10L-853.11,471.10L-853.11,477.33L-850.98,477.33L-854.25,487.25L-857.90,477.33L-855.70,477.33L-855.70,471.10L-863.60,471.10L-863.60,477.33L-860.56,477.33L-855.24,492ZM-823.36,492C-821.84,492 -820.77,491.47 -820.09,490.59L-820.09,485.88C-820.96,486.98 -821.91,487.33 -823.09,487.33C-824.00,487.33 -824.80,486.87 -825.11,486.00L-825.11,479.99C-825.11,472.96 -827.42,470.72 -832.59,470.72C-835.44,470.72 -837.84,471.59 -839.28,473.30L-839.13,478.21C-838.10,476.99 -836.20,475.96 -832.97,475.96C-829.40,475.96 -827.73,477.45 -827.54,481.02C-829.13,479.92 -831.79,479.57 -833.58,479.57C-838.10,479.57 -841.18,482.12 -841.18,486.11C-841.18,489.80 -838.60,492.38 -833.20,492.38C-830.73,492.38 -828.34,491.35 -827.04,489.95C-826.28,491.28 -824.99,492 -823.36,492ZM-833.16,487.63C-836.70,487.63 -838.22,486.68 -838.22,485.01C-838.22,483.26 -836.62,482.27 -832.90,482.27C-830.77,482.27 -829.06,482.84 -827.50,484.02L-827.50,485.96C-828.72,487.10 -830.81,487.63 -833.16,487.63ZM-805.16,489.95L-806.18,486.11C-806.79,486.79 -808.08,487.33 -809.68,487.29C-811.54,487.25 -812.83,486.30 -812.83,483.56L-812.83,477.41L-807.13,477.41L-807.13,471.48L-812.83,471.48L-812.83,466.54L-815.30,466.54L-815.30,471.48L-818.30,471.48L-818.30,477.41L-815.30,477.41L-815.30,486.19C-815.30,490.78 -813.14,492.38 -810.17,492.38C-808.01,492.38 -805.84,491.47 -805.16,489.95ZM-785.74,487.21L-787.52,485.50C-788.63,487.02 -790.22,487.82 -793.57,487.78C-797.06,487.74 -799.30,486.53 -799.80,483.18L-785.13,483.18C-785.13,473.80 -788.40,470.72 -793.57,470.72C-798.13,470.72 -802.12,473.76 -802.12,481.85C-802.12,488.01 -799.19,492.38 -793.49,492.38C-789.80,492.38 -786.99,490.10 -785.74,487.21ZM-793.76,476.50C-789.88,476.50 -787.49,478.40 -787.49,480.71L-799.80,480.71C-799.27,477.83 -796.61,476.50 -793.76,476.50ZM-772.21,482.27L-772.21,479.46L-782.47,479.46L-782.47,482.27ZM-768.98,482.04L-768.98,492L-766.78,492L-766.78,488.92C-764.95,491.01 -761.72,492.38 -758.19,492.38C-751.35,492.38 -747.78,489.72 -747.78,484.89C-747.74,480.45 -750.59,477.45 -758.45,476.80C-764.31,476.31 -765.37,475.09 -765.37,473.38C-765.37,471.44 -763.89,469.54 -758.76,469.54C-754.35,469.54 -752.49,471.10 -751.12,472.24L-748.92,472.24L-748.92,463.88L-751.12,463.88L-751.12,466.73C-752.60,464.72 -755.41,463.12 -758.83,463.12C-765.14,463.12 -768.75,466.65 -768.75,471.21C-768.75,476.04 -766.66,478.78 -758.68,479.38C-753.51,479.76 -751.39,481.25 -751.39,483.11C-751.39,485.20 -753.40,486.79 -758.57,486.79C-762.63,486.79 -765.67,484.67 -766.78,482.04ZM-727.60,487.21L-729.38,485.50C-730.49,487.02 -732.08,487.82 -735.43,487.78C-738.92,487.74 -741.16,486.53 -741.66,483.18L-726.99,483.18C-726.99,473.80 -730.26,470.72 -735.43,470.72C-739.99,470.72 -743.98,473.76 -743.98,481.85C-743.98,488.01 -741.05,492.38 -735.35,492.38C-731.66,492.38 -728.85,490.10 -727.60,487.21ZM-735.62,476.50C-731.74,476.50 -729.35,478.40 -729.35,480.71L-741.66,480.71C-741.13,477.83 -738.47,476.50 -735.62,476.50ZM-723.38,486.60L-723.38,492.08C-722.32,492.04 -716.05,492.04 -713.92,492.08L-713.92,486.60L-717.34,486.60L-717.34,481.17C-717.34,478.51 -715.97,477.03 -714.11,477.03C-712.40,477.03 -711.49,477.45 -711.03,478.43L-709.59,472.13C-710.57,471.29 -711.45,470.72 -713.27,470.72C-714.83,470.72 -716.73,471.78 -717.60,474.06L-718.90,471.10L-723.38,471.10L-723.38,477.33C-722.47,477.33 -721.40,477.29 -719.85,477.33L-719.85,486.60ZM-699.33,465.06C-699.33,462.85 -700.54,461.98 -702.59,461.98C-704.87,461.98 -706.01,462.89 -706.01,465.06C-706.01,467.22 -704.80,468.25 -702.59,468.25C-700.62,468.25 -699.33,467.22 -699.33,465.06ZM-706.74,486.57L-706.74,492.04C-705.10,492 -703.54,492 -701.99,492L-700.66,492C-699.02,492 -697.39,492.04 -695.68,492.04L-695.68,486.57L-699.52,486.57L-699.52,471.86L-706.74,471.86L-706.74,478.09L-701.99,478.09L-701.99,486.57ZM-682.23,492L-682.23,486.53L-686.79,486.53L-686.79,478.09L-682.11,478.09L-682.11,471.86L-686.75,471.86C-687.13,469.09 -685.15,467.53 -683.02,467.53C-681.96,467.53 -681.12,467.76 -680.67,468.10L-680.36,463.20C-681.24,462.51 -682.30,461.98 -683.75,461.98C-687.36,461.98 -690.05,464.94 -689.29,471.86L-692.26,471.86L-692.26,478.09L-689.26,478.09L-689.26,486.53L-692.22,486.53L-692.22,492Z"/>
</svg>