<?xml version="1.0"?>
<svg xmlns="http://www.w3.org/2000/svg" width="1920" height="1080" viewBox="-960 -540 1920 1080">
    <path d="M-417.75,-375L-487,-375L-487,-210L-452.50,-210L-452.50,-268.50L-417.75,-268.50C-380,-268.50 -357,-288.25 -357,-321.75C-357,-355.25 -380,-375 -417.75,-375ZM-423,-295.75L-452.50,-295.75L-452.50,-347.75L-423,-347.75C-402.25,-347.75 -392,-339 -392,-321.75C-392,-304.50 -402.25,-295.75 -423,-295.75ZM-329,-210L-294.75,-210L-294.75,-274.75C-294.75,-297.25 -279.50,-308 -264.25,-308C-256.50,-308 -252.25,-307.25 -248.75,-306L-244.75,-334.75C-247.75,-336.50 -252.75,-337.50 -258.25,-337.50C-277.75,-337.50 -290.50,-327.75 -297,-310.50L-299.25,-335L-329,-335ZM-166.50,-337.50C-204.25,-337.50 -230.50,-313.25 -230.50,-272.50C-230.50,-231.75 -204.25,-207.50 -166.50,-207.50C-128.75,-207.50 -102.50,-231.75 -102.50,-272.50C-102.50,-313.25 -128.75,-337.50 -166.50,-337.50ZM-166.50,-312C-148,-312 -137,-299 -137,-272.50C-137,-246 -148,-233 -166.50,-233C-185.25,-233 -196.25,-246 -196.25,-272.50C-196.25,-299 -185.25,-312 -166.50,-312ZM-56.50,-353C-42.25,-353 -35.25,-359 -35.25,-371.25C-35.25,-383.50 -42.25,-389.75 -56.50,-389.75C-70.75,-389.75 -77.75,-383.50 -77.75,-371.25C-77.75,-359 -70.75,-353 -56.50,-353ZM-39.50,-335L-73.75,-335L-73.75,-204C-73.75,-188.25 -80.50,-182.75 -91,-182.75C-98.50,-182.75 -104.50,-185.50 -108.50,-188.75L-114,-164.25C-106.50,-159.25 -96.25,-156.25 -84,-156.25C-58.75,-156.25 -39.50,-168 -39.50,-200.75ZM112.50,-279.25C112.50,-312.75 90.75,-337.50 53,-337.50C15.75,-337.50 -10.25,-313.50 -10.25,-272.50C-10.25,-231.50 15.25,-207.50 54.75,-207.50C80.25,-207.50 102,-218.75 110,-238.50L82.75,-249C77.75,-239 69.25,-233 54.50,-233C37.25,-233 26,-242.25 23.25,-261.75L111.50,-261.75C112,-266.25 112.50,-272.50 112.50,-279.25ZM52.75,-312.25C68.25,-312.25 77.75,-302.75 79.50,-285.50L23.50,-285.50C26.75,-303.25 37,-312.25 52.75,-312.25ZM198.25,-337.50C160.50,-337.50 134.50,-313.50 134.50,-272.50C134.50,-231.50 160.25,-207.50 199.25,-207.50C230.25,-207.50 250.50,-223 256,-245.25L225,-255.25C222.25,-241 213.75,-233 199,-233C180.25,-233 168.75,-245.50 168.75,-272.25C168.75,-298.50 179.50,-312 198.75,-312C212.25,-312 220.50,-304.25 223.50,-289.25L255.50,-300.75C249.50,-321.25 231.75,-337.50 198.25,-337.50ZM363.50,-240.50C358.25,-236 352.50,-233.50 344,-233.50C333.25,-233.50 326.75,-238.75 326.75,-250.75L326.75,-309.50L366.75,-309.50L366.75,-335L326.75,-335L326.75,-373.25L292.50,-363.75L292.50,-335L269.50,-335L269.50,-309.50L292.50,-309.50L292.50,-245.25C292.50,-217.75 309.75,-207.50 335,-207.50C348.25,-207.50 360.75,-211.25 369,-217.75ZM-620.25,-43.50L-684,-43.50L-684,121.50L-620.25,121.50C-568.50,121.50 -539,91.75 -539,39C-539,-13.75 -568.50,-43.50 -620.25,-43.50ZM-622,94L-649.50,94L-649.50,-16L-622,-16C-590.50,-16 -574.75,3.50 -574.75,39C-574.75,74.50 -590.50,94 -622,94ZM-507.75,121.50L-473.50,121.50L-473.50,56.75C-473.50,34.25 -458.25,23.50 -443,23.50C-435.25,23.50 -431,24.25 -427.50,25.50L-423.50,-3.25C-426.50,-5 -431.50,-6 -437,-6C-456.50,-6 -469.25,3.75 -475.75,21L-478,-3.50L-507.75,-3.50ZM-288,100.50C-294,100.50 -297,97.50 -297,91L-297,40.25C-297,9.50 -319,-6 -351.75,-6C-384.25,-6 -403.25,8.50 -409,30.50L-379.75,39.50C-375.50,24.75 -365.50,19 -353.25,19C-340,19 -331,27.50 -331,41.75L-331,46.50L-374,55.25C-396.50,59.75 -408.75,71.75 -408.75,90.25C-408.75,112.25 -393,124 -367.50,124C-351.75,124 -335.75,117.50 -327.75,106C-324,117.75 -312.50,123.50 -298.25,123.75C-291.50,123.75 -286,122.50 -282,120.50L-280,99.25C-282.25,100 -285.25,100.50 -288,100.50ZM-358.75,99.75C-367.50,99.75 -374.50,95.25 -374.50,87C-374.50,78.25 -368.75,75.25 -357.25,73L-331,67.75L-331,75.50C-331,93.75 -344.50,99.75 -358.75,99.75ZM-97.50,-3.50L-122.25,92.25L-150.25,-3.50L-184.25,-3.50L-212,92.25L-237,-3.50L-273.50,-3.50L-233.50,121.50L-194,121.50L-167.75,36.50L-140.50,121.50L-101,121.50L-61,-3.50ZM27.50,-43.50L-36.25,-43.50L-36.25,121.50L27.50,121.50C79.25,121.50 108.75,91.75 108.75,39C108.75,-13.75 79.25,-43.50 27.50,-43.50ZM25.75,94L-1.75,94L-1.75,-16L25.75,-16C57.25,-16 73,3.50 73,39C73,74.50 57.25,94 25.75,94ZM197,-6C159.25,-6 133,18.25 133,59C133,99.75 159.25,124 197,124C234.75,124 261,99.75 261,59C261,18.25 234.75,-6 197,-6ZM197,19.50C215.50,19.50 226.50,32.50 226.50,59C226.50,85.50 215.50,98.50 197,98.50C178.25,98.50 167.25,85.50 167.25,59C167.25,32.50 178.25,19.50 197,19.50ZM451,-3.50L426.25,92.25L398.25,-3.50L364.25,-3.50L336.50,92.25L311.50,-3.50L275,-3.50L315,121.50L354.50,121.50L380.75,36.50L408,121.50L447.50,121.50L487.50,-3.50ZM583.25,-6C564,-6 548.50,2.50 540.75,20L539.50,-3.50L508.75,-3.50L508.75,121.50L543,121.50L543,55.25C543,30.25 557.25,21 571.50,21C584.50,21 594,28 594,49.25L594,121.50L628.25,121.50L628.25,39.50C628.25,9.25 609.25,-6 583.25,-6Z" fill="#ffffff" stroke="#000000"/>
    <path d="M-422.67,-364.66L-491.22,-364.06L-489.82,-200.72L-455.66,-201.02L-456.16,-258.93L-421.76,-259.22C-384.39,-259.55 -361.79,-279.29 -362.07,-312.46C-362.36,-345.62 -385.30,-364.98 -422.67,-364.66ZM-427.19,-286.16L-456.39,-285.90L-456.84,-337.38L-427.63,-337.63C-407.09,-337.81 -396.87,-329.24 -396.72,-312.16C-396.57,-295.08 -406.65,-286.33 -427.19,-286.16ZM-333.40,-202.07L-299.50,-202.36L-300.05,-266.46C-300.24,-288.73 -285.23,-299.51 -270.14,-299.64C-262.46,-299.70 -258.25,-299.00 -254.78,-297.79L-251.06,-326.28C-254.05,-327.99 -259.00,-328.94 -264.45,-328.89C-283.75,-328.72 -296.29,-318.96 -302.58,-301.83L-305.02,-326.07L-334.47,-325.81ZM-173.62,-329.67C-210.99,-329.35 -236.77,-305.12 -236.42,-264.78C-236.08,-224.44 -209.88,-200.66 -172.51,-200.98C-135.14,-201.30 -109.36,-225.53 -109.71,-265.87C-110.05,-306.21 -136.25,-329.99 -173.62,-329.67ZM-173.40,-304.43C-155.09,-304.59 -144.09,-291.81 -143.86,-265.58C-143.64,-239.34 -154.41,-226.38 -172.73,-226.22C-191.29,-226.06 -202.29,-238.84 -202.52,-265.07C-202.74,-291.31 -191.96,-304.27 -173.40,-304.43ZM-64.86,-345.95C-50.75,-346.08 -43.87,-352.08 -43.97,-364.20C-44.08,-376.33 -51.06,-382.46 -65.17,-382.34C-79.28,-382.21 -86.15,-375.97 -86.05,-363.84C-85.94,-351.71 -78.96,-345.83 -64.86,-345.95ZM-47.87,-328.28L-81.78,-327.99L-80.66,-198.30C-80.53,-182.71 -87.16,-177.21 -97.56,-177.12C-104.98,-177.06 -110.95,-179.73 -114.93,-182.91L-120.17,-158.61C-112.70,-153.72 -102.53,-150.84 -90.40,-150.94C-65.41,-151.16 -46.45,-162.96 -46.73,-195.38ZM103.08,-274.38C102.79,-307.55 81.05,-331.86 43.68,-331.54C6.80,-331.23 -18.73,-307.25 -18.38,-266.66C-18.03,-226.07 7.41,-202.53 46.52,-202.86C71.76,-203.08 93.20,-214.40 100.95,-234.02L73.88,-244.19C69.02,-234.24 60.66,-228.23 46.05,-228.10C28.98,-227.96 17.76,-237.02 14.87,-256.30L102.24,-257.05C102.69,-261.51 103.13,-267.70 103.08,-274.38ZM43.65,-306.54C58.99,-306.68 68.48,-297.35 70.35,-280.29L14.92,-279.81C17.98,-297.41 28.05,-306.41 43.65,-306.54ZM187.47,-332.78C150.10,-332.46 124.56,-308.48 124.91,-267.89C125.26,-227.30 150.96,-203.76 189.57,-204.09C220.26,-204.36 240.17,-219.88 245.43,-241.95L214.65,-251.58C212.05,-237.45 203.70,-229.46 189.10,-229.34C170.54,-229.18 159.05,-241.45 158.82,-267.93C158.60,-293.92 169.13,-307.38 188.18,-307.54C201.55,-307.66 209.78,-300.05 212.88,-285.23L244.46,-296.89C238.34,-317.13 220.63,-333.07 187.47,-332.78ZM351.89,-238.16C346.73,-233.66 341.06,-231.14 332.64,-231.07C322.00,-230.98 315.52,-236.12 315.42,-248.00L314.92,-306.16L354.52,-306.50L354.30,-331.74L314.70,-331.40L314.38,-369.27L280.55,-359.57L280.80,-331.11L258.03,-330.91L258.24,-305.67L281.01,-305.87L281.56,-242.26C281.79,-215.04 298.96,-205.04 323.96,-205.25C337.07,-205.36 349.41,-209.18 357.53,-215.69ZM-620.31,-34.76L-683.42,-34.21L-682.01,129.13L-618.90,128.59C-567.67,128.15 -538.72,98.44 -539.17,46.22C-539.62,-6.00 -569.08,-35.20 -620.31,-34.76ZM-620.87,101.38L-648.09,101.61L-649.03,-7.28L-621.81,-7.52C-590.62,-7.79 -574.87,11.38 -574.56,46.53C-574.26,81.67 -589.69,101.11 -620.87,101.38ZM-507.53,127.63L-473.63,127.34L-474.18,63.24C-474.37,40.96 -459.36,30.19 -444.27,30.06C-436.60,29.99 -432.38,30.70 -428.91,31.91L-425.19,3.41C-428.18,1.71 -433.13,0.76 -438.58,0.81C-457.88,0.97 -470.42,10.73 -476.71,27.86L-479.15,3.63L-508.60,3.88ZM-290.17,104.97C-296.11,105.02 -299.10,102.07 -299.16,95.64L-299.59,45.40C-299.85,14.96 -321.76,-0.20 -354.18,0.08C-386.36,0.36 -405.04,14.87 -410.55,36.70L-381.52,45.36C-377.43,30.72 -367.58,24.95 -355.46,24.84C-342.34,24.73 -333.36,33.07 -333.24,47.17L-333.20,51.88L-375.69,60.90C-397.93,65.55 -409.95,77.53 -409.79,95.85C-409.61,117.63 -393.91,129.13 -368.67,128.91C-353.08,128.77 -337.29,122.20 -329.47,110.75C-325.66,122.35 -314.23,127.94 -300.12,128.07C-293.43,128.01 -288.00,126.73 -284.06,124.71L-282.26,103.66C-284.48,104.42 -287.44,104.94 -290.17,104.97ZM-360.21,104.83C-368.88,104.90 -375.84,100.51 -375.91,92.34C-375.99,83.68 -370.32,80.66 -358.96,78.33L-333.01,72.91L-332.95,80.58C-332.79,98.65 -346.11,104.71 -360.21,104.83ZM-102.47,0.39L-126.15,95.39L-154.69,0.84L-188.34,1.13L-215.00,96.15L-240.57,1.58L-276.70,1.89L-236.04,125.29L-196.93,124.95L-171.67,40.58L-143.97,124.50L-104.87,124.16L-66.33,0.08ZM20.94,-40.28L-42.17,-39.73L-40.76,123.61L22.35,123.07C73.58,122.63 102.53,92.92 102.08,40.70C101.63,-11.52 72.17,-40.72 20.94,-40.28ZM20.38,95.86L-6.85,96.09L-7.78,-12.80L19.44,-13.04C50.62,-13.31 66.38,5.86 66.69,41.01C66.99,76.15 51.56,95.59 20.38,95.86ZM189.06,-4.60C151.69,-4.28 125.91,19.95 126.25,60.30C126.60,100.64 152.79,124.42 190.17,124.10C227.54,123.78 253.32,99.55 252.97,59.20C252.62,18.86 226.43,-4.92 189.06,-4.60ZM189.27,20.65C207.59,20.49 218.59,33.26 218.82,59.50C219.04,85.73 208.26,98.70 189.95,98.85C171.39,99.01 160.39,86.24 160.16,60.00C159.93,33.77 170.71,20.81 189.27,20.65ZM440.53,-4.29L416.84,90.71L388.31,-3.84L354.65,-3.55L327.99,91.48L302.43,-3.10L266.30,-2.79L306.96,120.62L346.06,120.28L371.33,35.91L399.03,119.82L438.13,119.49L476.66,-4.60ZM571.43,-7.89C552.37,-7.73 537.10,0.82 529.58,18.21L528.14,-5.04L497.70,-4.78L498.77,118.97L532.67,118.67L532.11,53.09C531.89,28.34 545.92,19.06 560.03,18.94C572.90,18.83 582.36,25.68 582.54,46.71L583.16,118.24L617.07,117.95L616.37,36.77C616.11,6.82 597.17,-8.11 571.43,-7.89Z" fill="#ffffff" stroke="#000000"/>
    <path d="M-427.32,-354.32L-495.17,-353.15L-492.39,-191.47L-458.58,-192.05L-459.57,-249.38L-425.52,-249.96C-388.53,-250.60 -366.33,-270.34 -366.89,-303.16C-367.46,-335.99 -390.33,-354.95 -427.32,-354.32ZM-431.13,-276.57L-460.03,-276.08L-460.91,-327.03L-432.00,-327.53C-411.67,-327.88 -401.48,-319.48 -401.19,-302.57C-400.90,-285.67 -410.79,-276.92 -431.13,-276.57ZM-337.57,-194.14L-304.01,-194.72L-305.10,-258.16C-305.48,-280.21 -290.72,-291.00 -275.78,-291.26C-268.19,-291.39 -264.01,-290.72 -260.56,-289.56L-257.12,-317.80C-260.09,-319.46 -265.01,-320.36 -270.40,-320.26C-289.51,-319.93 -301.83,-310.16 -307.91,-293.15L-310.53,-317.12L-339.68,-316.62ZM-180.50,-321.81C-217.49,-321.17 -242.80,-296.97 -242.11,-257.04C-241.42,-217.11 -215.29,-193.79 -178.30,-194.43C-141.31,-195.07 -116.00,-219.27 -116.69,-259.20C-117.38,-299.13 -143.51,-322.45 -180.50,-321.81ZM-180.07,-296.82C-161.94,-297.14 -150.94,-284.58 -150.49,-258.62C-150.05,-232.65 -160.61,-219.73 -178.73,-219.42C-197.11,-219.10 -208.10,-231.65 -208.55,-257.62C-209.00,-283.58 -198.44,-296.51 -180.07,-296.82ZM-72.97,-338.85C-59.01,-339.09 -52.25,-345.09 -52.46,-357.09C-52.67,-369.10 -59.63,-375.10 -73.59,-374.86C-87.56,-374.62 -94.31,-368.38 -94.10,-356.38C-93.90,-344.37 -86.94,-338.61 -72.97,-338.85ZM-56.01,-321.50L-89.57,-320.93L-87.36,-192.56C-87.10,-177.13 -93.62,-171.63 -103.91,-171.45C-111.26,-171.33 -117.18,-173.92 -121.16,-177.04L-126.13,-152.94C-118.70,-148.16 -108.60,-145.40 -96.60,-145.60C-71.86,-146.03 -53.20,-157.87 -53.75,-189.96ZM93.87,-269.44C93.30,-302.27 71.57,-326.15 34.58,-325.51C-1.92,-324.89 -26.99,-300.93 -26.30,-260.76C-25.61,-220.58 -0.22,-197.50 38.49,-198.16C63.48,-198.59 84.60,-209.98 92.10,-229.47L65.22,-239.30C60.49,-229.42 52.27,-223.39 37.81,-223.14C20.91,-222.85 9.73,-231.73 6.71,-250.79L93.18,-252.28C93.59,-256.69 93.98,-262.83 93.87,-269.44ZM34.76,-300.77C49.95,-301.03 59.42,-291.88 61.42,-275.01L6.55,-274.06C9.44,-291.51 19.33,-300.50 34.76,-300.77ZM176.91,-327.96C139.92,-327.33 114.84,-303.37 115.54,-263.20C116.23,-223.02 141.86,-199.94 180.08,-200.60C210.45,-201.12 230.03,-216.65 235.05,-238.55L204.50,-247.82C202.05,-233.81 193.86,-225.83 179.40,-225.58C161.03,-225.27 149.55,-237.32 149.10,-263.53C148.66,-289.25 158.96,-302.66 177.83,-302.99C191.05,-303.21 199.27,-295.76 202.46,-281.11L233.62,-292.92C227.40,-312.91 209.73,-328.53 176.91,-327.96ZM340.46,-235.71C335.39,-231.21 329.80,-228.66 321.47,-228.52C310.94,-228.34 304.48,-233.37 304.28,-245.13L303.29,-302.70L342.48,-303.37L342.05,-328.36L302.86,-327.68L302.21,-365.16L268.81,-355.28L269.30,-327.10L246.76,-326.72L247.19,-301.73L269.73,-302.12L270.81,-239.16C271.28,-212.22 288.35,-202.46 313.09,-202.89C326.08,-203.11 338.26,-207.00 346.24,-213.51ZM-620.15,-26.08L-682.61,-25.00L-679.83,136.67L-617.36,135.60C-566.65,134.73 -538.25,105.08 -539.14,53.39C-540.03,1.70 -569.44,-26.95 -620.15,-26.08ZM-619.54,108.68L-646.49,109.15L-648.34,1.36L-621.40,0.90C-590.53,0.37 -574.77,19.21 -574.17,53.99C-573.57,88.78 -588.68,108.15 -619.54,108.68ZM-507.13,133.70L-473.57,133.12L-474.66,69.68C-475.04,47.63 -460.28,36.84 -445.34,36.58C-437.74,36.45 -433.57,37.11 -430.11,38.28L-426.68,10.04C-429.65,8.38 -434.57,7.48 -439.95,7.58C-459.06,7.90 -471.39,17.67 -477.47,34.69L-480.09,10.72L-509.24,11.22ZM-292.16,109.42C-298.04,109.52 -301.03,106.63 -301.14,100.26L-301.99,50.53C-302.51,20.40 -324.33,5.58 -356.42,6.14C-388.27,6.69 -406.64,21.21 -411.90,42.87L-383.09,51.19C-379.17,36.67 -369.47,30.87 -357.47,30.66C-344.49,30.44 -335.52,38.61 -335.28,52.57L-335.20,57.23L-377.19,66.53C-399.16,71.32 -410.96,83.28 -410.65,101.41C-410.28,122.97 -394.65,134.21 -369.66,133.78C-354.23,133.52 -338.66,126.88 -331.02,115.48C-327.14,126.93 -315.78,132.37 -301.81,132.37C-295.20,132.26 -289.83,130.94 -285.94,128.91L-284.34,108.06C-286.53,108.83 -289.47,109.37 -292.16,109.42ZM-361.50,109.87C-370.07,110.02 -377.01,105.73 -377.14,97.65C-377.29,89.07 -371.71,86.04 -360.48,83.64L-334.85,78.05L-334.72,85.65C-334.41,103.53 -347.53,109.63 -361.50,109.87ZM-107.25,4.30L-129.89,98.54L-158.94,5.19L-192.25,5.76L-217.83,100.05L-243.94,6.65L-279.71,7.27L-238.40,129.07L-199.70,128.41L-175.41,44.68L-147.28,127.50L-108.57,126.84L-71.49,3.68ZM14.56,-37.01L-47.91,-35.93L-45.13,125.75L17.34,124.67C68.05,123.80 96.45,94.15 95.56,42.46C94.67,-9.23 65.26,-37.88 14.56,-37.01ZM15.16,97.75L-11.79,98.22L-13.64,-9.57L13.30,-10.03C44.17,-10.56 59.93,8.28 60.53,43.06C61.13,77.85 46.03,97.22 15.16,97.75ZM181.27,-3.12C144.28,-2.48 118.97,21.72 119.66,61.65C120.35,101.58 146.48,124.90 183.47,124.26C220.46,123.62 245.77,99.42 245.08,59.49C244.39,19.56 218.26,-3.76 181.27,-3.12ZM181.70,21.87C199.83,21.55 210.83,34.11 211.28,60.07C211.72,86.04 201.16,98.96 183.04,99.27C164.66,99.59 153.67,87.04 153.22,61.07C152.77,35.11 163.33,22.18 181.70,21.87ZM430.20,-4.96L407.56,89.28L378.51,-4.07L345.20,-3.49L319.62,90.80L293.51,-2.60L257.74,-1.99L299.05,119.82L337.75,119.15L362.04,35.42L390.17,118.25L428.88,117.58L465.96,-5.57ZM559.74,-9.64C540.88,-9.31 525.84,-0.72 518.54,16.56L516.92,-6.45L486.79,-5.93L488.89,116.55L522.45,115.97L521.34,51.06C520.91,26.56 534.72,17.26 548.68,17.02C561.42,16.80 570.85,23.50 571.21,44.32L572.43,115.11L605.99,114.53L604.60,34.19C604.09,4.55 585.22,-10.08 559.74,-9.64Z" fill="#ffffff" stroke="#000000"/>
    <path d="M-431.70,-343.99L-498.85,-342.25L-494.72,-182.26L-461.27,-183.12L-462.73,-239.85L-429.04,-240.72C-392.43,-241.66 -370.62,-261.39 -371.46,-293.87C-372.30,-326.36 -395.10,-344.93 -431.70,-343.99ZM-434.81,-267.01L-463.42,-266.27L-464.72,-316.69L-436.11,-317.43C-415.99,-317.95 -405.83,-309.72 -405.40,-293.00C-404.97,-276.27 -414.69,-267.53 -434.81,-267.01ZM-341.51,-186.21L-308.30,-187.07L-309.92,-249.86C-310.49,-271.68 -295.97,-282.48 -281.18,-282.86C-273.67,-283.06 -269.53,-282.44 -266.10,-281.31L-262.94,-309.29C-265.89,-310.91 -270.77,-311.76 -276.10,-311.62C-295.01,-311.13 -307.13,-301.36 -313.00,-284.47L-315.80,-308.17L-344.64,-307.42ZM-187.13,-313.92C-223.74,-312.97 -248.59,-288.80 -247.56,-249.29C-246.54,-209.77 -220.48,-186.91 -183.88,-187.86C-147.27,-188.81 -122.43,-212.98 -123.45,-252.49C-124.47,-292.01 -150.53,-314.86 -187.13,-313.92ZM-186.49,-289.19C-168.56,-289.65 -157.56,-277.32 -156.90,-251.63C-156.24,-225.93 -166.58,-213.05 -184.52,-212.59C-202.70,-212.12 -213.69,-224.45 -214.35,-250.14C-215.02,-275.84 -204.68,-288.72 -186.49,-289.19ZM-80.86,-331.70C-67.04,-332.06 -60.40,-338.05 -60.71,-349.93C-61.02,-361.81 -67.96,-367.70 -81.78,-367.34C-95.60,-366.98 -102.23,-360.75 -101.92,-348.87C-101.61,-336.99 -94.68,-331.35 -80.86,-331.70ZM-63.92,-314.67L-97.13,-313.82L-93.85,-186.79C-93.46,-171.52 -99.87,-166.01 -110.05,-165.75C-117.32,-165.56 -123.21,-168.08 -127.17,-171.13L-131.89,-147.24C-124.49,-142.58 -114.47,-139.92 -102.60,-140.23C-78.11,-140.86 -59.74,-152.74 -60.56,-184.50ZM84.87,-264.42C84.03,-296.91 62.32,-320.36 25.71,-319.42C-10.41,-318.48 -35.02,-294.56 -33.99,-254.80C-32.97,-215.05 -7.64,-192.41 30.66,-193.40C55.39,-194.04 76.20,-205.49 83.46,-224.85L56.78,-234.34C52.18,-224.52 44.09,-218.49 29.78,-218.12C13.06,-217.69 1.92,-226.38 -1.24,-245.22L84.33,-247.43C84.71,-251.80 85.03,-257.88 84.87,-264.42ZM26.10,-294.92C41.13,-295.31 50.58,-286.34 52.71,-269.66L-1.59,-268.25C1.11,-285.55 10.83,-294.53 26.10,-294.92ZM166.56,-323.05C129.95,-322.11 105.34,-298.18 106.37,-258.43C107.39,-218.67 132.96,-196.04 170.78,-197.02C200.84,-197.80 220.09,-213.33 224.87,-235.05L194.56,-243.97C192.25,-230.08 184.20,-222.11 169.90,-221.74C151.72,-221.27 140.26,-233.10 139.59,-259.04C138.93,-284.50 149.01,-297.86 167.68,-298.34C180.77,-298.68 188.96,-291.37 192.25,-276.90L222.99,-288.85C216.66,-308.58 199.04,-323.89 166.56,-323.05ZM329.22,-233.13C324.25,-228.64 318.73,-226.07 310.49,-225.86C300.07,-225.59 293.63,-230.52 293.33,-242.15L291.86,-299.12L330.65,-300.12L330.01,-324.85L291.22,-323.85L290.26,-360.94L257.29,-350.87L258.01,-322.99L235.71,-322.41L236.35,-297.69L258.65,-298.26L260.26,-235.96C260.95,-209.30 277.93,-199.79 302.42,-200.42C315.26,-200.75 327.29,-204.70 335.13,-211.21ZM-619.76,-17.47L-681.58,-15.87L-677.44,144.13L-615.63,142.53C-565.45,141.23 -537.59,111.65 -538.91,60.50C-540.23,9.35 -569.58,-18.76 -619.76,-17.47ZM-618.01,115.91L-644.68,116.60L-647.43,9.93L-620.77,9.24C-590.22,8.45 -574.46,26.97 -573.57,61.39C-572.68,95.81 -587.47,115.12 -618.01,115.91ZM-506.54,139.71L-473.33,138.85L-474.95,76.07C-475.51,54.25 -460.99,43.44 -446.21,43.06C-438.69,42.87 -434.55,43.49 -431.13,44.61L-427.97,16.63C-430.92,15.01 -435.79,14.17 -441.13,14.31C-460.04,14.79 -472.16,24.57 -478.03,41.46L-480.82,17.76L-509.67,18.50ZM-293.98,113.84C-299.80,113.99 -302.78,111.16 -302.94,104.86L-304.21,55.65C-304.98,25.83 -326.71,11.35 -358.46,12.17C-389.98,12.98 -408.04,27.52 -413.06,49.00L-384.47,56.99C-380.72,42.58 -371.17,36.76 -359.29,36.45C-346.44,36.12 -337.50,44.13 -337.15,57.95L-337.03,62.56L-378.50,72.12C-400.21,77.05 -411.79,88.99 -411.32,106.93C-410.77,128.26 -395.21,139.26 -370.48,138.62C-355.21,138.23 -339.85,131.52 -332.39,120.17C-328.45,131.47 -317.16,136.76 -303.34,136.65C-296.79,136.48 -291.49,135.13 -287.66,133.09L-286.25,112.43C-288.42,113.22 -291.31,113.78 -293.98,113.84ZM-362.60,114.89C-371.09,115.11 -377.99,110.92 -378.19,102.92C-378.41,94.44 -372.91,91.38 -361.82,88.91L-336.49,83.16L-336.30,90.68C-335.84,108.38 -348.78,114.53 -362.60,114.89ZM-111.86,8.23L-133.46,101.69L-163.01,9.55L-195.98,10.40L-220.49,103.94L-247.13,11.72L-282.52,12.63L-240.60,132.84L-202.30,131.85L-178.98,48.77L-150.43,130.51L-112.12,129.52L-76.47,7.31ZM8.35,-33.69L-53.47,-32.10L-49.34,127.90L12.48,126.30C62.66,125.01 90.52,95.42 89.20,44.27C87.88,-6.88 58.53,-34.99 8.35,-33.69ZM10.09,99.68L-16.57,100.37L-19.33,-6.29L7.34,-6.98C37.88,-7.77 53.65,10.74 54.53,45.17C55.42,79.59 40.64,98.89 10.09,99.68ZM173.65,-1.57C137.04,-0.63 112.20,23.54 113.22,63.06C114.24,102.57 140.30,125.43 176.90,124.48C213.51,123.54 238.36,99.37 237.33,59.85C236.31,20.34 210.25,-2.52 173.65,-1.57ZM174.29,23.15C192.22,22.69 203.22,35.02 203.88,60.72C204.54,86.41 194.20,99.29 176.26,99.76C158.08,100.23 147.09,87.90 146.43,62.20C145.76,36.50 156.10,23.62 174.29,23.15ZM420.01,-5.51L398.41,87.95L368.86,-4.19L335.89,-3.34L311.38,90.20L284.74,-2.02L249.34,-1.10L291.26,119.10L329.56,118.11L352.89,35.03L381.44,116.77L419.74,115.78L455.40,-6.43ZM548.18,-11.25C529.52,-10.77 514.70,-2.14 507.62,15.03L505.82,-7.73L476.01,-6.96L479.14,114.25L512.35,113.39L510.69,49.15C510.06,24.91 523.65,15.58 537.47,15.23C550.07,14.90 559.46,21.45 559.99,42.06L561.80,112.12L595.01,111.26L592.96,31.74C592.20,2.41 573.40,-11.90 548.18,-11.25Z" fill="#ffffff" stroke="#000000"/>
    <path d="M-435.83,-333.67L-502.27,-331.39L-496.81,-173.08L-463.71,-174.22L-465.65,-230.35L-432.31,-231.49C-396.09,-232.74 -374.67,-252.45 -375.78,-284.59C-376.89,-316.73 -399.61,-334.92 -435.83,-333.67ZM-438.24,-257.47L-466.55,-256.49L-468.27,-306.38L-439.96,-307.36C-420.05,-308.04 -409.93,-299.99 -409.36,-283.44C-408.79,-266.89 -418.34,-258.15 -438.24,-257.47ZM-345.22,-178.30L-312.36,-179.43L-314.50,-241.56C-315.25,-263.14 -300.97,-273.96 -286.34,-274.47C-278.90,-274.72 -274.80,-274.14 -271.40,-273.06L-268.51,-300.77C-271.45,-302.35 -276.28,-303.15 -281.56,-302.97C-300.27,-302.32 -312.18,-292.55 -317.84,-275.78L-320.81,-299.21L-349.35,-298.23ZM-193.53,-306.00C-229.75,-304.75 -254.13,-280.62 -252.78,-241.52C-251.44,-202.42 -225.45,-180.03 -189.23,-181.27C-153.01,-182.52 -128.63,-206.65 -129.98,-245.75C-131.32,-284.85 -157.31,-307.25 -193.53,-306.00ZM-192.69,-281.53C-174.94,-282.14 -163.95,-270.04 -163.08,-244.61C-162.20,-219.19 -172.33,-206.35 -190.08,-205.74C-208.06,-205.12 -219.05,-217.23 -219.92,-242.65C-220.80,-268.08 -210.68,-280.91 -192.69,-281.53ZM-88.50,-324.51C-74.83,-324.98 -68.31,-330.96 -68.72,-342.72C-69.12,-354.47 -76.05,-360.24 -89.72,-359.76C-103.39,-359.29 -109.90,-353.07 -109.50,-341.31C-109.09,-329.56 -102.18,-324.03 -88.50,-324.51ZM-71.60,-307.80L-104.46,-306.67L-100.13,-180.98C-99.61,-165.87 -105.90,-160.37 -115.98,-160.02C-123.17,-159.77 -129.02,-162.21 -132.97,-165.20L-137.43,-141.51C-130.07,-136.96 -120.14,-134.42 -108.39,-134.83C-84.16,-135.66 -66.08,-147.57 -67.16,-178.99ZM76.08,-259.33C74.97,-291.47 53.28,-314.50 17.07,-313.25C-18.67,-312.02 -42.82,-288.14 -41.47,-248.80C-40.11,-209.46 -14.86,-187.28 23.04,-188.59C47.51,-189.43 68.00,-200.94 75.03,-220.15L48.53,-229.33C44.07,-219.57 36.11,-213.53 21.96,-213.04C5.41,-212.47 -5.69,-220.98 -8.97,-239.59L75.70,-242.51C76.03,-246.84 76.30,-252.86 76.08,-259.33ZM17.66,-289.02C32.53,-289.53 41.96,-280.73 44.21,-264.24L-9.52,-262.39C-6.99,-279.53 2.55,-288.50 17.66,-289.02ZM156.42,-318.05C120.20,-316.81 96.05,-292.92 97.41,-253.58C98.76,-214.25 124.26,-192.07 161.68,-193.36C191.42,-194.39 210.34,-209.93 214.88,-231.45L184.81,-240.02C182.64,-226.26 174.75,-218.31 160.60,-217.82C142.61,-217.20 131.16,-228.81 130.28,-254.48C129.41,-279.66 139.28,-292.97 157.75,-293.60C170.70,-294.05 178.87,-286.89 182.24,-272.60L212.57,-284.69C206.13,-304.16 188.56,-319.16 156.42,-318.05ZM318.18,-230.45C313.29,-225.96 307.85,-223.37 299.70,-223.09C289.38,-222.73 282.97,-227.56 282.58,-239.07L280.64,-295.44L319.01,-296.76L318.17,-321.22L279.79,-319.90L278.53,-356.60L245.98,-346.35L246.93,-318.77L224.87,-318.01L225.71,-293.54L247.78,-294.30L249.90,-232.66C250.81,-206.28 267.70,-197.01 291.92,-197.85C304.63,-198.28 316.50,-202.30 324.20,-208.80ZM-619.15,-8.93L-680.32,-6.82L-674.87,151.48L-613.70,149.38C-564.05,147.67 -536.73,118.15 -538.47,67.54C-540.22,16.93 -569.50,-10.64 -619.15,-8.93ZM-616.29,123.05L-642.67,123.96L-646.31,18.42L-619.92,17.51C-589.70,16.47 -573.95,34.66 -572.77,68.72C-571.60,102.78 -586.07,122.01 -616.29,123.05ZM-505.77,145.66L-472.90,144.53L-475.04,82.40C-475.79,60.82 -461.51,50.00 -446.88,49.49C-439.45,49.24 -435.34,49.82 -431.94,50.90L-429.06,23.18C-431.99,21.60 -436.82,20.81 -442.10,20.99C-460.81,21.64 -472.72,31.41 -478.38,48.18L-481.35,24.75L-509.90,25.73ZM-295.62,118.25C-301.38,118.45 -304.36,115.67 -304.57,109.43L-306.25,60.74C-307.27,31.24 -328.89,17.09 -360.31,18.17C-391.49,19.25 -409.24,33.79 -414.03,55.09L-385.67,62.75C-382.08,48.46 -372.67,42.62 -360.92,42.21C-348.21,41.77 -339.29,49.63 -338.82,63.30L-338.66,67.86L-379.63,77.68C-401.07,82.74 -412.43,94.65 -411.81,112.40C-411.09,133.51 -395.59,144.26 -371.12,143.42C-356.01,142.90 -340.88,136.14 -333.58,124.84C-329.59,135.99 -318.37,141.12 -304.69,140.89C-298.21,140.67 -292.98,139.29 -289.21,137.24L-287.99,116.78C-290.12,117.58 -292.99,118.16 -295.62,118.25ZM-363.53,119.87C-371.92,120.16 -378.79,116.07 -379.06,108.15C-379.35,99.76 -373.93,96.69 -362.97,94.15L-337.96,88.25L-337.71,95.68C-337.10,113.19 -349.86,119.40 -363.53,119.87ZM-116.29,12.17L-136.87,104.85L-166.90,13.91L-199.52,15.04L-222.98,107.82L-250.13,16.78L-285.15,17.99L-242.64,136.59L-204.74,135.29L-182.37,52.87L-153.41,133.52L-115.52,132.22L-81.27,10.96ZM2.32,-30.34L-58.85,-28.23L-53.39,130.08L7.77,127.97C57.42,126.26 84.74,96.74 83.00,46.13C81.25,-4.48 51.97,-32.05 2.32,-30.34ZM5.18,101.64L-21.20,102.55L-24.84,-2.99L1.55,-3.90C31.77,-4.94 47.52,13.25 48.70,47.31C49.87,81.37 35.40,100.60 5.18,101.64ZM166.18,0.04C129.96,1.29 105.58,25.42 106.92,64.52C108.27,103.61 134.26,126.01 170.48,124.77C206.69,123.52 231.08,99.38 229.73,60.29C228.38,21.19 202.40,-1.21 166.18,0.04ZM167.02,24.50C184.77,23.89 195.76,36.00 196.63,61.43C197.51,86.85 187.38,99.69 169.63,100.30C151.64,100.92 140.66,88.81 139.78,63.39C138.91,37.96 149.03,25.12 167.02,24.50ZM409.96,-5.96L389.38,86.73L359.35,-4.21L326.73,-3.09L303.27,89.69L276.12,-1.35L241.10,-0.14L283.61,118.47L321.50,117.16L343.88,34.74L372.83,115.39L410.73,114.09L444.98,-7.16ZM536.76,-12.73C518.29,-12.09 503.70,-3.42 496.84,13.62L494.87,-8.88L465.37,-7.87L469.50,112.06L502.36,110.93L500.17,47.37C499.34,23.38 512.71,14.04 526.38,13.57C538.85,13.14 548.20,19.54 548.90,39.93L551.29,109.25L584.15,108.11L581.44,29.44C580.44,0.42 561.71,-13.59 536.76,-12.73Z" fill="#ffffff" stroke="#000000"/>
    <path d="M-439.68,-323.38L-505.41,-320.55L-498.67,-163.95L-465.92,-165.36L-468.31,-220.88L-435.33,-222.30C-399.50,-223.84 -378.48,-243.53 -379.85,-275.32C-381.22,-307.12 -403.85,-324.92 -439.68,-323.38ZM-441.43,-247.95L-469.43,-246.74L-471.55,-296.10L-443.55,-297.30C-423.86,-298.15 -413.77,-290.26 -413.07,-273.89C-412.36,-257.52 -421.73,-248.80 -441.43,-247.95ZM-348.71,-170.40L-316.20,-171.80L-318.84,-233.26C-319.76,-254.61 -305.73,-265.44 -291.26,-266.06C-283.90,-266.38 -279.84,-265.84 -276.46,-264.80L-273.84,-292.25C-276.76,-293.79 -281.55,-294.53 -286.77,-294.31C-305.27,-293.51 -316.98,-283.74 -322.44,-267.10L-325.58,-290.26L-353.81,-289.04ZM-199.68,-298.06C-235.51,-296.52 -259.44,-272.43 -257.77,-233.75C-256.11,-195.07 -230.20,-173.13 -194.37,-174.67C-158.54,-176.22 -134.62,-200.31 -136.28,-238.98C-137.95,-277.66 -163.86,-299.60 -199.68,-298.06ZM-198.64,-273.86C-181.08,-274.61 -170.11,-262.72 -169.03,-237.57C-167.95,-212.42 -177.85,-199.63 -195.41,-198.88C-213.21,-198.11 -224.18,-210.00 -225.26,-235.15C-226.35,-260.30 -216.44,-273.09 -198.64,-273.86ZM-95.92,-317.27C-82.39,-317.85 -75.99,-323.83 -76.49,-335.46C-76.99,-347.08 -83.89,-352.73 -97.42,-352.15C-110.94,-351.56 -117.33,-345.35 -116.83,-333.72C-116.33,-322.09 -109.44,-316.68 -95.92,-317.27ZM-79.04,-300.88L-111.55,-299.48L-106.20,-175.14C-105.55,-160.19 -111.73,-154.70 -121.70,-154.27C-128.82,-153.96 -134.63,-156.33 -138.56,-159.25L-142.77,-135.77C-135.45,-131.33 -125.60,-128.90 -113.97,-129.40C-90.01,-130.44 -72.22,-142.37 -73.56,-173.46ZM67.50,-254.18C66.13,-285.97 44.48,-308.57 8.65,-307.03C-26.71,-305.51 -50.40,-281.67 -48.73,-242.75C-47.05,-203.84 -21.87,-182.10 15.62,-183.72C39.82,-184.76 60.01,-196.33 66.79,-215.40L40.50,-224.25C36.16,-214.55 28.34,-208.51 14.34,-207.91C-2.03,-207.20 -13.09,-215.52 -16.49,-233.92L67.27,-237.53C67.56,-241.82 67.78,-247.77 67.50,-254.18ZM9.44,-283.06C24.15,-283.69 33.56,-275.06 35.92,-258.76L-17.23,-256.47C-14.87,-273.45 -5.51,-282.41 9.44,-283.06ZM146.51,-312.97C110.68,-311.43 86.98,-287.58 88.66,-248.67C90.33,-209.76 115.75,-188.03 152.77,-189.62C182.19,-190.89 200.78,-206.43 205.09,-227.77L175.26,-236.00C173.23,-222.36 165.49,-214.42 151.49,-213.82C133.69,-213.05 122.27,-224.44 121.17,-249.83C120.10,-274.75 129.75,-288.00 148.02,-288.79C160.84,-289.34 168.98,-282.32 172.44,-268.21L202.35,-280.43C195.81,-299.64 178.30,-314.34 146.51,-312.97ZM307.31,-227.66C302.51,-223.17 297.16,-220.57 289.09,-220.22C278.89,-219.78 272.51,-224.50 272.01,-235.89L269.61,-291.65L307.58,-293.28L306.54,-317.48L268.57,-315.85L267.01,-352.15L234.89,-341.74L236.06,-314.45L214.23,-313.51L215.28,-289.31L237.11,-290.25L239.73,-229.27C240.86,-203.16 257.65,-194.14 281.61,-195.17C294.19,-195.71 305.90,-199.78 313.46,-206.29ZM-618.33,-0.47L-678.84,2.14L-672.09,158.74L-611.59,156.13C-562.47,154.02 -535.69,124.58 -537.84,74.51C-540.00,24.45 -569.21,-2.59 -618.33,-0.47ZM-614.37,130.11L-640.47,131.23L-644.97,26.83L-618.87,25.70C-588.97,24.41 -573.22,42.28 -571.77,75.97C-570.32,109.67 -584.47,128.82 -614.37,130.11ZM-504.81,151.54L-472.30,150.14L-474.95,88.68C-475.87,67.33 -461.83,56.50 -447.36,55.88C-440.00,55.56 -435.94,56.10 -432.57,57.14L-429.95,29.69C-432.86,28.15 -437.65,27.41 -442.87,27.63C-461.38,28.43 -473.08,38.20 -478.55,54.84L-481.68,31.68L-509.92,32.90ZM-297.10,122.62C-302.79,122.87 -305.76,120.14 -306.03,113.97L-308.10,65.81C-309.36,36.62 -330.88,22.81 -361.96,24.15C-392.81,25.48 -410.25,40.01 -414.80,61.13L-386.67,68.48C-383.24,54.30 -373.99,48.44 -362.36,47.94C-349.78,47.39 -340.90,55.09 -340.31,68.62L-340.12,73.13L-380.57,83.19C-401.74,88.38 -412.88,100.27 -412.12,117.83C-411.22,138.71 -395.80,149.22 -371.59,148.18C-356.64,147.53 -341.72,140.71 -334.60,129.47C-330.56,140.47 -319.41,145.45 -305.88,145.11C-299.47,144.83 -294.30,143.42 -290.59,141.36L-289.56,121.11C-291.66,121.91 -294.49,122.51 -297.10,122.62ZM-364.28,124.80C-372.58,125.16 -379.41,121.18 -379.75,113.34C-380.11,105.04 -374.77,101.96 -363.95,99.35L-339.25,93.30L-338.93,100.65C-338.19,117.97 -350.75,124.22 -364.28,124.80ZM-120.54,16.13L-140.12,108.02L-170.61,18.28L-202.88,19.67L-225.30,111.69L-252.95,21.83L-287.59,23.32L-244.51,140.33L-207.02,138.71L-185.58,56.96L-156.25,136.52L-118.76,134.91L-85.90,14.63ZM-3.54,-26.95L-64.04,-24.34L-57.30,132.26L3.21,129.66C52.32,127.54 79.11,98.10 76.95,48.03C74.79,-2.03 45.58,-29.06 -3.54,-26.95ZM0.42,103.63L-25.68,104.75L-30.18,0.35L-4.07,-0.78C25.82,-2.06 41.57,15.80 43.02,49.49C44.47,83.19 30.32,102.34 0.42,103.63ZM158.87,1.72C123.04,3.26 99.12,27.35 100.78,66.02C102.45,104.70 128.36,126.64 164.18,125.10C200.01,123.56 223.94,99.47 222.27,60.79C220.61,22.12 194.70,0.17 158.87,1.72ZM159.91,25.92C177.47,25.16 188.44,37.05 189.53,62.20C190.61,87.35 180.70,100.14 163.14,100.90C145.35,101.67 134.37,89.78 133.29,64.62C132.21,39.47 142.12,26.68 159.91,25.92ZM400.05,-6.29L380.47,85.60L349.98,-4.14L317.71,-2.75L295.29,89.26L267.65,-0.59L233.00,0.90L276.08,117.91L313.57,116.29L335.01,34.54L364.35,114.10L401.84,112.49L434.69,-7.79ZM525.47,-14.07C507.20,-13.29 492.83,-4.58 486.19,12.34L484.05,-9.91L454.86,-8.65L459.97,109.99L492.48,108.59L489.77,45.71C488.75,21.98 501.90,12.62 515.42,12.03C527.76,11.50 537.06,17.76 537.93,37.93L540.88,106.50L573.39,105.10L570.04,27.27C568.80,-1.44 550.15,-15.14 525.47,-14.07Z" fill="#ffffff" stroke="#000000"/>
    <path d="M-443.28,-313.11L-508.29,-309.75L-500.28,-154.86L-467.90,-156.53L-470.73,-211.45L-438.11,-213.14C-402.68,-214.97 -382.04,-234.62 -383.67,-266.07C-385.29,-297.52 -407.84,-314.94 -443.28,-313.11ZM-444.36,-238.46L-472.06,-237.03L-474.58,-285.85L-446.89,-287.28C-427.41,-288.28 -417.36,-280.57 -416.52,-264.37C-415.69,-248.18 -424.88,-239.47 -444.36,-238.46ZM-351.96,-162.53L-319.81,-164.19L-322.95,-224.97C-324.04,-246.09 -310.25,-256.93 -295.93,-257.67C-288.66,-258.04 -284.63,-257.54 -281.28,-256.54L-278.92,-283.72C-281.83,-285.22 -286.57,-285.92 -291.73,-285.65C-310.04,-284.70 -321.53,-274.93 -326.80,-258.42L-330.10,-281.31L-358.03,-279.87ZM-205.60,-290.10C-241.04,-288.27 -264.50,-264.23 -262.53,-225.98C-260.55,-187.72 -234.73,-166.23 -199.29,-168.07C-163.85,-169.90 -140.39,-193.94 -142.37,-232.19C-144.34,-270.44 -170.16,-291.93 -205.60,-290.10ZM-204.36,-266.16C-187.00,-267.06 -176.04,-255.39 -174.75,-230.52C-173.47,-205.64 -183.16,-192.90 -200.53,-192.00C-218.13,-191.09 -229.09,-202.76 -230.37,-227.64C-231.66,-252.52 -221.97,-265.25 -204.36,-266.16ZM-103.09,-309.99C-89.71,-310.68 -83.43,-316.65 -84.03,-328.15C-84.62,-339.65 -91.50,-345.18 -104.87,-344.49C-118.25,-343.80 -124.52,-337.59 -123.93,-326.09C-123.33,-314.59 -116.47,-309.30 -103.09,-309.99ZM-86.26,-293.92L-118.41,-292.26L-112.05,-169.28C-111.29,-154.50 -117.36,-149.00 -127.22,-148.50C-134.26,-148.13 -140.02,-150.42 -143.94,-153.28L-147.91,-130.01C-140.63,-125.68 -130.86,-123.36 -119.36,-123.96C-95.66,-125.18 -78.15,-137.15 -79.74,-167.89ZM59.14,-248.96C57.51,-280.41 35.89,-302.59 0.45,-300.75C-34.51,-298.95 -57.76,-275.16 -55.77,-236.67C-53.78,-198.18 -28.68,-176.89 8.41,-178.80C32.34,-180.04 52.22,-191.66 58.77,-210.58L32.68,-219.12C28.47,-209.49 20.78,-203.44 6.93,-202.73C-9.26,-201.89 -20.27,-210.03 -23.80,-228.20L59.05,-232.48C59.30,-236.73 59.46,-242.62 59.14,-248.96ZM1.44,-277.04C15.99,-277.79 25.37,-269.33 27.85,-253.23L-24.72,-250.51C-22.53,-267.33 -13.34,-276.27 1.44,-277.04ZM136.81,-307.80C101.37,-305.97 78.13,-282.18 80.12,-243.69C82.11,-205.20 107.44,-183.92 144.05,-185.81C173.16,-187.32 191.41,-202.85 195.50,-224.01L165.91,-231.89C164.02,-218.38 156.43,-210.46 142.58,-209.74C124.98,-208.83 113.58,-220.01 112.28,-245.12C111.01,-269.76 120.44,-282.96 138.51,-283.89C151.19,-284.54 159.31,-277.67 162.85,-263.73L192.33,-276.08C185.71,-295.04 168.25,-309.43 136.81,-307.80ZM296.64,-224.76C291.93,-220.29 286.66,-217.66 278.68,-217.25C268.58,-216.73 262.23,-221.34 261.65,-232.60L258.79,-287.75L296.34,-289.70L295.11,-313.63L257.56,-311.69L255.70,-347.60L224.01,-337.02L225.40,-310.03L203.81,-308.91L205.05,-284.98L226.64,-286.09L229.76,-225.78C231.09,-199.96 247.79,-191.18 271.49,-192.40C283.93,-193.05 295.48,-197.17 302.91,-203.67ZM-617.29,7.91L-677.13,11.00L-669.13,165.90L-609.28,162.80C-560.70,160.29 -534.45,130.93 -537.01,81.41C-539.57,31.89 -568.71,5.40 -617.29,7.91ZM-612.26,137.07L-638.08,138.41L-643.41,35.14L-617.60,33.81C-588.03,32.28 -572.30,49.82 -570.57,83.15C-568.85,116.47 -582.69,135.54 -612.26,137.07ZM-503.67,157.34L-471.52,155.68L-474.66,94.90C-475.76,73.78 -461.96,62.94 -447.65,62.20C-440.37,61.83 -436.34,62.33 -433.00,63.33L-430.64,36.15C-433.54,34.65 -438.28,33.95 -443.44,34.22C-461.75,35.17 -473.25,44.94 -478.51,61.45L-481.81,38.56L-509.74,40.00ZM-298.40,126.96C-304.04,127.26 -307.00,124.59 -307.31,118.48L-309.78,70.84C-311.27,41.98 -332.67,28.49 -363.42,30.08C-393.93,31.66 -411.06,46.19 -415.39,67.12L-387.49,74.15C-384.22,60.10 -375.11,54.22 -363.61,53.62C-351.17,52.98 -342.31,60.52 -341.62,73.90L-341.39,78.36L-381.33,88.66C-402.23,93.98 -413.15,105.84 -412.25,123.20C-411.19,143.86 -395.83,154.12 -371.89,152.88C-357.11,152.12 -342.40,145.24 -335.45,134.06C-331.36,144.91 -320.29,149.74 -306.90,149.29C-300.56,148.96 -295.46,147.52 -291.80,145.45L-290.95,125.40C-293.03,126.22 -295.82,126.83 -298.40,126.96ZM-364.86,129.69C-373.07,130.12 -379.86,126.23 -380.26,118.49C-380.68,110.28 -375.43,107.18 -364.75,104.51L-340.36,98.31L-339.98,105.58C-339.10,122.72 -351.48,129.00 -364.86,129.69ZM-124.62,20.09L-143.21,111.18L-174.14,22.65L-206.06,24.30L-227.46,115.53L-255.57,26.86L-289.84,28.63L-246.22,144.03L-209.14,142.12L-188.62,61.05L-158.92,139.52L-121.84,137.60L-90.35,18.32ZM-9.22,-23.53L-69.06,-20.43L-61.05,134.46L-1.21,131.37C47.37,128.86 73.62,99.50 71.06,49.98C68.50,0.46 39.36,-26.04 -9.22,-23.53ZM-4.19,105.64L-30.00,106.97L-35.34,3.71L-9.53,2.37C20.05,0.85 35.78,18.39 37.50,51.71C39.22,85.04 25.38,104.11 -4.19,105.64ZM151.72,3.45C116.28,5.28 92.82,29.32 94.80,67.58C96.77,105.83 122.59,127.32 158.03,125.49C193.47,123.66 216.93,99.62 214.95,61.36C212.98,23.11 187.16,1.62 151.72,3.45ZM152.96,27.39C170.32,26.49 181.28,38.16 182.57,63.04C183.85,87.92 174.16,100.65 156.79,101.55C139.19,102.46 128.23,90.79 126.95,65.91C125.66,41.04 135.36,28.30 152.96,27.39ZM390.28,-6.53L371.70,84.56L340.76,-3.97L308.85,-2.32L287.44,88.91L259.33,0.24L225.06,2.01L268.68,117.42L305.76,115.50L326.28,34.43L355.98,112.90L393.06,110.99L424.55,-8.30ZM514.31,-15.29C496.24,-14.36 482.10,-5.63 475.68,11.18L473.36,-10.82L444.50,-9.33L450.56,108.01L482.71,106.35L479.50,44.16C478.29,20.69 491.21,11.32 504.59,10.62C516.80,9.99 526.05,16.10 527.08,36.05L530.59,103.88L562.74,102.21L558.76,25.24C557.30,-3.16 538.72,-16.55 514.31,-15.29Z" fill="#ffffff" stroke="#000000"/>
    <path d="M-446.62,-302.87L-510.90,-299.00L-501.66,-145.82L-469.64,-147.76L-472.91,-202.06L-440.65,-204.01C-405.61,-206.12 -385.36,-225.75 -387.24,-256.84C-389.12,-287.94 -411.57,-304.99 -446.62,-302.87ZM-447.05,-229.01L-474.44,-227.36L-477.35,-275.63L-449.97,-277.28C-430.70,-278.45 -420.70,-270.90 -419.73,-254.88C-418.77,-238.87 -427.79,-230.17 -447.05,-229.01ZM-354.99,-154.67L-323.19,-156.59L-326.82,-216.70C-328.08,-237.59 -314.53,-248.42 -300.37,-249.27C-293.17,-249.71 -289.19,-249.25 -285.87,-248.29L-283.77,-275.20C-286.65,-276.65 -291.35,-277.30 -296.45,-277.00C-314.55,-275.90 -325.84,-266.14 -330.91,-249.76L-334.37,-272.38L-361.99,-270.71ZM-211.28,-282.13C-246.32,-280.02 -269.33,-256.04 -267.05,-218.21C-264.77,-180.38 -239.04,-159.34 -204.00,-161.45C-168.95,-163.57 -145.94,-187.55 -148.23,-225.38C-150.51,-263.21 -176.24,-284.25 -211.28,-282.13ZM-209.85,-258.46C-192.68,-259.50 -181.74,-248.05 -180.25,-223.45C-178.77,-198.85 -188.25,-186.16 -205.43,-185.12C-222.83,-184.07 -233.77,-195.53 -235.26,-220.13C-236.74,-244.73 -227.26,-257.41 -209.85,-258.46ZM-110.03,-302.68C-96.80,-303.48 -90.64,-309.44 -91.33,-320.81C-92.01,-332.19 -98.86,-337.60 -112.09,-336.80C-125.32,-336.00 -131.47,-329.81 -130.78,-318.43C-130.10,-307.06 -123.26,-301.88 -110.03,-302.68ZM-93.24,-286.93L-125.04,-285.01L-117.70,-163.40C-116.82,-148.78 -122.78,-143.29 -132.52,-142.71C-139.49,-142.29 -145.21,-144.50 -149.11,-147.30L-152.84,-124.24C-145.60,-120.02 -135.91,-117.81 -124.54,-118.50C-101.10,-119.91 -83.89,-131.90 -85.72,-162.30ZM50.98,-243.69C49.11,-274.78 27.53,-296.54 -7.51,-294.43C-42.09,-292.34 -64.89,-268.60 -62.59,-230.54C-60.29,-192.48 -35.28,-171.63 1.39,-173.84C25.06,-175.27 44.62,-186.93 50.94,-205.72L25.06,-213.94C20.98,-204.37 13.42,-198.33 -0.27,-197.50C-16.28,-196.54 -27.24,-204.49 -30.89,-222.44L51.03,-227.38C51.25,-231.59 51.36,-237.42 50.98,-243.69ZM-6.33,-270.97C8.06,-271.84 17.41,-263.55 20.00,-247.64L-31.99,-244.50C-29.96,-261.16 -20.95,-270.09 -6.33,-270.97ZM127.32,-302.56C92.28,-300.45 69.49,-276.71 71.78,-238.65C74.08,-200.59 99.33,-179.75 135.53,-181.94C164.31,-183.67 182.24,-199.20 186.10,-220.16L156.76,-227.71C155.01,-214.32 147.56,-206.42 133.87,-205.60C116.47,-204.54 105.09,-215.50 103.59,-240.34C102.12,-264.71 111.35,-277.84 129.22,-278.92C141.75,-279.67 149.84,-272.94 153.47,-259.18L182.53,-271.65C175.81,-290.35 158.42,-304.44 127.32,-302.56ZM286.16,-221.77C281.54,-217.30 276.34,-214.66 268.45,-214.18C258.47,-213.58 252.14,-218.09 251.47,-229.23L248.18,-283.77L285.31,-286.01L283.88,-309.68L246.75,-307.44L244.61,-342.95L213.35,-332.21L214.96,-305.52L193.61,-304.23L195.03,-280.56L216.38,-281.85L219.98,-222.20C221.52,-196.67 238.11,-188.13 261.55,-189.54C273.85,-190.28 285.24,-194.46 292.54,-200.96ZM-616.03,16.20L-675.21,19.77L-665.97,172.94L-606.79,169.37C-558.75,166.48 -533.03,137.21 -535.99,88.24C-538.94,39.27 -567.99,13.30 -616.03,16.20ZM-609.96,143.94L-635.49,145.48L-641.65,43.37L-616.12,41.83C-586.88,40.07 -571.16,57.29 -569.18,90.24C-567.19,123.20 -580.72,142.18 -609.96,143.94ZM-502.36,163.07L-470.56,161.16L-474.19,101.05C-475.45,80.16 -461.90,69.33 -447.74,68.47C-440.54,68.04 -436.56,68.50 -433.24,69.46L-431.14,42.55C-434.02,41.09 -438.72,40.44 -443.82,40.75C-461.92,41.84 -473.21,51.61 -478.28,67.99L-481.74,45.37L-509.36,47.03ZM-299.54,131.27C-305.11,131.61 -308.06,128.99 -308.43,122.96L-311.27,75.85C-312.99,47.30 -334.28,34.14 -364.68,35.98C-394.85,37.80 -411.68,52.32 -415.78,73.07L-388.13,79.78C-385.01,65.85 -376.05,59.95 -364.68,59.27C-352.37,58.53 -343.54,65.91 -342.75,79.14L-342.48,83.55L-381.91,94.08C-402.54,99.52 -413.24,111.35 -412.21,128.52C-410.97,148.94 -395.69,158.97 -372.02,157.54C-357.40,156.66 -342.91,149.73 -336.13,138.60C-331.99,149.30 -320.99,154.00 -307.75,153.43C-301.49,153.05 -296.45,151.58 -292.85,149.50L-292.18,129.66C-294.23,130.49 -296.99,131.12 -299.54,131.27ZM-365.26,134.54C-373.38,135.03 -380.13,131.24 -380.59,123.58C-381.08,115.46 -375.91,112.35 -365.36,109.62L-341.29,103.28L-340.86,110.47C-339.83,127.41 -352.03,133.74 -365.26,134.54ZM-128.52,24.06L-146.13,114.33L-177.49,27.01L-209.05,28.92L-229.45,119.36L-258.02,31.87L-291.90,33.92L-247.77,147.71L-211.10,145.50L-191.49,65.13L-161.44,142.51L-124.77,140.29L-94.64,22.01ZM-14.72,-20.07L-73.90,-16.50L-64.66,136.67L-5.48,133.10C42.56,130.20 68.28,100.93 65.33,51.96C62.37,2.99 33.32,-22.97 -14.72,-20.07ZM-8.64,107.67L-34.17,109.21L-40.33,7.09L-14.81,5.55C14.44,3.79 30.15,21.01 32.14,53.96C34.13,86.92 20.60,105.90 -8.64,107.67ZM144.73,5.24C109.68,7.36 86.67,31.34 88.96,69.17C91.24,107.00 116.97,128.04 152.01,125.92C187.05,123.81 210.06,99.83 207.78,62.00C205.50,24.17 179.77,3.13 144.73,5.24ZM146.16,28.92C163.33,27.88 174.27,39.33 175.75,63.93C177.24,88.53 167.75,101.22 150.58,102.25C133.18,103.30 122.24,91.85 120.75,67.25C119.27,42.65 128.75,29.97 146.16,28.92ZM380.66,-6.66L363.05,83.61L331.69,-3.71L300.13,-1.80L279.73,88.64L251.16,1.15L217.28,3.20L261.41,116.99L298.08,114.78L317.69,34.41L347.74,111.79L384.41,109.57L414.54,-8.71ZM503.29,-16.39C485.42,-15.31 471.51,-6.55 465.29,10.13L462.82,-11.62L434.27,-9.90L441.27,106.14L473.07,104.23L469.35,42.72C467.95,19.52 480.67,10.13 493.89,9.33C505.96,8.61 515.17,14.57 516.36,34.30L520.41,101.37L552.20,99.45L547.61,23.33C545.92,-4.75 527.43,-17.84 503.29,-16.39Z" fill="#ffffff" stroke="#000000"/>
    <path d="M-449.70,-292.67L-513.25,-288.29L-502.81,-136.85L-471.14,-139.03L-474.85,-192.72L-442.95,-194.92C-408.31,-197.31 -388.45,-216.89 -390.57,-247.64C-392.69,-278.39 -415.05,-295.06 -449.70,-292.67ZM-449.50,-219.60L-476.57,-217.73L-479.86,-265.46L-452.79,-267.33C-433.74,-268.64 -423.78,-261.26 -422.69,-245.43C-421.60,-229.59 -430.45,-220.91 -449.50,-219.60ZM-357.79,-146.85L-326.36,-149.02L-330.46,-208.44C-331.88,-229.10 -318.56,-239.93 -304.57,-240.89C-297.46,-241.38 -293.51,-240.96 -290.22,-240.04L-288.36,-266.68C-291.23,-268.10 -295.88,-268.70 -300.93,-268.35C-318.83,-267.11 -329.91,-257.36 -334.79,-241.11L-338.40,-263.46L-365.71,-261.58ZM-216.72,-274.16C-251.37,-271.77 -273.92,-247.85 -271.34,-210.45C-268.76,-173.05 -243.14,-152.45 -208.49,-154.84C-173.84,-157.23 -151.28,-181.15 -153.86,-218.55C-156.44,-255.95 -182.07,-276.55 -216.72,-274.16ZM-215.10,-250.75C-198.12,-251.92 -187.21,-240.69 -185.53,-216.37C-183.85,-192.04 -193.12,-179.42 -210.10,-178.24C-227.31,-177.06 -238.23,-188.29 -239.91,-212.62C-241.59,-236.94 -232.31,-249.57 -215.10,-250.75ZM-116.74,-295.35C-103.66,-296.25 -97.62,-302.20 -98.39,-313.44C-99.17,-324.69 -105.99,-329.98 -119.07,-329.08C-132.15,-328.17 -138.17,-322.00 -137.40,-310.75C-136.62,-299.51 -129.82,-294.44 -116.74,-295.35ZM-100.00,-279.90L-131.43,-277.73L-123.14,-157.50C-122.14,-143.04 -127.99,-137.57 -137.63,-136.90C-144.51,-136.43 -150.19,-138.57 -154.07,-141.30L-157.57,-118.47C-150.37,-114.35 -140.77,-112.25 -129.52,-113.03C-106.35,-114.62 -89.43,-126.63 -91.50,-156.69ZM43.04,-238.36C40.92,-269.10 19.39,-290.44 -15.26,-288.05C-49.45,-285.69 -71.79,-262.02 -69.19,-224.39C-66.60,-186.76 -41.68,-166.35 -5.42,-168.85C17.98,-170.46 37.23,-182.16 43.33,-200.80L17.65,-208.71C13.69,-199.21 6.27,-193.17 -7.27,-192.24C-23.10,-191.14 -34.01,-198.92 -37.77,-216.64L43.23,-222.23C43.40,-226.39 43.47,-232.16 43.04,-238.36ZM-13.89,-264.86C0.34,-265.84 9.66,-257.73 12.36,-242.00L-39.04,-238.46C-37.18,-254.96 -28.34,-263.87 -13.89,-264.86ZM118.06,-297.25C83.41,-294.86 61.06,-271.18 63.66,-233.55C66.26,-195.92 91.41,-175.53 127.20,-177.99C155.66,-179.96 173.26,-195.47 176.90,-216.24L147.81,-223.45C146.19,-210.20 138.90,-202.32 125.36,-201.38C108.15,-200.20 96.80,-210.94 95.11,-235.49C93.45,-259.59 102.46,-272.66 120.13,-273.88C132.52,-274.73 140.58,-268.14 144.29,-254.56L172.93,-267.14C166.12,-285.58 148.80,-299.37 118.06,-297.25ZM275.87,-218.68C271.33,-214.22 266.21,-211.56 258.41,-211.02C248.55,-210.34 242.25,-214.75 241.49,-225.76L237.77,-279.68L274.48,-282.22L272.87,-305.62L236.15,-303.09L233.73,-338.20L202.90,-327.31L204.72,-300.92L183.61,-299.46L185.22,-276.06L206.33,-277.52L210.40,-218.55C212.14,-193.31 228.62,-184.99 251.80,-186.59C263.96,-187.43 275.19,-191.66 282.35,-198.15ZM-614.57,24.41L-673.08,28.44L-662.63,179.88L-604.12,175.85C-556.62,172.57 -531.43,143.40 -534.77,94.98C-538.11,46.57 -567.07,21.13 -614.57,24.41ZM-607.47,150.72L-632.71,152.46L-639.67,51.50L-614.43,49.76C-585.52,47.76 -569.83,64.66 -567.58,97.25C-565.34,129.83 -578.56,148.72 -607.47,150.72ZM-500.87,168.73L-469.43,166.56L-473.53,107.13C-474.96,86.48 -461.64,75.65 -447.64,74.68C-440.53,74.19 -436.58,74.61 -433.29,75.53L-431.44,48.89C-434.30,47.48 -438.95,46.88 -444.00,47.22C-461.90,48.46 -472.99,58.21 -477.86,74.46L-481.48,52.11L-508.78,54.00ZM-300.51,135.54C-306.01,135.92 -308.96,133.36 -309.37,127.39L-312.58,80.81C-314.53,52.59 -335.70,39.75 -365.76,41.83C-395.59,43.89 -412.11,58.40 -415.99,78.95L-388.58,85.36C-385.61,71.55 -376.80,65.64 -365.55,64.87C-353.39,64.03 -344.59,71.26 -343.69,84.34L-343.39,88.70L-382.30,99.45C-402.67,105.01 -413.15,116.80 -411.98,133.78C-410.59,153.97 -395.39,163.76 -371.98,162.14C-357.53,161.14 -343.26,154.17 -336.64,143.10C-332.46,153.65 -321.54,158.20 -308.44,157.53C-302.25,157.10 -297.28,155.60 -293.73,153.52L-293.24,133.89C-295.26,134.72 -297.98,135.37 -300.51,135.54ZM-365.49,139.33C-373.52,139.88 -380.23,136.20 -380.75,128.63C-381.31,120.59 -376.22,117.48 -365.81,114.68L-342.05,108.20L-341.55,115.32C-340.40,132.07 -352.41,138.43 -365.49,139.33ZM-132.24,28.03L-148.90,117.47L-180.66,31.37L-211.87,33.52L-231.27,123.16L-260.28,36.86L-293.78,39.17L-249.15,151.36L-212.90,148.86L-194.19,69.19L-163.80,145.48L-127.54,142.98L-98.74,25.72ZM-20.05,-16.60L-78.56,-12.56L-68.12,138.88L-9.60,134.84C37.89,131.56 63.09,102.39 59.75,53.98C56.41,5.56 27.45,-19.88 -20.05,-16.60ZM-12.95,109.71L-38.19,111.45L-45.16,10.49L-19.92,8.75C9.00,6.76 24.69,23.66 26.93,56.24C29.18,88.82 15.96,107.72 -12.95,109.71ZM137.89,7.09C103.25,9.48 80.69,33.40 83.27,70.80C85.85,108.20 111.48,128.79 146.12,126.40C180.77,124.01 203.33,100.10 200.75,62.69C198.17,25.29 172.54,4.70 137.89,7.09ZM139.51,30.49C156.49,29.32 167.41,40.56 169.09,64.88C170.76,89.20 161.49,101.83 144.51,103.00C127.30,104.19 116.38,92.95 114.70,68.63C113.03,44.31 122.30,31.68 139.51,30.49ZM371.18,-6.70L354.52,82.75L322.76,-3.36L291.56,-1.21L272.15,88.43L243.14,2.13L209.64,4.44L254.27,116.64L290.52,114.14L309.23,34.46L339.63,110.75L375.88,108.25L404.68,-9.01ZM492.40,-17.36C474.73,-16.15 461.05,-7.36 455.04,9.19L452.41,-12.30L424.18,-10.35L432.10,104.37L463.53,102.21L459.34,41.40C457.75,18.45 470.25,9.06 483.33,8.16C495.26,7.34 504.42,13.16 505.77,32.66L510.34,98.98L541.78,96.81L536.58,21.55C534.67,-6.22 516.27,-19.01 492.40,-17.36Z" fill="#ffffff" stroke="#000000"/>
    <path d="M-452.51,-282.50L-515.34,-277.63L-503.72,-127.93L-472.42,-130.36L-476.54,-183.43L-445.01,-185.88C-410.76,-188.54 -391.29,-208.08 -393.65,-238.47C-396.01,-268.86 -418.27,-285.16 -452.51,-282.50ZM-451.70,-210.23L-478.46,-208.16L-482.12,-255.33L-455.36,-257.41C-436.53,-258.87 -426.62,-251.66 -425.40,-236.01C-424.19,-220.36 -432.87,-211.69 -451.70,-210.23ZM-360.37,-139.06L-329.30,-141.47L-333.86,-200.21C-335.44,-220.63 -322.37,-231.45 -308.53,-232.53C-301.50,-233.07 -297.59,-232.69 -294.33,-231.81L-292.72,-258.17C-295.57,-259.55 -300.17,-260.10 -305.16,-259.72C-322.86,-258.34 -333.74,-248.60 -338.42,-232.49L-342.19,-254.56L-369.18,-252.46ZM-221.92,-266.18C-256.17,-263.52 -278.28,-239.67 -275.41,-202.70C-272.54,-165.73 -247.02,-145.57 -212.77,-148.23C-178.52,-150.89 -156.41,-174.74 -159.28,-211.71C-162.15,-248.68 -187.67,-268.84 -221.92,-266.18ZM-220.13,-243.04C-203.34,-244.34 -192.45,-233.33 -190.58,-209.28C-188.71,-185.24 -197.78,-172.67 -214.56,-171.37C-231.57,-170.05 -242.47,-181.07 -244.34,-205.11C-246.20,-229.15 -237.14,-241.72 -220.13,-243.04ZM-123.21,-287.99C-110.29,-288.99 -104.36,-294.93 -105.22,-306.04C-106.08,-317.16 -112.87,-322.33 -125.80,-321.33C-138.73,-320.33 -144.64,-314.16 -143.78,-303.05C-142.92,-291.93 -136.14,-286.98 -123.21,-287.99ZM-106.52,-272.85L-137.60,-270.44L-128.37,-151.59C-127.26,-137.30 -133.00,-131.83 -142.52,-131.09C-149.33,-130.57 -154.97,-132.64 -158.82,-135.31L-162.09,-112.69C-154.93,-108.68 -145.42,-106.68 -134.31,-107.55C-111.40,-109.32 -94.76,-121.34 -97.07,-151.05ZM35.31,-232.98C32.95,-263.37 11.47,-284.30 -22.78,-281.64C-56.57,-279.01 -78.47,-255.41 -75.58,-218.21C-72.70,-181.01 -47.87,-161.03 -12.03,-163.82C11.10,-165.61 30.04,-177.35 35.91,-195.83L10.45,-203.44C6.62,-194.01 -0.67,-187.97 -14.06,-186.93C-29.71,-185.72 -40.56,-193.32 -44.43,-210.82L35.63,-217.03C35.77,-221.15 35.78,-226.86 35.31,-232.98ZM-21.22,-258.71C-7.16,-259.80 2.13,-251.85 4.93,-236.33L-45.88,-232.38C-44.18,-248.71 -35.51,-257.60 -21.22,-258.71ZM109.00,-291.87C74.76,-289.21 52.86,-265.60 55.74,-228.40C58.63,-191.21 83.68,-171.25 119.07,-173.99C147.19,-176.18 164.47,-191.66 167.90,-212.24L139.07,-219.13C137.58,-206.01 130.43,-198.15 117.05,-197.11C100.03,-195.79 88.72,-206.32 86.84,-230.59C84.99,-254.41 93.79,-267.41 111.25,-268.77C123.50,-269.72 131.53,-263.27 135.31,-249.87L163.53,-262.56C156.65,-280.73 139.40,-294.23 109.00,-291.87ZM265.76,-215.50C261.32,-211.05 256.28,-208.38 248.56,-207.78C238.81,-207.02 232.54,-211.32 231.70,-222.21L227.56,-275.51L263.85,-278.33L262.06,-301.47L225.77,-298.65L223.07,-333.35L192.67,-322.32L194.69,-296.24L173.82,-294.62L175.62,-271.48L196.49,-273.10L201.01,-214.81C202.95,-189.86 219.32,-181.78 242.23,-183.55C254.25,-184.49 265.33,-188.77 272.36,-195.25ZM-612.89,32.52L-670.73,37.01L-659.11,186.71L-601.27,182.22C-554.32,178.57 -529.65,149.50 -533.36,101.65C-537.08,53.79 -565.94,28.87 -612.89,32.52ZM-604.79,157.39L-629.74,159.33L-637.49,59.53L-612.54,57.59C-583.96,55.37 -568.30,71.96 -565.80,104.16C-563.30,136.37 -576.21,155.17 -604.79,157.39ZM-499.20,174.29L-468.13,171.88L-472.69,113.14C-474.27,92.72 -461.19,81.90 -447.36,80.82C-440.33,80.28 -436.42,80.66 -433.15,81.54L-431.55,55.18C-434.39,53.80 -439.00,53.25 -443.99,53.63C-461.68,55.01 -472.56,64.75 -477.25,80.86L-481.01,58.79L-508.00,60.89ZM-301.31,139.76C-306.75,140.19 -309.68,137.68 -310.14,131.78L-313.72,85.74C-315.88,57.84 -336.93,45.32 -366.65,47.63C-396.13,49.92 -412.35,64.41 -416.02,84.78L-388.84,90.88C-386.03,77.20 -377.36,71.28 -366.25,70.42C-354.22,69.48 -345.46,76.56 -344.46,89.49L-344.12,93.80L-382.52,104.77C-402.62,110.43 -412.88,122.18 -411.58,138.97C-410.03,158.93 -394.91,168.48 -371.78,166.68C-357.49,165.58 -343.43,158.55 -336.98,147.55C-332.75,157.95 -321.91,162.36 -308.97,161.58C-302.84,161.10 -297.94,159.58 -294.45,157.49L-294.14,138.07C-296.12,138.91 -298.81,139.57 -301.31,139.76ZM-365.55,144.07C-373.49,144.68 -380.16,141.09 -380.74,133.61C-381.35,125.67 -376.35,122.54 -366.07,119.69L-342.63,113.08L-342.08,120.11C-340.79,136.67 -352.62,143.06 -365.55,144.07ZM-135.80,31.99L-151.51,120.61L-183.65,35.71L-214.50,38.10L-232.93,126.93L-262.36,41.82L-295.48,44.39L-250.38,154.98L-214.54,152.20L-196.71,73.23L-166.01,148.43L-130.17,145.65L-102.68,29.42ZM-25.20,-13.10L-83.04,-8.61L-71.42,141.09L-13.58,136.60C33.37,132.95 58.04,103.88 54.32,56.02C50.61,8.17 21.75,-16.75 -25.20,-13.10ZM-17.11,111.77L-42.06,113.71L-49.81,13.91L-24.86,11.97C3.72,9.75 19.39,26.33 21.89,58.54C24.39,90.75 11.47,109.55 -17.11,111.77ZM131.22,8.98C96.97,11.64 74.86,35.49 77.73,72.46C80.60,109.43 106.13,129.58 140.37,126.93C174.62,124.27 196.73,100.42 193.86,63.45C190.99,26.47 165.47,6.32 131.22,8.98ZM133.01,32.12C149.80,30.81 160.69,41.83 162.56,65.88C164.43,89.92 155.36,102.49 138.58,103.79C121.57,105.11 110.67,94.09 108.81,70.05C106.94,46.01 116.00,33.44 133.01,32.12ZM361.84,-6.64L346.13,81.97L313.98,-2.93L283.14,-0.53L264.70,88.30L235.28,3.18L202.16,5.76L247.26,116.35L283.09,113.57L300.92,34.60L331.63,109.80L367.47,107.01L394.96,-9.21ZM481.65,-18.22C464.19,-16.87 450.72,-8.06 444.92,8.36L442.13,-12.87L414.24,-10.71L423.04,102.70L454.11,100.29L449.45,40.18C447.69,17.50 459.96,8.10 472.89,7.10C484.69,6.19 493.80,11.87 495.30,31.15L500.39,96.70L531.46,94.28L525.68,19.89C523.55,-7.56 505.24,-20.05 481.65,-18.22Z" fill="#ffffff" stroke="#000000"/>
    <path d="M-455.08,-272.38L-517.17,-267.02L-504.41,-119.07L-473.47,-121.74L-478.00,-174.20L-446.84,-176.89C-412.99,-179.81 -393.89,-199.30 -396.49,-229.34C-399.08,-259.37 -421.23,-275.30 -455.08,-272.38ZM-453.65,-200.92L-480.11,-198.63L-484.13,-245.26L-457.68,-247.54C-439.07,-249.15 -429.20,-242.10 -427.87,-226.63C-426.53,-211.16 -435.05,-202.52 -453.65,-200.92ZM-362.73,-131.30L-332.02,-133.95L-337.03,-192.01C-338.77,-212.18 -325.93,-223.00 -312.26,-224.18C-305.31,-224.78 -301.44,-224.44 -298.20,-223.59L-296.84,-249.68C-299.67,-251.02 -304.23,-251.53 -309.16,-251.10C-326.64,-249.59 -337.32,-239.86 -341.82,-223.89L-345.73,-245.69L-372.40,-243.38ZM-226.89,-258.20C-260.74,-255.28 -282.40,-231.50 -279.25,-194.96C-276.09,-158.42 -250.68,-138.71 -216.83,-141.63C-182.98,-144.55 -161.32,-168.33 -164.47,-204.87C-167.63,-241.41 -193.04,-261.12 -226.89,-258.20ZM-224.92,-235.33C-208.33,-236.77 -197.46,-225.96 -195.41,-202.20C-193.36,-178.44 -202.21,-165.93 -218.80,-164.50C-235.62,-163.05 -246.48,-173.85 -248.54,-197.61C-250.59,-221.38 -241.73,-233.88 -224.92,-235.33ZM-129.46,-280.61C-116.68,-281.71 -110.87,-287.63 -111.81,-298.62C-112.76,-309.60 -119.52,-314.66 -132.30,-313.56C-145.08,-312.46 -150.87,-306.31 -149.92,-295.33C-148.97,-284.34 -142.23,-279.51 -129.46,-280.61ZM-112.82,-265.78L-143.53,-263.13L-133.39,-145.67C-132.17,-131.55 -137.80,-126.09 -147.22,-125.28C-153.94,-124.70 -159.53,-126.70 -163.37,-129.31L-166.41,-106.91C-159.30,-103.01 -149.87,-101.11 -138.89,-102.06C-116.25,-104.02 -99.90,-116.04 -102.43,-145.41ZM27.79,-227.56C25.20,-257.60 3.78,-278.10 -30.07,-275.18C-63.47,-272.30 -84.93,-248.77 -81.76,-212.01C-78.58,-175.24 -53.86,-155.70 -18.44,-158.75C4.42,-160.73 23.05,-172.50 28.70,-190.82L3.45,-198.13C-0.26,-188.78 -7.41,-182.74 -20.64,-181.60C-36.11,-180.26 -46.91,-187.69 -50.89,-204.96L28.25,-211.79C28.35,-215.86 28.31,-221.50 27.79,-227.56ZM-28.34,-252.52C-14.44,-253.72 -5.19,-245.94 -2.29,-230.61L-52.50,-226.27C-50.96,-242.44 -42.46,-251.30 -28.34,-252.52ZM100.17,-286.42C66.32,-283.50 44.86,-259.97 48.04,-223.21C51.21,-186.44 76.16,-166.92 111.13,-169.93C138.92,-172.33 155.88,-187.80 159.09,-208.17L130.52,-214.74C129.16,-201.75 122.15,-193.92 108.93,-192.78C92.12,-191.33 80.84,-201.65 78.77,-225.63C76.74,-249.17 85.33,-262.11 102.59,-263.60C114.70,-264.64 122.69,-258.33 126.54,-245.11L154.35,-257.90C147.38,-275.82 130.21,-289.02 100.17,-286.42ZM255.85,-212.23C251.49,-207.79 246.53,-205.11 238.91,-204.45C229.27,-203.62 223.03,-207.82 222.10,-218.58L217.56,-271.26L253.43,-274.35L251.45,-297.22L215.59,-294.12L212.63,-328.42L182.65,-317.25L184.87,-291.47L164.25,-289.69L166.22,-266.83L186.85,-268.61L191.82,-211.00C193.95,-186.34 210.21,-178.48 232.85,-180.44C244.73,-181.46 255.65,-185.79 262.54,-192.26ZM-611.00,40.53L-668.17,45.46L-655.40,193.41L-598.24,188.48C-551.83,184.48 -527.68,155.52 -531.76,108.22C-535.85,60.92 -564.60,36.53 -611.00,40.53ZM-601.93,163.96L-626.59,166.09L-635.10,67.45L-610.44,65.33C-582.20,62.89 -566.57,79.15 -563.82,110.99C-561.07,142.82 -573.69,161.52 -601.93,163.96ZM-497.36,179.78L-466.65,177.13L-471.66,119.07C-473.40,98.89 -460.56,88.07 -446.88,86.89C-439.93,86.29 -436.07,86.64 -432.83,87.49L-431.47,61.40C-434.29,60.06 -438.85,59.55 -443.79,59.98C-461.27,61.49 -471.95,71.22 -476.44,87.19L-480.36,65.39L-507.03,67.69ZM-301.94,143.94C-307.32,144.41 -310.24,141.95 -310.75,136.12L-314.67,90.62C-317.05,63.04 -337.98,50.85 -367.35,53.38C-396.49,55.90 -412.40,70.37 -415.86,90.54L-388.93,96.35C-386.26,82.79 -377.74,76.86 -366.76,75.91C-354.88,74.89 -346.15,81.81 -345.05,94.59L-344.68,98.85L-382.56,110.02C-402.38,115.80 -412.44,127.51 -411.01,144.10C-409.31,163.82 -394.27,173.14 -371.41,171.17C-357.29,169.95 -343.44,162.88 -337.16,151.95C-332.89,162.20 -322.13,166.46 -309.33,165.58C-303.28,165.06 -298.45,163.51 -295.01,161.41L-294.87,142.20C-296.83,143.05 -299.48,143.73 -301.94,143.94ZM-365.44,148.74C-373.29,149.42 -379.91,145.93 -380.55,138.53C-381.23,130.69 -376.30,127.55 -366.16,124.64L-343.03,117.90L-342.43,124.85C-341.02,141.22 -352.66,147.64 -365.44,148.74ZM-139.17,35.95L-153.96,123.72L-186.47,40.03L-216.96,42.66L-234.43,130.66L-264.26,46.74L-296.99,49.57L-251.45,158.56L-216.03,155.50L-199.07,77.25L-168.06,151.36L-132.64,148.30L-106.45,33.12ZM-30.19,-9.59L-87.35,-4.66L-74.58,143.29L-17.42,138.36C28.98,134.36 53.13,105.40 49.05,58.10C44.97,10.80 16.22,-13.59 -30.19,-9.59ZM-21.12,113.84L-45.77,115.96L-54.29,17.33L-29.63,15.20C-1.38,12.77 14.25,29.03 17.00,60.86C19.74,92.70 7.13,111.40 -21.12,113.84ZM124.70,10.92C90.85,13.84 69.19,37.62 72.34,74.15C75.50,110.69 100.91,130.41 134.76,127.49C168.61,124.56 190.27,100.79 187.12,64.25C183.96,27.71 158.55,8.00 124.70,10.92ZM126.67,33.78C143.26,32.35 154.13,43.16 156.18,66.92C158.23,90.68 149.37,103.19 132.79,104.62C115.97,106.07 105.10,95.27 103.05,71.50C101.00,47.74 109.86,35.24 126.67,33.78ZM352.65,-6.49L337.86,81.28L305.35,-2.41L274.86,0.22L257.39,88.22L227.56,4.30L194.83,7.13L240.37,116.11L275.79,113.06L292.75,34.81L323.76,108.92L359.18,105.86L385.38,-9.32ZM471.04,-18.97C453.78,-17.48 440.54,-8.66 434.94,7.63L432.00,-13.34L404.43,-10.96L414.10,101.12L444.81,98.47L439.69,39.07C437.75,16.65 449.81,7.25 462.59,6.15C474.25,5.14 483.31,10.69 484.95,29.74L490.54,94.52L521.25,91.87L514.91,18.35C512.57,-8.78 494.35,-20.98 471.04,-18.97Z" fill="#ffffff" stroke="#000000"/>
    <path d="M-904.98,492L-898.94,492L-895.48,478.32L-894.30,472.39L-894.23,472.39L-893.05,478.32L-889.55,492L-883.66,492L-876.37,466.92L-881.73,466.92L-886.63,487.63L-891.72,466.92L-896.74,466.92L-901.75,487.63L-906.69,466.92L-912.28,466.92ZM-864.21,472.62C-869.95,472.62 -873.94,476.31 -873.94,482.50C-873.94,488.69 -869.95,492.38 -864.21,492.38C-858.47,492.38 -854.48,488.69 -854.48,482.50C-854.48,476.31 -858.47,472.62 -864.21,472.62ZM-864.21,476.50C-861.40,476.50 -859.72,478.47 -859.72,482.50C-859.72,486.53 -861.40,488.50 -864.21,488.50C-867.06,488.50 -868.73,486.53 -868.73,482.50C-868.73,478.47 -867.06,476.50 -864.21,476.50ZM-850.11,492L-844.90,492L-844.90,482.16C-844.90,478.74 -842.59,477.10 -840.27,477.10C-839.09,477.10 -838.44,477.22 -837.91,477.41L-837.30,473.04C-837.76,472.77 -838.52,472.62 -839.36,472.62C-842.32,472.62 -844.26,474.10 -845.25,476.72L-845.59,473L-850.11,473ZM-820.17,492L-814.28,492L-821.88,480.45L-814.73,473L-820.66,473L-828.87,481.70L-828.87,464.68L-834.07,464.68L-834.07,492L-828.87,492L-828.87,487.29L-825.41,483.60ZM-801.51,466.54C-807.93,466.54 -811.77,470.00 -811.77,474.44C-811.77,478.21 -809.22,480.26 -804.78,481.25L-799.68,482.39C-797.29,482.92 -796.57,483.91 -796.57,485.16C-796.57,487.10 -798.32,488.16 -801.39,488.16C-805.12,488.16 -808.27,486.41 -809.98,483.94L-812.95,487.48C-810.67,490.37 -806.60,492.38 -801.39,492.38C-795.35,492.38 -791.17,489.49 -791.17,484.51C-791.17,481.02 -793.19,478.85 -798.13,477.75L-802.80,476.69C-805.42,476.08 -806.33,475.17 -806.33,473.80C-806.33,472.13 -804.97,470.76 -801.70,470.76C-798.47,470.76 -796.11,471.94 -794.02,474.60L-791.10,471.21C-793.53,468.14 -796.95,466.54 -801.51,466.54ZM-769.36,488.81C-770.27,488.81 -770.73,488.35 -770.73,487.36L-770.73,479.65C-770.73,474.98 -774.07,472.62 -779.05,472.62C-783.99,472.62 -786.88,474.82 -787.75,478.17L-783.31,479.54C-782.66,477.29 -781.14,476.42 -779.28,476.42C-777.26,476.42 -775.90,477.71 -775.90,479.88L-775.90,480.60L-782.43,481.93C-785.85,482.61 -787.71,484.44 -787.71,487.25C-787.71,490.59 -785.32,492.38 -781.44,492.38C-779.05,492.38 -776.62,491.39 -775.40,489.64C-774.83,491.43 -773.08,492.30 -770.92,492.34C-769.89,492.34 -769.06,492.15 -768.45,491.85L-768.14,488.62C-768.49,488.73 -768.94,488.81 -769.36,488.81ZM-780.11,488.69C-781.44,488.69 -782.51,488.01 -782.51,486.76C-782.51,485.43 -781.63,484.97 -779.89,484.63L-775.90,483.83L-775.90,485.01C-775.90,487.78 -777.95,488.69 -780.11,488.69ZM-753.59,472.62C-756.52,472.62 -758.87,473.91 -760.05,476.57L-760.24,473L-764.91,473L-764.91,492L-759.71,492L-759.71,481.93C-759.71,478.13 -757.54,476.72 -755.38,476.72C-753.40,476.72 -751.96,477.79 -751.96,481.02L-751.96,492L-746.75,492L-746.75,479.54C-746.75,474.94 -749.64,472.62 -753.59,472.62ZM-733.79,492.38C-728.36,492.38 -725.36,489.72 -725.36,486.07C-725.36,483.53 -726.84,481.66 -730.60,480.90L-734.48,480.11C-736.34,479.73 -736.95,479.12 -736.95,478.32C-736.95,477.14 -735.77,476.46 -733.60,476.46C-731.63,476.46 -729.73,477.45 -728.59,479.19L-725.47,476.15C-727.10,473.84 -729.95,472.62 -733.75,472.62C-739.30,472.62 -742.11,475.55 -742.11,478.62C-742.11,481.55 -740.44,483.37 -736.03,484.29L-732.69,484.97C-731.02,485.31 -730.60,485.92 -730.60,486.72C-730.60,487.97 -731.89,488.54 -733.87,488.54C-736.64,488.54 -738.69,487.25 -739.91,485.43L-742.91,488.47C-740.94,490.97 -737.63,492.38 -733.79,492.38ZM-707.34,479.69L-720.76,479.69L-720.76,484.17L-707.34,484.17ZM-691.73,466.54C-698.15,466.54 -701.99,470.00 -701.99,474.44C-701.99,478.21 -699.44,480.26 -694.99,481.25L-689.90,482.39C-687.51,482.92 -686.79,483.91 -686.79,485.16C-686.79,487.10 -688.53,488.16 -691.61,488.16C-695.34,488.16 -698.49,486.41 -700.20,483.94L-703.16,487.48C-700.88,490.37 -696.82,492.38 -691.61,492.38C-685.57,492.38 -681.39,489.49 -681.39,484.51C-681.39,481.02 -683.40,478.85 -688.34,477.75L-693.02,476.69C-695.64,476.08 -696.55,475.17 -696.55,473.80C-696.55,472.13 -695.18,470.76 -691.92,470.76C-688.69,470.76 -686.33,471.94 -684.24,474.60L-681.31,471.21C-683.75,468.14 -687.17,466.54 -691.73,466.54ZM-659.35,481.47C-659.35,476.38 -662.66,472.62 -668.39,472.62C-674.06,472.62 -678.01,476.27 -678.01,482.50C-678.01,488.73 -674.13,492.38 -668.13,492.38C-664.25,492.38 -660.95,490.67 -659.73,487.67L-663.87,486.07C-664.63,487.59 -665.92,488.50 -668.17,488.50C-670.79,488.50 -672.50,487.10 -672.92,484.13L-659.50,484.13C-659.43,483.45 -659.35,482.50 -659.35,481.47ZM-668.43,476.46C-666.08,476.46 -664.63,477.90 -664.37,480.52L-672.88,480.52C-672.38,477.83 -670.83,476.46 -668.43,476.46ZM-654.94,492L-649.74,492L-649.74,481.93C-649.74,478.21 -647.57,476.72 -645.56,476.72C-643.62,476.72 -642.25,477.79 -642.25,480.56L-642.25,492L-637.04,492L-637.04,481.78C-637.04,478.47 -635.18,476.72 -632.86,476.72C-630.96,476.72 -629.60,477.79 -629.60,480.56L-629.60,492L-624.43,492L-624.39,479.54C-624.35,474.86 -627.47,472.62 -631.15,472.62C-633.74,472.62 -636.44,473.84 -637.61,476.38C-638.72,473.87 -641.07,472.62 -643.81,472.62C-646.51,472.62 -648.82,473.87 -650.08,476.42L-650.27,473L-654.94,473ZM-616.41,470.26C-614.24,470.26 -613.18,469.35 -613.18,467.49C-613.18,465.63 -614.24,464.68 -616.41,464.68C-618.58,464.68 -619.64,465.63 -619.64,467.49C-619.64,469.35 -618.58,470.26 -616.41,470.26ZM-613.83,473L-619.03,473L-619.03,492L-613.83,492ZM-607.78,492L-596.42,492C-590.46,492 -587.26,489.45 -587.26,485.12C-587.26,482.20 -589.20,479.84 -592.70,479.35L-592.70,479.31C-589.54,478.78 -587.91,476.46 -587.91,473.76C-587.91,469.43 -590.72,466.92 -596.80,466.92L-607.78,466.92ZM-602.69,477.45L-602.69,470.99L-597.49,470.99C-594.71,470.99 -593.34,472.05 -593.34,474.22C-593.34,476.38 -594.71,477.45 -597.49,477.45ZM-602.69,488.05L-602.69,481.47L-596.88,481.47C-594.07,481.47 -592.70,482.65 -592.70,484.74C-592.70,486.83 -594.07,488.05 -596.88,488.05ZM-574.12,472.62C-579.85,472.62 -583.84,476.31 -583.84,482.50C-583.84,488.69 -579.85,492.38 -574.12,492.38C-568.38,492.38 -564.39,488.69 -564.39,482.50C-564.39,476.31 -568.38,472.62 -574.12,472.62ZM-574.12,476.50C-571.30,476.50 -569.63,478.47 -569.63,482.50C-569.63,486.53 -571.30,488.50 -574.12,488.50C-576.97,488.50 -578.64,486.53 -578.64,482.50C-578.64,478.47 -576.97,476.50 -574.12,476.50ZM-554.89,464.68L-560.09,464.68L-560.09,486.72C-560.09,490.67 -558.46,492.38 -554.77,492.38C-553.52,492.38 -552.08,492.08 -551.24,491.58L-550.78,488.16C-551.62,488.47 -552.04,488.54 -552.91,488.54C-554.32,488.54 -554.89,487.90 -554.89,486.15ZM-534.75,464.68L-534.75,476.19C-535.77,474.03 -537.79,472.62 -540.52,472.62C-545.24,472.62 -548.85,476.23 -548.85,482.54C-548.85,488.73 -545.43,492.38 -540.71,492.38C-537.86,492.38 -535.51,490.86 -534.44,488.31L-534.22,492L-529.54,492L-529.54,464.68ZM-539.19,488.39C-542.01,488.39 -543.64,486.34 -543.64,482.50C-543.64,478.66 -541.93,476.61 -539.12,476.61C-536.46,476.61 -534.75,478.74 -534.75,482.35C-534.75,486.19 -536.50,488.39 -539.19,488.39Z"/>
</svg>