<?xml version="1.0"?>
<svg xmlns="http://www.w3.org/2000/svg" width="1920" height="1080" viewBox="-960 -540 1920 1080">
    <path d="M-623.63,-210L-623.63,-233.44L-615.82,-233.44L-615.82,-249.06L-608.00,-249.06L-608.00,-272.50L-600.19,-272.50L-600.19,-288.13L-592.38,-288.13L-592.38,-303.75L-584.57,-303.75L-584.57,-319.38L-576.75,-319.38L-576.75,-335L-568.94,-335L-568.94,-350.63L-561.13,-350.63L-561.13,-366.25L-537.69,-366.25L-537.69,-350.63L-529.88,-350.63L-529.88,-335L-522.07,-335L-522.07,-319.38L-514.25,-319.38L-514.25,-303.75L-506.44,-303.75L-506.44,-288.13L-498.63,-288.13L-498.63,-272.50L-490.82,-272.50L-490.82,-249.06L-483.00,-249.06L-483.00,-233.44L-475.19,-233.44L-475.19,-210L-498.63,-210L-498.63,-225.63L-506.44,-225.63L-506.44,-241.25L-514.25,-241.25L-514.25,-256.88L-584.57,-256.88L-584.57,-241.25L-592.38,-241.25L-592.38,-225.63L-600.19,-225.63L-600.19,-210ZM-576.75,-280.31L-522.07,-280.31L-522.07,-288.13L-529.88,-288.13L-529.88,-303.75L-537.69,-303.75L-537.69,-319.38L-545.50,-319.38L-545.50,-335L-553.32,-335L-553.32,-319.38L-561.13,-319.38L-561.13,-303.75L-568.94,-303.75L-568.94,-288.13L-576.75,-288.13ZM-378.75,-210L-378.75,-366.25L-300.63,-366.25L-300.63,-358.44L-292.82,-358.44L-292.82,-350.63L-285.00,-350.63L-285.00,-342.81L-277.19,-342.81L-277.19,-303.75L-285.00,-303.75L-285.00,-288.13L-277.19,-288.13L-277.19,-280.31L-269.38,-280.31L-269.38,-233.44L-277.19,-233.44L-277.19,-225.63L-285.00,-225.63L-285.00,-217.81L-292.82,-217.81L-292.82,-210ZM-355.32,-233.44L-300.63,-233.44L-300.63,-241.25L-292.82,-241.25L-292.82,-272.50L-300.63,-272.50L-300.63,-280.31L-355.32,-280.31ZM-355.32,-303.75L-308.44,-303.75L-308.44,-311.56L-300.63,-311.56L-300.63,-335L-308.44,-335L-308.44,-342.81L-355.32,-342.81ZM-247.65,-241.25L-247.65,-295.94L-239.84,-295.94L-239.84,-311.56L-232.03,-311.56L-232.03,-319.38L-216.40,-319.38L-216.40,-327.19L-185.15,-327.19L-185.15,-319.38L-169.53,-319.38L-169.53,-311.56L-161.71,-311.56L-161.71,-295.94L-153.90,-295.94L-153.90,-264.69L-224.21,-264.69L-224.21,-241.25L-216.40,-241.25L-216.40,-233.44L-185.15,-233.44L-185.15,-241.25L-177.34,-241.25L-177.34,-249.06L-153.90,-249.06L-153.90,-233.44L-161.71,-233.44L-161.71,-225.63L-169.53,-225.63L-169.53,-217.81L-185.15,-217.81L-185.15,-210L-216.40,-210L-216.40,-217.81L-232.03,-217.81L-232.03,-225.63L-239.84,-225.63L-239.84,-241.25ZM-224.21,-280.31L-177.34,-280.31L-177.34,-295.94L-185.15,-295.94L-185.15,-303.75L-216.40,-303.75L-216.40,-295.94L-224.21,-295.94ZM-132.66,-194.38L-124.85,-194.38L-124.85,-202.19L-109.22,-202.19L-109.22,-194.38L-101.41,-194.38L-101.41,-186.56L-62.35,-186.56L-62.35,-194.38L-54.54,-194.38L-54.54,-225.63L-62.35,-225.63L-62.35,-217.81L-70.16,-217.81L-70.16,-210L-101.41,-210L-101.41,-217.81L-117.04,-217.81L-117.04,-225.63L-124.85,-225.63L-124.85,-241.25L-132.66,-241.25L-132.66,-295.94L-124.85,-295.94L-124.85,-311.56L-117.04,-311.56L-117.04,-319.38L-101.41,-319.38L-101.41,-327.19L-70.16,-327.19L-70.16,-319.38L-62.35,-319.38L-62.35,-311.56L-54.54,-311.56L-54.54,-327.19L-31.10,-327.19L-31.10,-186.56L-38.91,-186.56L-38.91,-178.75L-46.72,-178.75L-46.72,-170.94L-62.35,-170.94L-62.35,-163.13L-101.41,-163.13L-101.41,-170.94L-117.04,-170.94L-117.04,-178.75L-124.85,-178.75L-124.85,-186.56L-132.66,-186.56ZM-109.22,-241.25L-101.41,-241.25L-101.41,-233.44L-70.16,-233.44L-70.16,-241.25L-62.35,-241.25L-62.35,-249.06L-54.54,-249.06L-54.54,-288.13L-62.35,-288.13L-62.35,-295.94L-70.16,-295.94L-70.16,-303.75L-101.41,-303.75L-101.41,-295.94L-109.22,-295.94ZM-3.27,-210L-3.27,-327.19L20.17,-327.19L20.17,-210ZM-3.27,-342.81L-3.27,-366.25L20.17,-366.25L20.17,-342.81ZM47.51,-210L47.51,-327.19L70.95,-327.19L70.95,-311.56L78.76,-311.56L78.76,-319.38L86.58,-319.38L86.58,-327.19L110.01,-327.19L110.01,-319.38L125.64,-319.38L125.64,-311.56L133.45,-311.56L133.45,-295.94L141.26,-295.94L141.26,-210L117.83,-210L117.83,-295.94L110.01,-295.94L110.01,-303.75L86.58,-303.75L86.58,-295.94L78.76,-295.94L78.76,-288.13L70.95,-288.13L70.95,-210ZM165.92,-210L165.92,-327.19L189.36,-327.19L189.36,-311.56L197.17,-311.56L197.17,-319.38L204.99,-319.38L204.99,-327.19L228.42,-327.19L228.42,-319.38L244.05,-319.38L244.05,-311.56L251.86,-311.56L251.86,-295.94L259.67,-295.94L259.67,-210L236.24,-210L236.24,-295.94L228.42,-295.94L228.42,-303.75L204.99,-303.75L204.99,-295.94L197.17,-295.94L197.17,-288.13L189.36,-288.13L189.36,-210ZM285.31,-210L285.31,-327.19L308.75,-327.19L308.75,-210ZM285.31,-342.81L285.31,-366.25L308.75,-366.25L308.75,-342.81ZM336.09,-210L336.09,-327.19L359.53,-327.19L359.53,-311.56L367.34,-311.56L367.34,-319.38L375.15,-319.38L375.15,-327.19L398.59,-327.19L398.59,-319.38L414.21,-319.38L414.21,-311.56L422.03,-311.56L422.03,-295.94L429.84,-295.94L429.84,-210L406.40,-210L406.40,-295.94L398.59,-295.94L398.59,-303.75L375.15,-303.75L375.15,-295.94L367.34,-295.94L367.34,-288.13L359.53,-288.13L359.53,-210ZM452.54,-194.38L460.36,-194.38L460.36,-202.19L475.98,-202.19L475.98,-194.38L483.79,-194.38L483.79,-186.56L522.86,-186.56L522.86,-194.38L530.67,-194.38L530.67,-225.63L522.86,-225.63L522.86,-217.81L515.04,-217.81L515.04,-210L483.79,-210L483.79,-217.81L468.17,-217.81L468.17,-225.63L460.36,-225.63L460.36,-241.25L452.54,-241.25L452.54,-295.94L460.36,-295.94L460.36,-311.56L468.17,-311.56L468.17,-319.38L483.79,-319.38L483.79,-327.19L515.04,-327.19L515.04,-319.38L522.86,-319.38L522.86,-311.56L530.67,-311.56L530.67,-327.19L554.11,-327.19L554.11,-186.56L546.29,-186.56L546.29,-178.75L538.48,-178.75L538.48,-170.94L522.86,-170.94L522.86,-163.13L483.79,-163.13L483.79,-170.94L468.17,-170.94L468.17,-178.75L460.36,-178.75L460.36,-186.56L452.54,-186.56ZM475.98,-241.25L483.79,-241.25L483.79,-233.44L515.04,-233.44L515.04,-241.25L522.86,-241.25L522.86,-249.06L530.67,-249.06L530.67,-288.13L522.86,-288.13L522.86,-295.94L515.04,-295.94L515.04,-303.75L483.79,-303.75L483.79,-295.94L475.98,-295.94Z" fill="#ffffff" stroke="#000000"/>
    <path d="M-616.64,-224.27L-615.91,-247.46L-608.18,-247.22L-607.70,-262.68L-599.97,-262.44L-599.25,-285.63L-591.52,-285.39L-591.03,-300.85L-583.30,-300.61L-582.82,-316.07L-575.09,-315.83L-574.61,-331.29L-566.88,-331.05L-566.39,-346.51L-558.66,-346.27L-558.18,-361.73L-550.45,-361.49L-549.97,-376.95L-526.78,-376.23L-527.26,-360.77L-519.53,-360.53L-520.01,-345.06L-512.28,-344.82L-512.76,-329.36L-505.03,-329.12L-505.51,-313.66L-497.78,-313.42L-498.27,-297.96L-490.54,-297.72L-491.02,-282.25L-483.29,-282.01L-484.01,-258.82L-476.28,-258.58L-476.76,-243.12L-469.03,-242.88L-469.76,-219.69L-492.95,-220.41L-492.47,-235.87L-500.20,-236.11L-499.71,-251.57L-507.44,-251.81L-506.96,-267.28L-576.54,-269.45L-577.02,-253.99L-584.75,-254.23L-585.23,-238.77L-592.96,-239.01L-593.45,-223.55ZM-568.08,-292.40L-513.97,-290.71L-513.73,-298.44L-521.46,-298.68L-520.98,-314.14L-528.71,-314.38L-528.22,-329.84L-535.95,-330.09L-535.47,-345.55L-543.20,-345.79L-543.69,-330.33L-551.42,-330.57L-551.90,-315.11L-559.63,-315.35L-560.11,-299.89L-567.84,-300.13ZM-374.33,-216.71L-369.51,-371.32L-292.20,-368.91L-292.44,-361.18L-284.71,-360.94L-284.95,-353.21L-277.22,-352.97L-277.46,-345.24L-269.73,-344.99L-270.94,-306.34L-278.67,-306.58L-279.15,-291.12L-271.42,-290.88L-271.66,-283.15L-263.93,-282.91L-265.38,-236.52L-273.11,-236.77L-273.35,-229.03L-281.08,-229.28L-281.32,-221.55L-289.05,-221.79L-289.29,-214.06ZM-350.42,-239.18L-296.30,-237.49L-296.06,-245.22L-288.33,-244.98L-287.36,-275.90L-295.10,-276.14L-294.85,-283.87L-348.97,-285.56ZM-348.25,-308.75L-301.86,-307.31L-301.62,-315.04L-293.89,-314.80L-293.17,-337.99L-300.90,-338.23L-300.66,-345.96L-347.04,-347.41ZM-243.64,-243.58L-241.95,-297.70L-234.22,-297.46L-233.74,-312.92L-226.01,-312.68L-225.76,-320.41L-210.30,-319.93L-210.06,-327.66L-179.14,-326.69L-179.38,-318.96L-163.92,-318.48L-164.16,-310.75L-156.43,-310.51L-156.91,-295.04L-149.18,-294.80L-150.15,-263.88L-219.72,-266.05L-220.45,-242.86L-212.71,-242.62L-212.96,-234.89L-182.03,-233.92L-181.79,-241.65L-174.06,-241.41L-173.82,-249.14L-150.63,-248.42L-151.11,-232.96L-158.84,-233.20L-159.08,-225.47L-166.81,-225.71L-167.05,-217.98L-182.52,-218.46L-182.76,-210.73L-213.68,-211.70L-213.44,-219.43L-228.90,-219.91L-228.66,-227.64L-236.39,-227.88L-235.91,-243.34ZM-219.24,-281.51L-172.86,-280.07L-172.37,-295.53L-180.10,-295.77L-179.86,-303.50L-210.79,-304.46L-211.03,-296.73L-218.76,-296.97ZM-131.30,-193.65L-123.57,-193.41L-123.33,-201.14L-107.87,-200.66L-108.11,-192.93L-100.38,-192.69L-100.62,-184.95L-61.97,-183.75L-61.72,-191.48L-53.99,-191.24L-53.03,-222.16L-60.76,-222.40L-61.00,-214.67L-68.73,-214.91L-68.97,-207.18L-99.89,-208.15L-99.65,-215.88L-115.11,-216.36L-114.87,-224.09L-122.60,-224.33L-122.12,-239.79L-129.85,-240.03L-128.16,-294.15L-120.43,-293.91L-119.95,-309.37L-112.22,-309.13L-111.98,-316.86L-96.52,-316.38L-96.28,-324.11L-65.35,-323.14L-65.60,-315.41L-57.86,-315.17L-58.11,-307.44L-50.38,-307.20L-49.89,-322.66L-26.70,-321.93L-31.04,-182.78L-38.77,-183.03L-39.01,-175.29L-46.74,-175.54L-46.99,-167.81L-62.45,-168.29L-62.69,-160.56L-101.34,-161.76L-101.10,-169.49L-116.56,-169.98L-116.32,-177.71L-124.05,-177.95L-123.81,-185.68L-131.54,-185.92ZM-106.66,-239.31L-98.93,-239.07L-99.17,-231.34L-68.25,-230.37L-68.01,-238.10L-60.28,-237.86L-60.04,-245.59L-52.30,-245.35L-51.10,-284.01L-58.83,-284.25L-58.59,-291.98L-66.32,-292.22L-66.08,-299.95L-97.00,-300.91L-97.24,-293.18L-104.97,-293.42ZM-2.78,-205.12L0.84,-321.08L24.03,-320.35L20.41,-204.39ZM1.32,-336.54L2.05,-359.73L25.24,-359.01L24.51,-335.81ZM47.47,-203.55L51.09,-319.51L74.28,-318.78L73.80,-303.32L81.53,-303.08L81.77,-310.81L89.50,-310.57L89.74,-318.30L112.93,-317.58L112.69,-309.85L128.15,-309.37L127.91,-301.63L135.64,-301.39L135.16,-285.93L142.89,-285.69L140.24,-200.65L117.05,-201.38L119.70,-286.41L111.97,-286.66L112.21,-294.39L89.02,-295.11L88.78,-287.38L81.05,-287.62L80.80,-279.89L73.07,-280.13L70.66,-202.83ZM164.64,-199.89L168.26,-315.85L191.45,-315.13L190.96,-299.67L198.70,-299.43L198.94,-307.16L206.67,-306.92L206.91,-314.65L230.10,-313.92L229.86,-306.19L245.32,-305.71L245.08,-297.98L252.81,-297.74L252.33,-282.28L260.06,-282.04L257.40,-197.00L234.21,-197.72L236.87,-282.76L229.14,-283.00L229.38,-290.73L206.18,-291.45L205.94,-283.72L198.21,-283.96L197.97,-276.23L190.24,-276.48L187.83,-199.17ZM282.77,-196.21L286.39,-312.17L309.58,-311.44L305.96,-195.48ZM286.87,-327.63L287.59,-350.82L310.79,-350.10L310.06,-326.90ZM333.02,-194.64L336.64,-310.60L359.83,-309.87L359.35,-294.41L367.08,-294.17L367.32,-301.90L375.05,-301.66L375.29,-309.39L398.48,-308.67L398.24,-300.94L413.70,-300.46L413.46,-292.73L421.19,-292.48L420.71,-277.02L428.44,-276.78L425.79,-191.74L402.60,-192.47L405.25,-277.51L397.52,-277.75L397.76,-285.48L374.57,-286.20L374.33,-278.47L366.60,-278.71L366.35,-270.98L358.62,-271.22L356.21,-193.92ZM447.77,-175.58L455.50,-175.34L455.74,-183.07L471.20,-182.59L470.96,-174.86L478.69,-174.62L478.45,-166.89L517.11,-165.68L517.35,-173.41L525.08,-173.17L526.04,-204.09L518.31,-204.33L518.07,-196.60L510.34,-196.84L510.10,-189.11L479.18,-190.08L479.42,-197.81L463.96,-198.29L464.20,-206.02L456.47,-206.26L456.95,-221.73L449.22,-221.97L450.91,-276.08L458.64,-275.84L459.12,-291.30L466.85,-291.06L467.09,-298.79L482.55,-298.31L482.79,-306.04L513.72,-305.07L513.48,-297.34L521.21,-297.10L520.97,-289.37L528.70,-289.13L529.18,-304.59L552.37,-303.87L548.03,-164.72L540.30,-164.96L540.06,-157.23L532.33,-157.47L532.09,-149.74L516.62,-150.22L516.38,-142.49L477.73,-143.70L477.97,-151.43L462.51,-151.91L462.75,-159.64L455.02,-159.88L455.26,-167.61L447.53,-167.85ZM472.41,-221.24L480.14,-221.00L479.90,-213.27L510.82,-212.31L511.06,-220.04L518.79,-219.80L519.04,-227.53L526.77,-227.29L527.97,-265.94L520.24,-266.18L520.48,-273.91L512.75,-274.15L512.99,-281.88L482.07,-282.85L481.83,-275.12L474.10,-275.36Z" fill="#ffffff" stroke="#000000"/>
    <path d="M-609.24,-238.36L-607.81,-261.29L-600.17,-260.81L-599.21,-276.09L-591.57,-275.62L-590.14,-298.54L-582.50,-298.06L-581.54,-313.35L-573.90,-312.87L-572.95,-328.15L-565.31,-327.67L-564.35,-342.96L-556.71,-342.48L-555.76,-357.76L-548.11,-357.28L-547.16,-372.57L-539.52,-372.09L-538.56,-387.37L-515.64,-385.94L-516.59,-370.66L-508.95,-370.18L-509.91,-354.90L-502.27,-354.42L-503.22,-339.14L-495.58,-338.66L-496.53,-323.38L-488.89,-322.90L-489.85,-307.62L-482.21,-307.14L-483.16,-291.86L-475.52,-291.38L-476.95,-268.46L-469.31,-267.98L-470.26,-252.70L-462.62,-252.22L-464.05,-229.30L-486.98,-230.73L-486.02,-246.01L-493.67,-246.49L-492.71,-261.77L-500.35,-262.25L-499.40,-277.53L-568.17,-281.83L-569.12,-266.54L-576.77,-267.02L-577.72,-251.74L-585.36,-252.21L-586.32,-236.93ZM-559.10,-304.27L-505.61,-300.93L-505.13,-308.57L-512.77,-309.05L-511.82,-324.33L-519.46,-324.81L-518.50,-340.09L-526.15,-340.57L-525.19,-355.85L-532.83,-356.33L-533.79,-341.05L-541.43,-341.52L-542.38,-326.24L-550.02,-326.72L-550.98,-311.44L-558.62,-311.91ZM-369.73,-223.40L-360.19,-376.23L-283.77,-371.46L-284.25,-363.82L-276.61,-363.34L-277.09,-355.70L-269.44,-355.22L-269.92,-347.58L-262.28,-347.10L-264.67,-308.90L-272.31,-309.37L-273.26,-294.09L-265.62,-293.61L-266.10,-285.97L-258.46,-285.49L-261.32,-239.65L-268.96,-240.12L-269.44,-232.48L-277.08,-232.96L-277.56,-225.32L-285.20,-225.79L-285.68,-218.15ZM-345.38,-244.90L-291.89,-241.55L-291.41,-249.20L-283.77,-248.72L-281.86,-279.28L-289.50,-279.76L-289.02,-287.40L-342.51,-290.74ZM-341.08,-313.67L-295.23,-310.80L-294.75,-318.45L-287.11,-317.97L-285.68,-340.89L-293.32,-341.37L-292.85,-349.01L-338.69,-351.87ZM-239.59,-245.96L-236.25,-299.45L-228.61,-298.97L-227.65,-314.25L-220.01,-313.78L-219.54,-321.42L-204.25,-320.46L-203.78,-328.11L-173.21,-326.20L-173.69,-318.55L-158.40,-317.60L-158.88,-309.96L-151.24,-309.48L-152.20,-294.20L-144.55,-293.72L-146.46,-263.16L-215.24,-267.45L-216.67,-244.53L-209.03,-244.05L-209.50,-236.41L-178.94,-234.50L-178.46,-242.14L-170.82,-241.66L-170.34,-249.31L-147.42,-247.87L-148.37,-232.59L-156.01,-233.07L-156.49,-225.43L-164.13,-225.90L-164.61,-218.26L-179.89,-219.22L-180.37,-211.58L-210.93,-213.48L-210.46,-221.13L-225.74,-222.08L-225.26,-229.72L-232.90,-230.20L-231.95,-245.48ZM-214.28,-282.73L-168.43,-279.87L-167.48,-295.15L-175.12,-295.63L-174.64,-303.27L-205.21,-305.18L-205.68,-297.54L-213.33,-298.02ZM-129.98,-193.09L-122.34,-192.61L-121.87,-200.25L-106.58,-199.30L-107.06,-191.65L-99.42,-191.18L-99.90,-183.54L-61.69,-181.15L-61.21,-188.79L-53.57,-188.31L-51.66,-218.88L-59.30,-219.36L-59.78,-211.71L-67.42,-212.19L-67.90,-204.55L-98.46,-206.46L-97.99,-214.10L-113.27,-215.06L-112.79,-222.70L-120.43,-223.17L-119.48,-238.46L-127.12,-238.93L-123.78,-292.42L-116.14,-291.95L-115.18,-307.23L-107.54,-306.75L-107.06,-314.39L-91.78,-313.44L-91.30,-321.08L-60.74,-319.17L-61.22,-311.53L-53.57,-311.05L-54.05,-303.41L-46.41,-302.93L-45.46,-318.22L-22.53,-316.78L-31.12,-179.24L-38.76,-179.72L-39.24,-172.08L-46.88,-172.55L-47.36,-164.91L-62.64,-165.87L-63.12,-158.23L-101.33,-160.61L-100.85,-168.25L-116.13,-169.21L-115.66,-176.85L-123.30,-177.33L-122.82,-184.97L-130.46,-185.44ZM-104.20,-237.50L-96.55,-237.03L-97.03,-229.38L-66.47,-227.47L-65.99,-235.12L-58.35,-234.64L-57.87,-242.28L-50.23,-241.80L-47.84,-280.01L-55.48,-280.49L-55.01,-288.13L-62.65,-288.61L-62.17,-296.25L-92.74,-298.16L-93.21,-290.51L-100.85,-290.99ZM-2.47,-200.46L4.69,-315.08L27.61,-313.65L20.45,-199.03ZM5.64,-330.37L7.08,-353.29L30.00,-351.86L28.57,-328.94ZM47.20,-197.36L54.36,-311.98L77.28,-310.55L76.33,-295.27L83.97,-294.79L84.45,-302.43L92.09,-301.95L92.57,-309.60L115.49,-308.16L115.01,-300.52L130.30,-299.57L129.82,-291.93L137.46,-291.45L136.50,-276.17L144.15,-275.69L138.90,-191.63L115.97,-193.07L121.22,-277.12L113.58,-277.60L114.06,-285.24L91.13,-286.67L90.66,-279.03L83.02,-279.51L82.54,-271.87L74.90,-272.34L70.12,-195.93ZM163.01,-190.13L170.17,-304.75L193.10,-303.32L192.14,-288.03L199.78,-287.56L200.26,-295.20L207.90,-294.72L208.38,-302.36L231.30,-300.93L230.83,-293.29L246.11,-292.33L245.63,-284.69L253.27,-284.21L252.32,-268.93L259.96,-268.45L254.71,-184.40L231.79,-185.83L237.04,-269.89L229.40,-270.36L229.87,-278.01L206.95,-279.44L206.47,-271.80L198.83,-272.27L198.35,-264.63L190.71,-265.11L185.94,-188.70ZM279.78,-182.83L286.94,-297.45L309.87,-296.02L302.71,-181.40ZM287.90,-312.74L289.33,-335.66L312.25,-334.23L310.82,-311.31ZM329.45,-179.73L336.61,-294.35L359.54,-292.92L358.58,-277.64L366.22,-277.16L366.70,-284.80L374.34,-284.32L374.82,-291.97L397.74,-290.53L397.27,-282.89L412.55,-281.94L412.07,-274.30L419.71,-273.82L418.76,-258.54L426.40,-258.06L421.15,-174.00L398.22,-175.44L403.47,-259.49L395.83,-259.97L396.31,-267.61L373.39,-269.04L372.91,-261.40L365.27,-261.88L364.79,-254.24L357.15,-254.71L352.38,-178.30ZM442.40,-157.33L450.04,-156.86L450.52,-164.50L465.80,-163.54L465.33,-155.90L472.97,-155.42L472.49,-147.78L510.70,-145.40L511.17,-153.04L518.82,-152.56L520.72,-183.13L513.08,-183.60L512.61,-175.96L504.96,-176.44L504.49,-168.80L473.92,-170.71L474.40,-178.35L459.12,-179.30L459.59,-186.94L451.95,-187.42L452.91,-202.70L445.27,-203.18L448.61,-256.67L456.25,-256.19L457.20,-271.48L464.84,-271.00L465.32,-278.64L480.60,-277.69L481.08,-285.33L511.65,-283.42L511.17,-275.78L518.81,-275.30L518.33,-267.66L525.97,-267.18L526.93,-282.46L549.85,-281.03L541.26,-143.49L533.62,-143.97L533.14,-136.32L525.50,-136.80L525.02,-129.16L509.74,-130.11L509.26,-122.47L471.06,-124.86L471.54,-132.50L456.25,-133.46L456.73,-141.10L449.09,-141.57L449.57,-149.22L441.92,-149.69ZM468.19,-201.75L475.83,-201.27L475.35,-193.63L505.92,-191.72L506.40,-199.36L514.04,-198.89L514.52,-206.53L522.16,-206.05L524.54,-244.26L516.90,-244.73L517.38,-252.38L509.74,-252.85L510.21,-260.49L479.65,-262.40L479.17,-254.76L471.53,-255.24Z" fill="#ffffff" stroke="#000000"/>
    <path d="M-601.44,-252.27L-599.32,-274.90L-591.77,-274.20L-590.35,-289.29L-582.81,-288.58L-580.69,-311.21L-573.14,-310.50L-571.72,-325.59L-564.18,-324.89L-562.76,-339.98L-555.22,-339.27L-553.80,-354.36L-546.26,-353.65L-544.84,-368.74L-537.30,-368.03L-535.88,-383.12L-528.33,-382.41L-526.92,-397.50L-504.28,-395.38L-505.70,-380.29L-498.15,-379.58L-499.57,-364.49L-492.03,-363.78L-493.44,-348.69L-485.90,-347.99L-487.31,-332.90L-479.77,-332.19L-481.18,-317.10L-473.64,-316.39L-475.06,-301.30L-467.51,-300.59L-469.63,-277.96L-462.09,-277.25L-463.51,-262.16L-455.96,-261.45L-458.08,-238.82L-480.72,-240.94L-479.30,-256.03L-486.85,-256.74L-485.43,-271.83L-492.98,-272.54L-491.56,-287.63L-559.47,-294.00L-560.88,-278.91L-568.43,-279.62L-569.84,-264.53L-577.39,-265.23L-578.80,-250.14ZM-549.80,-315.93L-496.98,-310.97L-496.27,-318.51L-503.82,-319.22L-502.40,-334.31L-509.95,-335.02L-508.53,-350.11L-516.08,-350.82L-514.66,-365.91L-522.21,-366.62L-523.62,-351.53L-531.17,-352.23L-532.58,-337.14L-540.13,-337.85L-541.54,-322.76L-549.09,-323.47ZM-364.95,-230.08L-350.79,-380.98L-275.34,-373.89L-276.05,-366.35L-268.50,-365.64L-269.21,-358.10L-261.67,-357.39L-262.38,-349.84L-254.83,-349.14L-258.37,-311.41L-265.92,-312.12L-267.33,-297.03L-259.79,-296.32L-260.49,-288.78L-252.95,-288.07L-257.20,-242.80L-264.74,-243.51L-265.45,-235.96L-273.00,-236.67L-273.70,-229.12L-281.25,-229.83L-281.96,-222.29ZM-340.19,-250.59L-287.38,-245.63L-286.67,-253.17L-279.12,-252.47L-276.29,-282.65L-283.84,-283.35L-283.13,-290.90L-335.94,-295.86ZM-333.82,-318.49L-288.55,-314.24L-287.84,-321.79L-280.30,-321.08L-278.17,-343.71L-285.72,-344.42L-285.01,-351.97L-330.28,-356.22ZM-235.51,-248.37L-230.55,-301.19L-223.00,-300.48L-221.59,-315.57L-214.04,-314.86L-213.33,-322.41L-198.24,-320.99L-197.54,-328.54L-167.36,-325.70L-168.06,-318.16L-152.98,-316.74L-153.68,-309.20L-146.14,-308.49L-147.55,-293.40L-140.01,-292.69L-142.84,-262.51L-210.75,-268.88L-212.87,-246.25L-205.33,-245.54L-206.03,-238.00L-175.85,-235.16L-175.15,-242.71L-167.60,-242.00L-166.89,-249.55L-144.26,-247.42L-145.67,-232.33L-153.22,-233.04L-153.93,-225.49L-161.47,-226.20L-162.18,-218.66L-177.27,-220.07L-177.98,-212.53L-208.16,-215.36L-207.45,-222.91L-222.54,-224.32L-221.83,-231.87L-229.38,-232.58L-227.96,-247.67ZM-209.33,-283.97L-164.06,-279.73L-162.64,-294.82L-170.19,-295.52L-169.48,-303.07L-199.66,-305.90L-200.37,-298.36L-207.91,-299.06ZM-128.70,-192.68L-121.16,-191.97L-120.45,-199.52L-105.36,-198.10L-106.07,-190.56L-98.52,-189.85L-99.23,-182.30L-61.50,-178.76L-60.80,-186.31L-53.25,-185.60L-50.42,-215.78L-57.96,-216.49L-58.67,-208.94L-66.22,-209.65L-66.93,-202.11L-97.11,-204.94L-96.40,-212.48L-111.49,-213.90L-110.78,-221.45L-118.32,-222.15L-116.91,-237.24L-124.45,-237.95L-119.50,-290.77L-111.95,-290.06L-110.54,-305.15L-102.99,-304.44L-102.28,-311.99L-87.19,-310.57L-86.48,-318.11L-56.30,-315.28L-57.01,-307.74L-49.47,-307.03L-50.18,-299.48L-42.63,-298.78L-41.21,-313.87L-18.58,-311.74L-31.32,-175.93L-38.87,-176.64L-39.58,-169.10L-47.12,-169.80L-47.83,-162.26L-62.92,-163.67L-63.63,-156.13L-101.35,-159.67L-100.65,-167.21L-115.74,-168.63L-115.03,-176.18L-122.57,-176.88L-121.86,-184.43L-129.41,-185.14ZM-101.82,-235.83L-94.27,-235.12L-94.98,-227.57L-64.80,-224.74L-64.09,-232.29L-56.55,-231.58L-55.84,-239.12L-48.29,-238.42L-44.75,-276.14L-52.30,-276.85L-51.59,-284.39L-59.14,-285.10L-58.43,-292.65L-88.61,-295.48L-89.32,-287.93L-96.86,-288.64ZM-2.32,-196.04L8.30,-309.22L30.93,-307.09L20.31,-193.92ZM9.72,-324.31L11.84,-346.94L34.47,-344.82L32.35,-322.18ZM46.72,-191.44L57.34,-304.62L79.98,-302.49L78.56,-287.40L86.11,-286.69L86.81,-294.24L94.36,-293.53L95.07,-301.08L117.70,-298.95L116.99,-291.41L132.08,-289.99L131.38,-282.45L138.92,-281.74L137.50,-266.65L145.05,-265.94L137.26,-182.95L114.63,-185.07L122.41,-268.06L114.87,-268.77L115.58,-276.32L92.94,-278.44L92.23,-270.90L84.69,-271.60L83.98,-264.06L76.44,-264.77L69.36,-189.32ZM161.07,-180.71L171.70,-293.89L194.33,-291.76L192.91,-276.67L200.46,-275.96L201.17,-283.51L208.71,-282.80L209.42,-290.34L232.06,-288.22L231.35,-280.68L246.44,-279.26L245.73,-271.71L253.27,-271.01L251.86,-255.92L259.40,-255.21L251.61,-172.21L228.98,-174.34L236.77,-257.33L229.22,-258.04L229.93,-265.59L207.30,-267.71L206.59,-260.17L199.04,-260.87L198.33,-253.33L190.79,-254.04L183.71,-178.59ZM276.37,-169.89L286.99,-283.07L309.63,-280.94L299.01,-167.77ZM288.41,-298.16L290.53,-320.79L313.17,-318.67L311.04,-296.03ZM325.41,-165.29L336.03,-278.46L358.67,-276.34L357.25,-261.25L364.80,-260.54L365.51,-268.09L373.05,-267.38L373.76,-274.92L396.39,-272.80L395.69,-265.25L410.78,-263.84L410.07,-256.29L417.61,-255.58L416.20,-240.49L423.74,-239.79L415.95,-156.79L393.32,-158.92L401.11,-241.91L393.56,-242.62L394.27,-250.16L371.63,-252.29L370.93,-244.74L363.38,-245.45L362.67,-237.91L355.13,-238.61L348.05,-163.16ZM436.46,-139.64L444.01,-138.94L444.72,-146.48L459.81,-145.06L459.10,-137.52L466.64,-136.81L465.94,-129.27L503.66,-125.73L504.37,-133.27L511.91,-132.56L514.75,-162.74L507.20,-163.45L506.49,-155.91L498.95,-156.61L498.24,-149.07L468.06,-151.90L468.77,-159.45L453.68,-160.86L454.39,-168.41L446.84,-169.12L448.26,-184.21L440.71,-184.91L445.67,-237.73L453.21,-237.02L454.63,-252.11L462.18,-251.40L462.88,-258.95L477.97,-257.53L478.68,-265.08L508.86,-262.24L508.15,-254.70L515.70,-253.99L514.99,-246.45L522.54,-245.74L523.95,-260.83L546.59,-258.70L533.84,-122.89L526.30,-123.60L525.59,-116.06L518.04,-116.77L517.34,-109.22L502.25,-110.64L501.54,-103.09L463.81,-106.63L464.52,-114.18L449.43,-115.59L450.14,-123.14L442.59,-123.85L443.30,-131.39L435.76,-132.10ZM463.35,-182.79L470.89,-182.08L470.18,-174.54L500.36,-171.70L501.07,-179.25L508.62,-178.54L509.33,-186.09L516.87,-185.38L520.41,-223.10L512.87,-223.81L513.57,-231.36L506.03,-232.06L506.74,-239.61L476.56,-242.44L475.85,-234.90L468.30,-235.60Z" fill="#ffffff" stroke="#000000"/>
    <path d="M-593.24,-265.97L-590.44,-288.29L-583.00,-287.36L-581.13,-302.24L-573.69,-301.31L-570.89,-323.64L-563.45,-322.70L-561.58,-337.59L-554.14,-336.65L-552.27,-351.54L-544.83,-350.60L-542.96,-365.49L-535.52,-364.55L-533.65,-379.44L-526.21,-378.50L-524.35,-393.39L-516.90,-392.45L-515.04,-407.34L-492.71,-404.54L-494.58,-389.65L-487.14,-388.72L-489.00,-373.84L-481.56,-372.90L-483.43,-358.02L-475.99,-357.09L-477.85,-342.20L-470.41,-341.27L-472.28,-326.39L-464.84,-325.45L-466.70,-310.57L-459.26,-309.64L-462.06,-287.31L-454.62,-286.38L-456.49,-271.49L-449.04,-270.56L-451.84,-248.24L-474.17,-251.04L-472.30,-265.92L-479.75,-266.85L-477.88,-281.74L-485.32,-282.67L-483.45,-297.55L-550.43,-305.95L-552.30,-291.07L-559.74,-292.00L-561.60,-277.12L-569.05,-278.05L-570.91,-263.17ZM-540.19,-327.34L-488.10,-320.81L-487.16,-328.25L-494.60,-329.19L-492.74,-344.07L-500.18,-345.00L-498.31,-359.89L-505.75,-360.82L-503.89,-375.70L-511.33,-376.64L-513.20,-361.75L-520.64,-362.69L-522.50,-347.80L-529.95,-348.74L-531.81,-333.85L-539.25,-334.79ZM-359.99,-236.72L-341.32,-385.55L-266.90,-376.22L-267.84,-368.78L-260.40,-367.84L-261.33,-360.40L-253.89,-359.47L-254.82,-352.03L-247.38,-351.09L-252.04,-313.88L-259.49,-314.82L-261.35,-299.93L-253.91,-299.00L-254.84,-291.56L-247.40,-290.63L-253.00,-245.98L-260.44,-246.91L-261.38,-239.47L-268.82,-240.40L-269.75,-232.96L-277.19,-233.89L-278.13,-226.45ZM-334.86,-256.24L-282.77,-249.71L-281.84,-257.15L-274.39,-256.22L-270.66,-285.98L-278.10,-286.92L-277.17,-294.36L-329.26,-300.89ZM-326.46,-323.22L-281.81,-317.62L-280.88,-325.06L-273.44,-324.13L-270.64,-346.45L-278.08,-347.38L-277.15,-354.83L-321.80,-360.43ZM-231.37,-250.82L-224.84,-302.91L-217.40,-301.98L-215.53,-316.86L-208.09,-315.93L-207.16,-323.37L-192.27,-321.50L-191.34,-328.95L-161.57,-325.21L-162.51,-317.77L-147.62,-315.91L-148.56,-308.46L-141.11,-307.53L-142.98,-292.65L-135.54,-291.71L-139.27,-261.95L-206.25,-270.35L-209.05,-248.02L-201.61,-247.09L-202.54,-239.65L-172.77,-235.91L-171.84,-243.35L-164.40,-242.42L-163.46,-249.86L-141.14,-247.06L-143.00,-232.18L-150.45,-233.11L-151.38,-225.67L-158.82,-226.60L-159.75,-219.16L-174.64,-221.03L-175.57,-213.59L-205.34,-217.32L-204.41,-224.76L-219.29,-226.63L-218.36,-234.07L-225.80,-235.00L-223.93,-249.89ZM-204.38,-285.23L-159.73,-279.63L-157.86,-294.51L-165.31,-295.45L-164.37,-302.89L-194.14,-306.62L-195.07,-299.18L-202.51,-300.11ZM-127.44,-192.43L-120.00,-191.50L-119.06,-198.94L-104.18,-197.08L-105.11,-189.63L-97.67,-188.70L-98.61,-181.26L-61.40,-176.59L-60.46,-184.03L-53.02,-183.10L-49.29,-212.87L-56.73,-213.80L-57.66,-206.36L-65.11,-207.29L-66.04,-199.85L-95.81,-203.58L-94.87,-211.03L-109.76,-212.89L-108.82,-220.33L-116.26,-221.27L-114.40,-236.15L-121.84,-237.08L-115.31,-289.18L-107.86,-288.24L-106.00,-303.13L-98.56,-302.19L-97.62,-309.63L-82.74,-307.77L-81.81,-315.21L-52.04,-311.48L-52.97,-304.03L-45.53,-303.10L-46.46,-295.66L-39.02,-294.73L-37.16,-309.61L-14.83,-306.81L-31.63,-172.86L-39.07,-173.79L-40.01,-166.35L-47.45,-167.28L-48.38,-159.84L-63.26,-161.71L-64.20,-154.27L-101.41,-158.93L-100.47,-166.38L-115.36,-168.24L-114.42,-175.68L-121.86,-176.62L-120.93,-184.06L-128.37,-184.99ZM-99.51,-234.28L-92.07,-233.35L-93.01,-225.91L-63.24,-222.18L-62.31,-229.62L-54.86,-228.68L-53.93,-236.13L-46.49,-235.19L-41.82,-272.40L-49.26,-273.33L-48.33,-280.78L-55.77,-281.71L-54.84,-289.15L-84.61,-292.88L-85.54,-285.44L-92.98,-286.38ZM-2.32,-191.86L11.68,-303.49L34.01,-300.69L20.01,-189.06ZM13.55,-318.37L16.35,-340.69L38.67,-337.89L35.87,-315.57ZM46.05,-185.79L60.05,-297.42L82.38,-294.62L80.51,-279.74L87.95,-278.80L88.88,-286.24L96.33,-285.31L97.26,-292.75L119.58,-289.95L118.65,-282.51L133.53,-280.64L132.60,-273.20L140.04,-272.27L138.18,-257.39L145.62,-256.45L135.35,-174.59L113.03,-177.39L123.29,-259.25L115.85,-260.19L116.78,-267.63L94.46,-270.43L93.53,-262.99L86.08,-263.92L85.15,-256.48L77.71,-257.41L68.38,-182.99ZM158.84,-171.65L172.84,-283.27L195.16,-280.47L193.30,-265.59L200.74,-264.66L201.67,-272.10L209.11,-271.17L210.05,-278.61L232.37,-275.81L231.44,-268.37L246.32,-266.50L245.39,-259.06L252.83,-258.12L250.97,-243.24L258.41,-242.31L248.14,-160.45L225.82,-163.25L236.08,-245.11L228.64,-246.04L229.57,-253.48L207.25,-256.28L206.31,-248.84L198.87,-249.77L197.94,-242.33L190.50,-243.27L181.17,-168.85ZM272.56,-157.39L286.56,-269.01L308.88,-266.21L294.88,-154.59ZM288.42,-283.90L291.22,-306.22L313.55,-303.42L310.75,-281.10ZM320.93,-151.32L334.93,-262.95L357.25,-260.15L355.39,-245.26L362.83,-244.33L363.76,-251.77L371.20,-250.84L372.14,-258.28L394.46,-255.48L393.53,-248.04L408.41,-246.17L407.48,-238.73L414.92,-237.80L413.05,-222.91L420.50,-221.98L410.23,-140.12L387.91,-142.92L398.17,-224.78L390.73,-225.71L391.66,-233.15L369.34,-235.95L368.40,-228.51L360.96,-229.45L360.03,-222.00L352.59,-222.94L343.25,-148.52ZM429.99,-122.53L437.43,-121.59L438.37,-129.03L453.25,-127.17L452.32,-119.73L459.76,-118.79L458.82,-111.35L496.03,-106.68L496.97,-114.13L504.41,-113.19L508.14,-142.96L500.70,-143.89L499.77,-136.45L492.32,-137.38L491.39,-129.94L461.62,-133.68L462.56,-141.12L447.67,-142.98L448.61,-150.43L441.17,-151.36L443.03,-166.24L435.59,-167.18L442.12,-219.27L449.57,-218.33L451.43,-233.22L458.87,-232.28L459.81,-239.73L474.69,-237.86L475.62,-245.30L505.39,-241.57L504.46,-234.13L511.90,-233.19L510.97,-225.75L518.41,-224.82L520.27,-239.70L542.60,-236.90L525.80,-102.95L518.36,-103.88L517.43,-96.44L509.98,-97.38L509.05,-89.93L494.17,-91.80L493.23,-84.36L456.02,-89.03L456.96,-96.47L442.07,-98.33L443.01,-105.78L435.57,-106.71L436.50,-114.15L429.06,-115.08ZM457.92,-164.38L465.36,-163.44L464.42,-156.00L494.19,-152.27L495.12,-159.71L502.57,-158.78L503.50,-166.22L510.94,-165.28L515.61,-202.49L508.17,-203.43L509.10,-210.87L501.66,-211.80L502.59,-219.24L472.82,-222.98L471.89,-215.53L464.45,-216.47Z" fill="#ffffff" stroke="#000000"/>
    <path d="M-584.64,-279.45L-581.18,-301.44L-573.85,-300.29L-571.54,-314.95L-564.21,-313.80L-560.75,-335.80L-553.42,-334.64L-551.11,-349.31L-543.78,-348.15L-541.48,-362.82L-534.15,-361.67L-531.84,-376.33L-524.51,-375.18L-522.20,-389.84L-514.87,-388.69L-512.57,-403.35L-505.23,-402.20L-502.93,-416.86L-480.93,-413.40L-483.24,-398.74L-475.91,-397.59L-478.21,-382.92L-470.88,-381.77L-473.19,-367.11L-465.85,-365.95L-468.16,-351.29L-460.83,-350.14L-463.13,-335.47L-455.80,-334.32L-458.11,-319.66L-450.77,-318.50L-454.23,-296.51L-446.90,-295.36L-449.21,-280.69L-441.88,-279.54L-445.33,-257.54L-467.33,-261.00L-465.02,-275.67L-472.36,-276.82L-470.05,-291.48L-477.38,-292.64L-475.08,-307.30L-541.06,-317.67L-543.37,-303.01L-550.70,-304.16L-553.00,-289.50L-560.34,-290.65L-562.64,-275.99ZM-530.27,-338.52L-478.95,-330.45L-477.80,-337.78L-485.13,-338.93L-482.82,-353.60L-490.15,-354.75L-487.85,-369.41L-495.18,-370.57L-492.88,-385.23L-500.21,-386.38L-502.51,-371.72L-509.84,-372.87L-512.15,-358.21L-519.48,-359.36L-521.79,-344.70L-529.12,-345.85ZM-354.83,-243.32L-331.78,-389.95L-258.46,-378.42L-259.61,-371.09L-252.28,-369.94L-253.43,-362.61L-246.10,-361.45L-247.25,-354.12L-239.92,-352.97L-245.68,-316.31L-253.02,-317.46L-255.32,-302.80L-247.99,-301.65L-249.14,-294.32L-241.81,-293.16L-248.73,-249.17L-256.06,-250.32L-257.21,-242.99L-264.54,-244.15L-265.70,-236.81L-273.03,-237.97L-274.18,-230.63ZM-329.38,-261.85L-278.06,-253.78L-276.90,-261.11L-269.57,-259.96L-264.96,-289.29L-272.29,-290.44L-271.14,-297.77L-322.46,-305.84ZM-319.00,-327.84L-275.01,-320.92L-273.86,-328.25L-266.53,-327.10L-263.07,-349.10L-270.40,-350.25L-269.25,-357.58L-313.24,-364.50ZM-227.18,-253.30L-219.11,-304.62L-211.78,-303.47L-209.48,-318.13L-202.14,-316.98L-200.99,-324.31L-186.33,-322.00L-185.18,-329.34L-155.85,-324.73L-157.00,-317.39L-142.34,-315.09L-143.49,-307.76L-136.16,-306.60L-138.46,-291.94L-131.13,-290.79L-135.74,-261.46L-201.73,-271.83L-205.19,-249.84L-197.86,-248.69L-199.01,-241.35L-169.68,-236.74L-168.53,-244.08L-161.20,-242.92L-160.04,-250.25L-138.05,-246.80L-140.35,-232.13L-147.69,-233.29L-148.84,-225.95L-156.17,-227.11L-157.32,-219.77L-171.99,-222.08L-173.14,-214.75L-202.47,-219.36L-201.31,-226.69L-215.98,-229.00L-214.83,-236.33L-222.16,-237.48L-219.85,-252.14ZM-199.42,-286.50L-155.43,-279.58L-153.13,-294.25L-160.46,-295.40L-159.31,-302.73L-188.63,-307.34L-189.79,-300.01L-197.12,-301.16ZM-126.19,-192.34L-118.85,-191.19L-117.70,-198.52L-103.04,-196.21L-104.19,-188.88L-96.86,-187.73L-98.01,-180.40L-61.35,-174.63L-60.20,-181.96L-52.87,-180.81L-48.26,-210.14L-55.59,-211.29L-56.74,-203.96L-64.07,-205.11L-65.23,-197.78L-94.55,-202.39L-93.40,-209.72L-108.06,-212.03L-106.91,-219.36L-114.24,-220.51L-111.94,-235.18L-119.27,-236.33L-111.20,-287.65L-103.87,-286.50L-101.56,-301.16L-94.23,-300.01L-93.08,-307.34L-78.41,-305.04L-77.26,-312.37L-47.93,-307.76L-49.09,-300.43L-41.75,-299.27L-42.91,-291.94L-35.58,-290.79L-33.27,-305.45L-11.27,-301.99L-32.02,-170.02L-39.36,-171.17L-40.51,-163.84L-47.84,-165.00L-48.99,-157.66L-63.66,-159.97L-64.81,-152.64L-101.47,-158.40L-100.32,-165.73L-114.98,-168.04L-113.83,-175.37L-121.16,-176.52L-120.01,-183.86L-127.34,-185.01ZM-97.27,-232.87L-89.94,-231.72L-91.09,-224.39L-61.77,-219.78L-60.61,-227.11L-53.28,-225.96L-52.13,-233.29L-44.80,-232.13L-39.03,-268.79L-46.37,-269.95L-45.21,-277.28L-52.54,-278.43L-51.39,-285.76L-80.72,-290.37L-81.87,-283.04L-89.20,-284.19ZM-2.45,-187.91L14.84,-297.89L36.84,-294.43L19.55,-184.45ZM17.15,-312.55L20.61,-334.55L42.60,-331.09L39.15,-309.09ZM45.21,-180.42L62.50,-290.39L84.50,-286.94L82.19,-272.27L89.52,-271.12L90.68,-278.45L98.01,-277.30L99.16,-284.63L121.16,-281.17L120.00,-273.84L134.67,-271.54L133.51,-264.20L140.85,-263.05L138.54,-248.39L145.87,-247.23L133.19,-166.58L111.20,-170.04L123.88,-250.69L116.55,-251.85L117.70,-259.18L95.70,-262.64L94.55,-255.30L87.22,-256.46L86.07,-249.12L78.73,-250.28L67.21,-176.96ZM156.33,-162.95L173.62,-272.92L195.62,-269.46L193.31,-254.80L200.65,-253.65L201.80,-260.98L209.13,-259.83L210.28,-267.16L232.28,-263.70L231.13,-256.37L245.79,-254.06L244.64,-246.73L251.97,-245.58L249.66,-230.92L256.99,-229.76L244.31,-149.11L222.32,-152.57L235.00,-233.22L227.67,-234.37L228.82,-241.71L206.83,-245.16L205.67,-237.83L198.34,-238.98L197.19,-231.65L189.86,-232.81L178.33,-159.49ZM268.37,-145.33L285.66,-255.31L307.66,-251.85L290.37,-141.87ZM287.97,-269.97L291.43,-291.97L313.42,-288.51L309.96,-266.51ZM316.03,-137.84L333.32,-247.81L355.32,-244.36L353.01,-229.69L360.34,-228.54L361.49,-235.87L368.83,-234.72L369.98,-242.05L391.97,-238.59L390.82,-231.26L405.49,-228.95L404.33,-221.62L411.66,-220.47L409.36,-205.81L416.69,-204.65L404.01,-124.00L382.01,-127.46L394.70,-208.11L387.36,-209.26L388.52,-216.60L366.52,-220.05L365.37,-212.72L358.04,-213.88L356.88,-206.54L349.55,-207.70L338.02,-134.38ZM423.01,-105.99L430.34,-104.84L431.50,-112.17L446.16,-109.86L445.01,-102.53L452.34,-101.38L451.19,-94.05L487.85,-88.28L489.00,-95.62L496.33,-94.46L500.94,-123.79L493.61,-124.94L492.46,-117.61L485.13,-118.76L483.97,-111.43L454.65,-116.04L455.80,-123.37L441.13,-125.68L442.29,-133.01L434.96,-134.16L437.26,-148.83L429.93,-149.98L438.00,-201.30L445.33,-200.15L447.64,-214.81L454.97,-213.66L456.12,-220.99L470.78,-218.69L471.94,-226.02L501.26,-221.41L500.11,-214.08L507.44,-212.92L506.29,-205.59L513.62,-204.44L515.93,-219.10L537.92,-215.64L517.17,-83.67L509.84,-84.82L508.69,-77.49L501.36,-78.65L500.20,-71.31L485.54,-73.62L484.39,-66.29L447.73,-72.05L448.88,-79.38L434.22,-81.69L435.37,-89.02L428.04,-90.17L429.19,-97.51L421.86,-98.66ZM451.92,-146.52L459.26,-145.37L458.10,-138.04L487.43,-133.43L488.58,-140.76L495.92,-139.61L497.07,-146.94L504.40,-145.78L510.16,-182.44L502.83,-183.60L503.99,-190.93L496.65,-192.08L497.81,-199.41L468.48,-204.02L467.33,-196.69L459.99,-197.85Z" fill="#ffffff" stroke="#000000"/>
    <path d="M-575.65,-292.69L-571.55,-314.34L-564.33,-312.97L-561.60,-327.40L-554.38,-326.04L-550.28,-347.68L-543.07,-346.32L-540.34,-360.75L-533.12,-359.38L-530.39,-373.81L-523.17,-372.45L-520.44,-386.88L-513.22,-385.51L-510.49,-399.94L-503.28,-398.57L-500.54,-413.01L-493.33,-411.64L-490.59,-426.07L-468.95,-421.97L-471.68,-407.54L-464.47,-406.17L-467.20,-391.74L-459.98,-390.38L-462.72,-375.95L-455.50,-374.58L-458.23,-360.15L-451.02,-358.78L-453.75,-344.35L-446.53,-342.98L-449.27,-328.55L-442.05,-327.19L-446.15,-305.54L-438.93,-304.17L-441.67,-289.74L-434.45,-288.38L-438.55,-266.73L-460.20,-270.83L-457.46,-285.26L-464.68,-286.63L-461.95,-301.06L-469.16,-302.42L-466.43,-316.86L-531.37,-329.15L-534.10,-314.72L-541.32,-316.09L-544.05,-301.66L-551.27,-303.02L-554.00,-288.59ZM-520.06,-349.43L-469.55,-339.87L-468.18,-347.08L-475.40,-348.45L-472.66,-362.88L-479.88,-364.25L-477.15,-378.68L-484.36,-380.04L-481.63,-394.48L-488.84,-395.84L-491.58,-381.41L-498.79,-382.78L-501.53,-368.35L-508.74,-369.71L-511.47,-355.28L-518.69,-356.65ZM-349.48,-249.86L-322.16,-394.18L-250.00,-380.51L-251.37,-373.30L-244.15,-371.93L-245.52,-364.71L-238.30,-363.35L-239.67,-356.13L-232.45,-354.77L-239.29,-318.69L-246.50,-320.06L-249.23,-305.62L-242.02,-304.26L-243.39,-297.04L-236.17,-295.68L-244.37,-252.38L-251.58,-253.75L-252.95,-246.53L-260.16,-247.90L-261.53,-240.68L-268.75,-242.05L-270.11,-234.84ZM-323.74,-267.41L-273.23,-257.85L-271.86,-265.06L-264.65,-263.70L-259.18,-292.56L-266.40,-293.93L-265.03,-301.14L-315.54,-310.71ZM-311.44,-332.35L-268.15,-324.15L-266.78,-331.37L-259.57,-330.00L-255.47,-351.65L-262.68,-353.02L-261.32,-360.23L-304.61,-368.43ZM-222.93,-255.80L-213.37,-306.31L-206.15,-304.94L-203.42,-319.37L-196.21,-318.01L-194.84,-325.22L-180.41,-322.49L-179.04,-329.70L-150.18,-324.24L-151.55,-317.02L-137.11,-314.29L-138.48,-307.07L-131.27,-305.71L-134.00,-291.28L-126.78,-289.91L-132.25,-261.05L-197.19,-273.35L-201.29,-251.70L-194.07,-250.33L-195.44,-243.12L-166.58,-237.65L-165.21,-244.87L-157.99,-243.50L-156.63,-250.72L-134.98,-246.62L-137.71,-232.19L-144.93,-233.55L-146.29,-226.34L-153.51,-227.70L-154.88,-220.49L-169.31,-223.22L-170.67,-216.01L-199.54,-221.47L-198.17,-228.69L-212.60,-231.42L-211.23,-238.63L-218.45,-240.00L-215.72,-254.43ZM-194.45,-287.78L-151.16,-279.58L-148.43,-294.01L-155.64,-295.38L-154.28,-302.59L-183.14,-308.06L-184.51,-300.84L-191.72,-302.21ZM-124.93,-192.39L-117.71,-191.03L-116.35,-198.24L-101.91,-195.51L-103.28,-188.30L-96.07,-186.93L-97.43,-179.71L-61.35,-172.88L-59.99,-180.10L-52.77,-178.73L-47.31,-207.59L-54.52,-208.96L-55.89,-201.74L-63.10,-203.11L-64.47,-195.90L-93.33,-201.36L-91.97,-208.58L-106.40,-211.31L-105.03,-218.52L-112.25,-219.89L-109.51,-234.32L-116.73,-235.69L-107.17,-286.20L-99.95,-284.83L-97.22,-299.26L-90.00,-297.89L-88.64,-305.11L-74.20,-302.38L-72.84,-309.59L-43.98,-304.13L-45.34,-296.91L-38.13,-295.55L-39.49,-288.33L-32.28,-286.96L-29.54,-301.40L-7.90,-297.30L-32.49,-167.42L-39.71,-168.78L-41.07,-161.57L-48.29,-162.93L-49.66,-155.72L-64.09,-158.45L-65.45,-151.24L-101.53,-158.07L-100.16,-165.28L-114.60,-168.02L-113.23,-175.23L-120.44,-176.60L-119.08,-183.81L-126.29,-185.18ZM-95.08,-231.59L-87.87,-230.22L-89.23,-223.01L-60.37,-217.54L-59.01,-224.76L-51.79,-223.39L-50.42,-230.61L-43.21,-229.24L-36.38,-265.32L-43.59,-266.68L-42.23,-273.90L-49.44,-275.27L-48.07,-282.48L-76.94,-287.95L-78.30,-280.73L-85.52,-282.10ZM-2.69,-184.20L17.81,-292.43L39.45,-288.33L18.96,-180.10ZM20.54,-306.86L24.64,-328.51L46.29,-324.41L42.19,-302.76ZM44.21,-175.32L64.71,-283.55L86.35,-279.45L83.62,-265.02L90.84,-263.65L92.20,-270.87L99.42,-269.50L100.79,-276.72L122.43,-272.62L121.07,-265.40L135.50,-262.67L134.13,-255.45L141.35,-254.09L138.61,-239.66L145.83,-238.29L130.80,-158.92L109.15,-163.02L124.18,-242.39L116.97,-243.76L118.33,-250.97L96.69,-255.07L95.32,-247.85L88.11,-249.22L86.74,-242.01L79.52,-243.37L65.86,-171.22ZM153.57,-154.61L174.07,-262.84L195.72,-258.74L192.98,-244.31L200.20,-242.94L201.56,-250.16L208.78,-248.79L210.15,-256.01L231.79,-251.91L230.43,-244.69L244.86,-241.96L243.49,-234.75L250.71,-233.38L247.97,-218.95L255.19,-217.58L240.16,-138.21L218.51,-142.31L233.54,-221.68L226.33,-223.05L227.69,-230.26L206.05,-234.36L204.68,-227.15L197.47,-228.51L196.10,-221.30L188.88,-222.66L175.22,-150.51ZM263.84,-133.73L284.33,-241.96L305.98,-237.86L285.48,-129.63ZM287.06,-256.39L291.16,-278.04L312.81,-273.94L308.71,-252.29ZM310.74,-124.85L331.23,-233.08L352.88,-228.98L350.15,-214.55L357.36,-213.18L358.73,-220.40L365.94,-219.03L367.31,-226.25L388.96,-222.15L387.59,-214.93L402.02,-212.20L400.65,-204.99L407.87,-203.62L405.14,-189.19L412.35,-187.82L397.32,-108.45L375.68,-112.55L390.71,-191.92L383.49,-193.29L384.86,-200.50L363.21,-204.60L361.84,-197.39L354.63,-198.75L353.26,-191.54L346.05,-192.90L332.38,-120.75ZM415.56,-90.05L422.78,-88.68L424.14,-95.90L438.57,-93.17L437.21,-85.95L444.42,-84.58L443.06,-77.37L479.13,-70.54L480.50,-77.75L487.72,-76.39L493.18,-105.25L485.97,-106.61L484.60,-99.40L477.38,-100.76L476.02,-93.55L447.16,-99.01L448.52,-106.23L434.09,-108.96L435.46,-116.18L428.24,-117.54L430.97,-131.98L423.76,-133.34L433.32,-183.85L440.54,-182.48L443.27,-196.92L450.49,-195.55L451.85,-202.76L466.28,-200.03L467.65,-207.25L496.51,-201.78L495.15,-194.57L502.36,-193.20L501.00,-185.98L508.21,-184.62L510.94,-199.05L532.59,-194.95L508.00,-65.07L500.78,-66.44L499.41,-59.22L492.20,-60.59L490.83,-53.37L476.40,-56.11L475.04,-48.89L438.96,-55.72L440.32,-62.94L425.89,-65.67L427.26,-72.89L420.04,-74.25L421.41,-81.47L414.19,-82.83ZM445.41,-129.24L452.62,-127.88L451.25,-120.66L480.12,-115.20L481.48,-122.41L488.70,-121.05L490.06,-128.26L497.28,-126.89L504.11,-162.97L496.90,-164.34L498.26,-171.55L491.05,-172.92L492.41,-180.14L463.55,-185.60L462.19,-178.39L454.97,-179.75Z" fill="#ffffff" stroke="#000000"/>
    <path d="M-566.27,-305.68L-561.54,-326.96L-554.45,-325.39L-551.30,-339.57L-544.21,-338.00L-539.49,-359.28L-532.40,-357.71L-529.25,-371.89L-522.16,-370.32L-519.01,-384.50L-511.92,-382.93L-508.77,-397.12L-501.67,-395.54L-498.53,-409.73L-491.43,-408.16L-488.29,-422.34L-481.19,-420.77L-478.05,-434.95L-456.77,-430.23L-459.91,-416.05L-452.82,-414.47L-455.97,-400.29L-448.88,-398.71L-452.02,-384.53L-444.93,-382.95L-448.08,-368.77L-440.98,-367.19L-444.13,-353.01L-437.04,-351.43L-440.19,-337.25L-433.09,-335.67L-437.81,-314.39L-430.72,-312.82L-433.87,-298.63L-426.78,-297.06L-431.50,-275.78L-452.78,-280.50L-449.63,-294.69L-456.72,-296.26L-453.57,-310.45L-460.67,-312.02L-457.52,-326.21L-521.36,-340.37L-524.51,-326.19L-531.60,-327.76L-534.75,-313.57L-541.84,-315.15L-544.99,-300.96ZM-509.54,-360.08L-459.89,-349.06L-458.32,-356.15L-465.41,-357.73L-462.26,-371.91L-469.36,-373.49L-466.21,-387.67L-473.30,-389.25L-470.15,-403.43L-477.25,-405.01L-480.40,-390.82L-487.49,-392.40L-490.64,-378.21L-497.73,-379.78L-500.88,-365.60L-507.97,-367.17ZM-343.94,-256.35L-312.47,-398.22L-241.53,-382.48L-243.11,-375.39L-236.01,-373.81L-237.59,-366.72L-230.50,-365.15L-232.07,-358.05L-224.98,-356.48L-232.84,-321.01L-239.94,-322.59L-243.09,-308.40L-235.99,-306.83L-237.57,-299.73L-230.47,-298.16L-239.92,-255.60L-247.01,-257.17L-248.58,-250.08L-255.68,-251.66L-257.25,-244.56L-264.34,-246.14L-265.92,-239.04ZM-317.94,-272.91L-268.29,-261.90L-266.71,-268.99L-259.62,-267.42L-253.33,-295.79L-260.42,-297.36L-258.85,-304.45L-308.50,-315.47ZM-303.78,-336.75L-261.22,-327.31L-259.64,-334.40L-252.55,-332.83L-247.83,-354.11L-254.92,-355.68L-253.35,-362.77L-295.91,-372.22ZM-218.61,-258.32L-207.60,-307.97L-200.50,-306.40L-197.36,-320.58L-190.26,-319.01L-188.69,-326.10L-174.50,-322.95L-172.93,-330.05L-144.56,-323.75L-146.13,-316.66L-131.94,-313.51L-133.52,-306.42L-126.43,-304.84L-129.57,-290.66L-122.48,-289.08L-128.77,-260.71L-192.61,-274.88L-197.33,-253.60L-190.24,-252.02L-191.81,-244.93L-163.44,-238.63L-161.87,-245.73L-154.78,-244.15L-153.20,-251.25L-131.92,-246.53L-135.07,-232.34L-142.16,-233.91L-143.74,-226.82L-150.83,-228.39L-152.40,-221.30L-166.59,-224.45L-168.16,-217.35L-196.54,-223.65L-194.96,-230.74L-209.15,-233.89L-207.57,-240.98L-214.67,-242.56L-211.52,-256.74ZM-189.47,-289.06L-146.91,-279.62L-143.76,-293.81L-150.85,-295.38L-149.28,-302.47L-177.65,-308.77L-179.22,-301.67L-186.32,-303.25ZM-123.65,-192.59L-116.56,-191.02L-114.99,-198.11L-100.80,-194.97L-102.37,-187.87L-95.28,-186.30L-96.86,-179.21L-61.39,-171.34L-59.82,-178.43L-52.72,-176.86L-46.43,-205.23L-53.52,-206.80L-55.09,-199.71L-62.19,-201.28L-63.76,-194.19L-92.13,-200.49L-90.56,-207.58L-104.75,-210.73L-103.17,-217.82L-110.27,-219.39L-107.12,-233.58L-114.21,-235.15L-103.20,-284.81L-96.10,-283.23L-92.95,-297.42L-85.86,-295.84L-84.29,-302.94L-70.10,-299.79L-68.53,-306.88L-40.16,-300.59L-41.73,-293.49L-34.64,-291.92L-36.21,-284.83L-29.12,-283.25L-25.97,-297.44L-4.69,-292.72L-33.02,-165.04L-40.11,-166.62L-41.68,-159.52L-48.78,-161.10L-50.35,-154.00L-64.54,-157.15L-66.11,-150.06L-101.58,-157.93L-100.00,-165.02L-114.19,-168.17L-112.62,-175.26L-119.71,-176.83L-118.13,-183.93L-125.23,-185.50ZM-92.93,-230.43L-85.84,-228.86L-87.41,-221.77L-59.04,-215.47L-57.47,-222.56L-50.37,-220.99L-48.80,-228.08L-41.71,-226.51L-33.84,-261.97L-40.93,-263.55L-39.36,-270.64L-46.45,-272.22L-44.88,-279.31L-73.25,-285.60L-74.82,-278.51L-81.92,-280.08ZM-3.03,-180.72L20.58,-287.11L41.86,-282.39L18.25,-175.99ZM23.73,-301.30L28.45,-322.58L49.73,-317.86L45.01,-296.58ZM43.08,-170.49L66.69,-276.88L87.96,-272.16L84.82,-257.98L91.91,-256.40L93.48,-263.50L100.58,-261.92L102.15,-269.01L123.43,-264.29L121.86,-257.20L136.04,-254.05L134.47,-246.96L141.56,-245.39L138.41,-231.20L145.51,-229.63L128.20,-151.60L106.92,-156.32L124.23,-234.35L117.14,-235.92L118.71,-243.01L97.43,-247.74L95.86,-240.64L88.76,-242.22L87.19,-235.12L80.10,-236.70L64.36,-165.77ZM150.58,-146.63L174.19,-253.03L195.47,-248.31L192.32,-234.12L199.42,-232.55L200.99,-239.64L208.08,-238.07L209.66,-245.16L230.94,-240.44L229.36,-233.35L243.55,-230.20L241.97,-223.11L249.07,-221.53L245.92,-207.35L253.01,-205.77L235.70,-127.75L214.42,-132.47L231.73,-210.49L224.64,-212.07L226.21,-219.16L204.94,-223.88L203.36,-216.79L196.27,-218.36L194.69,-211.27L187.60,-212.84L171.86,-141.91ZM258.98,-122.59L282.58,-228.98L303.86,-224.26L280.26,-117.86ZM285.73,-243.17L290.45,-264.45L311.73,-259.73L307.01,-238.45ZM305.08,-112.36L328.69,-218.75L349.97,-214.03L346.82,-199.85L353.91,-198.27L355.49,-205.36L362.58,-203.79L364.15,-210.88L385.43,-206.16L383.86,-199.07L398.05,-195.92L396.47,-188.83L403.57,-187.26L400.42,-173.07L407.51,-171.50L390.20,-93.47L368.92,-98.19L386.23,-176.22L379.14,-177.79L380.71,-184.88L359.43,-189.60L357.86,-182.51L350.77,-184.09L349.19,-176.99L342.10,-178.57L326.36,-107.63ZM407.67,-74.71L414.76,-73.14L416.33,-80.23L430.52,-77.08L428.95,-69.99L436.04,-68.42L434.47,-61.32L469.93,-53.45L471.50,-60.55L478.60,-58.97L484.89,-87.35L477.80,-88.92L476.23,-81.83L469.13,-83.40L467.56,-76.31L439.19,-82.60L440.76,-89.70L426.57,-92.84L428.15,-99.94L421.05,-101.51L424.20,-115.70L417.11,-117.27L428.13,-166.92L435.22,-165.35L438.37,-179.53L445.46,-177.96L447.03,-185.05L461.22,-181.91L462.79,-189.00L491.17,-182.70L489.59,-175.61L496.68,-174.04L495.11,-166.94L502.20,-165.37L505.35,-179.56L526.63,-174.84L498.30,-47.16L491.21,-48.73L489.64,-41.64L482.54,-43.21L480.97,-36.12L466.78,-39.27L465.21,-32.17L429.74,-40.04L431.32,-47.14L417.13,-50.28L418.71,-57.38L411.61,-58.95L413.19,-66.04L406.09,-67.62ZM438.39,-112.55L445.48,-110.97L443.91,-103.88L472.28,-97.59L473.85,-104.68L480.95,-103.11L482.52,-110.20L489.61,-108.63L497.48,-144.09L490.39,-145.66L491.96,-152.76L484.87,-154.33L486.44,-161.42L458.07,-167.72L456.50,-160.63L449.40,-162.20Z" fill="#ffffff" stroke="#000000"/>
    <path d="M-556.50,-318.41L-551.18,-339.30L-544.22,-337.53L-540.67,-351.45L-533.70,-349.68L-528.38,-370.57L-521.41,-368.80L-517.86,-382.73L-510.90,-380.95L-507.35,-394.88L-500.38,-393.11L-496.83,-407.04L-489.87,-405.26L-486.32,-419.19L-479.35,-417.42L-475.80,-431.35L-468.84,-429.57L-465.29,-443.50L-444.39,-438.18L-447.94,-424.25L-440.98,-422.47L-444.53,-408.55L-437.56,-406.77L-441.11,-392.84L-434.15,-391.07L-437.70,-377.14L-430.73,-375.36L-434.28,-361.43L-427.32,-359.66L-430.87,-345.73L-423.90,-343.95L-429.23,-323.06L-422.26,-321.28L-425.81,-307.35L-418.85,-305.58L-424.17,-284.68L-445.07,-290.01L-441.52,-303.94L-448.48,-305.71L-444.93,-319.64L-451.90,-321.42L-448.35,-335.35L-511.03,-351.32L-514.58,-337.39L-521.55,-339.17L-525.10,-325.24L-532.06,-327.01L-535.61,-313.08ZM-498.74,-370.44L-449.99,-358.02L-448.21,-364.98L-455.18,-366.76L-451.63,-380.69L-458.59,-382.46L-455.04,-396.39L-462.01,-398.17L-458.46,-412.09L-465.42,-413.87L-468.97,-399.94L-475.94,-401.71L-479.49,-387.78L-486.45,-389.56L-490.00,-375.63L-496.97,-377.40ZM-338.20,-262.77L-302.70,-402.07L-233.05,-384.32L-234.83,-377.36L-227.86,-375.58L-229.64,-368.62L-222.67,-366.84L-224.45,-359.88L-217.48,-358.10L-226.36,-323.28L-233.32,-325.05L-236.87,-311.12L-229.91,-309.35L-231.68,-302.38L-224.72,-300.61L-235.37,-258.82L-242.33,-260.59L-244.11,-253.63L-251.07,-255.40L-252.84,-248.44L-259.81,-250.21L-261.58,-243.25ZM-311.98,-278.34L-263.22,-265.92L-261.45,-272.88L-254.49,-271.11L-247.39,-298.97L-254.35,-300.74L-252.58,-307.71L-301.33,-320.13ZM-296.01,-341.03L-254.22,-330.38L-252.44,-337.34L-245.48,-335.57L-240.15,-356.46L-247.12,-358.24L-245.34,-365.20L-287.13,-375.85ZM-214.22,-260.85L-201.79,-309.60L-194.83,-307.83L-191.28,-321.76L-184.32,-319.98L-182.54,-326.95L-168.61,-323.40L-166.84,-330.36L-138.98,-323.26L-140.75,-316.30L-126.82,-312.75L-128.60,-305.78L-121.63,-304.01L-125.18,-290.08L-118.22,-288.30L-125.32,-260.44L-188.00,-276.42L-193.32,-255.52L-186.36,-253.75L-188.13,-246.78L-160.27,-239.68L-158.50,-246.65L-151.54,-244.87L-149.76,-251.84L-128.87,-246.51L-132.42,-232.58L-139.38,-234.36L-141.16,-227.39L-148.12,-229.17L-149.89,-222.20L-163.82,-225.75L-165.60,-218.79L-193.46,-225.89L-191.68,-232.85L-205.61,-236.40L-203.84,-243.37L-210.80,-245.14L-207.25,-259.07ZM-184.45,-290.35L-142.66,-279.70L-139.11,-293.63L-146.08,-295.40L-144.30,-302.37L-172.16,-309.47L-173.94,-302.50L-180.90,-304.28ZM-122.35,-192.93L-115.39,-191.16L-113.61,-198.12L-99.68,-194.57L-101.46,-187.61L-94.49,-185.83L-96.27,-178.87L-61.44,-170.00L-59.67,-176.96L-52.70,-175.19L-45.61,-203.05L-52.57,-204.82L-54.35,-197.86L-61.31,-199.63L-63.08,-192.67L-90.94,-199.76L-89.17,-206.73L-103.10,-210.28L-101.32,-217.24L-108.29,-219.02L-104.74,-232.95L-111.70,-234.72L-99.28,-283.48L-92.32,-281.70L-88.77,-295.63L-81.80,-293.86L-80.03,-300.82L-66.10,-297.27L-64.32,-304.24L-36.46,-297.14L-38.24,-290.17L-31.27,-288.40L-33.05,-281.43L-26.08,-279.66L-22.53,-293.59L-1.64,-288.26L-33.59,-162.90L-40.55,-164.67L-42.32,-157.71L-49.29,-159.48L-51.06,-152.52L-64.99,-156.07L-66.77,-149.10L-101.59,-157.98L-99.82,-164.94L-113.75,-168.49L-111.97,-175.45L-118.94,-177.23L-117.16,-184.19L-124.13,-185.97ZM-90.81,-229.40L-83.84,-227.62L-85.62,-220.66L-57.76,-213.56L-55.99,-220.52L-49.02,-218.75L-47.25,-225.71L-40.28,-223.94L-31.41,-258.76L-38.37,-260.54L-36.60,-267.50L-43.56,-269.28L-41.79,-276.24L-69.65,-283.34L-71.42,-276.38L-78.39,-278.15ZM-3.45,-177.47L23.18,-281.94L44.07,-276.62L17.45,-172.14ZM26.73,-295.87L32.05,-316.77L52.94,-311.44L47.62,-290.55ZM41.82,-165.93L68.45,-270.40L89.34,-265.08L85.79,-251.15L92.76,-249.37L94.53,-256.34L101.50,-254.56L103.27,-261.53L124.17,-256.21L122.39,-249.24L136.32,-245.69L134.55,-238.73L141.51,-236.95L137.96,-223.02L144.93,-221.25L125.40,-144.63L104.51,-149.96L124.03,-226.57L117.07,-228.35L118.84,-235.31L97.95,-240.64L96.17,-233.67L89.21,-235.45L87.43,-228.48L80.47,-230.26L62.72,-160.61ZM147.39,-139.03L174.01,-243.50L194.90,-238.18L191.35,-224.25L198.32,-222.47L200.09,-229.44L207.06,-227.66L208.83,-234.63L229.73,-229.30L227.95,-222.34L241.88,-218.79L240.11,-211.82L247.07,-210.05L243.52,-196.12L250.49,-194.35L230.96,-117.73L210.07,-123.06L229.59,-199.67L222.63,-201.44L224.40,-208.41L203.51,-213.73L201.73,-206.77L194.77,-208.54L192.99,-201.58L186.03,-203.35L168.28,-133.71ZM253.82,-111.91L280.44,-216.38L301.34,-211.06L274.71,-106.58ZM283.99,-230.31L289.32,-251.21L310.21,-245.88L304.89,-224.99ZM299.09,-100.37L325.71,-204.84L346.61,-199.52L343.06,-185.59L350.02,-183.81L351.80,-190.78L358.76,-189.00L360.54,-195.97L381.43,-190.64L379.66,-183.68L393.59,-180.13L391.81,-173.17L398.78,-171.39L395.23,-157.46L402.19,-155.69L382.67,-79.07L361.77,-84.40L381.30,-161.01L374.33,-162.79L376.11,-169.75L355.21,-175.07L353.44,-168.11L346.47,-169.88L344.70,-162.92L337.73,-164.69L319.98,-95.05ZM399.36,-59.98L406.33,-58.21L408.10,-65.17L422.03,-61.62L420.26,-54.66L427.22,-52.88L425.45,-45.92L460.27,-37.04L462.05,-44.01L469.01,-42.23L476.11,-70.09L469.14,-71.87L467.37,-64.90L460.40,-66.68L458.63,-59.71L430.77,-66.81L432.55,-73.78L418.62,-77.33L420.39,-84.29L413.43,-86.07L416.98,-100.00L410.01,-101.77L422.43,-150.53L429.40,-148.75L432.95,-162.68L439.91,-160.91L441.69,-167.87L455.62,-164.32L457.39,-171.29L485.25,-164.19L483.48,-157.22L490.44,-155.45L488.67,-148.48L495.63,-146.71L499.18,-160.64L520.08,-155.31L488.13,-29.95L481.16,-31.72L479.39,-24.76L472.43,-26.53L470.65,-19.57L456.72,-23.11L454.95,-16.15L420.12,-25.02L421.90,-31.99L407.97,-35.54L409.74,-42.50L402.78,-44.28L404.55,-51.24L397.59,-53.02ZM430.91,-96.45L437.87,-94.67L436.10,-87.71L463.95,-80.61L465.73,-87.57L472.69,-85.80L474.47,-92.76L481.43,-90.99L490.31,-125.81L483.34,-127.59L485.12,-134.55L478.15,-136.33L479.93,-143.29L452.07,-150.39L450.29,-143.43L443.33,-145.20Z" fill="#ffffff" stroke="#000000"/>
    <path d="M-546.37,-330.85L-540.46,-351.34L-533.63,-349.37L-529.69,-363.03L-522.86,-361.06L-516.95,-381.56L-510.12,-379.59L-506.18,-393.25L-499.35,-391.28L-495.41,-404.94L-488.58,-402.97L-484.64,-416.63L-477.81,-414.66L-473.87,-428.33L-467.04,-426.36L-463.10,-440.02L-456.27,-438.05L-452.33,-451.71L-431.84,-445.80L-435.77,-432.14L-428.94,-430.17L-432.88,-416.51L-426.05,-414.54L-429.99,-400.88L-423.16,-398.91L-427.10,-385.25L-420.27,-383.28L-424.21,-369.61L-417.38,-367.64L-421.31,-353.98L-414.48,-352.01L-420.39,-331.52L-413.56,-329.55L-417.50,-315.89L-410.67,-313.92L-416.58,-293.42L-437.07,-299.33L-433.13,-313.00L-439.96,-314.97L-436.02,-328.63L-442.86,-330.60L-438.92,-344.26L-500.40,-361.99L-504.34,-348.32L-511.17,-350.29L-515.11,-336.63L-521.94,-338.60L-525.88,-324.94ZM-487.66,-380.51L-439.84,-366.72L-437.87,-373.55L-444.70,-375.52L-440.76,-389.18L-447.59,-391.15L-443.65,-404.82L-450.48,-406.79L-446.54,-420.45L-453.38,-422.42L-457.31,-408.76L-464.15,-410.73L-468.09,-397.06L-474.92,-399.03L-478.86,-385.37L-485.69,-387.34ZM-332.26,-269.11L-292.87,-405.73L-224.55,-386.04L-226.52,-379.21L-219.69,-377.24L-221.66,-370.41L-214.83,-368.44L-216.80,-361.61L-209.97,-359.64L-219.82,-325.48L-226.65,-327.45L-230.59,-313.79L-223.76,-311.82L-225.73,-304.99L-218.90,-303.02L-230.71,-262.03L-237.54,-264.00L-239.51,-257.17L-246.34,-259.14L-248.31,-252.31L-255.15,-254.28L-257.11,-247.45ZM-305.85,-283.70L-258.04,-269.91L-256.07,-276.74L-249.24,-274.77L-241.36,-302.10L-248.19,-304.07L-246.22,-310.90L-294.04,-324.68ZM-288.13,-345.18L-247.14,-333.36L-245.17,-340.19L-238.34,-338.22L-232.43,-358.71L-239.26,-360.68L-237.29,-367.51L-278.28,-379.33ZM-209.74,-263.38L-195.96,-311.20L-189.13,-309.23L-185.19,-322.89L-178.36,-320.93L-176.39,-327.76L-162.72,-323.82L-160.75,-330.65L-133.43,-322.77L-135.40,-315.94L-121.74,-312.00L-123.71,-305.17L-116.88,-303.20L-120.81,-289.54L-113.98,-287.57L-121.86,-260.24L-183.34,-277.97L-189.25,-257.48L-182.42,-255.51L-184.39,-248.68L-157.06,-240.80L-155.10,-247.63L-148.26,-245.66L-146.29,-252.49L-125.80,-246.58L-129.74,-232.92L-136.57,-234.89L-138.54,-228.06L-145.37,-230.03L-147.34,-223.20L-161.00,-227.13L-162.97,-220.30L-190.30,-228.18L-188.33,-235.01L-201.99,-238.95L-200.02,-245.78L-206.85,-247.75L-202.91,-261.42ZM-179.40,-291.63L-138.42,-279.81L-134.48,-293.48L-141.31,-295.45L-139.34,-302.28L-166.66,-310.16L-168.63,-303.32L-175.46,-305.29ZM-121.02,-193.41L-114.19,-191.44L-112.22,-198.27L-98.55,-194.33L-100.52,-187.50L-93.69,-185.53L-95.66,-178.70L-61.51,-168.85L-59.54,-175.68L-52.71,-173.71L-44.83,-201.04L-51.66,-203.01L-53.63,-196.18L-60.46,-198.14L-62.43,-191.31L-89.75,-199.19L-87.78,-206.02L-101.45,-209.96L-99.48,-216.79L-106.31,-218.76L-102.37,-232.43L-109.20,-234.39L-95.41,-282.21L-88.58,-280.24L-84.64,-293.91L-77.81,-291.94L-75.84,-298.77L-62.18,-294.83L-60.21,-301.66L-32.88,-293.78L-34.85,-286.95L-28.02,-284.98L-29.99,-278.15L-23.16,-276.18L-19.22,-289.84L1.27,-283.93L-34.18,-160.97L-41.01,-162.94L-42.98,-156.11L-49.81,-158.08L-51.78,-151.25L-65.45,-155.19L-67.41,-148.36L-101.57,-158.21L-99.60,-165.04L-113.26,-168.98L-111.29,-175.81L-118.12,-177.78L-116.15,-184.61L-122.99,-186.58ZM-88.71,-228.49L-81.87,-226.52L-83.84,-219.69L-56.52,-211.81L-54.55,-218.64L-47.72,-216.67L-45.75,-223.50L-38.92,-221.53L-29.07,-255.69L-35.90,-257.66L-33.93,-264.49L-40.76,-266.46L-38.79,-273.29L-66.12,-281.17L-68.09,-274.33L-74.92,-276.30ZM-3.94,-174.45L25.61,-276.92L46.10,-271.01L16.56,-168.54ZM29.55,-290.58L35.45,-311.07L55.95,-305.16L50.04,-284.67ZM40.47,-161.65L70.01,-264.11L90.50,-258.20L86.56,-244.54L93.39,-242.57L95.36,-249.40L102.19,-247.43L104.16,-254.27L124.66,-248.36L122.69,-241.53L136.35,-237.59L134.38,-230.76L141.21,-228.79L137.27,-215.12L144.10,-213.15L122.44,-138.01L101.94,-143.92L123.61,-219.06L116.78,-221.03L118.75,-227.86L98.26,-233.77L96.29,-226.94L89.45,-228.91L87.49,-222.08L80.65,-224.05L60.96,-155.74ZM144.00,-131.80L173.54,-234.26L194.04,-228.35L190.10,-214.69L196.93,-212.72L198.90,-219.55L205.73,-217.58L207.70,-224.41L228.19,-218.50L226.22,-211.67L239.88,-207.73L237.91,-200.90L244.75,-198.93L240.81,-185.27L247.64,-183.30L225.97,-108.16L205.48,-114.07L227.14,-189.21L220.31,-191.18L222.28,-198.01L201.79,-203.92L199.82,-197.09L192.99,-199.06L191.02,-192.23L184.19,-194.20L164.49,-125.89ZM248.39,-101.70L277.93,-204.16L298.42,-198.26L268.88,-95.79ZM281.87,-217.83L287.78,-238.32L308.27,-232.41L302.36,-211.92ZM292.79,-88.89L322.33,-191.36L342.83,-185.45L338.89,-171.79L345.72,-169.82L347.69,-176.65L354.52,-174.68L356.49,-181.51L376.98,-175.60L375.01,-168.77L388.67,-164.83L386.70,-158.00L393.54,-156.03L389.60,-142.37L396.43,-140.40L374.76,-65.26L354.27,-71.17L375.93,-146.31L369.10,-148.28L371.07,-155.11L350.58,-161.02L348.61,-154.19L341.78,-156.16L339.81,-149.33L332.98,-151.30L313.28,-82.99ZM390.68,-45.87L397.51,-43.90L399.48,-50.74L413.14,-46.80L411.17,-39.96L418.00,-38.00L416.03,-31.16L450.19,-21.32L452.16,-28.15L458.99,-26.18L466.87,-53.50L460.03,-55.47L458.06,-48.64L451.23,-50.61L449.26,-43.78L421.94,-51.66L423.91,-58.49L410.25,-62.43L412.22,-69.26L405.39,-71.23L409.32,-84.89L402.49,-86.86L416.28,-134.68L423.11,-132.71L427.05,-146.37L433.88,-144.40L435.85,-151.23L449.51,-147.29L451.48,-154.12L478.81,-146.25L476.84,-139.41L483.67,-137.44L481.70,-130.61L488.53,-128.64L492.47,-142.31L512.96,-136.40L477.51,-13.44L470.68,-15.41L468.71,-8.58L461.88,-10.55L459.91,-3.71L446.25,-7.65L444.28,-0.82L410.12,-10.67L412.09,-17.50L398.43,-21.44L400.40,-28.27L393.57,-30.24L395.54,-37.07L388.71,-39.04ZM422.99,-80.95L429.82,-78.98L427.85,-72.15L455.17,-64.27L457.14,-71.10L463.97,-69.13L465.94,-75.96L472.77,-74.00L482.62,-108.15L475.79,-110.12L477.76,-116.95L470.93,-118.92L472.90,-125.75L445.57,-133.63L443.60,-126.80L436.77,-128.77Z" fill="#ffffff" stroke="#000000"/>
    <path d="M-535.87,-342.99L-529.39,-363.07L-522.70,-360.91L-518.39,-374.29L-511.69,-372.14L-505.22,-392.21L-498.53,-390.05L-494.21,-403.44L-487.52,-401.28L-483.21,-414.66L-476.51,-412.51L-472.20,-425.89L-465.51,-423.73L-461.19,-437.12L-454.50,-434.96L-450.18,-448.34L-443.49,-446.19L-439.18,-459.57L-419.10,-453.10L-423.42,-439.71L-416.72,-437.55L-421.04,-424.17L-414.35,-422.01L-418.66,-408.63L-411.97,-406.47L-416.29,-393.09L-409.59,-390.93L-413.91,-377.55L-407.22,-375.39L-411.53,-362.00L-404.84,-359.85L-411.31,-339.77L-404.62,-337.61L-408.94,-324.23L-402.25,-322.07L-408.72,-301.99L-428.79,-308.47L-424.48,-321.85L-431.17,-324.01L-426.86,-337.39L-433.55,-339.55L-429.23,-352.94L-489.46,-372.35L-493.78,-358.97L-500.47,-361.13L-504.78,-347.74L-511.47,-349.90L-515.79,-336.52ZM-476.29,-390.27L-429.45,-375.17L-427.29,-381.86L-433.99,-384.02L-429.67,-397.40L-436.36,-399.56L-432.05,-412.94L-438.74,-415.10L-434.42,-428.49L-441.12,-430.64L-445.43,-417.26L-452.12,-419.42L-456.44,-406.03L-463.13,-408.19L-467.45,-394.81L-474.14,-396.96ZM-326.11,-275.36L-282.96,-409.20L-216.04,-387.62L-218.20,-380.93L-211.51,-378.77L-213.66,-372.08L-206.97,-369.92L-209.13,-363.23L-202.44,-361.07L-213.23,-327.61L-219.92,-329.77L-224.23,-316.39L-217.54,-314.23L-219.70,-307.54L-213.01,-305.38L-225.95,-265.23L-232.64,-267.39L-234.80,-260.69L-241.49,-262.85L-243.65,-256.16L-250.34,-258.32L-252.50,-251.63ZM-299.56,-288.96L-252.72,-273.86L-250.56,-280.55L-243.87,-278.39L-235.24,-305.16L-241.93,-307.32L-239.77,-314.01L-286.62,-329.12ZM-280.15,-349.19L-239.99,-336.25L-237.84,-342.94L-231.14,-340.78L-224.67,-360.86L-231.36,-363.01L-229.21,-369.71L-269.36,-382.65ZM-205.18,-265.92L-190.08,-312.76L-183.39,-310.61L-179.07,-323.99L-172.38,-321.83L-170.22,-328.52L-156.84,-324.21L-154.68,-330.90L-127.91,-322.27L-130.07,-315.58L-116.69,-311.26L-118.84,-304.57L-112.15,-302.41L-116.47,-289.03L-109.78,-286.87L-118.41,-260.10L-178.63,-279.52L-185.11,-259.45L-178.41,-257.29L-180.57,-250.60L-153.80,-241.97L-151.65,-248.66L-144.95,-246.50L-142.80,-253.19L-122.72,-246.72L-127.04,-233.34L-133.73,-235.49L-135.89,-228.80L-142.58,-230.96L-144.74,-224.27L-158.12,-228.58L-160.28,-221.89L-187.05,-230.52L-184.89,-237.21L-198.27,-241.53L-196.11,-248.22L-202.81,-250.38L-198.49,-263.76ZM-174.32,-292.91L-134.17,-279.96L-129.85,-293.34L-136.54,-295.50L-134.39,-302.19L-161.15,-310.83L-163.31,-304.13L-170.00,-306.29ZM-119.63,-194.01L-112.94,-191.85L-110.78,-198.54L-97.40,-194.23L-99.56,-187.54L-92.86,-185.38L-95.02,-178.69L-61.56,-167.90L-59.40,-174.59L-52.71,-172.43L-44.08,-199.20L-50.77,-201.36L-52.93,-194.67L-59.62,-196.82L-61.78,-190.13L-88.55,-198.76L-86.39,-205.45L-99.77,-209.77L-97.62,-216.46L-104.31,-218.62L-99.99,-232.00L-106.68,-234.16L-91.58,-281.01L-84.89,-278.85L-80.57,-292.23L-73.88,-290.07L-71.72,-296.77L-58.34,-292.45L-56.18,-299.14L-29.41,-290.51L-31.57,-283.82L-24.88,-281.66L-27.04,-274.97L-20.35,-272.81L-16.03,-286.20L4.05,-279.72L-34.79,-159.27L-41.48,-161.43L-43.64,-154.73L-50.33,-156.89L-52.49,-150.20L-65.88,-154.51L-68.03,-147.82L-101.49,-158.61L-99.34,-165.30L-112.72,-169.62L-110.56,-176.31L-117.25,-178.47L-115.10,-185.16L-121.79,-187.32ZM-86.61,-227.69L-79.92,-225.53L-82.07,-218.84L-55.31,-210.21L-53.15,-216.90L-46.46,-214.74L-44.30,-221.43L-37.61,-219.28L-26.82,-252.74L-33.51,-254.89L-31.35,-261.59L-38.05,-263.74L-35.89,-270.44L-62.66,-279.07L-64.81,-272.37L-71.51,-274.53ZM-4.48,-171.66L27.89,-272.04L47.96,-265.56L15.60,-165.18ZM32.20,-285.42L38.67,-305.50L58.75,-299.02L52.28,-278.95ZM39.02,-157.63L71.38,-258.01L91.46,-251.54L87.14,-238.15L93.84,-236.00L95.99,-242.69L102.69,-240.53L104.84,-247.22L124.92,-240.75L122.76,-234.06L136.15,-229.74L133.99,-223.05L140.68,-220.89L136.37,-207.51L143.06,-205.35L119.32,-131.74L99.25,-138.21L122.98,-211.82L116.29,-213.98L118.45,-220.67L98.37,-227.15L96.21,-220.46L89.52,-222.61L87.36,-215.92L80.67,-218.08L59.09,-151.16ZM140.44,-124.93L172.81,-225.31L192.89,-218.84L188.57,-205.45L195.26,-203.29L197.42,-209.99L204.11,-207.83L206.27,-214.52L226.35,-208.05L224.19,-201.36L237.57,-197.04L235.41,-190.35L242.11,-188.19L237.79,-174.81L244.48,-172.65L220.75,-99.04L200.67,-105.51L224.41,-179.12L217.71,-181.28L219.87,-187.97L199.80,-194.45L197.64,-187.75L190.95,-189.91L188.79,-183.22L182.10,-185.38L160.52,-118.46ZM242.71,-91.96L275.07,-192.34L295.15,-185.86L262.78,-85.48ZM279.39,-205.72L285.86,-225.80L305.94,-219.32L299.46,-199.25ZM286.20,-77.93L318.57,-178.31L338.65,-171.84L334.33,-158.46L341.02,-156.30L343.18,-162.99L349.87,-160.83L352.03,-167.52L372.11,-161.05L369.95,-154.36L383.33,-150.04L381.17,-143.35L387.87,-141.19L383.55,-127.81L390.24,-125.65L366.51,-52.04L346.43,-58.51L370.17,-132.13L363.47,-134.28L365.63,-140.97L345.56,-147.45L343.40,-140.76L336.71,-142.91L334.55,-136.22L327.86,-138.38L306.28,-71.46ZM381.64,-32.39L388.33,-30.23L390.49,-36.92L403.88,-32.60L401.72,-25.91L408.41,-23.75L406.25,-17.06L439.71,-6.27L441.87,-12.97L448.56,-10.81L457.19,-37.58L450.50,-39.73L448.34,-33.04L441.65,-35.20L439.49,-28.51L412.72,-37.14L414.88,-43.83L401.50,-48.15L403.66,-54.84L396.96,-57.00L401.28,-70.38L394.59,-72.54L409.69,-119.38L416.38,-117.22L420.70,-130.61L427.39,-128.45L429.55,-135.14L442.93,-130.83L445.09,-137.52L471.86,-128.89L469.70,-122.20L476.39,-120.04L474.23,-113.35L480.93,-111.19L485.24,-124.57L505.32,-118.10L466.48,2.36L459.79,0.20L457.63,6.89L450.94,4.73L448.78,11.43L435.40,7.11L433.24,13.80L399.78,3.01L401.94,-3.68L388.55,-7.99L390.71,-14.69L384.02,-16.84L386.18,-23.54L379.48,-25.69ZM414.66,-66.06L421.36,-63.91L419.20,-57.21L445.97,-48.58L448.12,-55.28L454.82,-53.12L456.97,-59.81L463.67,-57.65L474.45,-91.11L467.76,-93.27L469.92,-99.96L463.23,-102.12L465.39,-108.81L438.62,-117.44L436.46,-110.75L429.77,-112.91Z" fill="#ffffff" stroke="#000000"/>
    <path d="M-913,471.81L-913,468.25L-892.81,468.25L-892.81,471.81L-901.13,471.81L-901.13,492L-904.69,492L-904.69,471.81ZM-891.03,487.25L-891.03,478.94L-889.84,478.94L-889.84,476.56L-888.66,476.56L-888.66,475.38L-886.28,475.38L-886.28,474.19L-881.53,474.19L-881.53,475.38L-879.16,475.38L-879.16,476.56L-877.97,476.56L-877.97,478.94L-876.78,478.94L-876.78,483.69L-887.47,483.69L-887.47,487.25L-886.28,487.25L-886.28,488.44L-881.53,488.44L-881.53,487.25L-880.34,487.25L-880.34,486.06L-876.78,486.06L-876.78,488.44L-877.97,488.44L-877.97,489.63L-879.16,489.63L-879.16,490.81L-881.53,490.81L-881.53,492L-886.28,492L-886.28,490.81L-888.66,490.81L-888.66,489.63L-889.84,489.63L-889.84,487.25ZM-887.47,481.31L-880.34,481.31L-880.34,478.94L-881.53,478.94L-881.53,477.75L-886.28,477.75L-886.28,478.94L-887.47,478.94ZM-873.26,492L-873.26,474.19L-869.69,474.19L-869.69,476.56L-868.51,476.56L-868.51,475.38L-867.32,475.38L-867.32,474.19L-862.57,474.19L-862.57,475.38L-861.38,475.38L-861.38,476.56L-860.19,476.56L-860.19,478.94L-861.38,478.94L-861.38,480.13L-862.57,480.13L-862.57,478.94L-863.76,478.94L-863.76,477.75L-867.32,477.75L-867.32,478.94L-868.51,478.94L-868.51,480.13L-869.69,480.13L-869.69,492ZM-857.15,492L-857.15,474.19L-853.59,474.19L-853.59,476.56L-852.40,476.56L-852.40,475.38L-851.21,475.38L-851.21,474.19L-847.65,474.19L-847.65,475.38L-846.46,475.38L-846.46,476.56L-844.09,476.56L-844.09,475.38L-842.90,475.38L-842.90,474.19L-838.15,474.19L-838.15,475.38L-836.96,475.38L-836.96,476.56L-835.78,476.56L-835.78,478.94L-834.59,478.94L-834.59,492L-838.15,492L-838.15,478.94L-839.34,478.94L-839.34,477.75L-842.90,477.75L-842.90,478.94L-844.09,478.94L-844.09,492L-847.65,492L-847.65,478.94L-848.84,478.94L-848.84,477.75L-851.21,477.75L-851.21,478.94L-852.40,478.94L-852.40,480.13L-853.59,480.13L-853.59,492ZM-830.69,492L-830.69,474.19L-827.13,474.19L-827.13,492ZM-830.69,471.81L-830.69,468.25L-827.13,468.25L-827.13,471.81ZM-822.97,492L-822.97,474.19L-819.41,474.19L-819.41,476.56L-818.22,476.56L-818.22,475.38L-817.04,475.38L-817.04,474.19L-813.47,474.19L-813.47,475.38L-811.10,475.38L-811.10,476.56L-809.91,476.56L-809.91,478.94L-808.72,478.94L-808.72,492L-812.29,492L-812.29,478.94L-813.47,478.94L-813.47,477.75L-817.04,477.75L-817.04,478.94L-818.22,478.94L-818.22,480.13L-819.41,480.13L-819.41,492ZM-805.38,487.25L-805.38,478.94L-804.20,478.94L-804.20,476.56L-803.01,476.56L-803.01,475.38L-800.63,475.38L-800.63,474.19L-795.88,474.19L-795.88,475.38L-794.70,475.38L-794.70,476.56L-793.51,476.56L-793.51,474.19L-789.95,474.19L-789.95,492L-793.51,492L-793.51,489.63L-794.70,489.63L-794.70,490.81L-795.88,490.81L-795.88,492L-800.63,492L-800.63,490.81L-803.01,490.81L-803.01,489.63L-804.20,489.63L-804.20,487.25ZM-801.82,487.25L-800.63,487.25L-800.63,488.44L-795.88,488.44L-795.88,487.25L-794.70,487.25L-794.70,486.06L-793.51,486.06L-793.51,480.13L-794.70,480.13L-794.70,478.94L-795.88,478.94L-795.88,477.75L-800.63,477.75L-800.63,478.94L-801.82,478.94ZM-785.94,492L-785.94,468.25L-782.38,468.25L-782.38,492ZM-778.89,483.69L-778.89,480.13L-765.82,480.13L-765.82,483.69ZM-762.89,484.88L-762.89,475.38L-761.71,475.38L-761.71,473L-760.52,473L-760.52,471.81L-759.33,471.81L-759.33,470.63L-758.14,470.63L-758.14,469.44L-754.58,469.44L-754.58,468.25L-748.64,468.25L-748.64,469.44L-745.08,469.44L-745.08,470.63L-743.89,470.63L-743.89,473L-742.71,473L-742.71,474.19L-741.52,474.19L-741.52,475.38L-746.27,475.38L-746.27,474.19L-747.46,474.19L-747.46,473L-749.83,473L-749.83,471.81L-753.39,471.81L-753.39,473L-755.77,473L-755.77,474.19L-756.96,474.19L-756.96,475.38L-758.14,475.38L-758.14,477.75L-759.33,477.75L-759.33,482.50L-758.14,482.50L-758.14,484.88L-756.96,484.88L-756.96,486.06L-755.77,486.06L-755.77,487.25L-753.39,487.25L-753.39,488.44L-749.83,488.44L-749.83,487.25L-747.46,487.25L-747.46,486.06L-746.27,486.06L-746.27,484.88L-745.08,484.88L-745.08,482.50L-752.21,482.50L-752.21,478.94L-741.52,478.94L-741.52,486.06L-742.71,486.06L-742.71,487.25L-743.89,487.25L-743.89,489.63L-745.08,489.63L-745.08,490.81L-748.64,490.81L-748.64,492L-754.58,492L-754.58,490.81L-758.14,490.81L-758.14,489.63L-759.33,489.63L-759.33,488.44L-760.52,488.44L-760.52,487.25L-761.71,487.25L-761.71,484.88ZM-737.81,492L-737.81,474.19L-734.24,474.19L-734.24,476.56L-733.06,476.56L-733.06,475.38L-731.87,475.38L-731.87,474.19L-727.12,474.19L-727.12,475.38L-725.93,475.38L-725.93,476.56L-724.74,476.56L-724.74,478.94L-725.93,478.94L-725.93,480.13L-727.12,480.13L-727.12,478.94L-728.31,478.94L-728.31,477.75L-731.87,477.75L-731.87,478.94L-733.06,478.94L-733.06,480.13L-734.24,480.13L-734.24,492ZM-722.11,487.25L-722.11,478.94L-720.92,478.94L-720.92,476.56L-719.73,476.56L-719.73,475.38L-717.36,475.38L-717.36,474.19L-712.61,474.19L-712.61,475.38L-710.23,475.38L-710.23,476.56L-709.05,476.56L-709.05,478.94L-707.86,478.94L-707.86,487.25L-709.05,487.25L-709.05,489.63L-710.23,489.63L-710.23,490.81L-712.61,490.81L-712.61,492L-717.36,492L-717.36,490.81L-719.73,490.81L-719.73,489.63L-720.92,489.63L-720.92,487.25ZM-718.55,487.25L-717.36,487.25L-717.36,488.44L-712.61,488.44L-712.61,487.25L-711.42,487.25L-711.42,478.94L-712.61,478.94L-712.61,477.75L-717.36,477.75L-717.36,478.94L-718.55,478.94ZM-704.85,477.75L-704.85,474.19L-702.48,474.19L-702.48,469.44L-698.92,469.44L-698.92,474.19L-694.17,474.19L-694.17,477.75L-698.92,477.75L-698.92,492L-702.48,492L-702.48,477.75ZM-691.38,487.25L-691.38,478.94L-690.20,478.94L-690.20,476.56L-689.01,476.56L-689.01,475.38L-686.63,475.38L-686.63,474.19L-681.88,474.19L-681.88,475.38L-679.51,475.38L-679.51,476.56L-678.32,476.56L-678.32,478.94L-677.13,478.94L-677.13,483.69L-687.82,483.69L-687.82,487.25L-686.63,487.25L-686.63,488.44L-681.88,488.44L-681.88,487.25L-680.70,487.25L-680.70,486.06L-677.13,486.06L-677.13,488.44L-678.32,488.44L-678.32,489.63L-679.51,489.63L-679.51,490.81L-681.88,490.81L-681.88,492L-686.63,492L-686.63,490.81L-689.01,490.81L-689.01,489.63L-690.20,489.63L-690.20,487.25ZM-687.82,481.31L-680.70,481.31L-680.70,478.94L-681.88,478.94L-681.88,477.75L-686.63,477.75L-686.63,478.94L-687.82,478.94ZM-673.79,489.63L-673.79,487.25L-672.61,487.25L-672.61,486.06L-671.42,486.06L-671.42,487.25L-670.23,487.25L-670.23,488.44L-669.04,488.44L-669.04,489.63L-666.67,489.63L-666.67,488.44L-665.48,488.44L-665.48,486.06L-666.67,486.06L-666.67,484.88L-667.86,484.88L-667.86,483.69L-670.23,483.69L-670.23,482.50L-671.42,482.50L-671.42,481.31L-672.61,481.31L-672.61,480.13L-673.79,480.13L-673.79,476.56L-672.61,476.56L-672.61,475.38L-671.42,475.38L-671.42,474.19L-664.29,474.19L-664.29,475.38L-663.11,475.38L-663.11,478.94L-665.48,478.94L-665.48,477.75L-666.67,477.75L-666.67,476.56L-669.04,476.56L-669.04,477.75L-670.23,477.75L-670.23,478.94L-669.04,478.94L-669.04,480.13L-667.86,480.13L-667.86,481.31L-665.48,481.31L-665.48,482.50L-664.29,482.50L-664.29,483.69L-663.11,483.69L-663.11,484.88L-661.92,484.88L-661.92,489.63L-663.11,489.63L-663.11,490.81L-664.29,490.81L-664.29,492L-671.42,492L-671.42,490.81L-672.61,490.81L-672.61,489.63ZM-658.76,487.25L-658.76,478.94L-657.58,478.94L-657.58,476.56L-656.39,476.56L-656.39,475.38L-654.01,475.38L-654.01,474.19L-649.26,474.19L-649.26,475.38L-648.08,475.38L-648.08,476.56L-646.89,476.56L-646.89,474.19L-643.33,474.19L-643.33,499.13L-646.89,499.13L-646.89,489.63L-648.08,489.63L-648.08,490.81L-649.26,490.81L-649.26,492L-654.01,492L-654.01,490.81L-656.39,490.81L-656.39,489.63L-657.58,489.63L-657.58,487.25ZM-655.20,487.25L-654.01,487.25L-654.01,488.44L-649.26,488.44L-649.26,487.25L-648.08,487.25L-648.08,486.06L-646.89,486.06L-646.89,480.13L-648.08,480.13L-648.08,478.94L-649.26,478.94L-649.26,477.75L-654.01,477.75L-654.01,478.94L-655.20,478.94ZM-639.28,489.63L-639.28,474.19L-635.72,474.19L-635.72,487.25L-634.53,487.25L-634.53,488.44L-630.97,488.44L-630.97,487.25L-629.78,487.25L-629.78,486.06L-628.59,486.06L-628.59,474.19L-625.03,474.19L-625.03,492L-628.59,492L-628.59,489.63L-629.78,489.63L-629.78,490.81L-630.97,490.81L-630.97,492L-636.91,492L-636.91,490.81L-638.09,490.81L-638.09,489.63ZM-621.58,487.25L-621.58,478.94L-620.39,478.94L-620.39,476.56L-619.21,476.56L-619.21,475.38L-616.83,475.38L-616.83,474.19L-612.08,474.19L-612.08,475.38L-609.71,475.38L-609.71,476.56L-608.52,476.56L-608.52,478.94L-607.33,478.94L-607.33,483.69L-618.02,483.69L-618.02,487.25L-616.83,487.25L-616.83,488.44L-612.08,488.44L-612.08,487.25L-610.89,487.25L-610.89,486.06L-607.33,486.06L-607.33,488.44L-608.52,488.44L-608.52,489.63L-609.71,489.63L-609.71,490.81L-612.08,490.81L-612.08,492L-616.83,492L-616.83,490.81L-619.21,490.81L-619.21,489.63L-620.39,489.63L-620.39,487.25ZM-618.02,481.31L-610.89,481.31L-610.89,478.94L-612.08,478.94L-612.08,477.75L-616.83,477.75L-616.83,478.94L-618.02,478.94Z"/>
</svg>