<?xml version="1.0"?>
<svg xmlns="http://www.w3.org/2000/svg" width="1920" height="1080" viewBox="-960 -540 1920 1080">
    <path d="M-725.49,-209.93L-656.08,-209.93L-605.95,-220.17L-586.98,-261.23L-597.00,-288.77L-624.96,-304.07L-601.90,-320.08L-595.44,-344.11L-613.60,-380.19L-659.67,-390.05L-725.49,-390.05ZM-701.52,-312.52L-701.56,-368.63L-665.05,-368.63L-633.76,-364.97L-620.44,-341.07L-633.28,-318.51L-661.99,-312.52ZM-701.52,-231.14L-701.48,-291.33L-659.40,-291.33L-627.18,-285.45L-612.75,-261.25L-625.05,-236.20L-656.08,-231.14ZM-481.02,-297.19L-554.33,-274.70L-569.25,-243.62L-555.86,-214.10L-524.14,-204.86L-500.86,-209.38L-479.53,-225.04L-479.63,-210L-458.63,-210L-458.59,-293.86L-470.43,-332.03L-509.34,-345.13L-544.34,-336.58L-561.35,-311.21L-543.50,-300.24L-532.05,-320.00L-511.63,-326.75L-489.75,-320.35ZM-481.02,-277.30L-481.04,-244.38L-496.95,-230.45L-520.54,-223.21L-537.48,-227.60L-545.27,-244.62L-535.23,-262.29ZM-317.51,-340L-340.01,-340L-340.01,-269.52L-349.75,-235.83L-375.17,-224.29L-396.26,-234.05L-402.38,-260.67L-402.38,-340L-424.88,-340L-424.88,-260.50L-416.39,-220.60L-379.79,-204.92L-355.49,-210.94L-337.76,-228.75L-337.76,-210L-317.51,-210ZM-154.88,-210L-154.88,-231.25L-257.88,-231.25L-257.88,-291.25L-169.88,-291.25L-169.88,-312.50L-257.88,-312.50L-257.88,-368.75L-157.38,-368.75L-157.38,-390L-281.63,-390L-281.63,-210ZM-66.02,-323.34L-49.13,-317.75L-42.38,-336.75L-64.40,-345.09L-85.88,-338.43L-100.88,-317.50L-100.88,-340L-121.13,-340L-121.13,-211.27L-98.63,-210L-98.63,-280.25L-90.40,-311.59ZM80.13,-390L57.63,-390L57.63,-326.48L43.53,-339.37L22.69,-344.57L-19.53,-325.00L-34.19,-274.45L-19.53,-223.89L22.69,-204.32L44.74,-210.38L60.13,-227.75L60.13,-210L80.13,-210ZM23.99,-325.45L49.77,-312.57L60.45,-274.45L48.81,-236.33L23.99,-223.46L-1.18,-236.33L-11.22,-274.45L-1.18,-312.57ZM139.99,-234.73L126.88,-269.23L223.38,-269.25L224.63,-278.25L209.74,-325.87L164.64,-345.22L120.53,-326.61L103.95,-275.10L120.53,-223.59L164.64,-204.97L201.78,-215.94L218.88,-242.75L201.36,-253.69L187.72,-231.44L165.91,-224.11ZM127.63,-287.25L141.75,-317.01L164.62,-326.13L190.12,-315.28L200.38,-287.25ZM248.01,-210L270.51,-210L270.51,-280.75L280.26,-314.15L305.69,-325.70L326.77,-315.95L332.88,-289.75L332.88,-210L355.38,-210L355.38,-289.75L346.86,-329.40L310.27,-345.09L285.97,-339.73L268.26,-321.25L268.26,-340L248.01,-340ZM615.63,-266.25L615.63,-285L440.63,-285L440.63,-266.25ZM-630.49,15.07L-561.08,15.07L-510.95,4.83L-491.98,-36.23L-502.00,-63.77L-529.96,-79.07L-506.90,-95.08L-500.44,-119.11L-518.60,-155.19L-564.67,-165.05L-630.49,-165.05ZM-606.52,-87.52L-606.56,-143.63L-570.05,-143.63L-538.76,-139.97L-525.44,-116.07L-538.28,-93.51L-566.99,-87.52ZM-606.52,-6.14L-606.48,-66.33L-564.40,-66.33L-532.18,-60.45L-517.75,-36.25L-530.05,-11.20L-561.08,-6.14ZM-358.76,-115L-381.26,-115L-381.26,-44.52L-391.00,-10.83L-416.42,0.71L-437.51,-9.05L-443.63,-35.67L-443.63,-115L-466.13,-115L-466.13,-35.50L-457.64,4.40L-421.04,20.08L-396.74,14.06L-379.01,-3.75L-379.01,15L-358.76,15ZM-309.55,-136.74L-301.42,-145.64L-301.40,-158.35L-309.69,-167.46L-321.25,-167.46L-329.32,-158.37L-329.33,-145.67L-321.11,-136.74ZM-304.13,15L-304.13,-115L-326.63,-115L-326.63,15ZM-249.13,15L-249.13,-165L-271.63,-165L-271.63,15ZM-111.63,-165L-134.13,-165L-134.13,-101.48L-148.22,-114.37L-169.06,-119.57L-211.28,-100.00L-225.94,-49.45L-211.28,1.11L-169.06,20.68L-147.01,14.62L-131.63,-2.75L-131.63,15L-111.63,15ZM-167.76,-100.45L-141.98,-87.57L-131.30,-49.45L-142.94,-11.33L-167.76,1.54L-192.93,-11.33L-202.97,-49.45L-192.93,-87.57ZM120.88,15L120.88,-6.25L17.88,-6.25L17.88,-66.25L105.88,-66.25L105.88,-87.50L17.88,-87.50L17.88,-143.75L118.38,-143.75L118.38,-165L-5.88,-165L-5.88,15ZM233.98,-72.19L160.67,-49.70L145.75,-18.62L159.14,10.90L190.86,20.14L214.14,15.62L235.47,-0.04L235.38,15L256.38,15L256.41,-68.86L244.57,-107.03L205.66,-120.13L170.66,-111.58L153.65,-86.21L171.50,-75.24L182.95,-95.00L203.37,-101.75L225.25,-95.35ZM233.98,-52.30L233.96,-19.38L218.05,-5.45L194.46,1.79L177.52,-2.60L169.73,-19.62L179.77,-37.29ZM345.98,-98.34L362.88,-92.75L369.63,-111.75L347.60,-120.09L326.12,-113.43L311.13,-92.50L311.13,-115L290.88,-115L290.88,13.73L313.38,15L313.38,-55.25L321.60,-86.59ZM442.32,16.74L442.33,16.74L439.73,-2.65L429.65,-1.14L418.81,-6.63L416.88,-23L416.88,-97.75L439.13,-97.75L439.13,-115L416.88,-115L416.88,-160L394.38,-160L394.38,-115L375.88,-115L375.88,-97.75L394.38,-97.75L394.38,-23L399.51,8.39L425.13,19.15ZM466.88,15L489.54,15L489.54,-55.75L499.29,-88.69L524.70,-100.23L545.80,-90.48L551.89,-63.92L551.88,15L574.32,15L574.42,-64.10L565.87,-103.93L529.29,-119.62L505.29,-114.11L489.50,-97.25L489.50,-165L466.88,-165Z" fill="#ffffff" stroke="#000000"/>
    <path d="M-716.43,-230.49L-647.76,-228.05L-597.80,-236.41L-577.58,-276.37L-586.53,-303.96L-613.66,-320.09L-590.28,-335.12L-583.04,-358.66L-599.74,-395.00L-644.97,-406.38L-710.08,-408.70ZM-689.10,-331.14L-687.17,-386.67L-651.05,-385.38L-620.22,-380.65L-607.88,-356.54L-621.38,-334.67L-649.99,-329.75ZM-691.97,-250.63L-689.80,-310.18L-648.17,-308.70L-616.51,-301.74L-603.08,-277.30L-616.13,-252.95L-647.01,-249.03ZM-471.49,-308.21L-544.81,-288.54L-560.67,-258.32L-548.46,-228.64L-517.39,-218.38L-494.20,-222.04L-472.55,-236.77L-473.18,-221.90L-452.40,-221.16L-449.41,-304.13L-459.78,-342.31L-497.81,-356.64L-532.74,-349.42L-550.46,-324.91L-533.20,-313.43L-521.17,-332.57L-500.73,-338.54L-479.31,-331.44ZM-472.19,-288.53L-473.36,-255.97L-489.59,-242.74L-513.19,-236.41L-529.80,-241.35L-536.90,-258.46L-526.35,-275.59ZM-308.20,-344.81L-330.46,-345.60L-332.94,-275.87L-343.77,-242.89L-369.33,-232.36L-389.85,-242.76L-394.96,-269.31L-392.17,-347.80L-414.43,-348.59L-417.23,-269.94L-410.24,-230.16L-374.58,-213.36L-350.33,-218.46L-332.15,-235.46L-332.81,-216.91L-312.78,-216.19ZM-151.88,-210.47L-151.13,-231.49L-253.03,-235.12L-250.92,-294.48L-163.86,-291.38L-163.11,-312.40L-250.17,-315.50L-248.19,-371.16L-148.76,-367.62L-148.01,-388.64L-270.94,-393.02L-277.28,-214.93ZM-59.97,-319.47L-43.46,-313.35L-36.11,-331.91L-57.60,-340.93L-79.09,-335.10L-94.66,-314.92L-93.87,-337.18L-113.91,-337.90L-118.44,-210.54L-96.22,-208.48L-93.75,-277.99L-84.51,-308.71ZM86.97,-380.28L64.70,-381.07L62.47,-318.22L48.98,-331.47L28.54,-337.35L-13.91,-319.48L-30.20,-269.98L-17.48,-219.44L23.60,-198.60L45.64,-203.82L61.46,-220.46L60.84,-202.89L80.63,-202.19ZM29.15,-318.39L54.21,-304.74L63.43,-266.64L50.58,-229.34L25.56,-217.48L1.12,-231.10L-7.48,-269.17L3.80,-306.53ZM140.73,-224.55L128.97,-259.14L224.44,-255.77L225.99,-264.63L212.94,-312.27L169.00,-333.00L124.70,-316.14L106.50,-265.76L121.08,-214.21L164.06,-194.24L201.20,-203.79L219.06,-229.71L202.11,-241.14L187.84,-219.62L166.00,-213.13ZM130.34,-276.95L145.36,-305.89L168.31,-314.11L193.17,-302.48L202.32,-274.38ZM246.72,-196.28L268.98,-195.49L271.48,-265.48L282.31,-298.19L307.87,-308.71L328.38,-298.33L333.50,-272.19L330.69,-193.29L352.95,-192.50L355.76,-271.40L348.73,-310.93L313.09,-327.74L288.86,-323.29L270.68,-305.63L271.34,-324.18L251.30,-324.90ZM612.42,-238.98L613.08,-257.54L439.94,-263.70L439.28,-245.15ZM-630.36,-4.54L-561.69,-2.09L-511.73,-10.46L-491.52,-50.41L-500.46,-78.01L-527.59,-94.14L-504.21,-109.16L-496.97,-132.71L-513.67,-169.05L-558.90,-180.42L-624.02,-182.74ZM-603.03,-105.19L-601.10,-160.71L-564.98,-159.43L-534.15,-154.70L-521.82,-130.58L-535.31,-108.71L-563.93,-103.80ZM-605.90,-24.67L-603.74,-84.23L-562.11,-82.74L-530.44,-75.79L-517.01,-51.34L-530.06,-26.99L-560.94,-23.07ZM-356.94,-123.65L-379.20,-124.45L-381.68,-54.72L-392.51,-21.73L-418.07,-11.20L-438.58,-21.60L-443.70,-48.15L-440.90,-126.64L-463.16,-127.44L-465.96,-48.78L-458.97,-9.00L-423.32,7.80L-399.07,2.70L-380.89,-14.30L-381.55,4.25L-361.51,4.96ZM-307.49,-143.43L-299.13,-151.95L-298.67,-164.52L-306.55,-173.83L-317.98,-174.24L-326.29,-165.53L-326.74,-152.96L-318.93,-143.83ZM-307.46,6.89L-302.89,-121.73L-325.15,-122.52L-329.72,6.10ZM-253.05,8.82L-246.71,-169.26L-268.97,-170.06L-275.31,8.03ZM-110.67,-164.42L-132.93,-165.21L-135.17,-102.37L-148.66,-115.61L-169.09,-121.50L-211.55,-103.62L-227.84,-54.12L-215.11,-3.59L-174.03,17.26L-152.00,12.04L-136.17,-4.60L-136.80,12.96L-117.01,13.67ZM-168.48,-102.54L-143.43,-88.88L-134.20,-50.79L-147.06,-13.49L-172.08,-1.63L-196.52,-15.25L-205.12,-53.31L-193.83,-90.68ZM113.02,21.85L113.77,0.83L11.86,-2.80L13.98,-62.16L101.04,-59.06L101.79,-80.08L14.72,-83.18L16.71,-138.84L116.14,-135.30L116.89,-156.32L-6.04,-160.70L-12.38,17.39ZM227.99,-60.42L154.67,-40.75L138.81,-10.53L151.02,19.15L182.09,29.41L205.27,25.75L226.93,11.01L226.30,25.89L247.08,26.63L250.06,-56.34L239.70,-94.52L201.67,-108.85L166.74,-101.63L149.01,-77.13L166.28,-65.65L178.31,-84.79L198.75,-90.75L220.17,-83.65ZM227.29,-40.74L226.12,-8.18L209.89,5.05L186.29,11.38L169.68,6.44L162.58,-10.68L173.13,-27.80ZM339.73,-82.36L356.24,-76.23L363.59,-94.79L342.10,-103.81L320.61,-97.99L305.03,-77.80L305.83,-100.06L285.79,-100.78L281.26,26.58L303.47,28.63L305.95,-40.87L315.19,-71.59ZM430.99,34.90L430.99,34.89L429.11,15.62L419.09,16.76L408.55,10.94L407.21,-5.32L409.85,-79.27L431.86,-78.49L432.47,-95.56L410.45,-96.34L412.04,-140.86L389.78,-141.66L388.19,-97.13L369.89,-97.78L369.28,-80.72L387.58,-80.07L384.95,-6.11L388.92,25.13L413.89,36.67ZM455.34,34.04L477.76,34.84L480.26,-35.16L491.07,-67.40L516.62,-77.93L537.14,-67.54L542.23,-41.05L539.44,37.03L561.64,37.82L564.53,-40.44L557.48,-80.14L521.83,-96.95L497.90,-92.35L481.69,-76.22L484.07,-143.25L461.68,-144.05Z" fill="#ffffff" stroke="#000000"/>
    <path d="M-706.70,-250.73L-638.85,-245.89L-589.14,-252.41L-567.73,-291.22L-575.61,-318.84L-601.88,-335.75L-578.22,-349.79L-570.23,-372.83L-585.47,-409.37L-629.82,-422.22L-694.15,-426.80ZM-676.12,-349.34L-672.25,-404.20L-636.57,-401.66L-606.24,-395.89L-594.88,-371.60L-609.00,-350.44L-637.48,-346.59ZM-681.79,-269.79L-677.56,-328.63L-636.42,-325.70L-605.34,-317.70L-592.92,-293.04L-606.69,-269.41L-637.38,-266.63ZM-461.65,-318.99L-534.88,-302.11L-551.63,-272.78L-540.60,-242.98L-510.23,-231.74L-487.16,-234.54L-465.22,-248.36L-466.36,-233.67L-445.83,-232.20L-439.96,-314.18L-448.87,-352.31L-485.99,-367.83L-520.80,-361.91L-539.19,-338.30L-522.52,-326.33L-509.94,-344.84L-489.51,-350.03L-468.57,-342.25ZM-463.04,-299.55L-465.34,-267.38L-481.87,-254.86L-505.44,-249.43L-521.69,-254.90L-528.12,-272.08L-517.07,-288.65ZM-298.83,-349.45L-320.82,-351.02L-325.73,-282.12L-337.61,-249.87L-363.26,-240.36L-383.19,-251.36L-387.32,-277.81L-381.79,-355.36L-403.78,-356.93L-409.32,-279.22L-403.80,-239.62L-369.13,-221.75L-344.95,-225.93L-326.37,-242.11L-327.68,-223.78L-307.89,-222.37ZM-148.91,-211.04L-147.43,-231.81L-248.11,-238.99L-243.93,-297.64L-157.91,-291.51L-156.43,-312.28L-242.45,-318.41L-238.53,-373.40L-140.29,-366.40L-138.81,-387.17L-260.27,-395.83L-272.81,-219.87ZM-54.15,-315.64L-38.03,-309.00L-30.11,-327.10L-51.05,-336.79L-72.52,-331.78L-88.63,-312.36L-87.07,-334.36L-106.86,-335.77L-115.83,-209.93L-93.92,-207.12L-89.03,-275.79L-78.81,-305.86ZM93.35,-370.62L71.35,-372.19L66.93,-310.10L54.05,-323.68L34.04,-330.21L-8.59,-314.02L-26.44,-265.63L-15.63,-215.19L24.27,-193.12L46.25,-197.51L62.49,-213.41L61.26,-196.06L80.81,-194.67ZM33.98,-311.44L58.28,-297.05L66.07,-259.04L52.04,-222.59L26.87,-211.74L3.17,-226.07L-4.00,-264.03L8.48,-300.60ZM141.05,-214.67L130.63,-249.31L224.97,-242.60L226.81,-251.32L215.58,-298.91L172.84,-320.96L128.42,-305.84L108.64,-256.64L121.25,-205.13L163.07,-183.87L200.14,-192.00L218.72,-217.01L202.36,-228.92L187.48,-208.13L165.65,-202.48ZM132.62,-266.87L148.50,-294.98L171.49,-302.30L195.67,-289.92L203.74,-261.80ZM244.91,-182.97L266.91,-181.40L271.84,-250.56L283.70,-282.54L309.37,-292.05L329.29,-281.05L333.43,-255.01L327.88,-177.06L349.87,-175.49L355.43,-253.45L349.86,-292.80L315.19,-310.68L291.07,-307.14L272.46,-290.31L273.77,-308.64L253.97,-310.05ZM608.19,-212.34L609.49,-230.67L438.43,-242.86L437.12,-224.54ZM-629.51,-24.17L-561.67,-19.33L-511.95,-25.85L-490.54,-64.66L-498.42,-92.28L-524.69,-109.19L-501.03,-123.23L-493.04,-146.27L-508.28,-182.81L-552.63,-195.65L-616.96,-200.24ZM-598.93,-122.78L-595.07,-177.64L-559.38,-175.09L-529.05,-169.33L-517.69,-145.04L-531.82,-123.88L-560.30,-120.03ZM-604.60,-43.23L-600.37,-102.07L-559.24,-99.13L-528.16,-91.14L-515.73,-66.48L-529.50,-42.85L-560.19,-40.06ZM-354.83,-132.38L-376.82,-133.95L-381.73,-65.06L-393.61,-32.80L-419.26,-23.29L-439.19,-34.30L-443.32,-60.75L-437.79,-138.30L-459.78,-139.86L-465.32,-62.15L-459.80,-22.55L-425.13,-4.68L-400.95,-8.87L-382.37,-25.04L-383.68,-6.72L-363.88,-5.30ZM-305.22,-150.20L-296.65,-158.33L-295.74,-170.76L-303.21,-180.24L-314.51,-181.05L-323.03,-172.73L-323.92,-160.31L-316.52,-151.01ZM-310.48,-1.50L-301.42,-128.58L-323.42,-130.14L-332.48,-3.07ZM-256.72,2.33L-244.18,-173.62L-266.17,-175.19L-278.71,0.77ZM-109.77,-164.04L-131.76,-165.61L-136.19,-103.51L-149.07,-117.09L-169.08,-123.63L-211.71,-107.44L-229.56,-59.05L-218.75,-8.61L-178.85,13.46L-156.87,9.07L-140.62,-6.83L-141.86,10.52L-122.31,11.91ZM-169.14,-104.86L-144.83,-90.47L-137.05,-52.45L-151.08,-16.01L-176.25,-5.15L-199.95,-19.49L-207.11,-57.45L-194.64,-94.02ZM104.96,28.11L106.44,7.34L5.76,0.16L9.94,-58.49L95.96,-52.35L97.44,-73.13L11.42,-79.26L15.34,-134.24L113.58,-127.24L115.06,-148.01L-6.39,-156.67L-18.94,19.28ZM221.60,-49.23L148.37,-32.36L131.62,-3.02L142.65,26.78L173.02,38.02L196.09,35.22L218.03,21.40L216.89,36.09L237.42,37.55L243.29,-44.42L234.38,-82.55L197.26,-98.07L162.45,-92.15L144.06,-68.54L160.73,-56.57L173.31,-75.08L193.74,-80.27L214.68,-72.49ZM220.21,-29.79L217.91,2.38L201.38,14.90L177.81,20.33L161.56,14.86L155.13,-2.32L166.18,-18.90ZM332.91,-67.00L349.03,-60.35L356.95,-78.46L336.01,-88.14L314.55,-83.13L298.43,-63.71L300.00,-85.71L280.20,-87.12L271.23,38.72L293.14,41.53L298.03,-27.14L308.26,-57.21ZM419.06,52.21L419.07,52.21L417.88,33.08L407.93,33.85L397.71,27.72L396.96,11.59L402.17,-61.48L423.92,-59.93L425.12,-76.79L403.37,-78.34L406.50,-122.33L384.51,-123.90L381.37,-79.91L363.29,-81.20L362.09,-64.33L380.17,-63.05L374.96,10.02L377.79,41.07L402.09,53.37ZM443.19,52.22L465.34,53.80L470.27,-15.36L482.10,-46.87L507.74,-56.39L527.69,-45.39L531.79,-19.00L526.28,58.14L548.21,59.71L553.82,-17.61L548.24,-57.14L513.57,-75.02L489.73,-71.31L473.13,-55.93L477.85,-122.16L455.73,-123.73Z" fill="#ffffff" stroke="#000000"/>
    <path d="M-696.31,-270.62L-629.37,-263.45L-579.97,-268.15L-557.43,-305.79L-564.25,-333.38L-589.63,-351.03L-565.74,-364.09L-557.02,-386.60L-570.81,-423.28L-614.23,-437.54L-677.70,-444.34ZM-662.60,-367.09L-656.84,-421.22L-621.63,-417.44L-591.83,-410.68L-581.45,-386.25L-596.17,-365.81L-624.47,-363.01ZM-671.01,-288.60L-664.74,-346.65L-624.16,-342.30L-593.70,-333.30L-582.28,-308.47L-596.73,-285.58L-627.18,-283.90ZM-451.52,-329.52L-524.55,-315.40L-542.15,-286.97L-532.29,-257.11L-502.64,-244.92L-479.72,-246.88L-457.53,-259.77L-459.18,-245.28L-438.92,-243.11L-430.23,-323.99L-437.70,-362.03L-473.87,-378.68L-508.51,-374.05L-527.54,-351.34L-511.46,-338.92L-498.37,-356.79L-477.98,-361.20L-457.54,-352.76ZM-453.57,-310.33L-456.99,-278.59L-473.77,-266.79L-497.28,-262.25L-513.16,-268.23L-518.91,-285.46L-507.41,-301.46ZM-289.38,-353.91L-311.09,-356.24L-318.37,-288.26L-331.25,-256.78L-356.96,-248.27L-376.29,-259.86L-379.44,-286.17L-371.24,-362.68L-392.94,-365.01L-401.16,-288.33L-397.09,-248.97L-363.42,-230.07L-339.36,-233.36L-320.41,-248.71L-322.35,-230.62L-302.82,-228.53ZM-145.96,-211.72L-143.77,-232.22L-243.11,-242.86L-236.91,-300.73L-152.04,-291.64L-149.84,-312.13L-234.71,-321.23L-228.90,-375.48L-131.97,-365.09L-129.77,-385.59L-249.61,-398.43L-268.21,-224.82ZM-48.55,-311.86L-32.84,-304.72L-24.36,-322.35L-44.74,-332.66L-66.15,-328.46L-82.77,-309.83L-80.45,-331.53L-99.98,-333.62L-113.28,-209.46L-91.71,-205.91L-84.45,-273.67L-73.28,-303.05ZM99.29,-361.05L77.59,-363.37L71.02,-302.11L58.76,-315.99L39.20,-323.17L-3.54,-308.65L-22.90,-261.41L-13.99,-211.14L24.71,-187.90L46.60,-191.47L63.23,-206.63L61.40,-189.51L80.69,-187.44ZM38.48,-304.60L62.01,-289.51L68.38,-251.63L53.21,-216.07L27.94,-206.22L5.00,-221.24L-0.75,-259.04L12.88,-294.77ZM140.98,-205.10L131.90,-239.73L224.97,-229.78L227.11,-238.33L217.67,-285.80L176.17,-309.12L131.70,-295.73L110.40,-247.76L121.06,-196.37L161.68,-173.86L198.64,-180.60L217.89,-204.69L202.13,-217.05L186.68,-197.00L164.89,-192.18ZM134.48,-257.04L151.18,-284.28L174.18,-290.71L197.66,-277.62L204.65,-249.52ZM242.61,-170.09L264.31,-167.77L271.62,-236.00L284.48,-267.21L310.20,-275.72L329.52,-264.14L332.70,-238.24L324.46,-161.32L346.16,-159.00L354.40,-235.91L350.29,-275.03L316.62,-293.95L292.63,-291.29L273.63,-275.30L275.57,-293.38L256.04,-295.48ZM602.98,-186.36L604.92,-204.44L436.13,-222.52L434.20,-204.44ZM-627.94,-43.80L-561.00,-36.62L-511.59,-41.32L-489.05,-78.96L-495.87,-106.56L-521.26,-124.21L-497.36,-137.26L-488.65,-159.77L-502.44,-196.45L-545.85,-210.72L-609.33,-217.52ZM-594.22,-140.26L-588.46,-194.39L-553.25,-190.62L-523.45,-183.85L-513.08,-159.42L-527.79,-138.99L-556.10,-136.18ZM-602.63,-61.78L-596.37,-119.83L-555.79,-115.48L-525.32,-106.47L-513.90,-81.64L-528.35,-58.76L-558.81,-57.08ZM-352.42,-141.17L-374.12,-143.49L-381.40,-75.52L-394.28,-44.03L-420.00,-35.53L-439.33,-47.12L-442.47,-73.42L-434.27,-149.94L-455.98,-152.26L-464.19,-75.59L-460.13,-36.22L-426.45,-17.32L-402.40,-20.61L-383.45,-35.96L-385.38,-17.88L-365.85,-15.78ZM-302.72,-157.05L-293.96,-164.79L-292.62,-177.05L-299.68,-186.69L-310.83,-187.89L-319.55,-179.96L-320.87,-167.71L-313.87,-158.24ZM-313.16,-10.14L-299.73,-135.52L-321.43,-137.85L-334.86,-12.46ZM-260.12,-4.46L-241.52,-178.06L-263.22,-180.39L-281.82,-6.78ZM-108.90,-163.85L-130.60,-166.18L-137.16,-104.92L-149.43,-118.80L-168.99,-125.97L-211.73,-111.46L-231.09,-64.22L-222.18,-13.94L-183.48,9.29L-161.59,5.73L-144.96,-9.43L-146.79,7.69L-127.50,9.75ZM-169.71,-107.40L-146.18,-92.31L-139.81,-54.44L-154.98,-18.88L-180.25,-9.03L-203.19,-24.05L-208.94,-61.84L-195.31,-97.58ZM96.74,33.78L98.94,13.28L-0.40,2.64L5.80,-55.23L90.67,-46.14L92.87,-66.63L7.99,-75.72L13.80,-129.98L110.73,-119.59L112.93,-140.09L-6.91,-152.93L-25.51,20.68ZM214.84,-38.62L141.80,-24.51L124.20,3.92L134.07,33.78L163.71,45.97L186.63,44.01L208.82,31.12L207.17,45.61L227.43,47.78L236.12,-33.10L228.65,-71.13L192.48,-87.79L157.84,-83.16L138.81,-60.45L154.89,-48.03L167.98,-65.90L188.37,-70.30L208.81,-61.87ZM212.78,-19.44L209.37,12.30L192.58,24.10L169.08,28.64L153.19,22.66L147.44,5.44L158.94,-10.57ZM325.56,-52.28L341.28,-45.14L349.75,-62.76L329.37,-73.08L307.97,-68.88L291.34,-50.24L293.67,-71.94L274.14,-74.04L260.83,50.12L282.40,53.67L289.66,-14.08L300.84,-43.47ZM406.59,68.68L406.59,68.67L406.09,49.70L396.22,50.12L386.33,43.70L386.15,27.72L393.88,-44.38L415.34,-42.08L417.12,-58.72L395.66,-61.02L400.31,-104.42L378.61,-106.74L373.96,-63.34L356.12,-65.25L354.33,-48.62L372.18,-46.70L364.45,25.39L366.16,56.20L389.76,69.22ZM430.45,69.53L452.31,71.87L459.62,3.64L472.43,-27.12L498.13,-35.63L517.47,-24.04L520.60,2.20L512.43,78.32L534.08,80.64L542.35,4.35L538.22,-34.94L504.56,-53.86L480.84,-51.02L463.88,-36.39L470.88,-101.74L449.05,-104.07Z" fill="#ffffff" stroke="#000000"/>
    <path d="M-685.28,-290.14L-619.33,-280.69L-570.29,-283.60L-546.67,-320.03L-552.45,-347.56L-576.94,-365.92L-552.84,-377.99L-543.43,-399.94L-555.78,-436.71L-598.22,-452.35L-660.76,-461.31ZM-648.54,-384.37L-640.94,-437.70L-606.24,-432.73L-577.01,-424.99L-567.61,-400.46L-582.88,-380.77L-610.98,-378.99ZM-659.62,-307.03L-651.38,-364.23L-611.40,-358.50L-581.58,-348.52L-571.16,-323.56L-586.26,-301.43L-616.44,-300.85ZM-441.09,-339.77L-513.82,-328.38L-532.23,-300.88L-523.52,-271.01L-494.63,-257.91L-471.89,-259.04L-449.49,-271.01L-451.63,-256.73L-431.68,-253.87L-420.23,-333.56L-426.28,-371.44L-461.47,-389.19L-495.89,-385.83L-515.51,-364.04L-500.05,-351.18L-486.47,-368.40L-466.15,-372.04L-446.23,-362.98ZM-443.80,-320.87L-448.29,-289.60L-465.31,-278.52L-488.72,-274.85L-504.22,-281.33L-509.30,-298.57L-497.36,-313.99ZM-279.87,-358.20L-301.25,-361.26L-310.85,-294.28L-324.70,-263.60L-350.43,-256.09L-369.14,-268.23L-371.32,-294.36L-360.52,-369.75L-381.90,-372.82L-392.73,-297.27L-390.09,-258.19L-357.46,-238.31L-333.54,-240.72L-314.26,-255.23L-316.82,-237.41L-297.57,-234.66ZM-143.02,-212.51L-140.13,-232.71L-238.01,-246.73L-229.84,-303.75L-146.22,-291.77L-143.32,-311.96L-226.95,-323.94L-219.29,-377.40L-123.78,-363.71L-120.89,-383.91L-238.97,-400.83L-263.47,-229.77ZM-43.15,-308.12L-27.86,-300.51L-18.86,-317.65L-38.65,-328.57L-59.97,-325.17L-77.07,-307.32L-74.01,-328.70L-93.25,-331.46L-110.78,-209.13L-89.57,-204.85L-80.01,-271.61L-67.92,-300.28ZM104.80,-351.57L83.42,-354.63L74.77,-294.27L63.13,-308.44L44.04,-316.22L1.26,-303.37L-19.56,-257.32L-12.51,-207.29L24.94,-182.94L46.72,-185.70L63.71,-200.11L61.29,-183.24L80.29,-180.52ZM42.67,-297.88L65.42,-282.12L70.38,-244.44L54.13,-209.80L28.78,-200.95L6.62,-216.61L2.26,-254.20L17.00,-289.06ZM140.55,-195.86L132.79,-230.44L224.49,-217.32L226.91,-225.70L219.24,-272.98L179.02,-297.51L134.56,-285.83L111.80,-239.13L120.54,-187.93L159.92,-164.23L196.71,-169.60L216.61,-192.75L201.45,-205.52L185.47,-186.24L163.74,-182.24ZM135.95,-247.46L153.42,-273.81L176.40,-279.37L199.16,-265.59L205.09,-237.55ZM239.83,-157.66L261.21,-154.59L270.85,-221.83L284.67,-252.24L310.41,-259.75L329.11,-247.61L331.34,-221.89L320.48,-146.10L341.86,-143.04L352.72,-218.82L350.03,-257.66L317.40,-277.55L293.58,-275.77L274.22,-260.62L276.78,-278.44L257.53,-281.20ZM596.84,-161.06L599.39,-178.88L433.09,-202.70L430.54,-184.89ZM-625.64,-63.39L-559.68,-53.94L-510.65,-56.84L-487.03,-93.28L-492.81,-120.81L-517.30,-139.17L-493.20,-151.24L-483.79,-173.19L-496.14,-209.96L-538.57,-225.60L-601.11,-234.56ZM-588.90,-157.62L-581.29,-210.95L-546.60,-205.98L-517.37,-198.23L-507.96,-173.71L-523.24,-154.02L-551.33,-152.23ZM-599.98,-80.28L-591.74,-137.48L-551.75,-131.75L-521.94,-121.77L-511.52,-96.81L-526.62,-74.68L-556.80,-74.09ZM-349.71,-150.00L-371.09,-153.06L-380.68,-86.09L-394.53,-55.40L-420.26,-47.89L-438.97,-60.03L-441.16,-86.16L-430.36,-161.55L-451.74,-164.62L-462.56,-89.07L-459.93,-49.99L-427.29,-30.11L-403.38,-32.52L-384.10,-47.03L-386.65,-29.22L-367.41,-26.46ZM-299.99,-163.95L-291.05,-171.30L-289.30,-183.38L-295.94,-193.17L-306.92,-194.74L-315.83,-187.20L-317.56,-175.14L-310.97,-165.53ZM-315.49,-19.02L-297.79,-142.56L-319.17,-145.62L-336.87,-22.08ZM-263.23,-11.53L-238.72,-182.58L-260.10,-185.65L-284.61,-14.59ZM-108.05,-163.86L-129.43,-166.93L-138.08,-106.56L-149.72,-120.73L-168.82,-128.51L-211.60,-115.66L-232.41,-69.62L-225.37,-19.58L-187.91,4.77L-166.13,2.01L-149.15,-12.40L-151.57,4.47L-132.56,7.19ZM-170.19,-110.17L-147.44,-94.42L-142.48,-56.73L-158.73,-22.09L-184.07,-13.24L-206.23,-28.90L-210.59,-66.49L-195.85,-101.35ZM88.38,38.85L91.28,18.65L-6.60,4.63L1.57,-52.39L85.19,-40.41L88.09,-60.60L4.46,-72.58L12.12,-126.04L107.62,-112.35L110.52,-132.55L-7.56,-149.46L-32.07,21.59ZM207.74,-28.60L135.01,-17.21L116.60,10.29L125.30,40.17L154.19,53.26L176.93,52.13L199.33,40.16L197.19,54.44L217.15,57.30L228.60,-22.39L222.54,-60.27L187.36,-78.02L152.93,-74.66L133.31,-52.87L148.78,-40.01L162.35,-57.23L182.67,-60.87L202.60,-51.81ZM205.03,-9.70L200.53,21.57L183.52,32.65L160.11,36.32L144.61,29.84L139.53,12.60L151.47,-2.82ZM317.73,-38.21L333.03,-30.60L342.03,-47.73L322.23,-58.65L300.92,-55.25L283.81,-37.40L286.88,-58.79L267.63,-61.54L250.11,60.79L271.32,65.06L280.88,-1.70L292.97,-30.37ZM393.61,84.27L393.62,84.27L393.79,65.49L384.01,65.55L374.46,58.86L374.84,43.04L385.02,-27.99L406.17,-24.96L408.52,-41.36L387.37,-44.39L393.50,-87.15L372.12,-90.21L365.99,-47.45L348.41,-49.97L346.06,-33.58L363.64,-31.06L353.46,39.98L354.07,70.51L376.95,84.22ZM417.19,85.96L438.72,89.05L448.35,21.81L462.11,-8.16L487.83,-15.67L506.55,-3.53L508.72,22.53L497.96,97.53L519.29,100.59L530.15,25.43L527.45,-13.58L494.82,-33.47L471.27,-31.50L453.97,-17.63L463.20,-82.01L441.69,-85.09Z" fill="#ffffff" stroke="#000000"/>
    <path d="M-673.62,-309.26L-608.72,-297.60L-560.13,-298.74L-535.49,-333.94L-540.23,-361.38L-563.80,-380.39L-539.55,-391.48L-529.47,-412.86L-540.38,-449.65L-581.80,-466.61L-643.34,-477.68ZM-633.96,-401.15L-624.57,-453.63L-590.43,-447.49L-561.79,-438.81L-553.36,-414.22L-569.15,-395.28L-597.00,-394.51ZM-647.64,-325.06L-637.48,-381.34L-598.14,-374.26L-569.01,-363.35L-559.58,-338.30L-575.29,-316.94L-605.16,-317.43ZM-430.37,-349.75L-502.70,-341.05L-521.87,-314.50L-514.32,-284.64L-486.20,-270.67L-463.68,-270.99L-441.10,-282.04L-443.72,-268.00L-424.09,-264.47L-409.96,-342.87L-414.61,-380.55L-448.79,-399.34L-482.95,-397.23L-503.12,-376.37L-488.28,-363.11L-474.25,-379.66L-454.02,-382.54L-434.64,-372.88ZM-433.72,-331.15L-439.26,-300.38L-456.48,-290.03L-479.76,-287.23L-494.86,-294.18L-499.28,-311.40L-486.93,-326.24ZM-270.29,-362.30L-291.32,-366.08L-303.17,-300.18L-317.95,-270.32L-343.66,-263.80L-361.73,-276.47L-362.98,-302.39L-349.64,-376.56L-370.68,-380.35L-384.04,-306.01L-382.81,-267.28L-351.23,-246.46L-327.50,-248.01L-307.92,-261.68L-311.07,-244.15L-292.14,-240.74ZM-140.08,-213.41L-136.51,-233.27L-232.81,-250.59L-222.73,-306.69L-140.45,-291.90L-136.87,-311.77L-219.15,-326.56L-209.70,-379.15L-115.73,-362.26L-112.16,-382.13L-228.33,-403.01L-258.59,-234.71ZM-37.94,-304.44L-23.09,-296.38L-13.58,-313.01L-32.77,-324.50L-53.98,-321.89L-71.52,-304.84L-67.73,-325.88L-86.67,-329.28L-108.31,-208.92L-87.48,-203.95L-75.68,-269.63L-62.71,-297.56ZM109.91,-342.20L88.87,-345.98L78.19,-286.59L67.18,-301.01L48.57,-309.38L5.81,-298.18L-16.40,-253.37L-11.19,-203.64L24.99,-178.25L46.63,-180.21L63.93,-193.86L60.95,-177.26L79.65,-173.90ZM46.57,-291.29L68.51,-274.91L72.09,-237.47L54.80,-203.78L29.42,-195.92L8.06,-212.19L5.07,-249.51L20.87,-283.47ZM139.78,-186.96L133.32,-221.42L223.55,-205.22L226.23,-213.42L220.31,-260.45L181.40,-286.13L137.03,-276.14L112.87,-230.76L119.71,-179.81L157.82,-154.99L194.39,-159.01L214.89,-181.20L200.34,-194.37L183.86,-175.86L162.23,-172.67ZM137.05,-238.14L155.25,-263.59L178.17,-268.28L200.20,-253.85L205.07,-225.91ZM236.62,-145.68L257.66,-141.90L269.55,-208.05L284.29,-237.64L310.01,-244.16L328.07,-231.50L329.38,-205.98L315.97,-131.41L337.01,-127.63L350.42,-202.20L349.12,-240.70L317.55,-261.52L293.93,-260.59L274.25,-246.29L277.41,-263.83L258.47,-267.23ZM589.80,-136.47L592.95,-154.00L429.33,-183.42L426.17,-165.89ZM-622.61,-82.92L-557.72,-71.25L-509.13,-72.40L-484.49,-107.60L-489.23,-135.03L-512.80,-154.04L-488.55,-165.13L-478.47,-186.51L-489.38,-223.31L-530.80,-240.27L-592.33,-251.33ZM-582.96,-174.81L-573.56,-227.28L-539.43,-221.15L-510.79,-212.46L-502.36,-187.87L-518.15,-168.94L-546.00,-168.16ZM-596.64,-98.72L-586.48,-154.99L-547.14,-147.92L-518.01,-137.00L-508.58,-111.95L-524.29,-90.60L-554.15,-91.08ZM-346.68,-158.85L-367.72,-162.64L-379.56,-96.74L-394.34,-66.88L-420.05,-60.36L-438.13,-73.02L-439.37,-98.94L-426.03,-173.12L-447.07,-176.90L-460.43,-102.57L-459.21,-63.83L-427.63,-43.02L-403.90,-44.56L-384.32,-58.24L-387.47,-40.71L-368.53,-37.30ZM-297.02,-170.90L-287.92,-177.86L-285.77,-189.74L-291.99,-199.66L-302.79,-201.60L-311.87,-194.46L-314.01,-182.58L-307.83,-172.85ZM-317.45,-28.12L-295.60,-149.67L-316.64,-153.45L-338.49,-31.90ZM-266.03,-18.87L-235.77,-187.17L-256.81,-190.96L-287.07,-22.65ZM-107.20,-164.06L-128.24,-167.84L-138.92,-108.45L-149.93,-122.87L-168.54,-131.24L-211.31,-120.04L-233.51,-75.23L-228.30,-25.50L-192.12,-0.11L-170.48,-2.06L-153.18,-15.72L-156.16,0.88L-137.46,4.24ZM-170.54,-113.15L-148.60,-96.77L-145.02,-59.32L-162.31,-25.64L-187.69,-17.78L-209.05,-34.05L-212.04,-71.37L-196.24,-105.33ZM79.93,43.33L83.50,23.46L-12.81,6.14L-2.72,-49.96L79.56,-35.16L83.13,-55.03L0.85,-69.83L10.31,-122.42L104.28,-105.53L107.85,-125.39L-8.33,-146.28L-38.59,22.02ZM200.33,-19.18L128.01,-10.48L108.83,16.07L116.39,45.93L144.50,59.90L167.03,59.58L189.60,48.53L186.98,62.58L206.62,66.11L220.75,-12.30L216.09,-49.98L181.92,-68.76L147.76,-66.66L127.59,-45.80L142.43,-32.54L156.46,-49.08L176.68,-51.97L196.07,-42.31ZM196.99,-0.58L191.45,30.19L174.23,40.55L150.95,43.35L135.85,36.39L131.43,19.17L143.78,4.34ZM309.46,-24.81L324.31,-16.74L333.82,-33.37L314.63,-44.87L293.42,-42.25L275.88,-25.20L279.66,-46.24L260.73,-49.65L239.09,70.72L259.91,75.69L271.72,10.00L284.68,-17.92ZM380.19,98.99L380.19,98.99L381.03,80.42L371.35,80.14L362.14,73.18L363.08,57.56L375.64,-12.34L396.45,-8.60L399.35,-24.72L378.54,-28.46L386.11,-70.54L365.07,-74.32L357.50,-32.25L340.21,-35.36L337.31,-19.23L354.60,-16.12L342.04,53.77L341.56,83.99L363.71,98.35ZM403.44,101.49L424.63,105.30L436.52,39.15L451.18,9.99L476.88,3.47L494.96,16.14L496.19,41.99L482.91,115.78L503.90,119.55L517.29,45.61L515.99,6.93L484.42,-13.89L461.06,-12.77L443.47,0.34L454.86,-63.01L433.70,-66.81Z" fill="#ffffff" stroke="#000000"/>
    <path d="M-661.33,-327.96L-597.57,-314.14L-549.48,-313.56L-523.87,-347.51L-527.59,-374.80L-550.24,-394.43L-525.86,-404.54L-515.14,-425.33L-524.64,-462.10L-565.00,-480.33L-625.46,-493.43ZM-618.88,-417.43L-607.74,-468.99L-574.21,-461.72L-546.19,-452.12L-538.72,-427.52L-555.00,-409.35L-582.57,-409.56ZM-635.09,-342.67L-623.06,-397.96L-584.41,-389.58L-555.98,-377.76L-547.54,-352.66L-563.83,-332.09L-593.34,-333.62ZM-419.37,-359.44L-491.20,-353.38L-511.09,-327.80L-504.67,-298.01L-477.36,-283.21L-455.08,-282.73L-432.37,-292.86L-435.45,-279.07L-416.16,-274.88L-399.43,-351.92L-402.70,-389.34L-435.84,-409.12L-469.69,-408.24L-490.37,-388.32L-476.16,-374.69L-461.71,-390.55L-441.60,-392.70L-422.78,-382.46ZM-423.33,-341.17L-429.90,-310.93L-447.29,-301.30L-470.41,-299.35L-485.10,-306.75L-488.86,-323.94L-476.12,-338.17ZM-260.63,-366.21L-281.30,-370.69L-295.33,-305.94L-311.00,-276.93L-336.65,-271.39L-354.08,-284.55L-354.39,-310.23L-338.60,-383.11L-359.27,-387.59L-375.10,-314.55L-375.25,-276.21L-344.75,-254.52L-321.23,-255.21L-301.39,-268.04L-305.12,-250.81L-286.52,-246.78ZM-137.12,-214.39L-132.88,-233.92L-227.51,-254.43L-215.56,-309.55L-134.71,-292.02L-130.48,-311.54L-211.33,-329.07L-200.12,-380.74L-107.80,-360.73L-103.57,-380.25L-217.71,-404.99L-253.56,-239.64ZM-32.91,-300.82L-18.51,-292.32L-8.52,-308.43L-27.10,-320.48L-48.15,-318.64L-66.10,-302.40L-61.62,-323.07L-80.22,-327.10L-105.86,-208.84L-85.44,-203.19L-71.45,-267.73L-57.65,-294.89ZM114.62,-332.96L93.95,-337.44L81.30,-279.08L70.92,-293.73L52.81,-302.66L10.13,-293.09L-13.41,-249.56L-10.01,-200.20L24.88,-173.82L46.34,-174.99L63.93,-187.89L60.40,-171.58L78.77,-167.60ZM50.19,-284.84L71.31,-267.87L73.53,-230.72L55.25,-198.02L29.88,-191.14L9.33,-207.98L7.69,-244.99L24.51,-278.02ZM138.69,-178.39L133.51,-212.70L222.17,-193.50L225.11,-201.52L220.92,-248.23L183.34,-274.99L139.11,-266.67L113.63,-222.65L118.59,-172.03L155.41,-146.15L191.71,-148.83L212.76,-170.05L198.84,-183.59L181.89,-165.87L160.39,-163.48ZM137.79,-229.10L156.69,-253.63L179.51,-257.45L200.79,-242.41L204.62,-214.62ZM233.00,-134.16L253.67,-129.68L267.76,-194.68L283.37,-223.42L309.03,-228.96L326.45,-215.81L326.84,-190.53L310.96,-117.26L331.63,-112.78L347.51,-186.05L347.59,-224.17L317.10,-245.86L293.71,-245.78L273.75,-232.33L277.49,-249.56L258.89,-253.59ZM581.92,-112.63L585.65,-129.86L424.88,-164.71L421.15,-147.48ZM-618.86,-102.34L-555.10,-88.52L-507.01,-87.95L-481.40,-121.89L-485.13,-149.18L-507.77,-168.81L-483.39,-178.92L-472.67,-199.71L-482.17,-236.48L-522.53,-254.71L-582.99,-267.81ZM-576.41,-191.82L-565.28,-243.37L-531.74,-236.10L-503.72,-226.51L-496.25,-201.90L-512.54,-183.73L-540.10,-183.94ZM-592.62,-117.05L-580.59,-172.34L-541.94,-163.96L-513.52,-152.14L-505.07,-127.04L-521.36,-106.48L-550.88,-108.01ZM-343.33,-167.72L-364.00,-172.20L-378.04,-107.46L-393.70,-78.45L-419.35,-72.91L-436.78,-86.07L-437.10,-111.74L-421.30,-184.62L-441.97,-189.10L-457.80,-116.07L-457.95,-77.72L-427.45,-56.03L-403.93,-56.72L-384.09,-69.55L-387.82,-52.33L-369.22,-48.30ZM-293.80,-177.89L-284.56,-184.45L-282.01,-196.12L-287.81,-206.14L-298.43,-208.45L-307.65,-201.71L-310.19,-190.04L-304.42,-180.19ZM-319.03,-37.42L-293.14,-156.84L-313.81,-161.32L-339.70,-41.90ZM-268.51,-26.46L-232.66,-191.82L-253.33,-196.30L-289.18,-30.94ZM-106.34,-164.44L-127.01,-168.92L-139.66,-110.57L-150.04,-125.21L-168.15,-134.14L-210.83,-124.57L-234.37,-81.05L-230.97,-31.69L-196.08,-5.30L-174.62,-6.48L-157.03,-19.37L-160.56,-3.06L-142.19,0.92ZM-170.77,-116.33L-149.65,-99.36L-147.43,-62.20L-165.71,-29.51L-191.08,-22.63L-211.63,-39.46L-213.27,-76.48L-196.45,-109.50ZM71.40,47.22L75.63,27.70L-18.99,7.18L-7.04,-47.93L73.80,-30.41L78.03,-49.93L-2.81,-67.46L8.39,-119.13L100.72,-99.12L104.95,-118.64L-9.20,-143.38L-45.04,21.98ZM192.67,-10.35L120.84,-4.29L100.94,21.29L107.37,51.07L134.67,65.88L156.96,66.36L179.67,56.23L176.59,70.02L195.88,74.20L212.61,-2.83L209.33,-40.25L176.20,-60.03L142.35,-59.15L121.67,-39.23L135.87,-25.60L150.33,-41.47L170.43,-43.61L189.26,-33.38ZM188.70,7.92L182.14,38.15L164.75,47.79L141.63,49.74L126.94,42.33L123.18,25.14L135.91,10.91ZM300.77,-12.08L315.17,-3.58L325.16,-19.69L306.59,-31.73L285.53,-29.89L267.58,-13.65L272.06,-34.32L253.46,-38.35L227.83,79.90L248.24,85.55L262.23,21.02L276.03,-6.14ZM366.35,112.83L366.36,112.83L367.84,94.50L358.28,93.88L349.41,86.68L350.89,71.25L365.78,2.58L386.22,7.01L389.65,-8.83L369.21,-13.26L378.17,-54.60L357.50,-59.08L348.54,-17.74L331.55,-21.43L328.11,-5.58L345.11,-1.90L330.22,66.77L328.69,96.63L350.08,111.62ZM389.26,116.12L410.08,120.63L424.16,55.64L439.68,27.32L465.33,21.78L482.77,34.94L483.07,60.55L467.34,133.05L487.96,137.52L503.80,64.87L503.89,26.58L473.40,4.88L450.26,5.16L432.40,17.51L445.89,-44.73L425.10,-49.24Z" fill="#ffffff" stroke="#000000"/>
    <path d="M-648.43,-346.21L-585.88,-330.30L-538.35,-328.04L-511.84,-360.70L-514.56,-387.82L-536.25,-408.02L-511.80,-417.16L-500.46,-437.34L-508.56,-474.03L-547.83,-493.47L-607.14,-508.56ZM-603.31,-433.18L-590.49,-483.77L-557.59,-475.40L-530.22,-464.93L-523.70,-440.33L-540.44,-422.94L-567.69,-424.12ZM-621.97,-359.83L-608.13,-414.08L-570.21,-404.43L-542.52,-391.74L-535.06,-366.63L-551.88,-346.87L-581.02,-349.42ZM-408.09,-368.82L-479.33,-365.35L-499.90,-340.76L-494.59,-311.09L-468.12,-295.49L-446.10,-294.23L-423.29,-303.45L-426.82,-289.92L-407.89,-285.10L-388.64,-360.68L-390.56,-397.79L-422.62,-418.52L-456.13,-418.84L-477.28,-399.87L-463.71,-385.89L-448.86,-401.07L-428.91,-402.49L-410.65,-391.70ZM-412.65,-350.89L-420.21,-321.23L-437.74,-312.32L-460.67,-311.20L-474.93,-319.04L-478.05,-336.17L-464.95,-349.79ZM-250.90,-369.93L-271.18,-375.08L-287.34,-311.56L-303.84,-283.43L-329.40,-278.85L-346.17,-292.48L-345.58,-317.88L-327.40,-389.38L-347.67,-394.54L-365.90,-322.88L-367.39,-284.97L-338.01,-262.45L-314.73,-262.31L-294.65,-274.30L-298.95,-257.40L-280.70,-252.76ZM-134.12,-215.48L-129.25,-234.63L-222.08,-258.24L-208.33,-312.32L-129.02,-292.15L-124.14,-311.30L-203.46,-331.47L-190.57,-382.17L-99.98,-359.13L-95.11,-378.28L-207.10,-406.77L-248.36,-244.53ZM-28.05,-297.26L-14.11,-288.35L-3.67,-303.93L-21.61,-316.49L-42.49,-315.42L-60.81,-299.99L-55.65,-320.27L-73.90,-324.91L-103.41,-208.89L-83.42,-202.58L-67.32,-265.90L-52.72,-292.26ZM118.95,-323.84L98.67,-329.00L84.11,-271.75L74.36,-286.59L56.77,-296.06L14.23,-288.10L-10.57,-245.90L-8.94,-196.97L24.62,-169.66L45.89,-170.06L63.73,-182.19L59.66,-166.19L77.69,-161.61ZM53.55,-278.54L73.84,-261.01L74.73,-224.20L55.50,-192.52L30.17,-186.61L10.45,-203.98L10.13,-240.63L27.92,-272.69ZM137.31,-170.17L133.40,-204.27L220.38,-182.17L223.57,-190.00L221.07,-236.34L184.85,-264.11L140.83,-257.45L114.09,-214.82L117.21,-164.59L152.71,-137.71L188.70,-139.08L210.25,-159.32L196.97,-173.19L179.58,-156.27L158.24,-154.66ZM138.21,-220.35L157.75,-243.93L180.46,-246.91L200.96,-231.29L203.78,-203.67ZM229.00,-123.13L249.28,-117.97L265.50,-181.73L281.95,-209.61L307.51,-214.18L324.28,-200.56L323.77,-175.55L305.49,-103.67L325.77,-98.51L344.05,-170.39L345.46,-208.08L316.09,-230.61L292.96,-231.35L272.75,-218.75L277.05,-235.65L258.80,-240.30ZM573.23,-89.56L577.53,-106.45L419.80,-146.57L415.50,-129.67ZM-614.38,-121.64L-551.83,-105.73L-504.30,-103.47L-477.79,-136.13L-480.51,-163.24L-502.20,-183.45L-477.75,-192.59L-466.42,-212.77L-474.52,-249.45L-513.78,-268.90L-573.10,-283.99ZM-569.27,-208.61L-556.44,-259.20L-523.54,-250.83L-496.17,-240.35L-489.65,-215.76L-506.39,-198.37L-533.64,-199.55ZM-587.92,-135.26L-574.08,-189.51L-536.16,-179.86L-508.47,-167.17L-501.01,-142.05L-517.83,-122.30L-546.97,-124.85ZM-339.66,-176.59L-359.94,-181.74L-376.09,-118.22L-392.60,-90.09L-418.16,-85.51L-434.93,-99.14L-434.34,-124.54L-416.15,-196.04L-436.43,-201.20L-454.65,-129.54L-456.15,-91.63L-426.76,-69.12L-403.48,-68.97L-383.41,-80.96L-387.71,-64.06L-369.46,-59.42ZM-290.33,-184.90L-280.96,-191.06L-278.03,-202.51L-283.41,-212.62L-293.83,-215.27L-303.18,-208.93L-306.10,-197.49L-300.75,-187.55ZM-320.22,-46.89L-290.42,-164.06L-310.70,-169.22L-340.50,-52.05ZM-270.65,-34.29L-229.38,-196.52L-249.66,-201.68L-290.92,-39.44ZM-105.45,-165.00L-125.73,-170.16L-140.29,-112.91L-150.04,-127.75L-167.63,-137.22L-210.17,-129.26L-234.97,-87.06L-233.35,-38.13L-199.78,-10.82L-178.52,-11.22L-160.67,-23.35L-164.74,-7.35L-146.72,-2.77ZM-170.85,-119.70L-150.56,-102.17L-149.67,-65.36L-168.90,-33.68L-194.23,-27.77L-213.96,-45.14L-214.27,-81.79L-196.48,-113.85ZM62.84,50.53L67.71,31.37L-25.13,7.76L-11.37,-46.31L67.94,-26.14L72.81,-45.30L-6.50,-65.47L6.39,-116.17L96.97,-93.13L101.85,-112.28L-10.14,-140.76L-51.40,21.47ZM184.76,-2.13L113.53,1.34L92.96,25.93L98.26,55.61L124.74,71.21L146.76,72.46L169.57,63.24L166.04,76.77L184.97,81.59L204.22,6.01L202.30,-31.10L170.23,-51.83L136.73,-52.15L115.58,-33.18L129.15,-19.20L144.00,-34.38L163.95,-35.79L182.21,-25.01ZM180.20,15.80L172.65,45.46L155.11,54.37L132.19,55.49L117.93,47.65L114.81,30.52L127.90,16.90ZM291.71,-0.03L305.65,8.88L316.09,-6.69L298.16,-19.26L277.27,-18.18L258.95,-2.75L264.11,-23.03L245.86,-27.67L216.35,88.35L236.34,94.65L252.44,31.34L267.04,4.97ZM352.16,125.78L352.17,125.78L354.27,107.71L344.84,106.76L336.33,99.32L338.34,84.13L355.47,16.76L375.52,21.86L379.48,6.31L359.42,1.21L369.74,-39.35L349.46,-44.51L339.15,-3.95L322.47,-8.19L318.52,7.36L335.19,11.60L318.06,78.97L315.49,108.44L336.11,124.01ZM374.69,129.84L395.12,135.03L411.33,71.27L427.67,43.82L453.23,39.24L470.00,52.86L469.40,78.19L451.30,149.32L471.53,154.47L489.75,83.20L491.18,45.34L461.80,22.81L438.91,22.28L420.82,33.86L436.35,-27.21L415.95,-32.40Z" fill="#ffffff" stroke="#000000"/>
    <path d="M-634.94,-363.99L-573.66,-346.06L-526.75,-342.15L-499.39,-373.51L-501.13,-400.41L-521.87,-421.15L-497.37,-429.33L-485.45,-448.87L-492.17,-485.43L-530.30,-506.03L-588.41,-523.03ZM-587.28,-448.38L-572.82,-497.94L-540.58,-488.51L-513.90,-477.19L-508.32,-452.65L-525.48,-436.04L-552.38,-438.17ZM-608.30,-376.53L-592.72,-429.66L-555.56,-418.79L-528.64,-405.28L-522.14,-380.18L-539.47,-361.24L-568.18,-364.79ZM-396.55,-377.88L-467.09,-376.96L-488.29,-353.38L-484.09,-323.85L-458.47,-307.50L-436.74,-305.48L-413.86,-313.79L-417.84,-300.54L-399.29,-295.11L-377.60,-369.15L-378.19,-405.91L-409.16,-427.53L-442.27,-429.02L-463.85,-411.02L-450.93,-396.72L-435.71,-411.21L-415.94,-411.90L-398.27,-400.60ZM-401.68,-360.32L-410.20,-331.26L-427.85,-323.07L-450.55,-322.77L-464.38,-331.02L-466.85,-348.06L-453.43,-361.07ZM-241.10,-373.45L-260.97,-379.26L-279.18,-317.03L-296.49,-289.80L-321.91,-286.17L-338.01,-300.24L-336.54,-325.32L-316.04,-395.37L-335.91,-401.18L-356.45,-330.99L-359.26,-293.56L-331.00,-270.26L-307.99,-269.30L-287.72,-280.45L-292.57,-263.89L-274.69,-258.66ZM-131.09,-216.64L-125.60,-235.41L-216.54,-262.02L-201.04,-315.00L-123.34,-292.26L-117.85,-311.03L-195.55,-333.76L-181.02,-383.43L-92.28,-357.46L-86.79,-376.23L-196.50,-408.33L-243.00,-249.39ZM-23.35,-293.77L-9.87,-284.47L0.99,-299.50L-16.30,-312.55L-36.98,-312.22L-55.63,-297.62L-49.82,-317.48L-67.70,-322.71L-100.96,-209.05L-81.42,-202.11L-63.27,-264.14L-47.91,-289.70ZM122.92,-314.87L103.05,-320.69L86.64,-264.60L77.52,-279.62L60.47,-289.60L18.13,-283.22L-7.87,-242.37L-7.98,-193.95L24.24,-165.76L45.27,-165.41L63.34,-176.78L58.76,-161.10L76.42,-155.94ZM56.67,-272.38L76.11,-254.35L75.69,-217.92L55.57,-187.28L30.32,-182.32L11.43,-200.19L12.41,-236.44L31.13,-267.51ZM135.67,-162.31L133.00,-196.16L218.21,-171.25L221.64,-178.87L220.80,-224.77L185.97,-253.50L142.21,-248.46L114.27,-207.26L115.60,-157.50L149.74,-129.67L185.37,-129.76L207.39,-149.01L194.75,-163.19L176.96,-147.07L155.81,-146.23ZM138.31,-211.88L158.47,-234.50L181.02,-236.65L200.74,-220.48L202.55,-193.08ZM224.65,-112.57L244.52,-106.75L262.80,-169.23L280.04,-196.20L305.48,-199.82L321.57,-185.77L320.19,-161.06L299.59,-90.64L319.46,-84.83L340.06,-155.25L342.78,-192.46L314.53,-215.76L291.69,-217.31L271.27,-205.57L276.12,-222.12L258.24,-227.36ZM563.79,-67.27L568.63,-83.82L414.11,-129.03L409.26,-112.47ZM-609.19,-140.78L-547.90,-122.85L-500.99,-118.94L-473.63,-150.29L-475.37,-177.20L-496.11,-197.94L-471.61,-206.11L-459.70,-225.66L-466.41,-262.21L-504.54,-282.82L-562.65,-299.82ZM-561.52,-225.17L-547.06,-274.73L-514.83,-265.30L-488.14,-253.98L-482.56,-229.44L-499.72,-212.83L-526.62,-214.96ZM-582.54,-153.31L-566.96,-206.45L-529.80,-195.58L-502.88,-182.06L-496.38,-156.97L-513.71,-138.03L-542.42,-141.57ZM-335.65,-185.43L-355.52,-191.24L-373.73,-129.01L-391.03,-101.78L-416.46,-98.16L-432.56,-112.22L-431.08,-137.31L-410.59,-207.36L-430.46,-213.17L-450.99,-142.97L-453.81,-105.54L-425.55,-82.25L-402.54,-81.28L-382.27,-92.43L-387.12,-75.87L-369.23,-70.64ZM-286.59,-191.91L-277.11,-197.67L-273.81,-208.89L-278.78,-219.08L-288.98,-222.06L-298.46,-216.12L-301.74,-204.91L-296.80,-194.90ZM-321.00,-56.53L-287.41,-171.32L-307.28,-177.13L-340.86,-62.34ZM-272.43,-42.32L-225.93,-201.26L-245.80,-207.07L-292.30,-48.13ZM-104.52,-165.74L-124.39,-171.55L-140.80,-115.46L-149.91,-130.48L-166.97,-140.46L-209.30,-134.09L-235.31,-93.24L-235.42,-44.81L-203.20,-16.63L-182.16,-16.28L-164.10,-27.64L-168.68,-11.97L-151.02,-6.80ZM-170.76,-123.25L-151.33,-105.21L-151.74,-68.79L-171.87,-38.14L-197.11,-33.19L-216.01,-51.05L-215.03,-87.30L-196.31,-118.37ZM54.27,53.26L59.76,34.50L-31.19,7.89L-15.69,-45.09L62.02,-22.36L67.51,-41.12L-10.20,-63.85L4.34,-113.52L93.08,-87.56L98.57,-106.32L-11.15,-138.42L-57.65,20.52ZM176.66,5.50L106.12,6.42L84.92,30.00L89.12,59.53L114.74,75.88L136.47,77.90L159.35,69.59L155.37,82.84L173.92,88.27L195.61,14.23L195.02,-22.53L164.05,-44.15L130.94,-45.64L109.36,-27.64L122.28,-13.34L137.50,-27.83L157.27,-28.52L174.94,-17.22ZM171.53,23.06L163.01,52.12L145.36,60.31L122.66,60.61L108.83,52.36L106.36,35.32L119.78,22.31ZM282.32,11.34L295.79,20.64L306.66,5.60L289.37,-7.45L268.68,-7.12L250.03,7.49L255.84,-12.38L237.96,-17.61L204.71,96.06L224.25,102.99L242.40,40.96L257.76,15.41ZM337.65,137.84L337.66,137.84L340.38,120.05L331.09,118.78L322.94,111.13L325.45,96.18L344.76,30.17L364.41,35.92L368.87,20.69L349.22,14.94L360.84,-24.79L340.98,-30.61L329.35,9.13L313.02,4.35L308.56,19.58L324.90,24.36L305.59,90.36L302.01,119.41L321.85,135.52ZM359.79,142.65L379.80,148.50L398.07,86.03L415.19,59.47L440.61,55.84L456.72,69.90L455.24,94.92L434.84,164.60L454.66,170.40L475.18,100.58L477.92,63.21L449.67,39.90L427.06,38.57L408.77,49.38L426.27,-10.45L406.29,-16.29Z" fill="#ffffff" stroke="#000000"/>
    <path d="M-620.88,-381.27L-560.93,-361.39L-514.70,-355.88L-486.55,-385.91L-487.32,-412.57L-507.09,-433.80L-482.58,-441.02L-470.12,-459.92L-475.47,-496.29L-512.44,-518.00L-569.29,-536.85ZM-570.79,-463.02L-554.76,-511.50L-523.22,-501.04L-497.25,-488.92L-492.59,-464.46L-510.14,-448.65L-536.65,-451.70ZM-594.10,-392.73L-576.83,-444.71L-540.48,-432.65L-514.34,-418.34L-508.80,-393.31L-526.60,-375.20L-554.86,-379.71ZM-384.73,-386.62L-454.50,-388.19L-476.29,-365.62L-473.18,-336.29L-448.42,-319.22L-427.02,-316.46L-404.11,-323.87L-408.50,-310.91L-390.36,-304.90L-366.31,-377.32L-365.61,-413.68L-395.46,-436.14L-428.14,-438.78L-450.10,-421.74L-437.83,-407.15L-422.27,-420.94L-402.70,-420.93L-385.64,-409.13ZM-390.43,-369.44L-399.87,-341.02L-417.60,-333.53L-440.06,-334.04L-453.43,-342.68L-455.28,-359.62L-441.55,-372.00ZM-231.23,-376.76L-250.67,-383.21L-270.86,-322.33L-288.92,-296.03L-314.19,-293.34L-329.61,-307.80L-327.26,-332.55L-304.54,-401.07L-323.97,-407.52L-346.74,-338.85L-350.84,-301.95L-323.73,-277.93L-301.01,-276.17L-280.59,-286.47L-285.96,-270.28L-268.47,-264.48ZM-128.00,-217.89L-121.91,-236.25L-210.88,-265.75L-193.69,-317.58L-117.68,-292.37L-111.60,-310.72L-187.60,-335.93L-171.49,-384.52L-84.69,-355.73L-78.60,-374.08L-185.92,-409.67L-237.48,-254.20ZM-18.78,-290.34L-5.79,-280.67L5.48,-295.15L-11.16,-308.66L-31.62,-309.06L-50.56,-295.28L-44.12,-314.71L-61.61,-320.51L-98.48,-209.33L-79.41,-201.78L-59.29,-262.46L-43.21,-287.18ZM126.54,-306.06L107.11,-312.50L88.91,-257.64L80.43,-272.80L63.92,-283.27L21.85,-278.46L-5.29,-238.99L-7.11,-191.13L23.75,-162.13L44.53,-161.05L62.79,-171.64L57.71,-156.31L74.98,-150.58ZM59.56,-266.39L78.14,-247.87L76.45,-211.88L55.48,-182.29L30.35,-178.29L12.30,-196.61L14.54,-232.41L34.14,-262.47ZM133.77,-154.79L132.33,-188.35L215.68,-160.73L219.34,-168.14L220.12,-213.54L186.71,-243.17L143.28,-239.73L114.21,-199.98L113.77,-150.75L146.54,-122.03L181.76,-120.87L204.21,-139.13L192.21,-153.59L174.06,-138.28L153.12,-138.20ZM138.14,-203.70L158.86,-225.36L181.22,-226.69L200.15,-210.01L200.97,-182.86ZM219.99,-102.50L239.42,-96.05L259.69,-157.16L277.68,-183.22L302.96,-185.90L318.37,-171.45L316.14,-147.07L293.29,-78.19L312.73,-71.74L335.57,-140.63L339.57,-177.31L312.47,-201.34L289.94,-203.67L269.34,-192.79L274.72,-208.98L257.22,-214.78ZM553.63,-45.78L559.00,-61.98L407.85,-112.11L402.47,-95.91ZM-603.27,-159.72L-543.32,-139.84L-497.09,-134.33L-468.94,-164.36L-469.71,-191.01L-489.48,-212.24L-464.98,-219.46L-452.51,-238.37L-457.87,-274.74L-494.83,-296.45L-551.68,-315.30ZM-553.19,-241.47L-537.15,-289.95L-505.62,-279.49L-479.64,-267.36L-474.98,-242.90L-492.53,-227.09L-519.04,-230.14ZM-576.49,-171.17L-559.22,-223.15L-522.87,-211.10L-496.73,-196.79L-491.20,-171.76L-508.99,-153.64L-537.25,-158.16ZM-331.31,-194.24L-350.74,-200.68L-370.93,-139.81L-389.00,-113.50L-414.26,-110.81L-429.68,-125.28L-427.34,-150.02L-404.62,-218.54L-424.05,-224.99L-446.82,-156.32L-450.92,-119.43L-423.80,-95.40L-401.09,-93.64L-380.67,-103.94L-386.04,-87.75L-368.55,-81.95ZM-282.59,-198.92L-273.01,-204.27L-269.36,-215.25L-273.91,-225.49L-283.89,-228.81L-293.46,-223.27L-297.10,-212.30L-292.57,-202.23ZM-321.36,-66.30L-284.12,-178.59L-303.56,-185.03L-340.79,-72.75ZM-273.85,-50.55L-222.30,-206.02L-241.73,-212.47L-293.29,-56.99ZM-103.53,-166.64L-122.96,-173.08L-141.16,-118.22L-149.64,-133.38L-166.15,-143.85L-208.22,-139.04L-235.36,-99.57L-237.18,-51.71L-206.32,-22.71L-185.54,-21.63L-167.28,-32.22L-172.36,-16.89L-155.09,-11.16ZM-170.51,-126.97L-151.93,-108.45L-153.62,-72.46L-174.59,-42.88L-199.72,-38.87L-217.77,-57.19L-215.53,-92.99L-195.93,-123.05ZM45.73,55.43L51.82,37.08L-37.15,7.58L-19.96,-44.25L56.05,-19.04L62.14,-37.40L-13.87,-62.60L2.24,-111.19L89.04,-82.40L95.13,-100.76L-12.19,-136.35L-63.75,19.13ZM168.40,12.52L98.63,10.95L76.85,33.52L79.96,62.85L104.71,79.92L126.11,82.68L149.02,75.27L144.63,88.23L162.77,94.24L186.82,21.82L187.53,-14.54L157.67,-37.00L124.99,-39.64L103.03,-22.60L115.30,-8.01L130.86,-21.80L150.43,-21.79L167.50,-9.99ZM162.70,29.70L153.26,58.13L135.53,65.61L113.07,65.10L99.70,56.46L97.85,39.52L111.58,27.14ZM272.63,22.01L285.62,31.68L296.89,17.20L280.26,3.69L259.80,3.29L240.85,17.07L247.30,-2.36L229.81,-8.16L192.93,103.03L212.00,110.57L232.13,49.89L248.21,25.17ZM322.88,149.01L322.89,149.01L326.20,131.52L317.06,129.93L309.27,122.08L312.29,107.39L333.70,42.83L352.92,49.20L357.86,34.30L338.64,27.93L351.53,-10.94L332.09,-17.38L319.20,21.48L303.22,16.19L298.28,31.09L314.26,36.38L292.85,100.95L288.29,129.53L307.34,146.16ZM344.59,154.54L364.16,161.03L384.43,99.92L402.29,74.26L427.54,71.57L442.97,86.04L440.62,110.72L418.01,178.88L437.39,185.31L460.13,117.02L464.16,80.17L437.06,56.14L414.75,54.02L396.29,64.06L415.69,5.55L396.15,-0.94Z" fill="#ffffff" stroke="#000000"/>
    <path d="M-606.26,-398.04L-547.71,-376.28L-502.20,-369.20L-473.33,-397.90L-473.15,-424.27L-491.94,-445.95L-467.47,-452.22L-454.48,-470.47L-458.49,-506.60L-494.27,-529.36L-549.79,-549.99ZM-553.88,-477.07L-536.32,-524.43L-505.52,-512.98L-480.27,-500.08L-476.53,-475.74L-494.44,-460.73L-520.53,-464.68ZM-579.39,-408.42L-560.48,-459.18L-524.99,-445.99L-499.65,-430.93L-495.06,-405.99L-513.29,-388.71L-541.06,-394.17ZM-372.67,-395.01L-441.57,-399.02L-463.89,-377.48L-461.85,-348.38L-437.98,-330.64L-416.93,-327.16L-394.02,-333.68L-398.82,-321.02L-381.10,-314.44L-354.79,-385.18L-352.81,-421.09L-381.52,-444.33L-413.73,-448.10L-436.03,-432.03L-424.42,-417.18L-408.56,-430.25L-389.22,-429.55L-372.77,-417.30ZM-378.90,-378.23L-389.23,-350.47L-407.02,-343.70L-429.20,-344.99L-442.11,-354.01L-443.35,-370.81L-429.34,-382.57ZM-221.30,-379.87L-240.28,-386.93L-262.37,-327.47L-281.16,-302.10L-306.22,-300.33L-320.95,-315.17L-317.76,-339.55L-292.89,-406.48L-311.88,-413.53L-336.80,-346.46L-342.15,-310.14L-316.19,-285.44L-293.80,-282.90L-273.26,-292.37L-279.13,-276.55L-262.05,-270.20ZM-124.85,-219.22L-118.19,-237.14L-205.08,-269.43L-186.27,-320.05L-112.03,-292.46L-105.37,-310.39L-179.61,-337.98L-161.98,-385.43L-77.19,-353.93L-70.53,-371.85L-175.35,-410.81L-231.78,-258.95ZM-14.35,-286.98L-1.85,-276.97L9.80,-290.88L-6.17,-304.82L-26.38,-305.94L-45.59,-292.98L-38.54,-311.96L-55.62,-318.31L-95.98,-209.71L-77.39,-201.58L-55.37,-260.85L-38.60,-284.71ZM129.83,-297.40L110.85,-304.45L90.94,-250.87L83.09,-266.16L67.14,-277.08L25.39,-273.80L-2.83,-235.75L-6.31,-188.51L23.17,-158.76L43.68,-156.96L62.10,-166.79L56.53,-151.82L73.41,-145.55ZM62.24,-260.55L79.95,-241.59L77.01,-206.08L55.25,-177.58L30.27,-174.50L13.07,-193.25L16.55,-228.55L36.97,-257.57ZM131.66,-147.64L131.41,-180.86L212.83,-150.62L216.71,-157.82L219.08,-202.67L187.09,-233.13L144.05,-231.25L113.92,-192.99L111.75,-144.34L143.13,-114.81L177.90,-112.42L200.73,-129.68L189.38,-144.40L170.90,-129.90L150.20,-130.56ZM137.70,-195.83L158.94,-216.50L181.09,-217.03L199.21,-199.88L199.07,-173.02ZM215.04,-92.92L234.02,-85.86L256.20,-145.55L274.90,-170.67L299.98,-172.44L314.70,-157.61L311.64,-133.59L286.64,-66.31L305.62,-59.26L330.62,-126.54L335.86,-162.66L309.92,-187.36L287.74,-190.46L267.00,-180.42L272.87,-196.24L255.79,-202.59ZM542.81,-25.13L548.69,-40.94L401.05,-95.81L395.17,-79.99ZM-596.65,-178.44L-538.10,-156.68L-492.59,-149.60L-463.72,-178.30L-463.54,-204.67L-482.33,-226.35L-457.86,-232.62L-444.87,-250.87L-448.88,-287.00L-484.66,-309.76L-540.18,-330.39ZM-544.27,-257.47L-526.71,-304.83L-495.91,-293.38L-470.66,-280.48L-466.92,-256.14L-484.83,-241.13L-510.92,-245.08ZM-569.78,-188.82L-550.87,-239.58L-515.38,-226.39L-490.04,-211.33L-485.45,-186.39L-503.68,-169.11L-531.45,-174.57ZM-326.63,-202.99L-345.61,-210.04L-367.71,-150.58L-386.49,-125.21L-411.56,-123.45L-426.29,-138.29L-423.10,-162.66L-398.23,-229.59L-417.21,-236.64L-442.13,-169.58L-447.48,-133.25L-421.53,-108.55L-399.14,-106.01L-378.59,-115.48L-384.47,-99.66L-367.39,-93.31ZM-278.31,-205.90L-268.66,-210.86L-264.66,-221.58L-268.79,-231.86L-278.54,-235.48L-288.20,-230.35L-292.19,-219.63L-288.06,-209.52ZM-321.30,-76.19L-280.54,-185.86L-299.52,-192.91L-340.28,-83.24ZM-274.90,-58.94L-218.47,-210.80L-237.45,-217.85L-293.88,-66.00ZM-102.47,-167.69L-121.45,-174.75L-141.36,-121.16L-149.21,-136.45L-165.16,-147.37L-206.91,-144.10L-235.13,-106.04L-238.61,-58.80L-209.13,-29.06L-188.62,-27.25L-170.20,-37.08L-175.77,-22.11L-158.90,-15.84ZM-170.06,-130.84L-152.35,-111.89L-155.29,-76.38L-177.06,-47.87L-202.04,-44.79L-219.23,-63.54L-215.76,-98.84L-195.33,-127.86ZM37.25,57.05L43.91,39.12L-42.98,6.83L-24.17,-43.79L50.07,-16.20L56.73,-34.13L-17.51,-61.71L0.12,-109.17L84.91,-77.66L91.57,-95.59L-13.25,-134.54L-69.68,17.31ZM160.00,18.95L91.10,14.94L68.77,36.48L70.81,65.59L94.68,83.33L115.74,86.81L138.64,80.29L133.85,92.94L151.56,99.53L177.88,28.79L179.86,-7.12L151.14,-30.37L118.94,-34.13L96.63,-18.06L108.24,-3.21L124.10,-16.29L143.44,-15.59L159.90,-3.33ZM153.76,35.73L143.44,63.49L125.64,70.26L103.47,68.97L90.55,59.96L89.32,43.16L103.32,31.40ZM262.69,32.00L275.19,42.01L286.84,28.10L270.87,14.16L250.67,13.04L231.45,26.00L238.51,7.02L221.42,0.67L181.07,109.27L199.65,117.39L221.67,58.13L238.44,34.26ZM307.89,159.29L307.89,159.29L311.78,142.11L302.81,140.23L295.38,132.20L298.88,117.78L322.31,54.72L341.08,61.70L346.49,47.14L327.72,40.17L341.83,2.20L322.84,-4.85L308.74,33.11L293.13,27.31L287.72,41.87L303.33,47.67L279.90,110.73L274.39,138.82L292.63,155.93ZM329.15,165.52L348.27,172.62L370.45,112.93L389.00,88.20L414.06,86.43L428.80,101.27L425.61,125.58L400.86,192.16L419.79,199.20L444.67,132.49L449.95,96.22L424.00,71.51L402.03,68.63L383.43,77.91L404.67,20.75L385.58,13.66Z" fill="#ffffff" stroke="#000000"/>
    <path d="M-906.35,492L-906.35,469.28L-898.22,492L-894.99,492L-886.86,469.28L-886.86,492L-883.25,492L-883.25,464.64L-888.22,464.64L-896.55,487.33L-904.68,464.64L-909.96,464.64L-909.96,492ZM-865.67,478.75L-876.82,482.17L-879.09,486.89L-877.05,491.38L-872.23,492.78L-868.69,492.09L-865.45,489.71L-865.46,492L-862.27,492L-862.27,479.25L-864.06,473.45L-869.98,471.46L-875.30,472.76L-877.88,476.62L-875.17,478.28L-873.43,475.28L-870.33,474.25L-867.00,475.23ZM-865.67,481.77L-865.68,486.77L-868.09,488.89L-871.68,489.99L-874.26,489.33L-875.44,486.74L-873.91,484.05ZM-857.12,492L-853.70,492L-853.70,481.25L-852.22,476.17L-848.35,474.41L-845.15,475.90L-844.22,479.88L-844.22,492L-840.80,492L-840.80,479.88L-842.09,473.85L-847.66,471.47L-851.35,472.28L-854.04,475.09L-854.04,472.24L-857.12,472.24ZM-833.34,468.94L-832.11,467.58L-832.10,465.65L-833.36,464.27L-835.12,464.27L-836.35,465.65L-836.35,467.58L-835.10,468.94ZM-832.52,492L-832.52,472.24L-835.94,472.24L-835.94,492ZM-818.31,468.12L-817.85,465.29L-820.94,464.71L-825.30,466.41L-826.70,471.29L-826.70,472.24L-829.67,472.24L-829.67,474.86L-826.70,474.86L-826.70,492L-823.40,492L-823.40,474.86L-819.56,474.86L-819.56,472.24L-823.40,472.24L-823.40,471.21L-822.75,468.65L-820.52,467.74ZM-807.97,471.46L-814.77,474.29L-817.39,482.12L-814.77,489.95L-807.97,492.78L-801.17,489.95L-798.55,482.12L-801.16,474.29ZM-807.97,489.87L-812.08,488.06L-813.90,482.12L-812.08,476.18L-807.97,474.37L-803.85,476.18L-802.04,482.12L-803.85,488.06ZM-795.03,492L-791.61,492L-791.61,481.25L-790.13,476.17L-786.26,474.41L-783.06,475.90L-782.13,479.88L-782.13,492L-778.71,492L-778.71,479.88L-780.00,473.85L-785.56,471.47L-789.26,472.28L-791.95,475.09L-791.95,472.24L-795.03,472.24ZM-765.45,492.27L-765.45,492.26L-765.85,489.32L-767.38,489.55L-769.03,488.71L-769.32,486.22L-769.32,474.86L-765.94,474.86L-765.94,472.24L-769.32,472.24L-769.32,465.40L-772.74,465.40L-772.74,472.24L-775.55,472.24L-775.55,474.86L-772.74,474.86L-772.74,486.22L-771.96,491.00L-768.07,492.63ZM-737.50,487.93L-737.50,478.13L-749.05,478.13L-749.05,481.31L-740.99,481.31L-740.97,486.22L-748.63,489.75L-755.95,486.41L-758.55,478.32L-756.06,470.17L-749.21,466.88L-744.27,468.25L-741.30,473.01L-738.24,471.11L-741.44,465.93L-749.13,463.79L-758.98,468.04L-762.42,478.32L-758.78,488.60L-748.74,492.86ZM-724.35,474.77L-721.78,475.62L-720.76,472.73L-724.11,471.47L-727.37,472.48L-729.65,475.66L-729.65,472.24L-732.73,472.24L-732.73,491.81L-729.31,492L-729.31,481.32L-728.06,476.56ZM-710.01,471.46L-716.81,474.29L-719.42,482.12L-716.81,489.95L-710.01,492.78L-703.20,489.95L-700.58,482.12L-703.20,474.29ZM-710.01,489.87L-714.12,488.06L-715.93,482.12L-714.12,476.18L-710.01,474.37L-705.89,476.18L-704.07,482.12L-705.89,488.06ZM-688.58,492.27L-688.58,492.26L-688.97,489.32L-690.51,489.55L-692.15,488.71L-692.45,486.22L-692.45,474.86L-689.07,474.86L-689.07,472.24L-692.45,472.24L-692.45,465.40L-695.87,465.40L-695.87,472.24L-698.68,472.24L-698.68,474.86L-695.87,474.86L-695.87,486.22L-695.09,491.00L-691.19,492.63ZM-680.57,488.24L-682.57,483.00L-667.90,482.99L-667.71,481.63L-669.97,474.39L-676.83,471.45L-683.53,474.28L-686.05,482.11L-683.53,489.93L-676.83,492.76L-671.18,491.10L-668.58,487.02L-671.25,485.36L-673.32,488.74L-676.63,489.86ZM-682.45,480.26L-680.31,475.73L-676.83,474.35L-672.95,476.00L-671.40,480.26ZM-661.99,485.88L-664.90,487.24L-662.96,491.11L-657.11,492.78L-651.52,491.39L-648.97,486.66L-650.50,482.61L-653.83,480.90L-658.44,479.65L-661.00,478.62L-661.84,477.05L-660.74,475.10L-657.52,474.38L-654.42,475.23L-653.09,477.74L-650.21,476.38L-651.88,473.07L-657.39,471.46L-662.84,472.86L-665.18,477.43L-663.66,481.06L-660.23,482.69L-655.36,483.98L-653.07,485.13L-652.46,486.96L-653.99,489.26L-656.99,489.87L-660.63,488.67ZM-641.92,483.45L-638.72,483.45L-637.20,484.67L-633.14,492.30L-630.05,490.63L-634.16,483.45L-636.67,482.04L-634.62,480.06L-632.77,476.14L-631.66,475.64L-630.10,475.39L-630.56,472.24L-633.40,472.52L-635.30,474.17L-637.43,478.82L-638.72,480.60L-641.91,480.60L-641.91,464.64L-643.66,464.64L-645.32,464.64L-645.33,492L-641.92,492ZM-625.58,492.01L-615.04,492.01L-607.42,490.45L-604.53,484.21L-606.06,480.03L-610.31,477.70L-606.80,475.27L-605.82,471.62L-608.58,466.13L-615.58,464.63L-625.58,464.63ZM-621.94,476.42L-621.95,467.89L-616.40,467.89L-611.64,468.44L-609.62,472.08L-611.57,475.51L-615.93,476.42ZM-621.94,488.79L-621.94,479.64L-615.54,479.64L-610.64,480.53L-608.45,484.21L-610.32,488.02L-615.04,488.79ZM-592.40,471.46L-599.20,474.29L-601.81,482.12L-599.20,489.95L-592.40,492.78L-585.59,489.95L-582.97,482.12L-585.59,474.29ZM-592.40,489.87L-596.51,488.06L-598.32,482.12L-596.51,476.18L-592.40,474.37L-588.28,476.18L-586.46,482.12L-588.28,488.06ZM-571.27,471.46L-578.07,474.29L-580.68,482.12L-578.07,489.95L-571.27,492.78L-564.46,489.95L-561.85,482.12L-564.46,474.29ZM-571.27,489.87L-575.38,488.06L-577.19,482.12L-575.38,476.18L-571.27,474.37L-567.15,476.18L-565.33,482.12L-567.15,488.06ZM-554.82,483.45L-551.62,483.45L-550.10,484.67L-546.04,492.30L-542.96,490.63L-547.06,483.45L-549.57,482.04L-547.52,480.06L-545.67,476.14L-544.56,475.64L-543.00,475.39L-543.46,472.24L-546.31,472.52L-548.20,474.17L-550.34,478.82L-551.62,480.60L-554.82,480.60L-554.82,464.64L-556.56,464.64L-558.23,464.64L-558.23,492L-554.82,492Z"/>
</svg>