<?xml version="1.0"?>
<svg xmlns="http://www.w3.org/2000/svg" width="1920" height="1080" viewBox="-960 -540 1920 1080">
    <path d="M-561.63,-263.50L-547.13,-227.25L-568.88,-210L-495.63,-210L-513.38,-226.75L-577.88,-383.75L-588.88,-383.75L-649.38,-229.75L-666.38,-210L-613.63,-210L-636.38,-229.50L-623.38,-263.50ZM-565.88,-274.75L-619.13,-274.75L-593.13,-343.25ZM-426.88,-381.25L-412.63,-355.25L-412.63,-236.50L-426.88,-210L-374.38,-210C-340.63,-210 -294.63,-219.75 -294.63,-255.75C-294.63,-281.25 -313.13,-296 -342.88,-303C-325.13,-310 -305.13,-321 -305.13,-343.50C-305.13,-373.25 -336.38,-381.25 -372.38,-381.25ZM-381.63,-373.25L-373.38,-373.25C-357.13,-373.25 -335.88,-368.50 -335.88,-338.50C-335.88,-319 -351.13,-304.50 -381.63,-304.50ZM-381.63,-219.75L-381.63,-298.25C-351.13,-298.25 -329.63,-289.50 -329.63,-256.50C-329.63,-232.50 -349.88,-219.75 -374.13,-219.75ZM-189.63,-266.75C-189.63,-266.75 -206.88,-224.75 -224.88,-224.75C-233.88,-224.75 -240.63,-239 -242.88,-259.75L-187.88,-307C-187.88,-312 -195.38,-335.75 -219.13,-335.75C-249.88,-335.75 -275.38,-293 -275.38,-257C-275.38,-223.75 -260.63,-207 -238.38,-207C-214.13,-207 -192.13,-242.75 -185.63,-264.25ZM-243.38,-265.75C-243.63,-269.25 -243.88,-273 -243.88,-277C-243.88,-317 -236.13,-325.25 -231.63,-328C-228.38,-330.25 -215.88,-318.25 -214.63,-293ZM-138.63,-210C-123.88,-233.75 -106.63,-267.50 -97.88,-303.25L-100.88,-274.25L-100.88,-216.25C-101.13,-176.25 -112.63,-166.75 -128.63,-166.75C-138.88,-166.75 -162.38,-175.50 -176.88,-187.50L-178.38,-185.75L-150.63,-151.75L-149.13,-151.75C-116.63,-151.75 -72.38,-187.25 -72.38,-228.75L-72.38,-231.75L-71.88,-238.25L-72.13,-238.25L-72.13,-240.25C-71.88,-266.50 -71.88,-292.75 -71.63,-318.75L-62.13,-332.50L-90.63,-332.50C-143.38,-331.50 -171.38,-296.25 -171.38,-250.75C-171.38,-230.50 -164.63,-212.50 -157.13,-207.25ZM-134.63,-229.25C-137.63,-229.25 -140.38,-239.75 -140.38,-264.25C-140.38,-289.50 -133.88,-325 -100.38,-325.25C-100.63,-298.75 -129.88,-229.25 -134.63,-229.25ZM-1.63,-369.75L-22.38,-392.75L-43.38,-369.75L-22.38,-346.50ZM-6.63,-231.50L-6.63,-335L-52.38,-318.25L-35.38,-299L-35.38,-210L11.88,-210ZM61.38,-335L15.63,-318.25L32.63,-299L32.63,-210L65.13,-210L61.38,-225.25C61.38,-246.25 79.13,-287.75 91.63,-312.50L93.63,-312.25C96.38,-302.50 98.63,-285 98.63,-246L98.63,-210L145.88,-210L127.38,-231.50L127.38,-260.50C127.38,-311.50 126.88,-318.75 120.38,-338.75L95.88,-332.50C90.63,-325.25 71.13,-289 61.38,-252ZM197.13,-335L151.38,-318.25L168.38,-299L168.38,-210L200.88,-210L197.13,-225.25C197.13,-246.25 214.88,-287.75 227.38,-312.50L229.38,-312.25C232.13,-302.50 234.38,-285 234.38,-246L234.38,-210L281.63,-210L263.13,-231.50L263.13,-260.50C263.13,-311.50 262.63,-318.75 256.13,-338.75L231.63,-332.50C226.38,-325.25 206.88,-289 197.13,-252ZM338.38,-369.75L317.63,-392.75L296.63,-369.75L317.63,-346.50ZM333.38,-231.50L333.38,-335L287.63,-318.25L304.63,-299L304.63,-210L351.88,-210ZM401.38,-335L355.63,-318.25L372.63,-299L372.63,-210L405.13,-210L401.38,-225.25C401.38,-246.25 419.13,-287.75 431.63,-312.50L433.63,-312.25C436.38,-302.50 438.63,-285 438.63,-246L438.63,-210L485.88,-210L467.38,-231.50L467.38,-260.50C467.38,-311.50 466.88,-318.75 460.38,-338.75L435.88,-332.50C430.63,-325.25 411.13,-289 401.38,-252ZM528.63,-210C543.38,-233.75 560.63,-267.50 569.38,-303.25L566.38,-274.25L566.38,-216.25C566.13,-176.25 554.63,-166.75 538.63,-166.75C528.38,-166.75 504.88,-175.50 490.38,-187.50L488.88,-185.75L516.63,-151.75L518.13,-151.75C550.63,-151.75 594.88,-187.25 594.88,-228.75L594.88,-231.75L595.38,-238.25L595.13,-238.25L595.13,-240.25C595.38,-266.50 595.38,-292.75 595.63,-318.75L605.13,-332.50L576.63,-332.50C523.88,-331.50 495.88,-296.25 495.88,-250.75C495.88,-230.50 502.63,-212.50 510.13,-207.25ZM532.63,-229.25C529.63,-229.25 526.88,-239.75 526.88,-264.25C526.88,-289.50 533.38,-325 566.88,-325.25C566.63,-298.75 537.38,-229.25 532.63,-229.25Z" fill="#ffffff" stroke="#000000"/>
    <path d="M-545.49,-291.10L-533.31,-254.41L-555.83,-238.66L-483.44,-234.31L-499.99,-251.92L-554.42,-410.90L-565.29,-411.55L-634.21,-262.95L-652.18,-244.44L-600.05,-241.31L-621.38,-261.93L-606.51,-294.76ZM-549.02,-302.47L-601.64,-305.63L-571.89,-371.78ZM-405.34,-399.47L-392.80,-372.93L-399.85,-255.58L-415.50,-230.24L-363.62,-227.12C-330.27,-225.12 -284.23,-232.03 -282.09,-267.60C-280.58,-292.80 -297.99,-308.48 -326.97,-317.16C-309.02,-323.02 -288.60,-332.71 -287.27,-354.94C-285.50,-384.34 -315.91,-394.10 -351.48,-396.24ZM-361.10,-388.88L-352.95,-388.39C-336.89,-387.43 -316.17,-381.47 -317.95,-351.83C-319.11,-332.55 -335.04,-319.13 -365.18,-320.94ZM-370.20,-237.19L-365.55,-314.76C-335.41,-312.95 -314.68,-303.03 -316.64,-270.42C-318.06,-246.70 -338.83,-235.30 -362.79,-236.74ZM-177.68,-272.25C-177.68,-272.25 -197.22,-231.76 -215.00,-232.83C-223.90,-233.37 -229.72,-247.85 -230.72,-268.49L-173.56,-311.92C-173.26,-316.86 -179.27,-340.77 -202.74,-342.18C-233.13,-344.01 -260.86,-303.27 -263.00,-267.70C-264.97,-234.84 -251.39,-217.41 -229.40,-216.09C-205.43,-214.65 -181.57,-248.68 -173.87,-269.54ZM-230.85,-274.45C-230.89,-277.92 -230.92,-281.64 -230.68,-285.59C-228.31,-325.12 -220.16,-332.81 -215.55,-335.27C-212.21,-337.30 -200.56,-324.70 -200.83,-299.67ZM-130.64,-213.14C-114.66,-235.74 -95.61,-268.06 -84.84,-302.87L-89.53,-274.39L-92.97,-217.08C-95.59,-177.56 -107.52,-168.86 -123.33,-169.81C-133.46,-170.41 -156.16,-180.45 -169.78,-193.17L-171.36,-191.53L-145.96,-156.29L-144.48,-156.20C-112.36,-154.27 -66.52,-186.73 -64.06,-227.74L-63.88,-230.70L-63.01,-237.10L-63.25,-237.11L-63.13,-239.09C-61.33,-265.02 -59.77,-290.96 -57.98,-316.63L-47.78,-329.66L-75.94,-331.35C-128.13,-333.49 -157.89,-300.32 -160.59,-255.35C-161.79,-235.34 -156.19,-217.15 -149.09,-211.52ZM-125.55,-231.93C-128.51,-232.10 -130.61,-242.64 -129.16,-266.85C-127.66,-291.81 -119.13,-326.50 -86.01,-324.76C-87.83,-298.59 -120.86,-231.64 -125.55,-231.93ZM14.22,-362.88L-4.92,-386.84L-27.04,-365.36L-7.67,-341.14ZM1.08,-226.56L7.21,-328.84L-38.99,-315.00L-23.33,-294.97L-28.61,-207.02L18.08,-204.21ZM74.41,-324.81L28.21,-310.97L43.87,-290.93L38.59,-202.98L70.71,-201.06L67.90,-216.35C69.15,-237.10 89.15,-277.06 102.97,-300.78L104.93,-300.41C107.07,-290.61 108.26,-273.18 105.95,-234.64L103.81,-199.07L150.50,-196.27L133.50,-218.61L135.22,-247.27C138.24,-297.67 138.18,-304.86 132.94,-325.01L108.36,-320.29C102.74,-313.44 81.32,-278.77 69.49,-242.78ZM208.56,-316.75L162.36,-302.91L178.02,-282.88L172.74,-194.93L204.86,-193.00L202.06,-208.30C203.30,-229.05 223.30,-269.01 237.12,-292.72L239.09,-292.36C241.23,-282.56 242.41,-265.13 240.10,-226.59L237.96,-191.02L284.66,-188.21L267.65,-210.56L269.37,-239.22C272.39,-289.62 272.33,-296.81 267.09,-316.96L242.51,-312.24C236.89,-305.38 215.47,-270.72 203.64,-234.73ZM350.21,-342.72L331.07,-366.68L308.95,-345.19L328.33,-320.97ZM337.07,-206.39L343.21,-308.67L297.01,-294.83L312.66,-274.80L307.38,-186.85L354.08,-184.05ZM410.41,-304.64L364.20,-290.80L379.86,-270.77L374.58,-182.82L406.70,-180.89L403.90,-196.18C405.15,-216.94 425.15,-256.89 438.97,-280.61L440.93,-280.25C443.07,-270.45 444.25,-253.02 441.94,-214.48L439.81,-178.90L486.50,-176.10L469.49,-198.44L471.21,-227.10C474.24,-277.50 474.17,-284.70 468.94,-304.85L444.35,-300.12C438.74,-293.27 417.32,-258.60 405.49,-222.62ZM528.75,-173.56C544.73,-196.16 563.78,-228.49 574.55,-263.30L569.86,-234.82L566.42,-177.50C563.80,-137.99 551.88,-129.28 536.06,-130.23C525.93,-130.84 503.23,-140.88 489.61,-153.60L488.03,-151.96L513.43,-116.71L514.92,-116.62C547.03,-114.70 592.87,-147.15 595.33,-188.16L595.51,-191.13L596.39,-197.52L596.14,-197.54L596.26,-199.51C598.06,-225.44 599.62,-251.38 601.41,-277.06L611.61,-290.08L583.45,-291.78C531.26,-293.92 501.50,-260.74 498.80,-215.78C497.60,-195.77 503.20,-177.58 510.30,-171.94ZM533.84,-192.35C530.88,-192.53 528.78,-203.07 530.23,-227.28C531.73,-252.23 540.26,-286.93 573.38,-285.19C571.56,-259.02 538.54,-192.07 533.84,-192.35Z" fill="#ffffff" stroke="#000000"/>
    <path d="M-527.94,-317.77L-518.08,-280.80L-541.26,-266.57L-469.99,-257.98L-485.30,-276.36L-529.65,-436.68L-540.35,-437.97L-617.27,-295.22L-636.12,-278.00L-584.80,-271.82L-604.65,-293.45L-588.02,-325.01ZM-530.75,-329.22L-582.56,-335.46L-549.24,-399.06ZM-383.03,-416.55L-372.21,-389.58L-386.13,-274.04L-403.10,-249.93L-352.02,-243.77C-319.18,-239.82 -273.28,-243.91 -269.06,-278.94C-266.07,-303.75 -282.34,-320.27 -310.47,-330.57C-292.38,-335.30 -271.63,-343.65 -268.99,-365.55C-265.51,-394.49 -294.97,-405.94 -330.00,-410.16ZM-339.94,-403.46L-331.91,-402.49C-316.10,-400.59 -295.98,-393.47 -299.50,-364.29C-301.78,-345.31 -318.32,-332.99 -348.00,-336.57ZM-357.93,-254.11L-348.73,-330.49C-319.05,-326.91 -299.16,-315.88 -303.03,-283.77C-305.84,-260.42 -327.04,-250.39 -350.63,-253.23ZM-165.61,-277.33C-165.61,-277.33 -187.32,-238.49 -204.83,-240.60C-213.59,-241.66 -218.49,-256.31 -218.24,-276.76L-159.19,-316.29C-158.60,-321.15 -163.12,-345.14 -186.23,-347.93C-216.14,-351.53 -245.97,-312.92 -250.19,-277.90C-254.08,-245.55 -241.70,-227.52 -220.05,-224.91C-196.45,-222.07 -170.86,-254.28 -162.01,-274.43ZM-218.03,-282.66C-217.86,-286.10 -217.66,-289.77 -217.19,-293.66C-212.50,-332.58 -204.00,-339.70 -199.30,-341.85C-195.87,-343.66 -185.12,-330.52 -186.86,-305.80ZM-122.64,-216.14C-105.51,-237.52 -84.77,-268.33 -72.06,-302.09L-78.38,-274.23L-85.18,-217.80C-90.11,-178.91 -102.41,-171.01 -117.98,-172.89C-127.95,-174.09 -149.79,-185.36 -162.50,-198.73L-164.16,-197.20L-141.14,-160.87L-139.69,-160.70C-108.06,-156.89 -60.85,-186.24 -55.99,-226.62L-55.63,-229.54L-54.39,-235.80L-54.63,-235.83L-54.39,-237.78C-51.07,-263.29 -48.00,-288.83 -44.71,-314.10L-33.85,-326.36L-61.58,-329.70C-113.02,-334.91 -144.40,-303.90 -149.73,-259.63C-152.10,-239.92 -147.65,-221.62 -140.96,-215.63ZM-116.49,-234.40C-119.41,-234.75 -120.86,-245.29 -117.99,-269.13C-115.03,-293.70 -104.54,-327.47 -71.92,-323.79C-75.27,-298.04 -111.87,-233.84 -116.49,-234.40ZM29.38,-355.51L11.89,-380.32L-11.24,-360.41L6.46,-335.32ZM8.31,-221.59L20.44,-322.29L-26.04,-311.35L-11.75,-290.63L-22.18,-204.04L23.79,-198.50ZM86.60,-314.32L40.13,-303.38L54.41,-282.66L43.98,-196.07L75.60,-192.26L73.74,-207.54C76.20,-227.97 98.33,-266.27 113.40,-288.88L115.31,-288.40C116.85,-278.59 116.99,-261.30 112.41,-223.36L108.19,-188.33L154.17,-182.79L138.69,-205.88L142.09,-234.10C148.06,-283.72 148.43,-290.83 144.45,-311.05L119.88,-307.84C113.92,-301.40 90.70,-268.42 76.87,-233.56ZM218.68,-298.41L172.21,-287.47L186.49,-266.75L176.06,-180.16L207.68,-176.35L205.82,-191.62C208.28,-212.06 230.41,-250.35 245.48,-272.97L247.39,-272.49C248.93,-262.68 249.07,-245.39 244.49,-207.45L240.27,-172.42L286.25,-166.88L270.77,-189.97L274.17,-218.19C280.14,-267.81 280.51,-274.92 276.53,-295.14L251.96,-291.93C246.00,-285.49 222.78,-252.51 208.95,-217.65ZM360.19,-315.66L342.69,-340.47L319.57,-320.55L337.27,-295.47ZM339.12,-181.73L351.25,-282.44L304.77,-271.50L319.06,-250.78L308.63,-164.19L354.60,-158.65ZM417.41,-274.47L370.93,-263.53L385.22,-242.81L374.79,-156.22L406.41,-152.41L404.55,-167.68C407.01,-188.12 429.14,-226.41 444.21,-249.03L446.12,-248.55C447.66,-238.74 447.79,-221.45 443.22,-183.51L439.00,-148.48L484.98,-142.94L469.50,-166.03L472.89,-194.24C478.87,-243.87 479.24,-250.98 475.26,-271.20L450.69,-267.99C444.73,-261.55 421.51,-228.57 407.68,-193.71ZM526.57,-137.93C543.70,-159.31 564.44,-190.13 577.15,-223.88L570.83,-196.02L564.03,-139.59C559.10,-100.70 546.80,-92.80 531.23,-94.68C521.26,-95.88 499.42,-107.15 486.72,-120.52L485.05,-119.00L508.07,-82.66L509.53,-82.49C541.15,-78.68 588.36,-108.03 593.23,-148.41L593.58,-151.33L594.83,-157.59L594.58,-157.62L594.82,-159.57C598.14,-185.08 601.21,-210.62 604.50,-235.89L615.36,-248.15L587.63,-251.49C536.19,-256.70 504.81,-225.69 499.48,-181.42C497.11,-161.72 501.57,-143.41 508.25,-137.42ZM532.72,-156.19C529.80,-156.54 528.35,-167.08 531.23,-190.92C534.18,-215.49 544.67,-249.27 577.29,-245.58C573.94,-219.83 537.34,-155.63 532.72,-156.19Z" fill="#ffffff" stroke="#000000"/>
    <path d="M-509.01,-343.45L-501.46,-306.34L-525.21,-293.65L-455.31,-280.94L-469.34,-300.01L-503.66,-461.03L-514.16,-462.94L-598.61,-326.46L-618.26,-310.57L-567.92,-301.41L-586.25,-323.97L-567.94,-354.16ZM-511.12,-354.92L-561.94,-364.16L-525.24,-425.02ZM-359.98,-432.45L-350.90,-405.16L-371.50,-291.83L-389.70,-269.01L-339.59,-259.90C-307.38,-254.05 -261.79,-255.37 -255.54,-289.73C-251.12,-314.06 -266.22,-331.35 -293.39,-343.19C-275.24,-346.79 -254.24,-353.82 -250.34,-375.30C-245.18,-403.69 -273.61,-416.74 -307.97,-422.99ZM-318.19,-416.96L-310.31,-415.53C-294.81,-412.71 -275.35,-404.49 -280.55,-375.86C-283.94,-357.25 -301.01,-346.06 -330.12,-351.35ZM-344.82,-270.47L-331.20,-345.38C-302.09,-340.09 -283.09,-328.01 -288.82,-296.52C-292.98,-273.61 -314.52,-264.96 -337.66,-269.16ZM-153.43,-282.01C-153.43,-282.01 -177.18,-244.92 -194.36,-248.04C-202.95,-249.60 -206.92,-264.37 -205.46,-284.57L-144.77,-320.12C-143.91,-324.89 -146.94,-348.86 -169.61,-352.98C-198.96,-358.31 -230.71,-321.94 -236.96,-287.58C-242.73,-255.85 -231.55,-237.30 -210.32,-233.44C-187.18,-229.24 -159.98,-259.54 -150.04,-278.93ZM-204.90,-290.38C-204.53,-293.76 -204.12,-297.39 -203.42,-301.20C-196.48,-339.38 -187.66,-345.91 -182.88,-347.75C-179.39,-349.33 -169.54,-335.71 -172.73,-311.40ZM-114.60,-219.00C-96.40,-239.11 -74.09,-268.32 -59.53,-300.92L-67.43,-273.77L-77.49,-218.42C-84.67,-180.28 -97.29,-173.21 -112.56,-175.99C-122.34,-177.77 -143.25,-190.20 -155.01,-204.16L-156.75,-202.75L-136.16,-165.49L-134.73,-165.23C-103.71,-159.59 -55.32,-185.79 -48.12,-225.40L-47.60,-228.26L-46.00,-234.38L-46.24,-234.42L-45.89,-236.33C-41.10,-261.34 -36.54,-286.39 -31.79,-311.16L-20.34,-322.64L-47.54,-327.58C-98.06,-335.78 -130.89,-307.00 -138.79,-263.57C-142.30,-244.25 -138.98,-225.90 -132.74,-219.59ZM-107.45,-236.68C-110.31,-237.20 -111.11,-247.70 -106.86,-271.08C-102.48,-295.18 -90.12,-327.93 -58.10,-322.35C-62.94,-297.11 -102.91,-235.85 -107.45,-236.68ZM43.86,-347.69L28.05,-373.24L4.02,-354.93L20.02,-329.10ZM15.10,-216.62L33.06,-315.39L-13.51,-307.35L-0.62,-286.02L-16.07,-201.09L29.03,-192.89ZM97.96,-303.59L51.39,-295.55L64.27,-274.23L48.83,-189.29L79.85,-183.65L78.91,-198.85C82.56,-218.90 106.70,-255.42 122.92,-276.87L124.79,-276.29C125.72,-266.51 124.83,-249.41 118.06,-212.19L111.82,-177.84L156.91,-169.64L142.99,-193.37L148.02,-221.04C156.87,-269.72 157.65,-276.72 154.91,-296.94L130.45,-295.22C124.18,-289.21 99.28,-258.00 83.56,-224.38ZM227.51,-280.04L180.94,-271.99L193.83,-250.67L178.39,-165.74L209.40,-160.10L208.47,-175.30C212.11,-195.34 236.25,-231.87 252.48,-253.32L254.34,-252.73C255.27,-242.95 254.39,-225.86 247.62,-188.64L241.37,-154.28L286.47,-146.09L272.54,-169.81L277.57,-197.49C286.42,-246.16 287.20,-253.17 284.47,-273.38L260.00,-271.67C253.73,-265.66 228.83,-234.45 213.11,-200.83ZM368.34,-288.70L352.53,-314.25L328.50,-295.94L344.51,-270.11ZM339.58,-157.63L357.54,-256.40L310.97,-248.35L323.86,-227.03L308.42,-142.10L353.51,-133.90ZM422.44,-244.60L375.87,-236.56L388.75,-215.24L373.31,-130.30L404.33,-124.66L403.40,-139.86C407.04,-159.91 431.18,-196.43 447.40,-217.88L449.27,-217.30C450.20,-207.52 449.31,-190.42 442.55,-153.20L436.30,-118.85L481.39,-110.65L467.47,-134.38L472.50,-162.05C481.35,-210.73 482.13,-217.73 479.40,-237.95L454.93,-236.23C448.66,-230.22 423.76,-199.01 408.04,-165.39ZM522.19,-103.23C540.39,-123.34 562.71,-152.56 577.26,-185.16L569.37,-158.00L559.30,-102.65C552.13,-64.52 539.50,-57.44 524.23,-60.22C514.45,-62.00 493.54,-74.43 481.78,-88.39L480.05,-86.99L500.63,-49.72L502.07,-49.46C533.08,-43.82 581.47,-70.03 588.67,-109.63L589.19,-112.49L590.80,-118.61L590.56,-118.65L590.91,-120.56C595.70,-145.57 600.25,-170.62 605.00,-195.39L616.45,-206.87L589.26,-211.81C538.74,-220.01 505.90,-191.23 498.01,-147.80C494.49,-128.48 497.81,-110.13 504.06,-103.82ZM529.35,-120.91C526.49,-121.43 525.68,-131.93 529.93,-155.31C534.32,-179.41 546.68,-212.16 578.69,-206.58C573.86,-181.34 533.88,-120.08 529.35,-120.91Z" fill="#ffffff" stroke="#000000"/>
    <path d="M-488.78,-368.05L-483.52,-330.94L-507.73,-319.81L-439.43,-303.11L-452.16,-322.78L-476.51,-483.89L-486.77,-486.40L-578.30,-356.58L-598.66,-342.04L-549.47,-330.01L-566.23,-353.38L-546.36,-382.13ZM-490.17,-379.51L-539.83,-391.65L-499.97,-449.60ZM-336.27,-447.13L-328.91,-419.64L-355.98,-308.90L-375.31,-287.44L-326.36,-275.47C-294.88,-267.77 -249.76,-266.38 -241.56,-299.95C-235.74,-323.73 -249.63,-341.70 -275.78,-355.01C-257.63,-357.49 -236.47,-363.19 -231.34,-384.17C-224.56,-411.92 -251.88,-426.50 -285.45,-434.71ZM-295.90,-429.36L-288.20,-427.48C-273.05,-423.77 -254.32,-414.50 -261.16,-386.52C-265.60,-368.34 -283.13,-358.29 -311.57,-365.24ZM-330.89,-286.21L-313.00,-359.42C-284.55,-352.46 -266.50,-339.40 -274.02,-308.63C-279.50,-286.25 -301.29,-278.97 -323.90,-284.50ZM-141.13,-286.27C-141.13,-286.27 -166.79,-251.03 -183.58,-255.14C-191.97,-257.19 -195.02,-272.02 -192.39,-291.88L-130.32,-323.40C-129.18,-328.07 -130.76,-351.92 -152.91,-357.34C-181.59,-364.35 -215.11,-330.30 -223.32,-296.73C-230.90,-265.72 -220.96,-246.74 -200.22,-241.66C-177.60,-236.13 -148.94,-264.46 -137.97,-283.02ZM-191.48,-297.59C-190.92,-300.91 -190.30,-304.46 -189.39,-308.19C-180.27,-345.50 -171.16,-351.42 -166.33,-352.96C-162.79,-354.32 -153.87,-340.28 -158.46,-316.45ZM-106.51,-221.72C-87.34,-240.50 -63.56,-268.04 -47.25,-299.39L-56.66,-273.03L-69.88,-218.94C-79.24,-181.70 -92.13,-175.46 -107.05,-179.11C-116.61,-181.44 -136.52,-194.96 -147.31,-209.46L-149.11,-208.17L-130.98,-170.13L-129.58,-169.79C-99.28,-162.38 -49.92,-185.40 -40.46,-224.10L-39.77,-226.90L-37.82,-232.84L-38.06,-232.90L-37.60,-234.77C-31.38,-259.19 -25.40,-283.67 -19.24,-307.86L-7.24,-318.51L-33.82,-325.01C-83.24,-336.10 -117.39,-309.62 -127.76,-267.19C-132.38,-248.30 -130.19,-229.98 -124.39,-223.37ZM-98.39,-238.76C-101.19,-239.44 -101.36,-249.86 -95.77,-272.71C-90.02,-296.25 -75.86,-327.88 -44.57,-320.47C-50.84,-295.82 -93.96,-237.68 -98.39,-238.76ZM57.67,-339.46L43.56,-365.64L18.73,-348.98L33.02,-322.51ZM21.48,-211.67L45.08,-308.19L-1.40,-303.00L10.06,-281.17L-10.23,-198.18L33.83,-187.41ZM108.49,-292.69L62.01,-287.50L73.48,-265.67L53.19,-182.68L83.49,-175.27L83.47,-190.34C88.26,-209.93 114.27,-244.58 131.57,-264.81L133.38,-264.12C133.72,-254.40 131.83,-237.57 122.94,-201.20L114.73,-167.63L158.79,-156.86L146.44,-181.12L153.06,-208.17C164.68,-255.73 165.87,-262.60 164.37,-282.73L140.10,-282.49C133.55,-276.93 107.10,-247.57 89.57,-215.29ZM235.09,-261.74L188.60,-256.55L200.07,-234.72L179.78,-151.73L210.08,-144.32L210.06,-159.39C214.85,-178.98 240.87,-213.63 258.17,-233.86L259.97,-233.17C260.31,-223.45 258.42,-206.62 249.53,-170.25L241.32,-136.68L285.39,-125.91L273.04,-150.17L279.65,-177.22C291.28,-224.78 292.46,-231.65 290.96,-251.78L266.69,-251.54C260.14,-245.98 233.69,-216.62 216.16,-184.34ZM374.73,-261.94L360.62,-288.12L335.80,-271.46L350.08,-244.99ZM338.55,-134.16L362.14,-230.67L315.66,-225.48L327.13,-203.66L306.83,-120.66L350.90,-109.89ZM425.56,-215.17L379.07,-209.98L390.54,-188.15L370.25,-105.16L400.55,-97.75L400.53,-112.83C405.32,-132.41 431.34,-167.06 448.64,-187.29L450.44,-186.60C450.78,-176.88 448.89,-160.05 440.00,-123.68L431.79,-90.11L475.86,-79.34L463.51,-103.61L470.12,-130.65C481.75,-178.21 482.93,-185.08 481.43,-205.22L457.16,-204.97C450.61,-199.41 424.16,-170.05 406.63,-137.77ZM515.72,-69.59C534.89,-88.38 558.67,-115.92 574.98,-147.26L565.57,-120.90L552.35,-66.81C543.00,-29.57 530.11,-23.33 515.19,-26.98C505.63,-29.32 485.71,-42.83 474.92,-57.33L473.13,-56.04L491.25,-18.01L492.65,-17.67C522.96,-10.26 572.32,-33.27 581.78,-71.97L582.46,-74.77L584.41,-80.72L584.18,-80.78L584.63,-82.64C590.85,-107.06 596.84,-131.54 603.00,-155.73L614.99,-166.39L588.41,-172.88C538.99,-183.98 504.85,-157.49 494.47,-115.06C489.86,-96.18 492.05,-77.85 497.84,-71.25ZM523.84,-86.63C521.04,-87.32 520.87,-97.73 526.46,-120.58C532.22,-144.13 546.37,-175.75 577.67,-168.35C571.39,-143.69 528.27,-85.55 523.84,-86.63Z" fill="#ffffff" stroke="#000000"/>
    <path d="M-467.28,-391.50L-464.29,-354.53L-488.87,-344.97L-422.39,-324.43L-433.80,-344.61L-448.30,-505.20L-458.29,-508.29L-556.40,-385.48L-577.37,-372.32L-529.49,-357.52L-544.67,-381.61L-523.33,-408.82ZM-467.99,-402.90L-516.32,-417.84L-473.50,-472.72ZM-311.95,-460.58L-306.31,-432.98L-339.62,-325.20L-359.98,-305.14L-312.33,-290.42C-281.70,-280.95 -237.21,-276.90 -227.12,-309.57C-219.96,-332.72 -232.62,-351.29 -257.66,-365.99C-239.58,-367.37 -218.34,-371.74 -212.03,-392.16C-203.69,-419.17 -229.81,-435.19 -262.48,-445.29ZM-273.12,-440.62L-265.63,-438.31C-250.89,-433.75 -232.93,-423.48 -241.35,-396.25C-246.81,-378.55 -264.72,-369.67 -292.41,-378.22ZM-316.18,-301.30L-294.16,-372.55C-266.48,-363.99 -249.42,-350.02 -258.67,-320.07C-265.40,-298.29 -287.36,-292.39 -309.37,-299.20ZM-128.73,-290.10C-128.73,-290.10 -156.17,-256.82 -172.50,-261.87C-180.67,-264.39 -182.80,-279.22 -179.02,-298.69L-115.85,-326.15C-114.45,-330.68 -114.59,-354.34 -136.15,-361.01C-164.06,-369.63 -199.20,-337.98 -209.29,-305.31C-218.62,-275.13 -209.93,-255.79 -189.73,-249.55C-167.72,-242.74 -137.73,-269.02 -125.80,-286.71ZM-177.79,-304.27C-177.04,-307.52 -176.21,-310.99 -175.09,-314.62C-163.87,-350.93 -154.52,-356.24 -149.67,-357.48C-146.09,-358.61 -138.11,-344.21 -144.06,-320.94ZM-98.36,-224.29C-78.31,-241.71 -53.18,-267.50 -35.21,-297.50L-46.07,-272.02L-62.34,-219.37C-73.79,-183.14 -86.89,-177.74 -101.41,-182.23C-110.71,-185.10 -129.59,-199.64 -139.38,-214.60L-141.24,-213.43L-125.59,-174.79L-124.22,-174.36C-94.73,-165.25 -44.61,-185.06 -32.96,-222.73L-32.12,-225.45L-29.85,-231.21L-30.07,-231.28L-29.51,-233.09C-21.92,-256.85 -14.56,-280.67 -7.04,-304.20L5.44,-314.02L-20.43,-322.01C-68.59,-335.90 -103.89,-311.76 -116.65,-270.46C-122.33,-252.08 -121.25,-233.85 -115.92,-226.98ZM-89.33,-240.64C-92.05,-241.48 -91.60,-251.78 -84.73,-274.02C-77.64,-296.94 -61.79,-327.34 -31.31,-318.17C-38.97,-294.18 -85.01,-239.31 -89.33,-240.64ZM70.80,-330.86L58.42,-357.55L32.91,-342.57L45.45,-315.58ZM27.48,-206.78L56.52,-300.72L10.29,-298.35L20.32,-276.11L-4.64,-195.33L38.25,-182.08ZM118.24,-281.65L72.01,-279.28L82.04,-257.04L57.08,-176.25L86.58,-167.14L87.45,-182.03C93.34,-201.09 121.09,-233.78 139.38,-252.74L141.13,-251.95C140.89,-242.33 138.02,-225.82 127.08,-190.42L116.98,-157.74L159.87,-144.49L149.11,-169.19L157.24,-195.51C171.55,-241.80 173.13,-248.52 172.84,-268.50L148.85,-269.70C142.05,-264.59 114.18,-237.16 94.95,-206.31ZM241.45,-243.57L195.23,-241.20L205.26,-218.96L180.29,-138.18L209.79,-129.06L210.66,-143.96C216.55,-163.02 244.31,-195.70 262.59,-214.66L264.34,-213.87C264.10,-204.25 261.23,-187.74 250.29,-152.34L240.20,-119.66L283.08,-106.41L272.32,-131.12L280.46,-157.44C294.76,-203.73 296.34,-210.45 296.05,-230.42L272.06,-231.62C265.26,-226.52 237.40,-199.08 218.17,-168.23ZM379.40,-235.49L367.02,-262.19L341.51,-247.20L354.05,-220.21ZM336.08,-111.41L365.12,-205.35L318.89,-202.98L328.92,-180.74L303.96,-99.96L346.85,-86.71ZM426.84,-186.28L380.61,-183.91L390.64,-161.67L365.68,-80.89L395.18,-71.77L396.05,-86.66C401.94,-105.72 429.69,-138.41 447.98,-157.37L449.73,-156.58C449.49,-146.96 446.62,-130.45 435.68,-95.05L425.58,-62.37L468.47,-49.12L457.71,-73.82L465.84,-100.15C480.15,-146.44 481.73,-153.16 481.44,-173.13L457.45,-174.33C450.65,-169.22 422.78,-141.79 403.55,-110.94ZM507.27,-37.13C527.32,-54.55 552.45,-80.34 570.41,-110.34L559.56,-84.86L543.29,-32.21C531.84,4.02 518.74,9.42 504.22,4.93C494.91,2.06 476.04,-12.48 466.24,-27.44L464.39,-26.27L480.04,12.38L481.40,12.80C510.90,21.91 561.02,2.10 572.66,-35.56L573.50,-38.29L575.78,-44.05L575.55,-44.12L576.12,-45.93C583.71,-69.69 591.07,-93.51 598.59,-117.04L611.07,-126.86L585.20,-134.85C537.04,-148.74 501.74,-124.60 488.98,-83.30C483.30,-64.92 484.37,-46.69 489.71,-39.82ZM516.30,-53.48C513.58,-54.32 514.03,-64.62 520.90,-86.86C527.98,-109.78 543.84,-140.18 574.32,-131.01C566.66,-107.02 520.61,-52.15 516.30,-53.48Z" fill="#ffffff" stroke="#000000"/>
    <path d="M-444.60,-413.73L-443.83,-377.03L-468.68,-369.05L-404.23,-344.82L-414.30,-365.43L-419.11,-524.91L-428.79,-528.54L-532.97,-413.06L-554.46,-401.31L-508.05,-383.86L-521.62,-408.54L-498.93,-434.16ZM-444.62,-425.03L-491.47,-442.65L-445.93,-494.32ZM-287.08,-472.75L-283.15,-445.16L-322.43,-340.67L-343.74,-322.07L-297.55,-304.70C-267.85,-293.54 -224.15,-286.90 -212.24,-318.57C-203.81,-341.01 -215.20,-360.11 -239.06,-376.11C-221.13,-376.39 -199.89,-379.46 -192.45,-399.25C-182.61,-425.43 -207.45,-442.81 -239.13,-454.72ZM-249.91,-450.74L-242.66,-448.01C-228.36,-442.63 -211.23,-431.42 -221.16,-405.03C-227.61,-387.87 -245.82,-380.16 -272.66,-390.25ZM-300.70,-315.68L-274.73,-384.75C-247.89,-374.66 -231.87,-359.85 -242.79,-330.81C-250.73,-309.69 -272.76,-305.18 -294.10,-313.20ZM-116.22,-293.51C-116.22,-293.51 -145.29,-262.26 -161.13,-268.22C-169.05,-271.20 -170.27,-285.97 -165.39,-304.97L-101.36,-328.35C-99.71,-332.75 -98.45,-356.12 -119.35,-363.98C-146.40,-374.15 -182.98,-344.98 -194.89,-313.30C-205.89,-284.05 -198.46,-264.43 -178.88,-257.07C-157.54,-249.05 -126.36,-273.22 -113.53,-289.99ZM-163.84,-310.41C-162.90,-313.58 -161.88,-316.96 -160.56,-320.48C-147.33,-355.67 -137.78,-360.37 -132.91,-361.30C-129.30,-362.20 -122.28,-347.51 -129.53,-324.88ZM-90.12,-226.71C-69.29,-242.72 -42.94,-266.71 -23.42,-295.27L-35.65,-270.75L-54.84,-219.72C-68.29,-184.60 -81.55,-180.05 -95.63,-185.34C-104.65,-188.74 -122.43,-204.21 -131.22,-219.56L-133.12,-218.52L-119.95,-179.42L-118.63,-178.93C-90.04,-168.18 -39.36,-184.77 -25.63,-221.28L-24.64,-223.92L-22.04,-229.48L-22.26,-229.56L-21.60,-231.32C-12.70,-254.33 -4.01,-277.43 4.81,-300.22L17.72,-309.18L-7.36,-318.61C-54.10,-335.18 -90.40,-313.43 -105.45,-273.40C-112.15,-255.58 -112.17,-237.51 -107.31,-230.41ZM-80.23,-242.32C-82.87,-243.31 -81.82,-253.46 -73.71,-275.02C-65.36,-297.23 -47.89,-326.32 -18.34,-315.45C-27.32,-292.22 -76.05,-240.75 -80.23,-242.32ZM83.27,-321.94L72.62,-349.04L46.54,-335.75L57.32,-308.34ZM33.13,-201.95L67.38,-293.02L21.58,-293.41L30.17,-270.85L0.72,-192.55L42.30,-176.91ZM127.21,-270.52L81.41,-270.92L90.00,-248.36L60.55,-170.05L89.15,-159.30L90.89,-173.95C97.84,-192.43 127.19,-223.07 146.38,-240.71L148.05,-239.83C147.25,-230.34 143.44,-214.20 130.53,-179.89L118.62,-148.21L160.20,-132.58L151.03,-157.62L160.63,-183.13C177.50,-228.01 179.46,-234.55 180.36,-254.30L156.73,-256.90C149.71,-252.26 120.56,-226.82 99.74,-197.49ZM246.64,-225.61L200.85,-226.00L209.44,-203.44L179.99,-125.14L208.59,-114.38L210.33,-129.04C217.28,-147.52 246.63,-178.16 265.82,-195.80L267.49,-194.92C266.69,-185.43 262.88,-169.29 249.97,-134.97L238.06,-103.30L279.64,-87.67L270.47,-112.70L280.07,-138.22C296.94,-183.09 298.90,-189.64 299.80,-209.38L276.17,-211.99C269.15,-207.35 240.00,-181.91 219.18,-152.58ZM382.42,-209.45L371.77,-236.55L345.69,-223.26L356.47,-195.86ZM332.28,-89.46L366.52,-180.53L320.73,-180.93L329.32,-158.36L299.87,-80.06L341.45,-64.43ZM426.35,-158.03L380.56,-158.43L389.15,-135.87L359.70,-57.56L388.30,-46.81L390.04,-61.47C396.99,-79.94 426.34,-110.58 445.53,-128.22L447.20,-127.34C446.40,-117.85 442.59,-101.71 429.68,-67.40L417.77,-35.72L459.35,-20.09L450.18,-45.13L459.78,-70.64C476.65,-115.52 478.61,-122.06 479.51,-141.81L455.88,-144.42C448.86,-139.77 419.71,-114.33 398.89,-85.00ZM496.96,-5.95C517.80,-21.96 544.14,-45.95 563.67,-74.51L551.43,-49.99L532.24,1.04C518.79,36.15 505.53,40.71 491.45,35.41C482.43,32.02 464.65,16.55 455.86,1.19L453.96,2.24L467.13,41.33L468.45,41.83C497.04,52.58 547.72,35.99 561.45,-0.53L562.45,-3.17L565.04,-8.72L564.82,-8.80L565.48,-10.56C574.38,-33.58 583.07,-56.67 591.89,-79.46L604.80,-88.42L579.72,-97.85C532.98,-114.42 496.68,-92.67 481.63,-52.64C474.93,-34.82 474.91,-16.75 479.77,-9.65ZM506.85,-21.56C504.21,-22.55 505.26,-32.70 513.37,-54.26C521.72,-76.47 539.19,-105.56 568.74,-94.70C559.76,-71.46 511.03,-19.99 506.85,-21.56Z" fill="#ffffff" stroke="#000000"/>
    <path d="M-420.79,-434.67L-422.21,-398.39L-447.22,-391.98L-385.00,-364.22L-393.73,-385.17L-389.03,-542.96L-398.37,-547.12L-508.10,-439.25L-530.03,-428.92L-485.22,-408.93L-497.16,-434.11L-473.23,-458.06ZM-420.14,-445.83L-465.36,-466.01L-417.33,-514.34ZM-261.73,-483.62L-259.48,-456.14L-304.47,-355.28L-326.61,-338.17L-282.02,-318.28C-253.36,-305.49 -210.60,-296.35 -196.96,-326.92C-187.30,-348.58 -197.42,-368.12 -220.03,-385.33C-202.31,-384.55 -181.15,-386.32 -172.63,-405.43C-161.36,-430.69 -184.87,-449.33 -215.44,-462.97ZM-226.33,-459.68L-219.32,-456.55C-205.52,-450.40 -189.27,-438.31 -200.64,-412.83C-208.03,-396.27 -226.47,-389.73 -252.38,-401.29ZM-284.49,-329.31L-254.75,-395.98C-228.84,-384.42 -213.90,-368.85 -226.40,-340.82C-235.49,-320.44 -257.52,-317.28 -278.12,-326.47ZM-103.61,-296.48C-103.61,-296.48 -134.18,-267.35 -149.46,-274.17C-157.11,-277.58 -157.44,-292.24 -151.49,-310.71L-86.87,-330.00C-84.98,-334.25 -82.35,-357.26 -102.52,-366.26C-128.64,-377.91 -166.49,-351.27 -180.13,-320.69C-192.73,-292.45 -186.55,-272.64 -167.65,-264.20C-147.06,-255.02 -114.83,-277.04 -101.16,-292.84ZM-149.64,-316.00C-148.53,-319.06 -147.32,-322.34 -145.80,-325.74C-130.65,-359.71 -120.94,-363.78 -116.08,-364.41C-112.46,-365.09 -106.39,-350.17 -114.90,-328.25ZM-81.80,-228.96C-60.27,-243.54 -32.83,-265.67 -11.86,-292.72L-25.39,-269.22L-47.37,-219.96C-62.74,-186.09 -76.10,-182.37 -89.69,-188.44C-98.40,-192.32 -115.04,-208.66 -122.81,-224.34L-124.75,-223.42L-114.06,-184.03L-112.79,-183.46C-85.18,-171.15 -34.15,-184.53 -18.43,-219.78L-17.29,-222.33L-14.40,-227.66L-14.61,-227.76L-13.86,-229.45C-3.70,-251.65 6.25,-273.95 16.31,-295.94L29.59,-304.01L5.38,-314.81C-39.80,-333.95 -76.93,-314.62 -94.17,-275.98C-101.85,-258.78 -102.93,-240.93 -98.55,-233.63ZM-71.11,-243.79C-73.65,-244.93 -72.01,-254.89 -62.73,-275.70C-53.16,-297.14 -34.19,-324.83 -5.64,-312.35C-15.90,-289.94 -67.07,-241.99 -71.11,-243.79ZM95.09,-312.73L86.18,-340.13L59.63,-328.55L68.65,-300.84ZM38.46,-197.21L77.67,-285.11L32.47,-288.22L39.62,-265.43L5.89,-189.84L46.02,-171.94ZM135.43,-259.34L90.22,-262.45L97.37,-239.66L63.65,-164.07L91.25,-151.76L93.84,-166.13C101.80,-183.97 132.60,-212.49 152.59,-228.77L154.20,-227.80C152.84,-218.48 148.12,-202.77 133.34,-169.64L119.70,-139.07L159.83,-121.16L152.27,-146.43L163.25,-171.06C182.58,-214.38 184.90,-220.73 186.96,-240.18L163.78,-244.15C156.58,-239.98 126.28,-216.58 103.98,-188.85ZM250.72,-207.91L205.52,-211.02L212.66,-188.23L178.94,-112.64L206.55,-100.32L209.14,-114.70C217.10,-132.53 247.90,-161.05 267.89,-177.34L269.49,-176.37C268.13,-167.05 263.41,-151.33 248.64,-118.21L235.00,-87.63L275.13,-69.73L267.56,-95.00L278.55,-119.63C297.87,-162.94 300.20,-169.29 302.25,-188.74L279.08,-192.72C271.87,-188.55 241.57,-165.15 219.27,-137.42ZM383.85,-183.91L374.95,-211.30L348.40,-199.72L357.42,-172.02ZM327.23,-68.38L366.44,-156.29L321.24,-159.39L328.38,-136.60L294.66,-61.02L334.79,-43.11ZM424.20,-130.52L378.99,-133.63L386.14,-110.84L352.42,-35.25L380.02,-22.94L382.61,-37.31C390.57,-55.15 421.37,-83.67 441.36,-99.95L442.97,-98.98C441.61,-89.66 436.89,-73.94 422.11,-40.82L408.47,-10.24L448.60,7.66L441.04,-17.61L452.02,-42.24C471.35,-85.56 473.67,-91.90 475.73,-111.35L452.55,-115.33C445.34,-111.16 415.05,-87.76 392.75,-60.03ZM484.91,23.86C506.44,9.27 533.87,-12.85 554.85,-39.90L541.32,-16.41L519.34,32.85C503.97,66.73 490.61,70.44 477.02,64.38C468.31,60.49 451.67,44.16 443.90,28.47L441.96,29.39L452.65,68.78L453.92,69.35C481.52,81.66 532.56,68.28 548.28,33.03L549.42,30.49L552.31,25.15L552.09,25.06L552.85,23.36C563.01,1.16 572.96,-21.13 583.02,-43.12L596.30,-51.20L572.09,-62.00C526.91,-81.14 489.77,-61.81 472.53,-23.16C464.86,-5.96 463.77,11.88 468.16,19.18ZM495.60,9.02C493.05,7.89 494.70,-2.07 503.98,-22.88C513.55,-44.33 532.52,-72.02 561.06,-59.53C550.81,-37.12 499.64,10.82 495.60,9.02Z" fill="#ffffff" stroke="#000000"/>
    <path d="M-395.93,-454.26L-399.48,-418.51L-424.55,-413.67L-364.77,-382.57L-372.14,-403.78L-358.15,-559.31L-367.13,-563.98L-481.88,-463.96L-504.14,-455.05L-461.08,-432.66L-471.37,-458.24L-446.33,-480.47ZM-394.62,-465.24L-438.08,-487.85L-387.79,-532.72ZM-235.96,-493.17L-235.36,-465.90L-285.77,-368.97L-308.65,-353.39L-265.80,-331.11C-238.25,-316.78 -196.57,-305.21 -181.29,-334.60C-170.46,-355.41 -179.30,-375.30 -200.61,-393.64C-183.15,-391.82 -162.16,-392.31 -152.61,-410.68C-139.98,-434.96 -162.09,-454.75 -191.47,-470.04ZM-202.42,-467.43L-195.69,-463.93C-182.42,-457.03 -167.09,-444.14 -179.83,-419.65C-188.11,-403.73 -206.71,-398.37 -231.60,-411.32ZM-267.58,-342.14L-234.26,-406.22C-209.36,-393.27 -195.53,-377.00 -209.53,-350.07C-219.72,-330.48 -241.66,-328.66 -261.46,-338.96ZM-90.91,-299.00C-90.91,-299.00 -122.82,-272.05 -137.51,-279.69C-144.86,-283.51 -144.32,-298.00 -137.35,-315.89L-72.40,-331.11C-70.28,-335.20 -66.32,-357.76 -85.70,-367.85C-110.80,-380.90 -149.76,-356.83 -165.04,-327.45C-179.16,-300.31 -174.23,-280.37 -156.07,-270.93C-136.27,-260.63 -103.14,-280.48 -88.71,-295.27ZM-135.21,-321.00C-133.93,-323.97 -132.54,-327.13 -130.84,-330.40C-113.86,-363.05 -104.03,-366.49 -99.19,-366.83C-95.59,-367.28 -90.48,-352.18 -100.18,-331.04ZM-73.37,-231.04C-51.25,-244.16 -22.85,-264.38 -0.53,-289.85L-15.29,-267.45L-39.91,-220.11C-57.09,-187.57 -70.51,-184.70 -83.57,-191.49C-91.94,-195.84 -107.40,-212.96 -114.15,-228.91L-116.11,-228.12L-107.89,-188.58L-106.67,-187.95C-80.14,-174.15 -28.96,-184.34 -11.34,-218.22L-10.07,-220.67L-6.90,-225.76L-7.10,-225.87L-6.26,-227.50C5.09,-248.82 16.23,-270.24 27.47,-291.36L41.07,-298.55L17.80,-310.65C-25.68,-332.22 -63.49,-315.34 -82.81,-278.20C-91.40,-261.67 -93.54,-244.11 -89.64,-236.64ZM-61.94,-245.05C-64.39,-246.32 -62.17,-256.06 -51.77,-276.06C-41.06,-296.67 -20.68,-322.88 6.77,-308.87C-4.69,-287.35 -58.06,-243.03 -61.94,-245.05ZM106.26,-303.27L99.08,-330.85L72.18,-321.00L79.45,-293.10ZM43.49,-192.55L87.43,-277.03L42.97,-282.78L48.68,-259.85L10.90,-187.21L49.47,-167.15ZM142.93,-248.17L98.48,-253.92L104.18,-230.99L66.40,-158.34L92.93,-144.55L96.34,-158.59C105.26,-175.73 137.36,-202.07 158.07,-216.96L159.60,-215.91C157.70,-206.78 152.11,-191.54 135.56,-159.71L120.27,-130.33L158.84,-110.27L152.87,-135.67L165.18,-159.34C186.83,-200.97 189.49,-207.10 192.68,-226.18L170.03,-231.48C162.67,-227.79 131.36,-206.48 107.70,-180.42ZM253.73,-190.54L209.28,-196.29L214.98,-173.36L177.21,-100.72L203.73,-86.93L207.15,-100.96C216.06,-118.11 248.16,-144.44 268.87,-159.34L270.40,-158.29C268.50,-149.16 262.91,-133.92 246.36,-102.09L231.08,-72.71L269.64,-52.65L263.67,-78.05L275.98,-101.72C297.63,-143.35 300.30,-149.48 303.48,-168.56L280.83,-173.86C273.47,-170.17 242.16,-148.86 218.50,-122.80ZM383.77,-158.95L376.60,-186.53L349.70,-176.67L356.97,-148.78ZM321.01,-48.23L364.94,-132.71L320.49,-138.46L326.19,-115.53L288.42,-42.89L326.98,-22.83ZM420.45,-103.85L375.99,-109.59L381.70,-86.66L343.92,-14.02L370.45,-0.23L373.86,-14.26C382.77,-31.41 414.88,-57.74 435.59,-72.64L437.11,-71.59C435.22,-62.46 429.63,-47.22 413.07,-15.39L397.79,13.99L436.36,34.05L430.38,8.65L442.69,-15.02C464.34,-56.65 467.01,-62.78 470.19,-81.86L447.54,-87.16C440.18,-83.47 408.88,-62.16 385.21,-36.10ZM471.25,52.20C493.37,39.07 521.78,18.85 544.09,-6.62L529.33,15.78L504.71,63.12C487.53,95.66 474.11,98.54 461.05,91.74C452.69,87.39 437.22,70.28 430.48,54.33L428.51,55.12L436.73,94.65L437.95,95.29C464.48,109.08 515.67,98.89 533.28,65.02L534.56,62.57L537.72,57.47L537.52,57.37L538.37,55.73C549.72,34.41 560.86,12.99 572.10,-8.13L585.69,-15.32L562.43,-27.41C518.95,-48.99 481.13,-32.10 461.82,5.03C453.22,21.56 451.09,39.12 454.98,46.59ZM482.69,38.18C480.24,36.91 482.45,27.17 492.85,7.17C503.57,-13.43 523.94,-39.65 551.39,-25.64C539.94,-4.11 486.56,40.20 482.69,38.18Z" fill="#ffffff" stroke="#000000"/>
    <path d="M-370.09,-472.44L-375.71,-437.36L-400.76,-434.06L-343.57,-399.81L-349.60,-421.19L-326.56,-573.92L-335.15,-579.06L-454.38,-487.11L-476.88,-479.64L-435.70,-454.98L-444.34,-480.84L-418.30,-501.30ZM-368.15,-483.21L-409.72,-508.10L-357.40,-549.43ZM-209.84,-501.38L-210.87,-474.42L-266.38,-381.70L-289.89,-367.67L-248.90,-343.13C-222.55,-327.35 -182.08,-313.46 -165.25,-341.57C-153.33,-361.48 -160.88,-381.64 -180.83,-401.02C-163.70,-398.18 -142.95,-397.42 -132.43,-414.99C-118.52,-438.22 -139.18,-459.07 -167.29,-475.90ZM-178.25,-473.98L-171.81,-470.12C-159.12,-462.53 -144.75,-448.88 -158.77,-425.46C-167.89,-410.24 -186.57,-406.04 -210.39,-420.30ZM-250.01,-354.13L-213.31,-415.42C-189.50,-401.16 -176.80,-384.28 -192.23,-358.52C-203.45,-339.78 -225.22,-339.29 -244.15,-350.63ZM-78.13,-301.07C-78.13,-301.07 -111.23,-276.35 -125.29,-284.76C-132.31,-288.97 -130.92,-303.25 -122.98,-320.50L-57.95,-331.68C-55.61,-335.58 -50.36,-357.63 -68.91,-368.74C-92.92,-383.11 -132.81,-361.65 -149.64,-333.55C-165.18,-307.59 -161.50,-287.61 -144.12,-277.21C-125.19,-265.88 -91.30,-283.50 -76.18,-297.25ZM-120.56,-325.42C-119.12,-328.27 -117.57,-331.31 -115.70,-334.44C-97.00,-365.67 -87.09,-368.48 -82.29,-368.53C-78.70,-368.77 -74.55,-353.55 -85.38,-333.25ZM-64.84,-232.92C-42.22,-244.57 -12.98,-262.86 10.56,-286.68L-5.33,-265.44L-32.45,-220.16C-51.34,-189.04 -64.76,-187.00 -77.25,-194.48C-85.26,-199.27 -99.51,-217.09 -105.22,-233.24L-107.21,-232.57L-101.44,-193.06L-100.27,-192.35C-74.90,-177.16 -23.75,-184.19 -4.35,-216.59L-2.95,-218.94L0.48,-223.78L0.28,-223.89L1.22,-225.45C13.68,-245.83 25.96,-266.33 38.31,-286.51L52.15,-292.80L29.90,-306.13C-11.75,-330.01 -50.09,-315.57 -71.36,-280.05C-80.83,-264.24 -83.97,-247.03 -80.57,-239.43ZM-52.72,-246.08C-55.06,-247.49 -52.30,-256.97 -40.85,-276.10C-29.04,-295.81 -7.37,-320.49 18.90,-305.02C6.31,-284.45 -49.01,-243.86 -52.72,-246.08ZM116.80,-293.60L111.35,-321.26L84.20,-313.12L89.73,-285.15ZM48.27,-188.00L96.65,-268.81L53.10,-277.12L57.37,-254.14L15.77,-184.66L52.66,-162.57ZM149.74,-237.02L106.19,-245.33L110.47,-222.36L68.86,-152.87L94.23,-137.68L98.44,-151.34C108.25,-167.73 141.51,-191.83 162.84,-205.31L164.29,-204.18C161.87,-195.29 155.45,-180.57 137.22,-150.12L120.39,-122.02L157.28,-99.93L152.89,-125.36L166.44,-148.00C190.28,-187.82 193.28,-193.72 197.56,-212.37L175.51,-218.94C168.02,-215.74 135.85,-196.55 110.94,-172.22ZM255.73,-173.56L212.18,-181.87L216.45,-158.90L174.85,-89.41L200.22,-74.22L204.42,-87.88C214.24,-104.27 247.50,-128.37 268.83,-141.85L270.27,-140.72C267.86,-131.83 261.44,-117.11 243.20,-86.66L226.38,-58.56L263.27,-36.47L258.87,-61.90L272.43,-84.54C296.27,-124.36 299.27,-130.26 303.54,-148.91L281.49,-155.48C274.01,-152.28 241.84,-133.09 216.93,-108.76ZM382.25,-134.66L376.80,-162.32L349.66,-154.18L355.18,-126.21ZM313.72,-29.06L362.10,-109.87L318.55,-118.18L322.83,-95.20L281.22,-25.71L318.11,-3.63ZM415.19,-78.08L371.65,-86.39L375.92,-63.41L334.31,6.07L359.69,21.27L363.89,7.61C373.71,-8.79 406.96,-32.89 428.29,-46.37L429.74,-45.24C427.33,-36.34 420.90,-21.63 402.67,8.82L385.84,36.93L422.73,59.02L418.34,33.58L431.90,10.94C455.74,-28.88 458.74,-34.77 463.01,-53.43L440.96,-60.00C433.47,-56.79 401.30,-37.61 376.39,-13.28ZM456.11,79.00C478.73,67.35 507.97,49.07 531.52,25.25L515.62,46.48L488.50,91.77C469.61,122.88 456.19,124.92 443.70,117.44C435.70,112.65 421.44,94.83 415.73,78.69L413.74,79.35L419.51,118.87L420.68,119.57C446.06,134.76 497.20,127.73 516.60,95.33L518.00,92.99L521.43,88.15L521.24,88.03L522.17,86.47C534.64,66.09 546.91,45.60 559.26,25.42L573.10,19.12L550.85,5.80C509.20,-18.08 470.86,-3.65 449.59,31.87C440.12,47.68 436.98,64.89 440.38,72.50ZM468.23,65.84C465.89,64.44 468.65,54.95 480.10,35.83C491.91,16.11 513.58,-8.57 539.85,6.90C527.27,27.47 471.94,68.06 468.23,65.84Z" fill="#ffffff" stroke="#000000"/>
    <path d="M-343.35,-489.15L-350.99,-454.85L-375.91,-453.08L-321.48,-415.88L-326.16,-437.34L-294.37,-586.76L-302.54,-592.34L-425.70,-508.63L-448.36,-502.59L-409.16,-475.80L-416.16,-501.84L-389.24,-520.51ZM-340.80,-499.67L-380.37,-526.71L-326.27,-564.41ZM-183.43,-508.23L-186.05,-481.67L-246.34,-393.43L-270.39,-380.98L-231.38,-354.32C-206.30,-337.18 -167.17,-321.07 -148.89,-347.82C-135.94,-366.77 -142.20,-387.12 -160.75,-407.43C-144.00,-403.62 -123.56,-401.64 -112.13,-418.36C-97.03,-440.46 -116.18,-462.27 -142.94,-480.55ZM-153.87,-479.31L-147.74,-475.12C-135.67,-466.87 -122.29,-452.55 -137.52,-430.25C-147.42,-415.76 -166.12,-412.73 -188.78,-428.22ZM-231.81,-365.24L-191.95,-423.58C-169.29,-408.09 -157.76,-390.67 -174.51,-366.15C-186.70,-348.31 -208.22,-349.12 -226.24,-361.44ZM-65.28,-302.68C-65.28,-302.68 -99.42,-280.23 -112.80,-289.37C-119.48,-293.94 -117.26,-307.95 -108.40,-324.51L-43.54,-331.70C-41.00,-335.41 -34.51,-356.87 -52.16,-368.93C-75.01,-384.54 -115.67,-365.72 -133.95,-338.97C-150.83,-314.27 -148.38,-294.33 -131.84,-283.03C-113.82,-270.72 -79.32,-286.11 -63.57,-298.79ZM-105.73,-329.23C-104.13,-331.95 -102.42,-334.87 -100.38,-337.84C-80.07,-367.56 -70.13,-369.76 -65.39,-369.52C-61.83,-369.54 -58.63,-354.27 -70.53,-334.88ZM-56.20,-234.61C-33.18,-244.77 -3.22,-261.09 21.43,-283.21L4.48,-263.19L-24.97,-220.09C-45.47,-190.49 -58.84,-189.27 -70.73,-197.39C-78.34,-202.60 -91.36,-221.03 -96.04,-237.31L-98.05,-236.77L-94.69,-197.42L-93.58,-196.66C-69.43,-180.16 -18.52,-184.07 2.55,-214.90L4.08,-217.13L7.75,-221.71L7.56,-221.84L8.58,-223.32C22.09,-242.70 35.42,-262.21 48.81,-281.40L62.85,-286.79L41.67,-301.26C1.97,-327.31 -36.74,-315.33 -59.84,-281.52C-70.12,-266.47 -74.25,-249.67 -71.34,-241.96ZM-43.45,-246.88C-45.68,-248.41 -42.39,-257.61 -29.95,-275.81C-17.13,-294.57 5.73,-317.65 30.75,-300.83C17.11,-281.26 -39.92,-244.47 -43.45,-246.88ZM126.72,-283.75L122.98,-311.38L95.70,-304.95L99.50,-277.01ZM52.81,-183.56L105.36,-260.47L62.86,-271.25L65.72,-248.32L20.53,-182.18L55.64,-158.19ZM155.89,-225.94L113.39,-236.73L116.25,-213.79L71.06,-147.65L95.21,-131.15L100.16,-144.39C110.83,-159.99 145.09,-181.82 166.95,-193.86L168.30,-192.66C165.40,-184.02 158.18,-169.87 138.38,-140.89L120.10,-114.14L155.21,-90.15L152.38,-115.52L167.11,-137.07C193.00,-174.97 196.31,-180.61 201.64,-198.77L180.26,-206.57C172.68,-203.84 139.78,-186.81 113.75,-164.27ZM256.76,-157.01L214.26,-167.80L217.12,-144.86L171.93,-78.73L196.08,-62.22L201.04,-75.46C211.70,-91.06 245.96,-112.89 267.82,-124.93L269.18,-123.73C266.27,-115.09 259.06,-100.94 239.25,-71.96L220.97,-45.21L256.08,-21.22L253.25,-46.59L267.98,-68.14C293.88,-106.04 297.19,-111.68 302.51,-129.84L281.13,-137.64C273.55,-134.91 240.65,-117.88 214.62,-95.34ZM379.37,-111.11L375.63,-138.74L348.35,-132.31L352.15,-104.37ZM305.46,-10.92L358.01,-87.83L315.51,-98.61L318.37,-75.68L273.17,-9.54L308.29,14.45ZM408.54,-53.30L366.04,-64.08L368.90,-41.15L323.70,24.99L347.85,41.49L352.81,28.25C363.47,12.65 397.74,-9.18 419.59,-21.22L420.95,-20.02C418.04,-11.38 410.83,2.77 391.03,31.75L372.75,58.50L407.86,82.49L405.03,57.12L419.75,35.57C445.65,-2.32 448.96,-7.97 454.29,-26.13L432.91,-33.92C425.32,-31.20 392.43,-14.17 366.39,8.38ZM439.62,104.20C462.64,94.04 492.60,77.72 517.26,55.60L500.30,75.62L470.85,118.72C450.35,148.32 436.98,149.54 425.09,141.42C417.48,136.21 404.46,117.78 399.78,101.50L397.77,102.04L401.13,141.39L402.25,142.15C426.40,158.65 477.30,154.74 498.37,123.91L499.90,121.68L503.57,117.10L503.38,116.97L504.40,115.49C517.91,96.11 531.24,76.60 544.63,57.41L558.67,52.02L537.49,37.54C497.79,11.50 459.08,23.48 435.98,57.29C425.70,72.34 421.57,89.14 424.48,96.85ZM452.37,91.93C450.14,90.40 453.43,81.20 465.87,63.00C478.69,44.24 501.55,21.16 526.57,37.98C512.93,57.55 455.90,94.34 452.37,91.93Z" fill="#ffffff" stroke="#000000"/>
    <path d="M-910.99,465.97L-908.82,469.92L-908.82,487.97L-910.99,492L-903.01,492C-897.88,492 -890.88,490.52 -890.88,485.05C-890.88,481.17 -893.70,478.93 -898.22,477.86C-895.52,476.80 -892.48,475.13 -892.48,471.71C-892.48,467.19 -897.23,465.97 -902.70,465.97ZM-904.11,467.19L-902.85,467.19C-900.38,467.19 -897.15,467.91 -897.15,472.47C-897.15,475.43 -899.47,477.64 -904.11,477.64ZM-904.11,490.52L-904.11,478.59C-899.47,478.59 -896.20,479.92 -896.20,484.93C-896.20,488.58 -899.28,490.52 -902.97,490.52ZM-886.02,470.11L-886.02,471.25L-888.60,472.35L-886.02,475.28L-886.02,492L-878.84,492L-881.65,488.73L-881.65,465.02L-888.60,467.19ZM-866.26,492L-859.31,492L-861.89,489.07L-861.89,473.38L-866.83,473.38L-866.26,475.70C-866.26,478.97 -869.11,485.54 -871.01,489.23C-871.16,487.71 -871.28,485.27 -871.28,478.85L-871.28,472.62L-878.46,473.38L-875.65,476.65L-875.65,485.81C-875.65,488.58 -875.15,491.09 -874.92,492.30L-871.50,492C-870.71,490.90 -867.74,485.39 -866.26,479.76ZM-846.42,492L-839.47,492L-842.05,489.07L-842.05,473.38L-846.99,473.38L-846.42,475.70C-846.42,478.97 -849.27,485.54 -851.17,489.23C-851.33,487.71 -851.44,485.27 -851.44,478.85L-851.44,472.62L-858.62,473.38L-855.81,476.65L-855.81,485.81C-855.81,488.58 -855.32,491.09 -855.09,492.30L-851.67,492C-850.87,490.90 -847.91,485.39 -846.42,479.76ZM-818.95,492L-813.33,492L-814.88,489.80L-814.88,469.50L-812.22,465.97L-819.75,465.97L-816.63,469.24L-816.63,487.67L-831.45,465.97L-837.42,465.97L-833.92,470.80L-833.92,488.47L-836.58,492L-829.13,492L-832.21,488.73L-832.21,473.42ZM-796.11,483.37C-796.11,483.37 -798.73,489.76 -801.47,489.76C-802.84,489.76 -803.86,487.59 -804.21,484.44L-795.85,477.26C-795.85,476.50 -796.99,472.89 -800.60,472.89C-805.27,472.89 -809.15,479.38 -809.15,484.86C-809.15,489.91 -806.90,492.46 -803.52,492.46C-799.84,492.46 -796.49,487.02 -795.50,483.75ZM-804.28,483.53C-804.32,482.99 -804.36,482.42 -804.36,481.82C-804.36,475.74 -803.18,474.48 -802.50,474.06C-802.00,473.72 -800.10,475.55 -799.91,479.38ZM-781.06,492L-774.68,492L-777.87,489.53L-782.39,481.74C-780.99,479.92 -778.59,476.65 -777.42,473.38L-782.85,473.38L-780.38,475.47C-780.38,477.60 -781.94,479.42 -782.93,480.83L-787.26,473.38L-793.64,473.38L-790.87,475.77L-786.54,482.99C-788.17,485.05 -791.48,488.92 -792.58,492L-786.80,492L-789.08,489.91C-789.08,487.90 -787.18,485.54 -785.97,483.91ZM-760.77,473.80L-760.77,473.38L-766.81,473.38L-766.81,466.92L-771.11,473.38L-773.81,473.38L-771.22,475.62L-771.22,486.41C-771.15,492.19 -768.30,492.46 -766.93,492.46C-764.57,492.46 -761.95,488.77 -760.89,484.55L-761.30,484.40C-762.10,486.76 -763.81,489.64 -765.03,489.64C-766.05,489.64 -766.81,489.42 -766.81,485.24L-766.81,475.74ZM-758.45,479.84L-758.45,482.73L-749.98,482.73L-749.98,479.84ZM-746.83,465.97L-744.66,469.92L-744.66,487.97L-746.83,492L-738.85,492C-733.72,492 -726.72,490.52 -726.72,485.05C-726.72,481.17 -729.54,478.93 -734.06,477.86C-731.36,476.80 -728.32,475.13 -728.32,471.71C-728.32,467.19 -733.07,465.97 -738.54,465.97ZM-739.95,467.19L-738.69,467.19C-736.22,467.19 -732.99,467.91 -732.99,472.47C-732.99,475.43 -735.31,477.64 -739.95,477.64ZM-739.95,490.52L-739.95,478.59C-735.31,478.59 -732.04,479.92 -732.04,484.93C-732.04,488.58 -735.12,490.52 -738.81,490.52ZM-723.80,484.44C-723.80,489.57 -720.68,492.53 -716.62,492.53C-711.45,492.53 -706.96,487.10 -706.96,481.17C-706.96,476.15 -709.85,472.92 -714.60,472.92C-719.96,472.92 -723.80,478.32 -723.80,484.44ZM-716.08,474.14C-714.94,474.14 -711.98,476.19 -711.98,482.88C-711.98,489.15 -714.22,491.28 -715.36,491.28C-716.50,491.28 -719.01,488.20 -719.01,481.89C-719.01,475.17 -717.22,474.14 -716.08,474.14ZM-702.82,470.11L-702.82,471.25L-705.41,472.35L-702.82,475.28L-702.82,492L-695.64,492L-698.45,488.73L-698.45,465.02L-705.41,467.19ZM-676.15,492L-678.96,489.34L-678.96,465.02L-685.91,467.19L-683.33,470.11L-683.33,473.46C-690.43,474.22 -694.35,479.35 -694.35,485.81C-694.35,488.88 -693.09,491.62 -691.95,492.42L-689.14,492C-686.90,488.39 -684.28,483.26 -682.95,477.83L-683.40,482.23L-683.40,492.34ZM-688.53,489.07C-688.99,489.07 -689.64,487.48 -689.64,483.75C-689.64,479.92 -688.42,474.52 -683.33,474.48C-683.37,478.51 -687.81,489.07 -688.53,489.07ZM-671.36,487.97L-674.02,492L-663.99,492L-666.65,487.97L-666.65,470.00L-663.99,465.97L-674.02,465.97L-671.36,470.00ZM-649.13,473.80L-649.13,473.38L-655.17,473.38L-655.17,466.92L-659.46,473.38L-662.16,473.38L-659.58,475.62L-659.58,486.41C-659.50,492.19 -656.65,492.46 -655.28,492.46C-652.93,492.46 -650.31,488.77 -649.24,484.55L-649.66,484.40C-650.46,486.76 -652.17,489.64 -653.38,489.64C-654.41,489.64 -655.17,489.42 -655.17,485.24L-655.17,475.74ZM-642.29,492C-640.05,488.39 -637.42,483.26 -636.09,477.83L-636.55,482.23L-636.55,492L-629.29,492L-632.10,488.73L-632.10,475.43L-630.66,473.38L-634.99,473.38C-642.93,473.53 -647.27,478.74 -647.27,485.81C-647.27,488.88 -646.24,491.62 -645.10,492.42ZM-641.68,489.07C-642.14,489.07 -642.55,487.48 -642.55,483.75C-642.55,479.92 -641.57,474.52 -636.47,474.48C-636.51,478.51 -640.96,489.07 -641.68,489.07ZM-626.06,470.11L-626.06,471.25L-628.65,472.35L-626.06,475.28L-626.06,492L-618.88,492L-621.69,488.73L-621.69,465.02L-628.65,467.19ZM-610.52,467.72L-613.67,464.22L-616.87,467.72L-613.67,471.25ZM-611.28,488.73L-611.28,473L-618.23,475.55L-615.65,478.47L-615.65,492L-608.47,492ZM-594.98,478.32L-594.86,478.17L-597.52,472.85L-597.90,472.85C-602.54,474.03 -607.18,479.27 -607.18,485.05C-607.18,490.10 -604.74,492.46 -601.59,492.46C-599.61,492.46 -596.08,489.53 -594.10,483.72L-594.71,483.34C-596.46,487.36 -598.51,489.76 -599.77,489.76C-601.48,489.76 -602.39,486.68 -602.39,481.78C-602.39,479.27 -601.74,475.77 -601.02,475.77Z"/>
</svg>