<?xml version="1.0"?>
<svg xmlns="http://www.w3.org/2000/svg" width="1920" height="1080" viewBox="-960 -540 1920 1080">
    <path d="M-396.88,-224.76L-441.90,-246.41L-456.31,-300.01L-440.94,-353.59L-396.88,-375.23L-361.60,-363.25L-344.87,-332.14L-323.70,-342.84L-345.78,-379.60L-396.88,-395.63L-460.38,-367.60L-481.80,-299.99L-460.38,-232.39L-396.88,-204.37L-345.89,-220.66L-324.21,-256.14L-344.87,-267.61L-363.31,-236.52ZM-270.50,-210L-270.50,-390L-293,-390L-293,-210ZM-220.93,-361.74L-212.80,-370.64L-212.78,-383.35L-221.07,-392.46L-232.63,-392.46L-240.70,-383.37L-240.70,-370.67L-232.49,-361.74ZM-215.50,-210L-215.50,-340L-238,-340L-238,-210ZM-184.17,-210L-161.62,-210L-161.62,-277.25L-155.48,-310.56L-128.93,-325.70L-111.35,-317.60L-105.57,-295.03L-105.57,-210L-83.07,-210L-83.07,-285.25L-75.03,-313.68L-50.14,-325.70L-31.05,-315.47L-26.75,-292.48L-26.75,-210L-4.25,-210L-4.25,-300.50L-14.31,-333.36L-45.29,-345.09L-68.75,-339.45L-86.57,-319.75L-99.71,-338.68L-123.40,-344.97L-147.00,-339.87L-163.87,-321.50L-163.87,-340L-184.12,-340ZM106.10,-297.19L32.79,-274.70L17.87,-243.62L31.26,-214.10L62.99,-204.86L86.27,-209.38L107.60,-225.04L107.50,-210L128.50,-210L128.53,-293.86L116.69,-332.03L77.79,-345.13L42.79,-336.58L25.78,-311.21L43.62,-300.24L55.08,-320.00L75.49,-326.75L97.37,-320.35ZM106.10,-277.30L106.09,-244.38L90.18,-230.45L66.58,-223.21L49.64,-227.60L41.86,-244.62L51.89,-262.29ZM218.20,-208.26L218.20,-208.26L215.61,-227.65L205.53,-226.14L194.69,-231.63L192.75,-248L192.75,-322.75L215,-322.75L215,-340L192.75,-340L192.75,-385L170.25,-385L170.25,-340L151.75,-340L151.75,-322.75L170.25,-322.75L170.25,-248L175.38,-216.61L201.00,-205.85ZM270.87,-234.73L257.75,-269.23L354.25,-269.25L355.50,-278.25L340.61,-325.87L295.51,-345.22L251.40,-326.61L234.83,-275.10L251.40,-223.59L295.51,-204.97L332.65,-215.94L349.75,-242.75L332.23,-253.69L318.60,-231.44L296.79,-224.11ZM258.50,-287.25L272.62,-317.01L295.49,-326.13L321.00,-315.28L331.25,-287.25ZM-834.13,15L-774.38,15L-708.64,-7.84L-686.97,-75.52L-710.05,-143.34L-777.63,-165L-834.13,-165ZM-810.38,-6L-810.38,-143.75L-777.63,-143.75L-729.87,-129.94L-711.95,-75.76L-727.77,-22.31L-776.88,-6ZM-633.26,-9.73L-646.37,-44.23L-549.88,-44.25L-548.63,-53.25L-563.51,-100.87L-608.61,-120.22L-652.72,-101.61L-669.30,-50.10L-652.72,1.41L-608.61,20.03L-571.47,9.06L-554.38,-17.75L-571.89,-28.69L-585.53,-6.44L-607.34,0.89ZM-645.63,-62.25L-631.50,-92.01L-608.63,-101.13L-583.13,-90.28L-572.88,-62.25ZM-511.02,-25.27L-530.13,-16.34L-517.41,9.17L-478.89,20.16L-442.14,11.01L-425.31,-20.13L-435.42,-46.80L-457.32,-58.06L-487.63,-66.25L-504.47,-73L-510.00,-83.38L-502.76,-96.21L-481.55,-100.91L-461.18,-95.35L-452.42,-78.81L-433.49,-87.74L-444.50,-109.52L-480.70,-120.13L-516.56,-110.92L-531.96,-80.85L-521.97,-56.99L-499.41,-46.22L-467.38,-37.75L-452.28,-30.17L-448.29,-18.13L-458.34,-3.03L-478.13,0.98L-502.03,-6.88ZM-384.30,-136.74L-376.17,-145.64L-376.15,-158.35L-384.44,-167.46L-396.00,-167.46L-404.07,-158.37L-404.08,-145.67L-395.86,-136.74ZM-378.88,15L-378.88,-115L-401.38,-115L-401.38,15ZM-297.40,69.39L-250.83,49.85L-239.63,6.50L-239.63,-115L-259.63,-115L-259.63,-97.50L-274.35,-114.11L-297.15,-120.61L-339.35,-101.04L-354,-50.49L-339.35,0.06L-297.15,19.63L-277.01,14.83L-262.13,1.25L-262.19,10.79L-270.14,39.89L-296.87,50.00L-317.68,44.13L-325.88,26.50L-343.88,34.75L-332.53,58.67ZM-295.87,-101.48L-271.02,-88.59L-259.38,-50.47L-270.08,-12.35L-295.87,0.52L-321.00,-12.35L-331.04,-50.47L-321.00,-88.59ZM-207.49,15L-184.99,15L-184.99,-55.75L-175.24,-89.15L-149.81,-100.70L-128.73,-90.95L-122.63,-64.75L-122.63,15L-100.13,15L-100.13,-64.75L-108.64,-104.40L-145.23,-120.09L-169.53,-114.73L-187.24,-96.25L-187.24,-115L-207.49,-115ZM-40.76,-9.73L-53.87,-44.23L42.63,-44.25L43.88,-53.25L28.99,-100.87L-16.11,-120.22L-60.22,-101.61L-76.80,-50.10L-60.22,1.41L-16.11,20.03L21.03,9.06L38.13,-17.75L20.61,-28.69L6.97,-6.44L-14.84,0.89ZM-53.13,-62.25L-39.00,-92.01L-16.13,-101.13L9.37,-90.28L19.63,-62.25ZM122.98,-98.34L139.88,-92.75L146.63,-111.75L124.60,-120.09L103.12,-113.43L88.13,-92.50L88.13,-115L67.88,-115L67.88,13.73L90.38,15L90.38,-55.25L98.60,-86.59ZM177.73,-25.27L158.62,-16.34L171.34,9.17L209.86,20.16L246.61,11.01L263.44,-20.13L253.33,-46.80L231.43,-58.06L201.13,-66.25L184.28,-73L178.75,-83.38L185.99,-96.21L207.20,-100.91L227.57,-95.35L236.33,-78.81L255.26,-87.74L244.25,-109.52L208.05,-120.13L172.19,-110.92L156.79,-80.85L166.78,-56.99L189.34,-46.22L221.38,-37.75L236.47,-30.17L240.46,-18.13L230.41,-3.03L210.62,0.98L186.72,-6.88ZM373.95,-136.74L382.08,-145.64L382.10,-158.35L373.81,-167.46L362.25,-167.46L354.18,-158.37L354.17,-145.67L362.39,-136.74ZM379.38,15L379.38,-115L356.88,-115L356.88,15ZM425.48,-25.27L406.37,-16.34L419.09,9.17L457.61,20.16L494.36,11.01L511.19,-20.13L501.08,-46.80L479.18,-58.06L448.88,-66.25L432.03,-73L426.50,-83.38L433.74,-96.21L454.95,-100.91L475.32,-95.35L484.08,-78.81L503.01,-87.74L492.00,-109.52L455.80,-120.13L419.94,-110.92L404.54,-80.85L414.53,-56.99L437.09,-46.22L469.13,-37.75L484.22,-30.17L488.21,-18.13L478.16,-3.03L458.37,0.98L434.47,-6.88ZM683.98,-72.19L610.67,-49.70L595.75,-18.62L609.14,10.90L640.86,20.14L664.14,15.62L685.47,-0.04L685.38,15L706.38,15L706.41,-68.86L694.57,-107.03L655.66,-120.13L620.66,-111.58L603.65,-86.21L621.50,-75.24L632.95,-95.00L653.37,-101.75L675.25,-95.35ZM683.98,-52.30L683.96,-19.38L668.05,-5.45L644.46,1.79L627.52,-2.60L619.73,-19.62L629.77,-37.29ZM-390.50,240L-363.50,140.25L-338.50,240L-315.75,240L-276.50,114L-295.75,108L-326.25,210.25L-352.50,110L-375.25,110L-402,213L-430.75,108L-451.50,114L-413.75,240ZM-229.13,215.27L-242.25,180.77L-145.75,180.75L-144.50,171.75L-159.39,124.13L-204.49,104.78L-248.60,123.39L-265.17,174.90L-248.60,226.41L-204.49,245.03L-167.35,234.06L-150.25,207.25L-167.77,196.31L-181.40,218.56L-203.21,225.89ZM-241.50,162.75L-227.38,132.99L-204.51,123.87L-179.00,134.72L-168.75,162.75ZM-98,60L-120.50,60L-120.50,240L-100.50,240L-100.50,222.50L-86.20,239.40L-63.73,245.59L-21.52,226.02L-6.85,175.47L-21.52,124.91L-63.73,105.34L-83.86,110.15L-98,123.75ZM-65.03,226.47L-89.85,213.60L-101.51,175.49L-90.82,137.36L-65.03,124.48L-39.88,137.36L-29.84,175.49L-39.88,213.60ZM30.61,199.73L11.49,208.66L24.22,234.17L62.73,245.16L99.48,236.01L116.31,204.87L106.21,178.20L84.31,166.94L54,158.75L37.15,152L31.63,141.62L38.86,128.79L60.07,124.09L80.45,129.65L89.21,146.19L108.14,137.26L97.13,115.48L60.93,104.87L25.07,114.08L9.66,144.15L19.66,168.01L42.21,178.78L74.25,187.25L89.34,194.83L93.33,206.87L83.29,221.97L63.50,225.98L39.60,218.12ZM157.32,88.26L165.45,79.36L165.47,66.65L157.18,57.54L145.62,57.54L137.55,66.63L137.55,79.33L145.76,88.26ZM162.75,240L162.75,110L140.25,110L140.25,240ZM250.45,241.74L250.45,241.74L247.86,222.35L237.78,223.86L226.94,218.37L225,202L225,127.25L247.25,127.25L247.25,110L225,110L225,65L202.50,65L202.50,110L184,110L184,127.25L202.50,127.25L202.50,202L207.63,233.39L233.25,244.15ZM303.12,215.27L290.00,180.77L386.50,180.75L387.75,171.75L372.86,124.13L327.76,104.78L283.65,123.39L267.08,174.90L283.65,226.41L327.76,245.03L364.90,234.06L382,207.25L364.48,196.31L350.85,218.56L329.04,225.89ZM290.75,162.75L304.87,132.99L327.74,123.87L353.25,134.72L363.50,162.75Z" fill="#ffffff" stroke="#000000"/>
    <path d="M-399.29,-218.74L-443.91,-240.08L-458.27,-293.12L-443.16,-346.20L-399.59,-367.71L-364.64,-355.92L-348.02,-325.15L-327.08,-335.78L-349.01,-372.13L-399.63,-387.90L-462.44,-360.03L-483.51,-293.05L-462.17,-226.17L-399.25,-198.56L-348.80,-214.78L-327.41,-249.95L-347.89,-261.26L-366.08,-230.45ZM-274.15,-204.38L-274.50,-382.58L-296.78,-382.53L-296.42,-204.33ZM-225.37,-354.70L-217.34,-363.52L-217.35,-376.11L-225.57,-385.11L-237.01,-385.09L-244.98,-376.08L-244.96,-363.50L-236.82,-354.67ZM-219.70,-204.49L-219.96,-333.19L-242.23,-333.14L-241.97,-204.44ZM-188.68,-204.55L-166.36,-204.60L-166.49,-271.17L-160.48,-304.16L-134.22,-319.20L-116.80,-311.22L-111.04,-288.89L-110.87,-204.71L-88.59,-204.75L-88.74,-279.25L-80.84,-307.41L-56.22,-319.36L-37.30,-309.27L-33.00,-286.52L-32.83,-204.86L-10.56,-204.91L-10.74,-294.50L-20.76,-327.02L-51.46,-338.56L-74.68,-332.94L-92.28,-313.40L-105.32,-332.11L-128.78,-338.29L-152.14,-333.19L-168.80,-314.98L-168.84,-333.29L-188.89,-333.25ZM98.52,-291.44L25.98,-269.03L11.27,-238.24L24.59,-209.04L56.02,-199.95L79.05,-204.48L100.14,-220.02L100.07,-205.13L120.86,-205.17L120.73,-288.20L108.93,-325.96L70.39,-338.85L35.76,-330.32L18.97,-305.17L36.65,-294.34L47.95,-313.92L68.15,-320.65L89.83,-314.36ZM98.56,-271.75L98.61,-239.17L82.89,-225.34L59.54,-218.13L42.76,-222.44L35.02,-239.27L44.92,-256.79ZM209.67,-203.63L209.67,-203.63L207.06,-222.82L197.09,-221.31L186.35,-226.72L184.39,-242.92L184.25,-316.92L206.27,-316.97L206.24,-334.05L184.21,-334.00L184.12,-378.55L161.85,-378.51L161.94,-333.96L143.62,-333.92L143.66,-316.84L161.97,-316.88L162.12,-242.88L167.26,-211.81L192.65,-201.21ZM261.76,-229.94L248.70,-264.07L344.24,-264.28L345.46,-273.19L330.62,-320.31L285.93,-339.37L242.30,-320.86L226.00,-269.83L242.51,-218.87L286.21,-200.53L322.96,-211.46L339.83,-238.04L322.47,-248.83L309.02,-226.78L287.44,-219.48ZM249.41,-281.91L263.33,-311.40L285.95,-320.47L311.23,-309.79L321.43,-282.05ZM-831.69,19.49L-772.53,19.37L-707.51,-3.37L-686.18,-70.42L-709.17,-137.51L-776.11,-158.82L-832.04,-158.71ZM-808.22,-1.35L-808.49,-137.72L-776.07,-137.78L-728.77,-124.21L-710.92,-70.60L-726.47,-17.65L-775.05,-1.41ZM-632.88,-5.39L-645.93,-39.52L-550.40,-39.73L-549.18,-48.64L-564.01,-95.76L-608.70,-114.82L-652.33,-96.31L-668.64,-45.28L-652.13,5.68L-608.42,24.02L-571.67,13.09L-554.80,-13.49L-572.16,-24.28L-585.62,-2.23L-607.20,5.07ZM-645.23,-57.36L-631.31,-86.85L-608.68,-95.92L-583.41,-85.24L-573.20,-57.51ZM-511.89,-21.02L-530.80,-12.14L-518.15,13.09L-479.99,23.90L-443.63,14.76L-427.03,-16.10L-437.09,-42.49L-458.79,-53.58L-488.81,-61.63L-505.51,-68.28L-511.00,-78.55L-503.86,-91.26L-482.87,-95.96L-462.69,-90.50L-453.99,-74.14L-435.26,-83.02L-446.21,-104.55L-482.06,-114.99L-517.55,-105.80L-532.74,-76.00L-522.79,-52.39L-500.44,-41.79L-468.71,-33.46L-453.75,-25.98L-449.78,-14.08L-459.69,0.89L-479.28,4.91L-502.95,-2.83ZM-386.67,-131.62L-378.63,-140.45L-378.64,-153.03L-386.86,-162.04L-398.31,-162.02L-406.28,-153.00L-406.26,-140.43L-398.11,-131.60ZM-380.99,18.59L-381.25,-110.11L-403.52,-110.07L-403.26,18.63ZM-300.22,72.27L-254.16,52.83L-243.15,9.89L-243.39,-110.39L-263.19,-110.35L-263.16,-93.03L-277.77,-109.44L-300.35,-115.83L-342.09,-96.37L-356.49,-46.30L-341.89,3.72L-300.07,23.01L-280.15,18.22L-265.43,4.74L-265.48,14.19L-273.30,43.01L-299.73,53.07L-320.35,47.30L-328.50,29.87L-346.30,38.07L-335.02,61.73ZM-299.05,-96.89L-274.42,-84.19L-262.82,-46.47L-273.33,-8.71L-298.84,4.08L-323.74,-8.61L-333.76,-46.32L-323.90,-84.09ZM-211.32,18.24L-189.05,18.20L-189.19,-51.84L-179.60,-84.93L-154.44,-96.41L-133.56,-86.80L-127.46,-60.88L-127.30,18.08L-105.03,18.03L-105.19,-60.92L-113.70,-100.16L-149.95,-115.62L-173.99,-110.26L-191.50,-91.93L-191.53,-110.50L-211.58,-110.45ZM-46.30,-6.57L-59.36,-40.70L36.18,-40.91L37.40,-49.82L22.56,-96.94L-22.13,-116.00L-65.76,-97.49L-82.06,-46.46L-65.55,4.50L-21.85,22.84L14.90,11.91L31.77,-14.67L14.41,-25.46L0.96,-3.41L-20.62,3.89ZM-58.65,-58.54L-44.73,-88.03L-22.11,-97.10L3.17,-86.42L13.37,-58.68ZM115.62,-94.62L132.36,-89.12L139.00,-107.94L117.18,-116.15L95.93,-109.52L81.13,-88.77L81.08,-111.04L61.03,-111.00L61.29,16.44L83.57,17.65L83.43,-51.90L91.51,-82.94ZM169.97,-22.39L151.06,-13.51L163.72,11.72L201.87,22.53L238.23,13.39L254.83,-17.47L244.77,-43.86L223.07,-54.95L193.05,-63.01L176.35,-69.65L170.86,-79.92L178.00,-92.63L198.99,-97.33L219.17,-91.87L227.88,-75.51L246.60,-84.39L235.66,-105.92L199.80,-116.36L164.31,-107.17L149.13,-77.38L159.07,-53.77L181.42,-43.16L213.15,-34.83L228.11,-27.35L232.08,-15.45L222.17,-0.48L202.59,3.54L178.91,-4.20ZM364.00,-133.13L372.03,-141.96L372.03,-154.54L363.80,-163.55L352.36,-163.52L344.39,-154.51L344.41,-141.94L352.56,-133.11ZM369.68,17.08L369.42,-111.62L347.14,-111.58L347.40,17.12ZM415.24,-22.89L396.33,-14.00L408.99,11.23L447.14,22.03L483.50,12.90L500.10,-17.96L490.04,-44.35L468.34,-55.45L438.32,-63.50L421.63,-70.15L416.14,-80.42L423.27,-93.12L444.26,-97.83L464.45,-92.37L473.15,-76.01L491.87,-84.88L480.93,-106.42L445.07,-116.85L409.59,-107.66L394.40,-77.87L404.34,-54.26L426.69,-43.65L458.42,-35.32L473.38,-27.85L477.35,-15.94L467.44,-0.97L447.86,3.04L424.18,-4.70ZM671.06,-69.84L598.52,-47.43L583.82,-16.64L597.13,12.56L628.56,21.65L651.60,17.12L672.68,1.58L672.62,16.47L693.41,16.43L693.27,-66.60L681.47,-104.36L642.93,-117.25L608.30,-108.72L591.51,-83.57L609.20,-72.74L620.50,-92.32L640.70,-99.06L662.37,-92.76ZM671.10,-50.15L671.15,-17.57L655.43,-3.74L632.08,3.47L615.30,-0.84L607.56,-17.67L617.46,-35.19ZM-392.05,241.36L-365.52,142.55L-340.57,241.26L-318.05,241.21L-279.44,116.39L-298.51,110.49L-328.50,211.78L-354.69,112.58L-377.21,112.63L-403.49,214.65L-432.16,110.76L-452.69,116.74L-415.07,241.40ZM-232.35,216.56L-245.40,182.43L-149.87,182.21L-148.65,173.30L-163.48,126.18L-208.17,107.12L-251.80,125.64L-268.10,176.66L-251.60,227.62L-207.89,245.96L-171.14,235.03L-154.27,208.46L-171.63,197.67L-185.08,219.71L-206.66,227.02ZM-244.69,164.58L-230.77,135.10L-208.15,126.02L-182.88,136.71L-172.67,164.44ZM-102.83,62.58L-125.11,62.62L-124.75,240.82L-104.95,240.78L-104.99,223.46L-90.80,240.16L-68.54,246.24L-26.79,226.78L-12.37,176.71L-26.99,126.69L-68.82,107.40L-88.74,112.20L-102.71,125.69ZM-69.86,227.32L-94.46,214.63L-106.08,176.92L-95.57,139.15L-70.06,126.35L-45.14,139.05L-35.12,176.77L-44.99,214.53ZM24.76,200.65L5.86,209.53L18.51,234.76L56.66,245.57L93.02,236.43L109.63,205.57L99.57,179.18L77.86,168.09L47.84,160.04L31.15,153.39L25.66,143.12L32.80,130.41L53.78,125.71L73.97,131.17L82.67,147.53L101.39,138.65L90.45,117.12L54.59,106.69L19.11,115.87L3.92,145.67L13.86,169.28L36.21,179.89L67.95,188.21L82.90,195.69L86.87,207.60L76.96,222.56L57.38,226.58L33.70,218.84ZM149.99,90.05L158.02,81.22L158.02,68.64L149.79,59.63L138.35,59.66L130.38,68.67L130.40,81.24L138.55,90.07ZM155.67,240.26L155.41,111.56L133.13,111.60L133.39,240.30ZM242.49,241.81L242.49,241.81L239.88,222.61L229.91,224.13L219.17,218.71L217.22,202.51L217.07,128.51L239.10,128.47L239.06,111.39L217.03,111.43L216.94,66.88L194.67,66.93L194.76,111.48L176.44,111.52L176.48,128.59L194.79,128.56L194.94,202.56L200.09,233.62L225.47,244.22ZM294.58,215.50L281.53,181.37L377.06,181.15L378.28,172.24L363.45,125.12L318.76,106.06L275.13,124.58L258.82,175.60L275.33,226.57L319.04,244.90L355.79,233.97L372.66,207.40L355.29,196.61L341.84,218.65L320.26,225.96ZM282.23,163.53L296.15,134.04L318.77,124.96L344.05,135.65L354.25,163.38Z" fill="#ffffff" stroke="#000000"/>
    <path d="M-401.56,-212.77L-445.77,-233.81L-460.10,-286.28L-445.24,-338.85L-402.15,-360.24L-367.53,-348.63L-351.02,-318.20L-330.31,-328.78L-352.09,-364.71L-402.23,-380.22L-464.35,-352.51L-485.08,-286.16L-463.82,-220.00L-401.48,-192.79L-351.57,-208.95L-330.47,-243.81L-350.76,-254.96L-368.71,-224.43ZM-277.65,-198.81L-278.36,-375.20L-300.41,-375.12L-299.70,-198.72ZM-229.67,-347.70L-221.74,-356.45L-221.77,-368.91L-229.93,-377.81L-241.25,-377.76L-249.13,-368.83L-249.08,-356.38L-241.00,-347.65ZM-223.75,-199.02L-224.26,-326.42L-246.31,-326.33L-245.80,-198.93ZM-193.05,-199.15L-170.95,-199.23L-171.21,-265.14L-165.33,-297.80L-139.37,-312.74L-122.11,-304.88L-116.36,-282.78L-116.02,-199.46L-93.97,-199.54L-94.27,-273.29L-86.50,-301.18L-62.16,-313.06L-43.41,-303.11L-39.10,-280.60L-38.78,-199.77L-16.73,-199.85L-17.09,-288.54L-27.07,-320.71L-57.48,-332.08L-80.45,-326.46L-97.83,-307.08L-110.78,-325.58L-134.02,-331.66L-157.14,-326.56L-173.59,-308.49L-173.67,-326.62L-193.51,-326.54ZM91.07,-285.73L19.32,-263.40L4.82,-232.89L18.06,-204.01L49.19,-195.08L71.98,-199.61L92.82,-215.03L92.79,-200.29L113.37,-200.38L113.07,-282.56L101.31,-319.92L63.14,-332.60L28.87,-324.09L12.30,-299.16L29.83,-288.48L40.98,-307.88L60.96,-314.59L82.43,-308.40ZM91.15,-266.24L91.27,-233.99L75.73,-220.26L52.64,-213.08L36.02,-217.31L28.32,-233.96L38.08,-251.32ZM201.27,-199.02L201.28,-199.03L198.66,-218.02L188.79,-216.50L178.14,-221.84L176.18,-237.87L175.89,-311.12L197.69,-311.21L197.62,-328.12L175.82,-328.03L175.64,-372.13L153.59,-372.04L153.77,-327.94L135.64,-327.87L135.71,-310.96L153.84,-311.04L154.13,-237.78L159.28,-207.04L184.43,-196.60ZM252.79,-225.17L239.80,-258.93L334.36,-259.33L335.55,-268.16L320.78,-314.77L276.50,-333.55L233.35,-315.14L217.31,-264.59L233.75,-214.18L277.06,-196.11L313.41,-207.01L330.06,-233.34L312.85,-243.99L299.58,-222.14L278.23,-214.87ZM240.46,-276.59L254.18,-305.81L276.56,-314.84L301.60,-304.31L311.75,-276.88ZM-829.11,23.91L-770.56,23.68L-706.23,1.03L-685.26,-65.38L-708.15,-131.75L-774.45,-152.71L-829.82,-152.48ZM-805.92,3.24L-806.46,-131.75L-774.37,-131.88L-727.52,-118.54L-709.74,-65.51L-725.03,-13.06L-773.09,3.11ZM-632.36,-1.11L-645.35,-34.87L-550.78,-35.27L-549.59,-44.10L-564.37,-90.71L-608.65,-109.49L-651.80,-91.07L-667.84,-40.53L-651.40,9.88L-608.09,27.95L-571.74,17.05L-555.09,-9.28L-572.30,-19.93L-585.57,1.92L-606.92,9.19ZM-644.69,-52.53L-630.97,-81.75L-608.59,-90.78L-583.55,-80.25L-573.39,-52.82ZM-512.63,-16.83L-531.33,-8.00L-518.75,16.95L-480.97,27.57L-444.99,18.46L-428.62,-12.12L-438.63,-38.23L-460.13,-49.17L-489.87,-57.08L-506.40,-63.62L-511.86,-73.78L-504.82,-86.37L-484.05,-91.07L-464.06,-85.70L-455.41,-69.53L-436.90,-78.35L-447.77,-99.65L-483.29,-109.90L-518.40,-100.74L-533.37,-71.21L-523.49,-47.86L-501.34,-37.40L-469.91,-29.23L-455.09,-21.85L-451.13,-10.07L-460.92,4.76L-480.29,8.78L-503.75,1.16ZM-388.89,-126.56L-380.96,-135.31L-380.99,-147.77L-389.15,-156.67L-400.47,-156.62L-408.35,-147.68L-408.30,-135.24L-400.22,-126.51ZM-382.97,22.12L-383.48,-105.28L-405.53,-105.19L-405.02,22.21ZM-302.91,75.10L-257.35,55.76L-246.54,13.24L-247.02,-105.83L-266.62,-105.75L-266.55,-88.60L-281.05,-104.82L-303.41,-111.10L-344.70,-91.76L-358.85,-42.16L-344.30,7.33L-302.86,26.34L-283.15,21.56L-268.61,8.19L-268.64,17.53L-276.32,46.08L-302.47,56.09L-322.89,50.43L-330.99,33.18L-348.59,41.34L-337.38,64.74ZM-302.09,-92.35L-277.69,-79.83L-266.13,-42.51L-276.46,-5.12L-301.68,7.60L-326.36,-4.91L-336.35,-42.23L-326.66,-79.63ZM-215.02,21.44L-192.97,21.36L-193.25,-47.98L-183.82,-80.75L-158.94,-92.16L-138.25,-82.69L-132.16,-57.04L-131.85,21.11L-109.80,21.02L-110.11,-57.13L-118.62,-95.95L-154.53,-111.19L-178.32,-105.84L-195.61,-87.66L-195.69,-106.03L-215.53,-105.95ZM-51.72,-3.45L-64.71,-37.20L29.86,-37.61L31.05,-46.43L16.27,-93.04L-28.00,-111.82L-71.16,-93.41L-87.19,-42.86L-70.75,7.55L-27.45,25.62L8.91,14.72L25.56,-11.62L8.35,-22.27L-4.93,-0.41L-26.27,6.86ZM-64.04,-54.87L-50.32,-84.09L-27.95,-93.11L-2.90,-82.59L7.25,-55.15ZM108.40,-90.93L124.97,-85.52L131.51,-104.16L109.90,-112.25L88.88,-105.64L74.26,-85.07L74.17,-107.12L54.33,-107.04L54.83,19.11L76.89,20.27L76.61,-48.57L84.55,-79.32ZM162.34,-19.54L143.64,-10.71L156.22,14.24L194.00,24.86L229.98,15.75L246.35,-14.84L236.34,-40.94L214.84,-51.88L185.10,-59.79L168.56,-66.34L163.11,-76.49L170.15,-89.09L190.92,-93.78L210.91,-88.42L219.56,-72.24L238.07,-81.06L227.20,-102.36L191.68,-112.61L156.57,-103.45L141.60,-73.93L151.48,-50.58L173.63,-40.12L205.06,-31.94L219.88,-24.57L223.84,-12.79L214.05,2.05L194.68,6.06L171.22,-1.55ZM354.19,-129.55L362.12,-138.30L362.09,-150.76L353.93,-159.66L342.61,-159.61L334.73,-150.67L334.78,-138.23L342.86,-129.50ZM360.11,19.13L359.60,-108.27L337.55,-108.18L338.06,19.22ZM405.13,-20.52L386.43,-11.69L399.01,13.26L436.80,23.88L472.77,14.77L489.15,-15.81L479.14,-41.92L457.63,-52.86L427.90,-60.77L411.36,-67.31L405.90,-77.47L412.94,-90.06L433.71,-94.76L453.70,-89.39L462.35,-73.22L480.86,-82.04L469.99,-103.34L434.47,-113.59L399.36,-104.43L384.39,-74.90L394.28,-51.55L416.43,-41.09L447.85,-32.92L462.67,-25.54L466.63,-13.76L456.85,1.07L437.47,5.09L414.02,-2.53ZM658.27,-67.51L586.52,-45.18L572.02,-14.67L585.26,14.21L616.39,23.14L639.18,18.61L660.02,3.19L659.98,17.93L680.56,17.84L680.26,-64.34L668.51,-101.70L630.34,-114.38L596.07,-105.87L579.50,-80.94L597.03,-70.26L608.18,-89.66L628.16,-96.37L649.63,-90.18ZM658.35,-48.02L658.47,-15.76L642.93,-2.04L619.84,5.14L603.22,0.91L595.52,-15.74L605.28,-33.10ZM-393.48,242.66L-367.41,144.80L-342.52,242.46L-320.22,242.37L-282.25,118.74L-301.14,112.93L-330.63,213.26L-356.75,115.12L-379.04,115.21L-404.85,216.25L-433.44,113.46L-453.75,119.43L-416.26,242.76ZM-235.44,217.79L-248.43,184.04L-153.86,183.64L-152.67,174.81L-167.45,128.20L-211.72,109.42L-254.88,127.83L-270.91,178.38L-254.47,228.79L-211.17,246.86L-174.81,235.96L-158.16,209.62L-175.37,198.97L-188.65,220.83L-209.99,228.10ZM-247.76,166.37L-234.04,137.16L-211.67,128.13L-186.62,138.65L-176.47,166.09ZM-107.54,65.11L-129.59,65.20L-128.88,241.60L-109.28,241.52L-109.35,224.37L-95.27,240.88L-73.22,246.85L-31.94,227.51L-17.76,177.91L-32.33,128.43L-73.77,109.41L-93.49,114.20L-107.29,127.59ZM-74.57,228.13L-98.95,215.61L-110.52,178.30L-100.20,140.90L-74.97,128.17L-50.28,140.70L-40.28,178.02L-49.98,215.41ZM19.05,201.54L0.35,210.37L12.92,235.32L50.71,245.94L86.69,236.82L103.06,206.24L93.05,180.14L71.54,169.20L41.81,161.29L25.27,154.74L19.82,144.58L26.86,131.99L47.62,127.30L67.61,132.66L76.26,148.84L94.78,140.01L83.90,118.72L48.38,108.46L13.28,117.63L-1.70,147.15L8.19,170.50L30.34,180.96L61.77,189.14L76.58,196.51L80.54,208.29L70.76,223.13L51.38,227.14L27.93,219.52ZM142.78,91.81L150.72,83.05L150.69,70.59L142.53,61.70L131.20,61.74L123.33,70.68L123.37,83.13L131.46,91.85ZM148.70,240.48L148.19,113.09L126.14,113.17L126.65,240.57ZM234.65,241.85L234.66,241.84L232.04,222.85L222.17,224.37L211.52,219.03L209.56,203.00L209.26,129.74L231.07,129.66L231.00,112.75L209.20,112.84L209.02,68.74L186.97,68.83L187.15,112.93L169.02,113.00L169.08,129.91L187.21,129.83L187.51,203.09L192.66,233.83L217.81,244.27ZM286.16,215.70L273.17,181.94L367.74,181.54L368.93,172.71L354.15,126.10L309.88,107.32L266.73,125.73L250.69,176.28L267.13,226.69L310.43,244.76L346.79,233.86L363.44,207.53L346.23,196.88L332.96,218.73L311.61,226.00ZM273.84,164.28L287.56,135.06L309.93,126.03L334.98,136.56L345.13,163.99Z" fill="#ffffff" stroke="#000000"/>
    <path d="M-403.69,-206.86L-447.49,-227.59L-461.77,-279.50L-447.18,-331.56L-404.57,-352.81L-370.28,-341.40L-353.87,-311.31L-333.40,-321.82L-355.03,-357.34L-404.69,-372.59L-466.12,-345.04L-486.50,-279.33L-465.33,-213.88L-403.57,-187.08L-354.20,-203.17L-333.38,-237.72L-353.49,-248.72L-371.19,-218.46ZM-281.02,-193.28L-282.07,-367.88L-303.89,-367.74L-302.84,-193.15ZM-233.82,-340.75L-225.99,-349.43L-226.04,-361.76L-234.13,-370.55L-245.35,-370.48L-253.12,-361.62L-253.05,-349.30L-245.03,-340.68ZM-227.67,-193.60L-228.43,-319.70L-250.25,-319.57L-249.49,-193.47ZM-197.28,-193.78L-175.40,-193.92L-175.80,-259.15L-170.04,-291.49L-144.37,-306.33L-127.27,-298.58L-121.53,-276.72L-121.04,-194.24L-99.21,-194.38L-99.65,-267.37L-92.02,-294.99L-67.95,-306.79L-49.37,-296.98L-45.07,-274.71L-44.58,-194.70L-22.76,-194.84L-23.29,-282.62L-33.23,-314.44L-63.36,-325.63L-86.08,-320.03L-103.25,-300.81L-116.10,-319.09L-139.12,-325.06L-161.98,-319.97L-178.24,-302.06L-178.35,-320.00L-197.99,-319.88ZM83.77,-280.05L12.79,-257.81L-1.50,-227.58L11.66,-199.02L42.49,-190.24L65.05,-194.77L85.64,-210.08L85.64,-195.49L106.01,-195.61L105.55,-276.96L93.84,-313.91L56.03,-326.39L22.13,-317.89L5.78,-293.18L23.15,-282.65L34.14,-301.88L53.91,-308.55L75.17,-302.47ZM83.89,-260.76L84.07,-228.83L68.72,-215.22L45.87,-208.06L29.41,-212.22L21.76,-228.69L31.39,-245.88ZM193.02,-194.45L193.03,-194.45L190.39,-213.24L180.63,-211.72L170.08,-216.98L168.11,-232.85L167.67,-305.35L189.25,-305.48L189.15,-322.22L167.57,-322.09L167.30,-365.74L145.48,-365.60L145.74,-321.95L127.80,-321.85L127.90,-305.11L145.84,-305.22L146.28,-232.72L151.44,-202.30L176.36,-192.02ZM243.96,-220.43L231.03,-253.82L324.63,-254.41L325.79,-263.14L311.07,-309.25L267.21,-327.75L224.54,-309.44L208.76,-259.38L225.14,-209.51L268.03,-191.72L304.00,-202.57L320.42,-228.67L303.37,-239.18L290.28,-217.52L269.16,-210.28ZM231.65,-271.30L245.18,-300.25L267.31,-309.23L292.11,-298.86L302.22,-271.73ZM-826.41,28.26L-768.45,27.92L-704.82,5.37L-684.20,-60.40L-706.99,-126.05L-772.65,-146.66L-827.46,-146.33ZM-803.49,7.76L-804.30,-125.86L-772.53,-126.05L-726.13,-112.94L-708.43,-60.48L-723.46,-8.54L-771.00,7.56ZM-631.71,3.10L-644.64,-30.28L-551.03,-30.87L-549.88,-39.61L-564.60,-85.71L-608.45,-104.22L-651.13,-85.90L-666.91,-35.84L-650.53,14.02L-607.63,31.82L-571.67,20.96L-555.24,-5.14L-572.30,-15.64L-585.39,6.01L-606.51,13.25ZM-644.02,-47.77L-630.49,-76.72L-608.36,-85.70L-583.56,-75.33L-573.45,-48.19ZM-513.23,-12.69L-531.72,-3.91L-519.23,20.76L-481.80,31.19L-446.21,22.10L-430.07,-8.20L-440.03,-34.02L-461.34,-44.80L-490.78,-52.57L-507.17,-59.02L-512.58,-69.06L-505.64,-81.54L-485.10,-86.23L-465.30,-80.96L-456.71,-64.97L-438.40,-73.74L-449.20,-94.79L-484.38,-104.87L-519.11,-95.73L-533.87,-66.48L-524.04,-43.39L-502.10,-33.08L-470.97,-25.05L-456.29,-17.78L-452.35,-6.13L-462.00,8.58L-481.17,12.59L-504.40,5.10ZM-390.98,-121.55L-383.14,-130.23L-383.19,-142.56L-391.29,-151.35L-402.50,-151.28L-410.27,-142.42L-410.21,-130.10L-402.19,-121.48ZM-384.82,25.60L-385.58,-100.50L-407.41,-100.36L-406.65,25.73ZM-305.47,77.88L-260.42,58.65L-249.80,16.54L-250.51,-101.31L-269.91,-101.19L-269.81,-84.22L-284.19,-100.24L-306.34,-106.42L-347.16,-87.19L-361.08,-38.07L-346.57,10.88L-305.52,29.62L-286.02,24.84L-271.66,11.58L-271.66,20.84L-279.21,49.11L-305.07,59.07L-325.30,53.50L-333.34,36.45L-350.76,44.55L-339.61,67.69ZM-304.99,-87.86L-280.81,-75.51L-269.30,-38.60L-279.45,-1.57L-304.39,11.07L-328.84,-1.27L-338.80,-38.18L-329.29,-75.22ZM-218.59,24.60L-196.76,24.47L-197.17,-44.16L-187.91,-76.62L-163.30,-87.96L-142.80,-78.63L-136.73,-53.25L-136.26,24.10L-114.44,23.97L-114.91,-53.39L-123.40,-91.79L-158.98,-106.80L-182.52,-101.46L-199.59,-83.43L-199.70,-101.62L-219.35,-101.50ZM-57.00,-0.36L-69.92,-33.75L23.68,-34.34L24.84,-43.07L10.12,-89.18L-33.74,-107.68L-76.42,-89.37L-92.19,-39.31L-75.82,10.56L-32.92,28.35L3.04,17.50L19.47,-8.61L2.41,-19.11L-10.68,2.54L-31.79,9.78ZM-69.30,-51.24L-55.78,-80.18L-33.65,-89.16L-8.84,-78.79L1.26,-51.66ZM101.31,-87.27L117.73,-81.95L124.16,-100.42L102.75,-108.38L81.96,-101.80L67.53,-81.40L67.40,-103.23L47.76,-103.11L48.51,21.75L70.34,22.86L69.93,-45.29L77.73,-75.74ZM154.84,-16.72L136.35,-7.94L148.85,16.73L186.27,27.17L221.86,18.07L238.01,-12.23L228.05,-38.05L206.74,-48.83L177.29,-56.60L160.91,-63.05L155.49,-73.09L162.43,-85.57L182.98,-90.26L202.78,-84.99L211.37,-68.99L229.68,-77.76L218.87,-98.82L183.70,-108.90L148.97,-99.76L134.20,-70.51L144.03,-47.42L165.98,-37.11L197.10,-29.08L211.78,-21.81L215.72,-10.16L206.07,4.55L186.90,8.56L163.67,1.07ZM344.51,-125.98L352.35,-134.66L352.29,-146.99L344.20,-155.78L332.99,-155.72L325.21,-146.86L325.28,-134.54L333.30,-125.92ZM350.67,21.17L349.91,-104.93L328.08,-104.80L328.84,21.30ZM395.15,-18.17L376.66,-9.39L389.16,15.28L426.58,25.72L462.18,16.62L478.32,-13.68L468.36,-39.50L447.05,-50.28L417.61,-58.05L401.22,-64.50L395.80,-74.54L402.75,-87.02L423.29,-91.71L443.09,-86.44L451.68,-70.44L469.99,-79.21L459.18,-100.27L424.01,-110.35L389.28,-101.21L374.51,-71.96L384.35,-48.86L406.29,-38.56L437.42,-30.53L452.10,-23.26L456.04,-11.61L446.38,3.10L427.21,7.11L403.98,-0.38ZM645.62,-65.18L574.64,-42.94L560.35,-12.71L573.51,15.85L604.34,24.62L626.89,20.10L647.49,4.79L647.48,19.38L667.85,19.25L667.39,-62.09L655.69,-99.04L617.87,-111.52L583.97,-103.03L567.62,-78.32L584.99,-67.78L595.99,-87.01L615.75,-93.69L637.02,-87.61ZM645.73,-45.89L645.91,-13.97L630.56,-0.36L607.72,6.80L591.26,2.64L583.61,-13.82L593.24,-31.02ZM-394.78,243.92L-369.18,147.00L-344.34,243.61L-322.27,243.48L-284.94,121.03L-303.65,115.32L-332.63,214.68L-358.68,117.60L-380.75,117.73L-406.09,217.79L-434.60,116.11L-454.69,122.05L-417.33,244.05ZM-238.40,218.98L-251.33,185.60L-157.72,185.01L-156.56,176.27L-171.28,130.17L-215.14,111.67L-257.82,129.98L-273.59,180.04L-257.22,229.91L-214.32,247.70L-178.36,236.84L-161.93,210.74L-178.99,200.24L-192.08,221.89L-213.20,229.13ZM-250.71,168.11L-237.18,139.17L-215.05,130.19L-190.25,140.55L-180.14,167.69ZM-112.11,67.61L-133.94,67.74L-132.89,242.34L-113.49,242.22L-113.59,225.24L-99.62,241.56L-77.79,247.42L-36.96,228.20L-23.03,179.07L-37.55,130.12L-78.61,111.39L-98.11,116.17L-111.74,129.44ZM-79.16,228.89L-103.31,216.55L-114.84,179.65L-104.70,142.61L-79.75,129.96L-55.29,142.31L-45.32,179.23L-54.84,216.26ZM13.45,202.39L-5.04,211.16L7.46,235.83L44.88,246.27L80.47,237.18L96.61,206.88L86.65,181.06L65.35,170.27L35.90,162.50L19.52,156.06L14.10,146.01L21.04,133.54L41.59,128.85L61.38,134.12L69.98,150.11L88.29,141.34L77.48,120.28L42.30,110.21L7.57,119.35L-7.19,148.60L2.64,171.69L24.59,182.00L55.71,190.03L70.39,197.30L74.33,208.95L64.68,223.65L45.51,227.66L22.28,220.17ZM135.71,93.53L143.54,84.85L143.49,72.52L135.39,63.73L124.18,63.80L116.41,72.66L116.48,84.98L124.50,93.60ZM141.86,240.68L141.10,114.58L119.28,114.71L120.04,240.81ZM226.94,241.86L226.94,241.85L224.31,223.06L214.54,224.58L204.00,219.32L202.02,203.46L201.58,130.95L223.17,130.82L223.06,114.09L201.48,114.22L201.22,70.57L179.39,70.70L179.66,114.35L161.71,114.46L161.81,131.19L179.76,131.08L180.20,203.59L185.36,234.00L210.27,244.29ZM277.87,215.87L264.95,182.48L358.55,181.90L359.71,173.16L344.99,127.05L301.13,108.55L258.45,126.86L242.68,176.93L259.05,226.79L301.95,244.59L337.91,233.73L354.34,207.63L337.28,197.12L324.19,218.78L303.07,226.02ZM265.57,165.00L279.09,136.05L301.22,127.07L326.03,137.44L336.13,164.57Z" fill="#ffffff" stroke="#000000"/>
    <path d="M-405.67,-201.00L-449.06,-221.43L-463.30,-272.77L-448.96,-324.33L-406.83,-345.44L-372.88,-334.22L-356.58,-304.47L-336.34,-314.91L-357.81,-350.03L-406.99,-365.02L-467.74,-337.63L-487.78,-272.55L-466.69,-207.83L-405.52,-181.42L-356.69,-197.45L-336.16,-231.68L-356.08,-242.53L-373.54,-212.54ZM-284.24,-187.80L-285.63,-360.59L-307.23,-360.42L-305.84,-187.63ZM-237.83,-333.84L-230.09,-342.45L-230.17,-354.65L-238.19,-363.34L-249.29,-363.25L-256.97,-354.46L-256.87,-342.27L-248.92,-333.76ZM-231.44,-188.22L-232.44,-313.02L-254.04,-312.85L-253.04,-188.05ZM-201.37,-188.47L-179.72,-188.64L-180.24,-253.20L-174.60,-285.22L-149.23,-299.96L-132.29,-292.32L-126.57,-270.70L-125.91,-189.07L-104.31,-189.25L-104.89,-261.48L-97.39,-288.84L-73.59,-300.57L-55.19,-290.90L-50.88,-268.86L-50.25,-189.68L-28.65,-189.86L-29.35,-276.73L-39.25,-308.20L-69.09,-319.22L-91.57,-313.63L-108.52,-294.58L-121.28,-312.65L-144.07,-318.50L-166.69,-313.42L-182.74,-295.66L-182.88,-313.42L-202.32,-313.26ZM76.61,-274.40L6.41,-252.25L-7.67,-222.30L5.41,-194.06L35.94,-185.44L58.25,-189.96L78.61,-205.15L78.63,-190.72L98.79,-190.88L98.17,-271.39L86.51,-307.93L49.06,-320.21L15.53,-311.73L-0.60,-287.25L16.61,-276.85L27.45,-295.91L47.00,-302.55L68.06,-296.58ZM76.77,-255.31L77.01,-223.72L61.84,-210.21L39.25,-203.08L22.95,-207.17L15.35,-223.44L24.84,-240.48ZM184.91,-189.90L184.91,-189.90L182.27,-208.50L172.61,-206.97L162.16,-212.16L160.17,-227.86L159.60,-299.61L180.96,-299.78L180.82,-316.34L159.46,-316.17L159.12,-359.37L137.52,-359.20L137.86,-316.00L120.10,-315.86L120.24,-299.30L138.00,-299.44L138.57,-227.68L143.74,-197.59L168.42,-187.46ZM235.26,-215.72L222.41,-248.74L315.04,-249.50L316.17,-258.15L301.51,-303.75L258.07,-321.98L215.87,-303.77L200.36,-254.19L216.66,-204.87L259.15,-187.35L294.72,-198.16L310.93,-224.03L294.03,-234.39L281.11,-212.93L260.23,-205.73ZM222.99,-266.04L236.31,-294.72L258.20,-303.65L282.77,-293.44L292.83,-266.60ZM-823.56,32.54L-766.21,32.08L-703.28,9.65L-683.00,-55.49L-705.68,-120.42L-770.72,-140.69L-824.95,-140.25ZM-800.93,12.20L-801.99,-120.03L-770.55,-120.29L-724.61,-107.40L-706.98,-55.52L-721.75,-4.09L-768.77,11.94ZM-630.93,7.25L-643.79,-25.76L-551.15,-26.53L-550.02,-35.18L-564.68,-80.78L-608.12,-99.00L-650.33,-80.80L-665.84,-31.22L-649.53,18.10L-607.04,35.63L-571.47,24.81L-555.27,-1.05L-572.17,-11.42L-585.08,10.04L-605.97,17.25ZM-643.21,-43.07L-629.88,-71.74L-608.00,-80.67L-583.43,-70.46L-573.37,-43.63ZM-513.70,-8.61L-531.99,0.11L-519.57,24.50L-482.51,34.76L-447.30,25.69L-431.39,-4.34L-441.30,-29.86L-462.41,-40.50L-491.56,-48.13L-507.79,-54.48L-513.17,-64.40L-506.33,-76.77L-486.00,-81.45L-466.40,-76.27L-457.86,-60.46L-439.76,-69.18L-450.50,-89.99L-485.33,-99.90L-519.68,-90.79L-534.24,-61.81L-524.46,-38.97L-502.72,-28.81L-471.90,-20.93L-457.36,-13.76L-453.44,-2.24L-462.96,12.33L-481.92,16.34L-504.93,8.97ZM-392.92,-116.59L-385.18,-125.20L-385.26,-137.40L-393.29,-146.08L-404.39,-145.99L-412.06,-137.21L-411.97,-125.02L-404.02,-116.50ZM-386.54,29.03L-387.54,-95.77L-409.14,-95.59L-408.14,29.20ZM-307.91,80.61L-263.35,61.49L-252.93,19.79L-253.87,-96.84L-273.07,-96.69L-272.93,-79.89L-287.20,-95.72L-309.13,-101.79L-349.49,-82.67L-363.17,-34.03L-348.71,14.39L-308.05,32.85L-288.76,28.08L-274.57,14.93L-274.56,24.09L-281.97,52.08L-307.55,61.99L-327.57,56.52L-335.57,39.66L-352.79,47.72L-341.71,70.60ZM-307.76,-83.43L-283.81,-71.25L-272.34,-34.74L-282.31,1.93L-306.97,14.49L-331.19,2.32L-341.12,-34.19L-331.78,-70.86ZM-222.02,27.71L-200.42,27.53L-200.97,-40.39L-191.86,-72.53L-167.53,-83.80L-147.22,-74.61L-141.16,-49.51L-140.55,27.05L-118.95,26.88L-119.56,-49.68L-128.05,-87.68L-163.29,-102.45L-186.57,-97.12L-203.44,-79.25L-203.58,-97.25L-223.02,-97.09ZM-62.15,2.68L-75.01,-30.34L17.63,-31.10L18.76,-39.75L4.10,-85.35L-39.34,-103.58L-81.54,-85.37L-97.05,-35.79L-80.75,13.53L-38.26,31.05L-2.69,20.24L13.52,-5.63L-3.39,-15.99L-16.30,5.47L-37.18,12.67ZM-74.43,-47.64L-61.10,-76.32L-39.22,-85.25L-14.64,-75.04L-4.59,-48.20ZM94.35,-83.65L110.61,-78.41L116.95,-96.70L95.74,-104.54L75.17,-97.98L60.94,-77.77L60.76,-99.37L41.32,-99.22L42.32,24.36L63.93,25.41L63.38,-42.03L71.04,-72.18ZM147.48,-13.93L129.19,-5.21L141.61,19.19L178.67,29.44L213.87,20.37L229.79,-9.65L219.88,-35.18L198.77,-45.81L169.62,-53.45L153.39,-59.80L148.01,-69.72L154.85,-82.09L175.18,-86.77L194.78,-81.59L203.31,-65.78L221.42,-74.49L210.68,-95.31L175.85,-105.22L141.49,-96.10L126.94,-67.12L136.72,-44.29L158.46,-34.13L189.28,-26.24L203.82,-19.08L207.74,-7.56L198.22,7.02L179.25,11.02L156.25,3.66ZM334.97,-122.44L342.71,-131.05L342.63,-143.25L334.60,-151.94L323.51,-151.85L315.83,-143.06L315.93,-130.87L323.88,-122.35ZM341.36,23.18L340.35,-101.62L318.75,-101.45L319.76,23.35ZM385.31,-15.84L367.03,-7.12L379.44,17.27L416.50,27.53L451.71,18.46L467.62,-11.56L457.72,-37.09L436.60,-47.73L407.45,-55.36L391.22,-61.71L385.84,-71.63L392.68,-84.00L413.01,-88.68L432.61,-83.50L441.15,-67.69L459.25,-76.41L448.51,-97.22L413.68,-107.13L379.33,-98.02L364.77,-69.04L374.55,-46.20L396.29,-36.04L427.11,-28.16L441.65,-20.99L445.58,-9.47L436.05,5.10L417.09,9.11L394.08,1.74ZM633.09,-62.87L562.89,-40.72L548.81,-10.77L561.89,17.47L592.42,26.09L614.73,21.57L635.09,6.38L635.11,20.81L655.27,20.65L654.65,-59.85L642.99,-96.40L605.54,-108.67L572.01,-100.20L555.88,-75.71L573.09,-65.32L583.93,-84.37L603.48,-91.02L624.54,-85.05ZM633.25,-43.78L633.49,-12.18L618.32,1.32L595.73,8.45L579.43,4.37L571.82,-11.91L581.32,-28.95ZM-395.96,245.11L-370.81,149.15L-346.04,244.71L-324.20,244.54L-287.50,123.28L-306.02,117.66L-334.51,216.06L-360.49,120.02L-382.33,120.20L-407.21,219.28L-435.62,118.71L-455.49,124.63L-418.28,245.29ZM-241.25,220.13L-254.10,187.11L-161.47,186.34L-160.34,177.70L-175.00,132.09L-218.44,113.87L-260.64,132.08L-276.15,181.65L-259.85,230.97L-217.36,248.50L-181.79,237.68L-165.58,211.82L-182.48,201.46L-195.40,222.91L-216.28,230.12ZM-253.52,169.80L-240.20,141.13L-218.31,132.20L-193.74,142.41L-183.68,169.24ZM-116.56,70.06L-138.16,70.23L-136.77,243.03L-117.57,242.87L-117.71,226.07L-103.85,242.19L-82.23,247.95L-41.86,228.84L-28.17,180.20L-42.64,131.78L-83.31,113.32L-102.60,118.09L-116.07,131.26ZM-83.62,229.62L-107.55,217.45L-119.04,180.95L-109.07,144.27L-84.41,131.70L-60.17,143.88L-50.23,180.40L-59.58,217.06ZM7.98,203.20L-10.31,211.92L2.11,236.31L39.17,246.57L74.38,237.50L90.29,207.48L80.38,181.95L59.27,171.31L30.12,163.68L13.89,157.33L8.51,147.41L15.35,135.04L35.68,130.36L55.28,135.54L63.82,151.35L81.92,142.63L71.18,121.82L36.35,111.91L2.00,121.03L-12.56,150.01L-2.78,172.84L18.96,183.00L49.78,190.89L64.32,198.05L68.24,209.57L58.72,224.14L39.76,228.15L16.75,220.78ZM128.76,95.22L136.50,86.62L136.42,74.41L128.39,65.73L117.29,65.82L109.62,74.60L109.71,86.80L117.66,95.31ZM135.14,240.84L134.14,116.05L112.54,116.22L113.54,241.01ZM219.34,241.84L219.34,241.83L216.70,223.24L207.04,224.77L196.59,219.58L194.61,203.88L194.03,132.12L215.39,131.95L215.25,115.39L193.90,115.56L193.55,72.37L171.95,72.54L172.30,115.74L154.54,115.88L154.67,132.44L172.43,132.30L173.01,204.06L178.18,234.15L202.85,244.28ZM269.70,216.02L256.84,183.00L349.48,182.24L350.61,173.59L335.95,127.98L292.50,109.76L250.30,127.97L234.79,177.54L251.10,226.86L293.59,244.39L329.16,233.57L345.36,207.71L328.46,197.35L315.55,218.80L294.66,226.01ZM257.42,165.70L270.75,137.02L292.63,128.09L317.20,138.30L327.26,165.13Z" fill="#ffffff" stroke="#000000"/>
    <path d="M-407.52,-195.19L-450.49,-215.32L-464.69,-266.10L-450.60,-317.15L-408.95,-338.13L-375.33,-327.08L-359.14,-297.68L-339.13,-308.05L-360.45,-342.76L-409.15,-357.50L-469.21,-330.27L-488.91,-265.84L-467.91,-201.83L-407.32,-175.82L-359.04,-191.77L-338.79,-225.69L-358.52,-236.38L-375.74,-206.68ZM-287.32,-182.37L-289.04,-353.36L-310.42,-353.15L-308.70,-182.16ZM-241.68,-326.99L-234.04,-335.52L-234.14,-347.59L-242.11,-356.17L-253.09,-356.06L-260.67,-347.35L-260.55,-335.29L-252.66,-326.88ZM-235.08,-182.90L-236.32,-306.39L-257.69,-306.18L-256.45,-182.68ZM-205.31,-183.20L-183.89,-183.41L-184.53,-247.30L-179.02,-278.99L-153.94,-293.63L-137.17,-286.10L-131.46,-264.72L-130.65,-183.95L-109.27,-184.16L-109.99,-255.64L-102.62,-282.73L-79.10,-294.38L-60.87,-284.85L-56.56,-263.05L-55.77,-184.70L-34.40,-184.91L-35.26,-270.88L-45.13,-302.01L-74.67,-312.85L-96.91,-307.27L-113.65,-288.38L-126.31,-306.24L-148.87,-311.99L-171.24,-306.92L-187.09,-289.31L-187.27,-306.88L-206.51,-306.69ZM69.60,-268.79L0.17,-246.73L-13.70,-217.06L-0.70,-189.14L29.53,-180.67L51.59,-185.19L71.71,-200.27L71.76,-185.98L91.71,-186.18L90.94,-265.85L79.33,-301.99L42.25,-314.06L9.08,-305.61L-6.84,-281.35L10.22,-271.10L20.91,-289.97L40.24,-296.59L61.09,-290.72ZM69.79,-249.89L70.09,-218.63L55.11,-205.24L32.77,-198.14L16.63,-202.15L9.07,-218.24L18.44,-235.12ZM176.93,-185.38L176.94,-185.39L174.29,-203.78L164.73,-202.25L154.38,-207.36L152.38,-222.89L151.67,-293.90L172.80,-294.11L172.64,-310.50L151.50,-310.29L151.07,-353.04L129.70,-352.82L130.13,-310.07L112.55,-309.90L112.72,-293.51L130.29,-293.69L131.01,-222.68L136.18,-192.91L160.62,-182.93ZM226.71,-211.03L213.92,-243.68L305.59,-244.62L306.70,-253.18L292.10,-298.28L249.07,-316.23L207.34,-298.13L192.09,-249.04L208.33,-200.26L250.41,-183.00L285.59,-193.78L301.57,-219.40L284.83,-229.63L272.09,-208.37L251.44,-201.19ZM214.46,-260.81L227.59,-289.21L249.23,-298.09L273.57,-288.04L283.57,-261.50ZM-820.59,36.75L-763.83,36.18L-701.61,13.85L-681.66,-50.65L-704.24,-114.85L-768.64,-134.78L-822.31,-134.24ZM-798.23,16.57L-799.55,-114.28L-768.43,-114.59L-722.94,-101.94L-705.40,-50.63L-719.91,0.30L-766.41,16.25ZM-630.01,11.34L-642.80,-21.31L-551.13,-22.25L-550.03,-30.81L-564.63,-75.91L-607.66,-93.86L-649.38,-75.75L-664.63,-26.66L-648.40,22.11L-606.32,39.37L-571.14,28.60L-555.15,2.97L-571.90,-7.25L-584.64,14.01L-605.29,21.18ZM-642.26,-38.43L-629.13,-66.84L-607.49,-75.72L-583.16,-65.66L-573.15,-39.13ZM-514.04,-4.59L-532.11,4.08L-519.78,28.19L-483.09,38.26L-448.26,29.22L-432.57,-0.52L-442.43,-25.77L-463.34,-36.25L-492.21,-43.74L-508.28,-49.99L-513.63,-59.81L-506.87,-72.05L-486.77,-76.73L-467.36,-71.64L-458.88,-56.01L-440.99,-64.67L-451.65,-85.25L-486.14,-94.99L-520.12,-85.90L-534.47,-57.19L-524.74,-34.61L-503.21,-24.61L-472.70,-16.86L-458.29,-9.80L-454.39,1.59L-463.78,16.03L-482.54,20.04L-505.32,12.79ZM-394.73,-111.69L-387.09,-120.22L-387.19,-132.29L-395.16,-140.87L-406.14,-140.76L-413.71,-132.05L-413.60,-119.99L-405.71,-111.58ZM-388.13,32.40L-389.37,-91.09L-410.74,-90.88L-409.50,32.62ZM-310.21,83.29L-266.16,64.28L-255.93,23.00L-257.09,-92.42L-276.08,-92.23L-275.92,-75.61L-290.07,-91.24L-311.78,-97.20L-351.69,-78.21L-365.12,-30.05L-350.72,17.84L-310.44,36.02L-291.36,31.27L-277.35,18.23L-277.32,27.29L-284.60,55.01L-309.89,64.86L-329.72,59.49L-337.67,42.82L-354.69,50.83L-343.69,73.45ZM-310.39,-79.04L-286.66,-67.04L-275.24,-30.93L-285.03,5.38L-309.41,17.85L-333.40,5.87L-343.31,-30.25L-334.13,-66.56ZM-225.32,30.77L-203.95,30.55L-204.62,-36.66L-195.67,-68.48L-171.62,-79.69L-151.51,-70.63L-145.46,-45.80L-144.70,29.96L-123.33,29.74L-124.09,-46.02L-132.56,-83.60L-167.46,-98.15L-190.49,-92.83L-207.15,-75.11L-207.33,-92.92L-226.56,-92.73ZM-67.17,5.68L-79.96,-26.96L11.71,-27.91L12.82,-36.47L-1.78,-81.57L-44.81,-99.51L-86.54,-81.41L-101.79,-32.32L-85.55,16.45L-43.47,33.71L-8.29,22.94L7.69,-2.69L-9.05,-12.91L-21.79,8.35L-42.44,15.52ZM-79.42,-44.09L-66.29,-72.49L-44.65,-81.38L-20.31,-71.32L-10.31,-44.79ZM87.53,-80.06L103.63,-74.91L109.86,-93.02L88.86,-100.73L68.52,-94.20L54.48,-74.18L54.26,-95.55L35.02,-95.36L36.25,26.93L57.64,27.92L56.97,-38.81L64.48,-68.67ZM140.24,-11.17L122.17,-2.50L134.50,21.61L171.19,31.69L206.02,22.64L221.71,-7.10L211.85,-32.35L190.94,-42.83L162.07,-50.32L146.00,-56.57L140.65,-66.38L147.40,-78.63L167.51,-83.30L186.92,-78.22L195.39,-62.59L213.29,-71.25L202.63,-91.83L168.14,-101.56L134.16,-92.48L119.81,-63.77L129.54,-41.19L151.07,-31.18L181.58,-23.44L195.99,-16.38L199.89,-4.98L190.50,9.46L171.74,13.46L148.96,6.21ZM325.57,-118.93L333.21,-127.46L333.11,-139.54L325.14,-148.11L314.17,-148.00L306.59,-139.29L306.70,-127.23L314.59,-118.82ZM332.18,25.16L330.93,-98.33L309.56,-98.12L310.80,25.38ZM375.59,-13.54L357.52,-4.87L369.85,19.24L406.54,29.32L441.37,20.28L457.06,-9.47L447.20,-34.71L426.29,-45.19L397.42,-52.69L381.35,-58.94L376.01,-68.75L382.76,-81.00L402.86,-85.67L422.27,-80.59L430.75,-64.96L448.64,-73.62L437.98,-94.20L403.49,-103.93L369.51,-94.84L355.16,-66.13L364.89,-43.56L386.42,-33.55L416.93,-25.80L431.34,-18.75L435.24,-7.35L425.85,7.09L407.09,11.09L384.31,3.85ZM620.70,-60.57L551.27,-38.50L537.40,-8.84L550.40,19.08L580.63,27.55L602.70,23.03L622.81,7.96L622.86,22.24L642.81,22.04L642.04,-57.63L630.43,-93.77L593.35,-105.84L560.18,-97.39L544.26,-73.12L561.32,-62.87L572.01,-81.75L591.34,-88.37L612.19,-82.49ZM620.89,-41.67L621.19,-10.41L606.21,2.98L583.87,10.08L567.73,6.08L560.17,-10.02L569.54,-26.90ZM-397.02,246.25L-372.32,151.24L-347.62,245.76L-326.01,245.54L-289.93,125.47L-308.27,119.95L-336.27,217.38L-362.16,122.40L-383.77,122.61L-408.20,220.71L-436.52,121.24L-456.17,127.14L-419.11,246.48ZM-243.97,221.22L-256.75,188.57L-165.08,187.63L-163.98,179.07L-178.58,133.97L-221.61,116.02L-263.33,134.13L-278.58,183.22L-262.35,231.99L-220.27,249.25L-185.09,238.48L-169.11,212.85L-185.85,202.63L-198.59,223.89L-219.24,231.06ZM-256.21,171.45L-243.09,143.04L-221.45,134.16L-197.11,144.22L-187.11,170.75ZM-120.88,72.47L-142.25,72.68L-140.53,243.67L-121.53,243.48L-121.70,226.86L-107.96,242.78L-86.55,248.44L-46.64,229.45L-33.19,181.29L-47.61,133.40L-87.89,115.22L-106.97,119.97L-120.27,133.03ZM-87.96,230.30L-111.67,218.31L-123.11,182.21L-113.32,145.89L-88.94,133.41L-64.93,145.40L-55.02,181.53L-64.20,217.83ZM2.63,203.97L-15.45,212.64L-3.11,236.75L33.58,246.83L68.40,237.79L84.09,208.04L74.24,182.80L53.33,172.32L24.46,164.82L8.39,158.57L3.04,148.76L9.79,136.51L29.89,131.84L49.30,136.92L57.78,152.55L75.68,143.89L65.01,123.31L30.52,113.58L-3.46,122.67L-17.80,151.38L-8.08,173.95L13.45,183.96L43.97,191.71L58.37,198.76L62.28,210.16L52.88,224.60L34.12,228.60L11.34,221.36ZM121.93,96.88L129.57,88.35L129.47,76.27L121.51,67.70L110.53,67.81L102.95,76.52L103.07,88.58L110.95,96.99ZM128.54,240.97L127.30,117.48L105.93,117.69L107.17,241.18ZM211.86,241.79L211.87,241.79L209.22,223.39L199.66,224.92L189.31,219.81L187.31,204.28L186.60,133.27L207.74,133.06L207.57,116.67L186.43,116.88L186.00,74.13L164.63,74.35L165.06,117.10L147.49,117.27L147.65,133.66L165.23,133.48L165.94,204.49L171.11,234.26L195.55,244.24ZM261.65,216.14L248.86,183.49L340.53,182.55L341.63,173.99L327.03,128.89L284.00,110.94L242.28,129.04L227.03,178.13L243.26,226.91L285.34,244.17L320.52,233.39L336.51,207.77L319.76,197.54L307.02,218.80L286.37,225.98ZM249.40,166.36L262.53,137.96L284.17,129.08L308.50,139.14L318.51,165.67Z" fill="#ffffff" stroke="#000000"/>
    <path d="M-409.22,-189.43L-451.78,-209.27L-465.93,-259.49L-452.09,-310.03L-410.93,-330.87L-377.63,-320.01L-361.56,-290.95L-341.78,-301.25L-362.94,-335.55L-411.16,-350.03L-470.53,-322.98L-489.89,-259.18L-469.00,-195.88L-408.99,-170.27L-361.25,-186.15L-341.27,-219.75L-360.82,-230.29L-377.80,-200.87ZM-290.27,-176.99L-292.31,-346.18L-313.46,-345.92L-311.41,-176.74ZM-245.39,-320.17L-237.85,-328.63L-237.98,-340.58L-245.87,-349.05L-256.74,-348.92L-264.22,-340.29L-264.08,-328.35L-256.26,-320.04ZM-238.57,-177.62L-240.04,-299.81L-261.19,-299.55L-259.72,-177.36ZM-209.12,-177.97L-187.93,-178.23L-188.69,-241.44L-183.30,-272.81L-158.51,-287.34L-141.90,-279.93L-136.21,-258.78L-135.24,-178.86L-114.10,-179.12L-114.95,-249.85L-107.71,-276.66L-84.45,-288.24L-66.40,-278.84L-62.09,-257.28L-61.16,-179.76L-40.01,-180.01L-41.04,-265.07L-50.86,-295.85L-80.12,-306.52L-102.11,-300.96L-118.63,-282.23L-131.19,-299.88L-153.53,-305.52L-175.66,-300.46L-191.31,-283.00L-191.52,-300.39L-210.55,-300.16ZM62.73,-263.21L-5.93,-241.24L-19.60,-211.86L-6.68,-184.26L23.25,-175.94L45.08,-180.46L64.95,-195.41L65.03,-181.28L84.77,-181.52L83.85,-260.34L72.29,-296.08L35.57,-307.95L2.77,-299.52L-12.93,-275.48L3.96,-265.37L14.51,-284.07L33.62,-290.66L54.26,-284.89ZM62.95,-244.51L63.31,-213.58L48.52,-200.30L26.42,-193.23L10.45,-197.16L2.93,-213.07L12.17,-229.79ZM169.09,-180.89L169.10,-180.90L166.44,-199.09L156.99,-197.56L146.73,-202.60L144.73,-217.96L143.88,-288.22L164.79,-288.47L164.60,-304.69L143.68,-304.44L143.17,-346.73L122.02,-346.48L122.53,-304.18L105.15,-303.97L105.34,-287.76L122.73,-287.97L123.58,-217.71L128.76,-188.26L152.96,-178.44ZM218.30,-206.37L205.58,-238.65L296.28,-239.77L297.36,-248.24L282.82,-292.83L240.21,-310.51L198.96,-292.51L183.97,-243.91L200.13,-195.68L241.80,-178.69L276.59,-189.42L292.36,-214.81L275.77,-224.89L263.20,-203.83L242.79,-196.69ZM206.08,-255.60L219.02,-283.73L240.41,-292.56L264.51,-282.66L274.46,-256.42ZM-817.48,40.88L-761.32,40.21L-699.80,17.99L-680.19,-45.87L-702.66,-109.36L-766.42,-128.94L-819.52,-128.30ZM-795.40,20.88L-796.96,-108.60L-766.18,-108.97L-721.14,-96.54L-703.68,-45.81L-717.94,4.61L-763.91,20.50ZM-628.96,15.36L-641.68,-16.92L-550.98,-18.03L-549.91,-26.50L-564.44,-71.10L-607.05,-88.77L-648.30,-70.78L-663.29,-22.17L-647.13,26.06L-605.46,43.05L-570.67,32.32L-554.91,6.93L-571.50,-3.15L-584.06,17.91L-604.48,25.05ZM-641.18,-33.86L-628.25,-61.99L-606.85,-70.82L-582.75,-60.92L-572.80,-34.69ZM-514.24,-0.64L-532.11,7.98L-519.85,31.81L-483.53,41.71L-449.09,32.69L-433.62,3.23L-443.43,-21.73L-464.14,-32.06L-492.72,-39.41L-508.63,-45.57L-513.94,-55.27L-507.29,-67.40L-487.41,-72.06L-468.19,-67.07L-459.77,-51.62L-442.08,-60.23L-452.67,-80.57L-486.82,-90.13L-520.42,-81.07L-534.56,-52.64L-524.89,-30.32L-503.57,-20.46L-473.36,-12.86L-459.09,-5.90L-455.21,5.37L-464.47,19.67L-483.03,23.67L-505.58,16.55ZM-396.40,-106.84L-388.86,-115.29L-388.99,-127.24L-396.88,-135.71L-407.75,-135.58L-415.23,-126.95L-415.09,-115.01L-407.27,-106.71ZM-389.58,35.72L-391.05,-86.47L-412.20,-86.21L-410.73,35.98ZM-312.38,85.92L-268.83,67.02L-258.79,26.15L-260.17,-88.05L-278.97,-87.82L-278.77,-71.37L-292.80,-86.81L-314.30,-92.67L-353.75,-73.80L-366.94,-26.12L-352.60,21.23L-312.71,39.15L-293.84,34.41L-280.00,21.47L-279.95,30.44L-287.10,57.88L-312.10,67.68L-331.73,62.41L-339.63,45.93L-356.46,53.89L-345.53,76.25ZM-312.88,-74.70L-289.38,-62.87L-278.01,-27.17L-287.63,8.78L-311.72,21.17L-335.49,9.35L-345.36,-26.36L-336.35,-62.31ZM-228.49,33.78L-207.35,33.52L-208.15,-32.98L-199.36,-64.48L-175.58,-75.62L-155.66,-66.70L-149.63,-42.14L-148.72,32.82L-127.57,32.56L-128.48,-42.40L-136.93,-79.57L-171.50,-93.90L-194.28,-88.59L-210.72,-71.02L-210.93,-88.64L-229.97,-88.41ZM-72.05,8.64L-84.77,-23.63L5.93,-24.75L7.00,-33.22L-7.53,-77.82L-50.14,-95.49L-91.39,-77.49L-106.38,-28.89L-90.22,19.34L-48.55,36.33L-13.76,25.60L2.00,0.21L-14.59,-9.87L-27.15,11.19L-47.57,18.33ZM-84.27,-40.58L-71.34,-68.71L-49.95,-77.54L-25.85,-67.64L-15.89,-41.41ZM80.85,-76.50L96.79,-71.44L102.92,-89.37L82.12,-96.96L62.01,-90.46L48.15,-70.62L47.89,-91.76L28.86,-91.53L30.32,29.46L51.48,30.40L50.69,-35.63L58.06,-65.18ZM133.14,-8.44L115.27,0.17L127.52,24.00L163.85,33.90L198.29,24.88L213.75,-4.58L203.95,-29.54L183.24,-39.87L154.66,-47.22L138.75,-53.38L133.44,-63.08L140.09,-75.21L159.97,-79.87L179.19,-74.88L187.61,-59.43L205.30,-68.04L194.70,-88.38L160.56,-97.94L126.96,-88.88L112.82,-60.45L122.48,-38.13L143.81,-28.27L174.02,-20.67L188.29,-13.71L192.17,-2.44L182.90,11.86L164.35,15.86L141.80,8.74ZM316.30,-115.43L323.84,-123.89L323.72,-135.84L315.82,-144.31L304.96,-144.18L297.48,-135.55L297.61,-123.61L305.44,-115.30ZM323.12,27.12L321.65,-95.07L300.50,-94.81L301.97,27.38ZM366.00,-11.25L348.14,-2.64L360.39,21.19L396.72,31.09L431.15,22.07L446.62,-7.39L436.82,-32.35L416.11,-42.68L387.53,-50.03L371.61,-56.19L366.30,-65.88L372.96,-78.02L392.84,-82.68L412.06,-77.69L420.48,-62.24L438.17,-70.85L427.57,-91.19L393.43,-100.75L359.82,-91.69L345.69,-63.26L355.35,-40.94L376.68,-31.08L406.88,-23.47L421.15,-16.52L425.04,-5.25L415.77,9.06L397.22,13.05L374.66,5.93ZM608.44,-58.28L539.79,-36.31L526.12,-6.93L539.04,20.67L568.96,28.99L590.79,24.48L610.66,9.52L610.74,23.65L630.48,23.42L629.56,-55.41L618.00,-91.15L581.28,-103.02L548.48,-94.59L532.78,-70.55L549.68,-60.44L560.22,-79.14L579.33,-85.72L599.97,-79.96ZM608.67,-39.58L609.03,-8.65L594.23,4.63L572.13,11.70L556.16,7.77L548.65,-8.14L557.88,-24.86ZM-397.96,247.34L-373.71,153.27L-349.08,246.75L-327.70,246.49L-292.23,127.61L-310.39,122.19L-337.90,218.65L-363.71,124.72L-385.10,124.97L-409.07,222.09L-437.28,123.72L-456.72,129.60L-419.81,247.60ZM-246.56,222.27L-259.28,189.99L-168.58,188.87L-167.51,180.40L-182.04,135.80L-224.65,118.13L-265.90,136.13L-280.89,184.73L-264.73,232.96L-223.06,249.95L-188.27,239.22L-172.51,213.83L-189.10,203.75L-201.66,224.81L-222.08,231.95ZM-258.78,173.04L-245.85,144.91L-224.45,136.08L-200.35,145.98L-190.40,172.21ZM-125.07,74.83L-146.21,75.09L-144.17,244.28L-125.38,244.05L-125.57,227.60L-111.94,243.33L-90.75,248.89L-51.30,230.01L-38.08,182.33L-52.44,134.98L-92.34,117.06L-111.21,121.81L-124.34,134.75ZM-92.18,230.93L-115.67,219.12L-127.06,183.42L-117.44,147.47L-93.34,135.07L-69.56,146.89L-59.69,182.61L-68.70,218.55ZM-2.60,204.71L-20.47,213.32L-8.21,237.16L28.11,247.05L62.55,238.03L78.02,208.57L68.21,183.61L47.50,173.29L18.92,165.93L3.01,159.78L-2.30,150.08L4.35,137.94L24.24,133.28L43.45,138.27L51.87,153.72L69.56,145.12L58.97,124.77L24.82,115.21L-8.78,124.27L-22.92,152.70L-13.25,175.03L8.07,184.89L38.28,192.49L52.55,199.44L56.44,210.71L47.17,225.02L28.61,229.02L6.06,221.89ZM115.24,98.51L122.78,90.05L122.66,78.10L114.76,69.63L103.90,69.76L96.41,78.39L96.55,90.33L104.37,98.64ZM122.06,241.07L120.59,118.87L99.44,119.13L100.91,241.32ZM204.51,241.71L204.51,241.71L201.85,223.51L192.40,225.04L182.15,220.00L180.14,204.64L179.29,134.38L200.21,134.13L200.01,117.92L179.10,118.17L178.59,75.87L157.44,76.13L157.95,118.42L140.56,118.63L140.76,134.85L158.15,134.64L158.99,204.90L164.17,234.34L188.37,244.16ZM253.72,216.23L241.00,183.95L331.70,182.84L332.77,174.36L318.24,129.77L275.63,112.10L234.38,130.09L219.39,178.70L235.55,226.92L277.22,243.92L312.01,233.19L327.77,207.80L311.18,197.72L298.62,218.78L278.20,225.92ZM241.50,167.00L254.43,138.87L275.82,130.04L299.92,139.94L309.88,166.18Z" fill="#ffffff" stroke="#000000"/>
    <path d="M-410.78,-183.74L-452.93,-203.27L-467.03,-252.93L-453.44,-302.96L-412.75,-323.66L-379.79,-312.98L-363.83,-284.26L-344.28,-294.50L-365.29,-328.39L-413.02,-342.62L-471.70,-315.73L-490.74,-252.58L-469.93,-190.00L-410.52,-164.77L-363.31,-180.59L-343.62,-213.87L-362.98,-224.26L-379.72,-195.11ZM-293.07,-171.66L-295.43,-339.05L-316.35,-338.75L-313.99,-171.37ZM-248.96,-313.41L-241.51,-321.79L-241.66,-333.62L-249.49,-341.98L-260.24,-341.83L-267.62,-333.27L-267.46,-321.46L-259.71,-313.26ZM-241.92,-172.38L-243.63,-293.27L-264.55,-292.98L-262.85,-172.09ZM-212.79,-172.79L-191.82,-173.09L-192.70,-235.62L-187.43,-266.68L-162.94,-281.10L-146.48,-273.80L-140.81,-252.89L-139.70,-173.82L-118.78,-174.12L-119.76,-244.09L-112.66,-270.64L-89.67,-282.13L-71.79,-272.87L-67.48,-251.55L-66.40,-174.85L-45.48,-175.15L-46.67,-259.30L-56.45,-289.73L-85.41,-300.23L-107.16,-294.68L-123.47,-276.13L-135.93,-293.56L-158.04,-299.10L-179.93,-294.04L-195.37,-276.74L-195.61,-293.95L-214.45,-293.68ZM55.99,-257.67L-11.88,-235.79L-25.35,-206.70L-12.51,-179.42L17.11,-171.25L38.70,-175.76L58.33,-190.59L58.44,-176.61L77.96,-176.88L76.90,-254.87L65.39,-290.20L29.04,-301.88L-3.40,-293.47L-18.88,-269.66L-2.15,-259.69L8.25,-278.21L27.14,-284.76L47.58,-279.10ZM56.26,-239.17L56.67,-208.57L42.06,-195.40L20.21,-188.36L4.40,-192.22L-3.06,-207.94L6.04,-224.50ZM161.40,-176.44L161.40,-176.44L158.73,-194.44L149.38,-192.90L139.23,-197.87L137.21,-213.06L136.23,-282.57L156.92,-282.86L156.70,-298.90L136.01,-298.61L135.42,-340.46L114.50,-340.16L115.09,-298.32L97.88,-298.08L98.11,-282.04L115.31,-282.28L116.29,-212.77L121.47,-183.65L145.44,-173.98ZM210.03,-201.74L197.38,-233.65L287.11,-234.94L288.16,-243.32L273.69,-287.41L231.50,-304.81L190.72,-286.93L175.99,-238.81L192.07,-191.13L233.33,-174.40L267.73,-185.08L283.28,-210.23L266.84,-220.17L254.46,-199.31L234.27,-192.21ZM197.84,-250.42L210.58,-278.28L231.73,-287.06L255.59,-277.31L265.49,-251.37ZM-814.24,44.94L-758.68,44.16L-697.86,22.06L-678.59,-41.16L-700.94,-103.93L-764.06,-123.18L-816.60,-122.44ZM-792.43,25.10L-794.24,-102.99L-763.78,-103.42L-719.20,-91.21L-701.82,-41.05L-715.83,8.86L-761.28,24.67ZM-627.78,19.32L-640.43,-12.59L-550.69,-13.87L-549.65,-22.26L-564.12,-66.35L-606.31,-83.75L-647.08,-65.86L-661.82,-17.75L-645.74,29.93L-604.47,46.66L-570.08,35.98L-554.53,10.83L-570.96,0.89L-583.35,21.75L-603.54,28.85ZM-639.97,-29.36L-627.23,-57.22L-606.08,-66.00L-582.22,-56.25L-572.32,-30.31ZM-514.31,3.26L-531.97,11.82L-519.80,35.38L-483.84,45.09L-449.79,36.10L-434.54,6.93L-444.29,-17.75L-464.81,-27.92L-493.09,-35.15L-508.85,-41.20L-514.12,-50.79L-507.56,-62.80L-487.90,-67.46L-468.88,-62.56L-460.52,-47.29L-443.04,-55.84L-453.56,-75.94L-487.36,-85.34L-520.59,-76.31L-534.51,-48.15L-524.91,-26.08L-503.79,-16.37L-473.89,-8.91L-459.76,-2.06L-455.89,9.08L-465.03,23.26L-483.38,27.25L-505.71,20.25ZM-397.94,-102.04L-390.49,-110.43L-390.64,-122.25L-398.47,-130.61L-409.22,-130.46L-416.60,-121.91L-416.44,-110.10L-408.69,-101.89ZM-390.90,38.98L-392.61,-81.90L-413.53,-81.61L-411.83,39.28ZM-314.43,88.49L-271.38,69.71L-261.53,29.26L-263.12,-83.73L-281.71,-83.46L-281.48,-67.19L-295.40,-82.44L-316.68,-88.19L-355.67,-69.44L-368.63,-22.24L-354.35,24.58L-314.84,42.22L-296.18,37.50L-282.52,24.67L-282.45,33.54L-289.47,60.70L-314.19,70.45L-333.62,65.27L-341.47,48.99L-358.10,56.89L-347.24,78.99ZM-315.24,-70.41L-291.97,-58.76L-280.64,-23.46L-290.09,12.12L-313.91,24.43L-337.44,12.79L-347.28,-22.52L-338.44,-58.11ZM-231.54,36.74L-210.61,36.45L-211.54,-29.34L-202.90,-60.53L-179.40,-71.60L-159.68,-62.81L-153.66,-38.53L-152.61,35.63L-131.69,35.34L-132.74,-38.82L-141.17,-75.58L-175.40,-89.69L-197.93,-84.39L-214.16,-66.98L-214.41,-84.41L-233.24,-84.15ZM-76.81,11.56L-89.46,-20.35L0.28,-21.63L1.32,-30.01L-13.15,-74.10L-55.34,-91.50L-96.11,-73.62L-110.85,-25.50L-94.77,22.18L-53.50,38.91L-19.11,28.22L-3.56,3.07L-19.99,-6.87L-32.38,13.99L-52.57,21.10ZM-89.00,-37.11L-76.26,-64.97L-55.11,-73.75L-31.25,-64.00L-21.35,-38.07ZM74.29,-72.98L90.08,-68.00L96.10,-85.76L75.52,-93.22L55.63,-86.75L41.96,-67.09L41.66,-88.01L22.83,-87.75L24.52,31.96L45.46,32.84L44.54,-32.48L51.78,-61.74ZM126.16,-5.75L108.50,2.81L120.67,26.36L156.63,36.08L190.69,27.09L205.93,-2.09L196.18,-26.76L175.67,-36.94L147.38,-44.16L131.62,-50.22L126.35,-59.80L132.91,-71.82L152.57,-76.47L171.59,-71.57L179.95,-56.30L197.44,-64.85L186.92,-84.96L153.12,-94.35L119.89,-85.32L105.96,-57.16L115.56,-35.10L136.68,-25.38L166.58,-17.92L180.72,-11.07L184.58,0.07L175.44,14.24L157.09,18.24L134.76,11.23ZM307.16,-111.97L314.61,-120.35L314.46,-132.17L306.63,-140.54L295.89,-140.39L288.50,-131.83L288.66,-120.02L296.42,-111.82ZM314.20,29.06L312.50,-91.83L291.57,-91.53L293.28,29.36ZM356.55,-8.99L338.89,-0.44L351.06,23.12L387.02,32.84L421.07,23.85L436.31,-5.33L426.57,-30.00L406.05,-40.18L377.76,-47.40L362.01,-53.46L356.74,-63.04L363.29,-75.06L382.96,-79.72L401.98,-74.81L410.34,-59.55L427.82,-68.10L417.30,-88.20L383.50,-97.59L350.27,-88.56L336.34,-60.40L345.95,-38.34L367.07,-28.63L396.97,-21.17L411.10,-14.31L414.97,-3.17L405.83,11.00L387.48,14.99L365.15,7.99ZM596.31,-56.00L528.43,-34.13L514.97,-5.03L527.80,22.24L557.43,30.42L579.01,25.91L598.64,11.07L598.75,25.06L618.28,24.78L617.21,-53.20L605.70,-88.54L569.35,-100.21L536.92,-91.80L521.43,-67.99L538.17,-58.02L548.56,-76.54L567.46,-83.10L587.89,-77.43ZM596.57,-37.50L596.99,-6.90L582.38,6.27L560.53,13.31L544.72,9.45L537.25,-6.28L546.36,-22.84ZM-398.77,248.37L-374.97,155.25L-350.41,247.69L-329.26,247.39L-294.41,129.71L-312.39,124.38L-339.41,219.86L-365.13,126.98L-386.29,127.28L-409.82,223.41L-437.93,126.15L-457.14,132.00L-420.39,248.67ZM-249.04,223.26L-261.69,191.35L-171.95,190.07L-170.91,181.68L-185.37,137.59L-227.57,120.19L-268.34,138.08L-283.08,186.19L-266.99,233.87L-225.73,250.61L-191.33,239.92L-175.79,214.77L-192.22,204.83L-204.61,225.69L-224.79,232.79ZM-261.22,174.58L-248.48,146.72L-227.34,137.95L-203.47,147.69L-193.57,173.63ZM-129.13,77.15L-150.05,77.45L-147.69,244.83L-129.10,244.57L-129.33,228.30L-115.81,243.83L-94.83,249.29L-55.83,230.54L-42.86,183.33L-57.16,136.52L-96.66,118.87L-115.32,123.61L-128.29,136.44ZM-96.28,231.53L-119.54,219.88L-130.88,184.59L-121.44,149.00L-97.62,136.68L-74.07,148.33L-64.23,183.66L-73.07,219.23ZM-7.71,205.40L-25.37,213.96L-13.19,237.52L22.76,247.24L56.82,238.24L72.06,209.07L62.31,184.39L41.80,174.22L13.51,166.99L-2.25,160.94L-7.52,151.35L-0.96,139.34L18.70,134.68L37.72,139.58L46.08,154.85L63.57,146.30L53.05,126.20L19.25,116.80L-13.98,125.83L-27.91,153.99L-18.30,176.06L2.81,185.77L32.71,193.23L46.85,200.09L50.71,211.23L41.57,225.40L23.22,229.39L0.90,222.39ZM108.67,100.10L116.11,91.71L115.97,79.89L108.14,71.53L97.39,71.68L90.00,80.23L90.17,92.05L97.92,100.25ZM115.70,241.13L114.00,120.24L93.08,120.53L94.78,241.42ZM197.27,241.60L197.28,241.60L194.61,223.60L185.26,225.13L175.11,220.17L173.09,204.97L172.11,135.46L192.80,135.17L192.58,119.13L171.89,119.42L171.30,77.58L150.38,77.87L150.96,119.72L133.76,119.96L133.99,136.00L151.19,135.76L152.17,205.27L157.35,234.39L181.32,244.06ZM245.91,216.29L233.26,184.38L322.99,183.10L324.04,174.71L309.57,130.62L267.38,113.22L226.60,131.11L211.87,179.23L227.95,226.91L269.21,243.64L303.61,232.95L319.16,207.80L302.72,197.86L290.34,218.72L270.15,225.83ZM233.72,167.62L246.46,139.76L267.61,130.98L291.47,140.73L301.37,166.66Z" fill="#ffffff" stroke="#000000"/>
    <path d="M-412.21,-178.09L-453.94,-197.34L-467.99,-246.43L-454.64,-295.95L-414.43,-316.51L-381.80,-306.01L-365.95,-277.64L-346.64,-287.80L-367.49,-321.28L-414.73,-335.27L-472.73,-308.55L-491.44,-246.04L-470.73,-184.17L-411.90,-159.34L-365.24,-175.07L-345.82,-208.03L-365.00,-218.27L-381.50,-189.41ZM-295.73,-166.39L-298.40,-331.96L-319.09,-331.63L-316.43,-166.05ZM-252.38,-306.70L-245.03,-315.00L-245.20,-326.70L-252.96,-334.96L-263.59,-334.79L-270.88,-326.31L-270.70,-314.63L-263.01,-306.53ZM-245.14,-167.20L-247.06,-286.78L-267.76,-286.45L-265.84,-166.87ZM-216.32,-167.66L-195.58,-168.00L-196.57,-229.86L-191.42,-260.59L-167.22,-274.91L-150.93,-267.72L-145.28,-247.04L-144.02,-168.83L-123.32,-169.16L-124.44,-238.38L-117.46,-264.65L-94.74,-276.07L-77.03,-266.95L-72.73,-245.87L-71.51,-169.99L-50.82,-170.32L-52.15,-253.57L-61.89,-283.65L-90.57,-293.98L-112.07,-288.45L-128.17,-270.06L-140.53,-287.28L-162.41,-292.72L-184.05,-287.68L-199.30,-270.53L-199.57,-287.55L-218.20,-287.25ZM49.41,-252.16L-17.70,-230.39L-30.96,-201.58L-18.21,-174.62L11.11,-166.59L32.46,-171.10L51.85,-185.81L51.98,-171.98L71.30,-172.29L70.09,-249.43L58.63,-284.37L22.65,-295.84L-9.42,-287.46L-24.69,-263.87L-8.12,-254.04L2.13,-272.39L20.81,-278.91L41.03,-273.34ZM49.70,-233.86L50.17,-203.59L35.75,-190.53L14.15,-183.52L-1.50,-187.31L-8.92,-202.85L0.05,-219.25ZM153.83,-172.01L153.84,-172.02L151.16,-189.81L141.92,-188.28L131.86,-193.17L129.84,-208.20L128.73,-276.96L149.20,-277.29L148.94,-293.15L128.48,-292.82L127.81,-334.22L107.11,-333.89L107.78,-292.49L90.76,-292.22L91.02,-276.35L108.04,-276.62L109.14,-207.86L114.33,-179.06L138.05,-169.55ZM201.89,-197.14L189.32,-228.68L278.08,-230.13L279.10,-238.43L264.70,-282.02L222.93,-299.15L182.63,-281.37L168.15,-233.74L184.15,-186.61L225.00,-170.14L259.01,-180.78L274.34,-205.69L258.06,-215.49L245.85,-194.83L225.89,-187.76ZM189.74,-245.27L202.29,-272.86L223.19,-281.58L246.82,-271.99L256.66,-246.35ZM-810.87,48.93L-755.91,48.04L-695.78,26.06L-676.85,-36.52L-699.09,-98.57L-761.56,-117.49L-813.54,-116.65ZM-789.34,29.26L-791.37,-97.46L-761.25,-97.94L-717.12,-85.95L-699.83,-36.36L-713.59,13.04L-758.52,28.76ZM-626.47,23.21L-639.04,-8.33L-550.27,-9.78L-549.26,-18.08L-563.66,-61.67L-605.43,-78.80L-645.73,-61.02L-660.21,-13.39L-644.21,33.74L-603.35,50.21L-569.35,39.57L-554.02,14.66L-570.30,4.86L-582.51,25.52L-602.46,32.59ZM-638.62,-24.92L-626.07,-52.50L-605.17,-61.23L-581.54,-51.64L-571.70,-26.00ZM-514.25,7.10L-531.70,15.60L-519.61,38.88L-484.02,48.42L-450.35,39.46L-435.33,10.56L-445.02,-13.82L-465.34,-23.85L-493.34,-30.94L-508.94,-36.90L-514.17,-46.37L-507.70,-58.27L-488.26,-62.92L-469.44,-58.10L-461.14,-43.02L-443.86,-51.51L-454.31,-71.38L-487.76,-80.60L-520.61,-71.60L-534.34,-43.72L-524.79,-21.91L-503.88,-12.34L-474.29,-5.02L-460.29,1.73L-456.45,12.74L-465.46,26.78L-483.60,30.77L-505.71,23.88ZM-399.34,-97.31L-391.99,-105.61L-392.16,-117.31L-399.92,-125.57L-410.55,-125.40L-417.84,-116.92L-417.66,-105.23L-409.97,-97.14ZM-392.10,42.19L-394.02,-77.39L-414.72,-77.06L-412.79,42.52ZM-316.35,91.01L-273.80,72.35L-264.13,32.31L-265.93,-79.45L-284.32,-79.16L-284.07,-63.06L-297.86,-78.12L-318.92,-83.77L-357.46,-65.14L-370.18,-18.42L-355.96,27.87L-316.85,45.24L-298.40,40.53L-284.90,27.82L-284.82,36.59L-291.71,63.48L-316.14,73.17L-335.38,68.08L-343.17,51.99L-359.61,59.84L-348.82,81.68ZM-317.47,-66.18L-294.42,-54.70L-283.15,-19.80L-292.42,15.42L-315.96,27.64L-339.26,16.17L-349.06,-18.74L-340.39,-53.96ZM-234.45,39.66L-213.75,39.32L-214.80,-25.76L-206.32,-56.63L-183.09,-67.62L-163.56,-58.97L-157.56,-34.96L-156.38,38.40L-135.68,38.07L-136.86,-35.29L-145.28,-71.64L-179.17,-85.53L-201.44,-80.24L-217.47,-62.98L-217.74,-80.23L-236.37,-79.93ZM-81.44,14.44L-94.01,-17.10L-5.24,-18.55L-4.23,-26.85L-18.63,-70.43L-60.40,-87.56L-100.70,-69.79L-115.18,-22.16L-99.18,24.98L-58.33,41.45L-24.32,30.81L-8.99,5.90L-25.27,-3.91L-37.48,16.76L-57.43,23.83ZM-93.59,-33.69L-81.04,-61.27L-60.14,-70.00L-36.51,-60.40L-26.67,-34.77ZM67.87,-69.50L83.50,-64.60L89.42,-82.18L69.04,-89.52L49.38,-83.08L35.90,-63.61L35.56,-84.30L16.94,-84.00L18.84,34.41L39.56,35.25L38.52,-29.37L45.62,-58.33ZM119.32,-3.09L101.87,5.41L113.95,28.69L149.54,38.23L183.21,29.27L198.24,0.37L188.54,-24.02L168.23,-34.04L140.23,-41.13L124.63,-47.09L119.40,-56.56L125.86,-68.46L145.30,-73.11L164.13,-68.30L172.43,-53.21L189.71,-61.70L179.26,-81.57L145.81,-90.79L112.95,-81.79L99.23,-53.91L108.78,-32.10L129.69,-22.53L159.28,-15.21L173.27,-8.46L177.12,2.55L168.11,16.59L149.96,20.58L127.86,13.69ZM298.16,-108.53L305.51,-116.83L305.34,-128.53L297.58,-136.79L286.95,-136.62L279.66,-128.14L279.84,-116.45L287.53,-108.35ZM305.40,30.97L303.48,-88.61L282.78,-88.28L284.71,31.31ZM347.22,-6.76L329.77,1.74L341.85,25.02L377.45,34.56L411.11,25.60L426.14,-3.29L416.44,-27.68L396.13,-37.71L368.13,-44.80L352.53,-50.76L347.30,-60.23L353.76,-72.13L373.20,-76.77L392.03,-71.96L400.33,-56.87L417.61,-65.37L407.16,-85.23L373.71,-94.46L340.85,-85.46L327.13,-57.57L336.68,-35.77L357.59,-26.20L387.18,-18.88L401.18,-12.13L405.02,-1.11L396.01,12.92L377.87,16.91L355.76,10.03ZM584.31,-53.73L517.21,-31.96L503.94,-3.15L516.70,23.80L546.02,31.83L567.36,27.33L586.75,12.61L586.89,26.44L606.20,26.13L604.99,-51.01L593.54,-85.94L557.56,-97.41L525.49,-89.04L510.21,-65.45L526.79,-55.62L537.04,-73.96L555.72,-80.48L575.94,-74.92ZM584.61,-35.44L585.08,-5.16L570.65,7.89L549.05,14.90L533.40,11.11L525.99,-4.43L534.96,-20.83ZM-399.46,249.34L-376.10,157.18L-351.63,248.57L-330.70,248.23L-296.46,131.74L-314.26,126.51L-340.80,221.02L-366.43,129.19L-387.36,129.53L-410.44,224.67L-438.44,128.51L-457.44,134.33L-420.85,249.68ZM-251.39,224.20L-263.97,192.66L-175.20,191.21L-174.18,182.91L-188.58,139.33L-230.35,122.20L-270.66,139.97L-285.14,187.60L-269.13,234.74L-228.28,251.21L-194.27,240.57L-178.94,215.66L-195.22,205.86L-207.43,226.52L-227.39,233.59ZM-263.54,176.07L-250.99,148.49L-230.09,139.76L-206.46,149.36L-196.62,174.99ZM-133.06,79.43L-153.76,79.76L-151.09,245.34L-132.70,245.05L-132.96,228.95L-119.55,244.29L-98.79,249.64L-60.25,231.02L-47.51,184.30L-61.75,138.01L-100.86,120.63L-119.31,125.35L-132.12,138.07ZM-100.26,232.08L-123.29,220.61L-134.58,185.72L-125.31,150.49L-101.77,138.26L-78.45,149.73L-68.65,184.66L-77.32,219.87ZM-12.69,206.06L-30.14,214.56L-18.05,237.84L17.54,247.38L51.21,238.42L66.23,209.52L56.54,185.13L36.22,175.11L8.22,168.02L-7.38,162.06L-12.61,152.59L-6.15,140.69L13.29,136.04L32.12,140.86L40.42,155.94L57.70,147.45L47.25,127.58L13.80,118.36L-19.05,127.36L-32.78,155.24L-23.23,177.05L-2.32,186.62L27.27,193.94L41.27,200.69L45.11,211.70L36.10,225.74L17.96,229.73L-4.15,222.84ZM102.22,101.65L109.57,93.35L109.40,81.65L101.64,73.39L91.01,73.56L83.72,82.04L83.90,93.72L91.59,101.82ZM109.46,241.15L107.54,121.57L86.84,121.90L88.77,241.48ZM190.16,241.46L190.16,241.45L187.49,223.65L178.24,225.19L168.19,220.30L166.16,205.27L165.06,136.51L185.52,136.18L185.27,120.32L164.80,120.65L164.14,79.25L143.44,79.58L144.10,120.98L127.09,121.25L127.34,137.12L144.36,136.85L145.47,205.61L150.65,234.41L174.38,243.92ZM238.22,216.33L225.64,184.78L314.41,183.34L315.43,175.04L301.03,131.45L259.25,114.32L218.95,132.10L204.47,179.73L220.48,226.86L261.33,243.33L295.33,232.69L310.66,207.78L294.39,197.98L282.17,218.64L262.22,225.71ZM226.06,168.20L238.61,140.61L259.52,131.89L283.14,141.48L292.99,167.12Z" fill="#ffffff" stroke="#000000"/>
    <path d="M-413.49,-172.51L-454.81,-191.46L-468.80,-240.00L-455.70,-289.00L-415.97,-309.42L-383.67,-299.10L-367.94,-271.06L-348.85,-281.15L-369.54,-314.23L-416.30,-327.97L-473.62,-301.43L-491.99,-239.56L-471.39,-178.40L-413.15,-153.96L-367.03,-169.61L-347.89,-202.26L-366.88,-212.35L-383.14,-183.76ZM-298.26,-161.16L-301.22,-324.93L-321.69,-324.56L-318.73,-160.79ZM-255.66,-300.03L-248.40,-308.26L-248.59,-319.83L-256.29,-327.99L-266.80,-327.80L-274.00,-319.39L-273.79,-307.84L-266.17,-299.84ZM-248.22,-162.07L-250.36,-280.35L-270.83,-279.98L-268.69,-161.70ZM-219.71,-162.58L-199.19,-162.95L-200.30,-224.14L-195.26,-254.55L-171.36,-268.76L-155.23,-261.68L-149.60,-241.24L-148.20,-163.88L-127.73,-164.25L-128.97,-232.71L-122.12,-258.71L-99.67,-270.05L-82.13,-261.06L-77.84,-240.22L-76.48,-165.17L-56.01,-165.54L-57.50,-247.89L-67.19,-277.62L-95.58,-287.78L-116.83,-282.26L-132.72,-264.04L-144.98,-281.05L-166.64,-286.39L-188.03,-281.35L-203.08,-264.36L-203.38,-281.20L-221.81,-280.86ZM42.96,-246.69L-23.38,-225.02L-36.44,-196.50L-23.77,-169.86L5.25,-161.97L26.35,-166.47L45.51,-181.07L45.66,-167.38L64.77,-167.73L63.42,-244.03L52.02,-278.56L16.41,-289.84L-15.30,-281.49L-30.36,-258.12L-13.94,-248.44L-3.84,-266.60L14.62,-273.09L34.63,-267.62ZM43.28,-228.59L43.81,-198.65L29.57,-185.70L8.22,-178.73L-7.27,-182.44L-14.63,-197.80L-5.79,-214.04ZM146.41,-167.62L146.41,-167.62L143.73,-185.22L134.59,-183.68L124.64,-188.50L122.60,-203.36L121.37,-271.37L141.62,-271.74L141.33,-287.43L121.09,-287.07L120.35,-328.01L99.88,-327.64L100.62,-286.70L83.78,-286.39L84.07,-270.70L100.90,-271.00L102.13,-202.99L107.32,-174.52L130.80,-165.15ZM193.90,-192.57L181.39,-223.75L269.19,-225.35L270.18,-233.56L255.85,-276.65L214.50,-293.51L174.67,-275.85L160.44,-228.71L176.37,-182.12L216.81,-165.91L250.42,-176.50L265.54,-201.17L249.42,-210.83L237.38,-190.37L217.66,-183.34ZM181.78,-240.16L194.14,-267.46L214.80,-276.14L238.18,-266.69L247.97,-241.35ZM-807.37,52.84L-753.01,51.85L-693.58,29.99L-674.97,-31.95L-697.09,-93.28L-758.93,-111.87L-810.33,-110.94ZM-786.11,33.34L-788.37,-91.99L-758.58,-92.53L-714.90,-80.76L-697.71,-31.75L-711.21,17.14L-755.63,32.79ZM-625.02,27.03L-637.52,-4.14L-549.72,-5.75L-548.73,-13.96L-563.06,-57.05L-604.41,-73.91L-644.24,-56.25L-658.47,-9.11L-642.55,37.49L-602.11,53.70L-568.49,43.10L-553.38,18.43L-569.50,8.77L-581.53,29.23L-601.26,36.26ZM-637.13,-20.55L-624.78,-47.86L-604.12,-56.53L-580.73,-47.09L-570.94,-21.75ZM-514.05,10.87L-531.30,19.32L-519.30,42.32L-484.07,51.68L-450.79,42.75L-435.99,14.14L-445.62,-9.96L-465.73,-19.84L-493.44,-26.79L-508.89,-32.66L-514.08,-42.02L-507.71,-53.80L-488.49,-58.43L-469.86,-53.71L-461.62,-38.80L-444.54,-47.24L-454.92,-66.87L-488.03,-75.93L-520.51,-66.96L-534.02,-39.35L-524.54,-17.80L-503.84,-8.38L-474.55,-1.20L-460.70,5.45L-456.87,16.34L-465.76,30.24L-483.69,34.22L-505.57,27.46ZM-400.60,-92.63L-393.35,-100.86L-393.54,-112.42L-401.23,-120.58L-411.75,-120.39L-418.94,-111.99L-418.73,-100.43L-411.11,-92.44ZM-393.16,45.34L-395.30,-72.94L-415.77,-72.57L-413.63,45.71ZM-318.13,93.48L-276.08,74.94L-266.60,35.31L-268.60,-75.23L-286.80,-74.90L-286.51,-58.98L-300.19,-73.85L-321.03,-79.39L-359.11,-60.89L-371.61,-14.65L-357.44,31.10L-318.72,48.21L-300.48,43.51L-287.16,30.91L-287.06,39.59L-293.82,66.19L-317.97,75.83L-337.01,70.84L-344.75,54.93L-360.99,62.73L-350.28,84.31ZM-319.56,-62.00L-296.74,-50.69L-285.52,-16.19L-294.62,18.66L-317.88,30.80L-340.95,19.50L-350.71,-15.01L-342.20,-49.87ZM-237.23,42.52L-216.76,42.15L-217.92,-22.22L-209.60,-52.78L-186.65,-63.70L-167.31,-55.17L-161.32,-31.44L-160.01,41.12L-139.54,40.75L-140.85,-31.81L-149.25,-67.74L-182.80,-81.42L-204.82,-76.14L-220.64,-59.04L-220.95,-76.09L-239.37,-75.76ZM-85.93,17.27L-98.43,-13.90L-10.63,-15.51L-9.64,-23.72L-23.97,-66.80L-65.33,-83.66L-105.16,-66.00L-119.38,-18.86L-103.46,27.73L-63.02,43.94L-29.40,33.35L-14.29,8.68L-30.41,-0.98L-42.45,19.48L-62.17,26.51ZM-98.05,-30.31L-85.69,-57.62L-65.03,-66.29L-41.64,-56.85L-31.86,-31.51ZM61.59,-66.05L77.05,-61.24L82.88,-78.63L62.70,-85.86L43.27,-79.45L29.97,-60.16L29.60,-80.63L11.18,-80.30L13.29,36.83L33.79,37.61L32.63,-26.30L39.60,-54.96ZM112.61,-0.47L95.36,7.98L107.36,30.98L142.59,40.35L175.87,31.41L190.67,2.80L181.04,-21.30L160.93,-31.18L133.22,-38.13L117.77,-44.00L112.58,-53.36L118.95,-65.14L138.17,-69.77L156.80,-65.05L165.04,-50.14L182.12,-58.58L171.74,-78.21L138.63,-87.27L106.15,-78.30L92.64,-50.69L102.12,-29.14L122.82,-19.72L152.11,-12.54L165.96,-5.89L169.79,5.00L160.90,18.90L142.97,22.88L121.09,16.12ZM289.30,-105.11L296.55,-113.34L296.36,-124.91L288.66,-133.06L278.15,-132.87L270.96,-124.47L271.16,-112.92L278.78,-104.92ZM296.73,32.86L294.59,-85.42L274.12,-85.05L276.26,33.23ZM338.02,-4.55L320.78,3.90L332.78,26.90L368.00,36.27L401.29,27.33L416.09,-1.28L406.45,-25.38L386.34,-35.26L358.63,-42.21L343.19,-48.08L337.99,-57.43L344.36,-69.22L363.58,-73.85L382.22,-69.13L390.46,-54.22L407.53,-62.66L397.16,-82.29L364.05,-91.35L331.57,-82.38L318.05,-54.77L327.54,-33.22L348.24,-23.80L377.52,-16.62L391.38,-9.96L395.21,0.92L386.32,14.82L368.38,18.80L346.50,12.04ZM572.44,-51.48L506.11,-29.82L493.05,-1.29L505.72,25.35L534.74,33.23L555.84,28.73L574.99,14.14L575.15,27.82L594.26,27.47L592.90,-48.83L581.50,-83.36L545.89,-94.64L514.19,-86.28L499.13,-62.92L515.54,-53.24L525.64,-71.40L544.10,-77.88L564.12,-72.42ZM572.77,-33.39L573.30,-3.44L559.05,9.50L537.70,16.48L522.22,12.76L514.85,-2.60L523.69,-18.84ZM-400.03,250.25L-377.11,159.05L-352.72,249.39L-332.02,249.02L-298.38,133.73L-316.00,128.59L-342.06,222.12L-367.60,131.34L-388.30,131.72L-410.94,225.87L-438.83,130.81L-457.61,136.61L-421.19,250.63ZM-253.62,225.09L-266.12,193.92L-178.32,192.31L-177.33,184.10L-191.66,141.02L-233.02,124.16L-272.84,141.82L-287.07,188.96L-271.15,235.55L-230.71,251.76L-197.09,241.17L-181.98,216.50L-198.10,206.83L-210.14,227.30L-229.86,234.33ZM-265.74,177.51L-253.38,150.20L-232.72,141.53L-209.33,150.97L-199.55,176.31ZM-136.86,81.66L-157.34,82.03L-154.37,245.80L-136.18,245.47L-136.46,229.55L-123.18,244.70L-102.63,249.95L-64.55,231.45L-52.03,185.22L-66.21,139.46L-104.94,122.35L-123.18,127.06L-135.82,139.66ZM-104.12,232.58L-126.92,221.28L-138.16,186.79L-129.06,151.93L-105.80,139.78L-82.71,151.09L-72.94,185.61L-81.46,220.46ZM-17.55,206.67L-34.80,215.12L-22.80,238.12L12.43,247.48L45.71,238.55L60.51,209.94L50.88,185.84L30.77,175.96L3.06,169.00L-12.38,163.14L-17.58,153.78L-11.21,142.00L8.01,137.37L26.64,142.09L34.88,156.99L51.96,148.56L41.58,128.93L8.47,119.87L-24.00,128.84L-37.52,156.45L-28.04,178.00L-7.33,187.42L21.95,194.60L35.81,201.25L39.64,212.14L30.75,226.04L12.81,230.02L-9.07,223.26ZM95.90,103.17L103.16,94.94L102.97,83.37L95.27,75.22L84.76,75.41L77.56,83.81L77.77,95.37L85.39,103.36ZM103.34,241.14L101.20,122.86L80.73,123.23L82.87,241.51ZM183.16,241.28L183.17,241.28L180.48,223.68L171.34,225.22L161.39,220.40L159.35,205.54L158.12,137.53L178.37,137.16L178.08,121.47L157.84,121.83L157.10,80.89L136.63,81.26L137.37,122.20L120.54,122.51L120.82,138.20L137.65,137.90L138.88,205.91L144.07,234.39L167.56,243.75ZM230.65,216.33L218.15,185.16L305.95,183.55L306.94,175.34L292.60,132.25L251.25,115.39L211.42,133.05L197.19,180.19L213.12,226.79L253.56,243.00L287.17,232.40L302.29,207.73L286.17,198.07L274.13,218.53L254.41,225.56ZM218.53,168.75L230.89,141.44L251.55,132.77L274.94,142.21L284.72,167.55Z" fill="#ffffff" stroke="#000000"/>
    <path d="M-414.63,-166.98L-455.54,-185.65L-469.47,-233.62L-456.61,-282.11L-417.35,-302.38L-385.39,-292.24L-369.78,-264.54L-350.92,-274.56L-371.45,-307.23L-417.72,-320.73L-474.36,-294.37L-492.41,-233.14L-471.91,-172.70L-414.26,-148.64L-368.68,-164.21L-349.81,-196.53L-368.61,-206.48L-384.64,-178.17ZM-300.65,-155.99L-303.90,-317.95L-324.15,-317.55L-320.89,-155.58ZM-258.79,-293.42L-251.63,-301.57L-251.84,-313.01L-259.47,-321.06L-269.87,-320.85L-276.96,-312.53L-276.74,-301.10L-269.19,-293.21ZM-251.16,-156.98L-253.51,-273.96L-273.75,-273.55L-271.40,-156.58ZM-222.97,-157.55L-202.67,-157.96L-203.89,-218.47L-198.97,-248.55L-175.35,-262.65L-159.39,-255.69L-153.78,-235.48L-152.24,-158.97L-131.99,-159.38L-133.36,-227.09L-126.63,-252.82L-104.46,-264.08L-87.10,-255.22L-82.81,-234.62L-81.32,-160.40L-61.07,-160.80L-62.71,-242.24L-72.35,-271.63L-100.44,-281.62L-121.45,-276.12L-137.13,-258.07L-149.29,-274.87L-170.72,-280.10L-191.87,-275.08L-206.72,-258.25L-207.05,-274.89L-225.27,-274.53ZM36.65,-241.25L-28.91,-219.69L-41.77,-191.46L-29.19,-165.13L-0.47,-157.39L20.39,-161.89L39.30,-176.36L39.48,-162.83L58.38,-163.21L56.89,-238.67L45.55,-272.80L10.31,-283.88L-21.03,-275.55L-35.88,-252.42L-19.63,-242.87L-9.68,-260.85L8.57,-267.31L28.38,-261.94ZM37.01,-223.35L37.59,-193.74L23.53,-180.91L2.43,-173.97L-12.89,-177.62L-20.21,-192.79L-11.50,-208.87ZM139.12,-163.26L139.13,-163.26L136.44,-180.67L127.40,-179.12L117.55,-183.87L115.51,-198.56L114.15,-265.82L134.18,-266.23L133.86,-281.75L113.84,-281.35L113.03,-321.84L92.78,-321.43L93.60,-280.94L76.95,-280.60L77.26,-265.08L93.91,-265.42L95.26,-198.16L100.45,-170.00L123.69,-160.79ZM186.04,-188.03L173.61,-218.84L260.44,-220.61L261.40,-228.73L247.15,-271.31L206.21,-287.90L166.86,-270.36L152.88,-223.71L168.72,-177.66L208.75,-161.71L241.98,-172.25L256.87,-196.68L240.91,-206.20L229.05,-185.94L209.55,-178.95ZM173.96,-235.07L186.13,-262.10L206.54,-270.72L229.69,-261.43L239.42,-236.39ZM-803.74,56.67L-749.97,55.59L-691.24,33.85L-672.96,-27.45L-694.96,-88.06L-756.15,-106.32L-806.99,-105.30ZM-782.74,37.34L-785.24,-86.61L-755.77,-87.20L-712.55,-75.64L-695.44,-27.20L-708.71,21.18L-752.60,36.74ZM-623.44,30.78L-635.87,-0.02L-549.03,-1.79L-548.07,-9.91L-562.33,-52.49L-603.26,-69.08L-642.62,-51.54L-656.60,-4.89L-640.75,41.16L-600.73,57.11L-567.50,46.57L-552.60,22.14L-568.57,12.61L-580.43,32.88L-599.92,39.87ZM-635.52,-16.25L-623.35,-43.28L-602.94,-51.90L-579.79,-42.61L-570.06,-17.57ZM-513.73,14.58L-530.77,22.97L-518.85,45.69L-484.00,54.89L-451.09,45.99L-436.51,17.66L-446.09,-6.16L-466.00,-15.89L-493.42,-22.71L-508.70,-28.48L-513.86,-37.72L-507.58,-49.39L-488.58,-54.01L-470.15,-49.38L-461.97,-34.65L-445.10,-43.03L-455.40,-62.42L-488.16,-71.31L-520.26,-62.38L-533.58,-35.05L-524.15,-13.75L-503.66,-4.48L-474.68,2.57L-460.97,9.12L-457.16,19.88L-465.92,33.64L-483.65,37.62L-505.30,30.97ZM-401.72,-88.00L-394.57,-96.16L-394.78,-107.60L-402.40,-115.65L-412.80,-115.44L-419.90,-107.12L-419.68,-95.69L-412.12,-87.79ZM-394.09,48.43L-396.45,-68.54L-416.69,-68.14L-414.34,48.84ZM-319.80,95.90L-278.25,77.47L-268.95,38.26L-271.15,-71.06L-289.14,-70.70L-288.83,-54.95L-302.38,-69.63L-323.00,-75.07L-360.63,-56.70L-372.90,-10.95L-358.80,34.28L-320.47,51.12L-302.44,46.44L-289.29,33.95L-289.17,42.53L-295.81,68.86L-319.67,78.44L-338.51,73.54L-346.20,57.82L-362.24,65.57L-351.60,86.89ZM-321.51,-57.88L-298.92,-46.73L-287.76,-12.64L-296.69,21.85L-319.67,33.90L-342.51,22.77L-352.23,-11.34L-343.89,-45.83ZM-239.88,45.33L-219.64,44.92L-220.92,-18.74L-212.74,-48.97L-190.07,-59.82L-170.92,-51.43L-164.96,-27.96L-163.52,43.80L-143.27,43.39L-144.71,-28.37L-153.09,-63.89L-186.30,-77.35L-208.07,-72.09L-223.67,-55.14L-224.01,-72.01L-242.23,-71.64ZM-90.30,20.06L-102.72,-10.74L-15.89,-12.51L-14.93,-20.63L-29.19,-63.21L-70.12,-79.80L-109.48,-62.26L-123.45,-15.61L-107.61,30.44L-67.58,46.39L-34.36,35.85L-19.46,11.42L-35.42,1.90L-47.29,22.16L-66.78,29.15ZM-102.38,-26.97L-90.21,-54.00L-69.79,-62.62L-46.64,-53.33L-36.91,-28.29ZM55.44,-62.63L70.74,-57.91L76.47,-75.13L56.50,-82.23L37.29,-75.85L24.18,-56.75L23.77,-76.99L5.55,-76.63L7.88,39.21L28.15,39.94L26.88,-23.27L33.71,-51.62ZM106.02,2.12L88.98,10.51L100.90,33.23L135.75,42.43L168.66,33.53L183.24,5.20L173.66,-18.62L153.75,-28.35L126.33,-35.17L111.05,-40.94L105.89,-50.18L112.17,-61.85L131.17,-66.47L149.60,-61.84L157.78,-47.11L174.65,-55.49L164.35,-74.88L131.59,-83.78L99.49,-74.84L86.17,-47.51L95.60,-26.21L116.09,-16.94L145.07,-9.89L158.78,-3.34L162.59,7.42L153.83,21.18L136.10,25.15L114.45,18.51ZM280.56,-101.72L287.72,-109.88L287.51,-121.32L279.88,-129.37L269.48,-129.16L262.39,-120.83L262.61,-109.41L270.16,-101.51ZM288.19,34.71L285.84,-82.26L265.60,-81.86L267.95,35.12ZM328.95,-2.36L311.91,6.02L323.83,28.75L358.68,37.94L391.59,29.04L406.17,0.72L396.59,-23.10L376.68,-32.83L349.26,-39.65L333.98,-45.42L328.82,-54.67L335.10,-66.33L354.10,-70.95L372.53,-66.32L380.71,-51.60L397.58,-59.97L387.28,-79.37L354.52,-88.26L322.42,-79.32L309.10,-51.99L318.53,-30.70L339.02,-21.42L368.00,-14.38L381.71,-7.83L385.52,2.93L376.76,16.70L359.02,20.67L337.38,14.03ZM560.70,-49.25L495.14,-27.69L482.28,0.55L494.86,26.87L523.58,34.61L544.44,30.12L563.35,15.65L563.54,29.18L582.43,28.80L580.94,-46.66L569.60,-80.79L534.36,-91.87L503.02,-83.55L488.17,-60.42L504.43,-50.87L514.38,-68.85L532.62,-75.30L552.43,-69.94ZM561.06,-31.35L561.65,-1.74L547.58,11.09L526.48,18.03L511.16,14.39L503.84,-0.79L512.55,-16.87ZM-400.48,251.10L-377.99,160.86L-353.69,250.16L-333.22,249.75L-300.18,135.66L-317.61,130.61L-343.21,223.17L-368.64,133.44L-389.11,133.85L-411.32,227.01L-439.09,133.05L-457.65,138.83L-421.40,251.52ZM-255.73,225.93L-268.16,195.12L-181.32,193.36L-180.36,185.24L-194.62,142.66L-235.55,126.06L-274.91,143.61L-288.89,190.26L-273.04,236.31L-233.02,252.26L-199.79,241.72L-184.89,217.29L-200.86,207.76L-212.72,228.02L-232.21,235.02ZM-267.81,178.89L-255.64,151.86L-235.23,143.24L-212.08,152.54L-202.35,177.58ZM-140.54,83.84L-160.79,84.25L-157.53,246.22L-139.54,245.85L-139.85,230.11L-126.68,245.06L-106.35,250.22L-68.72,231.85L-56.44,186.09L-70.55,140.87L-108.88,124.02L-126.91,128.71L-139.39,141.21ZM-107.86,233.04L-130.43,221.91L-141.61,187.82L-132.68,153.32L-109.70,141.27L-86.85,152.40L-77.12,186.53L-85.47,221.00ZM-22.29,207.24L-39.33,215.63L-27.42,238.35L7.44,247.55L40.34,238.65L54.92,210.32L45.34,186.50L25.43,176.77L-1.98,169.95L-17.27,164.18L-22.43,154.94L-16.15,143.27L2.85,138.65L21.29,143.28L29.47,158.01L46.34,149.63L36.04,130.24L3.27,121.35L-28.83,130.28L-42.14,157.61L-32.72,178.91L-12.23,188.18L16.75,195.23L30.47,201.78L34.28,212.54L25.51,226.30L7.78,230.28L-13.87,223.63ZM89.71,104.66L96.87,96.50L96.65,85.06L89.03,77.01L78.63,77.22L71.53,85.54L71.76,96.97L79.31,104.87ZM97.34,241.09L94.99,124.12L74.74,124.52L77.10,241.50ZM176.28,241.07L176.29,241.07L173.60,223.67L164.56,225.21L154.71,220.46L152.67,205.77L151.32,138.51L171.34,138.11L171.02,122.59L151.00,122.99L150.19,82.50L129.94,82.90L130.76,123.40L114.11,123.73L114.42,139.25L131.07,138.92L132.42,206.18L137.61,234.33L160.85,243.55ZM223.20,216.30L210.77,185.49L297.60,183.73L298.57,175.61L284.31,133.03L243.38,116.43L204.02,133.98L190.04,180.63L205.88,226.68L245.91,242.63L279.14,232.09L294.03,207.66L278.07,198.13L266.21,218.39L246.71,225.39ZM211.12,169.27L223.29,142.23L243.70,133.61L266.85,142.91L276.58,167.95Z" fill="#ffffff" stroke="#000000"/>
    <path d="M-906.35,492L-906.35,469.28L-898.22,492L-894.99,492L-886.86,469.28L-886.86,492L-883.25,492L-883.25,464.64L-888.22,464.64L-896.55,487.33L-904.68,464.64L-909.96,464.64L-909.96,492ZM-865.67,478.75L-876.82,482.17L-879.09,486.89L-877.05,491.38L-872.23,492.78L-868.69,492.09L-865.45,489.71L-865.46,492L-862.27,492L-862.27,479.25L-864.06,473.45L-869.98,471.46L-875.30,472.76L-877.88,476.62L-875.17,478.28L-873.43,475.28L-870.33,474.25L-867.00,475.23ZM-865.67,481.77L-865.68,486.77L-868.09,488.89L-871.68,489.99L-874.26,489.33L-875.44,486.74L-873.91,484.05ZM-857.12,492L-853.70,492L-853.70,481.25L-852.22,476.17L-848.35,474.41L-845.15,475.90L-844.22,479.88L-844.22,492L-840.80,492L-840.80,479.88L-842.09,473.85L-847.66,471.47L-851.35,472.28L-854.04,475.09L-854.04,472.24L-857.12,472.24ZM-833.34,468.94L-832.11,467.58L-832.10,465.65L-833.36,464.27L-835.12,464.27L-836.35,465.65L-836.35,467.58L-835.10,468.94ZM-832.52,492L-832.52,472.24L-835.94,472.24L-835.94,492ZM-818.31,468.12L-817.85,465.29L-820.94,464.71L-825.30,466.41L-826.70,471.29L-826.70,472.24L-829.67,472.24L-829.67,474.86L-826.70,474.86L-826.70,492L-823.40,492L-823.40,474.86L-819.56,474.86L-819.56,472.24L-823.40,472.24L-823.40,471.21L-822.75,468.65L-820.52,467.74ZM-807.97,471.46L-814.77,474.29L-817.39,482.12L-814.77,489.95L-807.97,492.78L-801.17,489.95L-798.55,482.12L-801.16,474.29ZM-807.97,489.87L-812.08,488.06L-813.90,482.12L-812.08,476.18L-807.97,474.37L-803.85,476.18L-802.04,482.12L-803.85,488.06ZM-795.03,492L-791.61,492L-791.61,481.25L-790.13,476.17L-786.26,474.41L-783.06,475.90L-782.13,479.88L-782.13,492L-778.71,492L-778.71,479.88L-780.00,473.85L-785.56,471.47L-789.26,472.28L-791.95,475.09L-791.95,472.24L-795.03,472.24ZM-765.45,492.27L-765.45,492.26L-765.85,489.32L-767.38,489.55L-769.03,488.71L-769.32,486.22L-769.32,474.86L-765.94,474.86L-765.94,472.24L-769.32,472.24L-769.32,465.40L-772.74,465.40L-772.74,472.24L-775.55,472.24L-775.55,474.86L-772.74,474.86L-772.74,486.22L-771.96,491.00L-768.07,492.63ZM-737.50,487.93L-737.50,478.13L-749.05,478.13L-749.05,481.31L-740.99,481.31L-740.97,486.22L-748.63,489.75L-755.95,486.41L-758.55,478.32L-756.06,470.17L-749.21,466.88L-744.27,468.25L-741.30,473.01L-738.24,471.11L-741.44,465.93L-749.13,463.79L-758.98,468.04L-762.42,478.32L-758.78,488.60L-748.74,492.86ZM-724.35,474.77L-721.78,475.62L-720.76,472.73L-724.11,471.47L-727.37,472.48L-729.65,475.66L-729.65,472.24L-732.73,472.24L-732.73,491.81L-729.31,492L-729.31,481.32L-728.06,476.56ZM-710.01,471.46L-716.81,474.29L-719.42,482.12L-716.81,489.95L-710.01,492.78L-703.20,489.95L-700.58,482.12L-703.20,474.29ZM-710.01,489.87L-714.12,488.06L-715.93,482.12L-714.12,476.18L-710.01,474.37L-705.89,476.18L-704.07,482.12L-705.89,488.06ZM-688.58,492.27L-688.58,492.26L-688.97,489.32L-690.51,489.55L-692.15,488.71L-692.45,486.22L-692.45,474.86L-689.07,474.86L-689.07,472.24L-692.45,472.24L-692.45,465.40L-695.87,465.40L-695.87,472.24L-698.68,472.24L-698.68,474.86L-695.87,474.86L-695.87,486.22L-695.09,491.00L-691.19,492.63ZM-680.57,488.24L-682.57,483.00L-667.90,482.99L-667.71,481.63L-669.97,474.39L-676.83,471.45L-683.53,474.28L-686.05,482.11L-683.53,489.93L-676.83,492.76L-671.18,491.10L-668.58,487.02L-671.25,485.36L-673.32,488.74L-676.63,489.86ZM-682.45,480.26L-680.31,475.73L-676.83,474.35L-672.95,476.00L-671.40,480.26ZM-661.99,485.88L-664.90,487.24L-662.96,491.11L-657.11,492.78L-651.52,491.39L-648.97,486.66L-650.50,482.61L-653.83,480.90L-658.44,479.65L-661.00,478.62L-661.84,477.05L-660.74,475.10L-657.52,474.38L-654.42,475.23L-653.09,477.74L-650.21,476.38L-651.88,473.07L-657.39,471.46L-662.84,472.86L-665.18,477.43L-663.66,481.06L-660.23,482.69L-655.36,483.98L-653.07,485.13L-652.46,486.96L-653.99,489.26L-656.99,489.87L-660.63,488.67ZM-641.92,483.45L-638.72,483.45L-637.20,484.67L-633.14,492.30L-630.05,490.63L-634.16,483.45L-636.67,482.04L-634.62,480.06L-632.77,476.14L-631.66,475.64L-630.10,475.39L-630.56,472.24L-633.40,472.52L-635.30,474.17L-637.43,478.82L-638.72,480.60L-641.91,480.60L-641.91,464.64L-643.66,464.64L-645.32,464.64L-645.33,492L-641.92,492ZM-625.58,492.01L-615.04,492.01L-607.42,490.45L-604.53,484.21L-606.06,480.03L-610.31,477.70L-606.80,475.27L-605.82,471.62L-608.58,466.13L-615.58,464.63L-625.58,464.63ZM-621.94,476.42L-621.95,467.89L-616.40,467.89L-611.64,468.44L-609.62,472.08L-611.57,475.51L-615.93,476.42ZM-621.94,488.79L-621.94,479.64L-615.54,479.64L-610.64,480.53L-608.45,484.21L-610.32,488.02L-615.04,488.79ZM-592.40,471.46L-599.20,474.29L-601.81,482.12L-599.20,489.95L-592.40,492.78L-585.59,489.95L-582.97,482.12L-585.59,474.29ZM-592.40,489.87L-596.51,488.06L-598.32,482.12L-596.51,476.18L-592.40,474.37L-588.28,476.18L-586.46,482.12L-588.28,488.06ZM-571.27,471.46L-578.07,474.29L-580.68,482.12L-578.07,489.95L-571.27,492.78L-564.46,489.95L-561.85,482.12L-564.46,474.29ZM-571.27,489.87L-575.38,488.06L-577.19,482.12L-575.38,476.18L-571.27,474.37L-567.15,476.18L-565.33,482.12L-567.15,488.06ZM-554.82,483.45L-551.62,483.45L-550.10,484.67L-546.04,492.30L-542.96,490.63L-547.06,483.45L-549.57,482.04L-547.52,480.06L-545.67,476.14L-544.56,475.64L-543.00,475.39L-543.46,472.24L-546.31,472.52L-548.20,474.17L-550.34,478.82L-551.62,480.60L-554.82,480.60L-554.82,464.64L-556.56,464.64L-558.23,464.64L-558.23,492L-554.82,492Z"/>
</svg>