<?xml version="1.0"?>
<svg xmlns="http://www.w3.org/2000/svg" width="1920" height="1080" viewBox="-960 -540 1920 1080">
    <path d="M-785,-410L-765,-390L-815,-230L-835,-210L-735,-210L-685,-230L-655,-270L-665,-310L-695,-320L-675,-330L-645,-360L-655,-400L-705,-410ZM-785,-230L-735,-390L-725,-400L-705,-400L-685,-390L-685,-360L-705,-330L-735,-320L-755,-320L-755,-310L-725,-310L-705,-300L-695,-270L-715,-240L-755,-220L-775,-220ZM-455,-270L-465,-280L-515,-230L-525,-230L-465,-330L-475,-340L-495,-340L-535,-270L-575,-230L-585,-230L-595,-250L-545,-330L-545,-340L-565,-350L-595,-340L-645,-290L-635,-280L-585,-330L-575,-330L-625,-250L-615,-220L-595,-210L-575,-210L-545,-240L-545,-220L-535,-210L-525,-210L-505,-220ZM-345,-370L-335,-370L-325,-390L-325,-400L-345,-410L-355,-410L-365,-390L-365,-380ZM-455,-290L-445,-280L-395,-330L-385,-330L-445,-230L-445,-220L-435,-210L-415,-210L-395,-220L-345,-270L-355,-280L-405,-230L-415,-230L-355,-330L-355,-340L-375,-350L-405,-340ZM-315,-230L-225,-420L-295,-420L-295,-410L-265,-410L-345,-230L-345,-220L-325,-210L-295,-220L-245,-270L-255,-280L-305,-230ZM-145,-210L-135,-210L-115,-220L-65,-270L-75,-280L-125,-230L-135,-230L-45,-420L-115,-420L-115,-410L-85,-410L-115,-320L-125,-340L-165,-350L-215,-310L-235,-260L-225,-220L-205,-210L-185,-210L-155,-240L-155,-220ZM-185,-230L-195,-230L-205,-260L-185,-300L-155,-330L-135,-330L-125,-310L-125,-300L-155,-260ZM175,-270L165,-270L135,-220L75,-220L65,-230L85,-300L95,-310L135,-310L155,-290L155,-340L135,-320L95,-320L95,-330L115,-390L125,-400L175,-400L205,-360L215,-360L205,-420L165,-410L65,-410L85,-390L35,-230L5,-210L145,-210L165,-200ZM355,-340L345,-350L325,-320L315,-340L275,-350L225,-310L205,-260L215,-220L235,-210L255,-210L285,-240L285,-220L295,-210L325,-220L375,-270L365,-280L315,-230L305,-230ZM255,-230L245,-230L235,-260L255,-300L285,-330L305,-330L315,-310L315,-300L285,-260ZM375,-290L385,-280L435,-330L445,-330L385,-220L395,-210L415,-210L455,-290L485,-310L515,-310L525,-340L505,-350L485,-340L455,-300L445,-300L465,-330L465,-340L455,-350L425,-340ZM535,-230L585,-330L615,-330L615,-340L585,-340L605,-380L585,-380L575,-350L555,-340L535,-340L535,-330L555,-330L505,-230L505,-220L515,-210L535,-210L555,-220L605,-270L595,-280L545,-230ZM685,-410L645,-310L595,-220L605,-210L625,-210L665,-290L695,-320L715,-330L725,-320L675,-230L675,-220L685,-210L705,-210L725,-220L775,-270L765,-280L715,-230L705,-230L755,-310L755,-340L725,-350L695,-340L675,-320L725,-420L655,-420L655,-410Z" fill="#ffffff" stroke="#000000"/>
    <path d="M-808.29,-349.64L-787.21,-331.21L-826.00,-169.86L-844.43,-148.78L-745.66,-155.40L-697.59,-178.47L-670.61,-219.96L-683.13,-258.81L-713.43,-266.70L-694.34,-277.91L-666.69,-309.53L-679.22,-348.38L-729.27,-354.94ZM-796.37,-171.84L-757.58,-333.20L-748.36,-343.74L-728.60,-345.06L-708.19,-336.51L-706.20,-306.88L-723.97,-275.92L-752.94,-264.06L-772.70,-262.73L-772.03,-252.85L-742.40,-254.84L-721.98,-246.29L-710.12,-217.31L-727.89,-186.36L-766.07,-163.95L-785.83,-162.63ZM-473.05,-233.21L-483.59,-242.42L-529.67,-189.72L-539.55,-189.06L-486.90,-291.81L-497.44,-301.03L-517.20,-299.70L-552.07,-227.91L-588.93,-185.75L-598.81,-185.09L-610.01,-204.18L-565.92,-286.52L-566.59,-296.39L-587.00,-304.95L-615.97,-293.08L-662.05,-240.38L-651.51,-231.17L-605.43,-283.87L-595.56,-284.53L-639.65,-202.19L-627.78,-173.22L-607.37,-164.67L-587.61,-165.99L-559.96,-197.61L-558.64,-177.86L-548.10,-168.64L-538.22,-169.31L-519.13,-180.51ZM-371.02,-339.27L-361.14,-339.93L-352.58,-360.35L-353.25,-370.23L-373.66,-378.78L-383.54,-378.12L-392.10,-357.70L-391.43,-347.82ZM-474.37,-252.96L-463.83,-243.75L-417.76,-296.45L-407.88,-297.11L-460.52,-194.36L-459.86,-184.48L-449.32,-175.27L-429.56,-176.59L-410.47,-187.79L-364.39,-240.49L-374.93,-249.71L-421.01,-197.01L-430.89,-196.35L-378.24,-299.10L-378.91,-308.98L-399.32,-317.53L-428.30,-305.66ZM-332.11,-202.97L-255.79,-396.61L-324.94,-391.97L-324.28,-382.09L-294.64,-384.08L-361.74,-200.98L-361.08,-191.10L-340.66,-182.55L-311.69,-194.42L-265.62,-247.12L-276.16,-256.33L-322.23,-203.63ZM-162.86,-194.47L-152.99,-195.13L-133.89,-206.34L-87.81,-259.04L-98.35,-268.25L-144.43,-215.55L-154.31,-214.89L-77.99,-408.53L-147.14,-403.89L-146.47,-394.01L-116.84,-396.00L-140.51,-305.11L-151.72,-324.21L-191.89,-331.44L-238.63,-288.61L-255.08,-237.90L-242.55,-199.05L-222.13,-190.50L-202.37,-191.82L-174.73,-223.44L-173.40,-203.69ZM-203.70,-211.58L-213.58,-210.92L-225.44,-239.89L-208.34,-280.72L-180.69,-312.34L-160.93,-313.67L-149.73,-294.57L-149.07,-284.70L-176.05,-243.20ZM149.25,-274.93L139.38,-274.27L113.05,-222.89L53.79,-218.92L43.25,-228.13L58.37,-298.60L67.58,-309.14L107.09,-311.79L128.17,-293.36L124.86,-342.75L106.43,-321.67L66.92,-319.02L66.26,-328.90L82.04,-389.49L91.26,-400.03L140.64,-403.34L172.93,-365.82L182.80,-366.48L168.95,-425.08L130.10,-412.56L31.33,-405.93L52.41,-387.50L13.61,-226.15L-14.70,-204.40L123.59,-213.68L144.01,-205.12ZM322.42,-355.99L311.88,-365.21L294.11,-334.25L282.91,-353.35L242.73,-360.57L195.99,-317.75L179.55,-267.04L192.08,-228.19L212.49,-219.64L232.25,-220.96L259.90,-252.58L261.22,-232.83L271.76,-223.61L300.73,-235.47L346.81,-288.17L336.27,-297.39L290.19,-244.69L280.31,-244.03ZM230.92,-240.72L221.05,-240.05L209.18,-269.03L226.29,-309.86L253.94,-341.48L273.69,-342.81L284.89,-323.71L285.56,-313.83L258.57,-272.34ZM345.49,-307.93L356.03,-298.71L402.10,-351.42L411.98,-352.08L360.00,-239.45L370.54,-230.23L390.29,-231.56L424.51,-313.23L452.82,-334.97L482.45,-336.96L490.34,-367.25L469.92,-375.81L450.83,-364.60L423.85,-323.11L413.97,-322.44L431.74,-353.40L431.07,-363.28L420.53,-372.50L391.56,-360.63ZM507.50,-259.26L550.27,-361.35L579.90,-363.34L579.24,-373.21L549.61,-371.23L566.72,-412.06L546.96,-410.74L539.07,-380.44L519.98,-369.24L500.22,-367.92L500.88,-358.04L520.64,-359.36L477.87,-257.27L478.53,-247.39L489.07,-238.18L508.83,-239.50L527.92,-250.71L574.00,-303.41L563.46,-312.62L517.38,-259.92ZM643.75,-446.99L610.86,-345.57L567.43,-253.35L577.97,-244.14L597.73,-245.46L631.94,-327.14L659.59,-358.76L678.68,-369.96L689.22,-360.74L645.79,-268.53L646.46,-258.65L657.00,-249.44L676.75,-250.76L695.85,-261.96L741.92,-314.66L731.38,-323.88L685.30,-271.18L675.43,-270.52L719.52,-352.85L717.53,-382.48L687.24,-390.38L658.26,-378.51L639.83,-357.43L682.60,-459.52L613.46,-454.88L614.12,-445.01Z" fill="#ffffff" stroke="#000000"/>
    <path d="M-826.92,-288.12L-804.88,-271.31L-832.51,-109.37L-849.32,-87.33L-752.20,-100.41L-706.25,-126.38L-682.35,-169.15L-697.29,-206.69L-727.74,-212.48L-709.62,-224.81L-684.41,-257.87L-699.35,-295.41L-749.22,-298.58ZM-803.37,-113.29L-775.74,-275.23L-767.34,-286.25L-747.91,-288.87L-727.18,-281.77L-723.26,-252.64L-738.76,-220.88L-766.58,-207.25L-786.01,-204.63L-784.70,-194.92L-755.56,-198.84L-734.83,-191.75L-721.19,-163.92L-736.70,-132.16L-772.93,-107.51L-792.35,-104.89ZM-488.10,-195.31L-499.12,-203.72L-541.14,-148.62L-550.85,-147.31L-505.66,-252.28L-516.68,-260.68L-536.11,-258.07L-565.80,-184.85L-599.41,-140.77L-609.13,-139.46L-621.46,-157.57L-583.36,-241.81L-584.67,-251.53L-605.40,-258.62L-633.23,-244.98L-675.25,-189.88L-664.23,-181.48L-622.21,-236.58L-612.50,-237.89L-650.59,-153.65L-636.96,-125.82L-616.22,-118.73L-596.80,-121.34L-571.59,-154.40L-568.97,-134.98L-557.95,-126.57L-548.24,-127.88L-530.12,-140.21ZM-394.35,-306.83L-384.63,-308.13L-377.54,-328.87L-378.85,-338.58L-399.58,-345.68L-409.29,-344.37L-416.39,-323.63L-415.08,-313.92ZM-490.72,-214.74L-479.70,-206.33L-437.68,-261.44L-427.96,-262.74L-473.15,-157.77L-471.85,-148.06L-460.83,-139.66L-441.40,-142.27L-423.29,-154.60L-381.26,-209.70L-392.29,-218.11L-434.31,-163.00L-444.02,-161.70L-398.83,-266.67L-400.13,-276.38L-420.87,-283.48L-448.70,-269.84ZM-346.90,-174.78L-284.34,-371.09L-352.33,-361.93L-351.02,-352.22L-321.88,-356.14L-376.03,-170.85L-374.72,-161.14L-353.99,-154.05L-326.16,-167.68L-284.14,-222.78L-295.16,-231.19L-337.18,-176.09ZM-179.17,-177.59L-169.46,-178.90L-151.34,-191.23L-109.32,-246.33L-120.34,-254.74L-162.36,-199.63L-172.07,-198.33L-109.52,-394.63L-177.50,-385.48L-176.20,-375.76L-147.06,-379.69L-164.42,-288.35L-176.75,-306.47L-216.91,-310.95L-260.24,-265.56L-273.12,-214.38L-258.18,-176.84L-237.44,-169.74L-218.02,-172.36L-192.81,-205.42L-190.19,-186.00ZM-220.64,-191.78L-230.35,-190.48L-243.98,-218.31L-229.79,-259.77L-204.58,-292.83L-185.16,-295.45L-172.83,-277.33L-171.52,-267.62L-195.42,-224.85ZM123.77,-277.73L114.06,-276.42L91.47,-223.93L33.19,-216.08L22.17,-224.49L32.44,-295.09L40.84,-306.11L79.69,-311.34L101.73,-294.54L95.19,-343.10L78.38,-321.06L39.54,-315.82L38.23,-325.54L49.80,-386.43L58.21,-397.45L106.77,-403.99L141.14,-369.06L150.85,-370.37L133.29,-427.34L95.75,-412.39L-1.37,-399.31L20.67,-382.50L-6.96,-220.56L-33.49,-197.22L102.49,-215.53L123.22,-208.43ZM289.44,-369.26L278.42,-377.66L262.92,-345.91L250.59,-364.03L210.43,-368.51L167.10,-323.12L154.22,-271.94L169.16,-234.40L189.90,-227.30L209.32,-229.92L234.53,-262.98L237.15,-243.56L248.17,-235.15L276.00,-248.79L318.02,-303.89L307.00,-312.30L264.98,-257.19L255.27,-255.88ZM206.71,-249.34L196.99,-248.04L183.36,-275.86L197.55,-317.33L222.76,-350.39L242.19,-353.01L254.51,-334.89L255.82,-325.18L231.92,-282.41ZM315.40,-323.32L326.42,-314.91L368.45,-370.01L378.16,-371.32L334.27,-256.64L345.29,-248.23L364.72,-250.85L393.10,-333.78L419.62,-357.13L448.76,-361.05L454.55,-391.50L433.82,-398.60L415.70,-386.27L391.79,-343.49L382.08,-342.19L397.58,-373.94L396.27,-383.65L385.25,-392.05L357.43,-378.42ZM478.65,-285.97L514.13,-389.64L543.27,-393.56L541.96,-403.27L512.82,-399.35L527.01,-440.81L507.59,-438.20L501.80,-407.75L483.68,-395.42L464.26,-392.81L465.57,-383.10L484.99,-385.71L449.51,-282.05L450.82,-272.34L461.84,-263.93L481.27,-266.55L499.38,-278.88L541.40,-333.98L530.38,-342.38L488.36,-287.28ZM600.79,-480.42L575.02,-378.06L538.23,-284.11L549.25,-275.71L568.68,-278.32L597.06,-361.25L622.27,-394.31L640.39,-406.64L651.41,-398.24L614.62,-304.29L615.93,-294.57L626.95,-286.17L646.38,-288.79L664.49,-301.12L706.51,-356.22L695.49,-364.62L653.47,-309.52L643.76,-308.21L681.86,-392.45L677.93,-421.59L647.49,-427.38L619.66,-413.74L602.85,-391.70L638.33,-495.36L570.34,-486.20L571.65,-476.49Z" fill="#ffffff" stroke="#000000"/>
    <path d="M-840.85,-225.77L-817.97,-210.63L-834.53,-48.88L-849.67,-26.00L-754.62,-45.35L-710.97,-74.03L-690.19,-117.86L-707.44,-153.94L-737.89,-157.64L-720.81,-171.02L-698.10,-205.34L-715.35,-241.42L-764.81,-241.25ZM-806.02,-54.68L-789.45,-216.44L-781.88,-227.88L-762.87,-231.75L-741.93,-226.11L-736.12,-197.60L-749.33,-165.21L-775.91,-149.90L-794.92,-146.03L-792.98,-136.53L-764.47,-142.33L-743.52,-136.70L-728.21,-110.12L-741.42,-77.73L-775.57,-50.98L-794.58,-47.11ZM-500.09,-156.56L-511.53,-164.13L-549.38,-106.93L-558.89,-104.99L-521.21,-211.65L-532.65,-219.22L-551.66,-215.35L-576.13,-141.08L-606.41,-95.32L-615.92,-93.38L-629.29,-110.46L-597.25,-196.17L-599.18,-205.68L-620.13,-211.31L-646.71,-196.00L-684.56,-138.80L-673.12,-131.23L-635.27,-188.43L-625.76,-190.37L-657.81,-104.65L-642.50,-78.07L-621.55,-72.44L-602.54,-76.31L-579.83,-110.63L-575.96,-91.62L-564.52,-84.05L-555.02,-85.98L-537.94,-99.36ZM-414.89,-272.89L-405.38,-274.83L-399.75,-295.77L-401.68,-305.28L-422.63,-310.91L-432.13,-308.98L-437.77,-288.03L-435.83,-278.53ZM-503.96,-175.57L-492.52,-168.00L-454.67,-225.20L-445.17,-227.13L-482.85,-120.47L-480.91,-110.97L-469.47,-103.40L-450.46,-107.27L-433.39,-120.64L-395.54,-177.84L-406.98,-185.41L-444.83,-128.21L-454.33,-126.28L-416.65,-232.94L-418.59,-242.44L-439.53,-248.08L-466.11,-232.77ZM-359.28,-145.63L-310.50,-343.64L-377.04,-330.09L-375.10,-320.59L-346.59,-326.39L-387.80,-139.82L-385.86,-130.32L-364.92,-124.68L-338.34,-139.99L-300.49,-197.19L-311.93,-204.76L-349.78,-147.56ZM-193.83,-159.51L-184.32,-161.45L-167.25,-174.82L-129.39,-232.02L-140.83,-239.59L-178.69,-182.39L-188.19,-180.46L-139.41,-378.47L-205.94,-364.92L-204.01,-355.42L-175.49,-361.22L-186.59,-269.87L-199.97,-286.95L-239.92,-288.71L-279.71,-241.02L-289.05,-189.62L-271.80,-153.54L-250.86,-147.90L-231.85,-151.77L-209.14,-186.09L-205.27,-167.08ZM-235.72,-170.78L-245.22,-168.85L-260.53,-195.43L-249.26,-237.32L-226.55,-271.64L-207.54,-275.51L-194.16,-258.43L-192.23,-248.93L-213.01,-205.10ZM98.73,-278.46L89.22,-276.53L70.38,-223.20L13.35,-211.59L1.91,-219.16L7.38,-289.56L14.95,-301.00L52.97,-308.74L75.85,-293.60L66.17,-341.13L51.03,-318.25L13.01,-310.51L11.08,-320.01L18.48,-380.91L26.05,-392.35L73.57,-402.03L109.83,-369.81L119.33,-371.75L98.22,-426.84L62.13,-409.60L-32.92,-390.25L-10.04,-375.11L-26.60,-213.35L-51.25,-188.54L81.82,-215.63L102.77,-209.99ZM256.27,-379.83L244.83,-387.40L231.63,-355.01L218.25,-372.09L178.30,-373.85L138.51,-326.16L129.18,-274.76L146.42,-238.68L167.37,-233.04L186.38,-236.91L209.09,-271.23L212.96,-252.22L224.40,-244.65L250.98,-259.96L288.83,-317.16L277.39,-324.73L239.54,-267.53L230.03,-265.60ZM182.51,-255.92L173.00,-253.99L157.69,-280.57L168.96,-322.46L191.67,-356.78L210.68,-360.65L224.06,-343.57L225.99,-334.07L205.22,-290.24ZM284.96,-336.17L296.40,-328.60L334.25,-385.80L343.75,-387.74L308.01,-271.57L319.45,-264.00L338.46,-267.87L361.00,-351.65L385.64,-376.47L414.16,-382.27L417.86,-412.72L396.91,-418.36L379.84,-404.98L359.06,-361.16L349.56,-359.22L362.76,-391.61L360.83,-401.11L349.39,-408.68L322.81,-393.37ZM448.65,-310.10L476.82,-414.82L505.34,-420.63L503.40,-430.13L474.89,-424.33L486.16,-466.22L467.15,-462.35L463.45,-431.90L446.37,-418.53L427.36,-414.66L429.30,-405.15L448.31,-409.02L420.13,-304.29L422.07,-294.79L433.51,-287.22L452.52,-291.09L469.59,-304.46L507.44,-361.66L496.00,-369.23L458.15,-312.03ZM556.39,-510.22L537.72,-407.42L507.61,-312.20L519.05,-304.63L538.06,-308.50L560.60,-392.28L583.31,-426.60L600.39,-439.98L611.83,-432.41L581.72,-337.19L583.65,-327.68L595.09,-320.11L614.10,-323.98L631.18,-337.36L669.03,-394.56L657.59,-402.13L619.74,-344.93L610.23,-342.99L642.28,-428.71L636.47,-457.22L606.02,-460.92L579.44,-445.61L564.30,-422.73L592.48,-527.46L525.94,-513.92L527.88,-504.41Z" fill="#ffffff" stroke="#000000"/>
    <path d="M-850.05,-162.98L-826.46,-149.54L-832.11,11.28L-845.54,34.88L-752.97,9.48L-711.76,-21.74L-694.14,-66.39L-713.56,-100.88L-743.87,-102.52L-727.90,-116.85L-707.74,-152.25L-727.16,-186.74L-775.99,-183.30ZM-804.33,3.66L-798.69,-157.16L-791.97,-168.96L-773.45,-174.04L-752.40,-169.86L-744.78,-142.09L-755.67,-109.23L-780.91,-92.36L-799.42,-87.28L-796.88,-78.02L-769.11,-85.64L-748.05,-81.46L-731.17,-56.23L-742.07,-23.37L-774.02,5.30L-792.54,10.38ZM-508.98,-117.19L-520.78,-123.91L-554.37,-64.92L-563.63,-62.38L-533.48,-170.19L-545.28,-176.91L-563.80,-171.83L-583.05,-96.87L-609.92,-49.68L-619.18,-47.14L-633.51,-63.11L-607.55,-149.87L-610.09,-159.13L-631.14,-163.31L-656.38,-146.43L-689.96,-87.44L-678.17,-80.73L-644.58,-139.71L-635.32,-142.25L-661.29,-55.49L-644.41,-30.26L-623.35,-26.08L-604.84,-31.16L-584.69,-66.55L-579.61,-48.04L-567.81,-41.32L-558.55,-43.86L-542.57,-58.20ZM-432.55,-237.71L-423.29,-240.25L-419.11,-261.30L-421.65,-270.56L-442.71,-274.74L-451.97,-272.20L-456.14,-251.14L-453.60,-241.88ZM-514.06,-135.70L-502.27,-128.99L-468.68,-187.97L-459.42,-190.51L-489.57,-82.70L-487.03,-73.44L-475.23,-66.72L-456.71,-71.80L-440.74,-86.14L-407.15,-145.13L-418.95,-151.85L-452.54,-92.86L-461.79,-90.32L-431.65,-198.13L-434.19,-207.39L-455.24,-211.57L-480.48,-194.69ZM-369.21,-115.72L-334.15,-314.48L-398.96,-296.70L-396.42,-287.44L-368.64,-295.06L-396.99,-108.10L-394.45,-98.84L-373.39,-94.66L-348.16,-111.54L-314.57,-170.53L-326.37,-177.25L-359.96,-118.26ZM-206.75,-140.38L-197.49,-142.92L-181.52,-157.26L-147.93,-216.25L-159.73,-222.97L-193.31,-163.98L-202.57,-161.44L-167.51,-360.20L-232.32,-342.42L-229.78,-333.16L-202.00,-340.78L-206.92,-249.84L-221.25,-265.81L-260.83,-264.91L-296.96,-215.18L-302.77,-163.81L-283.35,-129.32L-262.30,-125.14L-243.78,-130.22L-223.63,-165.61L-218.55,-147.10ZM-248.86,-148.74L-258.12,-146.20L-275.00,-171.43L-266.64,-213.54L-246.49,-248.93L-227.97,-254.01L-213.63,-238.04L-211.09,-228.78L-228.71,-184.13ZM74.26,-277.21L65.00,-274.67L49.93,-220.76L-5.62,-205.52L-17.41,-212.24L-16.68,-282.12L-9.96,-293.92L27.07,-304.08L50.67,-290.64L37.97,-336.93L24.53,-313.34L-12.50,-303.18L-15.04,-312.43L-11.77,-373.06L-5.05,-384.86L41.24,-397.56L79.18,-368.15L88.43,-370.69L63.94,-423.70L29.44,-404.28L-63.13,-378.88L-39.54,-365.44L-45.19,-204.62L-67.88,-178.48L61.73,-214.04L82.78,-209.86ZM223.12,-387.73L211.33,-394.45L200.43,-361.60L186.09,-377.57L146.52,-376.67L110.39,-326.94L104.58,-275.57L123.99,-241.08L145.05,-236.90L163.57,-241.98L183.72,-277.37L188.80,-258.86L200.60,-252.14L225.83,-269.02L259.42,-328.01L247.62,-334.73L214.03,-275.74L204.77,-273.20ZM158.49,-260.50L149.23,-257.96L132.35,-283.19L140.71,-325.30L160.86,-360.69L179.37,-365.77L193.71,-349.80L196.25,-340.54L178.64,-295.89ZM254.34,-346.52L266.14,-339.81L299.73,-398.79L308.98,-401.33L281.38,-284.26L293.18,-277.54L311.69,-282.62L328.40,-366.84L351.10,-392.98L378.87,-400.60L380.51,-430.91L359.45,-435.09L343.48,-420.75L325.86,-376.10L316.60,-373.56L327.50,-406.41L324.96,-415.67L313.16,-422.39L287.93,-405.51ZM417.71,-331.62L438.60,-436.89L466.37,-444.51L463.83,-453.77L436.06,-446.15L444.41,-488.26L425.90,-483.18L424.26,-452.87L408.28,-438.53L389.77,-433.45L392.31,-424.19L410.82,-429.27L389.93,-324.00L392.47,-314.74L404.27,-308.02L422.79,-313.10L438.76,-327.44L472.35,-386.43L460.55,-393.15L426.96,-334.16ZM510.85,-536.36L499.22,-433.62L475.79,-337.60L487.59,-330.88L506.11,-335.96L522.82,-420.18L542.97,-455.58L558.95,-469.91L570.75,-463.20L547.32,-367.18L549.86,-357.92L561.65,-351.20L580.17,-356.28L596.15,-370.62L629.73,-429.61L617.94,-436.33L584.35,-377.34L575.09,-374.80L601.06,-461.56L593.44,-489.33L563.13,-490.97L537.89,-474.09L524.46,-450.50L545.35,-555.78L480.54,-538.00L483.08,-528.74Z" fill="#ffffff" stroke="#000000"/>
    <path d="M-854.55,-100.08L-830.36,-88.38L-825.30,70.79L-837.00,94.98L-747.27,63.77L-708.65,30.22L-694.22,-15.03L-715.67,-47.81L-745.71,-47.42L-730.89,-62.63L-713.33,-98.91L-734.78,-131.68L-782.77,-125.05ZM-798.38,61.43L-803.45,-97.74L-797.59,-109.84L-779.65,-116.08L-758.58,-113.35L-749.22,-86.43L-757.80,-53.27L-781.60,-34.93L-799.55,-28.69L-796.43,-19.72L-769.51,-29.08L-748.44,-26.35L-730.11,-2.55L-738.69,30.61L-768.34,61.04L-786.28,67.28ZM-514.76,-77.45L-526.85,-83.30L-556.11,-22.83L-565.09,-19.71L-542.46,-128.17L-554.55,-134.02L-572.50,-127.78L-586.54,-52.48L-609.95,-4.11L-618.92,-0.99L-634.14,-15.81L-614.24,-103.20L-617.36,-112.17L-638.43,-114.90L-662.22,-96.57L-691.48,-36.10L-679.39,-30.25L-650.13,-90.72L-641.16,-93.84L-661.06,-6.45L-642.72,17.35L-621.65,20.08L-603.71,13.84L-586.15,-22.44L-579.91,-4.50L-567.82,1.35L-558.84,-1.77L-544.02,-16.98ZM-447.27,-201.51L-438.29,-204.63L-435.56,-225.69L-438.68,-234.67L-459.75,-237.40L-468.72,-234.28L-471.45,-213.21L-468.33,-204.24ZM-521.00,-95.40L-508.91,-89.54L-479.65,-150.01L-470.67,-153.13L-493.30,-44.68L-490.18,-35.71L-478.09,-29.85L-460.14,-36.10L-445.32,-51.31L-416.06,-111.78L-428.15,-117.63L-457.41,-57.16L-466.39,-54.04L-443.76,-162.49L-446.88,-171.47L-467.94,-174.20L-491.74,-155.86ZM-376.66,-85.25L-355.20,-283.82L-418.01,-261.97L-414.89,-253.00L-387.97,-262.36L-403.58,-75.89L-400.45,-66.91L-379.39,-64.18L-355.59,-82.52L-326.33,-142.99L-338.42,-148.84L-367.68,-88.37ZM-217.88,-120.36L-208.91,-123.48L-194.08,-138.69L-164.82,-199.16L-176.91,-205.01L-206.17,-144.54L-215.15,-141.42L-193.69,-339.99L-256.50,-318.15L-253.38,-309.17L-226.46,-318.54L-225.29,-228.42L-240.50,-243.24L-279.51,-239.73L-311.90,-188.24L-314.24,-137.13L-292.78,-104.36L-271.72,-101.63L-253.77,-107.87L-236.21,-144.15L-229.97,-126.21ZM-260.01,-125.82L-268.98,-122.70L-287.32,-146.50L-281.86,-188.63L-264.30,-224.91L-246.35,-231.15L-231.14,-216.33L-228.02,-207.35L-242.45,-162.10ZM50.53,-274.06L41.55,-270.94L30.24,-216.71L-23.60,-197.99L-35.69,-203.84L-39.59,-272.89L-33.74,-284.98L2.15,-297.47L26.34,-285.76L10.74,-330.62L-0.97,-306.44L-36.86,-293.95L-39.98,-302.93L-40.76,-363.01L-34.91,-375.10L9.96,-390.70L49.36,-364.17L58.33,-367.30L30.63,-418.01L-2.14,-396.56L-91.86,-365.35L-67.68,-353.64L-62.61,-194.48L-83.29,-167.17L42.33,-210.86L63.40,-208.13ZM190.19,-393.04L178.10,-398.89L169.51,-365.73L154.30,-380.56L115.29,-377.05L82.91,-325.55L80.57,-274.45L102.02,-241.68L123.09,-238.94L141.03,-245.19L158.59,-281.47L164.83,-263.52L176.92,-257.67L200.72,-276.00L229.98,-336.47L217.89,-342.32L188.63,-281.86L179.66,-278.74ZM134.79,-263.13L125.82,-260.01L107.48,-283.81L112.95,-325.94L130.50,-362.22L148.45,-368.46L163.66,-353.64L166.78,-344.67L152.35,-299.41ZM223.74,-354.42L235.83,-348.57L265.09,-409.03L274.07,-412.15L254.56,-294.73L266.65,-288.88L284.60,-295.12L295.52,-379.38L316.20,-406.69L343.12,-416.05L342.73,-446.09L321.66,-448.82L306.84,-433.61L292.40,-388.36L283.43,-385.24L292.01,-418.40L288.89,-427.37L276.80,-433.22L253.00,-414.89ZM386.03,-350.51L399.69,-455.84L426.60,-465.21L423.48,-474.18L396.57,-464.82L402.03,-506.95L384.08,-500.71L384.47,-470.67L369.65,-455.46L351.70,-449.21L354.82,-440.24L372.77,-446.48L359.11,-341.15L362.23,-332.18L374.33,-326.33L392.27,-332.57L407.10,-347.78L436.36,-408.25L424.26,-414.10L395.00,-353.63ZM464.45,-558.83L459.76,-456.62L442.99,-360.26L455.08,-354.41L473.03,-360.65L483.95,-444.92L501.51,-481.20L516.33,-496.41L528.43,-490.56L511.65,-394.20L514.77,-385.23L526.86,-379.38L544.81,-385.62L559.63,-400.83L588.89,-461.30L576.80,-467.15L547.54,-406.69L538.57,-403.57L558.46,-490.95L549.10,-517.87L519.06,-517.48L495.27,-499.15L483.56,-474.96L497.22,-580.29L434.41,-558.44L437.53,-549.47Z" fill="#ffffff" stroke="#000000"/>
    <path d="M-854.38,-37.45L-829.72,-27.49L-814.18,129.31L-824.14,153.97L-737.62,117.22L-701.71,81.54L-690.45,35.91L-713.80,4.97L-743.43,7.35L-729.81,-8.65L-714.87,-45.64L-738.23,-76.57L-785.16,-66.85ZM-788.23,118.29L-803.77,-38.52L-798.79,-50.84L-781.49,-58.19L-760.51,-56.89L-749.48,-30.94L-755.76,2.37L-778.04,22.05L-795.35,29.40L-791.67,38.05L-765.72,27.02L-744.74,28.33L-725.06,50.61L-731.34,83.91L-758.60,115.92L-775.90,123.26ZM-517.41,-37.59L-529.74,-42.57L-554.63,19.07L-563.28,22.74L-548.12,-85.83L-560.44,-90.80L-577.75,-83.45L-586.63,-8.19L-606.54,41.12L-615.19,44.79L-631.19,31.16L-617.33,-56.43L-621.01,-65.08L-641.98,-66.38L-664.27,-46.71L-689.15,14.93L-676.82,19.91L-651.94,-41.73L-643.29,-45.40L-657.15,42.19L-637.47,64.47L-616.49,65.77L-599.19,58.42L-584.26,21.44L-576.91,38.74L-564.58,43.72L-555.93,40.04L-542.30,24.04ZM-458.99,-164.53L-450.34,-168.21L-449.04,-189.19L-452.71,-197.84L-473.69,-199.14L-482.34,-195.47L-483.65,-174.49L-479.97,-165.84ZM-524.76,-54.89L-512.44,-49.92L-487.55,-111.55L-478.90,-115.23L-494.06,-6.66L-490.39,1.99L-478.06,6.97L-460.76,-0.38L-447.13,-16.38L-422.24,-78.01L-434.57,-82.99L-459.46,-21.36L-468.11,-17.68L-452.95,-126.25L-456.62,-134.90L-477.60,-136.21L-499.88,-116.53ZM-381.59,-54.43L-373.54,-251.89L-434.11,-226.17L-430.43,-217.52L-404.48,-228.54L-407.54,-43.41L-403.87,-34.76L-382.89,-33.45L-360.61,-53.13L-335.73,-114.76L-348.05,-119.74L-372.94,-58.11ZM-227.16,-99.60L-218.51,-103.28L-204.88,-119.28L-179.99,-180.91L-192.32,-185.89L-217.20,-124.25L-225.85,-120.58L-217.81,-318.04L-278.37,-292.32L-274.70,-283.66L-248.74,-294.69L-241.63,-205.80L-257.63,-219.43L-295.91,-213.38L-324.47,-160.40L-323.40,-109.79L-300.05,-78.85L-279.07,-77.55L-261.76,-84.90L-246.83,-121.88L-239.48,-104.58ZM-269.11,-102.21L-277.77,-98.53L-297.44,-120.81L-294.84,-162.77L-279.91,-199.75L-262.60,-207.10L-246.60,-193.47L-242.93,-184.82L-254.18,-139.19ZM27.65,-269.11L19.00,-265.43L11.42,-211.15L-40.49,-189.10L-52.82,-194.08L-61.24,-261.99L-56.26,-274.32L-21.65,-289.02L3.00,-279.06L-15.37,-322.32L-25.33,-297.67L-59.94,-282.97L-63.61,-291.62L-68.36,-350.88L-63.38,-363.21L-20.12,-381.58L20.54,-358.00L29.19,-361.68L-1.51,-409.91L-32.45,-386.56L-118.96,-349.81L-94.31,-339.86L-78.77,-183.05L-97.38,-154.72L23.75,-206.17L44.73,-204.87ZM157.66,-395.82L145.34,-400.80L139.06,-367.49L123.06,-381.12L84.77,-375.07L56.21,-322.09L57.28,-271.48L80.64,-240.55L101.61,-239.25L118.92,-246.60L133.85,-283.58L141.20,-266.27L153.53,-261.30L175.81,-280.97L200.69,-342.61L188.37,-347.58L163.48,-285.95L154.83,-282.27ZM111.57,-263.90L102.92,-260.23L83.24,-282.51L85.84,-324.46L100.78,-361.44L118.08,-368.79L134.08,-355.16L137.76,-346.51L126.50,-300.88ZM193.34,-359.91L205.67,-354.93L230.55,-416.57L239.21,-420.24L227.72,-303.02L240.05,-298.04L257.35,-305.39L262.56,-389.31L281.16,-417.64L307.12,-428.66L304.75,-458.29L283.77,-459.59L270.14,-443.59L258.88,-397.96L250.23,-394.29L256.51,-427.59L252.83,-436.24L240.51,-441.22L218.23,-421.54ZM353.82,-366.80L360.33,-471.69L386.29,-482.71L382.61,-491.37L356.66,-480.34L359.26,-522.30L341.96,-514.95L344.33,-485.32L330.70,-469.32L313.40,-461.97L317.07,-453.32L334.38,-460.67L327.87,-355.77L331.54,-347.12L343.87,-342.14L361.17,-349.49L374.80,-365.49L399.69,-427.13L387.36,-432.11L362.47,-370.47ZM417.45,-577.65L419.59,-476.44L409.41,-380.19L421.73,-375.22L439.04,-382.57L444.25,-466.48L459.18,-503.46L472.81,-519.46L485.13,-514.49L474.95,-418.25L478.62,-409.59L490.95,-404.62L508.25,-411.97L521.88,-427.97L546.77,-489.60L534.44,-494.58L509.56,-432.94L500.90,-429.27L514.76,-516.86L503.74,-542.82L474.11,-540.44L451.83,-520.77L441.87,-496.11L448.39,-601.01L387.82,-575.28L391.50,-566.63Z" fill="#ffffff" stroke="#000000"/>
    <path d="M-849.59,24.59L-824.59,32.78L-798.88,186.54L-807.07,211.54L-724.10,169.54L-691.01,131.94L-682.92,86.15L-708.02,57.16L-737.11,61.46L-724.72,44.77L-712.42,7.27L-737.52,-21.72L-783.21,-9.01ZM-773.99,173.94L-799.70,20.18L-795.60,7.68L-779.01,-0.72L-758.21,-0.82L-745.61,24.07L-749.61,57.37L-770.30,78.26L-786.90,86.66L-782.70,94.96L-757.80,82.36L-737.01,82.26L-716.11,102.95L-720.10,136.24L-744.89,169.64L-761.49,178.04ZM-516.97,2.14L-529.47,-1.95L-549.95,60.54L-558.25,64.74L-550.47,-43.44L-562.97,-47.54L-579.56,-39.14L-583.35,35.75L-599.74,85.74L-608.04,89.94L-624.73,77.54L-616.85,-9.84L-621.05,-18.14L-641.84,-18.03L-662.54,2.87L-683.02,65.35L-670.52,69.45L-650.04,6.96L-641.74,2.76L-649.63,90.14L-628.73,110.84L-607.93,110.73L-591.34,102.33L-579.05,64.84L-570.65,81.43L-558.15,85.53L-549.85,81.33L-537.46,64.63ZM-467.70,-127.03L-459.40,-131.23L-459.51,-152.03L-463.71,-160.33L-484.50,-160.22L-492.80,-156.02L-492.70,-135.23L-488.50,-126.93ZM-525.37,-14.45L-512.87,-10.35L-492.39,-72.84L-484.09,-77.04L-491.87,31.13L-487.67,39.43L-475.17,43.53L-458.58,35.13L-446.18,18.43L-425.70,-44.06L-438.20,-48.15L-458.68,14.33L-466.98,18.53L-459.20,-89.64L-463.40,-97.94L-484.19,-97.84L-504.88,-76.94ZM-384.00,-23.47L-389.13,-218.92L-447.21,-189.52L-443.01,-181.22L-418.12,-193.82L-408.90,-10.87L-404.70,-2.57L-383.90,-2.67L-363.21,-23.57L-342.72,-86.06L-355.22,-90.16L-375.71,-27.67ZM-234.55,-78.28L-226.25,-82.48L-213.86,-99.18L-193.37,-161.66L-205.87,-165.76L-226.35,-103.27L-234.65,-99.07L-239.78,-294.53L-297.86,-265.13L-293.66,-256.83L-268.77,-269.43L-255.86,-182.15L-272.56,-194.55L-309.95,-186.04L-334.63,-131.85L-330.23,-81.96L-305.13,-52.97L-284.33,-53.08L-267.74,-61.48L-255.45,-98.97L-247.04,-82.37ZM-276.14,-78.07L-284.44,-73.87L-305.33,-94.56L-305.54,-136.15L-293.25,-173.65L-276.65,-182.05L-259.95,-169.65L-255.75,-161.36L-263.85,-115.56ZM5.77,-262.47L-2.53,-258.27L-6.42,-204.18L-56.20,-178.98L-68.70,-183.08L-81.51,-249.56L-77.41,-262.06L-44.22,-278.86L-19.23,-270.66L-40.23,-312.15L-48.42,-287.16L-81.61,-270.36L-85.81,-278.65L-94.42,-336.84L-90.32,-349.34L-48.83,-370.34L-7.14,-349.75L1.16,-353.95L-32.34,-399.53L-61.33,-374.43L-144.31,-332.43L-119.31,-324.24L-93.59,-170.48L-110.09,-141.28L6.08,-200.08L26.87,-200.19ZM125.72,-396.16L113.23,-400.25L109.23,-366.96L92.53,-379.36L55.14,-370.85L30.46,-316.66L34.86,-266.77L59.96,-237.78L80.76,-237.89L97.35,-246.29L109.64,-283.78L118.04,-267.19L130.54,-263.09L151.23,-283.99L171.72,-346.47L159.22,-350.57L138.74,-288.08L130.44,-283.88ZM88.95,-262.88L80.65,-258.68L59.76,-279.37L59.55,-320.96L71.84,-358.46L88.44,-366.86L105.13,-354.46L109.33,-346.17L101.24,-300.38ZM163.32,-363.07L175.82,-358.97L196.30,-421.46L204.60,-425.66L201.02,-309.19L213.52,-305.09L230.11,-313.49L229.70,-396.67L246.19,-425.87L271.08,-438.47L266.78,-467.56L245.98,-467.46L233.59,-450.76L225.50,-404.97L217.20,-400.77L221.20,-434.06L217.00,-442.36L204.50,-446.46L183.81,-425.56ZM321.28,-380.49L320.77,-484.46L345.66,-497.07L341.46,-505.36L316.56,-492.76L316.36,-534.35L299.76,-525.95L304.07,-496.86L291.67,-480.16L275.08,-471.76L279.28,-463.46L295.87,-471.86L296.39,-367.89L300.59,-359.59L313.09,-355.49L329.68,-363.89L342.08,-380.59L362.56,-443.08L350.06,-447.18L329.58,-384.69ZM370.14,-592.85L378.95,-493.07L375.27,-397.39L387.76,-393.30L404.36,-401.70L403.95,-484.88L416.24,-522.37L428.63,-539.07L441.13,-534.97L437.44,-439.29L441.64,-430.99L454.14,-426.90L470.74,-435.30L483.13,-452.00L503.62,-514.48L491.12,-518.58L470.63,-456.09L462.34,-451.89L470.22,-539.27L457.62,-564.17L428.53,-559.86L407.84,-538.96L399.64,-513.97L399.13,-617.95L341.05,-588.54L345.25,-580.25Z" fill="#ffffff" stroke="#000000"/>
    <path d="M-840.28,85.68L-815.07,92.11L-779.51,242.18L-785.95,267.39L-706.83,220.44L-676.66,181.15L-671.70,135.41L-698.39,108.46L-726.82,114.63L-715.69,97.33L-706.04,59.51L-732.73,32.56L-776.99,48.12ZM-755.78,228.09L-791.33,78.03L-788.12,65.42L-772.29,56.03L-751.77,54.56L-737.69,78.29L-739.43,111.42L-758.47,133.41L-774.29,142.80L-769.60,150.72L-745.86,136.63L-725.35,135.15L-703.35,154.19L-705.09,187.32L-727.35,221.92L-743.17,231.31ZM-513.46,41.52L-526.07,38.30L-542.15,101.33L-550.07,106.03L-549.54,-1.26L-562.15,-4.48L-577.97,4.91L-576.76,79.08L-589.63,129.50L-597.54,134.20L-614.84,123.07L-612.84,36.30L-617.53,28.39L-638.05,29.87L-657.09,51.86L-673.18,114.90L-660.57,118.11L-644.49,55.08L-636.57,50.38L-638.58,137.15L-616.58,156.19L-596.06,154.72L-580.24,145.33L-570.59,107.51L-561.20,123.33L-548.59,126.55L-540.68,121.85L-529.55,104.55ZM-473.38,-89.24L-465.47,-93.94L-466.95,-114.46L-471.64,-122.37L-492.16,-120.89L-500.07,-116.20L-498.59,-95.68L-493.90,-87.77ZM-522.85,25.69L-510.25,28.91L-494.16,-34.12L-486.25,-38.82L-486.77,68.47L-482.08,76.38L-469.47,79.60L-453.65,70.21L-442.52,52.91L-426.43,-10.13L-439.04,-13.34L-455.12,49.69L-463.04,54.39L-462.51,-52.90L-467.21,-60.81L-487.73,-59.34L-506.77,-37.34ZM-383.92,7.44L-401.91,-185.14L-457.29,-152.28L-452.60,-144.37L-428.86,-158.45L-407.65,21.52L-402.96,29.43L-382.44,27.96L-363.40,5.96L-347.31,-57.07L-359.92,-60.29L-376.00,2.74ZM-240.02,-56.55L-232.11,-61.25L-220.98,-78.55L-204.90,-141.58L-217.50,-144.80L-233.59,-81.76L-241.50,-77.07L-259.50,-269.65L-314.88,-236.79L-310.19,-228.87L-286.45,-242.96L-267.93,-157.67L-285.23,-168.80L-321.58,-157.93L-342.36,-102.81L-334.71,-53.86L-308.01,-26.90L-287.50,-28.38L-271.67,-37.77L-262.02,-75.59L-252.63,-59.77ZM-281.06,-53.60L-288.97,-48.90L-310.97,-67.94L-313.93,-108.98L-304.27,-146.80L-288.45,-156.19L-271.15,-145.06L-266.45,-137.15L-271.41,-91.42ZM-15.01,-254.26L-22.92,-249.56L-23.19,-195.92L-70.66,-167.75L-83.26,-170.97L-100.30,-235.74L-97.09,-248.35L-65.44,-267.13L-40.23,-260.69L-63.70,-300.25L-70.13,-275.04L-101.78,-256.26L-106.48,-264.17L-118.82,-321.03L-115.60,-333.64L-76.04,-357.11L-33.53,-339.55L-25.62,-344.24L-61.70,-387.02L-88.65,-360.33L-167.77,-313.38L-142.56,-306.95L-107.00,-156.88L-121.35,-126.97L-10.58,-192.70L9.94,-194.18ZM94.54,-394.15L81.93,-397.37L80.19,-364.24L62.89,-375.37L26.55,-364.50L5.77,-309.38L13.42,-260.43L40.11,-233.48L60.63,-234.96L76.45,-244.34L86.10,-282.17L95.49,-266.34L108.10,-263.12L127.14,-285.12L143.23,-348.15L130.62,-351.37L114.53,-288.34L106.62,-283.64ZM67.06,-260.17L59.15,-255.47L37.15,-274.51L34.20,-315.55L43.85,-353.37L59.67,-362.76L76.98,-351.63L81.67,-343.72L76.71,-297.99ZM133.84,-363.98L146.44,-360.76L162.53,-423.80L170.44,-428.49L174.61,-313.29L187.22,-310.07L203.04,-319.46L197.13,-401.54L211.48,-431.45L235.21,-445.53L229.04,-473.96L208.52,-472.48L197.39,-455.18L192.44,-409.45L184.53,-404.75L186.26,-437.88L181.57,-445.79L168.96,-449.01L149.92,-427.01ZM288.60,-391.62L281.21,-494.22L304.94,-508.30L300.25,-516.21L276.51,-502.13L273.56,-543.17L257.73,-533.78L263.91,-505.35L252.78,-488.05L236.95,-478.66L241.65,-470.74L257.47,-480.13L264.86,-377.54L269.56,-369.63L282.16,-366.41L297.99,-375.80L309.12,-393.10L325.20,-456.14L312.59,-459.35L296.51,-396.32ZM322.77,-604.46L338.07,-506.56L340.76,-411.88L353.37,-408.66L369.19,-418.05L363.28,-500.13L372.93,-537.95L384.06,-555.25L396.67,-552.03L399.36,-457.35L404.06,-449.44L416.67,-446.22L432.49,-455.61L443.62,-472.91L459.70,-535.95L447.10,-539.17L431.01,-476.13L423.10,-471.44L425.10,-558.21L411.02,-581.94L382.58,-575.77L363.54,-553.77L357.11,-528.56L349.72,-631.15L294.34,-598.29L299.03,-590.38Z" fill="#ffffff" stroke="#000000"/>
    <path d="M-826.57,145.50L-801.26,150.18L-756.24,295.93L-760.92,321.24L-685.94,269.67L-658.77,228.89L-656.90,183.43L-685.03,158.60L-712.68,166.57L-702.84,148.76L-695.82,110.79L-723.94,85.96L-766.59,104.25ZM-733.75,280.46L-778.77,134.71L-776.43,122.06L-761.43,111.74L-741.28,108.93L-725.81,131.42L-725.33,164.23L-742.67,187.20L-757.67,197.51L-752.51,205.01L-730.02,189.54L-709.86,186.72L-686.89,204.06L-686.42,236.86L-706.10,272.49L-721.09,282.80ZM-506.95,80.29L-519.60,77.95L-531.31,141.22L-538.81,146.38L-545.39,40.46L-558.04,38.12L-573.04,48.43L-566.93,121.55L-576.29,172.17L-583.79,177.32L-601.60,167.48L-605.37,81.72L-610.53,74.22L-630.68,77.04L-648.02,100.00L-659.72,163.28L-647.06,165.62L-635.36,102.34L-627.86,97.19L-624.10,182.95L-601.13,200.29L-580.98,197.47L-565.98,187.16L-558.96,149.20L-548.64,164.19L-535.99,166.53L-528.49,161.38L-518.65,143.56ZM-476.04,-51.41L-468.54,-56.57L-471.36,-76.72L-476.52,-84.22L-496.67,-81.40L-504.17,-76.25L-501.35,-56.09L-496.19,-48.60ZM-517.26,65.30L-504.61,67.64L-492.90,4.36L-485.41,-0.79L-478.82,105.13L-473.67,112.62L-461.01,114.96L-446.02,104.65L-436.18,86.84L-424.47,23.57L-437.13,21.22L-448.83,84.50L-456.33,89.65L-462.91,-16.26L-468.07,-23.76L-488.22,-20.95L-505.56,2.02ZM-381.35,38.09L-411.85,-150.78L-464.34,-114.69L-459.18,-107.19L-436.69,-122.66L-403.85,53.56L-398.69,61.05L-378.54,58.24L-361.20,35.27L-349.50,-28.00L-362.15,-30.34L-373.85,32.93ZM-243.58,-34.59L-236.08,-39.74L-226.24,-57.55L-214.54,-120.83L-227.19,-123.17L-238.90,-59.90L-246.39,-54.74L-276.89,-243.61L-329.38,-207.51L-324.22,-200.01L-301.73,-215.48L-277.81,-132.53L-295.62,-142.37L-330.77,-129.24L-347.63,-73.47L-336.84,-25.66L-308.72,-0.83L-288.56,-3.64L-273.57,-13.96L-266.55,-51.92L-256.23,-36.93ZM-283.88,-28.95L-291.38,-23.80L-314.35,-41.13L-319.98,-81.44L-312.96,-119.40L-297.96,-129.72L-280.15,-119.88L-274.99,-112.38L-276.86,-66.92ZM-34.59,-244.59L-42.09,-239.44L-38.80,-186.48L-83.78,-155.54L-96.44,-157.88L-117.54,-220.68L-115.20,-233.33L-85.21,-253.96L-59.90,-249.28L-85.68,-286.76L-90.37,-261.46L-120.36,-240.83L-125.51,-248.33L-141.46,-303.63L-139.12,-316.28L-101.63,-342.06L-58.51,-327.54L-51.01,-332.70L-89.45,-372.53L-114.28,-344.41L-189.26,-292.84L-163.95,-288.15L-118.93,-142.41L-131.11,-111.94L-26.14,-184.14L-5.99,-186.95ZM64.27,-389.90L51.62,-392.24L52.09,-359.44L34.28,-369.27L-0.87,-356.15L-17.73,-300.37L-6.94,-252.57L21.19,-227.73L41.34,-230.55L56.33,-240.86L63.36,-278.83L73.67,-263.83L86.32,-261.49L103.66,-284.46L115.36,-347.73L102.71,-350.07L91.01,-286.80L83.51,-281.64ZM46.02,-255.86L38.52,-250.70L15.55,-268.04L9.92,-308.34L16.94,-346.31L31.94,-356.62L49.75,-346.78L54.91,-339.28L53.04,-293.82ZM105.05,-362.73L117.71,-360.39L129.41,-423.66L136.91,-428.82L148.65,-315.40L161.30,-313.06L176.30,-323.37L165.03,-403.98L177.21,-434.45L199.71,-449.92L191.73,-477.57L171.58,-474.75L161.74,-456.94L159.88,-411.48L152.38,-406.32L151.90,-439.13L146.75,-446.63L134.09,-448.97L116.76,-426.00ZM255.96,-400.25L241.88,-501.01L264.37,-516.48L259.21,-523.98L236.72,-508.51L231.09,-548.82L216.09,-538.50L224.06,-510.85L214.23,-493.04L199.23,-482.73L204.39,-475.23L219.38,-485.54L233.46,-384.78L238.62,-377.28L251.27,-374.94L266.27,-385.26L276.11,-403.07L287.81,-466.34L275.16,-468.68L263.45,-405.41ZM275.60,-612.56L297.18,-516.96L306.10,-423.70L318.75,-421.35L333.75,-431.67L322.49,-512.28L329.51,-550.24L339.35,-568.05L352.00,-565.71L360.93,-472.45L366.08,-464.95L378.74,-462.61L393.73,-472.92L403.57,-490.74L415.27,-554.01L402.62,-556.35L390.92,-493.08L383.42,-487.92L379.65,-573.69L364.18,-596.18L336.53,-588.21L319.19,-565.24L314.51,-539.93L300.43,-640.69L247.95,-604.59L253.11,-597.09Z" fill="#ffffff" stroke="#000000"/>
    <path d="M-808.59,203.73L-783.30,206.68L-729.24,347.52L-732.18,372.81L-661.60,316.96L-637.49,274.92L-638.65,229.94L-668.05,207.29L-694.81,216.99L-686.28,198.76L-681.86,160.83L-711.26,138.19L-752.13,159.05ZM-708.06,330.77L-762.13,189.92L-760.66,177.28L-746.54,166.11L-726.84,162.00L-710.09,183.17L-707.45,215.51L-723.04,239.33L-737.15,250.50L-731.57,257.55L-710.40,240.80L-690.70,236.69L-666.88,252.27L-664.24,284.62L-681.30,321.07L-695.42,332.24ZM-497.50,118.24L-510.14,116.77L-517.51,179.98L-524.57,185.56L-538.07,81.48L-550.71,80.00L-564.83,91.17L-553.96,162.92L-559.85,213.49L-566.91,219.07L-585.14,210.54L-594.53,126.16L-600.11,119.10L-619.81,123.21L-635.40,147.02L-642.77,210.24L-630.12,211.71L-622.76,148.50L-615.70,142.91L-606.31,227.30L-582.50,242.88L-562.80,238.77L-548.68,227.60L-544.27,189.67L-533.10,203.79L-520.45,205.26L-513.40,199.68L-504.87,181.45ZM-475.72,-13.77L-468.66,-19.36L-472.77,-39.06L-478.36,-46.11L-498.06,-42.00L-505.11,-36.42L-501.00,-16.72L-495.42,-9.66ZM-508.67,104.12L-496.03,105.60L-488.67,42.38L-481.61,36.80L-468.10,140.88L-462.52,147.94L-449.88,149.41L-435.76,138.24L-427.23,120.02L-419.87,56.80L-432.51,55.33L-439.87,118.54L-446.93,124.13L-460.44,20.04L-466.02,12.99L-485.72,17.10L-501.31,40.91ZM-376.36,68.28L-418.95,-116.08L-468.35,-76.98L-462.77,-69.93L-441.60,-86.68L-397.53,85.04L-391.94,92.09L-372.24,87.98L-356.66,64.17L-349.29,0.96L-361.94,-0.52L-369.30,62.70ZM-245.21,-12.55L-238.15,-18.13L-229.62,-36.36L-222.26,-99.57L-234.90,-101.04L-242.26,-37.83L-249.32,-32.25L-291.91,-216.60L-341.32,-177.51L-335.73,-170.45L-314.56,-187.21L-285.47,-106.93L-303.70,-115.47L-337.51,-100.18L-350.46,-44.03L-336.65,2.43L-307.25,25.07L-287.55,20.96L-273.44,9.79L-269.02,-28.13L-257.85,-14.02ZM-284.61,-4.32L-291.67,1.26L-315.48,-14.33L-323.70,-53.73L-319.28,-91.65L-305.17,-102.82L-286.94,-94.29L-281.36,-87.23L-280.19,-42.25ZM-52.87,-233.61L-59.93,-228.02L-53.18,-175.98L-95.53,-142.47L-108.17,-143.94L-133.15,-204.52L-131.67,-217.16L-103.44,-239.50L-78.16,-236.55L-106.08,-271.84L-109.03,-246.56L-137.26,-224.22L-142.84,-231.27L-162.24,-284.79L-160.77,-297.43L-125.48,-325.36L-81.97,-313.88L-74.91,-319.47L-115.47,-356.23L-138.12,-326.83L-208.70,-270.98L-183.41,-268.03L-129.34,-127.19L-139.34,-96.32L-40.54,-174.51L-20.84,-178.62ZM35.07,-383.54L22.43,-385.01L25.07,-352.67L6.84,-361.20L-26.98,-345.92L-39.93,-289.76L-26.12,-243.30L3.28,-220.66L22.98,-224.77L37.10,-235.94L41.51,-273.87L52.68,-259.75L65.33,-258.28L80.91,-282.09L88.28,-345.30L75.63,-346.78L68.27,-283.57L61.21,-277.98ZM25.93,-250.06L18.87,-244.47L-4.94,-260.06L-13.17,-299.46L-8.75,-337.39L5.37,-348.56L23.59,-340.03L29.18,-332.97L30.34,-287.98ZM77.11,-359.42L89.75,-357.95L97.11,-421.16L104.17,-426.74L123.26,-315.60L135.90,-314.13L150.02,-325.30L133.57,-404.10L143.57,-434.97L164.74,-451.72L155.05,-478.48L135.35,-474.37L126.82,-456.14L127.98,-411.16L120.93,-405.57L118.29,-437.91L112.70,-444.97L100.06,-446.44L84.47,-422.63ZM223.54,-406.43L202.98,-504.93L224.15,-521.69L218.57,-528.74L197.39,-511.99L189.17,-551.39L175.05,-540.22L184.75,-513.46L176.22,-495.24L162.10,-484.07L167.69,-477.01L181.80,-488.18L202.37,-389.68L207.95,-382.62L220.59,-381.15L234.71,-392.32L243.24,-410.54L250.60,-473.76L237.96,-475.23L230.60,-412.02ZM228.87,-617.24L256.49,-524.33L271.47,-432.88L284.11,-431.41L298.23,-442.58L281.78,-521.38L286.20,-559.31L294.73,-577.54L307.37,-576.06L322.34,-484.62L327.93,-477.56L340.57,-476.09L354.69,-487.26L363.22,-505.49L370.58,-568.70L357.94,-570.17L350.57,-506.96L343.52,-501.37L334.13,-585.76L317.37,-606.93L290.61,-597.24L275.03,-573.42L272.08,-548.14L251.52,-646.64L202.12,-607.54L207.70,-600.49Z" fill="#ffffff" stroke="#000000"/>
    <path d="M-903.88,492L-906.92,488.96L-902.36,482.88L-893.24,482.88L-891.72,484.40L-891.72,488.96L-894.76,492L-884.12,492L-887.16,488.96L-887.16,460.08L-891.72,463.12L-891.72,464.64L-909.96,488.96L-914.52,492ZM-891.72,467.68L-891.72,479.84L-893.24,481.36L-900.84,481.36L-899.32,478.32ZM-862.84,476.80L-864.36,481.36L-870.44,487.44L-875,488.96L-876.52,488.96L-867.40,475.28L-867.40,472.24L-870.44,470.72L-875,472.24L-882.60,479.84L-881.08,481.36L-873.48,473.76L-871.96,473.76L-881.08,488.96L-881.08,490.48L-879.56,492L-876.52,492L-868.92,488.96L-862.84,482.88L-859.80,476.80L-859.80,473.76L-861.32,472.24L-864.36,472.24L-865.88,475.28L-864.36,476.80ZM-835.48,472.24L-837,470.72L-840.04,475.28L-841.56,472.24L-847.64,470.72L-855.24,476.80L-858.28,484.40L-856.76,490.48L-853.72,492L-850.68,492L-846.12,487.44L-846.12,490.48L-844.60,492L-840.04,490.48L-832.44,482.88L-833.96,481.36L-841.56,488.96L-843.08,488.96ZM-850.68,488.96L-852.20,488.96L-853.72,484.40L-850.68,478.32L-846.12,473.76L-843.08,473.76L-841.56,476.80L-841.56,478.32L-846.12,484.40ZM-832.44,479.84L-830.92,481.36L-823.32,473.76L-821.80,473.76L-830.92,490.48L-829.40,492L-826.36,492L-820.28,479.84L-815.72,476.80L-811.16,476.80L-809.64,472.24L-812.68,470.72L-815.72,472.24L-820.28,478.32L-821.80,478.32L-818.76,473.76L-818.76,472.24L-820.28,470.72L-824.84,472.24ZM-788.36,472.24L-789.88,470.72L-792.92,475.28L-794.44,472.24L-800.52,470.72L-808.12,476.80L-811.16,484.40L-809.64,490.48L-806.60,492L-803.56,492L-799,487.44L-799,490.48L-797.48,492L-792.92,490.48L-785.32,482.88L-786.84,481.36L-794.44,488.96L-795.96,488.96ZM-803.56,488.96L-805.08,488.96L-806.60,484.40L-803.56,478.32L-799,473.76L-795.96,473.76L-794.44,476.80L-794.44,478.32L-799,484.40ZM-783.80,479.84L-783.80,482.88L-774.68,482.88L-774.68,479.84ZM-765.56,461.60L-762.52,464.64L-770.12,488.96L-773.16,492L-757.96,492L-750.36,488.96L-745.80,482.88L-747.32,476.80L-751.88,475.28L-748.84,473.76L-744.28,469.20L-745.80,463.12L-753.40,461.60ZM-765.56,488.96L-757.96,464.64L-756.44,463.12L-753.40,463.12L-750.36,464.64L-750.36,469.20L-753.40,473.76L-757.96,475.28L-761,475.28L-761,476.80L-756.44,476.80L-753.40,478.32L-751.88,482.88L-754.92,487.44L-761,490.48L-764.04,490.48ZM-736.68,492L-733.64,492L-726.04,487.44L-721.48,478.32L-724.52,472.24L-730.60,470.72L-738.20,475.28L-742.76,484.40L-739.72,490.48ZM-730.60,473.76L-727.56,473.76L-726.04,478.32L-729.08,484.40L-733.64,488.96L-736.68,488.96L-738.20,484.40L-735.16,478.32ZM-715.40,488.96L-701.72,460.08L-712.36,460.08L-712.36,461.60L-707.80,461.60L-719.96,488.96L-719.96,490.48L-716.92,492L-712.36,490.48L-704.76,482.88L-706.28,481.36L-713.88,488.96ZM-689.56,492L-688.04,492L-685,490.48L-677.40,482.88L-678.92,481.36L-686.52,488.96L-688.04,488.96L-674.36,460.08L-685,460.08L-685,461.60L-680.44,461.60L-685,475.28L-686.52,472.24L-692.60,470.72L-700.20,476.80L-703.24,484.40L-701.72,490.48L-698.68,492L-695.64,492L-691.08,487.44L-691.08,490.48ZM-695.64,488.96L-697.16,488.96L-698.68,484.40L-695.64,478.32L-691.08,473.76L-688.04,473.76L-686.52,476.80L-686.52,478.32L-691.08,484.40ZM-669.80,488.96L-662.20,464.64L-657.64,461.60L-669.80,461.60L-666.76,464.64L-674.36,488.96L-678.92,492L-666.76,492ZM-657.64,488.96L-650.04,473.76L-645.48,473.76L-645.48,472.24L-650.04,472.24L-647,466.16L-650.04,466.16L-651.56,470.72L-654.60,472.24L-657.64,472.24L-657.64,473.76L-654.60,473.76L-662.20,488.96L-662.20,490.48L-660.68,492L-657.64,492L-654.60,490.48L-647,482.88L-648.52,481.36L-656.12,488.96ZM-621.16,472.24L-622.68,470.72L-625.72,475.28L-627.24,472.24L-633.32,470.72L-640.92,476.80L-643.96,484.40L-642.44,490.48L-639.40,492L-636.36,492L-631.80,487.44L-631.80,490.48L-630.28,492L-625.72,490.48L-618.12,482.88L-619.64,481.36L-627.24,488.96L-628.76,488.96ZM-636.36,488.96L-637.88,488.96L-639.40,484.40L-636.36,478.32L-631.80,473.76L-628.76,473.76L-627.24,476.80L-627.24,478.32L-631.80,484.40ZM-613.56,488.96L-599.88,460.08L-610.52,460.08L-610.52,461.60L-605.96,461.60L-618.12,488.96L-618.12,490.48L-615.08,492L-610.52,490.48L-602.92,482.88L-604.44,481.36L-612.04,488.96ZM-586.20,467.68L-584.68,467.68L-583.16,464.64L-583.16,463.12L-586.20,461.60L-587.72,461.60L-589.24,464.64L-589.24,466.16ZM-602.92,479.84L-601.40,481.36L-593.80,473.76L-592.28,473.76L-601.40,488.96L-601.40,490.48L-599.88,492L-596.84,492L-593.80,490.48L-586.20,482.88L-587.72,481.36L-595.32,488.96L-596.84,488.96L-587.72,473.76L-587.72,472.24L-590.76,470.72L-595.32,472.24ZM-564.92,478.32L-564.92,475.28L-566.44,472.24L-572.52,470.72L-580.12,475.28L-584.68,484.40L-583.16,490.48L-580.12,492L-577.08,492L-574.04,490.48L-567.96,484.40L-569.48,482.88L-575.56,488.96L-578.60,488.96L-580.12,484.40L-577.08,478.32L-572.52,473.76L-569.48,473.76L-569.48,478.32Z"/>
</svg>