<?xml version="1.0"?>
<svg xmlns="http://www.w3.org/2000/svg" width="1920" height="1080" viewBox="-960 -540 1920 1080">
    <path d="M-450.91,-210L-450.91,-273.23L-514.14,-273.23L-514.14,-291.30L-450.91,-291.30L-450.91,-354.53L-432.84,-354.53L-432.84,-291.30L-369.61,-291.30L-369.61,-273.23L-432.84,-273.23L-432.84,-210ZM-235.01,-210L-65.01,-210L-94.76,-392.25L-122.51,-223L-150.01,-392.25L-177.76,-223L-205.26,-392.25ZM25.99,-390.75L-60.01,-210L111.99,-210ZM25.99,-298.50L45.74,-253L5.24,-253ZM129.49,-210L200.49,-210L131.74,-318.25L196.24,-318.25L196.24,-385L129.49,-385ZM320.49,-218C277.49,-218 248.49,-251.75 248.49,-298C248.49,-343.75 275.49,-378 320.49,-378C341.49,-378 355.49,-370.25 365.24,-362.50C370.74,-358 375.24,-352.75 378.74,-347C375.49,-354.75 370.49,-362 363.99,-368.25C352.74,-379 334.99,-389.75 305.99,-389.75C255.24,-389.75 214.24,-348.75 214.24,-298C214.24,-247.25 255.24,-206.25 305.99,-206.25C332.24,-206.25 349.99,-217.25 361.99,-228.50C368.49,-234.75 373.99,-242.25 378.49,-250.25C374.74,-244.25 370.24,-238.75 364.99,-234.25C355.24,-226 341.24,-218 320.49,-218ZM-403.50,27.50L-312.75,-70.50L-403.25,-168.75L-494,-70.50ZM-403.25,-163.50C-386.75,-145.50 -376.50,-101.25 -376.50,-70.75C-376.50,-38.75 -386.75,2.75 -403.25,20.50C-420,2.50 -430.25,-39 -430.25,-70.75C-430.25,-102 -420,-145.50 -403.25,-163.50ZM-302.75,-127.50L-287.75,-93.50L-282.75,-93.50L-267.75,-127.50L-267.75,-160L-302.75,-160ZM-239,15L-135.25,15C-132,11.75 -129.25,7.75 -126.50,3.25C-122.25,-4.50 -117.75,-16.25 -117.75,-30.25C-117.75,-58.25 -134.50,-72.75 -135.25,-73.50C-134.50,-75.25 -120.75,-89 -120.75,-116.25C-120.75,-128.50 -124.75,-139.75 -129,-147.50C-131.75,-152 -134.50,-156.25 -137.75,-160L-239,-160ZM-170,-32.75C-170,-15 -181.50,3.50 -186.75,11L-186.75,-71C-181.50,-65.75 -170,-51.75 -170,-32.75ZM-173,-116.25C-173,-99 -182,-84.75 -186.75,-77.75L-186.75,-151.50C-180.50,-143.75 -173,-131.25 -173,-116.25ZM-87.75,15L-16.75,15L-85.50,-93.25L-21,-93.25L-21,-160L-87.75,-160ZM85.50,7.75L38.50,7.75L38.50,-153.50L85.50,-153.50L85.50,-160L-15.50,-160L-15.50,-153.50L31.50,-153.50L31.50,7.75L-15.50,7.75L-15.50,15L85.50,15ZM104.25,-72.50C104.25,-57.75 113.25,-46.25 126.50,-42.50C113.25,-38.75 104.25,-27 104.25,-12.25C104.25,5 117.25,18.75 134.50,18.75C148.75,18.75 160.25,9.25 164,-4C167.25,9.25 178.50,18.75 193.25,18.75C207.50,18.75 219,9.25 222.75,-4C226,9.25 237.25,18.75 252,18.75C269,18.75 282.50,5 282.50,-12.25C282.50,-29.25 269,-43.50 252,-43.50C237.25,-43.50 226,-34 222.75,-20.25C220,-31.25 211.75,-39.50 201,-42.50C214.25,-46.25 223.75,-57.75 223.75,-72.50C223.75,-87.25 214.25,-99 201,-102.75C211.75,-105.50 220,-113.75 222.75,-124.50C226,-111.25 237.25,-101.75 252,-101.75C269,-101.75 282.50,-115.50 282.50,-132.75C282.50,-149.75 269,-164 252,-164C237.25,-164 226,-154.50 222.75,-140.75C219,-154.50 208,-164 193.25,-164C178.50,-164 167.25,-154.50 164,-140.75C160.25,-154.50 149.25,-164 134.50,-164C117.25,-164 104.25,-149.75 104.25,-132.75C104.25,-118 113.25,-106.50 126.50,-102.75C113.25,-99 104.25,-87.25 104.25,-72.50ZM168.25,-72.50C168.25,-86.75 179,-98.25 193.25,-98.25C207.50,-98.25 218.25,-86.75 218.25,-72.50C218.25,-58.50 207.50,-47 193.25,-47C179,-47 168.25,-58.50 168.25,-72.50ZM109.50,-72.50C109.50,-86.75 120.25,-98.25 134.50,-98.25C148.75,-98.25 159.50,-86.75 159.50,-72.50C159.50,-58.50 148.75,-47 134.50,-47C120.25,-47 109.50,-58.50 109.50,-72.50ZM109.50,-12.25C109.50,-26.50 120.25,-38 134.50,-38C148.75,-38 159.50,-26.50 159.50,-12.25C159.50,1.75 148.75,13.25 134.50,13.25C120.25,13.25 109.50,1.75 109.50,-12.25ZM168.25,-12.25C168.25,-26.50 179,-38 193.25,-38C207.50,-38 218.25,-26.50 218.25,-12.25C218.25,1.75 207.50,13.25 193.25,13.25C179,13.25 168.25,1.75 168.25,-12.25ZM227,-12.25C227,-26.50 237.75,-38 252,-38C266.25,-38 277,-26.50 277,-12.25C277,1.75 266.25,13.25 252,13.25C237.75,13.25 227,1.75 227,-12.25ZM227,-132.75C227,-147 237.75,-158.50 252,-158.50C266.25,-158.50 277,-147 277,-132.75C277,-118.75 266.25,-107.25 252,-107.25C237.75,-107.25 227,-118.75 227,-132.75ZM109.50,-132.75C109.50,-147 120.25,-158.50 134.50,-158.50C148.75,-158.50 159.50,-147 159.50,-132.75C159.50,-118.75 148.75,-107.25 134.50,-107.25C120.25,-107.25 109.50,-118.75 109.50,-132.75ZM168.25,-132.75C168.25,-147 179,-158.50 193.25,-158.50C207.50,-158.50 218.25,-147 218.25,-132.75C218.25,-118.75 207.50,-107.25 193.25,-107.25C179,-107.25 168.25,-118.75 168.25,-132.75ZM164,-64.25C166.75,-53.50 174.50,-45.25 185.25,-42.50C174.50,-39.50 166.75,-31.25 164,-20.25C161.25,-31.25 153,-39.50 142.25,-42.50C153,-45.25 161.25,-53.50 164,-64.25ZM164,-124.50C166.75,-113.75 174.50,-105.50 185.25,-102.75C174.50,-99.75 166.75,-91.50 164,-80.50C161.25,-91.50 153,-99.75 142.25,-102.75C153,-105.50 161.25,-113.75 164,-124.50ZM408.50,15L416.50,15L416.50,-105.75C416.50,-139.50 393,-163.25 364,-163.25C335.25,-163.25 311.25,-139.50 311.25,-105.75L311.25,15L319.25,15L319.25,-105.75C319.25,-136 341,-155.75 364,-155.75C387.25,-155.75 408.50,-136 408.50,-105.50ZM393.50,15L401.50,15L401.50,-105.75C401.50,-131.75 385.25,-148.25 364,-148.25C343,-148.25 326.25,-131.75 326.25,-105.75L326.25,15L334.25,15L334.25,-105.75C334.25,-129.50 348.25,-140.75 364,-140.75C380,-140.75 393.50,-129 393.50,-105.50ZM378.25,15L386,15L386,-105.75C386,-122.50 377.25,-133.25 364,-133.25C351.25,-133.25 341.75,-122.75 341.75,-105.75L341.75,15L349.50,15L349.50,-105.75C349.50,-119.25 355.75,-125.75 364,-125.75C372,-125.75 378.25,-119.50 378.25,-105.50Z" fill="#ffffff" stroke="#000000"/>
    <path d="M-444.06,-222.30L-441.64,-284.85L-504.19,-287.28L-503.50,-305.15L-440.94,-302.73L-438.52,-365.28L-420.65,-364.59L-423.07,-302.03L-360.52,-299.61L-361.21,-281.73L-423.76,-284.16L-426.19,-221.61ZM-230.48,-214.02L-62.31,-207.50L-84.75,-388.93L-118.69,-222.57L-139.41,-391.05L-173.35,-224.68L-194.06,-393.17ZM34.65,-382.82L-57.36,-207.31L112.79,-200.71ZM31.11,-291.56L48.90,-245.79L8.84,-247.34ZM130.10,-200.04L200.34,-197.32L136.48,-307.04L200.29,-304.57L202.85,-370.60L136.81,-373.16ZM319.36,-200.63C276.82,-202.28 249.43,-236.78 251.20,-282.53C252.95,-327.79 280.98,-360.64 325.49,-358.91C346.27,-358.10 359.82,-349.90 369.17,-341.86C374.44,-337.20 378.69,-331.83 381.93,-326.01C379.01,-333.80 374.34,-341.16 368.15,-347.60C357.44,-358.66 340.29,-369.98 311.60,-371.09C261.40,-373.04 219.26,-334.05 217.32,-283.84C215.37,-233.64 254.36,-191.51 304.56,-189.56C330.53,-188.55 348.51,-198.76 360.81,-209.42C367.48,-215.36 373.21,-222.57 377.97,-230.31C374.03,-224.52 369.37,-219.25 364.00,-215.00C354.04,-207.21 339.88,-199.83 319.36,-200.63ZM-406.27,14.47L-312.74,-79.00L-398.50,-179.67L-492.04,-85.95ZM-398.70,-174.47C-383.07,-156.03 -374.62,-111.86 -375.79,-81.69C-377.02,-50.04 -388.75,-9.37 -405.75,7.55C-421.63,-10.90 -430.18,-52.34 -428.96,-83.75C-427.77,-114.67 -415.96,-157.31 -398.70,-174.47ZM-300.66,-135.00L-287.12,-100.79L-282.18,-100.60L-266.03,-133.66L-264.79,-165.81L-299.41,-167.15ZM-243.06,8.41L-140.42,12.39C-137.08,9.30 -134.21,5.45 -131.32,1.10C-126.81,-6.40 -121.91,-17.85 -121.38,-31.70C-120.30,-59.40 -136.32,-74.39 -137.03,-75.16C-136.22,-76.86 -122.09,-89.94 -121.04,-116.89C-120.58,-129.01 -124.10,-140.30 -128.01,-148.13C-130.56,-152.68 -133.11,-156.99 -136.18,-160.83L-236.35,-164.71ZM-172.97,-36.18C-173.65,-18.62 -185.73,-0.76 -191.22,6.46L-188.07,-74.66C-183.08,-69.27 -172.24,-54.98 -172.97,-36.18ZM-172.73,-118.90C-173.40,-101.83 -182.84,-88.08 -187.81,-81.34L-184.98,-154.30C-179.10,-146.39 -172.16,-133.74 -172.73,-118.90ZM-93.43,14.21L-23.20,16.93L-87.06,-92.79L-23.25,-90.32L-20.69,-156.35L-86.72,-158.91ZM78.23,13.68L31.74,11.88L37.92,-147.64L84.42,-145.83L84.67,-152.26L-15.25,-156.14L-15.50,-149.71L31.00,-147.91L24.81,11.61L-21.68,9.81L-21.96,16.98L77.96,20.86ZM99.86,-64.99C99.29,-50.39 107.76,-38.67 120.72,-34.45C107.47,-31.25 98.11,-19.97 97.55,-5.38C96.89,11.68 109.22,25.78 126.29,26.44C140.38,26.99 152.12,18.03 156.34,5.07C159.05,18.30 169.81,28.13 184.40,28.70C198.50,29.24 210.24,20.29 214.46,7.32C217.17,20.56 227.93,30.39 242.52,30.95C259.34,31.60 273.22,18.52 273.88,1.45C274.54,-15.36 261.73,-29.98 244.91,-30.63C230.32,-31.20 218.83,-22.23 215.08,-8.75C212.78,-19.74 204.94,-28.22 194.42,-31.60C207.67,-34.80 217.51,-45.81 218.08,-60.40C218.64,-74.99 209.69,-86.98 196.73,-91.20C207.47,-93.51 215.95,-101.35 219.08,-111.88C221.79,-98.65 232.55,-88.82 247.14,-88.25C263.96,-87.60 277.84,-100.69 278.51,-117.75C279.16,-134.57 266.35,-149.18 249.53,-149.84C234.94,-150.40 223.45,-141.43 219.70,-127.96C216.52,-141.70 206.00,-151.52 191.41,-152.09C176.82,-152.65 165.33,-143.69 161.59,-130.21C158.40,-143.96 147.89,-153.78 133.29,-154.34C116.23,-155.00 102.82,-141.41 102.17,-124.59C101.61,-110.00 110.07,-98.27 123.03,-94.06C109.78,-90.86 100.43,-79.58 99.86,-64.99ZM163.17,-62.53C163.72,-76.63 174.79,-87.59 188.89,-87.05C202.99,-86.50 213.18,-74.71 212.64,-60.61C212.10,-46.76 201.02,-35.80 186.93,-36.35C172.83,-36.89 162.64,-48.68 163.17,-62.53ZM105.05,-64.78C105.60,-78.88 116.68,-89.84 130.77,-89.30C144.87,-88.75 155.06,-76.96 154.52,-62.87C153.98,-49.02 142.90,-38.05 128.81,-38.60C114.71,-39.15 104.52,-50.93 105.05,-64.78ZM102.74,-5.18C103.29,-19.28 114.36,-30.24 128.46,-29.70C142.56,-29.15 152.75,-17.36 152.21,-3.26C151.67,10.59 140.59,21.55 126.50,21.00C112.40,20.46 102.21,8.67 102.74,-5.18ZM160.86,-2.93C161.41,-17.02 172.48,-27.99 186.58,-27.44C200.68,-26.90 210.87,-15.11 210.32,-1.01C209.79,12.84 198.71,23.80 184.62,23.26C170.52,22.71 160.32,10.92 160.86,-2.93ZM218.98,-0.67C219.53,-14.77 230.60,-25.74 244.70,-25.19C258.80,-24.64 268.99,-12.85 268.44,1.24C267.91,15.09 256.83,26.06 242.73,25.51C228.64,24.96 218.44,13.17 218.98,-0.67ZM223.60,-119.88C224.15,-133.98 235.22,-144.94 249.32,-144.39C263.42,-143.85 273.61,-132.06 273.06,-117.96C272.53,-104.11 261.45,-93.15 247.36,-93.70C233.26,-94.24 223.07,-106.03 223.60,-119.88ZM107.36,-124.39C107.91,-138.48 118.99,-149.45 133.08,-148.90C147.18,-148.35 157.37,-136.57 156.83,-122.47C156.29,-108.62 145.21,-97.66 131.12,-98.20C117.02,-98.75 106.83,-110.54 107.36,-124.39ZM165.48,-122.13C166.03,-136.23 177.11,-147.19 191.20,-146.65C205.30,-146.10 215.49,-134.31 214.95,-120.22C214.41,-106.37 203.33,-95.40 189.24,-95.95C175.14,-96.50 164.95,-108.28 165.48,-122.13ZM158.65,-54.53C160.96,-43.79 168.31,-35.33 178.84,-32.20C168.09,-29.65 160.11,-21.78 156.96,-11.00C154.67,-21.99 146.82,-30.47 136.30,-33.85C147.04,-36.16 155.52,-44.00 158.65,-54.53ZM160.96,-114.14C163.27,-103.40 170.62,-94.94 181.15,-91.80C170.40,-89.25 162.42,-81.38 159.27,-70.61C156.98,-81.60 149.13,-90.07 138.61,-93.45C149.35,-95.76 157.83,-103.61 160.96,-114.14ZM397.49,33.24L405.40,33.55L410.03,-85.90C411.33,-119.29 388.99,-143.69 360.30,-144.80C331.86,-145.90 307.21,-123.33 305.91,-89.94L301.28,29.51L309.19,29.82L313.83,-89.63C314.99,-119.56 337.26,-138.26 360.01,-137.38C383.01,-136.49 403.28,-116.13 402.11,-85.96ZM382.65,32.67L390.56,32.98L395.19,-86.48C396.19,-112.20 380.75,-129.14 359.72,-129.96C338.95,-130.76 321.75,-115.08 320.75,-89.36L316.12,30.09L324.03,30.40L328.66,-89.06C329.58,-112.55 343.86,-123.14 359.44,-122.54C375.27,-121.93 388.17,-109.78 387.27,-86.54ZM367.56,32.08L375.23,32.38L379.86,-87.07C380.50,-103.64 372.26,-114.61 359.15,-115.12C346.54,-115.61 336.74,-105.59 336.08,-88.77L331.45,30.68L339.12,30.98L343.75,-88.47C344.27,-101.83 350.70,-108.02 358.86,-107.70C366.78,-107.39 372.72,-100.97 372.18,-87.12Z" fill="#ffffff" stroke="#000000"/>
    <path d="M-436.81,-234.44L-432.01,-296.22L-493.79,-301.02L-492.42,-318.67L-430.64,-313.88L-425.84,-375.66L-408.19,-374.29L-412.99,-312.51L-351.21,-307.71L-352.58,-290.06L-414.36,-294.85L-419.16,-233.07ZM-225.86,-218.06L-59.76,-205.16L-75.00,-385.49L-114.96,-222.23L-128.99,-389.68L-168.94,-226.42L-182.97,-393.87ZM42.86,-374.86L-54.88,-204.78L113.17,-191.73ZM35.86,-284.73L51.71,-238.77L12.14,-241.85ZM130.27,-190.41L199.64,-185.02L140.68,-296.00L203.70,-291.11L208.77,-356.33L143.55,-361.39ZM317.50,-183.73C275.48,-186.99 249.71,-222.17 253.22,-267.36C256.69,-312.06 285.67,-343.47 329.64,-340.06C350.16,-338.47 363.25,-329.83 372.19,-321.52C377.22,-316.71 381.22,-311.23 384.20,-305.35C381.61,-313.17 377.28,-320.63 371.40,-327.23C361.22,-338.59 344.70,-350.44 316.36,-352.64C266.78,-356.49 223.61,-319.54 219.76,-269.96C215.90,-220.37 252.85,-177.20 302.44,-173.35C328.09,-171.36 346.26,-180.76 358.84,-190.84C365.67,-196.45 371.61,-203.36 376.61,-210.84C372.50,-205.26 367.68,-200.23 362.21,-196.23C352.06,-188.91 337.77,-182.16 317.50,-183.73ZM-408.51,1.21L-312.41,-87.66L-393.38,-190.52L-489.50,-101.41ZM-393.77,-185.39C-379.02,-166.55 -372.36,-122.54 -374.67,-92.74C-377.10,-61.48 -390.27,-21.71 -407.73,-5.61C-422.73,-24.47 -429.60,-65.80 -427.19,-96.82C-424.82,-127.35 -411.50,-169.08 -393.77,-185.39ZM-298.31,-142.59L-286.23,-108.24L-281.35,-107.86L-264.11,-139.94L-261.65,-171.69L-295.84,-174.35ZM-246.84,1.47L-145.47,9.35C-142.04,6.42 -139.05,2.72 -136.02,-1.47C-131.28,-8.72 -126.00,-19.86 -124.93,-33.54C-122.81,-60.90 -138.07,-76.33 -138.75,-77.12C-137.88,-78.78 -123.41,-91.17 -121.34,-117.79C-120.41,-129.76 -123.46,-141.06 -127.03,-148.95C-129.37,-153.56 -131.74,-157.92 -134.63,-161.83L-233.56,-169.51ZM-175.80,-39.95C-177.14,-22.60 -189.78,-5.40 -195.48,1.53L-189.26,-78.59C-184.53,-73.06 -174.35,-58.51 -175.80,-39.95ZM-172.39,-121.76C-173.70,-104.90 -183.57,-91.66 -188.75,-85.18L-183.15,-157.24C-177.63,-149.20 -171.25,-136.41 -172.39,-121.76ZM-99.05,12.95L-29.68,18.34L-88.64,-92.65L-25.62,-87.75L-20.56,-152.97L-85.78,-158.04ZM70.77,19.01L24.85,15.45L37.08,-142.11L83.01,-138.54L83.50,-144.89L-15.18,-152.55L-15.68,-146.20L30.24,-142.64L18.01,14.91L-27.91,11.35L-28.46,18.43L70.22,26.09ZM95.18,-57.98C94.06,-43.56 101.98,-31.64 114.64,-26.98C101.41,-24.32 91.73,-13.52 90.61,0.89C89.30,17.75 100.96,32.17 117.81,33.48C131.73,34.56 143.69,26.15 148.36,13.49C150.53,26.68 160.80,36.82 175.21,37.93C189.14,39.02 201.09,30.61 205.76,17.94C207.93,31.14 218.20,41.27 232.62,42.39C249.23,43.68 263.46,31.27 264.77,14.42C266.06,-2.19 253.95,-17.14 237.34,-18.43C222.93,-19.55 211.21,-11.12 207.00,2.07C205.14,-8.89 197.71,-17.58 187.43,-21.32C200.66,-23.98 210.82,-34.50 211.94,-48.91C213.06,-63.32 204.67,-75.52 192.00,-80.19C202.72,-82.06 211.40,-89.50 214.91,-99.79C217.08,-86.60 227.35,-76.46 241.76,-75.34C258.37,-74.05 272.60,-86.46 273.91,-103.32C275.20,-119.93 263.09,-134.88 246.48,-136.17C232.07,-137.28 220.36,-128.86 216.14,-115.67C213.52,-129.39 203.49,-139.50 189.08,-140.62C174.67,-141.74 162.96,-133.31 158.74,-120.13C156.12,-133.85 146.09,-143.96 131.68,-145.08C114.82,-146.39 101.04,-133.45 99.75,-116.84C98.63,-102.43 106.55,-90.51 119.21,-85.84C105.98,-83.18 96.30,-72.39 95.18,-57.98ZM157.71,-53.12C158.79,-67.04 170.17,-77.46 184.09,-76.38C198.01,-75.30 207.65,-63.25 206.56,-49.33C205.50,-35.65 194.13,-25.23 180.20,-26.31C166.28,-27.39 156.65,-39.44 157.71,-53.12ZM100.31,-57.58C101.39,-71.50 112.77,-81.92 126.69,-80.84C140.61,-79.76 150.24,-67.71 149.16,-53.78C148.10,-40.10 136.72,-29.68 122.80,-30.76C108.88,-31.85 99.25,-43.90 100.31,-57.58ZM95.74,1.29C96.82,-12.63 108.19,-23.05 122.12,-21.97C136.04,-20.89 145.67,-8.84 144.59,5.08C143.53,18.76 132.15,29.18 118.23,28.10C104.31,27.02 94.68,14.97 95.74,1.29ZM153.14,5.75C154.22,-8.17 165.60,-18.60 179.52,-17.51C193.44,-16.43 203.07,-4.38 201.99,9.54C200.93,23.22 189.55,33.64 175.63,32.56C161.71,31.48 152.08,19.43 153.14,5.75ZM210.54,10.21C211.62,-3.72 223.00,-14.14 236.92,-13.06C250.85,-11.98 260.48,0.08 259.39,14.00C258.33,27.68 246.96,38.10 233.03,37.02C219.11,35.94 209.48,23.88 210.54,10.21ZM219.68,-107.53C220.77,-121.45 232.14,-131.87 246.06,-130.79C259.99,-129.71 269.62,-117.66 268.54,-103.74C267.48,-90.06 256.10,-79.64 242.18,-80.72C228.25,-81.80 218.62,-93.85 219.68,-107.53ZM104.88,-116.44C105.96,-130.37 117.34,-140.79 131.26,-139.71C145.18,-138.63 154.81,-126.57 153.73,-112.65C152.67,-98.97 141.29,-88.55 127.37,-89.63C113.45,-90.71 103.82,-102.77 104.88,-116.44ZM162.28,-111.99C163.36,-125.91 174.74,-136.33 188.66,-135.25C202.59,-134.17 212.22,-122.12 211.14,-108.19C210.07,-94.51 198.70,-84.09 184.77,-85.18C170.85,-86.26 161.22,-98.31 162.28,-111.99ZM152.93,-45.38C154.80,-34.67 161.75,-26.02 172.04,-22.52C161.31,-20.40 153.12,-12.93 149.59,-2.39C147.74,-13.35 140.31,-22.03 130.03,-25.78C140.74,-27.65 149.43,-35.09 152.93,-45.38ZM157.50,-104.25C159.38,-93.54 166.32,-84.89 176.62,-81.39C165.89,-79.27 157.69,-71.80 154.17,-61.26C152.31,-72.21 144.88,-80.90 134.60,-84.65C145.31,-86.52 154.00,-93.95 157.50,-104.25ZM385.81,50.60L393.63,51.21L402.79,-66.77C405.35,-99.75 384.19,-124.73 355.86,-126.94C327.77,-129.12 302.51,-107.73 299.95,-74.76L290.79,43.22L298.61,43.83L307.77,-74.15C310.06,-103.71 332.81,-121.35 355.29,-119.61C378.00,-117.84 397.27,-96.93 394.95,-67.13ZM371.15,49.46L378.97,50.07L388.13,-67.91C390.11,-93.31 375.48,-110.67 354.72,-112.28C334.20,-113.87 316.58,-99.02 314.61,-73.62L305.45,44.36L313.26,44.97L322.43,-73.01C324.23,-96.22 338.76,-106.15 354.15,-104.95C369.78,-103.74 382.08,-91.23 380.30,-68.27ZM356.25,48.31L363.83,48.89L372.99,-69.09C374.26,-85.45 366.53,-96.62 353.58,-97.62C341.12,-98.59 331.04,-89.05 329.75,-72.44L320.59,45.54L328.16,46.13L337.33,-71.85C338.35,-85.04 344.95,-90.92 353.01,-90.30C360.83,-89.69 366.46,-83.11 365.40,-69.43Z" fill="#ffffff" stroke="#000000"/>
    <path d="M-429.16,-246.41L-422.04,-307.33L-482.96,-314.45L-480.93,-331.85L-420.01,-324.74L-412.90,-385.66L-395.49,-383.63L-402.60,-322.70L-341.68,-315.59L-343.72,-298.18L-404.64,-305.30L-411.75,-244.38ZM-221.15,-222.12L-57.36,-202.99L-65.52,-381.93L-111.30,-221.99L-118.75,-388.15L-164.53,-228.20L-171.98,-394.36ZM50.65,-366.90L-52.54,-202.43L113.17,-183.08ZM40.27,-278.02L54.18,-231.96L15.16,-236.52ZM130.03,-181.11L198.43,-173.12L144.38,-285.15L206.52,-277.89L214.03,-342.21L149.72,-349.71ZM314.95,-167.33C273.52,-172.17 249.38,-207.95 254.58,-252.51C259.73,-296.58 289.59,-326.54 332.95,-321.48C353.18,-319.12 365.80,-310.08 374.32,-301.51C379.11,-296.56 382.86,-290.99 385.58,-285.06C383.32,-292.89 379.32,-300.44 373.76,-307.19C364.13,-318.82 348.24,-331.17 320.30,-334.43C271.41,-340.14 227.29,-305.25 221.58,-256.36C215.87,-207.46 250.76,-163.35 299.66,-157.64C324.95,-154.69 343.29,-163.29 356.11,-172.78C363.08,-178.07 369.22,-184.67 374.46,-191.88C370.17,-186.52 365.22,-181.72 359.65,-177.98C349.33,-171.13 334.94,-164.99 314.95,-167.33ZM-410.20,-12.26L-311.74,-96.46L-387.88,-201.31L-486.37,-116.86ZM-388.47,-196.25C-374.60,-177.05 -369.70,-133.26 -373.13,-103.88C-376.74,-73.05 -391.28,-34.22 -409.17,-18.97C-423.29,-38.20 -428.49,-79.33 -424.92,-109.92C-421.40,-140.03 -406.64,-180.79 -388.47,-196.25ZM-295.70,-150.26L-285.07,-115.81L-280.25,-115.25L-261.97,-146.32L-258.32,-177.63L-292.04,-181.57ZM-250.31,-5.79L-150.35,5.88C-146.85,3.12 -143.75,-0.43 -140.60,-4.46C-135.63,-11.44 -129.97,-22.26 -128.40,-35.75C-125.25,-62.72 -139.75,-78.58 -140.39,-79.38C-139.47,-80.99 -124.68,-92.69 -121.61,-118.94C-120.23,-130.74 -122.82,-142.03 -126.05,-149.98C-128.19,-154.62 -130.36,-159.03 -133.07,-163.00L-230.62,-174.40ZM-178.46,-44.03C-180.45,-26.93 -193.62,-10.40 -199.52,-3.77L-190.29,-82.77C-185.82,-77.12 -176.32,-62.34 -178.46,-44.03ZM-171.95,-124.82C-173.89,-108.20 -184.17,-95.48 -189.53,-89.27L-181.23,-160.33C-176.09,-152.16 -170.27,-139.27 -171.95,-124.82ZM-104.59,11.23L-36.18,19.21L-90.24,-92.82L-28.10,-85.56L-20.59,-149.87L-84.90,-157.38ZM63.15,23.73L17.87,18.44L36.01,-136.91L81.29,-131.62L82.02,-137.89L-15.29,-149.25L-16.02,-142.99L29.26,-137.70L11.12,17.66L-34.16,12.37L-34.98,19.35L62.33,30.72ZM90.24,-51.48C88.58,-37.26 95.96,-25.17 108.30,-20.07C95.12,-17.95 85.12,-7.64 83.46,6.57C81.52,23.19 92.50,37.90 109.12,39.84C122.85,41.45 135.00,33.59 140.10,21.24C141.74,34.37 151.51,44.79 165.72,46.45C179.45,48.06 191.60,40.20 196.70,27.85C198.35,40.98 208.12,51.40 222.33,53.06C238.70,54.98 253.26,43.25 255.20,26.63C257.11,10.25 245.71,-5.00 229.33,-6.91C215.12,-8.57 203.21,-0.68 198.53,12.20C197.12,1.29 190.10,-7.59 180.08,-11.69C193.27,-13.81 203.72,-23.82 205.37,-38.03C207.03,-52.24 199.20,-64.63 186.86,-69.73C197.53,-71.17 206.40,-78.20 210.26,-88.24C211.90,-75.11 221.67,-64.69 235.88,-63.03C252.26,-61.12 266.82,-72.85 268.76,-89.47C270.67,-105.85 259.27,-121.10 242.89,-123.01C228.68,-124.67 216.77,-116.78 212.09,-103.90C210.02,-117.57 200.49,-127.96 186.28,-129.62C172.07,-131.28 160.17,-123.39 155.49,-110.51C153.42,-124.18 143.89,-134.57 129.68,-136.23C113.06,-138.17 98.93,-125.90 97.02,-109.52C95.36,-95.31 102.74,-83.22 115.08,-78.12C101.89,-75.99 91.90,-65.69 90.24,-51.48ZM151.90,-44.28C153.51,-58.00 165.16,-67.87 178.89,-66.27C192.62,-64.67 201.68,-52.38 200.08,-38.65C198.50,-25.16 186.85,-15.29 173.12,-16.89C159.39,-18.50 150.33,-30.79 151.90,-44.28ZM95.30,-50.88C96.90,-64.61 108.55,-74.48 122.28,-72.88C136.01,-71.28 145.08,-58.99 143.47,-45.26C141.90,-31.77 130.25,-21.90 116.52,-23.50C102.79,-25.11 93.73,-37.40 95.30,-50.88ZM88.52,7.16C90.12,-6.57 101.78,-16.44 115.51,-14.83C129.23,-13.23 138.30,-0.94 136.69,12.79C135.12,26.28 123.47,36.15 109.74,34.54C96.01,32.94 86.95,20.65 88.52,7.16ZM145.12,13.77C146.73,0.04 158.38,-9.83 172.11,-8.22C185.84,-6.62 194.90,5.67 193.30,19.40C191.72,32.89 180.07,42.76 166.34,41.15C152.61,39.55 143.55,27.26 145.12,13.77ZM201.73,20.38C203.33,6.65 214.98,-3.22 228.71,-1.61C242.44,-0.01 251.50,12.28 249.90,26.01C248.32,39.50 236.67,49.37 222.94,47.76C209.22,46.16 200.15,33.87 201.73,20.38ZM215.28,-95.71C216.89,-109.44 228.54,-119.31 242.27,-117.71C256.00,-116.11 265.06,-103.82 263.46,-90.09C261.88,-76.60 250.23,-66.73 236.50,-68.33C222.77,-69.94 213.71,-82.22 215.28,-95.71ZM102.08,-108.93C103.68,-122.66 115.33,-132.53 129.06,-130.93C142.79,-129.33 151.85,-117.04 150.25,-103.31C148.68,-89.82 137.03,-79.95 123.30,-81.55C109.57,-83.16 100.50,-95.44 102.08,-108.93ZM158.68,-102.32C160.28,-116.05 171.94,-125.92 185.67,-124.32C199.39,-122.72 208.46,-110.43 206.85,-96.70C205.28,-83.21 193.63,-73.34 179.90,-74.94C166.17,-76.55 157.11,-88.83 158.68,-102.32ZM146.88,-36.80C148.32,-26.14 154.86,-17.32 164.91,-13.46C154.21,-11.78 145.82,-4.70 141.93,5.59C140.52,-5.32 133.50,-14.20 123.48,-18.30C134.14,-19.74 143.02,-26.76 146.88,-36.80ZM153.66,-94.85C155.10,-84.19 161.64,-75.37 171.69,-71.51C160.99,-69.83 152.60,-62.75 148.71,-52.46C147.30,-63.37 140.28,-72.24 130.26,-76.34C140.92,-77.78 149.80,-84.81 153.66,-94.85ZM373.53,67.06L381.24,67.96L394.82,-48.38C398.62,-80.90 378.65,-106.42 350.71,-109.69C323.01,-112.92 297.21,-92.74 293.42,-60.22L279.83,56.12L287.54,57.02L301.13,-59.32C304.53,-88.47 327.71,-105.05 349.87,-102.46C372.27,-99.84 390.52,-78.42 387.09,-49.04ZM359.08,65.37L366.78,66.27L380.37,-50.07C383.29,-75.12 369.49,-92.84 349.02,-95.23C328.79,-97.60 310.79,-83.58 307.87,-58.53L294.28,57.80L301.99,58.70L315.58,-57.63C318.25,-80.52 333.00,-89.78 348.18,-88.01C363.59,-86.21 375.28,-73.37 372.63,-50.73ZM344.38,63.65L351.85,64.53L365.44,-51.81C367.32,-67.95 360.10,-79.29 347.33,-80.78C335.05,-82.22 324.72,-73.17 322.80,-56.79L309.22,59.55L316.68,60.42L330.27,-55.92C331.79,-68.92 338.54,-74.48 346.49,-73.56C354.20,-72.66 359.52,-65.93 357.94,-52.44Z" fill="#ffffff" stroke="#000000"/>
    <path d="M-421.10,-258.18L-411.73,-318.16L-471.71,-327.53L-469.03,-344.67L-409.05,-335.30L-399.68,-395.27L-382.55,-392.59L-391.92,-332.62L-331.94,-323.25L-334.62,-306.11L-394.60,-315.48L-403.97,-255.51ZM-216.32,-226.19L-55.08,-200.99L-56.29,-378.26L-107.69,-221.84L-108.69,-386.45L-160.10,-230.03L-161.10,-394.64ZM58.02,-358.95L-50.34,-200.25L112.80,-174.76ZM44.35,-271.45L56.34,-225.36L17.92,-231.37ZM129.40,-172.17L196.74,-161.64L147.58,-274.51L208.76,-264.95L218.65,-328.26L155.34,-338.15ZM311.75,-151.45C270.96,-157.82 248.46,-194.13 255.31,-238.00C262.09,-281.39 292.78,-309.88 335.46,-303.21C355.38,-300.09 367.51,-290.67 375.61,-281.87C380.16,-276.79 383.65,-271.14 386.12,-265.17C384.18,-273.00 380.51,-280.62 375.28,-287.51C366.20,-299.38 350.96,-312.20 323.45,-316.50C275.31,-324.02 230.35,-291.21 222.83,-243.07C215.31,-194.94 248.12,-149.97 296.25,-142.45C321.15,-138.56 339.62,-146.37 352.67,-155.26C359.76,-160.22 366.09,-166.52 371.54,-173.44C367.09,-168.31 362.01,-163.76 356.36,-160.27C345.89,-153.89 331.43,-148.37 311.75,-151.45ZM-411.33,-25.89L-310.73,-105.39L-382.01,-212.00L-482.65,-132.26ZM-382.79,-207.02C-369.81,-187.50 -366.64,-144.01 -371.16,-115.08C-375.91,-84.73 -391.78,-46.88 -410.06,-32.49C-423.28,-52.05 -426.85,-92.93 -422.15,-123.05C-417.51,-152.69 -401.35,-192.43 -382.79,-207.02ZM-292.80,-157.98L-283.61,-123.50L-278.87,-122.76L-259.60,-152.79L-254.79,-183.61L-287.99,-188.80ZM-253.45,-13.37L-155.05,2.01C-151.48,-0.59 -148.28,-3.98 -145.01,-7.84C-139.83,-14.56 -133.82,-25.04 -131.74,-38.32C-127.59,-64.88 -141.33,-81.11 -141.93,-81.93C-140.96,-83.48 -125.88,-94.49 -121.84,-120.33C-120.03,-131.95 -122.16,-143.21 -125.04,-151.20C-126.98,-155.87 -128.96,-160.31 -131.48,-164.35L-227.52,-179.35ZM-180.93,-48.43C-183.56,-31.60 -197.21,-15.75 -203.30,-9.42L-191.15,-87.19C-186.95,-81.44 -178.12,-66.45 -180.93,-48.43ZM-171.40,-128.08C-173.96,-111.71 -184.61,-99.53 -190.15,-93.60L-179.22,-163.55C-174.44,-155.27 -169.18,-142.30 -171.40,-128.08ZM-110.00,9.05L-42.65,19.57L-91.82,-93.29L-30.64,-83.73L-20.75,-147.05L-84.06,-156.94ZM55.41,27.85L10.83,20.88L34.72,-132.06L79.30,-125.10L80.27,-131.26L-15.53,-146.23L-16.49,-140.07L28.08,-133.10L4.19,19.84L-40.39,12.88L-41.47,19.76L54.33,34.72ZM85.08,-45.49C82.90,-31.50 89.73,-19.26 101.74,-13.74C88.62,-12.15 78.34,-2.33 76.15,11.66C73.60,28.02 83.89,42.99 100.25,45.54C113.77,47.65 126.08,40.35 131.60,28.34C132.72,41.39 141.98,52.06 155.97,54.25C169.49,56.36 181.81,49.06 187.33,37.04C188.45,50.09 197.71,60.77 211.70,62.96C227.82,65.48 242.67,54.43 245.22,38.07C247.74,21.95 237.05,6.43 220.92,3.91C206.93,1.73 194.86,9.07 189.74,21.63C188.76,10.79 182.15,1.74 172.40,-2.70C185.53,-4.29 196.24,-13.79 198.43,-27.78C200.61,-41.77 193.34,-54.32 181.33,-59.84C191.94,-60.86 200.98,-67.46 205.19,-77.25C206.30,-64.20 215.57,-53.52 229.56,-51.34C245.68,-48.82 260.52,-59.86 263.08,-76.22C265.60,-92.34 254.91,-107.86 238.78,-110.38C224.79,-112.57 212.71,-105.22 207.59,-92.66C206.07,-106.26 197.05,-116.90 183.06,-119.09C169.07,-121.27 156.99,-113.93 151.87,-101.37C150.35,-114.97 141.33,-125.61 127.34,-127.79C110.97,-130.35 96.53,-118.76 94.01,-102.64C91.83,-88.65 98.66,-76.41 110.67,-70.88C97.55,-69.29 87.27,-59.48 85.08,-45.49ZM145.79,-36.01C147.90,-49.52 159.80,-58.84 173.31,-56.72C186.83,-54.61 195.32,-42.11 193.21,-28.60C191.14,-15.32 179.24,-6.00 165.72,-8.11C152.20,-10.23 143.71,-22.73 145.79,-36.01ZM90.06,-44.71C92.17,-58.23 104.07,-67.54 117.59,-65.43C131.11,-63.32 139.60,-50.82 137.49,-37.30C135.41,-24.02 123.51,-14.71 110.00,-16.82C96.48,-18.93 87.99,-31.43 90.06,-44.71ZM81.13,12.43C83.24,-1.08 95.15,-10.40 108.66,-8.28C122.18,-6.17 130.67,6.33 128.56,19.84C126.48,33.12 114.58,42.44 101.07,40.33C87.55,38.21 79.06,25.71 81.13,12.43ZM136.86,21.14C138.97,7.63 150.87,-1.69 164.39,0.42C177.90,2.53 186.39,15.04 184.28,28.55C182.21,41.83 170.31,51.14 156.79,49.03C143.27,46.92 134.78,34.42 136.86,21.14ZM192.58,29.85C194.69,16.33 206.59,7.02 220.11,9.13C233.63,11.24 242.12,23.74 240.01,37.26C237.93,50.54 226.03,59.85 212.51,57.74C199.00,55.63 190.51,43.13 192.58,29.85ZM210.44,-84.45C212.55,-97.96 224.45,-107.28 237.97,-105.16C251.48,-103.05 259.98,-90.55 257.86,-77.03C255.79,-63.76 243.89,-54.44 230.37,-56.55C216.86,-58.67 208.36,-71.17 210.44,-84.45ZM98.99,-101.86C101.10,-115.37 113.00,-124.69 126.52,-122.58C140.04,-120.47 148.53,-107.96 146.42,-94.45C144.34,-81.17 132.44,-71.86 118.92,-73.97C105.41,-76.08 96.92,-88.58 98.99,-101.86ZM154.72,-93.15C156.83,-106.67 168.73,-115.98 182.24,-113.87C195.76,-111.76 204.25,-99.26 202.14,-85.74C200.07,-72.46 188.16,-63.15 174.65,-65.26C161.13,-67.37 152.64,-79.87 154.72,-93.15ZM140.53,-28.81C141.55,-18.21 147.68,-9.23 157.46,-5.03C146.82,-3.78 138.25,2.90 134.01,12.92C133.03,2.08 126.43,-6.97 116.68,-11.40C127.28,-12.42 136.33,-19.02 140.53,-28.81ZM149.46,-85.96C150.48,-75.35 156.60,-66.38 166.39,-62.18C155.75,-60.93 147.18,-54.25 142.94,-44.22C141.96,-55.06 135.36,-64.11 125.61,-68.55C136.21,-69.57 145.26,-76.17 149.46,-85.96ZM360.69,82.59L368.28,83.78L386.18,-30.75C391.18,-62.76 372.41,-88.77 344.90,-93.07C317.63,-97.33 291.35,-78.36 286.35,-46.35L268.45,68.18L276.04,69.37L293.94,-45.16C298.42,-73.86 321.98,-89.37 343.79,-85.96C365.84,-82.51 383.07,-60.63 378.55,-31.70ZM346.47,80.37L354.05,81.56L371.95,-32.97C375.80,-57.64 362.84,-75.69 342.68,-78.84C322.76,-81.96 304.43,-68.79 300.58,-44.13L282.68,70.40L290.27,71.59L308.16,-42.94C311.68,-65.47 326.63,-74.06 341.57,-71.73C356.74,-69.36 367.81,-56.21 364.32,-33.92ZM332.00,78.11L339.35,79.26L357.25,-35.27C359.73,-51.16 353.02,-62.65 340.46,-64.62C328.36,-66.51 317.80,-57.95 315.28,-41.83L297.38,72.70L304.73,73.85L322.63,-40.68C324.63,-53.49 331.52,-58.72 339.35,-57.50C346.93,-56.32 351.93,-49.46 349.86,-36.18Z" fill="#ffffff" stroke="#000000"/>
    <path d="M-412.65,-269.75L-401.08,-328.69L-460.03,-340.26L-456.72,-357.10L-397.78,-345.54L-386.21,-404.48L-369.37,-401.18L-380.93,-342.23L-321.99,-330.67L-325.29,-313.82L-384.24,-325.39L-395.81,-266.44ZM-211.38,-230.26L-52.90,-199.16L-47.30,-374.50L-104.13,-221.80L-98.81,-384.61L-155.63,-231.90L-150.31,-394.71ZM64.99,-351.02L-48.24,-198.25L112.10,-166.79ZM48.12,-265.02L58.21,-218.99L20.45,-226.40ZM128.41,-163.59L194.60,-150.60L150.31,-264.09L210.44,-252.29L222.65,-314.52L160.42,-326.73ZM307.93,-136.11C267.85,-143.97 246.99,-180.74 255.45,-223.86C263.81,-266.50 295.25,-293.49 337.20,-285.26C356.78,-281.42 368.41,-271.64 376.08,-262.63C380.39,-257.43 383.62,-251.71 385.83,-245.71C384.22,-253.53 380.88,-261.20 375.97,-268.22C367.45,-280.30 352.87,-293.57 325.83,-298.87C278.52,-308.15 232.80,-277.43 223.52,-230.12C214.23,-182.81 244.96,-137.09 292.27,-127.81C316.74,-123.01 335.30,-130.01 348.54,-138.31C355.74,-142.94 362.24,-148.93 367.90,-155.56C363.31,-150.66 358.11,-146.35 352.39,-143.12C341.79,-137.21 327.28,-132.31 307.93,-136.11ZM-411.89,-39.67L-309.37,-114.43L-375.76,-222.58L-478.33,-147.58ZM-376.72,-217.68C-364.63,-197.88 -363.17,-154.76 -368.75,-126.32C-374.61,-96.49 -391.75,-59.68 -410.38,-46.15C-422.70,-66.00 -424.67,-106.56 -418.86,-136.16C-413.14,-165.29 -395.63,-203.97 -376.72,-217.68ZM-289.62,-165.74L-281.86,-131.30L-277.19,-130.39L-256.99,-159.34L-251.05,-189.63L-283.68,-196.04ZM-256.26,-21.24L-159.54,-2.26C-155.91,-4.69 -152.62,-7.92 -149.23,-11.61C-143.85,-18.06 -137.51,-28.19 -134.95,-41.24C-129.83,-67.34 -142.79,-83.92 -143.35,-84.76C-142.33,-86.26 -127.00,-96.56 -122.01,-121.96C-119.77,-133.38 -121.44,-144.60 -123.99,-152.60C-125.73,-157.30 -127.51,-161.77 -129.86,-165.86L-224.25,-184.38ZM-183.20,-53.13C-186.45,-36.58 -200.55,-21.44 -206.82,-15.41L-191.82,-91.85C-187.88,-86.00 -179.72,-70.84 -183.20,-53.13ZM-170.72,-131.52C-173.88,-115.44 -184.87,-103.80 -190.58,-98.14L-177.09,-166.89C-172.68,-158.53 -167.98,-145.50 -170.72,-131.52ZM-115.26,6.43L-49.07,19.42L-93.36,-94.07L-33.23,-82.28L-21.02,-144.50L-83.25,-156.71ZM47.58,31.36L3.76,22.76L33.26,-127.56L77.07,-118.96L78.26,-125.02L-15.89,-143.50L-17.08,-137.44L26.73,-128.84L-2.76,21.48L-46.58,12.89L-47.90,19.64L46.25,38.12ZM79.74,-40.02C77.04,-26.27 83.32,-13.90 94.99,-7.99C81.95,-6.91 71.41,2.39 68.71,16.14C65.56,32.23 75.16,47.42 91.24,50.58C104.53,53.18 116.99,46.43 122.91,34.76C123.51,47.71 132.26,58.62 146.01,61.32C159.30,63.93 171.75,57.18 177.67,45.51C178.28,58.46 187.03,69.37 200.78,72.07C216.63,75.18 231.73,64.83 234.88,48.75C237.99,32.90 228.01,17.15 212.17,14.04C198.42,11.34 186.19,18.14 180.65,30.36C180.10,19.60 173.91,10.40 164.44,5.64C177.48,4.57 188.44,-4.41 191.14,-18.16C193.83,-31.91 187.13,-44.61 175.46,-50.53C185.99,-51.12 195.19,-57.30 199.72,-66.82C200.32,-53.88 209.07,-42.96 222.82,-40.26C238.67,-37.15 253.77,-47.50 256.92,-63.58C260.03,-79.43 250.06,-95.19 234.21,-98.30C220.46,-100.99 208.23,-94.19 202.69,-81.97C201.71,-95.48 193.19,-106.34 179.44,-109.04C165.69,-111.74 153.46,-104.94 147.92,-92.72C146.94,-106.22 138.42,-117.09 124.67,-119.79C108.59,-122.94 93.86,-112.04 90.76,-96.19C88.06,-82.44 94.34,-70.07 106.01,-64.15C92.97,-63.08 82.43,-53.77 79.74,-40.02ZM139.40,-28.32C142.00,-41.60 154.13,-50.35 167.41,-47.75C180.70,-45.14 188.62,-32.45 186.01,-19.17C183.45,-6.12 171.32,2.64 158.04,0.03C144.75,-2.58 136.84,-15.26 139.40,-28.32ZM84.63,-39.06C87.24,-52.35 99.36,-61.10 112.64,-58.49C125.93,-55.89 133.85,-43.20 131.24,-29.92C128.68,-16.86 116.55,-8.11 103.27,-10.72C89.99,-13.32 82.07,-26.01 84.63,-39.06ZM73.61,17.11C76.22,3.82 88.34,-4.93 101.62,-2.33C114.91,0.28 122.83,12.97 120.22,26.25C117.66,39.30 105.53,48.06 92.25,45.45C78.97,42.84 71.05,30.16 73.61,17.11ZM128.38,27.85C130.98,14.57 143.11,5.81 156.39,8.42C169.68,11.03 177.59,23.71 174.99,37.00C172.43,50.05 160.30,58.80 147.02,56.20C133.73,53.59 125.82,40.90 128.38,27.85ZM183.15,38.60C185.75,25.31 197.88,16.56 211.16,19.17C224.45,21.77 232.36,34.46 229.76,47.74C227.20,60.79 215.07,69.55 201.79,66.94C188.50,64.34 180.58,51.65 183.15,38.60ZM205.19,-73.74C207.79,-87.02 219.92,-95.77 233.20,-93.17C246.49,-90.56 254.40,-77.87 251.80,-64.59C249.24,-51.54 237.11,-42.79 223.83,-45.39C210.54,-48.00 202.63,-60.68 205.19,-73.74ZM95.65,-95.23C98.26,-108.51 110.38,-117.27 123.67,-114.66C136.95,-112.05 144.87,-99.37 142.26,-86.08C139.70,-73.03 127.58,-64.28 114.29,-66.88C101.01,-69.49 93.09,-82.18 95.65,-95.23ZM150.42,-84.48C153.02,-97.77 165.15,-106.52 178.43,-103.91C191.72,-101.31 199.64,-88.62 197.03,-75.34C194.47,-62.29 182.34,-53.53 169.06,-56.14C155.78,-58.74 147.86,-71.43 150.42,-84.48ZM133.93,-21.40C134.52,-10.88 140.24,-1.77 149.76,2.76C139.19,3.59 130.45,9.86 125.88,19.62C125.33,8.86 119.15,-0.34 109.67,-5.10C120.20,-5.70 129.40,-11.88 133.93,-21.40ZM144.95,-77.57C145.54,-67.04 151.26,-57.94 160.78,-53.41C150.21,-52.58 141.47,-46.30 136.90,-36.55C136.35,-47.31 130.17,-56.51 120.69,-61.27C131.22,-61.87 140.42,-68.05 144.95,-77.57ZM347.36,97.20L354.82,98.66L376.90,-13.90C383.08,-45.37 365.51,-71.81 338.48,-77.11C311.68,-82.37 284.96,-64.62 278.79,-33.16L256.70,79.41L264.16,80.87L286.25,-31.69C291.78,-59.89 315.67,-74.33 337.11,-70.12C358.78,-65.87 374.98,-43.57 369.40,-15.13ZM333.38,94.45L340.83,95.92L362.92,-16.65C367.68,-40.89 355.55,-59.24 335.74,-63.13C316.16,-66.97 297.53,-54.65 292.77,-30.41L270.68,82.15L278.14,83.62L300.23,-28.95C304.57,-51.09 319.68,-59.02 334.36,-56.14C349.28,-53.21 359.72,-39.79 355.42,-17.88ZM319.16,91.67L326.38,93.08L348.47,-19.48C351.54,-35.10 345.34,-46.72 332.99,-49.14C321.11,-51.48 310.33,-43.42 307.22,-27.58L285.13,84.99L292.36,86.41L314.45,-26.16C316.91,-38.74 323.93,-43.66 331.62,-42.15C339.08,-40.69 343.76,-33.72 341.20,-20.67Z" fill="#ffffff" stroke="#000000"/>
    <path d="M-403.79,-281.08L-390.10,-338.92L-447.94,-352.61L-444.03,-369.14L-386.19,-355.45L-372.49,-413.28L-355.97,-409.37L-369.66,-351.53L-311.82,-337.84L-315.74,-321.31L-373.57,-335.01L-387.27,-277.17ZM-206.31,-234.32L-50.81,-197.50L-38.55,-370.65L-100.59,-221.85L-89.09,-382.62L-151.13,-233.81L-139.63,-394.58ZM71.58,-343.13L-46.24,-196.42L111.09,-159.17ZM51.60,-258.74L59.81,-212.85L22.76,-221.62ZM127.10,-155.38L192.04,-140.00L152.60,-253.91L211.60,-239.94L226.06,-300.99L165.00,-315.45ZM303.54,-121.33C264.21,-130.64 244.99,-167.79 255.01,-210.10C264.92,-251.94 297.03,-277.43 338.20,-267.68C357.40,-263.13 368.53,-253.01 375.77,-243.81C379.83,-238.50 382.81,-232.72 384.76,-226.71C383.47,-234.50 380.47,-242.21 375.87,-249.34C367.91,-261.61 354.00,-275.29 327.48,-281.57C281.06,-292.56 234.67,-263.94 223.68,-217.51C212.69,-171.09 241.31,-124.71 287.73,-113.72C311.75,-108.03 330.36,-114.25 343.78,-121.94C351.08,-126.25 357.73,-131.92 363.58,-138.26C358.85,-133.59 353.54,-129.53 347.77,-126.55C337.06,-121.12 322.52,-116.83 303.54,-121.33ZM-411.87,-53.57L-307.63,-123.56L-369.14,-233.03L-473.42,-162.81ZM-370.27,-228.22C-359.08,-208.19 -359.29,-165.49 -365.89,-137.59C-372.82,-108.32 -391.19,-72.58 -410.12,-59.92C-421.55,-80.01 -421.93,-120.19 -415.06,-149.23C-408.29,-177.82 -389.49,-215.39 -370.27,-228.22ZM-286.14,-173.53L-279.78,-139.18L-275.21,-138.10L-254.13,-165.95L-247.09,-195.68L-279.10,-203.26ZM-258.69,-29.38L-163.79,-6.90C-160.11,-9.17 -156.73,-12.24 -153.24,-15.76C-147.68,-21.93 -141.02,-31.70 -137.98,-44.50C-131.92,-70.12 -144.10,-87.01 -144.62,-87.86C-143.56,-89.29 -128.00,-98.89 -122.10,-123.82C-119.45,-135.02 -120.67,-146.18 -122.88,-154.19C-124.42,-158.90 -126.02,-163.39 -128.18,-167.52L-220.79,-189.45ZM-185.24,-58.11C-189.08,-41.87 -203.61,-27.44 -210.03,-21.72L-192.27,-96.72C-188.61,-90.78 -181.12,-75.49 -185.24,-58.11ZM-169.89,-135.14C-173.63,-119.36 -184.95,-108.27 -190.81,-102.90L-174.84,-170.36C-170.80,-161.91 -166.65,-148.86 -169.89,-135.14ZM-120.34,3.38L-55.40,18.76L-94.84,-95.15L-35.84,-81.18L-21.38,-142.23L-82.44,-156.69ZM39.70,34.27L-3.29,24.10L31.63,-123.40L74.63,-113.22L76.03,-119.17L-16.35,-141.04L-17.76,-135.10L25.23,-124.92L-9.69,22.58L-52.68,12.40L-54.25,19.03L38.13,40.91ZM74.23,-35.07C71.04,-21.58 76.78,-9.11 88.09,-2.81C75.16,-2.25 64.38,6.55 61.18,20.04C57.45,35.82 66.36,51.21 82.14,54.95C95.17,58.04 107.75,51.84 114.05,40.53C114.15,53.35 122.39,64.48 135.88,67.67C148.91,70.76 161.49,64.56 167.79,53.25C167.89,66.08 176.13,77.20 189.62,80.40C205.17,84.08 220.49,74.43 224.23,58.65C227.91,43.10 218.65,27.14 203.10,23.46C189.61,20.26 177.26,26.52 171.31,38.39C171.18,27.73 165.42,18.40 156.23,13.33C169.17,12.77 180.35,4.30 183.54,-9.19C186.73,-22.68 180.59,-35.49 169.28,-41.79C179.71,-41.97 189.04,-47.73 193.89,-56.97C193.99,-44.15 202.22,-33.02 215.72,-29.82C231.27,-26.14 246.59,-35.80 250.33,-51.57C254.01,-67.12 244.75,-83.08 229.20,-86.77C215.71,-89.96 203.36,-83.71 197.41,-71.83C196.96,-85.22 188.95,-96.30 175.46,-99.49C161.97,-102.68 149.62,-96.43 143.67,-84.56C143.22,-97.95 135.21,-109.02 121.72,-112.21C105.94,-115.95 90.96,-105.73 87.28,-90.18C84.09,-76.69 89.83,-64.22 101.14,-57.92C88.20,-57.36 77.43,-48.56 74.23,-35.07ZM132.77,-21.21C135.86,-34.24 148.18,-42.43 161.22,-39.35C174.25,-36.26 181.60,-23.41 178.51,-10.38C175.48,2.43 163.15,10.62 150.12,7.53C137.08,4.44 129.74,-8.40 132.77,-21.21ZM79.03,-33.93C82.12,-46.97 94.45,-55.16 107.48,-52.07C120.51,-48.99 127.86,-36.14 124.77,-23.10C121.74,-10.30 109.41,-2.11 96.38,-5.19C83.35,-8.28 76.00,-21.13 79.03,-33.93ZM65.99,21.18C69.07,8.14 81.40,-0.05 94.43,3.04C107.47,6.13 114.81,18.97 111.72,32.01C108.69,44.81 96.37,53.00 83.33,49.92C70.30,46.83 62.95,33.98 65.99,21.18ZM119.72,33.90C122.81,20.87 135.13,12.68 148.17,15.76C161.20,18.85 168.55,31.70 165.46,44.73C162.43,57.54 150.10,65.73 137.07,62.64C124.04,59.56 116.69,46.71 119.72,33.90ZM173.46,46.63C176.55,33.59 188.87,25.40 201.91,28.49C214.94,31.57 222.29,44.42 219.20,57.46C216.17,70.26 203.84,78.45 190.81,75.37C177.77,72.28 170.43,59.43 173.46,46.63ZM199.56,-63.60C202.65,-76.63 214.97,-84.82 228.01,-81.73C241.04,-78.65 248.38,-65.80 245.30,-52.77C242.27,-39.96 229.94,-31.77 216.91,-34.86C203.87,-37.94 196.53,-50.79 199.56,-63.60ZM92.08,-89.04C95.17,-102.08 107.49,-110.27 120.53,-107.18C133.56,-104.10 140.91,-91.25 137.82,-78.21C134.79,-65.41 122.46,-57.22 109.43,-60.30C96.39,-63.39 89.05,-76.24 92.08,-89.04ZM145.82,-76.32C148.91,-89.35 161.23,-97.55 174.27,-94.46C187.30,-91.37 194.64,-78.53 191.56,-65.49C188.53,-52.68 176.20,-44.49 163.17,-47.58C150.13,-50.67 142.79,-63.51 145.82,-76.32ZM127.10,-14.58C127.29,-4.15 132.59,5.07 141.83,9.91C131.34,10.33 122.47,16.20 117.57,25.66C117.44,15.01 111.68,5.67 102.49,0.60C112.92,0.41 122.26,-5.35 127.10,-14.58ZM140.15,-69.69C140.34,-59.27 145.64,-50.04 154.88,-45.20C144.39,-44.78 135.52,-38.91 130.62,-29.45C130.49,-40.10 124.73,-49.44 115.54,-54.51C125.97,-54.70 135.31,-60.46 140.15,-69.69ZM333.58,110.86L340.90,112.60L367.05,2.14C374.36,-28.73 358.01,-55.54 331.48,-61.82C305.19,-68.05 278.09,-51.52 270.78,-20.65L244.63,89.80L251.94,91.53L278.10,-18.92C284.65,-46.59 308.82,-59.94 329.86,-54.96C351.13,-49.93 366.29,-27.26 359.68,0.64ZM319.86,107.61L327.18,109.35L353.33,-1.10C358.96,-24.89 347.67,-43.50 328.23,-48.10C309.03,-52.65 290.13,-41.18 284.50,-17.40L258.35,93.05L265.66,94.78L291.82,-15.67C296.96,-37.39 312.20,-44.65 326.61,-41.24C341.25,-37.78 351.05,-24.10 345.96,-2.61ZM305.91,104.31L313.00,105.99L339.15,-4.46C342.78,-19.78 337.11,-31.51 324.99,-34.38C313.32,-37.14 302.36,-29.60 298.68,-14.05L272.52,96.41L279.61,98.08L305.77,-12.37C308.69,-24.72 315.81,-29.31 323.36,-27.52C330.68,-25.79 335.04,-18.72 332.01,-5.91Z" fill="#ffffff" stroke="#000000"/>
    <path d="M-394.55,-292.17L-378.79,-348.82L-435.45,-364.58L-430.95,-380.76L-374.29,-365.01L-358.54,-421.66L-342.35,-417.16L-358.10,-360.51L-301.45,-344.75L-305.95,-328.56L-362.61,-344.32L-378.36,-287.66ZM-201.11,-238.37L-48.79,-196.01L-30.03,-366.72L-97.07,-221.98L-79.53,-380.48L-146.57,-235.75L-129.04,-394.25ZM77.79,-335.28L-44.31,-194.76L109.81,-151.90ZM54.80,-252.63L61.16,-206.94L24.87,-217.03ZM125.49,-147.54L189.10,-129.85L154.47,-243.97L212.27,-227.90L228.90,-287.71L169.09,-304.34ZM298.61,-107.12C260.09,-117.83 242.51,-155.30 254.04,-196.74C265.44,-237.73 298.16,-261.69 338.48,-250.48C357.30,-245.24 367.91,-234.81 374.72,-225.44C378.52,-220.04 381.25,-214.21 382.95,-208.19C381.97,-215.94 379.30,-223.68 375.03,-230.90C367.63,-243.34 354.40,-257.39 328.42,-264.62C282.95,-277.26 235.99,-250.74 223.35,-205.27C210.70,-159.80 237.22,-112.85 282.69,-100.20C306.21,-93.66 324.86,-99.10 338.41,-106.19C345.80,-110.17 352.59,-115.51 358.62,-121.56C353.76,-117.12 348.36,-113.31 342.54,-110.59C331.74,-105.63 317.21,-101.95 298.61,-107.12ZM-411.25,-67.55L-305.52,-132.75L-362.13,-243.33L-467.92,-177.91ZM-363.43,-238.63C-353.14,-218.39 -354.98,-176.18 -362.58,-148.86C-370.55,-120.18 -390.08,-85.55 -409.28,-73.76C-419.81,-94.06 -418.65,-133.80 -410.74,-162.25C-402.95,-190.25 -382.93,-226.67 -363.43,-238.63ZM-282.36,-181.33L-277.39,-147.13L-272.91,-145.88L-251.00,-172.61L-242.90,-201.73L-274.26,-210.45ZM-260.75,-37.76L-167.79,-11.91C-164.06,-14.01 -160.60,-16.91 -157.02,-20.26C-151.28,-26.14 -144.32,-35.55 -140.83,-48.09C-133.85,-73.18 -145.25,-90.35 -145.73,-91.21C-144.63,-92.59 -128.88,-101.48 -122.09,-125.90C-119.04,-136.87 -119.82,-147.95 -121.69,-155.95C-123.04,-160.67 -124.44,-165.16 -126.42,-169.33L-217.14,-194.56ZM-187.02,-63.35C-191.45,-47.45 -206.36,-33.74 -212.93,-28.33L-192.50,-101.80C-189.10,-95.79 -182.29,-80.38 -187.02,-63.35ZM-168.91,-138.92C-173.20,-123.46 -184.82,-112.94 -190.82,-107.85L-172.44,-173.93C-168.77,-165.43 -165.17,-152.36 -168.91,-138.92ZM-125.23,-0.07L-61.61,17.62L-96.24,-96.51L-38.44,-80.43L-21.81,-140.24L-81.62,-156.87ZM31.81,36.60L-10.30,24.89L29.88,-119.59L71.99,-107.88L73.61,-113.70L-16.88,-138.87L-18.50,-133.05L23.61,-121.34L-16.57,23.14L-58.68,11.43L-60.49,17.93L30.01,43.10ZM68.61,-30.63C64.93,-17.42 70.13,-4.87 81.07,1.79C68.26,1.85 57.27,10.14 53.60,23.35C49.30,38.81 57.52,54.37 72.97,58.66C85.74,62.22 98.41,56.57 105.08,45.63C104.69,58.31 112.40,69.63 125.61,73.30C138.38,76.85 151.05,71.21 157.72,60.27C157.33,72.95 165.04,84.27 178.25,87.94C193.49,92.18 209.01,83.22 213.31,67.77C217.54,52.54 209.00,36.40 193.77,32.17C180.55,28.49 168.10,34.20 161.76,45.71C162.04,35.17 156.71,25.72 147.82,20.36C160.63,20.30 172.00,12.36 175.68,-0.86C179.36,-14.07 173.77,-26.97 162.83,-33.63C173.15,-33.41 182.60,-38.75 187.74,-47.70C187.35,-35.02 195.06,-23.70 208.28,-20.02C223.51,-15.79 239.03,-24.74 243.33,-40.20C247.57,-55.43 239.02,-71.56 223.79,-75.80C210.58,-79.48 198.13,-73.77 191.79,-62.26C191.86,-75.51 184.37,-86.76 171.15,-90.44C157.94,-94.11 145.49,-88.41 139.15,-76.90C139.22,-90.15 131.73,-101.40 118.51,-105.08C103.06,-109.38 87.86,-99.85 83.62,-84.62C79.95,-71.40 85.14,-58.85 96.08,-52.19C83.28,-52.13 72.28,-43.85 68.61,-30.63ZM125.95,-14.69C129.50,-27.45 142.00,-35.08 154.77,-31.53C167.54,-27.98 174.30,-14.99 170.75,-2.23C167.26,10.32 154.77,17.94 142.00,14.39C129.23,10.84 122.46,-2.14 125.95,-14.69ZM73.31,-29.32C76.86,-42.09 89.36,-49.72 102.13,-46.17C114.90,-42.62 121.66,-29.63 118.11,-16.87C114.62,-4.32 102.13,3.30 89.36,-0.25C76.59,-3.80 69.82,-16.78 73.31,-29.32ZM58.30,24.66C61.85,11.89 74.35,4.27 87.12,7.82C99.88,11.37 106.65,24.35 103.10,37.12C99.61,49.66 87.11,57.29 74.35,53.74C61.58,50.19 54.81,37.20 58.30,24.66ZM110.94,39.30C114.49,26.53 126.99,18.91 139.76,22.46C152.52,26.01 159.29,38.99 155.74,51.76C152.25,64.30 139.75,71.93 126.99,68.38C114.22,64.83 107.45,51.84 110.94,39.30ZM163.58,53.94C167.13,41.17 179.63,33.54 192.40,37.10C205.16,40.65 211.93,53.63 208.38,66.40C204.89,78.94 192.39,86.57 179.63,83.02C166.86,79.46 160.09,66.48 163.58,53.94ZM193.61,-54.03C197.16,-66.80 209.65,-74.42 222.42,-70.87C235.19,-67.32 241.96,-54.34 238.40,-41.57C234.92,-29.03 222.42,-21.40 209.65,-24.95C196.88,-28.50 190.12,-41.49 193.61,-54.03ZM88.33,-83.31C91.88,-96.08 104.37,-103.70 117.14,-100.15C129.91,-96.60 136.68,-83.62 133.13,-70.85C129.64,-58.31 117.14,-50.68 104.37,-54.23C91.60,-57.78 84.84,-70.76 88.33,-83.31ZM140.97,-68.67C144.52,-81.44 157.01,-89.06 169.78,-85.51C182.55,-81.96 189.32,-68.98 185.77,-56.21C182.28,-43.67 169.78,-36.04 157.01,-39.59C144.24,-43.14 137.48,-56.13 140.97,-68.67ZM120.09,-8.35C119.87,1.96 124.76,11.29 133.71,16.43C123.33,16.44 114.33,21.90 109.12,31.07C109.40,20.53 104.07,11.08 95.18,5.72C105.50,5.93 114.95,0.59 120.09,-8.35ZM135.10,-62.34C134.89,-52.02 139.78,-42.70 148.72,-37.55C138.34,-37.54 129.34,-32.08 124.14,-22.91C124.41,-33.45 119.08,-42.90 110.19,-48.27C120.51,-48.05 129.96,-53.39 135.10,-62.34ZM319.41,123.58L326.58,125.57L356.67,17.38C365.08,-12.86 349.94,-39.99 323.96,-47.22C298.20,-54.38 270.77,-39.08 262.36,-8.84L232.28,99.35L239.44,101.34L269.53,-6.85C277.07,-33.96 301.48,-46.23 322.09,-40.50C342.92,-34.71 357.04,-11.72 349.44,15.61ZM305.97,119.84L313.14,121.84L343.23,13.64C349.71,-9.65 339.26,-28.49 320.22,-33.78C301.40,-39.01 282.28,-28.40 275.80,-5.11L245.72,103.08L252.88,105.08L282.97,-3.11C288.89,-24.39 304.24,-30.99 318.35,-27.06C332.69,-23.07 341.85,-9.18 336.00,11.87ZM292.31,116.04L299.25,117.97L329.34,9.78C333.51,-5.23 328.35,-17.04 316.48,-20.34C305.06,-23.52 293.93,-16.48 289.69,-1.24L259.60,106.95L266.55,108.88L296.64,0.69C300.00,-11.41 307.22,-15.68 314.61,-13.62C321.78,-11.63 325.82,-4.47 322.33,8.07Z" fill="#ffffff" stroke="#000000"/>
    <path d="M-384.92,-302.98L-367.17,-358.38L-422.57,-376.13L-417.50,-391.96L-362.10,-374.21L-344.35,-429.61L-328.52,-424.54L-346.27,-369.14L-290.87,-351.40L-295.94,-335.57L-351.34,-353.31L-369.09,-297.91ZM-195.76,-242.39L-46.81,-194.68L-21.73,-362.71L-93.54,-222.21L-70.14,-378.21L-141.95,-237.71L-118.54,-393.72ZM83.64,-327.50L-42.43,-193.28L108.27,-145.00ZM57.75,-246.68L62.29,-201.27L26.81,-212.64ZM123.60,-140.09L185.81,-120.17L155.95,-234.30L212.46,-216.20L231.20,-274.69L172.71,-293.42ZM293.19,-93.50C255.51,-105.57 239.58,-143.28 252.56,-183.80C265.40,-223.88 298.67,-246.31 338.09,-233.68C356.49,-227.79 366.58,-217.07 372.95,-207.54C376.51,-202.06 378.97,-196.19 380.43,-190.17C379.76,-197.88 377.41,-205.63 373.47,-212.93C366.63,-225.51 354.09,-239.91 328.69,-248.05C284.22,-262.29 236.79,-237.87 222.55,-193.41C208.31,-148.94 232.72,-101.52 277.19,-87.27C300.19,-79.91 318.82,-84.56 332.49,-91.05C339.94,-94.70 346.87,-99.73 353.06,-105.48C348.09,-101.27 342.60,-97.72 336.74,-95.25C325.88,-90.75 311.37,-87.67 293.19,-93.50ZM-410.03,-81.59L-303.02,-141.99L-354.74,-253.47L-461.82,-192.85ZM-356.21,-248.87C-346.81,-228.46 -350.24,-186.82 -358.80,-160.10C-367.79,-132.06 -388.41,-98.58 -407.85,-87.65C-417.47,-108.13 -414.81,-147.36 -405.90,-175.18C-397.13,-202.56 -375.94,-237.80 -356.21,-248.87ZM-278.26,-189.12L-274.66,-155.12L-270.28,-153.72L-247.60,-179.30L-238.48,-207.77L-269.14,-217.59ZM-262.40,-46.38L-171.50,-17.26C-167.74,-19.19 -164.21,-21.93 -160.54,-25.10C-154.64,-30.70 -147.40,-39.73 -143.47,-51.99C-135.61,-76.53 -146.22,-93.93 -146.66,-94.80C-145.51,-96.12 -129.61,-104.31 -121.96,-128.18C-118.52,-138.92 -118.87,-149.90 -120.42,-157.88C-121.56,-162.59 -122.78,-167.09 -124.58,-171.29L-213.29,-199.70ZM-188.54,-68.85C-193.53,-53.30 -208.79,-40.32 -215.50,-35.22L-192.49,-107.06C-189.36,-100.99 -183.21,-85.49 -188.54,-68.85ZM-167.74,-142.85C-172.58,-127.73 -184.46,-117.78 -190.59,-112.98L-169.89,-177.59C-166.59,-169.05 -163.53,-155.99 -167.74,-142.85ZM-129.88,-3.93L-67.68,16.00L-97.53,-98.14L-41.02,-80.04L-22.29,-138.52L-80.77,-157.25ZM23.94,38.34L-17.23,25.15L28.02,-116.13L69.20,-102.94L71.02,-108.63L-17.47,-136.98L-19.29,-131.28L21.89,-118.09L-23.37,23.19L-64.55,10.00L-66.58,16.35L21.91,44.69ZM62.89,-26.71C58.76,-13.78 63.41,-1.18 73.97,5.82C61.31,5.39 50.13,13.16 45.99,26.08C41.14,41.19 48.68,56.89 63.79,61.73C76.27,65.73 89.02,60.63 96.02,50.08C95.15,62.60 102.34,74.08 115.26,78.22C127.75,82.22 140.49,77.12 147.49,66.57C146.62,79.09 153.81,90.57 166.74,94.71C181.63,99.48 197.32,91.22 202.16,76.11C206.93,61.21 199.10,44.94 184.21,40.17C171.28,36.03 158.76,41.19 152.05,52.33C152.73,41.92 147.82,32.38 139.24,26.73C151.90,27.16 163.45,19.75 167.59,6.83C171.73,-6.09 166.71,-19.05 156.15,-26.06C166.34,-25.45 175.89,-30.36 181.31,-39.01C180.44,-26.49 187.63,-15.01 200.55,-10.87C215.45,-6.10 231.14,-14.35 235.98,-29.47C240.75,-44.36 232.92,-60.64 218.03,-65.41C205.10,-69.55 192.58,-64.38 185.87,-53.25C186.45,-66.35 179.47,-77.76 166.55,-81.90C153.63,-86.04 141.11,-80.87 134.40,-69.73C134.97,-82.83 128.00,-94.24 115.08,-98.38C99.96,-103.23 84.58,-94.39 79.80,-79.49C75.66,-66.57 80.32,-53.97 90.88,-46.97C78.22,-47.40 67.03,-39.63 62.89,-26.71ZM118.97,-8.74C122.97,-21.23 135.61,-28.29 148.10,-24.29C160.58,-20.29 166.78,-7.20 162.78,5.29C158.85,17.55 146.20,24.61 133.72,20.61C121.23,16.61 115.04,3.52 118.97,-8.74ZM67.49,-25.23C71.49,-37.72 84.14,-44.78 96.63,-40.78C109.11,-36.78 115.30,-23.69 111.30,-11.20C107.37,1.07 94.73,8.12 82.24,4.12C69.76,0.13 63.57,-12.97 67.49,-25.23ZM50.59,27.55C54.58,15.07 67.23,8.01 79.72,12.01C92.20,16.01 98.39,29.10 94.39,41.59C90.46,53.85 77.82,60.91 65.33,56.91C52.85,52.91 46.66,39.82 50.59,27.55ZM102.06,44.04C106.06,31.56 118.70,24.50 131.19,28.50C143.67,32.50 149.87,45.59 145.87,58.08C141.94,70.34 129.29,77.40 116.81,73.40C104.32,69.40 98.13,56.31 102.06,44.04ZM153.53,60.53C157.53,48.05 170.18,40.99 182.66,44.99C195.15,48.99 201.34,62.08 197.34,74.56C193.41,86.83 180.77,93.89 168.28,89.89C155.79,85.89 149.60,72.80 153.53,60.53ZM187.35,-45.04C191.35,-57.53 204.00,-64.59 216.48,-60.59C228.97,-56.59 235.16,-43.50 231.16,-31.01C227.23,-18.75 214.58,-11.69 202.10,-15.69C189.61,-19.69 183.42,-32.78 187.35,-45.04ZM84.40,-78.02C88.40,-90.51 101.05,-97.56 113.53,-93.57C126.02,-89.57 132.21,-76.47 128.21,-63.99C124.28,-51.72 111.64,-44.66 99.15,-48.66C86.67,-52.66 80.47,-65.76 84.40,-78.02ZM135.88,-61.53C139.88,-74.02 152.52,-81.08 165.01,-77.08C177.49,-73.08 183.68,-59.99 179.68,-47.50C175.76,-35.23 163.11,-28.18 150.62,-32.17C138.14,-36.17 131.95,-49.27 135.88,-61.53ZM112.93,-2.71C112.32,7.48 116.80,16.88 125.44,22.31C115.18,21.92 106.08,26.98 100.58,35.84C101.26,25.43 96.35,15.89 87.77,10.24C97.96,10.85 107.50,5.94 112.93,-2.71ZM129.84,-55.50C129.23,-45.31 133.71,-35.90 142.35,-30.48C132.09,-30.87 122.99,-25.81 117.49,-16.95C118.17,-27.36 113.25,-36.90 104.68,-42.55C114.87,-41.94 124.41,-46.85 129.84,-55.50ZM304.91,135.34L311.92,137.59L345.80,31.79C355.28,2.22 341.35,-25.18 315.94,-33.32C290.75,-41.39 263.06,-27.31 253.59,2.26L219.70,108.05L226.71,110.30L260.60,4.50C269.09,-22.00 293.69,-33.20 313.84,-26.75C334.21,-20.22 347.28,3.05 338.72,29.77ZM291.76,131.13L298.77,133.38L332.66,27.58C339.96,4.81 330.35,-14.21 311.73,-20.18C293.33,-26.07 274.03,-16.31 266.73,6.47L232.84,112.26L239.85,114.51L273.74,8.71C280.41,-12.10 295.83,-18.02 309.63,-13.60C323.65,-9.11 332.18,4.97 325.58,25.56ZM278.40,126.85L285.19,129.03L319.08,23.23C323.78,8.56 319.13,-3.31 307.52,-7.03C296.35,-10.61 285.08,-4.08 280.31,10.82L246.42,116.61L253.21,118.79L287.10,12.99C290.89,1.16 298.19,-2.78 305.42,-0.46C312.43,1.78 316.15,9.01 312.22,21.28Z" fill="#ffffff" stroke="#000000"/>
    <path d="M-374.90,-313.51L-355.24,-367.59L-409.32,-387.25L-403.70,-402.71L-349.62,-383.04L-329.96,-437.12L-314.51,-431.50L-334.17,-377.42L-280.09,-357.76L-285.71,-342.31L-339.79,-361.97L-359.45,-307.90ZM-190.26,-246.38L-44.87,-193.51L-13.64,-358.63L-90.01,-222.51L-60.89,-375.81L-137.26,-239.69L-108.14,-392.99ZM89.16,-319.80L-40.60,-191.96L106.50,-138.47ZM60.47,-240.90L63.21,-195.85L28.58,-208.44ZM121.47,-133.03L182.19,-110.95L157.05,-224.91L212.22,-204.85L232.97,-261.94L175.89,-282.69ZM287.30,-80.48C250.53,-93.85 236.22,-131.73 250.60,-171.29C264.83,-210.41 298.57,-231.31 337.06,-217.31C355.02,-210.78 364.58,-199.80 370.51,-190.14C373.81,-184.58 376.03,-178.69 377.23,-172.69C376.86,-180.33 374.84,-188.08 371.23,-195.45C364.95,-208.14 353.11,-222.85 328.31,-231.87C284.91,-247.65 237.09,-225.34 221.31,-181.94C205.53,-138.53 227.85,-90.72 271.25,-74.94C293.70,-66.78 312.30,-70.66 326.06,-76.55C333.56,-79.88 340.60,-84.58 346.93,-90.02C341.86,-86.06 336.30,-82.75 330.41,-80.54C319.51,-76.51 305.05,-74.03 287.30,-80.48ZM-408.21,-95.66L-300.12,-151.25L-346.97,-263.42L-455.13,-207.61ZM-348.60,-258.93C-340.09,-238.40 -345.08,-197.37 -354.57,-171.29C-364.52,-143.92 -386.19,-111.61 -405.82,-101.57C-414.55,-122.17 -410.41,-160.85 -400.54,-188.00C-390.82,-214.73 -368.52,-248.74 -348.60,-258.93ZM-273.85,-196.89L-271.59,-163.14L-267.32,-161.59L-243.92,-186.00L-233.81,-213.80L-263.74,-224.68ZM-263.64,-55.19L-174.91,-22.93C-171.12,-24.70 -167.53,-27.27 -163.77,-30.26C-157.73,-35.57 -150.23,-44.21 -145.87,-56.19C-137.17,-80.13 -146.98,-97.74 -147.39,-98.62C-146.20,-99.88 -130.17,-107.36 -121.70,-130.67C-117.89,-141.15 -117.81,-152.01 -119.03,-159.96C-119.99,-164.66 -121.02,-169.15 -122.63,-173.37L-209.22,-204.86ZM-189.78,-74.57C-195.30,-59.39 -210.89,-47.15 -217.71,-42.37L-192.21,-112.49C-189.35,-106.37 -183.87,-90.82 -189.78,-74.57ZM-166.38,-146.92C-171.75,-132.16 -183.87,-122.78 -190.11,-118.27L-167.18,-181.34C-164.24,-172.77 -161.72,-159.75 -166.38,-146.92ZM-134.29,-8.16L-73.57,13.92L-98.70,-100.04L-43.54,-79.98L-22.78,-137.07L-79.87,-157.82ZM16.13,39.51L-24.06,24.90L26.08,-113.01L66.28,-98.39L68.30,-103.95L-18.08,-135.36L-20.10,-129.80L20.09,-115.18L-30.05,22.72L-70.24,8.11L-72.50,14.31L13.88,45.71ZM57.12,-23.29C52.54,-10.67 56.66,1.96 66.82,9.29C54.33,8.38 42.97,15.63 38.39,28.24C33.02,42.99 39.87,58.79 54.62,64.16C66.81,68.59 79.59,64.04 86.92,53.88C85.58,66.22 92.25,77.84 104.86,82.43C117.05,86.86 129.84,82.31 137.17,72.15C135.83,84.49 142.49,96.11 155.11,100.70C169.65,105.98 185.47,98.42 190.83,83.67C196.12,69.13 189.00,52.75 174.46,47.46C161.85,42.87 149.27,47.50 142.22,58.25C143.29,47.99 138.80,38.36 130.54,32.46C143.04,33.37 154.74,26.49 159.32,13.87C163.91,1.26 159.44,-11.74 149.27,-19.07C159.32,-18.08 168.94,-22.57 174.64,-30.91C173.30,-18.57 179.96,-6.94 192.58,-2.36C207.12,2.93 222.94,-4.63 228.30,-19.38C233.59,-33.92 226.47,-50.31 211.94,-55.59C199.32,-60.18 186.75,-55.55 179.69,-44.81C180.76,-57.73 174.31,-69.28 161.69,-73.86C149.08,-78.45 136.50,-73.82 129.45,-63.08C130.52,-76.00 124.06,-87.55 111.45,-92.13C96.69,-97.50 81.15,-89.35 75.86,-74.81C71.27,-62.20 75.39,-49.57 85.56,-42.24C73.06,-43.15 61.71,-35.90 57.12,-23.29ZM111.86,-3.38C116.29,-15.57 129.06,-22.06 141.25,-17.63C153.43,-13.20 159.05,-0.02 154.62,12.16C150.27,24.14 137.50,30.63 125.31,26.20C113.12,21.77 107.50,8.59 111.86,-3.38ZM61.61,-21.65C66.04,-33.84 78.81,-40.33 91.00,-35.90C103.19,-31.47 108.81,-18.29 104.37,-6.11C100.02,5.87 87.25,12.36 75.06,7.93C62.88,3.50 57.26,-9.68 61.61,-21.65ZM42.88,29.87C47.31,17.69 60.08,11.19 72.27,15.63C84.45,20.06 90.07,33.23 85.64,45.42C81.29,57.39 68.52,63.89 56.33,59.46C44.14,55.02 38.52,41.85 42.88,29.87ZM93.12,48.14C97.55,35.96 110.32,29.46 122.51,33.89C134.70,38.33 140.31,51.50 135.88,63.69C131.53,75.66 118.76,82.16 106.57,77.72C94.39,73.29 88.77,60.12 93.12,48.14ZM143.37,66.41C147.80,54.22 160.57,47.73 172.75,52.16C184.94,56.59 190.56,69.77 186.13,81.96C181.77,93.93 169.00,100.42 156.82,95.99C144.63,91.56 139.01,78.38 143.37,66.41ZM180.84,-36.64C185.27,-48.83 198.04,-55.32 210.23,-50.89C222.41,-46.46 228.03,-33.28 223.60,-21.09C219.25,-9.12 206.48,-2.63 194.29,-7.06C182.10,-11.49 176.48,-24.67 180.84,-36.64ZM80.35,-73.18C84.78,-85.37 97.55,-91.86 109.74,-87.43C121.92,-83.00 127.54,-69.82 123.11,-57.63C118.76,-45.66 105.99,-39.17 93.80,-43.60C81.61,-48.03 76.00,-61.21 80.35,-73.18ZM130.59,-54.91C135.02,-67.10 147.79,-73.59 159.98,-69.16C172.17,-64.73 177.79,-51.55 173.35,-39.36C169.00,-27.39 156.23,-20.90 144.04,-25.33C131.86,-29.76 126.24,-42.94 130.59,-54.91ZM105.66,2.35C104.67,12.40 108.73,21.86 117.07,27.56C106.94,26.78 97.75,31.43 91.98,39.98C93.04,29.72 88.55,20.10 80.29,14.19C90.34,15.18 99.96,10.69 105.66,2.35ZM124.39,-49.18C123.40,-39.13 127.46,-29.66 135.80,-23.97C125.68,-24.75 116.48,-20.10 110.71,-11.55C111.78,-21.81 107.29,-31.43 99.03,-37.34C109.08,-36.35 118.70,-40.84 124.39,-49.18ZM290.11,146.16L296.96,148.64L334.51,45.38C345.00,16.51 332.29,-11.11 307.49,-20.12C282.90,-29.06 254.99,-16.22 244.49,12.65L206.94,115.91L213.79,118.40L251.34,15.13C260.74,-10.74 285.48,-20.86 305.15,-13.71C325.04,-6.48 337.07,17.02 327.59,43.10ZM277.29,141.49L284.13,143.98L321.68,40.71C329.76,18.48 321.00,-0.69 302.82,-7.30C284.86,-13.83 265.41,-4.92 257.32,17.31L219.77,120.58L226.61,123.07L264.16,19.80C271.55,-0.51 287.02,-5.78 300.49,-0.88C314.17,4.09 322.07,18.34 314.76,38.44ZM264.24,136.75L270.87,139.16L308.42,35.89C313.63,21.57 309.49,9.65 298.16,5.53C287.25,1.57 275.86,7.59 270.58,22.13L233.03,125.40L239.66,127.81L277.21,24.54C281.40,13.00 288.77,9.38 295.83,11.95C302.67,14.43 306.07,21.72 301.72,33.70Z" fill="#ffffff" stroke="#000000"/>
    <path d="M-364.51,-323.74L-343.01,-376.43L-395.70,-397.93L-389.55,-412.99L-336.86,-391.48L-315.36,-444.17L-300.30,-438.03L-321.81,-385.34L-269.12,-363.84L-275.26,-348.78L-327.95,-370.29L-349.46,-317.60ZM-184.61,-250.32L-42.95,-192.50L-5.76,-354.48L-86.44,-222.89L-51.80,-373.27L-132.48,-241.68L-97.84,-392.06ZM94.35,-312.17L-38.79,-190.80L104.54,-132.31ZM62.97,-235.30L63.96,-190.67L30.21,-204.44ZM119.12,-126.36L178.28,-102.21L157.81,-215.79L211.55,-193.86L234.25,-249.48L178.63,-272.18ZM281.00,-68.07C245.16,-82.69 232.48,-120.68 248.21,-159.21C263.76,-197.34 297.91,-216.69 335.41,-201.39C352.91,-194.25 361.94,-183.03 367.43,-173.26C370.48,-167.64 372.44,-161.73 373.40,-155.75C373.33,-163.31 371.63,-171.05 368.34,-178.47C362.62,-191.26 351.49,-206.25 327.32,-216.11C285.03,-233.37 236.93,-213.15 219.67,-170.86C202.41,-128.57 222.63,-80.47 264.92,-63.21C286.79,-54.28 305.32,-57.41 319.15,-62.70C326.69,-65.70 333.82,-70.08 340.29,-75.22C335.13,-71.49 329.51,-68.44 323.60,-66.47C312.67,-62.92 298.29,-61.01 281.00,-68.07ZM-405.78,-109.72L-296.83,-160.51L-338.83,-273.16L-447.86,-222.15ZM-340.61,-268.79C-332.98,-248.18 -339.49,-207.82 -349.87,-182.40C-360.75,-155.74 -383.40,-124.64 -403.19,-115.46C-411.02,-136.16 -405.45,-174.23 -394.65,-200.68C-384.03,-226.72 -360.69,-259.48 -340.61,-268.79ZM-269.11,-204.61L-268.18,-171.18L-264.01,-169.48L-239.95,-192.71L-228.89,-219.79L-258.06,-231.69ZM-264.45,-64.19L-178.00,-28.90C-174.19,-30.51 -170.53,-32.90 -166.71,-35.72C-160.54,-40.73 -152.79,-48.99 -148.03,-60.66C-138.51,-83.99 -147.53,-101.77 -147.90,-102.65C-146.68,-103.85 -130.55,-110.63 -121.28,-133.34C-117.12,-143.55 -116.62,-154.28 -117.53,-162.19C-118.29,-166.87 -119.14,-171.35 -120.57,-175.58L-204.94,-210.01ZM-190.72,-80.51C-196.75,-65.72 -212.63,-54.22 -219.55,-49.75L-191.67,-118.08C-189.08,-111.92 -184.26,-96.34 -190.72,-80.51ZM-164.82,-151.11C-170.69,-136.74 -183.03,-127.92 -189.37,-123.70L-164.29,-185.16C-161.72,-176.57 -159.72,-163.61 -164.82,-151.11ZM-138.42,-12.75L-79.26,11.40L-99.73,-102.19L-45.98,-80.25L-23.28,-135.87L-78.91,-158.57ZM8.41,40.13L-30.75,24.14L24.08,-110.22L63.25,-94.24L65.46,-99.65L-18.70,-134.00L-20.91,-128.59L18.25,-112.60L-36.59,21.76L-75.75,5.78L-78.22,11.82L5.94,46.17ZM51.33,-20.37C46.31,-8.07 49.90,4.57 59.66,12.20C47.35,10.82 35.85,17.55 30.84,29.84C24.97,44.21 31.13,60.09 45.50,65.96C57.37,70.80 70.19,66.80 77.82,57.03C76.02,69.18 82.16,80.92 94.45,85.94C106.33,90.78 119.14,86.78 126.77,77.01C124.97,89.16 131.12,100.90 143.41,105.92C157.57,111.70 173.50,104.83 179.37,90.46C185.15,76.29 178.75,59.83 164.58,54.05C152.29,49.03 139.68,53.12 132.30,63.47C133.75,53.37 129.68,43.69 121.74,37.54C134.06,38.92 145.89,32.57 150.90,20.27C155.92,7.98 152.00,-5.04 142.23,-12.67C152.13,-11.30 161.81,-15.37 167.75,-23.40C165.96,-11.25 172.10,0.49 184.39,5.51C198.55,11.29 214.48,4.42 220.35,-9.95C226.13,-24.12 219.73,-40.58 205.56,-46.36C193.27,-51.38 180.66,-47.29 173.28,-36.94C174.83,-49.67 168.90,-61.33 156.60,-66.34C144.31,-71.36 131.71,-67.27 124.32,-56.92C125.88,-69.65 119.94,-81.31 107.65,-86.32C93.28,-92.19 77.60,-84.74 71.82,-70.57C66.80,-58.28 70.39,-45.64 80.15,-38.01C67.84,-39.39 56.34,-32.66 51.33,-20.37ZM104.66,1.40C109.50,-10.47 122.37,-16.40 134.24,-11.55C146.12,-6.71 151.17,6.53 146.32,18.40C141.56,30.07 128.69,36.00 116.81,31.15C104.94,26.30 99.89,13.07 104.66,1.40ZM55.70,-18.58C60.55,-30.45 73.42,-36.38 85.29,-31.53C97.16,-26.69 102.21,-13.45 97.36,-1.58C92.60,10.09 79.73,16.02 67.86,11.17C55.99,6.32 50.94,-6.91 55.70,-18.58ZM35.21,31.62C40.06,19.75 52.93,13.82 64.80,18.67C76.67,23.52 81.72,36.75 76.87,48.63C72.11,60.29 59.24,66.22 47.37,61.38C35.50,56.53 30.45,43.29 35.21,31.62ZM84.17,51.60C89.01,39.73 101.88,33.80 113.75,38.65C125.63,43.50 130.68,56.73 125.83,68.61C121.07,80.27 108.20,86.20 96.32,81.36C84.45,76.51 79.40,63.27 84.17,51.60ZM133.12,71.58C137.97,59.71 150.83,53.78 162.71,58.63C174.58,63.48 179.63,76.71 174.78,88.59C170.02,100.25 157.15,106.18 145.28,101.34C133.41,96.49 128.36,83.25 133.12,71.58ZM174.10,-28.82C178.95,-40.70 191.81,-46.63 203.69,-41.78C215.56,-36.93 220.61,-23.69 215.76,-11.82C211.00,-0.15 198.13,5.77 186.26,0.93C174.39,-3.92 169.34,-17.16 174.10,-28.82ZM76.19,-68.78C81.04,-80.66 93.91,-86.59 105.78,-81.74C117.65,-76.89 122.70,-63.65 117.85,-51.78C113.09,-40.11 100.22,-34.19 88.35,-39.03C76.48,-43.88 71.43,-57.12 76.19,-68.78ZM125.15,-48.80C129.99,-60.68 142.86,-66.61 154.73,-61.76C166.61,-56.91 171.66,-43.67 166.81,-31.80C162.05,-20.13 149.18,-14.21 137.31,-19.05C125.43,-23.90 120.38,-37.14 125.15,-48.80ZM98.31,6.83C96.94,16.72 100.60,26.23 108.62,32.18C98.64,31.02 89.38,35.26 83.34,43.49C84.79,33.39 80.73,23.71 72.79,17.56C82.68,18.92 92.36,14.85 98.31,6.83ZM118.80,-43.38C117.43,-33.48 121.09,-23.97 129.11,-18.03C119.13,-19.18 109.87,-14.94 103.83,-6.71C105.28,-16.81 101.22,-26.49 93.28,-32.65C103.17,-31.28 112.85,-35.35 118.80,-43.38ZM275.09,156.02L281.76,158.74L322.82,58.12C334.30,30.00 322.80,2.21 298.63,-7.65C274.67,-17.43 246.60,-5.80 235.12,22.33L194.06,122.94L200.72,125.66L241.79,25.05C252.07,-0.16 276.92,-9.22 296.08,-1.40C315.45,6.51 326.44,30.19 316.07,55.61ZM262.59,150.92L269.26,153.64L310.32,53.02C319.17,31.35 311.24,12.08 293.53,4.85C276.03,-2.29 256.46,5.76 247.62,27.43L206.56,128.04L213.22,130.77L254.29,30.15C262.36,10.36 277.86,5.74 290.98,11.10C304.31,16.54 311.56,30.92 303.57,50.51ZM249.89,145.73L256.34,148.36L297.41,47.75C303.10,33.79 299.47,21.86 288.43,17.35C277.80,13.01 266.32,18.53 260.54,32.70L219.47,133.32L225.93,135.95L266.99,35.33C271.58,24.08 279.00,20.79 285.88,23.60C292.54,26.32 295.63,33.65 290.87,45.32Z" fill="#ffffff" stroke="#000000"/>
    <path d="M-899.21,493.22L-899.21,493.06L-889.36,470.38C-888.22,467.72 -887.35,466.20 -883.55,465.40L-896.17,465.40L-894.42,465.93C-892.21,466.65 -892.02,468.25 -892.63,469.81L-899.05,485.73L-905.51,469.81C-906.12,468.25 -905.93,466.65 -903.73,465.93L-901.98,465.40L-914.90,465.40C-911.21,466.20 -910.19,467.79 -909.09,470.38L-899.28,493.06L-899.24,493.22L-899.24,493.18ZM-878.38,492L-877.20,492L-877.20,465.40L-878.38,465.40ZM-875.91,492L-874.73,492L-874.73,465.40L-875.91,465.40ZM-873.44,492L-872.26,492L-872.26,465.40L-873.44,465.40ZM-884.31,467.45C-884.31,468.78 -883.25,469.85 -881.92,469.85C-880.59,469.85 -879.48,468.78 -879.48,467.45C-879.48,466.12 -880.59,465.02 -881.92,465.02C-883.25,465.02 -884.31,466.12 -884.31,467.45ZM-871.20,467.45C-871.20,468.78 -870.14,469.85 -868.81,469.85C-867.48,469.85 -866.37,468.78 -866.37,467.45C-866.37,466.12 -867.48,465.02 -868.81,465.02C-870.14,465.02 -871.20,466.12 -871.20,467.45ZM-846.80,465.40L-855.62,465.40C-859.65,465.40 -862.95,468.71 -862.95,472.73C-862.95,474.67 -862.23,476.46 -861.02,477.71C-861.93,479.00 -862.50,480.52 -862.50,482.20L-862.50,491.73C-862.50,491.85 -862.42,492 -862.23,492L-857.52,492C-857.41,492 -857.25,491.92 -857.25,491.73L-857.25,482.20C-857.25,481.02 -856.34,480.11 -855.13,480.11L-848.44,480.11C-848.32,480.11 -848.21,479.95 -848.21,479.84L-848.21,475.09C-848.21,474.94 -848.32,474.82 -848.44,474.82L-855.62,474.82C-856.80,474.82 -857.79,473.87 -857.79,472.73C-857.79,471.56 -856.80,470.61 -855.62,470.61L-846.80,470.61C-846.61,470.61 -846.50,470.49 -846.50,470.34L-846.50,465.70C-846.50,465.51 -846.61,465.40 -846.80,465.40ZM-857.79,491.54L-862.04,491.54L-862.04,482.20C-862.04,480.64 -861.55,479.23 -860.64,478.05C-860.45,478.24 -860.29,478.40 -860.10,478.51C-860.83,479.54 -861.28,480.83 -861.28,482.20L-861.28,490.59C-861.28,490.75 -861.21,490.82 -861.05,490.82L-858.70,490.82C-858.51,490.82 -858.43,490.75 -858.43,490.59L-858.43,482.20C-858.43,481.25 -858.05,480.41 -857.48,479.80C-857.14,479.92 -856.84,479.95 -856.53,479.99C-857.25,480.45 -857.79,481.25 -857.79,482.20ZM-849.84,476.50L-849.84,478.43L-855.62,478.43C-856.19,478.43 -856.68,478.40 -857.25,478.21C-856.72,477.90 -856.11,477.67 -855.47,477.67L-850.72,477.67C-850.57,477.67 -850.45,477.56 -850.45,477.45C-850.45,477.29 -850.60,477.22 -850.72,477.22L-855.62,477.22C-856.19,477.22 -856.72,477.10 -857.29,476.91C-856.72,476.69 -856.11,476.50 -855.47,476.50ZM-858.93,477.90C-858.74,478.02 -858.43,478.21 -858.20,478.28C-858.39,478.43 -858.62,478.62 -858.77,478.81C-858.96,478.74 -859.27,478.55 -859.42,478.43C-859.31,478.24 -859.12,478.02 -858.93,477.90ZM-858.93,476.42C-858.77,476.61 -858.51,476.80 -858.32,476.91C-858.55,477.07 -858.74,477.18 -858.93,477.33C-859.15,477.18 -859.38,477.03 -859.57,476.84C-859.38,476.69 -859.15,476.57 -858.93,476.42ZM-857.86,477.14C-857.56,477.29 -857.18,477.45 -856.84,477.52C-857.18,477.64 -857.56,477.83 -857.82,477.98C-858.01,477.90 -858.36,477.75 -858.55,477.60C-858.36,477.48 -858.09,477.26 -857.86,477.14ZM-859.12,479.19C-859.72,479.99 -860.10,481.06 -860.10,482.20L-860.10,489.49C-860.10,489.61 -860.03,489.72 -859.88,489.72C-859.72,489.72 -859.65,489.61 -859.65,489.49L-859.65,482.20C-859.65,481.17 -859.31,480.18 -858.70,479.38C-858.47,479.54 -858.24,479.61 -857.98,479.69C-858.51,480.37 -858.89,481.25 -858.89,482.20L-858.89,490.37L-860.83,490.37L-860.83,482.20C-860.83,480.90 -860.41,479.76 -859.72,478.81C-859.53,478.97 -859.31,479.08 -859.12,479.19ZM-858.36,479.00C-858.20,478.85 -857.94,478.62 -857.71,478.47C-857.44,478.59 -857.06,478.74 -856.72,478.81C-857.06,478.89 -857.37,479.16 -857.56,479.31C-857.86,479.23 -858.09,479.16 -858.36,479.00ZM-857.82,476.65C-858.05,476.57 -858.39,476.38 -858.55,476.19C-858.36,476.04 -858.01,475.89 -857.79,475.81C-857.48,476.00 -857.18,476.19 -856.87,476.31C-857.18,476.34 -857.52,476.50 -857.82,476.65ZM-858.85,475.85C-859.65,475.05 -860.14,473.95 -860.14,472.73C-860.14,470.23 -858.09,468.25 -855.62,468.25L-849.05,468.25C-848.93,468.25 -848.82,468.17 -848.82,468.02C-848.82,467.91 -848.89,467.79 -849.05,467.79L-855.62,467.79C-858.36,467.79 -860.60,470.00 -860.60,472.73C-860.60,473.99 -860.07,475.20 -859.23,476.08C-859.46,476.23 -859.69,476.38 -859.84,476.53C-860.79,475.51 -861.28,474.22 -861.28,472.73C-861.28,469.58 -858.77,467.03 -855.62,467.03L-848.21,467.03L-848.21,468.93L-855.62,468.93C-857.71,468.93 -859.38,470.61 -859.38,472.73C-859.38,473.84 -858.89,474.79 -858.20,475.51C-858.39,475.58 -858.66,475.74 -858.85,475.85ZM-859.88,477.18C-859.76,477.33 -859.50,477.52 -859.31,477.64C-859.53,477.83 -859.65,477.98 -859.80,478.13C-859.99,478.02 -860.14,477.90 -860.37,477.67C-860.26,477.52 -860.10,477.33 -859.88,477.18ZM-848.63,475.32L-848.63,479.65L-855.62,479.65C-856.11,479.65 -856.72,479.57 -857.06,479.46C-856.72,479.12 -855.96,478.89 -855.43,478.89L-849.58,478.89C-849.50,478.89 -849.39,478.81 -849.39,478.70L-849.39,476.27C-849.39,476.15 -849.50,476.04 -849.62,476.04L-855.62,476.04C-856.19,476.04 -856.72,475.93 -857.25,475.62C-856.72,475.47 -856.34,475.32 -855.13,475.32ZM-846.99,470.11L-855.62,470.11C-857.06,470.11 -858.24,471.33 -858.24,472.73C-858.24,473.76 -857.60,474.63 -856.80,475.05C-857.06,475.13 -857.41,475.20 -857.71,475.32C-858.43,474.71 -858.93,473.76 -858.93,472.73C-858.93,470.91 -857.44,469.39 -855.62,469.39L-847.91,469.39C-847.83,469.39 -847.72,469.31 -847.72,469.20L-847.72,466.81C-847.72,466.65 -847.83,466.58 -847.91,466.58L-855.62,466.58C-858.96,466.58 -861.74,469.31 -861.74,472.73C-861.74,474.29 -861.21,475.77 -860.18,476.88C-860.41,477.03 -860.52,477.18 -860.71,477.41C-861.78,476.15 -862.50,474.56 -862.50,472.73C-862.50,468.90 -859.38,465.86 -855.62,465.86L-846.99,465.86ZM-845.44,477.86C-845.44,478.97 -844.60,479.80 -843.50,479.80L-836.43,479.80C-835.33,479.80 -834.45,478.97 -834.45,477.86C-834.45,476.76 -835.33,475.89 -836.43,475.89L-843.50,475.89C-844.60,475.89 -845.44,476.76 -845.44,477.86ZM-832.40,492L-806.56,492L-811.08,464.30L-815.30,490.02L-819.48,464.30L-823.70,490.02L-827.88,464.30ZM-790.07,490.90L-797.21,490.90L-797.21,466.39L-790.07,466.39L-790.07,465.40L-805.42,465.40L-805.42,466.39L-798.28,466.39L-798.28,490.90L-805.42,490.90L-805.42,492L-790.07,492ZM-786.00,491.66C-783.69,487.93 -781.63,483.49 -779.09,479.92C-776.66,483.49 -774.57,487.74 -772.25,491.39C-770.73,493.79 -767.38,491.66 -769.17,489.34C-771.79,485.88 -775.29,482.69 -778.02,479.35C-778.18,479.19 -778.29,479.04 -778.40,478.89C-778.29,478.74 -778.18,478.55 -778.02,478.40C-775.29,474.94 -771.91,471.71 -769.17,468.29C-767.23,465.74 -770.69,463.65 -772.25,466.24C-774.45,469.96 -776.54,474.41 -779.09,477.86C-781.71,474.33 -783.76,469.81 -786.00,465.97C-787.52,463.42 -791.06,465.59 -789.08,468.02C-786.31,471.40 -783.04,474.79 -780.30,478.28C-780.15,478.55 -780,478.70 -779.85,478.89L-780.30,479.46C-783.04,482.92 -786.31,486.22 -789.08,489.61C-790.91,491.81 -787.49,494.05 -786.00,491.66ZM-754.24,493.90L-740.44,479.00L-754.20,464.07L-767.99,479.00ZM-754.20,464.87C-751.69,467.60 -750.13,474.33 -750.13,478.97C-750.13,483.83 -751.69,490.14 -754.20,492.84C-756.74,490.10 -758.30,483.79 -758.30,478.97C-758.30,474.22 -756.74,467.60 -754.20,464.87Z"/>
</svg>