<?xml version="1.0"?>
<svg xmlns="http://www.w3.org/2000/svg" width="1920" height="1080" viewBox="-960 -540 1920 1080">
    <path d="M-859.63,-210L-815.38,-367L-771.13,-210L-747.38,-210L-701.38,-386.50L-723.88,-392.02L-759.13,-238.75L-801.13,-390L-829.63,-390L-870.38,-238.75L-906.38,-392.02L-929.38,-386.50L-883.38,-210ZM-682.38,-210L-659.71,-210L-659.71,-280.75L-649.96,-313.69L-624.55,-325.23L-603.45,-315.48L-597.36,-288.92L-597.38,-210L-574.93,-210L-574.83,-289.10L-583.38,-328.93L-619.96,-344.62L-643.96,-339.11L-659.75,-322.25L-659.75,-390L-682.38,-390ZM-463.52,-297.19L-536.83,-274.70L-551.75,-243.62L-538.36,-214.10L-506.64,-204.86L-483.36,-209.38L-462.03,-225.04L-462.13,-210L-441.13,-210L-441.09,-293.86L-452.93,-332.03L-491.84,-345.13L-526.84,-336.58L-543.85,-311.21L-526.00,-300.24L-514.55,-320.00L-494.13,-326.75L-472.25,-320.35ZM-463.52,-277.30L-463.54,-244.38L-479.45,-230.45L-503.04,-223.21L-519.98,-227.60L-527.77,-244.62L-517.73,-262.29ZM-351.43,-208.26L-351.42,-208.26L-354.02,-227.65L-364.10,-226.14L-374.94,-231.63L-376.88,-248L-376.88,-322.75L-354.63,-322.75L-354.63,-340L-376.88,-340L-376.88,-385L-399.38,-385L-399.38,-340L-417.88,-340L-417.88,-322.75L-399.38,-322.75L-399.38,-248L-394.24,-216.61L-368.62,-205.85ZM-257.80,-210L-235.24,-210L-235.24,-277.25L-229.11,-310.56L-202.56,-325.70L-184.98,-317.60L-179.20,-295.03L-179.20,-210L-156.70,-210L-156.70,-285.25L-148.65,-313.68L-123.77,-325.70L-104.68,-315.47L-100.38,-292.48L-100.38,-210L-77.88,-210L-77.88,-300.50L-87.93,-333.36L-118.92,-345.09L-142.38,-339.45L-160.20,-319.75L-173.33,-338.68L-197.02,-344.97L-220.63,-339.87L-237.49,-321.50L-237.49,-340L-257.74,-340ZM32.48,-297.19L-40.83,-274.70L-55.75,-243.62L-42.36,-214.10L-10.64,-204.86L12.64,-209.38L33.97,-225.04L33.88,-210L54.88,-210L54.91,-293.86L43.07,-332.03L4.16,-345.13L-30.84,-336.58L-47.85,-311.21L-30.00,-300.24L-18.55,-320.00L1.87,-326.75L23.75,-320.35ZM32.48,-277.30L32.46,-244.38L16.55,-230.45L-7.04,-223.21L-23.98,-227.60L-31.77,-244.62L-21.73,-262.29ZM111.81,-266.25L132.88,-266.25L142.88,-258.25L169.58,-208.02L189.88,-219L162.88,-266.25L146.34,-275.51L159.84,-288.53L172.00,-314.32L179.32,-317.65L189.56,-319.27L186.56,-340.01L167.84,-338.16L155.38,-327.30L141.31,-296.69L132.88,-285L111.84,-285L111.84,-390.01L100.36,-390.01L89.40,-390L89.38,-210L111.81,-210ZM243.24,-234.73L230.13,-269.23L326.63,-269.25L327.88,-278.25L312.99,-325.87L267.89,-345.22L223.78,-326.61L207.20,-275.10L223.78,-223.59L267.89,-204.97L305.03,-215.94L322.13,-242.75L304.61,-253.69L290.97,-231.44L269.16,-224.11ZM230.88,-287.25L245.00,-317.01L267.87,-326.13L293.37,-315.28L303.63,-287.25ZM365.48,-250.27L346.37,-241.34L359.09,-215.83L397.61,-204.84L434.36,-213.99L451.19,-245.13L441.08,-271.80L419.18,-283.06L388.88,-291.25L372.03,-298L366.50,-308.38L373.74,-321.21L394.95,-325.91L415.32,-320.35L424.08,-303.81L443.01,-312.74L432.00,-334.52L395.80,-345.13L359.94,-335.92L344.54,-305.85L354.53,-281.99L377.09,-271.22L409.13,-262.75L424.22,-255.17L428.21,-243.13L418.16,-228.03L398.37,-224.02L374.47,-231.88ZM623.98,-297.19L550.67,-274.70L535.75,-243.62L549.14,-214.10L580.86,-204.86L604.14,-209.38L625.47,-225.04L625.38,-210L646.38,-210L646.41,-293.86L634.57,-332.03L595.66,-345.13L560.66,-336.58L543.65,-311.21L561.50,-300.24L572.95,-320.00L593.37,-326.75L615.25,-320.35ZM623.98,-277.30L623.96,-244.38L608.05,-230.45L584.46,-223.21L567.52,-227.60L559.73,-244.62L569.77,-262.29ZM680.26,-210L702.76,-210L702.76,-280.75L712.51,-314.15L737.94,-325.70L759.02,-315.95L765.13,-289.75L765.13,-210L787.63,-210L787.63,-289.75L779.11,-329.40L742.52,-345.09L718.22,-339.73L700.51,-321.25L700.51,-340L680.26,-340ZM-441.80,-136.74L-433.67,-145.64L-433.65,-158.35L-441.94,-167.46L-453.50,-167.46L-461.57,-158.37L-461.58,-145.67L-453.36,-136.74ZM-436.38,15L-436.38,-115L-458.88,-115L-458.88,15ZM-405.05,15L-382.49,15L-382.49,-52.25L-376.36,-85.56L-349.81,-100.70L-332.23,-92.60L-326.45,-70.03L-326.45,15L-303.95,15L-303.95,-60.25L-295.90,-88.68L-271.02,-100.70L-251.93,-90.47L-247.63,-67.48L-247.63,15L-225.13,15L-225.13,-75.50L-235.18,-108.36L-266.17,-120.09L-289.63,-114.45L-307.45,-94.75L-320.58,-113.68L-344.27,-119.97L-367.88,-114.87L-384.74,-96.50L-384.74,-115L-404.99,-115ZM-194.13,65L-171.63,65L-171.63,1.25L-157.52,14.46L-136.69,19.66L-94.45,0.09L-79.77,-50.46L-94.45,-101.02L-136.69,-120.59L-158.72,-114.53L-174.13,-97.25L-174.13,-115L-194.13,-115ZM-137.97,0.54L-163.75,-12.33L-174.43,-50.44L-162.79,-88.57L-137.97,-101.45L-112.81,-88.57L-102.78,-50.44L-112.81,-12.33ZM22.73,-72.19L-50.58,-49.70L-65.50,-18.62L-52.11,10.90L-20.39,20.14L2.89,15.62L24.22,-0.04L24.13,15L45.13,15L45.16,-68.86L33.32,-107.03L-5.59,-120.13L-40.59,-111.58L-57.60,-86.21L-39.75,-75.24L-28.30,-95.00L-7.88,-101.75L14.00,-95.35ZM22.73,-52.30L22.71,-19.38L6.80,-5.45L-16.79,1.79L-33.73,-2.60L-41.52,-19.62L-31.48,-37.29ZM131.72,1.01L105.29,-10.92L93.98,-50.00L105.29,-89.08L131.72,-101.01L152.17,-93.90L164.61,-70.90L183.98,-80.60L167.28,-108.49L131.72,-120.13L87.60,-101.51L71.02,-50.00L87.58,1.51L131.72,20.12L167.28,8.62L183.73,-18.64L164.61,-28.82L152.15,-6.06ZM265.82,16.74L265.83,16.74L263.23,-2.65L253.15,-1.14L242.31,-6.63L240.38,-23L240.38,-97.75L262.63,-97.75L262.63,-115L240.38,-115L240.38,-160L217.88,-160L217.88,-115L199.38,-115L199.38,-97.75L217.88,-97.75L217.88,-23L223.01,8.39L248.63,19.15ZM349.29,18.14L358.16,9.11L358.10,-3.59L349.14,-12.53L336.55,-12.46L327.68,-3.44L327.74,9.26L336.70,18.20ZM331.28,-28.05L353.08,-28.05L353.08,-34.94L356.44,-53.14L368.60,-68.08L390.36,-89.10L400.47,-119.09L384.34,-156.60L341.81,-170.59L303.58,-156.31L288.78,-122.90L307.90,-114.24L319.23,-141.50L342.02,-150.20L366.00,-142.86L376.19,-117.56L369.55,-96.88L354.48,-82.12L336.58,-61.97L331.28,-34.94Z" fill="#ffffff" stroke="#000000"/>
    <path d="M-858.90,-196.69L-816.58,-352.53L-771.29,-197.53L-747.78,-197.76L-703.92,-372.92L-726.24,-378.17L-759.68,-226.11L-802.70,-375.44L-830.91,-375.17L-869.81,-225.05L-906.91,-376.44L-929.63,-370.75L-882.41,-196.46ZM-683.43,-198.37L-660.99,-198.59L-661.67,-268.63L-652.32,-301.33L-627.28,-313.00L-606.30,-303.55L-600.02,-277.31L-599.28,-199.18L-577.07,-199.40L-577.72,-277.70L-586.56,-317.05L-622.92,-332.24L-646.63,-326.56L-662.09,-309.71L-662.74,-376.78L-685.14,-376.57ZM-467.60,-286.77L-539.96,-263.80L-554.44,-232.90L-540.90,-203.80L-509.40,-194.96L-486.40,-199.66L-465.44,-215.36L-465.39,-200.47L-444.60,-200.67L-445.37,-283.69L-457.45,-321.36L-496.09,-333.95L-530.65,-325.16L-547.25,-299.89L-529.49,-289.20L-518.33,-308.86L-498.19,-315.75L-476.46,-309.62ZM-467.41,-267.08L-467.11,-234.50L-482.73,-220.55L-506.02,-213.15L-522.83,-217.34L-530.70,-234.12L-520.94,-251.70ZM-355.79,-199.80L-355.79,-199.80L-358.54,-218.97L-368.50,-217.38L-379.28,-222.71L-381.36,-238.90L-382.07,-312.90L-360.04,-313.11L-360.21,-330.19L-382.23,-329.97L-382.66,-374.52L-404.94,-374.31L-404.51,-329.76L-422.82,-329.58L-422.66,-312.51L-404.34,-312.68L-403.63,-238.68L-398.25,-207.66L-372.79,-197.25ZM-263.11,-202.41L-240.79,-202.63L-241.43,-269.20L-235.67,-302.23L-209.53,-317.47L-192.05,-309.62L-186.11,-287.33L-185.30,-203.16L-163.03,-203.37L-163.75,-277.87L-156.05,-306.09L-131.53,-318.22L-112.54,-308.28L-108.06,-285.56L-107.27,-203.91L-85.00,-204.12L-85.86,-293.71L-96.13,-326.15L-126.91,-337.46L-150.09,-331.66L-167.54,-311.99L-180.72,-330.60L-204.23,-336.60L-227.55,-331.33L-244.08,-312.99L-244.25,-331.30L-264.30,-331.11ZM23.41,-291.48L-48.95,-268.52L-63.42,-237.62L-49.88,-208.52L-18.39,-199.67L4.61,-204.37L25.58,-220.07L25.63,-205.19L46.42,-205.39L45.65,-288.41L33.57,-326.07L-5.07,-338.67L-39.64,-329.88L-56.24,-304.60L-38.47,-293.91L-27.32,-313.58L-7.17,-320.46L14.55,-314.34ZM23.60,-271.79L23.90,-239.21L8.29,-225.26L-15.00,-217.87L-31.82,-222.06L-39.69,-238.83L-29.92,-256.42ZM102.25,-261.61L123.10,-261.81L133.07,-253.99L159.99,-204.51L179.97,-215.58L152.80,-262.10L136.34,-271.11L149.58,-284.13L161.37,-309.77L168.58,-313.13L178.71,-314.84L175.54,-335.35L157.03,-333.33L144.79,-322.46L131.16,-292.02L122.92,-280.37L102.09,-280.17L101.09,-384.13L89.74,-384.02L78.88,-383.91L80.57,-205.71L102.78,-205.93ZM232.65,-231.66L219.34,-265.69L314.87,-266.62L316.02,-275.55L300.83,-322.55L256.00,-341.27L212.51,-322.43L196.60,-271.28L213.49,-220.44L257.34,-202.44L294.00,-213.65L310.67,-240.35L293.22,-251.01L279.94,-228.86L258.42,-221.39ZM219.91,-283.53L233.61,-313.13L256.16,-322.37L281.52,-311.88L291.93,-284.22ZM353.52,-248.21L334.68,-239.18L347.52,-214.05L385.76,-203.53L422.05,-212.94L438.42,-243.93L428.16,-270.24L406.37,-281.17L376.29,-289.00L359.54,-295.52L353.98,-305.74L361.02,-318.51L381.97,-323.37L402.19,-318.06L411.02,-301.77L429.67,-310.78L418.57,-332.24L382.63,-342.40L347.22,-332.94L332.26,-303.03L342.38,-279.50L364.81,-269.06L396.61,-260.97L411.62,-253.61L415.68,-241.73L405.88,-226.69L386.33,-222.53L362.59,-230.09ZM608.97,-297.11L536.61,-274.15L522.14,-243.24L535.67,-214.14L567.17,-205.30L590.17,-210.00L611.14,-225.70L611.18,-210.81L631.97,-211.01L631.21,-294.03L619.13,-331.70L580.49,-344.30L545.92,-335.50L529.32,-310.23L547.09,-299.54L558.24,-319.20L578.39,-326.09L600.11,-319.96ZM609.16,-277.42L609.46,-244.84L593.84,-230.89L570.55,-223.50L553.74,-227.68L545.87,-244.46L555.64,-262.04ZM665.51,-211.33L687.79,-211.55L687.12,-281.59L696.46,-314.75L721.52,-326.41L742.48,-316.96L748.77,-291.09L749.53,-212.14L771.80,-212.35L771.05,-291.30L762.24,-330.47L725.87,-345.65L701.87,-340.12L684.50,-321.66L684.32,-340.22L664.28,-340.03ZM-444.58,-128.13L-436.61,-137.02L-436.71,-149.61L-445.01,-158.55L-456.45,-158.44L-464.35,-149.37L-464.24,-136.79L-456.02,-128.02ZM-437.76,22.03L-439.00,-106.67L-461.27,-106.45L-460.03,22.24ZM-406.75,21.73L-384.42,21.51L-385.06,-45.06L-379.30,-78.09L-353.16,-93.33L-335.68,-85.48L-329.74,-63.19L-328.94,20.98L-306.66,20.77L-307.38,-53.73L-299.68,-81.95L-275.16,-94.08L-256.17,-84.14L-251.69,-61.42L-250.91,20.23L-228.63,20.02L-229.49,-69.57L-239.76,-102.01L-270.55,-113.32L-293.72,-107.52L-311.17,-87.85L-324.36,-106.46L-347.86,-112.46L-371.18,-107.19L-387.71,-88.85L-387.88,-107.16L-407.93,-106.97ZM-197.47,69.22L-175.19,69.01L-175.80,5.90L-161.71,18.84L-141.04,23.79L-99.41,4.01L-85.36,-46.17L-100.37,-96.08L-142.38,-115.05L-164.13,-108.84L-179.21,-91.59L-179.38,-109.16L-199.18,-108.97ZM-142.49,4.88L-168.13,-7.62L-179.07,-45.25L-167.91,-83.10L-143.46,-96.09L-118.43,-83.58L-108.14,-45.93L-117.71,-8.11ZM15.90,-68.65L-56.46,-45.69L-70.93,-14.78L-57.40,14.32L-25.90,23.16L-2.90,18.46L18.07,2.76L18.11,17.65L38.90,17.45L38.14,-65.57L26.06,-103.24L-12.58,-115.84L-47.15,-107.05L-63.75,-81.77L-45.98,-71.08L-34.83,-90.75L-14.68,-97.63L7.04,-91.50ZM16.09,-48.96L16.39,-16.38L0.77,-2.43L-22.52,4.96L-39.33,0.78L-47.20,-16.00L-37.43,-33.59ZM124.50,2.77L98.22,-8.78L86.65,-47.37L97.48,-86.16L123.53,-98.22L143.84,-91.37L156.37,-68.73L175.46,-78.51L158.66,-105.96L123.34,-117.14L79.84,-98.30L63.92,-47.15L80.81,3.69L124.68,21.69L159.78,9.97L175.79,-17.17L156.77,-27.07L144.66,-4.42ZM257.40,17.07L257.40,17.07L254.65,-2.10L244.69,-0.51L233.90,-5.84L231.83,-22.03L231.12,-96.03L253.15,-96.24L252.98,-113.32L230.96,-113.10L230.53,-157.65L208.25,-157.44L208.68,-112.89L190.37,-112.71L190.53,-95.64L208.85,-95.81L209.56,-21.81L214.94,9.21L240.40,19.62ZM340.05,17.66L348.74,8.64L348.55,-3.93L339.61,-12.69L327.14,-12.51L318.45,-3.49L318.63,9.08L327.58,17.84ZM321.78,-27.89L343.35,-28.09L343.29,-34.91L346.44,-52.97L358.34,-67.88L379.68,-88.89L389.41,-118.68L373.08,-155.65L330.84,-169.10L293.14,-154.60L278.80,-121.39L297.81,-113.00L308.76,-140.09L331.25,-148.91L355.05,-141.88L365.38,-116.93L359.00,-96.39L344.23,-81.63L326.70,-61.52L321.71,-34.71Z" fill="#ffffff" stroke="#000000"/>
    <path d="M-857.88,-183.47L-817.47,-338.14L-771.16,-185.14L-747.89,-185.59L-706.14,-359.39L-728.29,-364.38L-759.94,-213.54L-803.94,-360.94L-831.87,-360.41L-868.95,-211.44L-907.11,-360.94L-929.54,-355.10L-881.15,-183.03ZM-684.20,-186.81L-662.00,-187.24L-663.33,-256.56L-654.39,-289.01L-629.71,-300.80L-608.86,-291.65L-602.39,-265.74L-600.92,-188.41L-578.93,-188.83L-580.32,-266.34L-589.44,-305.20L-625.58,-319.89L-648.99,-314.04L-664.14,-297.22L-665.42,-363.61L-687.59,-363.18ZM-471.41,-276.36L-542.82,-252.94L-556.85,-222.21L-543.17,-193.54L-511.91,-185.08L-489.19,-189.95L-468.58,-205.69L-468.40,-190.96L-447.82,-191.35L-449.37,-273.52L-461.69,-310.70L-500.05,-322.80L-534.18,-313.76L-550.38,-288.59L-532.69,-278.17L-521.83,-297.75L-501.96,-304.75L-480.40,-298.89ZM-471.03,-256.87L-470.43,-224.62L-485.75,-210.67L-508.74,-203.13L-525.42,-207.11L-533.37,-223.64L-523.87,-241.14ZM-359.90,-191.33L-359.90,-191.34L-362.81,-210.29L-372.65,-208.62L-383.38,-213.80L-385.58,-229.80L-386.99,-303.04L-365.19,-303.46L-365.51,-320.36L-387.31,-319.94L-388.16,-364.03L-410.21,-363.61L-409.36,-319.52L-427.49,-319.17L-427.16,-302.27L-409.04,-302.61L-407.63,-229.37L-402.01,-198.71L-376.71,-188.66ZM-268.19,-194.80L-246.10,-195.23L-247.36,-261.12L-241.97,-293.87L-216.24,-309.21L-198.87,-301.60L-192.78,-279.60L-191.18,-196.28L-169.13,-196.71L-170.55,-270.44L-163.20,-298.45L-139.04,-310.69L-120.15,-301.03L-115.50,-278.59L-113.95,-197.77L-91.90,-198.19L-93.61,-286.86L-104.08,-318.87L-134.66,-329.78L-157.54,-323.82L-174.63,-304.18L-187.86,-322.48L-211.18,-328.20L-234.22,-322.75L-250.40,-304.44L-250.75,-322.56L-270.59,-322.18ZM14.58,-285.69L-56.83,-262.28L-70.86,-231.55L-57.18,-202.87L-25.92,-194.42L-3.20,-199.29L17.41,-215.03L17.59,-200.29L38.17,-200.69L36.62,-282.86L24.30,-320.03L-14.06,-332.13L-48.19,-323.10L-64.39,-297.92L-46.70,-287.51L-35.84,-307.08L-15.97,-314.09L5.59,-308.23ZM14.96,-266.21L15.56,-233.96L0.24,-220.00L-22.75,-212.47L-39.43,-216.45L-47.38,-232.98L-37.88,-250.48ZM92.90,-256.88L113.54,-257.27L123.49,-249.62L150.60,-200.91L170.28,-212.05L142.93,-257.84L126.56,-266.60L139.54,-279.61L150.97,-305.11L158.07,-308.51L168.08,-310.29L164.75,-330.56L146.44,-328.39L134.44,-317.51L121.23,-287.26L113.18,-275.65L92.57,-275.25L90.59,-378.14L79.35,-377.92L68.61,-377.71L71.97,-201.34L93.96,-201.76ZM222.27,-228.47L208.77,-262.02L303.32,-263.86L304.38,-272.70L288.89,-319.08L244.34,-337.19L201.47,-318.12L186.20,-267.34L203.41,-217.18L246.98,-199.78L283.16,-211.22L299.41,-237.81L282.04,-248.20L269.10,-226.15L247.87,-218.55ZM209.16,-279.69L222.44,-309.12L244.68,-318.48L269.87,-308.34L280.45,-281.06ZM341.75,-246.00L323.19,-236.89L336.14,-212.13L374.08,-202.08L409.92,-211.74L425.82,-242.57L415.42,-268.52L393.75,-279.13L363.90,-286.59L347.26,-292.88L341.66,-302.96L348.50,-315.65L369.20,-320.67L389.27,-315.60L398.16,-299.56L416.54,-308.66L405.34,-329.79L369.67,-339.51L334.71,-329.81L320.18,-300.06L330.42,-276.86L352.73,-266.74L384.28,-259.04L399.21,-251.90L403.34,-240.18L393.79,-225.20L374.47,-220.89L350.91,-228.15ZM594.15,-296.83L522.74,-273.41L508.70,-242.68L522.38,-214.01L553.64,-205.55L576.36,-210.43L596.97,-226.16L597.16,-211.43L617.73,-211.83L616.18,-294.00L603.87,-331.17L565.50,-343.27L531.37,-334.24L515.18,-309.06L532.87,-298.65L543.72,-318.22L563.60,-325.23L585.16,-319.37ZM594.52,-277.34L595.13,-245.09L579.80,-231.14L556.82,-223.60L540.14,-227.58L532.19,-244.11L541.69,-261.62ZM650.93,-212.46L672.98,-212.89L671.64,-282.21L680.57,-315.12L705.28,-326.91L726.11,-317.76L732.58,-292.20L734.09,-214.06L756.13,-214.48L754.63,-292.62L745.54,-331.31L709.40,-346.00L685.69,-340.29L668.68,-321.85L668.32,-340.22L648.48,-339.84ZM-447.11,-119.55L-439.31,-128.43L-439.53,-140.88L-447.82,-149.66L-459.15,-149.44L-466.88,-140.38L-466.65,-127.94L-458.43,-119.34ZM-438.93,29.02L-441.38,-98.36L-463.42,-97.94L-460.98,29.44ZM-408.23,28.43L-386.14,28.00L-387.40,-37.89L-382.02,-70.64L-356.29,-85.97L-338.91,-78.37L-332.82,-56.36L-331.22,26.95L-309.17,26.52L-310.59,-47.21L-303.25,-75.22L-279.09,-87.46L-260.19,-77.80L-255.54,-55.35L-253.99,25.46L-231.94,25.04L-233.65,-63.63L-244.12,-95.64L-274.70,-106.55L-297.58,-100.59L-314.67,-80.95L-327.90,-99.25L-351.23,-104.96L-374.26,-99.52L-390.44,-81.20L-390.79,-99.33L-410.63,-98.95ZM-200.63,73.45L-178.58,73.02L-179.78,10.56L-165.72,23.24L-145.21,27.94L-104.18,7.97L-90.76,-41.84L-106.09,-91.10L-147.85,-109.48L-169.32,-103.12L-184.09,-85.90L-184.42,-103.30L-204.02,-102.92ZM-146.82,9.23L-172.32,-2.89L-183.51,-40.04L-172.82,-77.61L-148.74,-90.70L-123.85,-78.55L-113.30,-41.39L-122.41,-3.85ZM9.27,-65.05L-62.14,-41.64L-76.18,-10.91L-62.50,17.77L-31.24,26.22L-8.52,21.35L12.09,5.61L12.28,20.35L32.85,19.95L31.30,-62.22L18.99,-99.39L-19.38,-111.49L-53.51,-102.46L-69.70,-77.28L-52.01,-66.87L-41.16,-86.44L-21.28,-93.45L0.28,-87.59ZM9.64,-45.56L10.25,-13.32L-5.08,0.64L-28.06,8.18L-44.74,4.19L-52.70,-12.34L-43.19,-29.84ZM117.44,4.61L91.32,-6.58L79.50,-44.66L89.85,-83.16L115.52,-95.35L135.69,-88.76L148.31,-66.47L167.11,-76.33L150.22,-103.34L115.16,-114.08L72.28,-95.01L57.00,-44.23L74.20,5.93L117.80,23.34L152.43,11.40L168.02,-15.61L149.10,-25.24L137.32,-2.70ZM249.13,17.51L249.13,17.50L246.22,-1.45L236.38,0.22L225.65,-4.96L223.45,-20.96L222.04,-94.20L243.84,-94.62L243.52,-111.52L221.71,-111.10L220.87,-155.19L198.82,-154.77L199.67,-110.68L181.54,-110.33L181.87,-93.43L199.99,-93.77L201.40,-20.53L207.02,10.13L232.32,20.18ZM330.94,17.30L339.46,8.29L339.16,-4.15L330.22,-12.74L317.87,-12.44L309.36,-3.43L309.66,9.01L318.60,17.60ZM312.43,-27.61L333.78,-28.02L333.65,-34.77L336.60,-52.68L348.23,-67.54L369.16,-88.54L378.50,-118.12L361.99,-154.57L320.06,-167.47L282.87,-152.77L268.99,-119.75L287.89,-111.63L298.48,-138.55L320.65,-147.50L344.27,-140.77L354.74,-116.16L348.62,-95.78L334.14,-81.03L316.97,-60.95L312.30,-34.36Z" fill="#ffffff" stroke="#000000"/>
    <path d="M-856.56,-170.36L-818.04,-323.83L-770.75,-172.84L-747.72,-173.50L-708.05,-345.92L-730.02,-350.64L-759.92,-201.05L-804.87,-346.52L-832.50,-345.73L-867.79,-197.94L-906.98,-345.54L-929.12,-339.55L-879.59,-169.70ZM-684.70,-175.32L-662.73,-175.95L-664.70,-244.55L-656.17,-276.75L-631.85,-288.66L-611.12,-279.79L-604.48,-254.21L-602.28,-177.69L-580.52,-178.32L-582.64,-255.02L-592.04,-293.40L-627.95,-307.59L-651.06,-301.58L-665.89,-284.79L-667.79,-350.48L-689.73,-349.84ZM-474.94,-265.97L-545.39,-242.11L-558.99,-211.56L-545.18,-183.31L-514.16,-175.24L-491.72,-180.28L-471.47,-196.05L-471.15,-181.47L-450.78,-182.06L-453.10,-263.37L-465.64,-300.05L-503.73,-311.66L-537.43,-302.39L-553.21,-277.32L-535.60,-267.18L-525.05,-286.66L-505.44,-293.78L-484.05,-288.19ZM-474.38,-246.68L-473.47,-214.77L-488.51,-200.81L-511.19,-193.13L-527.73,-196.92L-535.76,-213.20L-526.52,-230.61ZM-363.77,-182.87L-363.76,-182.88L-366.82,-201.61L-376.55,-199.86L-387.21,-204.88L-389.55,-220.70L-391.64,-293.18L-370.06,-293.80L-370.55,-310.52L-392.12,-309.90L-393.38,-353.53L-415.19,-352.90L-413.94,-309.27L-431.87,-308.76L-431.39,-292.03L-413.45,-292.55L-411.37,-220.07L-405.51,-189.78L-380.37,-180.06ZM-273.03,-187.18L-251.16,-187.81L-253.04,-253.02L-248.02,-285.48L-222.70,-300.90L-205.43,-293.54L-199.19,-271.82L-196.82,-189.38L-175.00,-190.01L-177.10,-262.97L-170.10,-290.76L-146.31,-303.11L-127.51,-293.72L-122.70,-271.56L-120.39,-191.58L-98.58,-192.21L-101.11,-279.96L-111.78,-311.54L-142.15,-322.04L-164.74,-315.92L-181.46,-296.32L-194.73,-314.31L-217.87,-319.75L-240.62,-314.14L-256.46,-295.86L-256.98,-313.80L-276.61,-313.23ZM5.98,-279.83L-64.47,-255.97L-78.07,-225.43L-64.26,-197.17L-33.24,-189.10L-10.80,-194.14L9.45,-209.91L9.78,-195.33L30.14,-195.92L27.82,-277.23L15.28,-313.91L-22.81,-325.52L-56.51,-316.26L-72.29,-291.18L-54.68,-281.04L-44.13,-300.52L-24.52,-307.64L-3.13,-302.05ZM6.54,-260.54L7.45,-228.63L-7.59,-214.67L-30.27,-207.00L-46.81,-210.78L-54.84,-227.06L-45.60,-244.48ZM83.77,-252.05L104.19,-252.64L114.11,-245.16L141.41,-197.20L160.78,-208.42L133.28,-253.48L116.99,-262.00L129.72,-275.00L140.79,-300.34L147.79,-303.77L157.67,-305.63L154.18,-325.66L136.08,-323.34L124.31,-312.46L111.52,-282.39L103.67,-270.82L83.27,-270.23L80.33,-372.05L69.21,-371.73L58.58,-371.41L63.59,-196.88L85.34,-197.51ZM212.08,-225.16L198.40,-258.25L291.97,-260.96L292.93,-269.72L277.16,-315.48L232.89,-332.98L190.64,-313.70L176.02,-263.29L193.52,-213.81L236.81,-197.00L272.52,-208.67L288.35,-235.14L271.05,-245.26L258.46,-223.31L237.51,-215.59ZM198.63,-275.74L211.49,-304.99L233.41,-314.47L258.44,-304.67L269.16,-277.77ZM330.17,-243.65L311.89,-234.45L324.94,-210.07L362.59,-200.49L397.97,-210.39L413.42,-241.06L402.87,-266.64L381.33,-276.94L351.71,-284.03L335.19,-290.11L329.54,-300.02L336.20,-312.66L356.63,-317.81L376.54,-312.99L385.50,-297.20L403.60,-306.38L392.32,-327.19L356.92,-336.46L322.41,-326.54L308.31,-296.95L318.67,-274.09L340.84,-264.29L372.14,-256.97L386.99,-250.04L391.19,-238.48L381.87,-223.56L362.80,-219.11L339.41,-226.07ZM579.50,-296.36L509.05,-272.50L495.45,-241.96L509.26,-213.70L540.28,-205.63L562.72,-210.67L582.97,-226.45L583.29,-211.86L603.65,-212.45L601.34,-293.76L588.80,-330.44L550.71,-342.05L517.01,-332.79L501.23,-307.71L518.83,-297.58L529.39,-317.05L548.99,-324.17L570.39,-318.58ZM580.06,-277.07L580.96,-245.16L565.93,-231.20L543.25,-223.53L526.70,-227.31L518.68,-243.60L527.91,-261.01ZM636.50,-213.40L658.32,-214.03L656.34,-282.62L664.87,-315.29L689.21,-327.19L709.91,-318.33L716.56,-293.09L718.79,-215.77L740.61,-216.40L738.38,-293.72L729.01,-331.93L693.10,-346.12L669.69,-340.24L653.03,-321.83L652.51,-340.01L632.87,-339.44ZM-449.40,-111.00L-441.76,-119.86L-442.09,-132.18L-450.39,-140.79L-461.59,-140.47L-469.16,-131.43L-468.81,-119.11L-460.60,-110.68ZM-439.89,35.97L-443.52,-90.08L-465.34,-89.45L-461.71,36.60ZM-409.51,35.09L-387.65,34.46L-389.53,-30.74L-384.51,-63.21L-359.19,-78.63L-341.91,-71.27L-335.68,-49.55L-333.30,32.90L-311.49,32.27L-313.59,-40.69L-306.59,-68.49L-282.79,-80.83L-264.00,-71.45L-259.18,-49.28L-256.88,30.69L-235.06,30.06L-237.59,-57.68L-248.26,-89.27L-278.63,-99.77L-301.22,-93.65L-317.95,-74.05L-331.22,-92.03L-354.36,-97.47L-377.10,-91.87L-392.95,-73.58L-393.46,-91.52L-413.10,-90.96ZM-203.61,77.68L-181.79,77.05L-183.57,15.24L-169.53,27.66L-149.19,32.11L-108.77,11.95L-95.96,-37.47L-111.60,-86.08L-153.11,-103.87L-174.30,-97.38L-188.75,-80.20L-189.25,-97.41L-208.64,-96.85ZM-150.96,13.61L-176.32,1.85L-187.74,-34.81L-177.52,-72.10L-153.81,-85.28L-129.06,-73.49L-118.26,-36.81L-126.93,0.43ZM2.82,-61.40L-67.64,-37.54L-81.23,-6.99L-67.42,21.26L-36.40,29.33L-13.96,24.29L6.28,8.52L6.61,23.10L26.97,22.51L24.66,-58.80L12.11,-95.48L-25.97,-107.09L-59.67,-97.82L-75.46,-72.75L-57.85,-62.61L-47.29,-82.09L-27.69,-89.21L-6.29,-83.62ZM3.37,-42.11L4.28,-10.20L-10.76,3.76L-33.43,11.44L-49.98,7.65L-58.01,-8.63L-48.77,-26.04ZM110.54,6.52L84.58,-4.30L72.52,-41.88L82.40,-80.09L107.69,-92.39L127.72,-86.07L140.43,-64.12L158.94,-74.06L141.97,-100.63L107.16,-110.92L64.90,-91.64L50.26,-41.24L67.76,8.24L111.08,25.06L145.24,12.91L160.42,-13.97L141.60,-23.32L130.16,-0.90ZM241.01,18.04L241.01,18.03L237.95,-0.70L228.22,1.05L217.56,-3.97L215.22,-19.79L213.13,-92.27L234.71,-92.89L234.23,-109.61L212.65,-108.99L211.39,-152.62L189.58,-152.00L190.84,-108.36L172.90,-107.85L173.38,-91.12L191.32,-91.64L193.41,-19.16L199.26,11.13L224.40,20.85ZM321.98,17.05L330.32,8.05L329.91,-4.26L320.98,-12.67L308.76,-12.26L300.42,-3.26L300.84,9.05L309.77,17.47ZM303.23,-27.22L324.36,-27.83L324.17,-34.51L326.91,-52.26L338.29,-67.08L358.81,-88.07L367.77,-117.43L351.07,-153.35L309.45,-165.72L272.78,-150.82L259.36,-118.01L278.14,-110.15L288.37,-136.89L310.23,-145.96L333.67,-139.52L344.27,-115.27L338.40,-95.03L324.21,-80.30L307.41,-60.26L303.04,-33.90Z" fill="#ffffff" stroke="#000000"/>
    <path d="M-854.96,-157.36L-818.30,-309.60L-770.06,-160.62L-747.27,-161.50L-709.66,-332.51L-731.44,-336.97L-759.61,-188.64L-805.47,-332.19L-832.81,-331.14L-866.33,-184.54L-906.51,-330.25L-928.37,-324.10L-877.74,-156.48ZM-684.92,-163.89L-663.18,-164.73L-665.79,-232.60L-657.65,-264.55L-633.70,-276.56L-613.10,-267.99L-606.28,-242.74L-603.38,-167.03L-581.85,-167.85L-584.68,-243.74L-594.34,-281.63L-630.01,-295.33L-652.83,-289.17L-667.35,-272.41L-669.85,-337.40L-691.56,-336.56ZM-478.19,-255.60L-547.69,-231.32L-560.86,-200.96L-546.92,-173.13L-516.15,-165.44L-493.98,-170.64L-474.10,-186.44L-473.64,-172.01L-453.49,-172.79L-456.55,-253.24L-469.32,-289.41L-507.12,-300.54L-540.38,-291.05L-555.76,-266.09L-538.24,-256.23L-527.98,-275.60L-508.65,-282.84L-487.42,-277.50ZM-477.46,-236.52L-476.26,-204.95L-491.01,-190.99L-513.37,-183.18L-529.79,-186.76L-537.88,-202.80L-528.91,-220.12ZM-367.38,-174.42L-367.38,-174.43L-370.58,-192.93L-380.19,-191.11L-390.80,-195.98L-393.26,-211.61L-396.01,-283.32L-374.67,-284.14L-375.31,-300.69L-396.65,-299.87L-398.31,-343.03L-419.89,-342.20L-418.23,-299.04L-435.98,-298.35L-435.35,-281.81L-417.60,-282.49L-414.84,-210.78L-408.76,-180.86L-383.79,-171.48ZM-277.63,-179.55L-255.99,-180.38L-258.47,-244.89L-253.81,-277.07L-228.90,-292.57L-211.74,-285.45L-205.36,-264.01L-202.23,-182.45L-180.64,-183.28L-183.42,-255.46L-176.75,-283.04L-153.32,-295.48L-134.63,-286.37L-129.65,-264.48L-126.61,-185.35L-105.03,-186.18L-108.37,-273.00L-119.22,-304.15L-149.38,-314.26L-171.68,-307.99L-188.05,-288.43L-201.35,-306.10L-224.30,-311.27L-246.76,-305.50L-262.26,-287.26L-262.94,-305.01L-282.37,-304.26ZM-2.38,-273.89L-71.88,-249.61L-85.05,-219.25L-71.11,-191.42L-40.34,-183.73L-18.17,-188.93L1.71,-204.73L2.17,-190.30L22.32,-191.08L19.25,-271.53L6.49,-307.70L-31.31,-318.83L-64.57,-309.34L-79.96,-284.38L-62.43,-274.52L-52.17,-293.89L-32.84,-301.13L-11.61,-295.79ZM-1.65,-254.81L-0.45,-223.24L-15.20,-209.28L-37.57,-201.46L-53.98,-205.05L-62.08,-221.09L-53.10,-238.41ZM74.86,-247.14L95.07,-247.91L104.96,-240.61L132.43,-193.41L151.49,-204.69L123.85,-249.02L107.64,-257.30L120.12,-270.28L130.83,-295.47L137.72,-298.93L147.49,-300.87L143.84,-320.66L125.96,-318.19L114.40,-307.31L102.04,-277.42L94.38,-265.90L74.19,-265.13L70.32,-365.86L59.32,-365.44L48.80,-365.02L55.41,-192.35L76.94,-193.18ZM202.10,-221.75L188.25,-254.36L280.82,-257.94L281.69,-266.62L265.65,-311.75L221.67,-328.65L180.04,-309.17L166.04,-259.14L183.84,-210.34L226.84,-194.11L262.07,-206.00L277.48,-232.35L260.27,-242.19L248.01,-220.35L227.36,-212.52ZM188.30,-271.67L200.75,-300.74L222.35,-310.33L247.23,-300.87L258.09,-274.36ZM318.79,-241.17L300.79,-231.89L313.94,-207.89L351.29,-198.76L386.20,-208.90L401.20,-239.39L390.52,-264.61L369.10,-274.59L339.72,-281.34L323.31,-287.19L317.63,-296.95L324.10,-309.51L344.27,-314.81L364.02,-310.23L373.03,-294.69L390.86,-303.95L379.50,-324.43L344.38,-333.27L310.32,-323.12L296.65,-293.71L307.12,-271.18L329.16,-261.69L360.20,-254.74L374.96,-248.03L379.23,-236.63L370.15,-221.77L351.32,-217.19L328.10,-223.86ZM565.04,-295.70L495.54,-271.42L482.37,-241.06L496.31,-213.23L527.08,-205.54L549.25,-210.74L569.13,-226.54L569.59,-212.12L589.74,-212.89L586.68,-293.34L573.91,-329.51L536.11,-340.64L502.85,-331.16L487.47,-306.19L504.99,-296.33L515.25,-315.70L534.58,-322.94L555.81,-317.60ZM565.77,-276.62L566.97,-245.05L552.22,-231.09L529.86,-223.28L513.44,-226.86L505.34,-242.90L514.32,-260.22ZM622.24,-214.14L643.82,-214.97L641.21,-282.84L649.34,-315.24L673.31,-327.25L693.89,-318.68L700.71,-293.77L703.65,-217.27L725.24,-218.10L722.30,-294.60L712.66,-332.32L676.99,-346.02L653.88,-339.99L637.56,-321.61L636.87,-339.59L617.45,-338.85ZM-451.44,-102.48L-443.97,-111.32L-444.42,-123.51L-452.71,-131.95L-463.79,-131.52L-471.20,-122.51L-470.74,-110.32L-462.53,-102.06ZM-440.64,42.88L-445.43,-81.83L-467.02,-81.00L-462.22,43.71ZM-410.58,41.72L-388.95,40.89L-391.43,-23.62L-386.77,-55.80L-361.86,-71.30L-344.70,-64.18L-338.32,-42.74L-335.18,38.82L-313.60,37.99L-316.37,-34.19L-309.71,-61.77L-286.28,-74.21L-267.59,-65.10L-262.61,-43.21L-259.57,35.92L-237.99,35.09L-241.33,-51.73L-252.18,-82.88L-282.34,-92.99L-304.64,-86.72L-321.00,-67.16L-334.31,-84.83L-357.26,-90.00L-379.72,-84.23L-395.22,-65.99L-395.90,-83.73L-415.33,-82.99ZM-206.41,81.91L-184.82,81.08L-187.17,19.92L-173.16,32.08L-152.98,36.29L-113.18,15.96L-100.97,-33.07L-116.91,-81.03L-158.15,-98.24L-179.07,-91.62L-193.20,-74.47L-193.86,-91.50L-213.04,-90.76ZM-154.91,18.01L-180.12,6.61L-191.77,-29.56L-182.01,-66.56L-158.67,-79.84L-134.07,-68.41L-123.03,-32.20L-131.26,4.73ZM-3.44,-57.69L-72.94,-33.41L-86.10,-3.05L-72.17,24.78L-41.39,32.47L-19.23,27.27L0.65,11.47L1.12,25.90L21.26,25.12L18.20,-55.33L5.44,-91.50L-32.37,-102.63L-65.63,-93.14L-81.01,-68.18L-63.49,-58.32L-53.23,-77.69L-33.89,-84.93L-12.67,-79.59ZM-2.71,-38.61L-1.51,-7.04L-16.25,6.92L-38.62,14.74L-55.03,11.15L-63.13,-4.89L-54.16,-22.21ZM103.82,8.50L78.02,-1.96L65.73,-39.04L75.14,-76.94L100.05,-89.36L119.93,-83.29L132.72,-61.69L150.94,-71.71L133.89,-97.84L99.35,-107.70L57.71,-88.21L43.70,-38.19L61.49,10.61L104.52,26.84L138.21,14.50L152.98,-12.25L134.27,-21.33L123.16,0.97ZM233.04,18.66L233.04,18.65L229.84,0.15L220.23,1.97L209.62,-2.90L207.16,-18.53L204.40,-90.24L225.75,-91.06L225.11,-107.61L203.77,-106.79L202.11,-149.95L180.53,-149.12L182.18,-105.96L164.44,-105.27L165.07,-88.73L182.82,-89.41L185.58,-17.70L191.66,12.22L216.63,21.60ZM313.16,16.92L321.33,7.93L320.81,-4.25L311.89,-12.49L299.81,-11.97L291.64,-2.98L292.16,9.20L301.08,17.44ZM294.18,-26.72L315.09,-27.53L314.84,-34.14L317.39,-51.73L328.50,-66.51L348.61,-87.47L357.20,-116.61L340.34,-152.00L299.02,-163.85L262.88,-148.75L249.91,-116.15L268.57,-108.55L278.43,-135.12L299.98,-144.30L323.25,-138.15L333.96,-114.25L328.35,-94.17L314.44,-79.45L298.01,-59.46L293.93,-33.33Z" fill="#ffffff" stroke="#000000"/>
    <path d="M-853.06,-144.46L-818.23,-295.46L-769.08,-148.50L-746.55,-149.58L-710.95,-319.16L-732.55,-323.38L-759.01,-176.33L-805.76,-317.93L-832.80,-316.63L-864.57,-171.25L-905.73,-315.05L-927.30,-308.76L-875.60,-143.38ZM-684.87,-152.55L-663.37,-153.58L-666.59,-220.72L-658.84,-252.41L-635.25,-264.53L-614.79,-256.24L-607.80,-231.31L-604.21,-156.42L-582.92,-157.45L-586.43,-232.51L-596.36,-269.92L-631.79,-283.13L-654.31,-276.81L-668.52,-260.09L-671.61,-324.38L-693.08,-323.35ZM-481.18,-245.26L-549.72,-220.58L-562.45,-190.41L-548.40,-163.00L-517.87,-155.68L-495.99,-161.04L-476.47,-176.86L-475.87,-162.59L-455.95,-163.55L-459.74,-243.13L-472.71,-278.80L-510.23,-289.46L-543.05,-279.75L-558.04,-254.90L-540.60,-245.31L-530.63,-264.58L-511.57,-271.92L-490.51,-266.85ZM-480.27,-226.39L-478.78,-195.16L-493.24,-181.20L-515.30,-173.26L-531.58,-176.65L-539.74,-192.45L-531.02,-209.67ZM-370.75,-165.99L-370.75,-165.99L-374.10,-184.27L-383.59,-182.38L-394.13,-187.10L-396.71,-202.54L-400.12,-273.47L-379.01,-274.48L-379.79,-290.85L-400.91,-289.84L-402.96,-332.54L-424.31,-331.51L-422.26,-288.81L-439.81,-287.97L-439.03,-271.60L-421.47,-272.44L-418.06,-201.51L-411.76,-171.96L-386.96,-162.92ZM-281.98,-171.91L-260.59,-172.94L-263.65,-236.75L-259.35,-268.64L-234.84,-284.22L-217.79,-277.33L-211.28,-256.18L-207.40,-175.50L-186.05,-176.52L-189.48,-247.93L-183.15,-275.27L-160.08,-287.81L-141.50,-278.97L-136.37,-257.36L-132.61,-179.09L-111.26,-180.12L-115.38,-265.99L-126.42,-296.72L-156.36,-306.43L-178.37,-300.01L-194.38,-280.50L-207.71,-297.87L-230.47,-302.76L-252.64,-296.84L-267.81,-278.64L-268.65,-296.19L-287.86,-295.27ZM-10.52,-267.88L-79.06,-243.20L-91.80,-213.03L-77.75,-185.62L-47.22,-178.30L-25.34,-183.66L-5.81,-199.49L-5.22,-185.21L14.71,-186.17L10.92,-265.75L-2.06,-301.42L-39.57,-312.08L-72.39,-302.37L-87.38,-277.52L-69.95,-267.93L-59.98,-287.20L-40.91,-294.54L-19.86,-289.47ZM-9.61,-249.01L-8.12,-217.78L-22.58,-203.83L-44.64,-195.88L-60.92,-199.27L-69.08,-215.07L-60.37,-232.29ZM66.18,-242.14L86.16,-243.10L96.01,-235.97L123.65,-189.52L142.40,-200.87L114.63,-244.47L98.51,-252.51L110.73,-265.48L121.09,-290.50L127.88,-293.99L137.53,-296.00L133.73,-315.55L116.06,-312.93L104.73,-302.06L92.78,-272.37L85.30,-260.90L65.34,-259.94L60.55,-359.58L49.67,-359.06L39.26,-358.55L47.45,-187.74L68.74,-188.77ZM192.32,-218.23L178.31,-250.37L269.87,-254.79L270.65,-263.38L254.35,-307.90L210.67,-324.20L169.66,-304.52L156.29,-254.89L174.36,-206.77L217.07,-191.12L251.81,-203.22L266.81,-229.44L249.69,-239.01L237.77,-217.29L217.41,-209.33ZM178.19,-267.50L190.24,-296.38L211.52,-306.08L236.22,-296.95L247.23,-270.82ZM307.61,-238.55L289.88,-229.20L303.12,-205.58L340.17,-196.90L374.62,-207.26L389.17,-237.58L378.37,-262.43L357.07,-272.11L327.94,-278.50L311.64,-284.14L305.93,-293.74L312.21,-306.24L332.12,-311.67L351.71,-307.33L360.77,-292.03L378.33,-301.36L366.89,-321.52L332.05,-329.94L298.45,-319.57L285.20,-290.34L295.77,-268.14L317.67,-258.96L348.45,-252.38L363.12,-245.87L367.45,-234.64L358.61,-219.85L340.02,-215.14L316.98,-221.51ZM550.76,-294.86L482.22,-270.17L469.48,-240.00L483.53,-212.60L514.06,-205.28L535.94,-210.64L555.47,-226.46L556.06,-212.19L575.99,-213.15L572.19,-292.73L559.22,-328.40L521.71,-339.06L488.88,-329.35L473.90,-304.50L491.33,-294.91L501.30,-314.17L520.36,-321.52L541.42,-316.44ZM551.67,-275.98L553.15,-244.75L538.69,-230.80L516.63,-222.86L500.36,-226.25L492.19,-242.05L500.91,-259.27ZM608.14,-214.69L629.49,-215.72L626.26,-282.85L634.00,-315.00L657.60,-327.11L678.05,-318.82L685.03,-294.24L688.67,-218.56L710.02,-219.59L706.38,-295.26L696.49,-332.50L661.06,-345.72L638.25,-339.53L622.28,-321.18L621.42,-338.97L602.21,-338.05ZM-453.25,-94.00L-445.94,-102.81L-446.50,-114.88L-454.78,-123.15L-465.75,-122.62L-472.99,-113.63L-472.42,-101.58L-464.22,-93.47ZM-441.18,49.74L-447.11,-73.62L-468.46,-72.59L-462.53,50.76ZM-411.45,48.31L-390.05,47.28L-393.12,-16.53L-388.81,-48.42L-364.31,-64.00L-347.26,-57.11L-340.74,-35.96L-336.86,44.72L-315.51,43.70L-318.95,-27.71L-312.61,-55.06L-289.54,-67.59L-270.96,-58.76L-265.83,-37.14L-262.07,41.13L-240.72,40.10L-244.85,-45.77L-255.89,-76.50L-285.83,-86.21L-307.83,-79.79L-323.84,-60.29L-337.17,-77.65L-359.93,-82.54L-382.10,-76.62L-397.27,-58.42L-398.11,-75.98L-417.33,-75.05ZM-209.02,86.13L-187.67,85.11L-190.58,24.62L-176.60,36.51L-156.59,40.49L-117.40,19.99L-105.78,-28.65L-122.01,-75.95L-162.99,-92.59L-183.62,-85.84L-197.45,-68.74L-198.26,-85.58L-217.23,-84.67ZM-158.68,22.41L-183.73,11.37L-195.60,-24.31L-186.30,-61.02L-163.33,-74.37L-138.87,-63.30L-127.61,-27.58L-135.40,9.05ZM-9.51,-53.93L-78.05,-29.25L-90.79,0.92L-76.74,28.32L-46.21,35.64L-24.33,30.29L-4.80,14.46L-4.21,28.74L15.72,27.78L11.93,-51.80L-1.05,-87.48L-38.56,-98.13L-71.38,-88.43L-86.37,-63.58L-68.94,-53.98L-58.97,-73.25L-39.90,-80.59L-18.85,-75.52ZM-8.60,-35.06L-7.11,-3.83L-21.57,10.12L-43.63,18.07L-59.91,14.67L-68.08,-1.12L-59.36,-18.34ZM97.25,10.55L71.63,0.44L59.12,-36.13L68.07,-73.73L92.60,-86.25L112.33,-80.44L125.19,-59.19L143.12,-69.27L126.01,-94.97L91.73,-104.39L50.71,-84.72L37.33,-35.08L55.39,13.04L98.13,28.69L131.35,16.15L145.71,-10.46L127.11,-19.26L116.32,2.91ZM225.22,19.37L225.22,19.36L221.88,1.08L212.38,2.97L201.85,-1.74L199.26,-17.19L195.85,-88.12L216.96,-89.13L216.18,-105.50L195.07,-104.48L193.01,-147.19L171.66,-146.16L173.71,-103.46L156.16,-102.62L156.95,-86.25L174.50,-87.09L177.91,-16.16L184.21,13.39L209.01,22.43ZM304.49,16.88L312.49,7.91L311.85,-4.14L302.95,-12.21L291.00,-11.57L283.00,-2.61L283.64,9.44L292.54,17.52ZM285.30,-26.12L305.98,-27.11L305.66,-33.65L308.02,-51.08L318.88,-65.81L338.57,-86.75L346.80,-115.67L329.77,-150.52L288.78,-161.86L253.16,-146.57L240.64,-114.19L259.17,-106.85L268.68,-133.23L289.91,-142.52L313.00,-136.65L323.82,-113.11L318.46,-93.18L304.84,-78.49L288.77,-58.55L284.98,-32.66Z" fill="#ffffff" stroke="#000000"/>
    <path d="M-850.89,-131.69L-817.86,-281.42L-767.83,-136.48L-745.55,-137.77L-711.93,-305.89L-733.35,-309.86L-758.13,-164.11L-805.73,-303.78L-832.48,-302.23L-862.53,-158.09L-904.61,-299.97L-925.90,-293.55L-873.17,-130.40ZM-684.55,-141.29L-663.28,-142.51L-667.11,-208.91L-659.74,-240.34L-636.52,-252.55L-616.19,-244.54L-609.04,-219.95L-604.78,-145.89L-583.72,-147.10L-587.91,-221.34L-598.08,-258.25L-633.27,-271.00L-655.49,-264.53L-669.39,-247.85L-673.06,-311.43L-694.29,-310.20ZM-483.89,-234.95L-551.47,-209.88L-563.79,-179.91L-549.62,-152.93L-519.35,-145.98L-497.75,-151.48L-478.58,-167.33L-477.86,-153.21L-458.15,-154.35L-462.66,-233.05L-475.83,-268.22L-513.05,-278.41L-545.44,-268.49L-560.03,-243.77L-542.69,-234.44L-533.01,-253.60L-514.21,-261.04L-493.33,-256.22ZM-482.81,-216.29L-481.04,-185.40L-495.22,-171.46L-516.97,-163.39L-533.10,-166.59L-541.33,-182.14L-532.87,-199.27ZM-373.88,-157.57L-373.88,-157.57L-377.36,-175.63L-386.73,-173.67L-397.21,-178.23L-399.91,-193.49L-403.96,-263.64L-383.08,-264.84L-384.01,-281.03L-404.89,-279.82L-407.33,-322.05L-428.44,-320.83L-426.01,-278.61L-443.37,-277.60L-442.43,-261.42L-425.07,-262.42L-421.03,-192.27L-414.51,-163.09L-389.89,-154.38ZM-286.10,-164.27L-264.94,-165.49L-268.58,-228.60L-264.63,-260.19L-240.53,-275.84L-223.59,-269.19L-216.95,-248.32L-212.34,-168.53L-191.23,-169.75L-195.30,-240.36L-189.29,-267.48L-166.59,-280.10L-148.12,-271.54L-142.84,-250.20L-138.38,-172.80L-117.26,-174.01L-122.16,-258.94L-133.38,-289.24L-163.09,-298.56L-184.80,-292.01L-200.46,-272.55L-213.81,-289.60L-236.38,-294.23L-258.26,-288.16L-273.09,-270.01L-274.09,-287.37L-293.10,-286.27ZM-18.42,-261.81L-86.00,-236.73L-98.32,-206.76L-84.16,-179.78L-53.88,-172.83L-32.28,-178.34L-13.11,-194.18L-12.39,-180.07L7.32,-181.20L2.81,-259.90L-10.37,-295.08L-47.59,-305.26L-79.97,-295.35L-94.56,-270.62L-77.22,-261.29L-67.54,-280.45L-48.75,-287.90L-27.87,-283.08ZM-17.34,-243.14L-15.58,-212.26L-29.75,-198.32L-51.50,-190.24L-67.64,-193.45L-75.87,-209.00L-67.41,-226.12ZM57.71,-237.07L77.47,-238.21L87.29,-231.25L115.07,-185.55L133.52,-196.96L105.62,-239.84L89.60,-247.64L101.57,-260.58L111.58,-285.44L118.27,-288.96L127.79,-291.04L123.85,-310.34L106.39,-307.59L95.28,-296.72L83.74,-267.23L76.46,-255.81L56.71,-254.67L51.03,-353.22L40.26,-352.59L29.97,-351.99L39.69,-183.07L60.75,-184.29ZM182.75,-214.61L168.57,-246.27L259.13,-251.52L259.82,-260.03L243.27,-303.92L199.90,-319.63L159.51,-299.78L146.74,-250.54L165.08,-203.10L207.49,-188.02L241.75,-200.32L256.34,-226.41L239.31,-235.72L227.72,-214.11L207.65,-206.05ZM168.30,-263.23L179.94,-291.92L200.91,-301.71L225.43,-292.92L236.57,-267.16ZM296.62,-235.81L279.17,-226.40L292.49,-203.14L329.23,-194.91L363.22,-205.49L377.33,-235.63L366.40,-260.11L345.24,-269.49L316.36,-275.53L300.18,-280.96L294.43,-290.40L300.53,-302.83L320.18,-308.39L339.60,-304.28L348.72,-289.23L366.00,-298.63L354.49,-318.47L319.94,-326.47L286.79,-315.89L273.96,-286.84L284.63,-264.98L306.38,-256.10L336.90,-249.89L351.48,-243.59L355.87,-232.51L347.26,-217.79L328.91,-212.95L306.06,-219.04ZM536.67,-293.83L469.08,-268.76L456.77,-238.79L470.93,-211.81L501.21,-204.86L522.80,-210.36L541.98,-226.21L542.70,-212.09L562.40,-213.23L557.89,-291.93L544.72,-327.10L507.50,-337.29L475.12,-327.37L460.53,-302.65L477.86,-293.32L487.55,-312.48L506.34,-319.93L527.22,-315.10ZM537.74,-275.17L539.51,-244.28L525.34,-230.34L503.59,-222.27L487.45,-225.47L479.22,-241.02L487.68,-258.15ZM594.20,-215.06L615.31,-216.28L611.48,-282.68L618.83,-314.55L642.07,-326.76L662.38,-318.75L669.53,-294.50L673.84,-219.66L694.96,-220.88L690.64,-295.72L680.50,-332.46L645.32,-345.21L622.81,-338.86L607.18,-320.56L606.16,-338.16L587.16,-337.06ZM-454.82,-85.56L-447.67,-94.35L-448.34,-106.28L-456.61,-114.38L-467.46,-113.76L-474.54,-104.79L-473.86,-92.87L-465.67,-84.93ZM-441.51,56.54L-448.55,-65.45L-469.66,-64.23L-462.62,57.76ZM-412.11,54.85L-390.95,53.63L-394.59,-9.48L-390.63,-41.07L-366.53,-56.72L-349.60,-50.07L-342.95,-29.20L-338.35,50.59L-317.23,49.37L-321.31,-21.24L-315.30,-48.36L-292.59,-60.98L-274.13,-52.42L-268.84,-31.08L-264.38,46.32L-243.26,45.11L-248.16,-39.82L-259.38,-70.12L-289.09,-79.44L-310.80,-72.88L-326.46,-53.43L-339.81,-70.48L-362.38,-75.10L-384.26,-69.04L-399.09,-50.89L-400.10,-68.25L-419.10,-67.15ZM-211.46,90.35L-190.35,89.13L-193.80,29.31L-179.85,40.94L-160.02,44.69L-121.44,24.04L-110.40,-24.20L-126.91,-70.84L-167.61,-86.92L-187.96,-80.04L-201.48,-62.99L-202.44,-79.65L-221.21,-78.57ZM-162.25,26.82L-187.15,16.14L-199.23,-19.05L-190.38,-55.46L-167.78,-68.90L-143.47,-58.17L-131.99,-22.93L-139.35,13.38ZM-15.39,-50.13L-82.97,-25.06L-95.29,4.91L-81.12,31.89L-50.85,38.85L-29.25,33.34L-10.08,17.50L-9.36,31.61L10.35,30.47L5.84,-48.23L-7.34,-83.40L-44.55,-93.59L-76.94,-83.67L-91.53,-58.94L-74.19,-49.62L-64.51,-68.77L-45.72,-76.22L-24.83,-71.40ZM-14.31,-31.47L-12.54,-0.58L-26.72,13.36L-48.47,21.43L-64.60,18.23L-72.83,2.68L-64.37,-14.45ZM90.86,12.65L65.41,2.89L52.68,-33.17L61.18,-70.46L85.33,-83.08L104.91,-77.52L117.83,-56.61L135.48,-66.76L118.30,-92.02L84.30,-101.02L43.90,-81.16L31.13,-31.93L49.46,15.51L91.89,30.59L124.64,17.87L138.60,-8.59L120.11,-17.12L109.65,4.91ZM217.55,20.16L217.56,20.16L214.07,2.10L204.70,4.06L194.23,-0.50L191.52,-15.76L187.48,-85.91L208.36,-87.11L207.42,-103.30L186.54,-102.09L184.11,-144.32L162.99,-143.11L165.43,-100.88L148.07,-99.87L149.00,-83.69L166.36,-84.69L170.41,-14.54L176.92,14.64L201.55,23.35ZM295.96,16.95L303.79,8.00L303.05,-3.92L294.16,-11.82L282.34,-11.08L274.51,-2.13L275.26,9.79L284.14,17.69ZM276.56,-25.42L297.02,-26.60L296.64,-33.06L298.81,-50.33L309.41,-65.01L328.70,-85.91L336.56,-114.60L319.39,-148.93L278.72,-159.75L243.62,-144.29L231.54,-112.13L249.95,-105.04L259.10,-131.23L280.03,-140.63L302.92,-135.04L313.86,-111.85L308.74,-92.08L295.40,-77.41L279.69,-57.54L276.19,-31.88Z" fill="#ffffff" stroke="#000000"/>
    <path d="M-848.43,-119.04L-817.18,-267.48L-766.31,-124.57L-744.27,-126.05L-712.61,-292.70L-733.84,-296.42L-756.97,-151.99L-805.39,-289.71L-831.84,-287.93L-860.20,-145.04L-903.18,-285.01L-924.17,-278.45L-870.46,-117.55ZM-683.96,-130.11L-662.93,-131.53L-667.35,-197.18L-660.36,-228.35L-637.50,-240.65L-617.31,-232.92L-610.00,-208.66L-605.08,-135.42L-584.26,-136.83L-589.11,-210.23L-599.53,-246.65L-634.46,-258.93L-656.38,-252.32L-669.97,-235.68L-674.20,-298.55L-695.20,-297.13ZM-486.33,-224.69L-552.95,-199.24L-564.85,-169.47L-550.58,-142.91L-520.57,-136.32L-499.25,-141.97L-480.43,-157.83L-479.59,-143.87L-460.10,-145.19L-465.31,-223.00L-478.68,-257.68L-515.60,-267.40L-547.54,-257.28L-561.74,-232.68L-544.50,-223.62L-535.10,-242.66L-516.58,-250.21L-495.88,-245.64ZM-485.09,-206.23L-483.04,-175.69L-496.93,-161.76L-518.38,-153.57L-534.37,-156.59L-542.66,-171.90L-534.45,-188.92ZM-376.76,-149.17L-376.76,-149.18L-380.38,-167.01L-389.63,-164.98L-400.04,-169.40L-402.86,-184.46L-407.53,-253.82L-386.88,-255.21L-387.96,-271.22L-408.61,-269.83L-411.42,-311.58L-432.29,-310.18L-429.48,-268.42L-446.65,-267.27L-445.57,-251.26L-428.41,-252.42L-423.73,-183.05L-417.01,-154.25L-392.57,-145.87ZM-289.99,-156.64L-269.06,-158.05L-273.27,-220.45L-269.65,-251.74L-245.96,-267.45L-229.14,-261.03L-222.37,-240.45L-217.06,-161.55L-196.18,-162.96L-200.88,-232.78L-195.19,-259.67L-172.85,-272.37L-154.50,-264.07L-149.07,-243.01L-143.92,-166.48L-123.04,-167.88L-128.70,-251.86L-140.08,-281.72L-169.56,-290.67L-190.98,-283.97L-206.28,-264.58L-219.66,-281.32L-242.03,-285.68L-263.61,-279.47L-278.12,-261.37L-279.27,-278.54L-298.06,-277.27ZM-26.09,-255.68L-92.71,-230.23L-104.61,-200.46L-90.35,-173.90L-60.33,-167.31L-39.01,-172.97L-20.20,-188.82L-19.35,-174.87L0.14,-176.18L-5.07,-253.99L-18.44,-288.67L-55.36,-298.39L-87.30,-288.28L-101.50,-263.67L-84.26,-254.61L-74.87,-273.65L-56.34,-281.20L-35.64,-276.63ZM-24.85,-237.22L-22.81,-206.68L-36.70,-192.76L-58.14,-184.56L-74.13,-187.58L-82.42,-202.89L-74.21,-219.91ZM49.46,-231.93L69.00,-233.25L78.78,-226.45L106.70,-181.51L124.84,-192.96L96.84,-235.12L80.91,-242.68L92.63,-255.61L102.30,-280.29L108.88,-283.84L118.28,-285.99L114.20,-305.05L96.95,-302.15L86.06,-291.30L74.93,-262.02L67.83,-250.64L48.31,-249.33L41.74,-346.77L31.10,-346.05L20.92,-345.36L32.15,-178.33L52.97,-179.74ZM173.38,-210.89L159.05,-242.09L248.59,-248.13L249.19,-256.56L232.40,-299.82L189.34,-314.96L149.57,-294.93L137.42,-246.10L156.01,-199.34L198.10,-184.82L231.88,-197.32L246.07,-223.26L229.13,-232.32L217.87,-210.83L198.09,-202.66ZM158.62,-258.85L169.86,-287.35L190.52,-297.24L214.86,-288.77L226.13,-263.40ZM285.83,-232.96L268.65,-223.47L282.06,-200.60L318.48,-192.80L352.01,-203.59L365.68,-233.54L354.64,-257.66L333.61,-266.73L304.98,-272.44L288.92,-277.65L283.15,-286.94L289.06,-299.29L308.45,-304.98L327.70,-301.10L336.86,-286.30L353.87,-295.76L342.29,-315.28L308.04,-322.86L275.34,-312.08L262.93,-283.22L273.69,-261.70L295.29,-253.12L325.55,-247.26L340.03,-241.17L344.48,-230.25L336.10,-215.61L317.99,-210.65L295.32,-216.45ZM522.76,-292.63L456.14,-267.19L444.24,-237.42L458.51,-210.86L488.52,-204.27L509.84,-209.92L528.66,-225.78L529.50,-211.82L548.99,-213.14L543.78,-290.95L530.41,-325.63L493.49,-335.35L461.55,-325.23L447.35,-300.63L464.59,-291.57L473.99,-310.61L492.51,-318.16L513.21,-313.59ZM524.00,-274.18L526.05,-243.64L512.15,-229.71L490.71,-221.52L474.72,-224.54L466.43,-239.84L474.64,-256.87ZM580.43,-215.25L601.31,-216.66L596.88,-282.31L603.85,-313.91L626.73,-326.21L646.89,-318.48L654.19,-294.56L659.18,-220.56L680.06,-221.96L675.07,-295.96L664.69,-332.22L629.76,-344.49L607.55,-338.00L592.27,-319.75L591.09,-337.14L572.30,-335.88ZM-456.15,-77.16L-449.16,-85.93L-449.94,-97.72L-458.20,-105.66L-468.93,-104.94L-475.85,-96.00L-475.06,-84.22L-466.88,-76.44ZM-441.63,63.29L-449.76,-57.33L-470.63,-55.93L-462.51,64.70ZM-412.56,61.34L-391.64,59.93L-395.84,-2.47L-392.23,-33.76L-368.54,-49.47L-351.72,-43.05L-344.94,-22.47L-339.63,56.43L-318.75,55.02L-323.46,-14.80L-317.77,-41.69L-295.43,-54.39L-277.08,-46.10L-271.65,-25.03L-266.49,51.50L-245.62,50.09L-251.27,-33.88L-262.65,-63.74L-292.14,-72.69L-313.56,-65.99L-328.86,-46.60L-342.23,-63.34L-364.60,-67.70L-386.19,-61.49L-400.69,-43.39L-401.85,-60.56L-420.64,-59.29ZM-213.73,94.55L-192.85,93.15L-196.83,33.99L-182.92,45.37L-163.27,48.89L-125.29,28.09L-114.83,-19.73L-131.61,-65.72L-172.03,-81.24L-192.09,-74.24L-205.31,-57.25L-206.42,-73.72L-224.97,-72.47ZM-165.65,31.23L-190.37,20.90L-202.67,-13.80L-194.25,-49.90L-172.02,-63.41L-147.87,-53.02L-136.18,-18.27L-143.11,17.72ZM-21.08,-46.29L-87.70,-20.84L-99.60,8.93L-85.33,35.48L-55.32,42.07L-34.00,36.42L-15.19,20.56L-14.34,34.52L5.15,33.21L-0.06,-44.61L-13.43,-79.28L-50.35,-89.00L-82.29,-78.89L-96.49,-54.29L-79.25,-45.22L-69.85,-64.27L-51.33,-71.82L-30.63,-67.24ZM-19.84,-27.83L-17.79,2.70L-31.69,16.63L-53.13,24.82L-69.12,21.81L-77.41,6.50L-69.20,-10.52ZM84.63,14.81L59.36,5.40L46.42,-30.16L54.47,-67.13L78.25,-79.85L97.67,-74.53L110.66,-53.97L128.02,-64.17L110.79,-89.01L77.06,-97.58L37.28,-77.56L25.11,-28.72L43.70,18.04L85.82,32.55L118.10,19.66L131.66,-6.66L113.28,-14.92L103.15,6.98ZM210.04,21.04L210.05,21.03L206.43,3.20L197.17,5.23L186.77,0.81L183.95,-14.25L179.28,-83.61L199.92,-85.00L198.84,-101.01L178.20,-99.62L175.39,-141.37L154.51,-139.97L157.32,-98.21L140.15,-97.06L141.23,-81.05L158.40,-82.21L163.07,-12.84L169.79,15.96L194.24,24.34ZM287.58,17.11L295.24,8.19L294.39,-3.59L285.53,-11.33L273.84,-10.48L266.18,-1.55L267.03,10.23L275.90,17.96ZM267.99,-24.61L288.21,-25.97L287.78,-32.37L289.76,-49.47L300.11,-64.09L318.99,-84.96L326.50,-113.42L309.18,-147.21L268.85,-157.54L234.27,-141.90L222.62,-109.98L240.90,-103.13L249.71,-129.13L270.32,-138.63L293.02,-133.32L304.06,-110.48L299.19,-90.88L286.13,-76.23L270.78,-56.42L267.56,-31.01Z" fill="#ffffff" stroke="#000000"/>
    <path d="M-845.69,-106.51L-816.19,-253.65L-764.51,-112.77L-742.72,-114.44L-712.99,-279.59L-734.02,-283.07L-755.53,-139.98L-804.74,-275.76L-830.88,-273.74L-857.58,-132.13L-901.43,-270.18L-922.13,-263.49L-867.47,-104.84ZM-683.10,-119.03L-662.31,-120.63L-667.31,-185.53L-660.69,-216.43L-638.19,-228.81L-618.15,-221.36L-610.69,-197.43L-605.13,-125.04L-584.54,-126.62L-590.04,-199.19L-600.69,-235.12L-635.36,-246.93L-656.98,-240.18L-670.27,-223.60L-675.05,-285.74L-695.81,-284.14ZM-488.51,-214.46L-554.17,-188.66L-565.65,-159.10L-551.29,-132.96L-521.53,-126.73L-500.50,-132.52L-482.04,-148.39L-481.07,-134.59L-461.80,-136.07L-467.70,-213.00L-481.25,-247.17L-517.86,-256.44L-549.36,-246.13L-563.18,-221.65L-546.03,-212.85L-536.92,-231.78L-518.67,-239.42L-498.15,-235.10ZM-487.10,-196.22L-484.79,-166.03L-498.40,-152.12L-519.53,-143.81L-535.38,-146.64L-543.73,-161.71L-535.77,-178.62ZM-379.40,-140.81L-379.40,-140.81L-383.15,-158.41L-392.29,-156.32L-402.62,-160.59L-405.55,-175.47L-410.83,-244.03L-390.42,-245.60L-391.64,-261.43L-412.05,-259.86L-415.23,-301.13L-435.87,-299.54L-432.69,-258.27L-449.66,-256.96L-448.44,-241.14L-431.47,-242.44L-426.19,-173.88L-419.27,-145.45L-395.01,-137.39ZM-293.64,-149.02L-272.95,-150.61L-277.70,-212.30L-274.42,-243.28L-251.14,-259.05L-234.44,-252.86L-227.54,-232.56L-221.54,-154.57L-200.90,-156.16L-206.21,-225.18L-200.85,-251.83L-178.86,-264.61L-160.63,-256.58L-155.06,-235.80L-149.24,-160.14L-128.60,-161.73L-134.99,-244.74L-146.54,-274.17L-175.79,-282.74L-196.91,-275.92L-211.86,-256.58L-225.25,-273.02L-247.42,-277.12L-268.71,-270.77L-282.89,-252.73L-284.20,-269.70L-302.77,-268.27ZM-33.53,-249.49L-99.19,-223.69L-110.68,-194.13L-96.31,-167.99L-66.56,-161.76L-45.53,-167.55L-27.06,-183.42L-26.09,-169.62L-6.83,-171.10L-12.72,-248.03L-26.28,-282.20L-62.89,-291.47L-94.39,-281.16L-108.20,-256.68L-91.06,-247.88L-81.95,-266.81L-63.70,-274.45L-43.17,-270.13ZM-32.13,-231.25L-29.82,-201.06L-43.42,-187.15L-64.56,-178.84L-80.41,-181.67L-88.75,-196.74L-80.79,-213.65ZM41.43,-226.72L60.75,-228.21L70.48,-221.57L98.53,-177.38L116.37,-188.89L88.26,-230.33L72.44,-237.66L83.91,-250.55L93.24,-275.06L99.72,-278.63L108.99,-280.85L104.78,-299.66L87.74,-296.64L77.08,-285.79L66.34,-256.72L59.42,-245.41L40.12,-243.92L32.71,-340.24L22.18,-339.43L12.12,-338.65L24.82,-173.54L45.40,-175.12ZM164.21,-207.09L149.74,-237.81L238.26,-244.64L238.77,-252.99L221.75,-295.62L179.01,-310.18L139.87,-289.99L128.30,-241.57L147.14,-195.49L188.92,-181.53L222.21,-194.22L236.00,-220.02L219.16,-228.81L208.23,-207.44L188.74,-199.18ZM149.16,-254.39L160.01,-282.68L180.34,-292.66L204.51,-284.52L215.89,-259.53ZM275.24,-229.98L258.34,-220.43L271.82,-197.93L307.92,-190.57L340.98,-201.56L354.22,-231.31L343.07,-255.07L322.18,-263.84L293.81,-269.22L277.87,-274.22L272.07,-283.36L277.80,-295.63L296.93,-301.44L316.01,-297.78L325.21,-283.23L341.95,-292.75L330.31,-311.95L296.35,-319.13L264.11,-308.15L252.10,-279.48L262.96,-258.29L284.41,-250.02L314.39,-244.51L328.77,-238.62L333.28,-227.86L325.13,-213.30L307.27,-208.22L284.79,-213.74ZM509.04,-291.27L443.38,-265.46L431.89,-235.90L446.26,-209.77L476.02,-203.53L497.05,-209.33L515.51,-225.19L516.48,-211.39L535.74,-212.87L529.85,-289.80L516.30,-323.98L479.69,-333.24L448.18,-322.93L434.37,-298.46L451.51,-289.66L460.63,-308.59L478.88,-316.23L499.40,-311.90ZM510.45,-273.02L512.76,-242.83L499.15,-228.92L478.02,-220.62L462.17,-223.45L453.82,-238.51L461.78,-255.43ZM566.82,-215.27L587.46,-216.86L582.46,-281.75L589.06,-313.08L611.57,-325.47L631.59,-318.01L639.04,-294.41L644.67,-221.26L665.31,-222.85L659.68,-296.00L649.07,-331.77L614.40,-343.58L592.49,-336.95L577.54,-318.75L576.22,-335.94L557.64,-334.51ZM-457.25,-68.82L-450.42,-77.56L-451.30,-89.22L-459.55,-96.99L-470.15,-96.18L-476.91,-87.27L-476.02,-75.62L-467.85,-68.00ZM-441.56,69.98L-450.74,-49.26L-471.38,-47.68L-462.19,71.57ZM-412.82,67.77L-392.13,66.18L-396.88,4.49L-393.60,-26.50L-370.32,-42.26L-353.62,-36.07L-346.72,-15.78L-340.72,62.22L-320.08,60.63L-325.39,-8.40L-320.02,-35.05L-298.04,-47.82L-279.81,-39.79L-274.24,-19.01L-268.42,56.65L-247.78,55.06L-254.17,-27.95L-265.72,-57.38L-294.97,-65.95L-316.09,-59.13L-331.04,-39.79L-344.43,-56.23L-366.60,-60.33L-387.89,-53.98L-402.07,-35.94L-403.38,-52.91L-421.95,-51.48ZM-215.81,98.74L-195.17,97.15L-199.68,38.67L-185.81,49.80L-166.33,53.09L-128.96,32.16L-119.07,-15.25L-136.10,-60.59L-176.24,-75.55L-196.02,-68.44L-208.93,-51.50L-210.18,-67.79L-228.52,-66.37ZM-168.85,35.65L-193.41,25.66L-205.90,-8.55L-197.92,-44.34L-176.05,-57.91L-152.07,-47.87L-140.17,-13.61L-146.69,22.06ZM-26.59,-42.41L-92.24,-16.61L-103.73,12.95L-89.37,39.09L-59.61,45.32L-38.58,39.53L-20.12,23.66L-19.15,37.46L0.12,35.98L-5.78,-40.95L-19.33,-75.12L-55.94,-84.39L-87.44,-74.08L-101.26,-49.61L-84.11,-40.80L-75.00,-59.73L-56.75,-67.38L-36.23,-63.05ZM-25.18,-24.17L-22.87,6.02L-36.48,19.93L-57.61,28.23L-73.46,25.40L-81.80,10.34L-73.85,-6.58ZM78.56,17.02L53.48,7.95L40.34,-27.10L47.96,-63.75L71.36,-76.55L90.62,-71.47L103.66,-51.26L120.74,-61.52L103.45,-85.92L70.01,-94.09L30.85,-73.90L19.28,-25.48L38.11,20.60L79.91,34.56L111.72,21.50L124.88,-4.66L106.63,-12.66L96.81,9.10ZM202.68,21.99L202.69,21.99L198.94,4.38L189.80,6.48L179.47,2.21L176.53,-12.67L171.25,-81.24L191.66,-82.81L190.45,-98.63L170.04,-97.06L166.86,-138.34L146.22,-136.75L149.40,-95.47L132.43,-94.16L133.65,-78.34L150.62,-79.65L155.89,-11.08L162.82,17.35L187.08,25.41ZM279.35,17.37L286.84,8.47L285.89,-3.18L277.05,-10.74L265.49,-9.80L258.00,-0.89L258.95,10.75L267.80,18.32ZM259.57,-23.72L279.56,-25.26L279.07,-31.58L280.87,-48.52L290.97,-63.08L309.45,-83.89L316.60,-112.12L299.15,-145.39L259.15,-155.21L225.10,-139.42L213.88,-107.73L232.03,-101.13L240.49,-126.94L260.79,-136.52L283.30,-131.49L294.44,-109.00L289.80,-89.56L277.03,-74.95L262.03,-55.21L259.08,-30.04Z" fill="#ffffff" stroke="#000000"/>
    <path d="M-842.67,-94.13L-814.89,-239.94L-762.44,-101.08L-740.91,-102.95L-713.07,-266.58L-733.90,-269.81L-753.82,-128.09L-803.78,-261.91L-829.62,-259.67L-854.68,-119.35L-899.36,-255.48L-919.77,-248.66L-864.20,-92.26ZM-681.98,-108.05L-661.43,-109.83L-666.99,-173.98L-660.74,-204.60L-638.60,-217.06L-618.71,-209.88L-611.10,-186.28L-604.92,-114.73L-584.57,-116.49L-590.70,-188.22L-601.57,-223.65L-635.97,-235.00L-657.29,-228.12L-670.28,-211.60L-675.60,-273.02L-696.12,-271.24ZM-490.41,-204.29L-555.11,-178.14L-566.20,-148.79L-551.74,-123.08L-522.25,-117.20L-501.50,-123.13L-483.39,-139.00L-482.30,-125.36L-463.26,-127.01L-469.82,-203.04L-483.55,-236.71L-519.85,-245.53L-550.91,-235.03L-564.34,-210.69L-547.30,-202.15L-538.47,-220.96L-520.49,-228.69L-500.15,-224.61ZM-488.85,-186.26L-486.28,-156.42L-499.61,-142.53L-520.43,-134.12L-536.13,-136.77L-544.53,-151.59L-536.82,-168.39ZM-381.80,-132.47L-381.80,-132.48L-385.68,-149.85L-394.69,-147.69L-404.95,-151.82L-408.00,-166.51L-413.87,-234.27L-393.70,-236.02L-395.05,-251.66L-415.22,-249.91L-418.76,-290.71L-439.16,-288.94L-435.62,-248.15L-452.39,-246.69L-451.04,-231.05L-434.27,-232.51L-428.39,-164.74L-421.28,-136.68L-397.20,-128.94ZM-297.05,-141.41L-276.61,-143.18L-281.89,-204.15L-278.94,-234.83L-256.06,-250.64L-239.49,-244.68L-232.47,-224.67L-225.79,-147.59L-205.40,-149.35L-211.31,-217.58L-206.25,-243.99L-184.63,-256.83L-166.52,-249.06L-160.82,-228.56L-154.33,-153.78L-133.94,-155.55L-141.05,-237.59L-152.75,-266.60L-181.76,-274.79L-202.59,-267.84L-217.19,-248.58L-230.59,-264.71L-252.56,-268.55L-273.56,-262.07L-287.41,-244.09L-288.86,-260.86L-307.22,-259.27ZM-40.74,-243.26L-105.44,-217.11L-116.52,-187.76L-102.06,-162.05L-72.57,-156.17L-51.83,-162.10L-33.72,-177.97L-32.62,-164.33L-13.58,-165.98L-20.15,-242.01L-33.88,-275.68L-70.18,-284.50L-101.24,-274.00L-114.66,-249.66L-97.63,-241.12L-88.79,-259.93L-70.81,-267.66L-50.47,-263.58ZM-39.18,-225.23L-36.60,-195.39L-49.93,-181.50L-70.76,-173.09L-86.46,-175.74L-94.86,-190.56L-87.15,-207.36ZM33.62,-221.45L52.71,-223.10L62.41,-216.63L90.56,-173.19L108.10,-184.74L79.91,-225.46L64.19,-232.56L75.41,-245.42L84.41,-269.76L90.78,-273.35L99.93,-275.63L95.58,-294.19L78.76,-291.04L68.31,-280.22L57.97,-251.36L51.24,-240.10L32.16,-238.45L23.91,-333.65L13.51,-332.75L3.57,-331.88L17.69,-168.69L38.04,-170.45ZM155.25,-203.20L140.64,-233.44L228.13,-241.04L228.56,-249.30L211.32,-291.31L168.91,-305.30L130.38,-284.96L119.40,-236.96L138.47,-191.57L179.93,-178.16L212.74,-191.02L226.13,-216.67L209.39,-225.20L198.78,-203.97L179.58,-195.61ZM139.91,-249.84L150.37,-277.93L170.39,-287.99L194.37,-280.17L205.86,-255.56ZM264.85,-226.89L248.22,-217.29L261.76,-195.16L297.54,-188.22L330.14,-199.41L342.95,-228.96L331.70,-252.35L310.96,-260.83L282.84,-265.88L267.03,-270.68L261.21,-279.66L266.76,-291.85L285.62,-297.78L304.53,-294.34L313.77,-280.04L330.23,-289.62L318.54,-308.49L284.88,-315.27L253.09,-304.10L241.49,-275.64L252.43,-254.78L273.73,-246.80L303.43,-241.63L317.71,-235.94L322.27,-225.34L314.35,-210.87L296.73,-205.67L274.44,-210.93ZM495.51,-289.73L430.82,-263.58L419.73,-234.24L434.19,-208.52L463.68,-202.64L484.43,-208.57L502.54,-224.44L503.63,-210.80L522.67,-212.45L516.11,-288.48L502.38,-322.15L466.08,-330.97L435.02,-320.47L421.59,-296.14L438.63,-287.59L447.46,-306.40L465.44,-314.14L485.78,-310.05ZM497.08,-271.70L499.65,-241.86L486.32,-227.98L465.50,-219.56L449.80,-222.21L441.40,-237.03L449.11,-253.83ZM553.39,-215.11L573.79,-216.88L568.23,-281.02L574.45,-312.07L596.60,-324.53L616.47,-317.35L624.06,-294.08L630.33,-221.78L650.73,-223.55L644.46,-295.85L633.63,-331.13L599.22,-342.47L577.62,-335.71L563.00,-317.56L561.53,-334.56L543.17,-332.97ZM-458.12,-60.53L-451.45,-69.24L-452.43,-80.77L-460.66,-88.38L-471.14,-87.47L-477.74,-78.60L-476.75,-67.08L-468.60,-59.62ZM-441.28,76.61L-451.49,-41.25L-471.89,-39.49L-461.67,78.37ZM-412.87,74.14L-392.43,72.37L-397.71,11.40L-394.76,-19.28L-371.88,-35.09L-355.31,-29.13L-348.29,-9.12L-341.61,67.97L-321.21,66.20L-327.13,-2.02L-322.07,-28.43L-300.45,-41.28L-282.34,-33.51L-276.63,-13.00L-270.15,61.78L-249.76,60.01L-256.87,-22.04L-268.56,-51.04L-297.58,-59.24L-318.41,-52.29L-333.01,-33.02L-346.41,-49.15L-368.38,-53.00L-389.38,-46.52L-403.23,-28.54L-404.68,-45.31L-423.04,-43.72ZM-217.72,102.90L-197.32,101.13L-202.33,43.34L-188.51,54.21L-169.22,57.28L-132.45,36.22L-123.12,-10.76L-140.40,-55.44L-180.23,-69.86L-199.73,-62.64L-212.34,-45.77L-213.73,-61.86L-231.86,-60.29ZM-171.87,40.05L-196.26,30.41L-208.94,-3.31L-201.38,-38.79L-179.89,-52.42L-156.07,-42.71L-143.98,-8.94L-150.08,26.41ZM-31.90,-38.51L-96.60,-12.36L-107.68,16.99L-93.22,42.70L-63.73,48.58L-42.99,42.65L-24.88,26.79L-23.78,40.42L-4.75,38.77L-11.31,-37.26L-25.04,-70.93L-61.34,-79.75L-92.40,-69.25L-105.83,-44.91L-88.79,-36.37L-79.95,-55.18L-61.98,-62.91L-41.63,-58.83ZM-30.34,-20.48L-27.77,9.36L-41.09,23.25L-61.92,31.67L-77.62,29.02L-86.02,14.20L-78.31,-2.61ZM72.66,19.28L47.76,10.55L34.44,-24.00L41.62,-60.32L64.65,-73.20L83.75,-68.36L96.83,-48.49L113.63,-58.81L96.30,-82.78L63.15,-90.53L24.61,-70.19L13.62,-22.19L32.69,23.21L74.16,36.61L105.50,23.39L118.27,-2.61L100.14,-10.35L90.63,11.27ZM195.47,23.02L195.48,23.01L191.60,5.64L182.59,7.80L172.33,3.67L169.28,-11.02L163.41,-78.79L183.58,-80.53L182.23,-96.17L162.05,-94.42L158.52,-135.22L138.12,-133.45L141.66,-92.66L124.88,-91.20L126.24,-75.56L143.01,-77.02L148.88,-9.25L156.00,18.81L180.07,26.55ZM271.26,17.72L278.59,8.84L277.53,-2.67L268.72,-10.07L257.30,-9.02L249.97,-0.14L251.03,11.37L259.84,18.77ZM251.30,-22.73L271.06,-24.45L270.52,-30.69L272.14,-47.46L281.99,-61.96L300.07,-82.73L306.88,-110.71L289.30,-143.45L249.65,-152.79L216.11,-136.84L205.32,-105.39L223.33,-99.04L231.46,-124.65L251.44,-134.32L273.75,-129.56L284.98,-107.42L280.58,-88.15L268.09,-73.58L253.44,-53.91L250.76,-28.98Z" fill="#ffffff" stroke="#000000"/>
    <path d="M-839.38,-81.88L-813.29,-226.35L-760.10,-89.52L-738.82,-91.57L-712.85,-253.65L-733.48,-256.66L-751.83,-116.31L-802.51,-248.18L-828.04,-245.72L-851.50,-106.71L-896.98,-240.91L-917.10,-233.97L-860.66,-79.83ZM-680.59,-97.18L-660.29,-99.13L-666.40,-162.51L-660.50,-192.86L-638.73,-205.40L-618.99,-198.48L-611.25,-175.22L-604.45,-104.51L-584.34,-106.45L-591.08,-177.32L-602.17,-212.26L-636.30,-223.16L-657.32,-216.16L-670.01,-199.69L-675.86,-260.38L-696.13,-258.43ZM-492.06,-194.17L-555.80,-167.70L-566.48,-138.57L-551.93,-113.28L-522.71,-107.74L-502.25,-113.80L-484.49,-129.67L-483.28,-116.19L-464.47,-118.00L-471.68,-193.13L-485.58,-226.30L-521.56,-234.67L-552.18,-224.00L-565.23,-199.80L-548.30,-191.52L-539.74,-210.20L-522.03,-218.02L-501.88,-214.17ZM-490.34,-176.35L-487.51,-146.87L-500.56,-133.01L-521.08,-124.49L-536.63,-126.96L-545.08,-141.53L-537.61,-158.23ZM-383.97,-124.18L-383.96,-124.18L-387.96,-141.33L-396.86,-139.11L-407.04,-143.09L-410.19,-157.59L-416.64,-224.55L-396.71,-226.47L-398.20,-241.93L-418.13,-240.01L-422.02,-280.32L-442.17,-278.38L-438.29,-238.06L-454.86,-236.47L-453.37,-221.01L-436.80,-222.61L-430.35,-155.65L-423.04,-127.97L-399.16,-120.54ZM-300.23,-133.82L-280.03,-135.77L-285.84,-196.02L-283.21,-226.38L-260.73,-242.24L-244.29,-236.50L-237.16,-216.78L-229.82,-140.61L-209.66,-142.55L-216.16,-209.96L-211.41,-236.13L-190.15,-249.04L-172.17,-241.52L-166.33,-221.30L-159.21,-147.41L-139.05,-149.35L-146.86,-230.43L-158.71,-259.00L-187.48,-266.83L-208.01,-259.76L-222.27,-240.57L-235.68,-256.39L-257.44,-259.98L-278.15,-253.37L-291.67,-235.46L-293.27,-252.04L-311.41,-250.29ZM-47.72,-236.98L-111.45,-210.51L-122.14,-181.38L-107.59,-156.09L-78.37,-150.55L-57.91,-156.61L-40.15,-172.48L-38.94,-159.00L-20.13,-160.81L-27.34,-235.94L-41.24,-269.11L-77.22,-277.49L-107.84,-266.81L-120.89,-242.61L-103.96,-234.33L-95.40,-253.01L-77.69,-260.83L-57.54,-256.99ZM-46.00,-219.16L-43.17,-189.68L-56.22,-175.82L-76.73,-167.30L-92.29,-169.77L-100.74,-184.35L-93.27,-201.04ZM26.03,-216.12L44.89,-217.94L54.54,-211.63L82.80,-168.94L100.04,-180.53L71.77,-220.52L56.16,-227.40L67.13,-240.22L75.80,-264.38L82.06,-267.99L91.10,-270.33L86.62,-288.65L70.01,-285.37L59.78,-274.57L49.83,-245.93L43.28,-234.73L24.43,-232.92L15.36,-326.99L5.09,-326.00L-4.74,-325.04L10.78,-163.79L30.88,-165.73ZM146.49,-199.22L131.76,-229.00L218.21,-237.35L218.55,-245.52L201.10,-286.89L159.03,-300.33L121.12,-279.85L110.72,-232.28L130.01,-187.56L171.13,-174.69L203.46,-187.73L216.46,-213.22L199.82,-221.50L189.53,-200.40L170.62,-191.95ZM130.87,-245.21L140.96,-273.08L160.66,-283.23L184.45,-275.72L196.05,-251.49ZM254.65,-223.70L238.30,-214.05L251.91,-192.29L287.36,-185.77L319.49,-197.14L331.88,-226.49L320.52,-249.51L299.93,-257.70L272.07,-262.43L256.40,-267.02L250.55,-275.85L255.93,-287.96L274.52,-294.00L293.26,-290.78L302.53,-276.72L318.72,-286.35L306.97,-304.91L273.63,-311.29L242.30,-299.95L231.09,-271.68L242.11,-251.16L263.24,-243.47L292.67,-238.64L306.85,-233.15L311.46,-222.71L303.77,-208.32L286.39,-203.02L264.30,-208.00ZM482.18,-288.04L418.44,-261.56L407.76,-232.43L422.30,-207.14L451.52,-201.60L471.99,-207.67L489.75,-223.53L490.96,-210.05L509.77,-211.87L502.56,-287.00L488.66,-320.16L452.68,-328.54L422.06,-317.86L409.01,-293.67L425.94,-285.38L434.50,-304.07L452.20,-311.88L472.36,-308.04ZM483.90,-270.22L486.72,-240.73L473.67,-226.88L453.16,-218.35L437.61,-220.82L429.16,-235.40L436.63,-252.09ZM540.12,-214.79L560.28,-216.73L554.17,-280.11L560.03,-310.88L581.82,-323.42L601.54,-316.50L609.27,-293.56L616.15,-222.11L636.31,-224.06L629.42,-295.50L618.37,-330.28L584.24,-341.18L562.94,-334.29L548.66,-316.20L547.04,-333.00L528.90,-331.25ZM-458.76,-52.31L-452.24,-60.98L-453.32,-72.37L-461.53,-79.82L-471.88,-78.82L-478.33,-69.98L-477.24,-58.61L-469.11,-51.31ZM-440.79,83.16L-452.01,-33.30L-472.17,-31.36L-460.95,85.10ZM-412.73,80.45L-392.53,78.51L-398.33,18.26L-395.71,-12.11L-373.23,-27.96L-356.78,-22.22L-349.65,-2.50L-342.31,73.67L-322.16,71.73L-328.65,4.31L-323.90,-21.85L-302.64,-34.76L-284.66,-27.25L-278.82,-7.03L-271.70,66.87L-251.55,64.92L-259.36,-16.15L-271.20,-44.72L-299.97,-52.55L-320.50,-45.48L-334.77,-26.29L-348.17,-42.11L-369.93,-45.71L-390.64,-39.10L-404.17,-21.19L-405.76,-37.76L-423.90,-36.01ZM-219.46,107.04L-199.30,105.10L-204.80,47.99L-191.03,58.61L-171.92,61.46L-135.76,40.29L-126.98,-6.27L-144.49,-50.29L-184.03,-64.18L-203.24,-56.85L-215.55,-40.04L-217.08,-55.94L-234.99,-54.21ZM-174.71,44.45L-198.92,35.14L-211.78,1.92L-204.64,-33.24L-183.52,-46.92L-159.87,-37.55L-147.59,-4.26L-153.29,30.75ZM-37.03,-34.57L-100.77,-8.10L-111.45,21.03L-96.91,46.32L-67.69,51.86L-47.22,45.80L-29.46,29.93L-28.25,43.41L-9.44,41.60L-16.65,-33.53L-30.55,-66.70L-66.53,-75.08L-97.15,-64.40L-110.20,-40.21L-93.27,-31.92L-84.71,-50.60L-67.01,-58.42L-46.85,-54.58ZM-35.31,-16.76L-32.49,12.73L-45.54,26.59L-66.05,35.11L-81.60,32.64L-90.05,18.06L-82.58,1.37ZM66.93,21.59L42.22,13.18L28.72,-20.85L35.48,-56.84L58.12,-69.81L77.06,-65.20L90.19,-45.67L106.70,-56.03L89.34,-79.57L56.47,-86.93L18.55,-66.45L8.14,-18.87L27.43,25.85L68.58,38.71L99.44,25.34L111.82,-0.50L93.82,-7.98L84.62,13.49ZM188.42,24.11L188.42,24.11L184.42,6.96L175.53,9.18L165.34,5.20L162.19,-9.30L155.74,-76.26L175.67,-78.18L174.19,-93.64L154.25,-91.72L150.37,-132.03L130.21,-130.09L134.10,-89.77L117.52,-88.18L119.01,-72.72L135.58,-74.32L142.04,-7.36L149.34,20.32L173.22,27.75ZM263.32,18.15L270.48,9.30L269.33,-2.07L260.54,-9.30L249.26,-8.16L242.10,0.69L243.25,12.06L252.04,19.30ZM243.20,-21.67L262.72,-23.55L262.13,-29.72L263.57,-46.32L273.17,-60.75L290.86,-81.46L297.32,-109.20L279.63,-141.41L240.32,-150.27L207.31,-134.18L196.93,-102.97L214.81,-96.87L222.60,-122.26L242.28,-132.02L264.38,-127.52L275.70,-105.73L271.53,-86.63L259.31,-72.11L245.01,-52.51L242.61,-27.84Z" fill="#ffffff" stroke="#000000"/>
    <path d="M-906.35,492L-906.35,469.28L-898.22,492L-894.99,492L-886.86,469.28L-886.86,492L-883.25,492L-883.25,464.64L-888.22,464.64L-896.55,487.33L-904.68,464.64L-909.96,464.64L-909.96,492ZM-865.67,478.75L-876.82,482.17L-879.09,486.89L-877.05,491.38L-872.23,492.78L-868.69,492.09L-865.45,489.71L-865.46,492L-862.27,492L-862.27,479.25L-864.06,473.45L-869.98,471.46L-875.30,472.76L-877.88,476.62L-875.17,478.28L-873.43,475.28L-870.33,474.25L-867.00,475.23ZM-865.67,481.77L-865.68,486.77L-868.09,488.89L-871.68,489.99L-874.26,489.33L-875.44,486.74L-873.91,484.05ZM-857.12,492L-853.70,492L-853.70,481.25L-852.22,476.17L-848.35,474.41L-845.15,475.90L-844.22,479.88L-844.22,492L-840.80,492L-840.80,479.88L-842.09,473.85L-847.66,471.47L-851.35,472.28L-854.04,475.09L-854.04,472.24L-857.12,472.24ZM-833.34,468.94L-832.11,467.58L-832.10,465.65L-833.36,464.27L-835.12,464.27L-836.35,465.65L-836.35,467.58L-835.10,468.94ZM-832.52,492L-832.52,472.24L-835.94,472.24L-835.94,492ZM-818.31,468.12L-817.85,465.29L-820.94,464.71L-825.30,466.41L-826.70,471.29L-826.70,472.24L-829.67,472.24L-829.67,474.86L-826.70,474.86L-826.70,492L-823.40,492L-823.40,474.86L-819.56,474.86L-819.56,472.24L-823.40,472.24L-823.40,471.21L-822.75,468.65L-820.52,467.74ZM-807.97,471.46L-814.77,474.29L-817.39,482.12L-814.77,489.95L-807.97,492.78L-801.17,489.95L-798.55,482.12L-801.16,474.29ZM-807.97,489.87L-812.08,488.06L-813.90,482.12L-812.08,476.18L-807.97,474.37L-803.85,476.18L-802.04,482.12L-803.85,488.06ZM-795.03,492L-791.61,492L-791.61,481.25L-790.13,476.17L-786.26,474.41L-783.06,475.90L-782.13,479.88L-782.13,492L-778.71,492L-778.71,479.88L-780.00,473.85L-785.56,471.47L-789.26,472.28L-791.95,475.09L-791.95,472.24L-795.03,472.24ZM-765.45,492.27L-765.45,492.26L-765.85,489.32L-767.38,489.55L-769.03,488.71L-769.32,486.22L-769.32,474.86L-765.94,474.86L-765.94,472.24L-769.32,472.24L-769.32,465.40L-772.74,465.40L-772.74,472.24L-775.55,472.24L-775.55,474.86L-772.74,474.86L-772.74,486.22L-771.96,491.00L-768.07,492.63ZM-737.50,487.93L-737.50,478.13L-749.05,478.13L-749.05,481.31L-740.99,481.31L-740.97,486.22L-748.63,489.75L-755.95,486.41L-758.55,478.32L-756.06,470.17L-749.21,466.88L-744.27,468.25L-741.30,473.01L-738.24,471.11L-741.44,465.93L-749.13,463.79L-758.98,468.04L-762.42,478.32L-758.78,488.60L-748.74,492.86ZM-724.35,474.77L-721.78,475.62L-720.76,472.73L-724.11,471.47L-727.37,472.48L-729.65,475.66L-729.65,472.24L-732.73,472.24L-732.73,491.81L-729.31,492L-729.31,481.32L-728.06,476.56ZM-710.01,471.46L-716.81,474.29L-719.42,482.12L-716.81,489.95L-710.01,492.78L-703.20,489.95L-700.58,482.12L-703.20,474.29ZM-710.01,489.87L-714.12,488.06L-715.93,482.12L-714.12,476.18L-710.01,474.37L-705.89,476.18L-704.07,482.12L-705.89,488.06ZM-688.58,492.27L-688.58,492.26L-688.97,489.32L-690.51,489.55L-692.15,488.71L-692.45,486.22L-692.45,474.86L-689.07,474.86L-689.07,472.24L-692.45,472.24L-692.45,465.40L-695.87,465.40L-695.87,472.24L-698.68,472.24L-698.68,474.86L-695.87,474.86L-695.87,486.22L-695.09,491.00L-691.19,492.63ZM-680.57,488.24L-682.57,483.00L-667.90,482.99L-667.71,481.63L-669.97,474.39L-676.83,471.45L-683.53,474.28L-686.05,482.11L-683.53,489.93L-676.83,492.76L-671.18,491.10L-668.58,487.02L-671.25,485.36L-673.32,488.74L-676.63,489.86ZM-682.45,480.26L-680.31,475.73L-676.83,474.35L-672.95,476.00L-671.40,480.26ZM-661.99,485.88L-664.90,487.24L-662.96,491.11L-657.11,492.78L-651.52,491.39L-648.97,486.66L-650.50,482.61L-653.83,480.90L-658.44,479.65L-661.00,478.62L-661.84,477.05L-660.74,475.10L-657.52,474.38L-654.42,475.23L-653.09,477.74L-650.21,476.38L-651.88,473.07L-657.39,471.46L-662.84,472.86L-665.18,477.43L-663.66,481.06L-660.23,482.69L-655.36,483.98L-653.07,485.13L-652.46,486.96L-653.99,489.26L-656.99,489.87L-660.63,488.67ZM-641.92,483.45L-638.72,483.45L-637.20,484.67L-633.14,492.30L-630.05,490.63L-634.16,483.45L-636.67,482.04L-634.62,480.06L-632.77,476.14L-631.66,475.64L-630.10,475.39L-630.56,472.24L-633.40,472.52L-635.30,474.17L-637.43,478.82L-638.72,480.60L-641.91,480.60L-641.91,464.64L-643.66,464.64L-645.32,464.64L-645.33,492L-641.92,492ZM-625.58,492.01L-615.04,492.01L-607.42,490.45L-604.53,484.21L-606.06,480.03L-610.31,477.70L-606.80,475.27L-605.82,471.62L-608.58,466.13L-615.58,464.63L-625.58,464.63ZM-621.94,476.42L-621.95,467.89L-616.40,467.89L-611.64,468.44L-609.62,472.08L-611.57,475.51L-615.93,476.42ZM-621.94,488.79L-621.94,479.64L-615.54,479.64L-610.64,480.53L-608.45,484.21L-610.32,488.02L-615.04,488.79ZM-592.40,471.46L-599.20,474.29L-601.81,482.12L-599.20,489.95L-592.40,492.78L-585.59,489.95L-582.97,482.12L-585.59,474.29ZM-592.40,489.87L-596.51,488.06L-598.32,482.12L-596.51,476.18L-592.40,474.37L-588.28,476.18L-586.46,482.12L-588.28,488.06ZM-571.27,471.46L-578.07,474.29L-580.68,482.12L-578.07,489.95L-571.27,492.78L-564.46,489.95L-561.85,482.12L-564.46,474.29ZM-571.27,489.87L-575.38,488.06L-577.19,482.12L-575.38,476.18L-571.27,474.37L-567.15,476.18L-565.33,482.12L-567.15,488.06ZM-554.82,483.45L-551.62,483.45L-550.10,484.67L-546.04,492.30L-542.96,490.63L-547.06,483.45L-549.57,482.04L-547.52,480.06L-545.67,476.14L-544.56,475.64L-543.00,475.39L-543.46,472.24L-546.31,472.52L-548.20,474.17L-550.34,478.82L-551.62,480.60L-554.82,480.60L-554.82,464.64L-556.56,464.64L-558.23,464.64L-558.23,492L-554.82,492Z"/>
</svg>