<?xml version="1.0"?>
<svg xmlns="http://www.w3.org/2000/svg" width="1920" height="1080" viewBox="-960 -540 1920 1080">
    <path d="M-850,-410L-830,-390L-880,-230L-900,-210L-800,-210L-750,-230L-720,-270L-730,-310L-760,-320L-740,-330L-710,-360L-720,-400L-770,-410ZM-850,-230L-800,-390L-790,-400L-770,-400L-750,-390L-750,-360L-770,-330L-800,-320L-820,-320L-820,-310L-790,-310L-770,-300L-760,-270L-780,-240L-820,-220L-840,-220ZM-550,-340L-560,-350L-580,-320L-590,-340L-630,-350L-680,-310L-700,-260L-690,-220L-670,-210L-650,-210L-620,-240L-620,-220L-610,-210L-580,-220L-530,-270L-540,-280L-590,-230L-600,-230ZM-650,-230L-660,-230L-670,-260L-650,-300L-620,-330L-600,-330L-590,-310L-590,-300L-620,-260ZM-340,-270L-350,-280L-400,-230L-410,-230L-350,-330L-360,-340L-380,-340L-420,-270L-460,-230L-470,-230L-480,-250L-430,-330L-430,-340L-450,-350L-480,-340L-530,-290L-520,-280L-470,-330L-460,-330L-510,-250L-500,-220L-480,-210L-460,-210L-430,-240L-430,-220L-420,-210L-410,-210L-390,-220ZM-180,-270L-190,-270L-220,-220L-280,-220L-290,-230L-270,-300L-260,-310L-220,-310L-200,-290L-200,-340L-220,-320L-260,-320L-260,-330L-240,-390L-230,-400L-180,-400L-150,-360L-140,-360L-150,-420L-190,-410L-290,-410L-270,-390L-320,-230L-350,-210L-210,-210L-190,-200ZM-160,-290L-150,-280L-100,-330L-90,-330L-150,-220L-140,-210L-120,-210L-80,-290L-50,-310L-20,-310L-10,-340L-30,-350L-50,-340L-80,-300L-90,-300L-70,-330L-70,-340L-80,-350L-110,-340ZM70,-210L80,-210L100,-220L150,-270L140,-280L90,-230L80,-230L170,-420L100,-420L100,-410L130,-410L100,-320L90,-340L50,-350L0,-310L-20,-260L-10,-220L10,-210L30,-210L60,-240L60,-220ZM30,-230L20,-230L10,-260L30,-300L60,-330L80,-330L90,-310L90,-300L60,-260ZM290,-300L290,-320L280,-340L240,-350L190,-320L160,-260L170,-220L190,-210L210,-210L230,-220L270,-260L260,-270L220,-230L200,-230L190,-260L210,-300L240,-330L260,-330L260,-300L240,-290L210,-290L210,-280L260,-280ZM290,-290L300,-280L350,-330L360,-330L300,-220L310,-210L330,-210L370,-290L400,-320L420,-330L430,-320L380,-230L380,-220L390,-210L410,-210L430,-220L480,-270L470,-280L420,-230L410,-230L460,-310L460,-340L430,-350L400,-340L370,-310L380,-330L380,-340L370,-350L340,-340ZM580,-290L580,-280L740,-280L740,-290ZM-785,-158L-765,-138L-815,22L-835,42L-735,42L-685,22L-655,-18L-665,-58L-695,-68L-675,-78L-645,-108L-655,-148L-705,-158ZM-785,22L-735,-138L-725,-148L-705,-148L-685,-138L-685,-108L-705,-78L-735,-68L-755,-68L-755,-58L-725,-58L-705,-48L-695,-18L-715,12L-755,32L-775,32ZM-455,-18L-465,-28L-515,22L-525,22L-465,-78L-475,-88L-495,-88L-535,-18L-575,22L-585,22L-595,2L-545,-78L-545,-88L-565,-98L-595,-88L-645,-38L-635,-28L-585,-78L-575,-78L-625,2L-615,32L-595,42L-575,42L-545,12L-545,32L-535,42L-525,42L-505,32ZM-345,-118L-335,-118L-325,-138L-325,-148L-345,-158L-355,-158L-365,-138L-365,-128ZM-455,-38L-445,-28L-395,-78L-385,-78L-445,22L-445,32L-435,42L-415,42L-395,32L-345,-18L-355,-28L-405,22L-415,22L-355,-78L-355,-88L-375,-98L-405,-88ZM-315,22L-225,-168L-295,-168L-295,-158L-265,-158L-345,22L-345,32L-325,42L-295,32L-245,-18L-255,-28L-305,22ZM-145,42L-135,42L-115,32L-65,-18L-75,-28L-125,22L-135,22L-45,-168L-115,-168L-115,-158L-85,-158L-115,-68L-125,-88L-165,-98L-215,-58L-235,-8L-225,32L-205,42L-185,42L-155,12L-155,32ZM-185,22L-195,22L-205,-8L-185,-48L-155,-78L-135,-78L-125,-58L-125,-48L-155,-8ZM175,-18L165,-18L135,32L75,32L65,22L85,-48L95,-58L135,-58L155,-38L155,-88L135,-68L95,-68L95,-78L115,-138L125,-148L175,-148L205,-108L215,-108L205,-168L165,-158L65,-158L85,-138L35,22L5,42L145,42L165,52ZM355,-88L345,-98L325,-68L315,-88L275,-98L225,-58L205,-8L215,32L235,42L255,42L285,12L285,32L295,42L325,32L375,-18L365,-28L315,22L305,22ZM255,22L245,22L235,-8L255,-48L285,-78L305,-78L315,-58L315,-48L285,-8ZM375,-38L385,-28L435,-78L445,-78L385,32L395,42L415,42L455,-38L485,-58L515,-58L525,-88L505,-98L485,-88L455,-48L445,-48L465,-78L465,-88L455,-98L425,-88ZM535,22L585,-78L615,-78L615,-88L585,-88L605,-128L585,-128L575,-98L555,-88L535,-88L535,-78L555,-78L505,22L505,32L515,42L535,42L555,32L605,-18L595,-28L545,22ZM685,-158L645,-58L595,32L605,42L625,42L665,-38L695,-68L715,-78L725,-68L675,22L675,32L685,42L705,42L725,32L775,-18L765,-28L715,22L705,22L755,-58L755,-88L725,-98L695,-88L675,-68L725,-168L655,-168L655,-158Z" fill="#ffffff" stroke="#000000"/>
    <path d="M-836.59,-425.00L-817.31,-404.69L-870.95,-247.64L-891.26,-228.37L-792.29,-225.77L-742.29,-244.27L-711.56,-283.08L-720.42,-322.92L-749.85,-333.60L-729.80,-342.98L-699.33,-371.89L-708.19,-411.73L-757.42,-422.93ZM-841.26,-246.86L-787.62,-403.91L-777.47,-413.55L-757.67,-413.03L-738.14,-402.62L-738.92,-372.93L-759.49,-343.75L-789.44,-334.64L-809.23,-335.16L-809.49,-325.26L-779.80,-324.48L-760.27,-314.06L-751.15,-284.12L-771.72,-254.94L-811.83,-236.19L-831.62,-236.71ZM-541.51,-347.94L-551.14,-358.10L-571.72,-328.93L-581.09,-348.98L-620.42,-359.92L-670.94,-321.63L-692.03,-272.66L-683.17,-232.82L-663.64,-222.40L-643.85,-221.88L-613.38,-250.79L-613.90,-231.00L-604.26,-220.84L-574.31,-229.96L-523.53,-278.15L-533.17,-288.30L-583.95,-240.12L-593.84,-240.38ZM-643.33,-241.67L-653.22,-241.93L-662.34,-271.88L-641.51,-310.95L-611.04,-339.86L-591.25,-339.34L-581.87,-319.29L-582.13,-309.39L-612.86,-270.59ZM-335.49,-273.22L-345.13,-283.37L-395.91,-235.19L-405.81,-235.45L-343.83,-332.86L-353.47,-343.01L-373.26,-343.53L-414.67,-275.29L-455.29,-236.74L-465.19,-237.00L-474.57,-257.06L-423.01,-334.93L-422.75,-344.83L-442.28,-355.24L-472.23,-346.13L-523.01,-297.94L-513.37,-287.78L-462.59,-335.97L-452.70,-335.71L-504.26,-257.84L-495.14,-227.89L-475.60,-217.47L-455.81,-216.95L-425.34,-245.86L-425.86,-226.07L-416.22,-215.91L-406.33,-215.65L-386.27,-225.03ZM-177.15,-269.07L-187.05,-269.33L-218.03,-220.62L-277.41,-222.18L-287.05,-232.33L-265.44,-301.09L-255.28,-310.73L-215.70,-309.69L-196.42,-289.38L-195.13,-338.86L-215.44,-319.59L-255.02,-320.62L-254.76,-330.52L-233.41,-389.38L-223.26,-399.02L-173.78,-397.72L-145.12,-357.36L-135.23,-357.10L-143.57,-416.74L-183.41,-407.88L-282.38,-410.47L-263.10,-390.16L-316.74,-233.11L-346.95,-214.10L-208.40,-210.46L-188.86,-200.05ZM-156.84,-288.34L-147.20,-278.18L-96.42,-326.37L-86.52,-326.11L-148.76,-218.80L-139.12,-208.65L-119.33,-208.13L-77.66,-286.26L-47.45,-305.28L-17.77,-304.50L-7.09,-333.93L-26.62,-344.35L-46.68,-334.97L-77.40,-296.16L-87.30,-296.42L-66.73,-325.59L-66.47,-335.49L-76.11,-345.64L-106.06,-336.53ZM68.71,-203.20L78.61,-202.94L98.66,-212.32L149.44,-260.50L139.80,-270.66L89.02,-222.47L79.13,-222.73L173.12,-408.43L103.85,-410.25L103.59,-400.35L133.28,-399.57L101.25,-311.28L91.88,-331.34L52.55,-342.27L2.03,-303.98L-19.06,-255.02L-10.20,-215.17L9.33,-204.76L29.12,-204.24L59.59,-233.15L59.07,-213.35ZM29.64,-224.03L19.75,-224.29L10.63,-254.24L31.46,-293.31L61.93,-322.22L81.72,-321.70L91.10,-301.65L90.84,-291.75L60.11,-252.94ZM288.77,-286.56L289.29,-306.35L279.91,-326.41L240.58,-337.34L190.32,-308.95L159.08,-250.35L167.93,-210.50L187.47,-200.09L207.26,-199.57L227.31,-208.94L267.94,-247.49L258.30,-257.65L217.68,-219.10L197.88,-219.62L188.77,-249.57L209.60,-288.64L240.07,-317.55L259.86,-317.03L259.08,-287.34L239.03,-277.96L209.34,-278.74L209.08,-268.84L258.56,-267.54ZM288.51,-276.66L298.15,-266.51L348.93,-314.69L358.82,-314.43L296.59,-207.13L306.23,-196.97L326.02,-196.45L367.68,-274.59L398.15,-303.50L418.20,-312.88L427.84,-302.72L376.02,-214.95L375.76,-205.05L385.40,-194.90L405.19,-194.38L425.25,-203.75L476.03,-251.94L466.39,-262.10L415.61,-213.91L405.71,-214.17L457.27,-292.05L458.05,-321.73L428.62,-332.41L398.67,-323.29L368.20,-294.38L378.62,-313.91L378.88,-323.81L369.24,-333.97L339.29,-324.85ZM575.51,-269.14L575.25,-259.24L733.60,-255.09L733.86,-264.99ZM-778.80,-173.92L-759.52,-153.61L-813.16,3.44L-833.47,22.71L-734.51,25.31L-684.50,6.81L-653.78,-32.00L-662.63,-71.84L-692.06,-82.52L-672.01,-91.90L-641.54,-120.81L-650.40,-160.65L-699.63,-171.85ZM-783.47,4.22L-729.83,-152.83L-719.68,-162.47L-699.89,-161.95L-680.35,-151.53L-681.13,-121.84L-701.70,-92.67L-731.65,-83.56L-751.44,-84.07L-751.70,-74.18L-722.01,-73.40L-702.48,-62.98L-693.36,-33.03L-713.93,-3.86L-754.04,14.89L-773.83,14.37ZM-455.84,-26.81L-465.48,-36.96L-516.26,11.22L-526.16,10.96L-464.18,-86.45L-473.82,-96.60L-493.61,-97.12L-535.02,-28.88L-575.64,9.67L-585.54,9.41L-594.92,-10.65L-543.36,-88.52L-543.10,-98.42L-562.63,-108.83L-592.58,-99.72L-643.36,-51.53L-633.72,-41.37L-582.94,-89.56L-573.05,-89.30L-624.61,-11.43L-615.49,18.52L-595.95,28.94L-576.16,29.46L-545.69,0.55L-546.21,20.34L-536.57,30.50L-526.68,30.76L-506.62,21.38ZM-344.39,-122.92L-334.49,-122.66L-324.07,-142.19L-323.81,-152.09L-343.35,-162.51L-353.25,-162.76L-363.66,-143.23L-363.92,-133.33ZM-455.33,-46.60L-445.69,-36.44L-394.91,-84.63L-385.01,-84.37L-446.99,13.04L-447.24,22.94L-437.61,33.09L-417.81,33.61L-397.76,24.23L-346.98,-23.95L-356.62,-34.11L-407.40,14.08L-417.30,13.82L-355.32,-83.59L-355.06,-93.49L-374.60,-103.90L-404.54,-94.79ZM-318.33,16.41L-224.33,-169.29L-293.61,-171.10L-293.87,-161.21L-264.18,-160.43L-348.02,15.63L-348.28,25.53L-328.75,35.95L-298.80,26.83L-248.02,-21.36L-257.65,-31.51L-308.43,16.67ZM-150.61,40.62L-140.71,40.88L-120.66,31.50L-69.88,-16.69L-79.51,-26.84L-130.29,21.34L-140.19,21.08L-46.19,-164.62L-115.47,-166.43L-115.73,-156.54L-86.04,-155.76L-118.06,-67.47L-127.44,-87.52L-166.77,-98.45L-217.29,-60.17L-238.38,-11.20L-229.52,28.64L-209.99,39.06L-190.19,39.58L-159.72,10.67L-160.24,30.46ZM-189.67,19.79L-199.57,19.53L-208.69,-10.42L-187.86,-49.49L-157.39,-78.40L-137.60,-77.88L-128.22,-57.83L-128.48,-47.93L-159.21,-9.13ZM167.64,-10.46L157.75,-10.72L126.76,37.99L67.38,36.43L57.74,26.27L79.35,-42.48L89.51,-52.12L129.09,-51.08L148.37,-30.77L149.66,-80.25L129.35,-60.98L89.77,-62.02L90.03,-71.92L111.38,-130.78L121.53,-140.41L171.02,-139.12L199.67,-98.75L209.56,-98.49L201.22,-158.13L161.38,-149.27L62.41,-151.87L81.69,-131.55L28.05,25.49L-2.16,44.51L136.40,48.14L155.93,58.56ZM347.60,-75.07L337.96,-85.22L317.39,-56.05L308.01,-76.10L268.68,-87.04L218.16,-48.75L197.07,0.22L205.93,40.06L225.46,50.48L245.26,51.00L275.73,22.08L275.21,41.88L284.84,52.03L314.79,42.92L365.57,-5.27L355.94,-15.43L305.16,32.76L295.26,32.50ZM245.78,31.20L235.88,30.94L226.76,0.99L247.59,-38.07L278.06,-66.98L297.85,-66.47L307.23,-46.41L306.97,-36.52L276.24,2.29ZM366.09,-25.06L375.73,-14.91L426.51,-63.09L436.41,-62.83L374.17,44.47L383.81,54.63L403.60,55.15L445.27,-22.99L475.47,-42.00L505.16,-41.22L515.84,-70.65L496.31,-81.07L476.25,-71.69L445.52,-32.88L435.63,-33.14L456.20,-62.31L456.46,-72.21L446.82,-82.37L416.87,-73.25ZM522.88,38.47L574.96,-59.20L604.65,-58.42L604.91,-68.32L575.22,-69.10L596.05,-108.16L576.26,-108.68L565.58,-79.25L545.53,-69.88L525.74,-70.39L525.48,-60.50L545.27,-59.98L493.19,37.69L492.93,47.59L502.57,57.74L522.36,58.26L542.42,48.88L593.20,0.70L583.56,-9.46L532.78,38.73ZM676.00,-135.78L633.82,-37.85L582.00,49.92L591.64,60.08L611.43,60.60L653.09,-17.54L683.56,-46.45L703.61,-55.83L713.25,-45.67L661.43,42.10L661.17,52.00L670.81,62.15L690.60,62.67L710.66,53.29L761.44,5.11L751.80,-5.05L701.02,43.14L691.12,42.88L742.68,-35.00L743.46,-64.69L714.03,-75.36L684.08,-66.24L663.77,-46.97L715.85,-144.64L646.57,-146.45L646.31,-136.56Z" fill="#ffffff" stroke="#000000"/>
    <path d="M-822.85,-439.64L-804.31,-419.04L-861.46,-265.03L-882.06,-246.48L-784.19,-241.35L-734.23,-258.35L-702.82,-295.96L-710.55,-335.62L-739.40,-346.94L-719.31,-355.70L-688.41,-383.52L-696.14,-423.18L-744.56,-435.54ZM-832.10,-263.49L-774.95,-417.50L-764.65,-426.78L-745.07,-425.75L-726.01,-414.94L-727.55,-385.58L-748.67,-357.24L-778.54,-349.00L-798.11,-350.02L-798.63,-340.24L-769.27,-338.70L-750.21,-327.88L-741.96,-298.01L-763.08,-269.68L-803.25,-252.16L-822.82,-253.19ZM-532.85,-355.73L-542.12,-366.03L-563.24,-337.70L-572.00,-357.79L-610.63,-369.63L-661.62,-333.05L-683.76,-285.14L-676.02,-245.48L-656.97,-234.67L-637.39,-233.64L-606.49,-261.46L-607.52,-241.89L-598.25,-231.59L-568.37,-239.83L-516.87,-286.20L-526.15,-296.50L-577.65,-250.13L-587.43,-250.65ZM-636.37,-253.22L-646.15,-253.73L-654.40,-283.60L-632.77,-321.72L-601.87,-349.54L-582.30,-348.51L-573.54,-328.43L-574.05,-318.64L-605.46,-281.03ZM-330.93,-276.44L-340.20,-286.74L-391.70,-240.38L-401.49,-240.89L-337.63,-335.67L-346.91,-345.97L-366.48,-347.00L-409.22,-280.55L-450.42,-243.46L-460.21,-243.97L-468.97,-264.06L-415.93,-339.78L-415.41,-349.57L-434.47,-360.38L-464.35,-352.14L-515.85,-305.77L-506.57,-295.47L-455.07,-341.84L-445.29,-341.32L-498.33,-265.60L-490.08,-235.73L-471.02,-224.91L-451.45,-223.88L-420.55,-251.70L-421.57,-232.13L-412.30,-221.83L-402.52,-221.32L-382.43,-230.08ZM-174.34,-268.22L-184.13,-268.74L-216.06,-221.35L-274.78,-224.43L-284.05,-234.73L-260.88,-302.21L-250.58,-311.48L-211.44,-309.42L-192.89,-288.82L-190.32,-337.76L-210.92,-319.21L-250.07,-321.27L-249.55,-331.05L-226.90,-388.74L-216.60,-398.02L-167.67,-395.45L-140.36,-354.76L-130.58,-354.25L-137.28,-413.48L-176.94,-405.75L-274.81,-410.89L-256.26,-390.28L-313.41,-236.27L-343.80,-218.24L-206.78,-211.05L-187.73,-200.23ZM-153.74,-286.77L-144.47,-276.47L-92.97,-322.84L-83.18,-322.32L-147.55,-217.75L-138.28,-207.45L-118.71,-206.42L-75.45,-282.66L-45.06,-300.69L-15.71,-299.15L-4.38,-328.00L-23.44,-338.81L-43.52,-330.05L-74.94,-292.45L-84.72,-292.96L-63.61,-321.29L-63.10,-331.08L-72.37,-341.38L-102.24,-333.14ZM67.24,-196.67L77.02,-196.15L97.11,-204.91L148.61,-251.28L139.34,-261.58L87.84,-215.21L78.05,-215.73L175.89,-397.05L107.38,-400.64L106.87,-390.86L136.23,-389.32L102.25,-302.78L93.49,-322.86L54.85,-334.71L3.87,-298.13L-18.27,-250.22L-10.54,-210.56L8.52,-199.75L28.09,-198.72L58.99,-226.54L57.97,-206.97ZM29.12,-218.29L19.33,-218.81L11.09,-248.68L32.71,-286.80L63.61,-314.62L83.19,-313.59L91.95,-293.51L91.43,-283.72L60.02,-246.11ZM287.16,-273.45L288.19,-293.02L279.43,-313.11L240.80,-324.95L190.33,-298.16L157.88,-240.98L165.62,-201.32L184.68,-190.50L204.25,-189.48L224.34,-198.24L265.54,-235.33L256.26,-245.63L215.06,-208.54L195.49,-209.56L187.24,-239.44L208.87,-277.56L239.77,-305.37L259.34,-304.35L257.80,-274.99L237.72,-266.23L208.36,-267.77L207.84,-257.98L256.78,-255.42ZM286.65,-263.66L295.92,-253.36L347.42,-299.73L357.21,-299.21L292.84,-194.64L302.12,-184.34L321.69,-183.31L364.94,-259.55L395.84,-287.37L415.93,-296.13L425.20,-285.83L371.65,-200.32L371.13,-190.53L380.41,-180.23L399.98,-179.21L420.07,-187.97L471.57,-234.33L462.29,-244.63L410.79,-198.27L401.01,-198.78L454.05,-274.50L455.59,-303.86L426.74,-315.19L396.87,-306.94L365.97,-279.13L376.78,-298.19L377.30,-307.97L368.02,-318.27L338.15,-310.03ZM570.46,-248.77L569.95,-238.98L726.53,-230.76L727.04,-240.55ZM-772.18,-189.68L-753.63,-169.08L-810.78,-15.07L-831.38,3.48L-733.52,8.61L-683.56,-8.39L-652.15,-46.00L-659.88,-85.66L-688.72,-96.98L-668.64,-105.74L-637.74,-133.56L-645.47,-173.22L-693.89,-185.58ZM-781.42,-13.53L-724.28,-167.54L-713.98,-176.82L-694.40,-175.79L-675.34,-164.98L-676.88,-135.62L-698.00,-107.28L-727.87,-99.04L-747.44,-100.07L-747.96,-90.28L-718.60,-88.74L-699.54,-77.92L-691.29,-48.05L-712.41,-19.72L-752.58,-2.20L-772.15,-3.23ZM-456.41,-35.73L-465.69,-46.03L-517.19,0.34L-526.97,-0.18L-463.12,-94.96L-472.39,-105.26L-491.97,-106.29L-534.71,-39.83L-575.91,-2.74L-585.69,-3.26L-594.45,-23.34L-541.41,-99.07L-540.90,-108.85L-559.96,-119.67L-589.83,-111.42L-641.33,-65.06L-632.06,-54.76L-580.56,-101.12L-570.77,-100.61L-623.81,-24.88L-615.57,4.99L-596.51,15.80L-576.93,16.83L-546.03,-10.99L-547.06,8.58L-537.79,18.88L-528.00,19.40L-507.92,10.64ZM-343.63,-127.94L-333.84,-127.43L-323.03,-146.49L-322.51,-156.28L-341.57,-167.09L-351.36,-167.60L-362.17,-148.54L-362.69,-138.76ZM-455.39,-55.30L-446.11,-45.00L-394.61,-91.36L-384.83,-90.85L-448.68,3.93L-449.20,13.72L-439.92,24.02L-420.35,25.05L-400.26,16.29L-348.76,-30.08L-358.04,-40.38L-409.54,5.99L-419.32,5.47L-355.47,-89.31L-354.95,-99.10L-374.01,-109.91L-403.89,-101.66ZM-321.46,10.61L-223.62,-170.71L-292.13,-174.31L-292.64,-164.52L-263.28,-162.98L-350.82,9.07L-351.33,18.86L-332.27,29.67L-302.40,21.42L-250.90,-24.94L-260.17,-35.24L-311.67,11.12ZM-156.11,38.91L-146.33,39.43L-126.24,30.67L-74.74,-15.70L-84.01,-26.00L-135.51,20.37L-145.30,19.85L-47.46,-161.47L-115.97,-165.06L-116.48,-155.28L-87.12,-153.74L-121.11,-67.20L-129.86,-87.29L-168.50,-99.13L-219.48,-62.55L-241.62,-14.64L-233.89,25.02L-214.83,35.83L-195.26,36.86L-164.36,9.04L-165.39,28.61ZM-194.23,17.29L-204.02,16.77L-212.27,-13.10L-190.64,-51.22L-159.74,-79.04L-140.16,-78.01L-131.41,-57.93L-131.92,-48.14L-163.33,-10.53ZM160.14,-3.37L150.35,-3.89L118.42,43.51L59.70,40.42L50.43,30.12L73.60,-37.35L83.90,-46.63L123.04,-44.57L141.59,-23.97L144.16,-72.91L123.56,-54.36L84.41,-56.41L84.93,-66.20L107.58,-123.89L117.88,-133.17L166.81,-130.60L194.12,-89.91L203.90,-89.40L197.20,-148.63L157.54,-140.90L59.67,-146.03L78.22,-125.43L21.07,28.58L-9.32,46.62L127.70,53.81L146.76,64.62ZM339.89,-62.63L330.62,-72.94L309.50,-44.60L300.74,-64.69L262.11,-76.53L211.12,-39.95L188.98,7.95L196.72,47.61L215.77,58.43L235.35,59.45L266.25,31.64L265.22,51.21L274.49,61.51L304.37,53.26L355.87,6.90L346.59,-3.40L295.09,42.96L285.31,42.45ZM236.37,39.88L226.59,39.37L218.34,9.49L239.97,-28.62L270.87,-56.44L290.44,-55.42L299.20,-35.33L298.69,-25.54L267.28,12.06ZM356.89,-12.68L366.17,-2.38L417.67,-48.74L427.45,-48.23L363.09,56.34L372.36,66.64L391.93,67.67L435.19,-8.57L465.57,-26.60L494.93,-25.06L506.26,-53.90L487.20,-64.72L467.11,-55.96L435.70,-18.35L425.91,-18.87L447.03,-47.20L447.54,-56.99L438.27,-67.29L408.39,-59.04ZM510.40,54.26L564.47,-41.04L593.83,-39.50L594.34,-49.28L564.98,-50.82L586.61,-88.94L567.03,-89.97L555.71,-61.12L535.62,-52.36L516.05,-53.39L515.53,-43.60L535.11,-42.58L481.04,52.72L480.52,62.51L489.80,72.81L509.37,73.83L529.46,65.07L580.96,18.71L571.68,8.41L520.18,54.77ZM666.44,-114.19L622.16,-18.38L568.60,67.13L577.88,77.43L597.45,78.46L640.70,2.22L671.60,-25.60L691.69,-34.36L700.96,-24.06L647.41,61.45L646.90,71.24L656.17,81.54L675.74,82.56L695.83,73.80L747.33,27.44L738.06,17.14L686.56,63.50L676.77,62.99L729.81,-12.73L731.35,-42.09L702.50,-53.42L672.63,-45.17L652.03,-26.63L706.10,-121.93L637.59,-125.52L637.08,-115.73Z" fill="#ffffff" stroke="#000000"/>
    <path d="M-808.80,-453.91L-790.98,-433.05L-851.53,-282.14L-872.39,-264.32L-775.69,-256.70L-725.82,-272.23L-693.76,-308.62L-700.38,-348.07L-728.63,-360.02L-708.53,-368.17L-677.23,-394.89L-683.85,-434.33L-731.44,-447.82ZM-822.52,-279.85L-761.97,-430.76L-751.54,-439.67L-732.20,-438.15L-713.62,-426.95L-715.91,-397.94L-737.54,-370.45L-767.31,-363.07L-786.65,-364.60L-787.41,-354.92L-758.40,-352.64L-739.82,-341.44L-732.44,-311.67L-754.07,-284.19L-794.27,-267.89L-813.61,-269.42ZM-524.03,-363.36L-532.94,-373.79L-554.57,-346.31L-562.71,-366.41L-600.63,-379.13L-652.03,-344.26L-675.18,-297.43L-668.56,-257.99L-649.98,-246.79L-630.64,-245.27L-599.34,-271.99L-600.87,-252.65L-591.96,-242.22L-562.19,-249.61L-510.03,-294.15L-518.94,-304.58L-571.10,-260.04L-580.77,-260.80ZM-629.12,-264.61L-638.79,-265.37L-646.17,-295.14L-623.78,-332.30L-592.49,-359.02L-573.15,-357.50L-565.00,-337.40L-565.76,-327.73L-597.82,-291.33ZM-326.30,-279.67L-335.21,-290.10L-387.37,-245.56L-397.04,-246.32L-331.40,-338.45L-340.30,-348.88L-359.64,-350.41L-403.66,-285.76L-445.39,-250.13L-455.06,-250.89L-463.20,-271.00L-408.76,-344.55L-407.99,-354.22L-426.57,-365.41L-456.34,-358.03L-508.50,-313.49L-499.60,-303.05L-447.44,-347.59L-437.77,-346.83L-492.21,-273.28L-484.83,-243.51L-466.25,-232.32L-446.91,-230.79L-415.61,-257.52L-417.14,-238.18L-408.23,-227.74L-398.56,-226.98L-378.46,-235.13ZM-171.58,-267.48L-181.25,-268.24L-214.07,-222.17L-272.09,-226.75L-281.00,-237.18L-256.32,-303.34L-245.89,-312.25L-207.21,-309.20L-189.39,-288.34L-185.58,-336.69L-206.45,-318.87L-245.13,-321.92L-244.37,-331.59L-220.45,-388.09L-210.02,-397.00L-161.67,-393.19L-135.71,-352.22L-126.04,-351.46L-131.14,-410.24L-170.58,-403.62L-267.28,-411.24L-249.46,-390.37L-310.01,-239.46L-340.54,-222.41L-205.16,-211.74L-186.58,-200.55ZM-150.71,-285.29L-141.81,-274.86L-89.65,-319.40L-79.98,-318.64L-146.38,-216.84L-137.47,-206.41L-118.13,-204.88L-73.35,-279.20L-42.82,-296.25L-13.81,-293.96L-1.85,-322.21L-20.43,-333.41L-40.53,-325.26L-72.59,-288.87L-82.26,-289.63L-60.64,-317.11L-59.87,-326.78L-68.78,-337.22L-98.55,-329.83ZM65.60,-190.40L75.27,-189.64L95.37,-197.79L147.53,-242.33L138.63,-252.76L86.46,-208.22L76.79,-208.98L178.30,-385.86L110.61,-391.19L109.85,-381.52L138.86,-379.23L102.99,-294.49L94.85,-314.59L56.93,-327.31L5.53,-292.44L-17.62,-245.61L-11.00,-206.17L7.58,-194.98L26.92,-193.45L58.22,-220.18L56.69,-200.84ZM28.44,-212.79L18.77,-213.56L11.39,-243.33L33.78,-280.48L65.07,-307.21L84.41,-305.68L92.56,-285.58L91.80,-275.91L59.74,-239.52ZM285.20,-260.67L286.72,-280.01L278.58,-300.11L240.66,-312.83L190.02,-287.63L156.44,-231.90L163.06,-192.45L181.64,-181.26L200.98,-179.74L221.08,-187.88L262.81,-223.51L253.90,-233.95L212.18,-198.31L192.84,-199.84L185.45,-229.61L207.84,-266.77L239.14,-293.49L258.48,-291.97L256.19,-262.96L236.09,-254.81L207.08,-257.10L206.32,-247.43L254.67,-243.62ZM284.44,-251.00L293.35,-240.57L345.51,-285.11L355.18,-284.35L288.77,-182.55L297.68,-172.12L317.02,-170.59L361.80,-244.90L393.09,-271.63L413.20,-279.77L422.10,-269.34L366.90,-186.12L366.13,-176.45L375.04,-166.02L394.38,-164.50L414.48,-172.64L466.64,-217.18L457.74,-227.61L405.58,-183.07L395.91,-183.84L450.35,-257.39L452.64,-286.40L424.39,-298.35L394.62,-290.97L363.32,-264.24L374.52,-282.82L375.28,-292.49L366.37,-302.92L336.60,-295.54ZM564.87,-228.90L564.11,-219.23L718.83,-207.04L719.59,-216.71ZM-765.15,-205.27L-747.33,-184.41L-807.88,-33.50L-828.74,-15.68L-732.04,-8.06L-682.16,-23.59L-650.11,-59.99L-656.73,-99.43L-684.98,-111.39L-664.87,-119.53L-633.58,-146.26L-640.20,-185.70L-687.79,-199.18ZM-778.87,-31.21L-718.32,-182.12L-707.89,-191.03L-688.55,-189.51L-669.97,-178.31L-672.26,-149.30L-693.88,-121.82L-723.66,-114.43L-743.00,-115.96L-743.76,-106.29L-714.75,-104.00L-696.17,-92.81L-688.79,-63.04L-710.41,-35.55L-750.62,-19.26L-769.96,-20.78ZM-456.71,-44.75L-465.61,-55.18L-517.77,-10.64L-527.44,-11.40L-461.80,-103.53L-470.71,-113.96L-490.05,-115.48L-534.07,-50.84L-575.79,-15.21L-585.46,-15.97L-593.61,-36.07L-539.16,-109.62L-538.40,-119.29L-556.98,-130.49L-586.75,-123.11L-638.91,-78.57L-630.00,-68.13L-577.84,-112.67L-568.17,-111.91L-622.62,-38.36L-615.24,-8.59L-596.66,2.61L-577.32,4.13L-546.02,-22.59L-547.55,-3.25L-538.64,7.18L-528.97,7.94L-508.87,-0.21ZM-342.72,-133.06L-333.05,-132.30L-321.85,-150.88L-321.09,-160.55L-339.67,-171.74L-349.34,-172.51L-360.53,-153.93L-361.29,-144.26ZM-455.18,-64.09L-446.27,-53.65L-394.11,-98.19L-384.44,-97.43L-450.08,-5.30L-450.85,4.37L-441.94,14.80L-422.60,16.32L-402.50,8.18L-350.34,-36.36L-359.24,-46.80L-411.40,-2.26L-421.07,-3.02L-355.43,-95.15L-354.67,-104.82L-373.25,-116.01L-403.02,-108.63ZM-324.37,4.60L-222.87,-172.27L-290.56,-177.60L-291.32,-167.93L-262.31,-165.65L-353.38,2.32L-354.15,11.99L-335.57,23.18L-305.80,15.80L-253.64,-28.74L-262.54,-39.18L-314.70,5.36ZM-161.51,36.90L-151.84,37.66L-131.74,29.51L-79.58,-15.03L-88.48,-25.46L-140.64,19.08L-150.31,18.32L-48.81,-158.55L-116.50,-163.89L-117.26,-154.22L-88.25,-151.93L-124.12,-67.19L-132.26,-87.29L-170.18,-100.01L-221.58,-65.14L-244.73,-18.31L-238.11,21.13L-219.53,32.32L-200.19,33.85L-168.89,7.12L-170.42,26.46ZM-198.66,14.51L-208.33,13.75L-215.72,-16.03L-193.33,-53.18L-162.03,-79.91L-142.69,-78.38L-134.55,-58.28L-135.31,-48.61L-167.37,-12.22ZM152.51,3.26L142.84,2.50L110.01,48.56L51.99,43.99L43.09,33.56L67.76,-32.61L78.19,-41.52L116.87,-38.47L134.69,-17.60L138.50,-65.95L117.64,-48.14L78.96,-51.19L79.72,-60.86L103.63,-117.35L114.06,-126.26L162.41,-122.45L188.37,-81.48L198.04,-80.72L192.95,-139.50L153.50,-132.88L56.80,-140.50L74.62,-119.64L14.08,31.27L-16.46,48.33L118.92,58.99L137.50,70.19ZM331.90,-50.71L322.99,-61.15L301.37,-33.66L293.22,-53.76L255.30,-66.48L203.90,-31.61L180.75,15.22L187.38,54.66L205.95,65.85L225.29,67.38L256.59,40.65L255.07,59.99L263.97,70.43L293.75,63.04L345.91,18.50L337.00,8.07L284.84,52.61L275.17,51.85ZM226.82,48.04L217.15,47.27L209.76,17.50L232.15,-19.65L263.45,-46.38L282.79,-44.85L290.93,-24.75L290.17,-15.08L258.11,21.31ZM347.43,-0.84L356.34,9.59L408.50,-34.95L418.17,-34.18L351.77,67.61L360.67,78.05L380.01,79.57L424.79,5.26L455.32,-11.80L484.33,-9.51L496.29,-37.76L477.71,-48.95L457.61,-40.81L425.55,-4.41L415.88,-5.17L437.51,-32.66L438.27,-42.33L429.36,-52.76L399.59,-45.38ZM497.58,69.37L553.55,-23.52L582.56,-21.23L583.32,-30.90L554.31,-33.19L576.70,-70.34L557.36,-71.87L545.40,-43.62L525.30,-35.47L505.96,-37.00L505.20,-27.33L524.54,-25.80L468.57,67.09L467.81,76.76L476.71,87.19L496.05,88.71L516.16,80.57L568.32,36.03L559.41,25.60L507.25,70.14ZM656.34,-93.26L610.04,0.40L554.84,83.62L563.74,94.05L583.08,95.57L627.86,21.26L659.16,-5.46L679.26,-13.61L688.17,-3.18L632.96,80.04L632.20,89.71L641.10,100.14L660.44,101.67L680.55,93.52L732.71,48.98L723.80,38.55L671.64,83.09L661.97,82.33L716.41,8.78L718.70,-20.23L690.45,-32.19L660.68,-24.80L639.82,-6.99L695.79,-99.88L628.10,-105.21L627.33,-95.54Z" fill="#ffffff" stroke="#000000"/>
    <path d="M-794.44,-467.80L-777.36,-446.69L-841.17,-298.96L-862.27,-281.87L-766.80,-271.83L-717.06,-285.90L-684.39,-321.07L-689.92,-360.27L-717.56,-372.83L-697.46,-380.37L-665.80,-405.99L-671.33,-445.19L-718.06,-459.76ZM-812.53,-295.95L-748.72,-443.68L-738.16,-452.22L-719.07,-450.21L-700.98,-438.65L-703.99,-410.01L-726.10,-383.38L-755.75,-376.85L-774.84,-378.86L-775.85,-369.31L-747.21,-366.30L-729.12,-354.74L-722.58,-325.09L-744.69,-298.46L-784.89,-283.38L-803.99,-285.39ZM-515.06,-370.82L-523.60,-381.38L-545.71,-354.74L-553.25,-374.84L-590.43,-388.41L-642.19,-355.24L-666.31,-309.52L-660.78,-270.32L-642.69,-258.77L-623.59,-256.76L-591.94,-282.38L-593.95,-263.29L-585.40,-252.74L-555.76,-259.27L-503.00,-301.98L-511.54,-312.53L-564.30,-269.82L-573.85,-270.83ZM-621.58,-275.85L-631.13,-276.86L-637.66,-306.50L-614.55,-342.68L-582.89,-368.31L-563.80,-366.30L-556.26,-346.20L-557.27,-336.65L-589.93,-301.48ZM-321.60,-282.89L-330.14,-293.44L-382.90,-250.73L-392.45,-251.74L-325.12,-341.18L-333.66,-351.73L-352.75,-353.74L-397.98,-290.93L-440.18,-256.76L-449.73,-257.77L-457.27,-277.86L-401.50,-349.22L-400.49,-358.77L-418.58,-370.32L-448.23,-363.79L-500.99,-321.08L-492.44,-310.53L-439.68,-353.24L-430.14,-352.23L-485.91,-280.88L-479.38,-251.23L-461.29,-239.68L-442.19,-237.67L-410.54,-263.29L-412.55,-244.20L-404.01,-233.65L-394.46,-232.64L-374.36,-240.18ZM-168.84,-266.82L-178.39,-267.82L-212.05,-223.10L-269.34,-229.13L-277.88,-239.68L-251.75,-304.50L-241.20,-313.04L-203.01,-309.02L-185.93,-287.92L-180.90,-335.66L-202.01,-318.57L-240.20,-322.59L-239.19,-332.14L-214.07,-387.41L-203.52,-395.95L-155.78,-390.93L-131.16,-349.73L-121.61,-348.72L-125.13,-407.01L-164.32,-401.48L-259.80,-411.53L-242.71,-390.43L-306.52,-242.69L-337.17,-226.61L-203.51,-212.55L-185.42,-200.99ZM-147.74,-283.90L-139.20,-273.35L-86.44,-316.06L-76.89,-315.06L-145.22,-216.07L-136.68,-205.51L-117.59,-203.50L-71.36,-275.86L-40.71,-291.94L-12.07,-288.93L0.49,-316.57L-17.59,-328.12L-37.69,-320.59L-70.35,-285.41L-79.90,-286.42L-57.79,-313.05L-56.79,-322.60L-65.33,-333.15L-94.98,-326.61ZM63.81,-184.41L73.36,-183.41L93.46,-190.95L146.22,-233.66L137.68,-244.21L84.92,-201.50L75.37,-202.50L180.38,-374.86L113.55,-381.89L112.55,-372.35L141.19,-369.33L103.51,-286.42L95.97,-306.52L58.78,-320.09L7.03,-286.92L-17.09,-241.19L-11.56,-202.00L6.53,-190.44L25.62,-188.43L57.28,-214.06L55.27,-194.97ZM27.63,-207.53L18.08,-208.53L11.55,-238.18L34.67,-274.36L66.32,-299.99L85.42,-297.98L92.95,-277.88L91.95,-268.33L59.29,-233.16ZM282.89,-248.24L284.90,-267.33L277.37,-287.43L240.18,-301.00L189.43,-277.38L154.76,-223.11L160.29,-183.91L178.38,-172.36L197.47,-170.35L217.57,-177.89L259.78,-212.06L251.24,-222.61L209.03,-188.44L189.94,-190.45L183.40,-220.09L206.52,-256.27L238.17,-281.90L257.27,-279.89L254.25,-251.25L234.15,-243.71L205.51,-246.73L204.51,-237.18L252.24,-232.15ZM281.89,-238.69L290.43,-228.14L343.19,-270.85L352.74,-269.84L284.40,-170.85L292.95,-160.30L312.04,-158.29L358.27,-230.65L389.92,-256.28L410.02,-263.82L418.57,-253.26L361.79,-172.36L360.78,-162.81L369.32,-152.26L388.42,-150.25L408.52,-157.79L461.28,-200.50L452.74,-211.06L399.98,-168.34L390.43,-169.35L446.20,-240.70L449.22,-269.34L421.58,-281.91L391.93,-275.37L360.28,-249.74L371.83,-267.83L372.84,-277.38L364.30,-287.93L334.65,-281.40ZM558.76,-209.55L557.76,-200.00L710.51,-183.93L711.52,-193.47ZM-757.71,-220.67L-740.62,-199.57L-804.43,-51.84L-825.54,-34.75L-730.06,-24.70L-680.32,-38.78L-647.66,-73.95L-653.19,-113.14L-680.82,-125.71L-660.72,-133.24L-629.07,-158.87L-634.60,-198.07L-681.33,-212.64ZM-775.79,-48.82L-711.98,-196.56L-701.43,-205.10L-682.33,-203.09L-664.24,-191.53L-667.26,-162.89L-689.37,-136.26L-719.01,-129.73L-738.11,-131.73L-739.11,-122.19L-710.47,-119.17L-692.38,-107.62L-685.85,-77.97L-707.96,-51.34L-748.15,-36.26L-767.25,-38.27ZM-456.71,-53.86L-465.25,-64.41L-518.01,-21.70L-527.56,-22.70L-460.23,-112.14L-468.77,-122.70L-487.87,-124.71L-533.09,-61.89L-575.30,-27.72L-584.85,-28.73L-592.38,-48.83L-536.61,-120.18L-535.60,-129.73L-553.69,-141.29L-583.34,-134.75L-636.10,-92.04L-627.56,-81.49L-574.80,-124.20L-565.25,-123.20L-621.02,-51.84L-614.49,-22.20L-596.40,-10.64L-577.31,-8.63L-545.65,-34.26L-547.66,-15.16L-539.12,-4.61L-529.57,-3.61L-509.47,-11.14ZM-341.64,-138.28L-332.10,-137.27L-320.54,-155.36L-319.54,-164.91L-337.63,-176.47L-347.17,-177.47L-358.73,-159.38L-359.73,-149.83ZM-454.70,-72.95L-446.16,-62.40L-393.40,-105.11L-383.85,-104.11L-451.18,-14.66L-452.19,-5.11L-443.65,5.44L-424.55,7.45L-404.45,-0.09L-351.69,-42.80L-360.23,-53.36L-412.99,-10.64L-422.54,-11.65L-355.21,-101.09L-354.21,-110.64L-372.30,-122.20L-401.94,-115.66ZM-327.07,-1.60L-222.05,-173.96L-288.88,-180.99L-289.89,-171.44L-261.25,-168.43L-355.71,-4.61L-356.72,4.93L-338.63,16.49L-308.98,9.96L-256.22,-32.76L-264.76,-43.31L-317.52,-0.60ZM-166.77,34.58L-157.23,35.58L-137.13,28.04L-84.37,-14.67L-92.91,-25.22L-145.67,17.49L-155.22,16.49L-50.20,-155.87L-117.03,-162.90L-118.04,-153.36L-89.40,-150.34L-127.08,-67.43L-134.62,-87.53L-171.80,-101.10L-223.56,-67.93L-247.68,-22.20L-242.15,16.99L-224.06,28.55L-204.96,30.56L-173.31,4.93L-175.32,24.02ZM-202.95,11.46L-212.50,10.46L-219.03,-19.19L-195.92,-55.37L-164.26,-81.00L-145.17,-78.99L-137.63,-58.89L-138.64,-49.34L-171.30,-14.17ZM144.77,9.44L135.22,8.44L101.55,53.16L44.27,47.13L35.73,36.58L61.86,-28.24L72.41,-36.78L110.60,-32.76L127.68,-11.66L132.71,-59.40L111.60,-42.31L73.41,-46.33L74.42,-55.88L99.54,-111.15L110.09,-119.70L157.83,-114.67L182.45,-73.47L192.00,-72.46L188.48,-130.75L149.29,-125.22L53.81,-135.27L70.90,-114.17L7.09,33.57L-23.57,49.65L110.10,63.71L128.19,75.27ZM323.65,-39.30L315.11,-49.85L293.00,-23.22L285.46,-43.32L248.28,-56.89L196.52,-23.72L172.40,22.00L177.93,61.20L196.02,72.76L215.12,74.76L246.77,49.14L244.76,68.23L253.31,78.78L282.95,72.25L335.71,29.54L327.17,18.99L274.41,61.70L264.86,60.69ZM217.13,55.67L207.58,54.67L201.05,25.02L224.16,-11.16L255.82,-36.79L274.91,-34.78L282.45,-14.68L281.44,-5.13L248.78,30.04ZM337.72,10.44L346.26,21.00L399.02,-21.72L408.57,-20.71L340.24,78.28L348.78,88.83L367.87,90.84L414.10,18.48L444.75,2.40L473.39,5.42L485.95,-22.22L467.86,-33.78L447.77,-26.24L415.10,8.93L405.56,7.93L427.67,-18.70L428.67,-28.25L420.13,-38.80L390.48,-32.27ZM484.45,83.80L542.23,-6.65L570.88,-3.63L571.88,-13.18L543.24,-16.19L566.35,-52.37L547.26,-54.38L534.70,-26.75L514.60,-19.21L495.50,-21.22L494.50,-11.67L513.59,-9.66L455.81,80.79L454.80,90.34L463.35,100.89L482.44,102.90L502.54,95.36L555.30,52.65L546.76,42.10L494.00,84.81ZM645.74,-72.98L597.51,18.48L540.73,99.38L549.27,109.93L568.37,111.94L614.59,39.58L646.25,13.95L666.35,6.42L674.89,16.97L618.11,97.87L617.11,107.42L625.65,117.97L644.74,119.98L664.84,112.44L717.60,69.73L709.06,59.18L656.30,101.89L646.75,100.88L702.53,29.53L705.54,0.89L677.90,-11.67L648.26,-5.14L627.15,11.94L684.94,-78.50L618.11,-85.54L617.10,-75.99Z" fill="#ffffff" stroke="#000000"/>
    <path d="M-779.79,-481.29L-763.43,-459.97L-830.39,-315.48L-851.71,-299.13L-757.53,-286.71L-707.95,-299.34L-674.73,-333.29L-679.18,-372.21L-706.20,-385.35L-686.12,-392.28L-654.14,-416.82L-658.59,-455.73L-704.44,-471.36ZM-802.14,-311.76L-735.18,-456.24L-724.52,-464.42L-705.68,-461.94L-688.09,-450.04L-691.81,-421.78L-714.37,-396.01L-743.87,-390.32L-762.71,-392.80L-763.95,-383.38L-735.69,-379.65L-718.10,-367.75L-712.40,-338.26L-734.96,-312.48L-775.12,-298.61L-793.96,-301.10ZM-505.92,-378.11L-514.10,-388.77L-536.66,-363.00L-543.60,-383.08L-580.03,-397.46L-632.09,-366.00L-657.13,-321.39L-652.68,-282.47L-635.09,-270.57L-616.25,-268.09L-584.27,-292.62L-586.75,-273.78L-578.57,-263.12L-549.08,-268.82L-495.78,-309.70L-503.95,-320.36L-557.25,-279.48L-566.67,-280.72ZM-613.77,-286.92L-623.18,-288.17L-628.88,-317.66L-605.07,-352.85L-573.09,-377.39L-554.26,-374.90L-547.32,-354.82L-548.56,-345.41L-581.79,-311.46ZM-316.83,-286.11L-325.00,-296.77L-378.30,-255.89L-387.72,-257.13L-318.79,-343.86L-326.97,-354.52L-345.81,-357.01L-392.17,-296.04L-434.81,-263.34L-444.23,-264.58L-451.17,-284.66L-394.14,-353.80L-392.90,-363.21L-410.50,-375.12L-439.99,-369.42L-493.29,-328.54L-485.12,-317.88L-431.82,-358.76L-422.40,-357.52L-479.42,-288.38L-473.73,-258.88L-456.13,-246.98L-437.30,-244.50L-405.32,-269.03L-407.80,-250.19L-399.62,-239.53L-390.20,-238.29L-370.13,-245.23ZM-166.13,-266.25L-175.55,-267.49L-210.01,-224.12L-266.52,-231.57L-274.70,-242.23L-247.17,-305.67L-236.51,-313.85L-198.84,-308.89L-182.48,-287.57L-176.27,-334.66L-197.60,-318.30L-235.27,-323.27L-234.03,-332.69L-207.74,-386.72L-197.08,-394.89L-149.99,-388.69L-126.70,-347.29L-117.28,-346.05L-119.25,-403.80L-158.17,-399.35L-252.35,-411.76L-236.00,-390.44L-302.95,-245.95L-333.69,-230.84L-201.83,-213.46L-184.24,-201.56ZM-144.81,-282.60L-136.63,-271.94L-83.33,-312.82L-73.91,-311.58L-144.08,-215.43L-135.90,-204.77L-117.07,-202.28L-69.46,-272.67L-38.72,-287.78L-10.47,-284.05L2.68,-311.07L-14.92,-322.97L-35.00,-316.03L-68.22,-282.09L-77.64,-283.33L-55.08,-309.10L-53.83,-318.52L-62.01,-329.18L-91.51,-323.48ZM61.88,-178.69L71.30,-177.45L91.38,-184.39L144.68,-225.27L136.51,-235.93L83.20,-195.05L73.79,-196.29L182.14,-364.07L116.21,-372.76L114.97,-363.34L143.23,-359.62L103.80,-278.57L96.86,-298.65L60.43,-313.04L8.37,-281.57L-16.67,-236.96L-12.22,-198.05L5.37,-186.14L24.21,-183.66L56.19,-208.19L53.71,-189.35ZM26.69,-202.50L17.28,-203.74L11.58,-233.24L35.38,-268.43L67.36,-292.96L86.20,-290.48L93.14,-270.40L91.90,-260.98L58.67,-227.03ZM280.27,-236.15L282.75,-254.98L275.81,-275.06L239.38,-289.45L188.56,-267.40L152.86,-214.61L157.31,-175.70L174.91,-163.80L193.74,-161.31L213.82,-168.25L256.46,-200.96L248.29,-211.62L205.65,-178.91L186.81,-181.39L181.11,-210.89L204.92,-246.08L236.90,-270.61L255.74,-268.13L252.01,-239.87L231.93,-232.94L203.68,-236.66L202.43,-227.24L249.53,-221.03ZM279.02,-226.73L287.20,-216.07L340.50,-256.95L349.92,-255.71L279.75,-159.56L287.93,-148.90L306.77,-146.41L354.37,-216.80L386.35,-241.33L406.43,-248.26L414.61,-237.60L356.34,-159.04L355.10,-149.62L363.28,-138.96L382.11,-136.48L402.19,-143.42L455.49,-184.30L447.32,-194.96L394.02,-154.08L384.60,-155.32L441.62,-224.46L445.35,-252.71L418.33,-265.86L388.84,-260.16L356.86,-235.63L368.76,-253.23L370.00,-262.65L361.82,-273.31L332.33,-267.61ZM552.16,-190.72L550.92,-181.30L701.62,-161.44L702.86,-170.86ZM-749.85,-235.87L-733.50,-214.55L-800.46,-70.06L-821.78,-53.71L-727.59,-41.29L-678.02,-53.92L-644.80,-87.87L-649.25,-126.79L-676.26,-139.93L-656.18,-146.87L-624.20,-171.40L-628.66,-210.31L-674.51,-225.94ZM-772.20,-66.34L-705.25,-210.83L-694.59,-219.00L-675.75,-216.52L-658.15,-204.62L-661.88,-176.36L-684.44,-150.59L-713.94,-144.90L-732.77,-147.38L-734.02,-137.96L-705.76,-134.24L-688.16,-122.34L-682.47,-92.84L-705.03,-67.07L-745.19,-53.20L-764.03,-55.68ZM-456.43,-63.04L-464.60,-73.70L-517.90,-32.82L-527.32,-34.06L-458.39,-120.79L-466.57,-131.45L-485.41,-133.94L-531.77,-72.97L-574.41,-40.27L-583.83,-41.51L-590.77,-61.59L-533.74,-130.73L-532.50,-140.15L-550.10,-152.05L-579.59,-146.35L-632.89,-105.47L-624.72,-94.81L-571.42,-135.69L-562.00,-134.45L-619.02,-65.31L-613.33,-35.81L-595.73,-23.91L-576.90,-21.43L-544.92,-45.96L-547.40,-27.12L-539.22,-16.46L-529.80,-15.22L-509.73,-22.16ZM-340.41,-143.57L-330.99,-142.33L-319.09,-159.92L-317.84,-169.34L-335.44,-181.24L-344.86,-182.49L-356.76,-164.89L-358.00,-155.47ZM-453.94,-81.88L-445.77,-71.22L-392.47,-112.10L-383.05,-110.86L-451.97,-24.13L-453.22,-14.71L-445.04,-4.05L-426.20,-1.56L-406.12,-8.50L-352.82,-49.38L-361.00,-60.04L-414.30,-19.16L-423.72,-20.40L-354.79,-107.14L-353.55,-116.56L-371.15,-128.46L-400.64,-122.76ZM-329.53,-7.99L-221.18,-175.76L-287.11,-184.45L-288.35,-175.04L-260.09,-171.31L-357.79,-11.71L-359.03,-2.29L-341.43,9.61L-311.94,3.92L-258.64,-36.97L-266.81,-47.63L-320.11,-6.74ZM-171.90,31.96L-162.48,33.20L-142.40,26.26L-89.10,-14.62L-97.28,-25.28L-150.58,15.60L-160.00,14.36L-51.64,-153.42L-117.57,-162.11L-118.81,-152.69L-90.56,-148.96L-129.99,-67.92L-136.92,-88.00L-173.36,-102.38L-225.41,-70.92L-250.46,-26.31L-246.01,12.61L-228.41,24.51L-209.58,26.99L-177.59,2.46L-180.08,21.30ZM-207.09,8.15L-216.51,6.91L-222.20,-22.58L-198.40,-57.77L-166.42,-82.31L-147.58,-79.82L-140.65,-59.74L-141.89,-50.33L-175.11,-16.38ZM136.94,15.18L127.52,13.94L93.06,57.30L36.55,49.85L28.37,39.19L55.90,-24.25L66.56,-32.43L104.23,-27.46L120.59,-6.14L126.79,-53.24L105.47,-36.88L67.80,-41.85L69.04,-51.27L95.33,-105.29L105.99,-113.47L153.08,-107.26L176.37,-65.86L185.79,-64.62L183.82,-122.38L144.90,-117.92L50.72,-130.34L67.07,-109.02L0.12,35.47L-30.62,50.58L101.24,67.96L118.83,79.87ZM315.17,-28.40L306.99,-39.06L284.43,-13.29L277.49,-33.37L241.06,-47.76L189.00,-16.29L163.95,28.32L168.41,67.24L186.00,79.14L204.84,81.62L236.82,57.09L234.34,75.93L242.51,86.59L272.01,80.89L325.31,40.01L317.13,29.35L263.83,70.23L254.42,68.99ZM207.32,62.78L197.90,61.54L192.21,32.05L216.01,-3.15L247.99,-27.68L266.83,-25.19L273.77,-5.11L272.52,4.30L239.30,38.25ZM327.79,21.17L335.97,31.83L389.27,-9.05L398.69,-7.81L328.52,88.34L336.70,99.00L355.54,101.49L403.14,31.10L433.88,15.99L462.14,19.72L475.28,-7.30L457.68,-19.20L437.61,-12.26L404.38,21.69L394.97,20.44L417.53,-5.33L418.77,-14.75L410.59,-25.41L381.09,-19.71ZM471.04,97.55L530.55,9.57L558.81,13.30L560.05,3.88L531.79,0.15L555.59,-35.04L536.76,-37.52L523.61,-10.51L503.54,-3.57L484.70,-6.06L483.46,3.36L502.29,5.85L442.79,93.82L441.54,103.24L449.72,113.90L468.56,116.38L488.64,109.45L541.94,68.56L533.76,57.90L480.46,98.79ZM634.67,-53.36L584.58,35.86L526.31,114.42L534.49,125.08L553.32,127.56L600.93,57.18L632.91,32.65L652.99,25.71L661.17,36.37L602.90,114.93L601.66,124.35L609.84,135.01L628.67,137.49L648.75,130.56L702.05,89.67L693.88,79.01L640.57,119.90L631.16,118.65L688.18,49.51L691.91,21.26L664.89,8.12L635.39,13.81L614.07,30.16L673.58,-57.81L607.65,-66.51L606.41,-57.09Z" fill="#ffffff" stroke="#000000"/>
    <path d="M-764.84,-494.38L-749.22,-472.87L-819.20,-331.69L-840.71,-316.06L-747.87,-301.34L-698.51,-312.55L-664.77,-345.27L-668.16,-383.87L-694.54,-397.57L-674.50,-403.91L-642.23,-427.35L-645.63,-465.96L-690.57,-482.60ZM-791.35,-327.27L-721.37,-468.45L-710.61,-476.26L-692.05,-473.32L-674.95,-461.09L-679.37,-433.24L-702.35,-408.33L-731.68,-403.46L-750.24,-406.41L-751.72,-397.12L-723.86,-392.71L-706.77,-380.48L-701.90,-351.15L-724.89,-326.25L-764.97,-313.57L-783.54,-316.51ZM-496.63,-385.22L-504.44,-395.98L-527.43,-371.07L-533.77,-391.11L-569.43,-406.29L-621.74,-376.51L-647.67,-333.04L-644.28,-294.43L-627.18,-282.20L-608.61,-279.25L-576.34,-302.69L-579.29,-284.12L-571.48,-273.37L-542.15,-278.23L-488.37,-317.29L-496.18,-328.05L-549.96,-288.99L-559.25,-290.46ZM-605.67,-297.82L-614.95,-299.30L-619.82,-328.62L-595.36,-362.81L-563.09,-386.25L-544.52,-383.30L-538.18,-363.26L-539.66,-353.98L-573.40,-321.26ZM-311.97,-289.32L-319.79,-300.07L-373.57,-261.01L-382.85,-262.49L-312.42,-346.49L-320.24,-357.25L-338.80,-360.19L-386.25,-301.09L-429.27,-269.85L-438.56,-271.32L-444.89,-291.36L-386.70,-358.27L-385.22,-367.56L-402.32,-379.78L-431.64,-374.92L-485.43,-335.86L-477.61,-325.10L-423.83,-364.16L-414.55,-362.69L-472.75,-295.78L-467.88,-266.45L-450.78,-254.23L-432.22,-251.28L-399.95,-274.72L-402.89,-256.15L-395.08,-245.39L-385.80,-243.92L-365.76,-250.26ZM-163.43,-265.76L-172.71,-267.23L-207.93,-225.23L-263.63,-234.06L-271.44,-244.82L-242.57,-306.86L-231.81,-314.67L-194.68,-308.78L-179.05,-287.27L-171.69,-333.69L-193.21,-318.07L-230.34,-323.96L-228.87,-333.24L-201.47,-386.00L-190.71,-393.81L-144.29,-386.45L-122.33,-344.90L-113.04,-343.43L-113.49,-400.60L-152.10,-397.21L-244.94,-411.93L-229.32,-390.42L-299.30,-249.24L-330.09,-235.08L-200.12,-214.47L-183.02,-202.24ZM-141.92,-281.38L-134.11,-270.63L-80.33,-309.68L-71.04,-308.21L-142.94,-214.92L-135.13,-204.17L-116.56,-201.22L-67.65,-269.60L-36.85,-283.75L-9.00,-279.34L4.70,-305.72L-12.39,-317.95L-32.43,-311.61L-66.17,-278.89L-75.46,-280.36L-52.47,-305.27L-51.00,-314.55L-58.81,-325.31L-88.14,-320.44ZM59.83,-173.25L69.12,-171.77L89.16,-178.11L142.94,-217.17L135.13,-227.93L81.35,-188.87L72.06,-190.34L183.59,-353.49L118.61,-363.79L117.13,-354.51L144.99,-350.09L103.88,-270.95L97.54,-290.99L61.88,-306.17L9.57,-276.39L-16.36,-232.92L-12.96,-194.31L4.13,-182.08L22.70,-179.14L54.97,-202.57L52.02,-184.00ZM25.64,-197.70L16.36,-199.18L11.49,-228.50L35.95,-262.69L68.22,-286.13L86.79,-283.18L93.13,-263.14L91.65,-253.86L57.91,-221.14ZM277.33,-224.41L280.28,-242.98L273.94,-263.02L238.27,-278.19L187.44,-257.70L150.75,-206.42L154.15,-167.81L171.24,-155.58L189.81,-152.63L209.85,-158.97L252.88,-190.22L245.06,-200.98L202.04,-169.73L183.47,-172.67L178.60,-202.00L203.06,-236.19L235.33,-259.62L253.90,-256.68L249.48,-228.83L229.44,-222.49L201.59,-226.91L200.12,-217.62L246.54,-210.26ZM275.86,-215.13L283.67,-204.37L337.45,-243.43L346.74,-241.96L274.84,-148.67L282.65,-137.91L301.22,-134.97L350.13,-203.35L382.40,-226.78L402.44,-233.12L410.25,-222.37L350.58,-146.17L349.11,-136.89L356.92,-126.13L375.49,-123.19L395.53,-129.53L449.31,-168.58L441.50,-179.34L387.72,-140.28L378.43,-141.75L436.63,-208.66L441.05,-236.52L414.67,-250.22L385.35,-245.35L353.08,-221.92L365.31,-239.01L366.78,-248.30L358.97,-259.05L329.64,-254.18ZM545.10,-172.43L543.62,-163.14L692.17,-139.59L693.64,-148.87ZM-741.60,-250.85L-725.98,-229.34L-795.96,-88.16L-817.47,-72.54L-724.63,-57.81L-675.26,-69.02L-641.52,-101.74L-644.92,-140.35L-671.30,-154.05L-651.26,-160.39L-618.99,-183.82L-622.38,-222.43L-667.33,-239.08ZM-768.10,-83.74L-698.13,-224.93L-687.37,-232.74L-668.80,-229.79L-651.71,-217.56L-656.12,-189.71L-679.11,-164.80L-708.43,-159.94L-727.00,-162.88L-728.47,-153.60L-700.62,-149.18L-683.53,-136.95L-678.66,-107.63L-701.64,-82.72L-741.72,-70.04L-760.29,-72.99ZM-455.84,-72.29L-463.65,-83.05L-517.44,-43.99L-526.72,-45.46L-456.29,-129.47L-464.10,-140.22L-482.67,-143.17L-530.12,-84.07L-573.14,-52.82L-582.42,-54.30L-588.76,-74.34L-530.56,-141.25L-529.09,-150.53L-546.19,-162.76L-575.51,-157.89L-629.29,-118.83L-621.48,-108.08L-567.70,-147.14L-558.42,-145.66L-616.62,-78.75L-611.75,-49.43L-594.65,-37.20L-576.08,-34.26L-543.82,-57.69L-546.76,-39.12L-538.95,-28.37L-529.67,-26.89L-509.62,-33.23ZM-339.00,-148.94L-329.71,-147.46L-317.48,-164.56L-316.01,-173.84L-333.11,-186.07L-342.39,-187.54L-354.62,-170.45L-356.09,-161.16ZM-452.90,-90.86L-445.09,-80.10L-391.31,-119.16L-382.02,-117.69L-452.45,-33.68L-453.92,-24.40L-446.11,-13.64L-427.54,-10.70L-407.50,-17.04L-353.72,-56.10L-361.53,-66.85L-415.31,-27.79L-424.60,-29.27L-354.17,-113.27L-352.70,-122.56L-369.79,-134.79L-399.12,-129.92ZM-331.76,-14.54L-220.23,-177.69L-285.21,-187.99L-286.69,-178.71L-258.83,-174.29L-359.61,-18.96L-361.08,-9.68L-343.99,2.55L-314.66,-2.31L-260.88,-41.37L-268.69,-52.13L-322.47,-13.07ZM-176.87,29.05L-167.59,30.53L-147.55,24.19L-93.77,-14.87L-101.58,-25.63L-155.36,13.43L-164.65,11.96L-53.12,-151.19L-118.10,-161.49L-119.58,-152.21L-91.72,-147.79L-132.83,-68.65L-139.17,-88.69L-174.83,-103.87L-227.14,-74.09L-253.07,-30.62L-249.67,7.99L-232.58,20.22L-214.01,23.17L-181.74,-0.27L-184.69,18.30ZM-211.07,4.60L-220.35,3.12L-225.22,-26.20L-200.76,-60.39L-168.49,-83.83L-149.92,-80.88L-143.58,-60.84L-145.05,-51.56L-178.80,-18.84ZM129.05,20.47L119.76,18.99L84.55,61.00L28.85,52.16L21.03,41.41L49.91,-20.64L60.66,-28.45L97.80,-22.56L113.42,-1.05L120.79,-47.47L99.27,-31.84L62.14,-37.73L63.61,-47.02L91.01,-99.78L101.77,-107.59L148.19,-100.23L170.15,-58.67L179.43,-57.20L178.98,-114.38L140.38,-110.98L47.54,-125.71L63.16,-104.19L-6.82,36.99L-37.61,51.14L92.36,71.75L109.46,83.98ZM306.47,-18.02L298.65,-28.78L275.67,-3.87L269.33,-23.91L233.67,-39.08L181.36,-9.31L155.43,34.17L158.82,72.77L175.92,85.00L194.49,87.95L226.75,64.51L223.81,83.08L231.62,93.84L260.95,88.97L314.73,49.91L306.92,39.16L253.13,78.21L243.85,76.74ZM197.43,69.38L188.15,67.91L183.28,38.58L207.74,4.39L240.01,-19.04L258.57,-16.10L264.91,3.94L263.44,13.23L229.70,45.95ZM317.67,31.34L325.48,42.10L379.26,3.04L388.55,4.51L316.65,97.80L324.46,108.56L343.03,111.51L391.94,43.12L422.74,28.97L450.59,33.39L464.29,7.01L447.20,-5.22L427.16,1.12L393.42,33.84L384.13,32.37L407.12,7.46L408.59,-1.82L400.78,-12.58L371.45,-7.71ZM457.38,110.61L518.52,25.13L546.38,29.54L547.85,20.26L520.00,15.84L544.45,-18.35L525.89,-21.29L512.19,5.09L492.14,11.43L473.58,8.48L472.10,17.77L490.67,20.71L429.53,106.19L428.06,115.47L435.87,126.23L454.44,129.17L474.48,122.83L528.26,83.78L520.45,73.02L466.67,112.08ZM623.14,-34.42L571.28,52.53L511.61,128.72L519.42,139.48L537.99,142.42L586.91,74.04L619.18,50.61L639.22,44.27L647.03,55.02L587.36,131.22L585.88,140.50L593.70,151.26L612.26,154.20L632.30,147.86L686.09,108.81L678.27,98.05L624.49,137.11L615.21,135.64L673.41,68.73L677.82,40.87L651.44,27.17L622.12,32.04L600.61,47.66L661.75,-37.82L596.76,-48.12L595.29,-38.84Z" fill="#ffffff" stroke="#000000"/>
    <path d="M-749.62,-507.06L-734.73,-485.38L-807.60,-347.56L-829.28,-332.67L-737.84,-315.70L-688.73,-325.50L-654.51,-356.99L-656.87,-395.26L-682.60,-409.50L-662.62,-415.25L-630.09,-437.59L-632.45,-475.86L-676.47,-493.49ZM-780.17,-342.47L-707.30,-480.29L-696.46,-487.74L-678.17,-484.34L-661.58,-471.81L-666.67,-444.37L-690.05,-420.34L-719.18,-416.28L-737.46,-419.68L-739.16,-410.53L-711.73,-405.44L-695.14,-392.90L-691.09,-363.78L-714.46,-339.74L-754.43,-328.24L-772.72,-331.63ZM-487.19,-392.15L-494.63,-402.99L-518.01,-378.95L-523.76,-398.94L-558.64,-414.87L-611.15,-386.78L-637.92,-344.45L-635.56,-306.18L-618.97,-293.64L-600.68,-290.25L-568.16,-312.59L-571.56,-294.30L-564.11,-283.46L-534.98,-287.51L-480.78,-324.75L-488.22,-335.59L-542.43,-298.35L-551.57,-300.05ZM-597.29,-308.53L-606.43,-310.23L-610.49,-339.36L-585.41,-372.54L-552.89,-394.88L-534.60,-391.49L-528.85,-371.50L-530.55,-362.36L-564.77,-330.88ZM-307.04,-292.51L-314.49,-303.35L-368.69,-266.11L-377.84,-267.81L-306.00,-349.07L-313.45,-359.91L-331.74,-363.30L-380.19,-306.08L-423.56,-276.29L-432.70,-277.99L-438.45,-297.97L-379.16,-362.64L-377.46,-371.78L-394.05,-384.32L-423.18,-380.27L-477.38,-343.03L-469.94,-332.19L-415.73,-369.43L-406.59,-367.73L-465.88,-303.06L-461.83,-273.94L-445.24,-261.40L-426.95,-258.00L-394.43,-280.35L-397.82,-262.06L-390.38,-251.22L-381.23,-249.52L-361.25,-255.27ZM-160.74,-265.35L-169.88,-267.05L-205.80,-226.42L-260.66,-236.60L-268.11,-247.44L-237.94,-308.06L-227.10,-315.51L-190.53,-308.72L-175.63,-287.04L-167.15,-332.76L-188.83,-317.86L-225.41,-324.65L-223.71,-333.79L-195.24,-385.26L-184.40,-392.71L-138.68,-384.22L-118.04,-342.56L-108.89,-340.86L-107.86,-397.42L-146.13,-395.07L-237.57,-412.03L-222.67,-390.35L-295.54,-252.54L-326.37,-239.34L-198.35,-215.58L-181.76,-203.04ZM-139.06,-280.25L-131.61,-269.41L-77.41,-306.64L-68.26,-304.95L-141.79,-214.54L-134.35,-203.70L-116.06,-200.31L-65.91,-266.67L-35.08,-279.87L-7.65,-274.78L6.58,-300.51L-10.01,-313.05L-29.99,-307.30L-64.21,-275.82L-73.35,-277.51L-49.98,-301.55L-48.28,-310.70L-55.73,-321.54L-84.85,-317.48ZM57.67,-168.07L66.82,-166.37L86.80,-172.12L141.01,-209.36L133.56,-220.20L79.36,-182.96L70.21,-184.66L184.75,-343.12L120.74,-355.00L119.04,-345.85L146.48,-340.76L103.77,-263.56L98.02,-283.54L63.14,-299.48L10.64,-271.39L-16.14,-229.06L-13.78,-190.79L2.81,-178.25L21.10,-174.86L53.62,-197.20L50.23,-178.91ZM24.49,-193.14L15.35,-194.84L11.30,-223.97L36.37,-257.15L68.89,-279.49L87.18,-276.10L92.93,-256.11L91.23,-246.97L57.02,-215.48ZM274.11,-213.03L277.51,-231.32L271.76,-251.30L236.88,-267.23L186.07,-248.29L148.45,-198.51L150.81,-160.24L167.40,-147.70L185.69,-144.31L205.67,-150.06L249.04,-179.85L241.59,-190.69L198.23,-160.90L179.94,-164.30L175.89,-193.42L200.96,-226.61L233.48,-248.95L251.77,-245.55L246.68,-218.12L226.70,-212.37L199.26,-217.46L197.57,-208.32L243.29,-199.83ZM272.42,-203.89L279.86,-193.05L334.07,-230.28L343.21,-228.58L269.68,-138.18L277.13,-127.34L295.42,-123.95L345.57,-190.31L378.09,-212.65L398.07,-218.40L405.52,-207.56L344.53,-133.75L342.83,-124.61L350.28,-113.77L368.57,-110.37L388.55,-116.12L442.76,-153.36L435.31,-164.20L381.10,-126.96L371.96,-128.66L431.26,-193.33L436.35,-220.76L410.61,-234.99L381.48,-230.94L348.96,-208.60L361.50,-225.19L363.19,-234.33L355.75,-245.17L326.62,-241.12ZM537.59,-154.68L535.89,-145.53L682.19,-118.38L683.89,-127.52ZM-732.95,-265.61L-718.06,-243.93L-790.93,-106.11L-812.61,-91.21L-721.17,-74.24L-672.06,-84.05L-637.84,-115.53L-640.19,-153.80L-665.93,-168.04L-645.94,-173.79L-613.42,-196.13L-615.78,-234.40L-659.80,-252.03ZM-763.50,-101.02L-690.63,-238.83L-679.78,-246.28L-661.50,-242.89L-644.91,-230.35L-650.00,-202.92L-673.37,-178.88L-702.50,-174.83L-720.79,-178.22L-722.49,-169.08L-695.06,-163.99L-678.47,-151.45L-674.41,-122.32L-697.79,-98.28L-737.76,-86.78L-756.05,-90.18ZM-454.96,-81.59L-462.41,-92.43L-516.61,-55.20L-525.75,-56.90L-453.92,-138.15L-461.37,-148.99L-479.66,-152.39L-528.11,-95.17L-571.47,-65.38L-580.62,-67.08L-586.37,-87.06L-527.07,-151.73L-525.38,-160.87L-541.97,-173.41L-571.10,-169.36L-625.30,-132.12L-617.85,-121.28L-563.65,-158.52L-554.50,-156.82L-613.80,-92.15L-609.75,-63.03L-593.16,-50.49L-574.87,-47.09L-542.35,-69.43L-545.74,-51.15L-538.29,-40.31L-529.15,-38.61L-509.16,-44.36ZM-337.41,-154.37L-328.26,-152.67L-315.73,-169.26L-314.03,-178.40L-330.62,-190.94L-339.76,-192.64L-352.30,-176.05L-354.00,-166.90ZM-451.57,-99.88L-444.12,-89.04L-389.91,-126.28L-380.77,-124.58L-452.60,-43.32L-454.30,-34.18L-446.85,-23.34L-428.57,-19.94L-408.58,-25.69L-354.38,-62.93L-361.82,-73.77L-416.03,-36.53L-425.17,-38.23L-353.34,-119.49L-351.64,-128.63L-368.23,-141.17L-397.36,-137.12ZM-333.73,-21.26L-219.20,-179.72L-283.20,-191.60L-284.90,-182.46L-257.47,-177.37L-361.16,-26.35L-362.86,-17.21L-346.27,-4.67L-317.14,-8.72L-262.94,-45.96L-270.39,-56.80L-324.59,-19.56ZM-181.68,25.87L-172.54,27.57L-152.55,21.82L-98.35,-15.41L-105.80,-26.25L-160.00,10.98L-169.14,9.28L-54.61,-149.18L-118.61,-161.06L-120.31,-151.91L-92.88,-146.82L-135.58,-69.62L-141.33,-89.60L-176.21,-105.53L-228.72,-77.44L-255.49,-35.12L-253.14,3.15L-236.54,15.69L-218.26,19.09L-185.73,-3.25L-189.13,15.03ZM-214.86,0.80L-224.01,-0.90L-228.06,-30.03L-202.98,-63.21L-170.46,-85.55L-152.17,-82.16L-146.42,-62.17L-148.12,-53.03L-182.34,-21.54ZM121.10,25.31L111.96,23.62L76.04,64.24L21.18,54.06L13.73,43.22L43.90,-17.39L54.74,-24.84L91.32,-18.05L106.21,3.63L114.70,-42.09L93.01,-27.19L56.44,-33.98L58.14,-43.13L86.60,-94.60L97.45,-102.04L143.16,-93.56L163.81,-51.89L172.95,-50.19L173.99,-106.76L135.72,-104.40L44.28,-121.37L59.17,-99.69L-13.70,38.13L-44.52,51.33L83.49,75.08L100.08,87.62ZM297.57,-8.15L290.13,-18.99L266.75,5.05L261.00,-14.94L226.12,-30.87L173.61,-2.78L146.84,39.55L149.20,77.82L165.79,90.36L184.07,93.75L216.60,71.41L213.20,89.70L220.65,100.54L249.78,96.49L303.98,59.25L296.54,48.41L242.33,85.64L233.19,83.95ZM187.47,75.46L178.32,73.77L174.27,44.64L199.35,11.46L231.87,-10.88L250.16,-7.49L255.91,12.49L254.21,21.64L219.99,53.12ZM307.38,40.96L314.82,51.80L369.03,14.57L378.17,16.27L304.64,106.67L312.09,117.51L330.38,120.90L380.53,54.54L411.35,41.34L438.78,46.43L453.02,20.70L436.43,8.16L416.44,13.91L382.22,45.39L373.08,43.70L396.46,19.66L398.16,10.52L390.71,-0.32L361.58,3.73ZM443.50,122.98L506.18,40.02L533.62,45.11L535.31,35.97L507.88,30.88L532.96,-2.30L514.67,-5.70L500.43,20.04L480.45,25.79L462.16,22.39L460.47,31.54L478.75,34.93L416.06,117.89L414.37,127.03L421.81,137.87L440.10,141.26L460.09,135.51L514.29,98.28L506.84,87.44L452.64,124.67ZM611.20,-16.16L557.65,68.49L496.66,142.30L504.11,153.14L522.40,156.54L572.55,90.17L605.07,67.83L625.06,62.08L632.50,72.92L571.51,146.73L569.81,155.88L577.26,166.72L595.55,170.11L615.53,164.36L669.74,127.13L662.29,116.29L608.09,153.52L598.94,151.82L658.24,87.16L663.33,59.73L637.59,45.49L608.46,49.55L586.78,64.44L649.47,-18.52L585.46,-30.39L583.77,-21.25Z" fill="#ffffff" stroke="#000000"/>
    <path d="M-734.13,-519.32L-719.97,-497.50L-795.60,-363.10L-817.43,-348.93L-727.45,-329.78L-678.62,-338.20L-643.97,-368.45L-645.30,-406.36L-670.38,-421.10L-650.47,-426.27L-617.73,-447.52L-619.07,-485.43L-662.15,-504.00ZM-768.61,-357.35L-692.97,-491.75L-682.06,-498.83L-664.06,-495.00L-647.98,-482.18L-653.73,-455.18L-677.47,-432.01L-706.38,-428.76L-724.38,-432.59L-726.29,-423.59L-699.30,-417.85L-683.21,-405.02L-679.96,-376.11L-703.70,-352.94L-743.53,-342.61L-761.52,-346.44ZM-477.59,-398.88L-484.67,-409.79L-508.41,-386.63L-513.58,-406.54L-547.66,-423.20L-600.31,-396.78L-627.89,-355.62L-626.55,-317.71L-610.47,-304.88L-592.47,-301.05L-559.73,-322.30L-563.56,-304.30L-556.48,-293.39L-527.56,-296.64L-473.00,-332.06L-480.08,-342.97L-534.65,-307.56L-543.65,-309.47ZM-588.64,-319.05L-597.64,-320.96L-600.89,-349.87L-575.23,-382.04L-542.49,-403.29L-524.49,-399.46L-519.33,-379.54L-521.24,-370.55L-555.90,-340.30ZM-302.03,-295.67L-309.11,-306.58L-363.68,-271.17L-372.68,-273.08L-299.53,-351.58L-306.62,-362.49L-324.61,-366.32L-374.01,-310.99L-417.67,-282.66L-426.67,-284.57L-431.83,-304.49L-371.52,-366.90L-369.61,-375.90L-385.69,-388.73L-414.60,-385.47L-469.17,-350.06L-462.08,-339.14L-407.51,-374.56L-398.52,-372.64L-458.83,-310.23L-455.58,-281.32L-439.50,-268.49L-421.50,-264.66L-388.76,-285.91L-392.59,-267.92L-385.50,-257.00L-376.51,-255.09L-356.59,-260.25ZM-158.05,-265.03L-167.05,-266.94L-203.62,-227.70L-257.61,-239.19L-264.69,-250.10L-233.29,-309.26L-222.38,-316.34L-186.38,-308.68L-172.22,-286.86L-162.64,-331.85L-184.47,-317.68L-220.46,-325.34L-218.55,-334.34L-189.06,-384.50L-178.15,-391.58L-133.15,-382.01L-113.82,-340.27L-104.82,-338.35L-102.33,-394.26L-140.24,-392.92L-230.22,-412.07L-216.05,-390.25L-291.69,-255.85L-322.52,-243.60L-196.54,-216.78L-180.46,-203.95ZM-136.22,-279.19L-129.14,-268.28L-74.57,-303.70L-65.57,-301.78L-140.63,-214.29L-133.55,-203.38L-115.55,-199.55L-64.24,-263.87L-33.41,-276.12L-6.42,-270.38L8.33,-295.46L-7.75,-308.29L-27.66,-303.12L-62.32,-272.87L-71.32,-274.79L-47.58,-297.95L-45.66,-306.95L-52.74,-317.86L-81.66,-314.61ZM55.42,-163.16L64.42,-161.24L84.33,-166.41L138.90,-201.83L131.81,-212.74L77.25,-177.32L68.25,-179.24L185.62,-332.97L122.63,-346.38L120.72,-337.38L147.71,-331.64L103.48,-256.40L98.31,-276.31L64.23,-292.97L11.58,-266.55L-15.99,-225.39L-14.65,-187.48L1.43,-174.65L19.43,-170.82L52.17,-192.07L48.34,-174.07ZM23.26,-188.82L14.26,-190.73L11.00,-219.64L36.66,-251.80L69.40,-273.05L87.40,-269.22L92.57,-249.31L90.65,-240.31L56.00,-210.07ZM270.62,-202.01L274.45,-220.01L269.28,-239.92L235.21,-256.58L184.47,-239.16L145.98,-190.91L147.32,-153.00L163.40,-140.18L181.40,-136.35L201.31,-141.51L244.96,-169.85L237.88,-180.76L194.23,-152.43L176.23,-156.26L172.98,-185.17L198.63,-217.33L231.37,-238.58L249.37,-234.75L243.63,-207.76L223.71,-202.59L196.72,-208.33L194.80,-199.33L239.80,-189.76ZM268.71,-193.01L275.79,-182.10L330.36,-217.51L339.36,-215.60L264.30,-128.11L271.38,-117.19L289.38,-113.36L340.69,-177.69L373.43,-198.94L393.35,-204.11L400.43,-193.19L338.20,-121.78L336.29,-112.79L343.37,-101.87L361.37,-98.04L381.28,-103.21L435.85,-138.63L428.76,-149.54L374.20,-114.12L365.20,-116.04L425.51,-178.45L431.26,-205.45L406.18,-220.19L377.27,-216.94L344.52,-195.69L357.35,-211.77L359.27,-220.77L352.19,-231.68L323.27,-228.43ZM529.66,-137.47L527.75,-128.47L671.72,-97.83L673.64,-106.83ZM-723.91,-280.11L-709.74,-258.29L-785.38,-123.89L-807.20,-109.72L-717.22,-90.57L-668.40,-98.99L-633.74,-129.24L-635.08,-167.15L-660.16,-181.89L-640.25,-187.06L-607.50,-208.31L-608.84,-246.22L-651.92,-264.79ZM-758.38,-118.14L-682.75,-252.54L-671.83,-259.62L-653.83,-255.79L-637.75,-242.97L-643.50,-215.97L-667.24,-192.81L-696.15,-189.55L-714.15,-193.38L-716.06,-184.38L-689.07,-178.64L-672.99,-165.81L-669.73,-136.90L-693.48,-113.73L-733.30,-103.40L-751.30,-107.23ZM-453.77,-90.93L-460.85,-101.85L-515.42,-66.43L-524.42,-68.35L-451.28,-146.84L-458.36,-157.75L-476.36,-161.58L-525.76,-106.26L-569.41,-77.92L-578.41,-79.84L-583.58,-99.75L-523.27,-162.16L-521.35,-171.16L-537.43,-183.99L-566.34,-180.74L-620.91,-145.32L-613.83,-134.41L-559.26,-169.82L-550.26,-167.91L-610.57,-105.50L-607.32,-76.59L-591.24,-63.76L-573.24,-59.93L-540.50,-81.18L-544.33,-63.18L-537.25,-52.27L-528.25,-50.35L-508.34,-55.52ZM-335.64,-159.85L-326.64,-157.94L-313.81,-174.02L-311.89,-183.02L-327.98,-195.85L-336.97,-197.76L-349.80,-181.68L-351.72,-172.68ZM-449.94,-108.93L-442.86,-98.02L-388.29,-133.43L-379.29,-131.52L-452.43,-53.03L-454.35,-44.03L-447.27,-33.11L-429.27,-29.28L-409.36,-34.45L-354.79,-69.87L-361.87,-80.78L-416.44,-45.37L-425.44,-47.28L-352.30,-125.77L-350.38,-134.77L-366.46,-147.60L-395.37,-144.35ZM-335.45,-28.13L-218.08,-181.86L-281.07,-195.27L-282.98,-186.27L-255.99,-180.52L-362.45,-33.87L-364.36,-24.88L-348.28,-12.05L-319.37,-15.30L-264.80,-50.72L-271.89,-61.63L-326.46,-26.21ZM-186.31,22.43L-177.31,24.34L-157.40,19.17L-102.83,-16.24L-109.91,-27.16L-164.48,8.26L-173.48,6.34L-56.11,-147.39L-119.10,-160.80L-121.01,-151.80L-94.02,-146.05L-138.25,-70.81L-143.42,-90.72L-177.49,-107.38L-230.15,-80.96L-257.72,-39.80L-256.38,-1.89L-240.30,10.94L-222.30,14.77L-189.56,-6.48L-193.39,11.51ZM-218.47,-3.23L-227.47,-5.15L-230.73,-34.06L-205.07,-66.22L-172.33,-87.47L-154.33,-83.64L-149.16,-63.73L-151.08,-54.73L-185.73,-24.48ZM113.13,29.72L104.13,27.81L67.56,67.05L13.57,55.56L6.49,44.65L37.89,-14.51L48.80,-21.59L84.80,-13.93L98.96,7.89L108.54,-37.10L86.71,-22.93L50.72,-30.59L52.63,-39.59L82.12,-89.75L93.04,-96.83L138.03,-87.26L157.36,-45.52L166.36,-43.60L168.85,-99.51L130.95,-98.17L40.96,-117.32L55.13,-95.50L-20.51,38.90L-51.33,51.15L74.64,77.97L90.73,90.80ZM288.51,1.21L281.43,-9.71L257.68,13.46L252.52,-6.45L218.44,-23.11L165.78,3.30L138.21,44.47L139.55,82.37L155.63,95.20L173.63,99.03L206.37,77.78L202.54,95.78L209.62,106.69L238.53,103.44L293.10,68.03L286.02,57.11L231.45,92.53L222.45,90.61ZM177.46,81.04L168.46,79.12L165.21,50.21L190.86,18.05L223.61,-3.20L241.60,0.63L246.77,20.54L244.85,29.54L210.20,59.79ZM296.93,50.03L304.01,60.94L358.58,25.53L367.58,27.44L292.52,114.93L299.61,125.85L317.60,129.68L368.92,65.35L399.74,53.10L426.74,58.84L441.48,33.76L425.40,20.94L405.49,26.10L370.83,56.35L361.83,54.44L385.58,31.27L387.49,22.27L380.41,11.36L351.50,14.61ZM429.41,134.66L493.56,54.25L520.55,60.00L522.47,51.00L495.47,45.26L521.13,13.09L503.13,9.26L488.39,34.34L468.48,39.51L450.48,35.68L448.57,44.68L466.56,48.51L402.42,128.92L400.50,137.92L407.59,148.83L425.58,152.66L445.50,147.49L500.06,112.08L492.98,101.16L438.41,136.58ZM598.86,1.42L543.72,83.74L481.49,155.15L488.57,166.07L506.57,169.90L557.89,105.57L590.63,84.32L610.54,79.15L617.62,90.07L555.39,161.48L553.48,170.47L560.56,181.39L578.56,185.22L598.47,180.05L653.04,144.63L645.95,133.72L591.39,169.14L582.39,167.22L642.70,104.81L648.45,77.81L623.37,63.07L594.46,66.32L572.63,80.49L636.77,0.08L573.78,-13.33L571.87,-4.33Z" fill="#ffffff" stroke="#000000"/>
    <path d="M-718.39,-531.16L-704.95,-509.21L-783.22,-378.28L-805.17,-364.83L-716.69,-343.56L-668.20,-350.62L-633.14,-379.64L-633.48,-417.15L-657.90,-432.38L-638.08,-436.98L-605.15,-457.14L-605.49,-494.66L-647.60,-514.14ZM-756.67,-371.89L-678.40,-502.83L-667.43,-509.55L-649.73,-505.29L-634.16,-492.19L-640.54,-465.65L-664.62,-443.36L-693.29,-440.89L-710.99,-445.14L-713.11,-436.30L-686.57,-429.92L-671.00,-416.81L-668.54,-388.14L-692.61,-365.85L-732.26,-356.67L-749.95,-360.92ZM-467.84,-405.41L-474.56,-416.39L-498.64,-394.10L-503.23,-413.92L-536.50,-431.28L-589.24,-406.52L-617.57,-366.53L-617.23,-329.01L-601.67,-315.91L-583.97,-311.66L-551.05,-331.82L-555.30,-314.13L-548.58,-303.15L-519.91,-305.62L-465.03,-339.22L-471.75,-350.20L-526.63,-316.59L-535.48,-318.72ZM-579.72,-329.35L-588.56,-331.48L-591.03,-360.15L-564.83,-391.29L-531.90,-411.45L-514.21,-407.20L-509.61,-387.38L-511.74,-378.53L-546.79,-349.52ZM-296.92,-298.81L-303.64,-309.78L-358.52,-276.18L-367.37,-278.31L-293.01,-354.02L-299.73,-365.00L-317.42,-369.25L-367.71,-315.82L-411.61,-288.94L-420.45,-291.07L-425.05,-310.89L-363.79,-371.04L-361.66,-379.89L-377.23,-392.99L-405.90,-390.52L-460.78,-356.92L-454.06,-345.94L-399.18,-379.55L-390.34,-377.42L-451.59,-317.27L-449.12,-288.60L-433.56,-275.50L-415.86,-271.25L-382.93,-291.41L-387.19,-273.71L-380.47,-262.74L-371.62,-260.61L-351.80,-265.20ZM-155.36,-264.78L-164.20,-266.90L-201.38,-229.05L-254.47,-241.81L-261.19,-252.78L-228.61,-310.46L-217.63,-317.18L-182.24,-308.68L-168.80,-286.73L-158.16,-330.97L-180.11,-317.52L-215.50,-326.03L-213.38,-334.88L-182.92,-383.71L-171.94,-390.43L-127.70,-379.80L-109.67,-338.03L-100.82,-335.90L-96.91,-391.11L-134.43,-390.77L-222.90,-412.04L-209.46,-390.09L-287.73,-259.16L-318.53,-247.85L-194.66,-218.07L-179.09,-204.97ZM-133.41,-278.22L-126.68,-267.24L-71.81,-300.85L-62.96,-298.72L-139.45,-214.16L-132.73,-203.18L-115.03,-198.93L-62.62,-261.20L-31.82,-272.52L-5.28,-266.14L9.95,-290.55L-5.62,-303.65L-25.44,-299.06L-60.49,-270.05L-69.34,-272.18L-45.27,-294.47L-43.14,-303.32L-49.86,-314.29L-78.53,-311.82ZM53.08,-158.51L61.93,-156.39L81.75,-160.98L136.63,-194.59L129.91,-205.56L75.03,-171.96L66.18,-174.08L186.23,-323.05L124.29,-337.94L122.16,-329.09L148.71,-322.71L103.02,-249.46L98.43,-269.28L65.16,-286.64L12.42,-261.88L-15.92,-221.90L-15.58,-184.38L-0.01,-171.28L17.69,-167.02L50.61,-187.18L46.36,-169.49ZM21.94,-184.72L13.10,-186.84L10.63,-215.52L36.83,-246.65L69.76,-266.82L87.45,-262.56L92.05,-242.74L89.92,-233.89L54.87,-204.88ZM266.88,-191.35L271.13,-209.05L266.54,-228.87L233.27,-246.23L182.65,-230.32L143.35,-183.61L143.69,-146.09L159.26,-132.99L176.95,-128.74L196.77,-133.33L240.67,-160.21L233.95,-171.19L190.05,-144.30L172.36,-148.56L169.89,-177.23L196.10,-208.37L229.02,-228.53L246.72,-224.28L240.33,-197.73L220.51,-193.14L193.97,-199.52L191.84,-190.67L236.08,-180.04ZM264.75,-182.50L271.47,-171.53L326.35,-205.13L335.19,-203.01L258.71,-118.44L265.43,-107.47L283.13,-103.21L335.53,-165.49L368.46,-185.65L388.28,-190.24L395.00,-179.27L331.62,-110.27L329.49,-101.42L336.21,-90.45L353.91,-86.20L373.73,-90.79L428.61,-124.39L421.89,-135.37L367.01,-101.76L358.16,-103.89L419.42,-164.04L425.80,-190.58L401.38,-205.81L372.71,-203.35L339.79,-183.18L352.89,-198.75L355.02,-207.60L348.30,-218.57L319.63,-216.11ZM521.34,-120.82L519.21,-111.97L660.78,-77.94L662.91,-86.79ZM-714.48,-294.36L-701.04,-272.41L-779.31,-141.48L-801.26,-128.04L-712.78,-106.77L-664.28,-113.83L-629.23,-142.84L-629.57,-180.36L-653.99,-195.59L-634.17,-200.18L-601.24,-220.35L-601.58,-257.86L-643.69,-277.35ZM-752.76,-135.10L-674.49,-266.03L-663.52,-272.75L-645.82,-268.50L-630.25,-255.40L-636.63,-228.85L-660.71,-206.56L-689.38,-204.10L-707.08,-208.35L-709.20,-199.50L-682.66,-193.12L-667.09,-180.02L-664.62,-151.35L-688.70,-129.06L-728.35,-119.87L-746.04,-124.13ZM-452.27,-100.30L-458.99,-111.28L-513.87,-77.67L-522.72,-79.80L-448.36,-155.52L-455.08,-166.49L-472.78,-170.75L-523.06,-117.32L-566.96,-90.43L-575.80,-92.56L-580.40,-112.38L-519.14,-172.53L-517.02,-181.38L-532.59,-194.48L-561.26,-192.02L-616.13,-158.41L-609.41,-147.44L-554.53,-181.04L-545.69,-178.91L-606.94,-118.76L-604.48,-90.09L-588.91,-76.99L-571.21,-72.74L-538.29,-92.90L-542.54,-75.21L-535.82,-64.23L-526.97,-62.10L-507.15,-66.70ZM-333.68,-165.38L-324.83,-163.26L-311.73,-178.83L-309.60,-187.67L-325.17,-200.78L-334.02,-202.90L-347.12,-187.33L-349.25,-178.49ZM-448.02,-118.00L-441.30,-107.02L-386.42,-140.63L-377.58,-138.50L-451.93,-62.78L-454.06,-53.93L-447.34,-42.96L-429.64,-38.71L-409.82,-43.30L-354.95,-76.90L-361.67,-87.88L-416.54,-54.27L-425.39,-56.40L-351.03,-132.12L-348.91,-140.97L-364.47,-154.07L-393.15,-151.60ZM-336.91,-35.13L-216.87,-184.10L-278.80,-198.99L-280.93,-190.14L-254.39,-183.76L-363.45,-41.51L-365.58,-32.66L-350.01,-19.56L-321.34,-22.03L-266.47,-55.63L-273.19,-66.61L-328.06,-33.00ZM-190.75,18.72L-181.90,20.85L-162.08,16.26L-107.20,-17.35L-113.93,-28.32L-168.80,5.28L-177.65,3.15L-57.60,-145.81L-119.54,-160.70L-121.67,-151.85L-95.12,-145.47L-140.81,-72.22L-145.40,-92.05L-178.67,-109.40L-231.42,-84.65L-259.75,-44.66L-259.41,-7.14L-243.84,5.96L-226.14,10.22L-193.22,-9.95L-197.47,7.75ZM-221.89,-7.48L-230.74,-9.61L-233.20,-38.28L-207.00,-69.42L-174.07,-89.58L-156.38,-85.32L-151.78,-65.50L-153.91,-56.65L-188.96,-27.64ZM105.15,33.70L96.30,31.57L59.12,69.43L6.03,56.67L-0.69,45.69L31.90,-11.99L42.87,-18.71L78.26,-10.20L91.70,11.75L102.34,-32.49L80.39,-19.05L45.00,-27.56L47.12,-36.40L77.58,-85.24L88.56,-91.96L132.80,-81.32L150.83,-39.55L159.68,-37.42L163.59,-92.64L126.08,-92.30L37.60,-113.57L51.04,-91.62L-27.23,39.31L-58.03,50.63L65.84,80.41L81.41,93.51ZM279.30,10.05L272.58,-0.92L248.50,21.37L243.91,1.54L210.64,-15.81L157.89,8.94L129.56,48.93L129.90,86.45L145.47,99.55L163.17,103.80L196.09,83.64L191.84,101.34L198.56,112.31L227.23,109.84L282.10,76.24L275.38,65.27L220.51,98.87L211.66,96.74ZM167.42,86.11L158.57,83.98L156.11,55.31L182.31,24.17L215.23,4.01L232.93,8.26L237.52,28.09L235.40,36.93L200.35,65.94ZM286.36,58.54L293.08,69.52L347.95,35.91L356.80,38.04L280.32,122.61L287.04,133.58L304.73,137.84L357.14,75.56L387.94,64.25L414.48,70.63L429.71,46.21L414.14,33.11L394.32,37.70L359.27,66.71L350.42,64.59L374.50,42.30L376.62,33.45L369.90,22.47L341.23,24.94ZM415.16,145.66L480.67,67.82L507.22,74.20L509.34,65.35L482.80,58.97L509.00,27.83L491.31,23.58L476.08,48.00L456.26,52.59L438.56,48.34L436.43,57.18L454.13,61.44L388.62,139.28L386.49,148.13L393.21,159.11L410.91,163.36L430.73,158.77L485.61,125.16L478.89,114.19L424.01,147.79ZM586.17,18.31L529.51,98.28L466.12,167.27L472.84,178.25L490.54,182.50L542.95,120.23L575.87,100.06L595.70,95.47L602.42,106.45L539.03,175.44L536.91,184.29L543.63,195.26L561.32,199.52L581.15,194.93L636.02,161.32L629.30,150.35L574.43,183.95L565.58,181.82L626.83,121.67L633.21,95.13L608.80,79.90L580.13,82.37L558.18,95.81L623.69,17.97L561.75,3.08L559.62,11.93Z" fill="#ffffff" stroke="#000000"/>
    <path d="M-702.40,-542.55L-689.68,-520.50L-770.45,-393.08L-792.50,-380.36L-705.58,-357.04L-657.45,-362.76L-622.04,-390.54L-621.41,-427.64L-645.15,-443.33L-625.44,-447.36L-592.36,-466.44L-591.73,-503.54L-632.86,-523.90ZM-744.38,-386.09L-663.60,-513.51L-652.57,-519.87L-635.19,-515.20L-620.14,-501.85L-627.13,-475.77L-651.51,-454.36L-679.92,-452.66L-697.31,-457.32L-699.64,-448.63L-673.56,-441.63L-658.51,-428.28L-656.82,-399.87L-681.20,-378.45L-720.63,-370.40L-738.02,-375.06ZM-457.95,-411.74L-464.31,-422.76L-488.69,-401.35L-492.72,-421.07L-525.15,-439.09L-577.95,-415.98L-606.99,-377.18L-607.63,-340.08L-592.58,-326.72L-575.19,-322.06L-542.12,-341.14L-546.78,-323.75L-540.42,-312.73L-512.01,-314.42L-456.89,-346.23L-463.25,-357.25L-518.37,-325.45L-527.06,-327.78ZM-570.53,-339.44L-579.22,-341.77L-580.91,-370.18L-554.20,-400.29L-521.13,-419.37L-503.74,-414.71L-499.71,-394.99L-502.04,-386.30L-537.45,-358.52ZM-291.73,-301.91L-298.09,-312.94L-353.21,-281.14L-361.90,-283.47L-286.43,-356.40L-292.79,-367.42L-310.17,-372.09L-361.27,-320.57L-405.37,-295.13L-414.06,-297.46L-418.09,-317.18L-355.97,-375.06L-353.63,-383.75L-368.69,-397.11L-397.10,-395.41L-452.22,-363.61L-445.86,-352.59L-390.74,-384.39L-382.04,-382.05L-444.17,-324.18L-442.47,-295.77L-427.42,-282.41L-410.03,-277.74L-376.96,-296.82L-381.62,-279.44L-375.26,-268.41L-366.57,-266.08L-346.85,-270.11ZM-152.65,-264.60L-161.34,-266.93L-199.08,-230.46L-251.23,-244.46L-257.59,-255.48L-223.88,-311.66L-212.86,-318.02L-178.09,-308.70L-165.37,-286.65L-153.71,-330.11L-175.76,-317.39L-210.53,-326.72L-208.19,-335.41L-176.81,-382.90L-165.79,-389.26L-122.33,-377.60L-105.58,-335.83L-96.89,-333.50L-91.59,-387.99L-128.69,-388.62L-215.61,-411.95L-202.89,-389.90L-283.67,-262.48L-314.41,-252.09L-192.72,-219.44L-177.67,-206.08ZM-130.60,-277.32L-124.24,-266.29L-69.11,-298.09L-60.42,-295.76L-138.23,-214.14L-131.87,-203.11L-114.49,-198.45L-61.06,-258.66L-30.31,-269.05L-4.24,-262.05L11.45,-285.80L-3.60,-299.15L-23.32,-295.12L-58.72,-267.35L-67.42,-269.68L-43.04,-291.10L-40.70,-299.79L-47.06,-310.81L-75.47,-309.12ZM50.67,-154.13L59.37,-151.80L79.08,-155.83L134.21,-187.63L127.85,-198.66L72.72,-166.85L64.03,-169.19L186.58,-313.35L125.73,-329.68L123.40,-320.99L149.47,-313.99L102.41,-242.76L98.38,-262.47L65.94,-280.49L13.15,-257.39L-15.90,-218.59L-16.53,-181.48L-1.48,-168.13L15.90,-163.46L48.98,-182.54L44.31,-165.16ZM20.57,-180.85L11.88,-183.18L10.18,-211.59L36.89,-241.70L69.97,-260.78L87.35,-256.11L91.38,-236.39L89.05,-227.70L53.64,-199.93ZM262.90,-181.06L267.56,-198.44L263.54,-218.16L231.10,-236.18L180.64,-221.76L140.57,-176.61L139.93,-139.50L154.98,-126.15L172.37,-121.48L192.09,-125.51L236.19,-150.95L229.83,-161.98L185.73,-136.53L168.34,-141.20L166.65,-169.61L193.36,-199.71L226.43,-218.80L243.82,-214.13L236.82,-188.05L217.11,-184.03L191.03,-191.02L188.70,-182.33L232.16,-170.67ZM260.57,-172.36L266.93,-161.34L322.05,-193.14L330.74,-190.81L252.93,-109.18L259.29,-98.16L276.68,-93.49L330.11,-153.71L363.18,-172.79L382.90,-176.81L389.26,-165.79L324.81,-99.22L322.47,-90.53L328.84,-79.50L346.22,-74.84L365.94,-78.86L421.06,-110.67L414.70,-121.69L359.58,-89.89L350.88,-92.22L413.01,-150.10L420.00,-176.18L396.26,-191.87L367.85,-190.17L334.77,-171.09L348.13,-186.14L350.46,-194.84L344.10,-205.86L315.69,-204.17ZM512.65,-104.73L510.32,-96.04L649.40,-58.72L651.73,-67.41ZM-704.67,-308.34L-691.95,-286.29L-772.73,-158.87L-794.78,-146.15L-707.85,-122.83L-659.72,-128.55L-624.32,-156.33L-623.68,-193.43L-647.43,-209.12L-627.71,-213.15L-594.63,-232.23L-594.00,-269.33L-635.13,-289.68ZM-746.65,-151.88L-665.87,-279.30L-654.84,-285.66L-637.46,-280.99L-622.41,-267.63L-629.40,-241.56L-653.79,-220.14L-682.20,-218.45L-699.58,-223.11L-701.91,-214.42L-675.84,-207.42L-660.78,-194.07L-659.09,-165.66L-683.47,-144.24L-722.90,-136.19L-740.29,-140.85ZM-450.47,-109.68L-456.83,-120.71L-511.95,-88.90L-520.64,-91.24L-445.16,-164.17L-451.52,-175.19L-468.91,-179.86L-520.01,-128.34L-564.11,-102.90L-572.80,-105.23L-576.83,-124.95L-514.70,-182.83L-512.37,-191.52L-527.43,-204.88L-555.84,-203.18L-610.96,-171.38L-604.60,-160.35L-549.47,-192.16L-540.78,-189.82L-602.90,-131.94L-601.21,-103.53L-586.15,-90.18L-568.77,-85.51L-535.70,-104.59L-540.36,-87.21L-534.00,-76.18L-525.31,-73.85L-505.59,-77.88ZM-331.52,-170.95L-322.83,-168.62L-309.47,-183.67L-307.14,-192.36L-322.20,-205.72L-330.89,-208.05L-344.25,-193.00L-346.58,-184.31ZM-445.80,-127.07L-439.44,-116.04L-384.32,-147.84L-375.62,-145.51L-451.10,-72.58L-453.43,-63.89L-447.07,-52.86L-429.69,-48.20L-409.97,-52.22L-354.85,-84.03L-361.21,-95.05L-416.33,-63.25L-425.02,-65.58L-349.55,-138.51L-347.21,-147.21L-362.27,-160.56L-390.68,-158.87ZM-338.10,-42.26L-215.55,-186.43L-276.40,-202.75L-278.73,-194.06L-252.65,-187.06L-364.18,-49.26L-366.51,-40.56L-351.46,-27.21L-323.05,-28.90L-267.92,-60.70L-274.28,-71.73L-329.41,-39.93ZM-194.99,14.77L-186.30,17.11L-166.58,13.08L-111.46,-18.72L-117.82,-29.75L-172.94,2.05L-181.63,-0.28L-59.09,-144.45L-119.93,-160.77L-122.27,-152.08L-96.19,-145.08L-143.26,-73.85L-147.29,-93.56L-179.72,-111.59L-232.51,-88.48L-261.56,-49.68L-262.20,-12.58L-247.15,0.78L-229.76,5.45L-196.69,-13.64L-201.35,3.75ZM-225.10,-11.94L-233.79,-14.27L-235.48,-42.68L-208.77,-72.79L-175.70,-91.87L-158.31,-87.20L-154.28,-67.49L-156.61,-58.79L-192.02,-31.02ZM97.17,37.25L88.47,34.92L50.73,71.39L-1.42,57.39L-7.78,46.37L25.93,-9.82L36.95,-16.18L71.72,-6.85L84.45,15.20L96.11,-28.26L74.06,-15.54L39.29,-24.87L41.62,-33.56L73.00,-81.05L84.02,-87.41L127.49,-75.75L144.23,-33.98L152.93,-31.65L158.23,-86.14L121.12,-86.78L34.20,-110.10L46.92,-88.05L-33.86,39.37L-64.60,49.76L57.09,82.41L72.15,95.77ZM269.96,18.39L263.60,7.36L239.22,28.77L235.19,9.06L202.75,-8.97L149.96,14.14L120.91,52.94L120.27,90.04L135.33,103.40L152.71,108.07L185.79,88.98L181.12,106.37L187.48,117.39L215.89,115.70L271.02,83.90L264.66,72.87L209.53,104.67L200.84,102.34ZM157.38,90.68L148.68,88.35L146.99,59.94L173.70,29.83L206.78,10.75L224.16,15.42L228.19,35.13L225.86,43.83L190.45,71.60ZM275.68,66.51L282.04,77.54L337.17,45.74L345.86,48.07L268.05,129.69L274.41,140.72L291.79,145.38L345.22,85.17L375.96,74.78L402.04,81.78L417.73,58.03L402.68,44.68L382.96,48.70L347.55,76.48L338.86,74.15L363.24,52.73L365.58,44.04L359.22,33.02L330.81,34.71ZM400.77,155.98L467.55,80.72L493.63,87.72L495.96,79.02L469.89,72.03L496.60,41.92L479.22,37.26L463.53,61.00L443.81,65.03L426.42,60.37L424.09,69.06L441.48,73.72L374.69,148.99L372.36,157.68L378.72,168.70L396.10,173.37L415.82,169.34L470.95,137.54L464.59,126.51L409.46,158.32ZM573.14,34.50L515.04,112.10L450.59,178.67L456.95,189.70L474.34,194.36L527.77,134.15L560.84,115.07L580.56,111.04L586.92,122.06L522.46,188.64L520.13,197.33L526.49,208.35L543.88,213.02L563.59,208.99L618.72,177.19L612.36,166.16L557.23,197.96L548.54,195.63L610.66,137.75L617.66,111.68L593.91,95.99L565.50,97.68L543.45,110.40L610.24,35.14L549.39,18.81L547.06,27.51Z" fill="#ffffff" stroke="#000000"/>
    <path d="M-903.88,492L-906.92,488.96L-902.36,482.88L-893.24,482.88L-891.72,484.40L-891.72,488.96L-894.76,492L-884.12,492L-887.16,488.96L-887.16,460.08L-891.72,463.12L-891.72,464.64L-909.96,488.96L-914.52,492ZM-891.72,467.68L-891.72,479.84L-893.24,481.36L-900.84,481.36L-899.32,478.32ZM-862.84,476.80L-864.36,481.36L-870.44,487.44L-875,488.96L-876.52,488.96L-867.40,475.28L-867.40,472.24L-870.44,470.72L-875,472.24L-882.60,479.84L-881.08,481.36L-873.48,473.76L-871.96,473.76L-881.08,488.96L-881.08,490.48L-879.56,492L-876.52,492L-868.92,488.96L-862.84,482.88L-859.80,476.80L-859.80,473.76L-861.32,472.24L-864.36,472.24L-865.88,475.28L-864.36,476.80ZM-835.48,472.24L-837,470.72L-840.04,475.28L-841.56,472.24L-847.64,470.72L-855.24,476.80L-858.28,484.40L-856.76,490.48L-853.72,492L-850.68,492L-846.12,487.44L-846.12,490.48L-844.60,492L-840.04,490.48L-832.44,482.88L-833.96,481.36L-841.56,488.96L-843.08,488.96ZM-850.68,488.96L-852.20,488.96L-853.72,484.40L-850.68,478.32L-846.12,473.76L-843.08,473.76L-841.56,476.80L-841.56,478.32L-846.12,484.40ZM-832.44,479.84L-830.92,481.36L-823.32,473.76L-821.80,473.76L-830.92,490.48L-829.40,492L-826.36,492L-820.28,479.84L-815.72,476.80L-811.16,476.80L-809.64,472.24L-812.68,470.72L-815.72,472.24L-820.28,478.32L-821.80,478.32L-818.76,473.76L-818.76,472.24L-820.28,470.72L-824.84,472.24ZM-788.36,472.24L-789.88,470.72L-792.92,475.28L-794.44,472.24L-800.52,470.72L-808.12,476.80L-811.16,484.40L-809.64,490.48L-806.60,492L-803.56,492L-799,487.44L-799,490.48L-797.48,492L-792.92,490.48L-785.32,482.88L-786.84,481.36L-794.44,488.96L-795.96,488.96ZM-803.56,488.96L-805.08,488.96L-806.60,484.40L-803.56,478.32L-799,473.76L-795.96,473.76L-794.44,476.80L-794.44,478.32L-799,484.40ZM-783.80,479.84L-783.80,482.88L-774.68,482.88L-774.68,479.84ZM-765.56,461.60L-762.52,464.64L-770.12,488.96L-773.16,492L-757.96,492L-750.36,488.96L-745.80,482.88L-747.32,476.80L-751.88,475.28L-748.84,473.76L-744.28,469.20L-745.80,463.12L-753.40,461.60ZM-765.56,488.96L-757.96,464.64L-756.44,463.12L-753.40,463.12L-750.36,464.64L-750.36,469.20L-753.40,473.76L-757.96,475.28L-761,475.28L-761,476.80L-756.44,476.80L-753.40,478.32L-751.88,482.88L-754.92,487.44L-761,490.48L-764.04,490.48ZM-736.68,492L-733.64,492L-726.04,487.44L-721.48,478.32L-724.52,472.24L-730.60,470.72L-738.20,475.28L-742.76,484.40L-739.72,490.48ZM-730.60,473.76L-727.56,473.76L-726.04,478.32L-729.08,484.40L-733.64,488.96L-736.68,488.96L-738.20,484.40L-735.16,478.32ZM-715.40,488.96L-701.72,460.08L-712.36,460.08L-712.36,461.60L-707.80,461.60L-719.96,488.96L-719.96,490.48L-716.92,492L-712.36,490.48L-704.76,482.88L-706.28,481.36L-713.88,488.96ZM-689.56,492L-688.04,492L-685,490.48L-677.40,482.88L-678.92,481.36L-686.52,488.96L-688.04,488.96L-674.36,460.08L-685,460.08L-685,461.60L-680.44,461.60L-685,475.28L-686.52,472.24L-692.60,470.72L-700.20,476.80L-703.24,484.40L-701.72,490.48L-698.68,492L-695.64,492L-691.08,487.44L-691.08,490.48ZM-695.64,488.96L-697.16,488.96L-698.68,484.40L-695.64,478.32L-691.08,473.76L-688.04,473.76L-686.52,476.80L-686.52,478.32L-691.08,484.40ZM-669.80,488.96L-662.20,464.64L-657.64,461.60L-669.80,461.60L-666.76,464.64L-674.36,488.96L-678.92,492L-666.76,492ZM-657.64,488.96L-650.04,473.76L-645.48,473.76L-645.48,472.24L-650.04,472.24L-647,466.16L-650.04,466.16L-651.56,470.72L-654.60,472.24L-657.64,472.24L-657.64,473.76L-654.60,473.76L-662.20,488.96L-662.20,490.48L-660.68,492L-657.64,492L-654.60,490.48L-647,482.88L-648.52,481.36L-656.12,488.96ZM-621.16,472.24L-622.68,470.72L-625.72,475.28L-627.24,472.24L-633.32,470.72L-640.92,476.80L-643.96,484.40L-642.44,490.48L-639.40,492L-636.36,492L-631.80,487.44L-631.80,490.48L-630.28,492L-625.72,490.48L-618.12,482.88L-619.64,481.36L-627.24,488.96L-628.76,488.96ZM-636.36,488.96L-637.88,488.96L-639.40,484.40L-636.36,478.32L-631.80,473.76L-628.76,473.76L-627.24,476.80L-627.24,478.32L-631.80,484.40ZM-613.56,488.96L-599.88,460.08L-610.52,460.08L-610.52,461.60L-605.96,461.60L-618.12,488.96L-618.12,490.48L-615.08,492L-610.52,490.48L-602.92,482.88L-604.44,481.36L-612.04,488.96ZM-586.20,467.68L-584.68,467.68L-583.16,464.64L-583.16,463.12L-586.20,461.60L-587.72,461.60L-589.24,464.64L-589.24,466.16ZM-602.92,479.84L-601.40,481.36L-593.80,473.76L-592.28,473.76L-601.40,488.96L-601.40,490.48L-599.88,492L-596.84,492L-593.80,490.48L-586.20,482.88L-587.72,481.36L-595.32,488.96L-596.84,488.96L-587.72,473.76L-587.72,472.24L-590.76,470.72L-595.32,472.24ZM-564.92,478.32L-564.92,475.28L-566.44,472.24L-572.52,470.72L-580.12,475.28L-584.68,484.40L-583.16,490.48L-580.12,492L-577.08,492L-574.04,490.48L-567.96,484.40L-569.48,482.88L-575.56,488.96L-578.60,488.96L-580.12,484.40L-577.08,478.32L-572.52,473.76L-569.48,473.76L-569.48,478.32Z"/>
</svg>