<?xml version="1.0"?>
<svg xmlns="http://www.w3.org/2000/svg" width="1920" height="1080" viewBox="-960 -540 1920 1080">
    <path d="M-396.25,-210L-396.25,-393.75L-372.50,-393.75C-356.50,-393.75 -344,-390.75 -335.75,-383C-327.50,-375.25 -323.25,-363.25 -323.25,-345C-323.25,-336.25 -324,-329.75 -326.75,-323.75C-329.50,-317.75 -333.75,-312.75 -340,-307C-333.25,-303.25 -328.25,-296.25 -324.25,-284.50C-322.25,-278.75 -321.25,-271.25 -321.25,-262C-321.25,-248.25 -323.75,-236 -330,-226.50C-336.25,-217 -347,-210.75 -363,-210ZM-369.25,-318C-367,-318 -361.75,-317.75 -357.25,-320.75C-352.75,-323.75 -349.25,-329.75 -349.25,-342.50C-349.25,-355.25 -352.75,-361.25 -357.25,-364.25C-361.75,-367.25 -367,-367 -369.25,-367ZM-369.25,-236.75C-367,-236.75 -361.75,-236.25 -357.25,-239.50C-352.75,-242.75 -349.25,-250 -349.25,-265C-349.25,-280 -352.75,-287.25 -357.25,-290.50C-361.75,-293.75 -367,-293.25 -369.25,-293.25ZM-266.25,-346.75L-241,-346.75L-241,-210L-266.25,-210L-266.25,-221.50C-266.75,-221.25 -267.75,-220.25 -269,-219C-272,-216 -275.50,-212.50 -280,-210C-282.25,-208.75 -284.50,-208 -286.75,-208C-293.50,-208 -298.25,-212 -301.25,-217.25C-304.25,-222.25 -305.75,-229 -305.75,-234.75L-305.75,-346.75L-280.50,-346.75L-280.50,-238.50C-280.50,-233.25 -277.50,-232.50 -274.50,-232.50C-271.75,-232.50 -270.25,-234 -268.50,-235.75C-267.75,-236.50 -267,-237.75 -266.25,-239ZM-221,-393.75L-195.75,-393.75L-195.75,-368.50L-221,-368.50ZM-221,-210L-221,-346.75L-195.75,-346.75L-195.75,-210ZM-175.75,-210L-175.75,-393.75L-150.50,-393.75L-150.50,-210ZM-66.75,-210L-92,-210L-92,-219C-96.25,-215 -100,-212 -104.75,-209.75C-107.25,-208.50 -109.75,-208 -112,-208C-119,-208 -123.75,-212 -126.75,-217.25C-130,-222.25 -131.50,-229 -131.50,-234.75L-131.50,-322C-131.50,-327.75 -130,-334.50 -126.75,-339.75C-123.75,-344.75 -119,-348.75 -112,-348.75C-107.25,-348.75 -102.25,-346 -98.50,-343.25C-96.25,-341.50 -94.25,-339.75 -92,-337.75L-92,-393.75L-66.75,-393.75ZM-92,-316.75C-92,-320.75 -95.75,-325 -99.50,-325C-103.25,-325 -106.25,-321.50 -106.25,-316.75L-106.25,-240C-106.25,-235.25 -103.25,-231.75 -99.50,-231.75C-95.75,-231.75 -92,-235.25 -92,-240ZM-8.25,-393.75L53.50,-393.75L53.50,-366L18.75,-366L18.75,-317.75L43.75,-317.75L43.75,-288.25L18.75,-288.25L18.75,-237.75L53.50,-237.75L53.50,-210L-8.25,-210ZM106.75,-314.25C106.75,-316.50 106.75,-320 106,-322.50C105,-325 103,-326.75 99.75,-326.75C95.50,-326.75 93.75,-323.50 93,-319.50C92.75,-317.50 92.50,-315.25 92.50,-313C92.50,-310.75 92.50,-308.50 92.50,-306.50L67.25,-306.50L67.25,-312.25C67.25,-322.25 71,-331.25 77,-338C83,-344.75 91.50,-348.75 101.25,-348.75C109.50,-348.75 117,-345.50 122.75,-340C128.50,-334.50 132,-326.75 132,-317.75L132,-233.75C132,-221.50 132.75,-216 133.75,-210L109,-210C106.75,-212.75 106.75,-219.25 106.75,-221L105,-221C103.75,-218.75 101.50,-215.50 98,-212.75C94.50,-210 89.75,-208 84.75,-208C81.50,-208 76.25,-209.25 72.25,-214.25C68,-219 64.50,-227.50 64.50,-241.75C64.50,-257 69,-268 75,-275.50C81,-283 88.50,-287.75 94.75,-291C101,-294.25 105.75,-296.50 106.75,-299.25ZM106.75,-276C94.50,-270.75 89.25,-258.50 89.25,-245.50C89.25,-243.75 89.50,-240.75 90.50,-238C91.50,-235 93.25,-232.75 96.25,-232.75C102,-232.75 106.75,-236.25 106.75,-241ZM199.75,-320.75C197.50,-321.50 195,-321.75 192.75,-321.75C188.75,-321.75 184,-321.25 180,-317.50C175.25,-313.50 174.50,-309.25 174.50,-305L174.50,-210L149.25,-210L149.25,-346.75L174.50,-346.75L174.50,-331.50C174.75,-333.25 176.50,-337.50 180.50,-341.50C184.50,-345.25 190.50,-348.75 199.75,-348.75ZM241.25,-380.50L241.25,-346.75L258.50,-346.75L258.50,-324L241.25,-324L241.25,-256C241.25,-251.75 241.25,-246.25 242.25,-241.75C243.25,-237.25 245.25,-233.50 249.25,-233.50C251.25,-233.50 253.75,-233.75 255.50,-234C256.50,-234.25 257.50,-234.25 258.50,-234.50L258.50,-209.75C257.25,-209.50 256,-209 254.75,-208.75C252.25,-208.25 249,-208 245,-208C230.25,-208 223.25,-215.50 219.75,-225C216.25,-234.50 216,-246 216,-254L216,-324L203.25,-324L203.25,-346.75L216,-346.75L216,-380.50ZM297.25,-210L272,-210L272,-393.75L297.25,-393.75L297.25,-335.25C297.75,-335.50 298.75,-336.50 300.25,-338C303,-340.75 306.75,-344.50 311.25,-347C313.50,-348.25 315.50,-348.75 317.75,-348.75C324.50,-348.75 329.25,-344.75 332.25,-339.75C335.25,-334.50 336.75,-327.75 336.75,-322L336.75,-210L311.50,-210L311.50,-318.25C311.50,-323.50 308.50,-324.25 305.50,-324.25C302.75,-324.25 301.25,-322.75 299.50,-321C298.75,-320 298,-319 297.25,-317.75Z" fill="#ffffff" stroke="#000000"/>
    <path d="M-397.50,-206.34L-396.86,-388.25L-373.34,-388.17C-357.50,-388.11 -345.14,-385.10 -337.00,-377.40C-328.86,-369.69 -324.69,-357.80 -324.76,-339.73C-324.79,-331.07 -325.55,-324.64 -328.30,-318.71C-331.04,-312.78 -335.26,-307.84 -341.47,-302.17C-334.80,-298.43 -329.88,-291.49 -325.96,-279.84C-324.00,-274.14 -323.04,-266.71 -323.07,-257.56C-323.12,-243.94 -325.63,-231.82 -331.85,-222.44C-338.08,-213.06 -348.74,-206.91 -364.58,-206.22ZM-370.39,-313.16C-368.16,-313.16 -362.97,-312.89 -358.50,-315.84C-354.04,-318.80 -350.55,-324.73 -350.51,-337.35C-350.46,-349.97 -353.90,-355.92 -358.35,-358.91C-362.79,-361.89 -367.99,-361.67 -370.22,-361.67ZM-370.68,-232.73C-368.45,-232.72 -363.25,-232.20 -358.79,-235.41C-354.32,-238.61 -350.83,-245.77 -350.78,-260.62C-350.72,-275.47 -354.16,-282.66 -358.61,-285.90C-363.05,-289.13 -368.25,-288.65 -370.48,-288.66ZM-268.32,-341.26L-243.32,-341.18L-243.80,-205.79L-268.80,-205.88L-268.76,-217.27C-269.26,-217.02 -270.25,-216.04 -271.49,-214.80C-274.47,-211.84 -277.95,-208.39 -282.41,-205.93C-284.64,-204.70 -286.87,-203.97 -289.10,-203.97C-295.78,-204.00 -300.47,-207.98 -303.42,-213.18C-306.38,-218.14 -307.84,-224.83 -307.82,-230.52L-307.43,-341.40L-282.43,-341.31L-282.81,-234.15C-282.83,-228.95 -279.86,-228.20 -276.89,-228.19C-274.17,-228.18 -272.68,-229.66 -270.94,-231.38C-270.19,-232.12 -269.45,-233.36 -268.70,-234.59ZM-223.36,-387.64L-198.36,-387.55L-198.45,-362.55L-223.45,-362.64ZM-224.00,-205.72L-223.52,-341.11L-198.53,-341.02L-199.01,-205.64ZM-179.21,-205.57L-178.56,-387.48L-153.56,-387.39L-154.21,-205.48ZM-71.30,-205.18L-96.29,-205.27L-96.26,-214.18C-100.48,-210.24 -104.21,-207.28 -108.92,-205.07C-111.40,-203.84 -113.87,-203.35 -116.10,-203.36C-123.03,-203.39 -127.72,-207.36 -130.67,-212.57C-133.87,-217.53 -135.33,-224.22 -135.31,-229.91L-135.01,-316.29C-134.99,-321.98 -133.48,-328.66 -130.24,-333.85C-127.25,-338.79 -122.54,-342.73 -115.61,-342.70C-110.91,-342.69 -105.96,-339.95 -102.26,-337.21C-100.04,-335.47 -98.07,-333.73 -95.85,-331.74L-95.65,-387.18L-70.65,-387.10ZM-95.92,-310.95C-95.91,-314.91 -99.60,-319.13 -103.32,-319.15C-107.03,-319.16 -110.01,-315.71 -110.03,-311.00L-110.30,-235.02C-110.31,-230.32 -107.36,-226.84 -103.64,-226.83C-99.93,-226.82 -96.21,-230.27 -96.19,-234.97ZM-12.74,-386.89L48.39,-386.67L48.30,-359.20L13.89,-359.32L13.73,-311.56L38.48,-311.47L38.37,-282.26L13.62,-282.35L13.45,-232.36L47.85,-232.23L47.75,-204.76L-13.38,-204.98ZM100.83,-307.78C100.84,-310.01 100.85,-313.47 100.12,-315.95C99.14,-318.43 97.16,-320.17 93.95,-320.18C89.74,-320.20 88.00,-316.99 87.24,-313.03C86.98,-311.05 86.73,-308.82 86.72,-306.59C86.71,-304.37 86.71,-302.14 86.70,-300.16L61.70,-300.25L61.72,-305.94C61.76,-315.84 65.50,-324.74 71.46,-331.40C77.43,-338.06 85.86,-341.99 95.51,-341.96C103.68,-341.93 111.09,-338.68 116.76,-333.22C122.44,-327.75 125.87,-320.07 125.84,-311.16L125.55,-228.00C125.51,-215.87 126.23,-210.42 127.20,-204.48L102.69,-204.57C100.48,-207.30 100.50,-213.73 100.51,-215.47L98.77,-215.47C97.53,-213.25 95.29,-210.04 91.81,-207.33C88.34,-204.62 83.63,-202.66 78.68,-202.67C75.46,-202.68 70.27,-203.94 66.33,-208.90C62.14,-213.62 58.70,-222.05 58.75,-236.16C58.80,-251.25 63.30,-262.13 69.26,-269.53C75.23,-276.94 82.67,-281.61 88.87,-284.81C95.07,-288.00 99.78,-290.21 100.78,-292.93ZM100.70,-269.92C88.55,-264.76 83.31,-252.65 83.27,-239.78C83.26,-238.05 83.50,-235.08 84.48,-232.35C85.46,-229.38 87.18,-227.15 90.15,-227.13C95.84,-227.11 100.56,-230.56 100.58,-235.27ZM192.92,-313.89C190.70,-314.64 188.23,-314.90 186.00,-314.91C182.04,-314.92 177.33,-314.44 173.36,-310.74C168.64,-306.80 167.89,-302.60 167.87,-298.39L167.54,-204.34L142.54,-204.43L143.02,-339.81L168.02,-339.72L167.97,-324.62C168.22,-326.35 169.97,-330.56 173.94,-334.50C177.91,-338.20 183.87,-341.64 193.02,-341.61ZM234.22,-372.90L234.10,-339.49L251.18,-339.43L251.10,-316.90L234.02,-316.96L233.78,-249.64C233.77,-245.44 233.75,-239.99 234.72,-235.53C235.70,-231.07 237.66,-227.36 241.62,-227.34C243.60,-227.33 246.08,-227.57 247.81,-227.81C248.80,-228.06 249.79,-228.05 250.78,-228.30L250.70,-203.80C249.46,-203.55 248.22,-203.06 246.98,-202.82C244.51,-202.33 241.29,-202.10 237.33,-202.11C222.72,-202.16 215.82,-209.61 212.39,-219.03C208.96,-228.45 208.75,-239.83 208.78,-247.75L209.02,-317.05L196.40,-317.10L196.48,-339.62L209.10,-339.57L209.22,-372.99ZM289.06,-203.91L264.06,-204.00L264.71,-385.91L289.71,-385.82L289.50,-327.90C290.00,-328.15 290.99,-329.14 292.48,-330.62C295.21,-333.33 298.94,-337.03 303.40,-339.49C305.63,-340.72 307.61,-341.21 309.84,-341.20C316.52,-341.17 321.21,-337.20 324.17,-332.24C327.12,-327.03 328.58,-320.34 328.56,-314.65L328.17,-203.77L303.17,-203.86L303.55,-311.02C303.57,-316.22 300.60,-316.98 297.63,-316.99C294.91,-317.00 293.42,-315.52 291.68,-313.79C290.93,-312.80 290.19,-311.81 289.44,-310.58Z" fill="#ffffff" stroke="#000000"/>
    <path d="M-398.66,-202.75L-397.38,-382.82L-374.11,-382.65C-358.43,-382.54 -346.20,-379.52 -338.17,-371.86C-330.14,-364.21 -326.06,-352.42 -326.18,-334.54C-326.25,-325.96 -327.03,-319.60 -329.76,-313.74C-332.50,-307.88 -336.70,-303.01 -342.86,-297.42C-336.27,-293.69 -331.42,-286.80 -327.58,-275.26C-325.66,-269.61 -324.74,-262.25 -324.80,-253.19C-324.90,-239.71 -327.43,-227.72 -333.62,-218.46C-339.81,-209.19 -350.39,-203.14 -366.08,-202.52ZM-371.45,-308.40C-369.25,-308.38 -364.10,-308.10 -359.67,-311.01C-355.24,-313.92 -351.77,-319.77 -351.68,-332.27C-351.59,-344.76 -354.98,-350.67 -359.37,-353.64C-363.76,-356.61 -368.91,-356.40 -371.11,-356.42ZM-372.01,-228.77C-369.81,-228.76 -364.67,-228.23 -360.24,-231.39C-355.80,-234.54 -352.32,-241.62 -352.22,-256.32C-352.11,-271.02 -355.49,-278.15 -359.88,-281.37C-364.27,-284.58 -369.42,-284.13 -371.62,-284.14ZM-270.31,-335.86L-245.57,-335.68L-246.52,-201.67L-271.26,-201.85L-271.18,-213.12C-271.67,-212.87 -272.66,-211.90 -273.90,-210.68C-276.86,-207.77 -280.31,-204.36 -284.74,-201.94C-286.95,-200.73 -289.16,-200.01 -291.37,-200.03C-297.98,-200.07 -302.61,-204.03 -305.51,-209.19C-308.42,-214.11 -309.84,-220.74 -309.80,-226.37L-309.02,-336.13L-284.28,-335.96L-285.03,-229.87C-285.07,-224.73 -282.13,-223.97 -279.19,-223.95C-276.50,-223.93 -275.02,-225.39 -273.29,-227.10C-272.55,-227.83 -271.81,-229.05 -271.06,-230.26ZM-225.64,-381.60L-200.90,-381.43L-201.07,-356.68L-225.82,-356.86ZM-226.92,-201.53L-225.97,-335.54L-201.23,-335.37L-202.17,-201.36ZM-182.57,-201.22L-181.30,-381.29L-156.56,-381.11L-157.83,-201.04ZM-75.76,-200.46L-100.50,-200.64L-100.44,-209.46C-104.63,-205.57 -108.33,-202.65 -113.00,-200.48C-115.46,-199.27 -117.91,-198.80 -120.12,-198.82C-126.98,-198.86 -131.60,-202.82 -134.51,-207.98C-137.66,-212.90 -139.08,-219.53 -139.04,-225.17L-138.43,-310.67C-138.39,-316.30 -136.88,-322.91 -133.66,-328.03C-130.68,-332.91 -126.00,-336.80 -119.14,-336.75C-114.48,-336.71 -109.60,-333.98 -105.95,-331.26C-103.75,-329.53 -101.81,-327.80 -99.62,-325.83L-99.23,-380.71L-74.48,-380.53ZM-99.76,-305.25C-99.73,-309.17 -103.38,-313.36 -107.05,-313.39C-110.73,-313.41 -113.69,-310.00 -113.73,-305.35L-114.26,-230.13C-114.29,-225.48 -111.38,-222.03 -107.70,-222.00C-104.03,-221.98 -100.33,-225.38 -100.29,-230.04ZM-17.15,-380.13L43.36,-379.70L43.17,-352.50L9.11,-352.74L8.78,-305.46L33.28,-305.29L33.07,-276.38L8.57,-276.55L8.22,-227.06L42.28,-226.82L42.08,-199.63L-18.43,-200.06ZM94.99,-301.42C95.01,-303.62 95.03,-307.05 94.31,-309.51C93.35,-311.97 91.40,-313.70 88.22,-313.72C84.05,-313.75 82.32,-310.57 81.55,-306.66C81.29,-304.70 81.03,-302.50 81.02,-300.29C81.00,-298.09 80.99,-295.88 80.97,-293.92L56.23,-294.10L56.27,-299.73C56.34,-309.53 60.08,-318.33 66.00,-324.90C71.93,-331.47 80.29,-335.33 89.84,-335.27C97.93,-335.21 105.25,-331.97 110.85,-326.54C116.45,-321.11 119.82,-313.49 119.76,-304.67L119.18,-222.36C119.09,-210.35 119.79,-204.96 120.73,-199.07L96.47,-199.24C94.29,-201.95 94.33,-208.32 94.34,-210.04L92.63,-210.05C91.39,-207.85 89.16,-204.68 85.71,-202.01C82.26,-199.34 77.59,-197.42 72.69,-197.45C69.51,-197.47 64.37,-198.73 60.49,-203.66C56.36,-208.35 52.99,-216.70 53.08,-230.66C53.19,-245.61 57.68,-256.36 63.61,-263.67C69.54,-270.97 76.92,-275.58 83.07,-278.72C89.22,-281.86 93.89,-284.03 94.89,-286.72ZM94.73,-263.94C82.68,-258.88 77.46,-246.91 77.36,-234.17C77.35,-232.45 77.58,-229.51 78.54,-226.81C79.50,-223.86 81.20,-221.65 84.14,-221.62C89.77,-221.58 94.45,-224.98 94.48,-229.64ZM186.17,-307.14C183.97,-307.90 181.53,-308.16 179.32,-308.17C175.40,-308.20 170.74,-307.74 166.80,-304.10C162.11,-300.21 161.35,-296.05 161.32,-291.89L160.66,-198.79L135.92,-198.96L136.87,-332.97L161.61,-332.80L161.50,-317.85C161.76,-319.57 163.51,-323.72 167.45,-327.61C171.40,-331.26 177.30,-334.65 186.37,-334.58ZM227.26,-365.41L227.02,-332.34L243.93,-332.22L243.77,-309.92L226.87,-310.04L226.39,-243.40C226.36,-239.24 226.33,-233.85 227.28,-229.43C228.22,-225.01 230.16,-221.33 234.08,-221.30C236.04,-221.28 238.49,-221.51 240.21,-221.74C241.19,-221.98 242.17,-221.98 243.15,-222.21L242.98,-197.96C241.75,-197.72 240.52,-197.24 239.30,-197.01C236.84,-196.53 233.66,-196.31 229.74,-196.34C215.28,-196.44 208.47,-203.84 205.11,-213.17C201.75,-222.51 201.58,-233.78 201.64,-241.62L202.12,-310.22L189.63,-310.31L189.78,-332.60L202.28,-332.51L202.51,-365.59ZM280.95,-197.94L256.21,-198.11L257.48,-378.18L282.23,-378.01L281.82,-320.68C282.31,-320.92 283.30,-321.89 284.78,-323.35C287.50,-326.03 291.20,-329.68 295.62,-332.10C297.84,-333.30 299.80,-333.78 302.01,-333.77C308.62,-333.72 313.25,-329.77 316.15,-324.84C319.06,-319.68 320.48,-313.05 320.44,-307.42L319.66,-197.66L294.92,-197.84L295.67,-303.92C295.71,-309.06 292.77,-309.82 289.83,-309.84C287.14,-309.86 285.66,-308.40 283.93,-306.70C283.19,-305.72 282.44,-304.75 281.70,-303.53Z" fill="#ffffff" stroke="#000000"/>
    <path d="M-399.73,-199.23L-397.84,-377.45L-374.80,-377.21C-359.28,-377.04 -347.19,-374.01 -339.27,-366.40C-331.34,-358.80 -327.34,-347.12 -327.53,-329.42C-327.62,-320.93 -328.42,-314.63 -331.15,-308.84C-333.88,-303.05 -338.05,-298.24 -344.17,-292.73C-337.66,-289.02 -332.88,-282.18 -329.13,-270.75C-327.24,-265.15 -326.35,-257.86 -326.45,-248.89C-326.59,-235.55 -329.14,-223.70 -335.30,-214.55C-341.46,-205.40 -351.95,-199.45 -367.48,-198.88ZM-372.43,-303.70C-370.25,-303.68 -365.16,-303.38 -360.76,-306.25C-356.36,-309.11 -352.91,-314.89 -352.78,-327.26C-352.65,-339.63 -355.98,-345.48 -360.31,-348.44C-364.65,-351.39 -369.74,-351.21 -371.92,-351.23ZM-373.27,-224.89C-371.08,-224.87 -366.00,-224.33 -361.60,-227.44C-357.20,-230.54 -353.73,-237.54 -353.58,-252.09C-353.42,-266.64 -356.74,-273.71 -361.07,-276.91C-365.40,-280.10 -370.50,-279.67 -372.68,-279.70ZM-272.23,-330.53L-247.74,-330.27L-249.15,-197.63L-273.64,-197.89L-273.52,-209.04C-274.01,-208.80 -274.99,-207.84 -276.21,-206.65C-279.15,-203.77 -282.58,-200.41 -286.97,-198.03C-289.17,-196.84 -291.36,-196.14 -293.54,-196.16C-300.09,-196.23 -304.65,-200.16 -307.51,-205.28C-310.37,-210.16 -311.75,-216.72 -311.69,-222.30L-310.54,-330.93L-286.05,-330.67L-287.16,-225.68C-287.22,-220.59 -284.32,-219.83 -281.41,-219.80C-278.74,-219.77 -277.27,-221.21 -275.55,-222.89C-274.82,-223.61 -274.08,-224.81 -273.34,-226.02ZM-227.85,-375.65L-203.36,-375.39L-203.62,-350.90L-228.11,-351.16ZM-229.75,-197.42L-228.34,-330.06L-203.85,-329.80L-205.26,-197.16ZM-185.86,-196.95L-183.96,-375.18L-159.47,-374.92L-161.37,-196.69ZM-80.13,-195.83L-104.62,-196.09L-104.53,-204.82C-108.69,-200.99 -112.36,-198.11 -116.99,-195.98C-119.43,-194.79 -121.86,-194.34 -124.04,-194.36C-130.83,-194.43 -135.40,-198.36 -138.25,-203.48C-141.36,-208.37 -142.74,-214.93 -142.68,-220.51L-141.78,-305.13C-141.72,-310.71 -140.20,-317.24 -136.99,-322.30C-134.03,-327.12 -129.38,-330.95 -122.59,-330.88C-117.99,-330.83 -113.16,-328.11 -109.56,-325.40C-107.39,-323.68 -105.47,-321.97 -103.31,-320.00L-102.73,-374.32L-78.24,-374.06ZM-103.52,-299.63C-103.48,-303.51 -107.08,-307.67 -110.71,-307.71C-114.35,-307.75 -117.30,-304.39 -117.35,-299.78L-118.14,-225.34C-118.18,-220.73 -115.31,-217.30 -111.67,-217.27C-108.04,-217.23 -104.36,-220.58 -104.31,-225.19ZM-21.50,-373.46L38.40,-372.82L38.11,-345.90L4.41,-346.26L3.91,-299.46L28.16,-299.21L27.85,-270.59L3.60,-270.85L3.08,-221.87L36.79,-221.51L36.50,-194.59L-23.39,-195.23ZM89.23,-295.16C89.25,-297.34 89.29,-300.74 88.58,-303.17C87.64,-305.61 85.72,-307.32 82.57,-307.36C78.44,-307.40 76.71,-304.27 75.94,-300.40C75.68,-298.46 75.42,-296.28 75.39,-294.10C75.37,-291.91 75.35,-289.73 75.33,-287.79L50.83,-288.05L50.89,-293.63C51.00,-303.33 54.73,-312.02 60.62,-318.50C66.51,-324.99 74.79,-328.78 84.25,-328.68C92.25,-328.60 99.49,-325.37 105.01,-319.97C110.53,-314.58 113.85,-307.03 113.75,-298.30L112.89,-216.82C112.76,-204.94 113.43,-199.60 114.34,-193.77L90.34,-194.02C88.18,-196.71 88.25,-203.02 88.27,-204.71L86.57,-204.73C85.33,-202.56 83.12,-199.43 79.69,-196.80C76.27,-194.17 71.64,-192.28 66.79,-192.33C63.64,-192.36 58.56,-193.63 54.73,-198.52C50.66,-203.17 47.35,-211.45 47.50,-225.28C47.66,-240.07 52.14,-250.69 58.03,-257.90C63.93,-265.12 71.25,-269.65 77.35,-272.73C83.44,-275.82 88.07,-277.96 89.07,-280.61ZM88.83,-258.06C76.90,-253.10 71.68,-241.27 71.54,-228.66C71.53,-226.96 71.74,-224.05 72.68,-221.37C73.62,-218.45 75.29,-216.25 78.20,-216.22C83.78,-216.16 88.42,-219.51 88.47,-224.11ZM179.50,-300.51C177.32,-301.26 174.90,-301.53 172.72,-301.55C168.84,-301.59 164.23,-301.16 160.31,-297.56C155.66,-293.73 154.89,-289.61 154.85,-285.49L153.87,-193.35L129.38,-193.61L130.78,-326.25L155.28,-325.99L155.12,-311.20C155.38,-312.89 157.12,-316.99 161.04,-320.83C164.96,-324.43 170.82,-327.76 179.79,-327.67ZM220.37,-358.03L220.02,-325.30L236.75,-325.12L236.52,-303.06L219.79,-303.23L219.08,-237.28C219.04,-233.15 218.98,-227.82 219.91,-223.44C220.83,-219.07 222.73,-215.41 226.61,-215.37C228.55,-215.35 230.98,-215.57 232.68,-215.79C233.65,-216.02 234.62,-216.01 235.59,-216.25L235.34,-192.24C234.12,-192.01 232.91,-191.54 231.69,-191.31C229.26,-190.85 226.11,-190.64 222.23,-190.68C207.92,-190.83 201.21,-198.18 197.91,-207.43C194.61,-216.68 194.49,-227.84 194.57,-235.60L195.29,-303.49L182.93,-303.62L183.16,-325.69L195.53,-325.56L195.88,-358.29ZM272.93,-192.08L248.44,-192.34L250.33,-370.57L274.82,-370.31L274.22,-313.57C274.71,-313.81 275.69,-314.76 277.16,-316.20C279.85,-318.84 283.53,-322.44 287.92,-324.82C290.11,-326.01 292.06,-326.47 294.24,-326.45C300.79,-326.38 305.35,-322.45 308.21,-317.57C311.07,-312.45 312.45,-305.89 312.39,-300.31L311.24,-191.68L286.75,-191.94L287.86,-296.93C287.92,-302.02 285.02,-302.78 282.11,-302.81C279.44,-302.84 277.97,-301.40 276.25,-299.72C275.52,-298.76 274.78,-297.80 274.04,-296.59Z" fill="#ffffff" stroke="#000000"/>
    <path d="M-400.71,-195.77L-398.21,-372.16L-375.41,-371.83C-360.05,-371.62 -348.10,-368.57 -340.28,-361.01C-332.47,-353.46 -328.55,-341.89 -328.80,-324.37C-328.92,-315.97 -329.73,-309.74 -332.45,-304.02C-335.17,-298.30 -339.32,-293.55 -345.39,-288.12C-338.97,-284.43 -334.26,-277.64 -330.58,-266.31C-328.74,-260.76 -327.88,-253.55 -328.01,-244.67C-328.20,-231.47 -330.76,-219.75 -336.89,-210.71C-343.02,-201.68 -353.42,-195.82 -368.79,-195.32ZM-373.32,-299.08C-371.16,-299.05 -366.13,-298.73 -361.77,-301.55C-357.41,-304.37 -353.96,-310.08 -353.79,-322.32C-353.62,-334.56 -356.90,-340.37 -361.17,-343.31C-365.45,-346.25 -370.50,-346.08 -372.66,-346.11ZM-374.43,-221.08C-372.27,-221.05 -367.23,-220.50 -362.87,-223.56C-358.51,-226.62 -355.05,-233.53 -354.84,-247.93C-354.64,-262.33 -357.90,-269.33 -362.18,-272.52C-366.45,-275.70 -371.50,-275.29 -373.66,-275.32ZM-274.06,-325.27L-249.82,-324.93L-251.68,-193.66L-275.92,-194.01L-275.76,-205.05C-276.25,-204.81 -277.22,-203.87 -278.44,-202.68C-281.36,-199.84 -284.77,-196.53 -289.12,-194.19C-291.30,-193.02 -293.47,-192.33 -295.63,-192.37C-302.11,-192.46 -306.61,-196.36 -309.42,-201.44C-312.23,-206.28 -313.58,-212.78 -313.50,-218.30L-311.98,-325.81L-287.74,-325.47L-289.21,-221.56C-289.28,-216.52 -286.41,-215.76 -283.53,-215.72C-280.89,-215.68 -279.43,-217.10 -277.73,-218.75C-277.00,-219.46 -276.26,-220.65 -275.53,-221.84ZM-229.99,-369.77L-205.75,-369.43L-206.09,-345.19L-230.33,-345.54ZM-232.48,-193.39L-230.63,-324.66L-206.39,-324.32L-208.25,-193.05ZM-189.05,-192.78L-186.55,-369.16L-162.31,-368.82L-164.81,-192.43ZM-84.42,-191.29L-108.66,-191.64L-108.53,-200.28C-112.67,-196.50 -116.31,-193.67 -120.90,-191.57C-123.32,-190.41 -125.72,-189.96 -127.88,-189.99C-134.60,-190.09 -139.11,-193.99 -141.92,-199.07C-144.97,-203.91 -146.32,-210.41 -146.24,-215.93L-145.05,-299.68C-144.97,-305.20 -143.44,-311.66 -140.25,-316.66C-137.30,-321.42 -132.69,-325.19 -125.97,-325.10C-121.41,-325.03 -116.65,-322.32 -113.09,-319.63C-110.95,-317.92 -109.05,-316.22 -106.92,-314.27L-106.16,-368.02L-81.92,-367.68ZM-107.21,-294.11C-107.15,-297.95 -110.69,-302.08 -114.29,-302.13C-117.89,-302.18 -120.82,-298.86 -120.88,-294.30L-121.93,-220.63C-121.99,-216.07 -119.16,-212.67 -115.56,-212.62C-111.96,-212.57 -108.31,-215.88 -108.25,-220.43ZM-25.77,-366.88L33.51,-366.04L33.13,-339.40L-0.23,-339.88L-0.88,-293.56L23.11,-293.22L22.71,-264.90L-1.28,-265.24L-1.97,-216.77L31.39,-216.30L31.01,-189.66L-28.27,-190.50ZM83.54,-289.01C83.57,-291.17 83.62,-294.53 82.93,-296.94C82.01,-299.35 80.11,-301.06 76.99,-301.10C72.91,-301.16 71.19,-298.06 70.41,-294.23C70.15,-292.32 69.88,-290.16 69.85,-288.00C69.81,-285.84 69.78,-283.68 69.76,-281.76L45.52,-282.10L45.60,-287.62C45.73,-297.22 49.46,-305.81 55.31,-312.21C61.16,-318.61 69.37,-322.33 78.73,-322.20C86.65,-322.09 93.80,-318.86 99.25,-313.51C104.69,-308.15 107.95,-300.66 107.83,-292.02L106.68,-211.39C106.52,-199.63 107.16,-194.34 108.04,-188.57L84.28,-188.91C82.16,-191.58 82.25,-197.82 82.27,-199.49L80.59,-199.52C79.36,-197.38 77.16,-194.29 73.76,-191.69C70.36,-189.10 65.78,-187.25 60.98,-187.32C57.86,-187.36 52.84,-188.63 49.06,-193.48C45.05,-198.10 41.81,-206.31 42.00,-219.99C42.21,-234.63 46.68,-245.12 52.54,-252.24C58.40,-259.36 65.66,-263.82 71.71,-266.85C77.75,-269.89 82.34,-271.98 83.34,-274.61ZM83.02,-252.29C71.19,-247.42 65.98,-235.73 65.81,-223.25C65.78,-221.57 65.98,-218.69 66.91,-216.03C67.82,-213.14 69.47,-210.96 72.35,-210.92C77.87,-210.84 82.48,-214.13 82.55,-218.69ZM172.90,-293.98C170.75,-294.73 168.35,-295.01 166.19,-295.04C162.35,-295.09 157.79,-294.68 153.90,-291.13C149.28,-287.35 148.51,-283.29 148.45,-279.21L147.16,-188.02L122.92,-188.36L124.78,-319.63L149.02,-319.28L148.81,-304.64C149.07,-306.32 150.81,-310.38 154.70,-314.16C158.59,-317.71 164.40,-320.98 173.28,-320.86ZM213.55,-350.77L213.09,-318.37L229.65,-318.14L229.34,-296.30L212.78,-296.54L211.86,-231.26C211.80,-227.18 211.72,-221.90 212.62,-217.57C213.52,-213.24 215.39,-209.61 219.23,-209.56C221.15,-209.53 223.55,-209.74 225.24,-209.95C226.20,-210.18 227.16,-210.16 228.12,-210.39L227.79,-186.63C226.58,-186.41 225.38,-185.95 224.17,-185.72C221.77,-185.28 218.64,-185.08 214.80,-185.14C200.64,-185.34 194.03,-192.63 190.80,-201.80C187.57,-210.97 187.48,-222.01 187.59,-229.69L188.54,-296.88L176.30,-297.05L176.61,-318.89L188.85,-318.72L189.31,-351.11ZM264.99,-186.35L240.75,-186.69L243.25,-363.07L267.48,-362.73L266.69,-306.57C267.17,-306.81 268.14,-307.75 269.60,-309.17C272.28,-311.78 275.93,-315.32 280.29,-317.66C282.46,-318.83 284.39,-319.28 286.55,-319.25C293.03,-319.16 297.53,-315.26 300.35,-310.42C303.15,-305.34 304.50,-298.84 304.42,-293.32L302.90,-185.81L278.66,-186.15L280.14,-290.06C280.21,-295.10 277.34,-295.86 274.46,-295.90C271.82,-295.94 270.36,-294.52 268.65,-292.87C267.92,-291.92 267.19,-290.97 266.45,-289.78Z" fill="#ffffff" stroke="#000000"/>
    <path d="M-401.60,-192.39L-398.51,-366.92L-375.95,-366.52C-360.75,-366.26 -348.93,-363.20 -341.22,-355.70C-333.51,-348.20 -329.68,-336.73 -329.99,-319.39C-330.13,-311.08 -330.95,-304.92 -333.67,-299.27C-336.38,-293.61 -340.50,-288.93 -346.53,-283.58C-340.19,-279.90 -335.55,-273.17 -331.95,-261.94C-330.15,-256.45 -329.33,-249.31 -329.48,-240.52C-329.71,-227.46 -332.29,-215.87 -338.39,-206.95C-344.49,-198.03 -354.80,-192.27 -370.01,-191.83ZM-374.13,-294.52C-372.00,-294.48 -367.01,-294.15 -362.69,-296.93C-358.36,-299.70 -354.94,-305.34 -354.72,-317.45C-354.51,-329.56 -357.73,-335.32 -361.96,-338.25C-366.18,-341.17 -371.17,-341.02 -373.31,-341.06ZM-375.50,-217.34C-373.36,-217.31 -368.38,-216.74 -364.05,-219.75C-359.73,-222.76 -356.28,-229.59 -356.03,-243.84C-355.78,-258.09 -358.98,-265.03 -363.20,-268.20C-367.42,-271.36 -372.41,-270.97 -374.55,-271.01ZM-275.82,-320.09L-251.83,-319.67L-254.13,-189.78L-278.11,-190.20L-277.92,-201.13C-278.40,-200.90 -279.37,-199.96 -280.58,-198.80C-283.48,-196.00 -286.86,-192.73 -291.17,-190.43C-293.33,-189.28 -295.48,-188.61 -297.62,-188.65C-304.03,-188.76 -308.48,-192.64 -311.24,-197.68C-314.00,-202.48 -315.31,-208.91 -315.22,-214.38L-313.33,-320.76L-289.35,-320.33L-291.17,-217.51C-291.26,-212.53 -288.42,-211.76 -285.57,-211.71C-282.96,-211.67 -281.51,-213.07 -279.82,-214.70C-279.09,-215.40 -278.36,-216.57 -277.63,-217.75ZM-232.04,-363.98L-208.06,-363.55L-208.48,-339.57L-232.47,-339.99ZM-235.13,-189.44L-232.83,-319.33L-208.85,-318.91L-211.15,-189.02ZM-192.15,-188.68L-189.06,-363.22L-165.08,-362.79L-168.17,-188.26ZM-88.62,-186.85L-112.60,-187.27L-112.45,-195.82C-116.56,-192.09 -120.17,-189.31 -124.72,-187.25C-127.11,-186.10 -129.50,-185.67 -131.63,-185.71C-138.28,-185.83 -142.73,-189.71 -145.49,-194.74C-148.49,-199.55 -149.80,-205.98 -149.71,-211.45L-148.24,-294.32C-148.14,-299.78 -146.60,-306.17 -143.43,-311.10C-140.49,-315.80 -135.92,-319.52 -129.27,-319.40C-124.76,-319.32 -120.05,-316.62 -116.54,-313.95C-114.43,-312.25 -112.56,-310.55 -110.45,-308.62L-109.51,-361.81L-85.53,-361.38ZM-110.81,-288.67C-110.74,-292.47 -114.23,-296.57 -117.79,-296.63C-121.36,-296.69 -124.26,-293.42 -124.34,-288.91L-125.63,-216.01C-125.71,-211.50 -122.92,-208.12 -119.36,-208.06C-115.80,-207.99 -112.18,-211.26 -112.10,-215.77ZM-29.96,-360.40L28.69,-359.36L28.22,-333.00L-4.78,-333.59L-5.60,-287.76L18.15,-287.34L17.66,-259.32L-6.09,-259.74L-6.94,-211.77L26.07,-211.18L25.60,-184.83L-33.05,-185.86ZM77.93,-282.95C77.97,-285.09 78.03,-288.41 77.36,-290.80C76.45,-293.19 74.58,-294.89 71.49,-294.94C67.46,-295.01 65.74,-291.96 64.96,-288.17C64.69,-286.27 64.41,-284.14 64.38,-282.00C64.34,-279.87 64.30,-277.73 64.27,-275.83L40.28,-276.26L40.38,-281.72C40.55,-291.22 44.26,-299.70 50.07,-306.01C55.89,-312.32 64.03,-315.98 73.29,-315.81C81.13,-315.68 88.19,-312.46 93.56,-307.14C98.93,-301.82 102.13,-294.40 101.98,-285.85L100.56,-206.06C100.36,-194.43 100.98,-189.19 101.83,-183.48L78.32,-183.89C76.23,-186.54 76.34,-192.72 76.36,-194.38L74.70,-194.41C73.48,-192.29 71.29,-189.24 67.92,-186.69C64.54,-184.14 60.00,-182.32 55.25,-182.40C52.16,-182.46 47.20,-183.73 43.48,-188.55C39.52,-193.13 36.34,-201.26 36.58,-214.80C36.84,-229.28 41.30,-239.66 47.12,-246.68C52.95,-253.70 60.15,-258.09 66.14,-261.07C72.14,-264.05 76.68,-266.11 77.68,-268.70ZM77.29,-246.62C65.57,-241.84 60.37,-230.29 60.15,-217.94C60.13,-216.28 60.31,-213.43 61.22,-210.80C62.12,-207.93 63.74,-205.77 66.59,-205.72C72.05,-205.62 76.62,-208.86 76.70,-213.38ZM166.38,-287.56C164.25,-288.31 161.88,-288.59 159.75,-288.63C155.95,-288.70 151.43,-288.30 147.56,-284.81C142.99,-281.09 142.20,-277.06 142.13,-273.03L140.53,-182.79L116.55,-183.22L118.85,-313.11L142.83,-312.68L142.58,-298.20C142.84,-299.86 144.58,-303.86 148.44,-307.60C152.31,-311.09 158.06,-314.31 166.85,-314.16ZM206.80,-343.62L206.23,-311.56L222.62,-311.27L222.24,-289.66L205.85,-289.95L204.71,-225.36C204.64,-221.33 204.54,-216.10 205.42,-211.81C206.29,-207.52 208.13,-203.92 211.93,-203.86C213.83,-203.82 216.21,-204.02 217.87,-204.23C218.83,-204.45 219.78,-204.43 220.73,-204.65L220.32,-181.14C219.12,-180.92 217.93,-180.47 216.74,-180.25C214.35,-179.82 211.26,-179.64 207.46,-179.71C193.45,-179.95 186.93,-187.20 183.77,-196.28C180.60,-205.36 180.56,-216.29 180.69,-223.89L181.87,-290.38L169.76,-290.59L170.14,-312.20L182.25,-311.99L182.82,-344.04ZM257.13,-180.73L233.14,-181.15L236.23,-355.69L260.22,-355.26L259.23,-299.70C259.71,-299.93 260.68,-300.86 262.13,-302.26C264.79,-304.82 268.41,-308.32 272.73,-310.62C274.89,-311.77 276.79,-312.21 278.93,-312.17C285.34,-312.06 289.79,-308.18 292.55,-303.38C295.31,-298.34 296.63,-291.91 296.53,-286.45L294.65,-180.06L270.66,-180.49L272.48,-283.31C272.57,-288.30 269.73,-289.06 266.88,-289.11C264.27,-289.16 262.82,-287.76 261.13,-286.12C260.40,-285.19 259.67,-284.25 258.94,-283.07Z" fill="#ffffff" stroke="#000000"/>
    <path d="M-402.39,-189.07L-398.72,-361.76L-376.40,-361.28C-361.36,-360.96 -349.68,-357.89 -342.08,-350.44C-334.48,-343.00 -330.73,-331.63 -331.09,-314.48C-331.26,-306.26 -332.10,-300.17 -334.80,-294.58C-337.51,-289.00 -341.60,-284.38 -347.59,-279.11C-341.32,-275.45 -336.76,-268.77 -333.24,-257.65C-331.47,-252.20 -330.68,-245.13 -330.87,-236.44C-331.14,-223.52 -333.74,-212.06 -339.80,-203.25C-345.86,-194.45 -356.09,-188.79 -371.14,-188.41ZM-374.86,-290.03C-372.75,-289.98 -367.82,-289.64 -363.53,-292.37C-359.24,-295.10 -355.83,-300.67 -355.57,-312.65C-355.32,-324.64 -358.49,-330.34 -362.66,-333.25C-366.83,-336.16 -371.77,-336.03 -373.88,-336.08ZM-376.48,-213.67C-374.37,-213.62 -369.44,-213.05 -365.15,-216.01C-360.86,-218.98 -357.42,-225.72 -357.12,-239.82C-356.82,-253.92 -359.97,-260.80 -364.13,-263.94C-368.30,-267.09 -373.24,-266.72 -375.35,-266.77ZM-277.49,-314.99L-253.76,-314.49L-256.49,-185.97L-280.22,-186.47L-279.99,-197.28C-280.46,-197.06 -281.42,-196.14 -282.62,-194.99C-285.50,-192.23 -288.86,-189.01 -293.14,-186.75C-295.28,-185.62 -297.41,-184.96 -299.52,-185.00C-305.87,-185.14 -310.25,-188.99 -312.97,-193.99C-315.68,-198.74 -316.96,-205.12 -316.85,-210.52L-314.61,-315.78L-290.88,-315.27L-293.04,-213.54C-293.15,-208.61 -290.34,-207.84 -287.52,-207.78C-284.94,-207.73 -283.50,-209.11 -281.82,-210.72C-281.10,-211.41 -280.37,-212.57 -279.64,-213.73ZM-234.02,-358.26L-210.29,-357.75L-210.80,-334.02L-234.53,-334.53ZM-237.69,-185.57L-234.96,-314.09L-211.23,-313.58L-213.96,-185.07ZM-195.17,-184.67L-191.50,-357.35L-167.77,-356.85L-171.44,-184.16ZM-92.73,-182.49L-116.46,-182.99L-116.28,-191.45C-120.35,-187.78 -123.94,-185.03 -128.45,-183.01C-130.82,-181.89 -133.18,-181.47 -135.30,-181.51C-141.87,-181.65 -146.26,-185.51 -148.97,-190.50C-151.93,-195.27 -153.20,-201.64 -153.09,-207.04L-151.35,-289.04C-151.23,-294.44 -149.69,-300.76 -146.53,-305.63C-143.61,-310.27 -139.06,-313.93 -132.49,-313.79C-128.02,-313.69 -123.38,-311.01 -119.91,-308.35C-117.83,-306.66 -115.98,-304.98 -113.91,-303.05L-112.79,-355.68L-89.06,-355.18ZM-114.33,-283.32C-114.25,-287.08 -117.69,-291.15 -121.21,-291.22C-124.74,-291.30 -127.63,-288.07 -127.72,-283.60L-129.25,-211.47C-129.35,-207.01 -126.60,-203.66 -123.07,-203.58C-119.55,-203.51 -115.96,-206.72 -115.86,-211.19ZM-34.08,-354.01L23.95,-352.78L23.39,-326.70L-9.26,-327.39L-10.23,-282.05L13.27,-281.55L12.68,-253.82L-10.82,-254.32L-11.82,-206.86L20.83,-206.17L20.28,-180.09L-37.75,-181.32ZM72.40,-277.00C72.45,-279.11 72.52,-282.40 71.86,-284.77C70.97,-287.14 69.13,-288.82 66.08,-288.89C62.08,-288.97 60.37,-285.95 59.59,-282.21C59.31,-280.33 59.03,-278.22 58.99,-276.11C58.94,-273.99 58.90,-271.88 58.86,-270.00L35.13,-270.50L35.24,-275.91C35.44,-285.31 39.15,-293.69 44.92,-299.91C50.69,-306.14 58.76,-309.73 67.92,-309.53C75.68,-309.37 82.66,-306.16 87.96,-300.88C93.25,-295.60 96.38,-288.24 96.20,-279.78L94.53,-200.84C94.28,-189.33 94.88,-184.15 95.70,-178.49L72.44,-178.98C70.38,-181.61 70.51,-187.72 70.54,-189.36L68.90,-189.40C67.68,-187.31 65.50,-184.30 62.16,-181.79C58.81,-179.27 54.31,-177.49 49.61,-177.59C46.55,-177.65 41.64,-178.93 37.99,-183.71C34.09,-188.26 30.97,-196.32 31.25,-209.71C31.56,-224.04 36.00,-234.29 41.79,-241.22C47.58,-248.15 54.72,-252.46 60.66,-255.39C66.60,-258.32 71.11,-260.34 72.11,-262.90ZM71.64,-241.05C60.02,-236.36 54.85,-224.96 54.59,-212.74C54.55,-211.09 54.73,-208.27 55.61,-205.67C56.49,-202.83 58.09,-200.68 60.91,-200.62C66.31,-200.50 70.85,-203.70 70.94,-208.16ZM159.93,-281.25C157.84,-282.00 155.49,-282.29 153.38,-282.33C149.62,-282.41 145.14,-282.04 141.31,-278.59C136.77,-274.93 135.98,-270.95 135.89,-266.95L133.99,-177.67L110.26,-178.18L112.99,-306.69L136.72,-306.19L136.42,-291.86C136.69,-293.50 138.42,-297.46 142.26,-301.14C146.09,-304.58 151.80,-307.75 160.49,-307.57ZM200.13,-336.58L199.45,-304.86L215.67,-304.51L215.21,-283.13L199.00,-283.48L197.64,-219.57C197.56,-215.58 197.45,-210.41 198.30,-206.16C199.15,-201.91 200.95,-198.35 204.71,-198.27C206.59,-198.23 208.95,-198.41 210.60,-198.61C211.54,-198.83 212.48,-198.81 213.43,-199.02L212.93,-175.76C211.75,-175.55 210.57,-175.11 209.39,-174.90C207.03,-174.48 203.97,-174.31 200.21,-174.39C186.35,-174.68 179.92,-181.87 176.82,-190.87C173.72,-199.87 173.71,-210.68 173.87,-218.20L175.27,-283.98L163.29,-284.24L163.74,-305.62L175.73,-305.36L176.40,-337.08ZM249.35,-175.22L225.62,-175.73L229.29,-348.41L253.02,-347.91L251.85,-292.93C252.33,-293.16 253.29,-294.08 254.73,-295.46C257.37,-297.99 260.97,-301.44 265.25,-303.69C267.38,-304.82 269.27,-305.25 271.39,-305.21C277.73,-305.07 282.12,-301.22 284.84,-296.46C287.55,-291.47 288.83,-285.09 288.71,-279.69L286.47,-174.43L262.74,-174.94L264.91,-276.67C265.01,-281.60 262.21,-282.37 259.39,-282.43C256.80,-282.48 255.36,-281.10 253.68,-279.49C252.96,-278.57 252.23,-277.65 251.50,-276.49Z" fill="#ffffff" stroke="#000000"/>
    <path d="M-403.09,-185.82L-398.86,-356.65L-376.78,-356.10C-361.90,-355.73 -350.35,-352.66 -342.86,-345.26C-335.37,-337.87 -331.69,-326.61 -332.11,-309.64C-332.31,-301.51 -333.16,-295.48 -335.86,-289.97C-338.55,-284.45 -342.62,-279.90 -348.56,-274.70C-342.37,-271.06 -337.88,-264.44 -334.44,-253.42C-332.71,-248.03 -331.95,-241.03 -332.17,-232.43C-332.48,-219.65 -335.09,-208.32 -341.12,-199.63C-347.15,-190.94 -357.29,-185.38 -372.18,-185.05ZM-375.50,-285.60C-373.41,-285.55 -368.53,-285.20 -364.28,-287.88C-360.03,-290.57 -356.64,-296.07 -356.34,-307.92C-356.05,-319.77 -359.16,-325.43 -363.28,-328.32C-367.39,-331.22 -372.28,-331.11 -374.37,-331.16ZM-377.37,-210.06C-375.28,-210.01 -370.41,-209.43 -366.15,-212.34C-361.89,-215.26 -358.47,-221.92 -358.13,-235.87C-357.78,-249.81 -360.87,-256.63 -364.98,-259.76C-369.09,-262.88 -373.98,-262.54 -376.07,-262.59ZM-279.08,-309.96L-255.60,-309.38L-258.75,-182.24L-282.23,-182.82L-281.96,-193.51C-282.43,-193.29 -283.39,-192.38 -284.58,-191.25C-287.44,-188.53 -290.77,-185.36 -295.01,-183.14C-297.13,-182.03 -299.24,-181.38 -301.33,-181.43C-307.61,-181.59 -311.93,-185.42 -314.60,-190.37C-317.28,-195.08 -318.52,-201.39 -318.38,-206.74L-315.80,-310.87L-292.33,-310.29L-294.82,-209.64C-294.94,-204.76 -292.17,-204.00 -289.38,-203.93C-286.82,-203.86 -285.39,-205.22 -283.73,-206.81C-283.01,-207.49 -282.29,-208.64 -281.56,-209.78ZM-235.93,-352.61L-212.45,-352.03L-213.03,-328.55L-236.51,-329.14ZM-240.16,-181.78L-237.01,-308.92L-213.53,-308.33L-216.68,-181.19ZM-198.09,-180.73L-193.86,-351.57L-170.38,-350.99L-174.61,-180.15ZM-96.75,-178.22L-120.23,-178.80L-120.02,-187.17C-124.06,-183.55 -127.62,-180.85 -132.09,-178.87C-134.44,-177.76 -136.77,-177.35 -138.87,-177.41C-145.37,-177.57 -149.70,-181.40 -152.37,-186.35C-155.27,-191.07 -156.51,-197.38 -156.38,-202.72L-154.37,-283.84C-154.24,-289.19 -152.69,-295.43 -149.54,-300.24C-146.64,-304.81 -142.13,-308.42 -135.62,-308.26C-131.21,-308.15 -126.62,-305.48 -123.20,-302.84C-121.15,-301.16 -119.33,-299.49 -117.28,-297.57L-115.99,-349.64L-92.52,-349.06ZM-117.77,-278.05C-117.67,-281.77 -121.06,-285.81 -124.55,-285.89C-128.04,-285.98 -130.91,-282.80 -131.01,-278.38L-132.78,-207.02C-132.89,-202.61 -130.18,-199.28 -126.70,-199.20C-123.21,-199.11 -119.64,-202.28 -119.54,-206.70ZM-38.13,-347.71L19.28,-346.29L18.64,-320.49L-13.67,-321.29L-14.78,-276.43L8.47,-275.85L7.79,-248.43L-15.46,-249.00L-16.62,-202.05L15.69,-201.25L15.05,-175.45L-42.36,-176.87ZM66.96,-271.15C67.01,-273.24 67.09,-276.49 66.45,-278.83C65.58,-281.18 63.76,-282.85 60.74,-282.93C56.79,-283.03 55.08,-280.05 54.29,-276.34C54.02,-274.49 53.73,-272.40 53.68,-270.31C53.63,-268.22 53.58,-266.13 53.53,-264.27L30.05,-264.85L30.19,-270.20C30.42,-279.49 34.11,-287.78 39.85,-293.91C45.58,-300.05 53.57,-303.57 62.64,-303.35C70.31,-303.16 77.21,-299.96 82.43,-294.72C87.64,-289.47 90.72,-282.19 90.51,-273.82L88.58,-195.72C88.29,-184.33 88.87,-179.20 89.66,-173.60L66.65,-174.17C64.62,-176.78 64.77,-182.82 64.81,-184.45L63.18,-184.49C61.97,-182.43 59.80,-179.46 56.48,-176.98C53.17,-174.51 48.70,-172.76 44.05,-172.87C41.03,-172.95 36.18,-174.23 32.58,-178.97C28.74,-183.48 25.68,-191.47 26.01,-204.72C26.36,-218.89 30.79,-229.02 36.55,-235.85C42.30,-242.69 49.38,-246.93 55.26,-249.81C61.15,-252.68 65.62,-254.67 66.61,-257.20ZM66.08,-235.59C54.57,-230.99 49.40,-219.72 49.10,-207.63C49.06,-206.01 49.23,-203.21 50.09,-200.63C50.95,-197.82 52.53,-195.69 55.32,-195.62C60.66,-195.48 65.16,-198.63 65.27,-203.05ZM153.57,-275.05C151.50,-275.80 149.18,-276.09 147.08,-276.14C143.37,-276.23 138.94,-275.87 135.13,-272.48C130.62,-268.87 129.83,-264.94 129.73,-260.99L127.54,-172.66L104.07,-173.24L107.22,-300.38L130.69,-299.80L130.34,-285.62C130.62,-287.24 132.34,-291.16 136.15,-294.78C139.96,-298.18 145.62,-301.29 154.22,-301.08ZM193.53,-329.64L192.75,-298.26L208.79,-297.87L208.27,-276.71L192.23,-277.11L190.66,-213.89C190.56,-209.94 190.44,-204.83 191.26,-200.62C192.09,-196.41 193.86,-192.88 197.58,-192.79C199.44,-192.74 201.77,-192.92 203.40,-193.11C204.34,-193.32 205.27,-193.30 206.20,-193.50L205.63,-170.49C204.46,-170.29 203.29,-169.85 202.12,-169.65C199.79,-169.24 196.76,-169.09 193.04,-169.18C179.33,-169.52 172.99,-176.65 169.96,-185.57C166.92,-194.48 166.96,-205.18 167.14,-212.61L168.75,-277.69L156.90,-277.99L157.42,-299.14L169.28,-298.84L170.05,-330.22ZM241.66,-169.83L218.19,-170.42L222.42,-341.25L245.90,-340.67L244.55,-286.28C245.02,-286.50 245.97,-287.41 247.40,-288.77C250.02,-291.26 253.60,-294.66 257.84,-296.88C259.96,-297.99 261.83,-298.41 263.92,-298.36C270.20,-298.20 274.52,-294.38 277.19,-289.66C279.86,-284.71 281.10,-278.40 280.97,-273.05L278.39,-168.92L254.91,-169.51L257.41,-270.15C257.53,-275.03 254.76,-275.79 251.97,-275.86C249.41,-275.93 247.98,-274.57 246.31,-272.98C245.59,-272.07 244.87,-271.16 244.15,-270.01Z" fill="#ffffff" stroke="#000000"/>
    <path d="M-403.70,-182.63L-398.91,-351.61L-377.07,-350.99C-362.36,-350.57 -350.94,-347.49 -343.56,-340.15C-336.17,-332.80 -332.57,-321.66 -333.05,-304.87C-333.28,-296.83 -334.14,-290.87 -336.82,-285.42C-339.51,-279.98 -343.55,-275.49 -349.44,-270.36C-343.33,-266.74 -338.92,-260.17 -335.55,-249.26C-333.86,-243.92 -333.13,-237.00 -333.37,-228.49C-333.73,-215.85 -336.35,-204.65 -342.34,-196.07C-348.34,-187.50 -358.39,-182.03 -373.12,-181.76ZM-376.06,-281.24C-373.99,-281.18 -369.17,-280.82 -364.95,-283.46C-360.73,-286.10 -357.36,-291.53 -357.03,-303.25C-356.69,-314.98 -359.76,-320.59 -363.82,-323.46C-367.88,-326.34 -372.71,-326.25 -374.78,-326.30ZM-378.17,-206.52C-376.10,-206.46 -371.29,-205.87 -367.07,-208.74C-362.84,-211.61 -359.44,-218.19 -359.04,-231.98C-358.65,-245.77 -361.68,-252.53 -365.74,-255.64C-369.79,-258.75 -374.63,-258.42 -376.70,-258.48ZM-280.59,-305.00L-257.37,-304.34L-260.93,-178.58L-284.15,-179.24L-283.85,-189.81C-284.32,-189.60 -285.26,-188.70 -286.44,-187.59C-289.28,-184.91 -292.59,-181.78 -296.79,-179.60C-298.90,-178.51 -300.98,-177.87 -303.05,-177.93C-309.26,-178.11 -313.52,-181.91 -316.15,-186.82C-318.78,-191.49 -319.98,-197.74 -319.83,-203.03L-316.91,-306.03L-293.69,-305.37L-296.51,-205.82C-296.65,-200.99 -293.91,-200.22 -291.15,-200.14C-288.62,-200.07 -287.20,-201.41 -285.55,-202.98C-284.84,-203.65 -284.12,-204.78 -283.39,-205.91ZM-237.75,-347.04L-214.53,-346.38L-215.19,-323.16L-238.41,-323.82ZM-242.54,-178.06L-238.97,-303.82L-215.75,-303.16L-219.31,-177.40ZM-200.92,-176.88L-196.13,-345.86L-172.91,-345.20L-177.70,-176.22ZM-100.68,-174.04L-123.90,-174.70L-123.67,-182.98C-127.68,-179.41 -131.21,-176.75 -135.63,-174.80C-137.97,-173.72 -140.28,-173.32 -142.35,-173.38C-148.78,-173.56 -153.05,-177.37 -155.67,-182.27C-158.53,-186.95 -159.73,-193.20 -159.58,-198.49L-157.31,-278.73C-157.16,-284.01 -155.61,-290.18 -152.48,-294.93C-149.59,-299.45 -145.12,-303.00 -138.68,-302.82C-134.31,-302.69 -129.79,-300.04 -126.41,-297.41C-124.39,-295.74 -122.59,-294.08 -120.57,-292.18L-119.12,-343.68L-95.89,-343.02ZM-121.12,-272.87C-121.02,-276.55 -124.36,-280.55 -127.80,-280.65C-131.25,-280.75 -134.10,-277.61 -134.23,-273.24L-136.23,-202.66C-136.35,-198.29 -133.68,-194.99 -130.23,-194.90C-126.78,-194.80 -123.24,-197.92 -123.12,-202.29ZM-42.10,-341.50L14.69,-339.89L13.97,-314.37L-17.99,-315.28L-19.25,-270.90L3.74,-270.25L2.98,-243.12L-20.01,-243.77L-21.33,-197.33L10.63,-196.43L9.90,-170.91L-46.88,-172.52ZM61.59,-265.39C61.65,-267.46 61.74,-270.68 61.12,-273.00C60.26,-275.32 58.47,-276.99 55.48,-277.07C51.57,-277.18 49.88,-274.24 49.08,-270.58C48.80,-268.75 48.51,-266.68 48.45,-264.61C48.39,-262.54 48.34,-260.48 48.28,-258.64L25.06,-259.29L25.21,-264.58C25.47,-273.78 29.16,-281.96 34.85,-288.01C40.54,-294.06 48.46,-297.52 57.43,-297.26C65.02,-297.05 71.83,-293.86 76.97,-288.66C82.12,-283.45 85.14,-276.23 84.90,-267.95L82.71,-190.70C82.39,-179.44 82.94,-174.36 83.70,-168.82L60.94,-169.46C58.95,-172.05 59.12,-178.03 59.16,-179.64L57.55,-179.68C56.34,-177.65 54.19,-174.72 50.90,-172.28C47.61,-169.84 43.19,-168.12 38.59,-168.25C35.60,-168.34 30.81,-169.63 27.26,-174.33C23.47,-178.81 20.48,-186.72 20.85,-199.82C21.24,-213.84 25.67,-223.84 31.38,-230.58C37.10,-237.32 44.12,-241.50 49.95,-244.32C55.78,-247.15 60.21,-249.09 61.20,-251.60ZM60.59,-230.22C49.19,-225.71 44.04,-214.58 43.71,-202.62C43.66,-201.01 43.81,-198.25 44.66,-195.69C45.50,-192.91 47.05,-190.79 49.81,-190.72C55.10,-190.57 59.56,-193.66 59.68,-198.03ZM147.29,-268.95C145.24,-269.70 142.94,-269.99 140.87,-270.05C137.20,-270.15 132.81,-269.82 129.04,-266.47C124.57,-262.92 123.76,-259.03 123.65,-255.12L121.18,-167.76L97.96,-168.41L101.52,-294.17L124.74,-293.52L124.34,-279.49C124.62,-281.09 126.34,-284.96 130.12,-288.53C133.90,-291.88 139.51,-294.94 148.01,-294.70ZM187.01,-322.81L186.13,-291.78L201.99,-291.33L201.40,-270.41L185.53,-270.85L183.76,-208.32C183.65,-204.41 183.51,-199.35 184.31,-195.19C185.11,-191.02 186.86,-187.52 190.53,-187.42C192.37,-187.37 194.68,-187.53 196.29,-187.72C197.22,-187.92 198.14,-187.89 199.07,-188.10L198.42,-165.34C197.27,-165.14 196.10,-164.71 194.95,-164.52C192.63,-164.12 189.64,-163.98 185.96,-164.08C172.40,-164.46 166.15,-171.54 163.18,-180.37C160.21,-189.20 160.28,-199.78 160.49,-207.14L162.31,-271.51L150.59,-271.84L151.18,-292.77L162.91,-292.43L163.79,-323.47ZM234.06,-164.56L210.84,-165.22L215.63,-334.20L238.85,-333.54L237.33,-279.74C237.79,-279.96 238.74,-280.85 240.16,-282.19C242.76,-284.65 246.30,-288.00 250.51,-290.18C252.61,-291.27 254.46,-291.68 256.53,-291.62C262.74,-291.45 267.00,-287.64 269.63,-282.97C272.25,-278.06 273.46,-271.82 273.31,-266.53L270.39,-163.53L247.17,-164.19L249.99,-263.74C250.13,-268.56 247.39,-269.33 244.63,-269.41C242.10,-269.48 240.68,-268.14 239.02,-266.58C238.31,-265.68 237.59,-264.78 236.87,-263.65Z" fill="#ffffff" stroke="#000000"/>
    <path d="M-404.21,-179.50L-398.89,-346.63L-377.29,-345.94C-362.73,-345.47 -351.45,-342.38 -344.17,-335.09C-336.89,-327.81 -333.38,-316.77 -333.90,-300.17C-334.16,-292.21 -335.03,-286.32 -337.70,-280.94C-340.38,-275.57 -344.39,-271.14 -350.24,-266.09C-344.21,-262.49 -339.87,-255.97 -336.57,-245.17C-334.92,-239.88 -334.22,-233.03 -334.49,-224.62C-334.89,-212.11 -337.52,-201.04 -343.48,-192.58C-349.44,-184.13 -359.40,-178.75 -373.97,-178.53ZM-376.53,-276.95C-374.48,-276.88 -369.71,-276.50 -365.53,-279.10C-361.35,-281.70 -357.99,-287.05 -357.63,-298.65C-357.26,-310.25 -360.27,-315.80 -364.27,-318.66C-368.28,-321.52 -373.06,-321.45 -375.11,-321.51ZM-378.88,-203.05C-376.84,-202.98 -372.07,-202.37 -367.89,-205.20C-363.70,-208.02 -360.31,-214.52 -359.87,-228.16C-359.44,-241.80 -362.41,-248.50 -366.41,-251.59C-370.41,-254.67 -375.20,-254.37 -377.24,-254.43ZM-282.01,-300.11L-259.04,-299.38L-263.01,-175.00L-285.97,-175.73L-285.64,-186.19C-286.10,-185.98 -287.04,-185.10 -288.21,-183.99C-291.03,-181.35 -294.32,-178.27 -298.48,-176.13C-300.56,-175.06 -302.63,-174.44 -304.68,-174.50C-310.82,-174.70 -315.02,-178.48 -317.60,-183.34C-320.18,-187.97 -321.35,-194.16 -321.18,-199.39L-317.94,-301.25L-294.97,-300.52L-298.11,-202.06C-298.26,-197.29 -295.55,-196.52 -292.83,-196.43C-290.32,-196.35 -288.92,-197.67 -287.27,-199.22C-286.57,-199.88 -285.85,-200.99 -285.13,-202.11ZM-239.49,-341.55L-216.53,-340.81L-217.26,-317.85L-240.22,-318.58ZM-244.82,-174.42L-240.85,-298.80L-217.89,-298.06L-221.85,-173.69ZM-203.66,-173.11L-198.33,-340.23L-175.37,-339.50L-180.70,-172.37ZM-104.52,-169.95L-127.49,-170.68L-127.23,-178.86C-131.21,-175.35 -134.71,-172.73 -139.09,-170.82C-141.40,-169.76 -143.69,-169.37 -145.74,-169.44C-152.10,-169.64 -156.31,-173.42 -158.88,-178.28C-161.69,-182.92 -162.86,-189.10 -162.70,-194.33L-160.17,-273.69C-160.00,-278.92 -158.44,-285.02 -155.33,-289.70C-152.46,-294.16 -148.02,-297.66 -141.66,-297.46C-137.34,-297.32 -132.87,-294.67 -129.54,-292.06C-127.54,-290.41 -125.77,-288.76 -123.78,-286.87L-122.16,-337.81L-99.19,-337.07ZM-124.39,-267.77C-124.28,-271.41 -127.56,-275.38 -130.98,-275.49C-134.39,-275.60 -137.22,-272.50 -137.35,-268.18L-139.58,-198.38C-139.72,-194.06 -137.09,-190.79 -133.68,-190.68C-130.27,-190.57 -126.76,-193.64 -126.62,-197.96ZM-45.99,-335.38L10.18,-333.59L9.37,-308.35L-22.23,-309.36L-23.63,-265.47L-0.89,-264.75L-1.75,-237.91L-24.49,-238.64L-25.95,-192.71L5.65,-191.70L4.85,-166.46L-51.31,-168.25ZM56.31,-259.74C56.37,-261.78 56.47,-264.97 55.86,-267.26C55.03,-269.56 53.26,-271.21 50.30,-271.31C46.44,-271.43 44.75,-268.53 43.95,-264.91C43.67,-263.10 43.37,-261.06 43.31,-259.01C43.24,-256.97 43.18,-254.92 43.12,-253.10L20.15,-253.83L20.32,-259.06C20.61,-268.16 24.28,-276.23 29.93,-282.20C35.59,-288.17 43.43,-291.56 52.30,-291.27C59.81,-291.04 66.53,-287.86 71.60,-282.69C76.67,-277.52 79.63,-270.37 79.37,-262.19L76.94,-185.79C76.58,-174.64 77.11,-169.62 77.84,-164.13L55.33,-164.85C53.36,-167.42 53.55,-173.33 53.60,-174.92L52.01,-174.97C50.81,-172.96 48.67,-170.07 45.40,-167.67C42.14,-165.27 37.76,-163.59 33.22,-163.73C30.26,-163.83 25.52,-165.12 22.03,-169.78C18.30,-174.23 15.36,-182.06 15.78,-195.02C16.22,-208.89 20.63,-218.76 26.30,-225.41C31.98,-232.06 38.94,-236.16 44.72,-238.94C50.50,-241.71 54.88,-243.62 55.87,-246.09ZM55.20,-224.95C43.90,-220.53 38.77,-209.54 38.40,-197.71C38.34,-196.12 38.49,-193.38 39.31,-190.85C40.14,-188.10 41.66,-186.00 44.39,-185.91C49.62,-185.75 54.04,-188.79 54.18,-193.11ZM141.08,-262.95C139.06,-263.70 136.79,-264.00 134.74,-264.06C131.10,-264.18 126.77,-263.86 123.02,-260.57C118.59,-257.07 117.78,-253.22 117.66,-249.36L114.90,-162.95L91.94,-163.68L95.90,-288.06L118.87,-287.33L118.43,-273.46C118.70,-275.05 120.42,-278.86 124.17,-282.38C127.92,-285.68 133.48,-288.69 141.89,-288.42ZM180.56,-316.09L179.58,-285.40L195.27,-284.90L194.61,-264.20L178.92,-264.70L176.95,-202.86C176.83,-198.99 176.67,-193.99 177.45,-189.87C178.23,-185.74 179.94,-182.28 183.57,-182.16C185.39,-182.10 187.67,-182.26 189.27,-182.43C190.19,-182.63 191.10,-182.60 192.02,-182.80L191.30,-160.29C190.15,-160.10 189.00,-159.68 187.86,-159.49C185.57,-159.11 182.61,-158.97 178.97,-159.09C165.55,-159.52 159.40,-166.54 156.50,-175.28C153.59,-184.03 153.69,-194.49 153.93,-201.77L155.95,-265.44L144.36,-265.81L145.02,-286.50L156.61,-286.13L157.59,-316.83ZM226.55,-159.39L203.58,-160.13L208.91,-327.25L231.88,-326.52L230.18,-273.31C230.64,-273.53 231.58,-274.41 232.99,-275.73C235.57,-278.15 239.09,-281.45 243.26,-283.59C245.34,-284.67 247.17,-285.06 249.22,-285.00C255.36,-284.80 259.56,-281.03 262.15,-276.39C264.72,-271.53 265.89,-265.35 265.72,-260.12L262.48,-158.25L239.51,-158.98L242.65,-257.44C242.80,-262.21 240.09,-262.98 237.37,-263.07C234.86,-263.15 233.46,-261.83 231.81,-260.29C231.10,-259.40 230.39,-258.51 229.67,-257.40Z" fill="#ffffff" stroke="#000000"/>
    <path d="M-404.63,-176.43L-398.78,-341.70L-377.42,-340.95C-363.03,-340.44 -351.88,-337.34 -344.71,-330.11C-337.53,-322.87 -334.09,-311.95 -334.67,-295.53C-334.95,-287.66 -335.83,-281.84 -338.50,-276.53C-341.16,-271.22 -345.15,-266.86 -350.95,-261.89C-345.00,-258.30 -340.72,-251.84 -337.50,-241.15C-335.89,-235.91 -335.23,-229.13 -335.52,-220.81C-335.96,-208.45 -338.60,-197.51 -344.52,-189.16C-350.44,-180.82 -360.31,-175.54 -374.73,-175.37ZM-376.91,-272.71C-374.88,-272.64 -370.17,-272.25 -366.03,-274.80C-361.88,-277.36 -358.55,-282.64 -358.14,-294.11C-357.73,-305.58 -360.69,-311.09 -364.64,-313.93C-368.59,-316.77 -373.32,-316.71 -375.35,-316.78ZM-379.50,-199.63C-377.47,-199.56 -372.77,-198.94 -368.62,-201.72C-364.47,-204.50 -361.09,-210.91 -360.61,-224.40C-360.13,-237.90 -363.05,-244.53 -366.99,-247.59C-370.94,-250.66 -375.67,-250.38 -377.70,-250.45ZM-283.35,-295.29L-260.64,-294.48L-265.00,-171.49L-287.71,-172.29L-287.34,-182.63C-287.80,-182.43 -288.73,-181.56 -289.89,-180.47C-292.69,-177.87 -295.95,-174.83 -300.07,-172.73C-302.14,-171.68 -304.19,-171.07 -306.21,-171.15C-312.28,-171.36 -316.43,-175.11 -318.96,-179.93C-321.50,-184.52 -322.63,-190.64 -322.45,-195.81L-318.88,-296.55L-296.17,-295.74L-299.62,-198.38C-299.78,-193.66 -297.11,-192.89 -294.41,-192.79C-291.94,-192.70 -290.54,-194.01 -288.91,-195.52C-288.21,-196.17 -287.50,-197.27 -286.78,-198.37ZM-241.15,-336.12L-218.44,-335.32L-219.25,-312.61L-241.96,-313.41ZM-247.01,-170.85L-242.65,-293.85L-219.94,-293.04L-224.30,-170.05ZM-206.31,-169.41L-200.45,-334.68L-177.74,-333.88L-183.60,-168.60ZM-108.27,-165.94L-130.98,-166.74L-130.69,-174.84C-134.64,-171.37 -138.11,-168.79 -142.46,-166.92C-144.74,-165.88 -147.01,-165.51 -149.03,-165.58C-155.33,-165.80 -159.47,-169.55 -162.00,-174.37C-164.77,-178.97 -165.90,-185.09 -165.72,-190.26L-162.94,-268.74C-162.76,-273.91 -161.19,-279.93 -158.10,-284.55C-155.25,-288.95 -150.85,-292.40 -144.55,-292.17C-140.28,-292.02 -135.87,-289.39 -132.58,-286.80C-130.61,-285.15 -128.87,-283.51 -126.91,-281.64L-125.13,-332.01L-102.42,-331.21ZM-127.58,-262.76C-127.45,-266.35 -130.69,-270.30 -134.06,-270.41C-137.44,-270.53 -140.25,-267.48 -140.40,-263.21L-142.84,-194.18C-142.99,-189.91 -140.41,-186.66 -137.03,-186.54C-133.66,-186.42 -130.18,-189.45 -130.02,-193.72ZM-49.80,-329.34L5.74,-327.38L4.86,-302.42L-26.40,-303.52L-27.94,-260.13L-5.45,-259.33L-6.39,-232.80L-28.88,-233.59L-30.48,-188.17L0.77,-187.06L-0.11,-162.11L-55.65,-164.07ZM51.10,-254.18C51.18,-256.20 51.29,-259.35 50.69,-261.62C49.87,-263.90 48.13,-265.54 45.21,-265.64C41.38,-265.78 39.71,-262.91 38.90,-259.34C38.61,-257.54 38.32,-255.53 38.25,-253.51C38.17,-251.48 38.10,-249.46 38.04,-247.66L15.33,-248.46L15.51,-253.63C15.83,-262.63 19.49,-270.60 25.10,-276.48C30.71,-282.36 38.49,-285.69 47.26,-285.38C54.68,-285.12 61.32,-281.96 66.31,-276.83C71.31,-271.70 74.21,-264.61 73.93,-256.52L71.25,-180.97C70.86,-169.95 71.36,-164.98 72.07,-159.55L49.81,-160.34C47.87,-162.88 48.08,-168.73 48.13,-170.30L46.56,-170.36C45.36,-168.37 43.24,-165.52 40.00,-163.16C36.76,-160.80 32.43,-159.15 27.93,-159.31C25.01,-159.41 20.33,-160.71 16.89,-165.33C13.22,-169.74 10.34,-177.50 10.79,-190.31C11.28,-204.03 15.68,-213.78 21.31,-220.33C26.95,-226.89 33.84,-230.92 39.57,-233.65C45.29,-236.37 49.64,-238.24 50.63,-240.68ZM49.88,-219.77C38.70,-215.44 33.59,-204.59 33.17,-192.90C33.12,-191.32 33.25,-188.62 34.06,-186.11C34.86,-183.38 36.36,-181.30 39.06,-181.21C44.23,-181.02 48.62,-184.02 48.77,-188.29ZM134.96,-257.06C132.96,-257.81 130.72,-258.11 128.69,-258.18C125.10,-258.31 120.81,-258.01 117.09,-254.77C112.69,-251.32 111.88,-247.52 111.75,-243.70L108.72,-158.25L86.01,-159.06L90.36,-282.05L113.08,-281.25L112.59,-267.53C112.87,-269.10 114.58,-272.87 118.30,-276.34C122.02,-279.58 127.53,-282.54 135.85,-282.24ZM174.19,-309.48L173.11,-279.12L188.63,-278.57L187.90,-258.11L172.39,-258.66L170.22,-197.50C170.09,-193.68 169.91,-188.73 170.67,-184.65C171.42,-180.57 173.10,-177.13 176.70,-177.01C178.50,-176.94 180.76,-177.09 182.34,-177.26C183.25,-177.45 184.14,-177.42 185.05,-177.61L184.26,-155.35C183.13,-155.17 181.99,-154.76 180.86,-154.57C178.59,-154.20 175.66,-154.08 172.07,-154.21C158.80,-154.68 152.74,-161.65 149.90,-170.30C147.05,-178.96 147.19,-189.31 147.45,-196.50L149.68,-259.46L138.21,-259.87L138.93,-280.33L150.40,-279.93L151.48,-310.28ZM219.13,-154.34L196.41,-155.15L202.27,-320.42L224.98,-319.61L223.11,-267.00C223.57,-267.20 224.50,-268.07 225.90,-269.37C228.46,-271.76 231.95,-275.01 236.08,-277.12C238.14,-278.17 239.96,-278.56 241.98,-278.48C248.05,-278.27 252.20,-274.52 254.74,-269.93C257.27,-265.11 258.40,-258.99 258.22,-253.82L254.65,-153.08L231.94,-153.89L235.39,-251.25C235.56,-255.97 232.88,-256.74 230.18,-256.84C227.71,-256.93 226.31,-255.62 224.68,-254.11C223.98,-253.23 223.27,-252.36 222.56,-251.26Z" fill="#ffffff" stroke="#000000"/>
    <path d="M-911.48,464.07L-907.38,464.07L-907.38,488.20L-901.94,488.20L-901.94,492L-911.48,492ZM-890.66,484.55L-890.66,486.95C-890.77,488.96 -891.38,490.37 -892.75,491.47C-893.43,492.04 -894.38,492.30 -895.63,492.30C-898.10,492.30 -899.36,490.94 -899.97,489.57C-900.31,488.77 -900.54,487.86 -900.57,486.83L-900.57,476.38C-900.46,474.37 -899.81,472.89 -898.45,471.75C-897.80,471.18 -896.85,470.91 -895.60,470.91C-893.13,470.91 -891.87,472.28 -891.26,473.61C-890.92,474.41 -890.69,475.28 -890.66,476.27L-890.66,482.31L-897.00,482.31L-897.00,486.83C-896.96,487.63 -896.74,488.20 -896.39,488.62C-896.20,488.81 -895.94,488.92 -895.60,488.92C-894.87,488.92 -894.53,488.47 -894.38,487.90C-894.27,487.59 -894.23,487.25 -894.23,486.83L-894.23,484.55ZM-897.00,479.31L-894.23,479.31L-894.23,476.38C-894.23,475.58 -894.38,475.01 -894.76,474.56C-894.95,474.37 -895.25,474.25 -895.60,474.25C-896.32,474.25 -896.62,474.75 -896.81,475.32C-896.93,475.62 -896.96,475.96 -897.00,476.38ZM-882.22,476.15C-882.22,475.81 -882.22,475.28 -882.33,474.90C-882.49,474.52 -882.79,474.25 -883.28,474.25C-883.93,474.25 -884.20,474.75 -884.31,475.36C-884.35,475.66 -884.39,476.00 -884.39,476.34C-884.39,476.69 -884.39,477.03 -884.39,477.33L-888.22,477.33L-888.22,476.46C-888.22,474.94 -887.65,473.57 -886.74,472.54C-885.83,471.52 -884.54,470.91 -883.06,470.91C-881.80,470.91 -880.66,471.40 -879.79,472.24C-878.91,473.08 -878.38,474.25 -878.38,475.62L-878.38,488.39C-878.38,490.25 -878.27,491.09 -878.12,492L-881.88,492C-882.22,491.58 -882.22,490.59 -882.22,490.33L-882.49,490.33C-882.68,490.67 -883.02,491.16 -883.55,491.58C-884.08,492 -884.80,492.30 -885.56,492.30C-886.06,492.30 -886.86,492.11 -887.46,491.35C-888.11,490.63 -888.64,489.34 -888.64,487.17C-888.64,484.86 -887.96,483.18 -887.05,482.04C-886.13,480.90 -884.99,480.18 -884.04,479.69C-883.09,479.19 -882.37,478.85 -882.22,478.43ZM-882.22,481.97C-884.08,482.77 -884.88,484.63 -884.88,486.60C-884.88,486.87 -884.84,487.33 -884.69,487.74C-884.54,488.20 -884.27,488.54 -883.82,488.54C-882.94,488.54 -882.22,488.01 -882.22,487.29ZM-866.37,481.97C-866.49,483.91 -867.17,485.27 -868.50,486.30C-869.19,486.83 -870.14,487.10 -871.31,487.10C-871.43,487.10 -871.54,487.10 -871.66,487.10C-871.77,487.10 -871.92,487.10 -872.04,487.06C-872.38,487.36 -872.57,487.67 -872.57,488.01C-872.57,488.47 -872.19,488.73 -871.62,488.88C-871.05,489.07 -870.36,489.19 -869.64,489.30C-868.43,489.45 -867.13,489.76 -866.07,490.48C-865.04,491.20 -864.32,492.30 -864.32,494.13C-864.32,496.14 -865.20,497.51 -866.41,498.31C-867.67,499.11 -869.34,499.45 -870.90,499.45C-872.72,499.41 -874.28,499.14 -875.34,498.54C-876.44,497.93 -877.05,496.94 -877.05,495.42C-877.05,494.70 -876.67,494.09 -876.10,493.56C-875.53,493.03 -874.77,492.61 -874.05,492.27C-875.30,491.92 -876.37,491.13 -876.37,489.49C-876.37,488.88 -876.03,488.28 -875.57,487.71C-875.11,487.14 -874.54,486.68 -873.97,486.38C-875.08,485.65 -875.61,484.51 -875.87,483.56C-876.03,482.99 -876.14,482.42 -876.18,481.85L-876.18,476.19C-876.03,474.25 -875.42,472.85 -874.09,471.75C-873.44,471.18 -872.49,470.91 -871.31,470.91C-869.38,470.91 -868.20,471.78 -867.48,472.81C-867.21,472.54 -866.75,472.09 -866.15,471.67C-865.58,471.25 -864.93,470.91 -864.32,470.91L-864.32,474.33C-865.35,474.33 -866.11,474.52 -866.56,474.79C-866.53,474.98 -866.49,475.17 -866.45,475.28C-866.45,475.43 -866.45,475.58 -866.41,475.70C-866.37,475.81 -866.37,475.96 -866.37,476.08ZM-870.14,476.34C-870.14,475.62 -870.29,475.17 -870.59,474.75C-870.74,474.56 -870.97,474.44 -871.31,474.44C-871.92,474.44 -872.23,474.94 -872.34,475.39C-872.42,475.66 -872.45,476.00 -872.42,476.34L-872.42,482.04C-872.45,482.77 -872.34,483.22 -872.00,483.60C-871.85,483.79 -871.62,483.91 -871.31,483.91C-870.67,483.91 -870.40,483.45 -870.25,482.99C-870.17,482.73 -870.14,482.39 -870.14,482.04ZM-871.92,492.95C-872.72,493.41 -873.33,493.98 -873.33,494.77C-873.33,495.57 -872.61,496.22 -870.82,496.22C-870.17,496.22 -869.45,496.10 -868.88,495.88C-868.31,495.65 -867.89,495.31 -867.89,494.81C-867.89,494.47 -867.93,494.20 -868.20,493.94C-868.50,493.67 -869.00,493.48 -869.95,493.33ZM-856.84,471.21L-853.00,471.21L-853.00,492L-856.84,492L-856.84,490.25C-856.91,490.29 -857.06,490.44 -857.25,490.63C-857.71,491.09 -858.24,491.62 -858.93,492C-859.27,492.19 -859.61,492.30 -859.95,492.30C-860.98,492.30 -861.70,491.70 -862.16,490.90C-862.61,490.14 -862.84,489.11 -862.84,488.24L-862.84,471.21L-859.00,471.21L-859.00,487.67C-859.00,488.47 -858.55,488.58 -858.09,488.58C-857.67,488.58 -857.44,488.35 -857.18,488.09C-857.06,487.97 -856.95,487.78 -856.84,487.59ZM-840.34,484.55L-840.34,486.95C-840.46,488.96 -841.07,490.37 -842.43,491.47C-843.12,492.04 -844.07,492.30 -845.32,492.30C-847.79,492.30 -849.05,490.94 -849.65,489.57C-850.00,488.77 -850.22,487.86 -850.26,486.83L-850.26,476.38C-850.15,474.37 -849.50,472.89 -848.13,471.75C-847.49,471.18 -846.54,470.91 -845.28,470.91C-842.81,470.91 -841.56,472.28 -840.95,473.61C-840.61,474.41 -840.38,475.28 -840.34,476.27L-840.34,482.31L-846.69,482.31L-846.69,486.83C-846.65,487.63 -846.42,488.20 -846.08,488.62C-845.89,488.81 -845.63,488.92 -845.28,488.92C-844.56,488.92 -844.22,488.47 -844.07,487.90C-843.95,487.59 -843.92,487.25 -843.92,486.83L-843.92,484.55ZM-846.69,479.31L-843.92,479.31L-843.92,476.38C-843.92,475.58 -844.07,475.01 -844.45,474.56C-844.64,474.37 -844.94,474.25 -845.28,474.25C-846.01,474.25 -846.31,474.75 -846.50,475.32C-846.61,475.62 -846.65,475.96 -846.69,476.38ZM-831.15,474.10L-831.15,469.81C-831.15,469.05 -831.30,468.52 -831.68,468.06C-831.87,467.87 -832.17,467.76 -832.52,467.76C-833.24,467.76 -833.58,468.29 -833.73,468.78C-833.85,469.09 -833.88,469.43 -833.88,469.81L-833.88,486.60C-833.88,487.40 -833.69,487.93 -833.31,488.35C-833.12,488.54 -832.86,488.66 -832.52,488.66C-831.79,488.66 -831.45,488.20 -831.30,487.63C-831.19,487.36 -831.15,487.02 -831.15,486.60L-831.15,481.55L-832.78,481.55L-832.78,478.09L-827.04,478.09L-827.04,492L-829.48,492L-829.97,490.67C-830.73,491.62 -831.83,492.30 -833.16,492.30C-834.49,492.30 -835.40,491.96 -836.09,491.35C-836.77,490.78 -837.23,490.06 -837.53,489.30C-837.87,488.43 -838.03,487.40 -837.99,486.26L-837.99,469.81C-837.95,468.71 -837.72,467.68 -837.30,466.81C-836.96,466.05 -836.47,465.29 -835.71,464.72C-834.95,464.15 -833.88,463.77 -832.52,463.77C-831.15,463.77 -830.12,464.15 -829.36,464.72C-828.60,465.29 -828.07,466.05 -827.73,466.81C-827.31,467.68 -827.08,468.71 -827.04,469.81L-827.04,474.10ZM-814.54,486.95C-814.66,488.96 -815.26,490.37 -816.59,491.47C-817.28,492.04 -818.23,492.30 -819.48,492.30C-821.95,492.30 -823.17,490.94 -823.78,489.57C-824.12,488.77 -824.35,487.86 -824.38,486.83L-824.38,476.38C-824.27,474.37 -823.66,472.89 -822.33,471.75C-821.69,471.18 -820.74,470.91 -819.48,470.91C-817.01,470.91 -815.76,472.28 -815.15,473.61C-814.81,474.41 -814.58,475.28 -814.54,476.27ZM-818.15,476.38C-818.11,475.58 -818.27,475.01 -818.65,474.56C-818.84,474.37 -819.14,474.25 -819.48,474.25C-820.20,474.25 -820.51,474.75 -820.66,475.32C-820.77,475.62 -820.81,475.96 -820.77,476.38L-820.77,486.83C-820.81,487.63 -820.62,488.20 -820.28,488.62C-820.09,488.81 -819.82,488.92 -819.48,488.92C-818.76,488.92 -818.42,488.47 -818.27,487.90C-818.15,487.59 -818.11,487.25 -818.15,486.83ZM-807.21,466.08L-807.21,471.21L-804.59,471.21L-804.59,474.67L-807.21,474.67L-807.21,485.01C-807.21,485.65 -807.21,486.49 -807.06,487.17C-806.90,487.86 -806.60,488.43 -805.99,488.43C-805.69,488.43 -805.31,488.39 -805.04,488.35C-804.89,488.31 -804.74,488.31 -804.59,488.28L-804.59,492.04C-804.78,492.08 -804.97,492.15 -805.16,492.19C-805.54,492.27 -806.03,492.30 -806.64,492.30C-808.88,492.30 -809.94,491.16 -810.48,489.72C-811.01,488.28 -811.05,486.53 -811.05,485.31L-811.05,474.67L-812.98,474.67L-812.98,471.21L-811.05,471.21L-811.05,466.08ZM-798.70,492L-802.53,492L-802.53,464.07L-798.70,464.07L-798.70,472.96C-798.62,472.92 -798.47,472.77 -798.24,472.54C-797.82,472.13 -797.25,471.56 -796.57,471.18C-796.23,470.99 -795.92,470.91 -795.58,470.91C-794.55,470.91 -793.83,471.52 -793.38,472.28C-792.92,473.08 -792.69,474.10 -792.69,474.98L-792.69,492L-796.53,492L-796.53,475.55C-796.53,474.75 -796.99,474.63 -797.44,474.63C-797.86,474.63 -798.09,474.86 -798.35,475.13C-798.47,475.28 -798.58,475.43 -798.70,475.62ZM-789.73,464.07L-785.89,464.07L-785.89,467.91L-789.73,467.91ZM-789.73,492L-789.73,471.21L-785.89,471.21L-785.89,492ZM-779.32,487.21C-779.32,487.97 -779.28,488.88 -778.25,488.88C-777.38,488.88 -777.15,488.47 -777.15,487.21L-777.15,484.32L-773.31,484.32L-773.31,486.34C-773.31,488.66 -773.73,490.14 -774.57,491.05C-775.40,491.96 -776.62,492.30 -778.25,492.30C-779.62,492.30 -780.87,491.92 -781.75,490.97C-782.62,490.02 -783.15,488.47 -783.15,486.15L-783.15,477.07C-783.15,474.75 -782.62,473.19 -781.75,472.24C-780.87,471.29 -779.62,470.91 -778.25,470.91C-776.62,470.91 -775.40,471.25 -774.57,472.16C-773.73,473.08 -773.31,474.56 -773.31,476.88L-773.31,478.51L-777.15,478.51L-777.15,476.00C-777.15,474.75 -777.38,474.33 -778.25,474.33C-779.28,474.33 -779.32,475.24 -779.32,476.00ZM-771.03,479.95L-765.52,479.95L-765.52,483.56L-771.03,483.56ZM-755.30,492L-757.43,480.22L-758.53,480.22L-758.53,492L-762.63,492L-762.63,464.07L-758.53,464.07C-753.63,464.07 -751.54,466.84 -751.54,472.13C-751.54,474.90 -752.26,477.41 -753.82,478.47L-751.20,492ZM-758.53,476.42C-757.96,476.42 -757.20,476.34 -756.59,475.81C-755.98,475.28 -755.49,474.25 -755.49,472.28C-755.49,470.30 -755.98,469.24 -756.59,468.71C-757.20,468.17 -757.96,468.14 -758.53,468.14ZM-739.30,484.55L-739.30,486.95C-739.42,488.96 -740.02,490.37 -741.39,491.47C-742.08,492.04 -743.03,492.30 -744.28,492.30C-746.75,492.30 -748.00,490.94 -748.61,489.57C-748.95,488.77 -749.18,487.86 -749.22,486.83L-749.22,476.38C-749.11,474.37 -748.46,472.89 -747.09,471.75C-746.45,471.18 -745.50,470.91 -744.24,470.91C-741.77,470.91 -740.52,472.28 -739.91,473.61C-739.57,474.41 -739.34,475.28 -739.30,476.27L-739.30,482.31L-745.65,482.31L-745.65,486.83C-745.61,487.63 -745.38,488.20 -745.04,488.62C-744.85,488.81 -744.58,488.92 -744.24,488.92C-743.52,488.92 -743.18,488.47 -743.03,487.90C-742.91,487.59 -742.87,487.25 -742.87,486.83L-742.87,484.55ZM-745.65,479.31L-742.87,479.31L-742.87,476.38C-742.87,475.58 -743.03,475.01 -743.41,474.56C-743.60,474.37 -743.90,474.25 -744.24,474.25C-744.96,474.25 -745.27,474.75 -745.46,475.32C-745.57,475.62 -745.61,475.96 -745.65,476.38ZM-727.29,481.97C-727.41,483.91 -728.09,485.27 -729.42,486.30C-730.11,486.83 -731.06,487.10 -732.23,487.10C-732.35,487.10 -732.46,487.10 -732.58,487.10C-732.69,487.10 -732.84,487.10 -732.96,487.06C-733.30,487.36 -733.49,487.67 -733.49,488.01C-733.49,488.47 -733.11,488.73 -732.54,488.88C-731.97,489.07 -731.28,489.19 -730.56,489.30C-729.35,489.45 -728.05,489.76 -726.99,490.48C-725.96,491.20 -725.24,492.30 -725.24,494.13C-725.24,496.14 -726.12,497.51 -727.33,498.31C-728.59,499.11 -730.26,499.45 -731.82,499.45C-733.64,499.41 -735.20,499.14 -736.26,498.54C-737.36,497.93 -737.97,496.94 -737.97,495.42C-737.97,494.70 -737.59,494.09 -737.02,493.56C-736.45,493.03 -735.69,492.61 -734.97,492.27C-736.22,491.92 -737.29,491.13 -737.29,489.49C-737.29,488.88 -736.95,488.28 -736.49,487.71C-736.03,487.14 -735.46,486.68 -734.89,486.38C-736.00,485.65 -736.53,484.51 -736.79,483.56C-736.95,482.99 -737.06,482.42 -737.10,481.85L-737.10,476.19C-736.95,474.25 -736.34,472.85 -735.01,471.75C-734.36,471.18 -733.41,470.91 -732.23,470.91C-730.30,470.91 -729.12,471.78 -728.40,472.81C-728.13,472.54 -727.67,472.09 -727.07,471.67C-726.50,471.25 -725.85,470.91 -725.24,470.91L-725.24,474.33C-726.27,474.33 -727.03,474.52 -727.48,474.79C-727.45,474.98 -727.41,475.17 -727.37,475.28C-727.37,475.43 -727.37,475.58 -727.33,475.70C-727.29,475.81 -727.29,475.96 -727.29,476.08ZM-731.06,476.34C-731.06,475.62 -731.21,475.17 -731.51,474.75C-731.66,474.56 -731.89,474.44 -732.23,474.44C-732.84,474.44 -733.15,474.94 -733.26,475.39C-733.34,475.66 -733.37,476.00 -733.34,476.34L-733.34,482.04C-733.37,482.77 -733.26,483.22 -732.92,483.60C-732.77,483.79 -732.54,483.91 -732.23,483.91C-731.59,483.91 -731.32,483.45 -731.17,482.99C-731.09,482.73 -731.06,482.39 -731.06,482.04ZM-732.84,492.95C-733.64,493.41 -734.25,493.98 -734.25,494.77C-734.25,495.57 -733.53,496.22 -731.74,496.22C-731.09,496.22 -730.37,496.10 -729.80,495.88C-729.23,495.65 -728.81,495.31 -728.81,494.81C-728.81,494.47 -728.85,494.20 -729.12,493.94C-729.42,493.67 -729.92,493.48 -730.87,493.33ZM-717.76,471.21L-713.92,471.21L-713.92,492L-717.76,492L-717.76,490.25C-717.83,490.29 -717.98,490.44 -718.17,490.63C-718.63,491.09 -719.16,491.62 -719.85,492C-720.19,492.19 -720.53,492.30 -720.87,492.30C-721.90,492.30 -722.62,491.70 -723.08,490.90C-723.53,490.14 -723.76,489.11 -723.76,488.24L-723.76,471.21L-719.92,471.21L-719.92,487.67C-719.92,488.47 -719.47,488.58 -719.01,488.58C-718.59,488.58 -718.36,488.35 -718.10,488.09C-717.98,487.97 -717.87,487.78 -717.76,487.59ZM-710.88,492L-710.88,464.07L-707.04,464.07L-707.04,492ZM-698.19,476.15C-698.19,475.81 -698.19,475.28 -698.30,474.90C-698.45,474.52 -698.76,474.25 -699.25,474.25C-699.90,474.25 -700.16,474.75 -700.28,475.36C-700.31,475.66 -700.35,476.00 -700.35,476.34C-700.35,476.69 -700.35,477.03 -700.35,477.33L-704.19,477.33L-704.19,476.46C-704.19,474.94 -703.62,473.57 -702.71,472.54C-701.80,471.52 -700.50,470.91 -699.02,470.91C-697.77,470.91 -696.63,471.40 -695.75,472.24C-694.88,473.08 -694.35,474.25 -694.35,475.62L-694.35,488.39C-694.35,490.25 -694.23,491.09 -694.08,492L-697.84,492C-698.19,491.58 -698.19,490.59 -698.19,490.33L-698.45,490.33C-698.64,490.67 -698.98,491.16 -699.52,491.58C-700.05,492 -700.77,492.30 -701.53,492.30C-702.02,492.30 -702.82,492.11 -703.43,491.35C-704.08,490.63 -704.61,489.34 -704.61,487.17C-704.61,484.86 -703.92,483.18 -703.01,482.04C-702.10,480.90 -700.96,480.18 -700.01,479.69C-699.06,479.19 -698.34,478.85 -698.19,478.43ZM-698.19,481.97C-700.05,482.77 -700.85,484.63 -700.85,486.60C-700.85,486.87 -700.81,487.33 -700.66,487.74C-700.50,488.20 -700.24,488.54 -699.78,488.54C-698.91,488.54 -698.19,488.01 -698.19,487.29ZM-684.05,475.17C-684.39,475.05 -684.77,475.01 -685.11,475.01C-685.72,475.01 -686.44,475.09 -687.05,475.66C-687.77,476.27 -687.89,476.91 -687.89,477.56L-687.89,492L-691.73,492L-691.73,471.21L-687.89,471.21L-687.89,473.53C-687.85,473.27 -687.58,472.62 -686.98,472.01C-686.37,471.44 -685.46,470.91 -684.05,470.91Z"/>
</svg>