<?xml version="1.0"?>
<svg xmlns="http://www.w3.org/2000/svg" width="1920" height="1080" viewBox="-960 -540 1920 1080">
    <path d="M-970.88,-210L-931.13,-210L-908.38,-300L-900.63,-339L-900.13,-339L-892.38,-300L-869.38,-210L-830.63,-210L-782.63,-375L-817.88,-375L-850.13,-238.75L-883.63,-375L-916.63,-375L-949.63,-238.75L-982.13,-375L-1018.88,-375ZM-759.63,-210L-725.38,-210L-725.38,-276C-725.38,-301 -711.13,-310.50 -696.63,-310.50C-683.63,-310.50 -674.38,-303.50 -674.38,-282L-674.38,-210L-640.13,-210L-640.13,-292C-640.13,-322.25 -659.13,-337.50 -685.13,-337.50C-702.88,-337.50 -717.38,-329.75 -725.38,-313.75L-725.38,-389.75L-759.63,-389.75ZM-490.63,-231C-496.63,-231 -499.63,-234 -499.63,-240.50L-499.63,-291.25C-499.63,-322 -521.63,-337.50 -554.38,-337.50C-586.88,-337.50 -605.88,-323 -611.63,-301L-582.38,-292C-578.13,-306.75 -568.13,-312.50 -555.88,-312.50C-542.63,-312.50 -533.63,-304 -533.63,-289.75L-533.63,-285L-576.63,-276.25C-599.13,-271.75 -611.38,-259.75 -611.38,-241.25C-611.38,-219.25 -595.63,-207.50 -570.13,-207.50C-554.38,-207.50 -538.38,-214 -530.38,-225.50C-526.63,-213.75 -515.13,-208 -500.88,-207.75C-494.13,-207.75 -488.63,-209 -484.63,-211L-482.63,-232.25C-484.88,-231.50 -487.88,-231 -490.63,-231ZM-561.38,-231.75C-570.13,-231.75 -577.13,-236.25 -577.13,-244.50C-577.13,-253.25 -571.38,-256.25 -559.88,-258.50L-533.63,-263.75L-533.63,-256C-533.63,-237.75 -547.13,-231.75 -561.38,-231.75ZM-380.38,-240.50C-385.63,-236 -391.38,-233.50 -399.88,-233.50C-410.63,-233.50 -417.13,-238.75 -417.13,-250.75L-417.13,-309.50L-377.13,-309.50L-377.13,-335L-417.13,-335L-417.13,-373.25L-451.38,-363.75L-451.38,-335L-474.38,-335L-474.38,-309.50L-451.38,-309.50L-451.38,-245.25C-451.38,-217.75 -434.13,-207.50 -408.88,-207.50C-395.63,-207.50 -383.13,-211.25 -374.88,-217.75ZM-277.38,-210L-243.13,-210L-243.13,-276.25C-243.13,-300.75 -228.88,-310.50 -215.63,-310.50C-202.88,-310.50 -193.88,-303.50 -193.88,-285.25L-193.88,-210L-159.63,-210L-159.63,-277.25C-159.63,-299 -147.38,-310.50 -132.13,-310.50C-119.63,-310.50 -110.63,-303.50 -110.63,-285.25L-110.63,-210L-76.63,-210L-76.38,-292C-76.13,-322.75 -96.63,-337.50 -120.88,-337.50C-137.88,-337.50 -155.63,-329.50 -163.38,-312.75C-170.63,-329.25 -186.13,-337.50 -204.13,-337.50C-221.88,-337.50 -237.13,-329.25 -245.38,-312.50L-246.63,-335L-277.38,-335ZM73.13,-231C67.13,-231 64.13,-234 64.13,-240.50L64.13,-291.25C64.13,-322 42.13,-337.50 9.38,-337.50C-23.13,-337.50 -42.13,-323 -47.88,-301L-18.63,-292C-14.38,-306.75 -4.38,-312.50 7.88,-312.50C21.13,-312.50 30.13,-304 30.13,-289.75L30.13,-285L-12.88,-276.25C-35.38,-271.75 -47.63,-259.75 -47.63,-241.25C-47.63,-219.25 -31.88,-207.50 -6.38,-207.50C9.38,-207.50 25.38,-214 33.38,-225.50C37.13,-213.75 48.63,-208 62.88,-207.75C69.63,-207.75 75.13,-209 79.13,-211L81.13,-232.25C78.88,-231.50 75.88,-231 73.13,-231ZM2.38,-231.75C-6.38,-231.75 -13.38,-236.25 -13.38,-244.50C-13.38,-253.25 -7.63,-256.25 3.88,-258.50L30.13,-263.75L30.13,-256C30.13,-237.75 16.63,-231.75 2.38,-231.75ZM193.88,-210L232.63,-210L182.63,-286L229.63,-335L190.63,-335L136.63,-277.75L136.63,-389.75L102.38,-389.75L102.38,-210L136.63,-210L136.63,-241L159.38,-265.25ZM368.63,-279.25C368.63,-312.75 346.88,-337.50 309.13,-337.50C271.88,-337.50 245.88,-313.50 245.88,-272.50C245.88,-231.50 271.38,-207.50 310.88,-207.50C336.38,-207.50 358.13,-218.75 366.13,-238.50L338.88,-249C333.88,-239 325.38,-233 310.63,-233C293.38,-233 282.13,-242.25 279.38,-261.75L367.63,-261.75C368.13,-266.25 368.63,-272.50 368.63,-279.25ZM308.88,-312.25C324.38,-312.25 333.88,-302.75 335.63,-285.50L279.63,-285.50C282.88,-303.25 293.13,-312.25 308.88,-312.25ZM447.63,-207.50C483.38,-207.50 503.13,-225 503.13,-249C503.13,-265.75 493.38,-278 468.63,-283L443.13,-288.25C430.88,-290.75 426.88,-294.75 426.88,-300C426.88,-307.75 434.63,-312.25 448.88,-312.25C461.88,-312.25 474.38,-305.75 481.88,-294.25L502.38,-314.25C491.63,-329.50 472.88,-337.50 447.88,-337.50C411.38,-337.50 392.88,-318.25 392.88,-298C392.88,-278.75 403.88,-266.75 432.88,-260.75L454.88,-256.25C465.88,-254 468.63,-250 468.63,-244.75C468.63,-236.50 460.13,-232.75 447.13,-232.75C428.88,-232.75 415.38,-241.25 407.38,-253.25L387.63,-233.25C400.63,-216.75 422.38,-207.50 447.63,-207.50ZM721.13,-231C715.13,-231 712.13,-234 712.13,-240.50L712.13,-291.25C712.13,-322 690.13,-337.50 657.38,-337.50C624.88,-337.50 605.88,-323 600.13,-301L629.38,-292C633.63,-306.75 643.63,-312.50 655.88,-312.50C669.13,-312.50 678.13,-304 678.13,-289.75L678.13,-285L635.13,-276.25C612.63,-271.75 600.38,-259.75 600.38,-241.25C600.38,-219.25 616.13,-207.50 641.63,-207.50C657.38,-207.50 673.38,-214 681.38,-225.50C685.13,-213.75 696.63,-208 710.88,-207.75C717.63,-207.75 723.13,-209 727.13,-211L729.13,-232.25C726.88,-231.50 723.88,-231 721.13,-231ZM650.38,-231.75C641.63,-231.75 634.63,-236.25 634.63,-244.50C634.63,-253.25 640.38,-256.25 651.88,-258.50L678.13,-263.75L678.13,-256C678.13,-237.75 664.63,-231.75 650.38,-231.75ZM824.88,-337.50C805.63,-337.50 790.13,-329 782.38,-311.50L781.13,-335L750.38,-335L750.38,-210L784.63,-210L784.63,-276.25C784.63,-301.25 798.88,-310.50 813.13,-310.50C826.13,-310.50 835.63,-303.50 835.63,-282.25L835.63,-210L869.88,-210L869.88,-292C869.88,-322.25 850.88,-337.50 824.88,-337.50ZM-495.38,-21.50C-481.13,-21.50 -474.13,-27.50 -474.13,-39.75C-474.13,-52 -481.13,-58.25 -495.38,-58.25C-509.63,-58.25 -516.63,-52 -516.63,-39.75C-516.63,-27.50 -509.63,-21.50 -495.38,-21.50ZM-478.38,-3.50L-512.63,-3.50L-512.63,121.50L-478.38,121.50ZM-442.13,121.50L-407.88,121.50L-407.88,55.25C-407.88,30.75 -393.63,21 -380.38,21C-367.63,21 -358.63,28 -358.63,46.25L-358.63,121.50L-324.38,121.50L-324.38,54.25C-324.38,32.50 -312.13,21 -296.88,21C-284.38,21 -275.38,28 -275.38,46.25L-275.38,121.50L-241.38,121.50L-241.13,39.50C-240.88,8.75 -261.38,-6 -285.63,-6C-302.63,-6 -320.38,2 -328.13,18.75C-335.38,2.25 -350.88,-6 -368.88,-6C-386.63,-6 -401.88,2.25 -410.13,19L-411.38,-3.50L-442.13,-3.50ZM-131.88,-6C-151.63,-6 -166.63,4.75 -173.63,21L-175.13,-3.50L-205.88,-3.50L-205.88,174L-171.63,174L-171.63,100C-164.63,114.25 -151.13,124 -132.63,124C-101.88,124 -78.88,99.75 -78.88,58.75C-78.88,18 -101.38,-6 -131.88,-6ZM-142.63,97.75C-160.38,97.75 -171.63,83 -171.63,59C-171.63,34.50 -159.88,20.25 -142.13,20.25C-123.88,20.25 -113.13,33.75 -113.13,59C-113.13,84.25 -124.38,97.75 -142.63,97.75ZM65.13,100.50C59.13,100.50 56.13,97.50 56.13,91L56.13,40.25C56.13,9.50 34.13,-6 1.38,-6C-31.13,-6 -50.13,8.50 -55.88,30.50L-26.63,39.50C-22.38,24.75 -12.38,19 -0.13,19C13.13,19 22.13,27.50 22.13,41.75L22.13,46.50L-20.88,55.25C-43.38,59.75 -55.63,71.75 -55.63,90.25C-55.63,112.25 -39.88,124 -14.38,124C1.38,124 17.38,117.50 25.38,106C29.13,117.75 40.63,123.50 54.88,123.75C61.63,123.75 67.13,122.50 71.13,120.50L73.13,99.25C70.88,100 67.88,100.50 65.13,100.50ZM-5.63,99.75C-14.38,99.75 -21.38,95.25 -21.38,87C-21.38,78.25 -15.63,75.25 -4.13,73L22.13,67.75L22.13,75.50C22.13,93.75 8.63,99.75 -5.63,99.75ZM151.13,-6C113.38,-6 87.38,18 87.38,59C87.38,100 113.13,124 152.13,124C183.13,124 203.38,108.50 208.88,86.25L177.88,76.25C175.13,90.50 166.63,98.50 151.88,98.50C133.13,98.50 121.63,86 121.63,59.25C121.63,33 132.38,19.50 151.63,19.50C165.13,19.50 173.38,27.25 176.38,42.25L208.38,30.75C202.38,10.25 184.63,-6 151.13,-6ZM316.38,91C311.13,95.50 305.38,98 296.88,98C286.13,98 279.63,92.75 279.63,80.75L279.63,22L319.63,22L319.63,-3.50L279.63,-3.50L279.63,-41.75L245.38,-32.25L245.38,-3.50L222.38,-3.50L222.38,22L245.38,22L245.38,86.25C245.38,113.75 262.63,124 287.88,124C301.13,124 313.63,120.25 321.88,113.75ZM398.63,-46C360.38,-46 339.38,-27.50 333.63,-1.50L366.13,11C368.38,-7 379.13,-17.25 396.38,-17.25C414.13,-17.25 422.63,-9.25 422.63,3.25C422.63,18.75 410.63,27.25 379.38,30.75L379.13,68.50L410.38,68.50L412.13,45C438.13,42.25 459.38,29 459.38,-1.25C459.38,-30.25 433.63,-46 398.63,-46ZM395.13,84.75C381.88,84.75 373.88,92.25 373.88,104.25C373.88,116.25 381.88,123.75 395.13,123.75C408.38,123.75 416.63,116.25 416.63,104.25C416.63,92.25 408.38,84.75 395.13,84.75Z" fill="#ffffff" stroke="#000000"/>
    <path d="M-975.15,-162.40L-935.83,-164.12L-917.23,-254.12L-911.26,-293.03L-910.76,-293.05L-901.41,-254.82L-874.76,-166.80L-836.44,-168.48L-796.11,-333.75L-830.98,-332.22L-856.97,-196.07L-896.01,-329.38L-928.64,-327.94L-955.38,-191.76L-993.43,-325.11L-1029.77,-323.51ZM-766.21,-171.56L-732.34,-173.04L-735.20,-238.32C-736.28,-263.04 -722.60,-273.06 -708.26,-273.68C-695.40,-274.25 -685.95,-267.73 -685.02,-246.46L-681.90,-175.25L-648.02,-176.73L-651.57,-257.84C-652.89,-287.75 -672.34,-302.01 -698.05,-300.89C-715.61,-300.12 -729.61,-291.82 -736.83,-275.65L-740.13,-350.82L-774.00,-349.34ZM-501.07,-203.98C-507.00,-203.72 -510.10,-206.56 -510.38,-212.99L-512.58,-263.18C-513.91,-293.60 -536.34,-307.97 -568.74,-306.55C-600.88,-305.15 -619.04,-289.98 -623.78,-267.97L-594.46,-260.34C-590.89,-275.11 -581.25,-281.23 -569.14,-281.76C-556.03,-282.34 -546.76,-274.32 -546.14,-260.23L-545.94,-255.53L-588.09,-245.01C-610.15,-239.58 -621.74,-227.18 -620.94,-208.89C-619.99,-187.13 -603.90,-176.19 -578.68,-177.29C-563.10,-177.98 -547.56,-185.10 -540.14,-196.82C-535.93,-185.36 -524.30,-180.17 -510.20,-180.54C-503.52,-180.84 -498.14,-182.31 -494.27,-184.46L-493.21,-205.57C-495.40,-204.73 -498.35,-204.10 -501.07,-203.98ZM-571.08,-201.66C-579.73,-201.28 -586.85,-205.43 -587.21,-213.59C-587.59,-222.24 -582.03,-225.46 -570.75,-228.18L-545.02,-234.51L-544.68,-226.85C-543.89,-208.80 -556.98,-202.28 -571.08,-201.66ZM-392.44,-218.16C-397.43,-213.48 -403.01,-210.76 -411.42,-210.39C-422.05,-209.92 -428.71,-214.83 -429.23,-226.70L-431.77,-284.81L-392.21,-286.54L-393.32,-311.76L-432.88,-310.03L-434.54,-347.86L-468.00,-336.98L-466.75,-308.54L-489.50,-307.55L-488.40,-282.33L-465.65,-283.32L-462.87,-219.78C-461.67,-192.58 -444.17,-183.19 -419.19,-184.28C-406.09,-184.86 -393.89,-189.11 -386.01,-195.89ZM-289.24,-192.45L-255.37,-193.94L-258.24,-259.46C-259.30,-283.69 -245.63,-293.95 -232.52,-294.53C-219.91,-295.08 -210.71,-288.55 -209.92,-270.50L-206.66,-196.07L-172.78,-197.56L-175.70,-264.07C-176.64,-285.58 -165.02,-297.49 -149.94,-298.15C-137.58,-298.69 -128.37,-292.16 -127.58,-274.11L-124.32,-199.68L-90.69,-201.15L-94.00,-282.27C-95.08,-312.69 -116.00,-326.39 -139.98,-325.34C-156.80,-324.60 -174.00,-315.92 -180.94,-299.02C-188.83,-315.02 -204.52,-322.51 -222.32,-321.73C-239.88,-320.96 -254.60,-312.14 -262.03,-295.22L-264.25,-317.42L-294.66,-316.08ZM56.51,-228.41C50.58,-228.15 47.48,-230.99 47.20,-237.42L45.00,-287.61C43.66,-318.03 21.23,-332.40 -11.16,-330.98C-43.30,-329.58 -61.47,-314.41 -66.20,-292.40L-36.88,-284.77C-33.31,-299.54 -23.67,-305.66 -11.56,-306.19C1.55,-306.77 10.82,-298.75 11.43,-284.66L11.64,-279.96L-30.51,-269.44C-52.57,-264.01 -64.16,-251.62 -63.36,-233.32C-62.41,-211.56 -46.32,-200.62 -21.10,-201.72C-5.52,-202.41 10.02,-209.53 17.43,-221.25C21.65,-209.79 33.27,-204.60 47.38,-204.97C54.06,-205.27 59.44,-206.74 63.31,-208.89L64.37,-230.00C62.18,-229.16 59.23,-228.53 56.51,-228.41ZM-13.50,-226.09C-22.15,-225.71 -29.27,-229.86 -29.63,-238.02C-30.01,-246.67 -24.45,-249.89 -13.17,-252.61L12.56,-258.94L12.90,-251.28C13.69,-233.23 0.60,-226.71 -13.50,-226.09ZM176.85,-212.88L215.17,-214.55L162.43,-287.56L206.79,-338.06L168.22,-336.37L117.29,-277.40L112.43,-388.18L78.56,-386.69L86.35,-208.91L120.22,-210.39L118.88,-241.05L140.33,-266.03ZM346.68,-288.94C345.23,-322.07 322.65,-345.61 285.31,-343.97C248.47,-342.36 223.79,-317.50 225.57,-276.94C227.35,-236.39 253.61,-213.76 292.67,-215.47C317.90,-216.58 338.92,-228.65 345.98,-248.53L318.57,-257.73C314.06,-247.62 305.91,-241.32 291.32,-240.68C274.26,-239.94 262.73,-248.60 259.17,-267.76L346.45,-271.59C346.75,-276.06 346.98,-282.26 346.68,-288.94ZM286.16,-318.99C301.49,-319.66 311.30,-310.68 313.77,-293.69L258.39,-291.26C260.83,-308.96 270.58,-318.31 286.16,-318.99ZM427.93,-221.40C463.29,-222.95 482.06,-241.11 481.02,-264.85C480.30,-281.42 470.12,-293.11 445.43,-296.98L419.98,-301.07C407.75,-303.01 403.62,-306.79 403.40,-311.99C403.06,-319.65 410.53,-324.44 424.62,-325.06C437.48,-325.62 450.13,-319.73 458.04,-308.68L477.45,-329.35C466.16,-343.97 447.27,-351.07 422.54,-349.99C386.44,-348.40 368.98,-328.56 369.86,-308.54C370.69,-289.50 382.09,-278.10 411.03,-273.43L432.99,-269.93C443.96,-268.18 446.86,-264.34 447.08,-259.15C447.44,-250.99 439.20,-246.91 426.34,-246.35C408.29,-245.56 394.57,-253.38 386.14,-264.90L367.47,-244.27C381.04,-228.51 402.95,-220.30 427.93,-221.40ZM697.41,-256.49C691.48,-256.23 688.38,-259.07 688.10,-265.50L685.90,-315.69C684.57,-346.11 662.14,-360.48 629.75,-359.06C597.60,-357.66 579.44,-342.49 574.71,-320.48L604.03,-312.85C607.59,-327.62 617.23,-333.74 629.35,-334.27C642.45,-334.85 651.72,-326.83 652.34,-312.74L652.55,-308.04L610.40,-297.52C588.34,-292.10 576.74,-279.70 577.54,-261.40C578.50,-239.64 594.58,-228.70 619.80,-229.81C635.38,-230.49 650.92,-237.61 658.34,-249.33C662.56,-237.87 674.18,-232.68 688.28,-233.05C694.96,-233.35 700.35,-234.82 704.22,-236.97L705.27,-258.08C703.08,-257.24 700.13,-256.61 697.41,-256.49ZM627.41,-254.17C618.75,-253.79 611.63,-257.94 611.28,-266.10C610.90,-274.75 616.45,-277.97 627.73,-280.69L653.47,-287.02L653.80,-279.36C654.59,-261.31 641.50,-254.79 627.41,-254.17ZM795.41,-366.32C776.37,-365.49 761.41,-356.41 754.51,-338.77L752.25,-361.96L721.84,-360.62L727.25,-236.99L761.13,-238.48L758.26,-304.00C757.18,-328.73 770.87,-338.49 784.96,-339.11C797.82,-339.67 807.52,-333.16 808.44,-312.14L811.57,-240.69L845.45,-242.17L841.89,-323.27C840.58,-353.19 821.13,-367.45 795.41,-366.32ZM-496.69,3.43C-482.59,2.81 -475.93,-3.43 -476.46,-15.54C-476.99,-27.66 -484.19,-33.54 -498.28,-32.92C-512.37,-32.30 -519.03,-25.82 -518.50,-13.70C-517.96,-1.58 -510.78,4.05 -496.69,3.43ZM-479.09,20.50L-512.97,21.98L-507.55,145.61L-473.68,144.13ZM-437.82,142.56L-403.95,141.07L-406.82,75.55C-407.88,51.32 -394.21,41.06 -381.10,40.48C-368.49,39.93 -359.29,46.46 -358.50,64.51L-355.24,138.94L-321.36,137.45L-324.28,70.94C-325.22,49.43 -313.60,37.52 -298.52,36.86C-286.16,36.32 -276.95,42.85 -276.16,60.90L-272.90,135.33L-239.27,133.86L-242.58,52.74C-243.66,22.32 -264.58,8.62 -288.56,9.67C-305.38,10.41 -322.58,19.09 -329.52,35.99C-337.41,19.99 -353.10,12.50 -370.90,13.28C-388.46,14.05 -403.18,22.87 -410.62,39.79L-412.83,17.59L-443.24,18.93ZM-136.50,3.01C-156.03,3.86 -170.40,15.15 -176.62,31.52L-179.16,7.35L-209.58,8.69L-201.88,184.24L-168.01,182.76L-171.22,109.57C-163.68,123.36 -149.90,132.42 -131.60,131.62C-101.19,130.28 -79.49,105.30 -81.27,64.75C-83.04,24.45 -106.33,1.69 -136.50,3.01ZM-142.63,106.09C-160.19,106.86 -171.95,92.76 -172.99,69.02C-174.06,44.79 -163.05,30.18 -145.50,29.41C-127.45,28.62 -116.23,41.51 -115.13,66.48C-114.04,91.46 -124.58,105.30 -142.63,106.09ZM62.96,99.80C57.03,100.06 53.93,97.23 53.65,90.80L51.45,40.60C50.12,10.19 27.69,-4.19 -4.70,-2.77C-36.85,-1.36 -55.01,13.81 -59.75,35.81L-30.43,43.45C-26.86,28.68 -17.22,22.56 -5.10,22.02C8.00,21.45 17.27,29.47 17.89,43.56L18.09,48.26L-24.06,58.78C-46.12,64.20 -57.71,76.60 -56.91,94.90C-55.96,116.66 -39.87,127.60 -14.65,126.49C0.93,125.81 16.47,118.69 23.89,106.97C28.10,118.43 39.73,123.61 53.83,123.24C60.51,122.95 65.89,121.48 69.76,119.33L70.82,98.22C68.63,99.06 65.68,99.69 62.96,99.80ZM-7.05,102.13C-15.70,102.51 -22.82,98.36 -23.18,90.20C-23.55,81.55 -18.00,78.33 -6.72,75.61L19.01,69.28L19.35,76.94C20.14,94.99 7.05,101.51 -7.05,102.13ZM143.41,-9.26C106.07,-7.62 81.39,17.24 83.17,57.79C84.95,98.35 111.46,120.97 150.03,119.28C180.69,117.93 200.05,101.73 204.52,79.48L173.43,70.93C171.33,85.15 163.26,93.43 148.68,94.07C130.13,94.88 118.22,83.01 117.06,56.56C115.92,30.60 125.97,16.78 145.01,15.94C158.36,15.36 166.85,22.67 170.47,37.37L201.62,24.61C194.80,4.59 176.54,-10.71 143.41,-9.26ZM311.05,79.52C306.05,84.20 300.47,86.92 292.07,87.29C281.43,87.75 274.78,82.84 274.26,70.98L271.71,12.87L311.27,11.14L310.17,-14.09L270.61,-12.35L268.95,-50.18L235.49,-39.30L236.73,-10.87L213.98,-9.87L215.09,15.35L237.84,14.35L240.62,77.90C241.81,105.10 259.32,114.49 284.29,113.39C297.40,112.82 309.60,108.57 317.48,101.78ZM386.46,-59.54C348.63,-57.89 328.66,-38.68 324.10,-12.71L356.79,-1.76C358.23,-19.66 368.42,-30.26 385.48,-31.01C403.04,-31.78 411.79,-24.24 412.33,-11.87C413.01,3.46 401.51,12.38 370.75,17.20L372.14,54.55L403.05,53.19L403.76,29.87C429.35,26.03 449.80,12.00 448.49,-17.92C447.23,-46.60 421.08,-61.06 386.46,-59.54ZM388.67,69.93C375.56,70.50 367.97,78.27 368.49,90.13C369.01,102.00 377.25,109.07 390.36,108.50C403.46,107.93 411.30,100.15 410.78,88.28C410.26,76.41 401.77,69.35 388.67,69.93Z" fill="#ffffff" stroke="#000000"/>
    <path d="M-977.01,-114.91L-938.21,-118.32L-923.71,-208.13L-919.49,-246.87L-919.00,-246.91L-908.09,-209.50L-877.92,-123.61L-840.09,-126.93L-807.38,-292.12L-841.79,-289.10L-861.59,-153.33L-905.98,-283.47L-938.19,-280.64L-958.73,-144.80L-1002.14,-275.03L-1038.01,-271.88ZM-770.78,-133.02L-737.34,-135.95L-743.00,-200.38C-745.14,-224.79 -732.05,-235.29 -717.89,-236.53C-705.20,-237.64 -695.57,-231.60 -693.73,-210.61L-687.56,-140.32L-654.12,-143.26L-661.15,-223.31C-663.74,-252.84 -683.60,-266.10 -708.98,-263.87C-726.31,-262.35 -739.80,-253.54 -746.24,-237.24L-752.75,-311.43L-786.19,-308.50ZM-509.97,-176.57C-515.83,-176.06 -519.01,-178.73 -519.57,-185.08L-523.92,-234.62C-526.56,-264.64 -549.36,-277.89 -581.33,-275.08C-613.06,-272.29 -630.37,-256.51 -634.10,-234.54L-604.77,-228.26C-601.88,-243.02 -592.61,-249.49 -580.66,-250.54C-567.72,-251.68 -558.21,-244.15 -556.98,-230.24L-556.58,-225.61L-597.81,-213.38C-619.39,-207.06 -630.32,-194.29 -628.73,-176.23C-626.84,-154.75 -610.46,-144.63 -585.57,-146.82C-570.19,-148.17 -555.13,-155.88 -548.30,-167.80C-543.64,-156.65 -531.92,-152.02 -517.98,-153.00C-511.39,-153.58 -506.13,-155.27 -502.40,-157.56L-502.27,-178.48C-504.40,-177.55 -507.29,-176.81 -509.97,-176.57ZM-579.10,-171.24C-587.65,-170.49 -594.87,-174.28 -595.57,-182.34C-596.32,-190.88 -590.97,-194.30 -579.93,-197.48L-554.76,-204.86L-554.09,-197.29C-552.53,-179.48 -565.19,-172.46 -579.10,-171.24ZM-403.15,-195.30C-407.89,-190.45 -413.29,-187.52 -421.59,-186.79C-432.08,-185.87 -438.88,-190.44 -439.91,-202.15L-444.94,-259.51L-405.89,-262.94L-408.08,-287.83L-447.13,-284.40L-450.41,-321.74L-483.03,-309.53L-480.57,-281.47L-503.02,-279.50L-500.83,-254.60L-478.38,-256.57L-472.87,-193.85C-470.52,-167.00 -452.80,-158.47 -428.15,-160.64C-415.21,-161.77 -403.33,-166.51 -395.83,-173.56ZM-299.99,-174.35L-266.55,-177.29L-272.23,-241.96C-274.33,-265.88 -261.25,-276.62 -248.32,-277.76C-235.87,-278.85 -226.48,-272.79 -224.92,-254.97L-218.47,-181.51L-185.03,-184.44L-190.80,-250.10C-192.66,-271.33 -181.69,-283.61 -166.80,-284.91C-154.60,-285.98 -145.21,-279.92 -143.65,-262.11L-137.20,-188.64L-104.01,-191.56L-110.79,-271.63C-113.18,-301.67 -134.46,-314.31 -158.13,-312.24C-174.73,-310.78 -191.37,-301.45 -197.50,-284.43C-205.99,-299.92 -221.83,-306.64 -239.40,-305.10C-256.73,-303.58 -270.91,-294.22 -277.53,-277.16L-280.68,-299.02L-310.70,-296.38ZM40.39,-224.89C34.53,-224.38 31.34,-227.05 30.79,-233.40L26.44,-282.94C23.80,-312.96 1.00,-326.21 -30.98,-323.40C-62.70,-320.61 -80.01,-304.83 -83.74,-282.86L-54.41,-276.58C-51.53,-291.34 -42.26,-297.82 -30.30,-298.87C-17.36,-300.00 -7.85,-292.47 -6.63,-278.56L-6.22,-273.93L-47.45,-261.70C-69.03,-255.38 -79.96,-242.61 -78.37,-224.55C-76.49,-203.07 -60.10,-192.95 -35.21,-195.14C-19.83,-196.49 -4.77,-204.21 2.05,-216.12C6.72,-204.97 18.44,-200.34 32.37,-201.32C38.96,-201.90 44.23,-203.59 47.96,-205.88L48.09,-226.80C45.96,-225.88 43.07,-225.13 40.39,-224.89ZM-28.75,-219.56C-37.29,-218.81 -44.51,-222.61 -45.21,-230.66C-45.96,-239.20 -40.61,-242.62 -29.57,-245.81L-4.40,-253.18L-3.73,-245.61C-2.17,-227.80 -14.83,-220.78 -28.75,-219.56ZM160.07,-214.74L197.90,-218.06L142.57,-287.97L184.26,-339.84L146.18,-336.49L98.37,-275.98L88.77,-385.32L55.34,-382.38L70.74,-206.90L104.18,-209.84L101.52,-240.10L121.65,-265.72ZM324.73,-297.33C321.86,-330.03 298.51,-352.33 261.65,-349.09C225.29,-345.90 201.96,-320.24 205.48,-280.22C208.99,-240.19 235.94,-218.94 274.50,-222.33C299.40,-224.52 319.67,-237.36 325.78,-257.33L298.28,-265.24C294.26,-255.05 286.47,-248.47 272.07,-247.20C255.23,-245.72 243.46,-253.79 239.10,-272.59L325.26,-280.16C325.36,-284.59 325.31,-290.74 324.73,-297.33ZM263.57,-324.42C278.70,-325.75 288.79,-317.29 291.98,-300.60L237.31,-295.80C238.96,-313.41 248.20,-323.07 263.57,-324.42ZM408.01,-234.05C442.91,-237.12 460.69,-255.89 458.63,-279.32C457.19,-295.68 446.63,-306.80 422.04,-309.56L396.69,-312.50C384.52,-313.89 380.27,-317.45 379.82,-322.58C379.16,-330.14 386.34,-335.20 400.25,-336.42C412.94,-337.53 425.70,-332.26 434.01,-321.68L452.31,-342.96C440.50,-356.92 421.51,-363.13 397.11,-360.98C361.47,-357.86 345.06,-337.48 346.80,-317.71C348.45,-298.92 360.22,-288.14 389.04,-284.77L410.90,-282.27C421.84,-281.01 424.86,-277.34 425.31,-272.22C426.02,-264.16 418.04,-259.77 405.35,-258.66C387.54,-257.09 373.63,-264.24 364.79,-275.27L347.22,-254.05C361.33,-239.05 383.36,-231.89 408.01,-234.05ZM672.99,-280.44C667.14,-279.92 663.95,-282.59 663.39,-288.94L659.04,-338.48C656.41,-368.50 633.60,-381.75 601.63,-378.94C569.90,-376.16 552.60,-360.37 548.87,-338.40L578.20,-332.12C581.08,-346.89 590.35,-353.36 602.31,-354.41C615.24,-355.54 624.76,-348.02 625.98,-334.10L626.39,-329.47L585.16,-317.24C563.58,-310.92 552.65,-298.15 554.23,-280.09C556.12,-258.62 572.50,-248.49 597.40,-250.68C612.77,-252.03 627.84,-259.75 634.66,-271.66C639.33,-260.51 651.05,-255.88 664.98,-256.86C671.57,-257.44 676.83,-259.13 680.57,-261.43L680.70,-282.34C678.56,-281.42 675.68,-280.67 672.99,-280.44ZM603.86,-275.10C595.32,-274.35 588.10,-278.15 587.39,-286.20C586.64,-294.74 592.00,-298.16 603.03,-301.35L628.21,-308.72L628.87,-301.16C630.44,-283.34 617.77,-276.33 603.86,-275.10ZM765.15,-393.30C746.36,-391.65 731.96,-382.02 725.89,-364.27L722.65,-387.11L692.64,-384.47L703.35,-262.44L736.79,-265.38L731.11,-330.05C728.96,-354.46 742.08,-364.71 755.99,-365.93C768.69,-367.05 778.56,-361.03 780.38,-340.28L786.57,-269.75L820.01,-272.68L812.98,-352.74C810.39,-382.27 790.53,-395.53 765.15,-393.30ZM-496.65,28.36C-482.74,27.14 -476.42,20.68 -477.47,8.72C-478.52,-3.24 -485.89,-8.74 -499.80,-7.52C-513.71,-6.30 -520.01,0.40 -518.96,12.36C-517.91,24.32 -510.56,29.58 -496.65,28.36ZM-478.51,44.47L-511.95,47.41L-501.23,169.44L-467.80,166.50ZM-432.41,163.40L-398.97,160.46L-404.65,95.78C-406.75,71.87 -393.67,61.13 -380.74,59.99C-368.29,58.90 -358.91,64.96 -357.34,82.78L-350.89,156.24L-317.46,153.30L-323.22,87.65C-325.08,66.42 -314.11,54.14 -299.22,52.83C-287.02,51.76 -277.63,57.82 -276.07,75.64L-269.62,149.10L-236.43,146.19L-243.21,66.12C-245.60,36.07 -266.88,23.43 -290.55,25.51C-307.15,26.97 -323.79,36.30 -329.92,53.32C-338.42,37.83 -354.25,31.10 -371.83,32.65C-389.16,34.17 -403.34,43.53 -409.95,60.59L-413.10,38.73L-443.12,41.36ZM-140.46,12.33C-159.74,14.02 -173.46,25.81 -178.90,42.27L-182.47,18.48L-212.48,21.12L-197.27,194.40L-163.83,191.46L-170.18,119.22C-162.12,132.53 -148.11,140.89 -130.05,139.31C-100.03,136.67 -79.65,111.03 -83.17,71.00C-86.66,31.22 -110.68,9.72 -140.46,12.33ZM-142.06,114.54C-159.39,116.06 -171.63,102.62 -173.69,79.19C-175.79,55.28 -165.54,40.36 -148.21,38.84C-130.40,37.27 -118.75,49.53 -116.58,74.18C-114.42,98.83 -124.24,112.97 -142.06,114.54ZM60.99,99.42C55.13,99.93 51.95,97.26 51.39,90.91L47.04,41.37C44.41,11.35 21.60,-1.90 -10.37,0.91C-42.10,3.70 -59.41,19.48 -63.13,41.45L-33.81,47.73C-30.92,32.97 -21.65,26.50 -9.69,25.45C3.24,24.31 12.76,31.84 13.98,45.75L14.38,50.38L-26.84,62.61C-48.42,68.93 -59.35,81.70 -57.77,99.76C-55.88,121.24 -39.50,131.36 -14.61,129.17C0.77,127.82 15.83,120.11 22.66,108.19C27.33,119.34 39.04,123.97 52.98,122.99C59.57,122.41 64.83,120.72 68.56,118.43L68.69,97.51C66.56,98.44 63.68,99.18 60.99,99.42ZM-8.14,104.75C-16.68,105.50 -23.90,101.71 -24.61,93.65C-25.36,85.11 -20.00,81.69 -8.97,78.51L16.21,71.13L16.87,78.70C18.43,96.51 5.77,103.53 -8.14,104.75ZM135.82,-11.92C98.97,-8.69 75.64,16.97 79.16,57.00C82.67,97.02 109.87,118.24 147.94,114.90C178.20,112.24 196.64,95.38 200.11,73.18L168.98,66.08C167.52,80.23 159.91,88.76 145.51,90.03C127.20,91.64 114.91,80.42 112.61,54.30C110.36,28.68 119.70,14.58 138.49,12.93C151.67,11.77 160.39,18.63 164.61,33.01L194.86,19.05C187.25,-0.45 168.52,-14.80 135.82,-11.92ZM305.46,68.61C300.72,73.45 295.32,76.38 287.02,77.11C276.53,78.03 269.73,73.47 268.70,61.75L263.67,4.40L302.72,0.97L300.53,-23.93L261.48,-20.50L258.20,-57.84L225.58,-45.63L228.05,-17.56L205.59,-15.59L207.78,9.30L230.23,7.33L235.74,70.06C238.10,96.90 255.81,105.43 280.46,103.27C293.40,102.13 305.28,97.40 312.78,90.35ZM374.01,-72.19C336.67,-68.91 317.76,-49.05 314.37,-23.17L347.17,-13.76C347.82,-31.52 357.44,-42.45 374.28,-43.93C391.61,-45.45 400.59,-38.37 401.66,-26.17C402.99,-11.03 392.01,-1.71 361.80,4.39L364.79,41.26L395.30,38.58L394.99,15.49C420.14,10.58 439.75,-4.18 437.15,-33.71C434.67,-62.02 408.18,-75.19 374.01,-72.19ZM381.80,55.76C368.87,56.89 361.70,64.90 362.73,76.61C363.76,88.33 372.21,94.96 385.14,93.83C398.08,92.69 405.49,84.66 404.46,72.95C403.43,61.23 394.74,54.62 381.80,55.76Z" fill="#ffffff" stroke="#000000"/>
    <path d="M-976.48,-67.65L-938.26,-72.70L-927.81,-162.14L-925.32,-200.63L-924.84,-200.69L-912.43,-164.17L-878.88,-80.55L-841.61,-85.47L-816.42,-250.24L-850.31,-245.76L-864.02,-110.64L-913.54,-237.41L-945.28,-233.21L-959.70,-98.00L-1008.26,-224.89L-1043.61,-220.22ZM-773.34,-94.49L-740.40,-98.84L-748.78,-162.31C-751.96,-186.35 -739.46,-197.30 -725.52,-199.14C-713.02,-200.79 -703.23,-195.24 -700.50,-174.56L-691.36,-105.32L-658.42,-109.67L-668.84,-188.53C-672.68,-217.62 -692.89,-229.87 -717.89,-226.57C-734.96,-224.31 -747.92,-215.02 -753.58,-198.61L-763.24,-271.70L-796.17,-267.35ZM-517.32,-148.86C-523.09,-148.10 -526.36,-150.60 -527.18,-156.85L-533.63,-205.66C-537.54,-235.23 -560.66,-247.34 -592.16,-243.18C-623.41,-239.05 -639.84,-222.69 -642.57,-200.80L-613.30,-195.87C-611.09,-210.59 -602.20,-217.39 -590.42,-218.95C-577.68,-220.63 -567.95,-213.60 -566.14,-199.90L-565.53,-195.33L-605.77,-181.45C-626.84,-174.26 -637.09,-161.17 -634.74,-143.38C-631.95,-122.22 -615.31,-112.92 -590.79,-116.16C-575.64,-118.16 -561.08,-126.45 -554.85,-138.52C-549.75,-127.70 -537.96,-123.63 -524.22,-125.20C-517.73,-126.06 -512.60,-127.96 -509.01,-130.39L-509.79,-151.08C-511.86,-150.07 -514.68,-149.21 -517.32,-148.86ZM-585.45,-140.59C-593.87,-139.48 -601.17,-142.92 -602.22,-150.85C-603.33,-159.27 -598.18,-162.88 -587.41,-166.51L-562.83,-174.89L-561.85,-167.44C-559.53,-149.89 -571.75,-142.40 -585.45,-140.59ZM-412.51,-172.01C-416.98,-167.01 -422.20,-163.88 -430.37,-162.80C-440.71,-161.43 -447.63,-165.65 -449.15,-177.19L-456.61,-233.69L-418.15,-238.77L-421.39,-263.29L-459.85,-258.21L-464.71,-294.99L-496.44,-281.51L-492.79,-253.86L-514.91,-250.94L-511.67,-226.42L-489.55,-229.34L-481.39,-167.55C-477.89,-141.11 -460.00,-133.44 -435.72,-136.65C-422.98,-138.33 -411.44,-143.53 -404.33,-150.83ZM-309.58,-155.76L-276.65,-160.11L-285.06,-223.82C-288.18,-247.38 -275.71,-258.57 -262.97,-260.25C-250.71,-261.87 -241.17,-256.28 -238.85,-238.73L-229.29,-166.37L-196.35,-170.72L-204.89,-235.39C-207.66,-256.31 -197.34,-268.92 -182.67,-270.86C-170.65,-272.45 -161.11,-266.86 -158.79,-249.31L-149.23,-176.95L-116.53,-181.27L-126.71,-260.15C-130.38,-289.76 -151.97,-301.34 -175.29,-298.26C-191.63,-296.10 -207.69,-286.15 -213.01,-269.05C-222.08,-284.00 -238.03,-289.96 -255.34,-287.68C-272.41,-285.42 -286.03,-275.55 -291.83,-258.40L-295.89,-279.87L-325.46,-275.97ZM24.80,-220.49C19.03,-219.73 15.77,-222.23 14.94,-228.48L8.49,-277.28C4.59,-306.85 -18.54,-318.96 -50.03,-314.80C-81.28,-310.67 -97.71,-294.32 -100.45,-272.43L-71.18,-267.49C-68.96,-282.22 -60.08,-289.02 -48.30,-290.57C-35.56,-292.26 -25.82,-285.23 -24.01,-271.52L-23.41,-266.95L-63.65,-253.08C-84.71,-245.89 -94.97,-232.79 -92.62,-215.00C-89.82,-193.85 -73.18,-184.55 -48.66,-187.79C-33.51,-189.79 -18.95,-198.07 -12.72,-210.15C-7.62,-199.33 4.17,-195.26 17.90,-196.83C24.39,-197.69 29.52,-199.59 33.12,-202.02L32.34,-222.71C30.27,-221.70 27.45,-220.84 24.80,-220.49ZM-43.33,-212.22C-51.74,-211.11 -59.04,-214.55 -60.09,-222.48C-61.20,-230.90 -56.06,-234.51 -45.28,-238.14L-20.71,-246.52L-19.72,-239.07C-17.40,-221.52 -29.62,-214.03 -43.33,-212.22ZM143.59,-215.64L180.85,-220.56L123.12,-287.29L162.09,-340.38L124.58,-335.43L79.93,-273.51L65.70,-381.22L32.76,-376.87L55.60,-204.01L88.54,-208.36L84.60,-238.17L103.39,-264.38ZM302.84,-304.43C298.58,-336.65 274.52,-357.68 238.22,-352.89C202.40,-348.16 180.45,-321.77 185.66,-282.35C190.87,-242.92 218.44,-223.08 256.42,-228.10C280.94,-231.34 300.43,-244.92 305.61,-264.93L278.07,-271.56C274.54,-261.31 267.13,-254.46 252.94,-252.59C236.35,-250.40 224.36,-257.86 219.24,-276.26L304.10,-287.48C304.01,-291.87 303.70,-297.94 302.84,-304.43ZM241.19,-328.57C256.09,-330.54 266.44,-322.62 270.31,-306.25L216.46,-299.13C217.33,-316.62 226.04,-326.57 241.19,-328.57ZM387.93,-245.47C422.30,-250.01 439.07,-269.35 436.02,-292.43C433.90,-308.54 422.96,-319.08 398.53,-320.74L373.34,-322.55C361.24,-323.40 356.89,-326.74 356.22,-331.79C355.23,-339.24 362.12,-344.55 375.82,-346.36C388.32,-348.01 401.17,-343.35 409.84,-333.25L427.01,-355.08C414.74,-368.38 395.69,-373.69 371.65,-370.52C336.55,-365.88 321.20,-345.02 323.78,-325.54C326.22,-307.03 338.33,-296.89 366.98,-294.80L388.70,-293.27C399.57,-292.51 402.72,-289.01 403.39,-283.96C404.44,-276.03 396.74,-271.34 384.24,-269.69C366.69,-267.37 352.62,-273.83 343.41,-284.35L326.96,-262.61C341.55,-248.40 363.64,-242.26 387.93,-245.47ZM647.95,-302.82C642.18,-302.06 638.91,-304.56 638.09,-310.81L631.64,-359.61C627.73,-389.19 604.61,-401.30 573.11,-397.13C541.86,-393.01 525.43,-376.65 522.70,-354.76L551.97,-349.82C554.18,-364.55 563.07,-371.35 574.85,-372.90C587.59,-374.59 597.32,-367.56 599.13,-353.85L599.74,-349.28L559.50,-335.41C538.43,-328.22 528.18,-315.12 530.53,-297.33C533.32,-276.18 549.96,-266.88 574.48,-270.12C589.63,-272.12 604.19,-280.40 610.42,-292.48C615.52,-281.66 627.31,-277.59 641.05,-279.16C647.54,-280.02 652.67,-281.92 656.26,-284.35L655.48,-305.04C653.42,-304.03 650.59,-303.17 647.95,-302.82ZM579.82,-294.55C571.40,-293.44 564.10,-296.88 563.05,-304.81C561.94,-313.23 567.09,-316.84 577.86,-320.47L602.44,-328.85L603.42,-321.40C605.74,-303.85 593.52,-296.36 579.82,-294.55ZM734.19,-418.42C715.68,-415.97 701.85,-405.83 696.62,-388.01L692.43,-410.45L662.86,-406.55L678.75,-286.34L711.68,-290.69L703.26,-354.40C700.09,-378.44 712.62,-389.15 726.32,-390.96C738.82,-392.61 748.85,-387.09 751.55,-366.65L760.73,-297.17L793.66,-301.52L783.24,-380.38C779.40,-409.47 759.19,-421.72 734.19,-418.42ZM-495.27,53.21C-481.57,51.40 -475.60,44.74 -477.16,32.96C-478.71,21.18 -486.24,16.05 -499.94,17.87C-513.64,19.68 -519.58,26.58 -518.03,38.36C-516.47,50.14 -508.98,55.02 -495.27,53.21ZM-476.64,68.36L-509.57,72.71L-493.69,192.91L-460.76,188.56ZM-425.90,183.95L-392.96,179.60L-401.38,115.89C-404.49,92.33 -392.02,81.15 -379.28,79.46C-367.02,77.84 -357.48,83.43 -355.16,100.98L-345.60,173.35L-312.66,168.99L-321.21,104.32C-323.97,83.41 -313.65,70.79 -298.99,68.86C-286.97,67.27 -277.42,72.86 -275.10,90.41L-265.54,162.77L-232.85,158.45L-243.02,79.56C-246.69,49.96 -268.28,38.38 -291.60,41.46C-307.95,43.62 -324.00,53.57 -329.32,70.66C-338.39,55.72 -354.34,49.75 -371.65,52.04C-388.72,54.29 -402.34,64.17 -408.15,81.32L-412.21,59.84L-441.78,63.75ZM-143.75,21.93C-162.74,24.44 -175.80,36.68 -180.46,53.20L-185.02,29.83L-214.59,33.73L-192.04,204.42L-159.10,200.07L-168.50,128.91C-159.96,141.73 -145.74,149.39 -127.95,147.04C-98.38,143.13 -79.34,116.89 -84.55,77.46C-89.73,38.27 -114.41,18.05 -143.75,21.93ZM-140.90,123.06C-157.97,125.32 -170.66,112.56 -173.71,89.48C-176.82,65.92 -167.34,50.73 -150.27,48.47C-132.72,46.15 -120.66,57.77 -117.46,82.05C-114.25,106.33 -123.35,120.74 -140.90,123.06ZM59.23,99.31C53.46,100.07 50.19,97.57 49.37,91.32L42.92,42.52C39.01,12.95 15.89,0.84 -15.61,5.00C-46.86,9.13 -63.29,25.48 -66.02,47.37L-36.75,52.31C-34.54,37.59 -25.65,30.79 -13.87,29.23C-1.13,27.55 8.60,34.58 10.41,48.28L11.02,52.85L-29.22,66.72C-50.29,73.91 -60.54,87.01 -58.19,104.80C-55.40,125.95 -38.76,135.25 -14.24,132.01C0.91,130.01 15.47,121.73 21.70,109.65C26.80,120.47 38.59,124.54 52.33,122.97C58.82,122.12 63.95,120.21 67.54,117.78L66.76,97.09C64.70,98.10 61.87,98.96 59.23,99.31ZM-8.90,107.58C-17.32,108.69 -24.62,105.25 -25.67,97.32C-26.78,88.91 -21.63,85.29 -10.86,81.67L13.72,73.28L14.70,80.73C17.02,98.28 4.80,105.77 -8.90,107.58ZM128.40,-14.03C92.10,-9.23 70.14,17.15 75.35,56.58C80.56,96.00 108.37,115.81 145.88,110.86C175.69,106.92 193.19,89.44 195.66,67.35L164.57,61.67C163.74,75.72 156.58,84.49 142.40,86.37C124.37,88.75 111.72,78.19 108.32,52.47C104.99,27.22 113.61,12.88 132.12,10.43C145.10,8.71 154.02,15.12 158.81,29.16L188.12,14.04C179.75,-4.91 160.61,-18.29 128.40,-14.03ZM299.64,58.25C295.16,63.25 289.95,66.38 281.77,67.46C271.44,68.83 264.52,64.61 262.99,53.07L255.53,-3.43L293.99,-8.51L290.75,-33.03L252.29,-27.95L247.43,-64.73L215.70,-51.25L219.35,-23.60L197.23,-20.68L200.47,3.84L222.59,0.92L230.76,62.71C234.25,89.15 252.14,96.82 276.42,93.61C289.16,91.93 300.71,86.73 307.82,79.43ZM361.32,-83.94C324.54,-79.08 306.70,-58.62 304.47,-32.89L337.31,-25.00C337.19,-42.59 346.23,-53.82 362.81,-56.01C379.88,-58.26 389.07,-51.65 390.66,-39.63C392.63,-24.72 382.17,-15.02 352.56,-7.69L357.12,28.65L387.17,24.67L385.87,1.85C410.52,-4.09 429.27,-19.54 425.43,-48.63C421.75,-76.51 394.98,-88.39 361.32,-83.94ZM374.57,42.24C361.83,43.92 355.09,52.15 356.61,63.69C358.14,75.23 366.78,81.43 379.53,79.74C392.27,78.06 399.25,69.80 397.72,58.26C396.20,46.72 387.31,40.56 374.57,42.24Z" fill="#ffffff" stroke="#000000"/>
    <path d="M-973.59,-20.75L-936.01,-27.40L-929.56,-116.28L-928.76,-154.44L-928.29,-154.53L-914.44,-118.96L-877.64,-37.73L-841.01,-44.21L-823.24,-208.21L-856.56,-202.32L-864.25,-68.12L-918.71,-191.32L-949.91,-185.80L-958.31,-51.48L-1011.83,-174.84L-1046.57,-168.69ZM-773.89,-56.08L-741.52,-61.81L-752.56,-124.20C-756.74,-147.84 -744.86,-159.20 -731.15,-161.63C-718.86,-163.80 -708.95,-158.73 -705.35,-138.41L-693.30,-70.35L-660.93,-76.08L-674.65,-153.59C-679.71,-182.19 -700.22,-193.42 -724.80,-189.07C-741.57,-186.11 -753.99,-176.35 -758.87,-159.89L-771.58,-231.73L-803.96,-226.00ZM-523.12,-120.94C-528.79,-119.93 -532.13,-122.27 -533.21,-128.41L-541.70,-176.39C-546.85,-205.45 -570.24,-216.43 -601.20,-210.95C-631.92,-205.51 -647.45,-188.62 -649.21,-166.87L-620.05,-163.25C-618.50,-177.91 -610.01,-185.01 -598.43,-187.06C-585.91,-189.28 -575.98,-182.75 -573.59,-169.28L-572.80,-164.79L-611.98,-149.32C-632.50,-141.31 -642.07,-127.91 -638.98,-110.43C-635.30,-89.63 -618.44,-81.16 -594.34,-85.42C-579.45,-88.06 -565.41,-96.88 -559.77,-109.09C-554.26,-98.61 -542.43,-95.09 -528.92,-97.24C-522.54,-98.37 -517.55,-100.47 -514.10,-103.03L-515.76,-123.46C-517.76,-122.37 -520.52,-121.40 -523.12,-120.94ZM-590.12,-109.81C-598.39,-108.35 -605.76,-111.43 -607.14,-119.23C-608.61,-127.50 -603.67,-131.30 -593.18,-135.35L-569.24,-144.70L-567.95,-137.38C-564.89,-120.12 -576.65,-112.19 -590.12,-109.81ZM-420.49,-148.36C-424.70,-143.23 -429.71,-139.90 -437.75,-138.48C-447.91,-136.68 -454.93,-140.56 -456.94,-151.90L-466.77,-207.44L-428.96,-214.13L-433.22,-238.23L-471.03,-231.54L-477.43,-267.70L-508.22,-252.99L-503.41,-225.81L-525.15,-221.97L-520.89,-197.86L-499.14,-201.71L-488.40,-140.97C-483.80,-114.98 -465.78,-108.17 -441.91,-112.40C-429.38,-114.61 -418.19,-120.25 -411.48,-127.77ZM-318.02,-136.76L-285.64,-142.49L-296.72,-205.11C-300.82,-228.27 -288.98,-239.87 -276.45,-242.09C-264.40,-244.22 -254.72,-239.11 -251.67,-221.86L-239.08,-150.73L-206.71,-156.45L-217.95,-220.03C-221.59,-240.59 -211.94,-253.51 -197.52,-256.06C-185.70,-258.15 -176.03,-253.04 -172.97,-235.79L-160.38,-164.65L-128.24,-170.34L-141.73,-247.90C-146.63,-277.01 -168.48,-287.52 -191.40,-283.46C-207.47,-280.62 -222.91,-270.09 -227.44,-252.96C-237.05,-267.34 -253.08,-272.55 -270.10,-269.54C-286.88,-266.57 -299.92,-256.22 -304.91,-239.00L-309.86,-260.07L-338.93,-254.92ZM9.80,-215.24C4.13,-214.24 0.79,-216.57 -0.29,-222.72L-8.78,-270.69C-13.93,-299.76 -37.32,-310.73 -68.28,-305.25C-99.00,-299.82 -114.53,-282.93 -116.29,-261.17L-87.13,-257.56C-85.58,-272.21 -77.09,-279.32 -65.51,-281.37C-52.99,-283.59 -43.06,-277.06 -40.67,-263.59L-39.88,-259.10L-79.06,-243.63C-99.58,-235.61 -109.15,-222.22 -106.06,-204.73C-102.38,-183.93 -85.52,-175.46 -61.42,-179.73C-46.53,-182.36 -32.49,-191.18 -26.85,-203.39C-21.34,-192.91 -9.51,-189.40 4.00,-191.55C10.38,-192.68 15.37,-194.78 18.82,-197.34L17.16,-217.76C15.16,-216.68 12.40,-215.70 9.80,-215.24ZM-57.20,-204.12C-65.47,-202.65 -72.84,-205.73 -74.22,-213.53C-75.69,-221.80 -70.75,-225.60 -60.26,-229.65L-36.32,-239.01L-35.03,-231.68C-31.97,-214.43 -43.73,-206.50 -57.20,-204.12ZM127.46,-215.59L164.09,-222.07L104.11,-285.55L140.35,-339.73L103.48,-333.21L62.01,-270.06L43.27,-375.93L10.90,-370.20L40.97,-200.28L73.34,-206.01L68.16,-235.32L85.61,-262.05ZM281.07,-310.28C275.47,-341.95 250.77,-361.71 215.08,-355.40C179.87,-349.16 159.31,-322.13 166.16,-283.37C173.02,-244.61 201.14,-226.19 238.48,-232.80C262.59,-237.06 281.27,-251.34 285.53,-271.35L258.01,-276.71C254.96,-266.42 247.92,-259.33 233.98,-256.86C217.67,-253.98 205.49,-260.84 199.63,-278.81L283.05,-293.57C282.77,-297.91 282.20,-303.90 281.07,-310.28ZM219.07,-331.48C233.72,-334.08 244.29,-326.69 248.83,-310.67L195.89,-301.30C196.00,-318.63 204.18,-328.85 219.07,-331.48ZM367.75,-255.67C401.55,-261.65 417.29,-281.50 413.28,-304.19C410.47,-320.02 399.21,-329.97 374.98,-330.56L349.99,-331.26C337.99,-331.57 333.54,-334.68 332.67,-339.64C331.37,-346.97 337.94,-352.52 351.41,-354.90C363.70,-357.08 376.61,-353.03 385.62,-343.41L401.65,-365.74C388.94,-378.36 369.88,-382.79 346.24,-378.61C311.74,-372.50 297.47,-351.21 300.86,-332.07C304.08,-313.87 316.49,-304.37 344.90,-303.54L366.45,-302.97C377.23,-302.68 380.50,-299.36 381.37,-294.40C382.75,-286.60 375.35,-281.63 363.06,-279.46C345.81,-276.41 331.62,-282.18 322.05,-292.19L306.73,-269.98C321.78,-256.56 343.89,-251.45 367.75,-255.67ZM622.37,-323.64C616.69,-322.64 613.36,-324.97 612.27,-331.12L603.78,-379.09C598.64,-408.16 575.25,-419.13 544.29,-413.65C513.56,-408.22 498.03,-391.33 496.27,-369.57L525.43,-365.96C526.98,-380.61 535.47,-387.72 547.05,-389.77C559.58,-391.98 569.51,-385.46 571.89,-371.98L572.68,-367.49L533.50,-352.03C512.98,-344.01 503.41,-330.62 506.51,-313.13C510.19,-292.33 527.04,-283.86 551.15,-288.13C566.03,-290.76 580.07,-299.58 585.71,-311.79C591.22,-301.31 603.05,-297.80 616.57,-299.95C622.95,-301.08 627.94,-303.18 631.38,-305.74L629.72,-326.16C627.72,-325.08 624.97,-324.10 622.37,-323.64ZM555.36,-312.51C547.09,-311.05 539.72,-314.13 538.34,-321.93C536.87,-330.20 541.81,-334.00 552.30,-338.05L576.24,-347.41L577.54,-340.08C580.59,-322.83 568.83,-314.90 555.36,-312.51ZM702.63,-441.67C684.43,-438.45 671.20,-427.82 666.80,-409.98L661.69,-431.99L632.62,-426.85L653.53,-308.68L685.91,-314.41L674.82,-377.04C670.64,-400.67 682.57,-411.80 696.04,-414.18C708.33,-416.36 718.48,-411.33 722.03,-391.24L734.12,-322.94L766.49,-328.67L752.78,-406.19C747.72,-434.78 727.20,-446.02 702.63,-441.67ZM-492.56,77.90C-479.09,75.52 -473.48,68.68 -475.53,57.10C-477.58,45.52 -485.24,40.78 -498.71,43.16C-512.18,45.55 -517.75,52.62 -515.70,64.20C-513.65,75.79 -506.03,80.29 -492.56,77.90ZM-473.48,92.07L-505.86,97.80L-484.95,215.97L-452.57,210.24ZM-418.30,204.17L-385.92,198.44L-397.01,135.82C-401.11,112.66 -389.27,101.06 -376.74,98.84C-364.69,96.71 -355.01,101.82 -351.96,119.07L-339.37,190.21L-306.99,184.48L-318.24,120.90C-321.88,100.34 -312.22,87.42 -297.81,84.87C-285.99,82.78 -276.31,87.89 -273.26,105.14L-260.67,176.28L-228.53,170.59L-242.01,93.03C-246.92,63.92 -268.76,53.41 -291.69,57.47C-307.76,60.31 -323.20,70.84 -327.72,87.97C-337.34,73.59 -353.37,68.38 -370.39,71.39C-387.17,74.36 -400.20,84.71 -405.20,101.93L-410.14,80.87L-439.21,86.01ZM-146.35,31.75C-165.02,35.05 -177.40,47.72 -181.30,64.25L-186.81,41.35L-215.88,46.49L-186.19,214.28L-153.81,208.55L-166.19,138.60C-157.19,150.90 -142.80,157.86 -125.31,154.76C-96.24,149.62 -78.56,122.85 -85.41,84.09C-92.23,45.57 -117.51,26.64 -146.35,31.75ZM-139.15,131.62C-155.93,134.59 -169.03,122.53 -173.05,99.84C-177.15,76.68 -168.42,61.25 -151.65,58.28C-134.39,55.22 -121.97,66.19 -117.75,90.06C-113.53,113.93 -121.90,128.57 -139.15,131.62ZM57.70,99.47C52.02,100.47 48.69,98.14 47.60,91.99L39.11,44.02C33.96,14.95 10.57,3.98 -20.38,9.46C-51.11,14.89 -66.64,31.78 -68.40,53.54L-39.24,57.15C-37.69,42.50 -29.20,35.39 -17.62,33.34C-5.09,31.12 4.84,37.65 7.22,51.12L8.01,55.61L-31.17,71.08C-51.69,79.10 -61.26,92.49 -58.17,109.98C-54.49,130.78 -37.63,139.25 -13.53,134.98C1.36,132.35 15.40,123.53 21.04,111.32C26.55,121.80 38.38,125.31 51.90,123.16C58.28,122.03 63.27,119.93 66.71,117.37L65.05,96.95C63.05,98.03 60.29,99.01 57.70,99.47ZM-9.31,110.59C-17.58,112.06 -24.95,108.98 -26.33,101.18C-27.80,92.90 -22.86,89.11 -12.37,85.06L11.57,75.70L12.86,83.03C15.92,100.28 4.16,108.21 -9.31,110.59ZM121.18,-15.59C85.49,-9.28 64.93,17.76 71.79,56.52C78.64,95.27 107.00,113.65 143.87,107.13C173.17,101.94 189.72,83.90 191.20,61.95L160.22,57.68C160.01,71.61 153.31,80.60 139.37,83.07C121.64,86.20 108.68,76.31 104.21,51.02C99.81,26.21 107.72,11.65 125.91,8.43C138.68,6.17 147.77,12.12 153.12,25.79L181.44,9.57C172.34,-8.81 152.84,-21.20 121.18,-15.59ZM293.62,48.46C289.41,53.59 284.39,56.92 276.35,58.34C266.19,60.14 259.17,56.26 257.16,44.92L247.33,-10.62L285.15,-17.31L280.88,-41.42L243.07,-34.73L236.67,-70.88L205.88,-56.17L210.69,-29.00L188.95,-25.15L193.21,-1.04L214.96,-4.89L225.70,55.84C230.30,81.84 248.33,88.64 272.19,84.42C284.72,82.20 295.91,76.57 302.62,69.04ZM348.45,-94.81C312.29,-88.41 295.54,-67.41 294.45,-41.87L327.26,-35.49C326.38,-52.88 334.83,-64.37 351.13,-67.25C367.91,-70.22 377.29,-64.08 379.38,-52.27C381.97,-37.61 372.05,-27.57 343.09,-19.04L349.17,16.69L378.71,11.46L376.43,-11.04C400.55,-17.99 418.42,-34.07 413.36,-62.67C408.51,-90.08 381.54,-100.66 348.45,-94.81ZM367.01,29.38C354.49,31.59 348.18,40.02 350.19,51.36C352.20,62.71 361.01,68.46 373.54,66.24C386.06,64.03 392.61,55.56 390.60,44.21C388.59,32.87 379.54,27.16 367.01,29.38Z" fill="#ffffff" stroke="#000000"/>
    <path d="M-968.37,25.68L-931.51,17.48L-928.98,-70.67L-929.84,-108.44L-929.38,-108.54L-914.14,-73.97L-874.25,4.74L-838.31,-3.26L-827.84,-166.17L-860.53,-158.89L-862.33,-25.89L-921.50,-145.33L-952.11,-138.52L-954.60,-5.36L-1012.85,-125.00L-1046.92,-117.42ZM-772.47,-17.90L-740.71,-24.97L-754.33,-86.17C-759.49,-109.36 -748.23,-121.11 -734.79,-124.10C-722.73,-126.78 -712.71,-122.20 -708.27,-102.26L-693.42,-35.49L-661.66,-42.56L-678.58,-118.60C-684.82,-146.65 -705.58,-156.87 -729.69,-151.51C-746.15,-147.85 -758.00,-137.67 -762.12,-121.18L-777.80,-191.66L-809.56,-184.59ZM-527.35,-92.88C-532.92,-91.64 -536.32,-93.81 -537.66,-99.83L-548.13,-146.90C-554.48,-175.41 -578.08,-185.25 -608.45,-178.49C-638.58,-171.78 -653.21,-154.42 -654.00,-132.83L-625.02,-130.52C-624.13,-145.07 -616.04,-152.47 -604.68,-155.00C-592.39,-157.73 -582.29,-151.70 -579.35,-138.49L-578.37,-134.08L-616.44,-117.10C-636.38,-108.28 -645.26,-94.63 -641.44,-77.47C-636.90,-57.07 -619.87,-49.42 -596.23,-54.69C-581.62,-57.94 -568.13,-67.26 -563.08,-79.58C-557.18,-69.46 -545.33,-66.50 -532.06,-69.21C-525.80,-70.60 -520.96,-72.89 -517.66,-75.57L-520.19,-95.69C-522.13,-94.53 -524.80,-93.45 -527.35,-92.88ZM-593.12,-78.98C-601.23,-77.17 -608.65,-79.90 -610.35,-87.55C-612.16,-95.67 -607.45,-99.64 -597.25,-104.09L-573.99,-114.38L-572.39,-107.19C-568.62,-90.27 -579.90,-81.92 -593.12,-78.98ZM-427.08,-124.44C-431.02,-119.18 -435.83,-115.68 -443.72,-113.92C-453.68,-111.71 -460.80,-115.23 -463.27,-126.36L-475.39,-180.84L-438.30,-189.09L-443.56,-212.74L-480.65,-204.49L-488.55,-239.96L-518.35,-224.08L-512.42,-197.42L-533.74,-192.68L-528.48,-169.03L-507.15,-173.77L-493.90,-114.19C-488.22,-88.69 -470.11,-82.75 -446.70,-87.96C-434.41,-90.69 -423.59,-96.75 -417.28,-104.48ZM-325.27,-117.41L-293.51,-124.47L-307.18,-185.91C-312.23,-208.63 -301.03,-220.61 -288.74,-223.34C-276.92,-225.97 -267.13,-221.34 -263.37,-204.42L-247.84,-134.64L-216.08,-141.70L-229.95,-204.07C-234.44,-224.23 -225.45,-237.43 -211.31,-240.57C-199.72,-243.15 -189.93,-238.52 -186.17,-221.59L-170.64,-151.81L-139.11,-158.83L-155.80,-234.92C-161.91,-263.49 -183.96,-272.94 -206.45,-267.93C-222.22,-264.42 -237.03,-253.34 -240.76,-236.21C-250.88,-250.02 -266.96,-254.47 -283.65,-250.75C-300.11,-247.09 -312.55,-236.30 -316.74,-219.06L-322.55,-239.67L-351.06,-233.32ZM-4.58,-209.20C-10.14,-207.96 -13.54,-210.12 -14.88,-216.15L-25.35,-263.21C-31.70,-291.73 -55.30,-301.56 -85.67,-294.81C-115.81,-288.10 -130.43,-270.73 -131.23,-249.15L-102.24,-246.84C-101.35,-261.39 -93.26,-268.79 -81.90,-271.31C-69.61,-274.05 -59.51,-268.02 -56.57,-254.81L-55.59,-250.40L-93.66,-233.42C-113.60,-224.60 -122.48,-210.95 -118.67,-193.79C-114.13,-173.39 -97.10,-165.74 -73.45,-171.00C-58.84,-174.25 -45.35,-183.58 -40.30,-195.90C-34.40,-185.78 -22.55,-182.82 -9.28,-185.52C-3.02,-186.92 1.82,-189.21 5.11,-191.89L2.58,-212.01C0.65,-210.85 -2.03,-209.77 -4.58,-209.20ZM-70.34,-195.30C-78.45,-193.49 -85.87,-196.22 -87.58,-203.87C-89.38,-211.99 -84.67,-215.95 -74.47,-220.41L-51.21,-230.70L-49.61,-223.51C-45.84,-206.59 -57.12,-198.24 -70.34,-195.30ZM111.73,-214.64L147.66,-222.64L85.62,-282.80L119.09,-337.93L82.93,-329.89L44.66,-265.65L21.55,-369.51L-10.21,-362.45L26.88,-195.76L58.64,-202.83L52.25,-231.57L68.34,-258.76ZM259.49,-314.91C252.58,-345.98 227.30,-364.44 192.30,-356.65C157.75,-348.97 138.60,-321.35 147.06,-283.33C155.52,-245.31 184.11,-228.31 220.74,-236.46C244.39,-241.72 262.24,-256.64 265.58,-276.61L238.15,-280.72C235.57,-270.42 228.93,-263.10 215.25,-260.06C199.25,-256.50 186.91,-262.76 180.34,-280.27L262.18,-298.48C261.71,-302.76 260.88,-308.65 259.49,-314.91ZM197.28,-333.19C211.65,-336.39 222.42,-329.54 227.60,-313.90L175.67,-302.35C175.02,-319.48 182.67,-329.94 197.28,-333.19ZM347.55,-264.68C380.71,-272.05 395.41,-292.36 390.46,-314.61C387.00,-330.15 375.43,-339.49 351.45,-339.02L326.72,-338.63C314.85,-338.42 310.31,-341.31 309.23,-346.17C307.63,-353.36 313.89,-359.13 327.10,-362.07C339.16,-364.76 352.09,-361.31 361.42,-352.19L376.30,-374.97C363.18,-386.89 344.15,-390.44 320.96,-385.28C287.12,-377.75 273.93,-356.08 278.11,-337.30C282.08,-319.45 294.76,-310.60 322.89,-311.01L344.22,-311.38C354.88,-311.56 358.26,-308.42 359.34,-303.55C361.05,-295.90 353.94,-290.67 341.88,-287.99C324.96,-284.22 310.69,-289.32 300.79,-298.80L286.60,-276.18C302.06,-263.56 324.14,-259.47 347.55,-264.68ZM596.33,-342.90C590.76,-341.66 587.36,-343.83 586.02,-349.85L575.55,-396.92C569.21,-425.43 545.61,-435.27 515.24,-428.51C485.10,-421.80 470.47,-404.44 469.68,-382.85L498.66,-380.54C499.56,-395.09 507.65,-402.49 519.01,-405.02C531.29,-407.75 541.39,-401.72 544.33,-388.51L545.31,-384.10L507.24,-367.12C487.31,-358.30 478.42,-344.65 482.24,-327.49C486.78,-307.09 503.81,-299.44 527.46,-304.71C542.06,-307.96 555.56,-317.28 560.60,-329.60C566.50,-319.48 578.36,-316.52 591.62,-319.23C597.88,-320.62 602.72,-322.91 606.02,-325.59L603.49,-345.71C601.56,-344.55 598.88,-343.47 596.33,-342.90ZM530.57,-329.00C522.45,-327.19 515.03,-329.92 513.33,-337.57C511.52,-345.69 516.24,-349.66 526.44,-354.11L549.70,-364.40L551.30,-357.21C555.06,-340.29 543.78,-331.94 530.57,-329.00ZM670.56,-463.07C652.71,-459.10 640.09,-448.02 636.52,-430.19L630.51,-451.72L601.99,-445.38L627.79,-329.46L659.55,-336.53L645.88,-397.96C640.72,-421.15 652.03,-432.67 665.24,-435.61C677.29,-438.29 687.55,-433.76 691.93,-414.05L706.84,-347.05L738.60,-354.12L721.68,-430.16C715.44,-458.21 694.67,-468.43 670.56,-463.07ZM-488.53,102.37C-475.32,99.43 -470.07,92.42 -472.59,81.06C-475.12,69.71 -482.90,65.35 -496.12,68.29C-509.33,71.23 -514.53,78.47 -512.00,89.83C-509.48,101.19 -501.75,105.31 -488.53,102.37ZM-469.06,115.56L-500.82,122.62L-475.02,238.54L-443.26,231.47ZM-409.65,223.99L-377.89,216.93L-391.56,155.49C-396.61,132.77 -385.41,120.79 -373.12,118.06C-361.30,115.43 -351.51,120.06 -347.74,136.98L-332.22,206.76L-300.46,199.70L-314.33,137.34C-318.82,117.17 -309.83,103.97 -295.69,100.83C-284.10,98.25 -274.31,102.88 -270.54,119.81L-255.02,189.59L-223.49,182.57L-240.18,106.48C-246.29,77.91 -268.34,68.47 -290.83,73.47C-306.59,76.98 -321.40,88.06 -325.13,105.19C-335.26,91.38 -351.34,86.93 -368.03,90.65C-384.49,94.31 -396.93,105.10 -401.12,122.34L-406.92,101.73L-435.44,108.08ZM-148.25,41.75C-166.57,45.82 -178.26,58.88 -181.40,75.40L-187.84,52.99L-216.36,59.33L-179.74,223.93L-147.98,216.87L-163.24,148.24C-153.81,160.01 -139.28,166.27 -122.13,162.45C-93.61,156.11 -77.29,128.87 -85.75,90.85C-94.15,53.07 -119.97,35.45 -148.25,41.75ZM-136.82,140.17C-153.28,143.84 -166.75,132.48 -171.70,110.22C-176.76,87.50 -168.80,71.86 -152.34,68.20C-135.42,64.44 -122.66,74.74 -117.45,98.15C-112.24,121.57 -119.89,136.41 -136.82,140.17ZM56.40,99.86C50.84,101.10 47.44,98.93 46.10,92.91L35.63,45.84C29.28,17.33 5.68,7.49 -24.69,14.25C-54.83,20.96 -69.45,38.32 -70.25,59.91L-41.26,62.22C-40.37,47.67 -32.28,40.27 -20.92,37.74C-8.63,35.01 1.47,41.04 4.41,54.25L5.39,58.66L-32.68,75.64C-52.62,84.46 -61.50,98.11 -57.69,115.27C-53.15,135.67 -36.12,143.32 -12.47,138.05C2.14,134.80 15.63,125.48 20.68,113.16C26.58,123.28 38.43,126.24 51.70,123.53C57.95,122.14 62.80,119.85 66.09,117.17L63.56,97.05C61.63,98.21 58.95,99.29 56.40,99.86ZM-9.36,113.76C-17.47,115.57 -24.89,112.84 -26.60,105.19C-28.40,97.07 -23.69,93.10 -13.49,88.65L9.77,78.36L11.37,85.55C15.14,102.47 3.85,110.82 -9.36,113.76ZM114.18,-16.65C79.17,-8.86 60.01,18.76 68.47,56.78C76.93,94.80 105.76,111.75 141.93,103.70C170.68,97.30 186.26,78.75 186.77,56.98L155.96,54.11C156.35,67.89 150.11,77.06 136.44,80.10C119.05,83.97 105.81,74.75 100.29,49.95C94.87,25.61 102.05,10.87 119.90,6.90C132.42,4.11 141.67,9.60 147.55,22.89L174.85,5.62C165.06,-12.15 145.24,-23.56 114.18,-16.65ZM287.43,39.21C283.49,44.46 278.68,47.97 270.79,49.72C260.83,51.94 253.72,48.41 251.24,37.29L239.12,-17.19L276.21,-25.45L270.95,-49.09L233.86,-40.84L225.96,-76.31L196.16,-60.43L202.09,-33.77L180.77,-29.03L186.03,-5.38L207.36,-10.13L220.61,49.45C226.29,74.95 244.40,80.90 267.81,75.69C280.10,72.96 290.92,66.90 297.23,59.17ZM335.44,-104.81C299.97,-96.91 284.31,-75.42 284.34,-50.13L317.06,-45.24C315.43,-62.40 323.29,-74.12 339.28,-77.68C355.74,-81.34 365.28,-75.68 367.86,-64.09C371.05,-49.71 361.68,-39.35 333.42,-29.66L340.98,5.40L369.96,-1.05L366.73,-23.20C390.28,-31.12 407.25,-47.79 401.01,-75.84C395.02,-102.73 367.89,-112.03 335.44,-104.81ZM359.17,17.16C346.88,19.90 341.01,28.50 343.49,39.63C345.96,50.76 354.93,56.06 367.22,53.33C379.50,50.60 385.61,41.94 383.13,30.81C380.66,19.68 371.46,14.43 359.17,17.16Z" fill="#ffffff" stroke="#000000"/>
    <path d="M-960.86,71.52L-924.78,61.81L-926.10,-25.44L-928.58,-62.73L-928.13,-62.85L-911.57,-29.34L-868.72,46.74L-833.55,37.28L-830.26,-124.22L-862.25,-115.61L-858.27,15.94L-921.94,-99.56L-951.89,-91.50L-948.59,40.23L-1011.35,-75.51L-1044.71,-66.54ZM-769.10,19.95L-738.01,11.58L-754.12,-48.33C-760.22,-71.02 -749.61,-83.12 -736.44,-86.66C-724.64,-89.84 -714.54,-85.74 -709.29,-66.22L-691.71,-0.87L-660.62,-9.23L-680.64,-83.66C-688.03,-111.12 -709.00,-120.33 -732.60,-113.98C-748.71,-109.65 -759.98,-99.07 -763.34,-82.59L-781.89,-151.58L-812.98,-143.22ZM-530.04,-64.79C-535.49,-63.32 -538.94,-65.31 -540.53,-71.21L-552.92,-117.28C-560.43,-145.19 -584.18,-153.89 -613.91,-145.90C-643.41,-137.96 -657.12,-120.16 -656.97,-98.79L-628.22,-97.76C-627.96,-112.19 -620.29,-119.85 -609.17,-122.84C-597.14,-126.07 -586.89,-120.55 -583.42,-107.62L-582.26,-103.31L-619.15,-84.87C-638.48,-75.29 -646.67,-61.41 -642.15,-44.61C-636.78,-24.64 -619.62,-17.82 -596.47,-24.05C-582.17,-27.89 -569.24,-37.70 -564.78,-50.09C-558.51,-40.34 -546.67,-37.93 -533.67,-41.18C-527.54,-42.83 -522.85,-45.30 -519.71,-48.10L-523.08,-67.87C-524.94,-66.64 -527.54,-65.46 -530.04,-64.79ZM-594.45,-48.20C-602.39,-46.06 -609.84,-48.44 -611.86,-55.92C-613.99,-63.87 -609.51,-67.99 -599.62,-72.84L-577.07,-84.02L-575.18,-76.98C-570.72,-60.42 -581.51,-51.67 -594.45,-48.20ZM-432.28,-100.33C-435.95,-94.96 -440.56,-91.29 -448.27,-89.21C-458.03,-86.59 -465.21,-89.77 -468.14,-100.66L-482.49,-153.99L-446.18,-163.75L-452.40,-186.90L-488.71,-177.14L-498.05,-211.86L-526.82,-194.87L-519.80,-168.77L-540.68,-163.16L-534.45,-140.01L-513.58,-145.63L-497.89,-87.30C-491.18,-62.34 -473.02,-57.25 -450.10,-63.41C-438.07,-66.65 -427.64,-73.10 -421.73,-81.02ZM-331.34,-97.78L-300.25,-106.15L-316.42,-166.28C-322.40,-188.52 -311.85,-200.85 -299.82,-204.09C-288.24,-207.20 -278.37,-203.04 -273.91,-186.48L-255.54,-118.17L-224.45,-126.53L-240.87,-187.58C-246.18,-207.32 -237.86,-220.75 -224.02,-224.47C-212.67,-227.52 -202.80,-223.37 -198.34,-206.80L-179.97,-138.49L-149.11,-146.79L-168.90,-221.29C-176.18,-249.26 -198.39,-257.65 -220.40,-251.73C-235.83,-247.58 -249.99,-235.98 -252.94,-218.89C-263.55,-232.09 -279.63,-235.80 -295.97,-231.40C-312.08,-227.07 -323.91,-215.86 -327.31,-198.64L-333.94,-218.76L-361.85,-211.25ZM-18.30,-202.41C-23.75,-200.95 -27.20,-202.94 -28.79,-208.84L-41.18,-254.91C-48.68,-282.82 -72.44,-291.52 -102.17,-283.52C-131.67,-275.59 -145.38,-257.79 -145.22,-236.42L-116.48,-235.39C-116.22,-249.81 -108.55,-257.47 -97.43,-260.47C-85.40,-263.70 -75.15,-258.18 -71.67,-245.25L-70.51,-240.93L-107.41,-222.49C-126.74,-212.92 -134.93,-199.03 -130.41,-182.24C-125.04,-162.27 -107.88,-155.45 -84.73,-161.67C-70.43,-165.52 -57.49,-175.32 -53.04,-187.72C-46.77,-177.97 -34.92,-175.55 -21.93,-178.81C-15.80,-180.45 -11.11,-182.93 -7.97,-185.72L-11.34,-205.50C-13.20,-204.27 -15.80,-203.08 -18.30,-202.41ZM-82.70,-185.82C-90.65,-183.69 -98.10,-186.06 -100.11,-193.55C-102.25,-201.49 -97.76,-205.62 -87.87,-210.47L-65.33,-221.64L-63.44,-214.61C-58.98,-198.04 -69.77,-189.30 -82.70,-185.82ZM96.44,-212.83L131.61,-222.29L67.67,-279.07L98.37,-335.02L62.97,-325.50L27.93,-260.35L0.59,-362.02L-30.50,-353.66L13.38,-190.49L44.47,-198.85L36.90,-226.99L51.63,-254.56ZM238.16,-318.35C229.98,-348.76 204.20,-365.92 169.93,-356.70C136.12,-347.61 118.37,-319.47 128.38,-282.26C138.39,-245.04 167.40,-229.48 203.25,-239.12C226.40,-245.35 243.40,-260.87 245.84,-280.75L218.54,-283.63C216.44,-273.33 210.19,-265.81 196.80,-262.21C181.14,-258.00 168.67,-263.65 161.42,-280.68L241.53,-302.22C240.88,-306.43 239.81,-312.22 238.16,-318.35ZM175.87,-333.72C189.94,-337.50 200.88,-331.20 206.68,-315.97L155.85,-302.30C154.46,-319.20 161.57,-329.88 175.87,-333.72ZM327.39,-272.51C359.84,-281.23 373.50,-301.94 367.64,-323.73C363.55,-338.93 351.71,-347.67 328.02,-346.17L303.59,-344.71C291.86,-343.99 287.25,-346.64 285.97,-351.41C284.08,-358.44 290.02,-364.42 302.95,-367.90C314.75,-371.07 327.69,-368.22 337.30,-359.61L351.03,-382.77C337.55,-393.99 318.57,-396.68 295.88,-390.57C262.75,-381.66 250.65,-359.67 255.60,-341.29C260.30,-323.82 273.21,-315.61 301.00,-317.24L322.07,-318.53C332.60,-319.17 336.08,-316.21 337.36,-311.45C339.37,-303.96 332.57,-298.48 320.77,-295.30C304.20,-290.85 289.87,-295.27 279.68,-304.21L266.64,-281.23C282.47,-269.43 304.47,-266.34 327.39,-272.51ZM569.92,-360.61C564.47,-359.14 561.02,-361.13 559.43,-367.03L547.04,-413.10C539.54,-441.01 515.78,-449.71 486.05,-441.72C456.55,-433.78 442.84,-415.98 442.99,-394.61L471.74,-393.58C472.00,-408.01 479.67,-415.67 490.79,-418.66C502.82,-421.89 513.07,-416.37 516.54,-403.44L517.70,-399.13L480.81,-380.69C461.48,-371.11 453.29,-357.23 457.81,-340.43C463.18,-320.46 480.34,-313.64 503.49,-319.87C517.79,-323.71 530.73,-333.52 535.18,-345.91C541.45,-336.16 553.30,-333.75 566.29,-337.00C572.42,-338.65 577.11,-341.12 580.25,-343.92L576.88,-363.69C575.02,-362.46 572.42,-361.28 569.92,-360.61ZM505.51,-344.02C497.57,-341.88 490.12,-344.26 488.10,-351.74C485.97,-359.69 490.46,-363.81 500.35,-368.66L522.89,-379.84L524.78,-372.80C529.24,-356.24 518.45,-347.49 505.51,-344.02ZM638.10,-482.61C620.63,-477.91 608.63,-466.41 605.87,-448.63L599.00,-469.66L571.08,-462.15L601.60,-348.68L632.69,-357.05L616.52,-417.18C610.41,-439.88 621.09,-451.75 634.02,-455.23C645.83,-458.41 656.16,-454.37 661.35,-435.08L678.98,-369.50L710.07,-377.86L690.06,-452.29C682.67,-479.75 661.70,-488.96 638.10,-482.61ZM-483.21,126.55C-470.27,123.07 -465.38,115.91 -468.37,104.79C-471.36,93.67 -479.24,89.71 -492.18,93.19C-505.11,96.66 -509.94,104.05 -506.95,115.17C-503.96,126.29 -496.14,130.02 -483.21,126.55ZM-463.38,138.73L-494.47,147.10L-463.96,260.56L-432.87,252.20ZM-399.96,243.35L-368.87,234.99L-385.04,174.85C-391.02,152.61 -380.47,140.28 -368.44,137.05C-356.87,133.94 -346.99,138.09 -342.53,154.66L-324.16,222.97L-293.07,214.61L-309.49,153.56C-314.80,133.82 -306.49,120.39 -292.64,116.67C-281.30,113.61 -271.42,117.77 -266.96,134.34L-248.59,202.65L-217.73,194.35L-237.52,119.85C-244.80,91.87 -267.01,83.49 -289.02,89.41C-304.46,93.56 -318.62,105.16 -321.56,122.25C-332.17,109.04 -348.25,105.34 -364.59,109.73C-380.71,114.07 -392.54,125.28 -395.94,142.50L-402.56,122.38L-430.48,129.89ZM-149.46,51.88C-167.39,56.70 -178.38,70.12 -180.77,86.58L-188.11,64.70L-216.02,72.21L-172.69,233.34L-141.60,224.97L-159.66,157.80C-149.83,169.03 -135.20,174.58 -118.40,170.07C-90.49,162.56 -75.53,134.93 -85.54,97.71C-95.49,60.72 -121.77,44.43 -149.46,51.88ZM-133.89,148.68C-150.00,153.01 -163.81,142.37 -169.67,120.58C-175.65,98.34 -168.47,82.54 -152.35,78.21C-135.79,73.75 -122.73,83.38 -116.57,106.30C-110.41,129.22 -117.32,144.22 -133.89,148.68ZM55.37,100.46C49.92,101.92 46.46,99.93 44.88,94.03L32.49,47.96C24.98,20.05 1.23,11.35 -28.50,19.35C-58.00,27.28 -71.71,45.08 -71.56,66.45L-42.81,67.48C-42.55,53.06 -34.88,45.40 -23.76,42.41C-11.73,39.17 -1.49,44.69 1.99,57.63L3.15,61.94L-33.75,80.38C-53.07,89.95 -61.26,103.84 -56.75,120.63C-51.37,140.60 -34.21,147.42 -11.06,141.20C3.24,137.35 16.17,127.55 20.63,115.15C26.90,124.90 38.74,127.32 51.74,124.07C57.87,122.42 62.55,119.94 65.70,117.15L62.32,97.37C60.46,98.60 57.86,99.79 55.37,100.46ZM-9.04,117.05C-16.98,119.18 -24.43,116.81 -26.45,109.32C-28.58,101.38 -24.10,97.25 -14.21,92.40L8.34,81.23L10.23,88.26C14.69,104.83 3.90,113.57 -9.04,117.05ZM107.43,-17.21C73.17,-8.00 55.42,20.14 65.43,57.35C75.44,94.57 104.68,110.07 140.08,100.55C168.22,92.98 182.82,73.97 182.38,52.43L151.80,50.92C152.78,64.53 147.02,73.86 133.63,77.46C116.61,82.04 103.11,73.50 96.58,49.22C90.18,25.39 96.64,10.51 114.11,5.81C126.37,2.52 135.75,7.54 142.13,20.42L168.37,2.17C157.92,-14.97 137.84,-25.39 107.43,-17.21ZM281.12,30.50C277.45,35.86 272.84,39.54 265.13,41.61C255.37,44.24 248.19,41.06 245.26,30.16L230.91,-23.17L267.22,-32.93L261.00,-56.08L224.69,-46.31L215.35,-81.03L186.58,-64.05L193.60,-37.95L172.72,-32.34L178.95,-9.19L199.82,-14.80L215.51,43.52C222.22,68.48 240.38,73.57 263.30,67.41C275.33,64.18 285.76,57.72 291.67,49.81ZM322.34,-113.94C287.61,-104.61 273.07,-82.69 274.20,-57.68L306.75,-54.27C304.40,-71.16 311.65,-83.09 327.31,-87.30C343.42,-91.63 353.09,-86.44 356.14,-75.10C359.93,-61.03 351.11,-50.38 323.60,-39.57L332.59,-5.25L360.95,-12.87L356.81,-34.63C379.74,-43.48 395.79,-60.69 388.41,-88.15C381.33,-114.48 354.11,-122.49 322.34,-113.94ZM351.08,5.60C339.05,8.83 333.62,17.59 336.55,28.49C339.48,39.38 348.57,44.24 360.60,41.00C372.63,37.77 378.28,28.94 375.36,18.05C372.43,7.16 363.11,2.36 351.08,5.60Z" fill="#ffffff" stroke="#000000"/>
    <path d="M-951.11,116.64L-915.86,105.49L-920.95,19.31L-925.02,-17.45L-924.57,-17.59L-906.76,14.82L-861.11,88.16L-826.75,77.29L-830.49,-82.48L-861.75,-72.59L-852.11,57.27L-920.05,-54.14L-949.31,-44.88L-940.33,85.19L-1007.38,-26.50L-1039.97,-16.18ZM-763.80,57.37L-733.43,47.75L-751.95,-10.76C-758.97,-32.93 -749.00,-45.35 -736.14,-49.42C-724.62,-53.07 -714.45,-49.46 -708.42,-30.40L-688.21,33.44L-657.85,23.83L-680.86,-48.87C-689.34,-75.69 -710.47,-83.88 -733.52,-76.59C-749.26,-71.61 -759.94,-60.67 -762.55,-44.24L-783.87,-111.62L-814.24,-102.01ZM-531.18,-36.74C-536.50,-35.05 -540.00,-36.87 -541.83,-42.64L-556.07,-87.63C-564.70,-114.90 -588.55,-122.47 -617.59,-113.28C-646.41,-104.16 -659.19,-85.97 -658.11,-64.85L-629.65,-65.08C-630.02,-79.35 -622.77,-87.25 -611.91,-90.69C-600.16,-94.41 -589.79,-89.40 -585.80,-76.76L-584.46,-72.55L-620.13,-52.73C-638.82,-42.42 -646.31,-28.35 -641.12,-11.94C-634.95,7.56 -617.69,13.56 -595.08,6.41C-581.11,1.99 -568.75,-8.27 -564.88,-20.71C-558.26,-11.34 -546.45,-9.47 -533.75,-13.25C-527.76,-15.14 -523.24,-17.79 -520.25,-20.69L-524.44,-40.09C-526.23,-38.79 -528.74,-37.51 -531.18,-36.74ZM-594.12,-17.55C-601.88,-15.09 -609.35,-17.12 -611.67,-24.44C-614.12,-32.19 -609.87,-36.47 -600.30,-41.69L-578.50,-53.71L-576.32,-46.84C-571.20,-30.66 -581.49,-21.55 -594.12,-17.55ZM-436.09,-76.10C-439.49,-70.64 -443.88,-66.81 -451.42,-64.42C-460.95,-61.40 -468.19,-64.23 -471.56,-74.87L-488.04,-126.97L-452.58,-138.19L-459.73,-160.80L-495.20,-149.57L-505.93,-183.49L-533.63,-165.46L-525.57,-139.96L-545.96,-133.51L-538.80,-110.90L-518.41,-117.35L-500.38,-60.39C-492.66,-36.00 -474.49,-31.76 -452.10,-38.84C-440.36,-42.56 -430.33,-49.39 -424.83,-57.47ZM-336.21,-77.96L-305.84,-87.57L-324.43,-146.31C-331.31,-168.03 -321.41,-180.68 -309.66,-184.39C-298.36,-187.97 -288.41,-184.29 -283.29,-168.11L-262.18,-101.39L-231.81,-111.00L-250.68,-170.63C-256.78,-189.91 -249.15,-203.55 -235.63,-207.83C-224.54,-211.33 -214.60,-207.65 -209.48,-191.47L-188.36,-124.75L-158.21,-134.29L-181.00,-207.07C-189.41,-234.40 -211.73,-241.73 -233.23,-234.92C-248.30,-230.15 -261.79,-218.08 -263.96,-201.05C-275.02,-213.65 -291.08,-216.61 -307.04,-211.56C-322.78,-206.58 -333.99,-194.99 -336.60,-177.82L-344.02,-197.42L-371.29,-188.79ZM-31.33,-194.93C-36.65,-193.25 -40.15,-195.07 -41.98,-200.83L-56.22,-245.83C-64.85,-273.09 -88.70,-280.66 -117.74,-271.47C-146.56,-262.35 -159.33,-244.16 -158.26,-223.04L-129.80,-223.27C-130.17,-237.54 -122.92,-245.45 -112.05,-248.88C-100.31,-252.60 -89.94,-247.59 -85.94,-234.96L-84.61,-230.74L-120.28,-210.92C-138.97,-200.62 -146.46,-186.54 -141.27,-170.14C-135.10,-150.63 -117.84,-144.63 -95.23,-151.79C-81.26,-156.21 -68.90,-166.46 -65.03,-178.90C-58.41,-169.53 -46.60,-167.66 -33.89,-171.44C-27.91,-173.33 -23.38,-175.99 -20.40,-178.88L-24.59,-198.28C-26.37,-196.99 -28.89,-195.70 -31.33,-194.93ZM-94.27,-175.74C-102.03,-173.29 -109.50,-175.31 -111.81,-182.63C-114.27,-190.39 -110.01,-194.66 -100.45,-199.88L-78.65,-211.90L-76.47,-205.03C-71.35,-188.85 -81.64,-179.74 -94.27,-175.74ZM81.63,-210.20L115.98,-221.07L50.32,-274.42L78.25,-331.06L43.67,-320.12L11.85,-254.20L-19.58,-353.51L-49.94,-343.90L0.50,-184.52L30.86,-194.13L22.17,-221.62L35.53,-249.50ZM217.14,-320.63C207.74,-350.34 181.51,-366.18 148.03,-355.58C115.01,-345.13 98.69,-316.56 110.19,-280.20C121.70,-243.85 151.04,-229.73 186.07,-240.81C208.68,-247.97 224.80,-264.04 226.35,-283.80L199.25,-285.46C197.62,-275.19 191.77,-267.49 178.69,-263.35C163.39,-258.51 150.82,-263.55 142.91,-280.07L221.16,-304.84C220.34,-308.97 219.03,-314.65 217.14,-320.63ZM154.90,-333.13C168.64,-337.48 179.73,-331.72 186.12,-316.91L136.47,-301.20C134.37,-317.85 140.93,-328.71 154.90,-333.13ZM307.32,-279.18C339.01,-289.22 351.61,-310.27 344.88,-331.55C340.18,-346.41 328.10,-354.53 304.75,-352.02L280.67,-349.52C269.10,-348.30 264.43,-350.72 262.96,-355.38C260.79,-362.25 266.40,-368.41 279.03,-372.41C290.56,-376.06 303.46,-373.80 313.34,-365.71L325.91,-389.20C312.09,-399.70 293.22,-401.53 271.06,-394.52C238.70,-384.28 227.69,-362.02 233.38,-344.06C238.78,-326.99 251.90,-319.44 279.30,-322.26L300.06,-324.44C310.45,-325.53 314.01,-322.76 315.48,-318.10C317.80,-310.79 311.31,-305.08 299.79,-301.43C283.61,-296.31 269.25,-300.06 258.79,-308.45L246.89,-285.18C263.05,-274.20 284.93,-272.10 307.32,-279.18ZM543.22,-376.77C537.90,-375.08 534.40,-376.90 532.58,-382.66L518.34,-427.66C509.71,-454.93 485.85,-462.50 456.81,-453.31C428.00,-444.19 415.22,-426.00 416.29,-404.88L444.75,-405.11C444.38,-419.38 451.64,-427.28 462.50,-430.72C474.25,-434.44 484.61,-429.43 488.61,-416.79L489.94,-412.58L454.27,-392.76C435.58,-382.45 428.09,-368.37 433.28,-351.97C439.46,-332.46 456.72,-326.47 479.33,-333.62C493.29,-338.04 505.65,-348.29 509.52,-360.74C516.14,-351.37 527.95,-349.50 540.66,-353.28C546.64,-355.17 551.17,-357.82 554.15,-360.72L549.96,-380.12C548.18,-378.82 545.66,-377.54 543.22,-376.77ZM480.28,-357.58C472.52,-355.12 465.05,-357.15 462.74,-364.46C460.28,-372.22 464.54,-376.50 474.10,-381.72L495.91,-393.74L498.08,-386.87C503.20,-370.69 492.92,-361.58 480.28,-357.58ZM605.33,-500.31C588.26,-494.91 576.90,-483.02 574.94,-465.33L567.24,-485.82L539.97,-477.19L575.05,-366.35L605.42,-375.97L586.83,-434.71C579.81,-456.87 589.85,-469.07 602.49,-473.07C614.01,-476.72 624.40,-473.18 630.36,-454.34L650.64,-390.28L681.00,-399.89L657.99,-472.59C649.51,-499.41 628.38,-507.60 605.33,-500.31ZM-476.61,150.35C-463.97,146.35 -459.45,139.07 -462.89,128.20C-466.32,117.34 -474.28,113.77 -486.92,117.76C-499.55,121.76 -504.01,129.27 -500.57,140.13C-497.13,150.99 -489.24,154.35 -476.61,150.35ZM-456.48,161.54L-486.85,171.15L-451.77,281.98L-421.41,272.37ZM-389.27,262.20L-358.90,252.59L-377.49,193.85C-384.36,172.12 -374.46,159.48 -362.72,155.76C-351.41,152.18 -341.47,155.87 -336.35,172.05L-315.23,238.77L-284.86,229.16L-303.73,169.53C-309.84,150.24 -302.20,136.61 -288.68,132.33C-277.60,128.82 -267.65,132.50 -262.53,148.69L-241.42,215.41L-211.27,205.87L-234.06,133.09C-242.46,105.76 -264.78,98.43 -286.28,105.23C-301.35,110.00 -314.85,122.08 -317.02,139.11C-328.08,126.51 -344.14,123.54 -360.10,128.60C-375.83,133.58 -387.04,145.17 -389.65,162.34L-397.08,142.74L-424.34,151.37ZM-149.96,62.09C-167.47,67.63 -177.75,81.37 -179.40,97.75L-187.60,76.44L-214.87,85.07L-165.06,242.45L-134.69,232.84L-155.46,167.23C-145.25,177.90 -130.55,182.76 -114.14,177.57C-86.88,168.94 -73.29,140.98 -84.80,104.63C-96.23,68.50 -122.92,53.53 -149.96,62.09ZM-130.38,157.10C-146.11,162.08 -160.23,152.16 -166.96,130.88C-173.84,109.15 -167.42,93.22 -151.68,88.24C-135.50,83.12 -122.18,92.07 -115.09,114.46C-108.01,136.85 -114.19,151.98 -130.38,157.10ZM54.60,101.24C49.28,102.92 45.78,101.11 43.95,95.34L29.71,50.34C21.08,23.08 -2.77,15.51 -31.81,24.70C-60.63,33.82 -73.41,52.01 -72.33,73.13L-43.87,72.90C-44.24,58.63 -36.99,50.72 -26.13,47.29C-14.38,43.57 -4.01,48.58 -0.01,61.21L1.32,65.43L-34.35,85.25C-53.04,95.55 -60.53,109.63 -55.34,126.03C-49.17,145.54 -31.91,151.54 -9.30,144.38C4.67,139.96 17.03,129.71 20.90,117.27C27.52,126.64 39.33,128.51 52.03,124.73C58.02,122.84 62.54,120.18 65.53,117.29L61.34,97.89C59.56,99.18 57.04,100.47 54.60,101.24ZM-8.34,120.43C-16.10,122.88 -23.57,120.86 -25.89,113.54C-28.34,105.78 -24.08,101.51 -14.52,96.29L7.28,84.27L9.46,91.14C14.58,107.32 4.29,116.43 -8.34,120.43ZM100.97,-17.32C67.49,-6.73 51.18,21.85 62.68,58.20C74.19,94.55 103.75,108.61 138.33,97.66C165.82,88.96 179.42,69.54 178.06,48.27L147.76,48.10C149.32,61.51 144.03,70.98 130.95,75.12C114.33,80.38 100.63,72.53 93.12,48.81C85.75,25.54 91.50,10.55 108.56,5.15C120.53,1.36 130.02,5.92 136.89,18.37L162.04,-0.80C150.97,-17.29 130.67,-26.72 100.97,-17.32ZM274.70,22.31C271.31,27.78 266.92,31.61 259.38,33.99C249.85,37.01 242.61,34.18 239.24,23.54L222.76,-28.55L258.22,-39.78L251.07,-62.39L215.60,-51.16L204.87,-85.08L177.17,-67.04L185.23,-41.55L164.84,-35.10L172.00,-12.49L192.39,-18.94L210.42,38.02C218.14,62.41 236.31,66.66 258.69,59.57C270.44,55.85 280.47,49.02 285.96,40.94ZM309.19,-122.24C275.27,-111.51 261.85,-89.21 264.04,-64.54L296.37,-62.58C293.31,-79.17 299.97,-91.28 315.26,-96.12C331.00,-101.10 340.78,-96.39 344.29,-85.31C348.64,-71.56 340.38,-60.66 313.66,-48.79L324.03,-15.24L351.74,-24.01L346.69,-45.34C368.98,-55.08 384.10,-72.79 375.61,-99.61C367.47,-125.32 340.22,-132.06 309.19,-122.24ZM342.77,-5.33C331.03,-1.61 326.04,7.29 329.41,17.93C332.77,28.57 341.97,32.97 353.72,29.25C365.47,25.54 370.68,16.57 367.31,5.93C363.94,-4.71 354.52,-9.04 342.77,-5.33Z" fill="#ffffff" stroke="#000000"/>
    <path d="M-939.16,160.95L-904.82,148.40L-913.57,63.45L-919.19,27.30L-918.76,27.14L-899.75,58.40L-851.46,128.91L-817.97,116.67L-828.59,-41.06L-859.05,-29.94L-843.90,97.98L-915.86,-9.18L-944.38,1.24L-929.88,129.40L-1000.98,21.92L-1032.74,33.52ZM-756.62,94.26L-727.02,83.44L-747.86,26.41C-755.75,4.81 -746.44,-7.90 -733.91,-12.48C-722.67,-16.58 -712.47,-13.46 -705.68,5.12L-682.95,67.34L-653.35,56.53L-679.24,-14.33C-688.79,-40.47 -710.03,-47.65 -732.49,-39.44C-747.83,-33.84 -757.91,-22.56 -759.78,-6.21L-783.77,-71.89L-813.37,-61.07ZM-530.80,-8.82C-535.98,-6.93 -539.52,-8.57 -541.57,-14.19L-557.60,-58.04C-567.30,-84.61 -591.21,-91.06 -619.51,-80.72C-647.59,-70.46 -659.43,-51.93 -657.46,-31.11L-629.34,-32.56C-630.32,-46.65 -623.50,-54.78 -612.91,-58.65C-601.46,-62.83 -591.00,-58.33 -586.50,-46.01L-585.00,-41.91L-619.40,-20.77C-637.42,-9.78 -644.22,4.46 -638.38,20.45C-631.43,39.46 -614.11,44.64 -592.08,36.59C-578.46,31.61 -566.69,20.95 -563.41,8.48C-556.46,17.45 -544.71,18.79 -532.31,14.51C-526.48,12.38 -522.12,9.56 -519.30,6.57L-524.28,-12.43C-525.99,-11.07 -528.42,-9.69 -530.80,-8.82ZM-592.17,12.87C-599.73,15.63 -607.20,13.95 -609.81,6.82C-612.57,-0.74 -608.55,-5.14 -599.32,-10.72L-578.29,-23.54L-575.85,-16.85C-570.08,-1.08 -579.86,8.37 -592.17,12.87ZM-438.53,-51.84C-441.64,-46.29 -445.82,-42.32 -453.17,-39.63C-462.46,-36.24 -469.73,-38.72 -473.52,-49.09L-492.07,-99.86L-457.50,-112.49L-465.55,-134.52L-500.12,-121.89L-512.19,-154.95L-538.79,-135.93L-529.71,-111.08L-549.59,-103.82L-541.54,-81.78L-521.66,-89.05L-501.38,-33.53C-492.70,-9.76 -474.55,-6.35 -452.73,-14.32C-441.28,-18.51 -431.67,-25.69 -426.59,-33.91ZM-339.89,-58.00L-310.29,-68.81L-331.21,-126.06C-338.95,-147.23 -329.71,-160.16 -318.26,-164.34C-307.24,-168.37 -297.26,-165.16 -291.49,-149.39L-267.74,-84.36L-238.14,-95.18L-259.37,-153.29C-266.24,-172.08 -259.28,-185.89 -246.11,-190.70C-235.30,-194.65 -225.32,-191.44 -219.55,-175.67L-195.80,-110.65L-166.42,-121.38L-192.09,-192.32C-201.58,-218.97 -223.95,-225.24 -244.91,-217.59C-259.60,-212.22 -272.41,-199.70 -273.82,-182.78C-285.29,-194.75 -301.29,-196.99 -316.85,-191.30C-332.19,-185.70 -342.76,-173.76 -344.60,-156.68L-352.78,-175.73L-379.36,-166.02ZM-43.64,-186.81C-48.83,-184.91 -52.37,-186.56 -54.42,-192.18L-70.44,-236.03C-80.15,-262.60 -104.06,-269.05 -132.36,-258.71C-160.44,-248.45 -172.28,-229.92 -170.30,-209.09L-142.19,-210.55C-143.17,-224.64 -136.34,-232.77 -125.76,-236.63C-114.31,-240.82 -103.85,-236.31 -99.35,-224.00L-97.85,-219.89L-132.24,-198.76C-150.27,-187.77 -157.06,-173.53 -151.22,-157.54C-144.28,-138.53 -126.96,-133.35 -104.92,-141.40C-91.31,-146.37 -79.54,-157.04 -76.26,-169.50C-69.31,-160.54 -57.55,-159.20 -45.16,-163.48C-39.33,-165.61 -34.97,-168.43 -32.14,-171.42L-37.12,-190.41C-38.83,-189.05 -41.27,-187.68 -43.64,-186.81ZM-105.02,-165.12C-112.58,-162.36 -120.05,-164.03 -122.65,-171.16C-125.41,-178.72 -121.39,-183.13 -112.17,-188.71L-91.14,-201.53L-88.69,-194.83C-82.93,-179.06 -92.70,-169.62 -105.02,-165.12ZM67.33,-206.78L100.82,-219.02L33.61,-268.91L58.76,-326.09L25.06,-313.77L-3.53,-247.25L-38.89,-344.04L-68.49,-333.22L-11.74,-177.90L17.86,-188.71L8.07,-215.50L20.07,-243.63ZM196.47,-321.80C185.90,-350.75 159.29,-365.27 126.67,-353.35C94.48,-341.59 79.59,-312.64 92.53,-277.21C105.48,-241.78 135.09,-229.09 169.22,-241.56C191.26,-249.61 206.50,-266.20 207.18,-285.79L180.32,-286.26C179.15,-276.04 173.70,-268.18 160.96,-263.52C146.05,-258.07 133.41,-262.51 124.88,-278.50L201.14,-306.36C200.15,-310.41 198.61,-315.96 196.47,-321.80ZM134.42,-331.45C147.82,-336.34 159.03,-331.13 165.98,-316.78L117.59,-299.10C114.80,-315.46 120.81,-326.48 134.42,-331.45ZM287.39,-284.74C318.29,-296.02 329.83,-317.38 322.25,-338.12C316.96,-352.60 304.67,-360.10 281.70,-356.61L258.01,-353.10C246.64,-351.39 241.92,-353.58 240.26,-358.12C237.81,-364.82 243.09,-371.15 255.40,-375.65C266.64,-379.75 279.49,-378.08 289.60,-370.51L301.00,-394.27C286.90,-404.05 268.17,-405.05 246.57,-397.15C215.02,-385.63 205.12,-363.15 211.51,-345.66C217.59,-329.02 230.88,-322.12 257.84,-326.10L278.27,-329.15C288.48,-330.68 292.12,-328.09 293.78,-323.56C296.38,-316.43 290.22,-310.50 278.99,-306.40C263.22,-300.64 248.87,-303.72 238.17,-311.56L227.42,-288.05C243.86,-277.89 265.57,-276.77 287.39,-284.74ZM516.31,-391.39C511.13,-389.50 507.59,-391.15 505.54,-396.76L489.51,-440.62C479.81,-467.19 455.90,-473.64 427.60,-463.30C399.52,-453.04 387.68,-434.51 389.65,-413.68L417.77,-415.14C416.79,-429.23 423.61,-437.35 434.20,-441.22C445.65,-445.40 456.11,-440.90 460.61,-428.59L462.11,-424.48L427.71,-403.34C409.69,-392.35 402.89,-378.11 408.73,-362.13C415.68,-343.12 433.00,-337.94 455.03,-345.99C468.64,-350.96 480.42,-361.63 483.70,-374.09C490.65,-365.12 502.40,-363.78 514.80,-368.07C520.63,-370.20 524.99,-373.01 527.81,-376.01L522.83,-395.00C521.12,-393.64 518.69,-392.26 516.31,-391.39ZM454.94,-369.71C447.38,-366.94 439.91,-368.62 437.30,-375.75C434.54,-383.31 438.56,-387.72 447.79,-393.29L468.82,-406.12L471.26,-399.42C477.02,-383.65 467.25,-374.20 454.94,-369.71ZM572.34,-516.18C555.71,-510.10 545.00,-497.86 543.83,-480.29L535.33,-500.21L508.75,-490.50L548.22,-382.48L577.82,-393.30L556.90,-450.54C549.01,-472.15 558.40,-484.64 570.71,-489.14C581.95,-493.24 592.37,-490.19 599.08,-471.83L621.89,-409.40L651.48,-420.21L625.59,-491.07C616.04,-517.21 594.81,-524.39 572.34,-516.18ZM-468.76,173.71C-456.44,169.22 -452.29,161.82 -456.16,151.24C-460.02,140.65 -468.05,137.46 -480.36,141.96C-492.67,146.46 -496.75,154.07 -492.88,164.65C-489.01,175.24 -481.07,178.21 -468.76,173.71ZM-448.38,183.90L-477.98,194.72L-438.52,302.73L-408.92,291.92ZM-377.59,280.47L-348.00,269.66L-368.91,212.41C-376.65,191.24 -367.41,178.32 -355.96,174.13C-344.95,170.11 -334.96,173.31 -329.20,189.08L-305.44,254.11L-275.84,243.30L-297.08,185.18C-303.94,166.39 -296.99,152.58 -283.81,147.77C-273.01,143.82 -263.02,147.03 -257.26,162.80L-233.50,227.83L-204.12,217.09L-229.79,146.15C-239.29,119.50 -261.66,113.23 -282.61,120.89C-297.30,126.25 -310.12,138.77 -311.52,155.69C-323.00,143.72 -339.00,141.49 -354.55,147.17C-369.89,152.77 -380.46,164.72 -382.30,181.80L-390.49,162.75L-417.06,172.46ZM-149.75,72.34C-166.82,78.58 -176.39,92.61 -177.31,108.86L-186.34,88.16L-212.91,97.87L-156.87,251.25L-127.27,240.44L-150.64,176.49C-140.09,186.60 -125.34,190.76 -109.36,184.92C-82.78,175.21 -70.57,146.99 -83.51,111.56C-96.38,76.35 -123.40,62.72 -149.75,72.34ZM-126.29,165.39C-141.62,171.00 -156.00,161.80 -163.58,141.06C-171.31,119.89 -165.66,103.87 -150.32,98.26C-134.55,92.50 -121.00,100.77 -113.03,122.59C-105.06,144.41 -110.52,159.63 -126.29,165.39ZM54.11,102.18C48.92,104.07 45.38,102.43 43.33,96.81L27.31,52.96C17.60,26.38 -6.31,19.93 -34.61,30.27C-62.69,40.54 -74.53,59.06 -72.55,79.89L-44.44,78.43C-45.42,64.35 -38.60,56.22 -28.01,52.35C-16.56,48.17 -6.10,52.67 -1.60,64.99L-0.10,69.09L-34.50,90.23C-52.52,101.22 -59.32,115.46 -53.47,131.44C-46.53,150.45 -29.21,155.64 -7.17,147.58C6.44,142.61 18.21,131.94 21.49,119.48C28.44,128.45 40.20,129.79 52.59,125.50C58.42,123.37 62.78,120.56 65.60,117.57L60.62,98.57C58.92,99.93 56.48,101.31 54.11,102.18ZM-7.27,123.87C-14.83,126.63 -22.30,124.95 -24.90,117.82C-27.67,110.26 -23.65,105.85 -14.42,100.28L6.61,87.45L9.05,94.15C14.82,109.92 5.05,119.37 -7.27,123.87ZM94.80,-17.00C62.18,-5.09 47.29,23.86 60.23,59.29C73.17,94.72 103.00,107.33 136.70,95.02C163.49,85.23 176.10,65.44 173.83,44.48L143.88,45.62C146.00,58.81 141.18,68.40 128.44,73.06C112.23,78.98 98.35,71.81 89.91,48.69C81.62,26.01 86.64,10.95 103.28,4.87C114.95,0.61 124.52,4.70 131.85,16.72L155.87,-3.32C144.21,-19.14 123.74,-27.58 94.80,-17.00ZM268.22,14.64C265.10,20.19 260.92,24.17 253.58,26.85C244.29,30.24 237.01,27.76 233.23,17.39L214.68,-33.38L249.24,-46.01L241.19,-68.04L206.63,-55.41L194.55,-88.47L167.95,-69.44L177.03,-44.60L157.15,-37.34L165.21,-15.30L185.08,-22.57L205.37,32.96C214.05,56.72 232.19,60.13 254.01,52.16C265.46,47.97 275.08,40.79 280.15,32.57ZM296.04,-129.71C262.99,-117.63 250.68,-95.02 253.92,-70.73L285.95,-70.19C282.21,-86.46 288.27,-98.71 303.17,-104.16C318.51,-109.76 328.38,-105.53 332.33,-94.73C337.22,-81.34 329.54,-70.20 303.64,-57.31L315.34,-24.61L342.34,-34.48L336.44,-55.34C358.04,-65.92 372.21,-84.08 362.66,-110.22C353.51,-135.28 326.28,-140.76 296.04,-129.71ZM334.30,-15.62C322.85,-11.44 318.30,-2.43 322.09,7.94C325.88,18.31 335.16,22.26 346.61,18.08C358.06,13.90 362.82,4.81 359.03,-5.56C355.24,-15.93 345.75,-19.80 334.30,-15.62Z" fill="#ffffff" stroke="#000000"/>
    <path d="M-925.09,204.33L-891.69,190.44L-904.02,106.87L-911.14,71.39L-910.72,71.22L-890.58,101.28L-839.81,168.87L-807.25,155.33L-824.57,-0.09L-854.18,12.23L-833.68,137.98L-909.43,35.20L-937.16,46.73L-917.28,172.75L-992.19,69.62L-1023.07,82.46ZM-747.59,130.52L-718.81,118.55L-741.87,63.09C-750.61,42.09 -741.95,29.13 -729.77,24.06C-718.84,19.52 -708.63,22.17 -701.11,40.23L-675.96,100.73L-647.18,88.76L-675.83,19.86C-686.40,-5.55 -707.69,-11.73 -729.54,-2.64C-744.45,3.56 -753.93,15.14 -755.06,31.38L-781.61,-32.48L-810.39,-20.52ZM-528.90,18.88C-533.94,20.98 -537.51,19.51 -539.78,14.05L-557.51,-28.60C-568.26,-54.43 -592.16,-59.77 -619.68,-48.33C-646.98,-36.97 -657.88,-18.15 -655.03,2.34L-627.30,-0.31C-628.89,-14.19 -622.49,-22.52 -612.20,-26.80C-601.07,-31.43 -590.54,-27.43 -585.56,-15.46L-583.90,-11.47L-616.97,10.91C-634.30,22.55 -640.40,36.92 -633.94,52.46C-626.25,70.95 -608.91,75.32 -587.49,66.41C-574.25,60.90 -563.08,49.85 -560.38,37.39C-553.12,45.96 -541.45,46.77 -529.39,42.00C-523.72,39.64 -519.53,36.67 -516.87,33.59L-522.61,15.04C-524.24,16.45 -526.59,17.92 -528.90,18.88ZM-588.61,42.97C-595.96,46.03 -603.41,44.70 -606.30,37.76C-609.35,30.41 -605.57,25.88 -596.69,19.97L-576.47,6.39L-573.76,12.90C-567.39,28.24 -576.63,37.99 -588.61,42.97ZM-439.58,-27.62C-442.42,-22.01 -446.38,-17.90 -453.52,-14.93C-462.55,-11.17 -469.85,-13.31 -474.04,-23.39L-494.57,-72.76L-460.96,-86.73L-469.87,-108.16L-503.48,-94.18L-516.84,-126.32L-542.30,-106.37L-532.26,-82.22L-551.58,-74.18L-542.67,-52.75L-523.35,-60.79L-500.90,-6.80C-491.29,16.30 -473.21,18.89 -452.00,10.07C-440.86,5.44 -431.67,-2.08 -427.01,-10.43ZM-342.38,-37.98L-313.60,-49.95L-336.75,-105.62C-345.31,-126.20 -336.74,-139.37 -325.61,-144.00C-314.89,-148.46 -304.89,-145.72 -298.51,-130.39L-272.22,-67.16L-243.44,-79.12L-266.94,-135.63C-274.54,-153.91 -268.26,-167.85 -255.45,-173.18C-244.94,-177.55 -234.94,-174.81 -228.56,-159.47L-202.27,-96.24L-173.70,-108.12L-202.14,-177.11C-212.67,-203.04 -235.05,-208.27 -255.43,-199.80C-269.71,-193.86 -281.83,-180.93 -282.49,-164.15C-294.35,-175.48 -310.25,-177.00 -325.38,-170.71C-340.29,-164.51 -350.22,-152.24 -351.30,-135.29L-360.22,-153.76L-386.05,-143.01ZM-55.21,-178.09C-60.25,-176.00 -63.82,-177.47 -66.09,-182.93L-83.82,-225.57C-94.57,-251.41 -118.47,-256.75 -145.99,-245.30C-173.29,-233.95 -184.19,-215.13 -181.34,-194.63L-153.61,-197.29C-155.20,-211.17 -148.80,-219.49 -138.51,-223.77C-127.38,-228.40 -116.85,-224.41 -111.87,-212.43L-110.21,-208.44L-143.28,-186.07C-160.61,-174.42 -166.71,-160.06 -160.25,-144.52C-152.56,-126.03 -135.22,-121.66 -113.80,-130.57C-100.56,-136.07 -89.39,-147.12 -86.69,-159.58C-79.43,-151.02 -67.76,-150.21 -55.70,-154.98C-50.03,-157.33 -45.84,-160.31 -43.18,-163.38L-48.92,-181.94C-50.55,-180.52 -52.90,-179.05 -55.21,-178.09ZM-114.92,-154.00C-122.27,-150.95 -129.72,-152.28 -132.61,-159.21C-135.66,-166.57 -131.88,-171.09 -123.00,-177.00L-102.78,-190.59L-100.07,-184.07C-93.70,-168.74 -102.94,-158.98 -114.92,-154.00ZM53.59,-202.64L86.15,-216.18L17.58,-262.57L39.95,-320.16L7.18,-306.53L-18.19,-239.56L-57.32,-333.67L-86.10,-321.70L-23.29,-170.67L5.48,-182.63L-5.35,-208.68L5.30,-237.01ZM176.23,-321.88C164.52,-350.03 137.60,-363.23 105.88,-350.04C74.58,-337.02 61.12,-307.77 75.44,-273.32C89.77,-238.87 119.58,-227.62 152.77,-241.42C174.20,-250.33 188.54,-267.38 188.36,-286.77L161.80,-286.07C161.09,-275.92 156.05,-267.91 143.65,-262.76C129.16,-256.73 116.47,-260.57 107.35,-276.00L181.50,-306.83C180.35,-310.79 178.58,-316.21 176.23,-321.88ZM114.49,-328.74C127.51,-334.15 138.82,-329.49 146.31,-315.60L99.26,-296.04C95.79,-312.09 101.26,-323.23 114.49,-328.74ZM267.68,-289.20C297.71,-301.69 308.19,-323.30 299.81,-343.46C293.96,-357.54 281.48,-364.42 258.94,-359.98L235.68,-355.48C224.51,-353.30 219.75,-355.26 217.92,-359.67C215.21,-366.18 220.15,-372.67 232.13,-377.65C243.05,-382.19 255.82,-381.10 266.14,-374.06L276.38,-398.03C262.02,-407.08 243.47,-407.25 222.46,-398.52C191.79,-385.77 182.98,-363.13 190.05,-346.11C196.78,-329.94 210.21,-323.70 236.68,-328.79L256.73,-332.69C266.76,-334.65 270.47,-332.25 272.31,-327.84C275.19,-320.90 269.36,-314.78 258.43,-310.24C243.10,-303.86 228.78,-306.29 217.87,-313.58L208.26,-289.87C224.95,-280.55 246.46,-280.38 267.68,-289.20ZM489.27,-404.51C484.23,-402.41 480.66,-403.88 478.39,-409.34L460.66,-451.99C449.91,-477.82 426.01,-483.16 398.49,-471.72C371.19,-460.36 360.29,-441.54 363.14,-421.05L390.87,-423.70C389.28,-437.58 395.68,-445.91 405.97,-450.19C417.10,-454.82 427.64,-450.82 432.61,-438.85L434.27,-434.86L401.20,-412.48C383.87,-400.84 377.77,-386.47 384.23,-370.93C391.92,-352.44 409.26,-348.07 430.68,-356.98C443.92,-362.49 455.09,-373.54 457.79,-386.00C465.05,-377.43 476.72,-376.62 488.78,-381.39C494.46,-383.75 498.64,-386.72 501.30,-389.80L495.56,-408.35C493.93,-406.94 491.58,-405.47 489.27,-404.51ZM429.56,-380.42C422.21,-377.36 414.76,-378.69 411.87,-385.63C408.82,-392.98 412.60,-397.51 421.48,-403.42L441.70,-417.00L444.41,-410.49C450.78,-395.15 441.54,-385.40 429.56,-380.42ZM539.24,-530.24C523.06,-523.52 513.01,-510.96 512.61,-493.55L503.35,-512.86L477.51,-502.11L521.19,-397.08L549.97,-409.05L526.82,-464.71C518.08,-485.72 526.82,-498.47 538.80,-503.45C549.72,-507.99 560.15,-505.43 567.57,-487.58L592.82,-426.87L621.60,-438.84L592.95,-507.74C582.38,-533.15 561.08,-539.33 539.24,-530.24ZM-459.69,196.57C-447.72,191.60 -443.93,184.11 -448.21,173.82C-452.49,163.52 -460.56,160.72 -472.53,165.70C-484.50,170.67 -488.20,178.37 -483.92,188.67C-479.64,198.96 -471.66,201.55 -459.69,196.57ZM-439.12,205.76L-467.89,217.73L-424.22,322.76L-395.44,310.79ZM-364.98,298.12L-336.20,286.16L-359.35,230.49C-367.91,209.91 -359.34,196.73 -348.21,192.10C-337.50,187.65 -327.49,190.39 -321.11,205.72L-294.82,268.95L-266.04,256.98L-289.54,200.48C-297.14,182.20 -290.86,168.26 -278.05,162.93C-267.55,158.56 -257.54,161.30 -251.16,176.63L-224.87,239.86L-196.30,227.98L-224.74,158.99C-235.28,133.07 -257.66,127.84 -278.03,136.31C-292.32,142.25 -304.44,155.18 -305.09,171.96C-316.95,160.63 -332.86,159.11 -347.98,165.40C-362.90,171.60 -372.83,183.86 -373.91,200.82L-382.82,182.35L-408.66,193.09ZM-148.84,82.59C-165.44,89.49 -174.29,103.77 -174.49,119.86L-184.31,99.80L-210.15,110.55L-148.13,259.69L-119.35,247.72L-145.21,185.55C-134.35,195.07 -119.60,198.55 -104.05,192.08C-78.21,181.34 -67.36,152.93 -81.69,118.48C-95.92,84.24 -123.22,71.93 -148.84,82.59ZM-121.63,173.52C-136.54,179.72 -151.15,171.26 -159.53,151.10C-168.09,130.51 -163.20,114.43 -148.28,108.23C-132.95,101.85 -119.20,109.44 -110.38,130.66C-101.56,151.87 -106.29,167.15 -121.63,173.52ZM53.90,103.24C48.86,105.34 45.29,103.87 43.02,98.41L25.28,55.76C14.54,29.93 -9.36,24.59 -36.88,36.03C-64.19,47.39 -75.09,66.21 -72.23,86.70L-44.51,84.05C-46.09,70.17 -39.70,61.84 -29.41,57.56C-18.27,52.93 -7.74,56.93 -2.76,68.90L-1.10,72.90L-34.18,95.27C-51.51,106.91 -57.61,121.28 -51.14,136.82C-43.46,155.31 -26.12,159.68 -4.69,150.77C8.54,145.26 19.71,134.21 22.42,121.75C29.67,130.32 41.35,131.13 53.41,126.36C59.08,124.00 63.26,121.03 65.93,117.95L60.18,99.40C58.55,100.82 56.21,102.28 53.90,103.24ZM-5.81,127.33C-13.17,130.39 -20.62,129.06 -23.50,122.12C-26.56,114.77 -22.78,110.24 -13.90,104.33L6.32,90.75L9.03,97.26C15.41,112.60 6.16,122.36 -5.81,127.33ZM88.95,-16.29C57.23,-3.10 43.77,26.15 58.09,60.60C72.42,95.05 102.44,106.22 135.21,92.59C161.26,81.76 172.86,61.66 169.70,41.04L140.16,43.47C142.83,56.41 138.48,66.10 126.09,71.25C110.33,77.80 96.30,71.32 86.96,48.84C77.79,26.79 82.10,11.69 98.28,4.96C109.62,0.24 119.26,3.87 127.02,15.43L149.89,-5.41C137.69,-20.54 117.09,-28.00 88.95,-16.29ZM261.69,7.47C258.85,13.09 254.89,17.20 247.75,20.17C238.72,23.93 231.42,21.79 227.23,11.70L206.70,-37.66L240.31,-51.64L231.40,-73.06L197.79,-59.09L184.43,-91.23L158.97,-71.28L169.01,-47.12L149.69,-39.08L158.60,-17.66L177.92,-25.69L200.37,28.29C209.98,51.40 228.06,53.98 249.27,45.16C260.41,40.53 269.60,33.01 274.26,24.67ZM282.93,-136.38C250.79,-123.01 239.61,-100.13 243.86,-76.28L275.54,-77.13C271.14,-93.04 276.59,-105.41 291.09,-111.43C306.00,-117.64 315.94,-113.88 320.31,-103.38C325.72,-90.36 318.61,-79.02 293.57,-65.16L306.55,-33.36L332.81,-44.28L326.07,-64.63C346.96,-76.03 360.18,-94.59 349.61,-120.00C339.48,-144.37 312.34,-148.61 282.93,-136.38ZM325.68,-25.29C314.54,-20.66 310.44,-11.57 314.63,-1.48C318.83,8.60 328.17,12.11 339.30,7.48C350.44,2.85 354.75,-6.34 350.55,-16.42C346.36,-26.50 336.81,-29.92 325.68,-25.29Z" fill="#ffffff" stroke="#000000"/>
    <path d="M-908.95,246.67L-876.55,231.51L-892.35,149.47L-900.91,114.72L-900.51,114.53L-879.31,143.36L-826.22,207.94L-794.63,193.15L-818.47,40.35L-847.20,53.80L-821.50,177.16L-900.80,78.89L-927.69,91.48L-902.60,215.13L-981.08,116.48L-1011.04,130.50ZM-736.76,166.06L-708.84,152.99L-734.03,99.19C-743.57,78.82 -735.58,65.63 -723.76,60.10C-713.16,55.14 -702.95,57.32 -694.75,74.84L-667.27,133.53L-639.36,120.46L-670.65,53.62C-682.19,28.96 -703.50,23.78 -724.69,33.71C-739.16,40.48 -748.02,52.33 -748.43,68.42L-777.44,6.48L-805.35,19.55ZM-525.51,46.29C-530.40,48.58 -533.99,47.28 -536.47,41.98L-555.84,0.61C-567.58,-24.45 -591.42,-28.69 -618.12,-16.19C-644.61,-3.79 -654.56,15.28 -650.85,35.41L-623.58,31.58C-625.74,17.94 -619.78,9.43 -609.80,4.76C-599.00,-0.30 -588.42,3.20 -582.98,14.81L-581.17,18.68L-612.88,42.23C-629.50,54.48 -634.91,68.94 -627.85,84.01C-619.45,101.95 -602.13,105.51 -581.35,95.78C-568.51,89.77 -557.95,78.37 -555.81,65.94C-548.27,74.09 -536.71,74.39 -525.00,69.15C-519.49,66.58 -515.49,63.46 -512.99,60.30L-519.47,42.22C-521.02,43.69 -523.27,45.24 -525.51,46.29ZM-583.47,72.68C-590.60,76.02 -598.02,75.02 -601.17,68.30C-604.51,61.16 -600.97,56.52 -592.45,50.30L-573.06,36.00L-570.10,42.32C-563.14,57.20 -571.85,67.24 -583.47,72.68ZM-439.27,-3.53C-441.84,2.15 -445.57,6.38 -452.50,9.62C-461.26,13.72 -468.56,11.92 -473.14,2.14L-495.56,-45.74L-462.96,-61.01L-472.69,-81.79L-505.29,-66.53L-519.89,-97.71L-544.18,-76.89L-533.21,-53.46L-551.96,-44.68L-542.22,-23.90L-523.48,-32.67L-498.96,19.70C-488.46,42.11 -470.49,43.88 -449.91,34.25C-439.11,29.19 -430.35,21.36 -426.11,12.92ZM-343.68,-17.97L-315.76,-31.04L-341.05,-85.04C-350.40,-105.01 -342.50,-118.40 -331.70,-123.45C-321.31,-128.32 -311.30,-126.05 -304.34,-111.17L-275.62,-49.84L-247.70,-62.91L-273.37,-117.72C-281.67,-135.45 -276.07,-149.50 -263.64,-155.32C-253.45,-160.09 -243.45,-157.82 -236.48,-142.94L-207.76,-81.60L-180.05,-94.58L-211.14,-161.51C-222.67,-186.67 -245.01,-190.87 -264.77,-181.62C-278.63,-175.13 -290.05,-161.84 -289.97,-145.23C-302.18,-155.91 -317.96,-156.72 -332.63,-149.85C-347.10,-143.07 -356.38,-130.53 -356.71,-113.73L-366.32,-131.59L-391.38,-119.86ZM-66.01,-168.84C-70.90,-166.55 -74.49,-167.85 -76.97,-173.15L-96.33,-214.52C-108.07,-239.58 -131.91,-243.82 -158.61,-231.32C-185.10,-218.92 -195.05,-199.85 -191.34,-179.72L-164.07,-183.55C-166.23,-197.19 -160.28,-205.70 -150.29,-210.37C-139.49,-215.43 -128.91,-211.93 -123.47,-200.32L-121.66,-196.45L-153.37,-172.91C-169.99,-160.65 -175.40,-146.20 -168.34,-131.12C-159.94,-113.19 -142.62,-109.62 -121.84,-119.35C-109.00,-125.36 -98.44,-136.76 -96.31,-149.19C-88.77,-141.04 -77.20,-140.75 -65.49,-145.98C-59.99,-148.56 -55.98,-151.67 -53.48,-154.83L-59.96,-172.91C-61.51,-171.44 -63.76,-169.89 -66.01,-168.84ZM-123.96,-142.45C-131.09,-139.12 -138.51,-140.11 -141.66,-146.84C-145.00,-153.97 -141.46,-158.61 -132.94,-164.83L-113.55,-179.13L-110.59,-172.81C-103.63,-157.93 -112.34,-147.89 -123.96,-142.45ZM40.43,-197.80L72.02,-212.59L2.26,-255.46L21.87,-313.33L-9.92,-298.45L-32.09,-231.18L-74.83,-322.47L-102.74,-309.40L-34.15,-162.89L-6.23,-175.96L-18.06,-201.23L-8.77,-229.67ZM156.44,-320.94C143.66,-348.24 116.48,-360.11 85.72,-345.71C55.35,-331.49 43.32,-302.01 58.97,-268.59C74.61,-235.17 104.55,-225.34 136.75,-240.41C157.54,-250.15 170.97,-267.62 169.95,-286.77L143.74,-284.93C143.48,-274.87 138.84,-266.73 126.82,-261.10C112.76,-254.52 100.06,-257.77 90.37,-272.61L162.30,-306.29C161.00,-310.15 159.02,-315.43 156.44,-320.94ZM95.15,-325.03C107.78,-330.95 119.15,-326.83 127.16,-313.44L81.51,-292.07C77.39,-307.77 82.31,-319.02 95.15,-325.03ZM248.21,-292.60C277.35,-306.24 286.77,-328.04 277.62,-347.61C271.22,-361.26 258.60,-367.52 236.52,-362.15L213.73,-356.70C202.79,-354.06 198.01,-355.80 196.00,-360.08C193.05,-366.39 197.64,-373.02 209.26,-378.46C219.86,-383.42 232.53,-382.89 243.03,-376.38L252.10,-400.50C237.52,-408.83 219.19,-408.20 198.81,-398.66C169.06,-384.73 161.33,-361.98 169.05,-345.47C176.40,-329.78 189.94,-324.20 215.87,-330.37L235.52,-335.10C245.35,-337.47 249.11,-335.26 251.12,-330.98C254.26,-324.25 248.77,-317.95 238.17,-312.99C223.30,-306.03 209.05,-307.80 197.95,-314.53L189.48,-290.69C206.38,-282.20 227.63,-282.96 248.21,-292.60ZM462.17,-416.12C457.28,-413.83 453.69,-415.14 451.21,-420.43L431.85,-461.80C420.11,-486.86 396.27,-491.10 369.57,-478.60C343.08,-466.20 333.13,-447.13 336.84,-427.01L364.11,-430.83C361.95,-444.48 367.90,-452.98 377.89,-457.65C388.69,-462.71 399.27,-459.22 404.71,-447.60L406.52,-443.73L374.81,-420.19C358.19,-407.93 352.78,-393.48 359.84,-378.40C368.24,-360.47 385.56,-356.90 406.34,-366.63C419.18,-372.64 429.74,-384.05 431.87,-396.47C439.41,-388.33 450.98,-388.03 462.69,-393.26C468.19,-395.84 472.20,-398.96 474.70,-402.11L468.22,-420.20C466.67,-418.73 464.42,-417.17 462.17,-416.12ZM404.22,-389.74C397.09,-386.40 389.67,-387.39 386.52,-394.12C383.18,-401.25 386.72,-405.89 395.23,-412.11L414.63,-426.41L417.59,-420.09C424.55,-405.22 415.84,-395.17 404.22,-389.74ZM506.10,-542.52C490.41,-535.18 481.02,-522.33 481.38,-505.11L471.39,-523.79L446.33,-512.06L494.03,-410.17L521.95,-423.24L496.66,-477.24C487.12,-497.62 495.21,-510.59 506.82,-516.03C517.42,-520.99 527.84,-518.91 535.94,-501.59L563.52,-442.70L591.43,-455.77L560.14,-522.61C548.60,-547.27 527.29,-552.45 506.10,-542.52ZM-449.44,218.86C-437.82,213.43 -434.41,205.86 -439.08,195.88C-443.76,185.89 -451.85,183.47 -463.46,188.91C-475.08,194.35 -478.40,202.11 -473.72,212.10C-469.05,222.08 -461.05,224.30 -449.44,218.86ZM-428.71,227.05L-456.63,240.12L-408.93,342.01L-381.01,328.93ZM-351.46,315.10L-323.55,302.03L-348.83,248.03C-358.18,228.06 -350.28,214.68 -339.48,209.62C-329.09,204.76 -319.08,207.03 -312.12,221.90L-283.40,283.24L-255.49,270.17L-281.15,215.35C-289.45,197.62 -283.85,183.58 -271.42,177.76C-261.24,172.99 -251.23,175.26 -244.26,190.13L-215.55,251.47L-187.83,238.49L-218.92,171.56C-230.45,146.40 -252.79,142.20 -272.56,151.46C-286.41,157.94 -297.83,171.24 -297.75,187.85C-309.96,177.17 -325.74,176.36 -340.41,183.22C-354.88,190.00 -364.16,202.54 -364.50,219.34L-374.10,201.48L-399.17,213.22ZM-147.24,92.78C-163.34,100.32 -171.46,114.81 -170.96,130.72L-181.54,111.33L-206.60,123.06L-138.86,267.74L-110.95,254.67L-139.19,194.35C-128.04,203.30 -113.32,206.09 -98.24,199.03C-73.18,187.30 -63.68,158.75 -79.33,125.34C-94.88,92.12 -122.38,81.14 -147.24,92.78ZM-116.41,181.45C-130.88,188.22 -145.67,180.50 -154.83,160.93C-164.18,140.96 -160.04,124.86 -145.57,118.09C-130.70,111.13 -116.79,118.03 -107.15,138.61C-97.51,159.19 -101.53,174.49 -116.41,181.45ZM53.98,104.41C49.09,106.70 45.50,105.40 43.02,100.10L23.65,58.74C11.92,33.67 -11.93,29.44 -38.63,41.93C-65.12,54.34 -75.07,73.41 -71.36,93.53L-44.09,89.71C-46.25,76.06 -40.29,67.56 -30.31,62.88C-19.51,57.83 -8.93,61.32 -3.49,72.94L-1.68,76.81L-33.39,100.35C-50.01,112.60 -55.42,127.06 -48.36,142.14C-39.96,160.07 -22.64,163.64 -1.85,153.91C10.98,147.90 21.54,136.49 23.68,124.07C31.22,132.21 42.78,132.51 54.49,127.28C60.00,124.70 64.00,121.58 66.50,118.43L60.02,100.34C58.47,101.81 56.22,103.36 53.98,104.41ZM-3.98,130.80C-11.11,134.14 -18.53,133.14 -21.68,126.42C-25.02,119.29 -21.48,114.65 -12.96,108.43L6.43,94.13L9.39,100.45C16.35,115.32 7.64,125.36 -3.98,130.80ZM83.43,-15.21C52.66,-0.81 40.63,28.68 56.28,62.10C71.92,95.52 102.07,105.25 133.86,90.37C159.13,78.54 169.72,58.18 165.71,37.94L136.62,41.62C139.82,54.29 135.95,64.05 123.92,69.68C108.64,76.83 94.50,71.03 84.29,49.23C74.27,27.83 77.88,12.73 93.57,5.38C104.58,0.23 114.26,3.40 122.43,14.48L144.12,-7.10C131.41,-21.52 110.74,-28.00 83.43,-15.21ZM255.14,0.79C252.58,6.46 248.85,10.69 241.92,13.94C233.16,18.04 225.86,16.24 221.28,6.46L198.86,-41.43L231.46,-56.69L221.73,-77.48L189.13,-62.21L174.53,-93.39L150.24,-72.57L161.21,-49.14L142.46,-40.36L152.19,-19.58L170.94,-28.36L195.46,24.01C205.95,46.43 223.93,48.20 244.51,38.57C255.31,33.51 264.06,25.68 268.31,17.24ZM269.90,-142.26C238.73,-127.67 228.67,-104.57 233.91,-81.19L265.17,-83.40C260.13,-98.93 264.98,-111.39 279.04,-117.97C293.51,-124.74 303.49,-121.47 308.26,-111.28C314.18,-98.65 307.64,-87.14 283.50,-72.36L297.70,-41.49L323.18,-53.42L315.63,-73.24C335.78,-85.41 348.04,-104.31 336.50,-128.97C325.43,-152.61 298.43,-155.62 269.90,-142.26ZM316.95,-34.35C306.15,-29.30 302.49,-20.13 307.07,-10.35C311.65,-0.57 321.03,2.49 331.83,-2.57C342.63,-7.62 346.49,-16.88 341.91,-26.67C337.33,-36.45 327.75,-39.41 316.95,-34.35Z" fill="#ffffff" stroke="#000000"/>
    <path d="M-904.98,492L-898.94,492L-895.48,478.32L-894.30,472.39L-894.23,472.39L-893.05,478.32L-889.55,492L-883.66,492L-876.37,466.92L-881.73,466.92L-886.63,487.63L-891.72,466.92L-896.74,466.92L-901.75,487.63L-906.69,466.92L-912.28,466.92ZM-864.21,472.62C-869.95,472.62 -873.94,476.31 -873.94,482.50C-873.94,488.69 -869.95,492.38 -864.21,492.38C-858.47,492.38 -854.48,488.69 -854.48,482.50C-854.48,476.31 -858.47,472.62 -864.21,472.62ZM-864.21,476.50C-861.40,476.50 -859.72,478.47 -859.72,482.50C-859.72,486.53 -861.40,488.50 -864.21,488.50C-867.06,488.50 -868.73,486.53 -868.73,482.50C-868.73,478.47 -867.06,476.50 -864.21,476.50ZM-850.11,492L-844.90,492L-844.90,482.16C-844.90,478.74 -842.59,477.10 -840.27,477.10C-839.09,477.10 -838.44,477.22 -837.91,477.41L-837.30,473.04C-837.76,472.77 -838.52,472.62 -839.36,472.62C-842.32,472.62 -844.26,474.10 -845.25,476.72L-845.59,473L-850.11,473ZM-820.17,492L-814.28,492L-821.88,480.45L-814.73,473L-820.66,473L-828.87,481.70L-828.87,464.68L-834.07,464.68L-834.07,492L-828.87,492L-828.87,487.29L-825.41,483.60ZM-801.51,466.54C-807.93,466.54 -811.77,470.00 -811.77,474.44C-811.77,478.21 -809.22,480.26 -804.78,481.25L-799.68,482.39C-797.29,482.92 -796.57,483.91 -796.57,485.16C-796.57,487.10 -798.32,488.16 -801.39,488.16C-805.12,488.16 -808.27,486.41 -809.98,483.94L-812.95,487.48C-810.67,490.37 -806.60,492.38 -801.39,492.38C-795.35,492.38 -791.17,489.49 -791.17,484.51C-791.17,481.02 -793.19,478.85 -798.13,477.75L-802.80,476.69C-805.42,476.08 -806.33,475.17 -806.33,473.80C-806.33,472.13 -804.97,470.76 -801.70,470.76C-798.47,470.76 -796.11,471.94 -794.02,474.60L-791.10,471.21C-793.53,468.14 -796.95,466.54 -801.51,466.54ZM-769.36,488.81C-770.27,488.81 -770.73,488.35 -770.73,487.36L-770.73,479.65C-770.73,474.98 -774.07,472.62 -779.05,472.62C-783.99,472.62 -786.88,474.82 -787.75,478.17L-783.31,479.54C-782.66,477.29 -781.14,476.42 -779.28,476.42C-777.26,476.42 -775.90,477.71 -775.90,479.88L-775.90,480.60L-782.43,481.93C-785.85,482.61 -787.71,484.44 -787.71,487.25C-787.71,490.59 -785.32,492.38 -781.44,492.38C-779.05,492.38 -776.62,491.39 -775.40,489.64C-774.83,491.43 -773.08,492.30 -770.92,492.34C-769.89,492.34 -769.06,492.15 -768.45,491.85L-768.14,488.62C-768.49,488.73 -768.94,488.81 -769.36,488.81ZM-780.11,488.69C-781.44,488.69 -782.51,488.01 -782.51,486.76C-782.51,485.43 -781.63,484.97 -779.89,484.63L-775.90,483.83L-775.90,485.01C-775.90,487.78 -777.95,488.69 -780.11,488.69ZM-753.59,472.62C-756.52,472.62 -758.87,473.91 -760.05,476.57L-760.24,473L-764.91,473L-764.91,492L-759.71,492L-759.71,481.93C-759.71,478.13 -757.54,476.72 -755.38,476.72C-753.40,476.72 -751.96,477.79 -751.96,481.02L-751.96,492L-746.75,492L-746.75,479.54C-746.75,474.94 -749.64,472.62 -753.59,472.62ZM-733.79,492.38C-728.36,492.38 -725.36,489.72 -725.36,486.07C-725.36,483.53 -726.84,481.66 -730.60,480.90L-734.48,480.11C-736.34,479.73 -736.95,479.12 -736.95,478.32C-736.95,477.14 -735.77,476.46 -733.60,476.46C-731.63,476.46 -729.73,477.45 -728.59,479.19L-725.47,476.15C-727.10,473.84 -729.95,472.62 -733.75,472.62C-739.30,472.62 -742.11,475.55 -742.11,478.62C-742.11,481.55 -740.44,483.37 -736.03,484.29L-732.69,484.97C-731.02,485.31 -730.60,485.92 -730.60,486.72C-730.60,487.97 -731.89,488.54 -733.87,488.54C-736.64,488.54 -738.69,487.25 -739.91,485.43L-742.91,488.47C-740.94,490.97 -737.63,492.38 -733.79,492.38ZM-707.34,479.69L-720.76,479.69L-720.76,484.17L-707.34,484.17ZM-691.73,466.54C-698.15,466.54 -701.99,470.00 -701.99,474.44C-701.99,478.21 -699.44,480.26 -694.99,481.25L-689.90,482.39C-687.51,482.92 -686.79,483.91 -686.79,485.16C-686.79,487.10 -688.53,488.16 -691.61,488.16C-695.34,488.16 -698.49,486.41 -700.20,483.94L-703.16,487.48C-700.88,490.37 -696.82,492.38 -691.61,492.38C-685.57,492.38 -681.39,489.49 -681.39,484.51C-681.39,481.02 -683.40,478.85 -688.34,477.75L-693.02,476.69C-695.64,476.08 -696.55,475.17 -696.55,473.80C-696.55,472.13 -695.18,470.76 -691.92,470.76C-688.69,470.76 -686.33,471.94 -684.24,474.60L-681.31,471.21C-683.75,468.14 -687.17,466.54 -691.73,466.54ZM-659.35,481.47C-659.35,476.38 -662.66,472.62 -668.39,472.62C-674.06,472.62 -678.01,476.27 -678.01,482.50C-678.01,488.73 -674.13,492.38 -668.13,492.38C-664.25,492.38 -660.95,490.67 -659.73,487.67L-663.87,486.07C-664.63,487.59 -665.92,488.50 -668.17,488.50C-670.79,488.50 -672.50,487.10 -672.92,484.13L-659.50,484.13C-659.43,483.45 -659.35,482.50 -659.35,481.47ZM-668.43,476.46C-666.08,476.46 -664.63,477.90 -664.37,480.52L-672.88,480.52C-672.38,477.83 -670.83,476.46 -668.43,476.46ZM-654.94,492L-649.74,492L-649.74,481.93C-649.74,478.21 -647.57,476.72 -645.56,476.72C-643.62,476.72 -642.25,477.79 -642.25,480.56L-642.25,492L-637.04,492L-637.04,481.78C-637.04,478.47 -635.18,476.72 -632.86,476.72C-630.96,476.72 -629.60,477.79 -629.60,480.56L-629.60,492L-624.43,492L-624.39,479.54C-624.35,474.86 -627.47,472.62 -631.15,472.62C-633.74,472.62 -636.44,473.84 -637.61,476.38C-638.72,473.87 -641.07,472.62 -643.81,472.62C-646.51,472.62 -648.82,473.87 -650.08,476.42L-650.27,473L-654.94,473ZM-616.41,470.26C-614.24,470.26 -613.18,469.35 -613.18,467.49C-613.18,465.63 -614.24,464.68 -616.41,464.68C-618.58,464.68 -619.64,465.63 -619.64,467.49C-619.64,469.35 -618.58,470.26 -616.41,470.26ZM-613.83,473L-619.03,473L-619.03,492L-613.83,492ZM-607.78,492L-596.42,492C-590.46,492 -587.26,489.45 -587.26,485.12C-587.26,482.20 -589.20,479.84 -592.70,479.35L-592.70,479.31C-589.54,478.78 -587.91,476.46 -587.91,473.76C-587.91,469.43 -590.72,466.92 -596.80,466.92L-607.78,466.92ZM-602.69,477.45L-602.69,470.99L-597.49,470.99C-594.71,470.99 -593.34,472.05 -593.34,474.22C-593.34,476.38 -594.71,477.45 -597.49,477.45ZM-602.69,488.05L-602.69,481.47L-596.88,481.47C-594.07,481.47 -592.70,482.65 -592.70,484.74C-592.70,486.83 -594.07,488.05 -596.88,488.05ZM-574.12,472.62C-579.85,472.62 -583.84,476.31 -583.84,482.50C-583.84,488.69 -579.85,492.38 -574.12,492.38C-568.38,492.38 -564.39,488.69 -564.39,482.50C-564.39,476.31 -568.38,472.62 -574.12,472.62ZM-574.12,476.50C-571.30,476.50 -569.63,478.47 -569.63,482.50C-569.63,486.53 -571.30,488.50 -574.12,488.50C-576.97,488.50 -578.64,486.53 -578.64,482.50C-578.64,478.47 -576.97,476.50 -574.12,476.50ZM-554.89,464.68L-560.09,464.68L-560.09,486.72C-560.09,490.67 -558.46,492.38 -554.77,492.38C-553.52,492.38 -552.08,492.08 -551.24,491.58L-550.78,488.16C-551.62,488.47 -552.04,488.54 -552.91,488.54C-554.32,488.54 -554.89,487.90 -554.89,486.15ZM-534.75,464.68L-534.75,476.19C-535.77,474.03 -537.79,472.62 -540.52,472.62C-545.24,472.62 -548.85,476.23 -548.85,482.54C-548.85,488.73 -545.43,492.38 -540.71,492.38C-537.86,492.38 -535.51,490.86 -534.44,488.31L-534.22,492L-529.54,492L-529.54,464.68ZM-539.19,488.39C-542.01,488.39 -543.64,486.34 -543.64,482.50C-543.64,478.66 -541.93,476.61 -539.12,476.61C-536.46,476.61 -534.75,478.74 -534.75,482.35C-534.75,486.19 -536.50,488.39 -539.19,488.39Z"/>
</svg>