<?xml version="1.0"?>
<svg xmlns="http://www.w3.org/2000/svg" width="1920" height="1080" viewBox="-960 -540 1920 1080">
    <path d="M-456.88,-210L-456.88,-245L-484.63,-245L-484.63,-262.50L-447.63,-262.50C-402.13,-262.50 -378.63,-282.50 -378.63,-327.50C-378.63,-378.25 -403.13,-392.50 -447.38,-392.50L-528.63,-392.50L-528.63,-348.75L-502.38,-348.75L-502.38,-245L-528.63,-245L-528.63,-210ZM-437.63,-296.75L-484.63,-296.75L-484.63,-348.75L-437.63,-348.75C-408.88,-348.75 -394.13,-339.75 -393.88,-322.75C-393.63,-307.25 -407.38,-296.75 -437.63,-296.75ZM-356.13,-245.50L-356.13,-209.50C-349.13,-209.75 -307.88,-209.75 -293.88,-209.50L-293.88,-245.50L-316.38,-245.50L-316.38,-281.25C-316.38,-298.75 -307.38,-308.50 -295.13,-308.50C-283.88,-308.50 -277.88,-305.75 -274.88,-299.25L-265.38,-340.75C-271.88,-346.25 -277.63,-350 -289.63,-350C-299.88,-350 -312.38,-343 -318.13,-328L-326.63,-347.50L-356.13,-347.50L-356.13,-306.50C-350.13,-306.50 -343.13,-306.75 -332.88,-306.50L-332.88,-245.50ZM-130.63,-210C-120.63,-210 -113.63,-213.50 -109.13,-219.25L-109.13,-250.25C-114.88,-243 -121.13,-240.75 -128.88,-240.75C-134.88,-240.75 -140.13,-243.75 -142.13,-249.50L-142.13,-289C-142.13,-335.25 -157.38,-350 -191.38,-350C-210.13,-350 -225.88,-344.25 -235.38,-333L-234.38,-300.75C-227.63,-308.75 -215.13,-315.50 -193.88,-315.50C-170.38,-315.50 -159.38,-305.75 -158.13,-282.25C-168.63,-289.50 -186.13,-291.75 -197.88,-291.75C-227.63,-291.75 -247.88,-275 -247.88,-248.75C-247.88,-224.50 -230.88,-207.50 -195.38,-207.50C-179.13,-207.50 -163.38,-214.25 -154.88,-223.50C-149.88,-214.75 -141.38,-210 -130.63,-210ZM-195.13,-238.75C-218.38,-238.75 -228.38,-245 -228.38,-256C-228.38,-267.50 -217.88,-274 -193.38,-274C-179.38,-274 -168.13,-270.25 -157.88,-262.50L-157.88,-249.75C-165.88,-242.25 -179.63,-238.75 -195.13,-238.75ZM12.63,-238L-0.38,-255.75C-7.13,-242.50 -19.13,-237 -39.88,-237C-68.63,-237 -80.38,-255.25 -80.13,-276.50C-79.88,-298 -64.13,-310.50 -39.88,-310.50C-19.13,-310.50 -9.88,-304 -4.38,-295L10.13,-295L10.13,-349.75L-4.38,-349.75L-4.38,-330.25C-11.13,-343.50 -23.38,-350 -41.13,-350C-71.13,-350 -94.88,-329.75 -94.88,-277.75C-94.88,-229.75 -72.88,-207.50 -41.13,-207.50C-14.13,-207.50 4.13,-218.50 12.63,-238ZM119.13,-223.50L112.38,-248.75C108.38,-244.25 99.88,-240.75 89.38,-241C77.13,-241.25 68.63,-247.50 68.63,-265.50L68.63,-306L106.13,-306L106.13,-345L68.63,-345L68.63,-377.50L52.38,-377.50L52.38,-345L32.63,-345L32.63,-306L52.38,-306L52.38,-248.25C52.38,-218 66.63,-207.50 86.13,-207.50C100.38,-207.50 114.63,-213.50 119.13,-223.50ZM189.13,-387.25C189.13,-401.75 181.13,-407.50 167.63,-407.50C152.63,-407.50 145.13,-401.50 145.13,-387.25C145.13,-373 153.13,-366.25 167.63,-366.25C180.63,-366.25 189.13,-373 189.13,-387.25ZM140.38,-245.75L140.38,-209.75C151.13,-210 161.38,-210 171.63,-210L180.38,-210C191.13,-210 201.88,-209.75 213.13,-209.75L213.13,-245.75L187.88,-245.75L187.88,-342.50L140.38,-342.50L140.38,-301.50L171.63,-301.50L171.63,-245.75ZM340.63,-238L327.63,-255.75C320.88,-242.50 308.88,-237 288.13,-237C259.38,-237 247.63,-255.25 247.88,-276.50C248.13,-298 263.88,-310.50 288.13,-310.50C308.88,-310.50 318.13,-304 323.63,-295L338.13,-295L338.13,-349.75L323.63,-349.75L323.63,-330.25C316.88,-343.50 304.63,-350 286.88,-350C256.88,-350 233.13,-329.75 233.13,-277.75C233.13,-229.75 255.13,-207.50 286.88,-207.50C313.88,-207.50 332.13,-218.50 340.63,-238ZM470.88,-241.50L459.13,-252.75C451.88,-242.75 441.38,-237.50 419.38,-237.75C396.38,-238 381.63,-246 378.38,-268L474.88,-268C474.88,-329.75 453.38,-350 419.38,-350C389.38,-350 363.13,-330 363.13,-276.75C363.13,-236.25 382.38,-207.50 419.88,-207.50C444.13,-207.50 462.63,-222.50 470.88,-241.50ZM418.13,-312C443.63,-312 459.38,-299.50 459.38,-284.25L378.38,-284.25C381.88,-303.25 399.38,-312 418.13,-312Z" fill="#ffffff" stroke="#000000"/>
    <path d="M-445.59,-231.17L-443.58,-265.76L-471.00,-267.35L-470.00,-284.65L-433.43,-282.52C-388.46,-279.91 -364.09,-298.33 -361.50,-342.80C-358.59,-392.96 -381.98,-408.45 -425.72,-410.99L-506.02,-415.66L-508.53,-372.42L-482.59,-370.91L-488.55,-268.37L-514.49,-269.88L-516.50,-235.29ZM-421.58,-315.80L-468.03,-318.50L-465.05,-369.89L-418.59,-367.19C-390.18,-365.54 -376.12,-355.80 -376.85,-338.98C-377.49,-323.65 -391.68,-314.06 -421.58,-315.80ZM-343.97,-260.47L-346.04,-224.89C-339.11,-224.73 -298.34,-222.36 -284.52,-221.31L-282.45,-256.89L-304.69,-258.18L-302.63,-293.52C-301.63,-310.81 -292.17,-319.93 -280.07,-319.23C-268.95,-318.58 -263.18,-315.52 -260.58,-308.92L-248.81,-349.39C-254.92,-355.20 -260.39,-359.24 -272.25,-359.93C-282.38,-360.52 -295.13,-354.32 -301.68,-339.82L-308.96,-359.58L-338.12,-361.28L-340.47,-320.76C-334.54,-320.41 -327.61,-320.26 -317.49,-319.42L-321.00,-259.13ZM-123.14,-212.43C-113.26,-211.86 -106.14,-214.91 -101.36,-220.34L-99.58,-250.98C-105.68,-244.14 -111.99,-242.28 -119.65,-242.72C-125.58,-243.07 -130.59,-246.33 -132.24,-252.13L-129.97,-291.17C-127.32,-336.88 -141.54,-352.33 -175.14,-354.29C-193.68,-355.36 -209.57,-350.58 -219.61,-340.01L-220.47,-308.08C-213.34,-315.60 -200.60,-321.55 -179.60,-320.33C-156.37,-318.98 -146.06,-308.71 -146.17,-285.42C-156.13,-293.19 -173.30,-296.41 -184.91,-297.09C-214.32,-298.80 -235.29,-283.41 -236.80,-257.46C-238.19,-233.50 -222.37,-215.72 -187.28,-213.68C-171.22,-212.75 -155.27,-218.51 -146.34,-227.17C-141.90,-218.23 -133.77,-213.05 -123.14,-212.43ZM-185.24,-244.55C-208.22,-245.88 -217.74,-252.64 -217.11,-263.51C-216.45,-274.87 -205.70,-280.69 -181.49,-279.29C-167.65,-278.48 -156.75,-274.13 -147.06,-265.88L-147.79,-253.28C-156.13,-246.33 -169.92,-243.66 -185.24,-244.55ZM20.04,-231.88L8.21,-250.17C0.78,-237.46 -11.39,-232.71 -31.90,-233.90C-60.32,-235.56 -70.88,-254.27 -69.41,-275.26C-67.93,-296.49 -51.65,-307.94 -27.68,-306.55C-7.17,-305.36 1.60,-298.40 6.52,-289.19L20.85,-288.36L23.99,-342.47L9.66,-343.30L8.54,-324.03C2.63,-337.51 -9.10,-344.64 -26.65,-345.66C-56.30,-347.38 -80.93,-328.73 -83.92,-277.34C-86.68,-229.90 -66.21,-206.64 -34.83,-204.82C-8.15,-203.27 10.52,-213.09 20.04,-231.88ZM124.47,-211.43L119.25,-236.77C115.04,-232.56 106.43,-229.59 96.07,-230.44C83.98,-231.39 75.94,-238.05 76.97,-255.84L79.30,-295.87L116.36,-293.71L118.60,-332.26L81.53,-334.41L83.40,-366.53L67.34,-367.47L65.47,-335.35L45.95,-336.48L43.72,-297.94L63.23,-296.80L59.92,-239.73C58.18,-209.83 71.66,-198.63 90.93,-197.51C105.02,-196.69 119.45,-201.81 124.47,-211.43ZM203.06,-369.25C203.89,-383.58 196.31,-389.72 182.97,-390.50C168.14,-391.36 160.39,-385.86 159.57,-371.78C158.75,-357.69 166.27,-350.56 180.60,-349.73C193.45,-348.98 202.24,-355.17 203.06,-369.25ZM146.75,-232.20L144.68,-196.62C155.32,-196.25 165.45,-195.66 175.58,-195.07L184.23,-194.57C194.85,-193.95 205.46,-193.09 216.58,-192.44L218.65,-228.02L193.69,-229.47L199.25,-325.09L152.30,-327.82L149.95,-287.30L180.83,-285.51L177.63,-230.41ZM344.22,-213.04L332.39,-231.33C324.96,-218.62 312.78,-213.88 292.27,-215.07C263.86,-216.72 253.29,-235.43 254.76,-256.42C256.24,-277.65 272.53,-289.10 296.49,-287.71C317.00,-286.52 325.77,-279.56 330.69,-270.35L345.02,-269.52L348.16,-323.63L333.83,-324.46L332.71,-305.19C326.80,-318.67 315.07,-325.80 297.53,-326.82C267.88,-328.54 243.24,-309.89 240.25,-258.50C237.50,-211.06 257.96,-187.81 289.34,-185.98C316.03,-184.43 334.70,-194.26 344.22,-213.04ZM473.15,-209.02L462.18,-220.81C454.44,-211.35 443.76,-206.76 422.03,-208.27C399.32,-209.84 385.20,-218.59 383.25,-240.52L478.62,-234.98C482.17,-296.01 462.08,-317.26 428.48,-319.21C398.83,-320.94 371.74,-302.68 368.68,-250.05C366.35,-210.02 383.73,-180.50 420.79,-178.35C444.76,-176.95 463.90,-190.72 473.15,-209.02ZM425.06,-281.73C450.26,-280.26 465.11,-267.00 464.24,-251.93L384.18,-256.58C388.73,-275.16 406.53,-282.80 425.06,-281.73Z" fill="#ffffff" stroke="#000000"/>
    <path d="M-433.25,-251.79L-429.28,-285.86L-456.29,-289.01L-454.30,-306.05L-418.29,-301.85C-374.00,-296.68 -348.85,-313.48 -343.74,-357.29C-337.98,-406.69 -360.22,-423.34 -403.29,-428.36L-482.38,-437.58L-487.34,-395.00L-461.79,-392.02L-473.57,-291.03L-499.12,-294.01L-503.09,-259.94ZM-404.67,-334.05L-450.42,-339.39L-444.51,-390.00L-398.76,-384.67C-370.78,-381.41 -357.44,-370.97 -359.13,-354.39C-360.64,-339.28 -375.22,-330.62 -404.67,-334.05ZM-331.15,-274.91L-335.24,-239.87C-328.39,-239.32 -288.24,-234.64 -274.64,-232.81L-270.56,-267.85L-292.46,-270.40L-288.40,-305.20C-286.41,-322.24 -276.55,-330.71 -264.62,-329.31C-253.67,-328.04 -248.14,-324.68 -245.96,-318.01L-232.00,-357.33C-237.71,-363.42 -242.88,-367.72 -254.56,-369.09C-264.54,-370.25 -277.50,-364.86 -284.80,-350.91L-290.86,-370.85L-319.57,-374.20L-324.23,-334.29C-318.39,-333.61 -311.54,-333.06 -301.59,-331.65L-308.52,-272.28ZM-115.68,-214.76C-105.94,-213.63 -98.73,-216.24 -93.70,-221.33L-90.18,-251.50C-96.60,-245.10 -102.94,-243.62 -110.48,-244.50C-116.32,-245.18 -121.09,-248.69 -122.39,-254.52L-117.90,-292.97C-112.65,-337.99 -125.82,-354.08 -158.92,-357.94C-177.17,-360.06 -193.16,-356.25 -203.68,-346.38L-206.37,-314.88C-198.89,-321.90 -185.95,-327.05 -165.27,-324.64C-142.40,-321.97 -132.79,-311.23 -134.24,-288.21C-143.64,-296.46 -160.42,-300.64 -171.86,-301.97C-200.82,-305.35 -222.43,-291.34 -225.41,-265.79C-228.16,-242.19 -213.54,-223.71 -178.99,-219.68C-163.17,-217.83 -147.07,-222.62 -137.75,-230.66C-133.88,-221.57 -126.14,-215.98 -115.68,-214.76ZM-175.20,-250.07C-197.83,-252.71 -206.85,-259.93 -205.61,-270.63C-204.30,-281.83 -193.34,-286.96 -169.49,-284.18C-155.87,-282.59 -145.34,-277.67 -136.24,-268.96L-137.69,-256.55C-146.33,-250.16 -160.11,-248.31 -175.20,-250.07ZM26.94,-225.76L16.30,-244.51C8.23,-232.38 -4.08,-228.39 -24.28,-230.74C-52.26,-234.01 -61.63,-253.11 -58.97,-273.76C-56.29,-294.66 -39.54,-305.04 -15.93,-302.29C4.26,-299.93 12.53,-292.56 16.86,-283.17L30.98,-281.53L37.19,-334.82L23.08,-336.47L20.86,-317.49C15.80,-331.15 4.61,-338.87 -12.67,-340.88C-41.87,-344.29 -67.29,-327.27 -73.19,-276.65C-78.64,-229.93 -59.75,-205.77 -28.84,-202.17C-2.56,-199.11 16.45,-207.74 26.94,-225.76ZM128.96,-199.56L125.26,-224.90C120.85,-220.97 112.18,-218.53 101.99,-219.97C90.09,-221.60 82.53,-228.65 84.57,-246.17L89.17,-285.59L125.67,-281.34L130.10,-319.30L93.60,-323.56L97.29,-355.19L81.47,-357.04L77.78,-325.40L58.55,-327.64L54.13,-289.68L73.35,-287.44L66.80,-231.22C63.36,-201.78 76.04,-189.94 95.02,-187.73C108.90,-186.11 123.45,-190.33 128.96,-199.56ZM215.69,-351.01C217.33,-365.12 210.20,-371.63 197.06,-373.16C182.46,-374.86 174.48,-369.87 172.86,-356.00C171.24,-342.13 178.26,-334.65 192.38,-333.00C205.03,-331.53 214.07,-337.14 215.69,-351.01ZM152.17,-218.80L148.09,-183.76C158.58,-182.78 168.56,-181.62 178.53,-180.46L187.05,-179.46C197.52,-178.24 207.95,-176.78 218.90,-175.50L222.99,-210.55L198.41,-213.41L209.39,-307.59L163.16,-312.98L158.50,-273.07L188.92,-269.52L182.59,-215.26ZM346.22,-188.53L335.58,-207.28C327.50,-195.15 315.20,-191.16 295.00,-193.52C267.02,-196.78 257.65,-215.88 260.30,-236.53C262.99,-257.43 279.74,-267.81 303.34,-265.06C323.54,-262.71 331.81,-255.33 336.14,-245.94L350.25,-244.30L356.47,-297.59L342.35,-299.24L340.14,-280.26C335.07,-293.92 323.89,-301.64 306.61,-303.65C277.41,-307.06 251.99,-290.04 246.09,-239.42C240.64,-192.70 259.53,-168.55 290.44,-164.94C316.72,-161.88 335.73,-170.51 346.22,-188.53ZM473.40,-177.15L463.24,-189.44C455.05,-180.53 444.23,-176.61 422.85,-179.35C400.49,-182.20 387.04,-191.66 386.37,-213.45L480.30,-202.49C487.31,-262.60 468.68,-284.75 435.59,-288.61C406.38,-292.02 378.56,-275.53 372.52,-223.70C367.92,-184.27 383.40,-154.10 419.90,-149.85C443.50,-147.09 463.21,-159.59 473.40,-177.15ZM430.06,-251.76C454.88,-248.87 468.79,-234.92 467.06,-220.07L388.21,-229.26C393.78,-247.36 411.80,-253.89 430.06,-251.76Z" fill="#ffffff" stroke="#000000"/>
    <path d="M-419.89,-271.82L-414.00,-305.26L-440.52,-309.92L-437.57,-326.64L-402.23,-320.42C-358.76,-312.78 -332.95,-327.93 -325.39,-370.92C-316.86,-419.41 -337.87,-437.14 -380.14,-444.57L-457.76,-458.23L-465.12,-416.43L-440.04,-412.02L-457.47,-312.91L-482.55,-317.32L-488.43,-283.88ZM-386.92,-351.46L-431.82,-359.36L-423.08,-409.04L-378.18,-401.14C-350.71,-396.31 -338.14,-385.23 -340.75,-368.95C-343.12,-354.10 -358.02,-346.38 -386.92,-351.46ZM-317.67,-288.81L-323.72,-254.41C-316.99,-253.48 -277.58,-246.55 -264.25,-243.95L-258.20,-278.35L-279.70,-282.13L-273.69,-316.28C-270.75,-333.00 -260.51,-340.80 -248.81,-338.74C-238.06,-336.85 -232.79,-333.22 -231.02,-326.50L-214.97,-364.55C-220.25,-370.90 -225.12,-375.45 -236.58,-377.46C-246.37,-379.19 -259.49,-374.60 -267.50,-361.24L-272.35,-381.29L-300.53,-386.25L-307.42,-347.08C-301.69,-346.07 -294.96,-345.14 -285.21,-343.17L-295.46,-284.90ZM-108.21,-217.00C-98.66,-215.32 -91.38,-217.48 -86.11,-222.22L-80.91,-251.84C-87.62,-245.88 -93.97,-244.78 -101.37,-246.08C-107.10,-247.09 -111.61,-250.84 -112.56,-256.67L-105.92,-294.40C-98.15,-338.59 -110.24,-355.24 -142.72,-360.95C-160.63,-364.10 -176.64,-361.26 -187.61,-352.11L-192.07,-321.13C-184.28,-327.64 -171.21,-331.99 -150.90,-328.41C-128.45,-324.47 -119.58,-313.30 -122.34,-290.64C-131.15,-299.33 -147.49,-304.42 -158.72,-306.40C-187.14,-311.40 -209.30,-298.80 -213.71,-273.72C-217.79,-250.55 -204.40,-231.46 -170.49,-225.49C-154.96,-222.76 -138.78,-226.56 -129.11,-233.97C-125.80,-224.77 -118.48,-218.80 -108.21,-217.00ZM-165.00,-255.30C-187.21,-259.21 -195.71,-266.86 -193.86,-277.37C-191.93,-288.36 -180.81,-292.80 -157.40,-288.68C-144.03,-286.33 -133.91,-280.86 -125.42,-271.73L-127.56,-259.55C-136.47,-253.73 -150.19,-252.70 -165.00,-255.30ZM33.35,-219.67L23.91,-238.82C15.24,-227.29 2.85,-224.05 -16.98,-227.54C-44.44,-232.37 -52.60,-251.78 -48.79,-272.04C-44.94,-292.54 -27.79,-301.83 -4.62,-297.76C15.20,-294.27 22.94,-286.51 26.69,-276.99L40.54,-274.55L49.74,-326.85L35.89,-329.29L32.61,-310.66C28.39,-324.45 17.78,-332.72 0.82,-335.70C-27.84,-340.75 -53.93,-325.39 -62.67,-275.71C-70.74,-229.86 -53.46,-204.90 -23.13,-199.57C2.67,-195.03 21.95,-202.47 33.35,-219.67ZM132.65,-187.93L130.45,-213.18C125.87,-209.55 117.16,-207.64 107.17,-209.64C95.51,-211.94 88.44,-219.34 91.47,-236.54L98.27,-275.23L134.10,-268.92L140.65,-306.18L104.83,-312.48L110.29,-343.53L94.76,-346.26L89.30,-315.22L70.44,-318.53L63.88,-281.28L82.75,-277.96L73.04,-222.79C67.96,-193.89 79.81,-181.46 98.44,-178.19C112.05,-175.79 126.67,-179.13 132.65,-187.93ZM227.04,-332.60C229.48,-346.45 222.81,-353.29 209.91,-355.56C195.58,-358.08 187.40,-353.61 185.01,-339.99C182.62,-326.38 189.12,-318.59 202.98,-316.15C215.40,-313.96 224.65,-318.98 227.04,-332.60ZM156.69,-205.61L150.64,-171.22C160.96,-169.65 170.75,-167.93 180.54,-166.21L188.90,-164.74C199.17,-162.93 209.40,-160.88 220.14,-158.99L226.19,-193.38L202.07,-197.63L218.33,-290.06L172.95,-298.04L166.06,-258.87L195.92,-253.62L186.55,-200.36ZM346.70,-164.56L337.26,-183.70C328.59,-172.17 316.20,-168.94 296.37,-172.42C268.91,-177.25 260.75,-196.66 264.56,-216.92C268.41,-237.42 285.56,-246.71 308.73,-242.64C328.55,-239.15 336.29,-231.39 340.03,-221.87L353.89,-219.43L363.09,-271.73L349.24,-274.17L345.96,-255.54C341.74,-269.33 331.13,-277.60 314.17,-280.59C285.51,-285.63 259.42,-270.27 250.68,-220.59C242.61,-174.74 259.89,-149.79 290.22,-144.45C316.02,-139.91 335.30,-147.35 346.70,-164.56ZM471.72,-146.01L462.38,-158.73C453.78,-150.40 442.86,-147.15 421.89,-151.08C399.96,-155.19 387.21,-165.31 387.80,-186.87L479.99,-170.66C490.37,-229.65 473.23,-252.61 440.75,-258.32C412.09,-263.36 383.65,-248.66 374.70,-197.79C367.90,-159.10 381.46,-128.40 417.28,-122.10C440.45,-118.02 460.64,-129.25 471.72,-146.01ZM433.17,-222.23C457.53,-217.94 470.48,-203.35 467.91,-188.78L390.53,-202.40C397.07,-219.96 415.26,-225.38 433.17,-222.23Z" fill="#ffffff" stroke="#000000"/>
    <path d="M-405.52,-291.20L-397.79,-323.89L-423.72,-330.02L-419.85,-346.37L-385.28,-338.20C-342.77,-328.15 -316.40,-341.64 -306.46,-383.69C-295.25,-431.10 -314.99,-449.82 -356.33,-459.60L-432.24,-477.54L-441.91,-436.67L-417.38,-430.87L-440.30,-333.94L-464.82,-339.74L-472.55,-307.04ZM-368.38,-367.99L-412.28,-378.37L-400.80,-426.95L-356.89,-416.57C-330.03,-410.22 -318.24,-398.55 -321.76,-382.62C-324.95,-368.08 -340.11,-361.31 -368.38,-367.99ZM-303.55,-302.11L-311.51,-268.48C-304.91,-267.16 -266.37,-258.05 -253.35,-254.73L-245.40,-288.36L-266.42,-293.33L-258.52,-326.73C-254.66,-343.08 -244.09,-350.20 -232.65,-347.49C-222.14,-345.01 -217.14,-341.11 -215.77,-334.38L-197.73,-371.05C-202.59,-377.62 -207.13,-382.40 -218.35,-385.05C-227.92,-387.31 -241.15,-383.53 -249.83,-370.79L-253.46,-390.88L-281.02,-397.40L-290.08,-359.10C-284.48,-357.77 -277.88,-356.46 -268.36,-353.96L-281.83,-296.97ZM-100.72,-219.13C-91.38,-216.93 -84.07,-218.65 -78.59,-223.03L-71.75,-251.99C-78.72,-246.49 -85.06,-245.76 -92.30,-247.48C-97.90,-248.80 -102.14,-252.76 -102.74,-258.58L-94.02,-295.48C-83.80,-338.69 -94.79,-355.84 -126.56,-363.35C-144.07,-367.49 -160.06,-365.59 -171.42,-357.18L-177.61,-326.83C-169.53,-332.82 -156.36,-336.36 -136.51,-331.67C-114.56,-326.48 -106.43,-314.94 -110.46,-292.71C-118.66,-301.80 -134.52,-307.77 -145.49,-310.36C-173.29,-316.93 -195.91,-305.76 -201.70,-281.23C-207.06,-258.58 -194.93,-238.94 -161.77,-231.10C-146.59,-227.51 -130.38,-230.34 -120.40,-237.10C-117.66,-227.82 -110.77,-221.51 -100.72,-219.13ZM-154.63,-260.24C-176.35,-265.38 -184.31,-273.42 -181.89,-283.70C-179.35,-294.44 -168.10,-298.20 -145.21,-292.79C-132.13,-289.69 -122.45,-283.71 -114.59,-274.20L-117.40,-262.29C-126.53,-257.05 -140.15,-256.82 -154.63,-260.24ZM39.29,-213.65L31.07,-233.11C21.83,-222.22 9.41,-219.73 -9.98,-224.31C-36.84,-230.66 -43.78,-250.31 -38.86,-270.11C-33.87,-290.14 -16.40,-298.34 6.26,-292.98C25.64,-288.40 32.85,-280.28 36.00,-270.66L49.55,-267.46L61.64,-318.61L48.09,-321.81L43.79,-303.59C40.41,-317.46 30.40,-326.24 13.81,-330.16C-14.21,-336.79 -40.87,-323.11 -52.36,-274.53C-62.96,-229.69 -47.32,-204.04 -17.66,-197.03C7.56,-191.07 27.04,-197.31 39.29,-213.65ZM135.59,-176.58L134.86,-201.66C130.13,-198.34 121.41,-196.95 111.66,-199.50C100.27,-202.44 93.71,-210.16 97.68,-226.97L106.63,-264.81L141.66,-256.53L150.28,-292.96L115.24,-301.25L122.42,-331.61L107.24,-335.20L100.06,-304.84L81.61,-309.20L73.00,-272.76L91.45,-268.40L78.69,-214.45C72.01,-186.19 83.00,-173.23 101.22,-168.92C114.53,-165.78 129.17,-168.23 135.59,-176.58ZM237.15,-314.10C240.35,-327.65 234.15,-334.79 221.54,-337.77C207.52,-341.08 199.19,-337.13 196.05,-323.82C192.90,-310.51 198.88,-302.43 212.43,-299.23C224.57,-296.36 234.00,-300.79 237.15,-314.10ZM160.35,-192.67L152.40,-159.04C162.50,-156.90 172.08,-154.64 181.65,-152.37L189.83,-150.44C199.87,-148.07 209.86,-145.46 220.37,-142.97L228.32,-176.61L204.73,-182.18L226.10,-272.57L181.72,-283.06L172.67,-244.76L201.86,-237.86L189.55,-185.77ZM345.72,-141.20L337.50,-160.66C328.27,-149.77 315.84,-147.28 296.46,-151.87C269.60,-158.22 262.65,-177.86 267.58,-197.66C272.56,-217.69 290.03,-225.89 312.69,-220.53C332.08,-215.95 339.28,-207.83 342.43,-198.21L355.98,-195.01L368.07,-246.16L354.52,-249.36L350.22,-231.14C346.84,-245.01 336.83,-253.79 320.25,-257.71C292.22,-264.34 265.56,-250.66 254.07,-202.08C243.47,-157.24 259.11,-131.59 288.77,-124.58C314.00,-118.62 333.48,-124.86 345.72,-141.20ZM468.18,-115.70L459.69,-128.81C450.71,-121.07 439.74,-118.48 419.24,-123.58C397.81,-128.89 385.79,-139.62 387.62,-160.89L477.77,-139.58C491.41,-197.27 475.80,-220.93 444.03,-228.44C416.01,-235.07 387.07,-222.18 375.30,-172.44C366.36,-134.60 377.99,-103.49 413.03,-95.20C435.68,-89.85 456.28,-99.78 468.18,-115.70ZM434.47,-193.22C458.30,-187.59 470.25,-172.43 466.88,-158.18L391.21,-176.07C398.67,-193.05 416.96,-197.36 434.47,-193.22Z" fill="#ffffff" stroke="#000000"/>
    <path d="M-390.18,-309.86L-380.67,-341.72L-405.93,-349.26L-401.17,-365.19L-367.49,-355.13C-326.07,-342.76 -299.24,-354.58 -287.01,-395.54C-273.22,-441.74 -291.64,-461.37 -331.92,-473.40L-405.88,-495.49L-417.78,-455.66L-393.88,-448.53L-422.09,-354.08L-445.98,-361.22L-455.49,-329.36ZM-349.08,-383.59L-391.86,-396.37L-377.72,-443.70L-334.94,-430.92C-308.77,-423.11 -297.79,-410.91 -302.18,-395.36C-306.17,-381.19 -321.54,-375.37 -349.08,-383.59ZM-288.82,-314.78L-298.61,-282.01C-292.17,-280.34 -254.62,-269.12 -241.94,-265.09L-232.16,-297.86L-252.64,-303.98L-242.92,-336.52C-238.16,-352.45 -227.32,-358.88 -216.17,-355.55C-205.93,-352.49 -201.21,-348.36 -200.25,-341.62L-180.32,-376.82C-184.74,-383.59 -188.96,-388.57 -199.88,-391.83C-209.21,-394.62 -222.49,-391.64 -231.80,-379.55L-234.24,-399.61L-261.09,-407.63L-272.24,-370.31C-266.78,-368.68 -260.34,-367.00 -251.08,-363.99L-267.66,-308.46ZM-93.20,-221.17C-84.10,-218.45 -76.78,-219.73 -71.12,-223.74L-62.69,-251.96C-69.90,-246.93 -76.20,-246.58 -83.25,-248.68C-88.71,-250.31 -92.68,-254.47 -92.93,-260.25L-82.20,-296.21C-69.62,-338.31 -79.50,-355.88 -110.45,-365.12C-127.51,-370.22 -143.41,-369.27 -155.12,-361.61L-162.98,-331.98C-154.66,-337.43 -141.44,-340.17 -122.10,-334.40C-100.71,-328.01 -93.35,-316.14 -98.60,-294.41C-106.18,-303.87 -121.50,-310.67 -132.20,-313.86C-159.28,-321.95 -182.26,-312.21 -189.40,-288.31C-195.99,-266.24 -185.14,-246.14 -152.82,-236.49C-138.03,-232.08 -121.86,-233.94 -111.61,-240.05C-109.44,-230.72 -102.99,-224.09 -93.20,-221.17ZM-144.10,-264.87C-165.27,-271.19 -172.67,-279.60 -169.68,-289.61C-166.55,-300.08 -155.23,-303.14 -132.93,-296.48C-120.18,-292.68 -110.96,-286.21 -103.74,-276.37L-107.20,-264.76C-116.52,-260.11 -129.99,-260.66 -144.10,-264.87ZM44.80,-207.71L37.80,-227.41C28.05,-217.18 15.63,-215.44 -3.26,-221.08C-29.43,-228.89 -35.16,-248.70 -29.16,-267.97C-23.09,-287.48 -5.35,-294.57 16.72,-287.98C35.61,-282.34 42.26,-273.91 44.82,-264.22L58.02,-260.28L72.91,-310.12L59.71,-314.06L54.41,-296.31C51.86,-310.21 42.48,-319.45 26.32,-324.28C-0.99,-332.43 -28.11,-320.46 -42.24,-273.12C-55.29,-229.43 -41.32,-203.19 -12.41,-194.56C12.16,-187.22 31.77,-192.28 44.80,-207.71ZM137.81,-165.56L138.53,-190.38C133.66,-187.38 124.97,-186.50 115.48,-189.58C104.40,-193.14 98.36,-201.14 103.26,-217.52L114.26,-254.39L148.40,-244.20L159.00,-279.70L124.87,-289.89L133.70,-319.48L118.91,-323.89L110.07,-294.31L92.10,-299.68L81.49,-264.18L99.47,-258.81L83.77,-206.24C75.55,-178.70 85.67,-165.27 103.42,-159.97C116.39,-156.10 130.99,-157.69 137.81,-165.56ZM246.04,-295.59C249.98,-308.79 244.26,-316.20 231.97,-319.87C218.32,-323.95 209.86,-320.53 205.99,-307.55C202.11,-294.58 207.56,-286.26 220.76,-282.32C232.59,-278.79 242.17,-282.62 246.04,-295.59ZM163.20,-180.04L153.41,-147.27C163.27,-144.58 172.60,-141.79 181.93,-139.00L189.89,-136.63C199.68,-133.70 209.39,-130.55 219.64,-127.50L229.42,-160.27L206.44,-167.13L232.74,-255.20L189.50,-268.11L178.35,-230.79L206.80,-222.29L191.64,-171.55ZM343.37,-118.55L336.37,-138.24C326.62,-128.02 314.20,-126.27 295.31,-131.91C269.14,-139.73 263.41,-159.53 269.41,-178.81C275.48,-198.31 293.22,-205.41 315.29,-198.82C334.18,-193.18 340.84,-184.75 343.40,-175.06L356.59,-171.12L371.48,-220.95L358.28,-224.90L352.98,-207.15C350.43,-221.04 341.05,-230.29 324.89,-235.11C297.59,-243.27 270.46,-231.29 256.33,-183.96C243.28,-140.26 257.26,-114.03 286.16,-105.40C310.73,-98.06 330.34,-103.11 343.37,-118.55ZM462.89,-86.33L455.25,-99.77C445.93,-92.63 434.95,-90.71 414.99,-96.92C394.12,-103.40 382.87,-114.69 385.89,-135.60L473.73,-109.37C490.52,-165.57 476.45,-189.85 445.51,-199.10C418.20,-207.25 388.87,-196.18 374.39,-147.71C363.38,-110.84 373.09,-79.44 407.22,-69.24C429.30,-62.65 450.22,-71.28 462.89,-86.33ZM434.04,-164.84C457.25,-157.91 468.19,-142.25 464.04,-128.37L390.31,-150.39C398.66,-166.73 416.97,-169.94 434.04,-164.84Z" fill="#ffffff" stroke="#000000"/>
    <path d="M-373.90,-327.75L-362.68,-358.67L-387.20,-367.57L-381.58,-383.04L-348.89,-371.17C-308.69,-356.57 -281.51,-366.71 -267.07,-406.47C-250.79,-451.31 -267.87,-471.76 -306.97,-485.95L-378.76,-512.02L-392.79,-473.36L-369.60,-464.94L-402.88,-373.27L-426.07,-381.69L-437.30,-350.76ZM-329.07,-398.22L-370.60,-413.30L-353.92,-459.24L-312.39,-444.17C-286.98,-434.95 -276.84,-422.26 -282.07,-407.16C-286.82,-393.39 -302.34,-388.52 -329.07,-398.22ZM-273.50,-326.80L-285.04,-294.99C-278.78,-292.96 -242.33,-279.73 -230.04,-275.02L-218.49,-306.83L-238.37,-314.05L-226.91,-345.63C-221.29,-361.10 -210.21,-366.82 -199.39,-362.89C-189.45,-359.29 -185.03,-354.93 -184.46,-348.23L-162.76,-381.85C-166.74,-388.79 -170.61,-393.95 -181.22,-397.80C-190.27,-401.09 -203.56,-398.91 -213.46,-387.50L-214.71,-407.46L-240.78,-416.92L-253.93,-380.69C-248.63,-378.77 -242.36,-376.75 -233.39,-373.24L-252.95,-319.34ZM-85.64,-223.10C-76.80,-219.89 -69.49,-220.73 -63.67,-224.37L-53.73,-251.76C-61.14,-247.20 -67.38,-247.22 -74.23,-249.70C-79.53,-251.63 -83.21,-255.96 -83.13,-261.69L-70.46,-296.59C-55.62,-337.45 -64.36,-355.38 -94.41,-366.28C-110.97,-372.30 -126.73,-372.27 -138.74,-365.38L-148.20,-336.56C-139.67,-341.46 -126.46,-343.42 -107.68,-336.60C-86.92,-329.06 -80.33,-316.92 -86.76,-295.75C-93.71,-305.53 -108.45,-313.13 -118.83,-316.90C-145.12,-326.44 -168.39,-318.14 -176.81,-294.94C-184.59,-273.52 -175.02,-253.04 -143.65,-241.66C-129.29,-236.44 -113.21,-237.36 -102.73,-242.80C-101.12,-233.47 -95.14,-226.54 -85.64,-223.10ZM-133.41,-269.19C-153.95,-276.65 -160.78,-285.38 -157.25,-295.10C-153.56,-305.26 -142.20,-307.63 -120.55,-299.77C-108.18,-295.28 -99.44,-288.36 -92.87,-278.22L-96.96,-266.96C-106.44,-262.90 -119.71,-264.22 -133.41,-269.19ZM49.92,-201.88L44.12,-221.74C33.91,-212.20 21.54,-211.19 3.21,-217.84C-22.19,-227.06 -26.72,-246.96 -19.69,-265.65C-12.57,-284.57 5.36,-290.56 26.78,-282.78C45.12,-276.13 51.21,-267.42 53.18,-257.70L65.99,-253.05L83.55,-301.43L70.74,-306.08L64.49,-288.85C62.77,-302.72 54.03,-312.39 38.35,-318.09C11.84,-327.71 -15.64,-317.44 -32.32,-271.49C-47.71,-229.08 -35.41,-202.36 -7.36,-192.18C16.50,-183.52 36.15,-187.38 49.92,-201.88ZM139.37,-154.91L141.50,-179.39C136.52,-176.69 127.89,-176.33 118.69,-179.92C107.95,-184.07 102.44,-192.32 108.22,-208.22L121.21,-244.00L154.34,-231.98L166.85,-266.43L133.72,-278.46L144.14,-307.18L129.79,-312.39L119.36,-283.68L101.91,-290.01L89.40,-255.55L106.85,-249.22L88.33,-198.19C78.62,-171.46 87.85,-157.61 105.08,-151.36C117.67,-146.79 132.18,-147.52 139.37,-154.91ZM253.74,-277.14C258.39,-289.95 253.17,-297.60 241.24,-301.93C227.99,-306.74 219.44,-303.85 214.87,-291.26C210.29,-278.66 215.20,-270.13 228.01,-265.48C239.50,-261.31 249.17,-264.55 253.74,-277.14ZM165.28,-167.75L153.73,-135.94C163.31,-132.72 172.37,-129.43 181.42,-126.14L189.15,-123.33C198.65,-119.89 208.07,-116.22 218.01,-112.61L229.56,-144.42L207.25,-152.52L238.28,-238.00L196.31,-253.24L183.16,-217.01L210.77,-206.99L192.89,-157.73ZM339.73,-96.67L333.94,-116.52C323.72,-106.98 311.35,-105.97 293.02,-112.63C267.62,-121.85 263.09,-141.74 270.13,-160.44C277.24,-179.36 295.17,-185.35 316.60,-177.57C334.93,-170.91 341.02,-162.20 342.99,-152.49L355.80,-147.84L373.37,-196.21L360.55,-200.86L354.30,-183.63C352.59,-197.51 343.85,-207.18 328.16,-212.87C301.66,-222.50 274.18,-212.22 257.50,-166.28C242.10,-123.86 254.40,-97.15 282.45,-86.96C306.31,-78.30 325.96,-82.17 339.73,-96.67ZM455.94,-57.98L449.16,-71.69C439.55,-65.18 428.59,-63.91 409.23,-71.19C388.99,-78.79 378.52,-90.59 382.71,-111.07L467.97,-80.11C487.78,-134.68 475.28,-159.46 445.24,-170.37C418.73,-179.99 389.12,-170.74 372.04,-123.69C359.05,-87.91 366.83,-56.33 399.97,-44.30C421.40,-36.52 442.55,-43.84 455.94,-57.98ZM431.94,-137.20C454.47,-129.02 464.38,-112.92 459.49,-99.44L387.92,-125.43C397.11,-141.09 415.38,-143.21 431.94,-137.20Z" fill="#ffffff" stroke="#000000"/>
    <path d="M-356.72,-344.82L-343.86,-374.72L-367.56,-384.92L-361.13,-399.87L-329.52,-386.27C-290.65,-369.54 -263.23,-377.99 -246.69,-416.44C-228.04,-459.79 -243.73,-480.97 -281.53,-497.23L-350.94,-527.09L-367.02,-489.72L-344.60,-480.07L-382.73,-391.44L-405.15,-401.09L-418.02,-371.19ZM-308.39,-411.85L-348.54,-429.12L-329.43,-473.55L-289.28,-456.27C-264.72,-445.71 -255.43,-432.60 -261.46,-417.98C-266.94,-404.65 -282.55,-400.73 -308.39,-411.85ZM-257.60,-338.11L-270.84,-307.36C-264.76,-305.00 -229.52,-289.84 -217.66,-284.48L-204.42,-315.23L-223.65,-323.50L-210.51,-354.05C-204.07,-369.00 -192.80,-374.02 -182.34,-369.51C-172.73,-365.38 -168.61,-360.83 -168.44,-354.17L-145.07,-386.13C-148.60,-393.22 -152.13,-398.54 -162.39,-402.95C-171.14,-406.71 -184.39,-405.33 -194.82,-394.63L-194.91,-414.41L-220.12,-425.25L-235.18,-390.23C-230.06,-388.02 -223.99,-385.66 -215.32,-381.68L-237.74,-329.57ZM-78.01,-224.91C-69.47,-221.23 -62.20,-221.65 -56.24,-224.91L-44.85,-251.39C-52.42,-247.31 -58.59,-247.69 -65.21,-250.53C-70.34,-252.74 -73.72,-257.23 -73.32,-262.88L-58.80,-296.62C-41.80,-336.13 -49.41,-354.34 -78.45,-366.84C-94.47,-373.73 -110.04,-374.60 -122.29,-368.48L-133.29,-340.57C-124.58,-344.92 -111.42,-346.09 -93.27,-338.28C-73.19,-329.64 -67.38,-317.27 -74.95,-296.74C-81.25,-306.79 -95.38,-315.14 -105.41,-319.46C-130.83,-330.40 -154.28,-323.53 -163.93,-301.10C-172.84,-280.39 -164.57,-259.62 -134.24,-246.57C-120.36,-240.60 -104.42,-240.57 -93.76,-245.35C-92.71,-236.04 -87.19,-228.86 -78.01,-224.91ZM-122.54,-273.17C-142.41,-281.72 -148.65,-290.73 -144.61,-300.13C-140.38,-309.96 -129.02,-311.65 -108.09,-302.64C-96.13,-297.50 -87.90,-290.16 -81.99,-279.77L-86.68,-268.88C-96.27,-265.41 -109.30,-267.48 -122.54,-273.17ZM54.66,-196.18L50.08,-216.12C39.44,-207.28 27.17,-206.99 9.44,-214.62C-15.12,-225.19 -18.45,-245.10 -10.43,-263.16C-2.31,-281.43 15.74,-286.32 36.46,-277.41C54.18,-269.78 59.70,-260.83 61.09,-251.12L73.47,-245.79L93.60,-292.56L81.21,-297.89L74.04,-281.23C73.15,-295.04 65.07,-305.09 49.91,-311.61C24.28,-322.64 -3.45,-314.07 -22.57,-269.65C-40.21,-228.64 -29.59,-201.55 -2.47,-189.88C20.60,-179.95 40.23,-182.64 54.66,-196.18ZM140.31,-144.65L143.83,-168.70C138.76,-166.33 130.21,-166.46 121.33,-170.53C110.96,-175.25 105.99,-183.71 112.61,-199.09L127.49,-233.69L159.53,-219.91L173.86,-253.22L141.83,-267.01L153.77,-294.77L139.89,-300.74L127.94,-272.98L111.07,-280.24L96.74,-246.92L113.61,-239.66L92.39,-190.33C81.27,-164.48 89.58,-150.28 106.24,-143.11C118.41,-137.87 132.79,-137.76 140.31,-144.65ZM260.30,-258.81C265.63,-271.20 260.91,-279.05 249.37,-284.01C236.56,-289.53 227.95,-287.16 222.71,-274.98C217.47,-262.81 221.82,-254.10 234.21,-248.77C245.32,-244.00 255.06,-246.64 260.30,-258.81ZM166.64,-155.85L153.41,-125.09C162.69,-121.35 171.45,-117.59 180.20,-113.82L187.68,-110.60C196.86,-106.65 205.95,-102.49 215.56,-98.35L228.79,-129.11L207.22,-138.39L242.78,-221.04L202.20,-238.50L187.13,-203.47L213.83,-191.99L193.34,-144.36ZM334.87,-75.63L330.29,-95.57C319.65,-86.73 307.38,-86.44 289.65,-94.07C265.09,-104.63 261.76,-124.54 269.78,-142.61C277.90,-160.88 295.95,-165.77 316.66,-156.86C334.39,-149.23 339.90,-140.28 341.30,-130.57L353.68,-125.24L373.80,-172.01L361.42,-177.34L354.25,-160.68C353.35,-174.48 345.28,-184.54 330.11,-191.06C304.49,-202.09 276.75,-193.52 257.64,-149.09C240.00,-108.09 250.62,-80.99 277.74,-69.33C300.81,-59.40 320.44,-62.09 334.87,-75.63ZM447.43,-30.75L441.52,-44.67C431.65,-38.80 420.75,-38.17 402.05,-46.47C382.50,-55.14 372.83,-67.39 378.14,-87.38L460.58,-51.91C483.28,-104.67 472.35,-129.87 443.31,-142.36C417.68,-153.39 387.90,-145.95 368.33,-100.46C353.45,-65.86 359.33,-34.23 391.36,-20.44C412.08,-11.53 433.40,-17.55 447.43,-30.75ZM428.27,-110.36C450.06,-100.99 458.92,-84.52 453.31,-71.49L384.12,-101.26C394.09,-116.21 412.26,-117.25 428.27,-110.36Z" fill="#ffffff" stroke="#000000"/>
    <path d="M-338.68,-361.01L-324.26,-389.80L-347.08,-401.23L-339.87,-415.63L-309.44,-400.38C-272.01,-381.64 -244.44,-388.41 -225.90,-425.42C-204.99,-467.17 -219.27,-488.99 -255.67,-507.22L-322.51,-540.69L-340.53,-504.70L-318.94,-493.89L-361.68,-408.54L-383.28,-419.36L-397.70,-390.57ZM-287.10,-424.44L-325.76,-443.80L-304.34,-486.58L-265.68,-467.21C-242.03,-455.37 -233.60,-441.89 -240.40,-427.80C-246.58,-414.95 -262.22,-411.97 -287.10,-424.44ZM-241.17,-348.70L-256.01,-319.09C-250.14,-316.41 -216.21,-299.42 -204.80,-293.44L-189.97,-323.06L-208.48,-332.32L-193.75,-361.73C-186.54,-376.13 -175.12,-380.44 -165.04,-375.39C-155.79,-370.76 -151.98,-366.02 -152.19,-359.44L-127.28,-389.67C-130.36,-396.87 -133.55,-402.32 -143.42,-407.27C-151.85,-411.49 -165.02,-410.88 -175.93,-400.91L-174.88,-420.45L-199.15,-432.61L-216.04,-398.88C-211.11,-396.41 -205.25,-393.73 -196.92,-389.30L-222.05,-339.12ZM-70.30,-226.59C-62.08,-222.47 -54.88,-222.47 -48.81,-225.35L-36.04,-250.85C-43.75,-247.25 -49.82,-247.98 -56.20,-251.17C-61.13,-253.64 -64.21,-258.27 -63.49,-263.83L-47.22,-296.32C-28.16,-334.36 -34.63,-352.78 -62.60,-366.79C-78.02,-374.51 -93.35,-376.27 -105.80,-370.93L-118.26,-343.99C-109.41,-347.79 -96.35,-348.19 -78.87,-339.44C-59.54,-329.76 -54.51,-317.20 -63.16,-297.36C-68.81,-307.65 -82.28,-316.71 -91.94,-321.55C-116.42,-333.81 -139.97,-328.37 -150.79,-306.78C-160.78,-286.83 -153.80,-265.84 -124.60,-251.22C-111.23,-244.52 -95.49,-243.58 -84.69,-247.69C-84.18,-238.43 -79.15,-231.02 -70.30,-226.59ZM-111.52,-276.82C-130.64,-286.40 -136.29,-295.66 -131.76,-304.71C-127.02,-314.17 -115.71,-315.19 -95.56,-305.09C-84.04,-299.33 -76.33,-291.61 -71.09,-281.01L-76.34,-270.52C-86.01,-267.65 -98.77,-270.43 -111.52,-276.82ZM59.07,-190.61L55.69,-210.57C44.68,-202.45 32.54,-202.87 15.47,-211.42C-8.18,-223.26 -10.33,-243.11 -1.37,-260.49C7.70,-278.07 25.80,-281.87 45.75,-271.88C62.82,-263.33 67.75,-254.17 68.57,-244.50L80.49,-238.53L103.05,-283.56L91.12,-289.54L83.09,-273.50C83.00,-287.18 75.60,-297.57 61.00,-304.88C36.32,-317.24 8.44,-310.37 -12.98,-267.60C-32.76,-228.11 -23.83,-200.75 2.29,-187.66C24.50,-176.54 44.04,-178.07 59.07,-190.61ZM140.70,-134.80L145.55,-158.36C140.41,-156.30 131.97,-156.93 123.44,-161.46C113.46,-166.71 109.05,-175.35 116.46,-190.16L133.15,-223.47L164.00,-208.02L180.06,-240.11L149.22,-255.56L162.61,-282.29L149.24,-288.98L135.85,-262.25L119.60,-270.39L103.53,-238.31L119.78,-230.17L95.99,-182.66C83.53,-157.78 90.92,-143.27 106.96,-135.24C118.68,-129.37 132.88,-128.43 140.70,-134.80ZM265.75,-240.66C271.72,-252.59 267.51,-260.62 256.40,-266.18C244.06,-272.36 235.42,-270.51 229.55,-258.79C223.68,-247.07 227.48,-238.22 239.41,-232.25C250.10,-226.89 259.87,-228.94 265.75,-240.66ZM167.35,-144.35L152.52,-114.74C161.46,-110.52 169.89,-106.29 178.32,-102.07L185.52,-98.46C194.36,-94.04 203.10,-89.40 212.36,-84.77L227.19,-114.38L206.42,-124.78L246.28,-204.37L207.21,-223.94L190.32,-190.21L216.02,-177.34L193.05,-131.48ZM328.88,-55.48L325.50,-75.43C314.49,-67.31 302.35,-67.73 285.28,-76.28C261.63,-88.13 259.48,-107.98 268.44,-125.36C277.51,-142.94 295.61,-146.73 315.56,-136.74C332.63,-128.19 337.56,-119.04 338.38,-109.37L350.31,-103.39L372.86,-148.43L360.93,-154.40L352.90,-138.36C352.81,-152.04 345.41,-162.44 330.81,-169.75C306.13,-182.11 278.25,-175.24 256.83,-132.46C237.05,-92.98 245.98,-65.61 272.10,-52.53C294.31,-41.41 313.85,-42.94 328.88,-55.48ZM437.46,-4.69L432.43,-18.79C422.35,-13.55 411.55,-13.56 393.55,-22.83C374.74,-32.51 365.90,-45.16 372.29,-64.60L451.67,-24.84C477.11,-75.64 467.77,-101.15 439.80,-115.16C415.12,-127.52 385.29,-121.88 363.35,-78.08C346.67,-44.77 350.66,-13.19 381.50,2.26C401.45,12.26 422.85,7.54 437.46,-4.69ZM423.12,-84.42C444.09,-73.91 451.90,-57.14 445.62,-44.60L378.99,-77.97C389.69,-92.15 407.69,-92.14 423.12,-84.42Z" fill="#ffffff" stroke="#000000"/>
    <path d="M-319.81,-376.27L-303.92,-403.88L-325.80,-416.48L-317.86,-430.28L-288.68,-413.48C-252.80,-392.82 -225.18,-397.92 -204.75,-433.41C-181.71,-473.43 -194.56,-495.80 -229.46,-515.89L-293.54,-552.78L-313.40,-518.27L-292.70,-506.36L-339.80,-424.53L-360.51,-436.45L-376.40,-408.85ZM-265.24,-435.95L-302.31,-457.29L-278.70,-498.30L-241.63,-476.96C-218.96,-463.90 -211.41,-450.11 -218.93,-436.59C-225.78,-424.25 -241.39,-422.21 -265.24,-435.95ZM-224.24,-358.53L-240.58,-330.14C-234.95,-327.15 -202.42,-308.43 -191.49,-301.87L-175.14,-330.26L-192.89,-340.48L-176.66,-368.67C-168.71,-382.47 -157.19,-386.08 -147.53,-380.52C-138.65,-375.41 -135.17,-370.51 -135.76,-364.03L-109.42,-392.44C-112.05,-399.73 -114.88,-405.30 -124.35,-410.75C-132.43,-415.40 -145.47,-415.56 -156.81,-406.34L-154.66,-425.57L-177.93,-438.97L-196.54,-406.63C-191.81,-403.91 -186.18,-400.93 -178.21,-396.08L-205.90,-347.97ZM-62.52,-228.15C-54.63,-223.61 -47.52,-223.19 -41.36,-225.68L-27.29,-250.13C-35.11,-247.02 -41.06,-248.08 -47.17,-251.60C-51.91,-254.33 -54.68,-259.08 -53.65,-264.52L-35.72,-295.67C-14.72,-332.15 -20.05,-350.70 -46.86,-366.14C-61.65,-374.65 -76.68,-377.27 -89.28,-372.71L-103.13,-346.82C-94.18,-350.07 -81.26,-349.71 -64.50,-340.07C-45.96,-329.40 -41.72,-316.71 -51.40,-297.61C-56.39,-308.10 -69.17,-317.82 -78.44,-323.15C-101.90,-336.66 -125.47,-332.64 -137.39,-311.94C-148.40,-292.82 -142.71,-271.69 -114.72,-255.57C-101.90,-248.20 -86.41,-246.37 -75.51,-249.80C-75.54,-240.63 -70.99,-233.03 -62.52,-228.15ZM-100.33,-280.10C-118.67,-290.66 -123.72,-300.13 -118.72,-308.81C-113.50,-317.87 -102.27,-318.23 -82.95,-307.11C-71.90,-300.75 -64.74,-292.69 -60.17,-281.92L-65.96,-271.87C-75.67,-269.58 -88.11,-273.07 -100.33,-280.10ZM63.17,-185.19L60.98,-205.09C49.64,-197.71 37.68,-198.82 21.31,-208.24C-1.36,-221.29 -2.34,-241.02 7.50,-257.66C17.46,-274.51 35.56,-277.21 54.68,-266.20C71.05,-256.78 75.39,-247.46 75.64,-237.86L87.08,-231.28L111.94,-274.46L100.50,-281.04L91.65,-265.66C92.34,-279.17 85.63,-289.86 71.63,-297.92C47.97,-311.54 20.05,-306.36 -3.56,-265.35C-25.36,-227.49 -18.11,-199.95 6.93,-185.54C28.23,-173.28 47.61,-173.67 63.17,-185.19ZM140.58,-125.40L146.72,-148.38C141.52,-146.65 133.23,-147.74 125.06,-152.71C115.51,-158.47 111.65,-167.26 119.82,-181.45L138.21,-213.39L167.78,-196.37L185.49,-227.12L155.91,-244.15L170.67,-269.78L157.86,-277.16L143.10,-251.53L127.52,-260.49L109.82,-229.74L125.39,-220.77L99.17,-175.23C85.44,-151.37 91.91,-136.62 107.29,-127.76C118.53,-121.29 132.49,-119.56 140.58,-125.40ZM270.13,-222.76C276.71,-234.19 273.01,-242.36 262.37,-248.49C250.54,-255.30 241.90,-253.97 235.43,-242.74C228.96,-231.50 232.20,-222.54 243.64,-215.96C253.89,-210.06 263.66,-211.52 270.13,-222.76ZM167.44,-133.30L151.09,-104.91C159.68,-100.22 167.77,-95.57 175.85,-90.92L182.75,-86.94C191.23,-82.06 199.59,-76.99 208.47,-71.88L224.81,-100.27L204.90,-111.73L248.83,-188.03L211.36,-209.60L192.75,-177.27L217.39,-163.08L192.08,-119.11ZM321.84,-36.27L319.65,-56.17C308.31,-48.78 296.35,-49.89 279.99,-59.32C257.31,-72.37 256.33,-92.10 266.18,-108.74C276.14,-125.58 294.23,-128.29 313.36,-117.28C329.72,-107.86 334.07,-98.53 334.32,-88.94L345.75,-82.36L370.61,-125.53L359.18,-132.12L350.32,-116.74C351.01,-130.25 344.30,-140.94 330.31,-149.00C306.65,-162.62 278.72,-157.43 255.11,-116.42C233.32,-78.57 240.57,-51.03 265.61,-36.62C286.90,-24.36 306.29,-24.75 321.84,-36.27ZM426.15,20.11L422.00,5.90C411.74,10.50 401.07,9.87 383.84,-0.32C365.81,-10.96 357.81,-23.96 365.24,-42.79L441.34,1.03C469.38,-47.67 461.62,-73.40 434.80,-88.84C411.14,-102.46 381.36,-98.61 357.18,-56.61C338.79,-24.67 340.92,6.74 370.50,23.77C389.62,34.78 411.02,31.35 426.15,20.11ZM416.56,-59.44C436.67,-47.86 443.42,-30.85 436.50,-18.83L372.61,-55.60C384.00,-69.00 401.78,-67.95 416.56,-59.44Z" fill="#ffffff" stroke="#000000"/>
    <path d="M-300.17,-390.56L-282.90,-416.90L-303.78,-430.60L-295.15,-443.77L-267.30,-425.51C-233.06,-403.05 -205.50,-406.51 -183.29,-440.38C-158.25,-478.57 -169.65,-501.39 -202.95,-523.23L-264.10,-563.33L-285.70,-530.40L-265.94,-517.44L-317.14,-439.36L-336.90,-452.32L-354.17,-425.97ZM-242.87,-446.35L-278.24,-469.55L-252.58,-508.68L-217.21,-485.49C-195.57,-471.30 -188.91,-457.25 -197.11,-444.33C-204.57,-432.54 -220.11,-431.42 -242.87,-446.35ZM-206.83,-367.56L-224.59,-340.46C-219.20,-337.20 -188.16,-316.84 -177.74,-309.74L-159.98,-336.84L-176.91,-347.94L-159.27,-374.85C-150.63,-388.02 -139.04,-390.91 -129.83,-384.87C-121.36,-379.32 -118.20,-374.28 -119.15,-367.91L-91.52,-394.46C-93.70,-401.80 -96.17,-407.46 -105.20,-413.39C-112.92,-418.45 -125.78,-419.35 -137.51,-410.89L-134.29,-429.77L-156.49,-444.32L-176.72,-413.47C-172.21,-410.51 -166.81,-407.24 -159.22,-401.99L-189.33,-356.08ZM-54.63,-229.55C-47.11,-224.61 -40.11,-223.79 -33.89,-225.90L-18.59,-249.23C-26.49,-246.61 -32.31,-248.00 -38.14,-251.83C-42.66,-254.79 -45.13,-259.64 -43.79,-264.95L-24.30,-294.68C-1.47,-329.49 -5.67,-348.12 -31.26,-364.90C-45.37,-374.15 -60.06,-377.60 -72.77,-373.82L-87.93,-349.05C-78.90,-351.74 -66.16,-350.65 -50.17,-340.17C-32.48,-328.57 -29.01,-315.80 -39.67,-297.50C-44.00,-308.14 -56.06,-318.47 -64.90,-324.27C-87.29,-338.95 -110.80,-336.34 -123.75,-316.58C-135.72,-298.33 -131.32,-277.14 -104.60,-259.62C-92.37,-251.60 -77.18,-248.91 -66.22,-251.68C-66.78,-242.62 -62.72,-234.85 -54.63,-229.55ZM-88.99,-283.02C-106.49,-294.49 -110.93,-304.13 -105.50,-312.41C-99.82,-321.07 -88.71,-320.78 -70.27,-308.69C-59.74,-301.78 -53.12,-293.40 -49.23,-282.51L-55.52,-272.91C-65.25,-271.22 -77.32,-275.37 -88.99,-283.02ZM67.00,-179.92L65.97,-199.70C54.36,-193.06 42.61,-194.84 26.99,-205.08C5.36,-219.27 5.52,-238.81 16.19,-254.68C26.99,-270.73 45.02,-272.37 63.27,-260.40C78.88,-250.16 82.64,-240.70 82.34,-231.21L93.25,-224.06L120.27,-265.26L109.36,-272.42L99.73,-257.74C101.19,-271.05 95.18,-281.98 81.82,-290.75C59.24,-305.55 31.37,-302.03 5.71,-262.90C-17.98,-226.77 -12.40,-199.17 11.49,-183.50C31.81,-170.17 50.98,-169.44 67.00,-179.92ZM140.00,-116.45L147.38,-138.79C142.15,-137.37 134.02,-138.93 126.24,-144.30C117.15,-150.54 113.83,-159.44 122.72,-172.98L142.70,-203.47L170.93,-184.96L190.18,-214.31L161.95,-232.82L177.99,-257.28L165.76,-265.30L149.72,-240.84L134.86,-250.58L115.61,-221.23L130.47,-211.49L101.97,-168.02C87.04,-145.25 92.59,-130.32 107.26,-120.70C117.99,-113.66 131.67,-111.15 140.00,-116.45ZM273.49,-205.15C280.65,-216.06 277.47,-224.33 267.31,-231.00C256.02,-238.40 247.41,-237.59 240.38,-226.86C233.35,-216.14 236.04,-207.11 246.95,-199.95C256.73,-193.54 266.46,-194.42 273.49,-205.15ZM166.97,-122.71L149.20,-95.62C157.42,-90.50 165.13,-85.44 172.85,-80.38L179.43,-76.06C187.52,-70.76 195.49,-65.26 203.96,-59.71L221.72,-86.81L202.72,-99.27L250.47,-172.08L214.72,-195.53L194.48,-164.67L218.00,-149.25L190.49,-107.29ZM313.86,-18.05L312.83,-37.82C301.21,-31.18 289.47,-32.96 273.85,-43.21C252.21,-57.39 252.38,-76.93 263.05,-92.80C273.85,-108.86 291.87,-110.49 310.12,-98.52C325.74,-88.28 329.50,-78.82 329.19,-69.34L340.11,-62.18L367.13,-103.39L356.21,-110.54L346.59,-95.87C348.05,-109.17 342.04,-120.11 328.68,-128.87C306.10,-143.67 278.23,-140.15 252.57,-101.02C228.88,-64.89 234.46,-37.29 258.35,-21.62C278.67,-8.29 297.84,-7.57 313.86,-18.05ZM413.61,43.60L410.32,29.33C399.93,33.28 389.44,32.05 373.00,21.01C355.81,9.47 348.66,-3.83 357.07,-22.00L429.70,25.63C460.18,-20.84 453.99,-46.70 428.40,-63.48C405.82,-78.28 376.19,-76.18 349.91,-36.11C329.93,-5.63 330.23,25.51 358.45,44.02C376.70,55.99 398.03,53.83 413.61,43.60ZM408.71,-35.49C427.90,-22.91 433.58,-5.73 426.06,5.75L365.09,-34.23C377.10,-46.80 394.59,-44.75 408.71,-35.49Z" fill="#ffffff" stroke="#000000"/>
    <path d="M-910.72,482.04L-910.72,492L-908.52,492L-908.52,488.92C-906.69,491.01 -903.46,492.38 -899.93,492.38C-893.09,492.38 -889.52,489.72 -889.52,484.89C-889.48,480.45 -892.33,477.45 -900.19,476.80C-906.05,476.31 -907.11,475.09 -907.11,473.38C-907.11,471.44 -905.63,469.54 -900.50,469.54C-896.09,469.54 -894.23,471.10 -892.86,472.24L-890.66,472.24L-890.66,463.88L-892.86,463.88L-892.86,466.73C-894.34,464.72 -897.15,463.12 -900.57,463.12C-906.88,463.12 -910.49,466.65 -910.49,471.21C-910.49,476.04 -908.40,478.78 -900.42,479.38C-895.25,479.76 -893.13,481.25 -893.13,483.11C-893.13,485.20 -895.14,486.79 -900.31,486.79C-904.37,486.79 -907.41,484.67 -908.52,482.04ZM-867.89,492C-866.37,492 -865.31,491.47 -864.63,490.59L-864.63,485.88C-865.50,486.98 -866.45,487.33 -867.63,487.33C-868.54,487.33 -869.34,486.87 -869.64,486.00L-869.64,479.99C-869.64,472.96 -871.96,470.72 -877.13,470.72C-879.98,470.72 -882.37,471.59 -883.82,473.30L-883.66,478.21C-882.64,476.99 -880.74,475.96 -877.51,475.96C-873.94,475.96 -872.26,477.45 -872.07,481.02C-873.67,479.92 -876.33,479.57 -878.12,479.57C-882.64,479.57 -885.72,482.12 -885.72,486.11C-885.72,489.80 -883.13,492.38 -877.74,492.38C-875.27,492.38 -872.87,491.35 -871.58,489.95C-870.82,491.28 -869.53,492 -867.89,492ZM-877.70,487.63C-881.23,487.63 -882.75,486.68 -882.75,485.01C-882.75,483.26 -881.16,482.27 -877.43,482.27C-875.30,482.27 -873.59,482.84 -872.04,484.02L-872.04,485.96C-873.25,487.10 -875.34,487.63 -877.70,487.63ZM-851.63,492L-846.42,477.33L-843.46,477.33L-843.46,471.10L-853.11,471.10L-853.11,477.33L-850.98,477.33L-854.25,487.25L-857.90,477.33L-855.70,477.33L-855.70,471.10L-863.60,471.10L-863.60,477.33L-860.56,477.33L-855.24,492ZM-823.36,492C-821.84,492 -820.77,491.47 -820.09,490.59L-820.09,485.88C-820.96,486.98 -821.91,487.33 -823.09,487.33C-824.00,487.33 -824.80,486.87 -825.11,486.00L-825.11,479.99C-825.11,472.96 -827.42,470.72 -832.59,470.72C-835.44,470.72 -837.84,471.59 -839.28,473.30L-839.13,478.21C-838.10,476.99 -836.20,475.96 -832.97,475.96C-829.40,475.96 -827.73,477.45 -827.54,481.02C-829.13,479.92 -831.79,479.57 -833.58,479.57C-838.10,479.57 -841.18,482.12 -841.18,486.11C-841.18,489.80 -838.60,492.38 -833.20,492.38C-830.73,492.38 -828.34,491.35 -827.04,489.95C-826.28,491.28 -824.99,492 -823.36,492ZM-833.16,487.63C-836.70,487.63 -838.22,486.68 -838.22,485.01C-838.22,483.26 -836.62,482.27 -832.90,482.27C-830.77,482.27 -829.06,482.84 -827.50,484.02L-827.50,485.96C-828.72,487.10 -830.81,487.63 -833.16,487.63ZM-805.16,489.95L-806.18,486.11C-806.79,486.79 -808.08,487.33 -809.68,487.29C-811.54,487.25 -812.83,486.30 -812.83,483.56L-812.83,477.41L-807.13,477.41L-807.13,471.48L-812.83,471.48L-812.83,466.54L-815.30,466.54L-815.30,471.48L-818.30,471.48L-818.30,477.41L-815.30,477.41L-815.30,486.19C-815.30,490.78 -813.14,492.38 -810.17,492.38C-808.01,492.38 -805.84,491.47 -805.16,489.95ZM-785.74,487.21L-787.52,485.50C-788.63,487.02 -790.22,487.82 -793.57,487.78C-797.06,487.74 -799.30,486.53 -799.80,483.18L-785.13,483.18C-785.13,473.80 -788.40,470.72 -793.57,470.72C-798.13,470.72 -802.12,473.76 -802.12,481.85C-802.12,488.01 -799.19,492.38 -793.49,492.38C-789.80,492.38 -786.99,490.10 -785.74,487.21ZM-793.76,476.50C-789.88,476.50 -787.49,478.40 -787.49,480.71L-799.80,480.71C-799.27,477.83 -796.61,476.50 -793.76,476.50ZM-772.21,482.27L-772.21,479.46L-782.47,479.46L-782.47,482.27ZM-768.98,482.04L-768.98,492L-766.78,492L-766.78,488.92C-764.95,491.01 -761.72,492.38 -758.19,492.38C-751.35,492.38 -747.78,489.72 -747.78,484.89C-747.74,480.45 -750.59,477.45 -758.45,476.80C-764.31,476.31 -765.37,475.09 -765.37,473.38C-765.37,471.44 -763.89,469.54 -758.76,469.54C-754.35,469.54 -752.49,471.10 -751.12,472.24L-748.92,472.24L-748.92,463.88L-751.12,463.88L-751.12,466.73C-752.60,464.72 -755.41,463.12 -758.83,463.12C-765.14,463.12 -768.75,466.65 -768.75,471.21C-768.75,476.04 -766.66,478.78 -758.68,479.38C-753.51,479.76 -751.39,481.25 -751.39,483.11C-751.39,485.20 -753.40,486.79 -758.57,486.79C-762.63,486.79 -765.67,484.67 -766.78,482.04ZM-727.60,487.21L-729.38,485.50C-730.49,487.02 -732.08,487.82 -735.43,487.78C-738.92,487.74 -741.16,486.53 -741.66,483.18L-726.99,483.18C-726.99,473.80 -730.26,470.72 -735.43,470.72C-739.99,470.72 -743.98,473.76 -743.98,481.85C-743.98,488.01 -741.05,492.38 -735.35,492.38C-731.66,492.38 -728.85,490.10 -727.60,487.21ZM-735.62,476.50C-731.74,476.50 -729.35,478.40 -729.35,480.71L-741.66,480.71C-741.13,477.83 -738.47,476.50 -735.62,476.50ZM-723.38,486.60L-723.38,492.08C-722.32,492.04 -716.05,492.04 -713.92,492.08L-713.92,486.60L-717.34,486.60L-717.34,481.17C-717.34,478.51 -715.97,477.03 -714.11,477.03C-712.40,477.03 -711.49,477.45 -711.03,478.43L-709.59,472.13C-710.57,471.29 -711.45,470.72 -713.27,470.72C-714.83,470.72 -716.73,471.78 -717.60,474.06L-718.90,471.10L-723.38,471.10L-723.38,477.33C-722.47,477.33 -721.40,477.29 -719.85,477.33L-719.85,486.60ZM-699.33,465.06C-699.33,462.85 -700.54,461.98 -702.59,461.98C-704.87,461.98 -706.01,462.89 -706.01,465.06C-706.01,467.22 -704.80,468.25 -702.59,468.25C-700.62,468.25 -699.33,467.22 -699.33,465.06ZM-706.74,486.57L-706.74,492.04C-705.10,492 -703.54,492 -701.99,492L-700.66,492C-699.02,492 -697.39,492.04 -695.68,492.04L-695.68,486.57L-699.52,486.57L-699.52,471.86L-706.74,471.86L-706.74,478.09L-701.99,478.09L-701.99,486.57ZM-682.23,492L-682.23,486.53L-686.79,486.53L-686.79,478.09L-682.11,478.09L-682.11,471.86L-686.75,471.86C-687.13,469.09 -685.15,467.53 -683.02,467.53C-681.96,467.53 -681.12,467.76 -680.67,468.10L-680.36,463.20C-681.24,462.51 -682.30,461.98 -683.75,461.98C-687.36,461.98 -690.05,464.94 -689.29,471.86L-692.26,471.86L-692.26,478.09L-689.26,478.09L-689.26,486.53L-692.22,486.53L-692.22,492Z"/>
</svg>