<?xml version="1.0"?>
<svg xmlns="http://www.w3.org/2000/svg" width="1920" height="1080" viewBox="-960 -540 1920 1080">
    <path d="M-363.76,-388.32C-363.76,-380.54 -365.70,-369.71 -385.14,-328.04L-364.03,-328.04C-359.03,-356.10 -358.48,-375.54 -358.48,-389.70C-358.48,-406.92 -365.42,-415.53 -379.86,-415.53C-395.97,-415.53 -409.58,-405.26 -409.58,-378.04L-409.58,-239.72C-409.58,-215.83 -401.25,-207.22 -385.42,-207.22C-368.75,-207.22 -360.70,-227.22 -361.26,-253.61L-362.09,-287.21L-365.98,-287.21L-366.81,-254.44C-367.37,-236.66 -370.14,-226.11 -377.37,-226.11C-382.92,-226.11 -388.75,-229.16 -388.75,-249.16L-388.75,-380.82C-388.75,-390.54 -387.09,-396.65 -379.86,-396.65C-368.20,-396.65 -363.76,-394.43 -363.76,-388.32ZM-323.20,-412.76L-342.64,-412.76L-342.64,-210L-323.20,-210ZM-308.75,-398.59L-279.31,-398.59L-279.31,-412.76L-308.75,-412.76ZM-284.31,-376.65L-303.75,-376.65L-303.75,-210L-284.31,-210ZM-215.14,-330.82L-211.26,-358.04C-209.31,-371.93 -215.98,-379.43 -224.87,-379.43C-234.87,-379.43 -243.48,-372.48 -249.31,-330.82L-252.09,-331.38L-245.42,-373.59L-245.42,-376.65L-264.86,-376.65L-264.86,-210L-245.42,-210L-245.42,-315.54C-245.42,-340.82 -239.59,-360.54 -233.20,-360.54C-229.03,-360.54 -227.92,-356.10 -227.92,-346.10L-227.92,-210L-208.48,-210L-208.48,-315.54C-208.48,-340.82 -202.65,-360.54 -196.26,-360.54C-192.09,-360.54 -190.98,-356.10 -190.98,-346.10L-190.98,-210L-171.54,-210L-171.54,-356.93C-171.54,-370.82 -178.48,-379.43 -187.93,-379.43C-197.92,-379.43 -206.53,-372.48 -212.37,-330.27ZM-123.75,-379.43C-141.25,-379.43 -154.86,-359.15 -154.86,-341.65C-154.86,-328.88 -153.20,-313.05 -147.64,-299.71L-120.98,-299.71C-143.75,-322.77 -148.47,-333.04 -148.47,-344.71C-148.47,-354.43 -144.86,-360.54 -130.42,-360.54C-121.25,-360.54 -119.03,-358.32 -119.03,-349.43L-119.03,-298.05C-140.97,-277.49 -152.64,-268.61 -152.64,-246.11L-152.64,-226.94C-152.64,-213.61 -147.08,-207.22 -136.53,-207.22C-125.98,-207.22 -119.03,-213.89 -114.87,-255.27L-112.09,-254.72C-115.42,-215.28 -110.42,-207.22 -99.03,-207.22C-85.98,-207.22 -83.20,-220.55 -83.48,-238.05L-84.31,-285.55L-88.20,-285.55L-89.04,-236.94C-89.31,-227.78 -91.26,-226.11 -93.76,-226.11C-96.81,-226.11 -99.59,-227.78 -99.59,-242.77L-99.59,-356.65C-99.59,-370.82 -107.64,-379.43 -123.75,-379.43ZM-128.48,-227.50C-131.25,-227.50 -133.20,-229.16 -133.20,-234.16L-133.20,-261.94C-133.20,-273.60 -131.25,-280.27 -119.03,-292.21L-119.03,-269.99C-119.03,-244.44 -122.37,-227.50 -128.48,-227.50ZM-45.70,-362.48L-21.53,-362.48L-21.53,-376.65L-47.36,-376.65L-48.75,-378.87L-42.92,-414.70L-45.98,-415.53C-50.42,-408.87 -58.75,-405.54 -65.14,-404.15L-65.14,-376.65L-77.92,-376.65L-77.92,-362.48L-65.14,-362.48L-65.14,-239.72C-65.14,-215.83 -57.92,-207.22 -43.75,-207.22C-27.92,-207.22 -20.42,-226.11 -20.98,-250.83L-21.81,-287.21L-25.70,-287.21L-26.53,-251.66C-27.09,-233.05 -29.31,-226.11 -35.98,-226.11C-40.70,-226.11 -45.70,-229.16 -45.70,-249.16ZM47.08,-346.65C47.08,-370.82 39.02,-379.43 23.75,-379.43C7.08,-379.43 -5.70,-369.15 -5.70,-341.65L-5.70,-239.72C-5.70,-215.83 2.91,-207.22 19.86,-207.22C38.47,-207.22 47.35,-227.22 46.80,-253.61L45.97,-286.94L42.08,-286.94L41.24,-254.44C40.69,-236.66 37.08,-226.11 28.75,-226.11C20.97,-226.11 13.75,-229.16 13.75,-249.16L13.75,-302.21L47.08,-302.21ZM30.41,-337.49L30.41,-306.10L13.75,-306.10L13.75,-344.43C13.75,-354.43 15.14,-360.54 21.80,-360.54C27.36,-360.54 30.41,-357.76 30.41,-337.49ZM65.14,-210L90.14,-210C114.86,-210 129.30,-219.72 129.30,-245.00L129.30,-276.94C129.30,-296.10 126.24,-311.93 117.91,-318.04L99.30,-316.38L99.30,-319.16C114.02,-326.65 125.13,-336.93 125.13,-358.60L125.13,-377.76C125.13,-403.04 112.36,-412.76 90.14,-412.76L65.14,-412.76ZM91.25,-320.82L85.97,-318.60L85.97,-393.87L88.19,-393.87C100.13,-393.87 104.30,-388.87 104.30,-370.82L104.30,-341.93C104.30,-332.21 101.80,-325.54 91.25,-320.82ZM93.75,-312.49C103.47,-312.49 108.47,-306.66 108.47,-294.16L108.47,-251.94C108.47,-233.89 103.19,-228.89 88.19,-228.89L85.97,-228.89L85.97,-309.71C88.19,-311.38 90.69,-312.49 93.75,-312.49ZM175.14,-379.43C157.64,-379.43 144.03,-359.15 144.03,-341.65C144.03,-328.88 145.69,-313.05 151.25,-299.71L177.91,-299.71C155.14,-322.77 150.42,-333.04 150.42,-344.71C150.42,-354.43 154.03,-360.54 168.47,-360.54C177.63,-360.54 179.86,-358.32 179.86,-349.43L179.86,-298.05C157.91,-277.49 146.25,-268.61 146.25,-246.11L146.25,-226.94C146.25,-213.61 151.80,-207.22 162.36,-207.22C172.91,-207.22 179.86,-213.89 184.02,-255.27L186.80,-254.72C183.47,-215.28 188.47,-207.22 199.85,-207.22C212.91,-207.22 215.69,-220.55 215.41,-238.05L214.58,-285.55L210.69,-285.55L209.85,-236.94C209.58,-227.78 207.63,-226.11 205.13,-226.11C202.08,-226.11 199.30,-227.78 199.30,-242.77L199.30,-356.65C199.30,-370.82 191.24,-379.43 175.14,-379.43ZM170.41,-227.50C167.64,-227.50 165.69,-229.16 165.69,-234.16L165.69,-261.94C165.69,-273.60 167.64,-280.27 179.86,-292.21L179.86,-269.99C179.86,-244.44 176.52,-227.50 170.41,-227.50ZM280.97,-241.39C280.97,-265.55 244.03,-324.71 244.03,-348.32C244.03,-355.54 246.25,-360.54 255.41,-360.54C267.08,-360.54 271.52,-358.60 271.52,-353.60C271.52,-348.04 267.91,-339.99 255.41,-315.27L273.74,-315.27C276.24,-329.99 276.80,-342.76 276.80,-353.87C276.80,-371.09 269.86,-379.43 255.41,-379.43C238.75,-379.43 224.58,-369.71 224.58,-344.99C224.58,-314.99 261.52,-266.38 261.52,-238.89C261.52,-231.66 259.30,-226.11 250.14,-226.11C236.53,-226.11 231.25,-228.33 231.25,-233.33C231.25,-239.16 234.86,-248.05 249.02,-275.27L229.03,-275.27C227.08,-263.05 225.97,-247.22 225.97,-233.05C225.97,-215.83 233.75,-207.22 250.14,-207.22C266.80,-207.22 280.97,-217.50 280.97,-241.39ZM348.19,-346.65C348.19,-370.82 340.13,-379.43 324.86,-379.43C308.19,-379.43 295.42,-369.15 295.42,-341.65L295.42,-239.72C295.42,-215.83 304.03,-207.22 320.97,-207.22C339.58,-207.22 348.47,-227.22 347.91,-253.61L347.08,-286.94L343.19,-286.94L342.36,-254.44C341.80,-236.66 338.19,-226.11 329.86,-226.11C322.08,-226.11 314.86,-229.16 314.86,-249.16L314.86,-302.21L348.19,-302.21ZM331.52,-337.49L331.52,-306.10L314.86,-306.10L314.86,-344.43C314.86,-354.43 316.25,-360.54 322.91,-360.54C328.47,-360.54 331.52,-357.76 331.52,-337.49Z" fill="#ffffff" stroke="#000000"/>
    <path d="M-373.51,-374.16C-373.36,-366.47 -375.08,-355.71 -393.51,-314.09L-372.61,-314.50C-368.21,-342.37 -368.04,-361.62 -368.32,-375.64C-368.65,-392.69 -375.70,-401.07 -389.99,-400.79C-405.94,-400.48 -419.21,-390.04 -418.68,-363.10L-415.97,-226.19C-415.51,-202.54 -407.09,-194.18 -391.42,-194.49C-374.93,-194.82 -367.34,-214.77 -368.41,-240.88L-369.89,-274.13L-373.74,-274.05L-373.92,-241.59C-374.13,-223.99 -376.67,-213.49 -383.82,-213.35C-389.32,-213.24 -395.15,-216.15 -395.54,-235.94L-398.11,-366.25C-398.30,-375.87 -396.77,-381.96 -389.62,-382.10C-378.08,-382.32 -373.63,-380.21 -373.51,-374.16ZM-333.85,-399.15L-353.09,-398.77L-349.13,-198.08L-329.89,-198.46ZM-319.27,-385.41L-290.13,-385.99L-290.41,-400.01L-319.55,-399.43ZM-294.65,-364.17L-313.89,-363.79L-310.64,-198.84L-291.39,-199.22ZM-225.30,-320.16L-221.98,-347.18C-220.33,-360.96 -227.07,-368.25 -235.87,-368.08C-245.76,-367.88 -254.15,-360.84 -259.11,-319.49L-261.87,-319.99L-256.10,-361.91L-256.16,-364.93L-275.40,-364.55L-272.15,-199.60L-252.90,-199.98L-254.96,-304.45C-255.46,-329.46 -250.07,-349.10 -243.75,-349.22C-239.62,-349.30 -238.44,-344.93 -238.24,-335.03L-235.58,-200.32L-216.34,-200.70L-218.40,-305.17C-218.89,-330.19 -213.50,-349.82 -207.18,-349.94C-203.06,-350.03 -201.87,-345.65 -201.68,-335.75L-199.02,-201.04L-179.77,-201.42L-182.64,-346.85C-182.91,-360.60 -189.96,-368.99 -199.30,-368.80C-209.20,-368.61 -217.59,-361.57 -222.54,-319.66ZM-135.79,-370.06C-153.11,-369.71 -166.18,-349.38 -165.84,-332.06C-165.59,-319.41 -163.63,-303.77 -157.87,-290.69L-131.48,-291.21C-154.47,-313.58 -159.35,-323.66 -159.58,-335.21C-159.77,-344.83 -156.31,-350.95 -142.01,-351.23C-132.94,-351.41 -130.70,-349.25 -130.53,-340.46L-129.52,-289.60C-150.84,-268.82 -162.21,-259.80 -161.77,-237.53L-161.40,-218.56C-161.14,-205.36 -155.51,-199.15 -145.07,-199.36C-134.62,-199.56 -127.88,-206.30 -124.56,-247.34L-121.80,-246.84C-124.33,-207.74 -119.23,-199.87 -107.95,-200.09C-95.03,-200.34 -92.54,-213.59 -93.16,-230.91L-94.91,-277.90L-98.76,-277.83L-98.64,-229.70C-98.73,-220.62 -100.62,-218.94 -103.10,-218.89C-106.12,-218.83 -108.90,-220.42 -109.20,-235.27L-111.42,-347.98C-111.70,-362.01 -119.84,-370.37 -135.79,-370.06ZM-137.49,-219.58C-140.24,-219.53 -142.20,-221.14 -142.29,-226.09L-142.84,-253.58C-143.07,-265.13 -141.27,-271.76 -129.41,-283.82L-128.97,-261.83C-128.47,-236.54 -131.44,-219.70 -137.49,-219.58ZM-58.19,-354.81L-34.28,-355.28L-34.55,-369.30L-60.12,-368.80L-61.54,-370.97L-56.47,-406.55L-59.51,-407.31C-63.77,-400.63 -71.96,-397.17 -78.25,-395.67L-77.72,-368.45L-90.36,-368.20L-90.08,-354.18L-77.44,-354.43L-75.04,-232.92C-74.57,-209.27 -67.26,-200.89 -53.24,-201.17C-37.57,-201.48 -30.51,-220.32 -31.55,-244.78L-33.08,-280.77L-36.93,-280.70L-37.06,-245.49C-37.25,-227.06 -39.31,-220.15 -45.91,-220.02C-50.58,-219.92 -55.59,-222.85 -55.98,-242.64ZM33.94,-340.95C33.47,-364.87 25.33,-373.24 10.21,-372.94C-6.28,-372.61 -18.73,-362.19 -18.19,-334.97L-16.20,-234.08C-15.73,-210.43 -7.04,-202.08 9.73,-202.41C28.15,-202.78 36.55,-222.74 35.49,-248.85L34.01,-281.82L30.16,-281.75L29.97,-249.57C29.77,-231.96 26.40,-221.44 18.15,-221.28C10.46,-221.13 3.25,-224.01 2.86,-243.81L1.82,-296.31L34.81,-296.97ZM17.63,-331.55L18.24,-300.49L1.75,-300.16L1.00,-338.10C0.80,-348.00 2.06,-354.07 8.66,-354.20C14.15,-354.31 17.23,-351.62 17.63,-331.55ZM54.49,-206.05L79.23,-206.53C103.70,-207.02 117.81,-216.92 117.31,-241.94L116.69,-273.55C116.31,-292.52 112.98,-308.13 104.61,-314.02L86.23,-312.01L86.17,-314.76C100.60,-322.47 111.39,-332.86 110.97,-354.30L110.60,-373.27C110.10,-398.29 97.27,-407.66 75.27,-407.22L50.53,-406.74ZM78.17,-316.25L72.99,-313.95L71.52,-388.45L73.72,-388.49C85.54,-388.73 89.76,-383.86 90.11,-365.99L90.68,-337.40C90.87,-327.77 88.52,-321.13 78.17,-316.25ZM80.81,-308.05C90.43,-308.24 95.49,-302.56 95.73,-290.19L96.56,-248.40C96.91,-230.54 91.79,-225.48 76.94,-225.19L74.74,-225.15L73.16,-305.15C75.33,-306.84 77.78,-307.99 80.81,-308.05ZM160.06,-375.90C142.74,-375.55 129.66,-355.22 130.00,-337.90C130.25,-325.25 132.21,-309.61 137.97,-296.53L164.36,-297.05C141.37,-319.42 136.50,-329.50 136.27,-341.05C136.08,-350.67 139.53,-356.79 153.83,-357.07C162.90,-357.25 165.14,-355.09 165.32,-346.30L166.32,-295.44C145.00,-274.66 133.63,-265.64 134.07,-243.37L134.44,-224.40C134.70,-211.20 140.33,-204.99 150.77,-205.20C161.22,-205.40 167.96,-212.14 171.28,-253.18L174.04,-252.68C171.51,-213.58 176.62,-205.71 187.89,-205.93C200.81,-206.18 203.30,-219.43 202.68,-236.75L200.93,-283.74L197.08,-283.67L197.21,-235.54C197.11,-226.46 195.22,-224.77 192.74,-224.73C189.72,-224.67 186.94,-226.26 186.64,-241.11L184.42,-353.82C184.14,-367.84 176.00,-376.21 160.06,-375.90ZM158.35,-225.42C155.60,-225.37 153.65,-226.98 153.55,-231.93L153.00,-259.42C152.78,-270.97 154.57,-277.60 166.43,-289.66L166.87,-267.67C167.37,-242.38 164.40,-225.54 158.35,-225.42ZM267.51,-241.33C267.03,-265.25 229.31,-323.08 228.85,-346.45C228.71,-353.60 230.81,-358.59 239.89,-358.77C251.43,-359.00 255.87,-357.16 255.97,-352.21C256.07,-346.71 252.66,-338.67 240.77,-313.96L258.91,-314.32C261.10,-328.94 261.40,-341.59 261.18,-352.59C260.85,-369.63 253.81,-377.75 239.52,-377.46C223.02,-377.14 209.19,-367.24 209.67,-342.77C210.26,-313.08 247.77,-265.69 248.31,-238.47C248.45,-231.33 246.36,-225.78 237.29,-225.61C223.82,-225.34 218.55,-227.44 218.45,-232.38C218.34,-238.16 221.74,-247.03 235.23,-274.24L215.43,-273.85C213.75,-261.72 212.96,-246.03 213.23,-232.01C213.57,-214.96 221.44,-206.59 237.66,-206.91C254.15,-207.24 267.97,-217.69 267.51,-241.33ZM331.99,-346.84C331.51,-370.75 323.37,-379.12 308.25,-378.82C291.76,-378.49 279.31,-368.07 279.85,-340.86L281.84,-239.96C282.31,-216.32 291.00,-207.96 307.77,-208.29C326.19,-208.66 334.59,-228.63 333.53,-254.73L332.05,-287.71L328.20,-287.63L328.01,-255.45C327.81,-237.84 324.44,-227.33 316.20,-227.16C308.50,-227.01 301.29,-229.89 300.90,-249.69L299.86,-302.20L332.85,-302.85ZM315.67,-337.44L316.28,-306.37L299.79,-306.05L299.04,-343.99C298.84,-353.88 300.10,-359.96 306.70,-360.09C312.20,-360.20 315.27,-357.51 315.67,-337.44Z" fill="#ffffff" stroke="#000000"/>
    <path d="M-382.74,-359.85C-382.44,-352.23 -383.92,-341.55 -401.35,-300.00L-380.68,-300.81C-376.87,-328.48 -377.08,-347.54 -377.62,-361.41C-378.29,-378.27 -385.42,-386.44 -399.57,-385.88C-415.34,-385.25 -428.27,-374.66 -427.22,-348.01L-421.87,-212.56C-420.95,-189.17 -412.45,-181.06 -396.95,-181.67C-380.63,-182.32 -373.52,-202.21 -375.08,-228.03L-377.20,-260.91L-381.00,-260.76L-380.55,-228.63C-380.41,-211.20 -382.72,-200.76 -389.79,-200.48C-395.23,-200.27 -401.06,-203.03 -401.84,-222.62L-406.93,-351.54C-407.30,-361.05 -405.91,-367.10 -398.84,-367.38C-387.41,-367.83 -382.98,-365.83 -382.74,-359.85ZM-343.97,-385.35L-363.01,-384.60L-355.17,-186.05L-336.13,-186.80ZM-329.27,-372.04L-300.44,-373.17L-300.99,-387.05L-329.82,-385.91ZM-304.49,-351.49L-323.53,-350.74L-317.08,-187.55L-298.05,-188.31ZM-234.99,-309.29L-232.24,-336.10C-230.87,-349.77 -237.69,-356.86 -246.39,-356.51C-256.18,-356.13 -264.34,-348.99 -268.44,-307.97L-271.19,-308.41L-266.29,-350.01L-266.41,-353.00L-285.45,-352.25L-279.00,-189.06L-259.96,-189.81L-264.05,-293.16C-265.02,-317.91 -260.07,-337.45 -253.82,-337.70C-249.74,-337.86 -248.48,-333.55 -248.09,-323.76L-242.83,-190.49L-223.79,-191.24L-227.87,-294.59C-228.85,-319.34 -223.90,-338.88 -217.64,-339.12C-213.57,-339.29 -212.31,-334.98 -211.92,-325.19L-206.66,-191.91L-187.62,-192.67L-193.30,-336.55C-193.84,-350.14 -200.97,-358.31 -210.22,-357.94C-220.01,-357.56 -228.17,-350.42 -232.25,-308.86ZM-147.38,-360.42C-164.51,-359.75 -177.05,-339.37 -176.38,-322.23C-175.88,-309.72 -173.64,-294.28 -167.68,-281.44L-141.57,-282.47C-164.77,-304.17 -169.79,-314.05 -170.24,-325.47C-170.62,-334.99 -167.32,-341.11 -153.17,-341.67C-144.20,-342.03 -141.94,-339.94 -141.59,-331.23L-139.61,-280.92C-160.30,-259.94 -171.38,-250.79 -170.51,-228.75L-169.77,-209.99C-169.25,-196.93 -163.56,-190.89 -153.23,-191.30C-142.89,-191.71 -136.35,-198.50 -133.87,-239.19L-131.13,-238.75C-132.87,-200.00 -127.66,-192.31 -116.51,-192.75C-103.73,-193.26 -101.52,-206.42 -102.47,-223.54L-105.12,-270.02L-108.93,-269.87L-107.87,-222.24C-107.79,-213.25 -109.63,-211.55 -112.07,-211.45C-115.07,-211.33 -117.85,-212.86 -118.43,-227.54L-122.83,-339.06C-123.38,-352.93 -131.60,-361.05 -147.38,-360.42ZM-146.12,-211.47C-148.84,-211.36 -150.81,-212.92 -151.01,-217.81L-152.08,-245.01C-152.53,-256.43 -150.89,-263.04 -139.38,-275.20L-138.52,-253.45C-137.53,-228.42 -140.14,-211.70 -146.12,-211.47ZM-70.29,-346.85L-46.62,-347.79L-47.17,-361.66L-72.47,-360.66L-73.91,-362.78L-69.59,-398.09L-72.61,-398.79C-76.70,-392.09 -84.73,-388.50 -90.94,-386.90L-89.87,-359.97L-102.38,-359.48L-101.84,-345.61L-89.33,-346.10L-84.58,-225.88C-83.65,-202.49 -76.25,-194.34 -62.38,-194.89C-46.87,-195.50 -40.26,-214.29 -41.76,-238.47L-43.98,-274.07L-47.79,-273.92L-47.23,-239.07C-47.06,-220.83 -48.97,-213.94 -55.49,-213.68C-60.12,-213.50 -65.13,-216.30 -65.90,-235.88ZM21.17,-334.94C20.24,-358.60 12.02,-366.72 -2.94,-366.13C-19.26,-365.48 -31.37,-354.93 -30.31,-328.00L-26.37,-228.18C-25.44,-204.79 -16.68,-196.69 -0.09,-197.35C18.14,-198.07 26.07,-217.99 24.50,-243.81L22.40,-276.42L18.59,-276.27L19.03,-244.41C19.17,-226.98 16.05,-216.51 7.89,-216.19C0.27,-215.89 -6.92,-218.60 -7.69,-238.18L-9.74,-290.13L22.89,-291.42ZM5.21,-325.32L6.42,-294.58L-9.90,-293.94L-11.38,-331.47C-11.76,-341.26 -10.64,-347.30 -4.11,-347.56C1.33,-347.77 4.43,-345.17 5.21,-325.32ZM44.15,-201.82L68.62,-202.79C92.83,-203.74 106.60,-213.82 105.62,-238.57L104.38,-269.85C103.64,-288.62 100.04,-304.00 91.64,-309.66L73.49,-307.31L73.38,-310.03C87.50,-317.94 97.98,-328.44 97.15,-349.65L96.41,-368.42C95.43,-393.17 82.54,-402.19 60.78,-401.33L36.30,-400.37ZM65.43,-311.35L60.34,-308.97L57.43,-382.68L59.61,-382.76C71.30,-383.23 75.58,-378.49 76.28,-360.81L77.39,-332.53C77.77,-323.01 75.58,-316.38 65.43,-311.35ZM68.20,-303.29C77.72,-303.66 82.84,-298.15 83.32,-285.91L84.95,-244.56C85.65,-226.89 80.68,-221.79 65.99,-221.21L63.81,-221.12L60.69,-300.27C62.80,-301.98 65.20,-303.17 68.20,-303.29ZM145.31,-371.98C128.17,-371.31 115.63,-350.93 116.30,-333.79C116.80,-321.28 119.04,-305.84 125.00,-293.00L151.11,-294.03C127.91,-315.72 122.89,-325.61 122.44,-337.03C122.07,-346.55 125.37,-352.67 139.51,-353.23C148.48,-353.58 150.75,-351.49 151.09,-342.79L153.08,-292.47C132.39,-271.50 121.31,-262.34 122.18,-240.31L122.92,-221.55C123.43,-208.49 129.12,-202.45 139.45,-202.86C149.79,-203.27 156.33,-210.06 158.81,-250.75L161.55,-250.31C159.81,-211.56 165.02,-203.87 176.17,-204.31C188.96,-204.81 191.16,-217.98 190.21,-235.10L187.56,-281.58L183.75,-281.43L184.81,-233.80C184.90,-224.81 183.06,-223.11 180.61,-223.01C177.62,-222.89 174.83,-224.41 174.25,-239.10L169.85,-350.61C169.30,-364.49 161.08,-372.61 145.31,-371.98ZM146.56,-223.03C143.84,-222.92 141.87,-224.47 141.68,-229.37L140.60,-256.57C140.15,-267.99 141.80,-274.59 153.30,-286.76L154.16,-265.00C155.15,-239.98 152.54,-223.26 146.56,-223.03ZM254.28,-240.90C253.34,-264.56 214.88,-321.07 213.97,-344.18C213.69,-351.26 215.67,-356.24 224.65,-356.59C236.07,-357.04 240.50,-355.31 240.69,-350.42C240.91,-344.98 237.68,-336.95 226.40,-312.26L244.35,-312.97C246.23,-327.48 246.28,-340.01 245.85,-350.89C245.18,-367.76 238.06,-375.65 223.92,-375.09C207.60,-374.44 194.10,-364.38 195.06,-340.17C196.22,-310.80 234.27,-264.63 235.34,-237.70C235.62,-230.63 233.65,-225.10 224.68,-224.75C211.35,-224.22 206.10,-226.19 205.90,-231.09C205.68,-236.80 208.87,-245.64 221.69,-272.85L202.11,-272.07C200.68,-260.03 200.20,-244.48 200.75,-230.61C201.41,-213.75 209.36,-205.62 225.41,-206.25C241.73,-206.90 255.20,-217.51 254.28,-240.90ZM316.03,-346.58C315.10,-370.24 306.88,-378.36 291.92,-377.77C275.60,-377.13 263.49,-366.57 264.55,-339.64L268.49,-239.83C269.42,-216.44 278.18,-208.34 294.77,-208.99C312.99,-209.71 320.92,-229.64 319.36,-255.46L317.26,-288.06L313.45,-287.91L313.89,-256.06C314.03,-238.63 310.90,-228.15 302.74,-227.83C295.13,-227.53 287.94,-230.24 287.17,-249.83L285.11,-301.78L317.75,-303.06ZM300.07,-336.96L301.28,-306.23L284.96,-305.58L283.48,-343.12C283.09,-352.91 284.22,-358.95 290.75,-359.20C296.19,-359.42 299.28,-356.82 300.07,-336.96Z" fill="#ffffff" stroke="#000000"/>
    <path d="M-391.43,-345.38C-390.98,-337.85 -392.24,-327.25 -408.68,-285.79L-388.24,-287.00C-385.00,-314.45 -385.58,-333.31 -386.40,-347.03C-387.38,-363.70 -394.60,-371.64 -408.59,-370.81C-424.19,-369.89 -436.77,-359.15 -435.21,-332.80L-427.27,-198.86C-425.90,-175.73 -417.34,-167.87 -402.01,-168.78C-385.87,-169.74 -379.22,-189.57 -381.27,-215.08L-384.01,-247.58L-387.77,-247.36L-386.70,-215.57C-386.22,-198.33 -388.30,-187.95 -395.29,-187.53C-400.67,-187.21 -406.50,-189.84 -407.64,-209.20L-415.20,-336.68C-415.76,-346.10 -414.50,-352.11 -407.50,-352.52C-396.21,-353.19 -391.78,-351.30 -391.43,-345.38ZM-353.56,-371.37L-372.38,-370.26L-360.74,-173.93L-341.92,-175.04ZM-338.75,-358.49L-310.25,-360.18L-311.06,-373.89L-339.57,-372.20ZM-313.83,-338.64L-332.65,-337.53L-323.09,-176.16L-304.26,-177.28ZM-244.23,-298.24L-242.02,-324.82C-240.94,-338.38 -247.82,-345.25 -256.43,-344.74C-266.11,-344.17 -274.05,-336.95 -277.31,-296.28L-280.03,-296.65L-276.00,-337.92L-276.17,-340.88L-295.00,-339.76L-285.43,-178.39L-266.61,-179.51L-272.66,-281.71C-274.12,-306.18 -269.60,-325.61 -263.41,-325.98C-259.38,-326.22 -258.05,-321.98 -257.47,-312.30L-249.66,-180.51L-230.84,-181.63L-236.90,-283.83C-238.35,-308.30 -233.83,-327.73 -227.64,-328.10C-223.61,-328.34 -222.28,-324.10 -221.71,-314.42L-213.89,-182.63L-195.07,-183.75L-203.50,-326.02C-204.30,-339.47 -211.52,-347.41 -220.66,-346.87C-230.34,-346.29 -238.28,-339.07 -241.51,-297.86ZM-158.52,-350.55C-175.47,-349.54 -187.48,-329.13 -186.48,-312.19C-185.74,-299.81 -183.22,-284.58 -177.08,-271.99L-151.26,-273.52C-174.63,-294.54 -179.80,-304.22 -180.47,-315.51C-181.02,-324.92 -177.88,-331.05 -163.89,-331.88C-155.02,-332.40 -152.74,-330.38 -152.23,-321.77L-149.28,-272.02C-169.35,-250.86 -180.13,-241.58 -178.84,-219.80L-177.74,-201.24C-176.98,-188.33 -171.23,-182.46 -161.01,-183.07C-150.79,-183.67 -144.45,-190.53 -142.79,-230.84L-140.07,-230.46C-141.03,-192.08 -135.73,-184.57 -124.70,-185.22C-112.06,-185.97 -110.14,-199.04 -111.41,-215.97L-114.94,-261.91L-118.71,-261.69L-116.73,-214.57C-116.47,-205.68 -118.26,-203.96 -120.68,-203.81C-123.63,-203.64 -126.42,-205.09 -127.28,-219.61L-133.82,-329.88C-134.63,-343.60 -142.92,-351.47 -158.52,-350.55ZM-154.37,-203.16C-157.06,-203.00 -159.04,-204.51 -159.33,-209.35L-160.92,-236.24C-161.59,-247.54 -160.09,-254.10 -148.94,-266.37L-147.67,-244.85C-146.20,-220.11 -148.46,-203.52 -154.37,-203.16ZM-81.97,-338.62L-58.57,-340.01L-59.38,-353.73L-84.40,-352.24L-85.87,-354.32L-82.28,-389.34L-85.28,-389.98C-89.20,-383.27 -97.08,-379.56 -103.19,-377.85L-101.61,-351.22L-113.98,-350.49L-113.17,-336.77L-100.79,-337.51L-93.75,-218.63C-92.38,-195.50 -84.89,-187.58 -71.17,-188.39C-55.84,-189.30 -49.67,-208.02 -51.62,-231.93L-54.52,-267.11L-58.28,-266.89L-57.05,-232.41C-56.52,-214.36 -58.27,-207.51 -64.73,-207.13C-69.30,-206.86 -74.32,-209.53 -75.46,-228.89ZM8.77,-328.62C7.39,-352.02 -0.91,-359.89 -15.70,-359.01C-31.84,-358.06 -43.62,-347.37 -42.04,-320.75L-36.19,-222.05C-34.82,-198.92 -25.98,-191.07 -9.58,-192.05C8.44,-193.11 15.90,-212.99 13.85,-238.51L11.13,-270.73L7.36,-270.51L8.42,-238.99C8.90,-221.75 6.01,-211.32 -2.06,-210.84C-9.59,-210.40 -16.76,-212.94 -17.90,-232.31L-20.95,-283.67L11.33,-285.59ZM-6.84,-318.79L-5.03,-288.40L-21.17,-287.44L-23.37,-324.55C-23.95,-334.24 -22.95,-340.23 -16.50,-340.61C-11.12,-340.93 -8.00,-338.42 -6.84,-318.79ZM34.11,-197.33L58.31,-198.77C82.25,-200.19 95.67,-210.43 94.22,-234.90L92.39,-265.83C91.29,-284.39 87.42,-299.54 79.00,-304.98L61.08,-302.30L60.92,-304.99C74.74,-313.10 84.91,-323.69 83.67,-344.66L82.57,-363.22C81.12,-387.69 68.19,-396.37 46.67,-395.10L22.47,-393.66ZM53.03,-306.14L48.04,-303.69L43.72,-376.57L45.87,-376.70C57.44,-377.38 61.76,-372.78 62.80,-355.30L64.46,-327.33C65.01,-317.92 62.98,-311.32 53.03,-306.14ZM55.93,-298.22C65.34,-298.77 70.51,-293.41 71.23,-281.31L73.65,-240.43C74.69,-222.95 69.87,-217.81 55.34,-216.95L53.19,-216.82L48.55,-295.08C50.61,-296.82 52.97,-298.04 55.93,-298.22ZM130.89,-367.70C113.95,-366.70 101.93,-346.29 102.94,-329.34C103.67,-316.97 106.19,-301.74 112.34,-289.15L138.16,-290.68C114.78,-311.69 109.62,-321.37 108.95,-332.67C108.39,-342.08 111.54,-348.20 125.52,-349.03C134.40,-349.56 136.68,-347.54 137.19,-338.93L140.13,-289.17C120.07,-268.01 109.28,-258.74 110.57,-236.95L111.67,-218.40C112.44,-205.49 118.18,-199.62 128.40,-200.22C138.62,-200.83 144.97,-207.68 146.62,-248.00L149.35,-247.62C148.38,-209.24 153.69,-201.72 164.71,-202.38C177.35,-203.13 179.28,-216.20 178.00,-233.12L174.47,-279.06L170.71,-278.84L172.69,-231.73C172.95,-222.84 171.16,-221.11 168.74,-220.97C165.78,-220.79 162.99,-222.25 162.13,-236.77L155.60,-347.04C154.78,-360.75 146.49,-368.63 130.89,-367.70ZM135.04,-220.32C132.35,-220.16 130.37,-221.66 130.09,-226.50L128.49,-253.40C127.82,-264.69 129.32,-271.26 140.47,-283.53L141.75,-262.01C143.21,-237.27 140.96,-220.67 135.04,-220.32ZM241.29,-240.11C239.90,-263.51 200.74,-318.68 199.38,-341.54C198.97,-348.53 200.83,-353.50 209.71,-354.02C221.00,-354.69 225.42,-353.07 225.71,-348.23C226.03,-342.85 222.99,-334.84 212.31,-310.19L230.06,-311.24C231.63,-325.64 231.44,-338.04 230.80,-348.80C229.81,-365.47 222.61,-373.14 208.62,-372.31C192.49,-371.36 179.33,-361.13 180.75,-337.19C182.47,-308.15 221.03,-263.20 222.61,-236.58C223.02,-229.58 221.19,-224.08 212.32,-223.55C199.14,-222.77 193.90,-224.62 193.61,-229.46C193.28,-235.11 196.26,-243.92 208.42,-271.09L189.05,-269.94C187.87,-258.00 187.71,-242.60 188.52,-228.89C189.51,-212.21 197.53,-204.32 213.40,-205.26C229.54,-206.22 242.66,-216.98 241.29,-240.11ZM300.34,-345.90C298.95,-369.30 290.66,-377.18 275.87,-376.30C259.73,-375.34 247.95,-364.66 249.53,-338.03L255.38,-239.33C256.75,-216.20 265.58,-208.36 281.99,-209.33C300.01,-210.40 307.46,-230.27 305.41,-255.79L302.69,-288.02L298.93,-287.79L299.99,-256.28C300.47,-239.03 297.58,-228.61 289.51,-228.13C281.98,-227.68 274.81,-230.23 273.66,-249.59L270.62,-300.96L302.89,-302.87ZM284.73,-336.07L286.53,-305.68L270.39,-304.72L268.19,-341.84C267.62,-351.52 268.61,-357.52 275.07,-357.90C280.45,-358.22 283.57,-355.70 284.73,-336.07Z" fill="#ffffff" stroke="#000000"/>
    <path d="M-399.58,-330.78C-398.99,-323.34 -400.03,-312.82 -415.48,-271.48L-395.28,-273.08C-392.62,-300.30 -393.56,-318.95 -394.63,-332.51C-395.93,-348.99 -403.23,-356.70 -417.05,-355.61C-432.47,-354.39 -444.72,-343.53 -442.66,-317.48L-432.18,-185.10C-430.38,-162.24 -421.75,-154.63 -406.60,-155.83C-390.65,-157.09 -384.46,-176.84 -386.99,-202.05L-390.33,-234.15L-394.05,-233.86L-392.36,-202.43C-391.55,-185.38 -393.41,-175.06 -400.32,-174.52C-405.64,-174.10 -411.45,-176.58 -412.96,-195.72L-422.93,-321.71C-423.67,-331.01 -422.54,-336.99 -415.62,-337.54C-404.46,-338.42 -400.04,-336.63 -399.58,-330.78ZM-362.61,-357.24L-381.22,-355.77L-365.87,-161.73L-347.26,-163.20ZM-347.71,-344.78L-319.54,-347.01L-320.61,-360.57L-348.79,-358.34ZM-322.66,-325.63L-341.27,-324.16L-328.65,-164.67L-310.04,-166.15ZM-253.00,-287.01L-251.34,-313.35C-250.53,-326.79 -257.48,-333.46 -265.98,-332.79C-275.55,-332.03 -283.27,-324.74 -285.70,-284.42L-288.40,-284.74L-285.21,-325.65L-285.44,-328.58L-304.05,-327.10L-291.43,-167.62L-272.83,-169.09L-280.82,-270.10C-282.73,-294.29 -278.64,-313.60 -272.53,-314.08C-268.54,-314.40 -267.14,-310.23 -266.39,-300.66L-256.08,-170.42L-237.47,-171.89L-245.47,-272.89C-247.38,-297.08 -243.29,-316.40 -237.18,-316.88C-233.19,-317.20 -231.79,-313.03 -231.03,-303.46L-220.73,-173.21L-202.12,-174.68L-213.25,-315.30C-214.30,-328.59 -221.59,-336.30 -230.63,-335.59C-240.20,-334.83 -247.92,-327.53 -250.30,-286.69ZM-169.22,-340.45C-185.97,-339.12 -197.46,-318.69 -196.13,-301.94C-195.16,-289.71 -192.37,-274.69 -186.04,-262.35L-160.53,-264.37C-184.07,-284.71 -189.36,-294.18 -190.25,-305.35C-190.98,-314.65 -187.99,-320.77 -174.17,-321.87C-165.40,-322.56 -163.10,-320.60 -162.43,-312.10L-158.54,-262.92C-177.98,-241.59 -188.47,-232.20 -186.77,-210.67L-185.32,-192.33C-184.31,-179.57 -178.51,-173.88 -168.41,-174.68C-158.31,-175.48 -152.17,-182.38 -151.31,-222.30L-148.61,-221.98C-148.82,-183.98 -143.42,-176.65 -132.52,-177.52C-120.03,-178.50 -118.38,-191.47 -119.97,-208.20L-124.37,-253.59L-128.09,-253.29L-125.21,-206.71C-124.78,-197.92 -126.51,-196.18 -128.90,-195.99C-131.83,-195.76 -134.61,-197.14 -135.75,-211.50L-144.37,-320.48C-145.44,-334.03 -153.80,-341.67 -169.22,-340.45ZM-162.24,-194.69C-164.89,-194.48 -166.88,-195.93 -167.26,-200.71L-169.36,-227.29C-170.25,-238.46 -168.89,-244.98 -158.10,-257.34L-156.42,-236.07C-154.48,-211.62 -156.39,-195.15 -162.24,-194.69ZM-93.24,-330.14L-70.11,-331.97L-71.18,-345.53L-95.90,-343.57L-97.40,-345.59L-94.53,-380.32L-97.52,-380.89C-101.27,-374.17 -108.99,-370.35 -115.00,-368.54L-112.92,-342.22L-125.14,-341.26L-124.07,-327.70L-111.84,-328.67L-102.55,-211.18C-100.74,-188.32 -93.18,-180.63 -79.62,-181.70C-64.47,-182.90 -58.72,-201.54 -61.13,-225.16L-64.68,-259.91L-68.40,-259.62L-66.51,-225.53C-65.63,-207.68 -67.23,-200.87 -73.61,-200.36C-78.13,-200.01 -83.14,-202.55 -84.66,-221.69ZM-3.25,-322.01C-5.08,-345.14 -13.44,-352.77 -28.06,-351.61C-44.01,-350.35 -55.46,-339.55 -53.38,-313.23L-45.66,-215.68C-43.85,-192.82 -34.96,-185.23 -18.74,-186.52C-0.94,-187.93 6.06,-207.74 3.53,-232.95L0.21,-264.78L-3.51,-264.49L-1.85,-233.32C-1.04,-216.27 -3.69,-205.90 -11.67,-205.26C-19.11,-204.68 -26.25,-207.05 -27.77,-226.19L-31.78,-276.96L0.11,-279.48ZM-18.51,-311.98L-16.13,-281.94L-32.08,-280.68L-34.98,-317.36C-35.74,-326.93 -34.87,-332.89 -28.49,-333.39C-23.18,-333.81 -20.04,-331.38 -18.51,-311.98ZM24.38,-192.60L48.30,-194.50C71.96,-196.37 85.05,-206.76 83.13,-230.95L80.71,-261.52C79.26,-279.86 75.14,-294.78 66.70,-300.00L49.02,-296.99L48.81,-299.65C62.33,-307.94 72.18,-318.62 70.54,-339.35L69.09,-357.69C67.18,-381.88 54.22,-390.22 32.95,-388.54L9.03,-386.64ZM40.97,-300.64L36.09,-298.11L30.39,-370.15L32.52,-370.31C43.95,-371.22 48.32,-366.75 49.68,-349.47L51.87,-321.83C52.61,-312.52 50.72,-305.95 40.97,-300.64ZM44.00,-292.85C53.30,-293.59 58.53,-288.38 59.47,-276.42L62.67,-236.02C64.04,-218.74 59.37,-213.56 45.01,-212.42L42.88,-212.25L36.77,-289.61C38.77,-291.37 41.07,-292.62 44.00,-292.85ZM116.82,-363.07C100.07,-361.75 88.58,-341.31 89.91,-324.57C90.88,-312.34 93.67,-297.32 100.00,-284.98L125.51,-287.00C101.97,-307.33 96.67,-316.81 95.79,-327.98C95.06,-337.28 98.05,-343.40 111.87,-344.49C120.64,-345.19 122.94,-343.23 123.61,-334.72L127.50,-285.55C108.06,-264.22 97.57,-254.83 99.27,-233.30L100.72,-214.96C101.73,-202.20 107.53,-196.51 117.63,-197.30C127.73,-198.10 133.87,-205.01 134.73,-244.93L137.43,-244.61C137.22,-206.61 142.62,-199.28 153.51,-200.14C166.01,-201.13 167.66,-214.10 166.07,-230.83L161.67,-276.22L157.95,-275.92L160.83,-229.34C161.26,-220.55 159.53,-218.81 157.14,-218.62C154.21,-218.39 151.43,-219.77 150.29,-234.13L141.67,-343.11C140.60,-356.66 132.24,-364.29 116.82,-363.07ZM123.80,-217.32C121.15,-217.11 119.16,-218.56 118.78,-223.34L116.68,-249.92C115.79,-261.09 117.15,-267.61 127.94,-279.97L129.62,-258.70C131.56,-234.25 129.65,-217.78 123.80,-217.32ZM228.55,-238.98C226.72,-262.10 186.89,-315.93 185.10,-338.52C184.56,-345.43 186.31,-350.38 195.08,-351.08C206.24,-351.96 210.64,-350.44 211.02,-345.65C211.44,-340.34 208.59,-332.35 198.50,-307.75L216.05,-309.14C217.33,-323.41 216.89,-335.68 216.05,-346.32C214.75,-362.80 207.47,-370.25 193.65,-369.15C177.70,-367.89 164.88,-357.51 166.75,-333.86C169.02,-305.15 208.05,-261.43 210.14,-235.11C210.68,-228.20 208.98,-222.72 200.20,-222.03C187.18,-221.00 181.96,-222.72 181.58,-227.51C181.14,-233.09 183.92,-241.87 195.42,-268.99L176.28,-267.48C175.35,-255.63 175.48,-240.40 176.55,-226.84C177.86,-210.36 185.95,-202.71 201.63,-203.95C217.58,-205.21 230.36,-216.12 228.55,-238.98ZM284.91,-344.81C283.09,-367.94 274.73,-375.57 260.11,-374.41C244.16,-373.15 232.71,-362.35 234.79,-336.03L242.51,-238.48C244.32,-215.62 253.21,-208.03 269.42,-209.31C287.23,-210.72 294.22,-230.53 291.69,-255.74L288.37,-287.58L284.65,-287.28L286.31,-256.12C287.13,-239.07 284.47,-228.69 276.50,-228.06C269.06,-227.47 261.91,-229.85 260.40,-248.99L256.38,-299.76L288.28,-302.28ZM269.66,-334.78L272.04,-304.74L256.09,-303.48L253.19,-340.16C252.43,-349.73 253.30,-355.68 259.67,-356.19C264.99,-356.61 268.13,-354.18 269.66,-334.78Z" fill="#ffffff" stroke="#000000"/>
    <path d="M-407.19,-316.07C-406.46,-308.72 -407.28,-298.30 -421.77,-257.09L-401.81,-259.06C-399.71,-286.05 -401.00,-304.49 -402.33,-317.88C-403.94,-334.16 -411.31,-341.65 -424.97,-340.30C-440.20,-338.79 -452.10,-327.80 -449.55,-302.07L-436.61,-171.30C-434.37,-148.72 -425.69,-141.36 -410.72,-142.84C-394.97,-144.40 -389.22,-164.06 -392.22,-188.95L-396.15,-220.65L-399.83,-220.28L-397.55,-189.22C-396.41,-172.36 -398.05,-162.13 -404.87,-161.45C-410.12,-160.93 -415.92,-163.27 -417.80,-182.18L-430.12,-306.64C-431.03,-315.83 -430.03,-321.76 -423.20,-322.44C-412.17,-323.53 -407.76,-321.85 -407.19,-316.07ZM-371.13,-342.97L-389.51,-341.15L-370.54,-149.47L-352.16,-151.29ZM-356.15,-330.93L-328.32,-333.69L-329.64,-347.08L-357.48,-344.33ZM-330.99,-312.48L-349.37,-310.66L-333.77,-153.11L-315.39,-154.93ZM-261.31,-275.63L-260.19,-301.72C-259.65,-315.03 -266.65,-321.50 -275.05,-320.67C-284.51,-319.73 -292.00,-312.36 -293.61,-272.43L-296.29,-272.69L-293.94,-313.23L-294.22,-316.12L-312.61,-314.30L-297.01,-156.75L-278.63,-158.57L-288.51,-258.35C-290.87,-282.25 -287.20,-301.43 -281.16,-302.03C-277.22,-302.42 -275.76,-298.32 -274.82,-288.87L-262.08,-160.21L-243.70,-162.03L-253.58,-261.81C-255.95,-285.70 -252.28,-304.89 -246.24,-305.49C-242.30,-305.88 -240.84,-301.78 -239.90,-292.33L-227.16,-163.67L-208.78,-165.49L-222.53,-304.39C-223.83,-317.52 -231.20,-325.01 -240.13,-324.12C-249.58,-323.19 -257.07,-315.82 -258.64,-275.36ZM-179.46,-330.13C-196.01,-328.49 -206.98,-308.05 -205.34,-291.51C-204.14,-279.43 -201.08,-264.62 -194.59,-252.54L-169.38,-255.03C-193.07,-274.69 -198.49,-283.97 -199.58,-295.00C-200.49,-304.19 -197.65,-310.30 -184.00,-311.65C-175.33,-312.51 -173.02,-310.62 -172.19,-302.21L-167.38,-253.64C-186.20,-232.15 -196.40,-222.66 -194.29,-201.39L-192.50,-183.27C-191.25,-170.67 -185.40,-165.15 -175.43,-166.14C-165.45,-167.12 -159.51,-174.08 -159.44,-213.59L-156.76,-213.33C-156.22,-175.73 -150.74,-168.58 -139.98,-169.65C-127.64,-170.87 -126.26,-183.73 -128.16,-200.25L-133.39,-245.07L-137.07,-244.71L-133.31,-198.68C-132.71,-189.99 -134.39,-188.23 -136.76,-188.00C-139.64,-187.71 -142.43,-189.02 -143.83,-203.20L-154.49,-310.86C-155.81,-324.25 -164.23,-331.64 -179.46,-330.13ZM-169.71,-186.06C-172.33,-185.80 -174.33,-187.19 -174.80,-191.92L-177.40,-218.18C-178.49,-229.20 -177.27,-235.69 -166.84,-248.12L-164.76,-227.12C-162.37,-202.96 -163.93,-186.63 -169.71,-186.06ZM-104.09,-321.42L-81.24,-323.68L-82.57,-337.07L-106.99,-334.65L-108.51,-336.63L-106.35,-371.04L-109.31,-371.55C-112.89,-364.83 -120.46,-360.90 -126.37,-358.99L-123.79,-332.99L-135.87,-331.80L-134.55,-318.40L-122.47,-319.60L-110.98,-203.54C-108.74,-180.96 -101.11,-173.49 -87.72,-174.82C-72.75,-176.30 -67.43,-194.86 -70.27,-218.18L-74.46,-252.50L-78.14,-252.13L-75.60,-218.44C-74.38,-200.80 -75.83,-194.03 -82.13,-193.40C-86.60,-192.96 -91.61,-195.38 -93.48,-214.29ZM-14.90,-315.14C-17.16,-337.98 -25.58,-345.37 -40.02,-343.94C-55.78,-342.38 -66.89,-331.47 -64.32,-305.47L-54.78,-209.10C-52.54,-186.52 -43.60,-179.19 -27.58,-180.77C-9.99,-182.52 -3.46,-202.25 -6.45,-227.15L-10.36,-258.58L-14.03,-258.21L-11.78,-227.41C-10.64,-210.56 -13.07,-200.24 -20.94,-199.46C-28.30,-198.73 -35.41,-200.95 -37.28,-219.85L-42.25,-270.00L-10.74,-273.12ZM-29.79,-304.91L-26.86,-275.24L-42.61,-273.68L-46.20,-309.92C-47.13,-319.37 -46.39,-325.28 -40.09,-325.90C-34.84,-326.42 -31.69,-324.08 -29.79,-304.91ZM14.97,-187.64L38.60,-189.98C61.97,-192.29 74.71,-202.83 72.35,-226.73L69.36,-256.92C67.56,-275.04 63.19,-289.72 54.74,-294.72L37.31,-291.40L37.05,-294.03C50.26,-302.50 59.80,-313.25 57.78,-333.73L55.98,-351.85C53.62,-375.74 40.63,-383.74 19.62,-381.66L-4.01,-379.32ZM29.28,-294.85L24.50,-292.26L17.45,-363.41L19.55,-363.62C30.84,-364.74 35.25,-360.40 36.94,-343.34L39.64,-316.03C40.55,-306.84 38.81,-300.30 29.28,-294.85ZM32.42,-287.21C41.61,-288.12 46.88,-283.07 48.05,-271.25L52.00,-231.34C53.69,-214.27 49.17,-209.05 34.99,-207.65L32.89,-207.44L25.33,-283.85C27.27,-285.64 29.53,-286.92 32.42,-287.21ZM103.10,-358.11C86.56,-356.47 75.59,-336.03 77.23,-319.48C78.42,-307.40 81.48,-292.59 87.98,-280.51L113.19,-283.01C89.50,-302.67 84.07,-311.94 82.98,-322.97C82.07,-332.16 84.91,-338.27 98.56,-339.63C107.23,-340.48 109.54,-338.59 110.37,-330.19L115.18,-281.61C96.36,-260.13 86.16,-250.63 88.27,-229.36L90.06,-211.25C91.31,-198.64 97.16,-193.12 107.14,-194.11C117.12,-195.10 123.06,-202.05 123.12,-241.56L125.80,-241.30C126.34,-203.70 131.82,-196.55 142.59,-197.62C154.93,-198.84 156.30,-211.71 154.40,-228.22L149.17,-273.05L145.50,-272.68L149.26,-226.65C149.85,-217.96 148.17,-216.20 145.81,-215.97C142.92,-215.68 140.14,-217.00 138.73,-231.18L128.07,-338.84C126.75,-352.23 118.33,-359.61 103.10,-358.11ZM112.85,-214.03C110.23,-213.77 108.23,-215.17 107.77,-219.89L105.17,-246.15C104.08,-257.18 105.29,-263.66 115.73,-276.10L117.80,-255.09C120.20,-230.93 118.63,-214.61 112.85,-214.03ZM216.07,-237.51C213.81,-260.35 173.35,-312.83 171.14,-335.14C170.46,-341.97 172.09,-346.91 180.76,-347.76C191.79,-348.86 196.17,-347.43 196.64,-342.71C197.16,-337.46 194.50,-329.50 185.00,-304.96L202.33,-306.68C203.31,-320.83 202.64,-332.96 201.60,-343.46C199.99,-359.74 192.65,-366.97 178.99,-365.62C163.24,-364.06 150.76,-353.54 153.07,-330.17C155.88,-301.82 195.35,-259.32 197.92,-233.33C198.60,-226.50 197.02,-221.04 188.35,-220.18C175.49,-218.91 170.29,-220.52 169.82,-225.24C169.28,-230.76 171.86,-239.50 182.70,-266.55L163.80,-264.68C163.10,-252.95 163.53,-237.88 164.86,-224.48C166.47,-208.21 174.63,-200.79 190.12,-202.33C205.88,-203.89 218.30,-214.93 216.07,-237.51ZM269.77,-343.32C267.51,-366.16 259.08,-373.55 244.64,-372.12C228.89,-370.56 217.77,-359.65 220.34,-333.65L229.89,-237.29C232.12,-214.70 241.07,-207.37 257.08,-208.96C274.68,-210.70 281.21,-230.44 278.21,-255.33L274.31,-286.76L270.63,-286.40L272.88,-255.60C274.02,-238.74 271.60,-228.42 263.72,-227.64C256.37,-226.92 249.25,-229.13 247.38,-248.03L242.42,-298.19L273.93,-301.31ZM254.87,-333.09L257.81,-303.42L242.05,-301.86L238.47,-338.10C237.53,-347.55 238.27,-353.46 244.57,-354.08C249.82,-354.60 252.97,-352.26 254.87,-333.09Z" fill="#ffffff" stroke="#000000"/>
    <path d="M-414.26,-301.26C-413.40,-294.01 -414.01,-283.68 -427.53,-242.63L-407.83,-244.97C-406.28,-271.72 -407.92,-289.92 -409.49,-303.15C-411.40,-319.22 -418.84,-326.49 -432.32,-324.88C-447.36,-323.09 -458.92,-311.99 -455.90,-286.58L-440.54,-157.47C-437.89,-135.18 -429.15,-128.07 -414.37,-129.82C-398.82,-131.67 -393.52,-151.24 -396.97,-175.80L-401.48,-207.08L-405.11,-206.65L-402.25,-175.96C-400.79,-159.31 -402.21,-149.15 -408.95,-148.35C-414.14,-147.73 -419.92,-149.93 -422.14,-168.60L-436.76,-291.49C-437.84,-300.56 -436.97,-306.45 -430.23,-307.25C-419.34,-308.55 -414.94,-306.97 -414.26,-301.26ZM-379.12,-328.58L-397.27,-326.42L-374.75,-137.17L-356.60,-139.33ZM-364.06,-316.97L-336.58,-320.24L-338.15,-333.46L-365.64,-330.19ZM-338.81,-299.20L-356.96,-297.04L-338.45,-141.49L-320.30,-143.64ZM-269.16,-264.10L-268.56,-289.94C-268.28,-303.12 -275.34,-309.38 -283.63,-308.39C-292.97,-307.28 -300.23,-299.84 -301.05,-260.31L-303.71,-260.52L-302.17,-300.67L-302.51,-303.52L-320.66,-301.36L-302.15,-145.80L-284.00,-147.96L-295.73,-246.48C-298.53,-270.07 -295.28,-289.13 -289.31,-289.84C-285.43,-290.30 -283.90,-286.28 -282.78,-276.94L-267.67,-149.91L-249.52,-152.07L-261.24,-250.58C-264.05,-274.18 -260.80,-293.23 -254.83,-293.94C-250.94,-294.40 -249.41,-290.38 -248.30,-281.04L-233.19,-154.01L-215.04,-156.17L-231.36,-293.31C-232.90,-306.28 -240.34,-313.54 -249.15,-312.49C-258.49,-311.38 -265.75,-303.95 -266.51,-263.89ZM-189.25,-319.62C-205.59,-317.68 -216.04,-297.24 -214.10,-280.91C-212.68,-268.98 -209.36,-254.39 -202.70,-242.56L-177.81,-245.52C-201.63,-264.51 -207.18,-273.58 -208.47,-284.47C-209.55,-293.54 -206.86,-299.65 -193.38,-301.25C-184.82,-302.27 -182.50,-300.44 -181.52,-292.15L-175.81,-244.18C-194.01,-222.56 -203.91,-212.97 -201.41,-191.97L-199.28,-174.08C-197.80,-161.64 -191.91,-156.29 -182.06,-157.46C-172.20,-158.64 -166.46,-165.63 -167.17,-204.72L-164.52,-204.51C-163.25,-167.33 -157.69,-160.36 -147.06,-161.63C-134.87,-163.08 -133.76,-175.83 -135.96,-192.13L-142.01,-236.37L-145.64,-235.94L-141.02,-190.48C-140.27,-181.89 -141.90,-180.12 -144.23,-179.84C-147.08,-179.50 -149.86,-180.75 -151.52,-194.75L-164.17,-301.05C-165.74,-314.27 -174.22,-321.41 -189.25,-319.62ZM-176.79,-177.28C-179.38,-176.98 -181.38,-178.31 -181.94,-182.98L-185.02,-208.91C-186.32,-219.80 -185.24,-226.23 -175.16,-238.74L-172.69,-218.00C-169.86,-194.15 -171.09,-177.96 -176.79,-177.28ZM-114.51,-312.48L-91.96,-315.16L-93.53,-328.38L-117.64,-325.51L-119.19,-327.43L-117.72,-361.52L-120.66,-361.96C-124.07,-355.25 -131.48,-351.21 -137.29,-349.20L-134.24,-323.54L-146.16,-322.12L-144.59,-308.90L-132.66,-310.32L-119.03,-195.72C-116.38,-173.43 -108.68,-166.19 -95.46,-167.77C-80.68,-169.52 -75.78,-187.99 -79.04,-211.00L-83.86,-244.87L-87.49,-244.44L-84.32,-211.16C-82.77,-193.73 -84.07,-187.00 -90.30,-186.26C-94.70,-185.74 -99.71,-188.03 -101.93,-206.70ZM-26.16,-308.00C-28.84,-330.56 -37.32,-337.70 -51.58,-336.00C-67.13,-334.15 -77.92,-323.14 -74.86,-297.47L-63.54,-202.33C-60.89,-180.03 -51.90,-172.95 -36.08,-174.83C-18.71,-176.90 -12.64,-196.55 -16.08,-221.12L-20.56,-252.14L-24.19,-251.71L-21.36,-221.28C-19.91,-204.63 -22.10,-194.37 -29.88,-193.45C-37.14,-192.58 -44.22,-194.63 -46.44,-213.30L-52.33,-262.82L-21.22,-266.52ZM-40.70,-297.59L-37.21,-268.30L-52.77,-266.45L-57.02,-302.22C-58.13,-311.56 -57.52,-317.42 -51.29,-318.16C-46.11,-318.77 -42.95,-316.52 -40.70,-297.59ZM5.88,-182.45L29.21,-185.23C52.28,-187.97 64.68,-198.65 61.88,-222.24L58.33,-252.06C56.20,-269.95 51.59,-284.38 43.14,-289.16L25.95,-285.54L25.64,-288.13C38.55,-296.77 47.78,-307.59 45.37,-327.82L43.24,-345.71C40.44,-369.30 27.43,-376.95 6.69,-374.49L-16.64,-371.71ZM17.94,-288.79L13.26,-286.13L4.90,-356.39L6.97,-356.64C18.12,-357.97 22.57,-353.76 24.57,-336.91L27.78,-309.95C28.86,-300.87 27.27,-294.37 17.94,-288.79ZM21.20,-281.29C30.27,-282.37 35.59,-277.49 36.97,-265.82L41.66,-226.41C43.67,-209.56 39.30,-204.31 25.30,-202.64L23.22,-202.39L14.25,-277.84C16.14,-279.64 18.35,-280.96 21.20,-281.29ZM89.73,-352.81C73.40,-350.87 62.95,-330.43 64.89,-314.10C66.31,-302.17 69.62,-287.58 76.29,-275.75L101.18,-278.72C77.36,-297.70 71.81,-306.77 70.52,-317.66C69.44,-326.74 72.13,-332.84 85.61,-334.44C94.16,-335.46 96.48,-333.63 97.47,-325.34L103.18,-277.38C84.98,-255.75 75.08,-246.16 77.58,-225.16L79.70,-207.27C81.19,-194.83 87.08,-189.48 96.93,-190.66C106.78,-191.83 112.52,-198.82 111.82,-237.91L114.47,-237.70C115.74,-200.52 121.30,-193.56 131.93,-194.82C144.12,-196.27 145.23,-209.02 143.03,-225.32L136.97,-269.57L133.34,-269.13L137.96,-223.67C138.72,-215.08 137.09,-213.31 134.76,-213.04C131.91,-212.70 129.13,-213.94 127.46,-227.94L114.82,-334.24C113.24,-347.46 104.77,-354.60 89.73,-352.81ZM102.20,-210.48C99.61,-210.17 97.61,-211.51 97.05,-216.17L93.97,-242.10C92.67,-252.99 93.75,-259.43 103.83,-271.93L106.29,-251.19C109.13,-227.34 107.90,-211.15 102.20,-210.48ZM203.85,-235.72C201.16,-258.27 160.11,-309.39 157.49,-331.43C156.69,-338.17 158.21,-343.08 166.76,-344.10C177.65,-345.40 182.02,-344.07 182.57,-339.41C183.19,-334.22 180.71,-326.30 171.79,-301.84L188.90,-303.88C189.60,-317.89 188.70,-329.88 187.47,-340.25C185.55,-356.33 178.15,-363.33 164.67,-361.73C149.11,-359.88 136.97,-349.23 139.71,-326.16C143.04,-298.16 182.92,-256.89 185.98,-231.22C186.78,-224.48 185.32,-219.05 176.77,-218.03C164.06,-216.52 158.89,-218.01 158.34,-222.68C157.69,-228.12 160.07,-236.82 170.27,-263.80L151.60,-261.58C151.15,-249.95 151.87,-235.05 153.44,-221.83C155.35,-205.76 163.57,-198.58 178.86,-200.40C194.42,-202.25 206.50,-213.42 203.85,-235.72ZM254.90,-341.44C252.22,-364.00 243.75,-371.14 229.49,-369.44C213.93,-367.59 203.15,-356.58 206.20,-330.91L217.52,-235.77C220.17,-213.47 229.17,-206.39 244.98,-208.27C262.35,-210.34 268.43,-229.99 264.98,-254.56L260.50,-285.58L256.87,-285.14L259.70,-254.72C261.16,-238.06 258.96,-227.81 251.18,-226.89C243.92,-226.02 236.84,-228.07 234.62,-246.74L228.73,-296.26L259.84,-299.96ZM240.37,-331.03L243.85,-301.74L228.30,-299.89L224.04,-335.66C222.93,-345.00 223.55,-350.86 229.77,-351.60C234.95,-352.21 238.11,-349.96 240.37,-331.03Z" fill="#ffffff" stroke="#000000"/>
    <path d="M-420.80,-286.38C-419.81,-279.22 -420.21,-268.99 -432.78,-228.12L-413.34,-230.83C-412.33,-257.31 -414.30,-275.29 -416.12,-288.34C-418.32,-304.20 -425.82,-311.24 -439.13,-309.39C-453.97,-307.33 -465.19,-296.12 -461.70,-271.05L-443.98,-143.63C-440.93,-121.63 -432.15,-114.77 -417.56,-116.79C-402.21,-118.93 -397.35,-138.38 -401.25,-162.62L-406.32,-193.47L-409.90,-192.97L-406.47,-162.67C-404.70,-146.23 -405.91,-136.15 -412.56,-135.22C-417.68,-134.51 -423.44,-136.58 -426.01,-155.00L-442.87,-276.27C-444.11,-285.23 -443.36,-291.07 -436.71,-291.99C-425.96,-293.49 -421.58,-292.01 -420.80,-286.38ZM-386.57,-314.09L-404.48,-311.60L-378.51,-124.83L-360.60,-127.32ZM-371.45,-302.89L-344.33,-306.66L-346.14,-319.71L-373.26,-315.94ZM-346.13,-285.81L-364.03,-283.32L-342.69,-129.81L-324.78,-132.30ZM-276.55,-252.45L-276.45,-278.03C-276.44,-291.07 -283.54,-297.12 -291.73,-295.98C-300.94,-294.70 -307.98,-287.20 -308.02,-248.08L-310.65,-248.23L-309.91,-287.98L-310.30,-290.79L-328.21,-288.30L-306.87,-134.79L-288.96,-137.28L-302.48,-234.51C-305.71,-257.79 -302.87,-276.70 -296.98,-277.52C-293.15,-278.05 -291.55,-274.10 -290.27,-264.89L-272.84,-139.52L-254.93,-142.01L-268.45,-239.24C-271.69,-262.52 -268.84,-281.43 -262.96,-282.25C-259.12,-282.78 -257.53,-278.83 -256.24,-269.62L-238.81,-144.26L-220.90,-146.75L-239.72,-282.09C-241.50,-294.88 -249.00,-301.92 -257.70,-300.71C-266.91,-299.43 -273.95,-291.93 -273.92,-252.30ZM-198.59,-308.93C-214.71,-306.69 -224.65,-286.27 -222.40,-270.15C-220.77,-258.38 -217.21,-244.01 -210.38,-232.45L-185.82,-235.86C-209.75,-254.18 -215.42,-263.04 -216.91,-273.79C-218.16,-282.74 -215.61,-288.83 -202.31,-290.68C-193.87,-291.85 -191.54,-290.09 -190.40,-281.91L-183.82,-234.57C-201.40,-212.83 -211.00,-203.15 -208.12,-182.43L-205.67,-164.77C-203.96,-152.49 -198.02,-147.32 -188.30,-148.67C-178.58,-150.02 -173.04,-157.05 -174.50,-195.71L-171.87,-195.55C-169.89,-158.79 -164.25,-152.02 -153.76,-153.47C-141.74,-155.15 -140.89,-167.78 -143.38,-183.86L-150.23,-227.51L-153.82,-227.01L-148.36,-182.13C-147.44,-173.65 -149.02,-171.87 -151.32,-171.55C-154.13,-171.16 -156.91,-172.34 -158.83,-186.15L-173.41,-291.05C-175.23,-304.10 -183.75,-311.00 -198.59,-308.93ZM-183.48,-168.38C-186.04,-168.02 -188.04,-169.31 -188.68,-173.92L-192.24,-199.50C-193.73,-210.25 -192.80,-216.63 -183.07,-229.20L-180.22,-208.73C-176.95,-185.20 -177.85,-169.16 -183.48,-168.38ZM-124.52,-303.32L-102.26,-306.42L-104.07,-319.47L-127.87,-316.16L-129.43,-318.03L-128.65,-351.78L-131.57,-352.15C-134.81,-345.44 -142.06,-341.31 -147.76,-339.21L-144.24,-313.88L-156.01,-312.24L-154.20,-299.20L-142.43,-300.83L-126.70,-187.75C-123.64,-165.75 -115.89,-158.74 -102.84,-160.55C-88.26,-162.58 -83.77,-180.94 -87.45,-203.64L-92.87,-237.05L-96.46,-236.55L-92.67,-203.69C-90.80,-186.48 -91.96,-179.80 -98.10,-178.95C-102.45,-178.34 -107.44,-180.52 -110.00,-198.94ZM-37.03,-300.62C-40.13,-322.88 -48.65,-329.78 -62.72,-327.82C-78.07,-325.69 -88.52,-314.59 -85.00,-289.26L-71.95,-195.36C-68.89,-173.36 -59.85,-166.53 -44.25,-168.70C-27.11,-171.08 -21.48,-190.64 -25.37,-214.88L-30.41,-245.47L-33.99,-244.97L-30.59,-214.93C-28.83,-198.49 -30.80,-188.30 -38.48,-187.24C-45.64,-186.24 -52.69,-188.13 -55.25,-206.55L-62.04,-255.42L-31.34,-259.69ZM-51.21,-290.04L-47.19,-261.13L-62.54,-259.00L-67.45,-294.31C-68.73,-303.52 -68.23,-309.32 -62.09,-310.18C-56.98,-310.89 -53.81,-308.72 -51.21,-290.04ZM-2.89,-177.06L20.13,-180.26C42.90,-183.43 54.96,-194.23 51.73,-217.51L47.63,-246.93C45.18,-264.59 40.34,-278.78 31.88,-283.34L14.95,-279.42L14.60,-281.98C27.20,-290.77 36.11,-301.66 33.34,-321.62L30.88,-339.27C27.65,-362.56 14.63,-369.87 -5.84,-367.03L-28.86,-363.83ZM6.96,-282.49L2.39,-279.76L-7.25,-349.10L-5.21,-349.38C5.79,-350.91 10.27,-346.84 12.58,-330.21L16.28,-303.60C17.53,-294.65 16.08,-288.19 6.96,-282.49ZM10.33,-275.13C19.29,-276.38 24.64,-271.64 26.24,-260.13L31.65,-221.24C33.96,-204.61 29.74,-199.33 15.92,-197.41L13.88,-197.12L3.52,-271.58C5.36,-273.40 7.52,-274.74 10.33,-275.13ZM76.73,-347.21C60.61,-344.97 50.67,-324.55 52.91,-308.43C54.55,-296.66 58.11,-282.29 64.94,-270.73L89.50,-274.14C65.57,-292.46 59.90,-301.32 58.41,-312.07C57.16,-321.02 59.70,-327.11 73.01,-328.96C81.45,-330.14 83.78,-328.37 84.92,-320.19L91.50,-272.85C73.92,-251.11 64.32,-241.43 67.20,-220.71L69.65,-203.05C71.36,-190.77 77.29,-185.60 87.02,-186.95C96.74,-188.30 102.28,-195.33 100.82,-233.99L103.45,-233.83C105.43,-197.07 111.07,-190.30 121.56,-191.75C133.58,-193.43 134.43,-206.06 131.93,-222.15L125.08,-265.79L121.50,-265.29L126.96,-220.41C127.88,-211.93 126.30,-210.15 124.00,-209.83C121.18,-209.44 118.41,-210.62 116.49,-224.43L101.91,-329.33C100.09,-342.38 91.57,-349.28 76.73,-347.21ZM91.84,-206.66C89.28,-206.30 87.28,-207.59 86.64,-212.20L83.08,-237.78C81.58,-248.53 82.52,-254.92 92.25,-267.48L95.10,-247.01C98.37,-223.48 97.47,-207.44 91.84,-206.66ZM191.89,-233.61C188.80,-255.87 147.20,-305.63 144.17,-327.38C143.25,-334.03 144.65,-338.92 153.10,-340.10C163.84,-341.59 168.18,-340.37 168.82,-335.76C169.54,-330.65 167.24,-322.77 158.89,-298.39L175.78,-300.74C176.20,-314.62 175.07,-326.46 173.65,-336.70C171.44,-352.56 163.98,-359.34 150.68,-357.49C135.33,-355.36 123.52,-344.59 126.69,-321.82C130.53,-294.19 170.78,-254.15 174.31,-228.82C175.23,-222.17 173.90,-216.77 165.45,-215.59C152.92,-213.85 147.77,-215.22 147.13,-219.82C146.38,-225.20 148.57,-233.85 158.13,-260.73L139.71,-258.17C139.49,-246.67 140.49,-231.94 142.30,-218.89C144.51,-203.03 152.78,-196.10 167.87,-198.19C183.22,-200.33 194.95,-211.61 191.89,-233.61ZM240.33,-339.19C237.24,-361.45 228.72,-368.35 214.64,-366.39C199.29,-364.25 188.84,-353.15 192.36,-327.82L205.42,-233.93C208.48,-211.92 217.51,-205.10 233.12,-207.27C250.26,-209.65 255.89,-229.21 251.99,-253.44L246.96,-284.04L243.38,-283.54L246.77,-253.50C248.54,-237.05 246.56,-226.87 238.89,-225.80C231.72,-224.81 224.68,-226.70 222.12,-245.12L215.32,-293.98L246.03,-298.25ZM226.16,-328.61L230.18,-299.70L214.83,-297.56L209.92,-332.87C208.64,-342.08 209.13,-347.89 215.27,-348.74C220.39,-349.45 223.56,-347.29 226.16,-328.61Z" fill="#ffffff" stroke="#000000"/>
    <path d="M-426.80,-271.44C-425.68,-264.37 -425.88,-254.25 -437.52,-213.58L-418.34,-216.64C-417.85,-242.85 -420.16,-260.59 -422.21,-273.46C-424.70,-289.11 -432.26,-295.93 -445.38,-293.84C-460.01,-291.51 -470.89,-280.20 -466.96,-255.47L-446.95,-129.80C-443.49,-108.10 -434.67,-101.48 -420.29,-103.77C-405.15,-106.18 -400.72,-125.52 -405.05,-149.41L-410.66,-179.82L-414.20,-179.26L-410.21,-149.36C-408.15,-133.13 -409.14,-123.14 -415.70,-122.10C-420.75,-121.29 -426.49,-123.22 -429.39,-141.39L-448.43,-261.01C-449.84,-269.84 -449.21,-275.63 -442.65,-276.68C-432.05,-278.37 -427.69,-276.99 -426.80,-271.44ZM-393.49,-299.51L-411.15,-296.70L-381.82,-112.48L-364.16,-115.30ZM-378.32,-288.73L-351.57,-292.99L-353.62,-305.86L-380.36,-301.60ZM-352.93,-272.33L-370.60,-269.52L-346.49,-118.11L-328.83,-120.92ZM-283.47,-240.70L-283.87,-265.99C-284.11,-278.89 -291.25,-284.74 -299.33,-283.45C-308.41,-282.01 -315.23,-274.45 -314.51,-235.76L-317.11,-235.86L-317.16,-275.18L-317.60,-277.96L-335.27,-275.14L-311.16,-123.73L-293.49,-126.55L-308.76,-222.44C-312.42,-245.40 -309.97,-264.16 -304.17,-265.09C-300.38,-265.69 -298.73,-261.81 -297.28,-252.73L-277.60,-129.08L-259.93,-131.89L-275.20,-227.78C-278.86,-250.75 -276.41,-269.51 -270.60,-270.43C-266.82,-271.03 -265.17,-267.16 -263.72,-258.07L-244.03,-134.42L-226.37,-137.23L-247.62,-270.73C-249.63,-283.35 -257.19,-290.16 -265.77,-288.80C-274.85,-287.35 -281.67,-279.80 -280.86,-240.60ZM-207.46,-298.08C-223.36,-295.55 -232.79,-275.16 -230.26,-259.26C-228.41,-247.65 -224.61,-233.51 -217.63,-222.20L-193.41,-226.06C-217.44,-243.71 -223.21,-252.36 -224.90,-262.96C-226.31,-271.79 -223.91,-277.87 -210.79,-279.96C-202.46,-281.28 -200.12,-279.58 -198.83,-271.51L-191.40,-224.82C-208.36,-202.98 -217.68,-193.21 -214.42,-172.77L-211.65,-155.36C-209.72,-143.25 -203.75,-138.25 -194.16,-139.77C-184.57,-141.30 -179.23,-148.36 -181.43,-186.57L-178.82,-186.46C-176.15,-150.15 -170.44,-143.55 -160.09,-145.20C-148.23,-147.09 -147.64,-159.60 -150.42,-175.46L-158.05,-218.49L-161.58,-217.93L-155.31,-173.65C-154.23,-165.28 -155.76,-163.48 -158.03,-163.12C-160.81,-162.68 -163.57,-163.79 -165.74,-177.42L-182.21,-280.88C-184.26,-293.75 -192.83,-300.41 -207.46,-298.08ZM-189.78,-159.36C-192.30,-158.96 -194.31,-160.19 -195.03,-164.73L-199.05,-189.97C-200.74,-200.57 -199.93,-206.91 -190.56,-219.53L-187.34,-199.34C-183.65,-176.12 -184.22,-160.25 -189.78,-159.36ZM-134.09,-293.98L-112.14,-297.47L-114.19,-310.34L-137.66,-306.61L-139.24,-308.43L-139.12,-341.82L-142.02,-342.14C-145.09,-335.44 -152.18,-331.20 -157.79,-329.02L-153.81,-304.04L-165.42,-302.19L-163.37,-289.32L-151.76,-291.17L-134.00,-179.63C-130.54,-157.92 -122.74,-151.15 -109.87,-153.20C-95.48,-155.49 -91.40,-173.73 -95.48,-196.11L-101.50,-229.05L-105.04,-228.48L-100.65,-196.06C-98.46,-179.07 -99.48,-172.44 -105.53,-171.48C-109.82,-170.80 -114.81,-172.85 -117.70,-191.02ZM-47.51,-293.01C-51.01,-314.97 -59.57,-321.63 -73.45,-319.42C-88.59,-317.01 -98.71,-305.82 -94.74,-280.84L-79.99,-188.23C-76.54,-166.52 -67.47,-159.95 -52.07,-162.40C-35.17,-165.09 -29.98,-184.54 -34.31,-208.44L-39.88,-238.60L-43.42,-238.04L-39.47,-208.39C-37.41,-192.16 -39.16,-182.05 -46.73,-180.84C-53.80,-179.72 -60.80,-181.45 -63.69,-199.62L-71.37,-247.82L-41.08,-252.64ZM-61.33,-282.28L-56.79,-253.76L-71.93,-251.35L-77.47,-286.17C-78.92,-295.26 -78.54,-301.01 -72.49,-301.98C-67.44,-302.78 -64.26,-300.70 -61.33,-282.28ZM-11.34,-171.47L11.38,-175.09C33.84,-178.66 45.55,-189.58 41.90,-212.55L37.27,-241.57C34.50,-258.98 29.44,-272.92 20.98,-277.27L4.32,-273.06L3.91,-275.59C16.20,-284.53 24.81,-295.47 21.68,-315.16L18.90,-332.57C15.25,-355.53 2.23,-362.52 -17.95,-359.30L-40.67,-355.69ZM-3.65,-275.94L-8.12,-273.15L-19.01,-341.54L-16.99,-341.86C-6.14,-343.59 -1.63,-339.65 0.98,-323.25L5.16,-297.00C6.57,-288.17 5.26,-281.75 -3.65,-275.94ZM-0.17,-268.73C8.66,-270.13 14.05,-265.56 15.86,-254.20L21.96,-215.84C24.58,-199.44 20.50,-194.13 6.88,-191.97L4.86,-191.64L-6.83,-265.08C-5.06,-266.91 -2.94,-268.28 -0.17,-268.73ZM64.09,-341.32C48.20,-338.79 38.76,-318.40 41.30,-302.50C43.14,-290.89 46.95,-276.75 53.92,-265.44L78.15,-269.29C54.12,-286.94 48.34,-295.60 46.66,-306.20C45.25,-315.03 47.65,-321.10 60.77,-323.19C69.10,-324.52 71.44,-322.82 72.72,-314.75L80.16,-268.06C63.19,-246.21 53.88,-236.45 57.14,-216.01L59.91,-198.60C61.84,-186.48 67.81,-181.48 77.40,-183.01C86.99,-184.54 92.33,-191.60 90.13,-229.80L92.73,-229.70C95.41,-193.38 101.12,-186.79 111.46,-188.43C123.32,-190.32 123.92,-202.84 121.14,-218.70L113.51,-261.73L109.98,-261.16L116.25,-216.88C117.32,-208.52 115.80,-206.72 113.53,-206.36C110.75,-205.92 107.99,-207.03 105.82,-220.66L89.34,-324.12C87.29,-336.99 78.73,-343.65 64.09,-341.32ZM81.78,-202.60C79.26,-202.20 77.25,-203.43 76.53,-207.97L72.51,-233.21C70.82,-243.80 71.62,-250.14 81.00,-262.76L84.21,-242.57C87.91,-219.36 87.33,-203.48 81.78,-202.60ZM180.22,-231.21C176.72,-253.16 134.60,-301.57 131.18,-323.02C130.14,-329.58 131.44,-334.44 139.76,-335.77C150.36,-337.46 154.68,-336.33 155.40,-331.79C156.21,-326.74 154.09,-318.90 146.31,-294.64L162.97,-297.29C163.11,-311.02 161.77,-322.71 160.16,-332.81C157.67,-348.45 150.15,-355.02 137.03,-352.93C121.89,-350.52 110.43,-339.64 114.00,-317.18C118.34,-289.92 158.94,-251.11 162.91,-226.12C163.96,-219.56 162.74,-214.19 154.42,-212.87C142.05,-210.90 136.93,-212.15 136.21,-216.70C135.37,-222.00 137.36,-230.59 146.29,-257.37L128.12,-254.48C128.13,-243.10 129.41,-228.55 131.46,-215.68C133.95,-200.04 142.26,-193.34 157.15,-195.71C172.29,-198.12 183.67,-209.51 180.22,-231.21ZM226.06,-336.57C222.57,-358.53 214.00,-365.19 200.13,-362.98C184.98,-360.56 174.86,-349.38 178.84,-324.40L193.59,-231.78C197.04,-210.08 206.11,-203.50 221.50,-205.95C238.41,-208.65 243.59,-228.10 239.27,-251.99L233.69,-282.16L230.16,-281.59L234.10,-251.95C236.17,-235.72 234.42,-225.61 226.85,-224.40C219.78,-223.28 212.78,-225.01 209.88,-243.18L202.21,-291.38L232.49,-296.20ZM212.25,-325.83L216.79,-297.32L201.65,-294.91L196.10,-329.73C194.66,-338.82 195.03,-344.57 201.09,-345.53C206.14,-346.34 209.32,-344.26 212.25,-325.83Z" fill="#ffffff" stroke="#000000"/>
    <path d="M-432.27,-256.45C-431.02,-249.49 -431.02,-239.47 -441.74,-199.03L-422.83,-202.42C-422.86,-228.35 -425.49,-245.86 -427.77,-258.54C-430.54,-273.97 -438.14,-280.56 -451.08,-278.24C-465.51,-275.65 -476.04,-264.26 -471.67,-239.88L-449.43,-115.99C-445.59,-94.59 -436.74,-88.22 -422.56,-90.77C-407.63,-93.45 -403.63,-112.65 -408.37,-136.20L-414.52,-166.17L-418.01,-165.54L-413.48,-136.05C-411.12,-120.04 -411.91,-110.14 -418.38,-108.98C-423.36,-108.09 -429.07,-109.88 -432.29,-127.80L-453.46,-245.72C-455.02,-254.42 -454.51,-260.16 -448.04,-261.32C-437.59,-263.20 -433.26,-261.92 -432.27,-256.45ZM-399.88,-284.87L-417.29,-281.74L-384.69,-100.13L-367.27,-103.26ZM-384.66,-274.50L-358.29,-279.23L-360.57,-291.92L-386.94,-287.19ZM-359.24,-258.78L-376.65,-255.65L-349.86,-106.39L-332.44,-109.51ZM-289.92,-228.85L-290.81,-253.86C-291.31,-266.61 -298.48,-272.25 -306.44,-270.82C-315.40,-269.22 -321.99,-261.61 -320.52,-223.36L-323.10,-223.41L-323.91,-262.29L-324.41,-265.03L-341.82,-261.90L-315.02,-112.64L-297.61,-115.77L-314.58,-210.30C-318.64,-232.94 -316.59,-251.54 -310.87,-252.57C-307.14,-253.24 -305.43,-249.43 -303.82,-240.48L-281.94,-118.58L-264.52,-121.71L-281.49,-216.24C-285.56,-238.88 -283.50,-257.48 -277.78,-258.51C-274.05,-259.18 -272.34,-255.37 -270.73,-246.42L-248.85,-124.52L-231.44,-127.64L-255.06,-259.25C-257.29,-271.69 -264.90,-278.28 -273.36,-276.76C-282.31,-275.16 -288.91,-267.55 -287.34,-228.80ZM-215.88,-287.08C-231.55,-284.27 -240.48,-263.92 -237.67,-248.25C-235.61,-236.80 -231.57,-222.89 -224.46,-211.84L-200.57,-216.13C-224.68,-233.12 -230.56,-241.56 -232.44,-252.01C-234.00,-260.72 -231.75,-266.77 -218.81,-269.09C-210.60,-270.57 -208.26,-268.93 -206.83,-260.97L-198.56,-214.95C-214.91,-193.01 -223.93,-183.18 -220.31,-163.02L-217.23,-145.86C-215.09,-133.92 -209.09,-129.09 -199.63,-130.79C-190.18,-132.48 -185.03,-139.57 -187.95,-177.31L-185.38,-177.26C-182.02,-141.39 -176.25,-134.98 -166.05,-136.82C-154.36,-138.91 -154.01,-151.30 -157.07,-166.93L-165.46,-209.34L-168.94,-208.71L-161.87,-165.04C-160.65,-156.79 -162.12,-154.98 -164.36,-154.58C-167.09,-154.09 -169.85,-155.14 -172.26,-168.57L-190.57,-270.57C-192.85,-283.25 -201.45,-289.67 -215.88,-287.08ZM-195.68,-150.24C-198.17,-149.80 -200.18,-150.98 -200.98,-155.45L-205.45,-180.33C-207.32,-190.78 -206.65,-197.06 -197.63,-209.73L-194.05,-189.82C-189.94,-166.94 -190.21,-151.22 -195.68,-150.24ZM-143.24,-284.46L-121.60,-288.34L-123.88,-301.03L-147.01,-296.88L-148.61,-298.64L-149.15,-331.67L-152.02,-331.93C-154.93,-325.24 -161.86,-320.92 -167.35,-318.65L-162.93,-294.02L-174.38,-291.96L-172.10,-279.28L-160.66,-281.33L-140.92,-171.37C-137.07,-149.98 -129.22,-143.43 -116.53,-145.70C-102.35,-148.25 -98.67,-166.37 -103.15,-188.42L-109.74,-220.88L-113.23,-220.25L-108.26,-188.28C-105.76,-171.52 -106.64,-164.94 -112.61,-163.87C-116.83,-163.11 -121.80,-165.04 -125.02,-182.96ZM-57.60,-285.19C-61.48,-306.84 -70.08,-313.25 -83.77,-310.80C-98.69,-308.12 -108.48,-296.86 -104.06,-272.23L-87.67,-180.93C-83.83,-159.54 -74.73,-153.21 -59.56,-155.93C-42.89,-158.92 -38.15,-178.27 -42.89,-201.81L-48.99,-231.53L-52.47,-230.90L-48.00,-201.66C-45.63,-185.65 -47.17,-175.62 -54.64,-174.28C-61.60,-173.03 -68.56,-174.60 -71.78,-192.51L-80.31,-240.03L-50.45,-245.39ZM-71.05,-274.30L-66.00,-246.19L-80.93,-243.51L-87.09,-277.84C-88.70,-286.80 -88.44,-292.50 -82.47,-293.57C-77.49,-294.46 -74.31,-292.47 -71.05,-274.30ZM-19.45,-165.70L2.94,-169.72C25.08,-173.69 36.46,-184.72 32.39,-207.36L27.26,-235.97C24.17,-253.14 18.89,-266.83 10.45,-270.96L-5.95,-266.47L-6.40,-268.96C5.58,-278.05 13.88,-289.04 10.39,-308.44L7.31,-325.61C3.25,-348.25 -9.76,-354.90 -29.66,-351.33L-52.05,-347.31ZM-13.88,-269.16L-18.25,-266.32L-30.36,-333.74L-28.37,-334.10C-17.67,-336.02 -13.13,-332.21 -10.23,-316.04L-5.59,-290.17C-4.02,-281.46 -5.19,-275.09 -13.88,-269.16ZM-10.30,-262.10C-1.60,-263.66 3.82,-259.24 5.83,-248.05L12.62,-210.23C15.52,-194.06 11.60,-188.74 -1.84,-186.32L-3.83,-185.97L-16.82,-258.36C-15.10,-260.21 -13.04,-261.61 -10.30,-262.10ZM51.83,-335.14C36.16,-332.33 27.23,-311.98 30.04,-296.31C32.10,-284.86 36.13,-270.95 43.25,-259.90L67.14,-264.19C43.03,-281.17 37.15,-289.62 35.27,-300.07C33.71,-308.78 35.96,-314.83 48.90,-317.15C57.11,-318.63 59.45,-316.99 60.88,-309.03L69.15,-263.01C52.80,-241.07 43.78,-231.23 47.39,-211.08L50.48,-193.92C52.62,-181.98 58.62,-177.15 68.08,-178.85C77.53,-180.54 82.68,-187.63 79.75,-225.37L82.33,-225.32C85.69,-189.45 91.46,-183.04 101.66,-184.87C113.35,-186.97 113.70,-199.36 110.64,-214.99L102.25,-257.40L98.77,-256.77L105.84,-213.10C107.06,-204.85 105.59,-203.04 103.35,-202.64C100.61,-202.15 97.86,-203.19 95.45,-216.63L77.14,-318.63C74.86,-331.31 66.26,-337.73 51.83,-335.14ZM72.03,-198.30C69.54,-197.85 67.53,-199.03 66.73,-203.51L62.26,-228.39C60.39,-238.84 61.06,-245.12 70.08,-257.78L73.66,-237.88C77.76,-214.99 77.50,-199.28 72.03,-198.30ZM168.82,-228.52C164.93,-250.16 122.33,-297.21 118.54,-318.35C117.38,-324.82 118.56,-329.66 126.77,-331.13C137.22,-333.01 141.51,-331.98 142.32,-327.50C143.21,-322.53 141.27,-314.73 134.05,-290.58L150.47,-293.53C150.34,-307.12 148.79,-318.65 147.00,-328.60C144.23,-344.02 136.67,-350.37 123.73,-348.05C108.81,-345.37 97.68,-334.38 101.66,-312.24C106.48,-285.38 147.38,-247.78 151.81,-223.15C152.97,-216.68 151.87,-211.35 143.66,-209.88C131.47,-207.69 126.39,-208.83 125.58,-213.31C124.64,-218.53 126.45,-227.07 134.76,-253.73L116.85,-250.52C117.07,-239.26 118.62,-224.90 120.90,-212.21C123.67,-196.79 132.02,-190.32 146.70,-192.96C161.62,-195.64 172.66,-207.12 168.82,-228.52ZM212.10,-333.61C208.22,-355.25 199.62,-361.67 185.93,-359.21C171.01,-356.54 161.22,-345.28 165.64,-320.65L182.03,-229.35C185.87,-207.95 194.97,-201.62 210.14,-204.35C226.81,-207.34 231.55,-226.68 226.81,-250.23L220.71,-279.95L217.23,-279.32L221.70,-250.08C224.06,-234.07 222.53,-224.03 215.06,-222.69C208.10,-221.44 201.14,-223.02 197.92,-240.93L189.39,-288.45L219.25,-293.81ZM198.65,-322.72L203.69,-294.61L188.77,-291.93L182.61,-326.26C181.00,-335.22 181.26,-340.91 187.23,-341.99C192.21,-342.88 195.39,-340.88 198.65,-322.72Z" fill="#ffffff" stroke="#000000"/>
    <path d="M-437.21,-241.44C-435.84,-234.58 -435.64,-224.67 -445.45,-184.47L-426.82,-188.20C-427.36,-213.84 -430.30,-231.10 -432.80,-243.60C-435.84,-258.79 -443.48,-265.17 -456.23,-262.62C-470.45,-259.78 -480.65,-248.31 -475.84,-224.28L-451.43,-102.21C-447.22,-81.13 -438.34,-75.00 -424.37,-77.80C-409.66,-80.74 -406.08,-99.81 -411.23,-123.00L-417.90,-152.51L-421.33,-151.82L-416.28,-122.75C-413.63,-106.97 -414.22,-97.16 -420.60,-95.89C-425.50,-94.91 -431.19,-96.57 -434.71,-114.22L-457.95,-230.41C-459.66,-238.99 -459.27,-244.68 -452.90,-245.95C-442.60,-248.01 -438.29,-246.83 -437.21,-241.44ZM-405.73,-270.17L-422.89,-266.74L-387.11,-87.80L-369.95,-91.23ZM-390.48,-260.22L-364.50,-265.41L-367.00,-277.91L-392.98,-272.72ZM-365.04,-245.17L-382.20,-241.73L-352.79,-94.66L-335.63,-98.09ZM-295.91,-216.93L-297.28,-241.63C-298.02,-254.23 -305.22,-259.68 -313.07,-258.11C-321.89,-256.34 -328.27,-248.70 -326.06,-210.90L-328.61,-210.90L-330.18,-249.33L-330.72,-252.03L-347.88,-248.60L-318.47,-101.52L-301.31,-104.96L-319.93,-198.10C-324.39,-220.41 -322.73,-238.84 -317.09,-239.97C-313.41,-240.70 -311.65,-236.98 -309.88,-228.15L-285.86,-108.04L-268.71,-111.47L-287.33,-204.62C-291.79,-226.93 -290.13,-245.36 -284.49,-246.49C-280.81,-247.22 -279.05,-243.50 -277.28,-234.67L-253.26,-114.56L-236.10,-117.99L-262.03,-247.66C-264.49,-259.92 -272.13,-266.29 -280.47,-264.63C-289.29,-262.86 -295.66,-255.21 -293.36,-216.93ZM-223.83,-275.95C-239.28,-272.86 -247.71,-252.57 -244.62,-237.12C-242.37,-225.85 -238.10,-212.17 -230.85,-201.39L-207.31,-206.09C-231.48,-222.42 -237.46,-230.65 -239.52,-240.95C-241.24,-249.53 -239.13,-255.56 -226.38,-258.11C-218.29,-259.72 -215.94,-258.16 -214.37,-250.31L-205.30,-204.96C-221.04,-182.95 -229.77,-173.05 -225.80,-153.19L-222.42,-136.28C-220.06,-124.52 -214.03,-119.86 -204.72,-121.72C-195.40,-123.58 -190.45,-130.69 -194.08,-167.95L-191.53,-167.95C-187.51,-132.55 -181.68,-126.33 -171.63,-128.34C-160.11,-130.64 -160.01,-142.90 -163.34,-158.29L-172.46,-200.06L-175.89,-199.37L-168.05,-156.33C-166.68,-148.19 -168.10,-146.38 -170.30,-145.94C-173.00,-145.40 -175.75,-146.38 -178.39,-159.62L-198.49,-260.12C-200.99,-272.62 -209.62,-278.79 -223.83,-275.95ZM-201.19,-141.04C-203.64,-140.55 -205.65,-141.67 -206.53,-146.09L-211.43,-170.60C-213.49,-180.89 -212.95,-187.12 -204.28,-199.82L-200.35,-180.21C-195.84,-157.66 -195.80,-142.11 -201.19,-141.04ZM-151.96,-274.77L-130.63,-279.04L-133.13,-291.54L-155.93,-286.98L-157.55,-288.70L-158.72,-321.35L-161.56,-321.54C-164.31,-314.88 -171.08,-310.46 -176.47,-308.11L-171.62,-283.84L-182.89,-281.59L-180.39,-269.09L-169.12,-271.34L-147.45,-163.00C-143.24,-141.92 -135.34,-135.59 -122.84,-138.09C-108.87,-140.89 -105.58,-158.88 -110.44,-180.60L-117.59,-212.56L-121.02,-211.87L-115.49,-180.35C-112.69,-163.83 -113.43,-157.31 -119.31,-156.13C-123.48,-155.30 -128.43,-157.12 -131.96,-174.76ZM-67.29,-277.17C-71.55,-298.50 -80.18,-304.68 -93.66,-301.98C-108.37,-299.04 -117.83,-287.72 -112.98,-263.45L-94.99,-173.49C-90.77,-152.41 -81.65,-146.33 -66.70,-149.32C-50.28,-152.60 -45.96,-171.82 -51.11,-195.01L-57.73,-224.28L-61.16,-223.59L-56.16,-194.76C-53.51,-178.98 -54.84,-169.03 -62.19,-167.56C-69.06,-166.18 -75.97,-167.61 -79.50,-185.25L-88.86,-232.07L-59.44,-237.96ZM-80.38,-266.14L-74.84,-238.45L-89.55,-235.50L-96.31,-269.33C-98.07,-278.16 -97.93,-283.79 -92.04,-284.97C-87.14,-285.95 -83.95,-284.04 -80.38,-266.14ZM-27.23,-159.76L-5.17,-164.17C16.65,-168.54 27.68,-179.66 23.22,-201.97L17.58,-230.16C14.20,-247.07 8.71,-260.51 0.27,-264.43L-15.85,-259.67L-16.34,-262.12C-4.68,-271.34 3.31,-282.37 -0.51,-301.49L-3.89,-318.40C-8.35,-340.71 -21.34,-347.03 -40.95,-343.11L-63.01,-338.70ZM-23.75,-262.17L-28.01,-259.28L-41.30,-325.71L-39.34,-326.10C-28.79,-328.21 -24.24,-324.53 -21.05,-308.60L-15.95,-283.11C-14.24,-274.53 -15.27,-268.20 -23.75,-262.17ZM-20.07,-255.26C-11.49,-256.98 -6.05,-252.71 -3.84,-241.68L3.61,-204.42C6.79,-188.49 3.02,-183.15 -10.22,-180.50L-12.18,-180.11L-26.44,-251.44C-24.78,-253.30 -22.77,-254.72 -20.07,-255.26ZM39.94,-328.70C24.50,-325.61 16.07,-305.31 19.16,-289.87C21.41,-278.60 25.68,-264.92 32.93,-254.13L56.46,-258.84C32.29,-275.16 26.31,-283.40 24.26,-293.70C22.54,-302.27 24.65,-308.30 37.39,-310.85C45.48,-312.47 47.84,-310.90 49.40,-303.06L58.47,-257.71C42.74,-235.70 34.01,-225.80 37.98,-205.94L41.36,-189.03C43.71,-177.26 49.74,-172.61 59.06,-174.47C68.37,-176.33 73.32,-183.44 69.70,-220.70L72.25,-220.70C76.27,-185.30 82.10,-179.08 92.15,-181.08C103.67,-183.39 103.77,-195.64 100.44,-211.04L91.32,-252.81L87.89,-252.12L95.73,-209.08C97.10,-200.94 95.68,-199.13 93.47,-198.68C90.78,-198.15 88.03,-199.13 85.39,-212.36L65.29,-312.86C62.79,-325.36 54.16,-331.54 39.94,-328.70ZM62.59,-193.78C60.14,-193.29 58.13,-194.42 57.25,-198.83L52.34,-223.35C50.29,-233.64 50.82,-239.87 59.50,-252.56L63.42,-232.95C67.93,-210.40 67.98,-194.86 62.59,-193.78ZM157.70,-225.55C153.44,-246.87 110.40,-292.57 106.23,-313.40C104.96,-319.78 106.04,-324.58 114.12,-326.20C124.42,-328.26 128.69,-327.32 129.57,-322.91C130.55,-318.01 128.78,-310.26 122.11,-286.24L138.29,-289.48C137.90,-302.91 136.14,-314.28 134.18,-324.09C131.14,-339.29 123.54,-345.41 110.79,-342.87C96.08,-339.92 85.30,-328.85 89.66,-307.03C94.95,-280.56 136.13,-244.18 140.99,-219.91C142.26,-213.54 141.28,-208.24 133.19,-206.63C121.18,-204.22 116.13,-205.25 115.25,-209.67C114.22,-214.81 115.84,-223.30 123.54,-249.82L105.89,-246.29C106.33,-235.16 108.14,-220.99 110.64,-208.49C113.68,-193.29 122.06,-187.07 136.52,-189.96C151.23,-192.90 161.92,-204.47 157.70,-225.55ZM198.45,-330.31C194.19,-351.64 185.56,-357.82 172.08,-355.12C157.37,-352.18 147.91,-340.86 152.76,-316.59L170.75,-226.63C174.97,-205.55 184.08,-199.47 199.04,-202.46C215.46,-205.74 219.77,-224.96 214.63,-248.15L208.01,-277.42L204.58,-276.73L209.58,-247.90C212.22,-232.12 210.90,-222.17 203.55,-220.70C196.68,-219.32 189.77,-220.75 186.24,-238.39L176.88,-285.21L206.29,-291.09ZM185.36,-319.28L190.90,-291.58L176.19,-288.64L169.43,-322.47C167.67,-331.30 167.81,-336.93 173.70,-338.11C178.60,-339.09 181.78,-337.18 185.36,-319.28Z" fill="#ffffff" stroke="#000000"/>
    <path d="M-908.57,461.18L-911.73,461.18L-911.73,492L-904.01,492L-904.01,489.26L-908.57,489.26ZM-894.09,471.23C-894.09,467.56 -895.31,466.25 -897.63,466.25C-900.16,466.25 -902.11,467.81 -902.11,471.99L-902.11,487.48C-902.11,491.11 -900.80,492.42 -898.22,492.42C-895.39,492.42 -894.04,489.38 -894.13,485.37L-894.25,480.31L-894.85,480.31L-894.97,485.25C-895.06,487.95 -895.61,489.55 -896.87,489.55C-898.05,489.55 -899.15,489.09 -899.15,486.05L-899.15,477.98L-894.09,477.98ZM-896.62,472.62L-896.62,477.39L-899.15,477.39L-899.15,471.57C-899.15,470.05 -898.94,469.12 -897.93,469.12C-897.08,469.12 -896.62,469.54 -896.62,472.62ZM-887.96,461.18L-891.13,461.18L-891.55,492L-888.22,492L-889.36,469.96L-888.93,469.96L-885.43,489.89L-884.46,489.89L-881.76,469.96L-881.29,469.96L-881.84,492L-878.59,492L-879.01,461.18L-881.67,461.18L-884.12,481.15L-884.59,481.15ZM-870.02,492L-867.06,492L-867.06,466.67L-870.02,466.67L-870.02,482.71C-870.02,486.64 -870.91,489.55 -872.09,489.55C-872.89,489.55 -873.10,488.88 -873.10,487.36L-873.10,466.67L-876.06,466.67L-876.06,489.00C-876.06,491.11 -874.92,492.42 -873.35,492.42C-871.75,492.42 -870.31,491.37 -869.43,485.03L-869.01,485.12L-870.02,491.54ZM-858.32,469.37C-857.56,469.37 -857.18,469.71 -857.18,470.47C-857.18,471.23 -858.07,473.04 -860.48,478.11L-857.27,478.11C-856.55,474.35 -856.42,471.52 -856.42,470.43C-856.42,467.64 -857.06,466.25 -858.32,466.25C-859.76,466.25 -860.81,467.30 -861.70,473.64L-862.12,473.55L-861.19,467.13L-861.19,466.67L-864.11,466.67L-864.11,492L-861.15,492L-861.15,475.87C-861.15,471.61 -859.67,469.37 -858.32,469.37ZM-846.97,473.64L-846.37,469.50C-846.08,467.39 -847.09,466.25 -848.44,466.25C-849.96,466.25 -851.27,467.30 -852.16,473.64L-852.58,473.55L-851.57,467.13L-851.57,466.67L-854.52,466.67L-854.52,492L-851.57,492L-851.57,475.96C-851.57,472.12 -850.68,469.12 -849.71,469.12C-849.08,469.12 -848.91,469.79 -848.91,471.31L-848.91,492L-845.95,492L-845.95,475.96C-845.95,472.12 -845.07,469.12 -844.09,469.12C-843.46,469.12 -843.29,469.79 -843.29,471.31L-843.29,492L-840.34,492L-840.34,469.67C-840.34,467.56 -841.39,466.25 -842.83,466.25C-844.35,466.25 -845.66,467.30 -846.54,473.72ZM-831.34,492L-828.39,492L-828.39,466.67L-831.34,466.67L-831.34,482.71C-831.34,486.64 -832.23,489.55 -833.41,489.55C-834.21,489.55 -834.42,488.88 -834.42,487.36L-834.42,466.67L-837.38,466.67L-837.38,489.00C-837.38,491.11 -836.24,492.42 -834.68,492.42C-833.07,492.42 -831.64,491.37 -830.75,485.03L-830.33,485.12L-831.34,491.54ZM-819.65,469.37C-818.89,469.37 -818.51,469.71 -818.51,470.47C-818.51,471.23 -819.39,473.04 -821.80,478.11L-818.59,478.11C-817.87,474.35 -817.75,471.52 -817.75,470.43C-817.75,467.64 -818.38,466.25 -819.65,466.25C-821.08,466.25 -822.14,467.30 -823.02,473.64L-823.45,473.55L-822.52,467.13L-822.52,466.67L-825.43,466.67L-825.43,492L-822.48,492L-822.48,475.87C-822.48,471.61 -821.00,469.37 -819.65,469.37ZM-807.83,471.23C-807.83,467.56 -809.05,466.25 -811.37,466.25C-813.90,466.25 -815.85,467.81 -815.85,471.99L-815.85,487.48C-815.85,491.11 -814.54,492.42 -811.96,492.42C-809.13,492.42 -807.78,489.38 -807.87,485.37L-807.99,480.31L-808.59,480.31L-808.71,485.25C-808.80,487.95 -809.35,489.55 -810.61,489.55C-811.79,489.55 -812.89,489.09 -812.89,486.05L-812.89,477.98L-807.83,477.98ZM-810.36,472.62L-810.36,477.39L-812.89,477.39L-812.89,471.57C-812.89,470.05 -812.68,469.12 -811.67,469.12C-810.82,469.12 -810.36,469.54 -810.36,472.62ZM-805.50,478.74L-798.41,478.74L-798.41,477.35L-805.50,477.35ZM-796.30,492L-793.13,492L-793.13,480.85C-791.82,480.26 -791.11,480.81 -790.94,481.87L-789.33,492L-786.12,492L-788.49,479.80L-791.06,480.14L-791.11,479.63C-788.66,478.49 -786.76,476.97 -786.76,473.64L-786.76,466.50C-786.76,462.66 -788.87,461.18 -792.50,461.18L-796.30,461.18ZM-792.33,479.38L-793.13,479.71L-793.13,464.05L-792.79,464.05C-790.68,464.05 -789.92,464.81 -789.92,467.56L-789.92,476.17C-789.92,477.65 -790.43,478.57 -792.33,479.38ZM-775.99,471.23C-775.99,467.56 -777.21,466.25 -779.54,466.25C-782.07,466.25 -784.01,467.81 -784.01,471.99L-784.01,487.48C-784.01,491.11 -782.70,492.42 -780.13,492.42C-777.30,492.42 -775.95,489.38 -776.03,485.37L-776.16,480.31L-776.75,480.31L-776.88,485.25C-776.96,487.95 -777.51,489.55 -778.78,489.55C-779.96,489.55 -781.06,489.09 -781.06,486.05L-781.06,477.98L-775.99,477.98ZM-778.52,472.62L-778.52,477.39L-781.06,477.39L-781.06,471.57C-781.06,470.05 -780.84,469.12 -779.83,469.12C-778.99,469.12 -778.52,469.54 -778.52,472.62ZM-764.63,472.45C-764.63,469.75 -766.24,468.19 -768.56,467.89L-768.56,467.39C-766.57,467.43 -765.10,468.02 -762.65,471.52L-762.65,466.67L-768.73,466.67C-771.22,466.67 -773.33,468.23 -773.33,472.37L-773.33,482.12C-773.33,484.27 -772.78,485.63 -771.77,486.39C-772.48,487.27 -773.71,488.33 -773.71,489.76C-773.71,490.86 -773.03,491.41 -772.06,491.66L-772.06,491.92C-773.20,492.42 -774.13,493.39 -774.13,494.91C-774.13,496.18 -773.12,497.49 -770.58,497.49C-767.08,497.49 -763.03,493.98 -763.03,491.75C-763.03,490.02 -764.25,489.13 -766.87,489.13L-771.34,489.13C-772.15,489.13 -772.40,488.92 -772.40,488.54C-772.40,488.12 -771.81,487.40 -771.09,486.72C-770.58,486.98 -769.95,487.06 -769.23,487.06C-766.74,487.06 -764.63,485.54 -764.63,481.57ZM-769.23,469.54C-768.39,469.54 -767.59,470.00 -767.59,473.04L-767.59,482.12C-767.59,483.60 -767.80,484.53 -768.73,484.53C-769.61,484.53 -770.37,484.06 -770.37,481.02L-770.37,471.95C-770.37,470.47 -770.16,469.54 -769.23,469.54ZM-771.77,493.22C-771.77,492.76 -771.56,492.34 -770.88,492L-766.87,492C-765.43,492 -765.10,492.59 -765.10,493.60C-765.10,494.45 -765.90,494.79 -767.84,494.79C-771.13,494.79 -771.77,494.07 -771.77,493.22ZM-755.13,492L-752.18,492L-752.18,466.67L-755.13,466.67L-755.13,482.71C-755.13,486.64 -756.02,489.55 -757.20,489.55C-758.00,489.55 -758.21,488.88 -758.21,487.36L-758.21,466.67L-761.17,466.67L-761.17,489.00C-761.17,491.11 -760.03,492.42 -758.47,492.42C-756.86,492.42 -755.43,491.37 -754.54,485.03L-754.12,485.12L-755.13,491.54ZM-746.26,461.18L-749.22,461.18L-749.22,492L-746.26,492ZM-739.00,466.25C-741.66,466.25 -743.73,469.33 -743.73,471.99C-743.73,473.93 -743.48,476.34 -742.63,478.36L-738.58,478.36C-742.04,474.86 -742.76,473.30 -742.76,471.52C-742.76,470.05 -742.21,469.12 -740.02,469.12C-738.62,469.12 -738.29,469.46 -738.29,470.81L-738.29,478.62C-741.62,481.74 -743.39,483.09 -743.39,486.51L-743.39,489.42C-743.39,491.45 -742.55,492.42 -740.94,492.42C-739.34,492.42 -738.29,491.41 -737.65,485.12L-737.23,485.20C-737.74,491.20 -736.98,492.42 -735.25,492.42C-733.26,492.42 -732.84,490.40 -732.88,487.74L-733.01,480.52L-733.60,480.52L-733.73,487.90C-733.77,489.30 -734.06,489.55 -734.44,489.55C-734.91,489.55 -735.33,489.30 -735.33,487.02L-735.33,469.71C-735.33,467.56 -736.55,466.25 -739.00,466.25ZM-739.72,489.34C-740.14,489.34 -740.44,489.09 -740.44,488.33L-740.44,484.11C-740.44,482.33 -740.14,481.32 -738.29,479.50L-738.29,482.88C-738.29,486.76 -738.79,489.34 -739.72,489.34ZM-724.99,469.37C-724.23,469.37 -723.85,469.71 -723.85,470.47C-723.85,471.23 -724.73,473.04 -727.14,478.11L-723.93,478.11C-723.21,474.35 -723.09,471.52 -723.09,470.43C-723.09,467.64 -723.72,466.25 -724.99,466.25C-726.42,466.25 -727.48,467.30 -728.36,473.64L-728.78,473.55L-727.86,467.13L-727.86,466.67L-730.77,466.67L-730.77,492L-727.81,492L-727.81,475.87C-727.81,471.61 -726.34,469.37 -724.99,469.37Z"/>
</svg>