<?xml version="1.0"?>
<svg xmlns="http://www.w3.org/2000/svg" width="1920" height="1080" viewBox="-960 -540 1920 1080">
    <path d="M-498.02,-210L-498.02,-366.25L-419.89,-366.25L-419.89,-358.44L-412.08,-358.44L-412.08,-350.63L-404.27,-350.63L-404.27,-342.81L-396.46,-342.81L-396.46,-303.75L-404.27,-303.75L-404.27,-288.13L-396.46,-288.13L-396.46,-280.31L-388.64,-280.31L-388.64,-233.44L-396.46,-233.44L-396.46,-225.63L-404.27,-225.63L-404.27,-217.81L-412.08,-217.81L-412.08,-210ZM-474.58,-233.44L-419.89,-233.44L-419.89,-241.25L-412.08,-241.25L-412.08,-272.50L-419.89,-272.50L-419.89,-280.31L-474.58,-280.31ZM-474.58,-303.75L-427.71,-303.75L-427.71,-311.56L-419.89,-311.56L-419.89,-335L-427.71,-335L-427.71,-342.81L-474.58,-342.81ZM-366.91,-241.25L-366.91,-295.94L-359.10,-295.94L-359.10,-311.56L-351.29,-311.56L-351.29,-319.38L-335.66,-319.38L-335.66,-327.19L-304.41,-327.19L-304.41,-319.38L-296.60,-319.38L-296.60,-311.56L-288.79,-311.56L-288.79,-327.19L-265.35,-327.19L-265.35,-210L-288.79,-210L-288.79,-225.63L-296.60,-225.63L-296.60,-217.81L-304.41,-217.81L-304.41,-210L-335.66,-210L-335.66,-217.81L-351.29,-217.81L-351.29,-225.63L-359.10,-225.63L-359.10,-241.25ZM-343.48,-241.25L-335.66,-241.25L-335.66,-233.44L-304.41,-233.44L-304.41,-241.25L-296.60,-241.25L-296.60,-249.06L-288.79,-249.06L-288.79,-288.13L-296.60,-288.13L-296.60,-295.94L-304.41,-295.94L-304.41,-303.75L-335.66,-303.75L-335.66,-295.94L-343.48,-295.94ZM-240.21,-225.63L-240.21,-327.19L-216.77,-327.19L-216.77,-241.25L-208.96,-241.25L-208.96,-233.44L-185.52,-233.44L-185.52,-241.25L-177.71,-241.25L-177.71,-249.06L-169.89,-249.06L-169.89,-327.19L-146.46,-327.19L-146.46,-210L-169.89,-210L-169.89,-225.63L-177.71,-225.63L-177.71,-217.81L-185.52,-217.81L-185.52,-210L-224.58,-210L-224.58,-217.81L-232.39,-217.81L-232.39,-225.63ZM-120.09,-210L-120.09,-366.25L-26.34,-366.25L-26.34,-342.81L-96.65,-342.81L-96.65,-303.75L-26.34,-303.75L-26.34,-280.31L-96.65,-280.31L-96.65,-233.44L-26.34,-233.44L-26.34,-210ZM1.01,-210L1.01,-327.19L24.44,-327.19L24.44,-311.56L32.26,-311.56L32.26,-319.38L40.07,-319.38L40.07,-327.19L71.32,-327.19L71.32,-319.38L79.13,-319.38L79.13,-311.56L86.94,-311.56L86.94,-295.94L79.13,-295.94L79.13,-288.13L71.32,-288.13L71.32,-295.94L63.51,-295.94L63.51,-303.75L40.07,-303.75L40.07,-295.94L32.26,-295.94L32.26,-288.13L24.44,-288.13L24.44,-210ZM103.30,-241.25L103.30,-295.94L111.11,-295.94L111.11,-311.56L118.93,-311.56L118.93,-319.38L134.55,-319.38L134.55,-327.19L165.80,-327.19L165.80,-319.38L173.61,-319.38L173.61,-311.56L181.43,-311.56L181.43,-366.25L204.86,-366.25L204.86,-210L181.43,-210L181.43,-225.63L173.61,-225.63L173.61,-217.81L165.80,-217.81L165.80,-210L134.55,-210L134.55,-217.81L118.93,-217.81L118.93,-225.63L111.11,-225.63L111.11,-241.25ZM126.74,-241.25L134.55,-241.25L134.55,-233.44L165.80,-233.44L165.80,-241.25L173.61,-241.25L173.61,-249.06L181.43,-249.06L181.43,-288.13L173.61,-288.13L173.61,-295.94L165.80,-295.94L165.80,-303.75L134.55,-303.75L134.55,-295.94L126.74,-295.94ZM229.52,-241.25L229.52,-295.94L237.33,-295.94L237.33,-311.56L245.15,-311.56L245.15,-319.38L260.77,-319.38L260.77,-327.19L292.02,-327.19L292.02,-319.38L307.65,-319.38L307.65,-311.56L315.46,-311.56L315.46,-295.94L323.27,-295.94L323.27,-264.69L252.96,-264.69L252.96,-241.25L260.77,-241.25L260.77,-233.44L292.02,-233.44L292.02,-241.25L299.83,-241.25L299.83,-249.06L323.27,-249.06L323.27,-233.44L315.46,-233.44L315.46,-225.63L307.65,-225.63L307.65,-217.81L292.02,-217.81L292.02,-210L260.77,-210L260.77,-217.81L245.15,-217.81L245.15,-225.63L237.33,-225.63L237.33,-241.25ZM252.96,-280.31L299.83,-280.31L299.83,-295.94L292.02,-295.94L292.02,-303.75L260.77,-303.75L260.77,-295.94L252.96,-295.94ZM346.46,-210L346.46,-327.19L369.90,-327.19L369.90,-311.56L377.71,-311.56L377.71,-319.38L385.53,-319.38L385.53,-327.19L408.96,-327.19L408.96,-319.38L424.59,-319.38L424.59,-311.56L432.40,-311.56L432.40,-295.94L440.21,-295.94L440.21,-210L416.78,-210L416.78,-295.94L408.96,-295.94L408.96,-303.75L385.53,-303.75L385.53,-295.94L377.71,-295.94L377.71,-288.13L369.90,-288.13L369.90,-210Z" fill="#ffffff" stroke="#000000"/>
    <path d="M-503.91,-192.49L-507.75,-347.13L-430.43,-349.05L-430.23,-341.31L-422.50,-341.51L-422.31,-333.77L-414.58,-333.97L-414.39,-326.23L-406.65,-326.43L-405.69,-287.77L-413.43,-287.57L-413.04,-272.11L-405.31,-272.30L-405.12,-264.57L-397.39,-264.76L-396.24,-218.37L-403.97,-218.18L-403.78,-210.45L-411.51,-210.25L-411.32,-202.52L-419.05,-202.33L-418.86,-194.60ZM-481.29,-216.26L-427.16,-217.60L-427.36,-225.33L-419.62,-225.53L-420.39,-256.45L-428.12,-256.26L-428.32,-263.99L-482.44,-262.65ZM-483.01,-285.85L-436.62,-287.00L-436.81,-294.73L-429.08,-294.92L-429.66,-318.12L-437.39,-317.93L-437.58,-325.66L-483.97,-324.51ZM-374.92,-226.64L-376.27,-280.76L-368.53,-280.95L-368.92,-296.42L-361.19,-296.61L-361.38,-304.34L-345.91,-304.72L-346.11,-312.46L-315.18,-313.22L-314.99,-305.49L-307.25,-305.68L-307.06,-297.95L-299.33,-298.14L-299.71,-313.61L-276.52,-314.18L-273.64,-198.20L-296.84,-197.63L-297.22,-213.09L-304.95,-212.90L-304.76,-205.17L-312.49,-204.97L-312.30,-197.24L-343.23,-196.48L-343.42,-204.21L-358.88,-203.82L-359.08,-211.56L-366.81,-211.36L-367.19,-226.83ZM-351.73,-227.21L-344.00,-227.40L-343.80,-219.67L-312.88,-220.44L-313.07,-228.17L-305.34,-228.36L-305.53,-236.09L-297.80,-236.29L-298.75,-274.95L-306.49,-274.75L-306.68,-282.49L-314.41,-282.29L-314.60,-290.03L-345.53,-289.26L-345.34,-281.53L-353.07,-281.34ZM-249.14,-214.28L-251.63,-314.80L-228.43,-315.38L-226.32,-230.32L-218.59,-230.52L-218.40,-222.78L-195.20,-223.36L-195.40,-231.09L-187.66,-231.28L-187.86,-239.01L-180.12,-239.21L-182.04,-316.53L-158.85,-317.10L-155.97,-201.12L-179.16,-200.55L-179.55,-216.01L-187.28,-215.82L-187.09,-208.09L-194.82,-207.89L-194.63,-200.16L-233.29,-199.20L-233.48,-206.94L-241.21,-206.74L-241.40,-214.48ZM-129.87,-201.77L-133.71,-356.41L-40.93,-358.71L-40.35,-335.52L-109.94,-333.79L-108.98,-295.13L-39.39,-296.86L-38.82,-273.66L-108.40,-271.93L-107.25,-225.54L-37.66,-227.27L-37.09,-204.07ZM-10.03,-204.74L-12.91,-320.72L10.29,-321.30L10.67,-305.84L18.41,-306.03L18.21,-313.76L25.95,-313.95L25.75,-321.68L56.68,-322.45L56.87,-314.72L64.61,-314.91L64.80,-307.18L72.53,-307.37L72.91,-291.91L65.18,-291.72L65.37,-283.98L57.64,-283.79L57.45,-291.52L49.72,-291.33L49.53,-299.06L26.33,-298.49L26.52,-290.76L18.79,-290.56L18.98,-282.83L11.25,-282.64L13.17,-205.32ZM90.45,-238.18L89.10,-292.31L96.84,-292.50L96.45,-307.96L104.18,-308.16L103.99,-315.89L119.46,-316.27L119.26,-324.00L150.19,-324.77L150.38,-317.04L158.12,-317.23L158.31,-309.50L166.04,-309.69L164.70,-363.82L187.89,-364.39L191.73,-209.75L168.53,-209.18L168.15,-224.64L160.42,-224.45L160.61,-216.72L152.88,-216.52L153.07,-208.79L122.14,-208.02L121.95,-215.76L106.49,-215.37L106.29,-223.10L98.56,-222.91L98.18,-238.38ZM113.64,-238.76L121.37,-238.95L121.57,-231.22L152.49,-231.99L152.30,-239.72L160.03,-239.91L159.84,-247.64L167.57,-247.84L166.61,-286.50L158.88,-286.30L158.69,-294.04L150.96,-293.84L150.77,-301.58L119.84,-300.81L120.03,-293.08L112.30,-292.88ZM215.37,-241.28L214.02,-295.41L221.76,-295.60L221.37,-311.06L229.10,-311.26L228.91,-318.99L244.38,-319.37L244.18,-327.10L275.11,-327.87L275.30,-320.14L290.77,-320.52L290.96,-312.79L298.69,-312.98L299.08,-297.52L306.81,-297.71L307.57,-266.78L237.99,-265.06L238.56,-241.86L246.29,-242.05L246.49,-234.32L277.41,-235.09L277.22,-242.82L284.95,-243.01L284.76,-250.74L307.96,-251.32L308.34,-235.86L300.61,-235.66L300.80,-227.93L293.07,-227.74L293.26,-220.01L277.80,-219.62L277.99,-211.89L247.06,-211.12L246.87,-218.86L231.41,-218.47L231.21,-226.20L223.48,-226.01L223.10,-241.48ZM237.60,-280.52L283.99,-281.67L283.61,-297.14L275.88,-296.94L275.69,-304.68L244.76,-303.91L244.95,-296.18L237.22,-295.98ZM331.87,-213.23L328.99,-329.21L352.19,-329.78L352.57,-314.32L360.31,-314.51L360.11,-322.24L367.85,-322.44L367.65,-330.17L390.85,-330.74L391.04,-323.01L406.51,-323.40L406.70,-315.66L414.43,-315.86L414.81,-300.39L422.55,-300.58L424.66,-215.53L401.46,-214.96L399.35,-300.01L391.62,-299.82L391.43,-307.55L368.23,-306.97L368.42,-299.24L360.69,-299.05L360.88,-291.32L353.15,-291.12L355.07,-213.80Z" fill="#ffffff" stroke="#000000"/>
    <path d="M-509.12,-174.88L-516.71,-327.82L-440.25,-331.62L-439.87,-323.97L-432.22,-324.35L-431.84,-316.70L-424.19,-317.08L-423.81,-309.43L-416.17,-309.81L-414.27,-271.58L-421.91,-271.20L-421.15,-255.91L-413.51,-256.29L-413.13,-248.64L-405.48,-249.02L-403.20,-203.14L-410.85,-202.76L-410.47,-195.11L-418.12,-194.73L-417.74,-187.09L-425.38,-186.71L-425.00,-179.06ZM-487.32,-198.96L-433.79,-201.62L-434.17,-209.27L-426.52,-209.65L-428.04,-240.23L-435.69,-239.85L-436.07,-247.50L-489.60,-244.84ZM-490.74,-267.78L-444.85,-270.06L-445.23,-277.71L-437.59,-278.09L-438.73,-301.03L-446.37,-300.65L-446.75,-308.30L-492.63,-306.02ZM-382.31,-211.84L-384.97,-265.37L-377.33,-265.75L-378.09,-281.04L-370.44,-281.42L-370.82,-289.07L-355.53,-289.83L-355.90,-297.48L-325.32,-298.99L-324.94,-291.35L-317.29,-291.73L-316.91,-284.08L-309.26,-284.46L-310.02,-299.75L-287.08,-300.89L-281.39,-186.19L-304.33,-185.05L-305.09,-200.35L-312.73,-199.97L-312.35,-192.32L-320.00,-191.94L-319.62,-184.29L-350.21,-182.77L-350.59,-190.42L-365.88,-189.66L-366.26,-197.31L-373.91,-196.93L-374.67,-212.22ZM-359.37,-212.98L-351.73,-213.36L-351.35,-205.71L-320.76,-207.23L-321.14,-214.88L-313.49,-215.26L-313.87,-222.91L-306.23,-223.29L-308.13,-261.52L-315.77,-261.14L-316.15,-268.79L-323.80,-268.41L-324.18,-276.05L-354.77,-274.54L-354.39,-266.89L-362.03,-266.51ZM-257.53,-202.71L-262.47,-302.12L-239.53,-303.26L-235.35,-219.14L-227.71,-219.52L-227.33,-211.87L-204.39,-213.01L-204.76,-220.66L-197.12,-221.04L-197.50,-228.69L-189.85,-229.07L-193.65,-305.53L-170.71,-306.67L-165.01,-191.97L-187.95,-190.83L-188.71,-206.13L-196.36,-205.75L-195.98,-198.10L-203.63,-197.72L-203.25,-190.07L-241.48,-188.17L-241.86,-195.82L-249.51,-195.44L-249.89,-203.09ZM-139.20,-193.25L-146.80,-346.19L-55.04,-350.75L-53.90,-327.81L-122.72,-324.39L-120.82,-286.15L-52.00,-289.57L-50.86,-266.63L-119.68,-263.21L-117.40,-217.33L-48.58,-220.75L-47.44,-197.81ZM-20.68,-199.14L-26.37,-313.84L-3.43,-314.98L-2.67,-299.69L4.97,-300.07L4.59,-307.71L12.24,-308.09L11.86,-315.74L42.45,-317.26L42.83,-309.61L50.47,-309.99L50.85,-302.35L58.50,-302.73L59.26,-287.43L51.61,-287.05L51.99,-279.41L44.35,-279.03L43.97,-286.67L36.32,-286.29L35.94,-293.94L13.00,-292.80L13.38,-285.15L5.73,-284.77L6.11,-277.13L-1.54,-276.75L2.26,-200.28ZM77.93,-234.70L75.27,-288.23L82.92,-288.61L82.16,-303.90L89.80,-304.28L89.42,-311.93L104.72,-312.69L104.34,-320.33L134.93,-321.85L135.31,-314.21L142.95,-314.59L143.33,-306.94L150.98,-307.32L148.32,-360.85L171.26,-361.99L178.86,-209.05L155.92,-207.91L155.16,-223.20L147.51,-222.82L147.89,-215.18L140.24,-214.80L140.62,-207.15L110.04,-205.63L109.66,-213.28L94.36,-212.52L93.98,-220.17L86.34,-219.79L85.58,-235.08ZM100.87,-235.84L108.52,-236.22L108.90,-228.57L139.48,-230.09L139.10,-237.74L146.75,-238.12L146.37,-245.76L154.02,-246.14L152.12,-284.38L144.47,-284.00L144.09,-291.65L136.44,-291.27L136.07,-298.91L105.48,-297.39L105.86,-289.75L98.21,-289.37ZM201.47,-240.84L198.81,-294.36L206.46,-294.74L205.70,-310.04L213.35,-310.42L212.97,-318.06L228.26,-318.82L227.88,-326.47L258.47,-327.99L258.85,-320.34L274.14,-321.10L274.52,-313.45L282.17,-313.83L282.93,-298.54L290.58,-298.92L292.10,-268.33L223.27,-264.92L224.41,-241.97L232.06,-242.35L232.44,-234.71L263.03,-236.23L262.65,-243.87L270.29,-244.25L269.91,-251.90L292.85,-253.04L293.61,-237.75L285.97,-237.37L286.35,-229.72L278.70,-229.34L279.08,-221.69L263.79,-220.93L264.17,-213.29L233.58,-211.77L233.20,-219.41L217.91,-218.65L217.53,-226.30L209.88,-225.92L209.12,-241.22ZM222.51,-280.21L268.40,-282.49L267.64,-297.78L259.99,-297.40L259.61,-305.05L229.02,-303.53L229.40,-295.88L221.75,-295.50ZM317.46,-215.93L311.76,-330.64L334.70,-331.77L335.46,-316.48L343.11,-316.86L342.73,-324.51L350.37,-324.89L349.99,-332.53L372.93,-333.67L373.31,-326.03L388.61,-326.79L388.99,-319.14L396.63,-319.52L397.39,-304.23L405.04,-304.61L409.22,-220.49L386.28,-219.35L382.10,-303.47L374.45,-303.09L374.07,-310.73L351.13,-309.59L351.51,-301.95L343.86,-301.57L344.24,-293.92L336.60,-293.54L340.40,-217.07Z" fill="#ffffff" stroke="#000000"/>
    <path d="M-513.65,-157.21L-524.92,-308.35L-449.35,-313.98L-448.79,-306.43L-441.23,-306.99L-440.67,-299.43L-433.11,-300.00L-432.55,-292.44L-424.99,-293.00L-422.17,-255.22L-429.73,-254.65L-428.60,-239.54L-421.04,-240.10L-420.48,-232.55L-412.92,-233.11L-409.54,-187.77L-417.10,-187.20L-416.53,-179.65L-424.09,-179.08L-423.53,-171.53L-431.09,-170.96L-430.52,-163.41ZM-492.67,-181.57L-439.77,-185.51L-440.33,-193.07L-432.78,-193.63L-435.03,-223.86L-442.59,-223.30L-443.15,-230.86L-496.05,-226.91ZM-497.74,-249.58L-452.40,-252.96L-452.96,-260.52L-445.41,-261.08L-447.10,-283.76L-454.65,-283.19L-455.22,-290.75L-500.56,-287.37ZM-389.09,-196.89L-393.03,-249.79L-385.47,-250.36L-386.60,-265.47L-379.04,-266.03L-379.61,-273.59L-364.49,-274.72L-365.06,-282.28L-334.83,-284.53L-334.27,-276.97L-326.71,-277.54L-326.14,-269.98L-318.59,-270.54L-319.71,-285.66L-297.04,-287.35L-288.59,-173.99L-311.26,-172.30L-312.39,-187.41L-319.95,-186.85L-319.38,-179.29L-326.94,-178.73L-326.38,-171.17L-356.60,-168.92L-357.17,-176.48L-372.28,-175.35L-372.85,-182.91L-380.40,-182.34L-381.53,-197.46ZM-366.42,-198.58L-358.86,-199.15L-358.29,-191.59L-328.07,-193.84L-328.63,-201.40L-321.07,-201.96L-321.64,-209.52L-314.08,-210.09L-316.90,-247.87L-324.45,-247.31L-325.02,-254.86L-332.57,-254.30L-333.14,-261.86L-363.37,-259.60L-362.80,-252.05L-370.36,-251.48ZM-265.39,-190.92L-272.72,-289.16L-250.05,-290.85L-243.85,-207.72L-236.29,-208.29L-235.73,-200.73L-213.06,-202.42L-213.62,-209.98L-206.06,-210.54L-206.63,-218.10L-199.07,-218.66L-204.70,-294.23L-182.03,-295.92L-173.58,-182.57L-196.25,-180.88L-197.38,-195.99L-204.93,-195.43L-204.37,-187.87L-211.93,-187.31L-211.36,-179.75L-249.15,-176.93L-249.71,-184.49L-257.27,-183.92L-257.83,-191.48ZM-148.07,-184.47L-159.35,-335.61L-68.66,-342.37L-66.97,-319.70L-134.98,-314.63L-132.17,-276.85L-64.15,-281.92L-62.46,-259.25L-130.47,-254.17L-127.09,-208.83L-59.08,-213.90L-57.39,-191.23ZM-30.94,-193.20L-39.39,-306.56L-16.72,-308.25L-15.59,-293.14L-8.04,-293.70L-8.60,-301.26L-1.04,-301.82L-1.61,-309.38L28.62,-311.63L29.19,-304.08L36.74,-304.64L37.31,-297.08L44.86,-297.65L45.99,-282.53L38.43,-281.97L39.00,-274.41L31.44,-273.85L30.88,-281.40L23.32,-280.84L22.76,-288.40L0.08,-286.71L0.65,-279.15L-6.91,-278.59L-6.35,-271.03L-13.90,-270.47L-8.27,-194.89ZM65.76,-230.81L61.81,-283.71L69.37,-284.28L68.24,-299.39L75.80,-299.95L75.24,-307.51L90.35,-308.64L89.79,-316.19L120.02,-318.45L120.58,-310.89L128.14,-311.46L128.70,-303.90L136.26,-304.46L132.31,-357.36L154.98,-359.05L166.26,-207.91L143.58,-206.22L142.46,-221.33L134.90,-220.77L135.46,-213.21L127.91,-212.65L128.47,-205.09L98.24,-202.84L97.68,-210.39L82.56,-209.27L82.00,-216.82L74.44,-216.26L73.32,-231.38ZM88.43,-232.50L95.99,-233.07L96.55,-225.51L126.78,-227.76L126.22,-235.32L133.77,-235.88L133.21,-243.44L140.77,-244.00L137.95,-281.79L130.39,-281.23L129.83,-288.78L122.27,-288.22L121.71,-295.78L91.48,-293.52L92.04,-285.97L84.49,-285.40ZM187.85,-239.92L183.91,-292.82L191.47,-293.38L190.34,-308.49L197.90,-309.06L197.33,-316.62L212.45,-317.74L211.88,-325.30L242.11,-327.55L242.68,-320.00L257.79,-321.12L258.35,-313.57L265.91,-314.13L267.04,-299.02L274.59,-299.58L276.85,-269.35L208.83,-264.28L210.53,-241.61L218.08,-242.17L218.65,-234.61L248.87,-236.87L248.31,-244.43L255.87,-244.99L255.30,-252.55L277.98,-254.24L279.10,-239.12L271.55,-238.56L272.11,-231.00L264.55,-230.44L265.12,-222.88L250.00,-221.75L250.57,-214.20L220.34,-211.94L219.77,-219.50L204.66,-218.37L204.10,-225.93L196.54,-225.37L195.41,-240.48ZM207.71,-279.39L253.05,-282.77L251.92,-297.89L244.37,-297.33L243.80,-304.88L213.57,-302.63L214.14,-295.07L206.58,-294.51ZM303.23,-218.12L294.78,-331.48L317.45,-333.17L318.57,-318.06L326.13,-318.62L325.57,-326.18L333.12,-326.74L332.56,-334.30L355.23,-335.99L355.80,-328.43L370.91,-329.56L371.47,-322.00L379.03,-322.57L380.16,-307.45L387.72,-308.02L393.91,-224.89L371.24,-223.20L365.04,-306.33L357.49,-305.76L356.92,-313.32L334.25,-311.63L334.82,-304.07L327.26,-303.51L327.82,-295.95L320.26,-295.39L325.90,-219.82Z" fill="#ffffff" stroke="#000000"/>
    <path d="M-517.50,-139.49L-532.37,-288.75L-457.74,-296.18L-456.99,-288.72L-449.53,-289.46L-448.79,-282.00L-441.32,-282.74L-440.58,-275.28L-433.12,-276.02L-429.40,-238.71L-436.87,-237.96L-435.38,-223.04L-427.92,-223.78L-427.17,-216.32L-419.71,-217.06L-415.25,-172.28L-422.71,-171.54L-421.97,-164.08L-429.43,-163.33L-428.69,-155.87L-436.15,-155.13L-435.41,-147.66ZM-497.35,-164.11L-445.10,-169.31L-445.85,-176.77L-438.38,-177.52L-441.36,-207.37L-448.82,-206.63L-449.56,-214.09L-501.80,-208.89ZM-504.03,-231.28L-459.25,-235.73L-460.00,-243.20L-452.53,-243.94L-454.76,-266.33L-462.23,-265.59L-462.97,-273.05L-507.75,-268.59ZM-395.24,-181.81L-400.44,-234.05L-392.98,-234.80L-394.46,-249.72L-387.00,-250.47L-387.74,-257.93L-372.82,-259.42L-373.56,-266.88L-343.71,-269.85L-342.96,-262.39L-335.50,-263.13L-334.76,-255.67L-327.29,-256.41L-328.78,-271.34L-306.39,-273.57L-295.24,-161.62L-317.63,-159.39L-319.12,-174.32L-326.58,-173.57L-325.84,-166.11L-333.30,-165.37L-332.56,-157.91L-362.41,-154.93L-363.16,-162.40L-378.08,-160.91L-378.83,-168.37L-386.29,-167.63L-387.77,-182.56ZM-372.85,-184.04L-365.39,-184.78L-364.64,-177.32L-334.79,-180.29L-335.53,-187.76L-328.07,-188.50L-328.81,-195.96L-321.35,-196.71L-325.07,-234.02L-332.53,-233.28L-333.27,-240.74L-340.73,-240.00L-341.48,-247.46L-371.33,-244.49L-370.59,-237.03L-378.05,-236.28ZM-272.71,-178.94L-282.37,-275.96L-259.98,-278.19L-251.81,-196.09L-244.34,-196.84L-243.60,-189.37L-221.21,-191.60L-221.95,-199.07L-214.49,-199.81L-215.23,-207.27L-207.77,-208.02L-215.20,-282.65L-192.81,-284.88L-181.67,-172.93L-204.06,-170.70L-205.54,-185.63L-213.00,-184.88L-212.26,-177.42L-219.72,-176.68L-218.98,-169.21L-256.30,-165.50L-257.04,-172.96L-264.50,-172.22L-265.25,-179.68ZM-156.48,-175.44L-171.34,-324.70L-81.78,-333.62L-79.55,-311.23L-146.72,-304.54L-143.01,-267.23L-75.84,-273.91L-73.61,-251.52L-140.78,-244.84L-136.32,-200.06L-69.15,-206.75L-66.92,-184.36ZM-40.80,-186.96L-51.95,-298.90L-29.56,-301.13L-28.07,-286.21L-20.61,-286.95L-21.35,-294.41L-13.89,-295.16L-14.63,-302.62L15.22,-305.59L15.96,-298.13L23.43,-298.87L24.17,-291.41L31.63,-292.15L33.12,-277.23L25.66,-276.48L26.40,-269.02L18.94,-268.28L18.19,-275.74L10.73,-275.00L9.99,-282.46L-12.40,-280.23L-11.66,-272.77L-19.12,-272.02L-18.38,-264.56L-25.84,-263.82L-18.41,-189.19ZM53.95,-226.54L48.75,-278.78L56.21,-279.53L54.72,-294.45L62.19,-295.19L61.44,-302.66L76.37,-304.14L75.63,-311.61L105.48,-314.58L106.22,-307.12L113.68,-307.86L114.43,-300.40L121.89,-301.14L116.69,-353.38L139.08,-355.61L153.94,-206.35L131.55,-204.12L130.06,-219.05L122.60,-218.30L123.34,-210.84L115.88,-210.10L116.62,-202.63L86.77,-199.66L86.03,-207.12L71.10,-205.64L70.36,-213.10L62.90,-212.36L61.41,-227.28ZM76.34,-228.77L83.80,-229.51L84.54,-222.05L114.40,-225.02L113.65,-232.49L121.12,-233.23L120.37,-240.69L127.84,-241.43L124.12,-278.75L116.66,-278.01L115.91,-285.47L108.45,-284.73L107.71,-292.19L77.85,-289.22L78.60,-281.75L71.13,-281.01ZM174.52,-238.55L169.32,-290.79L176.78,-291.53L175.30,-306.46L182.76,-307.20L182.02,-314.66L196.94,-316.15L196.20,-323.61L226.05,-326.59L226.80,-319.12L241.72,-320.61L242.47,-313.15L249.93,-313.89L251.41,-298.96L258.88,-299.71L261.85,-269.85L194.68,-263.17L196.91,-240.78L204.38,-241.52L205.12,-234.06L234.97,-237.03L234.23,-244.49L241.69,-245.23L240.95,-252.70L263.34,-254.93L264.82,-240.00L257.36,-239.26L258.10,-231.80L250.64,-231.05L251.38,-223.59L236.46,-222.10L237.20,-214.64L207.35,-211.67L206.60,-219.13L191.68,-217.64L190.94,-225.11L183.47,-224.36L181.99,-239.29ZM193.20,-278.09L237.97,-282.55L236.49,-297.48L229.03,-296.73L228.28,-304.20L198.43,-301.22L199.17,-293.76L191.71,-293.02ZM289.21,-219.82L278.06,-331.76L300.45,-333.99L301.94,-319.07L309.40,-319.81L308.66,-327.27L316.12,-328.02L315.38,-335.48L337.77,-337.71L338.51,-330.25L353.44,-331.73L354.18,-324.27L361.64,-325.01L363.13,-310.09L370.59,-310.83L378.77,-228.74L356.38,-226.51L348.20,-308.60L340.74,-307.86L340.00,-315.32L317.61,-313.09L318.35,-305.63L310.89,-304.88L311.63,-297.42L304.17,-296.68L311.60,-222.05Z" fill="#ffffff" stroke="#000000"/>
    <path d="M-520.68,-121.75L-539.05,-269.05L-465.40,-278.24L-464.49,-270.87L-457.12,-271.79L-456.20,-264.42L-448.84,-265.34L-447.92,-257.98L-440.55,-258.90L-435.96,-222.07L-443.33,-221.15L-441.49,-206.42L-434.13,-207.34L-433.21,-199.98L-425.84,-200.90L-420.33,-156.71L-427.70,-155.79L-426.78,-148.42L-434.14,-147.51L-433.23,-140.14L-440.59,-139.22L-439.67,-131.86ZM-501.35,-146.60L-449.79,-153.03L-450.71,-160.40L-443.35,-161.32L-447.02,-190.78L-454.38,-189.86L-455.30,-197.22L-506.86,-190.79ZM-509.61,-212.89L-465.42,-218.40L-466.34,-225.76L-458.98,-226.68L-461.73,-248.78L-469.10,-247.86L-470.01,-255.22L-514.20,-249.71ZM-400.77,-166.63L-407.20,-218.18L-399.83,-219.10L-401.67,-233.83L-394.30,-234.75L-395.22,-242.11L-380.49,-243.95L-381.41,-251.31L-351.95,-254.99L-351.03,-247.62L-343.67,-248.54L-342.75,-241.18L-335.38,-242.09L-337.22,-256.82L-315.13,-259.58L-301.35,-149.11L-323.45,-146.35L-325.28,-161.08L-332.65,-160.16L-331.73,-152.80L-339.09,-151.88L-338.18,-144.51L-367.63,-140.84L-368.55,-148.21L-383.28,-146.37L-384.20,-153.73L-391.57,-152.81L-393.40,-167.54ZM-378.67,-169.38L-371.31,-170.30L-370.39,-162.93L-340.93,-166.61L-341.85,-173.97L-334.48,-174.89L-335.40,-182.26L-328.04,-183.17L-332.63,-220.00L-339.99,-219.08L-340.91,-226.45L-348.28,-225.53L-349.20,-232.89L-378.66,-229.22L-377.74,-221.85L-385.10,-220.94ZM-279.48,-166.79L-291.42,-262.53L-269.33,-265.29L-259.22,-184.28L-251.86,-185.20L-250.94,-177.83L-228.85,-180.59L-229.77,-187.95L-222.40,-188.87L-223.32,-196.23L-215.95,-197.15L-225.14,-270.80L-203.04,-273.56L-189.27,-163.08L-211.36,-160.33L-213.20,-175.06L-220.56,-174.14L-219.65,-166.77L-227.01,-165.86L-226.09,-158.49L-262.92,-153.90L-263.83,-161.26L-271.20,-160.35L-272.12,-167.71ZM-164.41,-166.18L-182.78,-313.48L-94.40,-324.50L-91.65,-302.41L-157.93,-294.14L-153.34,-257.32L-87.05,-265.58L-84.30,-243.49L-150.58,-235.22L-145.07,-191.03L-78.79,-199.30L-76.03,-177.20ZM-50.26,-180.42L-64.03,-290.89L-41.94,-293.65L-40.10,-278.92L-32.74,-279.83L-33.65,-287.20L-26.29,-288.12L-27.21,-295.48L2.25,-299.16L3.17,-291.79L10.53,-292.71L11.45,-285.34L18.82,-286.26L20.65,-271.53L13.29,-270.62L14.21,-263.25L6.84,-262.33L5.92,-269.70L-1.44,-268.78L-2.36,-276.14L-24.45,-273.39L-23.53,-266.02L-30.90,-265.10L-29.98,-257.74L-37.35,-256.82L-28.16,-183.17ZM42.50,-221.90L36.07,-273.46L43.44,-274.37L41.60,-289.10L48.97,-290.02L48.05,-297.39L62.78,-299.22L61.86,-306.59L91.32,-310.26L92.24,-302.90L99.60,-303.82L100.52,-296.45L107.89,-297.37L101.46,-348.92L123.55,-351.68L141.92,-204.38L119.83,-201.63L117.99,-216.36L110.62,-215.44L111.54,-208.07L104.18,-207.16L105.10,-199.79L75.64,-196.12L74.72,-203.48L59.99,-201.64L59.07,-209.01L51.71,-208.09L49.87,-222.82ZM64.60,-224.66L71.96,-225.58L72.88,-218.21L102.34,-221.88L101.42,-229.25L108.79,-230.17L107.87,-237.53L115.23,-238.45L110.64,-275.28L103.28,-274.36L102.36,-281.72L94.99,-280.80L94.08,-288.17L64.62,-284.49L65.53,-277.13L58.17,-276.21ZM161.49,-236.74L155.06,-288.29L162.43,-289.21L160.59,-303.94L167.96,-304.86L167.04,-312.23L181.77,-314.06L180.85,-321.43L210.31,-325.10L211.23,-317.74L225.96,-319.57L226.87,-312.21L234.24,-313.13L236.08,-298.40L243.44,-299.32L247.11,-269.86L180.83,-261.59L183.59,-239.50L190.95,-240.41L191.87,-233.05L221.33,-236.72L220.41,-244.09L227.78,-245.01L226.86,-252.37L248.95,-255.13L250.79,-240.40L243.42,-239.48L244.34,-232.11L236.98,-231.19L237.90,-223.83L223.17,-221.99L224.08,-214.63L194.62,-210.95L193.71,-218.32L178.98,-216.48L178.06,-223.85L170.69,-222.93L168.86,-237.66ZM178.99,-276.32L223.18,-281.83L221.35,-296.56L213.98,-295.64L213.06,-303.01L183.60,-299.33L184.52,-291.97L177.16,-291.05ZM275.41,-221.03L261.63,-331.50L283.73,-334.26L285.56,-319.53L292.93,-320.44L292.01,-327.81L299.37,-328.73L298.46,-336.09L320.55,-338.85L321.47,-331.48L336.20,-333.32L337.12,-325.96L344.48,-326.87L346.32,-312.14L353.68,-313.06L363.79,-232.05L341.69,-229.29L331.59,-310.31L324.22,-309.39L323.31,-316.75L301.21,-314.00L302.13,-306.63L294.76,-305.72L295.68,-298.35L288.32,-297.43L297.50,-223.78Z" fill="#ffffff" stroke="#000000"/>
    <path d="M-523.19,-104.03L-544.98,-249.28L-472.35,-260.17L-471.26,-252.91L-464.00,-254.00L-462.91,-246.74L-455.65,-247.83L-454.56,-240.56L-447.30,-241.65L-441.85,-205.34L-449.11,-204.25L-446.94,-189.72L-439.67,-190.81L-438.58,-183.55L-431.32,-184.64L-424.79,-141.07L-432.05,-139.98L-430.96,-132.71L-438.22,-131.62L-437.13,-124.36L-444.40,-123.27L-443.31,-116.01ZM-504.67,-129.08L-453.84,-136.71L-454.93,-143.97L-447.66,-145.06L-452.02,-174.11L-459.28,-173.02L-460.37,-180.28L-511.21,-172.66ZM-514.48,-194.45L-470.90,-200.98L-471.99,-208.24L-464.73,-209.33L-468.00,-231.12L-475.26,-230.03L-476.35,-237.29L-519.92,-230.76ZM-405.68,-151.36L-413.30,-202.20L-406.04,-203.28L-408.22,-217.81L-400.95,-218.90L-402.04,-226.16L-387.52,-228.34L-388.61,-235.60L-359.56,-239.96L-358.47,-232.70L-351.21,-233.79L-350.12,-226.52L-342.85,-227.61L-345.03,-242.14L-323.25,-245.41L-306.91,-136.47L-328.69,-133.20L-330.87,-147.73L-338.14,-146.64L-337.05,-139.37L-344.31,-138.28L-343.22,-131.02L-372.27,-126.66L-373.36,-133.93L-387.88,-131.75L-388.97,-139.01L-396.24,-137.92L-398.41,-152.45ZM-383.89,-154.63L-376.63,-155.71L-375.54,-148.45L-346.49,-152.81L-347.58,-160.07L-340.31,-161.16L-341.40,-168.42L-334.14,-169.51L-339.59,-205.83L-346.85,-204.74L-347.94,-212.00L-355.20,-210.91L-356.29,-218.17L-385.34,-213.81L-384.25,-206.55L-391.51,-205.46ZM-285.71,-154.50L-299.87,-248.91L-278.08,-252.18L-266.10,-172.29L-258.84,-173.38L-257.75,-166.12L-235.96,-169.39L-237.05,-176.65L-229.79,-177.74L-230.88,-185.00L-223.61,-186.09L-234.51,-258.72L-212.72,-261.98L-196.38,-153.05L-218.17,-149.78L-220.35,-164.30L-227.61,-163.21L-226.52,-155.95L-233.78,-154.86L-232.69,-147.60L-269.01,-142.15L-270.09,-149.42L-277.36,-148.33L-278.45,-155.59ZM-171.87,-156.72L-193.65,-301.97L-106.50,-315.04L-103.24,-293.26L-168.60,-283.45L-163.15,-247.14L-97.79,-256.94L-94.52,-235.15L-159.88,-225.35L-153.35,-181.78L-87.99,-191.58L-84.72,-169.79ZM-59.30,-173.60L-75.64,-282.54L-53.85,-285.81L-51.67,-271.29L-44.41,-272.37L-45.50,-279.64L-38.24,-280.73L-39.33,-287.99L-10.28,-292.35L-9.19,-285.08L-1.92,-286.17L-0.84,-278.91L6.43,-280.00L8.61,-265.47L1.34,-264.38L2.43,-257.12L-4.83,-256.03L-5.92,-263.30L-13.18,-262.21L-14.27,-269.47L-36.06,-266.20L-34.97,-258.94L-42.23,-257.85L-41.14,-250.59L-48.41,-249.50L-37.51,-176.87ZM31.44,-216.92L23.81,-267.75L31.07,-268.84L28.90,-283.37L36.16,-284.46L35.07,-291.72L49.59,-293.90L48.50,-301.16L77.55,-305.52L78.64,-298.26L85.91,-299.35L87.00,-292.08L94.26,-293.17L86.63,-344.01L108.42,-347.28L130.21,-202.03L108.42,-198.76L106.24,-213.28L98.98,-212.20L100.07,-204.93L92.80,-203.84L93.89,-196.58L64.84,-192.22L63.75,-199.49L49.23,-197.31L48.14,-204.57L40.88,-203.48L38.70,-218.01ZM53.22,-220.18L60.49,-221.27L61.58,-214.01L90.63,-218.37L89.54,-225.63L96.80,-226.72L95.71,-233.98L102.97,-235.07L97.53,-271.38L90.26,-270.30L89.17,-277.56L81.91,-276.47L80.82,-283.73L51.77,-279.37L52.86,-272.11L45.60,-271.02ZM148.77,-234.52L141.15,-285.35L148.41,-286.44L146.23,-300.97L153.49,-302.06L152.40,-309.32L166.93,-311.50L165.84,-318.76L194.89,-323.12L195.98,-315.85L210.50,-318.03L211.59,-310.77L218.86,-311.86L221.03,-297.33L228.30,-298.42L232.65,-269.37L167.29,-259.57L170.56,-237.78L177.82,-238.87L178.91,-231.61L207.96,-235.97L206.87,-243.23L214.13,-244.32L213.05,-251.58L234.83,-254.85L237.01,-240.32L229.75,-239.23L230.84,-231.97L223.58,-230.88L224.66,-223.62L210.14,-221.44L211.23,-214.18L182.18,-209.82L181.09,-217.08L166.56,-214.91L165.48,-222.17L158.21,-221.08L156.03,-235.60ZM165.11,-274.10L208.69,-280.63L206.51,-295.16L199.25,-294.07L198.16,-301.33L169.11,-296.97L170.20,-289.71L162.93,-288.62ZM261.84,-221.77L245.50,-330.71L267.29,-333.98L269.47,-319.45L276.73,-320.54L275.64,-327.80L282.90,-328.89L281.81,-336.15L303.60,-339.42L304.69,-332.16L319.22,-334.34L320.30,-327.08L327.57,-328.16L329.75,-313.64L337.01,-314.73L348.99,-234.84L327.20,-231.57L315.22,-311.46L307.96,-310.37L306.87,-317.63L285.08,-314.37L286.17,-307.10L278.91,-306.01L280.00,-298.75L272.73,-297.66L283.63,-225.04Z" fill="#ffffff" stroke="#000000"/>
    <path d="M-525.04,-86.34L-550.15,-229.46L-478.58,-242.02L-477.33,-234.86L-470.17,-236.12L-468.92,-228.96L-461.76,-230.22L-460.51,-223.06L-453.35,-224.32L-447.07,-188.53L-454.23,-187.28L-451.72,-172.97L-444.56,-174.22L-443.30,-167.07L-436.15,-168.32L-428.61,-125.38L-435.77,-124.13L-434.51,-116.97L-441.67,-115.72L-440.42,-108.56L-447.57,-107.30L-446.32,-100.15ZM-507.33,-111.57L-457.24,-120.36L-458.49,-127.52L-451.34,-128.77L-456.36,-157.40L-463.52,-156.14L-464.77,-163.30L-514.87,-154.51ZM-518.63,-175.98L-475.70,-183.51L-476.95,-190.67L-469.80,-191.92L-473.56,-213.39L-480.72,-212.14L-481.97,-219.29L-524.91,-211.76ZM-409.97,-136.03L-418.76,-186.13L-411.60,-187.38L-414.11,-201.69L-406.95,-202.95L-408.21,-210.11L-393.90,-212.62L-395.15,-219.77L-366.53,-224.80L-365.27,-217.64L-358.12,-218.90L-356.86,-211.74L-349.70,-212.99L-352.21,-227.31L-330.75,-231.07L-311.91,-123.73L-333.38,-119.96L-335.89,-134.27L-343.05,-133.02L-341.79,-125.86L-348.95,-124.61L-347.69,-117.45L-376.32,-112.43L-377.57,-119.59L-391.89,-117.07L-393.14,-124.23L-400.30,-122.97L-402.81,-137.29ZM-388.50,-139.80L-381.34,-141.05L-380.09,-133.90L-351.46,-138.92L-352.72,-146.08L-345.56,-147.33L-346.82,-154.49L-339.66,-155.74L-345.94,-191.53L-353.09,-190.27L-354.35,-197.43L-361.50,-196.17L-362.76,-203.33L-391.39,-198.30L-390.13,-191.15L-397.29,-189.89ZM-291.39,-142.08L-307.71,-235.12L-286.24,-238.88L-272.43,-160.16L-265.27,-161.42L-264.02,-154.26L-242.55,-158.03L-243.81,-165.18L-236.65,-166.44L-237.90,-173.60L-230.75,-174.85L-243.30,-246.42L-221.84,-250.18L-203.00,-142.84L-224.47,-139.07L-226.98,-153.38L-234.14,-152.13L-232.88,-144.97L-240.04,-143.72L-238.78,-136.56L-274.56,-130.28L-275.82,-137.44L-282.98,-136.18L-284.23,-143.34ZM-178.85,-147.08L-203.96,-290.20L-118.09,-305.27L-114.32,-283.80L-178.73,-272.50L-172.45,-236.72L-108.04,-248.02L-104.27,-226.55L-168.68,-215.25L-161.15,-172.31L-96.74,-183.61L-92.97,-162.14ZM-67.93,-166.54L-86.76,-273.88L-65.29,-277.65L-62.78,-263.34L-55.62,-264.59L-56.88,-271.75L-49.72,-273.00L-50.98,-280.16L-22.35,-285.18L-21.10,-278.03L-13.94,-279.28L-12.69,-272.13L-5.53,-273.38L-3.02,-259.07L-10.17,-257.81L-8.92,-250.66L-16.08,-249.40L-17.33,-256.56L-24.49,-255.30L-25.74,-262.46L-47.21,-258.69L-45.96,-251.53L-53.11,-250.28L-51.86,-243.12L-59.01,-241.87L-46.46,-170.30ZM20.75,-211.60L11.97,-261.70L19.12,-262.95L16.61,-277.27L23.77,-278.52L22.51,-285.68L36.82,-288.19L35.57,-295.34L64.19,-300.37L65.45,-293.21L72.61,-294.47L73.86,-287.31L81.02,-288.57L72.23,-338.66L93.70,-342.43L118.81,-199.30L97.34,-195.53L94.83,-209.85L87.67,-208.59L88.93,-201.43L81.77,-200.18L83.03,-193.02L54.40,-188.00L53.15,-195.16L38.83,-192.65L37.58,-199.80L30.42,-198.55L27.91,-212.86ZM42.22,-215.37L49.38,-216.63L50.64,-209.47L79.26,-214.49L78.00,-221.65L85.16,-222.90L83.91,-230.06L91.06,-231.32L84.78,-267.10L77.63,-265.84L76.37,-273.00L69.22,-271.74L67.96,-278.90L39.33,-273.88L40.59,-266.72L33.43,-265.46ZM136.37,-231.89L127.58,-281.98L134.74,-283.24L132.23,-297.55L139.39,-298.81L138.13,-305.96L152.44,-308.47L151.19,-315.63L179.81,-320.65L181.07,-313.50L195.38,-316.01L196.64,-308.85L203.79,-310.11L206.30,-295.79L213.46,-297.05L218.48,-268.42L154.08,-257.12L157.84,-235.66L165.00,-236.91L166.25,-229.75L194.88,-234.78L193.62,-241.93L200.78,-243.19L199.52,-250.35L220.99,-254.11L223.50,-239.80L216.35,-238.54L217.60,-231.39L210.45,-230.13L211.70,-222.98L197.39,-220.46L198.65,-213.31L170.02,-208.29L168.77,-215.44L154.45,-212.93L153.20,-220.09L146.04,-218.83L143.53,-233.14ZM151.56,-271.44L194.50,-278.97L191.99,-293.28L184.83,-292.03L183.58,-299.18L154.95,-294.16L156.21,-287.01L149.05,-285.75ZM248.52,-222.06L229.68,-329.40L251.15,-333.17L253.66,-318.86L260.82,-320.11L259.56,-327.27L266.72,-328.52L265.46,-335.68L286.93,-339.45L288.19,-332.29L302.50,-334.80L303.76,-327.65L310.91,-328.90L313.42,-314.59L320.58,-315.84L334.39,-237.13L312.92,-233.36L299.11,-312.08L291.96,-310.82L290.70,-317.98L269.23,-314.21L270.49,-307.06L263.33,-305.80L264.59,-298.64L257.43,-297.39L269.99,-225.82Z" fill="#ffffff" stroke="#000000"/>
    <path d="M-526.22,-68.70L-554.56,-209.63L-484.10,-223.80L-482.68,-216.76L-475.64,-218.17L-474.22,-211.13L-467.17,-212.54L-465.76,-205.50L-458.71,-206.91L-451.62,-171.68L-458.67,-170.27L-455.83,-156.17L-448.79,-157.59L-447.37,-150.54L-440.32,-151.96L-431.82,-109.68L-438.87,-108.27L-437.45,-101.22L-444.49,-99.80L-443.08,-92.76L-450.12,-91.34L-448.71,-84.29ZM-509.33,-94.09L-460.00,-104.01L-461.42,-111.06L-454.38,-112.48L-460.05,-140.66L-467.09,-139.25L-468.51,-146.29L-517.83,-136.37ZM-522.09,-157.51L-479.81,-166.01L-481.22,-173.06L-474.18,-174.48L-478.43,-195.62L-485.48,-194.20L-486.89,-201.25L-529.17,-192.74ZM-413.64,-120.67L-423.56,-170.00L-416.51,-171.41L-419.35,-185.51L-412.30,-186.92L-413.72,-193.97L-399.63,-196.80L-401.04,-203.85L-372.86,-209.52L-371.44,-202.47L-364.40,-203.89L-362.98,-196.84L-355.93,-198.26L-358.77,-212.35L-337.63,-216.61L-316.37,-110.91L-337.51,-106.66L-340.34,-120.75L-347.39,-119.33L-345.97,-112.29L-353.02,-110.87L-351.60,-103.82L-379.78,-98.16L-381.20,-105.20L-395.29,-102.37L-396.71,-109.41L-403.76,-108.00L-406.59,-122.09ZM-392.50,-124.92L-385.45,-126.34L-384.04,-119.29L-355.85,-124.96L-357.27,-132.01L-350.22,-133.43L-351.64,-140.47L-344.59,-141.89L-351.68,-177.12L-358.73,-175.71L-360.14,-182.75L-367.19,-181.33L-368.61,-188.38L-396.79,-182.71L-395.38,-175.67L-402.42,-174.25ZM-296.52,-129.57L-314.95,-221.17L-293.81,-225.42L-278.22,-147.91L-271.17,-149.33L-269.75,-142.28L-248.61,-146.53L-250.03,-153.58L-242.98,-155.00L-244.40,-162.04L-237.36,-163.46L-251.53,-233.93L-230.39,-238.18L-209.13,-132.48L-230.27,-128.23L-233.10,-142.32L-240.15,-140.91L-238.73,-133.86L-245.78,-132.44L-244.36,-125.39L-279.59,-118.31L-281.01,-125.35L-288.06,-123.94L-289.47,-130.98ZM-185.35,-137.27L-213.70,-278.19L-129.14,-295.20L-124.89,-274.06L-188.30,-261.31L-181.22,-226.07L-117.80,-238.83L-113.55,-217.69L-176.97,-204.93L-168.46,-162.66L-105.04,-175.41L-100.79,-154.27ZM-76.13,-159.23L-97.39,-264.93L-76.25,-269.18L-73.42,-255.09L-66.37,-256.51L-67.79,-263.55L-60.74,-264.97L-62.16,-272.02L-33.97,-277.69L-32.56,-270.64L-25.51,-272.06L-24.09,-265.01L-17.05,-266.43L-14.21,-252.34L-21.26,-250.92L-19.84,-243.87L-26.89,-242.45L-28.30,-249.50L-35.35,-248.08L-36.77,-255.13L-57.91,-250.88L-56.49,-243.83L-63.54,-242.41L-62.12,-235.37L-69.16,-233.95L-54.99,-163.49ZM10.46,-205.98L0.54,-255.30L7.59,-256.72L4.75,-270.81L11.80,-272.23L10.38,-279.28L24.48,-282.11L23.06,-289.16L51.24,-294.83L52.66,-287.78L59.71,-289.20L61.13,-282.15L68.17,-283.57L58.25,-332.89L79.39,-337.15L107.74,-196.22L86.60,-191.97L83.76,-206.06L76.72,-204.64L78.13,-197.60L71.09,-196.18L72.50,-189.13L44.32,-183.46L42.90,-190.51L28.81,-187.67L27.39,-194.72L20.35,-193.30L17.51,-207.40ZM31.60,-210.23L38.65,-211.65L40.07,-204.60L68.25,-210.27L66.84,-217.32L73.88,-218.73L72.46,-225.78L79.51,-227.20L72.42,-262.43L65.38,-261.01L63.96,-268.06L56.91,-266.64L55.50,-273.69L27.31,-268.02L28.73,-260.97L21.68,-259.55ZM124.31,-228.88L114.39,-278.20L121.43,-279.62L118.60,-293.71L125.64,-295.13L124.23,-302.18L138.32,-305.01L136.90,-312.06L165.09,-317.73L166.50,-310.68L180.60,-313.51L182.01,-306.47L189.06,-307.89L191.90,-293.79L198.94,-295.21L204.61,-267.02L141.19,-254.27L145.45,-233.13L152.49,-234.55L153.91,-227.50L182.10,-233.17L180.68,-240.22L187.72,-241.63L186.31,-248.68L207.45,-252.93L210.28,-238.84L203.23,-237.42L204.65,-230.38L197.61,-228.96L199.02,-221.91L184.93,-219.08L186.35,-212.03L158.16,-206.36L156.74,-213.41L142.65,-210.57L141.23,-217.62L134.19,-216.20L131.35,-230.29ZM138.36,-268.36L180.64,-276.87L177.80,-290.96L170.76,-289.54L169.34,-296.59L141.15,-290.92L142.57,-283.87L135.52,-282.45ZM235.45,-221.91L214.19,-327.60L235.33,-331.86L238.17,-317.76L245.21,-319.18L243.79,-326.23L250.84,-327.64L249.42,-334.69L270.56,-338.94L271.98,-331.90L286.07,-334.73L287.49,-327.68L294.54,-329.10L297.37,-315.01L304.42,-316.43L320.01,-238.92L298.87,-234.66L283.28,-312.17L276.23,-310.76L274.81,-317.80L253.68,-313.55L255.09,-306.50L248.05,-305.09L249.46,-298.04L242.42,-296.62L256.59,-226.16Z" fill="#ffffff" stroke="#000000"/>
    <path d="M-526.74,-51.15L-558.23,-189.81L-488.90,-205.55L-487.33,-198.62L-480.40,-200.19L-478.82,-193.26L-471.89,-194.83L-470.31,-187.90L-463.38,-189.47L-455.51,-154.81L-462.44,-153.24L-459.29,-139.37L-452.36,-140.94L-450.79,-134.01L-443.85,-135.59L-434.41,-93.99L-441.34,-92.41L-439.76,-85.48L-446.70,-83.91L-445.12,-76.97L-452.06,-75.40L-450.48,-68.47ZM-510.67,-76.67L-462.14,-87.69L-463.71,-94.62L-456.78,-96.20L-463.08,-123.93L-470.01,-122.36L-471.58,-129.29L-520.11,-118.27ZM-524.84,-139.07L-483.24,-148.51L-484.81,-155.45L-477.88,-157.02L-482.60,-177.82L-489.54,-176.24L-491.11,-183.18L-532.71,-173.73ZM-416.70,-105.30L-427.72,-153.83L-420.79,-155.41L-423.94,-169.27L-417.00,-170.85L-418.58,-177.78L-404.71,-180.93L-406.29,-187.86L-378.55,-194.16L-376.98,-187.22L-370.05,-188.80L-368.47,-181.87L-361.54,-183.44L-364.69,-197.31L-343.89,-202.03L-320.27,-98.04L-341.07,-93.31L-344.22,-107.18L-351.15,-105.61L-349.58,-98.67L-356.51,-97.10L-354.94,-90.16L-382.67,-83.87L-384.24,-90.80L-398.11,-87.65L-399.68,-94.58L-406.62,-93.01L-409.77,-106.88ZM-395.90,-110.02L-388.97,-111.60L-387.39,-104.67L-359.66,-110.96L-361.24,-117.90L-354.30,-119.47L-355.88,-126.40L-348.94,-127.98L-356.82,-162.64L-363.75,-161.07L-365.32,-168.00L-372.26,-166.43L-373.83,-173.36L-401.56,-167.06L-399.99,-160.13L-406.92,-158.55ZM-301.11,-116.97L-321.57,-207.10L-300.78,-211.82L-283.46,-135.56L-276.52,-137.13L-274.95,-130.20L-254.15,-134.92L-255.73,-141.86L-248.79,-143.43L-250.37,-150.36L-243.43,-151.94L-259.18,-221.27L-238.38,-225.99L-214.76,-122.00L-235.56,-117.27L-238.71,-131.14L-245.64,-129.57L-244.07,-122.63L-251.00,-121.06L-249.43,-114.13L-284.09,-106.25L-285.67,-113.19L-292.60,-111.61L-294.17,-118.54ZM-191.37,-127.31L-222.85,-265.97L-139.66,-284.86L-134.94,-264.06L-197.33,-249.89L-189.46,-215.23L-127.06,-229.40L-122.34,-208.60L-184.74,-194.43L-175.29,-152.83L-112.89,-167.00L-108.17,-146.20ZM-83.91,-151.72L-107.52,-255.71L-86.72,-260.43L-83.58,-246.57L-76.64,-248.14L-78.22,-255.07L-71.28,-256.65L-72.86,-263.58L-45.13,-269.88L-43.55,-262.95L-36.62,-264.52L-35.05,-257.59L-28.11,-259.16L-24.96,-245.30L-31.90,-243.72L-30.32,-236.79L-37.26,-235.21L-38.83,-242.15L-45.76,-240.57L-47.34,-247.50L-68.14,-242.78L-66.56,-235.85L-73.49,-234.27L-71.92,-227.34L-78.85,-225.77L-63.11,-156.44ZM0.57,-200.06L-10.45,-248.59L-3.52,-250.17L-6.66,-264.03L0.27,-265.61L-1.31,-272.54L12.56,-275.69L10.99,-282.62L38.72,-288.92L40.29,-281.99L47.22,-283.56L48.80,-276.63L55.73,-278.20L44.71,-326.73L65.51,-331.46L97.00,-192.80L76.20,-188.07L73.05,-201.94L66.12,-200.37L67.69,-193.43L60.76,-191.86L62.33,-184.93L34.60,-178.63L33.03,-185.56L19.16,-182.41L17.59,-189.35L10.65,-187.77L7.51,-201.64ZM21.37,-204.79L28.30,-206.36L29.88,-199.43L57.61,-205.72L56.04,-212.66L62.97,-214.23L61.39,-221.16L68.33,-222.74L60.45,-257.40L53.52,-255.83L51.95,-262.76L45.01,-261.19L43.44,-268.12L15.71,-261.82L17.28,-254.89L10.35,-253.32ZM112.58,-225.50L101.56,-274.03L108.49,-275.60L105.34,-289.47L112.28,-291.04L110.70,-297.98L124.57,-301.12L122.99,-308.06L150.73,-314.36L152.30,-307.42L166.17,-310.57L167.74,-303.64L174.67,-305.21L177.82,-291.35L184.75,-292.92L191.05,-265.19L128.66,-251.02L133.38,-230.22L140.31,-231.80L141.89,-224.86L169.62,-231.16L168.04,-238.09L174.98,-239.67L173.40,-246.60L194.20,-251.32L197.35,-237.46L190.42,-235.88L191.99,-228.95L185.06,-227.38L186.63,-220.44L172.77,-217.30L174.34,-210.36L146.61,-204.07L145.04,-211.00L131.17,-207.85L129.60,-214.78L122.66,-213.21L119.51,-227.07ZM125.51,-264.89L167.10,-274.33L163.96,-288.20L157.02,-286.62L155.45,-293.56L127.72,-287.26L129.29,-280.33L122.36,-278.75ZM222.66,-221.33L199.04,-325.33L219.84,-330.05L222.99,-316.18L229.92,-317.76L228.34,-324.69L235.28,-326.27L233.70,-333.20L254.50,-337.92L256.08,-330.99L269.94,-334.14L271.52,-327.21L278.45,-328.78L281.60,-314.91L288.53,-316.49L305.85,-240.23L285.05,-235.50L267.73,-311.77L260.80,-310.19L259.22,-317.12L238.43,-312.40L240.00,-305.47L233.07,-303.89L234.64,-296.96L227.71,-295.39L243.45,-226.06Z" fill="#ffffff" stroke="#000000"/>
    <path d="M-526.62,-33.70L-561.16,-170.02L-493.00,-187.29L-491.27,-180.47L-484.45,-182.20L-482.73,-175.38L-475.91,-177.11L-474.18,-170.29L-467.37,-172.02L-458.73,-137.94L-465.55,-136.22L-462.10,-122.58L-455.28,-124.31L-453.55,-117.49L-446.74,-119.22L-436.38,-78.33L-443.19,-76.60L-441.47,-69.78L-448.28,-68.06L-446.56,-61.24L-453.37,-59.51L-451.65,-52.70ZM-511.35,-59.33L-463.64,-71.42L-465.37,-78.23L-458.55,-79.96L-465.46,-107.22L-472.28,-105.50L-474.00,-112.31L-521.71,-100.23ZM-526.89,-120.67L-486.00,-131.03L-487.72,-137.85L-480.91,-139.58L-486.09,-160.03L-492.91,-158.30L-494.63,-165.11L-535.53,-154.75ZM-419.15,-89.94L-431.23,-137.66L-424.42,-139.38L-427.87,-153.01L-421.06,-154.74L-422.78,-161.56L-409.15,-165.01L-410.88,-171.83L-383.61,-178.73L-381.89,-171.92L-375.07,-173.64L-373.35,-166.83L-366.53,-168.55L-369.98,-182.19L-349.53,-187.37L-323.63,-85.13L-344.08,-79.95L-347.53,-93.58L-354.35,-91.85L-352.62,-85.04L-359.44,-83.31L-357.71,-76.49L-384.98,-69.59L-386.70,-76.40L-400.34,-72.95L-402.06,-79.77L-408.88,-78.04L-412.33,-91.67ZM-398.70,-95.12L-391.88,-96.85L-390.16,-90.03L-362.89,-96.94L-364.62,-103.76L-357.80,-105.48L-359.53,-112.30L-352.72,-114.03L-361.35,-148.11L-368.16,-146.38L-369.89,-153.20L-376.71,-151.47L-378.43,-158.29L-405.70,-151.38L-403.97,-144.56L-410.79,-142.84ZM-305.15,-104.32L-327.60,-192.92L-307.15,-198.11L-288.15,-123.13L-281.34,-124.86L-279.61,-118.04L-259.16,-123.22L-260.89,-130.04L-254.07,-131.76L-255.80,-138.58L-248.99,-140.31L-266.25,-208.47L-245.81,-213.65L-219.90,-111.41L-240.35,-106.23L-243.81,-119.86L-250.62,-118.13L-248.89,-111.32L-255.71,-109.59L-253.98,-102.77L-288.06,-94.14L-289.79,-100.96L-296.61,-99.23L-298.33,-106.04ZM-196.90,-117.23L-231.44,-253.55L-149.64,-274.27L-144.46,-253.83L-205.81,-238.29L-197.17,-204.21L-135.83,-219.75L-130.65,-199.30L-191.99,-183.76L-181.63,-142.86L-120.29,-158.40L-115.11,-137.96ZM-91.25,-144.00L-117.15,-246.24L-96.71,-251.42L-93.25,-237.79L-86.44,-239.51L-88.16,-246.33L-81.35,-248.06L-83.08,-254.87L-55.81,-261.78L-54.08,-254.96L-47.27,-256.69L-45.54,-249.87L-38.73,-251.60L-35.27,-237.97L-42.09,-236.24L-40.36,-229.43L-47.18,-227.70L-48.90,-234.52L-55.72,-232.79L-57.45,-239.60L-77.89,-234.42L-76.17,-227.61L-82.98,-225.88L-81.26,-219.07L-88.07,-217.34L-70.81,-149.18ZM-8.91,-193.87L-21.00,-241.58L-14.19,-243.31L-17.64,-256.94L-10.82,-258.67L-12.55,-265.49L1.08,-268.94L-0.64,-275.76L26.62,-282.66L28.35,-275.85L35.16,-277.57L36.89,-270.76L43.70,-272.48L31.62,-320.20L52.06,-325.38L86.60,-189.06L66.15,-183.88L62.70,-197.51L55.88,-195.78L57.61,-188.97L50.79,-187.24L52.52,-180.42L25.26,-173.52L23.53,-180.33L9.90,-176.88L8.17,-183.69L1.36,-181.97L-2.10,-195.60ZM11.53,-199.05L18.35,-200.78L20.08,-193.96L47.34,-200.87L45.61,-207.69L52.43,-209.41L50.70,-216.23L57.52,-217.96L48.88,-252.04L42.07,-250.31L40.34,-257.13L33.53,-255.40L31.80,-262.21L4.54,-255.31L6.26,-248.49L-0.55,-246.76ZM101.21,-221.77L89.12,-269.48L95.93,-271.21L92.48,-284.84L99.30,-286.57L97.57,-293.38L111.20,-296.84L109.47,-303.65L136.74,-310.56L138.47,-303.74L152.10,-307.20L153.82,-300.38L160.64,-302.11L164.09,-288.48L170.91,-290.20L177.82,-262.94L116.47,-247.40L121.65,-226.95L128.47,-228.68L130.20,-221.86L157.46,-228.77L155.73,-235.59L162.55,-237.31L160.82,-244.13L181.27,-249.31L184.72,-235.68L177.91,-233.95L179.63,-227.13L172.82,-225.41L174.54,-218.59L160.91,-215.14L162.64,-208.32L135.38,-201.41L133.65,-208.23L120.02,-204.78L118.29,-211.59L111.47,-209.87L108.02,-223.50ZM113.02,-261.03L153.91,-271.39L150.46,-285.02L143.65,-283.30L141.92,-290.11L114.66,-283.21L116.38,-276.39L109.57,-274.66ZM210.14,-220.35L184.24,-322.59L204.68,-327.77L208.14,-314.14L214.95,-315.87L213.23,-322.68L220.04,-324.41L218.32,-331.23L238.76,-336.41L240.49,-329.59L254.12,-333.05L255.85,-326.23L262.67,-327.96L266.12,-314.32L272.93,-316.05L291.93,-241.08L271.48,-235.90L252.49,-310.87L245.67,-309.14L243.94,-315.96L223.50,-310.78L225.22,-303.96L218.41,-302.24L220.13,-295.42L213.32,-293.69L230.59,-225.54Z" fill="#ffffff" stroke="#000000"/>
    <path d="M-913,471.81L-913,468.25L-892.81,468.25L-892.81,471.81L-901.13,471.81L-901.13,492L-904.69,492L-904.69,471.81ZM-891.03,487.25L-891.03,478.94L-889.84,478.94L-889.84,476.56L-888.66,476.56L-888.66,475.38L-886.28,475.38L-886.28,474.19L-881.53,474.19L-881.53,475.38L-879.16,475.38L-879.16,476.56L-877.97,476.56L-877.97,478.94L-876.78,478.94L-876.78,483.69L-887.47,483.69L-887.47,487.25L-886.28,487.25L-886.28,488.44L-881.53,488.44L-881.53,487.25L-880.34,487.25L-880.34,486.06L-876.78,486.06L-876.78,488.44L-877.97,488.44L-877.97,489.63L-879.16,489.63L-879.16,490.81L-881.53,490.81L-881.53,492L-886.28,492L-886.28,490.81L-888.66,490.81L-888.66,489.63L-889.84,489.63L-889.84,487.25ZM-887.47,481.31L-880.34,481.31L-880.34,478.94L-881.53,478.94L-881.53,477.75L-886.28,477.75L-886.28,478.94L-887.47,478.94ZM-873.26,492L-873.26,474.19L-869.69,474.19L-869.69,476.56L-868.51,476.56L-868.51,475.38L-867.32,475.38L-867.32,474.19L-862.57,474.19L-862.57,475.38L-861.38,475.38L-861.38,476.56L-860.19,476.56L-860.19,478.94L-861.38,478.94L-861.38,480.13L-862.57,480.13L-862.57,478.94L-863.76,478.94L-863.76,477.75L-867.32,477.75L-867.32,478.94L-868.51,478.94L-868.51,480.13L-869.69,480.13L-869.69,492ZM-857.15,492L-857.15,474.19L-853.59,474.19L-853.59,476.56L-852.40,476.56L-852.40,475.38L-851.21,475.38L-851.21,474.19L-847.65,474.19L-847.65,475.38L-846.46,475.38L-846.46,476.56L-844.09,476.56L-844.09,475.38L-842.90,475.38L-842.90,474.19L-838.15,474.19L-838.15,475.38L-836.96,475.38L-836.96,476.56L-835.78,476.56L-835.78,478.94L-834.59,478.94L-834.59,492L-838.15,492L-838.15,478.94L-839.34,478.94L-839.34,477.75L-842.90,477.75L-842.90,478.94L-844.09,478.94L-844.09,492L-847.65,492L-847.65,478.94L-848.84,478.94L-848.84,477.75L-851.21,477.75L-851.21,478.94L-852.40,478.94L-852.40,480.13L-853.59,480.13L-853.59,492ZM-830.69,492L-830.69,474.19L-827.13,474.19L-827.13,492ZM-830.69,471.81L-830.69,468.25L-827.13,468.25L-827.13,471.81ZM-822.97,492L-822.97,474.19L-819.41,474.19L-819.41,476.56L-818.22,476.56L-818.22,475.38L-817.04,475.38L-817.04,474.19L-813.47,474.19L-813.47,475.38L-811.10,475.38L-811.10,476.56L-809.91,476.56L-809.91,478.94L-808.72,478.94L-808.72,492L-812.29,492L-812.29,478.94L-813.47,478.94L-813.47,477.75L-817.04,477.75L-817.04,478.94L-818.22,478.94L-818.22,480.13L-819.41,480.13L-819.41,492ZM-805.38,487.25L-805.38,478.94L-804.20,478.94L-804.20,476.56L-803.01,476.56L-803.01,475.38L-800.63,475.38L-800.63,474.19L-795.88,474.19L-795.88,475.38L-794.70,475.38L-794.70,476.56L-793.51,476.56L-793.51,474.19L-789.95,474.19L-789.95,492L-793.51,492L-793.51,489.63L-794.70,489.63L-794.70,490.81L-795.88,490.81L-795.88,492L-800.63,492L-800.63,490.81L-803.01,490.81L-803.01,489.63L-804.20,489.63L-804.20,487.25ZM-801.82,487.25L-800.63,487.25L-800.63,488.44L-795.88,488.44L-795.88,487.25L-794.70,487.25L-794.70,486.06L-793.51,486.06L-793.51,480.13L-794.70,480.13L-794.70,478.94L-795.88,478.94L-795.88,477.75L-800.63,477.75L-800.63,478.94L-801.82,478.94ZM-785.94,492L-785.94,468.25L-782.38,468.25L-782.38,492ZM-778.89,483.69L-778.89,480.13L-765.82,480.13L-765.82,483.69ZM-762.89,484.88L-762.89,475.38L-761.71,475.38L-761.71,473L-760.52,473L-760.52,471.81L-759.33,471.81L-759.33,470.63L-758.14,470.63L-758.14,469.44L-754.58,469.44L-754.58,468.25L-748.64,468.25L-748.64,469.44L-745.08,469.44L-745.08,470.63L-743.89,470.63L-743.89,473L-742.71,473L-742.71,474.19L-741.52,474.19L-741.52,475.38L-746.27,475.38L-746.27,474.19L-747.46,474.19L-747.46,473L-749.83,473L-749.83,471.81L-753.39,471.81L-753.39,473L-755.77,473L-755.77,474.19L-756.96,474.19L-756.96,475.38L-758.14,475.38L-758.14,477.75L-759.33,477.75L-759.33,482.50L-758.14,482.50L-758.14,484.88L-756.96,484.88L-756.96,486.06L-755.77,486.06L-755.77,487.25L-753.39,487.25L-753.39,488.44L-749.83,488.44L-749.83,487.25L-747.46,487.25L-747.46,486.06L-746.27,486.06L-746.27,484.88L-745.08,484.88L-745.08,482.50L-752.21,482.50L-752.21,478.94L-741.52,478.94L-741.52,486.06L-742.71,486.06L-742.71,487.25L-743.89,487.25L-743.89,489.63L-745.08,489.63L-745.08,490.81L-748.64,490.81L-748.64,492L-754.58,492L-754.58,490.81L-758.14,490.81L-758.14,489.63L-759.33,489.63L-759.33,488.44L-760.52,488.44L-760.52,487.25L-761.71,487.25L-761.71,484.88ZM-737.81,492L-737.81,474.19L-734.24,474.19L-734.24,476.56L-733.06,476.56L-733.06,475.38L-731.87,475.38L-731.87,474.19L-727.12,474.19L-727.12,475.38L-725.93,475.38L-725.93,476.56L-724.74,476.56L-724.74,478.94L-725.93,478.94L-725.93,480.13L-727.12,480.13L-727.12,478.94L-728.31,478.94L-728.31,477.75L-731.87,477.75L-731.87,478.94L-733.06,478.94L-733.06,480.13L-734.24,480.13L-734.24,492ZM-722.11,487.25L-722.11,478.94L-720.92,478.94L-720.92,476.56L-719.73,476.56L-719.73,475.38L-717.36,475.38L-717.36,474.19L-712.61,474.19L-712.61,475.38L-710.23,475.38L-710.23,476.56L-709.05,476.56L-709.05,478.94L-707.86,478.94L-707.86,487.25L-709.05,487.25L-709.05,489.63L-710.23,489.63L-710.23,490.81L-712.61,490.81L-712.61,492L-717.36,492L-717.36,490.81L-719.73,490.81L-719.73,489.63L-720.92,489.63L-720.92,487.25ZM-718.55,487.25L-717.36,487.25L-717.36,488.44L-712.61,488.44L-712.61,487.25L-711.42,487.25L-711.42,478.94L-712.61,478.94L-712.61,477.75L-717.36,477.75L-717.36,478.94L-718.55,478.94ZM-704.85,477.75L-704.85,474.19L-702.48,474.19L-702.48,469.44L-698.92,469.44L-698.92,474.19L-694.17,474.19L-694.17,477.75L-698.92,477.75L-698.92,492L-702.48,492L-702.48,477.75ZM-691.38,487.25L-691.38,478.94L-690.20,478.94L-690.20,476.56L-689.01,476.56L-689.01,475.38L-686.63,475.38L-686.63,474.19L-681.88,474.19L-681.88,475.38L-679.51,475.38L-679.51,476.56L-678.32,476.56L-678.32,478.94L-677.13,478.94L-677.13,483.69L-687.82,483.69L-687.82,487.25L-686.63,487.25L-686.63,488.44L-681.88,488.44L-681.88,487.25L-680.70,487.25L-680.70,486.06L-677.13,486.06L-677.13,488.44L-678.32,488.44L-678.32,489.63L-679.51,489.63L-679.51,490.81L-681.88,490.81L-681.88,492L-686.63,492L-686.63,490.81L-689.01,490.81L-689.01,489.63L-690.20,489.63L-690.20,487.25ZM-687.82,481.31L-680.70,481.31L-680.70,478.94L-681.88,478.94L-681.88,477.75L-686.63,477.75L-686.63,478.94L-687.82,478.94ZM-673.79,489.63L-673.79,487.25L-672.61,487.25L-672.61,486.06L-671.42,486.06L-671.42,487.25L-670.23,487.25L-670.23,488.44L-669.04,488.44L-669.04,489.63L-666.67,489.63L-666.67,488.44L-665.48,488.44L-665.48,486.06L-666.67,486.06L-666.67,484.88L-667.86,484.88L-667.86,483.69L-670.23,483.69L-670.23,482.50L-671.42,482.50L-671.42,481.31L-672.61,481.31L-672.61,480.13L-673.79,480.13L-673.79,476.56L-672.61,476.56L-672.61,475.38L-671.42,475.38L-671.42,474.19L-664.29,474.19L-664.29,475.38L-663.11,475.38L-663.11,478.94L-665.48,478.94L-665.48,477.75L-666.67,477.75L-666.67,476.56L-669.04,476.56L-669.04,477.75L-670.23,477.75L-670.23,478.94L-669.04,478.94L-669.04,480.13L-667.86,480.13L-667.86,481.31L-665.48,481.31L-665.48,482.50L-664.29,482.50L-664.29,483.69L-663.11,483.69L-663.11,484.88L-661.92,484.88L-661.92,489.63L-663.11,489.63L-663.11,490.81L-664.29,490.81L-664.29,492L-671.42,492L-671.42,490.81L-672.61,490.81L-672.61,489.63ZM-658.76,487.25L-658.76,478.94L-657.58,478.94L-657.58,476.56L-656.39,476.56L-656.39,475.38L-654.01,475.38L-654.01,474.19L-649.26,474.19L-649.26,475.38L-648.08,475.38L-648.08,476.56L-646.89,476.56L-646.89,474.19L-643.33,474.19L-643.33,499.13L-646.89,499.13L-646.89,489.63L-648.08,489.63L-648.08,490.81L-649.26,490.81L-649.26,492L-654.01,492L-654.01,490.81L-656.39,490.81L-656.39,489.63L-657.58,489.63L-657.58,487.25ZM-655.20,487.25L-654.01,487.25L-654.01,488.44L-649.26,488.44L-649.26,487.25L-648.08,487.25L-648.08,486.06L-646.89,486.06L-646.89,480.13L-648.08,480.13L-648.08,478.94L-649.26,478.94L-649.26,477.75L-654.01,477.75L-654.01,478.94L-655.20,478.94ZM-639.28,489.63L-639.28,474.19L-635.72,474.19L-635.72,487.25L-634.53,487.25L-634.53,488.44L-630.97,488.44L-630.97,487.25L-629.78,487.25L-629.78,486.06L-628.59,486.06L-628.59,474.19L-625.03,474.19L-625.03,492L-628.59,492L-628.59,489.63L-629.78,489.63L-629.78,490.81L-630.97,490.81L-630.97,492L-636.91,492L-636.91,490.81L-638.09,490.81L-638.09,489.63ZM-621.58,487.25L-621.58,478.94L-620.39,478.94L-620.39,476.56L-619.21,476.56L-619.21,475.38L-616.83,475.38L-616.83,474.19L-612.08,474.19L-612.08,475.38L-609.71,475.38L-609.71,476.56L-608.52,476.56L-608.52,478.94L-607.33,478.94L-607.33,483.69L-618.02,483.69L-618.02,487.25L-616.83,487.25L-616.83,488.44L-612.08,488.44L-612.08,487.25L-610.89,487.25L-610.89,486.06L-607.33,486.06L-607.33,488.44L-608.52,488.44L-608.52,489.63L-609.71,489.63L-609.71,490.81L-612.08,490.81L-612.08,492L-616.83,492L-616.83,490.81L-619.21,490.81L-619.21,489.63L-620.39,489.63L-620.39,487.25ZM-618.02,481.31L-610.89,481.31L-610.89,478.94L-612.08,478.94L-612.08,477.75L-616.83,477.75L-616.83,478.94L-618.02,478.94Z"/>
</svg>