<?xml version="1.0"?>
<svg xmlns="http://www.w3.org/2000/svg" width="1920" height="1080" viewBox="-960 -540 1920 1080">
    <path d="M-749,-352.50L-728,-352.50L-728,-246L-749,-246L-749,-210L-658.25,-210C-619.50,-210 -599,-231.25 -599,-259.50C-599,-283.25 -605.25,-295.25 -623,-301.50C-609.50,-307 -603,-316.50 -603,-344.75C-603,-371 -621,-390.75 -658.25,-392.50L-749,-392.50ZM-710,-310.25L-710,-352.50L-654.75,-352.50C-628.25,-352.50 -621,-342 -621,-331.75C-621,-319.75 -626.25,-310.25 -649.75,-310.25ZM-710,-246L-710,-292.25L-650.50,-292.25C-625.50,-292.25 -617.75,-281.50 -617.75,-269.75C-617.75,-255.50 -627.50,-246 -649.75,-246ZM-468.75,-210L-468.75,-209.75L-430,-209.75L-429.75,-245.75L-453.50,-245.75L-453.50,-306.75C-444.25,-306.75 -435.75,-306.50 -430.75,-306.50L-430.75,-347.50L-494.75,-347.50L-494.75,-306.50C-491.75,-306.50 -481.50,-306.75 -469.75,-306.75L-469.75,-265.75C-475.75,-251.75 -490,-243 -509,-243C-534.75,-243 -542.50,-253.25 -542.50,-281.75L-542.50,-306.75C-532.75,-306.75 -523.75,-306.50 -518.75,-306.50L-518.75,-347.50L-582.75,-347.50L-582.75,-306.50C-579.75,-306.50 -569.75,-306.75 -558.50,-306.75L-558.50,-266.75C-558.50,-222.50 -540.75,-207.50 -513,-207.50C-491.50,-207.50 -476.50,-218.25 -470,-232ZM-354.75,-387.25C-354.75,-401.75 -362.75,-407.50 -376.25,-407.50C-391.25,-407.50 -398.75,-401.50 -398.75,-387.25C-398.75,-373 -390.75,-366.25 -376.25,-366.25C-363.25,-366.25 -354.75,-373 -354.75,-387.25ZM-403.50,-245.75L-403.50,-209.75C-392.75,-210 -382.50,-210 -372.25,-210L-363.50,-210C-352.75,-210 -342,-209.75 -330.75,-209.75L-330.75,-245.75L-356,-245.75L-356,-342.50L-403.50,-342.50L-403.50,-301.50L-372.25,-301.50L-372.25,-245.75ZM-266.25,-207.50C-248.25,-207.50 -238,-215 -232.50,-223L-239.50,-250.25C-244.25,-245.25 -251.75,-242.50 -261.75,-242.50C-276.25,-242.50 -281.75,-251.25 -281.75,-266.25L-281.75,-410.25L-323.25,-410.25L-323.25,-366.50L-298.75,-366.50L-298.75,-247.25C-298.75,-219.25 -288.25,-207.50 -266.25,-207.50ZM-120.25,-210L-77,-210L-77,-246L-106.50,-246L-106.50,-410L-152.75,-410L-152.75,-366.25L-122.75,-366.25L-122.75,-325.25C-131.25,-344 -148.50,-349.75 -164.25,-350C-195.25,-350.25 -216.25,-330.25 -216.25,-276.50C-216.25,-232.75 -196.75,-207.50 -163.25,-207.50C-145,-207.50 -129.75,-217.75 -122,-231.50ZM-162.25,-237C-188.50,-237 -201.75,-252.75 -201.50,-276.25C-201.50,-294.75 -188.25,-309.50 -162.75,-309.50C-133.75,-309.50 -123,-295 -122.75,-276.50L-122.75,-252C-131.25,-240 -143.75,-237 -162.25,-237ZM136.25,-267.25L136.25,-246L55.75,-246L55.75,-291.75L111.75,-291.75L111.75,-269.50L123.75,-269.50L123.75,-326.75L111.75,-326.75L111.75,-305.75L55.75,-305.75L55.75,-347.50L134.50,-347.50L134.50,-327.75L149,-327.75L149,-392.50L15.50,-392.50L15.50,-347.50L38,-347.50L38,-246L15.50,-246L15.50,-210L150.75,-210L150.75,-267.25ZM289.25,-210C299.25,-210 306.25,-213.50 310.75,-219.25L310.75,-250.25C305,-243 298.75,-240.75 291,-240.75C285,-240.75 279.75,-243.75 277.75,-249.50L277.75,-289C277.75,-335.25 262.50,-350 228.50,-350C209.75,-350 194,-344.25 184.50,-333L185.50,-300.75C192.25,-308.75 204.75,-315.50 226,-315.50C249.50,-315.50 260.50,-305.75 261.75,-282.25C251.25,-289.50 233.75,-291.75 222,-291.75C192.25,-291.75 172,-275 172,-248.75C172,-224.50 189,-207.50 224.50,-207.50C240.75,-207.50 256.50,-214.25 265,-223.50C270,-214.75 278.50,-210 289.25,-210ZM224.75,-238.75C201.50,-238.75 191.50,-245 191.50,-256C191.50,-267.50 202,-274 226.50,-274C240.50,-274 251.75,-270.25 262,-262.50L262,-249.75C254,-242.25 240.25,-238.75 224.75,-238.75ZM327.50,-245.50L327.50,-209.50C334.50,-209.75 375.75,-209.75 389.75,-209.50L389.75,-245.50L367.25,-245.50L367.25,-281.25C367.25,-298.75 376.25,-308.50 388.50,-308.50C399.75,-308.50 405.75,-305.75 408.75,-299.25L418.25,-340.75C411.75,-346.25 406,-350 394,-350C383.75,-350 371.25,-343 365.50,-328L357,-347.50L327.50,-347.50L327.50,-306.50C333.50,-306.50 340.50,-306.75 350.75,-306.50L350.75,-245.50ZM519.75,-223.50L513,-248.75C509,-244.25 500.50,-240.75 490,-241C477.75,-241.25 469.25,-247.50 469.25,-265.50L469.25,-306L506.75,-306L506.75,-345L469.25,-345L469.25,-377.50L453,-377.50L453,-345L433.25,-345L433.25,-306L453,-306L453,-248.25C453,-218 467.25,-207.50 486.75,-207.50C501,-207.50 515.25,-213.50 519.75,-223.50ZM608,-210L608,-246L583,-246L583,-282.25C589.50,-299.75 603.25,-307 622.25,-307C643.50,-307 654.75,-295.50 654.75,-270.25L654.75,-246L628.25,-246L628.25,-210L694,-210L694,-246L670.50,-246L670.50,-286C670.50,-334.75 656.75,-350 626.50,-350C606,-350 590,-340.75 583,-324.25L583,-409.50L542.25,-409.50L542.25,-365.75L567,-365.75L567,-246L542.25,-246L542.25,-210Z" fill="#ffffff" stroke="#000000"/>
    <path d="M-765.05,-305.12L-744.29,-306.24L-738.60,-200.96L-759.35,-199.84L-757.43,-164.25L-667.72,-169.10C-629.41,-171.18 -610.28,-193.28 -611.79,-221.21C-613.06,-244.69 -619.88,-256.21 -637.77,-261.44C-624.71,-267.60 -618.80,-277.34 -620.31,-305.27C-621.71,-331.22 -640.56,-349.78 -677.48,-349.52L-767.19,-344.66ZM-724.24,-265.44L-726.50,-307.21L-671.88,-310.16C-645.68,-311.58 -637.95,-301.59 -637.41,-291.45C-636.76,-279.59 -641.45,-269.92 -664.68,-268.66ZM-720.80,-201.92L-723.27,-247.65L-664.46,-250.83C-639.74,-252.16 -631.51,-241.95 -630.88,-230.34C-630.12,-216.25 -639.25,-206.34 -661.24,-205.15ZM-480.39,-179.24L-480.37,-178.99L-442.07,-181.07L-443.75,-216.67L-467.22,-215.40L-470.49,-275.70C-461.34,-276.19 -452.93,-276.40 -447.98,-276.67L-450.18,-317.20L-513.44,-313.78L-511.25,-273.24C-508.28,-273.41 -498.17,-274.20 -486.55,-274.83L-484.36,-234.30C-489.54,-220.14 -503.16,-210.73 -521.94,-209.71C-547.40,-208.33 -555.61,-218.05 -557.13,-246.22L-558.47,-270.94C-548.83,-271.46 -539.92,-271.69 -534.98,-271.96L-537.17,-312.49L-600.44,-309.07L-598.24,-268.54C-595.28,-268.70 -585.41,-269.48 -574.28,-270.08L-572.15,-230.54C-569.78,-186.80 -551.43,-172.92 -524.00,-174.40C-502.74,-175.55 -488.49,-186.98 -482.80,-200.92ZM-377.17,-360.56C-377.95,-374.89 -386.16,-380.15 -399.51,-379.43C-414.34,-378.62 -421.43,-372.29 -420.67,-358.20C-419.91,-344.12 -411.64,-337.87 -397.30,-338.65C-384.45,-339.34 -376.41,-346.47 -377.17,-360.56ZM-417.80,-218.07L-415.87,-182.48C-405.26,-183.30 -395.12,-183.85 -384.99,-184.40L-376.34,-184.87C-365.71,-185.44 -355.07,-185.77 -343.95,-186.37L-345.88,-221.96L-370.84,-220.61L-376.01,-316.25L-422.97,-313.71L-420.78,-273.18L-389.89,-274.85L-386.90,-219.74ZM-280.07,-187.60C-262.28,-188.56 -252.55,-196.52 -247.54,-204.73L-255.91,-231.29C-260.34,-226.09 -267.61,-222.97 -277.49,-222.44C-291.83,-221.66 -297.73,-230.02 -298.54,-244.85L-306.24,-387.20L-347.26,-384.98L-344.92,-341.73L-320.70,-343.04L-314.33,-225.16C-312.83,-197.48 -301.82,-186.42 -280.07,-187.60ZM-135.88,-197.88L-93.12,-200.19L-95.05,-235.78L-124.21,-234.20L-132.98,-396.32L-178.70,-393.85L-176.36,-350.60L-146.70,-352.21L-144.51,-311.68C-153.92,-329.76 -171.28,-334.52 -186.86,-333.92C-217.52,-332.51 -237.21,-311.62 -234.33,-258.48C-231.99,-215.23 -211.37,-191.32 -178.25,-193.11C-160.21,-194.08 -145.68,-205.03 -138.76,-219.04ZM-178.84,-222.32C-204.79,-220.92 -218.73,-235.78 -219.74,-259.02C-220.73,-277.31 -208.42,-292.60 -183.21,-293.97C-154.54,-295.52 -143.14,-281.76 -141.90,-263.48L-140.59,-239.26C-148.35,-226.95 -160.55,-223.31 -178.84,-222.32ZM114.63,-268.19L115.76,-247.18L36.18,-242.88L33.74,-288.11L89.10,-291.10L90.29,-269.11L102.15,-269.75L99.09,-326.34L87.22,-325.70L88.35,-304.94L32.99,-301.95L30.76,-343.22L108.60,-347.43L109.66,-327.91L123.99,-328.68L120.53,-392.69L-11.44,-385.55L-9.03,-341.07L13.21,-342.27L18.64,-241.93L-3.61,-240.73L-1.68,-205.14L132.02,-212.37L128.96,-268.97ZM268.94,-219.78C278.82,-220.31 285.56,-224.15 289.70,-230.07L288.04,-260.72C282.74,-253.24 276.68,-250.69 269.02,-250.27C263.09,-249.95 257.74,-252.64 255.46,-258.21L253.34,-297.26C250.87,-342.98 235.01,-356.75 201.39,-354.93C182.86,-353.93 167.60,-347.40 158.81,-335.77L161.52,-303.94C167.77,-312.21 179.76,-319.55 200.77,-320.69C224.00,-321.95 235.40,-312.90 237.89,-289.73C227.12,-296.34 209.70,-297.63 198.08,-297.00C168.68,-295.41 149.55,-277.76 150.96,-251.82C152.25,-227.84 169.97,-211.95 205.06,-213.85C221.13,-214.71 236.33,-222.23 244.24,-231.83C249.65,-223.45 258.31,-219.20 268.94,-219.78ZM203.64,-244.75C180.65,-243.51 170.43,-249.15 169.85,-260.03C169.23,-271.39 179.26,-278.38 203.48,-279.69C217.32,-280.44 228.64,-277.33 239.19,-270.22L239.87,-257.62C232.37,-249.78 218.96,-245.58 203.64,-244.75ZM304.85,-256.92L306.78,-221.33C313.68,-221.95 354.46,-224.16 368.31,-224.66L366.39,-260.25L344.15,-259.05L342.23,-294.39C341.30,-311.69 349.67,-321.81 361.78,-322.46C372.90,-323.06 378.98,-320.66 382.30,-314.40L389.47,-355.93C382.75,-361.02 376.86,-364.42 365.00,-363.78C354.87,-363.23 342.89,-355.64 338.00,-340.51L328.56,-359.33L299.40,-357.75L301.59,-317.22C307.52,-317.54 314.43,-318.16 324.57,-318.46L327.83,-258.16ZM496.08,-245.45L488.05,-270.05C484.34,-265.39 476.12,-261.48 465.73,-261.16C453.61,-260.75 444.87,-266.48 443.91,-284.27L441.74,-324.31L478.81,-326.31L476.73,-364.87L439.66,-362.86L437.92,-394.99L421.85,-394.12L423.59,-361.99L404.07,-360.94L406.15,-322.38L425.68,-323.44L428.77,-266.35C430.38,-236.45 445.03,-226.83 464.31,-227.87C478.40,-228.63 492.16,-235.33 496.08,-245.45ZM584.04,-236.83L582.11,-272.42L557.40,-271.08L555.46,-306.91C560.95,-324.56 574.16,-332.46 592.94,-333.48C613.94,-334.62 625.68,-323.85 627.03,-298.89L628.33,-274.92L602.13,-273.50L604.06,-237.91L669.05,-241.43L667.13,-277.01L643.90,-275.76L641.76,-315.30C639.15,-363.49 624.74,-377.83 594.84,-376.21C574.57,-375.12 559.25,-365.12 553.21,-348.43L548.66,-432.71L508.37,-430.53L510.71,-387.28L535.18,-388.60L541.58,-270.22L517.12,-268.90L519.04,-233.31Z" fill="#ffffff" stroke="#000000"/>
    <path d="M-778.06,-257.13L-757.60,-259.35L-746.34,-155.59L-766.80,-153.37L-763.00,-118.29L-674.58,-127.89C-636.83,-131.98 -619.10,-154.85 -622.09,-182.38C-624.60,-205.52 -631.96,-216.55 -649.91,-220.76C-637.34,-227.55 -632.01,-237.49 -635.00,-265.01C-637.77,-290.59 -657.40,-307.93 -693.88,-305.69L-782.29,-296.10ZM-735.60,-220.09L-740.07,-261.25L-686.24,-267.09C-660.42,-269.89 -652.24,-260.43 -651.16,-250.44C-649.89,-238.75 -654.00,-228.94 -676.90,-226.46ZM-728.81,-157.49L-733.70,-202.55L-675.73,-208.84C-651.37,-211.48 -642.68,-201.83 -641.44,-190.38C-639.93,-176.50 -648.43,-166.21 -670.11,-163.86ZM-489.95,-147.92L-489.93,-147.68L-452.17,-151.78L-455.74,-186.88L-478.88,-184.37L-485.33,-243.80C-476.31,-244.77 -468.01,-245.43 -463.13,-245.96L-467.47,-285.90L-529.82,-279.14L-525.49,-239.19C-522.57,-239.51 -512.61,-240.84 -501.16,-242.08L-496.82,-202.13C-501.19,-187.86 -514.15,-177.83 -532.66,-175.82C-557.75,-173.10 -566.38,-182.26 -569.39,-210.03L-572.04,-234.39C-562.54,-235.42 -553.74,-236.13 -548.87,-236.65L-553.21,-276.60L-615.56,-269.83L-611.22,-229.89C-608.30,-230.20 -598.59,-231.51 -587.63,-232.70L-583.40,-193.72C-578.72,-150.61 -559.84,-137.87 -532.80,-140.81C-511.85,-143.08 -498.38,-155.14 -493.50,-169.22ZM-397.63,-332.67C-399.16,-346.79 -407.56,-351.55 -420.72,-350.12C-435.33,-348.54 -442.00,-341.90 -440.50,-328.02C-438.99,-314.13 -430.48,-308.40 -416.35,-309.93C-403.69,-311.31 -396.12,-318.78 -397.63,-332.67ZM-430.16,-189.65L-426.36,-154.58C-415.91,-155.96 -405.92,-157.04 -395.94,-158.13L-387.41,-159.05C-376.94,-160.19 -366.44,-161.08 -355.48,-162.27L-359.28,-197.34L-383.88,-194.67L-394.11,-288.94L-440.39,-283.91L-436.06,-243.97L-405.61,-247.27L-399.72,-192.96ZM-292.40,-166.90C-274.86,-168.80 -265.67,-177.19 -261.15,-185.57L-270.86,-211.38C-274.96,-206.00 -281.97,-202.53 -291.71,-201.47C-305.84,-199.94 -312.13,-207.88 -313.71,-222.50L-328.94,-362.79L-369.37,-358.41L-364.74,-315.78L-340.87,-318.37L-328.26,-202.19C-325.30,-174.91 -313.83,-164.57 -292.40,-166.90ZM-150.42,-184.77L-108.28,-189.34L-112.09,-224.42L-140.83,-221.30L-158.17,-381.08L-203.23,-376.19L-198.60,-333.57L-169.37,-336.74L-165.04,-296.79C-175.30,-314.16 -192.72,-317.94 -208.09,-316.52C-238.32,-313.48 -256.66,-291.78 -250.98,-239.41C-246.35,-196.78 -224.69,-174.25 -192.05,-177.79C-174.27,-179.72 -160.49,-191.32 -154.40,-205.53ZM-194.19,-206.64C-219.77,-203.86 -234.34,-217.80 -236.58,-240.73C-238.54,-258.75 -227.19,-274.52 -202.34,-277.22C-174.09,-280.28 -162.08,-267.29 -159.88,-249.30L-157.29,-225.43C-164.31,-212.84 -176.17,-208.59 -194.19,-206.64ZM93.43,-267.67L95.68,-246.96L17.25,-238.45L12.41,-283.03L66.97,-288.95L69.32,-267.27L81.02,-268.54L74.96,-324.32L63.27,-323.05L65.49,-302.59L10.93,-296.67L6.52,-337.34L83.24,-345.67L85.33,-326.43L99.46,-327.96L92.61,-391.04L-37.45,-376.93L-32.70,-333.09L-10.78,-335.47L-0.04,-236.58L-21.97,-234.20L-18.16,-199.12L113.61,-213.42L107.56,-269.20ZM248.55,-228.07C258.29,-229.12 264.74,-233.27 268.52,-239.35L265.24,-269.55C260.41,-261.88 254.55,-259.03 247.00,-258.21C241.16,-257.58 235.73,-259.94 233.17,-265.34L228.99,-303.82C224.10,-348.88 207.69,-361.64 174.56,-358.04C156.29,-356.06 141.56,-348.79 133.49,-336.83L137.87,-305.51C143.60,-314.02 155.07,-321.92 175.77,-324.17C198.67,-326.65 210.42,-318.31 214.12,-295.55C203.12,-301.50 185.83,-301.85 174.39,-300.60C145.40,-297.46 127.44,-279.00 130.22,-253.42C132.78,-229.80 151.14,-215.03 185.73,-218.79C201.56,-220.50 216.19,-228.74 223.50,-238.66C229.29,-230.66 238.08,-226.93 248.55,-228.07ZM182.67,-249.26C160.02,-246.80 149.61,-251.83 148.45,-262.55C147.23,-273.75 156.78,-281.20 180.65,-283.79C194.29,-285.27 205.64,-282.80 216.45,-276.34L217.80,-263.91C210.80,-255.76 197.77,-250.90 182.67,-249.26ZM282.06,-266.70L285.87,-231.62C292.66,-232.61 332.85,-236.97 346.52,-238.21L342.71,-273.28L320.79,-270.90L317.01,-305.73C315.16,-322.78 322.90,-333.23 334.83,-334.53C345.79,-335.72 351.93,-333.67 355.54,-327.66L360.41,-369.09C353.49,-373.76 347.49,-376.81 335.80,-375.54C325.82,-374.46 314.38,-366.32 310.36,-351.09L300.02,-369.19L271.28,-366.07L275.61,-326.13C281.46,-326.76 288.25,-327.75 298.27,-328.59L304.71,-269.16ZM471.69,-265.59L462.45,-289.48C459.03,-284.67 451.12,-280.36 440.86,-279.50C428.90,-278.44 419.96,-283.63 418.05,-301.17L413.77,-340.63L450.31,-344.59L446.18,-382.59L409.65,-378.63L406.21,-410.29L390.38,-408.57L393.81,-376.91L374.57,-374.82L378.70,-336.82L397.94,-338.91L404.04,-282.65C407.24,-253.17 422.24,-244.45 441.23,-246.51C455.12,-248.02 468.37,-255.37 471.69,-265.59ZM559.10,-261.77L555.30,-296.84L530.94,-294.20L527.11,-329.52C531.59,-347.25 544.22,-355.77 562.73,-357.78C583.43,-360.03 595.61,-350.01 598.28,-325.41L600.84,-301.79L575.02,-298.98L578.83,-263.91L642.89,-270.86L639.08,-305.94L616.19,-303.45L611.96,-342.42C606.80,-389.92 591.80,-403.32 562.32,-400.12C542.35,-397.96 527.74,-387.25 522.66,-370.44L513.65,-453.49L473.95,-449.19L478.58,-406.56L502.69,-409.18L515.35,-292.51L491.24,-289.89L495.04,-254.82Z" fill="#ffffff" stroke="#000000"/>
    <path d="M-788.02,-208.72L-767.92,-212.00L-751.24,-110.05L-771.34,-106.77L-765.71,-72.30L-678.83,-86.51C-641.74,-92.58 -625.44,-116.14 -629.87,-143.18C-633.59,-165.91 -641.45,-176.42 -659.42,-179.63C-647.36,-187.00 -642.62,-197.12 -647.05,-224.16C-651.16,-249.29 -671.48,-265.38 -707.41,-261.22L-794.29,-247.01ZM-744.07,-174.38L-750.69,-214.82L-697.80,-223.47C-672.43,-227.62 -663.85,-218.71 -662.24,-208.90C-660.36,-197.41 -663.90,-187.49 -686.40,-183.81ZM-734.01,-112.87L-741.25,-157.15L-684.29,-166.46C-660.36,-170.38 -651.26,-161.30 -649.42,-150.05C-647.19,-136.41 -655.03,-125.79 -676.33,-122.31ZM-497.43,-116.19L-497.39,-115.95L-460.30,-122.02L-465.69,-156.52L-488.43,-152.80L-497.98,-211.19C-489.13,-212.64 -480.95,-213.73 -476.16,-214.52L-482.59,-253.77L-543.85,-243.74L-537.43,-204.50C-534.56,-204.97 -524.79,-206.81 -513.54,-208.65L-507.12,-169.40C-510.67,-155.06 -522.94,-144.45 -541.13,-141.48C-565.78,-137.44 -574.80,-146.04 -579.26,-173.33L-583.18,-197.26C-573.85,-198.78 -565.19,-199.95 -560.41,-200.74L-566.83,-239.99L-628.09,-229.96L-621.67,-190.71C-618.80,-191.18 -609.27,-192.99 -598.50,-194.75L-592.23,-156.46C-585.30,-114.10 -565.96,-102.52 -539.40,-106.87C-518.82,-110.23 -506.14,-122.87 -502.07,-137.05ZM-416.06,-303.72C-418.33,-317.60 -426.89,-321.85 -439.81,-319.74C-454.17,-317.39 -460.41,-310.47 -458.18,-296.83C-455.95,-283.19 -447.23,-277.98 -433.35,-280.25C-420.91,-282.28 -413.83,-290.08 -416.06,-303.72ZM-440.57,-160.63L-434.93,-126.17C-424.68,-128.09 -414.86,-129.70 -405.05,-131.30L-396.68,-132.67C-386.39,-134.35 -376.06,-135.80 -365.29,-137.56L-370.92,-172.02L-395.10,-168.07L-410.25,-260.68L-455.72,-253.25L-449.30,-214.00L-419.38,-218.89L-410.65,-165.52ZM-303.19,-145.51C-285.96,-148.33 -277.32,-157.11 -273.31,-165.63L-284.28,-190.62C-288.04,-185.09 -294.79,-181.28 -304.36,-179.72C-318.24,-177.45 -324.88,-184.96 -327.23,-199.32L-349.78,-337.17L-389.50,-330.67L-382.65,-288.79L-359.20,-292.62L-340.53,-178.47C-336.14,-151.67 -324.25,-142.06 -303.19,-145.51ZM-163.82,-170.76L-122.42,-177.54L-128.05,-212.00L-156.29,-207.38L-181.98,-364.37L-226.25,-357.13L-219.40,-315.25L-190.68,-319.95L-184.26,-280.70C-195.33,-297.32 -212.75,-300.12 -227.86,-297.89C-257.58,-293.28 -274.55,-270.84 -266.13,-219.39C-259.28,-177.51 -236.66,-156.39 -204.59,-161.64C-187.12,-164.49 -174.13,-176.69 -168.86,-191.07ZM-208.25,-190.03C-233.38,-185.92 -248.53,-198.92 -251.97,-221.46C-254.87,-239.17 -244.50,-255.36 -220.08,-259.36C-192.32,-263.90 -179.76,-251.70 -176.63,-234.03L-172.79,-210.58C-179.05,-197.76 -190.54,-192.93 -208.25,-190.03ZM72.76,-265.73L76.08,-245.39L-0.98,-232.79L-8.14,-276.58L45.47,-285.35L48.95,-264.05L60.44,-265.93L51.47,-320.73L39.99,-318.86L43.27,-298.75L-10.33,-289.98L-16.87,-329.95L58.52,-342.28L61.61,-323.38L75.49,-325.65L65.35,-387.63L-62.45,-366.72L-55.40,-323.65L-33.86,-327.17L-17.97,-230.01L-39.51,-226.48L-33.87,-192.02L95.60,-213.20L86.64,-268.00ZM228.19,-234.89C237.76,-236.46 243.91,-240.90 247.32,-247.11L242.46,-276.79C238.09,-268.95 232.46,-265.81 225.05,-264.60C219.30,-263.66 213.81,-265.71 210.99,-270.90L204.81,-308.71C197.56,-352.99 180.65,-364.72 148.11,-359.39C130.16,-356.46 115.98,-348.49 108.65,-336.23L114.66,-305.52C119.87,-314.23 130.77,-322.65 151.12,-325.98C173.61,-329.66 185.67,-322.05 190.55,-299.75C179.36,-305.04 162.25,-304.46 151.01,-302.62C122.53,-297.96 105.77,-278.75 109.88,-253.62C113.67,-230.41 132.61,-216.80 166.59,-222.36C182.15,-224.90 196.17,-233.83 202.86,-244.01C209.01,-236.42 217.89,-233.21 228.19,-234.89ZM161.94,-252.31C139.68,-248.67 129.13,-253.09 127.41,-263.62C125.61,-274.63 134.64,-282.49 158.09,-286.33C171.50,-288.52 182.85,-286.69 193.88,-280.88L195.87,-268.67C189.39,-260.24 176.78,-254.74 161.94,-252.31ZM259.24,-274.86L264.88,-240.40C271.54,-241.74 311.03,-248.20 324.47,-250.15L318.83,-284.61L297.29,-281.09L291.70,-315.31C288.96,-332.06 296.04,-342.80 307.77,-344.72C318.54,-346.48 324.71,-344.79 328.60,-339.04L331.20,-380.25C324.12,-384.50 318.02,-387.19 306.54,-385.31C296.72,-383.71 285.85,-375.05 282.70,-359.79L271.51,-377.12L243.27,-372.50L249.69,-333.26C255.43,-334.20 262.10,-335.53 271.95,-336.90L281.50,-278.50ZM446.72,-283.91L436.31,-307.02C433.18,-302.09 425.59,-297.41 415.50,-296.00C403.74,-294.32 394.62,-298.97 391.80,-316.21L385.46,-354.97L421.36,-360.85L415.25,-398.18L379.35,-392.31L374.27,-423.42L358.71,-420.88L363.80,-389.76L344.89,-386.67L351.00,-349.34L369.91,-352.43L378.95,-297.15C383.69,-268.19 398.97,-260.37 417.64,-263.42C431.28,-265.66 443.98,-273.63 446.72,-283.91ZM533.32,-284.80L527.68,-319.27L503.75,-315.35L498.07,-350.05C501.55,-367.82 513.58,-376.92 531.77,-379.89C552.11,-383.22 564.68,-373.97 568.64,-349.80L572.43,-326.59L547.06,-322.44L552.70,-287.98L615.64,-298.27L610.01,-332.73L587.51,-329.05L581.25,-367.34C573.61,-414.01 558.06,-426.46 529.10,-421.72C509.48,-418.51 495.61,-407.15 491.49,-390.26L478.14,-471.87L439.14,-465.48L445.99,-423.60L469.68,-427.48L488.43,-312.85L464.74,-308.97L470.38,-274.51Z" fill="#ffffff" stroke="#000000"/>
    <path d="M-794.93,-160.08L-775.24,-164.41L-753.30,-64.55L-772.99,-60.22L-765.58,-26.47L-680.49,-45.15C-644.15,-53.13 -629.31,-77.28 -635.13,-103.77C-640.02,-126.04 -648.35,-136.00 -666.28,-138.21C-654.75,-146.15 -650.62,-156.39 -656.43,-182.88C-661.84,-207.49 -682.78,-222.31 -718.07,-216.28L-803.16,-197.59ZM-749.66,-128.50L-758.36,-168.11L-706.55,-179.49C-681.70,-184.95 -672.74,-176.60 -670.63,-166.98C-668.16,-155.73 -671.13,-145.74 -693.16,-140.90ZM-736.43,-68.25L-745.95,-111.62L-690.16,-123.87C-666.72,-129.02 -657.24,-120.54 -654.82,-109.52C-651.88,-96.16 -659.07,-85.24 -679.93,-80.66ZM-502.80,-84.18L-502.75,-83.95L-466.42,-91.93L-473.60,-125.73L-495.87,-120.84L-508.43,-178.04C-499.76,-179.94 -491.73,-181.46 -487.05,-182.49L-495.49,-220.93L-555.50,-207.75L-547.06,-169.31C-544.24,-169.93 -534.68,-172.27 -523.67,-174.69L-515.22,-136.25C-517.96,-121.88 -529.52,-110.75 -547.34,-106.83C-571.48,-101.53 -580.86,-109.55 -586.73,-136.27L-591.88,-159.71C-582.74,-161.72 -574.25,-163.34 -569.56,-164.37L-578.00,-202.81L-638.01,-189.63L-629.57,-151.19C-626.76,-151.80 -617.43,-154.10 -606.88,-156.41L-598.64,-118.91C-589.53,-77.42 -569.80,-67.01 -543.78,-72.72C-523.62,-77.15 -511.77,-90.32 -508.51,-104.55ZM-432.41,-273.86C-435.40,-287.45 -444.08,-291.19 -456.74,-288.41C-470.81,-285.33 -476.60,-278.16 -473.67,-264.79C-470.74,-251.43 -461.84,-246.75 -448.25,-249.74C-436.06,-252.41 -429.48,-260.49 -432.41,-273.86ZM-448.98,-131.14L-441.57,-97.38C-431.54,-99.83 -421.93,-101.94 -412.32,-104.05L-404.12,-105.85C-394.04,-108.07 -383.90,-110.05 -373.36,-112.36L-380.77,-146.12L-404.45,-140.92L-424.37,-231.64L-468.91,-221.86L-460.46,-183.41L-431.16,-189.85L-419.68,-137.57ZM-312.41,-123.54C-295.54,-127.24 -287.47,-136.39 -283.96,-145.02L-296.14,-169.13C-299.56,-163.46 -306.03,-159.34 -315.40,-157.28C-329.00,-154.30 -335.96,-161.37 -339.05,-175.43L-368.70,-310.45L-407.61,-301.91L-398.60,-260.89L-375.63,-265.93L-351.07,-154.12C-345.31,-127.86 -333.04,-119.01 -312.41,-123.54ZM-176.03,-155.95L-135.48,-164.86L-142.89,-198.61L-170.55,-192.54L-204.33,-346.31L-247.69,-336.79L-238.68,-295.76L-210.55,-301.94L-202.11,-263.50C-213.94,-279.33 -231.30,-281.17 -246.12,-278.16C-275.24,-272.01 -290.81,-248.93 -279.74,-198.53C-270.73,-157.51 -247.25,-137.85 -215.84,-144.75C-198.72,-148.51 -186.54,-161.26 -182.10,-175.75ZM-220.97,-172.62C-245.59,-167.21 -261.25,-179.25 -265.86,-201.34C-269.67,-218.68 -260.28,-235.24 -236.37,-240.49C-209.18,-246.46 -196.11,-235.08 -192.07,-217.79L-187.03,-194.82C-192.52,-181.81 -203.63,-176.43 -220.97,-172.62ZM52.69,-262.45L57.06,-242.53L-18.42,-225.95L-27.84,-268.85L24.67,-280.38L29.25,-259.52L40.50,-261.99L28.71,-315.67L17.46,-313.20L21.78,-293.51L-30.72,-281.97L-39.32,-321.12L34.52,-337.34L38.59,-318.82L52.18,-321.81L38.85,-382.52L-86.33,-355.03L-77.06,-312.83L-55.96,-317.47L-35.06,-222.29L-56.16,-217.66L-48.75,-183.90L78.07,-211.76L66.28,-265.44ZM207.94,-240.28C217.31,-242.34 223.16,-247.06 226.19,-253.38L219.81,-282.45C215.91,-274.47 210.51,-271.07 203.24,-269.47C197.62,-268.24 192.08,-269.97 189.02,-274.95L180.88,-311.99C171.36,-355.35 154.02,-366.04 122.14,-359.04C104.56,-355.18 90.98,-346.54 84.39,-334.04L91.97,-304.01C96.65,-312.90 106.98,-321.80 126.90,-326.18C148.94,-331.02 161.26,-324.14 167.27,-302.36C155.93,-307.00 139.06,-305.50 128.04,-303.08C100.15,-296.96 84.61,-277.08 90.02,-252.47C95.01,-229.73 114.45,-217.29 147.74,-224.60C162.98,-227.95 176.35,-237.52 182.42,-247.94C188.91,-240.77 197.86,-238.07 207.94,-240.28ZM141.54,-253.95C119.74,-249.17 109.07,-252.97 106.81,-263.28C104.44,-274.06 112.95,-282.32 135.92,-287.37C149.05,-290.25 160.37,-289.05 171.57,-283.89L174.20,-271.94C168.24,-263.26 156.07,-257.15 141.54,-253.95ZM236.49,-281.44L243.90,-247.69C250.42,-249.36 289.09,-257.86 302.27,-260.51L294.86,-294.26L273.76,-289.63L266.40,-323.15C262.80,-339.56 269.23,-350.55 280.71,-353.08C291.26,-355.39 297.45,-354.05 301.61,-348.57L301.97,-389.44C294.74,-393.26 288.58,-395.59 277.32,-393.12C267.71,-391.01 257.43,-381.87 255.13,-366.63L243.15,-383.16L215.49,-377.08L223.93,-338.64C229.55,-339.88 236.07,-341.55 245.73,-343.43L258.29,-286.23ZM421.28,-300.41L409.76,-322.69C406.93,-317.65 399.68,-312.62 389.79,-310.69C378.25,-308.40 368.99,-312.51 365.28,-329.39L356.94,-367.36L392.11,-375.09L384.07,-411.65L348.91,-403.93L342.22,-434.40L326.98,-431.06L333.68,-400.58L315.16,-396.52L323.19,-359.95L341.71,-364.02L353.60,-309.87C359.83,-281.50 375.35,-274.59 393.64,-278.61C407.00,-281.54 419.12,-290.10 421.28,-300.41ZM506.81,-305.92L499.40,-339.68L475.96,-334.53L468.49,-368.52C470.98,-386.27 482.38,-395.90 500.20,-399.81C520.12,-404.19 533.04,-395.72 538.24,-372.04L543.23,-349.31L518.39,-343.85L525.80,-310.09L587.45,-323.63L580.04,-357.39L558.00,-352.55L549.76,-390.05C539.73,-435.77 523.69,-447.23 495.33,-441.00C476.11,-436.78 463.01,-424.81 459.84,-407.90L442.29,-487.84L404.08,-479.44L413.09,-438.42L436.29,-443.52L460.96,-331.23L437.75,-326.14L445.16,-292.38Z" fill="#ffffff" stroke="#000000"/>
    <path d="M-798.79,-111.42L-779.56,-116.74L-752.55,-19.24L-771.78,-13.91L-762.65,19.04L-679.56,-3.97C-644.09,-13.80 -630.71,-38.45 -637.87,-64.32C-643.90,-86.06 -652.66,-95.46 -670.50,-96.68C-659.53,-105.14 -655.99,-115.49 -663.16,-141.35C-669.81,-165.38 -691.30,-178.90 -725.85,-171.05L-808.93,-148.04ZM-752.37,-82.63L-763.08,-121.31L-712.50,-135.32C-688.24,-142.04 -678.94,-134.27 -676.34,-124.88C-673.29,-113.90 -675.69,-103.87 -697.21,-97.91ZM-736.07,-23.81L-747.80,-66.15L-693.33,-81.24C-670.44,-87.58 -660.62,-79.70 -657.64,-68.95C-654.02,-55.90 -660.54,-44.73 -680.91,-39.09ZM-506.07,-52.03L-506.01,-51.80L-470.53,-61.63L-479.43,-94.65L-501.18,-88.63L-516.65,-144.48C-508.18,-146.82 -500.33,-148.75 -495.76,-150.02L-506.15,-187.55L-564.75,-171.32L-554.35,-133.79C-551.60,-134.55 -542.28,-137.38 -531.52,-140.36L-521.13,-102.82C-523.07,-88.48 -533.90,-76.86 -551.29,-72.04C-574.87,-65.51 -584.56,-72.92 -591.79,-99.02L-598.13,-121.90C-589.20,-124.38 -580.90,-126.43 -576.32,-127.70L-586.72,-165.24L-645.31,-149.00L-634.92,-111.47C-632.17,-112.23 -623.08,-114.99 -612.78,-117.85L-602.63,-81.23C-591.41,-40.71 -571.35,-31.48 -545.95,-38.52C-526.27,-43.97 -515.26,-57.62 -512.80,-71.86ZM-446.66,-243.22C-450.33,-256.50 -459.12,-259.73 -471.48,-256.31C-485.21,-252.50 -490.55,-245.11 -486.94,-232.06C-483.33,-219.02 -474.29,-214.87 -461.01,-218.54C-449.11,-221.84 -443.04,-230.18 -446.66,-243.22ZM-455.40,-101.31L-446.27,-68.35C-436.49,-71.31 -427.11,-73.91 -417.72,-76.51L-409.71,-78.73C-399.87,-81.45 -389.97,-83.95 -379.67,-86.80L-388.80,-119.76L-411.91,-113.36L-436.45,-201.93L-479.94,-189.89L-469.54,-152.35L-440.93,-160.28L-426.79,-109.24ZM-320.04,-101.10C-303.57,-105.67 -296.08,-115.13 -293.08,-123.85L-306.40,-147.03C-309.48,-141.24 -315.65,-136.82 -324.80,-134.29C-338.08,-130.61 -345.33,-137.23 -349.14,-150.96L-385.66,-282.79L-423.65,-272.27L-412.56,-232.21L-390.13,-238.43L-359.88,-129.25C-352.78,-103.62 -340.19,-95.52 -320.04,-101.10ZM-187.01,-140.42L-147.42,-151.39L-156.55,-184.35L-183.55,-176.87L-225.15,-327.01L-267.49,-315.28L-256.40,-275.23L-228.93,-282.84L-218.53,-245.30C-231.07,-260.31 -248.32,-261.20 -262.80,-257.43C-291.25,-249.80 -305.40,-226.16 -291.77,-176.95C-280.67,-136.90 -256.42,-118.73 -225.75,-127.23C-209.04,-131.85 -197.68,-145.11 -194.07,-159.66ZM-232.31,-154.49C-256.34,-147.83 -272.47,-158.89 -278.20,-180.47C-282.89,-197.40 -274.50,-214.27 -251.16,-220.74C-224.61,-228.09 -211.09,-217.54 -206.17,-200.67L-199.95,-178.24C-204.69,-165.10 -215.38,-159.18 -232.31,-154.49ZM33.30,-257.89L38.69,-238.43L-35.01,-218.02L-46.62,-259.90L4.65,-274.10L10.30,-253.73L21.28,-256.78L6.76,-309.19L-4.22,-306.15L1.10,-286.92L-50.17,-272.72L-60.75,-310.94L11.34,-330.91L16.35,-312.83L29.63,-316.51L13.20,-375.79L-109.02,-341.93L-97.60,-300.73L-77.00,-306.44L-51.26,-213.51L-71.86,-207.81L-62.73,-174.85L61.09,-209.15L46.57,-261.56ZM187.89,-244.28C197.05,-246.81 202.57,-251.79 205.23,-258.20L197.37,-286.58C193.94,-278.48 188.79,-274.84 181.70,-272.87C176.20,-271.35 170.64,-272.77 167.35,-277.52L157.33,-313.69C145.60,-356.03 127.90,-365.67 96.77,-357.04C79.60,-352.29 66.64,-343.03 60.80,-330.32L69.89,-301.05C74.04,-310.08 83.77,-319.43 103.23,-324.82C124.74,-330.78 137.29,-324.65 144.39,-303.45C132.94,-307.42 116.35,-305.05 105.59,-302.07C78.35,-294.52 64.06,-274.05 70.72,-250.02C76.87,-227.82 96.75,-216.56 129.25,-225.57C144.12,-229.69 156.83,-239.86 162.27,-250.49C169.06,-243.74 178.05,-241.55 187.89,-244.28ZM121.55,-254.24C100.26,-248.34 89.52,-251.53 86.73,-261.60C83.82,-272.13 91.78,-280.74 114.21,-286.96C127.03,-290.51 138.28,-289.93 149.63,-285.43L152.86,-273.76C147.44,-264.86 135.74,-258.17 121.55,-254.24ZM213.91,-286.48L223.04,-253.52C229.38,-255.53 267.15,-265.99 280.03,-269.31L270.90,-302.27L250.30,-296.56L241.23,-329.29C236.79,-345.31 242.56,-356.52 253.78,-359.63C264.08,-362.48 270.27,-361.49 274.66,-356.30L272.83,-396.70C265.49,-400.09 259.27,-402.06 248.29,-399.02C238.90,-396.42 229.23,-386.84 227.77,-371.65L215.05,-387.34L188.04,-379.86L198.44,-342.33C203.93,-343.85 210.27,-345.85 219.72,-348.22L235.19,-292.38ZM395.50,-315.10L382.91,-336.50C380.39,-331.37 373.50,-326.01 363.82,-323.57C352.54,-320.70 343.18,-324.26 338.61,-340.74L328.34,-377.82L362.67,-387.33L352.78,-423.04L318.45,-413.52L310.20,-443.28L295.33,-439.16L303.57,-409.40L285.49,-404.39L295.38,-368.69L313.46,-373.70L328.11,-320.83C335.78,-293.13 351.49,-287.13 369.34,-292.08C382.39,-295.69 393.91,-304.80 395.50,-315.10ZM479.71,-325.12L470.58,-358.08L447.70,-351.74L438.50,-384.93C440.01,-402.60 450.76,-412.72 468.16,-417.54C487.61,-422.93 500.83,-415.25 507.23,-392.14L513.38,-369.94L489.12,-363.21L498.25,-330.26L558.45,-346.93L549.32,-379.89L527.80,-373.93L517.66,-410.55C505.29,-455.18 488.84,-465.66 461.14,-457.98C442.38,-452.79 430.07,-440.26 427.85,-423.38L406.23,-501.43L368.92,-491.09L380.02,-451.04L402.68,-457.31L433.05,-347.68L410.39,-341.40L419.52,-308.44Z" fill="#ffffff" stroke="#000000"/>
    <path d="M-799.63,-62.91L-780.92,-69.20L-749.02,25.69L-767.73,31.98L-756.95,64.05L-676.09,36.87C-641.56,25.27 -629.66,0.19 -638.12,-24.98C-645.24,-46.14 -654.40,-54.96 -672.09,-55.21C-661.70,-64.16 -658.76,-74.57 -667.22,-99.74C-675.08,-123.13 -697.04,-135.33 -730.75,-125.74L-811.61,-98.55ZM-752.22,-36.95L-764.88,-74.60L-715.65,-91.14C-692.04,-99.08 -682.43,-91.90 -679.36,-82.76C-675.77,-72.07 -677.60,-62.04 -698.54,-55.00ZM-732.98,20.30L-746.83,-20.91L-693.82,-38.73C-671.54,-46.22 -661.42,-38.97 -657.90,-28.50C-653.63,-15.80 -659.47,-4.41 -679.30,2.25ZM-507.24,-19.89L-507.17,-19.67L-472.64,-31.27L-483.20,-63.42L-504.36,-56.31L-522.63,-110.66C-514.39,-113.43 -506.74,-115.75 -502.29,-117.25L-514.57,-153.78L-571.59,-134.61L-559.31,-98.08C-556.64,-98.98 -547.58,-102.27 -537.11,-105.79L-524.83,-69.26C-525.98,-54.99 -536.06,-42.93 -552.99,-37.24C-575.93,-29.52 -585.91,-36.33 -594.44,-61.73L-601.93,-84.00C-593.25,-86.92 -585.15,-89.40 -580.70,-90.89L-592.98,-127.42L-650.00,-108.25L-637.72,-71.72C-635.05,-72.62 -626.21,-75.84 -616.19,-79.21L-604.21,-43.57C-590.95,-4.14 -570.65,3.91 -545.92,-4.41C-526.76,-10.85 -516.62,-24.92 -514.95,-39.12ZM-458.76,-211.96C-463.10,-224.88 -471.95,-227.61 -483.98,-223.57C-497.35,-219.07 -502.23,-211.48 -497.96,-198.78C-493.69,-186.09 -484.54,-182.47 -471.62,-186.81C-460.04,-190.71 -454.49,-199.27 -458.76,-211.96ZM-459.81,-71.29L-449.03,-39.21C-439.53,-42.65 -430.39,-45.72 -421.26,-48.79L-413.46,-51.41C-403.89,-54.63 -394.23,-57.63 -384.21,-61.00L-394.99,-93.08L-417.49,-85.51L-446.47,-171.72L-488.79,-157.49L-476.51,-120.96L-448.67,-130.32L-431.97,-80.65ZM-326.07,-78.31C-310.03,-83.71 -303.14,-93.46 -300.64,-102.23L-315.04,-124.42C-317.77,-118.54 -323.63,-113.84 -332.54,-110.85C-345.46,-106.50 -352.98,-112.65 -357.47,-126.02L-400.60,-254.32L-437.58,-241.89L-424.48,-202.91L-402.65,-210.25L-366.93,-104.00C-358.54,-79.05 -345.67,-71.72 -326.07,-78.31ZM-196.73,-124.27L-158.19,-137.23L-168.97,-169.30L-195.26,-160.47L-244.38,-306.59L-285.59,-292.74L-272.49,-253.76L-245.76,-262.74L-233.48,-226.21C-246.66,-240.37 -263.76,-240.33 -277.87,-235.83C-305.56,-226.77 -318.28,-202.66 -302.18,-154.77C-289.08,-115.79 -264.14,-99.13 -234.29,-109.16C-218.03,-114.63 -207.51,-128.33 -204.73,-142.90ZM-242.24,-135.75C-265.63,-127.89 -282.15,-137.95 -288.97,-158.96C-294.51,-175.45 -287.12,-192.56 -264.40,-200.20C-238.56,-208.88 -224.64,-199.18 -218.87,-182.77L-211.54,-160.95C-215.51,-147.71 -225.75,-141.29 -242.24,-135.75ZM14.67,-252.11L21.03,-233.18L-50.69,-209.06L-64.40,-249.83L-14.50,-266.60L-7.84,-246.78L2.86,-250.37L-14.29,-301.38L-24.98,-297.79L-18.69,-279.07L-68.59,-262.30L-81.10,-299.50L-10.93,-323.09L-5.01,-305.49L7.91,-309.83L-11.49,-367.53L-130.44,-327.54L-116.96,-287.45L-96.91,-294.18L-66.51,-203.75L-86.56,-197.01L-75.77,-164.93L44.73,-205.44L27.59,-256.45ZM168.14,-246.93C177.05,-249.92 182.24,-255.14 184.52,-261.61L175.24,-289.23C172.29,-281.05 167.39,-277.17 160.49,-274.85C155.14,-273.05 149.56,-274.15 146.06,-278.68L134.23,-313.87C120.38,-355.08 102.37,-363.65 72.08,-353.47C55.37,-347.86 43.06,-338.01 37.96,-325.15L48.51,-296.71C52.13,-305.86 61.25,-315.62 80.18,-321.98C101.12,-329.02 113.84,-323.63 121.99,-303.06C110.47,-306.38 94.20,-303.14 83.73,-299.62C57.22,-290.71 44.20,-269.72 52.06,-246.33C59.32,-224.73 79.56,-214.67 111.19,-225.31C125.67,-230.17 137.68,-240.90 142.49,-251.69C149.56,-245.39 158.56,-243.71 168.14,-246.93ZM102.06,-253.22C81.34,-246.26 70.56,-248.83 67.26,-258.63C63.82,-268.88 71.23,-277.82 93.06,-285.16C105.53,-289.35 116.68,-289.38 128.13,-285.54L131.95,-274.18C127.07,-265.10 115.87,-257.87 102.06,-253.22ZM191.59,-290.01L202.37,-257.94C208.53,-260.26 245.28,-272.61 257.83,-276.58L247.05,-308.66L227.00,-301.92L216.29,-333.77C211.05,-349.37 216.15,-360.75 227.07,-364.42C237.09,-367.79 243.26,-367.13 247.88,-362.24L243.91,-402.06C236.48,-405.02 230.23,-406.64 219.54,-403.04C210.40,-399.97 201.36,-389.99 200.73,-374.90L187.32,-389.73L161.03,-380.90L173.31,-344.37C178.66,-346.16 184.82,-348.48 194.03,-351.33L212.30,-296.98ZM369.47,-328.00L355.89,-348.47C353.68,-343.26 347.15,-337.60 337.72,-334.68C326.73,-331.23 317.29,-334.25 311.89,-350.29L299.76,-386.38L333.18,-397.61L321.50,-432.36L288.08,-421.13L278.35,-450.08L263.87,-445.22L273.60,-416.26L256.01,-410.34L267.69,-375.59L285.29,-381.51L302.58,-330.05C311.64,-303.10 327.49,-298.01 344.86,-303.86C357.56,-308.12 368.46,-317.74 369.47,-328.00ZM452.14,-342.40L441.36,-374.48L419.09,-366.99L408.23,-399.29C408.78,-416.83 418.86,-427.40 435.79,-433.10C454.72,-439.46 468.19,-432.58 475.75,-410.09L483.02,-388.48L459.40,-380.54L470.19,-348.47L528.77,-368.16L517.99,-400.24L497.05,-393.20L485.07,-428.84C470.47,-472.27 453.65,-481.74 426.70,-472.68C408.43,-466.54 396.94,-453.51 395.65,-436.71L370.11,-512.67L333.81,-500.46L346.91,-461.48L368.96,-468.89L404.83,-362.20L382.78,-354.78L393.56,-322.71Z" fill="#ffffff" stroke="#000000"/>
    <path d="M-797.48,-14.76L-779.33,-21.98L-742.75,70.06L-760.90,77.28L-748.53,108.39L-670.10,77.22C-636.61,63.90 -626.20,38.50 -635.90,14.08C-644.06,-6.44 -653.58,-14.67 -671.07,-13.97C-661.29,-23.36 -658.94,-33.80 -668.64,-58.22C-677.66,-80.90 -700.00,-91.79 -732.80,-80.51L-811.22,-49.33ZM-749.26,8.35L-763.78,-28.16L-716.03,-47.14C-693.13,-56.24 -683.26,-49.66 -679.73,-40.80C-675.61,-30.43 -676.89,-20.42 -697.19,-12.34ZM-727.19,63.88L-743.08,23.91L-691.66,3.47C-670.05,-5.12 -659.66,1.51 -655.63,11.67C-650.73,23.98 -655.89,35.54 -675.12,43.18ZM-506.33,12.12L-506.24,12.33L-472.76,-0.98L-484.91,-32.18L-505.43,-24.02L-526.39,-76.74C-518.39,-79.91 -510.96,-82.62 -506.64,-84.33L-520.73,-119.77L-576.04,-97.78L-561.95,-62.35C-559.36,-63.38 -550.59,-67.12 -540.43,-71.15L-526.35,-35.72C-526.72,-21.56 -536.03,-9.10 -552.45,-2.57C-574.71,6.27 -584.93,0.07 -594.72,-24.56L-603.30,-46.16C-594.88,-49.51 -587.01,-52.39 -582.69,-54.10L-596.78,-89.54L-652.09,-67.55L-638.00,-32.12C-635.41,-33.15 -626.85,-36.80 -617.13,-40.66L-603.39,-6.10C-588.19,32.15 -567.70,39.01 -543.71,29.48C-525.13,22.09 -515.86,7.65 -514.97,-6.47ZM-468.70,-180.23C-473.68,-192.76 -482.57,-194.98 -494.24,-190.34C-507.20,-185.19 -511.62,-177.43 -506.73,-165.11C-501.83,-152.80 -492.60,-149.71 -480.07,-154.69C-468.83,-159.16 -463.80,-167.91 -468.70,-180.23ZM-462.22,-41.19L-449.85,-10.08C-440.65,-13.99 -431.79,-17.51 -422.93,-21.03L-415.37,-24.04C-406.08,-27.73 -396.70,-31.21 -386.98,-35.07L-399.35,-66.19L-421.17,-57.51L-454.41,-141.13L-495.46,-124.81L-481.37,-89.37L-454.37,-100.11L-435.21,-51.93ZM-330.47,-55.29C-314.91,-61.47 -308.63,-71.47 -306.62,-80.28L-322.03,-101.42C-324.42,-95.47 -329.96,-90.52 -338.60,-87.08C-351.13,-82.10 -358.89,-87.77 -364.04,-100.73L-413.51,-225.18L-449.38,-210.93L-434.35,-173.12L-413.17,-181.53L-372.21,-78.47C-362.59,-54.28 -349.48,-47.73 -330.47,-55.29ZM-205.15,-107.60L-167.77,-122.46L-180.14,-153.57L-205.63,-143.44L-261.97,-285.17L-301.94,-269.28L-286.91,-231.47L-260.98,-241.78L-246.90,-206.35C-260.69,-219.63 -277.57,-218.67 -291.27,-213.48C-318.14,-203.04 -329.42,-178.55 -310.96,-132.09C-295.93,-94.28 -270.40,-79.16 -241.45,-90.67C-225.68,-96.94 -216.02,-111.04 -214.05,-125.58ZM-250.72,-116.51C-273.41,-107.49 -290.27,-116.55 -298.12,-136.95C-304.48,-152.93 -298.10,-170.23 -276.06,-178.99C-251.00,-188.95 -236.72,-180.12 -230.15,-164.21L-221.74,-143.04C-224.96,-129.75 -234.73,-122.86 -250.72,-116.51ZM-3.14,-245.19L4.16,-226.83L-65.41,-199.17L-81.13,-238.71L-32.73,-257.95L-25.09,-238.72L-14.72,-242.84L-34.38,-292.32L-44.75,-288.20L-37.54,-270.05L-85.94,-250.81L-100.28,-286.89L-32.22,-313.95L-25.44,-296.88L-12.90,-301.86L-35.15,-357.82L-150.52,-311.96L-135.06,-273.07L-115.62,-280.80L-80.75,-193.08L-100.20,-185.35L-87.83,-154.24L29.06,-200.70L9.39,-250.17ZM148.75,-248.28C157.40,-251.71 162.24,-257.14 164.16,-263.66L153.51,-290.45C151.03,-282.21 146.40,-278.11 139.70,-275.45C134.52,-273.39 128.95,-274.18 125.25,-278.46L111.68,-312.60C95.79,-352.57 77.54,-360.08 48.16,-348.40C31.95,-341.96 20.32,-331.58 15.97,-318.59L27.91,-291.06C31.00,-300.30 39.48,-310.42 57.85,-317.72C78.16,-325.80 91.01,-321.15 100.17,-301.27C88.60,-303.93 72.71,-299.86 62.55,-295.82C36.84,-285.60 25.09,-264.17 34.11,-241.49C42.44,-220.53 62.97,-211.68 93.65,-223.87C107.70,-229.45 118.99,-240.70 123.16,-251.61C130.49,-245.77 139.46,-244.58 148.75,-248.28ZM83.13,-250.97C63.04,-242.98 52.25,-244.94 48.47,-254.45C44.52,-264.39 51.36,-273.61 72.54,-282.03C84.64,-286.84 95.65,-287.46 107.17,-284.29L111.55,-273.27C107.21,-264.04 96.53,-256.29 83.13,-250.97ZM169.61,-292.10L181.98,-260.98C187.95,-263.60 223.60,-277.78 235.78,-282.37L223.41,-313.48L203.97,-305.75L191.69,-336.65C185.68,-351.77 190.10,-363.29 200.69,-367.50C210.41,-371.36 216.54,-371.05 221.37,-366.46L215.32,-405.59C207.82,-408.11 201.56,-409.37 191.19,-405.25C182.33,-401.73 173.93,-391.39 174.11,-376.45L160.07,-390.38L134.58,-380.25L148.66,-344.81C153.85,-346.88 159.81,-349.50 168.75,-352.80L189.71,-300.08ZM343.32,-339.13L328.81,-358.63C326.90,-353.37 320.76,-347.42 311.60,-344.03C300.93,-340.04 291.43,-342.52 285.25,-358.08L271.34,-393.08L303.74,-405.96L290.35,-439.66L257.94,-426.78L246.77,-454.87L232.73,-449.29L243.89,-421.20L226.83,-414.41L240.22,-380.71L257.29,-387.49L277.13,-337.59C287.52,-311.44 303.44,-307.26 320.30,-313.96C332.61,-318.86 342.87,-328.94 343.32,-339.13ZM424.23,-357.78L411.86,-388.89L390.25,-380.30L377.80,-411.63C377.41,-428.98 386.80,-439.97 403.22,-446.50C421.58,-453.80 435.26,-447.73 443.93,-425.91L452.26,-404.95L429.36,-395.84L441.73,-364.73L498.55,-387.32L486.18,-418.43L465.87,-410.36L452.13,-444.93C435.39,-487.06 418.26,-495.51 392.12,-485.12C374.40,-478.08 363.75,-464.59 363.37,-447.93L334.09,-521.60L298.87,-507.60L313.90,-469.79L335.29,-478.29L376.43,-374.80L355.04,-366.30L367.40,-335.19Z" fill="#ffffff" stroke="#000000"/>
    <path d="M-792.40,32.86L-774.86,24.76L-733.80,113.72L-751.34,121.82L-737.46,151.89L-661.66,116.91C-629.29,101.97 -620.36,76.31 -631.25,52.71C-640.40,32.88 -650.25,25.26 -667.49,26.88C-658.33,17.08 -656.56,6.64 -667.45,-16.96C-677.57,-38.88 -700.22,-48.44 -732.02,-35.54L-807.82,-0.56ZM-743.53,53.11L-759.82,17.82L-713.67,-3.48C-691.53,-13.69 -681.43,-7.72 -677.48,0.84C-672.85,10.87 -673.58,20.83 -693.21,29.89ZM-718.76,106.78L-736.59,68.15L-686.89,45.21C-666.01,35.57 -655.39,41.57 -650.86,51.38C-645.37,63.28 -649.85,74.98 -668.44,83.56ZM-503.36,43.85L-503.27,44.06L-470.90,29.12L-484.57,-1.05L-504.41,8.11L-527.92,-42.85C-520.20,-46.41 -513.00,-49.48 -508.82,-51.41L-524.63,-85.66L-578.09,-60.99L-562.28,-26.74C-559.78,-27.89 -551.31,-32.05 -541.50,-36.58L-525.69,-2.34C-525.31,11.67 -533.84,24.48 -549.71,31.80C-571.22,41.73 -581.64,36.15 -592.63,12.35L-602.27,-8.54C-594.12,-12.30 -586.51,-15.56 -582.33,-17.48L-598.14,-51.73L-651.60,-27.06L-635.79,7.19C-633.29,6.03 -625.03,1.97 -615.63,-2.37L-600.21,31.04C-583.15,68.01 -562.54,73.69 -539.36,63.00C-521.40,54.71 -513.02,39.94 -512.89,25.95ZM-476.47,-148.16C-482.06,-160.28 -490.96,-161.99 -502.24,-156.79C-514.77,-151.01 -518.72,-143.10 -513.22,-131.20C-507.73,-119.30 -498.45,-116.74 -486.33,-122.33C-475.47,-127.34 -470.98,-136.26 -476.47,-148.16ZM-462.64,-11.17L-448.76,18.90C-439.88,14.55 -431.32,10.60 -422.75,6.65L-415.44,3.27C-406.46,-0.87 -397.39,-4.81 -387.99,-9.14L-401.87,-39.22L-422.96,-29.48L-460.26,-110.30L-499.94,-91.99L-484.13,-57.74L-458.03,-69.79L-436.54,-23.22ZM-333.25,-32.13C-318.21,-39.07 -312.54,-49.29 -311.03,-58.09L-327.38,-78.15C-329.42,-72.15 -334.63,-66.96 -342.98,-63.10C-355.09,-57.51 -363.06,-62.70 -368.84,-75.23L-424.36,-195.52L-459.02,-179.52L-442.16,-142.97L-421.69,-152.42L-375.72,-52.81C-364.92,-29.42 -351.62,-23.65 -333.25,-32.13ZM-212.25,-90.51L-176.12,-107.18L-190.00,-137.25L-214.64,-125.88L-277.87,-262.87L-316.50,-245.04L-299.64,-208.50L-274.58,-220.06L-258.77,-185.81C-273.10,-198.20 -289.73,-196.35 -302.98,-190.49C-328.97,-178.75 -338.80,-153.94 -318.08,-109.05C-301.21,-72.50 -275.19,-58.93 -247.21,-71.84C-231.96,-78.88 -223.17,-93.32 -222.00,-107.79ZM-257.74,-96.87C-279.67,-86.75 -296.81,-94.80 -305.66,-114.52C-312.79,-129.98 -307.41,-147.41 -286.11,-157.24C-261.89,-168.42 -247.32,-160.45 -239.98,-145.09L-230.53,-124.63C-233.01,-111.33 -242.29,-104.00 -257.74,-96.87ZM-20.06,-237.22L-11.87,-219.47L-79.11,-188.43L-96.75,-226.65L-49.97,-248.24L-41.39,-229.65L-31.37,-234.28L-53.44,-282.10L-63.47,-277.47L-55.37,-259.93L-102.15,-238.34L-118.24,-273.22L-52.46,-303.58L-44.85,-287.08L-32.73,-292.67L-57.70,-346.76L-169.21,-295.29L-151.87,-257.70L-133.07,-266.37L-93.94,-181.59L-112.73,-172.91L-98.86,-142.84L14.12,-194.98L-7.95,-242.81ZM129.82,-248.38C138.17,-252.23 142.67,-257.86 144.21,-264.39L132.26,-290.29C130.25,-282.02 125.90,-277.73 119.42,-274.74C114.41,-272.43 108.87,-272.91 104.98,-276.94L89.75,-309.94C71.92,-348.57 53.50,-355.01 25.10,-341.90C9.43,-334.68 -1.51,-323.80 -5.10,-310.74L8.16,-284.19C10.72,-293.47 18.56,-303.93 36.31,-312.12C55.94,-321.18 68.89,-317.28 78.99,-298.13C67.42,-300.14 51.94,-295.27 42.12,-290.74C17.27,-279.27 6.81,-257.47 16.93,-235.54C26.28,-215.29 47.04,-207.64 76.69,-221.33C90.27,-227.59 100.82,-239.30 104.35,-250.31C111.90,-244.92 120.84,-244.23 129.82,-248.38ZM64.85,-247.53C45.43,-238.56 34.67,-239.93 30.43,-249.12C25.99,-258.72 32.26,-268.20 52.73,-277.65C64.42,-283.05 75.26,-284.25 86.81,-281.73L91.73,-271.08C87.94,-261.73 77.80,-253.50 64.85,-247.53ZM148.08,-292.78L161.96,-262.71C167.71,-265.61 202.17,-281.52 213.96,-286.71L200.08,-316.78L181.28,-308.10L167.50,-337.97C160.76,-352.58 164.51,-364.20 174.75,-368.92C184.14,-373.26 190.22,-373.27 195.23,-369.00L187.17,-407.33C179.62,-409.42 173.37,-410.33 163.34,-405.71C154.78,-401.76 147.04,-391.09 148.02,-376.34L133.40,-389.36L108.76,-377.98L124.56,-343.73C129.58,-346.05 135.33,-348.95 143.98,-352.70L167.50,-301.74ZM317.15,-348.52L301.78,-367.01C300.17,-361.71 294.42,-355.51 285.56,-351.67C275.23,-347.15 265.72,-349.10 258.78,-364.13L243.16,-397.96L274.49,-412.42L259.45,-445.00L228.13,-430.54L215.60,-457.69L202.02,-451.43L214.55,-424.28L198.06,-416.66L213.09,-384.09L229.59,-391.70L251.85,-343.46C263.52,-318.19 279.47,-314.91 295.76,-322.43C307.66,-327.92 317.25,-338.43 317.15,-348.52ZM396.08,-371.26L382.20,-401.34L361.31,-391.70L347.34,-421.98C346.02,-439.10 354.71,-450.46 370.58,-457.78C388.33,-465.98 402.17,-460.71 411.90,-439.62L421.25,-419.36L399.11,-409.14L412.99,-379.07L467.91,-404.42L454.04,-434.49L434.40,-425.43L418.98,-458.84C400.19,-499.57 382.82,-507.00 357.56,-495.34C340.43,-487.44 330.63,-473.54 331.15,-457.06L298.28,-528.27L264.24,-512.56L281.11,-476.02L301.78,-485.56L347.95,-385.53L327.27,-375.99L341.15,-345.92Z" fill="#ffffff" stroke="#000000"/>
    <path d="M-784.44,79.76L-767.54,70.83L-722.24,156.50L-739.13,165.43L-723.82,194.39L-650.81,155.79C-619.64,139.30 -612.19,113.49 -624.21,90.76C-634.31,71.66 -644.44,64.66 -661.38,67.19C-652.86,57.02 -651.67,46.61 -663.69,23.89C-674.86,2.77 -697.74,-5.46 -728.45,8.98L-801.45,47.58ZM-735.09,97.16L-753.06,63.17L-708.62,39.67C-687.30,28.39 -677.00,33.75 -672.64,42.00C-667.54,51.65 -667.72,61.53 -686.62,71.53ZM-707.76,148.84L-727.43,111.64L-679.57,86.33C-659.46,75.69 -648.65,81.04 -643.65,90.49C-637.59,101.96 -641.39,113.75 -659.29,123.21ZM-498.37,75.17L-498.27,75.37L-467.09,58.89L-482.21,29.82L-501.31,39.93L-527.26,-9.15C-519.82,-13.08 -512.88,-16.50 -508.86,-18.62L-526.30,-51.60L-577.78,-24.38L-560.34,8.60C-557.93,7.33 -549.79,2.77 -540.33,-2.23L-522.89,30.75C-521.76,44.56 -529.50,57.67 -544.79,65.75C-565.50,76.70 -576.10,71.75 -588.22,48.83L-598.86,28.72C-591.01,24.57 -583.67,20.94 -579.65,18.81L-597.09,-14.17L-648.57,13.06L-631.13,46.04C-628.72,44.76 -620.78,40.31 -611.73,35.52L-594.71,67.70C-575.89,103.30 -555.23,107.81 -532.90,96.01C-515.61,86.86 -508.12,71.83 -508.74,58.01ZM-482.07,-115.91C-488.24,-127.58 -497.12,-128.80 -507.98,-123.06C-520.05,-116.67 -523.53,-108.66 -517.47,-97.19C-511.40,-85.73 -502.10,-83.70 -490.43,-89.87C-479.97,-95.40 -476.01,-104.45 -482.07,-115.91ZM-461.09,18.66L-445.78,47.61C-437.23,42.84 -428.99,38.48 -420.74,34.12L-413.70,30.40C-405.06,25.82 -396.30,21.45 -387.25,16.67L-402.57,-12.29L-422.88,-1.55L-464.04,-79.38L-502.25,-59.17L-484.81,-26.19L-459.67,-39.49L-435.95,5.36ZM-334.41,-8.96C-319.93,-16.62 -314.87,-27.01 -313.85,-35.79L-331.08,-54.73C-332.77,-48.69 -337.63,-43.29 -345.68,-39.03C-357.34,-32.86 -365.49,-37.56 -371.87,-49.63L-433.13,-165.47L-466.51,-147.81L-447.90,-112.62L-428.19,-123.04L-377.46,-27.11C-365.55,-4.59 -352.11,0.40 -334.41,-8.96ZM-218.02,-73.08L-183.23,-91.48L-198.55,-120.44L-222.28,-107.89L-292.05,-239.82L-329.25,-220.15L-310.64,-184.95L-286.51,-197.71L-269.06,-164.73C-283.88,-176.20 -300.20,-173.49 -312.98,-166.99C-338.02,-154.00 -346.41,-128.98 -323.54,-85.74C-304.93,-50.55 -278.50,-38.53 -251.55,-52.78C-236.87,-60.54 -228.96,-75.28 -228.58,-89.64ZM-263.30,-76.94C-284.41,-65.77 -301.77,-72.80 -311.57,-91.81C-319.44,-106.70 -315.05,-124.20 -294.54,-135.05C-271.21,-147.38 -256.40,-140.29 -248.33,-125.52L-237.90,-105.81C-239.64,-92.54 -248.41,-84.81 -263.30,-76.94ZM-36.04,-228.26L-27.00,-211.16L-91.76,-176.92L-111.22,-213.72L-66.17,-237.54L-56.71,-219.64L-47.05,-224.75L-71.41,-270.80L-81.06,-265.70L-72.13,-248.81L-117.18,-224.98L-134.94,-258.57L-71.59,-292.07L-63.19,-276.18L-51.52,-282.35L-79.07,-334.44L-186.46,-277.64L-167.32,-241.44L-149.22,-251.02L-106.04,-169.37L-124.14,-159.79L-108.82,-130.83L-0.02,-188.37L-24.38,-234.43ZM111.39,-247.29C119.44,-251.55 123.58,-257.34 124.75,-263.88L111.57,-288.82C110.03,-280.54 105.95,-276.07 99.72,-272.77C94.89,-270.22 89.39,-270.40 85.34,-274.17L68.54,-305.95C48.86,-343.15 30.32,-348.53 2.97,-334.07C-12.12,-326.09 -22.34,-314.77 -25.20,-301.68L-10.67,-276.16C-8.65,-285.46 -1.46,-296.21 15.63,-305.25C34.54,-315.25 47.53,-312.09 58.54,-293.71C47.00,-295.08 31.97,-289.44 22.52,-284.44C-1.41,-271.79 -10.58,-249.70 0.59,-228.58C10.90,-209.08 31.81,-202.63 60.37,-217.73C73.44,-224.65 83.24,-236.78 86.14,-247.83C93.89,-242.92 102.75,-242.72 111.39,-247.29ZM47.28,-242.98C28.57,-233.09 17.87,-233.86 13.19,-242.71C8.30,-251.96 13.98,-261.66 33.69,-272.08C44.95,-278.04 55.60,-279.81 67.14,-277.93L72.56,-267.67C69.32,-258.24 59.75,-249.57 47.28,-242.98ZM127.06,-292.12L142.38,-263.16C147.90,-266.34 181.08,-283.89 192.45,-289.64L177.14,-318.60L159.04,-309.03L143.83,-337.79C136.38,-351.87 139.48,-363.54 149.33,-368.75C158.38,-373.54 164.38,-373.88 169.56,-369.92L159.54,-407.35C151.98,-409.01 145.75,-409.58 136.10,-404.47C127.86,-400.11 120.78,-389.17 122.53,-374.65L107.40,-386.72L83.67,-374.17L101.11,-341.19C105.94,-343.74 111.46,-346.92 119.81,-351.08L145.76,-302.01ZM291.07,-356.21L274.90,-373.65C273.60,-368.33 268.25,-361.90 259.70,-357.63C249.74,-352.62 240.24,-354.03 232.58,-368.51L215.35,-401.09L245.52,-417.04L228.93,-448.42L198.76,-432.46L184.94,-458.61L171.86,-451.70L185.69,-425.55L169.80,-417.15L186.39,-385.78L202.28,-394.18L226.85,-347.72C239.72,-323.39 255.65,-321.00 271.33,-329.30C282.80,-335.36 291.71,-346.25 291.07,-356.21ZM367.81,-382.89L352.49,-411.85L332.38,-401.22L316.96,-430.38C314.75,-447.22 322.72,-458.90 338.01,-466.98C355.10,-476.02 369.04,-471.56 379.79,-451.25L390.10,-431.74L368.78,-420.47L384.10,-391.51L436.99,-419.48L421.68,-448.44L402.77,-438.44L385.76,-470.62C365.02,-509.83 347.47,-516.25 323.13,-503.38C306.64,-494.66 297.71,-480.41 299.09,-464.16L262.83,-532.74L230.05,-515.41L248.66,-480.21L268.57,-490.74L319.51,-394.41L299.60,-383.88L314.92,-354.92Z" fill="#ffffff" stroke="#000000"/>
    <path d="M-773.66,125.78L-757.46,116.05L-708.14,198.24L-724.34,207.96L-707.67,235.74L-637.64,193.72C-607.73,175.77 -601.76,149.88 -614.84,128.08C-625.84,109.75 -636.22,103.38 -652.81,106.78C-644.94,96.29 -644.32,85.94 -657.40,64.14C-669.56,43.89 -692.60,36.98 -722.16,52.88L-792.19,94.91ZM-724.00,140.32L-743.57,107.71L-700.93,82.13C-680.48,69.86 -670.02,74.60 -665.28,82.51C-659.72,91.77 -659.37,101.53 -677.51,112.42ZM-694.25,189.90L-715.66,154.21L-669.75,126.66C-650.46,115.08 -639.50,119.78 -634.05,128.85C-627.46,139.85 -630.58,151.70 -647.75,162.00ZM-491.40,105.96L-491.28,106.15L-461.38,88.21L-477.86,60.31L-496.19,71.31L-524.44,24.23C-517.30,19.95 -510.62,16.21 -506.76,13.89L-525.75,-17.75L-575.14,11.89L-556.15,43.53C-553.84,42.14 -546.04,37.20 -536.98,31.76L-517.99,63.40C-516.14,76.98 -523.08,90.33 -537.74,99.13C-557.61,111.06 -568.34,106.74 -581.54,84.74L-593.12,65.45C-585.59,60.93 -578.53,56.96 -574.67,54.64L-593.66,23.00L-643.05,52.64L-624.06,84.28C-621.75,82.89 -614.15,78.07 -605.47,72.86L-586.94,103.73C-566.45,137.88 -545.81,141.23 -524.39,128.38C-507.80,118.42 -501.20,103.18 -502.55,89.56ZM-485.51,-83.62C-492.23,-94.81 -501.06,-95.54 -511.48,-89.29C-523.06,-82.34 -526.06,-74.24 -519.47,-63.24C-512.87,-52.25 -503.57,-50.74 -492.38,-57.46C-482.34,-63.48 -478.91,-72.62 -485.51,-83.62ZM-457.60,48.15L-440.93,75.93C-432.75,70.76 -424.84,66.02 -416.93,61.27L-410.18,57.22C-401.88,52.24 -393.47,47.45 -384.79,42.24L-401.46,14.46L-420.95,26.16L-465.75,-48.51L-502.41,-26.51L-483.42,5.13L-459.30,-9.34L-433.49,33.68ZM-333.97,14.11C-320.08,5.77 -315.64,-4.76 -315.10,-13.48L-333.13,-31.27C-334.48,-25.21 -338.99,-19.62 -346.71,-14.98C-357.90,-8.27 -366.19,-12.47 -373.14,-24.05L-439.83,-135.18L-471.85,-115.96L-451.59,-82.20L-432.69,-93.54L-377.46,-1.52C-364.49,20.09 -350.95,24.30 -333.97,14.11ZM-222.46,-55.43L-189.08,-75.46L-205.75,-103.24L-228.52,-89.58L-304.47,-216.14L-340.16,-194.72L-319.90,-160.96L-296.75,-174.85L-277.76,-143.21C-293.00,-153.75 -308.98,-150.20 -321.25,-143.10C-345.29,-128.93 -352.23,-103.77 -327.34,-62.29C-307.08,-28.53 -280.34,-18.08 -254.48,-33.59C-240.40,-42.04 -233.38,-57.01 -233.77,-71.21ZM-267.37,-56.82C-287.63,-44.66 -305.15,-50.68 -315.84,-68.93C-324.41,-83.21 -321.01,-100.73 -301.34,-112.54C-278.96,-125.97 -263.95,-119.75 -255.18,-105.59L-243.84,-86.69C-244.84,-73.49 -253.10,-65.39 -267.37,-56.82ZM-51.03,-218.40L-41.19,-202.00L-103.31,-164.72L-124.50,-200.03L-81.28,-225.96L-70.98,-208.79L-61.72,-214.35L-88.23,-258.53L-97.49,-252.97L-87.77,-236.76L-130.98,-210.83L-150.32,-243.05L-89.54,-279.52L-80.40,-264.28L-69.21,-270.99L-99.19,-320.96L-202.22,-259.14L-181.38,-224.41L-164.01,-234.83L-117.01,-156.50L-134.37,-146.08L-117.70,-118.30L-13.33,-180.93L-39.84,-225.11ZM93.56,-245.07C101.27,-249.71 105.05,-255.65 105.86,-262.17L91.51,-286.09C90.43,-277.83 86.65,-273.20 80.67,-269.61C76.04,-266.84 70.59,-266.72 66.39,-270.23L48.10,-300.71C26.68,-336.41 8.08,-340.73 -18.16,-324.98C-32.63,-316.30 -42.12,-304.57 -44.24,-291.48L-28.54,-267.06C-27.03,-276.36 -20.51,-287.36 -4.11,-297.20C14.02,-308.08 27.03,-305.65 38.87,-288.09C27.41,-288.83 12.87,-282.46 3.80,-277.02C-19.16,-263.24 -27.03,-240.94 -14.87,-220.68C-3.64,-201.97 17.35,-196.72 44.75,-213.16C57.29,-220.68 66.31,-233.19 68.59,-244.26C76.50,-239.83 85.26,-240.10 93.56,-245.07ZM30.47,-237.39C12.52,-226.62 1.91,-226.82 -3.18,-235.30C-8.51,-244.18 -3.41,-254.06 15.49,-265.40C26.30,-271.89 36.71,-274.20 48.21,-272.97L54.12,-263.13C51.42,-253.64 42.43,-244.57 30.47,-237.39ZM106.63,-290.18L123.30,-262.40C128.59,-265.84 160.42,-284.94 171.34,-291.23L154.67,-319.01L137.31,-308.59L120.75,-336.18C112.65,-349.69 115.08,-361.38 124.53,-367.05C133.21,-372.26 139.12,-372.92 144.44,-369.29L132.55,-405.72C124.99,-406.95 118.82,-407.18 109.56,-401.62C101.65,-396.88 95.24,-385.69 97.75,-371.45L82.16,-382.56L59.40,-368.90L78.38,-337.26C83.01,-340.04 88.30,-343.47 96.33,-348.03L124.58,-300.95ZM265.18,-362.24L248.28,-378.60C247.28,-373.27 242.34,-366.64 234.12,-361.97C224.55,-356.49 215.10,-357.37 206.76,-371.26L188.00,-402.52L216.94,-419.88L198.88,-449.98L169.94,-432.61L154.89,-457.69L142.35,-450.17L157.40,-425.09L142.16,-415.94L160.22,-385.85L175.46,-394.99L202.21,-350.43C216.22,-327.08 232.08,-325.58 247.13,-334.61C258.12,-341.21 266.34,-352.44 265.18,-362.24ZM339.54,-392.69L322.87,-420.47L303.57,-408.89L286.79,-436.87C283.70,-453.38 290.95,-465.34 305.61,-474.14C322.01,-483.98 336.02,-480.32 347.71,-460.83L358.94,-442.12L338.49,-429.85L355.16,-402.07L405.90,-432.52L389.23,-460.30L371.10,-449.41L352.57,-480.28C330.00,-517.90 312.32,-523.30 288.98,-509.30C273.16,-499.80 265.10,-485.25 267.34,-469.28L227.86,-535.07L196.41,-516.20L216.67,-482.43L235.77,-493.90L291.23,-401.48L272.13,-390.02L288.80,-362.24Z" fill="#ffffff" stroke="#000000"/>
    <path d="M-910.72,482.04L-910.72,492L-908.52,492L-908.52,488.92C-906.69,491.01 -903.46,492.38 -899.93,492.38C-893.09,492.38 -889.52,489.72 -889.52,484.89C-889.48,480.45 -892.33,477.45 -900.19,476.80C-906.05,476.31 -907.11,475.09 -907.11,473.38C-907.11,471.44 -905.63,469.54 -900.50,469.54C-896.09,469.54 -894.23,471.10 -892.86,472.24L-890.66,472.24L-890.66,463.88L-892.86,463.88L-892.86,466.73C-894.34,464.72 -897.15,463.12 -900.57,463.12C-906.88,463.12 -910.49,466.65 -910.49,471.21C-910.49,476.04 -908.40,478.78 -900.42,479.38C-895.25,479.76 -893.13,481.25 -893.13,483.11C-893.13,485.20 -895.14,486.79 -900.31,486.79C-904.37,486.79 -907.41,484.67 -908.52,482.04ZM-867.89,492C-866.37,492 -865.31,491.47 -864.63,490.59L-864.63,485.88C-865.50,486.98 -866.45,487.33 -867.63,487.33C-868.54,487.33 -869.34,486.87 -869.64,486.00L-869.64,479.99C-869.64,472.96 -871.96,470.72 -877.13,470.72C-879.98,470.72 -882.37,471.59 -883.82,473.30L-883.66,478.21C-882.64,476.99 -880.74,475.96 -877.51,475.96C-873.94,475.96 -872.26,477.45 -872.07,481.02C-873.67,479.92 -876.33,479.57 -878.12,479.57C-882.64,479.57 -885.72,482.12 -885.72,486.11C-885.72,489.80 -883.13,492.38 -877.74,492.38C-875.27,492.38 -872.87,491.35 -871.58,489.95C-870.82,491.28 -869.53,492 -867.89,492ZM-877.70,487.63C-881.23,487.63 -882.75,486.68 -882.75,485.01C-882.75,483.26 -881.16,482.27 -877.43,482.27C-875.30,482.27 -873.59,482.84 -872.04,484.02L-872.04,485.96C-873.25,487.10 -875.34,487.63 -877.70,487.63ZM-851.63,492L-846.42,477.33L-843.46,477.33L-843.46,471.10L-853.11,471.10L-853.11,477.33L-850.98,477.33L-854.25,487.25L-857.90,477.33L-855.70,477.33L-855.70,471.10L-863.60,471.10L-863.60,477.33L-860.56,477.33L-855.24,492ZM-823.36,492C-821.84,492 -820.77,491.47 -820.09,490.59L-820.09,485.88C-820.96,486.98 -821.91,487.33 -823.09,487.33C-824.00,487.33 -824.80,486.87 -825.11,486.00L-825.11,479.99C-825.11,472.96 -827.42,470.72 -832.59,470.72C-835.44,470.72 -837.84,471.59 -839.28,473.30L-839.13,478.21C-838.10,476.99 -836.20,475.96 -832.97,475.96C-829.40,475.96 -827.73,477.45 -827.54,481.02C-829.13,479.92 -831.79,479.57 -833.58,479.57C-838.10,479.57 -841.18,482.12 -841.18,486.11C-841.18,489.80 -838.60,492.38 -833.20,492.38C-830.73,492.38 -828.34,491.35 -827.04,489.95C-826.28,491.28 -824.99,492 -823.36,492ZM-833.16,487.63C-836.70,487.63 -838.22,486.68 -838.22,485.01C-838.22,483.26 -836.62,482.27 -832.90,482.27C-830.77,482.27 -829.06,482.84 -827.50,484.02L-827.50,485.96C-828.72,487.10 -830.81,487.63 -833.16,487.63ZM-805.16,489.95L-806.18,486.11C-806.79,486.79 -808.08,487.33 -809.68,487.29C-811.54,487.25 -812.83,486.30 -812.83,483.56L-812.83,477.41L-807.13,477.41L-807.13,471.48L-812.83,471.48L-812.83,466.54L-815.30,466.54L-815.30,471.48L-818.30,471.48L-818.30,477.41L-815.30,477.41L-815.30,486.19C-815.30,490.78 -813.14,492.38 -810.17,492.38C-808.01,492.38 -805.84,491.47 -805.16,489.95ZM-785.74,487.21L-787.52,485.50C-788.63,487.02 -790.22,487.82 -793.57,487.78C-797.06,487.74 -799.30,486.53 -799.80,483.18L-785.13,483.18C-785.13,473.80 -788.40,470.72 -793.57,470.72C-798.13,470.72 -802.12,473.76 -802.12,481.85C-802.12,488.01 -799.19,492.38 -793.49,492.38C-789.80,492.38 -786.99,490.10 -785.74,487.21ZM-793.76,476.50C-789.88,476.50 -787.49,478.40 -787.49,480.71L-799.80,480.71C-799.27,477.83 -796.61,476.50 -793.76,476.50ZM-772.21,482.27L-772.21,479.46L-782.47,479.46L-782.47,482.27ZM-768.98,482.04L-768.98,492L-766.78,492L-766.78,488.92C-764.95,491.01 -761.72,492.38 -758.19,492.38C-751.35,492.38 -747.78,489.72 -747.78,484.89C-747.74,480.45 -750.59,477.45 -758.45,476.80C-764.31,476.31 -765.37,475.09 -765.37,473.38C-765.37,471.44 -763.89,469.54 -758.76,469.54C-754.35,469.54 -752.49,471.10 -751.12,472.24L-748.92,472.24L-748.92,463.88L-751.12,463.88L-751.12,466.73C-752.60,464.72 -755.41,463.12 -758.83,463.12C-765.14,463.12 -768.75,466.65 -768.75,471.21C-768.75,476.04 -766.66,478.78 -758.68,479.38C-753.51,479.76 -751.39,481.25 -751.39,483.11C-751.39,485.20 -753.40,486.79 -758.57,486.79C-762.63,486.79 -765.67,484.67 -766.78,482.04ZM-727.60,487.21L-729.38,485.50C-730.49,487.02 -732.08,487.82 -735.43,487.78C-738.92,487.74 -741.16,486.53 -741.66,483.18L-726.99,483.18C-726.99,473.80 -730.26,470.72 -735.43,470.72C-739.99,470.72 -743.98,473.76 -743.98,481.85C-743.98,488.01 -741.05,492.38 -735.35,492.38C-731.66,492.38 -728.85,490.10 -727.60,487.21ZM-735.62,476.50C-731.74,476.50 -729.35,478.40 -729.35,480.71L-741.66,480.71C-741.13,477.83 -738.47,476.50 -735.62,476.50ZM-723.38,486.60L-723.38,492.08C-722.32,492.04 -716.05,492.04 -713.92,492.08L-713.92,486.60L-717.34,486.60L-717.34,481.17C-717.34,478.51 -715.97,477.03 -714.11,477.03C-712.40,477.03 -711.49,477.45 -711.03,478.43L-709.59,472.13C-710.57,471.29 -711.45,470.72 -713.27,470.72C-714.83,470.72 -716.73,471.78 -717.60,474.06L-718.90,471.10L-723.38,471.10L-723.38,477.33C-722.47,477.33 -721.40,477.29 -719.85,477.33L-719.85,486.60ZM-699.33,465.06C-699.33,462.85 -700.54,461.98 -702.59,461.98C-704.87,461.98 -706.01,462.89 -706.01,465.06C-706.01,467.22 -704.80,468.25 -702.59,468.25C-700.62,468.25 -699.33,467.22 -699.33,465.06ZM-706.74,486.57L-706.74,492.04C-705.10,492 -703.54,492 -701.99,492L-700.66,492C-699.02,492 -697.39,492.04 -695.68,492.04L-695.68,486.57L-699.52,486.57L-699.52,471.86L-706.74,471.86L-706.74,478.09L-701.99,478.09L-701.99,486.57ZM-682.23,492L-682.23,486.53L-686.79,486.53L-686.79,478.09L-682.11,478.09L-682.11,471.86L-686.75,471.86C-687.13,469.09 -685.15,467.53 -683.02,467.53C-681.96,467.53 -681.12,467.76 -680.67,468.10L-680.36,463.20C-681.24,462.51 -682.30,461.98 -683.75,461.98C-687.36,461.98 -690.05,464.94 -689.29,471.86L-692.26,471.86L-692.26,478.09L-689.26,478.09L-689.26,486.53L-692.22,486.53L-692.22,492Z"/>
</svg>