<?xml version="1.0"?>
<svg xmlns="http://www.w3.org/2000/svg" width="1920" height="1080" viewBox="-960 -540 1920 1080">
    <path d="M-561.63,-210L-533.88,-393.75L-500.88,-393.75L-473.13,-210L-499.38,-210L-504.38,-247.50L-530.38,-247.50L-535.38,-210ZM-515.88,-334L-516.63,-338.75L-518.13,-338.75L-518.88,-334L-526.63,-276L-508.13,-276ZM-435.38,-210L-460.63,-210L-460.63,-346.75L-435.38,-346.75L-435.38,-335.25C-434.88,-335.50 -433.88,-336.50 -432.38,-338C-429.63,-340.75 -425.88,-344.50 -421.38,-347C-419.13,-348.25 -417.13,-348.75 -414.88,-348.75C-408.13,-348.75 -403.38,-344.75 -400.38,-339.75C-397.38,-334.50 -395.88,-327.75 -395.88,-322L-395.88,-210L-421.13,-210L-421.13,-318.25C-421.13,-323.50 -424.13,-324.25 -427.13,-324.25C-429.88,-324.25 -431.38,-322.75 -433.13,-321C-433.88,-320 -434.63,-319 -435.38,-317.75ZM-337.88,-393.75L-310.88,-393.75L-310.88,-210L-337.88,-210ZM-265.63,-210L-290.88,-210L-290.88,-346.75L-265.63,-346.75L-265.63,-335.25C-265.13,-335.50 -264.13,-336.50 -262.63,-338C-259.88,-340.75 -256.13,-344.50 -251.63,-347C-249.38,-348.25 -247.38,-348.75 -245.13,-348.75C-238.38,-348.75 -233.63,-344.75 -230.63,-339.75C-227.63,-334.50 -226.13,-327.75 -226.13,-322L-226.13,-210L-251.38,-210L-251.38,-318.25C-251.38,-323.50 -254.38,-324.25 -257.38,-324.25C-260.13,-324.25 -261.63,-322.75 -263.38,-321C-264.13,-320 -264.88,-319 -265.63,-317.75ZM-176.13,-380.50L-176.13,-346.75L-158.88,-346.75L-158.88,-324L-176.13,-324L-176.13,-256C-176.13,-251.75 -176.13,-246.25 -175.13,-241.75C-174.13,-237.25 -172.13,-233.50 -168.13,-233.50C-166.13,-233.50 -163.63,-233.75 -161.88,-234C-160.88,-234.25 -159.88,-234.25 -158.88,-234.50L-158.88,-209.75C-160.13,-209.50 -161.38,-209 -162.63,-208.75C-165.13,-208.25 -168.38,-208 -172.38,-208C-187.13,-208 -194.13,-215.50 -197.63,-225C-201.13,-234.50 -201.38,-246 -201.38,-254L-201.38,-324L-214.13,-324L-214.13,-346.75L-201.38,-346.75L-201.38,-380.50ZM-94.88,-320.75C-97.13,-321.50 -99.63,-321.75 -101.88,-321.75C-105.88,-321.75 -110.63,-321.25 -114.63,-317.50C-119.38,-313.50 -120.13,-309.25 -120.13,-305L-120.13,-210L-145.38,-210L-145.38,-346.75L-120.13,-346.75L-120.13,-331.50C-119.88,-333.25 -118.13,-337.50 -114.13,-341.50C-110.13,-345.25 -104.13,-348.75 -94.88,-348.75ZM-21.38,-243.25C-22.13,-230 -26.13,-220.75 -34.88,-213.50C-39.38,-209.75 -45.63,-208 -53.88,-208C-70.13,-208 -78.13,-217 -82.13,-226C-84.38,-231.25 -85.88,-237.25 -86.13,-244L-86.13,-312.75C-85.38,-326 -81.38,-335.75 -72.63,-343.25C-68.38,-347 -62.13,-348.75 -53.88,-348.75C-37.63,-348.75 -29.38,-339.75 -25.38,-331C-23.13,-325.75 -21.63,-320 -21.38,-313.50ZM-45.13,-312.75C-44.88,-318 -45.88,-321.75 -48.38,-324.75C-49.63,-326 -51.63,-326.75 -53.88,-326.75C-58.63,-326.75 -60.63,-323.50 -61.63,-319.75C-62.38,-317.75 -62.63,-315.50 -62.38,-312.75L-62.38,-244C-62.63,-238.75 -61.38,-235 -59.13,-232.25C-57.88,-231 -56.13,-230.25 -53.88,-230.25C-49.13,-230.25 -46.88,-233.25 -45.88,-237C-45.13,-239 -44.88,-241.25 -45.13,-244ZM60.13,-210L34.88,-210L34.88,-219C30.63,-215 26.88,-212 22.13,-209.75C19.63,-208.50 17.13,-208 14.88,-208C7.88,-208 3.13,-212 0.13,-217.25C-3.13,-222.25 -4.63,-229 -4.63,-234.75L-4.63,-322C-4.63,-327.75 -3.13,-334.50 0.13,-339.75C3.13,-344.75 7.88,-348.75 14.88,-348.75C19.63,-348.75 24.63,-346 28.38,-343.25C30.63,-341.50 32.63,-339.75 34.88,-337.75L34.88,-393.75L60.13,-393.75ZM34.88,-316.75C34.88,-320.75 31.13,-325 27.38,-325C23.63,-325 20.63,-321.50 20.63,-316.75L20.63,-240C20.63,-235.25 23.63,-231.75 27.38,-231.75C31.13,-231.75 34.88,-235.25 34.88,-240ZM119.13,-346.75L144.38,-346.75L144.38,-210L119.13,-210L119.13,-221.50C118.63,-221.25 117.63,-220.25 116.38,-219C113.38,-216 109.88,-212.50 105.38,-210C103.13,-208.75 100.88,-208 98.63,-208C91.88,-208 87.13,-212 84.13,-217.25C81.13,-222.25 79.63,-229 79.63,-234.75L79.63,-346.75L104.88,-346.75L104.88,-238.50C104.88,-233.25 107.88,-232.50 110.88,-232.50C113.63,-232.50 115.13,-234 116.88,-235.75C117.63,-236.50 118.38,-237.75 119.13,-239ZM187.63,-241.50C187.63,-236.50 187.88,-230.50 194.63,-230.50C200.38,-230.50 201.88,-233.25 201.88,-241.50L201.88,-260.50L227.13,-260.50L227.13,-247.25C227.13,-232 224.38,-222.25 218.88,-216.25C213.38,-210.25 205.38,-208 194.63,-208C185.63,-208 177.38,-210.50 171.63,-216.75C165.88,-223 162.38,-233.25 162.38,-248.50L162.38,-308.25C162.38,-323.50 165.88,-333.75 171.63,-340C177.38,-346.25 185.63,-348.75 194.63,-348.75C205.38,-348.75 213.38,-346.50 218.88,-340.50C224.38,-334.50 227.13,-324.75 227.13,-309.50L227.13,-298.75L201.88,-298.75L201.88,-315.25C201.88,-323.50 200.38,-326.25 194.63,-326.25C187.88,-326.25 187.63,-320.25 187.63,-315.25ZM273.63,-380.50L273.63,-346.75L290.88,-346.75L290.88,-324L273.63,-324L273.63,-256C273.63,-251.75 273.63,-246.25 274.63,-241.75C275.63,-237.25 277.63,-233.50 281.63,-233.50C283.63,-233.50 286.13,-233.75 287.88,-234C288.88,-234.25 289.88,-234.25 290.88,-234.50L290.88,-209.75C289.63,-209.50 288.38,-209 287.13,-208.75C284.63,-208.25 281.38,-208 277.38,-208C262.63,-208 255.63,-215.50 252.13,-225C248.63,-234.50 248.38,-246 248.38,-254L248.38,-324L235.63,-324L235.63,-346.75L248.38,-346.75L248.38,-380.50ZM304.38,-393.75L329.63,-393.75L329.63,-368.50L304.38,-368.50ZM304.38,-210L304.38,-346.75L329.63,-346.75L329.63,-210ZM412.13,-243.25C411.38,-230 407.38,-220.75 398.63,-213.50C394.13,-209.75 387.88,-208 379.63,-208C363.38,-208 355.38,-217 351.38,-226C349.13,-231.25 347.63,-237.25 347.38,-244L347.38,-312.75C348.13,-326 352.13,-335.75 360.88,-343.25C365.13,-347 371.38,-348.75 379.63,-348.75C395.88,-348.75 404.13,-339.75 408.13,-331C410.38,-325.75 411.88,-320 412.13,-313.50ZM388.38,-312.75C388.63,-318 387.63,-321.75 385.13,-324.75C383.88,-326 381.88,-326.75 379.63,-326.75C374.88,-326.75 372.88,-323.50 371.88,-319.75C371.13,-317.75 370.88,-315.50 371.13,-312.75L371.13,-244C370.88,-238.75 372.13,-235 374.38,-232.25C375.63,-231 377.38,-230.25 379.63,-230.25C384.38,-230.25 386.63,-233.25 387.63,-237C388.38,-239 388.63,-241.25 388.38,-244ZM455.13,-210L429.88,-210L429.88,-346.75L455.13,-346.75L455.13,-335.25C455.63,-335.50 456.63,-336.50 458.13,-338C460.88,-340.75 464.63,-344.50 469.13,-347C471.38,-348.25 473.38,-348.75 475.63,-348.75C482.38,-348.75 487.13,-344.75 490.13,-339.75C493.13,-334.50 494.63,-327.75 494.63,-322L494.63,-210L469.38,-210L469.38,-318.25C469.38,-323.50 466.38,-324.25 463.38,-324.25C460.63,-324.25 459.13,-322.75 457.38,-321C456.63,-320 455.88,-319 455.13,-317.75Z" fill="#ffffff" stroke="#000000"/>
    <path d="M-571.37,-176.96L-552.91,-360.00L-520.28,-361.61L-483.87,-181.28L-509.82,-180.00L-516.60,-216.83L-542.31,-215.56L-545.42,-178.24ZM-532.19,-301.80L-533.17,-306.46L-534.65,-306.39L-535.16,-301.66L-539.99,-243.93L-521.70,-244.83ZM-446.54,-183.12L-471.51,-181.89L-478.19,-317.11L-453.22,-318.34L-452.66,-306.97C-452.17,-307.24 -451.23,-308.28 -449.82,-309.84C-447.24,-312.69 -443.71,-316.58 -439.39,-319.27C-437.22,-320.62 -435.27,-321.21 -433.05,-321.32C-426.37,-321.65 -421.48,-317.93 -418.27,-313.13C-415.05,-308.08 -413.23,-301.48 -412.95,-295.80L-407.48,-185.05L-432.45,-183.82L-437.74,-290.86C-437.99,-296.05 -441.00,-296.64 -443.96,-296.50C-446.68,-296.36 -448.09,-294.80 -449.74,-292.99C-450.43,-291.96 -451.12,-290.94 -451.80,-289.67ZM-359.11,-369.58L-332.41,-370.89L-323.43,-189.20L-350.13,-187.89ZM-278.69,-191.41L-303.66,-190.18L-310.34,-325.40L-285.37,-326.63L-284.81,-315.26C-284.33,-315.53 -283.39,-316.57 -281.98,-318.13C-279.39,-320.98 -275.87,-324.87 -271.54,-327.56C-269.38,-328.91 -267.42,-329.50 -265.20,-329.61C-258.52,-329.94 -253.63,-326.22 -250.42,-321.42C-247.20,-316.37 -245.39,-309.77 -245.10,-304.09L-239.63,-193.34L-264.60,-192.11L-269.89,-299.15C-270.14,-304.34 -273.15,-304.93 -276.11,-304.79C-278.83,-304.65 -280.24,-303.10 -281.89,-301.28C-282.58,-300.25 -283.27,-299.23 -283.95,-297.96ZM-198.52,-364.37L-196.87,-331.00L-179.82,-331.85L-178.71,-309.35L-195.76,-308.51L-192.44,-241.27C-192.23,-237.07 -191.96,-231.63 -190.76,-227.23C-189.55,-222.83 -187.39,-219.22 -183.43,-219.41C-181.45,-219.51 -178.99,-219.88 -177.28,-220.21C-176.30,-220.51 -175.31,-220.56 -174.33,-220.85L-173.13,-196.38C-174.35,-196.07 -175.56,-195.52 -176.78,-195.21C-179.23,-194.59 -182.43,-194.19 -186.39,-193.99C-200.97,-193.27 -208.26,-200.34 -212.19,-209.57C-216.11,-218.79 -216.92,-230.15 -217.31,-238.06L-220.73,-307.27L-233.34,-306.65L-234.45,-329.15L-221.84,-329.77L-223.49,-363.14ZM-115.26,-309.26C-117.53,-309.89 -120.01,-310.02 -122.23,-309.91C-126.19,-309.71 -130.86,-308.99 -134.63,-305.08C-139.14,-300.90 -139.67,-296.66 -139.46,-292.46L-134.82,-198.52L-159.79,-197.29L-166.47,-332.50L-141.50,-333.74L-140.76,-318.66C-140.59,-320.40 -139.07,-324.69 -135.31,-328.84C-131.54,-332.74 -125.78,-336.50 -116.63,-336.95ZM-38.80,-236.22C-38.90,-223.08 -42.40,-213.74 -50.70,-206.14C-54.96,-202.22 -61.06,-200.18 -69.22,-199.78C-85.28,-198.98 -93.63,-207.49 -98.03,-216.20C-100.51,-221.28 -102.29,-227.14 -102.86,-233.80L-106.22,-301.78C-106.13,-314.92 -102.65,-324.75 -94.36,-332.60C-90.34,-336.51 -84.25,-338.55 -76.09,-338.95C-60.02,-339.74 -51.43,-331.25 -47.04,-322.79C-44.56,-317.71 -42.80,-312.10 -42.23,-305.68ZM-65.68,-303.78C-65.69,-308.99 -66.86,-312.64 -69.48,-315.49C-70.78,-316.66 -72.79,-317.31 -75.02,-317.20C-79.71,-316.97 -81.53,-313.65 -82.34,-309.90C-82.98,-307.88 -83.12,-305.65 -82.74,-302.94L-79.38,-234.96C-79.37,-229.76 -77.95,-226.11 -75.59,-223.50C-74.30,-222.33 -72.53,-221.67 -70.30,-221.78C-65.61,-222.01 -63.53,-225.09 -62.72,-228.84C-62.08,-230.86 -61.94,-233.10 -62.32,-235.80ZM43.41,-207.32L18.44,-206.09L18.00,-214.99C13.99,-210.83 10.43,-207.68 5.85,-205.22C3.44,-203.86 0.99,-203.25 -1.24,-203.14C-8.16,-202.79 -13.05,-206.52 -16.27,-211.56C-19.73,-216.35 -21.54,-222.95 -21.82,-228.63L-26.09,-314.91C-26.37,-320.59 -25.21,-327.34 -22.26,-332.69C-19.53,-337.78 -15.03,-341.97 -8.11,-342.31C-3.41,-342.54 1.66,-340.07 5.51,-337.53C7.82,-335.91 9.88,-334.28 12.20,-332.41L9.47,-387.78L34.43,-389.01ZM13.23,-311.64C13.03,-315.60 9.12,-319.62 5.41,-319.44C1.70,-319.25 -1.09,-315.65 -0.86,-310.95L2.89,-235.06C3.12,-230.36 6.26,-227.05 9.96,-227.23C13.67,-227.41 17.21,-231.06 16.98,-235.75ZM95.07,-345.42L120.04,-346.66L126.71,-211.44L101.75,-210.21L101.19,-221.58C100.70,-221.31 99.76,-220.27 98.59,-218.97C95.77,-215.86 92.48,-212.23 88.15,-209.53C85.99,-208.19 83.80,-207.34 81.57,-207.23C74.90,-206.90 70.01,-210.62 66.79,-215.66C63.57,-220.46 61.76,-227.06 61.48,-232.75L56.01,-343.49L80.98,-344.73L86.26,-237.69C86.52,-232.50 89.52,-231.90 92.49,-232.05C95.21,-232.18 96.62,-233.74 98.26,-235.56C98.97,-236.34 99.65,-237.61 100.33,-238.88ZM167.94,-244.70C168.19,-239.75 168.73,-233.83 175.40,-234.16C181.09,-234.44 182.43,-237.24 182.03,-245.39L181.10,-264.18L206.07,-265.41L206.72,-252.31C207.46,-237.23 205.22,-227.46 200.07,-221.26C194.93,-215.06 187.13,-212.44 176.50,-211.92C167.60,-211.48 159.32,-213.55 153.33,-219.44C147.34,-225.34 143.38,-235.31 142.63,-250.39L139.71,-309.47C138.97,-324.55 141.93,-334.85 147.31,-341.31C152.69,-347.77 160.73,-350.65 169.62,-351.09C180.25,-351.61 188.27,-349.78 194.01,-344.12C199.74,-338.45 202.93,-328.94 203.68,-313.87L204.20,-303.24L179.24,-302.00L178.43,-318.32C178.03,-326.48 176.41,-329.12 170.72,-328.84C164.05,-328.51 164.09,-322.57 164.34,-317.62ZM246.19,-386.34L247.84,-352.97L264.89,-353.81L266.00,-331.32L248.95,-330.47L252.27,-263.24C252.48,-259.03 252.75,-253.60 253.95,-249.19C255.16,-244.79 257.32,-241.18 261.28,-241.38C263.26,-241.48 265.72,-241.85 267.43,-242.18C268.41,-242.47 269.40,-242.52 270.38,-242.82L271.58,-218.35C270.36,-218.04 269.15,-217.48 267.93,-217.18C265.48,-216.56 262.28,-216.15 258.32,-215.96C243.74,-215.24 236.45,-222.31 232.52,-231.53C228.60,-240.76 227.79,-252.12 227.40,-260.03L223.98,-329.24L211.37,-328.62L210.26,-351.11L222.87,-351.74L221.22,-385.11ZM275.95,-400.94L300.91,-402.18L302.15,-377.21L277.18,-375.98ZM284.92,-219.25L278.24,-354.47L303.21,-355.70L309.89,-220.49ZM389.84,-257.39C389.75,-244.26 386.24,-234.91 377.94,-227.32C373.68,-223.39 367.58,-221.35 359.43,-220.95C343.36,-220.16 335.01,-228.67 330.61,-237.37C328.13,-242.45 326.36,-248.31 325.78,-254.97L322.42,-322.95C322.52,-336.09 325.99,-345.93 334.28,-353.77C338.30,-357.69 344.39,-359.72 352.55,-360.12C368.62,-360.92 377.22,-352.42 381.60,-343.96C384.08,-338.88 385.84,-333.27 386.41,-326.86ZM362.96,-324.95C362.95,-330.16 361.78,-333.82 359.16,-336.66C357.86,-337.84 355.85,-338.48 353.63,-338.37C348.93,-338.14 347.11,-334.83 346.30,-331.07C345.66,-329.06 345.52,-326.82 345.90,-324.11L349.26,-256.13C349.27,-250.93 350.69,-247.28 353.05,-244.67C354.35,-243.50 356.11,-242.84 358.34,-242.95C363.04,-243.18 365.11,-246.26 365.92,-250.02C366.56,-252.03 366.70,-254.27 366.32,-256.98ZM433.98,-226.62L409.02,-225.38L402.34,-360.60L427.30,-361.83L427.86,-350.46C428.35,-350.73 429.29,-351.77 430.70,-353.33C433.28,-356.18 436.81,-360.07 441.13,-362.77C443.30,-364.11 445.25,-364.70 447.48,-364.81C454.15,-365.14 459.04,-361.42 462.25,-356.62C465.48,-351.58 467.29,-344.98 467.57,-339.29L473.04,-228.55L448.07,-227.31L442.79,-334.35C442.53,-339.54 439.53,-340.14 436.56,-339.99C433.84,-339.85 432.43,-338.30 430.79,-336.48C430.09,-335.46 429.40,-334.43 428.72,-333.16Z" fill="#ffffff" stroke="#000000"/>
    <path d="M-579.12,-143.55L-569.80,-325.43L-537.62,-328.61L-492.81,-152.09L-518.41,-149.56L-526.91,-185.65L-552.26,-183.14L-553.52,-146.08ZM-546.48,-268.89L-547.67,-273.45L-549.13,-273.31L-549.40,-268.60L-551.36,-211.29L-533.32,-213.08ZM-456.00,-155.74L-480.62,-153.30L-493.83,-286.66L-469.20,-289.10L-468.09,-277.89C-467.63,-278.18 -466.75,-279.25 -465.43,-280.86C-463.02,-283.81 -459.72,-287.83 -455.57,-290.70C-453.50,-292.13 -451.60,-292.82 -449.40,-293.03C-442.82,-293.68 -437.80,-290.24 -434.39,-285.66C-430.96,-280.83 -428.85,-274.39 -428.29,-268.78L-417.47,-159.55L-442.10,-157.12L-452.55,-262.68C-453.06,-267.80 -456.06,-268.25 -458.98,-267.96C-461.67,-267.69 -462.98,-266.08 -464.52,-264.21C-465.16,-263.16 -465.79,-262.11 -466.40,-260.82ZM-378.66,-344.35L-352.33,-346.96L-334.58,-167.76L-360.91,-165.16ZM-290.45,-172.13L-315.07,-169.70L-328.28,-303.06L-303.66,-305.50L-302.55,-294.28C-302.08,-294.57 -301.20,-295.65 -299.89,-297.25C-297.47,-300.20 -294.18,-304.22 -290.03,-307.09C-287.95,-308.53 -286.05,-309.21 -283.86,-309.43C-277.28,-310.08 -272.26,-306.64 -268.85,-302.05C-265.42,-297.22 -263.30,-290.78 -262.75,-285.17L-251.93,-175.95L-276.55,-173.51L-287.01,-279.08C-287.51,-284.20 -290.51,-284.64 -293.44,-284.35C-296.12,-284.09 -297.44,-282.48 -298.98,-280.60C-299.61,-279.55 -300.25,-278.51 -300.86,-277.22ZM-219.63,-347.05L-216.37,-314.14L-199.55,-315.81L-197.35,-293.62L-214.18,-291.95L-207.61,-225.64C-207.20,-221.49 -206.67,-216.13 -205.26,-211.84C-203.85,-207.55 -201.54,-204.08 -197.63,-204.47C-195.68,-204.66 -193.27,-205.15 -191.59,-205.56C-190.64,-205.90 -189.66,-206.00 -188.71,-206.34L-186.32,-182.20C-187.52,-181.84 -188.69,-181.23 -189.88,-180.86C-192.27,-180.13 -195.42,-179.58 -199.32,-179.19C-213.70,-177.77 -221.25,-184.40 -225.58,-193.33C-229.91,-202.26 -231.27,-213.45 -232.04,-221.25L-238.80,-289.52L-251.24,-288.28L-253.43,-310.47L-241.00,-311.70L-244.26,-344.62ZM-134.63,-296.63C-136.89,-297.15 -139.35,-297.15 -141.55,-296.93C-145.45,-296.54 -150.03,-295.60 -153.57,-291.55C-157.82,-287.20 -158.14,-282.98 -157.73,-278.83L-148.55,-186.19L-173.18,-183.75L-186.39,-317.11L-161.76,-319.55L-160.29,-304.68C-160.21,-306.41 -158.92,-310.72 -155.40,-315.01C-151.86,-319.05 -146.35,-323.04 -137.33,-323.94ZM-55.46,-228.15C-54.91,-215.16 -57.92,-205.75 -65.75,-197.83C-69.78,-193.74 -75.71,-191.43 -83.75,-190.63C-99.60,-189.06 -108.27,-197.07 -113.04,-205.46C-115.74,-210.36 -117.78,-216.07 -118.68,-222.63L-125.32,-289.67C-125.87,-302.67 -122.91,-312.56 -115.10,-320.72C-111.32,-324.79 -105.39,-327.10 -97.35,-327.90C-81.50,-329.47 -72.58,-321.49 -67.84,-313.34C-65.14,-308.44 -63.12,-302.97 -62.25,-296.66ZM-85.34,-293.63C-85.60,-298.78 -86.94,-302.34 -89.66,-305.02C-91.00,-306.12 -93.03,-306.66 -95.22,-306.44C-99.85,-305.98 -101.49,-302.62 -102.10,-298.87C-102.64,-296.84 -102.67,-294.63 -102.16,-291.97L-95.52,-224.92C-95.26,-219.78 -93.67,-216.24 -91.21,-213.78C-89.87,-212.68 -88.10,-212.12 -85.90,-212.33C-81.27,-212.79 -79.36,-215.93 -78.75,-219.69C-78.21,-221.71 -78.19,-223.93 -78.70,-226.59ZM27.23,-203.59L2.61,-201.16L1.74,-209.93C-2.02,-205.62 -5.39,-202.33 -9.80,-199.68C-12.12,-198.22 -14.51,-197.49 -16.71,-197.27C-23.53,-196.60 -28.55,-200.04 -31.98,-204.87C-35.64,-209.43 -37.75,-215.87 -38.31,-221.48L-46.73,-306.57C-47.29,-312.17 -46.48,-318.90 -43.81,-324.34C-41.37,-329.50 -37.13,-333.86 -30.30,-334.54C-25.67,-335.00 -20.52,-332.80 -16.60,-330.48C-14.24,-328.99 -12.12,-327.47 -9.73,-325.74L-15.14,-380.35L9.48,-382.79ZM-7.70,-305.26C-8.09,-309.16 -12.16,-312.95 -15.81,-312.58C-19.47,-312.22 -22.06,-308.52 -21.60,-303.89L-14.19,-229.04C-13.73,-224.40 -10.47,-221.28 -6.81,-221.64C-3.15,-222.01 0.17,-225.78 -0.29,-230.41ZM71.56,-342.66L96.19,-345.09L109.39,-211.73L84.77,-209.29L83.66,-220.51C83.20,-220.22 82.32,-219.14 81.22,-217.80C78.58,-214.59 75.51,-210.84 71.36,-207.96C69.29,-206.53 67.16,-205.58 64.97,-205.36C58.39,-204.71 53.37,-208.15 49.94,-212.98C46.53,-217.57 44.41,-224.01 43.86,-229.61L33.04,-338.84L57.67,-341.28L68.12,-235.71C68.63,-230.59 71.63,-230.15 74.55,-230.44C77.23,-230.70 78.55,-232.31 80.09,-234.19C80.75,-234.99 81.36,-236.28 81.97,-237.57ZM148.53,-246.63C149.01,-241.75 149.84,-235.92 156.42,-236.58C162.03,-237.13 163.22,-239.96 162.43,-248.00L160.59,-266.53L185.22,-268.97L186.50,-256.05C187.97,-241.18 186.23,-231.40 181.44,-225.02C176.66,-218.64 169.08,-215.67 158.59,-214.63C149.82,-213.76 141.53,-215.41 135.32,-220.95C129.11,-226.49 124.70,-236.14 123.23,-251.02L117.46,-309.29C115.99,-324.16 118.41,-334.49 123.41,-341.14C128.42,-347.79 136.22,-351.03 145.00,-351.90C155.48,-352.94 163.50,-351.51 169.45,-346.19C175.39,-340.87 179.01,-331.63 180.48,-316.76L181.52,-306.27L156.90,-303.84L155.30,-319.93C154.51,-327.97 152.78,-330.51 147.17,-329.95C140.59,-329.30 140.92,-323.43 141.41,-318.55ZM218.98,-390.49L222.24,-357.58L239.06,-359.24L241.26,-337.06L224.43,-335.39L231.00,-269.07C231.41,-264.93 231.94,-259.57 233.35,-255.27C234.76,-250.98 237.07,-247.52 240.97,-247.90C242.93,-248.10 245.34,-248.58 247.02,-249.00C247.97,-249.34 248.95,-249.43 249.90,-249.77L252.29,-225.64C251.09,-225.27 249.92,-224.66 248.73,-224.30C246.34,-223.57 243.19,-223.01 239.29,-222.63C224.91,-221.20 217.36,-227.84 213.03,-236.77C208.70,-245.69 207.34,-256.88 206.57,-264.69L199.81,-332.95L187.37,-331.72L185.18,-353.91L197.61,-355.14L194.35,-388.05ZM247.68,-406.38L272.31,-408.82L274.75,-384.20L250.12,-381.76ZM265.43,-227.18L252.22,-360.55L276.85,-362.99L290.06,-229.62ZM367.30,-270.02C367.85,-257.02 364.84,-247.62 357.01,-239.70C352.98,-235.61 347.06,-233.30 339.01,-232.50C323.16,-230.93 314.49,-238.94 309.72,-247.33C307.02,-252.23 304.98,-257.94 304.08,-264.49L297.44,-331.54C296.89,-344.54 299.85,-354.43 307.66,-362.59C311.44,-366.66 317.37,-368.97 325.42,-369.76C341.26,-371.33 350.18,-363.35 354.92,-355.21C357.63,-350.30 359.64,-344.84 360.52,-338.53ZM337.43,-335.50C337.16,-340.65 335.83,-344.21 333.10,-346.89C331.76,-347.99 329.74,-348.53 327.54,-348.31C322.91,-347.85 321.27,-344.49 320.66,-340.73C320.12,-338.71 320.09,-336.49 320.60,-333.84L327.24,-266.79C327.51,-261.64 329.09,-258.11 331.55,-255.64C332.89,-254.55 334.67,-253.98 336.86,-254.20C341.49,-254.66 343.40,-257.80 344.01,-261.56C344.55,-263.58 344.58,-265.80 344.07,-268.45ZM412.45,-241.74L387.82,-239.30L374.61,-372.67L399.24,-375.11L400.35,-363.89C400.81,-364.18 401.69,-365.25 403.01,-366.86C405.43,-369.81 408.72,-373.83 412.87,-376.70C414.94,-378.14 416.84,-378.82 419.04,-379.04C425.62,-379.69 430.64,-376.25 434.05,-371.66C437.48,-366.83 439.60,-360.39 440.15,-354.78L450.97,-245.56L426.34,-243.12L415.89,-348.69C415.38,-353.81 412.38,-354.25 409.46,-353.96C406.78,-353.69 405.46,-352.09 403.92,-350.21C403.29,-349.16 402.65,-348.12 402.04,-346.82Z" fill="#ffffff" stroke="#000000"/>
    <path d="M-584.85,-109.89L-584.52,-290.15L-552.86,-294.87L-499.94,-122.56L-525.13,-118.80L-535.29,-154.06L-560.23,-150.34L-559.66,-113.65ZM-558.70,-235.40L-560.10,-239.85L-561.54,-239.64L-561.58,-234.97L-560.71,-178.22L-542.96,-180.87ZM-463.72,-127.96L-487.95,-124.35L-507.52,-255.54L-483.29,-259.16L-481.65,-248.12C-481.20,-248.43 -480.39,-249.54 -479.16,-251.19C-476.92,-254.22 -473.86,-258.36 -469.90,-261.40C-467.92,-262.92 -466.07,-263.69 -463.91,-264.01C-457.44,-264.97 -452.31,-261.82 -448.71,-257.45C-445.08,-252.84 -442.68,-246.58 -441.86,-241.06L-425.83,-133.61L-450.05,-130.00L-465.54,-233.85C-466.30,-238.89 -469.28,-239.18 -472.16,-238.75C-474.80,-238.36 -476.02,-236.70 -477.45,-234.77C-478.03,-233.71 -478.60,-232.64 -479.14,-231.33ZM-396.48,-318.20L-370.58,-322.06L-344.28,-145.78L-370.18,-141.91ZM-300.87,-152.25L-325.09,-148.64L-344.66,-279.83L-320.44,-283.45L-318.79,-272.41C-318.35,-272.72 -317.53,-273.83 -316.31,-275.48C-314.06,-278.51 -311.00,-282.65 -307.04,-285.69C-305.06,-287.21 -303.21,-287.98 -301.06,-288.30C-294.58,-289.26 -289.45,-286.11 -285.86,-281.74C-282.23,-277.13 -279.82,-270.87 -279.00,-265.35L-262.97,-157.90L-287.20,-154.29L-302.69,-258.14C-303.44,-263.18 -306.42,-263.47 -309.30,-263.04C-311.94,-262.65 -313.17,-260.99 -314.59,-259.06C-315.17,-258.00 -315.75,-256.93 -316.29,-255.62ZM-239.40,-328.63L-234.57,-296.25L-218.02,-298.72L-214.77,-276.90L-231.32,-274.43L-221.59,-209.19C-220.98,-205.11 -220.19,-199.84 -218.59,-195.66C-216.98,-191.49 -214.53,-188.18 -210.69,-188.75C-208.77,-189.03 -206.41,-189.63 -204.77,-190.12C-203.84,-190.51 -202.88,-190.65 -201.96,-191.03L-198.42,-167.29C-199.58,-166.87 -200.71,-166.21 -201.87,-165.79C-204.20,-164.95 -207.28,-164.25 -211.12,-163.68C-225.27,-161.56 -233.06,-167.76 -237.78,-176.37C-242.49,-184.99 -244.38,-195.98 -245.52,-203.66L-255.54,-270.81L-267.77,-268.99L-271.03,-290.82L-258.80,-292.64L-263.63,-325.02ZM-152.90,-282.94C-155.17,-283.33 -157.60,-283.22 -159.76,-282.89C-163.60,-282.32 -168.08,-281.16 -171.38,-276.99C-175.37,-272.48 -175.48,-268.29 -174.87,-264.21L-161.28,-173.07L-185.50,-169.46L-205.07,-300.65L-180.85,-304.27L-178.66,-289.64C-178.68,-291.35 -177.60,-295.68 -174.34,-300.09C-171.04,-304.26 -165.78,-308.48 -156.91,-309.80ZM-71.30,-219.10C-70.12,-206.28 -72.63,-196.84 -79.99,-188.63C-83.77,-184.39 -89.52,-181.81 -97.43,-180.63C-113.02,-178.31 -121.99,-185.80 -127.11,-193.86C-130.02,-198.57 -132.32,-204.12 -133.52,-210.56L-143.36,-276.51C-144.54,-289.33 -142.10,-299.26 -134.78,-307.71C-131.23,-311.91 -125.49,-314.49 -117.57,-315.67C-101.98,-317.99 -92.78,-310.54 -87.69,-302.72C-84.78,-298.00 -82.52,-292.70 -81.35,-286.50ZM-104.03,-282.38C-104.54,-287.45 -106.03,-290.91 -108.86,-293.43C-110.24,-294.45 -112.27,-294.88 -114.43,-294.56C-118.98,-293.88 -120.44,-290.48 -120.86,-286.74C-121.29,-284.71 -121.21,-282.51 -120.58,-279.91L-110.74,-213.95C-110.23,-208.88 -108.49,-205.46 -105.94,-203.15C-104.56,-202.13 -102.78,-201.66 -100.62,-201.98C-96.06,-202.66 -94.33,-205.86 -93.91,-209.60C-93.47,-211.63 -93.56,-213.82 -94.19,-216.42ZM11.65,-198.86L-12.57,-195.25L-13.86,-203.89C-17.37,-199.44 -20.53,-196.03 -24.77,-193.19C-26.99,-191.63 -29.32,-190.79 -31.47,-190.47C-38.19,-189.47 -43.32,-192.63 -46.95,-197.23C-50.78,-201.57 -53.19,-207.83 -54.01,-213.34L-66.50,-297.05C-67.32,-302.57 -66.85,-309.26 -64.48,-314.76C-62.32,-319.99 -58.33,-324.50 -51.62,-325.50C-47.06,-326.18 -41.87,-324.26 -37.88,-322.16C-35.47,-320.80 -33.30,-319.41 -30.85,-317.81L-38.87,-371.54L-14.64,-375.15ZM-27.85,-297.67C-28.42,-301.50 -32.63,-305.04 -36.22,-304.51C-39.82,-303.97 -42.20,-300.18 -41.52,-295.63L-30.54,-221.99C-29.86,-217.44 -26.48,-214.51 -22.88,-215.04C-19.28,-215.58 -16.19,-219.48 -16.87,-224.03ZM48.69,-338.50L72.91,-342.12L92.48,-210.92L68.26,-207.31L66.61,-218.34C66.17,-218.03 65.35,-216.93 64.33,-215.55C61.88,-212.24 59.02,-208.38 55.06,-205.34C53.08,-203.82 51.03,-202.78 48.87,-202.46C42.40,-201.49 37.27,-204.65 33.64,-209.25C30.05,-213.62 27.64,-219.88 26.82,-225.40L10.79,-332.85L35.02,-336.46L50.51,-232.61C51.26,-227.57 54.24,-227.28 57.12,-227.71C59.76,-228.11 60.98,-229.76 62.41,-231.69C63.02,-232.52 63.56,-233.82 64.11,-235.13ZM129.47,-247.33C130.18,-242.53 131.28,-236.81 137.76,-237.78C143.27,-238.60 144.32,-241.45 143.14,-249.37L140.42,-267.60L164.64,-271.21L166.54,-258.50C168.72,-243.87 167.48,-234.12 163.06,-227.58C158.64,-221.03 151.29,-217.73 140.98,-216.19C132.34,-214.90 124.07,-216.12 117.66,-221.30C111.25,-226.47 106.42,-235.80 104.24,-250.43L95.69,-307.76C93.51,-322.39 95.40,-332.72 100.02,-339.54C104.64,-346.36 112.20,-349.94 120.83,-351.23C131.15,-352.76 139.14,-351.75 145.28,-346.78C151.41,-341.81 155.45,-332.85 157.63,-318.22L159.17,-307.91L134.94,-304.29L132.58,-320.12C131.40,-328.04 129.57,-330.46 124.05,-329.64C117.58,-328.67 118.20,-322.88 118.91,-318.09ZM192.08,-392.99L196.91,-360.61L213.46,-363.08L216.72,-341.25L200.17,-338.79L209.90,-273.55C210.51,-269.47 211.29,-264.19 212.90,-260.02C214.50,-255.85 216.96,-252.53 220.79,-253.11C222.71,-253.39 225.07,-253.99 226.72,-254.48C227.64,-254.86 228.60,-255.01 229.52,-255.39L233.07,-231.64C231.90,-231.23 230.77,-230.57 229.61,-230.15C227.28,-229.31 224.20,-228.61 220.36,-228.03C206.21,-225.92 198.42,-232.12 193.71,-240.73C188.99,-249.34 187.10,-260.34 185.96,-268.02L175.94,-335.17L163.71,-333.35L160.45,-355.17L172.69,-357.00L167.86,-389.38ZM219.69,-410.10L243.91,-413.72L247.52,-389.49L223.30,-385.88ZM245.98,-233.82L226.41,-365.01L250.64,-368.63L270.21,-237.43ZM344.60,-281.14C345.77,-268.32 343.26,-258.87 335.90,-250.66C332.12,-246.42 326.38,-243.85 318.46,-242.67C302.87,-240.34 293.91,-247.83 288.78,-255.89C285.87,-260.61 283.58,-266.15 282.37,-272.59L272.53,-338.55C271.36,-351.37 273.80,-361.29 281.12,-369.74C284.66,-373.95 290.41,-376.52 298.32,-377.70C313.91,-380.02 323.11,-372.57 328.20,-364.75C331.11,-360.03 333.37,-354.73 334.54,-348.53ZM311.87,-344.41C311.36,-349.49 309.86,-352.94 307.03,-355.46C305.65,-356.48 303.63,-356.92 301.47,-356.59C296.91,-355.91 295.46,-352.51 295.04,-348.77C294.60,-346.74 294.68,-344.55 295.32,-341.95L305.16,-275.99C305.67,-270.91 307.40,-267.50 309.95,-265.18C311.33,-264.16 313.12,-263.69 315.28,-264.01C319.83,-264.69 321.56,-267.89 321.99,-271.63C322.42,-273.66 322.34,-275.85 321.70,-278.46ZM390.61,-255.39L366.38,-251.78L346.82,-382.97L371.04,-386.58L372.69,-375.55C373.13,-375.86 373.95,-376.97 375.17,-378.62C377.42,-381.65 380.48,-385.79 384.44,-388.83C386.42,-390.35 388.26,-391.12 390.42,-391.44C396.90,-392.40 402.03,-389.25 405.62,-384.88C409.25,-380.27 411.66,-374.01 412.48,-368.49L428.50,-261.04L404.28,-257.43L388.79,-361.28C388.04,-366.32 385.05,-366.61 382.18,-366.18C379.54,-365.79 378.31,-364.13 376.88,-362.20C376.31,-361.14 375.73,-360.07 375.19,-358.76Z" fill="#ffffff" stroke="#000000"/>
    <path d="M-588.56,-76.12L-597.04,-254.32L-565.97,-260.53L-505.25,-92.78L-529.96,-87.84L-541.73,-122.20L-566.21,-117.30L-563.85,-81.06ZM-568.84,-201.46L-570.44,-205.79L-571.86,-205.51L-571.67,-200.90L-568.04,-144.84L-550.63,-148.32ZM-469.72,-99.89L-493.49,-95.14L-519.23,-223.87L-495.47,-228.62L-493.30,-217.79C-492.88,-218.12 -492.12,-219.25 -490.99,-220.95C-488.92,-224.05 -486.10,-228.29 -482.33,-231.49C-480.45,-233.09 -478.66,-233.94 -476.54,-234.36C-470.19,-235.63 -464.97,-232.76 -461.20,-228.62C-457.39,-224.24 -454.70,-218.17 -453.62,-212.76L-432.53,-107.33L-456.30,-102.57L-476.68,-204.47C-477.67,-209.42 -480.64,-209.56 -483.46,-208.99C-486.05,-208.48 -487.18,-206.78 -488.50,-204.80C-489.02,-203.72 -489.53,-202.64 -490.00,-201.32ZM-412.53,-291.22L-387.12,-296.31L-352.52,-123.33L-377.93,-118.25ZM-309.92,-131.85L-333.69,-127.10L-359.44,-255.83L-335.67,-260.58L-333.51,-249.76C-333.08,-250.09 -332.33,-251.22 -331.20,-252.91C-329.13,-256.02 -326.30,-260.25 -322.54,-263.45C-320.66,-265.06 -318.87,-265.90 -316.75,-266.33C-310.40,-267.60 -305.17,-264.73 -301.41,-260.58C-297.59,-256.21 -294.91,-250.14 -293.83,-244.72L-272.74,-139.29L-296.51,-134.54L-316.89,-236.44C-317.88,-241.38 -320.84,-241.52 -323.67,-240.96C-326.26,-240.44 -327.39,-238.74 -328.70,-236.77C-329.22,-235.68 -329.74,-234.60 -330.21,-233.28ZM-257.77,-309.21L-251.42,-277.44L-235.18,-280.68L-230.90,-259.27L-247.14,-256.02L-234.33,-192.01C-233.53,-188.01 -232.50,-182.83 -230.71,-178.78C-228.92,-174.73 -226.33,-171.58 -222.56,-172.33C-220.68,-172.71 -218.38,-173.42 -216.78,-173.98C-215.88,-174.40 -214.94,-174.59 -214.05,-175.02L-209.39,-151.72C-210.51,-151.25 -211.60,-150.54 -212.73,-150.07C-214.99,-149.13 -218.00,-148.28 -221.76,-147.53C-235.65,-144.75 -243.65,-150.49 -248.73,-158.78C-253.82,-167.06 -256.22,-177.84 -257.72,-185.37L-270.91,-251.27L-282.91,-248.86L-287.19,-270.28L-275.19,-272.68L-281.54,-304.45ZM-170.04,-268.26C-172.30,-268.54 -174.70,-268.31 -176.82,-267.88C-180.58,-267.13 -184.96,-265.76 -188.02,-261.48C-191.74,-256.82 -191.64,-252.68 -190.84,-248.68L-172.95,-159.25L-196.72,-154.50L-222.47,-283.23L-198.70,-287.98L-195.83,-273.62C-195.93,-275.32 -195.08,-279.65 -192.07,-284.17C-189.01,-288.45 -184.02,-292.88 -175.31,-294.62ZM-86.26,-209.14C-84.47,-196.53 -86.49,-187.07 -93.36,-178.60C-96.89,-174.22 -102.45,-171.40 -110.21,-169.84C-125.51,-166.78 -134.74,-173.75 -140.20,-181.47C-143.30,-185.99 -145.84,-191.35 -147.35,-197.66L-160.30,-262.38C-162.08,-274.99 -160.16,-284.92 -153.33,-293.63C-150.04,-297.96 -144.48,-300.78 -136.72,-302.34C-121.42,-305.40 -111.96,-298.48 -106.55,-290.99C-103.44,-286.48 -100.94,-281.35 -99.48,-275.27ZM-121.70,-270.10C-122.45,-275.09 -124.10,-278.43 -127.02,-280.78C-128.43,-281.72 -130.46,-282.05 -132.57,-281.63C-137.04,-280.73 -138.32,-277.30 -138.55,-273.58C-138.88,-271.55 -138.69,-269.39 -137.94,-266.85L-124.99,-202.13C-124.24,-197.14 -122.36,-193.85 -119.72,-191.68C-118.31,-190.74 -116.52,-190.36 -114.40,-190.79C-109.93,-191.68 -108.38,-194.93 -108.14,-198.65C-107.81,-200.67 -108.00,-202.84 -108.76,-205.38ZM-3.28,-193.19L-27.05,-188.44L-28.74,-196.91C-31.99,-192.34 -34.95,-188.81 -39.00,-185.80C-41.12,-184.15 -43.38,-183.21 -45.50,-182.79C-52.08,-181.47 -57.31,-184.34 -61.12,-188.72C-65.12,-192.81 -67.81,-198.88 -68.89,-204.30L-85.32,-286.43C-86.40,-291.84 -86.26,-298.48 -84.19,-304.03C-82.31,-309.30 -78.59,-313.96 -72.00,-315.28C-67.53,-316.18 -62.30,-314.53 -58.25,-312.65C-55.81,-311.42 -53.59,-310.15 -51.10,-308.69L-61.64,-361.41L-37.87,-366.16ZM-47.15,-288.93C-47.90,-292.69 -52.23,-295.99 -55.76,-295.28C-59.29,-294.57 -61.45,-290.71 -60.56,-286.24L-46.11,-213.99C-45.21,-209.52 -41.73,-206.79 -38.20,-207.50C-34.67,-208.20 -31.80,-212.20 -32.69,-216.68ZM26.51,-333.03L50.28,-337.78L76.03,-209.05L52.26,-204.30L50.10,-215.12C49.67,-214.80 48.92,-213.67 47.98,-212.25C45.72,-208.86 43.09,-204.91 39.32,-201.71C37.44,-200.11 35.46,-198.98 33.34,-198.56C26.99,-197.29 21.76,-200.16 17.95,-204.53C14.19,-208.68 11.50,-214.75 10.42,-220.16L-10.67,-325.59L13.10,-330.35L33.48,-228.44C34.47,-223.50 37.44,-223.36 40.26,-223.93C42.85,-224.44 43.98,-226.14 45.30,-228.12C45.86,-228.96 46.33,-230.28 46.80,-231.60ZM110.82,-246.85C111.76,-242.14 113.12,-236.54 119.48,-237.81C124.89,-238.90 125.78,-241.77 124.23,-249.53L120.65,-267.42L144.42,-272.17L146.92,-259.70C149.79,-245.34 149.03,-235.65 144.99,-228.97C140.94,-222.28 133.83,-218.66 123.71,-216.63C115.24,-214.94 107.00,-215.74 100.41,-220.54C93.82,-225.34 88.60,-234.33 85.73,-248.69L74.48,-304.93C71.61,-319.29 72.97,-329.59 77.21,-336.56C81.44,-343.53 88.74,-347.43 97.21,-349.13C107.33,-351.15 115.28,-350.54 121.59,-345.93C127.90,-341.32 132.32,-332.66 135.19,-318.30L137.22,-308.18L113.45,-303.43L110.34,-318.96C108.79,-326.72 106.86,-329.03 101.45,-327.95C95.09,-326.68 95.99,-320.98 96.93,-316.27ZM165.60,-393.89L171.95,-362.12L188.19,-365.37L192.48,-343.95L176.24,-340.71L189.04,-276.69C189.84,-272.69 190.88,-267.51 192.67,-263.47C194.45,-259.42 197.04,-256.27 200.81,-257.02C202.69,-257.40 205.00,-258.10 206.60,-258.67C207.49,-259.09 208.43,-259.28 209.33,-259.70L213.99,-236.40C212.86,-235.93 211.78,-235.23 210.65,-234.76C208.39,-233.81 205.38,-232.97 201.61,-232.21C187.72,-229.44 179.72,-235.18 174.64,-243.46C169.56,-251.75 167.16,-262.53 165.65,-270.06L152.47,-335.95L140.47,-333.55L136.18,-354.97L148.18,-357.37L141.83,-389.14ZM192.05,-412.15L215.82,-416.91L220.57,-393.14L196.80,-388.39ZM226.65,-239.18L200.90,-367.91L224.67,-372.67L250.42,-243.94ZM321.82,-290.77C323.61,-278.16 321.58,-268.69 314.71,-260.22C311.18,-255.84 305.63,-253.02 297.86,-251.47C282.57,-248.41 273.34,-255.37 267.88,-263.09C264.77,-267.61 262.23,-272.98 260.73,-279.28L247.78,-344.00C245.99,-356.62 247.92,-366.55 254.75,-375.25C258.04,-379.59 263.59,-382.41 271.36,-383.96C286.66,-387.02 296.12,-380.10 301.53,-372.62C304.64,-368.10 307.13,-362.97 308.59,-356.90ZM286.38,-351.72C285.62,-356.71 283.98,-360.05 281.06,-362.41C279.65,-363.35 277.62,-363.68 275.50,-363.25C271.03,-362.36 269.76,-358.92 269.53,-355.20C269.20,-353.18 269.38,-351.02 270.14,-348.47L283.08,-283.76C283.84,-278.77 285.72,-275.47 288.35,-273.31C289.77,-272.37 291.56,-271.99 293.67,-272.41C298.14,-273.31 299.70,-276.55 299.93,-280.27C300.26,-282.30 300.07,-284.46 299.32,-287.00ZM368.56,-267.57L344.79,-262.81L319.04,-391.54L342.81,-396.30L344.97,-385.47C345.40,-385.80 346.15,-386.93 347.28,-388.62C349.35,-391.73 352.18,-395.97 355.94,-399.17C357.82,-400.77 359.61,-401.62 361.73,-402.04C368.08,-403.31 373.31,-400.44 377.07,-396.30C380.89,-391.92 383.57,-385.85 384.65,-380.44L405.74,-275.00L381.97,-270.25L361.59,-372.15C360.60,-377.09 357.64,-377.23 354.81,-376.67C352.22,-376.15 351.09,-374.46 349.78,-372.48C349.26,-371.40 348.74,-370.31 348.27,-369.00Z" fill="#ffffff" stroke="#000000"/>
    <path d="M-590.27,-42.34L-607.35,-218.06L-576.95,-225.72L-508.74,-62.88L-532.92,-56.79L-546.23,-90.17L-570.18,-84.14L-566.09,-48.43ZM-576.90,-167.19L-578.69,-171.39L-580.07,-171.05L-579.66,-166.50L-573.34,-111.27L-556.30,-115.56ZM-473.97,-71.64L-497.23,-65.78L-528.96,-191.76L-505.70,-197.62L-503.03,-187.02C-502.63,-187.37 -501.94,-188.52 -500.91,-190.25C-499.01,-193.43 -496.43,-197.75 -492.86,-201.10C-491.08,-202.77 -489.35,-203.70 -487.28,-204.22C-481.06,-205.78 -475.76,-203.20 -471.83,-199.29C-467.85,-195.15 -464.90,-189.28 -463.57,-183.98L-437.58,-80.81L-460.84,-74.95L-485.96,-174.67C-487.18,-179.51 -490.11,-179.50 -492.88,-178.81C-495.41,-178.17 -496.45,-176.44 -497.65,-174.42C-498.11,-173.32 -498.57,-172.23 -498.97,-170.90ZM-426.79,-263.54L-401.91,-269.81L-359.27,-100.53L-384.15,-94.27ZM-317.59,-111.03L-340.85,-105.17L-372.58,-231.15L-349.32,-237.01L-346.65,-226.42C-346.25,-226.76 -345.56,-227.92 -344.53,-229.65C-342.63,-232.82 -340.05,-237.14 -336.48,-240.49C-334.70,-242.16 -332.97,-243.09 -330.90,-243.61C-324.68,-245.18 -319.38,-242.59 -315.46,-238.68C-311.47,-234.54 -308.53,-228.67 -307.19,-223.38L-281.20,-120.20L-304.46,-114.34L-329.58,-214.06C-330.80,-218.90 -333.74,-218.89 -336.50,-218.20C-339.03,-217.56 -340.07,-215.83 -341.27,-213.81C-341.73,-212.72 -342.19,-211.62 -342.59,-210.30ZM-274.71,-288.87L-266.87,-257.78L-250.98,-261.78L-245.70,-240.83L-261.59,-236.82L-245.81,-174.18C-244.83,-170.26 -243.55,-165.20 -241.59,-161.28C-239.62,-157.37 -236.91,-154.38 -233.22,-155.31C-231.38,-155.77 -229.14,-156.58 -227.58,-157.22C-226.72,-157.68 -225.80,-157.91 -224.93,-158.38L-219.19,-135.58C-220.28,-135.06 -221.32,-134.31 -222.41,-133.79C-224.60,-132.74 -227.54,-131.76 -231.22,-130.83C-244.81,-127.41 -253.00,-132.69 -258.43,-140.63C-263.85,-148.57 -266.75,-159.11 -268.61,-166.48L-284.85,-230.96L-296.60,-228.00L-301.88,-248.96L-290.13,-251.92L-297.97,-283.01ZM-185.99,-252.68C-188.24,-252.85 -190.60,-252.50 -192.67,-251.98C-196.36,-251.05 -200.62,-249.49 -203.43,-245.11C-206.88,-240.32 -206.58,-236.23 -205.60,-232.32L-183.55,-144.80L-206.81,-138.94L-238.55,-264.92L-215.29,-270.78L-211.75,-256.73C-211.92,-258.40 -211.30,-262.72 -208.54,-267.33C-205.72,-271.72 -201.01,-276.33 -192.49,-278.48ZM-100.30,-198.35C-97.91,-185.97 -99.45,-176.52 -105.83,-167.81C-109.10,-163.31 -114.46,-160.25 -122.06,-158.33C-137.03,-154.56 -146.48,-160.99 -152.26,-168.36C-155.55,-172.67 -158.32,-177.85 -160.12,-184.01L-176.07,-247.34C-178.46,-259.73 -177.04,-269.64 -170.72,-278.57C-167.67,-283.02 -162.32,-286.08 -154.72,-287.99C-139.75,-291.76 -130.06,-285.39 -124.34,-278.26C-121.05,-273.94 -118.34,-268.99 -116.60,-263.06ZM-138.30,-256.86C-139.29,-261.75 -141.08,-264.98 -144.08,-267.16C-145.52,-268.02 -147.54,-268.25 -149.61,-267.73C-153.99,-266.62 -155.08,-263.17 -155.13,-259.48C-155.35,-257.46 -155.06,-255.33 -154.19,-252.86L-138.24,-189.52C-137.25,-184.63 -135.23,-181.46 -132.52,-179.45C-131.08,-178.59 -129.29,-178.31 -127.22,-178.83C-122.84,-179.93 -121.47,-183.22 -121.42,-186.90C-121.19,-188.92 -121.48,-191.05 -122.35,-193.53ZM-17.50,-186.63L-40.76,-180.77L-42.85,-189.06C-45.84,-184.39 -48.60,-180.76 -52.45,-177.58C-54.46,-175.85 -56.65,-174.81 -58.72,-174.29C-65.17,-172.66 -70.47,-175.24 -74.46,-179.38C-78.61,-183.24 -81.56,-189.11 -82.89,-194.40L-103.14,-274.78C-104.48,-280.08 -104.66,-286.64 -102.88,-292.23C-101.28,-297.54 -97.83,-302.32 -91.38,-303.95C-87.01,-305.05 -81.76,-303.68 -77.67,-302.01C-75.19,-300.92 -72.94,-299.78 -70.41,-298.46L-83.40,-350.04L-60.14,-355.90ZM-65.53,-279.11C-66.46,-282.79 -70.90,-285.84 -74.36,-284.97C-77.81,-284.10 -79.76,-280.18 -78.66,-275.80L-60.85,-205.10C-59.75,-200.72 -56.17,-198.20 -52.72,-199.07C-49.26,-199.94 -46.62,-204.03 -47.72,-208.41ZM5.12,-326.30L28.38,-332.16L60.11,-206.18L36.85,-200.32L34.18,-210.91C33.78,-210.57 33.09,-209.42 32.23,-207.97C30.16,-204.51 27.75,-200.48 24.18,-197.13C22.40,-195.46 20.50,-194.24 18.43,-193.72C12.21,-192.15 6.91,-194.74 2.93,-198.88C-1.00,-202.79 -3.95,-208.66 -5.28,-213.95L-31.27,-317.13L-8.01,-322.99L17.11,-223.27C18.33,-218.43 21.27,-218.44 24.03,-219.13C26.56,-219.77 27.60,-221.50 28.80,-223.52C29.32,-224.38 29.72,-225.71 30.12,-227.04ZM92.64,-245.24C93.81,-240.63 95.43,-235.16 101.65,-236.73C106.94,-238.06 107.69,-240.94 105.77,-248.54L101.36,-266.05L124.62,-271.91L127.70,-259.70C131.24,-245.65 130.97,-236.03 127.29,-229.23C123.62,-222.42 116.77,-218.49 106.87,-216.00C98.58,-213.91 90.40,-214.30 83.65,-218.72C76.90,-223.15 71.30,-231.78 67.76,-245.82L53.89,-300.87C50.35,-314.92 51.20,-325.17 55.05,-332.26C58.89,-339.35 65.91,-343.57 74.20,-345.66C84.11,-348.16 92.00,-347.94 98.46,-343.69C104.92,-339.44 109.71,-331.09 113.25,-317.04L115.75,-307.14L92.49,-301.28L88.66,-316.48C86.74,-324.08 84.72,-326.27 79.43,-324.93C73.21,-323.37 74.37,-317.78 75.53,-313.18ZM139.61,-393.24L147.45,-362.15L163.34,-366.15L168.62,-345.20L152.72,-341.19L168.50,-278.55C169.49,-274.64 170.77,-269.57 172.73,-265.66C174.70,-261.74 177.41,-258.75 181.10,-259.68C182.94,-260.14 185.18,-260.95 186.74,-261.59C187.60,-262.05 188.52,-262.29 189.39,-262.75L195.13,-239.95C194.04,-239.43 193.00,-238.68 191.91,-238.16C189.72,-237.11 186.78,-236.13 183.10,-235.20C169.51,-231.78 161.32,-237.06 155.89,-245.00C150.46,-252.94 147.56,-263.48 145.71,-270.85L129.46,-335.33L117.72,-332.38L112.44,-353.33L124.18,-356.29L116.35,-387.38ZM164.87,-412.58L188.13,-418.44L193.99,-395.18L170.73,-389.32ZM207.51,-243.31L175.77,-369.29L199.03,-375.15L230.77,-249.17ZM299.05,-298.95C301.44,-286.57 299.90,-277.12 293.52,-268.41C290.24,-263.91 284.89,-260.85 277.29,-258.93C262.32,-255.16 252.87,-261.59 247.09,-268.96C243.80,-273.27 241.03,-278.45 239.23,-284.61L223.28,-347.94C220.89,-360.32 222.31,-370.23 228.63,-379.17C231.68,-383.62 237.03,-386.68 244.63,-388.59C259.60,-392.36 269.29,-385.99 275.00,-378.85C278.30,-374.54 281.01,-369.59 282.75,-363.66ZM261.05,-357.46C260.06,-362.35 258.27,-365.58 255.27,-367.76C253.82,-368.62 251.81,-368.85 249.74,-368.33C245.36,-367.22 244.27,-363.77 244.22,-360.08C243.99,-358.06 244.29,-355.93 245.15,-353.46L261.11,-290.12C262.10,-285.23 264.12,-282.06 266.83,-280.05C268.27,-279.19 270.06,-278.91 272.13,-279.43C276.51,-280.53 277.88,-283.82 277.93,-287.50C278.16,-289.52 277.87,-291.65 277.00,-294.13ZM346.38,-278.29L323.12,-272.43L291.39,-398.41L314.65,-404.27L317.32,-393.68C317.72,-394.02 318.41,-395.18 319.44,-396.91C321.34,-400.08 323.92,-404.40 327.49,-407.75C329.27,-409.42 330.99,-410.35 333.07,-410.87C339.29,-412.44 344.59,-409.85 348.51,-405.94C352.50,-401.80 355.44,-395.93 356.78,-390.64L382.77,-287.46L359.51,-281.60L334.39,-381.32C333.17,-386.16 330.23,-386.15 327.47,-385.46C324.93,-384.82 323.90,-383.09 322.69,-381.07C322.24,-379.98 321.78,-378.88 321.38,-377.56Z" fill="#ffffff" stroke="#000000"/>
    <path d="M-589.98,-8.69L-615.44,-181.51L-585.77,-190.56L-510.41,-32.97L-534.02,-25.76L-548.80,-58.11L-572.17,-50.98L-566.38,-15.89ZM-582.86,-132.73L-584.84,-136.79L-586.19,-136.38L-585.56,-131.90L-576.62,-77.63L-559.99,-82.70ZM-476.47,-43.32L-499.18,-36.39L-536.69,-159.34L-513.99,-166.27L-510.83,-155.93C-510.45,-156.29 -509.83,-157.47 -508.89,-159.23C-507.17,-162.45 -504.83,-166.85 -501.47,-170.34C-499.79,-172.08 -498.13,-173.08 -496.10,-173.69C-490.03,-175.54 -484.67,-173.25 -480.60,-169.58C-476.46,-165.68 -473.26,-160.02 -471.68,-154.85L-440.96,-54.16L-463.66,-47.23L-493.36,-144.56C-494.80,-149.28 -497.70,-149.13 -500.40,-148.30C-502.87,-147.55 -503.81,-145.79 -504.90,-143.74C-505.30,-142.63 -505.70,-141.53 -506.03,-140.20ZM-439.22,-235.27L-414.94,-242.68L-364.54,-77.47L-388.81,-70.07ZM-323.85,-89.89L-346.56,-82.96L-384.07,-205.91L-361.37,-212.84L-358.21,-202.50C-357.83,-202.86 -357.21,-204.03 -356.27,-205.79C-354.55,-209.02 -352.21,-213.42 -348.85,-216.90C-347.17,-218.64 -345.51,-219.64 -343.48,-220.26C-337.41,-222.11 -332.05,-219.81 -327.98,-216.14C-323.84,-212.25 -320.64,-206.59 -319.06,-201.42L-288.34,-100.72L-311.04,-93.79L-340.74,-191.12C-342.18,-195.84 -345.08,-195.69 -347.78,-194.87C-350.25,-194.11 -351.19,-192.35 -352.28,-190.30C-352.68,-189.20 -353.08,-188.09 -353.41,-186.76ZM-290.16,-267.73L-280.90,-237.39L-265.39,-242.12L-259.15,-221.66L-274.66,-216.93L-256.00,-155.79C-254.84,-151.97 -253.33,-147.03 -251.20,-143.26C-249.06,-139.48 -246.24,-136.66 -242.64,-137.76C-240.84,-138.31 -238.66,-139.22 -237.16,-139.92C-236.33,-140.42 -235.43,-140.70 -234.60,-141.20L-227.81,-118.94C-228.86,-118.38 -229.85,-117.58 -230.91,-117.02C-233.02,-115.88 -235.87,-114.76 -239.47,-113.67C-252.73,-109.62 -261.08,-114.44 -266.83,-122.02C-272.58,-129.61 -275.96,-139.88 -278.16,-147.07L-297.36,-210.01L-308.82,-206.51L-315.06,-226.96L-303.60,-230.46L-312.86,-260.80ZM-200.72,-236.30C-202.94,-236.35 -205.26,-235.89 -207.28,-235.28C-210.88,-234.18 -215.01,-232.43 -217.58,-227.96C-220.75,-223.06 -220.26,-219.03 -219.10,-215.21L-193.04,-129.80L-215.74,-122.87L-253.25,-245.82L-230.55,-252.75L-226.37,-239.04C-226.62,-240.68 -226.21,-244.98 -223.71,-249.67C-221.15,-254.14 -216.71,-258.93 -208.40,-261.47ZM-113.37,-186.78C-110.41,-174.66 -111.47,-165.25 -117.35,-156.33C-120.37,-151.72 -125.51,-148.44 -132.92,-146.17C-147.53,-141.71 -157.20,-147.61 -163.26,-154.61C-166.72,-158.71 -169.72,-163.69 -171.80,-169.69L-190.65,-231.50C-193.61,-243.62 -192.69,-253.49 -186.88,-262.63C-184.09,-267.17 -178.95,-270.46 -171.53,-272.72C-156.92,-277.18 -147.04,-271.35 -141.04,-264.58C-137.58,-260.47 -134.65,-255.72 -132.64,-249.94ZM-153.79,-242.75C-155.01,-247.54 -156.93,-250.64 -160.01,-252.65C-161.47,-253.43 -163.48,-253.56 -165.50,-252.94C-169.77,-251.64 -170.68,-248.17 -170.55,-244.52C-170.67,-242.52 -170.28,-240.42 -169.30,-238.02L-150.44,-176.21C-149.23,-171.42 -147.07,-168.39 -144.30,-166.54C-142.83,-165.75 -141.05,-165.56 -139.03,-166.18C-134.76,-167.48 -133.56,-170.79 -133.69,-174.44C-133.56,-176.44 -133.95,-178.54 -134.93,-180.94ZM-30.98,-179.24L-53.68,-172.32L-56.15,-180.41C-58.87,-175.65 -61.42,-171.92 -65.07,-168.59C-66.98,-166.78 -69.09,-165.65 -71.11,-165.03C-77.41,-163.11 -82.77,-165.40 -86.91,-169.30C-91.20,-172.91 -94.40,-178.56 -95.98,-183.73L-119.92,-262.18C-121.49,-267.35 -122.00,-273.83 -120.51,-279.44C-119.19,-284.76 -116.02,-289.66 -109.72,-291.58C-105.45,-292.88 -100.20,-291.78 -96.08,-290.34C-93.57,-289.38 -91.29,-288.35 -88.72,-287.17L-104.08,-337.52L-81.38,-344.45ZM-82.96,-268.29C-84.06,-271.89 -88.60,-274.68 -91.97,-273.65C-95.34,-272.62 -97.08,-268.65 -95.77,-264.38L-74.72,-195.38C-73.42,-191.11 -69.76,-188.78 -66.39,-189.81C-63.02,-190.84 -60.61,-195.02 -61.91,-199.29ZM-15.44,-318.38L7.26,-325.30L44.77,-202.35L22.07,-195.43L18.91,-205.77C18.53,-205.40 17.91,-204.23 17.13,-202.76C15.25,-199.24 13.07,-195.14 9.71,-191.65C8.03,-189.91 6.21,-188.62 4.19,-188.00C-1.88,-186.15 -7.25,-188.45 -11.39,-192.34C-15.46,-196.02 -18.66,-201.67 -20.23,-206.84L-50.96,-307.54L-28.26,-314.47L1.44,-217.14C2.88,-212.42 5.78,-212.57 8.48,-213.39C10.95,-214.15 11.89,-215.91 12.98,-217.96C13.45,-218.84 13.78,-220.17 14.11,-221.50ZM75.02,-242.54C76.39,-238.04 78.26,-232.72 84.33,-234.57C89.50,-236.15 90.09,-239.03 87.83,-246.45L82.62,-263.53L105.32,-270.46L108.95,-258.54C113.14,-244.83 113.34,-235.31 110.04,-228.41C106.74,-221.50 100.16,-217.29 90.50,-214.34C82.41,-211.87 74.30,-211.85 67.42,-215.90C60.53,-219.94 54.58,-228.19 50.39,-241.91L34.00,-295.63C29.82,-309.34 30.15,-319.51 33.61,-326.71C37.07,-333.91 43.80,-338.42 51.89,-340.88C61.55,-343.83 69.36,-344.01 75.95,-340.12C82.55,-336.23 87.69,-328.22 91.88,-314.51L94.82,-304.85L72.12,-297.92L67.60,-312.75C65.33,-320.17 63.23,-322.23 58.06,-320.66C51.99,-318.80 53.41,-313.34 54.78,-308.85ZM114.21,-391.10L123.47,-360.76L138.97,-365.49L145.22,-345.03L129.71,-340.30L148.36,-279.17C149.52,-275.34 151.03,-270.40 153.17,-266.63C155.30,-262.86 158.13,-260.03 161.72,-261.13C163.52,-261.68 165.70,-262.59 167.21,-263.29C168.04,-263.79 168.94,-264.07 169.77,-264.57L176.56,-242.31C175.50,-241.75 174.51,-240.95 173.46,-240.39C171.35,-239.25 168.49,-238.14 164.90,-237.04C151.64,-232.99 143.29,-237.81 137.53,-245.40C131.78,-252.98 128.40,-263.25 126.21,-270.44L107.00,-333.38L95.54,-329.88L89.30,-350.33L100.76,-353.83L91.51,-384.18ZM138.22,-411.45L160.92,-418.38L167.85,-395.67L145.15,-388.75ZM188.62,-246.24L151.11,-369.19L173.81,-376.12L211.33,-253.17ZM276.38,-305.69C279.34,-293.58 278.28,-284.16 272.40,-275.24C269.39,-270.64 264.25,-267.35 256.83,-265.09C242.22,-260.63 232.56,-266.53 226.49,-273.52C223.03,-277.62 220.03,-282.61 217.96,-288.61L199.10,-350.42C196.14,-362.54 197.06,-372.40 202.87,-381.54C205.66,-386.08 210.80,-389.37 218.22,-391.63C232.83,-396.09 242.72,-390.26 248.71,-383.49C252.18,-379.39 255.10,-374.63 257.11,-368.85ZM235.96,-361.67C234.75,-366.45 232.82,-369.55 229.75,-371.56C228.28,-372.34 226.28,-372.47 224.25,-371.85C219.98,-370.55 219.08,-367.08 219.21,-363.43C219.08,-361.43 219.47,-359.34 220.45,-356.93L239.31,-295.12C240.53,-290.33 242.68,-287.30 245.46,-285.45C246.92,-284.67 248.70,-284.47 250.73,-285.09C255.00,-286.39 256.20,-289.71 256.07,-293.35C256.19,-295.36 255.80,-297.45 254.82,-299.85ZM324.16,-287.59L301.46,-280.67L263.95,-403.62L286.65,-410.54L289.80,-400.21C290.18,-400.57 290.81,-401.74 291.75,-403.50C293.46,-406.73 295.81,-411.13 299.17,-414.61C300.85,-416.35 302.51,-417.35 304.53,-417.97C310.60,-419.82 315.97,-417.52 320.04,-413.85C324.17,-409.95 327.37,-404.30 328.95,-399.13L359.68,-298.43L336.97,-291.50L307.28,-388.83C305.84,-393.55 302.94,-393.40 300.24,-392.58C297.77,-391.82 296.83,-390.06 295.74,-388.01C295.34,-386.91 294.94,-385.80 294.60,-384.47Z" fill="#ffffff" stroke="#000000"/>
    <path d="M-587.73,24.73L-621.31,-144.80L-592.44,-155.20L-510.28,-3.15L-533.25,5.12L-549.44,-26.12L-572.19,-17.93L-564.76,16.46ZM-586.75,-98.19L-588.90,-102.11L-590.21,-101.64L-589.37,-97.24L-577.89,-44.05L-561.70,-49.88ZM-477.25,-15.04L-499.35,-7.08L-542.41,-126.75L-520.32,-134.70L-516.70,-124.64C-516.34,-125.01 -515.78,-126.20 -514.94,-127.99C-513.40,-131.26 -511.30,-135.72 -508.15,-139.33C-506.57,-141.13 -504.98,-142.20 -503.01,-142.91C-497.10,-145.03 -491.69,-143.03 -487.49,-139.60C-483.21,-135.95 -479.77,-130.51 -477.96,-125.48L-442.69,-27.48L-464.78,-19.52L-498.87,-114.25C-500.53,-118.84 -503.39,-118.55 -506.01,-117.61C-508.42,-116.74 -509.26,-114.96 -510.24,-112.88C-510.58,-111.76 -510.92,-110.65 -511.19,-109.32ZM-449.81,-206.53L-426.18,-215.04L-368.31,-54.25L-391.93,-45.74ZM-328.71,-68.50L-350.81,-60.55L-393.88,-180.21L-371.78,-188.16L-368.16,-178.10C-367.80,-178.47 -367.24,-179.66 -366.40,-181.45C-364.86,-184.72 -362.76,-189.18 -359.61,-192.79C-358.03,-194.59 -356.44,-195.66 -354.47,-196.37C-348.57,-198.49 -343.15,-196.49 -338.95,-193.06C-334.67,-189.41 -331.23,-183.98 -329.42,-178.94L-294.15,-80.94L-316.24,-72.99L-350.34,-167.71C-351.99,-172.30 -354.85,-172.02 -357.48,-171.07C-359.88,-170.20 -360.72,-168.42 -361.70,-166.34C-362.04,-165.23 -362.38,-164.11 -362.65,-162.78ZM-304.09,-245.88L-293.46,-216.35L-278.37,-221.78L-271.20,-201.87L-286.30,-196.44L-264.88,-136.94C-263.54,-133.22 -261.81,-128.41 -259.52,-124.78C-257.23,-121.16 -254.30,-118.51 -250.80,-119.77C-249.05,-120.40 -246.94,-121.41 -245.48,-122.18C-244.69,-122.71 -243.81,-123.02 -243.02,-123.56L-235.22,-101.90C-236.24,-101.29 -237.17,-100.46 -238.19,-99.84C-240.22,-98.62 -242.98,-97.38 -246.48,-96.12C-259.39,-91.47 -267.88,-95.83 -273.93,-103.04C-279.99,-110.25 -283.83,-120.24 -286.35,-127.24L-308.39,-188.49L-319.55,-184.47L-326.72,-204.38L-315.56,-208.40L-326.19,-237.93ZM-214.18,-219.19C-216.38,-219.13 -218.65,-218.57 -220.62,-217.86C-224.12,-216.60 -228.12,-214.66 -230.44,-210.12C-233.33,-205.13 -232.65,-201.17 -231.31,-197.45L-201.39,-114.32L-223.49,-106.37L-266.56,-226.03L-244.46,-233.99L-239.66,-220.64C-239.99,-222.25 -239.80,-226.52 -237.56,-231.28C-235.24,-235.82 -231.09,-240.78 -223.00,-243.69ZM-125.45,-174.52C-121.94,-162.69 -122.52,-153.34 -127.90,-144.24C-130.65,-139.54 -135.57,-136.04 -142.79,-133.44C-157.01,-128.32 -166.84,-133.68 -173.18,-140.29C-176.80,-144.18 -180.00,-148.96 -182.35,-154.78L-204.00,-214.94C-207.52,-226.77 -207.09,-236.56 -201.79,-245.88C-199.26,-250.50 -194.34,-254.00 -187.12,-256.60C-172.90,-261.72 -162.85,-256.44 -156.59,-250.05C-152.97,-246.16 -149.84,-241.60 -147.58,-235.99ZM-168.12,-227.86C-169.56,-232.53 -171.62,-235.49 -174.75,-237.33C-176.24,-238.03 -178.22,-238.06 -180.19,-237.35C-184.35,-235.85 -185.07,-232.38 -184.77,-228.78C-184.79,-226.80 -184.30,-224.75 -183.22,-222.42L-161.57,-162.26C-160.13,-157.59 -157.86,-154.70 -155.02,-153.00C-153.53,-152.30 -151.77,-152.20 -149.80,-152.91C-145.64,-154.40 -144.62,-157.74 -144.92,-161.33C-144.90,-163.32 -145.39,-165.37 -146.47,-167.70ZM-43.66,-171.09L-65.76,-163.14L-68.59,-171.02C-71.05,-166.18 -73.39,-162.37 -76.84,-158.91C-78.63,-157.02 -80.66,-155.80 -82.63,-155.09C-88.76,-152.89 -94.17,-154.89 -98.45,-158.54C-102.87,-161.89 -106.31,-167.33 -108.12,-172.36L-135.60,-248.70C-137.41,-253.74 -138.22,-260.12 -137.03,-265.73C-135.98,-271.05 -133.08,-276.05 -126.96,-278.25C-122.80,-279.75 -117.56,-278.92 -113.41,-277.69C-110.89,-276.87 -108.59,-275.97 -105.99,-274.93L-123.63,-323.93L-101.54,-331.88ZM-99.38,-256.55C-100.64,-260.05 -105.26,-262.59 -108.54,-261.41C-111.82,-260.23 -113.35,-256.22 -111.85,-252.06L-87.68,-184.90C-86.18,-180.75 -82.45,-178.63 -79.17,-179.81C-75.89,-180.99 -73.71,-185.23 -75.21,-189.39ZM-35.11,-309.34L-13.01,-317.29L30.06,-197.63L7.96,-189.67L4.34,-199.74C3.98,-199.36 3.42,-198.17 2.72,-196.68C1.04,-193.11 -0.92,-188.95 -4.07,-185.34C-5.64,-183.54 -7.38,-182.18 -9.35,-181.47C-15.25,-179.34 -20.67,-181.35 -24.95,-185.00C-29.15,-188.43 -32.59,-193.86 -34.40,-198.89L-69.67,-296.90L-47.58,-304.85L-13.48,-210.13C-11.83,-205.53 -8.97,-205.82 -6.34,-206.76C-3.94,-207.63 -3.10,-209.42 -2.12,-211.50C-1.70,-212.39 -1.43,-213.72 -1.17,-215.05ZM57.98,-238.81C59.56,-234.44 61.67,-229.27 67.57,-231.39C72.60,-233.20 73.05,-236.08 70.45,-243.30L64.47,-259.93L86.56,-267.88L90.74,-256.28C95.54,-242.94 96.20,-233.54 93.28,-226.56C90.36,-219.58 84.07,-215.09 74.66,-211.70C66.78,-208.87 58.78,-208.46 51.78,-212.12C44.78,-215.77 38.49,-223.64 33.68,-236.99L14.87,-289.27C10.06,-302.61 9.90,-312.69 12.96,-319.97C16.02,-327.25 22.45,-332.03 30.33,-334.87C39.74,-338.25 47.45,-338.80 54.15,-335.28C60.85,-331.77 66.33,-324.10 71.13,-310.76L74.52,-301.35L52.42,-293.40L47.23,-307.83C44.63,-315.05 42.45,-316.99 37.42,-315.18C31.51,-313.05 33.18,-307.72 34.76,-303.35ZM89.46,-387.53L100.09,-358.00L115.18,-363.43L122.35,-343.52L107.25,-338.09L128.67,-278.59C130.01,-274.87 131.74,-270.05 134.03,-266.43C136.33,-262.81 139.26,-260.16 142.76,-261.42C144.51,-262.05 146.62,-263.05 148.07,-263.82C148.87,-264.36 149.74,-264.67 150.54,-265.21L158.33,-243.55C157.32,-242.94 156.38,-242.10 155.36,-241.49C153.33,-240.27 150.57,-239.02 147.07,-237.76C134.16,-233.12 125.67,-237.48 119.62,-244.69C113.57,-251.90 109.72,-261.88 107.21,-268.88L85.16,-330.14L74.00,-326.12L66.84,-346.03L77.99,-350.04L67.36,-379.58ZM112.19,-408.81L134.29,-416.76L142.24,-394.67L120.15,-386.71ZM170.07,-248.02L127.00,-367.68L149.09,-375.63L192.16,-255.97ZM253.88,-311.05C257.40,-299.22 256.81,-289.86 251.44,-280.76C248.68,-276.07 243.76,-272.57 236.54,-269.97C222.32,-264.85 212.49,-270.21 206.15,-276.82C202.53,-280.71 199.33,-285.48 196.98,-291.31L175.33,-351.47C171.82,-363.30 172.24,-373.09 177.54,-382.41C180.08,-387.03 185.00,-390.53 192.21,-393.13C206.43,-398.25 216.49,-392.97 222.74,-386.57C226.37,-382.69 229.49,-378.13 231.76,-372.52ZM211.21,-364.38C209.77,-369.06 207.72,-372.02 204.59,-373.86C203.10,-374.56 201.11,-374.59 199.14,-373.88C194.99,-372.38 194.26,-368.91 194.57,-365.31C194.54,-363.33 195.03,-361.28 196.11,-358.95L217.77,-298.79C219.20,-294.12 221.48,-291.23 224.31,-289.53C225.80,-288.83 227.57,-288.73 229.54,-289.44C233.69,-290.93 234.72,-294.27 234.41,-297.86C234.44,-299.85 233.95,-301.90 232.86,-304.23ZM301.98,-295.50L279.88,-287.54L236.82,-407.21L258.91,-415.16L262.53,-405.10C262.89,-405.47 263.45,-406.66 264.29,-408.45C265.83,-411.72 267.93,-416.18 271.08,-419.79C272.66,-421.59 274.25,-422.66 276.22,-423.37C282.13,-425.49 287.54,-423.49 291.74,-420.06C296.02,-416.41 299.46,-410.97 301.27,-405.94L336.54,-307.94L314.45,-299.98L280.36,-394.71C278.70,-399.30 275.84,-399.01 273.22,-398.07C270.81,-397.20 269.97,-395.42 268.99,-393.34C268.65,-392.22 268.31,-391.11 268.04,-389.78Z" fill="#ffffff" stroke="#000000"/>
    <path d="M-583.52,57.78L-624.99,-108.08L-596.96,-119.76L-508.37,26.47L-530.66,35.76L-548.18,5.68L-570.26,14.88L-561.23,48.50ZM-588.56,-63.71L-590.87,-67.48L-592.15,-66.95L-591.10,-62.65L-577.16,-10.65L-561.45,-17.20ZM-476.31,13.11L-497.75,22.04L-546.15,-94.09L-524.71,-103.02L-520.64,-93.26C-520.30,-93.65 -519.80,-94.85 -519.06,-96.65C-517.70,-99.96 -515.84,-104.47 -512.91,-108.19C-511.44,-110.05 -509.92,-111.18 -508.00,-111.98C-502.27,-114.37 -496.82,-112.65 -492.51,-109.47C-488.10,-106.07 -484.44,-100.87 -482.40,-95.98L-442.77,-0.87L-464.21,8.06L-502.52,-83.86C-504.38,-88.32 -507.19,-87.90 -509.74,-86.84C-512.07,-85.86 -512.82,-84.06 -513.68,-81.95C-513.97,-80.84 -514.25,-79.72 -514.44,-78.40ZM-458.54,-177.44L-435.61,-187.00L-370.58,-30.95L-393.51,-21.40ZM-332.16,-46.97L-353.60,-38.03L-401.99,-154.16L-380.55,-163.10L-376.48,-153.33C-376.15,-153.72 -375.65,-154.92 -374.91,-156.73C-373.55,-160.04 -371.69,-164.55 -368.75,-168.26C-367.28,-170.12 -365.76,-171.25 -363.85,-172.05C-358.12,-174.44 -352.67,-172.72 -348.35,-169.54C-343.95,-166.14 -340.28,-160.94 -338.25,-156.06L-298.61,-60.94L-320.06,-52.01L-358.36,-143.94C-360.22,-148.39 -363.04,-147.97 -365.58,-146.91C-367.92,-145.93 -368.66,-144.13 -369.53,-142.02C-369.81,-140.91 -370.09,-139.80 -370.29,-138.47ZM-316.49,-223.43L-304.55,-194.77L-289.90,-200.87L-281.85,-181.55L-296.50,-175.45L-272.43,-117.70C-270.93,-114.09 -268.98,-109.42 -266.54,-105.96C-264.10,-102.49 -261.07,-100.01 -257.68,-101.43C-255.98,-102.13 -253.94,-103.23 -252.55,-104.06C-251.78,-104.63 -250.94,-104.98 -250.17,-105.55L-241.42,-84.53C-242.39,-83.88 -243.27,-83.01 -244.25,-82.35C-246.19,-81.05 -248.86,-79.68 -252.26,-78.27C-264.79,-73.05 -273.39,-76.94 -279.72,-83.77C-286.05,-90.60 -290.34,-100.27 -293.17,-107.07L-317.94,-166.51L-328.77,-162.00L-336.82,-181.32L-325.99,-185.83L-337.93,-214.49ZM-226.35,-201.44C-228.52,-201.28 -230.74,-200.61 -232.65,-199.81C-236.04,-198.40 -239.90,-196.29 -241.97,-191.69C-244.59,-186.62 -243.72,-182.74 -242.22,-179.13L-208.60,-98.46L-230.04,-89.52L-278.43,-205.65L-256.99,-214.59L-251.59,-201.64C-252.00,-203.21 -252.02,-207.44 -250.04,-212.25C-247.97,-216.85 -244.11,-221.95 -236.26,-225.22ZM-136.50,-161.64C-132.45,-150.12 -132.58,-140.85 -137.44,-131.60C-139.93,-126.82 -144.62,-123.12 -151.63,-120.20C-165.43,-114.45 -175.41,-119.26 -181.99,-125.49C-185.76,-129.15 -189.15,-133.72 -191.76,-139.36L-216.09,-197.75C-220.14,-209.26 -220.19,-218.96 -215.41,-228.42C-213.13,-233.11 -208.44,-236.81 -201.44,-239.73C-187.64,-245.48 -177.45,-240.76 -170.95,-234.74C-167.19,-231.08 -163.88,-226.73 -161.36,-221.30ZM-181.27,-212.25C-182.91,-216.80 -185.09,-219.63 -188.27,-221.30C-189.78,-221.91 -191.74,-221.84 -193.65,-221.05C-197.69,-219.37 -198.24,-215.90 -197.76,-212.36C-197.69,-210.40 -197.10,-208.40 -195.92,-206.15L-171.59,-147.77C-169.94,-143.22 -167.55,-140.48 -164.67,-138.94C-163.17,-138.32 -161.41,-138.30 -159.50,-139.10C-155.47,-140.78 -154.62,-144.12 -155.10,-147.66C-155.17,-149.63 -155.75,-151.62 -156.94,-153.87ZM-55.53,-162.24L-76.97,-153.31L-80.15,-160.95C-82.35,-156.05 -84.47,-152.18 -87.71,-148.58C-89.39,-146.64 -91.33,-145.33 -93.25,-144.53C-99.19,-142.06 -104.64,-143.77 -109.04,-147.17C-113.57,-150.26 -117.24,-155.47 -119.27,-160.35L-150.15,-234.44C-152.18,-239.33 -153.30,-245.59 -152.40,-251.20C-151.62,-256.50 -149.00,-261.58 -143.06,-264.06C-139.02,-265.74 -133.80,-265.17 -129.64,-264.17C-127.11,-263.48 -124.80,-262.70 -122.18,-261.80L-142.00,-309.35L-120.55,-318.29ZM-114.75,-243.96C-116.16,-247.36 -120.85,-249.64 -124.04,-248.31C-127.22,-246.99 -128.53,-242.95 -126.85,-238.92L-99.69,-173.74C-98.01,-169.71 -94.22,-167.80 -91.04,-169.13C-87.85,-170.45 -85.90,-174.75 -87.59,-178.79ZM-53.82,-299.25L-32.37,-308.19L16.02,-192.06L-5.42,-183.12L-9.49,-192.89C-9.83,-192.50 -10.32,-191.30 -10.94,-189.79C-12.43,-186.18 -14.16,-181.97 -17.10,-178.26C-18.57,-176.40 -20.21,-174.97 -22.12,-174.17C-27.86,-171.78 -33.31,-173.50 -37.71,-176.89C-42.03,-180.08 -45.69,-185.28 -47.73,-190.16L-87.36,-285.28L-65.92,-294.21L-27.61,-202.28C-25.75,-197.83 -22.94,-198.25 -20.39,-199.31C-18.06,-200.28 -17.31,-202.09 -16.45,-204.19C-16.07,-205.10 -15.88,-206.42 -15.69,-207.75ZM41.60,-234.12C43.37,-229.87 45.71,-224.86 51.44,-227.25C56.32,-229.29 56.62,-232.15 53.70,-239.16L46.98,-255.29L68.42,-264.23L73.11,-252.98C78.51,-240.03 79.62,-230.77 77.07,-223.73C74.53,-216.69 68.53,-211.95 59.40,-208.14C51.76,-204.96 43.87,-204.16 36.77,-207.44C29.68,-210.71 23.08,-218.17 17.68,-231.12L-3.46,-281.86C-8.86,-294.82 -9.52,-304.76 -6.84,-312.10C-4.17,-319.44 1.95,-324.49 9.59,-327.67C18.72,-331.48 26.31,-332.40 33.10,-329.25C39.90,-326.10 45.68,-318.79 51.08,-305.84L54.88,-296.71L33.44,-287.78L27.60,-301.79C24.68,-308.79 22.44,-310.60 17.55,-308.56C11.82,-306.17 13.73,-300.99 15.50,-296.74ZM65.44,-382.59L77.39,-353.93L92.04,-360.03L100.09,-340.71L85.44,-334.61L109.50,-276.86C111.01,-273.25 112.95,-268.58 115.39,-265.12C117.84,-261.65 120.86,-259.17 124.26,-260.59C125.96,-261.29 127.99,-262.39 129.39,-263.22C130.15,-263.79 131.00,-264.14 131.76,-264.71L140.52,-243.69C139.55,-243.04 138.66,-242.17 137.69,-241.52C135.74,-240.21 133.07,-238.84 129.67,-237.43C117.15,-232.21 108.55,-236.10 102.21,-242.93C95.88,-249.76 91.60,-259.44 88.77,-266.23L64.00,-325.67L53.17,-321.16L45.12,-340.48L55.94,-344.99L44.00,-373.65ZM86.87,-404.72L108.31,-413.66L117.25,-392.22L95.80,-383.28ZM151.89,-248.68L103.50,-364.81L124.94,-373.75L173.34,-257.62ZM231.63,-315.05C235.68,-303.53 235.56,-294.26 230.69,-285.01C228.20,-280.23 223.51,-276.53 216.51,-273.61C202.71,-267.86 192.73,-272.67 186.15,-278.90C182.38,-282.56 178.98,-287.13 176.38,-292.77L152.05,-351.16C148.00,-362.67 147.94,-372.37 152.72,-381.83C155.00,-386.52 159.69,-390.22 166.70,-393.14C180.50,-398.89 190.69,-394.17 197.18,-388.15C200.95,-384.49 204.26,-380.14 206.77,-374.71ZM186.87,-365.66C185.22,-370.21 183.04,-373.04 179.86,-374.71C178.36,-375.32 176.39,-375.25 174.48,-374.46C170.45,-372.78 169.90,-369.31 170.38,-365.77C170.45,-363.81 171.03,-361.81 172.22,-359.56L196.55,-301.18C198.19,-296.63 200.58,-293.89 203.47,-292.35C204.97,-291.73 206.72,-291.71 208.63,-292.51C212.67,-294.19 213.51,-297.53 213.04,-301.07C212.97,-303.04 212.38,-305.03 211.20,-307.28ZM279.91,-302.03L258.47,-293.09L210.08,-409.22L231.52,-418.16L235.59,-408.39C235.92,-408.78 236.42,-409.99 237.16,-411.79C238.53,-415.10 240.38,-419.61 243.32,-423.33C244.79,-425.18 246.31,-426.32 248.22,-427.11C253.95,-429.50 259.40,-427.79 263.72,-424.60C268.12,-421.20 271.79,-416.00 273.82,-411.12L313.46,-316.01L292.01,-307.07L253.71,-399.00C251.85,-403.46 249.04,-403.03 246.49,-401.97C244.15,-401.00 243.41,-399.19 242.54,-397.09C242.26,-395.97 241.98,-394.86 241.78,-393.53Z" fill="#ffffff" stroke="#000000"/>
    <path d="M-577.42,90.37L-626.47,-71.46L-599.36,-84.37L-504.70,55.77L-526.27,66.03L-545.04,37.17L-566.40,47.34L-555.85,80.11ZM-588.31,-29.41L-590.79,-33.02L-592.02,-32.43L-590.78,-28.23L-574.47,22.46L-559.27,15.22ZM-473.68,41.00L-494.43,50.88L-547.90,-61.49L-527.15,-71.36L-522.66,-61.91C-522.34,-62.31 -521.91,-63.53 -521.27,-65.35C-520.08,-68.68 -518.47,-73.23 -515.75,-77.04C-514.39,-78.95 -512.94,-80.14 -511.09,-81.02C-505.55,-83.66 -500.08,-82.23 -495.66,-79.30C-491.14,-76.16 -487.27,-71.20 -485.02,-66.47L-441.22,25.56L-461.97,35.43L-504.30,-53.52C-506.35,-57.83 -509.11,-57.27 -511.58,-56.10C-513.84,-55.03 -514.48,-53.21 -515.24,-51.08C-515.46,-49.97 -515.69,-48.85 -515.81,-47.53ZM-465.42,-148.11L-443.23,-158.67L-371.38,-7.68L-393.56,2.88ZM-334.20,-25.38L-354.94,-15.50L-408.42,-127.87L-387.67,-137.74L-383.18,-128.30C-382.86,-128.70 -382.43,-129.91 -381.79,-131.73C-380.60,-135.06 -378.99,-139.61 -376.27,-143.43C-374.91,-145.33 -373.46,-146.53 -371.61,-147.40C-366.06,-150.04 -360.60,-148.62 -356.18,-145.68C-351.66,-142.54 -347.79,-137.58 -345.54,-132.85L-301.74,-40.83L-322.49,-30.95L-364.82,-119.90C-366.87,-124.21 -369.63,-123.66 -372.10,-122.48C-374.35,-121.41 -375.00,-119.59 -375.75,-117.47C-375.98,-116.35 -376.20,-115.24 -376.33,-113.92ZM-327.33,-200.48L-314.13,-172.74L-299.96,-179.49L-291.06,-160.80L-305.23,-154.05L-278.64,-98.18C-276.98,-94.68 -274.83,-90.16 -272.25,-86.86C-269.67,-83.55 -266.56,-81.25 -263.27,-82.82C-261.63,-83.60 -259.67,-84.78 -258.33,-85.67C-257.61,-86.27 -256.79,-86.66 -256.06,-87.26L-246.38,-66.92C-247.31,-66.22 -248.14,-65.32 -249.07,-64.63C-250.93,-63.24 -253.50,-61.77 -256.79,-60.20C-268.91,-54.43 -277.60,-57.86 -284.19,-64.30C-290.78,-70.73 -295.48,-80.08 -298.61,-86.66L-325.98,-144.18L-336.46,-139.19L-345.36,-157.88L-334.88,-162.87L-348.08,-190.60ZM-237.20,-183.15C-239.34,-182.89 -241.50,-182.12 -243.34,-181.24C-246.63,-179.67 -250.34,-177.41 -252.16,-172.76C-254.50,-167.62 -253.45,-163.83 -251.79,-160.34L-214.64,-82.28L-235.39,-72.40L-288.86,-184.77L-268.12,-194.64L-262.15,-182.11C-262.63,-183.65 -262.86,-187.82 -261.13,-192.68C-259.31,-197.32 -255.75,-202.54 -248.15,-206.16ZM-146.50,-148.21C-141.94,-137.03 -141.60,-127.87 -145.96,-118.49C-148.19,-113.65 -152.64,-109.77 -159.42,-106.54C-172.77,-100.19 -182.87,-104.45 -189.67,-110.28C-193.57,-113.72 -197.15,-118.06 -200.00,-123.51L-226.88,-180.00C-231.45,-191.18 -231.97,-200.76 -227.72,-210.34C-225.69,-215.09 -221.24,-218.97 -214.46,-222.19C-201.11,-228.55 -190.81,-224.38 -184.10,-218.75C-180.20,-215.32 -176.72,-211.18 -173.97,-205.94ZM-193.19,-196.03C-195.04,-200.45 -197.33,-203.14 -200.56,-204.62C-202.07,-205.16 -204.01,-205.00 -205.86,-204.12C-209.76,-202.26 -210.13,-198.81 -209.49,-195.33C-209.32,-193.40 -208.65,-191.45 -207.37,-189.29L-180.48,-132.80C-178.64,-128.39 -176.14,-125.79 -173.22,-124.41C-171.70,-123.88 -169.97,-123.94 -168.12,-124.82C-164.22,-126.68 -163.54,-130.03 -164.19,-133.50C-164.35,-135.44 -165.03,-137.38 -166.31,-139.54ZM-66.53,-152.76L-87.28,-142.89L-90.80,-150.29C-92.73,-145.34 -94.63,-141.41 -97.66,-137.70C-99.22,-135.69 -101.08,-134.31 -102.93,-133.43C-108.68,-130.69 -114.15,-132.12 -118.67,-135.26C-123.29,-138.10 -127.16,-143.06 -129.41,-147.78L-163.53,-219.47C-165.78,-224.20 -167.19,-230.33 -166.57,-235.92C-166.06,-241.20 -163.72,-246.34 -157.97,-249.08C-154.07,-250.94 -148.88,-250.63 -144.73,-249.84C-142.19,-249.28 -139.87,-248.63 -137.24,-247.86L-159.13,-293.88L-138.39,-303.75ZM-129.02,-230.61C-130.59,-233.89 -135.33,-235.92 -138.41,-234.45C-141.49,-232.99 -142.59,-228.94 -140.73,-225.03L-110.72,-161.97C-108.86,-158.07 -105.03,-156.36 -101.95,-157.83C-98.86,-159.30 -97.15,-163.64 -99.01,-167.54ZM-71.53,-288.20L-50.78,-298.08L2.70,-185.71L-18.05,-175.84L-22.55,-185.29C-22.86,-184.89 -23.29,-183.67 -23.83,-182.16C-25.12,-178.52 -26.63,-174.27 -29.35,-170.46C-30.71,-168.55 -32.26,-167.06 -34.11,-166.18C-39.66,-163.54 -45.13,-164.97 -49.64,-168.11C-54.07,-171.04 -57.94,-176.00 -60.19,-180.73L-103.98,-272.76L-83.24,-282.63L-40.90,-193.68C-38.85,-189.37 -36.09,-189.93 -33.63,-191.10C-31.37,-192.17 -30.72,-193.99 -29.97,-196.12C-29.65,-197.03 -29.52,-198.35 -29.39,-199.67ZM25.92,-228.51C27.87,-224.40 30.42,-219.57 35.97,-222.21C40.70,-224.45 40.85,-227.30 37.63,-234.08L30.20,-249.69L50.94,-259.57L56.13,-248.68C62.09,-236.15 63.64,-227.06 61.47,-219.98C59.30,-212.90 53.60,-207.92 44.77,-203.72C37.37,-200.20 29.62,-199.03 22.45,-201.91C15.28,-204.80 8.40,-211.85 2.43,-224.39L-20.93,-273.48C-26.90,-286.01 -28.03,-295.80 -25.75,-303.19C-23.47,-310.57 -17.67,-315.85 -10.27,-319.37C-1.44,-323.58 6.02,-324.85 12.88,-322.08C19.75,-319.30 25.82,-312.36 31.78,-299.83L35.99,-291.00L15.24,-281.12L8.79,-294.68C5.56,-301.46 3.25,-303.13 -1.47,-300.88C-7.02,-298.24 -4.88,-293.22 -2.92,-289.11ZM42.23,-376.35L55.42,-348.62L69.60,-355.37L78.49,-336.67L64.32,-329.93L90.91,-274.05C92.57,-270.56 94.73,-266.04 97.31,-262.73C99.89,-259.43 103.00,-257.13 106.28,-258.69C107.93,-259.48 109.88,-260.66 111.22,-261.55C111.95,-262.14 112.77,-262.54 113.49,-263.13L123.17,-242.80C122.24,-242.10 121.41,-241.20 120.48,-240.51C118.62,-239.12 116.05,-237.64 112.76,-236.08C100.64,-230.31 91.96,-233.74 85.37,-240.17C78.78,-246.61 74.08,-255.96 70.95,-262.54L43.57,-320.05L33.10,-315.07L24.20,-333.76L34.68,-338.75L21.48,-366.48ZM62.31,-399.27L83.06,-409.14L92.93,-388.39L72.19,-378.52ZM134.17,-248.28L80.69,-360.65L101.44,-370.52L154.92,-258.15ZM209.70,-317.74C214.27,-306.56 214.60,-297.39 210.24,-288.01C208.01,-283.17 203.56,-279.29 196.78,-276.06C183.43,-269.71 173.34,-273.98 166.53,-279.81C162.63,-283.24 159.05,-287.58 156.20,-293.03L129.32,-349.52C124.75,-360.70 124.23,-370.28 128.49,-379.86C130.51,-384.61 134.96,-388.49 141.74,-391.72C155.09,-398.07 165.39,-393.90 172.10,-388.28C176.00,-384.84 179.48,-380.70 182.23,-375.46ZM163.01,-365.56C161.16,-369.97 158.87,-372.66 155.65,-374.15C154.13,-374.68 152.19,-374.52 150.34,-373.64C146.44,-371.78 146.07,-368.33 146.71,-364.86C146.88,-362.92 147.55,-360.97 148.83,-358.81L175.72,-302.32C177.57,-297.91 180.06,-295.32 182.99,-293.94C184.50,-293.40 186.23,-293.47 188.08,-294.35C191.98,-296.20 192.66,-299.55 192.02,-303.02C191.85,-304.96 191.17,-306.90 189.89,-309.07ZM258.04,-307.23L237.29,-297.36L183.81,-409.72L204.56,-419.60L209.06,-410.15C209.37,-410.55 209.80,-411.76 210.45,-413.58C211.63,-416.92 213.25,-421.46 215.97,-425.28C217.33,-427.18 218.77,-428.38 220.62,-429.26C226.17,-431.90 231.64,-430.47 236.06,-427.53C240.58,-424.39 244.45,-419.43 246.70,-414.71L290.49,-322.68L269.75,-312.80L227.42,-401.75C225.36,-406.07 222.60,-405.51 220.14,-404.34C217.88,-403.26 217.23,-401.44 216.48,-399.32C216.25,-398.20 216.03,-397.09 215.90,-395.77Z" fill="#ffffff" stroke="#000000"/>
    <path d="M-569.44,122.38L-625.80,-35.09L-599.64,-49.16L-499.30,84.65L-520.10,95.84L-540.06,68.25L-560.66,79.33L-548.64,111.19ZM-586.05,4.59L-588.67,1.15L-589.86,1.79L-588.43,5.87L-569.84,55.15L-555.18,47.26ZM-469.38,68.55L-489.39,79.32L-547.70,-29.07L-527.69,-39.84L-522.78,-30.72C-522.49,-31.13 -522.13,-32.35 -521.58,-34.18C-520.57,-37.53 -519.20,-42.10 -516.70,-46.00C-515.45,-47.95 -514.07,-49.20 -512.29,-50.16C-506.94,-53.04 -501.47,-51.89 -496.96,-49.21C-492.34,-46.33 -488.28,-41.62 -485.83,-37.06L-438.07,51.71L-458.08,62.48L-504.24,-23.32C-506.48,-27.48 -509.18,-26.80 -511.55,-25.52C-513.73,-24.35 -514.28,-22.52 -514.92,-20.39C-515.09,-19.27 -515.26,-18.16 -515.32,-16.85ZM-470.45,-118.66L-449.05,-130.17L-370.70,15.47L-392.10,26.98ZM-334.84,-3.83L-354.85,6.94L-413.16,-101.45L-393.14,-112.21L-388.24,-103.10C-387.95,-103.51 -387.58,-104.73 -387.03,-106.56C-386.03,-109.91 -384.65,-114.48 -382.15,-118.38C-380.90,-120.33 -379.53,-121.58 -377.75,-122.54C-372.40,-125.42 -366.93,-124.27 -362.42,-121.59C-357.80,-118.71 -353.73,-114.00 -351.28,-109.44L-303.53,-20.67L-323.54,-9.90L-369.70,-95.70C-371.94,-99.86 -374.63,-99.18 -377.01,-97.90C-379.19,-96.73 -379.74,-94.90 -380.38,-92.76C-380.55,-91.65 -380.72,-90.54 -380.78,-89.23ZM-336.60,-177.12L-322.21,-150.37L-308.53,-157.73L-298.83,-139.70L-312.51,-132.34L-283.51,-78.45C-281.70,-75.08 -279.36,-70.72 -276.64,-67.58C-273.93,-64.44 -270.75,-62.32 -267.58,-64.02C-265.99,-64.88 -264.12,-66.14 -262.84,-67.09C-262.15,-67.71 -261.36,-68.14 -260.67,-68.76L-250.12,-49.14C-251.00,-48.41 -251.78,-47.48 -252.67,-46.75C-254.43,-45.29 -256.90,-43.71 -260.07,-42.00C-271.76,-35.71 -280.51,-38.67 -287.34,-44.71C-294.16,-50.75 -299.26,-59.75 -302.67,-66.10L-332.52,-121.58L-342.62,-116.14L-352.32,-134.17L-342.22,-139.61L-356.61,-166.36ZM-246.72,-164.41C-248.83,-164.05 -250.91,-163.18 -252.70,-162.22C-255.87,-160.51 -259.42,-158.09 -260.99,-153.41C-263.05,-148.22 -261.83,-144.53 -260.02,-141.16L-219.51,-65.86L-239.53,-55.10L-297.83,-163.49L-277.82,-174.25L-271.32,-162.16C-271.87,-163.66 -272.29,-167.77 -270.83,-172.65C-269.26,-177.33 -265.99,-182.66 -258.66,-186.60ZM-155.42,-134.32C-150.37,-123.50 -149.59,-114.46 -153.44,-104.99C-155.41,-100.10 -159.61,-96.04 -166.15,-92.53C-179.03,-85.60 -189.21,-89.32 -196.22,-94.75C-200.24,-97.95 -203.99,-102.07 -207.06,-107.31L-236.38,-161.80C-241.43,-172.62 -242.42,-182.06 -238.68,-191.73C-236.91,-196.52 -232.70,-200.57 -226.16,-204.08C-213.29,-211.01 -202.91,-207.40 -196.01,-202.17C-191.99,-198.97 -188.35,-195.05 -185.38,-190.00ZM-203.88,-179.28C-205.92,-183.55 -208.31,-186.10 -211.57,-187.41C-213.10,-187.87 -215.00,-187.61 -216.78,-186.65C-220.55,-184.62 -220.75,-181.19 -219.94,-177.79C-219.68,-175.89 -218.92,-174.00 -217.55,-171.93L-188.24,-117.44C-186.20,-113.17 -183.61,-110.73 -180.65,-109.51C-179.13,-109.05 -177.42,-109.20 -175.64,-110.16C-171.87,-112.19 -171.37,-115.52 -172.18,-118.92C-172.43,-120.83 -173.20,-122.72 -174.57,-124.79ZM-76.65,-142.72L-96.66,-131.95L-100.50,-139.09C-102.16,-134.10 -103.86,-130.13 -106.66,-126.32C-108.11,-124.26 -109.88,-122.80 -111.66,-121.84C-117.21,-118.86 -122.68,-120.00 -127.30,-122.88C-132.00,-125.46 -136.07,-130.17 -138.52,-134.73L-175.72,-203.88C-178.18,-208.44 -179.86,-214.43 -179.53,-219.98C-179.28,-225.22 -177.22,-230.41 -171.67,-233.40C-167.91,-235.42 -162.77,-235.38 -158.63,-234.79C-156.10,-234.37 -153.77,-233.83 -151.13,-233.21L-175.01,-277.59L-155.00,-288.36ZM-142.18,-216.56C-143.88,-219.73 -148.67,-221.50 -151.64,-219.90C-154.61,-218.30 -155.50,-214.25 -153.47,-210.49L-120.75,-149.66C-118.72,-145.89 -114.85,-144.40 -111.88,-145.99C-108.91,-147.59 -107.43,-151.97 -109.45,-155.73ZM-88.19,-276.26L-68.18,-287.03L-9.87,-178.64L-29.89,-167.88L-34.79,-176.99C-35.08,-176.58 -35.45,-175.36 -35.90,-173.84C-37.00,-170.18 -38.28,-165.91 -40.78,-162.01C-42.03,-160.06 -43.50,-158.51 -45.28,-157.55C-50.63,-154.67 -56.10,-155.82 -60.72,-158.70C-65.23,-161.38 -69.29,-166.09 -71.75,-170.65L-119.50,-259.42L-99.49,-270.19L-53.33,-184.39C-51.09,-180.23 -48.40,-180.91 -46.02,-182.19C-43.84,-183.36 -43.29,-185.19 -42.65,-187.33C-42.37,-188.24 -42.31,-189.55 -42.25,-190.86ZM10.98,-222.05C13.11,-218.09 15.86,-213.44 21.21,-216.32C25.77,-218.77 25.79,-221.59 22.27,-228.13L14.17,-243.18L34.18,-253.95L39.83,-243.45C46.33,-231.36 48.31,-222.46 46.51,-215.36C44.71,-208.26 39.33,-203.07 30.81,-198.48C23.67,-194.65 16.07,-193.11 8.85,-195.61C1.62,-198.11 -5.52,-204.74 -12.02,-216.83L-37.50,-264.19C-44.00,-276.28 -45.60,-285.89 -43.70,-293.30C-41.81,-300.70 -36.34,-306.20 -29.21,-310.04C-20.69,-314.62 -13.39,-316.25 -6.47,-313.84C0.45,-311.43 6.79,-304.87 13.29,-292.79L17.87,-284.27L-2.14,-273.50L-9.18,-286.58C-12.69,-293.12 -15.05,-294.66 -19.61,-292.21C-24.96,-289.33 -22.60,-284.47 -20.47,-280.50ZM19.87,-368.89L34.26,-342.14L47.93,-349.49L57.63,-331.46L43.96,-324.11L72.96,-270.21C74.77,-266.84 77.11,-262.48 79.82,-259.34C82.54,-256.20 85.72,-254.08 88.89,-255.79C90.48,-256.64 92.35,-257.91 93.63,-258.85C94.32,-259.47 95.11,-259.90 95.80,-260.53L106.35,-240.91C105.46,-240.18 104.69,-239.25 103.80,-238.52C102.03,-237.05 99.56,-235.47 96.39,-233.77C84.70,-227.48 75.96,-230.44 69.13,-236.47C62.31,-242.51 57.21,-251.52 53.80,-257.86L23.95,-313.34L13.84,-307.90L4.14,-325.94L14.25,-331.37L-0.14,-358.12ZM38.59,-392.50L58.61,-403.27L69.37,-383.25L49.36,-372.49ZM116.94,-246.86L58.63,-355.25L78.65,-366.02L136.95,-257.63ZM188.17,-319.16C193.22,-308.34 193.99,-299.30 190.15,-289.82C188.18,-284.93 183.98,-280.88 177.44,-277.36C164.56,-270.43 154.38,-274.16 147.37,-279.58C143.35,-282.79 139.60,-286.90 136.53,-292.15L107.21,-346.64C102.16,-357.46 101.17,-366.89 104.91,-376.57C106.68,-381.35 110.88,-385.40 117.42,-388.92C130.30,-395.85 140.68,-392.23 147.58,-387.00C151.60,-383.80 155.24,-379.88 158.21,-374.84ZM139.71,-364.12C137.67,-368.39 135.28,-370.93 132.02,-372.24C130.49,-372.70 128.59,-372.44 126.80,-371.48C123.04,-369.46 122.84,-366.03 123.65,-362.63C123.90,-360.73 124.67,-358.84 126.04,-356.76L155.35,-302.27C157.39,-298.00 159.98,-295.56 162.94,-294.34C164.46,-293.89 166.17,-294.04 167.95,-295.00C171.71,-297.02 172.22,-300.36 171.41,-303.76C171.15,-305.66 170.39,-307.55 169.02,-309.63ZM236.42,-311.14L216.41,-300.37L158.10,-408.76L178.12,-419.53L183.02,-410.41C183.31,-410.82 183.68,-412.04 184.23,-413.87C185.23,-417.22 186.61,-421.79 189.11,-425.69C190.36,-427.64 191.73,-428.89 193.51,-429.85C198.86,-432.73 204.33,-431.59 208.84,-428.90C213.46,-426.02 217.53,-421.31 219.98,-416.75L267.73,-327.98L247.72,-317.22L201.56,-403.01C199.32,-407.17 196.63,-406.49 194.25,-405.21C192.07,-404.04 191.52,-402.21 190.88,-400.08C190.71,-398.96 190.54,-397.85 190.48,-396.54Z" fill="#ffffff" stroke="#000000"/>
    <path d="M-911.48,464.07L-907.38,464.07L-907.38,488.20L-901.94,488.20L-901.94,492L-911.48,492ZM-890.66,484.55L-890.66,486.95C-890.77,488.96 -891.38,490.37 -892.75,491.47C-893.43,492.04 -894.38,492.30 -895.63,492.30C-898.10,492.30 -899.36,490.94 -899.97,489.57C-900.31,488.77 -900.54,487.86 -900.57,486.83L-900.57,476.38C-900.46,474.37 -899.81,472.89 -898.45,471.75C-897.80,471.18 -896.85,470.91 -895.60,470.91C-893.13,470.91 -891.87,472.28 -891.26,473.61C-890.92,474.41 -890.69,475.28 -890.66,476.27L-890.66,482.31L-897.00,482.31L-897.00,486.83C-896.96,487.63 -896.74,488.20 -896.39,488.62C-896.20,488.81 -895.94,488.92 -895.60,488.92C-894.87,488.92 -894.53,488.47 -894.38,487.90C-894.27,487.59 -894.23,487.25 -894.23,486.83L-894.23,484.55ZM-897.00,479.31L-894.23,479.31L-894.23,476.38C-894.23,475.58 -894.38,475.01 -894.76,474.56C-894.95,474.37 -895.25,474.25 -895.60,474.25C-896.32,474.25 -896.62,474.75 -896.81,475.32C-896.93,475.62 -896.96,475.96 -897.00,476.38ZM-882.22,476.15C-882.22,475.81 -882.22,475.28 -882.33,474.90C-882.49,474.52 -882.79,474.25 -883.28,474.25C-883.93,474.25 -884.20,474.75 -884.31,475.36C-884.35,475.66 -884.39,476.00 -884.39,476.34C-884.39,476.69 -884.39,477.03 -884.39,477.33L-888.22,477.33L-888.22,476.46C-888.22,474.94 -887.65,473.57 -886.74,472.54C-885.83,471.52 -884.54,470.91 -883.06,470.91C-881.80,470.91 -880.66,471.40 -879.79,472.24C-878.91,473.08 -878.38,474.25 -878.38,475.62L-878.38,488.39C-878.38,490.25 -878.27,491.09 -878.12,492L-881.88,492C-882.22,491.58 -882.22,490.59 -882.22,490.33L-882.49,490.33C-882.68,490.67 -883.02,491.16 -883.55,491.58C-884.08,492 -884.80,492.30 -885.56,492.30C-886.06,492.30 -886.86,492.11 -887.46,491.35C-888.11,490.63 -888.64,489.34 -888.64,487.17C-888.64,484.86 -887.96,483.18 -887.05,482.04C-886.13,480.90 -884.99,480.18 -884.04,479.69C-883.09,479.19 -882.37,478.85 -882.22,478.43ZM-882.22,481.97C-884.08,482.77 -884.88,484.63 -884.88,486.60C-884.88,486.87 -884.84,487.33 -884.69,487.74C-884.54,488.20 -884.27,488.54 -883.82,488.54C-882.94,488.54 -882.22,488.01 -882.22,487.29ZM-866.37,481.97C-866.49,483.91 -867.17,485.27 -868.50,486.30C-869.19,486.83 -870.14,487.10 -871.31,487.10C-871.43,487.10 -871.54,487.10 -871.66,487.10C-871.77,487.10 -871.92,487.10 -872.04,487.06C-872.38,487.36 -872.57,487.67 -872.57,488.01C-872.57,488.47 -872.19,488.73 -871.62,488.88C-871.05,489.07 -870.36,489.19 -869.64,489.30C-868.43,489.45 -867.13,489.76 -866.07,490.48C-865.04,491.20 -864.32,492.30 -864.32,494.13C-864.32,496.14 -865.20,497.51 -866.41,498.31C-867.67,499.11 -869.34,499.45 -870.90,499.45C-872.72,499.41 -874.28,499.14 -875.34,498.54C-876.44,497.93 -877.05,496.94 -877.05,495.42C-877.05,494.70 -876.67,494.09 -876.10,493.56C-875.53,493.03 -874.77,492.61 -874.05,492.27C-875.30,491.92 -876.37,491.13 -876.37,489.49C-876.37,488.88 -876.03,488.28 -875.57,487.71C-875.11,487.14 -874.54,486.68 -873.97,486.38C-875.08,485.65 -875.61,484.51 -875.87,483.56C-876.03,482.99 -876.14,482.42 -876.18,481.85L-876.18,476.19C-876.03,474.25 -875.42,472.85 -874.09,471.75C-873.44,471.18 -872.49,470.91 -871.31,470.91C-869.38,470.91 -868.20,471.78 -867.48,472.81C-867.21,472.54 -866.75,472.09 -866.15,471.67C-865.58,471.25 -864.93,470.91 -864.32,470.91L-864.32,474.33C-865.35,474.33 -866.11,474.52 -866.56,474.79C-866.53,474.98 -866.49,475.17 -866.45,475.28C-866.45,475.43 -866.45,475.58 -866.41,475.70C-866.37,475.81 -866.37,475.96 -866.37,476.08ZM-870.14,476.34C-870.14,475.62 -870.29,475.17 -870.59,474.75C-870.74,474.56 -870.97,474.44 -871.31,474.44C-871.92,474.44 -872.23,474.94 -872.34,475.39C-872.42,475.66 -872.45,476.00 -872.42,476.34L-872.42,482.04C-872.45,482.77 -872.34,483.22 -872.00,483.60C-871.85,483.79 -871.62,483.91 -871.31,483.91C-870.67,483.91 -870.40,483.45 -870.25,482.99C-870.17,482.73 -870.14,482.39 -870.14,482.04ZM-871.92,492.95C-872.72,493.41 -873.33,493.98 -873.33,494.77C-873.33,495.57 -872.61,496.22 -870.82,496.22C-870.17,496.22 -869.45,496.10 -868.88,495.88C-868.31,495.65 -867.89,495.31 -867.89,494.81C-867.89,494.47 -867.93,494.20 -868.20,493.94C-868.50,493.67 -869.00,493.48 -869.95,493.33ZM-856.84,471.21L-853.00,471.21L-853.00,492L-856.84,492L-856.84,490.25C-856.91,490.29 -857.06,490.44 -857.25,490.63C-857.71,491.09 -858.24,491.62 -858.93,492C-859.27,492.19 -859.61,492.30 -859.95,492.30C-860.98,492.30 -861.70,491.70 -862.16,490.90C-862.61,490.14 -862.84,489.11 -862.84,488.24L-862.84,471.21L-859.00,471.21L-859.00,487.67C-859.00,488.47 -858.55,488.58 -858.09,488.58C-857.67,488.58 -857.44,488.35 -857.18,488.09C-857.06,487.97 -856.95,487.78 -856.84,487.59ZM-840.34,484.55L-840.34,486.95C-840.46,488.96 -841.07,490.37 -842.43,491.47C-843.12,492.04 -844.07,492.30 -845.32,492.30C-847.79,492.30 -849.05,490.94 -849.65,489.57C-850.00,488.77 -850.22,487.86 -850.26,486.83L-850.26,476.38C-850.15,474.37 -849.50,472.89 -848.13,471.75C-847.49,471.18 -846.54,470.91 -845.28,470.91C-842.81,470.91 -841.56,472.28 -840.95,473.61C-840.61,474.41 -840.38,475.28 -840.34,476.27L-840.34,482.31L-846.69,482.31L-846.69,486.83C-846.65,487.63 -846.42,488.20 -846.08,488.62C-845.89,488.81 -845.63,488.92 -845.28,488.92C-844.56,488.92 -844.22,488.47 -844.07,487.90C-843.95,487.59 -843.92,487.25 -843.92,486.83L-843.92,484.55ZM-846.69,479.31L-843.92,479.31L-843.92,476.38C-843.92,475.58 -844.07,475.01 -844.45,474.56C-844.64,474.37 -844.94,474.25 -845.28,474.25C-846.01,474.25 -846.31,474.75 -846.50,475.32C-846.61,475.62 -846.65,475.96 -846.69,476.38ZM-831.15,474.10L-831.15,469.81C-831.15,469.05 -831.30,468.52 -831.68,468.06C-831.87,467.87 -832.17,467.76 -832.52,467.76C-833.24,467.76 -833.58,468.29 -833.73,468.78C-833.85,469.09 -833.88,469.43 -833.88,469.81L-833.88,486.60C-833.88,487.40 -833.69,487.93 -833.31,488.35C-833.12,488.54 -832.86,488.66 -832.52,488.66C-831.79,488.66 -831.45,488.20 -831.30,487.63C-831.19,487.36 -831.15,487.02 -831.15,486.60L-831.15,481.55L-832.78,481.55L-832.78,478.09L-827.04,478.09L-827.04,492L-829.48,492L-829.97,490.67C-830.73,491.62 -831.83,492.30 -833.16,492.30C-834.49,492.30 -835.40,491.96 -836.09,491.35C-836.77,490.78 -837.23,490.06 -837.53,489.30C-837.87,488.43 -838.03,487.40 -837.99,486.26L-837.99,469.81C-837.95,468.71 -837.72,467.68 -837.30,466.81C-836.96,466.05 -836.47,465.29 -835.71,464.72C-834.95,464.15 -833.88,463.77 -832.52,463.77C-831.15,463.77 -830.12,464.15 -829.36,464.72C-828.60,465.29 -828.07,466.05 -827.73,466.81C-827.31,467.68 -827.08,468.71 -827.04,469.81L-827.04,474.10ZM-814.54,486.95C-814.66,488.96 -815.26,490.37 -816.59,491.47C-817.28,492.04 -818.23,492.30 -819.48,492.30C-821.95,492.30 -823.17,490.94 -823.78,489.57C-824.12,488.77 -824.35,487.86 -824.38,486.83L-824.38,476.38C-824.27,474.37 -823.66,472.89 -822.33,471.75C-821.69,471.18 -820.74,470.91 -819.48,470.91C-817.01,470.91 -815.76,472.28 -815.15,473.61C-814.81,474.41 -814.58,475.28 -814.54,476.27ZM-818.15,476.38C-818.11,475.58 -818.27,475.01 -818.65,474.56C-818.84,474.37 -819.14,474.25 -819.48,474.25C-820.20,474.25 -820.51,474.75 -820.66,475.32C-820.77,475.62 -820.81,475.96 -820.77,476.38L-820.77,486.83C-820.81,487.63 -820.62,488.20 -820.28,488.62C-820.09,488.81 -819.82,488.92 -819.48,488.92C-818.76,488.92 -818.42,488.47 -818.27,487.90C-818.15,487.59 -818.11,487.25 -818.15,486.83ZM-807.21,466.08L-807.21,471.21L-804.59,471.21L-804.59,474.67L-807.21,474.67L-807.21,485.01C-807.21,485.65 -807.21,486.49 -807.06,487.17C-806.90,487.86 -806.60,488.43 -805.99,488.43C-805.69,488.43 -805.31,488.39 -805.04,488.35C-804.89,488.31 -804.74,488.31 -804.59,488.28L-804.59,492.04C-804.78,492.08 -804.97,492.15 -805.16,492.19C-805.54,492.27 -806.03,492.30 -806.64,492.30C-808.88,492.30 -809.94,491.16 -810.48,489.72C-811.01,488.28 -811.05,486.53 -811.05,485.31L-811.05,474.67L-812.98,474.67L-812.98,471.21L-811.05,471.21L-811.05,466.08ZM-798.70,492L-802.53,492L-802.53,464.07L-798.70,464.07L-798.70,472.96C-798.62,472.92 -798.47,472.77 -798.24,472.54C-797.82,472.13 -797.25,471.56 -796.57,471.18C-796.23,470.99 -795.92,470.91 -795.58,470.91C-794.55,470.91 -793.83,471.52 -793.38,472.28C-792.92,473.08 -792.69,474.10 -792.69,474.98L-792.69,492L-796.53,492L-796.53,475.55C-796.53,474.75 -796.99,474.63 -797.44,474.63C-797.86,474.63 -798.09,474.86 -798.35,475.13C-798.47,475.28 -798.58,475.43 -798.70,475.62ZM-789.73,464.07L-785.89,464.07L-785.89,467.91L-789.73,467.91ZM-789.73,492L-789.73,471.21L-785.89,471.21L-785.89,492ZM-779.32,487.21C-779.32,487.97 -779.28,488.88 -778.25,488.88C-777.38,488.88 -777.15,488.47 -777.15,487.21L-777.15,484.32L-773.31,484.32L-773.31,486.34C-773.31,488.66 -773.73,490.14 -774.57,491.05C-775.40,491.96 -776.62,492.30 -778.25,492.30C-779.62,492.30 -780.87,491.92 -781.75,490.97C-782.62,490.02 -783.15,488.47 -783.15,486.15L-783.15,477.07C-783.15,474.75 -782.62,473.19 -781.75,472.24C-780.87,471.29 -779.62,470.91 -778.25,470.91C-776.62,470.91 -775.40,471.25 -774.57,472.16C-773.73,473.08 -773.31,474.56 -773.31,476.88L-773.31,478.51L-777.15,478.51L-777.15,476.00C-777.15,474.75 -777.38,474.33 -778.25,474.33C-779.28,474.33 -779.32,475.24 -779.32,476.00ZM-771.03,479.95L-765.52,479.95L-765.52,483.56L-771.03,483.56ZM-755.30,492L-757.43,480.22L-758.53,480.22L-758.53,492L-762.63,492L-762.63,464.07L-758.53,464.07C-753.63,464.07 -751.54,466.84 -751.54,472.13C-751.54,474.90 -752.26,477.41 -753.82,478.47L-751.20,492ZM-758.53,476.42C-757.96,476.42 -757.20,476.34 -756.59,475.81C-755.98,475.28 -755.49,474.25 -755.49,472.28C-755.49,470.30 -755.98,469.24 -756.59,468.71C-757.20,468.17 -757.96,468.14 -758.53,468.14ZM-739.30,484.55L-739.30,486.95C-739.42,488.96 -740.02,490.37 -741.39,491.47C-742.08,492.04 -743.03,492.30 -744.28,492.30C-746.75,492.30 -748.00,490.94 -748.61,489.57C-748.95,488.77 -749.18,487.86 -749.22,486.83L-749.22,476.38C-749.11,474.37 -748.46,472.89 -747.09,471.75C-746.45,471.18 -745.50,470.91 -744.24,470.91C-741.77,470.91 -740.52,472.28 -739.91,473.61C-739.57,474.41 -739.34,475.28 -739.30,476.27L-739.30,482.31L-745.65,482.31L-745.65,486.83C-745.61,487.63 -745.38,488.20 -745.04,488.62C-744.85,488.81 -744.58,488.92 -744.24,488.92C-743.52,488.92 -743.18,488.47 -743.03,487.90C-742.91,487.59 -742.87,487.25 -742.87,486.83L-742.87,484.55ZM-745.65,479.31L-742.87,479.31L-742.87,476.38C-742.87,475.58 -743.03,475.01 -743.41,474.56C-743.60,474.37 -743.90,474.25 -744.24,474.25C-744.96,474.25 -745.27,474.75 -745.46,475.32C-745.57,475.62 -745.61,475.96 -745.65,476.38ZM-727.29,481.97C-727.41,483.91 -728.09,485.27 -729.42,486.30C-730.11,486.83 -731.06,487.10 -732.23,487.10C-732.35,487.10 -732.46,487.10 -732.58,487.10C-732.69,487.10 -732.84,487.10 -732.96,487.06C-733.30,487.36 -733.49,487.67 -733.49,488.01C-733.49,488.47 -733.11,488.73 -732.54,488.88C-731.97,489.07 -731.28,489.19 -730.56,489.30C-729.35,489.45 -728.05,489.76 -726.99,490.48C-725.96,491.20 -725.24,492.30 -725.24,494.13C-725.24,496.14 -726.12,497.51 -727.33,498.31C-728.59,499.11 -730.26,499.45 -731.82,499.45C-733.64,499.41 -735.20,499.14 -736.26,498.54C-737.36,497.93 -737.97,496.94 -737.97,495.42C-737.97,494.70 -737.59,494.09 -737.02,493.56C-736.45,493.03 -735.69,492.61 -734.97,492.27C-736.22,491.92 -737.29,491.13 -737.29,489.49C-737.29,488.88 -736.95,488.28 -736.49,487.71C-736.03,487.14 -735.46,486.68 -734.89,486.38C-736.00,485.65 -736.53,484.51 -736.79,483.56C-736.95,482.99 -737.06,482.42 -737.10,481.85L-737.10,476.19C-736.95,474.25 -736.34,472.85 -735.01,471.75C-734.36,471.18 -733.41,470.91 -732.23,470.91C-730.30,470.91 -729.12,471.78 -728.40,472.81C-728.13,472.54 -727.67,472.09 -727.07,471.67C-726.50,471.25 -725.85,470.91 -725.24,470.91L-725.24,474.33C-726.27,474.33 -727.03,474.52 -727.48,474.79C-727.45,474.98 -727.41,475.17 -727.37,475.28C-727.37,475.43 -727.37,475.58 -727.33,475.70C-727.29,475.81 -727.29,475.96 -727.29,476.08ZM-731.06,476.34C-731.06,475.62 -731.21,475.17 -731.51,474.75C-731.66,474.56 -731.89,474.44 -732.23,474.44C-732.84,474.44 -733.15,474.94 -733.26,475.39C-733.34,475.66 -733.37,476.00 -733.34,476.34L-733.34,482.04C-733.37,482.77 -733.26,483.22 -732.92,483.60C-732.77,483.79 -732.54,483.91 -732.23,483.91C-731.59,483.91 -731.32,483.45 -731.17,482.99C-731.09,482.73 -731.06,482.39 -731.06,482.04ZM-732.84,492.95C-733.64,493.41 -734.25,493.98 -734.25,494.77C-734.25,495.57 -733.53,496.22 -731.74,496.22C-731.09,496.22 -730.37,496.10 -729.80,495.88C-729.23,495.65 -728.81,495.31 -728.81,494.81C-728.81,494.47 -728.85,494.20 -729.12,493.94C-729.42,493.67 -729.92,493.48 -730.87,493.33ZM-717.76,471.21L-713.92,471.21L-713.92,492L-717.76,492L-717.76,490.25C-717.83,490.29 -717.98,490.44 -718.17,490.63C-718.63,491.09 -719.16,491.62 -719.85,492C-720.19,492.19 -720.53,492.30 -720.87,492.30C-721.90,492.30 -722.62,491.70 -723.08,490.90C-723.53,490.14 -723.76,489.11 -723.76,488.24L-723.76,471.21L-719.92,471.21L-719.92,487.67C-719.92,488.47 -719.47,488.58 -719.01,488.58C-718.59,488.58 -718.36,488.35 -718.10,488.09C-717.98,487.97 -717.87,487.78 -717.76,487.59ZM-710.88,492L-710.88,464.07L-707.04,464.07L-707.04,492ZM-698.19,476.15C-698.19,475.81 -698.19,475.28 -698.30,474.90C-698.45,474.52 -698.76,474.25 -699.25,474.25C-699.90,474.25 -700.16,474.75 -700.28,475.36C-700.31,475.66 -700.35,476.00 -700.35,476.34C-700.35,476.69 -700.35,477.03 -700.35,477.33L-704.19,477.33L-704.19,476.46C-704.19,474.94 -703.62,473.57 -702.71,472.54C-701.80,471.52 -700.50,470.91 -699.02,470.91C-697.77,470.91 -696.63,471.40 -695.75,472.24C-694.88,473.08 -694.35,474.25 -694.35,475.62L-694.35,488.39C-694.35,490.25 -694.23,491.09 -694.08,492L-697.84,492C-698.19,491.58 -698.19,490.59 -698.19,490.33L-698.45,490.33C-698.64,490.67 -698.98,491.16 -699.52,491.58C-700.05,492 -700.77,492.30 -701.53,492.30C-702.02,492.30 -702.82,492.11 -703.43,491.35C-704.08,490.63 -704.61,489.34 -704.61,487.17C-704.61,484.86 -703.92,483.18 -703.01,482.04C-702.10,480.90 -700.96,480.18 -700.01,479.69C-699.06,479.19 -698.34,478.85 -698.19,478.43ZM-698.19,481.97C-700.05,482.77 -700.85,484.63 -700.85,486.60C-700.85,486.87 -700.81,487.33 -700.66,487.74C-700.50,488.20 -700.24,488.54 -699.78,488.54C-698.91,488.54 -698.19,488.01 -698.19,487.29ZM-684.05,475.17C-684.39,475.05 -684.77,475.01 -685.11,475.01C-685.72,475.01 -686.44,475.09 -687.05,475.66C-687.77,476.27 -687.89,476.91 -687.89,477.56L-687.89,492L-691.73,492L-691.73,471.21L-687.89,471.21L-687.89,473.53C-687.85,473.27 -687.58,472.62 -686.98,472.01C-686.37,471.44 -685.46,470.91 -684.05,470.91Z"/>
</svg>