<?xml version="1.0"?>
<svg xmlns="http://www.w3.org/2000/svg" width="1920" height="1080" viewBox="-960 -540 1920 1080">
    <path d="M-576.51,-210L-576.51,-366.25L-498.38,-366.25L-498.38,-358.44L-490.57,-358.44L-490.57,-350.63L-482.76,-350.63L-482.76,-342.81L-474.95,-342.81L-474.95,-303.75L-482.76,-303.75L-482.76,-288.13L-474.95,-288.13L-474.95,-280.31L-467.13,-280.31L-467.13,-233.44L-474.95,-233.44L-474.95,-225.63L-482.76,-225.63L-482.76,-217.81L-490.57,-217.81L-490.57,-210ZM-553.07,-233.44L-498.38,-233.44L-498.38,-241.25L-490.57,-241.25L-490.57,-272.50L-498.38,-272.50L-498.38,-280.31L-553.07,-280.31ZM-553.07,-303.75L-506.20,-303.75L-506.20,-311.56L-498.38,-311.56L-498.38,-335L-506.20,-335L-506.20,-342.81L-553.07,-342.81ZM-442.96,-225.63L-442.96,-327.19L-419.53,-327.19L-419.53,-241.25L-411.71,-241.25L-411.71,-233.44L-388.28,-233.44L-388.28,-241.25L-380.46,-241.25L-380.46,-249.06L-372.65,-249.06L-372.65,-327.19L-349.21,-327.19L-349.21,-210L-372.65,-210L-372.65,-225.63L-380.46,-225.63L-380.46,-217.81L-388.28,-217.81L-388.28,-210L-427.34,-210L-427.34,-217.81L-435.15,-217.81L-435.15,-225.63ZM-322.85,-210L-322.85,-327.19L-299.41,-327.19L-299.41,-210ZM-322.85,-342.81L-322.85,-366.25L-299.41,-366.25L-299.41,-342.81ZM-271.09,-210L-271.09,-366.25L-247.65,-366.25L-247.65,-210ZM-223.97,-241.25L-223.97,-295.94L-216.16,-295.94L-216.16,-311.56L-208.34,-311.56L-208.34,-319.38L-192.72,-319.38L-192.72,-327.19L-161.47,-327.19L-161.47,-319.38L-153.66,-319.38L-153.66,-311.56L-145.84,-311.56L-145.84,-366.25L-122.41,-366.25L-122.41,-210L-145.84,-210L-145.84,-225.63L-153.66,-225.63L-153.66,-217.81L-161.47,-217.81L-161.47,-210L-192.72,-210L-192.72,-217.81L-208.34,-217.81L-208.34,-225.63L-216.16,-225.63L-216.16,-241.25ZM-200.53,-241.25L-192.72,-241.25L-192.72,-233.44L-161.47,-233.44L-161.47,-241.25L-153.66,-241.25L-153.66,-249.06L-145.84,-249.06L-145.84,-288.13L-153.66,-288.13L-153.66,-295.94L-161.47,-295.94L-161.47,-303.75L-192.72,-303.75L-192.72,-295.94L-200.53,-295.94ZM-23.29,-210L-23.29,-366.25L70.46,-366.25L70.46,-342.81L0.15,-342.81L0.15,-303.75L70.46,-303.75L70.46,-280.31L0.15,-280.31L0.15,-233.44L70.46,-233.44L70.46,-210ZM95.12,-241.25L95.12,-295.94L102.93,-295.94L102.93,-311.56L110.75,-311.56L110.75,-319.38L126.37,-319.38L126.37,-327.19L157.62,-327.19L157.62,-319.38L165.43,-319.38L165.43,-311.56L173.25,-311.56L173.25,-327.19L196.68,-327.19L196.68,-210L173.25,-210L173.25,-225.63L165.43,-225.63L165.43,-217.81L157.62,-217.81L157.62,-210L126.37,-210L126.37,-217.81L110.75,-217.81L110.75,-225.63L102.93,-225.63L102.93,-241.25ZM118.56,-241.25L126.37,-241.25L126.37,-233.44L157.62,-233.44L157.62,-241.25L165.43,-241.25L165.43,-249.06L173.25,-249.06L173.25,-288.13L165.43,-288.13L165.43,-295.94L157.62,-295.94L157.62,-303.75L126.37,-303.75L126.37,-295.94L118.56,-295.94ZM222.08,-210L222.08,-327.19L245.51,-327.19L245.51,-311.56L253.33,-311.56L253.33,-319.38L261.14,-319.38L261.14,-327.19L292.39,-327.19L292.39,-319.38L300.20,-319.38L300.20,-311.56L308.01,-311.56L308.01,-295.94L300.20,-295.94L300.20,-288.13L292.39,-288.13L292.39,-295.94L284.58,-295.94L284.58,-303.75L261.14,-303.75L261.14,-295.94L253.33,-295.94L253.33,-288.13L245.51,-288.13L245.51,-210ZM324.86,-303.75L324.86,-327.19L340.48,-327.19L340.48,-358.44L363.92,-358.44L363.92,-327.19L395.17,-327.19L395.17,-303.75L363.92,-303.75L363.92,-210L340.48,-210L340.48,-303.75ZM417.14,-210L417.14,-366.25L440.58,-366.25L440.58,-311.56L448.39,-311.56L448.39,-319.38L456.21,-319.38L456.21,-327.19L487.46,-327.19L487.46,-319.38L503.08,-319.38L503.08,-311.56L510.89,-311.56L510.89,-295.94L518.71,-295.94L518.71,-210L495.27,-210L495.27,-295.94L487.46,-295.94L487.46,-303.75L456.21,-303.75L456.21,-295.94L448.39,-295.94L448.39,-288.13L440.58,-288.13L440.58,-210Z" fill="#ffffff" stroke="#000000"/>
    <path d="M-578.14,-200.77L-579.26,-355.46L-501.92,-356.01L-501.86,-348.28L-494.13,-348.33L-494.07,-340.60L-486.34,-340.66L-486.28,-332.92L-478.55,-332.98L-478.27,-294.31L-486.00,-294.25L-485.89,-278.78L-478.16,-278.84L-478.10,-271.10L-470.37,-271.16L-470.03,-224.75L-477.77,-224.70L-477.71,-216.96L-485.45,-216.91L-485.39,-209.17L-493.12,-209.12L-493.07,-201.38ZM-555.11,-224.14L-500.97,-224.53L-501.03,-232.27L-493.29,-232.32L-493.51,-263.26L-501.25,-263.20L-501.30,-270.94L-555.44,-270.55ZM-555.61,-293.75L-509.21,-294.08L-509.26,-301.82L-501.53,-301.87L-501.69,-325.08L-509.43,-325.02L-509.48,-332.75L-555.89,-332.42ZM-446.05,-217.19L-446.77,-317.74L-423.57,-317.90L-422.96,-232.83L-415.22,-232.88L-415.17,-225.15L-391.97,-225.32L-392.02,-233.05L-384.29,-233.11L-384.34,-240.84L-376.61,-240.90L-377.17,-318.24L-353.96,-318.40L-353.13,-202.39L-376.33,-202.23L-376.44,-217.69L-384.18,-217.64L-384.12,-209.90L-391.85,-209.85L-391.80,-202.11L-430.47,-201.84L-430.53,-209.57L-438.26,-209.51L-438.32,-217.25ZM-327.03,-202.58L-327.86,-318.59L-304.66,-318.76L-303.82,-202.75ZM-327.97,-334.06L-328.14,-357.26L-304.94,-357.43L-304.77,-334.23ZM-275.79,-202.95L-276.90,-357.63L-253.70,-357.80L-252.58,-203.12ZM-229.36,-234.22L-229.75,-288.36L-222.02,-288.42L-222.13,-303.89L-214.40,-303.94L-214.45,-311.67L-198.98,-311.79L-199.04,-319.52L-168.10,-319.74L-168.05,-312.01L-160.31,-312.06L-160.26,-304.33L-152.52,-304.39L-152.91,-358.53L-129.71,-358.69L-128.60,-204.01L-151.80,-203.84L-151.91,-219.31L-159.64,-219.25L-159.59,-211.52L-167.32,-211.46L-167.27,-203.73L-198.20,-203.51L-198.26,-211.24L-213.73,-211.13L-213.78,-218.86L-221.52,-218.81L-221.63,-234.28ZM-206.16,-234.39L-198.43,-234.44L-198.37,-226.71L-167.43,-226.93L-167.49,-234.67L-159.76,-234.72L-159.81,-242.46L-152.08,-242.51L-152.36,-281.18L-160.09,-281.13L-160.15,-288.86L-167.88,-288.81L-167.93,-296.54L-198.87,-296.32L-198.82,-288.58L-206.55,-288.53ZM-30.47,-204.72L-31.58,-359.40L61.23,-360.07L61.39,-336.87L-8.21,-336.36L-7.93,-297.69L61.67,-298.19L61.84,-274.99L-7.77,-274.49L-7.43,-228.09L62.17,-228.59L62.34,-205.38ZM86.53,-236.50L86.14,-290.64L93.87,-290.69L93.76,-306.16L101.50,-306.22L101.44,-313.95L116.91,-314.06L116.85,-321.80L147.79,-322.02L147.85,-314.28L155.58,-314.34L155.64,-306.61L163.37,-306.66L163.26,-322.13L186.46,-322.30L187.30,-206.28L164.09,-206.12L163.98,-221.59L156.25,-221.53L156.30,-213.80L148.57,-213.74L148.63,-206.01L117.69,-205.78L117.63,-213.52L102.17,-213.41L102.11,-221.14L94.38,-221.08L94.26,-236.55ZM109.73,-236.66L117.47,-236.72L117.52,-228.99L148.46,-229.21L148.40,-236.94L156.14,-237.00L156.08,-244.73L163.82,-244.79L163.54,-283.46L155.80,-283.40L155.75,-291.14L148.01,-291.08L147.96,-298.82L117.02,-298.59L117.08,-290.86L109.34,-290.80ZM212.43,-206.47L211.60,-322.48L234.80,-322.64L234.91,-307.18L242.65,-307.23L242.59,-314.97L250.32,-315.02L250.27,-322.76L281.21,-322.98L281.26,-315.24L289.00,-315.30L289.05,-307.57L296.78,-307.62L296.90,-292.15L289.16,-292.10L289.22,-284.36L281.48,-284.31L281.43,-292.04L273.69,-291.99L273.64,-299.72L250.44,-299.55L250.49,-291.82L242.76,-291.76L242.81,-284.03L235.08,-283.97L235.64,-206.63ZM313.52,-300.01L313.35,-323.21L328.82,-323.32L328.60,-354.26L351.80,-354.43L352.02,-323.49L382.96,-323.71L383.13,-300.51L352.19,-300.29L352.86,-207.48L329.65,-207.31L328.99,-300.12ZM405.55,-207.86L404.43,-362.54L427.63,-362.71L428.02,-308.57L435.76,-308.62L435.70,-316.36L443.44,-316.41L443.38,-324.15L474.32,-324.37L474.37,-316.64L489.84,-316.75L489.90,-309.01L497.63,-309.07L497.74,-293.60L505.48,-293.66L506.09,-208.58L482.89,-208.41L482.27,-293.49L474.54,-293.43L474.48,-301.17L443.55,-300.94L443.60,-293.21L435.87,-293.15L435.93,-285.42L428.19,-285.36L428.75,-208.02Z" fill="#ffffff" stroke="#000000"/>
    <path d="M-579.56,-191.59L-581.76,-344.70L-505.21,-345.80L-505.10,-338.15L-497.44,-338.26L-497.33,-330.60L-489.68,-330.71L-489.57,-323.06L-481.91,-323.17L-481.36,-284.89L-489.02,-284.78L-488.80,-269.47L-481.14,-269.58L-481.03,-261.93L-473.37,-262.04L-472.71,-216.10L-480.37,-215.99L-480.26,-208.34L-487.91,-208.23L-487.80,-200.57L-495.46,-200.46L-495.35,-192.81ZM-556.92,-214.89L-503.33,-215.66L-503.44,-223.32L-495.79,-223.43L-496.23,-254.05L-503.89,-253.94L-504.00,-261.59L-557.58,-260.82ZM-557.91,-283.79L-511.98,-284.45L-512.09,-292.11L-504.44,-292.22L-504.77,-315.18L-512.42,-315.07L-512.53,-322.73L-558.47,-322.07ZM-448.92,-208.79L-450.35,-308.31L-427.39,-308.64L-426.17,-224.43L-418.52,-224.54L-418.41,-216.89L-395.44,-217.22L-395.55,-224.87L-387.90,-224.98L-388.01,-232.64L-380.35,-232.75L-381.45,-309.30L-358.49,-309.63L-356.83,-194.80L-379.80,-194.47L-380.02,-209.78L-387.67,-209.67L-387.56,-202.02L-395.22,-201.91L-395.11,-194.25L-433.39,-193.70L-433.50,-201.35L-441.15,-201.24L-441.26,-208.90ZM-331.00,-195.17L-332.65,-310.00L-309.68,-310.34L-308.03,-195.50ZM-332.87,-325.32L-333.20,-348.28L-310.23,-348.61L-309.90,-325.65ZM-280.28,-195.90L-282.48,-349.01L-259.52,-349.34L-257.31,-196.23ZM-234.55,-227.19L-235.32,-280.78L-227.66,-280.89L-227.88,-296.20L-220.23,-296.31L-220.34,-303.97L-205.03,-304.19L-205.14,-311.84L-174.52,-312.28L-174.41,-304.63L-166.75,-304.74L-166.64,-297.08L-158.98,-297.19L-159.76,-350.78L-136.79,-351.11L-134.58,-198.00L-157.55,-197.67L-157.77,-212.98L-165.43,-212.87L-165.32,-205.22L-172.97,-205.11L-172.86,-197.45L-203.48,-197.01L-203.59,-204.67L-218.91,-204.44L-219.02,-212.10L-226.67,-211.99L-226.89,-227.30ZM-211.58,-227.52L-203.92,-227.63L-203.81,-219.98L-173.19,-220.42L-173.30,-228.07L-165.65,-228.18L-165.76,-235.84L-158.10,-235.95L-158.65,-274.23L-166.31,-274.12L-166.42,-281.77L-174.08,-281.66L-174.19,-289.32L-204.81,-288.88L-204.70,-281.22L-212.35,-281.11ZM-37.46,-199.40L-39.66,-352.51L52.20,-353.83L52.53,-330.87L-16.36,-329.87L-15.81,-291.60L53.09,-292.59L53.42,-269.62L-15.48,-268.63L-14.82,-222.70L54.08,-223.69L54.41,-200.72ZM78.13,-231.69L77.36,-285.28L85.01,-285.39L84.79,-300.70L92.45,-300.81L92.34,-308.47L107.65,-308.69L107.54,-316.35L138.16,-316.79L138.27,-309.13L145.93,-309.24L146.04,-301.59L153.69,-301.70L153.47,-317.01L176.44,-317.34L178.09,-202.51L155.13,-202.18L154.91,-217.49L147.25,-217.38L147.36,-209.72L139.71,-209.61L139.82,-201.95L109.19,-201.51L109.08,-209.17L93.77,-208.95L93.66,-216.60L86.01,-216.49L85.79,-231.80ZM101.10,-232.03L108.75,-232.14L108.86,-224.48L139.48,-224.92L139.37,-232.58L147.03,-232.69L146.92,-240.34L154.58,-240.45L154.02,-278.73L146.37,-278.62L146.26,-286.27L138.60,-286.16L138.49,-293.82L107.87,-293.38L107.98,-285.72L100.33,-285.61ZM202.97,-202.86L201.32,-317.70L224.29,-318.03L224.51,-302.72L232.16,-302.83L232.05,-310.48L239.71,-310.59L239.60,-318.25L270.22,-318.69L270.33,-311.03L277.98,-311.14L278.09,-303.49L285.75,-303.60L285.97,-288.29L278.31,-288.18L278.42,-280.52L270.77,-280.41L270.66,-288.07L263.00,-287.96L262.89,-295.61L239.93,-295.28L240.04,-287.63L232.38,-287.52L232.49,-279.86L224.84,-279.75L225.94,-203.20ZM302.37,-296.18L302.04,-319.15L317.35,-319.37L316.91,-349.99L339.87,-350.32L340.31,-319.70L370.94,-320.14L371.27,-297.17L340.64,-296.73L341.97,-204.87L319.00,-204.54L317.68,-296.40ZM394.12,-205.62L391.91,-358.73L414.88,-359.06L415.65,-305.47L423.31,-305.58L423.20,-313.24L430.85,-313.35L430.74,-321.00L461.37,-321.44L461.48,-313.79L476.79,-314.01L476.90,-306.35L484.55,-306.46L484.77,-291.15L492.43,-291.26L493.64,-207.05L470.67,-206.72L469.46,-290.93L461.81,-290.82L461.70,-298.48L431.07,-298.03L431.18,-290.38L423.53,-290.27L423.64,-282.61L415.98,-282.50L417.09,-205.95Z" fill="#ffffff" stroke="#000000"/>
    <path d="M-580.75,-182.47L-584.03,-333.99L-508.26,-335.63L-508.10,-328.05L-500.52,-328.22L-500.36,-320.64L-492.78,-320.81L-492.62,-313.23L-485.04,-313.39L-484.22,-275.51L-491.80,-275.35L-491.47,-260.19L-483.90,-260.36L-483.73,-252.78L-476.16,-252.95L-475.17,-207.49L-482.75,-207.32L-482.59,-199.75L-490.16,-199.58L-490.00,-192.01L-497.57,-191.84L-497.41,-184.27ZM-558.51,-205.69L-505.48,-206.83L-505.64,-214.41L-498.07,-214.57L-498.72,-244.88L-506.30,-244.71L-506.46,-252.29L-559.50,-251.15ZM-559.99,-273.87L-514.53,-274.86L-514.69,-282.43L-507.12,-282.60L-507.61,-305.33L-515.18,-305.16L-515.35,-312.74L-560.80,-311.76ZM-451.57,-200.42L-453.70,-298.91L-430.97,-299.40L-429.17,-216.06L-421.59,-216.23L-421.43,-208.65L-398.70,-209.14L-398.86,-216.72L-391.29,-216.88L-391.45,-224.46L-383.87,-224.62L-385.51,-300.38L-362.78,-300.87L-360.33,-187.23L-383.06,-186.74L-383.38,-201.89L-390.96,-201.73L-390.80,-194.15L-398.37,-193.99L-398.21,-186.41L-436.09,-185.59L-436.25,-193.17L-443.83,-193.01L-443.99,-200.58ZM-334.76,-187.78L-337.21,-301.43L-314.48,-301.92L-312.03,-188.27ZM-337.54,-316.58L-338.03,-339.31L-315.30,-339.80L-314.81,-317.07ZM-284.56,-188.87L-287.84,-340.39L-265.11,-340.88L-261.83,-189.36ZM-239.52,-220.16L-240.67,-273.19L-233.09,-273.36L-233.42,-288.51L-225.84,-288.67L-226.01,-296.25L-210.85,-296.58L-211.02,-304.15L-180.71,-304.81L-180.55,-297.23L-172.97,-297.40L-172.81,-289.82L-165.23,-289.98L-166.38,-343.02L-143.65,-343.51L-140.38,-191.98L-163.10,-191.49L-163.43,-206.64L-171.01,-206.48L-170.84,-198.90L-178.42,-198.74L-178.26,-191.16L-208.56,-190.51L-208.73,-198.09L-223.88,-197.76L-224.04,-205.33L-231.62,-205.17L-231.95,-220.32ZM-216.79,-220.65L-209.22,-220.81L-209.05,-213.24L-178.75,-213.89L-178.91,-221.47L-171.34,-221.63L-171.50,-229.21L-163.92,-229.37L-164.74,-267.25L-172.32,-267.09L-172.48,-274.67L-180.06,-274.50L-180.22,-282.08L-210.53,-281.43L-210.36,-273.85L-217.94,-273.69ZM-44.25,-194.06L-47.52,-345.59L43.39,-347.55L43.88,-324.82L-24.30,-323.35L-23.49,-285.47L44.70,-286.94L45.19,-264.21L-22.99,-262.74L-22.01,-217.28L46.18,-218.75L46.67,-196.02ZM69.92,-226.85L68.78,-279.88L76.35,-280.04L76.03,-295.20L83.60,-295.36L83.44,-302.94L98.59,-303.26L98.43,-310.84L128.73,-311.50L128.90,-303.92L136.47,-304.08L136.64,-296.51L144.21,-296.67L143.89,-311.82L166.62,-312.31L169.07,-198.67L146.34,-198.18L146.02,-213.33L138.44,-213.17L138.60,-205.59L131.03,-205.43L131.19,-197.85L100.88,-197.20L100.72,-204.77L85.57,-204.44L85.40,-212.02L77.83,-211.86L77.50,-227.01ZM92.65,-227.34L100.23,-227.50L100.39,-219.92L130.70,-220.58L130.54,-228.16L138.11,-228.32L137.95,-235.90L145.52,-236.06L144.71,-273.94L137.13,-273.78L136.97,-281.35L129.39,-281.19L129.23,-288.77L98.92,-288.11L99.08,-280.54L91.51,-280.37ZM193.69,-199.20L191.24,-312.85L213.97,-313.34L214.30,-298.18L221.87,-298.35L221.71,-305.92L229.28,-306.09L229.12,-313.66L259.43,-314.32L259.59,-306.74L267.17,-306.91L267.33,-299.33L274.91,-299.49L275.23,-284.34L267.66,-284.18L267.82,-276.60L260.24,-276.44L260.08,-284.01L252.50,-283.85L252.34,-291.43L229.61,-290.94L229.78,-283.36L222.20,-283.20L222.36,-275.62L214.79,-275.46L216.42,-199.69ZM291.41,-292.27L290.92,-315.00L306.07,-315.33L305.41,-345.63L328.14,-346.12L328.80,-315.82L359.10,-316.47L359.59,-293.74L329.29,-293.09L331.25,-202.17L308.52,-201.68L306.56,-292.60ZM382.87,-203.29L379.59,-354.82L402.32,-355.31L403.47,-302.27L411.04,-302.44L410.88,-310.01L418.46,-310.18L418.29,-317.75L448.60,-318.41L448.76,-310.83L463.92,-311.16L464.08,-303.58L471.66,-303.75L471.98,-288.59L479.56,-288.76L481.36,-205.42L458.63,-204.93L456.83,-288.27L449.25,-288.10L449.09,-295.68L418.78,-295.02L418.95,-287.45L411.37,-287.28L411.54,-279.71L403.96,-279.54L405.60,-203.78Z" fill="#ffffff" stroke="#000000"/>
    <path d="M-581.72,-173.40L-586.04,-323.33L-511.08,-325.50L-510.86,-318.00L-503.36,-318.21L-503.15,-310.72L-495.65,-310.93L-495.43,-303.44L-487.94,-303.65L-486.86,-266.17L-494.35,-265.95L-493.92,-250.96L-486.42,-251.17L-486.21,-243.68L-478.71,-243.89L-477.42,-198.91L-484.91,-198.70L-484.70,-191.20L-492.19,-190.98L-491.98,-183.49L-499.47,-183.27L-499.26,-175.77ZM-559.88,-196.54L-507.40,-198.05L-507.62,-205.54L-500.12,-205.76L-500.99,-235.75L-508.48,-235.53L-508.70,-243.03L-561.18,-241.52ZM-561.83,-264.01L-516.84,-265.30L-517.06,-272.80L-509.56,-273.02L-510.21,-295.51L-517.71,-295.29L-517.92,-302.79L-562.91,-301.49ZM-454.01,-192.08L-456.81,-289.54L-434.32,-290.19L-431.95,-207.73L-424.45,-207.94L-424.23,-200.44L-401.74,-201.09L-401.96,-208.59L-394.46,-208.81L-394.68,-216.30L-387.18,-216.52L-389.34,-291.49L-366.85,-292.14L-363.61,-179.68L-386.10,-179.03L-386.53,-194.03L-394.03,-193.81L-393.81,-186.31L-401.31,-186.10L-401.10,-178.60L-438.58,-177.52L-438.80,-185.02L-446.29,-184.80L-446.51,-192.30ZM-338.31,-180.41L-341.55,-292.86L-319.06,-293.51L-315.82,-181.06ZM-341.98,-307.86L-342.63,-330.35L-320.14,-331.00L-319.49,-308.51ZM-288.64,-181.84L-292.96,-331.78L-270.47,-332.43L-266.15,-182.49ZM-244.29,-213.13L-245.80,-265.61L-238.31,-265.83L-238.74,-280.82L-231.24,-281.04L-231.46,-288.53L-216.46,-288.97L-216.68,-296.46L-186.69,-297.33L-186.48,-289.83L-178.98,-290.05L-178.76,-282.55L-171.27,-282.76L-172.78,-335.24L-150.29,-335.89L-145.97,-185.95L-168.46,-185.30L-168.89,-200.30L-176.39,-200.08L-176.17,-192.59L-183.67,-192.37L-183.45,-184.87L-213.44,-184.01L-213.66,-191.51L-228.65,-191.07L-228.87,-198.57L-236.36,-198.35L-236.79,-213.35ZM-221.80,-213.78L-214.30,-214.00L-214.09,-206.50L-184.10,-207.36L-184.32,-214.86L-176.82,-215.08L-177.03,-222.57L-169.54,-222.79L-170.62,-260.27L-178.12,-260.06L-178.33,-267.55L-185.83,-267.34L-186.04,-274.84L-216.03,-273.97L-215.82,-266.47L-223.31,-266.26ZM-50.85,-188.69L-55.17,-338.63L34.79,-341.22L35.44,-318.73L-32.03,-316.79L-30.95,-279.30L36.52,-281.25L37.17,-258.76L-30.30,-256.81L-29.01,-211.83L38.46,-213.78L39.11,-191.29ZM61.91,-221.96L60.40,-274.43L67.89,-274.65L67.46,-289.64L74.96,-289.86L74.74,-297.36L89.74,-297.79L89.52,-305.29L119.51,-306.15L119.73,-298.65L127.22,-298.87L127.44,-291.37L134.93,-291.59L134.50,-306.58L156.99,-307.23L160.23,-194.78L137.74,-194.13L137.31,-209.12L129.81,-208.91L130.03,-201.41L122.53,-201.19L122.75,-193.70L92.76,-192.83L92.55,-200.33L77.55,-199.90L77.34,-207.39L69.84,-207.18L69.41,-222.17ZM84.40,-222.60L91.90,-222.82L92.11,-215.32L122.10,-216.19L121.89,-223.68L129.38,-223.90L129.17,-231.40L136.66,-231.61L135.58,-269.10L128.09,-268.88L127.87,-276.38L120.37,-276.16L120.16,-283.66L90.17,-282.79L90.39,-275.30L82.89,-275.08ZM184.60,-195.48L181.36,-307.93L203.85,-308.58L204.28,-293.59L211.78,-293.80L211.56,-301.30L219.06,-301.51L218.84,-309.01L248.83,-309.88L249.05,-302.38L256.54,-302.59L256.76,-295.10L264.26,-295.31L264.69,-280.32L257.19,-280.10L257.41,-272.61L249.91,-272.39L249.69,-279.89L242.20,-279.67L241.98,-287.17L219.49,-286.52L219.71,-279.02L212.21,-278.81L212.43,-271.31L204.93,-271.09L207.09,-196.13ZM280.64,-288.28L279.99,-310.77L294.98,-311.21L294.12,-341.19L316.61,-341.84L317.47,-311.85L347.46,-312.72L348.11,-290.23L318.12,-289.36L320.71,-199.40L298.22,-198.75L295.63,-288.71ZM371.79,-200.87L367.47,-350.81L389.96,-351.46L391.47,-298.98L398.97,-299.20L398.75,-306.69L406.25,-306.91L406.03,-314.40L436.02,-315.27L436.23,-307.77L451.23,-308.20L451.44,-300.71L458.94,-300.92L459.37,-285.93L466.87,-286.15L469.25,-203.68L446.76,-203.03L444.38,-285.50L436.88,-285.28L436.67,-292.78L406.68,-291.91L406.89,-284.42L399.40,-284.20L399.61,-276.70L392.12,-276.49L394.28,-201.52Z" fill="#ffffff" stroke="#000000"/>
    <path d="M-582.48,-164.39L-587.82,-312.73L-513.65,-315.40L-513.38,-307.98L-505.97,-308.25L-505.70,-300.83L-498.28,-301.10L-498.02,-293.68L-490.60,-293.95L-489.26,-256.87L-496.68,-256.60L-496.15,-241.76L-488.73,-242.03L-488.46,-234.61L-481.04,-234.88L-479.44,-190.38L-486.86,-190.11L-486.59,-182.70L-494.01,-182.43L-493.74,-175.01L-501.16,-174.74L-500.89,-167.33ZM-561.03,-187.44L-509.11,-189.31L-509.38,-196.73L-501.96,-196.99L-503.03,-226.66L-510.45,-226.40L-510.71,-233.81L-562.63,-231.94ZM-563.43,-254.19L-518.93,-255.80L-519.20,-263.21L-511.78,-263.48L-512.58,-285.73L-520.00,-285.47L-520.27,-292.88L-564.77,-291.28ZM-456.23,-183.79L-459.70,-280.21L-437.45,-281.01L-434.51,-199.42L-427.09,-199.69L-426.83,-192.27L-404.58,-193.08L-404.84,-200.49L-397.43,-200.76L-397.69,-208.18L-390.28,-208.44L-392.95,-282.62L-370.70,-283.42L-366.69,-172.16L-388.94,-171.36L-389.47,-186.19L-396.89,-185.93L-396.62,-178.51L-404.04,-178.24L-403.77,-170.83L-440.86,-169.49L-441.13,-176.91L-448.54,-176.64L-448.81,-184.06ZM-341.66,-173.06L-345.66,-284.32L-323.41,-285.12L-319.40,-173.86ZM-346.20,-299.15L-347.00,-321.40L-324.75,-322.21L-323.95,-299.95ZM-292.52,-174.83L-297.86,-323.17L-275.61,-323.98L-270.27,-175.63ZM-248.85,-206.11L-250.72,-258.03L-243.31,-258.30L-243.84,-273.13L-236.42,-273.40L-236.69,-280.82L-221.86,-281.35L-222.12,-288.77L-192.46,-289.84L-192.19,-282.42L-184.77,-282.69L-184.50,-275.27L-177.09,-275.54L-178.96,-327.46L-156.71,-328.26L-151.36,-179.92L-173.61,-179.12L-174.15,-193.95L-181.56,-193.68L-181.30,-186.27L-188.71,-186.00L-188.45,-178.58L-218.12,-177.51L-218.38,-184.93L-233.22,-184.40L-233.48,-191.81L-240.90,-191.55L-241.44,-206.38ZM-226.60,-206.91L-219.18,-207.18L-218.92,-199.76L-189.25,-200.83L-189.52,-208.25L-182.10,-208.52L-182.37,-215.93L-174.95,-216.20L-176.28,-253.29L-183.70,-253.02L-183.97,-260.44L-191.39,-260.17L-191.65,-267.59L-221.32,-266.52L-221.05,-259.10L-228.47,-258.83ZM-57.26,-183.31L-62.60,-331.65L26.40,-334.86L27.20,-312.60L-39.55,-310.20L-38.21,-273.11L28.54,-275.52L29.34,-253.27L-37.41,-250.86L-35.81,-206.36L30.95,-208.76L31.75,-186.51ZM54.09,-217.03L52.22,-268.94L59.63,-269.21L59.10,-284.05L66.52,-284.31L66.25,-291.73L81.08,-292.26L80.82,-299.68L110.49,-300.75L110.75,-293.33L118.17,-293.60L118.44,-286.18L125.85,-286.45L125.32,-301.28L147.57,-302.09L151.58,-190.83L129.33,-190.03L128.79,-204.86L121.38,-204.60L121.64,-197.18L114.23,-196.91L114.49,-189.49L84.83,-188.43L84.56,-195.84L69.72,-195.31L69.46,-202.73L62.04,-202.46L61.51,-217.29ZM76.34,-217.83L83.76,-218.09L84.02,-210.68L113.69,-211.75L113.42,-219.16L120.84,-219.43L120.57,-226.85L127.99,-227.11L126.66,-264.20L119.24,-263.93L118.97,-271.35L111.55,-271.08L111.29,-278.50L81.62,-277.43L81.89,-270.01L74.47,-269.75ZM175.68,-191.70L171.68,-302.95L193.93,-303.76L194.46,-288.92L201.88,-289.19L201.61,-296.61L209.03,-296.87L208.76,-304.29L238.43,-305.36L238.70,-297.94L246.11,-298.21L246.38,-290.79L253.80,-291.06L254.33,-276.23L246.92,-275.96L247.18,-268.54L239.77,-268.27L239.50,-275.69L232.08,-275.42L231.81,-282.84L209.56,-282.04L209.83,-274.62L202.41,-274.36L202.68,-266.94L195.26,-266.67L197.94,-192.50ZM270.06,-284.22L269.26,-306.47L284.09,-307.00L283.02,-336.67L305.27,-337.47L306.34,-307.81L336.01,-308.87L336.81,-286.62L307.14,-285.55L310.35,-196.55L288.10,-195.75L284.89,-284.75ZM360.88,-198.37L355.54,-346.71L377.79,-347.51L379.66,-295.59L387.07,-295.86L386.81,-303.28L394.22,-303.54L393.96,-310.96L423.62,-312.03L423.89,-304.61L438.73,-305.15L438.99,-297.73L446.41,-298.00L446.94,-283.16L454.36,-283.43L457.30,-201.84L435.05,-201.04L432.11,-282.63L424.69,-282.36L424.43,-289.78L394.76,-288.71L395.03,-281.29L387.61,-281.03L387.88,-273.61L380.46,-273.34L383.13,-199.17Z" fill="#ffffff" stroke="#000000"/>
    <path d="M-583.02,-155.44L-589.36,-302.18L-515.99,-305.35L-515.67,-298.01L-508.34,-298.33L-508.02,-290.99L-500.68,-291.31L-500.37,-283.98L-493.03,-284.29L-491.44,-247.61L-498.78,-247.29L-498.15,-232.62L-490.81,-232.93L-490.49,-225.60L-483.16,-225.91L-481.25,-181.89L-488.59,-181.58L-488.27,-174.24L-495.61,-173.92L-495.29,-166.58L-502.63,-166.27L-502.31,-158.93ZM-561.96,-178.40L-510.60,-180.62L-510.92,-187.96L-503.58,-188.28L-504.85,-217.63L-512.19,-217.31L-512.50,-224.65L-563.86,-222.43ZM-564.81,-244.44L-520.79,-246.34L-521.11,-253.68L-513.77,-253.99L-514.72,-276.00L-522.06,-275.69L-522.38,-283.02L-566.40,-281.12ZM-458.24,-175.54L-462.36,-270.92L-440.35,-271.87L-436.86,-191.16L-429.52,-191.48L-429.21,-184.14L-407.20,-185.10L-407.51,-192.43L-400.18,-192.75L-400.49,-200.09L-393.16,-200.40L-396.33,-273.77L-374.32,-274.72L-369.56,-164.67L-391.57,-163.72L-392.20,-178.39L-399.54,-178.08L-399.22,-170.74L-406.56,-170.42L-406.24,-163.08L-442.93,-161.50L-443.25,-168.84L-450.58,-168.52L-450.90,-175.85ZM-344.80,-165.74L-349.56,-275.79L-327.54,-276.75L-322.79,-166.69ZM-350.19,-290.47L-351.14,-312.48L-329.13,-313.43L-328.18,-291.42ZM-296.19,-167.84L-302.53,-314.58L-280.52,-315.53L-274.18,-168.79ZM-253.21,-199.10L-255.43,-250.46L-248.09,-250.78L-248.73,-265.45L-241.39,-265.77L-241.71,-273.11L-227.03,-273.74L-227.35,-281.08L-198.00,-282.35L-197.69,-275.01L-190.35,-275.33L-190.03,-267.99L-182.69,-268.31L-184.91,-319.67L-162.90,-320.62L-156.56,-173.88L-178.57,-172.93L-179.20,-187.60L-186.54,-187.28L-186.22,-179.95L-193.56,-179.63L-193.24,-172.29L-222.59,-171.02L-222.91,-178.36L-237.58,-177.73L-237.90,-185.06L-245.24,-184.75L-245.87,-199.42ZM-231.20,-200.06L-223.86,-200.37L-223.54,-193.04L-194.20,-194.30L-194.51,-201.64L-187.18,-201.96L-187.49,-209.30L-180.16,-209.61L-181.74,-246.30L-189.08,-245.98L-189.40,-253.32L-196.73,-253.00L-197.05,-260.34L-226.40,-259.07L-226.08,-251.73L-233.42,-251.41ZM-63.47,-177.90L-69.82,-324.64L18.23,-328.45L19.18,-306.44L-46.85,-303.58L-45.27,-266.90L20.76,-269.75L21.71,-247.74L-44.32,-244.89L-42.41,-200.87L23.62,-203.72L24.57,-181.71ZM46.46,-212.06L44.24,-263.42L51.57,-263.74L50.94,-278.41L58.28,-278.73L57.96,-286.06L72.63,-286.70L72.32,-294.03L101.66,-295.30L101.98,-287.97L109.32,-288.28L109.64,-280.95L116.97,-281.26L116.34,-295.94L138.35,-296.89L143.11,-186.84L121.10,-185.88L120.46,-200.56L113.12,-200.24L113.44,-192.90L106.10,-192.59L106.42,-185.25L77.07,-183.98L76.76,-191.32L62.08,-190.68L61.77,-198.02L54.43,-197.70L53.79,-212.38ZM68.47,-213.01L75.81,-213.33L76.12,-205.99L105.47,-207.26L105.15,-214.60L112.49,-214.91L112.17,-222.25L119.51,-222.57L117.92,-259.25L110.59,-258.94L110.27,-266.27L102.93,-265.96L102.62,-273.29L73.27,-272.02L73.59,-264.69L66.25,-264.37ZM166.95,-187.87L162.19,-297.92L184.20,-298.87L184.84,-284.20L192.18,-284.52L191.86,-291.85L199.19,-292.17L198.88,-299.51L228.23,-300.78L228.54,-293.44L235.88,-293.76L236.20,-286.42L243.53,-286.74L244.17,-272.06L236.83,-271.74L237.15,-264.41L229.81,-264.09L229.49,-271.43L222.16,-271.11L221.84,-278.45L199.83,-277.50L200.15,-270.16L192.81,-269.84L193.13,-262.50L185.79,-262.19L188.96,-188.82ZM259.67,-280.08L258.72,-302.09L273.39,-302.73L272.12,-332.08L294.13,-333.03L295.40,-303.68L324.75,-304.95L325.70,-282.94L296.36,-281.67L300.16,-193.63L278.15,-192.67L274.34,-280.72ZM350.14,-195.79L343.80,-342.53L365.81,-343.48L368.03,-292.12L375.37,-292.44L375.05,-299.77L382.39,-300.09L382.07,-307.43L411.42,-308.70L411.74,-301.36L426.41,-301.99L426.73,-294.66L434.06,-294.97L434.70,-280.30L442.03,-280.62L445.52,-199.91L423.51,-198.96L420.02,-279.67L412.69,-279.35L412.37,-286.69L383.02,-285.42L383.34,-278.08L376.00,-277.76L376.32,-270.43L368.98,-270.11L372.16,-196.74Z" fill="#ffffff" stroke="#000000"/>
    <path d="M-583.34,-146.56L-590.66,-291.69L-518.10,-295.35L-517.73,-288.09L-510.48,-288.46L-510.11,-281.20L-502.85,-281.57L-502.49,-274.31L-495.23,-274.68L-493.40,-238.40L-500.66,-238.03L-499.92,-223.52L-492.67,-223.89L-492.30,-216.63L-485.04,-217.00L-482.85,-173.46L-490.10,-173.09L-489.74,-165.83L-496.99,-165.47L-496.63,-158.21L-503.89,-157.85L-503.52,-150.59ZM-562.67,-169.43L-511.87,-171.99L-512.24,-179.25L-504.98,-179.62L-506.45,-208.64L-513.70,-208.27L-514.07,-215.53L-564.87,-212.97ZM-565.96,-234.74L-522.43,-236.93L-522.79,-244.19L-515.53,-244.56L-516.63,-266.33L-523.89,-265.96L-524.26,-273.22L-567.79,-271.02ZM-460.03,-167.33L-464.79,-261.67L-443.02,-262.76L-439.00,-182.94L-431.74,-183.31L-431.37,-176.05L-409.60,-177.15L-409.97,-184.41L-402.71,-184.77L-403.08,-192.03L-395.82,-192.40L-399.48,-264.96L-377.72,-266.06L-372.22,-157.21L-393.99,-156.12L-394.72,-170.63L-401.98,-170.26L-401.62,-163.01L-408.87,-162.64L-408.51,-155.38L-444.79,-153.55L-445.15,-160.81L-452.41,-160.44L-452.78,-167.70ZM-347.73,-158.45L-353.22,-267.30L-331.46,-268.39L-325.96,-159.55ZM-353.96,-281.81L-355.06,-303.58L-333.29,-304.68L-332.19,-282.91ZM-299.66,-160.87L-306.98,-306.00L-285.21,-307.10L-277.89,-161.97ZM-257.36,-192.11L-259.92,-242.90L-252.67,-243.27L-253.40,-257.78L-246.14,-258.15L-246.51,-265.40L-231.99,-266.14L-232.36,-273.39L-203.33,-274.86L-202.97,-267.60L-195.71,-267.97L-195.35,-260.71L-188.09,-261.08L-190.65,-311.87L-168.88,-312.97L-161.56,-167.84L-183.33,-166.74L-184.06,-181.26L-191.32,-180.89L-190.95,-173.63L-198.21,-173.27L-197.84,-166.01L-226.87,-164.55L-227.24,-171.80L-241.75,-171.07L-242.11,-178.33L-249.37,-177.96L-250.10,-192.47ZM-235.59,-193.21L-228.33,-193.57L-227.97,-186.32L-198.94,-187.78L-199.31,-195.04L-192.05,-195.40L-192.42,-202.66L-185.16,-203.03L-186.99,-239.31L-194.25,-238.94L-194.61,-246.20L-201.87,-245.83L-202.24,-253.09L-231.26,-251.62L-230.90,-244.37L-238.15,-244.00ZM-69.50,-172.49L-76.82,-317.62L10.26,-322.01L11.36,-300.24L-53.95,-296.94L-52.12,-260.66L13.19,-263.96L14.29,-242.19L-51.02,-238.89L-48.82,-195.35L16.48,-198.65L17.58,-176.88ZM39.02,-207.06L36.46,-257.86L43.71,-258.22L42.98,-272.74L50.24,-273.10L49.87,-280.36L64.38,-281.09L64.02,-288.35L93.04,-289.81L93.41,-282.55L100.67,-282.92L101.03,-275.66L108.29,-276.03L107.56,-290.54L129.33,-291.64L134.82,-182.80L113.05,-181.70L112.32,-196.21L105.06,-195.84L105.43,-188.59L98.17,-188.22L98.54,-180.96L69.51,-179.50L69.14,-186.76L54.63,-186.02L54.26,-193.28L47.01,-192.92L46.28,-207.43ZM60.79,-208.16L68.05,-208.53L68.41,-201.27L97.44,-202.73L97.07,-209.99L104.33,-210.36L103.96,-217.61L111.22,-217.98L109.39,-254.26L102.13,-253.90L101.76,-261.15L94.51,-260.79L94.14,-268.04L65.12,-266.58L65.48,-259.32L58.23,-258.95ZM158.40,-183.99L152.91,-292.83L174.68,-293.93L175.41,-279.42L182.67,-279.78L182.30,-287.04L189.56,-287.41L189.19,-294.66L218.22,-296.13L218.58,-288.87L225.84,-289.24L226.20,-281.98L233.46,-282.35L234.19,-267.83L226.94,-267.47L227.30,-260.21L220.05,-259.84L219.68,-267.10L212.42,-266.73L212.06,-273.99L190.29,-272.89L190.66,-265.64L183.40,-265.27L183.76,-258.01L176.51,-257.65L180.17,-185.08ZM249.47,-275.88L248.38,-297.65L262.89,-298.38L261.42,-327.41L283.19,-328.50L284.66,-299.48L313.68,-300.94L314.78,-279.17L285.76,-277.71L290.15,-190.63L268.38,-189.53L263.99,-276.61ZM339.58,-193.13L332.26,-338.25L354.03,-339.35L356.59,-288.56L363.85,-288.92L363.48,-296.18L370.74,-296.55L370.37,-303.80L399.40,-305.27L399.77,-298.01L414.28,-298.74L414.64,-291.49L421.90,-291.85L422.63,-277.34L429.89,-277.71L433.92,-197.89L412.15,-196.79L408.12,-276.61L400.86,-276.24L400.50,-283.50L371.47,-282.03L371.84,-274.78L364.58,-274.41L364.95,-267.16L357.69,-266.79L361.35,-194.22Z" fill="#ffffff" stroke="#000000"/>
    <path d="M-583.45,-137.75L-591.73,-281.27L-519.97,-285.40L-519.56,-278.23L-512.38,-278.64L-511.97,-271.47L-504.79,-271.88L-504.38,-264.70L-497.20,-265.12L-495.13,-229.24L-502.31,-228.83L-501.48,-214.48L-494.30,-214.89L-493.89,-207.71L-486.71,-208.13L-484.23,-165.07L-491.41,-164.66L-490.99,-157.48L-498.17,-157.07L-497.75,-149.90L-504.93,-149.48L-504.52,-142.31ZM-563.16,-160.52L-512.93,-163.42L-513.35,-170.59L-506.17,-171.01L-507.83,-199.71L-515.00,-199.30L-515.42,-206.47L-565.65,-203.58ZM-566.89,-225.10L-523.83,-227.59L-524.25,-234.76L-517.07,-235.17L-518.31,-256.70L-525.49,-256.29L-525.90,-263.46L-568.96,-260.98ZM-461.62,-159.18L-467.00,-252.46L-445.47,-253.70L-440.92,-174.77L-433.74,-175.19L-433.33,-168.01L-411.80,-169.25L-412.22,-176.43L-405.04,-176.84L-405.46,-184.02L-398.28,-184.43L-402.42,-256.19L-380.89,-257.43L-374.68,-149.79L-396.21,-148.55L-397.04,-162.90L-404.21,-162.49L-403.80,-155.31L-410.98,-154.90L-410.56,-147.72L-446.44,-145.66L-446.85,-152.83L-454.03,-152.42L-454.44,-159.59ZM-350.47,-151.19L-356.67,-258.82L-335.15,-260.07L-328.94,-152.43ZM-357.50,-273.18L-358.74,-294.70L-337.22,-295.94L-335.97,-274.42ZM-302.93,-153.93L-311.20,-297.44L-289.68,-298.69L-281.40,-155.17ZM-261.31,-185.13L-264.20,-235.36L-257.03,-235.77L-257.85,-250.13L-250.68,-250.54L-251.09,-257.71L-236.74,-258.54L-237.16,-265.72L-208.45,-267.37L-208.04,-260.20L-200.86,-260.61L-200.45,-253.44L-193.27,-253.85L-196.17,-304.08L-174.64,-305.32L-166.37,-161.81L-187.89,-160.57L-188.72,-174.92L-195.90,-174.50L-195.48,-167.33L-202.66,-166.92L-202.25,-159.74L-230.95,-158.08L-231.36,-165.26L-245.71,-164.43L-246.13,-171.61L-253.30,-171.19L-254.13,-185.55ZM-239.78,-186.37L-232.60,-186.79L-232.19,-179.61L-203.49,-181.27L-203.90,-188.44L-196.73,-188.86L-197.14,-196.03L-189.96,-196.45L-192.03,-232.32L-199.21,-231.91L-199.62,-239.08L-206.80,-238.67L-207.21,-245.85L-235.91,-244.19L-235.50,-237.02L-242.68,-236.60ZM-75.33,-167.06L-83.60,-310.57L2.50,-315.54L3.74,-294.01L-60.84,-290.29L-58.77,-254.41L5.81,-258.13L7.05,-236.61L-57.53,-232.88L-55.04,-189.83L9.54,-193.55L10.78,-172.03ZM31.77,-202.03L28.87,-252.26L36.05,-252.68L35.22,-267.03L42.40,-267.44L41.98,-274.62L56.34,-275.45L55.92,-282.62L84.62,-284.28L85.04,-277.10L92.21,-277.52L92.63,-270.34L99.80,-270.75L98.98,-285.10L120.50,-286.35L126.71,-178.71L105.18,-177.47L104.36,-191.82L97.18,-191.41L97.59,-184.23L90.42,-183.82L90.83,-176.64L62.13,-174.99L61.72,-182.16L47.36,-181.34L46.95,-188.51L39.78,-188.10L38.95,-202.45ZM53.30,-203.28L60.47,-203.69L60.89,-196.51L89.59,-198.17L89.18,-205.35L96.35,-205.76L95.94,-212.93L103.11,-213.35L101.04,-249.23L93.87,-248.81L93.46,-255.99L86.28,-255.57L85.87,-262.75L57.16,-261.09L57.58,-253.92L50.40,-253.51ZM150.03,-180.06L143.82,-287.69L165.35,-288.93L166.18,-274.58L173.35,-275.00L172.94,-282.17L180.11,-282.58L179.70,-289.76L208.40,-291.42L208.82,-284.24L215.99,-284.65L216.41,-277.48L223.58,-277.89L224.41,-263.54L217.23,-263.13L217.65,-255.95L210.47,-255.54L210.06,-262.71L202.88,-262.30L202.47,-269.48L180.94,-268.23L181.36,-261.06L174.18,-260.64L174.59,-253.47L167.42,-253.05L171.56,-181.30ZM239.47,-271.61L238.23,-293.14L252.58,-293.96L250.92,-322.67L272.45,-323.91L274.10,-295.21L302.81,-296.86L304.05,-275.33L275.35,-273.68L280.31,-187.57L258.79,-186.33L253.82,-272.44ZM329.20,-190.39L320.92,-333.90L342.45,-335.14L345.34,-284.92L352.52,-285.33L352.10,-292.50L359.28,-292.92L358.87,-300.09L387.57,-301.75L387.98,-294.57L402.33,-295.40L402.75,-288.23L409.92,-288.64L410.75,-274.29L417.93,-274.70L422.48,-195.77L400.95,-194.53L396.40,-273.46L389.22,-273.05L388.81,-280.22L360.11,-278.57L360.52,-271.39L353.35,-270.98L353.76,-263.80L346.58,-263.39L350.72,-191.63Z" fill="#ffffff" stroke="#000000"/>
    <path d="M-583.34,-129.02L-592.55,-270.91L-521.61,-275.51L-521.15,-268.42L-514.05,-268.88L-513.59,-261.78L-506.50,-262.24L-506.04,-255.15L-498.94,-255.61L-496.64,-220.14L-503.74,-219.68L-502.82,-205.49L-495.72,-205.95L-495.26,-198.85L-488.17,-199.32L-485.40,-156.75L-492.50,-156.29L-492.04,-149.19L-499.13,-148.73L-498.67,-141.64L-505.77,-141.18L-505.31,-134.08ZM-563.44,-151.68L-513.78,-154.91L-514.24,-162.00L-507.15,-162.46L-508.99,-190.84L-516.08,-190.38L-516.54,-197.47L-566.20,-194.25ZM-567.59,-215.53L-525.02,-218.30L-525.48,-225.39L-518.39,-225.85L-519.77,-247.13L-526.86,-246.67L-527.32,-253.77L-569.89,-251.01ZM-462.99,-151.08L-468.98,-243.31L-447.70,-244.69L-442.63,-166.65L-435.54,-167.11L-435.08,-160.02L-413.79,-161.40L-414.25,-168.49L-407.16,-168.95L-407.62,-176.05L-400.53,-176.51L-405.13,-247.45L-383.85,-248.83L-376.94,-142.42L-398.22,-141.03L-399.14,-155.22L-406.24,-154.76L-405.78,-147.67L-412.87,-147.21L-412.41,-140.11L-447.88,-137.81L-448.34,-144.91L-455.44,-144.44L-455.90,-151.54ZM-353.00,-143.97L-359.90,-250.39L-338.62,-251.77L-331.71,-145.35ZM-360.82,-264.58L-362.21,-285.86L-340.92,-287.24L-339.54,-265.96ZM-306.00,-147.02L-315.20,-288.91L-293.92,-290.29L-284.71,-148.40ZM-265.05,-178.17L-268.27,-227.84L-261.18,-228.30L-262.10,-242.49L-255.00,-242.95L-255.46,-250.04L-241.28,-250.96L-241.74,-258.06L-213.36,-259.90L-212.90,-252.80L-205.80,-253.26L-205.34,-246.17L-198.25,-246.63L-201.47,-296.29L-180.19,-297.67L-170.98,-155.78L-192.26,-154.40L-193.18,-168.59L-200.28,-168.13L-199.82,-161.04L-206.91,-160.58L-206.45,-153.48L-234.83,-151.64L-235.29,-158.73L-249.48,-157.81L-249.94,-164.91L-257.03,-164.45L-257.95,-178.64ZM-243.77,-179.56L-236.67,-180.02L-236.21,-172.92L-207.83,-174.76L-208.29,-181.86L-201.20,-182.32L-201.66,-189.41L-194.56,-189.87L-196.87,-225.35L-203.96,-224.89L-204.42,-231.98L-211.52,-231.52L-211.98,-238.61L-240.35,-236.77L-239.89,-229.68L-246.99,-229.22ZM-80.97,-161.63L-90.18,-303.51L-5.04,-309.04L-3.66,-287.76L-67.51,-283.61L-65.21,-248.14L-1.36,-252.28L0.02,-231.00L-63.83,-226.86L-61.07,-184.29L2.78,-188.43L4.16,-167.15ZM24.71,-196.98L21.49,-246.64L28.59,-247.10L27.67,-261.29L34.76,-261.75L34.30,-268.85L48.49,-269.77L48.03,-276.86L76.41,-278.70L76.87,-271.61L83.96,-272.07L84.42,-264.98L91.52,-265.44L90.59,-279.63L111.88,-281.01L118.78,-174.59L97.50,-173.21L96.58,-187.40L89.49,-186.94L89.95,-179.84L82.85,-179.38L83.31,-172.29L54.93,-170.45L54.47,-177.54L40.29,-176.62L39.82,-183.71L32.73,-183.25L31.81,-197.44ZM46.00,-198.36L53.09,-198.82L53.55,-191.73L81.93,-193.57L81.47,-200.67L88.56,-201.13L88.10,-208.22L95.20,-208.68L92.90,-244.15L85.80,-243.69L85.34,-250.79L78.25,-250.33L77.79,-257.42L49.41,-255.58L49.87,-248.48L42.77,-248.02ZM141.84,-176.09L134.93,-282.50L156.22,-283.88L157.14,-269.70L164.23,-270.16L163.77,-277.25L170.87,-277.71L170.41,-284.81L198.78,-286.65L199.25,-279.55L206.34,-280.01L206.80,-272.92L213.89,-273.38L214.82,-259.19L207.72,-258.73L208.18,-251.64L201.09,-251.18L200.63,-258.27L193.53,-257.81L193.07,-264.90L171.79,-263.52L172.25,-256.43L165.15,-255.97L165.61,-248.87L158.52,-248.41L163.12,-177.47ZM229.65,-267.28L228.27,-288.56L242.46,-289.48L240.62,-317.86L261.90,-319.24L263.74,-290.86L292.12,-292.71L293.50,-271.42L265.12,-269.58L270.65,-184.45L249.37,-183.07L243.84,-268.20ZM318.98,-187.58L309.77,-329.47L331.06,-330.85L334.28,-281.19L341.37,-281.65L340.91,-288.75L348.01,-289.21L347.55,-296.30L375.92,-298.14L376.38,-291.05L390.57,-291.97L391.03,-284.88L398.13,-285.34L399.05,-271.15L406.14,-271.61L411.21,-193.57L389.93,-192.19L384.86,-270.23L377.77,-269.77L377.31,-276.86L348.93,-275.02L349.39,-267.92L342.29,-267.46L342.75,-260.37L335.66,-259.91L340.26,-188.97Z" fill="#ffffff" stroke="#000000"/>
    <path d="M-583.03,-120.36L-593.15,-260.62L-523.02,-265.68L-522.51,-258.67L-515.50,-259.17L-514.99,-252.16L-507.98,-252.67L-507.47,-245.65L-500.46,-246.16L-497.93,-211.09L-504.94,-210.59L-503.93,-196.56L-496.92,-197.07L-496.41,-190.06L-489.40,-190.56L-486.36,-148.48L-493.38,-147.98L-492.87,-140.96L-499.88,-140.46L-499.38,-133.45L-506.39,-132.94L-505.89,-125.93ZM-563.51,-142.92L-514.42,-146.46L-514.92,-153.47L-507.91,-153.98L-509.93,-182.03L-516.95,-181.52L-517.45,-188.54L-566.54,-185.00ZM-568.06,-206.04L-525.98,-209.07L-526.49,-216.08L-519.48,-216.59L-520.99,-237.63L-528.01,-237.12L-528.51,-244.14L-570.59,-241.10ZM-464.16,-143.04L-470.74,-234.20L-449.70,-235.72L-444.14,-158.58L-437.12,-159.09L-436.62,-152.07L-415.58,-153.59L-416.08,-160.60L-409.07,-161.11L-409.58,-168.12L-402.56,-168.63L-407.62,-238.76L-386.58,-240.28L-378.99,-135.08L-400.03,-133.56L-401.05,-147.59L-408.06,-147.08L-407.55,-140.07L-414.57,-139.56L-414.06,-132.55L-449.12,-130.02L-449.63,-137.03L-456.64,-136.53L-457.15,-143.54ZM-355.33,-136.79L-362.91,-241.98L-341.87,-243.50L-334.29,-138.31ZM-363.93,-256.01L-365.44,-277.05L-344.40,-278.57L-342.89,-257.53ZM-308.86,-140.14L-318.98,-280.40L-297.94,-281.92L-287.82,-141.66ZM-268.59,-171.24L-272.13,-220.33L-265.12,-220.84L-266.13,-234.87L-259.12,-235.37L-259.62,-242.39L-245.60,-243.40L-246.10,-250.41L-218.05,-252.43L-217.55,-245.42L-210.53,-245.93L-210.03,-238.91L-203.01,-239.42L-206.55,-288.51L-185.52,-290.03L-175.40,-149.77L-196.44,-148.25L-197.45,-162.28L-204.46,-161.77L-203.96,-154.76L-210.97,-154.25L-210.46,-147.24L-238.51,-145.21L-239.02,-152.23L-253.05,-151.22L-253.55,-158.23L-260.57,-157.72L-261.58,-171.75ZM-247.55,-172.76L-240.54,-173.27L-240.03,-166.25L-211.98,-168.28L-212.49,-175.29L-205.47,-175.80L-205.98,-182.81L-198.97,-183.32L-201.50,-218.38L-208.51,-217.87L-209.01,-224.89L-216.03,-224.38L-216.53,-231.39L-244.59,-229.37L-244.08,-222.36L-251.09,-221.85ZM-86.42,-156.19L-96.54,-296.45L-12.38,-302.52L-10.86,-281.48L-73.98,-276.93L-71.45,-241.86L-8.33,-246.41L-6.82,-225.37L-69.93,-220.82L-66.90,-178.74L-3.78,-183.30L-2.26,-162.26ZM17.85,-191.91L14.31,-241.00L21.32,-241.50L20.31,-255.53L27.32,-256.04L26.81,-263.05L40.84,-264.06L40.33,-271.07L68.39,-273.10L68.89,-266.08L75.91,-266.59L76.41,-259.58L83.42,-260.08L82.41,-274.11L103.45,-275.63L111.04,-170.43L90.00,-168.91L88.99,-182.94L81.98,-182.43L82.48,-175.42L75.47,-174.91L75.98,-167.90L47.92,-165.88L47.42,-172.89L33.39,-171.88L32.89,-178.89L25.87,-178.39L24.86,-192.41ZM38.89,-193.42L45.90,-193.93L46.41,-186.92L74.46,-188.94L73.95,-195.95L80.97,-196.46L80.46,-203.47L87.47,-203.98L84.94,-239.04L77.93,-238.54L77.42,-245.55L70.41,-245.05L69.90,-252.06L41.85,-250.03L42.36,-243.02L35.35,-242.52ZM133.83,-172.08L126.24,-277.27L147.28,-278.79L148.30,-264.76L155.31,-265.27L154.80,-272.28L161.82,-272.79L161.31,-279.80L189.36,-281.82L189.87,-274.81L196.88,-275.32L197.39,-268.30L204.40,-268.81L205.41,-254.78L198.40,-254.28L198.90,-247.27L191.89,-246.76L191.39,-253.77L184.37,-253.27L183.87,-260.28L162.83,-258.76L163.33,-251.75L156.32,-251.24L156.83,-244.23L149.81,-243.72L154.87,-173.59ZM220.03,-262.89L218.51,-283.93L232.54,-284.94L230.51,-312.99L251.55,-314.51L253.57,-286.46L281.63,-288.48L283.14,-267.44L255.09,-265.42L261.16,-181.26L240.12,-179.74L234.05,-263.90ZM308.94,-184.71L298.82,-324.97L319.86,-326.49L323.40,-277.39L330.41,-277.90L329.91,-284.91L336.92,-285.42L336.42,-292.43L364.47,-294.46L364.97,-287.44L379.00,-288.46L379.51,-281.44L386.52,-281.95L387.53,-267.92L394.54,-268.43L400.11,-191.28L379.07,-189.77L373.50,-266.91L366.49,-266.40L365.99,-273.42L337.93,-271.39L338.44,-264.38L331.43,-263.87L331.93,-256.86L324.92,-256.36L329.98,-186.23Z" fill="#ffffff" stroke="#000000"/>
    <path d="M-913,471.81L-913,468.25L-892.81,468.25L-892.81,471.81L-901.13,471.81L-901.13,492L-904.69,492L-904.69,471.81ZM-891.03,487.25L-891.03,478.94L-889.84,478.94L-889.84,476.56L-888.66,476.56L-888.66,475.38L-886.28,475.38L-886.28,474.19L-881.53,474.19L-881.53,475.38L-879.16,475.38L-879.16,476.56L-877.97,476.56L-877.97,478.94L-876.78,478.94L-876.78,483.69L-887.47,483.69L-887.47,487.25L-886.28,487.25L-886.28,488.44L-881.53,488.44L-881.53,487.25L-880.34,487.25L-880.34,486.06L-876.78,486.06L-876.78,488.44L-877.97,488.44L-877.97,489.63L-879.16,489.63L-879.16,490.81L-881.53,490.81L-881.53,492L-886.28,492L-886.28,490.81L-888.66,490.81L-888.66,489.63L-889.84,489.63L-889.84,487.25ZM-887.47,481.31L-880.34,481.31L-880.34,478.94L-881.53,478.94L-881.53,477.75L-886.28,477.75L-886.28,478.94L-887.47,478.94ZM-873.26,492L-873.26,474.19L-869.69,474.19L-869.69,476.56L-868.51,476.56L-868.51,475.38L-867.32,475.38L-867.32,474.19L-862.57,474.19L-862.57,475.38L-861.38,475.38L-861.38,476.56L-860.19,476.56L-860.19,478.94L-861.38,478.94L-861.38,480.13L-862.57,480.13L-862.57,478.94L-863.76,478.94L-863.76,477.75L-867.32,477.75L-867.32,478.94L-868.51,478.94L-868.51,480.13L-869.69,480.13L-869.69,492ZM-857.15,492L-857.15,474.19L-853.59,474.19L-853.59,476.56L-852.40,476.56L-852.40,475.38L-851.21,475.38L-851.21,474.19L-847.65,474.19L-847.65,475.38L-846.46,475.38L-846.46,476.56L-844.09,476.56L-844.09,475.38L-842.90,475.38L-842.90,474.19L-838.15,474.19L-838.15,475.38L-836.96,475.38L-836.96,476.56L-835.78,476.56L-835.78,478.94L-834.59,478.94L-834.59,492L-838.15,492L-838.15,478.94L-839.34,478.94L-839.34,477.75L-842.90,477.75L-842.90,478.94L-844.09,478.94L-844.09,492L-847.65,492L-847.65,478.94L-848.84,478.94L-848.84,477.75L-851.21,477.75L-851.21,478.94L-852.40,478.94L-852.40,480.13L-853.59,480.13L-853.59,492ZM-830.69,492L-830.69,474.19L-827.13,474.19L-827.13,492ZM-830.69,471.81L-830.69,468.25L-827.13,468.25L-827.13,471.81ZM-822.97,492L-822.97,474.19L-819.41,474.19L-819.41,476.56L-818.22,476.56L-818.22,475.38L-817.04,475.38L-817.04,474.19L-813.47,474.19L-813.47,475.38L-811.10,475.38L-811.10,476.56L-809.91,476.56L-809.91,478.94L-808.72,478.94L-808.72,492L-812.29,492L-812.29,478.94L-813.47,478.94L-813.47,477.75L-817.04,477.75L-817.04,478.94L-818.22,478.94L-818.22,480.13L-819.41,480.13L-819.41,492ZM-805.38,487.25L-805.38,478.94L-804.20,478.94L-804.20,476.56L-803.01,476.56L-803.01,475.38L-800.63,475.38L-800.63,474.19L-795.88,474.19L-795.88,475.38L-794.70,475.38L-794.70,476.56L-793.51,476.56L-793.51,474.19L-789.95,474.19L-789.95,492L-793.51,492L-793.51,489.63L-794.70,489.63L-794.70,490.81L-795.88,490.81L-795.88,492L-800.63,492L-800.63,490.81L-803.01,490.81L-803.01,489.63L-804.20,489.63L-804.20,487.25ZM-801.82,487.25L-800.63,487.25L-800.63,488.44L-795.88,488.44L-795.88,487.25L-794.70,487.25L-794.70,486.06L-793.51,486.06L-793.51,480.13L-794.70,480.13L-794.70,478.94L-795.88,478.94L-795.88,477.75L-800.63,477.75L-800.63,478.94L-801.82,478.94ZM-785.94,492L-785.94,468.25L-782.38,468.25L-782.38,492ZM-778.89,483.69L-778.89,480.13L-765.82,480.13L-765.82,483.69ZM-762.89,484.88L-762.89,475.38L-761.71,475.38L-761.71,473L-760.52,473L-760.52,471.81L-759.33,471.81L-759.33,470.63L-758.14,470.63L-758.14,469.44L-754.58,469.44L-754.58,468.25L-748.64,468.25L-748.64,469.44L-745.08,469.44L-745.08,470.63L-743.89,470.63L-743.89,473L-742.71,473L-742.71,474.19L-741.52,474.19L-741.52,475.38L-746.27,475.38L-746.27,474.19L-747.46,474.19L-747.46,473L-749.83,473L-749.83,471.81L-753.39,471.81L-753.39,473L-755.77,473L-755.77,474.19L-756.96,474.19L-756.96,475.38L-758.14,475.38L-758.14,477.75L-759.33,477.75L-759.33,482.50L-758.14,482.50L-758.14,484.88L-756.96,484.88L-756.96,486.06L-755.77,486.06L-755.77,487.25L-753.39,487.25L-753.39,488.44L-749.83,488.44L-749.83,487.25L-747.46,487.25L-747.46,486.06L-746.27,486.06L-746.27,484.88L-745.08,484.88L-745.08,482.50L-752.21,482.50L-752.21,478.94L-741.52,478.94L-741.52,486.06L-742.71,486.06L-742.71,487.25L-743.89,487.25L-743.89,489.63L-745.08,489.63L-745.08,490.81L-748.64,490.81L-748.64,492L-754.58,492L-754.58,490.81L-758.14,490.81L-758.14,489.63L-759.33,489.63L-759.33,488.44L-760.52,488.44L-760.52,487.25L-761.71,487.25L-761.71,484.88ZM-737.81,492L-737.81,474.19L-734.24,474.19L-734.24,476.56L-733.06,476.56L-733.06,475.38L-731.87,475.38L-731.87,474.19L-727.12,474.19L-727.12,475.38L-725.93,475.38L-725.93,476.56L-724.74,476.56L-724.74,478.94L-725.93,478.94L-725.93,480.13L-727.12,480.13L-727.12,478.94L-728.31,478.94L-728.31,477.75L-731.87,477.75L-731.87,478.94L-733.06,478.94L-733.06,480.13L-734.24,480.13L-734.24,492ZM-722.11,487.25L-722.11,478.94L-720.92,478.94L-720.92,476.56L-719.73,476.56L-719.73,475.38L-717.36,475.38L-717.36,474.19L-712.61,474.19L-712.61,475.38L-710.23,475.38L-710.23,476.56L-709.05,476.56L-709.05,478.94L-707.86,478.94L-707.86,487.25L-709.05,487.25L-709.05,489.63L-710.23,489.63L-710.23,490.81L-712.61,490.81L-712.61,492L-717.36,492L-717.36,490.81L-719.73,490.81L-719.73,489.63L-720.92,489.63L-720.92,487.25ZM-718.55,487.25L-717.36,487.25L-717.36,488.44L-712.61,488.44L-712.61,487.25L-711.42,487.25L-711.42,478.94L-712.61,478.94L-712.61,477.75L-717.36,477.75L-717.36,478.94L-718.55,478.94ZM-704.85,477.75L-704.85,474.19L-702.48,474.19L-702.48,469.44L-698.92,469.44L-698.92,474.19L-694.17,474.19L-694.17,477.75L-698.92,477.75L-698.92,492L-702.48,492L-702.48,477.75ZM-691.38,487.25L-691.38,478.94L-690.20,478.94L-690.20,476.56L-689.01,476.56L-689.01,475.38L-686.63,475.38L-686.63,474.19L-681.88,474.19L-681.88,475.38L-679.51,475.38L-679.51,476.56L-678.32,476.56L-678.32,478.94L-677.13,478.94L-677.13,483.69L-687.82,483.69L-687.82,487.25L-686.63,487.25L-686.63,488.44L-681.88,488.44L-681.88,487.25L-680.70,487.25L-680.70,486.06L-677.13,486.06L-677.13,488.44L-678.32,488.44L-678.32,489.63L-679.51,489.63L-679.51,490.81L-681.88,490.81L-681.88,492L-686.63,492L-686.63,490.81L-689.01,490.81L-689.01,489.63L-690.20,489.63L-690.20,487.25ZM-687.82,481.31L-680.70,481.31L-680.70,478.94L-681.88,478.94L-681.88,477.75L-686.63,477.75L-686.63,478.94L-687.82,478.94ZM-673.79,489.63L-673.79,487.25L-672.61,487.25L-672.61,486.06L-671.42,486.06L-671.42,487.25L-670.23,487.25L-670.23,488.44L-669.04,488.44L-669.04,489.63L-666.67,489.63L-666.67,488.44L-665.48,488.44L-665.48,486.06L-666.67,486.06L-666.67,484.88L-667.86,484.88L-667.86,483.69L-670.23,483.69L-670.23,482.50L-671.42,482.50L-671.42,481.31L-672.61,481.31L-672.61,480.13L-673.79,480.13L-673.79,476.56L-672.61,476.56L-672.61,475.38L-671.42,475.38L-671.42,474.19L-664.29,474.19L-664.29,475.38L-663.11,475.38L-663.11,478.94L-665.48,478.94L-665.48,477.75L-666.67,477.75L-666.67,476.56L-669.04,476.56L-669.04,477.75L-670.23,477.75L-670.23,478.94L-669.04,478.94L-669.04,480.13L-667.86,480.13L-667.86,481.31L-665.48,481.31L-665.48,482.50L-664.29,482.50L-664.29,483.69L-663.11,483.69L-663.11,484.88L-661.92,484.88L-661.92,489.63L-663.11,489.63L-663.11,490.81L-664.29,490.81L-664.29,492L-671.42,492L-671.42,490.81L-672.61,490.81L-672.61,489.63ZM-658.76,487.25L-658.76,478.94L-657.58,478.94L-657.58,476.56L-656.39,476.56L-656.39,475.38L-654.01,475.38L-654.01,474.19L-649.26,474.19L-649.26,475.38L-648.08,475.38L-648.08,476.56L-646.89,476.56L-646.89,474.19L-643.33,474.19L-643.33,499.13L-646.89,499.13L-646.89,489.63L-648.08,489.63L-648.08,490.81L-649.26,490.81L-649.26,492L-654.01,492L-654.01,490.81L-656.39,490.81L-656.39,489.63L-657.58,489.63L-657.58,487.25ZM-655.20,487.25L-654.01,487.25L-654.01,488.44L-649.26,488.44L-649.26,487.25L-648.08,487.25L-648.08,486.06L-646.89,486.06L-646.89,480.13L-648.08,480.13L-648.08,478.94L-649.26,478.94L-649.26,477.75L-654.01,477.75L-654.01,478.94L-655.20,478.94ZM-639.28,489.63L-639.28,474.19L-635.72,474.19L-635.72,487.25L-634.53,487.25L-634.53,488.44L-630.97,488.44L-630.97,487.25L-629.78,487.25L-629.78,486.06L-628.59,486.06L-628.59,474.19L-625.03,474.19L-625.03,492L-628.59,492L-628.59,489.63L-629.78,489.63L-629.78,490.81L-630.97,490.81L-630.97,492L-636.91,492L-636.91,490.81L-638.09,490.81L-638.09,489.63ZM-621.58,487.25L-621.58,478.94L-620.39,478.94L-620.39,476.56L-619.21,476.56L-619.21,475.38L-616.83,475.38L-616.83,474.19L-612.08,474.19L-612.08,475.38L-609.71,475.38L-609.71,476.56L-608.52,476.56L-608.52,478.94L-607.33,478.94L-607.33,483.69L-618.02,483.69L-618.02,487.25L-616.83,487.25L-616.83,488.44L-612.08,488.44L-612.08,487.25L-610.89,487.25L-610.89,486.06L-607.33,486.06L-607.33,488.44L-608.52,488.44L-608.52,489.63L-609.71,489.63L-609.71,490.81L-612.08,490.81L-612.08,492L-616.83,492L-616.83,490.81L-619.21,490.81L-619.21,489.63L-620.39,489.63L-620.39,487.25ZM-618.02,481.31L-610.89,481.31L-610.89,478.94L-612.08,478.94L-612.08,477.75L-616.83,477.75L-616.83,478.94L-618.02,478.94Z"/>
</svg>