<?xml version="1.0"?>
<svg xmlns="http://www.w3.org/2000/svg" width="1920" height="1080" viewBox="-960 -540 1920 1080">
    <path d="M-626.50,-274.25C-661.75,-215.50 -693.50,-221 -793.50,-221.50C-794.75,-228 -796,-237.75 -796,-252.25L-796,-296.75L-647.25,-296.75L-647.25,-308.25L-796,-308.25L-796,-342.50C-796,-357.25 -794.75,-367 -793.50,-373.50C-702.25,-374 -670,-375.25 -636.50,-320.50L-627.25,-321.50L-638.25,-385L-857.75,-385C-857.75,-385 -851,-377 -851,-342.75L-851.75,-252.25C-851.75,-218 -857.75,-210 -857.75,-210L-628.25,-209L-617.25,-273.25ZM-356.75,-251.50L-356.75,-283.50C-356.75,-319.75 -376.25,-344.50 -451.50,-344.50C-487.50,-344.50 -537,-332 -561.75,-315.75L-553.50,-279.50L-552.50,-279.50C-540,-286.25 -505.50,-312 -459.50,-312C-431.25,-312 -406.75,-300.25 -406.75,-284.75L-406.75,-277.50C-420.25,-279.25 -460.25,-280.25 -476.25,-280.25C-528.25,-280.25 -574.75,-263.50 -574.75,-236.50C-574.75,-220.25 -558,-205 -502.50,-205C-482.50,-205 -432.25,-229.25 -406.75,-245.50L-406.75,-207.75L-349.75,-216L-349.75,-216.75C-351.75,-218.50 -356.75,-225.25 -356.75,-251.50ZM-491.25,-234.75C-507.50,-234.75 -520,-242.50 -520,-248.75C-520,-262.75 -500.50,-270.25 -406.75,-270.25L-406.75,-252.75C-443,-236.75 -471,-234.75 -491.25,-234.75ZM-174,-341C-187.25,-339.75 -219.75,-319.75 -245.25,-298.75L-245.25,-342.25L-307.25,-320.50C-307.25,-320.50 -295.25,-318 -295.25,-290.75L-295.25,-238.25C-295.25,-217.75 -300,-209.25 -300.25,-209.25L-239.50,-209.25C-242,-219.75 -245.25,-230.25 -245.25,-240.75L-245.25,-286.50C-211.25,-308.25 -164.75,-308.50 -130.50,-285.50L-128.50,-284.75L-113,-335C-129,-341.25 -151.75,-343 -174,-341ZM94.50,-261.50C81.25,-243.75 59,-238.25 44.25,-238.25C3,-238.25 -12.25,-253.50 -12.25,-283.50L-12.25,-323L83.75,-317.75L88.25,-349L-12.25,-341.50L-12.25,-374.75L-15.25,-374.75C-30.75,-355.75 -72.25,-337.50 -106,-334.25L-110,-334L-110,-328.25L-62.25,-325.75L-62.25,-273.75C-62.25,-227.75 -33.75,-205 20,-205C44.75,-205 65,-209.50 81.50,-221.75L95,-261.25ZM305,-210L362.75,-210C362.75,-210 358,-215.50 357,-252.25L357,-283.50C357,-322.25 329.25,-343.75 267,-343.25C261.75,-343.25 216.50,-327.75 188.25,-304L188.50,-406.25L128,-385L128,-384C131.25,-382.25 138.50,-376 138.50,-354.75L138.25,-269.75C138,-215.50 136.25,-210 136.25,-210L194,-210C194,-210 188.25,-215.50 188.25,-252.25L188.25,-293.75C209.25,-308.75 231.75,-311.75 248,-311.75C293.50,-311.75 307,-293 307,-269L307,-264.75C307,-218.75 305,-210 305,-210ZM592.50,-325.75C569.25,-338.50 526.25,-343.75 499.50,-343.75C442,-343.75 410,-328.50 410,-307.75C410,-288 437.25,-277.25 485,-266.25L502.25,-262.25C539.50,-253.50 545.75,-248.50 545.75,-236C545.75,-223.75 529.25,-217.75 511.50,-217.75C475,-217.75 436.25,-241.75 412.25,-275.25L411.50,-275.25L397.75,-227C422.50,-213.75 464.25,-205 499.75,-205C534.75,-205 596.75,-217.25 596.75,-248C596.75,-267 583,-279.50 520.75,-294L504.75,-297.75C468.75,-306.25 451.75,-313.50 451.75,-321.50C451.75,-330.75 458.75,-335 475.25,-335C510.75,-335 557.50,-309.75 568.75,-290.25L569.75,-290.25ZM811.75,-261.50C798.50,-243.75 776.25,-238.25 761.50,-238.25C720.25,-238.25 705,-253.50 705,-283.50L705,-323L801,-317.75L805.50,-349L705,-341.50L705,-374.75L702,-374.75C686.50,-355.75 645,-337.50 611.25,-334.25L607.25,-334L607.25,-328.25L655,-325.75L655,-273.75C655,-227.75 683.50,-205 737.25,-205C762,-205 782.25,-209.50 798.75,-221.75L812.25,-261.25ZM-799.75,-41C-813,-39.75 -845.50,-19.75 -871,1.25L-871,-42.25L-933,-20.50C-933,-20.50 -921,-18 -921,9.25L-921,61.75C-921,82.25 -925.75,90.75 -926,90.75L-865.25,90.75C-867.75,80.25 -871,69.75 -871,59.25L-871,13.50C-837,-8.25 -790.50,-8.50 -756.25,14.50L-754.25,15.25L-738.75,-35C-754.75,-41.25 -777.50,-43 -799.75,-41ZM-609,95C-527.25,95 -472.50,53.75 -472.50,15.50C-472.50,-18.50 -512.50,-43.75 -577.25,-43.75C-659,-43.75 -713.75,-2.50 -713.75,35.75C-713.75,69.75 -671.25,95 -609,95ZM-574.50,75C-631,75 -663.25,41 -663.25,13.50C-663.25,-12.75 -635.75,-23.75 -611.75,-23.75C-569.25,-23.75 -522.75,-0.50 -523,37.50C-523,63.75 -550.50,75 -574.50,75ZM-263.25,90L-205.50,90C-205.50,90 -210.25,84.50 -211.25,47.75L-211.25,16.50C-211.25,-22.25 -238.25,-43.75 -300.50,-43.25C-305.75,-43.25 -350.50,-28.25 -378.50,-4.75L-378.50,-42.50L-434.75,-27.75C-433.75,-27.50 -428.25,-23.50 -428.25,1.50L-428.50,30.25C-428.50,84.50 -430.50,90 -430.50,90L-372.75,90C-372.75,90 -378.50,84.50 -378.50,47.75L-378.50,6C-357.75,-8.75 -335.75,-11.75 -319.50,-11.75C-274,-11.75 -261.25,7 -261.25,31L-261.25,35.25C-261.25,81.25 -263.25,90 -263.25,90ZM50,48.50L50,16.50C50,-19.75 30.50,-44.50 -44.75,-44.50C-80.75,-44.50 -130.25,-32 -155,-15.75L-146.75,20.50L-145.75,20.50C-133.25,13.75 -98.75,-12 -52.75,-12C-24.50,-12 0,-0.25 0,15.25L0,22.50C-13.50,20.75 -53.50,19.75 -69.50,19.75C-121.50,19.75 -168,36.50 -168,63.50C-168,79.75 -151.25,95 -95.75,95C-75.75,95 -25.50,70.75 0,54.50L0,92.25L57,84L57,83.25C55,81.50 50,74.75 50,48.50ZM-84.50,65.25C-100.75,65.25 -113.25,57.50 -113.25,51.25C-113.25,37.25 -93.75,29.75 0,29.75L0,47.25C-36.25,63.25 -64.25,65.25 -84.50,65.25ZM318.50,49.75L318.75,24.75C318.75,-29.50 320.75,-35 320.75,-35L263,-35C263,-35 268.75,-29.50 268.75,7.25L268.75,45.75C248.50,60 227,63 211,63C165.50,63 152.75,48 152.75,24L152.75,19.75C152.75,-26.25 154.75,-35 154.75,-35L97,-35C97,-35 101.75,-29.50 102.75,7.25L102.75,34.75C102.75,73.50 129.75,95 192,94.50C197.25,94.50 240.75,79.50 268.75,56L268.75,93.75L324.50,79.25L324.50,78.75C322.75,77.75 318.50,72 318.50,49.75ZM544.50,38.50C531.25,56.25 509,61.75 494.25,61.75C453,61.75 437.75,46.50 437.75,16.50L437.75,-23L533.75,-17.75L538.25,-49L437.75,-41.50L437.75,-74.75L434.75,-74.75C419.25,-55.75 377.75,-37.50 344,-34.25L340,-34L340,-28.25L387.75,-25.75L387.75,26.25C387.75,72.25 416.25,95 470,95C494.75,95 515,90.50 531.50,78.25L545,38.75ZM765.25,-25.75C742,-38.50 699,-43.75 672.25,-43.75C614.75,-43.75 582.75,-28.50 582.75,-7.75C582.75,12 610,22.75 657.75,33.75L675,37.75C712.25,46.50 718.50,51.50 718.50,64C718.50,76.25 702,82.25 684.25,82.25C647.75,82.25 609,58.25 585,24.75L584.25,24.75L570.50,73C595.25,86.25 637,95 672.50,95C707.50,95 769.50,82.75 769.50,52C769.50,33 755.75,20.50 693.50,6L677.50,2.25C641.50,-6.25 624.50,-13.50 624.50,-21.50C624.50,-30.75 631.50,-35 648,-35C683.50,-35 730.25,-9.75 741.50,9.75L742.50,9.75ZM823,36L861.25,36C861.25,6 863.25,-45.50 875.50,-84.75L807,-84.75C819.25,-45.50 823,6 823,36ZM836,92C857.75,92 871.75,79.25 871.75,70.25C871.75,61.50 865,55.75 848,55.75C827.75,55.75 812.50,66.25 812.50,77.50C812.50,84.25 819.25,92 836,92Z" fill="#ffffff" stroke="#000000"/>
    <path d="M-640.89,-231.24C-672.30,-171.13 -704.00,-174.72 -802.86,-169.39C-804.47,-175.74 -806.27,-185.30 -807.12,-199.63L-809.71,-243.61L-662.70,-252.27L-663.37,-263.64L-810.38,-254.97L-812.37,-288.82C-813.23,-303.40 -812.57,-313.11 -811.71,-319.61C-721.56,-325.41 -689.76,-328.53 -653.46,-276.37L-644.38,-277.90L-658.95,-340.01L-875.88,-327.23C-875.88,-327.23 -868.74,-319.72 -866.74,-285.87L-862.22,-196.38C-860.22,-162.54 -865.69,-154.28 -865.69,-154.28L-638.82,-166.66L-631.69,-230.79ZM-372.97,-224.47L-374.83,-256.09C-376.94,-291.92 -397.66,-315.24 -472.03,-310.86C-507.60,-308.76 -555.80,-293.53 -579.31,-276.03L-569.05,-240.68L-568.06,-240.74C-556.10,-248.14 -523.50,-275.60 -478.04,-278.27C-450.12,-279.92 -425.22,-269.73 -424.32,-254.42L-423.90,-247.25C-437.34,-248.19 -476.93,-246.85 -492.74,-245.92C-544.14,-242.89 -589.12,-223.63 -587.54,-196.95C-586.60,-180.89 -569.16,-166.79 -514.31,-170.02C-494.54,-171.19 -446.29,-198.08 -422.04,-215.63L-419.84,-178.32L-363.99,-189.79L-364.03,-190.53C-366.11,-192.14 -371.44,-198.52 -372.97,-224.47ZM-504.92,-200.08C-520.98,-199.13 -533.78,-206.07 -534.15,-212.24C-534.96,-226.08 -516.13,-234.63 -423.48,-240.09L-422.46,-222.79C-457.35,-204.87 -484.91,-201.26 -504.92,-200.08ZM-197.57,-323.56C-210.59,-321.55 -241.55,-299.89 -265.53,-277.66L-268.06,-320.65L-328.07,-295.54C-328.07,-295.54 -316.06,-293.77 -314.48,-266.84L-311.42,-214.95C-310.23,-194.69 -314.43,-186.02 -314.67,-186.00L-254.63,-189.54C-257.72,-199.77 -261.54,-209.96 -262.15,-220.34L-264.81,-265.55C-232.48,-289.02 -186.54,-291.98 -151.35,-271.24L-149.33,-270.62L-136.94,-321.18C-153.11,-326.43 -175.70,-326.83 -197.57,-323.56ZM72.41,-260.63C60.35,-242.31 38.68,-235.58 24.10,-234.72C-16.66,-232.32 -32.62,-246.50 -34.37,-276.15L-36.67,-315.19L58.51,-315.59L61.14,-346.74L-37.75,-333.47L-39.68,-366.33L-42.65,-366.16C-56.86,-346.48 -96.81,-326.03 -129.98,-320.85L-133.91,-320.37L-133.58,-314.69L-86.24,-315.00L-83.22,-263.60C-80.54,-218.14 -51.05,-197.32 2.07,-200.45C26.53,-201.89 46.28,-207.52 61.88,-220.58L72.92,-260.41ZM283.44,-221.99L340.52,-225.35C340.52,-225.35 335.50,-230.51 332.37,-266.77L330.56,-297.65C328.30,-335.95 299.62,-355.58 238.13,-351.46C232.94,-351.16 189.12,-333.20 162.59,-308.09L156.88,-409.15L98.33,-384.63L98.39,-383.64C101.70,-382.10 109.23,-376.35 110.47,-355.34L115.17,-271.33C118.08,-217.70 116.67,-212.16 116.67,-212.16L173.74,-215.52C173.74,-215.52 167.74,-220.62 165.60,-256.94L163.19,-297.96C183.07,-314.00 205.13,-318.28 221.19,-319.22C266.15,-321.87 280.59,-304.13 281.99,-280.41L282.23,-276.21C284.91,-230.75 283.44,-221.99 283.44,-221.99ZM560.84,-353.12C537.12,-364.37 494.31,-367.05 467.88,-365.49C411.05,-362.15 380.31,-345.21 381.52,-324.70C382.67,-305.19 410.23,-296.15 458.06,-288.06L475.34,-285.11C512.66,-278.63 519.13,-274.05 519.86,-261.70C520.57,-249.59 504.62,-242.70 487.07,-241.67C451.00,-239.54 411.31,-261.01 385.64,-292.72L384.90,-292.67L374.12,-244.19C399.35,-232.53 441.12,-226.32 476.20,-228.38C510.79,-230.42 571.35,-246.14 569.56,-276.53C568.46,-295.31 554.14,-306.86 491.78,-317.56L475.74,-320.34C439.67,-326.64 422.45,-332.82 421.98,-340.72C421.44,-349.87 428.11,-354.47 444.42,-355.43C479.51,-357.50 527.18,-335.27 539.43,-316.65L540.42,-316.71ZM781.26,-302.39C769.20,-284.08 747.53,-277.34 732.95,-276.49C692.19,-274.08 676.23,-288.27 674.48,-317.92L672.18,-356.95L767.36,-357.35L769.99,-388.50L671.10,-375.24L669.17,-408.10L666.20,-407.92C651.99,-388.24 612.04,-367.79 578.87,-362.61L574.93,-362.13L575.27,-356.45L622.60,-356.76L625.63,-305.37C628.31,-259.91 657.80,-239.08 710.92,-242.21C735.38,-243.65 755.13,-249.28 770.73,-262.35L781.77,-302.17ZM-798.52,9.36C-811.55,11.37 -842.50,33.03 -866.48,55.27L-869.01,12.28L-929.02,37.38C-929.02,37.38 -917.01,39.15 -915.43,66.08L-912.37,117.97C-911.18,138.23 -915.38,146.91 -915.62,146.92L-855.59,143.38C-858.67,133.15 -862.49,122.96 -863.10,112.59L-865.77,67.37C-833.43,43.90 -787.49,40.94 -752.30,61.68L-750.28,62.30L-737.89,11.74C-754.07,6.50 -776.65,6.09 -798.52,9.36ZM-602.09,132.66C-521.30,127.90 -469.59,83.95 -471.82,46.15C-473.80,12.54 -514.80,-10.08 -578.79,-6.31C-659.58,-1.55 -711.29,42.40 -709.06,80.21C-707.08,113.81 -663.61,136.29 -602.09,132.66ZM-569.16,110.89C-625.00,114.18 -658.85,82.45 -660.45,55.28C-661.98,29.33 -635.44,16.86 -611.72,15.46C-569.72,12.99 -522.41,33.26 -520.45,70.83C-518.92,96.77 -545.44,109.49 -569.16,110.89ZM-260.68,107.59L-203.61,104.23C-203.61,104.23 -208.62,99.07 -211.75,62.81L-213.57,31.92C-215.83,-6.37 -243.76,-26.05 -305.25,-21.93C-310.44,-21.63 -353.79,-4.20 -380.10,20.66L-382.30,-16.65L-437.03,1.20C-436.03,1.39 -430.36,5.03 -428.90,29.73L-427.47,58.16C-424.32,111.78 -425.97,117.33 -425.97,117.33L-368.90,113.96C-368.90,113.96 -374.90,108.86 -377.04,72.54L-379.47,31.28C-359.82,15.50 -338.26,11.25 -322.20,10.31C-277.23,7.66 -263.54,25.44 -262.14,49.16L-261.89,53.36C-259.21,98.82 -260.68,107.59 -260.68,107.59ZM46.48,48.33L44.62,16.71C42.51,-19.12 21.80,-42.44 -52.57,-38.06C-88.15,-35.96 -136.34,-20.73 -159.86,-3.23L-149.59,32.12L-148.60,32.06C-136.64,24.66 -104.05,-2.80 -58.59,-5.47C-30.67,-7.12 -5.77,3.07 -4.87,18.39L-4.44,25.55C-17.89,24.61 -57.48,25.95 -73.29,26.88C-124.68,29.91 -169.66,49.17 -168.09,75.85C-167.14,91.91 -149.70,106.01 -94.85,102.78C-75.09,101.61 -26.84,74.72 -2.58,57.18L-0.38,94.48L55.47,83.01L55.42,82.27C53.35,80.66 48.01,74.28 46.48,48.33ZM-85.47,72.72C-101.53,73.67 -114.33,66.74 -114.69,60.56C-115.51,46.72 -96.67,38.17 -4.02,32.72L-3.00,50.01C-37.90,67.93 -65.45,71.54 -85.47,72.72ZM311.91,33.94L310.70,9.21C307.54,-44.40 309.20,-49.95 309.20,-49.95L252.13,-46.59C252.13,-46.59 258.13,-41.49 260.27,-5.17L262.51,32.88C243.33,48.14 222.25,52.36 206.44,53.29C161.47,55.94 148.00,41.86 146.60,18.14L146.36,13.94C143.68,-31.52 145.14,-40.29 145.14,-40.29L88.07,-36.92C88.07,-36.92 93.09,-31.76 96.21,4.50L97.81,31.67C100.07,69.97 128.01,89.65 189.50,85.53C194.69,85.22 236.80,67.86 263.11,43.01L265.31,80.32L319.56,62.74L319.53,62.25C317.74,61.36 313.21,55.93 311.91,33.94ZM534.61,9.66C522.55,27.97 500.88,34.70 486.30,35.56C445.53,37.96 429.57,23.78 427.83,-5.87L425.53,-44.91L520.71,-45.31L523.34,-76.45L424.45,-63.19L422.51,-96.05L419.55,-95.88C405.34,-76.20 365.39,-55.74 332.22,-50.57L328.28,-50.09L328.62,-44.40L375.95,-44.71L378.98,6.68C381.66,52.14 411.15,72.96 464.27,69.83C488.73,68.39 508.48,62.77 524.08,49.70L535.12,9.88ZM749.03,-66.69C725.31,-77.94 682.51,-80.63 656.07,-79.07C599.25,-75.72 568.51,-58.78 569.72,-38.28C570.87,-18.76 598.42,-9.72 646.26,-1.63L663.54,1.32C700.86,7.80 707.33,12.37 708.06,24.73C708.77,36.83 692.81,43.72 675.27,44.76C639.20,46.88 599.50,25.42 573.83,-6.29L573.09,-6.25L562.31,42.24C587.54,53.89 629.31,60.11 664.40,58.04C698.99,56.00 759.55,40.29 757.76,9.90C756.65,-8.88 742.34,-20.43 679.97,-31.14L663.94,-33.91C627.87,-40.22 610.64,-46.39 610.18,-54.30C609.64,-63.44 616.31,-68.05 632.62,-69.01C667.70,-71.08 715.37,-48.84 727.63,-30.23L728.62,-30.28ZM809.70,-9.03L847.50,-11.26C845.76,-40.91 844.73,-91.92 854.55,-131.42L786.86,-127.43C801.25,-89.36 807.95,-38.68 809.70,-9.03ZM825.81,45.56C847.30,44.29 860.40,30.88 859.87,21.98C859.36,13.33 852.36,8.04 835.56,9.03C815.55,10.21 801.09,21.48 801.74,32.60C802.13,39.27 809.26,46.53 825.81,45.56Z" fill="#ffffff" stroke="#000000"/>
    <path d="M-652.27,-187.59C-679.82,-126.35 -711.35,-128.05 -808.73,-117.03C-810.69,-123.21 -813.03,-132.56 -814.70,-146.67L-819.82,-189.98L-675.05,-207.10L-676.38,-218.29L-821.14,-201.17L-825.09,-234.50C-826.78,-248.86 -826.69,-258.49 -826.22,-264.96C-737.47,-275.95 -706.23,-280.88 -667.33,-231.45L-658.44,-233.49L-676.45,-294.02L-890.07,-268.76C-890.07,-268.76 -882.58,-261.75 -878.64,-228.42L-868.96,-140.25C-865.02,-106.92 -869.93,-98.44 -869.93,-98.44L-646.47,-123.88L-643.15,-187.68ZM-387.13,-196.49L-390.81,-227.63C-394.98,-262.91 -416.81,-284.75 -490.04,-276.09C-525.08,-271.95 -571.81,-254.09 -594.03,-235.43L-581.83,-201.10L-580.86,-201.21C-569.47,-209.22 -538.86,-238.25 -494.09,-243.54C-466.59,-246.80 -441.40,-238.18 -439.61,-223.09L-438.78,-216.04C-452.12,-216.19 -491.16,-212.56 -506.74,-210.72C-557.34,-204.73 -600.67,-183.08 -597.56,-156.80C-595.69,-140.99 -577.64,-128.07 -523.62,-134.46C-504.16,-136.76 -458.04,-166.15 -435.10,-184.90L-430.75,-148.16L-376.23,-162.75L-376.32,-163.48C-378.46,-164.95 -384.11,-170.94 -387.13,-196.49ZM-516.10,-164.71C-531.91,-162.84 -544.97,-168.94 -545.69,-175.03C-547.30,-188.65 -529.19,-198.19 -437.95,-208.98L-435.93,-191.95C-469.37,-172.21 -496.39,-167.04 -516.10,-164.71ZM-219.57,-304.62C-232.32,-301.88 -261.65,-278.68 -284.05,-255.31L-289.06,-297.64L-346.89,-269.34C-346.89,-269.34 -334.93,-268.29 -331.79,-241.77L-325.75,-190.67C-323.39,-170.72 -327.03,-161.90 -327.28,-161.87L-268.15,-168.86C-271.80,-178.80 -276.17,-188.64 -277.38,-198.86L-282.64,-243.38C-252.05,-268.46 -206.83,-274.06 -170.85,-255.62L-168.82,-255.12L-159.51,-305.80C-175.80,-310.05 -198.15,-309.13 -219.57,-304.62ZM50.89,-258.15C40.03,-239.35 19.01,-231.44 4.66,-229.74C-35.49,-224.99 -52.08,-238.08 -55.54,-267.28L-60.08,-305.72L33.95,-311.66L34.74,-342.59L-62.21,-323.72L-66.04,-356.08L-68.96,-355.74C-81.85,-335.46 -120.14,-312.93 -152.62,-305.88L-156.48,-305.18L-155.82,-299.58L-109.06,-302.64L-103.07,-252.03C-97.78,-207.27 -67.43,-188.41 -15.12,-194.59C8.97,-197.44 28.16,-204.15 42.81,-217.97L51.40,-257.97ZM261.68,-232.26L317.88,-238.90C317.88,-238.90 312.62,-243.71 307.42,-279.36L303.83,-309.77C299.37,-347.48 269.89,-365.21 209.36,-357.56C204.25,-356.96 162.00,-336.67 137.24,-310.30L125.71,-409.84L69.28,-382.20L69.39,-381.23C72.76,-379.90 80.53,-374.65 82.98,-353.97L92.52,-271.22C98.52,-218.39 97.45,-212.84 97.45,-212.84L153.65,-219.48C153.65,-219.48 147.42,-224.17 143.19,-259.94L138.42,-300.33C157.13,-317.34 178.68,-322.85 194.49,-324.72C238.78,-329.96 254.07,-313.26 256.83,-289.91L257.32,-285.77C262.62,-241.00 261.68,-232.26 261.68,-232.26ZM528.16,-377.99C504.06,-387.72 461.61,-387.89 435.58,-384.81C379.62,-378.19 350.23,-359.67 352.62,-339.47C354.89,-320.25 382.65,-312.92 430.38,-307.71L447.63,-305.81C484.89,-301.58 491.55,-297.43 492.99,-285.27C494.40,-273.34 479.03,-265.61 461.75,-263.56C426.23,-259.36 385.76,-278.26 358.55,-308.10L357.82,-308.01L349.99,-259.47C375.60,-249.43 417.24,-245.72 451.79,-249.80C485.85,-253.83 544.78,-272.89 541.24,-302.81C539.05,-321.30 524.23,-331.89 461.98,-338.83L445.98,-340.64C409.96,-344.77 392.59,-349.87 391.67,-357.66C390.60,-366.66 396.92,-371.60 412.98,-373.50C447.53,-377.59 495.94,-358.39 509.13,-340.71L510.10,-340.82ZM748.93,-340.69C738.08,-321.89 717.06,-313.98 702.70,-312.28C662.56,-307.54 645.96,-320.62 642.51,-349.82L637.96,-388.26L731.99,-394.20L732.78,-425.13L635.83,-406.27L632.00,-438.63L629.09,-438.28C616.19,-418.01 577.90,-395.47 545.43,-388.42L541.56,-387.72L542.22,-382.12L588.98,-385.18L594.97,-334.58C600.26,-289.81 630.62,-270.95 682.93,-277.13C707.01,-279.98 726.20,-286.69 740.85,-300.51L749.44,-340.51ZM-794.04,59.35C-806.79,62.10 -836.12,85.30 -858.52,108.67L-863.52,66.34L-921.36,94.64C-921.36,94.64 -909.39,95.69 -906.26,122.21L-900.22,173.31C-897.86,193.26 -901.50,202.08 -901.75,202.11L-842.62,195.11C-846.26,185.18 -850.64,175.34 -851.84,165.12L-857.11,120.59C-826.52,95.51 -781.30,89.92 -745.32,108.36L-743.28,108.86L-733.98,58.17C-750.27,53.93 -772.61,54.85 -794.04,59.35ZM-592.75,169.76C-513.19,160.35 -464.65,113.91 -469.05,76.68C-472.96,43.59 -514.80,23.62 -577.81,31.07C-657.37,40.48 -705.91,86.93 -701.51,124.15C-697.60,157.24 -653.33,176.92 -592.75,169.76ZM-561.47,146.33C-616.46,152.83 -651.76,123.45 -654.92,96.69C-657.94,71.14 -632.45,57.27 -609.09,54.51C-567.73,49.62 -519.80,66.89 -515.67,103.90C-512.65,129.45 -538.11,143.56 -561.47,146.33ZM-256.83,125.11L-200.63,118.46C-200.63,118.46 -205.88,113.65 -211.09,78.00L-214.68,47.59C-219.14,9.88 -247.89,-7.94 -308.42,-0.29C-313.53,0.31 -355.35,20.06 -379.90,46.16L-384.24,9.42L-437.29,30.25C-436.29,30.37 -430.47,33.63 -427.60,57.96L-424.53,85.97C-418.29,138.77 -419.60,144.35 -419.60,144.35L-363.40,137.71C-363.40,137.71 -369.63,133.02 -373.86,97.25L-378.66,56.62C-360.16,39.87 -339.10,34.42 -323.28,32.55C-279.00,27.32 -264.44,44.10 -261.67,67.46L-261.19,71.59C-255.89,116.36 -256.83,125.11 -256.83,125.11ZM43.25,48.67L39.57,17.52C35.40,-17.75 13.57,-39.60 -59.66,-30.94C-94.70,-26.80 -141.43,-8.93 -163.65,9.73L-151.45,44.06L-150.48,43.94C-139.09,35.94 -108.47,6.91 -63.71,1.61C-36.21,-1.64 -11.02,6.98 -9.23,22.06L-8.40,29.12C-21.74,28.97 -60.78,32.60 -76.35,34.44C-126.96,40.42 -170.29,62.08 -167.18,88.35C-165.31,104.17 -147.25,117.08 -93.24,110.70C-73.78,108.39 -27.66,79.01 -4.72,60.26L-0.37,97.00L54.15,82.41L54.07,81.68C51.92,80.21 46.28,74.21 43.25,48.67ZM-85.72,80.45C-101.53,82.32 -114.59,76.21 -115.31,70.13C-116.92,56.51 -98.80,46.96 -7.56,36.17L-5.55,53.20C-38.99,72.95 -66.01,78.12 -85.72,80.45ZM304.71,18.98L302.07,-5.37C295.83,-58.17 297.14,-63.75 297.14,-63.75L240.94,-57.11C240.94,-57.11 247.17,-52.42 251.40,-16.65L255.83,20.82C237.76,37.02 217.18,42.41 201.61,44.25C157.33,49.49 143.20,36.36 140.43,13.00L139.94,8.86C134.65,-35.91 135.59,-44.65 135.59,-44.65L79.39,-38.01C79.39,-38.01 84.64,-33.20 89.84,2.45L93.01,29.22C97.47,66.93 126.22,84.74 186.75,77.09C191.85,76.49 232.46,56.89 257.01,30.79L261.35,67.53L313.94,47.00L313.88,46.52C312.07,45.75 307.27,40.64 304.71,18.98ZM523.36,-17.97C512.51,0.83 491.49,8.74 477.13,10.44C436.99,15.18 420.39,2.10 416.94,-27.10L412.39,-65.54L506.43,-71.48L507.21,-102.41L410.26,-83.55L406.44,-115.90L403.52,-115.56C390.62,-95.28 352.33,-72.75 319.86,-65.70L315.99,-65.00L316.66,-59.40L363.41,-62.46L369.40,-11.86C374.69,32.91 405.05,51.77 457.36,45.59C481.44,42.74 500.63,36.03 515.28,22.21L523.88,-17.79ZM730.80,-105.91C706.71,-115.64 664.26,-115.80 638.22,-112.72C582.26,-106.10 552.88,-87.58 555.26,-67.39C557.54,-48.16 585.29,-40.84 633.03,-35.63L650.28,-33.72C687.54,-29.49 694.20,-25.34 695.64,-13.18C697.05,-1.26 681.68,6.48 664.40,8.52C628.88,12.72 588.41,-6.17 561.19,-36.02L560.46,-35.93L552.63,12.61C578.25,22.66 619.89,26.37 654.43,22.28C688.50,18.26 747.43,-0.80 743.89,-30.73C741.70,-49.22 726.88,-59.80 664.63,-66.75L648.63,-68.56C612.61,-72.69 595.23,-77.79 594.31,-85.57C593.25,-94.57 599.57,-99.52 615.63,-101.42C650.18,-105.50 698.58,-86.31 711.78,-68.62L712.75,-68.74ZM794.11,-52.46L831.34,-56.86C827.89,-86.05 823.91,-136.41 831.31,-176.01L764.65,-168.13C781.09,-131.34 790.66,-81.65 794.11,-52.46ZM813.21,0.55C834.38,-1.95 846.54,-15.97 845.50,-24.73C844.49,-33.25 837.26,-38.07 820.72,-36.11C801.01,-33.78 787.38,-21.81 788.67,-10.86C789.45,-4.29 796.91,2.48 813.21,0.55Z" fill="#ffffff" stroke="#000000"/>
    <path d="M-660.64,-143.49C-684.29,-81.38 -715.54,-81.23 -811.12,-64.67C-813.42,-70.66 -816.28,-79.76 -818.75,-93.61L-826.33,-136.10L-684.28,-161.44L-686.24,-172.42L-828.29,-147.08L-834.12,-179.79C-836.64,-193.87 -837.10,-203.40 -837.02,-209.82C-749.97,-225.84 -719.38,-232.53 -678.07,-185.95L-669.40,-188.48L-690.73,-247.25L-900.33,-209.85C-900.33,-209.85 -892.52,-203.36 -886.69,-170.66L-871.98,-84.11C-866.15,-51.40 -870.52,-42.74 -870.52,-42.74L-651.19,-80.88L-651.63,-144.11ZM-399.17,-167.72L-404.62,-198.28C-410.80,-232.90 -433.64,-253.21 -505.49,-240.39C-539.87,-234.26 -585.01,-213.89 -605.88,-194.15L-591.82,-160.94L-590.87,-161.11C-580.08,-169.69 -551.52,-200.15 -507.60,-207.99C-480.62,-212.80 -455.22,-205.76 -452.58,-190.96L-451.35,-184.03C-464.54,-183.40 -502.90,-177.54 -518.18,-174.82C-567.84,-165.96 -609.39,-142.04 -604.79,-116.26C-602.02,-100.74 -583.43,-89.03 -530.43,-98.49C-511.33,-101.90 -467.48,-133.61 -445.89,-153.48L-439.46,-117.43L-386.44,-135.02L-386.57,-135.73C-388.77,-137.06 -394.70,-142.66 -399.17,-167.72ZM-524.75,-128.81C-540.27,-126.05 -553.53,-131.32 -554.59,-137.28C-556.98,-150.65 -539.64,-161.14 -450.11,-177.11L-447.13,-160.40C-479.02,-138.94 -505.42,-132.26 -524.75,-128.81ZM-239.91,-284.32C-252.35,-280.87 -279.97,-256.24 -300.75,-231.84L-308.16,-273.38L-363.66,-242.05C-363.66,-242.05 -351.77,-241.70 -347.13,-215.68L-338.19,-165.55C-334.69,-145.97 -337.78,-137.05 -338.02,-137.00L-280.01,-147.35C-284.18,-156.95 -289.08,-166.43 -290.87,-176.45L-298.66,-220.14C-269.90,-246.70 -225.54,-254.86 -188.91,-238.74L-186.87,-238.36L-180.63,-288.99C-196.98,-292.23 -219.00,-290.02 -239.91,-284.32ZM30.03,-254.15C20.41,-234.94 0.10,-225.90 -13.99,-223.39C-53.38,-216.36 -70.54,-228.32 -75.65,-256.97L-82.38,-294.69L10.19,-306.03L9.16,-336.64L-85.53,-312.36L-91.20,-344.11L-94.06,-343.60C-105.63,-322.81 -142.15,-298.32 -173.82,-289.46L-177.60,-288.54L-176.62,-283.05L-130.60,-288.80L-121.74,-239.14C-113.90,-195.22 -82.81,-178.35 -31.48,-187.51C-7.85,-191.72 10.72,-199.47 24.39,-213.98L30.55,-254.00ZM239.82,-240.83L294.97,-250.67C294.97,-250.67 289.49,-255.12 282.28,-290.04L276.95,-319.88C270.35,-356.88 240.19,-372.69 180.83,-361.60C175.82,-360.71 135.25,-338.20 112.32,-310.71L95.14,-408.39L40.98,-377.79L41.15,-376.84C44.56,-375.72 52.54,-370.99 56.16,-350.69L70.41,-269.48C79.41,-217.64 78.68,-212.09 78.68,-212.09L133.82,-221.92C133.82,-221.92 127.39,-226.20 121.13,-261.29L114.06,-300.92C131.56,-318.82 152.54,-325.52 168.05,-328.29C211.50,-336.04 227.59,-320.43 231.68,-297.52L232.40,-293.46C240.24,-249.53 239.82,-240.83 239.82,-240.83ZM494.64,-400.35C470.26,-408.56 428.31,-406.25 402.76,-401.69C347.86,-391.90 319.90,-371.88 323.43,-352.07C326.80,-333.21 354.65,-327.58 402.12,-325.22L419.28,-324.33C456.34,-322.32 463.16,-318.62 465.29,-306.68C467.37,-294.98 452.64,-286.44 435.69,-283.42C400.83,-277.20 359.74,-293.51 331.12,-321.42L330.40,-321.29L325.49,-272.87C351.38,-264.43 392.74,-263.19 426.64,-269.24C460.06,-275.20 517.18,-297.46 511.94,-326.83C508.71,-344.97 493.45,-354.56 431.53,-357.80L415.61,-358.66C379.79,-360.64 362.32,-364.67 360.96,-372.31C359.38,-381.14 365.34,-386.39 381.10,-389.20C415.00,-395.25 463.94,-379.11 478.01,-362.40L478.96,-362.57ZM714.95,-376.35C705.32,-357.14 685.01,-348.10 670.93,-345.58C631.54,-338.56 614.38,-350.52 609.27,-379.17L602.54,-416.89L695.10,-428.23L694.08,-458.84L599.38,-434.55L593.72,-466.30L590.85,-465.79C579.29,-445.01 542.77,-420.51 511.10,-411.66L507.32,-410.74L508.30,-405.25L554.32,-411.00L563.18,-361.34C571.02,-317.41 602.11,-300.54 653.44,-309.70C677.07,-313.92 695.64,-321.67 709.31,-336.17L715.47,-376.19ZM-786.34,108.76C-798.78,112.21 -826.41,136.85 -847.18,161.24L-854.59,119.71L-910.09,151.04C-910.09,151.04 -898.20,151.38 -893.56,177.40L-884.62,227.54C-881.13,247.11 -884.21,256.04 -884.45,256.08L-826.44,245.73C-830.62,236.13 -835.51,226.66 -837.30,216.63L-845.09,172.94C-816.33,146.38 -771.97,138.22 -735.34,154.35L-733.31,154.72L-727.07,104.10C-743.41,100.86 -765.43,103.06 -786.34,108.76ZM-581.02,206.13C-502.95,192.20 -457.70,143.49 -464.21,106.96C-470.01,74.49 -512.51,57.20 -574.34,68.23C-652.40,82.16 -697.66,130.87 -691.14,167.40C-685.35,199.87 -640.46,216.74 -581.02,206.13ZM-551.48,181.16C-605.43,190.78 -642.02,163.81 -646.71,137.55C-651.18,112.48 -626.79,97.29 -603.87,93.20C-563.29,85.96 -514.93,100.24 -508.69,136.57C-504.22,161.64 -528.56,177.07 -551.48,181.16ZM-251.71,142.45L-196.56,132.61C-196.56,132.61 -202.03,128.17 -209.25,93.25L-214.57,63.41C-221.17,26.40 -250.62,10.47 -309.98,21.56C-314.99,22.45 -355.17,44.40 -377.90,71.61L-384.33,35.56L-435.54,59.23C-434.54,59.30 -428.60,62.18 -424.34,86.05L-419.69,113.55C-410.44,165.35 -411.42,170.95 -411.42,170.95L-356.27,161.11C-356.27,161.11 -362.70,156.84 -368.96,121.74L-376.07,81.87C-358.77,64.25 -338.27,57.64 -322.75,54.87C-279.31,47.12 -263.94,62.85 -259.85,85.77L-259.12,89.83C-251.29,133.76 -251.71,142.45 -251.71,142.45ZM40.35,49.46L34.90,18.90C28.73,-15.72 5.89,-36.03 -65.97,-23.21C-100.35,-17.08 -145.49,3.29 -166.35,23.03L-152.30,56.24L-151.34,56.07C-140.56,47.49 -112.00,17.03 -68.07,9.19C-41.10,4.38 -15.70,11.42 -13.06,26.22L-11.82,33.15C-25.01,33.78 -63.38,39.64 -78.66,42.36C-128.31,51.22 -169.86,75.14 -165.26,100.92C-162.50,116.44 -143.90,128.15 -90.90,118.69C-71.81,115.28 -27.95,83.57 -6.37,63.70L0.06,99.75L53.09,82.16L52.96,81.45C50.75,80.12 44.83,74.52 40.35,49.46ZM-85.23,88.37C-100.75,91.13 -114.00,85.86 -115.07,79.89C-117.45,66.53 -100.11,56.04 -10.59,40.07L-7.61,56.78C-39.50,78.24 -65.89,84.92 -85.23,88.37ZM296.96,4.91L292.94,-19.01C283.70,-70.81 284.67,-76.41 284.67,-76.41L229.53,-66.57C229.53,-66.57 235.95,-62.30 242.22,-27.20L248.77,9.56C231.86,26.62 211.85,33.15 196.57,35.87C153.12,43.63 138.39,31.47 134.30,8.56L133.57,4.50C125.74,-39.43 126.16,-48.13 126.16,-48.13L71.01,-38.29C71.01,-38.29 76.48,-33.84 83.70,1.08L88.38,27.34C94.98,64.34 124.43,80.27 183.79,69.19C188.80,68.30 227.79,46.56 250.52,19.35L256.95,55.40L307.72,32.05L307.63,31.58C305.79,30.92 300.75,26.15 296.96,4.91ZM510.86,-44.34C501.23,-25.13 480.92,-16.09 466.83,-13.58C427.44,-6.55 410.28,-18.51 405.17,-47.16L398.44,-84.88L491.01,-96.22L489.98,-126.83L395.29,-102.55L389.63,-134.30L386.76,-133.79C375.20,-113.00 338.68,-88.50 307.00,-79.65L303.23,-78.73L304.21,-73.24L350.23,-78.99L359.09,-29.33C366.92,14.59 398.02,31.46 449.34,22.31C472.98,18.09 491.55,10.34 505.22,-4.17L511.38,-44.19ZM710.71,-143.30C686.34,-151.52 644.38,-149.20 618.84,-144.65C563.93,-134.85 535.97,-114.84 539.50,-95.02C542.87,-76.16 570.72,-70.54 618.19,-68.17L635.35,-67.29C672.41,-65.28 679.23,-61.57 681.36,-49.63C683.45,-37.94 668.71,-29.39 651.76,-26.37C616.91,-20.15 575.82,-36.47 547.19,-64.37L546.47,-64.24L541.56,-15.82C567.46,-7.39 608.81,-6.15 642.71,-12.19C676.14,-18.16 733.25,-40.42 728.02,-69.78C724.78,-87.92 709.52,-97.52 647.60,-100.76L631.69,-101.61C595.86,-103.60 578.39,-107.62 577.03,-115.26C575.45,-124.10 581.41,-129.35 597.17,-132.16C631.07,-138.21 680.02,-122.06 694.08,-105.36L695.03,-105.53ZM776.38,-94.17L812.90,-100.69C807.79,-129.34 800.93,-178.86 805.94,-218.43L740.53,-206.76C758.91,-171.36 771.27,-122.82 776.38,-94.17ZM798.33,-42.91C819.10,-46.62 830.30,-61.18 828.77,-69.77C827.28,-78.13 819.85,-82.47 803.62,-79.57C784.28,-76.12 771.51,-63.50 773.42,-52.76C774.57,-46.31 782.34,-40.06 798.33,-42.91Z" fill="#ffffff" stroke="#000000"/>
    <path d="M-665.98,-99.17C-685.73,-36.43 -716.60,-34.45 -810.06,-12.53C-812.69,-18.32 -816.04,-27.14 -819.28,-40.68L-829.25,-82.22L-690.38,-115.52L-692.96,-126.26L-831.82,-92.95L-839.49,-124.93C-842.79,-138.70 -843.81,-148.08 -844.10,-154.43C-759.03,-175.32 -729.20,-183.71 -685.67,-140.10L-677.26,-143.11L-701.74,-199.92L-906.65,-150.78C-906.65,-150.78 -898.56,-144.82 -890.89,-112.85L-871.33,-28.19C-863.66,3.78 -867.47,12.59 -867.47,12.59L-653.00,-37.86L-657.12,-100.30ZM-409.06,-138.33L-416.23,-168.20C-424.35,-202.04 -448.09,-220.78 -518.34,-203.93C-551.95,-195.87 -595.36,-173.12 -614.82,-152.41L-599.00,-120.41L-598.07,-120.64C-587.91,-129.74 -561.47,-161.50 -518.53,-171.80C-492.16,-178.12 -466.66,-172.64 -463.19,-158.17L-461.56,-151.40C-474.56,-150.01 -512.12,-141.99 -527.06,-138.41C-575.60,-126.77 -615.26,-100.72 -609.21,-75.51C-605.58,-60.34 -586.52,-49.86 -534.71,-62.28C-516.04,-66.76 -474.56,-100.65 -454.40,-121.53L-445.94,-86.29L-394.58,-106.75L-394.75,-107.45C-397.01,-108.64 -403.19,-113.82 -409.06,-138.33ZM-530.87,-92.58C-546.04,-88.94 -559.45,-93.37 -560.85,-99.21C-563.98,-112.28 -547.46,-123.64 -459.94,-144.64L-456.02,-128.30C-486.28,-105.25 -511.97,-97.11 -530.87,-92.58ZM-258.50,-262.80C-270.59,-258.66 -296.45,-232.71 -315.56,-207.40L-325.30,-248.01L-378.30,-213.82C-378.30,-213.82 -366.54,-214.18 -360.44,-188.74L-348.69,-139.73C-344.10,-120.59 -346.63,-111.59 -346.86,-111.54L-290.15,-125.14C-294.83,-134.38 -300.22,-143.45 -302.57,-153.26L-312.81,-195.97C-285.94,-223.88 -242.59,-234.53 -205.47,-220.73L-203.43,-220.47L-200.21,-270.85C-216.55,-273.11 -238.18,-269.64 -258.50,-262.80ZM9.95,-248.70C1.55,-229.16 -17.99,-219.05 -31.75,-215.74C-70.26,-206.51 -87.91,-217.33 -94.63,-245.34L-103.47,-282.21L-12.68,-298.80L-15.48,-328.98L-107.62,-299.48L-115.06,-330.52L-117.86,-329.85C-128.08,-308.64 -162.73,-282.31 -193.51,-271.72L-197.19,-270.59L-195.90,-265.22L-150.77,-273.58L-139.12,-225.04C-128.82,-182.10 -97.12,-167.24 -46.95,-179.27C-23.84,-184.82 -5.95,-193.55 6.71,-208.68L10.47,-248.58ZM217.99,-247.76L271.90,-260.69C271.90,-260.69 266.23,-264.76 257.07,-298.84L250.07,-328.01C241.40,-364.19 210.68,-378.04 152.68,-363.64C147.78,-362.46 109.01,-337.86 87.95,-309.37L65.29,-404.87L13.57,-371.49L13.79,-370.56C17.22,-369.65 25.39,-365.44 30.14,-345.60L48.94,-266.20C60.86,-215.50 60.45,-209.97 60.45,-209.97L114.37,-222.90C114.37,-222.90 107.77,-226.75 99.54,-261.06L90.25,-299.80C106.49,-318.50 126.82,-326.34 141.99,-329.98C184.47,-340.17 201.27,-325.69 206.64,-303.28L207.60,-299.31C217.89,-256.37 217.99,-247.76 217.99,-247.76ZM460.46,-420.18C435.90,-426.88 394.58,-422.15 369.61,-416.16C315.93,-403.29 289.47,-381.89 294.12,-362.52C298.54,-344.08 326.39,-340.15 373.43,-340.57L390.43,-340.70C427.16,-340.87 434.11,-337.60 436.91,-325.93C439.65,-314.50 425.59,-305.20 409.02,-301.23C374.95,-293.05 333.40,-306.78 303.50,-332.68L302.80,-332.51L300.76,-284.39C326.84,-277.56 367.77,-278.74 400.91,-286.69C433.58,-294.53 488.72,-319.85 481.83,-348.55C477.58,-366.29 461.94,-374.88 400.59,-374.48L384.81,-374.40C349.30,-374.27 331.81,-377.23 330.02,-384.70C327.94,-393.34 333.53,-398.87 348.93,-402.57C382.07,-410.51 431.37,-397.41 446.24,-381.73L447.17,-381.95ZM679.52,-409.30C671.12,-389.76 651.58,-379.64 637.82,-376.34C599.31,-367.10 581.66,-377.93 574.94,-405.93L566.09,-442.81L656.89,-459.40L654.09,-489.58L561.95,-460.08L554.51,-491.12L551.71,-490.44C541.49,-469.24 506.84,-442.91 476.06,-432.32L472.38,-431.19L473.67,-425.82L518.80,-434.18L530.45,-385.63C540.75,-342.69 572.45,-327.84 622.62,-339.87C645.73,-345.41 663.62,-354.15 676.28,-369.28L680.04,-409.17ZM-775.48,157.37C-787.57,161.50 -813.43,187.45 -832.54,212.76L-842.28,172.16L-895.29,206.34C-895.29,206.34 -883.52,205.99 -877.42,231.43L-865.67,280.44C-861.08,299.58 -863.61,308.57 -863.84,308.63L-807.13,295.03C-811.81,285.79 -817.20,276.71 -819.55,266.91L-829.79,224.20C-802.92,196.28 -759.57,185.64 -722.45,199.44L-720.41,199.69L-717.19,149.31C-733.53,147.06 -755.16,150.52 -775.48,157.37ZM-566.96,241.62C-490.65,223.31 -448.77,172.55 -457.34,136.84C-464.95,105.10 -507.94,90.49 -568.39,104.98C-644.71,123.29 -686.58,174.05 -678.02,209.76C-670.40,241.50 -625.07,255.56 -566.96,241.62ZM-539.23,215.22C-591.98,227.87 -629.70,203.36 -635.85,177.68C-641.73,153.18 -618.52,136.75 -596.12,131.38C-556.44,121.86 -507.83,133.16 -499.55,168.69C-493.68,193.19 -516.83,209.85 -539.23,215.22ZM-245.32,159.54L-191.41,146.61C-191.41,146.61 -197.07,142.53 -206.23,108.45L-213.23,79.28C-221.91,43.11 -251.93,29.08 -309.93,43.48C-314.83,44.66 -353.24,68.68 -374.12,96.89L-382.57,61.65L-431.78,88.01C-430.79,88.02 -424.76,90.53 -419.16,113.86L-412.96,140.76C-400.81,191.40 -401.45,196.98 -401.45,196.98L-347.54,184.05C-347.54,184.05 -354.14,180.21 -362.36,145.90L-371.71,106.93C-355.64,88.51 -335.78,80.78 -320.61,77.14C-278.13,66.96 -262.03,81.61 -256.66,104.01L-255.71,107.98C-245.41,150.92 -245.32,159.54 -245.32,159.54ZM37.82,50.66L30.65,20.78C22.54,-13.06 -1.21,-31.79 -71.46,-14.95C-105.06,-6.89 -148.47,15.87 -167.94,36.58L-152.12,68.57L-151.19,68.35C-141.03,59.25 -114.59,27.48 -71.65,17.18C-45.28,10.86 -19.77,16.34 -16.30,30.81L-14.68,37.58C-27.67,38.97 -65.24,46.99 -80.18,50.57C-128.72,62.22 -168.38,88.27 -162.33,113.47C-158.69,128.64 -139.64,139.13 -87.83,126.70C-69.16,122.22 -27.68,88.33 -7.51,67.45L0.94,102.69L52.30,82.23L52.13,81.53C49.87,80.34 43.70,75.16 37.82,50.66ZM-83.99,96.41C-99.16,100.05 -112.56,95.61 -113.96,89.78C-117.10,76.71 -100.57,65.34 -13.06,44.35L-9.14,60.69C-39.40,83.74 -65.09,91.87 -83.99,96.41ZM288.75,-8.30L283.38,-31.69C271.24,-82.33 271.87,-87.92 271.87,-87.92L217.96,-74.98C217.96,-74.98 224.56,-71.14 232.79,-36.83L241.41,-0.89C225.70,16.95 206.30,24.56 191.36,28.14C148.89,38.33 133.63,27.18 128.25,4.78L127.30,0.81C117.00,-42.13 116.91,-50.75 116.91,-50.75L63.00,-37.82C63.00,-37.82 68.66,-33.75 77.83,0.34L83.98,26.01C92.66,62.18 122.68,76.21 180.68,61.80C185.58,60.63 222.83,36.89 243.71,8.68L252.16,43.92L300.96,17.90L300.84,17.43C298.99,16.89 293.73,12.48 288.75,-8.30ZM497.21,-69.40C488.81,-49.86 469.27,-39.75 455.50,-36.44C416.99,-27.21 399.34,-38.03 392.63,-66.04L383.78,-102.91L474.58,-119.50L471.78,-149.68L379.64,-120.18L372.20,-151.22L369.39,-150.55C359.18,-129.34 324.52,-103.01 293.75,-92.42L290.07,-91.29L291.35,-85.92L336.49,-94.28L348.13,-45.74C358.43,-2.80 390.13,12.06 440.31,0.03C463.41,-5.52 481.31,-14.25 493.97,-29.38L497.73,-69.28ZM688.90,-178.81C664.34,-185.50 623.02,-180.78 598.05,-174.79C544.37,-161.91 517.91,-140.51 522.56,-121.14C526.98,-102.70 554.83,-98.77 601.86,-99.19L618.86,-99.32C655.60,-99.49 662.55,-96.22 665.35,-84.55C668.09,-73.12 654.03,-63.82 637.46,-59.85C603.39,-51.68 561.84,-65.40 531.94,-91.30L531.24,-91.14L529.20,-43.01C555.27,-36.19 596.21,-37.37 629.35,-45.32C662.02,-53.15 717.16,-78.47 710.27,-107.18C706.02,-124.91 690.38,-133.50 629.02,-133.10L613.25,-133.02C577.74,-132.89 560.25,-135.86 558.45,-143.32C556.38,-151.96 561.97,-157.49 577.37,-161.19C610.51,-169.14 659.80,-156.03 674.67,-140.35L675.61,-140.57ZM756.63,-134.09L792.34,-142.66C785.62,-170.66 775.96,-219.19 778.61,-258.57L714.66,-243.23C734.88,-209.33 749.92,-162.10 756.63,-134.09ZM781.31,-84.72C801.61,-89.59 811.83,-104.63 809.81,-113.03C807.85,-121.20 800.26,-125.06 784.39,-121.25C765.49,-116.72 753.60,-103.50 756.12,-93.00C757.63,-86.70 765.67,-80.97 781.31,-84.72Z" fill="#ffffff" stroke="#000000"/>
    <path d="M-668.30,-54.82C-684.16,8.31 -714.54,12.05 -805.60,39.15C-808.52,33.59 -812.35,25.07 -816.34,11.88L-828.60,-28.57L-693.36,-69.56L-696.53,-80.01L-831.77,-39.03L-841.21,-70.17C-845.27,-83.58 -846.82,-92.79 -847.48,-99.04C-764.65,-124.64 -735.68,-134.66 -690.13,-94.11L-682.00,-97.57L-709.50,-152.27L-909.06,-91.80C-909.06,-91.80 -900.72,-86.38 -891.28,-55.24L-867.03,27.24C-857.59,58.38 -860.84,67.31 -860.84,67.31L-651.91,4.99L-659.61,-56.46ZM-416.78,-108.46L-425.60,-137.55C-435.59,-170.51 -460.13,-187.64 -528.55,-166.91C-561.28,-156.99 -602.84,-131.98 -620.86,-110.39L-603.38,-79.71L-602.47,-79.98C-592.96,-89.56 -568.69,-122.48 -526.87,-135.15C-501.18,-142.94 -475.67,-139.00 -471.40,-124.91L-469.40,-118.32C-482.16,-116.19 -518.80,-106.08 -533.35,-101.67C-580.63,-87.35 -618.29,-59.30 -610.85,-34.76C-606.37,-19.98 -586.94,-10.73 -536.48,-26.03C-518.30,-31.54 -479.29,-67.43 -460.59,-89.23L-450.19,-54.91L-400.64,-78.11L-400.84,-78.79C-403.14,-79.83 -409.55,-84.59 -416.78,-108.46ZM-534.45,-56.17C-549.22,-51.70 -562.72,-55.30 -564.45,-60.98C-568.30,-73.71 -552.64,-85.90 -467.41,-111.73L-462.59,-95.82C-491.13,-71.28 -516.04,-61.75 -534.45,-56.17ZM-275.29,-240.18C-286.99,-235.39 -311.03,-208.26 -328.43,-182.14L-340.41,-221.69L-390.79,-184.83C-390.79,-184.83 -379.19,-185.86 -371.68,-161.09L-357.22,-113.36C-351.57,-94.72 -353.55,-85.68 -353.77,-85.61L-298.54,-102.35C-303.71,-111.21 -309.56,-119.86 -312.45,-129.41L-325.05,-171.00C-300.13,-200.14 -257.93,-213.18 -220.45,-201.71L-218.43,-201.58L-218.18,-251.53C-234.45,-252.81 -255.61,-248.13 -275.29,-240.18ZM-9.28,-241.88C-16.43,-222.09 -35.14,-210.96 -48.56,-206.90C-86.06,-195.53 -104.12,-205.20 -112.39,-232.47L-123.27,-268.38L-34.55,-290.06L-39.07,-319.71L-128.37,-285.20L-137.53,-315.43L-140.26,-314.61C-149.12,-293.06 -181.82,-265.03 -211.61,-252.78L-215.18,-251.45L-213.59,-246.22L-169.49,-257.11L-155.16,-209.83C-142.49,-168.01 -110.31,-155.18 -61.44,-169.99C-38.94,-176.81 -21.77,-186.48 -10.14,-202.16L-8.75,-241.79ZM196.29,-253.06L248.80,-268.97C248.80,-268.97 242.96,-272.66 231.93,-305.80L223.32,-334.21C212.64,-369.44 181.49,-381.34 125.03,-363.73C120.26,-362.29 83.39,-335.73 64.25,-306.35L36.30,-399.38L-12.85,-363.39L-12.57,-362.48C-9.13,-361.79 -0.82,-358.10 5.04,-338.78L28.23,-261.44C42.95,-212.04 42.87,-206.56 42.87,-206.56L95.38,-222.47C95.38,-222.47 88.63,-225.89 78.51,-259.30L67.07,-297.03C82.03,-316.46 101.66,-325.38 116.44,-329.86C157.80,-342.40 175.24,-329.07 181.86,-307.25L183.03,-303.38C195.70,-261.56 196.29,-253.06 196.29,-253.06ZM425.79,-437.51C401.14,-442.69 360.60,-435.62 336.28,-428.25C284.00,-412.41 259.11,-389.72 264.82,-370.86C270.27,-352.90 298.00,-350.64 344.45,-353.79L361.23,-354.91C397.51,-357.22 404.57,-354.39 408.01,-343.03C411.39,-331.89 398.04,-321.89 381.90,-317.00C348.72,-306.94 306.87,-318.09 275.82,-341.93L275.14,-341.72L275.94,-294.07C302.09,-288.84 342.46,-292.39 374.73,-302.17C406.55,-311.81 459.55,-340.03 451.07,-367.99C445.84,-385.26 429.89,-392.84 369.30,-388.87L353.72,-387.87C318.65,-385.68 301.20,-387.59 298.99,-394.86C296.44,-403.27 301.64,-409.06 316.64,-413.61C348.91,-423.39 398.38,-413.32 413.98,-398.69L414.89,-398.96ZM642.83,-439.50C635.67,-419.71 616.96,-408.58 603.55,-404.52C566.04,-393.15 547.98,-402.82 539.71,-430.09L528.83,-466.00L617.55,-487.68L613.03,-517.33L523.73,-482.82L514.57,-513.05L511.84,-512.23C502.98,-490.68 470.28,-462.65 440.49,-450.40L436.92,-449.07L438.51,-443.84L482.61,-454.73L496.94,-407.45C509.61,-365.63 541.79,-352.80 590.66,-367.61C613.16,-374.43 630.33,-384.10 641.96,-399.78L643.35,-439.41ZM-761.55,204.98C-773.25,209.77 -797.29,236.90 -814.68,263.02L-826.67,223.47L-877.04,260.33C-877.04,260.33 -865.45,259.30 -857.94,284.07L-843.47,331.80C-837.82,350.44 -839.80,359.48 -840.03,359.55L-784.80,342.81C-789.96,333.95 -795.81,325.30 -798.70,315.75L-811.31,274.16C-786.39,245.02 -744.18,231.98 -706.71,243.45L-704.68,243.58L-704.43,193.63C-720.70,192.35 -741.87,197.03 -761.55,204.98ZM-550.65,276.07C-476.33,253.54 -437.91,200.96 -448.45,166.18C-457.82,135.27 -501.14,123.33 -560.01,141.17C-634.34,163.70 -672.75,216.29 -662.21,251.06C-652.84,281.97 -607.25,293.22 -550.65,276.07ZM-524.79,248.38C-576.16,263.95 -614.85,241.92 -622.43,216.92C-629.66,193.05 -607.69,175.48 -585.87,168.86C-547.23,157.15 -498.55,165.48 -488.30,200.10C-481.07,223.96 -502.97,241.77 -524.79,248.38ZM-237.68,176.26L-185.18,160.35C-185.18,160.35 -191.01,156.66 -202.05,123.52L-210.66,95.11C-221.33,59.88 -251.81,47.77 -308.26,65.38C-313.04,66.82 -349.59,92.79 -368.57,121.87L-378.97,87.55L-426.05,116.46C-425.07,116.41 -418.97,118.53 -412.08,141.26L-404.39,167.47C-389.44,216.79 -389.74,222.34 -389.74,222.34L-337.24,206.43C-337.24,206.43 -343.98,203.01 -354.11,169.60L-365.61,131.64C-350.81,112.52 -331.63,103.73 -316.86,99.25C-275.49,86.71 -258.73,100.25 -252.12,122.07L-250.95,125.93C-238.28,167.75 -237.68,176.26 -237.68,176.26ZM35.68,52.22L26.86,23.13C16.87,-9.83 -7.67,-26.96 -76.09,-6.22C-108.82,3.69 -150.38,28.70 -168.40,50.29L-150.91,80.97L-150.01,80.70C-140.50,71.12 -116.23,38.20 -74.41,25.53C-48.72,17.74 -23.21,21.68 -18.94,35.77L-16.94,42.36C-29.70,44.49 -66.34,54.60 -80.89,59.01C-128.16,73.34 -165.83,101.38 -158.39,125.92C-153.91,140.70 -134.48,149.95 -84.02,134.66C-65.84,129.15 -26.83,93.25 -8.13,71.45L2.27,105.77L51.82,82.57L51.62,81.89C49.32,80.85 42.91,76.09 35.68,52.22ZM-81.99,104.51C-96.76,108.99 -110.26,105.38 -111.98,99.70C-115.84,86.97 -100.18,74.78 -14.95,48.95L-10.12,64.86C-38.67,89.40 -63.58,98.93 -81.99,104.51ZM280.14,-20.62L273.47,-43.42C258.53,-92.74 258.83,-98.29 258.83,-98.29L206.33,-82.38C206.33,-82.38 213.07,-78.96 223.19,-45.55L233.80,-10.55C219.32,7.99 200.60,16.64 186.05,21.05C144.68,33.58 128.96,23.46 122.35,1.64L121.17,-2.23C108.50,-44.05 107.91,-52.56 107.91,-52.56L55.40,-36.64C55.40,-36.64 61.24,-32.95 72.27,0.18L79.85,25.19C90.53,60.42 121.00,72.52 177.46,54.92C182.23,53.47 217.64,27.85 236.63,-1.23L247.03,33.09L293.72,4.55L293.58,4.09C291.71,3.67 286.27,-0.39 280.14,-20.62ZM482.51,-93.12C475.35,-73.33 456.64,-62.20 443.23,-58.13C405.72,-46.77 387.66,-56.43 379.39,-83.71L368.51,-119.62L457.24,-141.30L452.72,-170.95L363.41,-136.44L354.25,-166.67L351.52,-165.84C342.67,-144.30 309.96,-116.27 280.17,-104.02L276.61,-102.69L278.19,-97.46L322.29,-108.34L336.62,-61.07C349.29,-19.24 381.47,-6.41 430.34,-21.22C452.84,-28.04 470.01,-37.71 481.64,-53.40L483.03,-93.03ZM665.50,-212.35C640.85,-217.54 600.31,-210.46 575.99,-203.09C523.71,-187.25 498.82,-164.57 504.54,-145.70C509.98,-127.75 537.72,-125.48 584.16,-128.64L600.95,-129.75C637.22,-132.06 644.28,-129.24 647.73,-117.87C651.10,-106.74 637.76,-96.74 621.62,-91.85C588.43,-81.79 546.59,-92.93 515.54,-116.78L514.86,-116.57L515.65,-68.91C541.80,-63.69 582.17,-67.23 614.45,-77.02C646.27,-86.66 699.26,-114.88 690.79,-142.84C685.55,-160.11 669.61,-167.69 609.02,-163.72L593.44,-162.72C558.37,-160.53 540.91,-162.44 538.71,-169.71C536.16,-178.12 541.35,-183.91 556.36,-188.46C588.63,-198.24 638.09,-188.16 653.69,-173.53L654.60,-173.81ZM735.02,-172.12L769.80,-182.66C761.53,-209.94 749.16,-257.31 749.48,-296.37L687.21,-277.50C709.16,-245.19 726.76,-199.40 735.02,-172.12ZM762.27,-124.79C782.04,-130.78 791.26,-146.23 788.78,-154.42C786.37,-162.37 778.65,-165.74 763.19,-161.06C744.78,-155.48 733.81,-141.73 736.91,-131.50C738.77,-125.36 747.04,-120.18 762.27,-124.79Z" fill="#ffffff" stroke="#000000"/>
    <path d="M-667.63,-10.66C-679.62,52.62 -709.41,58.09 -797.77,90.15C-800.99,84.83 -805.26,76.63 -809.97,63.84L-824.44,24.59L-693.24,-23.76L-696.98,-33.90L-828.18,14.45L-839.31,-15.76C-844.11,-28.77 -846.17,-37.77 -847.18,-43.91C-766.86,-74.02 -738.82,-85.60 -691.48,-48.20L-683.65,-52.09L-713.99,-104.52L-907.59,-33.17C-907.59,-33.17 -899.04,-28.31 -887.90,1.90L-859.15,81.97C-848.01,112.17 -850.70,121.18 -850.70,121.18L-647.96,47.46L-659.14,-12.78ZM-422.31,-78.28L-432.71,-106.50C-444.50,-138.48 -469.74,-153.97 -536.11,-129.51C-567.86,-117.80 -607.46,-90.69 -624.01,-68.31L-604.95,-39.02L-604.06,-39.34C-595.23,-49.36 -573.17,-83.29 -532.60,-98.24C-507.69,-107.42 -482.26,-105.02 -477.22,-91.35L-474.86,-84.96C-487.34,-82.11 -522.94,-69.99 -537.06,-64.79C-582.92,-47.89 -618.49,-18.00 -609.71,5.81C-604.43,20.15 -584.70,28.15 -535.75,10.11C-518.11,3.61 -481.67,-34.11 -464.46,-56.73L-452.19,-23.44L-404.60,-49.24L-404.84,-49.91C-407.17,-50.80 -413.78,-55.13 -422.31,-78.28ZM-535.49,-19.78C-549.83,-14.50 -563.37,-17.27 -565.40,-22.79C-569.95,-35.14 -555.19,-48.09 -472.51,-78.56L-466.82,-63.13C-493.59,-37.23 -517.63,-26.37 -535.49,-19.78ZM-290.22,-216.62C-301.50,-211.21 -323.66,-183.01 -339.33,-156.20L-353.47,-194.57L-401.08,-155.23C-401.08,-155.23 -389.68,-156.92 -380.83,-132.89L-363.76,-86.58C-357.10,-68.50 -358.52,-59.46 -358.74,-59.38L-305.16,-79.13C-310.78,-87.58 -317.06,-95.78 -320.47,-105.04L-335.34,-145.39C-312.43,-175.63 -271.49,-190.97 -233.81,-181.81L-231.80,-181.80L-234.46,-231.16C-250.61,-231.47 -271.24,-225.62 -290.22,-216.62ZM-27.56,-233.78C-33.47,-213.82 -51.31,-201.74 -64.32,-196.94C-100.70,-183.53 -119.11,-192.03 -128.86,-218.49L-141.70,-253.33L-55.32,-279.90L-61.51,-308.93L-147.71,-269.64L-158.52,-298.97L-161.17,-298.00C-168.66,-276.20 -199.33,-246.61 -228.05,-232.78L-231.49,-231.25L-229.62,-226.18L-186.70,-239.50L-169.79,-193.64C-154.84,-153.06 -122.31,-142.26 -74.90,-159.73C-53.07,-167.78 -36.67,-178.33 -26.10,-194.50L-27.03,-233.73ZM174.85,-256.79L225.78,-275.56C225.78,-275.56 219.81,-278.87 206.98,-310.96L196.82,-338.52C184.22,-372.70 152.76,-382.64 98.02,-361.96C93.39,-360.26 58.51,-331.88 41.32,-301.74L8.30,-392.01L-38.15,-353.60L-37.83,-352.72C-34.39,-352.23 -25.97,-349.08 -19.06,-330.33L8.35,-255.28C25.76,-207.35 26.01,-201.93 26.01,-201.93L76.94,-220.71C76.94,-220.71 70.09,-223.69 58.14,-256.10L44.65,-292.70C58.30,-312.76 77.17,-322.72 91.50,-328.00C131.63,-342.79 149.63,-330.64 157.43,-309.48L158.81,-305.73C173.77,-265.15 174.85,-256.79 174.85,-256.79ZM390.80,-452.34C366.15,-456.02 326.51,-446.68 302.92,-437.98C252.20,-419.29 228.94,-395.44 235.68,-377.13C242.10,-359.72 269.63,-359.09 315.32,-364.91L331.84,-366.99C367.54,-371.38 374.68,-369.00 378.74,-357.98C382.72,-347.17 370.12,-336.52 354.46,-330.75C322.27,-318.88 280.29,-327.46 248.23,-349.20L247.57,-348.96L251.13,-301.93C277.26,-298.29 316.93,-304.14 348.24,-315.68C379.11,-327.06 429.82,-358.02 419.82,-385.14C413.64,-401.90 397.45,-408.45 337.83,-401.01L322.50,-399.11C287.99,-394.91 270.64,-395.78 268.04,-402.83C265.03,-410.99 269.82,-417.02 284.38,-422.38C315.69,-433.92 365.13,-426.85 381.39,-413.30L382.27,-413.63ZM605.06,-466.94C599.15,-446.97 581.31,-434.89 568.30,-430.10C531.92,-416.69 513.51,-425.18 503.76,-451.64L490.92,-486.48L577.30,-513.05L571.11,-542.08L484.90,-502.80L474.10,-532.12L471.45,-531.15C463.95,-509.35 433.28,-479.76 404.57,-465.93L401.13,-464.41L402.99,-459.33L445.92,-472.65L462.83,-426.79C477.78,-386.22 510.31,-375.41 557.72,-392.89C579.55,-400.93 595.95,-411.48 606.52,-427.65L605.58,-466.88ZM-744.61,251.39C-755.89,256.80 -778.06,285.00 -793.72,311.81L-807.86,273.44L-855.48,312.78C-855.48,312.78 -844.08,311.09 -835.22,335.12L-818.16,381.43C-811.49,399.51 -812.92,408.55 -813.14,408.63L-759.56,388.88C-765.17,380.43 -771.45,372.23 -774.87,362.97L-789.74,322.62C-766.82,292.38 -725.89,277.04 -688.20,286.20L-686.20,286.21L-688.86,236.85C-705.00,236.54 -725.64,242.39 -744.61,251.39ZM-532.16,309.33C-460.06,282.76 -425.18,228.58 -437.61,194.84C-448.66,164.85 -492.15,155.59 -549.26,176.63C-621.36,203.21 -656.25,257.39 -643.81,291.12C-632.76,321.11 -587.07,329.57 -532.16,309.33ZM-508.23,280.48C-558.07,298.84 -597.56,279.34 -606.50,255.08C-615.04,231.93 -594.36,213.29 -573.19,205.49C-535.70,191.67 -487.13,197.06 -475.00,230.66C-466.47,253.81 -487.07,272.68 -508.23,280.48ZM-228.83,192.53L-177.90,173.76C-177.90,173.76 -183.87,170.45 -196.70,138.36L-206.86,110.80C-219.46,76.62 -250.26,66.44 -305.00,87.11C-309.63,88.82 -344.23,116.60 -361.28,146.43L-373.56,113.13L-418.37,144.42C-417.41,144.32 -411.26,146.06 -403.13,168.11L-394.01,193.55C-376.37,241.40 -376.35,246.90 -376.35,246.90L-325.41,228.13C-325.41,228.13 -332.27,225.14 -344.22,192.73L-357.79,155.91C-344.28,136.15 -325.85,126.35 -311.52,121.07C-271.39,106.28 -254.05,118.68 -246.25,139.84L-244.87,143.59C-229.91,184.16 -228.83,192.53 -228.83,192.53ZM33.96,54.10L23.56,25.88C11.78,-6.09 -13.47,-21.59 -79.84,2.88C-111.59,14.58 -151.18,41.69 -167.73,64.07L-148.67,93.36L-147.79,93.04C-138.96,83.02 -116.90,49.09 -76.33,34.14C-51.41,24.96 -25.98,27.36 -20.94,41.03L-18.59,47.42C-31.06,50.27 -66.67,62.39 -80.78,67.59C-126.64,84.49 -162.21,114.38 -153.44,138.20C-148.15,152.53 -128.42,160.53 -79.47,142.49C-61.83,135.99 -25.39,98.27 -8.19,75.65L4.09,108.94L51.68,83.14L51.43,82.48C49.10,81.58 42.50,77.26 33.96,54.10ZM-79.22,112.60C-93.55,117.88 -107.10,115.11 -109.13,109.59C-113.68,97.25 -98.92,84.29 -16.23,53.82L-10.54,69.25C-37.31,95.15 -61.36,106.01 -79.22,112.60ZM271.19,-32.07L263.28,-54.21C245.65,-102.05 245.62,-107.56 245.62,-107.56L194.69,-88.78C194.69,-88.78 201.55,-85.80 213.49,-53.39L226.01,-19.43C212.78,-0.28 194.79,9.36 180.68,14.56C140.55,29.35 124.43,20.26 116.63,-0.91L115.25,-4.66C100.29,-45.23 99.21,-53.60 99.21,-53.60L48.28,-34.82C48.28,-34.82 54.25,-31.52 67.08,0.57L76.02,24.83C88.62,59.01 119.42,69.19 174.16,48.52C178.79,46.81 212.28,19.44 229.34,-10.39L241.61,22.91L286.07,-8.01L285.91,-8.45C284.04,-8.76 278.42,-12.45 271.19,-32.07ZM466.87,-115.46C460.95,-95.50 443.11,-83.42 430.10,-78.62C393.72,-65.21 375.31,-73.71 365.56,-100.17L352.72,-135.00L439.10,-161.58L432.91,-190.61L346.71,-151.32L335.90,-180.65L333.25,-179.67C325.76,-157.88 295.09,-128.29 266.38,-114.45L262.93,-112.93L264.80,-107.86L307.73,-121.18L324.63,-75.31C339.58,-34.74 372.11,-23.94 419.52,-41.41C441.35,-49.46 457.75,-60.01 468.32,-76.18L467.39,-115.40ZM640.68,-243.89C616.03,-247.58 576.40,-238.23 552.81,-229.53C502.09,-210.84 478.82,-186.99 485.57,-168.69C491.99,-151.27 519.52,-150.64 565.21,-156.46L581.72,-158.54C617.42,-162.94 624.56,-160.56 628.62,-149.53C632.61,-138.73 620.00,-128.07 604.35,-122.30C572.15,-110.44 530.18,-119.01 498.12,-140.75L497.46,-140.51L501.01,-93.48C527.15,-89.84 566.82,-95.70 598.13,-107.24C629.00,-118.61 679.70,-149.57 669.71,-176.69C663.53,-193.45 647.34,-200.01 587.72,-192.56L572.39,-190.67C537.87,-186.46 520.52,-187.33 517.92,-194.39C514.92,-202.55 519.71,-208.57 534.26,-213.93C565.57,-225.47 615.01,-218.40 631.28,-204.86L632.16,-205.18ZM711.69,-208.20L745.43,-220.63C735.68,-247.09 720.70,-293.16 718.75,-331.76L658.33,-309.50C681.89,-278.86 701.94,-234.66 711.69,-208.20ZM741.36,-163.03C760.54,-170.10 768.75,-185.90 765.82,-193.84C762.98,-201.55 755.16,-204.43 740.16,-198.90C722.30,-192.32 712.26,-178.10 715.92,-168.18C718.11,-162.23 726.59,-157.59 741.36,-163.03Z" fill="#ffffff" stroke="#000000"/>
    <path d="M-664.00,33.11C-672.16,96.31 -701.26,103.44 -786.67,140.25C-790.16,135.18 -794.85,127.34 -800.25,114.98L-816.82,77.06L-690.06,21.67L-694.34,11.87L-821.10,67.26L-833.86,38.07C-839.35,25.50 -841.92,16.72 -843.27,10.72C-765.69,-23.69 -738.68,-36.76 -689.74,-2.58L-682.23,-6.87L-715.25,-56.89L-902.31,24.84C-902.31,24.84 -893.58,29.15 -880.82,58.34L-847.76,135.74C-835.01,164.93 -837.14,173.98 -837.14,173.98L-641.19,89.37L-655.74,30.52ZM-425.65,-47.95L-437.56,-75.22C-451.06,-106.11 -476.89,-119.94 -541.02,-91.92C-571.70,-78.51 -609.23,-49.43 -624.27,-26.36L-603.74,1.46L-602.89,1.08C-594.75,-9.32 -574.94,-44.11 -535.74,-61.24C-511.66,-71.76 -486.41,-70.87 -480.64,-57.66L-477.94,-51.49C-490.09,-47.95 -524.55,-33.91 -538.19,-27.95C-582.50,-8.59 -615.89,23.00 -605.84,46.01C-599.79,59.86 -579.83,66.62 -532.54,45.95C-515.49,38.51 -481.70,-0.87 -466.02,-24.22L-451.96,7.96L-406.46,-20.30L-406.74,-20.94C-409.10,-21.69 -415.87,-25.58 -425.65,-47.95ZM-534.03,16.41C-547.88,22.46 -561.41,20.51 -563.74,15.19C-568.96,3.26 -555.13,-10.40 -475.24,-45.31L-468.72,-30.39C-493.65,-3.26 -516.77,8.87 -534.03,16.41ZM-303.23,-192.27C-314.06,-186.27 -334.31,-157.12 -348.22,-129.73L-364.42,-166.80L-409.16,-125.18C-409.16,-125.18 -398.00,-127.52 -387.85,-104.30L-368.30,-59.56C-360.67,-42.09 -361.55,-33.07 -361.76,-32.98L-309.99,-55.60C-316.03,-63.62 -322.71,-71.36 -326.62,-80.31L-343.66,-119.29C-322.78,-150.49 -283.25,-168.02 -245.50,-161.17L-243.51,-161.28L-249.02,-209.87C-264.98,-209.24 -285.02,-202.26 -303.23,-192.27ZM-44.82,-224.50C-49.50,-204.44 -66.41,-191.47 -78.98,-185.98C-114.13,-170.62 -132.81,-177.93 -143.98,-203.50L-158.69,-237.16L-74.92,-268.44L-82.72,-296.74L-165.58,-252.93L-177.96,-281.26L-180.52,-280.15C-186.65,-258.18 -215.22,-227.18 -242.77,-211.84L-246.09,-210.14L-243.95,-205.24L-202.32,-220.89L-182.96,-176.57C-165.83,-137.37 -133.07,-128.60 -87.27,-148.61C-66.17,-157.83 -50.59,-169.20 -41.09,-185.79L-44.30,-224.48ZM153.75,-259.00L202.96,-280.50C202.96,-280.50 196.87,-283.42 182.33,-314.37L170.69,-341.00C156.26,-374.02 124.61,-382.01 71.75,-358.40C67.27,-356.45 34.48,-326.39 19.25,-295.63L-18.61,-382.86L-62.26,-342.22L-61.88,-341.37C-58.46,-341.09 -49.96,-338.46 -42.04,-320.35L-10.60,-247.82C9.38,-201.50 9.94,-196.16 9.94,-196.16L59.16,-217.67C59.16,-217.67 52.21,-220.21 38.52,-251.53L23.07,-286.90C35.38,-307.50 53.44,-318.43 67.28,-324.48C106.06,-341.43 124.55,-330.48 133.48,-310.02L135.07,-306.40C152.20,-267.20 153.75,-259.00 153.75,-259.00ZM355.65,-464.70C331.09,-466.91 292.49,-455.37 269.70,-445.41C220.69,-424.00 199.10,-399.08 206.83,-381.40C214.18,-364.57 241.41,-365.56 286.20,-373.96L302.39,-376.98C337.39,-383.39 344.58,-381.46 349.23,-370.81C353.79,-360.37 341.97,-349.11 326.84,-342.50C295.74,-328.91 253.78,-334.93 220.85,-354.54L220.21,-354.26L226.46,-308.02C252.49,-305.95 291.32,-314.04 321.58,-327.26C351.40,-340.29 399.68,-373.82 388.23,-400.02C381.15,-416.21 364.78,-421.75 306.33,-410.92L291.30,-408.16C257.45,-402.00 240.27,-401.85 237.29,-408.66C233.84,-416.55 238.23,-422.78 252.29,-428.92C282.54,-442.14 331.78,-438.03 348.63,-425.60L349.48,-425.97ZM566.42,-491.59C561.74,-471.53 544.83,-458.55 532.26,-453.06C497.10,-437.70 478.43,-445.02 467.26,-470.59L452.55,-504.25L536.31,-535.52L528.51,-563.83L445.66,-520.01L433.28,-548.35L430.72,-547.23C424.59,-525.27 396.02,-494.26 368.47,-478.92L365.15,-477.22L367.29,-472.32L408.92,-487.97L428.28,-443.66C445.41,-404.46 478.17,-395.68 523.97,-415.70C545.06,-424.91 560.65,-436.29 570.15,-452.87L566.94,-491.56ZM-724.78,296.40C-735.61,302.40 -755.86,331.55 -769.77,358.94L-785.97,321.87L-830.70,363.49C-830.70,363.49 -819.55,361.15 -809.40,384.37L-789.85,429.12C-782.22,446.59 -783.10,455.60 -783.31,455.69L-731.54,433.07C-737.58,425.05 -744.26,417.31 -748.17,408.37L-765.21,369.38C-744.33,338.18 -704.80,320.65 -667.05,327.50L-665.06,327.39L-670.57,278.80C-686.53,279.43 -706.57,286.41 -724.78,296.40ZM-511.58,341.27C-441.92,310.83 -410.62,255.29 -424.86,222.69C-437.52,193.72 -481.01,187.09 -536.19,211.20C-605.86,241.65 -637.16,297.19 -622.91,329.78C-610.25,358.76 -564.63,364.45 -511.58,341.27ZM-489.63,311.38C-537.78,332.42 -577.92,315.45 -588.16,292.02C-597.94,269.65 -578.60,250.03 -558.15,241.10C-521.93,225.27 -473.64,227.77 -459.71,260.24C-449.93,282.61 -469.18,302.44 -489.63,311.38ZM-218.80,208.26L-169.58,186.76C-169.58,186.76 -175.68,183.84 -190.22,152.89L-201.85,126.26C-216.28,93.24 -247.30,84.97 -300.16,108.58C-304.64,110.53 -337.19,139.98 -352.30,170.43L-366.35,138.26L-408.80,171.78C-407.85,171.62 -401.68,172.98 -392.37,194.28L-381.87,218.88C-361.67,265.11 -361.33,270.54 -361.33,270.54L-312.11,249.04C-312.11,249.04 -319.06,246.49 -332.75,215.17L-348.29,179.59C-336.10,159.30 -318.47,148.55 -304.62,142.50C-265.85,125.55 -248.00,136.78 -239.06,157.24L-237.48,160.86C-220.35,200.06 -218.80,208.26 -218.80,208.26ZM32.70,56.25L20.78,28.98C7.28,-1.91 -18.55,-15.74 -82.68,12.28C-113.36,25.68 -150.89,54.77 -165.93,77.83L-145.40,105.65L-144.55,105.28C-136.41,94.87 -116.60,60.08 -77.39,42.95C-53.32,32.43 -28.07,33.32 -22.29,46.53L-19.59,52.71C-31.75,56.25 -66.21,70.29 -79.85,76.25C-124.16,95.61 -157.55,127.20 -147.50,150.21C-141.44,164.06 -121.49,170.82 -74.19,150.15C-57.15,142.70 -23.36,103.32 -7.68,79.98L6.38,112.15L51.88,83.89L51.60,83.26C49.25,82.51 42.47,78.62 32.70,56.25ZM-75.69,120.61C-89.53,126.66 -103.07,124.71 -105.40,119.38C-110.61,107.45 -96.79,93.80 -16.89,58.89L-10.38,73.80C-35.31,100.94 -58.43,113.07 -75.69,120.61ZM261.98,-42.67L252.88,-64.07C232.68,-110.30 232.34,-115.73 232.34,-115.73L183.12,-94.23C183.12,-94.23 190.07,-91.68 203.75,-60.36L218.09,-27.55C206.14,-7.87 188.94,2.70 175.30,8.65C136.53,25.60 120.07,17.56 111.14,-2.89L109.55,-6.51C92.43,-45.71 90.87,-53.92 90.87,-53.92L41.66,-32.41C41.66,-32.41 47.75,-29.49 62.29,1.45L72.53,24.89C86.96,57.91 117.98,66.18 170.84,42.57C175.31,40.62 206.80,11.64 221.91,-18.82L235.97,13.35L278.08,-19.76L277.89,-20.19C276.03,-20.39 270.26,-23.71 261.98,-42.67ZM450.38,-136.41C445.70,-116.35 428.79,-103.38 416.22,-97.89C381.07,-82.53 362.39,-89.84 351.22,-115.41L336.51,-149.07L420.28,-180.35L412.48,-208.65L329.62,-164.84L317.24,-193.17L314.68,-192.06C308.55,-170.09 279.98,-139.09 252.43,-123.75L249.11,-122.05L251.25,-117.15L292.88,-132.80L312.24,-88.48C329.37,-49.28 362.13,-40.51 407.94,-60.52C429.03,-69.74 444.61,-81.11 454.11,-97.70L450.90,-136.39ZM614.58,-273.37C590.02,-275.58 551.42,-264.04 528.62,-254.08C479.62,-232.66 458.03,-207.75 465.76,-190.07C473.11,-173.24 500.34,-174.22 545.13,-182.63L561.32,-185.65C596.32,-192.06 603.51,-190.13 608.16,-179.47C612.72,-169.03 600.90,-157.78 585.77,-151.17C554.67,-137.58 512.71,-143.60 479.78,-163.21L479.14,-162.93L485.39,-116.69C511.41,-114.62 550.25,-122.71 580.50,-135.93C610.33,-148.96 658.61,-182.49 647.16,-208.69C640.08,-224.88 623.71,-230.42 565.26,-219.59L550.23,-216.83C516.38,-210.67 499.20,-210.52 496.22,-217.33C492.77,-225.22 497.16,-231.45 511.22,-237.59C541.47,-250.81 590.71,-246.70 607.56,-234.27L608.41,-234.64ZM686.79,-242.25L719.39,-256.49C708.22,-282.06 690.74,-326.69 686.57,-364.70L628.19,-339.19C653.25,-310.31 675.62,-267.81 686.79,-242.25ZM718.72,-199.37C737.26,-207.47 744.44,-223.54 741.09,-231.21C737.83,-238.67 729.94,-241.06 715.45,-234.73C698.19,-227.19 689.11,-212.56 693.30,-202.97C695.81,-197.22 704.45,-193.13 718.72,-199.37Z" fill="#ffffff" stroke="#000000"/>
    <path d="M-657.46,76.30C-661.84,139.18 -690.17,147.92 -772.37,189.24C-776.11,184.43 -781.20,176.96 -787.25,165.07L-805.82,128.59L-683.86,66.51L-688.66,57.08L-810.62,119.16L-824.92,91.07C-831.07,78.98 -834.12,70.47 -835.80,64.61C-761.20,26.12 -735.28,11.64 -684.96,42.55L-677.79,37.87L-713.31,-9.60L-893.28,82.00C-893.28,82.00 -884.41,85.74 -870.12,113.82L-832.96,188.34C-818.67,216.42 -820.25,225.48 -820.25,225.48L-631.67,130.53L-649.46,73.26ZM-426.80,-17.62L-440.15,-43.86C-455.28,-73.58 -481.60,-85.73 -543.29,-54.33C-572.81,-39.31 -608.18,-8.40 -621.69,15.25L-599.80,41.53L-598.98,41.11C-591.55,30.36 -574.01,-5.15 -536.29,-24.35C-513.13,-36.13 -488.14,-36.72 -481.67,-24.02L-478.64,-18.07C-490.44,-13.87 -523.65,2.00 -536.77,8.68C-579.41,30.38 -610.54,63.52 -599.28,85.65C-592.50,98.98 -572.40,104.49 -526.89,81.33C-510.49,72.98 -479.41,32.13 -465.29,8.17L-449.53,39.12L-406.24,8.57L-406.56,7.95C-408.93,7.35 -415.84,3.90 -426.80,-17.62ZM-530.08,52.24C-543.41,59.02 -556.89,57.89 -559.50,52.76C-565.34,41.28 -552.48,27.00 -475.62,-12.13L-468.31,2.22C-491.36,30.47 -513.48,43.79 -530.08,52.24ZM-314.31,-167.27C-324.65,-160.71 -342.95,-130.75 -355.10,-102.89L-373.25,-138.56L-415.01,-94.85C-415.01,-94.85 -404.12,-97.81 -392.75,-75.47L-370.84,-32.42C-362.29,-15.61 -362.64,-6.66 -362.84,-6.56L-313.03,-31.91C-319.46,-39.47 -326.51,-46.73 -330.89,-55.34L-349.98,-92.85C-331.18,-124.87 -293.16,-144.48 -255.48,-139.91L-253.53,-140.13L-261.79,-187.80C-277.52,-186.25 -296.90,-178.19 -314.31,-167.27ZM-60.99,-214.13C-64.44,-194.05 -80.39,-180.26 -92.48,-174.10C-126.31,-156.89 -145.17,-163.03 -157.69,-187.62L-174.18,-220.01L-93.28,-255.77L-102.63,-283.27L-181.90,-235.18L-195.77,-262.44L-198.23,-261.19C-203.01,-239.14 -229.42,-206.86 -255.74,-190.11L-258.91,-188.24L-256.51,-183.52L-216.32,-201.40L-194.62,-158.76C-175.42,-121.05 -142.56,-114.29 -98.49,-136.72C-78.20,-147.05 -63.47,-159.19 -55.06,-176.12L-60.47,-214.14ZM133.10,-259.75L180.44,-283.85C180.44,-283.85 174.25,-286.38 158.10,-316.09L145.06,-341.72C128.89,-373.49 97.16,-379.54 46.33,-353.15C42.03,-350.96 11.39,-319.36 -1.86,-288.10L-44.32,-372.04L-85.06,-329.37L-84.64,-328.55C-81.25,-328.47 -72.69,-326.37 -63.83,-308.95L-28.56,-239.15C-6.12,-194.57 -5.26,-189.33 -5.26,-189.33L42.09,-213.43C42.09,-213.43 35.08,-215.54 19.74,-245.67L2.42,-279.70C13.38,-300.76 30.58,-312.61 43.90,-319.39C81.20,-338.38 100.10,-328.64 110.11,-308.96L111.89,-305.48C131.08,-267.76 133.10,-259.75 133.10,-259.75ZM320.51,-474.64C296.13,-475.39 258.68,-461.75 236.75,-450.58C189.61,-426.59 169.73,-400.73 178.39,-383.72C186.63,-367.52 213.46,-370.08 257.20,-380.99L273.02,-384.91C307.21,-393.28 314.42,-391.79 319.64,-381.54C324.75,-371.50 313.73,-359.69 299.17,-352.28C269.25,-337.05 227.46,-340.56 193.80,-358.01L193.19,-357.70L202.05,-312.40C227.87,-311.86 265.75,-322.11 294.86,-336.93C323.56,-351.53 369.28,-387.45 356.44,-412.66C348.52,-428.24 332.03,-432.75 274.94,-418.66L260.25,-415.06C227.19,-407.00 210.22,-405.85 206.89,-412.41C203.03,-420.00 206.99,-426.40 220.52,-433.29C249.63,-448.10 298.49,-446.91 315.86,-435.62L316.68,-436.04ZM527.09,-513.45C523.63,-493.37 507.69,-479.58 495.59,-473.42C461.77,-456.21 442.90,-462.35 430.39,-486.94L413.90,-519.33L494.80,-555.09L485.45,-582.59L406.18,-534.50L392.30,-561.76L389.85,-560.51C385.07,-538.46 358.66,-506.18 332.34,-489.43L329.16,-487.56L331.56,-482.84L371.76,-500.72L393.46,-458.08C412.66,-420.37 445.52,-413.61 489.59,-436.04C509.88,-446.37 524.60,-458.51 533.02,-475.44L527.61,-513.46ZM-702.17,339.84C-712.51,346.40 -730.81,376.36 -742.96,404.22L-761.11,368.55L-802.87,412.26C-802.87,412.26 -791.99,409.30 -780.61,431.64L-758.70,474.69C-750.15,491.49 -750.50,500.45 -750.70,500.55L-700.89,475.20C-707.32,467.63 -714.37,460.38 -718.75,451.77L-737.84,414.26C-719.04,382.24 -681.02,362.63 -643.34,367.19L-641.39,366.97L-649.65,319.30C-665.38,320.86 -684.76,328.92 -702.17,339.84ZM-489.02,371.75C-421.99,337.63 -394.32,280.96 -410.28,249.60C-424.47,221.72 -467.80,217.71 -520.89,244.73C-587.92,278.85 -615.59,335.52 -599.63,366.88C-585.44,394.76 -540.06,397.72 -489.02,371.75ZM-469.08,340.95C-515.40,364.53 -556.03,350.11 -567.51,327.56C-578.46,306.04 -560.51,285.55 -540.83,275.53C-505.98,257.79 -458.15,257.45 -442.50,288.71C-431.55,310.23 -449.40,330.93 -469.08,340.95ZM-207.62,223.36L-160.27,199.26C-160.27,199.26 -166.46,196.73 -182.62,167.02L-195.66,141.40C-211.83,109.62 -242.94,103.26 -293.77,129.65C-298.08,131.84 -328.51,162.82 -341.66,193.77L-357.41,162.82L-397.37,198.38C-396.45,198.17 -390.27,199.16 -379.84,219.65L-368.05,243.33C-345.41,287.81 -344.75,293.16 -344.75,293.16L-297.40,269.06C-297.40,269.06 -304.41,266.95 -319.75,236.81L-337.17,202.58C-326.31,181.83 -309.53,170.19 -296.20,163.41C-258.90,144.42 -240.62,154.47 -230.60,174.15L-228.83,177.63C-209.63,215.35 -207.62,223.36 -207.62,223.36ZM31.90,58.61L18.54,32.37C3.41,2.65 -22.90,-9.51 -84.60,21.90C-114.12,36.92 -149.49,67.83 -163.00,91.48L-141.11,117.76L-140.29,117.34C-132.85,106.59 -115.31,71.08 -77.60,51.88C-54.44,40.09 -29.44,39.50 -22.98,52.21L-19.95,58.16C-31.75,62.36 -64.96,78.23 -78.08,84.91C-120.72,106.61 -151.85,139.74 -140.58,161.88C-133.80,175.21 -113.71,180.72 -68.20,157.56C-51.80,149.21 -20.72,108.36 -6.60,84.39L9.16,115.35L52.45,84.79L52.14,84.18C49.77,83.58 42.85,80.13 31.90,58.61ZM-71.39,128.47C-84.72,135.25 -98.20,134.11 -100.81,128.99C-106.65,117.51 -93.79,103.22 -16.92,64.10L-9.62,78.45C-32.67,106.70 -54.79,120.02 -71.39,128.47ZM252.56,-52.42L242.33,-73.02C219.69,-117.50 219.04,-122.84 219.04,-122.84L171.69,-98.74C171.69,-98.74 178.70,-96.63 194.04,-66.50L210.10,-34.93C199.45,-14.80 183.07,-3.37 169.95,3.31C132.65,22.30 115.93,15.32 105.92,-4.36L104.14,-7.84C84.95,-45.56 82.93,-53.57 82.93,-53.57L35.58,-29.47C35.58,-29.47 41.77,-26.94 57.93,2.77L69.41,25.32C85.58,57.09 116.69,63.45 167.52,37.07C171.82,34.87 201.23,4.42 214.38,-26.53L230.13,4.42L269.79,-30.73L269.58,-31.14C267.73,-31.23 261.85,-34.17 252.56,-52.42ZM433.17,-155.95C429.71,-135.87 413.76,-122.08 401.67,-115.92C367.85,-98.71 348.98,-104.85 336.46,-129.44L319.98,-161.83L400.88,-197.59L391.53,-225.09L312.26,-177.00L298.38,-204.26L295.92,-203.01C291.14,-180.96 264.73,-148.68 238.41,-131.93L235.24,-130.06L237.64,-125.34L277.83,-143.22L299.53,-100.58C318.73,-62.87 351.59,-56.11 395.66,-78.54C415.95,-88.87 430.68,-101.01 439.10,-117.94L433.68,-155.96ZM587.35,-300.76C562.96,-301.51 525.52,-287.87 503.58,-276.70C456.44,-252.71 436.57,-226.85 445.23,-209.84C453.47,-193.64 480.30,-196.20 524.04,-207.11L539.85,-211.03C574.04,-219.40 581.25,-217.91 586.47,-207.66C591.58,-197.62 580.56,-185.81 566.01,-178.40C536.08,-163.17 494.29,-166.68 460.63,-184.13L460.02,-183.82L468.88,-138.52C494.70,-137.98 532.59,-148.23 561.69,-163.05C590.39,-177.65 636.11,-213.57 623.28,-238.78C615.35,-254.36 598.86,-258.87 541.77,-244.78L527.09,-241.18C494.02,-233.12 477.06,-231.97 473.72,-238.53C469.86,-246.12 473.83,-252.52 487.35,-259.41C516.46,-274.22 565.33,-273.03 582.69,-261.74L583.51,-262.15ZM660.47,-274.23L691.83,-290.19C679.31,-314.79 659.46,-357.85 653.12,-395.14L596.96,-366.55C623.38,-339.48 647.95,-298.82 660.47,-274.23ZM694.50,-233.74C712.33,-242.81 718.49,-259.11 714.73,-266.49C711.08,-273.66 703.14,-275.56 689.21,-268.47C672.60,-260.01 664.48,-245.04 669.18,-235.82C671.99,-230.28 680.76,-226.75 694.50,-233.74Z" fill="#ffffff" stroke="#000000"/>
    <path d="M-648.08,118.70C-648.75,181.05 -676.22,191.32 -754.98,236.91C-758.95,232.38 -764.41,225.30 -771.08,213.91L-791.54,178.96L-674.72,110.57L-680.01,101.54L-796.82,169.93L-812.57,143.04C-819.35,131.45 -822.85,123.22 -824.86,117.54C-753.43,75.19 -728.68,59.39 -677.20,86.98L-670.40,81.94L-708.23,37.13L-880.60,138.05C-880.60,138.05 -871.63,141.23 -855.88,168.13L-814.86,239.54C-799.11,266.44 -800.15,275.48 -800.15,275.48L-619.46,170.75L-640.36,115.23ZM-425.78,12.55L-440.50,-12.58C-457.16,-41.05 -483.86,-51.52 -542.95,-16.92C-571.22,-0.37 -604.35,32.20 -616.31,56.34L-593.17,81.02L-592.38,80.56C-585.67,69.51 -570.42,33.43 -534.29,12.28C-512.11,-0.71 -487.46,-2.75 -480.34,9.42L-477.00,15.12C-488.41,19.95 -520.28,37.55 -532.85,44.91C-573.68,68.82 -602.50,103.35 -590.09,124.55C-582.61,137.32 -562.45,141.59 -518.86,116.07C-503.16,106.88 -474.85,64.73 -462.29,40.25L-444.94,69.89L-403.97,37.21L-404.31,36.62C-406.69,36.16 -413.72,33.16 -425.78,12.55ZM-523.71,87.54C-536.47,95.01 -549.85,94.67 -552.72,89.76C-559.16,78.77 -547.29,63.91 -473.67,20.81L-465.62,34.55C-486.74,63.78 -507.81,78.23 -523.71,87.54ZM-323.42,-141.76C-333.25,-134.69 -349.58,-104.04 -359.95,-75.82L-379.95,-109.98L-418.64,-64.40C-418.64,-64.40 -408.06,-67.95 -395.53,-46.55L-371.40,-5.32C-361.97,10.77 -361.79,19.63 -361.99,19.75L-314.28,-8.18C-321.07,-15.28 -328.45,-22.03 -333.28,-30.28L-354.31,-66.20C-337.61,-98.92 -301.21,-120.49 -263.74,-118.18L-261.82,-118.51L-272.76,-165.10C-288.19,-162.65 -306.86,-153.56 -323.42,-141.76ZM-76.01,-202.78C-78.25,-182.75 -93.20,-168.20 -104.78,-161.41C-137.18,-142.45 -156.16,-147.41 -169.96,-170.97L-188.12,-201.99L-110.31,-242.01L-121.15,-268.62L-196.62,-216.52L-211.91,-242.63L-214.27,-241.25C-217.70,-219.21 -241.90,-185.79 -266.91,-167.72L-269.94,-165.69L-267.30,-161.17L-228.65,-181.16L-204.74,-140.33C-183.59,-104.20 -150.75,-99.44 -108.54,-124.15C-89.10,-135.53 -75.27,-148.38 -67.94,-165.58L-75.50,-202.81ZM112.98,-259.11L158.33,-285.66C158.33,-285.66 152.07,-287.80 134.39,-316.20L120.02,-340.74C102.20,-371.17 70.53,-375.30 21.87,-346.29C17.75,-343.87 -10.66,-310.89 -21.93,-279.26L-68.74,-359.67L-106.48,-315.16L-106.02,-314.38C-102.67,-314.50 -94.10,-312.92 -84.33,-296.24L-45.45,-229.37C-20.70,-186.65 -19.55,-181.53 -19.55,-181.53L25.81,-208.08C25.81,-208.08 18.76,-209.75 1.87,-238.62L-17.21,-271.21C-7.62,-292.64 8.67,-305.34 21.43,-312.81C57.16,-333.73 76.39,-325.21 87.42,-306.37L89.37,-303.03C110.52,-266.90 112.98,-259.11 112.98,-259.11ZM285.54,-482.20C261.42,-481.52 225.23,-465.87 204.23,-453.57C159.07,-427.14 140.95,-400.45 150.49,-384.15C159.57,-368.64 185.91,-372.73 228.47,-386.05L243.86,-390.83C277.13,-401.09 284.34,-400.04 290.09,-390.22C295.72,-380.60 285.52,-368.30 271.58,-360.14C242.92,-343.36 201.45,-344.39 167.20,-359.66L166.61,-359.32L178.00,-315.11C203.53,-316.08 240.34,-328.40 268.21,-344.73C295.70,-360.82 338.76,-398.94 324.62,-423.09C315.88,-438.01 299.34,-441.51 243.79,-424.27L229.50,-419.86C197.32,-409.99 180.64,-407.86 176.96,-414.15C172.70,-421.41 176.25,-427.97 189.20,-435.55C217.08,-451.87 265.41,-453.54 283.21,-443.40L283.99,-443.86ZM487.26,-532.54C485.01,-512.51 470.07,-497.96 458.48,-491.18C426.09,-472.22 407.10,-477.18 393.31,-500.74L375.15,-531.76L452.95,-571.77L442.12,-598.38L366.64,-546.29L351.35,-572.40L349.00,-571.02C345.56,-548.97 321.36,-515.56 296.35,-497.49L293.33,-495.46L295.97,-490.94L334.62,-510.93L358.53,-470.10C379.67,-433.97 412.52,-429.21 454.73,-453.92C474.16,-465.30 488.00,-478.14 495.32,-495.35L487.76,-532.58ZM-676.90,381.53C-686.73,388.60 -703.06,419.25 -713.43,447.47L-733.43,413.31L-772.11,458.89C-772.11,458.89 -761.54,455.34 -749.01,476.74L-724.88,517.97C-715.45,534.07 -715.27,542.93 -715.47,543.04L-667.76,515.11C-674.55,508.01 -681.93,501.26 -686.76,493.02L-707.79,457.09C-691.09,424.38 -654.69,402.80 -617.22,405.12L-615.30,404.79L-626.23,358.20C-641.67,360.64 -660.34,369.73 -676.90,381.53ZM-464.57,400.63C-400.37,363.05 -376.34,305.48 -393.93,275.44C-409.56,248.74 -452.58,247.30 -503.43,277.07C-567.63,314.66 -591.66,372.23 -574.07,402.26C-558.44,428.96 -513.46,429.25 -464.57,400.63ZM-446.67,369.06C-491.04,395.04 -532.00,383.17 -544.64,361.57C-556.71,340.96 -540.17,319.68 -521.33,308.64C-487.95,289.10 -440.75,285.98 -423.47,315.94C-411.40,336.55 -427.83,358.03 -446.67,369.06ZM-195.35,237.74L-150.00,211.19C-150.00,211.19 -156.25,209.06 -173.94,180.65L-188.30,156.11C-206.12,125.68 -237.21,121.21 -285.86,150.23C-289.99,152.64 -318.23,184.99 -329.42,216.32L-346.77,186.68L-384.17,224.12C-383.27,223.86 -377.11,224.47 -365.61,244.10L-352.59,266.80C-327.65,309.40 -326.69,314.64 -326.69,314.64L-281.34,288.09C-281.34,288.09 -288.38,286.41 -305.28,257.55L-324.48,224.76C-314.96,203.64 -299.06,191.17 -286.30,183.70C-250.57,162.78 -231.94,171.64 -220.90,190.49L-218.95,193.83C-197.80,229.95 -195.35,237.74 -195.35,237.74ZM31.57,61.13L16.86,36.00C0.19,7.53 -26.50,-2.94 -85.60,31.66C-113.87,48.21 -146.99,80.79 -158.96,104.93L-135.81,129.60L-135.03,129.14C-128.31,118.09 -113.06,82.01 -76.94,60.86C-54.75,47.87 -30.11,45.83 -22.98,58.01L-19.65,63.70C-31.05,68.53 -62.93,86.14 -75.49,93.49C-116.33,117.40 -145.14,151.94 -132.73,173.14C-125.26,185.90 -105.09,190.18 -61.51,164.66C-45.80,155.46 -17.49,113.32 -4.94,88.83L12.42,118.48L53.39,85.79L53.05,85.20C50.67,84.75 43.64,81.74 31.57,61.13ZM-66.35,136.12C-79.11,143.59 -92.49,143.25 -95.37,138.35C-101.80,127.35 -89.94,112.50 -16.32,69.39L-8.27,83.14C-29.38,112.37 -50.45,126.81 -66.35,136.12ZM243.00,-61.34L231.70,-81.08C206.76,-123.69 205.80,-128.93 205.80,-128.93L160.45,-102.37C160.45,-102.37 167.50,-100.70 184.39,-71.84L202.09,-41.60C192.74,-21.10 177.24,-8.86 164.67,-1.51C128.94,19.41 112.03,13.50 101.00,-5.35L99.04,-8.69C77.89,-44.81 75.44,-52.60 75.44,-52.60L30.09,-26.05C30.09,-26.05 36.35,-23.92 54.03,4.48L66.67,26.08C84.49,56.51 115.58,60.98 164.23,31.97C168.36,29.55 195.62,-2.23 206.81,-33.55L224.16,-3.91L261.28,-40.93L261.05,-41.32C259.21,-41.30 253.23,-43.86 243.00,-61.34ZM415.31,-174.08C413.07,-154.05 398.12,-139.50 386.54,-132.72C354.14,-113.75 335.16,-118.71 321.36,-142.27L303.20,-173.29L381.01,-213.31L370.17,-239.92L294.70,-187.82L279.41,-213.93L277.05,-212.55C273.62,-190.51 249.42,-157.09 224.41,-139.03L221.38,-136.99L224.02,-132.47L262.67,-152.47L286.58,-111.63C307.73,-75.50 340.57,-70.74 382.78,-95.45C402.22,-106.83 416.05,-119.68 423.38,-136.88L415.82,-174.11ZM559.13,-326.03C535.01,-325.35 498.83,-309.70 477.82,-297.40C432.66,-270.97 414.54,-244.28 424.08,-227.98C433.16,-212.47 459.51,-216.56 502.06,-229.88L517.45,-234.67C550.72,-244.92 557.93,-243.87 563.68,-234.05C569.31,-224.43 559.11,-212.13 545.17,-203.97C516.51,-187.19 475.04,-188.22 440.79,-203.50L440.20,-203.15L451.59,-158.94C477.12,-159.91 513.93,-172.24 541.81,-188.56C569.29,-204.65 612.35,-242.77 598.21,-266.92C589.48,-281.84 572.93,-285.34 517.38,-268.10L503.09,-263.69C470.91,-253.82 454.23,-251.69 450.55,-257.98C446.30,-265.24 449.84,-271.80 462.80,-279.38C490.68,-295.71 539.00,-297.37 556.80,-287.23L557.58,-287.69ZM632.87,-304.09L662.91,-321.67C649.12,-345.23 627.01,-386.59 618.58,-423.05L564.79,-391.56C592.45,-366.36 619.08,-327.64 632.87,-304.09ZM668.83,-266.08C685.91,-276.08 691.04,-292.53 686.90,-299.60C682.88,-306.47 674.93,-307.89 661.58,-300.07C645.68,-290.76 638.53,-275.50 643.70,-266.67C646.81,-261.37 655.67,-258.38 668.83,-266.08Z" fill="#ffffff" stroke="#000000"/>
    <path d="M-635.94,160.14C-632.97,221.73 -659.49,233.47 -734.60,283.06C-738.78,278.82 -744.59,272.14 -751.83,261.29L-774.07,227.98L-662.71,153.66L-668.46,145.05L-779.81,219.37L-796.92,193.73C-804.29,182.69 -808.23,174.76 -810.54,169.27C-742.48,123.31 -718.96,106.26 -666.53,130.51L-660.11,125.14L-700.07,83.10L-864.38,192.76C-864.38,192.76 -855.33,195.38 -838.22,221.02L-793.57,289.14C-776.46,314.78 -776.95,323.77 -776.95,323.77L-604.65,209.86L-628.51,156.26ZM-422.64,42.40L-438.63,18.44C-456.74,-8.69 -483.70,-17.48 -540.03,20.12C-566.98,38.10 -597.79,72.19 -608.20,96.72L-583.91,119.74L-583.17,119.24C-577.18,107.94 -564.22,71.43 -529.78,48.44C-508.64,34.33 -484.42,30.88 -476.68,42.49L-473.06,47.92C-484.04,53.35 -514.48,72.59 -526.46,80.58C-565.39,106.56 -591.83,142.33 -578.34,162.54C-570.22,174.71 -550.06,177.75 -508.52,150.03C-493.54,140.03 -468.04,96.78 -457.07,71.87L-438.21,100.13L-399.66,65.48L-400.04,64.91C-402.41,64.60 -409.52,62.05 -422.64,42.40ZM-514.96,122.13C-527.12,130.25 -540.35,130.70 -543.47,126.02C-550.47,115.54 -539.62,100.18 -469.44,53.34L-460.69,66.44C-479.84,96.53 -499.80,112.02 -514.96,122.13ZM-330.55,-115.90C-339.84,-108.35 -354.18,-77.14 -362.78,-48.68L-384.51,-81.24L-420.06,-33.99C-420.06,-33.99 -409.82,-38.11 -396.21,-17.71L-369.98,21.59C-359.74,36.94 -359.05,45.67 -359.24,45.80L-313.76,15.45C-320.88,8.84 -328.55,2.60 -333.80,-5.26L-356.66,-39.51C-342.07,-72.78 -307.39,-96.20 -270.26,-96.09L-268.39,-96.53L-281.89,-141.89C-296.99,-138.57 -314.89,-128.52 -330.55,-115.90ZM-89.83,-190.54C-90.88,-170.63 -104.79,-155.39 -115.83,-148.03C-146.71,-127.42 -165.75,-131.21 -180.74,-153.67L-200.47,-183.24L-125.98,-227.27L-138.23,-252.92L-209.71,-197.09L-226.33,-221.98L-228.57,-220.48C-230.68,-198.51 -252.63,-164.12 -276.27,-144.82L-279.14,-142.64L-276.27,-138.33L-239.27,-160.32L-213.30,-121.39C-190.31,-86.96 -157.61,-84.17 -117.38,-111.02C-98.85,-123.38 -85.94,-136.87 -79.71,-154.28L-89.33,-190.60ZM93.48,-257.15L136.71,-286.00C136.71,-286.00 130.40,-287.75 111.29,-314.76L95.68,-338.15C76.32,-367.16 44.81,-369.39 -1.54,-337.92C-5.47,-335.29 -31.60,-301.08 -40.89,-269.19L-91.78,-345.86L-126.46,-299.72L-125.96,-298.98C-122.65,-299.29 -114.10,-298.23 -103.48,-282.32L-61.20,-218.57C-34.29,-177.83 -32.85,-172.84 -32.85,-172.84L10.38,-201.69C10.38,-201.69 3.33,-202.94 -15.03,-230.45L-35.76,-261.52C-27.54,-283.24 -12.19,-296.72 -0.03,-304.84C34.03,-327.57 53.51,-320.28 65.50,-302.32L67.62,-299.14C90.60,-264.70 93.48,-257.15 93.48,-257.15ZM250.87,-487.44C227.09,-485.37 192.28,-467.81 172.25,-454.45C129.21,-425.72 112.87,-398.32 123.24,-382.78C133.11,-368.00 158.88,-373.57 200.12,-389.19L215.03,-394.81C247.29,-406.87 254.46,-406.25 260.71,-396.89C266.83,-387.72 257.48,-374.99 244.19,-366.12C216.86,-347.89 175.87,-346.49 141.16,-359.58L140.60,-359.20L154.41,-316.22C179.56,-318.66 215.19,-332.97 241.76,-350.71C267.96,-368.19 308.26,-408.34 292.89,-431.36C283.40,-445.58 266.86,-448.07 213.02,-427.82L199.17,-422.64C167.97,-411.01 151.62,-407.95 147.63,-413.94C143.00,-420.86 146.12,-427.54 158.47,-435.78C185.05,-453.52 232.66,-457.97 250.82,-449.00L251.57,-449.50ZM447.10,-548.88C446.04,-528.97 432.14,-513.74 421.09,-506.37C390.22,-485.76 371.18,-489.56 356.19,-512.02L336.46,-541.59L410.95,-585.62L398.70,-611.26L327.21,-555.43L310.60,-580.32L308.36,-578.83C306.25,-556.86 284.30,-522.46 260.66,-503.17L257.79,-500.98L260.66,-496.68L297.65,-518.66L323.63,-479.74C346.62,-445.30 379.32,-442.51 419.55,-469.36C438.08,-481.73 450.99,-495.21 457.22,-512.63L447.59,-548.94ZM-649.10,421.30C-658.39,428.86 -672.73,460.07 -681.33,488.53L-703.06,455.97L-738.61,503.22C-738.61,503.22 -728.37,499.10 -714.76,519.50L-688.53,558.80C-678.29,574.15 -677.60,582.88 -677.79,583.01L-632.31,552.66C-639.43,546.04 -647.10,539.81 -652.35,531.95L-675.21,497.70C-660.62,464.43 -625.94,441.01 -588.81,441.12L-586.93,440.68L-600.44,395.32C-615.54,398.63 -633.44,408.69 -649.10,421.30ZM-438.36,427.81C-377.16,386.97 -356.78,328.74 -375.89,300.10C-392.88,274.65 -435.44,275.73 -483.91,308.08C-545.11,348.93 -565.48,407.16 -546.37,435.79C-529.39,461.24 -484.96,458.91 -438.36,427.81ZM-422.52,395.60C-464.82,423.83 -505.95,414.49 -519.69,393.91C-532.80,374.25 -517.71,352.28 -499.74,340.29C-467.93,319.06 -421.50,313.23 -402.71,341.80C-389.59,361.45 -404.56,383.61 -422.52,395.60ZM-182.03,251.33L-138.80,222.48C-138.80,222.48 -145.10,220.73 -164.21,193.72L-179.82,170.33C-199.18,141.32 -230.14,138.72 -276.49,170.19C-280.42,172.81 -306.42,206.40 -315.64,237.98L-334.50,209.72L-369.24,248.87C-368.37,248.55 -362.25,248.80 -349.76,267.51L-335.59,289.16C-308.48,329.77 -307.23,334.89 -307.23,334.89L-264.00,306.04C-264.00,306.04 -271.05,304.79 -289.41,277.28L-310.27,246.03C-302.11,224.62 -287.14,211.38 -274.97,203.26C-240.91,180.53 -222.00,188.20 -210.01,206.16L-207.89,209.34C-184.90,243.78 -182.03,251.33 -182.03,251.33ZM31.73,63.76L15.75,39.81C-2.36,12.67 -29.33,3.88 -85.66,41.48C-112.61,59.47 -143.42,93.55 -153.83,118.08L-129.54,141.10L-128.79,140.60C-122.81,129.30 -109.85,92.79 -75.41,69.81C-54.26,55.69 -30.05,52.25 -22.31,63.85L-18.69,69.28C-29.67,74.71 -60.11,93.95 -72.09,101.94C-111.01,127.92 -137.46,163.69 -123.97,183.90C-115.85,196.07 -95.69,199.12 -54.14,171.39C-39.17,161.40 -13.67,118.14 -2.70,93.23L16.16,121.49L54.71,86.84L54.33,86.28C51.96,85.97 44.85,83.41 31.73,63.76ZM-60.58,143.50C-72.75,151.62 -85.98,152.06 -89.10,147.38C-96.10,136.90 -85.24,121.54 -15.06,74.70L-6.32,87.81C-25.46,117.89 -45.42,133.38 -60.58,143.50ZM233.36,-69.45L221.05,-88.29C193.95,-128.90 192.70,-134.02 192.70,-134.02L149.47,-105.16C149.47,-105.16 156.52,-103.92 174.88,-76.41L194.11,-47.59C186.07,-26.80 171.48,-13.82 159.50,-5.82C125.44,16.91 108.40,12.05 96.41,-5.91L94.29,-9.10C71.31,-43.53 68.43,-51.08 68.43,-51.08L25.20,-22.23C25.20,-22.23 31.50,-20.48 50.61,6.53L64.35,27.11C83.71,56.12 114.67,58.73 161.02,27.25C164.95,24.63 190.02,-8.33 199.24,-39.91L218.10,-11.65L252.59,-50.36L252.34,-50.74C250.53,-50.61 244.47,-52.79 233.36,-69.45ZM396.92,-190.78C395.87,-170.87 381.96,-155.64 370.92,-148.27C340.04,-127.66 321.00,-131.46 306.01,-153.92L286.28,-183.49L360.77,-227.52L348.52,-253.16L277.04,-197.34L260.42,-222.23L258.18,-220.73C256.07,-198.76 234.12,-164.36 210.48,-145.07L207.61,-142.88L210.48,-138.58L247.47,-160.57L273.45,-121.64C296.44,-87.20 329.14,-84.41 369.37,-111.27C387.90,-123.63 400.81,-137.12 407.04,-154.53L397.42,-190.84ZM530.07,-349.17C506.29,-347.10 471.48,-329.54 451.46,-316.18C408.41,-287.45 392.08,-260.05 402.44,-244.51C412.31,-229.73 438.08,-235.30 479.32,-250.92L494.23,-256.54C526.49,-268.60 533.67,-267.98 539.91,-258.62C546.03,-249.45 536.68,-236.72 523.39,-227.85C496.07,-209.62 455.07,-208.22 420.36,-221.31L419.80,-220.93L433.62,-177.94C458.76,-180.39 494.39,-194.70 520.96,-212.44C547.17,-229.92 587.46,-270.07 572.09,-293.09C562.60,-307.31 546.06,-309.80 492.22,-289.55L478.37,-284.37C447.17,-272.74 430.82,-269.68 426.83,-275.67C422.21,-282.59 425.32,-289.27 437.67,-297.51C464.25,-315.25 511.86,-319.70 530.03,-310.73L530.77,-311.23ZM604.15,-331.79L632.78,-350.90C617.80,-373.36 593.56,-412.91 583.12,-448.42L531.85,-414.19C560.63,-390.93 589.16,-354.25 604.15,-331.79ZM641.86,-296.37C658.14,-307.23 662.25,-323.77 657.76,-330.51C653.38,-337.06 645.46,-337.99 632.73,-329.50C617.57,-319.38 611.40,-303.90 617.02,-295.48C620.40,-290.43 629.32,-288.00 641.86,-296.37Z" fill="#ffffff" stroke="#000000"/>
    <path d="M-874.54,483.41L-875.23,482.23C-877.77,485.65 -882.03,487.71 -888.41,487.71C-896.24,487.71 -904.72,481.93 -904.72,474.71C-904.72,470.11 -900.76,466.50 -895.60,466.50C-885.26,466.50 -876.75,476.76 -876.75,476.76L-874.89,467.57C-874.89,467.57 -880.17,463.61 -889.93,463.61C-901.18,463.61 -910.34,469.81 -910.34,479.54C-910.34,487.25 -901.98,492.99 -892.59,492.99C-882.98,492.99 -876.52,486.87 -874.54,483.41ZM-855.20,492.76C-842.78,492.76 -834.45,486.49 -834.45,480.68C-834.45,475.51 -840.53,471.67 -850.38,471.67C-862.80,471.67 -871.12,477.94 -871.12,483.75C-871.12,488.92 -864.66,492.76 -855.20,492.76ZM-849.96,489.72C-858.55,489.72 -863.45,484.55 -863.45,480.37C-863.45,476.38 -859.27,474.71 -855.62,474.71C-849.16,474.71 -842.09,478.24 -842.13,484.02C-842.13,488.01 -846.31,489.72 -849.96,489.72ZM-802.42,481.74L-802.19,481.74L-798.01,475.05C-802.88,471.52 -808.08,471.44 -812.53,471.44C-820.62,471.44 -829.89,475.77 -829.89,482.42C-829.89,488.73 -822.64,492.53 -813.74,492.53C-807.13,492.53 -801.24,490.25 -799.11,488.31L-798.32,483.26L-798.51,483.11C-801.36,486.03 -807.63,487.59 -812.64,487.59C-819.56,487.59 -823.36,483.94 -823.36,479.38C-823.36,475.77 -821.15,473.65 -816.59,473.65C-810.82,473.38 -804.97,477.41 -802.42,481.74ZM-777.15,492.76C-764.72,492.76 -756.40,486.49 -756.40,480.68C-756.40,475.51 -762.48,471.67 -772.32,471.67C-784.75,471.67 -793.07,477.94 -793.07,483.75C-793.07,488.92 -786.61,492.76 -777.15,492.76ZM-771.91,489.72C-780.49,489.72 -785.40,484.55 -785.40,480.37C-785.40,476.38 -781.22,474.71 -777.57,474.71C-771.11,474.71 -764.04,478.24 -764.08,484.02C-764.08,488.01 -768.26,489.72 -771.91,489.72ZM-724.60,492L-715.82,492C-715.82,492 -716.54,491.16 -716.69,485.58L-716.69,480.83C-716.69,474.94 -720.80,471.67 -730.26,471.75C-731.06,471.75 -737.86,474.03 -742.11,477.60L-742.11,471.86L-750.66,474.10C-750.51,474.14 -749.68,474.75 -749.68,478.55L-749.71,482.92C-749.71,491.16 -750.02,492 -750.02,492L-741.24,492C-741.24,492 -742.11,491.16 -742.11,485.58L-742.11,479.23C-738.96,476.99 -735.62,476.53 -733.15,476.53C-726.23,476.53 -724.29,479.38 -724.29,483.03L-724.29,483.68C-724.29,490.67 -724.60,492 -724.60,492ZM-676.98,485.69L-676.98,480.83C-676.98,475.32 -679.95,471.56 -691.38,471.56C-696.86,471.56 -704.38,473.46 -708.14,475.93L-706.89,481.44L-706.74,481.44C-704.84,480.41 -699.59,476.50 -692.60,476.50C-688.31,476.50 -684.58,478.28 -684.58,480.64L-684.58,481.74C-686.63,481.47 -692.71,481.32 -695.15,481.32C-703.05,481.32 -710.12,483.87 -710.12,487.97C-710.12,490.44 -707.57,492.76 -699.14,492.76C-696.10,492.76 -688.46,489.07 -684.58,486.60L-684.58,492.34L-675.92,491.09L-675.92,490.97C-676.22,490.71 -676.98,489.68 -676.98,485.69ZM-697.43,488.24C-699.90,488.24 -701.80,487.06 -701.80,486.11C-701.80,483.98 -698.83,482.84 -684.58,482.84L-684.58,485.50C-690.09,487.93 -694.35,488.24 -697.43,488.24ZM-642.86,484.17C-644.87,486.87 -648.25,487.71 -650.50,487.71C-656.77,487.71 -659.08,485.39 -659.08,480.83L-659.08,474.82L-644.49,475.62L-643.81,470.87L-659.08,472.01L-659.08,466.96L-659.54,466.96C-661.90,469.85 -668.20,472.62 -673.33,473.11L-673.94,473.15L-673.94,474.03L-666.68,474.41L-666.68,482.31C-666.68,489.30 -662.35,492.76 -654.18,492.76C-650.42,492.76 -647.34,492.08 -644.83,490.21L-642.78,484.21ZM-635.75,480.18L-635.75,481.93L-623.82,481.93L-623.82,480.18ZM-591.33,478.02C-586.31,477.26 -581.98,475.47 -581.98,471.37C-581.98,467.49 -587.95,465.40 -596.92,465.40L-604.06,465.40L-614.59,465.40C-614.59,465.40 -613.45,466.62 -613.45,471.82L-613.56,485.58C-613.56,490.78 -614.59,492 -614.59,492L-607.40,492C-604.10,492.04 -599.31,492.04 -595.43,492C-585.90,492.08 -578.75,488.85 -578.75,484.32C-578.71,481.28 -581.64,478.43 -591.33,478.02ZM-600.64,467.15C-594.29,467.15 -589.77,468.17 -589.77,473.08C-589.77,475.70 -593.00,477.86 -597.79,477.86C-600.94,477.83 -603.11,477.52 -605.09,476.76L-605.09,471.86C-605.09,469.92 -604.93,468.52 -604.78,467.53C-603.49,467.30 -602.08,467.15 -600.64,467.15ZM-596.65,490.25C-600.34,490.25 -603.07,489.57 -604.93,488.77C-605.01,487.93 -605.09,486.87 -605.09,485.58L-605.09,478.78C-598.09,478.62 -587.68,479.73 -587.68,485.31C-587.68,489.11 -591.48,490.25 -596.65,490.25ZM-559.03,492.76C-546.60,492.76 -538.28,486.49 -538.28,480.68C-538.28,475.51 -544.36,471.67 -554.20,471.67C-566.63,471.67 -574.95,477.94 -574.95,483.75C-574.95,488.92 -568.49,492.76 -559.03,492.76ZM-553.79,489.72C-562.37,489.72 -567.28,484.55 -567.28,480.37C-567.28,476.38 -563.10,474.71 -559.45,474.71C-552.99,474.71 -545.92,478.24 -545.96,484.02C-545.96,488.01 -550.14,489.72 -553.79,489.72ZM-533.15,465.63L-533.15,465.89C-531.86,466.16 -530.80,467.03 -530.80,472.09L-530.80,482.92C-530.80,491.16 -531.52,492 -531.52,492L-521.98,492C-521.98,492 -523.20,491.16 -523.20,485.58L-523.20,462.17ZM-480.79,485.16L-480.79,462.17L-489.91,465.36L-489.91,465.55C-489.38,465.86 -488.39,466.96 -488.39,470.00L-488.39,473.65C-491.50,472.51 -494.92,472.01 -497.01,472.01C-506.86,472.01 -516.66,476.84 -516.66,483.64C-516.66,489.80 -510.88,492.76 -502.07,492.76C-499.18,492.76 -492.72,489.42 -488.39,486.19L-488.39,492.57L-479.72,490.59L-479.72,490.48C-480.03,490.18 -480.79,489.11 -480.79,485.16ZM-499.86,488.05C-504.35,488.09 -508.87,485.69 -508.87,480.75C-508.87,476.76 -504.69,474.52 -501.04,474.52C-494.51,474.60 -490.14,477.56 -488.39,480.83L-488.39,484.70C-492.15,487.48 -496.29,488.09 -499.86,488.05ZM-438.11,482.23C-443.47,491.16 -448.30,490.33 -463.50,490.25C-463.69,489.26 -463.88,487.78 -463.88,485.58L-463.88,478.81L-441.27,478.81L-441.27,477.07L-463.88,477.07L-463.88,471.86C-463.88,469.62 -463.69,468.14 -463.50,467.15C-449.63,467.07 -444.73,466.88 -439.63,475.20L-438.23,475.05L-439.90,465.40L-473.26,465.40C-473.26,465.40 -472.24,466.62 -472.24,471.82L-472.35,485.58C-472.35,490.78 -473.26,492 -473.26,492L-438.38,492.15L-436.71,482.39ZM-410.22,481.28L-397.91,473L-403.95,473C-403.95,474.29 -407.03,476.42 -409.96,478.32L-412.05,479.84L-414.74,477.71C-416.26,476.50 -417.97,475.09 -417.97,473L-432.00,473L-419.23,483.03L-432.53,492L-426.49,492C-426.49,491.01 -424.24,489.42 -421.17,487.14L-417.44,484.48L-413.57,487.52C-411.67,489.26 -410.64,490.63 -410.64,492L-396.62,492ZM-366.22,484.17C-368.23,486.87 -371.61,487.71 -373.86,487.71C-380.13,487.71 -382.44,485.39 -382.44,480.83L-382.44,474.82L-367.85,475.62L-367.17,470.87L-382.44,472.01L-382.44,466.96L-382.90,466.96C-385.26,469.85 -391.56,472.62 -396.69,473.11L-397.30,473.15L-397.30,474.03L-390.04,474.41L-390.04,482.31C-390.04,489.30 -385.71,492.76 -377.54,492.76C-373.78,492.76 -370.70,492.08 -368.19,490.21L-366.14,484.21Z"/>
</svg>