<?xml version="1.0"?>
<svg xmlns="http://www.w3.org/2000/svg" width="1920" height="1080" viewBox="-960 -540 1920 1080">
    <path d="M-384.50,-224.76L-429.53,-246.41L-443.93,-300.01L-428.56,-353.59L-384.50,-375.23L-349.23,-363.25L-332.50,-332.14L-311.32,-342.84L-333.40,-379.60L-384.50,-395.63L-448.01,-367.60L-469.43,-299.99L-448.01,-232.39L-384.50,-204.37L-333.51,-220.66L-311.83,-256.14L-332.50,-267.61L-350.93,-236.52ZM-201.27,-297.19L-274.58,-274.70L-289.50,-243.62L-276.11,-214.10L-244.39,-204.86L-221.11,-209.38L-199.78,-225.04L-199.88,-210L-178.88,-210L-178.84,-293.86L-190.68,-332.03L-229.59,-345.13L-264.59,-336.58L-281.60,-311.21L-263.75,-300.24L-252.30,-320.00L-231.88,-326.75L-210.00,-320.35ZM-201.27,-277.30L-201.29,-244.38L-217.20,-230.45L-240.79,-223.21L-257.73,-227.60L-265.52,-244.62L-255.48,-262.29ZM-89.27,-323.34L-72.38,-317.75L-65.63,-336.75L-87.65,-345.09L-109.13,-338.43L-124.13,-317.50L-124.13,-340L-144.38,-340L-144.38,-211.27L-121.88,-210L-121.88,-280.25L-113.65,-311.59ZM-25.63,-390L-48.13,-390L-48.13,-210L-28.13,-210L-28.13,-227.50L-13.83,-210.60L8.65,-204.41L50.85,-223.98L65.52,-274.53L50.85,-325.09L8.65,-344.66L-11.49,-339.85L-25.63,-326.25ZM7.35,-223.53L-17.48,-236.40L-29.14,-274.51L-18.44,-312.64L7.35,-325.52L32.50,-312.64L42.54,-274.51L32.50,-236.40ZM142.62,-345.13L97.86,-326.51L80.66,-275.00L97.87,-223.49L142.62,-204.88L187.38,-223.50L204.60,-275.00L187.39,-326.51ZM142.62,-223.99L115.56,-235.91L103.62,-274.98L115.57,-314.06L142.62,-325.99L169.70,-314.06L181.66,-274.98L169.70,-235.91ZM227.76,-210L250.26,-210L250.26,-280.75L260.01,-314.15L285.44,-325.70L306.52,-315.95L312.63,-289.75L312.63,-210L335.13,-210L335.13,-289.75L326.61,-329.40L290.02,-345.09L265.72,-339.73L248.01,-321.25L248.01,-340L227.76,-340ZM-771.65,-43.90L-792.51,-34.96L-773.57,4.96L-719.07,20.61L-673.10,7.38L-651.45,-33.95L-663.98,-66.21L-696.59,-83.15L-748.25,-98.54L-760.93,-107.18L-765.16,-120.15L-752.07,-143.22L-724.64,-150.23L-693.72,-140.17L-681.54,-112.49L-660.42,-120.64L-677.07,-156.80L-725.70,-170.62L-768.76,-157.72L-788.68,-118.62L-782.16,-94.20L-750.98,-74.75L-698.57,-59.97L-682.63,-48.77L-677.54,-32.68L-688.88,-8.87L-720.13,0.22L-755.92,-10.85ZM-596.76,-9.73L-609.87,-44.23L-513.38,-44.25L-512.13,-53.25L-527.01,-100.87L-572.11,-120.22L-616.22,-101.61L-632.80,-50.10L-616.22,1.41L-572.11,20.03L-534.97,9.06L-517.88,-17.75L-535.39,-28.69L-549.03,-6.44L-570.84,0.89ZM-609.13,-62.25L-595.00,-92.01L-572.13,-101.13L-546.63,-90.28L-536.38,-62.25ZM-405.63,65L-383.13,65L-383.13,-115L-403.13,-115L-403.13,-97.25L-418.11,-114.40L-440.58,-120.59L-482.80,-101.02L-497.46,-50.46L-482.80,0.09L-440.58,19.66L-420.45,14.86L-405.63,1.25ZM-439.30,-101.47L-414.46,-88.59L-402.82,-50.46L-413.51,-12.35L-439.30,0.52L-464.42,-12.35L-474.45,-50.46L-464.42,-88.59ZM-244.01,-115L-266.51,-115L-266.51,-44.52L-276.25,-10.83L-301.67,0.71L-322.76,-9.05L-328.88,-35.67L-328.88,-115L-351.38,-115L-351.38,-35.50L-342.89,4.40L-306.29,20.08L-281.99,14.06L-264.26,-3.75L-264.26,15L-244.01,15ZM-184.51,-9.73L-197.62,-44.23L-101.13,-44.25L-99.88,-53.25L-114.76,-100.87L-159.86,-120.22L-203.97,-101.61L-220.55,-50.10L-203.97,1.41L-159.86,20.03L-122.72,9.06L-105.63,-17.75L-123.14,-28.69L-136.78,-6.44L-158.59,0.89ZM-196.88,-62.25L-182.75,-92.01L-159.88,-101.13L-134.38,-90.28L-124.13,-62.25ZM-62.27,-25.27L-81.38,-16.34L-68.66,9.17L-30.14,20.16L6.61,11.01L23.44,-20.13L13.33,-46.80L-8.57,-58.06L-38.88,-66.25L-55.72,-73L-61.25,-83.38L-54.01,-96.21L-32.80,-100.91L-12.43,-95.35L-3.67,-78.81L15.26,-87.74L4.25,-109.52L-31.95,-120.13L-67.81,-110.92L-83.21,-80.85L-73.22,-56.99L-50.66,-46.22L-18.63,-37.75L-3.53,-30.17L0.46,-18.13L-9.59,-3.03L-29.38,0.98L-53.28,-6.88ZM102.57,16.74L102.58,16.74L99.98,-2.65L89.90,-1.14L79.06,-6.63L77.13,-23L77.13,-97.75L99.38,-97.75L99.38,-115L77.13,-115L77.13,-160L54.63,-160L54.63,-115L36.13,-115L36.13,-97.75L54.63,-97.75L54.63,-23L59.76,8.39L85.38,19.15ZM155.24,-9.73L142.13,-44.23L238.63,-44.25L239.88,-53.25L224.99,-100.87L179.89,-120.22L135.78,-101.61L119.20,-50.10L135.78,1.41L179.89,20.03L217.03,9.06L234.13,-17.75L216.61,-28.69L202.97,-6.44L181.16,0.89ZM142.88,-62.25L157.00,-92.01L179.87,-101.13L205.37,-90.28L215.63,-62.25ZM318.98,-98.34L335.88,-92.75L342.63,-111.75L320.60,-120.09L299.12,-113.43L284.13,-92.50L284.13,-115L263.88,-115L263.88,13.73L286.38,15L286.38,-55.25L294.60,-86.59ZM377.20,-136.74L385.33,-145.64L385.35,-158.35L377.06,-167.46L365.50,-167.46L357.43,-158.37L357.42,-145.67L365.64,-136.74ZM382.63,15L382.63,-115L360.13,-115L360.13,15ZM414.51,15L437.01,15L437.01,-55.75L446.76,-89.15L472.19,-100.70L493.27,-90.95L499.38,-64.75L499.38,15L521.88,15L521.88,-64.75L513.36,-104.40L476.77,-120.09L452.47,-114.73L434.76,-96.25L434.76,-115L414.51,-115ZM602.85,69.39L649.42,49.85L660.63,6.50L660.63,-115L640.63,-115L640.63,-97.50L625.90,-114.11L603.10,-120.61L560.90,-101.04L546.25,-50.49L560.90,0.06L603.10,19.63L623.24,14.83L638.13,1.25L638.06,10.79L630.11,39.89L603.38,50.00L582.57,44.13L574.38,26.50L556.38,34.75L567.72,58.67ZM604.38,-101.48L629.23,-88.59L640.87,-50.47L630.17,-12.35L604.38,0.52L579.25,-12.35L569.21,-50.47L579.25,-88.59ZM-220.88,240L-220.88,60L-244.63,60L-244.63,240ZM-185.24,240L-162.74,240L-162.74,169.25L-152.99,135.85L-127.56,124.30L-106.48,134.05L-100.38,160.25L-100.38,240L-77.88,240L-77.88,160.25L-86.39,120.60L-122.98,104.91L-147.28,110.27L-164.99,128.75L-164.99,110L-185.24,110ZM-23.44,183.75L-2.38,183.75L7.63,191.75L34.33,241.98L54.63,231L27.63,183.75L11.09,174.49L24.59,161.47L36.75,135.68L44.07,132.35L54.31,130.73L51.31,109.99L32.59,111.84L20.13,122.70L6.06,153.31L-2.38,165L-23.41,165L-23.41,59.99L-34.89,59.99L-45.85,60L-45.88,240L-23.44,240ZM138.79,243.14L147.66,234.11L147.60,221.41L138.64,212.47L126.05,212.54L117.18,221.56L117.24,234.26L126.20,243.20ZM120.78,196.95L142.58,196.95L142.58,190.06L145.94,171.86L158.10,156.92L179.86,135.90L189.97,105.91L173.84,68.40L131.31,54.41L93.08,68.69L78.28,102.10L97.40,110.76L108.73,83.50L131.52,74.80L155.50,82.14L165.69,107.44L159.05,128.12L143.98,142.88L126.08,163.03L120.78,190.06Z" fill="#ffffff" stroke="#000000"/>
    <path d="M-387.76,-217.49L-432.44,-238.69L-446.98,-291.67L-432.05,-344.80L-388.55,-366.46L-353.56,-354.78L-336.83,-324.06L-315.93,-334.77L-337.98,-371.04L-388.65,-386.65L-451.37,-358.57L-472.22,-291.52L-450.66,-224.71L-387.65,-197.31L-337.26,-213.70L-315.98,-248.94L-336.49,-260.18L-354.58,-229.31ZM-206.74,-290.15L-279.20,-267.50L-293.81,-236.66L-280.39,-207.50L-248.94,-198.52L-225.92,-203.13L-204.88,-218.73L-204.90,-203.85L-184.11,-203.96L-184.52,-286.98L-196.44,-324.70L-235.02,-337.46L-269.63,-328.82L-286.33,-303.62L-268.61,-292.85L-257.37,-312.47L-237.20,-319.26L-215.50,-313.04ZM-206.64,-270.46L-206.48,-237.88L-222.15,-224.00L-245.47,-216.71L-262.27,-220.97L-270.07,-237.78L-260.22,-255.32ZM-95.99,-316.63L-79.24,-311.19L-72.66,-330.03L-94.50,-338.17L-115.73,-331.47L-130.47,-310.67L-130.59,-332.94L-150.64,-332.84L-149.96,-205.40L-127.68,-204.26L-128.05,-273.80L-120.07,-304.88ZM-33.34,-382.96L-55.61,-382.84L-54.67,-204.64L-34.87,-204.75L-34.96,-222.07L-20.72,-205.41L1.56,-199.41L43.25,-219.00L57.50,-269.13L42.72,-319.10L0.83,-338.25L-19.08,-333.38L-33.00,-319.85ZM0.18,-218.32L-24.47,-230.94L-36.21,-268.61L-25.82,-306.41L-0.36,-319.30L24.61,-306.68L34.75,-268.99L25.01,-231.20ZM133.46,-339.42L89.24,-320.75L72.49,-269.67L89.79,-218.77L134.19,-200.57L178.40,-219.24L195.18,-270.32L177.88,-321.22ZM134.09,-219.50L107.24,-231.15L95.22,-269.77L106.84,-308.52L133.56,-320.47L160.42,-308.81L172.47,-270.18L160.83,-231.44ZM218.45,-206.09L240.72,-206.21L240.35,-276.25L249.84,-309.37L274.95,-320.93L295.87,-311.39L302.05,-285.49L302.47,-206.54L324.74,-206.65L324.33,-285.60L315.69,-324.81L279.38,-340.15L255.36,-334.72L237.91,-316.33L237.81,-334.89L217.77,-334.79ZM-770.08,-36.41L-790.68,-27.46L-771.72,11.97L-717.68,27.17L-672.25,13.84L-651.03,-27.19L-663.60,-59.06L-695.98,-75.66L-747.20,-90.62L-759.79,-99.12L-764.05,-111.93L-751.21,-134.84L-724.09,-141.93L-693.43,-132.12L-681.23,-104.79L-660.36,-112.97L-677.03,-148.67L-725.25,-162.11L-767.81,-149.11L-787.33,-110.29L-780.75,-86.15L-749.78,-67.06L-697.82,-52.70L-681.97,-41.70L-676.85,-25.79L-687.96,-2.17L-718.84,6.99L-754.33,-3.77ZM-596.76,-3.50L-609.92,-37.59L-514.39,-38.11L-513.20,-47.03L-528.19,-94.10L-572.94,-113.01L-616.51,-94.36L-632.65,-43.28L-615.97,7.63L-572.20,25.83L-535.49,14.77L-518.71,-11.85L-536.11,-22.59L-549.49,-0.50L-571.04,6.88ZM-609.28,-55.43L-595.45,-84.96L-572.86,-94.11L-547.55,-83.51L-537.25,-55.81ZM-407.15,69.48L-384.87,69.36L-385.82,-108.84L-405.62,-108.73L-405.52,-91.16L-420.45,-108.06L-442.72,-114.07L-484.42,-94.47L-498.66,-44.35L-483.89,5.62L-441.99,24.77L-422.09,19.92L-407.48,6.37ZM-441.36,-95.15L-416.70,-82.53L-404.97,-44.85L-415.36,-7.06L-440.83,5.82L-465.76,-6.79L-475.89,-44.47L-466.16,-82.27ZM-248.09,-109.57L-270.36,-109.45L-269.99,-39.68L-279.47,-6.27L-304.57,5.29L-325.50,-4.26L-331.69,-30.58L-332.11,-109.12L-354.38,-109.00L-353.97,-30.30L-345.35,9.16L-309.05,24.49L-285.02,18.40L-267.55,0.68L-267.46,19.24L-247.41,19.13ZM-188.64,-5.66L-201.80,-39.75L-106.27,-40.28L-105.08,-49.19L-120.07,-96.26L-164.82,-115.18L-208.39,-96.52L-224.52,-45.44L-207.85,5.47L-164.08,23.67L-127.37,12.61L-110.58,-14.02L-127.98,-24.75L-141.36,-2.66L-162.92,4.71ZM-201.15,-57.59L-187.33,-87.13L-164.74,-96.27L-139.43,-85.67L-129.13,-57.97ZM-67.70,-21.69L-86.58,-12.75L-73.84,12.44L-35.66,23.12L0.68,13.87L17.18,-17.05L7.03,-43.40L-14.71,-54.43L-44.76,-62.38L-61.47,-68.98L-67.00,-79.23L-59.90,-91.96L-38.93,-96.73L-18.73,-91.33L-9.97,-75.00L8.72,-83.94L-2.29,-105.44L-38.18,-115.75L-73.64,-106.45L-88.73,-76.61L-78.71,-53.03L-56.32,-42.49L-24.56,-34.27L-9.58,-26.85L-5.57,-14.95L-15.43,0.05L-35.00,4.13L-58.70,-3.53ZM95.71,19.04L95.71,19.04L93.04,-0.15L83.07,1.40L72.31,-3.98L70.31,-20.17L69.92,-94.17L91.94,-94.29L91.85,-111.37L69.83,-111.25L69.59,-155.80L47.31,-155.68L47.55,-111.13L29.24,-111.04L29.33,-93.96L47.64,-94.06L48.03,-20.05L53.28,10.99L78.70,21.51ZM147.71,-7.44L134.55,-41.53L230.08,-42.06L231.27,-50.97L216.28,-98.04L171.53,-116.96L127.96,-98.30L111.82,-47.22L128.50,3.69L172.27,21.88L208.98,10.83L225.76,-15.80L208.36,-26.53L194.98,-4.44L173.43,2.93ZM135.19,-59.37L149.02,-88.91L171.61,-98.06L196.92,-87.46L207.22,-59.76ZM309.35,-96.03L326.10,-90.58L332.68,-109.43L310.84,-117.56L289.61,-110.86L274.87,-90.06L274.75,-112.34L254.71,-112.23L255.38,15.21L277.66,16.35L277.29,-53.20L285.27,-84.27ZM366.78,-134.34L374.78,-143.20L374.73,-155.78L366.48,-164.76L355.04,-164.70L347.10,-155.66L347.16,-143.09L355.33,-134.28ZM372.95,15.84L372.27,-112.85L349.99,-112.74L350.67,15.96ZM404.51,15.68L426.78,15.56L426.41,-54.48L435.90,-87.60L461.01,-99.16L481.93,-89.62L488.11,-63.72L488.53,15.23L510.80,15.11L510.39,-63.84L501.75,-103.04L465.44,-118.38L441.42,-112.95L423.97,-94.57L423.87,-113.13L403.83,-113.02ZM591.25,68.53L637.25,48.94L648.12,5.97L647.48,-114.31L627.68,-114.21L627.77,-96.88L613.11,-113.25L590.51,-119.57L548.83,-99.97L534.59,-49.85L549.36,0.12L591.24,19.27L611.15,14.42L625.82,0.89L625.80,10.34L618.08,39.18L591.68,49.33L571.04,43.63L562.84,26.22L545.06,34.49L556.42,58.11ZM591.87,-100.63L616.54,-88.01L628.26,-50.32L617.88,-12.53L592.41,0.34L567.46,-12.27L557.32,-49.95L567.06,-87.74ZM-223.33,241.76L-224.27,63.56L-247.78,63.68L-246.84,241.88ZM-188.05,241.57L-165.78,241.45L-166.15,171.41L-156.67,138.29L-131.55,126.73L-110.63,136.27L-104.45,162.17L-104.04,241.12L-81.76,241.01L-82.18,162.06L-90.82,122.85L-127.12,107.51L-151.15,112.94L-168.59,131.33L-168.69,112.77L-188.74,112.87ZM-28.16,185.03L-7.31,184.92L2.63,192.79L29.33,242.38L49.37,231.40L22.39,184.77L5.97,175.68L19.27,162.72L31.17,137.13L38.40,133.80L48.52,132.13L45.45,111.62L26.92,113.55L14.65,124.37L0.88,154.75L-7.41,166.36L-28.24,166.47L-28.79,62.51L-40.15,62.57L-51.00,62.64L-50.08,240.84L-27.87,240.72ZM132.76,242.98L141.48,233.99L141.36,221.42L132.45,212.62L119.97,212.75L111.25,221.73L111.37,234.30L120.28,243.10ZM114.68,197.35L136.26,197.24L136.22,190.42L139.45,172.37L151.42,157.52L172.85,136.60L182.70,106.85L166.53,69.81L124.36,56.18L86.59,70.51L72.11,103.67L91.08,112.14L102.15,85.09L124.67,76.37L148.44,83.50L158.67,108.50L152.20,129.00L137.37,143.70L119.75,163.74L114.65,190.53Z" fill="#ffffff" stroke="#000000"/>
    <path d="M-390.82,-210.26L-435.17,-231.00L-449.84,-283.38L-435.34,-336.05L-392.39,-357.71L-357.69,-346.34L-340.97,-316.02L-320.34,-326.73L-342.35,-362.52L-392.60,-377.69L-454.54,-349.58L-474.82,-283.09L-453.13,-217.07L-390.61,-190.28L-340.81,-206.76L-319.94,-241.76L-340.30,-252.78L-358.05,-222.13ZM-212.02,-283.13L-283.63,-260.33L-297.92,-229.72L-284.50,-200.93L-253.31,-192.21L-230.55,-196.88L-209.80,-212.44L-209.74,-197.71L-189.17,-197.93L-190.01,-280.11L-202.00,-317.38L-240.26,-329.82L-274.47,-321.08L-290.88,-296.04L-273.28,-285.48L-262.26,-304.95L-242.32,-311.79L-220.81,-305.75ZM-211.81,-263.64L-211.48,-231.39L-226.93,-217.57L-249.98,-210.23L-266.62,-214.35L-274.43,-230.95L-264.78,-248.37ZM-102.53,-309.93L-85.92,-304.62L-79.50,-323.31L-101.17,-331.25L-122.15,-324.51L-136.63,-303.84L-136.86,-325.89L-156.71,-325.68L-155.37,-199.53L-133.31,-198.52L-134.04,-267.36L-126.30,-298.16ZM-40.86,-375.91L-62.91,-375.67L-61.04,-199.28L-41.44,-199.49L-41.62,-216.64L-27.43,-200.22L-5.35,-194.40L35.81,-214.01L49.66,-263.70L34.76,-313.09L-6.80,-331.83L-26.48,-326.91L-40.20,-313.44ZM-6.82,-213.12L-31.28,-225.47L-43.10,-262.70L-33.02,-300.17L-7.87,-313.06L16.90,-300.70L27.14,-263.44L17.69,-225.99ZM124.48,-333.68L80.81,-314.98L64.49,-264.32L81.89,-214.02L125.93,-196.25L169.60,-214.96L185.94,-265.61L168.55,-315.91ZM125.73,-214.98L99.10,-226.37L86.99,-264.54L98.29,-302.96L124.68,-314.93L151.33,-303.52L163.46,-265.35L152.15,-226.94ZM209.31,-202.15L231.36,-202.38L230.62,-271.71L239.84,-304.55L264.64,-316.12L285.40,-306.79L291.65,-281.18L292.48,-203.03L314.53,-203.26L313.70,-281.41L304.94,-320.18L268.93,-335.17L245.17,-329.67L228.00,-311.38L227.80,-329.75L207.96,-329.54ZM-768.33,-29.00L-788.67,-20.03L-769.70,18.90L-716.13,33.67L-671.22,20.23L-650.44,-20.50L-663.04,-51.98L-695.18,-68.25L-745.97,-82.79L-758.48,-91.13L-762.76,-103.79L-750.17,-126.53L-723.36,-133.69L-692.96,-124.15L-680.74,-97.16L-660.12,-105.36L-676.81,-140.62L-724.62,-153.66L-766.68,-140.57L-785.79,-102.04L-779.15,-78.18L-748.39,-59.45L-696.88,-45.51L-681.14,-34.70L-675.99,-18.98L-686.86,4.47L-717.38,13.69L-752.57,3.22ZM-596.59,2.67L-609.80,-31.00L-515.24,-32.03L-514.10,-40.86L-529.19,-87.37L-573.58,-105.86L-616.62,-87.17L-632.32,-36.52L-615.55,13.79L-572.13,31.57L-535.84,20.43L-519.37,-6.01L-536.65,-16.55L-549.78,5.39L-571.08,12.80ZM-609.25,-48.67L-595.72,-77.98L-573.41,-87.15L-548.30,-76.79L-537.96,-49.43ZM-408.51,73.91L-386.46,73.68L-388.33,-102.71L-407.93,-102.50L-407.75,-85.11L-422.61,-101.76L-444.69,-107.59L-485.87,-87.97L-499.70,-38.28L-484.82,11.10L-443.24,29.84L-423.56,24.93L-409.17,11.44ZM-443.24,-88.87L-418.76,-76.51L-406.96,-39.27L-417.04,-1.80L-442.19,11.08L-466.93,-1.28L-477.16,-38.52L-467.72,-75.99ZM-252.00,-104.16L-274.05,-103.92L-273.32,-34.86L-282.52,-1.74L-307.31,9.83L-328.08,0.49L-334.35,-25.53L-335.17,-103.27L-357.22,-103.04L-356.39,-25.14L-347.66,13.88L-311.64,28.86L-287.89,22.71L-270.69,5.07L-270.50,23.45L-250.65,23.24ZM-192.61,-1.61L-205.82,-35.29L-111.25,-36.31L-110.12,-45.14L-125.21,-91.65L-169.60,-110.14L-212.64,-91.45L-228.34,-40.80L-211.57,9.51L-168.15,27.29L-131.86,16.15L-115.39,-10.29L-132.67,-20.83L-145.80,1.11L-167.09,8.52ZM-205.27,-52.95L-191.74,-82.26L-169.43,-91.43L-144.31,-81.07L-133.98,-53.71ZM-72.98,-18.12L-91.62,-9.16L-78.88,15.70L-41.02,26.08L-5.11,16.73L11.06,-13.96L0.88,-40.00L-20.70,-50.80L-50.48,-58.51L-67.06,-64.95L-72.58,-75.07L-65.63,-87.71L-44.89,-92.54L-24.86,-87.31L-16.11,-71.19L2.35,-80.14L-8.67,-101.36L-44.25,-111.38L-79.30,-101.99L-94.08,-72.36L-84.04,-49.08L-61.82,-38.77L-30.34,-30.80L-15.47,-23.52L-11.44,-11.77L-21.12,3.13L-40.47,7.27L-63.98,-0.19ZM88.99,21.35L89.00,21.34L86.25,2.37L76.39,3.95L65.71,-1.32L63.64,-17.34L62.87,-90.59L84.67,-90.82L84.49,-107.72L62.69,-107.49L62.22,-151.59L40.17,-151.35L40.64,-107.26L22.51,-107.06L22.69,-90.16L40.82,-90.35L41.59,-17.10L46.95,13.61L72.17,23.88ZM140.33,-5.14L127.12,-38.81L221.68,-39.84L222.81,-48.67L207.73,-95.18L163.33,-113.67L120.30,-94.97L104.60,-44.33L121.37,5.98L164.79,23.76L201.07,12.63L217.55,-13.82L200.27,-24.36L187.14,-2.42L165.84,4.99ZM127.67,-56.48L141.19,-85.79L163.51,-94.96L188.62,-84.60L198.96,-57.24ZM299.87,-93.68L316.48,-88.37L322.90,-107.06L301.23,-115.00L280.25,-108.26L265.77,-87.59L265.54,-109.64L245.69,-109.43L247.03,16.72L269.09,17.73L268.36,-51.11L276.10,-81.91ZM356.51,-131.91L364.39,-140.71L364.28,-153.17L356.06,-162.01L344.73,-161.89L336.92,-152.90L337.05,-140.46L345.19,-131.79ZM363.41,16.73L362.06,-110.66L340.01,-110.43L341.36,16.96ZM394.65,16.40L416.70,16.17L415.97,-53.17L425.18,-86.00L449.98,-97.58L470.74,-88.24L476.99,-62.63L477.82,15.52L499.87,15.28L499.04,-62.87L490.28,-101.63L454.27,-116.63L430.51,-111.12L413.34,-92.83L413.15,-111.20L393.30,-110.99ZM579.78,67.74L625.22,48.11L635.75,5.51L634.48,-113.55L614.89,-113.34L615.07,-96.19L600.46,-112.31L578.06,-118.45L536.90,-98.84L523.07,-49.15L537.95,0.24L579.52,18.98L599.19,14.07L613.64,0.60L613.68,9.95L606.19,38.55L580.10,48.73L559.64,43.20L551.43,26.01L533.88,34.28L545.24,57.60ZM579.51,-99.71L603.99,-87.35L615.79,-50.11L605.71,-12.65L580.57,0.24L555.81,-12.12L545.58,-49.36L555.02,-86.83ZM-225.65,243.48L-227.52,67.09L-250.79,67.34L-248.92,243.73ZM-190.73,243.11L-168.69,242.88L-169.42,173.55L-160.21,140.72L-135.40,129.14L-114.65,138.47L-108.39,164.08L-107.57,242.23L-85.52,242.00L-86.35,163.85L-95.10,125.08L-131.12,110.09L-154.88,115.59L-172.05,133.89L-172.24,115.51L-192.08,115.72ZM-32.75,186.31L-12.12,186.09L-2.23,193.83L24.46,242.78L44.23,231.80L17.28,185.78L0.98,176.87L14.08,163.98L25.73,138.58L32.86,135.24L42.88,133.55L39.72,113.25L21.40,115.26L9.30,126.04L-4.16,156.18L-12.31,167.72L-32.93,167.94L-34.02,65.03L-45.26,65.15L-56.01,65.28L-54.16,241.67L-32.17,241.43ZM126.84,242.82L135.43,233.89L135.24,221.44L126.37,212.78L114.03,212.97L105.44,221.91L105.63,234.35L114.49,243.02ZM108.71,197.75L130.07,197.53L130.00,190.78L133.10,172.90L144.86,158.13L165.97,137.31L175.56,107.82L159.36,71.23L117.54,57.96L80.23,72.35L66.07,105.24L84.90,113.53L95.72,86.70L117.96,77.94L141.53,84.88L151.79,109.57L145.49,129.90L130.88,144.53L113.54,164.46L108.64,191.00Z" fill="#ffffff" stroke="#000000"/>
    <path d="M-393.71,-203.06L-437.71,-223.36L-452.50,-275.12L-438.42,-327.33L-396.03,-349.00L-361.63,-337.92L-344.92,-308.00L-324.55,-318.71L-346.53,-354.01L-396.34,-368.77L-457.50,-340.62L-477.23,-274.71L-455.41,-209.48L-393.39,-183.28L-344.19,-199.86L-323.71,-234.61L-343.93,-245.41L-361.33,-214.98ZM-217.11,-276.12L-287.87,-253.18L-301.86,-222.81L-288.42,-194.38L-257.50,-185.91L-235.00,-190.66L-214.55,-206.17L-214.41,-191.59L-194.04,-191.91L-195.31,-273.25L-207.38,-310.08L-245.31,-322.18L-279.12,-313.36L-295.23,-288.49L-277.76,-278.12L-266.95,-297.46L-247.25,-304.33L-225.93,-298.46ZM-216.80,-256.83L-216.31,-224.91L-231.52,-211.15L-254.30,-203.77L-270.80,-207.76L-278.61,-224.15L-269.15,-241.44ZM-108.88,-303.22L-92.41,-298.06L-86.16,-316.59L-107.65,-324.33L-128.38,-317.55L-142.60,-297.02L-142.95,-318.84L-162.59,-318.53L-160.60,-193.68L-138.76,-192.79L-139.84,-260.92L-132.35,-291.45ZM-48.18,-368.85L-70.01,-368.50L-67.23,-193.93L-47.83,-194.23L-48.10,-211.21L-33.98,-195.03L-12.08,-189.38L28.55,-209.01L42.00,-258.27L26.99,-307.07L-14.25,-325.40L-33.70,-320.43L-47.20,-307.02ZM-13.64,-207.90L-37.92,-220.00L-49.81,-256.79L-40.03,-293.93L-15.21,-306.82L9.38,-294.72L19.71,-257.89L10.55,-220.77ZM115.68,-327.92L72.56,-309.18L56.67,-258.96L74.16,-209.26L117.84,-191.90L160.97,-210.65L176.88,-260.87L159.40,-310.56ZM117.55,-210.44L91.12,-221.58L78.94,-259.29L89.93,-297.38L115.98,-309.36L142.42,-298.21L154.62,-260.49L143.63,-222.41ZM200.34,-198.18L222.16,-198.53L221.07,-267.14L230.02,-299.69L254.51,-311.28L275.10,-302.15L281.42,-276.84L282.65,-199.49L304.47,-199.83L303.24,-277.18L294.37,-315.50L258.65,-330.16L235.16,-324.59L218.26,-306.39L217.97,-324.58L198.33,-324.26ZM-766.40,-21.68L-786.49,-12.69L-767.51,25.74L-714.41,40.08L-670.03,26.55L-649.67,-13.88L-662.32,-44.97L-694.21,-60.90L-744.55,-75.03L-756.98,-83.22L-761.29,-95.73L-748.94,-118.30L-722.44,-125.53L-692.30,-116.24L-680.06,-89.59L-659.70,-97.82L-676.41,-132.63L-723.79,-145.29L-765.35,-132.11L-784.07,-93.88L-777.38,-70.30L-746.83,-51.92L-695.78,-38.39L-680.14,-27.77L-674.95,-12.24L-685.59,11.02L-715.75,20.32L-750.64,10.14ZM-596.25,8.77L-609.50,-24.49L-515.91,-26.00L-514.84,-34.74L-530.01,-80.70L-574.05,-98.77L-616.55,-80.04L-631.83,-29.83L-614.96,19.88L-571.89,37.25L-536.04,26.04L-519.87,-0.22L-537.03,-10.56L-549.91,11.22L-570.95,18.67ZM-609.06,-41.98L-595.82,-71.06L-573.78,-80.25L-548.87,-70.13L-538.50,-43.10ZM-409.72,78.30L-387.90,77.95L-390.68,-96.62L-410.07,-96.31L-409.80,-79.10L-424.60,-95.50L-446.49,-101.16L-487.14,-81.53L-500.57,-32.27L-485.58,16.54L-444.32,34.86L-424.88,29.90L-410.71,16.47ZM-444.95,-82.64L-420.66,-70.53L-408.78,-33.73L-418.56,3.40L-443.38,16.29L-467.94,4.19L-478.26,-32.62L-469.12,-69.76ZM-255.75,-98.77L-277.57,-98.42L-276.48,-30.07L-285.42,2.76L-309.89,14.35L-330.50,5.21L-336.84,-20.52L-338.06,-97.46L-359.88,-97.11L-358.66,-20.01L-349.81,18.56L-314.08,33.20L-290.60,26.99L-273.67,9.44L-273.38,27.63L-253.74,27.32ZM-196.42,2.42L-209.67,-30.84L-116.08,-32.35L-115.01,-41.10L-130.18,-87.06L-174.22,-105.13L-216.72,-86.40L-231.99,-36.18L-215.13,13.52L-172.06,30.89L-136.20,19.68L-120.04,-6.58L-137.20,-16.92L-150.07,4.87L-171.12,12.31ZM-209.22,-48.33L-195.99,-77.41L-173.95,-86.61L-149.04,-76.49L-138.66,-49.45ZM-78.10,-14.55L-96.50,-5.59L-83.76,18.96L-46.24,29.03L-10.74,19.58L5.10,-10.88L-5.11,-36.59L-26.52,-47.17L-56.04,-54.65L-72.49,-60.94L-78.01,-70.92L-71.19,-83.47L-50.69,-88.36L-30.84,-83.28L-22.09,-67.38L-3.87,-76.33L-14.88,-97.28L-50.16,-107.01L-84.80,-97.53L-99.27,-68.13L-89.21,-45.13L-67.17,-35.04L-35.96,-27.32L-21.21,-20.20L-17.16,-8.59L-26.67,6.21L-45.79,10.41L-69.10,3.15ZM82.42,23.66L82.42,23.66L79.61,4.89L69.86,6.51L59.26,1.35L57.13,-14.49L55.98,-86.99L77.56,-87.33L77.29,-104.06L55.71,-103.72L55.02,-147.36L33.19,-147.02L33.89,-103.37L15.94,-103.09L16.21,-86.36L34.15,-86.64L35.31,-14.14L40.77,16.22L65.78,26.26ZM133.10,-2.82L119.84,-36.08L213.44,-37.59L214.51,-46.34L199.34,-92.30L155.30,-110.37L112.80,-91.63L97.52,-41.42L114.39,8.28L157.46,25.66L193.31,14.44L209.48,-11.82L192.32,-22.15L179.44,-0.37L158.40,7.08ZM120.29,-53.57L133.53,-82.65L155.57,-91.85L180.48,-81.73L190.85,-54.69ZM290.54,-91.29L307.01,-86.13L313.26,-104.66L291.77,-112.41L271.04,-105.62L256.82,-85.09L256.47,-106.91L236.83,-106.60L238.82,18.25L260.66,19.14L259.58,-48.99L267.07,-79.52ZM346.41,-129.43L354.16,-138.18L353.98,-150.51L345.80,-159.22L334.59,-159.04L326.90,-150.11L327.09,-137.79L335.20,-129.25ZM354.01,17.66L352.01,-108.43L330.19,-108.08L332.19,18.00ZM384.93,17.16L406.75,16.82L405.66,-51.80L414.61,-84.35L439.10,-95.94L459.69,-86.81L466.02,-61.49L467.24,15.86L489.07,15.51L487.84,-61.84L478.97,-100.16L443.24,-114.81L419.76,-109.24L402.86,-91.05L402.57,-109.23L382.93,-108.92ZM568.44,67.01L613.31,47.34L623.51,5.13L621.63,-112.71L602.24,-112.41L602.51,-95.43L587.96,-111.31L565.76,-117.27L525.13,-97.64L511.70,-48.38L526.69,0.42L567.92,18.75L587.37,13.78L601.60,0.38L601.69,9.63L594.42,37.98L568.66,48.19L548.38,42.82L540.16,25.85L522.83,34.13L534.20,57.16ZM567.29,-98.73L591.59,-86.62L603.47,-49.82L593.68,-12.69L568.86,0.19L544.30,-11.91L533.97,-48.72L543.12,-85.85ZM-227.84,245.18L-230.62,70.60L-253.65,70.97L-250.88,245.55ZM-193.28,244.63L-171.46,244.29L-172.55,175.67L-163.60,143.12L-139.12,131.53L-118.52,140.66L-112.20,165.98L-110.97,243.32L-89.15,242.98L-90.38,165.63L-99.25,127.31L-134.97,112.65L-158.46,118.23L-175.36,136.42L-175.65,118.24L-195.29,118.55ZM-37.22,187.58L-16.79,187.26L-6.97,194.86L19.71,243.17L39.22,232.21L12.31,186.80L-3.87,178.06L9.02,165.23L20.42,140.03L27.46,136.69L37.37,134.96L34.14,114.89L16.01,116.98L4.09,127.70L-9.07,157.61L-17.08,169.07L-37.48,169.40L-39.10,67.55L-50.23,67.73L-60.87,67.91L-58.11,242.48L-36.35,242.14ZM121.04,242.68L129.50,233.79L129.24,221.47L120.42,212.94L108.21,213.20L99.75,222.09L100.00,234.41L108.83,242.93ZM102.86,198.17L124.00,197.83L123.89,191.15L126.87,173.44L138.44,158.76L159.22,138.04L168.56,108.80L152.34,72.67L110.87,59.76L74.02,74.19L60.18,106.82L78.85,114.93L89.42,88.31L111.39,79.53L134.76,86.27L145.04,110.66L138.91,130.81L124.53,145.37L107.47,165.18L102.76,191.48Z" fill="#ffffff" stroke="#000000"/>
    <path d="M-396.40,-195.90L-440.06,-215.75L-454.97,-266.91L-441.31,-318.65L-399.46,-340.32L-365.36,-329.53L-348.67,-300.01L-328.57,-310.71L-350.51,-345.54L-399.88,-359.89L-460.26,-331.70L-479.44,-266.37L-457.51,-201.92L-395.99,-176.32L-347.38,-192.99L-327.30,-227.49L-347.36,-238.07L-364.42,-207.86ZM-222.01,-269.13L-291.92,-246.06L-305.61,-215.93L-292.15,-187.86L-261.52,-179.64L-239.27,-184.46L-219.11,-199.92L-218.90,-185.48L-198.74,-185.91L-200.42,-266.40L-212.56,-302.79L-250.16,-314.57L-283.58,-305.66L-299.39,-280.96L-282.05,-270.80L-271.45,-289.99L-251.99,-296.89L-230.86,-291.19ZM-221.61,-250.04L-220.95,-218.46L-235.94,-204.76L-258.44,-197.33L-274.79,-201.20L-282.61,-217.37L-273.33,-234.54ZM-115.05,-296.52L-98.72,-291.49L-92.63,-309.87L-113.93,-317.42L-134.42,-310.60L-148.38,-290.20L-148.84,-311.80L-168.28,-311.38L-165.66,-187.83L-144.04,-187.07L-145.47,-254.49L-138.21,-284.75ZM-55.32,-361.79L-76.91,-361.33L-73.25,-188.57L-54.06,-188.98L-54.41,-205.77L-40.35,-189.84L-18.65,-184.36L21.46,-204.00L34.51,-252.82L19.41,-301.04L-21.50,-318.97L-40.73,-313.94L-54.02,-300.60ZM-20.28,-202.68L-44.38,-214.53L-56.34,-250.87L-46.85,-287.68L-22.36,-300.57L2.04,-288.72L12.45,-252.33L3.59,-215.55ZM107.07,-322.14L64.49,-303.37L49.03,-253.58L66.60,-204.49L109.92,-187.54L152.50,-206.32L167.98,-256.10L150.42,-305.19ZM109.54,-205.88L83.32,-216.77L71.07,-254.02L81.74,-291.78L107.46,-303.77L133.69,-292.88L145.97,-255.61L135.28,-217.87ZM191.53,-194.18L213.13,-194.64L211.69,-262.54L220.37,-294.80L244.55,-306.40L264.98,-297.47L271.37,-272.45L272.99,-195.91L294.58,-196.37L292.96,-272.91L283.98,-310.79L248.55,-325.10L225.34,-319.47L208.71,-301.37L208.32,-319.37L188.89,-318.95ZM-764.30,-14.43L-784.14,-5.43L-765.15,32.50L-712.52,46.41L-668.67,32.79L-648.74,-7.33L-661.41,-38.03L-693.06,-53.63L-742.95,-67.35L-755.30,-75.39L-759.63,-87.74L-747.53,-110.16L-721.34,-117.45L-691.46,-108.41L-679.21,-82.10L-659.10,-90.35L-675.82,-124.71L-722.78,-136.99L-763.84,-123.73L-782.17,-85.80L-775.42,-62.49L-745.09,-44.46L-694.49,-31.34L-678.96,-20.91L-673.75,-5.57L-684.15,17.51L-713.96,26.86L-748.53,16.97ZM-595.75,14.81L-609.04,-18.04L-516.42,-20.02L-515.40,-28.68L-530.66,-74.09L-574.34,-91.74L-616.30,-72.98L-631.16,-23.20L-614.20,25.90L-571.49,42.86L-536.06,31.58L-520.20,5.50L-537.24,-4.64L-549.87,16.99L-570.65,24.47ZM-608.69,-35.35L-595.74,-64.20L-573.97,-73.41L-549.27,-63.53L-538.86,-36.83ZM-410.78,82.64L-389.19,82.19L-392.85,-90.58L-412.04,-90.17L-411.68,-73.13L-426.42,-89.29L-448.11,-94.77L-488.23,-75.13L-501.27,-26.31L-486.18,21.91L-445.25,39.84L-426.03,34.82L-412.08,21.46ZM-446.49,-76.45L-422.38,-64.59L-410.44,-28.24L-419.92,8.56L-444.42,21.44L-468.79,9.60L-479.19,-26.78L-470.34,-63.57ZM-259.32,-93.41L-280.92,-92.95L-279.48,-25.30L-288.15,7.23L-312.32,18.82L-332.76,9.89L-339.17,-15.54L-340.78,-91.68L-362.37,-91.22L-360.76,-14.92L-351.80,23.21L-316.36,37.51L-293.16,31.24L-276.50,13.78L-276.11,31.78L-256.68,31.37ZM-200.08,6.42L-213.37,-26.42L-120.75,-28.41L-119.73,-37.07L-134.99,-82.48L-178.67,-100.13L-220.63,-81.37L-235.49,-31.59L-218.53,17.51L-175.82,34.48L-140.39,23.19L-124.53,-2.88L-141.57,-13.02L-154.20,8.60L-174.98,16.09ZM-213.01,-43.74L-200.07,-72.58L-178.30,-81.80L-153.60,-71.91L-143.19,-45.22ZM-83.07,-10.99L-101.23,-2.02L-88.50,22.20L-51.31,31.97L-16.22,22.44L-0.70,-7.79L-10.95,-33.19L-32.20,-43.54L-61.45,-50.79L-77.76,-56.93L-83.27,-66.78L-76.59,-79.23L-56.33,-84.18L-36.66,-79.26L-27.92,-63.56L-9.93,-72.52L-20.94,-93.19L-55.90,-102.64L-90.13,-93.07L-104.30,-63.90L-94.22,-41.20L-72.35,-31.33L-41.43,-23.85L-26.80,-16.88L-22.72,-5.41L-32.06,9.29L-50.97,13.55L-74.07,6.48ZM76.00,25.99L76.00,25.99L73.11,7.43L63.48,9.08L52.96,4.03L50.76,-11.64L49.24,-83.38L70.60,-83.83L70.25,-100.39L48.89,-99.94L47.98,-143.13L26.38,-142.67L27.30,-99.48L9.54,-99.10L9.89,-82.55L27.65,-82.92L29.17,-11.18L34.73,18.84L59.54,28.65ZM126.01,-0.49L112.72,-33.34L205.34,-35.32L206.35,-43.98L191.10,-89.39L147.42,-107.04L105.46,-88.28L90.60,-38.50L107.55,10.60L150.27,27.57L185.69,16.28L201.56,-9.79L184.52,-19.93L171.89,1.69L151.10,9.17ZM113.07,-50.65L126.02,-79.50L147.78,-88.71L172.49,-78.83L182.90,-52.13ZM281.36,-88.87L297.69,-83.85L303.78,-102.22L282.48,-109.77L261.99,-102.95L248.03,-82.55L247.57,-104.15L228.13,-103.74L230.75,19.81L252.37,20.58L250.94,-46.85L258.20,-77.10ZM336.45,-126.90L344.08,-135.61L343.84,-147.81L335.70,-156.39L324.60,-156.16L317.04,-147.27L317.30,-135.08L325.36,-126.67ZM344.75,18.62L342.11,-106.15L320.51,-105.70L323.16,19.08ZM375.35,17.97L396.95,17.51L395.51,-50.39L404.19,-82.65L428.37,-94.25L448.79,-85.32L455.18,-60.30L456.81,16.24L478.40,15.79L476.78,-60.76L467.80,-98.64L432.37,-112.95L409.15,-107.31L392.52,-89.22L392.14,-107.21L372.71,-106.80ZM557.23,66.34L601.53,46.64L611.40,4.81L608.93,-111.81L589.73,-111.40L590.09,-94.61L575.61,-110.24L553.61,-116.03L513.50,-96.38L500.46,-47.57L515.55,0.66L556.46,18.58L575.68,13.56L589.70,0.22L589.83,9.38L582.79,37.47L557.34,47.72L537.24,42.51L529.02,25.76L511.92,34.04L523.29,56.77ZM555.22,-97.69L579.33,-85.83L591.28,-49.47L581.79,-12.67L557.30,0.21L532.92,-11.64L522.50,-48.01L531.37,-84.81ZM-229.90,246.85L-233.56,74.09L-256.36,74.57L-252.70,247.33ZM-195.70,246.12L-174.11,245.66L-175.55,177.76L-166.86,145.50L-142.69,133.91L-122.26,142.83L-115.87,167.85L-114.25,244.40L-92.65,243.94L-94.27,167.40L-103.26,129.51L-138.69,115.20L-161.90,120.84L-178.53,138.93L-178.91,120.94L-198.35,121.35ZM-41.55,188.84L-21.33,188.41L-11.57,195.89L15.08,243.56L34.34,232.60L7.46,187.80L-8.60,179.25L4.10,166.48L15.24,141.48L22.20,138.14L31.99,136.37L28.69,116.52L10.76,118.69L-0.98,129.36L-13.85,159.03L-21.71,170.42L-41.91,170.85L-44.04,70.06L-55.05,70.29L-65.58,70.53L-61.94,243.29L-40.40,242.83ZM115.37,242.54L123.69,233.70L123.37,221.51L114.60,213.12L102.51,213.43L94.19,222.27L94.50,234.46L103.28,242.86ZM97.14,198.58L118.06,198.14L117.92,191.53L120.77,173.98L132.14,159.40L152.61,138.78L161.70,109.79L145.45,74.12L104.35,61.56L67.95,76.04L54.42,108.40L72.94,116.33L83.26,89.93L104.96,81.12L128.12,87.67L138.42,111.75L132.47,131.74L118.31,146.21L101.53,165.91L97.00,191.97Z" fill="#ffffff" stroke="#000000"/>
    <path d="M-398.92,-188.77L-442.22,-208.20L-457.25,-258.74L-444.00,-310.01L-402.70,-331.67L-368.90,-321.18L-352.23,-292.05L-332.39,-302.75L-354.29,-337.10L-403.22,-351.04L-462.82,-322.83L-481.46,-258.08L-459.42,-194.42L-398.41,-169.41L-350.39,-186.16L-330.70,-220.40L-350.61,-230.77L-367.33,-200.78ZM-226.73,-262.16L-295.79,-238.96L-309.17,-209.07L-295.71,-181.37L-265.35,-173.40L-243.36,-178.28L-223.50,-193.68L-223.21,-179.40L-203.27,-179.93L-205.35,-259.57L-217.55,-295.52L-254.83,-306.98L-287.85,-297.98L-303.37,-273.46L-286.15,-263.49L-275.76,-282.54L-256.55,-289.47L-235.60,-283.95ZM-226.23,-243.27L-225.42,-212.02L-240.17,-198.38L-262.40,-190.91L-278.60,-194.66L-286.42,-210.63L-277.34,-227.66ZM-121.02,-289.82L-104.84,-284.94L-98.91,-303.15L-120.03,-310.51L-140.26,-303.65L-153.98,-283.40L-154.55,-304.76L-173.78,-304.25L-170.54,-182.00L-149.14,-181.36L-150.91,-248.08L-143.88,-278.05ZM-62.26,-354.73L-83.63,-354.16L-79.10,-183.22L-60.11,-183.72L-60.55,-200.34L-46.54,-184.65L-25.04,-179.34L14.55,-198.99L27.20,-247.36L12.00,-295.00L-28.57,-312.53L-47.57,-307.45L-60.66,-294.18ZM-26.76,-197.46L-50.66,-209.06L-62.69,-244.96L-53.49,-281.44L-29.32,-294.32L-5.12,-282.72L5.38,-246.77L-3.20,-210.32ZM98.64,-316.34L56.61,-297.54L41.57,-248.19L59.21,-199.71L102.17,-183.16L144.21,-201.97L159.27,-251.31L141.63,-299.79ZM101.69,-201.31L75.70,-211.94L63.38,-248.75L73.74,-286.16L99.12,-298.17L125.14,-287.53L137.48,-250.71L127.11,-213.31ZM182.90,-190.16L204.26,-190.73L202.48,-257.92L210.91,-289.88L234.77,-301.49L255.03,-292.76L261.49,-268.03L263.49,-192.30L284.86,-192.86L282.85,-268.60L273.77,-306.04L238.63,-320.02L215.69,-314.32L199.33,-296.32L198.85,-314.13L179.62,-313.62ZM-762.03,-7.28L-781.61,1.74L-762.62,39.18L-710.47,52.66L-667.15,38.95L-647.63,-0.85L-660.33,-31.17L-691.74,-46.44L-741.18,-59.75L-753.44,-67.64L-757.79,-79.85L-745.93,-102.09L-720.06,-109.44L-690.44,-100.66L-678.18,-74.68L-658.33,-82.95L-675.04,-116.87L-721.58,-128.78L-762.15,-115.44L-780.08,-77.80L-773.28,-54.77L-743.18,-37.09L-693.03,-24.37L-677.61,-14.14L-672.37,1.02L-682.55,23.91L-711.99,33.33L-746.26,23.72ZM-595.08,20.78L-608.40,-11.66L-516.76,-14.10L-515.80,-22.68L-531.14,-67.54L-574.45,-84.77L-615.88,-65.99L-630.32,-16.65L-613.28,31.85L-570.93,48.41L-535.93,37.06L-520.37,11.17L-537.28,1.23L-549.67,22.70L-570.20,30.21ZM-608.14,-28.79L-595.48,-57.40L-573.99,-66.64L-549.50,-56.99L-539.06,-30.62ZM-411.69,86.93L-390.32,86.37L-394.85,-84.57L-413.84,-84.07L-413.39,-67.21L-428.06,-83.12L-449.55,-88.43L-489.16,-68.78L-501.80,-20.41L-486.61,27.23L-446.02,44.75L-427.03,39.69L-413.29,26.39ZM-447.86,-70.31L-423.94,-58.70L-411.93,-22.79L-421.12,13.68L-445.29,26.55L-469.47,14.96L-479.95,-20.99L-471.39,-57.44ZM-262.73,-88.07L-284.10,-87.51L-282.32,-20.58L-290.73,11.66L-314.58,23.27L-334.85,14.53L-341.33,-10.60L-343.33,-85.94L-364.70,-85.37L-362.69,-9.87L-353.63,27.81L-318.48,41.78L-295.56,35.45L-279.16,18.09L-278.69,35.89L-259.46,35.38ZM-203.58,10.40L-216.90,-22.03L-125.26,-24.48L-124.30,-33.06L-139.64,-77.91L-182.95,-95.15L-224.38,-76.36L-238.82,-27.03L-221.78,21.47L-179.43,38.04L-144.43,26.69L-128.87,0.80L-145.78,-9.14L-158.17,12.32L-178.70,19.84ZM-216.64,-39.16L-203.98,-67.78L-182.49,-77.01L-158.00,-67.36L-147.56,-40.99ZM-87.88,-7.44L-105.81,1.53L-93.08,25.44L-56.23,34.91L-21.56,25.29L-6.36,-4.71L-16.63,-29.78L-37.71,-39.92L-66.70,-46.94L-82.87,-52.92L-88.38,-62.65L-81.83,-75.00L-61.80,-80.01L-42.31,-75.24L-33.58,-59.75L-15.83,-68.71L-26.83,-89.11L-61.48,-98.28L-95.30,-88.63L-109.17,-59.69L-99.08,-37.27L-77.39,-27.62L-46.75,-20.38L-32.23,-13.56L-28.14,-2.23L-37.29,12.36L-55.98,16.67L-78.88,9.80ZM69.72,28.32L69.72,28.32L66.77,9.97L57.24,11.65L46.80,6.71L44.55,-8.78L42.67,-79.77L63.80,-80.33L63.37,-96.71L42.24,-96.15L41.10,-138.89L19.74,-138.32L20.87,-95.59L3.30,-95.12L3.73,-78.74L21.30,-79.20L23.18,-8.22L28.85,21.46L53.45,31.03ZM119.07,1.85L105.75,-30.58L197.39,-33.03L198.35,-41.61L183.01,-86.46L139.69,-103.70L98.27,-84.91L83.83,-35.58L100.86,12.92L143.22,29.49L178.22,18.14L193.78,-7.75L176.87,-17.69L164.48,3.77L143.95,11.29ZM106.00,-47.71L118.67,-76.33L140.16,-85.56L164.65,-75.91L175.09,-49.54ZM272.34,-86.42L288.52,-81.53L294.46,-99.75L273.33,-107.11L253.10,-100.25L239.38,-79.99L238.82,-101.36L219.59,-100.85L222.83,21.40L244.23,22.04L242.46,-44.68L249.48,-74.65ZM326.66,-124.34L334.16,-133.00L333.85,-145.07L325.75,-153.52L314.78,-153.23L307.34,-144.40L307.66,-132.33L315.68,-124.05ZM335.63,19.62L332.36,-103.84L310.99,-103.27L314.26,20.18ZM365.91,18.81L387.27,18.25L385.49,-48.94L393.92,-80.91L417.78,-92.51L438.04,-83.78L444.50,-59.06L446.50,16.68L467.87,16.11L465.87,-59.62L456.78,-97.06L421.64,-111.04L398.70,-105.34L382.34,-87.35L381.87,-105.15L362.64,-104.64ZM546.14,65.72L589.87,46.00L599.42,4.55L596.37,-110.84L577.37,-110.33L577.81,-93.71L563.41,-109.11L541.60,-114.72L502.01,-95.07L489.37,-46.69L504.56,0.95L545.13,18.47L564.13,13.40L577.92,0.13L578.10,9.19L571.28,37.02L546.16,47.30L526.24,42.25L518.02,25.71L501.13,34.00L512.51,56.43ZM543.29,-96.58L567.21,-84.97L579.23,-49.05L570.03,-12.59L545.86,0.28L521.68,-11.31L511.18,-47.25L519.76,-83.71ZM-231.83,248.48L-236.36,77.54L-258.91,78.14L-254.39,249.08ZM-197.99,247.58L-176.63,247.02L-178.41,179.83L-169.98,147.86L-146.12,136.26L-125.86,144.98L-119.40,169.71L-117.40,245.45L-96.03,244.88L-98.04,169.14L-107.12,131.71L-142.26,117.73L-165.20,123.43L-181.56,141.42L-182.03,123.61L-201.27,124.12ZM-45.74,190.09L-25.74,189.56L-16.05,196.91L10.58,243.94L29.58,233.00L2.75,188.81L-13.19,180.42L-0.69,167.72L10.20,142.93L17.07,139.58L26.75,137.78L23.38,118.16L5.65,120.39L-5.91,131.02L-18.50,160.44L-26.22,171.75L-46.20,172.28L-48.84,72.56L-59.73,72.85L-70.15,73.13L-65.64,244.07L-44.33,243.51ZM109.81,242.41L118.00,233.61L117.63,221.55L108.90,213.29L96.94,213.67L88.75,222.46L89.13,234.52L97.85,242.78ZM91.55,199.00L112.25,198.45L112.07,191.91L114.80,174.53L125.98,160.04L146.12,139.53L154.96,110.80L138.70,75.58L97.96,63.37L62.01,77.89L48.80,109.99L67.17,117.73L77.24,91.56L98.67,82.73L121.62,89.09L131.94,112.86L126.15,132.67L112.22,147.07L95.72,166.65L91.38,192.46Z" fill="#ffffff" stroke="#000000"/>
    <path d="M-401.25,-181.69L-444.20,-200.69L-459.33,-250.62L-446.49,-301.42L-405.75,-323.07L-372.25,-312.86L-355.60,-284.13L-336.03,-294.82L-357.87,-328.69L-406.36,-342.23L-465.18,-314.00L-483.28,-249.83L-461.14,-186.96L-400.64,-162.54L-353.22,-179.36L-333.91,-213.35L-353.67,-223.50L-370.06,-193.74ZM-231.26,-255.21L-299.47,-231.89L-312.56,-202.25L-299.10,-174.91L-269.01,-167.18L-247.28,-172.13L-227.70,-187.47L-227.35,-173.34L-207.62,-173.97L-210.09,-252.76L-222.35,-288.26L-259.30,-299.41L-291.93,-290.33L-307.15,-265.99L-290.06,-256.22L-279.89,-275.12L-260.91,-282.08L-240.16,-276.72ZM-230.67,-236.53L-229.70,-205.60L-244.23,-192.04L-266.18,-184.53L-282.23,-188.15L-290.05,-203.91L-281.15,-220.81ZM-126.81,-283.13L-110.78,-278.38L-105.00,-296.44L-125.94,-303.61L-145.93,-296.72L-159.39,-276.60L-160.06,-297.74L-179.09,-297.14L-175.24,-176.19L-154.06,-175.67L-156.16,-241.67L-149.37,-271.37ZM-69.01,-347.66L-90.15,-346.99L-84.77,-177.88L-65.98,-178.47L-66.51,-194.91L-52.57,-179.46L-31.27,-174.32L7.80,-193.97L20.07,-241.90L4.78,-288.96L-35.46,-306.08L-54.23,-300.97L-67.11,-287.77ZM-33.06,-192.24L-56.77,-203.59L-68.86,-239.05L-59.95,-275.19L-36.11,-288.07L-12.10,-276.72L-1.52,-241.20L-9.82,-205.09ZM90.40,-310.53L48.90,-291.70L34.28,-242.79L51.99,-194.91L94.59,-178.76L136.08,-197.60L150.72,-246.50L133.02,-294.38ZM94.02,-196.72L68.24,-207.11L55.86,-243.46L65.91,-280.54L90.97,-292.55L116.77,-282.15L129.17,-245.79L119.10,-208.73ZM174.42,-186.12L195.56,-186.79L193.45,-253.26L201.62,-284.94L225.17,-296.54L245.26,-288.01L251.78,-263.58L254.16,-188.65L275.30,-189.33L272.92,-264.25L263.73,-301.25L228.89,-314.90L206.22,-309.14L190.12,-291.24L189.56,-308.86L170.54,-308.26ZM-759.58,-0.21L-778.91,8.81L-759.92,45.76L-708.25,58.83L-665.46,45.03L-646.36,5.55L-659.09,-24.38L-690.24,-39.32L-739.23,-52.23L-751.40,-59.98L-755.76,-72.04L-744.15,-94.10L-718.59,-101.51L-689.24,-92.98L-676.97,-67.34L-657.37,-75.63L-674.09,-109.10L-720.20,-120.64L-760.27,-107.23L-777.81,-69.89L-770.96,-47.15L-741.08,-29.81L-691.41,-17.48L-676.09,-7.44L-670.83,7.53L-680.77,30.23L-709.86,39.71L-743.81,30.38ZM-594.25,26.68L-607.60,-5.35L-516.94,-8.25L-516.03,-16.74L-531.44,-61.04L-574.39,-77.87L-615.28,-59.06L-629.31,-10.18L-612.20,37.72L-570.20,53.89L-535.63,42.48L-520.37,16.78L-537.16,7.03L-549.30,28.34L-569.57,35.88ZM-607.43,-22.30L-595.06,-50.68L-573.84,-59.93L-549.55,-50.51L-539.08,-24.47ZM-412.44,91.17L-391.30,90.50L-396.68,-78.61L-415.47,-78.01L-414.94,-61.34L-429.53,-77.01L-450.82,-82.15L-489.91,-62.50L-502.17,-14.56L-486.89,32.49L-446.63,49.62L-427.87,44.51L-414.34,31.28ZM-449.05,-64.22L-425.33,-52.86L-413.25,-17.39L-422.16,18.74L-446.01,31.60L-469.99,20.26L-480.55,-15.25L-472.27,-51.37ZM-265.97,-82.77L-287.11,-82.10L-285.00,-15.88L-293.15,16.06L-316.69,27.67L-336.80,19.13L-343.34,-5.70L-345.71,-80.23L-366.85,-79.56L-364.47,-4.87L-355.30,32.37L-320.46,46.00L-297.81,39.63L-281.67,22.36L-281.11,39.97L-262.09,39.37ZM-206.93,14.36L-220.28,-17.66L-129.62,-20.57L-128.71,-29.06L-144.12,-73.36L-187.07,-90.19L-227.96,-71.38L-241.99,-22.49L-224.88,25.41L-182.88,41.58L-148.31,30.16L-133.05,4.47L-149.84,-5.29L-161.98,16.02L-182.26,23.56ZM-220.11,-34.62L-207.74,-63.00L-186.52,-72.25L-162.23,-62.82L-151.76,-36.79ZM-92.54,-3.90L-110.24,5.07L-97.51,28.65L-61.00,37.83L-26.75,28.14L-11.86,-1.63L-22.16,-26.39L-43.07,-36.30L-71.79,-43.10L-87.82,-48.93L-93.32,-58.52L-86.91,-70.79L-67.12,-75.84L-47.81,-71.23L-39.09,-55.95L-21.57,-64.90L-32.56,-85.03L-66.89,-93.92L-100.31,-84.20L-113.88,-55.49L-103.78,-33.36L-82.26,-23.93L-51.91,-16.92L-37.51,-10.25L-33.40,0.94L-42.38,15.42L-60.85,19.79L-83.55,13.11ZM63.58,30.65L63.59,30.65L60.57,12.51L51.15,14.23L40.80,9.39L38.49,-5.93L36.26,-76.16L57.16,-76.82L56.64,-93.03L35.74,-92.36L34.40,-134.64L13.26,-133.97L14.60,-91.69L-2.78,-91.14L-2.27,-74.93L15.12,-75.48L17.35,-5.25L23.11,24.08L47.50,33.42ZM112.28,4.21L98.92,-27.81L189.59,-30.72L190.49,-39.21L175.08,-83.51L132.13,-100.34L91.24,-81.53L77.21,-32.64L94.32,15.26L136.32,31.43L170.89,20.01L186.15,-5.68L169.37,-15.44L157.22,5.87L136.95,13.41ZM99.09,-44.77L111.47,-73.15L132.68,-82.40L156.97,-72.97L167.44,-46.94ZM263.47,-83.94L279.51,-79.19L285.28,-97.24L264.34,-104.42L244.36,-97.52L230.89,-77.41L230.22,-98.55L211.20,-97.94L215.04,23.00L236.22,23.52L234.12,-42.48L240.91,-72.17ZM317.01,-121.75L324.39,-130.35L324.03,-142.30L315.97,-150.61L305.11,-150.27L297.80,-141.49L298.17,-129.55L306.16,-121.40ZM326.65,20.65L322.76,-101.49L301.63,-100.82L305.51,21.32ZM356.60,19.70L377.74,19.02L375.63,-47.45L383.80,-79.12L407.35,-90.73L427.44,-82.20L433.96,-57.77L436.34,17.16L457.48,16.49L455.10,-58.44L445.91,-95.43L411.07,-109.08L388.40,-103.32L372.30,-85.43L371.74,-103.05L352.72,-102.44ZM535.18,65.17L578.35,45.42L587.58,4.36L583.95,-109.80L565.16,-109.20L565.69,-92.76L551.35,-107.92L529.74,-113.35L490.68,-93.70L478.42,-45.77L493.70,1.29L533.93,18.41L552.70,13.30L566.29,0.10L566.51,9.06L559.91,36.64L535.10,46.93L515.37,42.04L507.15,25.72L490.48,34.01L501.85,56.15ZM531.51,-95.41L555.24,-84.05L567.32,-48.58L558.41,-12.45L534.56,0.42L510.57,-10.93L500.00,-46.44L508.29,-82.56ZM-233.63,250.07L-239.01,80.96L-261.32,81.67L-255.95,250.78ZM-200.16,249.01L-179.02,248.34L-181.13,181.86L-172.96,150.19L-149.41,138.58L-129.32,147.11L-122.80,171.54L-120.42,246.47L-99.28,245.80L-101.66,170.87L-110.85,133.88L-145.69,120.23L-168.36,125.99L-184.45,143.88L-185.02,126.26L-204.04,126.87ZM-49.81,191.32L-30.03,190.70L-20.39,197.91L6.20,244.31L24.94,233.39L-1.84,189.80L-17.65,181.59L-5.36,168.95L5.30,144.36L12.07,141.02L21.64,139.19L18.21,119.79L0.67,122.09L-10.71,132.67L-23.01,161.85L-30.59,173.08L-50.35,173.71L-53.49,75.05L-64.27,75.39L-74.57,75.73L-69.22,244.84L-48.13,244.17ZM104.38,242.27L112.44,233.53L112.00,221.60L103.32,213.47L91.49,213.90L83.43,222.65L83.87,234.58L92.55,242.71ZM86.08,199.42L106.56,198.77L106.35,192.30L108.96,175.09L119.94,160.69L139.76,140.30L148.36,111.82L132.08,77.06L91.71,65.19L56.22,79.74L43.31,111.57L61.53,119.14L71.36,93.19L92.52,84.34L115.26,90.51L125.60,113.98L119.97,133.61L106.26,147.93L90.04,167.39L85.87,192.95Z" fill="#ffffff" stroke="#000000"/>
    <path d="M-403.40,-174.66L-445.99,-193.22L-461.23,-242.54L-448.79,-292.87L-408.59,-314.50L-375.39,-304.59L-358.77,-276.24L-339.46,-286.92L-361.25,-320.32L-409.29,-333.45L-467.34,-305.22L-484.92,-241.64L-462.68,-179.56L-402.70,-155.71L-355.87,-172.60L-336.95,-206.33L-356.55,-216.27L-372.61,-186.75ZM-235.61,-248.29L-302.97,-224.86L-315.76,-195.46L-302.30,-168.49L-272.50,-161.00L-251.02,-166.00L-231.73,-181.29L-231.31,-167.31L-211.79,-168.03L-214.65,-245.97L-226.97,-281.03L-263.58,-291.86L-295.81,-282.72L-310.75,-258.55L-293.78,-248.97L-283.82,-267.73L-265.08,-274.71L-244.52,-269.52ZM-234.93,-229.80L-233.80,-199.22L-248.11,-185.71L-269.79,-178.17L-285.68,-181.67L-293.51,-197.22L-284.79,-213.99ZM-132.42,-276.46L-116.53,-271.84L-110.91,-289.73L-131.66,-296.72L-151.40,-289.80L-164.61,-269.83L-165.39,-290.74L-184.21,-290.04L-179.77,-170.40L-158.82,-170.00L-161.24,-235.29L-154.67,-264.70ZM-75.57,-340.60L-96.48,-339.83L-90.28,-172.54L-71.69,-173.23L-72.29,-189.49L-58.42,-174.28L-37.32,-169.30L1.23,-188.95L13.12,-236.44L-2.26,-282.91L-42.16,-299.64L-60.70,-294.48L-73.37,-281.36ZM-39.19,-187.02L-62.70,-198.13L-74.85,-233.15L-66.23,-268.95L-42.70,-281.81L-18.89,-270.71L-8.24,-235.62L-16.26,-199.85ZM82.33,-304.70L41.38,-285.86L27.17,-237.39L44.94,-190.11L87.17,-174.36L128.13,-193.21L142.35,-241.67L124.59,-288.94ZM86.51,-192.12L60.95,-202.26L48.51,-238.16L58.27,-274.90L82.99,-286.91L108.57,-276.76L121.03,-240.86L111.26,-204.13ZM166.12,-182.05L187.03,-182.83L184.59,-248.58L192.50,-279.96L215.74,-291.57L235.66,-283.23L242.24,-259.10L244.99,-184.98L265.90,-185.76L263.15,-259.87L253.87,-296.43L219.33,-309.75L196.93,-303.93L181.10,-286.14L180.45,-303.57L161.63,-302.87ZM-756.96,6.77L-776.04,15.80L-757.06,52.25L-705.87,64.91L-663.61,51.04L-644.91,11.88L-657.67,-17.67L-688.56,-32.29L-737.10,-44.81L-749.18,-52.41L-753.56,-64.31L-742.19,-86.20L-716.94,-93.67L-687.86,-85.38L-675.58,-60.08L-656.24,-68.38L-672.95,-101.41L-718.63,-112.58L-758.20,-99.11L-775.37,-62.08L-768.47,-39.61L-738.82,-22.61L-689.60,-10.68L-674.40,-0.82L-669.12,13.96L-678.84,36.48L-707.56,46.00L-741.20,36.95ZM-593.25,32.50L-606.63,0.89L-516.95,-2.46L-516.09,-10.86L-531.57,-54.61L-574.15,-71.03L-614.51,-52.22L-628.13,-3.77L-610.95,43.53L-569.32,59.30L-535.18,47.83L-520.21,22.33L-536.87,12.77L-548.77,33.91L-568.79,41.48ZM-606.55,-15.88L-594.46,-44.03L-573.52,-53.29L-549.43,-44.09L-538.94,-18.39ZM-413.04,95.36L-392.13,94.58L-398.34,-72.70L-416.92,-72.01L-416.31,-55.51L-430.83,-70.94L-451.92,-75.91L-490.49,-56.27L-502.37,-8.78L-487.00,37.70L-447.09,54.43L-428.55,49.27L-415.24,36.11ZM-450.08,-58.19L-426.55,-47.08L-414.41,-12.04L-423.03,23.75L-446.56,36.60L-470.35,25.50L-480.98,-9.57L-472.98,-45.35ZM-269.04,-77.50L-289.95,-76.72L-287.52,-11.22L-295.42,20.42L-318.65,32.03L-338.58,23.69L-345.18,-0.84L-347.92,-74.57L-368.83,-73.80L-366.09,0.09L-356.82,36.88L-322.27,50.19L-299.90,43.76L-284.03,26.59L-283.38,44.02L-264.56,43.32ZM-210.12,18.29L-223.50,-13.32L-133.82,-16.67L-132.97,-25.08L-148.44,-68.83L-191.03,-85.25L-231.38,-66.43L-245.00,-17.99L-227.83,29.31L-186.19,45.09L-152.05,33.61L-137.08,8.11L-153.74,-1.45L-165.64,19.69L-185.66,27.26ZM-223.42,-30.10L-211.33,-58.24L-190.39,-67.50L-166.31,-58.31L-155.81,-32.61ZM-97.05,-0.38L-114.51,8.59L-101.80,31.85L-65.63,40.74L-31.79,30.97L-17.22,1.45L-27.53,-22.99L-48.27,-32.70L-76.72,-39.26L-92.61,-44.96L-98.11,-54.42L-91.82,-66.58L-72.28,-71.69L-53.15,-67.23L-44.44,-52.15L-27.15,-61.10L-38.13,-80.96L-72.14,-89.57L-105.15,-79.78L-118.43,-51.31L-108.32,-29.47L-86.98,-20.25L-56.92,-13.48L-42.63,-6.95L-38.51,4.10L-47.32,18.48L-65.58,22.89L-88.06,16.41ZM57.59,32.99L57.60,32.98L54.52,15.05L45.21,16.80L34.94,12.07L32.57,-3.07L30.00,-72.54L50.68,-73.31L50.08,-89.34L29.40,-88.57L27.85,-130.39L6.94,-129.62L8.49,-87.80L-8.70,-87.16L-8.11,-71.13L9.09,-71.76L11.66,-2.29L17.52,26.70L41.70,35.81ZM105.63,6.57L92.25,-25.04L181.93,-28.39L182.79,-36.80L167.31,-80.54L124.73,-96.97L84.37,-78.15L70.75,-29.70L87.92,17.60L129.56,33.37L163.70,21.90L178.67,-3.60L162.01,-13.16L150.11,7.98L130.09,15.54ZM92.33,-41.81L104.42,-69.96L125.36,-79.22L149.44,-70.02L159.94,-44.32ZM254.75,-81.43L270.64,-76.82L276.26,-94.71L255.51,-101.69L235.77,-94.77L222.56,-74.80L221.78,-95.71L202.96,-95.01L207.40,24.62L228.35,25.03L225.93,-40.26L232.50,-69.67ZM307.53,-119.12L314.78,-127.67L314.36,-139.49L306.34,-147.67L295.60,-147.27L288.41,-138.55L288.84,-126.74L296.79,-118.72ZM317.80,21.71L313.32,-99.11L292.41,-98.33L296.89,22.49ZM347.43,20.61L368.34,19.84L365.90,-45.92L373.82,-77.30L397.06,-88.90L416.98,-80.57L423.56,-56.43L426.31,17.69L447.22,16.91L444.47,-57.21L435.19,-93.76L400.64,-107.08L378.25,-101.26L362.42,-83.48L361.77,-100.90L342.95,-100.20ZM524.35,64.66L566.95,44.90L575.87,4.23L571.68,-108.69L553.10,-108.00L553.70,-91.74L539.44,-106.66L518.03,-111.92L479.48,-92.28L467.61,-44.79L482.97,1.68L522.87,18.41L541.41,13.26L554.78,0.12L555.05,8.99L548.66,36.31L524.17,46.62L504.63,41.89L496.41,25.79L479.96,34.07L491.33,55.92ZM519.88,-94.18L543.41,-83.07L555.55,-48.04L546.92,-12.25L523.40,0.61L499.60,-10.49L488.95,-45.57L496.97,-81.35ZM-235.31,251.63L-241.51,84.34L-263.58,85.16L-257.38,252.45ZM-202.19,250.40L-181.28,249.62L-183.72,183.87L-175.81,152.49L-152.57,140.89L-132.64,149.22L-126.07,173.36L-123.32,247.47L-102.41,246.70L-105.16,172.58L-114.44,136.03L-148.98,122.71L-171.38,128.52L-187.21,146.31L-187.86,128.88L-206.67,129.58ZM-53.75,192.54L-34.18,191.82L-24.61,198.91L1.94,244.67L20.42,233.76L-6.30,190.78L-21.99,182.74L-9.89,170.18L0.52,145.79L7.21,142.45L16.67,140.58L13.17,121.41L-4.17,123.78L-15.37,134.30L-27.39,163.24L-34.83,174.39L-54.38,175.12L-58.00,77.52L-68.66,77.92L-78.85,78.31L-72.67,245.59L-51.81,244.82ZM99.06,242.14L106.99,233.45L106.50,221.65L97.87,213.65L86.16,214.14L78.24,222.84L78.73,234.64L87.36,242.63ZM80.74,199.84L100.99,199.09L100.75,192.69L103.25,175.65L114.03,161.35L133.54,141.06L141.90,112.84L125.61,78.54L85.60,67.01L50.57,81.59L37.96,113.15L56.03,120.54L65.62,94.82L86.50,85.95L109.03,91.94L119.38,115.10L113.92,134.55L100.43,148.79L84.48,168.13L80.50,193.44Z" fill="#ffffff" stroke="#000000"/>
    <path d="M-405.37,-167.67L-447.60,-185.82L-462.93,-234.52L-450.89,-284.37L-411.24,-305.99L-378.35,-296.35L-361.75,-268.40L-342.71,-279.06L-364.44,-311.99L-412.03,-324.73L-469.31,-296.50L-486.36,-233.51L-464.04,-172.21L-404.58,-148.93L-358.34,-165.89L-339.80,-199.35L-359.24,-209.08L-374.97,-179.79ZM-239.77,-241.39L-306.28,-217.86L-318.78,-188.71L-305.33,-162.10L-275.80,-154.84L-254.58,-159.91L-235.59,-175.13L-235.09,-161.30L-215.79,-162.12L-219.03,-239.21L-231.40,-273.83L-267.67,-284.35L-299.51,-275.13L-314.15,-251.15L-297.32,-241.76L-287.57,-260.36L-269.06,-267.37L-248.70,-262.34ZM-239.00,-223.11L-237.73,-192.85L-251.81,-179.42L-273.21,-171.85L-288.96,-175.22L-296.78,-190.57L-288.24,-207.20ZM-137.84,-269.80L-122.10,-265.31L-116.63,-283.04L-137.20,-289.85L-156.69,-282.89L-169.65,-263.07L-170.53,-283.75L-189.14,-282.96L-184.13,-164.64L-163.40,-164.34L-166.13,-228.92L-159.79,-258.05ZM-81.94,-333.55L-102.62,-332.67L-95.61,-167.22L-77.22,-168.00L-77.90,-184.08L-64.10,-169.10L-43.21,-164.30L-5.17,-183.93L6.34,-230.97L-9.11,-276.86L-48.67,-293.21L-66.99,-288.00L-79.46,-274.95ZM-45.14,-181.81L-68.47,-192.68L-80.67,-227.26L-72.33,-262.72L-49.12,-275.57L-25.50,-264.70L-14.79,-230.05L-22.53,-194.63ZM74.45,-298.86L34.04,-280.00L20.24,-231.99L38.06,-185.31L79.92,-169.95L120.34,-188.81L134.16,-236.82L116.33,-283.49ZM79.17,-187.52L53.84,-197.42L41.34,-232.86L50.80,-269.25L75.20,-281.27L100.55,-271.36L113.07,-235.91L103.60,-199.53ZM157.98,-177.97L178.66,-178.85L175.90,-243.88L183.57,-274.97L206.49,-286.57L226.24,-278.43L232.88,-254.59L235.99,-181.28L256.67,-182.16L253.56,-255.46L244.18,-291.57L209.94,-304.57L187.82,-298.70L172.25,-281.02L171.52,-298.26L152.91,-297.47ZM-754.17,13.66L-773.00,22.69L-754.03,58.65L-703.33,70.90L-661.59,56.96L-643.31,18.12L-656.08,-11.04L-686.72,-25.35L-734.80,-37.47L-746.79,-44.93L-751.19,-56.68L-740.05,-78.40L-715.11,-85.91L-686.30,-77.86L-674.02,-52.90L-654.93,-61.22L-671.64,-93.80L-716.88,-104.61L-755.96,-91.07L-772.74,-54.35L-765.80,-32.16L-736.38,-15.51L-687.63,-3.96L-672.54,5.72L-667.24,20.31L-676.74,42.63L-705.10,52.20L-738.43,43.43ZM-592.09,38.25L-605.49,7.05L-516.79,3.27L-515.99,-5.05L-531.53,-48.24L-573.74,-64.27L-613.56,-45.44L-626.79,2.55L-609.55,49.25L-568.28,64.64L-534.56,53.11L-519.89,27.80L-536.42,18.43L-548.09,39.41L-567.85,47.00ZM-605.50,-9.54L-593.68,-37.44L-573.02,-46.72L-549.15,-37.75L-538.63,-12.38ZM-413.49,99.49L-392.81,98.61L-399.83,-66.84L-418.21,-66.06L-417.52,-49.74L-431.96,-64.93L-452.85,-69.73L-490.90,-50.10L-502.40,-3.06L-486.96,42.83L-447.39,59.18L-429.07,53.98L-415.98,40.89ZM-450.94,-52.21L-427.60,-41.34L-415.41,-6.75L-423.75,28.70L-446.96,41.54L-470.55,30.68L-481.25,-3.96L-473.52,-39.39ZM-271.95,-72.26L-292.63,-71.38L-289.89,-6.60L-297.53,24.74L-320.45,36.34L-340.21,28.20L-346.87,3.97L-349.96,-68.95L-370.64,-68.08L-367.54,5.00L-358.19,41.34L-323.94,54.33L-301.84,47.85L-286.23,30.79L-285.50,48.02L-266.88,47.23ZM-213.16,22.18L-226.56,-9.02L-137.86,-12.80L-137.06,-21.12L-152.60,-64.32L-194.81,-80.34L-234.63,-61.51L-247.86,-13.52L-230.62,33.18L-189.35,48.57L-155.63,37.04L-140.96,11.73L-157.49,2.36L-169.16,23.34L-188.92,30.93ZM-226.57,-25.61L-214.75,-53.51L-194.09,-62.79L-170.22,-53.82L-159.70,-28.45ZM-101.41,3.13L-118.63,12.08L-105.93,35.04L-70.10,43.64L-36.68,33.80L-22.42,4.52L-32.75,-19.61L-53.32,-29.10L-81.50,-35.45L-97.25,-41.00L-102.73,-50.33L-96.58,-62.39L-77.27,-67.55L-58.32,-63.23L-49.63,-48.37L-32.58,-57.31L-43.55,-76.90L-77.23,-85.24L-109.84,-75.38L-122.82,-47.14L-112.71,-25.59L-91.55,-16.58L-61.78,-10.04L-47.61,-3.66L-43.47,7.25L-52.12,21.52L-70.15,25.98L-92.42,19.68ZM51.75,35.32L51.75,35.32L48.61,17.60L39.41,19.38L29.23,14.75L26.81,-0.22L23.90,-68.92L44.35,-69.79L43.68,-85.65L23.22,-84.78L21.47,-126.14L0.79,-125.27L2.54,-83.90L-14.46,-83.18L-13.79,-67.33L3.21,-68.05L6.13,0.66L12.07,29.31L36.04,38.20ZM99.13,8.94L85.73,-22.26L174.43,-26.04L175.23,-34.37L159.68,-77.56L117.48,-93.58L77.66,-74.76L64.43,-26.76L81.67,19.94L122.94,35.33L156.66,23.80L171.32,-1.51L154.80,-10.88L143.13,10.10L123.37,17.69ZM85.72,-38.86L97.53,-66.76L118.20,-76.03L142.07,-67.06L152.59,-41.69ZM246.18,-78.90L261.93,-74.42L267.39,-92.14L246.82,-98.95L227.34,-91.99L214.37,-72.17L213.49,-92.85L194.88,-92.06L199.90,26.26L220.63,26.56L217.89,-38.02L224.23,-67.15ZM298.19,-116.46L305.32,-124.95L304.84,-136.64L296.87,-144.69L286.25,-144.24L279.18,-135.57L279.67,-123.90L287.57,-116.01ZM309.10,22.80L304.03,-96.69L283.35,-95.81L288.42,23.68ZM338.40,21.56L359.08,20.68L356.33,-44.35L363.99,-75.43L386.92,-87.03L406.67,-78.89L413.30,-55.05L416.41,18.25L437.09,17.38L433.98,-55.93L424.61,-92.04L390.37,-105.04L368.24,-99.16L352.68,-81.49L351.95,-98.72L333.33,-97.93ZM513.64,64.21L555.69,44.43L564.30,4.15L559.56,-107.53L541.18,-106.75L541.86,-90.66L527.67,-105.35L506.47,-110.44L468.44,-90.81L456.95,-43.77L472.38,2.12L511.94,18.47L530.26,13.27L543.41,0.20L543.72,8.98L537.55,36.03L513.38,46.36L494.01,41.78L485.80,25.90L469.58,34.18L480.93,55.73ZM508.39,-92.90L531.73,-82.03L543.92,-47.44L535.57,-11.99L512.37,0.85L488.77,-10.00L478.05,-44.65L485.80,-80.08ZM-236.85,253.14L-243.87,87.69L-265.70,88.62L-258.68,254.07ZM-204.10,251.75L-183.42,250.88L-186.18,185.85L-178.51,154.76L-155.58,143.16L-135.83,151.30L-129.20,175.14L-126.09,248.45L-105.41,247.57L-108.52,174.26L-117.89,138.15L-152.13,125.16L-174.26,131.03L-189.82,148.71L-190.56,131.47L-209.17,132.26ZM-57.56,193.74L-38.20,192.92L-28.70,199.89L-2.19,245.02L16.03,234.13L-10.63,191.75L-26.19,183.88L-14.29,171.39L-4.12,147.21L2.48,143.87L11.83,141.97L8.26,123.03L-8.87,125.46L-19.90,135.93L-31.63,164.62L-38.94,175.69L-58.27,176.51L-62.37,79.98L-72.91,80.43L-82.99,80.87L-76.00,246.32L-55.37,245.45ZM93.87,242.01L101.66,233.36L101.11,221.69L92.54,213.83L80.96,214.38L73.16,223.02L73.72,234.69L82.29,242.55ZM75.52,200.26L95.55,199.41L95.28,193.08L97.66,176.21L108.25,162.00L127.44,141.84L135.56,113.87L119.27,80.03L79.63,68.83L45.05,83.44L32.75,114.72L50.66,121.94L60.01,96.44L80.62,87.56L102.94,93.37L113.30,116.23L108.00,135.50L94.73,149.65L79.06,168.87L75.25,193.93Z" fill="#ffffff" stroke="#000000"/>
    <path d="M-407.16,-160.74L-449.03,-178.46L-464.44,-226.56L-452.80,-275.93L-413.69,-297.51L-381.10,-288.15L-364.55,-260.59L-345.77,-271.24L-367.43,-303.69L-414.57,-316.05L-471.08,-287.82L-487.62,-225.43L-465.22,-164.92L-406.28,-142.20L-360.64,-159.22L-342.47,-192.41L-361.75,-201.94L-377.16,-172.88ZM-243.75,-234.52L-309.42,-210.89L-321.63,-182.00L-308.18,-155.75L-278.94,-148.72L-257.97,-153.85L-239.26,-169.00L-238.70,-155.33L-219.61,-156.24L-223.22,-232.47L-235.64,-266.65L-271.57,-276.86L-303.01,-267.58L-317.37,-243.78L-300.68,-234.58L-291.12,-253.04L-272.86,-260.07L-252.69,-255.20ZM-242.89,-216.44L-241.47,-186.52L-255.33,-173.16L-276.47,-165.56L-292.05,-168.82L-299.87,-183.95L-291.51,-200.44ZM-143.08,-263.15L-127.48,-258.80L-122.17,-276.36L-142.55,-282.99L-161.79,-276.01L-174.51,-256.33L-175.49,-276.78L-193.89,-275.90L-188.31,-158.89L-167.80,-158.71L-170.85,-222.57L-164.73,-251.42ZM-88.12,-326.50L-108.57,-325.52L-100.77,-161.91L-82.59,-162.78L-83.35,-178.69L-69.62,-163.94L-48.92,-159.29L-11.40,-178.91L-0.26,-225.50L-15.79,-270.81L-55.00,-286.77L-73.09,-281.53L-85.36,-268.55ZM-50.93,-176.61L-74.05,-187.24L-86.30,-221.37L-78.24,-256.49L-55.35,-269.32L-31.94,-258.70L-21.15,-224.48L-28.63,-189.40ZM66.75,-293.01L26.88,-274.15L13.48,-226.58L31.35,-180.51L72.84,-165.53L112.71,-184.40L126.13,-231.96L108.26,-278.03ZM72.01,-182.90L46.90,-192.56L34.35,-227.56L43.51,-263.60L67.58,-275.61L92.71,-265.95L105.28,-230.94L96.10,-194.91ZM150.00,-173.88L170.45,-174.85L167.38,-239.16L174.80,-269.95L197.42,-281.54L217.00,-273.60L223.68,-250.05L227.14,-177.56L247.60,-178.53L244.14,-251.02L234.67,-286.69L200.74,-299.37L178.88,-293.44L163.58,-275.88L162.77,-292.92L144.36,-292.04ZM-751.22,20.45L-769.79,29.48L-750.84,64.95L-700.63,76.81L-659.42,62.79L-641.53,24.28L-654.32,-4.49L-684.70,-18.48L-732.32,-30.23L-744.22,-37.54L-748.63,-49.14L-737.73,-70.68L-713.10,-78.24L-684.56,-70.43L-672.29,-45.81L-653.44,-54.13L-670.14,-86.27L-714.95,-96.73L-753.53,-83.13L-769.94,-46.73L-762.96,-24.81L-733.77,-8.49L-685.49,2.68L-670.51,12.17L-665.19,26.57L-674.47,48.70L-702.48,58.32L-735.49,49.81ZM-590.77,43.93L-604.19,13.14L-516.47,8.93L-515.73,0.70L-531.33,-41.95L-573.16,-57.58L-612.45,-38.74L-625.28,8.80L-607.98,54.90L-567.08,69.90L-533.79,58.32L-519.41,33.21L-535.81,24.03L-547.24,44.84L-566.75,52.45ZM-604.29,-3.28L-592.74,-30.94L-572.35,-40.22L-548.69,-31.47L-538.16,-6.43ZM-413.79,103.56L-393.34,102.59L-401.15,-61.03L-419.33,-60.16L-418.56,-44.03L-432.93,-58.97L-453.62,-63.62L-491.15,-44.00L-502.27,2.59L-486.76,47.91L-447.53,63.86L-429.45,58.63L-416.56,45.61ZM-451.63,-46.30L-428.48,-35.66L-416.25,-1.51L-424.32,33.59L-447.20,46.41L-470.59,35.80L-481.36,1.59L-473.90,-33.50ZM-274.69,-67.06L-295.15,-66.09L-292.09,-2.03L-299.49,29.02L-322.09,40.62L-341.68,32.66L-348.40,8.73L-351.84,-63.38L-372.29,-62.41L-368.84,9.86L-359.39,45.76L-325.45,58.42L-303.63,51.90L-288.28,34.94L-287.46,51.98L-269.06,51.10ZM-216.05,26.04L-229.47,-4.75L-141.75,-8.95L-141.01,-17.19L-156.60,-59.83L-198.44,-75.46L-237.73,-56.63L-250.55,-9.09L-233.26,37.02L-192.35,52.02L-159.07,40.44L-144.69,15.33L-161.09,6.15L-172.52,26.96L-192.03,34.57ZM-229.57,-21.16L-218.02,-48.82L-197.63,-58.10L-173.97,-49.35L-163.44,-24.31ZM-105.61,6.61L-122.60,15.56L-109.92,38.20L-74.44,46.52L-41.43,36.61L-27.48,7.57L-37.82,-16.24L-58.22,-25.52L-86.12,-31.65L-101.73,-37.05L-107.20,-46.25L-101.18,-58.22L-82.11,-63.42L-63.34,-59.25L-54.67,-44.59L-37.85,-53.53L-48.80,-72.85L-82.16,-80.92L-114.36,-71.00L-127.06,-43.00L-116.94,-21.74L-95.97,-12.93L-66.48,-6.62L-52.43,-0.38L-48.29,10.38L-56.76,24.54L-74.57,29.05L-96.64,22.94ZM46.05,37.65L46.05,37.65L42.85,20.14L33.76,21.95L23.67,17.42L21.19,2.63L17.95,-65.31L38.18,-66.28L37.43,-81.96L17.20,-80.99L15.25,-121.90L-5.20,-120.92L-3.25,-80.02L-20.06,-79.21L-19.32,-63.53L-2.50,-64.34L0.74,3.61L6.77,31.92L30.52,40.58ZM92.77,11.31L79.36,-19.48L167.07,-23.69L167.82,-31.92L152.22,-74.57L110.38,-90.19L71.10,-71.36L58.27,-23.82L75.56,22.28L116.47,37.28L149.75,25.70L164.13,0.60L147.73,-8.59L136.30,12.22L116.80,19.84ZM79.26,-35.90L90.80,-63.56L111.19,-72.84L134.85,-64.09L145.38,-39.05ZM237.77,-76.34L253.36,-71.99L258.67,-89.55L238.29,-96.18L219.06,-89.20L206.33,-69.52L205.36,-89.97L186.95,-89.09L192.54,27.92L213.04,28.10L210.00,-35.76L216.11,-64.61ZM289.01,-113.76L296.02,-122.21L295.49,-133.76L287.56,-141.69L277.05,-141.18L270.11,-132.57L270.65,-121.03L278.51,-113.26ZM300.53,23.92L294.89,-94.24L274.44,-93.27L280.08,24.90ZM329.51,22.54L349.96,21.56L346.89,-42.75L354.31,-73.53L376.93,-85.13L396.51,-77.18L403.19,-53.63L406.65,18.86L427.10,17.88L423.64,-54.61L414.18,-90.28L380.25,-102.95L358.39,-97.03L343.09,-79.46L342.28,-96.50L323.87,-95.63ZM503.07,63.81L544.55,44.02L552.85,4.14L547.58,-106.30L529.41,-105.43L530.16,-89.53L516.06,-103.98L495.06,-108.91L457.54,-89.29L446.42,-42.70L461.93,2.61L501.14,18.57L519.23,13.33L532.17,0.34L532.53,9.02L526.56,35.81L502.71,46.16L483.53,41.73L475.32,26.06L459.32,34.34L470.67,55.59ZM497.05,-91.57L520.19,-80.94L532.42,-46.79L524.36,-11.68L501.47,1.14L478.07,-9.47L467.29,-43.68L474.77,-78.77ZM-238.27,254.62L-246.08,91.00L-267.67,92.03L-259.86,255.65ZM-205.88,253.07L-185.43,252.10L-188.50,187.79L-181.08,157.00L-158.46,145.40L-138.88,153.35L-132.20,176.90L-128.74,249.39L-108.29,248.41L-111.75,175.92L-121.21,140.25L-155.14,127.58L-177.00,133.50L-192.30,151.07L-193.12,134.03L-211.52,134.91ZM-61.24,194.92L-42.10,194.01L-32.67,200.85L-6.21,245.35L11.76,234.49L-14.83,192.71L-30.26,185.00L-18.56,172.59L-8.62,148.62L-2.12,145.28L7.12,143.35L3.49,124.63L-13.44,127.13L-24.30,137.54L-35.75,165.98L-42.91,176.97L-62.04,177.88L-66.59,82.43L-77.02,82.93L-86.99,83.41L-79.20,247.03L-58.81,246.05ZM88.79,241.87L96.46,233.28L95.85,221.74L87.33,214.00L75.88,214.61L68.21,223.19L68.82,234.74L77.34,242.47ZM70.42,200.67L90.23,199.72L89.93,193.46L92.19,176.77L102.60,162.66L121.47,142.61L129.36,114.91L113.07,81.52L73.80,70.65L39.68,85.28L27.67,116.29L45.42,123.33L54.54,98.07L74.88,89.17L96.99,94.80L107.35,117.36L102.21,136.44L89.16,150.52L73.76,169.60L70.12,194.41Z" fill="#ffffff" stroke="#000000"/>
    <path d="M-408.77,-153.85L-450.27,-171.16L-465.77,-218.65L-454.51,-267.54L-415.95,-289.09L-383.67,-280.00L-367.15,-252.83L-348.63,-263.46L-370.23,-295.44L-416.92,-307.42L-472.65,-279.21L-488.68,-217.42L-466.21,-157.68L-407.80,-135.53L-362.75,-152.59L-344.96,-185.52L-364.08,-194.84L-379.16,-166.02ZM-247.55,-227.68L-312.37,-203.97L-324.29,-175.33L-310.85,-149.44L-281.90,-142.64L-261.19,-147.82L-242.77,-162.91L-242.14,-149.39L-223.26,-150.39L-227.23,-225.76L-239.69,-259.50L-275.28,-269.41L-306.33,-260.06L-320.41,-236.45L-303.85,-227.45L-294.50,-245.75L-276.47,-252.79L-256.50,-248.08ZM-246.60,-209.80L-245.04,-180.22L-258.68,-166.94L-279.54,-159.31L-294.97,-162.45L-302.78,-177.37L-294.61,-193.73ZM-148.13,-256.52L-132.68,-252.30L-127.52,-269.70L-147.71,-276.14L-166.70,-269.14L-179.18,-249.61L-180.25,-269.83L-198.45,-268.87L-192.32,-153.18L-172.04,-153.10L-175.38,-216.24L-169.49,-244.80ZM-94.11,-319.46L-114.33,-318.39L-105.75,-156.62L-87.78,-157.57L-88.61,-173.30L-74.96,-158.79L-54.47,-154.30L-17.46,-173.90L-6.69,-220.03L-22.28,-264.77L-61.15,-280.35L-79.02,-275.07L-91.07,-262.17ZM-56.54,-171.42L-79.47,-181.81L-91.76,-215.50L-83.97,-250.28L-61.40,-263.09L-38.19,-252.71L-27.35,-218.92L-34.56,-184.19ZM59.23,-287.15L19.90,-268.29L6.89,-221.18L24.81,-175.70L65.92,-161.11L105.26,-179.98L118.28,-227.08L100.36,-272.56ZM65.01,-178.29L40.12,-187.71L27.53,-222.25L36.40,-257.95L60.14,-269.95L85.05,-260.53L97.66,-225.97L88.77,-190.29ZM142.19,-169.77L162.41,-170.84L159.04,-234.43L166.22,-264.91L188.52,-276.50L207.93,-268.74L214.66,-245.49L218.46,-173.81L238.69,-174.89L234.89,-246.56L225.34,-281.79L191.71,-294.14L170.13,-288.17L155.09,-270.72L154.19,-287.57L135.99,-286.60ZM-748.10,27.14L-766.42,36.17L-747.49,71.15L-697.76,82.61L-657.08,68.54L-639.60,30.36L-652.39,1.97L-682.51,-11.71L-729.67,-23.07L-741.48,-30.24L-745.90,-41.69L-735.23,-63.05L-710.91,-70.66L-682.65,-63.09L-670.38,-38.80L-651.79,-47.13L-668.47,-78.83L-712.84,-88.94L-750.92,-75.29L-766.96,-39.20L-759.94,-17.56L-730.99,-1.57L-683.19,9.22L-668.32,18.53L-662.98,32.75L-672.04,54.68L-699.69,64.34L-732.38,56.10ZM-589.29,49.52L-602.72,19.14L-515.99,14.52L-515.30,6.37L-530.95,-35.72L-572.40,-50.96L-611.16,-32.13L-623.60,14.96L-606.25,60.46L-565.72,75.09L-532.86,63.46L-518.77,38.55L-535.04,29.56L-546.23,50.20L-565.49,57.83ZM-602.90,2.91L-591.63,-24.51L-571.51,-33.80L-548.07,-25.27L-537.52,-0.56ZM-413.95,107.57L-393.73,106.50L-402.30,-55.27L-420.28,-54.32L-419.43,-38.37L-433.72,-53.07L-454.21,-57.56L-491.22,-37.96L-501.98,8.18L-486.40,52.91L-447.52,68.49L-429.66,63.22L-416.99,50.28ZM-452.15,-40.44L-429.21,-30.04L-416.93,3.67L-424.72,38.43L-447.29,51.23L-470.47,40.86L-481.31,7.08L-474.11,-27.66ZM-277.27,-61.90L-297.49,-60.83L-294.14,2.51L-301.29,33.25L-323.59,44.84L-343.00,37.07L-349.77,13.44L-353.55,-57.86L-373.77,-56.79L-369.98,14.66L-360.45,50.12L-326.82,62.47L-305.26,55.90L-290.17,39.05L-289.28,55.90L-271.08,54.93ZM-218.78,29.87L-232.22,-0.51L-145.49,-5.13L-144.79,-13.28L-160.44,-55.37L-201.90,-70.61L-240.66,-51.77L-253.09,-4.69L-235.75,40.81L-195.22,55.44L-162.36,43.81L-148.27,18.90L-164.54,9.91L-175.73,30.55L-194.98,38.18ZM-232.40,-16.74L-221.13,-44.16L-201.01,-53.44L-177.57,-44.92L-167.02,-20.21ZM-109.66,10.07L-126.42,19.01L-113.76,41.34L-78.62,49.38L-46.03,39.40L-32.39,10.61L-42.74,-12.88L-62.96,-21.95L-90.59,-27.87L-106.06,-33.13L-111.51,-42.20L-105.62,-54.07L-86.79,-59.31L-68.21,-55.29L-59.55,-40.84L-42.96,-49.76L-53.89,-68.81L-86.93,-76.62L-118.72,-66.63L-131.13,-38.88L-121.01,-17.90L-100.23,-9.31L-71.03,-3.22L-57.11,2.88L-52.95,13.51L-61.26,27.55L-78.85,32.11L-100.70,26.18ZM40.49,39.98L40.49,39.98L37.24,22.67L28.25,24.51L18.25,20.09L15.72,5.47L12.16,-61.71L32.16,-62.77L31.34,-78.27L11.34,-77.21L9.20,-117.65L-11.03,-116.58L-8.88,-76.14L-25.51,-75.25L-24.69,-59.75L-8.06,-60.63L-4.50,6.55L1.61,34.51L25.15,42.96ZM86.56,13.68L73.13,-16.70L159.86,-21.32L160.55,-29.47L144.90,-71.56L103.45,-86.80L64.69,-67.97L52.25,-20.88L69.60,24.62L110.13,39.25L142.99,27.62L157.08,2.71L140.81,-6.28L129.62,14.36L110.37,21.99ZM72.95,-32.93L84.22,-60.35L104.34,-69.64L127.78,-61.11L138.33,-36.40ZM229.50,-73.76L244.95,-69.54L250.11,-86.94L229.92,-93.39L210.93,-86.38L198.45,-66.85L197.38,-87.07L179.18,-86.11L185.31,29.58L205.60,29.65L202.25,-33.48L208.15,-62.05ZM279.99,-111.04L286.87,-119.43L286.28,-130.86L278.40,-138.65L268.01,-138.10L261.19,-129.55L261.79,-118.13L269.60,-110.49ZM292.10,25.07L285.90,-91.77L265.68,-90.70L271.88,26.14ZM320.75,23.55L340.97,22.47L337.60,-41.11L344.78,-71.60L367.09,-83.18L386.49,-75.43L393.23,-52.17L397.03,19.50L417.25,18.43L413.45,-53.24L403.90,-88.47L370.28,-100.83L348.69,-94.86L333.65,-77.40L332.76,-94.25L314.56,-93.29ZM492.62,63.45L533.54,43.67L541.54,4.18L535.75,-105.02L517.78,-104.07L518.61,-88.34L504.58,-102.56L483.79,-107.32L446.79,-87.72L436.03,-41.59L451.61,3.15L490.47,18.72L508.34,13.45L521.07,0.53L521.47,9.11L515.71,35.64L492.17,46.00L473.18,41.72L464.98,26.26L449.20,34.54L460.53,55.50ZM485.85,-90.18L508.79,-79.79L521.07,-46.08L513.28,-11.32L490.71,1.48L467.51,-8.89L456.67,-42.67L463.88,-77.41ZM-239.56,256.05L-248.14,94.27L-269.49,95.40L-260.91,257.18ZM-207.54,254.35L-187.32,253.28L-190.69,189.69L-183.52,159.20L-161.21,147.62L-141.80,155.37L-135.07,178.63L-131.27,250.30L-111.05,249.23L-114.85,177.56L-124.39,142.33L-158.02,129.97L-179.60,135.95L-194.64,153.40L-195.54,136.55L-213.74,137.51ZM-64.80,196.08L-45.87,195.08L-36.50,201.79L-10.11,245.66L7.61,234.83L-18.91,193.65L-34.21,186.11L-22.70,173.77L-13.00,150.01L-6.58,146.67L2.54,144.72L-1.14,126.22L-17.88,128.78L-28.56,139.14L-39.74,167.32L-46.76,178.23L-65.67,179.23L-70.68,84.85L-80.99,85.40L-90.85,85.93L-82.29,247.71L-62.12,246.64ZM83.83,241.72L91.37,233.19L90.71,221.78L82.24,214.17L70.92,214.83L63.38,223.36L64.04,234.77L72.51,242.38ZM65.45,201.07L85.03,200.04L84.70,193.84L86.86,177.32L97.07,163.31L115.63,143.39L123.29,115.95L107.00,83.01L68.11,72.47L34.44,87.12L22.72,117.85L40.32,124.72L49.20,99.68L69.27,90.78L91.17,96.23L101.54,118.49L96.55,137.39L83.72,151.37L68.59,170.33L65.12,194.88Z" fill="#ffffff" stroke="#000000"/>
    <path d="M-906.35,492L-906.35,469.28L-898.22,492L-894.99,492L-886.86,469.28L-886.86,492L-883.25,492L-883.25,464.64L-888.22,464.64L-896.55,487.33L-904.68,464.64L-909.96,464.64L-909.96,492ZM-865.67,478.75L-876.82,482.17L-879.09,486.89L-877.05,491.38L-872.23,492.78L-868.69,492.09L-865.45,489.71L-865.46,492L-862.27,492L-862.27,479.25L-864.06,473.45L-869.98,471.46L-875.30,472.76L-877.88,476.62L-875.17,478.28L-873.43,475.28L-870.33,474.25L-867.00,475.23ZM-865.67,481.77L-865.68,486.77L-868.09,488.89L-871.68,489.99L-874.26,489.33L-875.44,486.74L-873.91,484.05ZM-857.12,492L-853.70,492L-853.70,481.25L-852.22,476.17L-848.35,474.41L-845.15,475.90L-844.22,479.88L-844.22,492L-840.80,492L-840.80,479.88L-842.09,473.85L-847.66,471.47L-851.35,472.28L-854.04,475.09L-854.04,472.24L-857.12,472.24ZM-833.34,468.94L-832.11,467.58L-832.10,465.65L-833.36,464.27L-835.12,464.27L-836.35,465.65L-836.35,467.58L-835.10,468.94ZM-832.52,492L-832.52,472.24L-835.94,472.24L-835.94,492ZM-818.31,468.12L-817.85,465.29L-820.94,464.71L-825.30,466.41L-826.70,471.29L-826.70,472.24L-829.67,472.24L-829.67,474.86L-826.70,474.86L-826.70,492L-823.40,492L-823.40,474.86L-819.56,474.86L-819.56,472.24L-823.40,472.24L-823.40,471.21L-822.75,468.65L-820.52,467.74ZM-807.97,471.46L-814.77,474.29L-817.39,482.12L-814.77,489.95L-807.97,492.78L-801.17,489.95L-798.55,482.12L-801.16,474.29ZM-807.97,489.87L-812.08,488.06L-813.90,482.12L-812.08,476.18L-807.97,474.37L-803.85,476.18L-802.04,482.12L-803.85,488.06ZM-795.03,492L-791.61,492L-791.61,481.25L-790.13,476.17L-786.26,474.41L-783.06,475.90L-782.13,479.88L-782.13,492L-778.71,492L-778.71,479.88L-780.00,473.85L-785.56,471.47L-789.26,472.28L-791.95,475.09L-791.95,472.24L-795.03,472.24ZM-765.45,492.27L-765.45,492.26L-765.85,489.32L-767.38,489.55L-769.03,488.71L-769.32,486.22L-769.32,474.86L-765.94,474.86L-765.94,472.24L-769.32,472.24L-769.32,465.40L-772.74,465.40L-772.74,472.24L-775.55,472.24L-775.55,474.86L-772.74,474.86L-772.74,486.22L-771.96,491.00L-768.07,492.63ZM-737.50,487.93L-737.50,478.13L-749.05,478.13L-749.05,481.31L-740.99,481.31L-740.97,486.22L-748.63,489.75L-755.95,486.41L-758.55,478.32L-756.06,470.17L-749.21,466.88L-744.27,468.25L-741.30,473.01L-738.24,471.11L-741.44,465.93L-749.13,463.79L-758.98,468.04L-762.42,478.32L-758.78,488.60L-748.74,492.86ZM-724.35,474.77L-721.78,475.62L-720.76,472.73L-724.11,471.47L-727.37,472.48L-729.65,475.66L-729.65,472.24L-732.73,472.24L-732.73,491.81L-729.31,492L-729.31,481.32L-728.06,476.56ZM-710.01,471.46L-716.81,474.29L-719.42,482.12L-716.81,489.95L-710.01,492.78L-703.20,489.95L-700.58,482.12L-703.20,474.29ZM-710.01,489.87L-714.12,488.06L-715.93,482.12L-714.12,476.18L-710.01,474.37L-705.89,476.18L-704.07,482.12L-705.89,488.06ZM-688.58,492.27L-688.58,492.26L-688.97,489.32L-690.51,489.55L-692.15,488.71L-692.45,486.22L-692.45,474.86L-689.07,474.86L-689.07,472.24L-692.45,472.24L-692.45,465.40L-695.87,465.40L-695.87,472.24L-698.68,472.24L-698.68,474.86L-695.87,474.86L-695.87,486.22L-695.09,491.00L-691.19,492.63ZM-680.57,488.24L-682.57,483.00L-667.90,482.99L-667.71,481.63L-669.97,474.39L-676.83,471.45L-683.53,474.28L-686.05,482.11L-683.53,489.93L-676.83,492.76L-671.18,491.10L-668.58,487.02L-671.25,485.36L-673.32,488.74L-676.63,489.86ZM-682.45,480.26L-680.31,475.73L-676.83,474.35L-672.95,476.00L-671.40,480.26ZM-661.99,485.88L-664.90,487.24L-662.96,491.11L-657.11,492.78L-651.52,491.39L-648.97,486.66L-650.50,482.61L-653.83,480.90L-658.44,479.65L-661.00,478.62L-661.84,477.05L-660.74,475.10L-657.52,474.38L-654.42,475.23L-653.09,477.74L-650.21,476.38L-651.88,473.07L-657.39,471.46L-662.84,472.86L-665.18,477.43L-663.66,481.06L-660.23,482.69L-655.36,483.98L-653.07,485.13L-652.46,486.96L-653.99,489.26L-656.99,489.87L-660.63,488.67ZM-641.92,483.45L-638.72,483.45L-637.20,484.67L-633.14,492.30L-630.05,490.63L-634.16,483.45L-636.67,482.04L-634.62,480.06L-632.77,476.14L-631.66,475.64L-630.10,475.39L-630.56,472.24L-633.40,472.52L-635.30,474.17L-637.43,478.82L-638.72,480.60L-641.91,480.60L-641.91,464.64L-643.66,464.64L-645.32,464.64L-645.33,492L-641.92,492ZM-625.58,492.01L-615.04,492.01L-607.42,490.45L-604.53,484.21L-606.06,480.03L-610.31,477.70L-606.80,475.27L-605.82,471.62L-608.58,466.13L-615.58,464.63L-625.58,464.63ZM-621.94,476.42L-621.95,467.89L-616.40,467.89L-611.64,468.44L-609.62,472.08L-611.57,475.51L-615.93,476.42ZM-621.94,488.79L-621.94,479.64L-615.54,479.64L-610.64,480.53L-608.45,484.21L-610.32,488.02L-615.04,488.79ZM-592.40,471.46L-599.20,474.29L-601.81,482.12L-599.20,489.95L-592.40,492.78L-585.59,489.95L-582.97,482.12L-585.59,474.29ZM-592.40,489.87L-596.51,488.06L-598.32,482.12L-596.51,476.18L-592.40,474.37L-588.28,476.18L-586.46,482.12L-588.28,488.06ZM-571.27,471.46L-578.07,474.29L-580.68,482.12L-578.07,489.95L-571.27,492.78L-564.46,489.95L-561.85,482.12L-564.46,474.29ZM-571.27,489.87L-575.38,488.06L-577.19,482.12L-575.38,476.18L-571.27,474.37L-567.15,476.18L-565.33,482.12L-567.15,488.06ZM-554.82,483.45L-551.62,483.45L-550.10,484.67L-546.04,492.30L-542.96,490.63L-547.06,483.45L-549.57,482.04L-547.52,480.06L-545.67,476.14L-544.56,475.64L-543.00,475.39L-543.46,472.24L-546.31,472.52L-548.20,474.17L-550.34,478.82L-551.62,480.60L-554.82,480.60L-554.82,464.64L-556.56,464.64L-558.23,464.64L-558.23,492L-554.82,492Z"/>
</svg>