<?xml version="1.0"?>
<svg xmlns="http://www.w3.org/2000/svg" width="1920" height="1080" viewBox="-960 -540 1920 1080">
    <path d="M-435.63,-210L-373.63,-210L-373.63,-215L-396.13,-222.50L-396.13,-282.75L-381.63,-282.75C-340.88,-282.75 -311.63,-303 -311.63,-330.25C-311.63,-361.25 -337.63,-375 -376.88,-375L-435.63,-375L-435.63,-370L-415.63,-362.50L-415.63,-222.50L-435.63,-215ZM-377.63,-363.25C-349.38,-363.25 -332.63,-353 -332.63,-328.25C-332.63,-308.25 -349.63,-294.50 -375.88,-294.50L-396.13,-294.50L-396.13,-363.25ZM-284.63,-210L-233.63,-210L-233.63,-214L-251.88,-220.25L-251.88,-294.75C-245.13,-304.25 -237.88,-308.50 -229.63,-308.50C-226.13,-308.50 -222.88,-308 -219.63,-306.75L-212.13,-303.50L-210.88,-303.50L-206.88,-313.50C-206.13,-315 -206.13,-316.25 -206.13,-317.25C-206.13,-319.75 -208.88,-321.50 -212.38,-323C-214.38,-324 -218.13,-325 -220.88,-325C-229.63,-325 -236.38,-323 -251.38,-303.25L-252.13,-303.25L-253.88,-325L-255.88,-325L-285.13,-314.50L-285.13,-311.75L-268.88,-303.25L-268.88,-220.25L-284.63,-214ZM-137.13,-207.50C-105.38,-207.50 -83.63,-232.75 -83.63,-266.25C-83.63,-299.75 -105.38,-325 -137.13,-325C-168.88,-325 -190.63,-299.75 -190.63,-266.25C-190.63,-232.75 -168.88,-207.50 -137.13,-207.50ZM-133.63,-216.25C-159.38,-216.25 -172.13,-242.50 -172.13,-271.50C-172.13,-295.25 -161.38,-316.50 -140.13,-316.50C-114.13,-316.50 -102.13,-290 -102.13,-261.25C-102.13,-238.50 -112.13,-216.25 -133.63,-216.25ZM-34.38,-359C-26.88,-359 -21.63,-364.50 -21.63,-371.75C-21.63,-379.25 -26.88,-384.50 -34.38,-384.50C-41.63,-384.50 -47.13,-379.25 -47.13,-371.75C-47.13,-364.50 -41.63,-359 -34.38,-359ZM-56.63,-152.50C-29.88,-166 -23.88,-184.75 -23.88,-210L-23.88,-325L-25.88,-325L-57.13,-315.50L-57.13,-313L-40.88,-303.25L-40.88,-208.50C-40.88,-180.50 -43.88,-168.50 -56.63,-156.50ZM69.13,-207.50C88.88,-207.50 104.13,-218 111.63,-231.25L111.63,-234L110.88,-234C100.63,-226.75 88.88,-223 76.88,-223C45.88,-223 32.88,-244.25 32.88,-270.50C32.88,-271.25 32.88,-271.75 32.88,-272.50L110.63,-272.50L111.63,-273.50C110.63,-306.25 94.88,-325 68.63,-325C40.63,-325 16.13,-298.25 16.13,-262.50C16.13,-230 35.63,-207.50 69.13,-207.50ZM64.88,-316.25C81.88,-316.25 91.38,-304.75 94.88,-281.50L33.63,-281.50C36.63,-303.50 48.88,-316.25 64.88,-316.25ZM189.63,-207.50C209.38,-207.50 224.63,-218 232.13,-231.25L232.13,-234L231.38,-234C221.13,-226.75 209.13,-223 197.38,-223C166.63,-223 153.63,-244.25 153.63,-270.50C153.63,-300 167.38,-316.25 187.63,-316.25C199.38,-316.25 206.88,-310.50 212.88,-302.50L219.13,-294L220.63,-294L229.13,-301C231.13,-302.50 231.63,-304 231.63,-305.75C231.63,-308.25 229.63,-310.75 226.13,-314.25C219.63,-320.25 206.88,-325 193.63,-325C161.13,-325 136.88,-298.75 136.88,-262.50C136.88,-230 156.38,-207.50 189.63,-207.50ZM294.38,-207.50C309.38,-207.50 318.63,-215.50 321.88,-222.25L321.88,-224L321.38,-224.25C316.88,-222.50 311.13,-221.25 304.38,-221.25C293.88,-221.25 285.88,-225.75 285.88,-235L285.88,-312L318.88,-312L318.88,-322.50L285.88,-322.50L285.88,-350L283.88,-350L270.13,-322.50L247.88,-314L247.88,-312L268.88,-312L268.88,-232.25C268.88,-216.50 280.13,-207.50 294.38,-207.50ZM-626.50,65.10L-561.25,65.10C-509,65.10 -472.75,28.60 -472.75,-24.90C-472.75,-67.90 -504.25,-99.90 -559.50,-99.90L-626.50,-99.90L-626.50,-94.90L-606.50,-87.40L-606.50,52.60L-626.50,60.10ZM-562,-88.15C-518,-88.15 -493.25,-60.15 -493.25,-17.15C-493.25,25.10 -519,53.35 -559.25,53.35L-587,53.35L-587,-88.15ZM-441.25,65.10L-390.25,65.10L-390.25,61.10L-408.50,54.85L-408.50,-19.65C-401.75,-29.15 -394.50,-33.40 -386.25,-33.40C-382.75,-33.40 -379.50,-32.90 -376.25,-31.65L-368.75,-28.40L-367.50,-28.40L-363.50,-38.40C-362.75,-39.90 -362.75,-41.15 -362.75,-42.15C-362.75,-44.65 -365.50,-46.40 -369,-47.90C-371,-48.90 -374.75,-49.90 -377.50,-49.90C-386.25,-49.90 -393,-47.90 -408,-28.15L-408.75,-28.15L-410.50,-49.90L-412.50,-49.90L-441.75,-39.40L-441.75,-36.65L-425.50,-28.15L-425.50,54.85L-441.25,61.10ZM-320.75,67.60C-306.75,67.60 -293.75,61.10 -285,52.60L-284,52.60C-281.75,61.35 -275.50,67.60 -264.50,67.60C-254.25,67.60 -247.25,61.85 -244,56.10L-244,55.60L-244.50,55.10L-255.50,55.10C-262,55.10 -265.75,53.60 -268.25,51.10L-268.25,-22.65C-268.25,-42.65 -284,-49.90 -302.75,-49.90C-312.75,-49.90 -322.75,-45.40 -332,-39.40C-340.75,-33.90 -345,-26.15 -345,-19.15C-345,-13.65 -343.50,-12.65 -338.50,-12.65L-328,-12.65L-326.75,-13.90L-326.75,-22.15C-326.75,-33.15 -322.25,-39.90 -308.75,-39.90C-296.75,-39.90 -285,-30.40 -285,-17.90L-285,1.35L-309.25,7.35C-337,14.10 -348,25.35 -348,41.60C-348,57.85 -336.50,67.60 -320.75,67.60ZM-331.25,36.85C-331.25,24.60 -325.50,16.60 -285,8.60L-285,47.85C-294.50,52.35 -303,54.35 -311.25,54.35C-324,54.35 -331.25,48.60 -331.25,36.85ZM-193.25,65.60L-189,65.60L-152,-19.90L-116.25,65.60L-112,65.60L-72.50,-36.40L-55,-43.40L-55,-47.40L-102,-47.40L-102,-43.40L-83,-36.40L-83,-35.15L-108.50,39.60L-109.50,39.60L-145,-47.40L-149.50,-47.40L-185,40.35L-185.75,40.35L-212,-36.15L-212,-37.40L-192,-43.40L-192,-47.40L-247,-47.40L-247,-43.40L-230.75,-36.90ZM-44.50,65.10L20.75,65.10C73,65.10 109.25,28.60 109.25,-24.90C109.25,-67.90 77.75,-99.90 22.50,-99.90L-44.50,-99.90L-44.50,-94.90L-24.50,-87.40L-24.50,52.60L-44.50,60.10ZM20,-88.15C64,-88.15 88.75,-60.15 88.75,-17.15C88.75,25.10 63,53.35 22.75,53.35L-5,53.35L-5,-88.15ZM192.75,67.60C224.50,67.60 246.25,42.35 246.25,8.85C246.25,-24.65 224.50,-49.90 192.75,-49.90C161,-49.90 139.25,-24.65 139.25,8.85C139.25,42.35 161,67.60 192.75,67.60ZM196.25,58.85C170.50,58.85 157.75,32.60 157.75,3.60C157.75,-20.15 168.50,-41.40 189.75,-41.40C215.75,-41.40 227.75,-14.90 227.75,13.85C227.75,36.60 217.75,58.85 196.25,58.85ZM306.75,65.60L311,65.60L348,-19.90L383.75,65.60L388,65.60L427.50,-36.40L445,-43.40L445,-47.40L398,-47.40L398,-43.40L417,-36.40L417,-35.15L391.50,39.60L390.50,39.60L355,-47.40L350.50,-47.40L315,40.35L314.25,40.35L288,-36.15L288,-37.40L308,-43.40L308,-47.40L253,-47.40L253,-43.40L269.25,-36.90ZM452.25,65.10L502.75,65.10L502.75,61.10L485,54.85L485,-23.90C491.75,-31.15 504.50,-34.90 513.75,-34.90C529.50,-34.90 540.50,-25.90 540.50,-8.90L540.50,54.85L522.75,61.10L522.75,65.10L573.25,65.10L573.25,61.10L557.50,54.85L557.50,-18.65C557.50,-39.15 543,-49.90 523,-49.90C509,-49.90 498.25,-44.15 485.75,-31.65L484.75,-31.65L483,-49.90L481,-49.90L451.75,-39.40L451.75,-36.65L468,-28.15L468,54.85L452.25,61.10Z" fill="#ffffff" stroke="#000000"/>
    <path d="M-436.68,-206.05L-375.30,-205.89L-375.29,-210.84L-397.55,-218.32L-397.39,-277.97L-383.04,-277.93C-342.70,-277.83 -313.69,-297.80 -313.62,-324.78C-313.54,-355.47 -339.24,-369.15 -378.10,-369.25L-436.26,-369.40L-436.28,-364.45L-416.50,-356.97L-416.85,-218.37L-436.67,-211.00ZM-378.87,-357.62C-350.91,-357.55 -334.35,-347.36 -334.41,-322.85C-334.46,-303.05 -351.33,-289.49 -377.32,-289.55L-397.36,-289.60L-397.19,-357.67ZM-287.19,-205.67L-236.70,-205.54L-236.69,-209.50L-254.74,-215.73L-254.56,-289.49C-247.85,-298.87 -240.66,-303.06 -232.49,-303.04C-229.03,-303.03 -225.81,-302.53 -222.60,-301.28L-215.18,-298.05L-213.94,-298.04L-209.96,-307.93C-209.21,-309.42 -209.21,-310.65 -209.21,-311.64C-209.20,-314.12 -211.92,-315.86 -215.38,-317.35C-217.36,-318.35 -221.07,-319.35 -223.79,-319.35C-232.45,-319.38 -239.14,-317.41 -254.04,-297.90L-254.78,-297.90L-256.46,-319.44L-258.44,-319.44L-287.42,-309.12L-287.43,-306.40L-271.36,-297.94L-271.57,-215.77L-287.18,-209.63ZM-141.17,-202.82C-109.74,-202.74 -88.15,-227.68 -88.06,-260.84C-87.98,-294.01 -109.44,-319.06 -140.88,-319.14C-172.31,-319.22 -193.91,-294.28 -193.99,-261.12C-194.08,-227.95 -172.61,-202.90 -141.17,-202.82ZM-137.69,-211.47C-163.18,-211.54 -175.74,-237.56 -175.66,-266.27C-175.60,-289.78 -164.91,-310.79 -143.87,-310.73C-118.13,-310.67 -106.32,-284.40 -106.39,-255.94C-106.45,-233.42 -116.40,-211.42 -137.69,-211.47ZM-39.07,-352.54C-31.64,-352.52 -26.43,-357.95 -26.41,-365.13C-26.39,-372.56 -31.58,-377.77 -39.00,-377.79C-46.18,-377.80 -51.64,-372.62 -51.66,-365.20C-51.68,-358.02 -46.25,-352.56 -39.07,-352.54ZM-61.62,-148.16C-35.10,-161.46 -29.12,-180.01 -29.05,-205.01L-28.76,-318.85L-30.74,-318.86L-61.70,-309.53L-61.71,-307.06L-45.64,-297.37L-45.89,-203.56C-45.96,-175.84 -48.96,-163.97 -61.61,-152.12ZM63.01,-202.29C82.56,-202.24 97.69,-212.60 105.15,-225.70L105.15,-228.42L104.41,-228.42C94.25,-221.27 82.60,-217.59 70.72,-217.62C40.03,-217.70 27.22,-238.77 27.28,-264.76C27.29,-265.50 27.29,-265.99 27.29,-266.74L104.26,-266.54L105.25,-267.53C104.35,-299.95 88.80,-318.55 62.81,-318.62C35.09,-318.69 10.77,-292.27 10.68,-256.88C10.60,-224.70 29.85,-202.38 63.01,-202.29ZM59.08,-309.97C75.91,-309.92 85.29,-298.52 88.69,-275.49L28.05,-275.64C31.08,-297.42 43.24,-310.01 59.08,-309.97ZM182.31,-201.99C201.86,-201.94 216.98,-212.30 224.44,-225.39L224.45,-228.12L223.71,-228.12C213.54,-220.97 201.65,-217.28 190.02,-217.31C159.58,-217.39 146.76,-238.46 146.83,-264.45C146.90,-293.65 160.55,-309.71 180.60,-309.66C192.23,-309.63 199.65,-303.91 205.56,-295.98L211.73,-287.55L213.22,-287.54L221.65,-294.45C223.63,-295.93 224.13,-297.42 224.14,-299.15C224.14,-301.62 222.17,-304.10 218.71,-307.58C212.29,-313.53 199.68,-318.27 186.56,-318.30C154.39,-318.39 130.32,-292.46 130.22,-256.57C130.14,-224.40 149.39,-202.07 182.31,-201.99ZM286.01,-201.72C300.86,-201.69 310.04,-209.58 313.27,-216.26L313.28,-217.99L312.78,-218.24C308.32,-216.52 302.63,-215.29 295.94,-215.31C285.55,-215.34 277.64,-219.81 277.66,-228.97L277.86,-305.20L310.53,-305.12L310.56,-315.51L277.89,-315.59L277.95,-342.82L275.97,-342.82L262.29,-315.63L240.24,-307.28L240.24,-305.30L261.03,-305.24L260.83,-226.29C260.79,-210.70 271.90,-201.76 286.01,-201.72ZM-626.35,65.82L-561.75,65.98C-510.02,66.11 -474.04,30.07 -473.91,-22.89C-473.80,-65.46 -504.90,-97.22 -559.60,-97.36L-625.93,-97.53L-625.94,-92.58L-606.16,-85.11L-606.51,53.49L-626.33,60.87ZM-562.10,-85.74C-518.54,-85.63 -494.11,-57.84 -494.22,-15.27C-494.33,26.55 -519.89,54.46 -559.74,54.35L-587.21,54.28L-586.85,-85.80ZM-442.95,66.29L-392.46,66.41L-392.45,62.45L-410.50,56.22L-410.31,-17.53C-403.60,-26.92 -396.42,-31.11 -388.25,-31.09C-384.78,-31.08 -381.57,-30.58 -378.35,-29.33L-370.94,-26.10L-369.70,-26.09L-365.71,-35.98C-364.97,-37.47 -364.96,-38.70 -364.96,-39.69C-364.96,-42.17 -367.67,-43.91 -371.13,-45.40C-373.11,-46.40 -376.82,-47.40 -379.54,-47.40C-388.21,-47.43 -394.89,-45.46 -409.79,-25.95L-410.54,-25.95L-412.21,-47.49L-414.19,-47.49L-443.18,-37.17L-443.19,-34.45L-427.12,-25.99L-427.33,56.18L-442.94,62.33ZM-323.66,69.07C-309.80,69.10 -296.91,62.70 -288.23,54.31L-287.24,54.31C-285.03,62.98 -278.86,69.18 -267.97,69.21C-257.83,69.23 -250.88,63.56 -247.65,57.88L-247.65,57.38L-248.14,56.88L-259.03,56.86C-265.47,56.84 -269.18,55.34 -271.64,52.86L-271.46,-20.15C-271.41,-39.95 -286.98,-47.17 -305.54,-47.21C-315.44,-47.24 -325.35,-42.81 -334.53,-36.89C-343.20,-31.47 -347.43,-23.81 -347.45,-16.88C-347.46,-11.43 -345.98,-10.44 -341.03,-10.43L-330.63,-10.40L-329.39,-11.63L-329.37,-19.80C-329.34,-30.69 -324.87,-37.36 -311.51,-37.33C-299.63,-37.30 -288.02,-27.86 -288.05,-15.49L-288.10,3.57L-312.12,9.45C-339.61,16.06 -350.53,27.17 -350.57,43.26C-350.61,59.34 -339.25,69.03 -323.66,69.07ZM-333.98,38.60C-333.95,26.47 -328.23,18.56 -288.12,10.75L-288.22,49.60C-297.63,54.03 -306.05,55.99 -314.22,55.97C-326.84,55.94 -334.01,50.23 -333.98,38.60ZM-197.43,67.41L-193.22,67.42L-156.38,-17.13L-121.20,67.60L-116.99,67.61L-77.63,-33.26L-60.29,-40.15L-60.28,-44.11L-106.81,-44.23L-106.82,-40.27L-88.03,-33.29L-88.03,-32.05L-113.46,41.88L-114.45,41.88L-149.38,-44.34L-153.83,-44.35L-189.20,42.43L-189.94,42.43L-215.74,-33.37L-215.73,-34.61L-195.92,-40.50L-195.91,-44.46L-250.36,-44.60L-250.37,-40.64L-234.30,-34.16ZM-50.17,67.29L14.43,67.46C66.16,67.59 102.14,31.55 102.27,-21.42C102.38,-63.99 71.28,-95.75 16.58,-95.89L-49.75,-96.06L-49.76,-91.11L-29.98,-83.63L-30.34,54.97L-50.15,62.34ZM14.08,-84.26C57.64,-84.15 82.07,-56.37 81.96,-13.80C81.85,28.03 56.29,55.93 16.44,55.83L-11.03,55.76L-10.67,-84.33ZM184.70,70.37C216.14,70.45 237.73,45.51 237.82,12.34C237.90,-20.82 216.43,-45.88 185.00,-45.96C153.57,-46.04 131.97,-21.10 131.89,12.07C131.80,45.23 153.27,70.29 184.70,70.37ZM188.19,61.71C162.70,61.65 150.14,35.63 150.22,6.92C150.28,-16.59 160.97,-37.60 182.01,-37.55C207.75,-37.48 219.56,-11.22 219.49,17.24C219.43,39.77 209.48,61.77 188.19,61.71ZM297.57,68.68L301.78,68.69L338.62,-15.86L373.80,68.87L378.00,68.88L417.37,-32.00L434.71,-38.88L434.72,-42.84L388.19,-42.96L388.18,-39.00L406.97,-32.02L406.97,-30.79L381.54,43.15L380.55,43.15L345.62,-43.07L341.17,-43.08L305.80,43.70L305.06,43.70L279.26,-32.10L279.27,-33.34L299.08,-39.23L299.09,-43.19L244.64,-43.33L244.63,-39.37L260.70,-32.89ZM441.61,68.55L491.61,68.68L491.62,64.72L474.06,58.49L474.26,-19.48C480.96,-26.64 493.59,-30.32 502.75,-30.29C518.34,-30.25 529.21,-21.32 529.17,-4.49L529.01,58.63L511.42,64.77L511.41,68.73L561.40,68.86L561.41,64.90L545.84,58.67L546.02,-14.10C546.07,-34.39 531.75,-45.07 511.95,-45.12C498.09,-45.16 487.43,-39.49 475.02,-27.15L474.03,-27.15L472.35,-45.22L470.37,-45.23L441.38,-34.91L441.38,-32.18L457.44,-23.73L457.23,58.44L441.62,64.59Z" fill="#ffffff" stroke="#000000"/>
    <path d="M-437.64,-202.16L-376.88,-201.85L-376.86,-206.75L-398.87,-214.22L-398.57,-273.26L-384.36,-273.19C-344.42,-272.98 -315.66,-292.68 -315.52,-319.38C-315.37,-349.76 -340.78,-363.37 -379.24,-363.57L-436.81,-363.86L-436.84,-358.96L-417.28,-351.51L-417.98,-214.31L-437.62,-207.06ZM-380.03,-352.06C-352.35,-351.91 -335.99,-341.79 -336.11,-317.53C-336.21,-297.93 -352.94,-284.54 -378.66,-284.67L-398.51,-284.77L-398.16,-352.15ZM-289.66,-201.41L-239.69,-201.15L-239.67,-205.07L-257.52,-211.29L-257.14,-284.30C-250.48,-293.57 -243.36,-297.70 -235.27,-297.66C-231.84,-297.64 -228.66,-297.13 -225.48,-295.89L-218.15,-292.67L-216.92,-292.66L-212.95,-302.44C-212.21,-303.91 -212.20,-305.14 -212.20,-306.12C-212.19,-308.57 -214.87,-310.29 -218.29,-311.78C-220.25,-312.77 -223.92,-313.77 -226.61,-313.78C-235.19,-313.83 -241.81,-311.90 -256.61,-292.62L-257.35,-292.63L-258.95,-313.95L-260.91,-313.96L-289.63,-303.82L-289.64,-301.12L-273.76,-292.71L-274.18,-211.37L-289.64,-205.33ZM-145.13,-198.22C-114.01,-198.06 -92.57,-222.69 -92.41,-255.52C-92.24,-288.35 -113.43,-313.20 -144.54,-313.36C-175.65,-313.52 -197.10,-288.89 -197.26,-256.06C-197.43,-223.23 -176.24,-198.38 -145.13,-198.22ZM-141.66,-206.77C-166.89,-206.90 -179.25,-232.69 -179.11,-261.11C-178.99,-284.39 -168.35,-305.16 -147.52,-305.05C-122.04,-304.92 -110.42,-278.89 -110.56,-250.71C-110.67,-228.42 -120.59,-206.67 -141.66,-206.77ZM-43.68,-346.17C-36.33,-346.13 -31.15,-351.49 -31.12,-358.60C-31.08,-365.95 -36.20,-371.12 -43.55,-371.16C-50.65,-371.19 -56.07,-366.08 -56.11,-358.73C-56.14,-351.62 -50.78,-346.20 -43.68,-346.17ZM-66.52,-143.91C-40.23,-157.01 -34.26,-175.35 -34.13,-200.10L-33.56,-312.80L-35.52,-312.81L-66.19,-303.65L-66.20,-301.20L-50.33,-291.57L-50.80,-198.71C-50.94,-171.27 -53.94,-159.53 -66.50,-147.83ZM56.99,-197.18C76.35,-197.08 91.35,-207.29 98.76,-220.24L98.78,-222.94L98.04,-222.94C87.96,-215.89 76.43,-212.27 64.67,-212.33C34.29,-212.49 21.65,-233.38 21.78,-259.10C21.79,-259.84 21.79,-260.33 21.79,-261.06L97.99,-260.67L98.97,-261.65C98.16,-293.75 82.82,-312.20 57.09,-312.33C29.65,-312.47 5.51,-286.38 5.33,-251.35C5.17,-219.50 24.16,-197.35 56.99,-197.18ZM53.37,-303.78C70.03,-303.69 79.29,-292.37 82.60,-269.57L22.57,-269.88C25.63,-291.42 37.69,-303.86 53.37,-303.78ZM175.08,-196.58C194.44,-196.48 209.43,-206.69 216.85,-219.64L216.86,-222.33L216.13,-222.34C206.05,-215.28 194.27,-211.67 182.75,-211.73C152.62,-211.88 139.99,-232.77 140.12,-258.50C140.27,-287.41 153.82,-303.26 173.67,-303.16C185.18,-303.10 192.50,-297.43 198.34,-289.56L204.43,-281.20L205.90,-281.19L214.26,-288.01C216.23,-289.47 216.73,-290.93 216.73,-292.65C216.75,-295.10 214.80,-297.56 211.39,-301.01C205.05,-306.92 192.58,-311.64 179.59,-311.70C147.74,-311.87 123.85,-286.26 123.66,-250.74C123.50,-218.89 142.50,-196.74 175.08,-196.58ZM277.74,-196.05C292.43,-195.97 301.54,-203.77 304.76,-210.37L304.77,-212.08L304.28,-212.33C299.86,-210.64 294.22,-209.44 287.60,-209.47C277.31,-209.53 269.50,-213.98 269.54,-223.04L269.93,-298.50L302.27,-298.34L302.32,-308.63L269.98,-308.79L270.12,-335.74L268.16,-335.75L254.55,-308.87L232.70,-300.65L232.69,-298.69L253.27,-298.59L252.87,-220.43C252.79,-205.00 263.77,-196.12 277.74,-196.05ZM-626.08,66.47L-562.13,66.80C-510.93,67.06 -475.22,31.47 -474.95,-20.95C-474.74,-63.09 -505.45,-94.61 -559.59,-94.89L-625.25,-95.23L-625.28,-90.33L-605.71,-82.87L-606.42,54.32L-626.05,61.57ZM-562.10,-83.39C-518.98,-83.17 -494.87,-55.60 -495.08,-13.46C-495.29,27.94 -520.67,55.50 -560.12,55.30L-587.31,55.16L-586.60,-83.51ZM-444.54,67.40L-394.56,67.66L-394.54,63.74L-412.39,57.52L-412.02,-15.49C-405.35,-24.76 -398.23,-28.89 -390.14,-28.85C-386.71,-28.83 -383.53,-28.33 -380.35,-27.09L-373.02,-23.86L-371.79,-23.86L-367.82,-33.64C-367.08,-35.10 -367.07,-36.33 -367.07,-37.31C-367.06,-39.76 -369.74,-41.49 -373.16,-42.97C-375.12,-43.96 -378.79,-44.96 -381.48,-44.98C-390.06,-45.02 -396.68,-43.09 -411.48,-23.81L-412.22,-23.82L-413.82,-45.14L-415.78,-45.15L-444.50,-35.01L-444.52,-32.31L-428.63,-23.90L-429.05,57.44L-444.52,63.48ZM-326.46,70.46C-312.74,70.53 -299.97,64.22 -291.35,55.94L-290.37,55.94C-288.21,64.53 -282.12,70.68 -271.34,70.74C-261.29,70.79 -254.40,65.19 -251.19,59.57L-251.19,59.08L-251.67,58.59L-262.45,58.53C-268.82,58.50 -272.49,57.01 -274.93,54.55L-274.56,-17.72C-274.46,-37.32 -289.86,-44.51 -308.23,-44.60C-318.03,-44.65 -327.85,-40.29 -336.95,-34.46C-345.55,-29.11 -349.75,-21.54 -349.79,-14.68C-349.82,-9.29 -348.35,-8.30 -343.45,-8.28L-333.16,-8.22L-331.93,-9.44L-331.89,-17.53C-331.83,-28.31 -327.39,-34.90 -314.16,-34.83C-302.40,-34.77 -290.93,-25.40 -291.00,-13.15L-291.09,5.71L-314.89,11.47C-342.12,17.95 -352.95,28.92 -353.03,44.84C-353.12,60.77 -341.89,70.38 -326.46,70.46ZM-336.60,40.27C-336.53,28.26 -330.86,20.45 -291.13,12.82L-291.33,51.28C-300.66,55.64 -309.00,57.56 -317.08,57.52C-329.58,57.46 -336.65,51.78 -336.60,40.27ZM-201.50,69.14L-197.34,69.16L-160.65,-14.44L-126.04,69.52L-121.88,69.54L-82.66,-30.22L-65.47,-36.99L-65.45,-40.91L-111.51,-41.14L-111.53,-37.22L-92.95,-30.27L-92.95,-29.04L-118.32,44.08L-119.30,44.08L-153.65,-41.36L-158.06,-41.38L-193.29,44.43L-194.03,44.43L-219.37,-30.67L-219.36,-31.90L-199.73,-37.68L-199.71,-41.60L-253.61,-41.87L-253.63,-37.95L-237.74,-31.50ZM-55.73,69.39L8.22,69.72C59.42,69.98 95.13,34.40 95.40,-18.03C95.61,-60.17 64.91,-91.69 10.76,-91.97L-54.90,-92.30L-54.92,-87.40L-35.36,-79.95L-36.06,57.24L-55.70,64.49ZM8.25,-80.47C51.37,-80.24 75.49,-52.68 75.27,-10.54C75.06,30.86 49.68,58.42 10.24,58.22L-16.96,58.08L-16.25,-80.59ZM176.76,73.03C207.88,73.19 229.32,48.56 229.49,15.73C229.66,-17.10 208.47,-41.95 177.35,-42.11C146.24,-42.27 124.80,-17.64 124.63,15.19C124.46,48.02 145.65,72.87 176.76,73.03ZM180.24,64.48C155.00,64.35 142.64,38.56 142.78,10.14C142.90,-13.14 153.55,-33.91 174.37,-33.80C199.85,-33.67 211.48,-7.64 211.33,20.54C211.22,42.83 201.31,64.58 180.24,64.48ZM288.49,71.65L292.66,71.67L329.35,-11.94L363.95,72.03L368.12,72.05L407.34,-27.71L424.52,-34.48L424.54,-38.40L378.48,-38.63L378.46,-34.71L397.05,-27.76L397.04,-26.53L371.68,46.59L370.70,46.59L336.34,-38.85L331.93,-38.87L296.70,46.94L295.97,46.94L270.63,-28.16L270.63,-29.39L290.26,-35.17L290.28,-39.09L236.38,-39.36L236.36,-35.44L252.26,-28.99ZM431.08,71.89L480.57,72.14L480.59,68.22L463.23,62.01L463.62,-15.17C470.28,-22.24 482.79,-25.85 491.85,-25.80C507.29,-25.72 518.02,-16.85 517.94,-0.19L517.62,62.28L500.19,68.32L500.17,72.24L549.66,72.49L549.68,68.57L534.28,62.37L534.65,-9.66C534.75,-29.75 520.59,-40.36 500.99,-40.46C487.27,-40.53 476.71,-34.95 464.40,-22.76L463.42,-22.76L461.79,-40.66L459.83,-40.67L431.12,-30.52L431.10,-27.83L446.99,-19.42L446.57,61.92L431.10,67.97Z" fill="#ffffff" stroke="#000000"/>
    <path d="M-438.51,-198.34L-378.37,-197.88L-378.33,-202.73L-400.10,-210.17L-399.65,-268.62L-385.59,-268.51C-346.06,-268.20 -317.54,-287.63 -317.33,-314.06C-317.10,-344.13 -342.22,-357.66 -380.29,-357.95L-437.28,-358.39L-437.31,-353.54L-417.97,-346.12L-419.01,-210.32L-438.47,-203.19ZM-381.11,-346.56C-353.70,-346.35 -337.53,-336.28 -337.72,-312.28C-337.87,-292.88 -354.46,-279.67 -379.92,-279.86L-399.56,-280.01L-399.05,-346.70ZM-292.04,-197.22L-242.57,-196.84L-242.54,-200.72L-260.20,-206.92L-259.64,-279.18C-253.02,-288.34 -245.96,-292.41 -237.96,-292.35C-234.56,-292.33 -231.41,-291.82 -228.27,-290.58L-221.02,-287.37L-219.81,-287.36L-215.85,-297.03C-215.11,-298.48 -215.11,-299.69 -215.10,-300.66C-215.08,-303.09 -217.73,-304.81 -221.12,-306.29C-223.05,-307.27 -226.68,-308.27 -229.35,-308.29C-237.83,-308.36 -244.40,-306.47 -259.09,-287.42L-259.82,-287.43L-261.36,-308.54L-263.30,-308.55L-291.75,-298.58L-291.77,-295.92L-276.07,-287.55L-276.69,-207.04L-292.01,-201.10ZM-148.99,-193.70C-118.19,-193.46 -96.91,-217.79 -96.66,-250.28C-96.41,-282.78 -117.32,-307.43 -148.11,-307.67C-178.91,-307.90 -200.19,-283.57 -200.44,-251.08C-200.69,-218.59 -179.78,-193.93 -148.99,-193.70ZM-145.53,-202.16C-170.50,-202.35 -182.68,-227.90 -182.46,-256.03C-182.28,-279.07 -171.70,-299.60 -151.09,-299.44C-125.87,-299.25 -114.42,-273.46 -114.64,-245.57C-114.81,-223.50 -124.67,-202.00 -145.53,-202.16ZM-48.19,-339.88C-40.92,-339.82 -35.79,-345.12 -35.73,-352.15C-35.68,-359.43 -40.73,-364.56 -48.00,-364.61C-55.04,-364.67 -60.41,-359.62 -60.47,-352.34C-60.52,-345.31 -55.23,-339.93 -48.19,-339.88ZM-71.31,-139.75C-45.27,-152.64 -39.31,-170.78 -39.12,-195.28L-38.26,-306.82L-40.20,-306.84L-70.59,-297.86L-70.60,-295.43L-54.91,-285.85L-55.62,-193.95C-55.83,-166.79 -58.83,-155.17 -71.29,-143.63ZM51.07,-192.16C70.23,-192.01 85.10,-202.08 92.47,-214.88L92.49,-217.55L91.76,-217.55C81.77,-210.60 70.34,-207.05 58.70,-207.14C28.63,-207.37 16.18,-228.07 16.38,-253.54C16.38,-254.26 16.39,-254.75 16.39,-255.48L91.81,-254.90L92.78,-255.86C92.06,-287.63 76.92,-305.94 51.46,-306.13C24.30,-306.34 0.34,-280.58 0.07,-245.90C-0.17,-214.38 18.57,-192.41 51.07,-192.16ZM47.76,-297.67C64.25,-297.55 73.38,-286.32 76.60,-263.74L17.19,-264.20C20.26,-285.52 32.24,-297.79 47.76,-297.67ZM167.95,-191.26C187.11,-191.11 201.98,-201.18 209.35,-213.98L209.37,-216.65L208.64,-216.65C198.65,-209.70 186.98,-206.15 175.58,-206.24C145.76,-206.47 133.31,-227.18 133.50,-252.64C133.72,-281.25 147.18,-296.91 166.82,-296.76C178.22,-296.67 185.45,-291.04 191.21,-283.23L197.21,-274.94L198.66,-274.93L206.96,-281.66C208.91,-283.10 209.41,-284.55 209.42,-286.25C209.44,-288.67 207.52,-291.11 204.15,-294.53C197.89,-300.40 185.56,-305.10 172.71,-305.20C141.18,-305.44 117.46,-280.16 117.19,-245.00C116.95,-213.48 135.70,-191.51 167.95,-191.26ZM269.55,-190.48C284.10,-190.37 293.14,-198.06 296.34,-204.58L296.35,-206.28L295.87,-206.53C291.49,-204.86 285.90,-203.69 279.36,-203.74C269.17,-203.82 261.45,-208.25 261.52,-217.22L262.09,-291.91L294.10,-291.66L294.18,-301.84L262.17,-302.09L262.37,-328.76L260.43,-328.78L246.89,-302.21L225.24,-294.13L225.23,-292.19L245.60,-292.03L245.01,-214.68C244.89,-199.40 255.73,-190.59 269.55,-190.48ZM-625.70,67.07L-562.41,67.56C-511.73,67.95 -476.29,32.81 -475.89,-19.08C-475.57,-60.79 -505.89,-92.06 -559.48,-92.47L-624.47,-92.97L-624.51,-88.12L-605.16,-80.70L-606.21,55.10L-625.66,62.22ZM-561.99,-81.09C-519.31,-80.77 -495.52,-53.42 -495.84,-11.71C-496.15,29.27 -521.34,56.48 -560.38,56.18L-587.30,55.97L-586.24,-81.28ZM-446.01,68.45L-396.54,68.83L-396.51,64.95L-414.17,58.75L-413.61,-13.51C-407.00,-22.67 -399.93,-26.74 -391.93,-26.68C-388.53,-26.65 -385.39,-26.14 -382.24,-24.91L-374.99,-21.70L-373.78,-21.69L-369.83,-31.36C-369.09,-32.81 -369.08,-34.02 -369.07,-34.99C-369.05,-37.42 -371.71,-39.13 -375.09,-40.62C-377.02,-41.60 -380.65,-42.60 -383.32,-42.62C-391.81,-42.68 -398.37,-40.79 -413.07,-21.75L-413.79,-21.75L-415.33,-42.86L-417.27,-42.88L-445.72,-32.91L-445.74,-30.25L-430.04,-21.88L-430.66,58.63L-445.98,64.57ZM-329.15,71.78C-315.57,71.88 -302.91,65.67 -294.36,57.49L-293.39,57.50C-291.27,66.00 -285.26,72.11 -274.59,72.19C-264.65,72.27 -257.81,66.75 -254.62,61.19L-254.61,60.71L-255.10,60.22L-265.76,60.14C-272.07,60.09 -275.70,58.61 -278.10,56.16L-277.55,-15.37C-277.40,-34.77 -292.63,-41.92 -310.81,-42.06C-320.51,-42.14 -330.25,-37.85 -339.26,-32.10C-347.79,-26.83 -351.97,-19.34 -352.02,-12.55C-352.06,-7.22 -350.62,-6.23 -345.77,-6.20L-335.58,-6.12L-334.36,-7.32L-334.30,-15.32C-334.22,-25.99 -329.80,-32.51 -316.71,-32.41C-305.07,-32.32 -293.74,-23.02 -293.84,-10.89L-293.98,7.78L-317.54,13.42C-344.51,19.76 -355.27,30.59 -355.39,46.35C-355.51,62.12 -344.43,71.66 -329.15,71.78ZM-339.10,41.87C-339.01,29.99 -333.38,22.27 -294.03,14.81L-294.32,52.89C-303.57,57.18 -311.83,59.06 -319.84,58.99C-332.20,58.90 -339.19,53.27 -339.10,41.87ZM-205.46,70.79L-201.34,70.82L-164.81,-11.84L-130.77,71.36L-126.65,71.39L-87.58,-27.25L-70.55,-33.91L-70.52,-37.79L-116.11,-38.14L-116.14,-34.26L-97.76,-27.33L-97.77,-26.12L-123.06,46.20L-124.03,46.19L-157.82,-38.46L-162.18,-38.49L-197.27,46.36L-198.00,46.35L-222.89,-28.05L-222.88,-29.26L-203.44,-34.93L-203.41,-38.81L-256.76,-39.22L-256.79,-35.34L-241.07,-28.92ZM-61.18,71.41L2.12,71.90C52.80,72.28 88.23,37.15 88.63,-14.74C88.95,-56.45 58.63,-87.73 5.04,-88.14L-59.95,-88.64L-59.98,-83.79L-40.64,-76.36L-41.68,59.43L-61.14,66.56ZM2.53,-76.76C45.21,-76.43 69.01,-49.09 68.69,-7.38C68.37,33.60 43.18,60.81 4.14,60.51L-22.77,60.31L-21.72,-76.94ZM168.93,75.60C199.73,75.84 221.01,51.51 221.26,19.01C221.51,-13.48 200.60,-38.13 169.81,-38.37C139.01,-38.61 117.73,-14.28 117.48,18.22C117.23,50.71 138.14,75.37 168.93,75.60ZM172.39,67.14C147.42,66.95 135.24,41.39 135.46,13.26C135.64,-9.77 146.22,-30.31 166.83,-30.15C192.05,-29.95 203.50,-4.16 203.28,23.73C203.11,45.79 193.25,67.30 172.39,67.14ZM279.52,74.51L283.65,74.54L320.17,-8.11L354.21,75.09L358.33,75.12L397.41,-23.53L414.43,-30.19L414.46,-34.07L368.88,-34.42L368.85,-30.54L387.22,-23.60L387.21,-22.39L361.92,49.92L360.95,49.92L327.17,-34.74L322.80,-34.77L287.71,50.08L286.99,50.08L262.09,-24.32L262.10,-25.54L281.55,-31.21L281.58,-35.09L228.23,-35.50L228.20,-31.62L243.91,-25.19ZM420.66,75.11L469.64,75.49L469.67,71.61L452.50,65.41L453.09,-10.97C459.69,-17.95 472.08,-21.50 481.06,-21.43C496.33,-21.31 506.94,-12.50 506.81,3.99L506.33,65.83L489.07,71.76L489.04,75.64L538.02,76.01L538.05,72.13L522.82,65.95L523.37,-5.34C523.52,-25.22 509.54,-35.76 490.14,-35.91C476.56,-36.01 466.09,-30.52 453.87,-18.48L452.90,-18.49L451.34,-36.21L449.40,-36.22L420.95,-26.26L420.93,-23.59L436.63,-15.22L436.01,65.29L420.69,71.23Z" fill="#ffffff" stroke="#000000"/>
    <path d="M-439.27,-194.59L-379.75,-193.98L-379.70,-198.78L-401.23,-206.20L-400.64,-264.04L-386.72,-263.89C-347.60,-263.49 -319.32,-282.65 -319.05,-308.80C-318.75,-338.56 -343.57,-352.02 -381.25,-352.40L-437.65,-352.98L-437.70,-348.18L-418.57,-340.78L-419.95,-206.39L-439.22,-199.39ZM-382.09,-341.13C-354.97,-340.85 -338.99,-330.85 -339.23,-307.09C-339.43,-287.89 -355.88,-274.86 -381.08,-275.12L-400.52,-275.32L-399.85,-341.31ZM-294.32,-193.10L-245.36,-192.60L-245.32,-196.44L-262.78,-202.62L-262.05,-274.14C-255.47,-283.19 -248.47,-287.20 -240.55,-287.12C-237.19,-287.08 -234.08,-286.57 -230.97,-285.34L-223.80,-282.15L-222.60,-282.13L-218.66,-291.69C-217.93,-293.13 -217.92,-294.33 -217.91,-295.29C-217.88,-297.69 -220.51,-299.39 -223.85,-300.87C-225.76,-301.85 -229.35,-302.84 -231.99,-302.87C-240.39,-302.96 -246.89,-301.10 -261.48,-282.29L-262.20,-282.30L-263.67,-303.20L-265.59,-303.22L-293.77,-293.42L-293.80,-290.78L-278.28,-282.46L-279.10,-202.79L-294.28,-196.94ZM-152.75,-189.25C-122.27,-188.94 -101.14,-212.97 -100.81,-245.13C-100.49,-277.28 -121.12,-301.74 -151.59,-302.05C-182.07,-302.36 -203.20,-278.34 -203.53,-246.18C-203.86,-214.02 -183.23,-189.57 -152.75,-189.25ZM-149.30,-197.62C-174.02,-197.87 -186.00,-223.20 -185.72,-251.04C-185.49,-273.83 -174.96,-294.13 -154.56,-293.92C-129.60,-293.66 -118.34,-268.11 -118.62,-240.51C-118.85,-218.67 -128.66,-197.41 -149.30,-197.62ZM-52.63,-333.68C-45.43,-333.60 -40.33,-338.83 -40.26,-345.79C-40.19,-352.99 -45.17,-358.08 -52.37,-358.16C-59.33,-358.23 -64.67,-353.24 -64.74,-346.04C-64.81,-339.08 -59.58,-333.75 -52.63,-333.68ZM-76.01,-135.67C-50.20,-148.36 -44.26,-166.30 -44.01,-190.54L-42.88,-300.93L-44.80,-300.95L-74.89,-292.14L-74.92,-289.74L-59.41,-280.22L-60.34,-189.27C-60.62,-162.39 -63.62,-150.90 -75.98,-139.51ZM45.24,-187.23C64.20,-187.03 78.94,-196.96 86.27,-209.61L86.30,-212.25L85.58,-212.25C75.67,-205.40 64.35,-201.91 52.83,-202.03C23.07,-202.33 10.80,-222.86 11.06,-248.06C11.07,-248.78 11.07,-249.26 11.08,-249.98L85.72,-249.22L86.69,-250.17C86.05,-281.61 71.11,-299.77 45.92,-300.03C19.04,-300.30 -4.75,-274.86 -5.10,-240.54C-5.42,-209.35 13.08,-187.56 45.24,-187.23ZM42.23,-291.66C58.55,-291.50 67.56,-280.36 70.69,-258.01L11.89,-258.61C14.99,-279.70 26.87,-291.82 42.23,-291.66ZM160.91,-186.04C179.87,-185.85 194.62,-195.78 201.95,-208.42L201.97,-211.06L201.25,-211.07C191.34,-204.21 179.79,-200.73 168.51,-200.84C138.99,-201.15 126.72,-221.67 126.98,-246.87C127.27,-275.19 140.62,-290.65 160.06,-290.46C171.34,-290.34 178.49,-284.75 184.17,-277.01L190.08,-268.79L191.52,-268.77L199.75,-275.41C201.69,-276.83 202.18,-278.26 202.20,-279.94C202.22,-282.34 200.33,-284.76 197.00,-288.16C190.82,-293.98 178.63,-298.67 165.91,-298.80C134.71,-299.12 111.17,-274.16 110.82,-239.36C110.50,-208.16 129.00,-186.37 160.91,-186.04ZM261.47,-185.01C275.87,-184.86 284.83,-192.45 288.01,-198.90L288.03,-200.58L287.55,-200.83C283.21,-199.19 277.68,-198.05 271.20,-198.11C261.12,-198.22 253.49,-202.61 253.58,-211.49L254.34,-285.41L286.01,-285.09L286.12,-295.17L254.44,-295.49L254.71,-321.89L252.79,-321.91L239.32,-295.64L217.88,-287.70L217.86,-285.78L238.02,-285.58L237.23,-209.02C237.08,-193.90 247.79,-185.15 261.47,-185.01ZM-625.21,67.62L-562.57,68.26C-512.41,68.77 -477.25,34.09 -476.73,-17.27C-476.31,-58.55 -506.23,-89.57 -559.27,-90.12L-623.58,-90.78L-623.63,-85.98L-604.51,-78.58L-605.88,55.81L-625.16,62.82ZM-561.78,-78.86C-519.54,-78.43 -496.06,-51.31 -496.48,-10.03C-496.90,30.53 -521.90,57.39 -560.53,57.00L-587.17,56.73L-585.78,-79.11ZM-447.37,69.44L-398.42,69.94L-398.38,66.10L-415.84,59.92L-415.10,-11.60C-408.53,-20.65 -401.53,-24.66 -393.61,-24.58C-390.25,-24.54 -387.13,-24.03 -384.03,-22.80L-376.86,-19.60L-375.66,-19.59L-371.72,-29.15C-370.99,-30.59 -370.97,-31.79 -370.96,-32.75C-370.94,-35.14 -373.56,-36.85 -376.91,-38.33C-378.82,-39.31 -382.41,-40.30 -385.05,-40.33C-393.45,-40.42 -399.95,-38.56 -414.54,-19.75L-415.26,-19.76L-416.73,-40.65L-418.65,-40.67L-446.83,-30.88L-446.85,-28.24L-431.34,-19.92L-432.15,59.75L-447.34,65.60ZM-331.73,73.02C-318.29,73.16 -305.74,67.05 -297.26,58.97L-296.30,58.98C-294.23,67.41 -288.29,73.47 -277.73,73.58C-267.89,73.68 -261.11,68.23 -257.94,62.74L-257.93,62.26L-258.41,61.77L-268.97,61.66C-275.21,61.60 -278.79,60.12 -281.17,57.70L-280.44,-13.10C-280.24,-32.30 -295.29,-39.41 -313.29,-39.59C-322.89,-39.69 -332.53,-35.47 -341.47,-29.80C-349.93,-24.61 -354.08,-17.21 -354.15,-10.49C-354.21,-5.21 -352.78,-4.24 -347.98,-4.19L-337.90,-4.08L-336.68,-5.27L-336.60,-13.19C-336.49,-23.75 -332.11,-30.19 -319.15,-30.05C-307.63,-29.94 -296.44,-20.70 -296.57,-8.70L-296.76,9.78L-320.09,15.30C-346.80,21.51 -357.47,32.20 -357.63,47.80C-357.79,63.39 -346.84,72.87 -331.73,73.02ZM-341.50,43.40C-341.38,31.64 -335.78,24.02 -296.83,16.74L-297.21,54.41C-306.38,58.64 -314.56,60.48 -322.48,60.40C-334.71,60.27 -341.62,54.68 -341.50,43.40ZM-209.31,72.36L-205.23,72.40L-168.87,-9.31L-135.40,73.11L-131.32,73.15L-92.40,-24.37L-75.53,-30.92L-75.49,-34.76L-120.61,-35.22L-120.64,-31.38L-102.47,-24.47L-102.49,-23.27L-127.70,48.23L-128.66,48.22L-161.88,-35.64L-166.20,-35.69L-201.14,48.20L-201.86,48.19L-226.31,-25.50L-226.30,-26.70L-207.04,-32.27L-207.00,-36.11L-259.80,-36.65L-259.84,-32.81L-244.30,-26.41ZM-66.51,73.34L-3.88,73.98C46.28,74.49 81.44,39.81 81.96,-11.55C82.39,-52.82 52.46,-83.85 -0.58,-84.39L-64.89,-85.05L-64.94,-80.25L-45.82,-72.86L-47.19,61.54L-66.47,68.54ZM-3.09,-73.14C39.15,-72.71 62.63,-45.58 62.21,-4.31C61.79,36.25 36.80,63.12 -1.84,62.72L-28.48,62.45L-27.09,-73.39ZM161.21,78.07C191.69,78.38 212.81,54.36 213.14,22.20C213.47,-9.96 192.84,-34.41 162.36,-34.72C131.89,-35.04 110.76,-11.01 110.43,21.15C110.10,53.31 130.73,77.76 161.21,78.07ZM164.65,69.71C139.94,69.45 127.95,44.13 128.24,16.29C128.47,-6.51 139.00,-26.80 159.40,-26.59C184.36,-26.34 195.62,-0.78 195.34,26.82C195.11,48.66 185.29,69.92 164.65,69.71ZM270.66,77.27L274.74,77.31L311.10,-4.40L344.58,78.03L348.66,78.07L387.58,-19.46L404.45,-26.00L404.49,-29.84L359.37,-30.30L359.33,-26.47L377.50,-19.56L377.49,-18.36L352.27,53.15L351.31,53.14L318.09,-30.73L313.77,-30.77L278.83,53.11L278.11,53.11L253.66,-20.59L253.68,-21.79L272.93,-27.35L272.97,-31.19L220.18,-31.73L220.14,-27.89L235.67,-21.49ZM410.34,78.22L458.82,78.72L458.86,74.88L441.88,68.71L442.65,-6.89C449.20,-13.78 461.48,-17.26 470.36,-17.17C485.48,-17.01 495.95,-8.26 495.78,8.05L495.16,69.25L478.06,75.08L478.02,78.92L526.49,79.41L526.53,75.57L511.48,69.42L512.20,-1.14C512.40,-20.82 498.59,-31.28 479.39,-31.48C465.95,-31.61 455.57,-26.20 443.45,-14.32L442.49,-14.33L440.99,-31.87L439.07,-31.89L410.89,-22.10L410.86,-19.46L426.38,-11.14L425.56,68.54L410.38,74.38Z" fill="#ffffff" stroke="#000000"/>
    <path d="M-439.94,-190.90L-381.04,-190.14L-380.98,-194.89L-402.26,-202.29L-401.53,-259.52L-387.76,-259.35C-349.05,-258.85 -321.01,-277.73 -320.68,-303.62C-320.31,-333.07 -344.84,-346.44 -382.12,-346.92L-437.93,-347.63L-437.99,-342.89L-419.08,-335.52L-420.79,-202.53L-439.88,-195.65ZM-382.98,-335.77C-356.14,-335.42 -340.35,-325.48 -340.66,-301.97C-340.90,-282.97 -357.21,-270.12 -382.15,-270.44L-401.39,-270.69L-400.55,-335.99ZM-296.50,-189.06L-248.05,-188.44L-248.00,-192.24L-265.26,-198.40L-264.36,-269.17C-257.83,-278.11 -250.89,-282.06 -243.05,-281.96C-239.73,-281.92 -236.65,-281.40 -233.58,-280.18L-226.49,-277.00L-225.30,-276.98L-221.38,-286.43C-220.65,-287.85 -220.64,-289.04 -220.62,-289.99C-220.59,-292.36 -223.18,-294.06 -226.49,-295.52C-228.38,-296.50 -231.93,-297.49 -234.54,-297.53C-242.85,-297.63 -249.29,-295.82 -263.78,-277.24L-264.49,-277.25L-265.89,-297.93L-267.79,-297.95L-295.70,-288.33L-295.74,-285.72L-280.40,-277.45L-281.41,-198.61L-296.45,-192.86ZM-156.41,-184.89C-126.25,-184.51 -105.29,-208.23 -104.88,-240.05C-104.47,-271.87 -124.83,-296.12 -154.99,-296.51C-185.15,-296.89 -206.11,-273.17 -206.52,-241.35C-206.93,-209.53 -186.57,-185.28 -156.41,-184.89ZM-152.98,-193.16C-177.44,-193.48 -189.24,-218.57 -188.88,-246.11C-188.59,-268.67 -178.12,-288.73 -157.94,-288.47C-133.24,-288.15 -122.16,-262.84 -122.51,-235.53C-122.79,-213.91 -132.56,-192.90 -152.98,-193.16ZM-56.97,-327.56C-49.84,-327.46 -44.79,-332.63 -44.70,-339.51C-44.61,-346.64 -49.53,-351.69 -56.66,-351.78C-63.54,-351.87 -68.83,-346.95 -68.92,-339.82C-69.01,-332.94 -63.85,-327.64 -56.97,-327.56ZM-80.61,-131.67C-55.04,-144.17 -49.11,-161.90 -48.81,-185.89L-47.41,-295.13L-49.31,-295.16L-79.11,-286.51L-79.14,-284.14L-63.82,-274.68L-64.97,-184.67C-65.31,-158.07 -68.31,-146.71 -80.57,-135.47ZM39.51,-182.38C58.27,-182.14 72.88,-191.93 80.17,-204.43L80.20,-207.04L79.49,-207.05C69.66,-200.29 58.46,-196.87 47.06,-197.01C17.61,-197.39 5.52,-217.73 5.84,-242.67C5.85,-243.38 5.85,-243.86 5.86,-244.57L79.72,-243.62L80.68,-244.56C80.13,-275.68 65.40,-293.69 40.46,-294.01C13.86,-294.35 -9.74,-269.23 -10.17,-235.27C-10.57,-204.40 7.68,-182.79 39.51,-182.38ZM36.79,-285.74C52.94,-285.53 61.83,-274.49 64.87,-252.37L6.68,-253.11C9.80,-273.97 21.59,-285.93 36.79,-285.74ZM153.97,-180.92C172.73,-180.68 187.35,-190.47 194.63,-202.96L194.67,-205.57L193.95,-205.58C184.13,-198.82 172.68,-195.41 161.52,-195.55C132.31,-195.92 120.22,-216.27 120.54,-241.20C120.90,-269.22 134.16,-284.49 153.40,-284.25C164.56,-284.10 171.61,-278.55 177.21,-270.88L183.05,-262.73L184.47,-262.71L192.63,-269.26C194.55,-270.66 195.04,-272.08 195.06,-273.74C195.09,-276.11 193.23,-278.51 189.94,-281.88C183.84,-287.66 171.79,-292.32 159.20,-292.49C128.33,-292.88 104.97,-268.24 104.53,-233.81C104.14,-202.93 122.39,-181.32 153.97,-180.92ZM253.48,-179.64C267.73,-179.46 276.61,-186.95 279.78,-193.32L279.80,-194.98L279.33,-195.23C275.03,-193.62 269.56,-192.50 263.14,-192.58C253.17,-192.71 245.62,-197.08 245.74,-205.87L246.67,-279.01L278.02,-278.61L278.15,-288.59L246.80,-288.99L247.14,-315.11L245.24,-315.14L231.84,-289.18L210.60,-281.38L210.58,-279.48L230.52,-279.22L229.55,-203.47C229.36,-188.50 239.94,-179.82 253.48,-179.64ZM-624.60,68.10L-562.62,68.90C-512.98,69.53 -478.10,35.30 -477.45,-15.52C-476.93,-56.37 -506.46,-87.15 -558.95,-87.82L-622.59,-88.63L-622.65,-83.88L-603.74,-76.52L-605.45,56.47L-624.54,63.35ZM-561.46,-76.69C-519.67,-76.15 -496.50,-49.25 -497.02,-8.41C-497.53,31.73 -522.34,58.25 -560.57,57.76L-586.93,57.42L-585.21,-76.99ZM-448.63,70.36L-400.18,70.98L-400.13,67.18L-417.39,61.02L-416.48,-9.75C-409.96,-18.69 -403.02,-22.64 -395.18,-22.54C-391.86,-22.50 -388.78,-21.98 -385.70,-20.76L-378.62,-17.58L-377.43,-17.56L-373.51,-27.01C-372.78,-28.43 -372.76,-29.62 -372.75,-30.57C-372.72,-32.94 -375.31,-34.64 -378.62,-36.11C-380.51,-37.08 -384.06,-38.07 -386.67,-38.11C-394.98,-38.21 -401.42,-36.40 -415.91,-17.82L-416.62,-17.83L-418.02,-38.51L-419.92,-38.53L-447.83,-28.92L-447.86,-26.30L-432.53,-18.03L-433.54,60.81L-448.58,66.56ZM-334.19,74.20C-320.89,74.37 -308.46,68.35 -300.05,60.38L-299.10,60.40C-297.07,68.73 -291.21,74.75 -280.76,74.88C-271.02,75.01 -264.30,69.63 -261.14,64.21L-261.14,63.73L-261.61,63.25L-272.06,63.12C-278.23,63.04 -281.77,61.57 -284.12,59.16L-283.22,-10.89C-282.98,-29.89 -297.85,-36.97 -315.66,-37.20C-325.16,-37.32 -334.72,-33.17 -343.58,-27.58C-351.95,-22.46 -356.09,-15.15 -356.17,-8.50C-356.24,-3.28 -354.82,-2.31 -350.07,-2.25L-340.10,-2.12L-338.90,-3.29L-338.80,-11.13C-338.66,-21.58 -334.31,-27.94 -321.48,-27.77C-310.08,-27.63 -299.04,-18.46 -299.19,-6.59L-299.42,11.70L-322.53,17.10C-348.98,23.18 -359.56,33.73 -359.76,49.17C-359.96,64.60 -349.15,74.01 -334.19,74.20ZM-343.79,44.86C-343.64,33.22 -338.08,25.69 -299.51,18.59L-299.99,55.87C-309.07,60.03 -317.17,61.83 -325.00,61.73C-337.12,61.57 -343.93,56.02 -343.79,44.86ZM-213.05,73.85L-209.01,73.90L-172.83,-6.87L-139.91,74.79L-135.87,74.84L-97.11,-21.57L-80.40,-28.01L-80.35,-31.81L-125.00,-32.38L-125.04,-28.58L-107.08,-21.70L-107.10,-20.52L-132.23,50.18L-133.18,50.17L-165.84,-32.91L-170.12,-32.96L-204.91,49.96L-205.62,49.95L-229.62,-23.03L-229.61,-24.22L-210.54,-29.68L-210.49,-33.48L-262.73,-34.15L-262.78,-30.35L-247.43,-23.97ZM-71.74,75.18L-9.76,75.98C39.87,76.61 74.75,42.38 75.40,-8.44C75.92,-49.29 46.39,-80.07 -6.09,-80.74L-69.74,-81.55L-69.80,-76.80L-50.89,-69.44L-52.59,63.55L-71.68,70.43ZM-8.61,-69.61C33.19,-69.07 56.36,-42.17 55.83,-1.33C55.32,38.81 30.52,65.33 -7.72,64.84L-34.08,64.50L-32.36,-69.91ZM153.60,80.44C183.76,80.83 204.72,57.11 205.13,25.29C205.54,-6.54 185.18,-30.79 155.02,-31.17C124.86,-31.56 103.90,-7.84 103.49,23.98C103.08,55.81 123.44,80.06 153.60,80.44ZM157.03,72.17C132.57,71.86 120.77,46.77 121.13,19.22C121.42,-3.34 131.89,-23.39 152.07,-23.14C176.77,-22.82 187.85,2.50 187.50,29.81C187.22,51.42 177.45,72.44 157.03,72.17ZM261.91,79.93L265.95,79.98L302.13,-0.79L335.05,80.87L339.09,80.92L377.85,-15.49L394.56,-21.93L394.61,-25.73L349.97,-26.30L349.92,-22.50L367.88,-15.62L367.86,-14.43L342.73,56.26L341.78,56.25L309.12,-26.82L304.84,-26.88L270.05,56.04L269.34,56.04L245.34,-16.95L245.35,-18.14L264.42,-23.60L264.47,-27.40L212.23,-28.07L212.18,-24.27L227.54,-17.89ZM400.13,81.22L448.10,81.84L448.15,78.04L431.37,71.89L432.32,-2.92C438.82,-9.73 450.98,-13.13 459.77,-13.02C474.73,-12.83 485.07,-4.15 484.86,12.00L484.09,72.56L467.15,78.28L467.10,82.08L515.07,82.70L515.12,78.90L500.23,72.77L501.13,2.95C501.38,-16.53 487.73,-26.91 468.74,-27.16C455.44,-27.33 445.16,-22.00 433.13,-10.27L432.18,-10.29L430.74,-27.64L428.84,-27.67L400.93,-18.05L400.89,-15.44L416.23,-7.16L415.22,71.68L400.18,77.42Z" fill="#ffffff" stroke="#000000"/>
    <path d="M-440.50,-187.27L-382.23,-186.37L-382.16,-191.07L-403.20,-198.45L-402.33,-255.08L-388.70,-254.87C-350.40,-254.28 -322.61,-272.89 -322.22,-298.50C-321.77,-327.64 -346.01,-340.94 -382.90,-341.50L-438.12,-342.35L-438.19,-337.65L-419.50,-330.31L-421.52,-198.73L-440.43,-191.97ZM-383.78,-330.47C-357.22,-330.06 -341.63,-320.19 -341.99,-296.92C-342.28,-278.13 -358.45,-265.45 -383.12,-265.83L-402.16,-266.12L-401.16,-330.74ZM-298.58,-185.09L-250.64,-184.35L-250.59,-188.11L-267.65,-194.25L-266.57,-264.27C-260.09,-273.10 -253.22,-276.99 -245.46,-276.87C-242.17,-276.82 -239.13,-276.31 -236.09,-275.08L-229.09,-271.92L-227.91,-271.90L-224.01,-281.24C-223.28,-282.64 -223.26,-283.82 -223.25,-284.76C-223.21,-287.11 -225.77,-288.79 -229.04,-290.25C-230.91,-291.22 -234.42,-292.22 -237.00,-292.26C-245.22,-292.38 -251.60,-290.60 -265.98,-272.25L-266.69,-272.26L-268.02,-292.73L-269.90,-292.76L-297.54,-283.31L-297.58,-280.73L-282.43,-272.51L-283.63,-194.50L-298.52,-188.85ZM-159.98,-180.61C-130.14,-180.15 -109.33,-203.57 -108.85,-235.05C-108.37,-266.54 -128.44,-290.59 -158.28,-291.05C-188.13,-291.50 -208.93,-268.09 -209.42,-236.60C-209.90,-205.11 -189.82,-181.07 -159.98,-180.61ZM-156.57,-188.78C-180.77,-189.15 -192.37,-214.01 -191.95,-241.27C-191.61,-263.59 -181.20,-283.41 -161.23,-283.10C-136.79,-282.72 -125.89,-257.64 -126.31,-230.62C-126.64,-209.24 -136.36,-188.47 -156.57,-188.78ZM-61.22,-321.52C-54.17,-321.41 -49.16,-326.50 -49.05,-333.32C-48.94,-340.37 -53.80,-345.38 -60.85,-345.49C-67.67,-345.59 -72.91,-340.74 -73.02,-333.69C-73.12,-326.87 -68.03,-321.62 -61.22,-321.52ZM-85.11,-127.75C-59.78,-140.05 -53.87,-157.59 -53.50,-181.32L-51.84,-289.41L-53.72,-289.44L-83.23,-280.96L-83.27,-278.61L-68.13,-269.21L-69.50,-180.16C-69.91,-153.84 -72.90,-142.61 -85.06,-131.51ZM33.87,-177.63C52.43,-177.35 66.92,-186.99 74.16,-199.34L74.20,-201.92L73.49,-201.93C63.75,-195.27 52.66,-191.91 41.38,-192.09C12.24,-192.53 0.33,-212.70 0.71,-237.37C0.72,-238.07 0.73,-238.54 0.74,-239.25L73.81,-238.12L74.77,-239.05C74.30,-269.85 59.77,-287.70 35.10,-288.07C8.78,-288.48 -14.63,-263.69 -15.15,-230.09C-15.62,-199.54 2.38,-178.11 33.87,-177.63ZM31.45,-279.90C47.42,-279.66 56.19,-268.71 59.14,-246.81L1.57,-247.70C4.71,-268.33 16.41,-280.14 31.45,-279.90ZM147.13,-175.89C165.69,-175.61 180.17,-185.25 187.42,-197.60L187.45,-200.18L186.75,-200.19C177.01,-193.53 165.68,-190.18 154.63,-190.35C125.73,-190.79 113.82,-210.95 114.20,-235.62C114.63,-263.35 127.78,-278.42 146.82,-278.13C157.86,-277.96 164.83,-272.45 170.35,-264.84L176.10,-256.76L177.51,-256.74L185.60,-263.20C187.50,-264.58 188.00,-265.98 188.02,-267.63C188.06,-269.98 186.21,-272.36 182.97,-275.70C176.95,-281.43 165.04,-286.08 152.58,-286.27C122.04,-286.74 98.87,-262.42 98.34,-228.35C97.87,-197.80 115.88,-176.37 147.13,-175.89ZM245.58,-174.38C259.68,-174.16 268.49,-181.55 271.64,-187.84L271.67,-189.49L271.20,-189.73C266.94,-188.15 261.52,-187.06 255.18,-187.16C245.31,-187.31 237.85,-191.65 237.99,-200.35L239.10,-272.72L270.12,-272.24L270.27,-282.11L239.25,-282.59L239.65,-308.43L237.77,-308.46L224.45,-282.82L203.41,-275.15L203.38,-273.27L223.12,-272.96L221.97,-198.01C221.74,-183.21 232.19,-174.58 245.58,-174.38ZM-623.88,68.54L-562.55,69.48C-513.44,70.23 -478.84,36.45 -478.07,-13.83C-477.45,-54.25 -506.59,-84.78 -558.52,-85.58L-621.49,-86.54L-621.57,-81.84L-602.88,-74.51L-604.90,57.08L-623.80,63.84ZM-561.04,-74.57C-519.69,-73.93 -496.83,-47.26 -497.45,-6.84C-498.06,32.87 -522.67,59.05 -560.50,58.47L-586.58,58.06L-584.54,-74.93ZM-449.76,71.21L-401.83,71.95L-401.77,68.19L-418.83,62.05L-417.76,-7.97C-411.28,-16.80 -404.40,-20.69 -396.65,-20.57C-393.36,-20.52 -390.31,-20.00 -387.27,-18.78L-380.27,-15.62L-379.10,-15.60L-375.19,-24.94C-374.46,-26.34 -374.45,-27.52 -374.43,-28.46C-374.40,-30.81 -376.96,-32.49 -380.22,-33.95C-382.09,-34.92 -385.60,-35.91 -388.18,-35.95C-396.41,-36.08 -402.78,-34.30 -417.16,-15.95L-417.87,-15.96L-419.20,-36.43L-421.08,-36.46L-448.72,-27.01L-448.76,-24.43L-433.61,-16.20L-434.81,61.81L-449.70,67.45ZM-336.54,75.30C-323.38,75.50 -311.07,69.58 -302.72,61.72L-301.78,61.74C-299.80,69.99 -294.01,75.96 -283.67,76.12C-274.04,76.26 -267.38,70.96 -264.24,65.60L-264.23,65.13L-264.69,64.66L-275.03,64.50C-281.14,64.40 -284.65,62.94 -286.96,60.55L-285.89,-8.76C-285.61,-27.56 -300.30,-34.60 -317.93,-34.87C-327.33,-35.02 -336.79,-30.93 -345.57,-25.43C-353.87,-20.38 -357.98,-13.16 -358.08,-6.58C-358.16,-1.41 -356.77,-0.45 -352.07,-0.38L-342.20,-0.23L-341.00,-1.38L-340.88,-9.14C-340.73,-19.48 -336.40,-25.76 -323.71,-25.56C-312.43,-25.39 -301.53,-16.29 -301.71,-4.54L-301.98,13.55L-324.86,18.84C-351.04,24.78 -361.54,35.20 -361.78,50.47C-362.01,65.75 -351.34,75.08 -336.54,75.30ZM-345.97,46.25C-345.79,34.74 -340.27,27.30 -302.09,20.37L-302.66,57.26C-311.65,61.35 -319.67,63.11 -327.42,62.99C-339.40,62.80 -346.14,57.29 -345.97,46.25ZM-216.68,75.26L-212.68,75.33L-176.67,-4.50L-144.31,76.38L-140.31,76.44L-101.71,-18.86L-85.16,-25.19L-85.11,-28.95L-129.28,-29.63L-129.34,-25.87L-111.58,-19.01L-111.60,-17.84L-136.65,52.05L-137.59,52.04L-169.70,-30.25L-173.92,-30.31L-208.56,51.65L-209.26,51.64L-232.83,-20.64L-232.81,-21.82L-213.93,-27.17L-213.87,-30.93L-265.56,-31.72L-265.62,-27.96L-250.44,-21.62ZM-76.86,76.94L-15.53,77.88C33.58,78.64 68.17,44.86 68.95,-5.43C69.57,-45.84 40.42,-76.37 -11.51,-77.17L-74.48,-78.14L-74.55,-73.44L-55.86,-66.10L-57.88,65.48L-76.79,72.24ZM-14.03,-66.16C27.33,-65.53 50.19,-38.85 49.57,1.56C48.96,41.27 24.35,67.45 -13.48,66.87L-39.57,66.47L-37.52,-66.53ZM146.09,82.72C175.93,83.18 196.74,59.76 197.22,28.27C197.71,-3.21 177.63,-27.26 147.79,-27.72C117.95,-28.18 97.14,-4.76 96.66,26.73C96.17,58.21 116.25,82.26 146.09,82.72ZM149.51,74.54C125.31,74.17 113.70,49.32 114.12,22.06C114.46,-0.26 124.87,-20.08 144.85,-19.77C169.28,-19.40 180.18,5.68 179.76,32.70C179.44,54.09 169.72,74.86 149.51,74.54ZM253.27,82.48L257.26,82.55L293.27,2.72L325.64,83.60L329.63,83.66L368.23,-11.64L384.78,-17.97L384.84,-21.73L340.66,-22.41L340.61,-18.65L358.36,-11.79L358.35,-10.62L333.30,59.27L332.36,59.26L300.25,-23.03L296.02,-23.09L261.39,58.87L260.68,58.86L237.11,-13.42L237.13,-14.59L256.02,-19.95L256.07,-23.70L204.38,-24.50L204.32,-20.74L219.50,-14.40ZM390.03,84.12L437.49,84.85L437.55,81.09L420.96,74.95L422.10,0.94C428.54,-5.78 440.58,-9.12 449.28,-8.99C464.08,-8.76 474.29,-0.14 474.04,15.84L473.12,75.76L456.35,81.37L456.29,85.13L503.76,85.86L503.81,82.10L489.10,76.00L490.16,6.92C490.46,-12.35 476.98,-22.66 458.19,-22.95C445.03,-23.15 434.84,-17.90 422.91,-6.33L421.97,-6.35L420.59,-23.53L418.71,-23.56L391.07,-14.11L391.03,-11.53L406.18,-3.30L404.98,74.71L390.09,80.36Z" fill="#ffffff" stroke="#000000"/>
    <path d="M-440.97,-183.70L-383.32,-182.67L-383.24,-187.32L-404.03,-194.67L-403.03,-250.69L-389.55,-250.45C-351.65,-249.77 -324.12,-268.11 -323.66,-293.45C-323.15,-322.28 -347.09,-335.49 -383.59,-336.15L-438.22,-337.13L-438.30,-332.48L-419.83,-325.17L-422.16,-194.99L-440.89,-188.35ZM-384.48,-325.24C-358.22,-324.76 -342.81,-314.95 -343.22,-291.94C-343.56,-273.34 -359.59,-260.84 -384.00,-261.28L-402.83,-261.62L-401.69,-325.54ZM-300.56,-181.19L-253.14,-180.34L-253.07,-184.06L-269.94,-190.17L-268.70,-259.44C-262.26,-268.17 -255.45,-272.00 -247.78,-271.86C-244.52,-271.80 -241.51,-271.28 -238.51,-270.07L-231.59,-266.92L-230.43,-266.90L-226.54,-276.13C-225.82,-277.51 -225.80,-278.67 -225.78,-279.60C-225.74,-281.93 -228.27,-283.60 -231.50,-285.05C-233.34,-286.02 -236.81,-287.01 -239.37,-287.06C-247.50,-287.20 -253.81,-285.45 -268.09,-267.34L-268.79,-267.35L-270.05,-287.61L-271.91,-287.64L-299.29,-278.36L-299.33,-275.81L-284.36,-267.63L-285.75,-190.45L-300.50,-184.91ZM-163.45,-176.40C-133.93,-175.87 -113.28,-198.99 -112.72,-230.14C-112.17,-261.29 -131.97,-285.13 -161.49,-285.66C-191.02,-286.19 -211.66,-263.07 -212.22,-231.92C-212.78,-200.77 -192.97,-176.93 -163.45,-176.40ZM-160.05,-184.48C-183.99,-184.91 -195.41,-209.53 -194.93,-236.50C-194.53,-258.58 -184.18,-278.16 -164.42,-277.81C-140.25,-277.37 -129.53,-252.53 -130.01,-225.80C-130.39,-204.64 -140.06,-184.12 -160.05,-184.48ZM-65.38,-315.56C-58.41,-315.44 -53.44,-320.46 -53.32,-327.21C-53.19,-334.18 -57.98,-339.15 -64.96,-339.27C-71.70,-339.39 -76.90,-334.60 -77.03,-327.63C-77.15,-320.89 -72.12,-315.68 -65.38,-315.56ZM-89.51,-123.92C-64.42,-136.03 -58.52,-153.36 -58.10,-176.84L-56.19,-283.77L-58.05,-283.81L-87.26,-275.49L-87.30,-273.17L-72.36,-263.83L-73.94,-175.73C-74.40,-149.69 -77.39,-138.58 -89.45,-127.64ZM28.33,-172.97C46.70,-172.64 61.05,-182.15 68.25,-194.34L68.29,-196.90L67.59,-196.91C57.94,-190.34 46.95,-187.05 35.80,-187.25C6.97,-187.77 -4.76,-207.74 -4.33,-232.15C-4.31,-232.85 -4.31,-233.31 -4.29,-234.01L68.00,-232.71L68.95,-233.63C68.57,-264.10 54.23,-281.79 29.82,-282.23C3.79,-282.70 -19.44,-258.23 -20.03,-224.99C-20.58,-194.77 -2.82,-173.52 28.33,-172.97ZM26.19,-274.16C42.00,-273.87 50.64,-263.02 53.51,-241.34L-3.45,-242.37C-0.29,-262.77 11.31,-274.42 26.19,-274.16ZM140.38,-170.96C158.74,-170.63 173.10,-180.14 180.29,-192.33L180.34,-194.89L179.64,-194.90C169.99,-188.33 158.77,-185.04 147.84,-185.24C119.25,-185.75 107.52,-205.73 107.95,-230.14C108.44,-257.57 121.50,-272.45 140.33,-272.11C151.26,-271.92 158.13,-266.44 163.58,-258.90L169.25,-250.90L170.64,-250.87L178.67,-257.24C180.55,-258.60 181.04,-259.99 181.07,-261.61C181.11,-263.94 179.29,-266.30 176.10,-269.61C170.15,-275.30 158.38,-279.93 146.06,-280.15C115.84,-280.69 92.85,-256.68 92.24,-222.98C91.70,-192.76 109.46,-171.51 140.38,-170.96ZM237.78,-169.21C251.73,-168.96 260.46,-176.25 263.60,-182.47L263.63,-184.09L263.16,-184.34C258.95,-182.78 253.58,-181.72 247.31,-181.83C237.54,-182.00 230.18,-186.32 230.33,-194.92L231.62,-266.52L262.30,-265.97L262.48,-275.73L231.79,-276.29L232.25,-301.86L230.39,-301.89L217.15,-276.55L196.32,-269.01L196.28,-267.15L215.81,-266.80L214.48,-192.65C214.22,-178.00 224.53,-169.45 237.78,-169.21ZM-623.04,68.92L-562.37,70.01C-513.78,70.88 -479.47,37.54 -478.58,-12.21C-477.86,-52.19 -506.62,-82.47 -557.99,-83.39L-620.29,-84.51L-620.37,-79.86L-601.90,-72.55L-604.23,57.63L-622.96,64.27ZM-560.51,-72.51C-519.60,-71.77 -497.05,-45.33 -497.77,-5.34C-498.47,33.94 -522.89,59.78 -560.31,59.11L-586.12,58.65L-583.76,-72.92ZM-450.79,72.01L-403.36,72.86L-403.30,69.14L-420.16,63.02L-418.92,-6.25C-412.49,-14.97 -405.67,-18.81 -398.00,-18.67C-394.75,-18.61 -391.73,-18.09 -388.73,-16.87L-381.81,-13.73L-380.65,-13.71L-376.76,-22.94C-376.04,-24.32 -376.02,-25.48 -376.00,-26.41C-375.96,-28.74 -378.49,-30.41 -381.72,-31.86C-383.56,-32.83 -387.03,-33.82 -389.59,-33.86C-397.73,-34.01 -404.04,-32.26 -418.31,-14.15L-419.01,-14.16L-420.28,-34.42L-422.14,-34.45L-449.51,-25.17L-449.55,-22.62L-434.59,-14.44L-435.97,62.74L-450.72,68.29ZM-338.78,76.34C-325.76,76.57 -313.57,70.74 -305.29,62.99L-304.36,63.00C-302.41,71.18 -296.70,77.09 -286.48,77.28C-276.95,77.45 -270.34,72.22 -267.22,66.92L-267.21,66.46L-267.67,65.99L-277.90,65.80C-283.94,65.69 -287.40,64.24 -289.69,61.87L-288.46,-6.71C-288.13,-25.30 -302.65,-32.31 -320.08,-32.62C-329.38,-32.79 -338.76,-28.77 -347.46,-23.34C-355.69,-18.37 -359.77,-11.24 -359.88,-4.73C-359.97,0.38 -358.60,1.34 -353.95,1.42L-344.18,1.60L-343.00,0.46L-342.86,-7.22C-342.68,-17.44 -338.38,-23.65 -325.83,-23.42C-314.67,-23.22 -303.90,-14.19 -304.11,-2.57L-304.43,15.33L-327.08,20.51C-353.00,26.32 -363.41,36.60 -363.69,51.71C-363.96,66.82 -353.43,76.08 -338.78,76.34ZM-348.03,47.57C-347.83,36.18 -342.35,28.84 -304.55,22.07L-305.21,58.57C-314.12,62.60 -322.05,64.31 -329.73,64.18C-341.58,63.96 -348.23,58.50 -348.03,47.57ZM-220.19,76.60L-216.24,76.67L-180.41,-2.21L-148.59,77.89L-144.64,77.96L-106.21,-16.23L-89.82,-22.45L-89.76,-26.16L-133.46,-26.95L-133.53,-23.23L-115.97,-16.40L-116.00,-15.24L-140.95,53.84L-141.88,53.82L-173.44,-27.67L-177.63,-27.74L-212.10,53.26L-212.80,53.25L-235.93,-18.32L-235.91,-19.48L-217.21,-24.73L-217.15,-28.45L-268.29,-29.37L-268.35,-25.65L-253.35,-19.33ZM-81.87,78.62L-21.19,79.71C27.39,80.58 61.71,47.24 62.60,-2.51C63.31,-42.49 34.56,-72.77 -16.82,-73.69L-79.12,-74.81L-79.20,-70.16L-60.73,-62.85L-63.06,67.33L-81.78,73.97ZM-19.34,-62.81C21.58,-62.07 44.12,-35.62 43.41,4.36C42.70,43.65 18.29,69.48 -19.14,68.81L-44.94,68.35L-42.58,-63.22ZM138.70,84.90C168.22,85.43 188.87,62.31 189.42,31.16C189.98,0.01 170.18,-23.83 140.66,-24.36C111.13,-24.89 90.49,-1.77 89.93,29.38C89.37,60.53 109.18,84.37 138.70,84.90ZM142.10,76.82C118.15,76.39 106.74,51.77 107.22,24.80C107.62,2.72 117.97,-16.86 137.73,-16.51C161.90,-16.07 172.62,8.77 172.14,35.50C171.76,56.66 162.09,77.18 142.10,76.82ZM244.73,84.94L248.69,85.01L284.52,6.12L316.33,86.22L320.28,86.29L358.71,-7.89L375.10,-14.11L375.17,-17.83L331.47,-18.61L331.40,-14.89L348.95,-8.07L348.93,-6.91L323.97,62.17L323.04,62.16L291.48,-19.33L287.30,-19.41L252.83,61.60L252.13,61.58L229.00,-9.99L229.02,-11.15L247.71,-16.39L247.78,-20.11L196.64,-21.03L196.57,-17.31L211.57,-11.00ZM380.04,86.90L426.99,87.74L427.06,84.02L410.66,77.91L411.97,4.69C418.37,-1.94 430.29,-5.22 438.89,-5.06C453.53,-4.80 463.61,3.75 463.33,19.56L462.27,78.84L445.66,84.35L445.59,88.07L492.55,88.92L492.61,85.20L478.07,79.12L479.30,10.78C479.64,-8.28 466.34,-18.52 447.74,-18.86C434.72,-19.09 424.63,-13.92 412.80,-2.51L411.87,-2.52L410.55,-19.52L408.69,-19.56L381.31,-10.28L381.27,-7.72L396.24,0.45L394.85,77.63L380.10,83.18Z" fill="#ffffff" stroke="#000000"/>
    <path d="M-441.34,-180.20L-384.31,-179.03L-384.21,-183.63L-404.77,-190.95L-403.63,-246.37L-390.30,-246.10C-352.81,-245.33 -325.53,-263.40 -325.01,-288.47C-324.43,-316.98 -348.09,-330.12 -384.19,-330.86L-438.23,-331.97L-438.32,-327.37L-420.07,-320.09L-422.70,-191.32L-441.24,-184.80ZM-385.10,-320.07C-359.12,-319.53 -343.90,-309.79 -344.37,-287.02C-344.75,-268.63 -360.64,-256.30 -384.79,-256.80L-403.41,-257.18L-402.12,-320.41ZM-302.45,-177.35L-255.54,-176.39L-255.46,-180.07L-272.13,-186.16L-270.73,-254.69C-264.34,-263.30 -257.59,-267.07 -250.00,-266.92C-246.78,-266.85 -243.80,-266.33 -240.84,-265.12L-234.00,-261.99L-232.85,-261.96L-228.98,-271.09C-228.26,-272.45 -228.24,-273.60 -228.22,-274.52C-228.17,-276.82 -230.67,-278.48 -233.86,-279.93C-235.68,-280.89 -239.11,-281.88 -241.64,-281.93C-249.69,-282.09 -255.94,-280.38 -270.10,-262.50L-270.79,-262.51L-271.99,-282.55L-273.83,-282.59L-300.94,-273.48L-300.99,-270.95L-286.20,-262.83L-287.77,-186.48L-302.37,-181.03ZM-166.82,-172.27C-137.62,-171.67 -117.14,-194.49 -116.50,-225.30C-115.87,-256.12 -135.40,-279.75 -164.61,-280.35C-193.81,-280.95 -214.29,-258.13 -214.92,-227.32C-215.56,-196.51 -196.03,-172.87 -166.82,-172.27ZM-163.44,-180.26C-187.12,-180.74 -198.36,-205.13 -197.81,-231.80C-197.36,-253.65 -187.07,-272.99 -167.53,-272.59C-143.61,-272.10 -133.07,-247.50 -133.62,-221.05C-134.04,-200.13 -143.66,-179.85 -163.44,-180.26ZM-69.46,-309.69C-62.56,-309.55 -57.63,-314.51 -57.49,-321.17C-57.35,-328.07 -62.08,-333.00 -68.98,-333.14C-75.64,-333.28 -80.80,-328.55 -80.94,-321.66C-81.08,-314.99 -76.12,-309.82 -69.46,-309.69ZM-93.81,-120.17C-68.95,-132.08 -63.08,-149.21 -62.61,-172.44L-60.44,-278.22L-62.28,-278.25L-91.20,-270.10L-91.25,-267.81L-76.49,-258.53L-78.27,-171.38C-78.80,-145.62 -81.78,-134.64 -93.74,-123.85ZM22.89,-168.39C41.06,-168.01 55.28,-177.38 62.43,-189.43L62.48,-191.96L61.79,-191.97C52.23,-185.50 41.35,-182.27 30.31,-182.50C1.80,-183.08 -9.76,-202.87 -9.27,-227.02C-9.25,-227.71 -9.24,-228.17 -9.23,-228.86L62.29,-227.39L63.22,-228.29C62.92,-258.44 48.79,-275.98 24.64,-276.47C-1.11,-277.00 -24.15,-252.86 -24.82,-219.97C-25.44,-190.08 -7.92,-169.02 22.89,-168.39ZM21.03,-268.50C36.67,-268.18 45.19,-257.42 47.97,-235.97L-8.37,-237.12C-5.20,-257.30 6.31,-268.80 21.03,-268.50ZM133.73,-166.12C151.89,-165.74 166.12,-175.11 173.26,-187.16L173.32,-189.69L172.63,-189.70C163.06,-183.23 151.95,-180.01 141.15,-180.23C112.86,-180.81 101.31,-200.60 101.80,-224.74C102.36,-251.88 115.31,-266.56 133.94,-266.18C144.74,-265.96 151.53,-260.53 156.90,-253.06L162.49,-245.12L163.87,-245.09L171.82,-251.37C173.69,-252.72 174.18,-254.09 174.21,-255.70C174.26,-257.99 172.46,-260.33 169.31,-263.62C163.44,-269.26 151.81,-273.87 139.62,-274.12C109.73,-274.73 86.93,-251.04 86.24,-217.70C85.63,-187.81 103.14,-166.74 133.73,-166.12ZM230.08,-164.14C243.87,-163.86 252.53,-171.04 255.65,-177.19L255.68,-178.80L255.23,-179.04C251.05,-177.51 245.74,-176.47 239.53,-176.60C229.87,-176.80 222.60,-181.09 222.78,-189.60L224.23,-260.42L254.58,-259.80L254.78,-269.46L224.42,-270.08L224.94,-295.37L223.10,-295.41L209.94,-270.38L189.31,-262.98L189.27,-261.14L208.59,-260.74L207.09,-187.39C206.79,-172.90 216.97,-164.41 230.08,-164.14ZM-622.09,69.24L-562.07,70.47C-514.01,71.46 -479.98,38.57 -478.97,-10.64C-478.16,-50.19 -506.53,-80.22 -557.35,-81.26L-618.98,-82.52L-619.07,-77.92L-600.82,-70.65L-603.46,58.12L-621.99,64.65ZM-559.87,-70.50C-519.40,-69.67 -497.16,-43.45 -497.97,-3.90C-498.77,34.96 -522.99,60.46 -560.01,59.70L-585.54,59.18L-582.87,-70.97ZM-451.69,72.74L-404.78,73.70L-404.71,70.02L-421.38,63.92L-419.97,-4.60C-413.59,-13.21 -406.84,-16.98 -399.25,-16.83C-396.03,-16.76 -393.05,-16.24 -390.08,-15.03L-383.25,-11.90L-382.10,-11.88L-378.23,-21.00C-377.51,-22.37 -377.49,-23.51 -377.47,-24.43C-377.42,-26.73 -379.92,-28.40 -383.11,-29.84C-384.93,-30.80 -388.36,-31.79 -390.89,-31.84C-398.94,-32.01 -405.18,-30.29 -419.35,-12.41L-420.04,-12.42L-421.24,-32.46L-423.08,-32.50L-450.19,-23.39L-450.24,-20.86L-435.45,-12.74L-437.01,63.60L-451.62,69.06ZM-340.90,77.31C-328.03,77.57 -315.95,71.84 -307.74,64.18L-306.82,64.20C-304.91,72.29 -299.28,78.16 -289.17,78.37C-279.74,78.56 -273.19,73.40 -270.09,68.17L-270.08,67.71L-270.53,67.24L-280.65,67.04C-286.63,66.92 -290.05,65.46 -292.30,63.12L-290.91,-4.72C-290.54,-23.11 -304.89,-30.08 -322.13,-30.43C-331.33,-30.62 -340.62,-26.67 -349.24,-21.33C-357.39,-16.43 -361.44,-9.38 -361.58,-2.94C-361.68,2.11 -360.32,3.06 -355.72,3.16L-346.06,3.35L-344.89,2.23L-344.73,-5.36C-344.53,-15.48 -340.26,-21.60 -327.84,-21.35C-316.80,-21.12 -306.18,-12.16 -306.41,-0.66L-306.77,17.04L-329.19,22.10C-354.84,27.79 -365.17,37.93 -365.48,52.88C-365.79,67.82 -355.39,77.01 -340.90,77.31ZM-349.98,48.82C-349.75,37.56 -344.31,30.31 -306.91,23.71L-307.65,59.81C-316.47,63.77 -324.33,65.45 -331.92,65.30C-343.64,65.06 -350.20,59.63 -349.98,48.82ZM-223.59,77.87L-219.68,77.95L-184.04,0.00L-152.77,79.32L-148.86,79.40L-110.60,-13.68L-94.37,-19.79L-94.30,-23.46L-137.53,-24.35L-137.61,-20.67L-120.26,-13.87L-120.28,-12.72L-145.15,55.55L-146.07,55.53L-177.08,-25.16L-181.22,-25.25L-215.53,54.80L-216.22,54.78L-238.92,-16.08L-238.90,-17.22L-220.39,-22.37L-220.31,-26.05L-270.90,-27.08L-270.98,-23.40L-256.15,-17.12ZM-86.76,80.21L-26.74,81.44C21.32,82.43 55.35,49.54 56.36,0.33C57.17,-39.23 28.79,-69.25 -22.02,-70.29L-83.65,-71.56L-83.75,-66.96L-65.49,-59.68L-68.13,69.09L-86.67,75.61ZM-24.55,-59.53C15.93,-58.70 38.16,-32.48 37.35,7.07C36.56,45.93 12.34,71.43 -24.68,70.67L-50.21,70.15L-47.54,-60.00ZM131.42,86.98C160.62,87.58 181.10,64.77 181.73,33.95C182.36,3.14 162.83,-20.50 133.63,-21.10C104.43,-21.69 83.94,1.12 83.31,31.94C82.68,62.75 102.21,86.38 131.42,86.98ZM134.80,79.00C111.12,78.51 99.88,54.13 100.43,27.45C100.88,5.61 111.16,-13.73 130.71,-13.33C154.63,-12.84 165.16,11.76 164.62,38.20C164.19,59.13 154.58,79.40 134.80,79.00ZM236.31,87.29L240.22,87.37L275.86,9.42L307.14,88.74L311.05,88.82L349.30,-4.25L365.53,-10.36L365.60,-14.04L322.37,-14.93L322.30,-11.25L339.64,-4.45L339.62,-3.30L314.76,64.97L313.84,64.95L282.82,-15.74L278.68,-15.82L244.38,64.22L243.69,64.21L220.98,-6.65L221.01,-7.80L239.52,-12.94L239.59,-16.62L189.00,-17.66L188.93,-13.98L203.75,-7.70ZM370.15,89.57L416.60,90.52L416.68,86.84L400.47,80.76L401.95,8.33C408.30,1.79 420.10,-1.42 428.61,-1.25C443.09,-0.95 453.04,7.53 452.72,23.17L451.52,81.81L435.07,87.22L435.00,90.90L481.45,91.85L481.52,88.17L467.16,82.13L468.54,14.52C468.93,-4.33 455.79,-14.50 437.40,-14.87C424.52,-15.14 414.52,-10.05 402.79,1.21L401.87,1.19L400.60,-15.63L398.76,-15.66L371.66,-6.56L371.61,-4.03L386.40,4.10L384.83,80.44L370.23,85.89Z" fill="#ffffff" stroke="#000000"/>
    <path d="M-441.60,-176.75L-385.20,-175.45L-385.09,-180.00L-405.41,-187.30L-404.14,-242.11L-390.95,-241.81C-353.88,-240.95 -326.84,-258.76 -326.27,-283.55C-325.62,-311.75 -348.99,-324.81 -384.69,-325.63L-438.14,-326.86L-438.25,-322.31L-420.21,-315.07L-423.15,-187.71L-441.50,-181.30ZM-385.62,-314.96C-359.92,-314.36 -344.90,-304.69 -345.42,-282.17C-345.84,-263.98 -361.59,-251.82 -385.47,-252.37L-403.90,-252.80L-402.45,-315.34ZM-304.23,-173.59L-257.83,-172.52L-257.75,-176.16L-274.22,-182.22L-272.66,-250.00C-266.32,-258.50 -259.63,-262.22 -252.13,-262.04C-248.94,-261.97 -246.00,-261.45 -243.07,-260.24L-236.31,-257.13L-235.17,-257.10L-231.33,-266.12C-230.61,-267.46 -230.59,-268.60 -230.56,-269.51C-230.51,-271.79 -232.98,-273.44 -236.13,-274.87C-237.93,-275.83 -241.32,-276.81 -243.82,-276.87C-251.78,-277.06 -257.96,-275.38 -272.02,-257.72L-272.71,-257.74L-273.84,-277.56L-275.66,-277.61L-302.49,-268.67L-302.55,-266.16L-287.95,-258.09L-289.69,-182.58L-304.15,-177.23ZM-170.09,-168.22C-141.21,-167.55 -120.89,-190.07 -120.19,-220.55C-119.49,-251.02 -138.74,-274.45 -167.63,-275.12C-196.51,-275.78 -216.83,-253.27 -217.53,-222.79C-218.24,-192.31 -198.98,-168.88 -170.09,-168.22ZM-166.73,-176.11C-190.15,-176.65 -201.20,-200.79 -200.59,-227.18C-200.09,-248.78 -189.87,-267.89 -170.54,-267.45C-146.88,-266.90 -136.52,-242.54 -137.12,-216.38C-137.60,-195.69 -147.17,-175.66 -166.73,-176.11ZM-73.44,-303.89C-66.62,-303.74 -61.72,-308.63 -61.57,-315.22C-61.41,-322.05 -66.08,-326.93 -72.90,-327.09C-79.50,-327.24 -84.61,-322.58 -84.77,-315.76C-84.92,-309.16 -80.03,-304.04 -73.44,-303.89ZM-98.01,-116.49C-73.39,-128.22 -67.54,-145.15 -67.01,-168.12L-64.60,-272.74L-66.42,-272.78L-95.05,-264.80L-95.10,-262.52L-80.52,-253.31L-82.51,-167.11C-83.09,-141.64 -86.08,-130.78 -97.93,-120.13ZM17.54,-163.89C35.51,-163.48 49.61,-172.71 56.71,-184.61L56.77,-187.11L56.08,-187.13C46.61,-180.75 35.84,-177.58 24.92,-177.83C-3.28,-178.48 -14.66,-198.09 -14.11,-221.97C-14.10,-222.65 -14.09,-223.11 -14.07,-223.79L56.66,-222.16L57.59,-223.05C57.37,-252.86 43.44,-270.25 19.55,-270.80C-5.92,-271.39 -28.77,-247.57 -29.52,-215.04C-30.20,-185.48 -12.93,-164.60 17.54,-163.89ZM15.96,-262.92C31.42,-262.56 39.83,-251.90 42.52,-230.68L-13.20,-231.96C-10.01,-251.91 1.40,-263.26 15.96,-262.92ZM127.17,-161.37C145.14,-160.95 159.23,-170.19 166.33,-182.08L166.39,-184.58L165.71,-184.60C156.23,-178.22 145.24,-175.06 134.55,-175.31C106.57,-175.95 95.19,-195.56 95.74,-219.44C96.36,-246.28 109.21,-260.77 127.63,-260.35C138.32,-260.10 145.02,-254.71 150.31,-247.31L155.82,-239.44L157.19,-239.41L165.07,-245.60C166.92,-246.92 167.40,-248.28 167.44,-249.87C167.49,-252.14 165.73,-254.46 162.62,-257.72C156.83,-263.31 145.33,-267.90 133.27,-268.18C103.71,-268.86 81.09,-245.49 80.33,-212.51C79.65,-182.94 96.92,-162.06 127.17,-161.37ZM222.47,-159.17C236.11,-158.86 244.70,-165.94 247.80,-172.01L247.83,-173.61L247.38,-173.84C243.25,-172.35 237.99,-171.33 231.85,-171.47C222.30,-171.69 215.12,-175.95 215.31,-184.37L216.93,-254.42L246.95,-253.73L247.17,-263.28L217.15,-263.97L217.72,-288.99L215.90,-289.03L202.82,-264.30L182.40,-257.04L182.36,-255.22L201.46,-254.78L199.79,-182.22C199.46,-167.89 209.50,-159.47 222.47,-159.17ZM-621.02,69.52L-561.66,70.89C-514.13,71.98 -480.38,39.54 -479.26,-9.13C-478.36,-48.25 -506.34,-78.03 -556.61,-79.19L-617.56,-80.59L-617.67,-76.04L-599.63,-68.80L-602.56,58.57L-620.92,64.97ZM-559.13,-68.55C-519.10,-67.63 -497.17,-41.63 -498.07,-2.51C-498.96,35.92 -522.98,61.08 -559.59,60.24L-584.84,59.66L-581.87,-69.07ZM-452.49,73.40L-406.09,74.47L-406.01,70.83L-422.48,64.77L-420.92,-3.01C-414.58,-11.51 -407.89,-15.23 -400.39,-15.05C-397.20,-14.98 -394.26,-14.46 -391.33,-13.25L-384.57,-10.14L-383.43,-10.11L-379.59,-19.13C-378.87,-20.47 -378.85,-21.61 -378.82,-22.52C-378.77,-24.80 -381.24,-26.45 -384.39,-27.88C-386.19,-28.84 -389.58,-29.82 -392.08,-29.88C-400.04,-30.07 -406.22,-28.39 -420.28,-10.73L-420.97,-10.75L-422.10,-30.57L-423.92,-30.62L-450.75,-21.68L-450.81,-19.17L-436.21,-11.10L-437.95,64.41L-452.41,69.76ZM-342.92,78.21C-330.18,78.50 -318.22,72.86 -310.08,65.31L-309.17,65.33C-307.30,73.34 -301.75,79.15 -291.74,79.38C-282.42,79.60 -275.93,74.52 -272.85,69.35L-272.84,68.90L-273.28,68.43L-283.29,68.20C-289.21,68.06 -292.59,66.62 -294.81,64.29L-293.26,-2.80C-292.84,-20.99 -307.02,-27.92 -324.08,-28.31C-333.17,-28.52 -342.37,-24.64 -350.91,-19.37C-358.98,-14.55 -363.01,-7.59 -363.16,-1.22C-363.27,3.78 -361.93,4.72 -357.38,4.82L-347.83,5.04L-346.67,3.93L-346.49,-3.57C-346.26,-13.58 -342.03,-19.63 -329.74,-19.34C-318.83,-19.09 -308.34,-10.20 -308.60,1.17L-309.00,18.68L-331.19,23.63C-356.58,29.19 -366.82,39.20 -367.16,53.98C-367.50,68.76 -357.24,77.87 -342.92,78.21ZM-351.82,50.01C-351.57,38.87 -346.17,31.71 -309.15,25.28L-309.98,60.99C-318.71,64.88 -326.49,66.52 -334.00,66.35C-345.59,66.08 -352.07,60.70 -351.82,50.01ZM-226.88,79.06L-223.01,79.15L-187.56,2.14L-156.83,80.67L-152.96,80.76L-114.89,-11.20L-98.82,-17.21L-98.74,-20.84L-141.49,-21.83L-141.58,-18.19L-124.44,-11.42L-124.47,-10.29L-149.23,57.18L-150.14,57.16L-180.61,-22.73L-184.71,-22.83L-218.84,56.26L-219.53,56.24L-241.80,-13.90L-241.78,-15.04L-223.46,-20.08L-223.37,-23.72L-273.41,-24.87L-273.49,-21.23L-258.85,-14.98ZM-91.54,81.72L-32.18,83.09C15.35,84.19 49.10,51.74 50.22,3.07C51.12,-36.05 23.14,-65.82 -27.13,-66.98L-88.08,-68.39L-88.19,-63.84L-70.15,-56.60L-73.09,70.77L-91.44,77.17ZM-29.65,-56.34C10.38,-55.42 32.31,-29.43 31.41,9.69C30.52,48.13 6.50,73.29 -30.11,72.44L-55.36,71.86L-52.39,-56.87ZM124.25,88.97C153.13,89.64 173.45,67.12 174.15,36.65C174.85,6.17 155.59,-17.26 126.71,-17.92C97.82,-18.59 77.51,3.93 76.81,34.40C76.10,64.88 95.36,88.31 124.25,88.97ZM127.61,81.09C104.19,80.55 93.14,56.40 93.75,30.01C94.24,8.41 104.47,-10.70 123.80,-10.25C147.46,-9.71 157.82,14.65 157.21,40.81C156.74,61.50 147.17,81.54 127.61,81.09ZM228.00,89.54L231.87,89.63L267.32,12.62L298.05,91.16L301.92,91.25L339.99,-0.72L356.06,-6.72L356.14,-10.36L313.38,-11.35L313.30,-7.71L330.44,-0.94L330.41,0.20L305.65,67.67L304.74,67.65L274.27,-12.25L270.17,-12.34L236.03,66.75L235.35,66.73L213.08,-3.42L213.10,-4.55L231.42,-9.59L231.51,-13.23L181.47,-14.39L181.39,-10.75L196.03,-4.49ZM360.38,92.14L406.32,93.20L406.41,89.56L390.39,83.50L392.04,11.86C398.33,5.40 410.01,2.26 418.43,2.45C432.76,2.78 442.57,11.20 442.22,26.67L440.88,84.67L424.60,89.98L424.52,93.62L470.46,94.68L470.54,91.04L456.35,85.02L457.89,18.15C458.32,-0.50 445.35,-10.58 427.16,-11.00C414.42,-11.29 404.52,-6.29 392.89,4.82L391.98,4.80L390.77,-11.84L388.95,-11.88L362.12,-2.94L362.06,-0.44L376.66,7.63L374.92,83.14L360.46,88.50Z" fill="#ffffff" stroke="#000000"/>
    <path d="M-441.77,-173.37L-385.99,-171.94L-385.87,-176.44L-405.94,-183.70L-404.55,-237.91L-391.51,-237.58C-354.85,-236.64 -328.06,-254.18 -327.43,-278.70C-326.72,-306.59 -349.80,-319.56 -385.11,-320.46L-437.97,-321.82L-438.08,-317.32L-420.26,-310.11L-423.49,-184.15L-441.65,-177.87ZM-386.05,-309.91C-360.64,-309.26 -345.80,-299.65 -346.37,-277.38C-346.84,-259.39 -362.45,-247.41 -386.06,-248.02L-404.28,-248.48L-402.70,-310.34ZM-305.91,-169.89L-260.03,-168.71L-259.94,-172.31L-276.21,-178.36L-274.50,-245.38C-268.20,-253.77 -261.58,-257.43 -254.16,-257.24C-251.01,-257.16 -248.10,-256.64 -245.20,-255.44L-238.53,-252.34L-237.41,-252.31L-233.58,-261.22C-232.87,-262.55 -232.84,-263.67 -232.82,-264.57C-232.76,-266.82 -235.19,-268.46 -238.31,-269.89C-240.08,-270.84 -243.43,-271.82 -245.91,-271.88C-253.78,-272.09 -259.90,-270.44 -273.85,-253.02L-274.52,-253.04L-275.60,-272.65L-277.40,-272.69L-303.96,-263.92L-304.02,-261.44L-289.59,-253.42L-291.51,-178.75L-305.82,-173.49ZM-173.26,-164.24C-144.70,-163.51 -124.55,-185.72 -123.78,-215.86C-123.00,-246.00 -141.99,-269.22 -170.56,-269.96C-199.12,-270.69 -219.27,-248.47 -220.04,-218.33C-220.82,-188.19 -201.83,-164.97 -173.26,-164.24ZM-169.91,-172.03C-193.08,-172.62 -203.95,-196.54 -203.28,-222.63C-202.73,-244.00 -192.57,-262.87 -173.45,-262.38C-150.06,-261.78 -139.87,-237.66 -140.54,-211.79C-141.06,-191.32 -150.57,-171.54 -169.91,-172.03ZM-77.33,-298.18C-70.58,-298.00 -65.73,-302.83 -65.56,-309.36C-65.39,-316.10 -69.99,-320.95 -76.74,-321.12C-83.26,-321.29 -88.33,-316.69 -88.51,-309.94C-88.67,-303.42 -83.85,-298.34 -77.33,-298.18ZM-102.11,-112.90C-77.73,-124.43 -71.90,-141.16 -71.32,-163.88L-68.67,-267.35L-70.46,-267.39L-98.80,-259.56L-98.86,-257.32L-84.46,-248.17L-86.64,-162.92C-87.29,-137.73 -90.27,-127.00 -102.01,-116.50ZM12.30,-159.49C30.07,-159.03 44.03,-168.13 51.08,-179.88L51.15,-182.35L50.47,-182.37C41.08,-176.08 30.43,-172.98 19.63,-173.25C-8.26,-173.97 -19.47,-193.39 -18.86,-217.00C-18.85,-217.68 -18.83,-218.13 -18.82,-218.80L51.14,-217.01L52.06,-217.89C51.91,-247.38 38.17,-264.61 14.56,-265.21C-10.63,-265.86 -33.29,-242.36 -34.12,-210.19C-34.87,-180.95 -17.84,-160.26 12.30,-159.49ZM10.98,-257.43C26.28,-257.04 34.56,-246.47 37.17,-225.47L-17.93,-226.88C-14.73,-246.61 -3.41,-257.80 10.98,-257.43ZM120.71,-156.71C138.48,-156.26 152.45,-165.35 159.50,-177.10L159.56,-179.57L158.89,-179.59C149.50,-173.30 138.62,-170.21 128.04,-170.48C100.38,-171.19 89.17,-190.60 89.78,-214.22C90.46,-240.76 103.20,-255.07 121.42,-254.60C131.99,-254.33 138.61,-248.98 143.82,-241.65L149.25,-233.86L150.60,-233.82L158.41,-239.92C160.24,-241.23 160.73,-242.56 160.77,-244.14C160.82,-246.39 159.08,-248.68 156.01,-251.91C150.30,-257.46 138.94,-262.03 127.02,-262.33C97.78,-263.08 75.36,-240.02 74.52,-207.41C73.77,-178.17 90.80,-157.48 120.71,-156.71ZM214.96,-154.30C228.45,-153.95 236.96,-160.94 240.04,-166.93L240.08,-168.51L239.64,-168.75C235.55,-167.27 230.35,-166.28 224.27,-166.44C214.83,-166.68 207.73,-170.91 207.94,-179.23L209.72,-248.51L239.41,-247.75L239.65,-257.20L209.96,-257.96L210.59,-282.70L208.79,-282.75L195.79,-258.32L175.58,-251.19L175.53,-249.39L194.42,-248.90L192.59,-177.15C192.22,-162.98 202.14,-154.63 214.96,-154.30ZM-619.84,69.74L-561.13,71.25C-514.12,72.45 -480.67,40.45 -479.44,-7.69C-478.44,-46.37 -506.05,-75.89 -555.76,-77.16L-616.04,-78.71L-616.15,-74.21L-598.33,-67.00L-601.56,58.96L-619.72,65.24ZM-558.28,-66.65C-518.69,-65.64 -497.07,-39.87 -498.06,-1.19C-499.03,36.83 -522.85,61.65 -559.06,60.72L-584.03,60.08L-580.77,-67.23ZM-453.17,74.01L-407.28,75.19L-407.19,71.59L-423.47,65.54L-421.75,-1.48C-415.46,-9.88 -408.84,-13.53 -401.42,-13.34C-398.27,-13.26 -395.35,-12.74 -392.46,-11.54L-385.79,-8.44L-384.66,-8.41L-380.83,-17.32C-380.12,-18.65 -380.09,-19.77 -380.07,-20.67C-380.01,-22.92 -382.45,-24.56 -385.56,-25.99C-387.34,-26.94 -390.69,-27.92 -393.16,-27.99C-401.03,-28.19 -407.15,-26.54 -421.10,-9.12L-421.78,-9.14L-422.85,-28.75L-424.65,-28.79L-451.21,-20.02L-451.27,-17.54L-436.85,-9.52L-438.76,65.15L-453.08,70.41ZM-344.81,79.04C-332.22,79.36 -320.37,73.81 -312.30,66.37L-311.40,66.39C-309.58,74.31 -304.10,80.08 -294.20,80.33C-284.98,80.57 -278.55,75.56 -275.49,70.46L-275.48,70.01L-275.92,69.55L-285.82,69.30C-291.67,69.15 -295.01,67.71 -297.20,65.40L-295.50,-0.95C-295.04,-18.94 -309.04,-25.83 -325.91,-26.26C-334.91,-26.49 -344.01,-22.67 -352.47,-17.49C-360.47,-12.74 -364.47,-5.87 -364.63,0.43C-364.76,5.38 -363.43,6.31 -358.93,6.43L-349.49,6.67L-348.33,5.57L-348.14,-1.85C-347.89,-11.75 -343.68,-17.71 -331.54,-17.40C-320.74,-17.13 -310.39,-8.31 -310.68,2.94L-311.12,20.26L-333.08,25.10C-358.20,30.53 -368.36,40.40 -368.73,55.02C-369.10,69.64 -358.98,78.67 -344.81,79.04ZM-353.55,51.13C-353.27,40.11 -347.91,33.04 -311.29,26.78L-312.19,62.09C-320.84,65.92 -328.54,67.53 -335.96,67.34C-347.43,67.04 -353.82,61.70 -353.55,51.13ZM-230.05,80.18L-226.23,80.27L-190.97,4.20L-160.78,81.95L-156.95,82.05L-119.06,-8.81L-103.16,-14.71L-103.07,-18.30L-145.35,-19.39L-145.44,-15.79L-128.51,-9.05L-128.54,-7.93L-153.20,58.74L-154.10,58.71L-184.04,-20.38L-188.09,-20.48L-222.05,57.65L-222.72,57.63L-244.58,-11.80L-244.55,-12.93L-226.42,-17.86L-226.32,-21.46L-275.81,-22.73L-275.90,-19.13L-261.43,-12.91ZM-96.21,83.15L-37.50,84.66C9.50,85.86 42.96,53.86 44.19,5.72C45.18,-32.96 17.58,-62.48 -32.13,-63.75L-92.41,-65.30L-92.52,-60.80L-74.70,-53.59L-77.93,72.37L-96.10,78.66ZM-34.65,-53.24C4.94,-52.23 26.56,-26.46 25.57,12.22C24.60,50.24 0.78,75.06 -35.43,74.13L-60.40,73.49L-57.14,-53.82ZM117.19,90.87C145.75,91.60 165.90,69.39 166.67,39.25C167.45,9.11 148.46,-14.11 119.89,-14.85C91.33,-15.58 71.18,6.64 70.41,36.78C69.63,66.92 88.62,90.14 117.19,90.87ZM120.54,83.08C97.37,82.48 86.50,58.57 87.17,32.48C87.72,11.11 97.88,-7.76 117.00,-7.27C140.39,-6.67 150.58,17.45 149.92,43.32C149.39,63.79 139.88,83.57 120.54,83.08ZM219.80,91.70L223.62,91.80L258.88,15.72L289.08,93.47L292.90,93.57L330.79,2.71L346.70,-3.18L346.79,-6.78L304.50,-7.87L304.41,-4.27L321.34,2.47L321.31,3.59L296.65,70.26L295.75,70.23L265.81,-8.86L261.77,-8.96L227.80,69.17L227.13,69.15L205.27,-0.28L205.30,-1.40L223.44,-6.34L223.53,-9.94L174.04,-11.21L173.95,-7.61L188.42,-1.39ZM350.72,94.60L396.15,95.76L396.25,92.17L380.42,86.13L382.23,15.28C388.47,8.91 400.03,5.83 408.35,6.05C422.52,6.41 432.21,14.76 431.82,30.06L430.35,87.41L414.24,92.63L414.15,96.22L459.58,97.39L459.67,93.79L445.65,87.80L447.34,21.68C447.81,3.23 435.02,-6.77 417.02,-7.24C404.43,-7.56 394.62,-2.63 383.09,8.33L382.19,8.30L381.03,-8.16L379.23,-8.20L352.68,0.57L352.61,3.04L367.04,11.07L365.12,85.74L350.81,91.00Z" fill="#ffffff" stroke="#000000"/>
    <path d="M-903.12,492.38C-899.47,492.38 -895.14,489.80 -895.14,485.43C-895.14,481.55 -897.23,480.07 -901.83,477.86C-905.32,476.15 -906.96,474.98 -906.96,472.28C-906.96,469.92 -905.32,468.10 -902.70,468.10C-901.03,468.10 -899.89,468.59 -898.33,469.88L-896.66,474.06L-896.01,474.06L-896.39,468.14C-898.41,467.11 -900.19,466.54 -902.51,466.54C-906.27,466.54 -909.85,470.00 -909.85,473.34C-909.85,476.76 -907.95,478.21 -904.49,479.95C-900.50,481.93 -897.99,482.73 -897.99,486.15C-897.99,489.11 -899.78,490.86 -902.93,490.86C-904.64,490.86 -906.27,490.37 -908.10,488.92L-910.07,484.55L-910.72,484.55L-910.34,490.63C-908.02,491.81 -906.16,492.38 -903.12,492.38ZM-891.07,500.74L-883.40,500.74L-883.40,500.13L-886.10,499.18L-886.10,491.77C-884.99,492.15 -883.70,492.38 -882.37,492.38C-877.58,492.38 -873.67,488.85 -873.67,482.61C-873.67,477.60 -876.44,474.52 -880.24,474.52C-882.30,474.52 -884.01,475.20 -885.94,476.84L-886.17,476.84L-886.40,474.52L-886.70,474.52L-891.15,476.12L-891.15,476.53L-888.68,477.83L-888.68,499.18L-891.07,500.13ZM-881.92,476.61C-878.88,476.61 -876.18,478.74 -876.18,483.60C-876.18,488.88 -878.50,490.90 -881.19,490.90C-883.09,490.90 -884.58,490.44 -886.10,489.34L-886.10,478.05C-884.84,477.10 -883.40,476.61 -881.92,476.61ZM-861.89,492.38C-858.89,492.38 -856.57,490.78 -855.43,488.77L-855.43,488.35L-855.54,488.35C-857.10,489.45 -858.89,490.02 -860.71,490.02C-865.42,490.02 -867.40,486.79 -867.40,482.80C-867.40,482.69 -867.40,482.61 -867.40,482.50L-855.58,482.50L-855.43,482.35C-855.58,477.37 -857.98,474.52 -861.97,474.52C-866.22,474.52 -869.95,478.59 -869.95,484.02C-869.95,488.96 -866.98,492.38 -861.89,492.38ZM-862.54,475.85C-859.95,475.85 -858.51,477.60 -857.98,481.13L-867.29,481.13C-866.83,477.79 -864.97,475.85 -862.54,475.85ZM-843.57,492.38C-840.57,492.38 -838.25,490.78 -837.11,488.77L-837.11,488.35L-837.23,488.35C-838.79,489.45 -840.61,490.02 -842.40,490.02C-847.07,490.02 -849.05,486.79 -849.05,482.80C-849.05,478.32 -846.96,475.85 -843.88,475.85C-842.09,475.85 -840.95,476.72 -840.04,477.94L-839.09,479.23L-838.86,479.23L-837.57,478.17C-837.27,477.94 -837.19,477.71 -837.19,477.45C-837.19,477.07 -837.49,476.69 -838.03,476.15C-839.01,475.24 -840.95,474.52 -842.97,474.52C-847.91,474.52 -851.59,478.51 -851.59,484.02C-851.59,488.96 -848.63,492.38 -843.57,492.38ZM-827.65,492.38C-825.37,492.38 -823.97,491.16 -823.47,490.14L-823.47,489.87L-823.55,489.83C-824.23,490.10 -825.11,490.29 -826.13,490.29C-827.73,490.29 -828.94,489.61 -828.94,488.20L-828.94,476.50L-823.93,476.50L-823.93,474.90L-828.94,474.90L-828.94,470.72L-829.25,470.72L-831.34,474.90L-834.72,476.19L-834.72,476.50L-831.53,476.50L-831.53,488.62C-831.53,491.01 -829.82,492.38 -827.65,492.38ZM-820.20,492L-812.45,492L-812.45,491.39L-815.23,490.44L-815.23,479.12C-814.20,477.67 -813.10,477.03 -811.84,477.03C-811.31,477.03 -810.82,477.10 -810.32,477.29L-809.18,477.79L-808.99,477.79L-808.39,476.27C-808.27,476.04 -808.27,475.85 -808.27,475.70C-808.27,475.32 -808.69,475.05 -809.22,474.82C-809.53,474.67 -810.10,474.52 -810.51,474.52C-811.84,474.52 -812.87,474.82 -815.15,477.83L-815.26,477.83L-815.53,474.52L-815.83,474.52L-820.28,476.12L-820.28,476.53L-817.81,477.83L-817.81,490.44L-820.20,491.39ZM-801.89,492.38C-799.76,492.38 -797.78,491.39 -796.45,490.10L-796.30,490.10C-795.96,491.43 -795.01,492.38 -793.34,492.38C-791.78,492.38 -790.72,491.51 -790.22,490.63L-790.22,490.56L-790.30,490.48L-791.97,490.48C-792.96,490.48 -793.53,490.25 -793.91,489.87L-793.91,478.66C-793.91,475.62 -796.30,474.52 -799.15,474.52C-800.67,474.52 -802.19,475.20 -803.60,476.12C-804.93,476.95 -805.57,478.13 -805.57,479.19C-805.57,480.03 -805.35,480.18 -804.59,480.18L-802.99,480.18L-802.80,479.99L-802.80,478.74C-802.80,477.07 -802.12,476.04 -800.06,476.04C-798.24,476.04 -796.45,477.48 -796.45,479.38L-796.45,482.31L-800.14,483.22C-804.36,484.25 -806.03,485.96 -806.03,488.43C-806.03,490.90 -804.28,492.38 -801.89,492.38ZM-803.48,487.71C-803.48,485.84 -802.61,484.63 -796.45,483.41L-796.45,489.38C-797.90,490.06 -799.19,490.37 -800.44,490.37C-802.38,490.37 -803.48,489.49 -803.48,487.71ZM-787.98,492L-780.49,492L-780.49,491.39L-783.00,490.44L-783.00,463.50L-783.31,463.50L-788.06,464.94L-788.06,465.32L-785.59,466.81L-785.59,490.44L-787.98,491.39ZM-776.92,483.34L-766.47,483.34L-766.47,481.13L-776.92,481.13ZM-762.10,492L-743.56,492L-743.56,483.72L-744.20,483.72L-746.48,490.21L-756.14,490.21L-756.14,468.82L-752.72,467.68L-752.72,466.92L-762.10,466.92L-762.10,467.68L-759.10,468.82L-759.10,490.10L-762.10,491.24ZM-735.31,469.35C-734.17,469.35 -733.37,468.52 -733.37,467.41C-733.37,466.27 -734.17,465.48 -735.31,465.48C-736.41,465.48 -737.25,466.27 -737.25,467.41C-737.25,468.52 -736.41,469.35 -735.31,469.35ZM-738.69,492L-731.21,492L-731.21,491.39L-733.72,490.44L-733.72,474.52L-734.02,474.52L-738.77,475.96L-738.77,476.34L-736.30,477.83L-736.30,490.44L-738.69,491.39ZM-719.81,486.45C-716.12,486.45 -713.39,483.91 -713.39,480.49C-713.39,479.08 -713.92,477.52 -714.75,476.65L-714.64,476.50L-710.95,476.76L-710.95,474.90L-716.46,475.20C-717.38,474.82 -718.74,474.52 -719.81,474.52C-723.49,474.52 -726.23,477.10 -726.23,480.49C-726.23,482.65 -725.17,484.44 -723.46,485.50L-723.46,485.69L-725.58,486.87C-726.23,487.48 -726.50,488.24 -726.50,489.15C-726.50,490.67 -725.51,491.81 -723.72,492.23L-723.72,492.34L-726.23,494.17C-726.65,494.85 -726.88,495.65 -726.88,496.60C-726.88,499.14 -725.01,501.12 -720.34,501.12C-715.02,501.12 -711.60,497.89 -711.60,494.70C-711.60,491.81 -713.27,490.21 -716.69,490.21L-721.14,490.21C-723.30,490.21 -724.25,489.57 -724.25,488.09C-724.25,487.21 -723.80,486.45 -722.51,485.96C-721.71,486.30 -720.80,486.45 -719.81,486.45ZM-719.43,485.24C-721.86,485.24 -723.61,483.37 -723.61,480.37C-723.61,477.67 -722.32,475.70 -720.07,475.70C-717.79,475.70 -716.05,477.52 -716.05,480.60C-716.05,483.30 -717.34,485.24 -719.43,485.24ZM-724.56,496.18C-724.56,494.43 -724.10,493.18 -722.70,492.34C-722.54,492.38 -722.32,492.38 -722.13,492.38L-718.10,492.38C-714.98,492.38 -713.92,493.10 -713.92,495.42C-713.92,497.85 -716.35,500.13 -719.85,500.13C-722.51,500.13 -724.56,498.46 -724.56,496.18ZM-707.08,492L-699.40,492L-699.40,491.39L-702.10,490.48L-702.10,478.47C-701.07,477.37 -699.14,476.80 -697.73,476.80C-695.34,476.80 -693.66,478.17 -693.66,480.75L-693.66,490.48L-696.36,491.39L-696.36,492L-688.69,492L-688.69,491.39L-691.08,490.44L-691.08,479.27C-691.08,476.15 -693.28,474.52 -696.32,474.52C-698.45,474.52 -700.09,475.39 -701.99,477.29L-702.10,477.29L-702.10,463.50L-702.40,463.50L-707.15,464.94L-707.15,465.32L-704.68,466.81L-704.68,490.44L-707.08,491.39ZM-679.49,492.38C-677.21,492.38 -675.80,491.16 -675.31,490.14L-675.31,489.87L-675.39,489.83C-676.07,490.10 -676.94,490.29 -677.97,490.29C-679.57,490.29 -680.78,489.61 -680.78,488.20L-680.78,476.50L-675.77,476.50L-675.77,474.90L-680.78,474.90L-680.78,470.72L-681.09,470.72L-683.18,474.90L-686.56,476.19L-686.56,476.50L-683.37,476.50L-683.37,488.62C-683.37,491.01 -681.66,492.38 -679.49,492.38Z"/>
</svg>