<?xml version="1.0"?>
<svg xmlns="http://www.w3.org/2000/svg" width="1920" height="1080" viewBox="-960 -540 1920 1080">
    <path d="M-320.28,-210L-295.28,-210C-270.56,-210 -256.12,-219.72 -256.12,-245.00L-256.12,-276.94C-256.12,-296.10 -259.17,-311.93 -267.51,-318.04L-286.12,-316.38L-286.12,-319.16C-271.39,-326.65 -260.28,-336.93 -260.28,-358.60L-260.28,-377.76C-260.28,-403.04 -273.06,-412.76 -295.28,-412.76L-320.28,-412.76ZM-294.17,-320.82L-299.45,-318.60L-299.45,-393.87L-297.23,-393.87C-285.28,-393.87 -281.12,-388.87 -281.12,-370.82L-281.12,-341.93C-281.12,-332.21 -283.62,-325.54 -294.17,-320.82ZM-291.67,-312.49C-281.95,-312.49 -276.95,-306.66 -276.95,-294.16L-276.95,-251.94C-276.95,-233.89 -282.23,-228.89 -297.23,-228.89L-299.45,-228.89L-299.45,-309.71C-297.23,-311.38 -294.73,-312.49 -291.67,-312.49ZM-210.28,-379.43C-227.78,-379.43 -241.39,-359.15 -241.39,-341.65C-241.39,-328.88 -239.72,-313.05 -234.17,-299.71L-207.50,-299.71C-230.28,-322.77 -235.00,-333.04 -235.00,-344.71C-235.00,-354.43 -231.39,-360.54 -216.95,-360.54C-207.78,-360.54 -205.56,-358.32 -205.56,-349.43L-205.56,-298.05C-227.50,-277.49 -239.17,-268.61 -239.17,-246.11L-239.17,-226.94C-239.17,-213.61 -233.61,-207.22 -223.06,-207.22C-212.50,-207.22 -205.56,-213.89 -201.39,-255.27L-198.62,-254.72C-201.95,-215.28 -196.95,-207.22 -185.56,-207.22C-172.51,-207.22 -169.73,-220.55 -170.01,-238.05L-170.84,-285.55L-174.73,-285.55L-175.56,-236.94C-175.84,-227.78 -177.78,-226.11 -180.28,-226.11C-183.34,-226.11 -186.12,-227.78 -186.12,-242.77L-186.12,-356.65C-186.12,-370.82 -194.17,-379.43 -210.28,-379.43ZM-215.00,-227.50C-217.78,-227.50 -219.73,-229.16 -219.73,-234.16L-219.73,-261.94C-219.73,-273.60 -217.78,-280.27 -205.56,-292.21L-205.56,-269.99C-205.56,-244.44 -208.89,-227.50 -215.00,-227.50ZM-116.39,-210L-96.95,-210L-96.95,-376.65L-116.39,-376.65L-116.39,-271.10C-116.39,-245.27 -122.23,-226.11 -130.00,-226.11C-135.28,-226.11 -136.67,-230.55 -136.67,-240.55L-136.67,-376.65L-156.11,-376.65L-156.11,-229.72C-156.11,-215.83 -148.61,-207.22 -138.34,-207.22C-127.78,-207.22 -118.34,-214.17 -112.51,-255.83L-109.73,-255.27L-116.39,-213.06ZM-78.89,-210L-28.06,-210L-28.06,-228.05L-58.06,-228.05L-58.06,-313.88L-38.34,-313.88L-38.34,-319.99L-58.06,-319.99L-58.06,-394.70L-30.84,-394.70L-30.84,-412.76L-78.89,-412.76ZM23.88,-358.87C28.88,-358.87 31.38,-356.65 31.38,-351.65C31.38,-346.65 25.55,-334.71 9.72,-301.38L30.83,-301.38C35.55,-326.10 36.38,-344.71 36.38,-351.93C36.38,-370.26 32.22,-379.43 23.88,-379.43C14.44,-379.43 7.50,-372.48 1.66,-330.82L-1.11,-331.38L5.00,-373.59L5.00,-376.65L-14.17,-376.65L-14.17,-210L5.27,-210L5.27,-316.10C5.27,-344.15 15.00,-358.87 23.88,-358.87ZM48.89,-332.21L48.89,-229.72C48.89,-215.83 56.39,-207.22 66.66,-207.22C77.22,-207.22 86.66,-214.17 92.49,-255.83L95.27,-255.27L88.88,-213.06L88.88,-210L108.05,-210L108.05,-412.76L88.61,-412.76L88.61,-379.15L95.55,-371.93L93.88,-370.26C87.77,-375.82 81.66,-379.43 74.72,-379.43C56.94,-379.43 48.89,-365.54 48.89,-332.21ZM68.89,-333.88C68.89,-357.76 71.39,-361.65 76.66,-361.65C81.11,-361.65 85.00,-359.71 88.61,-356.10L88.61,-270.55C88.61,-245.00 82.22,-226.11 76.11,-226.11C71.39,-226.11 68.89,-230.55 68.89,-240.55ZM180.27,-346.65C180.27,-370.82 172.22,-379.43 156.94,-379.43C140.28,-379.43 127.50,-369.15 127.50,-341.65L127.50,-239.72C127.50,-215.83 136.11,-207.22 153.05,-207.22C171.66,-207.22 180.55,-227.22 179.99,-253.61L179.16,-286.94L175.27,-286.94L174.44,-254.44C173.88,-236.66 170.27,-226.11 161.94,-226.11C154.16,-226.11 146.94,-229.16 146.94,-249.16L146.94,-302.21L180.27,-302.21ZM163.61,-337.49L163.61,-306.10L146.94,-306.10L146.94,-344.43C146.94,-354.43 148.33,-360.54 155.00,-360.54C160.55,-360.54 163.61,-357.76 163.61,-337.49ZM219.16,-376.65L199.72,-376.65L199.72,-210L219.16,-210L219.16,-315.54C219.16,-341.38 225.00,-360.54 232.77,-360.54C238.05,-360.54 239.44,-356.10 239.44,-346.10L239.44,-210L258.88,-210L258.88,-356.93C258.88,-370.82 251.38,-379.43 241.11,-379.43C230.55,-379.43 221.11,-372.48 215.28,-330.82L212.50,-331.38L219.16,-373.59Z" fill="#ffffff" stroke="#000000"/>
    <path d="M-325.64,-200.74L-300.89,-201.06C-276.42,-201.37 -262.25,-211.18 -262.57,-236.20L-262.98,-267.82C-263.23,-286.79 -266.45,-302.43 -274.78,-308.37L-293.18,-306.48L-293.22,-309.23C-278.74,-316.84 -267.87,-327.16 -268.15,-348.60L-268.39,-367.58C-268.72,-392.60 -281.49,-402.06 -303.49,-401.77L-328.23,-401.45ZM-301.21,-310.78L-306.41,-308.51L-307.37,-383.02L-305.17,-383.05C-293.35,-383.20 -289.16,-378.31 -288.93,-360.44L-288.56,-331.84C-288.43,-322.22 -290.82,-315.59 -301.21,-310.78ZM-298.63,-302.56C-289.01,-302.69 -283.98,-296.98 -283.82,-284.60L-283.28,-242.81C-283.05,-224.94 -288.21,-219.92 -303.06,-219.73L-305.26,-219.70L-306.29,-299.71C-304.11,-301.39 -301.65,-302.52 -298.63,-302.56ZM-218.92,-369.86C-236.24,-369.64 -249.45,-349.40 -249.23,-332.07C-249.06,-319.43 -247.21,-303.78 -241.54,-290.65L-215.15,-290.99C-237.99,-313.52 -242.79,-323.63 -242.94,-335.18C-243.07,-344.80 -239.57,-350.90 -225.27,-351.08C-216.20,-351.20 -213.97,-349.03 -213.86,-340.23L-213.20,-289.37C-234.66,-268.74 -246.09,-259.79 -245.81,-237.52L-245.56,-218.55C-245.39,-205.35 -239.81,-199.10 -229.36,-199.23C-218.91,-199.37 -212.12,-206.06 -208.53,-247.08L-205.77,-246.56C-208.57,-207.48 -203.52,-199.57 -192.24,-199.71C-179.32,-199.88 -176.74,-213.11 -177.24,-230.43L-178.67,-277.44L-182.52,-277.39L-182.73,-229.26C-182.88,-220.18 -184.79,-218.51 -187.26,-218.48C-190.29,-218.44 -193.06,-220.05 -193.25,-234.90L-194.71,-347.63C-194.89,-361.65 -202.97,-370.07 -218.92,-369.86ZM-221.65,-219.41C-224.40,-219.37 -226.34,-221.00 -226.41,-225.95L-226.76,-253.44C-226.91,-264.99 -225.07,-271.61 -213.13,-283.59L-212.84,-261.60C-212.52,-236.30 -215.60,-219.49 -221.65,-219.41ZM-123.81,-203.35L-104.56,-203.60L-106.69,-368.57L-125.94,-368.32L-124.59,-263.84C-124.26,-238.27 -129.79,-219.22 -137.49,-219.12C-142.71,-219.05 -144.14,-223.43 -144.27,-233.33L-146.01,-368.06L-165.26,-367.81L-163.38,-222.36C-163.20,-208.61 -155.67,-200.19 -145.49,-200.32C-135.05,-200.45 -125.79,-207.45 -120.55,-248.76L-117.79,-248.25L-123.85,-206.37ZM-86.68,-203.83L-36.37,-204.48L-36.60,-222.35L-66.29,-221.97L-67.39,-306.92L-47.87,-307.18L-47.95,-313.23L-67.47,-312.97L-68.42,-386.93L-41.48,-387.28L-41.71,-405.15L-89.28,-404.54ZM13.15,-352.51C18.10,-352.58 20.60,-350.41 20.67,-345.46C20.73,-340.51 15.11,-328.62 -0.14,-295.42L20.76,-295.69C25.12,-320.22 25.70,-338.65 25.61,-345.80C25.38,-363.95 21.14,-372.97 12.89,-372.86C3.54,-372.74 -3.25,-365.78 -8.49,-324.46L-11.24,-324.97L-5.73,-366.85L-5.77,-369.87L-24.74,-369.62L-22.61,-204.65L-3.37,-204.90L-4.72,-309.93C-5.08,-337.70 4.35,-352.40 13.15,-352.51ZM38.24,-326.44L39.55,-224.98C39.73,-211.24 47.27,-202.81 57.44,-202.94C67.89,-203.07 77.15,-210.07 82.39,-251.39L85.14,-250.87L79.36,-209.00L79.40,-205.97L98.37,-206.22L95.78,-406.93L76.53,-406.68L76.96,-373.41L83.93,-366.35L82.30,-364.68C76.18,-370.10 70.08,-373.60 63.21,-373.51C45.61,-373.28 37.82,-359.43 38.24,-326.44ZM58.02,-328.34C57.71,-351.99 60.14,-355.87 65.36,-355.94C69.76,-356.00 73.64,-354.12 77.26,-350.59L78.35,-265.91C78.68,-240.61 72.59,-221.84 66.55,-221.76C61.87,-221.70 59.34,-226.06 59.21,-235.96ZM168.12,-342.42C167.81,-366.34 159.72,-374.76 144.60,-374.56C128.11,-374.35 115.59,-364.01 115.94,-336.79L117.25,-235.89C117.55,-212.24 126.18,-203.83 142.96,-204.04C161.38,-204.28 169.92,-224.19 169.03,-250.31L167.78,-283.29L163.93,-283.24L163.52,-251.06C163.20,-233.46 159.76,-222.96 151.51,-222.86C143.81,-222.76 136.63,-225.69 136.37,-245.48L135.69,-298.00L168.69,-298.43ZM151.74,-333.13L152.14,-302.06L135.64,-301.85L135.15,-339.79C135.02,-349.69 136.32,-355.76 142.92,-355.84C148.42,-355.91 151.48,-353.20 151.74,-333.13ZM206.23,-372.61L186.99,-372.36L189.12,-207.39L208.37,-207.64L207.02,-312.12C206.69,-337.69 212.21,-356.74 219.91,-356.84C225.14,-356.90 226.57,-352.52 226.70,-342.62L228.44,-207.90L247.68,-208.15L245.80,-353.60C245.63,-367.34 238.09,-375.77 227.92,-375.64C217.47,-375.51 208.21,-368.51 202.97,-327.19L200.21,-327.71L206.27,-369.59Z" fill="#ffffff" stroke="#000000"/>
    <path d="M-330.69,-191.44L-306.20,-192.07C-281.98,-192.70 -268.08,-202.59 -268.72,-227.35L-269.53,-258.64C-270.02,-277.41 -273.41,-292.85 -281.73,-298.62L-299.92,-296.52L-299.99,-299.24C-285.76,-306.96 -275.13,-317.31 -275.68,-338.53L-276.17,-357.31C-276.81,-382.07 -289.57,-391.27 -311.34,-390.71L-335.83,-390.07ZM-307.92,-300.67L-313.03,-298.36L-314.94,-372.10L-312.76,-372.15C-301.06,-372.46 -296.86,-367.66 -296.40,-349.98L-295.67,-321.68C-295.42,-312.15 -297.70,-305.56 -307.92,-300.67ZM-305.26,-292.57C-295.74,-292.81 -290.69,-287.23 -290.37,-274.98L-289.31,-233.62C-288.85,-215.94 -293.89,-210.90 -308.58,-210.52L-310.76,-210.47L-312.81,-289.65C-310.67,-291.34 -308.25,-292.49 -305.26,-292.57ZM-227.22,-360.21C-244.36,-359.76 -257.18,-339.56 -256.74,-322.41C-256.42,-309.90 -254.38,-294.43 -248.60,-281.51L-222.48,-282.18C-245.38,-304.19 -250.26,-314.14 -250.56,-325.57C-250.81,-335.09 -247.42,-341.17 -233.27,-341.53C-224.29,-341.77 -222.06,-339.65 -221.84,-330.94L-220.53,-280.60C-241.51,-259.91 -252.71,-250.91 -252.14,-228.87L-251.66,-210.09C-251.32,-197.03 -245.72,-190.91 -235.38,-191.18C-225.04,-191.45 -218.40,-198.15 -215.37,-238.80L-212.63,-238.33C-214.90,-199.60 -209.80,-191.84 -198.64,-192.13C-185.85,-192.46 -183.47,-205.59 -184.19,-222.73L-186.20,-269.23L-190.01,-269.14L-189.60,-221.50C-189.64,-212.51 -191.50,-210.83 -193.95,-210.76C-196.94,-210.69 -199.71,-212.25 -200.09,-226.94L-202.97,-338.51C-203.33,-352.38 -211.44,-360.61 -227.22,-360.21ZM-228.00,-211.25C-230.72,-211.18 -232.67,-212.76 -232.79,-217.66L-233.50,-244.87C-233.79,-256.30 -232.06,-262.88 -220.39,-274.89L-219.82,-253.12C-219.18,-228.08 -222.01,-211.40 -228.00,-211.25ZM-130.95,-196.60L-111.90,-197.09L-116.12,-360.36L-135.17,-359.86L-132.50,-256.46C-131.84,-231.16 -137.07,-212.24 -144.69,-212.04C-149.86,-211.90 -151.34,-216.22 -151.59,-226.02L-155.04,-359.35L-174.08,-358.86L-170.36,-214.91C-170.01,-201.31 -162.44,-193.06 -152.38,-193.32C-142.04,-193.59 -132.96,-200.63 -128.30,-241.60L-125.57,-241.12L-131.03,-199.59ZM-94.21,-197.55L-44.41,-198.84L-44.87,-216.53L-74.26,-215.77L-76.43,-299.85L-57.11,-300.35L-57.27,-306.33L-76.59,-305.83L-78.48,-379.03L-51.81,-379.72L-52.27,-397.40L-99.34,-396.19ZM2.70,-346.00C7.60,-346.13 10.11,-344.02 10.23,-339.12C10.36,-334.22 4.95,-322.37 -9.72,-289.32L10.96,-289.85C14.96,-314.19 15.31,-332.44 15.13,-339.52C14.66,-357.47 10.35,-366.35 2.18,-366.14C-7.07,-365.90 -13.69,-358.92 -18.35,-317.96L-21.09,-318.43L-16.17,-359.95L-16.25,-362.94L-35.02,-362.45L-30.80,-199.19L-11.76,-199.68L-14.44,-303.63C-15.15,-331.11 -6.00,-345.78 2.70,-346.00ZM27.88,-320.51L30.47,-220.11C30.82,-206.50 38.39,-198.26 48.46,-198.52C58.80,-198.78 67.87,-205.83 72.53,-246.79L75.27,-246.32L70.08,-204.79L70.15,-201.80L88.93,-202.29L83.79,-400.92L64.75,-400.43L65.60,-367.50L72.58,-360.61L70.99,-358.93C64.87,-364.22 58.79,-367.60 51.99,-367.43C34.57,-366.98 27.03,-353.17 27.88,-320.51ZM47.42,-322.65C46.82,-346.05 49.17,-349.93 54.34,-350.06C58.69,-350.17 62.55,-348.37 66.18,-344.92L68.35,-261.11C69.00,-236.08 63.22,-217.41 57.23,-217.26C52.60,-217.14 50.04,-221.43 49.79,-231.23ZM156.22,-337.99C155.61,-361.66 147.50,-369.89 132.54,-369.51C116.21,-369.09 103.95,-358.69 104.65,-331.76L107.23,-231.89C107.84,-208.49 116.49,-200.28 133.09,-200.70C151.32,-201.18 159.52,-220.99 158.31,-246.83L156.65,-279.46L152.84,-279.36L152.84,-247.50C152.75,-230.08 149.48,-219.64 141.32,-219.43C133.70,-219.24 126.55,-222.05 126.04,-241.64L124.70,-293.61L157.35,-294.45ZM140.13,-328.59L140.92,-297.84L124.60,-297.42L123.63,-334.97C123.37,-344.77 124.58,-350.79 131.11,-350.96C136.55,-351.10 139.62,-348.45 140.13,-328.59ZM193.56,-368.36L174.52,-367.87L178.74,-204.61L197.79,-205.10L195.11,-308.50C194.46,-333.81 199.69,-352.73 207.31,-352.93C212.48,-353.06 213.95,-348.74 214.20,-338.94L217.65,-205.61L236.70,-206.11L232.98,-350.05C232.62,-363.65 225.06,-371.90 214.99,-371.64C204.65,-371.37 195.57,-364.33 190.92,-323.37L188.18,-323.84L193.64,-365.37Z" fill="#ffffff" stroke="#000000"/>
    <path d="M-335.44,-182.10L-311.21,-183.04C-287.25,-183.97 -273.62,-193.94 -274.57,-218.44L-275.77,-249.40C-276.49,-267.97 -280.05,-283.20 -288.35,-288.81L-306.33,-286.50L-306.43,-289.19C-292.45,-297.01 -282.06,-307.39 -282.88,-328.39L-283.60,-346.97C-284.55,-371.46 -297.30,-380.41 -318.84,-379.57L-343.06,-378.63ZM-314.30,-290.50L-319.33,-288.15L-322.16,-361.11L-320.01,-361.19C-308.43,-361.64 -304.21,-356.95 -303.53,-339.45L-302.44,-311.45C-302.08,-302.03 -304.25,-295.48 -314.30,-290.50ZM-311.57,-282.52C-302.14,-282.89 -297.08,-277.42 -296.61,-265.31L-295.02,-224.38C-294.34,-206.89 -299.27,-201.84 -313.81,-201.28L-315.96,-201.19L-319.00,-279.54C-316.91,-281.23 -314.53,-282.41 -311.57,-282.52ZM-235.19,-350.46C-252.16,-349.80 -264.58,-329.64 -263.93,-312.68C-263.45,-300.29 -261.24,-285.01 -255.35,-272.30L-229.51,-273.30C-252.45,-294.79 -257.41,-304.57 -257.85,-315.88C-258.21,-325.30 -254.94,-331.36 -240.95,-331.90C-232.06,-332.25 -229.82,-330.18 -229.49,-321.56L-227.56,-271.76C-248.05,-251.01 -259.03,-241.96 -258.18,-220.15L-257.46,-201.58C-256.96,-188.65 -251.33,-182.67 -241.10,-183.07C-230.87,-183.46 -224.39,-190.19 -221.91,-230.46L-219.20,-230.02C-220.95,-191.67 -215.80,-184.05 -204.76,-184.48C-192.11,-184.97 -189.92,-198.00 -190.84,-214.95L-193.44,-260.95L-197.21,-260.80L-196.19,-213.66C-196.11,-204.76 -197.93,-203.08 -200.35,-202.98C-203.32,-202.87 -206.07,-204.38 -206.63,-218.92L-210.92,-329.29C-211.45,-343.02 -219.58,-351.07 -235.19,-350.46ZM-234.06,-203.02C-236.75,-202.92 -238.70,-204.46 -238.89,-209.31L-239.93,-236.23C-240.37,-247.54 -238.74,-254.07 -227.34,-266.11L-226.50,-244.57C-225.54,-219.80 -228.14,-203.25 -234.06,-203.02ZM-137.82,-189.77L-118.98,-190.50L-125.24,-352.03L-144.09,-351.30L-140.12,-249.00C-139.15,-223.96 -144.08,-205.17 -151.62,-204.87C-156.73,-204.67 -158.25,-208.93 -158.62,-218.62L-163.74,-350.54L-182.59,-349.81L-177.06,-207.39C-176.54,-193.93 -168.95,-185.87 -158.99,-186.25C-148.75,-186.65 -139.86,-193.74 -135.78,-234.34L-133.06,-233.90L-137.94,-192.73ZM-101.47,-191.18L-52.20,-193.09L-52.88,-210.59L-81.96,-209.46L-85.18,-292.65L-66.07,-293.39L-66.30,-299.31L-85.41,-298.57L-88.22,-370.99L-61.84,-372.02L-62.52,-389.51L-109.09,-387.71ZM-7.45,-339.34C-2.61,-339.53 -0.10,-337.47 0.09,-332.63C0.28,-327.78 -4.93,-315.98 -19.02,-283.08L1.44,-283.88C5.09,-308.02 5.20,-326.08 4.92,-333.08C4.23,-350.85 -0.15,-359.58 -8.22,-359.27C-17.38,-358.91 -23.85,-351.92 -27.93,-311.32L-30.65,-311.75L-26.31,-352.90L-26.43,-355.86L-45.00,-355.14L-38.74,-193.61L-19.89,-194.35L-23.88,-297.19C-24.94,-324.38 -16.07,-339.01 -7.45,-339.34ZM17.79,-314.44L21.64,-215.10C22.16,-201.64 29.75,-193.57 39.72,-193.96C49.95,-194.36 58.84,-201.44 62.92,-242.04L65.64,-241.61L61.03,-200.45L61.15,-197.49L79.72,-198.21L72.10,-394.74L53.26,-394.01L54.52,-361.43L61.52,-354.69L59.97,-353.01C53.84,-358.17 47.78,-361.44 41.05,-361.18C23.82,-360.51 16.53,-346.75 17.79,-314.44ZM37.11,-316.81C36.21,-339.96 38.49,-343.82 43.60,-344.02C47.91,-344.19 51.75,-342.45 55.39,-339.09L58.60,-256.17C59.56,-231.40 54.08,-212.85 48.16,-212.62C43.58,-212.45 40.99,-216.66 40.62,-226.35ZM144.59,-333.38C143.68,-356.80 135.55,-364.84 120.74,-364.27C104.59,-363.64 92.59,-353.20 93.63,-326.55L97.46,-227.75C98.36,-204.59 107.03,-196.57 123.45,-197.21C141.49,-197.91 149.35,-217.63 147.82,-243.18L145.76,-275.46L141.99,-275.31L142.40,-243.78C142.53,-226.53 139.43,-216.16 131.35,-215.85C123.82,-215.56 116.70,-218.25 115.95,-237.63L113.95,-289.05L146.26,-290.30ZM128.78,-323.87L129.96,-293.45L113.81,-292.82L112.37,-329.97C111.99,-339.66 113.11,-345.64 119.57,-345.89C124.95,-346.10 128.02,-343.52 128.78,-323.87ZM181.16,-363.92L162.31,-363.19L168.58,-201.66L187.42,-202.39L183.46,-304.69C182.48,-329.73 187.42,-348.52 194.96,-348.81C200.07,-349.01 201.58,-344.76 201.96,-335.06L207.08,-203.15L225.92,-203.88L220.40,-346.30C219.88,-359.76 212.28,-367.82 202.32,-367.43C192.09,-367.04 183.20,-359.95 179.11,-319.35L176.40,-319.78L181.27,-360.95Z" fill="#ffffff" stroke="#000000"/>
    <path d="M-339.89,-172.75L-315.92,-173.99C-292.22,-175.21 -278.86,-185.25 -280.11,-209.48L-281.70,-240.10C-282.65,-258.48 -286.36,-273.50 -294.65,-278.95L-312.41,-276.43L-312.55,-279.09C-298.81,-287.01 -288.67,-297.42 -289.74,-318.19L-290.69,-336.56C-291.95,-360.79 -304.68,-369.48 -325.98,-368.37L-349.95,-367.13ZM-320.35,-280.29L-325.30,-277.90L-329.04,-350.06L-326.91,-350.17C-315.46,-350.76 -311.22,-346.18 -310.32,-328.87L-308.89,-301.18C-308.40,-291.86 -310.47,-285.34 -320.35,-280.29ZM-317.54,-272.43C-308.22,-272.91 -303.14,-267.56 -302.52,-255.58L-300.43,-215.11C-299.53,-197.80 -304.34,-192.74 -318.72,-192.00L-320.85,-191.89L-324.86,-269.38C-322.82,-271.08 -320.47,-272.27 -317.54,-272.43ZM-242.84,-340.64C-259.61,-339.77 -271.65,-319.66 -270.79,-302.88C-270.15,-290.63 -267.77,-275.53 -261.78,-263.03L-236.22,-264.35C-259.20,-285.32 -264.23,-294.94 -264.81,-306.13C-265.30,-315.45 -262.14,-321.48 -248.29,-322.20C-239.50,-322.65 -237.26,-320.63 -236.82,-312.11L-234.27,-262.85C-254.29,-242.06 -265.03,-232.96 -263.92,-211.39L-262.97,-193.01C-262.30,-180.23 -256.66,-174.38 -246.54,-174.91C-236.42,-175.43 -230.10,-182.17 -228.16,-222.05L-225.47,-221.65C-226.71,-183.68 -221.51,-176.20 -210.59,-176.77C-198.08,-177.42 -196.08,-190.33 -197.21,-207.10L-200.37,-252.59L-204.10,-252.40L-202.48,-205.76C-202.29,-196.95 -204.08,-195.26 -206.47,-195.14C-209.40,-194.99 -212.15,-196.45 -212.89,-210.82L-218.54,-320.00C-219.24,-333.58 -227.39,-341.44 -242.84,-340.64ZM-239.83,-194.75C-242.49,-194.61 -244.44,-196.11 -244.68,-200.90L-246.06,-227.53C-246.64,-238.71 -245.11,-245.20 -233.98,-257.26L-232.88,-235.96C-231.61,-211.46 -233.97,-195.05 -239.83,-194.75ZM-144.42,-182.86L-125.78,-183.83L-134.05,-343.60L-152.69,-342.63L-147.45,-241.44C-146.17,-216.68 -150.81,-198.02 -158.27,-197.63C-163.33,-197.37 -164.88,-201.56 -165.37,-211.15L-172.13,-341.63L-190.77,-340.66L-183.48,-199.80C-182.79,-186.48 -175.17,-178.60 -165.32,-179.11C-155.20,-179.63 -146.49,-186.76 -142.97,-226.99L-140.28,-226.60L-144.57,-185.79ZM-108.46,-184.72L-59.73,-187.24L-60.63,-204.55L-89.39,-203.06L-93.65,-285.35L-74.74,-286.32L-75.04,-292.18L-93.95,-291.20L-97.66,-362.83L-71.56,-364.18L-72.46,-381.49L-118.52,-379.11ZM-17.32,-332.55C-12.53,-332.80 -10.02,-330.79 -9.77,-326.00C-9.52,-321.20 -14.52,-309.46 -28.05,-276.72L-7.81,-277.77C-4.51,-301.71 -4.63,-319.59 -4.99,-326.51C-5.90,-344.09 -10.35,-352.67 -18.34,-352.25C-27.39,-351.78 -33.70,-344.78 -37.23,-304.55L-39.92,-304.95L-36.16,-345.72L-36.31,-348.65L-54.68,-347.70L-46.41,-187.93L-27.77,-188.90L-33.04,-290.62C-34.43,-317.51 -25.84,-332.11 -17.32,-332.55ZM7.98,-308.23L13.06,-209.97C13.75,-196.65 21.37,-188.77 31.22,-189.28C41.34,-189.80 50.05,-196.93 53.57,-237.16L56.26,-236.77L52.23,-195.97L52.38,-193.04L70.76,-194.00L60.70,-388.38L42.06,-387.42L43.73,-355.20L50.74,-348.62L49.23,-346.94C43.09,-351.96 37.06,-355.12 30.40,-354.78C13.36,-353.89 6.32,-340.18 7.98,-308.23ZM27.07,-310.82C25.88,-333.72 28.08,-337.57 33.14,-337.83C37.40,-338.05 41.23,-336.38 44.87,-333.10L49.11,-251.08C50.38,-226.58 45.19,-208.16 39.34,-207.86C34.81,-207.62 32.19,-211.76 31.70,-221.34ZM133.22,-328.59C132.02,-351.76 123.87,-359.61 109.23,-358.85C93.25,-358.03 81.51,-347.54 82.87,-321.18L87.93,-223.45C89.11,-200.55 97.80,-192.72 114.04,-193.57C131.88,-194.49 139.41,-214.10 137.57,-239.37L135.12,-271.28L131.39,-271.09L132.20,-239.89C132.55,-222.82 129.61,-212.53 121.62,-212.11C114.17,-211.73 107.09,-214.30 106.10,-233.47L103.47,-284.33L135.42,-285.98ZM117.70,-318.98L119.25,-288.89L103.28,-288.06L101.38,-324.81C100.88,-334.39 101.91,-340.32 108.30,-340.65C113.62,-340.93 116.69,-338.41 117.70,-318.98ZM169.02,-359.28L150.38,-358.31L158.64,-198.54L177.28,-199.51L172.05,-300.70C170.77,-325.46 175.41,-344.12 182.86,-344.51C187.92,-344.77 189.48,-340.58 189.97,-330.99L196.72,-200.51L215.36,-201.48L208.07,-342.34C207.39,-355.66 199.77,-363.54 189.92,-363.03C179.80,-362.51 171.09,-355.38 167.56,-315.15L164.87,-315.54L169.17,-356.35Z" fill="#ffffff" stroke="#000000"/>
    <path d="M-344.03,-163.37L-320.33,-164.91C-296.90,-166.42 -283.80,-176.53 -285.35,-200.49L-287.31,-230.77C-288.49,-248.94 -292.36,-263.76 -300.63,-269.04L-318.17,-266.32L-318.34,-268.95C-304.85,-276.96 -294.94,-287.39 -296.27,-307.93L-297.45,-326.10C-299.00,-350.06 -311.71,-358.49 -332.77,-357.13L-356.47,-355.59ZM-326.08,-270.04L-330.95,-267.61L-335.56,-338.97L-333.46,-339.10C-322.14,-339.83 -317.88,-335.35 -316.77,-318.23L-315.00,-290.85C-314.40,-281.63 -316.36,-275.16 -326.08,-270.04ZM-323.20,-262.29C-313.98,-262.89 -308.89,-257.67 -308.12,-245.82L-305.53,-205.79C-304.42,-188.68 -309.12,-183.61 -323.34,-182.69L-325.44,-182.56L-330.40,-259.18C-328.40,-260.90 -326.10,-262.10 -323.20,-262.29ZM-250.15,-330.74C-266.74,-329.67 -278.39,-309.61 -277.32,-293.02C-276.54,-280.91 -273.99,-266.01 -267.90,-253.71L-242.62,-255.34C-265.63,-275.80 -270.74,-285.25 -271.45,-296.31C-272.05,-305.53 -269.00,-311.54 -255.31,-312.43C-246.62,-312.99 -244.38,-311.02 -243.83,-302.60L-240.68,-253.88C-260.22,-233.05 -270.73,-223.91 -269.35,-202.58L-268.18,-184.41C-267.36,-171.77 -261.70,-166.06 -251.70,-166.71C-241.69,-167.35 -235.52,-174.10 -234.11,-213.59L-231.44,-213.23C-232.18,-175.64 -226.94,-168.31 -216.15,-169.01C-203.77,-169.81 -201.96,-182.62 -203.29,-199.19L-207.00,-244.16L-210.68,-243.92L-208.49,-197.79C-208.19,-189.09 -209.93,-187.39 -212.30,-187.24C-215.20,-187.05 -217.94,-188.46 -218.86,-202.68L-225.84,-310.63C-226.71,-324.06 -234.88,-331.73 -250.15,-330.74ZM-245.30,-186.42C-247.94,-186.25 -249.88,-187.71 -250.19,-192.45L-251.89,-218.78C-252.61,-229.84 -251.17,-236.28 -240.32,-248.35L-238.96,-227.29C-237.39,-203.06 -239.51,-186.80 -245.30,-186.42ZM-150.75,-175.88L-132.31,-177.08L-142.54,-335.06L-160.97,-333.87L-154.50,-233.81C-152.91,-209.32 -157.26,-190.80 -164.64,-190.32C-169.64,-190.00 -171.23,-194.12 -171.84,-203.60L-180.19,-332.63L-198.62,-331.43L-189.61,-192.14C-188.76,-178.98 -181.12,-171.27 -171.38,-171.90C-161.37,-172.55 -152.85,-179.71 -149.87,-219.57L-147.20,-219.21L-150.93,-178.78ZM-115.19,-178.18L-67.01,-181.30L-68.11,-198.42L-96.55,-196.58L-101.82,-277.94L-83.12,-279.15L-83.50,-284.94L-102.19,-283.73L-106.77,-354.56L-80.97,-356.23L-82.08,-373.35L-127.63,-370.40ZM-26.89,-325.62C-22.15,-325.93 -19.65,-323.98 -19.34,-319.24C-19.03,-314.50 -23.83,-302.82 -36.80,-270.25L-16.78,-271.54C-13.82,-295.27 -14.18,-312.96 -14.62,-319.81C-15.74,-337.19 -20.26,-345.62 -28.15,-345.11C-37.11,-344.53 -43.26,-337.52 -46.24,-297.67L-48.90,-298.02L-45.70,-338.42L-45.89,-341.32L-64.06,-340.14L-53.83,-182.15L-35.40,-183.35L-41.91,-283.93C-43.63,-310.53 -35.32,-325.08 -26.89,-325.62ZM-1.55,-301.88L4.73,-204.72C5.59,-191.55 13.22,-183.85 22.97,-184.48C32.97,-185.13 41.50,-192.29 44.47,-232.14L47.14,-231.79L43.67,-191.37L43.86,-188.48L62.03,-189.65L49.59,-381.87L31.16,-380.68L33.22,-348.82L40.25,-342.40L38.77,-340.71C32.63,-345.60 26.62,-348.65 20.04,-348.23C3.19,-347.14 -3.60,-333.48 -1.55,-301.88ZM17.30,-304.69C15.84,-327.33 17.97,-331.17 22.97,-331.49C27.18,-331.77 30.99,-330.16 34.63,-326.96L39.88,-245.86C41.45,-221.64 36.55,-203.34 30.76,-202.96C26.28,-202.67 23.64,-206.73 23.03,-216.21ZM122.11,-323.63C120.63,-346.54 112.47,-354.21 97.99,-353.27C82.19,-352.25 70.70,-341.72 72.39,-315.65L78.64,-219.02C80.11,-196.37 88.80,-188.74 104.86,-189.78C122.51,-190.92 129.70,-210.42 127.56,-235.40L124.72,-266.95L121.04,-266.71L122.24,-235.85C122.81,-218.97 120.03,-208.74 112.13,-208.23C104.76,-207.75 97.72,-210.21 96.50,-229.16L93.24,-279.46L124.84,-281.50ZM106.88,-313.92L108.80,-284.17L93.00,-283.14L90.65,-319.48C90.04,-328.96 90.98,-334.84 97.30,-335.25C102.57,-335.59 105.63,-333.14 106.88,-313.92ZM157.14,-354.45L138.71,-353.26L148.94,-195.28L167.37,-196.47L160.89,-296.53C159.31,-321.01 163.66,-339.54 171.03,-340.02C176.04,-340.34 177.63,-336.21 178.24,-326.73L186.59,-197.71L205.02,-198.90L196.01,-338.20C195.16,-351.36 187.52,-359.06 177.78,-358.43C167.77,-357.79 159.24,-350.62 156.27,-310.77L153.60,-311.13L157.33,-351.56Z" fill="#ffffff" stroke="#000000"/>
    <path d="M-347.88,-153.99L-324.45,-155.81C-301.28,-157.61 -288.46,-167.78 -290.30,-191.46L-292.62,-221.40C-294.02,-239.36 -298.03,-253.97 -306.29,-259.09L-323.61,-256.18L-323.81,-258.78C-310.56,-266.88 -300.89,-277.32 -302.47,-297.62L-303.87,-315.58C-305.71,-339.27 -318.39,-347.45 -339.21,-345.83L-362.64,-344.01ZM-331.48,-259.75L-336.26,-257.29L-341.74,-327.83L-339.66,-327.99C-328.47,-328.86 -324.20,-324.48 -322.88,-307.56L-320.78,-280.49C-320.07,-271.38 -321.93,-264.95 -331.48,-259.75ZM-328.53,-252.13C-319.42,-252.84 -314.31,-247.73 -313.40,-236.02L-310.32,-196.45C-309.01,-179.53 -313.59,-174.47 -327.65,-173.37L-329.73,-173.21L-335.62,-248.96C-333.65,-250.68 -331.39,-251.91 -328.53,-252.13ZM-257.13,-320.79C-273.53,-319.51 -284.80,-299.52 -283.53,-283.12C-282.60,-271.15 -279.89,-256.43 -273.71,-244.34L-248.72,-246.28C-271.74,-266.23 -276.92,-275.52 -277.77,-286.45C-278.47,-295.56 -275.54,-301.55 -262.00,-302.60C-253.41,-303.27 -251.17,-301.35 -250.52,-293.02L-246.78,-244.86C-265.84,-224.00 -276.13,-214.82 -274.49,-193.74L-273.10,-175.78C-272.12,-163.28 -266.45,-157.70 -256.56,-158.47C-246.67,-159.24 -240.65,-165.99 -239.76,-205.08L-237.11,-204.76C-237.37,-167.56 -232.09,-160.37 -221.42,-161.20C-209.19,-162.15 -207.55,-174.85 -209.09,-191.23L-213.33,-235.68L-216.97,-235.39L-214.21,-189.78C-213.81,-181.17 -215.51,-179.47 -217.85,-179.29C-220.71,-179.06 -223.44,-180.42 -224.53,-194.48L-232.82,-301.20C-233.85,-314.48 -242.03,-321.96 -257.13,-320.79ZM-250.49,-178.06C-253.09,-177.86 -255.04,-179.28 -255.40,-183.96L-257.42,-209.99C-258.27,-220.92 -256.94,-227.31 -246.35,-239.40L-244.73,-218.57C-242.87,-194.62 -244.76,-178.50 -250.49,-178.06ZM-156.80,-168.84L-138.58,-170.26L-150.72,-326.44L-168.94,-325.02L-161.25,-226.11C-159.37,-201.90 -163.44,-183.51 -170.73,-182.95C-175.67,-182.56 -177.30,-186.63 -178.03,-196.00L-187.94,-323.54L-206.16,-322.13L-195.46,-184.43C-194.45,-171.41 -186.79,-163.89 -177.16,-164.64C-167.27,-165.41 -158.93,-172.60 -156.49,-212.07L-153.85,-211.75L-157.02,-171.70ZM-121.65,-171.57L-74.02,-175.27L-75.33,-192.19L-103.45,-190.01L-109.69,-270.44L-91.21,-271.88L-91.66,-277.60L-110.14,-276.17L-115.58,-346.19L-90.07,-348.17L-91.39,-365.09L-136.42,-361.59ZM-36.18,-318.58C-31.49,-318.94 -28.99,-317.04 -28.62,-312.35C-28.26,-307.67 -32.86,-296.05 -45.27,-263.66L-25.48,-265.20C-22.86,-288.71 -23.43,-306.21 -23.96,-312.98C-25.29,-330.16 -29.86,-338.45 -37.67,-337.84C-46.52,-337.15 -52.53,-330.14 -54.96,-290.67L-57.60,-290.99L-54.95,-331.00L-55.17,-333.86L-73.13,-332.46L-61.00,-176.28L-42.78,-177.70L-50.50,-277.14C-52.54,-303.43 -44.51,-317.93 -36.18,-318.58ZM-10.80,-295.41L-3.34,-199.36C-2.33,-186.34 5.33,-178.82 14.96,-179.57C24.85,-180.34 33.19,-187.53 35.63,-227.00L38.27,-226.68L35.36,-186.65L35.58,-183.79L53.54,-185.18L38.78,-375.20L20.56,-373.79L23.00,-342.29L30.04,-336.03L28.60,-334.35C22.46,-339.11 16.47,-342.05 9.97,-341.54C-6.69,-340.25 -13.23,-326.64 -10.80,-295.41ZM7.82,-298.43C6.08,-320.81 8.14,-324.64 13.08,-325.02C17.25,-325.35 21.03,-323.81 24.68,-320.69L30.91,-240.51C32.77,-216.57 28.16,-198.40 22.43,-197.96C18.01,-197.61 15.34,-201.59 14.61,-210.97ZM111.28,-318.51C109.52,-341.16 101.34,-348.64 87.02,-347.53C71.41,-346.31 60.18,-335.75 62.18,-309.98L69.61,-214.45C71.34,-192.07 80.04,-184.62 95.92,-185.86C113.36,-187.21 120.23,-206.60 117.79,-231.29L114.58,-262.47L110.94,-262.18L112.52,-231.67C113.30,-214.97 110.68,-204.81 102.87,-204.21C95.59,-203.64 88.59,-205.98 87.14,-224.72L83.28,-274.44L114.51,-276.86ZM96.32,-308.71L98.61,-279.29L82.99,-278.08L80.20,-314.00C79.47,-323.37 80.33,-329.20 86.58,-329.69C91.78,-330.09 94.85,-327.71 96.32,-308.71ZM145.54,-349.46L127.32,-348.04L139.45,-191.86L157.68,-193.28L149.99,-292.19C148.11,-316.40 152.18,-334.78 159.47,-335.35C164.41,-335.73 166.04,-331.67 166.77,-322.30L176.68,-194.75L194.90,-196.17L184.20,-333.87C183.19,-346.88 175.53,-354.40 165.90,-353.66C156.01,-352.89 147.67,-345.69 145.23,-306.22L142.59,-306.54L145.76,-346.59Z" fill="#ffffff" stroke="#000000"/>
    <path d="M-351.42,-144.61L-328.27,-146.71C-305.37,-148.79 -292.81,-159.01 -294.94,-182.42L-297.62,-212.00C-299.23,-229.75 -303.39,-244.16 -311.62,-249.12L-328.72,-246.01L-328.95,-248.58C-315.95,-256.76 -306.52,-267.22 -308.34,-287.28L-309.95,-305.03C-312.07,-328.44 -324.72,-336.37 -345.30,-334.51L-368.46,-332.41ZM-336.55,-249.45L-341.25,-246.95L-347.58,-316.66L-345.52,-316.85C-334.46,-317.85 -330.18,-313.57 -328.66,-296.85L-326.23,-270.10C-325.42,-261.09 -327.17,-254.71 -336.55,-249.45ZM-333.54,-241.94C-324.53,-242.76 -319.41,-237.78 -318.36,-226.20L-314.81,-187.10C-313.30,-170.38 -317.76,-165.30 -331.66,-164.04L-333.71,-163.86L-340.51,-238.72C-338.59,-240.45 -336.37,-241.68 -333.54,-241.94ZM-263.78,-310.78C-279.98,-309.31 -290.89,-289.38 -289.42,-273.18C-288.34,-261.34 -285.47,-246.82 -279.20,-234.94L-254.51,-237.18C-277.54,-256.62 -282.78,-265.74 -283.76,-276.54C-284.57,-285.55 -281.74,-291.51 -268.36,-292.72C-259.88,-293.49 -257.63,-291.62 -256.88,-283.39L-252.57,-235.80C-271.16,-214.92 -281.22,-205.71 -279.33,-184.87L-277.72,-167.12C-276.60,-154.77 -270.92,-149.32 -261.14,-150.21C-251.37,-151.09 -245.50,-157.85 -245.11,-196.53L-242.50,-196.25C-242.27,-159.44 -236.96,-152.40 -226.41,-153.36C-214.32,-154.46 -212.87,-167.04 -214.60,-183.22L-219.36,-227.14L-222.96,-226.81L-219.65,-181.72C-219.14,-173.21 -220.80,-171.51 -223.11,-171.30C-225.94,-171.04 -228.66,-172.35 -229.92,-186.24L-239.48,-291.71C-240.67,-304.83 -248.86,-312.13 -263.78,-310.78ZM-255.39,-169.66C-257.96,-169.43 -259.90,-170.81 -260.32,-175.44L-262.65,-201.17C-263.63,-211.97 -262.39,-218.31 -252.08,-230.40L-250.21,-209.82C-248.06,-186.15 -249.73,-170.18 -255.39,-169.66ZM-162.58,-161.74L-144.58,-163.38L-158.58,-317.73L-176.59,-316.09L-167.72,-218.34C-165.55,-194.41 -169.34,-176.17 -176.54,-175.52C-181.43,-175.08 -183.09,-179.08 -183.93,-188.34L-195.37,-314.39L-213.37,-312.76L-201.03,-176.67C-199.86,-163.81 -192.19,-156.46 -182.67,-157.33C-172.90,-158.21 -164.73,-165.44 -162.83,-204.52L-160.21,-204.23L-162.84,-164.57ZM-127.85,-164.89L-80.77,-169.16L-82.29,-185.89L-110.07,-183.37L-117.28,-262.86L-99.02,-264.51L-99.53,-270.17L-117.80,-268.52L-124.07,-337.72L-98.86,-340.00L-100.38,-356.72L-144.88,-352.69ZM-45.17,-311.42C-40.54,-311.84 -38.03,-309.99 -37.61,-305.36C-37.19,-300.73 -41.59,-289.17 -53.46,-256.97L-33.91,-258.75C-31.61,-282.04 -32.40,-299.35 -33.01,-306.03C-34.55,-323.01 -39.18,-331.15 -46.89,-330.45C-55.64,-329.66 -61.49,-322.64 -63.39,-283.57L-66.01,-283.85L-63.90,-323.46L-64.15,-326.29L-81.90,-324.68L-67.90,-170.33L-49.89,-171.97L-58.81,-270.24C-61.17,-296.22 -53.40,-310.67 -45.17,-311.42ZM-19.77,-288.82L-11.16,-193.89C-9.99,-181.03 -2.32,-173.69 7.20,-174.55C16.97,-175.44 25.14,-182.66 27.04,-221.74L29.66,-221.46L27.29,-181.82L27.54,-178.99L45.29,-180.60L28.26,-368.39L10.25,-366.76L13.07,-335.63L20.11,-329.53L18.71,-327.84C12.58,-332.48 6.62,-335.31 0.19,-334.72C-16.28,-333.23 -22.57,-319.69 -19.77,-288.82ZM-1.39,-292.04C-3.39,-314.17 -1.41,-317.98 3.48,-318.42C7.60,-318.80 11.36,-317.32 15.01,-314.28L22.20,-235.05C24.35,-211.38 20.02,-193.35 14.36,-192.84C9.98,-192.44 7.29,-196.35 6.45,-205.61ZM100.70,-313.24C98.67,-335.62 90.49,-342.92 76.34,-341.63C60.91,-340.23 49.94,-329.64 52.25,-304.17L60.81,-209.76C62.82,-187.64 71.52,-180.39 87.21,-181.81C104.45,-183.37 111.00,-202.64 108.27,-227.03L104.69,-257.83L101.09,-257.51L103.05,-227.34C104.03,-210.83 101.57,-200.75 93.85,-200.05C86.65,-199.40 79.71,-201.62 78.03,-220.14L73.57,-269.28L104.44,-272.08ZM86.04,-303.35L88.68,-274.28L73.24,-272.88L70.02,-308.38C69.18,-317.64 69.95,-323.42 76.13,-323.98C81.27,-324.44 84.34,-322.13 86.04,-303.35ZM134.21,-344.29L116.20,-342.65L130.20,-188.30L148.21,-189.94L139.34,-287.69C137.17,-311.62 140.96,-329.86 148.17,-330.51C153.05,-330.95 154.71,-326.95 155.55,-317.69L166.99,-191.64L185.00,-193.27L172.65,-329.36C171.48,-342.22 163.81,-349.57 154.30,-348.70C144.52,-347.82 136.36,-340.59 134.46,-301.51L131.84,-301.80L134.46,-341.46Z" fill="#ffffff" stroke="#000000"/>
    <path d="M-354.67,-135.24L-331.79,-137.61C-309.17,-139.96 -296.88,-150.23 -299.28,-173.35L-302.31,-202.58C-304.13,-220.12 -308.43,-234.32 -316.64,-239.12L-333.51,-235.83L-333.77,-238.37C-321.01,-246.63 -311.82,-257.09 -313.88,-276.91L-315.70,-294.45C-318.10,-317.58 -330.71,-325.26 -351.05,-323.15L-373.92,-320.78ZM-341.30,-239.13L-345.92,-236.59L-353.06,-305.47L-351.03,-305.68C-340.10,-306.82 -335.81,-302.64 -334.10,-286.12L-331.36,-259.68C-330.43,-250.79 -332.09,-244.45 -341.30,-239.13ZM-338.22,-231.74C-329.32,-232.66 -324.20,-227.80 -323.01,-216.36L-319.00,-177.73C-317.29,-161.21 -321.64,-156.13 -335.37,-154.71L-337.40,-154.50L-345.07,-228.46C-343.20,-230.20 -341.02,-231.45 -338.22,-231.74ZM-270.10,-300.72C-286.11,-299.06 -296.64,-279.21 -294.98,-263.20C-293.77,-251.51 -290.74,-237.18 -284.39,-225.51L-259.99,-228.04C-283.02,-246.97 -288.32,-255.93 -289.42,-266.60C-290.35,-275.50 -287.62,-281.44 -274.41,-282.81C-266.02,-283.68 -263.77,-281.85 -262.93,-273.72L-258.05,-226.70C-276.18,-205.81 -286.01,-196.57 -283.87,-175.98L-282.05,-158.44C-280.79,-146.24 -275.10,-140.92 -265.44,-141.93C-255.78,-142.93 -250.06,-149.69 -250.18,-187.95L-247.58,-187.71C-246.89,-151.30 -241.55,-144.41 -231.13,-145.49C-219.18,-146.73 -217.91,-159.19 -219.82,-175.18L-225.09,-218.56L-228.65,-218.19L-224.80,-173.63C-224.18,-165.22 -225.80,-163.51 -228.09,-163.27C-230.89,-162.98 -233.59,-164.24 -235.01,-177.97L-245.82,-282.18C-247.17,-295.14 -255.36,-302.25 -270.10,-300.72ZM-259.99,-161.25C-262.54,-160.98 -264.47,-162.32 -264.95,-166.90L-267.58,-192.31C-268.69,-202.99 -267.55,-209.27 -257.50,-221.36L-255.39,-201.03C-252.96,-177.65 -254.40,-161.83 -259.99,-161.25ZM-168.10,-154.60L-150.30,-156.44L-166.13,-308.94L-183.92,-307.10L-173.90,-210.51C-171.45,-186.88 -174.96,-168.78 -182.08,-168.05C-186.91,-167.54 -188.60,-171.48 -189.55,-180.63L-202.47,-305.17L-220.27,-303.32L-206.31,-168.87C-205.00,-156.16 -197.32,-149.00 -187.91,-149.97C-178.25,-150.97 -170.27,-158.22 -168.89,-196.90L-166.29,-196.66L-168.39,-157.39ZM-133.78,-158.16L-87.26,-162.98L-88.98,-179.50L-116.43,-176.66L-124.58,-255.19L-106.53,-257.07L-107.11,-262.66L-125.16,-260.79L-132.25,-329.16L-107.34,-331.74L-109.06,-348.26L-153.03,-343.70ZM-53.87,-304.15C-49.29,-304.62 -46.79,-302.83 -46.32,-298.25C-45.84,-293.68 -50.05,-282.19 -61.37,-250.19L-42.05,-252.20C-40.08,-275.27 -41.08,-292.37 -41.77,-298.98C-43.51,-315.76 -48.19,-323.75 -55.82,-322.96C-64.46,-322.06 -70.15,-315.05 -71.53,-276.37L-74.13,-276.61L-72.55,-315.83L-72.84,-318.62L-90.37,-316.80L-74.55,-164.30L-56.76,-166.15L-66.83,-263.24C-69.50,-288.91 -62.00,-303.31 -53.87,-304.15ZM-28.45,-282.12L-18.72,-188.34C-17.40,-175.63 -9.72,-168.46 -0.32,-169.44C9.34,-170.44 17.32,-177.69 18.70,-216.37L21.30,-216.12L19.46,-176.88L19.75,-174.09L37.29,-175.91L18.04,-361.45L0.24,-359.60L3.44,-328.85L10.48,-322.90L9.11,-321.22C2.99,-325.72 -2.94,-328.44 -9.30,-327.78C-25.57,-326.10 -31.62,-312.62 -28.45,-282.12ZM-10.31,-285.55C-12.58,-307.41 -10.66,-311.20 -5.83,-311.70C-1.76,-312.12 1.98,-310.71 5.62,-307.75L13.75,-229.47C16.17,-206.09 12.12,-188.20 6.53,-187.62C2.21,-187.17 -0.50,-191.00 -1.45,-200.15ZM90.40,-307.81C88.11,-329.93 79.92,-337.04 65.94,-335.59C50.69,-334.01 39.98,-323.39 42.59,-298.23L52.27,-204.95C54.53,-183.09 63.23,-176.03 78.73,-177.64C95.76,-179.41 102.00,-198.55 98.98,-222.64L95.06,-253.06L91.50,-252.69L93.82,-222.88C95.00,-206.56 92.70,-196.56 85.07,-195.77C77.96,-195.03 71.06,-197.14 69.16,-215.44L64.12,-263.98L94.62,-267.15ZM76.02,-297.85L79.00,-269.12L63.75,-267.54L60.11,-302.62C59.17,-311.77 59.86,-317.49 65.96,-318.12C71.04,-318.65 74.10,-316.40 76.02,-297.85ZM123.14,-338.96L105.35,-337.11L121.18,-184.61L138.97,-186.46L128.95,-283.04C126.49,-306.68 130.01,-324.77 137.13,-325.51C141.96,-326.01 143.65,-322.07 144.60,-312.92L157.52,-188.38L175.31,-190.23L161.36,-324.68C160.04,-337.39 152.36,-344.56 142.96,-343.58C133.30,-342.58 125.32,-335.33 123.94,-296.65L121.34,-296.90L123.43,-336.16Z" fill="#ffffff" stroke="#000000"/>
    <path d="M-357.62,-125.88L-335.02,-128.52C-312.68,-131.13 -300.65,-141.44 -303.32,-164.28L-306.70,-193.15C-308.72,-210.48 -313.15,-224.46 -321.33,-229.11L-337.97,-225.64L-338.27,-228.15C-325.75,-236.48 -316.80,-246.94 -319.09,-266.52L-321.11,-283.84C-323.78,-306.69 -336.35,-314.13 -356.44,-311.78L-379.03,-309.14ZM-345.72,-228.80L-350.26,-226.24L-358.21,-294.27L-356.20,-294.50C-345.41,-295.76 -341.11,-291.69 -339.21,-275.37L-336.15,-249.26C-335.13,-240.47 -336.68,-234.18 -345.72,-228.80ZM-342.59,-221.53C-333.80,-222.56 -328.66,-217.82 -327.34,-206.52L-322.89,-168.36C-320.98,-152.04 -325.22,-146.97 -338.78,-145.38L-340.78,-145.15L-349.32,-218.20C-347.49,-219.94 -345.35,-221.21 -342.59,-221.53ZM-276.09,-290.63C-291.91,-288.78 -302.07,-269.02 -300.22,-253.20C-298.87,-241.66 -295.69,-227.52 -289.26,-216.06L-265.16,-218.87C-288.18,-237.31 -293.54,-246.10 -294.77,-256.64C-295.79,-265.43 -293.18,-271.33 -280.12,-272.86C-271.84,-273.82 -269.59,-272.05 -268.66,-264.02L-263.23,-217.57C-280.89,-196.68 -290.50,-187.41 -288.12,-167.08L-286.10,-149.76C-284.69,-137.71 -278.99,-132.52 -269.45,-133.63C-259.91,-134.75 -254.34,-141.51 -254.95,-179.35L-252.38,-179.14C-251.22,-143.14 -245.85,-136.39 -235.56,-137.59C-223.76,-138.97 -222.66,-151.32 -224.76,-167.10L-230.53,-209.94L-234.04,-209.53L-229.66,-165.51C-228.95,-157.20 -230.53,-155.49 -232.79,-155.22C-235.55,-154.90 -238.23,-156.11 -239.82,-169.67L-251.84,-272.60C-253.34,-285.40 -261.53,-292.33 -276.09,-290.63ZM-264.31,-152.81C-266.82,-152.52 -268.76,-153.82 -269.29,-158.34L-272.22,-183.44C-273.45,-193.99 -272.40,-200.22 -262.61,-212.30L-260.27,-192.22C-257.57,-169.12 -258.79,-153.46 -264.31,-152.81ZM-173.34,-147.41L-155.76,-149.46L-173.36,-300.09L-190.94,-298.04L-179.79,-202.64C-177.06,-179.29 -180.31,-161.35 -187.34,-160.53C-192.11,-159.98 -193.83,-163.85 -194.89,-172.88L-209.26,-295.89L-226.84,-293.84L-211.32,-161.04C-209.85,-148.49 -202.17,-141.50 -192.88,-142.58C-183.34,-143.70 -175.53,-150.97 -174.66,-189.24L-172.09,-189.03L-173.66,-150.17ZM-139.44,-151.37L-93.50,-156.74L-95.40,-173.06L-122.52,-169.89L-131.58,-247.46L-113.76,-249.54L-114.40,-255.07L-132.23,-252.98L-140.12,-320.51L-115.51,-323.39L-117.42,-339.71L-160.85,-334.63ZM-62.27,-296.78C-57.75,-297.31 -55.26,-295.57 -54.73,-291.05C-54.20,-286.53 -58.21,-275.12 -69.00,-243.32L-49.92,-245.55C-48.26,-268.39 -49.48,-285.30 -50.24,-291.83C-52.18,-308.40 -56.91,-316.24 -64.44,-315.36C-72.98,-314.36 -78.52,-307.35 -79.39,-269.08L-81.96,-269.29L-80.90,-308.09L-81.22,-310.86L-98.54,-308.83L-80.94,-158.21L-63.37,-160.26L-74.57,-256.16C-77.53,-281.51 -70.30,-295.85 -62.27,-296.78ZM-36.85,-275.32L-26.03,-182.69C-24.56,-170.14 -16.88,-163.15 -7.59,-164.23C1.95,-165.35 9.75,-172.62 10.63,-210.89L13.20,-210.68L11.88,-171.85L12.20,-169.09L29.53,-171.11L8.11,-354.38L-9.46,-352.32L-5.91,-321.95L1.13,-316.15L-0.20,-314.47C-6.31,-318.85 -12.22,-321.46 -18.49,-320.73C-34.56,-318.85 -40.37,-305.45 -36.85,-275.32ZM-18.95,-278.94C-21.48,-300.53 -19.63,-304.31 -14.86,-304.87C-10.84,-305.34 -7.12,-303.99 -3.48,-301.11L5.56,-223.79C8.26,-200.69 4.48,-182.95 -1.05,-182.30C-5.31,-181.80 -8.04,-185.55 -9.10,-194.59ZM80.37,-302.25C77.82,-324.10 69.63,-331.03 55.82,-329.41C40.76,-327.65 30.30,-317.02 33.20,-292.16L43.97,-200.03C46.49,-178.44 55.18,-171.57 70.49,-173.36C87.31,-175.32 93.24,-194.33 89.95,-218.12L85.67,-248.16L82.16,-247.75L84.84,-218.29C86.21,-202.17 84.07,-192.24 76.53,-191.36C69.50,-190.54 62.65,-192.54 60.54,-210.62L54.94,-258.57L85.07,-262.09ZM66.28,-292.21L69.59,-263.84L54.53,-262.08L50.48,-296.73C49.43,-305.76 50.04,-311.43 56.06,-312.14C61.08,-312.72 64.14,-310.54 66.28,-292.21ZM112.36,-333.47L94.78,-331.42L112.38,-180.79L129.96,-182.85L118.81,-278.24C116.08,-301.59 119.33,-319.53 126.36,-320.35C131.13,-320.91 132.85,-317.04 133.91,-308.00L148.28,-184.99L165.86,-187.04L150.34,-319.84C148.87,-332.40 141.18,-339.39 131.90,-338.30C122.36,-337.19 114.55,-329.91 113.68,-291.64L111.11,-291.85L112.68,-330.71Z" fill="#ffffff" stroke="#000000"/>
    <path d="M-360.28,-116.54L-337.97,-119.44C-315.90,-122.31 -304.14,-132.66 -307.07,-155.22L-310.78,-183.72C-313.00,-200.83 -317.56,-214.60 -325.71,-219.09L-342.12,-215.44L-342.45,-217.92C-330.18,-226.32 -321.45,-236.78 -323.97,-256.12L-326.19,-273.22C-329.12,-295.78 -341.65,-302.98 -361.48,-300.40L-383.79,-297.50ZM-349.83,-218.48L-354.28,-215.88L-363.01,-283.06L-361.03,-283.32C-350.37,-284.70 -346.07,-280.72 -343.98,-264.61L-340.63,-238.83C-339.50,-230.15 -340.96,-223.91 -349.83,-218.48ZM-346.63,-211.33C-337.95,-212.46 -332.82,-207.83 -331.37,-196.68L-326.47,-159.00C-324.37,-142.88 -328.50,-137.81 -341.89,-136.07L-343.87,-135.81L-353.25,-207.95C-351.46,-209.69 -349.36,-210.97 -346.63,-211.33ZM-281.76,-280.51C-297.37,-278.48 -307.17,-258.81 -305.14,-243.19C-303.66,-231.79 -300.33,-217.85 -293.83,-206.60L-270.03,-209.69C-293.03,-227.62 -298.44,-236.25 -299.79,-246.66C-300.92,-255.33 -298.40,-261.21 -285.51,-262.88C-277.33,-263.94 -275.09,-262.22 -274.06,-254.29L-268.10,-208.43C-285.30,-187.54 -294.68,-178.25 -292.07,-158.17L-289.85,-141.07C-288.30,-129.17 -282.60,-124.11 -273.18,-125.34C-263.76,-126.56 -258.34,-133.32 -259.42,-170.74L-256.88,-170.56C-255.28,-134.97 -249.88,-128.37 -239.72,-129.69C-228.07,-131.20 -227.14,-143.42 -229.41,-159.01L-235.67,-201.30L-239.14,-200.85L-234.24,-157.37C-233.43,-149.16 -234.97,-147.45 -237.20,-147.16C-239.93,-146.80 -242.60,-147.97 -244.34,-161.35L-257.55,-262.99C-259.19,-275.63 -267.38,-282.38 -281.76,-280.51ZM-268.35,-144.37C-270.83,-144.05 -272.75,-145.31 -273.33,-149.77L-276.56,-174.56C-277.91,-184.97 -276.95,-191.14 -267.43,-203.22L-264.85,-183.39C-261.88,-160.58 -262.89,-145.08 -268.35,-144.37ZM-178.31,-140.19L-160.96,-142.44L-180.29,-291.18L-197.64,-288.92L-185.40,-194.72C-182.40,-171.67 -185.38,-153.89 -192.32,-152.99C-197.03,-152.38 -198.79,-156.18 -199.95,-165.10L-215.74,-286.57L-233.09,-284.32L-216.04,-153.18C-214.43,-140.79 -206.74,-133.97 -197.57,-135.16C-188.15,-136.39 -180.53,-143.68 -180.15,-181.54L-177.61,-181.37L-178.66,-142.92ZM-144.84,-144.54L-99.47,-150.43L-101.57,-166.55L-128.34,-163.07L-138.29,-239.67L-120.69,-241.95L-121.40,-247.41L-139.00,-245.12L-147.67,-311.80L-123.38,-314.96L-125.47,-331.07L-168.36,-325.50ZM-70.38,-289.33C-65.92,-289.91 -63.43,-288.22 -62.85,-283.75C-62.27,-279.29 -66.09,-267.96 -76.35,-236.37L-57.51,-238.82C-56.17,-261.43 -57.58,-278.14 -58.42,-284.58C-60.55,-300.94 -65.33,-308.64 -72.76,-307.67C-81.19,-306.58 -86.58,-299.57 -86.96,-261.71L-89.50,-261.89L-88.94,-300.28L-89.30,-303.00L-106.40,-300.78L-87.07,-152.05L-69.72,-154.30L-82.03,-249.00C-85.28,-274.03 -78.31,-288.30 -70.38,-289.33ZM-44.97,-268.43L-33.08,-176.96C-31.47,-164.57 -23.78,-157.75 -14.61,-158.94C-5.19,-160.17 2.43,-167.46 2.81,-205.32L5.35,-205.15L4.55,-166.73L4.90,-164.00L22.00,-166.22L-1.51,-347.18L-18.87,-344.93L-14.97,-314.93L-7.93,-309.29L-9.23,-307.61C-15.33,-311.86 -21.20,-314.37 -27.39,-313.57C-43.26,-311.51 -48.84,-298.18 -44.97,-268.43ZM-27.32,-272.24C-30.09,-293.56 -28.31,-297.32 -23.60,-297.93C-19.63,-298.45 -15.94,-297.16 -12.29,-294.36L-2.37,-218.01C0.59,-195.20 -2.92,-177.60 -8.37,-176.89C-12.59,-176.35 -15.33,-180.02 -16.49,-188.95ZM70.61,-296.56C67.81,-318.13 59.62,-324.88 45.99,-323.11C31.11,-321.17 20.90,-310.52 24.09,-285.98L35.92,-195.00C38.69,-173.68 47.37,-167.00 62.49,-168.96C79.10,-171.12 84.71,-190.00 81.16,-213.49L76.55,-243.14L73.08,-242.69L76.10,-213.59C77.67,-197.66 75.67,-187.82 68.23,-186.85C61.29,-185.95 54.49,-187.84 52.17,-205.69L46.02,-253.03L75.77,-256.90ZM56.80,-286.45L60.44,-258.44L45.57,-256.50L41.12,-290.71C39.96,-299.64 40.49,-305.25 46.44,-306.02C51.40,-306.67 54.45,-304.54 56.80,-286.45ZM101.84,-327.84L84.49,-325.59L103.82,-176.86L121.17,-179.11L108.93,-273.31C105.94,-296.36 108.92,-314.14 115.86,-315.05C120.57,-315.66 122.32,-311.85 123.48,-302.93L139.27,-181.46L156.62,-183.72L139.58,-314.85C137.97,-327.25 130.28,-334.06 121.10,-332.87C111.68,-331.64 104.06,-324.35 103.69,-286.49L101.15,-286.67L102.20,-325.12Z" fill="#ffffff" stroke="#000000"/>
    <path d="M-908.57,461.18L-911.73,461.18L-911.73,492L-904.01,492L-904.01,489.26L-908.57,489.26ZM-894.09,471.23C-894.09,467.56 -895.31,466.25 -897.63,466.25C-900.16,466.25 -902.11,467.81 -902.11,471.99L-902.11,487.48C-902.11,491.11 -900.80,492.42 -898.22,492.42C-895.39,492.42 -894.04,489.38 -894.13,485.37L-894.25,480.31L-894.85,480.31L-894.97,485.25C-895.06,487.95 -895.61,489.55 -896.87,489.55C-898.05,489.55 -899.15,489.09 -899.15,486.05L-899.15,477.98L-894.09,477.98ZM-896.62,472.62L-896.62,477.39L-899.15,477.39L-899.15,471.57C-899.15,470.05 -898.94,469.12 -897.93,469.12C-897.08,469.12 -896.62,469.54 -896.62,472.62ZM-887.96,461.18L-891.13,461.18L-891.55,492L-888.22,492L-889.36,469.96L-888.93,469.96L-885.43,489.89L-884.46,489.89L-881.76,469.96L-881.29,469.96L-881.84,492L-878.59,492L-879.01,461.18L-881.67,461.18L-884.12,481.15L-884.59,481.15ZM-870.02,492L-867.06,492L-867.06,466.67L-870.02,466.67L-870.02,482.71C-870.02,486.64 -870.91,489.55 -872.09,489.55C-872.89,489.55 -873.10,488.88 -873.10,487.36L-873.10,466.67L-876.06,466.67L-876.06,489.00C-876.06,491.11 -874.92,492.42 -873.35,492.42C-871.75,492.42 -870.31,491.37 -869.43,485.03L-869.01,485.12L-870.02,491.54ZM-858.32,469.37C-857.56,469.37 -857.18,469.71 -857.18,470.47C-857.18,471.23 -858.07,473.04 -860.48,478.11L-857.27,478.11C-856.55,474.35 -856.42,471.52 -856.42,470.43C-856.42,467.64 -857.06,466.25 -858.32,466.25C-859.76,466.25 -860.81,467.30 -861.70,473.64L-862.12,473.55L-861.19,467.13L-861.19,466.67L-864.11,466.67L-864.11,492L-861.15,492L-861.15,475.87C-861.15,471.61 -859.67,469.37 -858.32,469.37ZM-846.97,473.64L-846.37,469.50C-846.08,467.39 -847.09,466.25 -848.44,466.25C-849.96,466.25 -851.27,467.30 -852.16,473.64L-852.58,473.55L-851.57,467.13L-851.57,466.67L-854.52,466.67L-854.52,492L-851.57,492L-851.57,475.96C-851.57,472.12 -850.68,469.12 -849.71,469.12C-849.08,469.12 -848.91,469.79 -848.91,471.31L-848.91,492L-845.95,492L-845.95,475.96C-845.95,472.12 -845.07,469.12 -844.09,469.12C-843.46,469.12 -843.29,469.79 -843.29,471.31L-843.29,492L-840.34,492L-840.34,469.67C-840.34,467.56 -841.39,466.25 -842.83,466.25C-844.35,466.25 -845.66,467.30 -846.54,473.72ZM-831.34,492L-828.39,492L-828.39,466.67L-831.34,466.67L-831.34,482.71C-831.34,486.64 -832.23,489.55 -833.41,489.55C-834.21,489.55 -834.42,488.88 -834.42,487.36L-834.42,466.67L-837.38,466.67L-837.38,489.00C-837.38,491.11 -836.24,492.42 -834.68,492.42C-833.07,492.42 -831.64,491.37 -830.75,485.03L-830.33,485.12L-831.34,491.54ZM-819.65,469.37C-818.89,469.37 -818.51,469.71 -818.51,470.47C-818.51,471.23 -819.39,473.04 -821.80,478.11L-818.59,478.11C-817.87,474.35 -817.75,471.52 -817.75,470.43C-817.75,467.64 -818.38,466.25 -819.65,466.25C-821.08,466.25 -822.14,467.30 -823.02,473.64L-823.45,473.55L-822.52,467.13L-822.52,466.67L-825.43,466.67L-825.43,492L-822.48,492L-822.48,475.87C-822.48,471.61 -821.00,469.37 -819.65,469.37ZM-807.83,471.23C-807.83,467.56 -809.05,466.25 -811.37,466.25C-813.90,466.25 -815.85,467.81 -815.85,471.99L-815.85,487.48C-815.85,491.11 -814.54,492.42 -811.96,492.42C-809.13,492.42 -807.78,489.38 -807.87,485.37L-807.99,480.31L-808.59,480.31L-808.71,485.25C-808.80,487.95 -809.35,489.55 -810.61,489.55C-811.79,489.55 -812.89,489.09 -812.89,486.05L-812.89,477.98L-807.83,477.98ZM-810.36,472.62L-810.36,477.39L-812.89,477.39L-812.89,471.57C-812.89,470.05 -812.68,469.12 -811.67,469.12C-810.82,469.12 -810.36,469.54 -810.36,472.62ZM-805.50,478.74L-798.41,478.74L-798.41,477.35L-805.50,477.35ZM-796.30,492L-793.13,492L-793.13,480.85C-791.82,480.26 -791.11,480.81 -790.94,481.87L-789.33,492L-786.12,492L-788.49,479.80L-791.06,480.14L-791.11,479.63C-788.66,478.49 -786.76,476.97 -786.76,473.64L-786.76,466.50C-786.76,462.66 -788.87,461.18 -792.50,461.18L-796.30,461.18ZM-792.33,479.38L-793.13,479.71L-793.13,464.05L-792.79,464.05C-790.68,464.05 -789.92,464.81 -789.92,467.56L-789.92,476.17C-789.92,477.65 -790.43,478.57 -792.33,479.38ZM-775.99,471.23C-775.99,467.56 -777.21,466.25 -779.54,466.25C-782.07,466.25 -784.01,467.81 -784.01,471.99L-784.01,487.48C-784.01,491.11 -782.70,492.42 -780.13,492.42C-777.30,492.42 -775.95,489.38 -776.03,485.37L-776.16,480.31L-776.75,480.31L-776.88,485.25C-776.96,487.95 -777.51,489.55 -778.78,489.55C-779.96,489.55 -781.06,489.09 -781.06,486.05L-781.06,477.98L-775.99,477.98ZM-778.52,472.62L-778.52,477.39L-781.06,477.39L-781.06,471.57C-781.06,470.05 -780.84,469.12 -779.83,469.12C-778.99,469.12 -778.52,469.54 -778.52,472.62ZM-764.63,472.45C-764.63,469.75 -766.24,468.19 -768.56,467.89L-768.56,467.39C-766.57,467.43 -765.10,468.02 -762.65,471.52L-762.65,466.67L-768.73,466.67C-771.22,466.67 -773.33,468.23 -773.33,472.37L-773.33,482.12C-773.33,484.27 -772.78,485.63 -771.77,486.39C-772.48,487.27 -773.71,488.33 -773.71,489.76C-773.71,490.86 -773.03,491.41 -772.06,491.66L-772.06,491.92C-773.20,492.42 -774.13,493.39 -774.13,494.91C-774.13,496.18 -773.12,497.49 -770.58,497.49C-767.08,497.49 -763.03,493.98 -763.03,491.75C-763.03,490.02 -764.25,489.13 -766.87,489.13L-771.34,489.13C-772.15,489.13 -772.40,488.92 -772.40,488.54C-772.40,488.12 -771.81,487.40 -771.09,486.72C-770.58,486.98 -769.95,487.06 -769.23,487.06C-766.74,487.06 -764.63,485.54 -764.63,481.57ZM-769.23,469.54C-768.39,469.54 -767.59,470.00 -767.59,473.04L-767.59,482.12C-767.59,483.60 -767.80,484.53 -768.73,484.53C-769.61,484.53 -770.37,484.06 -770.37,481.02L-770.37,471.95C-770.37,470.47 -770.16,469.54 -769.23,469.54ZM-771.77,493.22C-771.77,492.76 -771.56,492.34 -770.88,492L-766.87,492C-765.43,492 -765.10,492.59 -765.10,493.60C-765.10,494.45 -765.90,494.79 -767.84,494.79C-771.13,494.79 -771.77,494.07 -771.77,493.22ZM-755.13,492L-752.18,492L-752.18,466.67L-755.13,466.67L-755.13,482.71C-755.13,486.64 -756.02,489.55 -757.20,489.55C-758.00,489.55 -758.21,488.88 -758.21,487.36L-758.21,466.67L-761.17,466.67L-761.17,489.00C-761.17,491.11 -760.03,492.42 -758.47,492.42C-756.86,492.42 -755.43,491.37 -754.54,485.03L-754.12,485.12L-755.13,491.54ZM-746.26,461.18L-749.22,461.18L-749.22,492L-746.26,492ZM-739.00,466.25C-741.66,466.25 -743.73,469.33 -743.73,471.99C-743.73,473.93 -743.48,476.34 -742.63,478.36L-738.58,478.36C-742.04,474.86 -742.76,473.30 -742.76,471.52C-742.76,470.05 -742.21,469.12 -740.02,469.12C-738.62,469.12 -738.29,469.46 -738.29,470.81L-738.29,478.62C-741.62,481.74 -743.39,483.09 -743.39,486.51L-743.39,489.42C-743.39,491.45 -742.55,492.42 -740.94,492.42C-739.34,492.42 -738.29,491.41 -737.65,485.12L-737.23,485.20C-737.74,491.20 -736.98,492.42 -735.25,492.42C-733.26,492.42 -732.84,490.40 -732.88,487.74L-733.01,480.52L-733.60,480.52L-733.73,487.90C-733.77,489.30 -734.06,489.55 -734.44,489.55C-734.91,489.55 -735.33,489.30 -735.33,487.02L-735.33,469.71C-735.33,467.56 -736.55,466.25 -739.00,466.25ZM-739.72,489.34C-740.14,489.34 -740.44,489.09 -740.44,488.33L-740.44,484.11C-740.44,482.33 -740.14,481.32 -738.29,479.50L-738.29,482.88C-738.29,486.76 -738.79,489.34 -739.72,489.34ZM-724.99,469.37C-724.23,469.37 -723.85,469.71 -723.85,470.47C-723.85,471.23 -724.73,473.04 -727.14,478.11L-723.93,478.11C-723.21,474.35 -723.09,471.52 -723.09,470.43C-723.09,467.64 -723.72,466.25 -724.99,466.25C-726.42,466.25 -727.48,467.30 -728.36,473.64L-728.78,473.55L-727.86,467.13L-727.86,466.67L-730.77,466.67L-730.77,492L-727.81,492L-727.81,475.87C-727.81,471.61 -726.34,469.37 -724.99,469.37Z"/>
</svg>