<?xml version="1.0"?>
<svg xmlns="http://www.w3.org/2000/svg" width="1920" height="1080" viewBox="-960 -540 1920 1080">
    <path d="M-555.38,-210L-555.38,-231.25L-656.13,-231.25L-656.13,-390L-679.88,-390L-679.88,-210ZM-478.38,-345.13L-523.14,-326.51L-540.34,-275.00L-523.13,-223.49L-478.38,-204.88L-433.62,-223.50L-416.40,-275.00L-433.61,-326.51ZM-478.38,-223.99L-505.44,-235.91L-517.38,-274.98L-505.43,-314.06L-478.38,-325.99L-451.30,-314.06L-439.34,-274.98L-451.30,-235.91ZM-339.38,-345.13L-384.14,-326.51L-401.34,-275.00L-384.13,-223.49L-339.38,-204.88L-294.62,-223.50L-277.40,-275.00L-294.61,-326.51ZM-339.38,-223.99L-366.44,-235.91L-378.38,-274.98L-366.43,-314.06L-339.38,-325.99L-312.30,-314.06L-300.34,-274.98L-312.30,-235.91ZM-231.19,-266.25L-210.13,-266.25L-200.13,-258.25L-173.42,-208.02L-153.13,-219L-180.13,-266.25L-196.66,-275.51L-183.16,-288.53L-171.00,-314.32L-163.68,-317.65L-153.44,-319.27L-156.44,-340.01L-175.16,-338.16L-187.62,-327.30L-201.69,-296.69L-210.13,-285L-231.16,-285L-231.16,-390.01L-242.64,-390.01L-253.60,-390L-253.63,-210L-231.19,-210ZM-110.05,-361.74L-101.92,-370.64L-101.90,-383.35L-110.19,-392.46L-121.75,-392.46L-129.82,-383.37L-129.83,-370.67L-121.61,-361.74ZM-104.63,-210L-104.63,-340L-127.13,-340L-127.13,-210ZM-72.74,-210L-50.24,-210L-50.24,-280.75L-40.49,-314.15L-15.06,-325.70L6.02,-315.95L12.13,-289.75L12.13,-210L34.63,-210L34.63,-289.75L26.11,-329.40L-10.48,-345.09L-34.78,-339.73L-52.49,-321.25L-52.49,-340L-72.74,-340ZM115.60,-155.61L162.17,-175.15L173.38,-218.50L173.38,-340L153.38,-340L153.38,-322.50L138.65,-339.11L115.85,-345.61L73.65,-326.04L59,-275.49L73.65,-224.94L115.85,-205.37L135.99,-210.17L150.88,-223.75L150.81,-214.21L142.86,-185.11L116.13,-175.00L95.32,-180.87L87.13,-198.50L69.13,-190.25L80.47,-166.33ZM117.13,-326.48L141.98,-313.59L153.62,-275.47L142.92,-237.35L117.13,-224.48L92.00,-237.35L81.96,-275.47L92.00,-313.59ZM336.62,-367.07L339.63,-385.75L319.27,-389.53L290.58,-378.37L281.38,-346.25L281.38,-340L261.88,-340L261.88,-322.75L281.38,-322.75L281.38,-210L303.13,-210L303.13,-322.75L328.38,-322.75L328.38,-340L303.13,-340L303.13,-346.75L307.37,-363.60L322.07,-369.63ZM404.62,-345.13L359.86,-326.51L342.66,-275.00L359.87,-223.49L404.62,-204.88L449.38,-223.50L466.60,-275.00L449.39,-326.51ZM404.62,-223.99L377.56,-235.91L365.62,-274.98L377.57,-314.06L404.62,-325.99L431.70,-314.06L443.66,-274.98L431.70,-235.91ZM545.48,-323.34L562.38,-317.75L569.13,-336.75L547.10,-345.09L525.62,-338.43L510.63,-317.50L510.63,-340L490.38,-340L490.38,-211.27L512.88,-210L512.88,-280.25L521.10,-311.59ZM-816.50,0.24L-861.53,-21.41L-875.93,-75.01L-860.56,-128.59L-816.50,-150.23L-781.23,-138.25L-764.50,-107.14L-743.32,-117.84L-765.40,-154.60L-816.50,-170.63L-880.01,-142.60L-901.43,-74.99L-880.01,-7.39L-816.50,20.63L-765.51,4.34L-743.83,-31.14L-764.50,-42.61L-782.93,-11.52ZM-690.13,15L-690.13,-165L-712.63,-165L-712.63,15ZM-640.55,-136.74L-632.42,-145.64L-632.40,-158.35L-640.69,-167.46L-652.25,-167.46L-660.32,-158.37L-660.33,-145.67L-652.11,-136.74ZM-635.13,15L-635.13,-115L-657.63,-115L-657.63,15ZM-603.80,15L-581.24,15L-581.24,-52.25L-575.11,-85.56L-548.56,-100.70L-530.98,-92.60L-525.20,-70.03L-525.20,15L-502.70,15L-502.70,-60.25L-494.65,-88.68L-469.77,-100.70L-450.68,-90.47L-446.38,-67.48L-446.38,15L-423.88,15L-423.88,-75.50L-433.93,-108.36L-464.92,-120.09L-488.38,-114.45L-506.20,-94.75L-519.33,-113.68L-543.02,-119.97L-566.63,-114.87L-583.49,-96.50L-583.49,-115L-603.74,-115ZM-313.52,-72.19L-386.83,-49.70L-401.75,-18.62L-388.36,10.90L-356.64,20.14L-333.36,15.62L-312.03,-0.04L-312.13,15L-291.13,15L-291.09,-68.86L-302.93,-107.03L-341.84,-120.13L-376.84,-111.58L-393.85,-86.21L-376.00,-75.24L-364.55,-95.00L-344.13,-101.75L-322.25,-95.35ZM-313.52,-52.30L-313.54,-19.38L-329.45,-5.45L-353.04,1.79L-369.98,-2.60L-377.77,-19.62L-367.73,-37.29ZM-201.43,16.74L-201.42,16.74L-204.02,-2.65L-214.10,-1.14L-224.94,-6.63L-226.88,-23L-226.88,-97.75L-204.63,-97.75L-204.63,-115L-226.88,-115L-226.88,-160L-249.38,-160L-249.38,-115L-267.88,-115L-267.88,-97.75L-249.38,-97.75L-249.38,-23L-244.24,8.39L-218.62,19.15ZM-148.76,-9.73L-161.87,-44.23L-65.38,-44.25L-64.13,-53.25L-79.01,-100.87L-124.11,-120.22L-168.22,-101.61L-184.80,-50.10L-168.22,1.41L-124.11,20.03L-86.97,9.06L-69.88,-17.75L-87.39,-28.69L-101.03,-6.44L-122.84,0.89ZM-161.13,-62.25L-147.00,-92.01L-124.13,-101.13L-98.63,-90.28L-88.38,-62.25ZM33.13,15L92.88,15L158.61,-7.84L180.28,-75.52L157.20,-143.34L89.63,-165L33.13,-165ZM56.88,-6L56.88,-143.75L89.63,-143.75L137.38,-129.94L155.30,-75.76L139.48,-22.31L90.38,-6ZM233.99,-9.73L220.88,-44.23L317.38,-44.25L318.63,-53.25L303.74,-100.87L258.64,-120.22L214.53,-101.61L197.95,-50.10L214.53,1.41L258.64,20.03L295.78,9.06L312.88,-17.75L295.36,-28.69L281.72,-6.44L259.91,0.89ZM221.63,-62.25L235.75,-92.01L258.62,-101.13L284.12,-90.28L294.38,-62.25ZM356.23,-25.27L337.12,-16.34L349.84,9.17L388.36,20.16L425.11,11.01L441.94,-20.13L431.83,-46.80L409.93,-58.06L379.63,-66.25L362.78,-73L357.25,-83.38L364.49,-96.21L385.70,-100.91L406.07,-95.35L414.83,-78.81L433.76,-87.74L422.75,-109.52L386.55,-120.13L350.69,-110.92L335.29,-80.85L345.28,-56.99L367.84,-46.22L399.88,-37.75L414.97,-30.17L418.96,-18.13L408.91,-3.03L389.12,0.98L365.22,-6.88ZM482.95,-136.74L491.08,-145.64L491.10,-158.35L482.81,-167.46L471.25,-167.46L463.18,-158.37L463.17,-145.67L471.39,-136.74ZM488.38,15L488.38,-115L465.88,-115L465.88,15ZM569.85,69.39L616.42,49.85L627.63,6.50L627.63,-115L607.63,-115L607.63,-97.50L592.90,-114.11L570.10,-120.61L527.90,-101.04L513.25,-50.49L527.90,0.06L570.10,19.63L590.24,14.83L605.13,1.25L605.06,10.79L597.11,39.89L570.38,50.00L549.57,44.13L541.38,26.50L523.38,34.75L534.72,58.67ZM571.38,-101.48L596.23,-88.59L607.87,-50.47L597.17,-12.35L571.38,0.52L546.25,-12.35L536.21,-50.47L546.25,-88.59ZM659.76,15L682.26,15L682.26,-55.75L692.01,-89.15L717.44,-100.70L738.52,-90.95L744.63,-64.75L744.63,15L767.13,15L767.13,-64.75L758.61,-104.40L722.02,-120.09L697.72,-114.73L680.01,-96.25L680.01,-115L659.76,-115ZM-338.89,189.48L-359.83,195.35L-347.77,231.31L-309.08,245.59L-268.85,229.62L-255.50,185.25L-255.50,60L-279.25,60L-279.25,184.02L-284.99,212.97L-309.08,225.18L-331.92,214.30ZM-166.01,104.88L-210.76,123.49L-227.97,175.00L-210.76,226.51L-166.01,245.12L-121.25,226.50L-104.03,175.00L-121.23,123.49ZM-166.01,226.01L-193.06,214.09L-205.00,175.02L-193.05,135.94L-166.01,124.01L-138.93,135.94L-126.97,175.02L-138.93,214.09ZM-57.75,60L-80.25,60L-80.25,240L-60.25,240L-60.25,222.50L-45.95,239.40L-23.48,245.59L18.73,226.02L33.40,175.47L18.73,124.91L-23.48,105.34L-43.61,110.15L-57.75,123.75ZM-24.78,226.47L-49.60,213.60L-61.26,175.49L-50.57,137.36L-24.78,124.48L0.37,137.36L10.41,175.49L0.37,213.60ZM70.86,199.73L51.74,208.66L64.47,234.17L102.98,245.16L139.73,236.01L156.56,204.87L146.46,178.20L124.56,166.94L94.25,158.75L77.40,152L71.88,141.62L79.11,128.79L100.32,124.09L120.70,129.65L129.46,146.19L148.39,137.26L137.38,115.48L101.18,104.87L65.32,114.08L49.91,144.15L59.91,168.01L82.46,178.78L114.50,187.25L129.59,194.83L133.58,206.87L123.54,221.97L103.75,225.98L79.85,218.12ZM238.67,243.14L247.53,234.11L247.47,221.41L238.52,212.47L225.92,212.54L217.06,221.56L217.12,234.26L226.07,243.20ZM220.66,196.95L242.45,196.95L242.45,190.06L245.81,171.86L257.97,156.92L279.74,135.90L289.85,105.91L273.71,68.40L231.18,54.41L192.96,68.69L178.16,102.10L197.27,110.76L208.60,83.50L231.40,74.80L255.37,82.14L265.57,107.44L258.92,128.12L243.86,142.88L225.95,163.03L220.66,190.06Z" fill="#ffffff" stroke="#000000"/>
    <path d="M-568.30,-167.03L-569.72,-188.02L-669.23,-181.30L-679.82,-338.11L-703.28,-336.53L-691.28,-158.73ZM-501.26,-305.64L-544.23,-284.27L-557.79,-232.24L-537.35,-182.51L-491.91,-167.11L-448.94,-188.49L-435.37,-240.51L-455.79,-290.24ZM-493.18,-185.99L-520.70,-195.95L-535.10,-233.75L-525.91,-273.15L-499.99,-286.74L-472.44,-276.76L-458.03,-238.95L-467.23,-199.56ZM-363.96,-314.91L-406.93,-293.54L-420.49,-241.51L-400.05,-191.78L-354.61,-176.38L-311.64,-197.76L-298.07,-249.77L-318.50,-299.51ZM-355.89,-195.26L-383.41,-205.22L-397.80,-243.02L-388.61,-282.42L-362.69,-296.00L-335.15,-286.03L-320.73,-248.22L-329.94,-208.83ZM-251.83,-244.21L-231.03,-245.61L-220.62,-238.38L-190.89,-190.54L-171.58,-202.74L-201.40,-247.62L-218.35,-255.66L-205.88,-269.42L-195.59,-295.71L-188.58,-299.48L-178.58,-301.77L-182.92,-322.06L-201.29,-318.97L-212.88,-307.42L-224.72,-276.24L-232.28,-264.14L-253.06,-262.73L-260.06,-366.46L-271.40,-365.69L-282.23,-364.95L-270.25,-187.15L-248.08,-188.65ZM-138.55,-346.60L-131.11,-355.94L-131.94,-368.49L-140.74,-376.94L-152.15,-376.17L-159.52,-366.66L-158.68,-354.11L-149.97,-345.83ZM-123.07,-197.09L-131.74,-325.50L-153.97,-324.00L-145.30,-195.59ZM-91.58,-199.21L-69.36,-200.71L-74.08,-270.60L-66.67,-304.24L-42.31,-317.34L-20.85,-309.12L-13.07,-283.65L-7.75,-204.87L14.47,-206.37L9.15,-285.15L-1.90,-323.74L-39.08,-336.80L-62.73,-329.89L-79.00,-310.45L-80.25,-328.97L-100.25,-327.62ZM98.08,-158.05L142.78,-180.46L150.96,-224.02L142.85,-344.03L123.10,-342.70L124.27,-325.41L108.61,-340.83L85.66,-345.74L45.28,-323.60L34.18,-272.69L52.02,-223.73L95.02,-207.21L114.58,-213.30L128.38,-227.71L128.95,-218.28L123.04,-189.01L97.31,-177.24L76.36,-181.65L67.10,-198.51L49.87,-189.17L62.66,-166.29ZM88.20,-326.92L113.60,-315.86L127.64,-278.97L119.62,-240.61L95.00,-226.18L69.32,-237.22L56.86,-274.20L64.24,-312.52ZM302.29,-381.66L304.02,-400.31L283.66,-402.68L256.07,-389.75L249.11,-357.41L249.53,-351.23L230.27,-349.93L231.42,-332.90L250.68,-334.20L258.20,-222.83L279.68,-224.28L272.17,-335.65L297.11,-337.33L295.96,-354.37L271.02,-352.68L270.57,-359.35L273.63,-376.28L287.75,-383.21ZM370.92,-364.51L327.96,-343.14L314.40,-291.12L334.83,-241.39L380.27,-225.99L423.24,-247.36L436.82,-299.38L416.39,-349.11ZM379.00,-244.87L351.48,-254.83L337.08,-292.63L346.28,-332.03L372.20,-345.61L399.74,-335.64L414.16,-297.83L404.95,-258.44ZM511.51,-352.39L528.57,-347.99L533.97,-367.21L511.67,-373.98L490.89,-365.97L477.47,-344.30L475.97,-366.52L455.97,-365.17L464.56,-238.02L486.86,-238.26L482.18,-307.65L488.22,-339.16ZM-812.21,58.04L-858.13,39.66L-875.93,-12.32L-864.32,-66.27L-822.25,-90.59L-786.60,-81.11L-768.00,-51.49L-747.80,-63.47L-772.06,-98.30L-823.61,-110.73L-884.46,-78.82L-901.11,-10.60L-875.45,54.74L-810.85,78.18L-761.57,58.70L-742.53,22.20L-763.70,12.26L-779.84,44.19ZM-686.40,64.20L-698.40,-113.60L-720.63,-112.10L-708.62,65.70ZM-647.55,-88.99L-640.11,-98.32L-640.94,-110.88L-649.74,-119.33L-661.15,-118.55L-668.52,-109.04L-667.68,-96.49L-658.97,-88.22ZM-632.07,60.53L-640.74,-67.88L-662.96,-66.38L-654.30,62.03ZM-601.13,58.44L-578.85,56.94L-583.34,-9.49L-579.49,-42.80L-554.28,-59.52L-536.37,-52.70L-529.16,-30.79L-523.49,53.20L-501.27,51.70L-506.28,-22.63L-500.23,-51.25L-476.45,-64.78L-456.92,-55.95L-451.13,-33.53L-445.63,47.94L-423.41,46.44L-429.44,-42.95L-441.57,-74.74L-472.96,-84.25L-495.75,-77.12L-512.04,-56.47L-526.28,-74.30L-550.10,-78.93L-573.07,-72.32L-588.51,-53.05L-589.74,-71.32L-609.74,-69.97ZM-320.22,-47.03L-391.14,-19.93L-403.80,11.76L-388.61,40.03L-356.65,47.04L-333.96,41.02L-313.93,24.13L-313.03,38.99L-292.29,37.59L-297.85,-45.25L-312.08,-82.15L-351.38,-92.50L-385.39,-81.72L-400.50,-55.53L-382.14,-45.88L-372.14,-66.16L-352.43,-74.20L-330.39,-69.34ZM-318.90,-27.39L-316.71,5.12L-331.50,19.95L-354.32,28.67L-371.35,25.47L-380.18,9.17L-371.44,-8.95ZM-203.57,33.33L-203.57,33.33L-207.42,14.35L-217.28,16.51L-228.35,11.81L-231.36,-4.23L-236.34,-78.06L-214.36,-79.55L-215.51,-96.58L-237.49,-95.10L-240.49,-139.55L-262.72,-138.05L-259.72,-93.60L-277.99,-92.37L-276.84,-75.33L-258.56,-76.56L-253.58,-2.73L-246.42,27.94L-220.40,36.85ZM-153.31,3.67L-168.57,-29.53L-73.25,-35.99L-72.62,-44.96L-90.50,-91.01L-136.34,-107.11L-178.67,-85.78L-191.60,-33.80L-171.80,15.98L-126.98,31.42L-91.03,18.11L-75.93,-9.51L-93.96,-19.14L-105.94,3.73L-127.00,12.43ZM-169.03,-47.38L-157.07,-77.71L-135.08,-88.25L-109.16,-79.24L-97.17,-52.23ZM27.99,15.97L87.01,11.99L150.41,-14.96L167.31,-83.25L139.99,-148.71L71.80,-165.59L15.99,-161.82ZM50.05,-6.36L40.87,-142.42L73.22,-144.60L121.30,-134.15L142.62,-81.82L130.56,-27.97L83.14,-8.59ZM224.75,-21.85L209.49,-55.05L304.81,-61.51L305.45,-70.48L287.56,-116.53L241.73,-132.63L199.40,-111.30L186.46,-59.32L206.27,-9.55L251.08,5.90L287.03,-7.41L302.13,-35.03L284.10,-44.67L272.12,-21.79L251.06,-13.09ZM209.03,-72.90L221.00,-103.24L242.98,-113.77L268.90,-104.76L280.89,-77.75ZM344.46,-45.35L326.17,-35.26L340.45,-10.91L379.22,-2.62L414.91,-14.11L429.46,-45.99L417.70,-71.66L395.31,-81.32L364.83,-87.39L347.74,-92.93L341.59,-102.82L347.88,-115.97L368.52,-122.03L389.01,-117.90L398.77,-102.14L416.87,-112.22L404.54,-133.00L368.08,-141.07L333.27,-129.58L320.06,-98.86L331.53,-75.95L354.53,-66.82L386.73,-60.59L402.15,-54.10L406.89,-42.48L397.97,-26.90L378.70,-21.61L354.56,-27.79ZM462.19,-163.90L469.63,-173.23L468.80,-185.79L460.00,-194.24L448.59,-193.47L441.22,-183.95L442.06,-171.41L450.77,-163.13ZM477.67,-14.38L469.00,-142.79L446.77,-141.29L455.44,-12.88ZM561.77,33.90L606.47,11.50L614.64,-32.07L606.54,-152.08L586.79,-150.74L587.96,-133.46L572.30,-148.88L549.35,-153.79L508.97,-131.64L497.87,-80.73L515.71,-31.77L558.70,-15.26L578.27,-21.34L592.07,-35.75L592.64,-26.32L586.73,2.95L561.00,14.71L540.05,10.31L530.78,-6.56L513.56,2.79L526.35,25.66ZM551.89,-134.97L577.29,-123.90L591.33,-87.02L583.31,-48.66L558.69,-34.22L533.01,-45.26L520.55,-82.24L527.93,-120.57ZM646.95,-25.81L669.17,-27.31L664.46,-97.20L671.87,-130.84L696.22,-143.94L717.68,-135.71L725.46,-110.24L730.78,-31.47L753.00,-32.97L747.69,-111.74L736.63,-150.34L699.45,-163.40L675.80,-156.48L659.53,-137.05L658.28,-155.57L638.28,-154.22ZM-327.83,213.12L-348.13,220.32L-333.82,255.03L-294.65,266.55L-255.97,248.10L-245.74,203.38L-254.10,79.66L-277.56,81.25L-269.29,203.75L-273.02,232.73L-296.01,246.39L-319.29,237.17ZM-162.71,118.02L-205.67,139.39L-219.23,191.42L-198.80,241.15L-153.36,256.55L-110.39,235.17L-96.81,183.15L-117.24,133.42ZM-154.63,237.67L-182.15,227.70L-196.55,189.91L-187.35,150.51L-161.43,136.92L-133.89,146.90L-119.47,184.70L-128.68,224.10ZM-58.77,66.48L-80.99,67.98L-68.99,245.77L-49.24,244.44L-50.40,227.16L-35.15,242.90L-12.54,247.51L27.84,225.37L38.96,174.45L21.10,125.50L-21.89,108.98L-41.46,115.07L-54.52,129.45ZM-15.10,228.72L-40.48,217.66L-54.54,180.79L-46.52,142.41L-21.90,127.97L3.80,139.02L16.26,176.01L8.88,214.32ZM77.58,195.92L59.29,206.02L73.57,230.37L112.34,238.66L148.03,227.17L162.58,195.29L150.82,169.61L128.44,159.96L97.95,153.88L80.86,148.34L74.71,138.45L81.00,125.31L101.64,119.24L122.14,123.37L131.89,139.13L149.99,129.05L137.67,108.27L101.20,100.21L66.40,111.69L53.19,142.42L64.65,165.33L87.65,174.45L119.86,180.69L135.27,187.17L140.01,198.79L131.10,214.38L111.82,219.66L87.69,213.48ZM246.23,227.61L254.38,218.10L253.48,205.56L244.04,197.33L231.60,198.23L223.45,207.74L224.35,220.28L233.79,228.51ZM225.36,183.19L246.89,181.74L246.43,174.93L248.53,156.72L259.55,141.16L279.65,118.95L287.63,88.65L269.19,52.68L226.25,41.69L189.45,58.34L177.05,92.33L196.51,99.61L205.89,71.93L227.82,61.82L251.99,67.47L263.75,91.78L258.57,112.65L244.67,128.24L228.33,149.33L224.90,176.39Z" fill="#ffffff" stroke="#000000"/>
    <path d="M-577.85,-123.38L-580.65,-144.01L-678.49,-130.74L-699.40,-284.91L-722.46,-281.78L-698.75,-106.98ZM-520.88,-264.74L-561.89,-240.77L-571.81,-188.48L-548.32,-140.73L-502.41,-128.55L-461.39,-152.52L-451.46,-204.81L-474.95,-252.56ZM-504.93,-147.11L-532.77,-155.12L-549.51,-191.49L-543.06,-231.01L-518.36,-246.16L-490.49,-238.14L-473.73,-201.76L-480.20,-162.25ZM-385.90,-283.05L-426.91,-259.08L-436.83,-206.79L-413.33,-159.03L-367.42,-146.85L-326.41,-170.83L-316.47,-223.11L-339.96,-270.87ZM-369.94,-165.42L-397.79,-173.42L-414.53,-209.79L-408.07,-249.32L-383.38,-264.46L-355.51,-256.45L-338.75,-220.07L-345.22,-180.55ZM-270.44,-220.70L-249.99,-223.47L-239.22,-217.02L-206.67,-171.76L-188.41,-185.10L-220.85,-227.43L-238.13,-234.25L-226.73,-248.67L-218.32,-275.31L-211.65,-279.50L-201.92,-282.43L-207.57,-302.18L-225.50,-297.91L-236.17,-285.72L-245.80,-254.14L-252.45,-241.68L-272.89,-238.91L-286.72,-340.89L-297.86,-339.38L-308.51,-337.92L-284.82,-163.12L-263.03,-166.08ZM-165.38,-329.38L-158.66,-339.10L-160.31,-351.44L-169.56,-359.20L-180.79,-357.68L-187.43,-347.79L-185.76,-335.46L-176.61,-327.86ZM-140.12,-182.75L-157.25,-308.99L-179.10,-306.03L-161.97,-179.78ZM-109.16,-186.94L-87.31,-189.91L-96.63,-258.61L-91.56,-292.34L-68.38,-306.90L-46.63,-300.21L-37.25,-275.57L-26.75,-198.12L-4.90,-201.09L-15.40,-278.53L-28.89,-315.91L-66.49,-326.33L-89.38,-317.93L-104.15,-297.65L-106.62,-315.86L-126.29,-313.19ZM80.90,-158.94L123.55,-184.05L128.72,-227.62L112.72,-345.61L93.30,-342.97L95.60,-325.98L79.11,-340.16L56.12,-343.48L17.72,-318.92L10.15,-267.89L31.03,-220.73L74.60,-207.29L93.51,-214.60L106.18,-229.75L107.38,-220.48L103.48,-191.17L78.86,-177.84L57.88,-180.79L47.60,-196.83L31.21,-186.45L45.37,-164.71ZM59.88,-325.06L85.71,-315.83L102.03,-280.34L96.67,-241.91L73.32,-226.02L47.22,-235.21L32.45,-270.90L37.18,-309.24ZM267.68,-393.40L268.14,-411.93L247.87,-412.92L221.49,-398.30L216.78,-365.90L217.60,-359.83L198.66,-357.26L200.94,-340.51L219.87,-343.08L234.72,-233.59L255.85,-236.45L240.99,-345.94L265.52,-349.27L263.24,-366.02L238.72,-362.69L237.83,-369.25L239.74,-386.17L253.22,-393.96ZM336.61,-381.04L295.60,-357.07L285.68,-304.78L309.17,-257.03L355.08,-244.85L396.09,-268.82L406.03,-321.11L382.54,-368.86ZM352.56,-263.41L324.72,-271.42L307.98,-307.79L314.43,-347.31L339.13,-362.46L367.00,-354.44L383.76,-318.06L377.29,-278.55ZM476.27,-378.44L493.41,-375.23L497.47,-394.57L474.98,-399.77L455.00,-390.48L443.19,-368.17L440.23,-390.02L420.56,-387.36L437.52,-262.35L459.54,-264.08L450.28,-332.30L454.14,-363.82ZM-803.75,115.18L-850.32,100.09L-871.37,49.93L-863.50,-4.12L-823.56,-30.94L-787.73,-23.96L-767.38,4.06L-748.23,-9.12L-774.51,-41.91L-826.25,-50.75L-884.23,-15.17L-896.12,53.31L-866.42,116.14L-801.06,134.98L-753.69,112.45L-737.31,75.14L-758.88,66.72L-772.69,99.34ZM-679.07,112.87L-702.78,-61.93L-724.63,-58.97L-700.92,115.83ZM-650.92,-41.01L-644.20,-50.72L-645.85,-63.07L-655.10,-70.83L-666.33,-69.31L-672.96,-59.42L-671.30,-47.08L-662.14,-39.49ZM-625.66,105.63L-642.79,-20.62L-664.64,-17.65L-647.51,108.59ZM-595.24,101.50L-573.34,98.53L-582.20,33.22L-580.62,0.07L-556.83,-18.13L-538.69,-12.58L-530.11,8.58L-518.91,91.15L-497.06,88.18L-506.97,15.11L-502.91,-13.56L-480.32,-28.51L-460.44,-21.09L-453.23,0.67L-442.37,80.77L-420.52,77.80L-432.44,-10.08L-446.53,-40.67L-478.16,-47.98L-500.21,-39.41L-514.91,-17.93L-530.17,-34.59L-554.00,-37.58L-576.25,-29.51L-590.21,-9.45L-592.65,-27.42L-612.31,-24.75ZM-324.83,-21.40L-393.07,10.10L-403.46,42.24L-386.57,69.15L-354.54,73.94L-332.53,66.48L-313.88,48.47L-311.99,63.08L-291.60,60.32L-302.62,-21.13L-319.14,-56.63L-358.64,-64.22L-391.51,-51.32L-404.69,-24.44L-385.91,-16.14L-377.39,-36.83L-358.45,-46.08L-336.36,-42.75ZM-322.22,-2.08L-317.89,29.88L-331.51,45.51L-353.47,55.65L-370.50,53.61L-380.30,38.11L-372.88,19.63ZM-204.27,50.20L-204.26,50.19L-209.34,31.70L-218.92,34.50L-230.17,30.59L-234.21,14.95L-244.06,-57.64L-222.45,-60.57L-224.72,-77.32L-246.33,-74.39L-252.26,-118.09L-274.11,-115.13L-268.18,-71.43L-286.15,-68.99L-283.87,-52.24L-265.91,-54.67L-256.06,17.92L-246.94,47.72L-220.65,54.80ZM-156.61,17.55L-173.89,-14.22L-80.18,-26.95L-80.15,-35.86L-100.88,-80.15L-147.22,-92.99L-187.61,-69.11L-196.92,-16.90L-174.04,30.94L-128.75,43.20L-94.13,27.66L-81.06,-0.63L-99.51,-8.94L-109.82,14.46L-130.03,24.45ZM-175.53,-31.82L-165.74,-62.58L-144.73,-74.45L-118.53,-67.28L-104.88,-41.40ZM23.28,17.61L81.30,9.74L142.13,-21.10L154.26,-89.68L122.91,-152.50L54.44,-164.63L-0.43,-157.19ZM43.58,-5.91L25.44,-139.68L57.24,-143.99L105.43,-136.88L129.97,-86.61L121.65,-32.63L76.11,-10.32ZM215.09,-32.86L197.81,-64.64L291.51,-77.37L291.54,-86.27L270.81,-130.56L224.47,-143.40L184.08,-119.52L174.77,-67.32L197.65,-19.48L242.94,-7.21L277.56,-22.76L290.63,-51.04L272.18,-59.35L261.87,-35.96L241.66,-25.96ZM196.16,-82.23L205.95,-112.99L226.96,-124.86L253.16,-117.69L266.81,-91.82ZM331.75,-64.06L314.36,-52.86L330.08,-29.77L368.93,-24.16L403.41,-37.89L415.66,-70.35L402.33,-94.92L379.58,-102.96L349.07,-106.93L331.82,-111.26L325.09,-120.62L330.42,-134.03L350.40,-141.39L370.92,-138.68L381.60,-123.77L398.81,-134.93L385.25,-154.62L348.70,-160.16L315.09,-146.50L304.09,-115.27L316.94,-93.41L340.26,-85.93L372.49,-81.92L388.14,-76.54L393.60,-65.38L385.84,-49.40L367.15,-42.89L342.90,-47.38ZM440.12,-188.99L446.84,-198.70L445.19,-211.05L435.94,-218.81L424.72,-217.28L418.08,-207.40L419.74,-195.06L428.90,-187.46ZM465.38,-42.35L448.26,-168.59L426.41,-165.63L443.53,-39.39ZM551.66,-0.27L594.31,-25.38L599.49,-68.95L583.48,-186.93L564.06,-184.30L566.37,-167.31L549.88,-181.49L526.89,-184.81L488.48,-160.25L480.91,-109.22L501.79,-62.06L545.36,-48.62L564.27,-55.93L576.94,-71.08L578.14,-61.81L574.25,-32.50L549.62,-19.17L528.64,-22.12L518.36,-38.16L501.97,-27.78L516.13,-6.04ZM530.64,-166.39L556.47,-157.16L572.79,-121.67L567.43,-83.24L544.08,-67.35L517.98,-76.54L503.21,-112.23L507.94,-150.57ZM631.81,-64.92L653.66,-67.89L644.34,-136.59L649.41,-170.32L672.59,-184.87L694.34,-178.18L703.72,-153.55L714.22,-76.10L736.07,-79.06L725.57,-156.51L712.08,-193.89L674.48,-204.31L651.59,-195.91L636.82,-175.63L634.35,-193.83L614.68,-191.17ZM-315.01,236.05L-334.57,244.51L-318.12,277.84L-278.67,286.61L-241.70,265.81L-234.58,220.96L-251.08,99.33L-274.14,102.45L-257.81,222.89L-259.57,251.76L-281.36,266.79L-304.97,259.24ZM-158.26,131.12L-199.27,155.09L-209.19,207.37L-185.70,255.13L-139.79,267.31L-98.78,243.33L-88.84,191.05L-112.33,143.29ZM-142.31,248.75L-170.15,240.74L-186.89,204.37L-180.44,164.84L-155.74,149.70L-127.87,157.72L-111.11,194.09L-117.58,233.61ZM-59.04,73.28L-80.89,76.24L-57.18,251.04L-37.76,248.41L-40.07,231.41L-23.96,245.95L-1.32,248.99L37.09,224.43L44.68,173.41L23.78,126.24L-19.79,112.80L-38.71,120.12L-50.65,135.19ZM-5.09,230.60L-30.90,221.37L-47.24,185.89L-41.88,147.46L-18.53,131.55L7.59,140.75L22.36,176.45L17.63,214.79ZM84.25,192.03L66.86,203.22L82.59,226.32L121.44,231.92L155.92,218.20L168.16,185.74L154.83,161.16L132.08,153.12L101.57,149.16L84.32,144.82L77.59,135.46L82.93,122.06L102.90,114.70L123.42,117.41L134.11,132.32L151.31,121.16L137.75,101.46L101.20,95.93L67.59,109.59L56.59,140.81L69.44,162.68L92.77,170.16L124.99,174.17L140.65,179.54L146.10,190.71L138.34,206.69L119.65,213.20L95.41,208.71ZM252.93,212.08L260.35,202.15L258.62,189.83L248.75,182.33L236.52,184.05L229.11,193.98L230.84,206.31L240.71,213.80ZM229.36,169.61L250.53,166.74L249.62,160.05L250.48,141.92L260.33,125.81L278.69,102.54L284.56,72.08L263.95,37.78L220.81,29.80L185.57,48.70L175.59,83.09L195.30,88.98L202.71,61.02L223.70,49.57L247.95,53.54L261.18,76.77L257.45,97.72L244.77,114.04L230.03,135.97L228.46,162.92Z" fill="#ffffff" stroke="#000000"/>
    <path d="M-584.00,-79.30L-588.14,-99.49L-683.87,-79.86L-714.80,-230.71L-737.37,-226.09L-702.30,-55.05ZM-537.16,-222.70L-576.06,-196.29L-582.37,-144.00L-555.99,-98.40L-509.84,-89.43L-470.93,-115.85L-464.60,-168.14L-490.99,-213.73ZM-513.56,-107.60L-541.59,-113.65L-560.55,-148.45L-556.81,-187.91L-533.43,-204.51L-505.38,-198.46L-486.40,-163.65L-490.15,-124.19ZM-405.08,-249.78L-443.98,-223.37L-450.29,-171.07L-423.90,-125.48L-377.76,-116.51L-338.85,-142.93L-332.52,-195.22L-358.90,-240.81ZM-381.48,-134.67L-409.51,-140.73L-428.47,-175.53L-424.73,-214.99L-401.35,-231.59L-373.30,-225.54L-354.32,-190.73L-358.07,-151.27ZM-286.90,-195.90L-266.89,-200.01L-255.83,-194.35L-220.66,-151.83L-203.52,-166.21L-238.38,-205.85L-255.90,-211.43L-245.60,-226.44L-239.07,-253.31L-232.77,-257.89L-223.36,-261.43L-230.25,-280.56L-247.67,-275.15L-257.40,-262.40L-264.80,-230.57L-270.54,-217.82L-290.53,-213.73L-310.99,-313.51L-321.89,-311.28L-332.31,-309.13L-297.26,-138.08L-275.94,-142.45ZM-190.40,-310.24L-184.40,-320.28L-186.86,-332.36L-196.51,-339.40L-207.50,-337.15L-213.40,-326.95L-210.93,-314.88L-201.38,-307.98ZM-155.68,-167.11L-181.00,-290.64L-202.38,-286.26L-177.06,-162.73ZM-125.39,-173.32L-104.00,-177.70L-117.79,-244.93L-115.02,-278.57L-93.11,-294.50L-71.18,-289.34L-60.28,-265.63L-44.74,-189.85L-23.36,-194.24L-38.89,-270.02L-54.71,-306.03L-92.53,-313.82L-114.58,-303.99L-127.82,-282.98L-131.47,-300.80L-150.71,-296.85ZM64.18,-158.33L104.63,-185.97L106.83,-229.34L83.16,-344.80L64.16,-340.90L67.57,-324.27L50.34,-337.18L27.41,-338.92L-8.88,-312.11L-12.95,-261.22L10.81,-216.03L54.73,-205.66L72.93,-214.14L84.43,-229.95L86.22,-220.87L84.33,-191.67L60.91,-176.86L39.99,-178.38L28.77,-193.54L13.27,-182.19L28.71,-161.67ZM32.35,-320.99L58.47,-313.59L76.96,-279.63L74.22,-241.33L52.22,-224.07L25.84,-231.41L8.87,-265.67L10.98,-303.85ZM233.00,-402.32L232.23,-420.66L212.14,-420.28L187.06,-404.09L184.57,-371.78L185.79,-365.84L167.26,-362.04L170.62,-345.65L189.15,-349.44L211.11,-242.31L231.78,-246.54L209.81,-353.68L233.81,-358.60L230.45,-374.99L206.45,-370.07L205.14,-376.49L205.89,-393.32L218.69,-401.92ZM301.90,-394.71L262.99,-368.31L256.68,-316.01L283.07,-270.42L329.22,-261.45L368.12,-287.86L374.45,-340.16L348.07,-385.75ZM325.50,-279.61L297.46,-285.66L278.51,-320.46L282.25,-359.93L305.63,-376.53L333.68,-370.47L352.66,-335.67L348.90,-296.21ZM440.00,-401.46L457.14,-399.43L459.85,-418.80L437.30,-422.44L418.18,-411.93L408.01,-389.12L403.63,-410.50L384.39,-406.55L409.46,-284.23L431.09,-287.40L417.41,-354.16L419.12,-385.55ZM-791.18,171.35L-838.18,159.55L-862.31,111.42L-858.14,57.51L-820.49,28.36L-784.63,32.88L-762.67,59.18L-744.64,44.89L-772.78,14.26L-824.46,8.99L-879.35,47.98L-886.53,116.41L-853.00,176.47L-787.20,190.72L-741.92,165.32L-728.24,127.37L-750.10,120.50L-761.57,153.63ZM-668.21,160.75L-703.28,-10.29L-724.66,-5.90L-689.59,165.14ZM-650.67,6.91L-644.67,-3.13L-647.13,-15.21L-656.78,-22.26L-667.77,-20.00L-673.66,-9.80L-671.19,2.27L-661.65,9.17ZM-615.95,150.04L-641.27,26.51L-662.65,30.89L-637.33,154.42ZM-586.18,143.94L-564.75,139.54L-577.85,75.64L-578.50,42.79L-556.23,23.24L-537.94,27.51L-528.05,47.83L-511.49,128.63L-490.11,124.24L-504.77,52.74L-502.66,24.15L-481.36,7.89L-461.22,13.89L-452.66,34.89L-436.59,113.27L-415.21,108.89L-432.84,22.89L-448.80,-6.38L-480.53,-11.48L-501.72,-1.56L-514.81,20.64L-530.99,5.21L-554.72,3.84L-576.16,13.29L-588.61,34.03L-592.21,16.45L-611.45,20.40ZM-327.33,4.54L-392.62,40.19L-400.74,72.63L-382.26,98.08L-350.32,100.67L-329.08,91.84L-311.86,72.81L-309.02,87.12L-289.07,83.03L-305.37,3.33L-324.06,-30.63L-363.58,-35.50L-395.17,-20.56L-406.39,6.86L-387.30,13.81L-380.26,-7.19L-362.18,-17.59L-340.14,-15.77ZM-323.46,23.44L-317.06,54.72L-329.46,71.06L-350.47,82.54L-367.43,81.67L-378.14,67.01L-372.05,48.26ZM-203.49,67.21L-203.49,67.20L-209.73,49.28L-219.01,52.68L-230.39,49.57L-235.42,34.40L-249.98,-36.63L-228.84,-40.96L-232.20,-57.36L-253.34,-53.02L-262.11,-95.78L-283.49,-91.40L-274.72,-48.64L-292.30,-45.03L-288.94,-28.64L-271.36,-32.25L-256.80,38.78L-245.81,67.61L-219.37,72.84ZM-158.60,31.79L-177.79,1.57L-86.09,-17.25L-86.66,-26.05L-110.08,-68.40L-156.71,-78.00L-195.00,-51.72L-200.71,0.45L-174.93,46.17L-129.39,55.27L-96.23,37.61L-85.21,8.80L-103.98,1.83L-112.60,25.62L-131.90,36.83ZM-180.58,-15.70L-172.96,-46.73L-153.01,-59.85L-126.66,-54.52L-111.45,-29.88ZM19.05,19.86L75.82,8.22L133.84,-26.29L141.25,-94.82L106.10,-154.77L37.67,-162.19L-16.02,-151.18ZM37.52,-4.72L10.69,-135.62L41.81,-142.00L89.87,-138.18L117.46,-90.18L112.85,-36.31L69.36,-11.25ZM205.10,-42.77L185.92,-73.00L277.61,-91.82L277.04,-100.61L253.62,-142.97L207.00,-152.56L168.71,-126.28L162.99,-74.11L188.77,-28.39L234.32,-19.30L267.47,-36.96L278.50,-65.76L259.72,-72.74L251.10,-48.95L231.80,-37.73ZM183.12,-90.27L190.74,-121.30L210.69,-134.42L237.05,-129.08L252.25,-104.44ZM318.23,-81.36L301.81,-69.14L318.87,-47.38L357.61,-44.44L390.75,-60.29L400.67,-93.16L385.87,-116.54L362.87,-122.97L332.48,-124.85L315.15,-127.98L307.88,-136.77L312.26,-150.36L331.49,-158.97L351.94,-157.66L363.48,-143.64L379.73,-155.82L365.03,-174.36L328.56,-177.39L296.28,-161.66L287.50,-130.09L301.65,-109.35L325.18,-103.52L357.27,-101.71L373.09,-97.45L379.22,-86.79L372.62,-70.48L354.60,-62.81L330.36,-65.63ZM416.92,-211.95L422.92,-222.00L420.46,-234.08L410.81,-241.12L399.83,-238.87L393.93,-228.66L396.40,-216.59L405.94,-209.70ZM451.64,-68.83L426.32,-192.36L404.94,-187.98L430.26,-64.44ZM539.66,-33.02L580.10,-60.66L582.31,-104.03L558.64,-219.49L539.63,-215.59L543.04,-198.96L525.81,-211.87L502.89,-213.61L466.59,-186.80L462.52,-135.90L486.29,-90.72L530.21,-80.35L548.40,-88.83L559.90,-104.64L561.70,-95.56L559.81,-66.36L536.39,-51.55L515.46,-53.07L504.25,-68.22L488.75,-56.88L504.19,-36.36ZM507.83,-195.68L533.95,-188.28L552.43,-154.32L549.70,-116.02L527.70,-98.76L501.31,-106.10L484.35,-140.36L486.46,-178.54ZM614.50,-102.21L635.88,-106.60L622.09,-173.83L624.86,-207.47L646.77,-223.39L668.70,-218.23L679.61,-194.53L695.14,-118.75L716.52,-123.13L700.99,-198.91L685.17,-234.93L647.35,-242.71L625.30,-232.88L612.06,-211.87L608.41,-229.69L589.17,-225.74ZM-300.47,258.13L-319.22,267.79L-300.76,299.61L-261.21,305.64L-226.09,282.63L-222.05,237.86L-246.45,118.85L-269.02,123.47L-244.86,241.33L-244.67,269.95L-265.18,286.24L-289.00,280.36ZM-152.67,144.05L-191.57,170.46L-197.88,222.76L-171.49,268.35L-125.35,277.32L-86.44,250.91L-80.11,198.61L-106.49,153.02ZM-129.07,259.16L-157.10,253.11L-176.06,218.30L-172.32,178.84L-148.94,162.24L-120.89,168.30L-101.91,203.10L-105.66,242.56ZM-58.54,80.32L-79.92,84.71L-44.85,255.75L-25.85,251.85L-29.26,235.22L-12.38,248.50L10.18,250.00L46.48,223.18L50.57,172.29L26.78,127.11L-17.14,116.73L-35.33,125.22L-46.12,140.90ZM5.23,232.09L-20.88,224.69L-39.38,190.75L-36.64,152.44L-14.64,135.17L11.76,142.51L28.73,176.78L26.61,214.96ZM90.89,188.04L74.46,200.26L91.53,222.02L130.27,224.96L163.41,209.10L173.33,176.23L158.53,152.86L135.53,146.43L105.13,144.55L87.81,141.42L80.54,132.62L84.91,119.03L104.15,110.43L124.60,111.74L136.14,125.75L152.39,113.58L137.69,95.03L101.22,92.00L68.94,107.74L60.16,139.31L74.31,160.04L97.84,165.87L129.93,167.68L145.75,171.95L151.88,182.61L145.28,198.91L127.26,206.59L103.01,203.77ZM258.81,196.60L265.47,186.30L262.94,174.24L252.69,167.49L240.73,170.01L234.07,180.31L236.60,192.37L246.85,199.11ZM232.70,156.22L253.41,151.98L252.06,145.43L251.71,127.48L260.35,110.91L276.94,86.70L280.70,56.23L258.06,23.73L214.93,18.73L181.39,39.74L173.83,74.37L193.68,78.87L199.14,50.76L219.10,38.06L243.31,40.36L257.93,62.42L255.64,83.36L244.21,100.33L231.12,122.96L231.35,149.68Z" fill="#ffffff" stroke="#000000"/>
    <path d="M-586.74,-35.07L-592.17,-54.73L-685.40,-28.97L-725.99,-175.86L-747.96,-169.79L-701.94,-3.23ZM-550.04,-179.79L-586.70,-151.12L-589.45,-99.06L-560.35,-55.79L-514.18,-50.01L-477.53,-78.69L-474.76,-130.75L-503.85,-174.01ZM-519.07,-67.70L-547.15,-71.81L-568.19,-104.91L-567.13,-144.13L-545.15,-162.08L-517.05,-157.97L-495.99,-124.86L-497.06,-85.65ZM-421.43,-215.33L-458.08,-186.66L-460.83,-134.60L-431.73,-91.34L-385.56,-85.56L-348.91,-114.23L-346.14,-166.29L-375.23,-209.56ZM-390.45,-103.24L-418.53,-107.35L-439.57,-140.45L-438.51,-179.67L-416.53,-197.62L-388.43,-193.51L-367.37,-160.41L-368.44,-121.19ZM-301.14,-170.01L-281.65,-175.40L-270.35,-170.55L-232.80,-130.90L-216.83,-146.25L-253.89,-183.07L-271.56,-187.41L-262.40,-202.91L-257.74,-229.88L-251.82,-234.83L-242.76,-238.95L-250.84,-257.38L-267.69,-250.88L-276.44,-237.64L-281.63,-205.72L-286.45,-192.75L-305.92,-187.37L-332.77,-284.53L-343.38,-281.60L-353.53,-278.79L-307.52,-112.22L-286.76,-117.96ZM-213.47,-289.34L-208.22,-299.65L-211.45,-311.42L-221.46,-317.73L-232.15,-314.78L-237.29,-304.31L-234.05,-292.55L-224.17,-286.38ZM-169.65,-150.32L-202.89,-270.61L-223.71,-264.86L-190.47,-144.57ZM-140.15,-158.48L-119.33,-164.23L-137.42,-229.70L-136.93,-263.10L-116.35,-280.28L-94.36,-276.65L-82.01,-253.97L-61.62,-180.18L-40.80,-185.93L-61.19,-259.72L-79.21,-294.23L-117.07,-299.40L-138.19,-288.23L-149.86,-266.60L-154.65,-283.94L-173.39,-278.77ZM48.04,-156.31L86.13,-186.30L85.42,-229.27L54.35,-341.70L35.84,-336.59L40.32,-320.39L22.44,-331.99L-0.31,-332.19L-34.36,-303.29L-34.99,-252.76L-8.51,-209.73L35.55,-202.41L52.95,-212.00L63.25,-228.38L65.63,-219.53L65.71,-190.58L43.57,-174.39L22.81,-174.50L10.72,-188.71L-3.82,-176.48L12.79,-157.24ZM5.76,-314.81L32.05,-309.24L52.57,-276.94L52.42,-238.93L31.84,-220.43L5.30,-225.91L-13.74,-258.61L-14.19,-296.46ZM198.48,-408.49L196.48,-426.54L176.68,-424.83L152.99,-407.17L152.69,-375.10L154.28,-369.32L136.24,-364.33L140.65,-348.37L158.69,-353.35L187.52,-249.02L207.65,-254.59L178.82,-358.92L202.18,-365.37L197.77,-381.33L174.41,-374.88L172.68,-381.12L172.30,-397.80L184.37,-407.14ZM267.01,-405.57L230.36,-376.90L227.61,-324.84L256.71,-281.58L302.87,-275.80L339.53,-304.48L342.29,-356.53L313.20,-399.80ZM297.99,-293.49L269.90,-297.59L248.87,-330.70L249.93,-369.91L271.91,-387.87L300.01,-383.75L321.07,-350.65L319.99,-311.44ZM402.93,-421.44L419.99,-420.58L421.38,-439.89L398.87,-441.97L380.69,-430.32L372.17,-407.12L366.41,-427.94L347.68,-422.76L380.59,-303.64L401.74,-308.22L383.77,-373.22L383.37,-404.33ZM-774.60,226.24L-821.80,217.73L-848.84,171.81L-848.31,118.30L-813.08,87.01L-777.38,89.07L-753.94,113.59L-737.08,98.27L-766.91,69.91L-818.30,68.14L-869.89,110.31L-872.42,178.35L-835.32,235.42L-769.39,245.11L-726.37,217.00L-715.39,178.63L-737.44,173.30L-746.55,206.78ZM-653.89,207.59L-699.92,41.03L-720.74,46.78L-674.71,213.34ZM-646.82,54.51L-641.57,44.19L-644.80,32.43L-654.80,26.11L-665.50,29.07L-670.64,39.54L-667.40,51.30L-657.52,57.46ZM-603.00,193.52L-636.24,73.23L-657.06,78.99L-623.82,199.28ZM-574.01,185.51L-553.14,179.75L-570.34,117.52L-573.17,85.13L-552.48,64.33L-534.14,67.33L-523.02,86.74L-501.28,165.41L-480.46,159.66L-499.70,90.03L-499.53,61.66L-479.57,44.18L-459.29,48.77L-449.43,68.94L-428.34,145.26L-407.52,139.51L-430.66,55.77L-448.37,27.93L-480.04,25.00L-500.31,36.21L-511.76,59.00L-528.76,44.85L-552.28,45.08L-572.82,55.84L-583.73,77.15L-588.46,60.03L-607.20,65.21ZM-327.71,30.62L-389.79,70.17L-395.65,102.74L-375.71,126.64L-343.99,127.07L-323.61,116.93L-307.87,96.99L-304.12,110.93L-284.69,105.56L-306.10,27.95L-326.81,-4.33L-366.16,-6.51L-396.36,10.35L-405.62,38.18L-386.30,43.76L-380.75,22.56L-363.59,11.08L-341.71,11.41ZM-322.62,49.02L-314.22,79.48L-325.37,96.44L-345.36,109.17L-362.15,109.44L-373.71,95.68L-368.94,76.77ZM-201.24,84.24L-201.24,84.23L-208.60,66.96L-217.54,70.93L-228.97,68.62L-234.95,53.97L-254.07,-15.20L-233.48,-20.89L-237.89,-36.85L-258.48,-31.16L-269.98,-72.80L-290.80,-67.04L-279.30,-25.41L-296.42,-20.67L-292.00,-4.71L-274.89,-9.44L-255.77,59.72L-243.00,87.46L-216.54,90.86ZM-159.28,46.28L-180.23,17.71L-90.95,-6.99L-92.09,-15.64L-118.05,-55.90L-164.72,-62.26L-200.78,-33.76L-202.94,18.14L-174.44,61.56L-128.86,67.51L-97.30,47.86L-88.33,18.68L-107.34,13.04L-114.27,37.11L-132.58,49.47ZM-184.15,0.84L-178.69,-30.31L-159.86,-44.59L-133.49,-41.08L-116.83,-17.76ZM15.35,22.65L70.64,7.37L125.62,-30.57L128.37,-98.74L89.66,-155.59L21.60,-158.35L-30.68,-143.91ZM31.95,-2.85L-3.27,-130.32L27.04,-138.69L74.75,-138.13L105.19,-92.57L104.22,-39.07L62.95,-11.42ZM194.89,-51.59L173.93,-80.16L263.22,-104.86L262.07,-113.51L236.12,-153.77L189.44,-160.14L153.38,-131.63L151.22,-79.73L179.73,-36.31L225.30,-30.36L256.87,-50.01L265.83,-79.19L246.82,-84.83L239.90,-60.76L221.59,-48.40ZM170.02,-97.03L175.47,-128.18L194.30,-142.46L220.68,-138.95L237.33,-115.63ZM304.03,-97.24L288.62,-84.08L306.92,-63.73L345.37,-63.41L377.04,-81.27L384.65,-114.39L368.48,-136.49L345.33,-141.30L315.19,-141.13L297.88,-143.07L290.11,-151.27L293.53,-164.98L311.95,-174.76L332.23,-174.83L344.56,-161.76L359.79,-174.86L344.04,-192.19L307.83,-192.76L277.00,-175.07L270.43,-143.31L285.79,-123.78L309.41,-119.59L341.22,-119.94L357.12,-116.78L363.89,-106.66L358.46,-90.13L341.18,-81.35L317.05,-82.52ZM392.78,-232.77L398.02,-243.09L394.79,-254.86L384.79,-261.17L374.10,-258.21L368.95,-247.74L372.20,-235.99L382.08,-229.82ZM436.60,-93.76L403.36,-214.05L382.54,-208.30L415.78,-88.01ZM525.90,-64.27L563.99,-94.26L563.28,-137.23L532.21,-249.66L513.70,-244.54L518.18,-228.35L500.30,-239.95L477.55,-240.14L443.50,-211.24L442.87,-160.72L469.35,-117.69L513.41,-110.37L530.81,-119.96L541.11,-136.34L543.49,-127.49L543.57,-98.53L521.43,-82.35L500.67,-82.45L488.58,-96.67L474.04,-84.43L490.65,-65.20ZM483.62,-222.76L509.91,-217.19L530.43,-184.89L530.28,-146.89L509.70,-128.38L483.16,-133.87L464.12,-166.57L463.67,-204.42ZM595.18,-137.58L616.00,-143.33L597.91,-208.80L598.40,-242.20L618.98,-259.39L640.97,-255.76L653.32,-233.08L673.71,-159.28L694.53,-165.04L674.14,-238.83L656.12,-273.34L618.26,-278.50L597.14,-267.33L585.47,-245.70L580.68,-263.05L561.94,-257.87ZM-284.27,279.22L-302.15,290.02L-281.79,320.20L-242.34,323.52L-209.20,298.46L-208.19,253.99L-240.22,138.09L-262.19,144.16L-230.48,258.93L-228.39,287.18L-247.56,304.63L-271.47,300.41ZM-145.93,156.73L-182.59,185.40L-185.33,237.46L-156.24,280.72L-110.07,286.50L-73.42,257.83L-70.65,205.77L-99.74,162.51ZM-114.96,268.82L-143.04,264.71L-164.08,231.61L-163.02,192.39L-141.04,174.44L-112.93,178.55L-91.87,211.66L-92.95,250.87ZM-57.23,87.53L-78.05,93.28L-32.03,259.84L-13.52,254.72L-18.00,238.53L-0.44,250.52L21.93,250.49L55.99,221.59L56.63,171.06L30.13,128.04L-13.93,120.72L-31.33,130.32L-40.93,146.52ZM15.85,233.14L-10.42,227.57L-30.95,195.29L-30.81,157.28L-10.23,138.76L16.33,144.25L35.37,176.96L35.82,214.80ZM97.50,183.93L82.09,197.09L100.39,217.44L138.84,217.76L170.51,199.90L178.12,166.78L161.95,144.68L138.80,139.87L108.67,140.04L91.35,138.10L83.58,129.90L87.00,116.19L105.42,106.41L125.70,106.34L138.03,119.41L153.26,106.31L137.51,88.97L101.30,88.41L70.47,106.10L63.91,137.86L79.26,157.39L102.88,161.58L134.69,161.23L150.59,164.39L157.36,174.50L151.93,191.04L134.65,199.82L110.52,198.65ZM263.88,181.19L269.77,170.57L266.47,158.84L255.90,152.86L244.26,156.14L238.36,166.75L241.67,178.49L252.24,184.47ZM235.40,143.06L255.57,137.49L253.81,131.12L252.26,113.41L259.69,96.47L274.46,71.46L276.14,41.13L251.62,10.54L208.69,8.47L176.97,31.46L171.82,66.16L191.72,69.28L195.23,41.16L214.10,27.29L238.16,27.94L254.07,48.75L253.21,69.59L243.04,87.10L231.63,110.32L233.64,136.69Z" fill="#ffffff" stroke="#000000"/>
    <path d="M-586.08,9.06L-592.76,-9.99L-683.08,21.66L-732.95,-120.67L-754.25,-113.21L-697.70,48.17ZM-559.50,-136.27L-593.78,-105.53L-593.02,-53.94L-561.41,-13.17L-515.44,-10.54L-481.16,-41.29L-481.90,-92.88L-513.51,-133.65ZM-521.45,-27.67L-549.45,-29.86L-572.43,-61.14L-573.99,-99.93L-553.49,-119.12L-525.46,-116.93L-502.46,-85.65L-500.91,-46.86ZM-434.88,-179.94L-469.16,-149.19L-468.40,-97.61L-436.79,-56.83L-390.82,-54.20L-356.54,-84.96L-357.28,-136.54L-388.89,-177.32ZM-396.83,-71.34L-424.83,-73.52L-447.80,-104.80L-449.37,-143.59L-428.87,-162.78L-400.84,-160.60L-377.84,-129.31L-376.29,-90.53ZM-313.10,-143.21L-294.21,-149.83L-282.73,-145.80L-243.01,-109.15L-228.27,-125.37L-267.32,-159.25L-285.05,-162.36L-277.03,-178.28L-274.24,-205.22L-268.72,-210.50L-260.05,-215.17L-269.26,-232.83L-285.46,-225.28L-293.22,-211.63L-296.21,-179.77L-300.10,-166.64L-318.97,-160.03L-351.95,-254.18L-362.24,-250.57L-372.07,-247.12L-315.54,-85.73L-295.43,-92.78ZM-234.49,-266.87L-229.99,-277.41L-233.97,-288.81L-244.27,-294.38L-254.63,-290.74L-259.01,-280.06L-255.02,-268.67L-244.85,-263.24ZM-181.96,-132.54L-222.79,-249.09L-242.97,-242.02L-202.13,-125.47ZM-153.37,-142.55L-133.20,-149.62L-155.43,-213.05L-157.17,-246.07L-138.00,-264.40L-116.04,-262.28L-102.34,-240.71L-77.28,-169.21L-57.11,-176.28L-82.16,-247.78L-102.25,-280.65L-139.98,-283.23L-160.09,-270.79L-170.17,-248.66L-176.06,-265.47L-194.21,-259.11ZM32.57,-152.96L68.19,-185.11L64.62,-227.49L26.45,-336.42L8.52,-330.14L14.02,-314.45L-4.41,-324.71L-26.88,-323.38L-58.58,-292.58L-55.83,-242.65L-26.81,-201.93L17.17,-197.65L33.71,-208.27L42.80,-225.13L45.73,-216.55L47.74,-187.97L26.96,-170.51L6.45,-169.23L-6.43,-182.46L-19.97,-169.41L-2.29,-151.53ZM-19.73,-306.63L6.59,-302.88L29.01,-272.36L31.39,-234.83L12.31,-215.18L-14.26,-218.83L-35.24,-249.85L-38.21,-287.18ZM164.30,-411.98L161.13,-429.66L141.69,-426.66L119.48,-407.64L121.31,-375.95L123.28,-370.35L105.79,-364.22L111.21,-348.76L128.70,-354.88L164.12,-253.80L183.62,-260.63L148.20,-361.71L170.83,-369.65L165.42,-385.11L142.78,-377.18L140.66,-383.23L139.17,-399.67L150.46,-409.69ZM232.16,-413.66L197.88,-382.91L198.64,-331.33L230.25,-290.55L276.22,-287.92L310.50,-318.68L309.76,-370.26L278.15,-411.04ZM270.21,-305.06L242.21,-307.24L219.24,-338.52L217.67,-377.31L238.17,-396.50L266.20,-394.32L289.20,-363.03L290.75,-324.25ZM365.30,-438.38L382.20,-438.67L382.28,-457.83L359.92,-458.38L342.75,-445.67L335.88,-422.19L328.81,-442.36L310.66,-436.00L351.10,-320.59L371.67,-326.52L349.60,-389.50L347.13,-420.19ZM-754.15,279.58L-801.32,274.32L-831.07,230.79L-834.12,177.92L-801.42,144.67L-766.03,144.33L-741.26,166.98L-725.64,150.73L-756.98,124.71L-807.83,126.39L-855.96,171.46L-853.92,238.81L-813.48,292.69L-747.75,297.86L-707.15,267.24L-698.86,228.62L-720.98,224.83L-727.75,258.49ZM-636.21,253.12L-692.75,91.73L-712.93,98.80L-656.38,260.18ZM-639.43,101.50L-634.94,90.97L-638.91,79.57L-649.21,74.00L-659.57,77.63L-663.95,88.31L-659.97,99.70L-649.80,105.13ZM-586.90,235.84L-627.74,119.29L-647.91,126.35L-607.07,242.91ZM-558.81,226.00L-538.59,218.91L-559.72,158.62L-564.68,126.83L-545.63,104.91L-527.32,106.65L-515.05,125.07L-488.34,201.30L-468.17,194.24L-491.81,126.77L-493.53,98.75L-474.99,80.16L-454.66,83.34L-443.58,102.59L-417.67,176.54L-397.50,169.48L-425.93,88.34L-445.27,62.03L-476.73,61.25L-496.00,73.68L-505.78,96.94L-523.51,84.09L-546.72,85.90L-566.28,97.89L-575.64,119.65L-581.45,103.07L-599.60,109.43ZM-325.95,56.64L-384.62,99.84L-388.23,132.38L-366.95,154.65L-335.60,152.96L-316.15,141.59L-301.95,120.86L-297.31,134.37L-278.48,127.77L-304.80,52.58L-327.40,22.08L-366.40,22.56L-395.09,41.21L-402.37,69.30L-382.93,73.53L-378.87,52.22L-362.68,39.75L-341.06,38.61ZM-319.70,74.48L-309.38,103.99L-319.26,121.48L-338.14,135.38L-354.71,136.77L-367.04,123.95L-363.59,104.96ZM-197.52,101.16L-197.52,101.16L-205.93,84.59L-214.49,89.10L-225.94,87.59L-232.82,73.52L-256.30,6.50L-236.35,-0.49L-241.77,-15.95L-261.72,-8.96L-275.85,-49.31L-296.03,-42.24L-281.89,-1.89L-298.48,3.92L-293.06,19.38L-276.47,13.57L-252.99,80.59L-238.53,107.12L-212.18,108.72ZM-158.61,60.88L-181.21,34.07L-94.70,3.74L-96.40,-4.73L-124.71,-42.75L-171.23,-45.92L-204.93,-15.38L-203.60,36.01L-172.56,76.98L-127.17,79.82L-97.31,58.31L-90.41,28.91L-109.55,24.61L-114.78,48.83L-132.04,62.26ZM-186.20,17.68L-182.89,-13.44L-165.25,-28.80L-138.97,-27.09L-120.97,-5.18ZM12.23,25.92L65.80,7.15L117.55,-33.98L115.72,-101.47L73.72,-155.02L6.34,-153.21L-44.32,-135.47ZM26.92,-0.37L-16.35,-123.87L13.01,-134.16L60.16,-136.79L93.25,-93.83L95.86,-40.94L56.96,-10.90ZM184.55,-59.36L161.95,-86.17L248.46,-116.50L246.75,-124.96L218.44,-162.98L171.93,-166.16L138.23,-135.61L139.56,-84.23L170.59,-43.25L215.99,-40.42L245.84,-61.92L252.75,-91.33L233.61,-95.63L228.37,-71.41L211.12,-57.98ZM156.96,-102.56L160.27,-133.67L177.91,-149.03L204.19,-147.33L222.18,-125.41ZM289.26,-111.69L274.93,-97.68L294.35,-78.81L332.34,-81.05L362.41,-100.80L367.72,-134.00L350.27,-154.75L327.11,-157.95L297.36,-155.78L280.13,-156.54L271.92,-164.11L274.38,-177.88L291.91,-188.76L311.93,-190.18L324.98,-178.10L339.14,-192.05L322.43,-208.12L286.65,-206.26L257.39,-186.74L253.02,-154.94L269.48,-136.68L293.08,-134.12L324.47,-136.59L340.38,-134.53L347.74,-124.99L343.48,-108.30L327.00,-98.48L303.10,-98.03ZM367.85,-251.43L372.35,-261.96L368.37,-273.37L358.07,-278.93L347.71,-275.30L343.33,-264.62L347.32,-253.23L357.49,-247.80ZM420.38,-117.10L379.55,-233.65L359.37,-226.58L400.21,-110.03ZM510.52,-93.93L546.13,-126.08L542.56,-168.46L504.39,-277.39L486.46,-271.11L491.96,-255.42L473.54,-265.68L451.06,-264.36L419.37,-233.55L422.11,-183.63L451.13,-142.90L495.12,-138.62L511.66,-149.24L520.74,-166.10L523.68,-157.53L525.69,-128.94L504.90,-111.48L484.40,-110.20L471.51,-123.44L457.97,-110.38L475.65,-92.50ZM458.21,-247.60L484.54,-243.85L506.95,-213.33L509.34,-175.80L490.25,-156.16L463.68,-159.80L442.71,-190.82L439.73,-228.16ZM574.04,-170.93L594.21,-178.00L571.98,-241.43L570.24,-274.45L589.41,-292.78L611.37,-290.66L625.07,-269.09L650.13,-197.59L670.30,-204.66L645.25,-276.16L625.16,-309.03L587.43,-311.61L567.32,-299.17L557.24,-277.04L551.35,-293.85L533.20,-287.49ZM-266.50,299.21L-283.43,311.06L-261.32,339.51L-222.15,340.15L-191.09,313.20L-193.06,269.22L-232.41,156.93L-253.70,164.39L-214.74,275.58L-210.79,303.34L-228.56,321.85L-252.45,319.28ZM-138.07,169.05L-172.35,199.80L-171.60,251.38L-139.99,292.16L-94.02,294.79L-59.74,264.03L-60.48,212.45L-92.08,171.67ZM-100.02,277.65L-128.02,275.47L-151.00,244.19L-152.57,205.39L-132.06,186.20L-104.04,188.39L-81.04,219.67L-79.49,258.46ZM-55.11,94.81L-75.29,101.88L-18.74,263.26L-0.81,256.97L-6.31,241.28L11.82,251.95L33.91,250.43L65.61,219.63L62.88,169.70L33.85,128.98L-10.14,124.69L-26.68,135.33L-35.09,151.96ZM26.75,233.70L0.44,229.96L-21.98,199.45L-24.37,161.91L-5.29,142.26L21.30,145.91L42.28,176.94L45.25,214.26ZM104.08,179.68L89.75,193.69L109.18,212.57L147.16,210.32L177.23,190.58L182.54,157.37L165.10,136.63L141.93,133.42L112.19,135.59L94.96,134.83L86.74,127.26L89.20,113.49L106.74,102.61L126.75,101.19L139.80,113.27L153.97,99.32L137.26,83.26L101.47,85.12L72.21,104.64L67.85,136.43L84.30,154.69L107.91,157.25L139.29,154.78L155.21,156.84L162.56,166.38L158.30,183.07L141.82,192.89L117.92,193.34ZM268.17,165.88L273.29,155.01L269.24,143.64L258.41,138.44L247.13,142.45L242.02,153.33L246.07,164.70L256.90,169.90ZM237.52,130.14L257.06,123.29L254.90,117.11L252.19,99.73L258.40,82.52L271.31,56.84L270.95,26.77L244.70,-1.79L202.18,-0.97L172.39,23.84L169.61,58.44L189.47,60.20L191.07,32.20L208.77,17.25L232.57,16.29L249.66,35.77L250.20,56.40L241.33,74.37L231.61,98.06L235.36,123.96Z" fill="#ffffff" stroke="#000000"/>
    <path d="M-582.07,52.81L-589.93,34.45L-676.99,71.71L-735.71,-65.47L-756.23,-56.69L-689.65,98.86ZM-565.51,-92.44L-597.30,-59.80L-593.12,-8.92L-559.19,29.23L-513.64,28.76L-481.84,-3.89L-486.01,-54.76L-519.93,-92.91ZM-520.71,12.24L-548.49,11.95L-573.26,-17.40L-577.39,-55.59L-558.43,-75.90L-530.62,-75.61L-505.83,-46.26L-501.71,-8.07ZM-445.39,-143.85L-477.18,-111.21L-473.00,-60.33L-439.07,-22.18L-393.52,-22.65L-361.72,-55.30L-365.89,-106.17L-399.81,-144.32ZM-400.59,-39.17L-428.37,-39.46L-453.14,-68.81L-457.27,-107.00L-438.31,-127.31L-410.50,-127.02L-385.71,-97.67L-381.59,-59.48ZM-322.72,-115.71L-304.52,-123.50L-292.91,-120.28L-251.26,-86.75L-237.78,-103.75L-278.59,-134.59L-296.31,-136.48L-289.45,-152.73L-288.48,-179.51L-283.39,-185.09L-275.14,-190.28L-285.41,-207.10L-300.90,-198.57L-307.65,-184.57L-308.48,-152.92L-311.45,-139.70L-329.63,-131.92L-368.47,-222.66L-378.39,-218.42L-387.86,-214.35L-321.30,-58.80L-301.91,-67.10ZM-253.36,-243.02L-249.62,-253.72L-254.30,-264.72L-264.84,-269.52L-274.83,-265.25L-278.44,-254.41L-273.75,-243.43L-263.34,-238.75ZM-192.54,-113.91L-240.62,-226.25L-260.07,-217.93L-211.98,-105.59ZM-164.99,-125.70L-145.55,-134.02L-171.71,-195.16L-175.64,-227.64L-157.93,-247.02L-136.11,-246.39L-121.15,-226.01L-91.65,-157.09L-72.20,-165.41L-101.70,-234.33L-123.73,-265.44L-161.15,-265.47L-180.16,-251.85L-188.64,-229.33L-195.57,-245.53L-213.07,-238.04ZM17.89,-148.36L50.91,-182.47L44.56,-224.08L-0.38,-329.07L-17.67,-321.68L-11.19,-306.55L-30.06,-315.46L-52.17,-312.65L-81.40,-280.13L-75.36,-231.02L-44.01,-192.75L-0.29,-191.45L15.33,-203.05L23.17,-220.29L26.64,-212.02L30.53,-183.94L11.18,-165.32L-8.98,-162.69L-22.58,-174.89L-35.09,-161.11L-16.44,-144.63ZM-43.99,-296.59L-17.75,-294.64L6.41,-266.00L11.27,-229.11L-6.26,-208.44L-32.74,-210.27L-55.51,-239.50L-60.94,-276.16ZM130.67,-412.85L126.36,-430.10L107.37,-425.84L86.71,-405.58L90.63,-374.42L92.95,-369.02L76.10,-361.81L82.48,-346.90L99.33,-354.11L141.03,-256.68L159.83,-264.72L118.12,-362.16L139.94,-371.50L133.56,-386.41L111.74,-377.07L109.25,-382.90L106.68,-399.03L117.16,-409.68ZM197.55,-419.03L165.76,-386.40L169.95,-335.52L203.87,-297.37L249.43,-297.84L281.22,-330.49L277.05,-381.36L243.13,-419.51ZM242.36,-314.36L214.57,-314.65L189.80,-343.99L185.67,-382.19L204.63,-402.50L232.44,-402.21L257.23,-372.86L261.35,-334.67ZM327.34,-452.31L344.01,-453.73L342.81,-472.64L320.70,-471.70L304.60,-458.01L299.38,-434.37L291.06,-453.82L273.56,-446.33L321.17,-335.08L341.09,-342.30L315.10,-403.01L310.62,-433.14ZM-729.96,331.08L-776.88,329.03L-809.15,288.04L-815.69,236.05L-785.62,201.05L-750.70,198.35L-724.74,219.05L-710.40,201.97L-743.07,178.38L-793.16,183.43L-837.67,231.13L-831.17,297.48L-787.66,347.98L-722.42,348.70L-684.38,315.77L-678.77,277.09L-700.87,274.82L-705.30,308.50ZM-615.29,297.09L-681.87,141.54L-701.31,149.86L-634.73,305.42ZM-628.58,147.63L-624.84,136.93L-629.53,125.94L-640.06,121.13L-650.05,125.41L-653.66,136.25L-648.97,147.22L-638.56,151.91ZM-567.76,276.75L-615.85,164.41L-635.29,172.73L-587.21,285.07ZM-540.69,265.16L-521.20,256.82L-546.07,198.71L-553.09,167.65L-535.74,144.75L-517.56,145.24L-504.21,162.61L-472.76,236.09L-453.32,227.77L-481.15,162.74L-484.72,135.19L-467.66,115.61L-447.38,117.38L-435.16,135.66L-404.65,206.94L-385.21,198.61L-418.68,120.41L-439.52,95.73L-470.64,97.05L-488.83,110.60L-496.94,134.22L-515.29,122.72L-538.09,126.04L-556.60,139.19L-564.39,161.30L-571.23,145.31L-588.73,152.80ZM-322.09,82.45L-377.12,129.00L-378.52,161.38L-356.03,181.94L-325.20,178.19L-306.76,165.67L-294.11,144.25L-288.63,157.28L-270.49,149.51L-301.48,77.03L-325.82,48.43L-364.29,51.50L-391.37,71.83L-396.69,100.04L-377.21,102.92L-374.62,81.62L-359.48,68.22L-338.20,65.66ZM-314.73,99.64L-302.57,128.09L-311.16,146.02L-328.88,161.00L-345.14,163.47L-358.17,151.64L-356.03,132.66ZM-192.33,117.84L-192.33,117.84L-201.74,102.04L-209.89,107.07L-221.29,106.34L-229.02,92.91L-256.67,28.31L-237.44,20.08L-243.82,5.18L-263.05,13.41L-279.69,-25.48L-299.14,-17.16L-282.49,21.73L-298.48,28.57L-292.10,43.48L-276.11,36.64L-248.46,101.23L-232.42,126.46L-206.30,126.28ZM-156.60,75.49L-180.70,50.52L-97.31,14.81L-99.56,6.57L-130.04,-29.08L-176.17,-29.11L-207.41,3.29L-202.68,53.93L-169.30,92.31L-124.30,92.08L-96.26,68.87L-91.40,39.38L-110.59,36.41L-114.14,60.67L-130.28,75.07ZM-186.72,34.67L-185.52,3.73L-169.13,-12.61L-143.08,-12.67L-123.85,7.76ZM9.72,29.58L61.36,7.48L109.71,-36.57L103.41,-103.07L58.37,-153.15L-8.03,-146.87L-56.86,-125.97ZM22.48,2.65L-28.47,-116.39L-0.17,-128.50L46.20,-134.24L81.73,-94.04L87.84,-42.00L51.43,-9.74ZM174.16,-66.08L150.06,-91.05L233.45,-126.76L231.20,-135.00L200.72,-170.65L154.59,-170.68L123.35,-138.28L128.08,-87.64L161.46,-49.26L206.46,-49.49L234.50,-72.70L239.36,-102.19L220.18,-105.16L216.62,-80.90L200.49,-66.50ZM144.04,-106.90L145.24,-137.84L161.63,-154.18L187.69,-154.24L206.91,-133.81ZM274.04,-124.73L260.83,-109.94L281.27,-92.60L318.61,-97.35L346.99,-118.85L350.01,-151.99L331.41,-171.30L308.33,-172.92L279.10,-168.79L262.05,-168.40L253.43,-175.33L254.94,-189.08L271.53,-200.99L291.19,-203.73L304.88,-192.67L317.94,-207.39L300.37,-222.13L265.16,-217.91L237.58,-196.69L235.39,-165.02L252.85,-148.09L276.33,-147.13L307.15,-151.66L322.99,-150.68L330.89,-141.76L327.80,-125.00L312.18,-114.21L288.62,-112.16ZM342.32,-267.92L346.06,-278.62L341.37,-289.61L330.84,-294.42L320.85,-290.15L317.24,-279.31L321.93,-268.33L332.33,-263.65ZM403.14,-138.80L355.05,-251.15L335.61,-242.82L383.69,-130.48ZM493.66,-121.94L526.68,-156.05L520.33,-197.65L475.39,-302.65L458.10,-295.25L464.58,-280.13L445.71,-289.03L423.60,-286.23L394.37,-253.70L400.41,-204.60L431.77,-166.33L475.48,-165.03L491.10,-176.62L498.94,-193.87L502.41,-185.60L506.30,-157.51L486.95,-138.89L466.79,-136.27L453.19,-148.47L440.69,-134.68L459.34,-118.20ZM431.78,-270.16L458.02,-268.22L482.18,-239.58L487.04,-202.69L469.51,-182.02L443.04,-183.85L420.26,-213.07L414.84,-249.74ZM551.24,-202.19L570.68,-210.52L544.51,-271.66L540.59,-304.13L558.30,-323.51L580.12,-322.88L595.08,-302.50L624.58,-233.58L644.02,-241.91L614.53,-310.82L592.50,-341.94L555.08,-341.96L536.06,-328.35L527.59,-305.82L520.65,-322.03L503.15,-314.54ZM-247.23,317.96L-263.16,330.78L-239.43,357.40L-200.71,355.42L-171.85,326.75L-176.73,283.46L-223.06,175.22L-243.58,184.01L-197.71,291.19L-191.96,318.33L-208.26,337.78L-232.02,336.83ZM-129.12,180.90L-160.91,213.54L-156.73,264.42L-122.80,302.57L-77.25,302.10L-45.45,269.45L-49.62,218.58L-83.54,180.43ZM-84.32,285.58L-112.11,285.29L-136.87,255.94L-141.01,217.75L-122.04,197.44L-94.23,197.73L-69.44,227.08L-65.32,265.27ZM-52.17,102.08L-71.61,110.40L-5.03,265.95L12.25,258.56L5.78,243.43L24.39,252.75L46.10,249.79L75.33,217.26L69.31,168.15L37.94,129.89L-5.78,128.59L-21.40,140.19L-28.59,157.17ZM37.90,233.75L11.69,231.81L-12.48,203.18L-17.35,166.28L0.18,145.61L26.67,147.44L49.46,176.67L54.87,213.32ZM110.65,175.26L97.44,190.05L117.87,207.39L155.22,202.64L183.60,181.14L186.62,148.00L168.02,128.69L144.93,127.07L115.71,131.20L98.66,131.60L90.04,124.67L91.55,110.91L108.14,99.00L127.80,96.26L141.49,107.32L154.55,92.60L136.98,77.86L101.77,82.08L74.19,103.30L72.00,134.98L89.46,151.91L112.94,152.86L143.75,148.34L159.60,149.31L167.50,158.23L164.40,175.00L148.79,185.79L125.23,187.83ZM271.73,150.70L276.05,139.63L271.30,128.67L260.26,124.26L249.39,128.98L245.07,140.05L249.82,151.01L260.87,155.42ZM239.08,117.46L257.92,109.40L255.37,103.44L251.54,86.46L256.52,69.06L267.56,42.84L265.20,13.19L237.38,-13.26L195.46,-9.62L167.70,16.86L167.27,51.20L186.99,51.62L186.70,23.87L203.18,7.92L226.61,5.39L244.78,23.49L246.69,43.82L239.13,62.15L231.11,86.18L236.54,111.50Z" fill="#ffffff" stroke="#000000"/>
    <path d="M-574.75,95.94L-583.73,78.34L-667.19,120.92L-734.29,-10.58L-753.97,-0.54L-677.88,148.57ZM-568.08,-48.54L-597.29,-14.20L-589.77,35.74L-553.74,71.13L-508.80,67.64L-479.60,33.29L-487.10,-16.65L-523.13,-52.05ZM-516.88,51.80L-544.33,53.37L-570.74,26.05L-577.36,-11.38L-560.00,-32.69L-532.52,-34.25L-506.10,-6.93L-499.49,30.49ZM-452.94,-107.29L-482.15,-72.96L-474.62,-23.02L-438.59,12.38L-393.66,8.88L-364.45,-25.46L-371.96,-75.40L-407.98,-110.80ZM-401.74,-6.95L-429.19,-5.38L-455.59,-32.70L-462.22,-70.13L-444.85,-91.44L-417.38,-93.01L-390.95,-65.69L-384.34,-28.27ZM-329.97,-87.69L-312.52,-96.59L-300.86,-94.19L-257.50,-63.87L-245.33,-81.54L-287.67,-109.27L-305.29,-109.96L-299.60,-126.45L-300.43,-152.95L-295.78,-158.80L-287.98,-164.47L-299.23,-180.39L-313.96,-170.94L-319.69,-156.67L-318.40,-125.37L-320.45,-112.12L-337.88,-103.23L-382.27,-190.22L-391.77,-185.37L-400.85,-180.73L-324.78,-31.61L-306.19,-41.09ZM-269.99,-217.99L-267.01,-228.80L-272.37,-239.34L-283.09,-243.38L-292.66,-238.50L-295.51,-227.56L-290.14,-217.03L-279.56,-213.10ZM-201.35,-94.59L-256.30,-202.28L-274.94,-192.77L-219.99,-85.08ZM-174.94,-108.06L-156.30,-117.57L-186.21,-176.18L-192.25,-207.98L-176.06,-228.29L-154.48,-229.12L-138.35,-210.00L-104.64,-143.94L-86.00,-153.45L-119.71,-219.51L-143.52,-248.76L-180.46,-246.29L-198.33,-231.58L-205.19,-208.78L-213.12,-224.31L-229.89,-215.75ZM4.07,-142.62L34.39,-178.49L25.35,-219.14L-26.01,-319.79L-42.58,-311.33L-35.18,-296.84L-54.40,-304.37L-76.03,-300.12L-102.72,-266.07L-93.49,-218.00L-59.98,-182.32L-16.75,-183.95L-2.10,-196.43L4.49,-213.98L8.47,-206.05L14.18,-178.58L-3.69,-158.91L-23.41,-154.97L-37.65,-166.11L-49.07,-151.67L-29.56,-136.65ZM-66.89,-284.81L-40.86,-284.64L-15.10,-257.98L-7.85,-221.89L-23.77,-200.32L-50.03,-200.36L-74.46,-227.69L-82.25,-263.52ZM97.77,-411.22L92.37,-427.96L73.91,-422.48L54.86,-401.11L60.81,-370.62L63.46,-365.44L47.30,-357.20L54.59,-342.91L70.75,-351.15L118.41,-257.75L136.42,-266.94L88.77,-360.34L109.68,-371.02L102.39,-385.31L81.47,-374.63L78.62,-380.22L75.02,-395.98L84.65,-407.18ZM163.38,-421.78L134.18,-387.44L141.70,-337.50L177.73,-302.10L222.66,-305.60L251.87,-339.95L244.37,-389.89L208.34,-425.29ZM214.58,-321.43L187.14,-319.87L160.73,-347.19L154.11,-384.61L171.47,-405.93L198.94,-407.49L225.37,-380.17L231.98,-342.75ZM289.28,-463.28L305.64,-465.78L303.20,-484.38L281.43,-481.97L266.45,-467.38L262.88,-443.70L253.37,-462.34L236.59,-453.78L291.00,-347.14L310.18,-355.60L280.48,-413.80L274.05,-443.24ZM-702.20,380.48L-748.64,381.58L-783.23,343.26L-793.15,292.38L-765.80,255.83L-731.52,250.84L-704.50,269.55L-691.49,251.73L-725.31,230.61L-774.42,238.94L-815.18,288.99L-804.34,354.06L-758.03,401.00L-693.58,397.37L-658.22,362.33L-655.26,323.77L-677.23,323.00L-679.36,356.55ZM-591.27,339.29L-667.35,190.18L-685.99,199.69L-609.91,348.80ZM-614.34,192.64L-611.37,181.83L-616.72,171.29L-627.44,167.24L-637.02,172.13L-639.86,183.07L-634.50,193.59L-623.92,197.52ZM-545.71,316.04L-600.66,208.35L-619.30,217.86L-564.35,325.55ZM-519.75,302.80L-501.07,293.26L-529.50,237.55L-538.49,207.37L-522.90,183.60L-504.91,182.88L-490.58,199.14L-454.64,269.57L-436.00,260.06L-467.81,197.73L-473.17,170.77L-457.63,150.30L-437.49,150.70L-424.21,167.93L-389.35,236.25L-370.71,226.74L-408.96,151.78L-431.18,128.80L-461.81,132.19L-478.86,146.77L-485.29,170.63L-504.18,160.50L-526.46,165.30L-543.86,179.50L-550.07,201.85L-557.89,186.52L-574.66,195.08ZM-316.15,107.88L-367.37,157.49L-366.59,189.54L-343.02,208.34L-312.84,202.58L-295.47,188.99L-284.41,167.01L-278.14,179.51L-260.74,170.63L-296.16,101.15L-322.10,74.54L-359.87,80.13L-385.25,102.00L-388.62,130.21L-369.20,131.76L-368.06,110.55L-354.00,96.32L-333.17,92.37ZM-307.74,124.35L-293.84,151.62L-301.13,169.89L-317.61,185.86L-333.50,189.39L-347.15,178.58L-346.30,159.70ZM-185.70,134.16L-185.70,134.16L-196.04,119.19L-203.75,124.70L-215.06,124.73L-223.58,111.99L-255.18,50.07L-236.74,40.67L-244.03,26.38L-262.47,35.78L-281.49,-1.49L-300.13,8.02L-281.11,45.29L-296.43,53.11L-289.14,67.40L-273.81,59.58L-242.22,121.51L-224.70,145.34L-198.93,143.42ZM-153.26,89.97L-178.71,66.93L-98.78,26.13L-101.54,18.14L-134.01,-15.01L-179.55,-11.98L-208.22,22.09L-200.17,71.76L-164.67,107.43L-120.27,104.20L-94.13,79.41L-91.30,49.98L-110.44,48.33L-112.33,72.51L-127.30,87.81ZM-185.70,51.69L-186.58,21.07L-171.49,3.85L-145.78,2.05L-125.44,20.94ZM7.87,33.57L57.36,8.32L102.16,-38.39L91.50,-103.62L43.71,-150.04L-21.42,-139.42L-68.22,-115.54ZM18.66,6.14L-39.56,-107.97L-12.43,-121.82L32.96,-130.56L70.71,-93.25L80.20,-42.29L46.41,-8.02ZM163.81,-71.82L138.36,-94.85L218.29,-135.66L215.52,-143.64L183.06,-176.80L137.52,-173.76L108.85,-139.70L116.89,-90.02L152.39,-54.36L196.80,-57.59L222.93,-82.37L225.76,-111.80L206.63,-113.46L204.74,-89.27L189.77,-73.98ZM131.36,-110.10L130.48,-140.72L145.57,-157.94L171.29,-159.74L191.63,-140.85ZM258.50,-136.36L246.44,-120.88L267.77,-105.13L304.32,-112.30L330.89,-135.42L331.67,-168.33L312.03,-186.16L289.13,-186.22L260.56,-180.20L243.75,-178.67L234.78,-184.93L235.36,-198.61L250.94,-211.48L270.17,-215.49L284.41,-205.48L296.32,-220.88L278.00,-234.27L243.52,-227.75L217.71,-204.97L217.66,-173.55L236.02,-158.01L259.26,-158.63L289.38,-165.15L305.09,-165.24L313.48,-156.96L311.54,-140.21L296.85,-128.52L273.72,-124.93ZM316.35,-282.26L319.33,-293.07L313.97,-303.61L303.25,-307.65L293.68,-302.77L290.83,-291.83L296.20,-281.30L306.78,-277.37ZM384.99,-158.86L330.04,-266.55L311.40,-257.04L366.35,-149.35ZM475.47,-148.24L505.79,-184.12L496.75,-224.76L445.39,-325.41L428.82,-316.95L436.22,-302.46L417.00,-309.99L395.37,-305.74L368.68,-271.69L377.91,-223.62L411.42,-187.94L454.65,-189.57L469.30,-202.05L475.89,-219.60L479.87,-211.67L485.58,-184.20L467.72,-164.53L447.99,-160.59L433.76,-171.73L422.33,-157.29L441.84,-142.27ZM404.52,-290.43L430.54,-290.26L456.30,-263.60L463.56,-227.51L447.63,-205.94L421.37,-205.98L396.95,-233.31L389.15,-269.14ZM526.96,-231.30L545.60,-240.81L515.69,-299.42L509.66,-331.21L525.84,-351.53L547.42,-352.36L563.55,-333.24L597.26,-267.17L615.90,-276.68L582.19,-342.75L558.38,-371.99L521.44,-369.52L503.58,-354.81L496.71,-332.02L488.78,-347.55L472.01,-338.99ZM-226.56,335.36L-241.42,349.08L-216.23,373.77L-178.15,369.24L-151.57,339.01L-159.27,296.61L-212.21,192.85L-231.88,202.89L-179.46,305.63L-171.98,332.04L-186.77,352.33L-210.29,352.98ZM-119.10,192.20L-148.31,226.53L-140.79,276.48L-104.76,311.87L-59.82,308.37L-30.62,274.03L-38.12,224.09L-74.15,188.69ZM-67.90,292.54L-95.35,294.11L-121.76,266.79L-128.38,229.36L-111.02,208.05L-83.54,206.48L-57.12,233.80L-50.51,271.22ZM-48.39,109.26L-67.03,118.77L9.05,267.88L25.62,259.43L18.22,244.93L37.21,252.89L58.44,248.52L85.14,214.46L75.92,166.39L42.40,130.71L-0.84,132.34L-15.48,144.83L-21.45,162.07ZM49.29,233.23L23.28,233.06L-2.49,206.42L-9.74,170.31L6.18,148.74L32.45,148.78L56.89,176.12L64.68,211.94ZM117.20,170.65L105.14,186.13L126.47,201.88L163.02,194.71L189.60,171.59L190.38,138.68L170.73,120.86L147.83,120.79L119.26,126.82L102.45,128.35L93.49,122.08L94.06,108.40L109.64,95.54L128.87,91.53L143.12,101.53L155.02,86.13L136.70,72.75L102.23,79.26L76.41,102.04L76.36,133.46L94.73,149.01L117.96,148.39L148.08,141.87L163.79,141.77L172.18,150.05L170.25,166.81L155.55,178.50L132.43,182.08ZM274.57,135.68L278.10,124.45L272.68,113.96L261.48,110.34L251.07,115.72L247.55,126.94L252.96,137.44L264.16,141.05ZM240.13,105.03L258.18,95.82L255.27,90.11L250.36,73.61L254.12,56.09L263.26,29.48L258.96,0.37L229.74,-23.88L188.59,-17.50L162.96,10.49L164.82,44.42L184.32,43.51L182.18,16.14L197.39,-0.70L220.35,-4.75L239.49,11.90L242.73,31.84L236.49,50.44L230.17,74.69L237.22,99.33Z" fill="#ffffff" stroke="#000000"/>
    <path d="M-564.20,138.19L-574.24,121.41L-653.78,169.01L-728.77,43.68L-747.52,54.90L-662.49,197.00ZM-567.25,-4.86L-593.80,30.98L-583.04,79.77L-545.12,112.31L-501.00,105.86L-474.46,70.02L-485.20,21.22L-523.11,-11.31ZM-510.03,90.77L-537.02,94.15L-564.90,68.94L-573.93,32.44L-558.21,10.25L-531.20,6.87L-503.30,32.08L-494.28,68.57ZM-457.52,-70.52L-484.06,-34.68L-473.31,14.11L-435.39,46.64L-391.27,40.20L-364.73,4.35L-375.46,-44.44L-413.38,-76.98ZM-400.30,25.11L-427.29,28.48L-455.17,3.28L-464.20,-33.22L-448.48,-55.41L-421.47,-58.79L-393.57,-33.58L-384.55,2.91ZM-334.84,-59.36L-318.22,-69.31L-306.54,-67.72L-261.73,-40.68L-250.90,-58.93L-294.53,-83.48L-311.96,-82.99L-307.45,-99.64L-310.04,-125.74L-305.83,-131.83L-298.52,-137.95L-310.68,-152.90L-324.58,-142.60L-329.29,-128.14L-325.93,-97.33L-327.07,-84.11L-343.68,-74.17L-393.29,-157.08L-402.35,-151.66L-411.00,-146.47L-325.99,-4.35L-308.27,-14.95ZM-284.32,-191.96L-282.11,-202.83L-288.10,-212.88L-298.94,-216.15L-308.07,-210.70L-310.15,-199.71L-304.15,-189.68L-293.45,-186.50ZM-208.36,-74.74L-269.77,-177.37L-287.53,-166.74L-226.12,-64.11ZM-183.19,-89.80L-165.42,-100.43L-198.85,-156.28L-206.92,-187.26L-192.30,-208.39L-171.05,-210.65L-153.86,-192.85L-116.19,-129.89L-98.42,-140.52L-136.10,-203.48L-161.55,-230.76L-197.84,-225.86L-214.50,-210.15L-219.75,-187.19L-228.61,-202.00L-244.60,-192.43ZM-8.81,-135.84L18.73,-173.26L7.10,-212.78L-50.30,-308.70L-66.09,-299.25L-57.82,-285.43L-77.29,-291.58L-98.36,-285.95L-122.43,-250.57L-110.12,-203.74L-74.67,-170.75L-32.11,-175.24L-18.48,-188.53L-13.14,-206.29L-8.69,-198.73L-1.22,-172.00L-17.55,-151.40L-36.75,-146.19L-51.54,-156.24L-61.86,-141.23L-41.60,-127.70ZM-88.31,-271.45L-62.61,-273.02L-35.41,-248.42L-25.85,-213.28L-40.13,-190.93L-66.05,-189.22L-91.98,-214.57L-102.06,-249.41ZM65.78,-407.18L59.34,-423.35L41.48,-416.71L24.11,-394.35L32.01,-364.65L34.96,-359.71L19.57,-350.50L27.72,-336.88L43.11,-346.10L96.37,-257.08L113.55,-267.36L60.28,-356.37L80.22,-368.30L72.07,-381.92L52.13,-369.99L48.95,-375.32L44.34,-390.62L53.10,-402.33ZM129.84,-421.98L103.30,-386.14L114.05,-337.35L151.97,-304.82L196.09,-311.26L222.63,-347.11L211.89,-395.90L173.98,-428.44ZM187.06,-326.35L160.07,-322.98L132.19,-348.18L123.16,-384.68L138.88,-406.87L165.89,-410.25L193.79,-385.04L202.81,-348.55ZM251.33,-471.33L267.31,-474.89L263.67,-493.08L242.34,-489.26L228.53,-473.86L226.58,-450.25L215.95,-468.01L199.96,-458.44L260.77,-356.82L279.13,-366.44L245.95,-421.90L237.64,-450.53ZM-671.04,427.52L-716.81,431.70L-753.50,396.19L-766.68,346.63L-742.12,308.73L-708.61,301.52L-680.71,318.18L-669.05,299.73L-703.84,281.15L-751.75,292.63L-788.65,344.75L-773.62,408.25L-724.78,451.50L-661.41,443.62L-628.85,406.67L-628.49,368.42L-650.22,369.13L-650.09,402.38ZM-564.30,379.47L-649.33,237.37L-667.09,248.00L-582.06,390.10ZM-596.84,236.27L-594.63,225.40L-600.61,215.36L-611.46,212.08L-620.59,217.54L-622.67,228.52L-616.67,238.55L-605.97,241.73ZM-520.88,353.49L-582.29,250.86L-600.05,261.49L-538.64,364.12ZM-496.14,338.69L-478.34,328.04L-510.11,274.95L-521.00,245.75L-507.19,221.26L-489.48,219.35L-474.26,234.44L-434.09,301.56L-416.33,290.93L-451.88,231.53L-458.96,205.28L-444.99,184.04L-425.08,183.10L-410.83,199.21L-371.87,264.33L-354.10,253.70L-396.85,182.25L-420.32,161.06L-450.32,166.44L-466.18,181.97L-470.94,205.94L-490.25,197.21L-511.92,203.43L-528.15,218.61L-532.79,241.08L-541.53,226.47L-557.51,236.04ZM-308.17,132.74L-355.42,185.13L-352.52,216.71L-328.00,233.69L-298.59,225.99L-282.35,211.43L-272.91,188.99L-265.88,200.91L-249.30,190.99L-288.89,124.77L-316.27,100.23L-353.17,108.27L-376.76,131.55L-378.21,159.61L-358.94,159.84L-359.23,138.84L-346.30,123.86L-326.00,118.57ZM-298.77,148.44L-283.24,174.43L-289.21,192.95L-304.42,209.81L-319.87,214.35L-334.06,204.59L-334.48,185.90ZM-177.67,149.99L-177.67,149.99L-188.87,135.91L-196.12,141.86L-207.27,142.64L-216.53,130.64L-251.84,71.63L-234.28,61.12L-242.42,47.50L-259.99,58.01L-281.25,22.48L-299.01,33.11L-277.75,68.64L-292.36,77.38L-284.21,90.99L-269.60,82.26L-234.29,141.27L-215.41,163.62L-190.11,160.01ZM-148.59,104.21L-175.24,83.17L-99.07,37.57L-102.34,29.88L-136.59,-0.69L-181.33,5.34L-207.36,40.88L-196.11,89.37L-158.70,122.21L-115.08,116.06L-90.94,89.86L-90.11,60.62L-109.10,60.26L-109.36,84.26L-123.11,100.35ZM-183.16,68.59L-186.07,38.43L-172.33,20.43L-147.07,16.94L-125.73,34.23ZM6.68,37.82L53.85,9.59L94.95,-39.49L80.09,-103.16L29.83,-145.80L-33.75,-130.98L-78.35,-104.29ZM15.51,10.02L-49.56,-98.73L-23.71,-114.20L20.51,-125.86L60.26,-91.55L73.02,-41.88L41.96,-5.81ZM153.57,-76.59L126.92,-97.63L203.09,-143.24L199.83,-150.93L165.58,-181.50L120.84,-175.46L94.80,-139.93L106.05,-91.44L143.47,-58.60L187.09,-64.75L211.23,-90.95L212.06,-120.19L193.06,-120.55L192.81,-96.55L179.05,-80.46ZM119.00,-112.22L116.09,-142.38L129.84,-160.38L155.10,-163.87L176.43,-146.58ZM242.73,-146.61L231.86,-130.53L253.96,-116.40L289.56,-125.92L314.25,-150.50L312.83,-183.04L292.25,-199.32L269.64,-197.86L241.85,-190.01L225.36,-187.38L216.09,-192.97L215.74,-206.51L230.26,-220.24L248.98,-225.48L263.70,-216.56L274.43,-232.55L255.45,-244.54L221.86,-235.82L197.90,-211.61L199.94,-180.60L219.11,-166.47L242.00,-168.64L271.30,-177.08L286.79,-178.22L295.63,-170.60L294.83,-153.94L281.11,-141.42L258.52,-136.34ZM290.12,-294.46L292.33,-305.33L286.34,-315.38L275.49,-318.66L266.37,-313.20L264.29,-302.21L270.29,-292.18L280.99,-289.01ZM366.08,-177.24L304.67,-279.87L286.91,-269.24L348.32,-166.61ZM456.09,-172.79L483.63,-210.22L472.00,-249.73L414.60,-345.65L398.81,-336.20L407.08,-322.39L387.61,-328.54L366.54,-322.91L342.47,-287.52L354.78,-240.69L390.23,-207.70L432.79,-212.19L446.42,-225.49L451.76,-243.25L456.21,-235.69L463.68,-208.96L447.35,-188.35L428.15,-183.15L413.36,-193.20L403.04,-178.18L423.30,-164.66ZM376.59,-308.41L402.29,-309.97L429.49,-285.37L439.05,-250.23L424.77,-227.89L398.85,-226.18L372.92,-251.52L362.84,-286.37ZM501.38,-258.20L519.14,-268.83L485.72,-324.68L477.64,-355.66L492.27,-376.79L513.51,-379.05L530.71,-361.25L568.38,-298.29L586.14,-308.92L548.47,-371.88L523.02,-399.16L486.72,-394.26L470.07,-378.55L464.81,-355.59L455.95,-370.40L439.97,-360.83ZM-204.59,351.30L-218.35,365.83L-191.84,388.52L-154.55,381.51L-130.33,349.90L-140.75,308.57L-199.92,209.69L-218.67,220.91L-160.08,318.82L-150.94,344.38L-164.19,365.40L-187.36,367.60ZM-108.07,202.84L-134.61,238.67L-123.86,287.46L-85.94,320.00L-41.82,313.56L-15.28,277.71L-26.01,228.92L-63.93,196.38ZM-50.85,298.46L-77.84,301.84L-105.72,276.63L-114.75,240.14L-99.03,217.94L-72.02,214.57L-44.12,239.77L-35.10,276.27ZM-43.80,116.27L-61.57,126.90L23.46,269.00L39.25,259.55L30.99,245.74L50.26,252.33L70.92,246.60L95.00,211.21L82.70,164.37L47.24,131.39L4.67,135.88L-8.95,149.18L-13.69,166.60ZM60.87,232.12L35.19,233.68L7.98,209.10L-1.59,173.95L12.69,151.60L38.62,149.89L64.56,175.24L74.64,210.08ZM123.73,165.82L112.86,181.91L134.96,196.03L170.56,186.52L195.25,161.93L193.82,129.40L173.24,113.11L150.64,114.58L122.84,122.43L106.35,125.06L97.09,119.47L96.74,105.93L111.26,92.19L129.97,86.95L144.70,95.88L155.43,79.89L136.45,67.90L102.86,76.62L78.90,100.83L80.94,131.84L100.11,145.96L123.00,143.80L152.29,135.36L167.79,134.22L176.62,141.83L175.83,158.50L162.10,171.02L139.52,176.10ZM276.72,120.82L279.45,109.51L273.40,99.51L262.12,96.69L252.20,102.69L249.47,114.00L255.51,124.00L266.80,126.82ZM240.68,92.87L257.89,82.58L254.64,77.14L248.69,61.17L251.23,43.64L258.49,16.76L252.30,-11.69L221.84,-33.68L181.66,-24.63L158.22,4.70L162.32,38.06L181.50,35.87L177.57,9.00L191.46,-8.64L213.85,-14.17L233.85,0.99L238.37,20.45L233.46,39.23L228.84,63.59L237.43,87.43Z" fill="#ffffff" stroke="#000000"/>
    <path d="M-550.53,179.32L-561.55,163.43L-636.88,215.70L-719.23,97.02L-736.99,109.34L-643.61,243.91ZM-563.07,38.35L-586.87,75.49L-573.01,122.92L-533.42,152.51L-490.31,143.21L-466.51,106.06L-480.35,58.63L-519.94,29.04ZM-500.23,128.92L-526.64,134.04L-555.83,111.03L-567.17,75.61L-553.14,52.66L-526.71,47.53L-497.49,70.54L-486.16,105.96ZM-459.15,-33.76L-482.95,3.38L-469.09,50.81L-429.50,80.39L-386.39,71.09L-362.58,33.95L-376.43,-13.49L-416.01,-43.07ZM-396.30,56.80L-422.71,61.93L-451.91,38.91L-463.25,3.50L-449.22,-19.45L-422.79,-24.58L-393.57,-1.57L-382.24,33.85ZM-337.34,-30.92L-321.59,-41.85L-309.96,-41.05L-263.94,-17.35L-254.46,-36.09L-299.16,-57.41L-316.33,-55.76L-312.99,-72.50L-317.28,-98.08L-313.53,-104.37L-306.72,-110.89L-319.72,-124.84L-332.76,-113.75L-336.44,-99.16L-331.07,-68.98L-331.32,-55.86L-347.05,-44.95L-401.53,-123.46L-410.10,-117.51L-418.30,-111.81L-324.93,22.78L-308.15,11.13ZM-296.31,-165.15L-294.85,-176.02L-301.43,-185.54L-312.35,-188.05L-320.99,-182.05L-322.31,-171.07L-315.73,-161.57L-304.95,-159.15ZM-213.53,-54.52L-280.97,-151.72L-297.80,-140.04L-230.35,-42.85ZM-189.70,-71.06L-172.88,-82.74L-209.58,-135.63L-219.61,-165.67L-206.59,-187.49L-185.77,-191.14L-167.62,-174.72L-126.25,-115.09L-109.42,-126.77L-150.80,-186.39L-177.73,-211.61L-213.23,-204.36L-228.61,-187.75L-232.27,-164.74L-242.00,-178.76L-257.14,-168.26ZM-20.67,-128.11L4.01,-166.88L-10.10,-205.10L-73.13,-295.94L-88.09,-285.56L-79.01,-272.48L-98.63,-277.26L-119.05,-270.30L-140.45,-233.77L-125.18,-188.37L-88.00,-158.18L-46.29,-165.44L-33.73,-179.48L-29.65,-197.35L-24.74,-190.19L-15.60,-164.31L-30.33,-142.89L-48.94,-136.47L-64.21,-145.40L-73.38,-129.90L-52.49,-117.90ZM-108.17,-256.65L-82.91,-259.91L-54.43,-237.44L-42.65,-203.40L-55.25,-180.40L-80.72,-176.98L-108.00,-200.27L-120.27,-233.98ZM34.87,-400.87L27.43,-416.39L10.25,-408.66L-5.41,-385.43L4.37,-356.64L7.61,-351.97L-6.97,-341.85L1.98,-328.96L16.56,-339.07L75.05,-254.78L91.32,-266.06L32.82,-350.36L51.70,-363.46L42.75,-376.35L23.87,-363.25L20.37,-368.30L14.80,-383.10L22.67,-395.23ZM97.09,-419.74L73.29,-382.60L87.15,-335.17L126.74,-305.59L169.85,-314.89L193.65,-352.03L179.81,-399.47L140.23,-429.05ZM159.94,-329.18L133.53,-324.05L104.33,-347.07L92.99,-382.48L107.02,-405.43L133.45,-410.56L162.67,-387.55L174.00,-352.13ZM213.71,-476.53L229.24,-481.11L224.43,-498.82L203.64,-493.63L191.03,-477.51L190.68,-454.08L179.01,-470.90L163.87,-460.40L230.65,-364.16L248.13,-374.88L211.69,-427.40L201.58,-455.10ZM-636.69,471.97L-681.58,479.15L-720.15,446.55L-736.46,398.51L-714.75,359.47L-682.16,350.13L-653.51,364.72L-643.23,345.73L-678.81,329.70L-725.33,344.23L-758.27,398.12L-739.20,459.79L-688.12,499.22L-626.11,487.22L-596.44,448.59L-598.64,410.81L-620.03,412.96L-617.69,445.77ZM-534.54,417.45L-627.93,282.87L-644.75,294.54L-551.37,429.12ZM-576.20,278.29L-574.74,267.41L-581.32,257.90L-592.25,255.39L-600.89,261.38L-602.20,272.36L-595.62,281.86L-584.84,284.28ZM-493.42,388.91L-560.87,291.72L-577.69,303.39L-510.25,400.58ZM-470.00,372.66L-453.14,360.96L-488.03,310.68L-500.72,282.59L-488.72,257.50L-471.38,254.44L-455.35,268.31L-411.24,331.88L-394.42,320.21L-433.45,263.95L-442.19,238.52L-429.82,216.63L-410.24,214.37L-395.10,229.32L-352.31,290.99L-335.49,279.32L-382.44,211.66L-407.00,192.31L-436.25,199.61L-450.87,216.00L-453.97,239.97L-473.61,232.64L-494.59,240.22L-509.59,256.28L-512.67,278.77L-522.27,264.93L-537.41,275.44ZM-298.21,156.89L-341.36,211.73L-336.39,242.71L-311.06,257.83L-282.55,248.28L-267.49,232.82L-259.67,210.05L-251.94,221.34L-236.24,210.45L-279.72,147.73L-308.37,125.34L-344.25,135.73L-365.99,160.28L-365.54,188.07L-346.51,187.02L-348.20,166.30L-336.44,150.66L-316.76,144.09ZM-287.90,171.76L-270.83,196.37L-275.50,215.04L-289.38,232.70L-304.32,238.20L-318.98,229.52L-320.64,211.10ZM-168.27,165.22L-168.27,165.21L-180.27,152.06L-187.02,158.42L-197.98,159.94L-207.92,148.71L-246.70,92.82L-230.06,81.28L-239.01,68.38L-255.65,79.92L-278.99,46.28L-295.81,57.95L-272.47,91.60L-286.30,101.19L-277.35,114.09L-263.52,104.49L-224.74,160.38L-204.62,181.18L-179.88,175.94ZM-142.63,118.10L-170.33,99.11L-98.20,49.03L-101.93,41.66L-137.77,13.78L-181.53,22.71L-204.85,59.51L-190.51,106.62L-151.40,136.53L-108.77,127.56L-86.69,100.09L-87.81,71.18L-106.59,72.09L-105.24,95.79L-117.74,112.59ZM-179.12,85.25L-184.00,55.68L-171.64,37.00L-146.94,31.87L-124.73,47.51ZM6.18,42.23L50.85,11.23L88.15,-39.95L69.24,-101.79L16.79,-140.52L-44.96,-121.66L-87.20,-92.34ZM13.04,14.21L-58.42,-88.78L-33.93,-105.77L8.93,-120.22L50.44,-89.00L66.35,-40.84L38.09,-3.17ZM143.53,-80.47L115.82,-99.45L187.96,-149.53L184.22,-156.91L148.39,-184.79L104.63,-175.86L81.31,-139.06L95.64,-91.95L134.75,-62.04L177.39,-71.01L199.47,-98.48L198.34,-127.39L179.57,-126.47L180.92,-102.77L168.42,-85.97ZM107.03,-113.32L102.15,-142.89L114.52,-161.57L139.22,-166.70L161.43,-151.06ZM226.85,-155.51L217.20,-138.91L239.95,-126.44L274.45,-138.20L297.17,-164.11L293.60,-196.12L272.21,-210.82L249.99,-207.87L223.09,-198.28L206.99,-194.58L197.47,-199.48L196.23,-212.82L209.64,-227.34L227.76,-233.76L242.89,-225.93L252.41,-242.43L232.88,-253.00L200.31,-242.15L178.28,-216.66L182.36,-186.19L202.22,-173.53L224.66,-177.19L253.01,-187.47L268.23,-189.63L277.45,-182.70L277.78,-166.21L265.07,-152.94L243.12,-146.42ZM263.76,-304.57L265.23,-315.45L258.65,-324.96L247.72,-327.47L239.08,-321.48L237.76,-310.50L244.35,-301.00L255.12,-298.58ZM346.54,-193.95L279.10,-291.14L262.28,-279.47L329.72,-182.28ZM435.67,-195.56L460.35,-234.33L446.24,-272.55L383.21,-363.38L368.26,-353.01L377.33,-339.92L357.71,-344.70L337.29,-337.74L315.89,-301.21L331.16,-255.82L368.34,-225.62L410.05,-232.89L422.61,-246.92L426.70,-264.80L431.60,-257.63L440.74,-231.75L426.01,-210.33L407.40,-203.92L392.13,-212.85L382.96,-197.34L403.85,-185.34ZM348.17,-324.09L373.43,-327.35L401.91,-304.89L413.69,-270.84L401.09,-247.84L375.62,-244.43L348.34,-267.71L336.07,-301.43ZM474.67,-282.86L491.49,-294.53L454.79,-347.43L444.76,-377.46L457.78,-399.29L478.60,-402.93L496.75,-386.51L538.12,-326.89L554.95,-338.56L513.57,-398.19L486.64,-423.41L451.14,-416.16L435.76,-399.55L432.10,-376.54L422.37,-390.56L407.23,-380.05ZM-181.43,365.67L-194.04,380.93L-166.37,401.56L-130.04,392.16L-108.24,359.35L-121.28,319.25L-186.26,225.61L-204.01,237.93L-139.67,330.66L-128.94,355.28L-140.62,376.90L-163.34,380.62ZM-96.07,212.73L-119.87,249.87L-106.01,297.30L-66.42,326.88L-23.31,317.58L0.49,280.44L-13.35,233.00L-52.94,203.42ZM-33.23,303.29L-59.64,308.42L-88.83,285.40L-100.18,249.99L-86.14,227.04L-59.71,221.91L-30.49,244.92L-19.17,280.34ZM-38.41,123.02L-55.24,134.69L38.15,269.27L53.10,258.89L44.02,245.81L63.48,251.03L83.49,243.99L104.89,207.46L89.64,162.06L52.44,131.87L10.73,139.14L-1.83,153.18L-5.34,170.68ZM72.61,230.37L47.36,233.63L18.88,211.18L7.09,177.13L19.69,154.12L45.17,150.71L72.46,174.00L84.73,207.70ZM130.23,160.76L120.57,177.36L143.32,189.83L177.82,178.07L200.54,152.16L196.97,120.14L175.58,105.45L153.37,108.39L126.46,117.99L110.36,121.69L100.84,116.79L99.60,103.45L113.01,88.93L131.13,82.51L146.26,90.33L155.78,73.84L136.25,63.27L103.69,74.12L81.65,99.61L85.73,130.07L105.59,142.74L128.04,139.08L156.38,128.79L171.60,126.63L180.83,133.56L181.15,150.06L168.44,163.33L146.49,169.85ZM278.21,106.16L280.15,94.81L273.52,85.35L262.19,83.31L252.80,89.89L250.86,101.24L257.49,110.70L268.82,112.74ZM240.79,80.97L257.08,69.67L253.51,64.52L246.57,49.16L247.91,31.68L253.28,4.68L245.28,-22.99L213.76,-42.66L174.71,-31.06L153.53,-0.55L159.80,32.11L178.58,28.66L172.91,2.41L185.44,-15.92L207.17,-22.88L227.92,-9.25L233.68,9.66L230.08,28.52L227.14,52.87L237.21,75.82Z" fill="#ffffff" stroke="#000000"/>
    <path d="M-533.83,219.10L-545.77,204.16L-616.61,260.75L-705.79,149.12L-722.49,162.46L-621.38,289.03ZM-555.59,80.83L-576.61,119.06L-559.77,164.95L-518.74,191.50L-476.81,179.45L-455.80,141.21L-472.62,95.33L-513.65,68.77ZM-487.55,166.01L-513.27,172.83L-543.61,152.06L-557.17,117.87L-544.84,94.29L-519.11,87.47L-488.74,108.23L-475.20,142.42ZM-457.85,2.75L-478.87,40.98L-462.03,86.87L-420.99,113.42L-379.07,101.37L-358.06,63.13L-374.88,17.25L-415.91,-9.31ZM-389.81,87.93L-415.53,94.75L-445.87,73.98L-459.42,39.79L-447.10,16.21L-421.36,9.39L-391.00,30.15L-377.46,64.34ZM-337.46,-2.56L-322.65,-14.39L-311.13,-14.38L-264.13,5.94L-256.03,-13.18L-301.56,-31.24L-318.39,-28.47L-316.21,-45.21L-322.14,-70.17L-318.87,-76.62L-312.58,-83.52L-326.34,-96.41L-338.46,-84.60L-341.12,-69.96L-333.82,-40.53L-333.19,-27.58L-347.98,-15.76L-406.97,-89.60L-415.03,-83.15L-422.74,-76.99L-321.65,49.60L-305.87,36.99ZM-305.92,-137.75L-305.20,-148.57L-312.33,-157.52L-323.28,-159.27L-331.41,-152.78L-331.98,-141.86L-324.85,-132.92L-314.05,-131.25ZM-216.87,-34.10L-289.90,-125.51L-305.72,-112.87L-232.69,-21.46ZM-194.45,-52.01L-178.63,-64.65L-218.37,-114.40L-230.28,-143.36L-218.88,-165.77L-198.58,-170.75L-179.57,-155.76L-134.78,-99.68L-118.95,-112.32L-163.75,-168.40L-192.01,-191.49L-226.55,-181.98L-240.63,-164.56L-242.71,-141.61L-253.24,-154.80L-267.48,-143.42ZM-31.46,-119.56L-9.69,-159.46L-26.16,-196.24L-94.41,-281.67L-108.48,-270.44L-98.65,-258.13L-118.33,-261.54L-138.01,-253.31L-156.70,-215.84L-138.60,-172.06L-99.90,-144.74L-59.23,-154.69L-47.77,-169.37L-44.93,-187.29L-39.62,-180.54L-28.87,-155.61L-41.98,-133.50L-59.91,-125.93L-75.58,-133.72L-83.60,-117.81L-62.19,-107.36ZM-126.37,-240.57L-101.66,-245.47L-72.06,-225.20L-58.17,-192.39L-69.07,-168.85L-93.97,-163.79L-122.44,-184.95L-136.80,-217.40ZM5.17,-392.41L-3.21,-407.23L-19.65,-398.45L-33.55,-374.49L-21.98,-346.73L-18.47,-342.34L-32.18,-331.38L-22.49,-319.25L-8.78,-330.21L54.56,-250.92L69.85,-263.14L6.52,-342.43L24.27,-356.61L14.58,-368.74L-3.17,-354.56L-6.97,-359.30L-13.45,-373.53L-6.49,-386.03ZM65.32,-415.17L44.30,-376.94L61.14,-331.06L102.17,-304.50L144.09,-316.55L165.11,-354.79L148.29,-400.68L107.26,-427.23ZM133.36,-329.99L107.64,-323.17L77.30,-343.94L63.74,-378.14L76.06,-401.71L101.80,-408.54L132.17,-387.78L145.70,-353.58ZM176.60,-478.98L191.62,-484.54L185.70,-501.69L165.53,-495.18L154.16,-478.44L155.37,-455.29L142.74,-471.11L128.50,-459.74L200.81,-369.22L217.34,-380.96L177.88,-430.36L166.06,-457.02ZM-599.36,513.62L-643.17,523.69L-683.41,494.09L-702.70,447.78L-683.88,407.81L-652.34,396.42L-623.10,408.90L-614.23,389.48L-650.40,376.04L-695.33,393.47L-724.25,448.84L-701.33,508.42L-648.29,543.93L-587.90,527.96L-561.19,487.86L-565.88,450.73L-586.85,454.28L-582.35,486.49ZM-502.20,453.01L-603.31,326.44L-619.13,339.07L-518.02,465.65ZM-552.57,318.47L-551.85,307.64L-558.98,298.69L-569.93,296.94L-578.06,303.43L-578.63,314.35L-571.50,323.29L-560.70,324.96ZM-463.52,422.11L-536.55,330.70L-552.37,343.34L-479.34,434.75ZM-441.49,404.51L-425.63,391.85L-463.41,344.56L-477.80,317.69L-467.64,292.13L-450.73,287.95L-433.98,300.57L-386.22,360.36L-370.40,347.72L-412.67,294.81L-422.99,270.30L-412.23,247.87L-393.07,244.34L-377.13,258.09L-330.80,316.09L-314.97,303.45L-365.81,239.81L-391.34,222.35L-419.72,231.51L-433.05,248.65L-434.51,272.52L-454.38,266.58L-474.57,275.47L-488.30,292.31L-489.85,314.71L-500.24,301.70L-514.48,313.07ZM-286.35,180.15L-325.27,237.15L-318.30,267.38L-292.30,280.62L-264.80,269.29L-250.98,253.04L-244.77,230.05L-236.39,240.68L-221.63,228.88L-268.71,169.89L-298.47,149.70L-333.19,162.35L-353.00,188.02L-350.71,215.41L-332.00,213.10L-335.04,192.78L-324.48,176.55L-305.50,168.76ZM-275.18,194.14L-256.70,217.29L-260.06,236.03L-272.58,254.37L-286.96,260.80L-302.00,253.21L-304.87,235.14ZM-157.57,179.72L-157.57,179.72L-170.29,167.54L-176.53,174.26L-187.24,176.49L-197.79,166.07L-239.78,113.50L-224.14,101.01L-233.83,88.88L-249.47,101.37L-274.75,69.73L-290.57,82.37L-265.29,114.01L-278.30,124.41L-268.61,136.54L-255.60,126.14L-213.61,178.71L-192.37,197.90L-168.32,191.07ZM-135.41,131.52L-164.01,114.63L-96.17,60.41L-100.34,53.38L-137.56,28.25L-180.14,39.98L-200.71,77.85L-183.42,123.38L-142.84,150.29L-101.36,138.60L-81.41,110.02L-84.44,81.57L-102.91,83.72L-100.00,107.02L-111.22,124.43ZM-173.61,101.53L-180.39,72.68L-169.43,53.42L-145.41,46.71L-122.45,60.67ZM6.38,46.74L48.39,13.18L81.79,-39.81L59.01,-99.57L4.68,-134.30L-55.00,-111.57L-94.73,-79.83ZM11.28,18.63L-66.09,-78.23L-43.06,-96.63L-1.73,-113.74L41.31,-85.71L60.21,-39.24L34.84,-0.19ZM133.73,-83.48L105.13,-100.37L172.98,-154.59L168.80,-161.63L131.58,-186.75L89.00,-175.02L68.44,-137.15L85.72,-91.62L126.30,-64.71L167.78,-76.40L187.73,-104.98L184.70,-133.43L166.24,-131.28L169.15,-107.98L157.93,-90.57ZM95.54,-113.47L88.75,-142.32L99.71,-161.58L123.74,-168.29L146.69,-154.33ZM210.96,-163.08L202.54,-146.06L225.82,-135.27L259.07,-149.17L279.77,-176.25L274.12,-207.60L252.03,-220.68L230.31,-216.29L204.39,-205.03L188.75,-200.31L179.03,-204.51L176.92,-217.59L189.19,-232.82L206.64,-240.35L222.09,-233.64L230.39,-250.55L210.41,-259.68L179.00,-246.81L158.95,-220.19L165.01,-190.40L185.45,-179.23L207.35,-184.33L234.64,-196.37L249.51,-199.51L259.08,-193.29L260.50,-177.03L248.84,-163.09L227.61,-155.20ZM237.45,-312.63L238.17,-323.46L231.04,-332.41L220.10,-334.16L211.97,-327.67L211.40,-316.75L218.53,-307.81L229.32,-306.14ZM326.50,-208.99L253.48,-300.40L237.66,-287.76L310.68,-196.35ZM414.35,-216.51L436.12,-256.41L419.65,-293.18L351.40,-378.62L337.33,-367.39L347.16,-355.08L327.48,-358.48L307.80,-350.26L289.11,-312.79L307.21,-269.01L345.91,-241.69L386.58,-251.64L398.04,-266.32L400.88,-284.24L406.19,-277.49L416.94,-252.56L403.83,-230.44L385.89,-222.88L370.23,-230.67L362.21,-214.76L383.62,-204.31ZM319.44,-337.52L344.15,-342.41L373.75,-322.14L387.64,-289.34L376.74,-265.80L351.84,-260.73L323.37,-281.89L309.01,-314.34ZM447.01,-305.26L462.84,-317.89L423.09,-367.64L411.19,-396.61L422.59,-419.02L442.89,-424.00L461.90,-409.01L506.69,-352.93L522.51,-365.57L477.72,-421.65L449.46,-444.74L414.92,-435.22L400.84,-417.81L398.76,-394.86L388.23,-408.04L373.99,-396.67ZM-157.21,378.40L-168.63,394.30L-139.95,412.81L-104.73,401.11L-85.40,367.29L-100.94,328.58L-171.30,240.51L-188.00,253.85L-118.33,341.06L-106.11,364.64L-116.19,386.76L-138.36,391.94ZM-83.16,221.80L-104.18,260.03L-87.34,305.91L-46.30,332.46L-4.38,320.41L16.63,282.18L-0.19,236.29L-41.22,209.73ZM-15.12,306.97L-40.84,313.79L-71.18,293.02L-84.73,258.83L-72.41,235.25L-46.67,228.43L-16.31,249.19L-2.77,283.38ZM-32.24,129.43L-48.07,142.07L53.04,268.64L67.11,257.41L57.28,245.10L76.83,248.96L96.11,240.68L114.79,203.21L96.71,159.42L58.00,132.11L17.33,142.06L5.87,156.75L3.57,174.26ZM84.46,227.97L59.77,232.86L30.16,212.61L16.26,179.80L27.16,156.25L52.08,151.18L80.56,172.35L94.91,204.79ZM136.68,155.44L128.25,172.46L151.53,183.25L184.79,169.34L205.49,142.27L199.84,110.91L177.74,97.83L156.02,102.22L130.11,113.49L114.47,118.20L104.75,114.01L102.64,100.93L114.91,85.70L132.36,78.16L147.81,84.88L156.10,67.97L136.13,58.84L104.72,71.71L84.67,98.33L90.73,128.12L111.16,139.29L133.07,134.19L160.36,122.15L175.23,119.01L184.80,125.23L186.21,141.49L174.56,155.43L153.33,163.32ZM279.06,91.70L280.23,80.38L273.05,71.48L261.74,70.22L252.91,77.35L251.75,88.67L258.93,97.57L270.24,98.82ZM240.46,69.34L255.78,57.10L251.91,52.26L244.05,37.57L244.21,20.23L247.71,-6.77L237.97,-33.54L205.55,-50.85L167.79,-36.80L148.93,-5.29L157.29,26.52L175.59,21.87L168.25,-3.66L179.39,-22.58L200.37,-30.89L221.75,-18.83L228.70,-0.55L226.40,18.29L225.12,42.52L236.59,64.50Z" fill="#ffffff" stroke="#000000"/>
    <path d="M-906.35,492L-906.35,469.28L-898.22,492L-894.99,492L-886.86,469.28L-886.86,492L-883.25,492L-883.25,464.64L-888.22,464.64L-896.55,487.33L-904.68,464.64L-909.96,464.64L-909.96,492ZM-865.67,478.75L-876.82,482.17L-879.09,486.89L-877.05,491.38L-872.23,492.78L-868.69,492.09L-865.45,489.71L-865.46,492L-862.27,492L-862.27,479.25L-864.06,473.45L-869.98,471.46L-875.30,472.76L-877.88,476.62L-875.17,478.28L-873.43,475.28L-870.33,474.25L-867.00,475.23ZM-865.67,481.77L-865.68,486.77L-868.09,488.89L-871.68,489.99L-874.26,489.33L-875.44,486.74L-873.91,484.05ZM-857.12,492L-853.70,492L-853.70,481.25L-852.22,476.17L-848.35,474.41L-845.15,475.90L-844.22,479.88L-844.22,492L-840.80,492L-840.80,479.88L-842.09,473.85L-847.66,471.47L-851.35,472.28L-854.04,475.09L-854.04,472.24L-857.12,472.24ZM-833.34,468.94L-832.11,467.58L-832.10,465.65L-833.36,464.27L-835.12,464.27L-836.35,465.65L-836.35,467.58L-835.10,468.94ZM-832.52,492L-832.52,472.24L-835.94,472.24L-835.94,492ZM-818.31,468.12L-817.85,465.29L-820.94,464.71L-825.30,466.41L-826.70,471.29L-826.70,472.24L-829.67,472.24L-829.67,474.86L-826.70,474.86L-826.70,492L-823.40,492L-823.40,474.86L-819.56,474.86L-819.56,472.24L-823.40,472.24L-823.40,471.21L-822.75,468.65L-820.52,467.74ZM-807.97,471.46L-814.77,474.29L-817.39,482.12L-814.77,489.95L-807.97,492.78L-801.17,489.95L-798.55,482.12L-801.16,474.29ZM-807.97,489.87L-812.08,488.06L-813.90,482.12L-812.08,476.18L-807.97,474.37L-803.85,476.18L-802.04,482.12L-803.85,488.06ZM-795.03,492L-791.61,492L-791.61,481.25L-790.13,476.17L-786.26,474.41L-783.06,475.90L-782.13,479.88L-782.13,492L-778.71,492L-778.71,479.88L-780.00,473.85L-785.56,471.47L-789.26,472.28L-791.95,475.09L-791.95,472.24L-795.03,472.24ZM-765.45,492.27L-765.45,492.26L-765.85,489.32L-767.38,489.55L-769.03,488.71L-769.32,486.22L-769.32,474.86L-765.94,474.86L-765.94,472.24L-769.32,472.24L-769.32,465.40L-772.74,465.40L-772.74,472.24L-775.55,472.24L-775.55,474.86L-772.74,474.86L-772.74,486.22L-771.96,491.00L-768.07,492.63ZM-737.50,487.93L-737.50,478.13L-749.05,478.13L-749.05,481.31L-740.99,481.31L-740.97,486.22L-748.63,489.75L-755.95,486.41L-758.55,478.32L-756.06,470.17L-749.21,466.88L-744.27,468.25L-741.30,473.01L-738.24,471.11L-741.44,465.93L-749.13,463.79L-758.98,468.04L-762.42,478.32L-758.78,488.60L-748.74,492.86ZM-724.35,474.77L-721.78,475.62L-720.76,472.73L-724.11,471.47L-727.37,472.48L-729.65,475.66L-729.65,472.24L-732.73,472.24L-732.73,491.81L-729.31,492L-729.31,481.32L-728.06,476.56ZM-710.01,471.46L-716.81,474.29L-719.42,482.12L-716.81,489.95L-710.01,492.78L-703.20,489.95L-700.58,482.12L-703.20,474.29ZM-710.01,489.87L-714.12,488.06L-715.93,482.12L-714.12,476.18L-710.01,474.37L-705.89,476.18L-704.07,482.12L-705.89,488.06ZM-688.58,492.27L-688.58,492.26L-688.97,489.32L-690.51,489.55L-692.15,488.71L-692.45,486.22L-692.45,474.86L-689.07,474.86L-689.07,472.24L-692.45,472.24L-692.45,465.40L-695.87,465.40L-695.87,472.24L-698.68,472.24L-698.68,474.86L-695.87,474.86L-695.87,486.22L-695.09,491.00L-691.19,492.63ZM-680.57,488.24L-682.57,483.00L-667.90,482.99L-667.71,481.63L-669.97,474.39L-676.83,471.45L-683.53,474.28L-686.05,482.11L-683.53,489.93L-676.83,492.76L-671.18,491.10L-668.58,487.02L-671.25,485.36L-673.32,488.74L-676.63,489.86ZM-682.45,480.26L-680.31,475.73L-676.83,474.35L-672.95,476.00L-671.40,480.26ZM-661.99,485.88L-664.90,487.24L-662.96,491.11L-657.11,492.78L-651.52,491.39L-648.97,486.66L-650.50,482.61L-653.83,480.90L-658.44,479.65L-661.00,478.62L-661.84,477.05L-660.74,475.10L-657.52,474.38L-654.42,475.23L-653.09,477.74L-650.21,476.38L-651.88,473.07L-657.39,471.46L-662.84,472.86L-665.18,477.43L-663.66,481.06L-660.23,482.69L-655.36,483.98L-653.07,485.13L-652.46,486.96L-653.99,489.26L-656.99,489.87L-660.63,488.67ZM-641.92,483.45L-638.72,483.45L-637.20,484.67L-633.14,492.30L-630.05,490.63L-634.16,483.45L-636.67,482.04L-634.62,480.06L-632.77,476.14L-631.66,475.64L-630.10,475.39L-630.56,472.24L-633.40,472.52L-635.30,474.17L-637.43,478.82L-638.72,480.60L-641.91,480.60L-641.91,464.64L-643.66,464.64L-645.32,464.64L-645.33,492L-641.92,492ZM-625.58,492.01L-615.04,492.01L-607.42,490.45L-604.53,484.21L-606.06,480.03L-610.31,477.70L-606.80,475.27L-605.82,471.62L-608.58,466.13L-615.58,464.63L-625.58,464.63ZM-621.94,476.42L-621.95,467.89L-616.40,467.89L-611.64,468.44L-609.62,472.08L-611.57,475.51L-615.93,476.42ZM-621.94,488.79L-621.94,479.64L-615.54,479.64L-610.64,480.53L-608.45,484.21L-610.32,488.02L-615.04,488.79ZM-592.40,471.46L-599.20,474.29L-601.81,482.12L-599.20,489.95L-592.40,492.78L-585.59,489.95L-582.97,482.12L-585.59,474.29ZM-592.40,489.87L-596.51,488.06L-598.32,482.12L-596.51,476.18L-592.40,474.37L-588.28,476.18L-586.46,482.12L-588.28,488.06ZM-571.27,471.46L-578.07,474.29L-580.68,482.12L-578.07,489.95L-571.27,492.78L-564.46,489.95L-561.85,482.12L-564.46,474.29ZM-571.27,489.87L-575.38,488.06L-577.19,482.12L-575.38,476.18L-571.27,474.37L-567.15,476.18L-565.33,482.12L-567.15,488.06ZM-554.82,483.45L-551.62,483.45L-550.10,484.67L-546.04,492.30L-542.96,490.63L-547.06,483.45L-549.57,482.04L-547.52,480.06L-545.67,476.14L-544.56,475.64L-543.00,475.39L-543.46,472.24L-546.31,472.52L-548.20,474.17L-550.34,478.82L-551.62,480.60L-554.82,480.60L-554.82,464.64L-556.56,464.64L-558.23,464.64L-558.23,492L-554.82,492Z"/>
</svg>