<?xml version="1.0"?>
<svg xmlns="http://www.w3.org/2000/svg" width="1920" height="1080" viewBox="-960 -540 1920 1080">
    <path d="M-619.50,-381.25L-605.25,-355.25L-605.25,-236.50L-619.50,-210L-567,-210C-533.25,-210 -487.25,-219.75 -487.25,-255.75C-487.25,-281.25 -505.75,-296 -535.50,-303C-517.75,-310 -497.75,-321 -497.75,-343.50C-497.75,-373.25 -529,-381.25 -565,-381.25ZM-574.25,-373.25L-566,-373.25C-549.75,-373.25 -528.50,-368.50 -528.50,-338.50C-528.50,-319 -543.75,-304.50 -574.25,-304.50ZM-574.25,-219.75L-574.25,-298.25C-543.75,-298.25 -522.25,-289.50 -522.25,-256.50C-522.25,-232.50 -542.50,-219.75 -566.75,-219.75ZM-393.75,-210L-348,-210L-365,-229.25L-365,-332.50L-397.50,-332.50L-393.75,-317.25C-393.75,-295.75 -412.50,-252.50 -425,-228.25C-426,-238.25 -426.75,-254.25 -426.75,-296.50L-426.75,-337.50L-474,-332.50L-455.50,-311L-455.50,-250.75C-455.50,-232.50 -452.25,-216 -450.75,-208L-428.25,-210C-423,-217.25 -403.50,-253.50 -393.75,-290.50ZM-291,-369.75L-311.75,-392.75L-332.75,-369.75L-311.75,-346.50ZM-296,-231.50L-296,-335L-341.75,-318.25L-324.75,-299L-324.75,-210L-277.50,-210ZM-256.25,-354L-256.25,-346.50L-273.25,-339.25L-256.25,-320L-256.25,-210L-209,-210L-227.50,-231.50L-227.50,-387.50L-273.25,-373.25ZM-80.75,-210L-99.25,-227.50L-99.25,-387.50L-145,-373.25L-128,-354L-128,-332C-174.75,-327 -200.50,-293.25 -200.50,-250.75C-200.50,-230.50 -192.25,-212.50 -184.75,-207.25L-166.25,-210C-151.50,-233.75 -134.25,-267.50 -125.50,-303.25L-128.50,-274.25L-128.50,-207.75ZM-162.25,-229.25C-165.25,-229.25 -169.50,-239.75 -169.50,-264.25C-169.50,-289.50 -161.50,-325 -128,-325.25C-128.25,-298.75 -157.50,-229.25 -162.25,-229.25ZM-15.50,-210L103.75,-210L106.50,-264.25L105.25,-264.75L71,-219L29.75,-219L29.75,-291.75L94.75,-291.75L94.75,-303L29.75,-303L29.75,-372.25L68.75,-372.25L98,-328.75L99.25,-328.75L99.25,-381.25L-15.50,-381.25L-1.25,-355.25L-1.25,-236.50ZM159.50,-210C174.25,-233.75 191.50,-267.50 200.25,-303.25L197.25,-274.25L197.25,-210L245,-210L226.50,-231.50L226.50,-319L236,-332.50L207.50,-332.50C155.25,-331.50 126.75,-297.25 126.75,-250.75C126.75,-230.50 133.50,-212.50 141,-207.25ZM163.50,-229.25C160.50,-229.25 157.75,-239.75 157.75,-264.25C157.75,-289.50 164.25,-325 197.75,-325.25C197.50,-298.75 168.25,-229.25 163.50,-229.25ZM350.75,-293.75L351.50,-294.75L330.50,-336L327.25,-336C312.50,-315 300.25,-283.50 293,-255.50L293,-335L247.25,-318.25L264.25,-299L264.25,-210L295,-210L293,-225.25C293,-250.50 314.25,-301.25 317.75,-302.75ZM434.50,-329.75L434.50,-332.50L394.75,-332.50L394.75,-375L366.50,-332.50L348.75,-332.50L365.75,-317.75L365.75,-246.75C366.25,-208.75 385,-207 394,-207C409.50,-207 426.75,-231.25 433.75,-259L431,-260C425.75,-244.50 414.50,-225.50 406.50,-225.50C399.75,-225.50 394.75,-227 394.75,-254.50L394.75,-317ZM486.25,-387.50L440.50,-373.25L457.50,-354L457.50,-210L490,-210L486.25,-225.25C486.25,-246.25 504,-287.75 516.50,-312.50L518.50,-312.25C521.25,-302.50 523.50,-285 523.50,-246L523.50,-210L570.75,-210L552.25,-231.50L552.25,-260.50C552.25,-311.50 551.75,-318.75 545.25,-338.75L520.75,-332.50C515.50,-325.25 496,-289 486.25,-252Z" fill="#ffffff" stroke="#000000"/>
    <path d="M-600.49,-403.86L-587.64,-377.47L-593.30,-260.05L-608.65,-234.52L-556.74,-232.02C-523.37,-230.41 -477.41,-237.86 -475.70,-273.46C-474.48,-298.67 -492.07,-314.14 -521.16,-322.48C-503.27,-328.55 -482.97,-338.48 -481.90,-360.73C-480.48,-390.15 -511.00,-399.55 -546.59,-401.26ZM-556.12,-393.79L-547.97,-393.40C-531.90,-392.63 -511.11,-386.92 -512.54,-357.25C-513.47,-337.97 -529.24,-324.36 -559.40,-325.81ZM-563.44,-242.01L-559.70,-319.63C-529.54,-318.18 -508.70,-308.50 -510.27,-275.87C-511.42,-252.13 -532.05,-240.49 -556.03,-241.65ZM-385.42,-223.76L-340.18,-221.57L-356.07,-241.42L-351.15,-343.52L-383.29,-345.07L-380.31,-329.81C-381.33,-308.55 -401.94,-266.68 -415.45,-243.29C-415.96,-253.23 -415.94,-269.09 -413.93,-310.87L-411.97,-351.41L-458.93,-348.72L-441.67,-326.57L-444.54,-267.00C-445.41,-248.95 -442.98,-232.48 -441.88,-224.50L-419.54,-225.40C-414.00,-232.32 -392.99,-267.24 -381.58,-303.36ZM-276.20,-376.82L-295.62,-400.56L-317.48,-378.82L-297.83,-354.82ZM-287.74,-240.35L-282.80,-342.70L-328.84,-328.32L-312.95,-308.47L-317.19,-220.47L-270.47,-218.21ZM-242.59,-359.59L-242.94,-352.18L-260.10,-345.82L-244.21,-325.97L-249.45,-217.20L-202.73,-214.95L-220.00,-237.09L-212.56,-391.35L-258.48,-379.44ZM-75.91,-208.83L-93.37,-227.02L-85.74,-385.23L-131.66,-373.32L-115.77,-353.48L-116.82,-331.72C-163.28,-329.01 -190.36,-296.86 -192.38,-254.84C-193.35,-234.81 -186.05,-216.62 -178.88,-211.07L-160.46,-212.91C-144.74,-235.69 -126.07,-268.24 -115.71,-303.17L-120.06,-274.64L-123.24,-208.88ZM-155.58,-231.75C-158.55,-231.89 -162.25,-242.48 -161.08,-266.71C-159.88,-291.68 -150.28,-326.40 -117.14,-325.05C-118.65,-298.85 -150.89,-231.52 -155.58,-231.75ZM-11.39,-205.72L106.53,-200.03L111.84,-253.54L110.63,-254.10L74.58,-210.49L33.79,-212.46L37.26,-284.40L101.53,-281.30L102.07,-292.42L37.79,-295.52L41.09,-364.00L79.66,-362.14L106.51,-317.73L107.75,-317.67L110.25,-369.59L-3.22,-375.06L9.63,-348.67L3.97,-231.24ZM161.66,-197.37C177.38,-220.15 196.05,-252.70 206.40,-287.64L202.05,-259.11L198.99,-195.57L246.21,-193.29L228.94,-215.44L233.11,-301.96L243.15,-314.86L214.97,-316.22C163.25,-317.72 133.44,-285.21 131.22,-239.23C130.25,-219.20 136.07,-201.08 143.24,-195.53ZM166.53,-216.22C163.57,-216.36 161.35,-226.87 162.52,-251.10C163.72,-276.07 171.84,-310.86 204.98,-309.51C203.47,-283.32 171.23,-215.99 166.53,-216.22ZM354.77,-271.07L355.56,-272.02L336.76,-313.81L333.55,-313.97C317.96,-293.90 304.35,-263.34 295.84,-236.00L299.63,-314.61L253.59,-300.23L269.49,-280.38L265.24,-192.38L295.65,-190.91L294.40,-206.09C295.60,-231.05 319.04,-280.22 322.57,-281.54ZM439.31,-302.67L439.44,-305.39L400.13,-307.29L402.16,-349.31L372.19,-308.63L354.64,-309.48L370.75,-294.08L367.36,-223.88C366.05,-186.28 384.50,-183.65 393.40,-183.22C408.73,-182.48 426.94,-205.64 435.19,-232.75L432.52,-233.87C426.59,-218.79 414.56,-200.54 406.65,-200.92C399.97,-201.24 395.10,-202.96 396.41,-230.16L399.39,-291.96ZM493.23,-357.31L447.31,-345.40L463.21,-325.55L456.34,-183.16L488.48,-181.61L485.49,-196.87C486.50,-217.63 506.03,-257.83 519.57,-281.70L521.53,-281.36C523.79,-271.59 525.18,-254.18 523.32,-215.61L521.60,-180.01L568.33,-177.76L551.06,-199.90L552.44,-228.58C554.87,-279.01 554.72,-286.20 549.25,-306.29L524.72,-301.28C519.19,-294.36 498.18,-259.44 486.77,-223.32Z" fill="#ffffff" stroke="#000000"/>
    <path d="M-580.61,-425.59L-569.16,-398.89L-580.36,-283.05L-596.76,-258.55L-545.55,-253.60C-512.63,-250.41 -466.84,-255.59 -463.44,-290.70C-461.04,-315.58 -477.69,-331.71 -506.05,-341.34C-488.08,-346.50 -467.53,-355.34 -465.41,-377.29C-462.60,-406.31 -492.33,-417.06 -527.45,-420.45ZM-537.22,-413.52L-529.18,-412.74C-513.33,-411.21 -493.05,-404.57 -495.87,-375.31C-497.71,-356.29 -513.96,-343.58 -543.71,-346.46ZM-551.70,-263.79L-544.30,-340.36C-514.55,-337.49 -494.40,-326.92 -497.51,-294.73C-499.77,-271.32 -520.73,-260.80 -544.38,-263.08ZM-376.55,-237.26L-331.92,-232.94L-346.69,-253.32L-336.95,-354.04L-368.66,-357.10L-366.44,-341.87C-368.46,-320.90 -390.83,-280.48 -405.31,-258.01C-405.35,-267.86 -404.57,-283.53 -400.58,-324.75L-396.72,-364.74L-443.28,-364.32L-427.26,-341.60L-432.94,-282.83C-434.66,-265.03 -433.05,-248.63 -432.34,-240.68L-410.20,-240.51C-404.40,-247.09 -381.96,-280.61 -368.96,-315.78ZM-261.26,-383.40L-279.33,-407.79L-301.98,-387.33L-283.69,-362.67ZM-279.17,-249.01L-269.41,-349.97L-315.62,-337.95L-300.85,-317.57L-309.24,-230.75L-263.15,-226.29ZM-228.85,-364.76L-229.55,-357.44L-246.82,-351.97L-232.05,-331.59L-242.43,-224.29L-196.34,-219.83L-212.35,-242.55L-197.64,-394.72L-243.61,-385.14ZM-71.23,-207.74L-87.63,-226.55L-72.54,-382.63L-118.51,-373.04L-103.74,-352.66L-105.82,-331.20C-151.89,-330.73 -180.19,-300.24 -184.20,-258.78C-186.11,-239.03 -179.76,-220.69 -172.94,-214.86L-154.64,-215.80C-138.01,-237.58 -118.00,-268.87 -106.09,-302.92L-111.75,-274.92L-118.02,-210.05ZM-148.92,-234.20C-151.84,-234.49 -155.00,-245.13 -152.69,-269.03C-150.31,-293.66 -139.16,-327.53 -106.46,-324.62C-109.20,-298.79 -144.29,-233.75 -148.92,-234.20ZM-7.59,-201.59L108.74,-190.34L116.54,-243.00L115.36,-243.60L77.64,-202.21L37.40,-206.10L44.26,-277.06L107.67,-270.93L108.73,-281.91L45.32,-288.04L51.85,-355.59L89.90,-351.91L114.33,-306.72L115.55,-306.60L120.50,-357.81L8.56,-368.63L20.01,-341.93L8.81,-226.09ZM163.12,-185.08C179.75,-206.86 199.75,-238.15 211.66,-272.20L206.00,-244.19L199.94,-181.52L246.52,-177.02L230.50,-199.74L238.75,-285.09L249.29,-297.36L221.49,-300.05C170.43,-304.00 139.40,-273.28 135.01,-227.92C133.11,-208.17 137.99,-189.97 144.81,-184.14ZM168.84,-203.48C165.91,-203.77 164.22,-214.27 166.53,-238.17C168.91,-262.80 178.60,-296.81 211.30,-293.90C208.55,-268.07 173.47,-203.03 168.84,-203.48ZM357.57,-248.74L358.40,-249.64L341.80,-291.86L338.63,-292.17C322.26,-273.08 307.34,-243.50 297.63,-216.87L305.13,-294.42L258.92,-282.40L273.69,-262.02L265.30,-175.20L295.29,-172.30L294.78,-187.37C297.16,-212.00 322.67,-259.50 326.23,-260.63ZM442.66,-275.96L442.92,-278.64L404.15,-282.39L408.15,-323.85L376.59,-285.05L359.27,-286.73L374.47,-270.74L367.77,-201.48C364.67,-164.36 382.80,-160.89 391.58,-160.04C406.70,-158.58 425.81,-180.61 435.26,-207.02L432.67,-208.25C426.09,-193.63 413.32,-176.15 405.52,-176.91C398.93,-177.54 394.20,-179.48 396.79,-206.30L402.68,-267.27ZM498.59,-327.41L452.62,-317.82L467.38,-297.44L453.80,-156.98L485.50,-153.91L483.28,-169.14C485.27,-189.63 506.49,-228.43 521.02,-251.40L522.95,-250.97C524.71,-241.20 525.26,-223.91 521.58,-185.87L518.18,-150.75L564.27,-146.30L548.25,-169.01L550.99,-197.30C555.80,-247.05 555.99,-254.17 551.54,-274.29L527.05,-270.51C521.25,-263.93 498.81,-230.41 485.81,-195.24Z" fill="#ffffff" stroke="#000000"/>
    <path d="M-559.90,-446.40L-549.86,-419.46L-566.45,-305.47L-583.83,-282.02L-533.44,-274.69C-501.05,-269.97 -455.53,-272.90 -450.50,-307.46C-446.93,-331.93 -462.63,-348.68 -490.21,-359.55C-472.19,-363.79 -451.46,-371.56 -448.31,-393.15C-444.16,-421.71 -473.03,-433.76 -507.59,-438.79ZM-517.59,-432.40L-509.67,-431.25C-494.07,-428.98 -474.34,-421.45 -478.53,-392.65C-481.25,-373.93 -497.92,-362.15 -527.19,-366.41ZM-539.04,-285.06L-528.07,-360.41C-498.79,-356.15 -479.38,-344.74 -483.99,-313.07C-487.34,-290.03 -508.56,-280.62 -531.84,-284.01ZM-367.14,-250.48L-323.23,-244.08L-336.86,-264.94L-322.43,-364.04L-353.62,-368.59L-352.15,-353.42C-355.16,-332.79 -379.20,-293.89 -394.59,-272.36C-394.15,-282.10 -392.63,-297.56 -386.73,-338.12L-381.00,-377.47L-427.05,-379.28L-412.30,-356.05L-420.72,-298.22C-423.27,-280.70 -422.46,-264.41 -422.13,-256.52L-400.26,-255.30C-394.21,-261.52 -370.42,-293.59 -355.89,-327.75ZM-246.19,-389.46L-262.89,-414.44L-286.26,-395.29L-269.36,-370.04ZM-270.31,-257.45L-255.85,-356.80L-302.10,-347.12L-288.47,-326.26L-300.91,-240.83L-255.56,-234.23ZM-215.03,-369.48L-216.08,-362.29L-233.41,-357.70L-219.79,-336.85L-235.16,-231.26L-189.80,-224.66L-204.56,-247.88L-182.76,-397.62L-228.66,-390.34ZM-66.70,-206.74L-82.01,-226.12L-59.65,-379.70L-105.56,-372.42L-91.93,-351.56L-95.00,-330.44C-140.58,-332.18 -170.01,-303.38 -175.95,-262.59C-178.78,-243.15 -173.38,-224.72 -166.91,-218.63L-148.77,-218.68C-131.29,-239.42 -110.02,-269.41 -96.62,-302.50L-103.55,-275.08L-112.85,-211.25ZM-142.24,-236.60C-145.12,-237.02 -147.73,-247.69 -144.31,-271.21C-140.78,-295.45 -128.14,-328.41 -95.95,-323.97C-99.89,-298.56 -137.68,-235.94 -142.24,-236.60ZM-4.07,-197.62L110.40,-180.95L120.62,-232.64L119.49,-233.30L80.22,-194.17L40.63,-199.93L50.79,-269.76L113.18,-260.68L114.76,-271.48L52.36,-280.56L62.04,-347.03L99.48,-341.58L121.47,-295.74L122.67,-295.57L130.01,-345.96L19.86,-362.00L29.91,-335.05L13.31,-221.06ZM163.91,-173.16C181.39,-193.90 202.66,-223.88 216.06,-256.98L209.13,-229.56L200.15,-167.89L245.98,-161.21L231.23,-184.44L243.46,-268.43L254.46,-280.06L227.11,-284.04C176.81,-290.38 144.67,-261.49 138.17,-216.85C135.34,-197.42 139.30,-179.20 145.77,-173.11ZM170.44,-191.08C167.56,-191.50 166.39,-201.96 169.81,-225.48C173.34,-249.72 184.54,-282.88 216.73,-278.44C212.79,-253.04 175.00,-190.42 170.44,-191.08ZM359.19,-226.83L360.05,-227.68L345.66,-270.21L342.54,-270.66C325.45,-252.57 309.29,-224.04 298.41,-198.18L309.52,-274.49L263.27,-264.81L276.90,-243.95L264.46,-158.52L293.98,-154.23L294.19,-169.14C297.72,-193.38 325.21,-239.13 328.77,-240.08ZM444.61,-249.68L445.00,-252.32L406.84,-257.87L412.78,-298.67L379.73,-261.82L362.69,-264.30L376.95,-247.77L367.02,-179.61C362.19,-143.07 379.95,-138.77 388.58,-137.51C403.46,-135.35 423.41,-156.21 434.01,-181.87L431.51,-183.21C424.30,-169.07 410.85,-152.40 403.17,-153.52C396.69,-154.47 392.10,-156.60 395.94,-183.00L404.68,-242.99ZM502.36,-297.88L456.45,-290.59L470.08,-269.74L449.96,-131.52L481.15,-126.98L479.68,-142.14C482.62,-162.30 505.46,-199.65 520.91,-221.66L522.80,-221.14C524.08,-211.40 523.79,-194.29 518.34,-156.85L513.31,-122.29L558.66,-115.69L543.91,-138.91L547.96,-166.75C555.09,-215.70 555.62,-222.73 552.18,-242.84L527.79,-240.26C521.74,-234.04 497.95,-201.97 483.42,-167.81Z" fill="#ffffff" stroke="#000000"/>
    <path d="M-538.41,-466.26L-529.77,-439.14L-551.60,-327.25L-569.90,-304.90L-520.44,-295.25C-488.64,-289.04 -443.50,-289.77 -436.88,-323.69C-432.19,-347.72 -446.91,-365.02 -473.65,-377.08C-455.64,-380.41 -434.78,-387.10 -430.64,-408.30C-425.17,-436.33 -453.14,-449.62 -487.06,-456.24ZM-497.25,-450.40L-489.47,-448.88C-474.16,-445.89 -455.01,-437.51 -460.53,-409.24C-464.12,-390.87 -481.15,-380.01 -509.89,-385.62ZM-525.48,-305.77L-511.04,-379.73C-482.30,-374.12 -463.65,-361.93 -469.72,-330.83C-474.14,-308.22 -495.56,-299.93 -518.41,-304.39ZM-357.20,-263.39L-314.09,-254.97L-326.57,-276.24L-307.58,-373.52L-338.20,-379.50L-337.47,-364.44C-341.43,-344.18 -367.05,-306.88 -383.29,-286.33C-382.39,-295.94 -380.15,-311.15 -372.38,-350.96L-364.84,-389.59L-410.28,-393.57L-396.81,-369.91L-407.89,-313.14C-411.24,-295.94 -411.22,-279.80 -411.27,-271.99L-389.71,-269.73C-383.43,-275.60 -358.39,-306.17 -342.39,-339.24ZM-231.01,-395.01L-246.33,-420.50L-270.34,-402.69L-254.83,-376.92ZM-261.14,-265.67L-242.11,-363.19L-288.30,-355.82L-275.82,-334.55L-292.19,-250.70L-247.67,-242.01ZM-201.16,-373.78L-202.54,-366.71L-219.89,-363.01L-207.41,-341.74L-227.64,-238.10L-183.12,-229.41L-196.60,-253.07L-167.91,-400.06L-213.64,-395.04ZM-62.28,-205.82L-76.50,-225.71L-47.07,-376.47L-92.80,-371.46L-80.32,-350.19L-84.37,-329.46C-129.34,-333.35 -159.80,-306.29 -167.62,-266.24C-171.34,-247.16 -166.88,-228.69 -160.78,-222.36L-142.84,-221.55C-124.58,-241.21 -102.12,-269.84 -87.30,-301.92L-95.46,-275.14L-107.69,-212.49ZM-135.53,-238.95C-138.36,-239.50 -140.43,-250.18 -135.93,-273.26C-131.29,-297.05 -117.22,-329.03 -85.61,-323.10C-90.72,-298.18 -131.06,-238.08 -135.53,-238.95ZM-0.80,-193.82L111.56,-171.89L124.12,-222.50L123.04,-223.20L82.35,-186.40L43.49,-193.98L56.87,-262.53L118.11,-250.57L120.18,-261.17L58.93,-273.13L71.67,-338.38L108.42,-331.20L127.98,-284.84L129.15,-284.61L138.81,-334.08L30.69,-355.18L39.34,-328.06L17.50,-216.17ZM164.08,-161.64C182.35,-181.31 204.81,-209.93 219.63,-242.01L211.47,-215.24L199.65,-154.70L244.64,-145.92L231.17,-169.58L247.26,-252.02L258.69,-262.99L231.84,-268.23C182.42,-276.90 149.27,-249.87 140.72,-206.06C137.00,-186.98 140.05,-168.78 146.15,-162.45ZM171.39,-179.04C168.57,-179.59 167.91,-189.99 172.41,-213.08C177.06,-236.87 189.71,-269.12 221.32,-263.20C216.21,-238.27 175.87,-178.17 171.39,-179.04ZM359.69,-205.38L360.58,-206.18L348.38,-248.91L345.31,-249.51C327.55,-232.44 310.22,-205.01 298.24,-179.96L312.86,-254.87L266.67,-247.50L279.15,-226.23L262.78,-142.38L291.76,-136.72L292.68,-151.46C297.32,-175.25 326.67,-219.16 330.25,-219.93ZM445.22,-223.90L445.72,-226.49L408.27,-233.80L416.09,-273.84L381.65,-238.99L364.93,-242.26L378.23,-225.23L365.18,-158.34C358.66,-122.44 376.00,-117.34 384.48,-115.69C399.09,-112.84 419.80,-132.51 431.50,-157.37L429.09,-158.82C421.30,-145.18 407.20,-129.35 399.66,-130.82C393.30,-132.06 388.87,-134.39 393.93,-160.30L405.42,-219.19ZM504.60,-268.79L458.87,-263.78L471.35,-242.52L444.87,-106.84L475.49,-100.86L474.76,-115.92C478.62,-135.70 502.98,-171.54 519.31,-192.56L521.15,-191.96C521.94,-182.27 520.85,-165.36 513.67,-128.62L507.05,-94.70L551.57,-86.01L538.10,-109.67L543.43,-136.99C552.81,-185.05 553.67,-191.97 551.22,-212.01L526.99,-210.63C520.71,-204.76 495.67,-174.19 479.68,-141.12Z" fill="#ffffff" stroke="#000000"/>
    <path d="M-516.17,-485.13L-508.92,-457.91L-535.84,-348.35L-554.99,-327.14L-506.56,-315.24C-475.42,-307.58 -430.78,-306.15 -422.61,-339.36C-416.83,-362.89 -430.56,-380.69 -456.42,-393.89C-438.45,-396.33 -417.51,-401.94 -412.41,-422.70C-405.66,-450.14 -432.68,-464.61 -465.89,-472.77ZM-476.24,-467.49L-468.63,-465.62C-453.64,-461.93 -435.11,-452.73 -441.91,-425.06C-446.33,-407.07 -463.69,-397.15 -491.83,-404.06ZM-511.04,-325.87L-493.24,-398.30C-465.10,-391.38 -447.25,-378.43 -454.73,-347.99C-460.17,-325.85 -481.75,-318.68 -504.12,-324.17ZM-346.73,-275.96L-304.52,-265.59L-315.84,-287.20L-292.43,-382.46L-322.42,-389.82L-322.41,-374.90C-327.29,-355.07 -354.39,-319.42 -371.42,-299.88C-370.08,-309.33 -367.14,-324.26 -357.56,-363.24L-348.27,-401.07L-392.99,-407.17L-380.80,-383.14L-394.46,-327.55C-398.59,-310.72 -399.34,-294.76 -399.77,-287.04L-378.56,-283.78C-372.07,-289.28 -345.86,-318.30 -328.48,-350.23ZM-215.72,-400.05L-229.65,-425.97L-254.24,-409.51L-240.13,-383.30ZM-251.67,-273.64L-228.21,-369.12L-274.21,-364.04L-262.89,-342.43L-283.07,-260.32L-239.48,-249.61ZM-187.23,-377.64L-188.93,-370.72L-206.26,-367.88L-194.94,-346.27L-219.88,-244.79L-176.29,-234.08L-188.48,-258.11L-153.11,-402.03L-198.55,-399.25ZM-57.97,-205.00L-71.07,-225.34L-34.80,-372.95L-80.23,-370.18L-68.91,-348.56L-73.90,-328.27C-118.16,-334.25 -149.57,-308.95 -159.21,-269.75C-163.80,-251.06 -160.27,-232.59 -154.54,-226.04L-136.85,-224.39C-117.85,-242.95 -94.29,-270.18 -78.11,-301.18L-87.45,-275.10L-102.53,-213.75ZM-128.79,-241.24C-131.56,-241.92 -133.10,-252.57 -127.55,-275.17C-121.82,-298.47 -106.39,-329.40 -75.43,-322.04C-81.67,-297.65 -124.41,-240.16 -128.79,-241.24ZM2.23,-190.21L112.24,-163.18L127.08,-212.60L126.04,-213.35L84.07,-178.91L46.02,-188.26L62.51,-255.37L122.47,-240.64L125.02,-251.02L65.06,-265.75L80.76,-329.64L116.74,-320.80L133.86,-274.04L135.01,-273.75L146.91,-322.19L41.05,-348.20L48.30,-320.98L21.38,-211.43ZM163.68,-150.54C182.67,-169.11 206.23,-196.33 222.41,-227.33L213.07,-201.26L198.50,-141.98L242.56,-131.16L230.36,-155.19L250.20,-235.91L262.02,-246.21L235.73,-252.67C187.30,-263.60 153.24,-238.46 142.70,-195.56C138.11,-176.88 140.26,-158.74 145.99,-152.20ZM171.73,-167.39C168.96,-168.07 168.81,-178.38 174.36,-200.99C180.08,-224.28 194.13,-255.56 225.09,-248.19C218.85,-223.80 176.11,-166.32 171.73,-167.39ZM359.10,-184.45L360.02,-185.20L350.00,-228.02L347.00,-228.75C328.63,-212.73 310.19,-186.44 297.15,-162.25L315.17,-235.60L269.17,-230.52L280.49,-208.90L260.31,-126.79L288.68,-119.82L290.29,-134.35C296.02,-157.64 327.13,-199.64 330.70,-200.23ZM444.53,-198.68L445.15,-201.21L408.48,-210.22L418.11,-249.43L382.42,-216.63L366.04,-220.65L378.38,-203.19L362.28,-137.69C354.13,-102.52 371.03,-96.65 379.34,-94.61C393.64,-91.10 415.05,-109.56 427.80,-133.58L425.49,-135.12C417.13,-122.01 402.44,-107.03 395.06,-108.85C388.83,-110.38 384.56,-112.89 390.80,-138.26L404.96,-195.92ZM505.36,-240.22L459.92,-237.45L471.24,-215.83L438.60,-82.99L468.58,-75.62L468.58,-90.54C473.34,-109.91 499.12,-144.17 516.27,-164.17L518.05,-163.49C518.38,-153.87 516.49,-137.22 507.65,-101.24L499.49,-68.02L543.08,-57.31L530.88,-81.34L537.46,-108.10C549.02,-155.15 550.20,-161.95 548.74,-181.87L524.72,-181.66C518.23,-176.16 492.03,-147.14 474.64,-115.22Z" fill="#ffffff" stroke="#000000"/>
    <path d="M-493.23,-502.97L-487.36,-475.72L-519.19,-368.73L-539.13,-348.68L-491.83,-334.61C-461.42,-325.56 -417.36,-322.02 -407.72,-354.45C-400.88,-377.43 -413.60,-395.67 -438.52,-409.95C-420.65,-411.50 -399.69,-416.05 -393.66,-436.33C-385.68,-463.13 -411.69,-478.71 -444.13,-488.36ZM-454.61,-483.63L-447.17,-481.42C-432.53,-477.07 -414.66,-467.09 -422.70,-440.06C-427.93,-422.49 -445.55,-413.52 -473.03,-421.69ZM-495.75,-345.33L-474.71,-416.06C-447.23,-407.89 -430.20,-394.24 -439.05,-364.51C-445.48,-342.88 -467.14,-336.82 -488.99,-343.32ZM-335.74,-288.17L-294.52,-275.91L-304.67,-297.81L-277.00,-390.84L-306.28,-399.55L-306.99,-384.80C-312.75,-365.43 -341.24,-331.49 -359.00,-312.99C-357.22,-322.27 -353.61,-336.88 -342.28,-374.95L-331.29,-411.89L-375.21,-420.05L-364.30,-395.72L-380.45,-341.44C-385.34,-324.99 -386.83,-309.26 -387.63,-301.65L-366.82,-297.42C-360.15,-302.54 -332.86,-329.98 -314.16,-360.70ZM-200.34,-404.56L-212.87,-430.85L-237.96,-415.75L-225.27,-389.18ZM-241.90,-281.34L-214.16,-374.59L-259.87,-371.76L-249.71,-349.86L-273.57,-269.68L-231.00,-257.01ZM-173.26,-381.06L-175.27,-374.30L-192.53,-372.33L-182.37,-350.43L-211.85,-251.32L-169.28,-238.65L-180.19,-262.98L-138.37,-403.54L-183.41,-402.96ZM-53.73,-204.28L-65.71,-225.01L-22.82,-369.16L-67.86,-368.59L-57.70,-346.68L-63.60,-326.86C-107.06,-334.89 -139.31,-311.38 -150.70,-273.09C-156.13,-254.85 -153.52,-236.42 -148.17,-229.68L-130.76,-227.20C-111.11,-244.64 -86.52,-270.43 -69.05,-300.29L-79.53,-274.97L-97.35,-215.05ZM-122.00,-243.47C-124.70,-244.27 -125.72,-254.87 -119.15,-276.94C-112.38,-299.69 -95.66,-329.54 -65.41,-320.78C-72.74,-296.97 -117.72,-242.19 -122.00,-243.47ZM5.06,-186.79L112.50,-154.83L129.52,-202.97L128.53,-203.76L85.41,-171.72L48.24,-182.77L67.74,-248.32L126.30,-230.90L129.32,-241.03L70.76,-258.45L89.32,-320.85L124.45,-310.39L139.15,-263.36L140.28,-263.03L154.35,-310.33L50.96,-341.08L56.83,-313.84L25.00,-206.85ZM162.73,-139.89C182.39,-157.33 206.97,-183.12 224.44,-212.98L213.96,-187.66L196.74,-129.77L239.77,-116.97L228.86,-141.30L252.31,-220.14L264.49,-229.75L238.81,-237.39C191.47,-250.50 156.61,-227.28 144.15,-185.38C138.72,-167.14 139.98,-149.11 145.33,-142.37ZM171.49,-156.16C168.79,-156.96 169.13,-167.16 175.69,-189.23C182.46,-211.98 197.83,-242.23 228.08,-233.47C220.76,-209.66 175.77,-154.89 171.49,-156.16ZM357.49,-164.08L358.43,-164.78L350.57,-207.58L347.64,-208.45C328.72,-193.48 309.24,-168.38 295.21,-145.10L316.51,-216.73L270.81,-213.90L280.96,-192.00L257.11,-111.81L284.81,-103.57L287.10,-117.85C293.87,-140.60 326.61,-180.63 330.17,-181.04ZM442.60,-174.07L443.33,-176.55L407.52,-187.20L418.91,-225.50L382.07,-194.78L366.07,-199.53L377.44,-181.69L358.41,-117.72C348.67,-83.35 365.10,-76.75 373.21,-74.33C387.17,-70.18 409.21,-87.40 422.96,-110.53L420.75,-112.17C411.86,-99.61 396.64,-85.51 389.43,-87.65C383.35,-89.46 379.24,-92.15 386.61,-116.93L403.37,-173.24ZM504.70,-212.23L459.66,-211.66L469.82,-189.76L431.22,-60.02L460.51,-51.31L461.21,-66.05C466.84,-84.97 493.96,-117.60 511.85,-136.55L513.59,-135.79C513.45,-126.27 510.79,-109.90 500.34,-74.76L490.69,-42.33L533.26,-29.66L522.35,-53.99L530.13,-80.12C543.80,-126.07 545.29,-132.74 544.79,-152.50L521.04,-153.43C514.37,-148.31 487.08,-120.87 468.38,-90.15Z" fill="#ffffff" stroke="#000000"/>
    <path d="M-469.64,-519.76L-465.13,-492.56L-501.69,-388.35L-522.35,-369.48L-476.27,-353.32C-446.66,-342.93 -403.29,-337.33 -392.21,-368.92C-384.36,-391.30 -396.05,-409.94 -420.01,-425.24C-402.27,-425.92 -381.34,-429.41 -374.41,-449.16C-365.25,-475.27 -390.22,-491.91 -421.81,-502.99ZM-432.39,-498.81L-425.15,-496.27C-410.89,-491.27 -393.70,-480.56 -402.94,-454.24C-408.94,-437.12 -426.78,-429.09 -453.55,-438.48ZM-479.64,-364.10L-455.47,-432.99C-428.71,-423.61 -412.53,-409.31 -422.69,-380.35C-430.08,-359.29 -451.77,-354.33 -473.05,-361.80ZM-324.23,-299.99L-284.08,-285.91L-293.08,-308.03L-261.30,-398.64L-289.82,-408.65L-291.22,-394.11C-297.84,-375.24 -327.61,-343.06 -346.04,-325.62C-343.84,-334.71 -339.57,-348.98 -326.57,-386.06L-313.95,-422.04L-356.95,-432.19L-347.34,-407.63L-365.88,-354.76C-371.50,-338.74 -373.73,-323.26 -374.87,-315.78L-354.51,-310.61C-347.67,-315.35 -319.40,-341.17 -299.45,-370.63ZM-184.89,-408.56L-196.02,-435.13L-221.53,-421.41L-210.26,-394.54ZM-231.83,-288.77L-199.97,-379.60L-245.28,-378.98L-236.29,-356.86L-263.68,-278.75L-222.21,-264.21ZM-159.24,-384.04L-161.55,-377.46L-178.70,-376.33L-169.71,-354.20L-203.57,-257.67L-162.10,-243.12L-171.72,-267.68L-123.70,-404.59L-168.24,-406.16ZM-49.55,-203.65L-60.40,-224.70L-11.15,-365.11L-55.68,-366.69L-46.69,-344.56L-53.46,-325.26C-96.03,-335.26 -129.01,-313.57 -142.10,-276.27C-148.33,-258.50 -146.63,-240.16 -141.66,-233.24L-124.58,-229.96C-104.33,-246.27 -78.80,-270.58 -60.12,-299.26L-71.68,-274.73L-92.15,-216.37ZM-115.15,-245.63C-117.78,-246.55 -118.28,-257.07 -110.74,-278.57C-102.96,-300.73 -85.02,-329.42 -55.54,-319.33C-63.92,-296.15 -110.98,-244.16 -115.15,-245.63ZM7.71,-183.56L112.37,-146.86L131.48,-193.62L130.53,-194.44L86.40,-164.84L50.19,-177.53L72.59,-241.38L129.63,-221.37L133.09,-231.24L76.05,-251.25L97.37,-312.02L131.59,-300.02L143.87,-252.84L144.97,-252.46L161.13,-298.53L60.43,-333.85L64.93,-306.65L28.38,-202.43ZM161.29,-129.70C181.55,-146.00 207.07,-170.31 225.76,-198.99L214.20,-174.46L194.42,-118.08L236.32,-103.38L226.71,-127.94L253.64,-204.73L266.13,-213.65L241.12,-222.43C194.96,-237.63 159.41,-216.35 145.09,-175.54C138.86,-157.77 139.24,-139.89 144.21,-132.98ZM170.73,-145.36C168.09,-146.28 168.91,-156.34 176.45,-177.84C184.23,-200.00 200.86,-229.16 230.33,-219.07C221.96,-195.89 174.90,-143.90 170.73,-145.36ZM354.91,-144.33L355.87,-144.97L350.14,-187.64L347.29,-188.64C327.88,-174.75 307.44,-150.88 292.45,-128.54L316.92,-198.30L271.62,-197.69L280.61,-175.56L253.22,-97.45L280.20,-87.99L283.14,-101.99C290.91,-124.15 325.18,-162.14 328.72,-162.38ZM439.49,-150.14L440.33,-152.56L405.45,-164.79L418.53,-202.09L380.66,-173.49L365.08,-178.95L375.46,-160.77L353.61,-98.46C342.35,-64.96 358.26,-57.65 366.16,-54.88C379.76,-50.11 402.37,-66.08 417.05,-88.28L414.95,-90.01C405.57,-78.02 389.85,-64.81 382.83,-67.27C376.90,-69.35 372.98,-72.20 381.44,-96.34L400.68,-151.19ZM502.68,-184.89L458.14,-186.47L467.14,-164.34L422.81,-37.97L451.33,-27.97L452.74,-42.51C459.20,-60.93 487.55,-91.89 506.14,-109.76L507.82,-108.93C507.23,-99.53 503.82,-83.48 491.81,-49.25L480.73,-17.66L522.20,-3.11L512.58,-27.67L521.51,-53.12C537.21,-97.88 539.00,-104.40 539.45,-123.95L516.03,-126.01C509.19,-121.26 480.92,-95.45 460.97,-65.98Z" fill="#ffffff" stroke="#000000"/>
    <path d="M-445.43,-535.48L-442.28,-508.38L-483.36,-407.15L-504.68,-389.49L-459.92,-371.33C-431.15,-359.65 -388.56,-352.05 -376.11,-382.74C-367.29,-404.47 -377.96,-423.45 -400.90,-439.71C-383.34,-439.53 -362.49,-441.99 -354.70,-461.17C-344.41,-486.53 -368.28,-504.17 -398.97,-516.62ZM-409.62,-513.00L-402.59,-510.15C-388.74,-504.52 -372.27,-493.12 -382.65,-467.55C-389.39,-450.93 -407.41,-443.84 -433.41,-454.39ZM-462.73,-382.15L-435.57,-449.06C-409.57,-438.51 -394.27,-423.62 -405.69,-395.48C-413.99,-375.02 -435.66,-371.16 -456.34,-379.55ZM-312.23,-311.39L-273.23,-295.56L-281.06,-317.85L-245.34,-405.87L-273.05,-417.11L-275.13,-402.82C-282.57,-384.49 -313.51,-354.11 -332.56,-337.76C-329.95,-346.63 -325.05,-360.53 -310.44,-396.54L-296.25,-431.50L-338.26,-443.58L-329.93,-418.85L-350.77,-367.49C-357.09,-351.93 -360.03,-336.74 -361.51,-329.40L-341.64,-323.32C-334.66,-327.69 -305.49,-351.84 -284.38,-380.01ZM-169.37,-412.02L-179.10,-438.81L-204.96,-426.47L-195.10,-399.38ZM-221.46,-295.90L-185.66,-384.13L-230.45,-385.68L-222.62,-363.39L-253.41,-287.52L-213.13,-271.17ZM-145.20,-386.57L-147.79,-380.18L-164.79,-379.88L-156.96,-357.59L-195.02,-263.82L-154.74,-247.47L-163.07,-272.20L-109.10,-405.19L-153.03,-408.87ZM-45.41,-203.10L-55.12,-224.42L0.23,-360.82L-43.70,-364.50L-35.87,-342.21L-43.48,-323.45C-85.06,-335.36 -118.69,-315.50 -133.39,-279.27C-140.40,-262.01 -139.59,-243.81 -135.02,-236.74L-118.29,-232.68C-97.50,-247.83 -71.12,-270.63 -51.29,-298.08L-63.88,-274.39L-86.89,-217.70ZM-108.22,-247.71C-110.78,-248.75 -110.77,-259.17 -102.30,-280.05C-93.56,-301.58 -74.46,-329.07 -45.81,-317.70C-55.20,-295.19 -104.17,-246.07 -108.22,-247.71ZM10.22,-180.53L111.87,-139.27L132.99,-184.57L132.09,-185.43L87.07,-158.28L51.90,-172.55L77.07,-234.56L132.48,-212.08L136.38,-221.67L80.97,-244.15L104.92,-303.19L138.17,-289.70L148.06,-242.49L149.12,-242.06L167.28,-286.82L69.46,-326.51L72.62,-299.42L31.53,-198.19ZM159.40,-119.99C180.19,-135.13 206.57,-157.93 226.40,-185.38L213.81,-161.70L191.58,-106.93L232.29,-90.41L223.95,-115.13L254.22,-189.73L266.99,-197.95L242.70,-207.81C197.81,-225.03 161.67,-205.69 145.58,-166.05C138.57,-148.79 138.10,-131.11 142.68,-124.04ZM169.47,-135.01C166.91,-136.05 168.20,-145.95 176.68,-166.84C185.41,-188.36 203.23,-216.38 231.88,-205.00C222.50,-182.50 173.52,-133.37 169.47,-135.01ZM351.41,-125.22L352.39,-125.81L348.76,-168.24L345.99,-169.36C326.15,-156.56 304.81,-133.95 288.95,-112.59L316.45,-180.36L271.65,-181.91L279.49,-159.62L248.70,-83.75L274.91,-73.11L278.48,-86.80C287.22,-108.32 322.89,-144.24 326.39,-144.30ZM435.26,-126.93L436.21,-129.27L402.32,-143.03L417.03,-179.26L378.24,-152.80L363.11,-158.94L372.50,-140.49L347.94,-79.96C335.22,-47.39 350.59,-39.41 358.27,-36.30C371.48,-30.94 394.57,-45.64 410.14,-66.88L408.14,-68.68C398.31,-57.28 382.14,-44.98 375.32,-47.75C369.57,-50.08 365.83,-53.09 375.34,-76.53L396.96,-129.81ZM499.35,-158.26L455.42,-161.94L463.25,-139.65L413.44,-16.89L441.14,-5.65L443.22,-19.94C450.49,-37.84 479.98,-67.08 499.19,-83.86L500.81,-82.95C499.78,-73.69 495.65,-57.99 482.15,-24.74L469.70,5.94L509.98,22.29L501.65,-2.44L511.68,-27.16C529.32,-70.64 531.41,-76.99 532.78,-96.29L509.74,-99.44C502.75,-95.07 473.59,-70.92 452.48,-42.75Z" fill="#ffffff" stroke="#000000"/>
    <path d="M-420.67,-550.08L-418.84,-523.16L-464.25,-425.11L-486.16,-408.67L-442.80,-388.60C-414.94,-375.69 -373.22,-366.15 -359.46,-395.87C-349.70,-416.93 -359.34,-436.19 -381.23,-453.34C-363.89,-452.34 -343.17,-453.77 -334.57,-472.35C-323.19,-496.92 -345.94,-515.47 -375.66,-529.24ZM-386.36,-526.17L-379.55,-523.02C-366.13,-516.80 -350.40,-504.75 -361.87,-479.98C-369.33,-463.88 -387.47,-457.74 -412.65,-469.40ZM-445.06,-399.42L-415.04,-464.24C-389.86,-452.58 -375.45,-437.13 -388.07,-409.88C-397.25,-390.06 -418.84,-387.28 -438.87,-396.55ZM-299.74,-322.34L-261.97,-304.84L-268.64,-327.24L-229.16,-412.50L-255.99,-424.93L-258.73,-410.90C-266.95,-393.15 -298.97,-364.61 -318.57,-349.36C-315.57,-358.00 -310.07,-371.50 -293.91,-406.39L-278.23,-440.24L-319.16,-454.18L-312.11,-429.36L-335.15,-379.60C-342.13,-364.53 -345.76,-349.67 -347.58,-342.49L-328.23,-335.53C-321.12,-339.51 -291.16,-361.99 -268.96,-388.81ZM-153.81,-414.96L-162.15,-441.89L-188.28,-430.93L-179.83,-403.70ZM-210.81,-302.71L-171.22,-388.18L-215.41,-391.84L-208.73,-369.44L-242.77,-295.95L-203.75,-277.88ZM-131.14,-388.66L-134.00,-382.47L-150.81,-382.99L-144.14,-360.59L-186.20,-269.76L-147.19,-251.69L-154.24,-276.52L-94.58,-405.33L-137.81,-411.06ZM-41.29,-202.64L-49.87,-224.17L11.32,-356.29L-31.91,-362.02L-25.23,-339.62L-33.65,-321.45C-74.16,-335.20 -108.33,-317.18 -124.58,-282.09C-132.33,-265.37 -132.40,-247.35 -128.21,-240.14L-111.89,-235.34C-90.62,-249.31 -63.47,-270.58 -42.58,-296.76L-56.14,-273.96L-81.58,-219.05ZM-101.22,-249.71C-103.70,-250.85 -103.19,-261.15 -93.82,-281.38C-84.17,-302.23 -63.99,-328.48 -36.23,-315.88C-46.57,-294.09 -97.30,-247.89 -101.22,-249.71ZM12.59,-177.69L111.06,-132.09L134.08,-175.83L133.24,-176.72L87.46,-152.04L53.40,-167.82L81.22,-227.89L134.90,-203.03L139.20,-212.32L85.52,-237.18L112.01,-294.36L144.21,-279.45L151.73,-232.34L152.76,-231.86L172.84,-275.22L78.08,-319.10L79.91,-292.18L34.50,-194.12ZM157.10,-110.77C178.36,-124.74 205.51,-146.01 226.41,-172.18L212.84,-149.38L188.27,-96.33L227.70,-78.07L220.65,-102.90L254.11,-175.15L267.12,-182.66L243.58,-193.56C200.05,-212.72 163.42,-195.34 145.64,-156.94C137.90,-140.22 136.59,-122.77 140.77,-115.57ZM167.76,-125.13C165.29,-126.28 167.03,-136.00 176.40,-156.23C186.06,-177.08 205.00,-203.91 232.76,-191.31C222.42,-169.52 171.69,-123.32 167.76,-125.13ZM347.05,-106.78L348.05,-107.32L346.49,-149.42L343.80,-150.66C323.59,-138.96 301.43,-117.63 284.74,-97.28L315.14,-162.93L270.96,-166.59L277.63,-144.20L243.60,-70.71L268.99,-58.95L273.17,-72.30C282.82,-93.15 319.78,-126.94 323.24,-126.84ZM429.97,-104.48L431.03,-106.75L398.20,-121.95L414.46,-157.05L374.87,-132.76L360.22,-139.55L368.61,-120.87L341.46,-62.24C327.34,-30.67 342.16,-22.05 349.59,-18.61C362.39,-12.68 385.91,-26.11 402.30,-46.35L400.41,-48.23C390.15,-37.43 373.59,-26.05 366.99,-29.11C361.41,-31.69 357.86,-34.84 368.37,-57.55L392.27,-109.16ZM494.79,-132.38L451.56,-138.11L458.24,-115.71L403.17,3.20L430.01,15.62L432.74,1.60C440.77,-15.74 471.30,-43.22 491.09,-58.88L492.64,-57.91C491.19,-48.81 486.35,-33.49 471.44,-1.29L457.67,28.44L496.69,46.51L489.63,21.68L500.72,-2.27C520.23,-44.38 522.59,-50.56 524.87,-69.56L502.25,-73.77C495.14,-69.79 465.17,-47.31 442.97,-20.49Z" fill="#ffffff" stroke="#000000"/>
    <path d="M-395.39,-563.56L-394.87,-536.88L-444.40,-442.17L-466.82,-426.98L-424.95,-405.09C-398.04,-391.01 -357.28,-379.60 -342.27,-408.31C-331.63,-428.64 -340.23,-448.12 -361.04,-466.11C-343.96,-464.29 -323.42,-464.72 -314.04,-482.67C-301.63,-506.39 -323.22,-525.81 -351.93,-540.82ZM-362.64,-538.30L-356.06,-534.86C-343.10,-528.08 -328.13,-515.43 -340.65,-491.51C-348.78,-475.95 -366.99,-470.75 -391.32,-483.47ZM-426.67,-415.89L-393.92,-478.49C-369.60,-465.77 -356.10,-449.82 -369.87,-423.50C-379.88,-404.36 -401.35,-402.64 -420.69,-412.76ZM-286.78,-332.82L-250.30,-313.74L-255.83,-336.18L-212.76,-418.52L-238.68,-432.08L-242.05,-418.35C-251.02,-401.20 -284.01,-374.53 -304.09,-360.41C-300.72,-368.80 -294.64,-381.87 -277.02,-415.57L-259.92,-448.27L-299.69,-463.99L-293.90,-439.12L-319.03,-391.07C-326.65,-376.52 -330.94,-362.01 -333.08,-355.00L-314.30,-347.21C-307.09,-350.80 -276.42,-371.58 -253.21,-397.02ZM-138.21,-417.36L-145.16,-444.36L-171.50,-434.78L-164.45,-407.47ZM-199.86,-309.19L-156.69,-391.73L-200.16,-397.46L-194.63,-375.02L-231.76,-304.04L-194.08,-284.33ZM-117.06,-390.31L-120.19,-384.32L-136.77,-385.63L-131.25,-363.19L-177.13,-275.46L-139.45,-255.76L-145.23,-280.62L-80.16,-405.03L-122.59,-412.75ZM-37.17,-202.26L-44.62,-223.93L22.12,-351.53L-20.31,-359.25L-14.78,-336.81L-23.96,-319.26C-63.33,-334.78 -97.94,-318.60 -115.67,-284.71C-124.12,-268.56 -125.05,-250.76 -121.25,-243.45L-105.35,-237.92C-83.68,-250.71 -55.85,-270.43 -33.96,-295.29L-48.45,-273.42L-76.19,-220.38ZM-94.13,-251.61C-96.53,-252.86 -95.54,-263.01 -85.32,-282.54C-74.78,-302.68 -53.60,-327.66 -26.78,-313.88C-38.03,-292.85 -90.35,-249.63 -94.13,-251.61ZM14.87,-175.04L109.97,-125.30L134.79,-167.42L134.01,-168.34L87.61,-146.14L54.71,-163.35L85.06,-221.36L136.89,-194.25L141.59,-203.22L89.75,-230.34L118.64,-285.56L149.74,-269.30L154.92,-222.40L155.92,-221.88L177.82,-263.75L86.30,-311.62L86.82,-284.94L37.29,-190.23ZM154.43,-102.05C176.10,-114.84 203.94,-134.56 225.83,-159.42L211.34,-137.54L184.54,-86.30L222.62,-66.38L216.83,-91.25L253.33,-161.03L266.54,-167.83L243.81,-179.72C201.72,-200.72 164.71,-185.29 145.31,-148.21C136.87,-132.06 134.74,-114.89 138.53,-107.57ZM165.65,-115.73C163.26,-116.98 165.45,-126.50 175.67,-146.04C186.20,-166.18 206.19,-191.78 233.01,-178.00C221.76,-156.97 169.44,-113.75 165.65,-115.73ZM341.89,-89.06L342.90,-89.55L343.36,-131.20L340.77,-132.56C320.25,-121.97 297.34,-101.95 279.88,-82.65L313.04,-146.05L269.57,-151.77L275.10,-129.33L237.97,-58.35L262.49,-45.53L267.26,-58.52C277.79,-78.66 315.91,-110.27 319.33,-110.01ZM423.70,-82.84L424.84,-85.03L393.14,-101.61L410.87,-135.51L370.61,-113.40L356.46,-120.80L363.86,-101.95L334.25,-45.32C318.80,-14.81 333.02,-5.59 340.20,-1.84C352.56,4.63 376.43,-7.52 393.59,-26.73L391.81,-28.67C381.16,-18.50 364.26,-8.04 357.88,-11.38C352.50,-14.19 349.14,-17.48 360.61,-39.41L386.68,-89.25ZM489.06,-107.31L446.63,-115.03L452.15,-92.59L392.09,22.26L418.01,35.81L421.38,22.09C430.14,5.34 461.60,-20.35 481.90,-34.88L483.39,-33.85C481.51,-24.92 476.01,-10.03 459.74,21.08L444.72,49.79L482.41,69.49L476.62,44.63L488.72,21.50C509.99,-19.17 512.62,-25.16 515.77,-43.82L493.63,-49.06C486.42,-45.46 455.75,-24.69 432.54,0.75Z" fill="#ffffff" stroke="#000000"/>
    <path d="M-910.99,465.97L-908.82,469.92L-908.82,487.97L-910.99,492L-903.01,492C-897.88,492 -890.88,490.52 -890.88,485.05C-890.88,481.17 -893.70,478.93 -898.22,477.86C-895.52,476.80 -892.48,475.13 -892.48,471.71C-892.48,467.19 -897.23,465.97 -902.70,465.97ZM-904.11,467.19L-902.85,467.19C-900.38,467.19 -897.15,467.91 -897.15,472.47C-897.15,475.43 -899.47,477.64 -904.11,477.64ZM-904.11,490.52L-904.11,478.59C-899.47,478.59 -896.20,479.92 -896.20,484.93C-896.20,488.58 -899.28,490.52 -902.97,490.52ZM-886.02,470.11L-886.02,471.25L-888.60,472.35L-886.02,475.28L-886.02,492L-878.84,492L-881.65,488.73L-881.65,465.02L-888.60,467.19ZM-866.26,492L-859.31,492L-861.89,489.07L-861.89,473.38L-866.83,473.38L-866.26,475.70C-866.26,478.97 -869.11,485.54 -871.01,489.23C-871.16,487.71 -871.28,485.27 -871.28,478.85L-871.28,472.62L-878.46,473.38L-875.65,476.65L-875.65,485.81C-875.65,488.58 -875.15,491.09 -874.92,492.30L-871.50,492C-870.71,490.90 -867.74,485.39 -866.26,479.76ZM-846.42,492L-839.47,492L-842.05,489.07L-842.05,473.38L-846.99,473.38L-846.42,475.70C-846.42,478.97 -849.27,485.54 -851.17,489.23C-851.33,487.71 -851.44,485.27 -851.44,478.85L-851.44,472.62L-858.62,473.38L-855.81,476.65L-855.81,485.81C-855.81,488.58 -855.32,491.09 -855.09,492.30L-851.67,492C-850.87,490.90 -847.91,485.39 -846.42,479.76ZM-818.95,492L-813.33,492L-814.88,489.80L-814.88,469.50L-812.22,465.97L-819.75,465.97L-816.63,469.24L-816.63,487.67L-831.45,465.97L-837.42,465.97L-833.92,470.80L-833.92,488.47L-836.58,492L-829.13,492L-832.21,488.73L-832.21,473.42ZM-796.11,483.37C-796.11,483.37 -798.73,489.76 -801.47,489.76C-802.84,489.76 -803.86,487.59 -804.21,484.44L-795.85,477.26C-795.85,476.50 -796.99,472.89 -800.60,472.89C-805.27,472.89 -809.15,479.38 -809.15,484.86C-809.15,489.91 -806.90,492.46 -803.52,492.46C-799.84,492.46 -796.49,487.02 -795.50,483.75ZM-804.28,483.53C-804.32,482.99 -804.36,482.42 -804.36,481.82C-804.36,475.74 -803.18,474.48 -802.50,474.06C-802.00,473.72 -800.10,475.55 -799.91,479.38ZM-781.06,492L-774.68,492L-777.87,489.53L-782.39,481.74C-780.99,479.92 -778.59,476.65 -777.42,473.38L-782.85,473.38L-780.38,475.47C-780.38,477.60 -781.94,479.42 -782.93,480.83L-787.26,473.38L-793.64,473.38L-790.87,475.77L-786.54,482.99C-788.17,485.05 -791.48,488.92 -792.58,492L-786.80,492L-789.08,489.91C-789.08,487.90 -787.18,485.54 -785.97,483.91ZM-760.77,473.80L-760.77,473.38L-766.81,473.38L-766.81,466.92L-771.11,473.38L-773.81,473.38L-771.22,475.62L-771.22,486.41C-771.15,492.19 -768.30,492.46 -766.93,492.46C-764.57,492.46 -761.95,488.77 -760.89,484.55L-761.30,484.40C-762.10,486.76 -763.81,489.64 -765.03,489.64C-766.05,489.64 -766.81,489.42 -766.81,485.24L-766.81,475.74ZM-758.45,479.84L-758.45,482.73L-749.98,482.73L-749.98,479.84ZM-746.83,465.97L-744.66,469.92L-744.66,487.97L-746.83,492L-738.85,492C-733.72,492 -726.72,490.52 -726.72,485.05C-726.72,481.17 -729.54,478.93 -734.06,477.86C-731.36,476.80 -728.32,475.13 -728.32,471.71C-728.32,467.19 -733.07,465.97 -738.54,465.97ZM-739.95,467.19L-738.69,467.19C-736.22,467.19 -732.99,467.91 -732.99,472.47C-732.99,475.43 -735.31,477.64 -739.95,477.64ZM-739.95,490.52L-739.95,478.59C-735.31,478.59 -732.04,479.92 -732.04,484.93C-732.04,488.58 -735.12,490.52 -738.81,490.52ZM-723.80,484.44C-723.80,489.57 -720.68,492.53 -716.62,492.53C-711.45,492.53 -706.96,487.10 -706.96,481.17C-706.96,476.15 -709.85,472.92 -714.60,472.92C-719.96,472.92 -723.80,478.32 -723.80,484.44ZM-716.08,474.14C-714.94,474.14 -711.98,476.19 -711.98,482.88C-711.98,489.15 -714.22,491.28 -715.36,491.28C-716.50,491.28 -719.01,488.20 -719.01,481.89C-719.01,475.17 -717.22,474.14 -716.08,474.14ZM-702.82,470.11L-702.82,471.25L-705.41,472.35L-702.82,475.28L-702.82,492L-695.64,492L-698.45,488.73L-698.45,465.02L-705.41,467.19ZM-676.15,492L-678.96,489.34L-678.96,465.02L-685.91,467.19L-683.33,470.11L-683.33,473.46C-690.43,474.22 -694.35,479.35 -694.35,485.81C-694.35,488.88 -693.09,491.62 -691.95,492.42L-689.14,492C-686.90,488.39 -684.28,483.26 -682.95,477.83L-683.40,482.23L-683.40,492.34ZM-688.53,489.07C-688.99,489.07 -689.64,487.48 -689.64,483.75C-689.64,479.92 -688.42,474.52 -683.33,474.48C-683.37,478.51 -687.81,489.07 -688.53,489.07ZM-671.36,487.97L-674.02,492L-663.99,492L-666.65,487.97L-666.65,470.00L-663.99,465.97L-674.02,465.97L-671.36,470.00ZM-649.13,473.80L-649.13,473.38L-655.17,473.38L-655.17,466.92L-659.46,473.38L-662.16,473.38L-659.58,475.62L-659.58,486.41C-659.50,492.19 -656.65,492.46 -655.28,492.46C-652.93,492.46 -650.31,488.77 -649.24,484.55L-649.66,484.40C-650.46,486.76 -652.17,489.64 -653.38,489.64C-654.41,489.64 -655.17,489.42 -655.17,485.24L-655.17,475.74ZM-642.29,492C-640.05,488.39 -637.42,483.26 -636.09,477.83L-636.55,482.23L-636.55,492L-629.29,492L-632.10,488.73L-632.10,475.43L-630.66,473.38L-634.99,473.38C-642.93,473.53 -647.27,478.74 -647.27,485.81C-647.27,488.88 -646.24,491.62 -645.10,492.42ZM-641.68,489.07C-642.14,489.07 -642.55,487.48 -642.55,483.75C-642.55,479.92 -641.57,474.52 -636.47,474.48C-636.51,478.51 -640.96,489.07 -641.68,489.07ZM-626.06,470.11L-626.06,471.25L-628.65,472.35L-626.06,475.28L-626.06,492L-618.88,492L-621.69,488.73L-621.69,465.02L-628.65,467.19ZM-610.52,467.72L-613.67,464.22L-616.87,467.72L-613.67,471.25ZM-611.28,488.73L-611.28,473L-618.23,475.55L-615.65,478.47L-615.65,492L-608.47,492ZM-594.98,478.32L-594.86,478.17L-597.52,472.85L-597.90,472.85C-602.54,474.03 -607.18,479.27 -607.18,485.05C-607.18,490.10 -604.74,492.46 -601.59,492.46C-599.61,492.46 -596.08,489.53 -594.10,483.72L-594.71,483.34C-596.46,487.36 -598.51,489.76 -599.77,489.76C-601.48,489.76 -602.39,486.68 -602.39,481.78C-602.39,479.27 -601.74,475.77 -601.02,475.77Z"/>
</svg>