<?xml version="1.0"?>
<svg xmlns="http://www.w3.org/2000/svg" width="1920" height="1080" viewBox="-960 -540 1920 1080">
    <path d="M-763.13,-263.50L-748.63,-227.25L-770.38,-210L-697.13,-210L-714.88,-226.75L-779.38,-383.75L-790.38,-383.75L-850.88,-229.75L-867.88,-210L-815.13,-210L-837.88,-229.50L-824.88,-263.50ZM-767.38,-274.75L-820.63,-274.75L-794.63,-343.25ZM-643.38,-335L-689.13,-318.25L-672.13,-299L-672.13,-210L-639.63,-210L-643.38,-225.25C-643.38,-246.25 -625.63,-287.75 -613.13,-312.50L-611.13,-312.25C-608.38,-302.50 -606.13,-285 -606.13,-246L-606.13,-210L-558.88,-210L-577.38,-231.50L-577.38,-260.50C-577.38,-311.50 -577.88,-318.75 -584.38,-338.75L-608.88,-332.50C-614.13,-325.25 -633.63,-289 -643.38,-252ZM-476.63,-236.50L-494.13,-210L-428.13,-210L-445.63,-236.50L-445.63,-354.75L-428.13,-381.25L-494.13,-381.25L-476.63,-354.75ZM-368.13,-335L-413.88,-318.25L-396.88,-299L-396.88,-210L-364.38,-210L-368.13,-225.25C-368.13,-246.25 -350.38,-287.75 -337.88,-312.50L-335.88,-312.25C-333.13,-302.50 -330.88,-285 -330.88,-246L-330.88,-210L-283.63,-210L-302.13,-231.50L-302.13,-260.50C-302.13,-311.50 -302.63,-318.75 -309.13,-338.75L-333.63,-332.50C-338.88,-325.25 -358.38,-289 -368.13,-252ZM-194.63,-329.75L-194.63,-332.50L-234.38,-332.50L-234.38,-375L-262.63,-332.50L-280.38,-332.50L-263.38,-317.75L-263.38,-246.75C-262.88,-208.75 -244.13,-207 -235.13,-207C-219.63,-207 -202.38,-231.25 -195.38,-259L-198.13,-260C-203.38,-244.50 -214.63,-225.50 -222.63,-225.50C-229.38,-225.50 -234.38,-227 -234.38,-254.50L-234.38,-317ZM-85.13,-293.75L-84.38,-294.75L-105.38,-336L-108.63,-336C-123.38,-315 -135.63,-283.50 -142.88,-255.50L-142.88,-335L-188.63,-318.25L-171.63,-299L-171.63,-210L-140.88,-210L-142.88,-225.25C-142.88,-250.50 -121.63,-301.25 -118.13,-302.75ZM-80.13,-259.75C-80.13,-226 -59.63,-206.50 -32.88,-206.50C1.13,-206.50 30.63,-242.25 30.63,-281.25C30.63,-314.25 11.63,-335.50 -19.63,-335.50C-54.88,-335.50 -80.13,-300 -80.13,-259.75ZM-29.38,-327.50C-21.88,-327.50 -2.38,-314 -2.38,-270C-2.38,-228.75 -17.13,-214.75 -24.63,-214.75C-32.13,-214.75 -48.63,-235 -48.63,-276.50C-48.63,-320.75 -36.88,-327.50 -29.38,-327.50ZM164.88,-210L146.38,-227.50L146.38,-387.50L100.63,-373.25L117.63,-354L117.63,-332C70.88,-327 45.13,-293.25 45.13,-250.75C45.13,-230.50 53.38,-212.50 60.88,-207.25L79.38,-210C94.13,-233.75 111.38,-267.50 120.13,-303.25L117.13,-274.25L117.13,-207.75ZM83.38,-229.25C80.38,-229.25 76.13,-239.75 76.13,-264.25C76.13,-289.50 84.13,-325 117.63,-325.25C117.38,-298.75 88.13,-229.25 83.38,-229.25ZM248.63,-210L294.38,-210L277.38,-229.25L277.38,-332.50L244.88,-332.50L248.63,-317.25C248.63,-295.75 229.88,-252.50 217.38,-228.25C216.38,-238.25 215.63,-254.25 215.63,-296.50L215.63,-337.50L168.38,-332.50L186.88,-311L186.88,-250.75C186.88,-232.50 190.13,-216 191.63,-208L214.13,-210C219.38,-217.25 238.88,-253.50 248.63,-290.50ZM385.13,-300L385.88,-301L368.38,-336L365.88,-336C335.38,-328.25 304.88,-293.75 304.88,-255.75C304.88,-222.50 320.88,-207 341.63,-207C354.63,-207 377.88,-226.25 390.88,-264.50L386.88,-267C375.38,-240.50 361.88,-224.75 353.63,-224.75C342.38,-224.75 336.38,-245 336.38,-277.25C336.38,-293.75 340.63,-316.75 345.38,-316.75ZM478.88,-329.75L478.88,-332.50L439.13,-332.50L439.13,-375L410.88,-332.50L393.13,-332.50L410.13,-317.75L410.13,-246.75C410.63,-208.75 429.38,-207 438.38,-207C453.88,-207 471.13,-231.25 478.13,-259L475.38,-260C470.13,-244.50 458.88,-225.50 450.88,-225.50C444.13,-225.50 439.13,-227 439.13,-254.50L439.13,-317ZM537.63,-369.75L516.88,-392.75L495.88,-369.75L516.88,-346.50ZM532.63,-231.50L532.63,-335L486.88,-318.25L503.88,-299L503.88,-210L551.13,-210ZM559.63,-259.75C559.63,-226 580.13,-206.50 606.88,-206.50C640.88,-206.50 670.38,-242.25 670.38,-281.25C670.38,-314.25 651.38,-335.50 620.13,-335.50C584.88,-335.50 559.63,-300 559.63,-259.75ZM610.38,-327.50C617.88,-327.50 637.38,-314 637.38,-270C637.38,-228.75 622.63,-214.75 615.13,-214.75C607.63,-214.75 591.13,-235 591.13,-276.50C591.13,-320.75 602.88,-327.50 610.38,-327.50ZM725.88,-335L680.13,-318.25L697.13,-299L697.13,-210L729.63,-210L725.88,-225.25C725.88,-246.25 743.63,-287.75 756.13,-312.50L758.13,-312.25C760.88,-302.50 763.13,-285 763.13,-246L763.13,-210L810.38,-210L791.88,-231.50L791.88,-260.50C791.88,-311.50 791.38,-318.75 784.88,-338.75L760.38,-332.50C755.13,-325.25 735.63,-289 725.88,-252Z" fill="#ffffff" stroke="#000000"/>
    <path d="M-760.25,-261.38L-746.05,-225.43L-767.67,-208.45L-695.15,-208.11L-712.64,-224.78L-775.79,-380.50L-786.68,-380.55L-847.27,-228.36L-864.19,-208.89L-811.97,-208.65L-834.40,-228.06L-821.38,-261.66ZM-764.40,-272.53L-817.12,-272.78L-791.07,-340.47ZM-641.37,-331.62L-686.74,-315.24L-670.00,-296.11L-670.40,-208.00L-638.22,-207.85L-641.87,-222.97C-641.77,-243.76 -624.01,-284.76 -611.52,-309.21L-609.55,-308.95C-606.87,-299.29 -604.72,-281.95 -604.90,-243.34L-605.06,-207.70L-558.28,-207.49L-576.50,-228.86L-576.37,-257.57C-576.14,-308.06 -576.60,-315.24 -582.94,-335.06L-607.23,-328.99C-612.46,-321.83 -631.93,-286.04 -641.75,-249.45ZM-476.74,-233.35L-494.18,-207.19L-428.84,-206.90L-446.05,-233.21L-445.51,-350.28L-428.07,-376.43L-493.40,-376.73L-476.20,-350.42ZM-368.88,-330.37L-414.24,-314.00L-397.50,-294.86L-397.90,-206.75L-365.73,-206.61L-369.37,-221.72C-369.28,-242.51 -351.52,-283.51 -339.03,-307.96L-337.05,-307.70C-334.37,-298.04 -332.22,-280.70 -332.40,-242.09L-332.56,-206.45L-285.79,-206.24L-304.01,-227.61L-303.87,-256.32C-303.64,-306.81 -304.10,-313.99 -310.45,-333.82L-334.73,-327.74C-339.96,-320.59 -359.43,-284.79 -369.25,-248.20ZM-197.14,-324.39L-197.12,-327.11L-236.48,-327.29L-236.28,-369.37L-264.44,-327.42L-282.02,-327.50L-265.25,-312.82L-265.57,-242.53C-265.25,-204.91 -246.70,-203.09 -237.79,-203.05C-222.44,-202.98 -205.25,-226.91 -198.20,-254.35L-200.92,-255.35C-206.18,-240.03 -217.41,-221.27 -225.33,-221.31C-232.01,-221.34 -236.95,-222.85 -236.83,-250.07L-236.55,-311.95ZM-88.90,-288.25L-88.15,-289.24L-108.75,-330.17L-111.97,-330.19C-126.67,-309.46 -138.94,-278.33 -146.24,-250.65L-145.88,-329.35L-191.25,-312.98L-174.51,-293.84L-174.91,-205.73L-144.47,-205.59L-146.38,-220.70C-146.26,-245.70 -125.00,-295.84 -121.52,-297.31ZM-84.10,-254.57C-84.25,-221.16 -64.05,-201.76 -37.56,-201.64C-3.90,-201.48 25.46,-236.74 25.64,-275.35C25.79,-308.02 7.08,-329.15 -23.86,-329.29C-58.76,-329.45 -83.92,-294.42 -84.10,-254.57ZM-33.55,-321.41C-26.13,-321.38 -6.88,-307.92 -7.08,-264.37C-7.27,-223.53 -21.93,-209.74 -29.36,-209.77C-36.78,-209.80 -53.03,-229.93 -52.84,-271.01C-52.64,-314.82 -40.98,-321.45 -33.55,-321.41ZM158.22,-204.21L139.99,-221.62L140.71,-380.01L95.36,-366.11L112.10,-346.98L112.00,-325.20C65.69,-320.46 40.05,-287.17 39.86,-245.09C39.76,-225.05 47.85,-207.19 55.25,-201.96L73.58,-204.60C88.29,-228.04 105.52,-261.37 114.34,-296.73L111.24,-268.03L110.94,-202.20ZM77.63,-223.63C74.66,-223.65 70.50,-234.06 70.61,-258.32C70.72,-283.31 78.80,-318.42 111.97,-318.52C111.60,-292.28 82.33,-223.61 77.63,-223.63ZM241.13,-203.83L286.43,-203.62L269.68,-222.76L270.15,-324.97L237.98,-325.12L241.62,-310.00C241.52,-288.72 222.76,-245.99 210.28,-222.04C209.34,-231.94 208.67,-247.78 208.86,-289.61L209.04,-330.20L162.24,-325.47L180.46,-304.10L180.19,-244.45C180.10,-226.38 183.25,-210.03 184.70,-202.11L206.98,-203.98C212.21,-211.14 231.68,-246.94 241.50,-283.52ZM376.68,-292.31L377.42,-293.30L360.26,-328.02L357.78,-328.04C327.55,-320.50 297.20,-286.49 297.03,-248.87C296.88,-215.95 312.65,-200.53 333.19,-200.44C346.06,-200.38 369.16,-219.33 382.21,-257.14L378.26,-259.63C366.75,-233.45 353.32,-217.92 345.15,-217.95C334.01,-218.01 328.16,-238.08 328.31,-270.01C328.39,-286.34 332.70,-309.09 337.40,-309.07ZM469.62,-321.34L469.63,-324.06L430.28,-324.24L430.48,-366.31L402.32,-324.37L384.74,-324.45L401.51,-309.77L401.18,-239.48C401.51,-201.86 420.06,-200.04 428.97,-200.00C444.32,-199.93 461.50,-223.86 468.56,-251.30L465.84,-252.30C460.57,-236.98 449.35,-218.22 441.43,-218.26C434.75,-218.29 429.80,-219.79 429.93,-247.02L430.21,-308.89ZM527.97,-360.67L507.53,-383.53L486.63,-360.86L507.32,-337.75ZM522.39,-223.83L522.86,-326.29L477.49,-309.91L494.23,-290.78L493.83,-202.67L540.61,-202.46ZM549.25,-251.67C549.09,-218.26 569.30,-198.86 595.78,-198.74C629.44,-198.59 658.81,-233.84 658.99,-272.45C659.13,-305.12 640.42,-326.25 609.48,-326.39C574.59,-326.55 549.43,-291.52 549.25,-251.67ZM599.80,-318.51C607.22,-318.48 626.46,-305.03 626.26,-261.47C626.08,-220.63 611.41,-206.84 603.99,-206.87C596.56,-206.90 580.32,-227.03 580.51,-268.11C580.71,-311.92 592.37,-318.55 599.80,-318.51ZM714.17,-325.41L668.81,-309.04L685.55,-289.90L685.14,-201.80L717.32,-201.65L713.68,-216.76C713.77,-237.55 731.53,-278.56 744.02,-303.00L746.00,-302.75C748.68,-293.08 750.82,-275.75 750.65,-237.14L750.48,-201.50L797.26,-201.28L779.04,-222.65L779.18,-251.36C779.41,-301.85 778.94,-309.03 772.60,-328.86L748.32,-322.78C743.09,-315.63 723.62,-279.83 713.80,-243.25Z" fill="#ffffff" stroke="#000000"/>
    <path d="M-757.28,-259.29L-743.40,-223.64L-764.87,-206.93L-693.08,-206.27L-710.33,-222.85L-772.13,-377.28L-782.91,-377.38L-843.57,-227.01L-860.41,-207.81L-808.72,-207.33L-830.84,-226.65L-817.79,-259.85ZM-761.34,-270.36L-813.53,-270.83L-787.43,-337.73ZM-639.29,-328.29L-684.27,-312.28L-667.79,-293.27L-668.58,-206.05L-636.74,-205.76L-640.27,-220.74C-640.09,-241.32 -622.32,-281.82 -609.85,-305.97L-607.89,-305.70C-605.28,-296.12 -603.23,-278.95 -603.58,-240.74L-603.91,-205.46L-557.60,-205.03L-575.54,-226.27L-575.28,-254.69C-574.82,-304.67 -575.25,-311.77 -581.44,-331.43L-605.50,-325.53C-610.71,-318.47 -630.15,-283.12 -640.03,-246.95ZM-476.76,-230.26L-494.15,-204.45L-429.47,-203.86L-446.39,-229.99L-445.32,-345.87L-427.94,-371.68L-492.61,-372.27L-475.70,-346.14ZM-369.56,-325.82L-414.54,-309.81L-398.05,-290.80L-398.85,-203.58L-367.00,-203.29L-370.54,-218.27C-370.35,-238.85 -352.58,-279.35 -340.11,-303.50L-338.16,-303.23C-335.55,-293.65 -333.50,-276.48 -333.85,-238.27L-334.17,-202.99L-287.87,-202.56L-305.81,-223.80L-305.55,-252.22C-305.09,-302.20 -305.51,-309.31 -311.70,-328.96L-335.77,-323.06C-340.98,-316.00 -360.41,-280.65 -370.30,-244.48ZM-199.58,-319.12L-199.55,-321.81L-238.51,-322.17L-238.13,-363.82L-266.19,-322.42L-283.59,-322.58L-267.06,-307.97L-267.70,-238.40C-267.55,-201.15 -249.19,-199.27 -240.37,-199.19C-225.18,-199.05 -208.06,-222.66 -200.95,-249.79L-203.63,-250.79C-208.92,-235.65 -220.11,-217.13 -227.95,-217.21C-234.57,-217.27 -239.45,-218.78 -239.21,-245.73L-238.65,-306.98ZM-92.60,-282.85L-91.85,-283.83L-112.06,-324.44L-115.25,-324.47C-129.89,-304.02 -142.18,-273.26 -149.53,-245.89L-148.82,-323.80L-193.80,-307.79L-177.32,-288.78L-178.11,-201.56L-147.98,-201.28L-149.80,-216.25C-149.58,-240.99 -128.30,-290.53 -124.85,-291.97ZM-88.00,-249.49C-88.30,-216.42 -68.39,-197.12 -42.18,-196.88C-8.86,-196.58 20.37,-231.35 20.72,-269.57C21.02,-301.91 2.59,-322.90 -28.03,-323.18C-62.58,-323.50 -87.64,-288.93 -88.00,-249.49ZM-37.66,-315.43C-30.31,-315.36 -11.32,-301.96 -11.72,-258.84C-12.09,-218.41 -26.67,-204.83 -34.02,-204.90C-41.37,-204.96 -57.36,-224.95 -56.98,-265.62C-56.59,-308.99 -45.01,-315.50 -37.66,-315.43ZM151.64,-198.54L133.67,-215.86L135.10,-372.65L90.14,-359.09L106.63,-340.08L106.43,-318.52C60.58,-314.04 35.04,-281.20 34.66,-239.55C34.48,-219.70 42.40,-201.99 49.70,-196.78L67.86,-199.31C82.52,-222.45 99.73,-255.37 108.63,-290.32L105.42,-261.93L104.83,-196.76ZM71.95,-218.14C69.01,-218.16 64.94,-228.49 65.16,-252.50C65.38,-277.24 73.54,-311.96 106.37,-311.90C105.89,-285.94 76.60,-218.09 71.95,-218.14ZM233.71,-197.79L278.55,-197.38L262.06,-216.39L262.99,-317.58L231.14,-317.87L234.68,-302.89C234.48,-281.82 215.72,-239.61 203.25,-215.95C202.36,-225.76 201.77,-241.45 202.15,-282.85L202.52,-323.03L156.17,-318.55L174.11,-297.32L173.57,-238.28C173.40,-220.39 176.44,-204.19 177.84,-196.34L199.90,-198.10C205.11,-205.16 224.55,-240.50 234.44,-276.68ZM368.28,-284.76L369.03,-285.73L352.19,-320.19L349.74,-320.21C319.79,-312.89 289.59,-279.36 289.25,-242.12C288.95,-209.53 304.49,-194.20 324.82,-194.01C337.56,-193.90 360.52,-212.55 373.60,-249.92L369.70,-252.41C358.20,-226.54 344.83,-211.23 336.74,-211.30C325.72,-211.40 320.02,-231.30 320.31,-262.90C320.46,-279.07 324.83,-301.57 329.48,-301.53ZM460.42,-313.07L460.45,-315.77L421.49,-316.12L421.88,-357.77L393.81,-316.38L376.42,-316.54L392.94,-301.93L392.31,-232.35C392.46,-195.11 410.81,-193.23 419.63,-193.15C434.82,-193.01 451.94,-216.62 459.05,-243.75L456.37,-244.75C451.08,-229.61 439.89,-211.09 432.05,-211.16C425.43,-211.22 420.55,-212.74 420.79,-239.69L421.36,-300.94ZM518.35,-351.74L498.23,-374.47L477.44,-352.12L497.81,-329.15ZM512.21,-216.31L513.14,-317.74L468.16,-301.73L484.65,-282.71L483.85,-195.50L530.15,-195.07ZM538.93,-243.75C538.62,-210.68 558.54,-191.38 584.75,-191.14C618.07,-190.84 647.30,-225.61 647.65,-263.83C647.95,-296.17 629.52,-317.16 598.89,-317.44C564.35,-317.76 539.29,-283.19 538.93,-243.75ZM589.27,-309.69C596.62,-309.62 615.61,-296.22 615.21,-253.10C614.84,-212.67 600.26,-199.09 592.91,-199.16C585.56,-199.22 569.57,-219.21 569.95,-259.88C570.34,-303.25 581.92,-309.76 589.27,-309.69ZM702.52,-316.00L657.54,-300.00L674.02,-280.98L673.22,-193.76L705.07,-193.47L701.54,-208.45C701.72,-229.03 719.49,-269.54 731.96,-293.68L733.92,-293.42C736.53,-283.84 738.57,-266.67 738.22,-228.45L737.90,-193.17L784.21,-192.75L766.27,-213.98L766.53,-242.40C766.99,-292.38 766.56,-299.49 760.37,-319.15L736.31,-313.24C731.10,-306.18 711.66,-270.84 701.78,-234.66Z" fill="#ffffff" stroke="#000000"/>
    <path d="M-754.23,-257.25L-740.65,-221.89L-761.97,-205.45L-690.93,-204.48L-707.92,-220.96L-768.39,-374.09L-779.06,-374.24L-839.79,-225.68L-856.54,-206.75L-805.38,-206.05L-827.18,-225.27L-814.12,-258.07ZM-758.20,-268.21L-809.85,-268.92L-783.72,-335.02ZM-637.13,-325.00L-681.73,-309.36L-665.50,-290.47L-666.68,-204.14L-635.16,-203.71L-638.59,-218.55C-638.31,-238.92 -620.54,-278.94 -608.09,-302.77L-606.15,-302.51C-603.62,-293.01 -601.67,-276.01 -602.19,-238.18L-602.67,-203.27L-556.84,-202.64L-574.50,-223.74L-574.11,-251.86C-573.43,-301.33 -573.82,-308.37 -579.86,-327.85L-603.70,-322.12C-608.89,-315.15 -628.29,-280.25 -638.24,-244.50ZM-476.71,-227.24L-494.04,-201.77L-430.02,-200.89L-446.64,-226.83L-445.07,-341.52L-427.74,-366.99L-491.76,-367.87L-475.14,-341.93ZM-370.16,-321.33L-414.76,-305.70L-398.53,-286.80L-399.71,-200.48L-368.19,-200.05L-371.63,-214.89C-371.35,-235.25 -353.58,-275.27 -341.12,-299.11L-339.19,-298.84C-336.65,-289.35 -334.70,-272.34 -335.22,-234.52L-335.70,-199.60L-289.87,-198.97L-307.53,-220.07L-307.14,-248.20C-306.46,-297.66 -306.85,-304.70 -312.89,-324.18L-336.73,-318.45C-341.92,-311.49 -361.32,-276.59 -371.27,-240.83ZM-201.95,-313.93L-201.92,-316.60L-240.47,-317.13L-239.91,-358.35L-267.87,-317.50L-285.09,-317.74L-268.80,-303.21L-269.74,-234.34C-269.76,-197.48 -251.60,-195.53 -242.87,-195.41C-227.84,-195.21 -210.78,-218.50 -203.62,-245.32L-206.28,-246.33C-211.58,-231.36 -222.74,-213.08 -230.50,-213.19C-237.05,-213.28 -241.88,-214.80 -241.51,-241.47L-240.68,-302.09ZM-96.23,-277.56L-95.49,-278.52L-115.31,-318.80L-118.46,-318.85C-133.04,-298.68 -145.35,-268.29 -152.75,-241.23L-151.69,-318.33L-196.29,-302.70L-180.06,-283.80L-181.24,-197.48L-151.42,-197.07L-153.15,-211.89C-152.82,-236.38 -131.53,-285.32 -128.12,-286.72ZM-91.83,-244.51C-92.28,-211.78 -72.66,-192.59 -46.71,-192.23C-13.74,-191.78 15.35,-226.06 15.87,-263.89C16.31,-295.90 -1.83,-316.76 -32.14,-317.18C-66.33,-317.65 -91.30,-283.55 -91.83,-244.51ZM-41.71,-309.55C-34.43,-309.45 -15.70,-296.09 -16.29,-253.42C-16.83,-213.41 -31.33,-200.03 -38.60,-200.13C-45.88,-200.23 -61.61,-220.09 -61.06,-260.34C-60.47,-303.26 -48.98,-309.65 -41.71,-309.55ZM145.13,-193.00L127.42,-210.21L129.55,-365.40L84.99,-352.19L101.22,-333.29L100.93,-311.95C55.52,-307.73 30.10,-275.34 29.53,-234.11C29.26,-214.47 37.02,-196.91 44.23,-191.71L62.21,-194.13C76.83,-216.97 94.01,-249.48 102.97,-284.04L99.68,-255.95L98.79,-191.45ZM66.34,-212.75C63.43,-212.79 59.45,-223.03 59.78,-246.79C60.11,-271.29 68.34,-305.61 100.84,-305.41C100.24,-279.71 70.95,-212.69 66.34,-212.75ZM226.36,-191.88L270.74,-191.27L254.50,-210.17L255.88,-310.31L224.36,-310.74L227.79,-295.90C227.50,-275.05 208.74,-233.35 196.30,-210.00C195.46,-219.71 194.95,-235.24 195.51,-276.22L196.05,-315.98L150.16,-311.76L167.82,-290.66L167.01,-232.23C166.77,-214.53 169.70,-198.48 171.05,-190.70L192.90,-192.34C198.09,-199.30 217.49,-234.20 227.43,-269.96ZM359.95,-277.35L360.69,-278.31L344.19,-312.49L341.76,-312.53C312.08,-305.42 282.04,-272.36 281.53,-235.50C281.09,-203.25 296.40,-188.01 316.52,-187.73C329.13,-187.56 351.94,-205.92 365.06,-242.84L361.21,-245.32C349.70,-219.77 336.40,-204.68 328.40,-204.79C317.49,-204.94 311.94,-224.66 312.37,-255.94C312.59,-271.94 317.02,-294.19 321.62,-294.13ZM451.28,-304.96L451.32,-307.63L412.76,-308.16L413.33,-349.38L385.36,-308.53L368.15,-308.77L384.44,-294.24L383.49,-225.37C383.47,-188.51 401.63,-186.56 410.36,-186.44C425.40,-186.24 442.45,-209.53 449.61,-236.35L446.96,-237.35C441.66,-222.39 430.49,-204.11 422.73,-204.22C416.19,-204.31 411.36,-205.83 411.72,-232.50L412.56,-293.12ZM508.79,-342.97L488.97,-365.56L468.30,-343.53L488.36,-320.70ZM502.10,-208.95L503.48,-309.34L458.89,-293.70L475.12,-274.80L473.93,-188.48L519.76,-187.85ZM528.67,-235.99C528.22,-203.26 547.84,-184.07 573.79,-183.71C606.76,-183.26 635.85,-217.54 636.37,-255.37C636.81,-287.37 618.66,-308.24 588.36,-308.65C554.17,-309.12 529.20,-275.03 528.67,-235.99ZM578.79,-301.03C586.07,-300.93 604.80,-287.57 604.21,-244.90C603.66,-204.89 589.17,-191.50 581.90,-191.60C574.62,-191.70 558.89,-211.56 559.44,-251.82C560.03,-294.73 571.52,-301.12 578.79,-301.03ZM690.92,-306.76L646.32,-291.12L662.55,-272.23L661.37,-185.91L692.89,-185.47L689.45,-200.31C689.73,-220.68 707.50,-260.70 719.96,-284.53L721.89,-284.27C724.43,-274.77 726.38,-257.77 725.86,-219.94L725.38,-185.03L771.21,-184.40L753.55,-205.50L753.94,-233.62C754.62,-283.09 754.23,-290.13 748.19,-309.61L724.35,-303.88C719.16,-296.91 699.76,-262.02 689.81,-226.26Z" fill="#ffffff" stroke="#000000"/>
    <path d="M-751.09,-255.24L-737.81,-220.19L-758.99,-204.01L-688.68,-202.72L-705.43,-219.11L-764.58,-370.94L-775.13,-371.13L-835.91,-224.38L-852.58,-205.72L-801.94,-204.80L-823.44,-223.91L-810.36,-256.32ZM-754.97,-266.11L-806.09,-267.04L-779.93,-332.34ZM-634.90,-321.76L-679.10,-306.49L-663.12,-287.71L-664.69,-202.28L-633.49,-201.71L-636.82,-216.42C-636.46,-236.57 -618.69,-276.09 -606.26,-299.63L-604.34,-299.36C-601.87,-289.95 -600.02,-273.11 -600.71,-235.68L-601.34,-201.12L-555.99,-200.29L-573.37,-221.26L-572.86,-249.09C-571.96,-298.04 -572.31,-305.01 -578.20,-324.32L-601.82,-318.75C-606.99,-311.89 -626.35,-277.43 -636.35,-242.09ZM-476.57,-224.28L-493.84,-199.16L-430.49,-198.00L-446.82,-223.74L-444.74,-337.24L-427.48,-362.37L-490.83,-363.53L-474.49,-337.78ZM-370.70,-316.92L-414.91,-301.65L-398.93,-282.87L-400.49,-197.45L-369.30,-196.87L-372.63,-211.58C-372.26,-231.73 -354.49,-271.26 -342.06,-294.79L-340.14,-294.52C-337.68,-285.11 -335.82,-268.27 -336.51,-230.84L-337.14,-196.29L-291.79,-195.46L-309.17,-216.42L-308.66,-244.25C-307.76,-293.20 -308.12,-300.17 -314.00,-319.48L-337.63,-313.91C-342.80,-307.05 -362.15,-272.60 -372.16,-237.25ZM-204.26,-308.83L-204.21,-311.47L-242.36,-312.17L-241.62,-352.96L-269.48,-312.67L-286.52,-312.98L-270.46,-298.52L-271.71,-230.37C-271.90,-193.89 -253.93,-191.88 -245.29,-191.72C-230.41,-191.45 -213.43,-214.42 -206.22,-240.94L-208.85,-241.94C-214.16,-227.16 -225.29,-209.12 -232.97,-209.26C-239.45,-209.38 -244.22,-210.91 -243.74,-237.30L-242.64,-297.29ZM-99.79,-272.35L-99.05,-273.30L-118.48,-313.26L-121.60,-313.32C-136.13,-293.42 -148.44,-263.40 -155.89,-236.65L-154.50,-312.96L-198.70,-297.69L-182.72,-278.91L-184.29,-193.49L-154.77,-192.95L-156.42,-207.62C-155.98,-231.85 -134.69,-280.19 -131.31,-281.57ZM-95.59,-239.63C-96.18,-207.24 -76.85,-188.16 -51.17,-187.69C-18.54,-187.09 10.41,-220.89 11.09,-258.32C11.67,-289.99 -6.19,-310.73 -36.19,-311.27C-70.02,-311.89 -94.88,-278.26 -95.59,-239.63ZM-45.69,-303.77C-38.49,-303.64 -20.01,-290.33 -20.78,-248.10C-21.51,-208.51 -35.91,-195.33 -43.11,-195.46C-50.31,-195.59 -65.79,-215.32 -65.06,-255.15C-64.28,-297.63 -52.88,-303.90 -45.69,-303.77ZM138.70,-187.57L121.25,-204.69L124.06,-358.27L79.90,-345.40L95.88,-326.62L95.49,-305.50C50.53,-301.53 25.22,-269.58 24.47,-228.79C24.12,-209.35 31.72,-191.93 38.83,-186.76L56.63,-189.07C71.21,-211.61 88.36,-243.70 97.38,-277.86L93.99,-250.08L92.83,-186.25ZM60.81,-207.48C57.93,-207.53 54.03,-217.69 54.47,-241.20C54.91,-265.44 63.21,-299.37 95.37,-299.02C94.67,-273.59 65.37,-207.40 60.81,-207.48ZM219.08,-186.10L263.00,-185.30L247.02,-204.07L248.83,-303.17L217.64,-303.75L220.97,-289.04C220.59,-268.41 201.83,-227.22 189.41,-204.17C188.63,-213.78 188.19,-229.15 188.93,-269.71L189.65,-309.06L144.21,-305.09L161.59,-284.13L160.53,-226.30C160.21,-208.78 163.04,-192.89 164.34,-185.18L185.97,-186.71C191.14,-193.57 210.49,-228.02 220.50,-263.37ZM351.68,-270.09L352.42,-271.03L336.24,-304.93L333.84,-304.98C304.43,-298.08 274.55,-265.50 273.88,-229.02C273.29,-197.11 288.38,-181.95 308.30,-181.59C320.77,-181.36 343.43,-199.43 356.58,-235.91L352.78,-238.38C341.28,-213.15 328.05,-198.27 320.13,-198.41C309.33,-198.61 303.93,-218.15 304.49,-249.11C304.78,-264.94 309.27,-286.95 313.82,-286.86ZM442.19,-296.99L442.24,-299.63L404.09,-300.33L404.83,-341.12L376.97,-300.83L359.93,-301.14L375.99,-286.68L374.74,-218.54C374.56,-182.05 392.52,-180.04 401.16,-179.89C416.04,-179.61 433.02,-202.59 440.23,-229.10L437.61,-230.11C432.29,-215.32 421.16,-197.28 413.48,-197.42C407.01,-197.54 402.23,-199.07 402.72,-225.46L403.81,-285.45ZM499.29,-334.35L479.77,-356.80L459.21,-335.09L478.96,-312.40ZM492.06,-201.74L493.88,-301.09L449.67,-285.81L465.65,-267.04L464.08,-181.61L509.44,-180.78ZM518.47,-228.39C517.88,-195.99 537.21,-176.91 562.88,-176.44C595.52,-175.85 624.46,-209.64 625.15,-247.08C625.73,-278.75 607.87,-299.48 577.87,-300.03C544.04,-300.65 519.18,-267.02 518.47,-228.39ZM568.37,-292.52C575.57,-292.39 594.05,-279.09 593.28,-236.86C592.55,-197.26 578.15,-184.09 570.95,-184.22C563.75,-184.35 548.27,-204.08 549.00,-243.91C549.78,-286.38 561.17,-292.65 568.37,-292.52ZM679.36,-297.69L635.16,-282.42L651.14,-263.64L649.57,-178.22L680.77,-177.65L677.44,-192.35C677.80,-212.51 695.57,-252.03 708.00,-275.56L709.92,-275.29C712.39,-265.88 714.24,-249.04 713.55,-211.61L712.92,-177.06L758.27,-176.23L740.89,-197.19L741.40,-225.02C742.30,-273.97 741.95,-280.94 736.06,-300.25L712.44,-294.68C707.27,-287.82 687.91,-253.37 677.91,-218.02Z" fill="#ffffff" stroke="#000000"/>
    <path d="M-747.87,-253.26L-734.89,-218.51L-755.92,-202.60L-686.35,-201.01L-702.84,-217.30L-760.69,-367.82L-771.13,-368.06L-831.94,-223.11L-848.52,-204.72L-798.42,-203.58L-819.60,-222.59L-806.52,-254.60ZM-751.66,-264.03L-802.23,-265.19L-776.05,-329.68ZM-632.58,-318.56L-676.40,-303.65L-660.67,-284.99L-662.60,-200.47L-631.74,-199.76L-634.97,-214.33C-634.51,-234.27 -616.75,-273.30 -604.34,-296.53L-602.45,-296.25C-600.05,-286.93 -598.29,-270.26 -599.14,-233.22L-599.92,-199.03L-555.05,-198.00L-572.15,-218.83L-571.52,-246.37C-570.41,-294.81 -570.73,-301.70 -576.46,-320.84L-599.87,-315.44C-605.01,-308.66 -624.32,-274.66 -634.39,-239.73ZM-476.35,-221.38L-493.55,-196.60L-430.87,-195.16L-446.91,-220.71L-444.34,-333.02L-427.14,-357.81L-489.83,-359.24L-473.78,-333.69ZM-371.16,-312.58L-414.98,-297.66L-399.25,-279.01L-401.19,-194.48L-370.32,-193.78L-373.55,-208.34C-373.09,-228.29 -355.33,-267.31 -342.92,-290.55L-341.03,-290.27C-338.63,-280.95 -336.87,-264.28 -337.72,-227.24L-338.50,-193.05L-293.63,-192.02L-310.73,-212.84L-310.10,-240.38C-308.99,-288.82 -309.31,-295.72 -315.05,-314.86L-338.45,-309.45C-343.59,-302.68 -362.90,-268.68 -372.97,-233.75ZM-206.49,-303.82L-206.43,-306.43L-244.19,-307.29L-243.26,-347.66L-271.02,-307.91L-287.88,-308.29L-272.05,-293.92L-273.59,-226.48C-273.95,-190.38 -256.18,-188.31 -247.63,-188.12C-232.91,-187.78 -216.00,-210.44 -208.75,-236.64L-211.34,-237.65C-216.66,-223.04 -227.76,-205.24 -235.35,-205.42C-241.77,-205.56 -246.48,-207.10 -245.88,-233.21L-244.52,-292.57ZM-103.28,-267.25L-102.55,-268.18L-121.59,-307.81L-124.68,-307.88C-139.15,-288.26 -151.46,-258.61 -158.96,-232.17L-157.23,-307.68L-201.05,-292.77L-185.32,-274.11L-187.25,-189.59L-158.05,-188.92L-159.62,-203.44C-159.07,-227.43 -137.78,-275.16 -134.43,-276.51ZM-99.27,-234.85C-100.00,-202.79 -80.96,-183.83 -55.55,-183.24C-23.26,-182.51 5.53,-215.82 6.38,-252.86C7.10,-284.20 -10.48,-304.79 -40.16,-305.47C-73.64,-306.24 -98.39,-273.07 -99.27,-234.85ZM-49.60,-298.09C-42.47,-297.93 -24.25,-284.68 -25.20,-242.89C-26.10,-203.71 -40.41,-190.74 -47.54,-190.90C-54.66,-191.06 -69.89,-210.65 -68.99,-250.07C-68.03,-292.10 -56.72,-298.25 -49.60,-298.09ZM132.34,-182.27L115.15,-199.29L118.63,-351.25L74.87,-338.71L90.59,-320.06L90.11,-299.17C45.60,-295.43 20.41,-263.94 19.49,-223.57C19.05,-204.34 26.49,-187.07 33.50,-181.92L51.13,-184.13C65.66,-206.36 82.78,-238.04 91.86,-271.81L88.38,-244.33L86.94,-181.17ZM55.35,-202.32C52.50,-202.39 48.69,-212.45 49.23,-235.72C49.78,-259.70 58.15,-293.25 89.97,-292.76C89.15,-267.59 59.86,-202.22 55.35,-202.32ZM211.88,-180.45L255.33,-179.45L239.60,-198.11L241.85,-296.17L210.98,-296.87L214.21,-282.31C213.74,-261.89 195.00,-221.22 182.60,-198.46C181.86,-207.98 181.50,-223.19 182.42,-263.32L183.31,-302.26L138.32,-298.54L155.43,-277.72L154.12,-220.49C153.72,-203.16 156.45,-187.42 157.70,-179.79L179.11,-181.20C184.26,-187.97 203.56,-221.97 213.63,-256.90ZM343.48,-262.96L344.21,-263.89L328.35,-297.51L325.98,-297.57C296.84,-290.87 267.12,-258.77 266.30,-222.68C265.57,-191.10 280.43,-176.03 300.14,-175.58C312.49,-175.29 334.99,-193.07 348.17,-229.12L344.42,-231.58C332.92,-206.66 319.76,-191.99 311.92,-192.17C301.24,-192.42 295.98,-211.78 296.68,-242.41C297.04,-258.08 301.58,-279.83 306.09,-279.73ZM433.16,-289.17L433.22,-291.79L395.47,-292.65L396.39,-333.02L368.64,-293.27L351.78,-293.65L367.61,-279.27L366.06,-211.84C365.71,-175.74 383.48,-173.67 392.03,-173.47C406.75,-173.14 423.66,-195.79 430.91,-222.00L428.32,-223.01C423.00,-208.40 411.90,-190.60 404.30,-190.77C397.89,-190.92 393.18,-192.45 393.77,-218.57L395.13,-277.93ZM489.83,-325.89L470.62,-348.18L450.18,-326.80L469.62,-304.26ZM482.08,-194.69L484.33,-292.99L440.51,-278.08L456.24,-259.43L454.30,-174.90L499.18,-173.87ZM508.33,-220.94C507.60,-188.88 526.65,-169.92 552.05,-169.33C584.34,-168.60 613.14,-201.91 613.99,-238.95C614.70,-270.29 597.12,-290.89 567.44,-291.56C533.96,-292.33 509.21,-259.16 508.33,-220.94ZM558.01,-284.18C565.13,-284.02 583.36,-270.77 582.40,-228.98C581.50,-189.80 567.19,-176.83 560.07,-176.99C552.94,-177.15 537.71,-196.75 538.61,-236.16C539.58,-278.19 550.88,-284.34 558.01,-284.18ZM667.87,-288.79L624.05,-273.88L639.78,-255.22L637.84,-170.70L668.71,-169.99L665.48,-184.56C665.94,-204.50 683.70,-243.53 696.11,-266.76L698.00,-266.48C700.40,-257.16 702.16,-240.49 701.31,-203.45L700.53,-169.26L745.40,-168.23L728.30,-189.06L728.93,-216.60C730.04,-265.04 729.72,-271.93 723.98,-291.07L700.58,-285.67C695.43,-278.89 676.13,-244.89 666.06,-209.96Z" fill="#ffffff" stroke="#000000"/>
    <path d="M-744.56,-251.31L-731.87,-216.88L-752.75,-201.23L-683.92,-199.34L-700.17,-215.53L-756.72,-364.72L-767.06,-365.01L-827.88,-221.86L-844.37,-203.75L-794.80,-202.38L-815.67,-221.29L-802.58,-252.91ZM-748.26,-261.99L-798.30,-263.37L-772.10,-327.06ZM-630.19,-315.41L-673.61,-300.85L-658.13,-282.32L-660.43,-198.69L-629.89,-197.85L-633.02,-212.28C-632.48,-232.01 -614.73,-270.55 -602.34,-293.48L-600.47,-293.20C-598.14,-283.96 -596.48,-267.46 -597.48,-230.82L-598.41,-196.99L-554.02,-195.77L-570.84,-216.45L-570.09,-243.70C-568.78,-291.62 -569.06,-298.45 -574.65,-317.41L-597.84,-312.17C-602.96,-305.49 -622.21,-271.93 -632.33,-237.41ZM-476.05,-218.55L-493.17,-194.10L-431.16,-192.39L-446.92,-217.75L-443.86,-328.86L-426.74,-353.31L-488.75,-355.01L-472.99,-329.66ZM-371.55,-308.30L-414.97,-293.74L-399.50,-275.21L-401.79,-191.59L-371.25,-190.75L-374.38,-205.17C-373.84,-224.91 -356.09,-263.44 -343.71,-286.38L-341.83,-286.09C-339.50,-276.86 -337.84,-260.36 -338.85,-223.71L-339.78,-189.88L-295.38,-188.66L-312.21,-209.34L-311.46,-236.59C-310.14,-284.51 -310.42,-291.34 -316.02,-310.30L-339.20,-305.06C-344.32,-298.38 -363.58,-264.82 -373.69,-230.31ZM-208.66,-298.89L-208.59,-301.47L-245.94,-302.50L-244.84,-342.43L-272.48,-303.23L-289.16,-303.69L-273.57,-289.39L-275.40,-222.67C-275.91,-186.95 -258.34,-184.82 -249.88,-184.59C-235.32,-184.19 -218.48,-206.53 -211.19,-232.43L-213.75,-233.44C-219.08,-219.01 -230.14,-201.45 -237.66,-201.65C-244.00,-201.83 -248.66,-203.37 -247.95,-229.21L-246.34,-287.93ZM-106.70,-262.23L-105.97,-263.15L-124.63,-302.46L-127.69,-302.54C-142.09,-283.19 -154.41,-253.91 -161.95,-227.78L-159.90,-302.49L-203.32,-287.93L-187.84,-269.40L-190.14,-185.77L-161.24,-184.98L-162.73,-199.36C-162.08,-223.09 -140.80,-270.22 -137.47,-271.54ZM-102.88,-230.16C-103.75,-198.44 -84.99,-179.59 -59.85,-178.90C-27.90,-178.02 0.74,-210.85 1.75,-247.50C2.60,-278.51 -14.71,-298.97 -44.07,-299.77C-77.19,-300.68 -101.84,-267.98 -102.88,-230.16ZM-53.44,-292.51C-46.39,-292.31 -28.42,-279.13 -29.55,-237.78C-30.62,-199.02 -44.84,-186.25 -51.89,-186.44C-58.93,-186.63 -73.92,-206.09 -72.84,-245.08C-71.70,-286.66 -60.49,-292.70 -53.44,-292.51ZM126.05,-177.09L109.12,-194.01L113.25,-344.35L69.90,-332.14L85.37,-313.61L84.80,-292.94C40.75,-289.45 15.68,-258.40 14.58,-218.47C14.06,-199.44 21.35,-182.31 28.26,-177.19L45.71,-179.29C60.19,-201.23 77.27,-232.50 86.41,-265.86L82.84,-238.69L81.13,-176.20ZM49.97,-197.28C47.15,-197.35 43.43,-207.33 44.06,-230.35C44.71,-254.08 53.15,-287.23 84.63,-286.60C83.71,-261.70 54.43,-197.15 49.97,-197.28ZM204.75,-174.92L247.74,-173.74L232.26,-192.27L234.93,-289.29L204.39,-290.13L207.52,-275.70C206.96,-255.50 188.23,-215.34 175.86,-192.88C175.17,-202.30 174.88,-217.35 175.97,-257.05L177.03,-295.58L132.50,-292.10L149.33,-271.42L147.78,-214.81C147.31,-197.66 149.93,-182.07 151.14,-174.52L172.33,-175.81C177.45,-182.49 196.71,-216.05 206.83,-250.56ZM335.33,-255.97L336.06,-256.89L320.52,-290.23L318.17,-290.29C289.32,-283.80 259.77,-252.17 258.78,-216.46C257.93,-185.22 272.56,-170.24 292.06,-169.70C304.27,-169.37 326.62,-186.86 339.82,-222.46L336.13,-224.91C324.64,-200.31 311.54,-185.86 303.79,-186.07C293.22,-186.36 288.11,-205.55 288.94,-235.85C289.36,-251.35 293.95,-272.86 298.41,-272.73ZM424.19,-281.50L424.26,-284.09L386.91,-285.11L388.01,-325.05L360.37,-285.84L343.69,-286.30L359.28,-272.00L357.45,-205.29C356.94,-169.57 374.51,-167.44 382.97,-167.21C397.53,-166.81 414.37,-189.15 421.66,-215.04L419.10,-216.05C413.77,-201.62 402.71,-184.06 395.19,-184.27C388.85,-184.44 384.19,-185.98 384.90,-211.82L386.51,-270.55ZM480.43,-317.57L461.53,-339.72L441.20,-318.65L460.33,-296.26ZM472.16,-187.79L474.83,-285.05L431.41,-270.49L446.89,-251.96L444.59,-168.33L488.99,-167.11ZM498.26,-213.64C497.39,-181.93 516.15,-163.08 541.29,-162.39C573.23,-161.51 601.88,-194.34 602.88,-230.99C603.74,-261.99 586.43,-282.45 557.07,-283.26C523.94,-284.17 499.30,-251.46 498.26,-213.64ZM547.70,-275.99C554.75,-275.80 572.72,-262.61 571.58,-221.27C570.52,-182.51 556.30,-169.73 549.25,-169.93C542.20,-170.12 527.22,-189.57 528.29,-228.57C529.44,-270.15 540.65,-276.19 547.70,-275.99ZM656.42,-280.06L613.00,-265.50L628.48,-246.97L626.18,-163.35L656.72,-162.51L653.59,-176.93C654.13,-196.67 671.88,-235.20 684.26,-258.14L686.14,-257.85C688.47,-248.62 690.13,-232.11 689.13,-195.47L688.20,-161.64L732.59,-160.42L715.77,-181.10L716.51,-208.35C717.83,-256.27 717.55,-263.10 711.96,-282.06L688.77,-276.82C683.65,-270.14 664.40,-236.58 654.28,-202.07Z" fill="#ffffff" stroke="#000000"/>
    <path d="M-741.16,-249.40L-728.76,-215.27L-749.49,-199.88L-681.40,-197.70L-697.40,-213.80L-752.68,-361.66L-762.90,-361.99L-823.73,-220.64L-840.12,-202.79L-791.09,-201.22L-811.65,-220.02L-798.55,-251.24ZM-744.77,-259.98L-794.27,-261.57L-768.06,-324.47ZM-627.72,-312.29L-670.74,-298.08L-655.51,-279.69L-658.16,-196.96L-627.95,-195.99L-630.99,-210.28C-630.36,-229.80 -612.62,-267.84 -600.27,-290.48L-598.42,-290.18C-596.15,-281.04 -594.58,-264.71 -595.74,-228.45L-596.82,-194.99L-552.90,-193.58L-569.45,-214.12L-568.59,-241.08C-567.07,-288.48 -567.32,-295.23 -572.76,-314.02L-595.72,-308.94C-600.82,-302.36 -620.02,-269.24 -630.19,-235.14ZM-475.65,-215.76L-492.71,-191.65L-431.36,-189.69L-446.84,-214.84L-443.31,-324.76L-426.26,-348.87L-487.61,-350.83L-472.13,-325.68ZM-371.86,-304.09L-414.89,-289.88L-399.66,-271.48L-402.31,-188.76L-372.10,-187.79L-375.13,-202.07C-374.51,-221.59 -356.77,-259.64 -344.42,-282.27L-342.57,-281.98C-340.30,-272.84 -338.73,-256.50 -339.89,-220.25L-340.96,-186.79L-297.04,-185.38L-313.60,-205.92L-312.74,-232.87C-311.22,-280.28 -311.47,-287.03 -316.91,-305.82L-339.87,-300.74C-344.97,-294.16 -364.17,-261.04 -374.34,-226.94ZM-210.75,-294.04L-210.67,-296.60L-247.62,-297.78L-246.35,-337.29L-273.87,-298.62L-290.37,-299.15L-275.01,-284.93L-277.13,-218.94C-277.79,-183.60 -260.42,-181.42 -252.05,-181.15C-237.64,-180.69 -220.89,-202.71 -213.55,-228.30L-216.08,-229.31C-221.42,-215.06 -232.45,-197.73 -239.88,-197.97C-246.16,-198.17 -250.76,-199.72 -249.94,-225.28L-248.08,-283.37ZM-110.04,-257.32L-109.31,-258.22L-127.60,-297.19L-130.62,-297.29C-144.96,-278.21 -157.29,-249.29 -164.86,-223.48L-162.49,-297.38L-205.51,-283.17L-190.29,-264.77L-192.94,-182.04L-164.36,-181.13L-165.76,-195.36C-165.01,-218.83 -143.74,-265.37 -140.44,-266.66ZM-106.40,-225.56C-107.41,-194.19 -88.94,-175.45 -64.07,-174.66C-32.47,-173.64 -3.98,-206.00 -2.82,-242.25C-1.84,-272.92 -18.86,-293.24 -47.91,-294.17C-80.68,-295.22 -105.20,-262.98 -106.40,-225.56ZM-57.21,-287.03C-50.24,-286.80 -32.52,-273.67 -33.83,-232.77C-35.06,-194.43 -49.19,-181.86 -56.16,-182.08C-63.13,-182.30 -77.86,-201.62 -76.63,-240.19C-75.31,-281.32 -64.18,-287.25 -57.21,-287.03ZM119.85,-172.02L103.17,-188.84L107.94,-337.56L64.99,-325.68L80.22,-307.28L79.56,-286.83C35.96,-283.57 11.02,-252.97 9.75,-213.46C9.15,-194.64 16.28,-177.66 23.09,-172.56L40.37,-174.57C54.79,-196.20 71.83,-227.06 81.03,-260.03L77.38,-233.16L75.39,-171.35ZM44.66,-192.34C41.88,-192.43 38.24,-202.32 38.97,-225.09C39.72,-248.56 48.21,-281.32 79.36,-280.55C78.34,-255.93 49.08,-192.20 44.66,-192.34ZM197.69,-169.52L240.22,-168.16L224.99,-186.56L228.07,-282.53L197.86,-283.50L200.89,-269.21C200.25,-249.23 181.53,-209.59 169.19,-187.42C168.56,-196.74 168.34,-211.64 169.60,-250.91L170.82,-289.02L126.75,-285.78L143.31,-265.24L141.51,-209.24C140.97,-192.28 143.50,-176.84 144.65,-169.36L165.63,-170.55C170.72,-177.13 189.93,-210.25 200.09,-244.35ZM327.26,-249.11L327.98,-250.02L312.76,-283.08L310.43,-283.15C281.85,-276.85 252.47,-245.69 251.34,-210.37C250.35,-179.47 264.76,-164.58 284.05,-163.96C296.13,-163.58 318.32,-180.78 331.54,-215.94L327.90,-218.39C316.42,-194.10 303.40,-179.86 295.73,-180.11C285.28,-180.44 280.30,-199.44 281.26,-229.42C281.75,-244.76 286.39,-266.01 290.81,-265.87ZM415.28,-273.97L415.37,-276.53L378.42,-277.71L379.68,-317.22L352.16,-278.56L335.66,-279.08L351.02,-264.87L348.91,-198.87C348.24,-163.53 365.62,-161.35 373.98,-161.08C388.39,-160.62 405.15,-182.65 412.48,-208.23L409.95,-209.24C404.61,-194.99 393.59,-177.67 386.15,-177.90C379.88,-178.11 375.27,-179.65 376.09,-205.21L377.96,-263.31ZM471.09,-309.40L452.48,-331.40L432.28,-310.65L451.11,-288.41ZM462.32,-181.05L465.40,-277.25L422.38,-263.05L437.61,-244.65L434.95,-161.92L478.87,-160.51ZM488.26,-206.50C487.25,-175.13 505.73,-156.39 530.59,-155.60C562.19,-154.58 590.68,-186.93 591.84,-223.19C592.83,-253.86 575.80,-274.18 546.75,-275.11C513.99,-276.16 489.46,-243.91 488.26,-206.50ZM537.45,-267.96C544.42,-267.74 562.14,-254.61 560.83,-213.71C559.60,-175.37 545.48,-162.79 538.51,-163.02C531.53,-163.24 516.80,-182.56 518.04,-221.13C519.36,-262.26 530.48,-268.19 537.45,-267.96ZM645.03,-271.49L602.01,-257.29L617.24,-238.89L614.58,-156.16L644.79,-155.19L641.76,-169.48C642.39,-189.00 660.12,-227.04 672.48,-249.68L674.33,-249.39C676.60,-240.24 678.17,-223.91 677.01,-187.66L675.93,-154.19L719.85,-152.79L703.30,-173.32L704.16,-200.28C705.68,-247.68 705.43,-254.44 699.99,-273.22L677.03,-268.14C671.93,-261.56 652.73,-228.45 642.56,-194.34Z" fill="#ffffff" stroke="#000000"/>
    <path d="M-737.67,-247.51L-725.56,-213.70L-746.13,-198.57L-678.79,-196.10L-694.54,-212.10L-748.56,-358.62L-758.67,-358.99L-819.48,-219.44L-835.77,-201.86L-787.28,-200.08L-807.54,-218.77L-794.44,-249.59ZM-741.20,-258.00L-790.15,-259.79L-763.94,-321.90ZM-625.16,-309.22L-667.79,-295.36L-652.81,-277.09L-655.81,-195.26L-625.93,-194.17L-628.86,-208.31C-628.15,-227.62 -610.44,-265.18 -598.11,-287.51L-596.28,-287.21C-594.08,-278.16 -592.60,-261.99 -593.91,-226.14L-595.13,-193.04L-551.69,-191.45L-567.97,-211.84L-566.99,-238.50C-565.28,-285.39 -565.49,-292.07 -570.79,-310.68L-593.53,-305.76C-598.60,-299.27 -617.75,-266.60 -627.96,-232.91ZM-475.17,-213.04L-492.16,-189.27L-431.48,-187.04L-446.67,-212.00L-442.69,-320.71L-425.71,-344.49L-486.39,-346.71L-471.19,-321.76ZM-372.10,-299.94L-414.73,-286.09L-399.75,-267.82L-402.75,-185.99L-372.87,-184.90L-375.80,-199.04C-375.09,-218.35 -357.38,-255.91 -345.05,-278.24L-343.22,-277.94C-341.02,-268.89 -339.54,-252.72 -340.85,-216.87L-342.07,-183.77L-298.63,-182.18L-314.91,-202.57L-313.93,-229.23C-312.21,-276.12 -312.43,-282.80 -317.73,-301.41L-340.47,-296.48C-345.54,-290.00 -364.69,-257.32 -374.90,-223.64ZM-212.77,-289.27L-212.67,-291.80L-249.22,-293.14L-247.79,-332.22L-275.19,-294.09L-291.51,-294.69L-276.38,-280.56L-278.77,-215.28C-279.59,-180.33 -262.41,-178.09 -254.14,-177.78C-239.89,-177.26 -223.21,-198.98 -215.84,-224.25L-218.33,-225.26C-223.68,-211.19 -234.67,-194.10 -242.02,-194.37C-248.23,-194.60 -252.77,-196.15 -251.85,-221.43L-249.74,-278.89ZM-113.31,-252.49L-112.58,-253.38L-130.50,-292.01L-133.49,-292.12C-147.76,-273.31 -160.08,-244.77 -167.69,-219.27L-165.01,-292.36L-207.64,-278.50L-192.66,-260.23L-195.65,-178.40L-167.38,-177.37L-168.71,-191.46C-167.86,-214.67 -146.61,-260.61 -143.34,-261.87ZM-109.85,-221.06C-110.99,-190.03 -92.80,-171.41 -68.21,-170.51C-36.95,-169.37 -8.62,-201.24 -7.31,-237.10C-6.20,-267.44 -22.95,-287.61 -51.68,-288.67C-84.09,-289.85 -108.50,-258.07 -109.85,-221.06ZM-60.91,-281.64C-54.02,-281.39 -36.55,-268.32 -38.03,-227.87C-39.42,-189.94 -53.45,-177.57 -60.34,-177.82C-67.24,-178.07 -81.73,-197.24 -80.33,-235.40C-78.84,-276.08 -67.81,-281.89 -60.91,-281.64ZM113.72,-167.07L97.30,-183.78L102.69,-330.88L60.15,-319.32L75.13,-301.05L74.39,-280.82C31.24,-277.80 6.43,-247.64 4.99,-208.57C4.31,-189.95 11.29,-173.12 18.01,-168.04L35.11,-169.95C49.47,-191.29 66.47,-221.74 75.72,-254.31L71.98,-227.75L69.74,-166.61ZM39.44,-187.51C36.68,-187.61 33.12,-197.41 33.95,-219.93C34.80,-243.15 43.35,-275.52 74.16,-274.62C73.04,-250.26 43.80,-187.35 39.44,-187.51ZM190.72,-164.25L232.78,-162.71L217.80,-180.98L221.28,-275.90L191.40,-277.00L194.33,-262.85C193.60,-243.08 174.91,-203.95 162.60,-182.08C162.02,-191.31 161.87,-206.04 163.29,-244.89L164.67,-282.58L121.06,-279.57L137.35,-259.19L135.32,-203.79C134.70,-187.01 137.13,-171.73 138.24,-164.33L159.00,-165.41C164.07,-171.90 183.22,-204.57 193.43,-238.26ZM319.24,-242.39L319.97,-243.29L305.06,-276.06L302.76,-276.14C274.46,-270.04 245.25,-239.35 243.97,-204.41C242.85,-173.84 257.04,-159.06 276.12,-158.36C288.07,-157.92 310.09,-174.83 323.33,-209.56L319.74,-212.00C308.28,-188.02 295.33,-173.99 287.75,-174.27C277.41,-174.65 272.57,-193.47 273.66,-223.12C274.21,-238.29 278.90,-259.29 283.26,-259.13ZM406.44,-266.59L406.53,-269.12L369.99,-270.46L371.42,-309.53L344.01,-271.41L327.69,-272.00L342.83,-257.87L340.43,-192.59C339.61,-157.64 356.79,-155.40 365.07,-155.10C379.32,-154.58 396.00,-176.29 403.37,-201.57L400.87,-202.58C395.52,-188.51 384.54,-171.42 377.18,-171.69C370.98,-171.91 366.43,-173.46 367.36,-198.74L369.46,-256.20ZM461.80,-301.38L443.50,-323.23L423.42,-302.79L441.94,-280.71ZM452.55,-174.45L456.03,-269.60L413.41,-255.75L428.39,-237.47L425.39,-155.65L468.83,-154.06ZM478.32,-199.51C477.18,-168.48 495.37,-149.86 519.97,-148.96C551.23,-147.82 579.55,-179.69 580.87,-215.55C581.98,-245.89 565.23,-266.06 536.49,-267.12C504.09,-268.30 479.68,-236.52 478.32,-199.51ZM527.26,-260.09C534.16,-259.84 551.63,-246.77 550.15,-206.32C548.76,-168.39 534.73,-156.02 527.83,-156.27C520.94,-156.52 506.45,-175.70 507.85,-213.85C509.34,-254.53 520.37,-260.34 527.26,-260.09ZM633.70,-263.09L591.08,-249.24L606.06,-230.97L603.06,-149.14L632.94,-148.05L630.01,-162.19C630.71,-181.50 648.43,-219.06 660.76,-241.39L662.59,-241.09C664.79,-232.04 666.27,-215.87 664.95,-180.01L663.74,-146.92L707.18,-145.33L690.90,-165.72L691.87,-192.38C693.59,-239.27 693.37,-245.95 688.07,-264.55L665.34,-259.63C660.27,-253.15 641.12,-220.47 630.91,-186.79Z" fill="#ffffff" stroke="#000000"/>
    <path d="M-734.09,-245.66L-722.26,-212.16L-742.69,-197.29L-676.08,-194.54L-691.60,-210.44L-744.36,-355.60L-754.36,-356.01L-815.14,-218.26L-831.34,-200.94L-783.37,-198.96L-803.33,-217.55L-790.23,-247.97ZM-737.53,-256.05L-785.95,-258.04L-759.74,-319.35ZM-622.53,-306.18L-664.75,-292.67L-650.02,-274.53L-653.35,-193.60L-623.80,-192.39L-626.64,-206.39C-625.86,-225.49 -608.16,-262.55 -595.87,-284.59L-594.06,-284.29C-591.92,-275.32 -590.53,-259.32 -592.00,-223.86L-593.35,-191.13L-550.38,-189.36L-566.40,-209.60L-565.31,-235.97C-563.40,-282.34 -563.58,-288.95 -568.74,-307.38L-591.25,-302.61C-596.30,-296.22 -615.39,-263.99 -625.64,-230.71ZM-474.61,-210.37L-491.51,-186.93L-431.50,-184.46L-446.42,-209.21L-441.99,-316.73L-425.08,-340.16L-485.09,-342.64L-470.17,-317.89ZM-372.26,-295.86L-414.49,-282.35L-399.75,-264.21L-403.09,-183.29L-373.54,-182.07L-376.38,-196.08C-375.59,-215.17 -357.90,-252.24 -345.60,-274.27L-343.79,-273.97C-341.66,-265.00 -340.27,-249.01 -341.73,-213.55L-343.08,-180.81L-300.12,-179.04L-316.13,-199.28L-315.05,-225.65C-313.14,-272.02 -313.32,-278.63 -318.48,-297.06L-340.99,-292.30C-346.03,-285.90 -365.12,-253.67 -375.37,-220.40ZM-214.71,-284.59L-214.61,-287.09L-250.75,-288.58L-249.16,-327.22L-276.43,-289.64L-292.57,-290.30L-277.67,-276.25L-280.33,-211.70C-281.30,-177.13 -264.32,-174.83 -256.13,-174.50C-242.04,-173.92 -225.45,-195.32 -218.04,-220.29L-220.51,-221.30C-225.86,-207.40 -236.80,-190.55 -244.08,-190.85C-250.21,-191.10 -254.70,-192.65 -253.67,-217.66L-251.33,-274.48ZM-116.50,-247.75L-115.78,-248.63L-133.33,-286.92L-136.28,-287.05C-150.48,-268.51 -162.80,-240.32 -170.44,-215.14L-167.46,-287.42L-209.69,-273.91L-194.95,-255.77L-198.29,-174.85L-170.33,-173.69L-171.57,-187.63C-170.63,-210.59 -149.40,-255.94 -146.17,-257.17ZM-113.23,-216.65C-114.49,-185.96 -96.58,-167.47 -72.26,-166.46C-41.35,-165.19 -13.19,-196.59 -11.72,-232.05C-10.49,-262.05 -26.97,-282.09 -55.38,-283.26C-87.43,-284.58 -111.72,-253.25 -113.23,-216.65ZM-64.54,-276.35C-57.72,-276.07 -40.50,-263.06 -42.15,-223.06C-43.70,-185.55 -57.63,-173.37 -64.45,-173.65C-71.27,-173.94 -85.51,-192.97 -83.96,-230.70C-82.30,-270.93 -71.36,-276.63 -64.54,-276.35ZM107.67,-162.23L91.50,-178.84L97.50,-324.31L55.37,-313.07L70.11,-294.93L69.28,-274.93C26.59,-272.14 1.91,-242.41 0.32,-203.77C-0.44,-185.36 6.38,-168.69 13.01,-163.63L29.93,-165.44C44.23,-186.48 61.18,-216.52 70.48,-248.70L66.66,-222.44L64.17,-161.98ZM34.29,-182.79C31.56,-182.90 28.09,-192.61 29.01,-214.89C29.96,-237.84 38.56,-269.82 69.03,-268.79C67.81,-244.71 38.61,-182.61 34.29,-182.79ZM183.82,-159.09L225.41,-157.38L210.68,-175.52L214.55,-269.40L185.00,-270.62L187.84,-256.61C187.03,-237.06 168.36,-198.44 156.09,-176.86C155.55,-185.99 155.47,-200.56 157.05,-238.98L158.59,-276.26L115.44,-273.48L131.46,-253.24L129.20,-198.46C128.52,-181.87 130.85,-166.74 131.92,-159.41L152.45,-160.39C157.49,-166.78 176.58,-199.01 186.83,-232.29ZM311.30,-235.81L312.02,-236.69L297.42,-269.17L295.15,-269.26C267.12,-263.36 238.10,-233.13 236.68,-198.58C235.43,-168.35 249.40,-153.66 268.26,-152.88C280.08,-152.39 301.94,-169.02 315.20,-203.32L311.65,-205.74C300.21,-182.07 287.34,-168.26 279.84,-168.57C269.61,-168.99 264.91,-187.63 266.12,-216.95C266.74,-231.95 271.47,-252.71 275.79,-252.53ZM397.66,-259.34L397.76,-261.84L361.62,-263.33L363.21,-301.98L335.93,-264.39L319.79,-265.06L334.70,-251.01L332.04,-186.46C331.07,-151.89 348.05,-149.59 356.23,-149.25C370.32,-148.67 386.92,-170.08 394.32,-195.04L391.86,-196.06C386.50,-182.16 375.56,-165.31 368.29,-165.61C362.15,-165.86 357.66,-167.41 358.69,-192.41L361.04,-249.24ZM452.57,-293.51L434.57,-315.20L414.61,-295.08L432.83,-273.15ZM442.84,-168.00L446.72,-262.10L404.50,-248.59L419.23,-230.45L415.90,-149.53L458.86,-147.76ZM468.45,-192.67C467.19,-161.99 485.10,-143.49 509.42,-142.48C540.33,-141.21 568.49,-172.61 569.95,-208.07C571.19,-238.07 554.71,-258.11 526.30,-259.28C494.25,-260.60 469.96,-229.27 468.45,-192.67ZM517.13,-252.37C523.95,-252.09 541.18,-239.08 539.53,-199.08C537.98,-161.57 524.05,-149.40 517.23,-149.68C510.41,-149.96 496.16,-168.99 497.72,-206.72C499.38,-246.95 510.32,-252.65 517.13,-252.37ZM622.43,-254.86L580.21,-241.35L594.94,-223.21L591.61,-142.28L621.16,-141.07L618.32,-155.07C619.11,-174.17 636.80,-211.23 649.09,-233.27L650.90,-232.97C653.04,-224.00 654.43,-208.00 652.96,-172.54L651.62,-139.81L694.58,-138.04L678.56,-158.28L679.65,-184.65C681.56,-231.02 681.38,-237.63 676.22,-256.06L653.71,-251.29C648.66,-244.90 629.57,-212.67 619.32,-179.39Z" fill="#ffffff" stroke="#000000"/>
    <path d="M-730.42,-243.83L-718.88,-210.64L-739.14,-196.03L-673.29,-193.01L-688.55,-208.80L-740.08,-352.61L-749.97,-353.06L-810.70,-217.10L-826.80,-200.04L-779.37,-197.87L-799.02,-216.34L-785.94,-246.37ZM-733.78,-254.12L-781.65,-256.31L-755.46,-316.83ZM-619.81,-303.18L-661.63,-290.01L-647.14,-272.00L-650.81,-191.98L-621.59,-190.64L-624.33,-204.51C-623.47,-223.39 -605.80,-259.97 -593.54,-281.71L-591.76,-281.40C-589.68,-272.52 -588.38,-256.69 -589.99,-221.63L-591.47,-189.26L-548.99,-187.32L-564.74,-207.41L-563.54,-233.48C-561.44,-279.33 -561.59,-285.87 -566.61,-304.12L-588.90,-299.51C-593.92,-293.21 -612.94,-261.42 -623.23,-228.56ZM-473.95,-207.76L-490.78,-184.65L-431.44,-181.93L-446.08,-206.48L-441.21,-312.79L-424.39,-335.90L-483.72,-338.62L-469.08,-314.07ZM-372.35,-291.84L-414.17,-278.67L-399.68,-260.66L-403.34,-180.65L-374.12,-179.31L-376.87,-193.17C-376.00,-212.05 -358.34,-248.63 -346.08,-270.37L-344.29,-270.06C-342.22,-261.18 -340.92,-245.36 -342.52,-210.29L-344.01,-177.93L-301.53,-175.98L-317.27,-196.07L-316.08,-222.15C-313.98,-268.00 -314.13,-274.54 -319.15,-292.79L-341.43,-288.18C-346.45,-281.87 -365.48,-250.09 -375.77,-217.22ZM-216.58,-279.98L-216.46,-282.45L-252.20,-284.09L-250.45,-322.30L-277.60,-285.25L-293.56,-285.98L-278.88,-272.02L-281.81,-208.19C-282.92,-174.00 -266.14,-171.66 -258.04,-171.29C-244.11,-170.65 -227.60,-191.74 -220.17,-216.40L-222.60,-217.41C-227.96,-203.69 -238.85,-187.08 -246.04,-187.41C-252.11,-187.68 -256.55,-189.24 -255.41,-213.96L-252.84,-270.15ZM-119.61,-243.10L-118.90,-243.97L-136.08,-281.92L-139.00,-282.06C-153.13,-263.78 -165.44,-235.97 -173.11,-211.09L-169.83,-282.57L-211.66,-269.39L-197.17,-251.39L-200.83,-171.37L-173.18,-170.10L-174.35,-183.90C-173.32,-206.60 -152.12,-251.35 -148.91,-252.55ZM-116.52,-212.33C-117.91,-181.99 -100.28,-163.61 -76.23,-162.51C-45.66,-161.11 -17.67,-192.03 -16.06,-227.10C-14.70,-256.77 -30.91,-276.65 -59.01,-277.94C-90.70,-279.39 -114.86,-248.52 -116.52,-212.33ZM-68.10,-271.15C-61.36,-270.84 -44.38,-257.90 -46.19,-218.34C-47.89,-181.26 -61.73,-169.28 -68.47,-169.59C-75.22,-169.89 -89.22,-188.78 -87.51,-226.09C-85.69,-265.87 -74.84,-271.46 -68.10,-271.15ZM101.70,-157.51L85.79,-174.01L92.38,-317.86L50.66,-306.93L65.15,-288.92L64.25,-269.14C22.01,-266.57 -2.53,-237.29 -4.28,-199.08C-5.12,-180.87 1.56,-164.35 8.09,-159.32L24.83,-161.03C39.07,-181.78 55.97,-211.41 65.31,-243.19L61.42,-217.24L58.68,-157.45ZM29.22,-178.17C26.52,-178.30 23.14,-187.91 24.14,-209.94C25.18,-232.64 33.84,-264.23 63.97,-263.07C62.65,-239.26 33.49,-177.98 29.22,-178.17ZM177.00,-154.06L218.13,-152.18L203.64,-170.18L207.89,-263.01L178.67,-264.35L181.41,-250.49C180.53,-231.16 161.89,-193.04 149.65,-171.76C149.17,-180.79 149.15,-195.20 150.89,-233.19L152.58,-270.05L109.89,-267.50L125.64,-247.41L123.16,-193.24C122.41,-176.83 124.65,-161.87 125.67,-154.61L145.98,-155.48C151.00,-161.78 170.02,-193.57 180.31,-226.44ZM303.43,-229.36L304.14,-230.22L289.85,-262.41L287.60,-262.51C259.86,-256.80 231.02,-227.04 229.45,-192.88C228.08,-162.98 241.83,-148.39 260.49,-147.53C272.17,-147.00 293.87,-163.35 307.13,-197.20L303.64,-199.61C292.21,-176.26 279.42,-162.66 272.01,-163.00C261.89,-163.46 257.33,-181.91 258.66,-210.91C259.34,-225.74 264.11,-246.25 268.38,-246.05ZM388.94,-252.24L389.05,-254.71L353.31,-256.35L355.06,-294.56L327.92,-257.51L311.96,-258.25L326.63,-244.28L323.71,-180.45C322.59,-146.27 339.38,-143.92 347.47,-143.55C361.41,-142.91 377.91,-164.00 385.35,-188.66L382.92,-189.68C377.56,-175.96 366.66,-159.34 359.47,-159.67C353.40,-159.95 348.97,-161.50 350.10,-186.22L352.68,-242.42ZM443.40,-285.78L425.70,-307.32L405.87,-287.50L423.79,-265.74ZM433.22,-161.70L437.48,-254.75L395.66,-241.57L410.15,-223.57L406.48,-143.55L448.96,-141.60ZM458.65,-185.98C457.26,-155.64 474.89,-137.26 498.94,-136.16C529.51,-134.76 557.50,-165.69 559.11,-200.75C560.47,-230.42 544.26,-250.31 516.17,-251.59C484.47,-253.05 460.31,-222.17 458.65,-185.98ZM507.07,-244.80C513.81,-244.49 530.79,-231.55 528.98,-191.99C527.28,-154.91 513.44,-142.93 506.70,-143.24C499.96,-143.55 485.95,-162.43 487.66,-199.74C489.49,-239.53 500.33,-245.11 507.07,-244.80ZM611.22,-246.79L569.40,-233.61L583.89,-215.61L580.23,-135.59L609.44,-134.25L606.70,-148.12C607.57,-167.00 625.23,-203.58 637.49,-225.31L639.28,-225.01C641.35,-216.13 642.65,-200.30 641.05,-165.24L639.56,-132.87L682.04,-130.93L666.30,-151.02L667.49,-177.09C669.59,-222.94 669.44,-229.48 664.42,-247.73L642.14,-243.12C637.12,-236.82 618.09,-205.03 607.80,-172.17Z" fill="#ffffff" stroke="#000000"/>
    <path d="M-910.99,465.97L-908.82,469.92L-908.82,487.97L-910.99,492L-903.01,492C-897.88,492 -890.88,490.52 -890.88,485.05C-890.88,481.17 -893.70,478.93 -898.22,477.86C-895.52,476.80 -892.48,475.13 -892.48,471.71C-892.48,467.19 -897.23,465.97 -902.70,465.97ZM-904.11,467.19L-902.85,467.19C-900.38,467.19 -897.15,467.91 -897.15,472.47C-897.15,475.43 -899.47,477.64 -904.11,477.64ZM-904.11,490.52L-904.11,478.59C-899.47,478.59 -896.20,479.92 -896.20,484.93C-896.20,488.58 -899.28,490.52 -902.97,490.52ZM-886.02,470.11L-886.02,471.25L-888.60,472.35L-886.02,475.28L-886.02,492L-878.84,492L-881.65,488.73L-881.65,465.02L-888.60,467.19ZM-866.26,492L-859.31,492L-861.89,489.07L-861.89,473.38L-866.83,473.38L-866.26,475.70C-866.26,478.97 -869.11,485.54 -871.01,489.23C-871.16,487.71 -871.28,485.27 -871.28,478.85L-871.28,472.62L-878.46,473.38L-875.65,476.65L-875.65,485.81C-875.65,488.58 -875.15,491.09 -874.92,492.30L-871.50,492C-870.71,490.90 -867.74,485.39 -866.26,479.76ZM-846.42,492L-839.47,492L-842.05,489.07L-842.05,473.38L-846.99,473.38L-846.42,475.70C-846.42,478.97 -849.27,485.54 -851.17,489.23C-851.33,487.71 -851.44,485.27 -851.44,478.85L-851.44,472.62L-858.62,473.38L-855.81,476.65L-855.81,485.81C-855.81,488.58 -855.32,491.09 -855.09,492.30L-851.67,492C-850.87,490.90 -847.91,485.39 -846.42,479.76ZM-818.95,492L-813.33,492L-814.88,489.80L-814.88,469.50L-812.22,465.97L-819.75,465.97L-816.63,469.24L-816.63,487.67L-831.45,465.97L-837.42,465.97L-833.92,470.80L-833.92,488.47L-836.58,492L-829.13,492L-832.21,488.73L-832.21,473.42ZM-796.11,483.37C-796.11,483.37 -798.73,489.76 -801.47,489.76C-802.84,489.76 -803.86,487.59 -804.21,484.44L-795.85,477.26C-795.85,476.50 -796.99,472.89 -800.60,472.89C-805.27,472.89 -809.15,479.38 -809.15,484.86C-809.15,489.91 -806.90,492.46 -803.52,492.46C-799.84,492.46 -796.49,487.02 -795.50,483.75ZM-804.28,483.53C-804.32,482.99 -804.36,482.42 -804.36,481.82C-804.36,475.74 -803.18,474.48 -802.50,474.06C-802.00,473.72 -800.10,475.55 -799.91,479.38ZM-781.06,492L-774.68,492L-777.87,489.53L-782.39,481.74C-780.99,479.92 -778.59,476.65 -777.42,473.38L-782.85,473.38L-780.38,475.47C-780.38,477.60 -781.94,479.42 -782.93,480.83L-787.26,473.38L-793.64,473.38L-790.87,475.77L-786.54,482.99C-788.17,485.05 -791.48,488.92 -792.58,492L-786.80,492L-789.08,489.91C-789.08,487.90 -787.18,485.54 -785.97,483.91ZM-760.77,473.80L-760.77,473.38L-766.81,473.38L-766.81,466.92L-771.11,473.38L-773.81,473.38L-771.22,475.62L-771.22,486.41C-771.15,492.19 -768.30,492.46 -766.93,492.46C-764.57,492.46 -761.95,488.77 -760.89,484.55L-761.30,484.40C-762.10,486.76 -763.81,489.64 -765.03,489.64C-766.05,489.64 -766.81,489.42 -766.81,485.24L-766.81,475.74ZM-758.45,479.84L-758.45,482.73L-749.98,482.73L-749.98,479.84ZM-746.83,465.97L-744.66,469.92L-744.66,487.97L-746.83,492L-738.85,492C-733.72,492 -726.72,490.52 -726.72,485.05C-726.72,481.17 -729.54,478.93 -734.06,477.86C-731.36,476.80 -728.32,475.13 -728.32,471.71C-728.32,467.19 -733.07,465.97 -738.54,465.97ZM-739.95,467.19L-738.69,467.19C-736.22,467.19 -732.99,467.91 -732.99,472.47C-732.99,475.43 -735.31,477.64 -739.95,477.64ZM-739.95,490.52L-739.95,478.59C-735.31,478.59 -732.04,479.92 -732.04,484.93C-732.04,488.58 -735.12,490.52 -738.81,490.52ZM-723.80,484.44C-723.80,489.57 -720.68,492.53 -716.62,492.53C-711.45,492.53 -706.96,487.10 -706.96,481.17C-706.96,476.15 -709.85,472.92 -714.60,472.92C-719.96,472.92 -723.80,478.32 -723.80,484.44ZM-716.08,474.14C-714.94,474.14 -711.98,476.19 -711.98,482.88C-711.98,489.15 -714.22,491.28 -715.36,491.28C-716.50,491.28 -719.01,488.20 -719.01,481.89C-719.01,475.17 -717.22,474.14 -716.08,474.14ZM-702.82,470.11L-702.82,471.25L-705.41,472.35L-702.82,475.28L-702.82,492L-695.64,492L-698.45,488.73L-698.45,465.02L-705.41,467.19ZM-676.15,492L-678.96,489.34L-678.96,465.02L-685.91,467.19L-683.33,470.11L-683.33,473.46C-690.43,474.22 -694.35,479.35 -694.35,485.81C-694.35,488.88 -693.09,491.62 -691.95,492.42L-689.14,492C-686.90,488.39 -684.28,483.26 -682.95,477.83L-683.40,482.23L-683.40,492.34ZM-688.53,489.07C-688.99,489.07 -689.64,487.48 -689.64,483.75C-689.64,479.92 -688.42,474.52 -683.33,474.48C-683.37,478.51 -687.81,489.07 -688.53,489.07ZM-671.36,487.97L-674.02,492L-663.99,492L-666.65,487.97L-666.65,470.00L-663.99,465.97L-674.02,465.97L-671.36,470.00ZM-649.13,473.80L-649.13,473.38L-655.17,473.38L-655.17,466.92L-659.46,473.38L-662.16,473.38L-659.58,475.62L-659.58,486.41C-659.50,492.19 -656.65,492.46 -655.28,492.46C-652.93,492.46 -650.31,488.77 -649.24,484.55L-649.66,484.40C-650.46,486.76 -652.17,489.64 -653.38,489.64C-654.41,489.64 -655.17,489.42 -655.17,485.24L-655.17,475.74ZM-642.29,492C-640.05,488.39 -637.42,483.26 -636.09,477.83L-636.55,482.23L-636.55,492L-629.29,492L-632.10,488.73L-632.10,475.43L-630.66,473.38L-634.99,473.38C-642.93,473.53 -647.27,478.74 -647.27,485.81C-647.27,488.88 -646.24,491.62 -645.10,492.42ZM-641.68,489.07C-642.14,489.07 -642.55,487.48 -642.55,483.75C-642.55,479.92 -641.57,474.52 -636.47,474.48C-636.51,478.51 -640.96,489.07 -641.68,489.07ZM-626.06,470.11L-626.06,471.25L-628.65,472.35L-626.06,475.28L-626.06,492L-618.88,492L-621.69,488.73L-621.69,465.02L-628.65,467.19ZM-610.52,467.72L-613.67,464.22L-616.87,467.72L-613.67,471.25ZM-611.28,488.73L-611.28,473L-618.23,475.55L-615.65,478.47L-615.65,492L-608.47,492ZM-594.98,478.32L-594.86,478.17L-597.52,472.85L-597.90,472.85C-602.54,474.03 -607.18,479.27 -607.18,485.05C-607.18,490.10 -604.74,492.46 -601.59,492.46C-599.61,492.46 -596.08,489.53 -594.10,483.72L-594.71,483.34C-596.46,487.36 -598.51,489.76 -599.77,489.76C-601.48,489.76 -602.39,486.68 -602.39,481.78C-602.39,479.27 -601.74,475.77 -601.02,475.77Z"/>
</svg>