<?xml version="1.0"?>
<svg xmlns="http://www.w3.org/2000/svg" width="1920" height="1080" viewBox="-960 -540 1920 1080">
    <path d="M-550,-400L-580,-390L-650,-260L-650,-390L-630,-410L-700,-410L-680,-390L-680,-200L-660,-210L-580,-360L-580,-200L-570,-210L-460,-390L-430,-410L-500,-410L-480,-390L-550,-270ZM-390,-410L-430,-310L-480,-220L-470,-210L-450,-210L-410,-290L-380,-320L-360,-330L-350,-320L-400,-230L-400,-220L-390,-210L-370,-210L-350,-220L-300,-270L-310,-280L-360,-230L-370,-230L-320,-310L-320,-340L-350,-350L-380,-340L-400,-320L-350,-420L-420,-420L-420,-410ZM-140,-340L-150,-350L-170,-320L-180,-340L-220,-350L-270,-310L-290,-260L-280,-220L-260,-210L-240,-210L-210,-240L-210,-220L-200,-210L-170,-220L-120,-270L-130,-280L-180,-230L-190,-230ZM-240,-230L-250,-230L-260,-260L-240,-300L-210,-330L-190,-330L-180,-310L-180,-300L-210,-260ZM-90,-230L-40,-330L-10,-330L-10,-340L-40,-340L-20,-380L-40,-380L-50,-350L-70,-340L-90,-340L-90,-330L-70,-330L-120,-230L-120,-220L-110,-210L-90,-210L-70,-220L-20,-270L-30,-280L-80,-230ZM180,-370L190,-370L200,-390L200,-400L180,-410L170,-410L160,-390L160,-380ZM70,-290L80,-280L130,-330L140,-330L80,-230L80,-220L90,-210L110,-210L130,-220L180,-270L170,-280L120,-230L110,-230L170,-330L170,-340L150,-350L120,-340ZM200,-220L200,-250L190,-260L170,-250L170,-220L190,-210L210,-210L240,-220L260,-240L260,-260L250,-310L250,-330L270,-340L270,-310L280,-300L300,-310L300,-340L270,-350L230,-340L220,-320L220,-300L230,-260L230,-240L210,-220ZM540,-340L530,-350L510,-320L500,-340L460,-350L410,-310L390,-260L400,-220L420,-210L440,-210L470,-240L470,-220L480,-210L510,-220L560,-270L550,-280L500,-230L490,-230ZM440,-230L430,-230L420,-260L440,-300L470,-330L490,-330L500,-310L500,-300L470,-260ZM-560,-18L-560,-48L-540,-108L-490,-148L-470,-148L-450,-128L-450,-98L-430,-98L-410,-118L-420,-138L-470,-158L-500,-158L-540,-138L-570,-108L-590,-78L-600,-28L-580,22L-540,42L-500,42L-470,22L-440,-8L-450,-18L-480,12L-510,32L-530,32L-550,22ZM-400,22L-310,-168L-380,-168L-380,-158L-350,-158L-430,22L-430,32L-410,42L-380,32L-330,-18L-340,-28L-390,22ZM-220,-118L-210,-118L-200,-138L-200,-148L-220,-158L-230,-158L-240,-138L-240,-128ZM-330,-38L-320,-28L-270,-78L-260,-78L-320,22L-320,32L-310,42L-290,42L-270,32L-220,-18L-230,-28L-280,22L-290,22L-230,-78L-230,-88L-250,-98L-280,-88ZM-60,-48L-40,-68L-20,-78L-10,-68L-60,22L-60,32L-50,42L-30,42L-10,32L40,-18L30,-28L-20,22L-30,22L20,-58L20,-88L-10,-98L-40,-88L-60,-68L-60,-88L-80,-98L-110,-88L-140,-58L-130,-78L-130,-88L-140,-98L-170,-88L-220,-38L-210,-28L-160,-78L-150,-78L-210,32L-200,42L-180,42L-140,-38L-110,-68L-90,-78L-80,-68L-130,32L-120,42L-100,42ZM200,-88L190,-98L170,-68L160,-88L120,-98L70,-58L50,-8L60,32L80,42L100,42L130,12L130,32L140,42L170,32L220,-18L210,-28L160,22L150,22ZM100,22L90,22L80,-8L100,-48L130,-78L150,-78L160,-58L160,-48L130,-8ZM250,22L300,-78L330,-78L330,-88L300,-88L320,-128L300,-128L290,-98L270,-88L250,-88L250,-78L270,-78L220,22L220,32L230,42L250,42L270,32L320,-18L310,-28L260,22ZM470,-48L470,-68L460,-88L420,-98L370,-68L340,-8L350,32L370,42L390,42L410,32L450,-8L440,-18L400,22L380,22L370,-8L390,-48L420,-78L440,-78L440,-48L420,-38L390,-38L390,-28L440,-28ZM-640,94L-620,114L-670,274L-700,294L-580,294L-540,274L-510,244L-490,214L-480,164L-500,114L-550,94ZM-520,184L-540,244L-570,274L-590,284L-630,284L-640,274L-590,114L-580,104L-550,104L-530,114L-520,154ZM-340,204L-340,184L-350,164L-390,154L-440,184L-470,244L-460,284L-440,294L-420,294L-400,284L-360,244L-370,234L-410,274L-430,274L-440,244L-420,204L-390,174L-370,174L-370,204L-390,214L-420,214L-420,224L-370,224ZM-320,284L-320,254L-330,244L-350,254L-350,284L-330,294L-310,294L-280,284L-260,264L-260,244L-270,194L-270,174L-250,164L-250,194L-240,204L-220,194L-220,164L-250,154L-290,164L-300,184L-300,204L-290,244L-290,264L-310,284ZM-110,134L-100,134L-90,114L-90,104L-110,94L-120,94L-130,114L-130,124ZM-220,214L-210,224L-160,174L-150,174L-210,274L-210,284L-200,294L-180,294L-160,284L-110,234L-120,224L-170,274L-180,274L-120,174L-120,164L-140,154L-170,164ZM-90,264L-90,274L-80,284L-130,304L-140,324L-130,354L-90,374L-70,374L-30,364L-10,334L-10,314L-60,274L-60,264L-30,264L20,234L30,204L20,174L50,174L50,164L10,164L-30,154L-80,184L-90,214L-70,254ZM-30,174L-10,174L0,204L0,214L-30,244L-50,244L-60,214L-60,204ZM-70,294L-40,324L-40,344L-70,364L-100,344L-110,324L-100,304ZM40,214L50,224L100,174L110,174L50,284L60,294L80,294L120,214L150,184L170,174L180,184L130,274L130,284L140,294L160,294L180,284L230,234L220,224L170,274L160,274L210,194L210,164L180,154L150,164L120,194L130,174L130,164L120,154L90,164ZM370,204L370,184L360,164L320,154L270,184L240,244L250,284L270,294L290,294L310,284L350,244L340,234L300,274L280,274L270,244L290,204L320,174L340,174L340,204L320,214L290,214L290,224L340,224ZM370,214L380,224L430,174L440,174L380,284L390,294L410,294L450,214L480,194L510,194L520,164L500,154L480,164L450,204L440,204L460,174L460,164L450,154L420,164ZM570,164L580,164L580,134L590,114L610,104L630,114L640,134L640,154L630,174L600,194L570,204L560,234L570,234L580,214L610,204L650,184L670,154L670,134L650,104L620,94L600,94L570,104L550,134L550,144ZM560,294L570,294L580,274L580,264L560,254L550,254L540,274L540,284Z" fill="#ffffff" stroke="#000000"/>
    <path d="M-560.69,-378.27L-590.12,-367.58L-655.97,-237.08L-659.39,-365.74L-640.12,-386.06L-709.40,-384.22L-689.08,-364.95L-684.08,-176.92L-664.55,-187.34L-589.33,-337.89L-585.12,-179.55L-575.48,-189.71L-471.36,-370.74L-442.19,-391.32L-511.47,-389.48L-491.15,-370.21L-557.27,-249.61ZM-402.61,-392.37L-439.56,-292.35L-486.68,-201.97L-476.52,-192.34L-456.73,-192.86L-419.24,-273.09L-390.34,-303.57L-370.81,-313.99L-360.65,-304.35L-407.77,-213.97L-407.51,-204.07L-397.35,-194.44L-377.55,-194.97L-358.02,-205.39L-309.86,-256.19L-320.02,-265.82L-368.18,-215.02L-378.08,-214.76L-330.70,-295.25L-331.49,-324.94L-361.44,-334.04L-390.87,-323.36L-410.14,-303.04L-363.28,-403.32L-432.56,-401.48L-432.30,-391.58ZM-153.35,-329.67L-163.51,-339.31L-182.52,-309.09L-192.94,-328.62L-232.79,-337.46L-281.22,-296.56L-299.70,-246.55L-288.75,-207.23L-268.69,-197.86L-248.90,-198.39L-220.00,-228.87L-219.47,-209.07L-209.31,-199.44L-179.89,-210.12L-131.72,-260.92L-141.88,-270.56L-190.05,-219.76L-199.94,-219.49ZM-249.43,-218.18L-259.32,-217.92L-270.01,-247.34L-251.27,-287.46L-222.37,-317.93L-202.57,-318.46L-192.15,-298.93L-191.89,-289.03L-220.52,-248.66ZM-100.98,-222.13L-54.13,-322.41L-24.44,-323.19L-24.70,-333.09L-54.39,-332.30L-35.65,-372.41L-55.44,-371.89L-64.55,-341.94L-84.08,-331.51L-103.87,-330.99L-103.61,-321.09L-83.82,-321.62L-130.67,-221.34L-130.40,-211.44L-120.24,-201.81L-100.45,-202.33L-80.92,-212.75L-32.75,-263.55L-42.91,-273.19L-91.08,-222.39ZM162.55,-367.78L172.44,-368.04L181.81,-388.10L181.55,-397.99L161.49,-407.36L151.60,-407.10L142.23,-387.05L142.49,-377.15ZM55.79,-285.71L65.95,-276.08L114.11,-326.88L124.01,-327.14L67.26,-226.60L67.53,-216.70L77.69,-207.07L97.48,-207.59L117.01,-218.02L165.18,-268.81L155.02,-278.45L106.85,-227.65L96.95,-227.39L153.70,-327.93L153.44,-337.83L133.38,-347.20L103.96,-336.51ZM186.28,-219.86L185.49,-249.55L175.34,-259.18L155.81,-248.76L156.59,-219.07L176.65,-209.70L196.44,-210.22L225.87,-220.91L245.14,-241.23L244.61,-261.02L233.40,-310.24L232.87,-330.03L252.40,-340.46L253.19,-310.77L263.35,-301.13L282.88,-311.56L282.09,-341.25L252.14,-350.35L212.82,-339.40L203.45,-319.35L203.97,-299.56L214.92,-260.23L215.45,-240.44L196.18,-220.12ZM519.61,-347.56L509.45,-357.19L490.45,-326.98L480.02,-346.51L440.17,-355.35L391.74,-314.45L373.27,-264.44L384.21,-225.12L404.27,-215.75L424.06,-216.27L452.96,-246.75L453.49,-226.96L463.65,-217.33L493.08,-228.01L541.24,-278.81L531.08,-288.44L482.92,-237.65L473.02,-237.38ZM423.54,-236.07L413.64,-235.80L402.95,-265.23L421.70,-305.34L450.60,-335.82L470.39,-336.35L480.81,-316.82L481.07,-306.92L452.44,-266.55ZM-560.54,0.04L-561.33,-29.65L-543.11,-89.55L-494.68,-130.45L-474.89,-130.98L-454.57,-111.71L-453.78,-82.02L-433.99,-82.55L-414.72,-102.87L-425.14,-122.40L-475.15,-140.87L-504.84,-140.09L-543.90,-119.24L-572.80,-88.76L-591.80,-58.55L-600.39,-8.80L-579.28,40.16L-539.17,58.90L-499.58,57.84L-470.42,37.26L-441.52,6.78L-451.68,-2.85L-480.58,27.63L-509.74,48.21L-529.53,48.74L-549.59,39.37ZM-401.14,35.42L-317.07,-154.98L-386.35,-153.14L-386.08,-143.24L-356.39,-144.03L-430.83,36.21L-430.57,46.11L-410.51,55.48L-381.08,44.79L-332.92,-6.01L-343.08,-15.64L-391.24,35.16ZM-226.69,-107.86L-216.79,-108.13L-207.42,-128.18L-207.68,-138.08L-227.74,-147.45L-237.63,-147.19L-247.01,-127.13L-246.74,-117.24ZM-333.44,-25.80L-323.28,-16.17L-275.12,-66.96L-265.22,-67.23L-321.97,33.32L-321.71,43.21L-311.55,52.85L-291.75,52.32L-272.22,41.90L-224.06,-8.90L-234.22,-18.53L-282.38,32.26L-292.28,32.53L-235.53,-68.02L-235.79,-77.91L-255.85,-87.28L-285.28,-76.60ZM-66.50,-42.80L-47.23,-63.12L-27.70,-73.54L-17.54,-63.91L-64.66,26.48L-64.40,36.37L-54.24,46.01L-34.44,45.48L-14.91,35.06L33.25,-15.74L23.09,-25.37L-25.07,25.43L-34.97,25.69L12.41,-54.80L11.62,-84.49L-18.33,-93.60L-47.76,-82.91L-67.03,-62.59L-67.55,-82.38L-87.61,-91.75L-117.04,-81.07L-145.94,-50.59L-136.57,-70.65L-136.83,-80.54L-146.99,-90.18L-176.41,-79.49L-224.58,-28.69L-214.42,-19.06L-166.25,-69.86L-156.36,-70.12L-212.84,40.32L-202.68,49.95L-182.89,49.43L-145.41,-30.80L-116.51,-61.28L-96.98,-71.70L-86.82,-62.07L-133.67,38.22L-123.51,47.85L-103.72,47.32ZM189.76,-89.22L179.60,-98.86L160.59,-68.64L150.17,-88.17L110.32,-97.02L61.89,-56.11L43.41,-6.11L54.36,33.22L74.42,42.59L94.21,42.06L123.11,11.58L123.64,31.38L133.80,41.01L163.22,30.32L211.39,-20.47L201.23,-30.11L153.06,20.69L143.17,20.95ZM93.68,22.27L83.79,22.53L73.10,-6.89L91.84,-47.01L120.74,-77.49L140.54,-78.01L150.96,-58.48L151.22,-48.59L122.59,-8.21ZM242.13,18.32L288.98,-81.96L318.67,-82.75L318.41,-92.64L288.72,-91.85L307.46,-131.97L287.67,-131.44L278.56,-101.49L259.03,-91.06L239.24,-90.54L239.50,-80.64L259.29,-81.17L212.44,19.11L212.71,29.01L222.87,38.64L242.66,38.12L262.19,27.69L310.36,-23.10L300.20,-32.74L252.03,18.06ZM458.01,-56.74L457.49,-76.53L447.07,-96.06L407.22,-104.91L358.52,-73.90L330.41,-13.73L341.36,25.59L361.42,34.96L381.21,34.43L400.74,24.01L439.27,-16.63L429.11,-26.26L390.58,14.38L370.79,14.90L360.10,-14.52L378.84,-54.64L407.74,-85.11L427.54,-85.64L428.32,-55.95L408.79,-45.53L379.11,-44.74L379.37,-34.84L428.85,-36.16ZM-636.76,112.99L-616.44,132.26L-661.72,291.92L-690.88,312.50L-572.12,309.34L-533.06,288.50L-504.16,258.02L-485.16,227.80L-476.58,178.06L-497.69,129.10L-547.69,110.62ZM-515.64,198.90L-533.85,258.81L-562.75,289.28L-582.28,299.71L-621.87,300.76L-632.03,291.13L-586.75,131.47L-577.12,121.31L-547.43,120.52L-527.37,129.89L-516.43,169.21ZM-336.97,213.96L-337.50,194.17L-347.92,174.64L-387.77,165.79L-436.47,196.80L-464.58,256.96L-453.63,296.29L-433.57,305.66L-413.78,305.13L-394.25,294.71L-355.71,254.07L-365.87,244.44L-404.41,285.08L-424.20,285.60L-434.89,256.18L-416.15,216.06L-387.25,185.58L-367.45,185.06L-366.66,214.75L-386.19,225.17L-415.88,225.96L-415.62,235.86L-366.14,234.54ZM-315.08,292.61L-315.87,262.92L-326.03,253.28L-345.56,263.70L-344.77,293.39L-324.71,302.76L-304.92,302.24L-275.49,291.55L-256.22,271.23L-256.75,251.44L-267.96,202.22L-268.49,182.43L-248.96,172.01L-248.17,201.70L-238.01,211.33L-218.48,200.91L-219.27,171.22L-249.22,162.11L-288.54,173.06L-297.91,193.11L-297.39,212.91L-286.44,252.23L-285.91,272.02L-305.18,292.34ZM-111.20,138.63L-101.30,138.37L-91.93,118.31L-92.19,108.42L-112.25,99.05L-122.14,99.31L-131.51,119.37L-131.25,129.26ZM-217.95,220.70L-207.79,230.33L-159.63,179.53L-149.73,179.27L-206.48,279.82L-206.21,289.71L-196.06,299.35L-176.26,298.82L-156.73,288.40L-108.57,237.60L-118.72,227.97L-166.89,278.76L-176.79,279.03L-120.04,178.48L-120.30,168.59L-140.36,159.22L-169.79,169.90ZM-87.98,266.76L-87.72,276.66L-77.56,286.29L-126.52,307.40L-135.89,327.46L-125.20,356.88L-85.09,375.62L-65.30,375.10L-25.97,364.15L-6.97,333.93L-7.50,314.14L-58.03,275.87L-58.29,265.97L-28.60,265.18L20.09,234.18L29.20,204.23L18.51,174.80L48.20,174.01L47.94,164.11L8.35,165.17L-31.50,156.32L-80.19,187.33L-89.30,217.28L-68.45,256.34ZM-30.97,176.12L-11.18,175.59L-0.49,205.02L-0.23,214.91L-29.13,245.39L-48.92,245.92L-59.61,216.49L-59.87,206.59ZM-67.40,295.93L-36.92,324.83L-36.40,344.62L-65.56,365.20L-95.78,346.20L-106.20,326.67L-96.83,306.61ZM39.36,213.86L49.52,223.49L97.68,172.70L107.58,172.43L51.09,282.87L61.25,292.51L81.05,291.98L118.53,211.76L147.43,181.28L166.96,170.85L177.12,180.49L130.00,270.87L130.27,280.77L140.43,290.40L160.22,289.88L179.75,279.45L227.92,228.65L217.76,219.02L169.59,269.82L159.69,270.08L207.07,189.59L206.28,159.91L176.33,150.80L146.90,161.48L118.00,191.96L127.37,171.91L127.11,162.01L116.95,152.38L87.52,163.06ZM365.68,195.28L365.15,175.49L354.73,155.96L314.88,147.12L266.19,178.12L238.08,238.29L249.02,277.61L269.08,286.98L288.87,286.46L308.40,276.03L346.94,235.39L336.78,225.76L298.24,266.40L278.45,266.93L267.77,237.50L286.51,197.39L315.41,166.91L335.20,166.38L335.99,196.07L316.46,206.49L286.77,207.28L287.03,217.18L336.51,215.86ZM365.94,205.18L376.10,214.81L424.27,164.01L434.16,163.75L377.68,274.19L387.84,283.82L407.63,283.30L445.11,203.07L474.28,182.49L503.97,181.70L513.07,151.75L493.02,142.38L473.49,152.80L444.85,193.18L434.95,193.44L453.96,163.23L453.69,153.33L443.53,143.70L414.11,154.38ZM562.56,150.44L572.45,150.17L571.66,120.48L581.03,100.43L600.56,90.00L620.62,99.37L631.04,118.90L631.57,138.70L622.20,158.75L593.03,179.34L563.61,190.02L554.50,219.97L564.40,219.71L573.77,199.65L603.19,188.97L642.25,168.12L661.26,137.91L660.73,118.12L640.15,88.95L610.20,79.84L590.40,80.37L560.98,91.06L541.97,121.27L542.24,131.17ZM556.08,279.35L565.98,279.09L575.35,259.03L575.08,249.14L555.03,239.77L545.13,240.03L535.76,260.09L536.02,269.98Z" fill="#ffffff" stroke="#000000"/>
    <path d="M-570.49,-356.32L-599.33,-344.97L-661.07,-214.10L-667.84,-341.32L-649.30,-361.94L-717.81,-358.29L-697.19,-339.76L-687.30,-153.83L-668.25,-164.65L-597.77,-315.61L-589.44,-159.03L-580.18,-169.34L-481.90,-351.22L-453.58,-372.35L-522.08,-368.71L-501.47,-350.17L-563.73,-229.10ZM-414.44,-374.43L-448.37,-274.49L-492.62,-183.81L-482.31,-174.54L-462.74,-175.59L-427.76,-255.96L-399.96,-286.88L-380.91,-297.71L-370.61,-288.44L-414.85,-197.76L-414.33,-187.97L-404.02,-178.71L-384.45,-179.75L-365.40,-190.58L-319.07,-242.11L-329.38,-251.38L-375.71,-199.84L-385.49,-199.32L-340.73,-280.22L-342.29,-309.57L-372.17,-317.80L-401.01,-306.45L-419.54,-285.84L-375.81,-386.30L-444.32,-382.66L-443.79,-372.87ZM-166.14,-318.94L-176.44,-328.21L-194.46,-297.81L-205.28,-316.86L-244.95,-324.57L-291.80,-282.82L-308.77,-232.85L-296.90,-194.22L-276.80,-185.48L-257.23,-186.52L-229.43,-217.44L-228.39,-197.87L-218.09,-188.60L-189.25,-199.95L-142.92,-251.48L-153.23,-260.75L-199.56,-209.21L-209.34,-208.69ZM-258.27,-206.09L-268.06,-205.57L-279.41,-234.41L-261.92,-274.59L-234.12,-305.51L-214.55,-306.56L-203.72,-287.50L-203.20,-277.72L-230.48,-237.01ZM-111.48,-213.90L-67.76,-314.36L-38.40,-315.93L-38.92,-325.71L-68.28,-324.15L-50.79,-364.34L-70.36,-363.30L-78.58,-333.42L-97.63,-322.59L-117.21,-321.55L-116.69,-311.76L-97.11,-312.80L-140.84,-212.34L-140.32,-202.55L-130.01,-193.29L-110.44,-194.33L-91.39,-205.15L-45.06,-256.69L-55.37,-265.95L-101.69,-214.42ZM145.46,-364.96L155.24,-365.48L163.99,-385.58L163.47,-395.36L143.38,-404.11L133.59,-403.59L124.84,-383.49L125.36,-373.71ZM41.97,-280.95L52.28,-271.68L98.61,-323.21L108.40,-323.74L54.88,-222.75L55.40,-212.96L65.71,-203.70L85.28,-204.74L104.34,-215.57L150.66,-267.10L140.36,-276.37L94.03,-224.83L84.24,-224.31L137.75,-325.30L137.23,-335.08L117.14,-343.83L88.30,-332.48ZM172.84,-219.21L171.28,-248.57L160.97,-257.84L141.92,-247.01L143.48,-217.65L163.57,-208.90L183.15,-209.95L211.98,-221.29L230.51,-241.91L229.47,-261.48L217.08,-309.89L216.04,-329.46L235.09,-340.29L236.66,-310.93L246.96,-301.67L266.02,-312.49L264.45,-341.85L234.57,-350.08L195.95,-338.21L187.21,-318.11L188.25,-298.54L200.11,-259.92L201.16,-240.35L182.63,-219.73ZM499.32,-354.35L489.01,-363.61L471.00,-333.21L460.18,-352.26L420.51,-359.97L373.66,-318.22L356.69,-268.25L368.56,-229.62L388.66,-220.88L408.23,-221.92L436.02,-252.84L437.07,-233.27L447.37,-224.00L476.21,-235.35L522.54,-286.88L512.23,-296.15L465.90,-244.62L456.12,-244.10ZM407.19,-241.49L397.40,-240.97L386.05,-269.81L403.54,-310.00L431.34,-340.92L450.91,-341.96L461.74,-322.90L462.26,-313.12L434.98,-272.41ZM-560.39,18.04L-561.96,-11.32L-545.51,-71.08L-498.66,-112.83L-479.09,-113.87L-458.47,-95.34L-456.91,-65.98L-437.34,-67.02L-418.81,-87.64L-429.63,-106.69L-479.61,-123.66L-508.96,-122.09L-547.07,-100.44L-574.86,-69.52L-592.88,-39.12L-600.06,10.33L-577.88,58.22L-537.70,75.71L-498.55,73.63L-470.24,52.49L-442.44,21.57L-452.75,12.31L-480.54,43.23L-508.86,64.36L-528.43,65.40L-548.52,56.66ZM-401.73,48.85L-323.55,-141.77L-392.05,-138.13L-391.53,-128.34L-362.17,-129.90L-431.09,50.41L-430.57,60.20L-410.48,68.94L-381.64,57.60L-335.31,6.06L-345.62,-3.20L-391.95,48.33ZM-232.87,-97.53L-223.08,-98.05L-214.34,-118.14L-214.86,-127.93L-234.95,-136.67L-244.74,-136.15L-253.48,-116.06L-252.96,-106.27ZM-336.35,-13.51L-326.05,-4.25L-279.72,-55.78L-269.93,-56.30L-323.44,44.69L-322.92,54.47L-312.62,63.74L-293.04,62.70L-273.99,51.87L-227.66,0.33L-237.97,-8.93L-284.30,42.60L-294.08,43.12L-240.57,-57.86L-241.09,-67.65L-261.19,-76.39L-290.02,-65.04ZM-72.65,-37.35L-54.12,-57.97L-35.06,-68.79L-24.76,-59.53L-69.00,31.15L-68.48,40.94L-58.18,50.20L-38.60,49.16L-19.55,38.33L26.78,-13.20L16.47,-22.47L-29.86,29.07L-39.64,29.59L5.12,-51.30L3.56,-80.66L-26.32,-88.89L-55.16,-77.54L-73.69,-56.93L-74.73,-76.50L-94.82,-85.24L-123.66,-73.90L-151.46,-42.97L-142.71,-63.07L-143.23,-72.85L-153.54,-82.12L-182.38,-70.77L-228.70,-19.24L-218.40,-9.97L-172.07,-61.51L-162.28,-62.03L-215.27,48.74L-204.97,58.01L-185.40,56.97L-150.42,-23.40L-122.62,-54.32L-103.57,-65.15L-93.26,-55.88L-136.99,44.58L-126.68,53.85L-107.11,52.80ZM179.71,-90.03L169.40,-99.30L151.39,-68.90L140.57,-87.95L100.90,-95.66L54.05,-53.91L37.08,-3.94L48.95,34.69L69.04,43.43L88.62,42.39L116.41,11.47L117.46,31.04L127.76,40.31L156.60,28.96L202.93,-22.57L192.62,-31.84L146.29,19.70L136.51,20.22ZM87.58,22.82L77.79,23.34L66.44,-5.50L83.93,-45.68L111.73,-76.60L131.30,-77.64L142.13,-58.59L142.65,-48.81L115.37,-8.10ZM234.37,15.01L278.09,-85.45L307.45,-87.02L306.93,-96.80L277.57,-95.24L295.06,-135.43L275.49,-134.38L267.27,-104.51L248.21,-93.68L228.64,-92.64L229.16,-82.85L248.73,-83.89L205.01,16.57L205.53,26.36L215.84,35.62L235.41,34.58L254.46,23.76L300.79,-27.78L290.48,-37.04L244.15,14.49ZM446.02,-64.95L444.98,-84.52L434.15,-103.57L394.49,-111.27L347.12,-79.31L320.88,-19.03L332.75,19.59L352.84,28.34L372.42,27.29L391.47,16.47L428.53,-24.76L418.22,-34.03L381.16,7.20L361.59,8.24L350.24,-20.59L367.73,-60.78L395.53,-91.70L415.10,-92.74L416.66,-63.38L397.61,-52.56L368.25,-50.99L368.77,-41.21L417.70,-43.81ZM-632.85,131.81L-612.24,150.34L-652.84,309.52L-681.16,330.65L-563.72,324.40L-525.62,302.75L-497.82,271.83L-479.81,241.43L-472.63,191.98L-494.80,144.09L-544.78,127.12ZM-510.73,213.63L-527.18,273.39L-554.98,304.31L-574.03,315.14L-613.17,317.22L-623.48,307.96L-582.88,148.77L-573.61,138.47L-544.26,136.91L-524.16,145.65L-512.29,184.27ZM-333.54,223.83L-334.58,204.26L-345.41,185.21L-385.07,177.51L-432.44,209.47L-458.68,269.75L-446.81,308.37L-426.72,317.12L-407.14,316.08L-388.09,305.25L-351.03,264.02L-361.34,254.76L-398.40,295.98L-417.97,297.02L-429.32,268.19L-411.83,228.00L-384.03,197.08L-364.46,196.04L-362.90,225.40L-381.95,236.22L-411.31,237.79L-410.79,247.57L-361.86,244.97ZM-309.80,301.08L-311.36,271.72L-321.67,262.46L-340.72,273.29L-339.16,302.64L-319.07,311.39L-299.50,310.35L-270.66,299.00L-252.13,278.39L-253.17,258.81L-265.56,210.40L-266.60,190.83L-247.55,180.00L-245.99,209.36L-235.68,218.63L-216.63,207.80L-218.19,178.44L-248.07,170.22L-286.69,182.09L-295.44,202.18L-294.40,221.75L-282.53,260.38L-281.49,279.95L-300.02,300.56ZM-112.10,143.36L-102.32,142.84L-93.57,122.74L-94.09,112.96L-114.19,104.21L-123.97,104.73L-132.72,124.83L-132.20,134.61ZM-215.59,227.37L-205.28,236.64L-158.95,185.11L-149.16,184.58L-202.68,285.57L-202.16,295.36L-191.85,304.62L-172.28,303.58L-153.22,292.75L-106.90,241.22L-117.20,231.95L-163.53,283.49L-173.32,284.01L-119.81,183.02L-120.33,173.24L-140.42,164.49L-169.26,175.84ZM-85.76,269.54L-85.24,279.32L-74.94,288.59L-122.82,310.76L-131.57,330.86L-120.22,359.69L-80.04,377.18L-60.46,376.14L-21.84,364.27L-3.83,333.87L-4.87,314.30L-55.88,277.76L-56.40,267.97L-27.05,266.41L20.32,234.45L28.55,204.57L17.20,175.73L46.56,174.17L46.04,164.39L6.89,166.47L-32.77,158.77L-80.14,190.73L-88.37,220.61L-66.71,258.71ZM-31.73,178.34L-12.16,177.30L-0.81,206.13L-0.29,215.92L-28.09,246.84L-47.66,247.88L-59.01,219.04L-59.53,209.26ZM-64.63,297.85L-33.71,325.65L-32.67,345.22L-60.98,366.36L-91.38,348.35L-102.21,329.29L-93.47,309.20ZM38.85,213.84L49.16,223.10L95.49,171.57L105.28,171.05L52.28,281.82L62.59,291.09L82.16,290.04L117.14,209.67L144.94,178.75L163.99,167.93L174.30,177.19L130.05,267.87L130.57,277.66L140.88,286.92L160.45,285.88L179.51,275.05L225.83,223.52L215.53,214.25L169.20,265.79L159.41,266.31L204.18,185.42L202.62,156.06L172.74,147.83L143.90,159.18L116.10,190.10L124.85,170.01L124.33,160.22L114.02,150.96L85.18,162.30ZM361.28,186.87L360.24,167.30L349.41,148.25L309.74,140.54L262.37,172.51L236.14,232.78L248.01,271.41L268.10,280.15L287.67,279.11L306.73,268.28L343.79,227.06L333.48,217.79L296.42,259.02L276.85,260.06L265.50,231.22L282.99,191.04L310.78,160.12L330.36,159.08L331.92,188.43L312.87,199.26L283.51,200.82L284.03,210.61L332.96,208.01ZM361.80,196.66L372.10,205.92L418.43,154.39L428.22,153.87L375.23,264.64L385.54,273.91L405.11,272.86L440.09,192.49L468.40,171.36L497.76,169.80L505.99,139.92L485.89,131.17L466.84,142.00L439.57,182.71L429.78,183.23L447.79,152.83L447.27,143.04L436.96,133.78L408.13,145.12ZM554.92,137.31L564.70,136.79L563.14,107.44L571.89,87.34L590.94,76.52L611.03,85.26L621.86,104.31L622.90,123.88L614.16,143.98L585.84,165.11L557.00,176.46L548.78,206.34L558.56,205.82L567.31,185.73L596.15,174.38L634.25,152.72L652.26,122.32L651.22,102.75L630.08,74.43L600.20,66.21L580.63,67.25L551.79,78.60L533.78,109.00L534.30,118.78ZM551.90,265.06L561.69,264.54L570.43,244.44L569.91,234.66L549.82,225.91L540.03,226.43L531.29,246.52L531.81,256.31Z" fill="#ffffff" stroke="#000000"/>
    <path d="M-579.41,-334.19L-607.65,-322.20L-665.29,-191.09L-675.33,-316.79L-657.54,-337.68L-725.22,-332.27L-704.34,-314.48L-689.66,-130.76L-671.10,-141.98L-605.33,-293.19L-592.97,-138.49L-584.08,-148.93L-491.62,-331.47L-464.16,-353.13L-531.84,-347.72L-510.96,-329.93L-569.37,-208.49ZM-425.48,-356.22L-456.43,-256.44L-497.83,-165.55L-487.38,-156.65L-468.05,-158.20L-435.55,-238.64L-408.86,-269.97L-390.29,-281.18L-379.85,-272.28L-421.24,-181.40L-420.47,-171.73L-410.03,-162.83L-390.69,-164.38L-372.13,-175.59L-327.64,-227.80L-338.08,-236.70L-382.57,-184.49L-392.24,-183.72L-350.07,-264.93L-352.39,-293.94L-382.17,-301.29L-410.40,-289.31L-428.20,-268.42L-387.58,-368.98L-455.26,-363.57L-454.49,-353.90ZM-178.34,-307.84L-188.78,-316.74L-205.81,-286.19L-217.02,-304.76L-256.47,-311.33L-301.72,-268.80L-317.20,-218.90L-304.44,-181.00L-284.33,-172.88L-264.99,-174.42L-238.30,-205.75L-236.76,-186.41L-226.32,-177.51L-198.08,-189.50L-153.60,-241.71L-164.04,-250.60L-208.52,-198.39L-218.19,-197.62ZM-266.54,-193.76L-276.21,-192.99L-288.19,-221.22L-271.94,-261.44L-245.25,-292.77L-225.92,-294.31L-214.70,-275.75L-213.93,-266.08L-239.85,-225.08ZM-121.50,-205.35L-80.88,-305.90L-51.87,-308.22L-52.64,-317.89L-81.65,-315.57L-65.40,-355.79L-84.74,-354.25L-92.09,-324.47L-110.66,-313.25L-130.00,-311.71L-129.22,-302.04L-109.89,-303.58L-150.51,-203.03L-149.73,-193.36L-139.29,-184.46L-119.95,-186.01L-101.39,-197.22L-56.90,-249.43L-67.35,-258.33L-111.83,-206.12ZM128.75,-361.57L138.42,-362.34L146.55,-382.46L145.78,-392.12L125.66,-400.25L116.00,-399.48L107.87,-379.37L108.64,-369.70ZM28.57,-275.72L39.01,-266.82L83.50,-319.03L93.17,-319.81L42.88,-218.48L43.65,-208.81L54.09,-199.91L73.43,-201.46L92.00,-212.67L136.48,-264.88L126.04,-273.78L81.55,-221.57L71.88,-220.80L122.17,-322.12L121.40,-331.79L101.29,-339.92L73.06,-327.93ZM159.68,-218.08L157.36,-247.09L146.92,-255.98L128.35,-244.77L130.67,-215.76L150.78,-207.64L170.12,-209.18L198.36,-221.17L216.15,-242.05L214.61,-261.39L201.07,-308.96L199.53,-328.30L218.09,-339.52L220.41,-310.51L230.85,-301.61L249.42,-312.83L247.10,-341.83L217.32,-349.19L179.42,-336.43L171.29,-316.32L172.84,-296.98L185.60,-259.07L187.14,-239.74L169.35,-218.85ZM479.16,-360.37L468.72,-369.27L451.70,-338.72L440.49,-357.28L401.04,-363.86L355.78,-321.32L340.30,-271.43L353.06,-233.53L373.17,-225.40L392.51,-226.95L419.20,-258.27L420.75,-238.94L431.19,-230.04L459.42,-242.03L503.91,-294.23L493.47,-303.13L448.98,-250.92L439.31,-250.15ZM390.97,-246.29L381.30,-245.52L369.31,-273.75L385.56,-313.97L412.25,-345.30L431.59,-346.84L442.80,-328.28L443.58,-318.61L417.66,-277.61ZM-559.57,35.95L-561.89,6.94L-547.19,-52.62L-501.93,-95.16L-482.59,-96.70L-461.71,-78.91L-459.39,-49.90L-440.05,-51.45L-422.26,-72.33L-433.48,-90.90L-483.37,-106.37L-512.37,-104.06L-549.51,-81.63L-576.20,-50.30L-593.22,-19.75L-599.02,29.37L-575.82,76.17L-535.60,92.42L-496.92,89.33L-469.46,67.67L-442.77,36.35L-453.21,27.45L-479.90,58.78L-507.37,80.43L-526.70,81.98L-546.82,73.85ZM-401.78,62.26L-329.43,-128.40L-397.12,-123.00L-396.34,-113.33L-367.34,-115.64L-430.79,64.58L-430.01,74.25L-409.90,82.38L-381.67,70.39L-337.18,18.18L-347.62,9.28L-392.11,61.49ZM-238.55,-87.01L-228.88,-87.78L-220.75,-107.89L-221.53,-117.56L-241.64,-125.69L-251.31,-124.91L-259.43,-104.80L-258.66,-95.13ZM-338.73,-1.16L-328.29,7.74L-283.80,-44.47L-274.13,-45.24L-324.42,56.08L-323.65,65.75L-313.21,74.65L-293.87,73.11L-275.31,61.89L-230.82,9.68L-241.26,0.79L-285.75,52.99L-295.42,53.77L-245.13,-47.56L-245.90,-57.23L-266.01,-65.35L-294.24,-53.37ZM-78.43,-31.68L-60.64,-52.57L-42.07,-63.78L-31.63,-54.89L-73.02,36.00L-72.25,45.67L-61.81,54.57L-42.47,53.02L-23.91,41.81L20.58,-10.40L10.14,-19.30L-34.35,32.91L-44.02,33.68L-1.85,-47.53L-4.17,-76.54L-33.95,-83.89L-62.18,-71.91L-79.98,-51.02L-81.52,-70.36L-101.63,-78.49L-129.87,-66.50L-156.56,-35.17L-148.43,-55.28L-149.21,-64.95L-159.65,-73.85L-187.88,-61.86L-232.37,-9.66L-221.93,-0.76L-177.44,-52.97L-167.77,-53.74L-217.29,57.26L-206.85,66.15L-187.51,64.61L-155.01,-15.84L-128.32,-47.16L-109.76,-58.37L-99.32,-49.48L-139.94,51.08L-129.50,59.97L-110.16,58.43ZM169.88,-90.45L159.43,-99.34L142.41,-68.79L131.20,-87.36L91.75,-93.94L46.49,-51.40L31.02,-1.51L43.78,36.40L63.89,44.52L83.23,42.98L109.92,11.65L111.46,30.99L121.90,39.89L150.14,27.90L194.62,-24.31L184.18,-33.20L139.70,19.01L130.03,19.78ZM81.68,23.64L72.01,24.41L60.03,-3.82L76.27,-44.04L102.96,-75.37L122.30,-76.91L133.52,-58.35L134.29,-48.68L108.37,-7.68ZM226.72,12.05L267.34,-88.50L296.35,-90.82L295.58,-100.49L266.57,-98.17L282.82,-138.39L263.48,-136.85L256.13,-107.07L237.56,-95.85L218.22,-94.31L219.00,-84.64L238.33,-86.18L197.71,14.37L198.48,24.04L208.93,32.94L228.26,31.39L246.83,20.18L291.31,-32.03L280.87,-40.93L236.39,11.28ZM434.03,-72.63L432.49,-91.96L421.28,-110.53L381.83,-117.11L335.80,-84.24L311.43,-23.91L324.18,14.00L344.30,22.12L363.63,20.58L382.20,9.36L417.79,-32.40L407.34,-41.30L371.76,0.47L352.42,2.01L340.43,-26.22L356.68,-66.45L383.37,-97.77L402.71,-99.32L405.03,-70.31L386.46,-59.09L357.45,-56.78L358.23,-47.11L406.57,-50.97ZM-628.28,150.42L-607.39,168.22L-643.38,326.79L-670.84,348.44L-554.81,339.17L-517.68,316.74L-490.99,285.42L-473.97,254.87L-468.16,205.75L-491.36,158.95L-541.25,143.47ZM-505.29,228.18L-520.00,287.74L-546.69,319.06L-565.25,330.27L-603.93,333.36L-614.37,324.47L-578.39,165.90L-569.49,155.46L-540.48,153.14L-520.37,161.26L-507.61,199.17ZM-329.70,233.61L-331.25,214.27L-342.46,195.70L-381.91,189.13L-427.94,222.00L-452.31,282.33L-439.55,320.23L-419.44,328.36L-400.10,326.81L-381.54,315.60L-345.95,273.83L-356.39,264.93L-391.98,306.70L-411.32,308.25L-423.31,280.01L-407.06,239.79L-380.37,208.46L-361.03,206.92L-358.71,235.93L-377.28,247.14L-406.28,249.46L-405.51,259.13L-357.17,255.26ZM-304.18,309.42L-306.50,280.41L-316.94,271.51L-335.51,282.73L-333.19,311.73L-313.08,319.86L-293.74,318.31L-265.51,306.33L-247.71,285.44L-249.26,266.11L-262.79,218.53L-264.34,199.19L-245.77,187.98L-243.45,216.99L-233.01,225.88L-214.45,214.67L-216.76,185.66L-246.54,178.31L-284.45,191.07L-292.57,211.18L-291.03,230.52L-278.27,268.42L-276.72,287.76L-294.52,308.64ZM-112.72,148.16L-103.05,147.38L-94.93,127.27L-95.70,117.60L-115.81,109.48L-125.48,110.25L-133.60,130.36L-132.83,140.03ZM-212.90,234.01L-202.46,242.90L-157.98,190.70L-148.31,189.92L-198.60,291.25L-197.82,300.92L-187.38,309.82L-168.04,308.27L-149.48,297.06L-104.99,244.85L-115.44,235.95L-159.92,288.16L-169.59,288.93L-119.30,187.61L-120.07,177.94L-140.18,169.81L-168.42,181.80ZM-83.34,272.31L-82.57,281.98L-72.12,290.88L-118.93,314.08L-127.05,334.19L-115.06,362.42L-74.84,378.67L-55.50,377.13L-17.60,364.37L-0.58,333.82L-2.12,314.48L-53.56,279.66L-54.33,269.99L-25.32,267.68L20.71,234.81L28.06,205.03L16.07,176.79L45.08,174.47L44.31,164.81L5.63,167.90L-33.82,161.32L-79.85,194.19L-87.20,223.97L-64.77,261.10ZM-32.28,180.65L-12.94,179.11L-0.95,207.34L-0.18,217.01L-26.87,248.34L-46.21,249.88L-58.19,221.65L-58.97,211.98ZM-61.68,299.77L-30.36,326.46L-28.81,345.80L-56.28,367.46L-86.83,350.44L-98.04,331.87L-89.92,311.76ZM38.50,213.92L48.94,222.82L93.42,170.61L103.09,169.84L53.58,280.84L64.02,289.73L83.36,288.19L115.85,207.74L142.54,176.42L161.11,165.20L171.55,174.10L130.16,264.99L130.93,274.66L141.37,283.55L160.71,282.01L179.27,270.79L223.76,218.58L213.32,209.69L168.83,261.90L159.16,262.67L201.33,181.45L199.01,152.45L169.23,145.09L141.00,157.08L114.31,188.41L122.43,168.29L121.66,158.63L111.22,149.73L82.98,161.72ZM356.81,178.76L355.26,159.42L344.05,140.86L304.60,134.28L258.57,167.15L234.20,227.48L246.96,265.39L267.07,273.51L286.41,271.96L304.97,260.75L340.56,218.98L330.12,210.09L294.53,251.85L275.19,253.40L263.21,225.16L279.46,184.94L306.15,153.62L325.48,152.07L327.80,181.08L309.24,192.29L280.23,194.61L281.00,204.28L329.35,200.42ZM357.58,188.43L368.02,197.33L412.51,145.12L422.18,144.35L372.66,255.34L383.10,264.24L402.44,262.70L434.94,182.25L462.40,160.60L491.41,158.28L498.76,128.50L478.65,120.37L460.08,131.59L434.16,172.58L424.49,173.35L441.51,142.80L440.74,133.13L430.30,124.24L402.07,136.22ZM547.10,124.64L556.77,123.86L554.46,94.86L562.58,74.74L581.15,63.53L601.26,71.65L612.47,90.22L614.02,109.56L605.89,129.67L578.43,151.33L550.19,163.31L542.84,193.09L552.51,192.32L560.64,172.21L588.87,160.22L626.00,137.79L643.02,107.24L641.48,87.90L619.82,60.44L590.04,53.09L570.70,54.63L542.47,66.62L525.45,97.17L526.22,106.84ZM547.48,251.11L557.15,250.34L565.27,230.22L564.50,220.56L544.39,212.43L534.72,213.20L526.59,233.31L527.37,242.98Z" fill="#ffffff" stroke="#000000"/>
    <path d="M-587.45,-311.91L-615.07,-299.31L-668.65,-168.09L-681.89,-292.18L-664.83,-313.31L-731.65,-306.18L-710.53,-289.13L-691.17,-107.76L-673.10,-119.34L-612.01,-270.68L-595.72,-117.94L-587.19,-128.51L-500.52,-311.54L-473.92,-333.68L-540.74,-326.55L-519.61,-309.50L-574.21,-187.82ZM-435.73,-337.76L-463.73,-238.22L-502.29,-147.22L-491.73,-138.69L-472.64,-140.73L-442.60,-221.17L-417.02,-252.86L-398.95,-264.45L-388.38,-255.92L-426.95,-164.91L-425.93,-155.37L-415.36,-146.84L-396.27,-148.88L-378.20,-160.46L-335.56,-213.28L-346.13,-221.81L-388.76,-168.99L-398.31,-167.97L-358.73,-249.43L-361.78,-278.07L-391.44,-284.56L-419.06,-271.95L-436.11,-250.83L-398.57,-351.38L-465.39,-344.25L-464.37,-334.70ZM-189.96,-296.40L-200.52,-304.93L-216.56,-274.25L-228.14,-292.32L-267.34,-297.80L-311.00,-254.52L-325.00,-204.75L-311.38,-167.59L-291.27,-160.08L-272.18,-162.12L-246.59,-193.81L-244.56,-174.72L-233.99,-166.19L-206.37,-178.79L-163.74,-231.62L-174.30,-240.14L-216.94,-187.32L-226.48,-186.30ZM-274.21,-181.21L-283.76,-180.19L-296.36,-207.81L-281.34,-248.03L-255.76,-279.72L-236.67,-281.76L-225.09,-263.69L-224.07,-254.14L-248.63,-212.90ZM-131.03,-196.49L-93.48,-297.04L-64.84,-300.09L-65.86,-309.64L-94.50,-306.58L-79.48,-346.80L-98.57,-344.77L-105.07,-315.11L-123.14,-303.53L-142.23,-301.49L-141.21,-291.95L-122.12,-293.98L-159.66,-193.43L-158.65,-183.89L-148.08,-175.36L-128.99,-177.40L-110.92,-188.98L-68.28,-241.80L-78.84,-250.33L-121.48,-197.51ZM112.45,-357.63L122.00,-358.65L129.51,-378.76L128.49,-388.30L108.38,-395.81L98.83,-394.79L91.32,-374.68L92.34,-365.14ZM15.60,-270.06L26.16,-261.53L68.80,-314.35L78.34,-315.37L31.25,-213.80L32.27,-204.26L42.84,-195.73L61.93,-197.77L80.00,-209.35L122.64,-262.17L112.07,-270.70L69.44,-217.88L59.89,-216.86L106.98,-318.43L105.96,-327.97L85.85,-335.48L58.23,-322.88ZM146.82,-216.48L143.77,-245.12L133.20,-253.64L115.13,-242.06L118.18,-213.42L138.29,-205.91L157.39,-207.95L185.00,-220.55L202.06,-241.68L200.02,-260.77L185.38,-307.48L183.35,-326.58L201.42,-338.16L204.48,-309.52L215.04,-300.99L233.11,-312.58L230.06,-341.21L200.40,-347.70L163.24,-334.08L155.73,-313.97L157.76,-294.88L171.38,-257.72L173.42,-238.63L156.37,-217.50ZM459.16,-365.66L448.59,-374.19L432.56,-343.51L420.97,-361.58L381.77,-367.06L338.12,-323.78L324.12,-274.01L337.74,-236.85L357.85,-229.34L376.94,-231.38L402.52,-263.07L404.56,-243.98L415.12,-235.45L442.74,-248.05L485.38,-300.87L474.81,-309.40L432.18,-256.58L422.63,-255.56ZM374.90,-250.47L365.36,-249.45L352.75,-277.07L367.77,-317.29L393.35,-348.98L412.45,-351.02L424.03,-332.95L425.05,-323.40L400.48,-282.16ZM-558.09,53.75L-561.14,25.12L-548.16,-34.20L-504.51,-77.47L-485.42,-79.51L-464.29,-62.45L-461.23,-33.82L-442.14,-35.85L-425.08,-56.98L-436.67,-75.05L-486.43,-89.05L-515.07,-86.00L-551.22,-62.83L-576.80,-31.14L-592.84,-0.47L-597.29,48.28L-573.10,93.97L-532.88,108.99L-494.70,104.92L-468.10,82.77L-442.52,51.08L-453.08,42.55L-478.66,74.24L-505.27,96.39L-524.36,98.43L-544.47,90.92ZM-401.28,75.64L-334.72,-114.90L-401.54,-107.77L-400.52,-98.22L-371.88,-101.28L-429.92,78.70L-428.90,88.24L-408.79,95.75L-381.17,83.15L-338.53,30.33L-349.10,21.80L-391.73,74.62ZM-243.71,-76.33L-234.17,-77.35L-226.66,-97.46L-227.68,-107.01L-247.79,-114.52L-257.33,-113.50L-264.84,-93.39L-263.82,-83.84ZM-340.57,11.24L-330.01,19.76L-287.37,-33.06L-277.82,-34.08L-324.91,67.49L-323.89,77.04L-313.33,85.57L-294.24,83.53L-276.17,71.95L-233.53,19.12L-244.09,10.60L-286.73,63.42L-296.28,64.44L-249.19,-37.13L-250.20,-46.68L-270.31,-54.19L-297.93,-41.59ZM-83.85,-25.81L-66.80,-46.94L-48.72,-58.52L-38.16,-49.99L-76.72,41.01L-75.70,50.56L-65.14,59.08L-46.05,57.05L-27.97,45.46L14.66,-7.36L4.10,-15.88L-38.54,36.94L-48.08,37.96L-8.50,-43.50L-11.56,-72.14L-41.22,-78.63L-68.83,-66.03L-85.89,-44.90L-87.93,-63.99L-108.04,-71.50L-135.65,-58.90L-161.24,-27.21L-153.73,-47.32L-154.75,-56.86L-165.31,-65.39L-192.93,-52.79L-235.57,0.03L-225.00,8.56L-182.37,-44.26L-172.82,-45.28L-218.89,65.84L-208.33,74.36L-189.23,72.33L-159.20,-8.12L-133.62,-39.81L-115.54,-51.39L-104.98,-42.86L-142.52,57.69L-131.96,66.21L-112.87,64.18ZM160.27,-90.47L149.70,-99.00L133.67,-68.33L122.08,-86.40L82.88,-91.87L39.23,-48.60L25.23,1.17L38.85,38.33L58.96,45.84L78.05,43.81L103.63,12.11L105.67,31.21L116.23,39.73L143.85,27.13L186.49,-25.69L175.92,-34.22L133.29,18.60L123.74,19.62ZM76.01,24.72L66.47,25.73L53.86,-1.89L68.88,-42.11L94.46,-73.80L113.56,-75.84L125.14,-57.76L126.16,-48.22L101.59,-6.98ZM219.20,9.44L256.74,-91.11L285.38,-94.17L284.36,-103.72L255.72,-100.66L270.74,-140.88L251.65,-138.84L245.16,-109.19L227.09,-97.60L207.99,-95.57L209.01,-86.02L228.10,-88.06L190.56,12.49L191.58,22.04L202.14,30.57L221.24,28.53L239.31,16.95L281.95,-35.88L271.38,-44.40L228.74,8.42ZM422.08,-79.79L420.04,-98.88L408.46,-116.96L369.26,-122.43L324.58,-88.70L302.06,-28.37L315.68,8.80L335.79,16.31L354.88,14.27L372.95,2.69L407.06,-39.57L396.49,-48.10L362.39,-5.84L343.29,-3.80L330.69,-31.42L345.71,-71.64L371.29,-103.34L390.38,-105.37L393.44,-76.74L375.37,-65.15L346.73,-62.10L347.75,-52.55L395.48,-57.64ZM-623.05,168.82L-601.92,185.87L-633.35,343.70L-659.95,365.84L-545.40,353.62L-509.25,330.46L-483.67,298.76L-467.64,268.09L-463.18,219.34L-487.37,173.65L-537.13,159.65ZM-499.33,242.51L-512.31,301.82L-537.89,333.51L-555.96,345.09L-594.15,349.17L-604.71,340.64L-573.28,182.81L-564.75,172.25L-536.11,169.19L-516.00,176.70L-502.38,213.87ZM-325.47,243.26L-327.50,224.17L-339.09,206.10L-378.29,200.63L-422.96,234.36L-445.49,294.69L-431.87,331.85L-411.76,339.36L-392.67,337.32L-374.59,325.74L-340.49,283.48L-351.05,274.96L-385.16,317.21L-404.25,319.25L-416.85,291.63L-401.83,251.41L-376.25,219.72L-357.16,217.68L-354.11,246.32L-372.18,257.90L-400.82,260.96L-399.80,270.50L-352.07,265.41ZM-298.23,317.59L-301.28,288.96L-311.85,280.43L-329.92,292.01L-326.87,320.65L-306.76,328.16L-287.66,326.12L-260.04,313.52L-242.99,292.39L-245.03,273.30L-259.67,226.59L-261.70,207.50L-243.63,195.91L-240.57,224.55L-230.01,233.08L-211.94,221.50L-214.99,192.86L-244.65,186.37L-281.81,199.99L-289.32,220.10L-287.28,239.19L-273.66,276.35L-271.63,295.45L-288.68,316.57ZM-113.04,153.02L-103.50,152.00L-95.99,131.89L-97.01,122.34L-117.12,114.83L-126.66,115.85L-134.17,135.96L-133.15,145.51ZM-209.90,240.59L-199.33,249.11L-156.70,196.29L-147.15,195.27L-194.24,296.84L-193.22,306.39L-182.66,314.92L-163.57,312.88L-145.49,301.30L-102.86,248.48L-113.42,239.95L-156.06,292.77L-165.60,293.79L-118.52,192.22L-119.53,182.67L-139.64,175.16L-167.26,187.77ZM-80.71,275.08L-79.69,284.62L-69.13,293.15L-114.82,317.33L-122.33,337.44L-109.73,365.06L-69.51,380.08L-50.42,378.04L-13.25,364.42L2.79,333.75L0.75,314.66L-51.06,281.57L-52.07,272.02L-23.44,268.96L21.24,235.23L27.73,205.58L15.13,177.96L43.76,174.90L42.75,165.36L4.56,169.43L-34.64,163.96L-79.31,197.69L-85.80,227.35L-62.64,263.49ZM-32.60,183.05L-13.51,181.02L-0.91,208.63L0.11,218.18L-25.47,249.87L-44.56,251.91L-57.17,224.29L-58.18,214.75ZM-58.56,301.68L-26.87,327.26L-24.83,346.35L-51.43,368.50L-82.11,352.46L-93.69,334.39L-86.18,314.28ZM38.29,214.11L48.86,222.63L91.49,169.81L101.04,168.79L54.97,279.91L65.53,288.44L84.62,286.40L114.66,205.96L140.24,174.26L158.31,162.68L168.88,171.21L130.32,262.21L131.33,271.76L141.90,280.29L160.99,278.25L179.06,266.67L221.70,213.85L211.14,205.32L168.50,258.14L158.95,259.16L198.53,177.70L195.48,149.06L165.82,142.57L138.20,155.17L112.62,186.87L120.13,166.76L119.11,157.21L108.55,148.68L80.93,161.28ZM352.29,170.95L350.25,151.86L338.67,133.78L299.46,128.31L254.79,162.04L232.26,222.37L245.88,259.54L265.99,267.05L285.09,265.01L303.16,253.43L337.27,211.17L326.70,202.64L292.59,244.90L273.50,246.94L260.90,219.32L275.92,179.10L301.50,147.40L320.59,145.37L323.65,174.00L305.57,185.59L276.94,188.64L277.96,198.19L325.68,193.10ZM353.30,180.49L363.87,189.02L406.50,136.20L416.05,135.18L369.98,246.30L380.54,254.82L399.64,252.79L429.67,172.35L456.27,150.20L484.91,147.14L491.40,117.49L471.29,109.98L453.22,121.56L428.65,162.80L419.11,163.82L435.14,133.14L434.12,123.60L423.56,115.07L395.94,127.67ZM539.13,112.40L548.67,111.38L545.62,82.74L553.13,62.63L571.20,51.05L591.31,58.55L602.89,76.63L604.93,95.72L597.42,115.83L570.82,137.98L543.20,150.58L536.71,180.23L546.26,179.22L553.77,159.11L581.38,146.50L617.53,123.34L633.57,92.66L631.53,73.57L609.38,46.97L579.73,40.48L560.64,42.52L533.02,55.12L516.98,85.79L518.00,95.34ZM542.82,237.51L552.37,236.49L559.88,216.38L558.86,206.83L538.75,199.33L529.20,200.34L521.69,220.45L522.71,230.00Z" fill="#ffffff" stroke="#000000"/>
    <path d="M-594.60,-289.53L-621.59,-276.34L-671.14,-145.12L-687.50,-267.53L-671.19,-288.88L-737.10,-280.07L-715.75,-263.75L-691.84,-84.84L-674.26,-96.78L-617.81,-248.09L-597.68,-97.43L-589.52,-108.10L-508.59,-291.44L-482.86,-314.05L-548.78,-305.24L-527.43,-288.92L-578.24,-167.12ZM-445.20,-319.08L-470.28,-219.89L-506.03,-128.85L-495.36,-120.69L-476.52,-123.21L-448.93,-203.57L-424.45,-235.60L-406.88,-247.53L-396.20,-239.37L-431.96,-148.33L-430.70,-138.92L-420.02,-130.76L-401.19,-133.27L-383.62,-145.21L-342.83,-198.58L-353.50,-206.74L-394.29,-153.37L-403.71,-152.11L-366.70,-233.73L-370.47,-261.98L-399.98,-267.62L-426.97,-254.43L-443.29,-233.08L-408.79,-333.53L-474.70,-324.72L-473.44,-315.31ZM-200.98,-284.63L-211.65,-292.79L-226.71,-262.02L-238.64,-279.60L-277.57,-283.98L-319.62,-240.02L-332.16,-190.42L-317.70,-154.02L-297.61,-147.12L-278.78,-149.64L-254.31,-181.66L-251.79,-162.83L-241.12,-154.67L-214.13,-167.86L-173.34,-221.24L-184.01,-229.39L-224.80,-176.02L-234.22,-174.76ZM-281.30,-168.47L-290.71,-167.21L-303.91,-194.20L-290.11,-234.38L-265.63,-266.41L-246.80,-268.92L-234.87,-251.35L-233.61,-241.93L-256.82,-200.49ZM-140.05,-187.35L-105.56,-287.80L-77.31,-291.58L-78.57,-300.99L-106.82,-297.22L-93.02,-337.40L-111.85,-334.88L-117.49,-305.38L-135.07,-293.44L-153.90,-290.93L-152.64,-281.51L-133.81,-284.03L-168.30,-183.57L-167.04,-174.16L-156.37,-166.00L-137.54,-168.51L-119.96,-180.45L-79.17,-233.82L-89.85,-241.98L-130.64,-188.61ZM96.57,-353.16L105.98,-354.41L112.88,-374.51L111.62,-383.92L91.53,-390.82L82.11,-389.56L75.22,-369.47L76.47,-360.05ZM3.05,-263.98L13.73,-255.82L54.52,-309.20L63.93,-310.46L20.02,-208.74L21.28,-199.33L31.96,-191.17L50.79,-193.69L68.36,-205.62L109.15,-258.99L98.48,-267.15L57.69,-213.78L48.27,-212.52L92.18,-314.23L90.92,-323.65L70.83,-330.55L43.84,-317.36ZM134.28,-214.43L130.50,-242.68L119.83,-250.84L102.25,-238.90L106.03,-210.65L126.12,-203.75L144.95,-206.27L171.94,-219.46L188.26,-240.81L185.74,-259.65L170.03,-305.47L167.51,-324.30L185.09,-336.23L188.86,-307.99L199.54,-299.83L217.11,-311.76L213.34,-340.01L183.83,-345.65L147.42,-331.20L140.52,-311.11L143.04,-292.28L157.49,-255.87L160.01,-237.04L143.69,-215.69ZM439.33,-370.21L428.65,-378.37L413.59,-347.61L401.66,-365.18L362.74,-369.56L320.69,-325.60L308.15,-276.01L322.60,-239.60L342.69,-232.70L361.52,-235.22L386.00,-267.24L388.52,-248.41L399.19,-240.25L426.18,-253.44L466.97,-306.82L456.29,-314.98L415.51,-261.60L406.09,-260.34ZM359.01,-254.05L349.59,-252.79L336.40,-279.78L350.20,-319.96L374.67,-351.99L393.50,-354.51L405.44,-336.93L406.70,-327.52L383.48,-286.07ZM-555.94,71.43L-559.71,43.18L-548.43,-15.83L-506.38,-59.79L-487.55,-62.31L-466.20,-45.99L-462.43,-17.74L-443.59,-20.26L-427.28,-41.61L-439.21,-59.19L-488.81,-71.72L-517.06,-67.95L-552.21,-44.08L-576.68,-12.06L-591.74,18.71L-594.86,67.05L-569.74,111.61L-529.55,125.41L-491.89,120.38L-466.16,97.77L-441.68,65.74L-452.36,57.59L-476.83,89.61L-502.56,112.22L-521.40,114.74L-541.49,107.84ZM-400.24,88.96L-339.41,-101.28L-405.32,-92.47L-404.06,-83.05L-375.82,-86.83L-428.49,92.73L-427.23,102.15L-407.14,109.05L-380.15,95.86L-339.36,42.48L-350.04,34.33L-390.83,87.70ZM-248.37,-65.52L-238.95,-66.78L-232.05,-86.87L-233.31,-96.29L-253.40,-103.19L-262.82,-101.93L-269.72,-81.84L-268.46,-72.42ZM-341.88,23.65L-331.21,31.81L-290.42,-21.57L-281.00,-22.82L-324.91,78.89L-323.65,88.31L-312.98,96.46L-294.15,93.95L-276.57,82.01L-235.78,28.64L-246.46,20.48L-287.25,73.86L-296.66,75.11L-252.75,-26.60L-254.01,-36.02L-274.10,-42.92L-301.09,-29.72ZM-88.90,-19.75L-72.58,-41.10L-55.01,-53.03L-44.34,-44.87L-80.09,46.17L-78.83,55.58L-68.16,63.74L-49.32,61.22L-31.75,49.29L9.04,-4.08L-1.64,-12.24L-42.42,41.13L-51.84,42.39L-14.83,-39.23L-18.60,-67.48L-48.11,-73.12L-75.10,-59.93L-91.42,-38.58L-93.93,-57.41L-114.02,-64.31L-141.02,-51.12L-165.49,-19.09L-158.59,-39.19L-159.85,-48.60L-170.52,-56.76L-197.51,-43.57L-238.30,9.81L-227.63,17.96L-186.84,-35.41L-177.42,-36.67L-220.08,74.46L-209.40,82.62L-190.57,80.10L-162.97,-0.26L-138.50,-32.29L-120.92,-44.22L-110.25,-36.06L-144.75,64.39L-134.07,72.55L-115.24,70.03ZM150.89,-90.13L140.21,-98.29L125.16,-67.53L113.22,-85.10L74.30,-89.48L32.25,-45.52L19.71,4.07L34.16,40.48L54.26,47.38L73.09,44.86L97.56,12.84L100.08,31.67L110.75,39.83L137.74,26.64L178.53,-26.74L167.86,-34.90L127.07,18.48L117.65,19.74ZM70.57,26.03L61.15,27.29L47.96,0.30L61.76,-39.88L86.23,-71.91L105.07,-74.43L117.00,-56.85L118.26,-47.43L95.04,-5.99ZM211.81,7.15L246.31,-93.30L274.56,-97.08L273.30,-106.50L245.05,-102.72L258.85,-142.90L240.02,-140.38L234.38,-110.88L216.80,-98.94L197.97,-96.43L199.23,-87.01L218.06,-89.53L183.57,10.93L184.82,20.34L195.50,28.50L214.33,25.98L231.91,14.05L272.69,-39.32L262.02,-47.48L221.23,5.89ZM410.16,-86.45L407.65,-105.28L395.71,-122.86L356.79,-127.24L313.48,-92.70L292.79,-32.42L307.24,3.98L327.33,10.88L346.16,8.36L363.73,-3.57L396.36,-46.27L385.69,-54.43L353.06,-11.73L334.23,-9.21L321.03,-36.20L334.83,-76.38L359.31,-108.41L378.14,-110.92L381.91,-82.67L364.34,-70.74L336.09,-66.97L337.35,-57.55L384.43,-63.84ZM-617.17,186.96L-595.82,203.28L-622.77,360.23L-648.50,382.84L-535.50,367.73L-500.35,343.87L-475.88,311.84L-460.82,281.08L-457.70,232.74L-482.83,188.17L-532.43,175.63ZM-492.85,256.60L-504.13,315.62L-528.60,347.64L-546.18,359.58L-583.84,364.61L-594.52,356.45L-567.57,199.50L-559.42,188.83L-531.17,185.05L-511.08,191.95L-496.62,228.36ZM-320.84,252.78L-323.36,233.95L-335.29,216.38L-374.21,211.99L-417.52,246.54L-438.22,306.81L-423.77,343.22L-403.68,350.11L-384.84,347.60L-367.27,335.66L-334.64,292.96L-345.31,284.81L-377.94,327.51L-396.78,330.02L-409.97,303.03L-396.17,262.85L-371.70,230.83L-352.86,228.31L-349.09,256.56L-366.66,268.49L-394.91,272.27L-393.65,281.68L-346.57,275.39ZM-291.94,325.60L-295.71,297.35L-306.39,289.19L-323.96,301.12L-320.19,329.37L-300.10,336.27L-281.26,333.75L-254.27,320.56L-237.96,299.21L-240.48,280.38L-256.18,234.56L-258.70,215.72L-241.13,203.79L-237.35,232.04L-226.68,240.20L-209.10,228.26L-212.88,200.02L-242.39,194.37L-278.79,208.82L-285.69,228.92L-283.17,247.75L-268.72,284.16L-266.21,302.99L-282.52,324.34ZM-113.08,157.92L-103.66,156.66L-96.76,136.57L-98.02,127.16L-118.11,120.26L-127.53,121.52L-134.42,141.61L-133.17,151.02ZM-206.59,247.10L-195.91,255.25L-155.12,201.88L-145.71,200.62L-189.62,302.34L-188.36,311.75L-177.68,319.91L-158.85,317.39L-141.28,305.46L-100.49,252.08L-111.16,243.93L-151.95,297.30L-161.37,298.56L-117.46,196.85L-118.72,187.43L-138.81,180.53L-165.80,193.72ZM-77.88,277.82L-76.62,287.23L-65.95,295.39L-110.51,320.52L-117.41,340.61L-104.22,367.60L-64.04,381.40L-45.20,378.88L-8.80,364.43L6.26,333.66L3.74,314.83L-48.37,283.46L-49.63,274.04L-21.38,270.27L21.92,235.72L27.56,206.22L14.37,179.23L42.62,175.45L41.36,166.03L3.70,171.07L-35.23,166.69L-78.53,201.23L-84.17,230.74L-60.31,265.88ZM-32.71,185.52L-13.88,183.00L-0.69,209.99L0.57,219.41L-23.90,251.43L-42.73,253.95L-55.93,226.96L-57.18,217.54ZM-55.27,303.55L-23.25,328.02L-20.73,346.85L-46.46,369.46L-77.23,354.41L-89.16,336.83L-82.26,316.74ZM38.24,214.37L48.91,222.53L89.70,169.16L99.12,167.90L56.46,279.03L67.14,287.19L85.97,284.67L113.57,204.31L138.04,172.28L155.61,160.35L166.29,168.51L130.53,259.54L131.79,268.96L142.47,277.12L161.30,274.60L178.87,262.67L219.66,209.29L208.99,201.14L168.20,254.51L158.78,255.77L195.80,174.15L192.02,145.90L162.51,140.26L135.52,153.45L111.05,185.47L117.95,165.38L116.69,155.97L106.02,147.81L79.03,161.00ZM347.72,163.43L345.20,144.59L333.26,127.02L294.34,122.64L251.04,157.18L230.34,217.45L244.79,253.86L264.88,260.76L283.71,258.24L301.29,246.31L333.92,203.61L323.24,195.45L290.61,238.15L271.78,240.67L258.59,213.68L272.39,173.49L296.86,141.47L315.69,138.95L319.47,167.20L301.89,179.13L273.64,182.91L274.90,192.33L321.98,186.03ZM348.97,172.84L359.65,181.00L400.44,127.63L409.85,126.37L367.20,237.50L377.87,245.65L396.71,243.14L424.30,162.77L450.04,140.16L478.28,136.39L483.93,106.88L463.83,99.98L446.26,111.92L423.05,153.36L413.63,154.62L428.69,123.85L427.43,114.43L416.75,106.28L389.76,119.47ZM531.01,100.59L540.42,99.33L536.65,71.08L543.55,50.99L561.12,39.06L581.21,45.96L593.14,63.53L595.66,82.36L588.76,102.45L563.03,125.06L536.04,138.25L530.40,167.76L539.82,166.50L546.72,146.41L573.71,133.22L608.85,109.35L623.91,78.59L621.39,59.75L598.79,34.02L569.28,28.38L550.45,30.90L523.46,44.09L508.40,74.86L509.66,84.27ZM537.95,224.26L547.37,223.00L554.27,202.91L553.01,193.49L532.92,186.59L523.50,187.85L516.60,207.94L517.86,217.36Z" fill="#ffffff" stroke="#000000"/>
    <path d="M-600.86,-267.07L-627.21,-253.31L-672.78,-122.21L-692.18,-242.86L-676.60,-264.41L-741.57,-253.96L-720.02,-238.39L-691.67,-62.05L-674.60,-74.32L-622.74,-225.47L-598.86,-76.98L-591.07,-87.75L-515.84,-271.22L-490.99,-294.26L-555.95,-283.81L-534.41,-268.23L-581.46,-146.42ZM-453.86,-300.23L-476.06,-201.45L-509.03,-110.46L-498.26,-102.67L-479.70,-105.66L-454.52,-185.87L-431.15,-218.19L-414.08,-230.46L-403.31,-222.67L-436.28,-131.68L-434.79,-122.40L-424.02,-114.61L-405.45,-117.60L-388.38,-129.86L-349.44,-183.73L-360.22,-191.52L-399.16,-137.65L-408.44,-136.16L-373.97,-217.87L-378.45,-245.71L-407.79,-250.51L-434.14,-236.76L-449.71,-215.21L-418.23,-315.48L-483.20,-305.03L-481.71,-295.75ZM-211.40,-272.57L-222.17,-280.36L-236.26,-249.54L-248.52,-266.60L-287.14,-269.92L-327.57,-225.33L-338.67,-175.94L-323.42,-140.31L-303.37,-134.01L-284.80,-137.00L-261.44,-169.32L-258.45,-150.76L-247.68,-142.97L-221.33,-156.73L-182.39,-210.59L-193.16,-218.38L-232.10,-164.52L-241.38,-163.02ZM-287.79,-155.56L-297.07,-154.07L-310.83,-180.42L-298.24,-220.53L-274.87,-252.85L-256.31,-255.83L-244.04,-238.76L-242.55,-229.48L-264.42,-187.88ZM-148.58,-177.95L-117.10,-278.22L-89.26,-282.69L-90.75,-291.98L-118.59,-287.50L-106.00,-327.61L-124.56,-324.62L-129.36,-295.29L-146.43,-283.02L-164.99,-280.04L-163.50,-270.76L-144.94,-273.74L-176.42,-173.47L-174.93,-164.19L-164.15,-156.40L-145.59,-159.39L-128.52,-171.65L-89.58,-225.52L-100.35,-233.31L-139.30,-179.44ZM81.11,-348.17L90.39,-349.67L96.69,-369.72L95.19,-379.00L75.14,-385.30L65.86,-383.80L59.56,-363.75L61.06,-354.47ZM-9.04,-257.51L1.73,-249.72L40.68,-303.59L49.96,-305.08L9.20,-203.32L10.69,-194.04L21.46,-186.25L40.02,-189.23L57.09,-201.50L96.03,-255.37L85.26,-263.15L46.32,-209.29L37.04,-207.80L77.80,-309.56L76.31,-318.84L56.25,-325.14L29.90,-311.38ZM122.06,-211.95L117.58,-239.79L106.81,-247.58L89.74,-235.31L94.22,-207.47L114.27,-201.17L132.83,-204.16L159.18,-217.92L174.76,-239.46L171.77,-258.03L155.03,-302.94L152.04,-321.50L169.11,-333.76L173.59,-305.92L184.36,-298.13L201.43,-310.40L196.96,-338.24L167.62,-343.04L131.99,-327.79L125.69,-307.74L128.68,-289.18L143.93,-253.55L146.91,-234.99L131.34,-213.44ZM419.69,-374.06L408.92,-381.85L394.84,-351.02L382.57,-368.09L343.96,-371.40L303.52,-326.82L292.42,-277.43L307.67,-241.80L327.73,-235.50L346.29,-238.49L369.65,-270.80L372.64,-252.24L383.41,-244.45L409.76,-258.21L448.70,-312.08L437.93,-319.87L398.99,-266.00L389.71,-264.51ZM343.30,-257.05L334.02,-255.55L320.26,-281.90L332.86,-322.01L356.22,-354.33L374.78,-357.32L387.05,-340.25L388.54,-330.97L366.67,-289.37ZM-553.13,88.95L-557.61,61.11L-548.00,2.44L-507.57,-42.15L-489.01,-45.13L-467.46,-29.56L-462.98,-1.71L-444.42,-4.70L-428.85,-26.25L-441.11,-43.31L-490.50,-54.41L-518.34,-49.94L-552.48,-25.40L-575.85,6.91L-589.93,37.74L-591.75,85.64L-565.73,129.06L-525.62,141.65L-488.49,135.68L-463.64,112.64L-440.27,80.32L-451.05,72.53L-474.41,104.85L-499.27,127.89L-517.83,130.88L-537.88,124.58ZM-398.67,102.19L-343.50,-87.57L-408.47,-77.13L-406.97,-67.85L-379.13,-72.32L-426.51,106.67L-425.02,115.95L-404.97,122.25L-378.62,108.49L-339.68,54.62L-350.45,46.83L-389.39,100.70ZM-252.51,-54.60L-243.23,-56.09L-236.94,-76.15L-238.43,-85.43L-258.48,-91.72L-267.76,-90.23L-274.06,-70.18L-272.57,-60.90ZM-342.66,36.06L-331.89,43.85L-292.95,-10.02L-283.67,-11.51L-324.43,90.25L-322.93,99.53L-312.16,107.32L-293.60,104.34L-276.53,92.07L-237.59,38.21L-248.36,30.42L-287.30,84.28L-296.58,85.78L-255.82,-15.99L-257.32,-25.27L-277.37,-31.56L-303.72,-17.80ZM-93.57,-13.51L-78.00,-35.06L-60.93,-47.33L-50.15,-39.54L-83.13,51.45L-81.63,60.73L-70.86,68.52L-52.30,65.53L-35.23,53.27L3.71,-0.60L-7.06,-8.39L-46.00,45.48L-55.28,46.97L-20.82,-34.74L-25.30,-62.58L-54.63,-67.38L-80.98,-53.62L-96.56,-32.08L-99.54,-50.64L-119.60,-56.93L-145.95,-43.18L-169.31,-10.86L-163.02,-30.91L-164.51,-40.19L-175.28,-47.98L-201.63,-34.22L-240.57,19.64L-229.80,27.43L-190.86,-26.43L-181.58,-27.93L-220.84,83.12L-210.07,90.91L-191.51,87.92L-166.33,7.71L-142.96,-24.61L-125.89,-36.88L-115.12,-29.09L-146.60,71.18L-135.83,78.97L-117.26,75.98ZM141.76,-89.44L130.98,-97.23L116.90,-66.40L104.63,-83.47L66.02,-86.78L25.58,-42.20L14.49,7.19L29.74,42.82L49.79,49.12L68.35,46.13L91.72,13.81L94.70,32.37L105.47,40.16L131.82,26.41L170.77,-27.46L159.99,-35.25L121.05,18.62L111.77,20.11ZM65.37,27.57L56.09,29.06L42.33,2.71L54.92,-37.39L78.28,-69.71L96.85,-72.70L109.11,-55.63L110.60,-46.35L88.73,-4.75ZM204.58,5.18L236.06,-95.08L263.90,-99.56L262.41,-108.84L234.57,-104.37L247.16,-144.47L228.60,-141.49L223.79,-112.15L206.72,-99.89L188.16,-96.90L189.65,-87.62L208.22,-90.61L176.74,9.66L178.23,18.94L189.00,26.73L207.56,23.75L224.63,11.48L263.57,-42.39L252.80,-50.17L213.86,3.69ZM398.31,-92.61L395.32,-111.18L383.06,-128.24L344.44,-131.56L302.52,-96.25L283.63,-36.09L298.88,-0.46L318.93,5.84L337.49,2.85L354.56,-9.41L385.72,-52.51L374.94,-60.29L343.79,-17.20L325.23,-14.22L311.47,-40.57L324.06,-80.67L347.43,-112.99L365.99,-115.98L370.47,-88.14L353.40,-75.87L325.55,-71.39L327.05,-62.11L373.45,-69.58ZM-610.66,204.83L-589.12,220.41L-611.64,376.36L-636.50,399.40L-525.13,381.49L-490.99,356.96L-467.63,324.64L-453.54,293.82L-451.73,245.92L-477.75,202.50L-527.14,191.40ZM-485.86,270.45L-495.47,329.12L-518.84,361.44L-535.90,373.71L-573.03,379.68L-583.80,371.89L-561.28,215.93L-553.49,205.16L-525.65,200.68L-505.59,206.98L-490.34,242.61ZM-315.82,262.15L-318.81,243.59L-331.08,226.52L-369.69,223.21L-411.62,258.51L-430.51,318.67L-415.25,354.30L-395.20,360.60L-376.64,357.61L-359.57,345.35L-328.42,302.26L-339.19,294.47L-370.34,337.56L-388.90,340.55L-402.66,314.20L-390.07,274.09L-366.71,241.77L-348.14,238.78L-343.67,266.63L-360.74,278.89L-388.58,283.37L-387.09,292.65L-340.68,285.19ZM-285.32,333.41L-289.80,305.57L-300.57,297.78L-317.64,310.04L-313.17,337.89L-293.11,344.18L-274.55,341.20L-248.20,327.44L-232.62,305.89L-235.61,287.33L-252.35,242.42L-255.34,223.86L-238.27,211.59L-233.79,239.44L-223.02,247.22L-205.95,234.96L-210.43,207.12L-239.76,202.31L-275.39,217.56L-281.69,237.62L-278.70,256.18L-263.45,291.81L-260.47,310.37L-276.04,331.92ZM-112.81,162.86L-103.53,161.36L-97.24,141.31L-98.73,132.03L-118.78,125.73L-128.06,127.23L-134.36,147.28L-132.87,156.56ZM-202.96,253.52L-192.19,261.31L-153.25,207.44L-143.97,205.95L-184.73,307.71L-183.24,316.99L-172.46,324.78L-153.90,321.80L-136.83,309.53L-97.89,255.66L-108.66,247.88L-147.60,301.74L-156.89,303.23L-116.13,201.47L-117.62,192.19L-137.67,185.90L-164.02,199.65ZM-74.85,280.52L-73.36,289.80L-62.59,297.59L-106.00,323.62L-112.30,343.67L-98.54,370.02L-58.43,382.61L-39.87,379.63L-4.24,364.38L9.84,333.55L6.86,314.99L-45.52,285.33L-47.01,276.05L-19.17,271.57L22.76,236.26L27.56,206.93L13.81,180.58L41.65,176.10L40.16,166.82L3.03,172.79L-35.58,169.48L-77.51,204.78L-82.31,234.12L-57.78,268.26ZM-32.60,188.04L-14.04,185.06L-0.28,211.41L1.21,220.69L-22.15,253.01L-40.71,255.99L-54.47,229.64L-55.96,220.36ZM-51.81,305.38L-19.49,328.74L-16.51,347.31L-41.37,370.35L-72.19,356.26L-84.46,339.19L-78.16,319.14ZM38.34,214.72L49.11,222.51L88.05,168.64L97.33,167.15L58.06,278.19L68.84,285.98L87.40,282.99L112.58,202.78L135.95,170.46L153.02,158.19L163.79,165.98L130.82,256.97L132.31,266.25L143.08,274.04L161.65,271.05L178.71,258.79L217.66,204.92L206.88,197.13L167.94,251.00L158.66,252.49L193.12,170.78L188.65,142.94L159.31,138.14L132.96,151.90L109.60,184.22L115.89,164.16L114.40,154.88L103.63,147.09L77.28,160.85ZM343.11,156.19L340.12,137.62L327.86,120.56L289.24,117.24L247.32,152.55L228.43,212.71L243.68,248.34L263.73,254.64L282.30,251.65L299.36,239.39L330.52,196.29L319.74,188.51L288.59,231.60L270.03,234.58L256.27,208.23L268.86,168.13L292.23,135.81L310.79,132.82L315.27,160.66L298.20,172.93L270.36,177.41L271.85,186.69L318.25,179.22ZM344.60,165.47L355.38,173.25L394.32,119.39L403.60,117.90L364.33,228.94L375.10,236.73L393.66,233.74L418.85,153.53L443.71,130.49L471.55,126.01L476.35,96.68L456.30,90.38L439.23,102.65L417.36,144.25L408.08,145.74L422.16,114.91L420.67,105.63L409.89,97.84L383.54,111.60ZM522.76,89.21L532.04,87.72L527.56,59.88L533.85,39.83L550.92,27.56L570.98,33.86L583.24,50.92L586.23,69.49L579.93,89.54L555.07,112.58L528.73,126.34L523.92,155.67L533.20,154.18L539.50,134.13L565.85,120.37L599.99,95.84L614.07,65.01L611.09,46.45L588.05,21.59L558.71,16.79L540.15,19.77L513.80,33.53L499.72,64.36L501.21,73.64ZM532.88,211.36L542.16,209.86L548.45,189.81L546.96,180.53L526.91,174.23L517.63,175.73L511.33,195.78L512.82,205.06Z" fill="#ffffff" stroke="#000000"/>
    <path d="M-606.25,-244.56L-631.95,-230.27L-673.57,-99.41L-695.93,-218.23L-681.09,-239.94L-745.06,-227.90L-723.34,-213.06L-690.66,-39.41L-674.11,-51.99L-626.79,-202.85L-599.27,-56.61L-591.85,-67.47L-522.27,-250.91L-498.30,-274.34L-562.27,-262.30L-540.55,-247.47L-583.89,-125.75ZM-461.74,-281.22L-481.10,-182.95L-511.31,-92.09L-500.45,-84.67L-482.17,-88.11L-459.38,-168.11L-437.12,-200.69L-420.56,-213.27L-409.70,-205.85L-439.92,-114.99L-438.20,-105.85L-427.34,-98.43L-409.06,-101.87L-392.50,-114.45L-355.40,-168.75L-366.26,-176.17L-403.36,-121.87L-412.50,-120.15L-380.56,-201.87L-385.72,-229.29L-414.86,-233.27L-440.56,-218.97L-455.40,-197.25L-426.90,-297.24L-490.88,-285.20L-489.16,-276.06ZM-221.21,-260.25L-232.07,-267.67L-245.19,-236.81L-257.77,-253.37L-296.04,-255.63L-334.86,-210.47L-344.54,-161.33L-328.52,-126.49L-308.52,-120.79L-290.24,-124.23L-267.99,-156.81L-264.55,-138.53L-253.69,-131.11L-227.99,-145.41L-190.89,-199.71L-201.75,-207.13L-238.85,-152.83L-247.99,-151.11ZM-293.68,-142.51L-302.82,-140.79L-317.12,-166.49L-305.72,-206.49L-283.47,-239.07L-265.19,-242.51L-252.61,-225.95L-250.89,-216.81L-271.43,-175.09ZM-156.59,-168.31L-128.09,-268.31L-100.67,-273.47L-102.39,-282.61L-129.81,-277.45L-118.41,-317.45L-136.69,-314.01L-140.67,-284.87L-157.23,-272.29L-175.51,-268.85L-173.79,-259.71L-155.51,-263.15L-184.01,-163.15L-182.29,-154.01L-171.43,-146.59L-153.15,-150.03L-136.59,-162.61L-99.49,-216.91L-110.35,-224.33L-147.45,-170.03ZM66.10,-342.71L75.24,-344.43L80.94,-364.43L79.22,-373.57L59.22,-379.27L50.08,-377.55L44.38,-357.55L46.10,-348.41ZM-20.68,-250.67L-9.82,-243.25L27.28,-297.55L36.42,-299.27L-1.22,-197.55L0.50,-188.41L11.36,-180.99L29.64,-184.43L46.20,-197.01L83.30,-251.31L72.44,-258.73L35.34,-204.43L26.20,-202.71L63.84,-304.43L62.12,-313.57L42.12,-319.27L16.42,-304.97ZM110.18,-209.05L105.02,-236.47L94.16,-243.89L77.60,-231.31L82.76,-203.89L102.76,-198.19L121.04,-201.63L146.74,-215.93L161.57,-237.65L158.13,-255.93L140.39,-299.91L136.95,-318.19L153.51,-330.77L158.67,-303.35L169.53,-295.93L186.09,-308.51L180.93,-335.93L151.79,-339.91L116.96,-323.89L111.26,-303.89L114.70,-285.61L130.72,-250.77L134.16,-232.49L119.32,-210.77ZM400.28,-377.21L389.42,-384.63L376.30,-353.77L363.72,-370.33L325.45,-372.59L286.63,-327.43L276.95,-278.29L292.97,-243.45L312.97,-237.75L331.25,-241.19L353.50,-273.77L356.94,-255.49L367.80,-248.07L393.50,-262.37L430.60,-316.67L419.74,-324.09L382.64,-269.79L373.50,-268.07ZM327.81,-259.47L318.67,-257.75L304.37,-283.45L315.77,-323.45L338.02,-356.03L356.30,-359.47L368.88,-342.91L370.60,-333.77L350.06,-292.05ZM-549.69,106.29L-554.85,78.87L-546.89,20.59L-508.07,-24.57L-489.79,-28.01L-468.07,-13.17L-462.91,14.25L-444.63,10.81L-429.79,-10.91L-442.37,-27.47L-491.51,-37.15L-518.93,-31.99L-552.05,-6.83L-574.31,25.75L-587.42,56.61L-587.96,104.03L-561.08,146.28L-521.09,157.68L-484.53,150.80L-460.55,127.36L-438.29,94.79L-449.15,87.37L-471.41,119.95L-495.39,143.38L-513.67,146.82L-533.67,141.12ZM-396.57,115.32L-347.00,-73.81L-410.97,-61.77L-409.25,-52.63L-381.83,-57.79L-423.99,120.48L-422.27,129.62L-402.27,135.32L-376.57,121.02L-339.48,66.73L-350.34,59.31L-387.43,113.60ZM-256.14,-43.59L-247.00,-45.31L-241.30,-65.31L-243.02,-74.45L-263.02,-80.15L-272.16,-78.43L-277.86,-58.43L-276.14,-49.29ZM-342.92,48.45L-332.06,55.87L-294.96,1.57L-285.82,-0.15L-323.46,101.56L-321.74,110.70L-310.88,118.12L-292.60,114.68L-276.04,102.10L-238.94,47.81L-249.80,40.39L-286.90,94.68L-296.04,96.40L-258.40,-5.31L-260.12,-14.45L-280.12,-20.15L-305.82,-5.85ZM-97.87,-7.13L-83.03,-28.85L-66.47,-41.43L-55.61,-34.01L-85.83,56.84L-84.11,65.98L-73.25,73.40L-54.97,69.96L-38.41,57.38L-1.31,3.09L-12.17,-4.33L-49.27,49.96L-58.41,51.68L-26.47,-30.03L-31.63,-57.45L-60.77,-61.43L-86.47,-47.13L-101.31,-25.41L-104.75,-43.69L-124.75,-49.39L-150.45,-35.09L-172.70,-2.51L-167.00,-22.51L-168.72,-31.65L-179.58,-39.07L-205.28,-24.77L-242.38,29.53L-231.52,36.95L-194.42,-17.35L-185.28,-19.07L-221.20,91.78L-210.34,99.20L-192.06,95.76L-169.26,15.77L-147.01,-16.81L-130.45,-29.39L-119.59,-21.97L-148.08,78.02L-137.22,85.44L-118.95,82.00ZM132.88,-88.41L122.02,-95.83L108.90,-64.97L96.32,-81.53L58.04,-83.79L19.23,-38.63L9.55,10.51L25.57,45.34L45.57,51.04L63.85,47.60L86.10,15.02L89.54,33.30L100.40,40.72L126.10,26.42L163.20,-27.87L152.34,-35.29L115.24,19.00L106.10,20.72ZM60.41,29.32L51.27,31.04L36.97,5.35L48.37,-34.65L70.62,-67.23L88.90,-70.67L101.48,-54.11L103.20,-44.97L82.66,-3.25ZM197.50,3.52L226.00,-96.47L253.42,-101.63L251.70,-110.77L224.28,-105.61L235.68,-145.61L217.40,-142.17L213.42,-113.03L196.86,-100.45L178.58,-97.01L180.30,-87.87L198.58,-91.31L170.08,8.68L171.80,17.82L182.66,25.24L200.94,21.80L217.50,9.22L254.60,-45.07L243.74,-52.49L206.64,1.80ZM386.53,-98.29L383.09,-116.57L370.51,-133.13L332.23,-135.39L291.69,-99.37L274.59,-39.37L290.61,-4.54L310.61,1.16L328.89,-2.28L345.45,-14.86L375.13,-58.30L364.27,-65.71L334.59,-22.28L316.31,-18.84L302.01,-44.53L313.41,-84.53L335.67,-117.11L353.95,-120.55L359.11,-93.13L342.55,-80.55L315.13,-75.39L316.85,-66.25L362.55,-74.85ZM-603.54,222.41L-581.82,237.25L-600.00,392.08L-623.98,415.52L-514.30,394.88L-481.18,369.72L-458.92,337.14L-445.80,306.28L-445.26,258.87L-472.14,216.61L-521.28,206.93ZM-478.38,284.03L-486.34,342.30L-508.60,374.88L-525.16,387.46L-561.72,394.34L-572.58,386.92L-554.40,232.09L-546.98,221.23L-519.56,216.07L-499.56,221.77L-483.54,256.61ZM-310.43,271.34L-313.87,253.07L-326.45,236.51L-364.73,234.25L-405.27,270.27L-422.37,330.26L-406.35,365.10L-386.35,370.80L-368.07,367.36L-351.51,354.78L-321.83,311.34L-332.69,303.92L-362.37,347.36L-380.65,350.80L-394.95,325.10L-383.55,285.10L-361.29,252.53L-343.01,249.09L-337.85,276.50L-354.41,289.08L-381.83,294.24L-380.11,303.38L-334.41,294.78ZM-278.39,341.02L-283.55,313.60L-294.41,306.18L-310.97,318.76L-305.81,346.18L-285.81,351.88L-267.53,348.44L-241.83,334.14L-226.99,312.42L-230.43,294.14L-248.17,250.16L-251.61,231.89L-235.05,219.31L-229.89,246.72L-219.04,254.14L-202.48,241.56L-207.64,214.15L-236.77,210.17L-271.61,226.19L-277.31,246.19L-273.87,264.46L-257.85,299.30L-254.41,317.58L-269.25,339.30ZM-112.26,167.81L-103.12,166.09L-97.42,146.09L-99.14,136.95L-119.14,131.25L-128.28,132.97L-133.98,152.97L-132.26,162.11ZM-199.04,259.84L-188.18,267.26L-151.08,212.97L-141.94,211.25L-179.58,312.96L-177.86,322.10L-167.00,329.52L-148.72,326.08L-132.16,313.50L-95.06,259.20L-105.92,251.78L-143.02,306.08L-152.16,307.80L-114.52,206.09L-116.24,196.95L-136.24,191.25L-161.94,205.55ZM-71.62,283.18L-69.90,292.32L-59.04,299.74L-101.30,326.62L-107.00,346.62L-92.70,372.32L-52.70,383.72L-34.42,380.28L0.42,364.26L13.53,333.40L10.09,315.12L-42.48,287.16L-44.20,278.02L-16.78,272.86L23.75,236.84L27.73,207.70L13.43,182.01L40.85,176.85L39.13,167.71L2.57,174.59L-35.70,172.33L-76.24,208.35L-80.22,237.48L-55.06,270.60ZM-32.26,190.61L-13.99,187.17L0.31,212.86L2.03,222.00L-20.22,254.58L-38.50,258.02L-52.80,232.32L-54.52,223.18ZM-48.18,307.16L-15.60,329.42L-12.16,347.70L-36.14,371.14L-67.00,358.02L-79.58,341.46L-73.88,321.46ZM38.59,215.12L49.45,222.54L86.55,168.25L95.69,166.53L59.77,277.38L70.63,284.80L88.91,281.36L111.71,201.36L133.97,168.78L150.53,156.21L161.39,163.62L131.17,254.48L132.89,263.62L143.75,271.04L162.03,267.60L178.59,255.02L215.68,200.72L204.82,193.30L167.73,247.60L158.59,249.32L190.52,167.60L185.36,140.19L156.23,136.21L130.53,150.51L108.27,183.08L113.97,163.09L112.25,153.95L101.39,146.53L75.69,160.83ZM338.48,149.22L335.04,130.94L322.46,114.39L284.18,112.13L243.64,148.14L226.54,208.14L242.56,242.98L262.56,248.68L280.84,245.24L297.40,232.66L327.08,189.22L316.22,181.80L286.54,225.24L268.26,228.68L253.96,202.98L265.36,162.98L287.62,130.41L305.90,126.97L311.06,154.38L294.50,166.96L267.08,172.12L268.80,181.26L314.50,172.66ZM340.20,158.36L351.06,165.78L388.16,111.48L397.29,109.76L361.38,220.62L372.24,228.04L390.52,224.60L413.31,144.60L437.29,121.16L464.71,116.00L468.69,86.87L448.69,81.17L432.13,93.75L411.59,135.46L402.45,137.18L415.57,106.32L413.85,97.19L402.99,89.77L377.30,104.07ZM514.39,78.27L523.53,76.55L518.37,49.13L524.07,29.13L540.63,16.55L560.63,22.25L573.21,38.81L576.65,57.09L570.95,77.08L546.97,100.52L521.27,114.82L517.29,143.96L526.43,142.24L532.13,122.24L557.83,107.94L590.95,82.78L604.06,51.93L600.62,33.65L577.19,9.67L548.05,5.69L529.77,9.13L504.07,23.43L490.95,54.29L492.67,63.43ZM527.61,198.80L536.75,197.08L542.45,177.08L540.73,167.94L520.73,162.24L511.59,163.96L505.89,183.96L507.61,193.10Z" fill="#ffffff" stroke="#000000"/>
    <path d="M-610.76,-222.05L-635.80,-207.24L-673.51,-76.74L-698.75,-193.65L-684.65,-215.52L-747.60,-201.93L-725.73,-187.82L-688.85,-16.96L-672.80,-29.83L-629.98,-180.26L-598.92,-36.37L-591.87,-47.30L-527.88,-230.53L-504.79,-254.34L-567.74,-240.75L-545.87,-226.65L-585.53,-105.14ZM-468.82,-262.10L-485.38,-164.41L-512.87,-73.77L-501.94,-66.72L-483.95,-70.60L-463.51,-150.31L-442.35,-183.11L-426.31,-195.98L-415.37,-188.93L-442.87,-98.29L-440.93,-89.30L-429.99,-82.25L-412.01,-86.13L-395.96,-99.00L-360.70,-153.67L-371.64,-160.72L-406.90,-106.05L-415.89,-104.11L-386.45,-185.76L-392.28,-212.74L-421.20,-215.91L-446.24,-201.09L-460.34,-179.23L-434.79,-278.86L-497.74,-265.27L-495.80,-256.28ZM-230.41,-247.68L-241.34,-254.73L-253.50,-223.87L-266.38,-239.92L-304.29,-241.15L-341.49,-195.47L-349.77,-146.62L-333.01,-112.59L-313.09,-107.48L-295.10,-111.36L-273.95,-144.16L-270.06,-126.18L-259.13,-119.13L-234.09,-133.94L-198.83,-188.61L-209.77,-195.67L-245.03,-141.00L-254.02,-139.05ZM-298.98,-129.35L-307.98,-127.41L-322.79,-152.44L-312.57,-192.30L-291.42,-225.10L-273.43,-228.98L-260.55,-212.94L-258.61,-203.95L-277.83,-162.15ZM-164.09,-158.47L-138.54,-258.10L-111.56,-263.92L-113.50,-272.92L-140.48,-267.09L-130.26,-306.95L-148.24,-303.06L-151.41,-274.14L-167.46,-261.27L-185.44,-257.39L-183.50,-248.39L-165.52,-252.28L-191.07,-152.64L-189.13,-143.65L-178.19,-136.60L-160.21,-140.48L-144.16,-153.35L-108.90,-208.03L-119.84,-215.08L-155.10,-160.41ZM51.54,-336.78L60.54,-338.72L65.65,-358.64L63.70,-367.64L43.78,-372.75L34.78,-370.81L29.67,-350.88L31.62,-341.89ZM-31.85,-243.48L-20.92,-236.43L14.34,-291.10L23.34,-293.04L-11.21,-191.47L-9.27,-182.47L1.66,-175.42L19.65,-179.30L35.70,-192.18L70.95,-246.85L60.02,-253.90L24.76,-199.23L15.77,-197.29L50.31,-298.86L48.37,-307.86L28.45,-312.97L3.41,-298.15ZM98.65,-205.77L92.82,-232.74L81.89,-239.80L65.84,-226.92L71.67,-199.94L91.59,-194.83L109.58,-198.71L134.62,-213.53L148.72,-235.40L144.84,-253.38L126.14,-296.41L122.26,-314.39L138.30,-327.27L144.13,-300.29L155.06,-293.24L171.10,-306.11L165.28,-333.09L136.36,-336.26L102.33,-319.50L97.22,-299.58L101.10,-281.59L117.86,-247.56L121.74,-229.58L107.64,-207.71ZM381.11,-379.68L370.18,-386.73L358.01,-355.87L345.14,-371.92L307.23,-373.14L270.03,-327.47L261.75,-278.62L278.50,-244.59L298.43,-239.48L316.42,-243.36L337.57,-276.16L341.45,-258.18L352.39,-251.13L377.42,-265.94L412.68,-320.61L401.75,-327.66L366.49,-272.99L357.50,-271.05ZM312.53,-261.35L303.54,-259.41L288.72,-284.44L298.95,-324.30L320.10,-357.10L338.09,-360.98L350.96,-344.94L352.90,-335.94L333.69,-294.15ZM-545.60,123.42L-551.43,96.44L-545.09,38.60L-507.89,-7.08L-489.90,-10.96L-468.03,3.14L-462.21,30.12L-444.22,26.24L-430.12,4.37L-443.00,-11.67L-491.84,-19.95L-518.82,-14.13L-550.91,11.62L-572.07,44.42L-584.23,75.28L-583.52,122.19L-555.82,163.27L-515.97,173.49L-480.00,165.73L-456.90,141.92L-435.75,109.12L-446.68,102.07L-467.84,134.87L-490.93,158.68L-508.92,162.56L-528.85,157.45ZM-393.95,128.33L-349.90,-60.00L-412.85,-46.42L-410.91,-37.42L-383.93,-43.25L-420.93,134.15L-418.99,143.15L-399.06,148.26L-374.02,133.44L-338.77,78.77L-349.70,71.72L-384.96,126.39ZM-259.26,-32.51L-250.26,-34.45L-245.15,-54.38L-247.09,-63.37L-267.02,-68.48L-276.01,-66.54L-281.12,-46.61L-279.18,-37.62ZM-342.65,60.79L-331.71,67.84L-296.46,13.17L-287.46,11.23L-322.01,112.80L-320.07,121.79L-309.13,128.85L-291.15,124.96L-275.10,112.09L-239.84,57.42L-250.78,50.37L-286.04,105.04L-295.03,106.98L-260.48,5.40L-262.43,-3.59L-282.35,-8.70L-307.39,6.12ZM-101.78,-0.62L-87.68,-22.49L-71.63,-35.36L-60.70,-28.31L-88.19,62.33L-86.25,71.32L-75.32,78.38L-57.33,74.49L-41.29,61.62L-6.03,6.95L-16.96,-0.10L-52.22,54.57L-61.22,56.51L-31.78,-25.14L-37.60,-52.12L-66.52,-55.29L-91.56,-40.47L-105.66,-18.60L-109.55,-36.59L-129.47,-41.70L-154.51,-26.88L-175.67,5.92L-170.56,-14.01L-172.50,-23.00L-183.43,-30.05L-208.47,-15.24L-243.73,39.43L-232.79,46.48L-197.53,-8.19L-188.54,-10.13L-221.15,100.44L-210.21,107.49L-192.23,103.61L-171.78,23.90L-150.63,-8.90L-134.58,-21.77L-123.65,-14.72L-149.20,84.91L-138.27,91.96L-120.28,88.08ZM124.27,-87.06L113.33,-94.11L101.17,-63.25L88.30,-79.30L50.38,-80.52L13.18,-34.85L4.90,14.00L21.66,48.03L41.59,53.14L59.57,49.26L80.73,16.46L84.61,34.44L95.55,41.49L120.58,26.68L155.84,-27.99L144.91,-35.04L109.65,19.63L100.66,21.57ZM55.69,31.27L46.70,33.21L31.88,8.18L42.10,-31.68L63.26,-64.48L81.25,-68.36L94.12,-52.32L96.06,-43.32L76.85,-1.53ZM190.59,2.16L216.14,-97.48L243.12,-103.30L241.18,-112.29L214.20,-106.47L224.42,-146.33L206.43,-142.44L203.26,-113.52L187.22,-100.65L169.23,-96.77L171.17,-87.77L189.16,-91.66L163.61,7.98L165.55,16.97L176.48,24.02L194.47,20.14L210.51,7.27L245.77,-47.40L234.84,-54.46L199.58,0.21ZM374.84,-103.50L370.96,-121.49L358.08,-137.53L320.17,-138.76L281.03,-102.07L265.70,-42.29L282.46,-8.26L302.38,-3.15L320.37,-7.03L336.41,-19.91L364.62,-63.65L353.69,-70.70L325.48,-26.96L307.49,-23.08L292.68,-48.12L302.90,-87.97L324.05,-120.77L342.04,-124.65L347.86,-97.68L331.82,-84.80L304.84,-78.98L306.78,-69.98L351.74,-79.69ZM-595.80,239.67L-573.94,253.77L-587.84,407.36L-610.94,431.17L-503.02,407.88L-470.94,382.13L-449.78,349.33L-437.62,318.46L-438.33,271.56L-466.02,230.48L-514.87,222.20ZM-470.42,297.31L-476.76,355.15L-497.91,387.95L-513.96,400.83L-549.93,408.59L-560.86,401.54L-546.96,247.95L-539.91,237.01L-512.93,231.19L-493.00,236.30L-476.24,270.33ZM-304.67,280.35L-308.55,262.37L-321.42,246.32L-359.34,245.10L-398.48,281.78L-413.81,341.56L-397.05,375.59L-377.12,380.70L-359.14,376.82L-343.09,363.94L-314.89,320.21L-325.82,313.16L-354.03,356.89L-372.01,360.77L-386.83,335.74L-376.61,295.88L-355.45,263.08L-337.47,259.20L-331.64,286.18L-347.69,299.05L-374.67,304.88L-372.73,313.87L-327.76,304.16ZM-271.15,348.42L-276.97,321.44L-287.91,314.38L-303.95,327.26L-298.13,354.24L-278.20,359.35L-260.22,355.47L-235.18,340.65L-221.08,318.78L-224.96,300.80L-243.66,257.77L-247.54,239.79L-231.49,226.91L-225.67,253.89L-214.74,260.94L-198.69,248.07L-204.52,221.09L-233.44,217.92L-267.47,234.68L-272.58,254.60L-268.69,272.59L-251.94,306.62L-248.05,324.61L-262.16,346.47ZM-111.42,172.76L-102.42,170.82L-97.31,150.89L-99.26,141.90L-119.18,136.79L-128.17,138.73L-133.29,158.65L-131.34,167.65ZM-194.81,266.05L-183.88,273.11L-148.62,218.44L-139.62,216.49L-174.17,318.07L-172.23,327.06L-161.29,334.11L-143.31,330.23L-127.26,317.36L-92.01,262.69L-102.94,255.63L-138.20,310.30L-147.19,312.25L-112.65,210.67L-114.59,201.68L-134.51,196.57L-159.55,211.38ZM-68.20,285.78L-66.26,294.78L-55.32,301.83L-96.40,329.52L-101.51,349.45L-86.70,374.48L-46.84,384.70L-28.86,380.82L5.17,364.06L17.33,333.20L13.45,315.22L-39.28,288.95L-41.22,279.96L-14.24,274.14L24.90,237.45L28.07,208.53L13.25,183.49L40.23,177.67L38.29,168.68L2.32,176.44L-35.59,175.21L-74.73,211.90L-77.90,240.82L-52.15,272.91ZM-31.71,193.20L-13.72,189.32L1.09,214.36L3.03,223.35L-18.12,256.15L-36.11,260.03L-50.92,235.00L-52.86,226.00ZM-44.39,308.88L-11.59,330.03L-7.70,348.02L-30.80,371.83L-61.66,359.67L-74.54,343.62L-69.42,323.70ZM39.01,215.58L49.94,222.64L85.20,167.97L94.19,166.02L61.59,276.59L72.52,283.64L90.51,279.76L110.95,200.05L132.10,167.25L148.15,154.38L159.08,161.43L131.59,252.07L133.53,261.06L144.46,268.12L162.45,264.23L178.49,251.36L213.75,196.69L202.82,189.64L167.56,244.31L158.57,246.25L188.00,164.60L182.18,137.62L153.26,134.45L128.22,149.27L107.07,182.07L112.18,162.14L110.24,153.15L99.30,146.10L74.26,160.91ZM333.83,142.53L329.95,124.55L317.07,108.50L279.16,107.27L240.02,143.96L224.69,203.74L241.44,237.77L261.37,242.88L279.36,239.00L295.40,226.12L323.61,182.39L312.67,175.33L284.47,219.07L266.48,222.95L251.66,197.92L261.89,158.06L283.04,125.26L301.03,121.38L306.85,148.36L290.81,161.23L263.83,167.05L265.77,176.05L310.73,166.34ZM335.77,151.53L346.70,158.58L381.96,103.91L390.96,101.97L358.35,212.53L369.29,219.59L387.27,215.70L407.71,136.00L430.81,112.19L457.79,106.36L460.96,77.44L441.03,72.33L424.99,85.21L405.77,127.00L396.78,128.94L408.94,98.08L407.00,89.09L396.07,82.04L371.03,96.86ZM505.92,67.74L514.91,65.80L509.09,38.82L514.20,18.89L530.25,6.02L550.17,11.13L563.05,27.17L566.93,45.16L561.82,65.08L538.72,88.89L513.69,103.71L510.52,132.63L519.51,130.69L524.62,110.76L549.66,95.95L581.75,70.19L593.91,39.33L590.03,21.35L566.22,-1.75L537.30,-4.92L519.31,-1.04L494.28,13.78L482.11,44.64L484.05,53.63ZM522.16,186.59L531.16,184.65L536.27,164.72L534.33,155.73L514.40,150.62L505.41,152.56L500.30,172.48L502.24,181.48Z" fill="#ffffff" stroke="#000000"/>
    <path d="M-614.40,-199.56L-638.77,-184.25L-672.63,-54.23L-700.66,-169.16L-687.29,-191.16L-749.17,-176.07L-727.18,-162.70L-686.22,5.28L-670.70,-7.87L-632.30,-157.73L-597.81,-16.28L-591.13,-27.27L-532.68,-210.12L-510.47,-234.27L-572.35,-219.18L-550.36,-205.81L-586.38,-84.63ZM-475.10,-242.90L-488.91,-145.86L-513.71,-55.52L-502.72,-48.83L-485.03,-53.14L-466.92,-132.49L-446.86,-165.48L-431.33,-178.63L-420.34,-171.95L-445.14,-81.60L-442.99,-72.76L-431.99,-66.08L-414.31,-70.39L-398.78,-83.54L-365.35,-138.52L-376.35,-145.21L-409.78,-90.22L-418.62,-88.07L-391.66,-169.58L-398.13,-196.10L-426.81,-198.47L-451.17,-183.16L-464.54,-161.17L-441.90,-260.36L-503.78,-245.27L-501.63,-236.43ZM-238.99,-234.90L-249.99,-241.59L-261.20,-210.75L-274.35,-226.28L-311.87,-226.50L-347.45,-180.35L-354.36,-131.84L-336.89,-98.63L-317.06,-94.10L-299.37,-98.41L-279.32,-131.40L-275.01,-113.72L-264.01,-107.03L-239.64,-122.34L-206.22,-177.33L-217.21,-184.01L-250.64,-129.03L-259.48,-126.87ZM-303.69,-116.09L-312.53,-113.94L-327.84,-138.30L-318.78,-177.98L-298.72,-210.97L-281.04,-215.28L-267.89,-199.76L-265.73,-190.91L-283.63,-149.08ZM-171.07,-148.43L-148.42,-247.62L-121.90,-254.08L-124.06,-262.93L-150.58,-256.46L-141.52,-296.13L-159.20,-291.82L-161.58,-263.14L-177.10,-249.99L-194.78,-245.68L-192.63,-236.84L-174.95,-241.15L-197.59,-141.96L-195.44,-133.12L-184.44,-126.44L-166.76,-130.75L-151.23,-143.90L-117.81,-198.88L-128.80,-205.57L-162.23,-150.59ZM37.45,-330.41L46.30,-332.56L50.83,-352.40L48.67,-361.24L28.83,-365.77L19.99,-363.62L15.46,-343.78L17.62,-334.94ZM-42.55,-235.97L-31.55,-229.28L1.87,-284.27L10.71,-286.42L-20.77,-185.08L-18.62,-176.24L-7.62,-169.55L10.06,-173.86L25.59,-187.01L59.01,-242.00L48.02,-248.68L14.59,-193.70L5.75,-191.54L37.24,-292.89L35.08,-301.73L15.24,-306.26L-9.12,-290.95ZM87.47,-202.10L81.01,-228.63L70.01,-235.31L54.48,-222.16L60.95,-195.64L80.79,-191.11L98.47,-195.42L122.84,-210.73L136.21,-232.72L131.90,-250.40L112.28,-292.45L107.96,-310.13L123.49,-323.29L129.96,-296.76L140.95,-290.08L156.48,-303.23L150.01,-329.75L121.34,-332.13L88.13,-314.66L83.60,-294.83L87.91,-277.14L105.37,-243.94L109.68,-226.25L96.31,-204.26ZM362.20,-381.49L351.20,-388.18L339.99,-357.34L326.83,-372.87L289.31,-373.09L253.73,-326.94L246.83,-278.43L264.29,-245.22L284.13,-240.69L301.81,-245.00L321.87,-277.99L326.18,-260.31L337.18,-253.62L361.54,-268.93L394.97,-323.92L383.97,-330.60L350.55,-275.62L341.71,-273.46ZM297.50,-262.68L288.66,-260.53L273.35,-284.89L282.41,-324.57L302.47,-357.56L320.15,-361.87L333.30,-346.34L335.46,-337.50L317.56,-295.67ZM-540.90,140.32L-547.36,113.80L-542.62,56.44L-507.03,10.30L-489.35,5.98L-467.36,19.35L-460.89,45.88L-443.21,41.57L-429.84,19.57L-442.99,4.05L-491.51,-2.86L-518.03,3.61L-549.08,29.92L-569.14,62.91L-580.35,93.74L-578.42,140.10L-549.95,179.99L-510.28,189.05L-474.92,180.43L-452.70,156.28L-432.65,123.29L-443.65,116.61L-463.70,149.60L-485.91,173.74L-503.59,178.06L-523.43,173.53ZM-390.82,141.19L-352.21,-46.19L-414.09,-31.10L-411.94,-22.26L-385.42,-28.73L-417.34,147.66L-415.18,156.50L-395.35,161.03L-370.98,145.72L-337.55,90.74L-348.55,84.05L-381.98,139.03ZM-261.86,-21.39L-253.02,-23.54L-248.49,-43.38L-250.65,-52.22L-270.48,-56.75L-279.32,-54.59L-283.85,-34.76L-281.70,-25.92ZM-341.86,73.05L-330.87,79.74L-297.44,24.76L-288.60,22.60L-320.09,123.94L-317.93,132.79L-306.94,139.47L-289.26,135.16L-273.73,122.01L-240.30,67.02L-251.30,60.34L-284.73,115.32L-293.57,117.48L-262.08,16.13L-264.23,7.29L-284.07,2.76L-308.44,18.07ZM-105.31,6.01L-91.94,-15.98L-76.42,-29.14L-65.42,-22.45L-90.22,67.90L-88.07,76.74L-77.07,83.42L-59.39,79.11L-43.86,65.96L-10.44,10.97L-21.43,4.29L-54.86,59.27L-63.70,61.43L-36.74,-20.08L-43.21,-46.60L-71.89,-48.97L-96.26,-33.67L-109.63,-11.67L-113.94,-29.35L-133.77,-33.88L-158.14,-18.58L-178.20,14.41L-173.67,-5.42L-175.82,-14.26L-186.82,-20.95L-211.19,-5.64L-244.61,49.34L-233.62,56.03L-200.19,1.04L-191.35,-1.11L-220.68,109.07L-209.69,115.76L-192.00,111.45L-173.89,32.10L-153.83,-0.89L-138.30,-14.05L-127.31,-7.36L-149.96,91.83L-138.96,98.51L-121.28,94.20ZM115.93,-85.40L104.93,-92.09L93.72,-61.25L80.56,-76.78L43.04,-77.00L7.46,-30.86L0.56,17.66L18.02,50.87L37.86,55.40L55.54,51.09L75.60,18.10L79.91,35.78L90.91,42.46L115.27,27.16L148.70,-27.83L137.70,-34.51L104.28,20.47L95.44,22.63ZM51.23,33.40L42.39,35.56L27.08,11.19L36.14,-28.48L56.20,-61.47L73.88,-65.78L87.03,-50.26L89.19,-41.42L71.29,0.41ZM183.85,1.07L206.49,-98.12L233.02,-104.59L230.86,-113.43L204.34,-106.96L213.40,-146.64L195.72,-142.32L193.34,-113.65L177.82,-100.49L160.13,-96.18L162.29,-87.34L179.97,-91.65L157.32,7.54L159.48,16.38L170.48,23.06L188.16,18.75L203.68,5.60L237.11,-49.39L226.11,-56.07L192.69,-1.09ZM363.26,-108.24L358.95,-125.93L345.79,-141.45L308.27,-141.67L270.54,-104.37L256.95,-44.86L274.41,-11.65L294.25,-7.12L311.93,-11.43L327.46,-24.58L354.20,-68.57L343.20,-75.25L316.46,-31.27L298.78,-26.96L283.47,-51.32L292.53,-91.00L312.59,-123.99L330.27,-128.30L336.73,-101.78L321.21,-88.62L294.69,-82.16L296.84,-73.32L341.05,-84.10ZM-587.48,256.58L-565.49,269.95L-575.20,422.19L-597.41,446.34L-491.32,420.47L-460.27,394.16L-440.21,361.17L-429.00,330.34L-430.93,283.98L-459.39,244.08L-507.91,237.18ZM-461.99,310.28L-466.73,367.64L-486.79,400.63L-502.32,413.78L-537.68,422.41L-548.68,415.72L-538.96,263.49L-532.28,252.49L-505.75,246.02L-485.92,250.55L-468.45,283.76ZM-298.54,289.16L-302.85,271.48L-316.00,255.95L-353.52,255.74L-391.26,293.04L-404.85,352.55L-387.38,385.76L-367.55,390.29L-349.86,385.98L-334.34,372.82L-307.60,328.84L-318.59,322.15L-345.33,366.14L-363.02,370.45L-378.32,346.08L-369.26,306.41L-349.21,273.42L-331.53,269.11L-325.06,295.63L-340.59,308.78L-367.11,315.25L-364.95,324.09L-320.75,313.31ZM-263.61,355.58L-270.08,329.06L-281.07,322.37L-296.60,335.52L-290.13,362.05L-270.29,366.58L-252.61,362.26L-228.25,346.96L-214.88,324.96L-219.19,307.28L-238.81,265.23L-243.12,247.55L-227.59,234.40L-221.12,260.92L-210.13,267.60L-194.60,254.45L-201.07,227.93L-229.75,225.56L-262.96,243.02L-267.48,262.86L-263.17,280.54L-245.71,313.75L-241.40,331.43L-254.77,353.42ZM-110.28,177.69L-101.44,175.54L-96.91,155.70L-99.07,146.86L-118.91,142.33L-127.75,144.49L-132.28,164.32L-130.12,173.16ZM-190.29,272.13L-179.29,278.82L-145.87,223.84L-137.03,221.68L-168.51,323.02L-166.36,331.87L-155.36,338.55L-137.68,334.24L-122.15,321.09L-88.73,266.10L-99.72,259.42L-133.15,314.40L-141.99,316.56L-110.50,215.21L-112.66,206.37L-132.50,201.84L-156.86,217.15ZM-64.58,288.31L-62.42,297.16L-51.43,303.84L-91.32,332.30L-95.85,352.14L-80.54,376.51L-40.87,385.57L-23.18,381.25L10.02,363.79L21.24,332.96L16.93,315.27L-35.90,290.69L-38.06,281.85L-11.53,275.38L26.21,238.08L28.58,209.40L13.27,185.03L39.79,178.57L37.64,169.72L2.27,178.35L-35.25,178.13L-72.98,215.43L-75.36,244.11L-49.05,275.16ZM-30.93,195.81L-13.25,191.50L2.06,215.87L4.21,224.71L-15.84,257.70L-33.53,262.01L-48.83,237.64L-50.99,228.80ZM-40.43,310.53L-7.44,330.58L-3.13,348.26L-25.34,372.41L-56.17,361.20L-69.33,345.67L-64.80,325.83ZM39.58,216.09L50.57,222.77L84.00,167.79L92.84,165.63L63.51,275.82L74.50,282.50L92.19,278.19L110.30,198.84L130.36,165.85L145.89,152.70L156.88,159.38L132.08,249.73L134.23,258.57L145.23,265.26L162.91,260.94L178.44,247.79L211.87,192.81L200.87,186.12L167.44,241.11L158.60,243.26L185.56,161.76L179.09,135.23L150.41,132.86L126.05,148.17L105.99,181.16L110.52,161.32L108.37,152.48L97.37,145.79L73.00,161.10ZM329.17,136.11L324.86,118.42L311.71,102.90L274.19,102.68L236.45,139.98L222.86,199.49L240.33,232.70L260.16,237.23L277.85,232.92L293.37,219.77L320.11,175.78L309.12,169.10L282.38,213.08L264.69,217.39L249.39,193.03L258.44,153.35L278.50,120.36L296.18,116.05L302.65,142.57L287.12,155.73L260.60,162.19L262.76,171.03L306.96,160.25ZM331.33,144.95L342.32,151.63L375.75,96.65L384.59,94.49L355.26,204.68L366.26,211.36L383.94,207.05L402.06,127.70L424.27,103.55L450.79,97.08L453.16,68.41L433.33,63.88L417.80,77.03L399.90,118.86L391.06,121.02L402.27,90.18L400.12,81.34L389.12,74.65L364.75,89.96ZM497.37,57.63L506.21,55.47L499.74,28.95L504.27,9.11L519.80,-4.04L539.64,0.49L552.79,16.01L557.10,33.70L552.57,53.53L530.36,77.68L505.99,92.99L503.62,121.67L512.46,119.51L516.99,99.68L541.36,84.37L572.41,58.06L583.62,27.23L579.31,9.55L555.16,-12.66L526.48,-15.04L508.80,-10.73L484.43,4.58L473.22,35.42L475.38,44.26ZM516.55,174.72L525.39,172.56L529.92,152.72L527.77,143.88L507.93,139.35L499.09,141.51L494.56,161.35L496.71,170.19Z" fill="#ffffff" stroke="#000000"/>
    <path d="M-617.18,-177.13L-640.87,-161.36L-670.93,-31.92L-701.66,-144.81L-689.02,-166.91L-749.81,-150.36L-727.71,-137.72L-682.80,27.28L-667.80,13.87L-633.78,-135.30L-595.96,3.64L-589.64,-7.41L-536.66,-189.72L-515.34,-214.18L-576.13,-197.63L-554.03,-184.99L-586.46,-64.24ZM-480.60,-223.63L-491.70,-127.34L-513.85,-37.36L-502.80,-31.04L-485.43,-35.77L-469.61,-114.70L-450.64,-147.84L-435.64,-161.25L-424.59,-154.93L-446.74,-64.96L-444.38,-56.27L-433.33,-49.95L-415.96,-54.68L-400.96,-68.09L-369.35,-123.33L-380.40,-129.65L-412.00,-74.41L-420.69,-72.05L-396.18,-153.34L-403.27,-179.39L-431.68,-180.98L-455.37,-165.21L-468.01,-143.11L-448.23,-241.77L-509.02,-225.23L-506.65,-216.54ZM-246.95,-221.93L-258.00,-228.25L-268.28,-197.48L-281.69,-212.48L-318.79,-211.71L-352.76,-165.16L-358.31,-117.01L-340.17,-84.63L-320.44,-80.68L-303.07,-85.41L-284.11,-118.55L-279.38,-101.18L-268.33,-94.86L-244.64,-110.63L-213.04,-165.87L-224.09,-172.19L-255.69,-116.95L-264.37,-114.59ZM-307.79,-102.77L-316.48,-100.41L-332.25,-124.10L-324.34,-163.56L-305.38,-196.70L-288.01,-201.43L-274.60,-186.43L-272.24,-177.74L-288.83,-135.92ZM-177.53,-138.23L-157.75,-236.89L-131.70,-243.98L-134.06,-252.66L-160.11,-245.57L-152.20,-285.03L-169.57,-280.31L-171.16,-251.89L-186.17,-238.48L-203.53,-233.75L-201.17,-225.07L-183.80,-229.80L-203.59,-131.14L-201.22,-122.45L-190.17,-116.13L-172.81,-120.86L-157.80,-134.27L-126.20,-189.51L-137.25,-195.83L-168.85,-140.59ZM23.85,-323.62L32.53,-325.99L36.49,-345.72L34.12,-354.40L14.39,-358.36L5.71,-355.99L1.75,-336.26L4.11,-327.58ZM-52.77,-228.15L-41.72,-221.83L-10.12,-277.07L-1.44,-279.43L-29.90,-178.41L-27.54,-169.72L-16.49,-163.40L0.88,-168.13L15.88,-181.54L47.48,-236.78L36.43,-243.10L4.83,-187.86L-3.85,-185.50L24.62,-286.52L22.25,-295.21L2.52,-299.16L-21.17,-283.39ZM76.67,-198.09L69.58,-224.14L58.53,-230.46L43.53,-217.05L50.62,-191.00L70.35,-187.04L87.72,-191.77L111.40,-207.54L124.05,-229.64L119.32,-247.01L98.82,-288.06L94.09,-305.43L109.09,-318.84L116.18,-292.79L127.23,-286.47L142.24,-299.88L135.15,-325.93L106.73,-327.53L74.36,-309.39L70.40,-289.66L75.13,-272.29L93.27,-239.92L97.99,-222.55L85.35,-200.45ZM343.56,-382.66L332.52,-388.98L322.24,-358.20L308.83,-373.21L271.73,-372.44L237.76,-325.88L232.21,-277.73L250.35,-245.36L270.08,-241.40L287.45,-246.13L306.41,-279.27L311.14,-261.91L322.19,-255.59L345.88,-271.36L377.48,-326.60L366.43,-332.92L334.83,-277.68L326.14,-275.32ZM282.72,-263.50L274.04,-261.14L258.26,-284.82L266.18,-324.29L285.14,-357.43L302.51,-362.16L315.92,-347.15L318.28,-338.47L301.68,-296.64ZM-535.58,156.97L-542.67,130.91L-539.48,74.08L-505.52,27.53L-488.15,22.80L-466.05,35.44L-458.96,61.49L-441.59,56.77L-428.95,34.67L-442.36,19.67L-490.51,14.12L-516.56,21.21L-546.57,48.03L-565.53,81.17L-575.81,111.95L-572.68,157.74L-543.49,196.43L-504.03,204.34L-469.29,194.89L-447.97,170.43L-429.00,137.29L-440.05,130.97L-459.01,164.11L-480.34,188.57L-497.71,193.29L-517.44,189.34ZM-387.18,153.88L-353.93,-32.39L-414.72,-15.84L-412.35,-7.16L-386.30,-14.25L-413.23,160.97L-410.87,169.66L-391.13,173.62L-367.45,157.84L-335.84,102.60L-346.89,96.28L-378.49,151.52ZM-263.95,-10.24L-255.27,-12.60L-251.31,-32.33L-253.68,-41.02L-273.41,-44.98L-282.09,-42.61L-286.05,-22.88L-283.69,-14.20ZM-340.57,85.23L-329.52,91.55L-297.92,36.32L-289.24,33.95L-317.70,134.97L-315.34,143.66L-304.29,149.98L-286.92,145.25L-271.92,131.84L-240.32,76.60L-251.37,70.28L-282.97,125.52L-291.65,127.88L-263.18,26.86L-265.55,18.18L-285.28,14.22L-308.97,30.00ZM-108.46,12.73L-95.82,-9.36L-80.82,-22.77L-69.77,-16.45L-91.92,73.52L-89.55,82.20L-78.51,88.53L-61.14,83.80L-46.13,70.39L-14.53,15.15L-25.58,8.83L-57.18,64.07L-65.87,66.43L-41.35,-14.86L-48.45,-40.91L-76.86,-42.51L-100.55,-26.73L-113.19,-4.64L-117.92,-22.00L-137.65,-25.96L-161.34,-10.19L-180.30,22.96L-176.34,3.23L-178.71,-5.46L-189.75,-11.78L-213.44,4.00L-245.05,59.23L-234.00,65.55L-202.40,10.32L-193.71,7.95L-219.82,117.66L-208.77,123.98L-191.40,119.25L-175.57,40.33L-156.61,7.18L-141.61,-6.23L-130.56,0.09L-150.34,98.75L-139.30,105.07L-121.93,100.34ZM107.87,-83.46L96.82,-89.78L86.54,-59.00L73.13,-74.00L36.03,-73.23L2.07,-26.68L-3.48,21.47L14.65,53.84L34.39,57.80L51.75,53.07L70.72,19.93L75.44,37.30L86.49,43.62L110.18,27.84L141.78,-27.40L130.73,-33.72L99.13,21.52L90.45,23.88ZM47.03,35.70L38.34,38.07L22.57,14.38L30.48,-25.09L49.44,-58.23L66.81,-62.96L80.22,-47.95L82.59,-39.27L65.99,2.56ZM177.29,0.25L197.07,-98.41L223.12,-105.50L220.76,-114.19L194.71,-107.09L202.62,-146.56L185.25,-141.83L183.66,-113.41L168.66,-100.00L151.29,-95.28L153.65,-86.59L171.02,-91.32L151.24,7.34L153.60,16.02L164.65,22.34L182.02,17.62L197.02,4.21L228.62,-51.03L217.57,-57.35L185.97,-2.12ZM351.79,-112.54L347.07,-129.91L333.65,-144.91L296.55,-144.14L260.22,-106.27L248.35,-47.08L266.49,-14.70L286.22,-10.75L303.59,-15.47L318.60,-28.89L343.88,-73.08L332.83,-79.40L307.55,-35.21L290.18,-30.48L274.41,-54.17L282.32,-93.63L301.28,-126.77L318.65,-131.50L325.74,-105.45L310.74,-92.04L284.68,-84.95L287.05,-76.26L330.47,-88.08ZM-578.58,273.14L-556.48,285.78L-562.08,436.54L-583.41,461.00L-479.20,432.64L-449.19,405.81L-430.23,372.67L-419.95,341.89L-423.09,296.11L-452.27,257.41L-500.42,251.86ZM-453.10,322.93L-456.28,379.76L-475.24,412.90L-490.25,426.32L-524.98,435.77L-536.03,429.45L-530.43,278.69L-524.11,267.64L-498.06,260.55L-478.32,264.50L-460.19,296.88ZM-292.05,297.75L-296.78,280.38L-310.19,265.38L-347.29,266.15L-383.62,304.02L-395.49,363.22L-377.35,395.59L-357.62,399.55L-340.25,394.82L-325.25,381.41L-299.97,337.22L-311.02,330.90L-336.30,375.09L-353.67,379.81L-369.44,356.12L-361.53,316.66L-342.57,283.52L-325.20,278.79L-318.11,304.84L-333.11,318.25L-359.16,325.35L-356.80,334.03L-313.38,322.21ZM-255.78,362.50L-262.87,336.45L-273.92,330.12L-288.92,343.54L-281.83,369.59L-262.10,373.55L-244.73,368.82L-221.04,353.04L-208.40,330.95L-213.13,313.58L-233.63,272.52L-238.36,255.15L-223.35,241.74L-216.26,267.80L-205.21,274.12L-190.21,260.70L-197.30,234.65L-225.72,233.06L-258.09,251.20L-262.05,270.93L-257.32,288.30L-239.18,320.67L-234.45,338.04L-247.09,360.13ZM-108.87,182.60L-100.18,180.24L-96.23,160.51L-98.59,151.82L-118.32,147.86L-127.00,150.23L-130.96,169.96L-128.60,178.64ZM-185.48,278.07L-174.43,284.39L-142.83,229.15L-134.15,226.79L-162.62,327.81L-160.25,336.50L-149.21,342.82L-131.84,338.09L-116.83,324.68L-85.23,269.44L-96.28,263.12L-127.88,318.36L-136.56,320.72L-108.10,219.70L-110.46,211.02L-130.19,207.06L-153.88,222.83ZM-60.77,290.77L-58.41,299.45L-47.36,305.77L-86.05,334.96L-90.01,354.69L-74.23,378.38L-34.77,386.29L-17.40,381.56L14.97,363.43L25.25,332.65L20.52,315.28L-32.36,292.36L-34.72,283.68L-8.67,276.58L27.66,238.71L29.26,210.30L13.48,186.61L39.53,179.52L37.17,170.83L2.43,180.29L-34.67,181.06L-71.00,218.93L-72.59,247.35L-45.77,277.35ZM-29.94,198.43L-12.57,193.70L3.20,217.39L5.57,226.07L-13.39,259.22L-30.76,263.94L-46.54,240.26L-48.90,231.57ZM-36.31,312.09L-3.17,331.05L1.56,348.42L-19.77,372.88L-50.55,362.60L-63.96,347.60L-60.00,327.87ZM40.30,216.62L51.35,222.94L82.95,167.70L91.64,165.34L65.53,275.04L76.58,281.36L93.95,276.64L109.78,197.71L128.74,164.57L143.74,151.16L154.79,157.48L132.64,247.45L135.01,256.13L146.05,262.46L163.42,257.73L178.43,244.32L210.03,189.08L198.98,182.76L167.38,238.00L158.69,240.36L183.21,159.07L176.12,133.02L147.70,131.42L124.01,147.20L105.05,180.34L109.01,160.61L106.64,151.93L95.60,145.61L71.91,161.38ZM324.52,129.94L319.79,112.57L306.38,97.56L269.28,98.33L232.95,136.20L221.08,195.40L239.22,227.77L258.95,231.73L276.32,227.00L291.32,213.59L316.60,169.40L305.55,163.08L280.27,207.27L262.90,212.00L247.13,188.31L255.04,148.84L274.00,115.70L291.37,110.97L298.46,137.03L283.46,150.44L257.41,157.53L259.77,166.21L303.19,154.39ZM326.88,138.62L337.93,144.94L369.53,89.70L378.21,87.34L352.11,197.04L363.16,203.37L380.52,198.64L396.35,119.71L417.68,95.25L443.73,88.16L445.32,59.74L425.59,55.79L410.59,69.20L393.99,111.03L385.30,113.39L395.58,82.61L393.22,73.93L382.17,67.61L358.48,83.38ZM488.74,47.93L497.43,45.56L490.34,19.51L494.29,-0.22L509.30,-13.63L529.03,-9.68L542.44,5.33L547.17,22.70L543.21,42.43L521.89,66.89L498.20,82.66L496.60,111.08L505.29,108.72L509.24,88.98L532.93,73.21L562.94,46.39L573.22,15.61L568.49,-1.76L544.03,-23.09L515.62,-24.68L498.25,-19.95L474.56,-4.18L464.28,26.60L466.65,35.29ZM510.79,163.18L519.47,160.82L523.43,141.09L521.06,132.40L501.33,128.45L492.65,130.81L488.69,150.54L491.05,159.23Z" fill="#ffffff" stroke="#000000"/>
    <path d="M-903.88,492L-906.92,488.96L-902.36,482.88L-893.24,482.88L-891.72,484.40L-891.72,488.96L-894.76,492L-884.12,492L-887.16,488.96L-887.16,460.08L-891.72,463.12L-891.72,464.64L-909.96,488.96L-914.52,492ZM-891.72,467.68L-891.72,479.84L-893.24,481.36L-900.84,481.36L-899.32,478.32ZM-862.84,476.80L-864.36,481.36L-870.44,487.44L-875,488.96L-876.52,488.96L-867.40,475.28L-867.40,472.24L-870.44,470.72L-875,472.24L-882.60,479.84L-881.08,481.36L-873.48,473.76L-871.96,473.76L-881.08,488.96L-881.08,490.48L-879.56,492L-876.52,492L-868.92,488.96L-862.84,482.88L-859.80,476.80L-859.80,473.76L-861.32,472.24L-864.36,472.24L-865.88,475.28L-864.36,476.80ZM-835.48,472.24L-837,470.72L-840.04,475.28L-841.56,472.24L-847.64,470.72L-855.24,476.80L-858.28,484.40L-856.76,490.48L-853.72,492L-850.68,492L-846.12,487.44L-846.12,490.48L-844.60,492L-840.04,490.48L-832.44,482.88L-833.96,481.36L-841.56,488.96L-843.08,488.96ZM-850.68,488.96L-852.20,488.96L-853.72,484.40L-850.68,478.32L-846.12,473.76L-843.08,473.76L-841.56,476.80L-841.56,478.32L-846.12,484.40ZM-832.44,479.84L-830.92,481.36L-823.32,473.76L-821.80,473.76L-830.92,490.48L-829.40,492L-826.36,492L-820.28,479.84L-815.72,476.80L-811.16,476.80L-809.64,472.24L-812.68,470.72L-815.72,472.24L-820.28,478.32L-821.80,478.32L-818.76,473.76L-818.76,472.24L-820.28,470.72L-824.84,472.24ZM-788.36,472.24L-789.88,470.72L-792.92,475.28L-794.44,472.24L-800.52,470.72L-808.12,476.80L-811.16,484.40L-809.64,490.48L-806.60,492L-803.56,492L-799,487.44L-799,490.48L-797.48,492L-792.92,490.48L-785.32,482.88L-786.84,481.36L-794.44,488.96L-795.96,488.96ZM-803.56,488.96L-805.08,488.96L-806.60,484.40L-803.56,478.32L-799,473.76L-795.96,473.76L-794.44,476.80L-794.44,478.32L-799,484.40ZM-783.80,479.84L-783.80,482.88L-774.68,482.88L-774.68,479.84ZM-765.56,461.60L-762.52,464.64L-770.12,488.96L-773.16,492L-757.96,492L-750.36,488.96L-745.80,482.88L-747.32,476.80L-751.88,475.28L-748.84,473.76L-744.28,469.20L-745.80,463.12L-753.40,461.60ZM-765.56,488.96L-757.96,464.64L-756.44,463.12L-753.40,463.12L-750.36,464.64L-750.36,469.20L-753.40,473.76L-757.96,475.28L-761,475.28L-761,476.80L-756.44,476.80L-753.40,478.32L-751.88,482.88L-754.92,487.44L-761,490.48L-764.04,490.48ZM-736.68,492L-733.64,492L-726.04,487.44L-721.48,478.32L-724.52,472.24L-730.60,470.72L-738.20,475.28L-742.76,484.40L-739.72,490.48ZM-730.60,473.76L-727.56,473.76L-726.04,478.32L-729.08,484.40L-733.64,488.96L-736.68,488.96L-738.20,484.40L-735.16,478.32ZM-715.40,488.96L-701.72,460.08L-712.36,460.08L-712.36,461.60L-707.80,461.60L-719.96,488.96L-719.96,490.48L-716.92,492L-712.36,490.48L-704.76,482.88L-706.28,481.36L-713.88,488.96ZM-689.56,492L-688.04,492L-685,490.48L-677.40,482.88L-678.92,481.36L-686.52,488.96L-688.04,488.96L-674.36,460.08L-685,460.08L-685,461.60L-680.44,461.60L-685,475.28L-686.52,472.24L-692.60,470.72L-700.20,476.80L-703.24,484.40L-701.72,490.48L-698.68,492L-695.64,492L-691.08,487.44L-691.08,490.48ZM-695.64,488.96L-697.16,488.96L-698.68,484.40L-695.64,478.32L-691.08,473.76L-688.04,473.76L-686.52,476.80L-686.52,478.32L-691.08,484.40ZM-669.80,488.96L-662.20,464.64L-657.64,461.60L-669.80,461.60L-666.76,464.64L-674.36,488.96L-678.92,492L-666.76,492ZM-657.64,488.96L-650.04,473.76L-645.48,473.76L-645.48,472.24L-650.04,472.24L-647,466.16L-650.04,466.16L-651.56,470.72L-654.60,472.24L-657.64,472.24L-657.64,473.76L-654.60,473.76L-662.20,488.96L-662.20,490.48L-660.68,492L-657.64,492L-654.60,490.48L-647,482.88L-648.52,481.36L-656.12,488.96ZM-621.16,472.24L-622.68,470.72L-625.72,475.28L-627.24,472.24L-633.32,470.72L-640.92,476.80L-643.96,484.40L-642.44,490.48L-639.40,492L-636.36,492L-631.80,487.44L-631.80,490.48L-630.28,492L-625.72,490.48L-618.12,482.88L-619.64,481.36L-627.24,488.96L-628.76,488.96ZM-636.36,488.96L-637.88,488.96L-639.40,484.40L-636.36,478.32L-631.80,473.76L-628.76,473.76L-627.24,476.80L-627.24,478.32L-631.80,484.40ZM-613.56,488.96L-599.88,460.08L-610.52,460.08L-610.52,461.60L-605.96,461.60L-618.12,488.96L-618.12,490.48L-615.08,492L-610.52,490.48L-602.92,482.88L-604.44,481.36L-612.04,488.96ZM-586.20,467.68L-584.68,467.68L-583.16,464.64L-583.16,463.12L-586.20,461.60L-587.72,461.60L-589.24,464.64L-589.24,466.16ZM-602.92,479.84L-601.40,481.36L-593.80,473.76L-592.28,473.76L-601.40,488.96L-601.40,490.48L-599.88,492L-596.84,492L-593.80,490.48L-586.20,482.88L-587.72,481.36L-595.32,488.96L-596.84,488.96L-587.72,473.76L-587.72,472.24L-590.76,470.72L-595.32,472.24ZM-564.92,478.32L-564.92,475.28L-566.44,472.24L-572.52,470.72L-580.12,475.28L-584.68,484.40L-583.16,490.48L-580.12,492L-577.08,492L-574.04,490.48L-567.96,484.40L-569.48,482.88L-575.56,488.96L-578.60,488.96L-580.12,484.40L-577.08,478.32L-572.52,473.76L-569.48,473.76L-569.48,478.32Z"/>
</svg>