<?xml version="1.0"?>
<svg xmlns="http://www.w3.org/2000/svg" width="1920" height="1080" viewBox="-960 -540 1920 1080">
    <path d="M-885,-270L-885,-300L-865,-360L-815,-400L-795,-400L-775,-380L-775,-350L-755,-350L-735,-370L-745,-390L-795,-410L-825,-410L-865,-390L-895,-360L-915,-330L-925,-280L-905,-230L-865,-210L-825,-210L-795,-230L-765,-260L-775,-270L-805,-240L-835,-220L-855,-220L-875,-230ZM-725,-230L-635,-420L-705,-420L-705,-410L-675,-410L-755,-230L-755,-220L-735,-210L-705,-220L-655,-270L-665,-280L-715,-230ZM-545,-370L-535,-370L-525,-390L-525,-400L-545,-410L-555,-410L-565,-390L-565,-380ZM-655,-290L-645,-280L-595,-330L-585,-330L-645,-230L-645,-220L-635,-210L-615,-210L-595,-220L-545,-270L-555,-280L-605,-230L-615,-230L-555,-330L-555,-340L-575,-350L-605,-340ZM-385,-300L-365,-320L-345,-330L-335,-320L-385,-230L-385,-220L-375,-210L-355,-210L-335,-220L-285,-270L-295,-280L-345,-230L-355,-230L-305,-310L-305,-340L-335,-350L-365,-340L-385,-320L-385,-340L-405,-350L-435,-340L-465,-310L-455,-330L-455,-340L-465,-350L-495,-340L-545,-290L-535,-280L-485,-330L-475,-330L-535,-220L-525,-210L-505,-210L-465,-290L-435,-320L-415,-330L-405,-320L-455,-220L-445,-210L-425,-210ZM-125,-340L-135,-350L-155,-320L-165,-340L-205,-350L-255,-310L-275,-260L-265,-220L-245,-210L-225,-210L-195,-240L-195,-220L-185,-210L-155,-220L-105,-270L-115,-280L-165,-230L-175,-230ZM-225,-230L-235,-230L-245,-260L-225,-300L-195,-330L-175,-330L-165,-310L-165,-300L-195,-260ZM-75,-230L-25,-330L5,-330L5,-340L-25,-340L-5,-380L-25,-380L-35,-350L-55,-340L-75,-340L-75,-330L-55,-330L-105,-230L-105,-220L-95,-210L-75,-210L-55,-220L-5,-270L-15,-280L-65,-230ZM145,-300L145,-320L135,-340L95,-350L45,-320L15,-260L25,-220L45,-210L65,-210L85,-220L125,-260L115,-270L75,-230L55,-230L45,-260L65,-300L95,-330L115,-330L115,-300L95,-290L65,-290L65,-280L115,-280ZM195,-410L215,-390L165,-230L135,-210L255,-210L295,-230L325,-260L345,-290L355,-340L335,-390L285,-410ZM315,-320L295,-260L265,-230L245,-220L205,-220L195,-230L245,-390L255,-400L285,-400L305,-390L315,-350ZM495,-300L495,-320L485,-340L445,-350L395,-320L365,-260L375,-220L395,-210L415,-210L435,-220L475,-260L465,-270L425,-230L405,-230L395,-260L415,-300L445,-330L465,-330L465,-300L445,-290L415,-290L415,-280L465,-280ZM515,-220L515,-250L505,-260L485,-250L485,-220L505,-210L525,-210L555,-220L575,-240L575,-260L565,-310L565,-330L585,-340L585,-310L595,-300L615,-310L615,-340L585,-350L545,-340L535,-320L535,-300L545,-260L545,-240L525,-220ZM725,-370L735,-370L745,-390L745,-400L725,-410L715,-410L705,-390L705,-380ZM615,-290L625,-280L675,-330L685,-330L625,-230L625,-220L635,-210L655,-210L675,-220L725,-270L715,-280L665,-230L655,-230L715,-330L715,-340L695,-350L665,-340ZM745,-240L745,-230L755,-220L705,-200L695,-180L705,-150L745,-130L765,-130L805,-140L825,-170L825,-190L775,-230L775,-240L805,-240L855,-270L865,-300L855,-330L885,-330L885,-340L845,-340L805,-350L755,-320L745,-290L765,-250ZM805,-330L825,-330L835,-300L835,-290L805,-260L785,-260L775,-290L775,-300ZM765,-210L795,-180L795,-160L765,-140L735,-160L725,-180L735,-200ZM-675,-38L-665,-28L-615,-78L-605,-78L-665,32L-655,42L-635,42L-595,-38L-565,-68L-545,-78L-535,-68L-585,22L-585,32L-575,42L-555,42L-535,32L-485,-18L-495,-28L-545,22L-555,22L-505,-58L-505,-88L-535,-98L-565,-88L-595,-58L-585,-78L-585,-88L-595,-98L-625,-88ZM-345,-48L-345,-68L-355,-88L-395,-98L-445,-68L-475,-8L-465,32L-445,42L-425,42L-405,32L-365,-8L-375,-18L-415,22L-435,22L-445,-8L-425,-48L-395,-78L-375,-78L-375,-48L-395,-38L-425,-38L-425,-28L-375,-28ZM-345,-38L-335,-28L-285,-78L-275,-78L-335,32L-325,42L-305,42L-265,-38L-235,-58L-205,-58L-195,-88L-215,-98L-235,-88L-265,-48L-275,-48L-255,-78L-255,-88L-265,-98L-295,-88ZM-85,-18L-85,-48L-65,-108L-15,-148L5,-148L25,-128L25,-98L45,-98L65,-118L55,-138L5,-158L-25,-158L-65,-138L-95,-108L-115,-78L-125,-28L-105,22L-65,42L-25,42L-5,32L15,12L35,-18L55,-38L-5,-38L5,-18L-5,12L-15,22L-35,32L-45,32L-75,12ZM105,42L125,42L175,12L205,-48L185,-88L145,-98L95,-68L65,-8L85,32ZM145,-78L165,-78L175,-48L155,-8L125,22L105,22L95,-8L115,-48ZM375,-88L365,-98L345,-68L335,-88L295,-98L245,-58L225,-8L235,32L255,42L275,42L305,12L305,32L315,42L345,32L395,-18L385,-28L335,22L325,22ZM275,22L265,22L255,-8L275,-48L305,-78L325,-78L335,-58L335,-48L305,-8ZM425,22L515,-168L445,-168L445,-158L475,-158L395,22L395,32L415,42L445,32L495,-18L485,-28L435,22ZM515,32L515,2L505,-8L485,2L485,32L505,42L525,42L555,32L575,12L575,-8L565,-58L565,-78L585,-88L585,-58L595,-48L615,-58L615,-88L585,-98L545,-88L535,-68L535,-48L545,-8L545,12L525,32Z" fill="#ffffff" stroke="#000000"/>
    <path d="M-890.36,-234.96L-891.35,-264.64L-873.53,-324.67L-825.36,-365.89L-805.58,-366.54L-785.13,-347.41L-784.15,-317.73L-764.36,-318.38L-745.22,-338.83L-755.77,-358.29L-805.90,-376.44L-835.59,-375.45L-874.51,-354.35L-903.21,-323.68L-922.01,-293.34L-930.27,-243.54L-908.84,-194.73L-868.61,-176.25L-829.03,-177.56L-800.00,-198.33L-771.30,-229.00L-781.52,-238.57L-810.22,-207.90L-839.25,-187.13L-859.04,-186.47L-879.16,-195.71ZM-730.74,-200.63L-647.92,-391.58L-717.18,-389.28L-716.85,-379.39L-687.17,-380.37L-760.42,-199.65L-760.09,-189.75L-739.98,-180.51L-710.62,-191.39L-662.79,-242.50L-673.01,-252.07L-720.84,-200.96ZM-557.23,-345.06L-547.33,-345.39L-538.09,-365.50L-538.42,-375.40L-558.54,-384.64L-568.43,-384.31L-577.67,-364.19L-577.34,-354.30ZM-663.44,-262.29L-653.22,-252.73L-605.39,-303.84L-595.49,-304.17L-651.58,-203.25L-651.25,-193.36L-641.03,-183.79L-621.24,-184.45L-601.78,-195.00L-553.95,-246.11L-564.17,-255.68L-612.00,-204.57L-621.90,-204.24L-565.81,-305.15L-566.14,-315.05L-586.26,-324.29L-615.61,-313.41ZM-396.62,-281.04L-377.49,-301.49L-358.02,-312.04L-347.80,-302.47L-394.32,-211.78L-393.99,-201.89L-383.77,-192.32L-363.98,-192.98L-344.52,-203.53L-296.69,-254.64L-306.91,-264.21L-354.74,-213.09L-364.64,-212.77L-317.79,-293.56L-318.77,-323.25L-348.79,-332.16L-378.14,-321.28L-397.27,-300.83L-397.93,-320.62L-418.05,-329.86L-447.40,-318.98L-476.10,-288.31L-466.86,-308.43L-467.19,-318.33L-477.42,-327.89L-506.77,-317.01L-554.60,-265.90L-544.38,-256.34L-496.55,-307.45L-486.65,-307.78L-542.41,-196.97L-532.19,-187.40L-512.40,-188.06L-475.45,-268.53L-446.75,-299.19L-427.29,-309.74L-417.06,-300.18L-463.26,-199.59L-453.03,-190.03L-433.25,-190.68ZM-140.67,-329.15L-150.89,-338.72L-169.70,-308.38L-180.25,-327.84L-220.16,-336.42L-268.32,-295.20L-286.47,-245.07L-275.26,-205.82L-255.14,-196.59L-235.35,-197.24L-206.65,-227.91L-206.00,-208.12L-195.78,-198.55L-166.42,-209.43L-118.59,-260.54L-128.81,-270.11L-176.64,-219.00L-186.54,-218.67ZM-236.01,-217.03L-245.90,-216.70L-256.78,-246.06L-238.31,-286.29L-209.61,-316.96L-189.82,-317.62L-179.27,-298.15L-178.94,-288.26L-207.31,-247.70ZM-87.59,-221.95L-41.40,-322.54L-11.71,-323.52L-12.04,-333.41L-41.73,-332.43L-23.25,-372.66L-43.04,-372.01L-51.95,-342.00L-71.41,-331.45L-91.20,-330.79L-90.87,-320.90L-71.08,-321.55L-117.28,-220.97L-116.95,-211.07L-106.72,-201.50L-86.94,-202.16L-67.47,-212.71L-19.64,-263.82L-29.86,-273.39L-77.70,-222.28ZM127.79,-298.43L127.14,-318.22L116.59,-337.68L76.68,-346.26L28.19,-314.94L0.48,-254.59L11.68,-215.34L31.80,-206.10L51.59,-206.75L71.05,-217.30L109.32,-258.19L99.09,-267.76L60.83,-226.87L41.04,-226.21L30.16,-255.57L48.64,-295.80L77.34,-326.47L97.13,-327.13L98.11,-297.44L78.65,-286.89L48.96,-285.91L49.29,-276.01L98.77,-277.65ZM173.66,-408.91L194.10,-389.77L149.88,-229.82L120.85,-209.05L239.59,-212.98L278.51,-234.09L307.21,-264.75L326.01,-295.09L334.27,-344.89L312.84,-393.71L262.71,-411.86ZM295.34,-323.79L277.52,-263.77L248.82,-233.10L229.36,-222.55L189.78,-221.24L179.56,-230.81L223.79,-390.76L233.35,-400.98L263.04,-401.97L283.15,-392.73L294.36,-353.48ZM474.10,-309.91L473.45,-329.70L462.90,-349.16L422.99,-357.74L374.50,-326.42L346.79,-266.07L357.99,-226.81L378.11,-217.58L397.90,-218.23L417.36,-228.78L455.63,-269.67L445.40,-279.24L407.14,-238.35L387.35,-237.69L376.47,-267.05L394.95,-307.28L423.65,-337.95L443.44,-338.61L444.42,-308.92L424.96,-298.37L395.27,-297.39L395.60,-287.49L445.08,-289.13ZM496.52,-231.41L495.53,-261.09L485.31,-270.66L465.85,-260.11L466.83,-230.42L486.95,-221.18L506.74,-221.84L536.09,-232.72L555.23,-253.16L554.57,-272.95L543.04,-322.10L542.38,-341.89L561.84,-352.44L562.83,-322.75L573.05,-313.19L592.51,-323.74L591.53,-353.42L561.51,-362.33L522.26,-351.13L513.03,-331.01L513.68,-311.22L524.89,-271.97L525.54,-252.18L506.41,-231.73ZM699.38,-386.71L709.28,-387.04L718.52,-407.16L718.19,-417.05L698.07,-426.29L688.18,-425.96L678.94,-405.85L679.26,-395.95ZM593.17,-303.95L603.39,-294.38L651.22,-345.49L661.12,-345.82L605.03,-244.91L605.36,-235.01L615.58,-225.45L635.37,-226.10L654.83,-236.65L702.66,-287.77L692.44,-297.33L644.61,-246.22L634.71,-245.89L690.80,-346.81L690.47,-356.70L670.35,-365.94L641.00,-355.06ZM723.44,-258.74L723.76,-248.84L733.99,-239.28L685.17,-217.85L675.93,-197.73L686.81,-168.38L727.04,-149.90L746.83,-150.56L786.08,-161.76L804.89,-192.10L804.23,-211.89L753.45,-249.83L753.12,-259.72L782.80,-260.71L831.29,-292.03L840.20,-322.04L829.32,-351.40L859.01,-352.38L858.68,-362.28L819.10,-360.97L779.19,-369.55L730.71,-338.22L721.80,-308.21L742.90,-269.29ZM779.85,-349.76L799.64,-350.41L810.52,-321.06L810.85,-311.16L782.15,-280.50L762.36,-279.84L751.48,-309.20L751.15,-319.09ZM744.21,-229.71L774.88,-201.01L775.53,-181.22L746.50,-160.45L716.16,-179.26L705.61,-198.72L714.85,-218.83ZM-674.97,-12.29L-664.75,-2.73L-616.91,-53.84L-607.02,-54.17L-662.78,56.64L-652.55,66.21L-632.77,65.55L-595.81,-14.92L-567.11,-45.59L-547.65,-56.14L-537.43,-46.57L-583.95,44.12L-583.62,54.02L-573.40,63.58L-553.61,62.93L-534.15,52.38L-486.32,1.26L-496.54,-8.30L-544.37,42.81L-554.27,43.14L-507.42,-37.66L-508.40,-67.34L-538.41,-76.25L-567.77,-65.38L-596.47,-34.71L-587.23,-54.83L-587.56,-64.72L-597.78,-74.29L-627.13,-63.41ZM-348.78,-33.01L-349.43,-52.80L-359.98,-72.26L-399.89,-80.85L-448.38,-49.52L-476.09,10.83L-464.89,50.08L-444.77,59.32L-424.98,58.66L-405.52,48.11L-367.25,7.22L-377.47,-2.35L-415.74,38.54L-435.53,39.20L-446.41,9.84L-427.93,-30.39L-399.23,-61.06L-379.44,-61.71L-378.46,-32.03L-397.92,-21.48L-427.60,-20.49L-427.28,-10.60L-377.80,-12.24ZM-348.45,-23.12L-338.22,-13.55L-290.39,-64.66L-280.50,-64.99L-336.26,45.82L-326.03,55.38L-306.25,54.73L-269.29,-25.74L-240.26,-46.52L-210.58,-47.50L-201.67,-77.51L-221.79,-86.75L-241.25,-76.20L-269.62,-35.64L-279.51,-35.31L-260.71,-65.65L-261.04,-75.54L-271.26,-85.11L-300.61,-74.23ZM-90.53,-11.86L-91.52,-41.54L-73.70,-101.56L-25.53,-142.78L-5.75,-143.44L14.70,-124.31L15.68,-94.62L35.47,-95.28L54.61,-115.72L44.06,-135.18L-6.07,-153.33L-35.76,-152.35L-74.68,-131.25L-103.38,-100.58L-122.18,-70.24L-130.44,-20.44L-109.01,28.38L-68.78,46.85L-29.20,45.54L-9.74,34.99L9.40,14.55L28.20,-15.79L47.34,-36.24L-12.03,-34.27L-1.48,-14.81L-10.39,15.20L-19.96,25.43L-39.42,35.98L-49.31,36.30L-79.65,17.50ZM99.43,41.28L119.22,40.62L167.71,9.30L195.43,-51.05L174.32,-89.97L134.42,-98.56L85.93,-67.23L58.21,-6.88L79.32,32.04ZM135.07,-78.77L154.86,-79.42L165.74,-50.07L147.27,-9.83L118.57,20.83L98.78,21.49L87.90,-7.87L106.37,-48.10ZM362.32,-96.21L352.10,-105.77L333.29,-75.43L322.74,-94.89L282.84,-103.48L234.68,-62.26L216.53,-12.13L227.73,27.12L247.85,36.36L267.64,35.70L296.34,5.04L297.00,24.82L307.22,34.39L336.57,23.51L384.41,-27.60L374.18,-37.17L326.35,13.95L316.46,14.27ZM266.98,15.91L257.09,16.24L246.21,-13.11L264.69,-53.35L293.39,-84.02L313.18,-84.67L323.73,-65.21L324.06,-55.32L295.68,-14.75ZM415.40,10.99L498.22,-179.95L428.96,-177.66L429.29,-167.76L458.97,-168.75L385.72,11.98L386.05,21.87L406.16,31.11L435.52,20.23L483.35,-30.88L473.13,-40.45L425.30,10.67ZM504.78,17.94L503.80,-11.75L493.57,-21.31L474.11,-10.76L475.10,18.92L495.21,28.16L515.00,27.50L544.36,16.62L563.49,-3.82L562.84,-23.61L551.30,-72.75L550.65,-92.54L570.11,-103.09L571.09,-73.41L581.31,-63.84L600.78,-74.39L599.79,-104.08L569.78,-112.99L530.53,-101.78L521.29,-81.67L521.95,-61.88L533.15,-22.63L533.81,-2.84L514.68,17.61Z" fill="#ffffff" stroke="#000000"/>
    <path d="M-894.26,-199.94L-896.21,-229.27L-880.55,-289.24L-834.25,-331.60L-814.69,-332.90L-793.84,-314.64L-791.89,-285.30L-772.34,-286.60L-754.08,-307.46L-765.15,-326.37L-815.34,-342.68L-844.68,-340.73L-882.49,-318.58L-909.88,-287.29L-927.49,-256.66L-934.03,-207.12L-911.22,-159.53L-870.81,-142.56L-831.70,-145.16L-803.66,-166.66L-776.27,-197.95L-786.70,-207.08L-814.09,-175.79L-842.13,-154.29L-861.68,-152.99L-881.89,-161.47ZM-735.21,-171.21L-659.54,-362.84L-727.99,-358.30L-727.34,-348.52L-698.00,-350.47L-764.55,-169.26L-763.90,-159.48L-743.69,-151.00L-715.01,-162.73L-669.36,-214.86L-679.79,-223.99L-725.43,-171.86ZM-568.29,-319.79L-558.51,-320.44L-550.03,-340.64L-550.68,-350.42L-570.88,-358.90L-580.66,-358.25L-589.14,-338.05L-588.49,-328.27ZM-670.66,-234.42L-660.23,-225.29L-614.58,-277.43L-604.80,-278.08L-656.98,-176.40L-656.34,-166.62L-645.91,-157.49L-626.35,-158.79L-607.44,-169.87L-561.80,-222.00L-572.22,-231.13L-617.87,-179.00L-627.65,-178.35L-575.47,-280.03L-576.12,-289.80L-596.32,-298.28L-625.01,-286.56ZM-407.29,-261.72L-389.03,-282.58L-370.12,-293.65L-359.69,-284.52L-402.74,-193.27L-402.09,-183.49L-391.67,-174.37L-372.11,-175.66L-353.20,-186.74L-307.55,-238.88L-317.98,-248.01L-363.63,-195.87L-373.41,-195.22L-329.71,-276.69L-331.65,-306.03L-361.64,-313.86L-390.33,-302.13L-408.58,-281.28L-409.88,-300.84L-430.09,-309.32L-458.77,-297.59L-486.16,-266.31L-477.68,-286.51L-478.33,-296.29L-488.76,-305.42L-517.45,-293.70L-563.09,-241.56L-552.67,-232.43L-507.02,-284.57L-497.24,-285.22L-548.77,-173.76L-538.34,-164.63L-518.79,-165.93L-484.87,-246.75L-457.48,-278.03L-438.57,-289.11L-428.14,-279.98L-470.54,-178.95L-460.12,-169.82L-440.56,-171.12ZM-155.64,-317.71L-166.07,-326.84L-183.68,-296.21L-194.76,-315.11L-234.52,-322.30L-280.82,-279.94L-297.13,-229.75L-284.75,-191.28L-264.55,-182.80L-244.99,-184.10L-217.60,-215.38L-216.30,-195.83L-205.88,-186.70L-177.19,-198.42L-131.54,-250.56L-141.97,-259.69L-187.62,-207.55L-197.40,-206.90ZM-246.29,-203.66L-256.07,-203.01L-267.79,-231.69L-250.83,-272.11L-223.44,-303.39L-203.89,-304.69L-192.81,-285.78L-192.16,-276.00L-218.90,-234.94ZM-99.61,-213.39L-57.21,-314.42L-27.87,-316.37L-28.52,-326.15L-57.86,-324.20L-40.90,-364.61L-60.45,-363.31L-68.28,-333.33L-87.19,-322.25L-106.75,-320.96L-106.10,-311.18L-86.54,-312.47L-128.95,-211.44L-128.30,-201.67L-117.87,-192.54L-98.31,-193.83L-79.40,-204.91L-33.76,-257.05L-44.18,-266.18L-89.83,-214.04ZM110.97,-296.12L109.68,-315.68L98.60,-334.58L58.84,-341.77L11.89,-309.19L-13.55,-248.57L-1.18,-210.10L19.03,-201.62L38.59,-202.92L57.49,-214.00L94.01,-255.71L83.58,-264.84L47.07,-223.13L27.51,-221.83L15.78,-250.52L32.75,-290.93L60.13,-322.21L79.69,-323.51L81.64,-294.17L62.73,-283.10L33.39,-281.15L34.04,-271.37L82.94,-274.62ZM152.73,-406.93L173.58,-388.67L135.07,-228.97L107.04,-207.46L224.38,-215.25L262.19,-237.40L289.58,-268.69L307.19,-299.32L313.73,-348.86L290.92,-396.46L240.73,-412.77ZM275.91,-326.71L260.25,-266.74L232.86,-235.46L213.95,-224.38L174.84,-221.79L164.41,-230.91L202.92,-390.62L212.05,-401.04L241.38,-402.99L261.59,-394.51L273.96,-356.04ZM453.22,-318.83L451.92,-338.39L440.85,-357.30L401.08,-364.48L354.14,-331.90L328.70,-271.28L341.07,-232.82L361.28,-224.34L380.83,-225.64L399.74,-236.71L436.26,-278.42L425.83,-287.55L389.31,-245.84L369.76,-244.54L358.03,-273.23L374.99,-313.64L402.38,-344.92L421.94,-346.22L423.89,-316.89L404.98,-305.81L375.64,-303.86L376.29,-294.08L425.18,-297.33ZM477.97,-241.90L476.02,-271.24L465.59,-280.37L446.69,-269.29L448.63,-239.96L468.84,-231.48L488.40,-232.77L517.08,-244.50L535.34,-265.35L534.04,-284.91L521.02,-333.16L519.72,-352.71L538.63,-363.79L540.58,-334.45L551.01,-325.32L569.91,-336.40L567.97,-365.74L537.98,-373.57L499.52,-361.19L491.04,-340.99L492.33,-321.43L504.71,-282.96L506.01,-263.41L487.75,-242.55ZM673.58,-402.21L683.36,-402.86L691.84,-423.07L691.19,-432.84L670.99,-441.32L661.21,-440.68L652.73,-420.47L653.38,-410.69ZM571.21,-316.84L581.64,-307.71L627.29,-359.85L637.06,-360.50L584.88,-258.82L585.53,-249.04L595.96,-239.91L615.52,-241.21L634.43,-252.29L680.07,-304.43L669.65,-313.55L624.00,-261.42L614.22,-260.77L666.40,-362.45L665.75,-372.23L645.55,-380.71L616.86,-368.98ZM701.58,-276.39L702.23,-266.61L712.65,-257.48L665.06,-234.68L656.58,-214.47L668.30,-185.79L708.72,-168.82L728.27,-170.12L766.74,-182.50L784.35,-213.13L783.05,-232.69L731.56,-268.56L730.91,-278.33L760.25,-280.28L807.19,-312.86L815.02,-342.85L803.30,-371.53L832.63,-373.48L831.99,-383.26L792.87,-380.66L753.11,-387.85L706.16,-355.26L698.33,-325.28L720.48,-287.46ZM754.41,-368.29L773.96,-369.59L785.69,-340.90L786.34,-331.12L758.95,-299.84L739.39,-298.54L727.67,-327.23L727.02,-337.01ZM723.08,-248.35L754.36,-220.96L755.66,-201.40L727.62,-179.90L696.99,-197.51L685.91,-216.42L694.39,-236.62ZM-673.86,13.29L-663.43,22.42L-617.78,-29.71L-608.01,-30.36L-659.54,81.10L-649.11,90.22L-629.55,88.93L-595.63,8.10L-568.24,-23.18L-549.33,-34.26L-538.91,-25.13L-581.96,66.12L-581.31,75.90L-570.88,85.03L-551.33,83.73L-532.42,72.66L-486.77,20.52L-497.20,11.39L-542.84,63.53L-552.62,64.18L-508.92,-17.30L-510.87,-46.63L-540.85,-54.46L-569.54,-42.74L-596.93,-11.45L-588.45,-31.66L-589.10,-41.44L-599.52,-50.57L-628.21,-38.84ZM-351.82,-17.90L-353.12,-37.46L-364.19,-56.37L-403.96,-63.55L-450.90,-30.97L-476.34,29.65L-463.97,68.12L-443.76,76.60L-424.20,75.30L-405.30,64.22L-368.78,22.51L-379.21,13.38L-415.72,55.09L-435.28,56.39L-447.01,27.70L-430.05,-12.71L-402.66,-43.99L-383.10,-45.29L-381.15,-15.95L-400.06,-4.88L-429.40,-2.93L-428.75,6.85L-379.86,3.60ZM-351.17,-8.12L-340.74,1.01L-295.09,-51.13L-285.32,-51.78L-336.85,59.68L-326.42,68.81L-306.86,67.51L-272.94,-13.31L-244.90,-34.82L-215.57,-36.76L-207.74,-66.75L-227.94,-75.23L-246.85,-64.15L-273.59,-23.09L-283.37,-22.44L-265.76,-53.08L-266.41,-62.86L-276.83,-71.98L-305.52,-60.26ZM-95.63,-5.44L-97.58,-34.77L-81.91,-94.74L-35.62,-137.10L-16.06,-138.40L4.79,-120.14L6.74,-90.81L26.30,-92.10L44.56,-112.96L33.48,-131.87L-16.71,-148.18L-46.05,-146.23L-83.86,-124.08L-111.25,-92.80L-128.86,-62.16L-135.39,-12.62L-112.59,34.97L-72.18,51.93L-33.07,49.34L-14.16,38.26L4.10,17.41L21.71,-13.23L39.97,-34.08L-18.70,-30.19L-7.62,-11.28L-15.46,18.70L-24.58,29.13L-43.49,40.21L-53.27,40.86L-83.90,23.25ZM94.06,40.90L113.61,39.60L160.56,7.02L186.00,-53.60L163.85,-91.41L124.08,-98.59L77.14,-66.01L51.70,-5.40L73.85,32.42ZM125.38,-79.04L144.94,-80.33L156.66,-51.65L139.70,-11.24L112.31,20.05L92.76,21.34L81.03,-7.34L97.99,-47.75ZM349.64,-103.74L339.21,-112.87L321.60,-82.24L310.52,-101.15L270.76,-108.33L224.46,-65.97L208.15,-15.78L220.53,22.69L240.73,31.17L260.29,29.87L287.68,-1.41L288.98,18.14L299.40,27.27L328.09,15.55L373.74,-36.59L363.31,-45.72L317.66,6.42L307.88,7.07ZM258.99,10.31L249.21,10.96L237.49,-17.73L254.45,-58.14L281.84,-89.42L301.39,-90.72L312.47,-71.81L313.12,-62.03L286.38,-20.97ZM405.67,0.58L481.34,-191.06L412.89,-186.51L413.54,-176.73L442.88,-178.68L376.33,2.52L376.98,12.30L397.19,20.78L425.87,9.06L471.52,-43.08L461.09,-52.21L415.45,-0.07ZM494.32,4.51L492.38,-24.82L481.95,-33.95L463.04,-22.87L464.99,6.46L485.19,14.94L504.75,13.64L533.44,1.92L551.70,-18.94L550.40,-38.49L537.38,-86.74L536.08,-106.29L554.99,-117.37L556.93,-88.04L567.36,-78.91L586.27,-89.98L584.32,-119.32L554.34,-127.15L515.87,-114.77L507.39,-94.57L508.69,-75.01L521.06,-36.55L522.36,-16.99L504.10,3.86Z" fill="#ffffff" stroke="#000000"/>
    <path d="M-896.71,-164.99L-899.60,-193.95L-886.07,-253.78L-841.66,-297.21L-822.36,-299.13L-801.13,-281.75L-798.24,-252.80L-778.94,-254.72L-761.56,-275.95L-773.13,-294.29L-823.32,-308.78L-852.28,-305.90L-888.96,-282.74L-915.03,-250.90L-931.44,-220.02L-936.28,-170.79L-912.17,-124.46L-871.63,-109.00L-833.02,-112.85L-805.99,-135.05L-779.92,-166.89L-790.54,-175.58L-816.61,-143.74L-843.64,-121.54L-862.94,-119.62L-883.21,-127.34ZM-738.43,-141.78L-669.85,-333.84L-737.41,-327.10L-736.45,-317.45L-707.49,-320.34L-767.38,-138.90L-766.42,-129.24L-746.15,-121.52L-718.16,-134.06L-674.71,-187.13L-685.33,-195.82L-728.77,-142.75ZM-578.17,-294.24L-568.51,-295.21L-560.79,-315.47L-561.75,-325.12L-582.02,-332.85L-591.67,-331.89L-599.40,-311.62L-598.43,-301.97ZM-676.64,-206.44L-666.02,-197.75L-622.58,-250.82L-612.92,-251.78L-661.21,-149.49L-660.25,-139.83L-649.63,-131.14L-630.33,-133.07L-611.99,-144.65L-568.54,-197.72L-579.15,-206.41L-622.60,-153.34L-632.25,-152.37L-583.97,-254.67L-584.93,-264.32L-605.20,-272.05L-633.19,-259.51ZM-416.99,-242.08L-399.62,-263.31L-381.27,-274.89L-370.66,-266.20L-410.26,-174.52L-409.29,-164.86L-398.68,-156.17L-379.37,-158.10L-361.03,-169.68L-317.58,-222.75L-328.20,-231.44L-371.65,-178.37L-381.30,-177.40L-340.74,-259.43L-343.63,-288.39L-373.55,-295.15L-401.54,-282.61L-418.92,-261.38L-420.84,-280.69L-441.11,-288.42L-469.11,-275.88L-495.17,-244.03L-487.45,-264.30L-488.41,-273.95L-499.02,-282.64L-527.02,-270.10L-570.47,-217.03L-559.85,-208.34L-516.40,-261.41L-506.75,-262.37L-554.07,-150.42L-543.46,-141.73L-524.16,-143.66L-493.25,-224.73L-467.18,-256.57L-448.84,-268.15L-438.22,-259.46L-476.86,-158.13L-466.24,-149.44L-446.94,-151.36ZM-169.89,-305.72L-180.50,-314.41L-196.92,-283.53L-208.50,-301.87L-248.07,-307.67L-292.48,-264.25L-306.97,-214.06L-293.47,-176.42L-273.20,-168.69L-253.90,-170.61L-227.83,-202.46L-225.90,-183.15L-215.29,-174.47L-187.29,-187.01L-143.85,-240.08L-154.46,-248.77L-197.91,-195.69L-207.56,-194.73ZM-255.82,-189.92L-265.47,-188.96L-278.01,-216.95L-262.56,-257.48L-236.49,-289.33L-217.19,-291.25L-205.61,-272.91L-204.65,-263.26L-229.75,-221.76ZM-111.04,-204.36L-72.41,-305.69L-43.45,-308.58L-44.41,-318.23L-73.37,-315.35L-57.92,-355.88L-77.22,-353.95L-83.98,-324.03L-102.32,-312.46L-121.63,-310.53L-120.67,-300.88L-101.36,-302.81L-140.00,-201.47L-139.03,-191.82L-128.42,-183.13L-109.11,-185.05L-90.77,-196.63L-47.33,-249.71L-57.94,-258.40L-101.39,-205.32ZM94.57,-293.10L92.64,-312.41L81.07,-330.75L41.49,-336.55L-3.88,-302.78L-27.06,-241.98L-13.56,-204.33L6.71,-196.61L26.02,-198.53L44.36,-210.11L79.11,-252.57L68.50,-261.26L33.74,-218.80L14.44,-216.87L1.90,-244.87L17.35,-285.40L43.42,-317.25L62.72,-319.17L65.61,-290.21L47.27,-278.64L18.31,-275.75L19.28,-266.10L67.54,-270.91ZM132.24,-404.09L153.47,-386.71L120.61,-227.46L93.58,-205.27L209.41,-216.82L246.09,-239.98L272.16,-271.82L288.57,-302.70L293.41,-351.93L269.29,-398.26L219.11,-412.75ZM256.73,-328.77L243.20,-268.93L217.13,-237.09L198.79,-225.51L160.18,-221.66L149.57,-230.35L182.43,-389.60L191.11,-400.21L220.07,-403.10L240.34,-395.37L253.84,-357.73ZM432.39,-326.80L430.47,-346.10L418.89,-364.44L379.32,-370.24L333.95,-336.47L310.77,-275.67L324.27,-238.03L344.53,-230.30L363.84,-232.23L382.18,-243.80L416.94,-286.26L406.32,-294.95L371.57,-252.49L352.26,-250.57L339.72,-278.56L355.17,-319.09L381.24,-350.94L400.55,-352.86L403.44,-323.91L385.09,-312.33L356.14,-309.44L357.10,-299.79L405.36,-304.60ZM459.40,-251.50L456.51,-280.46L445.89,-289.15L427.55,-277.57L430.44,-248.62L450.71,-240.89L470.01,-242.82L498.01,-255.36L515.38,-276.58L513.46,-295.89L498.99,-343.19L497.07,-362.49L515.41,-374.07L518.30,-345.11L528.91,-336.42L547.25,-348.00L544.37,-376.96L514.45,-383.72L476.80,-370.22L469.07,-349.95L471.00,-330.65L484.50,-293.00L486.43,-273.70L469.05,-252.47ZM647.65,-416.50L657.30,-417.47L665.03,-437.73L664.07,-447.38L643.80,-455.11L634.15,-454.15L626.42,-433.88L627.38,-424.23ZM549.18,-328.70L559.79,-320.01L603.24,-373.08L612.89,-374.04L564.61,-271.75L565.57,-262.09L576.19,-253.40L595.49,-255.33L613.83,-266.91L657.28,-319.98L646.66,-328.67L603.22,-275.60L593.56,-274.63L641.85,-376.93L640.89,-386.58L620.62,-394.31L592.63,-381.77ZM679.47,-292.95L680.43,-283.30L691.05,-274.61L644.71,-250.49L636.99,-230.22L649.53,-202.23L690.06,-186.78L709.36,-188.70L747.01,-202.21L763.43,-233.09L761.50,-252.39L709.39,-286.19L708.43,-295.84L737.38,-298.73L782.76,-332.50L789.52,-362.42L776.98,-390.41L805.94,-393.30L804.97,-402.95L766.37,-399.10L726.79,-404.90L681.42,-371.13L674.66,-341.21L697.81,-304.53ZM728.72,-385.60L748.02,-387.52L760.56,-359.53L761.53,-349.87L735.46,-318.03L716.15,-316.11L703.61,-344.10L702.65,-353.75ZM701.66,-265.92L733.51,-239.85L735.43,-220.55L708.40,-198.35L677.52,-214.77L665.94,-233.11L673.67,-253.38ZM-671.68,38.72L-661.07,47.41L-617.62,-5.66L-607.97,-6.62L-655.29,105.32L-644.68,114.01L-625.37,112.09L-594.47,31.02L-568.40,-0.82L-550.06,-12.40L-539.44,-3.71L-579.04,87.97L-578.08,97.62L-567.46,106.31L-548.16,104.39L-529.81,92.81L-486.37,39.74L-496.98,31.05L-540.43,84.12L-550.08,85.08L-509.52,3.05L-512.41,-25.90L-542.33,-32.67L-570.32,-20.13L-596.39,11.72L-588.66,-8.55L-589.63,-18.20L-600.24,-26.89L-628.24,-14.35ZM-354.13,-2.70L-356.05,-22.00L-367.63,-40.34L-407.20,-46.15L-452.57,-12.38L-475.75,48.43L-462.25,86.07L-441.98,93.80L-422.68,91.87L-404.34,80.29L-369.58,37.84L-380.19,29.15L-414.95,71.61L-434.26,73.53L-446.80,45.54L-431.34,5.00L-405.27,-26.84L-385.97,-28.77L-383.08,0.19L-401.42,11.77L-430.38,14.66L-429.42,24.31L-381.16,19.49ZM-353.16,6.95L-342.55,15.64L-299.10,-37.43L-289.45,-38.39L-336.77,73.56L-326.16,82.25L-306.85,80.32L-275.95,-0.75L-248.92,-22.94L-219.96,-25.83L-213.20,-55.75L-233.46,-63.47L-251.80,-51.90L-276.91,-10.40L-286.56,-9.44L-270.15,-40.32L-271.11,-49.97L-281.72,-58.66L-309.72,-46.12ZM-100.28,1.23L-103.17,-27.73L-89.64,-87.57L-45.23,-130.99L-25.93,-132.91L-4.70,-115.53L-1.81,-86.58L17.49,-88.50L34.87,-109.73L23.29,-128.07L-26.89,-142.56L-55.85,-139.68L-92.53,-116.52L-118.60,-84.68L-135.02,-53.80L-139.85,-4.57L-115.74,41.76L-75.20,57.22L-36.59,53.37L-18.25,41.79L-0.87,20.56L15.54,-10.32L32.92,-31.55L-24.99,-25.78L-13.41,-7.44L-20.18,22.48L-28.87,33.10L-47.21,44.68L-56.86,45.64L-87.74,29.22ZM88.88,40.85L108.19,38.93L153.56,5.16L176.74,-55.65L153.59,-92.33L114.01,-98.13L68.64,-64.36L45.46,-3.56L68.62,33.12ZM115.94,-78.83L135.24,-80.75L147.78,-52.76L132.33,-12.22L106.26,19.62L86.96,21.55L74.42,-6.45L89.87,-46.98ZM336.98,-110.62L326.36,-119.31L309.94,-88.43L298.37,-106.77L258.80,-112.57L214.39,-69.15L199.89,-18.96L213.40,18.68L233.66,26.41L252.97,24.49L279.04,-7.36L280.96,11.94L291.58,20.63L319.57,8.09L363.02,-44.98L352.40,-53.67L308.96,-0.60L299.30,0.37ZM251.04,5.18L241.39,6.14L228.85,-21.85L244.30,-62.38L270.37,-94.23L289.68,-96.15L301.25,-77.81L302.22,-68.16L277.11,-26.66ZM395.83,-9.26L464.40,-201.31L396.84,-194.57L397.80,-184.92L426.76,-187.81L366.87,-6.37L367.83,3.28L388.10,11.01L416.09,-1.53L459.54,-54.61L448.92,-63.30L405.48,-10.22ZM483.66,-8.27L480.77,-37.23L470.15,-45.92L451.81,-34.34L454.70,-5.38L474.97,2.34L494.27,0.42L522.27,-12.12L539.64,-33.35L537.72,-52.66L523.25,-99.95L521.33,-119.26L539.67,-130.84L542.56,-101.88L553.17,-93.19L571.51,-104.77L568.63,-133.72L538.71,-140.49L501.06,-126.98L493.33,-106.72L495.26,-87.41L508.76,-49.77L510.69,-30.46L493.31,-9.23Z" fill="#ffffff" stroke="#000000"/>
    <path d="M-897.72,-130.18L-901.52,-158.73L-890.11,-218.36L-847.60,-262.77L-828.57,-265.31L-807.00,-248.81L-803.19,-220.26L-784.16,-222.80L-767.67,-244.37L-779.72,-262.13L-829.84,-274.82L-858.39,-271.02L-893.91,-246.91L-918.65,-214.56L-933.88,-183.47L-937.05,-134.62L-911.68,-89.58L-871.07,-75.62L-833.01,-80.70L-807.00,-103.54L-782.26,-135.89L-793.04,-144.14L-817.79,-111.78L-843.80,-88.95L-862.83,-86.41L-883.13,-93.39ZM-740.39,-112.42L-678.85,-304.64L-745.46,-295.76L-744.20,-286.24L-715.65,-290.05L-768.94,-108.61L-767.67,-99.10L-747.37,-92.12L-720.09,-105.44L-678.86,-159.36L-689.64,-167.61L-730.88,-113.69ZM-586.87,-268.48L-577.35,-269.74L-570.37,-290.05L-571.64,-299.56L-591.94,-306.54L-601.46,-305.27L-608.44,-284.97L-607.17,-275.45ZM-681.39,-178.39L-670.61,-170.15L-629.37,-224.07L-619.86,-225.34L-664.26,-122.57L-663.00,-113.05L-652.21,-104.80L-633.18,-107.34L-615.42,-119.40L-574.18,-173.32L-584.97,-181.57L-626.20,-127.64L-635.72,-126.37L-591.31,-229.14L-592.58,-238.66L-612.88,-245.64L-640.16,-232.32ZM-425.73,-222.16L-409.24,-243.73L-391.48,-255.79L-380.69,-247.54L-416.85,-155.55L-415.59,-146.04L-404.80,-137.79L-385.77,-140.33L-368.01,-152.38L-326.77,-206.30L-337.56,-214.55L-378.79,-160.63L-388.31,-159.36L-350.88,-241.83L-354.68,-270.38L-384.50,-276.09L-411.78,-262.77L-428.27,-241.20L-430.81,-260.23L-451.11,-267.21L-478.39,-253.88L-503.13,-221.53L-496.15,-241.83L-497.42,-251.35L-508.20,-259.59L-535.48,-246.27L-576.72,-192.35L-565.93,-184.10L-524.70,-238.03L-515.18,-239.29L-558.32,-127.01L-547.54,-118.76L-528.51,-121.30L-500.59,-202.50L-475.85,-234.85L-458.09,-246.91L-447.30,-238.66L-482.20,-137.16L-471.41,-128.91L-452.38,-131.45ZM-183.40,-293.21L-194.18,-301.46L-209.41,-270.38L-221.46,-288.14L-260.79,-292.58L-303.30,-248.17L-315.99,-198.06L-301.40,-161.26L-281.10,-154.28L-262.06,-156.82L-237.32,-189.18L-234.79,-170.14L-224.00,-161.90L-196.72,-175.22L-155.49,-229.14L-166.27,-237.39L-207.51,-183.47L-217.02,-182.20ZM-264.60,-175.85L-274.12,-174.58L-287.44,-201.86L-273.48,-242.46L-248.74,-274.82L-229.71,-277.36L-217.66,-259.59L-216.39,-250.08L-239.86,-208.21ZM-121.86,-194.88L-86.97,-296.39L-58.42,-300.19L-59.69,-309.71L-88.24,-305.90L-74.28,-346.50L-93.32,-343.96L-99.03,-314.15L-116.79,-302.10L-135.82,-299.56L-134.55,-290.04L-115.52,-292.58L-150.41,-191.08L-149.14,-181.56L-138.36,-173.32L-119.33,-175.85L-101.56,-187.91L-60.33,-241.83L-71.11,-250.08L-112.35,-196.15ZM78.60,-289.41L76.06,-308.44L64.01,-326.20L24.68,-330.64L-19.09,-295.75L-40.03,-234.85L-25.44,-198.06L-5.14,-191.08L13.89,-193.61L31.66,-205.67L64.65,-248.81L53.86,-257.05L20.87,-213.91L1.84,-211.38L-11.48,-238.66L2.48,-279.26L27.22,-311.61L46.25,-314.15L50.05,-285.60L32.29,-273.55L3.74,-269.74L5.01,-260.23L52.59,-266.57ZM112.23,-400.42L133.79,-383.93L106.51,-225.33L80.50,-202.50L194.69,-217.72L230.22,-241.83L254.96,-274.18L270.19,-305.26L273.36,-354.11L247.98,-399.15L197.87,-411.84ZM237.83,-330.01L226.41,-270.37L201.67,-238.02L183.91,-225.97L145.85,-220.89L135.06,-229.14L162.34,-387.74L170.59,-398.52L199.14,-402.33L219.44,-395.35L234.03,-358.55ZM411.66,-333.81L409.12,-352.84L397.06,-370.61L357.73,-375.05L313.96,-340.16L293.02,-279.25L307.62,-242.46L327.92,-235.48L346.95,-238.02L364.71,-250.07L397.70,-293.21L386.91,-301.46L353.93,-258.32L334.89,-255.78L321.57,-283.06L335.53,-323.66L360.27,-356.01L379.30,-358.55L383.11,-330.00L365.34,-317.95L336.80,-314.15L338.07,-304.63L385.65,-310.97ZM440.84,-260.22L437.03,-288.77L426.25,-297.02L408.48,-284.96L412.29,-256.42L432.59,-249.44L451.62,-251.97L478.90,-265.30L495.39,-286.87L492.86,-305.90L477.00,-352.21L474.46,-371.24L492.22,-383.29L496.03,-354.75L506.81,-346.50L524.58,-358.55L520.77,-387.10L490.95,-392.81L454.16,-378.22L447.18,-357.92L449.72,-338.89L464.31,-302.09L466.85,-283.06L450.35,-261.49ZM621.64,-429.60L631.15,-430.87L638.13,-451.17L636.86,-460.69L616.56,-467.67L607.05,-466.40L600.07,-446.10L601.34,-436.58ZM527.11,-339.52L537.90,-331.27L579.13,-385.20L588.65,-386.46L544.24,-283.69L545.51,-274.18L556.29,-265.93L575.33,-268.47L593.09,-280.52L634.32,-334.44L623.54,-342.69L582.30,-288.77L572.79,-287.50L617.20,-390.27L615.93,-399.79L595.63,-406.76L568.35,-393.44ZM657.16,-308.43L658.43,-298.92L669.22,-290.67L624.17,-265.30L617.20,-245.00L630.52,-217.72L671.12,-203.76L690.15,-206.30L726.94,-220.89L742.17,-251.97L739.63,-271.00L686.98,-302.72L685.71,-312.24L714.26,-316.05L758.03,-350.94L763.74,-380.75L750.42,-408.03L778.97,-411.84L777.70,-421.35L739.63,-416.28L700.30,-420.72L656.53,-385.83L650.82,-356.01L674.93,-320.49ZM702.84,-401.69L721.87,-404.23L735.19,-376.95L736.46,-367.43L711.72,-335.08L692.69,-332.54L679.37,-359.82L678.10,-369.33ZM680.00,-282.42L712.35,-257.68L714.89,-238.65L688.88,-215.81L657.80,-231.04L645.74,-248.80L652.72,-269.10ZM-668.45,63.94L-657.67,72.19L-616.43,18.27L-606.92,17.00L-650.06,129.28L-639.27,137.53L-620.24,134.99L-592.33,53.79L-567.59,21.44L-549.82,9.39L-539.04,17.63L-575.20,109.62L-573.93,119.13L-563.15,127.38L-544.11,124.84L-526.35,112.79L-485.12,58.87L-495.90,50.62L-537.14,104.54L-546.65,105.81L-509.22,23.34L-513.03,-5.21L-542.84,-10.92L-570.12,2.41L-594.86,34.76L-587.89,14.46L-589.15,4.94L-599.94,-3.30L-627.22,10.02ZM-355.70,12.56L-358.24,-6.47L-370.29,-24.24L-409.62,-28.68L-453.40,6.21L-474.33,67.11L-459.74,103.91L-439.44,110.89L-420.41,108.35L-402.65,96.30L-369.66,53.16L-380.44,44.91L-413.43,88.05L-432.46,90.59L-445.78,63.31L-431.83,22.71L-407.09,-9.65L-388.05,-12.18L-384.25,16.36L-402.01,28.42L-430.56,32.22L-429.29,41.74L-381.71,35.40ZM-354.43,22.07L-343.65,30.32L-302.41,-23.60L-292.90,-24.87L-336.03,87.42L-325.25,95.66L-306.22,93.13L-278.31,11.92L-252.30,-10.91L-223.75,-14.72L-218.04,-44.54L-238.34,-51.51L-256.10,-39.46L-279.57,2.41L-289.09,3.68L-273.86,-27.41L-275.13,-36.92L-285.92,-45.17L-313.20,-31.85ZM-104.48,8.12L-108.29,-20.43L-96.87,-80.06L-54.37,-124.47L-35.33,-127.00L-13.77,-110.51L-9.96,-81.96L9.07,-84.50L25.57,-106.07L13.51,-123.83L-36.60,-136.52L-65.15,-132.71L-100.68,-108.61L-125.42,-76.25L-140.64,-45.17L-143.82,3.68L-118.44,48.72L-77.84,62.68L-39.78,57.60L-22.01,45.55L-5.52,23.98L9.71,-7.11L26.20,-28.67L-30.89,-21.06L-18.84,-3.30L-24.55,26.52L-32.80,37.30L-50.56,49.35L-60.08,50.62L-91.16,35.40ZM83.93,41.11L102.96,38.57L146.73,3.68L167.67,-57.22L143.56,-92.75L104.23,-97.19L60.46,-62.30L39.52,-1.40L63.63,34.13ZM106.77,-78.16L125.80,-80.69L139.12,-53.41L125.16,-12.81L100.42,19.54L81.39,22.08L68.07,-5.20L82.03,-45.80ZM324.36,-116.85L313.58,-125.10L298.35,-94.01L286.30,-111.78L246.97,-116.22L204.46,-71.81L191.77,-21.69L206.37,15.10L226.67,22.08L245.70,19.54L270.44,-12.81L272.98,6.22L283.76,14.47L311.04,1.14L352.27,-52.78L341.49,-61.03L300.25,-7.10L290.74,-5.83ZM243.16,0.51L233.64,1.78L220.32,-25.50L234.28,-66.10L259.02,-98.45L278.05,-100.99L290.11,-83.23L291.37,-73.71L267.90,-31.84ZM385.90,-18.52L447.43,-210.74L380.82,-201.86L382.09,-192.34L410.64,-196.15L357.35,-14.72L358.62,-5.20L378.92,1.78L406.20,-11.54L447.43,-65.47L436.65,-73.71L395.41,-19.79ZM472.81,-20.42L469.00,-48.97L458.22,-57.22L440.45,-45.17L444.26,-16.62L464.56,-9.64L483.59,-12.18L510.87,-25.50L527.37,-47.07L524.83,-66.10L508.97,-112.41L506.43,-131.44L524.19,-143.49L528.00,-114.95L538.78,-106.70L556.55,-118.75L552.74,-147.30L522.93,-153.01L486.13,-138.42L479.15,-118.12L481.69,-99.09L496.28,-62.29L498.82,-43.26L482.32,-21.69Z" fill="#ffffff" stroke="#000000"/>
    <path d="M-897.30,-95.57L-902.00,-123.68L-892.66,-183.04L-852.08,-228.35L-833.34,-231.48L-811.47,-215.88L-806.76,-187.77L-788.02,-190.90L-772.42,-212.77L-784.92,-229.95L-834.91,-240.85L-863.01,-236.15L-897.36,-211.15L-920.77,-178.33L-934.81,-147.09L-936.35,-98.68L-909.77,-54.96L-869.16,-42.49L-831.68,-48.75L-806.70,-72.19L-783.29,-105.00L-794.23,-112.81L-817.64,-80.00L-842.62,-56.56L-861.36,-53.42L-881.66,-59.66ZM-741.11,-83.16L-686.55,-275.29L-752.14,-264.32L-750.58,-254.95L-722.47,-259.65L-769.22,-78.46L-767.66,-69.09L-747.35,-62.85L-720.81,-76.93L-681.79,-131.61L-692.73,-139.41L-731.74,-84.73ZM-594.39,-242.54L-585.02,-244.11L-578.78,-264.42L-580.35,-273.79L-600.66,-280.02L-610.03,-278.45L-616.26,-258.15L-614.70,-248.78ZM-684.93,-150.35L-673.99,-142.55L-634.97,-197.23L-625.60,-198.80L-666.15,-95.70L-664.59,-86.33L-653.65,-78.52L-634.91,-81.66L-617.74,-94.16L-578.72,-148.84L-589.66,-156.65L-628.67,-101.96L-638.04,-100.40L-597.49,-203.50L-599.06,-212.87L-619.37,-219.10L-645.91,-205.03ZM-433.50,-202.02L-417.90,-223.89L-400.73,-236.40L-389.79,-228.59L-422.54,-136.43L-420.97,-127.06L-410.03,-119.26L-391.29,-122.39L-374.12,-134.90L-335.10,-189.58L-346.04,-197.38L-385.06,-142.70L-394.43,-141.13L-360.11,-223.93L-364.81,-252.04L-394.49,-256.70L-421.03,-242.63L-436.64,-220.76L-439.77,-239.50L-460.08,-245.74L-486.62,-231.67L-510.03,-198.86L-503.79,-219.16L-505.36,-228.53L-516.30,-236.34L-542.84,-222.27L-581.86,-167.58L-570.92,-159.78L-531.90,-214.46L-522.53,-216.03L-561.52,-103.56L-550.58,-95.76L-531.84,-98.89L-506.90,-180.12L-483.49,-212.93L-466.31,-225.43L-455.38,-217.63L-486.56,-116.09L-475.62,-108.29L-456.88,-111.42ZM-196.15,-280.24L-207.09,-288.04L-221.13,-256.80L-233.63,-273.97L-272.68,-277.07L-313.26,-231.76L-324.17,-181.78L-308.53,-145.86L-288.22,-139.63L-269.48,-142.76L-246.08,-175.57L-242.94,-156.83L-232.01,-149.03L-205.46,-163.10L-166.45,-217.78L-177.38,-225.58L-216.40,-170.90L-225.77,-169.33ZM-272.62,-161.50L-281.99,-159.93L-296.06,-186.48L-283.59,-227.09L-260.18,-259.90L-241.44,-263.03L-228.93,-245.86L-227.37,-236.49L-249.21,-194.31ZM-132.07,-185.00L-100.89,-286.53L-72.78,-291.24L-74.35,-300.61L-102.45,-295.90L-89.98,-336.52L-108.72,-333.38L-113.39,-303.71L-130.56,-291.20L-149.30,-288.07L-147.74,-278.70L-129.00,-281.83L-160.18,-180.30L-158.61,-170.93L-147.68,-163.13L-128.94,-166.26L-111.76,-178.77L-72.75,-233.45L-83.68,-241.25L-122.70,-186.57ZM63.10,-285.06L59.97,-303.80L47.46,-320.97L8.42,-324.08L-33.73,-288.13L-52.44,-227.21L-36.80,-191.30L-16.50,-185.06L2.24,-188.20L19.42,-200.70L50.63,-244.45L39.69,-252.25L8.48,-208.50L-10.26,-205.37L-24.33,-231.91L-11.86,-272.53L11.55,-305.34L30.29,-308.47L34.99,-280.36L17.82,-267.86L-10.29,-263.16L-8.72,-253.79L38.12,-261.62ZM92.72,-395.96L114.59,-380.36L92.81,-222.60L67.83,-199.16L180.27,-217.97L214.62,-242.97L238.03,-275.78L252.07,-307.03L253.60,-355.44L227.03,-399.16L177.04,-410.06ZM219.26,-330.44L209.92,-271.08L186.51,-238.27L169.33,-225.77L131.85,-219.50L120.92,-227.30L142.70,-385.06L150.50,-395.99L178.61,-400.69L198.92,-394.46L214.56,-358.55ZM391.05,-339.90L387.91,-358.64L375.41,-375.81L336.36,-378.91L294.21,-342.97L275.51,-282.05L291.14,-246.14L311.45,-239.90L330.19,-243.03L347.36,-255.54L378.57,-299.28L367.64,-307.09L336.43,-263.34L317.69,-260.21L303.62,-286.75L316.09,-327.36L339.50,-360.17L358.24,-363.31L362.94,-335.20L345.76,-322.69L317.66,-317.99L319.22,-308.62L366.07,-316.46ZM422.32,-268.07L417.62,-296.18L406.68,-303.98L389.51,-291.48L394.21,-263.37L414.52,-257.14L433.26,-260.27L459.80,-274.34L475.41,-296.21L472.27,-314.95L455.07,-360.23L451.94,-378.97L469.11,-391.48L473.81,-363.37L484.75,-355.57L501.92,-368.07L497.22,-396.18L467.54,-400.85L431.63,-385.21L425.39,-364.90L428.53,-346.16L444.16,-310.25L447.30,-291.51L431.69,-269.64ZM595.59,-441.52L604.96,-443.09L611.19,-463.40L609.63,-472.77L589.32,-479.00L579.95,-477.44L573.71,-457.13L575.28,-447.76ZM505.05,-349.33L515.99,-341.53L555.01,-396.21L564.38,-397.78L523.82,-294.68L525.39,-285.31L536.33,-277.50L555.07,-280.64L572.24,-293.14L611.26,-347.82L600.32,-355.63L561.30,-300.94L551.93,-299.38L592.49,-402.48L590.92,-411.85L570.61,-418.08L544.07,-404.01ZM634.70,-322.85L636.26,-313.48L647.20,-305.67L603.48,-279.10L597.25,-258.79L611.32,-232.25L651.93,-219.78L670.67,-222.91L706.58,-238.55L720.62,-269.79L717.49,-288.53L664.37,-318.18L662.81,-327.55L690.92,-332.25L733.06,-368.19L737.73,-397.87L723.66,-424.41L751.77,-429.11L750.21,-438.48L712.73,-432.21L673.68,-435.32L631.53,-399.37L626.86,-369.70L651.87,-335.35ZM676.81,-416.58L695.55,-419.71L709.62,-393.17L711.19,-383.80L687.78,-350.99L669.04,-347.85L654.97,-374.40L653.41,-383.77ZM658.14,-297.87L690.95,-274.46L694.08,-255.72L669.10,-232.28L637.86,-246.32L625.36,-263.49L631.59,-283.80ZM-664.18,88.91L-653.25,96.71L-614.23,42.03L-604.86,40.46L-643.84,152.93L-632.91,160.73L-614.17,157.60L-589.22,76.37L-565.81,43.56L-548.64,31.06L-537.70,38.86L-570.45,131.03L-568.89,140.40L-557.95,148.20L-539.21,145.06L-522.04,132.56L-483.02,77.88L-493.96,70.07L-532.97,124.76L-542.34,126.33L-508.03,43.53L-512.73,15.42L-542.40,10.75L-568.95,24.82L-592.36,57.63L-586.12,37.33L-587.69,27.96L-598.62,20.15L-625.17,34.22ZM-356.54,27.83L-359.68,9.09L-372.18,-8.08L-411.23,-11.18L-453.37,24.76L-472.08,85.68L-456.45,121.59L-436.14,127.83L-417.40,124.70L-400.23,112.19L-369.01,68.45L-379.95,60.64L-411.16,104.39L-429.90,107.52L-443.97,80.98L-431.50,40.37L-408.09,7.56L-389.35,4.42L-384.65,32.53L-401.82,45.04L-429.93,49.74L-428.37,59.11L-381.52,51.27ZM-354.98,37.20L-344.04,45.01L-305.02,-9.68L-295.65,-11.24L-334.64,101.23L-323.70,109.03L-304.96,105.90L-280.02,24.67L-255.04,1.23L-226.93,-3.47L-222.26,-33.15L-242.57,-39.38L-259.74,-26.88L-281.58,15.30L-290.95,16.87L-276.91,-14.38L-278.48,-23.75L-289.42,-31.55L-315.96,-17.48ZM-108.22,15.21L-112.92,-12.90L-103.59,-72.26L-63.00,-117.57L-44.26,-120.70L-22.39,-105.10L-17.69,-76.99L1.05,-80.12L16.66,-101.99L4.15,-119.17L-45.83,-130.07L-73.94,-125.37L-108.29,-100.37L-131.69,-67.56L-145.73,-36.31L-147.27,12.10L-120.70,55.82L-80.08,68.29L-42.60,62.03L-25.43,49.52L-9.82,27.65L4.21,-3.59L19.82,-25.47L-36.40,-16.07L-23.89,1.11L-28.56,30.78L-36.37,41.72L-53.54,54.22L-62.91,55.79L-94.15,41.75ZM79.20,41.66L97.94,38.52L140.09,2.58L158.80,-58.34L133.80,-92.69L94.75,-95.79L52.60,-59.84L33.89,1.08L58.90,35.42ZM97.88,-77.05L116.62,-80.18L130.69,-53.64L118.22,-13.03L94.81,19.78L76.07,22.92L62.00,-3.63L74.47,-44.24ZM311.82,-122.45L300.89,-130.26L286.85,-99.01L274.34,-116.19L235.30,-119.29L194.72,-73.98L183.81,-23.99L199.45,11.92L219.75,18.16L238.49,15.02L261.90,-17.79L265.04,0.95L275.97,8.76L302.52,-5.31L341.53,-60.00L330.59,-67.80L291.58,-13.12L282.21,-11.55ZM235.36,-3.72L225.99,-2.15L211.92,-28.69L224.39,-69.31L247.80,-102.12L266.54,-105.25L279.05,-88.08L280.61,-78.71L258.77,-36.53ZM375.91,-27.22L430.47,-219.35L364.88,-208.38L366.45,-199.01L394.56,-203.71L347.80,-22.52L349.37,-13.15L369.67,-6.91L396.22,-20.98L435.23,-75.67L424.29,-83.47L385.28,-28.79ZM461.80,-31.95L457.10,-60.06L446.17,-67.86L428.99,-55.36L433.69,-27.25L454.00,-21.01L472.74,-24.15L499.28,-38.22L514.89,-60.09L511.76,-78.83L494.55,-124.11L491.42,-142.85L508.59,-155.36L513.29,-127.25L524.23,-119.44L541.40,-131.95L536.70,-160.06L507.03,-164.73L471.11,-149.09L464.88,-128.78L468.01,-110.04L483.65,-74.13L486.78,-55.39L471.17,-33.52Z" fill="#ffffff" stroke="#000000"/>
    <path d="M-895.47,-61.22L-901.04,-88.87L-893.75,-147.87L-855.10,-194.01L-836.67,-197.72L-814.53,-183.01L-808.96,-155.36L-790.53,-159.08L-775.82,-181.22L-788.74,-197.79L-838.53,-206.94L-866.18,-201.37L-899.32,-175.51L-921.40,-142.30L-934.26,-110.94L-934.19,-63.01L-906.48,-20.65L-865.90,-9.65L-829.04,-17.07L-805.11,-41.07L-783.04,-74.29L-794.11,-81.64L-816.18,-48.43L-840.11,-24.43L-858.54,-20.72L-878.83,-26.22ZM-740.61,-54.07L-692.95,-245.86L-757.45,-232.86L-755.60,-223.65L-727.95,-229.22L-768.25,-48.50L-766.40,-39.28L-746.11,-33.78L-720.32,-48.57L-683.53,-103.92L-694.60,-111.28L-731.39,-55.92ZM-600.73,-216.49L-591.52,-218.35L-586.02,-238.64L-587.87,-247.85L-608.16,-253.35L-617.37,-251.50L-622.88,-231.21L-621.02,-222.00ZM-687.24,-122.35L-676.17,-114.99L-639.38,-170.35L-630.17,-172.21L-666.89,-68.92L-665.03,-59.71L-653.96,-52.35L-635.53,-56.06L-618.96,-68.99L-582.17,-124.35L-593.24,-131.70L-630.03,-76.35L-639.25,-74.49L-602.52,-177.78L-604.38,-186.99L-624.66,-192.49L-650.45,-177.71ZM-440.30,-181.70L-425.58,-203.84L-409.01,-216.77L-397.94,-209.41L-427.30,-117.19L-425.45,-107.98L-414.38,-100.62L-395.95,-104.33L-379.37,-117.26L-342.58,-172.62L-353.65,-179.98L-390.44,-124.62L-399.66,-122.76L-368.44,-205.76L-374.01,-233.41L-403.51,-237.05L-429.30,-222.27L-444.01,-200.13L-447.73,-218.55L-468.01,-224.06L-493.80,-209.27L-515.88,-176.06L-510.37,-196.34L-512.23,-205.56L-523.30,-212.92L-549.09,-198.13L-585.88,-142.78L-574.81,-135.42L-538.02,-190.77L-528.80,-192.63L-563.67,-80.13L-552.60,-72.77L-534.17,-76.48L-512.16,-157.63L-490.09,-190.84L-473.51,-203.77L-462.44,-196.41L-489.95,-94.98L-478.88,-87.62L-460.45,-91.34ZM-208.14,-266.83L-219.21,-274.18L-232.07,-242.83L-245.00,-259.40L-283.72,-261.19L-322.36,-215.05L-331.51,-165.26L-314.87,-130.26L-294.58,-124.75L-276.15,-128.47L-254.08,-161.68L-250.37,-143.25L-239.29,-135.89L-213.51,-150.68L-176.72,-206.04L-187.79,-213.39L-224.58,-158.04L-233.79,-156.18ZM-279.87,-146.90L-289.08,-145.04L-303.87,-170.83L-292.86,-211.40L-270.79,-244.62L-252.36,-248.33L-239.43,-231.76L-237.57,-222.54L-257.79,-180.11ZM-141.64,-174.75L-114.14,-276.18L-86.49,-281.75L-88.35,-290.96L-115.99,-285.39L-104.99,-325.96L-123.42,-322.25L-127.06,-292.75L-143.64,-279.82L-162.07,-276.11L-160.21,-266.89L-141.78,-270.61L-169.29,-169.18L-167.43,-159.96L-156.36,-152.60L-137.93,-156.32L-121.36,-169.24L-84.57,-224.60L-95.64,-231.96L-132.43,-176.60ZM48.09,-280.10L44.37,-298.52L31.44,-315.10L-7.27,-316.89L-47.78,-279.96L-64.28,-219.10L-47.64,-184.10L-27.35,-178.60L-8.92,-182.31L7.65,-195.24L37.08,-239.52L26.01,-246.88L-3.42,-202.60L-21.85,-198.88L-36.64,-224.67L-25.63,-265.24L-3.56,-298.46L14.87,-302.17L20.44,-274.53L3.87,-261.60L-23.78,-256.03L-21.92,-246.81L24.15,-256.10ZM73.74,-390.74L95.88,-376.02L79.51,-219.30L55.58,-195.30L166.16,-217.58L199.30,-243.44L221.38,-276.65L234.24,-308.01L234.17,-355.94L206.46,-398.30L156.67,-407.45ZM201.02,-330.09L193.73,-271.08L171.66,-237.87L155.09,-224.94L118.23,-217.52L107.16,-224.87L123.52,-381.59L130.88,-392.67L158.53,-398.24L178.81,-392.73L195.45,-357.73ZM370.60,-345.08L366.89,-363.51L353.96,-380.08L315.25,-381.87L274.74,-344.94L258.24,-284.08L274.88,-249.08L295.17,-243.58L313.60,-247.29L330.17,-260.22L359.60,-304.50L348.53,-311.86L319.10,-267.58L300.67,-263.86L285.88,-289.65L296.89,-330.22L318.96,-363.44L337.39,-367.15L342.96,-339.51L326.39,-326.58L298.74,-321.01L300.60,-311.79L346.67,-321.08ZM403.89,-275.07L398.32,-302.71L387.25,-310.07L370.67,-297.15L376.24,-269.50L396.53,-264.00L414.96,-267.71L440.75,-282.50L455.46,-304.64L451.75,-323.07L433.25,-367.29L429.54,-385.72L446.11,-398.64L451.68,-371.00L462.75,-363.64L479.33,-376.57L473.76,-404.21L444.26,-407.86L409.25,-391.22L403.75,-370.93L407.46,-352.50L424.11,-317.50L427.82,-299.07L413.10,-276.93ZM569.55,-452.28L578.76,-454.14L584.27,-474.42L582.41,-483.64L562.12,-489.14L552.91,-487.28L547.41,-467.00L549.26,-457.78ZM483.04,-358.14L494.11,-350.78L530.90,-406.14L540.12,-408.00L503.39,-304.71L505.25,-295.49L516.32,-288.13L534.75,-291.85L551.32,-304.78L588.12,-360.13L577.04,-367.49L540.25,-312.13L531.04,-310.28L567.76,-413.57L565.90,-422.78L545.62,-428.28L519.83,-413.50ZM612.11,-336.20L613.97,-326.99L625.04,-319.63L582.68,-291.92L577.18,-271.63L591.97,-245.84L632.54,-234.84L650.97,-238.55L685.97,-255.19L698.83,-286.55L695.12,-304.98L641.62,-332.56L639.76,-341.77L667.40,-347.34L707.91,-384.27L711.55,-413.77L696.77,-439.56L724.41,-445.13L722.56,-454.34L685.70,-446.92L646.98,-448.70L606.48,-411.78L602.83,-382.28L628.69,-349.13ZM650.69,-430.27L669.12,-433.99L683.91,-408.20L685.77,-398.99L663.69,-365.77L645.26,-362.06L630.48,-387.85L628.62,-397.06ZM636.11,-312.27L669.33,-290.20L673.04,-271.77L649.11,-247.77L617.75,-260.63L604.82,-277.20L610.33,-297.49ZM-658.89,113.57L-647.82,120.93L-611.02,65.58L-601.81,63.72L-636.68,176.22L-625.61,183.58L-607.18,179.87L-585.17,98.72L-563.09,65.51L-546.52,52.58L-535.45,59.94L-564.81,152.15L-562.96,161.37L-551.89,168.73L-533.46,165.01L-516.88,152.09L-480.09,96.73L-491.16,89.37L-527.96,144.73L-537.17,146.58L-505.95,63.58L-511.52,35.94L-541.02,32.29L-566.81,47.08L-588.88,80.29L-583.38,60.01L-585.24,50.79L-596.31,43.43L-622.10,58.22ZM-356.65,43.09L-360.37,24.66L-373.30,8.09L-412.01,6.30L-452.52,43.23L-469.02,104.09L-452.38,139.09L-432.09,144.59L-413.66,140.88L-397.09,127.95L-367.66,83.66L-378.73,76.31L-408.16,120.59L-426.59,124.30L-441.38,98.52L-430.37,57.94L-408.30,24.73L-389.87,21.02L-384.30,48.66L-400.87,61.59L-428.52,67.16L-426.66,76.37L-380.59,67.09ZM-354.80,52.31L-343.73,59.66L-306.94,4.31L-297.72,2.45L-332.59,114.95L-321.52,122.31L-303.09,118.60L-281.08,37.45L-257.15,13.45L-229.50,7.88L-225.86,-21.62L-246.14,-27.12L-262.72,-14.19L-282.94,28.24L-292.15,30.10L-279.29,-1.26L-281.15,-10.48L-292.22,-17.84L-318.01,-3.05ZM-111.50,22.46L-117.07,-5.18L-109.78,-64.18L-71.13,-110.32L-52.70,-114.04L-30.56,-99.32L-24.99,-71.68L-6.56,-75.39L8.16,-97.53L-4.77,-114.11L-54.56,-123.25L-82.20,-117.68L-115.35,-91.83L-137.42,-58.61L-150.28,-27.25L-150.22,20.68L-122.50,63.04L-81.93,74.04L-45.07,66.61L-28.50,53.69L-13.78,31.54L-0.92,0.19L13.79,-21.96L-41.49,-10.82L-28.57,5.76L-32.21,35.26L-39.57,46.33L-56.14,59.26L-65.36,61.11L-96.71,48.25ZM74.72,42.48L93.15,38.77L133.66,1.84L150.16,-59.02L124.30,-92.17L85.59,-93.96L45.08,-57.03L28.58,3.83L54.44,36.98ZM89.30,-75.53L107.73,-79.24L122.52,-53.45L111.51,-12.88L89.44,20.34L71.01,24.05L56.22,-1.74L67.23,-42.31ZM299.39,-127.44L288.32,-134.80L275.46,-103.44L262.53,-120.02L223.81,-121.80L185.16,-75.66L176.02,-25.87L192.66,9.13L212.94,14.63L231.37,10.92L253.45,-22.30L257.16,-3.87L268.23,3.49L294.02,-11.29L330.81,-66.65L319.74,-74.01L282.95,-18.65L273.73,-16.80ZM227.66,-7.51L218.45,-5.66L203.66,-31.44L214.66,-72.02L236.74,-105.23L255.17,-108.94L268.10,-92.37L269.95,-83.16L249.74,-40.73ZM365.88,-35.36L413.54,-227.15L349.04,-214.16L350.89,-204.94L378.54,-210.51L338.24,-29.79L340.10,-20.58L360.38,-15.08L386.17,-29.86L422.96,-85.22L411.89,-92.58L375.10,-37.22ZM450.67,-42.86L445.10,-70.50L434.03,-77.86L417.46,-64.93L423.03,-37.29L443.32,-31.79L461.74,-35.50L487.53,-50.28L502.25,-72.43L498.54,-90.86L480.04,-135.07L476.32,-153.50L492.90,-166.43L498.47,-138.79L509.54,-131.43L526.11,-144.36L520.54,-172.00L491.04,-175.65L456.04,-159.00L450.54,-138.72L454.25,-120.29L470.89,-85.29L474.60,-66.86L459.89,-44.71Z" fill="#ffffff" stroke="#000000"/>
    <path d="M-892.26,-27.19L-898.67,-54.34L-893.39,-112.92L-856.69,-159.81L-838.59,-164.09L-816.21,-150.26L-809.80,-123.11L-791.70,-127.39L-777.87,-149.76L-791.20,-165.73L-840.73,-173.14L-867.88,-166.73L-899.81,-140.07L-920.55,-106.51L-932.24,-75.08L-930.60,-27.69L-901.81,13.29L-861.33,22.84L-825.12,14.29L-802.25,-10.22L-781.51,-43.79L-792.69,-50.70L-813.43,-17.14L-836.31,7.38L-854.41,11.65L-874.65,6.88ZM-738.89,-25.19L-698.05,-216.40L-761.41,-201.43L-759.27,-192.38L-732.12,-198.80L-766.04,-18.78L-763.90,-9.73L-743.66,-4.95L-718.65,-20.41L-684.08,-76.36L-695.27,-83.27L-729.84,-27.33ZM-605.90,-190.38L-596.85,-192.52L-592.08,-212.76L-594.21,-221.81L-614.45,-226.59L-623.50,-224.45L-628.28,-204.21L-626.14,-195.16ZM-688.36,-94.46L-677.17,-87.55L-642.61,-143.49L-633.55,-145.63L-666.48,-42.29L-664.34,-33.24L-653.15,-26.33L-635.05,-30.60L-619.09,-43.93L-584.52,-99.88L-595.71,-106.79L-630.28,-50.84L-639.33,-48.71L-606.40,-152.04L-608.54,-161.09L-628.78,-165.87L-653.79,-150.40ZM-446.12,-161.23L-432.30,-183.61L-416.33,-196.94L-405.14,-190.03L-431.16,-97.88L-429.02,-88.83L-417.83,-81.91L-399.73,-86.19L-383.76,-99.52L-349.20,-155.46L-360.39,-162.37L-394.95,-106.43L-404.00,-104.29L-375.85,-187.39L-382.27,-214.54L-411.56,-217.18L-436.57,-201.71L-450.40,-179.34L-454.67,-197.44L-474.91,-202.21L-499.93,-186.75L-520.67,-153.18L-515.89,-173.42L-518.03,-182.47L-529.22,-189.39L-554.23,-173.92L-588.80,-117.98L-577.61,-111.06L-543.04,-167.01L-533.99,-169.15L-564.78,-56.76L-553.59,-49.85L-535.49,-54.12L-516.39,-135.08L-495.65,-168.65L-479.69,-181.97L-468.50,-175.06L-492.38,-73.86L-481.19,-66.95L-463.08,-71.22ZM-219.35,-253.02L-230.54,-259.94L-242.23,-228.51L-255.55,-244.47L-293.89,-244.97L-330.60,-198.08L-338.01,-148.55L-320.41,-114.48L-300.17,-109.71L-282.07,-113.98L-261.33,-147.55L-257.05,-129.45L-245.86,-122.53L-220.85,-138.00L-186.28,-193.94L-197.47,-200.85L-232.04,-144.91L-241.09,-142.77ZM-286.34,-132.08L-295.39,-129.95L-310.86,-154.96L-301.31,-195.44L-280.57,-229.01L-262.47,-233.28L-249.14,-217.32L-247.00,-208.27L-265.60,-165.65ZM-150.58,-164.15L-126.70,-265.35L-99.55,-271.76L-101.69,-280.81L-128.84,-274.40L-119.29,-314.88L-137.39,-310.60L-140.03,-281.31L-155.99,-267.99L-174.09,-263.71L-171.96,-254.66L-153.85,-258.94L-177.73,-157.74L-175.59,-148.69L-164.40,-141.77L-146.30,-146.05L-130.34,-159.38L-95.77,-215.32L-106.96,-222.23L-141.53,-166.29ZM33.58,-274.54L29.30,-292.64L15.98,-308.61L-22.37,-309.11L-61.21,-271.26L-75.53,-210.55L-57.93,-176.48L-37.69,-171.70L-19.59,-175.98L-3.62,-189.31L24.03,-234.06L12.84,-240.97L-14.81,-196.22L-32.92,-191.94L-48.38,-216.96L-38.83,-257.44L-18.09,-291.00L0.01,-295.28L6.43,-268.13L-9.54,-254.80L-36.69,-248.39L-34.55,-239.34L10.70,-250.03ZM55.32,-384.79L77.69,-370.96L66.64,-215.46L43.77,-190.94L152.38,-216.60L184.31,-243.25L205.05,-276.82L216.73,-308.25L215.10,-355.64L186.30,-396.62L136.77,-404.03ZM183.17,-328.99L177.89,-270.41L157.15,-236.84L141.19,-223.51L104.99,-214.96L93.80,-221.87L104.85,-377.38L111.76,-388.57L138.91,-394.98L159.15,-390.21L176.75,-356.14ZM350.36,-349.37L346.09,-367.47L332.76,-383.43L294.42,-383.93L255.58,-346.09L241.25,-285.37L258.85,-251.30L279.09,-246.53L297.19,-250.81L313.16,-264.13L340.81,-308.89L329.62,-315.80L301.97,-271.05L283.87,-266.77L268.40,-291.78L277.95,-332.26L298.69,-365.83L316.79,-370.11L323.21,-342.95L307.24,-329.63L280.09,-323.21L282.23,-314.16L327.48,-324.85ZM385.57,-281.24L379.15,-308.39L367.96,-315.30L352.00,-301.97L358.41,-274.82L378.65,-270.05L396.75,-274.32L421.77,-289.79L435.60,-312.16L431.32,-330.27L411.58,-373.38L407.30,-391.48L423.27,-404.81L429.68,-377.66L440.87,-370.75L456.83,-384.07L450.42,-411.23L421.13,-413.86L387.06,-396.26L382.29,-376.02L386.56,-357.92L404.17,-323.85L408.44,-305.75L394.62,-283.37ZM543.57,-461.89L552.62,-464.03L557.39,-484.27L555.26,-493.32L535.02,-498.10L525.96,-495.96L521.19,-475.72L523.33,-466.67ZM461.11,-365.97L472.30,-359.06L506.86,-415.00L515.92,-417.14L482.99,-313.80L485.13,-304.75L496.31,-297.84L514.42,-302.11L530.38,-315.44L564.95,-371.39L553.76,-378.30L519.19,-322.35L510.14,-320.22L543.07,-423.55L540.93,-432.60L520.69,-437.38L495.68,-421.91ZM589.46,-348.51L591.60,-339.46L602.79,-332.54L561.81,-303.75L557.03,-283.51L572.50,-258.50L612.98,-248.95L631.08,-253.22L665.15,-270.83L676.83,-302.25L672.56,-320.36L618.75,-345.87L616.61,-354.92L643.77,-361.34L682.61,-399.18L685.25,-428.47L669.78,-453.48L696.93,-459.90L694.80,-468.95L658.59,-460.40L620.25,-460.90L581.41,-423.05L578.77,-393.76L605.43,-361.83ZM624.53,-442.79L642.63,-447.07L658.09,-422.05L660.23,-413.00L639.49,-379.44L621.39,-375.16L605.93,-400.18L603.79,-409.23ZM613.98,-325.63L647.54,-304.89L651.82,-286.79L628.94,-262.27L597.51,-273.96L584.19,-289.93L588.96,-310.17ZM-652.59,137.90L-641.40,144.81L-606.83,88.87L-597.78,86.73L-628.57,199.12L-617.38,206.03L-599.28,201.75L-580.18,120.80L-559.44,87.23L-543.48,73.90L-532.29,80.82L-558.30,172.96L-556.16,182.01L-544.97,188.93L-526.87,184.65L-510.91,171.33L-476.34,115.38L-487.53,108.47L-522.10,164.41L-531.15,166.55L-503.00,83.45L-509.41,56.30L-538.70,53.66L-563.72,69.13L-584.45,102.69L-579.68,82.45L-581.82,73.40L-593.01,66.49L-618.02,81.95ZM-356.04,58.30L-360.32,40.20L-373.65,24.23L-411.99,23.73L-450.83,61.58L-465.15,122.29L-447.55,156.36L-427.31,161.14L-409.21,156.86L-393.25,143.53L-365.59,98.78L-376.78,91.86L-404.44,136.62L-422.54,140.90L-438.00,115.88L-428.45,75.40L-407.71,41.83L-389.61,37.56L-383.20,64.71L-399.16,78.04L-426.31,84.45L-424.18,93.50L-378.92,82.81ZM-353.91,67.35L-342.72,74.26L-308.15,18.32L-299.10,16.18L-329.89,128.57L-318.70,135.48L-300.60,131.21L-281.50,50.25L-258.62,25.73L-231.47,19.32L-228.83,-9.97L-249.07,-14.75L-265.03,-1.42L-283.64,41.20L-292.69,43.33L-281.00,11.90L-283.14,2.85L-294.33,-4.06L-319.34,11.41ZM-114.31,29.87L-120.72,2.71L-115.44,-55.87L-78.74,-102.76L-60.64,-107.04L-38.26,-93.21L-31.85,-66.06L-13.75,-70.33L0.08,-92.71L-13.25,-108.68L-62.78,-116.09L-89.93,-109.67L-121.86,-83.02L-142.60,-49.45L-154.29,-18.03L-152.65,29.37L-123.86,70.35L-83.38,79.90L-47.17,71.34L-31.21,58.02L-17.38,35.64L-5.69,4.21L8.13,-18.17L-46.17,-5.34L-32.85,10.63L-35.48,39.92L-42.40,51.10L-58.36,64.43L-67.41,66.57L-98.84,54.88ZM70.49,43.55L88.59,39.28L127.43,1.43L141.76,-59.28L115.10,-91.21L76.76,-91.71L37.92,-53.87L23.60,6.85L50.25,38.78ZM81.04,-73.61L99.14,-77.89L114.61,-52.87L105.05,-12.39L84.32,21.17L66.21,25.45L50.75,0.44L60.30,-40.04ZM287.07,-131.83L275.88,-138.75L264.20,-107.32L250.87,-123.28L212.53,-123.78L175.82,-76.89L168.41,-27.36L186.01,6.71L206.25,11.48L224.36,7.21L245.09,-26.36L249.37,-8.26L260.56,-1.34L285.57,-16.81L320.14,-72.75L308.95,-79.66L274.39,-23.72L265.33,-21.58ZM220.08,-10.89L211.03,-8.76L195.56,-33.77L205.11,-74.25L225.85,-107.82L243.96,-112.09L257.28,-96.13L259.42,-87.08L240.82,-44.46ZM355.84,-42.96L396.68,-234.17L333.33,-219.21L335.46,-210.15L362.62,-216.57L328.69,-36.55L330.83,-27.50L351.07,-22.72L376.08,-38.19L410.65,-94.13L399.46,-101.04L364.89,-45.10ZM439.44,-53.15L433.03,-80.30L421.84,-87.22L405.87,-73.89L412.29,-46.74L432.53,-41.96L450.63,-46.24L475.64,-61.70L489.47,-84.08L485.19,-102.18L465.45,-145.30L461.18,-163.40L477.14,-176.73L483.56,-149.58L494.74,-142.66L510.71,-155.99L504.30,-183.14L475.00,-185.78L440.94,-168.18L436.16,-147.94L440.44,-129.83L458.04,-95.77L462.32,-77.67L448.49,-55.29Z" fill="#ffffff" stroke="#000000"/>
    <path d="M-887.67,6.47L-894.90,-20.16L-891.61,-78.26L-856.86,-125.82L-839.10,-130.64L-816.52,-117.71L-809.29,-91.07L-791.53,-95.89L-778.60,-118.47L-792.29,-133.82L-841.51,-139.52L-868.14,-132.29L-898.84,-104.89L-918.24,-71.03L-928.77,-39.57L-925.60,7.23L-895.79,46.81L-855.45,54.92L-819.94,45.28L-798.12,20.29L-778.72,-13.57L-790.01,-20.04L-809.41,13.83L-831.23,38.81L-848.98,43.63L-869.15,39.58ZM-735.97,3.42L-701.86,-186.97L-764.01,-170.09L-761.60,-161.22L-734.97,-168.45L-762.61,10.65L-760.20,19.53L-740.03,23.59L-715.80,7.48L-683.46,-48.97L-694.75,-55.43L-727.09,1.01ZM-609.90,-164.27L-601.02,-166.68L-596.96,-186.84L-599.38,-195.72L-619.54,-199.78L-628.42,-197.37L-632.48,-177.20L-630.07,-168.32ZM-688.28,-66.72L-676.99,-60.26L-644.65,-116.70L-635.77,-119.11L-664.94,-15.86L-662.53,-6.98L-651.24,-0.52L-633.49,-5.34L-618.14,-19.04L-585.80,-75.48L-597.09,-81.95L-629.43,-25.50L-638.31,-23.09L-609.14,-126.34L-611.55,-135.22L-631.72,-139.28L-655.94,-123.17ZM-450.97,-140.68L-438.03,-163.26L-422.69,-176.96L-411.40,-170.49L-434.10,-78.53L-431.69,-69.65L-420.40,-63.18L-402.64,-68.01L-387.29,-81.70L-354.95,-138.15L-366.24,-144.62L-398.58,-88.17L-407.46,-85.76L-382.35,-168.84L-389.58,-195.48L-418.63,-197.13L-442.85,-181.02L-455.79,-158.44L-460.61,-176.20L-480.78,-180.25L-505.01,-164.14L-524.41,-130.28L-520.35,-150.45L-522.76,-159.32L-534.05,-165.79L-558.28,-149.68L-590.62,-93.24L-579.33,-86.77L-546.99,-143.21L-538.11,-145.62L-564.87,-33.50L-553.58,-27.03L-535.82,-31.85L-519.59,-112.52L-500.18,-146.39L-484.84,-160.09L-473.55,-153.62L-493.84,-52.78L-482.55,-46.31L-464.79,-51.13ZM-229.77,-238.87L-241.06,-245.33L-251.58,-213.88L-265.28,-229.22L-303.21,-228.46L-337.96,-180.90L-343.66,-131.68L-325.14,-98.58L-304.98,-94.52L-287.22,-99.34L-267.81,-133.21L-262.99,-115.45L-251.70,-108.98L-227.48,-125.09L-195.14,-181.54L-206.43,-188.00L-238.77,-131.56L-247.65,-129.15ZM-292.04,-117.10L-300.92,-114.69L-317.03,-138.91L-308.91,-179.25L-289.51,-213.11L-271.75,-217.94L-258.05,-202.59L-255.64,-193.71L-272.64,-150.96ZM-158.86,-153.25L-138.57,-254.09L-111.94,-261.32L-114.35,-270.20L-140.98,-262.97L-132.87,-303.30L-150.62,-298.48L-152.27,-269.44L-167.62,-255.74L-185.37,-250.92L-182.96,-242.04L-165.21,-246.86L-185.50,-146.02L-183.09,-137.14L-171.80,-130.67L-154.04,-135.50L-138.69,-149.19L-106.35,-205.64L-117.64,-212.11L-149.98,-155.66ZM19.60,-268.43L14.78,-286.19L1.08,-301.54L-36.85,-300.77L-74.01,-262.08L-86.18,-201.58L-67.66,-168.48L-47.50,-164.42L-29.74,-169.24L-14.39,-182.94L11.48,-228.10L0.19,-234.56L-25.68,-189.41L-43.44,-184.59L-59.55,-208.81L-51.43,-249.15L-32.03,-283.01L-14.27,-287.84L-7.04,-261.20L-22.39,-247.50L-49.02,-240.27L-46.61,-231.39L-2.22,-243.44ZM37.48,-378.15L60.05,-365.21L54.23,-211.10L32.41,-186.11L138.96,-215.04L169.65,-242.44L189.05,-276.30L199.58,-307.76L196.41,-354.56L166.60,-394.14L117.38,-399.84ZM165.71,-327.16L162.42,-269.07L143.01,-235.20L127.67,-221.51L92.15,-211.86L80.86,-218.33L86.69,-372.44L93.16,-383.73L119.79,-390.96L139.96,-386.90L158.48,-353.80ZM330.35,-352.79L325.53,-370.55L311.83,-385.90L273.90,-385.13L236.74,-346.45L224.57,-285.94L243.09,-252.84L263.26,-248.78L281.01,-253.60L296.36,-267.30L322.23,-312.46L310.94,-318.93L285.07,-273.77L267.31,-268.95L251.20,-293.18L259.32,-333.51L278.72,-367.38L296.48,-372.20L303.71,-345.56L288.37,-331.86L261.73,-324.63L264.14,-315.75L308.53,-327.81ZM367.39,-286.59L360.16,-313.22L348.87,-319.69L333.52,-305.99L340.75,-279.35L360.92,-275.30L378.68,-280.12L402.90,-296.23L415.84,-318.80L411.02,-336.56L390.09,-378.54L385.27,-396.30L400.62,-410.00L407.85,-383.37L419.14,-376.90L434.48,-390.60L427.25,-417.23L398.21,-418.88L365.10,-400.36L361.04,-380.19L365.86,-362.43L384.38,-329.33L389.20,-311.57L376.27,-289.00ZM517.69,-470.38L526.56,-472.79L530.62,-492.96L528.21,-501.84L508.04,-505.90L499.17,-503.49L495.11,-483.32L497.52,-474.44ZM439.30,-372.84L450.59,-366.37L482.93,-422.82L491.81,-425.23L462.64,-321.98L465.05,-313.10L476.34,-306.63L494.10,-311.45L509.45,-325.15L541.79,-381.60L530.50,-388.06L498.16,-331.62L489.28,-329.21L518.45,-432.46L516.04,-441.34L495.87,-445.39L471.64,-429.28ZM566.78,-359.78L569.19,-350.90L580.48,-344.43L540.90,-314.62L536.85,-294.46L552.96,-270.23L593.29,-262.12L611.05,-266.94L644.15,-285.46L654.68,-316.91L649.86,-334.67L595.82,-358.13L593.41,-367.01L620.05,-374.24L657.21,-412.93L658.86,-441.98L642.75,-466.20L669.38,-473.43L666.97,-482.31L631.46,-472.67L593.54,-471.91L556.37,-433.22L554.73,-404.17L582.12,-373.48ZM598.36,-454.15L616.11,-458.97L632.22,-434.75L634.63,-425.87L615.23,-392.00L597.47,-387.18L581.36,-411.40L578.95,-420.28ZM591.77,-337.97L625.63,-318.56L630.45,-300.80L608.64,-275.81L577.18,-286.34L563.48,-301.69L567.54,-321.86ZM-645.30,161.84L-634.01,168.31L-601.67,111.86L-592.79,109.45L-619.55,221.58L-608.26,228.05L-590.50,223.23L-574.27,142.56L-554.87,108.69L-539.52,94.99L-528.23,101.46L-550.93,193.42L-548.52,202.30L-537.23,208.76L-519.47,203.94L-504.13,190.24L-471.79,133.80L-483.07,127.33L-515.42,183.78L-524.29,186.19L-499.18,103.11L-506.41,76.47L-535.46,74.82L-559.69,90.93L-579.09,124.80L-575.03,104.63L-577.44,95.75L-588.73,89.28L-612.96,105.39ZM-354.72,73.42L-359.54,55.66L-373.24,40.31L-411.16,41.08L-448.32,79.76L-460.50,140.27L-441.98,173.37L-421.81,177.43L-404.05,172.61L-388.70,158.91L-362.83,113.75L-374.12,107.29L-399.99,152.44L-417.75,157.26L-433.86,133.04L-425.74,92.70L-406.34,58.83L-388.58,54.01L-381.35,80.65L-396.70,94.35L-423.33,101.58L-420.92,110.46L-376.53,98.41ZM-352.30,82.30L-341.02,88.77L-308.67,32.32L-299.80,29.91L-326.55,142.04L-315.26,148.51L-297.51,143.68L-281.28,63.01L-259.46,38.03L-232.82,30.79L-231.18,1.75L-251.34,-2.31L-266.69,11.39L-283.69,54.14L-292.56,56.55L-282.04,25.09L-284.45,16.21L-295.74,9.74L-319.96,25.85ZM-116.64,37.38L-123.87,10.75L-120.58,-47.34L-85.82,-94.91L-68.07,-99.73L-45.49,-86.79L-38.26,-60.16L-20.50,-64.98L-7.56,-87.56L-21.26,-102.90L-70.48,-108.61L-97.11,-101.38L-127.81,-73.98L-147.21,-40.11L-157.74,-8.66L-154.56,38.15L-124.76,77.72L-84.42,85.84L-48.91,76.19L-33.56,62.50L-20.62,39.92L-10.10,8.46L2.84,-14.12L-50.43,0.34L-36.73,15.69L-38.38,44.74L-44.85,56.03L-60.19,69.73L-69.07,72.14L-100.53,61.61ZM66.52,44.86L84.27,40.04L121.44,1.35L133.61,-59.15L106.21,-89.85L68.29,-89.08L31.12,-50.39L18.95,10.11L46.35,40.80ZM73.11,-71.33L90.86,-76.15L106.97,-51.92L98.86,-11.59L79.45,22.28L61.70,27.10L45.59,2.88L53.70,-37.46ZM274.91,-135.64L263.62,-142.11L253.09,-110.65L239.39,-126.00L201.47,-125.24L166.71,-77.67L161.01,-28.46L179.53,4.65L199.70,8.70L217.45,3.88L236.86,-29.98L241.68,-12.23L252.97,-5.76L277.19,-21.87L309.53,-78.31L298.25,-84.78L265.90,-28.34L257.03,-25.93ZM212.63,-13.87L203.75,-11.46L187.64,-35.69L195.76,-76.02L215.16,-109.89L232.92,-114.71L246.62,-99.36L249.03,-90.49L232.04,-47.74ZM345.81,-50.03L379.92,-240.42L317.77,-223.54L320.18,-214.66L346.82,-221.90L319.18,-42.80L321.59,-33.92L341.75,-29.86L365.98,-45.97L398.32,-102.42L387.03,-108.88L354.69,-52.44ZM428.13,-62.84L420.90,-89.48L409.61,-95.95L394.26,-82.25L401.49,-55.61L421.66,-51.55L439.42,-56.38L463.64,-72.48L476.58,-95.06L471.76,-112.82L450.83,-154.80L446.01,-172.56L461.36,-186.26L468.59,-159.62L479.88,-153.16L495.22,-166.85L487.99,-193.49L458.95,-195.14L425.84,-176.62L421.78,-156.45L426.60,-138.69L445.12,-105.59L449.95,-87.83L437.01,-65.25Z" fill="#ffffff" stroke="#000000"/>
    <path d="M-881.75,39.70L-889.77,13.61L-888.41,-43.93L-855.62,-92.09L-838.22,-97.44L-815.48,-85.39L-807.45,-59.30L-790.06,-64.65L-778.01,-87.39L-792.05,-102.11L-840.89,-106.14L-866.99,-98.12L-896.43,-70.03L-914.51,-35.91L-923.88,-4.47L-919.21,41.70L-888.45,79.84L-848.31,86.54L-813.51,75.85L-792.77,50.43L-774.69,16.31L-786.06,10.29L-804.14,44.41L-824.89,69.82L-842.28,75.17L-862.35,71.82ZM-731.88,31.71L-704.39,-157.62L-765.28,-138.90L-762.61,-130.20L-736.51,-138.23L-757.97,39.73L-755.30,48.43L-735.23,51.78L-711.81,35.06L-681.68,-21.80L-693.06,-27.82L-723.18,29.04ZM-612.74,-138.19L-604.04,-140.87L-600.69,-160.94L-603.37,-169.63L-623.44,-172.98L-632.13,-170.31L-635.49,-150.24L-632.81,-141.54ZM-687.03,-39.19L-675.66,-33.17L-645.54,-90.03L-636.84,-92.70L-662.29,10.32L-659.62,19.02L-648.24,25.05L-630.85,19.70L-616.13,5.65L-586.00,-51.21L-597.37,-57.23L-627.50,-0.37L-636.20,2.30L-610.74,-100.72L-613.42,-109.42L-633.49,-112.77L-656.91,-96.05ZM-454.85,-120.08L-442.80,-142.83L-428.08,-156.87L-416.71,-150.85L-436.13,-59.20L-433.46,-50.50L-422.09,-44.47L-404.69,-49.82L-389.97,-63.87L-359.85,-120.73L-371.22,-126.75L-401.34,-69.89L-410.04,-67.22L-387.94,-150.17L-395.96,-176.27L-424.73,-176.94L-448.15,-160.23L-460.20,-137.48L-465.55,-154.88L-485.62,-158.23L-509.04,-141.51L-527.11,-107.39L-523.76,-127.46L-526.43,-136.16L-537.81,-142.19L-561.23,-125.47L-591.35,-68.60L-579.98,-62.58L-549.86,-119.44L-541.16,-122.11L-563.94,-10.39L-552.56,-4.37L-535.17,-9.71L-521.76,-90.00L-503.69,-124.11L-488.97,-138.16L-477.60,-132.13L-494.35,-31.78L-482.98,-25.76L-465.58,-31.10ZM-239.39,-224.40L-250.76,-230.42L-260.14,-198.98L-274.18,-213.70L-311.65,-211.70L-344.45,-163.54L-348.47,-114.70L-329.08,-82.58L-309.01,-79.23L-291.61,-84.58L-273.54,-118.70L-268.19,-101.30L-256.82,-95.28L-233.40,-112.00L-203.28,-168.86L-214.65,-174.88L-244.77,-118.02L-253.47,-115.35ZM-296.96,-101.98L-305.66,-99.30L-322.38,-122.72L-315.68,-162.87L-297.60,-196.98L-280.21,-202.33L-266.16,-187.61L-263.49,-178.91L-278.89,-136.09ZM-166.49,-142.08L-149.73,-242.44L-123.64,-250.46L-126.31,-259.16L-152.41,-251.13L-145.71,-291.28L-163.10,-285.93L-163.78,-257.16L-178.50,-243.11L-195.90,-237.77L-193.22,-229.07L-175.83,-234.41L-192.58,-134.06L-189.91,-125.36L-178.54,-119.34L-161.14,-124.69L-146.42,-138.73L-116.29,-195.59L-127.67,-201.62L-157.79,-144.76ZM6.16,-261.80L0.81,-279.19L-13.23,-293.92L-50.70,-291.92L-86.17,-252.45L-96.22,-192.24L-76.83,-160.12L-56.76,-156.77L-39.36,-162.12L-24.64,-176.17L-0.54,-221.65L-11.91,-227.68L-36.01,-182.19L-53.41,-176.84L-70.13,-200.26L-63.43,-240.41L-45.35,-274.52L-27.96,-279.87L-19.94,-253.77L-34.66,-239.73L-60.75,-231.71L-58.08,-223.01L-14.59,-236.38ZM20.24,-370.85L42.98,-358.80L42.27,-206.26L21.53,-180.84L125.91,-212.92L155.35,-241.01L173.42,-275.13L182.80,-306.57L178.13,-352.74L147.36,-390.88L98.52,-394.91ZM148.68,-324.65L147.33,-267.11L129.26,-232.99L114.53,-218.95L79.74,-208.25L68.37,-214.28L69.08,-366.82L75.10,-378.19L101.20,-386.21L121.27,-382.86L140.66,-350.74ZM310.60,-355.38L305.25,-372.78L291.21,-387.50L253.74,-385.50L218.27,-346.04L208.22,-285.83L227.61,-253.71L247.68,-250.36L265.08,-255.70L279.80,-269.75L303.90,-315.24L292.53,-321.26L268.43,-275.77L251.03,-270.43L234.31,-293.85L241.01,-333.99L259.09,-368.10L276.48,-373.45L284.51,-347.36L269.78,-333.31L243.69,-325.29L246.36,-316.59L289.85,-329.96ZM349.39,-291.14L341.37,-317.23L329.99,-323.26L315.27,-309.21L323.29,-283.12L343.36,-279.77L360.76,-285.12L384.18,-301.84L396.23,-324.58L390.88,-341.98L368.82,-382.79L363.47,-400.19L378.19,-414.24L386.21,-388.14L397.58,-382.12L412.31,-396.16L404.29,-422.26L375.52,-422.93L343.40,-403.54L340.05,-383.47L345.39,-366.07L364.79,-333.95L370.14,-316.56L358.09,-293.81ZM491.95,-477.76L500.64,-480.44L503.99,-500.51L501.32,-509.21L481.25,-512.56L472.55,-509.88L469.20,-489.81L471.88,-481.12ZM417.65,-378.77L429.03,-372.74L459.15,-429.60L467.85,-432.28L442.40,-329.25L445.07,-320.55L456.44,-314.53L473.84,-319.87L488.56,-333.92L518.68,-390.78L507.31,-396.81L477.19,-339.95L468.49,-337.27L493.94,-440.30L491.27,-449.00L471.20,-452.35L447.78,-435.63ZM544.10,-370.03L546.78,-361.34L558.15,-355.31L520.00,-324.55L516.65,-304.48L533.37,-281.05L573.51,-274.35L590.91,-279.70L623.03,-299.09L632.41,-330.54L627.06,-347.93L572.87,-369.36L570.20,-378.06L596.29,-386.08L631.76,-425.54L632.44,-454.31L615.72,-477.73L641.81,-485.75L639.14,-494.45L604.35,-483.76L566.88,-481.76L531.41,-442.29L530.73,-413.53L558.82,-384.08ZM572.23,-464.36L589.62,-469.71L606.34,-446.29L609.02,-437.59L590.94,-403.47L573.55,-398.13L556.83,-421.55L554.15,-430.25ZM569.52,-349.29L603.64,-331.21L608.98,-313.82L588.24,-288.40L556.79,-297.77L542.75,-312.50L546.10,-332.57ZM-637.05,185.35L-625.68,191.38L-595.55,134.52L-586.86,131.84L-609.63,243.57L-598.26,249.59L-580.87,244.24L-567.46,163.96L-549.39,129.85L-534.67,115.80L-523.29,121.82L-542.72,213.48L-540.05,222.18L-528.68,228.20L-511.28,222.85L-496.56,208.81L-466.43,151.95L-477.81,145.92L-507.93,202.78L-516.63,205.46L-494.52,122.50L-502.55,96.41L-531.32,95.73L-554.74,112.45L-572.81,146.57L-569.46,126.49L-572.13,117.80L-583.50,111.77L-606.93,128.49ZM-352.68,88.42L-358.03,71.02L-372.07,56.30L-409.54,58.30L-445.01,97.76L-455.06,157.97L-435.67,190.09L-415.60,193.44L-398.20,188.09L-383.48,174.05L-359.38,128.56L-370.75,122.53L-394.85,168.02L-412.25,173.37L-428.97,149.95L-422.26,109.81L-404.19,75.69L-386.79,70.34L-378.77,96.44L-393.50,110.49L-419.59,118.51L-416.92,127.21L-373.43,113.84ZM-350.00,97.12L-338.63,103.14L-308.51,46.28L-299.81,43.61L-322.59,155.33L-311.22,161.36L-293.82,156.01L-280.42,75.73L-259.67,50.31L-233.58,42.29L-232.90,13.52L-252.97,10.17L-267.69,24.21L-283.09,67.03L-291.79,69.70L-282.41,38.26L-285.09,29.56L-296.46,23.54L-319.88,40.26ZM-118.50,44.99L-126.52,18.90L-125.17,-38.64L-92.37,-86.80L-74.97,-92.15L-52.23,-80.10L-44.21,-54.00L-26.81,-59.35L-14.76,-82.10L-28.81,-96.82L-77.65,-100.85L-103.74,-92.82L-133.19,-64.73L-151.26,-30.62L-160.64,0.83L-155.97,46.99L-125.20,85.14L-85.06,91.84L-50.27,81.14L-35.54,67.10L-23.50,44.35L-14.12,12.91L-2.07,-9.84L-54.26,6.21L-40.22,20.93L-40.89,49.70L-46.92,61.07L-61.64,75.12L-70.34,77.79L-101.78,68.42ZM62.81,46.38L80.21,41.03L115.68,1.57L125.73,-58.64L97.64,-88.09L60.17,-86.09L24.70,-46.63L14.65,13.59L42.74,43.03ZM65.52,-68.69L82.91,-74.04L99.63,-50.62L92.93,-10.48L74.86,23.64L57.46,28.99L40.74,5.56L47.44,-34.58ZM262.91,-138.89L251.53,-144.91L242.16,-113.47L228.11,-128.19L190.65,-126.20L157.85,-78.03L153.82,-29.20L173.22,2.92L193.29,6.27L210.68,0.93L228.76,-33.19L234.10,-15.79L245.48,-9.77L268.90,-26.49L299.02,-83.35L287.65,-89.37L257.52,-32.51L248.83,-29.84ZM205.33,-16.47L196.64,-13.80L179.92,-37.22L186.62,-77.36L204.69,-111.47L222.09,-116.82L236.13,-102.10L238.81,-93.40L223.41,-50.59ZM335.81,-56.58L363.29,-245.91L302.40,-227.19L305.08,-218.49L331.17,-226.52L309.71,-48.55L312.39,-39.86L332.46,-36.51L355.88,-53.23L386.00,-110.09L374.63,-116.11L344.51,-59.25ZM416.77,-71.94L408.75,-98.04L397.37,-104.06L382.65,-90.02L390.67,-63.92L410.74,-60.57L428.14,-65.92L451.56,-82.64L463.61,-105.38L458.26,-122.78L436.20,-163.60L430.85,-180.99L445.57,-195.04L453.59,-168.94L464.96,-162.92L479.69,-176.97L471.67,-203.06L442.90,-203.74L410.78,-184.34L407.43,-164.27L412.77,-146.88L432.17,-114.76L437.52,-97.36L425.47,-74.62Z" fill="#ffffff" stroke="#000000"/>
    <path d="M-874.50,72.44L-883.29,46.91L-883.84,-10.01L-853.00,-58.69L-835.97,-64.54L-813.10,-53.38L-804.31,-27.85L-787.29,-33.70L-776.13,-56.58L-790.49,-70.67L-838.90,-73.05L-864.43,-64.27L-892.62,-35.54L-909.37,-1.22L-917.60,30.17L-911.47,75.65L-879.81,112.34L-839.92,117.65L-805.87,105.94L-786.20,80.13L-769.45,45.82L-780.89,40.24L-797.64,74.55L-817.31,100.36L-834.33,106.21L-854.28,103.56ZM-726.63,59.64L-705.66,-128.41L-765.24,-107.92L-762.31,-99.40L-736.78,-108.19L-752.16,68.42L-749.23,76.93L-729.28,79.59L-706.68,62.29L-678.77,5.10L-690.20,-0.48L-718.12,56.71ZM-614.43,-112.21L-605.92,-115.14L-603.27,-135.09L-606.19,-143.60L-626.14,-146.25L-634.65,-143.32L-637.31,-123.38L-634.38,-114.87ZM-684.62,-11.92L-673.18,-6.34L-645.27,-63.53L-636.76,-66.46L-658.54,36.21L-655.61,44.72L-644.18,50.31L-627.16,44.45L-613.06,30.08L-585.15,-27.11L-596.59,-32.69L-624.50,24.50L-633.01,27.43L-611.23,-75.24L-614.16,-83.75L-634.11,-86.41L-656.71,-69.11ZM-457.77,-99.49L-446.60,-122.36L-432.51,-136.73L-421.07,-131.15L-437.27,-39.91L-434.34,-31.40L-422.91,-25.82L-405.89,-31.68L-391.79,-46.04L-363.88,-103.23L-375.32,-108.82L-403.23,-51.62L-411.74,-48.70L-392.61,-131.42L-401.40,-156.95L-429.86,-156.68L-452.46,-139.38L-463.62,-116.51L-469.48,-133.53L-489.43,-136.18L-512.03,-118.89L-528.78,-84.57L-526.13,-104.52L-529.05,-113.03L-540.49,-118.61L-563.09,-101.32L-591.01,-44.13L-579.57,-38.55L-551.66,-95.74L-543.15,-98.67L-562.00,12.52L-550.56,18.10L-533.54,12.24L-522.92,-67.55L-506.18,-101.87L-492.08,-116.23L-480.65,-110.65L-493.92,-10.91L-482.48,-5.32L-465.46,-11.18ZM-248.21,-209.65L-259.65,-215.24L-267.89,-183.85L-282.25,-197.94L-319.22,-194.74L-350.06,-146.06L-352.44,-97.65L-332.22,-66.54L-312.27,-63.88L-295.25,-69.74L-278.50,-104.05L-272.65,-87.03L-261.21,-81.45L-238.61,-98.75L-210.69,-155.94L-222.13,-161.52L-250.04,-104.33L-258.55,-101.40ZM-301.11,-86.76L-309.62,-83.83L-326.91,-106.44L-321.60,-146.33L-304.85,-180.65L-287.83,-186.50L-273.47,-172.41L-270.54,-163.90L-284.36,-121.08ZM-173.45,-130.68L-160.18,-230.42L-134.65,-239.21L-137.57,-247.72L-163.11,-238.93L-157.80,-278.83L-174.82,-272.98L-174.54,-244.52L-188.64,-230.15L-205.66,-224.29L-202.73,-215.78L-185.71,-221.64L-198.98,-121.90L-196.05,-113.39L-184.61,-107.80L-167.59,-113.66L-153.50,-128.03L-125.59,-185.22L-137.03,-190.80L-164.94,-133.61ZM-6.72,-254.67L-12.57,-271.69L-26.94,-285.78L-63.91,-282.58L-97.68,-242.41L-105.64,-182.56L-85.42,-151.45L-65.47,-148.80L-48.45,-154.65L-34.36,-169.02L-12.03,-214.77L-23.46,-220.35L-45.79,-174.60L-62.81,-168.74L-80.11,-191.35L-74.80,-231.24L-58.05,-265.56L-41.03,-271.42L-32.25,-245.88L-46.34,-231.52L-71.87,-222.73L-68.94,-214.22L-26.39,-228.86ZM3.63,-362.92L26.50,-351.76L30.80,-200.95L11.12,-175.15L113.25,-210.28L141.43,-239.02L158.18,-273.33L166.42,-304.72L160.29,-350.20L128.63,-386.89L80.22,-389.27ZM132.10,-321.47L132.65,-264.55L115.90,-230.23L101.81,-215.87L67.77,-204.15L56.33,-209.74L52.04,-360.54L57.62,-371.98L83.15,-380.76L103.10,-378.11L123.32,-347.00ZM291.15,-357.15L285.29,-374.17L270.92,-388.26L233.96,-385.06L200.19,-344.89L192.22,-285.04L212.45,-253.93L232.39,-251.27L249.42,-257.13L263.51,-271.50L285.84,-317.25L274.40,-322.83L252.07,-277.08L235.05,-271.22L217.75,-293.83L223.06,-333.72L239.81,-368.04L256.83,-373.90L265.62,-348.36L251.52,-334.00L225.99,-325.21L228.92,-316.70L271.47,-331.34ZM331.59,-294.92L322.81,-320.45L311.37,-326.03L297.28,-311.67L306.06,-286.14L326.01,-283.48L343.03,-289.34L365.63,-306.63L376.80,-329.51L370.94,-346.53L347.79,-386.15L341.94,-403.17L356.03,-417.54L364.81,-392.01L376.25,-386.43L390.34,-400.79L381.56,-426.33L353.10,-426.05L321.99,-405.83L319.33,-385.88L325.19,-368.86L345.41,-337.75L351.27,-320.73L340.10,-297.85ZM466.39,-484.06L474.90,-486.99L477.56,-506.94L474.63,-515.45L454.68,-518.11L446.17,-515.18L443.51,-495.23L446.44,-486.72ZM396.20,-383.77L407.64,-378.19L435.55,-435.38L444.06,-438.31L422.28,-335.64L425.21,-327.13L436.64,-321.55L453.67,-327.40L467.76,-341.77L495.67,-398.96L484.23,-404.54L456.32,-347.35L447.81,-344.42L469.59,-447.09L466.66,-455.61L446.72,-458.26L424.11,-440.97ZM521.47,-379.29L524.40,-370.77L535.84,-365.19L499.15,-333.53L496.49,-313.58L513.79,-290.98L553.68,-285.67L570.70,-291.53L601.82,-311.75L610.05,-343.14L604.20,-360.16L549.93,-379.56L547.01,-388.07L572.54,-396.85L606.31,-437.02L606.03,-465.48L588.74,-488.09L614.27,-496.87L611.34,-505.38L577.30,-493.67L540.33,-490.47L506.56,-450.30L506.84,-421.84L535.57,-393.65ZM546.19,-473.45L563.21,-479.30L580.50,-456.70L583.43,-448.19L566.68,-413.87L549.66,-408.02L532.37,-430.62L529.44,-439.13ZM547.28,-359.61L581.59,-342.86L587.45,-325.84L567.78,-300.04L536.39,-308.27L522.02,-322.37L524.68,-342.32ZM-627.86,208.40L-616.42,213.98L-588.51,156.79L-580.00,153.86L-598.85,265.04L-587.41,270.63L-570.39,264.77L-559.77,184.97L-543.03,150.66L-528.93,136.29L-517.50,141.88L-533.70,233.11L-530.77,241.62L-519.33,247.20L-502.31,241.35L-488.22,226.98L-460.30,169.79L-471.74,164.20L-499.65,221.40L-508.16,224.32L-489.04,141.60L-497.82,116.07L-526.28,116.34L-548.88,133.64L-565.63,167.95L-562.98,148.00L-565.90,139.49L-577.34,133.91L-599.94,151.21ZM-349.94,103.26L-355.80,86.24L-370.16,72.15L-407.13,75.35L-440.90,115.52L-448.86,175.37L-428.64,206.48L-408.69,209.14L-391.67,203.28L-377.58,188.92L-355.25,143.16L-366.69,137.58L-389.02,183.33L-406.04,189.19L-423.33,166.59L-418.02,126.69L-401.28,92.37L-384.26,86.52L-375.47,112.05L-389.57,126.41L-415.10,135.20L-412.17,143.71L-369.62,129.07ZM-347.01,111.77L-335.58,117.36L-307.66,60.17L-299.15,57.24L-318.01,168.42L-306.57,174.00L-289.55,168.15L-278.93,88.35L-259.26,62.55L-233.72,53.76L-234.00,25.30L-253.95,22.65L-268.04,37.02L-281.86,79.84L-290.37,82.77L-282.13,51.38L-285.06,42.87L-296.50,37.29L-319.10,54.58ZM-119.89,52.67L-128.67,27.14L-129.22,-29.78L-98.38,-78.46L-81.36,-84.32L-58.48,-73.15L-49.70,-47.62L-32.68,-53.48L-21.51,-76.36L-35.88,-90.45L-84.29,-92.83L-109.82,-84.05L-138.00,-55.31L-154.75,-21.00L-162.99,10.39L-156.86,55.87L-125.20,92.57L-85.30,97.87L-51.26,86.16L-37.16,71.80L-26.00,48.92L-17.76,17.53L-6.60,-5.34L-57.66,12.22L-43.29,26.32L-43.02,54.78L-48.60,66.21L-62.70,80.58L-71.21,83.51L-102.59,75.27ZM59.38,48.10L76.40,42.24L110.17,2.07L118.13,-57.77L89.40,-85.96L52.43,-82.76L18.66,-42.59L10.70,17.26L39.43,45.44ZM58.28,-65.74L75.30,-71.59L92.60,-48.99L87.29,-9.09L70.54,25.22L53.52,31.08L36.23,8.47L41.54,-31.42ZM251.10,-141.59L239.66,-147.17L231.42,-115.79L217.05,-129.88L180.08,-126.68L149.24,-78.00L146.86,-29.59L167.09,1.52L187.03,4.18L204.06,-1.68L220.80,-35.99L226.66,-18.97L238.10,-13.39L260.70,-30.68L288.61,-87.87L277.17,-93.46L249.26,-36.27L240.75,-33.34ZM198.20,-18.70L189.69,-15.77L172.39,-38.37L177.70,-78.27L194.45,-112.59L211.47,-118.44L225.84,-104.35L228.77,-95.84L214.95,-53.01ZM325.86,-62.62L346.82,-250.67L287.24,-230.17L290.17,-221.66L315.70,-230.44L300.32,-53.83L303.25,-45.32L323.20,-42.67L345.80,-59.96L373.72,-117.15L362.28,-122.74L334.37,-65.55ZM405.38,-80.46L396.59,-105.99L385.15,-111.57L371.06,-97.21L379.85,-71.67L399.79,-69.02L416.82,-74.88L439.42,-92.17L450.58,-115.05L444.73,-132.07L421.58,-171.69L415.72,-188.71L429.81,-203.08L438.60,-177.55L450.04,-171.97L464.13,-186.33L455.35,-211.86L426.89,-211.59L395.77,-191.37L393.12,-171.42L398.97,-154.40L419.20,-123.28L425.05,-106.26L413.89,-83.39Z" fill="#ffffff" stroke="#000000"/>
    <path d="M-903.88,492L-906.92,488.96L-902.36,482.88L-893.24,482.88L-891.72,484.40L-891.72,488.96L-894.76,492L-884.12,492L-887.16,488.96L-887.16,460.08L-891.72,463.12L-891.72,464.64L-909.96,488.96L-914.52,492ZM-891.72,467.68L-891.72,479.84L-893.24,481.36L-900.84,481.36L-899.32,478.32ZM-862.84,476.80L-864.36,481.36L-870.44,487.44L-875,488.96L-876.52,488.96L-867.40,475.28L-867.40,472.24L-870.44,470.72L-875,472.24L-882.60,479.84L-881.08,481.36L-873.48,473.76L-871.96,473.76L-881.08,488.96L-881.08,490.48L-879.56,492L-876.52,492L-868.92,488.96L-862.84,482.88L-859.80,476.80L-859.80,473.76L-861.32,472.24L-864.36,472.24L-865.88,475.28L-864.36,476.80ZM-835.48,472.24L-837,470.72L-840.04,475.28L-841.56,472.24L-847.64,470.72L-855.24,476.80L-858.28,484.40L-856.76,490.48L-853.72,492L-850.68,492L-846.12,487.44L-846.12,490.48L-844.60,492L-840.04,490.48L-832.44,482.88L-833.96,481.36L-841.56,488.96L-843.08,488.96ZM-850.68,488.96L-852.20,488.96L-853.72,484.40L-850.68,478.32L-846.12,473.76L-843.08,473.76L-841.56,476.80L-841.56,478.32L-846.12,484.40ZM-832.44,479.84L-830.92,481.36L-823.32,473.76L-821.80,473.76L-830.92,490.48L-829.40,492L-826.36,492L-820.28,479.84L-815.72,476.80L-811.16,476.80L-809.64,472.24L-812.68,470.72L-815.72,472.24L-820.28,478.32L-821.80,478.32L-818.76,473.76L-818.76,472.24L-820.28,470.72L-824.84,472.24ZM-788.36,472.24L-789.88,470.72L-792.92,475.28L-794.44,472.24L-800.52,470.72L-808.12,476.80L-811.16,484.40L-809.64,490.48L-806.60,492L-803.56,492L-799,487.44L-799,490.48L-797.48,492L-792.92,490.48L-785.32,482.88L-786.84,481.36L-794.44,488.96L-795.96,488.96ZM-803.56,488.96L-805.08,488.96L-806.60,484.40L-803.56,478.32L-799,473.76L-795.96,473.76L-794.44,476.80L-794.44,478.32L-799,484.40ZM-783.80,479.84L-783.80,482.88L-774.68,482.88L-774.68,479.84ZM-765.56,461.60L-762.52,464.64L-770.12,488.96L-773.16,492L-757.96,492L-750.36,488.96L-745.80,482.88L-747.32,476.80L-751.88,475.28L-748.84,473.76L-744.28,469.20L-745.80,463.12L-753.40,461.60ZM-765.56,488.96L-757.96,464.64L-756.44,463.12L-753.40,463.12L-750.36,464.64L-750.36,469.20L-753.40,473.76L-757.96,475.28L-761,475.28L-761,476.80L-756.44,476.80L-753.40,478.32L-751.88,482.88L-754.92,487.44L-761,490.48L-764.04,490.48ZM-736.68,492L-733.64,492L-726.04,487.44L-721.48,478.32L-724.52,472.24L-730.60,470.72L-738.20,475.28L-742.76,484.40L-739.72,490.48ZM-730.60,473.76L-727.56,473.76L-726.04,478.32L-729.08,484.40L-733.64,488.96L-736.68,488.96L-738.20,484.40L-735.16,478.32ZM-715.40,488.96L-701.72,460.08L-712.36,460.08L-712.36,461.60L-707.80,461.60L-719.96,488.96L-719.96,490.48L-716.92,492L-712.36,490.48L-704.76,482.88L-706.28,481.36L-713.88,488.96ZM-689.56,492L-688.04,492L-685,490.48L-677.40,482.88L-678.92,481.36L-686.52,488.96L-688.04,488.96L-674.36,460.08L-685,460.08L-685,461.60L-680.44,461.60L-685,475.28L-686.52,472.24L-692.60,470.72L-700.20,476.80L-703.24,484.40L-701.72,490.48L-698.68,492L-695.64,492L-691.08,487.44L-691.08,490.48ZM-695.64,488.96L-697.16,488.96L-698.68,484.40L-695.64,478.32L-691.08,473.76L-688.04,473.76L-686.52,476.80L-686.52,478.32L-691.08,484.40ZM-669.80,488.96L-662.20,464.64L-657.64,461.60L-669.80,461.60L-666.76,464.64L-674.36,488.96L-678.92,492L-666.76,492ZM-657.64,488.96L-650.04,473.76L-645.48,473.76L-645.48,472.24L-650.04,472.24L-647,466.16L-650.04,466.16L-651.56,470.72L-654.60,472.24L-657.64,472.24L-657.64,473.76L-654.60,473.76L-662.20,488.96L-662.20,490.48L-660.68,492L-657.64,492L-654.60,490.48L-647,482.88L-648.52,481.36L-656.12,488.96ZM-621.16,472.24L-622.68,470.72L-625.72,475.28L-627.24,472.24L-633.32,470.72L-640.92,476.80L-643.96,484.40L-642.44,490.48L-639.40,492L-636.36,492L-631.80,487.44L-631.80,490.48L-630.28,492L-625.72,490.48L-618.12,482.88L-619.64,481.36L-627.24,488.96L-628.76,488.96ZM-636.36,488.96L-637.88,488.96L-639.40,484.40L-636.36,478.32L-631.80,473.76L-628.76,473.76L-627.24,476.80L-627.24,478.32L-631.80,484.40ZM-613.56,488.96L-599.88,460.08L-610.52,460.08L-610.52,461.60L-605.96,461.60L-618.12,488.96L-618.12,490.48L-615.08,492L-610.52,490.48L-602.92,482.88L-604.44,481.36L-612.04,488.96ZM-586.20,467.68L-584.68,467.68L-583.16,464.64L-583.16,463.12L-586.20,461.60L-587.72,461.60L-589.24,464.64L-589.24,466.16ZM-602.92,479.84L-601.40,481.36L-593.80,473.76L-592.28,473.76L-601.40,488.96L-601.40,490.48L-599.88,492L-596.84,492L-593.80,490.48L-586.20,482.88L-587.72,481.36L-595.32,488.96L-596.84,488.96L-587.72,473.76L-587.72,472.24L-590.76,470.72L-595.32,472.24ZM-564.92,478.32L-564.92,475.28L-566.44,472.24L-572.52,470.72L-580.12,475.28L-584.68,484.40L-583.16,490.48L-580.12,492L-577.08,492L-574.04,490.48L-567.96,484.40L-569.48,482.88L-575.56,488.96L-578.60,488.96L-580.12,484.40L-577.08,478.32L-572.52,473.76L-569.48,473.76L-569.48,478.32Z"/>
</svg>