<?xml version="1.0"?>
<svg xmlns="http://www.w3.org/2000/svg" width="1920" height="1080" viewBox="-960 -540 1920 1080">
    <path d="M-618.63,-285.75L-674.38,-285.75L-674.38,-341.50L-685.88,-341.50L-685.88,-285.75L-741.63,-285.75L-741.63,-274.25L-685.88,-274.25L-685.88,-218.50L-674.38,-218.50L-674.38,-274.25L-618.63,-274.25ZM-187.13,-276.75L-210.13,-337.75C-215.38,-352.50 -219.38,-365 -223.63,-385L-292.63,-385C-288.88,-379.50 -284.38,-372 -279.38,-362.25L-317.38,-281L-353.63,-347C-360.13,-359.75 -365.63,-370.75 -371.63,-385L-440.38,-385C-433.88,-377.75 -428.13,-371 -423.13,-364.50L-461.13,-246.50C-465.13,-234.75 -471.38,-218.25 -476.13,-209.75L-444.63,-210C-446.13,-220.25 -442.88,-234 -439.88,-246.50L-410.13,-346C-404.13,-336.50 -398.63,-327 -392.13,-316.50L-342.88,-227L-342.88,-226.75L-333.63,-210.25L-326.38,-210.25L-271.63,-345.50C-267.38,-336.25 -263.13,-325.75 -258.63,-313.75L-232.88,-239.75C-229.63,-228.25 -227.13,-217.75 -227.38,-210L-154.88,-210C-168.38,-228 -178.88,-254.75 -187.13,-276.75ZM85.63,-251.50L85.63,-283.50C85.63,-319.75 66.13,-344.50 -9.13,-344.50C-45.13,-344.50 -94.63,-332 -119.38,-315.75L-111.13,-279.50L-110.13,-279.50C-97.63,-286.25 -63.13,-312 -17.13,-312C11.13,-312 35.63,-300.25 35.63,-284.75L35.63,-277.50C22.13,-279.25 -17.88,-280.25 -33.88,-280.25C-85.88,-280.25 -132.38,-263.50 -132.38,-236.50C-132.38,-220.25 -115.63,-205 -60.13,-205C-40.13,-205 10.13,-229.25 35.63,-245.50L35.63,-207.75L92.63,-216L92.63,-216.75C90.63,-218.50 85.63,-225.25 85.63,-251.50ZM-48.88,-234.75C-65.13,-234.75 -77.63,-242.50 -77.63,-248.75C-77.63,-262.75 -58.13,-270.25 35.63,-270.25L35.63,-252.75C-0.63,-236.75 -28.63,-234.75 -48.88,-234.75ZM268.38,-341C255.13,-339.75 222.63,-319.75 197.13,-298.75L197.13,-342.25L135.13,-320.50C135.13,-320.50 147.13,-318 147.13,-290.75L147.13,-238.25C147.13,-217.75 142.38,-209.25 142.13,-209.25L202.88,-209.25C200.38,-219.75 197.13,-230.25 197.13,-240.75L197.13,-286.50C231.13,-308.25 277.63,-308.50 311.88,-285.50L313.88,-284.75L329.38,-335C313.38,-341.25 290.63,-343 268.38,-341ZM535.13,-277.50L536.63,-277.50L564.13,-321.50C532.13,-344.75 497.88,-345.25 468.63,-345.25C415.38,-345.25 354.38,-316.75 354.38,-273C354.38,-231.50 402.13,-206.50 460.63,-206.50C504.13,-206.50 542.88,-221.50 556.88,-234.25L562.13,-267.50L560.88,-268.50C542.13,-249.25 500.88,-239 467.88,-239C422.38,-239 397.38,-263 397.38,-293C397.38,-316.75 411.88,-330.75 441.88,-330.75C479.88,-332.50 518.38,-306 535.13,-277.50ZM-641.25,96.75C-567.75,96.75 -498.25,55 -498.25,-9C-498.25,-62.25 -553,-96.50 -628.75,-96.50C-702.25,-96.50 -775.75,-58.75 -775.75,5.25C-775.75,58.50 -717,96.75 -641.25,96.75ZM-613.25,75.50C-692.25,75.50 -720.50,14 -720.50,-19.50C-720.50,-51.50 -704.25,-79.25 -658.25,-79.25C-608.75,-79.25 -551,-41.75 -551,15.75C-551,45.50 -569,75.50 -613.25,75.50ZM-447,-26.50L-415.25,-26.50C-415.25,-41 -412,-65.75 -408,-84.75L-455.75,-84.75C-451.50,-65.75 -447,-41 -447,-26.50ZM-210,-2C-177,-7 -148.50,-18.75 -148.50,-45.75C-148.50,-71.25 -187.75,-85 -246.75,-85L-293.75,-85L-363,-85C-363,-85 -355.50,-77 -355.50,-42.75L-356.25,47.75C-356.25,82 -363,90 -363,90L-315.75,90C-294,90.25 -262.50,90.25 -237,90C-174.25,90.50 -127.25,69.25 -127.25,39.50C-127,19.50 -146.25,0.75 -210,-2ZM-271.25,-73.50C-229.50,-73.50 -199.75,-66.75 -199.75,-34.50C-199.75,-17.25 -221,-3 -252.50,-3C-273.25,-3.25 -287.50,-5.25 -300.50,-10.25L-300.50,-42.50C-300.50,-55.25 -299.50,-64.50 -298.50,-71C-290,-72.50 -280.75,-73.50 -271.25,-73.50ZM-245,78.50C-269.25,78.50 -287.25,74 -299.50,68.75C-300,63.25 -300.50,56.25 -300.50,47.75L-300.50,3C-254.50,2 -186,9.25 -186,46C-186,71 -211,78.50 -245,78.50ZM38.50,-41C25.25,-39.75 -7.25,-19.75 -32.75,1.25L-32.75,-42.25L-94.75,-20.50C-94.75,-20.50 -82.75,-18 -82.75,9.25L-82.75,61.75C-82.75,82.25 -87.50,90.75 -87.75,90.75L-27,90.75C-29.50,80.25 -32.75,69.75 -32.75,59.25L-32.75,13.50C1.25,-8.25 47.75,-8.50 82,14.50L84,15.25L99.50,-35C83.50,-41.25 60.75,-43 38.50,-41ZM163,-67.75C181.50,-67.75 197.75,-75.25 197.75,-83.75C197.75,-91.25 187.50,-93 174.50,-93C154.75,-93 140,-84.75 140,-76.50C140,-69.50 151.50,-67.75 163,-67.75ZM141,90L203.75,90C203.75,90 195.50,84.50 195.50,47.75L195.50,-42.50L128.25,-26L128.25,-24.75C134.50,-23.50 145.75,-17.50 145.75,6.50L145.50,30.25C145.50,84.50 141,90 141,90ZM352.75,61C324.50,61 295,48.25 285.25,24.75L448.75,24.75C448.75,-25.25 407.50,-45.25 354.75,-45.25C293.25,-45.25 238.75,-12 238.75,27C238.75,71 283,93.50 337,93.50C371,93.75 405.50,82.25 428,65.75L446.25,37L445.25,35.75C424.25,52 380.50,61 352.75,61ZM326.50,-30C356.50,-30 388.25,-21.50 396.75,8.50L282.25,14.50C282,12 281.75,9.50 281.75,7C281.75,-16 296.25,-30 326.50,-30ZM658,90L715.75,90C715.75,90 711,84.50 710,47.75L710,16.50C710,-22.25 683,-43.75 620.75,-43.25C615.50,-43.25 570.75,-28.25 542.75,-4.75L542.75,-42.50L486.50,-27.75C487.50,-27.50 493,-23.50 493,1.50L492.75,30.25C492.75,84.50 490.75,90 490.75,90L548.50,90C548.50,90 542.75,84.50 542.75,47.75L542.75,6C563.50,-8.75 585.50,-11.75 601.75,-11.75C647.25,-11.75 660,7 660,31L660,35.25C660,81.25 658,90 658,90Z" fill="#ffffff" stroke="#000000"/>
    <path d="M-633.32,-244.25L-688.42,-241.11L-691.56,-296.21L-702.93,-295.57L-699.79,-240.46L-754.89,-237.32L-754.24,-225.95L-699.14,-229.10L-695.99,-173.99L-684.63,-174.64L-687.77,-229.74L-632.67,-232.89ZM-206.32,-259.68L-232.49,-318.68C-238.51,-332.96 -243.17,-345.09 -248.50,-364.62L-316.70,-360.73C-312.68,-355.51 -307.81,-348.35 -302.32,-338.99L-335.29,-256.54L-374.84,-319.73C-381.99,-331.97 -388.04,-342.53 -394.78,-356.28L-462.73,-352.40C-455.90,-345.60 -449.83,-339.25 -444.52,-333.11L-475.43,-214.34C-478.72,-202.50 -483.97,-185.84 -488.19,-177.17L-457.06,-179.19C-459.13,-189.24 -456.69,-203.01 -454.43,-215.54L-430.63,-315.56C-424.17,-306.51 -418.19,-297.43 -411.18,-287.42L-357.45,-201.73L-357.44,-201.48L-347.37,-185.70L-340.20,-186.11L-293.71,-322.87C-288.99,-313.97 -284.20,-303.83 -279.07,-292.22L-249.45,-220.54C-245.59,-209.35 -242.53,-199.11 -242.34,-191.44L-170.68,-195.53C-185.04,-212.56 -196.92,-238.41 -206.32,-259.68ZM64.69,-250.10L62.89,-281.73C60.84,-317.56 40.17,-340.93 -34.20,-336.68C-69.78,-334.65 -118.01,-319.51 -141.55,-302.05L-131.35,-266.69L-130.37,-266.74C-118.39,-274.12 -85.74,-301.52 -40.28,-304.11C-12.36,-305.70 12.52,-295.47 13.40,-280.15L13.81,-272.98C0.36,-273.95 -39.23,-272.69 -55.04,-271.78C-106.44,-268.85 -151.46,-249.68 -149.93,-222.99C-149.02,-206.93 -131.60,-192.80 -76.75,-195.93C-56.98,-197.06 -8.68,-223.86 15.61,-241.36L17.74,-204.04L73.61,-215.41L73.57,-216.15C71.49,-217.77 66.17,-224.16 64.69,-250.10ZM-67.30,-225.97C-83.36,-225.05 -96.16,-232.01 -96.51,-238.18C-97.30,-252.02 -78.45,-260.53 14.21,-265.82L15.20,-248.52C-19.73,-230.66 -47.29,-227.11 -67.30,-225.97ZM240.27,-348.87C227.25,-346.89 196.25,-325.29 172.23,-303.09L169.78,-346.09L109.73,-321.09C109.73,-321.09 121.73,-319.30 123.26,-292.37L126.22,-240.48C127.38,-220.21 123.16,-211.54 122.92,-211.53L182.96,-214.96C179.90,-225.19 176.09,-235.39 175.50,-245.77L172.92,-290.98C205.30,-314.40 251.25,-317.27 286.40,-296.47L288.42,-295.84L300.90,-346.38C284.74,-351.65 262.15,-352.10 240.27,-348.87ZM507.51,-301.14L508.99,-301.23L533.69,-346.27C500.75,-367.44 466.87,-366.01 437.96,-364.36C385.33,-361.36 326.64,-329.75 329.11,-286.51C331.45,-245.49 380.05,-223.47 437.88,-226.77C480.87,-229.22 518.33,-246.23 531.44,-259.62L534.76,-292.78L533.47,-293.70C516.02,-273.62 475.83,-261.16 443.21,-259.30C398.24,-256.73 372.17,-279.05 370.48,-308.70C369.14,-332.17 382.69,-346.83 412.34,-348.52C449.80,-352.39 489.35,-328.37 507.51,-301.14ZM-634.11,135.08C-561.47,130.94 -495.13,85.76 -498.74,22.50C-501.74,-30.13 -557.78,-60.90 -632.65,-56.63C-705.30,-52.49 -775.82,-11.03 -772.21,52.23C-769.21,104.86 -708.98,139.35 -634.11,135.08ZM-607.64,112.50C-685.72,116.95 -717.11,57.76 -719.00,24.65C-720.80,-6.98 -706.31,-35.32 -660.84,-37.92C-611.91,-40.71 -552.72,-6.90 -549.48,49.93C-547.80,79.34 -563.90,110.01 -607.64,112.50ZM-449.07,2.31L-417.69,0.52C-418.50,-13.81 -416.69,-38.46 -413.80,-57.46L-461.00,-54.77C-455.73,-36.23 -449.88,-12.02 -449.07,2.31ZM-213.44,13.17C-181.10,6.36 -153.59,-6.86 -155.12,-33.54C-156.55,-58.75 -196.12,-70.13 -254.44,-66.80L-300.89,-64.15L-369.34,-60.25C-369.34,-60.25 -361.48,-52.76 -359.55,-18.91L-355.18,70.58C-353.25,104.44 -359.47,112.72 -359.47,112.72L-312.77,110.06C-291.26,109.08 -260.13,107.30 -234.94,105.62C-172.89,102.58 -127.63,78.92 -129.31,49.52C-130.19,29.74 -150.27,12.29 -213.44,13.17ZM-278.01,-54.05C-236.74,-56.40 -206.96,-51.41 -205.14,-19.53C-204.17,-2.48 -224.37,12.80 -255.50,14.57C-276.02,15.50 -290.22,14.32 -303.35,10.11L-305.17,-21.76C-305.89,-34.36 -305.42,-43.56 -304.80,-50.04C-296.48,-52.01 -287.40,-53.52 -278.01,-54.05ZM-243.49,94.70C-267.46,96.07 -285.51,92.64 -297.91,88.14C-298.71,82.73 -299.60,75.84 -300.08,67.44L-302.60,23.21C-257.19,19.63 -189.08,22.93 -187.01,59.26C-185.60,83.97 -209.89,92.79 -243.49,94.70ZM29.98,-39.39C16.95,-37.41 -14.04,-15.81 -38.06,6.39L-40.51,-36.61L-100.57,-11.62C-100.57,-11.62 -88.57,-9.82 -87.03,17.11L-84.07,69.00C-82.91,89.26 -87.13,97.93 -87.38,97.95L-27.33,94.52C-30.39,84.29 -34.20,74.09 -34.79,63.71L-37.37,18.49C-4.99,-4.92 40.96,-7.79 76.10,13.01L78.12,13.64L90.61,-36.90C74.44,-42.18 51.86,-42.62 29.98,-39.39ZM151.53,-72.85C169.81,-73.89 185.45,-82.22 184.97,-90.62C184.55,-98.04 174.32,-99.19 161.47,-98.45C141.95,-97.34 127.84,-88.36 128.30,-80.20C128.70,-73.28 140.16,-72.20 151.53,-72.85ZM138.68,84.31L200.70,80.77C200.70,80.77 192.23,75.80 190.16,39.48L185.07,-49.73L119.53,-29.63L119.60,-28.39C125.85,-27.51 137.31,-22.21 138.66,1.51L139.76,25.00C142.81,78.62 138.68,84.31 138.68,84.31ZM346.33,43.71C318.41,45.30 288.54,34.36 277.57,11.68L439.18,2.47C436.36,-46.95 394.46,-64.40 342.32,-61.42C281.53,-57.95 229.54,-22.02 231.74,16.53C234.22,60.02 279.23,79.76 332.60,76.72C366.22,75.05 399.67,61.74 420.98,44.16L437.40,14.72L436.34,13.54C416.50,30.78 373.76,42.14 346.33,43.71ZM315.26,-44.76C344.91,-46.45 376.77,-39.84 386.86,-10.66L274.03,1.72C273.64,-0.73 273.25,-3.19 273.11,-5.66C271.82,-28.40 285.36,-43.05 315.26,-44.76ZM649.68,55.16L706.76,51.91C706.76,51.91 701.75,46.74 698.69,10.47L696.93,-20.42C694.74,-58.72 666.84,-78.44 605.35,-74.44C600.16,-74.14 556.77,-56.80 530.42,-31.99L528.29,-69.30L473.53,-51.55C474.53,-51.36 480.19,-47.72 481.60,-23.01L482.98,5.42C486.03,59.04 484.37,64.59 484.37,64.59L541.45,61.34C541.45,61.34 535.45,56.22 533.38,19.90L531.03,-21.36C550.71,-37.11 572.28,-41.32 588.34,-42.24C633.31,-44.80 646.97,-26.99 648.33,-3.27L648.57,0.94C651.16,46.40 649.68,55.16 649.68,55.16Z" fill="#ffffff" stroke="#000000"/>
    <path d="M-645.18,-202.10L-699.46,-195.89L-705.67,-250.17L-716.87,-248.89L-710.66,-194.61L-764.94,-188.40L-763.65,-177.20L-709.37,-183.41L-703.16,-129.13L-691.96,-130.41L-698.18,-184.69L-643.90,-190.91ZM-224.05,-241.42L-253.24,-298.25C-259.99,-312.03 -265.28,-323.76 -271.65,-342.75L-338.83,-335.07C-334.57,-330.13 -329.35,-323.33 -323.39,-314.39L-351.34,-231.05L-393.99,-291.27C-401.74,-302.96 -408.32,-313.06 -415.75,-326.26L-482.69,-318.60C-475.55,-312.27 -469.20,-306.33 -463.61,-300.56L-487.46,-181.44C-490.04,-169.55 -494.29,-152.79 -497.96,-143.99L-467.32,-147.74C-469.93,-157.55 -468.29,-171.30 -466.77,-183.81L-448.89,-284.00C-441.99,-275.42 -435.57,-266.78 -428.07,-257.28L-370.15,-175.63L-370.12,-175.39L-359.28,-160.35L-352.22,-161.16L-313.98,-298.95C-308.81,-290.41 -303.50,-280.66 -297.79,-269.48L-264.47,-200.30C-260.02,-189.47 -256.42,-179.52 -255.80,-171.95L-185.21,-180.03C-200.36,-196.05 -213.56,-220.92 -224.05,-241.42ZM44.33,-247.23L40.76,-278.39C36.72,-313.69 14.98,-335.61 -58.29,-327.22C-93.34,-323.21 -140.14,-305.53 -162.43,-286.95L-150.36,-252.57L-149.38,-252.68C-137.97,-260.65 -107.24,-289.56 -62.46,-294.69C-34.95,-297.84 -9.79,-289.13 -8.06,-274.04L-7.25,-266.98C-20.59,-267.18 -59.65,-263.69 -75.23,-261.91C-125.86,-256.12 -169.26,-234.62 -166.26,-208.34C-164.44,-192.51 -146.44,-179.53 -92.40,-185.72C-72.93,-187.95 -26.70,-217.16 -3.69,-235.82L0.52,-199.07L55.10,-213.45L55.02,-214.18C52.87,-215.66 47.25,-221.68 44.33,-247.23ZM-84.76,-215.94C-100.58,-214.13 -113.62,-220.28 -114.31,-226.36C-115.87,-240.00 -97.72,-249.47 -6.44,-259.92L-4.49,-242.88C-38.01,-223.26 -65.04,-218.19 -84.76,-215.94ZM212.29,-354.74C199.53,-352.05 170.11,-328.95 147.62,-305.66L142.78,-348.02L84.83,-319.93C84.83,-319.93 96.80,-318.83 99.83,-292.30L105.68,-241.19C107.97,-221.23 104.29,-212.42 104.05,-212.39L163.20,-219.16C159.59,-229.11 155.26,-238.97 154.09,-249.19L148.99,-293.74C179.67,-318.70 224.92,-324.13 260.83,-305.55L262.86,-305.04L272.35,-355.70C256.07,-360.00 233.73,-359.17 212.29,-354.74ZM479.08,-322.64L480.54,-322.81L502.42,-368.71C468.67,-387.78 435.27,-384.45 406.79,-381.19C354.94,-375.26 298.72,-340.71 303.60,-298.12C308.22,-257.71 357.50,-238.69 414.46,-245.21C456.81,-250.06 492.87,-268.98 505.08,-282.95L506.49,-315.91L505.16,-316.75C489.05,-295.91 450.03,-281.34 417.90,-277.66C373.59,-272.59 346.58,-293.17 343.24,-322.38C340.59,-345.50 353.15,-360.75 382.36,-364.09C419.16,-370.03 459.60,-348.52 479.08,-322.64ZM-624.58,172.84C-553.02,164.65 -490.00,116.25 -497.14,53.94C-503.07,2.09 -560.19,-25.15 -633.95,-16.71C-705.51,-8.52 -772.87,36.42 -765.73,98.74C-759.80,150.58 -698.34,181.28 -624.58,172.84ZM-599.69,149.03C-676.61,157.83 -710.97,101.10 -714.70,68.48C-718.26,37.32 -705.53,8.50 -660.75,3.37C-612.55,-2.15 -552.15,27.93 -545.74,83.91C-542.42,112.88 -556.61,144.10 -599.69,149.03ZM-449.19,31.19L-418.27,27.65C-419.89,13.53 -419.48,-10.93 -417.71,-29.87L-464.20,-24.55C-457.94,-6.53 -450.80,17.07 -449.19,31.19ZM-215.70,28.63C-184.13,20.09 -157.69,5.47 -160.70,-20.82C-163.54,-45.65 -203.29,-54.66 -260.73,-48.08L-306.49,-42.85L-373.92,-35.13C-373.92,-35.13 -365.73,-28.18 -361.91,5.17L-352.55,93.37C-348.74,126.72 -354.42,135.26 -354.42,135.26L-308.41,129.99C-287.21,127.81 -256.54,124.30 -231.74,121.22C-170.59,114.71 -127.19,88.78 -130.51,59.82C-132.49,40.32 -153.33,24.21 -215.70,28.63ZM-283.31,-34.16C-242.66,-38.81 -212.94,-35.55 -209.34,-4.15C-207.42,12.64 -226.52,28.89 -257.19,32.40C-277.43,34.46 -291.52,34.10 -304.74,30.69L-308.33,-0.71C-309.75,-13.13 -309.81,-22.25 -309.56,-28.69C-301.45,-31.09 -292.56,-33.10 -283.31,-34.16ZM-240.81,110.91C-264.42,113.61 -282.45,111.24 -294.96,107.49C-296.06,102.19 -297.33,95.43 -298.27,87.16L-303.26,43.59C-258.58,37.49 -191.08,36.91 -186.99,72.69C-184.20,97.03 -207.71,107.12 -240.81,110.91ZM21.90,-37.03C9.14,-34.34 -20.27,-11.24 -42.76,12.05L-47.61,-30.31L-105.55,-2.22C-105.55,-2.22 -93.59,-1.13 -90.55,25.41L-84.70,76.52C-82.42,96.48 -86.10,105.29 -86.34,105.32L-27.19,98.55C-30.80,88.60 -35.13,78.74 -36.30,68.52L-41.40,23.97C-10.72,-0.99 34.53,-6.42 70.44,12.16L72.47,12.67L81.96,-37.99C65.69,-42.29 43.34,-41.46 21.90,-37.03ZM140.14,-76.95C158.15,-79.01 173.14,-88.12 172.19,-96.40C171.35,-103.70 161.18,-104.26 148.52,-102.82C129.29,-100.61 115.85,-90.94 116.77,-82.91C117.55,-76.09 128.94,-75.67 140.14,-76.95ZM136.30,79.09L197.39,72.10C197.39,72.10 188.75,67.67 184.65,31.89L174.60,-55.99L110.96,-32.43L111.10,-31.21C117.32,-30.69 128.94,-26.10 131.62,-2.73L134.02,20.42C140.07,73.24 136.30,79.09 136.30,79.09ZM339.24,27.26C311.73,30.41 281.59,21.28 269.47,-0.51L428.67,-18.73C423.09,-67.41 380.70,-82.29 329.34,-76.41C269.46,-69.56 220.11,-31.11 224.45,6.86C229.35,49.70 274.95,66.68 327.52,60.66C360.65,57.12 392.96,42.07 413.03,23.50L427.60,-6.52L426.48,-7.63C407.85,10.53 366.25,24.17 339.24,27.26ZM303.54,-58.41C332.75,-61.76 364.61,-57.02 376.23,-28.76L265.41,-10.16C264.89,-12.56 264.37,-14.97 264.09,-17.40C261.53,-39.80 274.08,-55.04 303.54,-58.41ZM639.67,21.48L695.90,15.05C695.90,15.05 690.66,10.22 685.59,-25.45L682.11,-55.87C677.79,-93.60 649.11,-111.53 588.55,-104.10C583.44,-103.52 541.54,-83.93 516.90,-57.93L512.69,-94.68L459.57,-74.05C460.57,-73.92 466.37,-70.64 469.16,-46.30L472.12,-18.28C478.16,34.54 476.83,40.12 476.83,40.12L533.06,33.69C533.06,33.69 526.85,28.97 522.75,-6.81L518.10,-47.46C536.66,-64.13 557.74,-69.51 573.57,-71.32C617.87,-76.39 632.37,-59.55 635.04,-36.18L635.52,-32.05C640.64,12.74 639.67,21.48 639.67,21.48Z" fill="#ffffff" stroke="#000000"/>
    <path d="M-654.19,-159.49L-707.48,-150.29L-716.68,-203.58L-727.67,-201.69L-718.47,-148.40L-771.76,-139.20L-769.86,-128.21L-716.57,-137.40L-707.38,-84.12L-696.38,-86.01L-705.58,-139.30L-652.29,-148.50ZM-240.25,-222.09L-272.30,-276.60C-279.75,-289.83 -285.64,-301.12 -293.00,-319.54L-358.95,-308.15C-354.46,-303.51 -348.92,-297.09 -342.54,-288.59L-365.45,-204.66L-410.99,-261.76C-419.31,-272.88 -426.38,-282.49 -434.47,-295.12L-500.18,-283.77C-492.77,-277.92 -486.16,-272.41 -480.31,-267.02L-497.17,-147.96C-499.05,-136.07 -502.30,-119.27 -505.44,-110.36L-475.37,-115.80C-478.50,-125.35 -477.66,-139.03 -476.85,-151.47L-464.83,-251.49C-457.53,-243.40 -450.71,-235.22 -442.76,-226.26L-380.92,-148.83L-380.88,-148.60L-369.31,-134.35L-362.38,-135.55L-332.36,-273.86C-326.78,-265.72 -320.98,-256.38 -314.70,-245.66L-277.88,-179.17C-272.87,-168.72 -268.75,-159.09 -267.71,-151.64L-198.41,-163.60C-214.28,-178.58 -228.73,-202.42 -240.25,-222.09ZM24.63,-242.95L19.35,-273.54C13.37,-308.19 -9.36,-328.63 -81.28,-316.22C-115.70,-310.28 -160.95,-290.16 -181.93,-270.54L-168.06,-237.26L-167.10,-237.42C-156.27,-245.94 -127.54,-276.24 -83.57,-283.83C-56.57,-288.49 -31.21,-281.30 -28.65,-266.49L-27.45,-259.56C-40.65,-259.00 -79.05,-253.36 -94.34,-250.72C-144.05,-242.14 -185.73,-218.46 -181.28,-192.65C-178.59,-177.11 -160.07,-165.30 -107.02,-174.46C-87.90,-177.76 -43.87,-209.23 -22.18,-228.97L-15.95,-192.89L37.18,-210.18L37.05,-210.89C34.85,-212.24 28.96,-217.86 24.63,-242.95ZM-101.17,-204.75C-116.70,-202.07 -129.93,-207.42 -130.96,-213.39C-133.27,-226.77 -115.87,-237.16 -26.26,-252.63L-23.37,-235.90C-55.38,-214.62 -81.82,-208.09 -101.17,-204.75ZM184.54,-358.66C172.09,-355.28 144.32,-330.80 123.41,-306.52L116.23,-348.10L60.56,-317.08C60.56,-317.08 72.44,-316.67 76.94,-290.62L85.60,-240.44C88.98,-220.84 85.84,-211.93 85.61,-211.89L143.67,-221.92C139.55,-231.54 134.71,-241.04 132.98,-251.08L125.43,-294.81C154.34,-321.21 198.75,-329.12 235.28,-312.79L237.32,-312.40L243.84,-362.99C227.52,-366.32 205.48,-364.24 184.54,-358.66ZM450.00,-341.97L451.43,-342.22L470.46,-388.82C436.04,-405.76 403.21,-400.59 375.26,-395.76C324.36,-386.98 270.75,-349.67 277.97,-307.85C284.82,-268.18 334.58,-252.16 390.50,-261.82C432.08,-268.99 466.65,-289.72 477.93,-304.22L477.46,-336.87L476.10,-337.62C461.35,-316.13 423.61,-299.52 392.07,-294.08C348.58,-286.57 320.72,-305.39 315.77,-334.06C311.85,-356.76 323.40,-372.54 352.08,-377.49C388.11,-385.43 429.29,-366.45 450.00,-341.97ZM-612.70,209.86C-542.45,197.73 -482.90,146.36 -493.46,85.18C-502.25,34.28 -560.24,10.58 -632.64,23.07C-702.90,35.20 -766.93,83.41 -756.37,144.59C-747.58,195.49 -685.11,222.36 -612.70,209.86ZM-589.45,184.93C-664.96,197.96 -702.11,143.84 -707.64,111.81C-712.92,81.23 -701.96,52.02 -657.99,44.43C-610.68,36.26 -549.29,62.58 -539.80,117.54C-534.89,145.98 -547.15,177.62 -589.45,184.93ZM-447.36,60.00L-417.02,54.76C-419.41,40.90 -420.39,16.70 -419.70,-2.12L-465.34,5.76C-458.14,23.22 -449.76,46.14 -447.36,60.00ZM-216.78,44.31C-186.06,34.09 -160.76,18.15 -165.22,-7.66C-169.42,-32.03 -209.21,-38.70 -265.60,-28.96L-310.53,-21.21L-376.72,-9.78C-376.72,-9.78 -368.24,-3.37 -362.58,29.37L-348.37,116.00C-342.72,148.73 -347.85,157.49 -347.85,157.49L-302.68,149.70C-281.85,146.35 -251.74,141.15 -227.41,136.71C-167.35,126.83 -125.93,98.76 -130.84,70.33C-133.90,51.17 -155.39,36.42 -216.78,44.31ZM-287.13,-13.93C-247.22,-20.82 -217.67,-19.27 -212.35,11.55C-209.50,28.04 -227.46,45.17 -257.57,50.37C-277.45,53.55 -291.40,53.99 -304.65,51.36L-309.97,20.53C-312.07,8.34 -312.64,-0.66 -312.76,-7.04C-304.88,-9.88 -296.21,-12.36 -287.13,-13.93ZM-236.95,127.03C-260.13,131.03 -278.08,129.70 -290.66,126.71C-292.04,121.53 -293.68,114.92 -295.08,106.80L-302.46,64.02C-258.66,55.48 -191.98,51.10 -185.92,86.23C-181.80,110.13 -204.46,121.42 -236.95,127.03ZM14.32,-33.97C1.86,-30.59 -25.91,-6.11 -46.82,18.17L-54.00,-23.41L-109.67,7.61C-109.67,7.61 -97.79,8.02 -93.29,34.07L-84.63,84.25C-81.25,103.85 -84.39,112.75 -84.62,112.80L-26.56,102.77C-30.68,93.15 -35.52,83.65 -37.25,73.61L-44.80,29.88C-15.89,3.48 28.52,-4.43 65.05,11.90L67.09,12.29L73.61,-38.30C57.29,-41.63 35.25,-39.55 14.32,-33.97ZM128.91,-80.08C146.59,-83.13 160.89,-92.98 159.48,-101.11C158.25,-108.28 148.16,-108.26 135.73,-106.11C116.85,-102.86 104.12,-92.54 105.48,-84.65C106.63,-77.96 117.91,-78.18 128.91,-80.08ZM133.91,74.34L193.89,63.98C193.89,63.98 185.09,60.09 179.03,24.96L164.14,-61.31L102.58,-34.44L102.79,-33.25C108.97,-33.08 120.71,-29.20 124.67,-6.26L128.35,16.48C137.30,68.34 133.91,74.34 133.91,74.34ZM331.53,11.68C304.52,16.34 274.22,9.02 261.02,-11.84L417.31,-38.81C409.06,-86.61 366.33,-98.92 315.91,-90.21C257.12,-80.07 210.51,-39.29 216.95,-2.01C224.21,40.05 270.22,54.25 321.83,45.34C354.37,39.97 385.45,23.29 404.24,3.80L416.94,-26.69L415.78,-27.72C398.38,-8.72 358.05,7.10 331.53,11.68ZM291.42,-70.98C320.09,-75.93 351.85,-73.04 364.92,-45.77L256.46,-21.14C255.81,-23.49 255.16,-25.83 254.75,-28.22C250.95,-50.21 262.50,-65.98 291.42,-70.98ZM628.09,-10.97L683.29,-20.50C683.29,-20.50 677.84,-24.97 670.82,-59.93L665.67,-89.80C659.27,-126.84 629.92,-142.94 570.50,-132.19C565.48,-131.32 525.18,-109.60 502.29,-82.52L496.06,-118.60L444.73,-95.22C445.73,-95.15 451.64,-92.23 455.77,-68.34L460.27,-40.82C469.22,11.04 468.22,16.63 468.22,16.63L523.42,7.10C523.42,7.10 517.02,2.79 510.95,-32.34L504.06,-72.24C521.46,-89.77 542.00,-96.27 557.53,-98.95C601.02,-106.45 616.30,-90.64 620.26,-67.69L620.97,-63.63C628.56,-19.66 628.09,-10.97 628.09,-10.97Z" fill="#ffffff" stroke="#000000"/>
    <path d="M-660.34,-116.62L-712.48,-104.52L-724.57,-156.66L-735.33,-154.17L-723.24,-102.03L-775.37,-89.94L-772.88,-79.18L-720.74,-91.27L-708.65,-39.14L-697.89,-41.63L-709.99,-93.77L-657.85,-105.86ZM-254.86,-201.79L-289.60,-253.85C-297.71,-266.51 -304.17,-277.33 -312.48,-295.11L-377.01,-280.14C-372.31,-275.81 -366.47,-269.78 -359.68,-261.74L-377.59,-177.52L-425.81,-231.38C-434.65,-241.89 -442.18,-250.98 -450.88,-263.01L-515.18,-248.10C-507.53,-242.73 -500.68,-237.66 -494.60,-232.67L-504.54,-114.07C-505.73,-102.22 -508.00,-85.43 -510.60,-76.45L-481.19,-83.52C-484.82,-92.78 -484.76,-106.34 -484.67,-118.68L-478.43,-218.18C-470.76,-210.60 -463.55,-202.91 -455.20,-194.50L-389.73,-121.49L-389.67,-121.25L-377.44,-107.83L-370.66,-109.40L-348.80,-247.76C-342.82,-240.03 -336.57,-231.13 -329.75,-220.89L-289.62,-157.27C-284.09,-147.22 -279.47,-137.94 -278.03,-130.64L-210.23,-146.37C-226.76,-160.27 -242.38,-183.01 -254.86,-201.79ZM5.68,-237.34L-1.26,-267.27C-9.12,-301.17 -32.73,-320.08 -103.10,-303.76C-136.76,-295.95 -180.34,-273.53 -199.97,-252.96L-184.39,-220.85L-183.45,-221.07C-173.23,-230.09 -146.55,-261.65 -103.53,-271.63C-77.11,-277.76 -51.65,-272.09 -48.29,-257.59L-46.72,-250.81C-59.72,-249.52 -97.35,-241.78 -112.31,-238.31C-160.94,-227.03 -200.79,-201.28 -194.93,-176.03C-191.41,-160.83 -172.44,-150.20 -120.53,-162.24C-101.83,-166.58 -60.10,-200.16 -39.78,-220.88L-31.59,-185.58L19.93,-205.66L19.77,-206.36C17.52,-207.56 11.38,-212.79 5.68,-237.34ZM-116.47,-192.50C-131.66,-188.98 -145.03,-193.51 -146.39,-199.36C-149.43,-212.45 -132.82,-223.70 -45.14,-244.03L-41.35,-227.66C-71.78,-204.84 -97.53,-196.90 -116.47,-192.50ZM157.17,-360.68C145.05,-356.64 119.00,-330.88 99.70,-305.71L90.27,-346.39L37.01,-312.61C37.01,-312.61 48.77,-312.87 54.68,-287.39L66.07,-238.29C70.52,-219.12 67.92,-210.14 67.68,-210.09L124.50,-223.26C119.88,-232.54 114.56,-241.65 112.29,-251.47L102.36,-294.26C129.44,-321.97 172.87,-332.29 209.89,-318.21L211.92,-317.94L215.52,-368.30C199.20,-370.67 177.55,-367.38 157.17,-360.68ZM420.40,-359.15L421.81,-359.48L437.98,-406.59C403.01,-421.39 370.87,-414.43 343.52,-408.09C293.72,-396.54 242.86,-356.65 252.35,-315.74C261.35,-276.93 311.43,-263.91 366.13,-276.60C406.81,-286.03 439.80,-308.47 450.12,-323.43L447.82,-355.66L446.44,-356.32C433.08,-334.25 396.72,-315.72 365.86,-308.56C323.31,-298.69 294.73,-315.72 288.22,-343.77C283.07,-365.98 293.59,-382.22 321.65,-388.73C356.81,-398.60 398.56,-382.17 420.40,-359.15ZM-598.54,246.00C-529.80,230.05 -473.86,175.94 -487.74,116.08C-499.29,66.29 -557.92,46.13 -628.76,62.56C-697.50,78.50 -758.05,129.75 -744.16,189.60C-732.61,239.40 -669.38,262.43 -598.54,246.00ZM-576.96,220.05C-650.84,237.19 -690.60,185.80 -697.86,154.47C-704.81,124.55 -695.63,95.07 -652.61,85.09C-606.32,74.36 -544.18,96.90 -531.71,150.67C-525.25,178.49 -535.58,210.45 -576.96,220.05ZM-443.61,88.60L-413.92,81.72C-417.07,68.16 -419.39,44.30 -419.78,25.67L-464.43,36.03C-456.33,52.87 -446.76,75.04 -443.61,88.60ZM-216.66,60.11C-186.89,48.27 -162.78,31.10 -168.64,5.85C-174.17,-17.99 -213.86,-22.34 -269.03,-9.54L-312.99,0.65L-377.75,15.67C-377.75,15.67 -369.00,21.53 -361.57,53.56L-342.64,138.35C-335.21,170.38 -339.79,179.33 -339.79,179.33L-295.60,169.08C-275.21,164.60 -245.75,157.76 -221.96,152.00C-163.17,138.86 -123.82,108.79 -130.27,80.97C-134.38,62.21 -156.45,48.85 -216.66,60.11ZM-289.45,6.53C-250.41,-2.53 -221.12,-2.67 -214.13,27.49C-210.38,43.62 -227.17,61.56 -256.62,68.39C-276.08,72.66 -289.84,73.88 -303.08,72.02L-310.08,41.86C-312.85,29.94 -313.92,21.07 -314.39,14.78C-306.77,11.53 -298.33,8.59 -289.45,6.53ZM-231.93,142.98C-254.61,148.24 -272.42,147.94 -285.01,145.68C-286.67,140.65 -288.66,134.21 -290.50,126.26L-300.21,84.41C-257.41,73.50 -191.78,65.42 -183.81,99.79C-178.38,123.17 -200.14,135.61 -231.93,142.98ZM7.27,-30.27C-4.85,-26.22 -30.91,-0.47 -50.20,24.70L-59.63,-15.98L-112.90,17.81C-112.90,17.81 -101.13,17.54 -95.22,43.03L-83.83,92.12C-79.39,111.29 -81.99,120.27 -82.22,120.33L-25.41,107.15C-30.02,97.87 -35.34,88.76 -37.62,78.94L-47.54,36.16C-20.46,8.44 22.97,-1.88 59.99,12.20L62.02,12.47L65.62,-37.89C49.30,-40.26 27.64,-36.96 7.27,-30.27ZM117.90,-82.29C135.20,-86.30 148.77,-96.84 146.92,-104.79C145.30,-111.80 135.33,-111.21 123.17,-108.39C104.70,-104.11 92.70,-93.19 94.49,-85.48C96.01,-78.93 107.14,-79.79 117.90,-82.29ZM131.54,70.01L190.22,56.40C190.22,56.40 181.31,53.05 173.34,18.68L153.77,-65.72L94.46,-35.70L94.73,-34.54C100.84,-34.72 112.66,-31.55 117.87,-9.11L122.79,13.16C134.56,63.89 131.54,70.01 131.54,70.01ZM323.27,-3.04C296.85,3.09 266.50,-2.44 252.29,-22.30L405.19,-57.76C394.34,-104.52 351.43,-114.28 302.10,-102.84C244.58,-89.50 200.83,-46.58 209.29,-10.11C218.83,31.04 265.09,42.48 315.59,30.77C347.44,23.63 377.21,5.39 394.68,-14.92L405.51,-45.76L404.30,-46.72C388.19,-26.96 349.22,-9.06 323.27,-3.04ZM278.99,-82.45C307.04,-88.95 338.58,-87.89 353.03,-61.68L247.26,-31.23C246.48,-33.52 245.70,-35.80 245.16,-38.14C240.17,-59.65 250.70,-75.89 278.99,-82.45ZM615.03,-42.13L669.03,-54.66C669.03,-54.66 663.40,-58.77 654.49,-92.92L647.71,-122.14C639.31,-158.38 609.39,-172.63 551.29,-158.66C546.38,-157.52 507.78,-133.79 486.69,-105.74L478.51,-141.04L429.10,-115.05C430.09,-115.03 436.10,-112.48 441.53,-89.10L447.53,-62.16C459.29,-11.43 458.62,-5.85 458.62,-5.85L512.62,-18.38C512.62,-18.38 506.05,-22.27 498.08,-56.64L489.03,-95.69C505.23,-113.98 525.16,-121.56 540.35,-125.08C582.90,-134.95 598.89,-120.18 604.10,-97.74L605.02,-93.76C615.00,-50.75 615.03,-42.13 615.03,-42.13Z" fill="#ffffff" stroke="#000000"/>
    <path d="M-663.65,-73.66L-714.47,-58.78L-729.36,-109.61L-739.84,-106.54L-724.96,-55.71L-775.79,-40.82L-772.72,-30.34L-721.89,-45.22L-707.00,5.60L-696.52,2.53L-711.40,-48.29L-660.58,-63.18ZM-267.84,-180.67L-305.10,-230.14C-313.82,-242.19 -320.81,-252.52 -330.02,-269.62L-392.93,-251.19C-388.04,-247.18 -381.94,-241.54 -374.77,-233.99L-387.73,-149.77L-438.40,-200.26C-447.73,-210.15 -455.68,-218.71 -464.95,-230.10L-527.63,-211.74C-519.77,-206.87 -512.73,-202.25 -506.43,-197.66L-509.57,-79.93C-510.08,-68.15 -511.38,-51.44 -513.44,-42.42L-484.78,-51.06C-488.89,-60.00 -489.60,-73.41 -490.20,-85.61L-489.64,-184.26C-481.64,-177.20 -474.08,-170.01 -465.35,-162.17L-396.56,-93.73L-396.49,-93.50L-383.65,-80.92L-377.04,-82.86L-363.24,-220.79C-356.89,-213.49 -350.21,-205.05 -342.91,-195.31L-299.67,-134.72C-293.64,-125.10 -288.56,-116.20 -286.72,-109.06L-220.62,-128.42C-237.73,-141.23 -254.45,-162.81 -267.84,-180.67ZM-12.43,-230.47L-20.97,-259.65C-30.65,-292.69 -55.04,-310.05 -123.65,-289.96C-156.47,-280.35 -198.26,-255.74 -216.49,-234.31L-199.29,-203.47L-198.37,-203.73C-188.78,-213.23 -164.20,-245.91 -122.26,-258.20C-96.51,-265.74 -71.03,-261.57 -66.89,-247.44L-64.96,-240.83C-77.73,-238.82 -114.47,-229.05 -129.06,-224.78C-176.47,-210.89 -214.39,-183.21 -207.18,-158.59C-202.84,-143.77 -183.50,-134.34 -132.90,-149.16C-114.66,-154.50 -75.32,-190.03 -56.41,-211.65L-46.34,-177.23L3.43,-199.97L3.23,-200.66C0.94,-201.72 -5.42,-206.54 -12.43,-230.47ZM-130.58,-179.29C-145.40,-174.95 -158.86,-178.68 -160.53,-184.38C-164.27,-197.14 -148.50,-209.18 -63.02,-234.22L-58.35,-218.26C-87.13,-193.99 -112.12,-184.70 -130.58,-179.29ZM130.29,-360.86C118.54,-356.19 94.25,-329.27 76.61,-303.32L64.99,-342.98L14.28,-306.60C14.28,-306.60 25.88,-307.52 33.16,-282.68L47.18,-234.81C52.65,-216.12 50.59,-207.10 50.36,-207.04L105.75,-223.26C100.66,-232.16 94.90,-240.87 92.09,-250.44L79.88,-292.15C105.07,-321.06 147.40,-333.70 184.77,-321.88L186.79,-321.73L187.50,-371.68C171.25,-373.11 150.04,-368.63 130.29,-360.86ZM390.44,-374.19L391.81,-374.59L405.13,-422.05C369.75,-434.70 338.39,-426.01 311.72,-418.20C263.17,-403.99 215.17,-361.72 226.85,-321.83C237.93,-283.99 288.14,-273.95 341.47,-289.57C381.13,-301.18 412.46,-325.20 421.82,-340.57L417.73,-372.28L416.32,-372.86C404.36,-350.30 369.49,-329.94 339.41,-321.13C297.92,-308.99 268.72,-324.19 260.71,-351.54C254.37,-373.20 263.85,-389.83 291.21,-397.84C325.38,-409.58 367.56,-395.70 390.44,-374.19ZM-582.15,281.11C-515.14,261.48 -462.92,204.86 -480.01,146.51C-494.23,97.96 -553.29,81.36 -622.35,101.58C-689.36,121.20 -746.29,175.25 -729.20,233.59C-714.98,282.14 -651.21,301.33 -582.15,281.11ZM-562.29,254.26C-634.32,275.35 -676.49,226.82 -685.44,196.28C-693.98,167.10 -686.58,137.47 -644.64,125.18C-599.51,111.97 -536.84,130.74 -521.49,183.16C-513.55,210.28 -521.95,242.44 -562.29,254.26ZM-437.96,116.87L-409.01,108.40C-412.88,95.18 -416.53,71.74 -417.95,53.35L-461.49,66.10C-452.54,82.29 -441.83,103.65 -437.96,116.87ZM-215.34,75.93C-186.59,62.56 -163.74,44.24 -170.95,19.62C-177.76,-3.62 -217.21,-5.68 -271.01,10.07L-313.86,22.62L-376.99,41.11C-376.99,41.11 -368.02,46.40 -358.87,77.63L-335.39,160.34C-326.25,191.56 -330.27,200.66 -330.27,200.66L-287.19,188.04C-267.29,182.46 -238.57,174.05 -215.39,167.02C-158.05,150.72 -120.87,118.80 -128.81,91.67C-133.93,73.37 -156.48,61.42 -215.34,75.93ZM-290.27,27.10C-252.21,15.95 -223.28,14.16 -214.67,43.56C-210.07,59.29 -225.63,77.96 -254.35,86.37C-273.34,91.68 -286.86,93.66 -300.05,92.57L-308.66,63.17C-312.07,51.55 -313.62,42.85 -314.45,36.65C-307.10,33.02 -298.93,29.63 -290.27,27.10ZM-225.76,158.67C-247.86,165.14 -265.48,165.85 -278.05,164.33C-279.97,159.45 -282.30,153.20 -284.57,145.45L-296.51,104.65C-254.84,91.46 -190.45,79.78 -180.64,113.29C-173.97,136.08 -194.76,149.59 -225.76,158.67ZM0.81,-25.97C-10.94,-21.30 -35.23,5.62 -52.87,31.57L-64.49,-8.09L-115.20,28.29C-115.20,28.29 -103.60,27.37 -96.32,52.21L-82.30,100.08C-76.83,118.77 -78.89,127.79 -79.12,127.85L-23.73,111.63C-28.82,102.73 -34.58,94.02 -37.39,84.45L-49.60,42.74C-24.41,13.83 17.92,1.19 55.29,13.01L57.31,13.16L58.02,-36.79C41.77,-38.22 20.56,-33.74 0.81,-25.97ZM107.17,-83.60C124.04,-88.54 136.85,-99.72 134.58,-107.47C132.58,-114.31 122.77,-113.17 110.92,-109.69C92.91,-104.42 81.66,-92.96 83.87,-85.44C85.74,-79.06 96.69,-80.53 107.17,-83.60ZM129.23,66.09L186.44,49.34C186.44,49.34 177.45,46.53 167.64,13.02L143.55,-69.26L86.64,-36.26L86.97,-35.12C93.00,-35.65 104.86,-33.18 111.27,-11.30L117.38,10.42C131.87,59.88 129.23,66.09 129.23,66.09ZM314.55,-16.88C288.79,-9.34 258.49,-13.09 243.33,-31.91L392.39,-75.56C379.04,-121.15 336.09,-128.37 288.00,-114.29C231.93,-97.87 191.12,-53.00 201.53,-17.44C213.28,22.67 259.63,31.37 308.86,16.95C339.93,8.10 368.31,-11.59 384.42,-32.64L393.38,-63.73L392.14,-64.60C377.33,-44.18 339.85,-24.29 314.55,-16.88ZM266.32,-92.84C293.67,-100.85 324.88,-101.58 340.64,-76.50L237.85,-40.45C236.96,-42.67 236.06,-44.88 235.40,-47.16C229.26,-68.13 238.74,-84.76 266.32,-92.84ZM600.59,-71.94L653.24,-87.36C653.24,-87.36 647.44,-91.11 636.72,-124.35L628.37,-152.84C618.03,-188.17 587.67,-200.56 531.05,-183.48C526.26,-182.08 489.47,-156.46 470.22,-127.56L460.14,-161.97L412.79,-133.51C413.77,-133.55 419.85,-131.37 426.53,-108.58L433.97,-82.30C448.46,-32.84 448.10,-27.29 448.10,-27.29L500.76,-42.71C500.76,-42.71 494.04,-46.19 484.23,-79.69L473.09,-117.76C488.07,-136.74 507.32,-145.35 522.14,-149.69C563.62,-161.84 580.25,-148.15 586.66,-126.27L587.79,-122.39C600.07,-80.46 600.59,-71.94 600.59,-71.94Z" fill="#ffffff" stroke="#000000"/>
    <path d="M-664.11,-30.83L-713.49,-13.26L-731.05,-62.63L-741.24,-59.01L-723.67,-9.64L-773.04,7.93L-769.42,18.12L-720.05,0.55L-702.48,49.92L-692.29,46.30L-709.86,-3.08L-660.49,-20.64ZM-279.14,-158.84L-318.73,-205.61C-328.03,-217.02 -335.51,-226.83 -345.58,-243.20L-406.68,-221.46C-401.63,-217.77 -395.28,-212.54 -387.78,-205.48L-395.83,-121.55L-448.73,-168.58C-458.51,-177.82 -466.84,-185.83 -476.65,-196.56L-537.53,-174.90C-529.49,-170.52 -522.27,-166.36 -515.80,-162.18L-512.26,-45.70C-512.10,-34.03 -512.44,-17.45 -513.97,-8.43L-486.15,-18.58C-490.71,-27.18 -492.16,-40.38 -493.44,-52.40L-498.45,-149.89C-490.15,-143.37 -482.28,-136.69 -473.22,-129.44L-401.40,-65.70L-401.32,-65.47L-387.92,-53.78L-381.50,-56.06L-375.64,-193.09C-368.96,-186.24 -361.89,-178.28 -354.12,-169.07L-308.00,-111.65C-301.49,-102.49 -295.97,-93.98 -293.75,-87.04L-229.54,-109.89C-247.17,-121.57 -264.90,-141.95 -279.14,-158.84ZM-29.63,-222.43L-39.72,-250.77C-51.14,-282.87 -76.21,-298.64 -142.85,-274.93C-174.73,-263.58 -214.63,-236.92 -231.43,-214.73L-212.70,-185.22L-211.82,-185.54C-202.87,-195.45 -180.43,-229.13 -139.70,-243.63C-114.68,-252.53 -89.28,-249.84 -84.39,-236.12L-82.11,-229.70C-94.62,-226.99 -130.35,-215.27 -144.52,-210.23C-190.58,-193.84 -226.48,-164.36 -217.97,-140.44C-212.85,-126.05 -193.21,-117.83 -144.06,-135.32C-126.35,-141.62 -89.49,-178.93 -72.02,-201.36L-60.13,-167.93L-12.25,-193.19L-12.48,-193.86C-14.81,-194.78 -21.36,-199.18 -29.63,-222.43ZM-143.47,-165.21C-157.86,-160.09 -171.37,-163.01 -173.34,-168.55C-177.75,-180.94 -162.85,-193.73 -79.82,-223.28L-74.31,-207.78C-101.37,-182.18 -125.54,-171.59 -143.47,-165.21ZM104.01,-359.28C92.66,-354.00 70.19,-326.04 54.22,-299.41L40.51,-337.93L-7.54,-299.13C-7.54,-299.13 3.87,-300.70 12.46,-276.57L29.01,-230.07C35.47,-211.92 33.94,-202.89 33.72,-202.81L87.52,-221.96C81.99,-230.47 75.81,-238.74 72.50,-248.04L58.08,-288.56C81.34,-318.54 122.44,-333.41 160.02,-323.84L162.03,-323.80L159.92,-373.19C143.78,-373.68 123.08,-368.06 104.01,-359.28ZM360.25,-387.10L361.58,-387.58L372.07,-435.21C336.40,-445.71 305.91,-435.36 280.01,-426.15C232.85,-409.37 187.81,-364.90 201.60,-326.16C214.67,-289.41 264.84,-282.31 316.65,-300.75C355.17,-314.46 384.76,-339.95 393.14,-355.66L387.31,-386.76L385.89,-387.25C375.35,-364.29 342.05,-342.21 312.83,-331.82C272.53,-317.48 242.83,-330.85 233.37,-357.42C225.89,-378.45 234.32,-395.42 260.89,-404.88C293.99,-418.40 336.44,-407.06 360.25,-387.10ZM-563.61,315.04C-498.52,291.88 -450.13,233.01 -470.30,176.33C-487.08,129.17 -546.36,116.09 -613.44,139.96C-678.53,163.12 -731.73,219.72 -711.56,276.40C-694.78,323.56 -630.70,338.92 -563.61,315.04ZM-545.51,287.40C-615.48,312.30 -659.87,266.74 -670.43,237.07C-680.52,208.73 -674.87,179.03 -634.13,164.54C-590.29,148.94 -527.33,163.95 -509.21,214.87C-499.84,241.22 -506.33,273.46 -545.51,287.40ZM-430.42,144.68L-402.31,134.67C-406.88,121.83 -411.80,98.89 -414.24,80.80L-456.53,95.85C-446.78,111.34 -434.99,131.84 -430.42,144.68ZM-212.82,91.69C-185.17,76.86 -163.63,57.48 -172.14,33.57C-180.17,10.98 -219.27,11.17 -271.52,29.77L-313.14,44.58L-374.47,66.40C-374.47,66.40 -365.31,71.12 -354.51,101.45L-326.66,181.84C-315.86,212.17 -319.32,221.38 -319.32,221.38L-277.48,206.49C-258.14,199.86 -230.24,189.93 -207.74,181.68C-152.01,162.34 -117.08,128.71 -126.45,102.37C-132.54,84.58 -155.49,74.04 -212.82,91.69ZM-289.59,47.67C-252.62,34.52 -224.14,31.12 -213.98,59.68C-208.54,74.96 -222.87,94.27 -250.77,104.20C-269.22,110.52 -282.47,113.24 -295.56,112.90L-305.73,84.34C-309.74,73.05 -311.77,64.55 -312.94,58.47C-305.88,54.47 -298.00,50.67 -289.59,47.67ZM-218.44,174.01C-239.92,181.65 -257.28,183.34 -269.78,182.55C-271.96,177.84 -274.61,171.80 -277.29,164.27L-291.39,124.64C-250.97,109.26 -188.02,94.09 -176.44,126.64C-168.56,148.78 -188.33,163.30 -218.44,174.01ZM-5.03,-21.16C-16.37,-15.87 -38.85,12.08 -54.82,38.71L-68.53,0.19L-116.58,38.99C-116.58,38.99 -105.17,37.42 -96.58,61.55L-80.03,108.05C-73.57,126.20 -75.10,135.23 -75.32,135.31L-21.52,116.16C-27.05,107.65 -33.23,99.38 -36.54,90.08L-50.96,49.56C-27.70,19.59 13.40,4.71 50.98,14.29L52.99,14.32L50.88,-35.07C34.74,-35.56 14.04,-29.94 -5.03,-21.16ZM96.79,-84.08C113.18,-89.91 125.21,-101.67 122.53,-109.20C120.16,-115.84 110.53,-114.16 99.02,-110.07C81.53,-103.84 71.07,-91.89 73.67,-84.58C75.87,-78.38 86.61,-80.46 96.79,-84.08ZM127.02,62.56L182.59,42.78C182.59,42.78 173.55,40.51 161.97,7.97L133.53,-71.96L79.18,-36.16L79.57,-35.05C85.50,-35.91 97.35,-34.14 104.92,-12.89L112.18,8.22C129.27,56.27 127.02,62.56 127.02,62.56ZM305.41,-29.85C280.39,-20.95 250.25,-22.95 234.21,-40.69L379.00,-92.21C363.25,-136.49 320.41,-141.20 273.70,-124.58C219.23,-105.20 181.45,-58.58 193.74,-24.04C207.60,14.93 253.88,20.91 301.70,3.89C331.89,-6.60 358.82,-27.66 373.55,-49.36L380.65,-80.57L379.37,-81.37C365.89,-60.36 329.99,-38.60 305.41,-29.85ZM253.49,-102.17C280.05,-111.63 310.85,-114.10 327.83,-90.21L228.32,-48.82C227.31,-50.95 226.30,-53.09 225.52,-55.30C218.27,-75.67 226.70,-92.64 253.49,-102.17ZM584.88,-100.37L636.02,-118.56C636.02,-118.56 630.08,-121.94 617.62,-154.17L607.77,-181.84C595.56,-216.16 564.87,-226.69 509.90,-206.63C505.25,-204.98 470.35,-177.59 452.95,-147.96L441.06,-181.39L395.89,-150.60C396.86,-150.69 402.99,-148.89 410.87,-126.75L419.70,-101.21C436.80,-53.16 436.76,-47.66 436.76,-47.66L487.91,-65.86C487.91,-65.86 481.08,-68.92 469.50,-101.46L456.34,-138.44C470.07,-158.04 488.61,-167.63 503.00,-172.75C543.29,-187.09 560.49,-174.50 568.06,-153.25L569.40,-149.48C583.89,-108.75 584.88,-100.37 584.88,-100.37Z" fill="#ffffff" stroke="#000000"/>
    <path d="M-661.78,11.70L-709.56,31.84L-729.69,-15.94L-739.55,-11.79L-719.41,35.99L-767.19,56.13L-763.04,65.98L-715.26,45.85L-695.12,93.63L-685.27,89.47L-705.40,41.69L-657.62,21.56ZM-288.73,-136.43L-330.47,-180.40C-340.30,-191.14 -348.24,-200.41 -359.11,-216.01L-418.24,-191.09C-413.04,-187.74 -406.47,-182.93 -398.67,-176.38L-401.89,-93.03L-456.79,-136.50C-466.97,-145.08 -475.66,-152.52 -485.94,-162.56L-544.86,-137.73C-536.67,-133.87 -529.31,-130.16 -522.68,-126.39L-512.62,-11.54C-511.81,-0.03 -511.21,16.37 -512.21,25.37L-485.30,13.78C-490.29,5.54 -492.47,-7.42 -494.41,-19.22L-504.85,-115.23C-496.28,-109.26 -488.14,-103.10 -478.77,-96.45L-404.24,-37.54L-404.15,-37.32L-390.26,-26.52L-384.05,-29.14L-385.98,-164.83C-378.99,-158.43 -371.56,-150.97 -363.37,-142.31L-314.57,-88.19C-307.64,-79.51 -301.70,-71.42 -299.12,-64.68L-236.98,-90.87C-255.05,-101.42 -273.71,-120.55 -288.73,-136.43ZM-45.86,-213.30L-57.42,-240.72C-70.51,-271.79 -96.16,-285.95 -160.65,-258.78C-191.50,-245.77 -229.41,-217.18 -244.75,-194.32L-224.59,-166.23L-223.73,-166.59C-215.46,-176.89 -195.19,-211.42 -155.77,-228.03C-131.56,-238.24 -106.32,-237.02 -100.72,-223.73L-98.10,-217.52C-110.30,-214.14 -144.95,-200.55 -158.66,-194.78C-203.22,-175.99 -237.02,-144.85 -227.27,-121.71C-221.40,-107.78 -201.54,-100.76 -153.98,-120.80C-136.84,-128.03 -102.53,-166.96 -86.55,-190.10L-72.91,-157.74L-27.04,-185.40L-27.31,-186.04C-29.66,-186.82 -36.38,-190.80 -45.86,-213.30ZM-155.08,-150.36C-169.01,-144.49 -182.52,-146.62 -184.78,-151.98C-189.83,-163.98 -175.83,-177.45 -95.48,-211.31L-89.16,-196.31C-114.45,-169.50 -137.73,-157.68 -155.08,-150.36ZM78.43,-356.00C67.53,-350.14 46.90,-321.27 32.63,-294.06L16.92,-331.34L-28.36,-290.31C-28.36,-290.31 -17.17,-292.50 -7.33,-269.14L11.63,-224.15C19.03,-206.58 18.03,-197.58 17.82,-197.49L69.88,-219.43C63.95,-227.53 57.37,-235.35 53.58,-244.35L37.05,-283.56C58.34,-314.48 98.10,-331.49 135.76,-324.15L137.74,-324.23L132.88,-372.89C116.91,-372.47 96.78,-365.75 78.43,-356.00ZM329.97,-397.92L331.26,-398.46L338.93,-446.10C303.11,-454.47 273.58,-442.53 248.51,-431.97C202.88,-412.73 160.89,-366.28 176.69,-328.78C191.68,-293.22 241.63,-289.04 291.77,-310.17C329.05,-325.88 356.84,-352.73 364.23,-368.71L356.72,-399.10L355.29,-399.51C346.17,-376.24 314.52,-352.56 286.24,-340.64C247.25,-324.21 217.16,-335.75 206.32,-361.46C197.74,-381.81 205.11,-399.04 230.82,-409.88C262.76,-425.10 305.32,-416.30 329.97,-397.92ZM-543.02,347.68C-480.03,321.13 -435.55,260.25 -458.66,205.40C-477.90,159.77 -537.19,150.19 -602.10,177.55C-665.09,204.09 -714.45,262.99 -691.34,317.84C-672.10,363.48 -607.94,375.04 -543.02,347.68ZM-526.70,319.36C-594.40,347.89 -640.83,305.39 -652.92,276.68C-664.48,249.25 -660.58,219.60 -621.16,202.99C-578.73,185.11 -515.70,196.39 -494.93,245.67C-484.19,271.16 -488.78,303.37 -526.70,319.36ZM-421.06,171.90L-393.85,160.43C-399.09,148.00 -405.24,125.62 -408.68,107.89L-449.60,125.14C-439.09,139.89 -426.30,159.47 -421.06,171.90ZM-209.10,107.30C-182.63,91.09 -162.45,70.73 -172.20,47.59C-181.41,25.74 -220.01,28.13 -270.58,49.44L-310.85,66.41L-370.20,91.42C-370.20,91.42 -360.88,95.57 -348.52,124.92L-316.47,202.75C-304.10,232.11 -307.00,241.40 -307.00,241.40L-266.50,224.34C-247.77,216.69 -220.78,205.32 -199.01,195.89C-145.06,173.66 -112.45,138.47 -123.20,112.98C-130.21,95.75 -153.48,86.63 -209.10,107.30ZM-287.42,68.14C-251.64,53.06 -223.70,48.10 -212.06,75.74C-205.83,90.53 -218.89,110.41 -245.89,121.79C-263.76,129.07 -276.69,132.50 -289.64,132.91L-301.29,105.27C-305.89,94.35 -308.38,86.06 -309.87,80.13C-303.13,75.77 -295.56,71.57 -287.42,68.14ZM-210.02,188.93C-230.81,197.69 -247.86,200.33 -260.25,200.25C-262.67,195.72 -265.62,189.90 -268.69,182.62L-284.86,144.27C-245.80,126.80 -184.47,108.27 -171.20,139.77C-162.17,161.19 -180.89,176.65 -210.02,188.93ZM-10.22,-15.88C-21.13,-10.02 -41.76,18.86 -56.03,46.07L-71.74,8.79L-117.01,49.82C-117.01,49.82 -105.83,47.63 -95.99,70.98L-77.02,115.97C-69.62,133.54 -70.62,142.54 -70.84,142.63L-18.77,120.69C-24.71,112.60 -31.29,104.77 -35.08,95.77L-51.60,56.56C-30.32,25.64 9.44,8.64 47.10,15.98L49.09,15.90L44.22,-32.77C28.25,-32.34 8.12,-25.63 -10.22,-15.88ZM86.81,-83.77C102.67,-90.45 113.89,-102.74 110.82,-110.03C108.11,-116.46 98.69,-114.25 87.55,-109.56C70.62,-102.43 60.96,-90.03 63.94,-82.96C66.47,-76.96 76.96,-79.61 86.81,-83.77ZM124.93,59.37L178.71,36.71C178.71,36.71 169.65,34.97 156.38,3.48L123.79,-73.86L72.11,-35.44L72.56,-34.36C78.37,-35.55 90.18,-34.47 98.85,-13.90L107.21,6.54C126.80,53.03 124.93,59.37 124.93,59.37ZM295.93,-41.96C271.72,-31.76 241.83,-32.03 224.99,-48.65L365.11,-107.70C347.05,-150.55 304.48,-152.79 259.27,-133.74C206.56,-111.53 171.87,-63.35 185.95,-29.92C201.84,7.78 247.89,11.09 294.17,-8.42C323.40,-20.48 348.81,-42.80 362.14,-65.07L367.39,-96.30L366.08,-97.01C353.96,-75.49 319.71,-51.98 295.93,-41.96ZM240.57,-110.47C266.28,-121.30 296.56,-125.48 314.68,-102.84L218.72,-56.35C217.60,-58.40 216.48,-60.45 215.58,-62.59C207.27,-82.30 214.64,-99.54 240.57,-110.47ZM568.00,-127.35L617.50,-148.21C617.50,-148.21 611.44,-151.21 597.31,-182.34L586.02,-209.12C572.03,-242.33 541.12,-251.01 487.96,-228.09C483.46,-226.20 450.52,-197.18 435.01,-166.93L421.38,-199.28L378.50,-166.32C379.45,-166.47 385.61,-165.03 394.64,-143.60L404.80,-118.87C424.40,-72.38 424.67,-66.95 424.67,-66.95L474.16,-87.80C474.16,-87.80 467.25,-90.44 453.98,-121.94L438.90,-157.72C451.35,-177.85 469.12,-188.37 483.05,-194.24C522.04,-210.67 539.74,-199.21 548.41,-178.64L549.94,-174.99C566.56,-135.57 568.00,-127.35 568.00,-127.35Z" fill="#ffffff" stroke="#000000"/>
    <path d="M-656.68,53.75L-702.74,76.33L-725.31,30.27L-734.81,34.93L-712.24,80.98L-758.29,103.56L-753.63,113.06L-707.58,90.48L-685.00,136.54L-675.50,131.88L-698.08,85.83L-652.02,63.25ZM-296.59,-113.57L-340.29,-154.64C-350.60,-164.70 -358.97,-173.41 -370.58,-188.21L-427.58,-160.26C-422.25,-157.24 -415.50,-152.87 -407.42,-146.84L-405.91,-64.33L-462.58,-104.17C-473.11,-112.07 -482.11,-118.93 -492.84,-128.27L-549.63,-100.43C-541.32,-97.07 -533.84,-93.82 -527.08,-90.48L-510.68,22.39C-509.23,33.71 -507.71,49.87 -508.19,58.82L-482.27,45.86C-487.66,38.00 -490.54,25.32 -493.13,13.78L-508.85,-80.46C-500.04,-75.04 -491.65,-69.42 -482.03,-63.38L-405.10,-9.39L-405.00,-9.19L-390.68,0.70L-384.69,-2.24L-394.23,-136.14C-386.98,-130.22 -379.21,-123.27 -370.64,-115.18L-319.40,-64.47C-312.05,-56.29 -305.74,-48.63 -302.81,-42.13L-242.92,-71.49C-261.36,-80.89 -280.86,-98.73 -296.59,-113.57ZM-61.05,-203.17L-74.01,-229.60C-88.69,-259.55 -114.82,-272.10 -176.99,-241.62C-206.72,-227.04 -242.55,-196.67 -256.42,-173.22L-234.92,-146.62L-234.10,-147.02C-226.50,-157.66 -208.43,-192.90 -170.43,-211.53C-147.10,-222.97 -122.10,-223.19 -115.82,-210.39L-112.89,-204.40C-124.75,-200.38 -158.19,-185.00 -171.41,-178.52C-214.37,-157.46 -246.00,-124.79 -235.06,-102.49C-228.48,-89.07 -208.47,-83.25 -162.62,-105.73C-146.10,-113.83 -114.41,-154.21 -99.93,-177.96L-84.64,-146.78L-40.89,-176.68L-41.20,-177.30C-43.56,-177.93 -50.42,-181.48 -61.05,-203.17ZM-165.38,-134.86C-178.80,-128.28 -192.26,-129.62 -194.79,-134.78C-200.46,-146.35 -187.39,-160.44 -109.95,-198.41L-102.86,-183.95C-126.33,-156.05 -148.65,-143.06 -165.38,-134.86ZM53.67,-351.11C43.23,-344.71 24.48,-315.03 11.92,-287.36L-5.70,-323.29L-48.11,-280.21C-48.11,-280.21 -37.18,-283.01 -26.15,-260.50L-4.88,-217.13C3.42,-200.19 2.94,-191.25 2.73,-191.15L52.91,-215.75C46.60,-223.41 39.66,-230.77 35.41,-239.44L16.88,-277.24C36.16,-308.97 74.47,-328.01 112.08,-322.88L114.03,-323.07L106.49,-370.86C90.74,-369.54 71.24,-361.77 53.67,-351.11ZM299.74,-406.69L300.97,-407.29L305.87,-454.78C270.02,-461.02 241.53,-447.57 217.36,-435.72C173.38,-414.16 134.53,-365.91 152.25,-329.77C169.05,-295.49 218.62,-294.17 266.95,-317.86C302.88,-335.48 328.82,-363.56 335.22,-379.77L326.09,-409.36L324.65,-409.68C316.96,-386.18 287.03,-361.01 259.77,-347.65C222.19,-329.22 191.82,-338.92 179.67,-363.70C170.05,-383.32 176.36,-400.76 201.14,-412.91C231.82,-429.74 274.36,-423.45 299.74,-406.69ZM-520.47,378.88C-459.75,349.12 -419.25,286.48 -445.17,233.61C-466.73,189.62 -525.83,183.50 -588.40,214.18C-649.12,243.95 -694.55,304.90 -668.63,357.77C-647.06,401.76 -583.04,409.56 -520.47,378.88ZM-505.94,349.99C-571.20,381.98 -619.44,342.62 -633.01,314.95C-645.97,288.51 -643.79,259.01 -605.79,240.38C-564.90,220.33 -502.00,227.92 -478.72,275.42C-466.67,300.00 -469.39,332.07 -505.94,349.99ZM-409.92,198.40L-383.69,185.54C-389.56,173.57 -396.90,151.80 -401.29,134.49L-440.73,153.83C-429.53,167.80 -415.79,186.42 -409.92,198.40ZM-204.22,122.66C-178.98,105.16 -160.20,83.92 -171.13,61.61C-181.46,40.55 -219.45,45.08 -268.19,68.98L-307.01,88.01L-364.22,116.06C-364.22,116.06 -354.78,119.63 -340.91,147.92L-304.88,222.98C-291.01,251.28 -293.35,260.62 -293.35,260.62L-254.31,241.48C-236.25,232.88 -210.22,220.13 -189.26,209.59C-137.22,184.59 -107.00,148.00 -119.05,123.43C-126.95,106.81 -150.44,99.11 -204.22,122.66ZM-283.77,88.40C-249.28,71.49 -221.97,65.02 -208.91,91.66C-201.92,105.91 -213.71,126.29 -239.73,139.04C-256.97,147.24 -269.55,151.36 -282.32,152.49L-295.38,125.85C-300.54,115.32 -303.46,107.28 -305.27,101.50C-298.85,96.82 -291.62,92.25 -283.77,88.40ZM-200.53,203.33C-220.56,213.15 -237.25,216.73 -249.50,217.35C-252.14,213.01 -255.38,207.43 -258.83,200.41L-276.95,163.44C-239.36,143.99 -179.83,122.23 -164.95,152.59C-154.83,173.24 -172.44,189.56 -200.53,203.33ZM-14.73,-10.20C-25.17,-3.80 -43.92,25.89 -56.48,53.56L-74.10,17.63L-116.50,60.70C-116.50,60.70 -105.58,57.91 -94.54,80.42L-73.28,123.79C-64.98,140.72 -65.46,149.67 -65.67,149.77L-15.48,125.17C-21.80,117.50 -28.74,110.15 -32.99,101.47L-51.52,63.68C-32.24,31.94 6.07,12.91 43.68,18.03L45.63,17.84L38.09,-29.94C22.34,-28.63 2.84,-20.86 -14.73,-10.20ZM77.28,-82.71C92.56,-90.21 102.95,-102.98 99.51,-110.00C96.47,-116.20 87.29,-113.49 76.55,-108.23C60.24,-100.23 51.40,-87.44 54.74,-80.63C57.57,-74.84 67.78,-78.06 77.28,-82.71ZM122.99,56.51L174.83,31.10C174.83,31.10 165.79,29.89 150.90,-0.46L114.35,-75.02L65.48,-34.15L65.99,-33.12C71.66,-34.62 83.38,-34.22 93.10,-14.39L102.51,5.33C124.48,50.14 122.99,56.51 122.99,56.51ZM286.17,-53.20C262.83,-41.76 233.30,-40.35 215.73,-55.81L350.79,-122.03C330.54,-163.33 288.37,-163.15 244.79,-141.78C193.99,-116.88 162.43,-67.34 178.23,-35.12C196.05,1.23 241.71,1.89 286.32,-19.98C314.51,-33.54 338.35,-57.01 350.25,-79.75L353.69,-110.89L352.35,-111.52C341.59,-89.59 309.09,-64.44 286.17,-53.20ZM227.63,-117.74C252.41,-129.89 282.08,-135.73 301.25,-114.39L209.10,-63.06C207.88,-65.03 206.66,-66.99 205.65,-69.06C196.33,-88.06 202.64,-105.49 227.63,-117.74ZM550.07,-152.87L597.78,-176.26C597.78,-176.26 591.62,-178.88 575.91,-208.83L563.26,-234.64C547.57,-266.65 516.55,-273.48 465.33,-247.86C461.00,-245.73 430.11,-215.22 416.49,-184.46L401.21,-215.65L360.71,-180.68C361.64,-180.88 367.80,-179.80 377.93,-159.15L389.36,-135.30C411.33,-90.49 411.91,-85.13 411.91,-85.13L459.62,-108.52C459.62,-108.52 452.64,-110.74 437.75,-141.09L420.85,-175.58C432.01,-196.17 448.97,-207.56 462.40,-214.14C499.98,-232.57 518.11,-222.24 527.83,-202.42L529.55,-198.90C548.18,-160.91 550.07,-152.87 550.07,-152.87Z" fill="#ffffff" stroke="#000000"/>
    <path d="M-648.88,95.12L-693.09,120.02L-717.98,75.81L-727.10,80.94L-702.21,125.15L-746.41,150.04L-741.28,159.16L-697.07,134.27L-672.18,178.48L-663.06,173.34L-687.95,129.13L-643.75,104.24ZM-302.70,-90.39L-348.18,-128.49C-358.92,-137.84 -367.68,-145.97 -379.98,-159.93L-434.69,-129.12C-429.26,-126.43 -422.34,-122.50 -414.03,-117.00L-407.88,-35.61L-466.09,-71.76C-476.94,-78.96 -486.21,-85.23 -497.33,-93.85L-551.85,-63.16C-543.46,-60.31 -535.88,-57.53 -529.02,-54.60L-506.47,55.93C-504.39,67.03 -501.98,82.91 -501.95,91.77L-477.09,77.51C-482.85,70.05 -486.42,57.69 -489.62,46.44L-510.45,-45.74C-501.45,-40.88 -492.85,-35.81 -483.01,-30.38L-403.99,18.60L-403.88,18.80L-389.18,27.75L-383.43,24.51L-400.40,-107.18C-392.90,-101.74 -384.85,-95.31 -375.92,-87.80L-322.46,-40.62C-314.75,-32.95 -308.08,-25.74 -304.82,-19.49L-247.33,-51.86C-266.07,-60.10 -286.34,-76.63 -302.70,-90.39ZM-75.15,-192.14L-89.44,-217.51C-105.62,-246.26 -132.14,-257.18 -191.81,-223.58C-220.35,-207.51 -254.02,-175.49 -266.39,-151.56L-243.67,-126.50L-242.87,-126.94C-235.98,-137.88 -220.12,-173.70 -183.64,-194.24C-161.24,-206.85 -136.57,-208.47 -129.65,-196.18L-126.41,-190.43C-137.90,-185.79 -170.06,-168.73 -182.75,-161.58C-223.98,-138.37 -253.37,-104.32 -241.32,-82.91C-234.07,-70.03 -213.97,-65.41 -169.97,-90.19C-154.11,-99.12 -125.09,-140.79 -112.12,-165.06L-95.27,-135.12L-53.75,-167.11L-54.09,-167.71C-56.46,-168.20 -63.43,-171.32 -75.15,-192.14ZM-174.33,-118.81C-187.21,-111.55 -200.58,-112.12 -203.38,-117.07C-209.63,-128.17 -197.51,-142.83 -123.17,-184.68L-115.36,-170.81C-136.96,-141.93 -158.27,-127.85 -174.33,-118.81ZM29.80,-344.70C19.85,-337.79 3.01,-307.42 -7.83,-279.38L-27.26,-313.88L-66.71,-268.95C-66.71,-268.95 -56.08,-272.33 -43.91,-250.72L-20.47,-209.09C-11.32,-192.83 -11.29,-183.97 -11.49,-183.86L36.68,-210.98C30.01,-218.19 22.75,-225.07 18.06,-233.39L-2.37,-269.67C14.88,-302.10 51.64,-323.06 89.07,-320.11L90.99,-320.41L80.85,-367.17C65.37,-364.99 46.55,-356.22 29.80,-344.70ZM269.67,-413.44L270.86,-414.11L273.02,-461.28C237.27,-465.42 209.89,-450.53 186.69,-437.47C144.47,-413.70 108.82,-363.86 128.35,-329.17C146.88,-296.26 195.91,-297.76 242.29,-323.88C276.79,-343.30 300.82,-372.49 306.23,-388.85L295.54,-417.56L294.11,-417.80C287.83,-394.16 259.70,-367.62 233.53,-352.88C197.45,-332.57 166.91,-340.44 153.52,-364.23C142.92,-383.06 148.16,-400.64 171.95,-414.03C201.30,-432.38 243.66,-428.56 269.67,-413.44ZM-496.05,408.53C-437.77,375.72 -401.30,311.58 -429.87,260.83C-453.65,218.61 -512.35,215.89 -572.42,249.71C-630.70,282.53 -672.13,345.28 -643.55,396.02C-619.78,438.25 -556.12,442.35 -496.05,408.53ZM-483.33,379.18C-545.98,414.45 -595.84,378.30 -610.79,351.73C-625.08,326.36 -624.58,297.10 -588.11,276.56C-548.86,254.46 -486.32,258.41 -460.65,304.01C-447.37,327.60 -448.25,359.42 -483.33,379.18ZM-397.05,224.07L-371.87,209.90C-378.34,198.40 -386.82,177.32 -392.13,160.47L-429.99,181.79C-418.14,194.96 -403.52,212.58 -397.05,224.07ZM-198.18,137.69C-174.24,118.99 -156.89,96.95 -168.94,75.54C-180.33,55.32 -217.59,61.94 -264.37,88.28L-301.64,109.27L-356.56,140.18C-356.56,140.18 -347.04,143.18 -331.75,170.34L-291.94,242.43C-276.64,269.59 -278.42,278.95 -278.42,278.95L-240.96,257.85C-223.60,248.34 -198.62,234.28 -178.51,222.70C-128.53,195.08 -100.75,157.24 -114.03,133.65C-122.76,117.68 -146.40,111.41 -198.18,137.69ZM-278.67,108.34C-245.56,89.70 -218.96,81.77 -204.56,107.34C-196.86,121.02 -207.35,141.81 -232.32,155.87C-248.89,164.94 -261.08,169.71 -273.62,171.55L-288.02,145.98C-293.71,135.87 -297.05,128.09 -299.16,122.49C-293.09,117.50 -286.20,112.58 -278.67,108.34ZM-189.99,217.15C-209.22,227.98 -225.50,232.44 -237.56,233.75C-240.41,229.61 -243.93,224.28 -247.73,217.54L-267.71,182.06C-231.68,160.73 -174.12,135.90 -157.72,165.04C-146.56,184.86 -163.03,201.97 -189.99,217.15ZM-18.54,-4.18C-28.49,2.73 -45.33,33.09 -56.18,61.13L-75.60,26.64L-115.05,71.57C-115.05,71.57 -104.42,68.19 -92.25,89.80L-68.81,131.43C-59.66,147.68 -59.63,156.54 -59.83,156.66L-11.66,129.53C-18.33,122.32 -25.59,115.45 -30.28,107.12L-50.71,70.85C-33.46,38.42 3.30,17.46 40.73,20.41L42.65,20.11L32.51,-26.66C17.03,-24.47 -1.79,-15.70 -18.54,-4.18ZM68.24,-80.98C82.91,-89.24 92.45,-102.44 88.65,-109.18C85.30,-115.13 76.39,-111.94 66.08,-106.13C50.42,-97.32 42.41,-84.19 46.09,-77.65C49.22,-72.10 59.12,-75.84 68.24,-80.98ZM121.22,53.93L170.98,25.92C170.98,25.92 161.98,25.24 145.58,-3.90L105.28,-75.47L59.32,-32.36L59.88,-31.37C65.40,-33.16 76.99,-33.43 87.71,-14.40L98.11,4.55C122.34,47.56 121.22,53.93 121.22,53.93ZM276.18,-63.60C253.78,-50.99 224.70,-47.93 206.47,-62.21L336.12,-135.21C313.80,-174.85 272.16,-172.30 230.33,-148.74C181.57,-121.29 153.19,-70.59 170.61,-39.66C190.25,-4.77 235.38,-6.69 278.20,-30.80C305.28,-45.78 327.50,-70.30 337.97,-93.43L339.61,-124.38L338.26,-124.92C328.86,-102.66 298.19,-75.99 276.18,-63.60ZM214.74,-124.04C238.53,-137.43 267.50,-144.87 287.63,-124.87L199.52,-69.00C198.20,-70.87 196.89,-72.74 195.77,-74.72C185.51,-92.96 190.75,-110.53 214.74,-124.04ZM531.18,-176.89L576.97,-202.67C576.97,-202.67 570.75,-204.91 553.55,-233.61L539.60,-258.39C522.30,-289.11 491.29,-294.11 442.15,-265.92C437.99,-263.57 409.20,-231.70 397.49,-200.56L380.63,-230.50L342.62,-193.69C343.52,-193.94 349.67,-193.22 360.83,-173.40L373.47,-150.49C397.69,-107.47 398.56,-102.22 398.56,-102.22L444.35,-128.00C444.35,-128.00 437.34,-129.79 420.93,-158.93L402.29,-192.04C412.16,-213.00 428.26,-225.20 441.15,-232.46C477.23,-252.77 495.71,-243.60 506.42,-224.56L508.32,-221.19C528.86,-184.72 531.18,-176.89 531.18,-176.89Z" fill="#ffffff" stroke="#000000"/>
    <path d="M-638.44,135.66L-680.69,162.73L-707.76,120.48L-716.47,126.06L-689.41,168.31L-731.65,195.38L-726.07,204.09L-683.82,177.02L-656.76,219.27L-648.04,213.69L-675.11,171.44L-632.86,144.37ZM-307.07,-67.01L-354.12,-102.07C-365.26,-110.70 -374.36,-118.23 -387.29,-131.33L-439.58,-97.83C-434.07,-95.48 -427.01,-91.98 -418.49,-87.02L-407.84,-7.00L-467.36,-39.41C-478.47,-45.92 -487.98,-51.59 -499.45,-59.47L-551.55,-26.09C-543.10,-23.76 -535.47,-21.43 -528.52,-18.93L-500.03,88.94C-497.36,99.78 -494.08,115.32 -493.55,124.07L-469.80,108.59C-475.92,101.55 -480.13,89.55 -483.93,78.62L-509.69,-11.23C-500.53,-6.94 -491.75,-2.41 -481.72,2.39L-400.95,46.30L-400.83,46.49L-385.81,54.51L-380.31,50.99L-404.49,-78.09C-396.78,-73.14 -388.46,-67.25 -379.22,-60.34L-323.78,-16.76C-315.73,-9.63 -308.74,-2.88 -305.17,3.11L-250.23,-32.09C-269.20,-39.17 -290.14,-54.35 -307.07,-67.01ZM-88.12,-180.30L-103.65,-204.55C-121.25,-232.02 -148.05,-241.31 -205.07,-204.77C-232.36,-187.30 -263.80,-153.79 -274.67,-129.46L-250.81,-106.00L-250.06,-106.48C-243.86,-117.66 -230.22,-153.93 -195.36,-176.26C-173.95,-189.98 -149.68,-192.97 -142.15,-181.22L-138.63,-175.73C-149.71,-170.50 -180.51,-151.84 -192.64,-144.07C-232.04,-118.82 -259.15,-83.55 -246.04,-63.09C-238.15,-50.78 -218.05,-47.35 -176.00,-74.30C-160.84,-84.01 -134.53,-126.78 -123.10,-151.48L-104.77,-122.87L-65.58,-156.79L-65.94,-157.36C-68.31,-157.72 -75.37,-160.41 -88.12,-180.30ZM-181.91,-102.31C-194.23,-94.42 -207.46,-94.22 -210.50,-98.96C-217.29,-109.57 -206.16,-124.72 -135.11,-170.23L-126.62,-156.97C-146.32,-127.25 -166.57,-112.14 -181.91,-102.31ZM6.92,-336.85C-2.51,-329.47 -17.43,-298.53 -26.56,-270.24L-47.68,-303.20L-84.11,-256.62C-84.11,-256.62 -73.80,-260.55 -60.57,-239.90L-35.08,-200.12C-25.13,-184.58 -24.60,-175.83 -24.79,-175.71L21.25,-205.20C14.26,-211.95 6.70,-218.33 1.60,-226.28L-20.61,-260.95C-5.41,-293.94 29.71,-316.71 66.83,-315.91L68.71,-316.31L56.06,-361.92C40.90,-358.88 22.81,-349.17 6.92,-336.85ZM239.90,-418.23L241.04,-418.96L240.51,-465.66C204.98,-467.74 178.78,-451.49 156.61,-437.29C116.26,-411.44 83.87,-360.22 105.11,-327.07C125.26,-295.62 173.58,-299.86 217.91,-328.26C250.88,-349.38 272.96,-379.56 277.38,-396.02L265.21,-423.76L263.78,-423.91C258.92,-400.22 232.63,-372.43 207.63,-356.41C173.15,-334.32 142.55,-340.37 127.98,-363.10C116.45,-381.10 120.64,-398.75 143.38,-413.31C171.33,-433.09 213.37,-431.70 239.90,-418.23ZM-469.88,436.51C-414.18,400.83 -381.79,335.44 -412.86,286.94C-438.71,246.59 -496.83,247.22 -554.23,283.99C-609.93,319.68 -647.31,383.97 -616.23,432.47C-590.38,472.82 -527.29,473.29 -469.88,436.51ZM-458.98,406.81C-518.85,445.17 -570.12,412.28 -586.38,386.89C-601.92,362.64 -603.07,333.72 -568.22,311.39C-530.70,287.35 -468.73,287.74 -440.82,331.31C-426.37,353.85 -425.45,385.33 -458.98,406.81ZM-382.52,248.80L-358.45,233.39C-365.49,222.40 -375.05,202.06 -381.24,185.72L-417.43,208.91C-404.98,221.24 -389.56,237.81 -382.52,248.80ZM-191.02,152.30C-168.44,132.49 -152.54,109.75 -165.65,89.29C-178.03,69.97 -214.45,78.60 -259.16,107.25L-294.78,130.06L-347.26,163.69C-347.26,163.69 -337.69,166.11 -321.06,192.06L-277.70,261.01C-261.07,286.96 -262.30,296.30 -262.30,296.30L-226.49,273.36C-209.89,262.99 -186.02,247.70 -166.81,235.13C-119.02,205.05 -93.72,166.12 -108.16,143.58C-117.68,128.30 -141.37,123.44 -191.02,152.30ZM-272.15,127.86C-240.51,107.59 -214.69,98.26 -199.03,122.70C-190.65,135.77 -199.84,156.89 -223.71,172.18C-239.56,182.06 -251.33,187.47 -263.61,189.99L-279.26,165.55C-285.45,155.89 -289.19,148.39 -291.58,142.98C-285.87,137.72 -279.35,132.47 -272.15,127.86ZM-178.46,230.30C-196.84,242.07 -212.66,247.40 -224.49,249.37C-227.54,245.45 -231.32,240.38 -235.45,233.94L-257.17,200.03C-222.80,176.94 -167.37,149.18 -149.53,177.03C-137.39,195.97 -152.69,213.79 -178.46,230.30ZM-21.63,2.10C-31.07,9.48 -45.99,40.42 -55.12,68.71L-76.24,35.75L-112.66,82.33C-112.66,82.33 -102.35,78.40 -89.12,99.05L-63.63,138.83C-53.68,154.37 -53.15,163.12 -53.34,163.24L-7.31,133.75C-14.30,127.00 -21.86,120.62 -26.96,112.67L-49.17,78.00C-33.96,45.01 1.15,22.24 38.28,23.04L40.16,22.64L27.51,-22.97C12.35,-19.93 -5.74,-10.22 -21.63,2.10ZM59.73,-78.61C73.75,-87.60 82.42,-101.17 78.29,-107.61C74.65,-113.29 66.04,-109.64 56.18,-103.33C41.22,-93.74 34.04,-80.33 38.05,-74.08C41.45,-68.77 51.01,-73.03 59.73,-78.61ZM119.64,51.61L167.20,21.15C167.20,21.15 158.27,20.99 140.43,-6.86L96.62,-75.26L53.66,-30.10L54.27,-29.16C59.61,-31.24 71.05,-32.16 82.70,-13.97L94.04,4.15C120.38,45.26 119.64,51.61 119.64,51.61ZM266.03,-73.17C244.62,-59.45 216.08,-54.79 197.28,-67.87L321.18,-147.25C296.91,-185.14 255.94,-180.27 215.96,-154.66C169.36,-124.80 144.20,-73.14 163.13,-43.59C184.50,-10.24 228.95,-14.68 269.88,-40.89C295.76,-57.21 316.32,-82.67 325.36,-106.10L325.24,-136.75L323.87,-137.21C315.85,-114.70 287.06,-86.64 266.03,-73.17ZM201.96,-129.39C224.69,-143.95 252.88,-152.92 273.89,-134.32L190.03,-74.18C188.63,-75.95 187.22,-77.73 186.01,-79.62C174.84,-97.05 179.03,-114.70 201.96,-129.39ZM511.44,-199.39L555.20,-227.43C555.20,-227.43 548.93,-229.29 530.33,-256.65L515.16,-280.34C496.35,-309.70 465.45,-312.89 418.51,-282.28C414.54,-279.74 387.91,-246.64 378.10,-215.24L359.77,-243.85L324.30,-205.36C325.18,-205.66 331.29,-205.29 343.43,-186.35L357.20,-164.44C383.54,-123.33 384.69,-118.19 384.69,-118.19L428.45,-146.23C428.45,-146.23 421.43,-147.60 403.59,-175.45L383.32,-207.09C391.88,-228.34 407.09,-241.30 419.41,-249.19C453.89,-271.28 472.66,-263.26 484.31,-245.07L486.37,-241.85C508.70,-206.99 511.44,-199.39 511.44,-199.39Z" fill="#ffffff" stroke="#000000"/>
    <path d="M-874.54,483.41L-875.23,482.23C-877.77,485.65 -882.03,487.71 -888.41,487.71C-896.24,487.71 -904.72,481.93 -904.72,474.71C-904.72,470.11 -900.76,466.50 -895.60,466.50C-885.26,466.50 -876.75,476.76 -876.75,476.76L-874.89,467.57C-874.89,467.57 -880.17,463.61 -889.93,463.61C-901.18,463.61 -910.34,469.81 -910.34,479.54C-910.34,487.25 -901.98,492.99 -892.59,492.99C-882.98,492.99 -876.52,486.87 -874.54,483.41ZM-855.20,492.76C-842.78,492.76 -834.45,486.49 -834.45,480.68C-834.45,475.51 -840.53,471.67 -850.38,471.67C-862.80,471.67 -871.12,477.94 -871.12,483.75C-871.12,488.92 -864.66,492.76 -855.20,492.76ZM-849.96,489.72C-858.55,489.72 -863.45,484.55 -863.45,480.37C-863.45,476.38 -859.27,474.71 -855.62,474.71C-849.16,474.71 -842.09,478.24 -842.13,484.02C-842.13,488.01 -846.31,489.72 -849.96,489.72ZM-802.42,481.74L-802.19,481.74L-798.01,475.05C-802.88,471.52 -808.08,471.44 -812.53,471.44C-820.62,471.44 -829.89,475.77 -829.89,482.42C-829.89,488.73 -822.64,492.53 -813.74,492.53C-807.13,492.53 -801.24,490.25 -799.11,488.31L-798.32,483.26L-798.51,483.11C-801.36,486.03 -807.63,487.59 -812.64,487.59C-819.56,487.59 -823.36,483.94 -823.36,479.38C-823.36,475.77 -821.15,473.65 -816.59,473.65C-810.82,473.38 -804.97,477.41 -802.42,481.74ZM-777.15,492.76C-764.72,492.76 -756.40,486.49 -756.40,480.68C-756.40,475.51 -762.48,471.67 -772.32,471.67C-784.75,471.67 -793.07,477.94 -793.07,483.75C-793.07,488.92 -786.61,492.76 -777.15,492.76ZM-771.91,489.72C-780.49,489.72 -785.40,484.55 -785.40,480.37C-785.40,476.38 -781.22,474.71 -777.57,474.71C-771.11,474.71 -764.04,478.24 -764.08,484.02C-764.08,488.01 -768.26,489.72 -771.91,489.72ZM-724.60,492L-715.82,492C-715.82,492 -716.54,491.16 -716.69,485.58L-716.69,480.83C-716.69,474.94 -720.80,471.67 -730.26,471.75C-731.06,471.75 -737.86,474.03 -742.11,477.60L-742.11,471.86L-750.66,474.10C-750.51,474.14 -749.68,474.75 -749.68,478.55L-749.71,482.92C-749.71,491.16 -750.02,492 -750.02,492L-741.24,492C-741.24,492 -742.11,491.16 -742.11,485.58L-742.11,479.23C-738.96,476.99 -735.62,476.53 -733.15,476.53C-726.23,476.53 -724.29,479.38 -724.29,483.03L-724.29,483.68C-724.29,490.67 -724.60,492 -724.60,492ZM-676.98,485.69L-676.98,480.83C-676.98,475.32 -679.95,471.56 -691.38,471.56C-696.86,471.56 -704.38,473.46 -708.14,475.93L-706.89,481.44L-706.74,481.44C-704.84,480.41 -699.59,476.50 -692.60,476.50C-688.31,476.50 -684.58,478.28 -684.58,480.64L-684.58,481.74C-686.63,481.47 -692.71,481.32 -695.15,481.32C-703.05,481.32 -710.12,483.87 -710.12,487.97C-710.12,490.44 -707.57,492.76 -699.14,492.76C-696.10,492.76 -688.46,489.07 -684.58,486.60L-684.58,492.34L-675.92,491.09L-675.92,490.97C-676.22,490.71 -676.98,489.68 -676.98,485.69ZM-697.43,488.24C-699.90,488.24 -701.80,487.06 -701.80,486.11C-701.80,483.98 -698.83,482.84 -684.58,482.84L-684.58,485.50C-690.09,487.93 -694.35,488.24 -697.43,488.24ZM-642.86,484.17C-644.87,486.87 -648.25,487.71 -650.50,487.71C-656.77,487.71 -659.08,485.39 -659.08,480.83L-659.08,474.82L-644.49,475.62L-643.81,470.87L-659.08,472.01L-659.08,466.96L-659.54,466.96C-661.90,469.85 -668.20,472.62 -673.33,473.11L-673.94,473.15L-673.94,474.03L-666.68,474.41L-666.68,482.31C-666.68,489.30 -662.35,492.76 -654.18,492.76C-650.42,492.76 -647.34,492.08 -644.83,490.21L-642.78,484.21ZM-635.75,480.18L-635.75,481.93L-623.82,481.93L-623.82,480.18ZM-591.33,478.02C-586.31,477.26 -581.98,475.47 -581.98,471.37C-581.98,467.49 -587.95,465.40 -596.92,465.40L-604.06,465.40L-614.59,465.40C-614.59,465.40 -613.45,466.62 -613.45,471.82L-613.56,485.58C-613.56,490.78 -614.59,492 -614.59,492L-607.40,492C-604.10,492.04 -599.31,492.04 -595.43,492C-585.90,492.08 -578.75,488.85 -578.75,484.32C-578.71,481.28 -581.64,478.43 -591.33,478.02ZM-600.64,467.15C-594.29,467.15 -589.77,468.17 -589.77,473.08C-589.77,475.70 -593.00,477.86 -597.79,477.86C-600.94,477.83 -603.11,477.52 -605.09,476.76L-605.09,471.86C-605.09,469.92 -604.93,468.52 -604.78,467.53C-603.49,467.30 -602.08,467.15 -600.64,467.15ZM-596.65,490.25C-600.34,490.25 -603.07,489.57 -604.93,488.77C-605.01,487.93 -605.09,486.87 -605.09,485.58L-605.09,478.78C-598.09,478.62 -587.68,479.73 -587.68,485.31C-587.68,489.11 -591.48,490.25 -596.65,490.25ZM-559.03,492.76C-546.60,492.76 -538.28,486.49 -538.28,480.68C-538.28,475.51 -544.36,471.67 -554.20,471.67C-566.63,471.67 -574.95,477.94 -574.95,483.75C-574.95,488.92 -568.49,492.76 -559.03,492.76ZM-553.79,489.72C-562.37,489.72 -567.28,484.55 -567.28,480.37C-567.28,476.38 -563.10,474.71 -559.45,474.71C-552.99,474.71 -545.92,478.24 -545.96,484.02C-545.96,488.01 -550.14,489.72 -553.79,489.72ZM-533.15,465.63L-533.15,465.89C-531.86,466.16 -530.80,467.03 -530.80,472.09L-530.80,482.92C-530.80,491.16 -531.52,492 -531.52,492L-521.98,492C-521.98,492 -523.20,491.16 -523.20,485.58L-523.20,462.17ZM-480.79,485.16L-480.79,462.17L-489.91,465.36L-489.91,465.55C-489.38,465.86 -488.39,466.96 -488.39,470.00L-488.39,473.65C-491.50,472.51 -494.92,472.01 -497.01,472.01C-506.86,472.01 -516.66,476.84 -516.66,483.64C-516.66,489.80 -510.88,492.76 -502.07,492.76C-499.18,492.76 -492.72,489.42 -488.39,486.19L-488.39,492.57L-479.72,490.59L-479.72,490.48C-480.03,490.18 -480.79,489.11 -480.79,485.16ZM-499.86,488.05C-504.35,488.09 -508.87,485.69 -508.87,480.75C-508.87,476.76 -504.69,474.52 -501.04,474.52C-494.51,474.60 -490.14,477.56 -488.39,480.83L-488.39,484.70C-492.15,487.48 -496.29,488.09 -499.86,488.05ZM-438.11,482.23C-443.47,491.16 -448.30,490.33 -463.50,490.25C-463.69,489.26 -463.88,487.78 -463.88,485.58L-463.88,478.81L-441.27,478.81L-441.27,477.07L-463.88,477.07L-463.88,471.86C-463.88,469.62 -463.69,468.14 -463.50,467.15C-449.63,467.07 -444.73,466.88 -439.63,475.20L-438.23,475.05L-439.90,465.40L-473.26,465.40C-473.26,465.40 -472.24,466.62 -472.24,471.82L-472.35,485.58C-472.35,490.78 -473.26,492 -473.26,492L-438.38,492.15L-436.71,482.39ZM-410.22,481.28L-397.91,473L-403.95,473C-403.95,474.29 -407.03,476.42 -409.96,478.32L-412.05,479.84L-414.74,477.71C-416.26,476.50 -417.97,475.09 -417.97,473L-432.00,473L-419.23,483.03L-432.53,492L-426.49,492C-426.49,491.01 -424.24,489.42 -421.17,487.14L-417.44,484.48L-413.57,487.52C-411.67,489.26 -410.64,490.63 -410.64,492L-396.62,492ZM-366.22,484.17C-368.23,486.87 -371.61,487.71 -373.86,487.71C-380.13,487.71 -382.44,485.39 -382.44,480.83L-382.44,474.82L-367.85,475.62L-367.17,470.87L-382.44,472.01L-382.44,466.96L-382.90,466.96C-385.26,469.85 -391.56,472.62 -396.69,473.11L-397.30,473.15L-397.30,474.03L-390.04,474.41L-390.04,482.31C-390.04,489.30 -385.71,492.76 -377.54,492.76C-373.78,492.76 -370.70,492.08 -368.19,490.21L-366.14,484.21Z"/>
</svg>