<?xml version="1.0"?>
<svg xmlns="http://www.w3.org/2000/svg" width="1920" height="1080" viewBox="-960 -540 1920 1080">
    <path d="M-445.75,-210L-422,-210L-422,-282.50L-380.50,-282.50L-329.05,-296.20L-311.86,-337.99L-333.31,-380.67L-382.25,-390L-445.75,-390ZM-422,-303.84L-422,-370.25L-380.50,-370.25L-349.56,-363.26L-336.84,-337.24L-347.59,-312.22L-379.92,-303.84ZM-230.14,-323.34L-213.25,-317.75L-206.50,-336.75L-228.52,-345.09L-250.00,-338.43L-265,-317.50L-265,-340L-285.25,-340L-285.25,-211.27L-262.75,-210L-262.75,-280.25L-254.52,-311.59ZM-135.76,-345.13L-180.51,-326.51L-197.72,-275.00L-180.51,-223.49L-135.76,-204.88L-91.00,-223.50L-73.78,-275.00L-90.98,-326.51ZM-135.76,-223.99L-162.81,-235.91L-174.75,-274.98L-162.80,-314.06L-135.76,-325.99L-108.68,-314.06L-96.72,-274.98L-108.68,-235.91ZM-32.93,-361.74L-24.80,-370.64L-24.78,-383.35L-33.07,-392.46L-44.63,-392.46L-52.70,-383.37L-52.70,-370.67L-44.49,-361.74ZM-74.79,-178.77L-74.79,-178.78L-79.25,-160.00L-63.01,-157.50L-34.76,-170.32L-27.62,-202.54L-27.51,-340L-50.00,-340L-50.00,-213.03L-52.45,-185.42L-63.25,-177ZM32.37,-234.73L19.25,-269.23L115.75,-269.25L117,-278.25L102.11,-325.87L57.01,-345.22L12.90,-326.61L-3.67,-275.10L12.90,-223.59L57.01,-204.97L94.15,-215.94L111.25,-242.75L93.73,-253.69L80.10,-231.44L58.29,-224.11ZM20,-287.25L34.12,-317.01L56.99,-326.13L82.50,-315.28L92.75,-287.25ZM193.10,-223.99L166.67,-235.92L155.36,-275.00L166.67,-314.08L193.10,-326.01L213.54,-318.90L225.99,-295.90L245.36,-305.60L228.66,-333.49L193.10,-345.13L148.97,-326.51L132.39,-275.00L148.96,-223.49L193.10,-204.88L228.66,-216.38L245.10,-243.64L225.99,-253.82L213.53,-231.06ZM327.20,-208.26L327.20,-208.26L324.61,-227.65L314.53,-226.14L303.69,-231.63L301.75,-248L301.75,-322.75L324,-322.75L324,-340L301.75,-340L301.75,-385L279.25,-385L279.25,-340L260.75,-340L260.75,-322.75L279.25,-322.75L279.25,-248L284.38,-216.61L310.00,-205.85ZM-625.13,15L-565.38,15L-499.64,-7.84L-477.97,-75.52L-501.05,-143.34L-568.63,-165L-625.13,-165ZM-601.38,-6L-601.38,-143.75L-568.63,-143.75L-520.87,-129.94L-502.95,-75.76L-518.77,-22.31L-567.88,-6ZM-396.52,-98.34L-379.63,-92.75L-372.88,-111.75L-394.90,-120.09L-416.38,-113.43L-431.38,-92.50L-431.38,-115L-451.63,-115L-451.63,13.73L-429.13,15L-429.13,-55.25L-420.90,-86.59ZM-276.02,-72.19L-349.33,-49.70L-364.25,-18.62L-350.86,10.90L-319.14,20.14L-295.86,15.62L-274.53,-0.04L-274.63,15L-253.63,15L-253.59,-68.86L-265.43,-107.03L-304.34,-120.13L-339.34,-111.58L-356.35,-86.21L-338.50,-75.24L-327.05,-95.00L-306.63,-101.75L-284.75,-95.35ZM-276.02,-52.30L-276.04,-19.38L-291.95,-5.45L-315.54,1.79L-332.48,-2.60L-340.27,-19.62L-330.23,-37.29ZM-170.38,15L-143.38,-84.75L-118.38,15L-95.63,15L-56.38,-111L-75.63,-117L-106.13,-14.75L-132.38,-115L-155.13,-115L-181.88,-12L-210.63,-117L-231.38,-111L-193.63,15ZM-32.63,15L27.13,15L92.86,-7.84L114.53,-75.52L91.45,-143.34L23.88,-165L-32.63,-165ZM-8.88,-6L-8.88,-143.75L23.88,-143.75L71.63,-129.94L89.55,-75.76L73.73,-22.31L24.63,-6ZM194.12,-120.13L149.36,-101.51L132.16,-50.00L149.37,1.51L194.12,20.12L238.88,1.50L256.10,-50.00L238.89,-101.51ZM194.12,1.01L167.06,-10.91L155.12,-49.98L167.07,-89.06L194.12,-100.99L221.20,-89.06L233.16,-49.98L221.20,-10.91ZM328.63,15L355.63,-84.75L380.63,15L403.38,15L442.63,-111L423.38,-117L392.88,-14.75L366.63,-115L343.88,-115L317.13,-12L288.38,-117L267.63,-111L305.38,15ZM462.01,15L484.51,15L484.51,-55.75L494.26,-89.15L519.69,-100.70L540.77,-90.95L546.88,-64.75L546.88,15L569.38,15L569.38,-64.75L560.86,-104.40L524.27,-120.09L499.97,-114.73L482.26,-96.25L482.26,-115L462.01,-115Z" fill="#ffffff" stroke="#000000"/>
    <path d="M-452.53,-192.94L-429.03,-193.57L-430.94,-265.32L-389.87,-266.41L-339.32,-281.33L-323.41,-323.13L-345.76,-364.81L-394.44,-372.75L-457.28,-371.08ZM-431.51,-286.43L-433.26,-352.16L-392.19,-353.25L-361.38,-347.15L-348.11,-321.74L-358.09,-296.69L-389.86,-287.54ZM-242.15,-310.80L-225.28,-305.71L-219.11,-324.69L-241.12,-332.36L-262.20,-325.21L-276.49,-304.10L-277.09,-326.36L-297.13,-325.83L-293.73,-198.43L-271.43,-197.77L-273.28,-267.29L-265.97,-298.53ZM-149.32,-334.84L-193.12,-315.24L-208.78,-263.81L-190.39,-213.29L-145.62,-196.05L-101.81,-215.66L-86.13,-267.08L-104.51,-317.60ZM-146.12,-214.97L-173.21,-226.04L-186.06,-264.40L-175.26,-303.39L-148.81,-315.91L-121.70,-304.82L-108.83,-266.46L-119.64,-227.47ZM-47.99,-353.99L-40.18,-363.02L-40.49,-375.60L-48.94,-384.40L-60.38,-384.09L-68.12,-374.89L-67.79,-362.32L-59.43,-353.69ZM-84.59,-171.82L-84.59,-171.83L-88.51,-153.13L-72.37,-151.08L-44.76,-164.51L-38.53,-196.59L-42.05,-332.63L-64.31,-332.03L-60.96,-206.38L-62.66,-178.99L-73.12,-170.37ZM19.98,-230.03L6.09,-263.82L101.59,-266.39L102.59,-275.33L86.60,-322.07L41.46,-340.02L-1.71,-320.44L-16.75,-269.03L1.01,-218.49L45.16,-201.23L81.62,-213.06L97.84,-240.04L80.21,-250.41L67.31,-228.03L45.91,-220.20ZM6.36,-281.68L19.55,-311.50L41.94,-321.13L67.47,-311.07L78.35,-283.60ZM179.33,-223.64L152.86,-234.75L140.63,-273.13L150.80,-312.10L176.64,-324.60L197.06,-318.10L209.98,-295.67L228.90,-305.78L211.64,-332.94L176.13,-343.52L132.96,-323.94L117.91,-272.52L135.66,-221.98L179.83,-204.73L214.73,-217.05L230.28,-244.45L211.09,-254.03L199.36,-231.18ZM312.46,-211.61L312.46,-211.61L309.38,-230.73L299.45,-228.97L288.58,-234.12L286.23,-250.27L284.25,-324.24L306.27,-324.83L305.82,-341.90L283.80,-341.31L282.61,-385.85L260.34,-385.25L261.53,-340.72L243.22,-340.23L243.68,-323.16L261.99,-323.65L263.96,-249.67L269.87,-218.74L295.50,-208.77ZM-624.12,34.46L-564.99,32.89L-500.54,8.55L-480.87,-59.00L-505.51,-125.51L-572.95,-145.16L-628.87,-143.67ZM-601.17,13.05L-604.80,-123.27L-572.39,-124.13L-524.77,-111.73L-505.60,-58.58L-519.84,-5.26L-568.01,12.17ZM-400.87,-83.74L-384.00,-78.65L-377.82,-97.63L-399.84,-105.30L-420.92,-98.15L-435.21,-77.03L-435.80,-99.30L-455.84,-98.77L-452.45,28.63L-430.15,29.29L-432.00,-40.23L-424.69,-71.47ZM-280.93,-61.03L-352.89,-36.84L-366.83,-5.69L-352.80,23.17L-321.16,31.48L-298.24,26.39L-277.55,10.33L-277.25,25.22L-256.46,24.66L-258.64,-58.33L-271.37,-95.79L-310.21,-107.73L-344.63,-98.35L-360.79,-72.79L-342.84,-62.40L-332.03,-82.26L-312.00,-89.48L-290.18,-83.73ZM-280.40,-41.34L-279.55,-8.77L-294.93,5.44L-318.09,13.23L-334.97,9.33L-343.12,-7.31L-333.66,-25.06ZM-174.07,22.47L-149.99,-76.96L-122.61,21.09L-100.10,20.49L-64.58,-105.24L-83.79,-110.67L-111.27,-8.67L-139.90,-107.19L-162.41,-106.59L-186.17,-3.95L-217.39,-107.10L-237.77,-100.62L-197.08,23.08ZM-37.75,18.83L21.38,17.26L85.83,-7.08L105.49,-74.63L80.86,-141.14L13.42,-160.79L-42.50,-159.30ZM-14.80,-2.58L-18.43,-138.90L13.98,-139.76L61.60,-127.36L80.76,-74.21L66.52,-20.89L18.35,-3.46ZM183.08,-120.88L139.28,-101.27L123.61,-49.84L142.00,0.68L186.78,17.92L230.59,-1.69L246.27,-53.11L227.88,-103.64ZM186.28,-1.00L159.19,-12.08L146.34,-50.43L157.13,-89.42L183.59,-101.94L210.70,-90.85L223.56,-52.49L212.76,-13.50ZM319.76,9.30L343.85,-90.13L371.22,7.93L393.74,7.33L429.26,-118.40L410.05,-123.83L382.56,-21.83L353.94,-120.35L331.42,-119.75L307.67,-17.11L276.44,-120.27L256.07,-113.78L296.75,9.92ZM451.76,5.78L474.03,5.19L472.16,-64.83L480.94,-98.14L505.80,-110.24L526.91,-101.15L533.65,-75.38L535.75,3.54L558.02,2.95L555.91,-75.97L546.44,-114.99L509.82,-129.55L485.91,-123.60L468.87,-104.85L468.37,-123.41L448.33,-122.87Z" fill="#ffffff" stroke="#000000"/>
    <path d="M-458.61,-175.74L-435.37,-176.98L-439.15,-247.93L-398.54,-250.09L-348.91,-266.19L-334.27,-307.97L-357.49,-348.63L-405.87,-355.20L-468.01,-351.89ZM-440.27,-268.81L-443.73,-333.80L-403.12,-335.96L-372.48,-330.74L-358.68,-305.94L-367.88,-280.90L-399.09,-271.00ZM-253.53,-297.91L-236.71,-293.32L-231.09,-312.27L-253.08,-319.28L-273.76,-311.64L-287.34,-290.37L-288.51,-312.39L-308.33,-311.34L-301.61,-185.36L-279.52,-185.29L-283.19,-254.04L-276.78,-285.14ZM-162.30,-324.16L-205.13,-303.60L-219.27,-252.30L-199.74,-202.79L-154.98,-186.91L-112.15,-207.47L-97.99,-258.77L-117.51,-308.28ZM-155.98,-205.62L-183.08,-215.86L-196.80,-253.48L-187.15,-292.35L-161.30,-305.43L-134.18,-295.17L-120.44,-257.55L-130.10,-218.69ZM-62.54,-345.78L-55.05,-354.91L-55.69,-367.36L-64.28,-375.84L-75.59,-375.24L-83.01,-365.92L-82.36,-353.49L-73.85,-345.18ZM-93.95,-164.55L-93.95,-164.55L-97.34,-145.94L-81.32,-144.34L-54.34,-158.36L-49.03,-190.27L-56.10,-324.79L-78.12,-323.62L-71.49,-199.37L-72.44,-172.22L-82.57,-163.41ZM7.99,-224.90L-6.65,-257.98L87.79,-263.04L88.54,-271.91L71.48,-317.74L26.34,-334.31L-15.86,-313.80L-29.39,-262.52L-10.48,-212.98L33.66,-197.07L69.44,-209.74L84.77,-236.87L67.05,-246.65L54.87,-224.18L33.91,-215.86ZM-6.86,-275.65L5.41,-305.51L27.31,-315.63L52.84,-306.35L64.34,-279.45ZM165.84,-222.79L139.35,-233.08L126.24,-270.73L135.27,-309.57L160.51,-322.62L180.90,-316.73L194.27,-294.87L212.72,-305.37L194.93,-331.79L159.52,-341.33L117.31,-320.81L103.77,-269.53L122.67,-219.99L166.84,-204.08L201.04,-217.19L215.71,-244.72L196.47,-253.70L185.47,-230.77ZM297.89,-214.39L297.90,-214.39L294.35,-233.23L284.56,-231.23L273.67,-236.04L270.92,-251.95L267.01,-325.10L288.79,-326.26L287.89,-343.15L266.11,-341.98L263.76,-386.02L241.74,-384.85L244.09,-340.81L225.99,-339.84L226.89,-322.96L244.99,-323.93L248.90,-250.78L255.56,-220.33L281.19,-211.14ZM-622.40,53.82L-563.93,50.70L-500.79,24.91L-483.12,-42.45L-509.25,-107.62L-576.51,-125.28L-631.80,-122.33ZM-600.25,32.03L-607.45,-102.78L-575.40,-104.49L-527.95,-93.47L-507.58,-41.38L-520.26,11.75L-567.47,30.28ZM-404.60,-69.04L-387.78,-64.45L-382.16,-83.39L-404.15,-90.40L-424.82,-82.77L-438.41,-61.50L-439.58,-83.52L-459.40,-82.46L-452.68,43.51L-430.59,43.58L-434.26,-25.16L-427.85,-56.27ZM-285.32,-49.73L-355.89,-23.90L-368.86,7.30L-354.22,35.49L-322.69,42.87L-300.14,37.23L-280.09,20.80L-279.40,35.52L-258.85,34.42L-263.19,-47.65L-276.77,-84.38L-315.53,-95.17L-349.33,-84.98L-364.66,-59.26L-346.62,-49.46L-336.44,-69.39L-316.82,-77.07L-295.07,-71.95ZM-284.28,-30.27L-282.57,1.94L-297.41,16.41L-320.13,24.73L-336.93,21.31L-345.44,5.07L-336.55,-12.75ZM-177.38,30.07L-156.16,-68.95L-126.49,27.36L-104.23,26.17L-72.39,-99.18L-91.55,-104.05L-116.05,-2.40L-146.98,-99.13L-169.24,-97.94L-190.04,4.25L-223.66,-97.00L-243.65,-90.05L-200.13,31.29ZM-42.57,22.88L15.90,19.76L79.03,-6.02L96.71,-73.39L70.58,-138.55L3.32,-156.22L-51.97,-153.27ZM-20.43,1.09L-27.62,-133.71L4.43,-135.42L51.88,-124.41L72.25,-72.31L59.56,-19.18L12.35,-0.66ZM172.26,-121.19L129.44,-100.64L115.29,-49.33L134.82,0.17L179.59,16.05L222.42,-4.51L236.58,-55.81L217.05,-105.32ZM178.59,-2.65L151.49,-12.90L137.77,-50.51L147.42,-89.38L173.26,-102.47L200.38,-92.21L214.13,-54.59L204.46,-15.73ZM310.95,4.02L332.16,-95.01L361.84,1.30L384.10,0.12L415.93,-125.24L396.78,-130.10L372.27,-28.45L341.35,-125.18L319.08,-124.00L298.28,-21.80L264.67,-123.06L244.67,-116.10L288.20,5.23ZM441.48,-2.94L463.49,-4.12L459.80,-73.36L467.60,-106.55L491.89,-119.18L513.02,-110.74L520.37,-85.42L524.53,-7.38L546.55,-8.55L542.38,-86.59L531.98,-124.95L495.36,-138.39L471.86,-131.88L455.48,-112.87L454.50,-131.22L434.69,-130.16Z" fill="#ffffff" stroke="#000000"/>
    <path d="M-463.97,-158.42L-441.01,-160.26L-446.63,-230.36L-406.50,-233.57L-357.81,-250.81L-344.43,-292.54L-368.48,-332.15L-416.52,-337.38L-477.92,-332.46ZM-448.28,-250.99L-453.42,-315.21L-413.30,-318.42L-382.84,-314.06L-368.53,-289.89L-376.98,-264.86L-407.59,-254.25ZM-264.28,-284.71L-247.52,-280.62L-242.46,-299.51L-264.40,-305.86L-284.65,-297.77L-297.53,-276.36L-299.28,-298.12L-318.86,-296.55L-308.88,-172.08L-287.03,-172.60L-292.47,-240.52L-286.95,-271.47ZM-174.71,-313.09L-216.54,-291.62L-229.18,-240.49L-208.55,-192.01L-163.84,-177.48L-122.01,-198.96L-109.35,-250.09L-129.97,-298.56ZM-165.32,-195.97L-192.41,-205.39L-206.98,-242.24L-198.45,-280.96L-173.23,-294.59L-146.12,-285.15L-131.53,-248.29L-140.07,-209.58ZM-76.57,-337.11L-69.40,-346.35L-70.36,-358.64L-79.08,-366.81L-90.26,-365.92L-97.36,-356.50L-96.38,-344.22L-87.75,-336.22ZM-102.87,-156.97L-102.87,-156.97L-105.73,-138.47L-89.83,-137.31L-63.51,-151.89L-59.10,-183.60L-69.65,-316.52L-91.40,-314.78L-81.56,-192.01L-81.79,-165.12L-91.58,-156.14ZM-3.60,-219.37L-18.95,-251.71L74.35,-259.21L74.86,-268.01L56.78,-312.90L11.67,-328.11L-29.54,-306.70L-41.57,-255.61L-21.56,-207.09L22.54,-192.51L57.60,-205.99L72.05,-233.24L54.27,-242.45L42.81,-219.89L22.29,-211.11ZM-19.62,-269.20L-8.28,-299.06L13.13,-309.65L38.64,-301.14L50.72,-274.83ZM152.64,-221.44L126.17,-230.93L112.20,-267.84L120.11,-306.50L144.74,-320.08L165.06,-314.79L178.88,-293.52L196.85,-304.40L178.55,-330.07L143.26,-338.56L102.04,-317.15L90.00,-266.06L110.01,-217.54L154.13,-202.96L187.62,-216.84L201.41,-244.46L182.14,-252.83L171.85,-229.86ZM283.53,-216.62L283.53,-216.62L279.52,-235.17L269.89,-232.93L258.98,-237.40L255.84,-253.07L250.05,-325.35L271.56,-327.07L270.23,-343.75L248.71,-342.03L245.23,-385.54L223.47,-383.79L226.96,-340.28L209.07,-338.85L210.41,-322.17L228.30,-323.60L234.09,-251.33L241.48,-221.38L267.08,-212.96ZM-619.98,73.03L-562.21,68.40L-500.42,41.22L-484.71,-25.90L-512.28,-89.68L-579.29,-105.39L-633.92,-101.01ZM-598.64,50.89L-609.31,-82.31L-577.65,-84.84L-530.41,-75.19L-508.88,-24.19L-520.03,28.72L-566.25,48.29ZM-407.72,-54.27L-390.95,-50.17L-385.90,-69.07L-407.84,-75.42L-428.09,-67.32L-440.97,-45.92L-442.71,-67.68L-462.29,-66.11L-452.32,58.36L-430.47,57.85L-435.91,-10.08L-430.38,-41.02ZM-289.19,-38.32L-358.33,-10.89L-370.35,20.31L-355.11,47.82L-323.72,54.30L-301.56,48.12L-282.15,31.33L-281.08,45.88L-260.78,44.25L-267.24,-36.84L-281.64,-72.82L-320.28,-82.47L-353.46,-71.50L-367.94,-45.65L-349.84,-36.43L-340.29,-56.42L-321.07,-64.53L-299.42,-60.04ZM-287.64,-19.08L-285.11,12.74L-299.41,27.45L-321.66,36.28L-338.38,33.34L-347.23,17.49L-338.90,-0.37ZM-180.28,37.80L-161.90,-60.74L-130.00,33.77L-108.00,32.01L-79.82,-92.86L-98.89,-97.17L-120.46,4.06L-153.61,-90.84L-175.61,-89.08L-193.49,12.58L-229.42,-86.71L-249.02,-79.30L-202.76,39.60ZM-47.09,27.13L10.68,22.50L72.47,-4.68L88.18,-71.80L60.61,-135.59L-6.41,-151.29L-61.04,-146.91ZM-25.75,4.98L-36.42,-128.21L-4.76,-130.75L42.48,-121.10L64.01,-70.09L52.86,-17.18L6.64,2.39ZM161.68,-121.09L119.85,-99.63L107.20,-48.49L127.84,-0.02L172.54,14.51L214.38,-6.96L227.04,-58.09L206.42,-106.56ZM171.06,-3.97L143.98,-13.39L129.41,-50.25L137.93,-88.96L163.16,-102.59L190.27,-93.16L204.86,-56.29L196.32,-17.59ZM302.20,-0.86L320.58,-99.40L352.48,-4.89L374.48,-6.65L402.67,-131.52L383.59,-135.83L362.02,-34.60L328.87,-129.50L306.88,-127.74L288.99,-26.07L253.06,-125.37L233.46,-117.96L279.72,0.94ZM431.17,-11.19L452.92,-12.94L447.44,-81.34L454.29,-114.40L477.99,-127.53L499.12,-119.74L507.05,-94.88L513.23,-17.77L534.98,-19.51L528.81,-96.62L517.50,-134.30L480.91,-146.63L457.83,-139.57L442.13,-120.33L440.68,-138.46L421.10,-136.89Z" fill="#ffffff" stroke="#000000"/>
    <path d="M-468.63,-141.02L-445.95,-143.44L-453.36,-212.65L-413.75,-216.89L-366.03,-235.22L-353.90,-276.86L-378.73,-315.42L-426.40,-319.32L-487.01,-312.84ZM-455.54,-233.02L-462.32,-296.41L-422.71,-300.65L-392.46,-297.14L-377.67,-273.60L-385.37,-248.62L-415.37,-237.31ZM-274.39,-271.23L-257.70,-267.62L-253.20,-286.45L-275.07,-292.15L-294.89,-283.61L-307.07,-262.09L-309.37,-283.57L-328.70,-281.50L-315.55,-158.63L-293.94,-159.71L-301.12,-226.77L-296.47,-257.53ZM-186.52,-301.67L-227.35,-279.33L-238.50,-228.40L-216.81,-180.99L-172.20,-167.79L-131.37,-190.14L-120.20,-241.06L-141.88,-288.47ZM-174.15,-186.04L-201.19,-194.65L-216.58,-230.73L-209.17,-269.25L-184.57,-283.40L-157.50,-274.78L-142.10,-238.70L-149.52,-200.18ZM-90.07,-328.02L-83.21,-337.35L-84.49,-349.49L-93.34,-357.34L-104.37,-356.16L-111.14,-346.66L-109.85,-334.54L-101.10,-326.84ZM-111.33,-149.10L-111.34,-149.11L-113.68,-130.73L-97.92,-130.00L-72.26,-145.12L-68.73,-176.61L-82.67,-307.83L-104.14,-305.53L-91.17,-184.34L-90.69,-157.73L-100.14,-148.59ZM-14.77,-213.46L-30.81,-245.05L61.30,-254.93L61.58,-263.65L42.50,-307.59L-2.53,-321.45L-42.73,-299.17L-53.29,-248.31L-32.21,-200.84L11.80,-187.58L46.13,-201.84L59.71,-229.17L41.87,-237.82L31.13,-215.20L11.06,-205.97ZM-31.93,-262.33L-21.50,-292.18L-0.60,-303.22L24.86,-295.48L37.51,-269.76ZM139.76,-219.63L113.31,-228.32L98.52,-264.47L105.33,-302.93L129.34,-317.01L149.58,-312.31L163.81,-291.63L181.31,-302.87L162.52,-327.78L127.38,-335.26L87.17,-312.98L76.60,-262.12L97.68,-214.64L141.71,-201.39L174.48,-216.00L187.39,-243.69L168.11,-251.47L158.54,-228.47ZM269.37,-218.31L269.37,-218.31L264.91,-236.56L255.45,-234.09L244.54,-238.22L241.02,-253.65L233.38,-325.00L254.62,-327.27L252.86,-343.74L231.62,-341.46L227.03,-384.42L205.55,-382.12L210.14,-339.17L192.49,-337.28L194.25,-320.81L211.91,-322.70L219.54,-251.35L227.65,-221.91L253.20,-214.26ZM-616.86,92.08L-559.83,85.98L-499.42,57.46L-485.64,-9.36L-514.61,-71.74L-581.32,-85.51L-635.25,-79.74ZM-596.34,69.61L-610.41,-61.88L-579.15,-65.23L-532.16,-56.93L-509.51,-7.03L-519.15,45.60L-564.36,66.19ZM-410.22,-39.46L-393.53,-35.85L-389.03,-54.68L-410.90,-60.39L-430.72,-51.84L-442.90,-30.33L-445.20,-51.80L-464.53,-49.73L-451.38,73.14L-429.77,72.06L-436.95,5.00L-432.30,-25.76ZM-292.53,-26.80L-360.22,2.15L-371.28,33.34L-355.49,60.15L-324.26,65.73L-302.50,59.03L-283.74,41.91L-282.29,56.28L-262.25,54.13L-270.79,-25.92L-285.98,-61.14L-324.46,-69.67L-356.99,-57.94L-370.64,-31.99L-352.49,-23.34L-343.57,-43.36L-324.77,-51.90L-303.23,-48.03ZM-290.50,-7.82L-287.15,23.60L-300.92,38.53L-322.70,47.85L-339.32,45.39L-348.49,29.94L-340.72,12.05ZM-182.78,45.63L-167.20,-52.35L-133.15,40.32L-111.43,37.99L-86.83,-86.29L-105.82,-90.05L-124.49,10.67L-159.79,-82.35L-181.50,-80.02L-196.52,21.03L-234.69,-76.26L-253.88,-68.41L-204.98,48.00ZM-51.29,31.56L5.74,25.45L66.15,-3.06L79.93,-69.88L50.96,-132.26L-15.75,-146.03L-69.68,-140.26ZM-30.77,9.09L-44.84,-122.40L-13.58,-125.75L33.41,-117.45L56.06,-67.55L46.42,-14.92L1.21,5.66ZM151.34,-120.59L110.52,-98.25L99.36,-47.32L121.05,0.09L165.67,13.28L206.49,-9.06L217.67,-59.98L195.98,-107.39ZM163.71,-4.96L136.67,-13.57L121.28,-49.65L128.70,-88.17L153.30,-102.32L180.36,-93.70L195.77,-57.62L188.34,-19.10ZM293.54,-5.34L309.12,-103.32L343.17,-10.66L364.89,-12.98L389.49,-137.26L370.50,-141.02L351.83,-40.30L316.53,-133.32L294.82,-130.99L279.80,-29.94L241.63,-127.23L222.44,-119.39L271.34,-2.97ZM420.86,-18.97L442.33,-21.27L435.11,-88.80L441.01,-121.68L464.11,-135.30L485.22,-128.15L493.72,-103.76L501.87,-27.64L523.35,-29.94L515.20,-106.06L503.02,-143.04L466.49,-154.28L443.85,-146.68L428.82,-127.23L426.91,-145.13L407.58,-143.06Z" fill="#ffffff" stroke="#000000"/>
    <path d="M-472.57,-123.56L-450.21,-126.56L-459.36,-194.82L-420.28,-200.06L-373.57,-219.46L-362.66,-260.97L-388.24,-298.45L-435.50,-301.06L-495.29,-293.04ZM-462.05,-214.91L-470.43,-277.44L-431.36,-282.68L-401.34,-280.01L-386.09,-257.11L-393.04,-232.20L-422.43,-220.22ZM-283.86,-257.49L-267.25,-254.36L-263.29,-273.10L-285.08,-278.17L-304.47,-269.19L-315.95,-247.59L-318.79,-268.78L-337.85,-266.22L-321.61,-145.01L-300.26,-146.66L-309.13,-212.80L-305.34,-243.35ZM-197.74,-289.92L-237.53,-266.74L-247.23,-216.07L-224.52,-169.74L-180.04,-157.86L-140.25,-181.05L-130.53,-231.71L-153.23,-278.04ZM-182.45,-175.86L-209.43,-183.67L-225.60,-218.95L-219.29,-257.26L-195.33,-271.90L-168.32,-264.09L-152.13,-228.80L-158.46,-190.50ZM-103.02,-318.54L-96.48,-327.94L-98.07,-339.91L-107.03,-347.45L-117.91,-345.99L-124.36,-336.41L-122.76,-324.45L-113.90,-317.08ZM-119.34,-140.98L-119.34,-140.99L-121.17,-122.74L-105.56,-122.43L-80.58,-138.07L-77.92,-169.31L-95.17,-298.75L-116.35,-295.91L-100.32,-176.37L-99.14,-150.06L-108.25,-140.77ZM-25.51,-207.19L-42.21,-238.02L48.65,-250.22L48.69,-258.85L28.66,-301.81L-16.25,-314.34L-55.43,-291.24L-64.53,-240.65L-42.43,-194.24L1.46,-182.29L35.04,-197.30L47.76,-224.70L29.88,-232.79L19.85,-210.12L0.24,-200.46ZM-43.78,-255.08L-34.24,-284.88L-13.86,-296.36L11.53,-289.37L24.72,-264.26ZM127.19,-217.37L100.80,-225.26L85.21,-260.63L90.93,-298.86L114.31,-313.43L134.46,-309.31L149.08,-289.23L166.10,-300.80L146.85,-324.95L111.90,-331.42L72.70,-308.33L63.59,-257.74L85.69,-211.33L129.60,-199.37L161.64,-214.69L173.68,-242.43L154.39,-249.61L145.54,-226.61ZM255.44,-219.48L255.44,-219.48L250.55,-237.41L241.26,-234.72L230.36,-238.52L226.46,-253.69L217.03,-324.07L237.98,-326.88L235.80,-343.12L214.85,-340.31L209.17,-382.68L187.99,-379.84L193.67,-337.47L176.25,-335.14L178.43,-318.90L195.84,-321.23L205.28,-250.85L214.07,-221.94L239.55,-215.04ZM-613.06,110.94L-556.81,103.40L-497.80,73.59L-485.93,7.13L-516.23,-53.82L-582.58,-65.68L-635.78,-58.55ZM-593.35,88.17L-610.74,-41.54L-579.90,-45.67L-533.20,-38.70L-509.48,10.06L-517.63,62.39L-561.81,83.94ZM-412.12,-24.64L-395.51,-21.51L-391.55,-40.25L-413.34,-45.32L-432.72,-36.34L-444.20,-14.74L-447.04,-35.92L-466.11,-33.37L-449.86,87.84L-428.52,86.20L-437.38,20.05L-433.59,-10.50ZM-295.36,-15.22L-361.55,15.21L-371.68,46.35L-355.34,72.46L-324.30,77.16L-302.96,69.96L-284.85,52.53L-283.04,66.70L-263.27,64.05L-273.82,-14.92L-289.79,-49.36L-328.07,-56.78L-359.95,-44.32L-372.76,-18.29L-354.58,-10.21L-346.29,-30.26L-327.92,-39.20L-306.50,-35.93ZM-292.85,3.51L-288.71,34.50L-301.93,49.63L-323.23,59.43L-339.74,57.43L-349.22,42.39L-342.00,24.48ZM-184.88,53.54L-172.05,-43.79L-135.92,46.98L-114.50,44.10L-93.45,-79.49L-112.33,-82.71L-128.14,17.42L-165.51,-73.66L-186.93,-70.79L-199.12,29.57L-239.44,-65.67L-258.22,-57.40L-206.77,56.47ZM-55.18,36.15L1.08,28.61L60.09,-1.19L71.95,-67.65L41.66,-128.60L-24.70,-140.46L-77.90,-133.33ZM-35.47,13.38L-52.85,-116.32L-22.02,-120.46L24.69,-113.48L48.40,-64.72L40.26,-12.40L-3.93,9.15ZM141.26,-119.70L101.47,-96.52L91.77,-45.85L114.48,0.48L158.96,12.35L198.76,-10.83L208.47,-61.50L185.77,-107.82ZM156.55,-5.64L129.57,-13.45L113.40,-48.73L119.71,-87.04L143.68,-101.68L170.68,-93.87L186.87,-58.58L180.54,-20.28ZM284.97,-9.44L297.80,-106.78L333.93,-16.01L355.35,-18.88L376.40,-142.47L357.52,-145.69L341.71,-45.57L304.34,-136.65L282.92,-133.77L270.73,-33.42L230.41,-128.65L211.63,-120.38L263.07,-6.51ZM410.55,-26.28L431.74,-29.12L422.81,-95.74L427.78,-128.42L450.27,-142.50L471.34,-135.98L480.40,-112.08L490.46,-36.99L511.65,-39.83L501.58,-114.92L488.56,-151.18L452.13,-161.33L429.93,-153.22L415.58,-133.59L413.21,-151.24L394.14,-148.69Z" fill="#ffffff" stroke="#000000"/>
    <path d="M-475.80,-106.07L-453.76,-109.63L-464.62,-176.91L-426.10,-183.12L-380.41,-203.54L-370.71,-244.88L-397.01,-281.29L-443.82,-282.62L-502.75,-273.11ZM-467.81,-196.71L-477.75,-258.34L-439.24,-264.55L-409.48,-262.70L-393.78,-240.45L-400.01,-215.63L-428.76,-203.01ZM-292.68,-243.53L-276.17,-240.86L-272.75,-259.51L-294.44,-263.95L-313.37,-254.56L-324.16,-232.89L-327.53,-253.77L-346.32,-250.74L-327.05,-131.28L-305.98,-133.46L-316.49,-198.66L-313.55,-228.97ZM-208.35,-277.87L-247.10,-253.90L-255.36,-203.52L-231.68,-158.29L-187.36,-147.72L-148.61,-171.70L-140.34,-222.07L-164.02,-267.30ZM-190.22,-165.46L-217.12,-172.46L-234.04,-206.94L-228.81,-244.99L-205.49,-260.11L-178.58,-253.09L-161.63,-218.62L-166.88,-180.57ZM-115.42,-308.67L-109.20,-318.15L-111.08,-329.95L-120.14,-337.16L-130.87,-335.43L-137.00,-325.79L-135.10,-314.01L-126.14,-306.94ZM-126.88,-132.62L-126.88,-132.63L-128.21,-114.53L-112.76,-114.64L-88.47,-130.76L-86.66,-161.73L-107.13,-289.31L-128.01,-285.95L-109.00,-168.12L-107.14,-142.13L-115.90,-132.70ZM-35.81,-200.58L-53.15,-230.64L36.40,-245.10L36.22,-253.64L15.27,-295.60L-29.48,-306.81L-67.63,-282.93L-75.30,-232.65L-52.21,-187.33L-8.49,-176.66L24.34,-192.40L36.19,-219.83L18.30,-227.36L8.98,-204.68L-10.17,-194.61ZM-55.15,-247.47L-46.50,-277.20L-26.64,-289.09L-1.34,-282.84L12.36,-258.36ZM114.95,-214.68L88.64,-221.79L72.30,-256.36L76.94,-294.33L99.69,-309.35L119.73,-305.81L134.72,-286.33L151.24,-298.23L131.57,-321.61L96.82,-327.09L58.67,-303.21L50.99,-252.93L74.07,-207.61L117.82,-196.94L149.10,-212.93L160.28,-240.69L141.01,-247.28L132.86,-224.30ZM241.76,-220.14L241.76,-220.15L236.45,-237.75L227.32,-234.85L216.44,-238.32L212.19,-253.22L201.01,-322.59L221.65,-325.92L219.07,-341.92L198.42,-338.59L191.69,-380.35L170.81,-376.99L177.54,-335.23L160.37,-332.46L162.96,-316.45L180.12,-319.22L191.31,-249.85L200.77,-221.49L226.16,-215.34ZM-608.59,129.58L-553.14,120.63L-495.56,89.60L-485.58,23.55L-517.15,-35.94L-583.10,-45.92L-635.53,-37.46ZM-589.69,106.53L-610.31,-21.30L-579.92,-26.20L-533.54,-20.54L-508.80,27.07L-515.47,79.04L-558.60,101.52ZM-413.40,-9.82L-396.89,-7.16L-393.47,-25.80L-415.16,-30.24L-434.09,-20.85L-444.88,0.82L-448.25,-20.06L-467.04,-17.03L-447.77,102.43L-426.70,100.24L-437.21,35.05L-434.27,4.73ZM-297.67,-3.58L-362.34,28.26L-371.53,59.33L-354.69,84.73L-323.86,88.55L-302.94,80.87L-285.48,63.15L-283.32,77.12L-263.83,73.97L-276.36,-3.86L-293.06,-37.50L-331.12,-43.83L-362.32,-30.67L-374.31,-4.58L-356.11,2.93L-348.44,-17.11L-330.50,-26.44L-309.24,-23.78ZM-294.69,14.88L-289.78,45.42L-302.46,60.73L-323.27,70.98L-339.65,69.44L-349.42,54.82L-342.75,36.92ZM-186.58,61.51L-176.45,-35.10L-138.32,53.73L-117.21,50.33L-99.64,-72.48L-118.41,-75.17L-131.41,24.29L-170.77,-64.82L-191.88,-61.41L-201.29,38.18L-243.69,-54.96L-262.05,-46.29L-208.15,64.99ZM-58.75,40.90L-3.30,31.95L54.28,0.92L64.27,-65.13L32.69,-124.62L-33.25,-134.60L-85.69,-126.15ZM-39.85,17.85L-60.47,-109.98L-30.07,-114.88L16.31,-109.22L41.05,-61.61L34.37,-9.64L-8.76,12.84ZM131.45,-118.44L92.70,-94.47L84.45,-44.09L108.13,1.13L152.44,11.71L191.19,-12.27L199.46,-62.64L175.79,-107.87ZM149.58,-6.03L122.69,-13.04L105.76,-47.51L111.00,-85.56L134.31,-100.68L161.23,-93.67L178.17,-59.19L172.92,-21.14ZM276.50,-13.17L286.62,-109.78L324.75,-20.96L345.87,-24.36L363.43,-147.17L344.67,-149.85L331.67,-50.40L292.30,-139.50L271.19,-136.10L261.78,-36.51L219.39,-129.65L201.03,-120.97L254.92,-9.69ZM400.28,-33.14L421.16,-36.51L410.57,-102.16L414.62,-134.62L436.49,-149.14L457.51,-143.25L467.10,-119.85L479.04,-45.84L499.92,-49.21L487.98,-123.22L474.14,-158.74L437.84,-167.82L416.09,-159.21L402.42,-139.41L399.61,-156.81L380.82,-153.78Z" fill="#ffffff" stroke="#000000"/>
    <path d="M-478.34,-88.59L-456.63,-92.68L-469.14,-158.94L-431.21,-166.10L-386.56,-187.49L-378.06,-228.64L-405.03,-263.95L-451.36,-264.03L-509.39,-253.08ZM-472.82,-178.44L-484.28,-239.13L-446.35,-246.29L-416.87,-245.24L-400.76,-223.65L-406.26,-198.94L-434.37,-185.70ZM-300.85,-229.36L-284.45,-227.16L-281.56,-245.69L-303.12,-249.51L-321.61,-239.72L-331.70,-218.00L-335.58,-238.57L-354.09,-235.07L-331.88,-117.43L-311.10,-120.15L-323.22,-184.35L-321.11,-214.41ZM-218.36,-265.54L-256.05,-240.81L-262.88,-190.77L-238.27,-146.67L-194.16,-137.38L-156.47,-162.12L-149.62,-212.15L-174.23,-256.26ZM-197.46,-154.85L-224.24,-161.07L-241.89,-194.72L-237.72,-232.49L-215.05,-248.06L-188.25,-241.83L-170.58,-208.18L-174.77,-170.41ZM-127.25,-298.46L-121.35,-308.00L-123.53,-319.62L-132.68,-326.51L-143.24,-324.52L-149.05,-314.82L-146.86,-303.22L-137.81,-296.47ZM-133.94,-124.04L-133.95,-124.05L-134.78,-106.11L-119.51,-106.63L-95.91,-123.21L-94.93,-153.89L-118.55,-279.53L-139.10,-275.65L-117.20,-159.62L-114.68,-133.96L-123.09,-124.41ZM-45.67,-193.66L-63.61,-222.92L24.58,-239.59L24.17,-248.03L2.34,-288.98L-42.21,-298.88L-79.31,-274.26L-85.57,-224.33L-61.54,-180.12L-18.02,-170.72L14.04,-187.15L25.03,-214.59L7.14,-221.57L-1.48,-198.89L-20.15,-188.42ZM-66.03,-239.52L-58.26,-269.15L-38.93,-281.43L-13.75,-275.92L0.45,-252.07ZM103.07,-211.57L76.86,-217.91L59.78,-251.68L63.37,-289.34L85.47,-304.80L105.38,-301.83L120.72,-282.96L136.75,-295.16L116.68,-317.77L82.17,-322.27L45.06,-297.65L38.79,-247.72L62.82,-203.50L106.36,-194.10L136.88,-210.75L147.20,-238.49L127.98,-244.51L120.52,-221.56ZM228.33,-220.32L228.33,-220.33L222.62,-237.60L213.67,-234.48L202.81,-237.63L198.22,-252.25L185.33,-320.56L205.66,-324.40L202.68,-340.17L182.35,-336.33L174.59,-377.45L154.03,-373.57L161.79,-332.45L144.88,-329.26L147.86,-313.49L164.76,-316.68L177.66,-248.37L187.76,-220.57L213.03,-215.16ZM-603.45,147.97L-548.85,137.67L-492.72,105.46L-484.59,39.87L-517.38,-18.13L-582.87,-26.27L-634.50,-16.52ZM-585.37,124.69L-609.13,-1.20L-579.20,-6.85L-533.18,-2.47L-507.46,43.96L-512.69,95.54L-554.75,118.91ZM-414.09,4.96L-397.68,7.16L-394.79,-11.37L-416.36,-15.19L-434.84,-5.40L-444.93,16.31L-448.81,-4.25L-467.32,-0.76L-445.12,116.88L-424.33,114.17L-436.45,49.97L-434.34,19.90ZM-299.46,8.08L-362.58,41.28L-370.85,72.25L-353.52,96.92L-322.93,99.89L-302.44,91.74L-285.65,73.76L-283.14,87.52L-263.95,83.89L-278.39,7.25L-295.79,-25.59L-333.60,-30.85L-364.11,-17.00L-375.28,9.12L-357.08,16.07L-350.02,-3.96L-332.53,-13.66L-311.43,-11.59ZM-296.03,26.26L-290.36,56.34L-302.50,71.82L-322.81,82.50L-339.05,81.41L-349.10,67.20L-342.98,49.32ZM-187.87,69.53L-180.40,-26.28L-140.35,60.56L-119.56,56.64L-105.43,-65.28L-124.05,-67.44L-134.29,31.26L-175.57,-55.82L-196.36,-51.90L-203.04,46.84L-247.42,-44.15L-265.35,-35.09L-209.12,73.54ZM-61.99,45.77L-7.38,35.46L48.75,3.25L56.88,-62.34L24.08,-120.33L-41.40,-128.47L-93.04,-118.72ZM-43.91,22.48L-67.67,-103.40L-37.74,-109.05L8.28,-104.67L34.01,-58.24L28.78,-6.67L-13.29,16.71ZM121.92,-116.83L84.23,-92.10L77.39,-42.06L102.00,2.05L146.11,11.34L183.80,-13.40L190.65,-63.43L166.05,-107.54ZM142.81,-6.13L116.03,-12.35L98.38,-46.00L102.56,-83.77L125.22,-99.34L152.02,-93.11L169.69,-59.46L165.50,-21.69ZM268.15,-16.54L275.61,-112.36L315.67,-25.51L336.46,-29.44L350.59,-151.35L331.96,-153.52L321.73,-54.81L280.45,-141.90L259.66,-137.98L252.98,-39.23L208.59,-130.23L190.67,-121.17L246.90,-12.53ZM390.04,-39.55L410.60,-43.43L398.40,-108.09L401.55,-140.30L422.80,-155.23L443.74,-149.96L453.84,-127.07L467.60,-54.19L488.16,-58.07L474.40,-130.95L459.78,-165.71L423.64,-173.74L402.36,-164.65L389.35,-144.71L386.12,-161.85L367.61,-158.35Z" fill="#ffffff" stroke="#000000"/>
    <path d="M-480.17,-71.13L-458.82,-75.75L-472.93,-140.94L-435.62,-149.02L-392.02,-171.36L-384.70,-212.27L-412.30,-246.48L-458.12,-245.34L-515.21,-232.98ZM-477.09,-160.13L-490.01,-219.84L-452.70,-227.92L-423.52,-227.66L-407.02,-206.74L-411.81,-182.15L-439.25,-168.32ZM-308.37,-215.01L-292.09,-213.27L-289.72,-231.67L-311.15,-234.88L-329.17,-224.71L-338.58,-202.97L-342.96,-223.21L-361.16,-219.26L-336.10,-103.51L-315.63,-106.75L-329.30,-169.92L-328.01,-199.70ZM-227.74,-252.97L-264.36,-227.52L-269.80,-177.86L-244.30,-134.89L-200.44,-126.87L-163.82,-152.33L-158.36,-201.99L-183.86,-244.95ZM-204.16,-144.06L-230.81,-149.50L-249.15,-182.31L-246.02,-219.78L-224.02,-235.77L-197.35,-230.31L-178.99,-197.50L-182.13,-160.04ZM-138.52,-287.93L-132.94,-297.51L-135.39,-308.95L-144.62,-315.53L-155.01,-313.28L-160.50,-303.53L-158.03,-292.11L-148.91,-285.68ZM-140.54,-115.26L-140.54,-115.27L-140.89,-97.52L-125.81,-98.43L-102.90,-115.45L-102.75,-145.82L-129.41,-269.44L-149.64,-265.06L-124.92,-150.89L-121.74,-125.59L-129.82,-115.92ZM-55.08,-186.44L-73.59,-214.91L13.18,-233.71L12.55,-242.05L-10.11,-281.97L-54.43,-290.59L-90.47,-265.26L-95.34,-215.72L-70.41,-172.63L-27.13,-164.48L4.13,-181.57L14.29,-209.01L-3.59,-215.43L-11.52,-192.78L-29.71,-181.94ZM-76.42,-231.26L-69.52,-260.76L-50.73,-273.41L-25.68,-268.63L-11.01,-245.42ZM91.53,-208.07L65.45,-213.65L47.67,-246.59L50.23,-283.94L71.67,-299.80L91.44,-297.39L107.11,-279.14L122.64,-291.63L102.20,-313.45L67.95,-316.99L31.90,-291.67L27.02,-242.12L51.94,-199.03L95.25,-190.89L124.99,-208.15L134.47,-235.86L115.30,-241.30L108.53,-218.41ZM215.17,-220.03L215.18,-220.03L209.07,-236.96L200.30,-233.64L189.49,-236.47L184.56,-250.81L170.01,-318.02L190.01,-322.36L186.65,-337.87L166.65,-333.53L157.89,-374.00L137.66,-369.62L146.42,-329.15L129.78,-325.55L133.14,-310.04L149.77,-313.64L164.33,-246.43L175.05,-219.21L200.18,-214.52ZM-597.66,166.11L-543.94,154.47L-489.28,121.14L-482.96,56.06L-516.92,-0.43L-581.90,-6.74L-632.70,4.25ZM-580.39,142.60L-607.21,18.74L-577.76,12.36L-532.14,15.48L-505.47,60.72L-509.29,111.86L-550.27,136.08ZM-414.17,19.69L-397.89,21.43L-395.52,3.03L-416.94,-0.18L-434.96,9.99L-444.37,31.73L-448.75,11.50L-466.96,15.44L-441.90,131.19L-421.42,127.95L-435.10,64.78L-433.80,35.00ZM-300.73,19.75L-362.27,54.24L-369.64,85.09L-351.85,109.03L-321.52,111.16L-301.47,102.56L-285.34,84.33L-282.50,97.87L-263.62,93.79L-279.92,18.37L-297.99,-13.64L-335.52,-17.84L-365.33,-3.35L-375.69,22.78L-357.51,29.17L-351.05,9.17L-334.01,-0.88L-313.09,0.62ZM-296.86,37.64L-290.46,67.23L-302.06,82.86L-321.86,93.96L-337.95,93.31L-348.27,79.52L-342.68,61.68ZM-188.76,77.58L-183.90,-17.37L-142.01,67.46L-121.55,63.03L-110.79,-57.91L-129.26,-59.56L-136.78,38.32L-179.90,-46.71L-200.36,-42.28L-204.36,55.54L-250.65,-33.28L-268.14,-23.84L-209.67,82.10ZM-64.90,50.76L-11.18,39.13L43.48,5.80L49.79,-59.28L15.83,-115.77L-49.14,-122.09L-99.94,-111.09ZM-47.64,27.26L-74.45,-96.60L-45.00,-102.98L0.62,-99.86L27.28,-54.62L23.47,-3.49L-17.51,20.74ZM112.67,-114.88L76.05,-89.43L70.61,-39.76L96.11,3.20L139.97,11.23L176.60,-14.23L182.05,-63.89L156.56,-106.86ZM136.25,-5.96L109.60,-11.41L91.26,-44.21L94.40,-81.68L116.40,-97.67L143.07,-92.22L161.43,-59.41L158.28,-21.95ZM259.92,-19.56L264.78,-114.51L306.68,-29.68L327.13,-34.11L337.90,-155.05L319.42,-156.70L311.90,-58.82L268.78,-143.85L248.33,-139.42L244.32,-41.60L198.03,-130.42L180.54,-120.98L239.02,-15.04ZM379.85,-45.53L400.08,-49.91L386.31,-113.52L388.58,-145.46L409.20,-160.79L430.05,-156.13L440.64,-133.76L456.16,-62.05L476.40,-66.43L460.87,-138.14L445.49,-172.13L409.54,-179.12L388.74,-169.57L376.40,-149.50L372.75,-166.36L354.55,-162.42Z" fill="#ffffff" stroke="#000000"/>
    <path d="M-481.31,-53.72L-460.32,-58.86L-475.99,-122.94L-439.31,-131.92L-396.79,-155.15L-390.63,-195.80L-418.82,-228.90L-464.10,-226.56L-520.23,-212.83ZM-480.61,-141.81L-494.97,-200.51L-458.28,-209.48L-429.42,-209.99L-412.56,-189.74L-416.64,-165.31L-443.41,-150.90ZM-315.23,-200.52L-299.09,-199.23L-297.23,-217.49L-318.50,-220.09L-336.05,-209.57L-344.78,-187.82L-349.65,-207.71L-367.55,-203.33L-339.72,-89.55L-319.55,-93.29L-334.74,-155.38L-334.24,-184.87ZM-236.51,-240.18L-272.05,-214.05L-276.12,-164.80L-249.77,-122.99L-206.19,-116.21L-170.65,-142.35L-166.56,-191.60L-192.91,-233.41ZM-210.32,-133.11L-236.82,-137.79L-255.81,-169.75L-253.70,-206.88L-232.37,-223.27L-205.86,-218.58L-186.84,-186.62L-188.96,-149.50ZM-149.21,-277.10L-143.94,-286.72L-146.67,-297.96L-155.97,-304.22L-166.19,-301.73L-171.36,-291.95L-168.62,-280.72L-159.42,-274.60ZM-146.65,-106.32L-146.66,-106.33L-146.54,-88.76L-131.64,-90.06L-109.45,-107.50L-110.09,-137.52L-139.72,-259.05L-159.60,-254.19L-132.15,-141.96L-128.34,-117.02L-136.07,-107.24ZM-64.03,-178.94L-83.08,-206.61L2.21,-227.49L1.37,-235.71L-22.08,-274.59L-66.13,-281.94L-101.10,-255.95L-104.61,-206.84L-78.83,-164.89L-35.81,-157.97L-5.35,-175.70L3.96,-203.09L-13.89,-208.97L-21.13,-186.36L-38.82,-175.16ZM-86.32,-222.70L-80.27,-252.05L-62.02,-265.06L-37.13,-260.99L-22.01,-238.42ZM80.37,-204.20L54.43,-209.03L35.98,-241.13L37.53,-278.12L58.31,-294.38L77.92,-292.51L93.90,-274.88L108.92,-287.64L88.13,-308.68L54.18,-311.28L19.20,-285.29L15.68,-236.17L41.46,-194.22L84.50,-187.31L113.45,-205.16L122.09,-232.81L102.99,-237.68L96.90,-214.87ZM202.31,-219.28L202.31,-219.29L195.82,-235.87L187.24,-232.35L176.47,-234.87L171.22,-248.91L155.06,-314.99L174.73,-319.80L171.00,-335.05L151.33,-330.24L141.60,-370.01L121.71,-365.15L131.44,-325.37L115.09,-321.37L118.82,-306.12L135.17,-310.12L151.33,-244.05L162.65,-217.41L187.63,-213.44ZM-591.23,183.94L-538.42,171.03L-485.25,136.63L-480.72,72.11L-515.79,17.15L-580.20,12.62L-630.14,24.83ZM-574.78,160.25L-604.56,38.48L-575.61,31.40L-530.41,33.28L-502.86,77.31L-505.28,127.97L-545.16,153.00ZM-413.66,34.33L-397.52,35.62L-395.66,17.37L-416.93,14.76L-434.48,25.29L-443.21,47.03L-448.07,27.14L-465.97,31.52L-438.14,145.31L-417.98,141.57L-433.16,79.47L-432.67,49.99ZM-301.49,31.41L-361.43,67.13L-367.90,97.83L-349.68,121.03L-319.64,122.34L-300.04,113.31L-284.57,94.86L-281.41,108.17L-262.84,103.63L-280.95,29.49L-299.66,-1.68L-336.88,-4.85L-365.97,10.27L-375.53,36.37L-357.38,42.21L-351.53,22.27L-334.94,11.88L-314.21,12.81ZM-297.19,48.99L-290.09,78.08L-301.14,93.84L-320.43,105.34L-336.35,105.12L-346.92,91.76L-341.87,73.97ZM-189.26,85.63L-186.95,-8.38L-143.29,74.39L-123.18,69.47L-115.73,-50.39L-134.04,-51.53L-138.89,45.45L-183.77,-37.50L-203.88,-32.58L-205.26,64.25L-253.37,-22.35L-270.42,-12.56L-209.81,90.66ZM-67.49,55.85L-14.68,42.94L38.49,8.53L43.02,-55.98L7.95,-110.94L-56.46,-115.47L-106.41,-103.26ZM-51.04,32.16L-80.82,-89.61L-51.87,-96.69L-6.67,-94.81L20.88,-50.78L18.46,-0.12L-21.43,24.91ZM103.72,-112.61L68.19,-86.48L64.12,-37.23L90.46,4.58L134.04,11.36L169.58,-14.78L173.67,-64.02L147.33,-105.84ZM129.91,-5.54L103.42,-10.22L84.42,-42.18L86.53,-79.30L107.86,-95.69L134.37,-91.01L153.40,-59.04L151.27,-21.92ZM251.83,-22.24L254.14,-116.26L297.80,-33.49L317.91,-38.40L325.36,-158.27L307.05,-159.41L302.20,-62.43L257.32,-145.37L237.21,-140.45L235.83,-43.62L187.72,-130.22L170.67,-120.43L231.28,-17.22ZM369.74,-51.08L389.62,-55.94L374.33,-118.48L375.73,-150.12L395.72,-165.82L416.46,-161.76L427.51,-139.92L444.76,-69.43L464.64,-74.29L447.40,-144.79L431.30,-177.99L395.57,-183.95L375.25,-173.96L363.58,-153.80L359.53,-170.37L341.63,-165.99Z" fill="#ffffff" stroke="#000000"/>
    <path d="M-481.77,-36.40L-461.15,-42.03L-478.34,-104.98L-442.30,-114.81L-400.88,-138.91L-395.86,-179.26L-424.60,-211.23L-469.30,-207.73L-524.44,-192.68ZM-483.39,-123.50L-499.13,-181.16L-463.10,-191.00L-434.58,-192.27L-417.38,-172.69L-420.77,-148.42L-446.86,-133.48ZM-321.44,-185.91L-305.45,-185.06L-304.09,-203.16L-325.19,-205.18L-342.26,-194.31L-350.32,-172.58L-355.65,-192.11L-373.23,-187.31L-342.72,-75.55L-322.89,-79.78L-339.54,-140.77L-339.82,-169.94ZM-244.66,-227.20L-279.10,-200.43L-281.83,-151.63L-254.68,-110.99L-211.41,-105.43L-176.97,-132.21L-174.22,-181.01L-201.37,-221.65ZM-215.94,-122.03L-242.26,-125.96L-261.89,-157.06L-260.78,-193.82L-240.12,-210.58L-213.78,-206.65L-194.14,-175.55L-195.26,-138.79ZM-159.32,-265.99L-154.36,-275.65L-157.36,-286.69L-166.72,-292.64L-176.75,-289.90L-181.61,-280.09L-178.60,-269.07L-169.35,-263.25ZM-152.29,-97.22L-152.29,-97.23L-151.71,-79.86L-137.02,-81.54L-115.54,-99.36L-116.97,-129.04L-149.46,-248.41L-168.99,-243.08L-138.89,-132.84L-134.47,-108.28L-141.85,-98.41ZM-72.52,-171.20L-92.08,-198.05L-8.31,-220.94L-9.35,-229.05L-33.57,-266.87L-77.31,-272.97L-111.20,-246.36L-113.38,-197.71L-86.78,-156.91L-44.07,-151.21L-14.42,-169.54L-5.93,-196.86L-23.73,-202.21L-30.30,-179.66L-47.50,-168.13ZM-95.71,-213.87L-90.50,-243.05L-72.80,-256.39L-48.09,-253.02L-32.54,-231.11ZM69.57,-199.98L43.80,-204.07L24.72,-235.32L25.27,-271.93L45.39,-288.55L64.83,-287.22L81.09,-270.21L95.61,-283.22L74.50,-303.47L40.86,-305.15L6.97,-278.53L4.78,-229.88L31.37,-189.08L74.11,-183.38L102.26,-201.80L110.07,-229.36L91.06,-233.68L85.64,-210.96ZM189.73,-218.10L189.74,-218.11L182.89,-234.33L174.50,-230.63L163.78,-232.83L158.22,-246.58L140.50,-311.48L159.82,-316.75L155.73,-331.73L136.41,-326.45L125.75,-365.52L106.21,-360.19L116.88,-321.12L100.82,-316.73L104.91,-301.76L120.97,-306.14L138.69,-241.24L150.58,-215.21L175.37,-211.94ZM-584.18,201.47L-532.30,187.30L-480.64,151.89L-477.87,87.99L-513.99,34.58L-577.79,31.79L-626.84,45.19ZM-568.53,177.60L-601.19,58.01L-572.75,50.24L-528.02,50.91L-499.62,93.71L-500.68,143.87L-539.45,169.66ZM-412.56,48.87L-396.57,49.72L-395.21,31.63L-416.31,29.61L-433.38,40.48L-441.44,62.21L-446.77,42.67L-464.35,47.47L-433.84,159.24L-414.00,155.01L-430.66,94.02L-430.94,64.85ZM-301.74,43.02L-360.06,79.92L-365.65,110.44L-347.03,132.90L-317.29,133.40L-298.15,123.96L-283.34,105.31L-279.86,118.39L-261.63,113.41L-281.48,40.59L-300.81,10.26L-337.69,8.11L-366.05,23.83L-374.81,49.88L-356.71,55.18L-351.45,35.31L-335.33,24.60L-314.81,24.97ZM-297.03,60.29L-289.24,88.87L-299.75,104.74L-318.52,116.62L-334.27,116.82L-345.06,103.89L-340.54,86.17ZM-189.35,93.68L-189.55,0.67L-144.20,81.35L-124.45,75.96L-120.24,-42.74L-138.37,-43.39L-140.62,52.62L-187.17,-28.20L-206.92,-22.81L-205.74,72.96L-255.59,-11.39L-272.18,-1.26L-209.54,99.19ZM-69.75,61.03L-17.88,46.86L33.78,11.45L36.56,-52.45L0.44,-105.86L-63.36,-108.65L-112.42,-95.26ZM-54.11,37.16L-86.76,-82.44L-58.33,-90.20L-13.60,-89.53L14.81,-46.73L13.75,3.42L-25.02,29.22ZM95.08,-110.04L60.63,-83.27L57.91,-34.47L85.06,6.17L128.32,11.73L162.77,-15.05L165.52,-63.85L138.37,-104.49ZM123.79,-4.87L97.48,-8.80L77.85,-39.90L78.96,-76.66L99.62,-93.42L125.95,-89.49L145.60,-58.39L144.48,-21.63ZM243.89,-24.60L243.69,-117.61L289.04,-36.93L308.79,-42.32L313.01,-161.02L294.87,-161.67L292.63,-65.66L246.07,-146.48L226.32,-141.09L227.51,-45.32L177.66,-129.67L161.07,-119.54L223.71,-19.09ZM359.70,-56.22L379.23,-61.55L362.46,-122.98L363.02,-154.29L382.36,-170.34L402.97,-166.87L414.48,-145.58L433.38,-76.33L452.92,-81.67L434.02,-150.91L417.22,-183.31L381.74,-188.26L361.91,-177.85L350.91,-157.61L346.47,-173.89L328.88,-169.09Z" fill="#ffffff" stroke="#000000"/>
    <path d="M-906.35,492L-906.35,469.28L-898.22,492L-894.99,492L-886.86,469.28L-886.86,492L-883.25,492L-883.25,464.64L-888.22,464.64L-896.55,487.33L-904.68,464.64L-909.96,464.64L-909.96,492ZM-865.67,478.75L-876.82,482.17L-879.09,486.89L-877.05,491.38L-872.23,492.78L-868.69,492.09L-865.45,489.71L-865.46,492L-862.27,492L-862.27,479.25L-864.06,473.45L-869.98,471.46L-875.30,472.76L-877.88,476.62L-875.17,478.28L-873.43,475.28L-870.33,474.25L-867.00,475.23ZM-865.67,481.77L-865.68,486.77L-868.09,488.89L-871.68,489.99L-874.26,489.33L-875.44,486.74L-873.91,484.05ZM-857.12,492L-853.70,492L-853.70,481.25L-852.22,476.17L-848.35,474.41L-845.15,475.90L-844.22,479.88L-844.22,492L-840.80,492L-840.80,479.88L-842.09,473.85L-847.66,471.47L-851.35,472.28L-854.04,475.09L-854.04,472.24L-857.12,472.24ZM-833.34,468.94L-832.11,467.58L-832.10,465.65L-833.36,464.27L-835.12,464.27L-836.35,465.65L-836.35,467.58L-835.10,468.94ZM-832.52,492L-832.52,472.24L-835.94,472.24L-835.94,492ZM-818.31,468.12L-817.85,465.29L-820.94,464.71L-825.30,466.41L-826.70,471.29L-826.70,472.24L-829.67,472.24L-829.67,474.86L-826.70,474.86L-826.70,492L-823.40,492L-823.40,474.86L-819.56,474.86L-819.56,472.24L-823.40,472.24L-823.40,471.21L-822.75,468.65L-820.52,467.74ZM-807.97,471.46L-814.77,474.29L-817.39,482.12L-814.77,489.95L-807.97,492.78L-801.17,489.95L-798.55,482.12L-801.16,474.29ZM-807.97,489.87L-812.08,488.06L-813.90,482.12L-812.08,476.18L-807.97,474.37L-803.85,476.18L-802.04,482.12L-803.85,488.06ZM-795.03,492L-791.61,492L-791.61,481.25L-790.13,476.17L-786.26,474.41L-783.06,475.90L-782.13,479.88L-782.13,492L-778.71,492L-778.71,479.88L-780.00,473.85L-785.56,471.47L-789.26,472.28L-791.95,475.09L-791.95,472.24L-795.03,472.24ZM-765.45,492.27L-765.45,492.26L-765.85,489.32L-767.38,489.55L-769.03,488.71L-769.32,486.22L-769.32,474.86L-765.94,474.86L-765.94,472.24L-769.32,472.24L-769.32,465.40L-772.74,465.40L-772.74,472.24L-775.55,472.24L-775.55,474.86L-772.74,474.86L-772.74,486.22L-771.96,491.00L-768.07,492.63ZM-737.50,487.93L-737.50,478.13L-749.05,478.13L-749.05,481.31L-740.99,481.31L-740.97,486.22L-748.63,489.75L-755.95,486.41L-758.55,478.32L-756.06,470.17L-749.21,466.88L-744.27,468.25L-741.30,473.01L-738.24,471.11L-741.44,465.93L-749.13,463.79L-758.98,468.04L-762.42,478.32L-758.78,488.60L-748.74,492.86ZM-724.35,474.77L-721.78,475.62L-720.76,472.73L-724.11,471.47L-727.37,472.48L-729.65,475.66L-729.65,472.24L-732.73,472.24L-732.73,491.81L-729.31,492L-729.31,481.32L-728.06,476.56ZM-710.01,471.46L-716.81,474.29L-719.42,482.12L-716.81,489.95L-710.01,492.78L-703.20,489.95L-700.58,482.12L-703.20,474.29ZM-710.01,489.87L-714.12,488.06L-715.93,482.12L-714.12,476.18L-710.01,474.37L-705.89,476.18L-704.07,482.12L-705.89,488.06ZM-688.58,492.27L-688.58,492.26L-688.97,489.32L-690.51,489.55L-692.15,488.71L-692.45,486.22L-692.45,474.86L-689.07,474.86L-689.07,472.24L-692.45,472.24L-692.45,465.40L-695.87,465.40L-695.87,472.24L-698.68,472.24L-698.68,474.86L-695.87,474.86L-695.87,486.22L-695.09,491.00L-691.19,492.63ZM-680.57,488.24L-682.57,483.00L-667.90,482.99L-667.71,481.63L-669.97,474.39L-676.83,471.45L-683.53,474.28L-686.05,482.11L-683.53,489.93L-676.83,492.76L-671.18,491.10L-668.58,487.02L-671.25,485.36L-673.32,488.74L-676.63,489.86ZM-682.45,480.26L-680.31,475.73L-676.83,474.35L-672.95,476.00L-671.40,480.26ZM-661.99,485.88L-664.90,487.24L-662.96,491.11L-657.11,492.78L-651.52,491.39L-648.97,486.66L-650.50,482.61L-653.83,480.90L-658.44,479.65L-661.00,478.62L-661.84,477.05L-660.74,475.10L-657.52,474.38L-654.42,475.23L-653.09,477.74L-650.21,476.38L-651.88,473.07L-657.39,471.46L-662.84,472.86L-665.18,477.43L-663.66,481.06L-660.23,482.69L-655.36,483.98L-653.07,485.13L-652.46,486.96L-653.99,489.26L-656.99,489.87L-660.63,488.67ZM-641.92,483.45L-638.72,483.45L-637.20,484.67L-633.14,492.30L-630.05,490.63L-634.16,483.45L-636.67,482.04L-634.62,480.06L-632.77,476.14L-631.66,475.64L-630.10,475.39L-630.56,472.24L-633.40,472.52L-635.30,474.17L-637.43,478.82L-638.72,480.60L-641.91,480.60L-641.91,464.64L-643.66,464.64L-645.32,464.64L-645.33,492L-641.92,492ZM-625.58,492.01L-615.04,492.01L-607.42,490.45L-604.53,484.21L-606.06,480.03L-610.31,477.70L-606.80,475.27L-605.82,471.62L-608.58,466.13L-615.58,464.63L-625.58,464.63ZM-621.94,476.42L-621.95,467.89L-616.40,467.89L-611.64,468.44L-609.62,472.08L-611.57,475.51L-615.93,476.42ZM-621.94,488.79L-621.94,479.64L-615.54,479.64L-610.64,480.53L-608.45,484.21L-610.32,488.02L-615.04,488.79ZM-592.40,471.46L-599.20,474.29L-601.81,482.12L-599.20,489.95L-592.40,492.78L-585.59,489.95L-582.97,482.12L-585.59,474.29ZM-592.40,489.87L-596.51,488.06L-598.32,482.12L-596.51,476.18L-592.40,474.37L-588.28,476.18L-586.46,482.12L-588.28,488.06ZM-571.27,471.46L-578.07,474.29L-580.68,482.12L-578.07,489.95L-571.27,492.78L-564.46,489.95L-561.85,482.12L-564.46,474.29ZM-571.27,489.87L-575.38,488.06L-577.19,482.12L-575.38,476.18L-571.27,474.37L-567.15,476.18L-565.33,482.12L-567.15,488.06ZM-554.82,483.45L-551.62,483.45L-550.10,484.67L-546.04,492.30L-542.96,490.63L-547.06,483.45L-549.57,482.04L-547.52,480.06L-545.67,476.14L-544.56,475.64L-543.00,475.39L-543.46,472.24L-546.31,472.52L-548.20,474.17L-550.34,478.82L-551.62,480.60L-554.82,480.60L-554.82,464.64L-556.56,464.64L-558.23,464.64L-558.23,492L-554.82,492Z"/>
</svg>