<?xml version="1.0"?>
<svg xmlns="http://www.w3.org/2000/svg" width="1920" height="1080" viewBox="-960 -540 1920 1080">
    <path d="M-923.38,-210L-879.13,-367L-834.88,-210L-811.13,-210L-765.13,-386.50L-787.63,-392.02L-822.88,-238.75L-864.88,-390L-893.38,-390L-934.13,-238.75L-970.13,-392.02L-993.13,-386.50L-947.13,-210ZM-746.13,-210L-723.46,-210L-723.46,-280.75L-713.71,-313.69L-688.30,-325.23L-667.20,-315.48L-661.11,-288.92L-661.13,-210L-638.68,-210L-638.58,-289.10L-647.13,-328.93L-683.71,-344.62L-707.71,-339.11L-723.50,-322.25L-723.50,-390L-746.13,-390ZM-527.27,-297.19L-600.58,-274.70L-615.50,-243.62L-602.11,-214.10L-570.39,-204.86L-547.11,-209.38L-525.78,-225.04L-525.88,-210L-504.88,-210L-504.84,-293.86L-516.68,-332.03L-555.59,-345.13L-590.59,-336.58L-607.60,-311.21L-589.75,-300.24L-578.30,-320.00L-557.88,-326.75L-536.00,-320.35ZM-527.27,-277.30L-527.29,-244.38L-543.20,-230.45L-566.79,-223.21L-583.73,-227.60L-591.52,-244.62L-581.48,-262.29ZM-415.18,-208.26L-415.17,-208.26L-417.77,-227.65L-427.85,-226.14L-438.69,-231.63L-440.63,-248L-440.63,-322.75L-418.38,-322.75L-418.38,-340L-440.63,-340L-440.63,-385L-463.13,-385L-463.13,-340L-481.63,-340L-481.63,-322.75L-463.13,-322.75L-463.13,-248L-457.99,-216.61L-432.37,-205.85ZM-303.30,-361.74L-295.17,-370.64L-295.15,-383.35L-303.44,-392.46L-315.00,-392.46L-323.07,-383.37L-323.08,-370.67L-314.86,-361.74ZM-297.88,-210L-297.88,-340L-320.38,-340L-320.38,-210ZM-251.77,-250.27L-270.88,-241.34L-258.16,-215.83L-219.64,-204.84L-182.89,-213.99L-166.06,-245.13L-176.17,-271.80L-198.07,-283.06L-228.38,-291.25L-245.22,-298L-250.75,-308.38L-243.51,-321.21L-222.30,-325.91L-201.93,-320.35L-193.17,-303.81L-174.24,-312.74L-185.25,-334.52L-221.45,-345.13L-257.31,-335.92L-272.71,-305.85L-262.72,-281.99L-240.16,-271.22L-208.13,-262.75L-193.03,-255.17L-189.04,-243.13L-199.09,-228.03L-218.88,-224.02L-242.78,-231.88ZM-15.70,-332.65L-8.24,-340.12L-8.24,-350.68L-15.70,-358.15L-21.27,-358.15L-17.35,-376.09L-6.73,-384.66L-13.63,-393.75L-28.53,-380.75L-33.73,-358.14L-33.73,-350.68L-33.73,-340.12L-26.26,-332.65L-15.70,-332.65ZM-53.95,-332.65L-46.49,-340.12L-46.49,-350.68L-53.95,-358.15L-59.52,-358.15L-55.60,-376.09L-44.98,-384.66L-51.88,-393.75L-66.78,-380.75L-71.98,-358.14L-71.98,-350.68L-71.98,-340.12L-64.51,-332.65L-53.95,-332.65ZM107.00,-224.76L61.97,-246.41L47.57,-300.01L62.94,-353.59L107.00,-375.23L142.27,-363.25L159.00,-332.14L180.18,-342.84L158.10,-379.60L107.00,-395.63L43.49,-367.60L22.07,-299.99L43.49,-232.39L107.00,-204.37L157.99,-220.66L179.67,-256.14L159.00,-267.61L140.57,-236.52ZM233.38,-210L233.38,-390L210.88,-390L210.88,-210ZM282.95,-361.74L291.08,-370.64L291.10,-383.35L282.81,-392.46L271.25,-392.46L263.18,-383.37L263.17,-370.67L271.39,-361.74ZM288.38,-210L288.38,-340L265.88,-340L265.88,-210ZM319.70,-210L342.26,-210L342.26,-277.25L348.39,-310.56L374.94,-325.70L392.52,-317.60L398.30,-295.03L398.30,-210L420.80,-210L420.80,-285.25L428.85,-313.68L453.73,-325.70L472.82,-315.47L477.13,-292.48L477.13,-210L499.63,-210L499.63,-300.50L489.57,-333.36L458.58,-345.09L435.12,-339.45L417.30,-319.75L404.17,-338.68L380.48,-344.97L356.87,-339.87L340.01,-321.50L340.01,-340L319.76,-340ZM609.98,-297.19L536.67,-274.70L521.75,-243.62L535.14,-214.10L566.86,-204.86L590.14,-209.38L611.47,-225.04L611.38,-210L632.38,-210L632.41,-293.86L620.57,-332.03L581.66,-345.13L546.66,-336.58L529.65,-311.21L547.50,-300.24L558.95,-320.00L579.37,-326.75L601.25,-320.35ZM609.98,-277.30L609.96,-244.38L594.05,-230.45L570.46,-223.21L553.52,-227.60L545.73,-244.62L555.77,-262.29ZM722.07,-208.26L722.08,-208.26L719.48,-227.65L709.40,-226.14L698.56,-231.63L696.63,-248L696.63,-322.75L718.88,-322.75L718.88,-340L696.63,-340L696.63,-385L674.13,-385L674.13,-340L655.63,-340L655.63,-322.75L674.13,-322.75L674.13,-248L679.26,-216.61L704.88,-205.85ZM774.74,-234.73L761.63,-269.23L858.13,-269.25L859.38,-278.25L844.49,-325.87L799.39,-345.22L755.28,-326.61L738.70,-275.10L755.28,-223.59L799.39,-204.97L836.53,-215.94L853.63,-242.75L836.11,-253.69L822.47,-231.44L800.66,-224.11ZM762.38,-287.25L776.50,-317.01L799.37,-326.13L824.87,-315.28L835.13,-287.25ZM-514.50,15L-454.75,15L-389.02,-7.84L-367.34,-75.52L-390.43,-143.34L-458,-165L-514.50,-165ZM-490.75,-6L-490.75,-143.75L-458,-143.75L-410.25,-129.94L-392.33,-75.76L-408.14,-22.31L-457.25,-6ZM-313.63,-9.73L-326.75,-44.23L-230.25,-44.25L-229,-53.25L-243.89,-100.87L-288.99,-120.22L-333.10,-101.61L-349.67,-50.10L-333.10,1.41L-288.99,20.03L-251.85,9.06L-234.75,-17.75L-252.27,-28.69L-265.90,-6.44L-287.71,0.89ZM-326,-62.25L-311.88,-92.01L-289.01,-101.13L-263.50,-90.28L-253.25,-62.25ZM-191.39,-25.27L-210.51,-16.34L-197.78,9.17L-159.27,20.16L-122.52,11.01L-105.69,-20.13L-115.79,-46.80L-137.69,-58.06L-168,-66.25L-184.85,-73L-190.37,-83.38L-183.14,-96.21L-161.93,-100.91L-141.55,-95.35L-132.79,-78.81L-113.86,-87.74L-124.87,-109.52L-161.07,-120.13L-196.93,-110.92L-212.34,-80.85L-202.34,-56.99L-179.79,-46.22L-147.75,-37.75L-132.66,-30.17L-128.67,-18.13L-138.71,-3.03L-158.50,0.98L-182.40,-6.88ZM-64.68,-136.74L-56.55,-145.64L-56.53,-158.35L-64.82,-167.46L-76.38,-167.46L-84.45,-158.37L-84.45,-145.67L-76.24,-136.74ZM-59.25,15L-59.25,-115L-81.75,-115L-81.75,15ZM22.23,69.39L68.79,49.85L80,6.50L80,-115L60,-115L60,-97.50L45.27,-114.11L22.48,-120.61L-19.73,-101.04L-34.38,-50.49L-19.73,0.06L22.48,19.63L42.61,14.83L57.50,1.25L57.44,10.79L49.48,39.89L22.76,50.00L1.94,44.13L-6.25,26.50L-24.25,34.75L-12.91,58.67ZM23.76,-101.48L48.60,-88.59L60.24,-50.47L49.55,-12.35L23.76,0.52L-1.37,-12.35L-11.41,-50.47L-1.37,-88.59ZM112.13,15L134.63,15L134.63,-55.75L144.39,-89.15L169.82,-100.70L190.90,-90.95L197,-64.75L197,15L219.50,15L219.50,-64.75L210.98,-104.40L174.40,-120.09L150.10,-114.73L132.38,-96.25L132.38,-115L112.13,-115ZM309.67,18.14L318.53,9.11L318.47,-3.59L309.52,-12.53L296.92,-12.46L288.06,-3.44L288.12,9.26L297.07,18.20ZM291.66,-28.05L313.45,-28.05L313.45,-34.94L316.81,-53.14L328.97,-68.08L350.74,-89.10L360.85,-119.09L344.71,-156.60L302.18,-170.59L263.96,-156.31L249.16,-122.90L268.27,-114.24L279.60,-141.50L302.40,-150.20L326.37,-142.86L336.57,-117.56L329.92,-96.88L314.86,-82.12L296.95,-61.97L291.66,-34.94ZM401.36,-165.68L393.90,-158.21L393.90,-147.65L401.36,-140.18L406.93,-140.18L403.01,-122.24L392.39,-113.67L399.25,-104.50L414.19,-117.58L419.39,-140.18L419.39,-147.65L419.39,-158.21L411.92,-165.68L401.36,-165.68ZM439.60,-165.60L432.14,-158.14L432.14,-147.58L439.60,-140.11L445.17,-140.11L441.25,-122.17L430.63,-113.60L437.25,-104.25L452.43,-117.51L457.63,-140.11L457.63,-147.58L457.63,-158.14L450.17,-165.60L439.60,-165.60Z" fill="#ffffff" stroke="#000000"/>
    <path d="M-928.00,-165.39L-890.89,-322.55L-840.47,-169.14L-816.98,-170.14L-778.95,-346.66L-801.44,-351.17L-829.82,-198.08L-877.76,-345.90L-905.95,-344.69L-939.85,-193.37L-981.95,-343.45L-1004.47,-337.01L-951.50,-164.38ZM-752.69,-172.89L-730.27,-173.85L-733.27,-243.83L-725.02,-276.82L-700.37,-289.31L-679.09,-280.56L-671.94,-254.56L-668.61,-176.49L-646.42,-177.44L-649.67,-255.69L-659.81,-294.72L-696.66,-308.69L-720.16,-302.22L-735.06,-284.88L-737.93,-351.89L-760.31,-350.93ZM-539.91,-268.39L-611.47,-243.05L-624.91,-211.68L-610.42,-183.04L-578.65,-175.25L-555.82,-180.71L-535.38,-197.10L-534.84,-182.22L-514.07,-183.11L-517.59,-266.06L-530.91,-303.31L-569.95,-314.61L-604.20,-304.68L-619.96,-278.87L-601.84,-268.77L-591.35,-288.80L-571.44,-296.35L-549.53,-290.94ZM-539.07,-248.72L-537.69,-216.17L-552.84,-201.71L-575.87,-193.55L-592.81,-197.18L-601.23,-213.68L-592.06,-231.58ZM-425.28,-185.18L-425.27,-185.19L-428.66,-204.26L-438.56,-202.34L-449.52,-207.31L-452.13,-223.42L-455.29,-297.35L-433.29,-298.29L-434.02,-315.35L-456.02,-314.41L-457.93,-358.92L-480.18,-357.97L-478.28,-313.46L-496.58,-312.68L-495.85,-295.61L-477.55,-296.40L-474.38,-222.46L-467.98,-191.63L-442.18,-182.08ZM-321.12,-341.73L-313.46,-350.87L-313.97,-363.45L-322.56,-372.11L-333.99,-371.62L-341.59,-362.29L-341.06,-349.73L-332.55,-341.24ZM-309.33,-191.87L-314.83,-320.46L-337.09,-319.50L-331.58,-190.92ZM-265.43,-233.66L-283.96,-224.02L-270.29,-199.32L-231.73,-190.08L-195.77,-200.69L-180.44,-232.20L-191.56,-258.16L-213.70,-268.36L-244.03,-275.18L-260.98,-281.14L-266.88,-291.18L-260.27,-304.17L-239.49,-309.72L-219.10,-305.09L-209.74,-289.10L-191.39,-298.73L-203.20,-319.80L-239.46,-328.76L-274.54,-318.14L-288.50,-287.75L-277.60,-264.56L-254.83,-254.88L-222.79,-247.85L-207.54,-240.99L-203.09,-229.25L-212.38,-213.89L-231.78,-209.08L-255.76,-215.85ZM-35.43,-325.14L-28.36,-332.84L-28.80,-343.28L-36.50,-350.35L-42.01,-350.12L-38.89,-368.03L-28.75,-376.96L-35.96,-385.66L-50.15,-372.16L-54.34,-349.59L-54.02,-342.20L-53.57,-331.76L-45.87,-324.69L-35.43,-325.14ZM-73.26,-323.52L-66.19,-331.22L-66.64,-341.66L-74.34,-348.73L-79.84,-348.50L-76.72,-366.41L-66.58,-375.34L-73.79,-384.04L-87.99,-370.54L-92.17,-347.97L-91.85,-340.58L-91.40,-330.14L-83.71,-323.07L-73.26,-323.52ZM90.50,-223.62L45.06,-243.12L28.54,-295.53L41.47,-349.18L84.13,-372.45L119.53,-362.09L137.40,-332.03L157.88,-343.51L134.49,-378.93L83.27,-392.62L21.65,-362.22L3.32,-294.43L27.37,-228.47L91.37,-203.45L141.11,-221.72L161.05,-257.73L140.13,-268.20L123.21,-236.67ZM216.13,-214.37L208.51,-392.41L186.25,-391.45L193.88,-213.42ZM258.73,-366.55L266.40,-375.70L265.88,-388.27L257.30,-396.93L245.86,-396.44L238.27,-387.11L238.80,-374.55L247.30,-366.06ZM270.53,-216.70L265.02,-345.28L242.77,-344.33L248.28,-215.75ZM301.52,-218.03L323.82,-218.98L320.97,-285.50L325.64,-318.70L351.25,-334.80L368.99,-327.53L375.66,-305.46L379.26,-221.35L401.51,-222.31L398.33,-296.74L405.08,-325.20L429.19,-338.14L448.50,-328.83L453.73,-306.28L457.22,-224.69L479.48,-225.65L475.64,-315.16L464.31,-347.24L433.16,-357.52L410.19,-350.96L393.41,-330.71L379.61,-348.88L355.91,-354.10L332.78,-348.05L316.88,-329.17L316.09,-347.47L296.06,-346.61ZM584.93,-316.55L513.37,-291.20L499.93,-259.83L514.43,-231.20L546.20,-223.41L569.03,-228.87L589.47,-245.25L590.01,-230.38L610.78,-231.27L607.26,-314.22L593.93,-351.46L554.90,-362.77L520.64,-352.84L504.89,-327.02L523.00,-316.93L533.50,-336.95L553.41,-344.50L575.32,-339.10ZM585.78,-296.88L587.16,-264.33L572.01,-249.87L548.98,-241.71L532.04,-245.33L523.61,-261.84L532.79,-279.74ZM699.57,-233.34L699.57,-233.34L696.19,-252.41L686.28,-250.49L675.33,-255.47L672.72,-271.57L669.55,-345.51L691.56,-346.45L690.83,-363.51L668.82,-362.57L666.92,-407.08L644.66,-406.13L646.57,-361.62L628.27,-360.83L629.00,-343.77L647.30,-344.55L650.46,-270.62L656.87,-239.79L682.66,-230.24ZM750.54,-261.75L736.11,-295.32L831.56,-299.43L832.41,-308.38L815.67,-354.86L770.24,-372.08L727.40,-351.81L713.19,-300.16L731.76,-249.91L776.18,-233.37L812.45,-245.79L828.23,-273.03L810.44,-283.10L797.90,-260.53L776.63,-252.35ZM736.09,-313.18L748.80,-343.21L771.03,-353.20L796.72,-343.55L808.05,-316.26ZM-514.06,39.84L-454.96,37.31L-390.92,11.94L-372.34,-55.92L-398.05,-122.03L-465.80,-140.58L-521.68,-138.19ZM-491.46,18.07L-497.29,-118.18L-464.90,-119.57L-417.08,-107.93L-397.06,-55.09L-410.44,-1.56L-458.32,16.65ZM-316.43,6.88L-330.87,-26.69L-235.42,-30.80L-234.56,-39.75L-251.31,-86.22L-296.73,-103.45L-339.58,-83.17L-353.79,-31.52L-335.21,18.72L-290.80,35.27L-254.52,22.84L-238.75,-4.39L-256.54,-14.47L-269.08,8.11L-290.34,16.28ZM-330.89,-44.55L-318.18,-74.58L-295.95,-84.56L-270.26,-74.92L-258.93,-47.63ZM-196.18,-13.67L-214.71,-4.03L-201.04,20.67L-162.48,29.91L-126.52,19.30L-111.19,-12.21L-122.32,-38.17L-144.46,-48.37L-174.78,-55.19L-191.73,-61.15L-197.64,-71.19L-191.02,-84.18L-170.24,-89.73L-149.85,-85.10L-140.49,-69.11L-122.15,-78.74L-133.96,-99.81L-170.21,-108.77L-205.29,-98.15L-219.25,-67.76L-208.36,-44.57L-185.59,-34.89L-153.54,-27.86L-138.30,-21.00L-133.84,-9.26L-143.14,6.10L-162.54,10.91L-186.51,4.14ZM-75.57,-129.28L-67.91,-138.43L-68.42,-151.01L-77.01,-159.67L-88.44,-159.18L-96.04,-149.85L-95.51,-137.29L-87.00,-128.79ZM-63.78,20.57L-69.28,-108.02L-91.54,-107.06L-86.03,21.52ZM19.11,70.91L64.35,49.61L73.60,6.26L68.45,-113.91L48.67,-113.07L49.41,-95.76L34.14,-111.56L11.32,-117.03L-29.60,-95.88L-41.95,-45.26L-25.32,4.12L17.26,21.69L36.97,16.09L51.12,2.02L51.46,11.46L44.82,40.58L18.82,51.71L-2.02,46.79L-10.87,29.70L-28.32,38.62L-16.09,61.80ZM13.39,-98.15L38.51,-86.46L51.64,-49.25L42.68,-11.10L17.71,2.73L-7.69,-8.94L-19.23,-46.21L-10.91,-84.35ZM105.74,13.31L127.99,12.36L124.99,-57.62L133.23,-91.07L157.90,-103.57L179.16,-94.82L186.30,-69.16L189.68,9.72L211.93,8.76L208.56,-70.12L198.45,-108.97L161.60,-122.94L137.80,-116.61L121.05,-97.58L120.26,-116.13L100.23,-115.27ZM301.25,8.05L309.64,-1.25L309.04,-13.81L299.81,-22.27L287.35,-21.68L278.96,-12.38L279.56,0.18L288.79,8.64ZM281.48,-36.87L303.04,-37.79L302.75,-44.61L305.30,-62.76L316.70,-78.05L337.33,-99.76L346.06,-129.85L328.51,-166.27L285.86,-178.30L248.65,-162.56L235.43,-128.89L254.70,-121.14L264.75,-148.58L286.93,-158.14L310.95,-151.91L322.11,-127.31L316.41,-106.57L302.14,-91.33L285.28,-70.65L281.19,-43.68ZM384.16,-177.64L377.09,-169.94L377.54,-159.50L385.24,-152.43L390.75,-152.66L387.63,-134.75L377.49,-125.82L384.66,-117.05L398.89,-130.62L403.07,-153.19L402.76,-160.58L402.31,-171.02L394.61,-178.09L384.16,-177.64ZM421.99,-179.19L414.92,-171.49L415.37,-161.05L423.07,-153.98L428.58,-154.21L425.46,-136.30L415.31,-127.37L422.26,-118.41L436.72,-132.16L440.90,-154.74L440.58,-162.12L440.14,-172.57L432.44,-179.64L421.99,-179.19Z" fill="#ffffff" stroke="#000000"/>
    <path d="M-930.40,-120.84L-900.34,-277.85L-843.99,-128.25L-820.80,-130.24L-790.67,-306.43L-813.10,-309.94L-834.68,-157.33L-888.36,-301.50L-916.18,-299.11L-943.30,-148.01L-991.29,-294.66L-1013.29,-287.34L-953.59,-118.85ZM-757.33,-135.69L-735.20,-137.59L-741.13,-206.67L-734.36,-239.64L-710.52,-253.04L-689.10,-245.29L-680.93,-219.87L-674.34,-142.81L-652.42,-144.69L-658.95,-221.93L-670.63,-260.11L-707.67,-272.36L-730.64,-264.97L-744.64,-247.19L-750.31,-313.34L-772.41,-311.44ZM-550.94,-239.15L-620.64,-211.05L-632.60,-179.46L-617.06,-151.75L-585.31,-145.39L-562.96,-151.76L-543.44,-168.83L-542.28,-154.14L-521.77,-155.90L-528.76,-237.78L-543.52,-274.06L-582.60,-283.59L-616.06,-272.31L-630.55,-246.11L-612.21,-236.90L-602.68,-257.15L-583.31,-265.46L-561.41,-261.04ZM-549.28,-219.73L-546.53,-187.59L-560.90,-172.65L-583.33,-163.61L-600.24,-166.47L-609.27,-182.44L-600.95,-200.53ZM-434.04,-161.71L-434.04,-161.71L-438.20,-180.43L-447.91,-178.11L-458.96,-182.56L-462.22,-198.38L-468.48,-271.37L-446.75,-273.23L-448.20,-290.07L-469.92,-288.21L-473.69,-332.15L-495.66,-330.26L-491.89,-286.33L-509.96,-284.78L-508.51,-267.93L-490.45,-269.48L-484.19,-196.50L-476.55,-166.28L-450.63,-157.92ZM-337.66,-320.94L-330.47,-330.31L-331.51,-342.72L-340.37,-350.92L-351.66,-349.96L-358.78,-340.41L-357.72,-328.00L-348.95,-319.97ZM-319.65,-173.23L-330.54,-300.17L-352.51,-298.28L-341.62,-171.35ZM-278.01,-216.42L-295.92,-206.10L-281.36,-182.25L-242.83,-174.75L-207.72,-186.76L-193.89,-218.57L-205.99,-243.77L-228.32,-252.93L-258.60,-258.39L-275.62,-263.57L-281.88,-273.24L-275.89,-286.37L-255.57,-292.74L-235.21,-289.02L-225.27,-273.60L-207.54,-283.91L-220.11,-304.25L-256.35,-311.57L-290.59,-299.58L-303.11,-268.93L-291.36,-246.47L-268.43,-237.85L-236.44,-232.26L-221.07,-226.12L-216.16,-214.70L-224.71,-199.11L-243.69,-193.54L-267.69,-199.22ZM-54.41,-316.63L-47.74,-324.54L-48.63,-334.85L-56.54,-341.52L-61.98,-341.05L-59.65,-358.90L-50.00,-368.16L-57.50,-376.46L-70.97,-362.51L-74.15,-340.01L-73.52,-332.72L-72.64,-322.41L-64.72,-315.74L-54.41,-316.63ZM-91.76,-313.42L-85.09,-321.34L-85.98,-331.65L-93.89,-338.32L-99.33,-337.85L-97.00,-355.70L-87.35,-364.96L-94.85,-373.25L-108.31,-359.31L-111.49,-336.80L-110.87,-329.52L-109.98,-319.20L-102.07,-312.54L-91.76,-313.42ZM74.43,-221.56L28.66,-238.92L10.10,-290.05L20.62,-343.66L61.83,-368.48L97.28,-359.74L116.22,-330.76L136.00,-342.98L111.36,-377.02L60.12,-388.39L0.46,-355.71L-14.79,-287.90L11.79,-223.69L76.14,-201.65L124.56,-221.82L142.76,-258.28L121.62,-267.75L106.23,-235.85ZM199.07,-217.73L183.99,-393.49L162.02,-391.60L177.10,-215.85ZM234.76,-370.04L241.95,-379.41L240.91,-391.82L232.05,-400.03L220.77,-399.06L213.65,-389.51L214.71,-377.11L223.47,-369.07ZM252.77,-222.34L241.88,-349.27L219.91,-347.39L230.80,-220.45ZM283.36,-224.96L305.38,-226.85L299.75,-292.51L302.95,-325.55L327.61,-342.56L345.45,-336.12L352.98,-314.57L360.11,-231.54L382.08,-233.43L375.77,-306.90L381.24,-335.34L404.54,-349.16L424.03,-340.77L430.16,-318.68L437.07,-238.15L459.04,-240.03L451.46,-328.40L438.89,-359.64L407.65,-368.50L385.21,-361.03L369.47,-340.30L355.05,-357.68L331.40,-361.84L308.78,-354.88L293.84,-335.53L292.29,-353.60L272.52,-351.90ZM559.48,-334.40L489.79,-306.30L477.82,-274.71L493.37,-247.01L525.12,-240.64L547.47,-247.01L566.99,-264.08L568.15,-249.39L588.66,-251.15L581.66,-333.04L566.91,-369.31L527.82,-378.84L494.36,-367.57L479.88,-341.37L498.22,-332.15L507.75,-352.40L527.12,-360.71L549.02,-356.30ZM561.15,-314.98L563.89,-282.85L549.53,-267.91L527.09,-258.86L510.19,-261.73L501.16,-277.70L509.48,-295.79ZM676.38,-256.96L676.39,-256.97L672.23,-275.68L662.52,-273.36L651.47,-277.82L648.21,-293.64L641.95,-366.62L663.67,-368.49L662.23,-385.33L640.50,-383.47L636.73,-427.40L614.76,-425.52L618.53,-381.58L600.47,-380.03L601.91,-363.19L619.98,-364.74L626.24,-291.75L633.88,-261.53L659.79,-253.17ZM725.59,-287.22L709.90,-319.81L804.12,-327.91L804.59,-336.80L786.06,-382.06L740.40,-397.17L698.89,-375.30L687.03,-323.62L707.52,-274.71L752.15,-260.23L787.50,-274.05L801.94,-301.66L783.92,-310.87L772.48,-288.01L751.79,-279.02ZM709.12,-337.47L720.41,-367.71L741.98,-378.52L767.80,-370.08L780.15,-343.56ZM-512.32,64.60L-453.98,59.60L-391.71,31.79L-376.22,-36.11L-404.44,-100.40L-472.23,-115.88L-527.40,-111.15ZM-490.89,42.11L-502.43,-92.39L-470.45,-95.13L-422.67,-85.65L-400.63,-34.24L-411.60,19.27L-458.18,39.30ZM-318.27,23.63L-333.96,-8.95L-239.74,-17.06L-239.27,-25.95L-257.80,-71.20L-303.46,-86.32L-344.97,-64.45L-356.83,-12.76L-336.34,36.14L-291.71,50.62L-256.36,36.80L-241.91,9.19L-259.94,-0.02L-271.38,22.84L-292.07,31.83ZM-334.74,-26.61L-323.44,-56.85L-301.88,-67.67L-276.06,-59.22L-263.71,-32.71ZM-200.21,-1.78L-218.13,8.54L-203.56,32.38L-165.04,39.89L-129.92,27.88L-116.09,-3.94L-128.20,-29.14L-150.52,-38.29L-180.80,-43.75L-197.82,-48.93L-204.08,-58.61L-198.09,-71.73L-177.78,-78.11L-157.41,-74.39L-147.48,-58.97L-129.74,-69.27L-142.32,-89.61L-178.55,-96.94L-212.79,-84.94L-225.32,-54.30L-213.56,-31.83L-190.63,-23.21L-158.64,-17.62L-143.27,-11.48L-138.37,-0.06L-146.91,15.52L-165.89,21.10L-189.89,15.42ZM-85.82,-121.23L-78.63,-130.60L-79.67,-143.01L-88.53,-151.22L-99.81,-150.25L-106.93,-140.70L-105.87,-128.30L-97.11,-120.26ZM-67.81,26.47L-78.70,-100.46L-100.67,-98.58L-89.78,28.36ZM16.30,72.75L60.13,49.77L67.44,6.51L57.27,-112.12L37.74,-110.45L39.20,-93.36L23.43,-108.34L0.63,-112.79L-38.94,-90.14L-49.01,-39.56L-30.47,8.58L12.38,24.15L31.63,17.78L45.03,3.27L45.77,12.59L40.44,41.67L15.19,53.77L-5.62,49.79L-15.10,33.26L-31.98,42.83L-18.90,65.23ZM3.48,-94.21L28.82,-83.71L43.38,-47.46L36.13,-9.35L12.02,5.38L-13.59,-5.08L-26.58,-41.46L-19.97,-79.53ZM99.53,12.12L121.50,10.23L115.57,-58.85L122.30,-92.28L146.17,-105.68L167.56,-97.93L175.72,-72.86L182.40,5.01L204.36,3.12L197.69,-74.74L186.05,-112.74L149.01,-125.00L125.73,-117.73L109.98,-98.20L108.41,-116.51L88.64,-114.82ZM292.67,-1.36L300.57,-10.92L299.44,-23.32L289.96,-31.29L277.66,-30.18L269.76,-20.62L270.89,-8.22L280.37,-0.25ZM271.22,-44.95L292.50,-46.78L291.92,-53.50L293.67,-71.56L304.30,-87.17L323.79,-109.51L331.15,-139.64L312.25,-174.92L269.55,-185.01L233.43,-167.87L221.77,-134.01L241.16,-127.16L249.94,-154.72L271.47,-165.12L295.49,-159.97L307.57,-136.11L302.81,-115.37L289.34,-99.69L273.54,-78.52L270.64,-51.68ZM366.80,-188.52L360.14,-180.61L361.02,-170.30L368.94,-163.63L374.38,-164.10L372.05,-146.25L362.40,-136.99L369.87,-128.61L383.36,-142.64L386.54,-165.14L385.92,-172.43L385.03,-182.74L377.12,-189.41L366.80,-188.52ZM404.15,-191.66L397.48,-183.74L398.37,-173.43L406.28,-166.76L411.72,-167.23L409.39,-149.38L399.74,-140.12L406.99,-131.55L420.71,-145.77L423.89,-168.27L423.26,-175.56L422.38,-185.88L414.46,-192.54L404.15,-191.66Z" fill="#ffffff" stroke="#000000"/>
    <path d="M-930.58,-76.48L-907.50,-233.01L-845.44,-87.47L-822.59,-90.42L-800.25,-265.92L-822.59,-268.44L-837.47,-116.62L-896.65,-256.91L-924.07,-253.37L-944.49,-102.80L-998.15,-245.78L-1019.60,-237.61L-953.43,-73.53ZM-760.06,-98.49L-738.26,-101.30L-747.05,-169.36L-741.75,-202.26L-718.74,-216.52L-697.23,-209.76L-688.08,-184.97L-678.29,-109.04L-656.70,-111.83L-666.43,-187.94L-679.59,-225.19L-716.74,-235.74L-739.14,-227.47L-752.23,-209.28L-760.64,-274.46L-782.41,-271.65ZM-560.35,-209.54L-628.08,-178.80L-638.57,-147.05L-622.03,-120.31L-590.36,-115.36L-568.53,-122.60L-549.95,-140.31L-548.18,-125.83L-527.97,-128.44L-538.36,-209.12L-554.48,-244.37L-593.54,-252.14L-626.15,-239.57L-639.36,-213.05L-620.83,-204.72L-612.27,-225.14L-593.46,-234.18L-571.62,-230.74ZM-557.88,-190.40L-553.80,-158.74L-567.38,-143.35L-589.18,-133.46L-606.02,-135.58L-615.63,-150.99L-608.16,-169.23ZM-441.47,-137.90L-441.46,-137.91L-446.37,-156.24L-455.87,-153.54L-466.99,-157.47L-470.88,-172.98L-480.16,-244.89L-458.76,-247.65L-460.90,-264.25L-482.31,-261.48L-487.89,-304.77L-509.54,-301.98L-503.95,-258.69L-521.75,-256.39L-519.61,-239.80L-501.81,-242.09L-492.53,-170.18L-483.69,-140.62L-457.71,-133.46ZM-352.90,-299.44L-346.18,-309.01L-347.74,-321.25L-356.85,-328.98L-367.97,-327.55L-374.60,-317.80L-373.03,-305.59L-364.02,-298.01ZM-328.84,-154.14L-344.98,-279.21L-366.62,-276.41L-350.48,-151.35ZM-289.48,-198.61L-306.76,-187.65L-291.35,-164.69L-252.93,-158.89L-218.72,-172.26L-206.39,-204.31L-219.43,-228.71L-241.89,-236.82L-272.06,-240.94L-289.11,-245.34L-295.71,-254.64L-290.35,-267.88L-270.53,-275.04L-250.23,-272.22L-239.76,-257.40L-222.65,-268.33L-235.95,-287.92L-272.09,-293.63L-305.45,-280.32L-316.53,-249.48L-303.95,-227.76L-280.91,-220.21L-249.04,-216.04L-233.58,-210.61L-228.25,-199.53L-236.04,-183.76L-254.58,-177.44L-278.55,-182.04ZM-72.61,-307.17L-66.35,-315.28L-67.67,-325.44L-75.77,-331.70L-81.13,-331.01L-79.59,-348.76L-70.43,-358.32L-78.20,-366.21L-90.93,-351.85L-93.12,-329.46L-92.19,-322.28L-90.88,-312.12L-82.77,-305.86L-72.61,-307.17ZM-109.41,-302.42L-103.15,-310.53L-104.46,-320.69L-112.57,-326.95L-117.93,-326.26L-116.38,-344.01L-107.23,-353.57L-114.99,-361.46L-127.72,-347.10L-129.91,-324.71L-128.99,-317.53L-127.68,-307.37L-119.57,-301.11L-109.41,-302.42ZM58.83,-218.62L12.83,-233.85L-7.69,-283.63L0.44,-337.08L40.14,-363.38L75.57,-356.23L95.53,-328.37L114.56,-341.30L88.76,-373.92L37.61,-382.99L-20.00,-348.15L-32.21,-280.44L-3.21,-218.07L61.36,-199.00L108.39,-221.00L124.84,-257.83L103.54,-266.29L89.66,-234.10ZM182.24,-220.11L159.89,-393.27L138.24,-390.48L160.59,-217.31ZM211.08,-372.24L217.80,-381.81L216.24,-394.04L207.14,-401.78L196.02,-400.34L189.38,-390.60L190.95,-378.38L199.97,-370.80ZM235.15,-226.94L219.01,-352.00L197.36,-349.21L213.50,-224.14ZM265.29,-230.83L286.98,-233.63L278.63,-298.32L280.40,-331.13L304.06,-348.99L321.98,-343.38L330.35,-322.39L340.90,-240.59L362.55,-243.38L353.20,-315.77L357.41,-344.13L379.86,-358.77L399.50,-351.30L406.49,-329.72L416.73,-250.37L438.38,-253.17L427.14,-340.23L413.38,-370.60L382.12,-378.03L360.25,-369.70L345.55,-348.53L330.56,-365.11L307.00,-368.22L284.92,-360.38L270.97,-340.61L268.68,-358.41L249.20,-355.90ZM533.71,-350.74L465.98,-320.01L455.48,-288.26L472.03,-261.52L503.70,-256.57L525.53,-263.81L544.11,-281.52L545.88,-267.04L566.08,-269.65L555.70,-350.33L539.57,-385.58L500.52,-393.35L467.91,-380.78L454.70,-354.26L473.22,-345.93L481.79,-366.35L500.59,-375.39L522.44,-371.95ZM536.18,-331.61L540.25,-299.95L526.68,-284.56L504.88,-274.67L488.04,-276.79L478.43,-292.20L485.89,-310.44ZM652.59,-279.11L652.59,-279.12L647.69,-297.45L638.18,-294.74L627.07,-298.68L623.17,-314.19L613.89,-386.10L635.30,-388.86L633.16,-405.45L611.75,-402.69L606.16,-445.98L584.52,-443.19L590.11,-399.90L572.31,-397.60L574.45,-381.01L592.25,-383.30L601.53,-311.39L610.36,-281.83L636.35,-274.66ZM699.97,-311.12L683.07,-342.68L775.90,-354.68L775.99,-363.49L755.75,-407.46L709.96,-420.47L669.84,-397.09L660.29,-345.48L682.63,-297.98L727.38,-285.55L761.75,-300.72L774.86,-328.63L756.65,-336.97L746.30,-313.88L726.23,-304.12ZM681.55,-360.11L691.44,-390.49L712.31,-402.10L738.20,-394.84L751.54,-369.14ZM-509.30,89.21L-451.81,81.79L-391.42,51.65L-378.97,-16.15L-409.60,-78.53L-477.29,-90.97L-531.65,-83.96ZM-489.06,66.06L-506.16,-66.46L-474.65,-70.53L-427.00,-63.18L-403.03,-13.27L-411.61,40.11L-456.83,61.90ZM-319.13,40.48L-336.03,8.92L-243.20,-3.09L-243.11,-11.90L-263.35,-55.87L-309.14,-68.88L-349.26,-45.49L-358.81,6.12L-336.47,53.61L-291.72,66.04L-257.35,50.88L-244.24,22.97L-262.45,14.62L-272.80,37.71L-292.87,47.47ZM-337.55,-8.51L-327.66,-38.89L-306.79,-50.51L-280.90,-43.24L-267.56,-17.55ZM-203.46,10.34L-220.74,21.31L-205.33,44.27L-166.91,50.07L-132.70,36.70L-120.37,4.65L-133.41,-19.76L-155.87,-27.86L-186.04,-31.98L-203.09,-36.38L-209.69,-45.69L-204.33,-58.92L-184.51,-66.08L-164.21,-63.26L-153.74,-48.44L-136.63,-59.38L-149.93,-78.96L-186.07,-84.67L-219.43,-71.36L-230.51,-40.53L-217.93,-18.80L-194.90,-11.25L-163.02,-7.08L-147.57,-1.66L-142.23,9.43L-150.02,25.20L-168.56,31.52L-192.53,26.92ZM-95.40,-112.62L-88.68,-122.19L-90.24,-134.42L-99.35,-142.16L-110.47,-140.72L-117.10,-130.98L-115.53,-118.76L-106.52,-111.18ZM-71.34,32.68L-87.48,-92.38L-109.12,-89.59L-92.98,35.47ZM13.80,74.88L56.17,50.30L61.57,7.21L46.48,-109.67L27.24,-107.19L29.42,-90.35L13.19,-104.50L-9.55,-107.93L-47.72,-83.86L-55.54,-33.41L-35.17,13.40L7.87,26.99L26.64,19.87L39.27,4.96L40.39,14.14L36.36,43.12L11.90,56.16L-8.85,53.11L-18.92,37.16L-35.21,47.33L-21.33,68.94ZM-5.95,-89.68L19.56,-80.37L35.49,-45.14L29.93,-7.14L6.72,8.44L-19.05,-0.82L-33.44,-36.24L-28.52,-74.17ZM93.54,11.40L115.18,8.61L106.40,-59.46L111.63,-92.80L134.67,-107.06L156.15,-100.30L165.28,-75.86L175.18,0.86L196.83,-1.93L186.92,-78.65L173.81,-115.74L136.66,-126.29L113.95,-118.12L99.20,-98.14L96.87,-116.18L77.39,-113.66ZM283.96,-10.11L291.37,-19.89L289.73,-32.10L280.01,-39.59L267.90,-37.96L260.49,-28.18L262.13,-15.97L271.85,-8.49ZM260.90,-52.30L281.87,-55.01L281.01,-61.64L281.98,-79.57L291.83,-95.45L310.16,-118.37L316.16,-148.48L295.98,-182.56L253.33,-190.74L218.33,-172.26L208.23,-138.28L227.70,-132.32L235.21,-159.95L256.06,-171.15L280.04,-167.07L292.99,-143.99L289.16,-123.27L276.50,-107.20L261.78,-85.59L260.05,-58.93ZM349.35,-198.33L343.09,-190.22L344.40,-180.06L352.51,-173.80L357.87,-174.49L356.32,-156.74L347.17,-147.18L354.91,-139.21L367.66,-153.65L369.86,-176.04L368.93,-183.22L367.62,-193.38L359.51,-199.64L349.35,-198.33ZM386.15,-203.01L379.89,-194.90L381.20,-184.74L389.31,-178.48L394.67,-179.17L393.12,-161.42L383.97,-151.86L391.50,-143.69L404.46,-158.33L406.65,-180.72L405.73,-187.90L404.42,-198.06L396.31,-204.32L386.15,-203.01Z" fill="#ffffff" stroke="#000000"/>
    <path d="M-928.57,-32.41L-912.38,-188.16L-844.85,-46.88L-822.38,-50.76L-807.72,-225.25L-829.91,-226.79L-838.20,-76.04L-902.66,-212.25L-929.62,-207.59L-943.44,-57.85L-1002.55,-196.95L-1023.40,-187.97L-951.03,-28.53ZM-760.89,-61.39L-739.45,-65.09L-751.02,-132.02L-747.18,-164.77L-725.03,-179.85L-703.48,-174.07L-693.38,-149.95L-680.48,-75.29L-659.25,-78.95L-672.09,-153.80L-686.69,-190.08L-723.86,-198.94L-745.66,-189.81L-757.84,-171.27L-768.91,-235.36L-790.32,-231.66ZM-568.12,-179.65L-633.79,-146.38L-642.82,-114.55L-625.33,-88.81L-593.81,-85.26L-572.53,-93.34L-554.91,-111.64L-552.54,-97.40L-532.68,-100.83L-546.36,-180.17L-563.79,-214.34L-602.74,-220.37L-634.45,-206.56L-646.40,-179.78L-627.72,-172.32L-620.12,-192.88L-601.91,-202.61L-580.16,-200.14ZM-564.87,-160.83L-559.50,-129.70L-572.27,-113.91L-593.41,-103.20L-610.15,-104.59L-620.30,-119.41L-613.69,-137.77ZM-447.54,-113.85L-447.54,-113.85L-453.16,-131.77L-462.45,-128.70L-473.60,-132.12L-478.11,-147.28L-490.33,-218.00L-469.28,-221.63L-472.10,-237.95L-493.15,-234.31L-500.51,-276.88L-521.79,-273.20L-514.44,-230.64L-531.94,-227.61L-529.12,-211.29L-511.62,-214.32L-499.39,-143.61L-489.41,-114.75L-463.41,-108.76ZM-366.80,-277.33L-360.57,-287.08L-362.63,-299.10L-371.96,-306.37L-382.89,-304.48L-389.04,-294.56L-386.97,-282.55L-377.74,-275.44ZM-336.86,-134.68L-358.11,-257.65L-379.40,-253.97L-358.14,-131.00ZM-299.83,-180.31L-316.45,-168.74L-300.24,-146.69L-262.01,-142.58L-228.74,-157.25L-217.91,-189.46L-231.83,-213.04L-254.39,-220.11L-284.40,-222.90L-301.44,-226.53L-308.36,-235.45L-303.62,-248.76L-284.32,-256.68L-264.14,-254.76L-253.15,-240.54L-236.70,-252.08L-250.68,-270.88L-286.65,-275.00L-319.07,-260.43L-328.73,-229.47L-315.37,-208.52L-292.27,-202.03L-260.58,-199.25L-245.07,-194.55L-239.32,-183.81L-246.36,-167.89L-264.42,-160.85L-288.31,-164.39ZM-89.98,-296.84L-84.14,-305.12L-85.87,-315.11L-94.15,-320.95L-99.42,-320.04L-98.64,-337.66L-90.00,-347.50L-98.01,-354.97L-109.99,-340.24L-111.21,-318.01L-109.98,-310.94L-108.26,-300.95L-99.98,-295.11L-89.98,-296.84ZM-126.17,-290.58L-120.33,-298.87L-122.05,-308.86L-130.33,-314.70L-135.60,-313.79L-134.83,-331.41L-126.18,-341.25L-134.19,-348.72L-146.17,-333.98L-147.39,-311.75L-146.17,-304.69L-144.44,-294.70L-136.16,-288.86L-126.17,-290.58ZM43.73,-214.84L-2.40,-227.95L-24.79,-276.30L-19.02,-329.50L19.12,-357.18L54.45,-351.61L75.37,-324.91L93.65,-338.50L66.75,-369.66L15.79,-376.47L-39.70,-339.58L-48.91,-272.11L-17.59,-211.67L47.06,-195.55L92.63,-219.29L107.34,-256.40L85.92,-263.87L73.56,-231.45ZM165.69,-221.54L136.26,-391.81L114.98,-388.13L144.41,-217.86ZM187.77,-373.18L194.01,-382.93L191.95,-394.96L182.62,-402.22L171.69,-400.33L165.54,-390.41L167.61,-378.40L176.84,-371.29ZM217.72,-230.53L196.46,-353.50L175.18,-349.83L196.43,-226.85ZM247.36,-235.65L268.69,-239.34L257.69,-302.95L258.06,-335.47L280.69,-354.13L298.65,-349.34L307.81,-328.94L321.71,-248.50L342.99,-252.18L330.69,-323.36L333.65,-351.58L355.23,-367.01L374.96,-360.46L382.79,-339.41L396.27,-261.39L417.56,-265.07L402.76,-350.68L387.87,-380.12L356.65,-386.15L335.37,-376.98L321.74,-355.43L306.22,-371.19L282.78,-373.27L261.28,-364.58L248.33,-344.45L245.31,-361.95L226.15,-358.64ZM507.69,-365.58L442.02,-332.32L432.99,-300.49L450.48,-274.75L482.00,-271.20L503.28,-279.28L520.90,-297.58L523.27,-283.34L543.13,-286.77L529.45,-366.11L512.01,-400.28L473.07,-406.31L441.36,-392.50L429.41,-365.72L448.09,-358.26L455.69,-378.82L473.90,-388.55L495.65,-386.08ZM510.94,-346.77L516.31,-315.63L503.54,-299.85L482.40,-289.14L465.66,-290.53L455.51,-305.35L462.12,-323.71ZM628.27,-299.79L628.27,-299.79L622.65,-317.71L613.36,-314.64L602.21,-318.06L597.70,-333.22L585.48,-403.94L606.53,-407.57L603.71,-423.89L582.66,-420.25L575.30,-462.82L554.02,-459.14L561.37,-416.57L543.87,-413.55L546.69,-397.23L564.19,-400.26L576.42,-329.54L586.40,-300.69L612.40,-294.70ZM673.77,-333.44L655.72,-363.93L747.00,-379.73L746.71,-388.45L724.84,-431.07L679.02,-441.99L640.33,-417.17L633.08,-365.74L657.17,-319.72L701.95,-309.32L735.29,-325.77L747.08,-353.93L728.72,-361.41L719.46,-338.14L700.02,-327.63ZM653.48,-381.10L661.97,-411.56L682.12,-423.93L708.02,-417.84L722.30,-393.00ZM-504.99,113.59L-448.47,103.82L-390.02,71.46L-380.59,3.89L-413.51,-56.49L-480.98,-65.93L-534.42,-56.69ZM-485.96,89.84L-508.48,-40.47L-477.50,-45.83L-430.07,-40.57L-404.26,7.76L-410.48,60.91L-454.27,84.36ZM-319.02,57.35L-337.07,26.86L-245.79,11.06L-246.08,2.34L-267.95,-40.27L-313.77,-51.20L-352.46,-26.38L-359.71,25.06L-335.61,71.07L-290.84,81.47L-257.50,65.02L-245.71,36.87L-264.07,29.39L-273.33,52.65L-292.76,63.16ZM-339.31,9.69L-330.81,-20.77L-310.67,-33.13L-284.77,-27.05L-270.49,-2.21ZM-205.93,22.66L-222.55,34.24L-206.34,56.29L-168.11,60.39L-134.84,45.72L-124.01,13.51L-137.93,-10.07L-160.49,-17.13L-190.50,-19.93L-207.54,-23.56L-214.46,-32.48L-209.71,-45.79L-190.42,-53.71L-170.24,-51.78L-159.25,-37.57L-142.80,-49.11L-156.77,-67.91L-192.75,-72.02L-225.17,-57.45L-234.83,-26.49L-221.47,-5.55L-198.37,0.94L-166.68,3.72L-151.17,8.43L-145.42,19.16L-152.46,35.09L-170.52,42.12L-194.41,38.59ZM-104.28,-103.50L-98.05,-113.25L-100.10,-125.28L-109.44,-132.54L-120.37,-130.65L-126.52,-120.73L-124.45,-108.72L-115.22,-101.61ZM-74.34,39.15L-95.59,-83.82L-116.88,-80.15L-95.62,42.83ZM11.63,77.28L52.49,51.18L56.00,8.34L36.13,-106.59L17.21,-103.32L20.08,-86.77L3.43,-100.07L-19.20,-102.50L-55.92,-77.08L-61.51,-26.87L-39.39,18.56L3.73,30.17L21.99,22.34L33.86,7.06L35.36,16.09L32.59,44.92L8.96,58.85L-11.69,56.70L-22.32,41.37L-38.00,52.11L-23.36,72.89ZM-14.86,-84.60L10.75,-76.48L27.99,-42.32L24.11,-4.51L1.82,11.88L-24.06,3.81L-39.79,-30.60L-36.52,-68.31ZM87.78,11.13L109.07,7.45L97.50,-59.47L101.27,-92.67L123.44,-107.75L144.97,-101.97L155.03,-78.19L168.07,-2.74L189.35,-6.42L176.31,-81.86L161.77,-117.98L124.60,-126.84L102.49,-117.80L88.75,-97.42L85.68,-115.16L66.53,-111.84ZM275.16,-18.20L282.07,-28.18L279.94,-40.19L270.01,-47.18L258.10,-45.06L251.19,-35.07L253.33,-23.07L263.26,-16.08ZM250.58,-58.94L271.19,-62.50L270.07,-69.02L270.27,-86.80L279.33,-102.92L296.48,-126.35L301.14,-156.38L279.74,-189.22L237.23,-195.50L203.40,-175.75L194.86,-141.72L214.36,-136.66L220.62,-164.30L240.76,-176.25L264.64,-173.23L278.42,-150.96L275.52,-130.31L263.68,-113.88L250.04,-91.90L249.45,-65.46ZM331.85,-207.07L326.01,-198.79L327.73,-188.80L336.02,-182.95L341.28,-183.87L340.51,-166.25L331.86,-156.41L339.85,-148.86L351.85,-163.67L353.07,-185.90L351.85,-192.97L350.12,-202.96L341.84,-208.80L331.85,-207.07ZM368.04,-213.26L362.19,-204.97L363.92,-194.98L372.20,-189.14L377.47,-190.05L376.69,-172.43L368.05,-162.59L375.84,-154.83L388.04,-169.86L389.26,-192.09L388.04,-199.15L386.31,-209.14L378.03,-214.98L368.04,-213.26Z" fill="#ffffff" stroke="#000000"/>
    <path d="M-924.39,11.26L-914.97,-143.42L-842.23,-6.59L-820.18,-11.38L-813.08,-184.51L-835.08,-185.10L-836.89,-35.70L-906.38,-167.64L-932.84,-161.89L-940.17,-13.26L-1004.50,-148.29L-1024.74,-138.53L-946.44,16.05ZM-759.84,-24.49L-738.80,-29.06L-753.07,-94.74L-750.66,-127.28L-729.40,-143.13L-707.85,-138.33L-696.84,-114.90L-680.93,-41.63L-660.10,-46.16L-675.96,-119.61L-691.92,-154.87L-729.05,-162.05L-750.22,-152.10L-761.47,-133.26L-775.14,-196.16L-796.14,-191.59ZM-574.25,-149.57L-637.78,-113.91L-645.36,-82.05L-626.97,-57.34L-595.66,-55.16L-574.96,-64.06L-558.31,-82.89L-555.37,-68.91L-535.88,-73.15L-552.76,-151.01L-571.45,-184.05L-610.21,-188.36L-640.98,-173.37L-651.65,-146.39L-632.87,-139.80L-626.22,-160.45L-608.63,-170.85L-587.03,-169.32ZM-570.24,-131.10L-563.62,-100.55L-575.58,-84.40L-596.02,-72.92L-612.63,-73.58L-623.29,-87.81L-617.54,-106.24ZM-452.26,-89.62L-452.25,-89.63L-458.57,-107.10L-467.62,-103.67L-478.79,-106.58L-483.90,-121.38L-498.97,-190.78L-478.32,-195.27L-481.79,-211.28L-502.45,-206.79L-511.53,-248.57L-532.41,-244.03L-523.34,-202.25L-540.51,-198.52L-537.03,-182.51L-519.86,-186.24L-504.78,-116.85L-493.69,-88.74L-467.74,-83.92ZM-379.35,-254.67L-373.60,-264.57L-376.14,-276.37L-385.68,-283.16L-396.41,-280.83L-402.07,-270.77L-399.51,-258.97L-390.08,-252.33ZM-343.71,-114.90L-369.93,-235.58L-390.82,-231.04L-364.60,-110.36ZM-309.03,-161.59L-324.97,-149.44L-308.01,-128.32L-270.04,-125.88L-237.77,-141.79L-228.43,-174.10L-243.19,-196.82L-265.79,-202.85L-295.58,-204.34L-312.58,-207.21L-319.80,-215.74L-315.67,-229.10L-296.93,-237.75L-276.89,-236.70L-265.43,-223.11L-249.66,-235.21L-264.27,-253.21L-300.01,-255.76L-331.45,-239.98L-339.68,-208.96L-325.59,-188.82L-302.48,-183.38L-271.03,-181.97L-255.49,-177.97L-249.36,-167.60L-255.64,-151.56L-273.20,-143.84L-296.97,-146.33ZM-106.49,-285.67L-101.07,-294.11L-103.20,-303.91L-111.64,-309.34L-116.81,-308.22L-116.78,-325.67L-108.65,-335.76L-116.89,-342.81L-128.11,-327.73L-128.37,-305.70L-126.87,-298.77L-124.74,-288.97L-116.30,-283.54L-106.49,-285.67ZM-142.00,-277.96L-136.58,-286.39L-138.71,-296.20L-147.14,-301.62L-152.31,-300.50L-152.29,-317.95L-144.16,-328.05L-152.40,-335.10L-163.62,-320.02L-163.88,-297.99L-162.38,-291.06L-160.24,-281.25L-151.81,-275.83L-142.00,-277.96ZM29.17,-210.26L-16.99,-221.27L-41.17,-268.13L-37.71,-320.97L-1.18,-349.95L33.99,-345.94L55.80,-320.43L73.29,-334.64L45.38,-364.31L-5.29,-368.88L-58.59,-330.06L-64.84,-262.97L-31.32,-204.53L33.28,-191.33L77.34,-216.73L90.31,-254.05L68.81,-260.52L57.97,-227.95ZM149.47,-222.05L113.17,-389.15L92.28,-384.61L128.58,-217.51ZM164.89,-372.91L170.64,-382.81L168.10,-394.61L158.56,-401.40L147.83,-399.07L142.17,-389.01L144.73,-377.21L154.16,-370.57ZM200.53,-233.14L174.31,-353.82L153.42,-349.28L179.64,-228.60ZM229.62,-239.46L250.55,-244.01L236.99,-306.44L235.97,-338.60L257.56,-358.00L275.52,-354.03L285.43,-334.25L302.58,-255.31L323.47,-259.85L308.29,-329.71L310.03,-357.72L330.71,-373.90L350.49,-368.25L359.12,-347.78L375.76,-271.21L396.64,-275.75L378.39,-359.76L362.43,-388.24L331.30,-392.88L310.65,-382.91L298.09,-361.03L282.07,-375.95L258.81,-377.01L237.93,-367.52L225.97,-347.06L222.24,-364.24L203.44,-360.15ZM481.50,-378.94L417.98,-343.28L410.40,-311.42L428.79,-286.71L460.10,-284.53L480.80,-293.43L497.44,-312.26L500.39,-298.28L519.88,-302.52L503.00,-380.38L484.31,-413.42L445.55,-417.73L414.78,-402.74L404.11,-375.76L422.88,-369.17L429.53,-389.82L447.12,-400.22L468.73,-398.69ZM485.52,-360.47L492.14,-329.92L480.18,-313.77L459.74,-302.29L443.13,-302.95L432.46,-317.18L438.22,-335.61ZM603.50,-318.99L603.51,-319.00L597.19,-336.47L588.14,-333.04L576.96,-335.95L571.86,-350.75L556.79,-420.15L577.44,-424.64L573.96,-440.65L553.31,-436.16L544.23,-477.94L523.34,-473.40L532.42,-431.62L515.25,-427.89L518.73,-411.88L535.90,-415.61L550.98,-346.22L562.07,-318.11L588.02,-313.29ZM647.06,-354.19L627.92,-383.57L717.51,-403.05L716.85,-411.66L693.42,-452.87L647.65,-461.73L610.46,-435.56L605.46,-384.40L631.24,-339.92L675.94,-331.54L708.21,-349.21L718.67,-377.55L700.20,-384.17L692.03,-360.77L673.26,-349.56ZM624.99,-400.45L632.09,-430.93L651.48,-444.00L677.35,-439.08L692.52,-415.13ZM-499.43,137.67L-443.96,125.62L-387.55,91.16L-381.08,23.96L-416.19,-34.35L-483.28,-40.83L-535.74,-29.43ZM-481.62,113.38L-509.40,-14.49L-479.00,-21.10L-431.88,-17.91L-404.32,28.78L-408.22,81.59L-450.52,106.63ZM-317.95,74.20L-337.08,44.82L-247.50,25.34L-248.16,16.73L-271.58,-24.48L-317.35,-33.34L-354.55,-7.17L-359.54,43.99L-333.77,88.47L-289.07,96.85L-256.80,79.18L-246.33,50.84L-264.80,44.23L-272.97,67.62L-291.74,78.83ZM-340.02,27.94L-332.91,-2.54L-313.52,-15.61L-287.65,-10.69L-272.48,13.26ZM-207.60,35.11L-223.55,47.26L-206.58,68.38L-168.61,70.82L-136.34,54.91L-127.00,22.60L-141.76,-0.12L-164.36,-6.15L-194.15,-7.64L-211.15,-10.51L-218.37,-19.04L-214.24,-32.40L-195.50,-41.05L-175.47,-40.00L-164.00,-26.41L-148.23,-38.51L-162.84,-56.51L-198.58,-59.06L-230.02,-43.28L-238.25,-12.26L-224.16,7.88L-201.05,13.32L-169.60,14.73L-154.06,18.73L-147.93,29.10L-154.21,45.14L-171.77,52.86L-195.54,50.37ZM-112.45,-93.92L-106.69,-103.82L-109.24,-115.62L-118.77,-122.41L-129.50,-120.08L-135.16,-110.02L-132.60,-98.22L-123.18,-91.59ZM-76.80,45.85L-103.02,-74.83L-123.91,-70.30L-97.69,50.39ZM9.80,79.91L49.09,52.38L50.75,9.87L26.25,-102.92L7.68,-98.89L11.21,-82.64L-5.81,-95.08L-28.28,-96.53L-63.52,-69.85L-66.92,-19.96L-43.12,24.01L0.00,33.67L17.73,25.15L28.81,9.54L30.67,18.41L29.15,47.03L6.38,61.80L-14.12,60.55L-25.28,45.84L-40.33,57.13L-24.97,77.05ZM-23.24,-79.02L2.42,-72.07L20.92,-39.03L18.68,-1.49L-2.67,15.67L-28.59,8.78L-45.60,-24.57L-43.97,-61.99ZM82.30,11.29L103.18,6.75L88.91,-58.93L91.23,-91.91L112.52,-107.76L134.05,-102.96L145.00,-79.87L161.08,-5.83L181.97,-10.37L165.89,-84.41L149.98,-119.49L112.86,-126.68L91.38,-116.81L78.66,-96.08L74.88,-113.48L56.08,-109.40ZM266.31,-25.64L272.72,-35.81L270.10,-47.59L259.99,-54.08L248.31,-51.48L241.90,-41.31L244.52,-29.54L254.63,-23.04ZM240.28,-64.89L260.51,-69.28L259.12,-75.68L258.57,-93.26L266.85,-109.58L282.81,-133.48L286.15,-163.36L263.60,-194.93L221.30,-199.34L188.69,-178.37L181.69,-144.37L201.18,-140.19L206.20,-167.78L225.61,-180.45L249.34,-178.48L263.91,-157.04L261.92,-136.50L250.91,-119.76L238.35,-97.45L238.89,-71.28ZM314.36,-214.78L308.94,-206.34L311.07,-196.54L319.50,-191.11L324.67,-192.23L324.65,-174.78L316.52,-164.69L324.74,-157.56L335.97,-172.72L336.24,-194.75L334.73,-201.68L332.60,-211.48L324.17,-216.91L314.36,-214.78ZM349.88,-222.42L344.45,-213.99L346.58,-204.18L355.02,-198.76L360.19,-199.88L360.17,-182.43L352.03,-172.33L360.07,-164.99L371.49,-180.36L371.75,-202.39L370.25,-209.33L368.12,-219.13L359.68,-224.56L349.88,-222.43Z" fill="#ffffff" stroke="#000000"/>
    <path d="M-918.08,54.41L-915.32,-98.89L-837.62,33.29L-816.03,27.62L-816.33,-143.83L-838.10,-143.48L-833.57,4.29L-907.86,-123.21L-933.77,-116.40L-934.72,30.84L-1004.03,-99.92L-1023.63,-89.41L-939.68,60.08ZM-756.93,12.11L-736.33,6.70L-753.21,-57.63L-752.20,-89.90L-731.85,-106.46L-710.35,-102.63L-698.47,-79.94L-679.65,-8.18L-659.24,-13.54L-678.03,-85.48L-695.31,-119.65L-732.32,-125.18L-752.82,-114.45L-763.15,-95.35L-779.32,-156.95L-799.89,-151.55ZM-578.76,-119.40L-640.05,-81.45L-646.19,-49.64L-626.97,-25.99L-595.92,-25.16L-575.84,-34.83L-560.18,-54.15L-556.68,-40.46L-537.59,-45.47L-557.57,-121.73L-577.44,-153.60L-615.94,-156.22L-645.72,-140.10L-655.14,-112.98L-636.30,-107.26L-630.60,-127.96L-613.65,-138.97L-592.22,-138.38ZM-574.01,-101.31L-566.17,-71.39L-577.31,-54.92L-597.03,-42.70L-613.48,-42.65L-624.62,-56.27L-619.72,-74.73ZM-455.62,-65.30L-455.62,-65.30L-462.60,-82.31L-471.40,-78.53L-482.57,-80.94L-488.24,-95.36L-506.08,-163.32L-485.85,-168.63L-489.97,-184.31L-510.20,-179.00L-520.94,-219.92L-541.39,-214.55L-530.65,-173.63L-547.47,-169.22L-543.36,-153.53L-526.54,-157.95L-508.70,-89.99L-496.54,-62.67L-470.68,-59.01ZM-390.53,-231.54L-385.27,-241.57L-388.28,-253.13L-397.99,-259.44L-408.50,-256.68L-413.67,-246.49L-410.64,-234.95L-401.04,-228.78ZM-349.38,-94.88L-380.41,-213.07L-400.87,-207.70L-369.84,-89.51ZM-317.08,-142.50L-332.32,-129.81L-314.66,-109.66L-277.02,-108.86L-245.79,-125.95L-237.92,-158.28L-253.48,-180.12L-276.08,-185.12L-305.59,-185.34L-322.52,-187.45L-330.02,-195.58L-326.50,-208.96L-308.34,-218.30L-288.49,-218.11L-276.58,-205.16L-261.50,-217.80L-276.70,-234.97L-312.15,-235.97L-342.55,-219.04L-349.38,-188.03L-334.60,-168.72L-311.52,-164.32L-280.37,-164.26L-264.84,-160.97L-258.34,-150.98L-263.87,-134.85L-280.90,-126.48L-304.51,-127.92ZM-122.11,-273.74L-117.10,-282.31L-119.62,-291.91L-128.19,-296.92L-133.25,-295.59L-133.97,-312.84L-126.36,-323.17L-134.80,-329.79L-145.25,-314.40L-144.58,-292.61L-142.80,-285.83L-140.28,-276.22L-131.71,-271.22L-122.11,-273.74ZM-156.88,-264.61L-151.88,-273.18L-154.40,-282.78L-162.97,-287.79L-168.03,-286.46L-168.75,-303.71L-161.14,-314.04L-169.58,-320.66L-180.03,-305.28L-179.36,-283.49L-177.58,-276.70L-175.06,-267.10L-166.49,-262.09L-156.88,-264.61ZM15.20,-204.93L-30.90,-213.87L-56.79,-259.16L-55.60,-311.55L-20.71,-341.74L14.22,-339.27L36.86,-314.97L53.55,-329.75L24.71,-357.90L-25.58,-360.28L-76.63,-319.65L-79.96,-253.06L-44.36,-196.71L20.07,-186.39L62.54,-213.37L73.78,-250.80L52.26,-256.30L42.92,-223.63ZM133.63,-221.67L90.67,-385.33L70.21,-379.96L113.17,-216.30ZM142.48,-371.46L147.75,-381.49L144.73,-393.06L135.02,-399.36L124.51,-396.61L119.35,-386.42L122.37,-374.87L131.97,-368.70ZM183.63,-234.80L152.61,-353.00L132.15,-347.63L163.18,-229.43ZM212.12,-242.28L232.62,-247.66L216.57,-308.80L214.20,-340.55L234.73,-360.65L252.64,-357.49L263.29,-338.34L283.58,-261.04L304.04,-266.41L286.08,-334.82L286.60,-362.60L306.36,-379.46L326.16,-374.72L335.56,-354.84L355.24,-279.85L375.70,-285.22L354.10,-367.50L337.11,-394.98L306.14,-398.25L286.16,-387.52L274.66,-365.36L258.20,-379.43L235.16,-379.50L214.92,-369.22L203.96,-348.50L199.55,-365.32L181.14,-360.49ZM455.22,-390.83L393.94,-352.88L387.79,-321.07L407.01,-297.42L438.06,-296.59L458.14,-306.26L473.80,-325.59L477.30,-311.89L496.40,-316.90L476.41,-393.16L456.54,-425.03L418.04,-427.66L388.26,-411.53L378.84,-384.41L397.69,-378.69L403.39,-399.39L420.34,-410.41L441.76,-409.81ZM459.97,-372.74L467.81,-342.82L456.68,-326.35L436.95,-314.13L420.50,-314.08L409.36,-327.70L414.26,-346.16ZM578.36,-336.73L578.37,-336.73L571.38,-353.74L562.58,-349.97L551.41,-352.37L545.74,-366.79L527.90,-434.75L548.13,-440.06L544.01,-455.74L523.78,-450.43L513.04,-491.35L492.59,-485.98L503.33,-445.06L486.51,-440.65L490.62,-424.97L507.44,-429.38L525.28,-361.42L537.44,-334.10L563.30,-330.44ZM619.93,-373.37L599.77,-401.60L687.50,-424.65L686.49,-433.14L661.59,-472.88L615.97,-479.71L580.31,-452.26L577.53,-401.47L604.89,-358.59L649.44,-352.20L680.59,-371.03L689.74,-399.49L671.20,-405.25L664.12,-381.77L646.03,-369.90ZM596.15,-418.17L601.89,-448.59L620.51,-462.34L646.29,-458.57L662.30,-435.53ZM-492.64,161.39L-438.31,147.13L-384.00,110.68L-380.45,43.97L-417.62,-12.18L-484.23,-15.75L-535.60,-2.26ZM-476.05,136.63L-508.93,11.39L-479.16,3.57L-432.44,4.73L-403.22,49.72L-404.84,102.09L-445.60,128.64ZM-315.91,90.97L-336.07,62.73L-248.34,39.68L-249.35,31.20L-274.25,-8.55L-319.87,-15.37L-355.54,12.08L-358.31,62.87L-330.95,105.74L-286.40,112.14L-255.25,93.30L-246.10,64.85L-264.64,59.09L-271.73,82.56L-289.81,94.44ZM-339.69,46.17L-333.95,15.74L-315.34,1.99L-289.56,5.76L-273.55,28.80ZM-208.48,47.66L-223.73,60.34L-206.07,80.50L-168.43,81.30L-137.20,64.21L-129.33,31.88L-144.88,10.04L-167.48,5.04L-196.99,4.82L-213.92,2.71L-221.42,-5.42L-217.90,-18.80L-199.75,-28.14L-179.89,-27.95L-167.98,-15.00L-152.90,-27.64L-168.11,-44.81L-203.55,-45.82L-233.96,-28.89L-240.79,2.12L-226.01,21.44L-202.93,25.84L-171.78,25.90L-156.25,29.19L-149.75,39.18L-155.28,55.31L-172.31,63.68L-195.92,62.23ZM-119.88,-83.92L-114.61,-93.96L-117.62,-105.52L-127.33,-111.83L-137.84,-109.07L-143.01,-98.88L-139.98,-87.33L-130.38,-81.17ZM-78.72,52.74L-109.75,-65.46L-130.21,-60.09L-99.18,58.11ZM8.33,82.74L46.01,53.86L45.85,11.77L16.85,-98.69L-1.33,-93.92L2.85,-78.01L-14.51,-89.59L-36.78,-90.07L-70.49,-62.20L-71.74,-12.74L-46.35,29.72L-3.31,37.44L13.85,28.27L24.14,12.37L26.36,21.06L26.07,49.41L4.19,64.98L-16.14,64.62L-27.79,50.54L-42.19,62.34L-26.17,81.38ZM-31.06,-72.97L-5.39,-67.19L14.29,-35.31L13.67,1.90L-6.71,19.76L-32.63,14.05L-50.86,-18.20L-50.83,-55.26ZM77.09,11.83L97.55,6.46L80.66,-57.86L81.56,-90.56L101.93,-107.13L123.42,-103.29L135.22,-80.93L154.26,-8.42L174.71,-13.79L155.68,-86.30L138.47,-120.32L101.47,-125.85L80.65,-115.18L68.95,-94.15L64.48,-111.20L46.07,-106.36ZM257.44,-32.46L263.35,-42.78L260.26,-54.32L249.99,-60.30L238.55,-57.24L232.64,-46.92L235.73,-35.39L246.00,-29.40ZM230.05,-70.15L249.86,-75.35L248.22,-81.62L246.93,-98.98L254.42,-115.46L269.19,-139.76L271.22,-169.44L247.60,-199.70L205.59,-202.26L174.25,-180.16L168.76,-146.25L188.21,-142.94L192.00,-170.43L210.65,-183.78L234.20,-182.83L249.51,-162.26L248.40,-141.87L238.23,-124.85L226.76,-102.26L228.40,-76.42ZM296.94,-221.47L291.93,-212.90L294.45,-203.30L303.02,-198.29L308.09,-199.62L308.80,-182.37L301.19,-172.04L309.62,-165.34L320.08,-180.80L319.41,-202.59L317.63,-209.38L315.11,-218.98L306.54,-223.99L296.94,-221.47ZM331.72,-230.53L326.72,-221.96L329.24,-212.36L337.81,-207.35L342.87,-208.68L343.59,-191.43L335.98,-181.10L344.23,-174.19L354.87,-189.87L354.20,-211.65L352.42,-218.44L349.90,-228.05L341.33,-233.05L331.72,-230.53Z" fill="#ffffff" stroke="#000000"/>
    <path d="M-909.69,96.95L-913.45,-54.70L-831.05,72.66L-809.95,66.15L-817.50,-103.31L-839.01,-102.05L-828.28,43.82L-907.10,-79.05L-932.42,-71.23L-927.13,74.35L-1001.18,-51.97L-1020.10,-40.75L-930.80,103.46ZM-752.19,48.31L-732.05,42.09L-751.46,-20.77L-751.83,-52.72L-732.42,-69.95L-711.00,-67.07L-698.30,-45.15L-676.66,24.99L-656.71,18.83L-678.33,-51.49L-696.85,-84.53L-733.67,-88.44L-753.48,-76.96L-762.88,-57.64L-781.47,-117.85L-801.58,-111.64ZM-581.64,-89.21L-640.61,-49.11L-645.34,-17.40L-625.34,5.16L-594.61,4.66L-575.17,-5.75L-560.51,-25.51L-556.47,-12.12L-537.81,-17.89L-560.80,-92.41L-581.79,-123.08L-619.95,-124.04L-648.71,-106.85L-656.86,-79.63L-638.00,-74.78L-633.24,-95.48L-616.95,-107.09L-595.75,-107.41ZM-576.18,-71.54L-567.16,-42.29L-577.47,-25.54L-596.46,-12.63L-612.71,-11.89L-624.30,-24.87L-620.23,-43.33ZM-457.63,-40.95L-457.63,-40.95L-465.25,-57.47L-473.79,-53.37L-484.93,-55.27L-491.15,-69.28L-511.66,-135.71L-491.89,-141.81L-496.62,-157.14L-516.39,-151.03L-528.74,-191.02L-548.73,-184.85L-536.39,-144.86L-552.82,-139.78L-548.09,-124.46L-531.65,-129.53L-511.14,-63.11L-497.97,-36.62L-472.25,-34.10ZM-400.33,-208.03L-395.55,-218.17L-399.02,-229.47L-408.89,-235.29L-419.16,-232.12L-423.83,-221.83L-420.35,-210.54L-410.60,-204.86ZM-353.87,-74.69L-389.54,-190.20L-409.54,-184.03L-373.87,-68.51ZM-323.95,-123.12L-338.49,-109.94L-320.18,-90.76L-282.94,-91.56L-252.79,-109.78L-246.38,-142.07L-262.68,-163.00L-285.23,-166.99L-314.41,-165.95L-331.23,-167.33L-338.99,-175.04L-336.08,-188.42L-318.53,-198.42L-298.89,-199.07L-286.57,-186.78L-272.20,-199.91L-287.96,-216.23L-323.04,-215.73L-352.38,-197.71L-357.81,-166.77L-342.39,-148.30L-319.39,-144.93L-288.60,-146.19L-273.11,-143.59L-266.26,-133.99L-271.04,-117.82L-287.52,-108.82L-310.92,-109.25ZM-136.79,-261.10L-132.20,-269.78L-135.10,-279.17L-143.78,-283.75L-148.73,-282.23L-150.17,-299.25L-143.08,-309.78L-151.71,-315.96L-161.39,-300.32L-159.80,-278.81L-157.76,-272.17L-154.86,-262.79L-146.18,-258.20L-136.79,-261.10ZM-170.78,-250.60L-166.19,-259.29L-169.09,-268.67L-177.77,-273.26L-182.72,-271.73L-184.16,-288.75L-177.07,-299.28L-185.70,-305.47L-195.38,-289.82L-193.79,-268.31L-191.74,-261.68L-188.85,-252.29L-180.16,-247.71L-170.78,-250.60ZM1.84,-198.90L-44.10,-205.78L-71.61,-249.45L-72.66,-301.29L-39.44,-332.61L-4.81,-331.64L18.60,-308.58L34.47,-323.90L4.77,-350.50L-45.04,-350.73L-93.78,-308.40L-94.26,-242.44L-56.68,-188.25L7.44,-180.78L48.28,-209.24L57.81,-246.72L36.30,-251.24L28.45,-218.56ZM118.20,-220.46L68.80,-380.41L48.81,-374.23L98.20,-214.28ZM120.61,-368.89L125.39,-379.03L121.92,-390.33L112.05,-396.15L101.78,-392.98L97.11,-382.69L100.59,-371.41L110.34,-365.72ZM167.07,-235.55L131.40,-351.07L111.40,-344.89L147.07,-229.38ZM194.91,-244.15L214.95,-250.33L196.49,-310.09L192.81,-341.37L212.25,-362.11L230.09,-359.74L241.42,-341.27L264.75,-265.71L284.74,-271.89L264.10,-338.75L263.44,-366.23L282.26,-383.73L302.03,-379.88L312.16,-360.63L334.79,-287.34L354.78,-293.51L329.95,-373.93L312.00,-400.37L281.25,-402.29L261.95,-390.85L251.52,-368.45L234.65,-381.67L211.88,-380.76L192.30,-369.75L182.35,-348.79L177.28,-365.23L159.28,-359.68ZM428.92,-401.27L369.95,-361.17L365.22,-329.46L385.22,-306.90L415.94,-307.40L435.39,-317.80L450.05,-337.57L454.09,-324.18L472.75,-329.94L449.76,-404.47L428.77,-435.13L390.61,-436.10L361.85,-418.90L353.70,-391.69L372.56,-386.84L377.32,-407.54L393.61,-419.14L414.81,-419.46ZM434.38,-383.59L443.40,-354.35L433.08,-337.60L414.10,-324.69L397.85,-323.94L386.26,-336.93L390.33,-355.38ZM552.93,-353.00L552.93,-353.01L545.30,-369.53L536.77,-365.42L525.62,-367.33L519.41,-381.34L498.90,-447.76L518.67,-453.87L513.94,-469.19L494.17,-463.09L481.82,-503.08L461.83,-496.90L474.17,-456.91L457.73,-451.84L462.47,-436.51L478.91,-441.59L499.42,-375.16L512.59,-348.68L538.31,-346.15ZM592.47,-390.98L571.35,-418.04L657.09,-444.53L655.73,-452.87L629.43,-491.11L584.05,-495.92L549.96,-467.28L549.37,-416.96L578.23,-375.74L622.53,-371.30L652.53,-391.24L660.36,-419.75L641.79,-424.66L635.78,-401.16L618.41,-388.66ZM567.07,-434.26L571.45,-464.57L589.27,-478.95L614.91,-476.32L631.71,-454.22ZM-484.63,184.69L-431.53,168.29L-379.39,129.96L-378.70,63.87L-417.83,9.94L-483.81,9.24L-534.02,24.74ZM-469.29,159.51L-507.08,37.11L-477.98,28.12L-431.76,27.29L-400.97,70.52L-400.35,122.36L-439.52,150.32ZM-312.92,107.60L-334.04,80.54L-248.30,54.04L-249.66,45.70L-275.96,7.47L-321.34,2.65L-355.43,31.30L-356.02,81.62L-327.16,122.84L-282.86,127.28L-252.86,107.34L-245.03,78.83L-263.60,73.92L-269.61,97.42L-286.98,109.92ZM-338.32,64.32L-333.94,34.01L-316.12,19.63L-290.48,22.26L-273.68,44.36ZM-208.57,60.24L-223.10,73.43L-204.79,92.60L-167.55,91.80L-137.41,73.59L-130.99,41.30L-147.30,20.37L-169.84,16.38L-199.02,17.41L-215.85,16.04L-223.60,8.33L-220.69,-5.05L-203.14,-15.05L-183.51,-15.71L-171.19,-3.41L-156.81,-16.54L-172.57,-32.87L-207.65,-32.36L-236.99,-14.34L-242.43,16.60L-227.00,35.07L-204.00,38.44L-173.21,37.18L-157.72,39.78L-150.87,49.38L-155.65,65.55L-172.13,74.55L-195.53,74.12ZM-126.55,-73.57L-121.77,-83.71L-125.24,-95.01L-135.11,-100.83L-145.38,-97.66L-150.05,-87.37L-146.57,-76.09L-136.82,-70.40ZM-80.09,59.77L-115.76,-55.75L-135.76,-49.57L-100.09,65.95ZM7.23,85.74L43.25,55.60L41.31,14.01L7.97,-93.96L-9.80,-88.47L-5.00,-72.92L-22.64,-83.63L-44.68,-83.16L-76.81,-54.19L-75.96,-5.25L-49.07,35.65L-6.20,41.46L10.38,31.67L19.88,15.52L22.44,24.01L23.35,52.05L2.38,68.37L-17.73,68.87L-29.84,55.45L-43.57,67.72L-26.93,85.86ZM-38.29,-66.51L-12.68,-61.88L8.12,-31.19L9.08,5.61L-10.31,24.13L-36.17,19.58L-55.55,-11.53L-57.09,-48.16ZM72.20,12.75L92.19,6.57L72.78,-56.30L72.28,-88.66L91.71,-105.89L113.12,-103.01L125.73,-81.41L147.61,-10.54L167.60,-16.72L145.72,-87.58L127.27,-120.48L90.46,-124.38L70.34,-112.95L59.66,-91.67L54.52,-108.33L36.52,-102.77ZM248.59,-38.67L253.99,-49.12L250.45,-60.39L240.04,-65.88L228.87,-62.36L223.47,-51.91L227.01,-40.64L237.41,-35.16ZM219.91,-74.77L239.28,-80.75L237.39,-86.87L235.38,-103.97L242.09,-120.58L255.66,-145.23L256.41,-174.65L231.78,-203.56L190.15,-204.32L160.10,-181.14L156.12,-147.39L175.48,-144.94L178.07,-172.27L195.94,-186.26L219.25,-186.32L235.26,-166.63L235.03,-146.43L225.69,-129.18L215.31,-106.36L218.02,-80.89ZM279.63,-227.16L275.04,-218.48L277.94,-209.10L286.63,-204.51L291.57,-206.04L293.01,-189.02L285.93,-178.49L294.54,-172.23L304.23,-187.95L302.65,-209.46L300.60,-216.09L297.70,-225.48L289.02,-230.06L279.63,-227.17ZM313.63,-237.60L309.04,-228.91L311.94,-219.53L320.63,-214.94L325.57,-216.47L327.01,-199.45L319.93,-188.92L328.38,-182.43L338.23,-198.38L336.65,-219.89L334.60,-226.52L331.70,-235.91L323.02,-240.49L313.63,-237.60Z" fill="#ffffff" stroke="#000000"/>
    <path d="M-899.26,138.76L-909.39,-10.96L-822.56,111.43L-801.98,104.10L-816.62,-63.06L-837.82,-60.90L-821.04,82.81L-904.14,-35.30L-928.84,-26.49L-917.45,117.17L-995.98,-4.55L-1014.21,7.34L-919.84,146.10ZM-745.65,84.03L-726.01,77.03L-747.86,15.72L-749.57,-15.84L-731.11,-33.69L-709.82,-31.75L-696.34,-10.62L-671.98,57.78L-652.54,50.85L-676.88,-17.73L-696.58,-49.61L-733.13,-51.91L-752.23,-39.73L-760.70,-20.24L-781.62,-78.95L-801.23,-71.96ZM-582.91,-59.11L-639.50,-16.98L-642.83,14.56L-622.11,36.01L-591.76,34.22L-572.98,23.11L-559.33,2.96L-554.77,16.02L-536.57,9.53L-562.44,-63.16L-584.49,-92.58L-622.25,-91.91L-649.94,-73.70L-656.85,-46.46L-638.00,-42.46L-634.17,-63.12L-618.56,-75.28L-597.62,-76.49ZM-576.76,-41.87L-566.61,-13.35L-576.10,3.64L-594.31,17.21L-610.35,18.63L-622.35,6.29L-619.11,-12.13ZM-458.30,-16.65L-458.30,-16.66L-466.54,-32.66L-474.80,-28.24L-485.89,-29.66L-492.63,-43.24L-515.71,-108.02L-496.43,-114.89L-501.75,-129.84L-521.04,-122.97L-534.93,-161.97L-554.43,-155.02L-540.53,-116.02L-556.57,-110.31L-551.24,-95.36L-535.21,-101.07L-512.13,-36.29L-497.99,-10.67L-472.46,-9.26ZM-408.74,-184.21L-404.44,-194.43L-408.35,-205.46L-418.35,-210.79L-428.37,-207.23L-432.55,-196.86L-428.64,-185.85L-418.76,-180.64ZM-357.18,-54.39L-397.32,-167.05L-416.82,-160.10L-376.68,-47.44ZM-329.66,-103.53L-343.47,-89.88L-324.56,-71.71L-287.79,-74.07L-258.77,-93.35L-253.79,-125.54L-270.79,-145.53L-293.25,-148.52L-322.04,-146.26L-338.73,-146.91L-346.72,-154.20L-344.41,-167.55L-327.48,-178.18L-308.11,-179.65L-295.41,-168.02L-281.76,-181.60L-298.03,-197.08L-332.67,-195.09L-360.91,-176.04L-364.97,-145.23L-348.94,-127.63L-326.07,-125.27L-295.69,-127.82L-280.27,-125.91L-273.10,-116.71L-277.14,-100.52L-293.05,-90.93L-316.19,-90.37ZM-150.52,-247.82L-146.35,-256.59L-149.61,-265.74L-158.39,-269.91L-163.21,-268.19L-165.36,-284.95L-158.80,-295.66L-167.58,-301.41L-176.49,-285.53L-174.01,-264.34L-171.71,-257.87L-168.44,-248.72L-159.67,-244.55L-150.52,-247.81ZM-183.67,-236.00L-179.50,-244.78L-182.76,-253.93L-191.54,-258.10L-196.36,-256.38L-198.50,-273.14L-191.95,-283.85L-200.73,-289.60L-209.64,-273.72L-207.16,-252.53L-204.85,-246.06L-201.59,-236.91L-192.82,-232.74L-183.67,-236.00ZM-10.87,-192.20L-56.57,-197.06L-85.60,-239.06L-88.83,-290.25L-57.33,-322.61L-23.06,-323.12L1.05,-301.32L16.09,-317.13L-14.39,-342.17L-63.63,-340.28L-110.01,-296.39L-107.69,-231.17L-68.25,-179.20L-4.57,-174.53L34.59,-204.39L42.42,-241.84L20.97,-245.39L14.60,-212.76ZM103.22,-218.44L47.63,-374.43L28.13,-367.48L83.72,-211.49ZM99.32,-365.24L103.62,-375.47L99.71,-386.49L89.71,-391.83L79.70,-388.26L75.51,-377.89L79.43,-366.88L89.30,-361.67ZM150.88,-235.42L110.74,-348.08L91.24,-341.13L131.38,-228.47ZM178.03,-245.09L197.57,-252.06L176.81,-310.34L171.84,-341.10L190.18,-362.42L207.91,-360.83L219.89,-343.05L246.15,-269.37L265.65,-276.31L242.41,-341.53L240.60,-368.65L258.46,-386.75L278.16,-383.78L288.99,-365.19L314.46,-293.70L333.96,-300.65L306.01,-379.08L287.15,-404.46L256.67,-405.05L238.08,-392.92L228.72,-370.34L211.49,-382.69L189.02,-380.83L170.14,-369.12L161.19,-347.99L155.48,-364.02L137.93,-357.77ZM402.67,-410.29L346.08,-368.16L342.75,-336.62L363.47,-315.17L393.82,-316.96L412.59,-328.07L426.24,-348.22L430.80,-335.16L449.00,-341.64L423.13,-414.33L401.09,-443.75L363.33,-443.09L335.63,-424.88L328.73,-397.64L347.58,-393.64L351.40,-414.30L367.01,-426.46L387.95,-427.67ZM408.81,-393.05L418.96,-364.52L409.48,-347.53L391.26,-333.97L375.23,-332.55L363.22,-344.89L366.46,-363.30ZM527.27,-367.83L527.27,-367.84L519.04,-383.84L510.77,-379.42L499.68,-380.83L492.95,-394.42L469.86,-459.20L489.15,-466.07L483.82,-481.02L464.54,-474.15L450.64,-513.15L431.14,-506.20L445.04,-467.20L429.01,-461.49L434.33,-446.54L450.37,-452.25L473.45,-387.47L487.59,-361.85L513.11,-360.44ZM564.74,-407.04L542.72,-432.89L626.35,-462.70L624.65,-470.89L597.04,-507.56L551.98,-510.40L519.50,-480.65L521.05,-430.89L551.31,-391.37L595.29,-388.86L624.09,-409.84L630.63,-438.35L612.07,-442.42L607.12,-418.93L590.49,-405.84ZM537.81,-448.74L540.86,-478.88L557.86,-493.85L583.31,-492.33L600.86,-471.20ZM-475.44,207.50L-423.65,189.05L-373.74,148.95L-375.86,83.61L-416.81,31.96L-482.05,34.06L-531.02,51.50ZM-461.34,181.96L-503.87,62.58L-475.49,52.47L-429.85,49.69L-397.58,91.12L-394.78,142.32L-432.31,171.62ZM-309.00,124.04L-331.02,98.19L-247.39,68.37L-249.09,60.19L-276.70,23.51L-321.76,20.67L-354.24,50.43L-352.69,100.18L-322.42,139.70L-278.45,142.21L-249.65,121.24L-243.11,92.73L-261.67,88.66L-266.61,112.15L-283.25,125.24ZM-335.93,82.34L-332.88,52.19L-315.88,37.23L-290.42,38.75L-272.88,59.88ZM-207.86,72.82L-221.67,86.46L-202.76,104.64L-165.99,102.28L-136.96,83.00L-131.99,50.81L-148.99,30.82L-171.44,27.83L-200.24,30.08L-216.92,29.44L-224.92,22.14L-222.61,8.80L-205.68,-1.83L-186.31,-3.31L-173.61,8.33L-159.96,-5.26L-176.22,-20.73L-210.87,-18.74L-239.11,0.31L-243.17,31.12L-227.14,48.72L-204.27,51.08L-173.89,48.53L-158.47,50.44L-151.29,59.64L-155.34,75.83L-171.24,85.42L-194.39,85.98ZM-132.46,-62.90L-128.16,-73.13L-132.07,-84.15L-142.07,-89.49L-152.09,-85.92L-156.27,-75.55L-152.36,-64.54L-142.48,-59.34ZM-80.90,66.92L-121.05,-45.75L-140.55,-38.80L-100.40,73.86ZM6.50,88.89L40.82,57.58L37.15,16.55L-0.37,-88.74L-17.70,-82.57L-12.30,-67.40L-30.19,-77.25L-51.95,-75.85L-82.48,-45.85L-79.57,2.48L-51.26,41.77L-8.64,45.69L7.32,35.32L16.03,18.95L18.92,27.24L21.01,54.91L0.97,71.92L-18.88,73.27L-31.42,60.52L-44.47,73.22L-27.26,90.45ZM-44.94,-59.66L-19.43,-56.16L2.44,-26.72L4.94,9.61L-13.44,28.73L-39.19,25.34L-59.66,-4.59L-62.73,-40.73ZM67.62,14.00L87.12,7.05L65.27,-54.27L63.41,-86.23L81.89,-104.08L103.16,-102.14L116.54,-81.33L141.17,-12.21L160.67,-19.16L136.04,-88.27L116.42,-120.00L79.87,-122.30L60.46,-110.16L50.82,-88.67L45.03,-104.92L27.48,-98.67ZM239.78,-44.28L244.68,-54.84L240.70,-65.83L230.18,-70.81L219.28,-66.87L214.39,-56.31L218.37,-45.32L228.88,-40.34ZM209.91,-78.75L228.80,-85.48L226.67,-91.45L223.96,-108.27L229.89,-124.97L242.26,-149.90L241.76,-179.01L216.19,-206.54L175.02,-205.53L146.30,-181.35L143.79,-147.83L163.03,-146.23L164.43,-173.35L181.50,-187.92L204.54,-188.97L221.19,-170.19L221.82,-150.22L213.32,-132.77L204.02,-109.78L207.79,-84.72ZM262.49,-231.90L258.32,-223.12L261.58,-213.97L270.36,-209.80L275.18,-211.52L277.32,-194.76L270.77,-184.05L279.55,-178.23L288.46,-194.18L285.98,-215.37L283.68,-221.84L280.41,-230.99L271.64,-235.16L262.49,-231.90ZM295.65,-243.64L291.48,-234.87L294.74,-225.72L303.52,-221.55L308.35,-223.27L310.49,-206.51L303.93,-195.80L312.55,-189.75L321.62,-205.93L319.14,-227.12L316.84,-233.59L313.58,-242.74L304.80,-246.91L295.65,-243.64Z" fill="#ffffff" stroke="#000000"/>
    <path d="M-886.83,179.76L-903.18,32.22L-812.20,149.50L-792.17,141.39L-813.70,-23.19L-834.57,-20.16L-811.90,121.16L-899.02,7.95L-923.06,17.70L-905.73,159.18L-988.48,42.23L-1005.99,54.74L-906.86,187.87ZM-737.35,119.17L-718.24,111.42L-742.42,51.75L-745.45,20.64L-727.96,2.22L-706.84,3.23L-692.63,23.55L-665.66,90.11L-646.74,82.44L-673.69,15.70L-694.51,-14.97L-730.73,-15.70L-749.08,-2.85L-756.63,16.76L-779.79,-40.37L-798.88,-32.64ZM-582.58,-29.17L-636.72,14.86L-638.68,46.16L-617.29,66.49L-587.38,63.43L-569.29,51.66L-556.65,31.17L-551.60,43.88L-533.89,36.70L-562.53,-34.03L-585.56,-62.18L-622.84,-59.92L-649.44,-40.75L-655.11,-13.54L-636.32,-10.39L-633.41,-30.97L-618.50,-43.64L-597.86,-45.73ZM-575.78,-12.40L-564.54,15.36L-573.19,32.56L-590.62,46.73L-606.41,48.82L-618.79,37.12L-616.37,18.79ZM-457.64,7.51L-457.64,7.51L-466.46,-7.96L-474.44,-3.24L-485.46,-4.17L-492.69,-17.31L-518.24,-80.35L-499.48,-87.95L-505.37,-102.50L-524.14,-94.90L-539.52,-132.85L-558.50,-125.16L-543.11,-87.21L-558.72,-80.88L-552.82,-66.33L-537.22,-72.66L-511.67,-9.62L-496.61,15.10L-471.33,15.42ZM-415.76,-160.17L-411.94,-170.45L-416.27,-181.18L-426.38,-186.03L-436.12,-182.08L-439.82,-171.66L-435.49,-160.95L-425.50,-156.22ZM-359.31,-34.06L-403.75,-143.69L-422.72,-136.00L-378.29,-26.36ZM-334.19,-83.78L-347.26,-69.71L-327.81,-52.55L-291.57,-56.44L-263.70,-76.72L-260.15,-108.74L-277.79,-127.78L-300.11,-129.79L-328.47,-126.34L-344.99,-126.27L-353.20,-133.14L-351.48,-146.42L-335.20,-157.64L-316.11,-159.92L-303.07,-148.96L-290.16,-162.96L-306.89,-177.56L-341.05,-174.14L-368.14,-154.12L-370.85,-123.50L-354.27,-106.78L-331.56,-105.42L-301.65,-109.22L-286.33,-107.98L-278.85,-99.20L-282.16,-83.03L-297.48,-72.88L-320.32,-71.34ZM-163.26,-233.95L-159.52,-242.80L-163.13,-251.70L-171.98,-255.45L-176.67,-253.55L-179.50,-270.02L-173.47,-280.88L-182.40,-286.19L-190.53,-270.12L-187.18,-249.29L-184.63,-242.99L-181.02,-234.08L-172.17,-230.34L-163.26,-233.95ZM-195.52,-220.87L-191.78,-229.72L-195.39,-238.63L-204.24,-242.37L-208.93,-240.47L-211.76,-256.94L-205.73,-267.80L-214.65,-273.11L-222.78,-257.05L-219.44,-236.21L-216.89,-229.91L-213.28,-221.01L-204.43,-217.26L-195.52,-220.87ZM-22.90,-184.90L-68.27,-187.76L-98.75,-228.05L-104.10,-278.49L-74.34,-311.80L-40.49,-313.76L-15.75,-293.23L-1.55,-309.50L-32.73,-332.95L-81.31,-329.00L-125.29,-283.66L-120.24,-219.31L-79.07,-169.63L-15.93,-167.70L21.50,-198.87L27.66,-236.20L6.31,-238.81L1.39,-206.29ZM88.72,-215.65L27.20,-367.45L8.22,-359.76L69.75,-207.96ZM78.66,-360.56L82.48,-370.85L78.15,-381.58L68.04,-386.43L58.30,-382.48L54.60,-372.05L58.93,-361.34L68.92,-356.61ZM135.11,-234.45L90.67,-344.09L71.70,-336.40L116.13,-226.76ZM161.53,-245.16L180.55,-252.87L157.56,-309.58L151.35,-339.77L168.57,-361.61L186.16,-360.79L198.75,-343.74L227.82,-272.03L246.79,-279.72L221.07,-343.18L218.14,-369.91L235.02,-388.55L254.61,-386.45L266.10,-368.53L294.29,-298.97L313.27,-306.66L282.33,-382.98L262.62,-407.26L232.48,-406.56L214.62,-393.79L206.33,-371.08L188.78,-382.55L166.65,-379.76L148.49,-367.39L140.54,-346.13L134.21,-361.74L117.14,-354.81ZM376.53,-417.91L322.39,-373.88L320.43,-342.58L341.82,-322.25L371.73,-325.31L389.82,-337.08L402.46,-357.57L407.51,-344.86L425.22,-352.04L396.58,-422.77L373.56,-450.92L336.27,-448.66L309.67,-429.49L304.00,-402.28L322.79,-399.13L325.70,-419.71L340.61,-432.38L361.25,-434.47ZM383.33,-401.14L394.57,-373.38L385.92,-356.18L368.49,-342.01L352.70,-339.92L340.32,-351.62L342.74,-369.95ZM501.47,-381.23L501.47,-381.23L492.65,-396.70L484.67,-391.98L473.65,-392.91L466.42,-406.05L440.87,-469.09L459.63,-476.69L453.74,-491.24L434.97,-483.64L419.59,-521.59L400.62,-513.90L416.00,-475.95L400.40,-469.62L406.29,-455.07L421.89,-461.40L447.45,-398.36L462.50,-373.64L487.79,-373.32ZM536.84,-421.56L513.98,-446.17L595.36,-479.17L593.34,-487.19L564.50,-522.27L519.85,-523.17L489.01,-492.39L492.65,-443.28L524.23,-405.51L567.79,-404.89L595.37,-426.84L600.62,-455.29L582.11,-458.52L578.22,-435.10L562.33,-421.46ZM508.46,-461.62L510.19,-491.55L526.36,-507.06L551.58,-506.63L569.81,-486.49ZM-465.09,229.75L-414.70,209.32L-367.08,167.59L-371.93,103.10L-414.58,53.80L-478.97,58.63L-526.62,77.94ZM-452.24,203.92L-499.33,87.75L-471.71,76.55L-426.72,71.87L-393.08,111.45L-388.15,161.93L-423.99,192.47ZM-304.14,140.23L-327.00,115.62L-245.62,82.62L-247.64,74.60L-276.48,39.52L-321.13,38.62L-351.97,69.40L-348.33,118.51L-316.75,156.28L-273.19,156.90L-245.61,134.95L-240.36,106.50L-258.87,103.27L-262.76,126.69L-278.65,140.33ZM-332.53,100.16L-330.79,70.24L-314.62,54.73L-289.40,55.16L-271.17,75.30ZM-206.37,85.34L-219.43,99.41L-199.98,116.57L-163.74,112.67L-135.87,92.40L-132.32,60.38L-149.97,41.34L-172.28,39.33L-200.64,42.78L-217.16,42.85L-225.37,35.98L-223.65,22.69L-207.37,11.47L-188.29,9.20L-175.25,20.15L-162.33,6.15L-179.06,-8.45L-213.22,-5.02L-240.31,15.00L-243.03,45.62L-226.44,62.34L-203.74,63.70L-173.82,59.90L-158.50,61.13L-151.02,69.92L-154.33,86.09L-169.65,96.24L-192.50,97.77ZM-137.60,-51.98L-133.78,-62.26L-138.11,-72.99L-148.22,-77.84L-157.97,-73.89L-161.67,-63.47L-157.33,-52.76L-147.35,-48.03ZM-81.15,74.13L-125.59,-35.50L-144.57,-27.81L-100.13,81.82ZM6.15,92.15L38.75,59.75L33.38,19.37L-8.15,-83.10L-25.02,-76.27L-19.04,-61.51L-37.14,-70.48L-58.58,-68.17L-87.49,-37.24L-82.56,10.40L-52.93,48.03L-10.64,50.10L4.70,39.17L12.61,22.63L15.81,30.70L19.05,57.95L-0.03,75.61L-19.59,77.78L-32.52,65.71L-44.89,78.83L-27.14,95.12ZM-50.96,-52.47L-25.61,-50.10L-2.76,-21.93L1.25,13.87L-16.10,33.55L-41.69,31.28L-63.19,2.57L-67.75,-33.02ZM63.38,15.55L82.36,7.86L58.17,-51.81L54.98,-83.31L72.49,-101.74L93.59,-100.73L107.70,-80.72L134.96,-13.46L153.93,-21.15L126.67,-88.41L105.94,-118.94L69.72,-119.66L51.06,-106.84L42.43,-85.20L36.02,-101.01L18.94,-94.09ZM231.05,-49.33L235.44,-59.97L231.05,-70.66L220.44,-75.14L209.84,-70.78L205.45,-60.14L209.84,-49.44L220.45,-44.97ZM200.08,-82.12L218.46,-89.57L216.10,-95.38L212.71,-111.88L217.86,-128.64L229.03,-153.80L227.30,-182.55L200.87,-208.67L160.23,-205.93L132.87,-180.83L131.80,-147.59L150.89,-146.82L151.12,-173.68L167.38,-188.81L190.10,-190.82L207.35,-172.96L208.81,-153.25L201.16,-135.65L192.94,-112.54L197.72,-87.93ZM245.55,-235.69L241.80,-226.84L245.41,-217.94L254.26,-214.19L258.96,-216.09L261.78,-199.62L255.76,-188.76L264.68,-183.38L272.81,-199.51L269.47,-220.35L266.91,-226.65L263.30,-235.56L254.46,-239.30L245.55,-235.69ZM277.82,-248.70L274.08,-239.85L277.69,-230.95L286.54,-227.20L291.23,-229.10L294.06,-212.63L288.03,-201.77L296.81,-196.15L305.09,-212.53L301.74,-233.36L299.19,-239.66L295.58,-248.57L286.73,-252.31L277.82,-248.70Z" fill="#ffffff" stroke="#000000"/>
    <path d="M-872.47,219.83L-894.87,74.74L-800.00,186.78L-780.56,177.91L-808.80,16.20L-829.29,20.08L-800.91,158.76L-891.79,50.59L-915.13,61.23L-892.01,200.30L-978.73,88.24L-995.50,101.35L-891.92,228.70ZM-727.33,153.64L-708.77,145.18L-735.19,87.24L-739.50,56.63L-723.01,37.69L-702.09,37.79L-687.19,57.27L-657.73,121.90L-639.35,113.52L-668.81,48.71L-690.68,19.28L-726.49,20.10L-744.09,33.57L-750.72,53.27L-776.02,-2.21L-794.55,6.24ZM-580.68,0.52L-632.31,46.31L-632.92,77.33L-610.93,96.51L-581.50,92.22L-564.13,79.82L-552.51,59.04L-546.97,71.39L-529.78,63.55L-561.07,-5.14L-585.01,-31.97L-621.76,-28.16L-647.23,-8.10L-651.69,19.03L-632.98,21.35L-630.98,0.90L-616.78,-12.26L-596.47,-15.19ZM-573.25,16.81L-560.97,43.76L-568.79,61.11L-585.41,75.85L-600.92,78.59L-613.65,67.56L-612.03,49.34ZM-455.68,31.48L-455.67,31.48L-465.04,16.57L-472.73,21.56L-483.66,21.12L-491.36,8.44L-519.27,-52.77L-501.05,-61.08L-507.49,-75.21L-525.71,-66.90L-542.52,-103.75L-560.94,-95.34L-544.14,-58.50L-559.28,-51.59L-552.84,-37.46L-537.69,-44.37L-509.78,16.84L-493.86,40.63L-468.86,39.87ZM-421.38,-135.98L-418.05,-146.30L-422.78,-156.72L-432.97,-161.08L-442.43,-156.77L-445.65,-146.31L-440.91,-135.91L-430.84,-131.66ZM-360.27,-13.75L-408.82,-120.21L-427.24,-111.80L-378.70,-5.35ZM-337.56,-63.95L-349.87,-49.50L-329.92,-33.36L-294.28,-38.74L-267.60,-59.96L-265.45,-91.74L-283.69,-109.81L-305.82,-110.85L-333.70,-106.24L-350.02,-105.48L-358.42,-111.92L-357.28,-125.12L-341.67,-136.89L-322.91,-139.95L-309.56,-129.67L-297.40,-144.05L-314.54,-157.77L-348.15,-152.94L-374.08,-132.01L-375.46,-101.64L-358.36,-85.83L-335.87,-85.44L-306.48,-90.46L-291.29,-89.89L-283.53,-81.52L-286.11,-65.41L-300.82,-54.73L-323.32,-52.25ZM-175.01,-219.56L-171.69,-228.46L-175.63,-237.11L-184.53,-240.44L-189.09,-238.36L-192.58,-254.52L-187.08,-265.50L-196.13,-270.37L-203.48,-254.15L-199.29,-233.71L-196.51,-227.59L-192.56,-218.94L-183.66,-215.62L-175.01,-219.56ZM-206.33,-205.28L-203.01,-214.18L-206.95,-222.83L-215.85,-226.15L-220.41,-224.07L-223.90,-240.23L-218.40,-251.22L-227.45,-256.09L-234.80,-239.87L-230.62,-219.42L-227.83,-213.31L-223.88,-204.66L-214.98,-201.33L-206.33,-205.28ZM-34.25,-177.03L-79.20,-177.95L-111.01,-216.46L-118.43,-266.08L-90.44,-300.25L-57.08,-303.61L-31.76,-284.38L-18.42,-301.05L-50.22,-322.91L-98.05,-316.95L-139.59,-270.29L-131.88,-206.92L-89.10,-159.57L-26.63,-160.34L9.04,-192.71L13.54,-229.87L-7.66,-231.54L-11.15,-199.20ZM74.75,-212.14L7.53,-359.54L-10.89,-351.13L56.33,-203.74ZM58.68,-354.90L62.02,-365.23L57.29,-375.65L47.09,-380.01L37.63,-375.70L34.42,-365.24L39.15,-354.84L49.22,-350.59ZM119.79,-232.68L71.24,-339.13L52.82,-330.73L101.37,-224.28ZM145.45,-244.38L163.91,-252.80L138.80,-307.87L131.39,-337.44L147.47,-359.75L164.89,-359.68L178.06,-343.36L209.81,-273.73L228.23,-282.13L200.13,-343.75L196.10,-370.04L211.99,-389.17L231.44,-387.92L243.55,-370.71L274.35,-303.17L292.78,-311.57L258.98,-385.68L238.47,-408.83L208.72,-406.86L191.61,-393.49L184.38,-370.70L166.56,-381.29L144.81,-377.60L127.38,-364.60L120.43,-343.26L113.52,-358.41L96.94,-350.85ZM350.58,-424.17L298.95,-378.38L298.34,-347.36L320.33,-328.18L349.76,-332.47L367.13,-344.86L378.75,-365.65L384.29,-353.30L401.48,-361.14L370.19,-429.83L346.24,-456.66L309.50,-452.85L284.03,-432.79L279.57,-405.66L298.28,-403.34L300.28,-423.79L314.48,-436.95L334.78,-439.88ZM358.01,-407.88L370.29,-380.93L362.47,-363.58L345.85,-348.84L330.34,-346.10L317.60,-357.13L319.22,-375.35ZM475.58,-393.21L475.58,-393.21L466.22,-408.12L458.53,-403.13L447.60,-403.57L439.90,-416.25L411.99,-477.46L430.21,-485.77L423.77,-499.90L405.55,-491.59L388.74,-528.44L370.32,-520.03L387.12,-483.19L371.97,-476.28L378.42,-462.15L393.56,-469.06L421.48,-407.85L437.40,-384.06L462.40,-384.82ZM508.83,-434.56L485.20,-457.91L564.22,-493.96L561.88,-501.80L531.90,-535.24L487.75,-534.24L458.58,-502.52L464.24,-454.15L497.05,-418.16L540.12,-419.39L566.44,-442.25L570.43,-470.58L552.00,-473.00L549.14,-449.69L534.02,-435.54ZM479.09,-472.95L479.54,-502.59L494.86,-518.59L519.80,-519.24L538.66,-500.11ZM-453.64,251.39L-404.71,229.08L-359.41,185.82L-366.94,122.31L-411.17,75.39L-474.59,82.89L-520.85,103.99ZM-442.03,225.32L-493.47,112.52L-466.65,100.29L-422.39,93.77L-387.48,131.45L-380.47,181.12L-414.60,212.81ZM-298.39,156.13L-322.01,132.77L-243.00,96.72L-245.34,88.88L-275.31,55.45L-319.47,56.45L-348.64,88.16L-342.97,136.53L-310.17,172.52L-267.09,171.29L-240.78,148.44L-236.79,120.10L-255.22,117.69L-258.07,140.99L-273.20,155.14ZM-328.13,117.74L-327.68,88.10L-312.35,72.09L-287.42,71.44L-268.55,90.57ZM-204.09,97.75L-216.41,112.20L-196.46,128.34L-160.82,122.96L-134.14,101.74L-131.99,69.96L-150.23,51.89L-172.36,50.85L-200.24,55.46L-216.56,56.22L-224.96,49.78L-223.82,36.58L-208.21,24.81L-189.45,21.75L-176.10,32.02L-163.93,17.65L-181.08,3.93L-214.69,8.76L-240.61,29.69L-242.00,60.06L-224.90,75.87L-202.41,76.26L-173.01,71.24L-157.83,71.81L-150.06,80.18L-152.65,96.29L-167.35,106.97L-189.86,109.45ZM-141.96,-40.84L-138.62,-51.17L-143.35,-61.58L-153.54,-65.95L-163.01,-61.63L-166.22,-51.18L-161.48,-40.78L-151.42,-36.53ZM-80.85,81.38L-129.39,-25.07L-147.82,-16.67L-99.27,89.78ZM6.18,95.49L37.02,62.10L30.01,22.42L-15.36,-77.07L-31.74,-69.60L-25.21,-55.27L-43.47,-63.37L-64.56,-60.19L-91.81,-28.40L-84.93,18.46L-54.06,54.39L-12.19,54.65L2.50,43.21L9.62,26.52L13.13,34.36L17.48,61.16L-0.62,79.41L-19.86,82.38L-33.15,71.01L-44.81,84.48L-26.59,99.84ZM-56.37,-45.00L-31.22,-43.72L-7.45,-16.85L-1.97,18.35L-18.28,38.53L-43.66,37.37L-66.12,9.91L-72.14,-25.06ZM59.49,17.38L77.92,8.98L51.50,-48.96L47.01,-79.95L63.53,-98.90L84.43,-98.79L99.21,-79.62L128.99,-14.31L147.41,-22.71L117.63,-88.02L95.85,-117.30L60.04,-116.49L42.14,-103.03L34.53,-81.28L27.53,-96.63L10.95,-89.07ZM222.42,-53.82L226.31,-64.52L221.52,-74.90L210.85,-78.87L200.56,-74.11L196.67,-63.41L201.46,-53.04L212.13,-49.06ZM190.43,-84.91L208.27,-93.05L205.70,-98.69L201.65,-114.86L206.03,-131.63L216.01,-156.97L213.08,-185.30L185.86,-209.99L145.82,-205.56L119.85,-179.60L120.20,-146.71L139.09,-146.76L138.19,-173.31L153.61,-188.95L175.97,-191.89L193.77,-174.98L196.05,-155.56L189.23,-137.85L182.09,-114.67L187.86,-90.55ZM228.87,-238.58L225.54,-229.68L229.48,-221.03L238.38,-217.70L242.94,-219.78L246.43,-203.62L240.94,-192.64L249.98,-187.69L257.33,-203.99L253.15,-224.43L250.36,-230.55L246.42,-239.20L237.51,-242.52L228.86,-238.58ZM260.21,-252.80L256.88,-243.90L260.82,-235.25L269.72,-231.92L274.28,-234.00L277.77,-217.84L272.28,-206.86L281.19,-201.68L288.67,-218.21L284.49,-238.66L281.70,-244.77L277.76,-253.42L268.85,-256.74L260.21,-252.80Z" fill="#ffffff" stroke="#000000"/>
    <path d="M-906.35,492L-906.35,469.28L-898.22,492L-894.99,492L-886.86,469.28L-886.86,492L-883.25,492L-883.25,464.64L-888.22,464.64L-896.55,487.33L-904.68,464.64L-909.96,464.64L-909.96,492ZM-865.67,478.75L-876.82,482.17L-879.09,486.89L-877.05,491.38L-872.23,492.78L-868.69,492.09L-865.45,489.71L-865.46,492L-862.27,492L-862.27,479.25L-864.06,473.45L-869.98,471.46L-875.30,472.76L-877.88,476.62L-875.17,478.28L-873.43,475.28L-870.33,474.25L-867.00,475.23ZM-865.67,481.77L-865.68,486.77L-868.09,488.89L-871.68,489.99L-874.26,489.33L-875.44,486.74L-873.91,484.05ZM-857.12,492L-853.70,492L-853.70,481.25L-852.22,476.17L-848.35,474.41L-845.15,475.90L-844.22,479.88L-844.22,492L-840.80,492L-840.80,479.88L-842.09,473.85L-847.66,471.47L-851.35,472.28L-854.04,475.09L-854.04,472.24L-857.12,472.24ZM-833.34,468.94L-832.11,467.58L-832.10,465.65L-833.36,464.27L-835.12,464.27L-836.35,465.65L-836.35,467.58L-835.10,468.94ZM-832.52,492L-832.52,472.24L-835.94,472.24L-835.94,492ZM-818.31,468.12L-817.85,465.29L-820.94,464.71L-825.30,466.41L-826.70,471.29L-826.70,472.24L-829.67,472.24L-829.67,474.86L-826.70,474.86L-826.70,492L-823.40,492L-823.40,474.86L-819.56,474.86L-819.56,472.24L-823.40,472.24L-823.40,471.21L-822.75,468.65L-820.52,467.74ZM-807.97,471.46L-814.77,474.29L-817.39,482.12L-814.77,489.95L-807.97,492.78L-801.17,489.95L-798.55,482.12L-801.16,474.29ZM-807.97,489.87L-812.08,488.06L-813.90,482.12L-812.08,476.18L-807.97,474.37L-803.85,476.18L-802.04,482.12L-803.85,488.06ZM-795.03,492L-791.61,492L-791.61,481.25L-790.13,476.17L-786.26,474.41L-783.06,475.90L-782.13,479.88L-782.13,492L-778.71,492L-778.71,479.88L-780.00,473.85L-785.56,471.47L-789.26,472.28L-791.95,475.09L-791.95,472.24L-795.03,472.24ZM-765.45,492.27L-765.45,492.26L-765.85,489.32L-767.38,489.55L-769.03,488.71L-769.32,486.22L-769.32,474.86L-765.94,474.86L-765.94,472.24L-769.32,472.24L-769.32,465.40L-772.74,465.40L-772.74,472.24L-775.55,472.24L-775.55,474.86L-772.74,474.86L-772.74,486.22L-771.96,491.00L-768.07,492.63ZM-737.50,487.93L-737.50,478.13L-749.05,478.13L-749.05,481.31L-740.99,481.31L-740.97,486.22L-748.63,489.75L-755.95,486.41L-758.55,478.32L-756.06,470.17L-749.21,466.88L-744.27,468.25L-741.30,473.01L-738.24,471.11L-741.44,465.93L-749.13,463.79L-758.98,468.04L-762.42,478.32L-758.78,488.60L-748.74,492.86ZM-724.35,474.77L-721.78,475.62L-720.76,472.73L-724.11,471.47L-727.37,472.48L-729.65,475.66L-729.65,472.24L-732.73,472.24L-732.73,491.81L-729.31,492L-729.31,481.32L-728.06,476.56ZM-710.01,471.46L-716.81,474.29L-719.42,482.12L-716.81,489.95L-710.01,492.78L-703.20,489.95L-700.58,482.12L-703.20,474.29ZM-710.01,489.87L-714.12,488.06L-715.93,482.12L-714.12,476.18L-710.01,474.37L-705.89,476.18L-704.07,482.12L-705.89,488.06ZM-688.58,492.27L-688.58,492.26L-688.97,489.32L-690.51,489.55L-692.15,488.71L-692.45,486.22L-692.45,474.86L-689.07,474.86L-689.07,472.24L-692.45,472.24L-692.45,465.40L-695.87,465.40L-695.87,472.24L-698.68,472.24L-698.68,474.86L-695.87,474.86L-695.87,486.22L-695.09,491.00L-691.19,492.63ZM-680.57,488.24L-682.57,483.00L-667.90,482.99L-667.71,481.63L-669.97,474.39L-676.83,471.45L-683.53,474.28L-686.05,482.11L-683.53,489.93L-676.83,492.76L-671.18,491.10L-668.58,487.02L-671.25,485.36L-673.32,488.74L-676.63,489.86ZM-682.45,480.26L-680.31,475.73L-676.83,474.35L-672.95,476.00L-671.40,480.26ZM-661.99,485.88L-664.90,487.24L-662.96,491.11L-657.11,492.78L-651.52,491.39L-648.97,486.66L-650.50,482.61L-653.83,480.90L-658.44,479.65L-661.00,478.62L-661.84,477.05L-660.74,475.10L-657.52,474.38L-654.42,475.23L-653.09,477.74L-650.21,476.38L-651.88,473.07L-657.39,471.46L-662.84,472.86L-665.18,477.43L-663.66,481.06L-660.23,482.69L-655.36,483.98L-653.07,485.13L-652.46,486.96L-653.99,489.26L-656.99,489.87L-660.63,488.67ZM-641.92,483.45L-638.72,483.45L-637.20,484.67L-633.14,492.30L-630.05,490.63L-634.16,483.45L-636.67,482.04L-634.62,480.06L-632.77,476.14L-631.66,475.64L-630.10,475.39L-630.56,472.24L-633.40,472.52L-635.30,474.17L-637.43,478.82L-638.72,480.60L-641.91,480.60L-641.91,464.64L-643.66,464.64L-645.32,464.64L-645.33,492L-641.92,492ZM-625.58,492.01L-615.04,492.01L-607.42,490.45L-604.53,484.21L-606.06,480.03L-610.31,477.70L-606.80,475.27L-605.82,471.62L-608.58,466.13L-615.58,464.63L-625.58,464.63ZM-621.94,476.42L-621.95,467.89L-616.40,467.89L-611.64,468.44L-609.62,472.08L-611.57,475.51L-615.93,476.42ZM-621.94,488.79L-621.94,479.64L-615.54,479.64L-610.64,480.53L-608.45,484.21L-610.32,488.02L-615.04,488.79ZM-592.40,471.46L-599.20,474.29L-601.81,482.12L-599.20,489.95L-592.40,492.78L-585.59,489.95L-582.97,482.12L-585.59,474.29ZM-592.40,489.87L-596.51,488.06L-598.32,482.12L-596.51,476.18L-592.40,474.37L-588.28,476.18L-586.46,482.12L-588.28,488.06ZM-571.27,471.46L-578.07,474.29L-580.68,482.12L-578.07,489.95L-571.27,492.78L-564.46,489.95L-561.85,482.12L-564.46,474.29ZM-571.27,489.87L-575.38,488.06L-577.19,482.12L-575.38,476.18L-571.27,474.37L-567.15,476.18L-565.33,482.12L-567.15,488.06ZM-554.82,483.45L-551.62,483.45L-550.10,484.67L-546.04,492.30L-542.96,490.63L-547.06,483.45L-549.57,482.04L-547.52,480.06L-545.67,476.14L-544.56,475.64L-543.00,475.39L-543.46,472.24L-546.31,472.52L-548.20,474.17L-550.34,478.82L-551.62,480.60L-554.82,480.60L-554.82,464.64L-556.56,464.64L-558.23,464.64L-558.23,492L-554.82,492Z"/>
</svg>