<?xml version="1.0"?>
<svg xmlns="http://www.w3.org/2000/svg" width="1920" height="1080" viewBox="-960 -540 1920 1080">
    <path d="M-580.25,-210L-580.25,-368.75L-519.75,-368.75L-519.75,-390L-664.50,-390L-664.50,-368.75L-604,-368.75L-604,-210ZM-499.25,-210L-476.59,-210L-476.59,-280.75L-466.83,-313.69L-441.42,-325.23L-420.33,-315.48L-414.24,-288.92L-414.25,-210L-391.81,-210L-391.71,-289.10L-400.25,-328.93L-436.84,-344.62L-460.84,-339.11L-476.62,-322.25L-476.62,-390L-499.25,-390ZM-332.38,-234.73L-345.50,-269.23L-249,-269.25L-247.75,-278.25L-262.64,-325.87L-307.74,-345.22L-351.85,-326.61L-368.42,-275.10L-351.85,-223.59L-307.74,-204.97L-270.60,-215.94L-253.50,-242.75L-271.02,-253.69L-284.65,-231.44L-306.46,-224.11ZM-344.75,-287.25L-330.63,-317.01L-307.76,-326.13L-282.25,-315.28L-272,-287.25ZM-99.14,-323.34L-82.25,-317.75L-75.50,-336.75L-97.52,-345.09L-119.00,-338.43L-134,-317.50L-134,-340L-154.25,-340L-154.25,-211.27L-131.75,-210L-131.75,-280.25L-123.52,-311.59ZM-4.76,-345.13L-49.51,-326.51L-66.72,-275.00L-49.51,-223.49L-4.76,-204.88L40.00,-223.50L57.22,-275.00L40.02,-326.51ZM-4.76,-223.99L-31.81,-235.91L-43.75,-274.98L-31.80,-314.06L-4.76,-325.99L22.32,-314.06L34.28,-274.98L22.32,-235.91ZM103.50,-210L103.50,-390L81,-390L81,-210ZM163.37,-234.73L150.25,-269.23L246.75,-269.25L248,-278.25L233.11,-325.87L188.01,-345.22L143.90,-326.61L127.33,-275.10L143.90,-223.59L188.01,-204.97L225.15,-215.94L242.25,-242.75L224.73,-253.69L211.10,-231.44L189.29,-224.11ZM151,-287.25L165.12,-317.01L187.99,-326.13L213.50,-315.28L223.75,-287.25ZM394.74,-345.13L349.99,-326.51L332.78,-275.00L349.99,-223.49L394.74,-204.88L439.50,-223.50L456.72,-275.00L439.52,-326.51ZM394.74,-223.99L367.69,-235.91L355.75,-274.98L367.70,-314.06L394.74,-325.99L421.82,-314.06L433.78,-274.98L421.82,-235.91ZM541.49,-367.07L544.50,-385.75L524.14,-389.53L495.46,-378.37L486.25,-346.25L486.25,-340L466.75,-340L466.75,-322.75L486.25,-322.75L486.25,-210L508,-210L508,-322.75L533.25,-322.75L533.25,-340L508,-340L508,-346.75L512.24,-363.60L526.95,-369.63ZM-858.88,-165L-881.38,-165L-881.38,-101.48L-895.47,-114.37L-916.31,-119.57L-958.53,-100.00L-973.19,-49.45L-958.53,1.11L-916.31,20.68L-894.26,14.62L-878.88,-2.75L-878.88,15L-858.88,15ZM-915.01,-100.45L-889.23,-87.57L-878.55,-49.45L-890.19,-11.33L-915.01,1.54L-940.18,-11.33L-950.22,-49.45L-940.18,-87.57ZM-799.01,-9.73L-812.12,-44.23L-715.63,-44.25L-714.38,-53.25L-729.26,-100.87L-774.36,-120.22L-818.47,-101.61L-835.05,-50.10L-818.47,1.41L-774.36,20.03L-737.22,9.06L-720.13,-17.75L-737.64,-28.69L-751.28,-6.44L-773.09,0.89ZM-811.38,-62.25L-797.25,-92.01L-774.38,-101.13L-748.88,-90.28L-738.63,-62.25ZM-676.77,-25.27L-695.88,-16.34L-683.16,9.17L-644.64,20.16L-607.89,11.01L-591.06,-20.13L-601.17,-46.80L-623.07,-58.06L-653.38,-66.25L-670.22,-73L-675.75,-83.38L-668.51,-96.21L-647.30,-100.91L-626.93,-95.35L-618.17,-78.81L-599.24,-87.74L-610.25,-109.52L-646.45,-120.13L-682.31,-110.92L-697.71,-80.85L-687.72,-56.99L-665.16,-46.22L-633.13,-37.75L-618.03,-30.17L-614.04,-18.13L-624.09,-3.03L-643.88,0.98L-667.78,-6.88ZM-550.05,-136.74L-541.92,-145.64L-541.90,-158.35L-550.19,-167.46L-561.75,-167.46L-569.82,-158.37L-569.83,-145.67L-561.61,-136.74ZM-544.63,15L-544.63,-115L-567.13,-115L-567.13,15ZM-463.15,69.39L-416.58,49.85L-405.38,6.50L-405.38,-115L-425.38,-115L-425.38,-97.50L-440.10,-114.11L-462.90,-120.61L-505.10,-101.04L-519.75,-50.49L-505.10,0.06L-462.90,19.63L-442.76,14.83L-427.88,1.25L-427.94,10.79L-435.89,39.89L-462.62,50.00L-483.43,44.13L-491.63,26.50L-509.63,34.75L-498.28,58.67ZM-461.62,-101.48L-436.77,-88.59L-425.13,-50.47L-435.83,-12.35L-461.62,0.52L-486.75,-12.35L-496.79,-50.47L-486.75,-88.59ZM-373.24,15L-350.74,15L-350.74,-55.75L-340.99,-89.15L-315.56,-100.70L-294.48,-90.95L-288.38,-64.75L-288.38,15L-265.88,15L-265.88,-64.75L-274.39,-104.40L-310.98,-120.09L-335.28,-114.73L-352.99,-96.25L-352.99,-115L-373.24,-115ZM-70.40,0.28L-55.13,17L-38.88,2.50L-56.87,-17.48L-45.85,-42.67L-44.63,-70.50L-66.86,-71.74L-67.45,-52.46L-72.86,-34.99L-105.86,-71.49L-73.16,-98.23L-63.74,-126.00L-73.85,-155.68L-111.67,-170.63L-146.60,-158.99L-161.42,-123.44L-151.02,-87.89L-139.65,-74.74L-162.27,-55.92L-171.86,-27.55L-158.33,6.40L-116.30,20.65L-90.37,15.62ZM-118.11,0.26L-138.90,-7.04L-147.64,-27.55L-141.65,-44.98L-125.39,-59.48L-84.64,-14.97L-98.54,-3.50ZM-94.76,-105.27L-119.16,-86.45L-133.71,-104.73L-138.24,-123.40L-131.86,-141.57L-111.71,-150.17L-92.77,-142.27L-87.00,-125.95ZM115.47,1.01L89.04,-10.92L77.73,-50.00L89.04,-89.08L115.47,-101.01L135.92,-93.90L148.36,-70.90L167.73,-80.60L151.03,-108.49L115.47,-120.13L71.35,-101.51L54.77,-50.00L71.33,1.51L115.47,20.12L151.03,8.62L167.48,-18.64L148.36,-28.82L135.90,-6.06ZM216.88,15L216.88,-165L194.38,-165L194.38,15ZM266.45,-136.74L274.58,-145.64L274.60,-158.35L266.31,-167.46L254.75,-167.46L246.68,-158.37L246.67,-145.67L254.89,-136.74ZM271.88,15L271.88,-115L249.38,-115L249.38,15ZM303.20,15L325.76,15L325.76,-52.25L331.89,-85.56L358.44,-100.70L376.02,-92.60L381.80,-70.03L381.80,15L404.30,15L404.30,-60.25L412.35,-88.68L437.23,-100.70L456.32,-90.47L460.63,-67.48L460.63,15L483.13,15L483.13,-75.50L473.07,-108.36L442.08,-120.09L418.62,-114.45L400.80,-94.75L387.67,-113.68L363.98,-119.97L340.37,-114.87L323.51,-96.50L323.51,-115L303.26,-115ZM593.48,-72.19L520.17,-49.70L505.25,-18.62L518.64,10.90L550.36,20.14L573.64,15.62L594.97,-0.04L594.88,15L615.88,15L615.91,-68.86L604.07,-107.03L565.16,-120.13L530.16,-111.58L513.15,-86.21L531.00,-75.24L542.45,-95.00L562.87,-101.75L584.75,-95.35ZM593.48,-52.30L593.46,-19.38L577.55,-5.45L553.96,1.79L537.02,-2.60L529.23,-19.62L539.27,-37.29ZM705.57,16.74L705.58,16.74L702.98,-2.65L692.90,-1.14L682.06,-6.63L680.13,-23L680.13,-97.75L702.38,-97.75L702.38,-115L680.13,-115L680.13,-160L657.63,-160L657.63,-115L639.13,-115L639.13,-97.75L657.63,-97.75L657.63,-23L662.76,8.39L688.38,19.15ZM758.24,-9.73L745.13,-44.23L841.63,-44.25L842.88,-53.25L827.99,-100.87L782.89,-120.22L738.78,-101.61L722.20,-50.10L738.78,1.41L782.89,20.03L820.03,9.06L837.13,-17.75L819.61,-28.69L805.97,-6.44L784.16,0.89ZM745.88,-62.25L760.00,-92.01L782.87,-101.13L808.37,-90.28L818.63,-62.25ZM-371.78,226.01L-398.21,214.08L-409.52,175.00L-398.21,135.92L-371.78,123.99L-351.33,131.10L-338.89,154.10L-319.52,144.40L-336.22,116.51L-371.78,104.88L-415.90,123.49L-432.48,175.00L-415.92,226.51L-371.78,245.12L-336.22,233.62L-319.77,206.36L-338.89,196.18L-351.35,218.94ZM-293.63,240L-270.96,240L-270.96,169.25L-261.21,136.31L-235.80,124.77L-214.70,134.52L-208.61,161.08L-208.63,240L-186.18,240L-186.08,160.90L-194.63,121.07L-231.21,105.38L-255.21,110.89L-271.00,127.75L-271.00,60L-293.63,60ZM-74.77,152.81L-148.08,175.30L-163.00,206.38L-149.61,235.90L-117.89,245.14L-94.61,240.62L-73.28,224.96L-73.38,240L-52.38,240L-52.34,156.14L-64.18,117.97L-103.09,104.87L-138.09,113.42L-155.10,138.79L-137.25,149.76L-125.80,130.00L-105.38,123.25L-83.50,129.65ZM-74.77,172.70L-74.79,205.62L-90.70,219.55L-114.29,226.79L-131.23,222.40L-139.02,205.38L-128.98,187.71ZM-18.49,240L4.01,240L4.01,169.25L13.76,135.85L39.19,124.30L60.27,134.05L66.38,160.25L66.38,240L88.88,240L88.88,160.25L80.36,120.60L43.77,104.91L19.47,110.27L1.76,128.75L1.76,110L-18.49,110ZM169.85,294.39L216.42,274.85L227.63,231.50L227.63,110L207.63,110L207.63,127.50L192.90,110.89L170.10,104.39L127.90,123.96L113.25,174.51L127.90,225.06L170.10,244.63L190.24,239.83L205.13,226.25L205.06,235.79L197.11,264.89L170.38,275.00L149.57,269.13L141.38,251.50L123.38,259.75L134.72,283.67ZM171.38,123.52L196.23,136.41L207.87,174.53L197.17,212.65L171.38,225.52L146.25,212.65L136.21,174.53L146.25,136.41ZM287.74,215.27L274.63,180.77L371.13,180.75L372.38,171.75L357.49,124.13L312.39,104.78L268.28,123.39L251.70,174.90L268.28,226.41L312.39,245.03L349.53,234.06L366.63,207.25L349.11,196.31L335.47,218.56L313.66,225.89ZM275.38,162.75L289.50,132.99L312.37,123.87L337.87,134.72L348.13,162.75Z" fill="#ffffff" stroke="#000000"/>
    <path d="M-591.97,-168.56L-601.71,-325.42L-541.93,-329.14L-543.24,-350.13L-686.27,-341.25L-684.96,-320.25L-625.18,-323.97L-615.44,-167.11ZM-511.94,-173.53L-489.55,-174.92L-493.89,-244.83L-486.27,-277.97L-461.87,-290.94L-440.43,-282.60L-432.78,-256.73L-427.95,-178.75L-405.77,-180.13L-410.53,-258.29L-421.42,-297.12L-458.53,-310.38L-481.90,-303.47L-496.46,-285.84L-500.62,-352.78L-522.98,-351.39ZM-348.57,-208.21L-363.65,-241.49L-268.30,-247.43L-267.62,-256.40L-285.25,-302.55L-331.00,-318.90L-373.45,-297.80L-386.66,-245.88L-367.12,-196.00L-322.40,-180.32L-286.37,-193.44L-271.12,-220.97L-289.10,-230.70L-301.21,-207.89L-322.31,-199.31ZM-364.02,-259.34L-351.89,-289.61L-329.85,-300.03L-303.98,-290.88L-292.13,-263.81ZM-123.55,-310.08L-106.51,-305.59L-101.01,-324.78L-123.28,-331.66L-144.10,-323.77L-157.63,-302.17L-159.01,-324.40L-179.02,-323.16L-171.12,-195.96L-148.81,-196.08L-153.12,-265.50L-146.92,-296.97ZM-31.62,-337.39L-74.70,-316.25L-88.54,-264.30L-68.37,-214.46L-23.02,-198.82L20.07,-219.96L33.92,-271.91L13.76,-321.75ZM-24.19,-217.70L-51.65,-227.82L-65.85,-265.69L-56.44,-305.04L-30.45,-318.48L-2.96,-308.36L11.25,-270.48L1.83,-231.14ZM83.64,-210.52L72.59,-388.38L50.36,-387.00L61.41,-209.14ZM141.27,-238.63L126.20,-271.91L221.55,-277.85L222.23,-286.82L204.60,-332.97L158.85,-349.31L116.40,-328.22L103.19,-276.30L122.72,-226.42L167.45,-210.74L203.48,-223.86L218.73,-251.39L200.75,-261.12L188.64,-238.31L167.54,-229.72ZM125.83,-289.76L137.96,-320.03L160.00,-330.45L185.87,-321.30L197.72,-294.23ZM363.12,-361.91L320.04,-340.77L306.21,-288.82L326.37,-238.98L371.73,-223.33L414.81,-244.48L428.67,-296.42L408.51,-346.26ZM370.56,-242.22L343.09,-252.33L328.90,-290.20L338.30,-329.55L364.30,-343.00L391.78,-332.87L406.00,-294.99L396.58,-255.65ZM506.78,-392.60L508.60,-411.24L488.26,-413.72L460.60,-400.93L453.47,-368.63L453.86,-362.46L434.59,-361.26L435.65,-344.22L454.91,-345.41L461.83,-234.00L483.32,-235.34L476.40,-346.75L501.35,-348.30L500.30,-365.34L475.35,-363.79L474.93,-370.46L478.09,-387.37L492.25,-394.23ZM-864.52,-107.00L-886.75,-105.62L-882.85,-42.86L-897.57,-54.73L-918.48,-58.59L-959.00,-36.66L-970.38,14.19L-952.79,63.24L-909.88,79.99L-888.46,72.65L-874.33,54.54L-873.24,72.08L-853.48,70.85ZM-916.03,-39.78L-889.76,-28.63L-876.87,8.38L-886.03,46.76L-909.77,61.00L-935.42,49.82L-947.69,12.78L-940.10,-25.51ZM-795.84,42.75L-810.92,9.46L-715.57,3.52L-714.88,-5.45L-732.52,-51.59L-778.27,-67.94L-820.71,-46.84L-833.92,5.07L-814.39,54.95L-769.66,70.63L-733.63,57.52L-718.39,29.98L-736.37,20.25L-748.47,43.06L-769.58,51.65ZM-811.28,-8.39L-799.15,-38.66L-777.12,-49.07L-751.25,-39.93L-739.40,-12.85ZM-676.01,19.89L-694.35,29.89L-680.21,54.31L-641.47,62.81L-605.72,51.51L-591.00,19.71L-602.63,-6.03L-624.96,-15.80L-655.41,-22.04L-672.47,-27.67L-678.57,-37.60L-672.20,-50.71L-651.54,-56.66L-631.06,-52.42L-621.39,-36.61L-603.24,-46.59L-615.45,-67.43L-651.87,-75.70L-686.74,-64.40L-700.11,-33.75L-688.77,-10.78L-665.82,-1.53L-633.65,4.88L-618.27,11.45L-613.59,23.10L-622.59,38.63L-641.90,43.81L-666.00,37.51ZM-557.64,-98.02L-550.15,-107.32L-550.91,-119.88L-559.66,-128.37L-571.08,-127.67L-578.50,-118.19L-577.73,-105.64L-569.06,-97.31ZM-542.97,51.57L-550.94,-76.88L-573.18,-75.50L-565.20,52.95ZM-459.12,100.31L-414.31,78.15L-405.90,34.63L-413.35,-85.42L-433.11,-84.20L-432.04,-66.91L-447.61,-82.41L-470.53,-87.44L-511.03,-65.51L-522.41,-14.66L-504.83,34.39L-461.92,51.13L-442.33,45.16L-428.45,30.82L-427.93,40.25L-434.00,69.49L-459.79,81.12L-480.72,76.60L-489.89,59.68L-507.17,68.94L-494.50,91.88ZM-468.10,-68.61L-442.76,-57.41L-428.91,-20.45L-437.14,17.87L-461.84,32.17L-487.45,20.99L-499.71,-16.05L-492.13,-54.34ZM-373.63,41.06L-351.39,39.68L-355.73,-30.23L-348.14,-63.84L-323.72,-76.80L-302.30,-68.46L-294.66,-42.95L-289.77,35.85L-267.53,34.47L-272.43,-44.33L-283.28,-82.99L-320.39,-96.24L-344.07,-89.46L-360.44,-70.11L-361.59,-88.64L-381.60,-87.40ZM-75.29,7.93L-59.17,23.51L-44.00,8.19L-63.01,-10.45L-53.67,-36.01L-54.16,-63.59L-76.21,-63.45L-75.61,-44.36L-79.88,-26.77L-114.73,-60.81L-84.06,-89.24L-76.46,-117.25L-88.27,-145.96L-126.55,-158.41L-160.35,-144.77L-172.82,-108.74L-160.36,-74.25L-148.32,-61.95L-169.51,-41.96L-177.25,-13.35L-161.80,19.38L-119.40,30.87L-94.08,24.31ZM-122.43,10.84L-143.42,4.90L-153.32,-14.83L-148.47,-32.42L-133.29,-47.74L-90.29,-6.27L-103.33,5.92ZM-105.84,-94.87L-128.79,-74.78L-144.29,-91.95L-149.92,-110.12L-144.72,-128.46L-125.34,-138.20L-106.14,-131.55L-99.44,-115.78ZM108.41,-2.76L81.57,-12.92L67.99,-50.84L76.77,-90.15L102.15,-103.56L122.80,-97.79L136.50,-75.83L155.05,-86.60L136.84,-113.13L100.98,-122.45L58.53,-101.35L45.30,-49.44L64.83,0.45L109.59,16.13L144.02,2.58L158.60,-25.36L139.08,-34.25L128.17,-11.00ZM209.47,4.85L198.42,-173.01L176.19,-171.63L187.24,6.23ZM249.14,-148.12L256.63,-157.42L255.87,-169.98L247.12,-178.47L235.70,-177.77L228.28,-168.29L229.06,-155.74L237.72,-147.42ZM263.81,1.47L255.84,-126.98L233.61,-125.60L241.58,2.85ZM294.77,-0.45L317.05,-1.83L312.93,-68.28L316.95,-101.57L342.25,-118.16L360.12,-111.24L367.22,-89.29L372.44,-5.27L394.67,-6.65L390.05,-81.01L396.25,-109.60L420.11,-122.99L439.60,-114.06L445.26,-91.61L450.32,-10.11L472.55,-11.49L467.00,-100.91L455.04,-132.77L423.71,-142.45L400.87,-135.44L384.47,-114.88L370.33,-132.78L346.54,-137.54L323.53,-131.05L307.99,-111.87L306.85,-130.15L286.84,-128.91ZM576.24,-104.41L505.18,-77.69L492.35,-46.07L507.39,-17.72L539.30,-10.54L562.03,-16.44L582.14,-33.21L582.97,-18.35L603.72,-19.64L598.61,-102.50L584.57,-139.49L545.32,-150.04L511.26,-139.45L496.01,-113.34L514.31,-103.59L524.42,-123.82L544.18,-131.75L566.19,-126.77ZM577.46,-84.76L579.47,-52.24L564.60,-37.49L541.73,-28.89L524.72,-32.19L515.98,-48.53L524.82,-66.60ZM692.46,-23.42L692.46,-23.42L688.71,-42.42L678.84,-40.31L667.79,-45.07L664.87,-61.13L660.29,-134.99L682.27,-136.35L681.21,-153.40L659.23,-152.03L656.47,-196.50L634.23,-195.11L637.00,-150.65L618.72,-149.52L619.77,-132.47L638.05,-133.61L642.64,-59.75L649.64,-29.04L675.61,-19.99ZM742.87,-52.81L727.80,-86.09L823.15,-92.03L823.83,-101.00L806.20,-147.15L760.45,-163.49L718.00,-142.40L704.79,-90.48L724.32,-40.60L769.05,-24.92L805.08,-38.04L820.33,-65.57L802.35,-75.30L790.24,-52.49L769.14,-43.90ZM727.43,-103.94L739.56,-134.21L761.60,-144.63L787.47,-135.48L799.32,-108.41ZM-359.23,249.46L-386.08,239.30L-399.65,201.38L-390.87,162.06L-365.49,148.66L-344.85,154.43L-331.14,176.39L-312.60,165.62L-330.81,139.09L-366.66,129.77L-409.12,150.87L-422.34,202.78L-402.81,252.66L-358.06,268.35L-323.62,254.80L-309.05,226.86L-328.56,217.97L-339.47,241.22ZM-281.15,258.49L-258.76,257.10L-263.10,187.19L-255.48,154.05L-231.08,141.09L-209.64,149.43L-201.99,175.29L-197.16,253.28L-174.99,251.90L-179.74,173.73L-190.63,134.90L-227.74,121.65L-251.11,128.56L-265.68,146.19L-269.83,79.25L-292.19,80.64ZM-70.25,158.92L-141.31,185.64L-154.14,217.26L-139.10,245.61L-107.18,252.79L-84.46,246.89L-64.35,230.11L-63.52,244.98L-42.77,243.69L-47.88,160.82L-61.92,123.84L-101.17,113.28L-135.23,123.88L-150.48,149.99L-132.18,159.73L-122.07,139.51L-102.31,131.58L-80.30,136.56ZM-69.03,178.57L-67.02,211.09L-81.89,225.84L-104.76,234.44L-121.77,231.14L-130.51,214.80L-121.67,196.72ZM-9.29,241.61L12.94,240.23L8.60,170.32L16.19,136.72L40.61,123.75L62.03,132.09L69.67,157.60L74.57,236.40L96.80,235.02L91.91,156.22L81.06,117.57L43.95,104.31L20.26,111.10L3.89,130.44L2.74,111.92L-17.27,113.16ZM180.15,283.79L224.96,261.63L233.38,218.11L225.92,98.06L206.16,99.28L207.23,116.57L191.66,101.07L168.74,96.04L128.24,117.97L116.87,168.82L134.44,217.87L177.35,234.62L196.94,228.64L210.82,214.30L211.34,223.73L205.27,252.97L179.48,264.60L158.55,260.08L149.38,243.16L132.10,252.42L144.78,275.36ZM171.18,114.87L196.52,126.07L210.36,163.03L202.13,201.35L177.43,215.65L151.82,204.47L139.56,167.43L147.14,129.14ZM291.78,198.39L276.70,165.10L372.05,159.16L372.74,150.19L355.10,104.05L309.35,87.70L266.91,108.80L253.70,160.71L273.23,210.59L317.96,226.27L353.99,213.16L369.23,185.62L351.25,175.89L339.15,198.70L318.04,207.29ZM276.34,147.25L288.47,116.98L310.50,106.56L336.37,115.71L348.22,142.78Z" fill="#ffffff" stroke="#000000"/>
    <path d="M-600.68,-126.58L-619.93,-280.96L-561.09,-288.29L-563.67,-308.96L-704.44,-291.41L-701.86,-270.74L-643.02,-278.08L-623.78,-123.70ZM-521.91,-136.40L-499.87,-139.14L-508.45,-207.95L-502.96,-241.16L-479.64,-255.46L-457.95,-248.54L-448.81,-223.45L-439.25,-146.70L-417.43,-149.42L-426.92,-226.36L-440.06,-264.06L-477.54,-274.88L-500.21,-266.61L-513.51,-248.30L-521.73,-314.19L-543.73,-311.44ZM-362.64,-180.68L-379.57,-212.64L-285.73,-224.36L-285.61,-233.26L-305.86,-277.77L-352.07,-291.11L-392.71,-267.67L-402.58,-215.56L-380.21,-167.48L-335.06,-154.73L-300.27,-169.90L-286.90,-198.04L-305.26,-206.55L-315.82,-183.27L-336.14,-173.49ZM-381.03,-230.25L-370.91,-260.90L-349.77,-272.54L-323.65,-265.09L-310.28,-239.07ZM-146.56,-295.13L-129.45,-291.74L-125.19,-311.04L-147.62,-316.47L-167.70,-307.40L-179.75,-285.22L-182.48,-307.10L-202.17,-304.65L-186.56,-179.46L-164.53,-180.95L-173.04,-249.27L-168.85,-280.75ZM-57.41,-327.76L-98.68,-304.23L-109.16,-252.05L-86.18,-204.05L-40.41,-191.37L0.86,-214.91L11.36,-267.08L-11.61,-315.09ZM-42.73,-209.96L-70.48,-218.27L-86.83,-254.82L-79.95,-294.27L-55.09,-309.15L-27.32,-300.83L-10.95,-264.28L-17.84,-224.83ZM64.25,-209.48L42.42,-384.52L20.54,-381.79L42.37,-206.75ZM119.47,-240.78L102.53,-272.74L196.37,-284.47L196.49,-293.37L176.24,-337.88L130.04,-351.22L89.40,-327.77L79.53,-275.67L101.89,-227.59L147.04,-214.84L181.83,-230.01L195.21,-258.15L176.84,-266.66L166.28,-243.38L145.96,-233.60ZM101.07,-290.36L111.20,-321.01L132.33,-332.65L158.45,-325.20L171.82,-299.18ZM331.09,-376.20L289.82,-352.67L279.34,-300.49L302.32,-252.49L348.09,-239.81L389.36,-263.35L399.86,-315.52L376.89,-363.52ZM345.78,-258.40L318.02,-266.71L301.67,-303.25L308.55,-342.71L333.41,-357.59L361.19,-349.27L377.56,-312.72L370.66,-273.27ZM471.13,-415.33L471.80,-433.86L451.54,-435.06L425.00,-420.73L419.94,-388.38L420.70,-382.31L401.73,-379.94L403.83,-363.17L422.79,-365.53L436.46,-255.89L457.61,-258.52L443.94,-368.17L468.50,-371.23L466.40,-388.01L441.85,-384.94L441.03,-391.51L443.12,-408.41L456.68,-416.05ZM-866.18,-49.03L-888.06,-46.30L-880.36,15.47L-895.63,4.64L-916.52,2.11L-955.20,26.26L-963.33,77.20L-942.95,124.58L-899.52,138.50L-878.81,129.93L-865.96,111.18L-863.80,128.44L-844.35,126.01ZM-912.94,20.54L-886.31,29.94L-871.30,65.73L-878.00,104.20L-900.58,119.73L-926.61,110.26L-941.00,74.42L-935.85,36.12ZM-789.13,94.71L-806.07,62.75L-712.23,51.03L-712.11,42.12L-732.36,-2.39L-778.56,-15.73L-819.20,7.72L-829.07,59.82L-806.71,107.90L-761.56,120.65L-726.77,105.48L-713.39,77.34L-731.76,68.83L-742.32,92.11L-762.64,101.89ZM-807.53,45.13L-797.40,14.48L-776.27,2.84L-750.15,10.29L-736.78,36.31ZM-672.14,64.77L-689.65,75.77L-674.18,99.04L-635.39,105.06L-600.76,91.70L-588.17,59.38L-601.24,34.66L-623.90,26.38L-654.36,22.08L-671.57,17.56L-678.20,8.13L-672.72,-5.21L-652.66,-12.36L-632.17,-9.43L-621.65,5.60L-604.32,-5.38L-617.67,-25.22L-654.16,-31.15L-687.92,-17.85L-699.25,13.26L-686.64,35.26L-663.40,42.99L-631.21,47.34L-615.62,52.89L-610.28,64.11L-618.22,80.01L-636.97,86.31L-661.17,81.56ZM-562.43,-58.99L-555.60,-68.63L-557.13,-80.99L-566.29,-88.85L-577.53,-87.45L-584.28,-77.63L-582.74,-65.28L-573.67,-57.59ZM-538.76,87.91L-554.52,-38.51L-576.40,-35.78L-560.64,90.64ZM-452.93,130.92L-410.01,106.27L-404.37,62.76L-419.10,-55.39L-438.55,-52.97L-436.43,-35.95L-452.76,-50.31L-475.72,-53.88L-514.39,-29.73L-522.51,21.21L-502.13,68.59L-458.71,82.51L-439.72,75.40L-426.89,60.38L-425.79,69.67L-430.00,98.93L-454.76,112.00L-475.72,108.82L-485.82,92.67L-502.32,102.87L-488.39,124.76ZM-472.16,-35.42L-446.43,-25.91L-430.49,9.76L-436.27,48.12L-459.79,63.76L-485.79,54.29L-500.17,18.44L-495.03,-19.85ZM-372.09,67.13L-350.21,64.40L-358.79,-4.40L-353.35,-38.07L-330.02,-52.37L-308.34,-45.45L-299.23,-20.71L-289.56,56.84L-267.68,54.11L-277.35,-23.44L-290.44,-60.97L-327.92,-71.79L-350.90,-63.63L-365.89,-43.51L-368.16,-61.74L-387.85,-59.29ZM-79.37,16.10L-62.49,30.51L-48.44,14.43L-68.37,-2.81L-60.70,-28.64L-62.89,-55.86L-84.66,-54.37L-82.90,-35.55L-86.04,-17.90L-122.55,-49.39L-94.00,-79.36L-88.21,-107.51L-101.64,-135.15L-140.22,-145.10L-172.78,-129.55L-182.89,-93.18L-168.46,-59.87L-155.81,-48.46L-175.52,-27.41L-181.41,1.33L-164.14,32.71L-121.54,41.47L-96.93,33.44ZM-125.77,21.86L-146.87,17.29L-157.86,-1.60L-154.15,-19.28L-140.09,-35.35L-95.07,2.99L-107.19,15.84ZM-115.86,-83.60L-137.30,-62.34L-153.67,-78.35L-160.34,-95.95L-156.34,-114.40L-137.78,-125.20L-118.41,-119.82L-110.82,-104.65ZM101.47,-5.73L74.32,-14.13L58.59,-50.76L64.85,-90.14L89.10,-104.94L109.85,-100.50L124.74,-79.65L142.40,-91.43L122.78,-116.52L86.79,-123.53L46.14,-100.08L36.26,-47.98L58.61,0.11L103.79,12.86L136.98,-2.64L149.67,-31.14L129.84,-38.73L120.49,-15.08ZM201.78,-4.42L179.96,-179.46L158.08,-176.74L179.90,-1.69ZM231.59,-157.99L238.42,-167.63L236.90,-179.99L227.73,-187.85L216.49,-186.45L209.74,-176.63L211.28,-164.28L220.35,-156.59ZM255.27,-11.09L239.50,-137.51L217.62,-134.78L233.39,-8.36ZM285.73,-14.89L307.66,-17.62L299.51,-83.02L301.44,-116.15L325.42,-134.09L343.50,-128.35L351.86,-107.10L362.17,-24.42L384.05,-27.14L374.93,-100.32L379.30,-128.95L402.05,-143.65L421.85,-136.02L428.82,-114.18L438.82,-33.97L460.70,-36.70L449.73,-124.71L435.96,-155.45L404.41,-163.09L382.28,-154.77L367.34,-133.45L352.27,-150.26L328.47,-153.51L306.13,-145.69L291.96,-125.78L289.71,-143.77L270.02,-141.31ZM557.45,-134.87L488.88,-104.11L478.14,-72.08L494.74,-44.99L526.71,-39.85L548.80,-47.08L567.65,-64.88L569.38,-50.25L589.80,-52.80L579.66,-134.35L563.52,-170.03L524.10,-178.05L491.10,-165.50L477.63,-138.77L496.31,-130.26L505.06,-150.86L524.09,-159.91L546.15,-156.34ZM559.86,-115.52L563.83,-83.52L550.05,-68.03L527.98,-58.13L510.98,-60.35L501.34,-75.96L508.96,-94.36ZM677.24,-61.98L677.24,-61.98L672.36,-80.52L662.75,-77.83L651.54,-81.86L647.67,-97.54L638.61,-170.23L660.25,-172.93L658.15,-189.70L636.52,-187.01L631.06,-230.77L609.18,-228.04L614.64,-184.28L596.64,-182.04L598.74,-165.26L616.73,-167.50L625.79,-94.81L634.59,-64.91L660.80,-57.55ZM725.25,-94.11L708.31,-126.07L802.15,-137.79L802.27,-146.69L782.02,-191.20L735.82,-204.54L695.18,-181.09L685.31,-128.99L707.67,-80.91L752.82,-68.16L787.61,-83.33L800.99,-111.47L782.62,-119.98L772.06,-96.70L751.74,-86.92ZM706.85,-143.68L716.98,-174.33L738.11,-185.97L764.23,-178.52L777.60,-152.50ZM-345.08,272.15L-372.23,263.76L-387.97,227.12L-381.71,187.75L-357.45,172.94L-336.70,177.38L-321.82,198.23L-304.16,186.46L-323.77,161.36L-359.77,154.35L-400.42,177.80L-410.30,229.91L-387.95,277.99L-342.77,290.74L-309.58,275.24L-296.89,246.75L-316.71,239.15L-326.07,262.80ZM-267.38,276.28L-245.35,273.54L-253.93,204.73L-248.43,171.52L-225.12,157.22L-203.42,164.14L-194.28,189.23L-184.72,265.98L-162.90,263.26L-172.40,186.32L-185.53,148.63L-223.01,137.80L-245.68,146.07L-258.99,164.38L-267.20,98.50L-289.21,101.24ZM-65.13,164.96L-133.69,195.72L-144.43,227.75L-127.83,254.84L-95.86,259.98L-73.77,252.75L-54.93,234.95L-53.20,249.58L-32.78,247.03L-42.91,165.48L-59.05,129.80L-98.47,121.78L-131.47,134.33L-144.94,161.06L-126.26,169.57L-117.52,148.97L-98.48,139.92L-76.42,143.49ZM-62.72,184.31L-58.74,216.31L-72.52,231.79L-94.59,241.70L-111.60,239.48L-121.23,223.87L-113.61,205.47ZM0.17,242.93L22.05,240.20L13.47,171.39L18.91,137.73L42.24,123.42L63.92,130.34L73.04,155.08L82.70,232.64L104.59,229.91L94.92,152.35L81.83,114.83L44.35,104.01L21.36,112.16L6.38,132.28L4.10,114.05L-15.59,116.50ZM189.93,272.98L232.84,248.33L238.49,204.82L223.75,86.66L204.30,89.09L206.43,106.11L190.09,91.74L167.14,88.18L128.47,112.33L120.35,163.26L140.72,210.65L184.14,224.56L203.14,217.46L215.97,202.44L217.06,211.73L212.85,240.99L188.09,254.06L167.14,250.88L157.03,234.72L140.53,244.93L154.46,266.82ZM170.70,106.63L196.42,116.15L212.36,151.81L206.59,190.18L183.06,205.82L157.07,196.35L142.68,160.50L147.82,122.21ZM294.98,181.75L278.04,149.79L371.88,138.07L372.01,129.16L351.75,84.66L305.55,71.31L264.91,94.76L255.04,146.86L277.40,194.94L322.55,207.69L357.34,192.52L370.72,164.38L352.36,155.87L341.80,179.15L321.47,188.93ZM276.58,132.17L286.71,101.52L307.84,89.88L333.96,97.33L347.33,123.35Z" fill="#ffffff" stroke="#000000"/>
    <path d="M-606.35,-84.26L-634.84,-235.59L-577.17,-246.44L-580.98,-266.70L-718.96,-240.73L-715.15,-220.47L-657.48,-231.32L-628.99,-80.00ZM-529.14,-98.79L-507.54,-102.86L-520.23,-170.30L-516.84,-203.45L-494.69,-219.01L-472.83,-213.50L-462.26,-189.28L-448.11,-114.04L-426.72,-118.07L-440.82,-193.49L-456.11,-229.93L-493.80,-238.32L-515.69,-228.76L-527.71,-209.86L-539.87,-274.44L-561.44,-270.38ZM-374.51,-152.31L-393.20,-182.84L-301.22,-200.18L-301.64,-208.98L-324.38,-251.71L-370.84,-262.06L-409.55,-236.40L-416.11,-184.32L-391.07,-138.19L-345.68,-128.36L-312.24,-145.49L-300.75,-174.11L-319.41,-181.39L-328.42,-157.74L-347.90,-146.84ZM-395.72,-200.15L-387.60,-231.05L-367.44,-243.85L-341.18,-238.09L-326.37,-213.21ZM-168.07,-278.63L-150.97,-276.33L-147.94,-295.65L-170.43,-299.65L-189.71,-289.45L-200.25,-266.81L-204.29,-288.25L-223.59,-284.62L-200.49,-161.91L-178.82,-164.73L-191.42,-231.70L-189.21,-263.06ZM-82.01,-316.33L-121.33,-290.56L-128.49,-238.37L-102.84,-192.35L-56.84,-182.64L-17.52,-208.42L-10.34,-260.61L-35.98,-306.62ZM-60.27,-200.86L-88.20,-207.37L-106.59,-242.47L-102.22,-281.87L-78.57,-298.09L-50.62,-291.58L-32.21,-256.47L-36.60,-217.08ZM45.44,-206.95L13.14,-378.53L-8.31,-374.50L23.99,-202.91ZM98.07,-241.26L79.37,-271.80L171.36,-289.13L170.94,-297.94L148.20,-340.66L101.73,-351.01L63.03,-325.35L56.47,-273.28L81.51,-227.15L126.90,-217.32L160.34,-234.44L171.82,-263.06L153.16,-270.34L144.16,-246.70L124.68,-235.79ZM76.86,-289.11L84.98,-320.01L105.14,-332.81L131.40,-327.05L146.20,-302.16ZM298.82,-388.02L259.50,-362.24L252.34,-310.05L277.99,-264.04L323.99,-254.33L363.31,-280.11L370.49,-332.29L344.84,-378.31ZM320.56,-272.55L292.63,-279.05L274.23,-314.15L278.61,-353.55L302.25,-369.77L330.21,-363.26L348.62,-328.16L344.23,-288.76ZM434.77,-435.27L434.29,-453.61L414.20,-453.56L388.86,-437.78L385.85,-405.51L386.97,-399.55L368.38,-396.05L371.48,-379.61L390.07,-383.11L410.30,-275.63L431.03,-279.53L410.80,-387.01L434.87,-391.54L431.77,-407.98L407.70,-403.45L406.49,-409.89L407.51,-426.71L420.45,-435.09ZM-863.88,8.64L-885.33,12.67L-873.93,73.22L-889.68,63.47L-910.48,62.25L-947.21,88.48L-952.11,139.30L-929.07,184.86L-885.31,195.94L-865.38,186.21L-853.83,166.89L-850.65,183.81L-831.58,180.22ZM-905.81,80.24L-878.92,87.89L-861.90,122.32L-866.15,160.74L-887.51,177.46L-913.81,169.71L-930.22,135.18L-927.49,97.03ZM-778.95,145.91L-797.65,115.37L-705.66,98.04L-706.08,89.23L-728.82,46.51L-775.28,36.16L-813.99,61.82L-820.55,113.89L-795.51,160.02L-750.12,169.85L-716.68,152.73L-705.19,124.11L-723.86,116.82L-732.86,140.47L-752.34,151.38ZM-800.16,98.06L-792.04,67.16L-771.88,54.36L-745.62,60.12L-730.81,85.01ZM-665.21,109.15L-681.83,121.10L-665.12,143.13L-626.44,146.70L-593.05,131.38L-582.59,98.68L-597.01,75.06L-619.91,68.27L-650.27,65.90L-667.54,62.48L-674.67,53.58L-670.07,40.06L-650.70,31.76L-630.28,33.41L-618.96,47.60L-602.52,35.70L-616.92,16.91L-653.33,13.30L-685.86,28.51L-695.15,59.93L-681.34,80.89L-657.91,87.10L-625.85,89.43L-610.10,93.95L-604.14,104.71L-611.01,120.90L-629.15,128.28L-653.34,125.07ZM-564.42,-19.83L-558.27,-29.78L-560.53,-41.90L-570.07,-49.10L-581.09,-47.02L-587.15,-36.91L-584.87,-24.81L-575.44,-17.76ZM-532.02,123.83L-555.35,-0.09L-576.80,3.95L-553.47,127.87ZM-444.59,161.06L-403.71,134.08L-400.80,90.74L-422.61,-25.08L-441.67,-21.49L-438.53,-4.81L-455.55,-17.99L-478.44,-20.11L-515.17,6.12L-520.06,56.94L-497.02,102.50L-453.28,113.58L-434.95,105.40L-423.20,89.78L-421.54,98.88L-423.91,128.05L-447.57,142.48L-468.46,140.62L-479.43,125.29L-495.11,136.38L-480.01,157.15ZM-473.79,-2.09L-447.80,5.73L-429.86,39.98L-433.21,78.24L-455.49,95.13L-481.76,87.37L-498.17,52.84L-495.44,14.70ZM-368.65,93.08L-347.20,89.04L-359.90,21.60L-356.59,-11.99L-334.42,-27.56L-312.58,-22.05L-302.06,1.83L-287.75,77.85L-266.30,73.82L-280.61,-2.21L-295.84,-38.47L-333.53,-46.86L-355.74,-37.40L-369.31,-16.60L-372.67,-34.48L-391.98,-30.84ZM-82.60,24.71L-65.04,37.91L-52.15,21.17L-72.89,5.36L-66.91,-20.64L-70.73,-47.39L-92.15,-44.58L-89.26,-26.09L-91.28,-8.47L-129.28,-37.34L-102.91,-68.70L-98.91,-96.86L-113.88,-123.34L-152.61,-130.80L-183.82,-113.45L-191.57,-76.90L-175.27,-44.88L-162.08,-34.38L-180.26,-12.38L-184.31,16.38L-165.32,46.32L-122.70,52.36L-98.88,42.92ZM-128.09,33.25L-149.21,30.03L-161.23,12.04L-158.64,-5.65L-145.75,-22.39L-98.91,12.72L-110.11,26.16ZM-124.77,-71.54L-144.64,-49.22L-161.79,-64.03L-169.47,-81.02L-166.64,-99.48L-148.98,-111.30L-129.51,-107.17L-121.08,-92.65ZM94.71,-7.95L67.38,-14.58L49.58,-49.80L53.35,-89.09L76.41,-105.20L97.17,-102.09L113.16,-82.40L129.89,-95.12L108.97,-118.71L72.98,-123.42L34.26,-97.76L27.69,-45.68L52.73,0.45L98.14,10.27L129.98,-7.08L140.76,-36.01L120.71,-42.29L112.92,-18.36ZM193.89,-12.81L161.59,-184.39L140.14,-180.36L172.44,-8.77ZM213.91,-166.34L220.07,-176.29L217.81,-188.41L208.27,-195.61L197.25,-193.54L191.19,-183.42L193.46,-171.32L202.89,-164.27ZM246.32,-22.68L222.99,-146.60L201.54,-142.56L224.87,-18.64ZM276.18,-28.30L297.68,-32.34L285.61,-96.45L285.49,-129.30L308.08,-148.50L326.29,-143.93L335.85,-123.46L351.11,-42.40L372.55,-46.44L359.05,-118.17L361.62,-146.72L383.19,-162.64L403.22,-156.31L411.44,-135.17L426.24,-56.55L447.69,-60.58L431.45,-146.85L415.97,-176.37L384.33,-181.99L362.97,-172.41L349.52,-150.43L333.60,-166.12L309.90,-167.87L288.31,-158.77L275.52,-138.23L272.21,-155.86L252.90,-152.23ZM537.24,-163.49L471.39,-128.90L462.75,-96.60L480.81,-70.86L512.71,-67.75L534.09,-76.24L551.61,-94.99L554.22,-80.63L574.24,-84.40L559.22,-164.35L541.09,-198.61L501.65,-204.11L469.82,-189.69L458.15,-162.45L477.13,-155.20L484.51,-176.08L502.76,-186.19L524.76,-184.01ZM540.81,-144.53L546.70,-113.16L534.04,-97.02L512.84,-85.88L495.91,-87.03L485.43,-101.86L491.83,-120.50ZM660.05,-98.84L660.06,-98.84L654.10,-116.86L644.77,-113.61L633.45,-116.90L628.66,-132.16L615.25,-203.41L636.46,-207.40L633.37,-223.85L612.16,-219.86L604.08,-262.75L582.63,-258.71L590.71,-215.82L573.07,-212.50L576.17,-196.05L593.80,-199.37L607.22,-128.12L617.74,-99.12L644.09,-93.46ZM705.51,-133.52L686.82,-164.06L778.80,-181.39L778.38,-190.19L755.64,-232.92L709.18,-243.27L670.47,-217.61L663.91,-165.54L688.95,-119.41L734.34,-109.58L767.78,-126.70L779.27,-155.32L760.61,-162.60L751.60,-138.96L732.13,-128.05ZM684.30,-181.37L692.42,-212.27L712.58,-225.07L738.85,-219.31L753.65,-194.42ZM-329.39,293.96L-356.73,287.34L-374.52,252.11L-370.75,212.83L-347.70,196.71L-326.93,199.83L-310.94,219.51L-294.22,206.79L-315.14,183.21L-351.13,178.49L-389.85,204.15L-396.41,256.23L-371.38,302.36L-325.96,312.18L-294.12,294.84L-283.34,265.91L-303.39,259.62L-311.18,283.56ZM-252.38,293.28L-230.78,289.21L-243.47,221.77L-240.08,188.62L-217.93,173.06L-196.07,178.57L-185.50,202.79L-171.35,278.03L-149.96,274.00L-164.06,198.58L-179.35,162.14L-217.04,153.75L-238.93,163.31L-250.95,182.21L-263.11,117.63L-284.68,121.69ZM-59.40,170.90L-125.25,205.49L-133.89,237.79L-115.83,263.53L-83.93,266.65L-62.55,258.16L-45.03,239.41L-42.42,253.76L-22.41,249.99L-37.42,170.04L-55.56,135.78L-94.99,130.28L-126.82,144.71L-138.49,171.94L-119.51,179.20L-112.13,158.31L-93.89,148.20L-71.88,150.38ZM-55.83,189.86L-49.94,221.23L-62.60,237.37L-83.80,248.51L-100.73,247.36L-111.21,232.54L-104.82,213.89ZM9.89,243.91L31.34,239.87L18.64,172.43L21.95,138.84L44.12,123.27L65.96,128.78L76.48,152.66L90.79,228.68L112.24,224.64L97.93,148.62L82.70,112.35L45.01,103.96L22.81,113.43L9.23,134.23L5.87,116.35L-13.44,119.99ZM199.19,261.96L240.08,234.98L242.98,191.64L221.18,75.82L202.11,79.41L205.25,96.09L188.24,82.91L165.34,80.79L128.62,107.02L123.73,157.84L146.76,203.40L190.51,214.48L208.84,206.30L220.59,190.68L222.24,199.78L219.88,228.95L196.22,243.38L175.32,241.52L164.35,226.19L148.67,237.28L163.78,258.05ZM169.99,98.81L195.99,106.63L213.92,140.88L210.57,179.14L188.29,196.03L162.03,188.27L145.62,153.74L148.35,115.60ZM297.38,165.39L278.68,134.85L370.67,117.52L370.24,108.71L347.51,65.99L301.04,55.64L262.33,81.30L255.78,133.37L280.82,179.50L326.21,189.33L359.65,172.21L371.13,143.59L352.47,136.30L343.47,159.95L323.99,170.86ZM276.16,117.54L284.28,86.64L304.45,73.84L330.71,79.60L345.51,104.49Z" fill="#ffffff" stroke="#000000"/>
    <path d="M-608.99,-41.83L-646.41,-189.56L-590.11,-203.82L-595.12,-223.60L-729.83,-189.48L-724.82,-169.70L-668.52,-183.96L-631.10,-36.23ZM-533.61,-60.92L-512.53,-66.26L-529.20,-132.10L-527.89,-165.05L-506.96,-181.78L-485.03,-177.68L-473.10,-154.41L-454.51,-80.96L-433.63,-86.25L-452.18,-159.88L-469.52,-194.93L-507.27,-200.91L-528.30,-190.13L-539.01,-170.72L-554.98,-233.76L-576.04,-228.43ZM-384.16,-123.27L-404.49,-152.28L-314.70,-175.05L-315.65,-183.72L-340.73,-224.53L-387.27,-231.90L-423.93,-204.18L-427.21,-152.34L-399.64,-108.31L-354.21,-101.39L-322.23,-120.35L-312.64,-149.33L-331.52,-155.37L-338.96,-131.46L-357.53,-119.50ZM-408.04,-169.23L-401.92,-200.25L-382.78,-214.13L-356.49,-210.05L-340.34,-186.38ZM-187.99,-260.71L-170.95,-259.49L-169.15,-278.76L-191.61,-281.33L-210.03,-270.07L-219.05,-247.06L-224.35,-268.00L-243.20,-263.22L-212.85,-143.43L-191.62,-147.55L-208.17,-212.92L-207.91,-244.03ZM-105.29,-303.23L-142.55,-275.36L-146.42,-223.37L-118.26,-179.49L-72.23,-172.72L-34.96,-200.60L-31.08,-252.58L-59.23,-296.46ZM-76.73,-190.51L-104.72,-195.22L-125.04,-228.76L-123.13,-267.95L-100.77,-285.42L-72.77,-280.71L-52.42,-247.16L-54.34,-207.98ZM27.31,-203.00L-15.12,-370.51L-36.06,-365.21L6.37,-197.70ZM77.19,-240.13L56.86,-269.14L146.65,-291.91L145.70,-300.58L120.62,-341.39L74.08,-348.76L37.42,-321.04L34.14,-269.20L61.71,-225.17L107.14,-218.24L139.12,-237.21L148.71,-266.18L129.83,-272.23L122.39,-248.32L103.82,-236.35ZM53.31,-286.09L59.43,-317.11L78.57,-330.99L104.86,-326.91L121.01,-303.24ZM266.49,-397.40L229.23,-369.53L225.36,-317.54L253.52,-273.66L299.55,-266.89L336.82,-294.77L340.70,-346.75L312.55,-390.63ZM295.05,-284.68L267.06,-289.39L246.74,-322.93L248.64,-362.12L271.00,-379.59L299.01,-374.88L319.36,-341.33L317.44,-302.15ZM397.88,-452.42L396.28,-470.51L376.45,-469.22L352.38,-452.08L351.39,-420.02L352.86,-414.20L334.71,-409.61L338.78,-393.55L356.93,-398.15L383.50,-293.22L403.74,-298.35L377.17,-403.28L400.66,-409.23L396.60,-425.28L373.10,-419.33L371.51,-425.61L371.49,-442.29L383.75,-451.37ZM-857.68,65.73L-878.62,71.03L-863.64,130.14L-879.80,121.47L-900.42,121.54L-935.09,149.71L-936.82,200.21L-911.26,243.80L-867.36,252.06L-848.26,241.22L-838.04,221.43L-833.86,237.95L-815.25,233.24ZM-894.71,139.03L-867.67,144.94L-848.75,177.90L-850.59,216.11L-870.66,233.94L-897.11,227.90L-915.45,194.80L-915.09,156.95ZM-765.37,196.11L-785.70,167.10L-695.90,144.33L-696.86,135.66L-721.94,94.85L-768.47,87.48L-805.14,115.20L-808.42,167.04L-780.85,211.07L-735.42,217.99L-703.44,199.03L-693.85,170.05L-712.73,164.01L-720.17,187.92L-738.74,199.88ZM-789.25,150.15L-783.13,119.13L-763.99,105.25L-737.70,109.33L-721.55,133.00ZM-655.27,152.83L-670.96,165.65L-653.10,186.39L-614.66,187.54L-582.62,170.36L-574.30,137.42L-589.99,114.97L-613.03,109.67L-643.16,109.18L-660.43,106.87L-668.02,98.51L-664.31,84.88L-645.68,75.50L-625.41,75.87L-613.36,89.19L-597.85,76.42L-613.23,58.76L-649.41,57.41L-680.62,74.44L-687.86,106.04L-672.94,125.90L-649.41,130.60L-617.60,130.93L-601.77,134.43L-595.22,144.69L-601.00,161.11L-618.47,169.51L-642.57,167.83ZM-563.62,19.24L-558.15,9.04L-561.13,-2.80L-570.99,-9.32L-581.75,-6.60L-587.12,3.76L-584.13,15.58L-574.38,21.96ZM-522.80,159.16L-553.45,38.18L-574.39,43.49L-543.74,164.47ZM-434.16,190.57L-395.43,161.41L-395.22,118.43L-423.86,5.36L-442.47,10.07L-438.35,26.36L-455.97,14.38L-478.71,13.69L-513.38,41.85L-515.09,92.35L-489.54,135.95L-445.65,144.21L-428.05,135.00L-417.40,118.85L-415.21,127.74L-415.75,156.69L-438.24,172.40L-458.99,171.85L-470.77,157.37L-485.58,169.29L-469.38,188.88ZM-473.01,31.20L-446.86,37.33L-427.04,70.07L-428.00,108.06L-448.97,126.12L-475.39,120.06L-493.72,86.96L-493.36,49.11ZM-363.32,118.76L-342.38,113.46L-359.05,47.62L-357.85,14.23L-336.90,-2.50L-314.99,1.60L-303.13,24.54L-284.34,98.76L-263.40,93.46L-282.19,19.24L-299.47,-15.65L-337.21,-21.63L-358.56,-10.91L-370.69,10.46L-375.11,-6.99L-393.96,-2.21ZM-84.95,33.68L-66.80,45.64L-55.09,28.31L-76.55,13.97L-72.23,-12.07L-77.65,-38.26L-98.63,-34.17L-94.64,-16.09L-95.56,1.44L-134.87,-24.75L-110.74,-57.34L-108.52,-85.40L-124.93,-110.64L-163.64,-115.64L-193.41,-96.58L-198.82,-60.00L-180.76,-29.37L-167.08,-19.81L-183.69,3.04L-185.94,31.70L-165.34,60.11L-122.87,63.46L-99.92,52.66ZM-129.36,44.91L-150.42,43.02L-163.40,25.99L-161.93,8.36L-150.22,-8.97L-101.80,22.84L-112.03,36.80ZM-132.51,-58.81L-150.77,-35.54L-168.62,-49.12L-177.25,-65.43L-175.59,-83.84L-158.86,-96.59L-139.38,-93.71L-130.16,-79.88ZM88.19,-9.46L60.78,-14.33L41.04,-48.03L42.36,-87.07L64.14,-104.40L84.85,-102.60L101.85,-84.13L117.59,-97.72L95.48,-119.74L59.64,-122.18L22.96,-94.46L19.67,-42.62L47.23,1.41L92.70,8.33L123.08,-10.76L131.96,-40.00L111.77,-44.97L105.54,-20.85ZM185.86,-20.34L143.43,-187.85L122.49,-182.54L164.92,-15.03ZM196.22,-173.23L201.69,-183.43L198.71,-195.26L188.85,-201.79L178.09,-199.07L172.73,-188.71L175.71,-176.88L185.46,-170.50ZM237.04,-33.30L206.40,-154.28L185.46,-148.98L216.10,-28.00ZM266.20,-40.69L287.18,-46.00L271.33,-108.59L269.19,-141.03L290.33,-161.38L308.60,-157.98L319.30,-138.34L339.34,-59.21L360.28,-64.52L342.54,-134.55L343.32,-162.90L363.65,-179.95L383.83,-174.93L393.25,-154.55L412.69,-77.79L433.63,-83.10L412.30,-167.32L395.19,-195.53L363.60,-199.14L343.09,-188.36L331.15,-165.83L314.46,-180.35L290.94,-180.62L270.17,-170.31L258.80,-149.24L254.44,-166.45L235.60,-161.68ZM515.78,-190.25L452.85,-152.04L446.29,-119.60L465.71,-95.28L497.42,-94.16L518.01,-103.86L534.17,-123.46L537.63,-109.44L557.17,-114.39L537.43,-192.44L517.42,-225.17L478.13,-228.19L447.57,-211.98L437.72,-184.36L456.91,-178.36L462.91,-199.45L480.32,-210.55L502.19,-209.75ZM520.46,-171.74L528.21,-141.11L516.69,-124.39L496.44,-112.09L479.64,-112.18L468.38,-126.18L473.55,-144.99ZM641.05,-133.91L641.06,-133.92L634.07,-151.35L625.05,-147.57L613.67,-150.12L608.00,-164.90L590.38,-234.46L611.09,-239.71L607.02,-255.76L586.32,-250.51L575.71,-292.39L554.77,-287.09L565.38,-245.21L548.16,-240.85L552.23,-224.80L569.45,-229.16L587.07,-159.59L599.24,-131.59L625.62,-127.62ZM683.83,-170.96L663.49,-199.98L753.29,-222.74L752.33,-231.41L727.25,-272.22L680.72,-279.59L644.06,-251.88L640.78,-200.03L668.34,-156.00L713.78,-149.08L745.76,-168.04L755.35,-197.02L736.47,-203.07L729.02,-179.16L710.45,-167.19ZM659.94,-216.92L666.07,-247.94L685.20,-261.82L711.49,-257.75L727.64,-234.07ZM-312.21,314.78L-339.62,309.91L-359.36,276.21L-358.04,237.17L-336.26,219.85L-315.55,221.64L-298.55,240.11L-282.81,226.52L-304.93,204.51L-340.77,202.06L-377.44,229.78L-380.73,281.62L-353.17,325.65L-307.71,332.57L-277.32,313.49L-268.45,284.25L-288.63,279.27L-294.86,303.39ZM-236.18,309.38L-215.10,304.04L-231.77,238.20L-230.46,205.25L-209.53,188.52L-187.60,192.62L-175.67,215.90L-157.08,289.35L-136.20,284.06L-154.75,210.42L-172.09,175.37L-209.84,169.39L-230.87,180.18L-241.58,199.59L-257.55,136.54L-278.61,141.87ZM-53.07,176.66L-115.99,214.87L-122.55,247.31L-103.13,271.63L-71.43,272.74L-50.83,263.05L-34.67,243.45L-31.22,257.47L-11.67,252.52L-31.41,174.47L-51.43,141.74L-90.72,138.72L-121.27,154.92L-131.13,182.54L-111.93,188.55L-105.93,167.46L-88.52,156.36L-66.65,157.16ZM-48.38,195.17L-40.63,225.80L-52.15,242.52L-72.41,254.82L-89.21,254.73L-100.47,240.72L-95.29,221.92ZM19.86,244.53L40.79,239.23L24.12,173.39L25.32,140.00L46.27,123.26L68.18,127.37L80.04,150.31L98.84,224.53L119.77,219.22L100.98,145.01L83.70,110.12L45.96,104.14L24.61,114.85L12.48,136.23L8.06,118.78L-10.79,123.55ZM207.95,250.75L246.68,221.59L246.89,178.61L218.25,65.54L199.64,70.25L203.77,86.54L186.15,74.55L163.40,73.87L128.74,102.03L127.02,152.53L152.57,196.12L196.46,204.39L214.06,195.17L224.72,179.02L226.91,187.92L226.36,216.87L203.87,232.58L183.12,232.02L171.34,217.55L156.54,229.47L172.73,249.06ZM169.10,91.38L195.26,97.51L215.08,130.25L214.11,168.24L193.14,186.30L166.72,180.24L148.40,147.14L148.75,109.29ZM299.01,149.33L278.67,120.32L368.47,97.55L367.51,88.88L342.43,48.07L295.90,40.70L259.24,68.42L255.96,120.26L283.52,164.29L328.96,171.21L360.94,152.25L370.53,123.27L351.65,117.23L344.21,141.14L325.64,153.10ZM275.12,103.37L281.25,72.35L300.38,58.47L326.68,62.55L342.83,86.22Z" fill="#ffffff" stroke="#000000"/>
    <path d="M-608.62,0.49L-654.64,-143.13L-599.90,-160.66L-606.06,-179.89L-737.02,-137.93L-730.86,-118.70L-676.12,-136.24L-630.10,7.38ZM-535.34,-22.99L-514.83,-29.56L-535.34,-93.56L-536.07,-126.19L-516.42,-144.00L-494.51,-141.29L-481.30,-119.03L-458.44,-47.63L-438.13,-54.13L-460.98,-125.73L-480.25,-159.28L-517.90,-162.87L-538.01,-150.93L-547.40,-131.10L-567.04,-192.39L-587.52,-185.83ZM-391.54,-93.73L-413.41,-121.14L-326.11,-149.14L-327.59,-157.64L-354.87,-196.41L-401.28,-200.84L-435.79,-171.21L-435.85,-119.81L-405.92,-78.01L-360.62,-73.96L-330.20,-94.65L-322.50,-123.86L-341.52,-128.67L-347.41,-104.60L-365.01,-91.64ZM-417.96,-137.66L-413.81,-168.68L-395.76,-183.56L-369.54,-181.15L-352.14,-158.75ZM-206.22,-241.52L-189.32,-241.35L-188.72,-260.50L-211.06,-261.66L-228.56,-249.41L-236.06,-226.13L-242.58,-246.48L-260.90,-240.61L-223.59,-124.15L-202.86,-129.52L-223.23,-193.08L-224.87,-223.82ZM-127.15,-288.58L-162.24,-258.77L-162.87,-207.18L-132.37,-165.57L-86.49,-161.71L-51.39,-191.53L-50.75,-243.11L-81.24,-284.73ZM-92.03,-179.00L-119.96,-181.94L-142.09,-213.82L-142.61,-252.64L-121.60,-271.27L-93.64,-268.33L-71.49,-236.44L-70.99,-197.63ZM9.97,-197.72L-42.22,-360.57L-62.57,-354.04L-10.39,-191.20ZM56.96,-237.45L35.09,-264.86L122.39,-292.85L120.91,-301.36L93.63,-340.12L47.22,-344.55L12.71,-314.93L12.65,-263.52L42.58,-221.73L87.88,-217.67L118.30,-238.37L126.00,-267.57L106.98,-272.39L101.09,-248.31L83.49,-235.36ZM30.54,-281.38L34.69,-312.39L52.74,-327.27L78.96,-324.86L96.36,-302.47ZM234.28,-404.40L199.18,-374.58L198.55,-323.00L229.05,-281.39L274.93,-277.52L310.03,-307.34L310.68,-358.93L280.18,-400.54ZM269.39,-294.81L241.46,-297.75L219.33,-329.63L218.81,-368.45L239.83,-387.08L267.78,-384.15L289.93,-352.26L290.44,-313.44ZM360.68,-466.80L357.98,-484.56L338.47,-482.08L315.75,-463.67L316.74,-431.94L318.55,-426.29L300.91,-420.63L305.91,-405.03L323.55,-410.68L356.23,-308.68L375.91,-314.98L343.23,-416.99L366.07,-424.31L361.07,-439.91L338.23,-432.59L336.27,-438.70L335.22,-455.17L346.78,-464.89ZM-847.64,121.98L-867.99,128.50L-849.58,185.96L-866.07,178.39L-886.43,179.73L-918.95,209.67L-917.56,259.65L-889.64,301.14L-845.77,306.60L-827.58,294.73L-818.70,274.56L-813.55,290.62L-795.46,284.82ZM-879.71,196.64L-852.65,200.82L-831.94,232.22L-831.42,270.07L-850.15,288.92L-876.64,284.57L-896.78,253.00L-898.75,215.59ZM-748.47,245.09L-770.33,217.68L-683.04,189.69L-684.52,181.19L-711.79,142.42L-758.20,137.99L-792.71,167.61L-792.77,219.02L-762.85,260.82L-717.54,264.87L-687.12,244.18L-679.43,214.97L-698.45,210.15L-704.33,234.23L-721.94,247.19ZM-774.88,201.16L-770.73,170.15L-752.69,155.27L-726.46,157.68L-709.06,180.07ZM-642.38,195.59L-657.09,209.22L-638.18,228.61L-600.15,227.39L-569.55,208.45L-563.35,175.40L-580.23,154.20L-603.31,150.37L-633.10,151.74L-650.30,150.52L-658.31,142.73L-655.48,129.03L-637.65,118.62L-617.61,117.74L-604.89,130.17L-590.35,116.61L-606.63,100.10L-642.45,100.99L-672.22,119.72L-677.44,151.38L-661.48,170.08L-637.96,173.27L-606.52,171.65L-590.67,174.14L-583.57,183.87L-588.28,200.44L-605.01,209.81L-628.92,209.62ZM-560.06,58.02L-555.28,47.61L-558.95,36.11L-569.09,30.27L-579.55,33.62L-584.21,44.18L-580.54,55.67L-570.52,61.37ZM-511.16,193.72L-548.85,76.11L-569.20,82.63L-531.52,200.24ZM-421.68,219.30L-385.22,188.13L-387.65,145.66L-422.87,35.74L-440.96,41.54L-435.89,57.37L-454.03,46.62L-476.53,47.34L-509.04,77.28L-507.64,127.26L-479.73,168.75L-435.88,174.22L-419.06,164.04L-409.52,147.44L-406.82,156.09L-405.58,184.72L-426.82,201.61L-447.36,202.33L-459.88,188.76L-473.77,201.44L-456.57,219.80ZM-469.83,64.28L-443.62,68.74L-422.04,99.85L-420.66,137.43L-440.26,156.56L-466.73,152.20L-486.86,120.62L-488.83,83.22ZM-356.11,144.04L-335.76,137.52L-356.27,73.51L-357.12,40.46L-337.46,22.65L-315.57,25.36L-302.45,47.29L-279.33,119.44L-258.98,112.91L-282.10,40.76L-301.30,7.36L-338.94,3.78L-359.37,15.67L-370.04,37.52L-375.48,20.56L-393.80,26.43ZM-86.40,42.93L-67.74,53.63L-57.24,35.80L-79.31,22.94L-76.64,-3.04L-83.60,-28.58L-104.07,-23.25L-99.02,-5.64L-98.85,11.74L-139.28,-11.72L-117.46,-45.39L-116.98,-73.24L-134.74,-97.16L-173.28,-99.72L-201.51,-79.08L-204.61,-42.62L-184.90,-13.47L-170.80,-4.86L-185.80,18.72L-186.26,47.16L-164.17,73.96L-122.02,74.66L-100.02,62.60ZM-129.57,56.74L-150.49,56.17L-164.35,40.14L-163.98,22.64L-153.47,4.81L-103.70,33.26L-112.95,47.67ZM-139.04,-45.50L-155.66,-21.40L-174.12,-33.72L-183.63,-49.30L-183.12,-67.59L-167.39,-81.21L-147.96,-79.55L-138.02,-66.46ZM81.96,-10.30L54.60,-13.42L33.03,-45.50L31.94,-84.14L52.39,-102.59L72.95,-102.08L90.88,-84.89L105.59,-99.28L82.40,-119.66L46.85,-119.88L12.33,-90.25L12.26,-38.85L42.18,2.95L87.51,7.00L116.35,-13.72L123.32,-43.14L103.07,-46.82L98.40,-22.62ZM177.76,-27.03L125.58,-189.88L105.22,-183.35L157.41,-20.51ZM178.62,-178.68L183.40,-189.09L179.73,-200.59L169.59,-206.43L159.13,-203.08L154.47,-192.52L158.14,-181.03L168.16,-175.33ZM227.52,-42.98L189.83,-160.59L169.48,-154.06L207.16,-36.45ZM255.86,-52.06L276.26,-58.60L256.77,-119.44L252.67,-151.35L272.30,-172.74L290.55,-170.51L302.32,-151.77L326.97,-74.85L347.33,-81.37L325.51,-149.45L324.55,-177.50L343.58,-195.58L363.81,-191.86L374.37,-172.32L398.28,-97.69L418.63,-104.22L392.40,-186.09L373.77,-212.91L342.34,-214.53L322.75,-202.63L312.34,-179.64L294.97,-192.96L271.72,-191.78L251.84,-180.32L241.90,-158.82L236.54,-175.55L218.22,-169.68ZM493.19,-215.08L433.39,-173.49L428.90,-141.05L449.57,-118.22L480.96,-119.06L500.70,-129.90L515.46,-150.24L519.73,-136.61L538.73,-142.70L514.45,-218.58L492.68,-249.68L453.68,-250.25L424.50,-232.37L416.46,-204.49L435.78,-199.73L440.42,-220.93L456.93,-232.96L478.58,-233.51ZM498.96,-197.09L508.49,-167.31L498.14,-150.09L478.89,-136.70L462.29,-135.76L450.31,-148.90L454.27,-167.80ZM620.38,-167.13L620.39,-167.13L612.42,-183.92L603.74,-179.63L592.34,-181.46L585.84,-195.70L564.17,-263.33L584.30,-269.78L579.30,-285.39L559.17,-278.94L546.13,-319.65L525.77,-313.12L538.82,-272.41L522.08,-267.05L527.08,-251.44L543.82,-256.81L565.49,-189.18L579.23,-162.27L605.52,-159.97ZM660.36,-206.34L638.49,-233.75L725.79,-261.75L724.31,-270.25L697.04,-309.02L650.63,-313.45L616.11,-283.82L616.06,-232.42L645.98,-190.62L691.28,-186.57L721.70,-207.26L729.40,-236.47L710.38,-241.28L704.50,-217.21L686.89,-204.25ZM633.95,-250.27L638.09,-281.29L656.14,-296.17L682.36,-293.76L699.76,-271.36ZM-293.62,334.51L-320.99,331.38L-342.55,299.30L-343.65,260.67L-323.19,242.22L-302.63,242.72L-284.71,259.92L-270.00,245.53L-293.19,225.14L-328.73,224.92L-363.25,254.55L-363.32,305.96L-333.40,347.76L-288.08,351.80L-259.24,331.09L-252.26,301.66L-272.51,297.99L-277.18,322.19ZM-218.86,324.51L-198.36,317.94L-218.87,253.94L-219.59,221.31L-199.94,203.50L-178.03,206.21L-164.83,228.47L-141.96,299.87L-121.66,293.37L-144.50,221.77L-163.77,188.22L-201.42,184.63L-221.53,196.57L-230.92,216.40L-250.57,155.11L-271.04,161.67ZM-46.14,182.19L-105.94,223.79L-110.43,256.23L-89.76,279.06L-58.38,278.22L-38.63,267.38L-23.87,247.03L-19.60,260.66L-0.60,254.58L-24.88,178.70L-46.66,147.60L-85.65,147.03L-114.84,164.91L-122.87,192.79L-103.55,197.54L-98.91,176.35L-82.40,164.32L-60.75,163.76ZM-40.37,200.19L-30.84,229.96L-41.20,247.19L-60.44,260.58L-77.04,261.51L-89.02,248.37L-85.07,229.48ZM30.05,244.75L50.41,238.23L29.90,174.22L29.04,141.18L48.70,123.36L70.59,126.07L83.71,148.00L106.83,220.15L127.19,213.63L104.07,141.48L84.87,108.08L47.22,104.49L26.79,116.38L16.12,138.24L10.68,121.27L-7.64,127.14ZM216.21,239.36L252.68,208.18L250.25,165.72L215.03,55.80L196.93,61.59L202.01,77.43L183.87,66.67L161.36,67.39L128.85,97.33L130.25,147.31L158.16,188.80L202.02,194.27L218.84,184.09L228.37,167.49L231.08,176.14L232.32,204.77L211.07,221.66L190.54,222.39L178.02,208.81L164.12,221.49L181.32,239.85ZM168.06,84.33L194.27,88.79L215.86,119.90L217.23,157.49L197.63,176.61L171.17,172.25L151.03,140.68L149.07,103.27ZM299.93,133.61L278.06,106.20L365.36,78.20L363.88,69.70L336.61,30.93L290.20,26.50L255.68,56.13L255.63,107.53L285.55,149.33L330.85,153.38L361.27,132.69L368.97,103.48L349.95,98.67L344.07,122.74L326.46,135.70ZM273.52,89.68L277.66,58.66L295.71,43.78L321.93,46.19L339.33,68.59Z" fill="#ffffff" stroke="#000000"/>
    <path d="M-605.25,42.49L-659.51,-96.52L-606.53,-117.20L-613.79,-135.81L-740.54,-86.34L-733.28,-67.73L-680.30,-88.41L-626.05,50.61ZM-534.32,14.81L-514.48,7.06L-538.66,-54.89L-541.37,-87.07L-523.06,-105.86L-501.26,-104.53L-486.85,-83.36L-459.89,-14.24L-440.24,-21.91L-467.19,-91.22L-488.28,-123.17L-525.68,-124.41L-544.81,-111.38L-552.87,-91.22L-576.02,-150.55L-595.84,-142.81ZM-396.65,-63.88L-419.93,-89.61L-335.44,-122.61L-337.42,-130.91L-366.73,-167.53L-412.83,-169.06L-445.10,-137.68L-442.01,-86.91L-409.89,-47.47L-364.90,-46.25L-336.13,-68.55L-330.32,-97.86L-349.40,-101.45L-353.73,-77.32L-370.33,-63.44ZM-425.43,-105.64L-423.24,-136.53L-406.33,-152.33L-380.28,-151.55L-361.73,-130.51ZM-222.70,-221.19L-205.99,-222.07L-206.58,-241.01L-228.71,-240.78L-245.25,-227.62L-251.22,-204.16L-258.91,-223.86L-276.65,-216.94L-232.65,-104.22L-212.51,-110.80L-236.52,-172.31L-240.03,-202.57ZM-147.49,-272.52L-180.32,-240.93L-177.78,-189.94L-145.11,-150.72L-99.56,-149.71L-66.73,-181.32L-69.25,-232.30L-101.92,-271.53ZM-106.09,-166.45L-133.86,-167.64L-157.67,-197.77L-160.56,-236.08L-140.95,-255.77L-113.16,-254.58L-89.33,-224.44L-86.45,-186.14ZM-6.51,-191.20L-68.03,-348.82L-87.73,-341.13L-26.22,-183.51ZM37.46,-233.31L14.18,-259.04L98.68,-292.04L96.69,-300.35L67.38,-336.96L21.28,-338.49L-10.99,-307.11L-7.89,-256.35L24.22,-216.90L69.21,-215.68L97.98,-237.98L103.79,-267.30L84.71,-270.89L80.38,-246.75L63.79,-232.87ZM8.68,-275.08L10.87,-305.96L27.78,-321.76L53.83,-320.99L72.38,-299.94ZM202.34,-409.06L169.51,-377.47L172.05,-326.48L204.72,-287.26L250.27,-286.25L283.10,-317.86L280.58,-368.84L247.91,-408.07ZM243.74,-302.99L215.97,-304.18L192.16,-334.31L189.27,-372.62L208.88,-392.30L236.66,-391.12L260.49,-360.98L263.37,-322.68ZM323.34,-478.44L319.59,-495.82L300.47,-492.17L279.17,-472.59L282.08,-441.32L284.22,-435.85L267.14,-429.18L273.04,-414.08L290.11,-420.74L328.65,-322.01L347.69,-329.44L309.16,-428.18L331.27,-436.81L325.37,-451.91L303.26,-443.28L300.96,-449.19L298.92,-465.40L309.73,-475.70ZM-833.85,177.12L-853.55,184.81L-831.85,240.43L-848.59,233.97L-868.62,236.53L-898.90,268.10L-894.46,317.38L-864.34,356.63L-820.69,359.34L-803.45,346.50L-795.91,326.03L-789.85,341.58L-772.33,334.74ZM-860.95,252.83L-833.97,255.30L-811.59,285.03L-808.75,322.38L-826.09,342.14L-852.53,339.47L-874.35,309.53L-878.58,272.71ZM-728.36,292.63L-751.64,266.90L-667.14,233.90L-669.13,225.59L-698.44,188.98L-744.54,187.45L-776.81,218.82L-773.72,269.59L-741.60,309.03L-696.61,310.26L-667.84,287.96L-662.03,258.64L-681.11,255.05L-685.44,279.19L-702.03,293.07ZM-757.14,250.86L-754.95,219.98L-738.04,204.18L-711.99,204.95L-693.44,226.00ZM-626.63,237.23L-640.32,251.59L-620.45,269.58L-582.97,266.04L-553.92,245.47L-549.82,212.45L-567.79,192.54L-590.81,190.18L-620.15,193.36L-637.21,193.21L-645.60,186.00L-643.65,172.30L-626.68,160.93L-606.94,158.83L-593.62,170.33L-580.09,156.04L-597.18,140.73L-632.50,143.81L-660.76,164.13L-663.97,195.72L-647.06,213.21L-623.63,214.92L-592.68,211.39L-576.87,212.88L-569.27,222.05L-572.90,238.71L-588.86,248.99L-612.47,250.27ZM-553.77,96.33L-549.69,85.75L-554.02,74.61L-564.39,69.47L-574.51,73.42L-578.47,84.13L-574.14,95.26L-563.89,100.28ZM-497.16,227.34L-541.59,113.50L-561.29,121.19L-516.86,235.03ZM-407.22,247.12L-373.12,214.09L-378.12,172.30L-419.65,65.91L-437.16,72.75L-431.18,88.07L-449.75,78.56L-471.94,80.65L-502.21,112.22L-497.76,161.49L-467.65,200.75L-424.00,203.46L-408.02,192.38L-399.62,175.40L-396.42,183.77L-393.44,211.97L-413.38,229.96L-433.62,231.93L-446.81,219.29L-459.76,232.67L-441.65,249.74ZM-464.28,96.97L-438.12,99.76L-414.90,129.17L-411.23,166.20L-429.42,186.29L-455.82,183.60L-477.64,153.66L-481.88,116.84ZM-347.08,168.77L-327.38,161.08L-351.56,99.12L-354.43,66.54L-336.11,47.74L-314.32,49.07L-300.02,69.93L-272.77,139.76L-253.06,132.07L-280.32,62.24L-301.33,30.43L-338.73,29.19L-358.17,42.19L-367.37,64.43L-373.78,48.01L-391.51,54.93ZM-86.92,52.38L-67.83,61.79L-58.56,43.54L-81.15,32.20L-80.10,6.37L-88.54,-18.42L-108.43,-11.90L-102.37,5.18L-101.13,22.33L-142.50,1.65L-123.01,-32.94L-124.25,-60.48L-143.25,-83.01L-181.47,-83.18L-208.08,-61.06L-208.91,-24.86L-187.65,2.71L-173.20,10.35L-186.57,34.56L-185.28,62.68L-161.83,87.79L-120.16,85.90L-99.17,72.63ZM-128.71,68.66L-149.40,69.38L-164.07,54.40L-164.78,37.09L-155.50,18.84L-104.60,43.88L-112.86,58.68ZM-144.33,-31.73L-159.26,-6.91L-178.25,-17.95L-188.60,-32.74L-189.22,-50.84L-174.52,-65.25L-155.23,-64.81L-144.61,-52.49ZM76.09,-10.52L48.87,-11.93L25.60,-42.29L22.15,-80.37L41.22,-99.85L61.56,-100.61L80.31,-84.73L93.96,-99.84L69.81,-118.55L34.69,-116.59L2.41,-85.21L5.50,-34.44L37.61,5.01L82.62,6.22L109.83,-16.01L114.91,-45.49L94.69,-47.88L91.56,-23.69ZM169.66,-32.92L108.15,-190.54L88.44,-182.85L149.96,-25.23ZM161.21,-182.73L165.29,-193.31L160.96,-204.44L150.59,-209.59L140.47,-205.64L136.51,-194.92L140.85,-183.80L151.09,-178.78ZM217.83,-51.72L173.40,-165.56L153.69,-157.87L198.12,-44.03ZM245.26,-62.43L265.01,-70.13L242.02,-129.02L236.02,-160.29L254.09,-182.62L272.25,-181.53L285.03,-163.75L314.09,-89.29L333.79,-96.98L308.07,-162.87L305.40,-190.52L323.08,-209.55L343.29,-207.11L354.92,-188.46L383.11,-116.23L402.81,-123.92L371.88,-203.17L351.84,-228.50L320.70,-228.18L302.08,-215.23L293.22,-191.89L275.24,-203.97L252.35,-201.39L233.42,-188.85L224.93,-167.00L218.61,-183.20L200.87,-176.28ZM469.65,-237.98L413.13,-193.23L410.69,-160.92L432.51,-139.64L463.45,-142.40L482.28,-154.31L495.61,-175.31L500.67,-162.11L519.06,-169.29L490.42,-242.73L467.01,-272.11L428.47,-270.28L400.74,-250.84L394.51,-222.81L413.89,-219.30L417.17,-240.51L432.74,-253.41L454.08,-255.28ZM476.44,-220.56L487.68,-191.74L478.51,-174.10L460.32,-159.69L443.99,-157.75L431.35,-169.99L434.10,-188.89ZM598.20,-198.42L598.20,-198.42L589.30,-214.52L580.99,-209.75L569.62,-210.85L562.33,-224.52L536.78,-289.98L556.27,-297.58L550.37,-312.69L530.89,-305.08L515.51,-344.49L495.80,-336.80L511.18,-297.39L494.98,-291.07L500.88,-275.97L517.08,-282.29L542.63,-216.83L557.85,-191.10L583.96,-190.44ZM635.27,-239.60L611.99,-265.33L696.49,-298.33L694.51,-306.64L665.19,-343.25L619.09,-344.78L586.82,-313.40L589.92,-262.63L622.03,-223.19L667.02,-221.97L695.80,-244.27L701.60,-273.58L682.53,-277.17L678.19,-253.04L661.60,-239.16ZM606.49,-281.36L608.68,-312.25L625.59,-328.05L651.64,-327.27L670.19,-306.23ZM-273.68,353.04L-300.90,351.62L-324.16,321.27L-327.62,283.18L-308.55,263.70L-288.21,262.94L-269.46,278.83L-255.81,263.71L-279.96,245.00L-315.08,246.97L-347.36,278.34L-344.27,329.12L-312.16,368.56L-267.15,369.77L-239.94,347.55L-234.86,318.06L-255.08,315.67L-258.21,339.86ZM-200.46,338.58L-180.62,330.83L-204.80,268.88L-207.52,236.71L-189.21,217.91L-167.40,219.24L-152.99,240.41L-126.03,309.53L-106.38,301.86L-133.33,232.56L-154.42,200.60L-191.82,199.37L-210.95,212.39L-219.01,232.55L-242.17,173.22L-261.98,180.96ZM-38.62,187.44L-95.13,232.18L-97.57,264.50L-75.76,285.77L-44.82,283.02L-25.98,271.10L-12.65,250.10L-7.60,263.30L10.79,256.13L-17.84,182.68L-41.25,153.31L-79.80,155.13L-107.53,174.58L-113.75,202.61L-94.38,206.11L-91.10,184.90L-75.53,172.00L-54.18,170.13ZM-31.82,204.85L-20.59,233.68L-29.75,251.32L-47.94,265.72L-64.28,267.67L-76.91,255.42L-74.16,236.52ZM40.46,244.55L60.16,236.86L35.98,174.90L33.11,142.32L51.43,123.52L73.22,124.85L87.52,145.71L114.78,215.54L134.48,207.85L107.22,138.02L86.21,106.21L48.81,104.97L29.37,117.97L20.17,140.21L13.76,123.79L-3.97,130.71ZM223.97,227.80L258.07,194.77L253.07,152.99L211.55,46.59L194.03,53.43L200.01,68.75L181.44,59.24L159.26,61.34L128.99,92.90L133.44,142.17L163.55,181.43L207.19,184.15L223.18,173.06L231.58,156.08L234.78,164.46L237.76,192.65L217.81,210.64L197.58,212.62L184.38,199.98L171.44,213.35L189.55,230.43ZM166.92,77.66L193.08,80.45L216.30,109.85L219.96,146.88L201.78,166.97L175.37,164.29L153.56,134.34L149.32,97.53ZM300.17,118.23L276.89,92.50L361.38,59.50L359.40,51.19L330.09,14.58L283.99,13.05L251.72,44.43L254.81,95.20L286.93,134.64L331.92,135.86L360.69,113.56L366.50,84.25L347.42,80.66L343.09,104.79L326.49,118.67ZM271.39,76.46L273.58,45.58L290.49,29.78L316.54,30.55L335.09,51.60Z" fill="#ffffff" stroke="#000000"/>
    <path d="M-598.94,83.95L-661.04,-49.99L-610.00,-73.66L-618.31,-91.59L-740.44,-34.96L-732.13,-17.04L-681.08,-40.70L-618.98,93.24ZM-530.60,52.26L-511.48,43.40L-539.16,-16.30L-543.81,-47.90L-526.88,-67.58L-505.27,-67.61L-489.75,-47.58L-458.88,19.01L-439.95,10.23L-470.81,-56.54L-493.60,-86.81L-530.60,-85.73L-548.70,-71.70L-555.42,-51.30L-581.92,-108.46L-601.01,-99.61ZM-399.48,-33.88L-424.05,-57.85L-342.64,-95.62L-345.10,-103.70L-376.29,-138.06L-421.91,-136.74L-451.85,-103.78L-445.68,-53.84L-411.55,-16.86L-367.05,-18.41L-340.00,-42.20L-336.07,-71.50L-355.12,-73.88L-357.93,-49.78L-373.46,-35.06ZM-430.46,-73.35L-430.19,-103.98L-414.46,-120.62L-388.70,-121.46L-369.08,-101.81ZM-237.36,-199.88L-220.92,-201.77L-222.65,-220.44L-244.50,-218.86L-260.02,-204.84L-264.48,-181.32L-273.28,-200.30L-290.37,-192.38L-240.01,-83.77L-220.53,-91.50L-248.01,-150.77L-253.33,-180.43ZM-166.24,-255.18L-196.72,-221.97L-191.09,-171.78L-156.42,-135.05L-111.38,-136.85L-80.90,-170.07L-86.52,-220.26L-121.18,-256.99ZM-118.86,-152.98L-146.35,-152.45L-171.70,-180.75L-176.91,-218.39L-158.76,-239.04L-131.25,-239.57L-105.87,-211.27L-100.67,-173.63ZM-22.04,-183.52L-92.46,-335.39L-111.44,-326.59L-41.03,-174.72ZM18.79,-227.81L-5.77,-251.78L75.64,-289.55L73.18,-297.63L41.98,-331.99L-3.64,-330.67L-33.57,-297.71L-27.40,-247.77L6.73,-210.79L51.23,-212.34L78.27,-236.13L82.21,-265.43L63.15,-267.81L60.35,-243.71L44.82,-228.99ZM-12.19,-267.28L-11.91,-297.91L3.82,-314.55L29.58,-315.38L49.20,-295.74ZM170.83,-411.46L140.35,-378.25L145.98,-328.06L180.65,-291.33L225.69,-293.13L256.17,-326.35L250.55,-376.54L215.89,-413.27ZM218.21,-309.26L190.72,-308.73L165.36,-337.02L160.16,-374.67L178.31,-395.31L205.82,-395.84L231.20,-367.55L236.40,-329.90ZM286.06,-487.38L281.29,-504.32L262.63,-499.54L242.80,-478.90L247.59,-448.21L250.04,-442.93L233.59,-435.30L240.33,-420.75L256.79,-428.38L300.89,-333.25L319.24,-341.76L275.14,-436.89L296.44,-446.76L289.69,-461.32L268.39,-451.44L265.75,-457.14L262.74,-473.01L272.79,-483.85ZM-816.42,230.91L-835.41,239.71L-810.56,293.31L-827.49,287.95L-847.11,291.71L-875.07,324.73L-867.67,373.12L-835.52,410.04L-792.25,410.04L-776.01,396.30L-769.83,375.63L-762.88,390.60L-746.01,382.78ZM-838.54,307.33L-811.74,308.11L-787.82,336.10L-782.73,372.81L-798.64,393.38L-824.91,392.37L-848.29,364.14L-854.73,328.04ZM-705.17,338.50L-729.74,314.52L-648.32,276.75L-650.79,268.67L-681.98,234.31L-727.60,235.63L-757.54,268.59L-751.37,318.54L-717.24,355.51L-672.74,353.96L-645.69,330.18L-641.75,300.87L-660.81,298.50L-663.61,322.60L-679.15,337.32ZM-736.15,299.02L-735.88,268.39L-720.15,251.75L-694.39,250.92L-674.77,270.56ZM-608.12,277.56L-620.75,292.58L-600.03,309.12L-563.24,303.33L-535.81,281.24L-533.79,248.38L-552.75,229.82L-575.63,228.90L-604.41,233.84L-621.26,234.74L-629.99,228.14L-628.90,214.49L-612.85,202.22L-593.48,198.94L-579.62,209.47L-567.14,194.53L-584.95,180.47L-619.64,185.67L-646.29,207.47L-647.53,238.86L-629.76,255.09L-606.52,255.35L-576.17,249.96L-560.47,250.46L-552.40,259.05L-554.97,275.72L-570.09,286.85L-593.34,289.56ZM-544.81,133.95L-541.43,123.26L-546.38,112.53L-556.94,108.08L-566.69,112.60L-569.95,123.43L-564.98,134.15L-554.56,138.47ZM-480.87,259.85L-531.72,150.17L-550.71,158.97L-499.85,268.65ZM-390.85,273.87L-359.20,239.16L-366.71,198.21L-414.23,95.70L-431.11,103.52L-424.26,118.28L-443.19,110.03L-464.96,113.46L-492.92,146.48L-485.50,194.87L-453.36,231.79L-410.10,231.79L-394.99,219.87L-387.74,202.58L-384.07,210.65L-379.39,238.32L-397.99,257.30L-417.85,260.49L-431.65,248.82L-443.61,262.82L-424.69,278.57ZM-456.40,129.11L-430.40,130.26L-405.66,157.87L-399.77,194.21L-416.50,215.16L-442.73,214.13L-466.12,185.90L-472.56,149.81ZM-336.27,192.81L-317.29,184.01L-344.96,124.32L-349.80,92.32L-332.86,72.63L-311.26,72.61L-295.86,92.32L-264.66,159.61L-245.68,150.81L-276.88,83.52L-299.57,53.40L-336.58,54.48L-354.98,68.50L-362.70,91.02L-370.04,75.20L-387.12,83.13ZM-86.51,61.93L-67.08,70.06L-59.04,51.46L-82.04,41.65L-82.60,16.08L-92.45,-7.88L-111.69,-0.22L-104.65,16.27L-102.38,33.13L-144.50,15.24L-127.37,-20.11L-130.29,-47.22L-150.43,-68.31L-188.18,-66.13L-213.11,-42.65L-211.71,-6.86L-189.02,19.07L-174.28,25.72L-186.00,50.44L-183.00,78.13L-158.30,101.49L-117.27,97.07L-97.36,82.68ZM-126.77,80.57L-147.16,82.55L-162.57,68.66L-164.33,51.61L-156.28,33.01L-104.49,54.62L-111.73,69.75ZM-148.36,-17.60L-161.58,7.82L-181.00,-1.91L-192.14,-15.89L-193.85,-33.72L-180.22,-48.86L-161.15,-49.60L-149.90,-38.09ZM70.60,-10.17L43.63,-9.90L18.80,-38.45L13.06,-75.85L30.69,-96.25L50.73,-98.25L70.22,-83.71L82.77,-99.47L57.77,-116.47L23.21,-112.38L-6.73,-79.41L-0.57,-29.46L33.55,7.52L78.08,5.95L103.58,-17.66L106.79,-47.09L86.68,-48.21L85.07,-24.13ZM161.63,-38.03L91.22,-189.90L72.23,-181.10L142.65,-29.23ZM144.10,-185.45L147.48,-196.14L142.52,-206.87L131.96,-211.32L122.21,-206.80L118.96,-195.97L123.92,-185.25L134.35,-180.93ZM208.03,-59.55L157.18,-169.23L138.20,-160.43L189.05,-50.75ZM234.47,-71.80L253.49,-80.63L227.19,-137.37L219.34,-167.87L235.82,-191.03L253.82,-191.07L267.52,-174.29L300.78,-102.55L319.77,-111.35L290.33,-174.84L286.00,-201.98L302.29,-221.85L322.40,-220.69L335.02,-202.98L367.29,-133.38L386.27,-142.19L350.87,-218.54L329.53,-242.34L298.80,-240.11L281.21,-226.18L273.88,-202.58L255.39,-213.41L232.95,-209.46L215.03,-195.92L207.98,-173.82L200.74,-189.43L183.66,-181.51ZM445.27,-258.91L392.22,-211.26L391.79,-179.21L414.63,-159.53L445.02,-164.15L462.88,-177.07L474.76,-198.63L480.56,-185.90L498.28,-194.12L465.50,-264.88L440.58,-292.46L402.63,-288.29L376.44,-267.39L372.02,-239.33L391.36,-237.05L393.30,-258.20L407.88,-271.89L428.85,-275.05ZM453.05,-242.13L465.92,-214.36L457.95,-196.38L440.87,-181.04L424.86,-178.12L411.63,-189.43L413.19,-208.26ZM574.64,-227.73L574.64,-227.74L564.86,-243.08L556.95,-237.87L545.66,-238.26L537.62,-251.31L508.38,-314.38L527.15,-323.08L520.41,-337.64L501.63,-328.93L484.03,-366.90L465.05,-358.10L482.65,-320.13L467.04,-312.90L473.79,-298.34L489.40,-305.58L518.64,-242.51L535.25,-218.03L561.07,-218.98ZM608.72,-270.67L584.16,-294.65L665.57,-332.42L663.10,-340.50L631.91,-374.86L586.29,-373.54L556.36,-340.58L562.52,-290.63L596.66,-253.66L641.15,-255.21L668.20,-278.99L672.14,-308.30L653.08,-310.67L650.28,-286.57L634.75,-271.85ZM577.74,-310.15L578.02,-340.78L593.74,-357.42L619.51,-358.25L639.12,-338.61ZM-252.49,370.27L-279.46,370.55L-304.29,342.00L-310.03,304.60L-292.40,284.20L-272.36,282.20L-252.87,296.73L-240.32,280.97L-265.32,263.98L-299.88,268.07L-329.82,301.03L-323.66,350.98L-289.54,387.96L-245.01,386.40L-219.51,362.78L-216.30,333.35L-236.41,332.23L-238.02,356.31ZM-181.08,351.50L-161.96,342.64L-189.63,282.95L-194.29,251.34L-177.36,231.66L-155.75,231.63L-140.22,251.66L-109.36,318.25L-90.43,309.47L-121.29,242.70L-144.08,212.43L-181.08,213.51L-199.17,227.54L-205.89,247.94L-232.40,190.78L-251.49,199.63ZM-30.53,192.33L-83.59,239.98L-84.02,272.04L-61.17,291.71L-30.79,287.10L-12.92,274.17L-1.05,252.62L4.75,265.35L22.47,257.13L-10.31,186.36L-35.22,158.79L-73.17,162.96L-99.36,183.86L-103.79,211.92L-84.44,214.20L-82.51,193.05L-67.92,179.36L-46.96,176.20ZM-22.75,209.11L-9.89,236.89L-17.86,254.87L-34.93,270.21L-50.95,273.13L-64.17,261.82L-62.62,242.98ZM51.06,243.88L70.04,235.08L42.37,175.38L37.53,143.38L54.47,123.69L76.07,123.67L91.47,143.39L122.66,210.68L141.65,201.88L110.45,134.59L87.76,104.47L50.75,105.54L32.34,119.57L24.62,142.09L17.29,126.27L0.20,134.19ZM231.24,216.09L262.89,181.38L255.39,140.43L207.86,37.91L190.99,45.74L197.83,60.50L178.91,52.25L157.14,55.68L129.18,88.70L136.60,137.09L168.73,174.01L212.00,174.01L227.10,162.08L234.35,144.80L238.03,152.87L242.70,180.54L224.11,199.52L204.25,202.71L190.44,191.04L178.48,205.04L197.41,220.79ZM165.70,71.33L191.70,72.48L216.43,100.09L222.32,136.43L205.60,157.38L179.36,156.35L155.98,128.12L149.54,92.03ZM299.76,103.22L275.20,79.24L356.61,41.47L354.15,33.39L322.96,-0.97L277.34,0.35L247.40,33.31L253.57,83.26L287.70,120.23L332.20,118.68L359.24,94.90L363.18,65.59L344.12,63.22L341.32,87.32L325.79,102.04ZM268.78,63.74L269.06,33.11L284.79,16.47L310.55,15.64L330.17,35.28Z" fill="#ffffff" stroke="#000000"/>
    <path d="M-589.76,124.66L-659.28,-3.77L-610.34,-30.27L-619.64,-47.46L-736.75,15.93L-727.45,33.12L-678.50,6.63L-608.97,135.07ZM-524.22,89.19L-505.89,79.26L-536.87,22.02L-543.41,-8.89L-527.90,-29.36L-506.56,-30.72L-490.01,-11.90L-455.45,51.96L-437.30,42.13L-471.86,-21.91L-496.22,-50.39L-532.69,-47.06L-549.69,-32.09L-555.08,-11.54L-584.75,-66.35L-603.06,-56.44ZM-400.05,-3.90L-425.77,-26.07L-347.70,-68.35L-350.63,-76.18L-383.54,-108.19L-428.50,-104.09L-456.04,-69.71L-446.88,-20.78L-410.92,13.64L-367.08,9.38L-341.83,-15.76L-339.74,-44.94L-358.70,-46.11L-359.99,-22.15L-374.42,-6.66ZM-433.05,-40.98L-434.66,-71.24L-420.15,-88.63L-394.77,-91.03L-374.20,-72.84ZM-250.15,-177.74L-234.03,-180.62L-236.89,-198.95L-258.36,-196.05L-272.83,-181.25L-275.79,-157.75L-285.65,-175.96L-302.03,-167.09L-245.65,-62.94L-226.89,-71.76L-257.66,-128.60L-264.73,-157.56ZM-183.33,-236.71L-211.38,-202.04L-202.74,-152.84L-166.26,-118.70L-121.90,-123.24L-93.84,-157.91L-102.47,-207.12L-138.95,-241.26ZM-130.27,-138.70L-157.38,-136.49L-184.15,-162.88L-191.60,-199.73L-174.94,-221.22L-147.81,-223.43L-121.02,-197.05L-113.59,-160.20ZM-36.56,-174.79L-115.39,-320.43L-133.60,-310.57L-54.76,-164.94ZM1.05,-221.02L-24.67,-243.19L53.39,-285.47L50.46,-293.30L17.56,-325.31L-27.40,-321.21L-54.94,-286.83L-45.79,-237.90L-9.82,-203.48L34.02,-207.74L59.27,-232.88L61.36,-262.06L42.39,-263.23L41.11,-239.27L26.67,-223.78ZM-31.96,-258.10L-33.57,-288.36L-19.06,-305.75L6.33,-308.15L26.90,-289.96ZM139.90,-411.67L111.84,-377.01L120.48,-327.80L156.96,-293.67L201.32,-298.20L229.38,-332.87L220.75,-382.08L184.27,-416.22ZM192.95,-313.67L165.84,-311.46L139.07,-337.84L131.62,-374.70L148.28,-396.19L175.41,-398.40L202.20,-372.02L209.64,-335.17ZM249.01,-493.70L243.27,-510.13L225.14,-504.27L206.82,-482.68L213.44,-452.66L216.18,-447.60L200.40,-439.06L207.95,-425.11L223.73,-433.65L273.11,-342.42L290.71,-351.95L241.33,-443.17L261.76,-454.23L254.20,-468.19L233.77,-457.13L230.82,-462.59L226.87,-478.08L236.13,-489.40ZM-795.47,283.10L-813.68,292.95L-785.86,344.35L-802.91,340.09L-822.05,345.01L-847.63,379.33L-837.35,426.65L-803.35,461.14L-760.62,458.48L-745.43,443.92L-740.60,423.13L-732.82,437.49L-716.64,428.73ZM-812.62,359.91L-786.12,359.04L-760.78,385.21L-753.51,421.14L-767.95,442.43L-793.95,443.04L-818.77,416.60L-827.34,381.35ZM-679.04,382.51L-704.76,360.34L-626.69,318.06L-629.62,310.23L-662.53,278.22L-707.49,282.32L-735.02,316.70L-725.87,365.63L-689.90,400.05L-646.06,395.79L-620.82,370.64L-618.73,341.47L-637.69,340.29L-638.98,364.26L-653.41,379.74ZM-712.04,345.43L-713.65,315.17L-699.14,297.77L-673.75,295.37L-653.18,313.57ZM-586.94,316.39L-598.50,331.99L-577.03,347.06L-541.05,339.08L-515.33,315.58L-515.35,283.02L-535.21,265.86L-557.85,266.35L-585.96,272.99L-602.55,274.91L-611.57,268.93L-611.33,255.39L-596.23,242.29L-577.31,237.86L-562.98,247.41L-551.58,231.90L-570.02,219.10L-603.95,226.37L-628.94,249.53L-628.23,280.60L-609.69,295.53L-586.73,294.36L-557.10,287.18L-541.57,286.71L-533.07,294.70L-534.58,311.32L-548.83,323.23L-571.61,327.33ZM-533.24,170.72L-530.56,159.95L-536.11,149.66L-546.81,145.92L-556.16,150.98L-558.71,161.87L-553.15,172.15L-542.59,175.78ZM-462.39,291.10L-519.33,185.92L-537.53,195.78L-480.60,300.96ZM-372.65,299.42L-343.53,263.22L-353.45,223.24L-406.66,124.94L-422.85,133.70L-415.18,147.86L-434.37,140.87L-455.66,145.59L-481.24,179.91L-470.95,227.22L-436.96,261.71L-394.24,259.06L-380.05,246.36L-373.96,228.85L-369.83,236.59L-363.52,263.62L-380.72,283.50L-400.13,287.87L-414.47,277.19L-425.42,291.75L-405.77,306.14ZM-446.25,160.51L-420.50,160.05L-394.39,185.80L-386.35,221.32L-401.58,243.03L-427.54,243.62L-452.36,217.18L-460.93,181.94ZM-323.73,216.04L-305.53,206.19L-336.52,148.95L-343.25,117.65L-327.73,97.17L-306.41,95.83L-290.00,114.35L-255.07,178.87L-236.86,169.02L-271.79,104.50L-296.05,76.15L-332.52,79.48L-349.83,94.46L-356.07,117.17L-364.29,102.00L-380.67,110.87ZM-85.16,71.50L-65.48,78.34L-58.68,59.49L-81.99,51.21L-84.11,26.00L-95.31,2.94L-113.83,11.68L-105.87,27.54L-102.60,44.04L-145.28,28.97L-130.54,-6.99L-135.08,-33.58L-156.26,-53.17L-193.40,-48.70L-216.57,-23.99L-212.99,11.26L-189.00,35.47L-174.04,41.13L-184.10,66.27L-179.44,93.42L-153.62,114.96L-113.38,108.08L-94.60,92.66ZM-123.77,92.38L-143.78,95.58L-159.84,82.81L-162.63,66.09L-155.82,47.23L-103.36,65.39L-109.58,80.77ZM-151.10,-3.23L-162.59,22.68L-182.37,14.26L-194.22,1.15L-197.01,-16.35L-184.47,-32.13L-165.69,-34.04L-153.88,-23.36ZM65.54,-9.32L38.93,-7.39L12.67,-34.06L4.70,-70.63L20.86,-91.86L40.52,-95.06L60.66,-81.90L72.08,-98.23L46.36,-113.48L12.49,-107.32L-15.06,-72.94L-5.91,-24.00L30.05,10.42L73.91,6.15L97.65,-18.73L99.01,-47.99L79.09,-47.86L78.98,-23.99ZM153.71,-42.41L74.88,-188.04L56.67,-178.19L135.51,-32.55ZM127.36,-186.88L130.04,-197.64L124.49,-207.94L113.79,-211.68L104.44,-206.62L101.89,-195.73L107.45,-185.45L118.01,-181.82ZM198.21,-66.50L141.27,-171.67L123.07,-161.82L180.01,-56.64ZM223.56,-80.22L241.80,-90.09L212.35,-144.50L202.73,-174.14L217.58,-198.02L235.35,-199.16L249.91,-183.43L287.15,-114.64L305.35,-124.49L272.40,-185.38L266.45,-211.90L281.33,-232.52L301.25,-232.61L314.80,-215.90L350.92,-149.16L369.13,-159.02L329.49,-232.24L306.96,-254.42L276.76,-250.34L260.24,-235.50L254.46,-211.76L235.54,-221.32L213.62,-216.03L196.75,-201.57L191.15,-179.32L183.05,-194.29L166.66,-185.42ZM420.22,-277.88L370.76,-227.58L372.30,-195.90L396.06,-177.88L425.78,-184.30L442.63,-198.16L453.03,-220.17L459.54,-207.96L476.53,-217.16L439.83,-285.02L413.53,-310.71L376.32,-304.27L351.75,-282.03L349.09,-254.05L368.33,-252.99L368.95,-273.99L382.51,-288.40L403.01,-292.81ZM428.93,-261.79L443.34,-235.16L436.57,-216.92L420.65,-200.72L405.02,-196.86L391.27,-207.22L391.65,-225.91ZM549.86,-255.03L549.86,-255.03L539.27,-269.59L531.78,-263.95L520.60,-263.65L511.87,-276.04L479.13,-336.52L497.13,-346.26L489.58,-360.22L471.58,-350.47L451.87,-386.88L433.66,-377.03L453.37,-340.62L438.40,-332.52L445.96,-318.56L460.93,-326.66L493.66,-266.18L511.56,-243.04L537.00,-245.55ZM580.88,-299.51L555.16,-321.68L633.23,-363.96L630.30,-371.79L597.39,-403.80L552.43,-399.70L524.89,-365.32L534.05,-316.39L570.01,-281.97L613.85,-286.23L639.10,-311.38L641.19,-340.55L622.23,-341.73L620.94,-317.76L606.50,-302.28ZM547.87,-336.59L546.27,-366.85L560.78,-384.25L586.16,-386.65L606.73,-368.45ZM-230.13,386.12L-256.74,388.05L-283.01,361.38L-290.97,324.81L-274.81,303.58L-255.16,300.38L-235.02,313.53L-223.59,297.21L-249.32,281.96L-283.19,288.12L-310.73,322.50L-301.59,371.44L-265.63,405.86L-221.76,401.58L-198.03,376.70L-196.66,347.45L-216.59,347.58L-216.70,371.45ZM-160.77,363.21L-142.44,353.29L-173.43,296.05L-179.96,265.13L-164.45,244.66L-143.12,243.31L-126.56,262.13L-92.00,325.99L-73.85,316.16L-108.41,252.12L-132.77,223.63L-169.24,226.96L-186.24,241.93L-191.63,262.48L-221.30,207.67L-239.61,217.58ZM-21.89,196.82L-71.36,247.13L-69.82,278.80L-46.05,296.83L-16.34,290.41L0.51,276.55L10.92,254.54L17.42,266.75L34.41,257.55L-2.29,189.69L-28.58,164.00L-65.80,170.44L-90.37,192.68L-93.02,220.66L-73.78,221.72L-73.17,200.72L-59.61,186.31L-39.10,181.90ZM-13.18,212.92L1.22,239.55L-5.55,257.79L-21.47,273.99L-37.09,277.85L-50.85,267.49L-50.47,248.80ZM61.82,242.72L80.03,232.86L49.04,175.62L42.31,144.32L57.83,123.84L79.15,122.50L95.56,141.02L130.49,205.55L148.69,195.69L113.77,131.17L89.51,102.82L53.04,106.15L35.73,121.13L29.48,143.84L21.27,128.67L4.89,137.54ZM238.03,204.23L267.15,168.02L257.23,128.05L204.02,29.75L187.83,38.50L195.50,52.66L176.31,45.68L155.02,50.40L129.44,84.71L139.73,132.03L173.72,166.52L216.44,163.86L230.63,151.16L236.73,133.65L240.85,141.40L247.16,168.43L229.96,188.31L210.55,192.68L196.21,182.00L185.26,196.56L204.91,210.95ZM164.43,65.32L190.18,64.86L216.29,90.61L224.33,126.13L209.10,147.84L183.14,148.43L158.32,121.99L149.75,86.75ZM298.76,88.59L273.04,66.42L351.10,24.14L348.17,16.31L315.27,-15.70L270.31,-11.60L242.77,22.78L251.92,71.71L287.89,106.13L331.73,101.87L356.98,76.73L359.07,47.55L340.10,46.37L338.82,70.34L324.38,85.83ZM265.75,51.51L264.14,21.25L278.65,3.86L304.04,1.46L324.61,19.65Z" fill="#ffffff" stroke="#000000"/>
    <path d="M-577.77,164.44L-654.28,41.90L-607.58,12.74L-617.82,-3.66L-729.55,66.10L-719.31,82.51L-672.61,53.35L-596.10,175.88ZM-515.25,125.40L-497.75,114.47L-531.85,59.86L-540.20,29.74L-526.14,8.58L-505.16,5.94L-487.66,23.50L-449.64,84.43L-432.31,73.61L-470.36,12.51L-496.15,-14.12L-531.95,-8.59L-547.82,7.22L-551.88,27.85L-584.53,-24.45L-602.00,-13.54ZM-398.36,25.88L-425.11,5.58L-350.64,-40.95L-354.01,-48.50L-388.46,-78.08L-432.59,-71.28L-457.67,-35.65L-445.64,12.09L-408.02,43.87L-365.00,36.97L-341.62,10.60L-341.34,-18.33L-360.13,-18.33L-359.93,5.41L-373.24,21.59ZM-433.22,-8.70L-436.66,-38.47L-423.41,-56.53L-398.49,-60.46L-377.07,-43.76ZM-261.04,-154.93L-245.30,-158.76L-249.25,-176.68L-270.27,-172.50L-283.64,-157.01L-285.13,-133.62L-295.97,-150.99L-311.60,-141.23L-249.56,-41.87L-231.58,-51.73L-265.44,-105.95L-274.19,-134.11ZM-198.68,-217.24L-224.26,-181.30L-212.71,-133.25L-174.60,-101.78L-131.09,-108.98L-105.51,-144.93L-117.04,-192.98L-155.15,-224.45ZM-140.30,-123.74L-166.93,-119.89L-194.97,-144.30L-204.59,-180.22L-189.46,-202.47L-162.81,-206.31L-134.74,-181.91L-125.14,-145.99ZM-49.99,-165.11L-136.75,-304.05L-154.11,-293.21L-67.36,-154.27ZM-15.70,-213.05L-42.45,-233.36L32.02,-279.89L28.65,-287.44L-5.80,-317.02L-49.93,-310.22L-75.01,-274.59L-62.97,-226.84L-25.36,-195.07L17.66,-201.97L41.05,-228.33L41.32,-257.26L22.53,-257.26L22.73,-233.52L9.42,-217.35ZM-50.56,-247.63L-54.00,-277.41L-40.75,-295.47L-15.83,-299.40L5.59,-282.70ZM109.69,-409.78L84.11,-373.85L95.66,-325.80L133.77,-294.33L177.28,-301.53L202.86,-337.48L191.32,-385.53L153.22,-417.00ZM168.07,-316.28L141.44,-312.44L113.39,-336.85L103.78,-372.77L118.91,-395.01L145.56,-398.86L173.63,-374.46L183.23,-338.53ZM212.38,-497.45L205.70,-513.32L188.17,-506.42L171.40,-483.98L179.78,-454.76L182.79,-449.93L167.74,-440.53L176.05,-427.22L191.10,-436.62L245.45,-349.59L262.23,-360.07L207.89,-447.10L227.38,-459.27L219.07,-472.58L199.58,-460.41L196.32,-465.62L191.48,-480.68L199.92,-492.41ZM-771.14,333.46L-788.51,344.30L-757.90,393.33L-774.99,390.18L-793.58,396.21L-816.73,431.66L-803.69,477.75L-768.00,509.70L-725.99,504.46L-711.88,489.16L-708.38,468.34L-699.83,482.04L-684.39,472.40ZM-783.37,410.34L-757.26,407.86L-730.64,432.14L-721.25,467.16L-734.21,489.07L-759.84,491.26L-785.96,466.68L-796.58,432.41ZM-650.10,424.46L-676.85,404.15L-602.37,357.62L-605.75,350.07L-640.19,320.49L-684.33,327.29L-709.41,362.92L-697.37,410.67L-659.75,442.44L-616.73,435.55L-593.35,409.18L-593.08,380.25L-611.87,380.25L-611.67,403.99L-624.97,420.16ZM-684.96,389.88L-688.40,360.10L-675.14,342.04L-650.23,338.11L-628.80,354.81ZM-563.24,353.54L-573.69,369.65L-551.56,383.21L-516.54,373.13L-492.58,348.35L-494.60,316.20L-515.26,300.49L-537.59,302.36L-564.93,310.64L-581.19,313.55L-590.46,308.20L-591.05,294.81L-576.95,280.96L-558.54,275.43L-543.81,283.97L-533.50,267.96L-552.49,256.46L-585.55,265.71L-608.79,290.10L-606.19,320.73L-586.97,334.34L-564.37,331.78L-535.56,322.88L-520.26,321.46L-511.38,328.82L-511.85,345.32L-525.19,357.96L-547.43,363.40ZM-519.15,206.43L-517.16,195.65L-523.27,185.82L-534.06,182.78L-542.99,188.36L-544.83,199.26L-538.72,209.07L-528.07,212.00ZM-441.83,320.94L-504.48,220.59L-521.85,231.44L-459.19,331.78ZM-352.72,323.65L-326.20,286.12L-338.44,247.26L-397.00,153.48L-412.43,163.12L-404.00,176.63L-423.37,170.91L-444.10,176.87L-467.25,212.32L-454.19,258.40L-418.52,290.36L-376.51,285.12L-363.28,271.72L-358.34,254.06L-353.79,261.45L-345.90,287.74L-361.66,308.43L-380.55,313.93L-395.37,304.27L-405.29,319.31L-385.01,332.31ZM-433.89,191.03L-408.51,189.00L-381.15,212.81L-371.03,247.39L-384.73,269.75L-410.33,271.93L-436.45,247.35L-447.08,213.08ZM-309.54,238.34L-292.17,227.49L-326.27,172.88L-334.84,142.40L-320.77,121.23L-299.81,118.60L-282.47,135.88L-244.03,197.43L-226.66,186.59L-265.10,125.03L-290.78,98.53L-326.59,104.06L-342.76,119.90L-347.53,142.71L-356.57,128.23L-372.20,137.99ZM-82.87,81.02L-63.02,86.56L-57.47,67.53L-80.99,60.79L-84.62,36.03L-97.09,13.96L-114.85,23.72L-106.02,38.89L-101.77,54.98L-144.83,42.71L-132.48,6.31L-138.60,-19.66L-160.71,-37.70L-197.10,-31.02L-218.46,-5.20L-212.76,29.38L-187.60,51.81L-172.48,56.49L-180.87,81.91L-174.60,108.43L-147.79,128.12L-108.49,118.86L-90.89,102.48ZM-119.71,103.99L-139.27,108.38L-155.91,96.76L-159.68,80.42L-154.12,61.39L-101.22,76.10L-106.41,91.66ZM-152.55,11.28L-162.31,37.57L-182.35,30.47L-194.85,18.25L-198.68,1.14L-187.27,-15.21L-168.85,-18.24L-156.53,-8.42ZM60.95,-8.01L34.80,-4.48L7.23,-29.19L-2.87,-64.81L11.78,-86.75L30.99,-91.12L51.68,-79.37L61.95,-96.19L35.63,-109.67L2.56,-101.51L-22.52,-65.88L-10.49,-18.12L27.12,13.65L70.16,6.74L92.07,-19.27L91.62,-48.24L71.96,-46.89L73.31,-23.32ZM145.96,-46.08L59.21,-185.02L41.84,-174.18L128.60,-35.24ZM111.09,-187.10L113.08,-197.88L106.97,-207.71L96.18,-210.74L87.26,-205.17L85.41,-194.27L91.53,-184.46L102.17,-181.52ZM188.42,-72.59L125.76,-172.94L108.39,-162.09L171.05,-61.75ZM212.60,-87.69L230.01,-98.56L197.59,-150.47L186.28,-179.14L199.48,-203.62L216.95,-205.84L232.29,-191.20L273.27,-125.57L290.64,-136.42L254.37,-194.50L246.87,-220.33L260.29,-241.59L279.96,-242.90L294.36,-227.23L334.11,-163.56L351.48,-174.41L307.86,-244.26L284.26,-264.78L254.69,-258.90L239.30,-243.24L235.04,-219.44L215.77,-227.72L194.46,-221.16L178.70,-205.85L174.53,-183.54L165.61,-197.82L149.98,-188.06ZM394.64,-294.89L348.89,-242.20L352.35,-211.02L376.91,-194.69L405.86,-202.85L421.64,-217.56L430.56,-239.92L437.74,-228.27L453.94,-238.39L413.55,-303.14L386.02,-326.89L349.68,-318.25L326.78,-294.78L325.87,-267.00L344.93,-267.13L344.26,-287.90L356.76,-302.96L376.73,-308.57ZM404.22,-279.54L420.07,-254.13L414.51,-235.70L399.79,-218.74L384.59,-213.97L370.38,-223.35L369.61,-241.83ZM524.02,-280.27L524.02,-280.28L512.67,-294.00L505.62,-287.97L494.61,-286.99L485.22,-298.69L449.20,-356.39L466.37,-367.11L458.06,-380.42L440.88,-369.70L419.19,-404.43L401.83,-393.59L423.51,-358.86L409.23,-349.94L417.55,-336.62L431.83,-345.54L467.86,-287.84L486.95,-266.09L511.90,-270.13ZM551.92,-326.09L525.16,-346.40L599.64,-392.93L596.27,-400.48L561.82,-430.06L517.69,-423.26L492.61,-387.63L504.64,-339.88L542.26,-308.11L585.28,-315.00L608.66,-341.37L608.94,-370.30L590.15,-370.30L590.34,-346.56L577.04,-330.39ZM517.06,-360.67L513.61,-390.45L526.87,-408.51L551.79,-412.44L573.21,-395.74ZM-206.71,400.50L-232.86,404.04L-260.43,379.32L-270.53,343.70L-255.88,321.76L-236.67,317.39L-215.98,329.15L-205.70,312.33L-232.03,298.85L-265.09,307.01L-290.18,342.64L-278.15,390.39L-240.54,422.16L-197.50,415.26L-175.59,389.24L-176.03,360.28L-195.70,361.63L-194.35,385.20ZM-139.64,373.64L-122.15,362.72L-156.25,308.11L-164.59,277.98L-150.54,256.82L-129.56,254.18L-112.06,271.75L-74.03,332.67L-56.71,321.85L-94.76,260.75L-120.55,234.13L-156.35,239.65L-172.22,255.46L-176.27,276.09L-208.93,223.79L-226.39,234.70ZM-12.73,200.86L-58.48,253.55L-55.02,284.73L-30.45,301.07L-1.51,292.91L14.28,278.19L23.20,255.83L30.37,267.48L46.58,257.36L6.18,192.62L-21.35,168.86L-57.69,177.50L-80.59,200.97L-81.49,228.75L-62.43,228.62L-63.11,207.85L-50.61,192.79L-30.64,187.18ZM-3.15,216.21L12.71,241.62L7.14,260.05L-7.58,277.01L-22.77,281.79L-36.99,272.40L-37.76,253.93ZM72.73,241.03L90.10,230.19L56.00,175.58L47.43,145.09L61.50,123.92L82.46,121.29L99.80,138.57L138.24,200.13L155.61,189.28L117.17,127.73L91.48,101.23L55.68,106.75L39.51,122.60L34.74,145.40L25.70,130.93L10.07,140.69ZM244.32,192.24L270.85,154.71L258.61,115.85L200.05,22.07L184.61,31.71L193.05,45.21L173.67,39.49L152.94,45.46L129.80,80.90L142.86,126.99L178.53,158.95L220.54,153.71L233.76,140.30L238.71,122.64L243.26,130.04L251.14,156.33L235.39,177.01L216.49,182.52L201.67,172.86L191.75,187.90L212.04,200.90ZM163.15,59.61L188.54,57.58L215.90,81.40L226.02,115.97L212.31,138.34L186.71,140.51L160.59,115.93L149.97,81.67ZM297.19,74.35L270.44,54.04L344.91,7.51L341.54,-0.04L307.09,-29.62L262.96,-22.82L237.88,12.81L249.92,60.56L287.53,92.33L330.55,85.44L353.94,59.07L354.21,30.14L335.42,30.14L335.62,53.88L322.31,70.05ZM262.33,39.77L258.89,9.99L272.14,-8.07L297.06,-11.99L318.48,4.70Z" fill="#ffffff" stroke="#000000"/>
    <path d="M-563.07,203.07L-646.10,86.80L-601.79,55.16L-612.91,39.59L-718.92,115.31L-707.81,130.87L-663.50,99.22L-580.46,215.49ZM-503.74,160.70L-487.15,148.85L-524.15,97.03L-534.24,67.81L-521.66,46.06L-501.11,42.16L-482.76,58.43L-441.49,116.24L-425.05,104.50L-466.36,46.51L-493.45,21.81L-528.45,29.46L-543.14,46.05L-545.88,66.65L-581.32,17.03L-597.90,28.87ZM-394.47,55.30L-422.12,36.90L-351.45,-13.59L-355.25,-20.84L-391.06,-47.93L-434.21,-38.51L-456.78,-1.80L-441.97,44.59L-402.89,73.65L-360.85,64.21L-339.39,36.74L-340.89,8.17L-359.44,9.32L-357.79,32.74L-369.93,49.52ZM-431.00,23.31L-436.22,-5.87L-424.24,-24.51L-399.89,-29.92L-377.71,-14.75ZM-269.99,-131.60L-254.70,-136.34L-259.69,-153.78L-280.18,-148.37L-292.43,-132.26L-292.47,-109.09L-304.24,-125.56L-319.07,-114.97L-251.73,-20.69L-234.59,-31.53L-271.33,-82.98L-281.71,-110.24ZM-212.26,-196.92L-235.30,-159.88L-220.96,-113.16L-181.41,-84.43L-138.90,-94.21L-115.86,-131.26L-130.19,-177.98L-169.73,-206.71ZM-148.90,-108.21L-174.95,-102.78L-204.13,-125.15L-215.82,-160.02L-202.25,-182.91L-176.18,-188.34L-146.98,-165.97L-135.30,-131.10ZM-62.29,-154.58L-156.45,-286.41L-172.93,-274.64L-78.77,-142.81ZM-31.38,-204.01L-59.04,-222.42L11.63,-272.91L7.84,-280.15L-27.98,-307.24L-71.13,-297.82L-93.70,-261.12L-78.89,-214.72L-39.81,-185.67L2.23,-195.11L23.69,-222.57L22.19,-251.15L3.64,-249.99L5.29,-226.57L-6.85,-209.79ZM-67.91,-236.01L-73.14,-265.19L-61.16,-283.83L-36.80,-289.23L-14.63,-274.06ZM80.33,-405.89L57.28,-368.85L71.63,-322.12L111.18,-293.40L153.69,-303.18L176.73,-340.23L162.40,-386.95L122.86,-415.68ZM143.69,-317.17L117.64,-311.75L88.46,-334.12L76.77,-368.99L90.34,-391.87L116.41,-397.30L145.61,-374.94L157.29,-340.06ZM176.32,-498.72L168.76,-513.98L151.87,-506.09L136.70,-482.92L146.76,-454.58L150.03,-450.00L135.75,-439.80L144.77,-427.17L159.05,-437.37L218.03,-354.79L233.96,-366.17L174.98,-448.74L193.47,-461.95L184.45,-474.59L165.96,-461.38L162.43,-466.32L156.72,-480.88L164.34,-492.99ZM-743.59,381.77L-760.07,393.54L-726.84,440.06L-743.90,437.99L-761.89,445.08L-782.57,481.50L-766.87,526.19L-729.69,555.55L-688.53,547.80L-675.55,531.82L-673.37,511.06L-664.08,524.06L-649.44,513.60ZM-750.94,458.40L-725.32,454.35L-697.55,476.69L-686.14,510.69L-697.59,533.10L-722.75,536.84L-750.05,514.18L-762.63,481.00ZM-618.53,464.17L-646.18,445.76L-575.51,395.27L-579.31,388.03L-615.12,360.94L-658.27,370.36L-680.84,407.06L-666.03,453.46L-626.95,482.51L-584.91,473.07L-563.45,445.61L-564.95,417.03L-583.50,418.19L-581.85,441.61L-593.99,458.39ZM-655.05,432.17L-660.28,402.99L-648.30,384.35L-623.94,378.95L-601.77,394.12ZM-537.13,388.85L-546.46,405.39L-523.79,417.41L-489.83,405.32L-467.70,379.39L-471.67,347.78L-493.02,333.53L-514.95,336.75L-541.43,346.60L-557.30,350.47L-566.78,345.75L-568.19,332.58L-555.11,318.04L-537.28,311.45L-522.22,318.98L-513.02,302.54L-532.48,292.35L-564.54,303.52L-585.99,329.02L-581.54,359.09L-561.74,371.35L-539.59,367.43L-511.69,356.88L-496.67,354.54L-487.45,361.27L-486.91,377.58L-499.30,390.87L-520.92,397.61ZM-502.63,240.93L-501.33,230.16L-507.96,220.84L-518.80,218.50L-527.26,224.55L-528.42,235.42L-521.78,244.73L-511.09,246.98ZM-419.28,349.22L-487.28,254.01L-503.76,265.78L-435.76,360.99ZM-331.16,346.44L-307.28,307.77L-321.74,270.16L-385.30,181.17L-399.94,191.63L-390.79,204.45L-410.26,199.99L-430.36,207.15L-451.03,243.56L-435.32,288.25L-398.15,317.61L-357.00,309.86L-344.77,295.82L-340.97,278.08L-336.03,285.10L-326.63,310.57L-340.92,331.96L-359.23,338.55L-374.45,329.92L-383.32,345.38L-362.50,356.97ZM-419.42,220.50L-394.48,216.94L-366.01,238.77L-353.91,272.28L-366.06,295.20L-391.20,298.91L-418.49,276.25L-431.08,243.07ZM-293.77,259.58L-277.29,247.81L-314.29,195.99L-324.62,166.42L-312.03,144.67L-291.50,140.78L-273.32,156.78L-231.61,215.18L-215.13,203.41L-256.84,145.01L-283.82,120.42L-318.82,128.07L-333.82,144.70L-337.13,167.51L-346.93,153.77L-361.76,164.37ZM-79.66,90.39L-59.73,94.64L-55.42,75.52L-79.04,70.31L-84.15,46.09L-97.81,25.06L-114.74,35.79L-105.09,50.22L-99.91,65.84L-143.17,56.37L-133.21,19.68L-140.84,-5.58L-163.77,-22.03L-199.28,-13.20L-218.78,13.59L-211.04,47.38L-184.83,67.98L-169.62,71.67L-176.34,97.28L-168.53,123.07L-140.86,140.86L-102.63,129.31L-86.26,112.07ZM-114.62,115.33L-133.66,120.86L-150.79,110.41L-155.52,94.51L-151.20,75.38L-98.07,86.66L-102.25,102.34ZM-152.72,25.82L-160.74,52.37L-180.96,46.59L-194.05,35.29L-198.87,18.64L-188.62,1.80L-170.61,-2.32L-157.85,6.62ZM56.84,-6.31L31.25,-1.22L2.52,-23.92L-9.64,-58.46L3.48,-81.02L22.18,-86.51L43.32,-76.18L52.43,-93.41L25.62,-105.10L-6.52,-95.02L-29.09,-58.31L-14.29,-11.91L24.78,17.15L66.84,7.69L86.87,-19.33L84.66,-47.90L65.33,-45.36L68.11,-22.17ZM138.43,-49.10L44.28,-180.93L27.80,-169.16L121.95,-37.33ZM95.37,-186.16L96.67,-196.93L90.03,-206.25L79.20,-208.59L70.73,-202.54L69.57,-191.67L76.21,-182.36L86.90,-180.11ZM178.71,-77.87L110.71,-173.08L94.23,-161.31L162.23,-66.10ZM201.66,-94.26L218.17,-106.05L183.00,-155.31L170.07,-182.91L181.60,-207.89L198.71,-211.15L214.75,-197.64L259.22,-135.37L275.70,-147.14L236.34,-202.25L227.36,-227.28L239.30,-249.10L258.63,-251.59L273.81,-237.01L316.95,-176.60L333.43,-188.37L286.09,-254.65L261.54,-273.46L232.71,-265.84L218.48,-249.44L215.73,-225.69L196.21,-232.68L175.57,-224.90L160.95,-208.81L158.20,-186.54L148.53,-200.09L133.70,-189.49ZM368.65,-309.94L326.72,-255.13L332.05,-224.56L357.30,-209.94L385.37,-219.77L400.05,-235.26L407.48,-257.89L415.27,-246.82L430.66,-257.81L386.81,-319.24L358.18,-341.00L322.83,-330.25L301.67,-305.68L302.48,-278.20L321.29,-279.50L319.34,-299.96L330.76,-315.59L350.14,-322.35ZM379.05,-295.38L396.26,-271.27L391.89,-252.74L378.40,-235.09L363.70,-229.45L349.09,-237.84L347.20,-256.03ZM497.26,-303.45L497.26,-303.45L485.22,-316.30L478.63,-309.92L467.81,-308.27L457.83,-319.24L418.73,-373.99L435.03,-385.63L426.01,-398.26L409.71,-386.62L386.17,-419.58L369.69,-407.81L393.23,-374.86L379.68,-365.18L388.71,-352.54L402.26,-362.22L441.36,-307.48L461.53,-287.17L485.92,-292.69ZM521.99,-350.39L494.34,-368.79L565.00,-419.28L561.21,-426.53L525.39,-453.62L482.24,-444.20L459.67,-407.49L474.48,-361.10L513.56,-332.04L555.60,-341.49L577.07,-368.95L575.57,-397.52L557.01,-396.37L558.67,-372.95L546.53,-356.17ZM485.46,-382.38L480.23,-411.56L492.21,-430.20L516.57,-435.61L538.74,-420.44ZM-182.32,413.35L-207.91,418.44L-236.64,395.73L-248.80,361.19L-235.68,338.63L-216.99,333.15L-195.84,343.48L-186.73,326.24L-213.55,314.55L-245.68,324.63L-268.26,361.34L-253.46,407.74L-214.38,436.80L-172.32,427.35L-152.29,400.32L-154.50,371.76L-173.83,374.30L-171.05,397.48ZM-117.76,382.72L-101.16,370.86L-138.17,319.05L-148.26,289.82L-135.68,268.08L-115.13,264.18L-96.78,280.45L-55.51,338.26L-39.07,326.52L-80.38,268.53L-107.47,243.83L-142.47,251.48L-157.16,268.06L-159.90,288.67L-195.34,239.05L-211.91,250.89ZM-3.08,204.39L-45.01,259.21L-39.68,289.77L-14.43,304.39L13.64,294.56L28.32,279.07L35.75,256.45L43.55,267.51L58.93,256.53L15.08,195.09L-13.55,173.33L-48.89,184.09L-70.06,208.65L-69.25,236.13L-50.44,234.83L-52.38,214.37L-40.97,198.74L-21.59,191.98ZM7.32,218.95L24.53,243.06L20.17,261.59L6.67,279.24L-8.03,284.88L-22.64,276.49L-24.53,258.30ZM83.74,238.80L100.22,227.03L63.21,175.22L52.89,145.65L65.47,123.89L86.01,120.01L104.18,136.00L145.90,194.41L162.38,182.64L120.66,124.23L93.69,99.65L58.68,107.30L43.69,123.93L40.38,146.73L30.57,133.00L15.74,143.59ZM250.13,180.12L274.02,141.45L259.55,103.84L196.00,14.85L181.35,25.32L190.50,38.13L171.03,33.67L150.93,40.83L130.26,77.24L145.97,121.93L183.15,151.29L224.29,143.54L236.53,129.50L240.33,111.76L245.27,118.78L254.66,144.26L240.38,165.64L222.06,172.23L206.84,163.60L197.98,179.06L218.80,190.65ZM161.88,54.18L186.81,50.62L215.28,72.45L227.39,105.96L215.23,128.88L190.09,132.59L162.80,109.93L150.21,76.76ZM295.09,60.51L267.44,42.10L338.10,-8.39L334.31,-15.64L298.50,-42.73L255.35,-33.31L232.77,3.40L247.58,49.79L286.66,78.85L328.70,69.41L350.17,41.95L348.67,13.37L330.12,14.53L331.77,37.95L319.63,54.73ZM258.56,28.51L253.34,-0.67L265.32,-19.31L289.67,-24.71L311.84,-9.54Z" fill="#ffffff" stroke="#000000"/>
    <path d="M-906.35,492L-906.35,469.28L-898.22,492L-894.99,492L-886.86,469.28L-886.86,492L-883.25,492L-883.25,464.64L-888.22,464.64L-896.55,487.33L-904.68,464.64L-909.96,464.64L-909.96,492ZM-865.67,478.75L-876.82,482.17L-879.09,486.89L-877.05,491.38L-872.23,492.78L-868.69,492.09L-865.45,489.71L-865.46,492L-862.27,492L-862.27,479.25L-864.06,473.45L-869.98,471.46L-875.30,472.76L-877.88,476.62L-875.17,478.28L-873.43,475.28L-870.33,474.25L-867.00,475.23ZM-865.67,481.77L-865.68,486.77L-868.09,488.89L-871.68,489.99L-874.26,489.33L-875.44,486.74L-873.91,484.05ZM-857.12,492L-853.70,492L-853.70,481.25L-852.22,476.17L-848.35,474.41L-845.15,475.90L-844.22,479.88L-844.22,492L-840.80,492L-840.80,479.88L-842.09,473.85L-847.66,471.47L-851.35,472.28L-854.04,475.09L-854.04,472.24L-857.12,472.24ZM-833.34,468.94L-832.11,467.58L-832.10,465.65L-833.36,464.27L-835.12,464.27L-836.35,465.65L-836.35,467.58L-835.10,468.94ZM-832.52,492L-832.52,472.24L-835.94,472.24L-835.94,492ZM-818.31,468.12L-817.85,465.29L-820.94,464.71L-825.30,466.41L-826.70,471.29L-826.70,472.24L-829.67,472.24L-829.67,474.86L-826.70,474.86L-826.70,492L-823.40,492L-823.40,474.86L-819.56,474.86L-819.56,472.24L-823.40,472.24L-823.40,471.21L-822.75,468.65L-820.52,467.74ZM-807.97,471.46L-814.77,474.29L-817.39,482.12L-814.77,489.95L-807.97,492.78L-801.17,489.95L-798.55,482.12L-801.16,474.29ZM-807.97,489.87L-812.08,488.06L-813.90,482.12L-812.08,476.18L-807.97,474.37L-803.85,476.18L-802.04,482.12L-803.85,488.06ZM-795.03,492L-791.61,492L-791.61,481.25L-790.13,476.17L-786.26,474.41L-783.06,475.90L-782.13,479.88L-782.13,492L-778.71,492L-778.71,479.88L-780.00,473.85L-785.56,471.47L-789.26,472.28L-791.95,475.09L-791.95,472.24L-795.03,472.24ZM-765.45,492.27L-765.45,492.26L-765.85,489.32L-767.38,489.55L-769.03,488.71L-769.32,486.22L-769.32,474.86L-765.94,474.86L-765.94,472.24L-769.32,472.24L-769.32,465.40L-772.74,465.40L-772.74,472.24L-775.55,472.24L-775.55,474.86L-772.74,474.86L-772.74,486.22L-771.96,491.00L-768.07,492.63ZM-737.50,487.93L-737.50,478.13L-749.05,478.13L-749.05,481.31L-740.99,481.31L-740.97,486.22L-748.63,489.75L-755.95,486.41L-758.55,478.32L-756.06,470.17L-749.21,466.88L-744.27,468.25L-741.30,473.01L-738.24,471.11L-741.44,465.93L-749.13,463.79L-758.98,468.04L-762.42,478.32L-758.78,488.60L-748.74,492.86ZM-724.35,474.77L-721.78,475.62L-720.76,472.73L-724.11,471.47L-727.37,472.48L-729.65,475.66L-729.65,472.24L-732.73,472.24L-732.73,491.81L-729.31,492L-729.31,481.32L-728.06,476.56ZM-710.01,471.46L-716.81,474.29L-719.42,482.12L-716.81,489.95L-710.01,492.78L-703.20,489.95L-700.58,482.12L-703.20,474.29ZM-710.01,489.87L-714.12,488.06L-715.93,482.12L-714.12,476.18L-710.01,474.37L-705.89,476.18L-704.07,482.12L-705.89,488.06ZM-688.58,492.27L-688.58,492.26L-688.97,489.32L-690.51,489.55L-692.15,488.71L-692.45,486.22L-692.45,474.86L-689.07,474.86L-689.07,472.24L-692.45,472.24L-692.45,465.40L-695.87,465.40L-695.87,472.24L-698.68,472.24L-698.68,474.86L-695.87,474.86L-695.87,486.22L-695.09,491.00L-691.19,492.63ZM-680.57,488.24L-682.57,483.00L-667.90,482.99L-667.71,481.63L-669.97,474.39L-676.83,471.45L-683.53,474.28L-686.05,482.11L-683.53,489.93L-676.83,492.76L-671.18,491.10L-668.58,487.02L-671.25,485.36L-673.32,488.74L-676.63,489.86ZM-682.45,480.26L-680.31,475.73L-676.83,474.35L-672.95,476.00L-671.40,480.26ZM-661.99,485.88L-664.90,487.24L-662.96,491.11L-657.11,492.78L-651.52,491.39L-648.97,486.66L-650.50,482.61L-653.83,480.90L-658.44,479.65L-661.00,478.62L-661.84,477.05L-660.74,475.10L-657.52,474.38L-654.42,475.23L-653.09,477.74L-650.21,476.38L-651.88,473.07L-657.39,471.46L-662.84,472.86L-665.18,477.43L-663.66,481.06L-660.23,482.69L-655.36,483.98L-653.07,485.13L-652.46,486.96L-653.99,489.26L-656.99,489.87L-660.63,488.67ZM-641.92,483.45L-638.72,483.45L-637.20,484.67L-633.14,492.30L-630.05,490.63L-634.16,483.45L-636.67,482.04L-634.62,480.06L-632.77,476.14L-631.66,475.64L-630.10,475.39L-630.56,472.24L-633.40,472.52L-635.30,474.17L-637.43,478.82L-638.72,480.60L-641.91,480.60L-641.91,464.64L-643.66,464.64L-645.32,464.64L-645.33,492L-641.92,492ZM-625.58,492.01L-615.04,492.01L-607.42,490.45L-604.53,484.21L-606.06,480.03L-610.31,477.70L-606.80,475.27L-605.82,471.62L-608.58,466.13L-615.58,464.63L-625.58,464.63ZM-621.94,476.42L-621.95,467.89L-616.40,467.89L-611.64,468.44L-609.62,472.08L-611.57,475.51L-615.93,476.42ZM-621.94,488.79L-621.94,479.64L-615.54,479.64L-610.64,480.53L-608.45,484.21L-610.32,488.02L-615.04,488.79ZM-592.40,471.46L-599.20,474.29L-601.81,482.12L-599.20,489.95L-592.40,492.78L-585.59,489.95L-582.97,482.12L-585.59,474.29ZM-592.40,489.87L-596.51,488.06L-598.32,482.12L-596.51,476.18L-592.40,474.37L-588.28,476.18L-586.46,482.12L-588.28,488.06ZM-571.27,471.46L-578.07,474.29L-580.68,482.12L-578.07,489.95L-571.27,492.78L-564.46,489.95L-561.85,482.12L-564.46,474.29ZM-571.27,489.87L-575.38,488.06L-577.19,482.12L-575.38,476.18L-571.27,474.37L-567.15,476.18L-565.33,482.12L-567.15,488.06ZM-554.82,483.45L-551.62,483.45L-550.10,484.67L-546.04,492.30L-542.96,490.63L-547.06,483.45L-549.57,482.04L-547.52,480.06L-545.67,476.14L-544.56,475.64L-543.00,475.39L-543.46,472.24L-546.31,472.52L-548.20,474.17L-550.34,478.82L-551.62,480.60L-554.82,480.60L-554.82,464.64L-556.56,464.64L-558.23,464.64L-558.23,492L-554.82,492Z"/>
</svg>