<?xml version="1.0"?>
<svg xmlns="http://www.w3.org/2000/svg" width="1920" height="1080" viewBox="-960 -540 1920 1080">
    <path d="M-580.38,-368.75C-580.38,-368.75 -568.63,-368.75 -559.63,-368.75C-531.63,-368.75 -513.63,-353 -513.63,-331.50C-513.63,-306 -531.88,-287.75 -553.63,-287.75C-565.63,-287.75 -572.13,-291.25 -572.13,-291.25L-573.38,-290.25C-573.38,-290.25 -564.63,-283.50 -550.63,-283.50C-529.38,-283.50 -500.88,-300.25 -500.88,-335C-500.88,-361 -521.13,-385 -562.13,-385L-600.13,-385L-600.13,-210L-580.38,-210ZM-479.13,-210L-408.13,-210L-476.88,-318.25L-412.38,-318.25L-412.38,-385L-479.13,-385ZM-323.38,-390.75L-409.38,-210L-237.38,-210ZM-323.38,-298.50L-303.63,-253L-344.13,-253ZM-121.13,-218C-164.13,-218 -193.13,-251.75 -193.13,-298C-193.13,-343.75 -166.13,-378 -121.13,-378C-100.13,-378 -86.13,-370.25 -76.38,-362.50C-70.88,-358 -66.38,-352.75 -62.88,-347C-66.13,-354.75 -71.13,-362 -77.63,-368.25C-88.88,-379 -106.63,-389.75 -135.63,-389.75C-186.38,-389.75 -227.38,-348.75 -227.38,-298C-227.38,-247.25 -186.38,-206.25 -135.63,-206.25C-109.38,-206.25 -91.63,-217.25 -79.63,-228.50C-73.13,-234.75 -67.63,-242.25 -63.13,-250.25C-66.88,-244.25 -71.38,-238.75 -76.63,-234.25C-86.38,-226 -100.38,-218 -121.13,-218ZM-13.88,-210L-6.13,-210L-6.13,-385L-13.88,-385ZM2.38,-210L10.13,-210L10.13,-385L2.38,-385ZM18.63,-210L26.38,-210L26.38,-385L18.63,-385ZM-52.88,-371.50C-52.88,-362.75 -45.88,-355.75 -37.13,-355.75C-28.38,-355.75 -21.13,-362.75 -21.13,-371.50C-21.13,-380.25 -28.38,-387.50 -37.13,-387.50C-45.88,-387.50 -52.88,-380.25 -52.88,-371.50ZM33.38,-371.50C33.38,-362.75 40.38,-355.75 49.13,-355.75C57.88,-355.75 65.13,-362.75 65.13,-371.50C65.13,-380.25 57.88,-387.50 49.13,-387.50C40.38,-387.50 33.38,-380.25 33.38,-371.50ZM173.63,-217.25L126.63,-217.25L126.63,-378.50L173.63,-378.50L173.63,-385L72.63,-385L72.63,-378.50L119.63,-378.50L119.63,-217.25L72.63,-217.25L72.63,-210L173.63,-210ZM292.38,-218C249.38,-218 220.38,-251.75 220.38,-298C220.38,-343.75 247.38,-378 292.38,-378C313.38,-378 327.38,-370.25 337.13,-362.50C342.63,-358 347.13,-352.75 350.63,-347C347.38,-354.75 342.38,-362 335.88,-368.25C324.63,-379 306.88,-389.75 277.88,-389.75C227.13,-389.75 186.13,-348.75 186.13,-298C186.13,-247.25 227.13,-206.25 277.88,-206.25C304.13,-206.25 321.88,-217.25 333.88,-228.50C340.38,-234.75 345.88,-242.25 350.38,-250.25C346.63,-244.25 342.13,-238.75 336.88,-234.25C327.13,-226 313.13,-218 292.38,-218ZM371.88,-297.50C371.88,-282.75 380.88,-271.25 394.13,-267.50C380.88,-263.75 371.88,-252 371.88,-237.25C371.88,-220 384.88,-206.25 402.13,-206.25C416.38,-206.25 427.88,-215.75 431.63,-229C434.88,-215.75 446.13,-206.25 460.88,-206.25C475.13,-206.25 486.63,-215.75 490.38,-229C493.63,-215.75 504.88,-206.25 519.63,-206.25C536.63,-206.25 550.13,-220 550.13,-237.25C550.13,-254.25 536.63,-268.50 519.63,-268.50C504.88,-268.50 493.63,-259 490.38,-245.25C487.63,-256.25 479.38,-264.50 468.63,-267.50C481.88,-271.25 491.38,-282.75 491.38,-297.50C491.38,-312.25 481.88,-324 468.63,-327.75C479.38,-330.50 487.63,-338.75 490.38,-349.50C493.63,-336.25 504.88,-326.75 519.63,-326.75C536.63,-326.75 550.13,-340.50 550.13,-357.75C550.13,-374.75 536.63,-389 519.63,-389C504.88,-389 493.63,-379.50 490.38,-365.75C486.63,-379.50 475.63,-389 460.88,-389C446.13,-389 434.88,-379.50 431.63,-365.75C427.88,-379.50 416.88,-389 402.13,-389C384.88,-389 371.88,-374.75 371.88,-357.75C371.88,-343 380.88,-331.50 394.13,-327.75C380.88,-324 371.88,-312.25 371.88,-297.50ZM435.88,-297.50C435.88,-311.75 446.63,-323.25 460.88,-323.25C475.13,-323.25 485.88,-311.75 485.88,-297.50C485.88,-283.50 475.13,-272 460.88,-272C446.63,-272 435.88,-283.50 435.88,-297.50ZM377.13,-297.50C377.13,-311.75 387.88,-323.25 402.13,-323.25C416.38,-323.25 427.13,-311.75 427.13,-297.50C427.13,-283.50 416.38,-272 402.13,-272C387.88,-272 377.13,-283.50 377.13,-297.50ZM377.13,-237.25C377.13,-251.50 387.88,-263 402.13,-263C416.38,-263 427.13,-251.50 427.13,-237.25C427.13,-223.25 416.38,-211.75 402.13,-211.75C387.88,-211.75 377.13,-223.25 377.13,-237.25ZM435.88,-237.25C435.88,-251.50 446.63,-263 460.88,-263C475.13,-263 485.88,-251.50 485.88,-237.25C485.88,-223.25 475.13,-211.75 460.88,-211.75C446.63,-211.75 435.88,-223.25 435.88,-237.25ZM494.63,-237.25C494.63,-251.50 505.38,-263 519.63,-263C533.88,-263 544.63,-251.50 544.63,-237.25C544.63,-223.25 533.88,-211.75 519.63,-211.75C505.38,-211.75 494.63,-223.25 494.63,-237.25ZM494.63,-357.75C494.63,-372 505.38,-383.50 519.63,-383.50C533.88,-383.50 544.63,-372 544.63,-357.75C544.63,-343.75 533.88,-332.25 519.63,-332.25C505.38,-332.25 494.63,-343.75 494.63,-357.75ZM377.13,-357.75C377.13,-372 387.88,-383.50 402.13,-383.50C416.38,-383.50 427.13,-372 427.13,-357.75C427.13,-343.75 416.38,-332.25 402.13,-332.25C387.88,-332.25 377.13,-343.75 377.13,-357.75ZM435.88,-357.75C435.88,-372 446.63,-383.50 460.88,-383.50C475.13,-383.50 485.88,-372 485.88,-357.75C485.88,-343.75 475.13,-332.25 460.88,-332.25C446.63,-332.25 435.88,-343.75 435.88,-357.75ZM431.63,-289.25C434.38,-278.50 442.13,-270.25 452.88,-267.50C442.13,-264.50 434.38,-256.25 431.63,-245.25C428.88,-256.25 420.63,-264.50 409.88,-267.50C420.63,-270.25 428.88,-278.50 431.63,-289.25ZM431.63,-349.50C434.38,-338.75 442.13,-330.50 452.88,-327.75C442.13,-324.75 434.38,-316.50 431.63,-305.50C428.88,-316.50 420.63,-324.75 409.88,-327.75C420.63,-330.50 428.88,-338.75 431.63,-349.50Z" fill="#ffffff" stroke="#000000"/>
    <path d="M-579.17,-364.23C-579.17,-364.23 -567.54,-364.19 -558.63,-364.16C-530.91,-364.05 -513.15,-348.40 -513.23,-327.11C-513.32,-301.87 -531.45,-283.87 -552.98,-283.94C-564.86,-283.99 -571.29,-287.48 -571.29,-287.48L-572.53,-286.49C-572.53,-286.49 -563.89,-279.78 -550.03,-279.73C-528.99,-279.65 -500.72,-296.13 -500.59,-330.53C-500.50,-356.27 -520.45,-380.10 -561.04,-380.25L-598.66,-380.39L-599.30,-207.14L-579.75,-207.07ZM-479.51,-206.70L-409.22,-206.44L-476.89,-313.86L-413.04,-313.62L-412.79,-379.71L-478.88,-379.95ZM-324.66,-385.07L-410.46,-206.45L-240.18,-205.82ZM-325.00,-293.75L-305.61,-248.63L-345.71,-248.78ZM-125.07,-213.31C-167.64,-213.47 -196.22,-246.99 -196.05,-292.78C-195.89,-338.07 -169.03,-371.88 -124.48,-371.71C-103.69,-371.64 -89.86,-363.91 -80.24,-356.20C-74.81,-351.73 -70.37,-346.51 -66.93,-340.81C-70.12,-348.49 -75.04,-355.69 -81.45,-361.90C-92.55,-372.58 -110.09,-383.29 -138.80,-383.40C-189.04,-383.58 -229.78,-343.14 -229.96,-292.90C-230.15,-242.66 -189.71,-201.92 -139.47,-201.73C-113.48,-201.64 -95.87,-212.46 -83.94,-223.56C-77.49,-229.72 -72.01,-237.12 -67.53,-245.03C-71.26,-239.10 -75.74,-233.67 -80.95,-229.24C-90.64,-221.11 -104.53,-213.24 -125.07,-213.31ZM-18.92,-205.00L-11.25,-204.97L-10.61,-378.22L-18.28,-378.25ZM-2.83,-204.94L4.84,-204.91L5.48,-378.16L-2.19,-378.19ZM13.25,-204.88L20.93,-204.85L21.57,-378.10L13.89,-378.13ZM-56.94,-365.03C-56.97,-356.37 -50.07,-349.41 -41.41,-349.38C-32.74,-349.35 -25.54,-356.25 -25.51,-364.91C-25.48,-373.57 -32.63,-380.78 -41.29,-380.81C-49.95,-380.84 -56.91,-373.69 -56.94,-365.03ZM28.45,-364.71C28.42,-356.05 35.32,-349.09 43.98,-349.06C52.64,-349.03 59.85,-355.93 59.88,-364.60C59.91,-373.26 52.76,-380.46 44.10,-380.49C35.44,-380.53 28.48,-373.37 28.45,-364.71ZM166.73,-211.49L120.20,-211.67L120.79,-371.30L167.32,-371.13L167.34,-377.57L67.35,-377.93L67.33,-371.50L113.86,-371.33L113.27,-211.69L66.74,-211.86L66.71,-204.69L166.70,-204.32ZM284.29,-211.80C241.72,-211.96 213.14,-245.48 213.31,-291.26C213.47,-336.56 240.33,-370.37 284.88,-370.20C305.67,-370.12 319.50,-362.40 329.12,-354.69C334.55,-350.22 338.99,-345.00 342.43,-339.30C339.24,-346.98 334.32,-354.18 327.91,-360.39C316.81,-371.07 299.28,-381.78 270.57,-381.89C220.32,-382.07 179.59,-341.63 179.40,-291.39C179.21,-241.15 219.65,-200.41 269.90,-200.22C295.88,-200.13 313.50,-210.95 325.42,-222.05C331.88,-228.21 337.35,-235.61 341.83,-243.52C338.10,-237.59 333.62,-232.16 328.41,-227.73C318.73,-219.60 304.84,-211.73 284.29,-211.80ZM363.29,-290.22C363.24,-275.61 372.10,-264.20 385.21,-260.44C372.08,-256.77 363.12,-245.17 363.07,-230.57C363.01,-213.49 375.83,-199.83 392.90,-199.77C407.01,-199.72 418.43,-209.08 422.19,-222.18C425.36,-209.05 436.46,-199.61 451.07,-199.55C465.17,-199.50 476.59,-208.87 480.35,-221.97C483.52,-208.84 494.63,-199.39 509.23,-199.34C526.06,-199.28 539.47,-212.84 539.54,-229.92C539.60,-246.75 526.28,-260.91 509.46,-260.97C494.85,-261.02 483.68,-251.66 480.41,-238.06C477.73,-248.96 469.59,-257.15 458.96,-260.16C472.09,-263.83 481.54,-275.18 481.59,-289.78C481.65,-304.38 472.29,-316.05 459.18,-319.81C469.83,-322.49 478.03,-330.63 480.79,-341.26C483.96,-328.13 495.07,-318.69 509.67,-318.63C526.50,-318.57 539.91,-332.14 539.98,-349.21C540.04,-366.04 526.73,-380.20 509.90,-380.26C495.29,-380.32 484.12,-370.95 480.85,-357.35C477.19,-370.98 466.34,-380.42 451.73,-380.48C437.13,-380.53 425.96,-371.17 422.69,-357.57C419.03,-371.19 408.17,-380.64 393.57,-380.69C376.49,-380.75 363.57,-366.69 363.51,-349.86C363.46,-335.26 372.32,-323.84 385.43,-320.08C372.30,-316.42 363.34,-304.82 363.29,-290.22ZM426.65,-289.98C426.70,-304.09 437.39,-315.44 451.49,-315.38C465.60,-315.33 476.20,-303.91 476.15,-289.80C476.10,-275.94 465.41,-264.59 451.31,-264.65C437.20,-264.70 426.60,-276.12 426.65,-289.98ZM368.49,-290.20C368.54,-304.30 379.22,-315.65 393.33,-315.60C407.44,-315.55 418.04,-304.12 417.99,-290.01C417.94,-276.15 407.25,-264.81 393.14,-264.86C379.04,-264.91 368.44,-276.34 368.49,-290.20ZM368.27,-230.55C368.32,-244.66 379.00,-256.00 393.11,-255.95C407.22,-255.90 417.82,-244.48 417.77,-230.37C417.72,-216.51 407.03,-205.16 392.92,-205.21C378.82,-205.27 368.22,-216.69 368.27,-230.55ZM426.43,-230.34C426.48,-244.44 437.17,-255.79 451.27,-255.74C465.38,-255.68 475.98,-244.26 475.93,-230.15C475.88,-216.29 465.19,-204.95 451.09,-205.00C436.98,-205.05 426.38,-216.48 426.43,-230.34ZM484.59,-230.12C484.64,-244.23 495.33,-255.57 509.43,-255.52C523.54,-255.47 534.14,-244.05 534.09,-229.94C534.04,-216.08 523.36,-204.73 509.25,-204.79C495.14,-204.84 484.54,-216.26 484.59,-230.12ZM485.03,-349.42C485.08,-363.52 495.77,-374.87 509.88,-374.82C523.98,-374.76 534.58,-363.34 534.53,-349.23C534.48,-335.37 523.80,-324.03 509.69,-324.08C495.58,-324.13 484.98,-335.56 485.03,-349.42ZM368.71,-349.84C368.76,-363.95 379.44,-375.30 393.55,-375.25C407.66,-375.19 418.26,-363.77 418.21,-349.66C418.16,-335.80 407.47,-324.46 393.36,-324.51C379.26,-324.56 368.66,-335.98 368.71,-349.84ZM426.87,-349.63C426.92,-363.74 437.61,-375.08 451.71,-375.03C465.82,-374.98 476.42,-363.55 476.37,-349.45C476.32,-335.59 465.63,-324.24 451.53,-324.29C437.42,-324.35 426.82,-335.77 426.87,-349.63ZM422.41,-281.83C425.09,-271.18 432.74,-262.98 443.37,-260.22C432.72,-257.29 425.01,-249.15 422.25,-238.27C419.57,-249.17 411.43,-257.37 400.80,-260.38C411.45,-263.06 419.65,-271.20 422.41,-281.83ZM422.63,-341.48C425.31,-330.83 432.96,-322.63 443.59,-319.87C432.94,-316.94 425.23,-308.80 422.47,-297.92C419.79,-308.82 411.65,-317.02 401.02,-320.03C411.67,-322.71 419.87,-330.85 422.63,-341.48Z" fill="#ffffff" stroke="#000000"/>
    <path d="M-577.89,-359.77C-577.89,-359.77 -566.37,-359.68 -557.55,-359.62C-530.11,-359.42 -512.59,-343.85 -512.74,-322.78C-512.93,-297.79 -530.95,-280.04 -552.26,-280.20C-564.02,-280.28 -570.36,-283.76 -570.36,-283.76L-571.60,-282.79C-571.60,-282.79 -563.07,-276.11 -549.35,-276.01C-528.53,-275.86 -500.48,-292.07 -500.22,-326.12C-500.04,-351.60 -519.71,-375.27 -559.89,-375.56L-597.13,-375.84L-598.39,-204.34L-579.04,-204.20ZM-479.81,-203.47L-410.24,-202.95L-476.83,-309.53L-413.62,-309.07L-413.14,-374.48L-478.55,-374.96ZM-325.88,-379.47L-411.46,-202.96L-242.91,-201.72ZM-326.54,-289.07L-307.52,-244.34L-347.21,-244.63ZM-128.93,-208.72C-171.06,-209.03 -199.24,-242.31 -198.91,-287.64C-198.57,-332.47 -171.87,-365.84 -127.77,-365.51C-107.19,-365.36 -93.53,-357.66 -84.03,-350.00C-78.67,-345.55 -74.30,-340.37 -70.91,-334.71C-74.04,-342.33 -78.89,-349.47 -85.21,-355.64C-96.16,-366.26 -113.47,-376.92 -141.89,-377.13C-191.63,-377.50 -232.10,-337.62 -232.47,-287.88C-232.84,-238.15 -192.95,-197.67 -143.22,-197.31C-117.50,-197.12 -100.02,-207.77 -88.18,-218.71C-81.77,-224.78 -76.32,-232.09 -71.85,-239.90C-75.57,-234.05 -80.02,-228.69 -85.20,-224.32C-94.81,-216.31 -108.59,-208.57 -128.93,-208.72ZM-23.88,-200.10L-16.29,-200.05L-15.02,-371.54L-22.62,-371.60ZM-7.96,-199.98L-0.36,-199.93L0.90,-371.42L-6.69,-371.48ZM7.97,-199.87L15.56,-199.81L16.83,-371.31L9.23,-371.36ZM-60.93,-358.65C-61.00,-350.07 -54.19,-343.16 -45.61,-343.10C-37.04,-343.04 -29.88,-349.85 -29.82,-358.42C-29.76,-366.99 -36.81,-374.15 -45.38,-374.22C-53.96,-374.28 -60.87,-367.22 -60.93,-358.65ZM23.59,-358.03C23.53,-349.45 30.34,-342.54 38.91,-342.48C47.49,-342.41 54.64,-349.22 54.70,-357.80C54.77,-366.37 47.72,-373.53 39.14,-373.59C30.57,-373.65 23.65,-366.60 23.59,-358.03ZM159.92,-205.85L113.86,-206.19L115.02,-364.21L161.08,-363.87L161.13,-370.24L62.15,-370.97L62.10,-364.60L108.16,-364.26L107.00,-206.24L60.94,-206.58L60.89,-199.48L159.86,-198.75ZM276.29,-205.73C234.15,-206.04 205.98,-239.32 206.31,-284.65C206.64,-329.48 233.35,-362.85 277.45,-362.52C298.03,-362.37 311.69,-354.67 321.19,-347.01C326.55,-342.56 330.92,-337.38 334.31,-331.72C331.18,-339.34 326.33,-346.48 320.01,-352.65C309.06,-363.27 291.74,-373.93 263.33,-374.14C213.59,-374.51 173.12,-334.63 172.75,-284.89C172.38,-235.16 212.26,-194.68 262.00,-194.32C287.72,-194.13 305.20,-204.78 317.04,-215.72C323.45,-221.79 328.90,-229.10 333.36,-236.91C329.65,-231.06 325.20,-225.70 320.02,-221.33C310.40,-213.32 296.63,-205.58 276.29,-205.73ZM354.78,-283.06C354.67,-268.61 363.41,-257.27 376.36,-253.50C363.35,-249.92 354.45,-238.47 354.34,-224.02C354.22,-207.11 366.86,-193.54 383.76,-193.42C397.72,-193.32 409.06,-202.54 412.83,-215.50C415.92,-202.49 426.88,-193.10 441.33,-192.99C455.30,-192.89 466.64,-202.12 470.41,-215.07C473.50,-202.07 484.45,-192.68 498.91,-192.57C515.57,-192.45 528.90,-205.82 529.02,-222.73C529.14,-239.39 516.02,-253.45 499.36,-253.57C484.90,-253.68 473.81,-244.45 470.52,-231.00C467.91,-241.80 459.88,-249.94 449.37,-252.96C462.38,-256.54 471.78,-267.74 471.88,-282.20C471.99,-296.65 462.76,-308.23 449.81,-312.00C460.36,-314.62 468.51,-322.65 471.28,-333.16C474.37,-320.15 485.32,-310.76 499.78,-310.66C516.44,-310.53 529.77,-323.91 529.89,-340.81C530.01,-357.47 516.89,-371.54 500.23,-371.66C485.77,-371.77 474.68,-362.54 471.40,-349.09C467.82,-362.59 457.11,-371.98 442.66,-372.08C428.20,-372.19 417.11,-362.96 413.82,-349.51C410.25,-363.01 399.54,-372.40 385.08,-372.51C368.18,-372.63 355.33,-358.76 355.21,-342.10C355.10,-327.65 363.84,-316.31 376.80,-312.54C363.79,-308.96 354.88,-297.51 354.78,-283.06ZM417.49,-282.60C417.60,-296.56 428.22,-307.75 442.18,-307.65C456.14,-307.55 466.60,-296.20 466.49,-282.24C466.39,-268.52 455.77,-257.32 441.81,-257.43C427.84,-257.53 417.39,-268.88 417.49,-282.60ZM359.92,-283.02C360.02,-296.99 370.64,-308.18 384.61,-308.08C398.57,-307.97 409.02,-296.62 408.92,-282.66C408.82,-268.94 398.20,-257.75 384.24,-257.85C370.27,-257.95 359.82,-269.30 359.92,-283.02ZM359.48,-223.98C359.59,-237.94 370.21,-249.14 384.17,-249.03C398.14,-248.93 408.59,-237.58 408.48,-223.62C408.38,-209.90 397.76,-198.71 383.80,-198.81C369.84,-198.91 359.38,-210.26 359.48,-223.98ZM417.06,-223.55C417.16,-237.52 427.78,-248.71 441.74,-248.61C455.71,-248.50 466.16,-237.16 466.06,-223.19C465.96,-209.47 455.34,-198.28 441.37,-198.38C427.41,-198.49 416.96,-209.83 417.06,-223.55ZM474.63,-223.13C474.73,-237.09 485.35,-248.29 499.32,-248.18C513.28,-248.08 523.73,-236.73 523.63,-222.77C523.53,-209.05 512.91,-197.86 498.95,-197.96C484.98,-198.06 474.53,-209.41 474.63,-223.13ZM475.50,-341.22C475.61,-355.18 486.22,-366.37 500.19,-366.27C514.15,-366.17 524.60,-354.82 524.50,-340.85C524.40,-327.13 513.78,-315.94 499.82,-316.05C485.85,-316.15 475.40,-327.50 475.50,-341.22ZM360.36,-342.07C360.46,-356.03 371.08,-367.22 385.04,-367.12C399.01,-367.02 409.46,-355.67 409.36,-341.70C409.25,-327.98 398.64,-316.79 384.67,-316.90C370.71,-317.00 360.26,-328.35 360.36,-342.07ZM417.93,-341.64C418.03,-355.61 428.65,-366.80 442.62,-366.69C456.58,-366.59 467.03,-355.24 466.93,-341.28C466.83,-327.56 456.21,-316.37 442.24,-316.47C428.28,-316.57 417.83,-327.92 417.93,-341.64ZM413.27,-274.54C415.89,-263.99 423.42,-255.85 433.94,-253.07C423.38,-250.21 415.73,-242.18 412.95,-231.42C410.34,-242.22 402.31,-250.37 391.80,-253.39C402.35,-256.00 410.50,-264.03 413.27,-274.54ZM413.71,-333.59C416.32,-323.03 423.86,-314.89 434.37,-312.12C423.82,-309.26 416.16,-301.23 413.39,-290.47C410.77,-301.27 402.75,-309.41 392.23,-312.43C402.79,-315.05 410.93,-323.07 413.71,-333.59Z" fill="#ffffff" stroke="#000000"/>
    <path d="M-576.53,-355.36C-576.53,-355.36 -565.13,-355.23 -556.40,-355.14C-529.24,-354.84 -511.95,-339.37 -512.18,-318.51C-512.46,-293.78 -530.35,-276.27 -551.45,-276.51C-563.09,-276.64 -569.36,-280.10 -569.36,-280.10L-570.58,-279.14C-570.58,-279.14 -562.16,-272.50 -548.59,-272.35C-527.97,-272.13 -500.15,-288.07 -499.78,-321.77C-499.50,-346.99 -518.88,-370.49 -558.65,-370.93L-595.51,-371.33L-597.39,-201.59L-578.23,-201.38ZM-480.02,-200.30L-411.16,-199.53L-476.68,-305.27L-414.12,-304.57L-413.40,-369.32L-478.14,-370.03ZM-327.01,-373.94L-412.37,-199.55L-245.54,-197.70ZM-328.01,-284.46L-309.34,-240.12L-348.62,-240.55ZM-132.70,-204.21C-174.41,-204.67 -202.17,-237.72 -201.68,-282.58C-201.18,-326.95 -174.63,-359.88 -130.98,-359.40C-110.61,-359.18 -97.12,-351.51 -87.74,-343.89C-82.46,-339.46 -78.15,-334.32 -74.82,-328.71C-77.88,-336.26 -82.66,-343.35 -88.89,-349.48C-99.69,-360.03 -116.79,-370.64 -144.92,-370.95C-194.14,-371.50 -234.35,-332.17 -234.90,-282.95C-235.44,-233.72 -196.11,-193.51 -146.89,-192.97C-121.43,-192.69 -104.09,-203.17 -92.33,-213.95C-85.96,-219.94 -80.55,-227.16 -76.10,-234.87C-79.80,-229.09 -84.22,-223.80 -89.36,-219.50C-98.91,-211.60 -112.57,-203.99 -132.70,-204.21ZM-28.76,-195.30L-21.24,-195.22L-19.36,-364.96L-26.88,-365.04ZM-13.00,-195.13L-5.48,-195.04L-3.60,-364.78L-11.12,-364.87ZM2.76,-194.95L10.28,-194.87L12.16,-364.61L4.64,-364.69ZM-64.85,-352.36C-64.95,-343.88 -58.23,-337.01 -49.75,-336.92C-41.26,-336.82 -34.15,-343.54 -34.06,-352.02C-33.96,-360.51 -40.92,-367.62 -49.40,-367.71C-57.89,-367.81 -64.76,-360.85 -64.85,-352.36ZM18.80,-351.44C18.71,-342.95 25.43,-336.09 33.91,-335.99C42.40,-335.90 49.51,-342.61 49.60,-351.10C49.69,-359.58 42.74,-366.69 34.25,-366.79C25.77,-366.88 18.90,-359.93 18.80,-351.44ZM153.18,-200.32L107.60,-200.82L109.33,-357.23L154.91,-356.72L154.98,-363.03L57.02,-364.11L56.95,-357.81L102.54,-357.30L100.81,-200.90L55.22,-201.40L55.14,-194.37L153.10,-193.29ZM268.37,-199.77C226.66,-200.23 198.90,-233.28 199.39,-278.14C199.89,-322.51 226.44,-355.45 270.09,-354.96C290.46,-354.74 303.95,-347.07 313.33,-339.45C318.61,-335.02 322.92,-329.88 326.26,-324.27C323.19,-331.82 318.41,-338.91 312.18,-345.04C301.38,-355.59 284.28,-366.20 256.15,-366.51C206.93,-367.06 166.72,-327.73 166.17,-278.51C165.63,-229.28 204.96,-189.08 254.18,-188.53C279.64,-188.25 296.98,-198.73 308.74,-209.51C315.11,-215.50 320.52,-222.72 324.97,-230.43C321.27,-224.65 316.85,-219.36 311.71,-215.06C302.16,-207.16 288.50,-199.55 268.37,-199.77ZM346.34,-276.03C346.18,-261.72 354.78,-250.47 367.59,-246.69C354.70,-243.20 345.85,-231.90 345.69,-217.59C345.50,-200.86 357.96,-187.38 374.70,-187.20C388.52,-187.04 399.77,-196.13 403.55,-208.95C406.56,-196.06 417.37,-186.72 431.68,-186.57C445.50,-186.41 456.76,-195.50 460.54,-208.32C463.55,-195.43 474.36,-186.09 488.66,-185.94C505.15,-185.75 518.39,-198.94 518.58,-215.68C518.76,-232.16 505.82,-246.13 489.33,-246.31C475.03,-246.47 464.01,-237.38 460.71,-224.08C458.16,-234.78 450.25,-242.87 439.85,-245.89C452.75,-249.39 462.08,-260.44 462.24,-274.75C462.40,-289.05 453.31,-300.55 440.50,-304.33C450.96,-306.88 459.05,-314.80 461.83,-325.19C464.84,-312.31 475.65,-302.97 489.96,-302.81C506.45,-302.63 519.69,-315.82 519.87,-332.55C520.06,-349.04 507.12,-363.01 490.63,-363.19C476.32,-363.35 465.31,-354.26 462.01,-340.95C458.52,-354.33 447.95,-363.66 433.64,-363.82C419.34,-363.98 408.32,-354.89 405.02,-341.59C401.53,-354.96 390.96,-364.30 376.66,-364.45C359.93,-364.64 347.16,-350.96 346.98,-334.47C346.82,-320.16 355.43,-308.91 368.24,-305.13C355.35,-301.64 346.49,-290.34 346.34,-276.03ZM408.41,-275.34C408.56,-289.16 419.11,-300.20 432.94,-300.05C446.76,-299.90 457.06,-288.63 456.91,-274.80C456.76,-261.23 446.21,-250.19 432.39,-250.34C418.56,-250.49 408.26,-261.76 408.41,-275.34ZM351.43,-275.97C351.58,-289.79 362.13,-300.83 375.95,-300.68C389.77,-300.53 400.08,-289.26 399.92,-275.44C399.77,-261.86 389.22,-250.82 375.40,-250.97C361.58,-251.12 351.28,-262.39 351.43,-275.97ZM350.78,-217.53C350.93,-231.35 361.48,-242.39 375.31,-242.24C389.13,-242.09 399.43,-230.82 399.28,-217.00C399.13,-203.42 388.58,-192.38 374.76,-192.53C360.93,-192.68 350.63,-203.95 350.78,-217.53ZM407.76,-216.90C407.92,-230.72 418.47,-241.76 432.29,-241.61C446.11,-241.46 456.41,-230.19 456.26,-216.37C456.11,-202.79 445.56,-191.75 431.74,-191.90C417.92,-192.05 407.61,-203.32 407.76,-216.90ZM464.75,-216.27C464.90,-230.09 475.45,-241.13 489.27,-240.98C503.10,-240.83 513.40,-229.56 513.25,-215.74C513.10,-202.16 502.54,-191.12 488.72,-191.27C474.90,-191.42 464.60,-202.69 464.75,-216.27ZM466.04,-333.15C466.20,-346.97 476.75,-358.01 490.57,-357.86C504.39,-357.70 514.69,-346.43 514.54,-332.61C514.39,-319.03 503.84,-307.99 490.02,-308.15C476.20,-308.30 465.89,-319.57 466.04,-333.15ZM352.07,-334.41C352.23,-348.23 362.78,-359.27 376.60,-359.12C390.42,-358.97 400.72,-347.70 400.57,-333.87C400.42,-320.30 389.87,-309.26 376.05,-309.41C362.23,-309.56 351.92,-320.83 352.07,-334.41ZM409.06,-333.78C409.21,-347.60 419.76,-358.64 433.58,-358.49C447.40,-358.33 457.71,-347.07 457.56,-333.24C457.40,-319.66 446.85,-308.63 433.03,-308.78C419.21,-308.93 408.91,-320.20 409.06,-333.78ZM404.20,-267.39C406.75,-256.93 414.18,-248.84 424.58,-246.06C414.12,-243.27 406.51,-235.35 403.73,-224.71C401.18,-235.41 393.27,-243.50 382.87,-246.52C393.33,-249.07 401.42,-256.99 404.20,-267.39ZM404.85,-325.82C407.40,-315.37 414.83,-307.28 425.23,-304.50C414.77,-301.71 407.16,-293.79 404.37,-283.15C401.83,-293.85 393.91,-301.94 383.52,-304.96C393.97,-307.51 402.06,-315.43 404.85,-325.82Z" fill="#ffffff" stroke="#000000"/>
    <path d="M-575.08,-351.00C-575.08,-351.00 -563.80,-350.84 -555.16,-350.71C-528.29,-350.31 -511.23,-334.94 -511.54,-314.30C-511.90,-289.83 -529.68,-272.57 -550.55,-272.87C-562.07,-273.04 -568.26,-276.50 -568.26,-276.50L-569.48,-275.55C-569.48,-275.55 -561.17,-268.95 -547.73,-268.75C-527.34,-268.45 -499.74,-284.13 -499.25,-317.48C-498.88,-342.44 -517.98,-365.76 -557.33,-366.34L-593.81,-366.88L-596.29,-198.90L-577.33,-198.62ZM-480.14,-197.19L-411.99,-196.18L-476.45,-301.06L-414.54,-300.15L-413.59,-364.22L-477.66,-365.17ZM-328.08,-368.48L-413.19,-196.20L-248.09,-193.76ZM-329.38,-279.93L-311.07,-235.98L-349.95,-236.55ZM-136.39,-199.79C-177.66,-200.40 -205.02,-233.21 -204.37,-277.61C-203.72,-321.52 -177.31,-354.02 -134.12,-353.38C-113.96,-353.08 -100.63,-345.44 -91.38,-337.87C-86.17,-333.47 -81.92,-328.36 -78.64,-322.80C-81.65,-330.28 -86.35,-337.31 -92.50,-343.40C-103.15,-353.88 -120.03,-364.45 -147.87,-364.86C-196.59,-365.58 -236.52,-326.81 -237.24,-278.09C-237.96,-229.38 -199.19,-189.44 -150.47,-188.72C-125.27,-188.35 -108.08,-198.66 -96.40,-209.29C-90.07,-215.19 -84.69,-222.31 -80.26,-229.93C-83.94,-224.22 -88.34,-219.01 -93.44,-214.76C-102.92,-206.98 -116.47,-199.50 -136.39,-199.79ZM-33.55,-190.60L-26.11,-190.49L-23.63,-358.47L-31.07,-358.58ZM-17.95,-190.37L-10.51,-190.26L-8.03,-358.24L-15.47,-358.35ZM-2.35,-190.14L5.08,-190.03L7.56,-358.01L0.12,-358.12ZM-68.70,-346.17C-68.82,-337.77 -62.20,-330.95 -53.80,-330.83C-45.40,-330.71 -38.35,-337.32 -38.22,-345.72C-38.10,-354.12 -44.95,-361.18 -53.35,-361.31C-61.75,-361.43 -68.57,-354.57 -68.70,-346.17ZM14.09,-344.95C13.97,-336.55 20.59,-329.73 28.99,-329.61C37.39,-329.48 44.44,-336.10 44.57,-344.50C44.69,-352.90 37.84,-359.96 29.44,-360.08C21.04,-360.21 14.22,-353.35 14.09,-344.95ZM146.53,-194.90L101.42,-195.56L103.70,-350.35L148.82,-349.68L148.91,-355.92L51.96,-357.35L51.87,-351.11L96.98,-350.45L94.70,-195.66L49.58,-196.33L49.48,-189.37L146.43,-187.94ZM260.53,-193.94C219.25,-194.55 191.90,-227.35 192.55,-271.75C193.20,-315.66 219.60,-348.16 262.80,-347.52C282.95,-347.22 296.28,-339.58 305.53,-332.01C310.75,-327.61 314.99,-322.51 318.27,-316.94C315.26,-324.42 310.57,-331.45 304.41,-337.54C293.77,-348.02 276.88,-358.59 249.05,-359.00C200.33,-359.72 160.39,-320.95 159.67,-272.23C158.96,-223.52 197.73,-183.58 246.45,-182.86C271.64,-182.49 288.84,-192.80 300.51,-203.43C306.84,-209.33 312.23,-216.46 316.66,-224.07C312.98,-218.37 308.58,-213.15 303.48,-208.90C294.00,-201.12 280.45,-193.64 260.53,-193.94ZM337.97,-269.12C337.76,-254.96 346.24,-243.80 358.90,-240.01C346.13,-236.60 337.32,-225.45 337.11,-211.29C336.87,-194.73 349.15,-181.35 365.71,-181.10C379.39,-180.90 390.56,-189.86 394.35,-202.52C397.28,-189.76 407.95,-180.48 422.11,-180.27C435.78,-180.07 446.96,-189.02 450.75,-201.69C453.68,-188.93 464.34,-179.65 478.50,-179.44C494.82,-179.20 507.97,-192.20 508.22,-208.76C508.46,-225.08 495.70,-238.95 479.38,-239.19C465.22,-239.40 454.29,-230.44 450.98,-217.29C448.49,-227.89 440.69,-235.92 430.41,-238.95C443.18,-242.37 452.47,-253.27 452.68,-267.43C452.88,-281.59 443.93,-293.00 431.27,-296.79C441.62,-299.28 449.66,-307.08 452.45,-317.36C455.38,-304.59 466.05,-295.31 480.21,-295.11C496.53,-294.86 509.68,-307.87 509.92,-324.43C510.16,-340.75 497.41,-354.62 481.09,-354.86C466.93,-355.07 456.00,-346.11 452.68,-332.96C449.28,-346.21 438.85,-355.48 424.70,-355.69C410.54,-355.90 399.60,-346.94 396.29,-333.79C392.88,-347.04 382.46,-356.31 368.30,-356.52C351.74,-356.77 339.06,-343.27 338.82,-326.96C338.61,-312.80 347.09,-301.63 359.75,-297.84C346.98,-294.43 338.18,-283.28 337.97,-269.12ZM399.40,-268.22C399.60,-281.89 410.09,-292.78 423.76,-292.58C437.44,-292.38 447.60,-281.19 447.40,-267.51C447.20,-254.07 436.72,-243.18 423.04,-243.38C409.36,-243.59 399.20,-254.78 399.40,-268.22ZM343.01,-269.05C343.21,-282.73 353.69,-293.61 367.37,-293.41C381.05,-293.21 391.20,-282.02 391.00,-268.34C390.80,-254.90 380.32,-244.01 366.64,-244.22C352.97,-244.42 342.81,-255.61 343.01,-269.05ZM342.15,-211.21C342.36,-224.89 352.84,-235.78 366.52,-235.58C380.19,-235.37 390.35,-224.18 390.15,-210.51C389.95,-197.07 379.47,-186.18 365.79,-186.38C352.11,-186.58 341.96,-197.78 342.15,-211.21ZM398.55,-210.38C398.75,-224.06 409.23,-234.95 422.91,-234.74C436.59,-234.54 446.74,-223.35 446.54,-209.67C446.34,-196.23 435.86,-185.35 422.18,-185.55C408.51,-185.75 398.35,-196.94 398.55,-210.38ZM454.94,-209.55C455.14,-223.23 465.63,-234.11 479.30,-233.91C492.98,-233.71 503.14,-222.52 502.94,-208.84C502.74,-195.40 492.26,-184.52 478.58,-184.72C464.90,-184.92 454.74,-196.11 454.94,-209.55ZM456.65,-325.22C456.85,-338.90 467.33,-349.78 481.01,-349.58C494.69,-349.38 504.85,-338.19 504.64,-324.51C504.45,-311.07 493.96,-300.18 480.29,-300.38C466.61,-300.59 456.45,-311.78 456.65,-325.22ZM343.86,-326.88C344.06,-340.56 354.55,-351.45 368.22,-351.24C381.90,-351.04 392.06,-339.85 391.86,-326.17C391.66,-312.73 381.18,-301.85 367.50,-302.05C353.82,-302.25 343.66,-313.44 343.86,-326.88ZM400.26,-326.05C400.46,-339.73 410.94,-350.61 424.62,-350.41C438.30,-350.21 448.45,-339.02 448.25,-325.34C448.05,-311.90 437.57,-301.02 423.89,-301.22C410.21,-301.42 400.06,-312.61 400.26,-326.05ZM395.21,-260.36C397.69,-250.00 405.01,-241.97 415.29,-239.18C404.93,-236.45 397.38,-228.64 394.58,-218.12C392.10,-228.72 384.30,-236.75 374.02,-239.79C384.38,-242.27 392.41,-250.08 395.21,-260.36ZM396.06,-318.19C398.55,-307.83 405.87,-299.80 416.15,-297.01C405.79,-294.28 398.23,-286.47 395.44,-275.95C392.95,-286.55 385.15,-294.59 374.87,-297.62C385.23,-300.11 393.27,-307.91 396.06,-318.19Z" fill="#ffffff" stroke="#000000"/>
    <path d="M-573.56,-346.70C-573.56,-346.70 -562.40,-346.50 -553.85,-346.34C-527.25,-345.85 -510.43,-330.57 -510.81,-310.15C-511.26,-285.93 -528.91,-268.91 -549.57,-269.30C-560.97,-269.51 -567.08,-272.94 -567.08,-272.94L-568.29,-272.02C-568.29,-272.02 -560.09,-265.45 -546.79,-265.21C-526.61,-264.83 -499.25,-280.24 -498.64,-313.25C-498.18,-337.95 -517.00,-361.10 -555.94,-361.82L-592.03,-362.48L-595.10,-196.26L-576.34,-195.91ZM-480.17,-194.14L-412.73,-192.90L-476.14,-296.92L-414.87,-295.79L-413.70,-359.19L-477.10,-360.36ZM-329.06,-363.09L-413.92,-192.92L-250.55,-189.90ZM-330.68,-275.47L-312.72,-231.91L-351.19,-232.62ZM-139.99,-195.47C-180.83,-196.22 -207.78,-228.78 -206.97,-272.71C-206.17,-316.17 -179.93,-348.23 -137.18,-347.44C-117.24,-347.07 -104.07,-339.47 -94.95,-331.93C-89.80,-327.56 -85.62,-322.50 -82.40,-316.97C-85.35,-324.39 -89.97,-331.37 -96.04,-337.42C-106.53,-347.82 -123.20,-358.35 -150.75,-358.85C-198.95,-359.74 -238.62,-321.52 -239.51,-273.31C-240.39,-225.11 -202.17,-185.45 -153.97,-184.56C-129.03,-184.10 -111.98,-194.24 -100.38,-204.71C-94.10,-210.53 -88.75,-217.56 -84.33,-225.08C-88.00,-219.45 -92.37,-214.30 -97.43,-210.12C-106.84,-202.46 -120.28,-195.10 -139.99,-195.47ZM-38.26,-185.99L-30.90,-185.85L-27.83,-352.07L-35.19,-352.21ZM-22.82,-185.70L-15.46,-185.57L-12.39,-351.79L-19.76,-351.92ZM-7.39,-185.42L-0.03,-185.28L3.04,-351.50L-4.32,-351.64ZM-72.47,-340.07C-72.62,-331.76 -66.10,-324.99 -57.79,-324.83C-49.48,-324.68 -42.47,-331.20 -42.31,-339.51C-42.16,-347.82 -48.92,-354.84 -57.23,-354.99C-65.54,-355.14 -72.32,-348.38 -72.47,-340.07ZM9.45,-338.56C9.30,-330.25 15.83,-323.48 24.14,-323.32C32.45,-323.17 39.46,-329.69 39.61,-338.00C39.76,-346.31 33.00,-353.33 24.69,-353.48C16.38,-353.63 9.61,-346.87 9.45,-338.56ZM139.96,-189.59L95.32,-190.41L98.15,-343.57L142.79,-342.75L142.90,-348.92L46.97,-350.69L46.86,-344.52L91.50,-343.70L88.67,-190.53L44.03,-191.36L43.90,-184.47L139.84,-182.70ZM252.77,-188.22C211.93,-188.97 184.97,-221.54 185.78,-265.47C186.59,-308.92 212.83,-340.98 255.58,-340.19C275.52,-339.83 288.68,-332.22 297.81,-324.69C302.95,-320.32 307.14,-315.25 310.36,-309.73C307.41,-317.15 302.79,-324.12 296.72,-330.17C286.22,-340.58 269.55,-351.10 242.01,-351.61C193.80,-352.50 154.14,-314.27 153.25,-266.07C152.36,-217.86 190.59,-178.20 238.79,-177.31C263.73,-176.85 280.78,-186.99 292.37,-197.47C298.66,-203.29 304.01,-210.32 308.43,-217.84C304.76,-212.20 300.39,-207.06 295.32,-202.87C285.92,-195.21 272.48,-187.86 252.77,-188.22ZM329.68,-262.34C329.42,-248.33 337.77,-237.25 350.28,-233.45C337.63,-230.12 328.88,-219.12 328.62,-205.11C328.32,-188.73 340.43,-175.44 356.81,-175.14C370.35,-174.89 381.43,-183.71 385.23,-196.23C388.08,-183.59 398.60,-174.36 412.61,-174.11C426.15,-173.86 437.24,-182.68 441.03,-195.20C443.89,-182.56 454.41,-173.33 468.42,-173.08C484.56,-172.78 497.63,-185.60 497.93,-201.99C498.23,-218.13 485.65,-231.91 469.51,-232.20C455.50,-232.46 444.64,-223.64 441.32,-210.63C438.90,-221.13 431.21,-229.11 421.05,-232.15C433.70,-235.48 442.92,-246.23 443.18,-260.24C443.44,-274.25 434.62,-285.58 422.10,-289.38C432.36,-291.80 440.34,-299.49 443.14,-309.65C446.00,-297.01 456.52,-287.79 470.53,-287.53C486.67,-287.23 499.74,-300.06 500.04,-316.44C500.34,-332.59 487.77,-346.36 471.62,-346.66C457.61,-346.92 446.76,-338.09 443.43,-325.09C440.11,-338.21 429.83,-347.43 415.82,-347.69C401.81,-347.95 390.95,-339.12 387.63,-326.12C384.30,-339.24 374.02,-348.46 360.01,-348.72C343.63,-349.02 331.03,-335.71 330.73,-319.57C330.47,-305.56 338.82,-294.48 351.34,-290.68C338.69,-287.35 329.93,-276.35 329.68,-262.34ZM390.47,-261.22C390.72,-274.75 401.13,-285.49 414.66,-285.24C428.20,-284.99 438.21,-273.88 437.96,-260.34C437.71,-247.04 427.30,-236.31 413.77,-236.56C400.23,-236.81 390.22,-247.92 390.47,-261.22ZM334.66,-262.25C334.91,-275.78 345.33,-286.52 358.86,-286.27C372.40,-286.02 382.40,-274.91 382.16,-261.37C381.91,-248.07 371.50,-237.34 357.96,-237.59C344.43,-237.84 334.42,-248.95 334.66,-262.25ZM333.61,-205.02C333.86,-218.55 344.27,-229.29 357.80,-229.04C371.34,-228.79 381.35,-217.68 381.10,-204.14C380.85,-190.84 370.44,-180.11 356.91,-180.36C343.37,-180.61 333.36,-191.72 333.61,-205.02ZM389.41,-203.99C389.66,-217.52 400.07,-228.26 413.61,-228.01C427.14,-227.76 437.15,-216.65 436.90,-203.11C436.66,-189.82 426.24,-179.08 412.71,-179.33C399.17,-179.58 389.17,-190.69 389.41,-203.99ZM445.21,-202.96C445.46,-216.49 455.88,-227.23 469.41,-226.98C482.95,-226.73 492.95,-215.62 492.71,-202.08C492.46,-188.79 482.05,-178.05 468.51,-178.30C454.98,-178.55 444.97,-189.66 445.21,-202.96ZM447.32,-317.42C447.57,-330.95 457.99,-341.68 471.52,-341.44C485.06,-341.19 495.07,-330.07 494.82,-316.54C494.57,-303.24 484.16,-292.51 470.62,-292.76C457.09,-293.01 447.08,-304.12 447.32,-317.42ZM335.72,-319.47C335.97,-333.01 346.38,-343.74 359.92,-343.49C373.45,-343.24 383.46,-332.13 383.21,-318.60C382.97,-305.30 372.55,-294.57 359.02,-294.82C345.48,-295.06 335.47,-306.18 335.72,-319.47ZM391.52,-318.44C391.77,-331.98 402.18,-342.71 415.72,-342.46C429.25,-342.22 439.26,-331.10 439.01,-317.57C438.77,-304.27 428.36,-293.54 414.82,-293.79C401.29,-294.04 391.28,-305.15 391.52,-318.44ZM386.28,-253.46C388.71,-243.20 395.93,-235.22 406.09,-232.42C395.82,-229.76 388.32,-222.06 385.51,-211.66C383.09,-222.16 375.40,-230.14 365.24,-233.18C375.50,-235.60 383.48,-243.29 386.28,-253.46ZM387.34,-310.68C389.76,-300.42 396.98,-292.45 407.14,-289.65C396.88,-286.99 389.37,-279.29 386.57,-268.89C384.15,-279.39 376.46,-287.37 366.30,-290.41C376.56,-292.83 384.54,-300.52 387.34,-310.68Z" fill="#ffffff" stroke="#000000"/>
    <path d="M-571.95,-342.45C-571.95,-342.45 -560.91,-342.20 -552.45,-342.02C-526.14,-341.43 -509.55,-326.26 -510.00,-306.05C-510.53,-282.09 -528.06,-265.32 -548.50,-265.77C-559.78,-266.02 -565.81,-269.45 -565.81,-269.45L-567.01,-268.53C-567.01,-268.53 -558.92,-262.01 -545.77,-261.71C-525.80,-261.27 -498.67,-276.42 -497.94,-309.08C-497.40,-333.51 -515.93,-356.49 -554.46,-357.34L-590.17,-358.13L-593.82,-193.67L-575.26,-193.26ZM-480.10,-191.15L-413.38,-189.68L-475.74,-292.84L-415.12,-291.50L-413.73,-354.22L-476.46,-355.61ZM-329.97,-357.78L-414.56,-189.70L-252.91,-186.12ZM-331.89,-271.08L-314.28,-227.91L-352.34,-228.76ZM-143.50,-191.22C-183.91,-192.12 -210.46,-224.44 -209.50,-267.90C-208.55,-310.90 -182.46,-342.52 -140.17,-341.59C-120.44,-341.15 -107.44,-333.57 -98.44,-326.09C-93.36,-321.75 -89.24,-316.72 -86.07,-311.24C-88.97,-318.59 -93.52,-325.51 -99.49,-331.52C-109.84,-341.86 -126.30,-352.33 -153.55,-352.93C-201.25,-353.99 -240.63,-316.31 -241.69,-268.62C-242.74,-220.92 -205.06,-181.54 -157.37,-180.48C-132.70,-179.94 -115.79,-189.90 -104.28,-200.23C-98.04,-205.97 -92.72,-212.90 -88.32,-220.32C-91.97,-214.76 -96.31,-209.69 -101.34,-205.57C-110.68,-198.02 -124.00,-190.79 -143.50,-191.22ZM-42.88,-181.47L-35.59,-181.31L-31.95,-345.77L-39.23,-345.93ZM-27.60,-181.14L-20.32,-180.97L-16.68,-345.43L-23.96,-345.60ZM-12.33,-180.80L-5.05,-180.64L-1.41,-345.10L-8.69,-345.26ZM-76.17,-334.06C-76.35,-325.83 -69.92,-319.11 -61.69,-318.93C-53.47,-318.75 -46.51,-325.17 -46.33,-333.40C-46.15,-341.62 -52.81,-348.58 -61.03,-348.77C-69.26,-348.95 -75.98,-342.28 -76.17,-334.06ZM4.89,-332.26C4.71,-324.04 11.14,-317.32 19.36,-317.13C27.58,-316.95 34.54,-323.38 34.73,-331.60C34.91,-339.83 28.25,-346.79 20.02,-346.97C11.80,-347.15 5.07,-340.49 4.89,-332.26ZM133.48,-184.39L89.31,-185.36L92.67,-336.90L136.84,-335.92L136.97,-342.03L42.06,-344.13L41.92,-338.02L86.09,-337.05L82.73,-185.51L38.56,-186.49L38.41,-179.67L133.33,-177.57ZM245.09,-182.62C204.68,-183.51 178.13,-215.83 179.10,-259.30C180.05,-302.29 206.13,-333.92 248.42,-332.98C268.16,-332.55 281.15,-324.97 290.16,-317.49C295.23,-313.14 299.35,-308.11 302.52,-302.64C299.63,-309.99 295.08,-316.91 289.10,-322.91C278.75,-333.25 262.30,-343.72 235.04,-344.33C187.35,-345.38 147.96,-307.71 146.91,-260.01C145.85,-212.32 183.53,-172.93 231.22,-171.88C255.89,-171.33 272.80,-181.30 284.31,-191.62C290.55,-197.36 295.88,-204.30 300.27,-211.72C296.62,-206.16 292.28,-201.08 287.25,-196.96C277.92,-189.41 264.60,-182.19 245.09,-182.62ZM321.46,-255.68C321.15,-241.82 329.37,-230.82 341.75,-227.02C329.22,-223.77 320.51,-212.92 320.21,-199.06C319.85,-182.84 331.78,-169.65 347.99,-169.29C361.38,-169.00 372.39,-177.69 376.19,-190.06C378.97,-177.54 389.34,-168.38 403.20,-168.07C416.59,-167.77 427.60,-176.46 431.40,-188.84C434.18,-176.32 444.55,-167.16 458.41,-166.85C474.39,-166.50 487.36,-179.14 487.72,-195.35C488.07,-211.32 475.68,-225.00 459.71,-225.35C445.85,-225.66 435.08,-216.96 431.74,-204.11C429.38,-214.50 421.80,-222.43 411.76,-225.47C424.29,-228.72 433.46,-239.33 433.76,-253.19C434.07,-267.05 425.39,-278.29 413.01,-282.09C423.17,-284.45 431.10,-292.03 433.91,-302.08C436.68,-289.56 447.06,-280.40 460.92,-280.09C476.90,-279.74 489.87,-292.38 490.23,-308.59C490.58,-324.57 478.19,-338.24 462.22,-338.59C448.35,-338.90 437.58,-330.20 434.24,-317.35C431.01,-330.35 420.87,-339.51 407.00,-339.81C393.14,-340.12 382.37,-331.43 379.03,-318.57C375.79,-331.57 365.65,-340.73 351.79,-341.04C335.58,-341.40 323.07,-328.27 322.71,-312.30C322.41,-298.44 330.63,-287.44 343.00,-283.64C330.47,-280.39 321.77,-269.54 321.46,-255.68ZM381.61,-254.35C381.90,-267.74 392.24,-278.32 405.64,-278.02C419.03,-277.73 428.89,-266.70 428.59,-253.31C428.30,-240.15 417.96,-229.56 404.57,-229.86C391.18,-230.16 381.31,-241.19 381.61,-254.35ZM326.39,-255.57C326.69,-268.96 337.03,-279.54 350.42,-279.25C363.82,-278.95 373.68,-267.92 373.38,-254.53C373.09,-241.37 362.75,-230.79 349.36,-231.08C335.97,-231.38 326.10,-242.41 326.39,-255.57ZM325.14,-198.95C325.44,-212.34 335.78,-222.92 349.17,-222.63C362.56,-222.33 372.43,-211.30 372.13,-197.91C371.84,-184.75 361.50,-174.17 348.10,-174.46C334.71,-174.76 324.85,-185.79 325.14,-198.95ZM380.35,-197.72C380.65,-211.12 390.99,-221.70 404.38,-221.40C417.77,-221.11 427.64,-210.08 427.34,-196.68C427.05,-183.53 416.71,-172.94 403.32,-173.24C389.92,-173.54 380.06,-184.57 380.35,-197.72ZM435.56,-196.50C435.86,-209.89 446.20,-220.48 459.59,-220.18C472.99,-219.88 482.85,-208.85 482.55,-195.46C482.26,-182.30 471.92,-171.72 458.53,-172.02C445.14,-172.31 435.27,-183.35 435.56,-196.50ZM438.07,-309.74C438.37,-323.14 448.71,-333.72 462.10,-333.42C475.49,-333.13 485.36,-322.10 485.06,-308.70C484.77,-295.55 474.43,-284.96 461.03,-285.26C447.64,-285.56 437.78,-296.59 438.07,-309.74ZM327.65,-312.19C327.94,-325.58 338.29,-336.16 351.68,-335.87C365.07,-335.57 374.93,-324.54 374.64,-311.15C374.35,-297.99 364.00,-287.41 350.61,-287.70C337.22,-288.00 327.36,-299.03 327.65,-312.19ZM382.86,-310.97C383.16,-324.36 393.50,-334.94 406.89,-334.65C420.28,-334.35 430.14,-323.32 429.85,-309.93C429.56,-296.77 419.21,-286.19 405.82,-286.48C392.43,-286.78 382.57,-297.81 382.86,-310.97ZM377.44,-246.68C379.80,-236.52 386.91,-228.61 396.96,-225.80C386.79,-223.20 379.34,-215.61 376.52,-205.33C374.17,-215.73 366.59,-223.65 356.55,-226.69C366.71,-229.05 374.63,-236.64 377.44,-246.68ZM378.69,-303.30C381.05,-293.14 388.17,-285.23 398.21,-282.42C388.05,-279.82 380.59,-272.23 377.78,-261.95C375.42,-272.35 367.84,-280.27 357.80,-283.31C367.96,-285.68 375.89,-293.26 378.69,-303.30Z" fill="#ffffff" stroke="#000000"/>
    <path d="M-570.26,-338.25C-570.26,-338.25 -559.34,-337.96 -550.97,-337.75C-524.94,-337.08 -508.59,-322.00 -509.10,-302.01C-509.71,-278.31 -527.12,-261.78 -547.34,-262.30C-558.50,-262.59 -564.46,-266.00 -564.46,-266.00L-565.64,-265.10C-565.64,-265.10 -557.67,-258.61 -544.65,-258.28C-524.90,-257.77 -498.00,-272.65 -497.16,-304.96C-496.54,-329.13 -514.79,-351.93 -552.91,-352.92L-588.24,-353.83L-592.44,-191.13L-574.08,-190.66ZM-479.95,-188.23L-413.94,-186.52L-475.25,-288.81L-415.29,-287.26L-413.69,-349.32L-475.74,-350.92ZM-330.81,-352.53L-415.10,-186.55L-255.19,-182.42ZM-333.02,-266.76L-315.75,-223.99L-353.40,-224.96ZM-146.92,-187.07C-186.90,-188.10 -213.05,-220.17 -211.94,-263.17C-210.84,-305.70 -184.92,-336.90 -143.08,-335.82C-123.56,-335.31 -110.73,-327.77 -101.85,-320.33C-96.85,-316.02 -92.79,-311.03 -89.67,-305.60C-92.51,-312.88 -96.98,-319.74 -102.87,-325.71C-113.08,-335.97 -129.32,-346.39 -156.28,-347.09C-203.46,-348.31 -242.56,-311.18 -243.78,-263.99C-245.00,-216.81 -207.87,-177.71 -160.69,-176.49C-136.28,-175.86 -119.52,-185.66 -108.09,-195.83C-101.90,-201.49 -96.60,-208.33 -92.23,-215.66C-95.86,-210.17 -100.17,-205.16 -105.16,-201.11C-114.43,-193.67 -127.63,-186.57 -146.92,-187.07ZM-47.41,-177.05L-40.20,-176.87L-36.00,-339.56L-43.20,-339.75ZM-32.30,-176.66L-25.09,-176.48L-20.89,-339.17L-28.10,-339.36ZM-17.19,-176.27L-9.99,-176.09L-5.78,-338.78L-12.99,-338.97ZM-79.79,-328.13C-80.00,-320.00 -73.66,-313.32 -65.52,-313.11C-57.39,-312.90 -50.48,-319.24 -50.27,-327.37C-50.06,-335.51 -56.63,-342.42 -64.76,-342.63C-72.89,-342.84 -79.58,-336.27 -79.79,-328.13ZM0.40,-326.06C0.19,-317.93 6.53,-311.25 14.66,-311.04C22.80,-310.83 29.71,-317.17 29.92,-325.30C30.13,-333.44 23.56,-340.35 15.43,-340.56C7.29,-340.77 0.61,-334.20 0.40,-326.06ZM127.08,-179.29L83.39,-180.42L87.26,-330.33L130.96,-329.20L131.11,-335.25L37.21,-337.67L37.06,-331.63L80.75,-330.50L76.88,-180.59L33.18,-181.72L33.01,-174.98L126.91,-172.55ZM237.50,-177.14C197.53,-178.17 171.38,-210.24 172.49,-253.24C173.58,-295.77 199.51,-326.97 241.34,-325.89C260.87,-325.38 273.70,-317.84 282.58,-310.40C287.58,-306.09 291.64,-301.10 294.75,-295.67C291.92,-302.95 287.44,-309.81 281.55,-315.78C271.35,-326.04 255.11,-336.46 228.15,-337.16C180.96,-338.38 141.86,-301.24 140.64,-254.06C139.43,-206.88 176.56,-167.78 223.74,-166.56C248.14,-165.93 264.91,-175.73 276.34,-185.90C282.53,-191.56 287.82,-198.40 292.20,-205.73C288.57,-200.24 284.25,-195.23 279.26,-191.17C270.00,-183.74 256.79,-176.64 237.50,-177.14ZM313.32,-249.14C312.97,-235.42 321.06,-224.52 333.29,-220.71C320.88,-217.54 312.23,-206.84 311.87,-193.12C311.46,-177.09 323.22,-163.99 339.25,-163.58C352.50,-163.23 363.42,-171.79 367.23,-184.02C369.93,-171.62 380.16,-162.52 393.87,-162.17C407.12,-161.82 418.04,-170.38 421.84,-182.61C424.55,-170.21 434.78,-161.11 448.49,-160.75C464.30,-160.35 477.18,-172.81 477.59,-188.84C478.00,-204.65 465.79,-218.22 449.99,-218.63C436.27,-218.98 425.59,-210.42 422.24,-197.71C419.94,-208.01 412.47,-215.88 402.55,-218.92C414.96,-222.09 424.07,-232.55 424.42,-246.27C424.77,-259.98 416.22,-271.13 404.00,-274.94C414.06,-277.24 421.92,-284.71 424.74,-294.64C427.44,-282.24 437.67,-273.14 451.39,-272.78C467.19,-272.37 480.07,-284.83 480.49,-300.87C480.89,-316.67 468.69,-330.25 452.88,-330.66C439.17,-331.01 428.48,-322.45 425.13,-309.74C421.97,-322.62 411.97,-331.71 398.26,-332.07C384.55,-332.42 373.86,-323.86 370.51,-311.15C367.35,-324.03 357.36,-333.12 343.64,-333.48C327.61,-333.89 315.18,-320.96 314.77,-305.15C314.41,-291.44 322.51,-280.53 334.73,-276.73C322.33,-273.56 313.68,-262.85 313.32,-249.14ZM372.82,-247.60C373.16,-260.85 383.43,-271.28 396.68,-270.94C409.93,-270.60 419.65,-259.65 419.31,-246.40C418.97,-233.38 408.70,-222.95 395.45,-223.29C382.20,-223.63 372.49,-234.58 372.82,-247.60ZM318.20,-249.01C318.54,-262.26 328.82,-272.69 342.06,-272.35C355.31,-272.01 365.03,-261.06 364.69,-247.81C364.35,-234.79 354.08,-224.36 340.83,-224.70C327.58,-225.05 317.87,-236.00 318.20,-249.01ZM316.76,-193.00C317.10,-206.25 327.37,-216.68 340.62,-216.34C353.86,-215.99 363.58,-205.04 363.24,-191.80C362.90,-178.78 352.63,-168.35 339.39,-168.69C326.14,-169.03 316.42,-179.98 316.76,-193.00ZM371.38,-191.59C371.72,-204.83 381.99,-215.27 395.24,-214.93C408.48,-214.58 418.20,-203.63 417.86,-190.39C417.52,-177.37 407.25,-166.94 394.00,-167.28C380.76,-167.62 371.04,-178.57 371.38,-191.59ZM425.99,-190.18C426.34,-203.42 436.61,-213.86 449.85,-213.51C463.10,-213.17 472.82,-202.22 472.48,-188.97C472.14,-175.96 461.87,-165.53 448.62,-165.87C435.38,-166.21 425.66,-177.16 425.99,-190.18ZM428.89,-302.20C429.23,-315.45 439.50,-325.88 452.75,-325.54C466.00,-325.20 475.71,-314.25 475.37,-301.00C475.04,-287.99 464.77,-277.55 451.52,-277.90C438.27,-278.24 428.55,-289.19 428.89,-302.20ZM319.65,-305.02C319.99,-318.27 330.26,-328.71 343.51,-328.36C356.76,-328.02 366.48,-317.07 366.13,-303.82C365.80,-290.81 355.53,-280.38 342.28,-280.72C329.03,-281.06 319.31,-292.01 319.65,-305.02ZM374.27,-303.61C374.61,-316.86 384.88,-327.30 398.13,-326.95C411.38,-326.61 421.10,-315.66 420.75,-302.41C420.42,-289.40 410.15,-278.96 396.90,-279.31C383.65,-279.65 373.93,-290.60 374.27,-303.61ZM368.67,-240.03C370.97,-229.97 377.98,-222.12 387.91,-219.30C377.84,-216.77 370.44,-209.29 367.62,-199.13C365.32,-209.42 357.85,-217.29 347.93,-220.33C357.99,-222.63 365.86,-230.10 368.67,-240.03ZM370.12,-296.05C372.42,-285.99 379.43,-278.13 389.35,-275.31C379.29,-272.78 371.88,-265.30 369.06,-255.14C366.77,-265.43 359.30,-273.30 349.38,-276.35C359.44,-278.65 367.30,-286.12 370.12,-296.05Z" fill="#ffffff" stroke="#000000"/>
    <path d="M-568.49,-334.09C-568.49,-334.09 -557.69,-333.77 -549.41,-333.53C-523.66,-332.77 -507.54,-317.80 -508.12,-298.03C-508.81,-274.58 -526.09,-258.29 -546.09,-258.88C-557.13,-259.20 -563.01,-262.60 -563.01,-262.60L-564.19,-261.71C-564.19,-261.71 -556.32,-255.27 -543.45,-254.89C-523.91,-254.31 -497.24,-268.94 -496.30,-300.90C-495.60,-324.81 -513.57,-347.43 -551.27,-348.54L-586.21,-349.57L-590.97,-188.64L-572.80,-188.11ZM-479.69,-185.36L-414.40,-183.43L-474.69,-284.84L-415.37,-283.09L-413.56,-344.47L-474.94,-346.29ZM-331.56,-347.35L-415.55,-183.46L-257.38,-178.79ZM-334.06,-262.51L-317.14,-220.14L-354.38,-221.23ZM-150.26,-182.99C-189.80,-184.16 -215.55,-215.99 -214.30,-258.52C-213.06,-300.59 -187.30,-331.35 -145.92,-330.13C-126.60,-329.56 -113.94,-322.05 -105.18,-314.66C-100.25,-310.37 -96.25,-305.42 -93.19,-300.04C-95.97,-307.26 -100.37,-314.06 -106.18,-319.98C-116.23,-330.17 -132.26,-340.54 -158.93,-341.33C-205.60,-342.71 -244.42,-306.12 -245.80,-259.45C-247.17,-212.78 -210.58,-173.96 -163.91,-172.58C-139.77,-171.87 -123.15,-181.50 -111.81,-191.52C-105.66,-197.09 -100.40,-203.84 -96.05,-211.08C-99.66,-205.66 -103.95,-200.73 -108.90,-196.73C-118.09,-189.41 -131.18,-182.43 -150.26,-182.99ZM-51.85,-172.73L-44.72,-172.51L-39.97,-333.44L-47.10,-333.66ZM-36.91,-172.28L-29.78,-172.07L-25.03,-333.00L-32.16,-333.21ZM-21.96,-171.84L-14.84,-171.63L-10.08,-332.56L-17.21,-332.77ZM-83.33,-322.30C-83.57,-314.25 -77.32,-307.63 -69.27,-307.39C-61.23,-307.15 -54.37,-313.39 -54.13,-321.44C-53.89,-329.48 -60.37,-336.35 -68.41,-336.59C-76.46,-336.82 -83.09,-330.35 -83.33,-322.30ZM-4.01,-319.96C-4.25,-311.91 2.00,-305.28 10.04,-305.05C18.09,-304.81 24.95,-311.05 25.18,-319.10C25.42,-327.14 18.95,-334.01 10.90,-334.24C2.86,-334.48 -3.78,-328.00 -4.01,-319.96ZM120.77,-174.30L77.55,-175.58L81.93,-323.86L125.15,-322.59L125.33,-328.56L32.45,-331.31L32.27,-325.33L75.49,-324.05L71.11,-175.77L27.89,-177.04L27.70,-170.38L120.57,-167.63ZM229.99,-171.77C190.45,-172.93 164.70,-204.76 165.96,-247.29C167.20,-289.36 192.96,-320.13 234.34,-318.90C253.65,-318.33 266.31,-310.83 275.07,-303.43C280.01,-299.15 284.00,-294.20 287.06,-288.81C284.29,-296.03 279.88,-302.83 274.08,-308.76C264.02,-318.95 247.99,-329.31 221.32,-330.10C174.65,-331.48 135.84,-294.89 134.46,-248.22C133.08,-201.55 169.67,-162.73 216.34,-161.36C240.48,-160.64 257.10,-170.28 268.44,-180.30C274.59,-185.87 279.85,-192.62 284.21,-199.85C280.60,-194.43 276.31,-189.50 271.36,-185.50C262.17,-178.18 249.08,-171.20 229.99,-171.77ZM305.26,-242.72C304.86,-229.15 312.82,-218.33 324.91,-214.52C312.62,-211.44 304.03,-200.88 303.63,-187.31C303.16,-171.45 314.74,-158.45 330.60,-157.98C343.71,-157.60 354.54,-166.02 358.35,-178.10C360.98,-165.83 371.06,-156.79 384.63,-156.39C397.73,-156.00 408.57,-164.42 412.37,-176.51C415.00,-164.23 425.09,-155.19 438.65,-154.79C454.29,-154.33 467.08,-166.61 467.54,-182.47C468.01,-198.10 455.98,-211.58 440.34,-212.04C426.78,-212.44 416.18,-204.01 412.81,-191.45C410.58,-201.64 403.22,-209.45 393.42,-212.50C405.70,-215.59 414.75,-225.91 415.15,-239.47C415.55,-253.04 407.14,-264.10 395.05,-267.91C405.01,-270.15 412.82,-277.51 415.65,-287.32C418.27,-275.05 428.36,-266.00 441.93,-265.60C457.56,-265.14 470.35,-277.42 470.82,-293.28C471.28,-308.92 459.25,-322.39 443.62,-322.85C430.05,-323.25 419.45,-314.82 416.09,-302.26C413.01,-315.01 403.15,-324.04 389.59,-324.44C376.03,-324.84 365.42,-316.41 362.06,-303.86C358.98,-316.60 349.13,-325.64 335.56,-326.04C319.70,-326.51 307.36,-313.76 306.90,-298.12C306.50,-284.56 314.46,-273.74 326.54,-269.93C314.26,-266.84 305.66,-256.28 305.26,-242.72ZM364.12,-240.98C364.50,-254.08 374.70,-264.37 387.80,-263.98C400.91,-263.59 410.48,-252.73 410.10,-239.62C409.72,-226.75 399.52,-216.46 386.41,-216.85C373.31,-217.24 363.74,-228.11 364.12,-240.98ZM310.09,-242.57C310.48,-255.68 320.67,-265.96 333.78,-265.58C346.88,-265.19 356.46,-254.32 356.07,-241.22C355.69,-228.34 345.49,-218.06 332.39,-218.45C319.28,-218.83 309.71,-229.70 310.09,-242.57ZM308.45,-187.17C308.84,-200.27 319.04,-210.56 332.14,-210.17C345.25,-209.78 354.82,-198.92 354.43,-185.81C354.05,-172.94 343.85,-162.65 330.75,-163.04C317.65,-163.43 308.07,-174.29 308.45,-187.17ZM362.48,-185.57C362.87,-198.68 373.06,-208.96 386.17,-208.57C399.27,-208.19 408.85,-197.32 408.46,-184.22C408.08,-171.34 397.88,-161.06 384.78,-161.44C371.67,-161.83 362.10,-172.70 362.48,-185.57ZM416.51,-183.98C416.89,-197.08 427.09,-207.37 440.19,-206.98C453.30,-206.59 462.87,-195.73 462.49,-182.62C462.11,-169.75 451.91,-159.46 438.80,-159.85C425.70,-160.24 416.13,-171.10 416.51,-183.98ZM419.78,-294.79C420.16,-307.89 430.36,-318.18 443.47,-317.79C456.57,-317.40 466.14,-306.54 465.76,-293.43C465.38,-280.56 455.18,-270.27 442.08,-270.66C428.97,-271.05 419.40,-281.92 419.78,-294.79ZM311.72,-297.98C312.11,-311.08 322.31,-321.37 335.41,-320.98C348.52,-320.59 358.09,-309.73 357.70,-296.62C357.32,-283.75 347.13,-273.46 334.02,-273.85C320.92,-274.24 311.34,-285.11 311.72,-297.98ZM365.75,-296.39C366.14,-309.49 376.34,-319.77 389.44,-319.39C402.54,-319.00 412.12,-308.13 411.73,-295.03C411.35,-282.15 401.15,-271.87 388.05,-272.26C374.94,-272.64 365.37,-283.51 365.75,-296.39ZM359.98,-233.51C362.22,-223.55 369.12,-215.75 378.93,-212.93C368.97,-210.46 361.62,-203.09 358.79,-193.05C356.56,-203.24 349.20,-211.05 339.39,-214.10C349.35,-216.33 357.16,-223.70 359.98,-233.51ZM361.62,-288.91C363.86,-278.95 370.76,-271.16 380.57,-268.34C370.60,-265.87 363.25,-258.49 360.42,-248.45C358.19,-258.64 350.83,-266.45 341.03,-269.50C350.99,-271.74 358.80,-279.10 361.62,-288.91Z" fill="#ffffff" stroke="#000000"/>
    <path d="M-566.64,-329.99C-566.64,-329.99 -555.95,-329.63 -547.77,-329.36C-522.30,-328.51 -506.41,-313.65 -507.05,-294.09C-507.83,-270.90 -524.97,-254.85 -544.76,-255.51C-555.67,-255.87 -561.48,-259.25 -561.48,-259.25L-562.64,-258.38C-562.64,-258.38 -554.89,-251.98 -542.16,-251.55C-522.83,-250.91 -496.40,-265.28 -495.35,-296.89C-494.57,-320.54 -512.26,-342.98 -549.55,-344.21L-584.11,-345.36L-589.40,-186.20L-571.43,-185.60ZM-479.35,-182.54L-414.77,-180.40L-474.03,-280.93L-415.37,-278.98L-413.35,-339.69L-474.06,-341.71ZM-332.23,-342.23L-415.91,-180.44L-259.48,-175.24ZM-335.02,-258.33L-318.43,-216.35L-355.27,-217.57ZM-153.51,-179.00C-192.61,-180.30 -217.97,-211.88 -216.57,-253.94C-215.19,-295.55 -189.60,-325.88 -148.67,-324.52C-129.57,-323.89 -117.07,-316.42 -108.44,-309.08C-103.57,-304.82 -99.64,-299.91 -96.63,-294.57C-99.35,-301.72 -103.68,-308.46 -109.40,-314.34C-119.31,-324.46 -135.13,-334.77 -161.50,-335.65C-207.66,-337.18 -246.19,-301.13 -247.72,-254.97C-249.26,-208.82 -213.21,-170.29 -167.05,-168.76C-143.17,-167.96 -126.70,-177.43 -115.44,-187.30C-109.34,-192.79 -104.11,-199.44 -99.78,-206.58C-103.37,-201.24 -107.63,-196.37 -112.54,-192.44C-121.66,-185.23 -134.63,-178.38 -153.51,-179.00ZM-56.20,-168.49L-49.15,-168.25L-43.87,-327.42L-50.92,-327.65ZM-41.42,-168.00L-34.38,-167.76L-29.09,-326.93L-36.14,-327.16ZM-26.64,-167.51L-19.60,-167.27L-14.31,-326.44L-21.36,-326.67ZM-86.79,-316.55C-87.06,-308.59 -80.90,-302.01 -72.95,-301.75C-64.99,-301.49 -58.18,-307.63 -57.92,-315.59C-57.65,-323.55 -64.03,-330.36 -71.99,-330.63C-79.95,-330.89 -86.53,-324.51 -86.79,-316.55ZM-8.35,-313.95C-8.61,-305.99 -2.46,-299.41 5.50,-299.14C13.46,-298.88 20.26,-305.03 20.53,-312.99C20.79,-320.94 14.42,-327.76 6.46,-328.02C-1.50,-328.29 -8.09,-321.90 -8.35,-313.95ZM114.55,-169.42L71.80,-170.84L76.67,-317.49L119.42,-316.07L119.61,-321.99L27.76,-325.04L27.56,-319.13L70.31,-317.71L65.43,-171.05L22.69,-172.47L22.47,-165.88L114.33,-162.82ZM222.57,-166.51C183.46,-167.81 158.11,-199.38 159.51,-241.45C160.89,-283.06 186.48,-313.39 227.41,-312.03C246.51,-311.40 259.00,-303.93 267.64,-296.58C272.50,-292.32 276.44,-287.41 279.45,-282.08C276.73,-289.22 272.40,-295.97 266.67,-301.85C256.77,-311.97 240.95,-322.28 214.57,-323.16C168.42,-324.69 129.89,-288.64 128.35,-242.48C126.82,-196.33 162.87,-157.80 209.03,-156.26C232.90,-155.47 249.38,-164.94 260.63,-174.81C266.73,-180.30 271.96,-186.95 276.30,-194.09C272.71,-188.75 268.45,-183.88 263.54,-179.95C254.42,-172.74 241.44,-165.89 222.57,-166.51ZM297.28,-236.42C296.83,-223.00 304.67,-212.27 316.61,-208.46C304.44,-205.45 295.90,-195.03 295.46,-181.62C294.94,-165.93 306.35,-153.03 322.03,-152.51C334.99,-152.08 345.74,-160.37 349.55,-172.31C352.11,-160.16 362.05,-151.18 375.47,-150.74C388.43,-150.30 399.17,-158.60 402.99,-170.54C405.54,-158.39 415.49,-149.41 428.90,-148.96C444.36,-148.45 457.06,-160.54 457.58,-176.23C458.09,-191.69 446.24,-205.06 430.78,-205.58C417.37,-206.02 406.85,-197.72 403.48,-185.31C401.31,-195.40 394.05,-203.15 384.37,-206.21C396.53,-209.22 405.52,-219.39 405.96,-232.81C406.41,-246.22 398.12,-257.19 386.19,-261.01C396.05,-263.18 403.80,-270.44 406.63,-280.13C409.18,-267.98 419.13,-259.00 432.54,-258.56C448.00,-258.04 460.70,-270.14 461.22,-285.83C461.73,-301.29 449.88,-314.66 434.42,-315.17C421.01,-315.62 410.49,-307.32 407.12,-294.91C404.12,-307.53 394.40,-316.50 380.99,-316.95C367.57,-317.39 357.05,-309.09 353.68,-296.68C350.69,-309.30 340.97,-318.28 327.56,-318.72C311.87,-319.24 299.61,-306.67 299.10,-291.21C298.65,-277.80 306.49,-267.07 318.43,-263.26C306.27,-260.25 297.72,-249.83 297.28,-236.42ZM355.49,-234.48C355.92,-247.44 366.04,-257.58 379.00,-257.15C391.96,-256.72 401.39,-245.93 400.96,-232.97C400.54,-220.24 390.41,-210.10 377.45,-210.53C364.49,-210.97 355.06,-221.75 355.49,-234.48ZM302.05,-236.26C302.48,-249.22 312.61,-259.35 325.57,-258.92C338.53,-258.49 347.96,-247.71 347.53,-234.75C347.11,-222.01 336.98,-211.88 324.02,-212.31C311.06,-212.74 301.63,-223.52 302.05,-236.26ZM300.23,-181.46C300.66,-194.42 310.79,-204.55 323.75,-204.12C336.71,-203.69 346.14,-192.91 345.71,-179.95C345.29,-167.22 335.16,-157.08 322.20,-157.51C309.24,-157.94 299.81,-168.73 300.23,-181.46ZM353.67,-179.69C354.10,-192.65 364.22,-202.78 377.18,-202.35C390.14,-201.92 399.57,-191.13 399.14,-178.17C398.72,-165.44 388.59,-155.31 375.63,-155.74C362.67,-156.17 353.24,-166.95 353.67,-179.69ZM407.10,-177.91C407.53,-190.87 417.65,-201.01 430.62,-200.57C443.58,-200.14 453.01,-189.36 452.57,-176.40C452.15,-163.67 442.03,-153.53 429.07,-153.96C416.11,-154.39 406.68,-165.18 407.10,-177.91ZM410.74,-287.50C411.17,-300.47 421.30,-310.60 434.26,-310.17C447.22,-309.74 456.65,-298.95 456.21,-285.99C455.79,-273.26 445.67,-263.13 432.71,-263.56C419.75,-263.99 410.32,-274.77 410.74,-287.50ZM303.87,-291.05C304.30,-304.01 314.43,-314.15 327.39,-313.72C340.35,-313.29 349.78,-302.50 349.35,-289.54C348.93,-276.81 338.80,-266.68 325.84,-267.11C312.88,-267.54 303.45,-278.32 303.87,-291.05ZM357.31,-289.28C357.74,-302.24 367.86,-312.37 380.82,-311.94C393.78,-311.51 403.21,-300.73 402.78,-287.77C402.36,-275.04 392.23,-264.90 379.27,-265.33C366.31,-265.76 356.88,-276.55 357.31,-289.28ZM351.37,-227.11C353.55,-217.25 360.35,-209.51 370.04,-206.68C360.17,-204.28 352.88,-197.01 350.04,-187.09C347.87,-197.18 340.62,-204.93 330.93,-207.98C340.79,-210.16 348.55,-217.41 351.37,-227.11ZM353.19,-281.90C355.37,-272.04 362.17,-264.31 371.86,-261.48C361.99,-259.08 354.70,-251.81 351.86,-241.89C349.69,-251.97 342.44,-259.73 332.75,-262.78C342.61,-264.96 350.37,-272.21 353.19,-281.90Z" fill="#ffffff" stroke="#000000"/>
    <path d="M-564.70,-325.93C-564.70,-325.93 -554.13,-325.54 -546.04,-325.24C-520.85,-324.31 -505.19,-309.55 -505.90,-290.21C-506.75,-267.27 -523.77,-251.47 -543.33,-252.19C-554.12,-252.59 -559.85,-255.95 -559.85,-255.95L-561.01,-255.09C-561.01,-255.09 -553.36,-248.73 -540.77,-248.27C-521.66,-247.56 -495.47,-261.68 -494.32,-292.93C-493.46,-316.32 -510.87,-338.57 -547.75,-339.94L-581.92,-341.20L-587.73,-183.80L-569.97,-183.15ZM-478.91,-179.79L-415.05,-177.43L-473.29,-277.07L-415.28,-274.93L-413.06,-334.96L-473.10,-337.18ZM-332.83,-337.18L-416.17,-177.47L-261.48,-171.76ZM-335.89,-254.21L-319.64,-212.63L-356.06,-213.98ZM-156.66,-175.10C-195.33,-176.53 -220.30,-207.84 -218.76,-249.44C-217.24,-290.59 -191.82,-320.49 -151.35,-319.00C-132.46,-318.30 -120.13,-310.87 -111.62,-303.57C-106.82,-299.34 -102.95,-294.47 -99.99,-289.19C-102.65,-296.26 -106.91,-302.95 -112.55,-308.79C-122.31,-318.83 -137.92,-329.09 -164.00,-330.05C-209.64,-331.73 -247.88,-296.22 -249.56,-250.58C-251.25,-204.93 -215.74,-166.70 -170.09,-165.01C-146.48,-164.14 -130.15,-173.44 -118.99,-183.16C-112.93,-188.57 -107.74,-195.13 -103.43,-202.18C-107.00,-196.91 -111.23,-192.11 -116.10,-188.24C-125.14,-181.14 -138.00,-174.41 -156.66,-175.10ZM-60.47,-164.34L-53.50,-164.08L-47.69,-321.48L-54.66,-321.74ZM-45.85,-163.80L-38.88,-163.55L-33.07,-320.94L-40.04,-321.20ZM-31.24,-163.26L-24.27,-163.01L-18.46,-320.40L-25.43,-320.66ZM-90.18,-310.89C-90.47,-303.02 -84.41,-296.49 -76.54,-296.20C-68.67,-295.91 -61.92,-301.96 -61.63,-309.83C-61.34,-317.70 -67.62,-324.46 -75.48,-324.76C-83.35,-325.05 -89.89,-318.76 -90.18,-310.89ZM-12.61,-308.02C-12.90,-300.16 -6.84,-293.63 1.03,-293.34C8.90,-293.05 15.66,-299.10 15.95,-306.97C16.24,-314.84 9.96,-321.60 2.09,-321.89C-5.78,-322.18 -12.32,-315.89 -12.61,-308.02ZM108.41,-164.64L66.14,-166.20L71.49,-311.22L113.76,-309.66L113.98,-315.51L23.14,-318.86L22.92,-313.02L65.20,-311.46L59.84,-166.43L17.57,-167.99L17.33,-161.47L108.17,-158.12ZM215.24,-161.37C176.56,-162.80 151.60,-194.12 153.14,-235.71C154.66,-276.86 180.08,-306.77 220.55,-305.27C239.44,-304.58 251.77,-297.14 260.28,-289.85C265.08,-285.62 268.95,-280.75 271.91,-275.46C269.24,-282.54 264.99,-289.22 259.35,-295.06C249.59,-305.10 233.98,-315.36 207.90,-316.32C162.25,-318.01 124.02,-282.49 122.33,-236.85C120.65,-191.20 156.16,-152.97 201.81,-151.28C225.41,-150.41 241.74,-159.72 252.91,-169.44C258.96,-174.84 264.16,-181.40 268.47,-188.45C264.90,-183.18 260.67,-178.38 255.80,-174.51C246.76,-167.41 233.90,-160.68 215.24,-161.37ZM289.38,-230.23C288.89,-216.97 296.60,-206.32 308.39,-202.51C296.35,-199.58 287.87,-189.31 287.38,-176.04C286.80,-160.53 298.04,-147.73 313.55,-147.16C326.37,-146.69 337.03,-154.85 340.84,-166.64C343.32,-154.62 353.13,-145.70 366.39,-145.21C379.21,-144.74 389.87,-152.90 393.68,-164.69C396.16,-152.67 405.97,-143.75 419.23,-143.26C434.52,-142.69 447.12,-154.61 447.69,-170.13C448.26,-185.42 436.59,-198.68 421.30,-199.25C408.03,-199.74 397.60,-191.56 394.22,-179.31C392.11,-189.29 384.97,-196.98 375.40,-200.04C387.44,-202.97 396.36,-213.00 396.85,-226.27C397.34,-239.53 389.19,-250.41 377.40,-254.23C387.16,-256.34 394.85,-263.49 397.68,-273.07C400.16,-261.04 409.97,-252.12 423.23,-251.63C438.52,-251.07 451.12,-262.99 451.69,-278.50C452.26,-293.79 440.59,-307.06 425.30,-307.62C412.03,-308.11 401.60,-299.94 398.22,-287.68C395.30,-300.17 385.73,-309.08 372.46,-309.57C359.19,-310.06 348.76,-301.89 345.38,-289.63C342.46,-302.12 332.89,-311.03 319.62,-311.52C304.11,-312.10 291.94,-299.71 291.38,-284.42C290.89,-271.15 298.60,-260.51 310.39,-256.70C298.35,-253.77 289.87,-243.50 289.38,-230.23ZM346.94,-228.11C347.41,-240.92 357.46,-250.91 370.28,-250.44C383.09,-249.96 392.38,-239.26 391.91,-226.45C391.44,-213.86 381.39,-203.87 368.58,-204.34C355.76,-204.82 346.47,-215.52 346.94,-228.11ZM294.10,-230.06C294.57,-242.87 304.62,-252.86 317.44,-252.39C330.25,-251.91 339.54,-241.21 339.07,-228.40C338.60,-215.81 328.55,-205.82 315.74,-206.29C302.92,-206.77 293.63,-217.47 294.10,-230.06ZM292.10,-175.87C292.57,-188.69 302.62,-198.67 315.44,-198.20C328.25,-197.73 337.54,-187.03 337.07,-174.21C336.60,-161.62 326.55,-151.63 313.74,-152.11C300.92,-152.58 291.63,-163.28 292.10,-175.87ZM344.94,-173.92C345.41,-186.74 355.46,-196.72 368.28,-196.25C381.09,-195.78 390.38,-185.08 389.91,-172.26C389.44,-159.67 379.39,-149.68 366.58,-150.16C353.76,-150.63 344.47,-161.33 344.94,-173.92ZM397.78,-171.97C398.25,-184.79 408.30,-194.77 421.12,-194.30C433.93,-193.83 443.22,-183.13 442.75,-170.31C442.28,-157.72 432.23,-147.73 419.41,-148.21C406.60,-148.68 397.31,-159.38 397.78,-171.97ZM401.78,-280.35C402.25,-293.16 412.30,-303.15 425.12,-302.68C437.93,-302.20 447.22,-291.50 446.75,-278.69C446.28,-266.09 436.23,-256.11 423.41,-256.58C410.60,-257.05 401.31,-267.75 401.78,-280.35ZM296.10,-284.25C296.57,-297.06 306.62,-307.05 319.44,-306.58C332.25,-306.10 341.54,-295.40 341.07,-282.59C340.60,-270.00 330.55,-260.01 317.74,-260.48C304.92,-260.96 295.63,-271.66 296.10,-284.25ZM348.94,-282.30C349.41,-295.11 359.46,-305.10 372.28,-304.63C385.09,-304.15 394.38,-293.45 393.91,-280.64C393.44,-268.04 383.39,-258.06 370.58,-258.53C357.76,-259.00 348.47,-269.70 348.94,-282.30ZM342.84,-220.83C344.96,-211.07 351.65,-203.39 361.23,-200.56C351.46,-198.22 344.22,-191.06 341.38,-181.26C339.27,-191.24 332.13,-198.93 322.56,-201.99C332.32,-204.11 340.01,-211.25 342.84,-220.83ZM344.84,-275.02C346.96,-265.26 353.65,-257.58 363.23,-254.75C353.46,-252.41 346.22,-245.25 343.38,-235.44C341.27,-245.43 334.13,-253.12 324.56,-256.18C334.32,-258.29 342.01,-265.44 344.84,-275.02Z" fill="#ffffff" stroke="#000000"/>
    <path d="M-899.21,493.22L-899.21,493.06L-889.36,470.38C-888.22,467.72 -887.35,466.20 -883.55,465.40L-896.17,465.40L-894.42,465.93C-892.21,466.65 -892.02,468.25 -892.63,469.81L-899.05,485.73L-905.51,469.81C-906.12,468.25 -905.93,466.65 -903.73,465.93L-901.98,465.40L-914.90,465.40C-911.21,466.20 -910.19,467.79 -909.09,470.38L-899.28,493.06L-899.24,493.22L-899.24,493.18ZM-878.38,492L-877.20,492L-877.20,465.40L-878.38,465.40ZM-875.91,492L-874.73,492L-874.73,465.40L-875.91,465.40ZM-873.44,492L-872.26,492L-872.26,465.40L-873.44,465.40ZM-884.31,467.45C-884.31,468.78 -883.25,469.85 -881.92,469.85C-880.59,469.85 -879.48,468.78 -879.48,467.45C-879.48,466.12 -880.59,465.02 -881.92,465.02C-883.25,465.02 -884.31,466.12 -884.31,467.45ZM-871.20,467.45C-871.20,468.78 -870.14,469.85 -868.81,469.85C-867.48,469.85 -866.37,468.78 -866.37,467.45C-866.37,466.12 -867.48,465.02 -868.81,465.02C-870.14,465.02 -871.20,466.12 -871.20,467.45ZM-846.80,465.40L-855.62,465.40C-859.65,465.40 -862.95,468.71 -862.95,472.73C-862.95,474.67 -862.23,476.46 -861.02,477.71C-861.93,479.00 -862.50,480.52 -862.50,482.20L-862.50,491.73C-862.50,491.85 -862.42,492 -862.23,492L-857.52,492C-857.41,492 -857.25,491.92 -857.25,491.73L-857.25,482.20C-857.25,481.02 -856.34,480.11 -855.13,480.11L-848.44,480.11C-848.32,480.11 -848.21,479.95 -848.21,479.84L-848.21,475.09C-848.21,474.94 -848.32,474.82 -848.44,474.82L-855.62,474.82C-856.80,474.82 -857.79,473.87 -857.79,472.73C-857.79,471.56 -856.80,470.61 -855.62,470.61L-846.80,470.61C-846.61,470.61 -846.50,470.49 -846.50,470.34L-846.50,465.70C-846.50,465.51 -846.61,465.40 -846.80,465.40ZM-857.79,491.54L-862.04,491.54L-862.04,482.20C-862.04,480.64 -861.55,479.23 -860.64,478.05C-860.45,478.24 -860.29,478.40 -860.10,478.51C-860.83,479.54 -861.28,480.83 -861.28,482.20L-861.28,490.59C-861.28,490.75 -861.21,490.82 -861.05,490.82L-858.70,490.82C-858.51,490.82 -858.43,490.75 -858.43,490.59L-858.43,482.20C-858.43,481.25 -858.05,480.41 -857.48,479.80C-857.14,479.92 -856.84,479.95 -856.53,479.99C-857.25,480.45 -857.79,481.25 -857.79,482.20ZM-849.84,476.50L-849.84,478.43L-855.62,478.43C-856.19,478.43 -856.68,478.40 -857.25,478.21C-856.72,477.90 -856.11,477.67 -855.47,477.67L-850.72,477.67C-850.57,477.67 -850.45,477.56 -850.45,477.45C-850.45,477.29 -850.60,477.22 -850.72,477.22L-855.62,477.22C-856.19,477.22 -856.72,477.10 -857.29,476.91C-856.72,476.69 -856.11,476.50 -855.47,476.50ZM-858.93,477.90C-858.74,478.02 -858.43,478.21 -858.20,478.28C-858.39,478.43 -858.62,478.62 -858.77,478.81C-858.96,478.74 -859.27,478.55 -859.42,478.43C-859.31,478.24 -859.12,478.02 -858.93,477.90ZM-858.93,476.42C-858.77,476.61 -858.51,476.80 -858.32,476.91C-858.55,477.07 -858.74,477.18 -858.93,477.33C-859.15,477.18 -859.38,477.03 -859.57,476.84C-859.38,476.69 -859.15,476.57 -858.93,476.42ZM-857.86,477.14C-857.56,477.29 -857.18,477.45 -856.84,477.52C-857.18,477.64 -857.56,477.83 -857.82,477.98C-858.01,477.90 -858.36,477.75 -858.55,477.60C-858.36,477.48 -858.09,477.26 -857.86,477.14ZM-859.12,479.19C-859.72,479.99 -860.10,481.06 -860.10,482.20L-860.10,489.49C-860.10,489.61 -860.03,489.72 -859.88,489.72C-859.72,489.72 -859.65,489.61 -859.65,489.49L-859.65,482.20C-859.65,481.17 -859.31,480.18 -858.70,479.38C-858.47,479.54 -858.24,479.61 -857.98,479.69C-858.51,480.37 -858.89,481.25 -858.89,482.20L-858.89,490.37L-860.83,490.37L-860.83,482.20C-860.83,480.90 -860.41,479.76 -859.72,478.81C-859.53,478.97 -859.31,479.08 -859.12,479.19ZM-858.36,479.00C-858.20,478.85 -857.94,478.62 -857.71,478.47C-857.44,478.59 -857.06,478.74 -856.72,478.81C-857.06,478.89 -857.37,479.16 -857.56,479.31C-857.86,479.23 -858.09,479.16 -858.36,479.00ZM-857.82,476.65C-858.05,476.57 -858.39,476.38 -858.55,476.19C-858.36,476.04 -858.01,475.89 -857.79,475.81C-857.48,476.00 -857.18,476.19 -856.87,476.31C-857.18,476.34 -857.52,476.50 -857.82,476.65ZM-858.85,475.85C-859.65,475.05 -860.14,473.95 -860.14,472.73C-860.14,470.23 -858.09,468.25 -855.62,468.25L-849.05,468.25C-848.93,468.25 -848.82,468.17 -848.82,468.02C-848.82,467.91 -848.89,467.79 -849.05,467.79L-855.62,467.79C-858.36,467.79 -860.60,470.00 -860.60,472.73C-860.60,473.99 -860.07,475.20 -859.23,476.08C-859.46,476.23 -859.69,476.38 -859.84,476.53C-860.79,475.51 -861.28,474.22 -861.28,472.73C-861.28,469.58 -858.77,467.03 -855.62,467.03L-848.21,467.03L-848.21,468.93L-855.62,468.93C-857.71,468.93 -859.38,470.61 -859.38,472.73C-859.38,473.84 -858.89,474.79 -858.20,475.51C-858.39,475.58 -858.66,475.74 -858.85,475.85ZM-859.88,477.18C-859.76,477.33 -859.50,477.52 -859.31,477.64C-859.53,477.83 -859.65,477.98 -859.80,478.13C-859.99,478.02 -860.14,477.90 -860.37,477.67C-860.26,477.52 -860.10,477.33 -859.88,477.18ZM-848.63,475.32L-848.63,479.65L-855.62,479.65C-856.11,479.65 -856.72,479.57 -857.06,479.46C-856.72,479.12 -855.96,478.89 -855.43,478.89L-849.58,478.89C-849.50,478.89 -849.39,478.81 -849.39,478.70L-849.39,476.27C-849.39,476.15 -849.50,476.04 -849.62,476.04L-855.62,476.04C-856.19,476.04 -856.72,475.93 -857.25,475.62C-856.72,475.47 -856.34,475.32 -855.13,475.32ZM-846.99,470.11L-855.62,470.11C-857.06,470.11 -858.24,471.33 -858.24,472.73C-858.24,473.76 -857.60,474.63 -856.80,475.05C-857.06,475.13 -857.41,475.20 -857.71,475.32C-858.43,474.71 -858.93,473.76 -858.93,472.73C-858.93,470.91 -857.44,469.39 -855.62,469.39L-847.91,469.39C-847.83,469.39 -847.72,469.31 -847.72,469.20L-847.72,466.81C-847.72,466.65 -847.83,466.58 -847.91,466.58L-855.62,466.58C-858.96,466.58 -861.74,469.31 -861.74,472.73C-861.74,474.29 -861.21,475.77 -860.18,476.88C-860.41,477.03 -860.52,477.18 -860.71,477.41C-861.78,476.15 -862.50,474.56 -862.50,472.73C-862.50,468.90 -859.38,465.86 -855.62,465.86L-846.99,465.86ZM-845.44,477.86C-845.44,478.97 -844.60,479.80 -843.50,479.80L-836.43,479.80C-835.33,479.80 -834.45,478.97 -834.45,477.86C-834.45,476.76 -835.33,475.89 -836.43,475.89L-843.50,475.89C-844.60,475.89 -845.44,476.76 -845.44,477.86ZM-832.40,492L-806.56,492L-811.08,464.30L-815.30,490.02L-819.48,464.30L-823.70,490.02L-827.88,464.30ZM-790.07,490.90L-797.21,490.90L-797.21,466.39L-790.07,466.39L-790.07,465.40L-805.42,465.40L-805.42,466.39L-798.28,466.39L-798.28,490.90L-805.42,490.90L-805.42,492L-790.07,492ZM-786.00,491.66C-783.69,487.93 -781.63,483.49 -779.09,479.92C-776.66,483.49 -774.57,487.74 -772.25,491.39C-770.73,493.79 -767.38,491.66 -769.17,489.34C-771.79,485.88 -775.29,482.69 -778.02,479.35C-778.18,479.19 -778.29,479.04 -778.40,478.89C-778.29,478.74 -778.18,478.55 -778.02,478.40C-775.29,474.94 -771.91,471.71 -769.17,468.29C-767.23,465.74 -770.69,463.65 -772.25,466.24C-774.45,469.96 -776.54,474.41 -779.09,477.86C-781.71,474.33 -783.76,469.81 -786.00,465.97C-787.52,463.42 -791.06,465.59 -789.08,468.02C-786.31,471.40 -783.04,474.79 -780.30,478.28C-780.15,478.55 -780,478.70 -779.85,478.89L-780.30,479.46C-783.04,482.92 -786.31,486.22 -789.08,489.61C-790.91,491.81 -787.49,494.05 -786.00,491.66ZM-754.24,493.90L-740.44,479.00L-754.20,464.07L-767.99,479.00ZM-754.20,464.87C-751.69,467.60 -750.13,474.33 -750.13,478.97C-750.13,483.83 -751.69,490.14 -754.20,492.84C-756.74,490.10 -758.30,483.79 -758.30,478.97C-758.30,474.22 -756.74,467.60 -754.20,464.87Z"/>
</svg>