<?xml version="1.0"?>
<svg xmlns="http://www.w3.org/2000/svg" width="1920" height="1080" viewBox="-960 -540 1920 1080">
    <path d="M-816,-210L-771.75,-367L-727.50,-210L-703.75,-210L-657.75,-386.50L-680.25,-392.02L-715.50,-238.75L-757.50,-390L-786,-390L-826.75,-238.75L-862.75,-392.02L-885.75,-386.50L-839.75,-210ZM-638.75,-210L-616.09,-210L-616.09,-280.75L-606.33,-313.69L-580.92,-325.23L-559.83,-315.48L-553.74,-288.92L-553.75,-210L-531.31,-210L-531.21,-289.10L-539.75,-328.93L-576.34,-344.62L-600.34,-339.11L-616.12,-322.25L-616.12,-390L-638.75,-390ZM-419.90,-297.19L-493.21,-274.70L-508.13,-243.62L-494.74,-214.10L-463.01,-204.86L-439.73,-209.38L-418.40,-225.04L-418.50,-210L-397.50,-210L-397.47,-293.86L-409.31,-332.03L-448.21,-345.13L-483.21,-336.58L-500.22,-311.21L-482.38,-300.24L-470.92,-320.00L-450.51,-326.75L-428.63,-320.35ZM-419.90,-277.30L-419.91,-244.38L-435.82,-230.45L-459.42,-223.21L-476.36,-227.60L-484.14,-244.62L-474.11,-262.29ZM-307.80,-208.26L-307.80,-208.26L-310.39,-227.65L-320.47,-226.14L-331.31,-231.63L-333.25,-248L-333.25,-322.75L-311,-322.75L-311,-340L-333.25,-340L-333.25,-385L-355.75,-385L-355.75,-340L-374.25,-340L-374.25,-322.75L-355.75,-322.75L-355.75,-248L-350.62,-216.61L-325.00,-205.85ZM-133.65,-297.19L-206.96,-274.70L-221.88,-243.62L-208.49,-214.10L-176.76,-204.86L-153.48,-209.38L-132.15,-225.04L-132.25,-210L-111.25,-210L-111.22,-293.86L-123.06,-332.03L-161.96,-345.13L-196.96,-336.58L-213.97,-311.21L-196.13,-300.24L-184.67,-320.00L-164.26,-326.75L-142.38,-320.35ZM-133.65,-277.30L-133.66,-244.38L-149.57,-230.45L-173.17,-223.21L-190.11,-227.60L-197.89,-244.62L-187.86,-262.29ZM-21.64,-323.34L-4.75,-317.75L2,-336.75L-20.02,-345.09L-41.50,-338.43L-56.50,-317.50L-56.50,-340L-76.75,-340L-76.75,-211.27L-54.25,-210L-54.25,-280.25L-46.02,-311.59ZM46.87,-234.73L33.75,-269.23L130.25,-269.25L131.50,-278.25L116.61,-325.87L71.51,-345.22L27.40,-326.61L10.83,-275.10L27.40,-223.59L71.51,-204.97L108.65,-215.94L125.75,-242.75L108.23,-253.69L94.60,-231.44L72.79,-224.11ZM34.50,-287.25L48.62,-317.01L71.49,-326.13L97.00,-315.28L107.25,-287.25ZM280.20,-208.26L280.20,-208.26L277.61,-227.65L267.53,-226.14L256.69,-231.63L254.75,-248L254.75,-322.75L277,-322.75L277,-340L254.75,-340L254.75,-385L232.25,-385L232.25,-340L213.75,-340L213.75,-322.75L232.25,-322.75L232.25,-248L237.38,-216.61L263.00,-205.85ZM304.75,-210L327.41,-210L327.41,-280.75L337.17,-313.69L362.58,-325.23L383.67,-315.48L389.76,-288.92L389.75,-210L412.19,-210L412.29,-289.10L403.75,-328.93L367.16,-344.62L343.16,-339.11L327.38,-322.25L327.38,-390L304.75,-390ZM471.62,-234.73L458.50,-269.23L555,-269.25L556.25,-278.25L541.36,-325.87L496.26,-345.22L452.15,-326.61L435.58,-275.10L452.15,-223.59L496.26,-204.97L533.40,-215.94L550.50,-242.75L532.98,-253.69L519.35,-231.44L497.54,-224.11ZM459.25,-287.25L473.37,-317.01L496.24,-326.13L521.75,-315.28L532,-287.25ZM590.50,-177L583.25,-178.25L579.24,-159.98L593.49,-157.50L618.05,-168.22L632.81,-195.62L684.50,-334.50L665.25,-342L627.51,-238.75L589,-342L568.75,-334.50L617.03,-211.26L611.88,-197.14L602.24,-181.88ZM763.42,-206.86L772.28,-215.89L772.22,-228.59L763.27,-237.53L750.67,-237.46L741.81,-228.44L741.87,-215.74L750.82,-206.80ZM745.41,-253.05L767.20,-253.05L767.20,-259.94L770.56,-278.14L782.72,-293.08L804.49,-314.10L814.60,-344.09L798.46,-381.60L755.93,-395.59L717.71,-381.31L702.91,-347.90L722.02,-339.24L733.35,-366.50L756.15,-375.20L780.12,-367.86L790.32,-342.56L783.67,-321.88L768.61,-307.12L750.70,-286.97L745.41,-259.94Z" fill="#ffffff" stroke="#000000"/>
    <path d="M-822.43,-166.89L-785.89,-324.18L-734.91,-170.96L-711.42,-172.05L-674.05,-348.71L-696.55,-353.14L-724.36,-199.94L-772.86,-347.58L-801.04,-346.27L-834.38,-194.82L-877.03,-344.74L-899.52,-338.22L-845.91,-165.79ZM-647.14,-175.04L-624.73,-176.08L-627.98,-246.05L-619.85,-279.07L-595.25,-291.65L-573.94,-282.98L-566.70,-257.00L-563.08,-178.95L-540.89,-179.98L-544.43,-258.22L-554.71,-297.21L-591.61,-311.04L-615.09,-304.49L-629.92,-287.09L-633.04,-354.09L-655.42,-353.05ZM-434.72,-271.33L-506.18,-245.72L-519.51,-214.30L-504.91,-185.72L-473.11,-178.04L-450.30,-183.59L-429.92,-200.05L-429.33,-185.18L-408.56,-186.14L-412.39,-269.08L-425.85,-306.28L-464.92,-317.44L-499.14,-307.38L-514.80,-281.51L-496.65,-271.48L-486.23,-291.54L-466.35,-299.17L-444.42,-293.84ZM-433.80,-251.66L-432.30,-219.11L-447.39,-204.60L-470.40,-196.35L-487.35,-199.92L-495.84,-216.39L-486.72,-234.33ZM-319.77,-188.54L-319.77,-188.55L-323.23,-207.61L-333.12,-205.65L-344.10,-210.58L-346.77,-226.68L-350.21,-300.60L-328.20,-301.62L-329.00,-318.68L-351.00,-317.66L-353.07,-362.16L-375.32,-361.13L-373.25,-316.62L-391.55,-315.77L-390.75,-298.71L-372.46,-299.56L-369.02,-225.64L-362.50,-194.84L-336.67,-185.38ZM-151.64,-284.50L-223.10,-258.89L-236.43,-227.47L-221.83,-198.89L-190.03,-191.21L-167.21,-196.76L-146.84,-213.22L-146.24,-198.35L-125.48,-199.31L-129.30,-282.25L-142.77,-319.45L-181.84,-330.61L-216.06,-320.55L-231.72,-294.68L-213.57,-284.65L-203.15,-304.71L-183.27,-312.34L-161.34,-307.01ZM-150.72,-264.83L-149.22,-232.29L-164.31,-217.77L-187.32,-209.53L-204.27,-213.09L-212.75,-229.56L-203.64,-247.50ZM-42.08,-315.52L-25.11,-310.77L-19.31,-329.87L-41.48,-337.10L-62.41,-329.53L-76.28,-308.14L-77.31,-330.39L-97.34,-329.46L-91.42,-202.16L-69.11,-201.94L-72.34,-271.41L-65.65,-302.79ZM29.75,-231.04L15.19,-264.56L110.62,-269.02L111.45,-277.98L94.53,-324.39L49.04,-341.45L6.27,-321.01L-7.74,-269.31L11.01,-219.13L55.49,-202.75L91.72,-215.31L107.39,-242.61L89.56,-252.62L77.11,-229.99L55.87,-221.74ZM15.11,-282.41L27.70,-312.49L49.90,-322.56L75.62,-313.02L87.05,-285.76ZM261.72,-215.60L261.72,-215.61L258.26,-234.66L248.37,-232.71L237.39,-237.64L234.72,-253.73L231.28,-327.66L253.29,-328.68L252.49,-345.74L230.49,-344.72L228.42,-389.22L206.17,-388.18L208.24,-343.68L189.94,-342.83L190.74,-325.77L209.03,-326.62L212.47,-252.70L218.99,-221.89L244.82,-212.43ZM285.92,-218.46L308.33,-219.50L305.07,-289.46L313.20,-322.48L337.80,-335.07L359.11,-326.40L366.36,-300.42L369.98,-222.37L392.17,-223.40L388.63,-301.63L378.35,-340.62L341.44,-354.46L317.97,-347.91L303.13,-330.50L300.01,-397.50L277.64,-396.46ZM449.80,-250.59L435.24,-284.10L530.67,-288.56L531.49,-297.52L514.58,-343.93L469.09,-360.99L426.32,-340.55L412.30,-288.85L431.06,-238.67L475.54,-222.30L511.77,-234.85L527.44,-262.15L509.61,-272.16L497.16,-249.54L475.92,-241.28ZM435.15,-301.96L447.75,-332.04L469.95,-342.11L495.67,-332.56L507.10,-305.31ZM570.02,-198.97L562.80,-199.87L559.67,-181.62L573.88,-179.82L597.67,-191.56L611.01,-219.33L655.74,-359.05L636.35,-365.58L603.79,-261.74L560.95,-362.07L541.27,-353.72L594.68,-234.07L590.23,-219.87L581.41,-204.33ZM739.65,-236.46L748.00,-245.79L747.36,-258.35L738.09,-266.77L725.64,-266.13L717.29,-256.80L717.93,-244.24L727.20,-235.82ZM719.72,-281.30L741.27,-282.30L740.95,-289.12L743.44,-307.28L754.78,-322.61L775.34,-344.40L783.95,-374.52L766.27,-410.87L723.57,-422.75L686.42,-406.87L673.32,-373.15L692.62,-365.47L702.57,-392.95L724.72,-402.59L748.76,-396.45L760.01,-371.89L754.39,-351.13L740.17,-335.84L723.39,-315.09L719.40,-288.11Z" fill="#ffffff" stroke="#000000"/>
    <path d="M-826.50,-123.71L-797.61,-280.93L-740.14,-131.76L-716.97,-133.92L-688.14,-310.33L-710.60,-313.67L-731.05,-160.91L-785.80,-304.67L-813.61,-302.08L-839.60,-150.78L-888.68,-297.07L-910.62,-289.58L-849.67,-121.55ZM-653.54,-139.84L-631.43,-141.90L-637.87,-210.94L-631.35,-243.96L-607.60,-257.54L-586.13,-249.94L-577.77,-224.58L-570.60,-147.57L-548.71,-149.62L-555.81,-226.81L-567.77,-264.89L-604.90,-276.87L-627.81,-269.32L-641.68,-251.43L-647.84,-317.54L-669.92,-315.48ZM-447.93,-244.83L-517.42,-216.21L-529.15,-184.53L-513.39,-156.94L-481.59,-150.81L-459.29,-157.35L-439.90,-174.56L-438.63,-159.88L-418.14,-161.79L-425.74,-243.62L-440.76,-279.79L-479.92,-289.03L-513.29,-277.50L-527.58,-251.20L-509.17,-242.12L-499.79,-262.44L-480.49,-270.89L-458.55,-266.64ZM-446.12,-225.42L-443.14,-193.30L-457.39,-178.26L-479.76,-169.04L-496.69,-171.79L-505.83,-187.69L-497.65,-205.84ZM-330.46,-168.25L-330.46,-168.26L-334.75,-186.94L-344.45,-184.55L-355.52,-188.92L-358.91,-204.72L-365.71,-277.66L-344.00,-279.68L-345.57,-296.51L-367.28,-294.49L-371.37,-338.40L-393.33,-336.35L-389.23,-292.44L-407.28,-290.76L-405.71,-273.93L-387.66,-275.61L-380.86,-202.67L-373.00,-172.51L-347.02,-164.34ZM-168.62,-270.87L-238.10,-242.26L-249.83,-210.58L-234.08,-182.99L-202.28,-176.86L-179.98,-183.40L-160.59,-200.61L-159.32,-185.93L-138.83,-187.84L-146.43,-269.67L-161.45,-305.84L-200.60,-315.08L-233.98,-303.55L-248.27,-277.25L-229.86,-268.17L-220.48,-288.49L-201.17,-296.94L-179.24,-292.69ZM-166.81,-251.47L-163.82,-219.35L-178.08,-204.31L-200.44,-195.09L-217.37,-197.84L-226.52,-213.74L-218.34,-231.89ZM-61.71,-306.59L-44.71,-302.67L-39.86,-321.82L-62.10,-327.96L-82.46,-319.51L-95.19,-297.72L-97.23,-319.67L-116.99,-317.83L-105.28,-192.22L-83.21,-193.03L-89.60,-261.58L-84.43,-292.91ZM13.21,-226.36L-2.73,-258.83L91.43,-267.63L91.83,-276.53L72.97,-321.64L27.20,-336.41L-14.15,-314.24L-25.63,-262.47L-4.77,-213.72L39.96,-199.57L75.21,-213.65L89.45,-241.36L71.36,-250.44L60.08,-227.50L39.47,-218.36ZM-3.64,-276.48L7.43,-306.80L28.92,-317.78L54.80,-309.52L67.35,-283.10ZM243.29,-221.76L243.30,-221.77L239.00,-240.45L229.30,-238.06L218.23,-242.43L214.85,-258.23L208.04,-331.16L229.75,-333.19L228.18,-350.02L206.47,-348.00L202.38,-391.91L180.42,-389.86L184.52,-345.95L166.47,-344.26L168.04,-327.43L186.09,-329.12L192.89,-256.18L200.75,-226.02L226.73,-217.85ZM267.09,-225.70L289.20,-227.76L282.77,-296.79L289.29,-329.82L313.03,-343.39L334.50,-335.80L342.86,-310.44L350.03,-233.43L371.93,-235.47L364.83,-312.67L352.87,-350.75L315.74,-362.73L292.83,-355.18L278.96,-337.29L272.79,-403.39L250.71,-401.33ZM427.66,-265.01L411.73,-297.48L505.89,-306.28L506.29,-315.18L487.42,-360.29L441.66,-375.07L400.31,-352.89L388.83,-301.12L409.68,-252.37L454.42,-238.22L489.66,-252.30L503.91,-280.02L485.82,-289.09L474.54,-266.15L453.92,-257.01ZM410.82,-315.13L421.89,-345.45L443.37,-356.43L469.25,-348.18L481.80,-321.75ZM548.92,-219.50L541.73,-220.06L539.48,-201.87L553.62,-200.74L576.60,-213.44L588.51,-241.52L626.31,-381.74L606.84,-387.30L579.42,-283.13L532.44,-380.36L513.36,-371.20L571.69,-255.34L567.94,-241.10L559.93,-225.33ZM714.93,-264.37L722.76,-273.99L721.54,-286.37L711.99,-294.28L699.71,-293.07L691.88,-283.46L693.10,-271.07L702.64,-263.17ZM693.16,-307.80L714.42,-309.78L713.79,-316.50L715.41,-334.58L725.92,-350.26L745.25,-372.75L752.38,-402.93L733.22,-438.07L690.45,-447.84L654.45,-430.44L643.05,-396.49L662.49,-389.78L671.06,-417.41L692.52,-427.97L716.58,-422.99L728.83,-399.23L724.23,-378.45L710.87,-362.67L695.23,-341.38L692.53,-314.52Z" fill="#ffffff" stroke="#000000"/>
    <path d="M-828.23,-80.60L-806.90,-237.38L-743.22,-92.54L-720.41,-95.74L-700.02,-271.48L-722.38,-273.76L-735.57,-121.77L-796.31,-261.39L-823.69,-257.55L-842.43,-106.77L-897.69,-249.14L-919.03,-240.74L-851.04,-77.40ZM-657.97,-104.50L-636.20,-107.56L-645.74,-175.52L-640.81,-208.47L-617.96,-222.99L-596.38,-216.47L-586.95,-191.78L-576.32,-115.97L-554.76,-118.99L-565.33,-194.99L-578.91,-232.10L-616.17,-242.23L-638.48,-233.71L-651.37,-215.38L-660.51,-280.46L-682.24,-277.41ZM-459.50,-217.77L-526.89,-186.28L-537.03,-154.42L-520.18,-127.86L-488.46,-123.27L-466.71,-130.75L-448.33,-148.67L-446.40,-134.21L-426.23,-137.04L-437.51,-217.60L-454.03,-252.67L-493.16,-260.00L-525.63,-247.07L-538.55,-220.41L-519.93,-212.28L-511.59,-232.80L-492.89,-242.04L-471.01,-238.85ZM-456.82,-198.66L-452.39,-167.05L-465.80,-151.51L-487.48,-141.38L-504.35,-143.31L-514.13,-158.61L-506.87,-176.94ZM-339.83,-147.46L-339.83,-147.47L-344.94,-165.74L-354.41,-162.93L-365.57,-166.75L-369.64,-182.21L-379.72,-254.01L-358.34,-257.01L-360.67,-273.58L-382.04,-270.58L-388.11,-313.81L-409.72,-310.77L-403.66,-267.55L-421.43,-265.05L-419.10,-248.48L-401.33,-250.98L-391.25,-179.17L-382.09,-149.71L-356.03,-142.84ZM-184.53,-256.37L-251.92,-224.88L-262.06,-193.02L-245.22,-166.47L-213.50,-161.87L-191.75,-169.36L-173.37,-187.27L-171.43,-172.81L-151.26,-175.65L-162.54,-256.21L-179.06,-291.27L-218.20,-298.60L-250.67,-285.68L-263.58,-259.01L-244.97,-250.88L-236.63,-271.40L-217.93,-280.65L-196.04,-277.45ZM-181.85,-237.27L-177.43,-205.65L-190.83,-190.12L-212.52,-179.98L-229.38,-181.92L-239.16,-197.21L-231.90,-215.54ZM-80.47,-296.60L-63.49,-293.51L-59.57,-312.67L-81.85,-317.71L-101.59,-308.42L-113.17,-286.29L-116.20,-307.90L-135.65,-305.17L-118.29,-181.52L-96.51,-183.33L-105.98,-250.81L-102.31,-282.03ZM-2.71,-220.72L-19.97,-252.09L72.73,-265.13L72.71,-273.94L51.99,-317.68L6.06,-330.18L-33.80,-306.35L-42.77,-254.64L-19.91,-207.40L24.97,-195.47L59.17,-211.01L71.98,-239.07L53.68,-247.21L43.58,-224.01L23.62,-214.02ZM-21.68,-269.51L-12.13,-299.99L8.61,-311.84L34.58,-304.87L48.21,-279.32ZM224.99,-226.76L224.99,-226.77L219.88,-245.04L210.41,-242.23L199.25,-246.05L195.18,-261.51L185.10,-333.31L206.48,-336.31L204.15,-352.88L182.78,-349.88L176.71,-393.11L155.10,-390.07L161.16,-346.85L143.39,-344.35L145.72,-327.78L163.49,-330.28L173.57,-258.47L182.73,-229.01L208.79,-222.13ZM248.34,-231.75L270.11,-234.80L260.56,-302.77L265.49,-335.72L288.35,-350.23L309.93,-343.71L319.36,-319.03L329.99,-243.21L351.54,-246.24L340.97,-322.24L327.39,-359.34L290.13,-369.48L267.83,-360.95L254.94,-342.63L245.80,-407.70L224.06,-404.65ZM405.29,-278.01L388.04,-309.38L480.73,-322.41L480.72,-331.23L460.00,-374.96L414.06,-387.47L374.20,-363.64L365.23,-311.92L388.10,-264.68L432.98,-252.75L467.18,-268.29L479.98,-296.35L461.68,-304.49L451.59,-281.29L431.62,-271.30ZM386.33,-326.79L395.88,-357.28L416.62,-369.12L442.58,-362.15L456.21,-336.60ZM527.27,-238.59L520.14,-238.81L518.75,-220.72L532.78,-220.26L554.92,-233.87L565.41,-262.18L596.33,-402.55L576.83,-407.16L554.50,-302.90L503.58,-396.88L485.14,-386.94L548.14,-275.07L545.09,-260.82L537.89,-244.85ZM689.35,-290.59L696.65,-300.46L694.87,-312.65L685.07,-320.03L672.98,-318.27L665.68,-308.40L667.45,-296.21L677.26,-288.83ZM665.82,-332.53L686.76,-335.47L685.83,-342.08L686.60,-360.03L696.27,-376.02L714.34,-399.14L720.00,-429.31L699.45,-463.17L656.71,-470.87L621.91,-452.00L612.20,-417.91L631.73,-412.17L638.94,-439.88L659.66,-451.31L683.68,-447.50L696.88,-424.57L693.29,-403.81L680.81,-387.59L666.33,-365.83L664.89,-339.14Z" fill="#ffffff" stroke="#000000"/>
    <path d="M-827.64,-37.69L-813.76,-193.67L-744.15,-53.40L-721.74,-57.62L-709.67,-232.30L-731.88,-233.52L-737.93,-82.65L-804.40,-217.89L-831.29,-212.84L-842.89,-62.91L-904.06,-201.12L-924.78,-191.83L-850.05,-33.47ZM-660.42,-69.15L-639.04,-73.18L-651.60,-139.93L-648.24,-172.73L-626.31,-188.13L-604.68,-182.68L-594.22,-158.70L-580.22,-84.24L-559.05,-88.23L-573.00,-162.87L-588.13,-198.93L-625.43,-207.24L-647.09,-197.78L-658.99,-179.07L-671.02,-242.99L-692.37,-238.97ZM-469.42,-190.26L-534.59,-156.03L-543.15,-124.06L-525.28,-98.58L-493.70,-95.50L-472.55,-103.90L-455.20,-122.45L-452.62,-108.25L-432.81,-111.98L-447.67,-191.10L-465.61,-225.01L-504.64,-230.46L-536.14,-216.19L-547.69,-189.23L-528.91,-182.05L-521.61,-202.72L-503.54,-212.72L-481.76,-210.57ZM-465.89,-171.49L-460.06,-140.44L-472.59,-124.47L-493.57,-113.45L-510.33,-114.58L-520.70,-129.26L-514.37,-147.71ZM-347.88,-126.26L-347.87,-126.26L-353.76,-144.10L-363.00,-140.88L-374.21,-144.14L-378.94,-159.24L-392.21,-229.76L-371.22,-233.71L-374.28,-249.98L-395.27,-246.03L-403.26,-288.49L-424.49,-284.49L-416.50,-242.04L-433.95,-238.75L-430.89,-222.48L-413.44,-225.76L-400.17,-155.24L-389.75,-126.54L-363.67,-120.94ZM-199.36,-241.07L-264.53,-206.84L-273.09,-174.87L-255.21,-149.40L-223.64,-146.31L-202.48,-154.71L-185.14,-173.27L-182.56,-159.07L-162.75,-162.79L-177.61,-241.92L-195.55,-275.82L-234.58,-281.27L-266.08,-267.00L-277.63,-240.04L-258.85,-232.86L-251.55,-253.53L-233.48,-263.54L-211.70,-261.38ZM-195.83,-222.31L-190.00,-191.26L-202.53,-175.28L-223.51,-164.26L-240.27,-165.40L-250.64,-180.07L-244.31,-198.52ZM-98.33,-285.63L-81.40,-283.35L-78.40,-302.48L-100.66,-306.43L-119.75,-296.34L-130.18,-273.93L-134.17,-295.16L-153.28,-291.57L-130.43,-170.12L-108.97,-172.91L-121.44,-239.19L-119.25,-270.22ZM-17.96,-214.19L-36.46,-244.41L54.58,-261.56L54.16,-270.28L31.66,-312.56L-14.33,-322.81L-52.64,-297.42L-59.13,-245.88L-34.35,-200.22L10.57,-190.49L43.66,-207.44L55.03,-235.76L36.57,-242.97L27.65,-219.57L8.38,-208.77ZM-38.95,-261.55L-30.92,-292.13L-10.96,-304.79L15.03,-299.09L29.68,-274.46ZM206.87,-230.64L206.87,-230.64L200.98,-248.47L191.74,-245.26L180.54,-248.52L175.81,-263.61L162.54,-334.14L183.53,-338.09L180.47,-354.36L159.48,-350.41L151.49,-392.87L130.26,-388.87L138.25,-346.42L120.79,-343.13L123.86,-326.86L141.31,-330.14L154.58,-259.62L164.99,-230.92L191.07,-225.32ZM229.72,-236.64L251.10,-240.66L238.54,-307.41L241.90,-340.21L263.83,-355.62L285.46,-350.16L295.92,-326.19L309.92,-251.73L331.09,-255.71L317.14,-330.36L302.01,-366.42L264.71,-374.72L243.05,-365.27L231.15,-346.56L219.12,-410.48L197.77,-406.46ZM382.76,-289.59L364.27,-319.81L455.30,-336.96L454.89,-345.67L432.38,-387.96L386.40,-398.21L348.09,-372.82L341.60,-321.28L366.38,-275.62L411.30,-265.89L444.39,-282.84L455.76,-311.16L437.29,-318.37L428.38,-294.96L409.10,-284.17ZM361.77,-336.95L369.81,-367.53L389.77,-380.19L415.76,-374.49L430.41,-349.86ZM505.17,-256.23L498.11,-256.12L497.57,-238.17L511.46,-238.36L532.72,-252.84L541.78,-281.31L565.90,-421.51L546.40,-425.17L529.13,-321.06L474.47,-411.63L456.69,-400.96L524.12,-293.26L521.76,-279.03L515.38,-262.91ZM663.01,-315.10L669.77,-325.19L667.46,-337.16L657.43,-344.00L645.55,-341.71L638.79,-331.62L641.10,-319.65L651.14,-312.81ZM637.82,-355.47L658.38,-359.34L657.16,-365.84L657.10,-383.62L665.92,-399.87L682.72,-423.56L686.93,-453.65L665.05,-486.18L622.45,-491.82L588.92,-471.57L580.88,-437.42L600.45,-432.65L606.30,-460.37L626.27,-472.62L650.19,-469.96L664.30,-447.90L661.70,-427.21L650.11,-410.60L636.79,-388.42L636.60,-361.97Z" fill="#ffffff" stroke="#000000"/>
    <path d="M-824.76,4.90L-818.21,-149.93L-742.95,-14.47L-720.99,-19.67L-717.10,-192.90L-739.10,-193.08L-738.14,-43.68L-810.08,-174.31L-836.42,-168.07L-840.99,-19.33L-907.82,-153.14L-927.87,-143.00L-846.71,10.09ZM-660.90,-33.90L-639.95,-38.86L-655.44,-104.26L-653.63,-136.84L-632.66,-153.08L-611.03,-148.68L-599.59,-125.46L-582.32,-52.50L-561.58,-57.41L-578.80,-130.56L-595.42,-165.51L-632.67,-172.01L-653.65,-161.66L-664.55,-142.62L-679.38,-205.25L-700.30,-200.30ZM-477.67,-162.40L-540.52,-125.56L-547.51,-93.57L-528.67,-69.20L-497.31,-67.61L-476.79,-76.89L-460.49,-96.03L-457.29,-82.10L-437.88,-86.70L-456.21,-164.23L-475.50,-196.92L-514.33,-200.52L-544.82,-184.96L-554.99,-157.78L-536.10,-151.55L-529.83,-172.31L-512.44,-183.03L-490.81,-181.90ZM-473.31,-144.01L-466.12,-113.58L-477.78,-97.22L-498.01,-85.36L-514.63,-85.71L-525.55,-99.74L-520.14,-118.27ZM-354.58,-104.72L-354.58,-104.72L-361.22,-122.08L-370.20,-118.48L-381.43,-121.19L-386.80,-135.89L-403.16,-204.99L-382.59,-209.86L-386.37,-225.81L-406.94,-220.94L-416.79,-262.54L-437.59,-257.62L-427.74,-216.02L-444.84,-211.97L-441.06,-196.02L-423.96,-200.07L-407.60,-130.97L-395.99,-103.07L-369.95,-98.73ZM-213.04,-225.05L-275.89,-188.21L-282.88,-156.22L-264.04,-131.86L-232.69,-130.26L-212.16,-139.54L-195.87,-158.68L-192.67,-144.76L-173.26,-149.35L-191.58,-226.88L-210.88,-259.57L-249.71,-263.17L-280.20,-247.61L-290.37,-220.43L-271.47,-214.20L-265.21,-234.97L-247.81,-245.68L-226.18,-244.56ZM-208.69,-206.66L-201.50,-176.23L-213.16,-159.87L-233.39,-148.01L-250.01,-148.36L-260.93,-162.39L-255.52,-180.92ZM-115.23,-273.74L-98.39,-272.27L-96.31,-291.31L-118.49,-294.20L-136.89,-283.34L-146.17,-260.71L-151.10,-281.51L-169.82,-277.08L-141.64,-158.08L-120.56,-161.83L-135.94,-226.77L-135.20,-257.55ZM-32.50,-206.82L-52.18,-235.84L37.03,-256.98L36.21,-265.58L12.03,-306.34L-33.90,-314.36L-70.60,-287.49L-74.65,-236.25L-48.06,-192.26L-3.20,-184.71L28.73,-202.98L38.67,-231.50L20.08,-237.77L12.35,-214.23L-6.21,-202.68ZM-55.43,-252.66L-48.89,-283.26L-29.74,-296.70L-3.79,-292.26L11.83,-268.59ZM188.99,-233.41L189.00,-233.42L182.35,-250.78L173.37,-247.18L162.15,-249.88L156.77,-264.59L140.41,-333.69L160.98,-338.56L157.21,-354.50L136.64,-349.64L126.79,-391.24L105.99,-386.31L115.84,-344.71L98.73,-340.66L102.51,-324.71L119.61,-328.76L135.97,-259.66L147.59,-231.77L173.62,-227.43ZM211.31,-240.40L232.26,-245.36L216.78,-310.77L218.58,-343.35L239.55,-359.58L261.19,-355.18L272.63,-331.97L289.89,-259.00L310.64,-263.92L293.41,-337.06L276.80,-372.01L239.54,-378.51L218.56,-368.17L207.66,-349.12L192.83,-411.75L171.92,-406.80ZM360.16,-299.78L340.48,-328.81L429.69,-349.95L428.87,-358.54L404.68,-399.31L358.76,-407.32L322.05,-380.46L318.01,-329.21L344.60,-285.22L389.45,-277.67L421.39,-295.94L431.33,-324.46L412.74,-330.74L405.00,-307.19L386.44,-295.64ZM337.23,-345.63L343.77,-376.23L362.92,-389.66L388.87,-385.23L404.48,-361.55ZM482.69,-272.44L475.72,-272.00L476.01,-254.24L489.73,-255.06L510.08,-270.35L517.73,-298.91L535.12,-438.61L515.68,-441.33L503.40,-337.63L445.19,-424.64L428.12,-413.28L499.72,-309.91L498.05,-295.73L492.48,-279.51ZM636.01,-337.89L642.23,-348.17L639.39,-359.90L629.16,-366.20L617.53,-363.39L611.31,-353.10L614.15,-341.38L624.38,-335.07ZM609.26,-376.64L629.40,-381.41L627.89,-387.78L627.01,-405.35L634.99,-421.82L650.51,-446.01L653.29,-475.95L630.16,-507.09L587.79,-510.72L555.57,-489.15L549.20,-455.03L568.77,-451.21L573.28,-478.89L592.45,-491.91L616.21,-490.38L631.18,-469.22L629.56,-448.65L618.87,-431.70L606.72,-409.16L607.75,-383.01Z" fill="#ffffff" stroke="#000000"/>
    <path d="M-819.62,47.03L-820.27,-106.29L-739.64,24.13L-718.18,17.98L-722.30,-153.42L-744.06,-152.59L-736.24,-4.96L-813.34,-130.77L-839.10,-123.39L-836.77,23.84L-908.98,-105.35L-928.33,-94.41L-841.08,53.18ZM-659.44,1.15L-638.96,-4.71L-657.28,-68.65L-656.99,-100.93L-637.01,-117.94L-615.42,-114.59L-603.05,-92.17L-582.63,-20.85L-562.35,-26.66L-582.74,-98.16L-600.77,-131.94L-637.89,-136.65L-658.15,-125.46L-668.05,-106.14L-685.58,-167.36L-706.03,-161.50ZM-484.24,-134.28L-544.67,-94.98L-550.11,-63.04L-530.36,-39.83L-499.30,-39.69L-479.44,-49.80L-464.21,-69.47L-460.41,-55.86L-441.43,-61.29L-463.11,-137.08L-483.69,-168.51L-522.24,-170.27L-551.65,-153.49L-560.46,-126.16L-541.49,-120.87L-536.26,-141.69L-519.56,-153.08L-498.13,-152.96ZM-479.09,-116.31L-470.59,-86.56L-481.36,-69.85L-500.80,-57.20L-517.25,-56.78L-528.69,-70.15L-524.20,-88.71ZM-359.93,-82.93L-359.93,-82.94L-367.29,-99.79L-376.00,-95.82L-387.22,-97.98L-393.21,-112.26L-412.56,-179.81L-392.45,-185.57L-396.92,-201.16L-417.02,-195.40L-428.67,-236.06L-449.00,-230.24L-437.36,-189.58L-454.07,-184.79L-449.61,-169.20L-432.89,-173.99L-413.54,-106.44L-400.78,-79.40L-374.85,-76.31ZM-225.57,-208.38L-286.00,-169.08L-291.43,-137.13L-271.69,-113.92L-240.63,-113.78L-220.77,-123.90L-205.54,-143.56L-201.74,-129.95L-182.76,-135.39L-204.44,-211.18L-225.02,-242.60L-263.56,-244.37L-292.98,-227.59L-301.79,-200.26L-282.82,-194.96L-277.58,-215.78L-260.88,-227.17L-239.45,-227.05ZM-220.42,-190.40L-211.91,-160.66L-222.68,-143.95L-242.13,-131.30L-258.58,-130.88L-270.02,-144.24L-265.52,-162.81ZM-131.13,-261.00L-114.41,-260.32L-113.23,-279.24L-135.29,-281.07L-152.98,-269.50L-161.11,-246.70L-166.94,-267.03L-185.24,-261.79L-151.92,-145.47L-131.25,-150.14L-149.44,-213.62L-150.12,-244.08ZM-46.28,-198.66L-67.06,-226.44L20.13,-251.44L18.93,-259.90L-6.85,-299.08L-52.61,-304.89L-87.65,-276.65L-89.29,-225.81L-60.99,-183.55L-16.31,-178.15L14.42,-197.68L22.93,-226.33L4.27,-231.68L-2.29,-208.05L-20.11,-195.78ZM-71.05,-242.92L-65.99,-273.47L-47.69,-287.63L-21.83,-284.43L-5.31,-261.75ZM171.42,-235.14L171.43,-235.14L164.06,-251.99L155.35,-248.02L144.13,-250.18L138.14,-264.46L118.79,-332.01L138.90,-337.77L134.43,-353.36L114.33,-347.60L102.68,-388.27L82.35,-382.44L93.99,-341.78L77.28,-336.99L81.74,-321.40L98.46,-326.19L117.81,-258.64L130.57,-231.60L156.51,-228.51ZM193.16,-243.07L213.64,-248.93L195.32,-312.87L195.61,-345.15L215.59,-362.16L237.18,-358.81L249.55,-336.39L269.97,-265.07L290.25,-270.88L269.86,-342.38L251.83,-376.16L214.71,-380.87L194.45,-369.68L184.55,-350.36L167.02,-411.58L146.57,-405.73ZM337.55,-308.61L316.77,-336.39L403.96,-361.39L402.76,-369.84L376.98,-409.02L331.22,-414.83L296.18,-386.59L294.53,-335.76L322.84,-293.50L367.52,-288.10L398.25,-307.62L406.76,-336.27L388.10,-341.62L381.53,-317.99L363.72,-305.72ZM312.78,-352.87L317.84,-383.41L336.14,-397.57L362.00,-394.38L378.52,-371.70ZM459.92,-287.21L453.05,-286.46L454.15,-268.92L467.68,-270.36L487.09,-286.41L493.34,-314.99L504.10,-453.87L484.76,-455.66L477.39,-352.60L415.86,-435.93L399.50,-423.91L475.03,-325.04L474.02,-310.95L469.27,-294.66ZM608.45,-358.96L614.13,-369.41L610.78,-380.87L600.38,-386.63L589.01,-383.31L583.34,-372.86L586.68,-361.40L597.08,-355.64ZM580.22,-396.03L599.92,-401.67L598.13,-407.90L596.46,-425.22L603.58,-441.87L617.81,-466.49L619.18,-496.21L594.89,-525.93L552.84,-527.56L521.99,-504.77L517.26,-470.75L536.78,-467.87L539.96,-495.43L558.31,-509.19L581.87,-508.77L597.63,-488.54L596.98,-468.14L587.19,-450.89L576.22,-428.05L578.44,-402.25Z" fill="#ffffff" stroke="#000000"/>
    <path d="M-812.25,88.60L-819.95,-62.90L-734.27,62.28L-713.34,55.22L-725.29,-113.99L-746.76,-112.16L-732.24,33.38L-814.23,-87.41L-839.34,-78.93L-830.27,66.46L-907.57,-57.89L-926.20,-46.19L-833.18,95.66ZM-656.06,35.89L-636.10,29.15L-657.13,-33.19L-658.33,-65.11L-639.37,-82.84L-617.88,-80.52L-604.62,-58.93L-581.16,10.62L-561.39,3.94L-584.82,-65.79L-604.20,-98.34L-641.10,-101.29L-660.61,-89.30L-669.50,-69.75L-689.65,-129.45L-709.59,-122.72ZM-489.14,-106.01L-547.06,-64.40L-550.96,-32.58L-530.38,-10.54L-499.68,-11.84L-480.51,-22.75L-466.37,-42.88L-461.98,-29.60L-443.48,-35.85L-468.39,-109.75L-490.17,-139.87L-528.35,-139.84L-556.65,-121.90L-564.09,-94.49L-545.11,-90.13L-540.89,-110.94L-524.91,-122.97L-503.72,-123.83ZM-483.23,-88.49L-473.45,-59.48L-483.33,-42.47L-501.97,-29.07L-518.20,-27.91L-530.12,-40.59L-526.53,-59.14ZM-363.92,-60.98L-363.92,-60.99L-371.97,-77.30L-380.40,-72.98L-391.59,-74.59L-398.16,-88.44L-420.39,-154.31L-400.79,-160.92L-405.92,-176.12L-425.52,-169.51L-438.90,-209.16L-458.73,-202.47L-445.35,-162.82L-461.65,-157.32L-456.52,-142.11L-440.22,-147.62L-417.99,-81.75L-404.13,-55.61L-378.36,-53.75ZM-236.91,-191.14L-294.82,-149.52L-298.72,-117.70L-278.14,-95.66L-247.44,-96.96L-228.27,-107.87L-214.13,-128.00L-209.75,-114.73L-191.24,-120.97L-216.15,-194.88L-237.93,-224.99L-276.11,-224.96L-304.41,-207.02L-311.86,-179.61L-292.87,-175.25L-288.65,-196.06L-272.67,-208.09L-251.49,-208.96ZM-230.99,-173.61L-221.22,-144.61L-231.09,-127.59L-249.73,-114.20L-265.96,-113.03L-277.89,-125.71L-274.30,-144.26ZM-145.99,-247.49L-129.44,-247.59L-129.14,-266.34L-151.03,-267.13L-167.98,-254.88L-174.97,-231.98L-181.66,-251.80L-199.50,-245.78L-161.22,-132.35L-141.02,-137.92L-161.91,-199.82L-163.98,-229.89ZM-59.27,-189.78L-81.09,-216.28L3.94,-244.99L2.37,-253.30L-24.91,-290.83L-70.41,-294.47L-103.74,-264.95L-103.03,-214.64L-73.11,-174.17L-28.70,-170.89L0.76,-191.60L7.86,-220.31L-10.83,-224.73L-16.23,-201.08L-33.27,-188.13ZM-85.78,-232.38L-82.19,-262.80L-64.75,-277.64L-39.05,-275.67L-21.68,-254.02ZM154.21,-235.84L154.21,-235.84L146.16,-252.16L137.73,-247.83L126.54,-249.45L119.97,-263.29L97.74,-329.16L117.35,-335.78L112.22,-350.98L92.61,-344.36L79.23,-384.01L59.40,-377.32L72.78,-337.67L56.48,-332.17L61.61,-316.97L77.91,-322.47L100.14,-256.60L114.00,-230.47L139.77,-228.61ZM175.33,-244.68L195.29,-251.41L174.26,-313.76L173.06,-345.68L192.02,-363.41L213.51,-361.09L226.77,-339.50L250.23,-269.95L270.00,-276.63L246.57,-346.36L227.19,-378.91L190.29,-381.86L170.78,-369.87L161.89,-350.32L141.74,-410.02L121.80,-403.29ZM315.01,-316.09L293.19,-342.59L378.22,-371.30L376.65,-379.60L349.37,-417.14L303.87,-420.78L270.54,-391.26L271.25,-340.94L301.17,-300.48L345.58,-297.20L375.04,-317.91L382.14,-346.61L363.45,-351.04L358.05,-327.39L341.01,-314.44ZM288.50,-358.69L292.09,-389.11L309.53,-403.95L335.23,-401.98L352.60,-380.32ZM436.94,-300.57L430.18,-299.52L432.07,-282.22L445.37,-284.28L463.82,-301.03L468.68,-329.56L472.93,-467.31L453.74,-468.19L451.19,-365.99L386.55,-445.52L370.93,-432.89L450.12,-338.65L449.78,-324.67L445.83,-308.36ZM580.43,-378.31L585.55,-388.89L581.72,-400.07L571.18,-405.28L560.09,-401.48L554.97,-390.89L558.80,-379.72L569.34,-374.50ZM550.82,-413.65L570.03,-420.13L567.98,-426.20L565.53,-443.24L571.80,-460.02L584.73,-485.01L584.72,-514.45L559.34,-542.70L517.71,-542.38L488.27,-518.43L485.16,-484.59L504.58,-482.65L506.46,-510.03L523.96,-524.48L547.27,-525.14L563.78,-505.88L564.07,-485.68L555.19,-468.19L545.40,-445.11L548.78,-419.72Z" fill="#ffffff" stroke="#000000"/>
    <path d="M-802.72,129.48L-817.29,-19.88L-726.86,99.89L-706.51,91.94L-726.10,-74.71L-747.23,-71.92L-726.19,71.23L-812.76,-44.36L-837.19,-34.83L-821.54,108.43L-903.65,-10.90L-921.51,1.52L-823.07,137.42ZM-650.80,70.21L-631.37,62.63L-655.03,1.99L-657.68,-29.50L-639.76,-47.89L-618.42,-46.58L-604.32,-25.86L-577.94,41.79L-558.71,34.28L-585.07,-33.55L-605.72,-64.82L-642.32,-66.04L-661.04,-53.29L-668.93,-33.56L-691.59,-91.63L-710.98,-84.07ZM-492.37,-77.69L-547.69,-33.90L-550.08,-2.28L-528.74,18.55L-498.45,15.85L-480.02,4.19L-466.97,-16.35L-462.02,-3.43L-444.02,-10.46L-472.04,-82.34L-494.95,-111.10L-532.67,-109.31L-559.81,-90.29L-565.91,-62.86L-546.95,-59.42L-543.73,-80.18L-528.50,-92.80L-507.60,-94.63ZM-485.72,-60.65L-474.73,-32.43L-483.71,-15.17L-501.51,-1.07L-517.50,0.83L-529.86,-11.16L-527.17,-29.66ZM-366.56,-38.95L-366.56,-38.96L-375.27,-54.71L-383.40,-50.05L-394.53,-51.13L-401.66,-64.51L-426.66,-128.58L-407.59,-136.02L-413.35,-150.80L-432.42,-143.36L-447.47,-181.93L-466.76,-174.41L-451.71,-135.84L-467.57,-129.65L-461.80,-114.87L-445.94,-121.05L-420.95,-56.99L-406.05,-31.80L-380.50,-31.14ZM-247.03,-173.41L-302.35,-129.62L-304.74,-97.99L-283.39,-77.17L-253.11,-79.86L-234.68,-91.52L-221.63,-112.07L-216.68,-99.15L-198.68,-106.17L-226.70,-178.06L-249.60,-206.81L-287.33,-205.03L-314.47,-186.00L-320.57,-158.57L-301.61,-155.13L-298.39,-175.89L-283.15,-188.51L-262.26,-190.35ZM-240.38,-156.36L-229.39,-128.15L-238.36,-110.88L-256.17,-96.79L-272.15,-94.89L-284.52,-106.87L-281.83,-125.37ZM-159.78,-233.28L-143.43,-234.13L-144.00,-252.67L-165.66,-252.45L-181.85,-239.57L-187.70,-216.61L-195.23,-235.90L-212.58,-229.13L-169.54,-118.80L-149.83,-125.23L-173.32,-185.44L-176.75,-215.05ZM-71.43,-180.23L-94.21,-205.42L-11.51,-237.70L-13.45,-245.83L-42.13,-281.67L-87.25,-283.17L-118.84,-252.47L-115.82,-202.78L-84.39,-164.18L-40.36,-162.97L-12.19,-184.79L-6.50,-213.48L-25.18,-217.00L-29.42,-193.38L-45.67,-179.80ZM-99.59,-221.11L-97.44,-251.34L-80.89,-266.80L-55.40,-266.04L-37.24,-245.44ZM137.40,-235.56L137.40,-235.57L128.70,-251.32L120.57,-246.66L109.44,-247.74L102.30,-261.12L77.31,-325.19L96.38,-332.63L90.61,-347.41L71.54,-339.97L56.50,-378.54L37.21,-371.02L52.26,-332.45L36.40,-326.26L42.17,-311.48L58.03,-317.66L83.02,-253.59L97.91,-228.41L123.47,-227.75ZM157.86,-245.27L177.29,-252.84L153.63,-313.48L150.98,-344.97L168.90,-363.36L190.24,-362.06L204.34,-341.34L230.72,-273.69L249.95,-281.19L223.59,-349.02L202.95,-380.30L166.34,-381.52L147.62,-368.77L139.73,-349.04L117.07,-407.11L97.68,-399.54ZM292.61,-322.26L269.84,-347.44L352.54,-379.73L350.60,-387.86L321.92,-423.70L276.79,-425.20L245.21,-394.50L248.23,-344.81L279.66,-306.20L323.69,-305.00L351.85,-326.82L357.54,-355.51L338.87,-359.02L334.62,-335.40L318.38,-321.82ZM264.45,-363.14L266.61,-393.36L283.16,-408.83L308.65,-408.06L326.81,-387.46ZM413.81,-312.53L407.18,-311.18L409.85,-294.18L422.90,-296.82L440.36,-314.22L443.85,-342.63L441.71,-478.95L422.71,-478.94L424.89,-377.83L357.35,-453.45L342.51,-440.25L425.09,-350.76L425.40,-336.94L422.24,-320.63ZM552.03,-395.94L556.61,-406.64L552.31,-417.51L541.65,-422.17L530.87,-417.91L526.30,-407.21L530.59,-396.34L541.26,-391.68ZM521.15,-429.50L539.83,-436.79L537.53,-442.70L534.32,-459.43L539.75,-476.30L551.38,-501.59L550.01,-530.67L523.64,-557.43L482.51,-555.19L454.52,-530.18L453.01,-496.59L472.29,-495.56L472.88,-522.71L489.51,-537.79L512.51,-539.52L529.71,-521.24L530.93,-501.30L522.96,-483.60L514.35,-460.35L518.85,-435.41Z" fill="#ffffff" stroke="#000000"/>
    <path d="M-791.06,169.55L-812.32,22.64L-717.47,136.82L-697.73,128.04L-724.74,-35.73L-745.49,-32.00L-718.13,108.48L-808.98,-1.75L-832.68,8.79L-810.63,149.62L-897.24,35.49L-914.32,48.58L-810.81,178.33ZM-643.68,104.00L-624.84,95.62L-651.00,36.80L-655.07,5.81L-638.20,-13.19L-617.06,-12.88L-602.18,6.95L-573.00,72.57L-554.34,64.27L-583.51,-1.53L-605.34,-31.49L-641.56,-31.01L-659.48,-17.55L-666.37,2.30L-691.42,-54.03L-710.24,-45.66ZM-493.95,-49.42L-546.59,-3.61L-547.50,27.75L-525.45,47.35L-495.65,43.29L-477.97,30.92L-466.02,10.02L-460.55,22.56L-443.08,14.79L-474.07,-54.95L-498.02,-82.30L-535.22,-78.81L-561.16,-58.76L-565.92,-31.37L-547.03,-28.85L-544.81,-49.51L-530.33,-62.68L-509.77,-65.45ZM-486.59,-32.88L-474.43,-5.51L-482.51,11.96L-499.45,26.71L-515.16,29.32L-527.93,18.05L-526.12,-0.35ZM-367.86,-16.92L-367.86,-16.93L-377.18,-32.09L-385.00,-27.11L-396.05,-27.67L-403.71,-40.56L-431.35,-102.71L-412.85,-110.94L-419.23,-125.28L-437.73,-117.06L-454.37,-154.47L-473.08,-146.15L-456.44,-108.74L-471.82,-101.90L-465.44,-87.55L-450.06,-94.39L-422.42,-32.24L-406.55,-8.04L-381.27,-8.57ZM-255.93,-155.27L-308.58,-109.46L-309.49,-78.10L-287.44,-58.50L-257.64,-62.56L-239.96,-74.92L-228.01,-95.83L-222.53,-83.29L-205.07,-91.05L-236.06,-160.80L-260.01,-188.15L-297.20,-184.66L-323.15,-164.61L-327.91,-137.22L-309.02,-134.70L-306.80,-155.36L-292.32,-168.53L-271.76,-171.30ZM-248.58,-138.73L-236.42,-111.36L-244.50,-93.89L-261.44,-79.14L-277.15,-76.53L-289.92,-87.80L-288.11,-106.20ZM-172.48,-218.43L-156.36,-220.03L-157.78,-238.32L-179.17,-237.11L-194.57,-223.63L-199.30,-200.68L-207.62,-219.39L-224.46,-211.91L-176.86,-104.87L-157.68,-112.13L-183.65,-170.54L-188.41,-199.65ZM-82.75,-170.08L-106.41,-193.92L-26.18,-229.62L-28.47,-237.57L-58.46,-271.66L-103.11,-271.07L-132.91,-239.28L-127.64,-190.32L-94.81,-153.62L-51.25,-154.46L-24.42,-177.31L-20.12,-205.92L-38.73,-208.54L-41.84,-185.00L-57.27,-170.84ZM-112.45,-209.18L-111.71,-239.15L-96.07,-255.19L-70.85,-255.60L-51.96,-236.08ZM121.05,-234.35L121.05,-234.36L111.73,-249.52L103.91,-244.54L92.86,-245.10L85.20,-257.99L57.56,-320.14L76.06,-328.37L69.68,-342.71L51.18,-334.49L34.54,-371.90L15.83,-363.58L32.47,-326.17L17.09,-319.33L23.47,-304.98L38.85,-311.82L66.49,-249.67L82.36,-225.47L107.64,-226.00ZM140.82,-244.88L159.67,-253.26L133.50,-312.09L129.44,-343.08L146.30,-362.08L167.44,-361.77L182.33,-341.94L211.50,-276.32L230.16,-284.61L200.99,-350.42L179.16,-380.38L142.94,-379.90L125.02,-366.44L118.13,-346.59L93.08,-402.92L74.26,-394.55ZM270.43,-327.15L246.76,-350.99L326.99,-386.69L324.70,-394.63L294.71,-428.72L250.06,-428.13L220.27,-396.35L225.53,-347.39L258.36,-310.69L301.92,-311.52L328.75,-334.38L333.05,-362.99L314.44,-365.60L311.33,-342.07L295.91,-327.91ZM240.72,-366.25L241.46,-396.21L257.10,-412.25L282.32,-412.67L301.21,-393.15ZM390.62,-323.11L384.13,-321.47L387.55,-304.79L400.32,-308.00L416.77,-326.00L418.92,-354.23L410.54,-488.83L391.76,-487.95L398.56,-388.14L328.36,-459.75L314.30,-446.03L400.01,-361.41L400.95,-347.76L398.58,-331.51ZM523.36,-411.88L527.39,-422.66L522.64,-433.20L511.90,-437.32L501.44,-432.61L497.41,-421.83L502.16,-411.29L512.91,-407.17ZM491.31,-443.62L509.43,-451.68L506.88,-457.41L502.94,-473.79L507.53,-490.71L517.85,-516.23L515.17,-544.91L487.88,-570.13L447.35,-566.04L420.84,-540.03L420.89,-506.78L439.99,-506.65L439.33,-533.50L455.07,-549.16L477.71,-551.93L495.54,-534.66L497.67,-515.01L490.60,-497.16L483.16,-473.79L488.76,-449.35Z" fill="#ffffff" stroke="#000000"/>
    <path d="M-777.34,208.70L-805.10,64.54L-706.15,172.99L-687.04,163.40L-721.26,2.85L-741.59,7.49L-708.10,145.02L-802.92,40.29L-825.85,51.79L-797.59,189.91L-888.41,81.14L-904.68,94.86L-796.45,218.29ZM-634.75,137.17L-616.52,128.03L-645.07,71.11L-650.52,40.68L-634.73,21.14L-613.83,20.47L-598.21,39.38L-566.37,102.87L-548.32,93.82L-580.16,30.14L-603.11,1.55L-638.87,3.69L-655.95,17.81L-661.85,37.74L-689.19,-16.76L-707.39,-7.63ZM-493.88,-21.28L-543.78,26.40L-543.24,57.42L-520.55,75.76L-491.30,70.39L-474.40,57.36L-463.56,36.16L-457.57,48.29L-440.68,39.82L-474.49,-27.66L-499.42,-53.58L-536.00,-48.42L-560.71,-27.42L-564.16,-0.15L-545.37,1.48L-544.13,-19.04L-530.43,-32.71L-510.25,-36.40ZM-485.85,-5.28L-472.58,21.20L-479.76,38.83L-495.82,54.18L-511.22,57.48L-524.35,46.93L-523.41,28.67ZM-367.82,5.03L-367.82,5.02L-377.73,-9.53L-385.22,-4.25L-396.16,-4.29L-404.33,-16.68L-434.49,-76.81L-416.59,-85.79L-423.55,-99.67L-441.45,-90.69L-459.61,-126.89L-477.71,-117.81L-459.55,-81.61L-474.43,-74.14L-467.47,-60.27L-452.59,-67.73L-422.43,-7.60L-405.63,15.58L-380.68,13.90ZM-263.60,-136.79L-313.50,-89.12L-312.96,-58.10L-290.28,-39.75L-261.03,-45.12L-244.13,-58.16L-233.28,-79.36L-227.29,-67.22L-210.40,-75.70L-244.22,-143.17L-269.14,-169.10L-305.72,-163.93L-330.43,-142.94L-333.88,-115.66L-315.10,-114.04L-313.86,-134.55L-300.16,-148.23L-279.97,-151.91ZM-255.58,-120.79L-242.31,-94.31L-249.48,-76.68L-265.54,-61.33L-280.94,-58.03L-294.07,-68.58L-293.13,-86.84ZM-184.05,-203.03L-168.21,-205.35L-170.45,-223.36L-191.53,-221.18L-206.12,-207.16L-209.74,-184.27L-218.82,-202.37L-235.11,-194.20L-183.16,-90.64L-164.55,-98.70L-192.90,-155.21L-198.93,-183.75ZM-93.18,-159.40L-117.66,-181.86L-40.03,-220.82L-42.66,-228.56L-73.86,-260.86L-117.94,-258.23L-145.92,-225.45L-138.46,-177.33L-104.35,-142.58L-61.35,-145.41L-35.90,-169.22L-32.96,-197.68L-51.47,-199.41L-53.46,-176.02L-68.05,-161.31ZM-124.33,-196.66L-124.97,-226.29L-110.26,-242.86L-85.36,-244.43L-65.80,-226.01ZM105.20,-232.26L105.21,-232.26L95.29,-246.82L87.80,-241.54L76.86,-241.58L68.70,-253.96L38.53,-314.10L56.43,-323.07L49.47,-336.95L31.57,-327.97L13.41,-364.17L-4.69,-355.09L13.47,-318.89L-1.41,-311.43L5.55,-297.55L20.43,-305.02L50.60,-244.88L67.39,-221.70L92.34,-223.39ZM124.25,-243.57L142.48,-252.71L113.93,-309.63L108.49,-340.06L124.27,-359.60L145.18,-360.27L160.79,-341.37L192.63,-277.87L210.69,-286.93L178.84,-350.60L155.90,-379.19L120.14,-377.05L103.05,-362.94L97.16,-343.00L69.82,-397.50L51.62,-388.37ZM248.51,-330.80L224.04,-353.26L301.66,-392.22L299.03,-399.97L267.84,-432.27L223.75,-429.63L195.77,-396.86L203.23,-348.73L237.35,-313.98L280.34,-316.81L305.80,-340.62L308.73,-369.09L290.23,-370.81L288.24,-347.42L273.65,-332.72ZM217.37,-368.06L216.72,-397.70L231.44,-414.26L256.33,-415.84L275.89,-397.42ZM367.44,-332.34L361.11,-330.42L365.25,-314.10L377.72,-317.86L393.15,-336.39L393.97,-364.39L379.51,-496.97L360.99,-495.24L372.30,-396.95L299.65,-464.47L286.39,-450.26L374.96,-370.60L376.51,-357.16L374.92,-341.00ZM494.50,-426.14L497.99,-436.98L492.81,-447.17L482.01,-450.75L471.90,-445.61L468.41,-434.77L473.58,-424.58L484.39,-421.01ZM461.37,-456.02L478.91,-464.82L476.13,-470.36L471.48,-486.36L475.24,-503.29L484.26,-528.98L480.29,-557.19L452.18,-580.85L412.32,-574.94L387.33,-548.03L388.90,-515.18L407.78,-515.93L405.89,-542.43L420.72,-558.62L442.96,-562.40L461.38,-546.16L464.38,-526.84L458.22,-508.88L451.94,-485.45L458.59,-461.57Z" fill="#ffffff" stroke="#000000"/>
    <path d="M-906.35,492L-906.35,469.28L-898.22,492L-894.99,492L-886.86,469.28L-886.86,492L-883.25,492L-883.25,464.64L-888.22,464.64L-896.55,487.33L-904.68,464.64L-909.96,464.64L-909.96,492ZM-865.67,478.75L-876.82,482.17L-879.09,486.89L-877.05,491.38L-872.23,492.78L-868.69,492.09L-865.45,489.71L-865.46,492L-862.27,492L-862.27,479.25L-864.06,473.45L-869.98,471.46L-875.30,472.76L-877.88,476.62L-875.17,478.28L-873.43,475.28L-870.33,474.25L-867.00,475.23ZM-865.67,481.77L-865.68,486.77L-868.09,488.89L-871.68,489.99L-874.26,489.33L-875.44,486.74L-873.91,484.05ZM-857.12,492L-853.70,492L-853.70,481.25L-852.22,476.17L-848.35,474.41L-845.15,475.90L-844.22,479.88L-844.22,492L-840.80,492L-840.80,479.88L-842.09,473.85L-847.66,471.47L-851.35,472.28L-854.04,475.09L-854.04,472.24L-857.12,472.24ZM-833.34,468.94L-832.11,467.58L-832.10,465.65L-833.36,464.27L-835.12,464.27L-836.35,465.65L-836.35,467.58L-835.10,468.94ZM-832.52,492L-832.52,472.24L-835.94,472.24L-835.94,492ZM-818.31,468.12L-817.85,465.29L-820.94,464.71L-825.30,466.41L-826.70,471.29L-826.70,472.24L-829.67,472.24L-829.67,474.86L-826.70,474.86L-826.70,492L-823.40,492L-823.40,474.86L-819.56,474.86L-819.56,472.24L-823.40,472.24L-823.40,471.21L-822.75,468.65L-820.52,467.74ZM-807.97,471.46L-814.77,474.29L-817.39,482.12L-814.77,489.95L-807.97,492.78L-801.17,489.95L-798.55,482.12L-801.16,474.29ZM-807.97,489.87L-812.08,488.06L-813.90,482.12L-812.08,476.18L-807.97,474.37L-803.85,476.18L-802.04,482.12L-803.85,488.06ZM-795.03,492L-791.61,492L-791.61,481.25L-790.13,476.17L-786.26,474.41L-783.06,475.90L-782.13,479.88L-782.13,492L-778.71,492L-778.71,479.88L-780.00,473.85L-785.56,471.47L-789.26,472.28L-791.95,475.09L-791.95,472.24L-795.03,472.24ZM-765.45,492.27L-765.45,492.26L-765.85,489.32L-767.38,489.55L-769.03,488.71L-769.32,486.22L-769.32,474.86L-765.94,474.86L-765.94,472.24L-769.32,472.24L-769.32,465.40L-772.74,465.40L-772.74,472.24L-775.55,472.24L-775.55,474.86L-772.74,474.86L-772.74,486.22L-771.96,491.00L-768.07,492.63ZM-737.50,487.93L-737.50,478.13L-749.05,478.13L-749.05,481.31L-740.99,481.31L-740.97,486.22L-748.63,489.75L-755.95,486.41L-758.55,478.32L-756.06,470.17L-749.21,466.88L-744.27,468.25L-741.30,473.01L-738.24,471.11L-741.44,465.93L-749.13,463.79L-758.98,468.04L-762.42,478.32L-758.78,488.60L-748.74,492.86ZM-724.35,474.77L-721.78,475.62L-720.76,472.73L-724.11,471.47L-727.37,472.48L-729.65,475.66L-729.65,472.24L-732.73,472.24L-732.73,491.81L-729.31,492L-729.31,481.32L-728.06,476.56ZM-710.01,471.46L-716.81,474.29L-719.42,482.12L-716.81,489.95L-710.01,492.78L-703.20,489.95L-700.58,482.12L-703.20,474.29ZM-710.01,489.87L-714.12,488.06L-715.93,482.12L-714.12,476.18L-710.01,474.37L-705.89,476.18L-704.07,482.12L-705.89,488.06ZM-688.58,492.27L-688.58,492.26L-688.97,489.32L-690.51,489.55L-692.15,488.71L-692.45,486.22L-692.45,474.86L-689.07,474.86L-689.07,472.24L-692.45,472.24L-692.45,465.40L-695.87,465.40L-695.87,472.24L-698.68,472.24L-698.68,474.86L-695.87,474.86L-695.87,486.22L-695.09,491.00L-691.19,492.63ZM-680.57,488.24L-682.57,483.00L-667.90,482.99L-667.71,481.63L-669.97,474.39L-676.83,471.45L-683.53,474.28L-686.05,482.11L-683.53,489.93L-676.83,492.76L-671.18,491.10L-668.58,487.02L-671.25,485.36L-673.32,488.74L-676.63,489.86ZM-682.45,480.26L-680.31,475.73L-676.83,474.35L-672.95,476.00L-671.40,480.26ZM-661.99,485.88L-664.90,487.24L-662.96,491.11L-657.11,492.78L-651.52,491.39L-648.97,486.66L-650.50,482.61L-653.83,480.90L-658.44,479.65L-661.00,478.62L-661.84,477.05L-660.74,475.10L-657.52,474.38L-654.42,475.23L-653.09,477.74L-650.21,476.38L-651.88,473.07L-657.39,471.46L-662.84,472.86L-665.18,477.43L-663.66,481.06L-660.23,482.69L-655.36,483.98L-653.07,485.13L-652.46,486.96L-653.99,489.26L-656.99,489.87L-660.63,488.67ZM-641.92,483.45L-638.72,483.45L-637.20,484.67L-633.14,492.30L-630.05,490.63L-634.16,483.45L-636.67,482.04L-634.62,480.06L-632.77,476.14L-631.66,475.64L-630.10,475.39L-630.56,472.24L-633.40,472.52L-635.30,474.17L-637.43,478.82L-638.72,480.60L-641.91,480.60L-641.91,464.64L-643.66,464.64L-645.32,464.64L-645.33,492L-641.92,492ZM-625.58,492.01L-615.04,492.01L-607.42,490.45L-604.53,484.21L-606.06,480.03L-610.31,477.70L-606.80,475.27L-605.82,471.62L-608.58,466.13L-615.58,464.63L-625.58,464.63ZM-621.94,476.42L-621.95,467.89L-616.40,467.89L-611.64,468.44L-609.62,472.08L-611.57,475.51L-615.93,476.42ZM-621.94,488.79L-621.94,479.64L-615.54,479.64L-610.64,480.53L-608.45,484.21L-610.32,488.02L-615.04,488.79ZM-592.40,471.46L-599.20,474.29L-601.81,482.12L-599.20,489.95L-592.40,492.78L-585.59,489.95L-582.97,482.12L-585.59,474.29ZM-592.40,489.87L-596.51,488.06L-598.32,482.12L-596.51,476.18L-592.40,474.37L-588.28,476.18L-586.46,482.12L-588.28,488.06ZM-571.27,471.46L-578.07,474.29L-580.68,482.12L-578.07,489.95L-571.27,492.78L-564.46,489.95L-561.85,482.12L-564.46,474.29ZM-571.27,489.87L-575.38,488.06L-577.19,482.12L-575.38,476.18L-571.27,474.37L-567.15,476.18L-565.33,482.12L-567.15,488.06ZM-554.82,483.45L-551.62,483.45L-550.10,484.67L-546.04,492.30L-542.96,490.63L-547.06,483.45L-549.57,482.04L-547.52,480.06L-545.67,476.14L-544.56,475.64L-543.00,475.39L-543.46,472.24L-546.31,472.52L-548.20,474.17L-550.34,478.82L-551.62,480.60L-554.82,480.60L-554.82,464.64L-556.56,464.64L-558.23,464.64L-558.23,492L-554.82,492Z"/>
</svg>