<?xml version="1.0"?>
<svg xmlns="http://www.w3.org/2000/svg" width="1920" height="1080" viewBox="-960 -540 1920 1080">
    <path d="M-560,-270L-560,-300L-540,-360L-490,-400L-470,-400L-450,-380L-450,-350L-430,-350L-410,-370L-420,-390L-470,-410L-500,-410L-540,-390L-570,-360L-590,-330L-600,-280L-580,-230L-540,-210L-500,-210L-470,-230L-440,-260L-450,-270L-480,-240L-510,-220L-530,-220L-550,-230ZM-400,-230L-310,-420L-380,-420L-380,-410L-350,-410L-430,-230L-430,-220L-410,-210L-380,-220L-330,-270L-340,-280L-390,-230ZM-220,-370L-210,-370L-200,-390L-200,-400L-220,-410L-230,-410L-240,-390L-240,-380ZM-330,-290L-320,-280L-270,-330L-260,-330L-320,-230L-320,-220L-310,-210L-290,-210L-270,-220L-220,-270L-230,-280L-280,-230L-290,-230L-230,-330L-230,-340L-250,-350L-280,-340ZM-60,-300L-40,-320L-20,-330L-10,-320L-60,-230L-60,-220L-50,-210L-30,-210L-10,-220L40,-270L30,-280L-20,-230L-30,-230L20,-310L20,-340L-10,-350L-40,-340L-60,-320L-60,-340L-80,-350L-110,-340L-140,-310L-130,-330L-130,-340L-140,-350L-170,-340L-220,-290L-210,-280L-160,-330L-150,-330L-210,-220L-200,-210L-180,-210L-140,-290L-110,-320L-90,-330L-80,-320L-130,-220L-120,-210L-100,-210ZM200,-340L190,-350L170,-320L160,-340L120,-350L70,-310L50,-260L60,-220L80,-210L100,-210L130,-240L130,-220L140,-210L170,-220L220,-270L210,-280L160,-230L150,-230ZM100,-230L90,-230L80,-260L100,-300L130,-330L150,-330L160,-310L160,-300L130,-260ZM250,-230L300,-330L330,-330L330,-340L300,-340L320,-380L300,-380L290,-350L270,-340L250,-340L250,-330L270,-330L220,-230L220,-220L230,-210L250,-210L270,-220L320,-270L310,-280L260,-230ZM470,-300L470,-320L460,-340L420,-350L370,-320L340,-260L350,-220L370,-210L390,-210L410,-220L450,-260L440,-270L400,-230L380,-230L370,-260L390,-300L420,-330L440,-330L440,-300L420,-290L390,-290L390,-280L440,-280ZM-675,-158L-655,-138L-705,22L-735,42L-615,42L-575,22L-545,-8L-525,-38L-515,-88L-535,-138L-585,-158ZM-555,-68L-575,-8L-605,22L-625,32L-665,32L-675,22L-625,-138L-615,-148L-585,-148L-565,-138L-555,-98ZM-375,-48L-375,-68L-385,-88L-425,-98L-475,-68L-505,-8L-495,32L-475,42L-455,42L-435,32L-395,-8L-405,-18L-445,22L-465,22L-475,-8L-455,-48L-425,-78L-405,-78L-405,-48L-425,-38L-455,-38L-455,-28L-405,-28ZM-355,32L-355,2L-365,-8L-385,2L-385,32L-365,42L-345,42L-315,32L-295,12L-295,-8L-305,-58L-305,-78L-285,-88L-285,-58L-275,-48L-255,-58L-255,-88L-285,-98L-325,-88L-335,-68L-335,-48L-325,-8L-325,12L-345,32ZM-145,-118L-135,-118L-125,-138L-125,-148L-145,-158L-155,-158L-165,-138L-165,-128ZM-255,-38L-245,-28L-195,-78L-185,-78L-245,22L-245,32L-235,42L-215,42L-195,32L-145,-18L-155,-28L-205,22L-215,22L-155,-78L-155,-88L-175,-98L-205,-88ZM-125,12L-125,22L-115,32L-165,52L-175,72L-165,102L-125,122L-105,122L-65,112L-45,82L-45,62L-95,22L-95,12L-65,12L-15,-18L-5,-48L-15,-78L15,-78L15,-88L-25,-88L-65,-98L-115,-68L-125,-38L-105,2ZM-65,-78L-45,-78L-35,-48L-35,-38L-65,-8L-85,-8L-95,-38L-95,-48ZM-105,42L-75,72L-75,92L-105,112L-135,92L-145,72L-135,52ZM5,-38L15,-28L65,-78L75,-78L15,32L25,42L45,42L85,-38L115,-68L135,-78L145,-68L95,22L95,32L105,42L125,42L145,32L195,-18L185,-28L135,22L125,22L175,-58L175,-88L145,-98L115,-88L85,-58L95,-78L95,-88L85,-98L55,-88ZM335,-48L335,-68L325,-88L285,-98L235,-68L205,-8L215,32L235,42L255,42L275,32L315,-8L305,-18L265,22L245,22L235,-8L255,-48L285,-78L305,-78L305,-48L285,-38L255,-38L255,-28L305,-28ZM335,-38L345,-28L395,-78L405,-78L345,32L355,42L375,42L415,-38L445,-58L475,-58L485,-88L465,-98L445,-88L415,-48L405,-48L425,-78L425,-88L415,-98L385,-88ZM485,32L485,2L475,-8L455,2L455,32L475,42L495,42L525,32L545,12L545,-8L535,-58L535,-78L555,-88L555,-58L565,-48L585,-58L585,-88L555,-98L515,-88L505,-68L505,-48L515,-8L515,12L495,32ZM-545,94L-625,334L-565,334L-565,324L-595,314L-595,294L-535,114L-485,104L-485,94ZM-415,294L-405,294L-385,284L-335,234L-345,224L-395,274L-405,274L-315,84L-385,84L-385,94L-355,94L-385,184L-395,164L-435,154L-485,194L-505,244L-495,284L-475,294L-455,294L-425,264L-425,284ZM-455,274L-465,274L-475,244L-455,204L-425,174L-405,174L-395,194L-395,204L-425,244ZM-285,294L-265,294L-215,264L-185,204L-205,164L-245,154L-295,184L-325,244L-305,284ZM-245,174L-225,174L-215,204L-235,244L-265,274L-285,274L-295,244L-275,204ZM-145,274L-95,174L-65,174L-65,164L-95,164L-75,124L-95,124L-105,154L-125,164L-145,164L-145,174L-125,174L-175,274L-175,284L-165,294L-145,294L-125,284L-75,234L-85,224L-135,274ZM-35,334L45,94L-15,94L-15,104L15,114L15,134L-45,314L-95,324L-95,334ZM155,294L175,294L225,264L255,204L235,164L195,154L145,184L115,244L135,284ZM195,174L215,174L225,204L205,244L175,274L155,274L145,244L165,204ZM265,214L275,224L325,174L335,174L275,284L285,294L305,294L345,214L375,194L405,194L415,164L395,154L375,164L345,204L335,204L355,174L355,164L345,154L315,164ZM415,264L415,274L425,284L375,304L365,324L375,354L415,374L435,374L475,364L495,334L495,314L445,274L445,264L475,264L525,234L535,204L525,174L555,174L555,164L515,164L475,154L425,184L415,214L435,254ZM475,174L495,174L505,204L505,214L475,244L455,244L445,214L445,204ZM435,294L465,324L465,344L435,364L405,344L395,324L405,304Z" fill="#ffffff" stroke="#000000"/>
    <path d="M-559.49,-266.12L-559.40,-295.82L-539.41,-355.15L-489.78,-394.60L-469.98,-394.53L-450.25,-374.67L-450.34,-344.97L-430.54,-344.91L-410.68,-364.64L-420.51,-384.47L-469.95,-404.43L-499.65,-404.53L-539.31,-384.85L-569.11,-355.25L-589.00,-325.61L-599.06,-276.14L-579.42,-226.58L-539.88,-206.65L-500.28,-206.53L-470.52,-226.23L-440.73,-255.84L-450.59,-265.77L-480.39,-236.17L-510.15,-216.46L-529.95,-216.52L-549.72,-226.49ZM-401.22,-226.01L-311.52,-413.83L-380.82,-414.05L-380.85,-404.15L-351.15,-404.05L-430.92,-226.11L-430.95,-216.21L-411.18,-206.24L-381.45,-216.05L-331.79,-265.39L-341.66,-275.32L-391.32,-225.98ZM-222.58,-364.04L-212.68,-364.01L-202.72,-383.78L-202.68,-393.68L-222.45,-403.64L-232.35,-403.67L-242.32,-383.91L-242.35,-374.01ZM-331.73,-285.19L-321.86,-275.26L-272.20,-324.60L-262.31,-324.57L-322.02,-225.76L-322.05,-215.86L-312.18,-205.93L-292.38,-205.86L-272.55,-215.70L-222.89,-265.04L-232.76,-274.97L-282.42,-225.63L-292.32,-225.66L-232.61,-324.47L-232.57,-334.37L-252.34,-344.34L-282.07,-334.53ZM-64.40,-294.24L-44.54,-313.97L-24.71,-323.81L-14.84,-313.88L-64.62,-224.94L-64.65,-215.04L-54.79,-205.11L-34.99,-205.04L-15.15,-214.88L34.50,-264.22L24.64,-274.15L-25.02,-224.81L-34.92,-224.84L14.83,-303.88L14.93,-333.58L-14.74,-343.58L-44.47,-333.77L-64.34,-314.04L-64.27,-333.84L-84.04,-343.80L-113.77,-333.99L-143.57,-304.39L-133.61,-324.16L-133.57,-334.06L-143.44,-343.99L-173.17,-334.18L-222.83,-284.84L-212.96,-274.91L-163.31,-324.25L-153.41,-324.22L-213.15,-215.51L-203.28,-205.58L-183.48,-205.52L-143.63,-284.59L-113.84,-314.20L-94.01,-324.03L-84.14,-314.10L-133.95,-215.26L-124.09,-205.33L-104.29,-205.26ZM193.12,-333.02L183.26,-342.95L163.36,-313.31L153.52,-333.14L113.96,-343.17L64.33,-303.73L44.37,-254.29L54.15,-214.66L73.91,-204.70L93.71,-204.63L123.51,-234.24L123.45,-214.44L133.31,-204.51L163.05,-214.31L212.70,-263.65L202.83,-273.58L153.18,-224.24L143.28,-224.27ZM93.78,-224.43L83.88,-224.46L74.07,-254.19L94.00,-293.73L123.79,-323.34L143.59,-323.27L153.43,-303.44L153.40,-293.54L123.57,-254.04ZM242.28,-223.96L292.09,-322.80L321.79,-322.70L321.82,-332.60L292.12,-332.70L312.05,-372.24L292.25,-372.30L282.26,-342.63L262.42,-332.79L242.62,-332.86L242.59,-322.96L262.39,-322.89L212.58,-224.05L212.54,-214.15L222.41,-204.22L242.21,-204.16L262.04,-213.99L311.70,-263.34L301.83,-273.27L252.18,-223.93ZM460.30,-292.56L460.36,-312.36L450.52,-332.19L410.95,-342.22L361.36,-312.68L331.47,-253.37L341.24,-213.74L361.01,-203.78L380.81,-203.72L400.64,-213.55L440.37,-253.03L430.50,-262.96L390.78,-223.48L370.98,-223.55L361.17,-253.28L381.10,-292.81L410.89,-322.42L430.69,-322.36L430.60,-292.66L410.77,-282.82L381.07,-282.91L381.03,-273.01L430.53,-272.86ZM-673.70,-155.60L-653.96,-135.74L-703.97,22.50L-733.73,42.21L-614.93,42.59L-575.27,22.91L-545.47,-6.69L-525.58,-36.33L-515.52,-85.80L-535.16,-135.36L-584.60,-155.32ZM-555.18,-66.12L-575.17,-6.79L-604.97,22.82L-624.80,32.66L-664.40,32.53L-674.27,22.60L-624.26,-135.64L-614.33,-145.51L-584.63,-145.42L-564.86,-135.45L-555.09,-95.82ZM-377.05,-45.75L-376.98,-65.55L-386.82,-85.39L-426.39,-95.41L-475.98,-65.87L-505.87,-6.57L-496.10,33.07L-476.33,43.03L-456.53,43.09L-436.70,33.26L-396.97,-6.22L-406.84,-16.15L-446.57,23.32L-466.37,23.26L-476.17,-6.47L-456.25,-46.01L-426.45,-75.61L-406.65,-75.55L-406.75,-45.85L-426.58,-36.01L-456.28,-36.11L-456.31,-26.21L-406.81,-26.05ZM-357.50,33.51L-357.40,3.81L-367.27,-6.12L-387.10,3.71L-387.20,33.41L-367.43,43.38L-347.63,43.44L-317.90,33.64L-298.04,13.90L-297.97,-5.90L-307.71,-55.43L-307.65,-75.23L-287.82,-85.07L-287.91,-55.37L-278.05,-45.44L-258.21,-55.27L-258.12,-84.97L-287.79,-94.97L-327.42,-85.20L-337.38,-65.43L-337.45,-45.63L-327.67,-6.00L-327.74,13.80L-347.60,33.54ZM-149.13,-114.33L-139.23,-114.30L-129.26,-134.06L-129.23,-143.96L-149.00,-153.93L-158.90,-153.96L-168.86,-134.19L-168.89,-124.29ZM-258.28,-35.47L-248.41,-25.54L-198.75,-74.88L-188.85,-74.85L-248.57,23.96L-248.60,33.86L-238.73,43.79L-218.93,43.85L-199.10,34.01L-149.44,-15.33L-159.31,-25.26L-208.97,24.08L-218.87,24.05L-159.15,-74.76L-159.12,-84.66L-178.89,-94.62L-208.62,-84.82ZM-129.74,14.44L-129.77,24.34L-119.90,34.27L-169.46,53.91L-179.43,73.68L-169.62,103.41L-130.08,123.34L-110.28,123.40L-70.65,113.62L-50.76,83.99L-50.70,64.19L-100.07,24.43L-100.04,14.53L-70.34,14.63L-20.74,-14.92L-10.75,-44.58L-20.55,-74.32L9.15,-74.22L9.18,-84.12L-30.42,-84.25L-69.99,-94.27L-119.58,-64.73L-129.58,-35.06L-109.91,4.60ZM-70.05,-74.47L-50.25,-74.41L-40.45,-44.68L-40.48,-34.78L-70.27,-5.17L-90.07,-5.24L-99.88,-34.97L-99.85,-44.87ZM-110.03,44.20L-80.43,73.99L-80.49,93.79L-110.25,113.50L-139.89,93.60L-149.73,73.77L-139.76,54.00ZM-0.88,-34.65L8.99,-24.72L58.65,-74.06L68.55,-74.03L8.80,34.68L18.67,44.61L38.47,44.67L78.32,-34.40L108.11,-64.01L127.95,-73.84L137.81,-63.91L88.03,25.03L88.00,34.93L97.87,44.86L117.67,44.93L137.50,35.09L187.16,-14.25L177.29,-24.18L127.63,25.16L117.73,25.13L167.48,-53.92L167.58,-83.62L137.91,-93.61L108.18,-83.81L78.38,-54.20L88.35,-73.97L88.38,-83.87L78.51,-93.80L48.78,-83.99ZM325.85,-43.51L325.91,-63.31L316.08,-83.14L276.51,-93.17L226.91,-63.63L197.02,-4.32L206.80,35.31L226.57,45.27L246.37,45.34L266.20,35.50L305.92,-3.97L296.06,-13.90L256.33,25.57L236.53,25.51L226.72,-4.23L246.65,-43.76L276.45,-73.37L296.25,-73.30L296.15,-43.60L276.32,-33.77L246.62,-33.86L246.59,-23.96L296.09,-23.80ZM325.82,-33.61L335.69,-23.68L385.35,-73.02L395.25,-72.99L335.50,35.72L345.37,45.65L365.17,45.72L405.02,-33.36L434.78,-53.06L464.48,-52.97L474.48,-82.64L454.71,-92.60L434.88,-82.76L405.05,-43.26L395.15,-43.29L415.04,-72.93L415.08,-82.83L405.21,-92.76L375.48,-82.95ZM474.10,36.16L474.19,6.46L464.32,-3.47L444.49,6.37L444.40,36.07L464.17,46.03L483.97,46.10L513.70,36.29L533.56,16.55L533.62,-3.25L523.88,-52.78L523.94,-72.58L543.78,-82.41L543.68,-52.71L553.55,-42.78L573.38,-52.62L573.48,-82.32L543.81,-92.31L504.18,-82.54L494.21,-62.77L494.15,-42.97L503.92,-3.34L503.86,16.46L484.00,36.20ZM-545.79,94.29L-625.75,331.63L-566.35,331.82L-566.32,321.92L-595.99,311.93L-595.93,292.13L-535.96,114.12L-486.43,104.38L-486.39,94.48ZM-417.73,292.70L-407.83,292.73L-388.00,282.89L-338.34,233.55L-348.21,223.62L-397.86,272.96L-407.76,272.93L-318.06,85.11L-387.36,84.89L-387.39,94.79L-357.69,94.89L-387.68,183.89L-397.52,164.06L-437.08,154.04L-486.71,193.48L-506.67,242.91L-496.89,282.54L-477.13,292.51L-457.33,292.57L-427.53,262.97L-427.60,282.77ZM-457.26,272.77L-467.16,272.74L-476.97,243.01L-457.04,203.47L-427.25,173.87L-407.45,173.93L-397.61,193.76L-397.64,203.66L-427.47,243.17ZM-289.03,293.11L-269.23,293.17L-219.63,263.63L-189.74,204.33L-209.42,164.66L-248.98,154.64L-298.58,184.18L-328.47,243.48L-308.80,283.15ZM-249.05,174.44L-229.25,174.50L-219.44,204.23L-239.37,243.77L-269.16,273.37L-288.96,273.31L-298.77,243.58L-278.84,204.04ZM-150.36,273.75L-100.55,174.91L-70.85,175.00L-70.82,165.10L-100.52,165.01L-80.59,125.47L-100.39,125.41L-110.39,155.08L-130.22,164.92L-150.02,164.85L-150.05,174.75L-130.25,174.82L-180.06,273.66L-180.10,283.56L-170.23,293.49L-150.43,293.55L-130.60,283.71L-80.94,234.37L-90.81,224.44L-140.46,273.78ZM-41.66,333.50L38.30,96.15L-21.10,95.96L-21.13,105.86L8.54,115.86L8.48,135.66L-51.49,313.67L-101.02,323.41L-101.05,333.31ZM146.57,294.50L166.37,294.56L215.96,265.02L245.85,205.72L226.18,166.05L186.61,156.03L137.02,185.57L107.13,244.87L126.80,284.54ZM186.55,175.83L206.35,175.89L216.15,205.62L196.23,245.16L166.43,274.76L146.63,274.70L136.83,244.97L156.75,205.43ZM255.72,215.65L265.59,225.58L315.25,176.24L325.15,176.27L265.40,284.98L275.27,294.91L295.07,294.97L334.92,215.90L364.69,196.20L394.39,196.29L404.38,166.62L384.61,156.66L364.78,166.50L334.95,206.00L325.05,205.97L344.95,176.33L344.98,166.43L335.11,156.50L305.38,166.31ZM404.06,265.62L404.03,275.52L413.90,285.45L364.34,305.09L354.37,324.86L364.18,354.59L403.72,374.52L423.52,374.58L463.15,364.81L483.04,335.17L483.11,315.37L433.73,275.62L433.76,265.72L463.46,265.81L513.06,236.27L523.05,206.60L513.25,176.87L542.95,176.96L542.98,167.06L503.38,166.94L463.81,156.91L414.22,186.45L404.22,216.12L423.90,255.78ZM463.75,176.71L483.55,176.77L493.35,206.51L493.32,216.41L463.53,246.01L443.73,245.95L433.92,216.22L433.95,206.32ZM423.77,295.38L453.37,325.18L453.31,344.98L423.55,364.68L393.91,344.79L384.07,324.96L394.04,305.19Z" fill="#ffffff" stroke="#000000"/>
    <path d="M-558.90,-262.29L-558.71,-291.69L-538.73,-350.37L-489.48,-389.25L-469.88,-389.13L-450.41,-369.40L-450.60,-340.00L-431.00,-339.88L-411.27,-359.35L-420.95,-379.02L-469.82,-398.93L-499.22,-399.12L-538.55,-379.77L-568.13,-350.56L-587.92,-321.28L-598.03,-272.34L-578.75,-223.22L-539.67,-203.37L-500.47,-203.12L-470.95,-222.53L-441.36,-251.74L-451.10,-261.61L-480.69,-232.39L-510.21,-212.98L-529.81,-213.11L-549.35,-223.03ZM-402.35,-222.09L-312.96,-407.73L-381.56,-408.16L-381.62,-398.37L-352.22,-398.18L-431.75,-222.28L-431.81,-212.48L-412.27,-202.56L-382.81,-212.17L-333.50,-260.85L-343.24,-270.72L-392.55,-222.03ZM-225.08,-358.16L-215.28,-358.10L-205.35,-377.64L-205.29,-387.44L-224.83,-397.36L-234.63,-397.43L-244.55,-377.89L-244.61,-368.09ZM-333.38,-280.45L-323.64,-270.59L-274.33,-319.28L-264.53,-319.22L-323.95,-221.59L-324.01,-211.79L-314.28,-201.93L-294.68,-201.81L-275.02,-211.48L-225.70,-260.17L-235.44,-270.03L-284.75,-221.34L-294.55,-221.41L-235.13,-319.03L-235.07,-328.83L-254.60,-338.75L-284.06,-329.14ZM-68.72,-288.56L-48.99,-308.04L-29.33,-317.71L-19.59,-307.85L-69.16,-219.97L-69.22,-210.17L-59.48,-200.30L-39.88,-200.18L-20.22,-209.85L29.09,-258.54L19.35,-268.40L-29.96,-219.72L-39.76,-219.78L9.74,-297.86L9.93,-327.26L-19.41,-337.25L-48.87,-327.64L-68.59,-308.16L-68.47,-327.76L-88.01,-337.69L-117.47,-328.08L-147.05,-298.87L-137.13,-318.40L-137.07,-328.20L-146.80,-338.06L-176.27,-328.45L-225.58,-279.77L-215.84,-269.90L-166.53,-318.59L-156.73,-318.53L-216.22,-211.10L-206.48,-201.24L-186.88,-201.12L-147.18,-279.27L-117.59,-308.48L-97.93,-318.15L-88.19,-308.29L-137.82,-210.60L-128.08,-200.74L-108.48,-200.62ZM186.33,-326.14L176.59,-336.00L156.80,-306.72L147.13,-326.39L107.99,-336.44L58.74,-297.55L38.83,-248.68L48.38,-209.42L67.92,-199.49L87.51,-199.37L117.10,-228.58L116.98,-208.98L126.71,-199.11L156.18,-208.73L205.49,-257.41L195.75,-267.28L146.44,-218.59L136.64,-218.65ZM87.64,-218.96L77.84,-219.03L68.23,-248.49L88.08,-287.56L117.67,-316.78L137.26,-316.65L146.94,-296.99L146.88,-287.19L117.23,-248.18ZM234.64,-218.03L284.26,-315.71L313.66,-315.52L313.72,-325.32L284.32,-325.51L304.17,-364.59L284.57,-364.71L274.59,-335.37L254.92,-325.70L235.33,-325.82L235.26,-316.02L254.86,-315.90L205.24,-218.21L205.18,-208.41L214.91,-198.55L234.51,-198.43L254.17,-208.10L303.49,-256.79L293.75,-266.65L244.44,-217.96ZM450.67,-285.25L450.80,-304.85L441.12,-324.51L401.98,-334.56L352.80,-305.47L323.02,-246.86L332.57,-207.60L352.11,-197.68L371.71,-197.55L391.37,-207.23L430.82,-246.17L421.08,-256.04L381.63,-217.09L362.03,-217.21L352.42,-246.67L372.27,-285.75L401.86,-314.96L421.46,-314.84L421.27,-285.44L401.61,-275.76L372.21,-275.95L372.15,-266.15L421.15,-265.84ZM-672.30,-153.26L-652.82,-133.53L-702.82,22.95L-732.35,42.36L-614.75,43.12L-575.42,23.77L-545.84,-5.45L-526.05,-34.72L-515.94,-83.66L-535.22,-132.78L-584.10,-152.69ZM-555.26,-64.31L-575.24,-5.63L-604.82,23.58L-624.49,33.25L-663.68,33.00L-673.42,23.14L-623.42,-133.34L-613.56,-143.08L-584.16,-142.89L-564.62,-132.97L-555.07,-93.71ZM-378.99,-43.58L-378.86,-63.18L-388.54,-82.84L-427.68,-92.89L-476.86,-63.81L-506.64,-5.20L-497.09,34.07L-477.55,43.99L-457.95,44.12L-438.29,34.44L-398.84,-4.51L-408.58,-14.37L-448.03,24.58L-467.63,24.45L-477.24,-5.01L-457.39,-44.08L-427.80,-73.29L-408.20,-73.17L-408.39,-43.77L-428.05,-34.09L-457.45,-34.28L-457.51,-24.48L-408.51,-24.17ZM-359.89,34.94L-359.70,5.54L-369.44,-4.32L-389.10,5.36L-389.29,34.75L-369.75,44.68L-350.15,44.80L-320.69,35.19L-300.97,15.72L-300.84,-3.88L-310.33,-52.94L-310.20,-72.54L-290.54,-82.22L-290.73,-52.82L-280.99,-42.96L-261.33,-52.63L-261.14,-82.03L-290.48,-92.02L-329.74,-82.47L-339.67,-62.93L-339.79,-43.33L-330.24,-4.07L-330.37,15.53L-350.09,35.01ZM-153.16,-110.74L-143.36,-110.68L-133.43,-130.21L-133.37,-140.01L-152.91,-149.94L-162.71,-150.00L-172.63,-130.47L-172.69,-120.67ZM-261.45,-33.03L-251.72,-23.17L-202.41,-71.85L-192.61,-71.79L-252.03,25.83L-252.09,35.63L-242.36,45.49L-222.76,45.62L-203.09,35.94L-153.78,-12.74L-163.52,-22.60L-212.83,26.08L-222.63,26.02L-163.21,-71.60L-163.14,-81.40L-182.68,-91.33L-212.14,-81.72ZM-134.37,16.78L-134.43,26.58L-124.70,36.44L-173.82,55.73L-183.74,75.27L-174.13,104.73L-135.06,124.58L-115.46,124.71L-76.20,115.16L-56.41,85.88L-56.28,66.28L-105.03,26.77L-104.97,16.97L-75.57,17.16L-26.38,-11.93L-16.40,-41.27L-26.01,-70.73L3.39,-70.54L3.45,-80.34L-35.75,-80.59L-74.88,-90.64L-124.07,-61.55L-134.06,-32.22L-114.71,7.11ZM-75.01,-71.04L-55.41,-70.92L-45.80,-41.45L-45.86,-31.65L-75.45,-2.44L-95.05,-2.57L-104.66,-32.03L-104.60,-41.83ZM-114.96,46.31L-85.75,75.89L-85.87,95.49L-115.40,114.91L-144.67,95.12L-154.34,75.46L-144.42,55.92ZM-6.66,-31.40L3.08,-21.54L52.39,-70.23L62.19,-70.16L2.70,37.26L12.44,47.12L32.04,47.25L71.74,-30.90L101.33,-60.11L120.99,-69.79L130.73,-59.93L81.16,27.96L81.10,37.76L90.84,47.62L110.44,47.75L130.10,38.07L179.41,-10.61L169.67,-20.48L120.36,28.21L110.56,28.15L160.06,-49.94L160.25,-79.34L130.91,-89.33L101.45,-79.71L71.86,-50.50L81.79,-70.04L81.85,-79.84L72.11,-89.70L42.65,-80.09ZM316.80,-39.14L316.92,-58.74L307.25,-78.40L268.11,-88.45L218.92,-59.36L189.15,-0.75L198.70,38.51L218.24,48.43L237.83,48.56L257.50,38.89L296.95,-0.06L287.21,-9.93L247.76,29.02L228.16,28.90L218.55,-0.56L238.40,-39.64L267.99,-68.85L287.58,-68.72L287.40,-39.33L267.73,-29.65L238.34,-29.84L238.27,-20.04L287.27,-19.73ZM316.73,-29.34L326.47,-19.48L375.78,-68.16L385.58,-68.10L326.10,39.32L335.83,49.19L355.43,49.31L395.13,-28.84L424.66,-48.25L454.06,-48.06L464.04,-77.40L444.51,-87.32L424.84,-77.65L395.19,-38.64L385.39,-38.70L405.18,-67.97L405.24,-77.77L395.51,-87.64L366.05,-78.02ZM463.29,40.20L463.48,10.80L453.74,0.94L434.08,10.61L433.89,40.01L453.43,49.94L473.03,50.06L502.49,40.45L522.22,20.98L522.34,1.38L512.85,-47.69L512.98,-67.29L532.64,-76.96L532.45,-47.56L542.19,-37.70L561.85,-47.37L562.04,-76.77L532.70,-86.76L493.44,-77.21L483.52,-57.67L483.39,-38.07L492.94,1.19L492.82,20.79L473.09,40.26ZM-546.47,94.51L-626.37,329.21L-567.58,329.58L-567.51,319.78L-596.85,309.80L-596.73,290.20L-536.80,114.17L-487.74,104.69L-487.68,94.89ZM-420.33,291.32L-410.53,291.38L-390.87,281.71L-341.55,233.02L-351.29,223.16L-400.60,271.85L-410.40,271.78L-321.02,86.15L-389.62,85.71L-389.68,95.51L-360.28,95.70L-390.24,183.71L-399.92,164.05L-439.05,154.00L-488.30,192.89L-508.21,241.76L-498.66,281.02L-479.13,290.95L-459.53,291.07L-429.94,261.86L-430.07,281.46ZM-459.40,271.47L-469.20,271.41L-478.81,241.95L-458.96,202.87L-429.38,173.66L-409.78,173.79L-400.10,193.45L-400.17,203.25L-429.82,242.26ZM-292.93,292.14L-273.33,292.26L-224.15,263.17L-194.37,204.56L-213.72,165.24L-252.86,155.19L-302.04,184.28L-331.82,242.89L-312.47,282.21ZM-252.98,174.79L-233.38,174.91L-223.77,204.38L-243.62,243.45L-273.21,272.66L-292.81,272.54L-302.42,243.07L-282.57,204.00ZM-155.61,273.41L-105.98,175.73L-76.58,175.91L-76.52,166.11L-105.92,165.93L-86.07,126.85L-105.67,126.73L-115.66,156.06L-135.32,165.74L-154.92,165.61L-154.98,175.41L-135.38,175.54L-185.01,273.22L-185.07,283.02L-175.33,292.89L-155.73,293.01L-136.07,283.34L-86.76,234.65L-96.50,224.79L-145.81,273.47ZM-48.19,332.90L31.71,98.20L-27.09,97.83L-27.15,107.63L2.19,117.62L2.06,137.22L-57.86,313.24L-106.92,322.72L-106.99,332.52ZM138.26,294.89L157.86,295.01L207.05,265.93L236.82,207.32L217.47,167.99L178.34,157.94L129.15,187.03L99.37,245.64L118.72,284.96ZM178.21,177.54L197.81,177.67L207.42,207.13L187.57,246.20L157.98,275.41L138.38,275.29L128.77,245.83L148.62,206.75ZM246.56,217.18L256.30,227.04L305.61,178.36L315.41,178.42L255.92,285.84L265.66,295.70L285.26,295.83L324.96,217.68L354.48,198.27L383.88,198.46L393.87,169.12L374.33,159.19L354.67,168.87L325.02,207.88L315.22,207.82L335.01,178.54L335.07,168.74L325.33,158.88L295.87,168.49ZM393.24,267.12L393.18,276.92L402.92,286.78L353.79,306.07L343.87,325.60L353.48,355.06L392.55,374.91L412.15,375.04L451.42,365.49L471.20,336.22L471.33,316.62L422.58,277.10L422.64,267.30L452.04,267.49L501.23,238.41L511.22,209.07L501.60,179.61L531.00,179.79L531.07,169.99L491.87,169.74L452.73,159.69L403.54,188.78L393.56,218.12L412.90,257.44ZM452.60,179.29L472.20,179.42L481.82,208.88L481.75,218.68L452.17,247.89L432.57,247.77L422.95,218.31L423.02,208.51ZM412.65,296.64L441.87,326.23L441.74,345.83L412.22,365.24L382.94,345.45L373.27,325.79L383.19,306.25Z" fill="#ffffff" stroke="#000000"/>
    <path d="M-558.21,-258.53L-557.93,-287.63L-537.97,-345.64L-489.10,-383.97L-469.71,-383.79L-450.49,-364.20L-450.77,-335.10L-431.37,-334.92L-411.79,-354.13L-421.30,-373.62L-469.61,-393.49L-498.71,-393.76L-537.70,-374.74L-567.07,-345.92L-586.75,-317.00L-596.91,-268.60L-577.98,-219.92L-539.37,-200.15L-500.57,-199.77L-471.28,-218.89L-441.91,-247.71L-451.51,-257.51L-480.89,-228.69L-510.18,-209.57L-529.58,-209.75L-548.88,-219.64ZM-403.39,-218.24L-314.33,-401.70L-382.22,-402.35L-382.32,-392.65L-353.22,-392.37L-432.49,-218.52L-432.58,-208.82L-413.27,-198.94L-384.08,-208.36L-335.12,-256.39L-344.73,-266.18L-393.69,-218.15ZM-227.50,-352.37L-217.80,-352.27L-207.91,-371.58L-207.82,-381.28L-227.12,-391.16L-236.82,-391.26L-246.71,-371.95L-246.80,-362.25ZM-334.93,-275.79L-325.33,-266.00L-276.36,-314.03L-266.67,-313.94L-325.79,-217.50L-325.88,-207.80L-316.28,-198.01L-296.88,-197.82L-277.39,-207.34L-228.42,-255.37L-238.03,-265.16L-286.99,-217.13L-296.69,-217.22L-237.57,-313.66L-237.47,-323.36L-256.78,-333.24L-285.97,-323.82ZM-72.95,-282.98L-53.37,-302.20L-33.88,-311.71L-24.27,-301.92L-73.60,-215.08L-73.70,-205.39L-64.09,-195.59L-44.69,-195.41L-25.20,-204.92L23.76,-252.95L14.16,-262.75L-34.80,-214.71L-44.50,-214.81L4.74,-291.94L5.02,-321.04L-23.99,-331.01L-53.18,-321.59L-72.77,-302.38L-72.58,-321.78L-91.89,-331.67L-121.08,-322.24L-150.46,-293.42L-140.57,-312.73L-140.48,-322.43L-150.08,-332.22L-179.28,-322.80L-228.24,-274.77L-218.63,-264.98L-169.67,-313.01L-159.97,-312.92L-219.19,-206.78L-209.58,-196.99L-190.18,-196.80L-150.64,-274.03L-121.26,-302.85L-101.77,-312.36L-92.17,-302.57L-141.59,-206.04L-131.99,-196.24L-112.59,-196.06ZM179.61,-319.36L170.00,-329.16L150.32,-300.24L140.81,-319.74L102.10,-329.81L53.23,-291.47L33.37,-243.16L42.70,-204.27L62.00,-194.39L81.40,-194.20L110.78,-223.02L110.60,-203.62L120.20,-193.83L149.39,-203.25L198.36,-251.28L188.75,-261.07L139.79,-213.04L130.09,-213.13ZM81.59,-213.60L71.89,-213.69L62.47,-242.88L82.24,-281.50L111.62,-310.32L131.02,-310.13L140.53,-290.64L140.44,-280.94L110.97,-242.42ZM227.08,-212.20L276.51,-308.74L305.61,-308.46L305.70,-318.16L276.60,-318.44L296.37,-357.05L276.97,-357.23L267.00,-328.23L247.50,-318.71L228.11,-318.90L228.01,-309.20L247.41,-309.01L197.98,-212.48L197.89,-202.78L207.50,-192.99L226.90,-192.81L246.39,-202.32L295.35,-250.35L285.74,-260.14L236.78,-212.11ZM441.12,-278.06L441.31,-297.46L431.80,-316.95L393.09,-327.02L344.31,-298.39L314.66,-240.47L323.99,-201.58L343.29,-191.69L362.69,-191.50L382.18,-201.02L421.35,-239.45L411.75,-249.24L372.58,-210.81L353.18,-211.00L343.76,-240.19L363.53,-278.80L392.90,-307.62L412.30,-307.43L412.02,-278.34L392.53,-268.82L363.43,-269.10L363.34,-259.40L411.84,-258.94ZM-670.79,-150.96L-651.58,-131.38L-701.57,23.35L-730.85,42.47L-614.46,43.59L-575.47,24.56L-546.09,-4.26L-526.42,-33.17L-516.25,-81.58L-535.19,-130.26L-583.50,-150.13ZM-555.24,-62.55L-575.19,-4.54L-604.57,24.28L-624.06,33.79L-662.86,33.42L-672.47,23.63L-622.48,-131.10L-612.69,-140.71L-583.59,-140.43L-564.29,-130.54L-554.96,-91.65ZM-380.83,-41.48L-380.64,-60.88L-390.16,-80.37L-428.86,-90.44L-477.64,-61.81L-507.30,-3.89L-497.97,35.00L-478.66,44.89L-459.26,45.07L-439.77,35.56L-400.60,-2.87L-410.21,-12.66L-449.38,25.77L-468.78,25.58L-478.20,-3.61L-458.43,-42.22L-429.05,-71.04L-409.65,-70.86L-409.93,-41.76L-429.42,-32.24L-458.52,-32.52L-458.61,-22.82L-410.11,-22.36ZM-362.17,36.30L-361.90,7.20L-371.50,-2.59L-390.99,6.93L-391.27,36.02L-371.97,45.91L-352.57,46.10L-323.38,36.67L-303.79,17.46L-303.61,-1.94L-312.84,-50.53L-312.65,-69.93L-293.16,-79.44L-293.44,-50.34L-283.83,-40.55L-264.34,-50.06L-264.06,-79.16L-293.07,-89.14L-331.96,-79.81L-341.85,-60.51L-342.03,-41.11L-332.70,-2.22L-332.89,17.18L-352.47,36.40ZM-157.09,-107.24L-147.39,-107.15L-137.51,-126.45L-137.41,-136.15L-156.72,-146.04L-166.42,-146.13L-176.30,-126.82L-176.40,-117.12ZM-264.53,-30.67L-254.92,-20.87L-205.96,-68.91L-196.26,-68.81L-255.39,27.63L-255.48,37.32L-245.87,47.12L-226.47,47.30L-206.98,37.79L-158.02,-10.24L-167.63,-20.04L-216.59,28.00L-226.29,27.90L-167.16,-68.53L-167.07,-78.23L-186.37,-88.12L-215.57,-78.70ZM-138.90,19.04L-138.99,28.74L-129.39,38.53L-178.07,57.47L-187.95,76.77L-178.53,105.96L-139.92,125.74L-120.52,125.92L-81.63,116.59L-61.95,87.68L-61.77,68.28L-109.89,29.02L-109.80,19.32L-80.70,19.60L-31.92,-9.04L-21.95,-38.04L-31.37,-67.23L-2.27,-66.95L-2.18,-76.65L-40.97,-77.03L-79.68,-87.10L-128.46,-58.46L-138.43,-29.46L-119.41,9.53ZM-79.87,-67.70L-60.47,-67.51L-51.05,-38.32L-51.14,-28.62L-80.52,0.20L-99.91,0.01L-109.34,-29.18L-109.24,-38.88ZM-119.78,48.32L-90.96,77.70L-91.14,97.10L-120.43,116.22L-149.34,96.54L-158.86,77.05L-148.97,57.75ZM-12.34,-28.25L-2.73,-18.46L46.23,-66.49L55.93,-66.40L-3.29,39.74L6.32,49.53L25.71,49.72L65.26,-27.51L94.63,-56.33L114.13,-65.84L123.73,-56.05L74.40,30.78L74.31,40.48L83.91,50.28L103.31,50.46L122.80,40.95L171.77,-7.09L162.16,-16.88L113.20,31.16L103.50,31.06L152.74,-46.07L153.02,-75.17L124.01,-85.15L94.82,-75.73L65.44,-46.91L75.33,-66.21L75.42,-75.91L65.81,-85.70L36.62,-76.28ZM307.84,-34.88L308.02,-54.28L298.51,-73.77L259.81,-83.85L211.03,-55.21L181.37,2.71L190.70,41.60L210.01,51.48L229.41,51.67L248.90,42.16L288.07,3.73L278.46,-6.06L239.29,32.36L219.89,32.18L210.47,2.99L230.24,-35.63L259.62,-64.45L279.02,-64.26L278.74,-35.16L259.25,-25.65L230.15,-25.93L230.06,-16.23L278.55,-15.76ZM307.75,-25.18L317.35,-15.39L366.31,-63.42L376.01,-63.33L316.79,42.81L326.40,52.60L345.80,52.78L385.34,-24.44L414.63,-43.56L443.72,-43.28L453.70,-72.29L434.40,-82.17L414.90,-72.66L385.43,-34.14L375.74,-34.23L395.41,-63.15L395.51,-72.85L385.90,-82.64L356.71,-73.22ZM452.59,44.11L452.87,15.01L443.26,5.22L423.77,14.73L423.49,43.83L442.80,53.71L462.19,53.90L491.39,44.48L510.97,25.27L511.16,5.87L501.92,-42.72L502.11,-62.12L521.60,-71.64L521.32,-42.54L530.93,-32.75L550.42,-42.26L550.70,-71.36L521.69,-81.34L482.80,-72.01L472.92,-52.70L472.73,-33.30L482.06,5.59L481.87,24.99L462.29,44.20ZM-547.04,94.67L-626.87,326.72L-568.67,327.28L-568.58,317.58L-597.58,307.60L-597.40,288.20L-537.53,114.17L-488.94,104.93L-488.84,95.23ZM-422.81,289.87L-413.11,289.97L-393.61,280.45L-344.65,232.42L-354.26,222.63L-403.22,270.66L-412.92,270.57L-323.86,87.11L-391.76,86.46L-391.85,96.16L-362.75,96.44L-392.69,183.46L-402.20,163.97L-440.90,153.89L-489.77,192.23L-509.64,240.54L-500.31,279.43L-481.00,289.32L-461.60,289.50L-432.23,260.68L-432.41,280.08ZM-461.42,270.10L-471.12,270.01L-480.54,240.82L-460.77,202.21L-431.39,173.39L-411.99,173.57L-402.48,193.06L-402.57,202.76L-432.04,241.28ZM-296.71,291.08L-277.31,291.27L-228.54,262.63L-198.88,204.71L-217.91,165.73L-256.61,155.66L-305.39,184.29L-335.05,242.21L-316.02,281.20ZM-256.80,175.06L-237.40,175.24L-227.98,204.44L-247.75,243.05L-277.13,271.87L-296.53,271.68L-305.95,242.49L-286.18,203.88ZM-160.73,272.98L-111.31,176.45L-82.21,176.73L-82.11,167.03L-111.21,166.75L-91.44,128.14L-110.84,127.95L-120.82,156.96L-140.31,166.47L-159.71,166.29L-159.80,175.99L-140.40,176.17L-189.83,272.70L-189.92,282.40L-180.32,292.20L-160.92,292.38L-141.43,282.87L-92.46,234.84L-102.07,225.04L-151.03,273.08ZM-54.59,332.20L25.23,100.16L-32.97,99.60L-33.06,109.30L-4.05,119.28L-4.24,138.68L-64.11,312.71L-112.70,321.95L-112.79,331.64ZM130.07,295.17L149.47,295.36L198.24,266.72L227.90,208.80L208.87,169.82L170.17,159.75L121.39,188.38L91.74,246.30L110.76,285.28ZM169.98,179.15L189.38,179.33L198.80,208.52L179.03,247.14L149.65,275.96L130.25,275.77L120.83,246.58L140.60,207.97ZM237.51,218.59L247.11,228.39L296.08,180.35L305.78,180.45L246.56,286.58L256.16,296.38L275.56,296.56L315.10,219.34L344.39,200.22L373.49,200.50L383.46,171.49L364.16,161.61L344.67,171.12L315.20,209.64L305.50,209.55L325.17,180.63L325.27,170.93L315.66,161.14L286.47,170.56ZM382.54,268.49L382.44,278.19L392.05,287.98L343.37,306.91L333.48,326.22L342.90,355.41L381.51,375.18L400.91,375.37L439.80,366.04L459.48,337.13L459.67,317.73L411.54,278.46L411.63,268.77L440.73,269.04L489.51,240.41L499.49,211.40L490.07,182.21L519.17,182.49L519.26,172.79L480.46,172.42L441.76,162.35L392.98,190.98L383.00,219.99L402.03,258.97ZM441.57,181.75L460.97,181.93L470.39,211.13L470.30,220.82L440.92,249.64L421.52,249.46L412.10,220.27L412.19,210.57ZM401.66,297.77L430.48,327.15L430.29,346.55L401.01,365.67L372.09,345.99L362.58,326.50L372.46,307.19Z" fill="#ffffff" stroke="#000000"/>
    <path d="M-557.43,-254.82L-557.06,-283.62L-537.13,-340.97L-488.64,-378.75L-469.44,-378.51L-450.49,-359.06L-450.86,-330.26L-431.66,-330.02L-412.22,-348.97L-421.57,-368.29L-469.32,-388.11L-498.12,-388.47L-536.76,-369.77L-565.93,-341.34L-585.49,-312.78L-595.71,-264.91L-577.12,-216.67L-538.97,-196.98L-500.57,-196.49L-471.53,-215.32L-442.36,-243.75L-451.84,-253.47L-481.01,-225.04L-510.05,-206.21L-529.25,-206.46L-548.32,-216.30ZM-404.33,-214.46L-315.61,-395.74L-382.81,-396.60L-382.93,-387.00L-354.13,-386.63L-433.13,-214.83L-433.25,-205.23L-414.18,-195.39L-385.26,-204.62L-336.65,-252.00L-346.13,-261.72L-394.73,-214.34ZM-229.83,-346.64L-220.23,-346.52L-210.39,-365.60L-210.27,-375.20L-229.34,-385.04L-238.94,-385.16L-248.78,-366.09L-248.91,-356.49ZM-336.40,-271.20L-326.93,-261.48L-278.32,-308.86L-268.72,-308.74L-327.54,-213.48L-327.66,-203.88L-318.19,-194.16L-298.99,-193.91L-279.67,-203.27L-231.06,-250.65L-240.53,-260.37L-289.14,-212.99L-298.74,-213.11L-239.92,-308.37L-239.80,-317.97L-258.87,-327.81L-287.79,-318.58ZM-77.10,-277.49L-57.66,-296.44L-38.34,-305.79L-28.86,-296.07L-77.96,-210.29L-78.08,-200.69L-68.61,-190.97L-49.41,-190.73L-30.09,-200.08L18.52,-247.46L9.05,-257.19L-39.56,-209.80L-49.16,-209.92L-0.19,-286.11L0.18,-314.90L-28.49,-324.87L-57.41,-315.64L-76.86,-296.69L-76.61,-315.88L-95.69,-325.73L-124.61,-316.50L-153.77,-288.07L-143.93,-307.14L-143.81,-316.74L-153.28,-326.46L-182.20,-317.23L-230.81,-269.85L-221.34,-260.13L-172.73,-307.51L-163.13,-307.39L-222.07,-202.53L-212.59,-192.81L-193.40,-192.57L-154.02,-268.87L-124.85,-297.30L-105.53,-306.65L-96.06,-296.93L-145.28,-201.55L-135.80,-191.83L-116.60,-191.58ZM172.97,-312.70L163.49,-322.42L143.92,-293.87L134.57,-313.19L96.30,-323.28L47.81,-285.49L28.00,-237.74L37.11,-199.22L56.18,-189.38L75.38,-189.13L104.55,-217.56L104.30,-198.36L113.78,-188.64L142.70,-197.87L191.31,-245.26L181.83,-254.98L133.22,-207.60L123.62,-207.72ZM75.63,-208.33L66.03,-208.45L56.80,-237.37L76.48,-275.53L105.65,-303.96L124.85,-303.71L134.20,-284.39L134.08,-274.79L104.79,-236.76ZM219.62,-206.49L268.84,-301.87L297.63,-301.50L297.76,-311.10L268.96,-311.47L288.65,-349.62L269.45,-349.87L259.48,-321.19L240.16,-311.84L220.96,-312.08L220.84,-302.48L240.04,-302.24L190.82,-206.86L190.69,-197.26L200.17,-187.54L219.37,-187.29L238.69,-196.65L287.30,-244.03L277.82,-253.75L229.21,-206.37ZM431.66,-270.99L431.90,-290.19L422.55,-309.51L384.27,-319.60L335.91,-291.41L306.38,-234.19L315.48,-195.67L334.56,-185.82L353.76,-185.58L373.08,-194.93L411.97,-232.84L402.49,-242.56L363.60,-204.65L344.40,-204.90L335.17,-233.82L354.86,-271.97L384.03,-300.40L403.23,-300.15L402.86,-271.36L383.54,-262.00L354.74,-262.37L354.62,-252.77L402.61,-252.16ZM-669.20,-148.72L-650.24,-129.27L-700.20,23.70L-729.24,42.53L-614.05,44.00L-575.41,25.29L-546.24,-3.14L-526.68,-31.69L-516.47,-79.56L-535.05,-127.80L-582.80,-147.62ZM-555.11,-60.85L-575.04,-3.50L-604.21,24.93L-623.53,34.28L-661.93,33.79L-671.40,24.07L-621.44,-128.91L-611.72,-138.38L-582.92,-138.02L-563.85,-128.17L-554.74,-89.65ZM-382.57,-39.45L-382.32,-58.65L-391.68,-77.97L-429.95,-88.06L-478.31,-59.87L-507.85,-2.65L-498.74,35.87L-479.66,45.72L-460.46,45.96L-441.14,36.61L-402.26,-1.30L-411.73,-11.02L-450.62,26.89L-469.82,26.64L-479.05,-2.28L-459.36,-40.43L-430.20,-68.86L-411.00,-68.61L-411.37,-39.82L-430.69,-30.46L-459.48,-30.83L-459.61,-21.23L-411.61,-20.62ZM-364.35,37.59L-363.98,8.79L-373.46,-0.93L-392.78,8.42L-393.15,37.22L-374.07,47.07L-354.87,47.31L-325.95,38.08L-306.51,19.13L-306.26,-0.07L-315.25,-48.19L-315.01,-67.39L-295.68,-76.74L-296.05,-47.94L-286.58,-38.22L-267.25,-47.58L-266.89,-76.37L-295.56,-86.34L-334.08,-77.23L-343.93,-58.16L-344.17,-38.96L-335.06,-0.44L-335.31,18.76L-354.75,37.71ZM-160.93,-103.82L-151.33,-103.70L-141.48,-122.78L-141.36,-132.38L-160.44,-142.22L-170.04,-142.34L-179.88,-123.27L-180.00,-113.67ZM-267.50,-28.38L-258.02,-18.66L-209.41,-66.04L-199.81,-65.92L-258.64,29.34L-258.76,38.94L-249.28,48.66L-230.08,48.91L-210.76,39.55L-162.15,-7.83L-171.63,-17.55L-220.24,29.83L-229.84,29.71L-171.02,-65.55L-170.89,-75.15L-189.97,-84.99L-218.89,-75.76ZM-143.32,21.21L-143.45,30.81L-133.97,40.53L-182.21,59.12L-192.05,78.19L-182.82,107.11L-144.67,126.80L-125.47,127.05L-86.95,117.94L-67.39,89.39L-67.14,70.19L-114.65,31.18L-114.52,21.58L-85.73,21.95L-37.36,-6.24L-27.40,-34.91L-36.63,-63.83L-7.83,-63.47L-7.71,-73.06L-46.10,-73.55L-84.38,-83.64L-132.74,-55.46L-142.71,-26.78L-124.00,11.86ZM-84.62,-64.45L-65.43,-64.20L-56.19,-35.28L-56.32,-25.68L-85.48,2.75L-104.68,2.50L-113.91,-26.42L-113.79,-36.02ZM-124.49,50.25L-96.06,79.42L-96.31,98.62L-125.35,117.45L-153.90,97.88L-163.26,78.56L-153.41,59.49ZM-17.92,-25.19L-8.44,-15.47L40.17,-62.85L49.77,-62.73L-9.18,42.13L0.30,51.85L19.50,52.09L58.87,-24.21L88.04,-52.64L107.36,-61.99L116.84,-52.27L67.74,33.51L67.61,43.11L77.09,52.83L96.29,53.07L115.61,43.72L164.22,-3.66L154.74,-13.38L106.13,34.00L96.54,33.88L145.51,-42.31L145.88,-71.10L117.20,-81.07L88.28,-71.84L59.12,-43.41L68.96,-62.48L69.09,-72.08L59.61,-81.81L30.69,-72.57ZM298.98,-30.74L299.22,-49.94L289.87,-69.26L251.59,-79.35L203.23,-51.17L173.70,6.06L182.81,44.58L201.88,54.42L221.08,54.67L240.40,45.31L279.29,7.41L269.81,-2.31L230.92,35.59L211.73,35.35L202.49,6.43L222.18,-31.73L251.35,-60.15L270.55,-59.91L270.18,-31.11L250.86,-21.76L222.06,-22.13L221.94,-12.53L269.93,-11.91ZM298.85,-21.15L308.33,-11.42L356.94,-58.81L366.54,-58.68L307.60,46.17L317.07,55.89L336.27,56.14L375.65,-20.16L404.69,-38.99L433.49,-38.63L443.46,-67.30L424.38,-77.15L405.06,-67.79L375.77,-29.76L366.17,-29.89L385.74,-58.44L385.86,-68.04L376.38,-77.76L347.46,-68.53ZM441.98,47.89L442.35,19.09L432.88,9.37L413.55,18.72L413.19,47.52L432.26,57.37L451.46,57.61L480.38,48.38L499.82,29.43L500.07,10.23L491.08,-37.89L491.33,-57.09L510.65,-66.44L510.28,-37.65L519.76,-27.92L539.08,-37.28L539.45,-66.08L510.77,-76.04L472.25,-66.93L462.41,-47.86L462.16,-28.66L471.27,9.86L471.03,29.06L451.58,48.01ZM-547.50,94.78L-627.23,324.18L-569.64,324.91L-569.51,315.31L-598.19,305.35L-597.94,286.15L-538.14,114.10L-490.02,105.11L-489.90,95.51ZM-425.16,288.35L-415.56,288.48L-396.24,279.12L-347.63,231.74L-357.10,222.02L-405.71,269.40L-415.31,269.28L-326.59,88.00L-393.78,87.14L-393.91,96.74L-365.11,97.11L-395.01,183.13L-404.36,163.81L-442.64,153.72L-491.13,191.50L-510.94,239.25L-501.83,277.77L-482.75,287.62L-463.55,287.86L-434.39,259.43L-434.63,278.63ZM-463.31,268.66L-472.91,268.54L-482.14,239.62L-462.45,201.47L-433.29,173.04L-414.09,173.29L-404.73,192.61L-404.86,202.21L-434.14,240.24ZM-300.37,289.95L-281.17,290.19L-232.81,262.01L-203.27,204.78L-221.98,166.14L-260.25,156.05L-308.62,184.23L-338.15,241.46L-319.44,280.10ZM-260.50,175.25L-241.30,175.49L-232.07,204.41L-251.76,242.56L-280.92,270.99L-300.12,270.75L-309.35,241.83L-289.66,203.68ZM-165.73,272.47L-116.51,177.09L-87.71,177.45L-87.59,167.86L-116.39,167.49L-96.70,129.34L-115.90,129.09L-125.87,157.77L-145.19,167.12L-164.38,166.87L-164.51,176.47L-145.31,176.72L-194.53,272.10L-194.65,281.70L-185.18,291.42L-165.98,291.66L-146.66,282.31L-98.05,234.93L-107.52,225.21L-156.13,272.59ZM-60.88,331.41L18.86,102.01L-38.74,101.27L-38.86,110.87L-10.18,120.84L-10.43,140.04L-70.23,312.09L-118.35,321.07L-118.47,330.67ZM122.00,295.34L141.20,295.59L189.56,267.40L219.09,210.18L200.39,171.53L162.11,161.44L113.75,189.63L84.21,246.86L102.92,285.50ZM161.87,180.64L181.06,180.89L190.30,209.81L170.61,247.96L141.44,276.39L122.24,276.14L113.01,247.22L132.70,209.07ZM228.57,219.90L238.05,229.62L286.66,182.24L296.26,182.36L237.31,287.21L246.79,296.94L265.99,297.18L305.36,220.88L334.41,202.05L363.20,202.42L373.17,173.74L354.10,163.90L334.77,173.25L305.49,211.28L295.89,211.16L315.45,182.60L315.58,173.00L306.10,163.28L277.18,172.51ZM371.95,269.73L371.82,279.33L381.30,289.05L333.06,307.64L323.21,326.71L332.45,355.63L370.60,375.32L389.80,375.57L428.31,366.46L447.88,337.91L448.13,318.71L400.62,279.70L400.74,270.10L429.54,270.47L477.90,242.28L487.87,213.61L478.64,184.69L507.44,185.06L507.56,175.46L469.16,174.97L430.89,164.88L382.53,193.06L372.56,221.74L391.27,260.38ZM430.64,184.07L449.84,184.32L459.07,213.24L458.95,222.84L429.79,251.27L410.59,251.02L401.36,222.10L401.48,212.50ZM390.78,298.77L419.21,327.94L418.96,347.14L389.92,365.97L361.37,346.40L352.01,327.08L361.86,308.01Z" fill="#ffffff" stroke="#000000"/>
    <path d="M-556.56,-251.17L-556.11,-279.66L-536.20,-336.35L-488.10,-373.59L-469.10,-373.29L-450.41,-353.99L-450.86,-325.49L-431.86,-325.19L-412.56,-343.88L-421.76,-363.03L-468.95,-382.78L-497.45,-383.24L-535.74,-364.85L-564.70,-336.81L-584.15,-308.61L-594.40,-261.27L-576.17,-213.47L-538.47,-193.87L-500.48,-193.26L-471.68,-211.81L-442.73,-239.85L-452.07,-249.50L-481.03,-221.46L-509.83,-202.91L-528.82,-203.22L-547.67,-213.02ZM-405.19,-210.75L-316.82,-389.86L-383.31,-390.92L-383.46,-381.42L-354.96,-380.97L-433.68,-211.20L-433.84,-201.70L-414.99,-191.90L-386.34,-200.94L-338.09,-247.68L-347.44,-257.33L-395.69,-210.59ZM-232.09,-341.00L-222.59,-340.85L-212.79,-359.69L-212.63,-369.19L-231.48,-378.99L-240.98,-379.15L-250.78,-360.30L-250.93,-350.80ZM-337.79,-266.68L-328.44,-257.03L-280.19,-303.76L-270.69,-303.61L-329.20,-209.53L-329.35,-200.03L-320.00,-190.38L-301.00,-190.08L-281.85,-199.27L-233.60,-246.01L-242.95,-255.66L-291.20,-208.93L-300.70,-209.08L-242.19,-303.15L-242.04,-312.65L-260.89,-322.46L-289.53,-313.41ZM-81.17,-272.08L-61.87,-290.77L-42.72,-299.97L-33.37,-290.32L-82.23,-205.59L-82.38,-196.09L-73.03,-186.44L-54.04,-186.14L-34.89,-195.33L13.37,-242.07L4.02,-251.72L-44.23,-204.98L-53.73,-205.13L-5.02,-280.37L-4.57,-308.86L-32.91,-318.82L-61.56,-309.77L-80.86,-291.08L-80.56,-310.08L-99.41,-319.88L-128.05,-310.83L-157.01,-282.79L-147.20,-301.64L-147.05,-311.14L-156.40,-320.79L-185.05,-311.74L-233.30,-265.01L-223.95,-255.36L-175.70,-302.09L-166.20,-301.94L-224.86,-198.36L-215.51,-188.71L-196.52,-188.41L-157.31,-263.79L-128.36,-291.84L-109.21,-301.03L-99.86,-291.38L-148.87,-197.15L-139.52,-187.50L-120.53,-187.20ZM166.41,-306.13L157.06,-315.78L137.61,-287.59L128.41,-306.74L90.57,-316.84L42.47,-279.61L22.71,-232.42L31.61,-194.27L50.45,-184.47L69.45,-184.16L98.40,-212.21L98.10,-193.21L107.44,-183.56L136.09,-192.60L184.34,-239.34L175.00,-248.99L126.74,-202.25L117.25,-202.40ZM69.75,-203.16L60.25,-203.31L51.21,-231.96L70.81,-269.65L99.76,-297.70L118.76,-297.39L127.96,-278.24L127.81,-268.74L98.70,-231.20ZM212.23,-200.89L261.24,-295.12L289.74,-294.66L289.89,-304.16L261.40,-304.62L281.00,-342.31L262.00,-342.61L252.05,-314.27L232.90,-305.07L213.90,-305.37L213.75,-295.88L232.75,-295.57L183.74,-201.34L183.59,-191.84L192.93,-182.19L211.93,-181.89L231.08,-191.09L279.33,-237.82L269.98,-247.47L221.73,-200.74ZM422.27,-264.04L422.57,-283.04L413.38,-302.19L375.53,-312.29L327.58,-284.56L298.18,-228.02L307.07,-189.87L325.92,-180.07L344.91,-179.77L364.06,-188.96L402.66,-226.35L393.32,-236.00L354.72,-198.61L335.72,-198.92L326.67,-227.56L346.28,-265.26L375.23,-293.30L394.23,-292.99L393.77,-264.50L374.62,-255.30L346.13,-255.76L345.98,-246.26L393.47,-245.50ZM-667.50,-146.52L-648.80,-127.22L-698.72,24.00L-727.52,42.54L-613.54,44.36L-575.24,25.97L-546.29,-2.07L-526.83,-30.26L-516.58,-77.61L-534.82,-125.40L-582.01,-145.16ZM-554.88,-59.22L-574.78,-2.53L-603.73,25.52L-622.88,34.71L-660.88,34.10L-670.23,24.45L-620.31,-126.77L-610.65,-136.12L-582.16,-135.66L-563.31,-125.86L-554.42,-87.71ZM-384.20,-37.49L-383.90,-56.49L-393.09,-75.63L-430.94,-85.74L-478.89,-58.00L-508.29,-1.46L-499.40,36.68L-480.55,46.48L-461.56,46.79L-442.41,37.59L-403.80,0.20L-413.15,-9.45L-451.75,27.94L-470.75,27.64L-479.80,-1.01L-460.19,-38.70L-431.24,-66.74L-412.24,-66.44L-412.70,-37.94L-431.85,-28.75L-460.34,-29.20L-460.49,-19.70L-413.00,-18.95ZM-366.42,38.81L-365.96,10.31L-375.31,0.66L-394.46,9.85L-394.91,38.35L-376.07,48.15L-357.07,48.46L-328.42,39.41L-309.12,20.72L-308.82,1.72L-317.56,-45.93L-317.25,-64.92L-298.10,-74.12L-298.56,-45.62L-289.21,-35.97L-270.06,-45.17L-269.61,-73.66L-297.95,-83.62L-336.10,-74.72L-345.90,-55.88L-346.21,-36.88L-337.31,1.27L-337.62,20.26L-356.92,38.96ZM-164.67,-100.49L-155.17,-100.34L-145.37,-119.19L-145.21,-128.68L-164.06,-138.49L-173.56,-138.64L-183.36,-119.79L-183.51,-110.29ZM-270.37,-26.17L-261.02,-16.52L-212.77,-63.25L-203.27,-63.10L-261.78,30.98L-261.93,40.47L-252.58,50.12L-233.58,50.43L-214.44,41.23L-166.18,-5.50L-175.53,-15.15L-223.78,31.58L-233.28,31.43L-174.77,-62.65L-174.62,-72.15L-193.47,-81.95L-222.11,-72.91ZM-147.64,23.30L-147.79,32.79L-138.45,42.45L-186.24,60.68L-196.04,79.53L-187.00,108.18L-149.31,127.78L-130.31,128.09L-92.16,119.19L-72.71,91.00L-72.41,72.00L-119.30,33.25L-119.14,23.75L-90.65,24.21L-42.70,-3.53L-32.75,-31.88L-41.79,-60.52L-13.29,-60.07L-13.14,-69.57L-51.14,-70.18L-88.98,-80.28L-136.93,-52.54L-146.88,-24.20L-128.49,14.10ZM-89.28,-61.28L-70.29,-60.98L-61.24,-32.33L-61.39,-22.83L-90.34,5.21L-109.34,4.91L-118.39,-23.74L-118.23,-33.24ZM-129.10,52.10L-101.06,81.05L-101.36,100.04L-130.16,118.59L-158.35,99.13L-167.55,79.99L-157.75,61.14ZM-23.40,-22.23L-14.05,-12.58L34.20,-59.31L43.70,-59.16L-14.96,44.42L-5.61,54.07L13.38,54.37L52.59,-21.01L81.54,-49.05L100.69,-58.25L110.04,-48.60L61.18,36.13L61.03,45.63L70.38,55.28L89.37,55.58L108.52,46.39L156.78,-0.35L147.43,-10.00L99.18,36.74L89.68,36.59L138.38,-38.65L138.84,-67.14L110.49,-77.10L81.85,-68.05L52.90,-40.01L62.70,-58.86L62.85,-68.36L53.50,-78.01L24.85,-68.96ZM290.21,-26.72L290.52,-45.72L281.32,-64.87L243.48,-74.97L195.53,-47.23L166.12,9.30L175.01,47.45L193.86,57.25L212.86,57.56L232.01,48.36L270.61,10.97L261.26,1.32L222.66,38.71L203.66,38.41L194.62,9.76L214.22,-27.93L243.17,-55.98L262.17,-55.67L261.72,-27.18L242.57,-17.98L214.07,-18.44L213.92,-8.94L261.41,-8.18ZM290.06,-17.22L299.41,-7.57L347.66,-54.31L357.16,-54.16L298.50,49.42L307.85,59.07L326.84,59.38L366.05,-16.01L394.85,-34.55L423.35,-34.10L433.30,-62.44L414.46,-72.24L395.31,-63.05L366.20,-25.51L356.71,-25.66L376.16,-53.85L376.31,-63.35L366.96,-73.00L338.31,-63.96ZM431.48,51.54L431.94,23.05L422.59,13.40L403.44,22.59L402.99,51.09L421.83,60.89L440.83,61.20L469.48,52.15L488.78,33.46L489.08,14.46L480.34,-33.19L480.64,-52.18L499.79,-61.38L499.34,-32.88L508.69,-23.23L527.83,-32.43L528.29,-60.92L499.95,-70.88L461.80,-61.99L452.00,-43.14L451.69,-24.14L460.59,14.00L460.28,33.00L440.98,51.70ZM-547.83,94.82L-627.46,321.57L-570.47,322.48L-570.32,312.99L-598.66,303.03L-598.36,284.03L-538.64,113.97L-490.99,105.23L-490.84,95.73ZM-427.38,286.76L-417.88,286.92L-398.73,277.72L-350.48,230.98L-359.83,221.33L-408.08,268.07L-417.58,267.92L-329.21,88.81L-395.70,87.74L-395.85,97.24L-367.36,97.70L-397.22,182.73L-406.41,163.58L-444.26,153.48L-492.36,190.71L-512.11,237.91L-503.22,276.05L-484.37,285.85L-465.38,286.16L-436.43,258.12L-436.73,277.11ZM-465.07,267.16L-474.57,267.01L-483.62,238.36L-464.01,200.67L-435.06,172.63L-416.06,172.93L-406.87,192.08L-407.02,201.58L-436.12,239.12ZM-303.90,288.74L-284.90,289.04L-236.95,261.30L-207.55,204.76L-225.94,166.46L-263.78,156.36L-311.73,184.10L-341.13,240.63L-322.74,278.93ZM-264.08,175.36L-245.09,175.66L-236.04,204.31L-255.65,242.00L-284.60,270.04L-303.59,269.74L-312.64,241.09L-293.03,203.40ZM-170.61,271.86L-121.60,177.63L-93.10,178.09L-92.95,168.59L-121.45,168.13L-101.85,130.44L-120.84,130.14L-130.80,158.48L-149.95,167.68L-168.94,167.37L-169.10,176.87L-150.10,177.18L-199.11,271.41L-199.26,280.90L-189.91,290.56L-170.91,290.86L-151.77,281.66L-103.51,234.93L-112.86,225.28L-161.11,272.01ZM-67.03,330.52L12.60,103.76L-44.40,102.85L-44.55,112.35L-16.20,122.31L-16.51,141.30L-76.23,311.37L-123.88,320.11L-124.03,329.61ZM114.05,295.41L133.05,295.71L181.00,267.97L210.40,211.44L192.01,173.14L154.17,163.03L106.22,190.77L76.81,247.31L95.20,285.61ZM153.86,182.03L172.86,182.33L181.91,210.98L162.30,248.67L133.35,276.71L114.35,276.41L105.31,247.76L124.91,210.07ZM219.75,221.09L229.10,230.74L277.35,184.00L286.85,184.15L228.19,287.73L237.53,297.38L256.53,297.68L295.74,222.30L324.54,203.76L353.04,204.21L362.99,175.87L344.14,166.06L324.99,175.26L295.89,212.80L286.39,212.65L305.84,184.46L306.00,174.96L296.65,165.31L268.00,174.35ZM361.47,270.85L361.32,280.35L370.67,290.00L322.87,308.24L313.07,327.09L322.11,355.74L359.80,375.34L378.80,375.64L416.95,366.75L436.40,338.56L436.70,319.56L389.82,280.81L389.97,271.31L418.46,271.76L466.41,244.03L476.37,215.68L467.32,187.03L495.82,187.49L495.97,177.99L457.98,177.38L420.13,167.28L372.18,195.02L362.23,223.36L380.62,261.66ZM419.83,186.28L438.83,186.58L447.87,215.23L447.72,224.73L418.77,252.77L399.77,252.46L390.73,223.82L390.88,214.32ZM380.01,299.65L408.06,328.61L407.75,347.60L378.95,366.15L350.76,346.69L341.56,327.54L351.37,308.70Z" fill="#ffffff" stroke="#000000"/>
    <path d="M-555.60,-247.57L-555.06,-275.76L-535.18,-331.79L-487.47,-368.49L-468.67,-368.13L-450.24,-348.97L-450.78,-320.77L-431.98,-320.41L-412.82,-338.85L-421.86,-357.83L-468.49,-377.52L-496.69,-378.06L-534.64,-359.99L-563.38,-332.33L-582.71,-304.50L-593.01,-257.69L-575.12,-210.34L-537.88,-190.82L-500.29,-190.10L-471.74,-208.35L-443.00,-236.01L-452.22,-245.59L-480.95,-217.93L-509.51,-199.68L-528.31,-200.04L-546.92,-209.80ZM-405.95,-207.09L-317.94,-384.04L-383.73,-385.30L-383.91,-375.90L-355.71,-375.36L-434.14,-207.63L-434.32,-198.24L-415.71,-188.48L-387.33,-197.34L-339.44,-243.43L-348.66,-253.01L-396.55,-206.91ZM-234.26,-335.43L-224.86,-335.25L-215.10,-353.87L-214.92,-363.26L-233.54,-373.02L-242.94,-373.20L-252.69,-354.59L-252.87,-345.19ZM-339.08,-262.22L-329.86,-252.65L-281.97,-298.74L-272.57,-298.56L-330.76,-205.65L-330.94,-196.26L-321.72,-186.68L-302.93,-186.32L-283.95,-195.36L-236.06,-241.45L-245.28,-251.02L-293.17,-204.93L-302.57,-205.11L-244.38,-298.02L-244.20,-307.41L-262.81,-317.17L-291.19,-308.31ZM-85.15,-266.76L-65.99,-285.20L-47.01,-294.23L-37.79,-284.66L-86.41,-200.97L-86.59,-191.57L-77.37,-182.00L-58.57,-181.64L-39.59,-190.67L8.30,-236.76L-0.92,-246.34L-48.81,-200.25L-58.21,-200.43L-9.78,-274.72L-9.24,-302.91L-37.25,-312.85L-65.63,-303.99L-84.79,-285.56L-84.43,-304.35L-103.04,-314.11L-131.42,-305.25L-160.15,-277.60L-150.39,-296.22L-150.21,-305.61L-159.43,-315.19L-187.81,-306.33L-235.70,-260.24L-226.48,-250.66L-178.59,-296.76L-169.19,-296.58L-227.56,-194.27L-218.34,-184.70L-199.55,-184.34L-160.51,-258.80L-131.78,-286.46L-112.80,-295.50L-103.58,-285.92L-152.37,-192.83L-143.16,-183.26L-124.36,-182.90ZM159.93,-299.67L150.71,-309.25L131.37,-281.42L122.34,-300.39L84.92,-310.51L37.21,-273.82L17.52,-227.19L26.19,-189.41L44.81,-179.65L63.61,-179.29L92.34,-206.95L91.98,-188.15L101.20,-178.57L129.57,-187.43L177.47,-233.52L168.25,-243.10L120.36,-197.01L110.96,-197.19ZM63.97,-198.09L54.57,-198.27L45.71,-226.65L65.23,-263.88L93.96,-291.53L112.76,-291.17L121.80,-272.20L121.62,-262.80L92.70,-225.75ZM204.94,-195.39L253.73,-288.47L281.93,-287.93L282.11,-297.33L253.91,-297.87L273.43,-335.10L254.63,-335.46L244.69,-307.45L225.72,-298.41L206.92,-298.77L206.74,-289.37L225.54,-289.01L176.75,-195.93L176.57,-186.53L185.78,-176.95L204.58,-176.59L223.56,-185.63L271.45,-231.72L262.23,-241.30L214.34,-195.21ZM412.96,-257.22L413.32,-276.01L404.28,-294.99L366.87,-305.11L319.34,-277.81L290.07,-221.96L298.74,-184.19L317.36,-174.43L336.16,-174.07L355.13,-183.11L393.45,-219.98L384.23,-229.56L345.91,-192.69L327.12,-193.05L318.26,-221.42L337.78,-258.66L366.51,-286.31L385.31,-285.95L384.77,-257.76L365.79,-248.72L337.60,-249.26L337.42,-239.86L384.41,-238.96ZM-665.70,-144.38L-647.26,-125.22L-697.13,24.25L-725.69,42.51L-612.91,44.67L-574.95,26.59L-546.22,-1.06L-526.88,-28.90L-516.58,-75.71L-534.48,-123.06L-581.11,-142.76ZM-554.54,-57.63L-574.41,-1.60L-603.15,26.05L-622.13,35.09L-659.72,34.37L-668.94,24.79L-619.07,-124.68L-609.49,-133.90L-581.29,-133.36L-562.68,-123.60L-554.00,-85.83ZM-385.73,-35.60L-385.37,-54.39L-394.41,-73.37L-431.82,-83.49L-479.35,-56.19L-508.63,-0.34L-499.95,37.43L-481.33,47.19L-462.54,47.55L-443.56,38.51L-405.25,1.64L-414.46,-7.94L-452.78,28.93L-471.57,28.57L-480.43,0.20L-460.92,-37.04L-432.18,-64.69L-413.38,-64.33L-413.92,-36.14L-432.90,-27.10L-461.10,-27.64L-461.28,-18.24L-414.28,-17.34ZM-368.37,39.95L-367.83,11.76L-377.05,2.18L-396.03,11.22L-396.57,39.41L-377.95,49.17L-359.15,49.53L-330.78,40.67L-311.62,22.23L-311.26,3.44L-319.76,-43.73L-319.40,-62.53L-300.42,-71.57L-300.96,-43.37L-291.75,-33.79L-272.77,-42.83L-272.23,-71.03L-300.24,-80.97L-338.02,-72.29L-347.78,-53.67L-348.14,-34.88L-339.46,2.90L-339.82,21.69L-358.97,40.13ZM-168.31,-97.24L-158.91,-97.06L-149.15,-115.68L-148.97,-125.08L-167.59,-134.84L-176.99,-135.02L-186.74,-116.40L-186.92,-107.00ZM-273.13,-24.04L-263.91,-14.46L-216.02,-60.55L-206.62,-60.37L-264.81,32.53L-264.99,41.93L-255.77,51.51L-236.98,51.87L-218.00,42.83L-170.11,-3.26L-179.33,-12.84L-227.22,33.25L-236.62,33.07L-178.43,-59.83L-178.25,-69.23L-196.86,-78.99L-225.24,-70.13ZM-151.85,25.30L-152.03,34.69L-142.81,44.27L-190.17,62.17L-199.92,80.79L-191.07,109.16L-153.83,128.68L-135.04,129.04L-97.26,120.36L-77.93,92.52L-77.57,73.73L-123.84,35.23L-123.66,25.84L-95.46,26.38L-47.93,-0.92L-37.99,-28.93L-46.85,-57.31L-18.66,-56.77L-18.48,-66.17L-56.07,-66.89L-93.48,-77.00L-141.01,-49.71L-150.95,-21.70L-132.88,16.26ZM-93.84,-58.21L-75.05,-57.85L-66.19,-29.47L-66.37,-20.08L-95.10,7.58L-113.90,7.22L-122.76,-21.16L-122.58,-30.55ZM-133.60,53.85L-105.94,82.59L-106.30,101.38L-134.86,119.64L-162.69,100.30L-171.73,81.33L-161.97,62.71ZM-28.77,-19.35L-19.56,-9.78L28.34,-55.87L37.73,-55.69L-20.64,46.61L-11.42,56.19L7.38,56.55L46.41,-17.91L75.15,-45.57L94.12,-54.61L103.34,-45.03L54.73,38.66L54.55,48.05L63.77,57.63L82.56,57.99L101.54,48.95L149.43,2.86L140.21,-6.72L92.32,39.38L82.92,39.20L131.36,-35.09L131.90,-63.29L103.88,-73.22L75.51,-64.37L46.77,-36.71L56.53,-55.33L56.71,-64.73L47.49,-74.30L19.12,-65.45ZM281.55,-22.81L281.91,-41.61L272.87,-60.58L235.46,-70.70L187.93,-43.41L158.65,12.44L167.33,50.21L185.95,59.97L204.74,60.33L223.72,51.29L262.03,14.42L252.81,4.84L214.50,41.72L195.70,41.36L186.85,12.98L206.36,-24.25L235.10,-51.91L253.89,-51.55L253.35,-23.35L234.38,-14.31L206.18,-14.85L206.00,-5.45L252.99,-4.55ZM281.37,-13.41L290.59,-3.83L338.48,-49.93L347.88,-49.75L289.51,52.56L298.72,62.13L317.52,62.49L356.55,-11.97L385.11,-30.23L413.30,-29.69L423.24,-57.70L404.63,-67.46L385.65,-58.42L356.73,-21.37L347.34,-21.55L366.67,-49.39L366.85,-58.78L357.64,-68.36L329.26,-59.50ZM421.08,55.08L421.62,26.88L412.40,17.30L393.43,26.34L392.89,54.54L411.50,64.29L430.30,64.65L458.68,55.80L477.83,37.36L478.19,18.56L469.69,-28.61L470.05,-47.40L489.03,-56.44L488.49,-28.25L497.71,-18.67L516.69,-27.71L517.23,-55.90L489.21,-65.84L451.44,-57.16L441.68,-38.55L441.32,-19.75L450.00,18.02L449.64,36.82L430.48,55.26ZM-548.06,94.80L-627.56,318.92L-571.17,320.00L-570.99,310.60L-599.01,300.66L-598.65,281.86L-539.02,113.78L-491.85,105.28L-491.67,95.88ZM-429.48,285.11L-420.08,285.29L-401.11,276.25L-353.21,230.16L-362.43,220.58L-410.32,266.67L-419.72,266.49L-331.72,89.54L-397.50,88.28L-397.68,97.68L-369.49,98.22L-399.30,182.26L-408.34,163.29L-445.76,153.17L-493.47,189.86L-513.16,236.49L-504.49,274.27L-485.87,284.02L-467.07,284.38L-438.34,256.73L-438.70,275.53ZM-466.71,265.59L-476.11,265.41L-484.97,237.03L-465.45,199.80L-436.72,172.15L-417.92,172.51L-408.88,191.48L-409.06,200.88L-437.98,237.93ZM-307.30,287.45L-288.51,287.81L-240.97,260.51L-211.70,204.66L-229.78,166.71L-267.19,156.59L-314.72,183.88L-344.00,239.73L-325.92,277.69ZM-267.55,175.39L-248.75,175.75L-239.89,204.12L-259.41,241.36L-288.15,269.01L-306.94,268.65L-315.80,240.27L-296.28,203.04ZM-175.37,271.17L-126.57,178.09L-98.38,178.63L-98.20,169.23L-126.39,168.69L-106.88,131.46L-125.67,131.10L-135.61,159.11L-154.59,168.15L-173.39,167.79L-173.57,177.19L-154.77,177.55L-203.56,270.63L-203.74,280.03L-194.52,289.61L-175.73,289.97L-156.75,280.93L-108.86,234.84L-118.08,225.26L-165.97,271.35ZM-73.07,329.54L6.44,105.42L-49.95,104.34L-50.13,113.74L-22.11,123.68L-22.47,142.48L-82.10,310.56L-129.28,319.06L-129.46,328.46ZM106.22,295.37L125.02,295.73L172.55,268.43L201.82,212.59L183.75,174.63L146.34,164.51L98.80,191.81L69.53,247.66L87.60,285.61ZM145.98,183.31L164.77,183.67L173.63,212.04L154.11,249.28L125.38,276.93L106.58,276.57L97.72,248.20L117.24,210.96ZM211.04,222.16L220.26,231.74L268.15,185.65L277.55,185.83L219.18,288.13L228.40,297.71L247.20,298.07L286.23,223.60L314.78,205.35L342.98,205.89L352.92,177.87L334.30,168.11L315.32,177.15L286.41,214.21L277.01,214.03L296.35,186.19L296.53,176.79L287.31,167.21L258.93,176.07ZM351.12,271.86L350.94,281.25L360.15,290.83L312.80,308.73L303.05,327.35L311.90,355.72L349.14,375.24L367.93,375.60L405.71,366.92L425.04,339.08L425.40,320.29L379.13,281.79L379.31,272.40L407.51,272.94L455.04,245.64L464.98,217.63L456.12,189.25L484.31,189.79L484.49,180.39L446.90,179.67L409.49,169.56L361.96,196.85L352.02,224.86L370.09,262.82ZM409.13,188.35L427.92,188.71L436.78,217.09L436.60,226.49L407.87,254.14L389.07,253.78L380.21,225.40L380.39,216.01ZM369.37,300.41L397.03,329.15L396.67,347.94L368.11,366.20L340.28,346.86L331.24,327.89L341.00,309.27Z" fill="#ffffff" stroke="#000000"/>
    <path d="M-554.55,-244.02L-553.92,-271.92L-534.08,-327.29L-486.76,-363.44L-468.16,-363.02L-449.98,-344.01L-450.61,-316.12L-432.01,-315.70L-413.00,-333.88L-421.88,-352.69L-467.96,-372.32L-495.85,-372.94L-533.46,-355.18L-561.97,-327.91L-581.19,-300.43L-591.53,-254.15L-573.97,-207.25L-537.20,-187.82L-500.01,-186.99L-471.70,-204.96L-443.18,-232.23L-452.27,-241.74L-480.79,-214.47L-509.10,-196.50L-527.69,-196.91L-546.08,-206.63ZM-406.61,-203.51L-318.99,-378.29L-384.07,-379.75L-384.28,-370.45L-356.38,-369.83L-434.51,-204.13L-434.71,-194.83L-416.33,-185.12L-388.23,-193.79L-340.70,-239.24L-349.79,-248.75L-397.32,-203.30ZM-236.35,-329.93L-227.05,-329.73L-217.33,-348.11L-217.13,-357.41L-235.51,-367.12L-244.81,-367.33L-254.53,-348.95L-254.73,-339.65ZM-340.28,-257.84L-331.19,-248.33L-283.67,-293.78L-274.37,-293.57L-332.23,-201.85L-332.44,-192.55L-323.35,-183.04L-304.75,-182.63L-285.95,-191.51L-238.42,-236.96L-247.51,-246.46L-295.04,-201.01L-304.34,-201.22L-246.47,-292.95L-246.27,-302.25L-264.65,-311.96L-292.76,-303.29ZM-89.04,-261.53L-70.03,-279.70L-51.22,-288.59L-42.13,-279.08L-90.49,-196.44L-90.70,-187.14L-81.61,-177.64L-63.02,-177.22L-44.21,-186.10L3.32,-231.55L-5.77,-241.06L-53.30,-195.61L-62.60,-195.82L-14.45,-269.16L-13.82,-297.05L-41.51,-306.97L-69.61,-298.30L-88.62,-280.12L-88.21,-298.72L-106.59,-308.43L-134.69,-299.76L-163.21,-272.49L-153.50,-290.87L-153.29,-300.17L-162.38,-309.68L-190.48,-301.00L-238.01,-255.55L-228.92,-246.05L-181.39,-291.50L-172.09,-291.29L-230.17,-190.26L-221.08,-180.76L-202.48,-180.34L-163.63,-253.89L-135.11,-281.16L-116.31,-290.04L-107.22,-280.54L-155.78,-188.60L-146.69,-179.09L-128.10,-178.68ZM153.53,-293.31L144.44,-302.82L125.22,-275.34L116.34,-294.14L79.36,-304.27L32.04,-268.12L12.41,-222.05L20.87,-184.65L39.26,-174.94L57.85,-174.52L86.37,-201.79L85.96,-183.19L95.05,-173.69L123.15,-182.36L170.67,-227.81L161.58,-237.32L114.06,-191.87L104.76,-192.08ZM58.27,-193.12L48.97,-193.32L40.30,-221.42L59.73,-258.20L88.24,-285.47L106.84,-285.05L115.72,-266.25L115.51,-256.95L86.79,-220.39ZM197.74,-190.00L246.30,-281.94L274.20,-281.31L274.40,-290.61L246.51,-291.23L265.94,-328.01L247.34,-328.42L237.42,-300.74L218.62,-291.86L200.02,-292.27L199.81,-282.98L218.41,-282.56L169.84,-190.62L169.63,-181.32L178.72,-171.82L197.32,-171.40L216.12,-180.29L263.65,-225.73L254.56,-235.24L207.03,-189.79ZM403.74,-250.51L404.15,-269.11L395.27,-287.91L358.29,-298.04L311.18,-271.18L282.04,-216.02L290.50,-178.62L308.89,-168.91L327.49,-168.49L346.29,-177.38L384.31,-213.73L375.22,-223.24L337.20,-186.88L318.61,-187.30L309.93,-215.40L329.36,-252.17L357.87,-279.44L376.47,-279.03L375.85,-251.13L357.04,-242.25L329.15,-242.87L328.94,-233.58L375.43,-232.54ZM-663.80,-142.28L-645.62,-123.27L-695.43,24.45L-723.74,42.43L-612.17,44.92L-574.56,27.16L-546.04,-0.11L-526.82,-27.59L-516.49,-73.87L-534.04,-120.78L-580.12,-140.41ZM-554.09,-56.11L-573.94,-0.74L-602.45,26.53L-621.26,35.41L-658.45,34.58L-667.54,25.08L-617.72,-122.65L-608.22,-131.74L-580.32,-131.11L-561.94,-121.40L-553.47,-84.00ZM-387.15,-33.77L-386.74,-52.37L-395.62,-71.17L-432.60,-81.30L-479.71,-54.44L-508.85,0.72L-500.39,38.12L-482.00,47.83L-463.40,48.25L-444.60,39.36L-406.58,3.00L-415.67,-6.50L-453.69,29.86L-472.29,29.44L-480.96,1.34L-461.53,-35.43L-433.02,-62.70L-414.42,-62.29L-415.05,-34.39L-433.85,-25.51L-461.74,-26.14L-461.95,-16.84L-415.46,-15.80ZM-370.22,41.03L-369.60,13.13L-378.69,3.63L-397.49,12.51L-398.11,40.40L-379.72,50.12L-361.13,50.53L-333.03,41.86L-314.02,23.68L-313.60,5.08L-321.86,-41.61L-321.44,-60.21L-302.64,-69.09L-303.27,-41.20L-294.18,-31.69L-275.37,-40.57L-274.75,-68.47L-302.43,-78.39L-339.83,-69.92L-349.55,-51.53L-349.96,-32.94L-341.49,4.46L-341.91,23.05L-360.92,41.23ZM-171.85,-94.07L-162.55,-93.87L-152.84,-112.25L-152.63,-121.55L-171.02,-131.26L-180.32,-131.47L-190.03,-113.09L-190.24,-103.79ZM-275.79,-21.98L-266.70,-12.47L-219.17,-57.92L-209.87,-57.71L-267.74,34.02L-267.94,43.31L-258.86,52.82L-240.26,53.23L-221.46,44.35L-173.93,-1.10L-183.02,-10.60L-230.55,34.85L-239.84,34.64L-181.98,-57.09L-181.77,-66.39L-200.16,-76.10L-228.26,-67.43ZM-155.96,27.21L-156.16,36.51L-147.08,46.01L-193.98,63.57L-203.69,81.96L-195.02,110.06L-158.24,129.49L-139.65,129.90L-102.25,121.44L-83.03,93.96L-82.61,75.36L-128.27,37.13L-128.06,27.83L-100.17,28.46L-53.06,1.60L-43.14,-26.08L-51.81,-54.18L-23.92,-53.56L-23.71,-62.86L-60.90,-63.69L-97.88,-73.82L-145.00,-46.96L-154.92,-19.28L-137.15,18.33ZM-98.30,-55.22L-79.71,-54.80L-71.03,-26.70L-71.24,-17.41L-99.76,9.86L-118.35,9.45L-127.02,-18.65L-126.82,-27.95ZM-137.99,55.52L-110.72,84.04L-111.13,102.63L-139.44,120.60L-166.92,101.39L-175.80,82.58L-166.09,64.19ZM-34.05,-16.58L-24.96,-7.07L22.57,-52.52L31.87,-52.31L-26.21,48.72L-17.12,58.22L1.48,58.64L40.33,-14.91L68.85,-42.18L87.65,-51.06L96.74,-41.56L48.38,41.08L48.18,50.38L57.27,59.88L75.86,60.30L94.66,51.42L142.19,5.97L133.10,-3.54L85.57,41.91L76.28,41.71L124.43,-31.64L125.05,-59.53L97.37,-69.45L69.27,-60.78L40.75,-33.51L50.46,-51.90L50.67,-61.19L41.58,-70.70L13.48,-62.02ZM272.98,-19.01L273.40,-37.61L264.52,-56.41L227.53,-66.54L180.42,-39.69L151.28,15.47L159.75,52.87L178.14,62.59L196.73,63.00L215.53,54.12L253.56,17.76L244.47,8.26L206.44,44.61L187.85,44.20L179.17,16.10L198.60,-20.68L227.12,-47.95L245.71,-47.53L245.09,-19.64L226.29,-10.76L198.39,-11.38L198.19,-2.08L244.67,-1.04ZM272.78,-9.72L281.87,-0.21L329.39,-45.66L338.69,-45.45L280.62,55.58L289.71,65.08L308.30,65.50L347.16,-8.05L375.47,-26.03L403.36,-25.40L413.28,-53.09L394.89,-62.80L376.09,-53.92L347.36,-17.35L338.07,-17.56L357.29,-45.04L357.49,-54.33L348.40,-63.84L320.30,-55.17ZM410.79,58.48L411.41,30.59L402.32,21.09L383.52,29.97L382.89,57.86L401.28,67.57L419.88,67.99L447.98,59.32L466.99,41.14L467.40,22.54L459.14,-24.16L459.56,-42.75L478.36,-51.63L477.74,-23.74L486.83,-14.23L505.63,-23.12L506.26,-51.01L478.57,-60.93L441.17,-52.46L431.46,-34.08L431.04,-15.48L439.51,21.92L439.09,40.51L420.08,58.69ZM-548.16,94.72L-627.53,316.20L-571.75,317.45L-571.54,308.15L-599.22,298.23L-598.81,279.64L-539.28,113.53L-492.59,105.27L-492.38,95.97ZM-431.45,283.38L-422.15,283.59L-403.35,274.70L-355.82,229.26L-364.91,219.75L-412.44,265.20L-421.74,264.99L-334.11,90.21L-399.19,88.75L-399.40,98.05L-371.51,98.67L-401.27,181.73L-410.15,162.92L-447.14,152.80L-494.46,188.95L-514.09,235.02L-505.62,272.42L-487.24,282.13L-468.64,282.55L-440.12,255.28L-440.54,273.87ZM-468.23,263.95L-477.52,263.74L-486.20,235.64L-466.77,198.87L-438.25,171.60L-419.66,172.01L-410.78,190.82L-410.98,200.12L-439.71,236.68ZM-310.58,286.08L-291.99,286.50L-244.87,259.64L-215.73,204.48L-233.50,166.87L-270.48,156.74L-317.59,183.60L-346.73,238.76L-328.97,276.37ZM-270.90,175.34L-252.30,175.76L-243.63,203.86L-263.05,240.63L-291.57,267.90L-310.17,267.49L-318.84,239.38L-299.41,202.61ZM-180.00,270.39L-131.43,178.46L-103.54,179.08L-103.33,169.78L-131.22,169.16L-111.80,132.38L-130.39,131.97L-140.31,159.65L-159.12,168.54L-177.71,168.12L-177.92,177.42L-159.32,177.83L-207.89,269.77L-208.10,279.07L-199.01,288.57L-180.41,288.99L-161.61,280.11L-114.08,234.66L-123.17,225.15L-170.70,270.60ZM-78.97,328.47L0.40,106.99L-55.39,105.74L-55.59,115.04L-27.91,124.96L-28.33,143.55L-87.85,309.66L-134.55,317.92L-134.76,327.22ZM98.52,295.23L117.11,295.64L164.22,268.79L193.36,213.62L175.60,176.02L138.62,165.89L91.51,192.74L62.37,247.91L80.13,285.51ZM138.20,184.48L156.80,184.90L165.47,213.00L146.04,249.78L117.53,277.05L98.93,276.63L90.26,248.53L109.69,211.75ZM202.45,223.13L211.54,232.64L259.07,187.19L268.37,187.39L210.30,288.42L219.39,297.93L237.98,298.34L276.84,224.79L305.14,206.82L333.04,207.44L342.96,179.76L324.57,170.05L305.77,178.93L277.04,215.50L267.75,215.29L286.96,187.81L287.17,178.51L278.08,169.01L249.98,177.68ZM340.88,272.74L340.67,282.03L349.76,291.54L302.86,309.10L293.14,327.48L301.82,355.58L338.59,375.01L357.19,375.43L394.59,366.96L413.81,339.48L414.22,320.89L368.57,282.66L368.77,273.36L396.67,273.98L443.78,247.13L453.70,219.44L445.02,191.34L472.92,191.97L473.13,182.67L435.94,181.84L398.95,171.71L351.84,198.56L341.92,226.25L359.68,263.85ZM398.54,190.30L417.13,190.72L425.81,218.82L425.60,228.12L397.08,255.39L378.49,254.97L369.81,226.87L370.02,217.57ZM358.85,301.04L386.12,329.56L385.71,348.16L357.40,366.13L329.92,346.91L321.04,328.11L330.75,309.72Z" fill="#ffffff" stroke="#000000"/>
    <path d="M-553.40,-240.53L-552.69,-268.12L-532.89,-322.84L-485.96,-358.45L-467.57,-357.98L-449.65,-339.11L-450.35,-311.52L-431.96,-311.05L-413.09,-328.98L-421.82,-347.61L-467.33,-367.18L-494.93,-367.88L-532.18,-350.43L-560.48,-323.54L-579.58,-296.42L-589.95,-250.67L-572.73,-204.21L-536.41,-184.88L-499.63,-183.94L-471.56,-201.63L-443.27,-228.52L-452.23,-237.95L-480.53,-211.06L-508.59,-193.37L-526.98,-193.84L-545.14,-203.51ZM-407.19,-199.98L-319.95,-372.61L-384.33,-374.26L-384.56,-365.06L-356.97,-364.36L-434.78,-200.69L-435.01,-191.49L-416.85,-181.83L-389.03,-190.32L-341.87,-235.13L-350.83,-244.56L-397.99,-199.75ZM-238.35,-324.51L-229.15,-324.28L-219.49,-342.44L-219.25,-351.63L-237.41,-361.30L-246.61,-361.54L-256.27,-343.38L-256.51,-334.18ZM-341.40,-253.52L-332.43,-244.09L-285.27,-288.90L-276.08,-288.67L-333.61,-198.11L-333.84,-188.91L-324.88,-179.48L-306.49,-179.01L-287.86,-187.73L-240.70,-232.54L-249.66,-241.98L-296.82,-197.17L-306.02,-197.40L-248.49,-287.96L-248.25,-297.16L-266.41,-306.82L-294.24,-298.33ZM-92.84,-256.37L-73.98,-274.30L-55.35,-283.03L-46.39,-273.59L-94.49,-192.00L-94.72,-182.80L-85.76,-173.37L-67.37,-172.90L-48.74,-181.62L-1.58,-226.43L-10.54,-235.87L-57.70,-191.06L-66.90,-191.29L-19.03,-263.69L-18.33,-291.28L-45.68,-301.18L-73.51,-292.69L-92.37,-274.77L-91.90,-293.16L-110.06,-302.83L-137.89,-294.34L-166.18,-267.45L-156.52,-285.61L-156.28,-294.81L-165.24,-304.24L-193.07,-295.75L-240.23,-250.94L-231.27,-241.51L-184.11,-286.32L-174.91,-286.08L-232.68,-186.32L-223.72,-176.89L-205.32,-176.42L-166.65,-249.06L-138.36,-275.94L-119.73,-284.67L-110.77,-275.24L-159.10,-184.44L-150.14,-175.01L-131.75,-174.54ZM147.22,-287.05L138.26,-296.49L119.16,-269.36L110.43,-287.99L73.88,-298.13L26.95,-262.52L7.38,-217.00L15.64,-179.98L33.80,-170.31L52.19,-169.84L80.49,-196.73L80.02,-178.33L88.98,-168.90L116.81,-177.39L163.97,-222.20L155.01,-231.64L107.85,-186.83L98.65,-187.06ZM52.66,-188.24L43.47,-188.47L34.98,-216.30L54.31,-252.62L82.61,-279.50L101.00,-279.03L109.73,-260.40L109.49,-251.21L80.96,-215.12ZM190.62,-184.71L238.95,-275.51L266.55,-274.80L266.78,-284.00L239.19,-284.70L258.52,-321.02L240.13,-321.49L230.23,-294.14L211.60,-285.41L193.20,-285.88L192.97,-276.68L211.36,-276.21L163.03,-185.42L162.79,-176.22L171.76,-166.79L190.15,-166.32L208.78,-175.04L255.94,-219.86L246.98,-229.29L199.82,-184.48ZM394.60,-243.92L395.07,-262.32L386.34,-280.94L349.79,-291.08L303.10,-264.67L274.10,-210.19L282.35,-173.17L300.51,-163.50L318.91,-163.03L337.54,-171.76L375.26,-207.60L366.30,-217.04L328.57,-181.19L310.18,-181.66L301.69,-209.48L321.02,-245.80L349.32,-272.69L367.71,-272.22L367.01,-244.63L348.38,-235.90L320.79,-236.60L320.55,-227.41L366.54,-226.23ZM-661.79,-140.23L-643.87,-121.36L-693.61,24.61L-721.68,42.30L-611.31,45.12L-574.05,27.67L-545.76,0.78L-526.66,-26.34L-516.29,-72.09L-533.51,-118.54L-579.02,-138.11ZM-553.55,-54.64L-573.35,0.08L-601.64,26.96L-620.27,35.69L-657.06,34.75L-666.02,25.32L-616.28,-120.66L-606.85,-129.62L-579.26,-128.92L-561.10,-119.25L-552.84,-82.23ZM-388.47,-32.01L-388.00,-50.41L-396.73,-69.03L-433.28,-79.17L-479.97,-52.76L-508.97,1.72L-500.71,38.74L-482.55,48.41L-464.16,48.88L-445.53,40.15L-407.80,4.31L-416.77,-5.13L-454.49,30.72L-472.89,30.25L-481.38,2.43L-462.05,-33.89L-433.75,-60.78L-415.36,-60.31L-416.06,-32.72L-434.69,-23.99L-462.28,-24.69L-462.52,-15.50L-416.53,-14.32ZM-371.95,42.03L-371.25,14.44L-380.21,5.01L-398.84,13.74L-399.55,41.33L-381.39,51.00L-362.99,51.47L-335.17,42.97L-316.30,25.05L-315.83,6.66L-323.86,-39.56L-323.39,-57.96L-304.76,-66.69L-305.46,-39.09L-296.50,-29.66L-277.87,-38.39L-277.17,-65.98L-304.52,-75.88L-341.54,-67.63L-351.21,-49.47L-351.68,-31.07L-343.42,5.95L-343.89,24.34L-362.76,42.27ZM-175.29,-90.99L-166.10,-90.75L-156.43,-108.91L-156.19,-118.11L-174.35,-127.77L-183.55,-128.01L-193.22,-109.85L-193.45,-100.65ZM-278.34,-20.00L-269.38,-10.56L-222.22,-55.37L-213.02,-55.14L-270.55,35.42L-270.79,44.62L-261.83,54.05L-243.43,54.52L-224.80,45.79L-177.64,0.98L-186.61,-8.45L-233.76,36.36L-242.96,36.13L-185.43,-54.43L-185.20,-63.63L-203.35,-73.30L-231.18,-64.81ZM-159.95,29.04L-160.19,38.24L-151.23,47.67L-197.68,64.89L-207.35,83.05L-198.86,110.88L-162.54,130.21L-144.14,130.68L-107.12,122.42L-88.02,95.30L-87.55,76.91L-132.60,38.95L-132.36,29.75L-104.77,30.45L-58.08,4.04L-48.18,-23.32L-56.67,-51.14L-29.08,-50.44L-28.85,-59.64L-65.63,-60.58L-102.19,-70.71L-148.88,-44.30L-158.78,-16.94L-141.33,20.32ZM-102.66,-52.32L-84.26,-51.85L-75.77,-24.02L-76.01,-14.83L-104.30,12.06L-122.70,11.59L-131.19,-16.24L-130.95,-25.43ZM-142.26,57.11L-115.38,85.40L-115.85,103.80L-143.91,121.48L-171.03,102.39L-179.76,83.76L-170.09,65.60ZM-39.22,-13.89L-30.26,-4.45L16.90,-49.26L26.10,-49.03L-31.67,50.73L-22.70,60.16L-4.31,60.63L34.36,-12.01L62.65,-38.89L81.28,-47.62L90.24,-38.19L42.15,43.41L41.91,52.61L50.87,62.04L69.27,62.51L87.90,53.78L135.05,8.97L126.09,-0.46L78.93,44.35L69.74,44.12L117.60,-28.29L118.31,-55.88L90.95,-65.78L63.12,-57.29L34.83,-30.40L44.49,-48.56L44.73,-57.76L35.77,-67.19L7.94,-58.70ZM264.52,-15.33L264.99,-33.72L256.26,-52.35L219.71,-62.49L173.02,-36.07L144.02,18.40L152.27,55.43L170.43,65.09L188.83,65.56L207.46,56.84L245.18,20.99L236.22,11.56L198.49,47.41L180.10,46.94L171.61,19.11L190.94,-17.21L219.24,-44.10L237.63,-43.63L236.93,-16.03L218.30,-7.31L190.71,-8.01L190.47,1.19L236.46,2.36ZM264.28,-6.13L273.24,3.30L320.40,-41.51L329.60,-41.28L271.84,58.48L280.80,67.91L299.19,68.38L337.86,-4.25L365.92,-21.94L393.51,-21.24L403.41,-48.59L385.25,-58.26L366.62,-49.53L338.09,-13.45L328.90,-13.68L348.00,-40.81L348.23,-50.00L339.27,-59.43L311.44,-50.94ZM400.59,61.77L401.30,34.18L392.34,24.75L373.71,33.48L373.00,61.07L391.16,70.73L409.56,71.20L437.38,62.71L456.24,44.79L456.71,26.39L448.69,-19.83L449.16,-38.22L467.79,-46.95L467.09,-19.36L476.05,-9.92L494.68,-18.65L495.38,-46.24L468.03,-56.14L431.00,-47.89L421.34,-29.73L420.87,-11.33L429.12,25.69L428.65,44.08L409.79,62.01ZM-548.15,94.59L-627.37,313.44L-572.19,314.85L-571.95,305.65L-599.31,295.75L-598.84,277.36L-539.43,113.22L-493.21,105.20L-492.97,96.00ZM-433.29,281.59L-424.10,281.82L-405.47,273.09L-358.31,228.28L-367.27,218.85L-414.43,263.66L-423.63,263.43L-336.39,90.80L-400.77,89.15L-401.00,98.35L-373.41,99.06L-403.12,181.12L-411.84,162.49L-448.40,152.36L-495.32,187.97L-514.89,233.49L-506.63,270.51L-488.48,280.18L-470.08,280.65L-441.79,253.76L-442.26,272.15ZM-469.61,262.25L-478.81,262.02L-487.30,234.19L-467.97,197.87L-439.67,170.99L-421.28,171.46L-412.55,190.09L-412.78,199.28L-441.32,235.37ZM-313.73,284.64L-295.34,285.11L-248.65,258.69L-219.65,204.22L-237.10,166.96L-273.65,156.82L-320.34,183.24L-349.35,237.72L-331.89,274.97ZM-274.12,175.22L-255.73,175.69L-247.24,203.51L-266.57,239.83L-294.87,266.72L-313.26,266.25L-321.75,238.42L-302.42,202.10ZM-184.50,269.54L-136.17,178.74L-108.58,179.45L-108.34,170.25L-135.93,169.54L-116.60,133.23L-134.99,132.76L-144.90,160.11L-163.53,168.84L-181.92,168.37L-182.15,177.57L-163.76,178.04L-212.10,268.83L-212.33,278.03L-203.37,287.46L-184.97,287.93L-166.35,279.20L-119.19,234.39L-128.15,224.96L-175.31,269.77ZM-84.75,327.30L-5.53,108.45L-60.71,107.04L-60.95,116.24L-33.59,126.14L-34.06,144.54L-93.47,308.67L-139.69,316.70L-139.93,325.89ZM90.94,294.98L109.33,295.45L156.02,269.03L185.02,214.56L167.57,177.30L131.01,167.16L84.32,193.58L55.32,248.05L72.78,285.31ZM130.54,185.55L148.94,186.02L157.43,213.85L138.10,250.17L109.80,277.05L91.41,276.58L82.91,248.76L102.25,212.44ZM193.98,223.99L202.94,233.42L250.10,188.61L259.30,188.84L201.53,288.60L210.50,298.03L228.89,298.50L267.56,225.87L295.62,208.18L323.21,208.88L333.11,181.53L314.95,171.86L296.32,180.59L267.79,216.67L258.60,216.44L277.70,189.31L277.93,180.12L268.97,170.69L241.14,179.18ZM330.76,273.50L330.53,282.69L339.49,292.13L293.03,309.35L283.37,327.50L291.86,355.33L328.18,374.66L346.57,375.13L383.60,366.88L402.69,339.76L403.16,321.36L358.12,283.40L358.35,274.20L385.94,274.91L432.63,248.49L442.54,221.13L434.04,193.31L461.64,194.01L461.87,184.82L425.08,183.88L388.53,173.74L341.84,200.16L331.94,227.51L349.39,264.77ZM388.06,192.13L406.45,192.60L414.95,220.43L414.71,229.63L386.41,256.51L368.02,256.04L359.53,228.22L359.76,219.02ZM348.45,301.56L375.34,329.85L374.87,348.25L346.81,365.94L319.69,346.84L310.96,328.21L320.63,310.05Z" fill="#ffffff" stroke="#000000"/>
    <path d="M-552.16,-237.09L-551.37,-264.38L-531.61,-318.44L-485.08,-353.51L-466.89,-352.99L-449.22,-334.27L-450.01,-306.99L-431.81,-306.46L-413.10,-324.13L-421.67,-342.59L-466.63,-362.09L-493.92,-362.87L-530.83,-345.72L-558.90,-319.22L-577.88,-292.45L-588.28,-247.23L-571.39,-201.23L-535.53,-181.99L-499.15,-180.95L-471.34,-198.35L-443.26,-224.86L-452.10,-234.22L-480.17,-207.71L-507.98,-190.30L-526.17,-190.83L-544.11,-200.45ZM-407.66,-196.52L-320.83,-367.00L-384.50,-368.83L-384.76,-359.73L-357.47,-358.95L-434.95,-197.31L-435.21,-188.21L-417.28,-178.59L-389.73,-186.90L-342.94,-231.08L-351.78,-240.44L-398.57,-196.26ZM-240.27,-319.17L-231.17,-318.90L-221.55,-336.83L-221.29,-345.93L-239.22,-355.55L-248.32,-355.81L-257.94,-337.88L-258.20,-328.78ZM-342.42,-249.27L-333.58,-239.91L-286.80,-284.09L-277.70,-283.83L-334.89,-194.43L-335.15,-185.34L-326.32,-175.98L-308.13,-175.46L-289.67,-184.03L-242.88,-228.20L-251.72,-237.56L-298.51,-193.39L-307.60,-193.65L-250.41,-283.04L-250.15,-292.14L-268.08,-301.76L-295.63,-293.45ZM-96.56,-251.31L-77.84,-268.98L-59.39,-277.55L-50.56,-268.19L-98.39,-187.63L-98.65,-178.54L-89.82,-169.18L-71.62,-168.66L-53.17,-177.23L-6.38,-221.40L-15.22,-230.76L-62.00,-186.59L-71.10,-186.85L-23.53,-258.31L-22.74,-285.60L-49.77,-295.48L-77.32,-287.17L-96.04,-269.50L-95.51,-287.69L-113.44,-297.31L-140.99,-289.00L-169.07,-262.50L-159.45,-280.43L-159.19,-289.52L-168.02,-298.88L-195.57,-290.57L-242.36,-246.40L-233.53,-237.04L-186.74,-281.21L-177.64,-280.95L-235.09,-182.46L-226.26,-173.10L-208.07,-172.58L-169.59,-244.30L-141.52,-270.81L-123.06,-279.38L-114.23,-270.02L-162.32,-180.37L-153.49,-171.01L-135.30,-170.49ZM140.99,-280.90L132.15,-290.25L113.18,-263.49L104.60,-281.94L68.48,-292.08L21.95,-257.01L2.45,-212.05L10.50,-175.40L28.43,-165.78L46.63,-165.26L74.70,-191.76L74.18,-173.57L83.01,-164.21L110.56,-172.52L157.35,-216.70L148.52,-226.06L101.73,-181.88L92.63,-182.14ZM47.15,-183.45L38.05,-183.71L29.74,-211.26L48.98,-247.12L77.05,-273.63L95.25,-273.11L103.82,-254.65L103.56,-245.56L75.22,-209.96ZM183.59,-179.53L231.69,-269.18L258.98,-268.40L259.24,-277.50L231.95,-278.28L251.19,-314.14L233.00,-314.67L223.12,-287.64L204.66,-279.06L186.47,-279.59L186.21,-270.49L204.40,-269.97L156.31,-180.31L156.04,-171.22L164.88,-161.86L183.07,-161.34L201.53,-169.91L248.31,-214.08L239.48,-223.44L192.69,-179.27ZM385.54,-237.45L386.06,-255.64L377.49,-274.10L341.37,-284.24L295.10,-258.26L266.24,-204.46L274.29,-167.82L292.23,-158.20L310.42,-157.68L328.87,-166.25L366.30,-201.59L357.47,-210.95L320.04,-175.61L301.85,-176.13L293.53,-203.68L312.77,-239.54L340.84,-266.05L359.04,-265.52L358.25,-238.24L339.80,-229.66L312.51,-230.45L312.25,-221.35L357.73,-220.04ZM-659.69,-138.22L-642.02,-119.51L-691.69,24.73L-719.50,42.14L-610.34,45.27L-573.43,28.13L-545.36,1.62L-526.38,-25.14L-515.98,-70.36L-532.87,-116.37L-577.82,-135.87ZM-552.89,-53.22L-572.65,0.84L-600.72,27.34L-619.18,35.91L-655.56,34.87L-664.40,25.51L-614.73,-118.72L-605.38,-127.56L-578.09,-126.77L-560.16,-117.15L-552.10,-80.51ZM-389.68,-30.32L-389.16,-48.51L-397.73,-66.97L-433.85,-77.11L-480.12,-51.13L-508.98,2.67L-500.93,39.31L-483.00,48.93L-464.80,49.46L-446.35,40.88L-408.92,5.54L-417.75,-3.81L-455.18,31.52L-473.38,31.00L-481.69,3.45L-462.45,-32.41L-434.38,-58.91L-416.18,-58.39L-416.97,-31.10L-435.42,-22.53L-462.71,-23.31L-462.97,-14.22L-417.49,-12.91ZM-373.58,42.97L-372.79,15.69L-381.63,6.33L-400.08,14.90L-400.87,42.19L-382.94,51.81L-364.74,52.33L-337.19,44.02L-318.48,26.35L-317.96,8.16L-325.74,-37.58L-325.22,-55.78L-306.77,-64.35L-307.55,-37.06L-298.72,-27.70L-280.26,-36.28L-279.48,-63.57L-306.51,-73.45L-343.15,-65.40L-352.77,-47.47L-353.29,-29.27L-345.24,7.37L-345.77,25.57L-364.48,43.24ZM-178.64,-87.98L-169.54,-87.72L-159.92,-105.65L-159.66,-114.74L-177.59,-124.36L-186.69,-124.63L-196.31,-106.69L-196.57,-97.60ZM-280.79,-18.08L-271.95,-8.73L-225.16,-52.90L-216.07,-52.64L-273.26,36.75L-273.52,45.85L-264.69,55.21L-246.49,55.73L-228.04,47.16L-181.25,2.98L-190.09,-6.37L-236.87,37.80L-245.97,37.54L-188.78,-51.86L-188.52,-60.95L-206.45,-70.57L-234.00,-62.26ZM-163.84,30.80L-164.10,39.89L-155.27,49.25L-201.27,66.13L-210.89,84.07L-202.58,111.62L-166.72,130.85L-148.53,131.38L-111.88,123.33L-92.90,96.56L-92.38,78.37L-136.82,40.68L-136.55,31.58L-109.26,32.36L-63.00,6.38L-53.12,-20.64L-61.43,-48.19L-34.14,-47.41L-33.88,-56.51L-70.27,-57.55L-106.39,-67.69L-152.65,-41.71L-162.54,-14.69L-145.39,22.22ZM-106.91,-49.50L-88.72,-48.98L-80.41,-21.43L-80.67,-12.33L-108.74,14.17L-126.93,13.65L-135.25,-13.90L-134.98,-23.00ZM-146.43,58.61L-119.93,86.68L-120.45,104.87L-148.26,122.28L-175.03,103.30L-183.60,84.85L-173.98,66.92ZM-44.28,-11.29L-35.45,-1.93L11.34,-46.10L20.44,-45.84L-37.02,52.65L-28.18,62.01L-9.99,62.53L28.49,-9.20L56.56,-35.70L75.01,-44.27L83.85,-34.92L36.01,45.64L35.75,54.74L44.59,64.10L62.78,64.62L81.23,56.05L128.02,11.87L119.19,2.52L72.40,46.69L63.30,46.43L110.88,-25.03L111.66,-52.32L84.63,-62.20L57.08,-53.89L29.01,-27.39L38.63,-45.32L38.89,-54.42L30.05,-63.77L2.50,-55.46ZM256.15,-11.76L256.68,-29.95L248.10,-48.40L211.98,-58.54L165.71,-32.56L136.86,21.23L144.91,57.88L162.84,67.50L181.03,68.02L199.48,59.45L236.92,24.11L228.08,14.75L190.65,50.09L172.46,49.57L164.15,22.02L183.38,-13.85L211.46,-40.35L229.65,-39.83L228.86,-12.54L210.41,-3.97L183.12,-4.75L182.86,4.35L228.34,5.65ZM255.89,-2.66L264.73,6.70L311.52,-37.48L320.61,-37.21L263.16,61.28L271.99,70.63L290.19,71.16L328.66,-0.57L356.47,-17.98L383.76,-17.19L393.64,-44.22L375.71,-53.84L357.26,-45.26L328.92,-9.66L319.83,-9.92L338.80,-36.69L339.07,-45.79L330.23,-55.14L302.68,-46.83ZM390.51,64.94L391.29,37.65L382.46,28.29L364.00,36.86L363.22,64.15L381.15,73.77L399.34,74.29L426.89,65.98L445.61,48.31L446.13,30.12L438.34,-15.62L438.86,-33.81L457.32,-42.39L456.53,-15.10L465.37,-5.74L483.82,-14.31L484.61,-41.60L457.58,-51.48L420.93,-43.43L411.31,-25.50L410.79,-7.31L418.84,29.34L418.32,47.53L399.60,65.20ZM-548.03,94.40L-627.07,310.62L-572.50,312.19L-572.23,303.09L-599.26,293.21L-598.74,275.02L-539.46,112.86L-493.71,105.07L-493.45,95.97ZM-435.01,279.73L-425.91,279.99L-407.46,271.42L-360.67,227.24L-369.50,217.88L-416.29,262.06L-425.39,261.80L-338.55,91.32L-402.23,89.49L-402.49,98.59L-375.20,99.37L-404.84,180.45L-413.42,162.00L-449.54,151.86L-496.07,186.93L-515.57,231.89L-507.52,268.54L-489.58,278.16L-471.39,278.68L-443.32,252.18L-443.84,270.37ZM-470.87,260.49L-479.96,260.23L-488.28,232.68L-469.04,196.81L-440.97,170.31L-422.77,170.83L-414.20,189.29L-414.46,198.38L-442.80,233.98ZM-316.76,283.13L-298.56,283.65L-252.30,257.67L-223.44,203.87L-240.59,166.97L-276.71,156.82L-322.98,182.81L-351.83,236.60L-334.69,273.51ZM-277.23,175.02L-259.04,175.54L-250.73,203.09L-269.97,238.95L-298.04,265.46L-316.23,264.93L-324.54,237.38L-305.31,201.52ZM-188.89,268.59L-140.79,178.94L-113.50,179.72L-113.24,170.63L-140.53,169.84L-121.29,133.98L-139.48,133.46L-149.36,160.48L-167.82,169.06L-186.01,168.54L-186.27,177.63L-168.08,178.15L-216.17,267.81L-216.44,276.91L-207.60,286.26L-189.41,286.79L-170.95,278.21L-124.17,234.04L-133.00,224.68L-179.79,268.86ZM-90.40,326.05L-11.35,109.83L-65.93,108.26L-66.19,117.36L-39.16,127.24L-39.68,145.43L-98.97,307.59L-144.71,315.38L-144.97,324.48ZM83.48,294.63L101.67,295.15L147.94,269.17L176.79,215.38L159.65,178.47L123.52,168.33L77.26,194.31L48.40,248.10L65.55,285.01ZM123.00,186.52L141.19,187.04L149.51,214.59L130.27,250.46L102.19,276.96L84.00,276.44L75.69,248.89L94.93,213.03ZM185.63,224.74L194.46,234.09L241.25,189.92L250.35,190.18L192.90,288.67L201.73,298.03L219.92,298.55L258.40,226.83L286.21,209.42L313.50,210.20L323.38,183.18L305.45,173.56L287.00,182.13L258.66,217.73L249.56,217.47L268.54,190.70L268.80,181.61L259.97,172.25L232.42,180.56ZM320.77,274.14L320.50,283.24L329.34,292.59L283.34,309.48L273.72,327.41L282.03,354.96L317.89,374.20L336.08,374.72L372.73,366.67L391.71,339.90L392.23,321.71L347.79,284.02L348.05,274.92L375.34,275.71L421.61,249.73L431.49,222.70L423.18,195.15L450.47,195.93L450.73,186.84L414.34,185.79L378.22,175.65L331.95,201.63L322.07,228.66L339.22,265.57ZM377.70,193.84L395.89,194.36L404.20,221.91L403.94,231.01L375.87,257.52L357.67,256.99L349.36,229.44L349.62,220.35ZM338.17,301.95L364.68,330.02L364.16,348.22L336.34,365.62L309.58,346.65L301.00,328.19L310.62,310.26Z" fill="#ffffff" stroke="#000000"/>
    <path d="M-550.82,-233.70L-549.96,-260.69L-530.24,-314.09L-484.12,-348.63L-466.13,-348.06L-448.71,-329.49L-449.57,-302.51L-431.58,-301.93L-413.02,-319.35L-421.44,-337.63L-465.84,-357.05L-492.83,-357.91L-529.38,-341.07L-557.23,-314.95L-576.08,-288.54L-586.51,-243.85L-569.96,-198.30L-534.55,-179.16L-498.57,-178.01L-471.01,-195.14L-443.16,-221.26L-451.87,-230.54L-479.72,-204.42L-507.28,-187.29L-525.27,-187.86L-542.97,-197.43ZM-408.04,-193.12L-321.63,-361.45L-384.59,-363.46L-384.88,-354.47L-357.89,-353.61L-435.03,-193.99L-435.32,-184.99L-417.61,-175.42L-390.34,-183.55L-343.93,-227.09L-352.63,-236.38L-399.05,-192.84ZM-242.10,-313.89L-233.11,-313.60L-223.54,-331.30L-223.25,-340.30L-240.95,-349.87L-249.95,-350.16L-259.52,-332.45L-259.81,-323.46ZM-343.35,-245.09L-334.64,-235.80L-288.23,-279.34L-279.23,-279.06L-336.08,-190.83L-336.37,-181.83L-327.66,-172.55L-309.67,-171.97L-291.39,-180.39L-244.98,-223.93L-253.68,-233.22L-300.10,-189.68L-309.09,-189.96L-252.25,-278.19L-251.96,-287.19L-269.66,-296.76L-296.94,-288.63ZM-100.19,-246.32L-81.62,-263.74L-63.34,-272.16L-54.64,-262.88L-102.20,-183.36L-102.49,-174.36L-93.78,-165.08L-75.79,-164.50L-57.51,-172.92L-11.10,-216.46L-19.80,-225.75L-66.22,-182.21L-75.21,-182.49L-27.94,-253.02L-27.08,-280.01L-53.77,-289.86L-81.05,-281.73L-99.61,-264.31L-99.04,-282.31L-116.74,-291.88L-144.02,-283.74L-171.86,-257.62L-162.29,-275.32L-162.01,-284.32L-170.71,-293.60L-197.99,-285.47L-244.40,-241.93L-235.69,-232.64L-189.28,-276.18L-180.28,-275.90L-237.42,-178.67L-228.71,-169.39L-210.72,-168.81L-172.44,-239.63L-144.59,-265.75L-126.31,-274.17L-117.60,-264.89L-165.45,-176.37L-156.75,-167.09L-138.76,-166.51ZM134.84,-274.84L126.13,-284.12L107.28,-257.71L98.86,-275.98L63.17,-286.13L17.04,-251.58L-2.39,-207.18L5.46,-170.91L23.16,-161.34L41.15,-160.77L69.00,-186.89L68.43,-168.90L77.13,-159.62L104.41,-167.75L150.82,-211.29L142.11,-220.58L95.70,-177.04L86.70,-177.32ZM41.73,-178.76L32.73,-179.05L24.60,-206.32L43.74,-241.73L71.59,-267.85L89.58,-267.28L98.00,-249.00L97.71,-240.00L69.58,-204.88ZM176.66,-174.45L224.51,-262.97L251.50,-262.11L251.78,-271.10L224.80,-271.96L243.94,-307.37L225.95,-307.94L216.09,-281.25L197.81,-272.82L179.82,-273.40L179.53,-264.40L197.52,-263.83L149.67,-175.31L149.39,-166.32L158.09,-157.03L176.08,-156.46L194.36,-164.88L240.78,-208.42L232.07,-217.70L185.65,-174.16ZM376.57,-231.10L377.14,-249.09L368.72,-267.37L333.03,-277.51L287.19,-251.96L258.48,-198.85L266.33,-162.58L284.03,-153.01L302.02,-152.44L320.30,-160.86L357.43,-195.69L348.72,-204.97L311.59,-170.14L293.60,-170.71L285.47,-197.99L304.61,-233.39L332.45,-259.52L350.44,-258.94L349.58,-231.96L331.30,-223.54L304.32,-224.40L304.03,-215.40L349.01,-213.97ZM-657.49,-136.26L-640.07,-117.69L-689.64,24.80L-717.20,41.93L-609.26,45.37L-572.70,28.53L-544.85,2.41L-526.00,-24.00L-515.57,-68.69L-532.12,-114.25L-576.53,-133.67ZM-552.13,-51.85L-571.84,1.55L-599.69,27.67L-617.97,36.09L-653.95,34.94L-662.66,25.66L-613.08,-116.83L-603.80,-125.54L-576.81,-124.68L-559.11,-115.11L-551.26,-78.84ZM-390.78,-28.69L-390.21,-46.68L-398.63,-64.96L-434.32,-75.10L-480.16,-49.55L-508.87,3.56L-501.03,39.83L-483.32,49.40L-465.33,49.97L-447.05,41.55L-409.92,6.72L-418.63,-2.57L-455.76,32.27L-473.75,31.69L-481.89,4.42L-462.75,-30.99L-434.90,-57.11L-416.91,-56.54L-417.77,-29.55L-436.05,-21.13L-463.03,-21.99L-463.32,-13.00L-418.34,-11.56ZM-375.09,43.85L-374.23,16.86L-382.94,7.58L-401.22,16.00L-402.08,42.99L-384.37,52.56L-366.38,53.13L-339.11,45.00L-320.54,27.58L-319.97,9.59L-327.53,-35.67L-326.95,-53.66L-308.68,-62.09L-309.54,-35.10L-300.83,-25.82L-282.55,-34.24L-281.69,-61.22L-308.39,-71.08L-344.66,-63.23L-354.23,-45.53L-354.80,-27.54L-346.96,8.73L-347.53,26.72L-366.10,44.14ZM-181.88,-85.05L-172.88,-84.76L-163.31,-102.47L-163.02,-111.46L-180.73,-121.03L-189.72,-121.32L-199.29,-103.61L-199.58,-94.62ZM-283.13,-16.25L-274.42,-6.96L-228.00,-50.50L-219.01,-50.22L-275.85,38.01L-276.14,47.01L-267.43,56.29L-249.44,56.87L-231.16,48.45L-184.75,4.90L-193.46,-4.38L-239.87,39.16L-248.87,38.88L-192.02,-49.36L-191.73,-58.35L-209.44,-67.92L-236.71,-59.79ZM-167.62,32.47L-167.91,41.46L-159.20,50.74L-204.75,67.30L-214.32,85.00L-206.19,112.28L-170.78,131.42L-152.79,131.99L-116.52,124.14L-97.67,97.73L-97.10,79.74L-140.92,42.32L-140.64,33.33L-113.65,34.19L-67.81,8.64L-57.95,-18.06L-66.09,-45.33L-39.10,-44.47L-38.81,-53.47L-74.79,-54.62L-110.49,-64.76L-156.33,-39.21L-166.19,-12.51L-149.34,24.04ZM-111.06,-46.77L-93.07,-46.19L-84.94,-18.92L-85.23,-9.93L-113.07,16.20L-131.07,15.62L-139.20,-11.65L-138.91,-20.65ZM-150.49,60.03L-124.37,87.87L-124.94,105.87L-152.50,122.99L-178.92,104.14L-187.34,85.86L-177.77,68.16ZM-49.24,-8.78L-40.54,0.51L5.88,-43.03L14.87,-42.75L-42.26,54.48L-33.55,63.76L-15.56,64.34L22.72,-6.48L50.57,-32.60L68.84,-41.02L77.55,-31.74L29.99,47.78L29.70,56.78L38.41,66.06L56.40,66.63L74.68,58.21L121.09,14.67L112.39,5.39L65.97,48.93L56.98,48.64L104.25,-21.88L105.11,-48.87L78.41,-58.73L51.14,-50.59L23.29,-24.47L32.86,-42.17L33.15,-51.17L24.44,-60.45L-2.83,-52.32ZM247.89,-8.29L248.47,-26.28L240.04,-44.56L204.35,-54.70L158.51,-29.15L129.80,23.96L137.65,60.22L155.35,69.79L173.34,70.37L191.62,61.95L228.75,27.12L220.04,17.83L182.91,52.67L164.92,52.09L156.79,24.82L175.93,-10.59L203.78,-36.71L221.77,-36.14L220.90,-9.15L202.63,-0.73L175.64,-1.59L175.35,7.40L220.33,8.84ZM247.60,0.70L256.31,9.99L302.73,-33.55L311.72,-33.27L254.59,63.96L263.30,73.24L281.29,73.82L319.57,3.00L347.13,-14.13L374.11,-13.26L383.97,-39.96L366.27,-49.53L347.99,-41.11L319.85,-5.99L310.86,-6.28L329.71,-32.69L330.00,-41.69L321.29,-50.97L294.02,-42.84ZM380.52,67.98L381.39,41.00L372.68,31.71L354.40,40.13L353.54,67.12L371.24,76.69L389.23,77.26L416.51,69.13L435.07,51.72L435.65,33.72L428.09,-11.54L428.66,-29.53L446.94,-37.95L446.08,-10.97L454.79,-1.68L473.06,-10.10L473.93,-37.09L447.23,-46.95L410.96,-39.10L401.39,-21.40L400.81,-3.41L408.66,32.86L408.08,50.85L389.52,68.27ZM-547.79,94.16L-626.64,307.75L-572.67,309.48L-572.38,300.48L-599.08,290.62L-598.51,272.63L-539.36,112.44L-494.10,104.88L-493.81,95.88ZM-436.59,277.80L-427.60,278.09L-409.32,269.67L-362.90,226.13L-371.61,216.85L-418.03,260.39L-427.02,260.10L-340.60,91.77L-403.57,89.76L-403.86,98.76L-376.87,99.62L-406.44,179.72L-414.87,161.44L-450.56,151.29L-496.69,185.84L-516.11,230.24L-508.27,266.51L-490.56,276.08L-472.57,276.66L-444.72,250.53L-445.30,268.52ZM-472.00,258.66L-480.99,258.38L-489.13,231.10L-469.99,195.70L-442.14,169.57L-424.15,170.15L-415.73,188.42L-416.01,197.42L-444.15,232.54ZM-319.65,281.54L-301.66,282.11L-255.82,256.56L-227.11,203.45L-243.95,166.90L-279.65,156.75L-325.49,182.30L-354.20,235.41L-337.35,271.97ZM-280.22,174.74L-262.23,175.32L-254.10,202.59L-273.24,238.00L-301.09,264.12L-319.08,263.55L-327.21,236.27L-308.07,200.87ZM-193.14,267.57L-145.29,179.05L-118.30,179.92L-118.02,170.92L-145.00,170.06L-125.86,134.65L-143.85,134.08L-153.71,160.78L-171.99,169.20L-189.98,168.62L-190.27,177.62L-172.28,178.19L-220.13,266.71L-220.41,275.70L-211.71,284.99L-193.71,285.56L-175.44,277.14L-129.02,233.60L-137.73,224.32L-184.14,267.86ZM-95.91,324.70L-17.06,111.11L-71.03,109.39L-71.32,118.38L-44.62,128.24L-45.19,146.23L-104.34,306.43L-149.60,313.98L-149.89,322.98ZM76.15,294.18L94.14,294.76L139.98,269.21L168.69,216.10L151.85,179.54L116.15,169.39L70.31,194.94L41.60,248.05L58.44,284.61ZM115.58,187.39L133.57,187.96L141.70,215.23L122.56,250.64L94.71,276.76L76.72,276.19L68.59,248.92L87.73,213.51ZM177.40,225.38L186.10,234.66L232.52,191.12L241.51,191.41L184.38,288.63L193.09,297.92L211.08,298.49L249.36,227.68L276.92,210.55L303.91,211.41L313.76,184.71L296.06,175.14L277.78,183.56L249.65,218.68L240.65,218.39L259.50,191.98L259.79,182.99L251.08,173.70L223.81,181.84ZM310.89,274.66L310.60,283.66L319.31,292.94L273.76,309.50L264.19,327.20L272.32,354.47L307.73,373.61L325.72,374.19L361.99,366.34L380.84,339.93L381.42,321.94L337.59,284.52L337.88,275.53L364.86,276.39L410.70,250.84L420.56,224.14L412.43,196.87L439.41,197.73L439.70,188.73L403.72,187.58L368.02,177.44L322.18,202.99L312.33,229.69L329.17,266.24ZM367.45,195.43L385.44,196.00L393.57,223.28L393.29,232.27L365.44,258.40L347.45,257.82L339.31,230.55L339.60,221.55ZM328.02,302.23L354.14,330.07L353.57,348.06L326.01,365.19L299.60,346.34L291.18,328.06L300.75,310.36Z" fill="#ffffff" stroke="#000000"/>
    <path d="M-903.88,492L-906.92,488.96L-902.36,482.88L-893.24,482.88L-891.72,484.40L-891.72,488.96L-894.76,492L-884.12,492L-887.16,488.96L-887.16,460.08L-891.72,463.12L-891.72,464.64L-909.96,488.96L-914.52,492ZM-891.72,467.68L-891.72,479.84L-893.24,481.36L-900.84,481.36L-899.32,478.32ZM-862.84,476.80L-864.36,481.36L-870.44,487.44L-875,488.96L-876.52,488.96L-867.40,475.28L-867.40,472.24L-870.44,470.72L-875,472.24L-882.60,479.84L-881.08,481.36L-873.48,473.76L-871.96,473.76L-881.08,488.96L-881.08,490.48L-879.56,492L-876.52,492L-868.92,488.96L-862.84,482.88L-859.80,476.80L-859.80,473.76L-861.32,472.24L-864.36,472.24L-865.88,475.28L-864.36,476.80ZM-835.48,472.24L-837,470.72L-840.04,475.28L-841.56,472.24L-847.64,470.72L-855.24,476.80L-858.28,484.40L-856.76,490.48L-853.72,492L-850.68,492L-846.12,487.44L-846.12,490.48L-844.60,492L-840.04,490.48L-832.44,482.88L-833.96,481.36L-841.56,488.96L-843.08,488.96ZM-850.68,488.96L-852.20,488.96L-853.72,484.40L-850.68,478.32L-846.12,473.76L-843.08,473.76L-841.56,476.80L-841.56,478.32L-846.12,484.40ZM-832.44,479.84L-830.92,481.36L-823.32,473.76L-821.80,473.76L-830.92,490.48L-829.40,492L-826.36,492L-820.28,479.84L-815.72,476.80L-811.16,476.80L-809.64,472.24L-812.68,470.72L-815.72,472.24L-820.28,478.32L-821.80,478.32L-818.76,473.76L-818.76,472.24L-820.28,470.72L-824.84,472.24ZM-788.36,472.24L-789.88,470.72L-792.92,475.28L-794.44,472.24L-800.52,470.72L-808.12,476.80L-811.16,484.40L-809.64,490.48L-806.60,492L-803.56,492L-799,487.44L-799,490.48L-797.48,492L-792.92,490.48L-785.32,482.88L-786.84,481.36L-794.44,488.96L-795.96,488.96ZM-803.56,488.96L-805.08,488.96L-806.60,484.40L-803.56,478.32L-799,473.76L-795.96,473.76L-794.44,476.80L-794.44,478.32L-799,484.40ZM-783.80,479.84L-783.80,482.88L-774.68,482.88L-774.68,479.84ZM-765.56,461.60L-762.52,464.64L-770.12,488.96L-773.16,492L-757.96,492L-750.36,488.96L-745.80,482.88L-747.32,476.80L-751.88,475.28L-748.84,473.76L-744.28,469.20L-745.80,463.12L-753.40,461.60ZM-765.56,488.96L-757.96,464.64L-756.44,463.12L-753.40,463.12L-750.36,464.64L-750.36,469.20L-753.40,473.76L-757.96,475.28L-761,475.28L-761,476.80L-756.44,476.80L-753.40,478.32L-751.88,482.88L-754.92,487.44L-761,490.48L-764.04,490.48ZM-736.68,492L-733.64,492L-726.04,487.44L-721.48,478.32L-724.52,472.24L-730.60,470.72L-738.20,475.28L-742.76,484.40L-739.72,490.48ZM-730.60,473.76L-727.56,473.76L-726.04,478.32L-729.08,484.40L-733.64,488.96L-736.68,488.96L-738.20,484.40L-735.16,478.32ZM-715.40,488.96L-701.72,460.08L-712.36,460.08L-712.36,461.60L-707.80,461.60L-719.96,488.96L-719.96,490.48L-716.92,492L-712.36,490.48L-704.76,482.88L-706.28,481.36L-713.88,488.96ZM-689.56,492L-688.04,492L-685,490.48L-677.40,482.88L-678.92,481.36L-686.52,488.96L-688.04,488.96L-674.36,460.08L-685,460.08L-685,461.60L-680.44,461.60L-685,475.28L-686.52,472.24L-692.60,470.72L-700.20,476.80L-703.24,484.40L-701.72,490.48L-698.68,492L-695.64,492L-691.08,487.44L-691.08,490.48ZM-695.64,488.96L-697.16,488.96L-698.68,484.40L-695.64,478.32L-691.08,473.76L-688.04,473.76L-686.52,476.80L-686.52,478.32L-691.08,484.40ZM-669.80,488.96L-662.20,464.64L-657.64,461.60L-669.80,461.60L-666.76,464.64L-674.36,488.96L-678.92,492L-666.76,492ZM-657.64,488.96L-650.04,473.76L-645.48,473.76L-645.48,472.24L-650.04,472.24L-647,466.16L-650.04,466.16L-651.56,470.72L-654.60,472.24L-657.64,472.24L-657.64,473.76L-654.60,473.76L-662.20,488.96L-662.20,490.48L-660.68,492L-657.64,492L-654.60,490.48L-647,482.88L-648.52,481.36L-656.12,488.96ZM-621.16,472.24L-622.68,470.72L-625.72,475.28L-627.24,472.24L-633.32,470.72L-640.92,476.80L-643.96,484.40L-642.44,490.48L-639.40,492L-636.36,492L-631.80,487.44L-631.80,490.48L-630.28,492L-625.72,490.48L-618.12,482.88L-619.64,481.36L-627.24,488.96L-628.76,488.96ZM-636.36,488.96L-637.88,488.96L-639.40,484.40L-636.36,478.32L-631.80,473.76L-628.76,473.76L-627.24,476.80L-627.24,478.32L-631.80,484.40ZM-613.56,488.96L-599.88,460.08L-610.52,460.08L-610.52,461.60L-605.96,461.60L-618.12,488.96L-618.12,490.48L-615.08,492L-610.52,490.48L-602.92,482.88L-604.44,481.36L-612.04,488.96ZM-586.20,467.68L-584.68,467.68L-583.16,464.64L-583.16,463.12L-586.20,461.60L-587.72,461.60L-589.24,464.64L-589.24,466.16ZM-602.92,479.84L-601.40,481.36L-593.80,473.76L-592.28,473.76L-601.40,488.96L-601.40,490.48L-599.88,492L-596.84,492L-593.80,490.48L-586.20,482.88L-587.72,481.36L-595.32,488.96L-596.84,488.96L-587.72,473.76L-587.72,472.24L-590.76,470.72L-595.32,472.24ZM-564.92,478.32L-564.92,475.28L-566.44,472.24L-572.52,470.72L-580.12,475.28L-584.68,484.40L-583.16,490.48L-580.12,492L-577.08,492L-574.04,490.48L-567.96,484.40L-569.48,482.88L-575.56,488.96L-578.60,488.96L-580.12,484.40L-577.08,478.32L-572.52,473.76L-569.48,473.76L-569.48,478.32Z"/>
</svg>