<?xml version="1.0"?>
<svg xmlns="http://www.w3.org/2000/svg" width="1920" height="1080" viewBox="-960 -540 1920 1080">
    <path d="M-585.50,-289.75L-618.50,-301.50L-587.25,-309.75L-575.25,-342.25L-586.75,-372L-611.75,-385L-723.50,-385L-723.50,-379.50L-712.50,-378.75L-704.25,-367.50L-704.25,-227.50L-712.50,-216.25L-723.50,-215.50L-723.50,-210L-611.50,-210L-576.50,-229L-566.75,-257ZM-628.75,-371.75L-615.25,-355.50L-613.25,-323.75L-632.50,-305.25L-666.75,-305.25L-666.75,-368.75L-659,-376.25ZM-623.75,-218.75L-659,-218.75L-666.75,-226.25L-666.75,-296.50L-622.50,-289.25L-609.25,-270L-606.75,-241ZM-417.50,-222.75L-422.25,-232.75L-422.25,-338.25L-475.75,-328.25L-475.75,-322.75L-460.75,-319L-456.50,-309L-456.50,-237.75C-466.25,-233.75 -475.75,-229.50 -485.50,-225.50C-491.25,-231.75 -497.25,-237.75 -503,-244L-503,-338.25L-556.50,-328.25L-556.50,-322.75L-541.50,-319L-537.25,-309L-537.25,-234C-533,-226.50 -528.50,-219.25 -524.25,-211.75C-513.50,-210 -502.75,-208.25 -492,-206.50L-456.50,-231.50L-456.25,-206.50L-403,-216.50L-403,-222ZM-360.25,-363.75C-354.25,-364.75 -349.50,-365.50 -344.75,-366.25L-337.50,-380.50C-338.50,-385.25 -339.75,-390 -340.75,-394.75C-345.25,-396.75 -349.75,-398.75 -354,-401L-369.50,-398C-372.50,-394 -375,-389.75 -377.75,-385.50C-376.50,-380.25 -374.75,-375 -373.75,-369.75C-369.25,-367.75 -365,-365.75 -360.25,-363.75ZM-332.25,-216.25L-340.50,-227.50L-340.50,-335L-356.75,-335L-394,-325L-394,-319.50L-379,-315.75L-374.75,-305.75L-374.75,-227.50L-383,-216.25L-394,-215.50L-394,-210L-321.25,-210L-321.25,-215.50ZM-251.75,-216.25L-259.50,-227.50L-259.50,-402.50L-313,-392.50L-313,-387L-298,-383.25L-293.75,-373.25L-293.75,-227.25L-301.75,-216.25L-312.75,-215.50L-312.75,-210L-240.75,-210L-240.75,-215.50ZM-93,-228.75L-101,-237.75L-101,-402.50L-154.50,-392.50L-154.50,-387L-139.50,-383.25L-135.25,-373.25L-135.25,-330.25C-145.50,-333 -156.50,-335.75 -166.50,-338.50C-183,-331.50 -199.75,-324.75 -216.25,-317.75C-221.75,-302.25 -227.50,-286.50 -233,-271L-221,-227.25C-205.50,-220.50 -190.25,-213.50 -174.75,-206.75L-135.25,-231.75L-135.25,-206.75L-78,-219.50L-78,-225ZM-165.75,-229.25C-176,-238.50 -186,-248 -196.25,-257.25L-201,-298C-196,-306.25 -190.75,-314.75 -185.75,-323L-159.75,-326.50C-152,-322.75 -143.25,-318.25 -135.25,-314.25L-135.25,-239C-145,-236 -156.25,-232.25 -165.75,-229.25ZM121,-252.25L103.75,-231.25L89.75,-223.75L51,-221.75L42.25,-232.50L42.25,-294.25L83.50,-294L94.25,-286L99,-275L104.75,-275L104.75,-326.25L99,-326.25L94.25,-315.25L83,-307.50L83,-307.25L42.25,-307L42.25,-362.50L51,-373.25L89.25,-371.50L103.25,-363.75L118.75,-342.75L125,-342.75L119.75,-385L-14.50,-385L-14.50,-379.50L-3.50,-378.75L4.75,-367.50L4.75,-227.50L-3.50,-216.25L-14.50,-215.50L-14.50,-210L120.25,-210L127.25,-252.25ZM261.75,-226.50L253.75,-235.50L253.75,-303.25C247.75,-313 242,-322.75 236,-332.25C220.25,-334.50 205,-336.25 189.25,-338.50C174.75,-331.50 159.75,-325.25 145,-318.50L163,-281.25L168.50,-281.25C172,-295 175.25,-308.50 178.75,-322.25L207.75,-328C211.75,-321 215.50,-314 219.50,-306.75L219.50,-279C199.25,-274.50 174.25,-268.75 154.25,-264.25C149.75,-255.25 145,-246.50 140.50,-237.75C147.50,-227.25 154,-217 160.75,-206.50C174.75,-207.75 188.25,-208.50 202.25,-210L219.50,-231L219.50,-206.50L276.75,-217.25L276.75,-222.75ZM193.75,-221.25C188.50,-224.75 183,-228.50 177.75,-232L177.75,-253.50C190.50,-260.50 206.25,-268.25 219.50,-275.25L219.50,-236.75C211.50,-231.75 201.75,-225.75 193.75,-221.25ZM380.50,-339.25C372.25,-337 363.75,-335.25 355.50,-333C348.75,-323.25 342,-312.25 335.25,-302.50L335.25,-339.25L281.75,-328.50L281.75,-323L296.75,-319.25C298.25,-316 299.50,-312.50 301,-309.25L301,-227.50C298.25,-223.75 295.50,-220 292.75,-216.25L281.75,-215.50L281.75,-210L364.75,-210L364.75,-215.50C358.50,-215.75 352.25,-216 346,-216.25L335.25,-227.50L335.25,-295L364.50,-318.75C367,-317.75 369.50,-316.75 372,-315.75L384.50,-285.25L390,-285.25L402.25,-326.75C395,-331.25 387.75,-334.75 380.50,-339.25ZM498.50,-236.25C494.25,-234 489.75,-232 485.50,-229.75L467.50,-229.75C464.25,-233.75 461.25,-238 458,-242L458,-325L495,-325L495,-335L458,-335L458,-367.50L449,-367.50L437.25,-345.25C433,-342 429,-338.50 424.75,-335L408,-335L408,-325.25L421,-325.25L423.75,-318.75L423.75,-236.75C427,-229.25 430.50,-221.50 433.75,-214L471.75,-207.25C481.75,-214.75 492.75,-222.25 502.75,-229.75ZM653.75,-216.25L645.50,-227.50L645.50,-311C641.25,-318.50 636.75,-325.75 632.50,-333.25C621.75,-335 611,-336.75 600.25,-338.50L560.50,-313.50L560.50,-402.50L507,-392.50L507,-387L522,-383.25L526.25,-373.25L526.25,-227.50L518,-216.25L507,-215.50L507,-210L579.75,-210L579.75,-215.50L568.75,-216.25L560.50,-227.50L560.50,-307.25C573,-312.25 581.25,-314.50 593.75,-319.50C599.50,-313.25 605.50,-307.25 611.25,-301L611.25,-227.50L603,-216.25L592,-215.50L592,-210L664.75,-210L664.75,-215.50Z" fill="#ffffff" stroke="#000000"/>
    <path d="M-583.14,-288.87L-615.71,-300.78L-584.71,-308.68L-572.55,-340.75L-583.69,-370.30L-608.33,-383.38L-718.95,-384.32L-719.00,-378.88L-708.12,-378.04L-700.04,-366.84L-701.23,-228.24L-709.49,-217.18L-720.38,-216.53L-720.43,-211.08L-609.56,-210.14L-574.75,-228.65L-564.86,-256.29ZM-625.27,-370.41L-612.04,-354.21L-610.33,-322.76L-629.54,-304.61L-663.45,-304.90L-662.91,-367.76L-655.18,-375.12ZM-621.61,-218.90L-656.50,-219.20L-664.11,-226.69L-663.52,-296.23L-619.78,-288.68L-606.82,-269.51L-604.59,-240.78ZM-417.39,-221.12L-422.01,-231.06L-421.12,-335.50L-474.17,-326.05L-474.22,-320.61L-459.40,-316.77L-455.28,-306.83L-455.88,-236.30C-465.56,-232.42 -475.00,-228.29 -484.69,-224.42C-490.33,-230.65 -496.22,-236.64 -501.86,-242.88L-501.06,-336.18L-554.11,-326.73L-554.16,-321.29L-539.34,-317.45L-535.21,-307.52L-535.85,-233.27C-531.70,-225.81 -527.31,-218.59 -523.17,-211.13C-512.54,-209.31 -501.91,-207.48 -491.28,-205.66L-455.93,-230.11L-455.89,-205.36L-403.09,-214.81L-403.05,-220.25ZM-359.53,-360.22C-353.58,-361.16 -348.87,-361.86 -344.16,-362.57L-336.87,-376.61C-337.82,-381.32 -339.01,-386.03 -339.96,-390.75C-344.40,-392.76 -348.84,-394.78 -353.03,-397.04L-368.40,-394.21C-371.40,-390.27 -373.91,-386.08 -376.67,-381.90C-375.48,-376.69 -373.79,-371.48 -372.84,-366.28C-368.40,-364.26 -364.21,-362.24 -359.53,-360.22ZM-333.06,-213.97L-341.13,-225.17L-340.22,-331.59L-356.31,-331.73L-393.27,-322.15L-393.31,-316.70L-378.50,-312.86L-374.37,-302.93L-375.03,-225.46L-383.30,-214.39L-394.19,-213.74L-394.24,-208.30L-322.22,-207.69L-322.17,-213.13ZM-253.36,-213.29L-260.94,-224.49L-259.46,-397.73L-312.51,-388.28L-312.56,-382.84L-297.74,-379.00L-293.62,-369.06L-294.85,-224.53L-302.86,-213.71L-313.76,-213.06L-313.80,-207.61L-242.53,-207.01L-242.48,-212.45ZM-96.10,-224.32L-103.94,-233.30L-102.55,-396.39L-155.60,-386.95L-155.65,-381.50L-140.83,-377.66L-136.71,-367.73L-137.07,-325.16C-147.19,-327.97 -158.06,-330.78 -167.94,-333.59C-184.33,-326.80 -200.97,-320.26 -217.36,-313.47C-222.94,-298.17 -228.76,-282.63 -234.34,-267.33L-222.83,-223.92C-207.54,-217.10 -192.50,-210.04 -177.22,-203.23L-137.90,-227.65L-138.11,-202.90L-81.33,-215.04L-81.28,-220.48ZM-168.12,-225.43C-178.19,-234.67 -188.00,-244.16 -198.07,-253.41L-202.43,-293.79C-197.41,-301.91 -192.14,-310.28 -187.12,-318.41L-161.36,-321.65C-153.72,-317.87 -145.09,-313.35 -137.20,-309.32L-137.84,-234.82C-147.52,-231.94 -158.69,-228.32 -168.12,-225.43ZM115.95,-245.78L98.70,-225.13L84.77,-217.83L46.40,-216.17L37.82,-226.89L38.34,-288.02L79.18,-287.43L89.75,-279.41L94.36,-268.49L100.06,-268.44L100.49,-319.17L94.80,-319.22L90.00,-308.37L78.80,-300.79L78.80,-300.55L38.45,-300.64L38.92,-355.59L47.67,-366.15L85.53,-364.10L99.32,-356.31L114.49,-335.39L120.67,-335.34L115.83,-377.21L-17.07,-378.34L-17.12,-372.89L-6.23,-372.06L1.84,-360.85L0.66,-222.26L-7.60,-211.19L-18.50,-210.54L-18.55,-205.10L114.85,-203.96L122.14,-245.72ZM255.07,-219.10L247.23,-228.08L247.80,-295.15C241.94,-304.85 236.33,-314.55 230.47,-324.00C214.90,-326.36 199.82,-328.23 184.24,-330.59C169.83,-323.78 154.93,-317.72 140.27,-311.16L157.77,-274.13L163.22,-274.09C166.80,-287.67 170.13,-301.01 173.71,-314.59L202.47,-320.04C206.37,-313.07 210.02,-306.11 213.92,-298.90L213.69,-271.43C193.60,-267.14 168.80,-261.66 148.97,-257.38C144.44,-248.50 139.66,-239.88 135.13,-231.26C141.97,-220.80 148.32,-210.60 154.91,-200.15C168.78,-201.27 182.16,-201.90 196.03,-203.27L213.28,-223.91L213.08,-199.66L269.84,-209.81L269.89,-215.26ZM187.71,-214.47C182.54,-217.98 177.13,-221.74 171.96,-225.25L172.14,-246.54C184.82,-253.36 200.48,-260.90 213.66,-267.72L213.33,-229.60C205.37,-224.72 195.67,-218.86 187.71,-214.47ZM373.58,-329.71C365.39,-327.56 356.96,-325.90 348.78,-323.74C342.01,-314.14 335.24,-303.31 328.47,-293.71L328.78,-330.10L275.73,-319.91L275.68,-314.46L290.50,-310.62C291.96,-307.39 293.17,-303.92 294.62,-300.69L293.93,-219.76C291.18,-216.07 288.43,-212.38 285.67,-208.69L274.78,-208.04L274.73,-202.59L356.90,-201.89L356.94,-207.34C350.76,-207.64 344.57,-207.94 338.39,-208.24L327.84,-219.47L328.41,-286.29L357.57,-309.55C360.03,-308.54 362.50,-307.53 364.97,-306.52L377.08,-276.22L382.53,-276.18L395.01,-317.16C387.87,-321.67 380.72,-325.20 373.58,-329.71ZM489.53,-226.75C485.30,-224.56 480.83,-222.62 476.60,-220.43L458.78,-220.58C455.60,-224.57 452.66,-228.80 449.48,-232.79L450.18,-314.95L486.81,-314.64L486.90,-324.54L450.27,-324.85L450.54,-357.03L441.63,-357.10L429.81,-335.17C425.58,-331.99 421.59,-328.56 417.35,-325.13L400.77,-325.27L400.69,-315.62L413.56,-315.51L416.22,-309.05L415.53,-227.88C418.68,-220.43 422.08,-212.72 425.24,-205.27L462.80,-198.27C472.76,-205.61 483.72,-212.94 493.68,-220.28ZM643.05,-205.64L634.98,-216.85L635.68,-299.51C631.54,-306.97 627.14,-314.19 623.00,-321.65C612.37,-323.47 601.75,-325.29 591.12,-327.12L551.56,-302.70L552.31,-390.81L499.26,-381.36L499.21,-375.92L514.03,-372.08L518.15,-362.14L516.92,-217.86L508.66,-206.79L497.77,-206.14L497.72,-200.69L569.74,-200.08L569.79,-205.52L558.90,-206.36L550.83,-217.57L551.50,-296.52C563.92,-301.36 572.11,-303.52 584.52,-308.36C590.16,-302.13 596.05,-296.14 601.69,-289.90L601.07,-217.14L592.81,-206.07L581.91,-205.42L581.87,-199.98L653.89,-199.36L653.93,-204.81Z" fill="#ffffff" stroke="#000000"/>
    <path d="M-580.72,-288.02L-612.86,-300.09L-582.10,-307.65L-569.80,-339.29L-580.57,-368.63L-604.85,-381.79L-714.35,-383.66L-714.44,-378.27L-703.68,-377.35L-695.78,-366.19L-698.12,-229.01L-706.39,-218.12L-717.18,-217.57L-717.28,-212.18L-607.53,-210.31L-572.92,-228.34L-562.90,-255.62ZM-621.73,-369.09L-608.77,-352.94L-607.35,-321.80L-626.52,-303.99L-660.08,-304.57L-659.02,-366.79L-651.30,-374.01ZM-619.39,-219.09L-653.93,-219.68L-661.40,-227.16L-660.22,-295.99L-616.99,-288.15L-604.32,-269.07L-602.36,-240.61ZM-417.23,-219.56L-421.71,-229.44L-419.95,-332.82L-472.54,-323.91L-472.63,-318.52L-458.00,-314.60L-454.00,-304.73L-455.19,-234.91C-464.81,-231.16 -474.19,-227.15 -483.81,-223.39C-489.34,-229.61 -495.12,-235.59 -500.65,-241.81L-499.07,-334.16L-551.66,-325.26L-551.76,-319.87L-537.12,-315.95L-533.12,-306.08L-534.38,-232.59C-530.34,-225.17 -526.05,-217.99 -522.01,-210.57C-511.51,-208.67 -501.00,-206.78 -490.50,-204.88L-455.29,-228.79L-455.47,-204.29L-403.12,-213.20L-403.03,-218.58ZM-358.77,-356.77C-352.88,-357.64 -348.21,-358.30 -343.54,-358.96L-336.20,-372.80C-337.10,-377.47 -338.25,-382.14 -339.15,-386.81C-343.52,-388.85 -347.90,-390.88 -352.03,-393.16L-367.26,-390.48C-370.27,-386.61 -372.79,-382.49 -375.56,-378.37C-374.42,-373.20 -372.79,-368.03 -371.90,-362.87C-367.52,-360.84 -363.39,-358.80 -358.77,-356.77ZM-333.80,-211.77L-341.70,-222.93L-339.90,-328.26L-355.82,-328.54L-392.49,-319.36L-392.58,-313.97L-377.95,-310.05L-373.95,-300.18L-375.26,-223.50L-383.53,-212.62L-394.32,-212.07L-394.41,-206.68L-323.13,-205.46L-323.04,-210.85ZM-254.92,-210.42L-262.33,-221.58L-259.40,-393.05L-311.99,-384.15L-312.09,-378.76L-297.45,-374.83L-293.45,-364.96L-295.89,-221.90L-303.92,-211.26L-314.71,-210.71L-314.80,-205.32L-244.25,-204.12L-244.16,-209.50ZM-99.16,-220.02L-106.85,-228.97L-104.10,-390.40L-156.69,-381.50L-156.78,-376.11L-142.14,-372.18L-138.15,-362.31L-138.86,-320.18C-148.86,-323.05 -159.59,-325.92 -169.35,-328.79C-185.63,-322.20 -202.16,-315.87 -218.44,-309.29C-224.09,-294.19 -229.99,-278.85 -235.64,-263.76L-224.61,-220.69C-209.53,-213.81 -194.71,-206.70 -179.63,-199.83L-140.51,-223.66L-140.93,-199.17L-84.62,-210.70L-84.53,-216.09ZM-170.44,-221.72C-180.33,-230.96 -189.97,-240.43 -199.86,-249.67L-203.83,-289.68C-198.79,-297.68 -193.51,-305.92 -188.47,-313.92L-162.93,-316.91C-155.40,-313.11 -146.90,-308.56 -139.13,-304.50L-140.39,-230.77C-149.99,-227.99 -161.08,-224.50 -170.44,-221.72ZM110.92,-239.47L93.67,-219.18L79.82,-212.06L41.82,-210.75L33.43,-221.43L34.46,-281.94L74.87,-281.00L85.27,-272.99L89.74,-262.13L95.38,-262.03L96.23,-312.25L90.60,-312.35L85.76,-301.65L74.61,-294.24L74.60,-294.00L34.67,-294.43L35.60,-348.81L44.35,-359.20L81.80,-356.85L95.39,-349.02L110.23,-328.18L116.35,-328.08L111.91,-369.57L-19.63,-371.81L-19.72,-366.42L-8.96,-365.50L-1.06,-354.34L-3.40,-217.16L-11.67,-206.27L-22.46,-205.72L-22.56,-200.33L109.48,-198.08L117.04,-239.36ZM248.40,-211.88L240.72,-220.84L241.85,-287.22C236.13,-296.88 230.66,-306.53 224.94,-315.93C209.55,-318.40 194.63,-320.37 179.24,-322.84C164.91,-316.22 150.11,-310.35 135.54,-303.98L152.56,-267.18L157.95,-267.09C161.61,-280.50 165.02,-293.68 168.68,-307.09L197.19,-312.24C200.99,-305.32 204.55,-298.40 208.35,-291.22L207.88,-264.03C187.97,-259.96 163.37,-254.75 143.70,-250.67C139.14,-241.93 134.34,-233.43 129.78,-224.93C136.47,-214.53 142.67,-204.38 149.10,-193.98C162.84,-194.97 176.08,-195.48 189.83,-196.71L207.08,-217.00L206.67,-192.99L262.95,-202.57L263.04,-207.96ZM181.69,-207.88C176.60,-211.39 171.27,-215.16 166.19,-218.68L166.55,-239.74C179.16,-246.39 194.72,-253.72 207.82,-260.36L207.18,-222.63C199.25,-217.87 189.60,-212.15 181.69,-207.88ZM366.65,-320.38C358.53,-318.31 350.17,-316.74 342.05,-314.67C335.27,-305.23 328.47,-294.57 321.69,-285.13L322.31,-321.14L269.71,-311.50L269.61,-306.11L284.25,-302.18C285.67,-298.97 286.83,-295.52 288.25,-292.31L286.88,-212.21C284.12,-208.58 281.37,-204.95 278.61,-201.32L267.82,-200.77L267.73,-195.38L349.05,-194.00L349.15,-199.38C343.03,-199.73 336.91,-200.08 330.79,-200.43L320.44,-211.64L321.57,-277.78L350.63,-300.56C353.06,-299.54 355.49,-298.52 357.93,-297.49L369.66,-267.40L375.05,-267.31L387.75,-307.77C380.72,-312.30 373.68,-315.85 366.65,-320.38ZM480.55,-217.48C476.35,-215.35 471.90,-213.46 467.70,-211.33L450.06,-211.63C446.95,-215.60 444.08,-219.82 440.96,-223.79L442.35,-305.12L478.60,-304.50L478.77,-314.30L442.51,-314.92L443.06,-346.76L434.24,-346.92L422.35,-325.31C418.14,-322.20 414.16,-318.83 409.93,-315.47L393.52,-315.75L393.36,-306.20L406.10,-305.98L408.68,-299.57L407.31,-219.22C410.37,-211.82 413.67,-204.17 416.73,-196.76L453.85,-189.51C463.78,-196.69 474.68,-203.86 484.60,-211.04ZM632.34,-195.29L624.44,-206.45L625.84,-288.27C621.80,-295.69 617.51,-302.87 613.47,-310.29C602.97,-312.18 592.46,-314.08 581.96,-315.97L542.59,-292.14L544.08,-379.35L491.49,-370.44L491.40,-365.05L506.03,-361.13L510.03,-351.26L507.59,-208.44L499.32,-197.56L488.53,-197.01L488.44,-191.62L559.72,-190.40L559.82,-195.79L549.05,-196.71L541.15,-207.87L542.49,-286.02C554.82,-290.71 562.94,-292.77 575.27,-297.46C580.80,-291.24 586.58,-285.26 592.11,-279.04L590.88,-207.02L582.61,-196.14L571.82,-195.59L571.73,-190.20L643.01,-188.98L643.10,-194.37Z" fill="#ffffff" stroke="#000000"/>
    <path d="M-578.24,-287.21L-609.95,-299.42L-579.44,-306.65L-567.00,-337.87L-577.41,-367.00L-601.33,-380.23L-709.69,-383.00L-709.83,-377.67L-699.18,-376.67L-691.46,-365.55L-694.93,-229.80L-703.21,-219.09L-713.90,-218.64L-714.03,-213.30L-605.43,-210.53L-571.02,-228.08L-560.87,-254.99ZM-618.14,-367.80L-605.45,-351.71L-604.30,-320.87L-623.43,-303.41L-656.64,-304.26L-655.06,-365.83L-647.36,-372.91ZM-617.09,-219.31L-651.27,-220.19L-658.60,-227.65L-656.86,-295.77L-614.13,-287.65L-601.76,-268.65L-600.05,-240.47ZM-416.99,-218.08L-421.35,-227.89L-418.73,-330.19L-470.86,-321.82L-471.00,-316.49L-456.54,-312.48L-452.67,-302.68L-454.44,-233.59C-463.99,-229.95 -473.31,-226.07 -482.86,-222.43C-488.28,-228.63 -493.95,-234.60 -499.37,-240.80L-497.04,-332.19L-549.16,-323.83L-549.30,-318.49L-534.85,-314.48L-530.97,-304.68L-532.83,-231.96C-528.90,-224.58 -524.71,-217.44 -520.78,-210.06C-510.40,-208.09 -500.02,-206.13 -489.64,-204.17L-454.59,-227.53L-454.97,-203.28L-403.09,-211.65L-402.95,-216.99ZM-357.98,-353.38C-352.14,-354.20 -347.51,-354.81 -342.89,-355.42L-335.50,-369.06C-336.36,-373.69 -337.45,-378.33 -338.30,-382.96C-342.62,-385.01 -346.93,-387.06 -351.00,-389.35L-366.10,-386.82C-369.11,-383.02 -371.64,-378.96 -374.41,-374.90C-373.33,-369.78 -371.76,-364.65 -370.92,-359.53C-366.61,-357.48 -362.54,-355.44 -357.98,-353.38ZM-334.49,-209.66L-342.21,-220.77L-339.54,-325.01L-355.30,-325.41L-391.67,-316.64L-391.81,-311.31L-377.35,-307.30L-373.48,-297.50L-375.42,-221.62L-383.70,-210.92L-394.39,-210.46L-394.52,-205.13L-323.98,-203.32L-323.84,-208.66ZM-256.43,-207.66L-263.67,-218.76L-259.32,-388.46L-311.45,-380.09L-311.59,-374.75L-297.13,-370.74L-293.26,-360.94L-296.88,-219.37L-304.91,-208.90L-315.60,-208.45L-315.74,-203.11L-245.92,-201.33L-245.78,-206.66ZM-102.18,-215.84L-109.72,-224.77L-105.63,-384.52L-157.75,-376.15L-157.89,-370.82L-143.44,-366.81L-139.57,-357.01L-140.63,-315.31C-150.50,-318.23 -161.10,-321.17 -170.73,-324.09C-186.90,-317.71 -203.31,-311.58 -219.49,-305.20C-225.21,-290.31 -231.17,-275.18 -236.89,-260.28L-226.34,-217.56C-211.48,-210.63 -196.86,-203.47 -182.00,-196.54L-143.08,-219.80L-143.70,-195.56L-87.87,-206.50L-87.73,-211.83ZM-172.71,-218.13C-182.42,-227.36 -191.89,-236.82 -201.60,-246.04L-205.19,-285.67C-200.14,-293.55 -194.84,-301.66 -189.78,-309.54L-164.48,-312.28C-157.06,-308.46 -148.69,-303.88 -141.03,-299.80L-142.90,-226.83C-152.43,-224.16 -163.43,-220.81 -172.71,-218.13ZM105.91,-233.32L88.66,-213.38L74.90,-206.46L37.28,-205.48L29.06,-216.12L30.59,-276.00L70.59,-274.73L80.81,-266.71L85.14,-255.93L90.72,-255.78L91.99,-305.48L86.42,-305.62L81.54,-295.07L70.44,-287.84L70.43,-287.60L30.91,-288.36L32.29,-342.18L41.04,-352.39L78.08,-349.74L91.47,-341.88L105.98,-321.13L112.04,-320.98L107.99,-362.08L-22.19,-365.41L-22.32,-360.07L-11.67,-359.07L-3.95,-347.96L-7.43,-212.20L-15.71,-201.50L-26.39,-201.05L-26.53,-195.71L104.14,-192.37L111.97,-233.16ZM241.76,-204.86L234.22,-213.78L235.90,-279.48C230.33,-289.08 224.99,-298.68 219.41,-308.04C204.19,-310.61 189.45,-312.69 174.23,-315.26C160.00,-308.83 145.30,-303.15 130.83,-296.97L147.36,-260.40L152.69,-260.26C156.43,-273.51 159.91,-286.52 163.65,-299.76L191.91,-304.62C195.62,-297.73 199.08,-290.85 202.78,-283.72L202.09,-256.81C182.34,-252.95 157.96,-248.00 138.45,-244.13C133.87,-235.52 129.04,-227.15 124.46,-218.78C130.99,-208.42 137.04,-198.32 143.32,-187.97C156.93,-188.84 170.04,-189.23 183.65,-190.33L200.90,-210.27L200.29,-186.51L256.07,-195.52L256.21,-200.85ZM175.69,-201.45C170.68,-204.98 165.44,-208.75 160.44,-212.28L160.97,-233.12C173.51,-239.60 188.98,-246.72 202.00,-253.18L201.04,-215.85C193.16,-211.20 183.56,-205.62 175.69,-201.45ZM359.70,-311.24C351.65,-309.27 343.36,-307.78 335.31,-305.80C328.52,-296.52 321.70,-286.02 314.91,-276.73L315.83,-312.37L263.68,-303.27L263.54,-297.94L278.00,-293.93C279.37,-290.74 280.50,-287.31 281.87,-284.13L279.84,-204.85C277.08,-201.29 274.32,-197.72 271.56,-194.15L260.88,-193.70L260.74,-188.36L341.22,-186.30L341.36,-191.64C335.31,-192.03 329.25,-192.43 323.20,-192.83L313.05,-204.00L314.73,-269.46L343.68,-291.76C346.08,-290.73 348.48,-289.70 350.88,-288.67L362.24,-258.78L367.58,-258.64L380.48,-298.58C373.57,-303.13 366.62,-306.70 359.70,-311.24ZM471.57,-208.44C467.39,-206.36 462.98,-204.53 458.80,-202.46L441.35,-202.90C438.30,-206.86 435.49,-211.06 432.44,-215.02L434.50,-295.50L470.38,-294.58L470.63,-304.28L434.75,-305.20L435.56,-336.71L426.83,-336.94L414.88,-315.65C410.68,-312.61 406.71,-309.31 402.51,-306.02L386.26,-306.44L386.02,-296.99L398.63,-296.66L401.13,-290.29L399.10,-210.78C402.06,-203.42 405.27,-195.82 408.23,-188.47L444.91,-180.98C454.80,-188.01 465.65,-195.01 475.53,-202.03ZM621.62,-185.19L613.90,-196.31L615.97,-277.27C612.03,-284.65 607.85,-291.79 603.92,-299.17C593.53,-301.14 583.15,-303.10 572.77,-305.06L533.61,-281.81L535.82,-368.11L483.69,-359.74L483.55,-354.41L498.01,-350.40L501.88,-340.60L498.26,-199.27L489.98,-188.56L479.30,-188.11L479.16,-182.77L549.71,-180.97L549.84,-186.30L539.19,-187.30L531.47,-198.42L533.45,-275.75C545.70,-280.29 553.75,-282.26 566.00,-286.80C571.42,-280.60 577.09,-274.63 582.51,-268.43L580.69,-197.16L572.41,-186.45L561.72,-186.00L561.58,-180.66L632.13,-178.86L632.27,-184.19Z" fill="#ffffff" stroke="#000000"/>
    <path d="M-575.69,-286.44L-606.96,-298.79L-576.71,-305.69L-564.13,-336.47L-574.19,-365.39L-597.75,-378.69L-704.97,-382.34L-705.15,-377.07L-694.62,-375.99L-687.07,-364.92L-691.66,-230.60L-699.94,-220.08L-710.52,-219.72L-710.70,-214.44L-603.24,-210.77L-569.04,-227.86L-558.77,-254.40ZM-614.50,-366.53L-602.08,-350.50L-601.20,-319.97L-620.27,-302.85L-653.13,-303.97L-651.05,-364.89L-643.37,-371.84ZM-614.71,-219.57L-648.53,-220.72L-655.72,-228.17L-653.42,-295.58L-611.20,-287.17L-599.12,-268.27L-597.67,-240.36ZM-416.69,-216.66L-420.92,-226.41L-417.47,-327.63L-469.13,-319.78L-469.31,-314.51L-455.04,-310.42L-451.29,-300.68L-453.62,-232.32C-463.11,-228.81 -472.36,-225.04 -481.85,-221.52C-487.16,-227.71 -492.72,-233.66 -498.03,-239.84L-494.94,-330.27L-546.60,-322.43L-546.78,-317.15L-532.51,-313.06L-528.76,-303.33L-531.22,-231.37C-527.39,-224.04 -523.31,-216.93 -519.47,-209.60C-509.22,-207.57 -498.96,-205.54 -488.70,-203.50L-453.83,-226.33L-454.40,-202.33L-402.99,-210.19L-402.81,-215.46ZM-357.15,-350.06C-351.36,-350.83 -346.78,-351.39 -342.20,-351.95L-334.77,-365.39C-335.58,-369.98 -336.62,-374.58 -337.43,-379.17C-341.68,-381.23 -345.93,-383.30 -349.93,-385.60L-364.90,-383.23C-367.91,-379.49 -370.45,-375.49 -373.23,-371.50C-372.20,-366.43 -370.69,-361.33 -369.91,-356.26C-365.65,-354.20 -361.64,-352.14 -357.15,-350.06ZM-335.11,-207.63L-342.66,-218.69L-339.14,-321.83L-354.73,-322.36L-390.80,-313.99L-390.98,-308.71L-376.71,-304.62L-372.96,-294.89L-375.52,-219.81L-383.81,-209.29L-394.38,-208.93L-394.56,-203.65L-324.77,-201.27L-324.58,-206.55ZM-257.88,-204.99L-264.95,-216.04L-259.22,-383.94L-310.87,-376.10L-311.05,-370.82L-296.79,-366.73L-293.04,-357.00L-297.82,-216.92L-305.85,-206.63L-316.43,-206.27L-316.61,-200.99L-247.53,-198.64L-247.35,-203.91ZM-105.16,-211.79L-112.54,-220.69L-107.15,-378.75L-158.80,-370.91L-158.98,-365.63L-144.71,-361.55L-140.96,-351.81L-142.37,-310.56C-152.12,-313.53 -162.58,-316.53 -172.08,-319.49C-188.14,-313.32 -204.44,-307.39 -220.50,-301.21C-226.28,-286.52 -232.31,-271.60 -238.10,-256.91L-228.02,-214.54C-213.37,-207.56 -198.96,-200.34 -184.31,-193.36L-145.60,-216.05L-146.42,-192.06L-91.07,-202.42L-90.89,-207.70ZM-174.94,-214.65C-184.47,-223.86 -193.76,-233.30 -203.29,-242.51L-206.51,-281.77C-201.44,-289.52 -196.13,-297.50 -191.06,-305.25L-166.00,-307.76C-158.69,-303.91 -150.44,-299.30 -142.90,-295.20L-145.36,-223.01C-154.81,-220.45 -165.73,-217.22 -174.94,-214.65ZM100.93,-227.33L83.69,-207.75L70.02,-201.01L32.77,-200.36L24.73,-210.96L26.75,-270.20L66.32,-268.61L76.37,-260.59L80.57,-249.88L86.09,-249.69L87.76,-298.86L82.25,-299.05L77.33,-288.65L66.28,-281.58L66.27,-281.34L27.17,-282.44L28.98,-335.69L37.73,-345.71L74.37,-342.78L87.55,-334.89L101.74,-314.23L107.73,-314.03L104.08,-354.74L-24.73,-359.13L-24.91,-353.86L-14.38,-352.78L-6.83,-341.71L-11.41,-207.39L-19.70,-196.87L-30.28,-196.51L-30.46,-191.23L98.83,-186.82L106.93,-227.13ZM235.13,-198.02L227.75,-206.91L229.97,-271.92C224.53,-281.47 219.33,-291.01 213.89,-300.32C198.85,-303.00 184.27,-305.17 169.24,-307.85C155.10,-301.61 140.50,-296.10 126.13,-290.11L142.18,-253.78L147.45,-253.60C151.26,-266.68 154.82,-279.52 158.63,-292.60L186.64,-297.17C190.25,-290.32 193.62,-283.48 197.22,-276.40L196.31,-249.77C176.74,-246.12 152.56,-241.42 133.23,-237.75C128.61,-229.27 123.77,-221.03 119.17,-212.78C125.54,-202.48 131.44,-192.43 137.57,-182.13C151.04,-182.88 164.02,-183.15 177.50,-184.13L194.74,-203.72L193.94,-180.21L249.22,-188.65L249.40,-193.93ZM169.72,-195.21C164.79,-198.74 159.64,-202.51 154.72,-206.04L155.42,-226.67C167.88,-232.97 183.25,-239.89 196.19,-246.17L194.93,-209.23C187.09,-204.70 177.54,-199.26 169.72,-195.21ZM352.75,-302.31C344.77,-300.42 336.55,-299.02 328.56,-297.13C321.77,-287.99 314.93,-277.66 308.14,-268.53L309.34,-303.79L257.66,-295.22L257.48,-289.95L271.75,-285.86C273.08,-282.69 274.16,-279.29 275.50,-276.13L272.82,-197.69C270.06,-194.18 267.30,-190.68 264.54,-187.17L253.96,-186.81L253.78,-181.53L333.41,-178.81L333.59,-184.09C327.60,-184.54 321.62,-184.98 315.63,-185.42L305.68,-196.57L307.89,-261.33L336.73,-283.16C339.10,-282.12 341.46,-281.08 343.83,-280.04L354.82,-250.37L360.10,-250.19L373.21,-289.60C366.40,-294.16 359.56,-297.75 352.75,-302.31ZM462.60,-199.62C458.45,-197.60 454.06,-195.83 449.91,-193.81L432.64,-194.40C429.65,-198.34 426.91,-202.52 423.93,-206.46L426.64,-286.10L462.14,-284.89L462.47,-294.48L426.97,-295.69L428.04,-326.87L419.40,-327.17L407.40,-306.20C403.22,-303.23 399.26,-300.00 395.07,-296.78L379.00,-297.33L378.68,-287.97L391.15,-287.55L393.58,-281.22L390.89,-202.55C393.77,-195.25 396.87,-187.69 399.74,-180.39L435.98,-172.67C445.82,-179.54 456.62,-186.38 466.46,-193.24ZM610.90,-175.35L603.35,-186.41L606.08,-266.53C602.25,-273.86 598.17,-280.96 594.34,-288.30C584.08,-290.33 573.82,-292.36 563.57,-294.39L524.61,-271.71L527.52,-357.10L475.87,-349.25L475.69,-343.98L489.96,-339.89L493.71,-330.16L488.93,-190.32L480.65,-179.79L470.07,-179.43L469.89,-174.16L539.69,-171.78L539.87,-177.05L529.34,-178.13L521.80,-189.20L524.41,-265.71C536.56,-270.10 544.55,-271.99 556.71,-276.38C562.02,-270.19 567.58,-264.24 572.89,-258.05L570.49,-187.53L562.20,-177.01L551.63,-176.65L551.45,-171.37L621.24,-168.99L621.42,-174.27Z" fill="#ffffff" stroke="#000000"/>
    <path d="M-573.07,-285.70L-603.91,-298.19L-573.92,-304.75L-561.21,-335.11L-570.92,-363.82L-594.13,-377.17L-700.19,-381.69L-700.42,-376.47L-690.00,-375.31L-682.63,-364.30L-688.30,-231.42L-696.58,-221.08L-707.06,-220.81L-707.28,-215.59L-600.98,-211.06L-566.99,-227.67L-556.60,-253.85ZM-610.80,-365.28L-598.64,-349.31L-598.03,-319.09L-617.05,-302.31L-649.56,-303.70L-646.99,-363.97L-639.33,-370.77ZM-612.25,-219.86L-645.70,-221.29L-652.76,-228.72L-649.91,-295.39L-608.21,-286.72L-596.41,-267.91L-595.21,-240.29ZM-416.33,-215.30L-420.43,-224.99L-416.16,-325.12L-467.34,-317.80L-467.56,-312.58L-453.48,-308.41L-449.85,-298.75L-452.74,-231.12C-462.15,-227.72 -471.34,-224.07 -480.76,-220.67C-485.96,-226.83 -491.41,-232.77 -496.62,-238.93L-492.80,-328.39L-543.98,-321.07L-544.21,-315.85L-530.12,-311.68L-526.49,-302.02L-529.53,-230.83C-525.80,-223.54 -521.82,-216.48 -518.09,-209.19C-507.96,-207.09 -497.83,-204.99 -487.70,-202.90L-452.99,-225.19L-453.76,-201.45L-402.82,-208.78L-402.59,-214.00ZM-356.28,-346.81C-350.54,-347.52 -346.00,-348.04 -341.47,-348.56L-334.01,-361.79C-334.76,-366.34 -335.76,-370.90 -336.52,-375.45C-340.71,-377.53 -344.90,-379.61 -348.84,-381.92L-363.67,-379.70C-366.68,-376.02 -369.23,-372.09 -372.01,-368.17C-371.03,-363.13 -369.59,-358.08 -368.85,-353.05C-364.66,-350.97 -360.71,-348.90 -356.28,-346.81ZM-335.68,-205.68L-343.05,-216.69L-338.70,-318.73L-354.12,-319.38L-389.88,-311.40L-390.10,-306.18L-376.02,-302.01L-372.39,-292.35L-375.56,-218.08L-383.84,-207.74L-394.32,-207.47L-394.54,-202.25L-325.49,-199.30L-325.27,-204.52ZM-259.27,-202.42L-266.17,-213.41L-259.08,-379.51L-310.27,-372.19L-310.49,-366.97L-296.41,-362.80L-292.78,-353.14L-298.69,-214.56L-306.73,-204.45L-317.20,-204.18L-317.42,-198.96L-249.08,-196.04L-248.86,-201.27ZM-108.09,-207.86L-115.32,-216.72L-108.65,-373.09L-159.83,-365.77L-160.05,-360.55L-145.97,-356.38L-142.34,-346.72L-144.08,-305.91C-153.70,-308.93 -164.03,-311.99 -173.41,-315.00C-189.35,-309.03 -205.52,-303.30 -221.47,-297.32C-227.31,-282.83 -233.41,-268.12 -239.26,-253.63L-229.64,-211.62C-215.20,-204.58 -201.01,-197.32 -186.57,-190.29L-148.07,-212.42L-149.08,-188.69L-94.23,-198.47L-94.00,-203.69ZM-177.12,-211.28C-186.47,-220.47 -195.58,-229.90 -204.93,-239.09L-207.79,-277.96C-202.71,-285.59 -197.38,-293.44 -192.30,-301.07L-167.49,-303.34C-160.28,-299.47 -152.16,-294.84 -144.73,-290.72L-147.77,-219.30C-157.15,-216.85 -167.98,-213.74 -177.12,-211.28ZM95.98,-221.50L78.76,-202.26L65.16,-195.71L28.30,-195.38L20.43,-205.94L22.93,-264.55L62.08,-262.64L71.96,-254.61L76.02,-243.98L81.48,-243.75L83.55,-292.39L78.09,-292.62L73.14,-282.38L62.15,-275.48L62.14,-275.24L23.45,-276.65L25.70,-329.33L34.44,-339.18L70.67,-335.97L83.65,-328.05L97.51,-307.49L103.44,-307.23L100.17,-347.55L-27.25,-352.98L-27.48,-347.76L-17.07,-346.60L-9.69,-335.59L-15.36,-202.71L-23.65,-192.37L-34.12,-192.10L-34.34,-186.88L93.56,-181.43L101.91,-221.24ZM228.53,-191.36L221.30,-200.22L224.04,-264.53C218.74,-274.03 213.68,-283.51 208.37,-292.77C193.51,-295.55 179.11,-297.82 164.25,-300.60C150.20,-294.54 135.71,-289.22 121.44,-283.41L137.02,-247.32L142.24,-247.10C146.12,-260.01 149.75,-272.69 153.63,-285.60L181.38,-289.88C184.90,-283.08 188.17,-276.28 191.68,-269.24L190.55,-242.90C171.15,-239.45 147.19,-235.00 128.02,-231.54C123.39,-223.18 118.52,-215.07 113.90,-206.95C120.12,-196.70 125.87,-186.70 131.85,-176.47C145.19,-177.08 158.04,-177.25 171.38,-178.11L188.61,-197.34L187.62,-174.09L242.39,-181.97L242.61,-187.19ZM163.77,-189.13C158.93,-192.66 153.86,-196.45 149.02,-199.98L149.89,-220.39C162.28,-226.51 177.54,-233.23 190.40,-239.34L188.84,-202.80C181.04,-198.38 171.55,-193.08 163.77,-189.13ZM345.80,-293.57C337.88,-291.76 329.74,-290.45 321.82,-288.65C315.02,-279.66 308.17,-269.50 301.37,-260.52L302.85,-295.40L251.64,-287.36L251.42,-282.14L265.50,-277.97C266.79,-274.83 267.84,-271.46 269.13,-268.31L265.82,-190.72C263.06,-187.27 260.30,-183.82 257.53,-180.37L247.06,-180.11L246.84,-174.89L325.62,-171.53L325.84,-176.75C319.92,-177.24 314.00,-177.73 308.08,-178.22L298.33,-189.33L301.06,-253.40L329.79,-274.76C332.12,-273.71 334.45,-272.65 336.78,-271.60L347.41,-242.15L352.63,-241.93L365.94,-280.82C359.24,-285.38 352.50,-289.00 345.80,-293.57ZM453.63,-191.03C449.50,-189.06 445.15,-187.35 441.03,-185.38L423.94,-186.11C421.02,-190.04 418.34,-194.20 415.42,-198.12L418.78,-276.90L453.90,-275.40L454.31,-284.89L419.19,-286.39L420.50,-317.24L411.96,-317.60L399.91,-296.96C395.74,-294.05 391.80,-290.89 387.63,-287.74L371.73,-288.42L371.34,-279.16L383.68,-278.64L386.02,-272.36L382.70,-194.53C385.48,-187.28 388.49,-179.78 391.27,-172.53L427.07,-164.58C436.86,-171.30 447.60,-177.97 457.40,-184.68ZM600.17,-165.76L592.80,-176.77L596.18,-256.02C592.45,-263.31 588.47,-270.38 584.74,-277.67C574.61,-279.76 564.48,-281.86 554.34,-283.96L515.60,-261.84L519.21,-346.31L468.02,-338.98L467.80,-333.76L481.89,-329.60L485.52,-319.93L479.61,-181.60L471.33,-171.25L460.86,-170.99L460.63,-165.77L529.68,-162.82L529.91,-168.04L519.50,-169.20L512.12,-180.21L515.35,-255.90C527.42,-260.14 535.34,-261.95 547.41,-266.18C552.61,-260.02 558.06,-254.08 563.27,-247.92L560.29,-178.16L552.00,-167.81L541.53,-167.55L541.31,-162.33L610.36,-159.38L610.58,-164.60Z" fill="#ffffff" stroke="#000000"/>
    <path d="M-570.38,-284.99L-600.80,-297.60L-571.06,-303.85L-558.24,-333.78L-567.60,-362.26L-590.45,-375.67L-695.35,-381.04L-695.62,-375.88L-685.33,-374.64L-678.12,-363.69L-684.85,-232.26L-693.14,-222.09L-703.50,-221.92L-703.77,-216.76L-598.62,-211.37L-564.85,-227.53L-554.35,-253.34ZM-607.04,-364.05L-595.15,-348.14L-594.80,-318.24L-613.76,-301.80L-645.91,-303.44L-642.86,-363.06L-635.22,-369.72ZM-609.70,-220.17L-642.79,-221.87L-649.71,-229.28L-646.33,-295.23L-605.14,-286.30L-593.63,-267.59L-592.67,-240.24ZM-415.89,-214.01L-419.87,-223.63L-414.80,-322.67L-465.50,-315.85L-465.77,-310.69L-451.86,-306.45L-448.36,-296.86L-451.78,-229.97C-461.13,-226.68 -470.25,-223.15 -479.59,-219.86C-484.69,-226.01 -490.04,-231.93 -495.13,-238.07L-490.60,-326.55L-541.31,-319.74L-541.57,-314.57L-527.67,-310.33L-524.16,-300.74L-527.77,-230.33C-524.14,-223.09 -520.26,-216.06 -516.63,-208.82C-506.62,-206.66 -496.62,-204.50 -486.61,-202.34L-452.08,-224.10L-453.05,-200.62L-402.58,-207.45L-402.31,-212.61ZM-355.37,-343.63C-349.69,-344.28 -345.19,-344.75 -340.70,-345.23L-333.20,-358.26C-333.91,-362.77 -334.86,-367.29 -335.57,-371.79C-339.70,-373.89 -343.83,-375.98 -347.71,-378.30L-362.40,-376.23C-365.41,-372.62 -367.96,-368.75 -370.75,-364.89C-369.83,-359.90 -368.44,-354.89 -367.75,-349.91C-363.62,-347.82 -359.73,-345.73 -355.37,-343.63ZM-336.17,-203.81L-343.38,-214.77L-338.21,-315.69L-353.46,-316.47L-388.91,-308.87L-389.18,-303.71L-375.28,-299.47L-371.77,-289.88L-375.53,-216.42L-383.81,-206.25L-394.18,-206.08L-394.44,-200.92L-326.15,-197.42L-325.88,-202.58ZM-260.60,-199.94L-267.34,-210.88L-258.92,-375.16L-309.63,-368.35L-309.89,-363.18L-295.99,-358.94L-292.48,-349.35L-299.50,-212.29L-307.54,-202.35L-317.90,-202.17L-318.17,-197.01L-250.57,-193.55L-250.31,-198.71ZM-110.97,-204.05L-118.05,-212.88L-110.13,-367.54L-160.83,-360.73L-161.10,-355.56L-147.20,-351.32L-143.69,-341.73L-145.75,-301.36C-155.24,-304.44 -165.44,-307.55 -174.69,-310.61C-190.52,-304.83 -206.57,-299.30 -222.39,-293.52C-228.30,-279.24 -234.46,-264.73 -240.37,-250.44L-231.20,-208.79C-216.98,-201.71 -203.00,-194.41 -188.77,-187.32L-150.49,-208.89L-151.69,-185.43L-97.33,-194.64L-97.07,-199.81ZM-179.24,-208.01C-188.42,-217.19 -197.35,-226.59 -206.53,-235.77L-209.03,-274.25C-203.94,-281.75 -198.60,-289.48 -193.51,-296.98L-168.93,-299.02C-161.84,-295.13 -153.84,-290.48 -146.52,-286.34L-150.14,-215.70C-159.44,-213.35 -170.18,-210.37 -179.24,-208.01ZM91.06,-215.82L73.85,-196.94L60.35,-190.57L23.88,-190.55L16.18,-201.07L19.15,-259.03L57.86,-256.82L67.57,-248.79L71.50,-238.24L76.90,-237.96L79.36,-286.07L73.96,-286.35L68.97,-276.25L58.04,-269.51L58.03,-269.28L19.76,-271.00L22.43,-323.11L31.16,-332.78L66.98,-329.30L79.75,-321.35L93.29,-300.89L99.16,-300.59L96.26,-340.50L-29.77,-346.96L-30.03,-341.79L-19.74,-340.56L-12.54,-329.60L-19.27,-198.17L-27.55,-188.01L-37.91,-187.83L-38.18,-182.67L88.32,-176.19L96.92,-215.52ZM221.95,-184.88L214.87,-193.71L218.13,-257.32C212.97,-266.76 208.04,-276.19 202.86,-285.39C188.18,-288.26 173.95,-290.64 159.27,-293.51C145.33,-287.63 130.94,-282.49 116.77,-276.86L131.88,-241.03L137.04,-240.76C140.99,-253.50 144.69,-266.02 148.64,-278.76L176.14,-282.76C179.55,-276.00 182.74,-269.25 186.15,-262.25L184.81,-236.20C165.58,-232.95 141.84,-228.75 122.85,-225.49C118.19,-217.25 113.31,-209.27 108.67,-201.27C114.73,-191.08 120.34,-181.14 126.17,-170.96C139.38,-171.46 152.09,-171.52 165.30,-172.25L182.50,-191.14L181.33,-168.14L235.59,-175.48L235.85,-180.64ZM157.86,-183.22C153.10,-186.76 148.12,-190.54 143.36,-194.08L144.39,-214.27C156.70,-220.22 171.86,-226.74 184.63,-232.68L182.78,-196.53C175.03,-192.23 165.59,-187.06 157.86,-183.22ZM338.85,-285.02C331.00,-283.30 322.93,-282.07 315.08,-280.35C308.27,-271.52 301.41,-261.52 294.60,-252.69L296.37,-287.19L245.63,-279.67L245.36,-274.51L259.27,-270.27C260.52,-267.15 261.52,-263.80 262.78,-260.68L258.85,-183.93C256.08,-180.54 253.32,-177.16 250.56,-173.77L240.20,-173.59L239.93,-168.43L317.85,-164.44L318.11,-169.60C312.26,-170.14 306.40,-170.67 300.55,-171.21L291.00,-182.29L294.24,-245.65L322.84,-266.54C325.14,-265.48 327.44,-264.43 329.74,-263.37L340.01,-234.13L345.17,-233.87L358.67,-272.24C352.08,-276.81 345.44,-280.45 338.85,-285.02ZM444.67,-182.65C440.58,-180.74 436.25,-179.08 432.16,-177.18L415.26,-178.04C412.40,-181.95 409.79,-186.09 406.93,-190.00L410.92,-267.92L445.65,-266.14L446.13,-275.52L411.40,-277.30L412.96,-307.81L404.51,-308.25L392.41,-287.92C388.27,-285.08 384.34,-281.98 380.19,-278.90L364.46,-279.71L363.99,-270.55L376.20,-269.93L378.47,-263.69L374.52,-186.72C377.21,-179.52 380.13,-172.07 382.82,-164.88L418.17,-156.71C427.92,-163.27 438.60,-169.79 448.35,-176.35ZM589.46,-156.41L582.25,-167.37L586.27,-245.76C582.64,-253.00 578.76,-260.03 575.13,-267.27C565.12,-269.43 555.12,-271.59 545.11,-273.75L506.59,-252.19L510.87,-335.74L460.16,-328.93L459.90,-323.76L473.80,-319.52L477.31,-309.93L470.30,-173.10L462.02,-162.94L451.66,-162.76L451.39,-157.60L519.69,-154.10L519.95,-159.27L509.66,-160.50L502.46,-171.46L506.29,-246.33C518.26,-250.42 526.12,-252.13 538.09,-256.23C543.19,-250.08 548.53,-244.16 553.63,-238.02L550.10,-169.02L541.81,-158.85L531.45,-158.68L531.19,-153.52L599.48,-150.02L599.75,-155.18Z" fill="#ffffff" stroke="#000000"/>
    <path d="M-567.63,-284.31L-597.61,-297.04L-568.14,-302.97L-555.20,-332.48L-564.22,-360.73L-586.71,-374.19L-690.45,-380.39L-690.76,-375.28L-680.59,-373.97L-673.55,-363.07L-681.32,-233.10L-689.60,-223.12L-699.86,-223.03L-700.16,-217.93L-596.19,-211.71L-562.64,-227.41L-552.04,-252.86ZM-603.23,-362.83L-591.60,-346.99L-591.50,-317.41L-610.40,-301.30L-642.19,-303.20L-638.67,-362.15L-631.06,-368.69ZM-607.07,-220.52L-639.80,-222.47L-646.58,-229.86L-642.68,-295.08L-602.00,-285.89L-590.77,-267.29L-590.06,-240.23ZM-415.38,-212.79L-419.24,-222.33L-413.38,-320.27L-463.60,-313.96L-463.91,-308.85L-450.19,-304.54L-446.80,-295.02L-450.75,-228.88C-460.03,-225.70 -469.08,-222.28 -478.36,-219.11C-483.35,-225.23 -488.58,-231.14 -493.58,-237.26L-488.35,-324.75L-538.57,-318.44L-538.87,-313.33L-525.16,-309.02L-521.76,-299.50L-525.93,-229.87C-522.40,-222.68 -518.62,-215.70 -515.09,-208.50C-505.21,-206.28 -495.33,-204.05 -485.44,-201.83L-451.10,-223.07L-452.26,-199.85L-402.27,-206.18L-401.96,-211.29ZM-354.41,-340.51C-348.79,-341.10 -344.33,-341.53 -339.88,-341.97L-332.36,-354.79C-333.03,-359.26 -333.92,-363.74 -334.59,-368.20C-338.65,-370.31 -342.72,-372.42 -346.54,-374.74L-361.10,-372.82C-364.10,-369.27 -366.66,-365.46 -369.45,-361.67C-368.58,-356.73 -367.25,-351.75 -366.61,-346.83C-362.54,-344.72 -358.71,-342.63 -354.41,-340.51ZM-336.60,-202.02L-343.63,-212.92L-337.67,-312.72L-352.76,-313.62L-387.89,-306.41L-388.20,-301.30L-374.48,-296.99L-371.09,-287.47L-375.43,-214.82L-383.71,-204.84L-393.97,-204.75L-394.27,-199.65L-326.74,-195.61L-326.43,-200.72ZM-261.87,-197.56L-268.44,-208.43L-258.73,-370.89L-308.95,-364.57L-309.26,-359.47L-295.54,-355.16L-292.15,-345.64L-300.25,-210.10L-308.29,-200.33L-318.54,-200.24L-318.84,-195.14L-252.00,-191.14L-251.70,-196.25ZM-113.80,-200.35L-120.73,-209.15L-111.59,-362.10L-161.81,-355.78L-162.11,-350.68L-148.40,-346.36L-145.01,-336.84L-147.39,-296.92C-156.75,-300.05 -166.81,-303.21 -175.94,-306.32C-191.65,-300.73 -207.58,-295.40 -223.28,-289.81C-229.25,-275.73 -235.46,-261.43 -241.42,-247.34L-232.71,-206.06C-218.70,-198.94 -204.93,-191.59 -190.91,-184.47L-152.86,-205.48L-154.24,-182.27L-100.39,-190.93L-100.08,-196.04ZM-181.31,-204.85C-190.31,-214.01 -199.07,-223.38 -208.07,-232.54L-210.22,-270.63C-205.12,-278.01 -199.77,-285.61 -194.68,-293.00L-170.34,-294.80C-163.36,-290.89 -155.48,-286.23 -148.28,-282.07L-152.45,-212.21C-161.67,-209.97 -172.32,-207.11 -181.31,-204.85ZM86.17,-210.30L68.99,-191.76L55.58,-185.57L19.49,-185.87L11.97,-196.33L15.39,-253.66L53.67,-251.14L63.21,-243.11L67.01,-232.64L72.35,-232.32L75.19,-279.90L69.85,-280.21L64.83,-270.27L53.96,-263.70L53.94,-263.46L16.10,-265.49L19.18,-317.02L27.90,-326.51L63.31,-322.76L75.88,-314.79L89.10,-294.44L94.90,-294.09L92.37,-333.60L-32.26,-341.05L-32.56,-335.95L-22.39,-334.64L-15.36,-323.74L-23.12,-193.77L-31.41,-183.78L-41.66,-183.70L-41.97,-178.59L83.13,-171.12L91.97,-209.95ZM215.40,-178.58L208.48,-187.38L212.24,-250.28C207.21,-259.66 202.41,-269.03 197.37,-278.18C182.87,-281.15 168.81,-283.62 154.31,-286.58C140.46,-280.89 126.19,-275.92 112.12,-270.47L126.77,-234.89L131.87,-234.58C135.89,-247.15 139.65,-259.51 143.66,-272.08L170.91,-275.81C174.23,-269.09 177.32,-262.38 180.63,-255.43L179.09,-229.67C160.05,-226.61 136.52,-222.66 117.70,-219.59C113.03,-211.49 108.13,-203.63 103.47,-195.75C109.38,-185.62 114.85,-175.74 120.53,-165.62C133.60,-166.00 146.17,-165.95 159.25,-166.57L176.43,-185.10L175.07,-162.36L228.82,-169.16L229.12,-174.27ZM151.99,-177.48C147.31,-181.02 142.41,-184.81 137.73,-188.35L138.92,-208.31C151.15,-214.10 166.20,-220.42 178.89,-226.18L176.75,-190.44C169.05,-186.24 159.66,-181.22 151.99,-177.48ZM331.90,-276.67C324.12,-275.03 316.13,-273.88 308.35,-272.25C301.54,-263.57 294.66,-253.74 287.85,-245.06L289.89,-279.18L239.63,-272.16L239.33,-267.06L253.04,-262.75C254.25,-259.64 255.22,-256.33 256.43,-253.23L251.90,-177.33C249.14,-174.01 246.38,-170.68 243.61,-167.35L233.36,-167.26L233.06,-162.16L310.11,-157.55L310.41,-162.66C304.63,-163.24 298.84,-163.81 293.05,-164.39L283.69,-175.43L287.44,-238.10L315.91,-258.52C318.18,-257.46 320.44,-256.39 322.71,-255.32L332.62,-226.31L337.72,-226.01L351.40,-263.85C344.92,-268.43 338.38,-272.09 331.90,-276.67ZM435.73,-174.50C431.66,-172.65 427.37,-171.04 423.30,-169.19L406.59,-170.19C403.80,-174.08 401.25,-178.19 398.45,-182.08L403.06,-259.14L437.41,-257.08L437.96,-266.37L403.61,-268.42L405.41,-298.59L397.06,-299.09L384.92,-279.09C380.79,-276.31 376.88,-273.28 372.74,-270.27L357.19,-271.19L356.65,-262.14L368.72,-261.42L370.91,-255.24L366.36,-179.11C368.97,-171.97 371.79,-164.58 374.39,-157.44L409.29,-149.06C418.99,-155.47 429.62,-161.82 439.32,-168.23ZM578.75,-147.32L571.71,-158.22L576.34,-235.74C572.82,-242.94 569.04,-249.92 565.51,-257.11C555.63,-259.34 545.75,-261.56 535.86,-263.78L497.57,-242.77L502.51,-325.40L452.29,-319.08L451.99,-313.98L465.70,-309.66L469.09,-300.14L461.01,-164.84L452.72,-154.85L442.47,-154.76L442.17,-149.66L509.70,-145.62L510.01,-150.73L499.84,-152.04L492.80,-162.94L497.23,-236.97C509.11,-240.92 516.89,-242.55 528.77,-246.50C533.77,-240.38 539.00,-234.48 543.99,-228.35L539.92,-160.12L531.63,-150.14L521.38,-150.05L521.07,-144.94L588.61,-140.91L588.92,-146.01Z" fill="#ffffff" stroke="#000000"/>
    <path d="M-564.80,-283.65L-594.35,-296.50L-565.15,-302.12L-552.10,-331.19L-560.79,-359.22L-582.92,-372.72L-685.49,-379.73L-685.83,-374.68L-675.79,-373.30L-668.92,-362.46L-677.70,-233.96L-685.98,-224.15L-696.12,-224.15L-696.46,-219.10L-593.66,-212.08L-560.35,-227.32L-549.64,-252.41ZM-599.35,-361.63L-587.98,-345.86L-588.14,-316.60L-606.97,-300.82L-638.40,-302.97L-634.42,-361.26L-626.84,-367.65ZM-604.36,-220.88L-636.71,-223.09L-643.36,-230.46L-638.95,-294.94L-598.79,-285.51L-587.84,-267.01L-587.36,-240.24ZM-414.80,-211.62L-418.53,-221.09L-411.92,-317.93L-461.65,-312.10L-461.99,-307.06L-448.46,-302.67L-445.19,-293.23L-449.66,-227.83C-458.86,-224.77 -467.84,-221.47 -477.04,-218.41C-481.93,-224.50 -487.06,-230.39 -491.94,-236.48L-486.03,-322.99L-535.77,-317.17L-536.11,-312.12L-522.58,-307.74L-519.30,-298.29L-524.01,-229.45C-520.58,-222.30 -516.90,-215.37 -513.47,-208.22C-503.71,-205.93 -493.96,-203.65 -484.20,-201.37L-450.05,-222.09L-451.39,-199.13L-401.88,-204.97L-401.54,-210.02ZM-353.41,-337.45C-347.84,-337.99 -343.43,-338.38 -339.03,-338.77L-331.48,-351.39C-332.10,-355.82 -332.95,-360.25 -333.57,-364.68C-337.57,-366.79 -341.58,-368.91 -345.34,-371.24L-359.75,-369.46C-362.76,-365.98 -365.32,-362.23 -368.11,-358.51C-367.29,-353.61 -366.01,-348.68 -365.42,-343.80C-361.42,-341.68 -357.64,-339.58 -353.41,-337.45ZM-336.96,-200.30L-343.83,-211.15L-337.09,-309.82L-352.00,-310.84L-386.82,-303.99L-387.16,-298.95L-373.63,-294.56L-370.36,-285.12L-375.26,-213.30L-383.54,-203.49L-393.68,-203.49L-394.03,-198.44L-327.26,-193.88L-326.91,-198.93ZM-263.07,-195.26L-269.48,-206.07L-258.51,-366.69L-308.24,-360.87L-308.58,-355.82L-295.05,-351.44L-291.78,-341.99L-300.93,-207.99L-308.97,-198.39L-319.11,-198.39L-319.45,-193.35L-253.37,-188.83L-253.02,-193.88ZM-116.58,-196.77L-123.36,-205.54L-113.02,-356.75L-162.76,-350.93L-163.10,-345.88L-149.57,-341.50L-146.30,-332.05L-148.99,-292.59C-158.23,-295.75 -168.15,-298.97 -177.16,-302.12C-192.74,-296.73 -208.54,-291.58 -224.12,-286.19C-230.14,-272.31 -236.41,-258.22 -242.43,-244.33L-234.16,-203.42C-220.35,-196.26 -206.80,-188.88 -192.99,-181.71L-155.17,-202.18L-156.74,-179.23L-103.39,-187.34L-103.05,-192.39ZM-183.32,-201.80C-192.15,-210.93 -200.73,-220.28 -209.56,-229.41L-211.36,-267.11C-206.26,-274.37 -200.91,-281.84 -195.80,-289.10L-171.72,-290.68C-164.84,-286.75 -157.09,-282.07 -150.00,-277.90L-154.71,-208.83C-163.85,-206.69 -174.41,-203.95 -183.32,-201.80ZM81.32,-204.92L64.17,-186.73L50.85,-180.72L15.15,-181.32L7.80,-191.73L11.67,-248.41L49.52,-245.60L58.88,-237.58L62.55,-227.18L67.83,-226.82L71.04,-273.86L65.77,-274.22L60.72,-264.43L49.90,-258.02L49.89,-257.79L12.47,-260.12L15.95,-311.06L24.66,-320.37L59.65,-316.37L72.02,-308.38L84.93,-288.13L90.66,-287.74L88.50,-326.85L-34.73,-335.27L-35.07,-330.22L-25.02,-328.84L-18.16,-318.00L-26.94,-189.50L-35.21,-179.69L-45.36,-179.69L-45.70,-174.64L77.98,-166.19L87.05,-204.53ZM208.89,-172.46L202.11,-181.22L206.36,-243.41C201.47,-252.73 196.80,-262.04 191.89,-271.14C177.57,-274.19 163.69,-276.76 149.37,-279.81C135.62,-274.29 121.46,-269.50 107.50,-264.23L121.69,-228.91L126.73,-228.56C130.81,-240.96 134.64,-253.15 138.71,-265.55L165.69,-269.01C168.93,-262.34 171.93,-255.68 175.14,-248.77L173.40,-223.30C154.54,-220.44 131.23,-216.73 112.59,-213.85C107.89,-205.87 102.99,-198.14 98.31,-190.39C104.07,-180.32 109.40,-170.50 114.93,-160.44C127.86,-160.71 140.30,-160.55 153.24,-161.05L170.39,-179.24L168.86,-156.75L222.08,-163.03L222.42,-168.08ZM146.15,-171.91C141.55,-175.45 136.74,-179.24 132.14,-182.78L133.48,-202.51C145.63,-208.14 160.57,-214.26 173.17,-219.86L170.75,-184.52C163.10,-180.43 153.77,-175.54 146.15,-171.91ZM324.96,-268.50C317.24,-266.96 309.33,-265.88 301.62,-264.33C294.81,-255.81 287.93,-246.14 281.12,-237.61L283.43,-271.34L233.65,-264.83L233.30,-259.78L246.83,-255.40C248.01,-252.32 248.93,-249.03 250.11,-245.95L244.98,-170.92C242.22,-167.65 239.46,-164.38 236.70,-161.11L226.56,-161.11L226.21,-156.06L302.40,-150.86L302.74,-155.91C297.02,-156.53 291.30,-157.15 285.58,-157.77L276.42,-168.77L280.65,-230.73L308.99,-250.69C311.22,-249.62 313.45,-248.54 315.68,-247.47L325.24,-218.69L330.29,-218.34L344.14,-255.67C337.77,-260.25 331.33,-263.92 324.96,-268.50ZM426.81,-166.56C422.76,-164.77 418.51,-163.21 414.47,-161.41L397.95,-162.54C395.21,-166.42 392.73,-170.51 389.99,-174.38L395.20,-250.56L429.16,-248.24L429.79,-257.42L395.83,-259.74L397.86,-289.57L389.60,-290.14L377.42,-270.45C373.32,-267.74 369.43,-264.77 365.31,-261.83L349.93,-262.88L349.32,-253.93L361.25,-253.11L363.37,-246.98L358.23,-171.71C360.74,-164.62 363.47,-157.29 365.98,-150.20L400.44,-141.62C410.08,-147.88 420.65,-154.07 430.30,-160.33ZM568.05,-138.47L561.18,-149.31L566.42,-225.96C562.99,-233.11 559.31,-240.04 555.88,-247.19C546.13,-249.47 536.37,-251.75 526.61,-254.03L488.56,-233.58L494.14,-315.27L444.41,-309.45L444.06,-304.40L457.59,-300.02L460.87,-290.57L451.73,-156.79L443.45,-146.98L433.31,-146.99L432.96,-141.94L499.74,-137.37L500.08,-142.42L490.03,-143.80L483.17,-154.64L488.17,-227.84C499.95,-231.65 507.67,-233.20 519.45,-237.00C524.34,-230.91 529.47,-225.02 534.36,-218.92L529.75,-151.46L521.47,-141.65L511.33,-141.65L510.98,-136.61L577.75,-132.04L578.10,-137.09Z" fill="#ffffff" stroke="#000000"/>
    <path d="M-561.90,-283.02L-591.02,-295.98L-562.09,-301.28L-548.94,-329.94L-557.30,-357.73L-579.07,-371.27L-680.46,-379.07L-680.85,-374.08L-670.92,-372.63L-664.22,-361.85L-673.99,-234.82L-682.26,-225.19L-692.29,-225.28L-692.67,-220.29L-591.05,-212.47L-557.97,-227.27L-547.17,-251.99ZM-595.42,-360.43L-584.31,-344.75L-584.71,-315.80L-603.46,-300.36L-634.54,-302.75L-630.11,-360.36L-622.55,-366.63ZM-601.56,-221.27L-633.54,-223.72L-640.05,-231.07L-635.15,-294.81L-595.51,-285.14L-584.83,-266.75L-584.58,-240.27ZM-414.14,-210.50L-417.76,-219.91L-410.40,-315.63L-459.64,-310.29L-460.02,-305.30L-446.67,-300.85L-443.51,-291.48L-448.48,-226.84C-457.61,-223.89 -466.53,-220.69 -475.65,-217.74C-480.43,-223.82 -485.46,-229.68 -490.24,-235.75L-483.66,-321.27L-532.90,-315.93L-533.29,-310.93L-519.94,-306.49L-516.78,-297.12L-522.01,-229.07C-518.68,-221.97 -515.10,-215.07 -511.77,-207.97C-502.14,-205.63 -492.51,-203.30 -482.87,-200.96L-448.92,-221.16L-450.44,-198.46L-401.42,-203.82L-401.04,-208.81ZM-352.36,-334.44C-346.85,-334.93 -342.49,-335.28 -338.13,-335.63L-330.55,-348.05C-331.13,-352.43 -331.93,-356.83 -332.51,-361.21C-336.45,-363.34 -340.39,-365.47 -344.09,-367.80L-358.37,-366.16C-361.37,-362.74 -363.93,-359.06 -366.72,-355.40C-365.96,-350.55 -364.73,-345.66 -364.19,-340.83C-360.25,-338.70 -356.53,-336.59 -352.36,-334.44ZM-337.25,-198.66L-343.95,-209.44L-336.45,-306.98L-351.19,-308.11L-385.69,-301.64L-386.07,-296.65L-372.72,-292.20L-369.57,-282.83L-375.03,-211.83L-383.30,-202.20L-393.33,-202.29L-393.71,-197.30L-327.70,-192.22L-327.32,-197.21ZM-264.21,-193.04L-270.46,-203.79L-258.25,-362.57L-307.49,-357.23L-307.87,-352.24L-294.52,-347.79L-291.36,-338.42L-301.55,-205.95L-309.58,-196.53L-319.61,-196.62L-319.99,-191.63L-254.67,-186.60L-254.28,-191.59ZM-119.30,-193.31L-125.93,-202.03L-114.44,-351.51L-163.68,-346.17L-164.06,-341.18L-150.71,-336.73L-147.55,-327.36L-150.55,-288.35C-159.66,-291.56 -169.45,-294.82 -178.33,-298.01C-193.79,-292.81 -209.46,-287.86 -224.92,-282.66C-230.99,-268.98 -237.31,-255.09 -243.38,-241.41L-235.54,-200.88C-221.95,-193.67 -208.60,-186.26 -195.01,-179.05L-157.43,-198.98L-159.17,-176.29L-106.34,-183.87L-105.95,-188.86ZM-185.27,-198.84C-193.93,-207.95 -202.34,-217.26 -210.99,-226.37L-212.46,-263.68C-207.35,-270.81 -201.99,-278.16 -196.88,-285.29L-173.04,-286.66C-166.27,-282.71 -158.65,-278.02 -151.67,-273.83L-156.92,-205.56C-165.98,-203.51 -176.44,-200.90 -185.27,-198.84ZM76.51,-199.70L59.39,-181.85L46.16,-176.02L10.87,-176.91L3.68,-187.27L7.98,-243.30L45.39,-240.20L54.59,-232.19L58.13,-221.88L63.35,-221.47L66.93,-267.98L61.71,-268.38L56.63,-258.73L45.88,-252.48L45.87,-252.25L8.87,-254.87L12.75,-305.23L21.44,-314.37L56.02,-310.11L68.18,-302.10L80.78,-281.97L86.45,-281.53L84.63,-320.23L-37.17,-329.60L-37.56,-324.61L-27.63,-323.16L-20.93,-312.38L-30.70,-185.35L-38.97,-175.72L-49.00,-175.81L-49.38,-170.82L72.88,-161.42L82.18,-199.26ZM202.42,-166.52L195.78,-175.24L200.51,-236.71C195.75,-245.98 191.21,-255.22 186.43,-264.26C172.30,-267.40 158.58,-270.05 144.45,-273.19C130.80,-267.85 116.76,-263.23 102.90,-258.14L116.64,-223.08L121.63,-222.70C125.76,-234.93 129.65,-246.95 133.79,-259.18L160.50,-262.38C163.64,-255.75 166.56,-249.13 169.68,-242.28L167.74,-217.10C149.06,-214.43 125.97,-210.96 107.51,-208.27C102.80,-200.42 97.88,-192.81 93.19,-185.18C98.81,-175.17 103.99,-165.41 109.38,-155.42C122.17,-155.57 134.47,-155.31 147.28,-155.70L164.39,-173.55L162.69,-151.32L215.38,-157.08L215.76,-162.07ZM140.35,-166.50C135.83,-170.04 131.10,-173.82 126.58,-177.37L128.08,-196.87C140.14,-202.34 154.97,-208.27 167.48,-213.70L164.80,-178.76C157.19,-174.79 147.92,-170.02 140.35,-166.50ZM318.03,-260.53C310.38,-259.07 302.55,-258.07 294.91,-256.60C288.10,-248.23 281.21,-238.72 274.41,-230.34L276.97,-263.69L227.68,-257.67L227.29,-252.68L240.64,-248.23C241.78,-245.17 242.67,-241.91 243.80,-238.86L238.10,-164.68C235.34,-161.47 232.58,-158.26 229.83,-155.05L219.79,-155.14L219.41,-150.15L294.72,-144.36L295.10,-149.35C289.45,-150.01 283.80,-150.67 278.14,-151.34L269.17,-162.30L273.88,-223.54L302.08,-243.05C304.28,-241.97 306.48,-240.88 308.67,-239.80L317.89,-211.26L322.88,-210.87L336.89,-247.67C330.62,-252.26 324.29,-255.94 318.03,-260.53ZM417.90,-158.84C413.89,-157.10 409.67,-155.60 405.66,-153.85L389.32,-155.11C386.65,-158.97 384.23,-163.03 381.56,-166.89L387.35,-242.19L420.92,-239.61L421.62,-248.69L388.05,-251.27L390.31,-280.76L382.15,-281.38L369.94,-262.02C365.85,-259.36 361.98,-256.47 357.88,-253.59L342.68,-254.76L342.00,-245.91L353.80,-245.00L355.84,-238.91L350.12,-164.51C352.54,-157.48 355.18,-150.21 357.60,-143.17L391.61,-134.40C401.21,-140.51 411.71,-146.54 421.31,-152.65ZM557.37,-129.87L550.67,-140.65L556.50,-216.41C553.16,-223.51 549.59,-230.40 546.25,-237.51C536.62,-239.84 526.99,-242.18 517.36,-244.52L479.55,-224.61L485.76,-305.36L436.52,-300.02L436.13,-295.03L449.48,-290.58L452.64,-281.21L442.47,-148.97L434.20,-139.34L424.17,-139.42L423.78,-134.43L489.79,-129.36L490.18,-134.35L480.25,-135.80L473.55,-146.58L479.11,-218.94C490.80,-222.60 498.44,-224.07 510.13,-227.73C514.92,-221.66 519.94,-215.80 524.72,-209.73L519.59,-143.04L511.32,-133.41L501.29,-133.49L500.91,-128.50L566.91,-123.43L567.30,-128.42Z" fill="#ffffff" stroke="#000000"/>
    <path d="M-558.93,-282.40L-587.62,-295.47L-558.96,-300.47L-545.71,-328.70L-553.74,-356.26L-575.17,-369.83L-675.38,-378.40L-675.80,-373.46L-665.99,-371.95L-659.46,-361.23L-670.19,-235.69L-678.45,-226.23L-688.37,-226.40L-688.79,-221.47L-588.36,-212.88L-555.51,-227.24L-544.63,-251.60ZM-591.43,-359.25L-580.57,-343.65L-581.21,-315.02L-599.89,-299.91L-630.60,-302.53L-625.73,-359.47L-618.21,-365.61ZM-598.67,-221.67L-630.28,-224.37L-636.66,-231.69L-631.27,-294.69L-592.15,-284.79L-581.74,-266.51L-581.72,-240.32ZM-413.41,-209.45L-416.91,-218.78L-408.82,-313.38L-457.56,-308.52L-457.98,-303.58L-444.82,-299.07L-441.77,-289.78L-447.24,-225.89C-456.29,-223.05 -465.13,-219.96 -474.18,-217.12C-478.86,-223.17 -483.78,-229.01 -488.46,-235.06L-481.23,-319.57L-529.97,-314.71L-530.39,-309.77L-517.23,-305.26L-514.19,-295.97L-519.93,-228.71C-516.70,-221.66 -513.22,-214.82 -509.98,-207.76C-500.48,-205.37 -490.97,-202.98 -481.47,-200.58L-447.72,-220.28L-449.41,-197.84L-400.89,-202.73L-400.47,-207.66ZM-351.27,-331.50C-345.81,-331.93 -341.49,-332.24 -337.18,-332.55L-329.58,-344.77C-330.12,-349.11 -330.87,-353.46 -331.41,-357.80C-335.29,-359.94 -339.17,-362.08 -342.81,-364.42L-356.94,-362.92C-359.93,-359.56 -362.50,-355.94 -365.29,-352.34C-364.58,-347.54 -363.41,-342.70 -362.91,-337.91C-359.03,-335.77 -355.37,-333.65 -351.27,-331.50ZM-337.47,-197.08L-344.00,-207.80L-335.76,-304.20L-350.33,-305.45L-384.50,-299.34L-384.92,-294.40L-371.76,-289.89L-368.72,-280.60L-374.71,-210.43L-382.97,-200.97L-392.90,-201.14L-393.32,-196.21L-328.08,-190.64L-327.66,-195.57ZM-265.28,-190.91L-271.37,-201.59L-257.95,-358.52L-306.69,-353.66L-307.12,-348.72L-293.95,-344.21L-290.91,-334.92L-302.10,-204.00L-310.12,-194.74L-320.04,-194.92L-320.46,-189.98L-255.89,-184.46L-255.47,-189.40ZM-121.97,-189.95L-128.45,-198.64L-115.82,-346.37L-164.56,-341.51L-164.98,-336.57L-151.82,-332.06L-148.78,-322.77L-152.07,-284.21C-161.05,-287.46 -170.71,-290.77 -179.46,-294.00C-194.79,-288.99 -210.33,-284.22 -225.66,-279.21C-231.79,-265.73 -238.15,-252.05 -244.27,-238.57L-236.86,-198.42C-223.48,-191.18 -210.34,-183.73 -196.96,-176.49L-159.62,-195.88L-161.54,-173.46L-109.22,-180.51L-108.80,-185.44ZM-187.16,-195.98C-195.65,-205.06 -203.89,-214.34 -212.37,-223.42L-213.50,-260.33C-208.39,-267.34 -203.03,-274.56 -197.91,-281.58L-174.33,-282.72C-167.67,-278.77 -160.17,-274.06 -153.30,-269.86L-159.07,-202.38C-168.04,-200.44 -178.41,-197.94 -187.16,-195.98ZM71.74,-194.62L54.66,-177.11L41.53,-171.46L6.63,-172.64L-0.39,-182.95L4.34,-238.32L41.31,-234.94L50.34,-226.94L53.75,-216.71L58.91,-216.27L62.84,-262.23L57.68,-262.67L52.58,-253.17L41.90,-247.08L41.88,-246.86L5.32,-249.75L9.57,-299.52L18.24,-308.49L52.41,-303.99L64.37,-295.97L76.66,-275.95L82.26,-275.47L80.79,-313.76L-39.59,-324.05L-40.02,-319.12L-30.21,-317.60L-23.67,-306.88L-34.41,-181.34L-42.67,-171.88L-52.59,-172.05L-53.01,-167.12L67.83,-156.79L77.34,-194.14ZM195.98,-160.74L189.49,-169.43L194.69,-230.18C190.05,-239.38 185.64,-248.57 180.99,-257.55C167.04,-260.77 153.50,-263.51 139.55,-266.73C126.01,-261.57 112.08,-257.11 98.34,-252.19L111.62,-217.41L116.55,-216.99C120.75,-229.05 124.70,-240.91 128.89,-252.97L155.33,-255.90C158.38,-249.32 161.21,-242.75 164.24,-235.94L162.11,-211.06C143.61,-208.58 120.75,-205.34 102.47,-202.83C97.75,-195.11 92.82,-187.63 88.11,-180.13C93.58,-170.17 98.63,-160.48 103.87,-150.55C116.52,-150.60 128.69,-150.24 141.36,-150.51L158.44,-168.02L156.56,-146.05L208.72,-151.30L209.14,-156.23ZM134.60,-161.25C130.16,-164.79 125.51,-168.57 121.07,-172.11L122.72,-191.39C134.69,-196.69 149.41,-202.44 161.83,-207.70L158.88,-173.17C151.32,-169.30 142.12,-164.67 134.60,-161.25ZM311.11,-252.75C303.54,-251.36 295.78,-250.44 288.21,-249.06C281.41,-240.83 274.51,-231.49 267.71,-223.26L270.53,-256.22L221.73,-250.68L221.31,-245.74L234.47,-241.23C235.57,-238.20 236.42,-234.97 237.52,-231.94L231.25,-158.63C228.50,-155.48 225.74,-152.33 222.99,-149.18L213.07,-149.35L212.65,-144.41L287.08,-138.05L287.50,-142.98C281.91,-143.69 276.33,-144.39 270.74,-145.09L261.96,-156.01L267.14,-216.53L295.19,-235.59C297.35,-234.50 299.52,-233.41 301.68,-232.33L310.55,-204.02L315.49,-203.60L329.65,-239.87C323.50,-244.46 317.26,-248.16 311.11,-252.75ZM409.03,-151.34C405.04,-149.65 400.85,-148.20 396.87,-146.51L380.73,-147.89C378.12,-151.72 375.76,-155.76 373.15,-159.60L379.51,-234.03L412.69,-231.19L413.46,-240.16L380.28,-242.99L382.77,-272.14L374.70,-272.83L362.46,-253.78C358.40,-251.19 354.54,-248.36 350.46,-245.54L335.44,-246.83L334.69,-238.08L346.35,-237.09L348.32,-231.05L342.03,-157.52C344.37,-150.54 346.92,-143.32 349.26,-136.35L382.82,-127.38C392.36,-133.34 402.80,-139.22 412.34,-145.18ZM546.71,-121.50L540.17,-132.22L546.57,-207.10C543.34,-214.15 539.86,-221.00 536.62,-228.05C527.12,-230.44 517.61,-232.84 508.11,-235.23L470.54,-215.86L477.37,-295.67L428.62,-290.80L428.20,-285.87L441.37,-281.36L444.41,-272.06L433.24,-141.36L424.98,-131.91L415.06,-132.08L414.64,-127.15L479.87,-121.57L480.29,-126.50L470.49,-128.02L463.95,-138.74L470.07,-210.25C481.66,-213.78 489.23,-215.16 500.82,-218.69C505.50,-212.64 510.42,-206.80 515.10,-200.76L509.46,-134.85L501.20,-125.39L491.28,-125.56L490.86,-120.63L556.09,-115.06L556.52,-119.99Z" fill="#ffffff" stroke="#000000"/>
    <path d="M-889.36,490.56C-892.75,491.20 -896.17,491.89 -899.55,492.49C-902.70,491.05 -905.82,489.53 -908.93,488.05C-909.92,484.17 -910.91,480.33 -911.86,476.46L-906.12,467.03C-902.70,466.39 -899.36,465.55 -895.98,464.91C-892.82,466.43 -889.74,468.06 -886.63,469.58C-885.56,473.08 -884.42,476.65 -883.44,480.14C-885.41,483.68 -887.39,487.06 -889.36,490.56ZM-900.31,467.03L-905.17,469.96C-905.13,473.46 -905.06,476.99 -905.02,480.49C-903.58,483.45 -902.17,486.41 -900.73,489.38C-898.75,489.61 -896.81,489.87 -894.84,490.10L-890.12,487.10C-890.24,483.72 -890.39,480.30 -890.50,476.91L-895.03,467.79C-896.77,467.53 -898.56,467.30 -900.31,467.03ZM-866.53,472.35C-867.78,472.70 -869.07,472.96 -870.33,473.30C-871.35,474.79 -872.38,476.46 -873.40,477.94L-873.40,472.35L-881.54,473.99L-881.54,474.82L-879.26,475.39C-879.03,475.89 -878.84,476.42 -878.61,476.91L-878.61,489.34C-879.03,489.91 -879.45,490.48 -879.86,491.05L-881.54,491.16L-881.54,492L-868.92,492L-868.92,491.16C-869.87,491.13 -870.82,491.09 -871.77,491.05L-873.40,489.34L-873.40,479.08L-868.96,475.47C-868.58,475.62 -868.20,475.77 -867.82,475.93L-865.92,480.56L-865.08,480.56L-863.22,474.25C-864.32,473.57 -865.42,473.04 -866.53,472.35ZM-848.59,488.01C-849.24,488.35 -849.92,488.66 -850.57,489.00L-853.30,489.00C-853.80,488.39 -854.25,487.74 -854.75,487.14L-854.75,474.52L-849.12,474.52L-849.12,473L-854.75,473L-854.75,468.06L-856.11,468.06L-857.90,471.44C-858.55,471.94 -859.15,472.47 -859.80,473L-862.35,473L-862.35,474.48L-860.37,474.48L-859.95,475.47L-859.95,487.93C-859.46,489.07 -858.93,490.25 -858.43,491.39L-852.66,492.42C-851.14,491.28 -849.46,490.14 -847.94,489.00ZM-842.17,468.63C-841.26,468.48 -840.53,468.36 -839.81,468.25L-838.71,466.08C-838.86,465.36 -839.05,464.64 -839.20,463.92C-839.89,463.61 -840.57,463.31 -841.22,462.97L-843.57,463.42C-844.03,464.03 -844.41,464.68 -844.83,465.32C-844.64,466.12 -844.37,466.92 -844.22,467.72C-843.54,468.02 -842.89,468.33 -842.17,468.63ZM-837.91,491.05L-839.17,489.34L-839.17,473L-841.64,473L-847.30,474.52L-847.30,475.36L-845.02,475.93L-844.37,477.45L-844.37,489.34L-845.63,491.05L-847.30,491.16L-847.30,492L-836.24,492L-836.24,491.16ZM-816.25,476.53L-818.80,480.87L-819.37,480.87C-820.13,479.08 -820.93,476.72 -821.69,474.94C-823.09,474.60 -824.46,474.29 -825.87,473.95L-828.53,475.58C-828.68,477.75 -828.79,479.95 -828.94,482.12C-828.15,484.10 -827.31,486.07 -826.51,488.05C-824.99,488.58 -823.47,489.07 -821.95,489.61C-820.13,488.85 -818.27,488.12 -816.44,487.36L-815.95,487.78L-819.75,492C-822.18,492.15 -824.61,492.38 -827.04,492.53L-832.97,488.88C-833.62,486.03 -834.23,483.15 -834.87,480.30C-833.47,478.13 -832.10,475.93 -830.69,473.76C-828.11,473.27 -825.49,472.85 -822.90,472.35C-821.27,472.89 -819.67,473.34 -818.04,473.87C-817.43,474.75 -816.86,475.66 -816.25,476.53ZM-796.19,489.49L-797.40,488.12L-797.40,477.83C-798.32,476.34 -799.19,474.86 -800.10,473.42C-802.50,473.08 -804.81,472.81 -807.21,472.47C-809.41,473.53 -811.69,474.48 -813.93,475.51L-811.20,481.17L-810.36,481.17C-809.83,479.08 -809.34,477.03 -808.80,474.94L-804.40,474.06C-803.79,475.13 -803.22,476.19 -802.61,477.29L-802.61,481.51C-805.69,482.20 -809.49,483.07 -812.53,483.75C-813.21,485.12 -813.93,486.45 -814.62,487.78C-813.55,489.38 -812.57,490.94 -811.54,492.53C-809.41,492.34 -807.36,492.23 -805.23,492L-802.61,488.81L-802.61,492.53L-793.91,490.90L-793.91,490.06ZM-806.52,490.29C-807.32,489.76 -808.16,489.19 -808.96,488.66L-808.96,485.39C-807.02,484.32 -804.62,483.15 -802.61,482.08L-802.61,487.93C-803.83,488.69 -805.31,489.61 -806.52,490.29ZM-792.01,481.36L-792.01,483.64L-779.89,483.64L-779.89,481.36ZM-756.21,479.88L-761.23,478.09L-756.48,476.84L-754.65,471.90L-756.40,467.38L-760.20,465.40L-777.19,465.40L-777.19,466.24L-775.52,466.35L-774.26,468.06L-774.26,489.34L-775.52,491.05L-777.19,491.16L-777.19,492L-760.16,492L-754.84,489.11L-753.36,484.86ZM-762.79,467.41L-760.73,469.88L-760.43,474.71L-763.36,477.52L-768.56,477.52L-768.56,467.87L-767.38,466.73ZM-762.03,490.67L-767.38,490.67L-768.56,489.53L-768.56,478.85L-761.84,479.95L-759.82,482.88L-759.44,487.29ZM-734.13,490.52C-737.06,491.24 -739.95,491.77 -742.87,492.49C-744.96,491.32 -747.09,490.29 -749.18,489.11C-749.87,486.26 -750.59,483.41 -751.27,480.56L-747.28,474.29L-738.54,472.35L-731.51,475.85C-730.83,478.70 -730.14,481.55 -729.46,484.40ZM-742.23,474.48C-743.22,475.05 -744.17,475.66 -745.15,476.23C-745.31,478.55 -745.46,481.36 -745.61,483.60C-744.39,485.65 -743.14,487.71 -741.92,489.76L-738.54,489.99C-737.67,489.45 -736.76,488.88 -735.88,488.35L-735.12,481.09C-736.26,479.08 -737.93,476.72 -739.11,474.79C-740.14,474.67 -741.20,474.60 -742.23,474.48ZM-718.74,491.05L-719.92,489.34L-719.92,462.74L-728.05,464.26L-728.05,465.10L-725.77,465.67L-725.13,467.19L-725.13,489.38L-726.34,491.05L-728.02,491.16L-728.02,492L-717.07,492L-717.07,491.16ZM-694.61,489.15L-695.83,487.78L-695.83,462.74L-703.96,464.26L-703.96,465.10L-701.68,465.67L-701.04,467.19L-701.04,473.72C-702.59,473.30 -704.27,472.89 -705.79,472.47C-708.29,473.53 -710.84,474.56 -713.35,475.62C-714.18,477.98 -715.06,480.37 -715.89,482.73L-714.07,489.38C-711.71,490.40 -709.40,491.47 -707.04,492.49L-701.04,488.69L-701.04,492.49L-692.33,490.56L-692.33,489.72ZM-705.67,489.07C-707.23,487.67 -708.75,486.22 -710.31,484.82L-711.03,478.62C-710.27,477.37 -709.47,476.08 -708.71,474.82L-704.76,474.29C-703.58,474.86 -702.25,475.55 -701.04,476.15L-701.04,487.59C-702.52,488.05 -704.23,488.62 -705.67,489.07Z"/>
</svg>