<?xml version="1.0"?>
<svg xmlns="http://www.w3.org/2000/svg" width="1920" height="1080" viewBox="-960 -540 1920 1080">
    <path d="M-568.50,-210L-544.75,-210L-544.75,-282.50L-503.25,-282.50L-451.80,-296.20L-434.61,-337.99L-456.06,-380.67L-505,-390L-568.50,-390ZM-544.75,-303.84L-544.75,-370.25L-503.25,-370.25L-472.31,-363.26L-459.59,-337.24L-470.34,-312.22L-502.67,-303.84ZM-380.63,-234.73L-393.75,-269.23L-297.25,-269.25L-296,-278.25L-310.89,-325.87L-355.99,-345.22L-400.10,-326.61L-416.67,-275.10L-400.10,-223.59L-355.99,-204.97L-318.85,-215.94L-301.75,-242.75L-319.27,-253.69L-332.90,-231.44L-354.71,-224.11ZM-393,-287.25L-378.88,-317.01L-356.01,-326.13L-330.50,-315.28L-320.25,-287.25ZM-167,-390L-189.50,-390L-189.50,-326.48L-203.59,-339.37L-224.43,-344.57L-266.65,-325.00L-281.31,-274.45L-266.65,-223.89L-224.43,-204.32L-202.38,-210.38L-187,-227.75L-187,-210L-167,-210ZM-223.14,-325.45L-197.35,-312.57L-186.67,-274.45L-198.31,-236.33L-223.14,-223.46L-248.30,-236.33L-258.35,-274.45L-248.30,-312.57ZM-55.15,-297.19L-128.46,-274.70L-143.38,-243.62L-129.99,-214.10L-98.26,-204.86L-74.98,-209.38L-53.65,-225.04L-53.75,-210L-32.75,-210L-32.72,-293.86L-44.56,-332.03L-83.46,-345.13L-118.46,-336.58L-135.47,-311.21L-117.63,-300.24L-106.17,-320.00L-85.76,-326.75L-63.88,-320.35ZM-55.15,-277.30L-55.16,-244.38L-71.07,-230.45L-94.67,-223.21L-111.61,-227.60L-119.39,-244.62L-109.36,-262.29ZM50.73,-155.61L97.29,-175.15L108.50,-218.50L108.50,-340L88.50,-340L88.50,-322.50L73.77,-339.11L50.98,-345.61L8.77,-326.04L-5.88,-275.49L8.77,-224.94L50.98,-205.37L71.11,-210.17L86,-223.75L85.94,-214.21L77.98,-185.11L51.26,-175.00L30.44,-180.87L22.25,-198.50L4.25,-190.25L15.59,-166.33ZM52.26,-326.48L77.10,-313.59L88.74,-275.47L78.05,-237.35L52.26,-224.48L27.13,-237.35L17.09,-275.47L27.13,-313.59ZM194.49,-345.13L149.74,-326.51L132.53,-275.00L149.74,-223.49L194.49,-204.88L239.25,-223.50L256.47,-275.00L239.27,-326.51ZM194.49,-223.99L167.44,-235.91L155.50,-274.98L167.45,-314.06L194.49,-325.99L221.57,-314.06L233.53,-274.98L221.57,-235.91ZM329.23,-155.61L375.79,-175.15L387,-218.50L387,-340L367,-340L367,-322.50L352.27,-339.11L329.48,-345.61L287.27,-326.04L272.63,-275.49L287.27,-224.94L329.48,-205.37L349.61,-210.17L364.50,-223.75L364.44,-214.21L356.48,-185.11L329.76,-175.00L308.94,-180.87L300.75,-198.50L282.75,-190.25L294.09,-166.33ZM330.76,-326.48L355.60,-313.59L367.24,-275.47L356.55,-237.35L330.76,-224.48L305.63,-237.35L295.59,-275.47L305.63,-313.59ZM430,-177L422.75,-178.25L418.74,-159.98L432.99,-157.50L457.55,-168.22L472.31,-195.62L524,-334.50L504.75,-342L467.01,-238.75L428.50,-342L408.25,-334.50L456.53,-211.26L451.38,-197.14L441.74,-181.88Z" fill="#ffffff" stroke="#000000"/>
    <path d="M-578.78,-174.62L-555.30,-175.86L-559.09,-247.54L-518.06,-249.71L-467.91,-265.94L-453.10,-308.15L-476.54,-349.23L-525.41,-355.89L-588.19,-352.57ZM-560.20,-268.63L-563.67,-334.29L-522.65,-336.46L-491.69,-331.17L-477.76,-306.11L-487.08,-280.81L-518.60,-270.83ZM-394.34,-208.89L-409.11,-242.31L-313.71,-247.37L-312.95,-256.34L-330.15,-302.64L-375.75,-319.41L-418.39,-298.70L-432.08,-246.91L-413.01,-196.86L-368.42,-180.76L-332.28,-193.54L-316.78,-220.94L-334.67,-230.84L-346.98,-208.13L-368.16,-199.74ZM-409.31,-260.16L-396.91,-290.32L-374.78,-300.53L-348.99,-291.15L-337.39,-263.97ZM-191.25,-373.56L-213.50,-372.38L-210.18,-309.58L-224.79,-321.59L-245.66,-325.64L-286.37,-304.09L-298.23,-253.34L-281.09,-204.13L-238.33,-186.99L-216.85,-194.13L-202.55,-212.11L-201.62,-194.56L-181.85,-195.60ZM-243.38,-306.81L-217.22,-295.42L-204.66,-258.29L-214.18,-220.00L-238.05,-205.98L-263.60,-217.39L-275.52,-254.54L-267.58,-292.76ZM-75.83,-287.64L-147.13,-261.58L-160.25,-230.07L-145.47,-201.59L-113.62,-194.11L-90.85,-199.80L-70.58,-216.39L-69.89,-201.52L-49.13,-202.62L-53.48,-285.53L-67.18,-322.64L-106.32,-333.56L-140.48,-323.28L-155.97,-297.31L-137.76,-287.40L-127.46,-307.53L-107.63,-315.28L-85.66,-310.09ZM-74.79,-267.98L-73.08,-235.44L-88.08,-220.83L-111.03,-212.44L-128.01,-215.90L-136.59,-232.32L-127.59,-250.31ZM36.24,-153.21L81.26,-174.97L90.07,-218.40L83.72,-338.52L63.95,-337.48L64.86,-320.18L49.44,-335.82L26.56,-341.06L-14.14,-319.51L-25.98,-268.77L-8.86,-219.56L33.89,-202.41L53.54,-208.21L67.55,-222.42L67.99,-212.98L61.64,-183.80L35.75,-172.41L14.87,-177.12L5.85,-194.12L-11.52,-185.03L0.95,-161.97ZM28.83,-322.21L54.06,-310.77L67.56,-273.69L58.98,-235.45L34.16,-221.38L8.64,-232.79L-3.28,-269.95L4.66,-308.16ZM168.47,-348.08L125.19,-327.34L110.88,-275.52L130.59,-225.49L175.80,-209.43L219.08,-230.18L233.41,-282.00L213.71,-332.02ZM174.80,-228.33L147.43,-238.70L133.58,-276.70L143.35,-315.96L169.47,-329.16L196.86,-318.79L210.73,-280.78L200.95,-241.52ZM311.57,-167.77L356.59,-189.52L365.40,-232.96L359.05,-353.08L339.28,-352.03L340.20,-334.73L324.77,-350.38L301.89,-355.62L261.19,-334.07L249.35,-283.32L266.48,-234.11L309.22,-216.97L328.88,-222.77L342.88,-236.97L343.32,-227.54L336.98,-198.36L311.08,-186.97L290.20,-191.68L281.18,-208.68L263.82,-199.58L276.28,-176.52ZM304.16,-336.77L329.39,-325.33L342.89,-288.25L334.31,-250.01L309.49,-235.93L283.97,-247.34L272.05,-284.50L279.99,-322.72ZM410.08,-194.18L402.85,-195.03L399.84,-176.76L414.06,-175.05L437.78,-186.94L450.94,-214.79L494.78,-354.80L475.36,-361.21L443.45,-257.16L399.98,-357.22L380.35,-348.75L434.52,-229.43L430.16,-215.21L421.43,-199.61Z" fill="#ffffff" stroke="#000000"/>
    <path d="M-586.80,-138.83L-563.65,-141.29L-571.14,-211.94L-530.70,-216.23L-481.97,-234.90L-469.54,-277.39L-494.85,-316.77L-543.51,-320.81L-605.39,-314.25ZM-573.35,-232.73L-580.21,-297.45L-539.76,-301.74L-508.89,-298.13L-493.81,-274.08L-501.69,-248.59L-532.34,-237.08ZM-406.27,-182.34L-422.61,-214.61L-328.57,-224.60L-328.29,-233.50L-347.72,-278.37L-393.67,-292.56L-434.73,-269.87L-445.56,-217.96L-424.09,-169.47L-379.18,-155.89L-344.11,-170.42L-330.22,-198.31L-348.42,-207.15L-359.41,-184.07L-379.91,-174.67ZM-423.75,-232.25L-413.06,-262.70L-391.71,-273.95L-365.73,-266.02L-352.85,-239.76ZM-214.12,-355.73L-236.04,-353.40L-229.48,-291.50L-244.55,-302.60L-265.39,-305.52L-304.51,-282.09L-313.58,-231.31L-294.07,-183.56L-250.90,-168.85L-230.04,-177.03L-216.84,-195.54L-215.01,-178.25L-195.52,-180.31ZM-262.15,-287.03L-235.70,-277.14L-221.35,-241.09L-228.75,-202.74L-251.62,-187.63L-277.47,-197.57L-291.20,-233.68L-285.35,-271.87ZM-95.52,-276.83L-164.64,-247.34L-175.97,-215.52L-159.87,-188.13L-128.00,-182.40L-105.78,-189.22L-86.61,-206.68L-85.15,-192.01L-64.69,-194.18L-73.32,-275.91L-88.80,-311.88L-128.07,-320.63L-161.29,-308.68L-175.25,-282.20L-156.73,-273.36L-147.61,-293.79L-128.41,-302.49L-106.42,-298.51ZM-93.47,-257.45L-90.08,-225.38L-104.14,-210.15L-126.39,-200.66L-143.35,-203.19L-152.70,-218.97L-144.75,-237.22ZM22.28,-149.81L65.65,-173.66L72.09,-217.06L59.54,-335.47L40.04,-333.40L41.85,-316.35L25.78,-331.01L2.90,-334.99L-36.21,-311.56L-45.26,-260.78L-25.76,-213.03L17.39,-198.32L36.51,-205.08L49.62,-219.85L50.54,-210.55L45.80,-181.37L20.80,-168.76L-0.10,-172.32L-9.90,-188.66L-26.59,-178.76L-13.06,-156.62ZM6.12,-316.48L31.66,-306.49L46.95,-270.54L40.47,-232.29L16.66,-217.08L-9.16,-227.03L-22.88,-263.13L-17.04,-301.33ZM142.81,-349.34L101.12,-326.58L89.67,-274.61L111.77,-226.19L157.30,-212.67L199.00,-235.44L210.46,-287.41L188.37,-335.83ZM155.32,-231.30L127.73,-240.11L112.05,-276.96L119.66,-316.28L144.79,-330.70L172.41,-321.87L188.10,-285.02L180.48,-245.71ZM293.69,-178.58L337.06,-202.43L343.50,-245.83L330.94,-364.24L311.45,-362.17L313.26,-345.12L297.19,-359.78L274.31,-363.77L235.20,-340.33L226.15,-289.56L245.65,-241.80L288.80,-227.09L307.92,-233.85L321.03,-248.62L321.95,-239.32L317.20,-210.14L292.21,-197.53L271.31,-201.10L261.51,-217.43L244.82,-207.53L258.35,-185.39ZM277.53,-345.25L303.07,-335.26L318.36,-299.31L311.87,-261.06L288.07,-245.85L262.25,-255.80L248.53,-291.91L254.37,-330.10ZM389.69,-209.83L382.50,-210.30L380.47,-192.08L394.62,-191.14L417.44,-204.12L429.00,-232.35L465.02,-373.03L445.49,-378.35L419.38,-273.84L371.18,-370.48L352.22,-361.07L412.00,-245.96L408.44,-231.67L400.63,-215.80Z" fill="#ffffff" stroke="#000000"/>
    <path d="M-592.54,-102.77L-569.79,-106.41L-580.89,-175.85L-541.14,-182.20L-493.95,-203.20L-483.88,-245.85L-510.96,-283.46L-559.26,-284.90L-620.09,-275.19ZM-584.15,-196.29L-594.32,-259.90L-554.56,-266.25L-523.86,-264.30L-507.70,-241.32L-514.16,-215.71L-543.85,-202.73ZM-416.38,-155.21L-434.22,-186.25L-341.79,-201.04L-341.97,-209.85L-363.52,-253.19L-409.68,-264.82L-449.08,-240.24L-457.07,-188.36L-433.32,-141.56L-388.22,-130.48L-354.32,-146.67L-342.05,-174.96L-360.50,-182.76L-370.15,-159.37L-389.92,-149.01ZM-436.26,-203.62L-427.29,-234.29L-406.78,-246.52L-380.68,-240.04L-366.58,-214.76ZM-235.51,-336.63L-257.06,-333.19L-247.34,-272.34L-262.81,-282.53L-283.57,-284.32L-321.01,-259.12L-327.32,-208.45L-305.54,-162.27L-262.11,-149.99L-241.91,-159.17L-229.84,-178.16L-227.12,-161.16L-207.96,-164.22ZM-279.40,-266.21L-252.73,-257.82L-236.67,-222.94L-241.98,-184.65L-263.79,-168.52L-289.87,-177.00L-305.32,-211.97L-301.53,-250.02ZM-114.17,-264.84L-180.95,-232.08L-190.48,-200.03L-173.14,-173.80L-141.33,-169.81L-119.73,-177.71L-101.69,-195.97L-99.49,-181.55L-79.37,-184.76L-92.18,-265.09L-109.35,-299.84L-148.62,-306.43L-180.84,-292.89L-193.25,-265.99L-174.48,-258.21L-166.53,-278.88L-148.01,-288.48L-126.07,-285.70ZM-111.12,-245.79L-106.10,-214.27L-119.21,-198.48L-140.70,-187.94L-157.60,-189.55L-167.66,-204.66L-160.75,-223.12ZM8.91,-145.44L50.53,-171.29L54.62,-214.52L36.03,-330.90L16.87,-327.84L19.55,-311.08L2.90,-324.73L-19.92,-327.47L-57.36,-302.27L-63.65,-251.60L-41.88,-205.42L1.54,-193.14L20.09,-200.82L32.27,-216.11L33.67,-206.96L30.50,-177.87L6.45,-164.10L-14.39,-166.53L-24.93,-182.16L-40.91,-171.51L-26.38,-150.33ZM-15.77,-309.34L10.00,-300.80L26.98,-266.06L22.57,-227.92L-0.16,-211.64L-26.20,-220.13L-41.65,-255.10L-37.87,-293.15ZM117.62,-348.97L77.59,-324.29L69.00,-272.32L93.37,-225.61L139.08,-214.63L179.10,-239.32L187.71,-291.29L163.35,-337.99ZM136.15,-232.94L108.41,-240.21L91.00,-275.81L96.46,-315.08L120.54,-330.64L148.31,-323.36L165.74,-287.75L160.27,-248.50ZM275.67,-188.06L317.29,-213.91L321.39,-257.14L302.79,-373.52L283.64,-370.46L286.31,-353.70L269.66,-367.35L246.84,-370.09L209.41,-344.89L203.11,-294.22L224.88,-248.04L268.30,-235.76L286.85,-243.44L299.03,-258.73L300.43,-249.58L297.26,-220.49L273.21,-206.72L252.38,-209.15L241.83,-224.78L225.85,-214.13L240.38,-192.95ZM250.99,-351.96L276.76,-343.42L293.74,-308.68L289.33,-270.54L266.60,-254.26L240.56,-262.75L225.11,-297.72L228.89,-335.77ZM368.93,-223.97L361.79,-224.06L360.74,-205.94L374.78,-205.75L396.66,-219.78L406.60,-248.28L434.86,-389.22L415.27,-393.45L394.93,-288.79L342.24,-381.79L323.99,-371.50L389.09,-260.84L386.32,-246.53L379.42,-230.44Z" fill="#ffffff" stroke="#000000"/>
    <path d="M-596.01,-66.59L-573.72,-71.37L-588.31,-139.43L-549.36,-147.78L-503.82,-171.00L-496.10,-213.68L-524.82,-249.43L-572.64,-248.33L-632.24,-235.55ZM-592.61,-159.46L-605.97,-221.79L-567.02,-230.15L-536.57,-229.82L-519.40,-207.95L-524.45,-182.31L-553.11,-167.93ZM-424.65,-127.62L-443.90,-157.36L-353.33,-176.81L-353.96,-185.51L-377.52,-227.21L-423.75,-236.29L-461.41,-209.94L-466.60,-158.26L-440.68,-113.24L-395.52,-104.65L-362.87,-122.42L-352.22,-151.03L-370.86,-157.77L-379.18,-134.14L-398.18,-122.87ZM-446.83,-174.43L-439.56,-205.20L-419.93,-218.37L-393.80,-213.33L-378.54,-189.07ZM-255.37,-316.37L-276.49,-311.84L-263.70,-252.22L-279.53,-261.47L-300.14,-262.16L-335.82,-235.30L-339.41,-184.89L-315.47,-140.39L-271.91,-130.52L-252.43,-140.65L-241.48,-160.04L-237.91,-143.38L-219.14,-147.41ZM-295.07,-244.48L-268.28,-237.58L-250.58,-203.94L-253.83,-165.82L-274.54,-148.74L-300.75,-155.76L-317.85,-189.52L-316.10,-227.32ZM-131.70,-251.76L-195.98,-215.89L-203.73,-183.72L-185.22,-158.70L-153.58,-156.42L-132.64,-165.35L-115.77,-184.34L-112.84,-170.20L-93.12,-174.43L-109.97,-253.16L-128.77,-286.60L-167.92,-291.06L-199.06,-275.99L-209.92,-248.76L-190.96,-242.05L-184.18,-262.90L-166.38,-273.36L-144.55,-271.75ZM-127.69,-233.09L-121.08,-202.20L-133.21,-185.91L-153.90,-174.37L-170.69,-175.08L-181.42,-189.49L-175.56,-208.09ZM-3.82,-140.18L35.96,-167.90L37.75,-210.84L13.30,-324.89L-5.48,-320.86L-1.96,-304.44L-19.12,-317.06L-41.83,-318.58L-77.50,-291.72L-81.08,-241.31L-57.15,-196.81L-13.60,-186.94L4.33,-195.49L15.57,-211.24L17.43,-202.27L15.82,-173.36L-7.23,-158.49L-27.95,-159.81L-39.18,-174.71L-54.42,-163.34L-38.96,-143.17ZM-36.78,-300.87L-10.86,-293.78L7.74,-260.34L5.37,-222.41L-16.25,-205.14L-42.42,-212.16L-59.52,-245.92L-57.77,-283.72ZM92.98,-347.01L54.72,-320.53L48.94,-268.72L75.46,-223.83L121.21,-215.37L159.48,-241.86L165.27,-293.66L138.76,-338.55ZM117.36,-233.31L89.57,-239.05L70.50,-273.32L73.85,-312.41L96.83,-329.05L124.65,-323.30L143.74,-289.03L140.38,-249.94ZM257.60,-196.24L297.38,-223.96L299.17,-266.90L274.71,-380.95L255.94,-376.92L259.46,-360.50L242.29,-373.12L219.59,-374.64L183.91,-347.77L180.34,-297.37L204.26,-252.87L247.82,-243.00L265.75,-251.55L276.99,-267.30L278.85,-258.33L277.24,-229.42L254.19,-214.55L233.47,-215.87L222.23,-230.77L207.00,-219.40L222.46,-199.23ZM224.64,-356.93L250.55,-349.84L269.16,-316.40L266.79,-278.47L245.17,-261.19L218.99,-268.22L201.90,-301.97L203.65,-339.78ZM347.88,-236.60L340.83,-236.32L340.74,-218.36L354.62,-218.90L375.51,-233.91L383.85,-262.59L404.42,-403.36L384.84,-406.53L370.20,-302.02L313.26,-391.18L295.77,-380.06L365.89,-274.10L363.89,-259.81L357.92,-243.54Z" fill="#ffffff" stroke="#000000"/>
    <path d="M-597.22,-30.44L-575.44,-36.32L-593.41,-102.81L-555.35,-113.10L-511.57,-138.42L-506.17,-181.00L-536.42,-214.83L-583.61,-211.25L-641.85,-195.51ZM-598.70,-122.38L-615.17,-183.29L-577.11,-193.57L-547.00,-194.84L-528.89,-174.13L-532.54,-148.52L-560.11,-132.81ZM-431.06,-99.69L-451.64,-128.08L-363.15,-152.03L-364.24,-160.59L-389.70,-200.57L-435.86,-207.13L-471.69,-179.13L-474.12,-127.78L-446.15,-84.65L-401.08,-78.52L-369.74,-97.79L-360.71,-126.61L-379.49,-132.29L-386.47,-108.52L-404.66,-96.38ZM-455.42,-144.79L-449.85,-175.58L-431.14,-189.62L-405.06,-186.00L-388.71,-162.83ZM-273.64,-295.06L-294.28,-289.48L-278.53,-231.23L-294.65,-239.55L-315.05,-239.15L-348.91,-210.74L-349.82,-160.74L-323.84,-118.02L-280.28,-110.54L-261.55,-121.56L-251.75,-141.30L-247.35,-125.03L-229.01,-129.98ZM-309.12,-221.95L-282.28,-216.52L-263.03,-184.21L-264.26,-146.37L-283.83,-128.41L-310.10,-133.97L-328.76,-166.44L-329.00,-203.89ZM-148.05,-237.67L-209.71,-198.87L-215.68,-166.67L-196.09,-142.92L-164.70,-142.31L-144.47,-152.23L-128.79,-171.88L-125.15,-158.06L-105.90,-163.27L-126.66,-240.19L-146.98,-272.25L-185.90,-274.62L-215.88,-258.10L-225.19,-230.62L-206.11,-224.98L-200.50,-245.94L-183.46,-257.20L-161.80,-256.76ZM-143.12,-219.43L-134.97,-189.25L-146.11,-172.52L-165.95,-160.03L-182.58,-159.86L-193.94,-173.54L-189.11,-192.23ZM-15.86,-134.09L22.01,-163.56L21.53,-206.09L-8.59,-317.51L-26.93,-312.55L-22.59,-296.50L-40.22,-308.08L-62.73,-308.40L-96.59,-279.99L-97.49,-229.99L-71.52,-187.26L-27.96,-179.78L-10.69,-189.18L-0.40,-205.32L1.90,-196.56L1.82,-167.90L-20.18,-152.01L-40.72,-152.23L-52.60,-166.36L-67.07,-154.33L-50.73,-135.21ZM-56.82,-291.17L-30.84,-285.51L-10.71,-253.43L-11.07,-215.83L-31.53,-197.63L-57.76,-203.20L-76.42,-235.67L-76.67,-273.12ZM69.00,-343.53L32.57,-315.37L29.57,-263.86L58.12,-220.89L103.77,-214.92L140.20,-243.09L143.23,-294.59L114.68,-337.57ZM99.03,-232.45L71.27,-236.67L50.63,-269.54L51.90,-308.34L73.74,-325.98L101.53,-321.76L122.19,-288.89L120.91,-250.09ZM239.55,-203.14L277.41,-232.61L276.94,-275.14L246.81,-386.56L228.47,-381.61L232.81,-365.56L215.19,-377.13L192.67,-377.45L158.82,-349.04L157.92,-299.05L183.89,-256.32L227.44,-248.83L244.72,-258.23L255.00,-274.38L257.31,-265.61L257.23,-236.95L235.23,-221.06L214.68,-221.28L202.80,-235.41L188.34,-223.38L204.67,-204.26ZM198.59,-360.22L224.57,-354.56L244.69,-322.49L244.34,-284.88L223.88,-266.68L197.64,-272.26L178.98,-304.72L178.74,-342.17ZM326.66,-247.74L319.70,-247.09L320.55,-229.34L334.24,-230.60L354.10,-246.52L360.85,-275.31L373.82,-415.49L354.30,-417.59L345.30,-313.55L284.38,-398.69L267.67,-386.79L342.50,-285.74L341.27,-271.51L336.22,-255.13Z" fill="#ffffff" stroke="#000000"/>
    <path d="M-596.18,5.56L-574.96,-1.40L-596.20,-66.16L-559.13,-78.31L-517.19,-105.62L-514.07,-147.98L-545.74,-179.82L-592.18,-173.82L-648.90,-155.22ZM-602.45,-85.22L-621.90,-144.54L-584.83,-156.69L-555.15,-159.51L-536.17,-139.99L-538.44,-114.50L-564.86,-97.54ZM-435.62,-71.56L-457.44,-98.53L-371.25,-126.81L-372.77,-135.22L-400.02,-173.39L-445.97,-177.47L-479.91,-147.92L-479.63,-97.06L-449.74,-55.90L-404.89,-52.20L-374.93,-72.87L-367.51,-101.82L-386.36,-106.46L-392.02,-82.60L-409.35,-69.66ZM-462.05,-114.85L-458.15,-145.56L-440.39,-160.40L-414.43,-158.19L-397.06,-136.15ZM-290.28,-272.82L-310.37,-266.23L-291.77,-209.49L-308.13,-216.87L-328.27,-215.41L-360.25,-185.57L-358.53,-136.12L-330.63,-95.26L-287.19,-90.15L-269.27,-102.02L-260.62,-122.04L-255.42,-106.18L-237.56,-112.04ZM-321.51,-198.72L-294.71,-194.77L-274.00,-163.84L-273.23,-126.39L-291.64,-107.62L-317.89,-111.75L-338.02,-142.85L-340.22,-179.84ZM-163.18,-222.67L-222.08,-181.11L-226.30,-148.99L-205.70,-126.54L-174.65,-127.58L-155.19,-138.44L-140.72,-158.67L-136.40,-145.21L-117.64,-151.36L-142.18,-226.27L-163.93,-256.90L-202.51,-257.20L-231.27,-239.32L-239.04,-211.67L-219.89,-207.10L-215.44,-228.10L-199.19,-240.12L-177.77,-240.81ZM-157.36,-204.91L-147.73,-175.51L-157.86,-158.40L-176.81,-145.02L-193.23,-143.98L-205.17,-156.90L-201.38,-175.63ZM-27.15,-127.23L8.72,-158.32L6.03,-200.32L-29.55,-308.85L-47.42,-302.99L-42.29,-287.36L-60.31,-297.88L-82.57,-297.01L-114.54,-267.17L-112.82,-217.73L-84.93,-176.86L-41.50,-171.74L-24.92,-181.93L-15.60,-198.42L-12.87,-189.88L-11.45,-161.56L-32.36,-144.71L-52.67,-143.85L-65.15,-157.20L-78.81,-144.56L-61.67,-126.51ZM-75.83,-280.29L-49.87,-276.06L-28.30,-245.42L-26.69,-208.24L-45.96,-189.19L-72.17,-193.33L-92.30,-224.43L-94.50,-261.43ZM45.76,-338.61L11.23,-308.88L10.95,-257.83L41.41,-216.86L86.83,-213.34L121.36,-243.09L121.65,-294.13L91.20,-335.10ZM81.23,-230.42L53.58,-233.13L31.47,-264.54L30.69,-302.94L51.36,-321.52L79.04,-318.80L101.17,-287.39L101.93,-248.99ZM221.60,-208.80L257.48,-239.89L254.79,-281.89L219.20,-390.42L201.34,-384.56L206.47,-368.93L188.45,-379.45L166.18,-378.58L134.22,-348.74L135.94,-299.30L163.83,-258.43L207.26,-253.31L223.84,-263.50L233.16,-279.99L235.89,-271.45L237.31,-243.13L216.40,-226.28L196.09,-225.42L183.61,-238.77L169.95,-226.13L187.09,-208.08ZM172.93,-361.86L198.89,-357.63L220.46,-326.99L222.07,-289.81L202.80,-270.76L176.59,-274.90L156.46,-306.00L154.26,-343.00ZM305.35,-257.42L298.51,-256.41L300.28,-238.92L313.74,-240.88L332.53,-257.65L337.69,-286.44L343.18,-425.63L323.79,-426.69L320.33,-323.42L255.69,-404.36L239.80,-391.73L319.02,-295.79L318.55,-281.67L314.41,-265.21Z" fill="#ffffff" stroke="#000000"/>
    <path d="M-592.92,41.24L-572.32,33.26L-596.68,-29.61L-560.70,-43.55L-520.68,-72.72L-519.82,-114.73L-552.76,-144.54L-598.34,-136.19L-653.40,-114.85ZM-603.85,-48.11L-626.17,-105.70L-590.18,-119.65L-561.00,-123.98L-541.23,-105.69L-542.14,-80.39L-567.36,-62.25ZM-438.31,-43.33L-461.28,-68.84L-377.61,-101.28L-379.55,-109.51L-408.46,-145.80L-454.07,-147.42L-486.07,-116.46L-483.13,-66.23L-451.45,-27.13L-406.94,-25.81L-378.42,-47.80L-372.60,-76.79L-391.47,-80.39L-395.82,-56.52L-412.27,-42.83ZM-466.69,-84.72L-464.44,-115.27L-447.67,-130.86L-421.91,-130.03L-403.60,-109.16ZM-305.23,-249.76L-324.74,-242.20L-303.40,-187.12L-319.95,-193.56L-339.77,-191.06L-369.80,-159.91L-365.53,-111.14L-335.83,-72.23L-292.64,-69.45L-275.56,-82.11L-268.05,-102.34L-262.09,-86.95L-244.75,-93.67ZM-332.22,-174.92L-305.53,-172.42L-283.46,-142.94L-280.75,-105.98L-297.95,-86.48L-324.10,-89.18L-345.62,-118.86L-349.71,-155.30ZM-177.05,-206.86L-233.06,-162.72L-235.56,-130.76L-214.03,-109.66L-183.41,-112.31L-164.74,-124.05L-151.51,-144.79L-146.54,-131.72L-128.33,-138.78L-156.48,-211.51L-179.57,-240.63L-217.71,-238.92L-245.19,-219.75L-251.42,-192.03L-232.26,-188.51L-228.96,-209.49L-213.53,-222.21L-192.40,-224.02ZM-170.36,-189.61L-159.32,-161.07L-168.43,-143.63L-186.46,-129.43L-202.62,-127.54L-215.10,-139.69L-212.33,-158.38ZM-37.67,-119.67L-3.85,-152.26L-8.70,-193.61L-49.52,-298.97L-66.87,-292.25L-60.99,-277.08L-79.34,-286.53L-101.29,-284.51L-131.31,-253.36L-127.03,-204.60L-97.34,-165.68L-54.16,-162.90L-38.32,-173.82L-29.97,-190.60L-26.82,-182.31L-23.94,-154.40L-43.72,-136.66L-63.74,-134.75L-76.77,-147.29L-89.61,-134.08L-71.73,-117.15ZM-93.75,-268.35L-67.88,-265.52L-44.97,-236.38L-41.44,-199.73L-59.48,-179.90L-85.59,-182.62L-107.11,-212.30L-111.21,-248.73ZM23.33,-332.31L-9.23,-301.13L-6.84,-250.69L25.39,-211.80L70.45,-210.70L103.01,-241.88L100.64,-292.33L68.41,-331.22ZM64.03,-227.27L36.56,-228.51L13.08,-258.38L10.31,-296.29L29.76,-315.72L57.25,-314.48L80.75,-284.60L83.51,-246.70ZM203.84,-213.25L237.66,-245.84L232.81,-287.19L191.99,-392.55L174.64,-385.83L180.52,-370.66L162.17,-380.11L140.22,-378.09L110.20,-346.94L114.48,-298.18L144.17,-259.27L187.34,-256.48L203.19,-267.40L211.54,-284.19L214.69,-275.89L217.57,-247.99L197.79,-230.24L177.77,-228.33L164.74,-240.87L151.90,-227.67L169.78,-210.73ZM147.76,-361.93L173.63,-359.11L196.54,-329.96L200.07,-293.31L182.03,-273.48L155.91,-276.20L134.40,-305.88L130.30,-342.31ZM284.05,-265.65L277.34,-264.30L280.00,-247.11L293.19,-249.75L310.88,-267.30L314.48,-296.02L312.64,-433.82L293.42,-433.86L295.39,-331.64L227.30,-408.23L212.26,-394.93L295.54,-304.28L295.81,-290.30L292.59,-273.83Z" fill="#ffffff" stroke="#000000"/>
    <path d="M-587.47,76.48L-567.54,67.52L-594.89,6.69L-560.07,-8.97L-522.07,-39.87L-523.41,-81.42L-557.51,-109.14L-602.09,-98.51L-655.37,-74.56ZM-602.94,-11.22L-627.99,-66.94L-593.17,-82.60L-564.57,-88.41L-544.09,-71.37L-543.67,-46.32L-567.63,-27.09ZM-439.16,-15.13L-463.18,-39.14L-382.22,-75.56L-384.56,-83.58L-415.02,-117.92L-460.16,-117.14L-490.15,-84.89L-484.63,-35.41L-451.29,1.56L-407.26,0.54L-380.23,-22.68L-376.00,-51.62L-394.82,-54.19L-397.87,-30.38L-413.41,-16.00ZM-469.35,-54.54L-468.73,-84.84L-452.98,-101.12L-427.48,-101.64L-408.31,-81.98ZM-318.47,-226.01L-337.35,-217.52L-313.39,-164.22L-330.08,-169.72L-349.53,-166.22L-377.57,-133.88L-370.80,-85.93L-339.43,-49.04L-296.62,-48.54L-280.40,-61.95L-274.05,-82.32L-267.35,-67.43L-250.57,-74.97ZM-341.23,-150.67L-314.73,-149.59L-291.39,-121.63L-286.78,-85.26L-302.75,-65.09L-328.72,-66.40L-351.53,-94.59L-357.48,-130.37ZM-189.60,-190.32L-242.64,-143.80L-243.43,-112.09L-221.06,-92.37L-190.95,-96.59L-173.13,-109.16L-161.13,-130.35L-155.54,-117.69L-137.92,-125.61L-169.53,-195.99L-193.86,-223.55L-231.45,-219.87L-257.59,-199.50L-262.30,-171.79L-243.18,-169.32L-241.02,-190.21L-226.44,-203.59L-205.67,-206.47ZM-182.10,-173.63L-169.70,-146.01L-177.79,-128.32L-194.86,-113.34L-210.73,-110.63L-223.68,-121.98L-221.93,-140.59ZM-47.36,-111.47L-15.66,-145.43L-22.60,-186.03L-68.44,-287.98L-85.22,-280.44L-78.62,-265.75L-97.24,-274.13L-118.82,-270.99L-146.85,-238.65L-140.07,-190.70L-108.71,-153.81L-65.92,-153.31L-50.83,-164.93L-43.46,-181.95L-39.92,-173.92L-35.62,-146.50L-54.23,-127.94L-73.91,-125.01L-87.43,-136.71L-99.42,-123.00L-80.88,-107.20ZM-110.53,-255.42L-84.82,-253.98L-60.67,-226.38L-55.27,-190.36L-72.06,-169.83L-97.99,-171.15L-120.80,-199.35L-126.75,-235.13ZM1.79,-324.72L-28.75,-292.22L-23.75,-242.51L10.12,-205.78L54.69,-207.04L85.23,-239.55L80.25,-289.26L46.38,-325.99ZM47.48,-223.08L20.28,-222.87L-4.47,-251.15L-9.19,-288.45L9.01,-308.66L36.23,-308.87L61.00,-280.59L65.71,-243.29ZM186.33,-216.52L218.04,-250.49L211.09,-291.09L165.26,-393.04L148.47,-385.49L155.07,-370.81L136.45,-379.19L114.87,-376.05L86.84,-343.71L93.62,-295.76L124.98,-258.87L167.78,-258.37L182.86,-269.99L190.23,-287.00L193.77,-278.97L198.07,-251.56L179.46,-232.99L159.78,-230.06L146.26,-241.77L134.27,-228.05L152.81,-212.26ZM123.16,-360.47L148.87,-359.03L173.02,-331.43L178.42,-295.42L161.64,-274.89L135.70,-276.21L112.89,-304.41L106.94,-340.18ZM262.82,-272.48L256.27,-270.80L259.79,-253.95L272.69,-257.25L289.25,-275.51L291.30,-304.06L282.29,-440.10L263.31,-439.13L270.59,-338.26L199.32,-410.37L185.16,-396.44L272.16,-311.24L273.16,-297.45L270.84,-281.00Z" fill="#ffffff" stroke="#000000"/>
    <path d="M-579.89,111.15L-560.67,101.26L-590.86,42.59L-557.28,25.31L-521.36,-7.20L-524.85,-48.16L-559.98,-73.77L-603.46,-60.94L-654.84,-34.50ZM-599.75,25.33L-627.40,-28.41L-593.82,-45.69L-565.88,-52.92L-544.76,-37.16L-543.03,-12.44L-565.70,7.81ZM-438.18,12.91L-463.16,-9.55L-385.08,-49.75L-387.82,-57.55L-419.70,-89.88L-464.25,-86.76L-492.19,-53.33L-484.15,-4.75L-449.29,30.03L-405.85,26.72L-380.36,2.38L-377.69,-26.43L-396.42,-27.99L-398.19,-4.31L-412.78,10.70ZM-470.06,-24.44L-471.02,-54.40L-456.31,-71.30L-431.16,-73.15L-411.19,-54.73ZM-329.98,-201.69L-348.18,-192.32L-321.73,-140.92L-338.50,-145.48L-357.53,-141.01L-383.54,-107.60L-374.35,-60.59L-341.44,-25.79L-299.13,-27.54L-283.81,-41.62L-278.60,-62.08L-271.21,-47.72L-255.02,-56.04ZM-348.52,-126.09L-322.30,-126.40L-297.78,-100.00L-291.32,-64.31L-306.05,-43.56L-331.77,-43.50L-355.77,-70.15L-363.52,-105.18ZM-200.82,-173.17L-250.78,-124.44L-249.91,-93.08L-226.78,-74.77L-197.26,-80.51L-180.31,-93.86L-169.57,-115.41L-163.39,-103.20L-146.40,-111.95L-181.29,-179.82L-206.76,-205.77L-243.70,-200.17L-268.46,-178.68L-271.66,-151.07L-252.65,-149.62L-251.61,-170.37L-237.90,-184.35L-217.53,-188.28ZM-192.54,-157.07L-178.85,-130.44L-185.92,-112.54L-201.99,-96.85L-217.53,-93.35L-230.92,-103.88L-230.16,-122.36ZM-56.21,-102.70L-26.66,-137.90L-35.65,-177.64L-86.24,-275.95L-102.42,-267.63L-95.14,-253.47L-113.97,-260.77L-135.12,-256.54L-161.12,-223.13L-151.92,-176.13L-119.02,-141.33L-76.72,-143.07L-62.43,-155.33L-56.04,-172.52L-52.12,-164.78L-46.44,-137.92L-63.85,-118.61L-83.14,-114.69L-97.10,-125.55L-108.23,-111.37L-89.10,-96.74ZM-126.12,-241.59L-100.65,-241.51L-75.35,-215.51L-68.13,-180.22L-83.65,-159.06L-109.34,-159.02L-133.33,-185.67L-141.08,-220.70ZM-18.79,-315.91L-47.26,-282.21L-39.73,-233.37L-4.35,-198.86L39.61,-202.43L68.07,-236.14L60.56,-284.98L25.19,-319.49ZM31.65,-217.90L4.79,-216.27L-21.14,-242.92L-27.74,-279.51L-10.83,-300.43L16.05,-302.05L42.00,-275.41L48.59,-238.81ZM169.14,-218.67L198.68,-253.88L189.70,-293.62L139.10,-391.93L122.92,-383.60L130.21,-369.44L111.38,-376.74L90.23,-372.51L64.23,-339.10L73.42,-292.10L106.33,-257.30L148.63,-259.04L162.92,-271.30L169.31,-288.49L173.23,-280.75L178.91,-253.89L161.49,-234.58L142.21,-230.66L128.24,-241.52L117.11,-227.35L136.25,-212.71ZM99.23,-357.56L124.69,-357.48L149.99,-331.48L157.21,-296.19L141.70,-275.03L116.01,-274.99L92.01,-301.65L84.26,-336.68ZM241.77,-277.94L235.39,-275.93L239.75,-259.48L252.32,-263.41L267.72,-282.31L268.25,-310.62L252.25,-444.52L233.55,-442.58L246.01,-343.32L171.85,-410.82L158.59,-396.32L248.97,-316.71L250.68,-303.14L249.24,-286.78Z" fill="#ffffff" stroke="#000000"/>
    <path d="M-570.22,145.10L-551.76,134.33L-584.64,77.97L-552.37,59.15L-518.59,25.16L-524.18,-15.12L-560.21,-38.57L-602.49,-23.63L-651.85,5.17ZM-594.31,61.38L-624.43,9.75L-592.17,-9.07L-564.95,-17.67L-543.26,-3.21L-540.27,21.11L-561.60,42.30ZM-435.39,40.68L-461.23,19.80L-386.22,-23.98L-389.33,-31.54L-422.50,-61.81L-466.34,-56.40L-492.19,-21.92L-481.71,25.64L-445.47,58.16L-402.74,52.63L-378.84,27.26L-377.70,-1.33L-396.28,-1.89L-396.79,21.58L-410.42,37.17ZM-468.82,5.45L-471.34,-24.08L-457.70,-41.54L-432.95,-44.68L-412.27,-27.54ZM-339.73,-176.91L-357.22,-166.71L-328.41,-117.33L-345.21,-120.96L-363.77,-115.55L-387.72,-81.19L-376.19,-35.24L-341.87,-2.59L-300.17,-6.53L-285.78,-21.24L-281.70,-41.71L-273.65,-27.91L-258.10,-36.98ZM-354.10,-101.28L-328.21,-102.96L-302.62,-78.16L-294.38,-43.26L-307.84,-21.99L-333.24,-20.58L-358.34,-45.66L-367.82,-79.85ZM-210.68,-155.49L-257.48,-104.76L-254.98,-73.83L-231.18,-56.95L-202.33,-64.16L-186.29,-78.23L-176.80,-100.08L-170.06,-88.34L-153.73,-97.87L-191.74,-163.08L-218.25,-187.38L-254.44,-179.91L-277.77,-157.40L-279.49,-129.96L-260.64,-129.53L-260.70,-150.08L-247.89,-164.59L-227.98,-169.54ZM-201.66,-140.02L-186.75,-114.43L-192.80,-96.38L-207.86,-80.06L-223.02,-75.79L-236.79,-85.49L-237.00,-103.77ZM-64.18,-93.44L-36.84,-129.75L-47.78,-168.53L-102.88,-262.99L-118.43,-253.92L-110.49,-240.31L-129.48,-246.54L-150.14,-241.26L-174.08,-206.91L-162.54,-160.97L-128.23,-128.31L-86.54,-132.24L-73.07,-145.10L-67.65,-162.41L-63.38,-154.96L-56.37,-128.74L-72.56,-108.76L-91.40,-103.88L-105.76,-113.87L-116.01,-99.29L-96.35,-85.84ZM-140.47,-226.97L-115.32,-228.22L-88.98,-203.86L-80.00,-169.38L-94.22,-147.68L-119.59,-146.29L-144.68,-171.36L-154.16,-205.56ZM-38.36,-305.97L-64.71,-271.20L-54.72,-223.36L-17.98,-191.12L25.24,-196.94L51.60,-231.72L41.63,-279.56L4.89,-311.80ZM16.58,-211.80L-9.86,-208.79L-36.86,-233.75L-45.30,-269.55L-29.68,-291.09L-3.22,-294.10L23.80,-269.14L32.22,-233.34ZM152.33,-219.75L179.67,-256.06L168.72,-294.83L113.62,-389.29L98.07,-380.22L106.01,-366.61L87.03,-372.84L66.36,-367.56L42.42,-333.21L53.96,-287.27L88.28,-254.61L129.96,-258.54L143.43,-271.40L148.85,-288.71L153.12,-281.27L160.14,-255.04L143.95,-235.06L125.10,-230.18L110.74,-240.17L100.49,-225.59L120.16,-212.14ZM76.03,-353.27L101.19,-354.52L127.53,-330.16L136.50,-295.68L122.28,-273.98L96.91,-272.59L71.82,-297.67L62.34,-331.86ZM220.97,-282.07L214.77,-279.76L219.93,-263.73L232.14,-268.27L246.36,-287.74L245.42,-315.73L222.62,-447.14L204.25,-444.24L221.74,-346.87L144.97,-409.66L132.63,-394.65L226.06,-320.74L228.45,-307.42L227.88,-291.19Z" fill="#ffffff" stroke="#000000"/>
    <path d="M-906.35,492L-906.35,469.28L-898.22,492L-894.99,492L-886.86,469.28L-886.86,492L-883.25,492L-883.25,464.64L-888.22,464.64L-896.55,487.33L-904.68,464.64L-909.96,464.64L-909.96,492ZM-865.67,478.75L-876.82,482.17L-879.09,486.89L-877.05,491.38L-872.23,492.78L-868.69,492.09L-865.45,489.71L-865.46,492L-862.27,492L-862.27,479.25L-864.06,473.45L-869.98,471.46L-875.30,472.76L-877.88,476.62L-875.17,478.28L-873.43,475.28L-870.33,474.25L-867.00,475.23ZM-865.67,481.77L-865.68,486.77L-868.09,488.89L-871.68,489.99L-874.26,489.33L-875.44,486.74L-873.91,484.05ZM-857.12,492L-853.70,492L-853.70,481.25L-852.22,476.17L-848.35,474.41L-845.15,475.90L-844.22,479.88L-844.22,492L-840.80,492L-840.80,479.88L-842.09,473.85L-847.66,471.47L-851.35,472.28L-854.04,475.09L-854.04,472.24L-857.12,472.24ZM-833.34,468.94L-832.11,467.58L-832.10,465.65L-833.36,464.27L-835.12,464.27L-836.35,465.65L-836.35,467.58L-835.10,468.94ZM-832.52,492L-832.52,472.24L-835.94,472.24L-835.94,492ZM-818.31,468.12L-817.85,465.29L-820.94,464.71L-825.30,466.41L-826.70,471.29L-826.70,472.24L-829.67,472.24L-829.67,474.86L-826.70,474.86L-826.70,492L-823.40,492L-823.40,474.86L-819.56,474.86L-819.56,472.24L-823.40,472.24L-823.40,471.21L-822.75,468.65L-820.52,467.74ZM-807.97,471.46L-814.77,474.29L-817.39,482.12L-814.77,489.95L-807.97,492.78L-801.17,489.95L-798.55,482.12L-801.16,474.29ZM-807.97,489.87L-812.08,488.06L-813.90,482.12L-812.08,476.18L-807.97,474.37L-803.85,476.18L-802.04,482.12L-803.85,488.06ZM-795.03,492L-791.61,492L-791.61,481.25L-790.13,476.17L-786.26,474.41L-783.06,475.90L-782.13,479.88L-782.13,492L-778.71,492L-778.71,479.88L-780.00,473.85L-785.56,471.47L-789.26,472.28L-791.95,475.09L-791.95,472.24L-795.03,472.24ZM-765.45,492.27L-765.45,492.26L-765.85,489.32L-767.38,489.55L-769.03,488.71L-769.32,486.22L-769.32,474.86L-765.94,474.86L-765.94,472.24L-769.32,472.24L-769.32,465.40L-772.74,465.40L-772.74,472.24L-775.55,472.24L-775.55,474.86L-772.74,474.86L-772.74,486.22L-771.96,491.00L-768.07,492.63ZM-737.50,487.93L-737.50,478.13L-749.05,478.13L-749.05,481.31L-740.99,481.31L-740.97,486.22L-748.63,489.75L-755.95,486.41L-758.55,478.32L-756.06,470.17L-749.21,466.88L-744.27,468.25L-741.30,473.01L-738.24,471.11L-741.44,465.93L-749.13,463.79L-758.98,468.04L-762.42,478.32L-758.78,488.60L-748.74,492.86ZM-724.35,474.77L-721.78,475.62L-720.76,472.73L-724.11,471.47L-727.37,472.48L-729.65,475.66L-729.65,472.24L-732.73,472.24L-732.73,491.81L-729.31,492L-729.31,481.32L-728.06,476.56ZM-710.01,471.46L-716.81,474.29L-719.42,482.12L-716.81,489.95L-710.01,492.78L-703.20,489.95L-700.58,482.12L-703.20,474.29ZM-710.01,489.87L-714.12,488.06L-715.93,482.12L-714.12,476.18L-710.01,474.37L-705.89,476.18L-704.07,482.12L-705.89,488.06ZM-688.58,492.27L-688.58,492.26L-688.97,489.32L-690.51,489.55L-692.15,488.71L-692.45,486.22L-692.45,474.86L-689.07,474.86L-689.07,472.24L-692.45,472.24L-692.45,465.40L-695.87,465.40L-695.87,472.24L-698.68,472.24L-698.68,474.86L-695.87,474.86L-695.87,486.22L-695.09,491.00L-691.19,492.63ZM-680.57,488.24L-682.57,483.00L-667.90,482.99L-667.71,481.63L-669.97,474.39L-676.83,471.45L-683.53,474.28L-686.05,482.11L-683.53,489.93L-676.83,492.76L-671.18,491.10L-668.58,487.02L-671.25,485.36L-673.32,488.74L-676.63,489.86ZM-682.45,480.26L-680.31,475.73L-676.83,474.35L-672.95,476.00L-671.40,480.26ZM-661.99,485.88L-664.90,487.24L-662.96,491.11L-657.11,492.78L-651.52,491.39L-648.97,486.66L-650.50,482.61L-653.83,480.90L-658.44,479.65L-661.00,478.62L-661.84,477.05L-660.74,475.10L-657.52,474.38L-654.42,475.23L-653.09,477.74L-650.21,476.38L-651.88,473.07L-657.39,471.46L-662.84,472.86L-665.18,477.43L-663.66,481.06L-660.23,482.69L-655.36,483.98L-653.07,485.13L-652.46,486.96L-653.99,489.26L-656.99,489.87L-660.63,488.67ZM-641.92,483.45L-638.72,483.45L-637.20,484.67L-633.14,492.30L-630.05,490.63L-634.16,483.45L-636.67,482.04L-634.62,480.06L-632.77,476.14L-631.66,475.64L-630.10,475.39L-630.56,472.24L-633.40,472.52L-635.30,474.17L-637.43,478.82L-638.72,480.60L-641.91,480.60L-641.91,464.64L-643.66,464.64L-645.32,464.64L-645.33,492L-641.92,492ZM-625.58,492.01L-615.04,492.01L-607.42,490.45L-604.53,484.21L-606.06,480.03L-610.31,477.70L-606.80,475.27L-605.82,471.62L-608.58,466.13L-615.58,464.63L-625.58,464.63ZM-621.94,476.42L-621.95,467.89L-616.40,467.89L-611.64,468.44L-609.62,472.08L-611.57,475.51L-615.93,476.42ZM-621.94,488.79L-621.94,479.64L-615.54,479.64L-610.64,480.53L-608.45,484.21L-610.32,488.02L-615.04,488.79ZM-592.40,471.46L-599.20,474.29L-601.81,482.12L-599.20,489.95L-592.40,492.78L-585.59,489.95L-582.97,482.12L-585.59,474.29ZM-592.40,489.87L-596.51,488.06L-598.32,482.12L-596.51,476.18L-592.40,474.37L-588.28,476.18L-586.46,482.12L-588.28,488.06ZM-571.27,471.46L-578.07,474.29L-580.68,482.12L-578.07,489.95L-571.27,492.78L-564.46,489.95L-561.85,482.12L-564.46,474.29ZM-571.27,489.87L-575.38,488.06L-577.19,482.12L-575.38,476.18L-571.27,474.37L-567.15,476.18L-565.33,482.12L-567.15,488.06ZM-554.82,483.45L-551.62,483.45L-550.10,484.67L-546.04,492.30L-542.96,490.63L-547.06,483.45L-549.57,482.04L-547.52,480.06L-545.67,476.14L-544.56,475.64L-543.00,475.39L-543.46,472.24L-546.31,472.52L-548.20,474.17L-550.34,478.82L-551.62,480.60L-554.82,480.60L-554.82,464.64L-556.56,464.64L-558.23,464.64L-558.23,492L-554.82,492Z"/>
</svg>