<?xml version="1.0"?>
<svg xmlns="http://www.w3.org/2000/svg" width="1920" height="1080" viewBox="-960 -540 1920 1080">
    <path d="M-804.13,-210L-729.38,-210C-690.13,-210 -669.13,-226.75 -669.13,-255.25C-669.13,-274.50 -681.88,-290 -704.88,-293.25L-704.88,-293.50C-684.13,-297 -673.38,-312.25 -673.38,-330C-673.38,-358.50 -691.88,-375 -731.88,-375L-804.13,-375ZM-770.63,-305.75L-770.63,-348.25L-736.38,-348.25C-718.13,-348.25 -709.13,-341.25 -709.13,-327C-709.13,-312.75 -718.13,-305.75 -736.38,-305.75ZM-770.63,-236L-770.63,-279.25L-732.38,-279.25C-713.88,-279.25 -704.88,-271.50 -704.88,-257.75C-704.88,-244 -713.88,-236 -732.38,-236ZM-525.38,-231C-531.38,-231 -534.38,-234 -534.38,-240.50L-534.38,-291.25C-534.38,-322 -556.38,-337.50 -589.13,-337.50C-621.63,-337.50 -640.63,-323 -646.38,-301L-617.13,-292C-612.88,-306.75 -602.88,-312.50 -590.63,-312.50C-577.38,-312.50 -568.38,-304 -568.38,-289.75L-568.38,-285L-611.38,-276.25C-633.88,-271.75 -646.13,-259.75 -646.13,-241.25C-646.13,-219.25 -630.38,-207.50 -604.88,-207.50C-589.13,-207.50 -573.13,-214 -565.13,-225.50C-561.38,-213.75 -549.88,-208 -535.63,-207.75C-528.88,-207.75 -523.38,-209 -519.38,-211L-517.38,-232.25C-519.63,-231.50 -522.63,-231 -525.38,-231ZM-596.13,-231.75C-604.88,-231.75 -611.88,-236.25 -611.88,-244.50C-611.88,-253.25 -606.13,-256.25 -594.63,-258.50L-568.38,-263.75L-568.38,-256C-568.38,-237.75 -581.88,-231.75 -596.13,-231.75ZM-452.63,-207.50C-432.38,-207.50 -417.63,-215.25 -409.38,-231.75L-408.13,-210L-377.63,-210L-377.63,-335L-411.88,-335L-411.88,-267.75C-411.88,-244.50 -425.13,-234.50 -439.38,-234.50C-454.38,-234.50 -462.63,-240.75 -462.63,-260.25L-462.63,-335L-496.88,-335L-496.88,-252C-496.88,-220.25 -477.63,-207.50 -452.63,-207.50ZM-338.13,-210L-210.88,-210L-210.88,-237.75L-303.63,-237.75L-303.63,-279.75L-233.38,-279.75L-233.38,-306.25L-303.63,-306.25L-303.63,-347.25L-214.38,-347.25L-214.38,-375L-338.13,-375ZM-183.38,-210L-149.13,-210L-149.13,-274.75C-149.13,-297.25 -133.88,-308 -118.63,-308C-110.88,-308 -106.63,-307.25 -103.13,-306L-99.13,-334.75C-102.13,-336.50 -107.13,-337.50 -112.63,-337.50C-132.13,-337.50 -144.88,-327.75 -151.38,-310.50L-153.63,-335L-183.38,-335ZM8.63,-389.75L8.63,-314C1.88,-328.25 -11.38,-337.50 -29.38,-337.50C-60.38,-337.50 -84.13,-313.75 -84.13,-272.25C-84.13,-231.50 -61.63,-207.50 -30.63,-207.50C-11.88,-207.50 3.63,-217.50 10.63,-234.25L12.13,-210L42.88,-210L42.88,-389.75ZM-20.63,-233.75C-39.13,-233.75 -49.88,-247.25 -49.88,-272.50C-49.88,-297.75 -38.63,-311.25 -20.13,-311.25C-2.63,-311.25 8.63,-297.25 8.63,-273.50C8.63,-248.25 -2.88,-233.75 -20.63,-233.75ZM194.63,-279.25C194.63,-312.75 172.88,-337.50 135.13,-337.50C97.88,-337.50 71.88,-313.50 71.88,-272.50C71.88,-231.50 97.38,-207.50 136.88,-207.50C162.38,-207.50 184.13,-218.75 192.13,-238.50L164.88,-249C159.88,-239 151.38,-233 136.63,-233C119.38,-233 108.13,-242.25 105.38,-261.75L193.63,-261.75C194.13,-266.25 194.63,-272.50 194.63,-279.25ZM134.88,-312.25C150.38,-312.25 159.88,-302.75 161.63,-285.50L105.63,-285.50C108.88,-303.25 119.13,-312.25 134.88,-312.25ZM298.13,-337.50C278.88,-337.50 263.38,-329 255.63,-311.50L254.38,-335L223.63,-335L223.63,-210L257.88,-210L257.88,-276.25C257.88,-301.25 272.13,-310.50 286.38,-310.50C299.38,-310.50 308.88,-303.50 308.88,-282.25L308.88,-210L343.13,-210L343.13,-292C343.13,-322.25 324.13,-337.50 298.13,-337.50ZM669.13,-290.50L456.63,-290.50L456.63,-262.25L669.13,-262.25ZM-696.25,121.50L-621.50,121.50C-582.25,121.50 -561.25,104.75 -561.25,76.25C-561.25,57 -574,41.50 -597,38.25L-597,38C-576.25,34.50 -565.50,19.25 -565.50,1.50C-565.50,-27 -584,-43.50 -624,-43.50L-696.25,-43.50ZM-662.75,25.75L-662.75,-16.75L-628.50,-16.75C-610.25,-16.75 -601.25,-9.75 -601.25,4.50C-601.25,18.75 -610.25,25.75 -628.50,25.75ZM-662.75,95.50L-662.75,52.25L-624.50,52.25C-606,52.25 -597,60 -597,73.75C-597,87.50 -606,95.50 -624.50,95.50ZM-488.25,124C-468,124 -453.25,116.25 -445,99.75L-443.75,121.50L-413.25,121.50L-413.25,-3.50L-447.50,-3.50L-447.50,63.75C-447.50,87 -460.75,97 -475,97C-490,97 -498.25,90.75 -498.25,71.25L-498.25,-3.50L-532.50,-3.50L-532.50,79.50C-532.50,111.25 -513.25,124 -488.25,124ZM-360,-21.50C-345.75,-21.50 -338.75,-27.50 -338.75,-39.75C-338.75,-52 -345.75,-58.25 -360,-58.25C-374.25,-58.25 -381.25,-52 -381.25,-39.75C-381.25,-27.50 -374.25,-21.50 -360,-21.50ZM-343,-3.50L-377.25,-3.50L-377.25,121.50L-343,121.50ZM-273,-58.25L-307.25,-58.25L-307.25,86.75C-307.25,112.75 -296.50,124 -272.25,124C-264,124 -254.50,122 -249,118.75L-246,96.25C-251.50,98.25 -254.25,98.75 -260,98.75C-269.25,98.75 -273,94.50 -273,83ZM-140.50,-58.25L-140.50,17.50C-147.25,3.25 -160.50,-6 -178.50,-6C-209.50,-6 -233.25,17.75 -233.25,59.25C-233.25,100 -210.75,124 -179.75,124C-161,124 -145.50,114 -138.50,97.25L-137,121.50L-106.25,121.50L-106.25,-58.25ZM-169.75,97.75C-188.25,97.75 -199,84.25 -199,59C-199,33.75 -187.75,20.25 -169.25,20.25C-151.75,20.25 -140.50,34.25 -140.50,58C-140.50,83.25 -152,97.75 -169.75,97.75ZM9.75,121.50L137,121.50L137,93.75L44.25,93.75L44.25,51.75L114.50,51.75L114.50,25.25L44.25,25.25L44.25,-15.75L133.50,-15.75L133.50,-43.50L9.75,-43.50ZM278.75,100.50C272.75,100.50 269.75,97.50 269.75,91L269.75,40.25C269.75,9.50 247.75,-6 215,-6C182.50,-6 163.50,8.50 157.75,30.50L187,39.50C191.25,24.75 201.25,19 213.50,19C226.75,19 235.75,27.50 235.75,41.75L235.75,46.50L192.75,55.25C170.25,59.75 158,71.75 158,90.25C158,112.25 173.75,124 199.25,124C215,124 231,117.50 239,106C242.75,117.75 254.25,123.50 268.50,123.75C275.25,123.75 280.75,122.50 284.75,120.50L286.75,99.25C284.50,100 281.50,100.50 278.75,100.50ZM208,99.75C199.25,99.75 192.25,95.25 192.25,87C192.25,78.25 198,75.25 209.50,73L235.75,67.75L235.75,75.50C235.75,93.75 222.25,99.75 208,99.75ZM308,121.50L342.25,121.50L342.25,56.75C342.25,34.25 357.50,23.50 372.75,23.50C380.50,23.50 384.75,24.25 388.25,25.50L392.25,-3.25C389.25,-5 384.25,-6 378.75,-6C359.25,-6 346.50,3.75 340,21L337.75,-3.50L308,-3.50ZM494.50,91C489.25,95.50 483.50,98 475,98C464.25,98 457.75,92.75 457.75,80.75L457.75,22L497.75,22L497.75,-3.50L457.75,-3.50L457.75,-41.75L423.50,-32.25L423.50,-3.50L400.50,-3.50L400.50,22L423.50,22L423.50,86.25C423.50,113.75 440.75,124 466,124C479.25,124 491.75,120.25 500,113.75ZM521,121.50L555.25,121.50L555.25,55.50C555.25,30.50 569.50,21 584,21C597,21 606.25,28 606.25,49.50L606.25,121.50L640.50,121.50L640.50,39.50C640.50,9.25 621.50,-6 595.50,-6C577.75,-6 563.25,1.75 555.25,17.75L555.25,-58.25L521,-58.25Z" fill="#ffffff" stroke="#000000"/>
    <path d="M-805.47,-190.93L-731.48,-192.22C-692.63,-192.90 -672.13,-209.84 -672.62,-238.05C-672.95,-257.11 -685.84,-272.23 -708.66,-275.05L-708.67,-275.30C-688.19,-279.12 -677.81,-294.40 -678.12,-311.97C-678.61,-340.18 -697.20,-356.19 -736.80,-355.50L-808.31,-354.26ZM-773.96,-286.29L-774.69,-328.36L-740.79,-328.95C-722.73,-329.26 -713.70,-322.49 -713.45,-308.38C-713.21,-294.28 -721.99,-287.19 -740.06,-286.88ZM-772.76,-217.25L-773.50,-260.06L-735.64,-260.72C-717.33,-261.04 -708.29,-253.52 -708.05,-239.91C-707.81,-226.30 -716.58,-218.23 -734.90,-217.91ZM-529.91,-216.53C-535.85,-216.42 -538.87,-219.34 -538.98,-225.77L-539.86,-276.01C-540.39,-306.45 -562.43,-321.41 -594.85,-320.85C-627.02,-320.29 -645.58,-305.61 -650.89,-283.73L-621.78,-275.33C-617.83,-290.00 -608.03,-295.86 -595.90,-296.07C-582.79,-296.30 -573.73,-288.04 -573.49,-273.94L-573.41,-269.24L-615.82,-259.83C-638.01,-254.99 -649.93,-242.90 -649.61,-224.59C-649.23,-202.81 -633.44,-191.45 -608.20,-191.89C-592.61,-192.17 -576.88,-198.88 -569.16,-210.40C-565.25,-198.83 -553.77,-193.34 -539.66,-193.34C-532.98,-193.45 -527.55,-194.78 -523.63,-196.83L-522.01,-217.90C-524.23,-217.12 -527.19,-216.57 -529.91,-216.53ZM-599.96,-216.05C-608.62,-215.90 -615.62,-220.23 -615.77,-228.40C-615.92,-237.06 -610.28,-240.13 -598.93,-242.55L-573.04,-248.20L-572.91,-240.53C-572.59,-222.47 -585.85,-216.29 -599.96,-216.05ZM-457.50,-194.52C-437.45,-194.87 -422.98,-202.79 -415.10,-219.27L-413.49,-197.76L-383.30,-198.29L-385.45,-322.02L-419.36,-321.43L-418.20,-254.86C-417.80,-231.85 -430.74,-221.72 -444.85,-221.47C-459.69,-221.21 -467.97,-227.26 -468.30,-246.56L-469.59,-320.55L-503.49,-319.96L-502.06,-237.80C-501.52,-206.38 -482.24,-194.09 -457.50,-194.52ZM-344.20,-198.97L-218.24,-201.16L-218.72,-228.63L-310.53,-227.03L-311.25,-268.60L-241.72,-269.81L-242.17,-296.05L-311.71,-294.83L-312.42,-335.42L-224.07,-336.96L-224.55,-364.43L-347.04,-362.29ZM-191.02,-201.63L-157.12,-202.22L-158.23,-266.32C-158.62,-288.59 -143.71,-299.49 -128.62,-299.76C-120.95,-299.89 -116.73,-299.22 -113.24,-298.04L-109.78,-326.57C-112.78,-328.25 -117.74,-329.15 -123.19,-329.06C-142.49,-328.72 -154.94,-318.85 -161.08,-301.67L-163.73,-325.88L-193.18,-325.37ZM-4.07,-382.87L-2.76,-307.89C-9.69,-321.88 -22.96,-330.81 -40.78,-330.50C-71.47,-329.96 -94.57,-306.04 -93.85,-264.96C-93.15,-224.63 -70.46,-201.26 -39.78,-201.79C-21.22,-202.12 -6.05,-212.28 0.59,-228.98L2.49,-205.00L32.93,-205.53L29.83,-383.46ZM-30.33,-227.95C-48.64,-227.63 -59.52,-240.81 -59.95,-265.80C-60.39,-290.80 -49.49,-304.35 -31.17,-304.67C-13.85,-304.97 -2.47,-291.31 -2.06,-267.80C-1.63,-242.81 -12.76,-228.25 -30.33,-227.95ZM181.95,-276.70C181.37,-309.86 159.42,-333.98 122.05,-333.33C85.18,-332.69 59.85,-308.48 60.56,-267.90C61.27,-227.32 86.92,-204.00 126.02,-204.68C151.26,-205.12 172.60,-216.63 180.18,-236.32L153.02,-246.24C148.24,-236.26 139.93,-230.17 125.33,-229.92C108.26,-229.62 96.96,-238.58 93.91,-257.84L181.26,-259.36C181.68,-263.82 182.06,-270.02 181.95,-276.70ZM122.24,-308.33C137.58,-308.60 147.15,-299.36 149.18,-282.32L93.74,-281.35C96.66,-298.98 106.65,-308.06 122.24,-308.33ZM283.39,-336.14C264.34,-335.81 249.14,-327.13 241.77,-309.67L240.13,-332.91L209.69,-332.38L211.85,-208.65L245.75,-209.24L244.61,-274.82C244.18,-299.56 258.12,-308.97 272.23,-309.21C285.10,-309.44 294.62,-302.67 294.99,-281.64L296.23,-210.12L330.13,-210.71L328.72,-291.88C328.20,-321.82 309.13,-336.59 283.39,-336.14ZM651.44,-296.01L441.10,-292.35L441.58,-264.39L651.93,-268.05ZM-692.98,135.34L-618.98,134.05C-580.13,133.38 -559.63,116.43 -560.13,88.22C-560.46,69.17 -573.35,54.05 -596.17,51.23L-596.17,50.98C-575.69,47.16 -565.32,31.88 -565.62,14.31C-566.11,-13.90 -584.71,-29.92 -624.30,-29.23L-695.82,-27.98ZM-661.47,39.99L-662.20,-2.08L-628.30,-2.67C-610.23,-2.99 -601.20,3.79 -600.96,17.89C-600.71,32.00 -609.50,39.08 -627.56,39.40ZM-660.26,109.03L-661.01,66.22L-623.15,65.56C-604.84,65.24 -595.79,72.76 -595.56,86.37C-595.32,99.98 -604.09,108.05 -622.40,108.37ZM-487.04,134.23C-467.00,133.88 -452.53,125.96 -444.65,109.48L-443.04,130.99L-412.85,130.46L-415.00,6.73L-448.91,7.32L-447.75,73.89C-447.35,96.90 -460.29,107.03 -474.39,107.28C-489.24,107.54 -497.52,101.49 -497.85,82.19L-499.14,8.20L-533.04,8.79L-531.61,90.95C-531.06,122.37 -511.79,134.66 -487.04,134.23ZM-362.60,-12.00C-348.50,-12.25 -341.67,-18.31 -341.88,-30.43C-342.10,-42.56 -349.13,-48.63 -363.24,-48.38C-377.34,-48.13 -384.16,-41.83 -383.95,-29.70C-383.74,-17.58 -376.71,-11.76 -362.60,-12.00ZM-345.47,5.52L-379.37,6.11L-377.21,129.84L-343.31,129.25ZM-277.12,-49.88L-311.02,-49.29L-308.52,94.24C-308.08,119.97 -297.24,130.93 -273.24,130.51C-265.07,130.37 -255.70,128.22 -250.31,124.91L-247.73,102.59C-253.14,104.66 -255.85,105.20 -261.55,105.30C-270.70,105.46 -274.49,101.32 -274.69,89.94ZM-145.97,-52.16L-144.66,22.82C-151.59,8.83 -164.86,-0.10 -182.68,0.21C-213.36,0.75 -236.46,24.66 -235.75,65.74C-235.05,106.08 -212.36,129.45 -181.68,128.91C-163.12,128.59 -147.95,118.42 -141.31,101.72L-139.40,125.70L-108.96,125.17L-112.06,-52.75ZM-172.23,102.76C-190.54,103.08 -201.42,89.90 -201.85,64.90C-202.29,39.91 -191.38,26.35 -173.07,26.03C-155.75,25.73 -144.37,39.40 -143.96,62.91C-143.53,87.90 -154.66,102.45 -172.23,102.76ZM5.86,123.17L131.82,120.98L131.34,93.51L39.53,95.11L38.81,53.53L108.34,52.32L107.89,26.09L38.35,27.30L37.64,-13.28L125.99,-14.82L125.51,-42.29L3.01,-40.15ZM271.77,97.75C265.83,97.85 262.81,94.93 262.69,88.50L261.82,38.26C261.29,7.83 239.24,-7.14 206.83,-6.57C174.66,-6.01 156.10,8.67 150.79,30.54L179.90,38.95C183.85,24.27 193.65,18.41 205.77,18.20C218.89,17.97 227.94,26.23 228.19,40.34L228.27,45.04L185.86,54.44C163.66,59.28 151.75,71.37 152.06,89.68C152.44,111.46 168.24,122.82 193.48,122.38C209.07,122.11 224.79,115.40 232.51,103.88C236.43,115.44 247.91,120.94 262.02,120.94C268.70,120.82 274.12,119.49 278.05,117.44L279.66,96.37C277.45,97.15 274.49,97.70 271.77,97.75ZM201.72,98.23C193.06,98.38 186.05,94.04 185.91,85.88C185.76,77.21 191.40,74.15 202.74,71.72L228.64,66.07L228.77,73.74C229.09,91.81 215.83,97.98 201.72,98.23ZM301.08,118.03L334.98,117.44L333.87,53.35C333.48,31.08 348.39,20.17 363.48,19.91C371.16,19.78 375.38,20.44 378.86,21.62L382.33,-6.91C379.33,-8.59 374.36,-9.49 368.91,-9.40C349.61,-9.06 337.16,0.81 331.02,18.00L328.37,-6.21L298.93,-5.70ZM485.16,84.63C480.04,89.17 474.39,91.74 465.98,91.89C455.34,92.08 448.82,86.99 448.61,75.11L447.60,16.96L487.19,16.27L486.75,-8.97L447.16,-8.28L446.50,-46.14L412.76,-36.15L413.25,-7.69L390.49,-7.30L390.93,17.95L413.69,17.55L414.80,81.15C415.27,108.37 432.53,118.22 457.52,117.78C470.64,117.55 482.94,113.63 491.00,107.05ZM511.92,114.36L545.82,113.77L544.68,48.44C544.25,23.69 558.19,14.04 572.55,13.79C585.42,13.57 594.69,20.34 595.06,41.62L596.30,112.89L630.21,112.30L628.79,31.13C628.27,1.19 609.20,-13.58 583.46,-13.13C565.89,-12.83 551.68,-4.90 544.03,11.07L542.72,-64.16L508.82,-63.57Z" fill="#ffffff" stroke="#000000"/>
    <path d="M-806.28,-171.95L-733.07,-174.50C-694.63,-175.84 -674.63,-192.96 -675.60,-220.88C-676.26,-239.73 -689.28,-254.47 -711.91,-256.87L-711.92,-257.12C-691.72,-261.25 -681.71,-276.56 -682.32,-293.94C-683.29,-321.85 -701.97,-337.38 -741.15,-336.02L-811.91,-333.55ZM-776.74,-266.87L-778.19,-308.50L-744.64,-309.67C-726.77,-310.29 -717.71,-303.74 -717.23,-289.78C-716.74,-275.83 -725.32,-268.66 -743.19,-268.04ZM-774.36,-198.56L-775.83,-240.92L-738.37,-242.22C-720.25,-242.85 -711.17,-235.57 -710.70,-222.10C-710.23,-208.64 -718.77,-200.49 -736.89,-199.86ZM-533.99,-202.03C-539.86,-201.82 -542.90,-204.66 -543.12,-211.03L-544.86,-260.73C-545.91,-290.85 -567.98,-305.28 -600.06,-304.16C-631.89,-303.05 -650.00,-288.20 -654.88,-266.46L-625.93,-258.64C-622.27,-273.23 -612.67,-279.21 -600.67,-279.62C-587.70,-280.08 -578.59,-272.06 -578.10,-258.10L-577.94,-253.45L-619.76,-243.41C-641.64,-238.24 -653.23,-226.07 -652.60,-207.95C-651.85,-186.40 -636.02,-175.43 -611.05,-176.30C-595.62,-176.84 -580.17,-183.75 -572.73,-195.29C-568.66,-183.91 -557.20,-178.67 -543.23,-178.91C-536.62,-179.14 -531.28,-180.55 -527.43,-182.65L-526.19,-203.53C-528.37,-202.72 -531.29,-202.12 -533.99,-202.03ZM-603.30,-200.35C-611.87,-200.05 -618.88,-204.22 -619.17,-212.30C-619.46,-220.87 -613.93,-224.00 -602.75,-226.60L-577.22,-232.64L-576.95,-225.05C-576.33,-207.17 -589.35,-200.84 -603.30,-200.35ZM-461.93,-181.50C-442.10,-182.19 -427.92,-190.28 -420.40,-206.72L-418.43,-185.46L-388.56,-186.50L-392.83,-308.93L-426.37,-307.76L-424.08,-241.90C-423.28,-219.12 -435.92,-208.88 -449.88,-208.39C-464.57,-207.88 -472.86,-213.72 -473.53,-232.82L-476.08,-306.03L-509.62,-304.86L-506.79,-223.57C-505.71,-192.47 -486.42,-180.64 -461.93,-181.50ZM-349.88,-187.85L-225.25,-192.19L-226.19,-219.37L-317.03,-216.21L-318.47,-257.34L-249.66,-259.74L-250.57,-285.69L-319.37,-283.30L-320.77,-323.45L-233.36,-326.50L-234.30,-353.68L-355.51,-349.45ZM-198.31,-193.13L-164.77,-194.30L-166.98,-257.72C-167.74,-279.75 -153.18,-290.80 -138.24,-291.32C-130.65,-291.59 -126.46,-291.00 -122.99,-289.89L-120.05,-318.19C-123.05,-319.80 -127.98,-320.61 -133.37,-320.42C-152.47,-319.76 -164.62,-309.77 -170.40,-292.65L-173.44,-316.57L-202.58,-315.56ZM-16.40,-375.73L-13.82,-301.54C-20.91,-315.27 -34.21,-323.88 -51.83,-323.26C-82.20,-322.20 -104.65,-298.13 -103.23,-257.49C-101.84,-217.58 -78.98,-194.84 -48.62,-195.90C-30.26,-196.54 -15.42,-206.86 -9.14,-223.50L-6.84,-199.80L23.28,-200.85L17.14,-376.90ZM-39.72,-221.95C-57.84,-221.32 -68.83,-234.17 -69.69,-258.90C-70.56,-283.63 -60.00,-297.24 -41.88,-297.87C-24.74,-298.46 -13.24,-285.14 -12.43,-261.88C-11.57,-237.15 -22.34,-222.55 -39.72,-221.95ZM169.54,-273.85C168.40,-306.66 146.25,-330.16 109.28,-328.87C72.79,-327.60 48.15,-303.21 49.55,-263.05C50.95,-222.90 76.74,-200.26 115.43,-201.61C140.40,-202.48 161.32,-214.24 168.48,-233.86L141.43,-243.21C136.88,-233.25 128.76,-227.08 114.31,-226.58C97.42,-225.99 86.08,-234.66 82.73,-253.67L169.16,-256.68C169.49,-261.10 169.77,-267.24 169.54,-273.85ZM109.89,-304.14C125.08,-304.66 134.70,-295.68 137.01,-278.85L82.16,-276.94C84.74,-294.43 94.47,-303.60 109.89,-304.14ZM268.92,-334.44C250.07,-333.78 235.18,-324.93 228.18,-307.52L226.16,-330.49L196.04,-329.45L200.31,-207.02L233.85,-208.19L231.59,-273.07C230.74,-297.56 244.38,-307.11 258.33,-307.59C271.07,-308.04 280.61,-301.50 281.33,-280.69L283.80,-209.93L317.34,-211.10L314.55,-291.41C313.51,-321.04 294.39,-335.32 268.92,-334.44ZM633.88,-301.06L425.76,-293.81L426.72,-266.14L634.85,-273.40ZM-689.31,149.04L-616.10,146.49C-577.66,145.15 -557.67,128.03 -558.64,100.12C-559.29,81.26 -572.31,66.52 -594.95,64.12L-594.96,63.87C-574.75,59.74 -564.75,44.44 -565.35,27.05C-566.32,-0.86 -585.01,-16.39 -624.18,-15.03L-694.94,-12.56ZM-659.77,54.12L-661.22,12.50L-627.68,11.33C-609.80,10.70 -600.75,17.25 -600.26,31.21C-599.78,45.17 -608.35,52.33 -626.23,52.95ZM-657.39,122.43L-658.87,80.07L-621.40,78.77C-603.29,78.14 -594.21,85.42 -593.74,98.89C-593.27,112.36 -601.81,120.50 -619.93,121.13ZM-485.51,144.39C-465.68,143.70 -451.50,135.61 -443.98,119.17L-442.01,140.43L-412.14,139.38L-416.41,16.96L-449.95,18.13L-447.66,83.99C-446.86,106.76 -459.50,117.01 -473.46,117.50C-488.15,118.01 -496.44,112.17 -497.11,93.07L-499.66,19.86L-533.20,21.03L-530.37,102.32C-529.29,133.42 -510.00,145.25 -485.51,144.39ZM-364.87,-2.49C-350.91,-2.97 -344.26,-9.09 -344.68,-21.09C-345.10,-33.08 -352.17,-38.97 -366.12,-38.48C-380.08,-37.99 -386.72,-31.63 -386.30,-19.64C-385.88,-7.64 -378.82,-2.00 -364.87,-2.49ZM-347.60,14.56L-381.15,15.73L-376.88,138.16L-343.34,136.99ZM-280.91,-41.45L-314.46,-40.28L-309.51,101.73C-308.62,127.20 -297.71,137.85 -273.96,137.02C-265.88,136.74 -256.64,134.46 -251.37,131.09L-249.20,108.95C-254.52,111.09 -257.19,111.68 -262.82,111.87C-271.88,112.19 -275.70,108.16 -276.09,96.89ZM-151.14,-45.97L-148.56,28.22C-155.65,14.49 -168.95,5.89 -186.58,6.50C-216.94,7.56 -239.39,31.63 -237.97,72.27C-236.58,112.19 -213.73,134.92 -183.37,133.87C-165.00,133.23 -150.16,122.90 -143.88,106.26L-141.58,129.96L-111.46,128.91L-117.60,-47.14ZM-174.47,107.82C-192.59,108.45 -203.58,95.59 -204.44,70.86C-205.30,46.13 -194.74,32.53 -176.62,31.89C-159.48,31.30 -147.99,44.62 -147.18,67.89C-146.31,92.62 -157.08,107.21 -174.47,107.82ZM2.15,124.95L126.78,120.61L125.83,93.43L34.99,96.60L33.56,55.46L102.36,53.06L101.46,27.11L32.65,29.51L31.25,-10.65L118.67,-13.70L117.72,-40.87L-3.48,-36.65ZM264.89,95.20C259.01,95.41 255.97,92.57 255.75,86.21L254.02,36.50C252.97,6.39 230.89,-8.04 198.82,-6.93C166.99,-5.82 148.87,9.03 143.99,30.77L172.95,38.59C176.61,24.00 186.21,18.03 198.20,17.61C211.18,17.16 220.29,25.18 220.77,39.13L220.93,43.78L179.12,53.82C157.23,59.00 145.65,71.17 146.28,89.29C147.03,110.83 162.85,121.80 187.83,120.93C203.26,120.40 218.70,113.48 226.15,101.95C230.22,113.33 241.68,118.57 255.64,118.33C262.26,118.10 267.60,116.68 271.45,114.59L272.68,93.71C270.51,94.52 267.58,95.11 264.89,95.20ZM195.57,96.88C187.00,97.18 179.99,93.01 179.71,84.93C179.41,76.36 184.94,73.23 196.13,70.63L221.66,64.60L221.92,72.19C222.55,90.06 209.53,96.40 195.57,96.88ZM294.25,114.77L327.80,113.61L325.59,50.19C324.82,28.15 339.39,17.10 354.33,16.58C361.92,16.32 366.11,16.91 369.58,18.01L372.51,-10.28C369.51,-11.89 364.58,-12.70 359.20,-12.51C340.10,-11.85 327.94,-1.86 322.17,15.25L319.13,-8.67L289.99,-7.65ZM475.87,78.54C470.88,83.12 465.34,85.77 457.01,86.06C446.49,86.43 439.94,81.51 439.53,69.75L437.53,12.21L476.70,10.85L475.83,-14.13L436.66,-12.76L435.35,-50.22L402.13,-39.75L403.11,-11.59L380.58,-10.81L381.45,14.17L403.98,13.38L406.17,76.31C407.11,103.24 424.36,112.69 449.09,111.83C462.06,111.38 474.18,107.28 482.04,100.63ZM502.87,107.51L536.41,106.34L534.16,41.70C533.31,17.21 546.94,7.42 561.14,6.93C573.87,6.48 583.17,13.02 583.91,34.08L586.36,104.60L619.91,103.43L617.11,23.12C616.08,-6.51 596.95,-20.80 571.48,-19.91C554.10,-19.30 540.16,-11.22 532.87,4.72L530.28,-69.71L496.73,-68.54Z" fill="#ffffff" stroke="#000000"/>
    <path d="M-806.55,-153.06L-734.15,-156.85C-696.12,-158.84 -676.63,-176.13 -678.07,-203.73C-679.05,-222.38 -692.18,-236.75 -714.63,-238.73L-714.64,-238.98C-694.72,-243.42 -685.08,-258.73 -685.98,-275.93C-687.42,-303.54 -706.18,-318.58 -744.92,-316.56L-814.91,-312.90ZM-778.95,-247.51L-781.11,-288.68L-747.93,-290.42C-730.25,-291.34 -721.18,-285.01 -720.46,-271.21C-719.73,-257.41 -728.10,-250.17 -745.78,-249.25ZM-775.42,-179.95L-777.61,-221.84L-740.56,-223.78C-722.64,-224.72 -713.53,-217.66 -712.83,-204.35C-712.13,-191.03 -720.45,-182.82 -738.37,-181.88ZM-537.60,-187.52C-543.41,-187.22 -546.47,-189.98 -546.80,-196.27L-549.37,-245.43C-550.93,-275.22 -573.02,-289.12 -604.75,-287.46C-636.23,-285.81 -653.90,-270.81 -658.35,-249.20L-629.56,-241.97C-626.19,-256.47 -616.80,-262.55 -604.93,-263.17C-592.10,-263.84 -582.95,-256.06 -582.23,-242.26L-581.99,-237.66L-623.20,-227.00C-644.76,-221.50 -656.02,-209.26 -655.09,-191.34C-653.97,-170.03 -638.12,-159.44 -613.42,-160.73C-598.16,-161.53 -582.99,-168.64 -575.83,-180.18C-571.60,-168.99 -560.17,-164.00 -546.35,-164.48C-539.81,-164.83 -534.55,-166.32 -530.77,-168.46L-529.91,-189.14C-532.05,-188.30 -534.93,-187.66 -537.60,-187.52ZM-606.17,-184.67C-614.65,-184.22 -621.66,-188.23 -622.07,-196.22C-622.52,-204.70 -617.10,-207.89 -606.07,-210.66L-580.91,-217.07L-580.52,-209.56C-579.59,-191.89 -592.37,-185.39 -606.17,-184.67ZM-465.94,-168.45C-446.32,-169.47 -432.43,-177.73 -425.27,-194.13L-422.96,-173.12L-393.41,-174.67L-399.74,-295.75L-432.92,-294.02L-429.52,-228.87C-428.34,-206.35 -440.67,-195.99 -454.47,-195.27C-469.00,-194.51 -477.31,-200.15 -478.30,-219.04L-482.08,-291.45L-515.26,-289.71L-511.06,-209.31C-509.45,-178.56 -490.15,-167.18 -465.94,-168.45ZM-355.15,-176.67L-231.89,-183.11L-233.29,-209.99L-323.14,-205.29L-325.26,-245.98L-257.21,-249.54L-258.56,-275.21L-326.61,-271.65L-328.68,-311.36L-242.23,-315.89L-243.63,-342.77L-363.51,-336.50ZM-205.25,-184.50L-172.07,-186.24L-175.35,-248.96C-176.49,-270.76 -162.26,-281.94 -147.49,-282.71C-139.98,-283.11 -135.83,-282.60 -132.37,-281.56L-129.96,-309.61C-132.95,-311.16 -137.84,-311.87 -143.17,-311.59C-162.06,-310.61 -173.92,-300.52 -179.34,-283.48L-182.76,-307.10L-211.58,-305.59ZM-28.37,-368.35L-24.53,-294.97C-31.79,-308.43 -45.09,-316.72 -62.53,-315.81C-92.56,-314.24 -114.36,-290.03 -112.26,-249.83C-110.20,-210.36 -87.18,-188.25 -57.16,-189.82C-38.99,-190.77 -24.49,-201.24 -18.55,-217.82L-15.87,-194.41L13.92,-195.96L4.81,-370.08ZM-48.80,-215.75C-66.72,-214.82 -77.82,-227.35 -79.09,-251.81C-80.37,-276.27 -70.16,-289.91 -52.24,-290.85C-35.29,-291.74 -23.68,-278.75 -22.48,-255.74C-21.20,-231.28 -31.60,-216.65 -48.80,-215.75ZM157.40,-270.73C155.71,-303.18 133.39,-326.05 96.82,-324.14C60.73,-322.26 36.76,-297.69 38.84,-257.98C40.92,-218.26 66.83,-196.30 105.10,-198.30C129.80,-199.59 150.30,-211.59 157.05,-231.13L130.12,-239.92C125.78,-229.98 117.85,-223.74 103.56,-222.99C86.85,-222.12 75.49,-230.51 71.84,-249.26L157.32,-253.73C157.58,-258.11 157.75,-264.19 157.40,-270.73ZM97.85,-299.67C112.87,-300.46 122.55,-291.73 125.12,-275.11L70.88,-272.28C73.13,-289.64 82.60,-298.87 97.85,-299.67ZM254.71,-332.40C236.07,-331.42 221.48,-322.40 214.86,-305.06L212.46,-327.76L182.67,-326.20L189.00,-205.12L222.18,-206.85L218.83,-271.03C217.56,-295.25 230.89,-304.93 244.70,-305.65C257.29,-306.31 266.85,-300.01 267.92,-279.42L271.58,-209.44L304.76,-211.17L300.61,-290.60C299.08,-319.91 279.90,-333.72 254.71,-332.40ZM616.47,-305.66L410.63,-294.90L412.06,-267.53L617.90,-278.30ZM-685.27,162.59L-612.86,158.80C-574.84,156.81 -555.34,139.53 -556.79,111.92C-557.76,93.27 -570.90,78.90 -593.34,76.92L-593.36,76.68C-573.43,72.24 -563.79,56.92 -564.69,39.72C-566.13,12.12 -584.89,-2.93 -623.64,-0.90L-693.62,2.76ZM-657.67,68.14L-659.82,26.97L-626.64,25.24C-608.96,24.31 -599.89,30.64 -599.17,44.44C-598.45,58.25 -606.81,65.48 -624.49,66.41ZM-654.13,135.71L-656.32,93.81L-619.27,91.87C-601.35,90.94 -592.24,97.99 -591.55,111.31C-590.85,124.63 -599.16,132.83 -617.08,133.77ZM-483.66,154.47C-464.04,153.45 -450.15,145.20 -442.99,128.79L-440.68,149.80L-411.13,148.25L-417.46,27.17L-450.64,28.90L-447.23,94.05C-446.06,116.57 -458.39,126.93 -472.19,127.65C-486.72,128.41 -495.03,122.77 -496.01,103.88L-499.80,31.48L-532.98,33.21L-528.77,113.61C-527.17,144.37 -507.87,155.74 -483.66,154.47ZM-366.79,7.04C-352.99,6.32 -346.51,0.15 -347.13,-11.72C-347.75,-23.58 -354.85,-29.28 -368.65,-28.56C-382.46,-27.84 -388.92,-21.43 -388.30,-9.57C-387.68,2.30 -380.60,7.76 -366.79,7.04ZM-349.41,23.61L-382.59,25.35L-376.26,146.43L-343.08,144.70ZM-284.38,-32.97L-317.56,-31.23L-310.21,109.22C-308.90,134.41 -297.91,144.76 -274.42,143.53C-266.43,143.12 -257.33,140.70 -252.17,137.27L-250.40,115.32C-255.63,117.54 -258.26,118.16 -263.83,118.46C-272.79,118.92 -276.64,115.00 -277.23,103.86ZM-156.03,-39.68L-152.19,33.70C-159.45,20.24 -172.76,11.95 -190.19,12.86C-220.22,14.43 -242.03,38.64 -239.92,78.84C-237.86,118.31 -214.85,140.42 -184.82,138.85C-166.66,137.90 -152.15,127.43 -146.22,110.85L-143.54,134.26L-113.75,132.71L-122.85,-41.41ZM-176.46,112.92C-194.38,113.85 -205.48,101.32 -206.76,76.86C-208.04,52.40 -197.82,38.75 -179.90,37.82C-162.95,36.93 -151.34,49.92 -150.14,72.93C-148.86,97.39 -159.27,112.02 -176.46,112.92ZM-1.38,126.83L121.88,120.39L120.48,93.50L30.63,98.20L28.50,57.52L96.55,53.96L95.21,28.29L27.16,31.85L25.09,-7.87L111.54,-12.39L110.13,-39.27L-9.74,-33.00ZM258.13,92.86C252.32,93.17 249.26,90.41 248.93,84.12L246.36,34.96C244.80,5.17 222.71,-8.73 190.98,-7.07C159.50,-5.43 141.83,9.58 137.37,31.18L166.16,38.42C169.53,23.92 178.93,17.84 190.79,17.22C203.63,16.55 212.78,24.33 213.50,38.13L213.74,42.73L172.53,53.39C150.96,58.89 139.70,71.13 140.64,89.05C141.76,110.36 157.61,120.95 182.31,119.65C197.57,118.86 212.74,111.75 219.90,100.20C224.13,111.40 235.56,116.38 249.38,115.90C255.92,115.56 261.18,114.07 264.95,111.93L265.81,91.25C263.67,92.09 260.79,92.72 258.13,92.86ZM189.56,95.72C181.08,96.16 174.07,92.16 173.65,84.17C173.21,75.69 178.63,72.49 189.65,69.73L214.82,63.32L215.21,70.82C216.13,88.50 203.36,95.00 189.56,95.72ZM287.53,111.72L320.70,109.99L317.42,47.27C316.28,25.47 330.51,14.29 345.28,13.51C352.79,13.12 356.95,13.63 360.40,14.67L362.82,-13.39C359.82,-14.93 354.93,-15.64 349.60,-15.37C330.71,-14.38 318.86,-4.29 313.43,12.75L310.01,-10.87L281.19,-9.36ZM466.64,72.73C461.78,77.36 456.34,80.07 448.10,80.50C437.69,81.05 431.13,76.29 430.52,64.67L427.55,7.76L466.29,5.73L465.00,-18.97L426.25,-16.95L424.32,-54.00L391.62,-43.06L393.08,-15.21L370.80,-14.05L372.09,10.66L394.37,9.49L397.62,71.73C399.02,98.37 416.24,107.42 440.70,106.14C453.54,105.47 465.46,101.21 473.12,94.49ZM493.85,100.94L527.03,99.20L523.69,35.27C522.42,11.05 535.74,1.13 549.79,0.39C562.38,-0.27 571.70,6.05 572.79,26.87L576.43,96.62L609.61,94.88L605.46,15.45C603.93,-13.85 584.75,-27.66 559.56,-26.34C542.37,-25.44 528.72,-17.20 521.78,-1.30L517.93,-74.92L484.75,-73.18Z" fill="#ffffff" stroke="#000000"/>
    <path d="M-806.30,-134.29L-734.72,-139.28C-697.13,-141.91 -678.13,-159.35 -680.04,-186.64C-681.32,-205.08 -694.57,-219.07 -716.81,-220.65L-716.83,-220.89C-697.19,-225.63 -687.92,-240.95 -689.10,-257.95C-691.01,-285.24 -709.83,-299.81 -748.13,-297.13L-817.33,-292.31ZM-780.62,-228.23L-783.46,-268.93L-750.66,-271.22C-733.18,-272.43 -724.09,-266.33 -723.14,-252.69C-722.19,-239.04 -730.34,-231.73 -747.82,-230.51ZM-775.96,-161.43L-778.85,-202.85L-742.21,-205.40C-724.50,-206.64 -715.36,-199.82 -714.44,-186.65C-713.52,-173.48 -721.61,-165.22 -739.33,-163.98ZM-540.75,-173.03C-546.50,-172.62 -549.57,-175.30 -550.01,-181.52L-553.40,-230.12C-555.45,-259.57 -577.56,-272.95 -608.92,-270.76C-640.04,-268.59 -657.27,-253.43 -661.31,-231.98L-632.69,-225.31C-629.61,-239.72 -620.42,-245.90 -608.69,-246.72C-596.00,-247.60 -586.81,-240.06 -585.86,-226.42L-585.54,-221.87L-626.14,-210.61C-647.38,-204.80 -658.31,-192.49 -657.08,-174.77C-655.61,-153.71 -639.74,-143.50 -615.32,-145.21C-600.23,-146.26 -585.35,-153.55 -578.45,-165.10C-574.08,-154.10 -562.68,-149.36 -549.02,-150.07C-542.55,-150.53 -537.37,-152.09 -533.67,-154.27L-533.18,-174.76C-535.28,-173.89 -538.12,-173.21 -540.75,-173.03ZM-608.56,-169.02C-616.94,-168.43 -623.94,-172.27 -624.49,-180.17C-625.08,-188.55 -619.77,-191.81 -608.91,-194.73L-584.12,-201.52L-583.60,-194.09C-582.38,-176.62 -594.91,-169.97 -608.56,-169.02ZM-469.51,-155.38C-450.12,-156.73 -436.51,-165.14 -429.71,-181.49L-427.06,-160.75L-397.85,-162.79L-406.21,-282.49L-439.01,-280.21L-434.51,-215.80C-432.96,-193.54 -444.98,-183.08 -458.63,-182.12C-472.99,-181.12 -481.31,-186.56 -482.61,-205.23L-487.61,-276.82L-520.41,-274.53L-514.86,-195.04C-512.74,-164.63 -493.45,-153.71 -469.51,-155.38ZM-360.03,-165.42L-238.16,-173.93L-240.02,-200.50L-328.84,-194.31L-331.65,-234.53L-264.37,-239.22L-266.14,-264.60L-333.42,-259.91L-336.16,-299.17L-250.68,-305.13L-252.54,-331.71L-371.05,-323.44ZM-211.83,-175.76L-179.03,-178.05L-183.35,-240.06C-184.86,-261.61 -170.97,-272.92 -156.36,-273.94C-148.94,-274.46 -144.82,-274.03 -141.39,-273.06L-139.48,-300.86C-142.47,-302.34 -147.32,-302.96 -152.59,-302.59C-171.26,-301.29 -182.82,-291.10 -187.90,-274.15L-191.69,-297.46L-220.18,-295.47ZM-39.96,-360.73L-34.90,-288.19C-42.32,-301.39 -55.62,-309.36 -72.86,-308.16C-102.55,-306.09 -123.71,-281.75 -120.94,-242.01C-118.21,-202.99 -95.06,-181.50 -65.37,-183.58C-47.42,-184.83 -33.24,-195.44 -27.66,-211.95L-24.60,-188.83L4.85,-190.88L-7.16,-363.02ZM-57.55,-209.38C-75.27,-208.15 -86.47,-220.36 -88.15,-244.54C-89.84,-268.72 -79.97,-282.40 -62.25,-283.64C-45.49,-284.80 -33.78,-272.15 -32.20,-249.40C-30.51,-225.22 -40.55,-210.57 -57.55,-209.38ZM145.55,-267.34C143.31,-299.42 120.83,-321.67 84.67,-319.15C49.00,-316.66 25.70,-291.94 28.44,-252.67C31.18,-213.41 57.21,-192.13 95.04,-194.77C119.46,-196.47 139.53,-208.70 145.88,-228.15L119.08,-236.38C114.96,-226.47 107.22,-220.16 93.09,-219.17C76.57,-218.02 65.18,-226.12 61.24,-244.62L145.76,-250.51C145.94,-254.85 146.00,-260.87 145.55,-267.34ZM86.12,-294.95C100.97,-295.98 110.70,-287.52 113.53,-271.12L59.90,-267.38C61.82,-284.59 71.04,-293.90 86.12,-294.95ZM240.77,-330.04C222.34,-328.75 208.06,-319.58 201.81,-302.30L199.04,-324.72L169.60,-322.67L177.95,-202.96L210.75,-205.24L206.32,-268.69C204.65,-292.63 217.68,-302.44 231.33,-303.39C243.78,-304.26 253.34,-298.19 254.76,-277.84L259.59,-208.65L292.39,-210.94L286.91,-289.47C284.89,-318.44 265.67,-331.77 240.77,-330.04ZM599.21,-309.81L395.71,-295.62L397.59,-268.56L601.10,-282.76ZM-680.84,175.97L-609.26,170.98C-571.67,168.35 -552.68,150.91 -554.58,123.62C-555.87,105.18 -569.11,91.19 -591.36,89.61L-591.37,89.37C-571.74,84.64 -562.46,69.31 -563.65,52.31C-565.55,25.02 -584.37,10.45 -622.68,13.13L-691.87,17.95ZM-655.16,82.04L-658.00,41.33L-625.20,39.05C-607.72,37.83 -598.63,43.93 -597.68,57.58C-596.73,71.22 -604.88,78.53 -622.36,79.75ZM-650.50,148.83L-653.39,107.41L-616.76,104.86C-599.04,103.62 -589.90,110.44 -588.99,123.61C-588.07,136.78 -596.15,145.04 -613.87,146.28ZM-481.48,164.47C-462.09,163.11 -448.48,154.71 -441.68,138.35L-439.03,159.10L-409.82,157.06L-418.17,37.35L-450.97,39.64L-446.48,104.05C-444.93,126.31 -456.95,136.77 -470.60,137.73C-484.96,138.73 -493.28,133.29 -494.58,114.62L-499.58,43.03L-532.38,45.32L-526.83,124.81C-524.71,155.21 -505.42,166.14 -481.48,164.47ZM-368.38,16.56C-354.73,15.61 -348.43,9.39 -349.25,-2.34C-350.07,-14.07 -357.19,-19.59 -370.84,-18.64C-384.48,-17.68 -390.77,-11.23 -389.95,0.50C-389.13,12.23 -382.03,17.51 -368.38,16.56ZM-350.90,32.66L-383.70,34.95L-375.35,154.66L-342.55,152.37ZM-287.52,-24.45L-320.32,-22.16L-310.63,116.70C-308.89,141.60 -297.85,151.66 -274.62,150.04C-266.72,149.49 -257.76,146.94 -252.71,143.46L-251.34,121.71C-256.47,123.99 -259.07,124.65 -264.58,125.04C-273.44,125.65 -277.31,121.84 -278.08,110.82ZM-160.63,-33.30L-155.57,39.24C-162.98,26.05 -176.29,18.07 -193.53,19.28C-223.22,21.35 -244.37,45.68 -241.60,85.42C-238.88,124.45 -215.73,145.93 -186.04,143.86C-168.08,142.60 -153.91,131.99 -148.32,115.48L-145.27,138.61L-115.82,136.55L-127.83,-35.59ZM-178.22,118.05C-195.93,119.29 -207.13,107.08 -208.82,82.89C-210.50,58.71 -200.63,45.03 -182.92,43.80C-166.16,42.63 -154.45,55.28 -152.86,78.03C-151.17,102.21 -161.22,116.86 -178.22,118.05ZM-4.73,128.80L117.14,120.30L115.28,93.72L26.46,99.92L23.65,59.70L90.93,55.01L89.16,29.63L21.88,34.32L19.14,-4.94L104.61,-10.91L102.76,-37.48L-15.75,-29.21ZM251.48,90.72C245.74,91.12 242.66,88.45 242.23,82.22L238.84,33.62C236.78,4.17 214.68,-9.20 183.32,-7.02C152.19,-4.84 134.96,10.31 130.93,31.76L159.54,38.43C162.63,24.02 171.82,17.85 183.55,17.03C196.24,16.14 205.43,23.68 206.38,37.33L206.70,41.88L166.10,53.13C144.85,58.94 133.92,71.25 135.16,88.97C136.63,110.04 152.50,120.24 176.92,118.53C192.00,117.48 206.89,110.19 213.78,98.64C218.16,109.64 229.56,114.38 243.22,113.67C249.68,113.22 254.87,111.65 258.57,109.47L259.06,88.99C256.96,89.85 254.12,90.53 251.48,90.72ZM183.68,94.73C175.30,95.31 168.29,91.47 167.74,83.57C167.16,75.19 172.46,71.93 183.33,69.01L208.12,62.23L208.63,69.65C209.85,87.13 197.32,93.77 183.68,94.73ZM280.90,108.87L313.70,106.59L309.37,44.58C307.87,23.03 321.76,11.72 336.36,10.70C343.78,10.18 347.90,10.61 351.34,11.58L353.25,-16.22C350.26,-17.70 345.40,-18.32 340.14,-17.96C321.46,-16.65 309.90,-6.46 304.83,10.49L301.04,-12.82L272.55,-10.83ZM457.47,67.21C452.74,71.87 447.40,74.64 439.26,75.21C428.96,75.93 422.39,71.34 421.59,59.84L417.66,3.58L455.97,0.91L454.27,-23.51L415.96,-20.84L413.40,-57.47L381.24,-46.08L383.16,-18.55L361.13,-17.01L362.84,7.41L384.86,5.87L389.15,67.40C390.99,93.74 408.20,102.40 432.38,100.71C445.07,99.83 456.79,95.40 464.25,88.62ZM484.88,94.64L517.68,92.36L513.27,29.15C511.60,5.21 524.62,-4.84 538.50,-5.81C550.95,-6.68 560.28,-0.59 561.71,20.00L566.52,88.95L599.32,86.66L593.85,8.13C591.82,-20.84 572.61,-34.17 547.71,-32.44C530.71,-31.25 517.34,-22.86 510.75,-7.00L505.67,-79.79L472.87,-77.50Z" fill="#ffffff" stroke="#000000"/>
    <path d="M-805.53,-115.64L-734.78,-121.82C-697.64,-125.06 -679.15,-142.65 -681.50,-169.62C-683.09,-187.84 -696.44,-201.45 -718.47,-202.63L-718.49,-202.87C-699.14,-207.89 -690.23,-223.21 -691.70,-240.01C-694.05,-266.99 -712.92,-281.07 -750.78,-277.77L-819.16,-271.80ZM-781.73,-209.03L-785.24,-249.25L-752.83,-252.08C-735.56,-253.59 -726.46,-247.71 -725.28,-234.22C-724.11,-220.73 -732.04,-213.37 -749.32,-211.86ZM-775.97,-143.02L-779.54,-183.95L-743.34,-187.11C-725.83,-188.64 -716.68,-182.05 -715.54,-169.03C-714.40,-156.02 -722.26,-147.71 -739.77,-146.18ZM-543.45,-158.54C-549.13,-158.05 -552.22,-160.64 -552.75,-166.79L-556.95,-214.82C-559.49,-243.92 -581.59,-256.78 -612.58,-254.07C-643.34,-251.39 -660.12,-236.09 -663.75,-214.80L-635.32,-208.70C-632.52,-223.01 -623.53,-229.27 -611.94,-230.29C-599.40,-231.38 -590.18,-224.08 -589.00,-210.59L-588.61,-206.10L-628.58,-194.27C-649.50,-188.15 -660.10,-175.78 -658.58,-158.27C-656.76,-137.45 -640.88,-127.63 -616.75,-129.74C-601.84,-131.04 -587.24,-138.51 -580.62,-150.06C-576.10,-139.25 -564.74,-134.75 -551.23,-135.69C-544.84,-136.25 -539.74,-137.89 -536.12,-140.11L-535.98,-160.39C-538.05,-159.49 -540.85,-158.77 -543.45,-158.54ZM-610.47,-153.41C-618.75,-152.69 -625.75,-156.37 -626.43,-164.18C-627.15,-172.46 -621.96,-175.77 -611.26,-178.85L-586.85,-185.99L-586.21,-178.65C-584.70,-161.38 -596.98,-154.59 -610.47,-153.41ZM-472.66,-142.31C-453.49,-143.99 -440.18,-152.54 -433.73,-168.84L-430.75,-148.36L-401.89,-150.88L-412.21,-269.18L-444.63,-266.35L-439.07,-202.70C-437.15,-180.70 -448.86,-170.14 -462.35,-168.96C-476.55,-167.72 -484.87,-172.96 -486.48,-191.41L-492.66,-262.15L-525.07,-259.32L-518.21,-180.77C-515.59,-150.73 -496.32,-140.25 -472.66,-142.31ZM-364.50,-154.14L-244.07,-164.65L-246.37,-190.91L-334.14,-183.25L-337.61,-223.00L-271.13,-228.80L-273.32,-253.88L-339.80,-248.08L-343.19,-286.88L-258.72,-294.25L-261.02,-320.52L-378.13,-310.29ZM-218.05,-166.92L-185.63,-169.75L-190.98,-231.03C-192.84,-252.32 -179.30,-263.76 -164.86,-265.02C-157.53,-265.66 -153.44,-265.30 -150.03,-264.41L-148.62,-291.95C-151.60,-293.35 -156.42,-293.89 -161.62,-293.43C-180.08,-291.82 -191.34,-281.54 -196.06,-264.68L-200.22,-287.68L-228.37,-285.22ZM-51.19,-352.90L-44.93,-281.21C-52.49,-294.14 -65.80,-301.80 -82.83,-300.31C-112.17,-297.75 -132.69,-273.31 -129.26,-234.03C-125.89,-195.47 -102.62,-174.61 -73.28,-177.17C-55.53,-178.72 -41.69,-189.47 -36.45,-205.90L-33.03,-183.07L-3.92,-185.61L-18.77,-355.73ZM-65.98,-202.84C-83.49,-201.32 -94.78,-213.20 -96.87,-237.10C-98.95,-261.00 -89.42,-274.70 -71.91,-276.23C-55.35,-277.68 -43.55,-265.36 -41.58,-242.88C-39.50,-218.98 -49.18,-204.31 -65.98,-202.84ZM133.97,-263.69C131.21,-295.39 108.58,-317.02 72.85,-313.90C37.60,-310.82 14.97,-285.96 18.36,-247.16C21.75,-208.36 47.86,-187.75 85.24,-191.01C109.38,-193.12 129.03,-205.56 134.97,-224.91L108.32,-232.60C104.41,-222.72 96.86,-216.34 82.90,-215.12C66.58,-213.70 55.17,-221.52 50.95,-239.75L134.47,-247.04C134.57,-251.34 134.53,-257.30 133.97,-263.69ZM74.70,-289.98C89.37,-291.26 99.14,-283.06 102.22,-266.87L49.23,-262.25C50.84,-279.32 59.79,-288.68 74.70,-289.98ZM227.11,-327.36C208.89,-325.77 194.93,-316.45 189.04,-299.25L185.91,-321.38L156.81,-318.84L167.14,-200.54L199.55,-203.37L194.08,-266.07C192.01,-289.73 204.74,-299.66 218.22,-300.84C230.53,-301.91 240.10,-296.07 241.85,-275.96L247.82,-207.59L280.23,-210.41L273.46,-288.02C270.96,-316.65 251.72,-329.51 227.11,-327.36ZM582.11,-313.53L381.00,-295.98L383.33,-269.24L584.44,-286.79ZM-676.05,189.18L-605.30,183.00C-568.16,179.76 -549.67,162.17 -552.02,135.20C-553.61,116.98 -566.96,103.37 -588.99,102.19L-589.02,101.95C-569.67,96.93 -560.75,81.61 -562.22,64.81C-564.57,37.84 -583.44,23.75 -621.30,27.05L-689.68,33.02ZM-652.25,95.79L-655.76,55.57L-623.35,52.74C-606.08,51.23 -596.98,57.11 -595.81,70.60C-594.63,84.09 -602.57,91.46 -619.84,92.96ZM-646.49,161.80L-650.06,120.87L-613.86,117.71C-596.36,116.18 -587.20,122.77 -586.06,135.79C-584.93,148.80 -592.78,157.12 -610.29,158.64ZM-478.99,174.36C-459.83,172.69 -446.51,164.14 -440.06,147.84L-437.08,168.32L-408.22,165.80L-418.54,47.50L-450.96,50.33L-445.40,113.97C-443.48,135.98 -455.19,146.54 -468.68,147.71C-482.88,148.95 -491.20,143.72 -492.81,125.26L-498.99,54.52L-531.40,57.35L-524.54,135.90C-521.92,165.95 -502.65,176.43 -478.99,174.36ZM-369.63,26.07C-356.15,24.89 -350.02,18.63 -351.03,7.04C-352.04,-4.56 -359.18,-9.89 -372.67,-8.72C-386.16,-7.54 -392.26,-1.04 -391.25,10.55C-390.24,22.14 -383.12,27.24 -369.63,26.07ZM-352.06,41.70L-384.47,44.53L-374.15,162.83L-341.73,160.00ZM-290.33,-15.90L-322.75,-13.07L-310.77,124.16C-308.62,148.76 -297.52,158.52 -274.57,156.52C-266.76,155.84 -257.93,153.16 -253.00,149.63L-252.02,128.09C-257.06,130.43 -259.62,131.13 -265.06,131.61C-273.81,132.37 -277.71,128.66 -278.66,117.78ZM-164.93,-26.85L-158.68,44.84C-166.24,31.91 -179.55,24.25 -196.58,25.74C-225.92,28.30 -246.43,52.74 -243.01,92.02C-239.64,130.58 -216.36,151.44 -187.03,148.88C-169.28,147.33 -155.44,136.58 -150.20,120.15L-146.77,142.98L-117.67,140.44L-132.52,-29.68ZM-179.73,123.21C-197.24,124.74 -208.53,112.85 -210.61,88.95C-212.70,65.05 -203.17,51.35 -185.66,49.82C-169.10,48.37 -157.29,60.69 -155.33,83.17C-153.25,107.07 -162.93,121.74 -179.73,123.21ZM-7.89,130.86L112.54,120.34L110.25,94.08L22.47,101.74L19.00,62.00L85.48,56.19L83.30,31.11L16.81,36.92L13.42,-1.89L97.89,-9.26L95.60,-35.52L-21.52,-25.30ZM244.96,88.76C239.28,89.26 236.19,86.67 235.66,80.51L231.46,32.48C228.92,3.38 206.82,-9.47 175.83,-6.76C145.07,-4.08 128.29,11.21 124.66,32.51L153.09,38.61C155.89,24.30 164.88,18.03 176.47,17.02C189.01,15.92 198.23,23.23 199.41,36.71L199.80,41.21L159.83,53.04C138.91,59.16 128.31,71.53 129.83,89.04C131.65,109.86 147.53,119.68 171.66,117.57C186.57,116.27 201.17,108.79 207.79,97.25C212.31,108.06 223.67,112.55 237.18,111.61C243.57,111.05 248.67,109.42 252.29,107.19L252.43,86.92C250.36,87.81 247.56,88.53 244.96,88.76ZM177.94,93.90C169.66,94.62 162.66,90.94 161.98,83.13C161.26,74.85 166.45,71.53 177.15,68.46L201.56,61.32L202.20,68.65C203.71,85.92 191.42,92.72 177.94,93.90ZM274.38,106.22L306.79,103.39L301.44,42.11C299.58,20.82 313.13,9.38 327.56,8.12C334.89,7.48 338.98,7.84 342.39,8.74L343.80,-18.80C340.82,-20.21 336.01,-20.75 330.80,-20.29C312.35,-18.68 301.09,-8.40 296.36,8.46L292.21,-14.54L264.05,-12.08ZM448.36,61.95C443.76,66.64 438.53,69.48 430.48,70.18C420.31,71.07 413.72,66.64 412.73,55.28L407.88,-0.32L445.74,-3.62L443.63,-27.76L405.77,-24.45L402.61,-60.65L370.98,-48.83L373.36,-21.62L351.59,-19.72L353.70,4.41L375.47,2.51L380.77,63.32C383.04,89.34 400.22,97.62 424.11,95.53C436.65,94.44 448.17,89.86 455.44,83.02ZM475.96,88.62L508.37,85.79L502.92,23.33C500.86,-0.33 513.56,-10.50 527.28,-11.69C539.58,-12.77 548.92,-6.91 550.69,13.44L556.64,81.58L589.05,78.75L582.28,1.15C579.78,-27.48 560.54,-40.34 535.93,-38.20C519.13,-36.73 506.05,-28.20 499.80,-12.39L493.52,-84.32L461.11,-81.49Z" fill="#ffffff" stroke="#000000"/>
    <path d="M-804.23,-97.14L-734.35,-104.47C-697.66,-108.31 -679.67,-126.03 -682.46,-152.67C-684.35,-170.67 -697.79,-183.91 -719.61,-184.70L-719.63,-184.93C-700.58,-190.24 -692.02,-205.55 -693.76,-222.14C-696.56,-248.78 -715.47,-262.40 -752.86,-258.47L-820.41,-251.39ZM-782.30,-189.94L-786.47,-229.67L-754.45,-233.03C-737.39,-234.81 -728.29,-229.15 -726.89,-215.83C-725.49,-202.51 -733.22,-195.08 -750.28,-193.29ZM-775.46,-124.73L-779.70,-165.16L-743.94,-168.91C-726.65,-170.73 -717.48,-164.36 -716.13,-151.51C-714.78,-138.65 -722.41,-130.29 -739.70,-128.48ZM-545.70,-144.10C-551.30,-143.51 -554.40,-146.02 -555.04,-152.10L-560.02,-199.54C-563.03,-228.29 -585.12,-240.62 -615.73,-237.41C-646.12,-234.22 -662.46,-218.81 -665.68,-197.68L-637.45,-192.13C-634.92,-206.34 -626.14,-212.69 -614.69,-213.89C-602.30,-215.19 -593.05,-208.13 -591.65,-194.80L-591.19,-190.36L-630.53,-177.97C-651.12,-171.56 -661.40,-159.14 -659.59,-141.84C-657.43,-121.27 -641.55,-111.83 -617.71,-114.33C-602.99,-115.88 -588.67,-123.52 -582.32,-135.06C-577.66,-124.44 -566.35,-120.19 -553.00,-121.36C-546.69,-122.02 -541.67,-123.73 -538.13,-125.99L-538.34,-146.05C-540.37,-145.13 -543.12,-144.37 -545.70,-144.10ZM-611.91,-137.86C-620.09,-137.00 -627.08,-140.52 -627.89,-148.24C-628.74,-156.42 -623.66,-159.79 -613.13,-163.02L-589.11,-170.50L-588.35,-163.25C-586.56,-146.19 -598.59,-139.26 -611.91,-137.86ZM-475.38,-129.26C-456.45,-131.24 -443.42,-139.93 -437.32,-156.17L-434.02,-135.96L-405.51,-138.95L-417.76,-255.81L-449.78,-252.45L-443.19,-189.58C-440.91,-167.84 -452.32,-157.20 -465.64,-155.80C-479.66,-154.33 -487.99,-159.36 -489.90,-177.59L-497.23,-247.47L-529.25,-244.12L-521.11,-166.52C-518.00,-136.84 -498.75,-126.81 -475.38,-129.26ZM-368.58,-142.82L-249.62,-155.29L-252.34,-181.24L-339.05,-172.14L-343.17,-211.41L-277.49,-218.30L-280.09,-243.07L-345.76,-236.18L-349.78,-274.51L-266.35,-283.26L-269.07,-309.21L-384.76,-297.07ZM-223.91,-157.99L-191.89,-161.35L-198.24,-221.88C-200.44,-242.92 -187.24,-254.46 -172.98,-255.96C-165.74,-256.72 -161.69,-256.43 -158.30,-255.61L-157.38,-282.88C-160.35,-284.22 -165.12,-284.66 -170.27,-284.12C-188.50,-282.21 -199.46,-271.85 -203.85,-255.08L-208.35,-277.77L-236.16,-274.85ZM-62.04,-344.86L-54.61,-274.04C-62.32,-286.70 -75.61,-294.05 -92.44,-292.28C-121.42,-289.24 -141.29,-264.71 -137.23,-225.92C-133.23,-187.82 -109.84,-167.59 -80.86,-170.63C-63.33,-172.47 -49.82,-183.33 -44.92,-199.68L-41.14,-177.16L-12.39,-180.17L-30.02,-348.21ZM-74.09,-196.15C-91.38,-194.33 -102.76,-205.90 -105.23,-229.51C-107.71,-253.11 -98.51,-266.84 -81.22,-268.65C-64.86,-270.37 -52.97,-258.38 -50.64,-236.18C-48.16,-212.57 -57.49,-197.89 -74.09,-196.15ZM122.68,-259.79C119.40,-291.10 96.64,-312.11 61.35,-308.41C26.52,-304.76 4.57,-279.77 8.59,-241.44C12.61,-203.11 38.80,-183.18 75.73,-187.05C99.57,-189.55 118.80,-202.20 124.34,-221.44L97.84,-228.59C94.14,-218.75 86.78,-212.31 73.00,-210.86C56.87,-209.17 45.44,-216.72 40.96,-234.68L123.46,-243.33C123.49,-247.58 123.35,-253.48 122.68,-259.79ZM63.59,-284.78C78.08,-286.30 87.89,-278.35 91.22,-262.39L38.87,-256.90C40.17,-273.82 48.87,-283.24 63.59,-284.78ZM213.73,-324.39C195.74,-322.50 182.08,-313.04 176.55,-295.92L173.08,-317.76L144.33,-314.75L156.58,-197.89L188.60,-201.25L182.11,-263.18C179.66,-286.55 192.07,-296.60 205.40,-298.00C217.55,-299.27 227.12,-293.66 229.20,-273.79L236.28,-206.25L268.30,-209.60L260.26,-286.26C257.30,-314.54 238.04,-326.94 213.73,-324.39ZM565.18,-316.82L366.52,-295.99L369.29,-269.58L567.95,-290.41ZM-670.89,202.20L-601.00,194.87C-564.31,191.02 -546.32,173.30 -549.11,146.66C-551.00,128.66 -564.44,115.42 -586.26,114.64L-586.29,114.41C-567.23,109.10 -558.68,93.79 -560.42,77.20C-563.21,50.55 -582.12,36.94 -619.52,40.86L-687.06,47.94ZM-648.95,109.40L-653.12,69.67L-621.10,66.31C-604.04,64.52 -594.94,70.18 -593.54,83.50C-592.15,96.83 -599.87,104.25 -616.94,106.04ZM-642.12,174.61L-646.36,134.17L-610.60,130.42C-593.30,128.61 -584.13,134.97 -582.78,147.83C-581.43,160.68 -589.06,169.04 -606.36,170.86ZM-476.19,184.14C-457.26,182.16 -444.23,173.47 -438.13,157.23L-434.83,177.45L-406.32,174.46L-418.57,57.60L-450.59,60.95L-444.00,123.82C-441.72,145.56 -453.13,156.21 -466.45,157.60C-480.47,159.07 -488.80,154.04 -490.71,135.81L-498.04,65.93L-530.05,69.29L-521.92,146.88C-518.81,176.56 -499.56,186.60 -476.19,184.14ZM-370.55,35.55C-357.23,34.15 -351.28,27.86 -352.48,16.40C-353.68,4.95 -360.83,-0.21 -374.16,1.19C-387.48,2.59 -393.41,9.12 -392.21,20.57C-391.01,32.02 -383.88,36.95 -370.55,35.55ZM-352.90,50.71L-384.92,54.07L-372.66,170.93L-340.64,167.57ZM-292.82,-7.34L-324.84,-3.98L-310.63,131.58C-308.08,155.88 -296.93,165.35 -274.25,162.97C-266.54,162.16 -257.86,159.36 -253.03,155.78L-252.43,134.45C-257.38,136.86 -259.90,137.60 -265.28,138.16C-273.93,139.07 -277.85,135.46 -278.98,124.71ZM-168.95,-20.33L-161.53,50.49C-169.23,37.83 -182.53,30.48 -199.35,32.25C-228.34,35.29 -248.21,59.82 -244.14,98.61C-240.15,136.71 -216.76,156.94 -187.78,153.90C-170.25,152.06 -156.74,141.20 -151.84,124.85L-148.06,147.37L-119.31,144.36L-136.93,-23.68ZM-181.00,128.38C-198.30,130.20 -209.67,118.63 -212.15,95.02C-214.62,71.42 -205.43,57.69 -188.13,55.88C-171.77,54.16 -159.88,66.15 -157.55,88.35C-155.08,111.96 -164.41,126.64 -181.00,128.38ZM-10.87,132.99L108.10,120.51L105.38,94.57L18.67,103.66L14.55,64.40L80.23,57.51L77.63,32.74L11.95,39.62L7.93,1.29L91.37,-7.45L88.65,-33.40L-27.04,-21.27ZM238.56,86.99C232.95,87.57 229.85,85.06 229.21,78.99L224.24,31.54C221.22,2.79 199.14,-9.54 168.52,-6.33C138.14,-3.14 121.79,12.28 118.58,33.41L146.80,38.95C149.33,24.75 158.12,18.39 169.57,17.19C181.95,15.89 191.20,22.96 192.60,36.28L193.06,40.72L153.72,53.11C133.13,59.53 122.85,71.95 124.67,89.24C126.82,109.81 142.70,119.25 166.54,116.75C181.26,115.20 195.58,107.56 201.94,96.02C206.59,106.64 217.91,110.89 231.25,109.73C237.56,109.06 242.58,107.36 246.13,105.09L245.91,85.03C243.88,85.95 241.13,86.72 238.56,86.99ZM172.34,93.22C164.16,94.08 157.18,90.56 156.37,82.84C155.51,74.66 160.59,71.30 171.12,68.07L195.15,60.58L195.91,67.83C197.70,84.89 185.66,91.82 172.34,93.22ZM267.96,103.75L299.98,100.39L293.63,39.86C291.43,18.83 304.63,7.28 318.89,5.79C326.13,5.03 330.18,5.31 333.57,6.14L334.49,-21.13C331.52,-22.48 326.75,-22.92 321.60,-22.38C303.37,-20.47 292.41,-10.11 288.02,6.66L283.52,-16.03L255.71,-13.11ZM439.33,56.95C434.86,61.68 429.73,64.58 421.78,65.41C411.73,66.46 405.14,62.19 403.96,50.97L398.20,-3.95L435.60,-7.87L433.10,-31.71L395.70,-27.79L391.96,-63.55L360.87,-51.31L363.69,-24.43L342.18,-22.18L344.68,1.66L366.19,-0.59L372.48,59.47C375.18,85.18 392.31,93.07 415.92,90.60C428.30,89.30 439.62,84.57 446.70,77.68ZM467.09,82.87L499.11,79.51L492.64,17.81C490.19,-5.56 502.58,-15.84 516.13,-17.26C528.29,-18.54 537.62,-12.90 539.73,7.20L546.79,74.51L578.81,71.16L570.77,-5.50C567.80,-33.78 548.55,-46.18 524.24,-43.63C507.64,-41.89 494.85,-33.22 488.94,-17.48L481.49,-88.53L449.47,-85.17Z" fill="#ffffff" stroke="#000000"/>
    <path d="M-802.43,-78.79L-733.43,-87.24C-697.20,-91.68 -679.71,-109.52 -682.93,-135.82C-685.10,-153.59 -698.63,-166.46 -720.23,-166.86L-720.25,-167.09C-701.50,-172.67 -693.30,-187.96 -695.30,-204.34C-698.53,-230.65 -717.47,-243.79 -754.39,-239.27L-821.09,-231.10ZM-782.33,-170.96L-787.14,-210.19L-755.52,-214.07C-738.68,-216.13 -729.58,-210.69 -727.97,-197.53C-726.35,-184.38 -733.87,-176.90 -750.72,-174.84ZM-774.45,-106.58L-779.34,-146.50L-744.03,-150.83C-726.95,-152.92 -717.77,-146.78 -716.21,-134.09C-714.66,-121.40 -722.06,-112.99 -739.14,-110.90ZM-547.49,-129.69C-553.03,-129.01 -556.14,-131.44 -556.87,-137.44L-562.61,-184.29C-566.09,-212.68 -588.15,-224.50 -618.38,-220.79C-648.38,-217.12 -664.28,-201.59 -667.10,-180.63L-639.08,-175.63C-636.83,-189.72 -628.25,-196.16 -616.94,-197.55C-604.71,-199.05 -595.44,-192.22 -593.83,-179.06L-593.29,-174.68L-631.99,-161.74C-652.25,-155.04 -662.21,-142.58 -660.11,-125.50C-657.63,-105.19 -641.76,-96.13 -618.22,-99.01C-603.68,-100.79 -589.65,-108.60 -583.56,-120.12C-578.77,-109.70 -567.51,-105.69 -554.32,-107.07C-548.09,-107.84 -543.16,-109.61 -539.69,-111.91L-540.25,-131.75C-542.24,-130.80 -544.95,-130.00 -547.49,-129.69ZM-612.88,-122.39C-620.96,-121.40 -627.93,-124.76 -628.86,-132.37C-629.85,-140.45 -624.89,-143.87 -614.52,-147.25L-590.89,-155.06L-590.01,-147.91C-587.95,-131.06 -599.73,-124.00 -612.88,-122.39ZM-477.68,-116.23C-458.98,-118.52 -446.25,-127.34 -440.50,-143.50L-436.88,-123.57L-408.73,-127.02L-422.86,-242.40L-454.48,-238.53L-446.87,-176.45C-444.24,-154.99 -455.35,-144.26 -468.50,-142.65C-482.35,-140.95 -490.67,-145.79 -492.87,-163.79L-501.33,-232.79L-532.94,-228.92L-523.56,-152.30C-519.97,-122.99 -500.75,-113.40 -477.68,-116.23ZM-372.27,-131.48L-254.80,-145.87L-257.94,-171.49L-343.56,-161.00L-348.31,-199.77L-283.46,-207.71L-286.45,-232.18L-351.30,-224.23L-355.94,-262.08L-273.55,-272.17L-276.69,-297.79L-390.92,-283.79ZM-229.42,-148.98L-197.80,-152.85L-205.12,-212.62C-207.67,-233.39 -194.80,-245.04 -180.73,-246.77C-173.57,-247.64 -169.56,-247.43 -166.19,-246.67L-165.75,-273.66C-168.72,-274.94 -173.45,-275.30 -178.52,-274.68C-196.52,-272.47 -207.19,-262.03 -211.24,-245.37L-216.09,-267.73L-243.55,-264.37ZM-72.51,-336.62L-63.94,-266.69C-71.78,-279.09 -85.06,-286.13 -101.68,-284.09C-130.29,-280.58 -149.53,-255.98 -144.84,-217.67C-140.23,-180.05 -116.75,-160.44 -88.13,-163.95C-70.82,-166.07 -57.64,-177.05 -53.08,-193.30L-48.95,-171.09L-20.56,-174.56L-40.89,-340.49ZM-81.87,-189.31C-98.94,-187.22 -110.39,-198.46 -113.25,-221.77C-116.10,-245.08 -107.25,-258.81 -90.17,-260.90C-74.01,-262.88 -62.05,-251.23 -59.36,-229.31C-56.51,-206.00 -65.48,-191.32 -81.87,-189.31ZM111.69,-255.65C107.90,-286.57 85.02,-306.96 50.17,-302.69C15.79,-298.48 -5.50,-273.38 -0.86,-235.54C3.77,-197.69 30.03,-178.42 66.49,-182.89C90.03,-185.77 108.83,-198.61 113.99,-217.75L87.64,-224.36C84.16,-214.56 76.99,-208.07 63.38,-206.40C47.45,-204.45 36.02,-211.71 31.28,-229.40L112.74,-239.38C112.69,-243.59 112.45,-249.42 111.69,-255.65ZM52.80,-279.35C67.11,-281.11 76.95,-273.41 80.52,-257.69L28.82,-251.35C29.82,-268.11 38.26,-277.57 52.80,-279.35ZM200.64,-321.12C182.87,-318.95 169.52,-309.35 164.35,-292.32L160.54,-313.87L132.15,-310.39L146.29,-195.00L177.90,-198.88L170.41,-260.03C167.58,-283.11 179.69,-293.26 192.85,-294.87C204.85,-296.34 214.41,-290.95 216.81,-271.34L224.98,-204.64L256.60,-208.52L247.32,-284.21C243.90,-312.13 224.64,-324.06 200.64,-321.12ZM548.42,-319.69L352.27,-295.66L355.46,-269.58L551.62,-293.61ZM-665.36,215.02L-596.36,206.57C-560.13,202.13 -542.64,184.29 -545.86,157.99C-548.04,140.22 -561.56,127.35 -583.16,126.95L-583.19,126.72C-564.43,121.14 -556.23,105.85 -558.24,89.46C-561.46,63.16 -580.40,50.02 -617.33,54.54L-684.02,62.71ZM-645.27,122.85L-650.07,83.62L-618.46,79.74C-601.61,77.68 -592.51,83.12 -590.90,96.28C-589.29,109.43 -596.81,116.91 -613.65,118.97ZM-637.38,187.23L-642.27,147.31L-606.96,142.98C-589.89,140.89 -580.70,147.03 -579.15,159.72C-577.59,172.41 -585.00,180.82 -602.07,182.91ZM-473.08,193.81C-454.38,191.52 -441.65,182.70 -435.90,166.53L-432.28,186.47L-404.13,183.02L-418.26,67.63L-449.88,71.51L-442.27,133.58C-439.64,155.05 -450.75,165.78 -463.90,167.39C-477.75,169.08 -486.07,164.25 -488.27,146.25L-496.73,77.24L-528.34,81.12L-518.96,157.73C-515.37,187.04 -496.15,196.64 -473.08,193.81ZM-371.14,45.00C-357.99,43.38 -352.21,37.05 -353.59,25.75C-354.98,14.44 -362.14,9.46 -375.30,11.07C-388.45,12.68 -394.21,19.24 -392.82,30.55C-391.44,41.86 -384.30,46.61 -371.14,45.00ZM-353.41,59.69L-385.03,63.56L-370.90,178.95L-339.28,175.08ZM-294.99,1.23L-326.60,5.11L-310.21,138.96C-307.27,162.96 -296.07,172.13 -273.69,169.38C-266.07,168.45 -257.53,165.53 -252.82,161.91L-252.59,140.80C-257.45,143.27 -259.93,144.04 -265.24,144.69C-273.77,145.74 -277.72,142.24 -279.02,131.62ZM-172.68,-13.75L-164.11,56.18C-171.95,43.79 -185.23,36.74 -201.85,38.78C-230.46,42.29 -249.70,66.89 -245.01,105.20C-240.40,142.82 -216.92,162.43 -188.30,158.92C-170.99,156.80 -157.82,145.82 -153.25,129.57L-149.12,151.78L-120.74,148.31L-141.06,-17.62ZM-182.04,133.56C-199.12,135.65 -210.57,124.41 -213.42,101.10C-216.28,77.79 -207.42,64.06 -190.34,61.97C-174.19,59.99 -162.22,71.64 -159.53,93.56C-156.68,116.87 -165.65,131.56 -182.04,133.56ZM-13.66,135.19L103.81,120.80L100.67,95.18L15.05,105.67L10.30,66.90L75.15,58.96L72.15,34.50L7.31,42.44L2.67,4.59L85.06,-5.50L81.92,-31.12L-32.31,-17.12ZM232.28,85.39C226.74,86.06 223.64,83.63 222.90,77.63L217.16,30.79C213.68,2.40 191.62,-9.42 161.39,-5.72C131.39,-2.04 115.49,13.49 112.67,34.45L140.69,39.45C142.95,25.35 151.53,18.92 162.83,17.53C175.07,16.03 184.33,22.86 185.95,36.02L186.48,40.40L147.78,53.34C127.52,60.04 117.57,72.50 119.66,89.58C122.15,109.89 138.01,118.95 161.55,116.07C176.09,114.29 190.13,106.48 196.21,94.96C201.00,105.38 212.27,109.39 225.45,108.01C231.68,107.24 236.62,105.47 240.08,103.17L239.53,83.33C237.53,84.27 234.82,85.07 232.28,85.39ZM166.89,92.69C158.81,93.68 151.84,90.32 150.91,82.70C149.92,74.63 154.89,71.21 165.25,67.83L188.89,60.02L189.76,67.17C191.83,84.02 180.04,91.08 166.89,92.69ZM261.66,101.46L293.27,97.59L285.95,37.82C283.41,17.05 296.27,5.40 310.35,3.68C317.50,2.80 321.51,3.01 324.88,3.77L325.32,-23.22C322.36,-24.50 317.63,-24.85 312.55,-24.23C294.55,-22.03 283.88,-11.59 279.83,5.07L274.99,-17.29L247.52,-13.92ZM430.37,52.22C426.03,56.97 421.00,59.92 413.16,60.89C403.24,62.10 396.64,57.99 395.28,46.91L388.64,-7.32L425.57,-11.84L422.68,-35.38L385.76,-30.86L381.43,-66.17L350.89,-53.52L354.14,-26.99L332.91,-24.38L335.79,-0.85L357.02,-3.45L364.29,55.86C367.40,81.25 384.48,88.76 407.79,85.90C420.02,84.41 431.14,79.53 438.02,72.60ZM458.28,77.38L489.89,73.50L482.43,12.58C479.60,-10.50 491.68,-20.88 505.07,-22.52C517.07,-23.99 526.40,-18.57 528.83,1.27L536.97,67.74L568.59,63.86L559.32,-11.83C555.90,-39.75 536.63,-51.68 512.63,-48.74C496.25,-46.74 483.74,-37.94 478.16,-22.27L469.57,-92.42L437.95,-88.55Z" fill="#ffffff" stroke="#000000"/>
    <path d="M-800.12,-60.61L-732.02,-70.16C-696.26,-75.17 -679.26,-93.11 -682.91,-119.08C-685.36,-136.62 -698.96,-149.11 -720.33,-149.13L-720.36,-149.36C-701.90,-155.20 -694.06,-170.47 -696.33,-186.64C-699.97,-212.61 -718.93,-225.28 -755.37,-220.17L-821.20,-210.94ZM-781.83,-152.12L-787.26,-190.84L-756.06,-195.22C-739.43,-197.55 -730.33,-192.32 -728.51,-179.34C-726.69,-166.36 -734.00,-158.83 -750.63,-156.50ZM-772.92,-88.57L-778.45,-127.98L-743.60,-132.87C-726.74,-135.23 -717.55,-129.32 -715.80,-116.79C-714.04,-104.26 -721.22,-95.82 -738.07,-93.46ZM-548.84,-115.35C-554.30,-114.58 -557.42,-116.93 -558.25,-122.85L-564.73,-169.09C-568.66,-197.11 -590.69,-208.42 -620.53,-204.24C-650.14,-200.08 -665.59,-184.45 -668.02,-163.67L-640.22,-159.20C-638.24,-173.19 -629.86,-179.70 -618.70,-181.27C-606.63,-182.96 -597.34,-176.37 -595.52,-163.38L-594.91,-159.05L-632.97,-145.59C-652.90,-138.62 -662.52,-126.12 -660.16,-109.26C-657.35,-89.22 -641.50,-80.53 -618.27,-83.78C-603.92,-85.79 -590.17,-93.76 -584.35,-105.26C-579.43,-95.03 -568.22,-91.26 -555.21,-92.86C-549.06,-93.72 -544.21,-95.56 -540.82,-97.89L-541.71,-117.51C-543.66,-116.54 -546.33,-115.70 -548.84,-115.35ZM-613.39,-106.99C-621.37,-105.88 -628.32,-109.08 -629.37,-116.60C-630.49,-124.57 -625.63,-128.04 -615.44,-131.56L-592.20,-139.69L-591.21,-132.63C-588.88,-116.01 -600.41,-108.81 -613.39,-106.99ZM-479.55,-103.23C-461.11,-105.82 -448.66,-114.76 -443.25,-130.85L-439.33,-111.19L-411.54,-115.09L-427.51,-228.98L-458.72,-224.60L-450.12,-163.33C-447.15,-142.15 -457.95,-131.34 -470.93,-129.52C-484.60,-127.61 -492.91,-132.25 -495.40,-150.01L-504.95,-218.12L-536.16,-213.74L-525.55,-138.12C-521.50,-109.20 -502.33,-100.04 -479.55,-103.23ZM-375.55,-120.14L-259.62,-136.39L-263.16,-161.67L-347.67,-149.83L-353.03,-188.09L-289.03,-197.07L-292.41,-221.21L-356.42,-212.24L-361.66,-249.59L-280.34,-260.99L-283.89,-286.27L-396.63,-270.47ZM-234.56,-139.91L-203.36,-144.28L-211.63,-203.27C-214.50,-223.77 -201.98,-235.52 -188.09,-237.46C-181.03,-238.45 -177.06,-238.31 -173.71,-237.62L-173.74,-264.33C-176.70,-265.54 -181.38,-265.81 -186.39,-265.11C-204.16,-262.62 -214.53,-252.10 -218.25,-235.56L-223.43,-257.59L-250.53,-253.79ZM-82.60,-328.20L-72.92,-259.19C-80.89,-271.31 -94.14,-278.04 -110.54,-275.74C-138.79,-271.78 -157.39,-247.11 -152.09,-209.30C-146.88,-172.17 -123.32,-153.18 -95.08,-157.14C-77.99,-159.54 -65.15,-170.63 -60.91,-186.78L-56.45,-164.88L-28.43,-168.81L-51.39,-332.58ZM-89.32,-182.33C-106.17,-179.97 -117.69,-190.90 -120.92,-213.90C-124.14,-236.91 -115.62,-250.64 -98.76,-253.01C-82.82,-255.24 -70.78,-243.92 -67.75,-222.29C-64.52,-199.28 -73.15,-184.60 -89.32,-182.33ZM100.98,-251.29C96.70,-281.81 73.72,-301.58 39.33,-296.76C5.39,-292.00 -15.23,-266.81 -9.99,-229.46C-4.76,-192.10 21.54,-173.49 57.53,-178.54C80.76,-181.80 99.14,-194.82 103.91,-213.84L77.74,-219.93C74.46,-210.18 67.48,-203.62 54.05,-201.74C38.33,-199.54 26.90,-206.53 21.90,-223.94L102.31,-235.21C102.19,-239.38 101.84,-245.14 100.98,-251.29ZM42.33,-273.72C56.45,-275.70 66.32,-268.26 70.12,-252.76L19.10,-245.61C19.79,-262.20 27.98,-271.71 42.33,-273.72ZM187.84,-317.58C170.30,-315.12 157.26,-305.40 152.44,-288.46L148.30,-309.71L120.28,-305.78L136.25,-191.90L167.45,-196.27L158.99,-256.63C155.80,-279.41 167.60,-289.66 180.58,-291.48C192.43,-293.14 201.98,-287.97 204.69,-268.61L213.92,-202.79L245.12,-207.16L234.65,-281.87C230.78,-309.43 211.53,-320.90 187.84,-317.58ZM531.86,-322.15L338.25,-295.00L341.86,-269.27L535.46,-296.41ZM-659.49,227.64L-591.39,218.09C-555.63,213.07 -538.63,195.13 -542.27,169.17C-544.73,151.63 -558.33,139.13 -579.70,139.11L-579.73,138.88C-561.27,133.04 -553.43,117.78 -555.69,101.60C-559.34,75.64 -578.30,62.97 -614.74,68.08L-680.57,77.31ZM-641.20,136.12L-646.63,97.40L-615.42,93.03C-598.80,90.69 -589.70,95.92 -587.88,108.90C-586.06,121.89 -593.37,129.42 -610.00,131.75ZM-632.29,199.67L-637.82,160.27L-602.97,155.38C-586.11,153.02 -576.92,158.93 -575.16,171.45C-573.41,183.98 -580.59,192.42 -597.44,194.78ZM-469.66,203.34C-451.21,200.76 -438.77,191.81 -433.36,175.73L-429.44,195.38L-401.65,191.49L-417.62,77.60L-448.83,81.98L-440.23,143.25C-437.26,164.43 -448.06,175.23 -461.04,177.05C-474.71,178.97 -483.02,174.33 -485.51,156.56L-495.06,88.46L-526.27,92.83L-515.66,168.45C-511.61,197.38 -492.44,206.54 -469.66,203.34ZM-371.40,54.40C-358.42,52.58 -352.81,46.22 -354.38,35.06C-355.94,23.90 -363.12,19.10 -376.10,20.92C-389.08,22.74 -394.66,29.32 -393.10,40.49C-391.53,51.65 -384.39,56.22 -371.40,54.40ZM-353.62,68.63L-384.82,73.00L-368.85,186.89L-337.65,182.51ZM-296.83,9.80L-328.04,14.18L-309.52,146.28C-306.19,169.97 -294.96,178.85 -272.87,175.75C-265.35,174.70 -256.95,171.66 -252.36,168.00L-252.50,147.12C-257.25,149.64 -259.70,150.45 -264.93,151.18C-273.36,152.36 -277.32,148.97 -278.79,138.49ZM-176.12,-7.12L-166.44,61.89C-174.41,49.77 -187.66,43.03 -204.06,45.33C-232.31,49.29 -250.91,73.97 -245.61,111.78C-240.40,148.90 -216.84,167.90 -188.59,163.94C-171.51,161.54 -158.67,150.45 -154.43,134.29L-149.96,156.20L-121.95,152.27L-144.91,-11.50ZM-182.84,138.74C-199.69,141.10 -211.21,130.18 -214.44,107.17C-217.66,84.17 -209.14,70.43 -192.28,68.07C-176.34,65.83 -164.30,77.15 -161.26,98.79C-158.04,121.79 -166.66,136.47 -182.84,138.74ZM-16.26,137.45L99.67,121.19L96.13,95.91L11.63,107.76L6.26,69.49L70.26,60.52L66.88,36.38L2.87,45.35L-2.36,8.00L78.95,-3.41L75.41,-28.69L-37.34,-12.88ZM226.14,83.95C220.67,84.72 217.55,82.37 216.72,76.45L210.24,30.21C206.31,2.19 184.29,-9.12 154.45,-4.93C124.84,-0.78 109.38,14.86 106.95,35.63L134.75,40.10C136.74,26.12 145.12,19.60 156.28,18.03C168.35,16.34 177.64,22.94 179.46,35.92L180.06,40.25L142.00,53.71C122.08,60.69 112.45,73.18 114.81,90.04C117.63,110.08 133.48,118.78 156.71,115.52C171.06,113.51 184.81,105.54 190.62,94.04C195.54,104.27 206.75,108.04 219.77,106.45C225.92,105.58 230.77,103.74 234.16,101.41L233.27,81.79C231.31,82.76 228.64,83.60 226.14,83.95ZM161.58,92.31C153.61,93.43 146.66,90.22 145.60,82.70C144.49,74.73 149.34,71.26 159.53,67.74L182.78,59.61L183.77,66.67C186.10,83.30 174.57,90.49 161.58,92.31ZM255.47,99.35L286.67,94.97L278.40,35.98C275.53,15.48 288.05,3.74 301.94,1.79C309.00,0.80 312.97,0.94 316.32,1.63L316.29,-25.07C313.34,-26.28 308.65,-26.55 303.64,-25.85C285.88,-23.36 275.50,-12.85 271.79,3.70L266.61,-18.34L239.50,-14.54ZM421.49,47.74C417.28,52.51 412.36,55.52 404.62,56.61C394.83,57.98 388.23,54.03 386.70,43.09L379.19,-10.43L415.64,-15.54L412.38,-38.78L375.94,-33.67L371.05,-68.52L341.06,-55.48L344.73,-29.29L323.78,-26.35L327.03,-3.12L347.99,-6.06L356.20,52.48C359.71,77.53 376.74,84.67 399.74,81.44C411.81,79.75 422.72,74.74 429.41,67.76ZM449.53,72.14L480.74,67.76L472.31,7.63C469.11,-15.14 480.88,-25.62 494.09,-27.47C505.94,-29.13 515.26,-23.94 518.00,-4.35L527.20,61.25L558.41,56.87L547.93,-17.84C544.07,-45.40 524.81,-56.86 501.12,-53.54C484.95,-51.27 472.73,-42.36 467.48,-26.76L457.77,-96.00L426.57,-91.63Z" fill="#ffffff" stroke="#000000"/>
    <path d="M-797.32,-42.61L-730.13,-53.23C-694.85,-58.80 -678.35,-76.84 -682.40,-102.46C-685.13,-119.76 -698.79,-131.88 -719.93,-131.54L-719.96,-131.76C-701.81,-137.85 -694.31,-153.09 -696.83,-169.04C-700.88,-194.66 -719.85,-206.86 -755.81,-201.18L-820.75,-190.92ZM-780.80,-133.43L-786.84,-171.63L-756.05,-176.50C-739.65,-179.09 -730.57,-174.08 -728.54,-161.27C-726.52,-148.46 -733.61,-140.89 -750.02,-138.30ZM-770.90,-70.74L-777.04,-109.61L-742.66,-115.05C-726.03,-117.67 -716.84,-111.99 -714.89,-99.63C-712.93,-87.27 -719.89,-78.80 -736.52,-76.17ZM-549.74,-101.08C-555.14,-100.22 -558.26,-102.49 -559.18,-108.34L-566.39,-153.95C-570.76,-181.59 -592.73,-192.40 -622.17,-187.75C-651.38,-183.13 -666.40,-167.40 -668.45,-146.81L-640.88,-142.88C-639.15,-156.74 -630.98,-163.33 -619.97,-165.07C-608.06,-166.95 -598.76,-160.59 -596.74,-147.78L-596.06,-143.51L-633.47,-129.53C-653.06,-122.29 -662.36,-109.77 -659.74,-93.14C-656.61,-73.37 -640.79,-65.04 -617.86,-68.66C-603.71,-70.90 -590.25,-79.01 -584.69,-90.49C-579.65,-80.46 -568.50,-76.92 -555.66,-78.72C-549.59,-79.68 -544.82,-81.59 -541.51,-83.95L-542.73,-103.34C-544.65,-102.34 -547.27,-101.47 -549.74,-101.08ZM-613.44,-91.70C-621.31,-90.46 -628.24,-93.51 -629.41,-100.93C-630.65,-108.79 -625.91,-112.30 -615.90,-115.96L-593.05,-124.41L-591.95,-117.44C-589.35,-101.04 -600.64,-93.73 -613.44,-91.70ZM-481.02,-90.29C-462.81,-93.16 -450.66,-102.22 -445.58,-118.23L-441.37,-98.85L-413.96,-103.19L-431.71,-215.54L-462.50,-210.68L-452.94,-150.23C-449.64,-129.33 -460.13,-118.46 -472.94,-116.44C-486.42,-114.31 -494.73,-118.75 -497.50,-136.28L-508.11,-203.47L-538.90,-198.60L-527.11,-124.00C-522.60,-95.46 -503.49,-86.74 -481.02,-90.29ZM-378.45,-108.80L-264.07,-126.87L-268.02,-151.81L-351.38,-138.64L-357.35,-176.39L-294.20,-186.37L-297.97,-210.19L-361.11,-200.21L-366.94,-237.06L-286.71,-249.74L-290.65,-274.68L-401.89,-257.11ZM-239.36,-130.77L-208.57,-135.64L-217.77,-193.84C-220.96,-214.06 -208.78,-225.89 -195.07,-228.06C-188.11,-229.16 -184.18,-229.09 -180.86,-228.46L-181.35,-254.87C-184.29,-256.02 -188.93,-256.21 -193.87,-255.43C-211.40,-252.66 -221.47,-242.08 -224.87,-225.65L-230.37,-247.36L-257.11,-243.13ZM-92.31,-319.61L-81.55,-251.52C-89.64,-263.37 -102.86,-269.81 -119.04,-267.25C-146.91,-262.85 -164.88,-238.13 -158.99,-200.82C-153.20,-164.20 -129.57,-145.82 -101.70,-150.22C-84.85,-152.89 -72.34,-164.08 -68.42,-180.13L-63.63,-158.54L-35.99,-162.91L-61.52,-324.48ZM-96.44,-175.24C-113.07,-172.61 -124.65,-183.22 -128.24,-205.91C-131.82,-228.61 -123.63,-242.34 -107.00,-244.97C-91.27,-247.46 -79.17,-236.47 -75.80,-215.12C-72.21,-192.43 -80.49,-177.76 -96.44,-175.24ZM90.57,-246.71C85.82,-276.82 62.75,-295.98 28.82,-290.61C-4.66,-285.32 -24.62,-260.06 -18.80,-223.21C-12.98,-186.35 13.35,-168.40 48.86,-174.01C71.78,-177.63 89.73,-190.84 94.11,-209.72L68.13,-215.29C65.06,-205.59 58.27,-198.99 45.01,-196.90C29.50,-194.45 18.08,-201.16 12.84,-218.30L92.16,-230.84C91.97,-234.95 91.53,-240.64 90.57,-246.71ZM32.18,-267.88C46.11,-270.08 56.00,-262.89 60.02,-247.64L9.69,-239.68C10.09,-256.10 18.02,-265.65 32.18,-267.88ZM175.33,-313.77C158.03,-311.03 145.30,-301.19 140.82,-284.36L136.36,-305.30L108.72,-300.94L126.48,-188.58L157.26,-193.45L147.85,-252.99C144.30,-275.47 155.80,-285.80 168.60,-287.83C180.29,-289.67 189.82,-284.73 192.84,-265.63L203.10,-200.69L233.89,-205.55L222.24,-279.26C217.95,-306.45 198.70,-317.46 175.33,-313.77ZM515.48,-324.21L324.47,-294.03L328.49,-268.64L519.49,-298.82ZM-653.27,240.04L-586.08,229.42C-550.80,223.85 -534.30,205.81 -538.35,180.19C-541.09,162.89 -554.75,150.77 -575.88,151.11L-575.92,150.89C-557.76,144.79 -550.27,129.56 -552.79,113.60C-556.84,87.99 -575.81,75.78 -611.76,81.47L-676.70,91.73ZM-636.76,149.21L-642.79,111.01L-612.01,106.15C-595.60,103.56 -586.52,108.57 -584.50,121.38C-582.47,134.19 -589.57,141.76 -605.97,144.35ZM-626.85,211.91L-632.99,173.03L-598.61,167.60C-581.98,164.97 -572.79,170.66 -570.84,183.02C-568.89,195.38 -575.84,203.85 -592.47,206.48ZM-465.95,212.74C-447.75,209.87 -435.59,200.80 -430.52,184.80L-426.31,204.17L-398.90,199.84L-416.65,87.49L-447.43,92.35L-437.88,152.80C-434.58,173.70 -445.07,184.57 -457.88,186.59C-471.36,188.72 -479.66,184.28 -482.43,166.75L-493.05,99.56L-523.84,104.42L-512.05,179.03C-507.54,207.57 -488.43,216.29 -465.95,212.74ZM-371.34,63.74C-358.53,61.72 -353.09,55.33 -354.83,44.32C-356.57,33.31 -363.75,28.69 -376.56,30.71C-389.37,32.74 -394.77,39.35 -393.03,50.36C-391.29,61.37 -384.15,65.77 -371.34,63.74ZM-353.50,77.51L-384.29,82.37L-366.54,194.73L-335.75,189.86ZM-298.36,18.35L-329.15,23.22L-308.55,153.55C-304.86,176.92 -293.60,185.51 -271.80,182.06C-264.39,180.89 -256.13,177.74 -251.65,174.04L-252.15,153.39C-256.81,155.97 -259.21,156.81 -264.38,157.63C-272.69,158.94 -276.67,155.65 -278.30,145.32ZM-179.26,-0.46L-168.51,67.62C-176.60,55.77 -189.82,49.34 -206.00,51.90C-233.86,56.30 -251.84,81.02 -245.94,118.32C-240.16,154.95 -216.52,173.33 -188.66,168.93C-171.81,166.26 -159.29,155.07 -155.38,139.02L-150.59,160.61L-122.95,156.24L-148.48,-5.33ZM-183.40,143.91C-200.03,146.54 -211.61,135.93 -215.19,113.23C-218.78,90.54 -210.59,76.81 -193.96,74.18C-178.23,71.69 -166.13,82.68 -162.75,104.03C-159.17,126.72 -167.44,141.39 -183.40,143.91ZM-18.68,139.76L95.70,121.69L91.75,96.75L8.39,109.92L2.42,72.17L65.57,62.19L61.80,38.37L-1.34,48.35L-7.17,11.50L73.06,-1.18L69.11,-26.12L-42.12,-8.55ZM220.12,82.68C214.73,83.53 211.61,81.26 210.69,75.42L203.48,29.80C199.11,2.17 177.13,-8.64 147.70,-3.99C118.48,0.63 103.47,16.36 101.42,36.95L128.99,40.88C130.72,27.02 138.89,20.43 149.90,18.69C161.81,16.81 171.11,23.17 173.13,35.98L173.80,40.25L136.40,54.22C116.81,61.46 107.51,73.99 110.13,90.62C113.26,110.39 129.08,118.72 152.00,115.10C166.16,112.86 179.62,104.74 185.18,93.27C190.22,103.30 201.37,106.84 214.21,105.04C220.28,104.08 225.05,102.17 228.36,99.81L227.14,80.42C225.22,81.42 222.60,82.29 220.12,82.68ZM156.42,92.06C148.56,93.30 141.63,90.25 140.46,82.83C139.21,74.97 143.96,71.45 153.97,67.80L176.82,59.35L177.92,66.32C180.52,82.72 169.23,90.03 156.42,92.06ZM249.40,97.40L280.18,92.54L270.99,34.34C267.79,14.11 279.97,2.29 293.68,0.12C300.65,-0.98 304.57,-0.91 307.90,-0.28L307.41,-26.69C304.46,-27.84 299.83,-28.03 294.88,-27.25C277.36,-24.48 267.28,-13.90 263.89,2.52L258.39,-19.18L231.65,-14.95ZM412.70,43.50C408.62,48.29 403.81,51.35 396.17,52.56C386.51,54.09 379.92,50.29 378.21,39.51L369.87,-13.30L405.82,-18.98L402.20,-41.90L366.25,-36.22L360.81,-70.60L331.38,-57.20L335.46,-31.36L314.79,-28.09L318.41,-5.17L339.08,-8.44L348.21,49.31C352.11,74.03 369.08,80.80 391.77,77.21C403.68,75.33 414.38,70.18 420.88,63.17ZM440.85,67.15L471.64,62.29L462.26,2.96C458.71,-19.51 470.17,-30.07 483.21,-32.13C494.89,-33.98 504.20,-29.00 507.25,-9.67L517.48,55.04L548.27,50.18L536.62,-23.53C532.32,-50.72 513.08,-61.73 489.71,-58.03C473.75,-55.51 461.82,-46.49 456.90,-30.97L446.11,-99.28L415.32,-94.42Z" fill="#ffffff" stroke="#000000"/>
    <path d="M-794.02,-24.81L-727.76,-36.47C-692.97,-42.59 -676.97,-60.71 -681.41,-85.97C-684.41,-103.03 -698.13,-114.78 -719.03,-114.08L-719.06,-114.30C-701.22,-120.64 -694.07,-135.83 -696.83,-151.56C-701.28,-176.83 -720.25,-188.57 -755.70,-182.33L-819.75,-171.06ZM-779.25,-114.91L-785.88,-152.58L-755.52,-157.92C-739.35,-160.76 -730.28,-155.96 -728.05,-143.33C-725.83,-130.70 -732.72,-123.09 -748.90,-120.25ZM-768.38,-53.08L-775.12,-91.42L-741.22,-97.38C-724.82,-100.27 -715.63,-94.80 -713.49,-82.61C-711.35,-70.42 -718.08,-61.93 -734.47,-59.04ZM-550.21,-86.89C-555.53,-85.95 -558.66,-88.14 -559.67,-93.91L-567.58,-138.89C-572.38,-166.15 -594.30,-176.46 -623.33,-171.35C-652.13,-166.28 -666.71,-150.47 -668.38,-130.07L-641.05,-126.65C-639.58,-140.39 -631.61,-147.05 -620.76,-148.96C-609.01,-151.02 -599.71,-144.89 -597.49,-132.26L-596.75,-128.05L-633.50,-113.59C-652.74,-106.09 -661.73,-93.54 -658.84,-77.15C-655.41,-57.65 -639.62,-49.69 -617.02,-53.66C-603.05,-56.12 -589.89,-64.37 -584.59,-75.82C-579.43,-65.99 -568.34,-62.68 -555.67,-64.68C-549.69,-65.73 -545.01,-67.70 -541.77,-70.10L-543.32,-89.24C-545.19,-88.23 -547.77,-87.32 -550.21,-86.89ZM-613.04,-76.52C-620.80,-75.16 -627.70,-78.05 -628.99,-85.37C-630.35,-93.12 -625.72,-96.68 -615.88,-100.47L-593.43,-109.21L-592.22,-102.34C-589.38,-86.17 -600.41,-78.74 -613.04,-76.52ZM-482.06,-77.40C-464.11,-80.56 -452.25,-89.73 -447.51,-105.64L-443.01,-86.56L-415.97,-91.31L-435.46,-202.11L-465.82,-196.77L-455.34,-137.16C-451.71,-116.55 -461.90,-105.62 -474.53,-103.40C-487.82,-101.06 -496.11,-105.32 -499.15,-122.60L-510.81,-188.86L-541.17,-183.52L-528.22,-109.95C-523.27,-81.80 -504.22,-73.50 -482.06,-77.40ZM-380.96,-97.47L-268.17,-117.31L-272.49,-141.91L-354.71,-127.45L-361.26,-164.68L-298.99,-175.63L-303.12,-199.12L-365.39,-188.17L-371.78,-224.51L-292.67,-238.42L-297.00,-263.02L-406.69,-243.73ZM-243.79,-121.60L-213.43,-126.94L-223.53,-184.34C-227.04,-204.28 -215.20,-216.19 -201.68,-218.56C-194.81,-219.77 -190.93,-219.77 -187.63,-219.21L-188.57,-245.32C-191.50,-246.40 -196.09,-246.51 -200.96,-245.65C-218.24,-242.61 -228.03,-231.98 -231.10,-215.67L-236.91,-237.04L-263.28,-232.40ZM-101.63,-310.87L-89.82,-243.72C-98.03,-255.30 -111.21,-261.44 -127.17,-258.63C-154.65,-253.80 -172.00,-229.04 -165.52,-192.26C-159.17,-156.13 -135.48,-138.37 -108.01,-143.20C-91.39,-146.13 -79.21,-157.41 -75.61,-173.35L-70.50,-152.09L-43.25,-156.88L-71.27,-316.21ZM-103.24,-168.03C-119.63,-165.15 -131.27,-175.44 -135.20,-197.82C-139.14,-220.20 -131.27,-233.92 -114.88,-236.80C-99.36,-239.53 -87.21,-228.88 -83.51,-207.83C-79.57,-185.44 -87.50,-170.80 -103.24,-168.03ZM80.47,-241.92C75.24,-271.62 52.10,-290.17 18.64,-284.28C-14.38,-278.47 -33.68,-253.14 -27.29,-216.80C-20.89,-180.46 5.45,-163.16 40.46,-169.32C63.07,-173.30 80.59,-186.66 84.60,-205.41L58.81,-210.47C55.94,-200.83 49.34,-194.18 36.27,-191.88C20.98,-189.20 9.56,-195.64 4.08,-212.50L82.31,-226.26C82.05,-230.32 81.52,-235.94 80.47,-241.92ZM22.36,-261.86C36.10,-264.28 46.00,-257.34 50.24,-242.32L0.60,-233.59C0.72,-249.83 8.40,-259.40 22.36,-261.86ZM163.12,-309.69C146.06,-306.69 133.65,-296.74 129.51,-280.02L124.73,-300.66L97.48,-295.86L116.97,-185.06L147.33,-190.40L137.00,-249.13C133.10,-271.29 144.29,-281.71 156.92,-283.93C168.44,-285.96 177.95,-281.23 181.27,-262.40L192.53,-198.36L222.89,-203.70L210.11,-276.38C205.39,-303.19 186.17,-313.75 163.12,-309.69ZM499.30,-325.88L310.95,-292.75L315.35,-267.71L503.71,-300.84ZM-646.71,252.21L-580.45,240.55C-545.66,234.43 -529.66,216.31 -534.10,191.05C-537.10,173.99 -550.82,162.23 -571.72,162.94L-571.76,162.72C-553.91,156.38 -546.76,141.19 -549.53,125.45C-553.97,100.19 -572.94,88.45 -608.40,94.69L-672.44,105.95ZM-631.95,162.11L-638.57,124.44L-608.21,119.10C-592.04,116.25 -582.97,121.06 -580.75,133.69C-578.52,146.32 -585.41,153.93 -601.59,156.77ZM-621.07,223.94L-627.81,185.60L-593.91,179.64C-577.51,176.75 -568.32,182.22 -566.18,194.41C-564.04,206.59 -570.77,215.09 -587.17,217.97ZM-461.95,221.99C-444.00,218.83 -432.14,209.66 -427.40,193.75L-422.90,212.84L-395.86,208.08L-415.35,97.28L-445.71,102.62L-435.22,162.23C-431.60,182.84 -441.78,193.77 -454.42,195.99C-467.71,198.33 -476.00,194.08 -479.04,176.79L-490.70,110.54L-521.05,115.88L-508.11,189.45C-503.16,217.59 -484.11,225.89 -461.95,221.99ZM-370.96,73.02C-358.33,70.80 -353.06,64.39 -354.97,53.53C-356.88,42.68 -364.06,38.23 -376.69,40.45C-389.32,42.67 -394.55,49.30 -392.64,60.16C-390.73,71.02 -383.59,75.25 -370.96,73.02ZM-353.08,86.33L-383.44,91.67L-363.95,202.47L-333.59,197.13ZM-299.57,26.88L-329.93,32.22L-307.32,160.75C-303.27,183.80 -291.99,192.09 -270.49,188.31C-263.18,187.02 -255.07,183.77 -250.70,180.03L-251.55,159.62C-256.11,162.25 -258.47,163.12 -263.57,164.02C-271.77,165.46 -275.75,162.28 -277.55,152.09ZM-182.13,6.22L-170.31,73.37C-178.52,61.79 -191.71,55.66 -207.66,58.46C-235.14,63.30 -252.49,88.05 -246.02,124.84C-239.66,160.96 -215.98,178.72 -188.50,173.89C-171.88,170.96 -159.70,159.68 -156.11,143.74L-151.00,165.01L-123.74,160.21L-151.77,0.88ZM-183.73,149.06C-200.13,151.95 -211.76,141.65 -215.70,119.27C-219.63,96.89 -211.77,83.17 -195.37,80.29C-179.86,77.56 -167.70,88.21 -164.00,109.27C-160.06,131.65 -168.00,146.29 -183.73,149.06ZM-20.92,142.12L91.87,122.28L87.55,97.68L5.34,112.15L-1.21,74.92L61.06,63.96L56.92,40.48L-5.35,51.43L-11.74,15.09L67.37,1.17L63.04,-23.43L-46.65,-4.13ZM214.25,81.56C208.93,82.50 205.80,80.31 204.79,74.55L196.87,29.56C192.08,2.31 170.16,-8.00 141.13,-2.90C112.32,2.17 97.74,17.99 96.08,38.38L123.41,41.80C124.88,28.06 132.84,21.41 143.70,19.50C155.45,17.43 164.75,23.56 166.97,36.19L167.71,40.40L130.96,54.87C111.72,62.36 102.73,74.91 105.62,91.31C109.05,110.81 124.84,118.77 147.44,114.79C161.40,112.34 174.57,104.08 179.87,92.64C185.03,102.47 196.12,105.77 208.79,103.77C214.77,102.72 219.45,100.75 222.68,98.36L221.14,79.21C219.26,80.23 216.68,81.14 214.25,81.56ZM151.42,91.93C143.66,93.30 136.75,90.40 135.47,83.09C134.10,75.33 138.73,71.77 148.58,67.99L171.02,59.24L172.23,66.11C175.08,82.29 164.05,89.71 151.42,91.93ZM243.45,95.62L273.81,90.28L263.71,32.88C260.20,12.94 272.04,1.03 285.56,-1.34C292.43,-2.55 296.31,-2.55 299.61,-1.99L298.67,-28.10C295.74,-29.18 291.15,-29.29 286.28,-28.43C268.99,-25.39 259.21,-14.76 256.14,1.55L250.33,-19.82L223.96,-15.18ZM404.00,39.50C400.05,44.31 395.34,47.42 387.81,48.75C378.28,50.42 371.70,46.78 369.83,36.15L360.67,-15.93L396.13,-22.16L392.15,-44.77L356.69,-38.53L350.73,-72.43L321.85,-58.67L326.33,-33.19L305.95,-29.60L309.92,-7.00L330.31,-10.59L340.33,46.36C344.62,70.74 361.51,77.14 383.89,73.20C395.63,71.13 406.13,65.86 412.43,58.81ZM432.25,62.41L462.61,57.07L452.32,-1.44C448.42,-23.60 459.57,-34.24 472.42,-36.50C483.94,-38.53 493.23,-33.76 496.59,-14.71L507.81,49.11L538.17,43.77L525.39,-28.91C520.67,-55.72 501.45,-66.28 478.40,-62.23C462.67,-59.46 451.03,-50.33 446.43,-34.90L434.58,-102.26L404.22,-96.92Z" fill="#ffffff" stroke="#000000"/>
    <path d="M-904.98,492L-898.94,492L-895.48,478.32L-894.30,472.39L-894.23,472.39L-893.05,478.32L-889.55,492L-883.66,492L-876.37,466.92L-881.73,466.92L-886.63,487.63L-891.72,466.92L-896.74,466.92L-901.75,487.63L-906.69,466.92L-912.28,466.92ZM-864.21,472.62C-869.95,472.62 -873.94,476.31 -873.94,482.50C-873.94,488.69 -869.95,492.38 -864.21,492.38C-858.47,492.38 -854.48,488.69 -854.48,482.50C-854.48,476.31 -858.47,472.62 -864.21,472.62ZM-864.21,476.50C-861.40,476.50 -859.72,478.47 -859.72,482.50C-859.72,486.53 -861.40,488.50 -864.21,488.50C-867.06,488.50 -868.73,486.53 -868.73,482.50C-868.73,478.47 -867.06,476.50 -864.21,476.50ZM-850.11,492L-844.90,492L-844.90,482.16C-844.90,478.74 -842.59,477.10 -840.27,477.10C-839.09,477.10 -838.44,477.22 -837.91,477.41L-837.30,473.04C-837.76,472.77 -838.52,472.62 -839.36,472.62C-842.32,472.62 -844.26,474.10 -845.25,476.72L-845.59,473L-850.11,473ZM-820.17,492L-814.28,492L-821.88,480.45L-814.73,473L-820.66,473L-828.87,481.70L-828.87,464.68L-834.07,464.68L-834.07,492L-828.87,492L-828.87,487.29L-825.41,483.60ZM-801.51,466.54C-807.93,466.54 -811.77,470.00 -811.77,474.44C-811.77,478.21 -809.22,480.26 -804.78,481.25L-799.68,482.39C-797.29,482.92 -796.57,483.91 -796.57,485.16C-796.57,487.10 -798.32,488.16 -801.39,488.16C-805.12,488.16 -808.27,486.41 -809.98,483.94L-812.95,487.48C-810.67,490.37 -806.60,492.38 -801.39,492.38C-795.35,492.38 -791.17,489.49 -791.17,484.51C-791.17,481.02 -793.19,478.85 -798.13,477.75L-802.80,476.69C-805.42,476.08 -806.33,475.17 -806.33,473.80C-806.33,472.13 -804.97,470.76 -801.70,470.76C-798.47,470.76 -796.11,471.94 -794.02,474.60L-791.10,471.21C-793.53,468.14 -796.95,466.54 -801.51,466.54ZM-769.36,488.81C-770.27,488.81 -770.73,488.35 -770.73,487.36L-770.73,479.65C-770.73,474.98 -774.07,472.62 -779.05,472.62C-783.99,472.62 -786.88,474.82 -787.75,478.17L-783.31,479.54C-782.66,477.29 -781.14,476.42 -779.28,476.42C-777.26,476.42 -775.90,477.71 -775.90,479.88L-775.90,480.60L-782.43,481.93C-785.85,482.61 -787.71,484.44 -787.71,487.25C-787.71,490.59 -785.32,492.38 -781.44,492.38C-779.05,492.38 -776.62,491.39 -775.40,489.64C-774.83,491.43 -773.08,492.30 -770.92,492.34C-769.89,492.34 -769.06,492.15 -768.45,491.85L-768.14,488.62C-768.49,488.73 -768.94,488.81 -769.36,488.81ZM-780.11,488.69C-781.44,488.69 -782.51,488.01 -782.51,486.76C-782.51,485.43 -781.63,484.97 -779.89,484.63L-775.90,483.83L-775.90,485.01C-775.90,487.78 -777.95,488.69 -780.11,488.69ZM-753.59,472.62C-756.52,472.62 -758.87,473.91 -760.05,476.57L-760.24,473L-764.91,473L-764.91,492L-759.71,492L-759.71,481.93C-759.71,478.13 -757.54,476.72 -755.38,476.72C-753.40,476.72 -751.96,477.79 -751.96,481.02L-751.96,492L-746.75,492L-746.75,479.54C-746.75,474.94 -749.64,472.62 -753.59,472.62ZM-733.79,492.38C-728.36,492.38 -725.36,489.72 -725.36,486.07C-725.36,483.53 -726.84,481.66 -730.60,480.90L-734.48,480.11C-736.34,479.73 -736.95,479.12 -736.95,478.32C-736.95,477.14 -735.77,476.46 -733.60,476.46C-731.63,476.46 -729.73,477.45 -728.59,479.19L-725.47,476.15C-727.10,473.84 -729.95,472.62 -733.75,472.62C-739.30,472.62 -742.11,475.55 -742.11,478.62C-742.11,481.55 -740.44,483.37 -736.03,484.29L-732.69,484.97C-731.02,485.31 -730.60,485.92 -730.60,486.72C-730.60,487.97 -731.89,488.54 -733.87,488.54C-736.64,488.54 -738.69,487.25 -739.91,485.43L-742.91,488.47C-740.94,490.97 -737.63,492.38 -733.79,492.38ZM-707.34,479.69L-720.76,479.69L-720.76,484.17L-707.34,484.17ZM-691.73,466.54C-698.15,466.54 -701.99,470.00 -701.99,474.44C-701.99,478.21 -699.44,480.26 -694.99,481.25L-689.90,482.39C-687.51,482.92 -686.79,483.91 -686.79,485.16C-686.79,487.10 -688.53,488.16 -691.61,488.16C-695.34,488.16 -698.49,486.41 -700.20,483.94L-703.16,487.48C-700.88,490.37 -696.82,492.38 -691.61,492.38C-685.57,492.38 -681.39,489.49 -681.39,484.51C-681.39,481.02 -683.40,478.85 -688.34,477.75L-693.02,476.69C-695.64,476.08 -696.55,475.17 -696.55,473.80C-696.55,472.13 -695.18,470.76 -691.92,470.76C-688.69,470.76 -686.33,471.94 -684.24,474.60L-681.31,471.21C-683.75,468.14 -687.17,466.54 -691.73,466.54ZM-659.35,481.47C-659.35,476.38 -662.66,472.62 -668.39,472.62C-674.06,472.62 -678.01,476.27 -678.01,482.50C-678.01,488.73 -674.13,492.38 -668.13,492.38C-664.25,492.38 -660.95,490.67 -659.73,487.67L-663.87,486.07C-664.63,487.59 -665.92,488.50 -668.17,488.50C-670.79,488.50 -672.50,487.10 -672.92,484.13L-659.50,484.13C-659.43,483.45 -659.35,482.50 -659.35,481.47ZM-668.43,476.46C-666.08,476.46 -664.63,477.90 -664.37,480.52L-672.88,480.52C-672.38,477.83 -670.83,476.46 -668.43,476.46ZM-654.94,492L-649.74,492L-649.74,481.93C-649.74,478.21 -647.57,476.72 -645.56,476.72C-643.62,476.72 -642.25,477.79 -642.25,480.56L-642.25,492L-637.04,492L-637.04,481.78C-637.04,478.47 -635.18,476.72 -632.86,476.72C-630.96,476.72 -629.60,477.79 -629.60,480.56L-629.60,492L-624.43,492L-624.39,479.54C-624.35,474.86 -627.47,472.62 -631.15,472.62C-633.74,472.62 -636.44,473.84 -637.61,476.38C-638.72,473.87 -641.07,472.62 -643.81,472.62C-646.51,472.62 -648.82,473.87 -650.08,476.42L-650.27,473L-654.94,473ZM-616.41,470.26C-614.24,470.26 -613.18,469.35 -613.18,467.49C-613.18,465.63 -614.24,464.68 -616.41,464.68C-618.58,464.68 -619.64,465.63 -619.64,467.49C-619.64,469.35 -618.58,470.26 -616.41,470.26ZM-613.83,473L-619.03,473L-619.03,492L-613.83,492ZM-607.78,492L-596.42,492C-590.46,492 -587.26,489.45 -587.26,485.12C-587.26,482.20 -589.20,479.84 -592.70,479.35L-592.70,479.31C-589.54,478.78 -587.91,476.46 -587.91,473.76C-587.91,469.43 -590.72,466.92 -596.80,466.92L-607.78,466.92ZM-602.69,477.45L-602.69,470.99L-597.49,470.99C-594.71,470.99 -593.34,472.05 -593.34,474.22C-593.34,476.38 -594.71,477.45 -597.49,477.45ZM-602.69,488.05L-602.69,481.47L-596.88,481.47C-594.07,481.47 -592.70,482.65 -592.70,484.74C-592.70,486.83 -594.07,488.05 -596.88,488.05ZM-574.12,472.62C-579.85,472.62 -583.84,476.31 -583.84,482.50C-583.84,488.69 -579.85,492.38 -574.12,492.38C-568.38,492.38 -564.39,488.69 -564.39,482.50C-564.39,476.31 -568.38,472.62 -574.12,472.62ZM-574.12,476.50C-571.30,476.50 -569.63,478.47 -569.63,482.50C-569.63,486.53 -571.30,488.50 -574.12,488.50C-576.97,488.50 -578.64,486.53 -578.64,482.50C-578.64,478.47 -576.97,476.50 -574.12,476.50ZM-554.89,464.68L-560.09,464.68L-560.09,486.72C-560.09,490.67 -558.46,492.38 -554.77,492.38C-553.52,492.38 -552.08,492.08 -551.24,491.58L-550.78,488.16C-551.62,488.47 -552.04,488.54 -552.91,488.54C-554.32,488.54 -554.89,487.90 -554.89,486.15ZM-534.75,464.68L-534.75,476.19C-535.77,474.03 -537.79,472.62 -540.52,472.62C-545.24,472.62 -548.85,476.23 -548.85,482.54C-548.85,488.73 -545.43,492.38 -540.71,492.38C-537.86,492.38 -535.51,490.86 -534.44,488.31L-534.22,492L-529.54,492L-529.54,464.68ZM-539.19,488.39C-542.01,488.39 -543.64,486.34 -543.64,482.50C-543.64,478.66 -541.93,476.61 -539.12,476.61C-536.46,476.61 -534.75,478.74 -534.75,482.35C-534.75,486.19 -536.50,488.39 -539.19,488.39Z"/>
</svg>