<?xml version="1.0"?>
<svg xmlns="http://www.w3.org/2000/svg" width="1920" height="1080" viewBox="-960 -540 1920 1080">
    <path d="M-832,-252.25L-849.25,-231.25L-863.25,-223.75L-902,-221.75L-910.75,-232.50L-910.75,-294.25L-869.50,-294L-858.75,-286L-854,-275L-848.25,-275L-848.25,-326.25L-854,-326.25L-858.75,-315.25L-870,-307.50L-870,-307.25L-910.75,-307L-910.75,-362.50L-902,-373.25L-863.75,-371.50L-849.75,-363.75L-834.25,-342.75L-828,-342.75L-833.25,-385L-967.50,-385L-967.50,-379.50L-956.50,-378.75L-948.25,-367.50L-948.25,-227.50L-956.50,-216.25L-967.50,-215.50L-967.50,-210L-832.75,-210L-825.75,-252.25ZM-691.25,-226.50L-699.25,-235.50L-699.25,-303.25C-705.25,-313 -711,-322.75 -717,-332.25C-732.75,-334.50 -748,-336.25 -763.75,-338.50C-778.25,-331.50 -793.25,-325.25 -808,-318.50L-790,-281.25L-784.50,-281.25C-781,-295 -777.75,-308.50 -774.25,-322.25L-745.25,-328C-741.25,-321 -737.50,-314 -733.50,-306.75L-733.50,-279C-753.75,-274.50 -778.75,-268.75 -798.75,-264.25C-803.25,-255.25 -808,-246.50 -812.50,-237.75C-805.50,-227.25 -799,-217 -792.25,-206.50C-778.25,-207.75 -764.75,-208.50 -750.75,-210L-733.50,-231L-733.50,-206.50L-676.25,-217.25L-676.25,-222.75ZM-759.25,-221.25C-764.50,-224.75 -770,-228.50 -775.25,-232L-775.25,-253.50C-762.50,-260.50 -746.75,-268.25 -733.50,-275.25L-733.50,-236.75C-741.50,-231.75 -751.25,-225.75 -759.25,-221.25ZM-572.50,-339.25C-580.75,-337 -589.25,-335.25 -597.50,-333C-604.25,-323.25 -611,-312.25 -617.75,-302.50L-617.75,-339.25L-671.25,-328.50L-671.25,-323L-656.25,-319.25C-654.75,-316 -653.50,-312.50 -652,-309.25L-652,-227.50C-654.75,-223.75 -657.50,-220 -660.25,-216.25L-671.25,-215.50L-671.25,-210L-588.25,-210L-588.25,-215.50C-594.50,-215.75 -600.75,-216 -607,-216.25L-617.75,-227.50L-617.75,-295L-588.50,-318.75C-586,-317.75 -583.50,-316.75 -581,-315.75L-568.50,-285.25L-563,-285.25L-550.75,-326.75C-558,-331.25 -565.25,-334.75 -572.50,-339.25ZM-454.50,-236.25C-458.75,-234 -463.25,-232 -467.50,-229.75L-485.50,-229.75C-488.75,-233.75 -491.75,-238 -495,-242L-495,-325L-458,-325L-458,-335L-495,-335L-495,-367.50L-504,-367.50L-515.75,-345.25C-520,-342 -524,-338.50 -528.25,-335L-545,-335L-545,-325.25L-532,-325.25L-529.25,-318.75L-529.25,-236.75C-526,-229.25 -522.50,-221.50 -519.25,-214L-481.25,-207.25C-471.25,-214.75 -460.25,-222.25 -450.25,-229.75ZM-299.25,-216.25L-307.50,-227.50L-307.50,-311C-311.75,-318.50 -316.25,-325.75 -320.50,-333.25C-331.25,-335 -342,-336.75 -352.75,-338.50L-392.50,-313.50L-392.50,-402.50L-446,-392.50L-446,-387L-431,-383.25L-426.75,-373.25L-426.75,-227.50L-435,-216.25L-446,-215.50L-446,-210L-373.25,-210L-373.25,-215.50L-384.25,-216.25L-392.50,-227.50L-392.50,-307.25C-380,-312.25 -371.75,-314.50 -359.25,-319.50C-353.50,-313.25 -347.50,-307.25 -341.75,-301L-341.75,-227.50L-350,-216.25L-361,-215.50L-361,-210L-288.25,-210L-288.25,-215.50ZM-173.50,-328C-184.75,-332 -196,-335.25 -207.25,-339.25L-244.75,-335.50C-254,-327 -263.50,-318.75 -272.75,-310.25L-267.50,-280.50C-244.25,-269.75 -221,-258.75 -197.75,-248L-197.75,-226C-203.50,-223.25 -209,-220.25 -214.75,-217.50C-224.50,-221 -234.25,-224.25 -244,-227.75C-250.50,-238.25 -257.25,-248.25 -263.75,-258.75L-269.25,-259L-275.50,-221.75C-258.50,-216.25 -241.25,-211 -224.25,-205.50C-210,-210 -196,-214.50 -181.75,-219L-162.25,-245C-166.50,-255 -170.50,-265 -174.75,-275C-193,-282.25 -211.25,-289.25 -229.50,-296.50C-233.25,-301.50 -237.25,-306.25 -241,-311.25L-231.50,-331.25C-226.50,-331 -221.75,-331 -216.75,-330.75L-188.50,-297.25L-183,-297.25ZM-62.75,-236.25C-67,-234 -71.50,-232 -75.75,-229.75L-93.75,-229.75C-97,-233.75 -100,-238 -103.25,-242L-103.25,-325L-66.25,-325L-66.25,-335L-103.25,-335L-103.25,-367.50L-112.25,-367.50L-124,-345.25C-128.25,-342 -132.25,-338.50 -136.50,-335L-153.25,-335L-153.25,-325.25L-140.25,-325.25L-137.50,-318.75L-137.50,-236.75C-134.25,-229.25 -130.75,-221.50 -127.50,-214L-89.50,-207.25C-79.50,-214.75 -68.50,-222.25 -58.50,-229.75ZM44.50,-339.25C36.25,-337 27.75,-335.25 19.50,-333C12.75,-323.25 6,-312.25 -0.75,-302.50L-0.75,-339.25L-54.25,-328.50L-54.25,-323L-39.25,-319.25C-37.75,-316 -36.50,-312.50 -35,-309.25L-35,-227.50C-37.75,-223.75 -40.50,-220 -43.25,-216.25L-54.25,-215.50L-54.25,-210L28.75,-210L28.75,-215.50C22.50,-215.75 16.25,-216 10,-216.25L-0.75,-227.50L-0.75,-295L28.50,-318.75C31,-317.75 33.50,-316.75 36,-315.75L48.50,-285.25L54,-285.25L66.25,-326.75C59,-331.25 51.75,-334.75 44.50,-339.25ZM185.25,-219.75C166,-215 147,-211.50 127.75,-206.75C114,-214.50 100,-221.25 86.25,-229C81.75,-247.75 77,-266.50 72.50,-285.25L98.75,-326.50L156.25,-339.25L202.50,-316.25C207,-297.50 211.50,-278.75 216,-260ZM132,-325.25C125.50,-321.50 119.25,-317.50 112.75,-313.75C111.75,-298.50 110.75,-280 109.75,-265.25C117.75,-251.75 126,-238.25 134,-224.75L156.25,-223.25C162,-226.75 168,-230.50 173.75,-234L178.75,-281.75C171.25,-295 160.25,-310.50 152.50,-323.25C145.75,-324 138.75,-324.50 132,-325.25ZM372.25,-216.25L364.50,-227.50L364.50,-311C360.25,-318.50 355.75,-325.75 351.50,-333.25C340.75,-335 330,-336.75 319.25,-338.50L279.50,-313.50L279.50,-338.50L226,-328.50L226,-323L241,-319.25L245.25,-309.25L245.25,-227.50L237,-216.25L226,-215.50L226,-210L298.25,-210L298.25,-215.50L287.25,-216.25L279.50,-227.50L279.50,-307.25C292,-312.25 300.25,-314.50 312.75,-319.50C318.50,-313.25 324.50,-307.25 330.25,-301L330.25,-227.50L322,-216.25L311,-215.50L311,-210L383.25,-210L383.25,-215.50ZM513.50,-226.50L505.50,-235.50L505.50,-303.25C499.50,-313 493.75,-322.75 487.75,-332.25C472,-334.50 456.75,-336.25 441,-338.50C426.50,-331.50 411.50,-325.25 396.75,-318.50L414.75,-281.25L420.25,-281.25C423.75,-295 427,-308.50 430.50,-322.25L459.50,-328C463.50,-321 467.25,-314 471.25,-306.75L471.25,-279C451,-274.50 426,-268.75 406,-264.25C401.50,-255.25 396.75,-246.50 392.25,-237.75C399.25,-227.25 405.75,-217 412.50,-206.50C426.50,-207.75 440,-208.50 454,-210L471.25,-231L471.25,-206.50L528.50,-217.25L528.50,-222.75ZM445.50,-221.25C440.25,-224.75 434.75,-228.50 429.50,-232L429.50,-253.50C442.25,-260.50 458,-268.25 471.25,-275.25L471.25,-236.75C463.25,-231.75 453.50,-225.75 445.50,-221.25ZM669,-222.75L664.25,-232.75L664.25,-338.25L610.75,-328.25L610.75,-322.75L625.75,-319L630,-309L630,-237.75C620.25,-233.75 610.75,-229.50 601,-225.50C595.25,-231.75 589.25,-237.75 583.50,-244L583.50,-338.25L530,-328.25L530,-322.75L545,-319L549.25,-309L549.25,-234C553.50,-226.50 558,-219.25 562.25,-211.75C573,-210 583.75,-208.25 594.50,-206.50L630,-231.50L630.25,-206.50L683.50,-216.50L683.50,-222ZM782.50,-236.25C778.25,-234 773.75,-232 769.50,-229.75L751.50,-229.75C748.25,-233.75 745.25,-238 742,-242L742,-325L779,-325L779,-335L742,-335L742,-367.50L733,-367.50L721.25,-345.25C717,-342 713,-338.50 708.75,-335L692,-335L692,-325.25L705,-325.25L707.75,-318.75L707.75,-236.75C711,-229.25 714.50,-221.50 717.75,-214L755.75,-207.25C765.75,-214.75 776.75,-222.25 786.75,-229.75ZM896.75,-328C885.50,-332 874.25,-335.25 863,-339.25L825.50,-335.50C816.25,-327 806.75,-318.75 797.50,-310.25L802.75,-280.50C826,-269.75 849.25,-258.75 872.50,-248L872.50,-226C866.75,-223.25 861.25,-220.25 855.50,-217.50C845.75,-221 836,-224.25 826.25,-227.75C819.75,-238.25 813,-248.25 806.50,-258.75L801,-259L794.75,-221.75C811.75,-216.25 829,-211 846,-205.50C860.25,-210 874.25,-214.50 888.50,-219L908,-245C903.75,-255 899.75,-265 895.50,-275C877.25,-282.25 859,-289.25 840.75,-296.50C837,-301.50 833,-306.25 829.25,-311.25L838.75,-331.25C843.75,-331 848.50,-331 853.50,-330.75L881.75,-297.25L887.25,-297.25ZM-33.88,40.25L-50.13,-79.75L-41.88,-92.25L-26.38,-95.25L-13.13,-89L-9.88,-79.75L-28.38,40.25ZM-21.38,80.50C-25.38,81 -29.13,81.75 -32.88,82.25C-36.38,80.75 -39.63,79.25 -43.13,77.75L-46.13,66C-44.13,62.75 -41.88,59.75 -39.88,56.75C-35.88,56 -32.13,55.25 -28.38,54.50L-18.38,59C-17.63,62.75 -16.63,66.25 -15.88,69.75C-17.88,73.25 -19.38,77 -21.38,80.50Z" fill="#ffffff" stroke="#000000"/>
    <path d="M-819.17,-279.51L-837.06,-259.42L-851.20,-252.55L-889.61,-252.09L-897.84,-263.07L-895.41,-324.16L-854.62,-322.29L-844.30,-313.95L-840.03,-302.88L-834.35,-302.66L-832.33,-353.35L-838.02,-353.58L-843.15,-342.88L-854.58,-335.66L-854.59,-335.41L-894.91,-336.77L-892.73,-391.67L-883.65,-401.96L-845.88,-398.72L-832.34,-390.51L-817.83,-369.12L-811.65,-368.88L-815.18,-410.88L-947.98,-416.16L-948.20,-410.72L-937.35,-409.54L-929.63,-398.09L-935.14,-259.60L-943.74,-248.79L-954.65,-248.49L-954.87,-243.04L-821.57,-237.75L-812.98,-279.27ZM-680.95,-248.51L-688.51,-257.72L-685.84,-324.74C-691.39,-334.62 -696.70,-344.49 -702.26,-354.13C-717.75,-356.97 -732.77,-359.30 -748.26,-362.15C-762.88,-355.79 -777.96,-350.20 -792.82,-344.10L-776.48,-306.55L-771.04,-306.33C-767.03,-319.80 -763.29,-333.02 -759.29,-346.49L-730.37,-351.03C-726.69,-343.95 -723.26,-336.88 -719.58,-329.55L-720.68,-302.10C-740.88,-298.45 -765.84,-293.74 -785.80,-290.07C-790.61,-281.35 -795.65,-272.88 -800.45,-264.40C-793.93,-253.74 -787.91,-243.34 -781.64,-232.69C-767.74,-233.38 -754.36,-233.59 -740.45,-234.52L-722.56,-254.62L-723.53,-230.38L-666.47,-238.77L-666.25,-244.21ZM-748.42,-245.99C-753.47,-249.65 -758.77,-253.58 -763.82,-257.25L-762.98,-278.52C-750.09,-284.94 -734.21,-291.99 -720.82,-298.39L-722.34,-260.31C-730.45,-255.67 -740.33,-250.12 -748.42,-245.99ZM-559.04,-355.37C-567.29,-353.47 -575.77,-352.07 -584.02,-350.17C-591.08,-340.79 -598.19,-330.18 -605.25,-320.80L-603.80,-357.15L-657.15,-348.62L-657.37,-343.18L-642.68,-338.88C-641.32,-335.61 -640.22,-332.09 -638.86,-328.82L-642.08,-247.95C-644.95,-244.35 -647.81,-240.75 -650.68,-237.15L-661.59,-236.84L-661.81,-231.40L-579.70,-228.13L-579.49,-233.57C-585.66,-234.07 -591.83,-234.56 -598.01,-235.05L-608.20,-246.60L-605.54,-313.38L-575.68,-335.72C-573.24,-334.63 -570.81,-333.55 -568.37,-332.46L-557.21,-301.80L-551.77,-301.58L-538.02,-342.15C-545.01,-346.89 -552.05,-350.63 -559.04,-355.37ZM-446.36,-248.84C-450.66,-246.78 -455.19,-244.98 -459.48,-242.92L-477.29,-243.63C-480.34,-247.72 -483.14,-252.04 -486.20,-256.12L-482.94,-338.23L-446.34,-336.77L-445.94,-346.66L-482.54,-348.12L-481.27,-380.27L-490.17,-380.62L-502.67,-359.07C-507.00,-356.03 -511.09,-352.72 -515.44,-349.43L-532.01,-350.09L-532.39,-340.44L-519.53,-339.93L-517.06,-333.39L-520.29,-252.28C-517.37,-244.73 -514.21,-236.92 -511.29,-229.38L-473.97,-221.21C-463.78,-228.23 -452.60,-235.22 -442.42,-242.24ZM-293.57,-222.95L-301.29,-234.41L-298.01,-317.01C-301.92,-324.59 -306.09,-331.94 -310.00,-339.53C-320.56,-341.68 -331.13,-343.83 -341.69,-345.99L-382.00,-322.82L-378.50,-410.86L-431.81,-403.07L-432.03,-397.63L-417.34,-393.33L-413.53,-383.27L-419.26,-239.09L-427.86,-228.29L-438.77,-227.98L-438.99,-222.54L-367.02,-219.68L-366.81,-225.12L-377.66,-226.29L-385.38,-237.75L-382.24,-316.64C-369.68,-321.09 -361.43,-322.99 -348.87,-327.45C-343.43,-321.04 -337.73,-314.87 -332.28,-308.46L-335.17,-235.75L-343.78,-224.95L-354.69,-224.64L-354.90,-219.20L-282.94,-216.34L-282.72,-221.78ZM-164.79,-328.55C-175.76,-332.95 -186.76,-336.61 -197.73,-341.01L-234.97,-338.77C-244.46,-330.73 -254.18,-322.94 -263.66,-314.90L-259.64,-285.26C-237.06,-273.71 -214.50,-261.92 -191.92,-250.37L-192.79,-228.61C-198.58,-226.11 -204.14,-223.36 -209.94,-220.87C-219.44,-224.71 -228.96,-228.31 -238.47,-232.16C-244.49,-242.80 -250.77,-252.96 -256.79,-263.60L-262.22,-264.06L-269.86,-227.46C-253.26,-221.35 -236.41,-215.48 -219.81,-209.37C-205.53,-213.26 -191.51,-217.16 -177.23,-221.05L-156.92,-246.01C-160.73,-256.07 -164.30,-266.12 -168.11,-276.17C-185.87,-284.06 -203.65,-291.71 -221.42,-299.60C-224.93,-304.69 -228.70,-309.54 -232.22,-314.64L-222.03,-334.05C-217.10,-333.61 -212.40,-333.42 -207.46,-332.97L-180.83,-298.73L-175.39,-298.51ZM-58.84,-233.44C-63.13,-231.38 -67.66,-229.58 -71.95,-227.52L-89.76,-228.23C-92.82,-232.31 -95.62,-236.63 -98.68,-240.72L-95.41,-322.82L-58.81,-321.37L-58.42,-331.26L-95.02,-332.72L-93.74,-364.87L-102.64,-365.22L-115.14,-343.67C-119.47,-340.62 -123.57,-337.32 -127.91,-334.02L-144.48,-334.68L-144.86,-325.04L-132.00,-324.53L-129.54,-317.99L-132.76,-236.87C-129.84,-229.33 -126.68,-221.52 -123.76,-213.97L-86.44,-205.80C-76.25,-212.83 -65.08,-219.82 -54.89,-226.84ZM51.31,-331.11C43.06,-329.21 34.58,-327.81 26.33,-325.91C19.27,-316.53 12.16,-305.92 5.10,-296.54L6.54,-332.89L-46.80,-324.36L-47.02,-318.92L-32.33,-314.62C-30.97,-311.35 -29.87,-307.83 -28.52,-304.56L-31.73,-223.69C-34.60,-220.09 -37.47,-216.49 -40.33,-212.89L-51.25,-212.58L-51.46,-207.14L30.64,-203.87L30.86,-209.31C24.69,-209.81 18.51,-210.30 12.34,-210.79L2.15,-222.35L4.80,-289.12L34.67,-311.46C37.11,-310.37 39.54,-309.29 41.97,-308.20L53.14,-277.54L58.58,-277.32L72.33,-317.89C65.33,-322.63 58.30,-326.37 51.31,-331.11ZM185.84,-207.37C166.61,-203.42 147.68,-200.71 128.45,-196.77C115.15,-204.97 101.57,-212.20 88.27,-220.41C84.56,-239.13 80.59,-257.87 76.88,-276.59L104.47,-316.37L161.85,-326.72L206.70,-302.15C210.41,-283.42 214.13,-264.70 217.84,-245.97ZM137.31,-313.82C130.73,-310.37 124.39,-306.66 117.82,-303.20C116.23,-288.16 114.51,-269.90 112.94,-255.34C120.33,-241.67 127.96,-228.00 135.34,-214.33L157.29,-211.97C163.12,-215.20 169.20,-218.68 175.02,-221.91L181.85,-268.95C174.95,-282.35 164.68,-298.12 157.51,-311.04C150.86,-312.04 143.96,-312.81 137.31,-313.82ZM370.69,-196.55L363.46,-207.98L366.75,-290.58C362.84,-298.17 358.67,-305.52 354.76,-313.11C344.19,-315.26 333.63,-317.41 323.06,-319.57L282.76,-296.40L283.74,-321.13L230.43,-313.34L230.21,-307.90L244.90,-303.60L248.71,-293.54L245.50,-212.67L236.89,-201.87L225.98,-201.56L225.77,-196.12L297.24,-193.28L297.45,-198.72L286.60,-199.89L279.38,-211.33L282.51,-290.22C295.08,-294.67 303.33,-296.57 315.89,-301.03C321.33,-294.62 327.03,-288.45 332.47,-282.04L329.58,-209.33L320.98,-198.53L310.07,-198.22L309.85,-192.78L381.32,-189.94L381.54,-195.38ZM510.82,-201.14L503.26,-210.35L505.92,-277.37C500.37,-287.25 495.06,-297.13 489.50,-306.76C474.01,-309.60 458.99,-311.93 443.50,-314.78C428.88,-308.43 413.80,-302.83 398.94,-296.73L415.28,-259.18L420.72,-258.96C424.73,-272.43 428.47,-285.65 432.48,-299.12L461.39,-303.67C465.07,-296.58 468.51,-289.51 472.18,-282.18L471.09,-254.73C450.88,-251.08 425.92,-246.37 405.96,-242.71C401.15,-233.98 396.11,-225.51 391.32,-217.03C397.83,-206.37 403.85,-195.98 410.12,-185.32C424.02,-186.01 437.40,-186.22 451.31,-187.15L469.20,-207.25L468.24,-183.01L525.29,-191.40L525.51,-196.84ZM443.34,-198.62C438.29,-202.29 432.99,-206.21 427.94,-209.88L428.78,-231.15C441.67,-237.57 457.56,-244.62 470.94,-251.02L469.42,-212.94C461.31,-208.31 451.43,-202.75 443.34,-198.62ZM664.49,-191.31L660.19,-201.39L664.33,-305.75L611.02,-297.97L610.80,-292.52L625.49,-288.23L629.30,-278.17L626.50,-207.68C616.70,-204.11 607.14,-200.28 597.33,-196.71C591.89,-203.12 586.19,-209.29 580.75,-215.70L584.46,-308.93L531.14,-301.14L530.92,-295.70L545.61,-291.40L549.42,-281.34L546.48,-207.15C550.39,-199.56 554.55,-192.21 558.46,-184.63C569.03,-182.47 579.59,-180.32 590.16,-178.17L626.26,-201.50L625.52,-176.76L678.59,-184.56L678.81,-190.00ZM777.30,-200.20C773.01,-198.15 768.48,-196.34 764.18,-194.29L746.38,-194.99C743.32,-199.08 740.52,-203.40 737.46,-207.48L740.73,-289.59L777.33,-288.14L777.72,-298.03L741.12,-299.48L742.40,-331.63L733.49,-331.99L721.00,-310.44C716.66,-307.39 712.57,-304.08 708.23,-300.79L691.66,-301.45L691.27,-291.80L704.13,-291.29L706.60,-284.75L703.38,-203.64C706.30,-196.09 709.45,-188.29 712.37,-180.74L749.70,-172.57C759.88,-179.59 771.06,-186.58 781.25,-193.61ZM893.93,-286.47C882.95,-290.87 871.95,-294.53 860.98,-298.93L823.74,-296.69C814.25,-288.65 804.53,-280.86 795.05,-272.82L799.07,-243.18C821.65,-231.63 844.21,-219.84 866.79,-208.29L865.93,-186.53C860.13,-184.03 854.57,-181.28 848.78,-178.79C839.27,-182.63 829.75,-186.23 820.24,-190.08C814.23,-200.72 807.94,-210.88 801.93,-221.52L796.49,-221.98L788.85,-185.38C805.45,-179.27 822.31,-173.40 838.91,-167.29C853.18,-171.18 867.21,-175.08 881.48,-178.97L901.79,-203.93C897.98,-213.99 894.42,-224.03 890.60,-234.09C872.84,-241.98 855.06,-249.63 837.29,-257.51C833.78,-262.61 830.01,-267.46 826.49,-272.56L836.68,-291.97C841.61,-291.52 846.31,-291.34 851.25,-290.89L877.88,-256.64L883.32,-256.43ZM-41.15,41.22L-52.50,-78.13L-43.85,-90.17L-28.40,-92.53L-15.54,-85.82L-12.69,-76.55L-35.70,41.43ZM-30.36,81.52C-34.34,81.86 -38.08,82.46 -41.81,82.80C-45.21,81.18 -48.37,79.57 -51.77,77.95L-54.28,66.21C-52.17,63.07 -49.83,60.19 -47.73,57.30C-43.74,56.72 -40.00,56.12 -36.27,55.53L-26.55,60.37C-25.96,64.11 -25.10,67.61 -24.50,71.11C-26.62,74.49 -28.25,78.14 -30.36,81.52Z" fill="#ffffff" stroke="#000000"/>
    <path d="M-805.36,-306.21L-823.84,-287.04L-838.10,-280.80L-876.11,-281.86L-883.82,-293.04L-879.02,-353.37L-838.74,-349.91L-828.86,-341.26L-825.08,-330.15L-819.46,-329.70L-815.48,-379.77L-821.09,-380.21L-826.59,-369.84L-838.18,-363.14L-838.20,-362.90L-878.03,-365.82L-873.71,-420.04L-864.33,-429.86L-827.10,-425.18L-814.02,-416.52L-800.52,-394.80L-794.41,-394.31L-796.25,-435.99L-927.40,-446.43L-927.83,-441.06L-917.14,-439.47L-909.96,-427.84L-920.85,-291.07L-929.78,-280.73L-940.59,-280.85L-941.01,-275.48L-809.38,-264.99L-799.25,-305.72ZM-669.86,-270.11L-676.98,-279.52L-671.71,-345.71C-676.81,-355.70 -681.67,-365.67 -686.79,-375.42C-702.00,-378.84 -716.76,-381.74 -731.97,-385.16C-746.68,-379.45 -761.82,-374.51 -776.76,-369.06L-762.07,-331.27L-756.70,-330.85C-752.21,-344.01 -747.98,-356.94 -743.50,-370.10L-714.72,-373.46C-711.36,-366.31 -708.24,-359.18 -704.89,-351.79L-707.05,-324.68C-727.18,-321.86 -752.05,-318.19 -771.94,-315.35C-777.04,-306.91 -782.36,-298.73 -787.44,-290.53C-781.41,-279.73 -775.86,-269.21 -770.08,-258.43C-756.31,-258.56 -743.06,-258.24 -729.27,-258.62L-710.78,-277.79L-712.69,-253.86L-655.93,-259.90L-655.50,-265.28ZM-736.70,-270.27C-741.55,-274.10 -746.64,-278.19 -751.49,-282.01L-749.82,-303.02C-736.82,-308.86 -720.83,-315.21 -707.34,-321.02L-710.34,-283.41C-718.54,-279.15 -728.53,-274.04 -736.70,-270.27ZM-545.08,-371.02C-553.32,-369.46 -561.76,-368.41 -569.99,-366.86C-577.34,-357.86 -584.79,-347.64 -592.15,-338.64L-589.29,-374.54L-642.39,-368.20L-642.82,-362.82L-628.45,-357.99C-627.24,-354.70 -626.29,-351.19 -625.08,-347.89L-631.44,-268.03C-634.42,-264.58 -637.40,-261.13 -640.37,-257.68L-651.18,-257.81L-651.61,-252.43L-570.52,-245.98L-570.09,-251.35C-576.18,-252.08 -582.27,-252.81 -588.35,-253.54L-597.98,-265.37L-592.73,-331.31L-562.31,-352.24C-559.94,-351.06 -557.58,-349.89 -555.21,-348.72L-545.37,-317.95L-540.00,-317.53L-524.81,-357.11C-531.54,-362.07 -538.35,-366.06 -545.08,-371.02ZM-437.82,-261.22C-442.15,-259.35 -446.70,-257.75 -451.02,-255.88L-468.61,-257.28C-471.47,-261.44 -474.07,-265.82 -476.94,-269.99L-470.48,-351.07L-434.33,-348.19L-433.56,-357.96L-469.70,-360.84L-467.17,-392.59L-475.97,-393.29L-489.18,-372.47C-493.58,-369.62 -497.76,-366.51 -502.18,-363.42L-518.55,-364.73L-519.31,-355.20L-506.61,-354.19L-504.43,-347.63L-510.80,-267.52C-508.21,-259.94 -505.40,-252.10 -502.80,-244.52L-466.21,-234.97C-455.85,-241.52 -444.52,-247.99 -434.17,-254.54ZM-287.71,-229.60L-294.89,-241.24L-288.40,-322.81C-291.97,-330.47 -295.80,-337.90 -299.37,-345.56C-309.73,-348.10 -320.10,-350.65 -330.47,-353.19L-371.24,-331.86L-364.32,-418.81L-417.36,-413.20L-417.79,-407.83L-403.43,-403.00L-400.05,-392.90L-411.39,-250.51L-420.32,-240.16L-431.13,-240.29L-431.56,-234.91L-360.49,-229.25L-360.06,-234.63L-370.75,-236.22L-377.93,-247.85L-371.73,-325.76C-359.13,-329.67 -350.89,-331.22 -338.29,-335.14C-333.16,-328.58 -327.77,-322.26 -322.64,-315.70L-328.35,-243.90L-337.29,-233.55L-348.09,-233.67L-348.52,-228.30L-277.45,-222.64L-277.02,-228.02ZM-156.17,-328.99C-166.85,-333.78 -177.59,-337.83 -188.27,-342.61L-225.19,-341.86C-234.89,-334.28 -244.81,-326.96 -254.51,-319.37L-251.70,-289.90C-229.82,-277.59 -207.96,-265.04 -186.08,-252.73L-187.79,-231.23C-193.63,-229.00 -199.23,-226.49 -205.06,-224.25C-214.32,-228.43 -223.59,-232.36 -232.84,-236.54C-238.37,-247.30 -244.19,-257.60 -249.72,-268.36L-255.08,-269.03L-264.08,-233.13C-247.90,-226.43 -231.46,-219.96 -215.28,-213.27C-201.01,-216.56 -186.98,-219.86 -172.71,-223.15L-151.64,-247.03C-155.01,-257.13 -158.14,-267.21 -161.51,-277.31C-178.78,-285.82 -196.06,-294.07 -213.33,-302.58C-216.60,-307.75 -220.14,-312.70 -223.42,-317.88L-212.58,-336.68C-207.71,-336.05 -203.07,-335.68 -198.21,-335.04L-173.22,-300.12L-167.84,-299.69ZM-55.11,-230.75C-59.44,-228.88 -63.99,-227.28 -68.32,-225.41L-85.90,-226.81C-88.77,-230.97 -91.37,-235.35 -94.23,-239.51L-87.78,-320.60L-51.63,-317.72L-50.85,-327.49L-87.00,-330.37L-84.47,-362.12L-93.26,-362.82L-106.47,-341.99C-110.88,-339.15 -115.06,-336.04 -119.48,-332.95L-135.84,-334.26L-136.60,-324.73L-123.90,-323.72L-121.72,-317.16L-128.10,-237.05C-125.51,-229.47 -122.69,-221.63 -120.10,-214.05L-83.50,-204.50C-73.15,-211.05 -61.82,-217.52 -51.47,-224.07ZM57.67,-323.03C49.44,-321.47 41.00,-320.42 32.76,-318.87C25.41,-309.87 17.96,-299.64 10.61,-290.65L13.46,-326.55L-39.64,-320.21L-40.06,-314.83L-25.70,-310.00C-24.49,-306.71 -23.54,-303.19 -22.33,-299.90L-28.69,-220.04C-31.66,-216.59 -34.64,-213.14 -37.62,-209.69L-48.43,-209.82L-48.85,-204.44L32.23,-197.99L32.66,-203.36C26.57,-204.09 20.49,-204.82 14.40,-205.55L4.77,-217.38L10.02,-283.32L40.45,-304.24C42.81,-303.07 45.17,-301.90 47.54,-300.73L57.38,-269.96L62.75,-269.53L77.95,-309.12C71.21,-314.08 64.40,-318.07 57.67,-323.03ZM185.88,-195.34C166.70,-192.20 147.87,-190.25 128.69,-187.11C115.86,-195.75 102.71,-203.43 89.88,-212.08C86.94,-230.74 83.76,-249.43 80.82,-268.10L109.68,-306.35L166.84,-314.33L210.23,-288.27C213.17,-269.60 216.11,-250.93 219.05,-232.27ZM142.06,-302.54C135.42,-299.39 129.00,-295.96 122.36,-292.81C120.20,-277.99 117.78,-259.99 115.66,-245.66C122.42,-231.85 129.43,-218.02 136.20,-204.21L157.82,-201.01C163.71,-203.99 169.86,-207.18 175.75,-210.15L184.35,-256.41C178.05,-269.94 168.51,-285.94 161.93,-299.00C155.40,-300.25 148.60,-301.29 142.06,-302.54ZM368.28,-177.37L361.59,-188.97L368.08,-270.54C364.51,-278.20 360.68,-285.63 357.11,-293.29C346.75,-295.83 336.38,-298.38 326.02,-300.92L285.24,-279.59L287.19,-304.02L234.14,-298.41L233.71,-293.03L248.08,-288.20L251.45,-278.11L245.09,-198.24L236.16,-187.89L225.35,-188.02L224.93,-182.64L295.51,-177.02L295.94,-182.40L285.25,-183.99L278.55,-195.58L284.75,-273.49C297.35,-277.40 305.59,-278.96 318.19,-282.87C323.32,-276.32 328.72,-269.99 333.85,-263.43L328.13,-191.63L319.20,-181.28L308.39,-181.41L307.96,-176.03L378.54,-170.41L378.97,-175.79ZM507.07,-176.40L499.96,-185.82L505.22,-252.00C500.12,-261.99 495.26,-271.96 490.14,-281.71C474.93,-285.14 460.17,-288.03 444.96,-291.45C430.25,-285.74 415.11,-280.80 400.17,-275.36L414.86,-237.57L420.23,-237.14C424.72,-250.30 428.95,-263.24 433.43,-276.40L462.21,-279.76C465.58,-272.61 468.69,-265.48 472.04,-258.08L469.88,-230.98C449.75,-228.15 424.88,-224.48 404.99,-221.64C399.89,-213.20 394.57,-205.02 389.50,-196.82C395.52,-186.02 401.07,-175.50 406.85,-164.72C420.62,-164.85 433.87,-164.53 447.66,-164.91L466.15,-184.08L464.24,-160.15L521.00,-166.20L521.43,-171.57ZM440.23,-176.56C435.38,-180.39 430.29,-184.48 425.44,-188.31L427.11,-209.31C440.11,-215.16 456.10,-221.50 469.59,-227.31L466.59,-189.70C458.39,-185.44 448.40,-180.34 440.23,-176.56ZM658.69,-160.64L654.83,-170.78L663.03,-273.85L609.99,-268.24L609.56,-262.86L623.92,-258.03L627.30,-247.93L621.76,-178.33C611.92,-175.18 602.31,-171.77 592.47,-168.62C587.34,-175.17 581.95,-181.50 576.82,-188.05L584.15,-280.13L531.10,-274.52L530.68,-269.15L545.04,-264.32L548.41,-254.22L542.58,-180.95C546.15,-173.29 549.98,-165.86 553.55,-158.20C563.91,-155.65 574.28,-153.11 584.64,-150.56L621.27,-172.22L619.57,-147.78L672.37,-153.41L672.79,-158.78ZM770.62,-165.00C766.29,-163.14 761.74,-161.53 757.41,-159.66L739.83,-161.06C736.96,-165.22 734.36,-169.61 731.50,-173.77L737.96,-254.85L774.10,-251.98L774.88,-261.74L738.73,-264.62L741.26,-296.37L732.47,-297.07L719.26,-276.25C714.85,-273.41 710.68,-270.30 706.25,-267.21L689.89,-268.51L689.13,-258.99L701.83,-257.98L704.01,-251.41L697.63,-171.31C700.22,-163.73 703.04,-155.88 705.63,-148.30L742.23,-138.75C752.58,-145.30 763.91,-151.77 774.26,-158.32ZM889.37,-245.75C878.69,-250.53 867.95,-254.58 857.27,-259.36L820.34,-258.62C810.65,-251.03 800.72,-243.71 791.03,-236.13L793.84,-206.66C815.72,-194.35 837.58,-181.79 859.45,-169.48L857.74,-147.99C851.91,-145.75 846.30,-143.25 840.47,-141.01C831.22,-145.19 821.95,-149.12 812.70,-153.30C807.16,-164.06 801.35,-174.35 795.81,-185.12L790.46,-185.79L781.46,-149.88C797.64,-143.19 814.08,-136.72 830.26,-130.02C844.53,-133.31 858.56,-136.62 872.83,-139.91L893.90,-163.79C890.53,-173.89 887.40,-183.97 884.02,-194.07C866.76,-202.57 849.47,-210.83 832.21,-219.33C828.93,-224.51 825.40,-229.46 822.12,-234.63L832.96,-253.43C837.82,-252.80 842.46,-252.43 847.33,-251.80L872.32,-216.87L877.69,-216.45ZM-48.41,41.61L-54.95,-76.88L-45.92,-88.45L-30.55,-90.17L-18.09,-83.04L-15.63,-73.75L-43.04,42.04ZM-39.33,81.91C-43.28,82.08 -47.00,82.52 -50.70,82.72C-54.01,80.98 -57.06,79.27 -60.37,77.53L-62.38,65.82C-60.18,62.80 -57.75,60.04 -55.56,57.27C-51.59,56.84 -47.87,56.40 -44.15,55.96L-34.73,61.14C-34.29,64.86 -33.58,68.36 -33.12,71.83C-35.35,75.10 -37.11,78.64 -39.33,81.91Z" fill="#ffffff" stroke="#000000"/>
    <path d="M-790.60,-332.31L-809.63,-314.07L-823.98,-308.46L-861.53,-311.01L-868.72,-322.37L-861.60,-381.84L-821.90,-376.84L-812.47,-367.90L-809.16,-356.76L-803.62,-356.09L-797.71,-405.45L-803.25,-406.12L-809.10,-396.07L-820.82,-389.90L-820.85,-389.66L-860.13,-394.12L-853.73,-447.57L-844.06,-456.92L-807.42,-450.82L-794.83,-441.74L-782.33,-419.73L-776.31,-419.01L-776.49,-460.31L-905.79,-475.79L-906.42,-470.49L-895.92,-468.50L-889.27,-456.72L-905.41,-321.88L-914.66,-311.99L-925.34,-312.54L-925.97,-307.24L-796.19,-291.70L-784.58,-331.59ZM-658.01,-291.28L-664.68,-300.87L-656.86,-366.12C-661.52,-376.20 -665.93,-386.25 -670.61,-396.10C-685.52,-400.08 -700.01,-403.52 -714.92,-407.51C-729.69,-402.44 -744.86,-398.15 -759.84,-393.35L-746.80,-355.40L-741.51,-354.76C-736.55,-367.60 -731.86,-380.23 -726.90,-393.07L-698.31,-395.26C-695.27,-388.06 -692.46,-380.88 -689.45,-373.44L-692.65,-346.71C-712.67,-344.71 -737.41,-342.06 -757.19,-340.03C-762.56,-331.88 -768.15,-324.00 -773.49,-316.09C-767.96,-305.17 -762.88,-294.55 -757.59,-283.66C-743.96,-283.25 -730.87,-282.42 -717.22,-282.25L-698.18,-300.48L-701.01,-276.89L-644.63,-280.64L-643.99,-285.93ZM-724.11,-294.06C-728.76,-298.04 -733.62,-302.28 -738.28,-306.26L-735.80,-326.97C-722.71,-332.24 -706.65,-337.89 -693.08,-343.10L-697.52,-306.02C-705.80,-302.13 -715.88,-297.47 -724.11,-294.06ZM-530.63,-386.17C-538.84,-384.96 -547.23,-384.25 -555.43,-383.04C-563.06,-374.42 -570.83,-364.61 -578.45,-356.00L-574.22,-391.39L-626.98,-387.21L-627.62,-381.91L-613.60,-376.57C-612.53,-373.27 -611.73,-369.75 -610.66,-366.45L-620.09,-287.71C-623.17,-284.42 -626.25,-281.12 -629.33,-277.83L-640.01,-278.37L-640.65,-273.08L-560.71,-263.51L-560.08,-268.80C-566.07,-269.76 -572.06,-270.73 -578.05,-271.69L-587.10,-283.76L-579.32,-348.77L-548.41,-368.27C-546.12,-367.02 -543.82,-365.77 -541.53,-364.52L-533.01,-333.70L-527.71,-333.07L-511.13,-371.62C-517.59,-376.79 -524.17,-381.00 -530.63,-386.17ZM-428.87,-273.36C-433.22,-271.69 -437.78,-270.28 -442.14,-268.60L-459.47,-270.68C-462.14,-274.90 -464.54,-279.34 -467.21,-283.57L-457.64,-363.51L-422.00,-359.24L-420.85,-368.87L-456.48,-373.14L-452.73,-404.44L-461.40,-405.48L-475.29,-385.41C-479.75,-382.77 -484.01,-379.86 -488.51,-376.98L-504.64,-378.91L-505.76,-369.52L-493.24,-368.02L-491.34,-361.44L-500.80,-282.46C-498.54,-274.87 -496.06,-267.00 -493.79,-259.40L-457.97,-248.52C-447.48,-254.59 -436.02,-260.54 -425.52,-266.61ZM-281.65,-236.19L-288.30,-247.98L-278.67,-328.40C-281.89,-336.12 -285.39,-343.62 -288.62,-351.33C-298.77,-354.26 -308.92,-357.18 -319.08,-360.11L-360.24,-340.61L-349.98,-426.33L-402.66,-422.87L-403.29,-417.57L-389.28,-412.23L-386.34,-402.11L-403.15,-261.73L-412.39,-251.85L-423.07,-252.40L-423.71,-247.10L-353.64,-238.71L-353.01,-244.01L-363.51,-246.00L-370.16,-257.78L-360.96,-334.59C-348.35,-337.97 -340.14,-339.18 -327.53,-342.56C-322.71,-335.87 -317.62,-329.40 -312.81,-322.72L-321.28,-251.93L-330.53,-242.05L-341.21,-242.59L-341.84,-237.30L-271.77,-228.91L-271.14,-234.20ZM-147.65,-329.32C-158.02,-334.47 -168.48,-338.90 -178.86,-344.05L-215.40,-344.76C-225.29,-337.64 -235.39,-330.79 -245.28,-323.67L-243.66,-294.41C-222.51,-281.38 -201.38,-268.10 -180.23,-255.07L-182.77,-233.88C-188.62,-231.89 -194.26,-229.64 -200.12,-227.65C-209.11,-232.15 -218.12,-236.40 -227.11,-240.90C-232.16,-251.76 -237.51,-262.17 -242.56,-273.03L-247.82,-273.91L-258.14,-238.75C-242.40,-231.50 -226.39,-224.45 -210.65,-217.19C-196.41,-219.88 -182.41,-222.60 -168.16,-225.29L-146.38,-248.08C-149.32,-258.21 -152.02,-268.30 -154.96,-278.42C-171.70,-287.51 -188.47,-296.35 -205.21,-305.44C-208.25,-310.69 -211.55,-315.73 -214.59,-320.97L-203.13,-339.14C-198.35,-338.32 -193.77,-337.77 -188.99,-336.96L-165.64,-301.43L-160.34,-300.80ZM-51.56,-228.18C-55.92,-226.50 -60.48,-225.10 -64.83,-223.42L-82.17,-225.50C-84.84,-229.72 -87.24,-234.16 -89.91,-238.39L-80.33,-318.33L-44.70,-314.06L-43.55,-323.69L-79.18,-327.96L-75.43,-359.26L-84.10,-360.30L-97.98,-340.23C-102.45,-337.59 -106.71,-334.68 -111.20,-331.80L-127.34,-333.73L-128.46,-324.34L-115.94,-322.84L-114.04,-316.26L-123.50,-237.28C-121.23,-229.69 -118.76,-221.82 -116.49,-214.22L-80.67,-203.34C-70.18,-209.41 -58.72,-215.36 -48.22,-221.43ZM63.61,-315.01C55.40,-313.80 47.02,-313.09 38.81,-311.88C31.19,-303.27 23.42,-293.45 15.79,-284.84L20.03,-320.23L-32.74,-316.05L-33.37,-310.75L-19.36,-305.41C-18.29,-302.11 -17.49,-298.59 -16.42,-295.29L-25.85,-216.55C-28.93,-213.26 -32.01,-209.96 -35.09,-206.67L-45.77,-207.22L-46.40,-201.92L33.53,-192.35L34.17,-197.64C28.18,-198.61 22.19,-199.57 16.20,-200.53L7.14,-212.60L14.93,-277.61L45.84,-297.12C48.13,-295.86 50.42,-294.61 52.71,-293.36L61.23,-262.54L66.53,-261.91L83.12,-300.47C76.65,-305.64 70.07,-309.84 63.61,-315.01ZM185.39,-183.69C166.30,-181.33 147.60,-180.15 128.51,-177.80C116.16,-186.85 103.45,-194.97 91.11,-204.02C88.93,-222.59 86.52,-241.20 84.35,-259.78L114.39,-296.48L171.24,-302.13L213.13,-274.64C215.30,-256.06 217.47,-237.49 219.65,-218.91ZM146.27,-291.44C139.58,-288.58 133.09,-285.45 126.40,-282.58C123.68,-268.01 120.58,-250.31 117.92,-236.22C124.07,-222.29 130.46,-208.34 136.60,-194.41L157.86,-190.40C163.80,-193.11 170.01,-196.03 175.95,-198.74L186.28,-244.15C180.58,-257.78 171.78,-273.97 165.78,-287.15C159.37,-288.65 152.68,-289.94 146.27,-291.44ZM365.09,-158.75L358.92,-170.48L368.55,-250.90C365.32,-258.61 361.82,-266.12 358.60,-273.83C348.44,-276.75 338.29,-279.68 328.14,-282.60L286.97,-263.11L289.86,-287.19L237.18,-283.73L236.54,-278.43L250.56,-273.09L253.50,-262.97L244.07,-184.23L234.83,-174.35L224.14,-174.90L223.51,-169.60L293.10,-161.27L293.73,-166.56L283.22,-168.55L277.06,-180.28L286.25,-257.09C298.87,-260.47 307.07,-261.68 319.69,-265.06C324.51,-258.37 329.59,-251.90 334.41,-245.22L325.93,-174.43L316.69,-164.55L306.01,-165.09L305.38,-159.80L374.96,-151.46L375.59,-156.76ZM502.31,-152.33L495.64,-161.92L503.46,-227.17C498.80,-237.26 494.39,-247.31 489.71,-257.15C474.80,-261.14 460.31,-264.58 445.40,-268.56C430.63,-263.49 415.46,-259.20 400.48,-254.40L413.52,-216.45L418.81,-215.82C423.77,-228.66 428.46,-241.28 433.41,-254.12L462.01,-256.32C465.05,-249.11 467.86,-241.94 470.87,-234.50L467.67,-207.77C447.65,-205.77 422.91,-203.12 403.13,-201.09C397.76,-192.94 392.17,-185.06 386.83,-177.15C392.36,-166.23 397.44,-155.61 402.73,-144.72C416.36,-144.31 429.44,-143.47 443.10,-143.30L462.14,-161.54L459.31,-137.94L515.69,-141.69L516.32,-146.99ZM436.21,-155.12C431.56,-159.10 426.69,-163.34 422.04,-167.32L424.52,-188.02C437.61,-193.30 453.67,-198.94 467.24,-204.16L462.80,-167.08C454.52,-163.18 444.44,-158.53 436.21,-155.12ZM651.64,-130.79L648.22,-140.97L660.39,-242.58L607.71,-239.11L607.07,-233.82L621.09,-228.48L624.03,-218.35L615.81,-149.73C605.96,-147.00 596.32,-144.01 586.47,-141.28C581.65,-147.96 576.56,-154.43 571.75,-161.11L582.62,-251.89L529.94,-248.43L529.30,-243.13L543.32,-237.79L546.26,-227.67L537.61,-155.43C540.83,-147.72 544.33,-140.22 547.56,-132.50C557.71,-129.58 567.86,-126.65 578.02,-123.73L615.09,-143.71L612.45,-119.61L664.89,-123.10L665.52,-128.39ZM762.51,-130.70C758.16,-129.02 753.60,-127.62 749.24,-125.94L731.91,-128.01C729.24,-132.24 726.84,-136.68 724.17,-140.91L733.74,-220.85L769.38,-216.58L770.53,-226.21L734.90,-230.48L738.64,-261.78L729.98,-262.82L716.09,-242.74C711.63,-240.10 707.37,-237.19 702.87,-234.31L686.74,-236.25L685.62,-226.85L698.14,-225.36L700.03,-218.78L690.58,-139.80C692.84,-132.20 695.32,-124.34 697.59,-116.74L733.41,-105.85C743.90,-111.92 755.36,-117.88 765.86,-123.95ZM883.13,-205.89C872.76,-211.04 862.30,-215.47 851.92,-220.62L815.37,-221.33C805.48,-214.21 795.38,-207.36 785.49,-200.24L787.12,-170.98C808.27,-157.95 829.40,-144.67 850.55,-131.64L848.01,-110.45C842.16,-108.46 836.51,-106.21 830.66,-104.22C821.67,-108.72 812.66,-112.97 803.67,-117.47C798.62,-128.33 793.27,-138.74 788.22,-149.60L782.95,-150.48L772.64,-115.32C788.38,-108.06 804.39,-101.02 820.13,-93.76C834.37,-96.45 848.37,-99.17 862.61,-101.86L884.39,-124.65C881.45,-134.77 878.75,-144.87 875.81,-154.99C859.07,-164.08 842.30,-172.92 825.56,-182.01C822.53,-187.26 819.22,-192.29 816.19,-197.54L827.65,-215.71C832.43,-214.89 837.01,-214.34 841.79,-213.53L865.14,-178.00L870.44,-177.37ZM-55.64,41.45L-57.45,-76.00L-48.07,-87.09L-32.79,-88.19L-20.75,-80.64L-18.69,-71.36L-50.34,42.09ZM-48.24,81.66C-52.15,81.68 -55.85,81.97 -59.52,82.02C-62.72,80.17 -65.68,78.35 -68.88,76.50L-70.41,64.84C-68.11,61.94 -65.60,59.31 -63.32,56.65C-59.38,56.39 -55.69,56.10 -51.99,55.81L-42.88,61.30C-42.59,65.00 -42.03,68.48 -41.71,71.94C-44.04,75.08 -45.91,78.52 -48.24,81.66Z" fill="#ffffff" stroke="#000000"/>
    <path d="M-774.91,-357.77L-794.45,-340.48L-808.86,-335.50L-845.90,-339.49L-852.56,-351.01L-843.18,-409.54L-804.12,-403.04L-795.14,-393.82L-792.31,-382.67L-786.86,-381.80L-779.07,-430.38L-784.52,-431.25L-790.70,-421.55L-802.54,-415.91L-802.58,-415.67L-841.24,-421.63L-832.81,-474.24L-822.88,-483.10L-786.89,-475.63L-774.80,-466.15L-763.30,-443.89L-757.37,-442.94L-755.93,-483.79L-883.19,-504.18L-884.02,-498.97L-873.71,-496.59L-867.60,-484.67L-888.87,-351.96L-898.39,-342.55L-908.94,-343.51L-909.77,-338.30L-782.04,-317.83L-768.99,-356.82ZM-645.41,-311.98L-651.62,-321.72L-641.33,-385.94C-645.54,-396.10 -649.51,-406.21 -653.75,-416.13C-668.34,-420.65 -682.53,-424.63 -697.11,-429.16C-711.92,-424.72 -727.09,-421.08 -742.10,-416.92L-730.69,-378.88L-725.48,-378.04C-720.07,-390.54 -714.94,-402.85 -709.54,-415.35L-681.17,-416.39C-678.45,-409.15 -675.95,-401.94 -673.26,-394.46L-677.48,-368.16C-697.36,-366.97 -721.93,-365.32 -741.57,-364.09C-747.20,-356.24 -753.04,-348.67 -758.63,-341.06C-753.59,-330.04 -748.99,-319.34 -744.18,-308.36C-730.72,-307.42 -717.81,-306.08 -704.31,-305.37L-684.77,-322.66L-688.49,-299.44L-632.59,-300.93L-631.76,-306.14ZM-710.66,-317.33C-715.11,-321.45 -719.75,-325.84 -724.19,-329.95L-720.93,-350.33C-707.78,-355.03 -691.67,-359.98 -678.05,-364.61L-683.90,-328.11C-692.24,-324.59 -702.39,-320.38 -710.66,-317.33ZM-515.71,-400.81C-523.88,-399.93 -532.20,-399.57 -540.36,-398.69C-548.24,-390.47 -556.31,-381.07 -564.19,-372.85L-558.61,-407.69L-610.95,-405.63L-611.79,-400.41L-598.14,-394.58C-597.21,-391.27 -596.56,-387.76 -595.63,-384.45L-608.05,-306.96C-611.22,-303.83 -614.40,-300.69 -617.58,-297.55L-628.12,-298.51L-628.95,-293.30L-550.28,-280.69L-549.44,-285.90C-555.33,-287.09 -561.21,-288.28 -567.10,-289.46L-575.58,-301.76L-565.33,-365.74L-533.99,-383.81C-531.78,-382.49 -529.56,-381.16 -527.34,-379.83L-520.13,-349.02L-514.91,-348.18L-497.00,-385.66C-503.18,-391.03 -509.53,-395.45 -515.71,-400.81ZM-419.51,-285.26C-423.88,-283.77 -428.45,-282.56 -432.82,-281.07L-449.88,-283.80C-452.35,-288.09 -454.55,-292.57 -457.02,-296.86L-444.42,-375.53L-409.34,-369.91L-407.82,-379.39L-442.90,-385.01L-437.96,-415.82L-446.49,-417.19L-461.01,-397.88C-465.53,-395.45 -469.85,-392.74 -474.41,-390.06L-490.29,-392.61L-491.77,-383.37L-479.45,-381.39L-477.83,-374.81L-490.29,-297.08C-488.35,-289.48 -486.21,-281.60 -484.26,-274.00L-449.27,-261.83C-438.65,-267.42 -427.08,-272.86 -416.47,-278.45ZM-275.38,-242.71L-281.49,-254.63L-268.81,-333.78C-271.70,-341.54 -274.86,-349.09 -277.75,-356.85C-287.68,-360.14 -297.60,-363.43 -307.53,-366.72L-349.00,-349.06L-335.48,-433.43L-387.72,-432.07L-388.55,-426.86L-374.90,-421.03L-372.39,-410.90L-394.53,-272.75L-404.06,-263.33L-414.60,-264.29L-415.44,-259.08L-346.48,-248.03L-345.64,-253.24L-355.96,-255.63L-362.07,-267.54L-349.95,-343.14C-337.34,-345.98 -329.18,-346.86 -316.57,-349.70C-312.07,-342.90 -307.30,-336.30 -302.80,-329.50L-313.96,-259.83L-323.49,-250.42L-334.03,-251.38L-334.87,-246.17L-265.91,-235.12L-265.07,-240.33ZM-139.21,-329.54C-149.27,-335.04 -159.44,-339.83 -169.49,-345.33L-205.61,-347.47C-215.67,-340.82 -225.93,-334.44 -235.98,-327.79L-235.53,-298.79C-215.12,-285.07 -194.75,-271.11 -174.35,-257.39L-177.69,-236.54C-183.56,-234.80 -189.23,-232.80 -195.10,-231.06C-203.81,-235.86 -212.55,-240.42 -221.26,-245.22C-225.83,-256.16 -230.71,-266.67 -235.28,-277.61L-240.45,-278.68L-252.04,-244.32C-236.76,-236.52 -221.20,-228.93 -205.92,-221.13C-191.73,-223.23 -177.78,-225.37 -163.59,-227.47L-141.15,-249.15C-143.66,-259.28 -145.94,-269.37 -148.44,-279.49C-164.64,-289.14 -180.88,-298.54 -197.08,-308.19C-199.87,-313.50 -202.94,-318.61 -205.74,-323.92L-193.69,-341.43C-188.99,-340.43 -184.49,-339.71 -179.79,-338.72L-158.10,-302.67L-152.89,-301.83ZM-48.17,-225.75C-52.54,-224.26 -57.11,-223.05 -61.48,-221.56L-78.54,-224.29C-81.01,-228.58 -83.21,-233.06 -85.68,-237.35L-73.07,-316.02L-38.00,-310.40L-36.48,-319.88L-71.56,-325.50L-66.62,-356.31L-75.15,-357.68L-89.67,-338.37C-94.19,-335.94 -98.51,-333.23 -103.07,-330.55L-118.95,-333.10L-120.43,-323.86L-108.11,-321.88L-106.49,-315.30L-118.95,-237.57C-117.00,-229.97 -114.86,-222.09 -112.92,-214.49L-77.93,-202.32C-67.31,-207.91 -55.74,-213.35 -45.12,-218.94ZM69.14,-307.09C60.98,-306.21 52.66,-305.84 44.50,-304.96C36.62,-296.74 28.55,-287.34 20.67,-279.13L26.25,-313.96L-26.10,-311.90L-26.93,-306.69L-13.28,-300.85C-12.35,-297.54 -11.70,-294.04 -10.77,-290.73L-23.19,-213.24C-26.37,-210.10 -29.54,-206.96 -32.72,-203.83L-43.26,-204.79L-44.10,-199.57L34.58,-186.96L35.42,-192.18C29.53,-193.36 23.64,-194.55 17.76,-195.74L9.28,-208.03L19.53,-272.02L50.86,-290.09C53.08,-288.76 55.30,-287.43 57.52,-286.10L64.73,-255.29L69.95,-254.46L87.86,-291.94C81.67,-297.30 75.33,-301.72 69.14,-307.09ZM184.41,-172.43C165.44,-170.85 146.90,-170.42 127.93,-168.84C116.07,-178.28 103.83,-186.80 91.97,-196.24C90.55,-214.70 88.90,-233.19 87.48,-251.65L118.63,-286.76L175.07,-290.11L215.42,-261.28C216.84,-242.83 218.25,-224.37 219.67,-205.91ZM149.96,-280.53C143.23,-277.96 136.70,-275.12 129.96,-272.55C126.70,-258.25 122.94,-240.86 119.75,-227.03C125.29,-213.02 131.06,-198.97 136.59,-184.96L157.45,-180.16C163.43,-182.60 169.69,-185.24 175.67,-187.69L187.67,-232.19C182.57,-245.89 174.50,-262.25 169.09,-275.52C162.80,-277.25 156.24,-278.79 149.96,-280.53ZM361.13,-140.71L355.50,-152.55L368.18,-231.70C365.29,-239.45 362.13,-247.01 359.24,-254.77C349.31,-258.06 339.39,-261.35 329.47,-264.64L287.99,-246.98L291.79,-270.68L239.56,-269.33L238.72,-264.11L252.37,-258.28L254.88,-248.16L242.46,-170.66L232.93,-161.25L222.39,-162.21L221.55,-157.00L290.04,-146.02L290.88,-151.24L280.56,-153.62L274.93,-165.46L287.04,-241.06C299.65,-243.90 307.81,-244.78 320.42,-247.62C324.92,-240.82 329.70,-234.22 334.20,-227.42L323.03,-157.75L313.50,-148.34L302.96,-149.30L302.13,-144.09L370.61,-133.11L371.45,-138.33ZM496.58,-128.97L490.37,-138.71L500.66,-202.93C496.45,-213.09 492.48,-223.20 488.24,-233.12C473.65,-237.65 459.46,-241.62 444.87,-246.15C430.07,-241.71 414.90,-238.07 399.89,-233.91L411.29,-195.87L416.51,-195.03C421.91,-207.53 427.05,-219.84 432.45,-232.34L460.82,-233.38C463.54,-226.14 466.03,-218.93 468.73,-211.45L464.51,-185.15C444.63,-183.96 420.06,-182.31 400.42,-181.08C394.79,-173.23 388.95,-165.66 383.36,-158.05C388.40,-147.03 393.00,-136.33 397.81,-125.35C411.27,-124.41 424.18,-123.07 437.68,-122.37L457.22,-139.65L453.50,-116.43L509.40,-117.92L510.23,-123.13ZM431.33,-134.32C426.88,-138.44 422.24,-142.83 417.80,-146.94L421.06,-167.32C434.21,-172.02 450.32,-176.97 463.94,-181.60L458.09,-145.10C449.75,-141.58 439.60,-137.37 431.33,-134.32ZM643.41,-101.79L640.43,-111.99L656.46,-212.00L604.22,-210.64L603.39,-205.43L617.04,-199.60L619.55,-189.47L608.72,-121.93C598.87,-119.62 589.22,-117.04 579.37,-114.73C574.87,-121.53 570.10,-128.12 565.60,-134.92L579.91,-224.26L527.68,-222.91L526.85,-217.70L540.49,-211.86L543.00,-201.74L531.61,-130.65C534.50,-122.89 537.66,-115.34 540.55,-107.58C550.48,-104.29 560.40,-101.00 570.33,-97.70L607.77,-116.01L604.21,-92.27L656.21,-93.66L657.04,-98.88ZM753.05,-97.35C748.68,-95.86 744.11,-94.65 739.74,-93.16L722.68,-95.89C720.21,-100.18 718.01,-104.66 715.53,-108.95L728.14,-187.63L763.22,-182.00L764.73,-191.48L729.66,-197.10L734.60,-227.91L726.07,-229.28L711.55,-209.97C707.03,-207.54 702.70,-204.83 698.14,-202.16L682.27,-204.70L680.79,-195.46L693.11,-193.48L694.73,-186.90L682.27,-109.18C684.21,-101.57 686.35,-93.69 688.29,-86.09L723.29,-73.92C733.91,-79.51 745.47,-84.95 756.09,-90.54ZM875.29,-166.96C865.23,-172.46 855.06,-177.25 845.00,-182.75L808.89,-184.89C798.83,-178.24 788.57,-171.87 778.51,-165.21L778.97,-136.22C799.37,-122.49 819.74,-108.53 840.15,-94.81L836.81,-73.96C830.94,-72.23 825.27,-70.22 819.40,-68.48C810.69,-73.28 801.94,-77.84 793.23,-82.64C788.66,-93.58 783.79,-104.09 779.22,-115.03L774.04,-116.10L762.46,-81.74C777.74,-73.95 793.29,-66.35 808.57,-58.55C822.76,-60.65 836.72,-62.79 850.91,-64.89L873.34,-86.58C870.83,-96.70 868.56,-106.79 866.05,-116.91C849.85,-126.56 833.62,-135.96 817.42,-145.61C814.62,-150.92 811.55,-156.03 808.76,-161.34L820.80,-178.85C825.50,-177.86 830.01,-177.13 834.71,-176.14L856.40,-140.09L861.61,-139.26ZM-62.80,40.74L-59.97,-75.48L-50.25,-86.08L-35.10,-86.57L-23.49,-78.63L-21.82,-69.37L-57.58,41.57ZM-57.06,80.79C-60.93,80.65 -64.60,80.80 -68.23,80.70C-71.32,78.75 -74.17,76.83 -77.26,74.88L-78.32,63.28C-75.93,60.51 -73.34,58.01 -70.99,55.47C-67.09,55.36 -63.42,55.22 -59.75,55.08L-50.95,60.86C-50.81,64.53 -50.40,68.00 -50.22,71.43C-52.64,74.45 -54.64,77.77 -57.06,80.79Z" fill="#ffffff" stroke="#000000"/>
    <path d="M-758.32,-382.55L-778.33,-366.22L-792.77,-361.86L-829.23,-367.26L-835.37,-378.92L-823.79,-436.42L-785.42,-428.46L-776.91,-418.99L-774.55,-407.86L-769.19,-406.78L-759.59,-454.51L-764.94,-455.59L-771.43,-446.23L-783.36,-441.13L-783.40,-440.89L-821.40,-448.30L-811.00,-499.99L-800.83,-508.36L-765.54,-499.56L-753.95,-489.72L-743.45,-467.25L-737.63,-466.08L-734.60,-506.41L-859.63,-531.58L-860.66,-526.46L-850.56,-523.70L-844.99,-511.67L-871.23,-381.29L-881.02,-372.36L-891.41,-373.72L-892.44,-368.60L-766.94,-343.34L-752.50,-381.37ZM-632.07,-332.18L-637.83,-342.06L-625.13,-405.16C-628.89,-415.36 -632.42,-425.52 -636.23,-435.49C-650.47,-440.54 -664.35,-445.03 -678.59,-450.08C-693.41,-446.28 -708.55,-443.27 -723.55,-439.75L-713.77,-401.68L-708.65,-400.65C-702.81,-412.80 -697.25,-424.76 -691.42,-436.91L-663.33,-436.83C-660.92,-429.56 -658.74,-422.34 -656.37,-414.84L-661.57,-388.99C-681.28,-388.60 -705.64,-387.93 -725.11,-387.49C-730.99,-379.95 -737.05,-372.69 -742.88,-365.39C-738.33,-354.30 -734.20,-343.53 -729.88,-332.49C-716.61,-331.03 -703.89,-329.19 -690.57,-327.97L-670.57,-344.29L-675.16,-321.47L-619.83,-320.75L-618.80,-325.88ZM-696.38,-340.04C-700.61,-344.28 -705.03,-348.81 -709.27,-353.05L-705.24,-373.07C-692.05,-377.20 -675.93,-381.47 -662.28,-385.50L-669.49,-349.65C-677.88,-346.49 -688.09,-342.73 -696.38,-340.04ZM-500.34,-414.93C-508.44,-414.38 -516.69,-414.34 -524.79,-413.79C-532.91,-405.98 -541.25,-397.00 -549.37,-389.18L-542.48,-423.41L-594.32,-423.43L-595.35,-418.30L-582.08,-412.00C-581.30,-408.69 -580.79,-405.20 -580.00,-401.89L-595.33,-325.75C-598.59,-322.78 -601.85,-319.80 -605.12,-316.82L-615.50,-318.19L-616.53,-313.06L-539.23,-297.50L-538.20,-302.63C-543.98,-304.03 -549.75,-305.44 -555.53,-306.84L-563.43,-319.33L-550.77,-382.20L-519.08,-398.83C-516.94,-397.43 -514.80,-396.03 -512.66,-394.63L-506.73,-363.88L-501.61,-362.85L-482.42,-399.21C-488.33,-404.76 -494.43,-409.38 -500.34,-414.93ZM-409.75,-296.88C-414.13,-295.58 -418.70,-294.56 -423.08,-293.26L-439.84,-296.64C-442.12,-300.97 -444.11,-305.49 -446.39,-309.83L-430.83,-387.13L-396.37,-380.19L-394.50,-389.50L-428.96,-396.44L-422.86,-426.71L-431.25,-428.39L-446.36,-409.88C-450.93,-407.64 -455.31,-405.14 -459.92,-402.67L-475.52,-405.81L-477.35,-396.73L-465.24,-394.29L-463.90,-387.73L-479.27,-311.36C-477.65,-303.76 -475.84,-295.89 -474.22,-288.30L-440.10,-274.89C-429.38,-280.00 -417.73,-284.92 -407.01,-290.03ZM-268.91,-249.15L-274.49,-261.17L-258.83,-338.94C-261.38,-346.72 -264.22,-354.32 -266.77,-362.10C-276.45,-365.74 -286.14,-369.39 -295.82,-373.03L-337.53,-357.20L-320.84,-440.09L-372.54,-440.80L-373.57,-435.68L-360.31,-429.38L-358.22,-419.27L-385.55,-283.53L-395.34,-274.60L-405.72,-275.96L-406.75,-270.84L-339.00,-257.20L-337.97,-262.32L-348.07,-265.08L-353.65,-277.11L-338.70,-351.38C-326.12,-353.69 -318.01,-354.24 -305.44,-356.56C-301.25,-349.66 -296.79,-342.94 -292.60,-336.05L-306.38,-267.59L-316.18,-258.66L-326.56,-260.03L-327.59,-254.90L-259.84,-241.27L-258.81,-246.39ZM-130.85,-329.65C-140.58,-335.49 -150.44,-340.62 -160.17,-346.46L-195.80,-349.99C-206.01,-343.81 -216.40,-337.91 -226.61,-331.73L-227.30,-303.04C-207.66,-288.66 -188.07,-274.06 -168.43,-259.69L-172.55,-239.20C-178.42,-237.72 -184.11,-235.96 -189.98,-234.47C-198.40,-239.56 -206.88,-244.42 -215.30,-249.50C-219.39,-260.50 -223.80,-271.08 -227.88,-282.08L-232.96,-283.34L-245.76,-249.82C-230.96,-241.51 -215.88,-233.39 -201.08,-225.08C-186.96,-226.60 -173.08,-228.16 -158.97,-229.68L-135.93,-250.24C-138.01,-260.35 -139.86,-270.42 -141.95,-280.53C-157.59,-290.70 -173.27,-300.64 -188.91,-310.81C-191.46,-316.17 -194.30,-321.35 -196.85,-326.71L-184.26,-343.55C-179.65,-342.38 -175.22,-341.49 -170.61,-340.32L-150.58,-303.83L-145.46,-302.79ZM-44.90,-223.44C-49.28,-222.14 -53.85,-221.12 -58.23,-219.83L-74.99,-223.20C-77.27,-227.53 -79.27,-232.05 -81.55,-236.39L-65.99,-313.69L-31.53,-306.75L-29.65,-316.07L-64.11,-323.00L-58.02,-353.27L-66.40,-354.96L-81.51,-336.44C-86.08,-334.21 -90.46,-331.70 -95.08,-329.23L-110.68,-332.37L-112.51,-323.29L-100.40,-320.86L-99.06,-314.29L-114.43,-237.92C-112.81,-230.33 -111.00,-222.45 -109.38,-214.86L-75.25,-201.45C-64.53,-206.56 -52.88,-211.48 -42.16,-216.59ZM74.29,-299.26C66.18,-298.71 57.94,-298.68 49.83,-298.13C41.72,-290.31 33.37,-281.33 25.26,-273.52L32.15,-307.75L-19.70,-307.76L-20.73,-302.64L-7.46,-296.34C-6.67,-293.03 -6.16,-289.53 -5.38,-286.23L-20.70,-210.09C-23.96,-207.11 -27.23,-204.14 -30.49,-201.16L-40.88,-202.52L-41.91,-197.40L35.39,-181.84L36.42,-186.96C30.65,-188.37 24.87,-189.77 19.10,-191.18L11.20,-203.67L23.85,-266.53L55.54,-283.17C57.68,-281.77 59.83,-280.37 61.97,-278.97L67.89,-248.22L73.01,-247.19L92.20,-283.54C86.29,-289.09 80.20,-293.71 74.29,-299.26ZM182.97,-161.58C164.15,-160.77 145.80,-161.07 126.98,-160.26C115.63,-170.05 103.86,-178.96 92.50,-188.76C91.83,-207.06 90.92,-225.42 90.24,-243.72L122.42,-277.22L178.36,-278.31L217.13,-248.22C217.80,-229.92 218.48,-211.61 219.15,-193.31ZM153.15,-269.82C146.40,-267.55 139.83,-264.99 133.07,-262.72C129.28,-248.70 124.88,-231.66 121.18,-218.11C126.10,-204.04 131.26,-189.92 136.18,-175.85L156.62,-170.28C162.63,-172.46 168.92,-174.83 174.93,-177.01L188.54,-220.55C184.04,-234.29 176.70,-250.79 171.87,-264.12C165.73,-266.08 159.30,-267.86 153.15,-269.82ZM356.47,-123.27L351.36,-135.20L367.02,-212.97C364.46,-220.75 361.63,-228.34 359.08,-236.12C349.40,-239.77 339.71,-243.41 330.03,-247.06L288.32,-231.23L293.01,-254.51L241.31,-255.23L240.28,-250.10L253.54,-243.80L255.63,-233.69L240.30,-157.55L230.51,-148.62L220.12,-149.99L219.09,-144.87L286.38,-131.32L287.41,-136.44L277.31,-139.20L272.20,-151.13L287.15,-225.41C299.73,-227.72 307.83,-228.27 320.41,-230.58C324.60,-223.68 329.06,-216.97 333.24,-210.07L319.46,-141.62L309.67,-132.69L299.29,-134.05L298.26,-128.93L365.54,-115.39L366.57,-120.51ZM489.94,-106.34L484.18,-116.22L496.88,-179.32C493.12,-189.52 489.59,-199.68 485.78,-209.65C471.54,-214.70 457.66,-219.19 443.42,-224.24C428.60,-220.44 413.46,-217.43 398.46,-213.90L408.24,-175.84L413.36,-174.81C419.20,-186.96 424.75,-198.92 430.59,-211.07L458.68,-210.99C461.09,-203.72 463.27,-196.50 465.64,-189.00L460.43,-163.15C440.73,-162.76 416.37,-162.09 396.90,-161.65C391.02,-154.11 384.96,-146.85 379.13,-139.54C383.68,-128.45 387.81,-117.69 392.13,-106.64C405.40,-105.18 418.12,-103.35 431.43,-102.12L451.44,-118.45L446.84,-95.63L502.18,-94.91L503.21,-100.03ZM425.63,-114.20C421.39,-118.44 416.97,-122.96 412.74,-127.21L416.77,-147.23C429.96,-151.36 446.08,-155.62 459.73,-159.66L452.51,-123.80C444.13,-120.65 433.92,-116.89 425.63,-114.20ZM634.06,-73.69L631.51,-83.90L651.29,-182.15L599.59,-182.87L598.56,-177.75L611.82,-171.44L613.91,-161.33L600.55,-94.98C590.72,-93.08 581.07,-90.90 571.24,-89.00C567.06,-95.90 562.60,-102.61 558.41,-109.51L576.08,-197.29L524.38,-198.01L523.35,-192.88L536.62,-186.58L538.70,-176.47L524.64,-106.62C527.19,-98.84 530.03,-91.24 532.58,-83.46C542.26,-79.82 551.95,-76.17 561.63,-72.53L599.38,-89.15L594.92,-65.83L646.39,-65.16L647.42,-70.28ZM742.29,-64.99C737.91,-63.69 733.35,-62.67 728.97,-61.37L712.21,-64.75C709.93,-69.08 707.93,-73.60 705.65,-77.94L721.21,-155.24L755.67,-148.30L757.55,-157.62L723.09,-164.55L729.18,-194.82L720.80,-196.51L705.68,-177.99C701.12,-175.76 696.74,-173.25 692.12,-170.78L676.52,-173.92L674.69,-164.84L686.80,-162.41L688.14,-155.84L672.77,-79.47C674.39,-71.88 676.20,-64.00 677.82,-56.41L711.95,-43.00C722.66,-48.11 734.32,-53.03 745.03,-58.14ZM865.90,-129.02C856.17,-134.86 846.30,-139.99 836.57,-145.83L800.95,-149.36C790.74,-143.18 780.34,-137.28 770.14,-131.10L769.45,-102.41C789.09,-88.04 808.68,-73.43 828.32,-59.06L824.19,-38.57C818.32,-37.09 812.64,-35.33 806.77,-33.84C798.34,-38.93 789.87,-43.79 781.45,-48.87C777.36,-59.87 772.95,-70.45 768.86,-81.45L763.79,-82.71L750.99,-49.19C765.79,-40.88 780.87,-32.76 795.67,-24.45C809.78,-25.97 823.67,-27.54 837.78,-29.05L860.82,-49.61C858.73,-59.72 856.88,-69.79 854.80,-79.90C839.16,-90.07 823.48,-100.01 807.84,-110.18C805.28,-115.54 802.45,-120.72 799.89,-126.08L812.49,-142.92C817.10,-141.75 821.52,-140.86 826.13,-139.69L846.16,-103.20L851.29,-102.17ZM-69.85,39.48L-62.48,-75.32L-52.46,-85.42L-37.46,-85.31L-26.29,-77.00L-25.00,-67.78L-64.72,40.51ZM-65.75,79.31C-69.57,79.03 -73.20,79.02 -76.79,78.78C-79.77,76.73 -82.51,74.73 -85.49,72.67L-86.08,61.17C-83.61,58.51 -80.95,56.14 -78.53,53.72C-74.66,53.77 -71.03,53.78 -67.39,53.78L-58.92,59.85C-58.93,63.48 -58.65,66.93 -58.61,70.33C-61.13,73.21 -63.23,76.43 -65.75,79.31Z" fill="#ffffff" stroke="#000000"/>
    <path d="M-740.86,-406.61L-761.28,-391.26L-775.73,-387.52L-811.57,-394.29L-817.18,-406.05L-803.47,-462.45L-765.85,-453.07L-757.81,-443.38L-755.91,-432.28L-750.66,-431.00L-739.28,-477.81L-744.53,-479.09L-751.31,-470.10L-763.31,-465.51L-763.37,-465.28L-800.64,-474.10L-788.33,-524.80L-777.95,-532.67L-743.40,-522.58L-732.33,-512.40L-722.83,-489.78L-717.12,-488.39L-712.54,-528.15L-835.17,-557.94L-836.39,-552.92L-826.51,-549.79L-821.47,-537.69L-852.54,-409.81L-862.57,-401.36L-872.79,-403.12L-874.01,-398.09L-750.92,-368.19L-735.15,-405.23ZM-618.01,-351.85L-623.32,-361.85L-608.29,-423.73C-611.60,-433.97 -614.69,-444.15 -618.06,-454.16C-631.95,-459.71 -645.49,-464.70 -659.38,-470.25C-674.18,-467.07 -689.27,-464.69 -704.24,-461.80L-696.06,-423.78L-691.04,-422.56C-684.79,-434.34 -678.83,-445.95 -672.58,-457.74L-644.81,-456.55C-642.71,-449.27 -640.84,-442.04 -638.79,-434.53L-644.95,-409.19C-664.45,-409.57 -688.56,-409.87 -707.83,-410.19C-713.94,-402.97 -720.22,-396.03 -726.27,-389.04C-722.21,-377.90 -718.54,-367.09 -714.71,-356.00C-701.64,-354.04 -689.14,-351.72 -676.02,-349.99L-655.61,-365.34L-661.04,-342.96L-606.36,-340.08L-605.14,-345.10ZM-681.29,-362.15C-685.31,-366.51 -689.50,-371.16 -693.52,-375.52L-688.75,-395.16C-675.55,-398.72 -659.44,-402.31 -645.79,-405.76L-654.33,-370.59C-662.75,-367.80 -672.99,-364.49 -681.29,-362.15ZM-484.52,-428.49C-492.56,-428.26 -500.71,-428.55 -508.74,-428.33C-517.07,-420.92 -525.68,-412.37 -534.01,-404.96L-525.85,-438.53L-577.11,-440.58L-578.33,-435.56L-565.46,-428.81C-564.81,-425.50 -564.44,-422.03 -563.80,-418.73L-581.94,-344.06C-585.28,-341.24 -588.63,-338.43 -591.97,-335.61L-602.19,-337.37L-603.41,-332.34L-527.59,-313.92L-526.37,-318.95C-532.03,-320.56 -537.68,-322.18 -543.33,-323.79L-550.65,-336.45L-535.67,-398.11L-503.69,-413.31C-501.62,-411.84 -499.56,-410.38 -497.50,-408.91L-492.85,-378.27L-487.83,-377.05L-467.43,-412.24C-473.05,-417.96 -478.90,-422.77 -484.52,-428.49ZM-399.60,-308.22C-403.98,-307.10 -408.53,-306.28 -412.91,-305.16L-429.35,-309.16C-431.44,-313.53 -433.23,-318.08 -435.31,-322.46L-416.89,-398.27L-383.10,-390.06L-380.88,-399.19L-414.67,-407.40L-407.46,-437.09L-415.68,-439.09L-431.35,-421.37C-435.96,-419.35 -440.39,-417.04 -445.04,-414.78L-460.34,-418.50L-462.51,-409.60L-450.63,-406.71L-449.56,-400.16L-467.76,-325.26C-466.46,-317.69 -464.98,-309.83 -463.68,-302.26L-430.47,-287.66C-419.67,-292.29 -407.96,-296.70 -397.16,-301.34ZM-262.23,-255.49L-267.26,-267.60L-248.73,-343.87C-250.95,-351.66 -253.45,-359.28 -255.67,-367.08C-265.10,-371.06 -274.53,-375.05 -283.96,-379.03L-325.82,-365.02L-306.07,-446.31L-357.15,-449.05L-358.37,-444.03L-345.51,-437.27L-343.84,-427.20L-376.19,-294.06L-386.22,-285.62L-396.44,-287.38L-397.66,-282.35L-331.21,-266.21L-329.99,-271.23L-339.87,-274.36L-344.91,-286.46L-327.21,-359.31C-314.68,-361.10 -306.64,-361.33 -294.12,-363.12C-290.25,-356.13 -286.10,-349.32 -282.24,-342.34L-298.55,-275.20L-308.58,-266.75L-318.80,-268.51L-320.02,-263.49L-253.57,-247.34L-252.34,-252.36ZM-122.56,-329.66C-131.95,-335.81 -141.50,-341.27 -150.89,-347.42L-185.98,-352.32C-196.31,-346.61 -206.82,-341.18 -217.16,-335.47L-218.97,-307.13C-200.11,-292.15 -181.32,-276.95 -162.47,-261.97L-167.35,-241.87C-173.21,-240.63 -178.90,-239.12 -184.76,-237.88C-192.89,-243.24 -201.08,-248.37 -209.21,-253.73C-212.81,-264.77 -216.76,-275.40 -220.37,-286.43L-225.34,-287.88L-239.31,-255.24C-225.00,-246.45 -210.41,-237.82 -196.10,-229.03C-182.09,-229.97 -168.30,-230.98 -154.29,-231.93L-130.71,-251.35C-132.37,-261.42 -133.80,-271.45 -135.47,-281.52C-150.53,-292.20 -165.64,-302.64 -180.70,-313.31C-183.02,-318.71 -185.62,-323.94 -187.93,-329.34L-174.82,-345.50C-170.31,-344.16 -165.97,-343.11 -161.46,-341.77L-143.09,-304.90L-138.06,-303.68ZM-41.76,-221.27C-46.14,-220.16 -50.70,-219.33 -55.08,-218.22L-71.52,-222.21C-73.60,-226.59 -75.40,-231.14 -77.48,-235.51L-59.06,-311.33L-25.26,-303.11L-23.04,-312.25L-56.84,-320.46L-49.63,-350.15L-57.85,-352.14L-73.52,-334.43C-78.12,-332.40 -82.55,-330.09 -87.21,-327.84L-102.51,-331.56L-104.67,-322.65L-92.80,-319.77L-91.73,-313.22L-109.93,-238.32C-108.63,-230.75 -107.15,-222.89 -105.84,-215.32L-72.63,-200.72C-61.83,-205.35 -50.12,-209.76 -39.32,-214.39ZM79.06,-291.55C71.03,-291.33 62.87,-291.61 54.84,-291.39C46.51,-283.98 37.90,-275.43 29.57,-268.03L37.73,-301.59L-13.52,-303.65L-14.75,-298.62L-1.88,-291.87C-1.23,-288.57 -0.86,-285.09 -0.21,-281.79L-18.36,-207.12C-21.70,-204.30 -25.05,-201.49 -28.39,-198.67L-38.60,-200.43L-39.82,-195.41L35.99,-176.99L37.21,-182.01C31.56,-183.63 25.90,-185.24 20.25,-186.86L12.93,-199.52L27.91,-261.17L59.90,-276.38C61.96,-274.91 64.02,-273.44 66.08,-271.97L70.73,-241.34L75.75,-240.12L96.15,-275.31C90.53,-281.03 84.69,-285.83 79.06,-291.55ZM181.10,-151.16C162.47,-151.09 144.34,-152.11 125.70,-152.05C114.86,-162.18 103.57,-171.45 92.73,-181.58C92.78,-199.71 92.60,-217.89 92.65,-236.01L125.79,-267.86L181.14,-266.75L218.28,-235.48C218.23,-217.35 218.18,-199.22 218.13,-181.10ZM155.88,-259.34C149.11,-257.36 142.51,-255.09 135.74,-253.11C131.45,-239.40 126.43,-222.73 122.24,-209.48C126.55,-195.37 131.09,-181.21 135.40,-167.10L155.39,-160.79C161.42,-162.71 167.73,-164.81 173.76,-166.73L188.93,-209.23C185.02,-223.00 178.41,-239.60 174.16,-252.97C168.16,-255.15 161.88,-257.16 155.88,-259.34ZM351.14,-106.46L346.56,-118.46L365.09,-194.73C362.87,-202.52 360.37,-210.14 358.15,-217.94C348.72,-221.92 339.29,-225.90 329.86,-229.89L288.00,-215.87L293.55,-238.71L242.46,-241.45L241.24,-236.43L254.11,-229.67L255.77,-219.59L237.63,-144.92L227.60,-136.48L217.38,-138.23L216.16,-133.21L282.16,-117.17L283.38,-122.20L273.50,-125.32L268.91,-137.32L286.61,-210.17C299.14,-211.96 307.18,-212.18 319.70,-213.98C323.57,-206.99 327.72,-200.18 331.58,-193.19L315.27,-126.06L305.24,-117.61L295.02,-119.37L293.80,-114.34L359.80,-98.31L361.02,-103.33ZM482.43,-84.47L477.12,-94.47L492.16,-156.35C488.84,-166.59 485.76,-176.77 482.38,-186.78C468.50,-192.33 454.96,-197.32 441.07,-202.87C426.27,-199.69 411.18,-197.31 396.21,-194.42L404.38,-156.40L409.41,-155.18C415.66,-166.96 421.62,-178.57 427.87,-190.35L455.64,-189.17C457.74,-181.89 459.61,-174.66 461.65,-167.15L455.49,-141.80C436.00,-142.19 411.89,-142.48 392.62,-142.81C386.51,-135.59 380.23,-128.65 374.18,-121.66C378.24,-110.51 381.90,-99.71 385.74,-88.62C398.80,-86.65 411.30,-84.34 424.42,-82.61L444.84,-97.96L439.40,-75.58L494.08,-72.69L495.30,-77.72ZM419.16,-94.77C415.14,-99.13 410.95,-103.78 406.93,-108.14L411.70,-127.78C424.90,-131.34 441.01,-134.93 454.66,-138.38L446.12,-103.21C437.70,-100.42 427.46,-97.10 419.16,-94.77ZM623.64,-46.54L621.52,-56.72L644.93,-153.09L593.85,-155.83L592.63,-150.81L605.50,-144.05L607.16,-133.97L591.34,-68.89C581.55,-67.40 571.93,-65.63 562.14,-64.14C558.27,-71.12 554.12,-77.94 550.26,-84.92L571.18,-171.01L520.09,-173.75L518.87,-168.73L531.74,-161.97L533.40,-151.90L516.75,-83.39C518.97,-75.60 521.47,-67.97 523.69,-60.18C533.12,-56.20 542.55,-52.21 551.98,-48.23L589.96,-63.18L584.64,-40.29L635.50,-37.61L636.72,-42.63ZM730.31,-33.68C725.93,-32.57 721.37,-31.74 716.99,-30.63L700.55,-34.62C698.47,-39.00 696.67,-43.54 694.59,-47.92L713.01,-123.73L746.81,-115.52L749.03,-124.65L715.23,-132.87L722.44,-162.55L714.22,-164.55L698.55,-146.83C693.95,-144.81 689.52,-142.50 684.86,-140.25L669.56,-143.96L667.40,-135.06L679.27,-132.17L680.34,-125.62L662.14,-50.72C663.45,-43.15 664.92,-35.30 666.23,-27.72L699.44,-13.12C710.24,-17.76 721.95,-22.17 732.75,-26.80ZM855.03,-92.13C845.64,-98.28 836.09,-103.74 826.70,-109.89L791.61,-114.79C781.28,-109.08 770.77,-103.65 760.43,-97.94L758.63,-69.60C777.48,-54.62 796.27,-39.41 815.12,-24.44L810.24,-4.34C804.38,-3.10 798.69,-1.58 792.83,-0.35C784.70,-5.71 776.51,-10.84 768.38,-16.20C764.78,-27.24 760.83,-37.87 757.22,-48.90L752.26,-50.35L738.28,-17.71C752.59,-8.92 767.18,-0.29 781.49,8.50C795.50,7.56 809.29,6.55 823.30,5.60L846.89,-13.82C845.22,-23.89 843.79,-33.92 842.13,-43.99C827.07,-54.67 811.95,-65.11 796.89,-75.78C794.57,-81.18 791.97,-86.41 789.66,-91.81L802.77,-107.97C807.29,-106.63 811.62,-105.58 816.14,-104.24L834.50,-67.37L839.53,-66.15ZM-76.75,37.70L-64.96,-75.52L-54.65,-85.11L-39.83,-84.41L-29.11,-75.76L-28.20,-66.59L-71.73,38.92ZM-74.27,77.24C-78.03,76.81 -81.63,76.66 -85.16,76.28C-88.03,74.14 -90.66,72.05 -93.53,69.90L-93.66,58.50C-91.11,55.98 -88.39,53.74 -85.90,51.44C-82.08,51.64 -78.48,51.79 -74.89,51.94L-66.76,58.27C-66.90,61.86 -66.77,65.28 -66.86,68.64C-69.46,71.39 -71.67,74.49 -74.27,77.24Z" fill="#ffffff" stroke="#000000"/>
    <path d="M-722.56,-429.93L-743.34,-415.55L-757.78,-412.42L-792.94,-420.52L-798.02,-432.37L-782.26,-487.59L-745.43,-476.84L-737.86,-466.94L-736.42,-455.89L-731.28,-454.42L-718.20,-500.25L-723.34,-501.72L-730.40,-493.10L-742.43,-489.04L-742.50,-488.82L-779.00,-499.00L-764.83,-548.63L-754.27,-556.01L-720.51,-544.68L-709.97,-534.17L-701.47,-511.44L-695.88,-509.84L-689.78,-548.96L-809.84,-583.24L-811.24,-578.32L-801.60,-574.84L-797.09,-562.67L-832.84,-437.47L-843.08,-429.52L-853.11,-431.66L-854.52,-426.74L-734.01,-392.34L-716.97,-428.33ZM-603.26,-370.97L-608.12,-381.06L-590.82,-441.65C-593.70,-451.90 -596.35,-462.08 -599.29,-472.11C-612.80,-478.15 -625.99,-483.60 -639.50,-489.64C-654.26,-487.08 -669.27,-485.32 -684.18,-483.05L-677.59,-445.14L-672.68,-443.74C-666.04,-455.14 -659.68,-466.38 -653.04,-477.79L-625.64,-475.52C-623.85,-468.24 -622.28,-461.03 -620.56,-453.52L-627.64,-428.70C-646.90,-429.85 -670.72,-431.09 -689.76,-432.17C-696.08,-425.27 -702.56,-418.66 -708.82,-411.98C-705.24,-400.81 -702.05,-389.98 -698.69,-378.87C-685.85,-376.41 -673.59,-373.64 -660.68,-371.40L-639.90,-385.78L-646.15,-363.87L-592.21,-358.87L-590.81,-363.79ZM-665.41,-383.63C-669.21,-388.10 -673.18,-392.86 -676.98,-397.33L-671.49,-416.56C-658.30,-419.56 -642.24,-422.47 -628.60,-425.35L-638.43,-390.92C-646.86,-388.49 -657.11,-385.62 -665.41,-383.63ZM-468.28,-441.48C-476.23,-441.58 -484.28,-442.18 -492.24,-442.27C-500.76,-435.28 -509.61,-427.17 -518.13,-420.17L-508.75,-453.03L-559.34,-457.08L-560.74,-452.16L-548.28,-444.98C-547.77,-441.69 -547.55,-438.24 -547.04,-434.95L-567.91,-361.84C-571.32,-359.19 -574.74,-356.54 -578.16,-353.89L-588.19,-356.03L-589.59,-351.11L-515.36,-329.92L-513.96,-334.84C-519.49,-336.66 -525.01,-338.47 -530.54,-340.29L-537.28,-353.10L-520.05,-413.46L-487.82,-427.23C-485.84,-425.70 -483.86,-424.17 -481.88,-422.64L-478.49,-392.17L-473.57,-390.77L-452.02,-424.75C-457.36,-430.63 -462.95,-435.61 -468.28,-441.48ZM-389.05,-319.25C-393.43,-318.32 -397.96,-317.68 -402.34,-316.75L-418.44,-321.35C-420.32,-325.75 -421.92,-330.32 -423.80,-334.73L-402.61,-408.95L-369.53,-399.51L-366.97,-408.45L-400.06,-417.90L-391.76,-446.96L-399.81,-449.26L-416.00,-432.36C-420.63,-430.54 -425.10,-428.43 -429.80,-426.38L-444.78,-430.66L-447.26,-421.94L-435.64,-418.62L-434.84,-412.11L-455.77,-338.78C-454.78,-331.24 -453.63,-323.42 -452.64,-315.88L-420.38,-300.14C-409.52,-304.30 -397.77,-308.19 -386.91,-312.35ZM-255.32,-261.73L-259.83,-273.89L-238.51,-348.57C-240.40,-356.36 -242.57,-363.99 -244.46,-371.78C-253.62,-376.09 -262.79,-380.40 -271.96,-384.71L-313.89,-372.50L-291.17,-452.09L-341.56,-456.81L-342.97,-451.89L-330.51,-444.71L-329.26,-434.68L-366.47,-304.34L-376.72,-296.38L-386.75,-298.52L-388.15,-293.60L-323.10,-275.03L-321.69,-279.95L-331.34,-283.43L-335.84,-295.59L-315.48,-366.91C-303.03,-368.19 -295.08,-368.10 -282.62,-369.38C-279.07,-362.32 -275.24,-355.42 -271.69,-348.37L-290.46,-282.64L-300.71,-274.68L-310.74,-276.82L-312.14,-271.90L-247.08,-253.33L-245.68,-258.25ZM-114.34,-329.56C-123.38,-336.01 -132.61,-341.79 -141.65,-348.23L-176.14,-354.45C-186.58,-349.22 -197.19,-344.26 -207.63,-339.02L-210.53,-311.08C-192.48,-295.53 -174.50,-279.76 -156.45,-264.21L-162.07,-244.53C-167.91,-243.54 -173.59,-242.26 -179.44,-241.27C-187.26,-246.89 -195.15,-252.29 -202.98,-257.91C-206.11,-268.95 -209.60,-279.62 -212.73,-290.67L-217.58,-292.30L-232.68,-260.58C-218.88,-251.32 -204.80,-242.22 -191.00,-232.97C-177.11,-233.35 -163.44,-233.80 -149.54,-234.19L-125.47,-252.46C-126.72,-262.49 -127.74,-272.45 -128.99,-282.48C-143.46,-293.62 -157.99,-304.54 -172.46,-315.69C-174.54,-321.11 -176.90,-326.38 -178.98,-331.81L-165.38,-347.27C-160.97,-345.77 -156.72,-344.56 -152.32,-343.06L-135.60,-305.89L-130.69,-304.48ZM-38.72,-219.23C-43.10,-218.31 -47.63,-217.67 -52.01,-216.74L-68.10,-221.34C-69.99,-225.74 -71.59,-230.31 -73.47,-234.72L-52.28,-308.94L-19.20,-299.49L-16.64,-308.44L-49.73,-317.88L-41.43,-346.95L-49.48,-349.24L-65.67,-332.35C-70.30,-330.53 -74.77,-328.42 -79.46,-326.37L-94.44,-330.65L-96.93,-321.93L-85.31,-318.61L-84.51,-312.10L-105.44,-238.76C-104.45,-231.23 -103.30,-223.40 -102.31,-215.87L-70.05,-200.13C-59.19,-204.28 -47.44,-208.18 -36.58,-212.34ZM83.48,-283.96C75.53,-284.06 67.48,-284.66 59.53,-284.76C51.01,-277.76 42.16,-269.65 33.64,-262.65L43.02,-295.52L-7.57,-299.56L-8.97,-294.64L3.48,-287.46C3.99,-284.17 4.22,-280.72 4.73,-277.43L-16.14,-204.33C-19.56,-201.67 -22.97,-199.02 -26.39,-196.37L-36.42,-198.51L-37.82,-193.59L36.40,-172.40L37.81,-177.32C32.28,-179.14 26.76,-180.96 21.23,-182.78L14.49,-195.58L31.72,-255.94L63.94,-269.72C65.92,-268.18 67.90,-266.65 69.88,-265.12L73.27,-234.65L78.19,-233.25L99.74,-267.23C94.41,-273.11 88.82,-278.09 83.48,-283.96ZM178.84,-141.17C160.42,-141.83 142.53,-143.55 124.11,-144.22C113.79,-154.66 102.99,-164.27 92.67,-174.71C93.44,-192.63 93.97,-210.61 94.74,-228.53L128.74,-258.71L183.42,-255.43L218.91,-223.06C218.14,-205.14 217.38,-187.23 216.62,-169.31ZM158.16,-249.11C151.39,-247.41 144.78,-245.43 138.01,-243.74C133.22,-230.35 127.60,-214.07 122.94,-201.13C126.65,-187.01 130.58,-172.84 134.29,-158.72L153.80,-151.70C159.84,-153.36 166.16,-155.18 172.20,-156.84L188.86,-198.27C185.54,-212.03 179.66,-228.70 175.98,-242.08C170.14,-244.48 164.00,-246.71 158.16,-249.11ZM345.18,-90.30L341.12,-102.33L362.44,-177.01C360.55,-184.80 358.38,-192.43 356.49,-200.22C347.33,-204.53 338.16,-208.84 328.99,-213.15L287.06,-200.94L293.45,-223.30L243.05,-228.01L241.65,-223.10L254.10,-215.91L255.35,-205.89L234.48,-132.78L224.23,-124.82L214.20,-126.96L212.80,-122.04L277.41,-103.60L278.81,-108.52L269.17,-112.00L265.11,-124.03L285.47,-195.35C297.92,-196.63 305.88,-196.54 318.33,-197.82C321.88,-190.76 325.71,-183.86 329.26,-176.81L310.49,-111.08L300.24,-103.12L290.21,-105.26L288.81,-100.34L353.42,-81.90L354.83,-86.82ZM474.11,-63.40L469.26,-73.49L486.55,-134.08C483.68,-144.33 481.02,-154.52 478.08,-164.54C464.57,-170.58 451.38,-176.04 437.87,-182.07C423.12,-179.51 408.11,-177.75 393.19,-175.48L399.78,-137.57L404.70,-136.17C411.34,-147.57 417.69,-158.81 424.33,-170.22L451.73,-167.96C453.52,-160.67 455.09,-153.46 456.82,-145.95L449.73,-121.14C430.48,-122.28 406.65,-123.52 387.62,-124.60C381.29,-117.70 374.81,-111.09 368.55,-104.42C372.13,-93.24 375.33,-82.41 378.69,-71.30C391.52,-68.84 403.79,-66.07 416.69,-63.84L437.48,-78.21L431.22,-56.30L485.17,-51.30L486.57,-56.22ZM411.96,-76.07C408.16,-80.54 404.20,-85.29 400.40,-89.76L405.89,-108.99C419.08,-112.00 435.14,-114.91 448.78,-117.78L438.95,-83.35C430.52,-80.92 420.27,-78.05 411.96,-76.07ZM612.22,-20.35L610.52,-30.50L637.45,-124.85L587.06,-129.57L585.65,-124.65L598.11,-117.46L599.36,-107.44L581.17,-43.72C571.43,-42.63 561.85,-41.26 552.11,-40.17C548.56,-47.23 544.73,-54.12 541.18,-61.18L565.24,-145.47L514.84,-150.18L513.44,-145.26L525.90,-138.08L527.15,-128.05L508.00,-60.98C509.88,-53.19 512.06,-45.56 513.94,-37.76C523.11,-33.46 532.28,-29.15 541.44,-24.84L579.57,-38.13L573.41,-15.71L623.59,-11.06L624.99,-15.98ZM717.16,-3.45C712.79,-2.52 708.25,-1.88 703.88,-0.95L687.78,-5.55C685.89,-9.95 684.30,-14.52 682.41,-18.93L703.60,-93.15L736.69,-83.71L739.24,-92.65L706.15,-102.09L714.45,-131.16L706.40,-133.46L690.21,-116.56C685.58,-114.74 681.11,-112.63 676.42,-110.58L661.44,-114.86L658.95,-106.14L670.58,-102.82L671.38,-96.31L650.44,-22.98C651.43,-15.44 652.59,-7.62 653.58,-0.08L685.84,15.66C696.69,11.51 708.45,7.61 719.30,3.45ZM842.76,-56.33C833.72,-62.78 824.49,-68.56 815.45,-75.00L780.95,-81.22C770.51,-75.98 759.91,-71.03 749.47,-65.79L746.57,-37.85C764.61,-22.30 782.60,-6.53 800.65,9.02L795.03,28.70C789.19,29.69 783.50,30.97 777.66,31.96C769.83,26.34 761.94,20.94 754.12,15.32C750.98,4.28 747.50,-6.39 744.37,-17.44L739.51,-19.07L724.41,12.65C738.21,21.91 752.30,31.01 766.10,40.26C779.99,39.88 793.66,39.43 807.55,39.04L831.63,20.77C830.38,10.74 829.35,0.78 828.11,-9.25C813.64,-20.39 799.10,-31.31 784.63,-42.45C782.56,-47.88 780.19,-53.15 778.12,-58.58L791.72,-74.04C796.13,-72.54 800.37,-71.33 804.78,-69.83L821.49,-32.66L826.41,-31.25ZM-83.49,35.40L-67.39,-76.06L-56.82,-85.13L-42.19,-83.86L-31.94,-74.88L-31.39,-65.78L-78.57,36.81ZM-82.59,74.59C-86.29,74.02 -89.84,73.73 -93.32,73.22C-96.06,70.98 -98.59,68.81 -101.34,66.58L-101.02,55.30C-98.40,52.91 -95.62,50.80 -93.07,48.63C-89.30,48.98 -85.75,49.26 -82.21,49.55L-74.42,56.13C-74.70,59.67 -74.70,63.06 -74.92,66.38C-77.61,69.00 -79.90,71.97 -82.59,74.59Z" fill="#ffffff" stroke="#000000"/>
    <path d="M-703.44,-452.46L-724.55,-439.07L-738.94,-436.54L-773.38,-445.93L-777.94,-457.84L-760.19,-511.81L-724.21,-499.73L-717.11,-489.65L-716.12,-478.67L-711.10,-477.02L-696.37,-521.80L-701.39,-523.46L-708.70,-515.21L-720.76,-511.67L-720.84,-511.45L-756.52,-522.95L-740.57,-571.45L-729.83,-578.33L-696.90,-565.81L-686.90,-555.01L-679.39,-532.20L-673.93,-530.40L-666.37,-568.84L-783.69,-607.43L-785.27,-602.62L-775.88,-598.81L-771.90,-586.60L-812.15,-464.25L-822.59,-456.79L-832.42,-459.30L-834.00,-454.49L-716.24,-415.75L-697.98,-450.67ZM-587.84,-389.49L-592.24,-399.66L-572.76,-458.87C-575.20,-469.11 -577.43,-479.29 -579.94,-489.32C-593.06,-495.81 -605.88,-501.72 -619.00,-508.22C-633.68,-506.27 -648.59,-505.12 -663.42,-503.46L-658.40,-465.73L-653.59,-464.15C-646.58,-475.16 -639.86,-486.02 -632.85,-497.03L-605.85,-493.72C-604.36,-486.46 -603.10,-479.26 -601.69,-471.77L-609.67,-447.52C-628.66,-449.41 -652.16,-451.57 -670.93,-453.39C-677.45,-446.82 -684.12,-440.54 -690.57,-434.18C-687.47,-423.00 -684.73,-412.17 -681.85,-401.05C-669.26,-398.12 -657.24,-394.89 -644.58,-392.18L-623.47,-405.57L-630.51,-384.16L-577.39,-377.10L-575.81,-381.91ZM-648.77,-404.46C-652.35,-409.02 -656.08,-413.88 -659.66,-418.45L-653.48,-437.24C-640.33,-439.69 -624.34,-441.94 -610.74,-444.25L-621.81,-410.60C-630.24,-408.53 -640.49,-406.09 -648.77,-404.46ZM-451.64,-453.89C-459.50,-454.30 -467.43,-455.21 -475.29,-455.62C-483.99,-449.04 -493.05,-441.36 -501.75,-434.78L-491.19,-466.90L-541.03,-472.89L-542.61,-468.08L-530.58,-460.49C-530.21,-457.22 -530.12,-453.80 -529.74,-450.53L-553.25,-379.08C-556.73,-376.60 -560.21,-374.11 -563.69,-371.62L-573.52,-374.13L-575.10,-369.33L-502.56,-345.46L-500.98,-350.27C-506.37,-352.29 -511.76,-354.30 -517.15,-356.32L-523.31,-369.24L-503.91,-428.23L-471.52,-440.58C-469.62,-438.98 -467.72,-437.39 -465.83,-435.80L-463.67,-405.55L-458.86,-403.97L-436.23,-436.71C-441.27,-442.73 -446.60,-447.87 -451.64,-453.89ZM-378.13,-329.95C-382.49,-329.21 -387.00,-328.75 -391.36,-328.01L-407.09,-333.18C-408.78,-337.61 -410.18,-342.19 -411.87,-346.62L-388.01,-419.16L-355.67,-408.52L-352.80,-417.26L-385.14,-427.90L-375.79,-456.30L-383.66,-458.89L-400.32,-442.82C-404.97,-441.20 -409.47,-439.29 -414.19,-437.46L-428.83,-442.27L-431.63,-433.75L-420.27,-430.01L-419.74,-423.54L-443.31,-351.88C-442.63,-344.39 -441.80,-336.61 -441.11,-329.12L-409.85,-312.30C-398.95,-315.98 -387.18,-319.37 -376.28,-323.05ZM-248.20,-267.84L-252.18,-280.05L-228.17,-353.02C-229.73,-360.80 -231.58,-368.42 -233.14,-376.20C-242.03,-380.82 -250.92,-385.44 -259.81,-390.06L-301.74,-379.64L-276.15,-457.42L-325.78,-464.06L-327.36,-459.25L-315.33,-451.66L-314.49,-441.70L-356.39,-314.33L-366.84,-306.87L-376.67,-309.38L-378.25,-304.57L-314.67,-283.65L-313.09,-288.46L-322.49,-292.28L-326.46,-304.48L-303.54,-374.18C-291.17,-374.95 -283.32,-374.55 -270.96,-375.32C-267.73,-368.21 -264.21,-361.24 -260.98,-354.13L-282.11,-289.89L-292.55,-282.43L-302.38,-284.94L-303.96,-280.13L-240.39,-259.22L-238.80,-264.02ZM-106.18,-329.35C-114.86,-336.08 -123.76,-342.16 -132.44,-348.89L-166.29,-356.39C-176.82,-351.62 -187.49,-347.14 -198.02,-342.37L-201.98,-314.86C-184.76,-298.79 -167.60,-282.49 -150.37,-266.41L-156.70,-247.18C-162.51,-246.43 -168.18,-245.39 -174.00,-244.64C-181.51,-250.50 -189.10,-256.15 -196.61,-262.01C-199.27,-273.05 -202.30,-283.73 -204.96,-294.78L-209.69,-296.58L-225.87,-265.82C-212.59,-256.13 -199.02,-246.58 -185.75,-236.89C-172.00,-236.72 -158.47,-236.63 -144.73,-236.47L-120.21,-253.58C-121.05,-263.54 -121.67,-273.43 -122.51,-283.39C-136.37,-294.98 -150.31,-306.34 -164.18,-317.92C-166.02,-323.37 -168.15,-328.67 -169.99,-334.12L-155.93,-348.87C-151.64,-347.21 -147.48,-345.85 -143.19,-344.19L-128.13,-306.79L-123.32,-305.21ZM-35.77,-217.33C-40.13,-216.59 -44.64,-216.13 -49.00,-215.39L-64.73,-220.56C-66.42,-224.99 -67.82,-229.57 -69.51,-234.00L-45.65,-306.53L-13.31,-295.90L-10.44,-304.64L-42.77,-315.27L-33.43,-343.68L-41.30,-346.26L-57.96,-330.20C-62.61,-328.58 -67.11,-326.67 -71.83,-324.83L-86.47,-329.65L-89.27,-321.13L-77.91,-317.39L-77.38,-310.92L-100.95,-239.26C-100.27,-231.77 -99.44,-223.99 -98.75,-216.50L-67.48,-199.68C-56.59,-203.36 -44.82,-206.75 -33.92,-210.43ZM87.57,-276.51C79.71,-276.92 71.78,-277.83 63.93,-278.24C55.22,-271.66 46.16,-263.98 37.46,-257.40L48.03,-289.52L-1.82,-295.51L-3.40,-290.70L8.63,-283.11C9.01,-279.84 9.09,-276.42 9.47,-273.15L-14.03,-201.71C-17.51,-199.22 -21.00,-196.73 -24.48,-194.25L-34.31,-196.75L-35.89,-191.95L36.65,-168.08L38.23,-172.89C32.84,-174.91 27.45,-176.92 22.06,-178.94L15.90,-191.86L35.30,-250.85L67.69,-263.20C69.59,-261.60 71.49,-260.01 73.39,-258.42L75.54,-228.17L80.35,-226.59L102.99,-259.34C97.94,-265.35 92.61,-270.50 87.57,-276.51ZM176.22,-131.61C158.03,-133.00 140.42,-135.40 122.23,-136.78C112.45,-147.51 102.15,-157.43 92.36,-168.16C93.82,-185.84 95.06,-203.59 96.52,-221.27L131.32,-249.77L185.23,-244.39L219.04,-210.99C217.58,-193.31 216.12,-175.63 214.67,-157.95ZM160.02,-239.12C153.26,-237.71 146.64,-236.01 139.89,-234.61C134.63,-221.57 128.44,-205.69 123.32,-193.08C126.43,-178.99 129.76,-164.82 132.87,-150.72L151.88,-143.01C157.92,-144.42 164.24,-145.97 170.27,-147.37L188.37,-187.67C185.62,-201.40 180.46,-218.11 177.36,-231.48C171.67,-234.08 165.70,-236.53 160.02,-239.12ZM338.64,-74.80L335.10,-86.86L359.11,-159.83C357.55,-167.60 355.70,-175.23 354.14,-183.01C345.25,-187.63 336.36,-192.25 327.47,-196.87L285.54,-186.45L292.73,-208.30L243.10,-214.94L241.52,-210.13L253.55,-202.54L254.39,-192.58L230.89,-121.14L220.44,-113.68L210.61,-116.18L209.03,-111.38L272.17,-90.61L273.75,-95.41L264.36,-99.23L260.82,-111.29L283.75,-180.99C296.11,-181.76 303.96,-181.36 316.32,-182.13C319.55,-175.02 323.07,-168.05 326.30,-160.94L305.17,-96.70L294.73,-89.24L284.90,-91.75L283.32,-86.94L346.46,-66.17L348.04,-70.98ZM465.03,-43.15L460.63,-53.31L480.10,-112.52C477.66,-122.77 475.44,-132.94 472.93,-142.97C459.81,-149.46 446.99,-155.37 433.87,-161.87C419.18,-159.92 404.28,-158.77 389.45,-157.11L394.47,-119.38L399.28,-117.80C406.29,-128.81 413.01,-139.68 420.02,-150.69L447.02,-147.37C448.50,-140.11 449.77,-132.91 451.18,-125.42L443.20,-101.17C424.21,-103.06 400.71,-105.22 381.94,-107.04C375.42,-100.47 368.75,-94.19 362.30,-87.84C365.40,-76.65 368.13,-65.82 371.01,-54.70C383.61,-51.77 395.62,-48.55 408.29,-45.83L429.40,-59.22L422.36,-37.81L475.48,-30.75L477.06,-35.56ZM404.09,-58.11C400.51,-62.67 396.78,-67.53 393.20,-72.10L399.38,-90.89C412.54,-93.34 428.53,-95.59 442.12,-97.90L431.05,-64.25C422.62,-62.18 412.38,-59.74 404.09,-58.11ZM599.85,4.84L598.57,-5.27L628.90,-97.47L579.27,-104.11L577.69,-99.30L589.72,-91.71L590.56,-81.75L570.08,-19.49C560.41,-18.79 550.88,-17.81 541.21,-17.12C537.98,-24.23 534.46,-31.20 531.24,-38.32L558.33,-120.68L508.70,-127.32L507.12,-122.52L519.15,-114.93L519.99,-104.97L498.43,-39.42C499.99,-31.65 501.84,-24.02 503.39,-16.24C512.29,-11.62 521.18,-7.00 530.07,-2.38L568.28,-14.02L561.31,7.90L610.72,14.47L612.30,9.66ZM702.92,25.67C698.56,26.41 694.05,26.87 689.69,27.61L673.96,22.44C672.27,18.01 670.87,13.43 669.18,9.00L693.04,-63.54L725.38,-52.90L728.25,-61.64L695.91,-72.28L705.26,-100.68L697.39,-103.27L680.73,-87.20C676.08,-85.58 671.58,-83.67 666.86,-81.84L652.22,-86.65L649.42,-78.13L660.78,-74.39L661.31,-67.92L637.74,3.74C638.42,11.23 639.25,19.01 639.94,26.50L671.21,43.32C682.10,39.64 693.87,36.25 704.77,32.57ZM829.14,-21.67C820.46,-28.40 811.56,-34.47 802.88,-41.20L769.03,-48.71C758.50,-43.94 747.83,-39.46 737.30,-34.69L733.34,-7.18C750.57,8.90 767.72,25.19 784.95,41.27L778.63,60.50C772.81,61.25 767.14,62.29 761.33,63.04C753.81,57.18 746.23,51.53 738.71,45.67C736.05,34.63 733.02,23.95 730.36,12.90L725.63,11.10L709.46,41.86C722.73,51.55 736.30,61.10 749.57,70.80C763.32,70.96 776.85,71.05 790.60,71.22L815.11,54.10C814.27,44.14 813.65,34.25 812.81,24.29C798.95,12.71 785.01,1.34 771.15,-10.24C769.31,-15.69 767.18,-20.99 765.34,-26.44L779.39,-41.18C783.69,-39.53 787.84,-38.16 792.14,-36.51L807.19,0.89L812.00,2.47ZM-90.02,32.61L-69.73,-76.93L-58.92,-85.48L-44.52,-83.65L-34.73,-74.38L-34.55,-65.36L-85.22,34.19ZM-90.67,71.38C-94.31,70.67 -97.80,70.25 -101.22,69.60C-103.85,67.29 -106.26,65.04 -108.89,62.73L-108.13,51.59C-105.45,49.33 -102.62,47.35 -100.01,45.31C-96.30,45.80 -92.81,46.22 -89.31,46.65L-81.87,53.45C-82.29,56.95 -82.42,60.29 -82.77,63.57C-85.53,66.05 -87.92,68.90 -90.67,71.38Z" fill="#ffffff" stroke="#000000"/>
    <path d="M-683.54,-474.18L-704.93,-461.77L-719.25,-459.84L-752.92,-470.47L-756.96,-482.42L-737.29,-535.06L-702.21,-521.71L-695.59,-511.47L-695.05,-500.58L-690.15,-498.75L-673.83,-542.43L-678.73,-544.27L-686.28,-536.40L-698.34,-533.38L-698.42,-533.16L-733.23,-545.93L-715.56,-593.24L-704.68,-599.62L-672.63,-585.94L-663.16,-574.88L-656.64,-552.04L-651.31,-550.05L-642.33,-587.74L-756.77,-630.49L-758.52,-625.81L-749.38,-621.66L-745.93,-609.45L-790.52,-490.10L-801.13,-483.14L-810.75,-486.00L-812.50,-481.31L-697.63,-438.40L-678.21,-472.19ZM-571.76,-407.40L-575.71,-417.62L-554.13,-475.38C-556.14,-485.60 -557.94,-495.74 -560.03,-505.75C-572.74,-512.68 -585.18,-519.03 -597.89,-525.97C-612.48,-524.62 -627.26,-524.07 -641.98,-523.01L-638.50,-485.52L-633.81,-483.77C-626.45,-494.38 -619.38,-504.85 -612.02,-515.46L-585.46,-511.12C-584.28,-503.88 -583.32,-496.72 -582.22,-489.27L-591.05,-465.61C-609.75,-468.23 -632.89,-471.29 -651.37,-473.82C-658.08,-467.58 -664.91,-461.63 -671.53,-455.61C-668.91,-444.43 -666.63,-433.62 -664.22,-422.52C-651.89,-419.13 -640.14,-415.47 -627.73,-412.29L-606.34,-424.69L-614.14,-403.81L-561.92,-394.74L-560.16,-399.43ZM-631.40,-424.58C-634.76,-429.24 -638.25,-434.19 -641.61,-438.84L-634.76,-457.17C-621.67,-459.08 -605.77,-460.67 -592.25,-462.42L-604.51,-429.60C-612.92,-427.88 -623.14,-425.87 -631.40,-424.58ZM-434.62,-465.70C-442.37,-466.41 -450.17,-467.62 -457.92,-468.33C-466.78,-462.17 -476.04,-454.94 -484.90,-448.78L-473.19,-480.11L-522.22,-487.98L-523.98,-483.30L-512.38,-475.32C-512.14,-472.07 -512.19,-468.69 -511.94,-465.44L-537.98,-395.76C-541.52,-393.43 -545.06,-391.11 -548.60,-388.79L-558.21,-391.66L-559.96,-386.97L-489.21,-360.54L-487.46,-365.22C-492.71,-367.43 -497.95,-369.63 -503.20,-371.83L-508.78,-384.85L-487.29,-442.39L-454.79,-453.32C-452.98,-451.67 -451.16,-450.02 -449.35,-448.37L-448.41,-418.39L-443.72,-416.64L-420.06,-448.12C-424.81,-454.26 -429.87,-459.55 -434.62,-465.70ZM-366.83,-340.32C-371.17,-339.75 -375.65,-339.48 -379.99,-338.92L-395.33,-344.65C-396.83,-349.09 -398.03,-353.67 -399.53,-358.12L-373.09,-428.87L-341.55,-417.09L-338.37,-425.61L-369.91,-437.39L-359.56,-465.10L-367.23,-467.97L-384.33,-452.74C-388.99,-451.32 -393.52,-449.61 -398.25,-447.98L-412.53,-453.32L-415.64,-445.01L-404.55,-440.87L-404.28,-434.45L-430.40,-364.55C-430.01,-357.12 -429.50,-349.40 -429.12,-341.97L-398.87,-324.11C-387.96,-327.32 -376.19,-330.21 -365.28,-333.42ZM-240.86,-273.83L-244.31,-286.04L-217.72,-357.22C-218.95,-364.97 -220.48,-372.58 -221.71,-380.33C-230.32,-385.25 -238.93,-390.16 -247.53,-395.08L-289.38,-386.42L-261.04,-462.29L-309.83,-470.81L-311.58,-466.12L-299.99,-458.14L-299.55,-448.27L-345.96,-324.02L-356.58,-317.06L-366.20,-319.92L-367.95,-315.23L-305.93,-292.06L-304.18,-296.75L-313.32,-300.90L-316.77,-313.11L-291.37,-381.10C-279.12,-381.38 -271.37,-380.67 -259.12,-380.95C-256.21,-373.79 -253.01,-366.77 -250.10,-359.61L-273.51,-296.95L-284.12,-289.99L-293.74,-292.85L-295.49,-288.16L-233.47,-264.99L-231.72,-269.68ZM-98.07,-329.04C-106.39,-336.03 -114.95,-342.39 -123.26,-349.38L-156.42,-358.12C-167.02,-353.82 -177.74,-349.82 -188.33,-345.52L-193.33,-318.48C-176.94,-301.92 -160.62,-285.14 -144.22,-268.57L-151.23,-249.81C-157.01,-249.30 -162.65,-248.49 -168.43,-247.98C-175.63,-254.07 -182.90,-259.95 -190.10,-266.03C-192.30,-277.05 -194.87,-287.73 -197.06,-298.75L-201.67,-300.71L-218.86,-270.95C-206.12,-260.85 -193.09,-250.88 -180.35,-240.78C-166.77,-240.07 -153.40,-239.45 -139.82,-238.75L-114.92,-254.70C-115.36,-264.58 -115.58,-274.38 -116.02,-284.26C-129.27,-296.25 -142.60,-308.03 -155.84,-320.02C-157.45,-325.48 -159.34,-330.80 -160.95,-336.26L-146.48,-350.28C-142.30,-348.48 -138.25,-346.96 -134.07,-345.16L-120.65,-307.60L-115.97,-305.85ZM-32.88,-215.56C-37.22,-214.99 -41.70,-214.72 -46.04,-214.16L-61.38,-219.89C-62.88,-224.33 -64.08,-228.91 -65.58,-233.36L-39.14,-304.11L-7.60,-292.33L-4.42,-300.85L-35.96,-312.63L-25.61,-340.34L-33.28,-343.21L-50.38,-327.98C-55.04,-326.56 -59.57,-324.85 -64.30,-323.22L-78.58,-328.56L-81.69,-320.25L-70.61,-316.11L-70.33,-309.69L-96.45,-239.79C-96.06,-232.36 -95.55,-224.64 -95.17,-217.21L-64.92,-199.36C-54.01,-202.56 -42.24,-205.45 -31.33,-208.66ZM91.34,-269.20C83.59,-269.91 75.79,-271.13 68.04,-271.84C59.18,-265.68 49.93,-258.45 41.07,-252.29L52.77,-283.61L3.74,-291.49L1.99,-286.80L13.58,-278.83C13.82,-275.58 13.78,-272.20 14.02,-268.95L-12.02,-199.26C-15.55,-196.94 -19.09,-194.62 -22.63,-192.30L-32.25,-195.16L-34.00,-190.47L36.76,-164.04L38.51,-168.73C33.26,-170.93 28.01,-173.14 22.76,-175.34L17.18,-188.35L38.68,-245.89L71.18,-256.82C72.99,-255.18 74.80,-253.53 76.61,-251.88L77.56,-221.90L82.24,-220.15L105.90,-251.62C101.16,-257.77 96.09,-263.06 91.34,-269.20ZM173.27,-122.51C155.35,-124.59 138.04,-127.66 120.11,-129.74C110.86,-140.73 101.08,-150.94 91.82,-161.93C93.96,-179.34 95.88,-196.84 98.01,-214.25L133.53,-241.06L186.61,-233.62L218.71,-199.28C216.57,-181.86 214.44,-164.45 212.30,-147.03ZM161.47,-229.40C154.74,-228.28 148.14,-226.86 141.40,-225.73C135.69,-213.05 128.95,-197.60 123.40,-185.34C125.92,-171.29 128.65,-157.15 131.17,-143.10L149.66,-134.73C155.68,-135.88 161.99,-137.17 168.00,-138.32L187.47,-177.43C185.30,-191.12 180.86,-207.83 178.31,-221.17C172.80,-223.96 166.99,-226.61 161.47,-229.40ZM331.56,-59.97L328.54,-72.03L355.13,-143.21C353.90,-150.96 352.37,-158.57 351.14,-166.32C342.53,-171.24 333.92,-176.15 325.32,-181.07L283.47,-172.41L291.43,-193.72L242.64,-202.24L240.89,-197.55L252.48,-189.58L252.92,-179.70L226.88,-110.01L216.27,-103.05L206.65,-105.91L204.90,-101.22L266.49,-78.21L268.24,-82.90L259.11,-87.04L256.08,-99.10L281.48,-167.09C293.73,-167.37 301.48,-166.66 313.72,-166.94C316.64,-159.78 319.84,-152.75 322.75,-145.60L299.34,-82.94L288.73,-75.98L279.11,-78.84L277.36,-74.15L338.95,-51.14L340.70,-55.83ZM455.24,-23.73L451.28,-33.95L472.86,-91.70C470.85,-101.92 469.05,-112.07 466.96,-122.08C454.25,-129.01 441.81,-135.36 429.10,-142.29C414.51,-140.94 399.74,-140.39 385.01,-139.34L388.49,-101.85L393.18,-100.10C400.54,-110.70 407.61,-121.18 414.98,-131.78L441.53,-127.45C442.71,-120.21 443.68,-113.05 444.78,-105.59L435.94,-81.94C417.25,-84.55 394.10,-87.61 375.62,-90.14C368.92,-83.90 362.08,-77.96 355.46,-71.93C358.08,-60.75 360.36,-49.95 362.77,-38.84C375.10,-35.45 386.85,-31.79 399.26,-28.61L420.65,-41.02L412.85,-20.13L465.08,-11.07L466.83,-15.75ZM395.60,-40.91C392.24,-45.56 388.74,-50.51 385.38,-55.17L392.23,-73.50C405.33,-75.40 421.22,-76.99 434.75,-78.74L422.49,-45.92C414.07,-44.21 403.85,-42.20 395.60,-40.91ZM586.60,28.99L585.73,18.95L619.33,-70.98L570.54,-79.49L568.79,-74.81L580.38,-66.83L580.82,-56.95L558.13,3.78C548.55,4.09 539.09,4.69 529.51,4.99C526.60,-2.17 523.39,-9.19 520.48,-16.35L550.50,-96.70L501.71,-105.21L499.96,-100.52L511.55,-92.55L511.99,-82.67L488.10,-18.74C489.34,-10.99 490.86,-3.38 492.10,4.37C500.70,9.29 509.31,14.20 517.92,19.12L556.14,9.11L548.39,30.50L596.97,38.94L598.72,34.25ZM687.65,53.63C683.31,54.19 678.84,54.46 674.50,55.03L659.16,49.30C657.66,44.85 656.46,40.27 654.96,35.83L681.39,-34.93L712.93,-23.14L716.12,-31.67L684.58,-43.45L694.93,-71.15L687.25,-74.02L670.15,-58.80C665.49,-57.38 660.97,-55.67 656.23,-54.04L641.95,-59.37L638.85,-51.06L649.93,-46.92L650.20,-40.50L624.09,29.40C624.47,36.82 624.99,44.55 625.37,51.97L655.61,69.83C666.53,66.62 678.29,63.73 689.21,60.52ZM814.26,11.80C805.95,4.81 797.39,-1.55 789.08,-8.54L755.92,-17.28C745.32,-12.98 734.60,-8.98 724.01,-4.68L719.01,22.36C735.40,38.92 751.72,55.71 768.12,72.27L761.11,91.03C755.33,91.54 749.69,92.35 743.91,92.86C736.71,86.77 729.44,80.90 722.24,74.81C720.04,63.79 717.47,53.11 715.28,42.09L710.67,40.13L693.48,69.89C706.22,79.99 719.25,89.96 731.99,100.06C745.57,100.77 758.94,101.39 772.52,102.09L797.42,86.14C796.98,76.26 796.76,66.46 796.32,56.58C783.07,44.59 769.74,32.81 756.50,20.82C754.89,15.36 752.99,10.04 751.39,4.58L765.86,-9.44C770.04,-7.64 774.09,-6.12 778.27,-4.32L791.68,33.24L796.37,34.99ZM-96.33,29.34L-71.96,-78.13L-60.95,-86.16L-46.78,-83.78L-37.48,-74.23L-37.65,-65.31L-91.64,31.09ZM-98.49,67.63C-102.06,66.79 -105.49,66.23 -108.85,65.46C-111.36,63.07 -113.65,60.76 -116.15,58.36L-114.97,47.39C-112.23,45.26 -109.36,43.42 -106.70,41.50C-103.05,42.13 -99.61,42.69 -96.18,43.24L-89.08,50.26C-89.64,53.70 -89.90,57.00 -90.38,60.22C-93.20,62.57 -95.67,65.29 -98.49,67.63Z" fill="#ffffff" stroke="#000000"/>
    <path d="M-662.89,-495.05L-684.52,-483.62L-698.75,-482.27L-731.61,-494.11L-735.13,-506.08L-713.62,-557.32L-679.48,-542.75L-673.34,-532.37L-673.23,-521.59L-668.46,-519.58L-650.61,-562.12L-655.38,-564.12L-663.16,-556.64L-675.19,-554.13L-675.28,-553.92L-709.18,-567.90L-689.86,-613.96L-678.85,-619.84L-647.72,-605.07L-638.80,-593.76L-633.25,-570.94L-628.06,-568.76L-617.71,-605.65L-729.12,-652.40L-731.04,-647.83L-722.17,-643.38L-719.24,-631.17L-767.99,-514.98L-778.75,-508.52L-788.14,-511.73L-790.06,-507.16L-678.23,-460.24L-657.71,-492.87ZM-555.05,-424.67L-558.55,-434.92L-534.96,-491.15C-536.55,-501.33 -537.93,-511.42 -539.60,-521.40C-551.88,-528.75 -563.93,-535.51 -576.22,-542.86C-590.69,-542.10 -605.32,-542.14 -619.91,-541.67L-617.94,-504.49L-613.37,-502.57C-605.68,-512.77 -598.28,-522.84 -590.59,-533.03L-564.52,-527.70C-563.64,-520.50 -562.97,-513.39 -562.17,-505.98L-571.83,-482.95C-590.21,-486.26 -612.96,-490.20 -631.12,-493.43C-637.99,-487.52 -644.98,-481.92 -651.76,-476.22C-649.61,-465.07 -647.78,-454.30 -645.83,-443.24C-633.78,-439.40 -622.32,-435.32 -610.17,-431.69L-588.55,-443.11L-597.08,-422.78L-545.82,-411.77L-543.91,-416.33ZM-613.31,-443.99C-616.45,-448.72 -619.71,-453.75 -622.85,-458.48L-615.36,-476.32C-602.34,-477.69 -586.57,-478.64 -573.14,-479.84L-586.54,-447.88C-594.92,-446.52 -605.11,-444.94 -613.31,-443.99ZM-417.24,-476.89C-424.87,-477.89 -432.53,-479.40 -440.16,-480.41C-449.16,-474.67 -458.59,-467.89 -467.59,-462.15L-454.79,-492.65L-502.93,-502.35L-504.85,-497.79L-493.71,-489.45C-493.59,-486.23 -493.77,-482.89 -493.66,-479.67L-522.13,-411.83C-525.72,-409.67 -529.30,-407.52 -532.89,-405.36L-542.28,-408.57L-544.20,-404.01L-475.31,-375.11L-473.40,-379.67C-478.50,-382.06 -483.60,-384.44 -488.70,-386.82L-493.70,-399.90L-470.20,-455.92L-437.65,-465.45C-435.93,-463.75 -434.20,-462.05 -432.47,-460.35L-432.72,-430.68L-428.16,-428.77L-403.54,-458.94C-407.99,-465.20 -412.79,-470.63 -417.24,-476.89ZM-355.17,-350.32C-359.48,-349.93 -363.91,-349.84 -368.22,-349.45L-383.16,-355.72C-384.47,-360.17 -385.48,-364.74 -386.78,-369.19L-357.88,-438.08L-327.17,-425.19L-323.69,-433.49L-354.40,-446.38L-343.08,-473.35L-350.55,-476.48L-368.05,-462.11C-372.71,-460.89 -377.25,-459.38 -381.99,-457.95L-395.89,-463.79L-399.29,-455.69L-388.50,-451.17L-388.48,-444.82L-417.03,-376.76C-416.95,-369.41 -416.74,-361.76 -416.66,-354.40L-387.47,-335.57C-376.56,-338.31 -364.82,-340.70 -353.91,-343.45ZM-233.29,-279.66L-236.22,-291.87L-207.15,-361.17C-208.06,-368.87 -209.27,-376.46 -210.19,-384.16C-218.50,-389.36 -226.81,-394.55 -235.13,-399.75L-276.82,-392.84L-245.83,-466.70L-293.71,-477.03L-295.63,-472.47L-284.48,-464.13L-284.44,-454.36L-335.19,-333.40L-345.95,-326.93L-355.34,-330.14L-357.26,-325.58L-296.88,-300.24L-294.97,-304.81L-303.84,-309.26L-306.76,-321.47L-279.00,-387.66C-266.88,-387.45 -259.25,-386.45 -247.14,-386.24C-244.54,-379.05 -241.65,-371.99 -239.05,-364.80L-264.65,-303.80L-275.41,-297.33L-284.80,-300.54L-286.72,-295.98L-226.34,-270.65L-224.43,-275.21ZM-90.02,-328.62C-97.96,-335.86 -106.17,-342.47 -114.11,-349.71L-146.54,-359.65C-157.18,-355.82 -167.93,-352.28 -178.57,-348.45L-184.57,-321.93C-169.02,-304.91 -153.55,-287.69 -138.00,-270.67L-145.66,-252.41C-151.39,-252.13 -157.00,-251.56 -162.73,-251.28C-169.60,-257.58 -176.56,-263.67 -183.44,-269.97C-185.17,-280.95 -187.29,-291.60 -189.03,-302.57L-193.51,-304.70L-211.67,-275.96C-199.47,-265.47 -186.99,-255.11 -174.79,-244.63C-161.40,-243.40 -148.21,-242.26 -134.82,-241.03L-109.58,-255.82C-109.63,-265.60 -109.47,-275.29 -109.51,-285.07C-122.13,-297.44 -134.84,-309.60 -147.46,-321.98C-148.83,-327.43 -150.50,-332.77 -151.87,-338.22L-137.02,-351.51C-132.96,-349.56 -129.02,-347.91 -124.96,-345.96L-113.18,-308.32L-108.61,-306.41ZM-30.05,-213.91C-34.37,-213.52 -38.80,-213.43 -43.11,-213.04L-58.05,-219.31C-59.35,-223.76 -60.36,-228.33 -61.66,-232.79L-32.76,-301.67L-2.06,-288.78L1.43,-297.08L-29.28,-309.97L-17.96,-336.94L-25.43,-340.07L-42.93,-325.70C-47.59,-324.48 -52.13,-322.97 -56.88,-321.55L-70.78,-327.38L-74.17,-319.29L-63.38,-314.76L-63.36,-308.41L-91.92,-240.35C-91.83,-233.00 -91.62,-225.35 -91.54,-217.99L-62.35,-199.16C-51.44,-201.90 -39.70,-204.29 -28.79,-207.04ZM94.82,-262.05C87.19,-263.05 79.52,-264.56 71.89,-265.57C62.90,-259.82 53.47,-253.05 44.47,-247.30L57.26,-277.80L9.12,-287.51L7.21,-282.95L18.35,-274.61C18.46,-271.39 18.28,-268.05 18.39,-264.83L-10.07,-196.99C-13.66,-194.83 -17.25,-192.68 -20.84,-190.52L-30.23,-193.73L-32.14,-189.17L36.74,-160.27L38.66,-164.83C33.56,-167.21 28.46,-169.60 23.36,-171.98L18.35,-185.06L41.86,-241.08L74.40,-250.61C76.13,-248.91 77.85,-247.20 79.58,-245.50L79.34,-215.84L83.90,-213.92L108.52,-244.10C104.07,-250.36 99.27,-255.79 94.82,-262.05ZM170.02,-113.86C152.39,-116.62 135.40,-120.34 117.77,-123.10C109.06,-134.32 99.79,-144.79 91.08,-156.01C93.87,-173.14 96.46,-190.35 99.25,-207.48L135.40,-232.58L187.56,-223.14L217.94,-187.94C215.14,-170.82 212.35,-153.69 209.55,-136.56ZM162.56,-219.96C155.86,-219.11 149.28,-217.97 142.58,-217.12C136.44,-204.81 129.17,-189.81 123.20,-177.91C125.14,-163.92 127.29,-149.85 129.23,-135.86L147.17,-126.87C153.16,-127.77 159.45,-128.79 165.44,-129.69L186.21,-167.58C184.60,-181.19 180.87,-197.88 178.88,-211.16C173.54,-214.14 167.90,-216.99 162.56,-219.96ZM323.99,-45.84L321.48,-57.88L350.55,-127.18C349.64,-134.88 348.43,-142.47 347.51,-150.17C339.20,-155.36 330.89,-160.56 322.58,-165.76L280.88,-158.85L289.59,-179.60L241.70,-189.93L239.79,-185.36L250.93,-177.03L250.98,-167.25L222.51,-99.40L211.75,-92.94L202.36,-96.15L200.44,-91.58L260.40,-66.42L262.32,-70.99L253.45,-75.44L250.94,-87.48L278.71,-153.66C290.82,-153.46 298.45,-152.45 310.57,-152.25C313.16,-145.06 316.05,-137.99 318.65,-130.80L293.05,-69.81L282.29,-63.34L272.90,-66.55L270.98,-61.99L330.95,-36.83L332.86,-41.39ZM444.79,-5.17L441.28,-15.42L464.87,-71.65C463.29,-81.83 461.91,-91.92 460.24,-101.90C447.95,-109.25 435.91,-116.01 423.62,-123.36C409.15,-122.60 394.52,-122.64 379.93,-122.17L381.90,-84.99L386.46,-83.08C394.15,-93.27 401.55,-103.34 409.24,-113.53L435.31,-108.21C436.20,-101.00 436.87,-93.89 437.67,-86.48L428.00,-63.45C409.63,-66.77 386.88,-70.70 368.72,-73.93C361.85,-68.03 354.86,-62.42 348.08,-56.72C350.23,-45.57 352.06,-34.80 354.00,-23.74C366.06,-19.90 377.52,-15.82 389.66,-12.19L411.29,-23.61L402.76,-3.28L454.01,7.73L455.93,3.17ZM386.53,-24.49C383.39,-29.22 380.13,-34.25 376.99,-38.98L384.48,-56.82C397.49,-58.19 413.26,-59.14 426.70,-60.34L413.29,-28.39C404.91,-27.02 394.73,-25.44 386.53,-24.49ZM572.53,52.09L572.07,42.14L608.81,-45.42L560.93,-55.75L559.01,-51.18L570.15,-42.85L570.20,-33.07L545.39,26.06C535.90,25.99 526.54,26.21 517.06,26.13C514.46,18.94 511.57,11.87 508.97,4.68L541.79,-73.54L493.91,-83.87L492.00,-79.30L503.14,-70.97L503.18,-61.19L477.07,1.06C477.98,8.76 479.19,16.34 480.11,24.05C488.42,29.24 496.73,34.44 505.05,39.64L543.21,31.25L534.72,52.08L582.39,62.33L584.31,57.76ZM671.43,80.41C667.12,80.80 662.69,80.89 658.38,81.28L643.44,75.01C642.13,70.56 641.12,65.98 639.82,61.53L668.72,-7.35L699.43,5.53L702.91,-2.76L672.20,-15.65L683.52,-42.62L676.05,-45.75L658.55,-31.38C653.89,-30.16 649.35,-28.65 644.61,-27.23L630.71,-33.06L627.31,-24.97L638.10,-20.44L638.12,-14.09L609.57,53.96C609.65,61.32 609.86,68.97 609.94,76.33L639.13,95.16C650.04,92.42 661.78,90.02 672.69,87.28ZM798.19,44.05C790.25,36.81 782.05,30.19 774.10,22.96L741.67,13.01C731.04,16.85 720.28,20.38 709.64,24.22L703.64,50.74C719.19,67.75 734.66,84.98 750.21,101.99L742.55,120.25C736.82,120.53 731.21,121.11 725.48,121.39C718.61,115.09 711.65,109.00 704.78,102.70C703.04,91.72 700.92,81.07 699.18,70.09L694.70,67.97L676.55,96.71C688.74,107.19 701.23,117.55 713.42,128.04C726.81,129.27 740.00,130.41 753.39,131.63L778.63,116.85C778.58,107.07 778.75,97.37 778.70,87.60C766.08,75.22 753.37,63.06 740.75,50.69C739.38,45.23 737.71,39.90 736.34,34.44L751.19,21.15C755.25,23.10 759.20,24.76 763.26,26.70L775.04,64.34L779.60,66.26ZM-102.37,25.61L-74.07,-79.63L-62.87,-87.14L-48.96,-84.23L-40.14,-74.43L-40.67,-65.62L-97.80,27.53ZM-106.01,63.37C-109.50,62.39 -112.88,61.71 -116.16,60.82C-118.55,58.35 -120.72,55.98 -123.10,53.51L-121.50,42.72C-118.71,40.72 -115.80,39.01 -113.09,37.22C-109.51,37.99 -106.14,38.67 -102.77,39.36L-96.03,46.57C-96.72,49.95 -97.11,53.20 -97.70,56.36C-100.58,58.57 -103.13,61.16 -106.01,63.37Z" fill="#ffffff" stroke="#000000"/>
    <path d="M-889.36,490.56C-892.75,491.20 -896.17,491.89 -899.55,492.49C-902.70,491.05 -905.82,489.53 -908.93,488.05C-909.92,484.17 -910.91,480.33 -911.86,476.46L-906.12,467.03C-902.70,466.39 -899.36,465.55 -895.98,464.91C-892.82,466.43 -889.74,468.06 -886.63,469.58C-885.56,473.08 -884.42,476.65 -883.44,480.14C-885.41,483.68 -887.39,487.06 -889.36,490.56ZM-900.31,467.03L-905.17,469.96C-905.13,473.46 -905.06,476.99 -905.02,480.49C-903.58,483.45 -902.17,486.41 -900.73,489.38C-898.75,489.61 -896.81,489.87 -894.84,490.10L-890.12,487.10C-890.24,483.72 -890.39,480.30 -890.50,476.91L-895.03,467.79C-896.77,467.53 -898.56,467.30 -900.31,467.03ZM-866.53,472.35C-867.78,472.70 -869.07,472.96 -870.33,473.30C-871.35,474.79 -872.38,476.46 -873.40,477.94L-873.40,472.35L-881.54,473.99L-881.54,474.82L-879.26,475.39C-879.03,475.89 -878.84,476.42 -878.61,476.91L-878.61,489.34C-879.03,489.91 -879.45,490.48 -879.86,491.05L-881.54,491.16L-881.54,492L-868.92,492L-868.92,491.16C-869.87,491.13 -870.82,491.09 -871.77,491.05L-873.40,489.34L-873.40,479.08L-868.96,475.47C-868.58,475.62 -868.20,475.77 -867.82,475.93L-865.92,480.56L-865.08,480.56L-863.22,474.25C-864.32,473.57 -865.42,473.04 -866.53,472.35ZM-848.59,488.01C-849.24,488.35 -849.92,488.66 -850.57,489.00L-853.30,489.00C-853.80,488.39 -854.25,487.74 -854.75,487.14L-854.75,474.52L-849.12,474.52L-849.12,473L-854.75,473L-854.75,468.06L-856.11,468.06L-857.90,471.44C-858.55,471.94 -859.15,472.47 -859.80,473L-862.35,473L-862.35,474.48L-860.37,474.48L-859.95,475.47L-859.95,487.93C-859.46,489.07 -858.93,490.25 -858.43,491.39L-852.66,492.42C-851.14,491.28 -849.46,490.14 -847.94,489.00ZM-842.17,468.63C-841.26,468.48 -840.53,468.36 -839.81,468.25L-838.71,466.08C-838.86,465.36 -839.05,464.64 -839.20,463.92C-839.89,463.61 -840.57,463.31 -841.22,462.97L-843.57,463.42C-844.03,464.03 -844.41,464.68 -844.83,465.32C-844.64,466.12 -844.37,466.92 -844.22,467.72C-843.54,468.02 -842.89,468.33 -842.17,468.63ZM-837.91,491.05L-839.17,489.34L-839.17,473L-841.64,473L-847.30,474.52L-847.30,475.36L-845.02,475.93L-844.37,477.45L-844.37,489.34L-845.63,491.05L-847.30,491.16L-847.30,492L-836.24,492L-836.24,491.16ZM-816.25,476.53L-818.80,480.87L-819.37,480.87C-820.13,479.08 -820.93,476.72 -821.69,474.94C-823.09,474.60 -824.46,474.29 -825.87,473.95L-828.53,475.58C-828.68,477.75 -828.79,479.95 -828.94,482.12C-828.15,484.10 -827.31,486.07 -826.51,488.05C-824.99,488.58 -823.47,489.07 -821.95,489.61C-820.13,488.85 -818.27,488.12 -816.44,487.36L-815.95,487.78L-819.75,492C-822.18,492.15 -824.61,492.38 -827.04,492.53L-832.97,488.88C-833.62,486.03 -834.23,483.15 -834.87,480.30C-833.47,478.13 -832.10,475.93 -830.69,473.76C-828.11,473.27 -825.49,472.85 -822.90,472.35C-821.27,472.89 -819.67,473.34 -818.04,473.87C-817.43,474.75 -816.86,475.66 -816.25,476.53ZM-796.19,489.49L-797.40,488.12L-797.40,477.83C-798.32,476.34 -799.19,474.86 -800.10,473.42C-802.50,473.08 -804.81,472.81 -807.21,472.47C-809.41,473.53 -811.69,474.48 -813.93,475.51L-811.20,481.17L-810.36,481.17C-809.83,479.08 -809.34,477.03 -808.80,474.94L-804.40,474.06C-803.79,475.13 -803.22,476.19 -802.61,477.29L-802.61,481.51C-805.69,482.20 -809.49,483.07 -812.53,483.75C-813.21,485.12 -813.93,486.45 -814.62,487.78C-813.55,489.38 -812.57,490.94 -811.54,492.53C-809.41,492.34 -807.36,492.23 -805.23,492L-802.61,488.81L-802.61,492.53L-793.91,490.90L-793.91,490.06ZM-806.52,490.29C-807.32,489.76 -808.16,489.19 -808.96,488.66L-808.96,485.39C-807.02,484.32 -804.62,483.15 -802.61,482.08L-802.61,487.93C-803.83,488.69 -805.31,489.61 -806.52,490.29ZM-792.01,481.36L-792.01,483.64L-779.89,483.64L-779.89,481.36ZM-756.21,479.88L-761.23,478.09L-756.48,476.84L-754.65,471.90L-756.40,467.38L-760.20,465.40L-777.19,465.40L-777.19,466.24L-775.52,466.35L-774.26,468.06L-774.26,489.34L-775.52,491.05L-777.19,491.16L-777.19,492L-760.16,492L-754.84,489.11L-753.36,484.86ZM-762.79,467.41L-760.73,469.88L-760.43,474.71L-763.36,477.52L-768.56,477.52L-768.56,467.87L-767.38,466.73ZM-762.03,490.67L-767.38,490.67L-768.56,489.53L-768.56,478.85L-761.84,479.95L-759.82,482.88L-759.44,487.29ZM-734.13,490.52C-737.06,491.24 -739.95,491.77 -742.87,492.49C-744.96,491.32 -747.09,490.29 -749.18,489.11C-749.87,486.26 -750.59,483.41 -751.27,480.56L-747.28,474.29L-738.54,472.35L-731.51,475.85C-730.83,478.70 -730.14,481.55 -729.46,484.40ZM-742.23,474.48C-743.22,475.05 -744.17,475.66 -745.15,476.23C-745.31,478.55 -745.46,481.36 -745.61,483.60C-744.39,485.65 -743.14,487.71 -741.92,489.76L-738.54,489.99C-737.67,489.45 -736.76,488.88 -735.88,488.35L-735.12,481.09C-736.26,479.08 -737.93,476.72 -739.11,474.79C-740.14,474.67 -741.20,474.60 -742.23,474.48ZM-718.74,491.05L-719.92,489.34L-719.92,462.74L-728.05,464.26L-728.05,465.10L-725.77,465.67L-725.13,467.19L-725.13,489.38L-726.34,491.05L-728.02,491.16L-728.02,492L-717.07,492L-717.07,491.16ZM-694.61,489.15L-695.83,487.78L-695.83,462.74L-703.96,464.26L-703.96,465.10L-701.68,465.67L-701.04,467.19L-701.04,473.72C-702.59,473.30 -704.27,472.89 -705.79,472.47C-708.29,473.53 -710.84,474.56 -713.35,475.62C-714.18,477.98 -715.06,480.37 -715.89,482.73L-714.07,489.38C-711.71,490.40 -709.40,491.47 -707.04,492.49L-701.04,488.69L-701.04,492.49L-692.33,490.56L-692.33,489.72ZM-705.67,489.07C-707.23,487.67 -708.75,486.22 -710.31,484.82L-711.03,478.62C-710.27,477.37 -709.47,476.08 -708.71,474.82L-704.76,474.29C-703.58,474.86 -702.25,475.55 -701.04,476.15L-701.04,487.59C-702.52,488.05 -704.23,488.62 -705.67,489.07Z"/>
</svg>