<?xml version="1.0"?>
<svg xmlns="http://www.w3.org/2000/svg" width="1920" height="1080" viewBox="-960 -540 1920 1080">
    <path d="M-436.38,-210L-408.63,-393.75L-375.63,-393.75L-347.88,-210L-374.13,-210L-379.13,-247.50L-405.13,-247.50L-410.13,-210ZM-390.63,-334L-391.38,-338.75L-392.88,-338.75L-393.63,-334L-401.38,-276L-382.88,-276ZM-296.88,-210L-296.88,-393.75L-273.13,-393.75C-257.13,-393.75 -244.63,-390.75 -236.38,-383C-228.13,-375.25 -223.88,-363.25 -223.88,-345C-223.88,-336.25 -224.63,-329.75 -227.38,-323.75C-230.13,-317.75 -234.38,-312.75 -240.63,-307C-233.88,-303.25 -228.88,-296.25 -224.88,-284.50C-222.88,-278.75 -221.88,-271.25 -221.88,-262C-221.88,-248.25 -224.38,-236 -230.63,-226.50C-236.88,-217 -247.63,-210.75 -263.63,-210ZM-269.88,-318C-267.63,-318 -262.38,-317.75 -257.88,-320.75C-253.38,-323.75 -249.88,-329.75 -249.88,-342.50C-249.88,-355.25 -253.38,-361.25 -257.88,-364.25C-262.38,-367.25 -267.63,-367 -269.88,-367ZM-269.88,-236.75C-267.63,-236.75 -262.38,-236.25 -257.88,-239.50C-253.38,-242.75 -249.88,-250 -249.88,-265C-249.88,-280 -253.38,-287.25 -257.88,-290.50C-262.38,-293.75 -267.63,-293.25 -269.88,-293.25ZM-142.63,-259L-142.63,-243.25C-143.38,-230 -147.38,-220.75 -156.38,-213.50C-160.88,-209.75 -167.13,-208 -175.38,-208C-191.63,-208 -199.88,-217 -203.88,-226C-206.13,-231.25 -207.63,-237.25 -207.88,-244L-207.88,-312.75C-207.13,-326 -202.88,-335.75 -193.88,-343.25C-189.63,-347 -183.38,-348.75 -175.13,-348.75C-158.88,-348.75 -150.63,-339.75 -146.63,-331C-144.38,-325.75 -142.88,-320 -142.63,-313.50L-142.63,-273.75L-184.38,-273.75L-184.38,-244C-184.13,-238.75 -182.63,-235 -180.38,-232.25C-179.13,-231 -177.38,-230.25 -175.13,-230.25C-170.38,-230.25 -168.13,-233.25 -167.13,-237C-166.38,-239 -166.13,-241.25 -166.13,-244L-166.13,-259ZM-184.38,-293.50L-166.13,-293.50L-166.13,-312.75C-166.13,-318 -167.13,-321.75 -169.63,-324.75C-170.88,-326 -172.88,-326.75 -175.13,-326.75C-179.88,-326.75 -181.88,-323.50 -183.13,-319.75C-183.88,-317.75 -184.13,-315.50 -184.38,-312.75ZM-63.63,-276C-64.38,-263.25 -68.88,-254.25 -77.63,-247.50C-82.13,-244 -88.38,-242.25 -96.13,-242.25C-96.88,-242.25 -97.63,-242.25 -98.38,-242.25C-99.13,-242.25 -100.13,-242.25 -100.88,-242.50C-103.13,-240.50 -104.38,-238.50 -104.38,-236.25C-104.38,-233.25 -101.88,-231.50 -98.13,-230.50C-94.38,-229.25 -89.88,-228.50 -85.13,-227.75C-77.13,-226.75 -68.63,-224.75 -61.63,-220C-54.88,-215.25 -50.13,-208 -50.13,-196C-50.13,-182.75 -55.88,-173.75 -63.88,-168.50C-72.13,-163.25 -83.13,-161 -93.38,-161C-105.38,-161.25 -115.63,-163 -122.63,-167C-129.88,-171 -133.88,-177.50 -133.88,-187.50C-133.88,-192.25 -131.38,-196.25 -127.63,-199.75C-123.88,-203.25 -118.88,-206 -114.13,-208.25C-122.38,-210.50 -129.38,-215.75 -129.38,-226.50C-129.38,-230.50 -127.13,-234.50 -124.13,-238.25C-121.13,-242 -117.38,-245 -113.63,-247C-120.88,-251.75 -124.38,-259.25 -126.13,-265.50C-127.13,-269.25 -127.88,-273 -128.13,-276.75L-128.13,-314C-127.13,-326.75 -123.13,-336 -114.38,-343.25C-110.13,-347 -103.88,-348.75 -96.13,-348.75C-83.38,-348.75 -75.63,-343 -70.88,-336.25C-69.13,-338 -66.13,-341 -62.13,-343.75C-58.38,-346.50 -54.13,-348.75 -50.13,-348.75L-50.13,-326.25C-56.88,-326.25 -61.88,-325 -64.88,-323.25C-64.63,-322 -64.38,-320.75 -64.13,-320C-64.13,-319 -64.13,-318 -63.88,-317.25C-63.63,-316.50 -63.63,-315.50 -63.63,-314.75ZM-88.38,-313C-88.38,-317.75 -89.38,-320.75 -91.38,-323.50C-92.38,-324.75 -93.88,-325.50 -96.13,-325.50C-100.13,-325.50 -102.13,-322.25 -102.88,-319.25C-103.38,-317.50 -103.63,-315.25 -103.38,-313L-103.38,-275.50C-103.63,-270.75 -102.88,-267.75 -100.63,-265.25C-99.63,-264 -98.13,-263.25 -96.13,-263.25C-91.88,-263.25 -90.13,-266.25 -89.13,-269.25C-88.63,-271 -88.38,-273.25 -88.38,-275.50ZM-100.13,-203.75C-105.38,-200.75 -109.38,-197 -109.38,-191.75C-109.38,-186.50 -104.63,-182.25 -92.88,-182.25C-88.63,-182.25 -83.88,-183 -80.13,-184.50C-76.38,-186 -73.63,-188.25 -73.63,-191.50C-73.63,-193.75 -73.88,-195.50 -75.63,-197.25C-77.63,-199 -80.88,-200.25 -87.13,-201.25ZM-39.88,-393.75L-14.63,-393.75L-14.63,-368.50L-39.88,-368.50ZM-39.88,-210L-39.88,-346.75L-14.63,-346.75L-14.63,-210ZM30.63,-210L5.38,-210L5.38,-346.75L30.63,-346.75L30.63,-335.25C31.13,-335.50 32.13,-336.50 33.63,-338C36.38,-340.75 40.13,-344.50 44.63,-347C46.88,-348.25 48.88,-348.75 51.13,-348.75C57.88,-348.75 62.63,-344.75 65.63,-339.75C68.63,-334.50 70.13,-327.75 70.13,-322L70.13,-210L44.88,-210L44.88,-318.25C44.88,-323.50 41.88,-324.25 38.88,-324.25C36.13,-324.25 34.63,-322.75 32.88,-321C32.13,-320 31.38,-319 30.63,-317.75ZM114.88,-210L89.63,-210L89.63,-346.75L114.88,-346.75L114.88,-335.25C115.38,-335.50 116.38,-336.50 117.88,-338C120.63,-340.75 124.38,-344.50 128.88,-347C131.13,-348.25 133.13,-348.75 135.38,-348.75C142.13,-348.75 146.88,-344.75 149.88,-339.75C152.88,-334.50 154.38,-327.75 154.38,-322L154.38,-210L129.13,-210L129.13,-318.25C129.13,-323.50 126.13,-324.25 123.13,-324.25C120.38,-324.25 118.88,-322.75 117.13,-321C116.38,-320 115.63,-319 114.88,-317.75ZM173.88,-393.75L199.13,-393.75L199.13,-368.50L173.88,-368.50ZM173.88,-210L173.88,-346.75L199.13,-346.75L199.13,-210ZM244.38,-210L219.13,-210L219.13,-346.75L244.38,-346.75L244.38,-335.25C244.88,-335.50 245.88,-336.50 247.38,-338C250.13,-340.75 253.88,-344.50 258.38,-347C260.63,-348.25 262.63,-348.75 264.88,-348.75C271.63,-348.75 276.38,-344.75 279.38,-339.75C282.38,-334.50 283.88,-327.75 283.88,-322L283.88,-210L258.63,-210L258.63,-318.25C258.63,-323.50 255.63,-324.25 252.63,-324.25C249.88,-324.25 248.38,-322.75 246.63,-321C245.88,-320 245.13,-319 244.38,-317.75ZM365.13,-276C364.38,-263.25 359.88,-254.25 351.13,-247.50C346.63,-244 340.38,-242.25 332.63,-242.25C331.88,-242.25 331.13,-242.25 330.38,-242.25C329.63,-242.25 328.63,-242.25 327.88,-242.50C325.63,-240.50 324.38,-238.50 324.38,-236.25C324.38,-233.25 326.88,-231.50 330.63,-230.50C334.38,-229.25 338.88,-228.50 343.63,-227.75C351.63,-226.75 360.13,-224.75 367.13,-220C373.88,-215.25 378.63,-208 378.63,-196C378.63,-182.75 372.88,-173.75 364.88,-168.50C356.63,-163.25 345.63,-161 335.38,-161C323.38,-161.25 313.13,-163 306.13,-167C298.88,-171 294.88,-177.50 294.88,-187.50C294.88,-192.25 297.38,-196.25 301.13,-199.75C304.88,-203.25 309.88,-206 314.63,-208.25C306.38,-210.50 299.38,-215.75 299.38,-226.50C299.38,-230.50 301.63,-234.50 304.63,-238.25C307.63,-242 311.38,-245 315.13,-247C307.88,-251.75 304.38,-259.25 302.63,-265.50C301.63,-269.25 300.88,-273 300.63,-276.75L300.63,-314C301.63,-326.75 305.63,-336 314.38,-343.25C318.63,-347 324.88,-348.75 332.63,-348.75C345.38,-348.75 353.13,-343 357.88,-336.25C359.63,-338 362.63,-341 366.63,-343.75C370.38,-346.50 374.63,-348.75 378.63,-348.75L378.63,-326.25C371.88,-326.25 366.88,-325 363.88,-323.25C364.13,-322 364.38,-320.75 364.63,-320C364.63,-319 364.63,-318 364.88,-317.25C365.13,-316.50 365.13,-315.50 365.13,-314.75ZM340.38,-313C340.38,-317.75 339.38,-320.75 337.38,-323.50C336.38,-324.75 334.88,-325.50 332.63,-325.50C328.63,-325.50 326.63,-322.25 325.88,-319.25C325.38,-317.50 325.13,-315.25 325.38,-313L325.38,-275.50C325.13,-270.75 325.88,-267.75 328.13,-265.25C329.13,-264 330.63,-263.25 332.63,-263.25C336.88,-263.25 338.63,-266.25 339.63,-269.25C340.13,-271 340.38,-273.25 340.38,-275.50ZM328.63,-203.75C323.38,-200.75 319.38,-197 319.38,-191.75C319.38,-186.50 324.13,-182.25 335.88,-182.25C340.13,-182.25 344.88,-183 348.63,-184.50C352.38,-186 355.13,-188.25 355.13,-191.50C355.13,-193.75 354.88,-195.50 353.13,-197.25C351.13,-199 347.88,-200.25 341.63,-201.25Z" fill="#ffffff" stroke="#000000"/>
    <path d="M-423.13,-234.00L-383.45,-413.65L-350.85,-411.45L-335.71,-228.09L-361.64,-229.85L-364.08,-267.22L-389.76,-268.96L-397.20,-232.25ZM-369.66,-353.43L-370.08,-358.17L-371.57,-358.27L-372.62,-353.63L-384.15,-296.86L-365.88,-295.62ZM-285.34,-224.69L-273.07,-406.19L-249.61,-404.60C-233.81,-403.53 -221.66,-399.73 -214.03,-391.53C-206.40,-383.32 -203.00,-371.19 -204.22,-353.16C-204.80,-344.52 -205.98,-338.15 -209.10,-332.40C-212.21,-326.66 -216.74,-322.01 -223.30,-316.74C-216.88,-312.59 -212.41,-305.34 -209.25,-293.47C-207.66,-287.65 -207.17,-280.18 -207.79,-271.04C-208.70,-257.46 -211.99,-245.53 -218.80,-236.56C-225.61,-227.60 -236.64,-222.14 -252.50,-222.47ZM-251.46,-329.56C-249.24,-329.41 -244.07,-328.81 -239.42,-331.48C-234.78,-334.14 -230.92,-339.83 -230.07,-352.43C-229.22,-365.02 -232.27,-371.18 -236.52,-374.44C-240.76,-377.71 -245.96,-377.81 -248.19,-377.96ZM-256.88,-249.31C-254.66,-249.16 -249.51,-248.31 -244.85,-251.22C-240.19,-254.13 -236.24,-261.06 -235.24,-275.88C-234.24,-290.69 -237.21,-298.09 -241.44,-301.60C-245.67,-305.11 -250.89,-304.97 -253.11,-305.12ZM-129.71,-262.79L-130.76,-247.23C-132.39,-234.19 -136.95,-225.32 -146.33,-218.76C-151.02,-215.36 -157.31,-214.05 -165.46,-214.60C-181.51,-215.69 -189.06,-225.13 -192.41,-234.28C-194.28,-239.62 -195.36,-245.65 -195.16,-252.33L-190.57,-320.24C-188.94,-333.27 -184.09,-342.62 -174.70,-349.43C-170.26,-352.85 -163.97,-354.16 -155.82,-353.61C-139.77,-352.52 -132.22,-343.08 -128.85,-334.17C-126.98,-328.84 -125.88,-323.06 -126.07,-316.62L-128.72,-277.36L-169.96,-280.15L-171.95,-250.76C-172.05,-245.56 -170.82,-241.75 -168.78,-238.89C-167.63,-237.57 -165.95,-236.71 -163.73,-236.56C-159.04,-236.24 -156.62,-239.06 -155.38,-242.69C-154.50,-244.62 -154.11,-246.82 -153.92,-249.54L-152.92,-264.36ZM-168.64,-299.65L-150.62,-298.43L-149.33,-317.45C-148.98,-322.63 -149.72,-326.40 -151.99,-329.54C-153.14,-330.85 -155.06,-331.73 -157.29,-331.88C-161.98,-332.20 -164.17,-329.12 -165.65,-325.50C-166.53,-323.57 -166.93,-321.37 -167.36,-318.67ZM-50.54,-274.30C-52.13,-261.76 -57.18,-253.17 -66.27,-247.09C-70.95,-243.93 -77.24,-242.62 -84.90,-243.14C-85.64,-243.19 -86.38,-243.24 -87.12,-243.29C-87.86,-243.34 -88.85,-243.41 -89.57,-243.70C-91.93,-241.88 -93.30,-239.98 -93.45,-237.76C-93.65,-234.80 -91.29,-232.90 -87.66,-231.67C-84.04,-230.18 -79.64,-229.14 -75.00,-228.08C-67.16,-226.56 -58.90,-224.02 -52.31,-218.86C-45.96,-213.71 -41.75,-206.24 -42.55,-194.38C-43.43,-181.30 -49.71,-172.79 -57.97,-168.14C-66.47,-163.50 -77.48,-162.02 -87.61,-162.70C-99.44,-163.75 -109.45,-166.16 -116.10,-170.58C-122.99,-175.01 -126.51,-181.70 -125.84,-191.58C-125.52,-196.27 -122.79,-200.06 -118.85,-203.26C-114.91,-206.47 -109.79,-208.85 -104.95,-210.76C-112.95,-213.53 -119.51,-219.18 -118.79,-229.80C-118.52,-233.75 -116.03,-237.55 -112.82,-241.06C-109.61,-244.56 -105.70,-247.27 -101.86,-249.00C-108.71,-254.17 -111.67,-261.82 -112.98,-268.11C-113.71,-271.88 -114.20,-275.63 -114.20,-279.35L-111.71,-316.15C-109.87,-328.67 -105.30,-337.54 -96.18,-344.12C-91.73,-347.54 -85.44,-348.85 -77.78,-348.33C-65.19,-347.48 -57.92,-341.28 -53.68,-334.30C-51.83,-335.91 -48.67,-338.67 -44.53,-341.12C-40.65,-343.59 -36.30,-345.53 -32.35,-345.26L-33.85,-323.04C-40.52,-323.49 -45.54,-322.59 -48.62,-321.06C-48.46,-319.81 -48.29,-318.56 -48.10,-317.80C-48.16,-316.81 -48.23,-315.82 -48.03,-315.07C-47.84,-314.31 -47.90,-313.32 -47.95,-312.58ZM-72.52,-312.50C-72.20,-317.20 -72.99,-320.23 -74.78,-323.07C-75.68,-324.38 -77.11,-325.22 -79.34,-325.37C-83.29,-325.63 -85.48,-322.56 -86.42,-319.65C-87.03,-317.95 -87.43,-315.74 -87.33,-313.51L-89.84,-276.46C-90.40,-271.79 -89.86,-268.78 -87.81,-266.16C-86.90,-264.86 -85.47,-264.01 -83.49,-263.88C-79.30,-263.60 -77.37,-266.44 -76.18,-269.34C-75.57,-271.03 -75.17,-273.24 -75.02,-275.46ZM-91.42,-205.38C-96.80,-202.76 -101.01,-199.33 -101.36,-194.14C-101.71,-188.96 -97.30,-184.44 -85.69,-183.66C-81.50,-183.37 -76.75,-183.80 -72.95,-185.03C-69.14,-186.26 -66.28,-188.30 -66.06,-191.51C-65.91,-193.73 -66.04,-195.47 -67.65,-197.32C-69.51,-199.18 -72.64,-200.63 -78.74,-202.04ZM-19.22,-389.02L5.72,-387.34L4.04,-362.40L-20.90,-364.08ZM-31.49,-207.53L-22.36,-342.60L2.58,-340.91L-6.55,-205.84ZM38.15,-202.82L13.21,-204.50L22.34,-339.58L47.28,-337.89L46.51,-326.53C47.02,-326.75 48.08,-327.67 49.66,-329.05C52.56,-331.58 56.51,-335.04 61.12,-337.20C63.43,-338.29 65.44,-338.65 67.66,-338.50C74.33,-338.05 78.75,-333.78 81.38,-328.64C83.99,-323.26 85.03,-316.49 84.64,-310.81L77.16,-200.18L52.22,-201.87L59.45,-308.79C59.80,-313.98 56.89,-314.92 53.93,-315.12C51.21,-315.30 49.63,-313.92 47.78,-312.31C46.97,-311.37 46.17,-310.43 45.34,-309.25ZM121.36,-197.19L96.42,-198.88L105.56,-333.95L130.50,-332.27L129.73,-320.91C130.24,-321.12 131.29,-322.04 132.88,-323.42C135.78,-325.96 139.73,-329.41 144.34,-331.58C146.65,-332.66 148.66,-333.02 150.88,-332.87C157.55,-332.42 161.97,-328.15 164.60,-323.02C167.21,-317.63 168.24,-310.86 167.86,-305.18L160.38,-194.55L135.44,-196.24L142.67,-303.16C143.02,-308.35 140.11,-309.29 137.14,-309.49C134.43,-309.68 132.84,-308.29 131.00,-306.68C130.19,-305.74 129.38,-304.81 128.56,-303.62ZM191.91,-374.75L216.85,-373.06L215.17,-348.12L190.23,-349.81ZM179.64,-193.25L188.77,-328.33L213.71,-326.64L204.58,-191.57ZM249.28,-188.54L224.34,-190.23L233.47,-325.30L258.41,-323.62L257.64,-312.26C258.15,-312.47 259.21,-313.39 260.79,-314.78C263.69,-317.31 267.64,-320.76 272.25,-322.93C274.56,-324.02 276.57,-324.38 278.79,-324.23C285.46,-323.77 289.88,-319.51 292.51,-314.37C295.13,-308.98 296.16,-302.21 295.77,-296.53L288.29,-185.91L263.35,-187.59L270.58,-294.52C270.93,-299.70 268.02,-300.64 265.06,-300.84C262.34,-301.03 260.76,-299.65 258.91,-298.03C258.10,-297.10 257.30,-296.16 256.47,-294.97ZM372.95,-245.67C371.36,-233.13 366.32,-224.54 357.22,-218.46C352.54,-215.30 346.25,-213.99 338.60,-214.51C337.86,-214.56 337.12,-214.61 336.38,-214.66C335.64,-214.71 334.65,-214.77 333.92,-215.07C331.57,-213.25 330.20,-211.35 330.05,-209.13C329.85,-206.17 332.20,-204.27 335.84,-203.03C339.46,-201.55 343.85,-200.51 348.50,-199.45C356.33,-197.93 364.59,-195.38 371.19,-190.22C377.54,-185.08 381.75,-177.60 380.95,-165.75C380.06,-152.66 373.78,-144.16 365.53,-139.51C357.03,-134.87 346.01,-133.38 335.89,-134.07C324.05,-135.12 314.05,-137.53 307.40,-141.95C300.50,-146.38 296.99,-153.07 297.66,-162.95C297.97,-167.64 300.71,-171.42 304.65,-174.63C308.58,-177.84 313.71,-180.22 318.55,-182.12C310.55,-184.90 303.99,-190.55 304.70,-201.17C304.97,-205.12 307.46,-208.92 310.68,-212.42C313.89,-215.93 317.79,-218.64 321.63,-220.37C314.79,-225.54 311.83,-233.18 310.52,-239.47C309.78,-243.25 309.29,-247.00 309.30,-250.72L311.78,-287.51C313.62,-300.04 318.19,-308.91 327.32,-315.49C331.77,-318.91 338.06,-320.22 345.71,-319.70C358.31,-318.85 365.58,-312.65 369.82,-305.67C371.66,-307.28 374.83,-310.04 378.96,-312.49C382.85,-314.96 387.20,-316.90 391.15,-316.63L389.65,-294.40C382.98,-294.86 377.96,-293.95 374.88,-292.43C375.04,-291.18 375.20,-289.92 375.40,-289.17C375.33,-288.18 375.27,-287.19 375.46,-286.43C375.66,-285.68 375.59,-284.69 375.54,-283.95ZM350.98,-283.87C351.30,-288.56 350.51,-291.59 348.72,-294.44C347.81,-295.74 346.38,-296.59 344.16,-296.74C340.21,-297.00 338.02,-293.93 337.07,-291.01C336.46,-289.32 336.07,-287.11 336.16,-284.87L333.66,-247.83C333.09,-243.16 333.63,-240.14 335.69,-237.52C336.59,-236.22 338.03,-235.38 340.00,-235.25C344.20,-234.96 346.13,-237.81 347.32,-240.71C347.93,-242.40 348.32,-244.61 348.47,-246.83ZM332.08,-176.75C326.69,-174.13 322.49,-170.70 322.14,-165.51C321.79,-160.32 326.20,-155.81 337.80,-155.02C342.00,-154.74 346.74,-155.16 350.55,-156.40C354.35,-157.63 357.22,-159.67 357.43,-162.88C357.58,-165.10 357.45,-166.84 355.84,-168.69C353.98,-170.55 350.86,-172.00 344.75,-173.41Z" fill="#ffffff" stroke="#000000"/>
    <path d="M-408.50,-257.25L-357.31,-432.02L-325.27,-427.67L-322.56,-245.57L-348.05,-249.03L-347.96,-286.11L-373.21,-289.54L-383.01,-253.78ZM-347.72,-371.62L-347.82,-376.34L-349.27,-376.53L-350.63,-372.02L-365.81,-316.72L-347.84,-314.28ZM-273.03,-238.84L-248.80,-417.28L-225.73,-414.15C-210.19,-412.04 -198.45,-407.47 -191.46,-398.86C-184.47,-390.25 -181.93,-378.03 -184.34,-360.31C-185.49,-351.81 -187.08,-345.60 -190.54,-340.14C-194.00,-334.67 -198.79,-330.38 -205.61,-325.62C-199.55,-321.09 -195.62,-313.63 -193.29,-301.69C-192.10,-295.84 -192.12,-288.43 -193.34,-279.45C-195.16,-266.09 -199.20,-254.53 -206.52,-246.13C-213.85,-237.73 -225.11,-233.08 -240.75,-234.46ZM-232.57,-340.16C-230.38,-339.86 -225.32,-338.93 -220.55,-341.25C-215.79,-343.57 -211.60,-348.93 -209.91,-361.31C-208.23,-373.69 -210.84,-379.98 -214.81,-383.49C-218.79,-387.00 -223.92,-387.45 -226.10,-387.74ZM-243.29,-261.26C-241.10,-260.96 -236.07,-259.78 -231.27,-262.35C-226.47,-264.91 -222.12,-271.49 -220.14,-286.05C-218.16,-300.62 -220.60,-308.12 -224.54,-311.87C-228.48,-315.62 -233.65,-315.83 -235.83,-316.13ZM-116.78,-266.08L-118.86,-250.79C-121.33,-238.02 -126.44,-229.56 -136.13,-223.71C-141.00,-220.66 -147.30,-219.79 -155.31,-220.87C-171.09,-223.02 -177.92,-232.85 -180.61,-242.11C-182.10,-247.51 -182.77,-253.53 -182.12,-260.12L-173.05,-326.88C-170.58,-339.65 -165.16,-348.56 -155.44,-354.65C-150.81,-357.74 -144.51,-358.61 -136.50,-357.52C-120.72,-355.38 -113.90,-345.55 -111.17,-336.53C-109.68,-331.13 -108.98,-325.35 -109.59,-319.00L-114.83,-280.40L-155.38,-285.91L-159.30,-257.02C-159.75,-251.89 -158.79,-248.05 -156.97,-245.08C-155.92,-243.70 -154.32,-242.75 -152.13,-242.45C-147.52,-241.82 -144.94,-244.44 -143.47,-247.95C-142.48,-249.79 -141.94,-251.94 -141.58,-254.61L-139.60,-269.18ZM-152.77,-305.09L-135.05,-302.68L-132.51,-321.38C-131.82,-326.47 -132.29,-330.25 -134.33,-333.49C-135.38,-334.87 -137.22,-335.86 -139.40,-336.16C-144.02,-336.78 -146.39,-333.89 -148.10,-330.42C-149.09,-328.57 -149.63,-326.42 -150.23,-323.78ZM-37.82,-272.17C-40.23,-259.89 -45.79,-251.74 -55.18,-246.34C-60.01,-243.53 -66.31,-242.66 -73.83,-243.68C-74.56,-243.78 -75.29,-243.88 -76.02,-243.98C-76.75,-244.08 -77.72,-244.21 -78.41,-244.55C-80.86,-242.90 -82.34,-241.13 -82.64,-238.94C-83.03,-236.03 -80.84,-234.00 -77.33,-232.53C-73.85,-230.83 -69.58,-229.50 -65.07,-228.15C-57.43,-226.12 -49.44,-223.06 -43.27,-217.52C-37.34,-212.02 -33.68,-204.35 -35.27,-192.70C-37.01,-179.83 -43.78,-171.85 -52.25,-167.81C-60.95,-163.80 -71.93,-163.07 -81.88,-164.42C-93.50,-166.24 -103.22,-169.29 -109.49,-174.10C-116.01,-178.94 -119.03,-185.78 -117.72,-195.49C-117.09,-200.11 -114.13,-203.66 -110.03,-206.56C-105.93,-209.47 -100.71,-211.48 -95.80,-213.04C-103.51,-216.31 -109.62,-222.33 -108.20,-232.77C-107.67,-236.66 -104.96,-240.24 -101.55,-243.49C-98.14,-246.74 -94.11,-249.15 -90.20,-250.60C-96.62,-256.17 -99.03,-263.92 -99.90,-270.22C-100.38,-273.99 -100.61,-277.73 -100.36,-281.40L-95.44,-317.58C-92.79,-329.83 -87.69,-338.28 -78.23,-344.17C-73.61,-347.25 -67.31,-348.12 -59.79,-347.10C-47.41,-345.42 -40.64,-338.81 -36.92,-331.63C-34.99,-333.10 -31.68,-335.62 -27.43,-337.76C-23.42,-339.94 -19.00,-341.56 -15.12,-341.03L-18.08,-319.18C-24.64,-320.07 -29.66,-319.52 -32.80,-318.22C-32.73,-316.97 -32.65,-315.72 -32.50,-314.96C-32.64,-313.99 -32.77,-313.02 -32.62,-312.26C-32.48,-311.50 -32.61,-310.53 -32.71,-309.80ZM-56.98,-311.36C-56.35,-315.98 -56.93,-319.02 -58.50,-321.95C-59.31,-323.30 -60.67,-324.23 -62.85,-324.52C-66.74,-325.05 -69.11,-322.16 -70.23,-319.34C-70.95,-317.71 -71.49,-315.56 -71.54,-313.34L-76.49,-276.93C-77.36,-272.35 -77.03,-269.33 -75.17,-266.61C-74.36,-265.26 -73.01,-264.34 -71.06,-264.07C-66.94,-263.51 -64.84,-266.20 -63.48,-268.98C-62.76,-270.61 -62.22,-272.76 -61.92,-274.95ZM-82.80,-206.82C-88.29,-204.60 -92.67,-201.49 -93.36,-196.39C-94.06,-191.29 -90.00,-186.54 -78.59,-184.99C-74.47,-184.43 -69.75,-184.53 -65.92,-185.49C-62.08,-186.45 -59.11,-188.27 -58.68,-191.43C-58.38,-193.62 -58.39,-195.35 -59.86,-197.28C-61.57,-199.24 -64.57,-200.88 -70.50,-202.68ZM0.77,-383.38L25.29,-380.05L21.96,-355.53L-2.56,-358.86ZM-23.47,-204.94L-5.43,-337.74L19.09,-334.41L1.05,-201.61ZM45.00,-195.64L20.48,-198.97L38.51,-331.77L63.03,-328.44L61.52,-317.27C62.04,-317.45 63.14,-318.29 64.79,-319.55C67.83,-321.85 71.96,-325.00 76.66,-326.84C79.01,-327.75 81.02,-327.97 83.21,-327.68C89.76,-326.79 93.85,-322.28 96.10,-317.02C98.32,-311.53 98.89,-304.78 98.13,-299.19L83.35,-190.43L58.83,-193.76L73.11,-298.88C73.81,-303.98 70.99,-305.11 68.08,-305.50C65.41,-305.86 63.75,-304.61 61.82,-303.14C60.96,-302.27 60.10,-301.39 59.21,-300.28ZM126.81,-184.53L102.29,-187.86L120.33,-320.66L144.85,-317.33L143.33,-306.16C143.85,-306.34 144.95,-307.17 146.61,-308.43C149.64,-310.74 153.78,-313.89 158.48,-315.72C160.83,-316.64 162.83,-316.86 165.02,-316.56C171.57,-315.67 175.66,-311.16 177.91,-305.91C180.13,-300.42 180.70,-293.67 179.94,-288.08L165.17,-179.32L140.65,-182.65L154.93,-287.77C155.62,-292.87 152.80,-293.99 149.89,-294.39C147.22,-294.75 145.57,-293.49 143.64,-292.02C142.78,-291.15 141.92,-290.28 141.02,-289.16ZM208.34,-355.18L232.86,-351.85L229.53,-327.33L205.01,-330.66ZM184.10,-176.75L202.14,-309.54L226.66,-306.21L208.62,-173.42ZM252.56,-167.45L228.04,-170.78L246.08,-303.57L270.60,-300.24L269.09,-289.08C269.60,-289.25 270.71,-290.09 272.36,-291.35C275.40,-293.66 279.53,-296.81 284.23,-298.64C286.58,-299.56 288.59,-299.78 290.77,-299.48C297.33,-298.59 301.41,-294.08 303.67,-288.83C305.89,-283.34 306.45,-276.58 305.70,-271.00L290.92,-162.24L266.40,-165.57L280.68,-270.69C281.37,-275.79 278.56,-276.91 275.65,-277.31C272.98,-277.67 271.32,-276.41 269.39,-274.94C268.53,-274.07 267.67,-273.20 266.78,-272.08ZM378.53,-215.61C376.12,-203.33 370.56,-195.18 361.17,-189.78C356.34,-186.98 350.04,-186.10 342.52,-187.12C341.79,-187.22 341.06,-187.32 340.33,-187.42C339.60,-187.52 338.63,-187.65 337.94,-187.99C335.49,-186.35 334.01,-184.57 333.71,-182.39C333.32,-179.47 335.51,-177.44 339.02,-175.98C342.50,-174.27 346.77,-172.95 351.29,-171.59C358.92,-169.57 366.91,-166.50 373.08,-160.97C379.01,-155.46 382.67,-147.80 381.09,-136.14C379.34,-123.28 372.57,-115.30 364.11,-111.25C355.40,-107.24 344.42,-106.51 334.47,-107.86C322.85,-109.69 313.13,-112.74 306.86,-117.55C300.34,-122.39 297.32,-129.23 298.64,-138.94C299.26,-143.55 302.22,-147.10 306.32,-150.01C310.42,-152.91 315.64,-154.92 320.55,-156.48C312.84,-159.76 306.73,-165.78 308.15,-176.22C308.68,-180.10 311.39,-183.69 314.80,-186.93C318.21,-190.18 322.24,-192.60 326.15,-194.05C319.74,-199.61 317.33,-207.36 316.45,-213.66C315.97,-217.43 315.74,-221.17 315.99,-224.85L320.91,-261.02C323.56,-273.27 328.66,-281.73 338.12,-287.61C342.74,-290.69 349.04,-291.57 356.56,-290.55C368.95,-288.86 375.71,-282.26 379.44,-275.08C381.37,-276.54 384.68,-279.06 388.92,-281.20C392.93,-283.38 397.35,-285.00 401.23,-284.48L398.27,-262.63C391.71,-263.52 386.69,-262.96 383.55,-261.66C383.63,-260.41 383.70,-259.17 383.85,-258.41C383.72,-257.43 383.58,-256.46 383.73,-255.70C383.87,-254.94 383.74,-253.97 383.64,-253.24ZM359.38,-254.81C360.00,-259.42 359.43,-262.46 357.85,-265.40C357.04,-266.74 355.68,-267.67 353.50,-267.97C349.61,-268.49 347.24,-265.60 346.12,-262.79C345.40,-261.16 344.86,-259.00 344.81,-256.79L339.86,-220.37C338.99,-215.79 339.33,-212.78 341.18,-210.05C341.99,-208.71 343.34,-207.78 345.29,-207.52C349.41,-206.96 351.51,-209.64 352.88,-212.42C353.59,-214.05 354.13,-216.21 354.43,-218.39ZM333.55,-150.27C328.06,-148.05 323.68,-144.93 322.99,-139.83C322.30,-134.73 326.35,-129.98 337.76,-128.43C341.89,-127.87 346.60,-127.97 350.44,-128.93C354.28,-129.90 357.24,-131.72 357.67,-134.87C357.97,-137.06 357.96,-138.79 356.49,-140.72C354.78,-142.69 351.79,-144.33 345.85,-146.12Z" fill="#ffffff" stroke="#000000"/>
    <path d="M-392.52,-279.63L-330.30,-448.82L-298.95,-442.38L-308.43,-262.37L-333.37,-267.49L-330.81,-304.10L-355.51,-309.17L-367.58,-274.51ZM-324.86,-388.53L-324.64,-393.19L-326.07,-393.48L-327.71,-389.12L-346.39,-335.52L-328.81,-331.91ZM-259.97,-252.42L-224.12,-427.01L-201.56,-422.38C-186.35,-419.26 -175.06,-413.97 -168.73,-404.99C-162.41,-396.02 -160.71,-383.79 -164.27,-366.45C-165.98,-358.14 -167.96,-352.11 -171.74,-346.94C-175.53,-341.78 -180.54,-337.85 -187.60,-333.61C-181.92,-328.73 -178.53,-321.10 -177.02,-309.16C-176.25,-303.31 -176.76,-295.98 -178.56,-287.19C-181.25,-274.13 -186.01,-262.98 -193.80,-255.17C-201.60,-247.36 -213.03,-243.52 -228.38,-245.93ZM-213.25,-349.77C-211.11,-349.33 -206.17,-348.07 -201.31,-350.04C-196.45,-352.01 -191.95,-357.03 -189.46,-369.15C-186.97,-381.26 -189.13,-387.65 -192.82,-391.37C-196.51,-395.10 -201.55,-395.89 -203.69,-396.33ZM-229.10,-272.57C-226.96,-272.13 -222.07,-270.63 -217.16,-272.84C-212.25,-275.05 -207.51,-281.26 -204.58,-295.51C-201.66,-309.76 -203.57,-317.33 -207.21,-321.30C-210.85,-325.26 -215.94,-325.81 -218.07,-326.25ZM-103.85,-268.88L-106.92,-253.92C-110.22,-241.47 -115.82,-233.46 -125.79,-228.33C-130.80,-225.65 -137.08,-225.20 -144.92,-226.81C-160.36,-229.98 -166.44,-240.14 -168.48,-249.48C-169.60,-254.90 -169.85,-260.90 -168.77,-267.36L-155.36,-332.68C-152.06,-345.13 -146.12,-353.56 -136.11,-358.93C-131.34,-361.67 -125.06,-362.11 -117.22,-360.50C-101.78,-357.33 -95.69,-347.17 -93.60,-338.08C-92.49,-332.65 -92.18,-326.89 -93.21,-320.67L-100.97,-282.90L-140.64,-291.04L-146.44,-262.78C-147.23,-257.74 -146.54,-253.88 -144.94,-250.83C-143.99,-249.40 -142.47,-248.34 -140.34,-247.91C-135.82,-246.98 -133.10,-249.39 -131.42,-252.76C-130.32,-254.51 -129.64,-256.60 -129.10,-259.21L-126.18,-273.47ZM-136.79,-309.81L-119.45,-306.25L-115.69,-324.54C-114.67,-329.53 -114.88,-333.29 -116.67,-336.62C-117.62,-338.06 -119.37,-339.16 -121.51,-339.60C-126.02,-340.52 -128.56,-337.83 -130.48,-334.51C-131.58,-332.75 -132.26,-330.66 -133.03,-328.10ZM-25.47,-269.62C-28.67,-257.65 -34.70,-249.98 -44.33,-245.27C-49.29,-242.83 -55.57,-242.38 -62.93,-243.89C-63.64,-244.04 -64.36,-244.19 -65.07,-244.33C-65.78,-244.48 -66.73,-244.67 -67.40,-245.06C-69.92,-243.60 -71.50,-241.94 -71.94,-239.80C-72.53,-236.95 -70.49,-234.80 -67.12,-233.12C-63.81,-231.20 -59.68,-229.61 -55.31,-227.97C-47.90,-225.46 -40.22,-221.90 -34.49,-216.02C-29.00,-210.19 -25.91,-202.38 -28.25,-190.97C-30.83,-178.38 -38.05,-170.95 -46.68,-167.53C-55.54,-164.15 -66.43,-164.16 -76.17,-166.16C-87.52,-168.73 -96.92,-172.40 -102.79,-177.56C-108.90,-182.78 -111.43,-189.74 -109.48,-199.24C-108.56,-203.75 -105.40,-207.06 -101.15,-209.66C-96.91,-212.25 -91.62,-213.89 -86.67,-215.10C-94.07,-218.85 -99.70,-225.20 -97.60,-235.42C-96.82,-239.22 -93.90,-242.58 -90.32,-245.56C-86.73,-248.53 -82.59,-250.65 -78.63,-251.82C-84.60,-257.75 -86.46,-265.56 -86.90,-271.84C-87.12,-275.60 -87.10,-279.31 -86.61,-282.92L-79.34,-318.31C-75.90,-330.23 -70.30,-338.24 -60.57,-343.42C-55.80,-346.16 -49.52,-346.60 -42.15,-345.09C-30.04,-342.60 -23.80,-335.63 -20.60,-328.28C-18.60,-329.61 -15.16,-331.87 -10.82,-333.70C-6.72,-335.59 -2.25,-336.89 1.55,-336.11L-2.84,-314.73C-9.25,-316.05 -14.24,-315.84 -17.44,-314.76C-17.44,-313.53 -17.45,-312.29 -17.36,-311.53C-17.55,-310.58 -17.75,-309.63 -17.66,-308.87C-17.56,-308.10 -17.76,-307.15 -17.91,-306.44ZM-41.76,-309.61C-40.84,-314.12 -41.20,-317.17 -42.57,-320.17C-43.27,-321.55 -44.55,-322.56 -46.69,-323.00C-50.49,-323.78 -53.02,-321.08 -54.32,-318.38C-55.14,-316.81 -55.82,-314.72 -56.02,-312.53L-63.33,-276.90C-64.50,-272.44 -64.37,-269.44 -62.72,-266.63C-62.01,-265.24 -60.73,-264.24 -58.83,-263.85C-54.80,-263.02 -52.55,-265.53 -51.01,-268.18C-50.20,-269.75 -49.52,-271.84 -49.08,-273.98ZM-74.24,-208.09C-79.82,-206.27 -84.35,-203.48 -85.37,-198.50C-86.40,-193.51 -82.71,-188.54 -71.55,-186.25C-67.51,-185.42 -62.85,-185.21 -59.00,-185.90C-55.14,-186.59 -52.09,-188.20 -51.45,-191.28C-51.02,-193.42 -50.91,-195.13 -52.23,-197.14C-53.79,-199.19 -56.64,-201.01 -62.38,-203.18ZM20.07,-376.87L44.07,-371.95L39.14,-347.95L15.15,-352.88ZM-15.78,-202.28L10.90,-332.21L34.90,-327.29L8.22,-197.35ZM51.21,-188.52L27.22,-193.45L53.90,-323.39L77.89,-318.46L75.65,-307.53C76.17,-307.67 77.32,-308.43 79.03,-309.56C82.18,-311.64 86.48,-314.47 91.24,-315.97C93.62,-316.71 95.62,-316.80 97.76,-316.36C104.17,-315.04 107.91,-310.32 109.78,-304.98C111.61,-299.41 111.72,-292.70 110.59,-287.24L88.74,-180.82L64.75,-185.74L85.87,-288.60C86.90,-293.59 84.19,-294.89 81.34,-295.47C78.73,-296.01 77.01,-294.87 75.01,-293.55C74.10,-292.75 73.19,-291.95 72.23,-290.90ZM131.26,-172.09L107.27,-177.01L133.95,-306.95L157.94,-302.02L155.70,-291.09C156.22,-291.23 157.37,-291.99 159.09,-293.12C162.24,-295.20 166.53,-298.03 171.29,-299.53C173.68,-300.28 175.67,-300.36 177.81,-299.92C184.23,-298.61 187.96,-293.88 189.83,-288.54C191.66,-282.97 191.77,-276.26 190.65,-270.80L168.80,-164.38L144.80,-169.30L165.92,-272.16C166.95,-277.15 164.24,-278.45 161.39,-279.03C158.78,-279.57 157.06,-278.44 155.06,-277.12C154.15,-276.31 153.24,-275.51 152.29,-274.47ZM223.17,-335.17L247.17,-330.24L242.24,-306.25L218.25,-311.18ZM187.32,-160.57L214.00,-290.51L238.00,-285.58L211.32,-155.65ZM254.31,-146.82L230.32,-151.75L257.00,-281.68L280.99,-276.76L278.75,-265.83C279.27,-265.97 280.42,-266.72 282.13,-267.86C285.28,-269.93 289.58,-272.76 294.34,-274.26C296.72,-275.01 298.72,-275.10 300.86,-274.66C307.27,-273.34 311.01,-268.61 312.88,-263.28C314.71,-257.70 314.82,-251.00 313.69,-245.53L291.84,-139.11L267.85,-144.04L288.97,-246.90C290.00,-251.88 287.29,-253.18 284.44,-253.77C281.83,-254.30 280.11,-253.17 278.11,-251.85C277.20,-251.05 276.29,-250.24 275.33,-249.20ZM381.92,-185.97C378.72,-174.00 372.69,-166.33 363.06,-161.62C358.10,-159.18 351.82,-158.73 344.46,-160.25C343.74,-160.39 343.03,-160.54 342.32,-160.68C341.61,-160.83 340.66,-161.03 339.99,-161.41C337.46,-159.95 335.89,-158.29 335.45,-156.15C334.86,-153.30 336.90,-151.15 340.26,-149.47C343.58,-147.55 347.71,-145.96 352.08,-144.32C359.49,-141.81 367.17,-138.25 372.90,-132.37C378.38,-126.54 381.48,-118.73 379.14,-107.32C376.56,-94.74 369.34,-87.31 360.71,-83.88C351.85,-80.50 340.96,-80.51 331.22,-82.51C319.86,-85.09 310.47,-88.75 304.60,-93.91C298.49,-99.13 295.95,-106.09 297.91,-115.59C298.83,-120.10 301.99,-123.41 306.23,-126.01C310.48,-128.60 315.77,-130.24 320.72,-131.45C313.32,-135.20 307.69,-141.55 309.79,-151.77C310.57,-155.57 313.49,-158.93 317.07,-161.91C320.65,-164.89 324.80,-167.00 328.76,-168.17C322.79,-174.10 320.93,-181.91 320.49,-188.19C320.27,-191.95 320.29,-195.66 320.78,-199.27L328.05,-234.66C331.49,-246.58 337.09,-254.59 346.82,-259.77C351.59,-262.51 357.87,-262.95 365.23,-261.44C377.35,-258.95 383.59,-251.98 386.79,-244.64C388.79,-245.96 392.23,-248.22 396.57,-250.05C400.66,-251.94 405.14,-253.24 408.94,-252.46L404.55,-231.09C398.14,-232.40 393.14,-232.19 389.95,-231.11C389.95,-229.88 389.94,-228.64 390.03,-227.88C389.84,-226.93 389.64,-225.98 389.73,-225.22C389.82,-224.46 389.63,-223.50 389.48,-222.79ZM365.62,-225.96C366.55,-230.47 366.19,-233.52 364.82,-236.52C364.12,-237.90 362.84,-238.91 360.70,-239.35C356.90,-240.13 354.36,-237.43 353.07,-234.73C352.25,-233.16 351.57,-231.07 351.37,-228.88L344.05,-193.25C342.89,-188.79 343.02,-185.79 344.67,-182.98C345.37,-181.59 346.65,-180.59 348.55,-180.20C352.59,-179.37 354.84,-181.88 356.38,-184.53C357.19,-186.10 357.87,-188.19 358.31,-190.33ZM333.14,-124.44C327.57,-122.62 323.04,-119.83 322.01,-114.85C320.99,-109.86 324.67,-104.89 335.84,-102.60C339.88,-101.77 344.54,-101.56 348.39,-102.25C352.25,-102.94 355.30,-104.55 355.93,-107.63C356.37,-109.77 356.48,-111.48 355.16,-113.49C353.60,-115.54 350.75,-117.36 345.01,-119.53Z" fill="#ffffff" stroke="#000000"/>
    <path d="M-375.24,-301.09L-302.51,-463.99L-271.98,-455.54L-293.36,-278.42L-317.65,-285.15L-312.67,-321.12L-336.73,-327.78L-350.95,-294.36ZM-301.16,-404.10L-300.64,-408.68L-302.02,-409.07L-303.93,-404.87L-325.96,-353.19L-308.84,-348.45ZM-246.17,-265.36L-199.12,-435.37L-177.15,-429.29C-162.34,-425.19 -151.54,-419.22 -145.90,-409.93C-140.25,-400.65 -139.39,-388.46 -144.06,-371.57C-146.30,-363.48 -148.66,-357.66 -152.74,-352.81C-156.82,-347.96 -162.04,-344.42 -169.29,-340.70C-164.01,-335.51 -161.17,-327.75 -160.48,-315.85C-160.10,-310.02 -161.10,-302.83 -163.47,-294.27C-166.99,-281.55 -172.44,-270.85 -180.65,-263.66C-188.87,-256.47 -200.42,-253.44 -215.41,-256.85ZM-193.54,-358.37C-191.45,-357.80 -186.66,-356.22 -181.73,-357.84C-176.80,-359.47 -172.02,-364.12 -168.76,-375.92C-165.49,-387.71 -167.19,-394.16 -170.59,-398.09C-173.99,-402.02 -178.91,-403.13 -180.99,-403.71ZM-214.34,-283.20C-212.26,-282.62 -207.53,-280.81 -202.54,-282.67C-197.54,-284.52 -192.45,-290.34 -188.60,-304.21C-184.76,-318.09 -186.14,-325.70 -189.48,-329.86C-192.81,-334.01 -197.79,-334.90 -199.87,-335.47ZM-90.91,-271.20L-94.94,-256.63C-99.03,-244.56 -105.10,-237.02 -115.29,-232.62C-120.41,-230.30 -126.64,-230.29 -134.27,-232.40C-149.31,-236.56 -154.64,-247.00 -156.03,-256.35C-156.77,-261.78 -156.62,-267.72 -155.12,-274.03L-137.52,-337.64C-133.43,-349.70 -127.00,-357.64 -116.75,-362.27C-111.86,-364.65 -105.63,-364.67 -98.00,-362.56C-82.96,-358.40 -77.63,-347.96 -76.17,-338.84C-75.44,-333.40 -75.52,-327.70 -76.96,-321.62L-87.13,-284.84L-125.76,-295.54L-133.38,-268.01C-134.49,-263.09 -134.07,-259.24 -132.69,-256.12C-131.85,-254.64 -130.43,-253.50 -128.34,-252.92C-123.95,-251.70 -121.10,-253.90 -119.21,-257.12C-118.01,-258.78 -117.20,-260.79 -116.50,-263.34L-112.65,-277.22ZM-120.70,-313.81L-103.82,-309.14L-98.89,-326.95C-97.55,-331.80 -97.51,-335.53 -99.05,-338.94C-99.89,-340.42 -101.55,-341.63 -103.63,-342.20C-108.03,-343.42 -110.71,-340.93 -112.83,-337.78C-114.03,-336.12 -114.84,-334.10 -115.77,-331.62ZM-13.47,-266.70C-17.43,-255.09 -23.89,-247.92 -33.72,-243.91C-38.78,-241.83 -45.01,-241.81 -52.18,-243.79C-52.87,-243.98 -53.57,-244.18 -54.26,-244.37C-54.95,-244.56 -55.88,-244.82 -56.51,-245.24C-59.10,-243.97 -60.77,-242.44 -61.35,-240.35C-62.12,-237.58 -60.25,-235.32 -57.04,-233.43C-53.89,-231.32 -49.92,-229.47 -45.71,-227.56C-38.57,-224.59 -31.22,-220.56 -25.96,-214.37C-20.93,-208.25 -18.39,-200.32 -21.46,-189.22C-24.86,-176.96 -32.48,-170.11 -41.23,-167.30C-50.20,-164.55 -60.96,-165.29 -70.44,-167.91C-81.48,-171.22 -90.51,-175.46 -95.97,-180.96C-101.65,-186.51 -103.69,-193.55 -101.13,-202.80C-99.91,-207.20 -96.57,-210.26 -92.21,-212.54C-87.84,-214.82 -82.51,-216.08 -77.54,-216.94C-84.60,-221.14 -89.73,-227.79 -86.98,-237.74C-85.95,-241.44 -82.84,-244.56 -79.11,-247.26C-75.37,-249.96 -71.14,-251.78 -67.15,-252.67C-72.64,-258.92 -73.96,-266.76 -73.98,-272.99C-73.95,-276.71 -73.68,-280.37 -72.95,-283.91L-63.41,-318.37C-59.22,-329.91 -53.15,-337.45 -43.20,-341.91C-38.31,-344.29 -32.08,-344.31 -24.91,-342.33C-13.11,-339.06 -7.41,-331.76 -4.75,-324.30C-2.68,-325.47 0.87,-327.47 5.27,-328.99C9.44,-330.58 13.95,-331.57 17.65,-330.55L11.89,-309.73C5.65,-311.46 0.70,-311.58 -2.52,-310.73C-2.61,-309.51 -2.70,-308.29 -2.66,-307.53C-2.92,-306.61 -3.17,-305.68 -3.13,-304.92C-3.09,-304.17 -3.35,-303.24 -3.54,-302.55ZM-26.89,-307.27C-25.67,-311.66 -25.83,-314.69 -26.98,-317.75C-27.58,-319.16 -28.78,-320.24 -30.86,-320.82C-34.56,-321.84 -37.24,-319.35 -38.71,-316.76C-39.62,-315.27 -40.42,-313.25 -40.77,-311.11L-50.37,-276.41C-51.82,-272.08 -51.89,-269.11 -50.45,-266.22C-49.85,-264.81 -48.65,-263.73 -46.80,-263.22C-42.87,-262.13 -40.48,-264.46 -38.79,-266.98C-37.88,-268.47 -37.07,-270.49 -36.49,-272.57ZM-65.74,-209.20C-71.36,-207.76 -76.03,-205.32 -77.37,-200.46C-78.71,-195.60 -75.41,-190.46 -64.54,-187.45C-60.60,-186.36 -56.02,-185.84 -52.16,-186.26C-48.31,-186.69 -45.19,-188.07 -44.36,-191.08C-43.78,-193.16 -43.56,-194.84 -44.74,-196.91C-46.14,-199.04 -48.82,-201.03 -54.35,-203.55ZM38.66,-369.56L62.02,-363.09L55.56,-339.73L32.20,-346.20ZM-8.39,-199.55L26.63,-326.07L49.99,-319.61L14.97,-193.08ZM56.83,-181.50L33.47,-187.96L68.49,-314.49L91.85,-308.02L88.91,-297.38C89.43,-297.48 90.62,-298.15 92.39,-299.16C95.64,-301.00 100.07,-303.50 104.87,-304.67C107.27,-305.25 109.25,-305.20 111.33,-304.62C117.58,-302.89 120.95,-297.97 122.44,-292.58C123.87,-286.95 123.53,-280.32 122.06,-275.00L93.38,-171.38L70.02,-177.85L97.74,-278.00C99.08,-282.86 96.50,-284.32 93.72,-285.09C91.18,-285.79 89.41,-284.79 87.34,-283.62C86.39,-282.89 85.44,-282.15 84.43,-281.19ZM134.78,-159.92L111.42,-166.39L146.44,-292.91L169.80,-286.44L166.86,-275.80C167.38,-275.91 168.57,-276.58 170.34,-277.58C173.59,-279.42 178.02,-281.93 182.82,-283.09C185.22,-283.67 187.20,-283.62 189.28,-283.04C195.53,-281.32 198.90,-276.40 200.39,-271.00C201.82,-265.38 201.48,-258.75 200.01,-253.43L171.33,-149.81L147.97,-156.27L175.69,-256.43C177.03,-261.28 174.45,-262.75 171.67,-263.51C169.13,-264.22 167.36,-263.21 165.29,-262.04C164.34,-261.31 163.39,-260.58 162.38,-259.61ZM236.43,-314.82L259.79,-308.35L253.32,-284.99L229.96,-291.46ZM189.37,-144.81L224.39,-271.34L247.75,-264.87L212.73,-138.35ZM254.60,-126.76L231.24,-133.22L266.26,-259.75L289.62,-253.28L286.67,-242.64C287.20,-242.74 288.38,-243.41 290.15,-244.42C293.40,-246.26 297.83,-248.77 302.63,-249.93C305.04,-250.51 307.01,-250.46 309.10,-249.88C315.34,-248.15 318.71,-243.24 320.21,-237.84C321.64,-232.22 321.30,-225.59 319.83,-220.27L291.14,-116.64L267.78,-123.11L295.50,-223.26C296.85,-228.12 294.26,-229.58 291.49,-230.35C288.94,-231.06 287.17,-230.05 285.11,-228.88C284.16,-228.15 283.21,-227.41 282.19,-226.45ZM383.22,-156.90C379.26,-145.30 372.79,-138.12 362.97,-134.12C357.91,-132.03 351.68,-132.01 344.51,-134.00C343.81,-134.19 343.12,-134.38 342.43,-134.57C341.73,-134.77 340.81,-135.02 340.18,-135.45C337.58,-134.17 335.91,-132.64 335.34,-130.56C334.57,-127.78 336.43,-125.52 339.65,-123.64C342.80,-121.52 346.77,-119.68 350.97,-117.76C358.12,-114.79 365.47,-110.76 370.73,-104.58C375.76,-98.45 378.30,-90.53 375.22,-79.43C371.83,-67.17 364.21,-60.31 355.46,-57.50C346.48,-54.76 335.73,-55.49 326.24,-58.12C315.21,-61.42 306.17,-65.67 300.72,-71.16C295.04,-76.72 293.00,-83.76 295.56,-93.01C296.78,-97.40 300.11,-100.46 304.48,-102.74C308.85,-105.02 314.18,-106.28 319.15,-107.15C312.09,-111.34 306.96,-117.99 309.71,-127.94C310.73,-131.64 313.84,-134.77 317.58,-137.47C321.31,-140.17 325.55,-141.98 329.53,-142.87C324.04,-149.12 322.72,-156.96 322.70,-163.19C322.74,-166.92 323.01,-170.58 323.74,-174.11L333.27,-208.58C337.46,-220.12 343.53,-227.65 353.49,-232.12C358.38,-234.50 364.61,-234.52 371.78,-232.53C383.58,-229.27 389.27,-221.96 391.94,-214.50C394.01,-215.67 397.55,-217.68 401.96,-219.20C406.13,-220.78 410.64,-221.78 414.34,-220.75L408.58,-199.94C402.33,-201.66 397.39,-201.79 394.16,-200.94C394.07,-199.72 393.99,-198.50 394.02,-197.74C393.77,-196.81 393.51,-195.89 393.55,-195.13C393.59,-194.37 393.33,-193.45 393.14,-192.75ZM369.80,-197.47C371.01,-201.87 370.85,-204.90 369.71,-207.95C369.10,-209.37 367.91,-210.45 365.83,-211.02C362.13,-212.05 359.44,-209.55 357.98,-206.97C357.07,-205.48 356.26,-203.46 355.92,-201.31L346.31,-166.62C344.87,-162.29 344.79,-159.32 346.23,-156.43C346.84,-155.02 348.03,-153.94 349.88,-153.43C353.82,-152.34 356.20,-154.67 357.90,-157.19C358.81,-158.68 359.62,-160.69 360.19,-162.78ZM330.95,-99.40C325.32,-97.97 320.66,-95.52 319.32,-90.67C317.97,-85.81 321.28,-80.66 332.15,-77.65C336.08,-76.56 340.67,-76.04 344.52,-76.47C348.38,-76.90 351.50,-78.27 352.33,-81.28C352.90,-83.36 353.12,-85.05 351.95,-87.11C350.55,-89.24 347.86,-91.23 342.33,-93.76Z" fill="#ffffff" stroke="#000000"/>
    <path d="M-356.71,-321.52L-274.03,-477.50L-244.45,-467.12L-277.38,-293.68L-300.91,-301.93L-293.59,-337.12L-316.90,-345.30L-333.18,-313.26ZM-276.69,-418.28L-275.87,-422.77L-277.21,-423.24L-279.38,-419.22L-304.57,-369.67L-287.99,-363.85ZM-231.66,-277.63L-173.86,-442.34L-152.57,-434.87C-138.22,-429.84 -127.96,-423.22 -123.01,-413.68C-118.05,-404.13 -118.01,-392.04 -123.76,-375.68C-126.51,-367.84 -129.23,-362.25 -133.58,-357.73C-137.93,-353.22 -143.31,-350.07 -150.73,-346.89C-145.85,-341.40 -143.57,-333.55 -143.69,-321.76C-143.70,-315.98 -145.16,-308.94 -148.07,-300.65C-152.40,-288.32 -158.50,-278.13 -167.09,-271.58C-175.68,-265.03 -187.28,-262.81 -201.86,-267.17ZM-173.48,-365.95C-171.47,-365.24 -166.84,-363.36 -161.86,-364.64C-156.88,-365.91 -151.86,-370.19 -147.85,-381.62C-143.84,-393.05 -145.09,-399.53 -148.18,-403.63C-151.27,-407.74 -156.05,-409.16 -158.07,-409.87ZM-199.05,-293.12C-197.03,-292.41 -192.48,-290.31 -187.42,-291.81C-182.37,-293.30 -176.95,-298.70 -172.23,-312.15C-167.51,-325.59 -168.37,-333.19 -171.38,-337.52C-174.39,-341.85 -179.25,-343.05 -181.27,-343.76ZM-77.98,-273.03L-82.93,-258.91C-87.77,-247.27 -94.27,-240.24 -104.62,-236.57C-109.83,-234.62 -115.99,-235.02 -123.38,-237.62C-137.95,-242.73 -142.51,-253.39 -143.27,-262.72C-143.63,-268.13 -143.09,-273.98 -141.19,-280.11L-119.56,-341.74C-114.72,-353.38 -107.84,-360.78 -97.41,-364.67C-92.43,-366.70 -86.27,-366.30 -78.88,-363.70C-64.31,-358.59 -59.75,-347.93 -58.91,-338.83C-58.55,-333.41 -59.01,-327.79 -60.83,-321.88L-73.34,-286.25L-110.76,-299.38L-120.12,-272.72C-121.55,-267.93 -121.39,-264.10 -120.23,-260.93C-119.51,-259.41 -118.17,-258.19 -116.16,-257.48C-111.90,-255.99 -108.94,-257.97 -106.86,-261.02C-105.56,-262.57 -104.63,-264.51 -103.76,-266.98L-99.04,-280.42ZM-104.55,-317.09L-88.19,-311.35L-82.13,-328.60C-80.48,-333.31 -80.20,-336.98 -81.50,-340.46C-82.22,-341.97 -83.78,-343.28 -85.80,-343.98C-90.06,-345.48 -92.87,-343.19 -95.17,-340.23C-96.47,-338.67 -97.40,-336.73 -98.49,-334.34ZM-1.82,-263.41C-6.50,-252.22 -13.36,-245.57 -23.33,-242.27C-28.47,-240.55 -34.62,-240.95 -41.57,-243.38C-42.24,-243.62 -42.91,-243.86 -43.58,-244.09C-44.26,-244.33 -45.15,-244.64 -45.75,-245.10C-48.39,-244.02 -50.14,-242.62 -50.85,-240.60C-51.79,-237.91 -50.10,-235.56 -47.06,-233.48C-44.09,-231.18 -40.29,-229.09 -36.27,-226.93C-29.41,-223.51 -22.42,-219.05 -17.64,-212.59C-13.08,-206.21 -11.11,-198.21 -14.88,-187.46C-19.05,-175.58 -27.04,-169.32 -35.86,-167.13C-44.91,-165.02 -55.47,-166.46 -64.66,-169.69C-75.34,-173.69 -83.98,-178.48 -88.99,-184.27C-94.23,-190.13 -95.78,-197.22 -92.63,-206.18C-91.13,-210.44 -87.64,-213.24 -83.17,-215.20C-78.71,-217.16 -73.36,-218.05 -68.40,-218.57C-75.08,-223.18 -79.71,-230.09 -76.33,-239.73C-75.07,-243.31 -71.79,-246.19 -67.92,-248.61C-64.05,-251.03 -59.75,-252.54 -55.76,-253.15C-60.76,-259.69 -61.54,-267.51 -61.14,-273.66C-60.86,-277.34 -60.35,-280.94 -59.40,-284.38L-47.68,-317.77C-42.77,-328.88 -36.28,-335.92 -26.15,-339.66C-21.16,-341.69 -15.01,-341.29 -8.06,-338.85C3.37,-334.84 8.51,-327.25 10.64,-319.70C12.76,-320.72 16.39,-322.47 20.84,-323.67C25.07,-324.96 29.59,-325.64 33.17,-324.38L26.09,-304.21C20.04,-306.33 15.17,-306.79 11.93,-306.16C11.76,-304.96 11.59,-303.76 11.58,-303.01C11.26,-302.12 10.95,-301.22 10.94,-300.47C10.93,-299.72 10.61,-298.82 10.38,-298.15ZM-12.36,-304.37C-10.87,-308.62 -10.82,-311.63 -11.75,-314.72C-12.25,-316.16 -13.36,-317.30 -15.38,-318.01C-18.96,-319.27 -21.78,-316.98 -23.39,-314.53C-24.39,-313.12 -25.32,-311.18 -25.81,-309.09L-37.60,-275.47C-39.32,-271.29 -39.59,-268.37 -38.36,-265.42C-37.86,-263.98 -36.75,-262.84 -34.96,-262.21C-31.15,-260.87 -28.64,-263.01 -26.80,-265.39C-25.80,-266.80 -24.87,-268.74 -24.16,-270.75ZM-57.26,-210.13C-62.91,-209.09 -67.68,-206.99 -69.33,-202.29C-70.98,-197.58 -68.06,-192.28 -57.53,-188.58C-53.72,-187.24 -49.23,-186.42 -45.39,-186.58C-41.56,-186.75 -38.39,-187.90 -37.36,-190.81C-36.66,-192.83 -36.33,-194.48 -37.35,-196.60C-38.59,-198.80 -41.11,-200.94 -46.40,-203.80ZM56.52,-361.49L79.15,-353.55L71.21,-330.92L48.57,-338.86ZM-1.29,-196.78L41.73,-319.36L64.37,-311.42L21.34,-188.84ZM61.91,-174.60L39.27,-182.54L82.29,-305.13L104.93,-297.18L101.31,-286.87C101.84,-286.94 103.05,-287.52 104.86,-288.40C108.19,-290.00 112.74,-292.18 117.56,-293.00C119.97,-293.42 121.92,-293.23 123.93,-292.53C129.98,-290.40 132.98,-285.32 134.10,-279.90C135.14,-274.25 134.36,-267.73 132.55,-262.57L97.31,-162.17L74.68,-170.12L108.74,-267.15C110.39,-271.86 107.93,-273.48 105.24,-274.42C102.78,-275.28 100.96,-274.41 98.84,-273.39C97.86,-272.73 96.87,-272.07 95.80,-271.19ZM137.43,-148.10L114.79,-156.04L157.82,-278.62L180.45,-270.68L176.83,-260.37C177.36,-260.44 178.57,-261.02 180.39,-261.89C183.72,-263.49 188.26,-265.67 193.08,-266.50C195.49,-266.91 197.44,-266.73 199.45,-266.02C205.51,-263.90 208.50,-258.82 209.62,-253.39C210.66,-247.74 209.88,-241.22 208.07,-236.07L172.84,-135.67L150.20,-143.61L184.26,-240.65C185.91,-245.35 183.46,-246.97 180.77,-247.91C178.30,-248.78 176.48,-247.91 174.37,-246.89C173.38,-246.23 172.39,-245.57 171.33,-244.68ZM248.12,-294.25L270.76,-286.30L262.81,-263.67L240.18,-271.61ZM190.32,-129.53L233.34,-252.12L255.97,-244.17L212.95,-121.59ZM253.51,-107.36L230.88,-115.30L273.90,-237.88L296.53,-229.94L292.91,-219.63C293.44,-219.70 294.65,-220.28 296.47,-221.15C299.80,-222.75 304.34,-224.93 309.16,-225.76C311.57,-226.17 313.52,-225.99 315.54,-225.28C321.59,-223.16 324.59,-218.08 325.70,-212.65C326.74,-207.00 325.96,-200.48 324.15,-195.33L288.92,-94.93L266.29,-102.87L300.34,-199.91C301.99,-204.61 299.54,-206.23 296.85,-207.17C294.38,-208.04 292.57,-207.17 290.45,-206.15C289.46,-205.49 288.47,-204.83 287.41,-203.94ZM382.52,-128.53C377.83,-117.34 370.97,-110.69 361.00,-107.39C355.86,-105.67 349.71,-106.06 342.76,-108.50C342.09,-108.74 341.42,-108.97 340.75,-109.21C340.08,-109.45 339.18,-109.76 338.59,-110.22C335.94,-109.14 334.19,-107.74 333.48,-105.72C332.54,-103.03 334.23,-100.67 337.28,-98.60C340.24,-96.30 344.04,-94.21 348.06,-92.04C354.92,-88.63 361.91,-84.16 366.69,-77.70C371.25,-71.32 373.22,-63.33 369.45,-52.57C365.28,-40.69 357.29,-34.44 348.47,-32.25C339.42,-30.14 328.86,-31.58 319.67,-34.80C308.99,-38.80 300.35,-43.60 295.34,-49.38C290.10,-55.25 288.56,-62.34 291.70,-71.30C293.20,-75.56 296.70,-78.36 301.16,-80.31C305.62,-82.27 310.97,-83.16 315.93,-83.69C309.25,-88.30 304.62,-95.21 308.00,-104.84C309.26,-108.43 312.54,-111.31 316.41,-113.72C320.28,-116.14 324.58,-117.65 328.57,-118.26C323.57,-124.80 322.79,-132.63 323.19,-138.78C323.47,-142.46 323.98,-146.05 324.93,-149.49L336.65,-182.89C341.56,-194.00 348.06,-201.03 358.18,-204.78C363.17,-206.80 369.32,-206.41 376.27,-203.97C387.70,-199.96 392.84,-192.36 394.97,-184.82C397.09,-185.84 400.72,-187.58 405.17,-188.79C409.40,-190.07 413.92,-190.75 417.50,-189.50L410.42,-169.33C404.37,-171.45 399.50,-171.90 396.26,-171.28C396.09,-170.08 395.92,-168.88 395.91,-168.13C395.59,-167.23 395.28,-166.34 395.27,-165.59C395.26,-164.83 394.94,-163.94 394.71,-163.27ZM371.97,-169.48C373.46,-173.74 373.51,-176.75 372.58,-179.84C372.08,-181.27 370.97,-182.42 368.95,-183.13C365.37,-184.39 362.55,-182.10 360.94,-179.65C359.94,-178.24 359.01,-176.30 358.52,-174.20L346.73,-140.59C345.01,-136.41 344.74,-133.48 345.97,-130.53C346.47,-129.10 347.58,-127.96 349.37,-127.33C353.18,-125.99 355.69,-128.13 357.53,-130.50C358.53,-131.91 359.46,-133.85 360.17,-135.87ZM327.07,-75.25C321.42,-74.21 316.65,-72.11 315.00,-67.40C313.35,-62.70 316.27,-57.39 326.80,-53.70C330.61,-52.36 335.11,-51.54 338.94,-51.70C342.77,-51.87 345.95,-53.02 346.97,-55.93C347.68,-57.95 348.00,-59.60 346.98,-61.71C345.74,-63.91 343.22,-66.06 337.93,-68.92Z" fill="#ffffff" stroke="#000000"/>
    <path d="M-336.99,-340.85L-244.95,-489.32L-216.44,-477.10L-260.53,-308.07L-283.21,-317.79L-273.64,-352.04L-296.10,-361.67L-314.31,-331.12ZM-251.53,-431.03L-250.42,-435.41L-251.72,-435.97L-254.12,-432.14L-282.30,-384.90L-266.32,-378.05ZM-216.47,-289.18L-148.41,-447.93L-127.89,-439.13C-114.06,-433.20 -104.38,-425.98 -100.12,-416.23C-95.86,-406.48 -96.64,-394.54 -103.39,-378.77C-106.64,-371.21 -109.69,-365.87 -114.29,-361.71C-118.89,-357.54 -124.41,-354.80 -131.94,-352.14C-127.50,-346.40 -125.77,-338.50 -126.67,-326.87C-127.07,-321.16 -128.98,-314.31 -132.41,-306.32C-137.50,-294.44 -144.20,-284.78 -153.12,-278.89C-162.04,-273.00 -173.64,-271.58 -187.74,-276.86ZM-153.14,-372.48C-151.19,-371.65 -146.75,-369.49 -141.75,-370.41C-136.75,-371.34 -131.51,-375.22 -126.78,-386.24C-122.06,-397.25 -122.86,-403.73 -125.64,-407.99C-128.42,-412.25 -133.04,-413.98 -134.99,-414.81ZM-183.23,-302.29C-181.29,-301.45 -176.94,-299.08 -171.85,-300.22C-166.76,-301.36 -161.05,-306.32 -155.49,-319.28C-149.93,-332.24 -150.27,-339.80 -152.96,-344.28C-155.64,-348.75 -160.36,-350.27 -162.30,-351.10ZM-65.05,-274.37L-70.89,-260.77C-76.44,-249.60 -83.33,-243.09 -93.79,-240.16C-99.06,-238.58 -105.11,-239.39 -112.24,-242.44C-126.28,-248.46 -130.07,-259.29 -130.19,-268.55C-130.19,-273.92 -129.27,-279.66 -126.98,-285.58L-101.52,-344.98C-95.96,-356.15 -88.68,-363.00 -78.12,-366.14C-73.06,-367.81 -67.02,-367.01 -59.89,-363.95C-45.85,-357.93 -42.06,-347.10 -41.84,-338.06C-41.84,-332.69 -42.68,-327.17 -44.87,-321.46L-59.59,-287.12L-95.66,-302.58L-106.68,-276.88C-108.41,-272.25 -108.50,-268.46 -107.58,-265.25C-106.96,-263.70 -105.73,-262.41 -103.78,-261.57C-99.68,-259.81 -96.62,-261.57 -94.37,-264.44C-92.98,-265.89 -91.93,-267.74 -90.91,-270.12L-85.36,-283.08ZM-88.35,-319.64L-72.58,-312.88L-65.45,-329.52C-63.50,-334.05 -62.98,-337.66 -64.03,-341.18C-64.64,-342.72 -66.09,-344.11 -68.04,-344.94C-72.14,-346.70 -75.07,-344.64 -77.54,-341.86C-78.93,-340.41 -79.98,-338.56 -81.21,-336.28ZM9.49,-259.80C4.12,-249.06 -3.10,-242.95 -13.16,-240.36C-18.34,-239.01 -24.39,-239.81 -31.09,-242.68C-31.73,-242.96 -32.38,-243.23 -33.03,-243.51C-33.68,-243.79 -34.54,-244.16 -35.10,-244.65C-37.78,-243.76 -39.60,-242.50 -40.44,-240.55C-41.55,-237.96 -40.03,-235.52 -37.17,-233.27C-34.39,-230.80 -30.78,-228.49 -26.95,-226.08C-20.41,-222.25 -13.81,-217.37 -9.52,-210.68C-5.45,-204.07 -4.03,-196.05 -8.48,-185.68C-13.38,-174.24 -21.68,-168.59 -30.54,-167.02C-39.61,-165.54 -49.95,-167.67 -58.80,-171.47C-69.08,-176.13 -77.29,-181.43 -81.85,-187.48C-86.63,-193.62 -87.68,-200.72 -83.98,-209.36C-82.22,-213.46 -78.58,-215.99 -74.04,-217.63C-69.51,-219.26 -64.17,-219.79 -59.23,-219.97C-65.52,-224.97 -69.63,-232.10 -65.65,-241.39C-64.16,-244.84 -60.74,-247.47 -56.76,-249.59C-52.78,-251.72 -48.43,-252.93 -44.44,-253.27C-48.95,-260.05 -49.19,-267.83 -48.39,-273.88C-47.87,-277.49 -47.13,-281.01 -45.95,-284.34L-32.15,-316.52C-26.57,-327.17 -19.69,-333.68 -9.44,-336.70C-4.38,-338.36 1.67,-337.56 8.36,-334.69C19.38,-329.97 23.94,-322.13 25.55,-314.54C27.71,-315.40 31.41,-316.88 35.89,-317.78C40.14,-318.76 44.65,-319.13 48.10,-317.65L39.77,-298.21C33.94,-300.71 29.16,-301.48 25.92,-301.08C25.67,-299.91 25.42,-298.74 25.36,-298.00C24.99,-297.13 24.62,-296.27 24.56,-295.53C24.50,-294.79 24.13,-293.93 23.85,-293.28ZM1.82,-300.93C3.58,-305.04 3.82,-308.00 3.11,-311.12C2.71,-312.57 1.69,-313.77 -0.25,-314.60C-3.70,-316.08 -6.64,-314.02 -8.40,-311.70C-9.48,-310.38 -10.53,-308.53 -11.14,-306.49L-25.03,-274.09C-27.01,-270.08 -27.47,-267.21 -26.45,-264.22C-26.05,-262.77 -25.03,-261.56 -23.31,-260.82C-19.63,-259.25 -17.01,-261.19 -15.04,-263.41C-13.96,-264.74 -12.91,-266.59 -12.07,-268.53ZM-48.80,-210.90C-54.45,-210.25 -59.29,-208.49 -61.24,-203.96C-63.18,-199.42 -60.65,-193.99 -50.50,-189.64C-46.83,-188.06 -42.45,-186.95 -38.65,-186.86C-34.86,-186.77 -31.65,-187.69 -30.44,-190.50C-29.61,-192.44 -29.18,-194.05 -30.04,-196.21C-31.12,-198.46 -33.47,-200.74 -38.50,-203.92ZM73.63,-352.73L95.44,-343.38L86.09,-321.56L64.28,-330.92ZM5.57,-193.98L56.22,-312.13L78.03,-302.77L27.38,-184.63ZM66.47,-167.87L44.66,-177.22L95.31,-295.37L117.13,-286.01L112.87,-276.08C113.39,-276.11 114.63,-276.60 116.48,-277.34C119.87,-278.70 124.50,-280.55 129.31,-281.04C131.72,-281.29 133.63,-280.98 135.58,-280.15C141.41,-277.65 144.03,-272.43 144.77,-267.00C145.42,-261.35 144.22,-254.97 142.09,-250.00L100.60,-153.24L78.79,-162.59L118.88,-256.11C120.83,-260.65 118.51,-262.41 115.92,-263.52C113.54,-264.54 111.69,-263.80 109.53,-262.93C108.51,-262.35 107.50,-261.76 106.39,-260.96ZM139.26,-136.66L117.45,-146.01L168.10,-264.16L189.91,-254.81L185.65,-244.87C186.18,-244.90 187.41,-245.39 189.27,-246.14C192.66,-247.49 197.29,-249.34 202.10,-249.84C204.51,-250.08 206.42,-249.77 208.37,-248.94C214.20,-246.44 216.82,-241.23 217.56,-235.79C218.21,-230.15 217.00,-223.76 214.87,-218.79L173.39,-122.03L151.57,-131.38L191.67,-224.91C193.61,-229.44 191.30,-231.20 188.71,-232.31C186.33,-233.33 184.48,-232.59 182.32,-231.73C181.30,-231.14 180.28,-230.55 179.17,-229.75ZM258.30,-273.56L280.11,-264.20L270.76,-242.39L248.94,-251.74ZM190.23,-114.81L240.89,-232.95L262.70,-223.60L212.05,-105.45ZM251.14,-88.69L229.33,-98.05L279.98,-216.19L301.80,-206.84L297.54,-196.90C298.06,-196.93 299.29,-197.43 301.15,-198.17C304.54,-199.52 309.17,-201.38 313.98,-201.87C316.39,-202.12 318.30,-201.81 320.25,-200.97C326.08,-198.47 328.70,-193.26 329.44,-187.83C330.09,-182.18 328.88,-175.79 326.75,-170.82L285.27,-74.06L263.45,-83.42L303.55,-176.94C305.49,-181.47 303.18,-183.23 300.59,-184.34C298.21,-185.36 296.36,-184.62 294.20,-183.76C293.18,-183.17 292.16,-182.59 291.05,-181.78ZM379.91,-100.99C374.54,-90.25 367.32,-84.14 357.26,-81.55C352.07,-80.19 346.03,-81.00 339.33,-83.87C338.68,-84.15 338.03,-84.42 337.39,-84.70C336.74,-84.98 335.88,-85.35 335.32,-85.84C332.64,-84.95 330.81,-83.68 329.98,-81.74C328.87,-79.15 330.38,-76.71 333.25,-74.46C336.03,-71.99 339.64,-69.67 343.46,-67.27C350.00,-63.44 356.61,-58.56 360.90,-51.87C364.97,-45.26 366.39,-37.24 361.94,-26.87C357.03,-15.42 348.73,-9.78 339.88,-8.21C330.80,-6.73 320.47,-8.86 311.61,-12.65C301.34,-17.31 293.13,-22.62 288.56,-28.67C283.78,-34.81 282.73,-41.91 286.44,-50.55C288.20,-54.65 291.84,-57.18 296.37,-58.82C300.91,-60.45 306.25,-60.98 311.19,-61.16C304.89,-66.16 300.79,-73.29 304.77,-82.58C306.25,-86.03 309.68,-88.65 313.66,-90.78C317.64,-92.91 321.99,-94.11 325.97,-94.45C321.47,-101.24 321.22,-109.02 322.02,-115.07C322.55,-118.68 323.29,-122.19 324.46,-125.53L338.26,-157.71C343.85,-168.35 350.73,-174.86 360.97,-177.89C366.04,-179.55 372.08,-178.75 378.78,-175.88C389.79,-171.16 394.36,-163.32 395.96,-155.73C398.12,-156.59 401.83,-158.07 406.30,-158.96C410.56,-159.95 415.06,-160.32 418.52,-158.84L410.19,-139.40C404.35,-141.90 399.57,-142.67 396.33,-142.27C396.08,-141.10 395.84,-139.93 395.78,-139.19C395.41,-138.32 395.04,-137.46 394.97,-136.72C394.91,-135.98 394.54,-135.11 394.26,-134.47ZM372.23,-142.12C373.99,-146.23 374.24,-149.19 373.53,-152.30C373.13,-153.75 372.11,-154.96 370.17,-155.79C366.71,-157.27 363.78,-155.21 362.02,-152.89C360.94,-151.57 359.89,-149.71 359.27,-147.68L345.38,-115.28C343.41,-111.27 342.94,-108.40 343.96,-105.41C344.36,-103.96 345.38,-102.75 347.11,-102.01C350.78,-100.44 353.40,-102.38 355.38,-104.60C356.46,-105.93 357.51,-107.78 358.34,-109.72ZM321.61,-52.09C315.97,-51.44 311.12,-49.68 309.18,-45.15C307.23,-40.61 309.76,-35.18 319.91,-30.83C323.59,-29.25 327.97,-28.14 331.76,-28.05C335.56,-27.96 338.77,-28.88 339.97,-31.69C340.80,-33.63 341.24,-35.24 340.37,-37.40C339.29,-39.65 336.95,-41.93 331.92,-45.11Z" fill="#ffffff" stroke="#000000"/>
    <path d="M-316.13,-359.00L-215.38,-499.41L-188.05,-485.44L-242.85,-321.54L-264.59,-332.65L-252.85,-365.82L-274.38,-376.82L-294.40,-347.89ZM-225.76,-442.32L-224.37,-446.57L-225.61,-447.20L-228.25,-443.59L-259.21,-398.84L-243.90,-391.01ZM-200.62,-299.95L-122.84,-452.11L-103.17,-442.06C-89.92,-435.29 -80.84,-427.51 -77.29,-417.60C-73.74,-407.69 -75.30,-395.95 -83.02,-380.84C-86.73,-373.60 -90.10,-368.53 -94.92,-364.73C-99.73,-360.92 -105.37,-358.58 -112.98,-356.46C-108.98,-350.50 -107.80,-342.59 -109.46,-331.17C-110.24,-325.56 -112.58,-318.92 -116.50,-311.26C-122.32,-299.88 -129.57,-290.79 -138.77,-285.57C-147.97,-280.35 -159.52,-279.72 -173.08,-285.88ZM-132.54,-377.95C-130.68,-377.00 -126.44,-374.57 -121.44,-375.15C-116.45,-375.73 -111.01,-379.22 -105.61,-389.78C-100.21,-400.33 -100.57,-406.79 -103.03,-411.17C-105.49,-415.56 -109.94,-417.58 -111.80,-418.53ZM-166.94,-310.67C-165.07,-309.72 -160.94,-307.08 -155.83,-307.87C-150.73,-308.66 -144.77,-313.18 -138.42,-325.60C-132.07,-338.02 -131.90,-345.51 -134.25,-350.10C-136.60,-354.70 -141.16,-356.51 -143.02,-357.46ZM-52.14,-275.23L-58.81,-262.19C-65.04,-251.54 -72.27,-245.57 -82.79,-243.38C-88.10,-242.18 -94.02,-243.37 -100.85,-246.86C-114.31,-253.74 -117.33,-264.69 -116.83,-273.83C-116.47,-279.13 -115.18,-284.74 -112.53,-290.43L-83.42,-347.36C-77.19,-358.02 -69.55,-364.29 -58.92,-366.69C-53.81,-368.00 -47.90,-366.80 -41.07,-363.31C-27.61,-356.43 -24.59,-345.49 -24.98,-336.55C-25.34,-331.25 -26.53,-325.85 -29.07,-320.36L-45.90,-287.45L-80.47,-305.12L-93.07,-280.48C-95.08,-276.03 -95.43,-272.29 -94.73,-269.06C-94.22,-267.50 -93.09,-266.14 -91.23,-265.18C-87.29,-263.17 -84.16,-264.70 -81.74,-267.39C-80.28,-268.73 -79.12,-270.48 -77.95,-272.76L-71.60,-285.18ZM-72.11,-321.48L-57.00,-313.75L-48.85,-329.69C-46.63,-334.04 -45.87,-337.57 -46.67,-341.11C-47.18,-342.67 -48.52,-344.14 -50.38,-345.09C-54.31,-347.10 -57.34,-345.26 -59.97,-342.68C-61.43,-341.34 -62.59,-339.59 -63.96,-337.42ZM20.47,-255.87C14.45,-245.63 6.92,-240.08 -3.19,-238.20C-8.39,-237.20 -14.31,-238.40 -20.73,-241.68C-21.35,-242.00 -21.97,-242.32 -22.59,-242.63C-23.21,-242.95 -24.04,-243.37 -24.55,-243.90C-27.26,-243.19 -29.15,-242.07 -30.10,-240.20C-31.37,-237.72 -30.04,-235.21 -27.36,-232.80C-24.78,-230.17 -21.37,-227.65 -17.76,-225.02C-11.55,-220.80 -5.36,-215.55 -1.58,-208.65C2.00,-201.86 2.87,-193.85 -2.21,-183.91C-7.82,-172.94 -16.39,-167.92 -25.24,-166.96C-34.29,-166.10 -44.35,-168.90 -52.84,-173.23C-62.67,-178.52 -70.42,-184.31 -74.52,-190.58C-78.83,-196.97 -79.40,-204.04 -75.16,-212.32C-73.15,-216.26 -69.39,-218.51 -64.80,-219.82C-60.21,-221.13 -54.91,-221.29 -50.02,-221.14C-55.90,-226.50 -59.48,-233.81 -54.93,-242.71C-53.23,-246.03 -49.68,-248.38 -45.61,-250.22C-41.54,-252.06 -37.16,-252.95 -33.21,-253.02C-37.20,-260.02 -36.92,-267.72 -35.73,-273.63C-34.97,-277.16 -34.00,-280.58 -32.62,-283.79L-16.86,-314.64C-10.63,-324.78 -3.40,-330.74 6.91,-333.04C12.02,-334.35 17.94,-333.15 24.35,-329.87C34.91,-324.48 38.89,-316.43 39.97,-308.83C42.16,-309.54 45.91,-310.76 50.39,-311.34C54.66,-312.03 59.13,-312.09 62.44,-310.40L52.92,-291.77C47.33,-294.63 42.66,-295.71 39.44,-295.53C39.11,-294.39 38.79,-293.25 38.68,-292.52C38.26,-291.69 37.84,-290.86 37.73,-290.14C37.61,-289.41 37.19,-288.58 36.87,-287.96ZM15.64,-296.99C17.65,-300.92 18.09,-303.83 17.60,-306.95C17.30,-308.41 16.37,-309.67 14.51,-310.62C11.20,-312.31 8.17,-310.47 6.28,-308.30C5.12,-307.06 3.96,-305.31 3.22,-303.34L-12.66,-272.28C-14.87,-268.46 -15.52,-265.65 -14.72,-262.63C-14.42,-261.17 -13.49,-259.92 -11.84,-259.07C-8.32,-257.27 -5.60,-259.02 -3.50,-261.08C-2.35,-262.31 -1.19,-264.07 -0.24,-265.93ZM-40.34,-211.49C-45.95,-211.23 -50.85,-209.82 -53.08,-205.47C-55.30,-201.12 -53.16,-195.59 -43.43,-190.62C-39.91,-188.82 -35.66,-187.43 -31.92,-187.09C-28.18,-186.74 -24.95,-187.44 -23.58,-190.13C-22.62,-191.99 -22.09,-193.55 -22.80,-195.74C-23.71,-198.04 -25.88,-200.45 -30.63,-203.92ZM89.98,-343.33L110.89,-332.64L100.20,-311.73L79.29,-322.42ZM12.20,-191.17L70.09,-304.41L91.00,-293.72L33.11,-180.48ZM70.58,-161.32L49.67,-172.01L107.56,-285.25L128.47,-274.56L123.60,-265.04C124.12,-265.04 125.37,-265.44 127.25,-266.05C130.69,-267.16 135.38,-268.68 140.17,-268.85C142.56,-268.93 144.43,-268.50 146.29,-267.54C151.88,-264.69 154.12,-259.36 154.49,-253.95C154.75,-248.34 153.13,-242.11 150.70,-237.35L103.29,-144.60L82.38,-155.29L128.20,-244.93C130.43,-249.28 128.26,-251.17 125.77,-252.44C123.50,-253.60 121.62,-253.00 119.43,-252.29C118.39,-251.78 117.34,-251.27 116.19,-250.55ZM140.35,-125.66L119.44,-136.35L177.32,-249.59L198.23,-238.90L193.36,-229.38C193.88,-229.37 195.14,-229.78 197.01,-230.39C200.45,-231.50 205.15,-233.02 209.93,-233.18C212.32,-233.27 214.19,-232.83 216.05,-231.88C221.64,-229.02 223.88,-223.70 224.25,-218.29C224.51,-212.67 222.90,-206.45 220.47,-201.69L173.06,-108.94L152.15,-119.63L197.97,-209.27C200.19,-213.62 198.02,-215.51 195.54,-216.78C193.26,-217.94 191.39,-217.34 189.20,-216.63C188.15,-216.12 187.11,-215.61 185.96,-214.89ZM266.98,-252.85L287.89,-242.16L277.21,-221.25L256.30,-231.94ZM189.21,-100.69L247.09,-213.93L268.00,-203.24L210.11,-90.00ZM247.59,-70.85L226.68,-81.53L284.56,-194.77L305.47,-184.09L300.60,-174.56C301.12,-174.56 302.37,-174.96 304.25,-175.57C307.69,-176.68 312.38,-178.20 317.17,-178.37C319.56,-178.45 321.43,-178.02 323.29,-177.07C328.88,-174.21 331.12,-168.89 331.49,-163.47C331.75,-157.86 330.14,-151.63 327.70,-146.87L280.29,-54.13L259.39,-64.81L305.21,-154.45C307.43,-158.80 305.26,-160.69 302.78,-161.96C300.50,-163.13 298.62,-162.52 296.43,-161.81C295.39,-161.30 294.34,-160.79 293.19,-160.07ZM375.51,-74.39C369.50,-64.15 361.96,-58.60 351.86,-56.71C346.65,-55.72 340.73,-56.92 334.32,-60.20C333.69,-60.51 333.07,-60.83 332.45,-61.15C331.83,-61.47 331.00,-61.89 330.49,-62.41C327.78,-61.71 325.90,-60.58 324.94,-58.72C323.67,-56.24 325.00,-53.73 327.69,-51.31C330.26,-48.69 333.67,-46.16 337.29,-43.53C343.49,-39.32 349.68,-34.06 353.47,-27.17C357.04,-20.38 357.91,-12.36 352.83,-2.43C347.22,8.55 338.65,13.56 329.80,14.53C320.75,15.38 310.69,12.59 302.20,8.25C292.37,2.96 284.62,-2.82 280.52,-9.10C276.21,-15.48 275.65,-22.56 279.88,-30.84C281.89,-34.77 285.65,-37.03 290.24,-38.34C294.83,-39.65 300.13,-39.81 305.02,-39.66C299.14,-45.02 295.56,-52.33 300.11,-61.23C301.81,-64.54 305.36,-66.90 309.44,-68.74C313.51,-70.57 317.88,-71.47 321.83,-71.54C317.84,-78.54 318.12,-86.23 319.31,-92.15C320.07,-95.68 321.04,-99.10 322.42,-102.31L338.19,-133.16C344.41,-143.29 351.64,-149.26 361.95,-151.56C367.06,-152.86 372.98,-151.67 379.40,-148.39C389.95,-142.99 393.94,-134.95 395.01,-127.35C397.20,-128.06 400.96,-129.27 405.43,-129.86C409.70,-130.55 414.17,-130.61 417.49,-128.92L407.96,-110.28C402.37,-113.14 397.70,-114.22 394.48,-114.04C394.16,-112.90 393.83,-111.76 393.72,-111.04C393.30,-110.21 392.88,-109.38 392.77,-108.65C392.66,-107.93 392.23,-107.10 391.92,-106.48ZM370.68,-115.50C372.69,-119.44 373.13,-122.34 372.64,-125.47C372.34,-126.93 371.42,-128.18 369.55,-129.13C366.24,-130.83 363.21,-128.98 361.32,-126.82C360.16,-125.58 359.00,-123.82 358.26,-121.85L342.39,-90.80C340.17,-86.97 339.52,-84.17 340.32,-81.15C340.62,-79.69 341.55,-78.43 343.20,-77.59C346.72,-75.79 349.44,-77.53 351.54,-79.59C352.70,-80.83 353.85,-82.59 354.81,-84.45ZM314.71,-30.01C309.09,-29.75 304.19,-28.33 301.97,-23.99C299.74,-19.64 301.88,-14.11 311.61,-9.14C315.13,-7.34 319.38,-5.95 323.12,-5.60C326.86,-5.26 330.09,-5.96 331.47,-8.65C332.42,-10.51 332.95,-12.07 332.24,-14.26C331.33,-16.55 329.17,-18.96 324.41,-22.44Z" fill="#ffffff" stroke="#000000"/>
    <path d="M-294.22,-375.90L-185.40,-507.76L-159.36,-492.15L-224.39,-334.03L-245.10,-346.45L-231.31,-378.40L-251.82,-390.70L-273.51,-363.48ZM-199.46,-452.10L-197.81,-456.20L-198.99,-456.91L-201.83,-453.52L-235.38,-411.42L-220.79,-402.67ZM-184.15,-309.91L-97.22,-454.90L-78.48,-443.66C-65.86,-436.10 -57.42,-427.82 -54.57,-417.80C-51.73,-407.78 -54.05,-396.30 -62.68,-381.90C-66.82,-375.00 -70.49,-370.22 -75.50,-366.79C-80.51,-363.35 -86.22,-361.42 -93.88,-359.84C-90.32,-353.69 -89.69,-345.80 -92.09,-334.63C-93.23,-329.15 -95.99,-322.76 -100.37,-315.46C-106.87,-304.61 -114.64,-296.13 -124.06,-291.59C-133.49,-287.05 -144.93,-287.20 -157.91,-294.18ZM-111.75,-382.35C-109.98,-381.29 -105.95,-378.61 -100.98,-378.85C-96.01,-379.09 -90.41,-382.17 -84.38,-392.23C-78.35,-402.29 -78.27,-408.68 -80.41,-413.17C-82.54,-417.67 -86.80,-419.95 -88.57,-421.02ZM-150.19,-318.24C-148.41,-317.18 -144.51,-314.30 -139.42,-314.74C-134.33,-315.17 -128.14,-319.24 -121.04,-331.07C-113.95,-342.91 -113.28,-350.29 -115.29,-354.98C-117.31,-359.67 -121.68,-361.76 -123.46,-362.82ZM-39.25,-275.60L-46.70,-263.18C-53.56,-253.08 -61.09,-247.67 -71.63,-246.21C-76.95,-245.38 -82.71,-246.95 -89.22,-250.85C-102.04,-258.54 -104.29,-269.55 -103.19,-278.54C-102.49,-283.75 -100.83,-289.19 -97.84,-294.63L-65.31,-348.88C-58.45,-358.98 -50.49,-364.67 -39.84,-366.33C-34.71,-367.28 -28.95,-365.70 -22.44,-361.80C-9.62,-354.11 -7.37,-343.11 -8.35,-334.31C-9.06,-329.10 -10.59,-323.86 -13.47,-318.61L-32.28,-287.24L-65.22,-306.99L-79.29,-283.52C-81.58,-279.26 -82.17,-275.59 -81.69,-272.35C-81.30,-270.78 -80.27,-269.36 -78.50,-268.29C-74.75,-266.05 -71.55,-267.35 -68.99,-269.83C-67.45,-271.06 -66.19,-272.72 -64.89,-274.89L-57.80,-286.72ZM-55.88,-322.58L-41.48,-313.94L-32.37,-329.13C-29.89,-333.28 -28.90,-336.71 -29.46,-340.26C-29.85,-341.84 -31.07,-343.37 -32.85,-344.44C-36.60,-346.69 -39.71,-345.07 -42.47,-342.70C-44.01,-341.48 -45.27,-339.82 -46.77,-337.77ZM31.13,-251.65C24.50,-241.94 16.69,-236.97 6.60,-235.78C1.39,-235.15 -4.37,-236.73 -10.48,-240.39C-11.08,-240.75 -11.67,-241.10 -12.26,-241.46C-12.85,-241.81 -13.64,-242.28 -14.11,-242.84C-16.84,-242.32 -18.77,-241.34 -19.83,-239.56C-21.25,-237.19 -20.11,-234.63 -17.62,-232.07C-15.25,-229.31 -12.06,-226.59 -8.66,-223.75C-2.82,-219.17 2.94,-213.57 6.21,-206.51C9.29,-199.57 9.61,-191.61 3.94,-182.14C-2.33,-171.68 -11.13,-167.30 -19.92,-166.94C-28.92,-166.70 -38.66,-170.13 -46.75,-174.98C-56.10,-180.85 -63.36,-187.08 -66.99,-193.55C-70.82,-200.14 -70.90,-207.16 -66.17,-215.05C-63.92,-218.80 -60.06,-220.77 -55.44,-221.76C-50.83,-222.74 -45.58,-222.55 -40.77,-222.08C-46.22,-227.76 -49.26,-235.21 -44.17,-243.69C-42.28,-246.85 -38.61,-248.94 -34.47,-250.48C-30.33,-252.02 -25.95,-252.61 -22.05,-252.42C-25.52,-259.60 -24.73,-267.17 -23.16,-272.93C-22.17,-276.36 -20.99,-279.67 -19.41,-282.75L-1.79,-312.14C5.03,-321.73 12.56,-327.14 22.89,-328.72C28.02,-329.67 33.78,-328.09 39.89,-324.43C49.96,-318.40 53.35,-310.19 53.91,-302.62C56.11,-303.17 59.90,-304.12 64.36,-304.40C68.62,-304.80 73.04,-304.56 76.19,-302.67L65.55,-284.91C60.22,-288.11 55.69,-289.49 52.49,-289.52C52.10,-288.42 51.70,-287.31 51.54,-286.60C51.07,-285.82 50.60,-285.03 50.44,-284.32C50.28,-283.61 49.81,-282.82 49.46,-282.23ZM29.10,-292.55C31.35,-296.30 31.98,-299.14 31.70,-302.26C31.50,-303.72 30.67,-305.02 28.90,-306.08C25.74,-307.97 22.62,-306.36 20.61,-304.34C19.39,-303.20 18.13,-301.54 17.26,-299.65L-0.48,-270.06C-2.92,-266.43 -3.75,-263.71 -3.16,-260.67C-2.96,-259.21 -2.13,-257.91 -0.55,-256.96C2.80,-254.95 5.60,-256.49 7.81,-258.39C9.03,-259.53 10.30,-261.19 11.36,-262.96ZM-31.85,-211.90C-37.41,-212.02 -42.34,-210.95 -44.83,-206.81C-47.31,-202.67 -45.57,-197.07 -36.30,-191.51C-32.95,-189.50 -28.85,-187.84 -25.18,-187.25C-21.51,-186.66 -18.27,-187.14 -16.74,-189.70C-15.67,-191.48 -15.04,-192.98 -15.59,-195.19C-16.35,-197.51 -18.32,-200.04 -22.78,-203.78ZM105.57,-333.33L125.49,-321.38L113.55,-301.46L93.62,-313.40ZM18.65,-188.34L83.33,-296.24L103.26,-284.30L38.57,-176.39ZM74.28,-154.99L54.35,-166.93L119.04,-274.84L138.96,-262.89L133.52,-253.82C134.04,-253.78 135.30,-254.09 137.19,-254.57C140.66,-255.44 145.40,-256.62 150.13,-256.47C152.50,-256.39 154.31,-255.84 156.09,-254.77C161.41,-251.58 163.27,-246.18 163.27,-240.81C163.15,-235.25 161.14,-229.21 158.42,-224.68L105.44,-136.30L85.52,-148.25L136.73,-233.66C139.21,-237.81 137.20,-239.82 134.83,-241.24C132.66,-242.54 130.77,-242.06 128.56,-241.51C127.49,-241.07 126.43,-240.64 125.25,-240.01ZM140.75,-115.13L120.83,-127.08L185.52,-234.98L205.44,-223.04L200.00,-213.96C200.52,-213.92 201.78,-214.24 203.67,-214.71C207.14,-215.58 211.87,-216.77 216.61,-216.61C218.97,-216.54 220.79,-215.98 222.56,-214.92C227.89,-211.73 229.75,-206.32 229.75,-200.96C229.63,-195.40 227.62,-189.36 224.90,-184.82L171.92,-96.45L152.00,-108.39L203.21,-193.81C205.69,-197.95 203.68,-199.96 201.31,-201.38C199.14,-202.68 197.25,-202.21 195.04,-201.66C193.97,-201.22 192.91,-200.79 191.72,-200.16ZM274.23,-232.22L294.15,-220.27L282.21,-200.35L262.29,-212.29ZM187.31,-87.22L252.00,-195.13L271.92,-183.18L207.23,-75.28ZM242.94,-53.87L223.02,-65.82L287.70,-173.72L307.63,-161.78L302.19,-152.71C302.70,-152.67 303.96,-152.98 305.86,-153.46C309.33,-154.33 314.06,-155.51 318.79,-155.35C321.16,-155.28 322.97,-154.73 324.75,-153.66C330.08,-150.47 331.93,-145.06 331.93,-139.70C331.82,-134.14 329.81,-128.10 327.09,-123.57L274.11,-35.19L254.18,-47.13L305.39,-132.55C307.87,-136.69 305.86,-138.70 303.49,-140.12C301.32,-141.42 299.43,-140.95 297.22,-140.40C296.16,-139.96 295.09,-139.53 293.91,-138.90ZM369.44,-48.83C362.82,-39.13 355.01,-34.15 344.91,-32.97C339.71,-32.33 333.95,-33.91 327.83,-37.58C327.24,-37.93 326.65,-38.29 326.05,-38.64C325.46,-39.00 324.67,-39.47 324.20,-40.02C321.48,-39.51 319.55,-38.52 318.48,-36.74C317.06,-34.38 318.21,-31.81 320.69,-29.25C323.06,-26.49 326.26,-23.77 329.65,-20.93C335.49,-16.36 341.25,-10.76 344.53,-3.70C347.61,3.24 347.93,11.21 342.25,20.68C335.98,31.13 327.19,35.52 318.39,35.87C309.40,36.11 299.65,32.69 291.57,27.84C282.22,21.96 274.96,15.73 271.32,9.27C267.50,2.68 267.41,-4.34 272.14,-12.23C274.39,-15.98 278.26,-17.95 282.87,-18.94C287.49,-19.93 292.73,-19.73 297.54,-19.26C292.10,-24.94 289.06,-32.39 294.14,-40.88C296.04,-44.03 299.70,-46.13 303.84,-47.66C307.99,-49.20 312.36,-49.80 316.27,-49.60C312.79,-56.78 313.58,-64.35 315.16,-70.11C316.14,-73.55 317.32,-76.86 318.90,-79.94L336.52,-109.33C343.34,-118.92 350.87,-124.32 361.21,-125.91C366.33,-126.85 372.09,-125.28 378.21,-121.61C388.27,-115.58 391.66,-107.38 392.22,-99.80C394.43,-100.36 398.22,-101.31 402.67,-101.58C406.93,-101.98 411.35,-101.74 414.51,-99.85L403.86,-82.10C398.54,-85.29 394.00,-86.67 390.80,-86.71C390.41,-85.60 390.02,-84.50 389.86,-83.79C389.39,-83.00 388.91,-82.21 388.76,-81.50C388.60,-80.79 388.13,-80.00 387.77,-79.41ZM367.41,-89.74C369.66,-93.49 370.29,-96.33 370.01,-99.44C369.82,-100.90 368.99,-102.20 367.21,-103.27C364.05,-105.16 360.94,-103.54 358.93,-101.53C357.71,-100.38 356.44,-98.73 355.58,-96.83L337.84,-67.24C335.39,-63.61 334.57,-60.89 335.16,-57.85C335.36,-56.39 336.19,-55.09 337.76,-54.15C341.12,-52.14 343.92,-53.68 346.13,-55.57C347.35,-56.71 348.61,-58.37 349.67,-60.15ZM306.46,-9.09C300.90,-9.21 295.97,-8.14 293.49,-4.00C291.00,0.15 292.74,5.75 302.01,11.31C305.37,13.32 309.47,14.97 313.14,15.56C316.81,16.15 320.04,15.68 321.58,13.11C322.64,11.34 323.27,9.84 322.72,7.63C321.97,5.30 320.00,2.78 315.54,-0.97Z" fill="#ffffff" stroke="#000000"/>
    <path d="M-271.32,-391.47L-155.13,-514.34L-130.48,-497.20L-205.20,-345.50L-224.81,-359.13L-209.07,-389.75L-228.49,-403.25L-251.71,-377.83ZM-172.72,-460.35L-170.82,-464.29L-171.94,-465.07L-174.97,-461.91L-210.89,-422.60L-197.06,-412.99ZM-167.09,-319.00L-71.64,-456.29L-53.89,-443.95C-41.94,-435.64 -34.16,-426.91 -32.02,-416.83C-29.88,-406.75 -32.94,-395.58 -42.42,-381.95C-46.97,-375.41 -50.90,-370.94 -56.08,-367.89C-61.25,-364.83 -67.02,-363.30 -74.68,-362.26C-71.58,-355.95 -71.48,-348.12 -74.60,-337.26C-76.09,-331.93 -79.24,-325.80 -84.04,-318.89C-91.19,-308.62 -99.42,-300.77 -109.02,-296.91C-118.63,-293.06 -129.91,-293.98 -142.25,-301.73ZM-90.82,-385.67C-89.14,-384.50 -85.34,-381.59 -80.42,-381.49C-75.50,-381.39 -69.77,-384.06 -63.15,-393.58C-56.52,-403.11 -56.02,-409.41 -57.82,-413.99C-59.63,-418.57 -63.68,-421.11 -65.36,-422.28ZM-133.02,-324.96C-131.34,-323.79 -127.68,-320.69 -122.63,-320.78C-117.58,-320.87 -111.20,-324.47 -103.41,-335.68C-95.61,-346.89 -94.46,-354.12 -96.14,-358.89C-97.81,-363.65 -101.99,-366.01 -103.67,-367.18ZM-26.39,-275.48L-34.57,-263.71C-42.02,-254.20 -49.81,-249.37 -60.30,-248.63C-65.61,-248.17 -71.19,-250.10 -77.35,-254.39C-89.49,-262.83 -90.98,-273.84 -89.30,-282.64C-88.25,-287.74 -86.25,-293.00 -82.93,-298.17L-47.22,-349.54C-39.78,-359.05 -31.54,-364.13 -20.92,-365.05C-15.79,-365.65 -10.21,-363.71 -4.05,-359.42C8.09,-350.98 9.58,-339.97 8.02,-331.36C6.98,-326.26 5.11,-321.19 1.92,-316.20L-18.73,-286.50L-49.92,-308.19L-65.38,-285.96C-67.92,-281.91 -68.74,-278.33 -68.49,-275.11C-68.21,-273.52 -67.29,-272.05 -65.61,-270.89C-62.06,-268.42 -58.82,-269.49 -56.12,-271.77C-54.52,-272.88 -53.17,-274.43 -51.74,-276.48L-43.95,-287.69ZM-39.66,-322.95L-26.03,-313.47L-16.03,-327.85C-13.30,-331.77 -12.10,-335.09 -12.41,-338.63C-12.69,-340.22 -13.80,-341.82 -15.48,-342.99C-19.03,-345.45 -22.21,-344.06 -25.09,-341.91C-26.69,-340.81 -28.05,-339.26 -29.66,-337.33ZM41.47,-247.15C34.28,-238.01 26.24,-233.62 16.20,-233.12C11.02,-232.85 5.44,-234.79 -0.35,-238.81C-0.91,-239.20 -1.47,-239.59 -2.03,-239.98C-2.59,-240.37 -3.34,-240.89 -3.77,-241.47C-6.49,-241.14 -8.46,-240.30 -9.63,-238.61C-11.19,-236.37 -10.23,-233.77 -7.95,-231.07C-5.79,-228.19 -2.82,-225.29 0.34,-222.26C5.80,-217.36 11.11,-211.45 13.87,-204.27C16.45,-197.21 16.23,-189.33 9.99,-180.36C3.11,-170.46 -5.86,-166.72 -14.56,-166.96C-23.46,-167.32 -32.84,-171.35 -40.50,-176.68C-49.34,-183.10 -56.09,-189.73 -59.24,-196.35C-62.58,-203.11 -62.19,-210.04 -57.00,-217.52C-54.53,-221.06 -50.58,-222.75 -45.96,-223.42C-41.34,-224.09 -36.18,-223.55 -31.46,-222.76C-36.46,-228.73 -38.96,-236.29 -33.37,-244.32C-31.30,-247.31 -27.54,-249.13 -23.35,-250.37C-19.16,-251.61 -14.80,-251.91 -10.96,-251.45C-13.91,-258.77 -12.62,-266.19 -10.69,-271.77C-9.48,-275.09 -8.10,-278.28 -6.34,-281.21L13.01,-309.04C20.39,-318.05 28.18,-322.88 38.48,-323.76C43.61,-324.35 49.19,-322.41 54.98,-318.38C64.50,-311.76 67.31,-303.44 67.35,-295.93C69.56,-296.33 73.36,-297.01 77.78,-296.99C82.01,-297.09 86.36,-296.57 89.34,-294.49L77.66,-277.68C72.61,-281.18 68.23,-282.85 65.08,-283.10C64.62,-282.03 64.15,-280.97 63.95,-280.28C63.43,-279.53 62.91,-278.79 62.71,-278.10C62.51,-277.41 61.99,-276.66 61.60,-276.10ZM42.19,-287.65C44.66,-291.20 45.47,-293.96 45.41,-297.05C45.31,-298.50 44.58,-299.84 42.90,-301.01C39.91,-303.09 36.73,-301.70 34.61,-299.85C33.33,-298.80 31.97,-297.25 30.99,-295.44L11.51,-267.42C8.85,-264.00 7.85,-261.37 8.24,-258.33C8.33,-256.88 9.07,-255.54 10.56,-254.50C13.74,-252.29 16.60,-253.63 18.91,-255.35C20.19,-256.40 21.55,-257.95 22.71,-259.63ZM-23.34,-212.12C-28.82,-212.61 -33.76,-211.89 -36.48,-207.96C-39.21,-204.04 -37.87,-198.40 -29.09,-192.29C-25.91,-190.09 -21.98,-188.18 -18.39,-187.35C-14.81,-186.52 -11.59,-186.78 -9.90,-189.21C-8.73,-190.89 -8.01,-192.32 -8.41,-194.54C-8.99,-196.89 -10.77,-199.51 -14.92,-203.50ZM120.38,-322.79L139.25,-309.67L126.13,-290.80L107.26,-303.92ZM24.93,-185.50L95.96,-287.67L114.83,-274.55L43.79,-172.38ZM77.60,-148.87L58.73,-161.99L129.77,-264.16L148.64,-251.05L142.66,-242.45C143.17,-242.38 144.43,-242.61 146.33,-242.95C149.82,-243.58 154.57,-244.43 159.23,-243.96C161.56,-243.72 163.31,-243.06 164.99,-241.89C170.04,-238.38 171.51,-232.93 171.15,-227.63C170.67,-222.15 168.28,-216.33 165.29,-212.03L107.11,-128.35L88.25,-141.47L144.48,-222.35C147.21,-226.27 145.36,-228.39 143.11,-229.95C141.06,-231.38 139.16,-231.04 136.94,-230.64C135.86,-230.28 134.78,-229.92 133.57,-229.38ZM140.55,-105.11L121.68,-118.22L192.72,-220.40L211.59,-207.28L205.61,-198.69C206.12,-198.61 207.38,-198.84 209.28,-199.18C212.77,-199.81 217.52,-200.66 222.18,-200.19C224.51,-199.96 226.26,-199.29 227.94,-198.12C232.99,-194.62 234.46,-189.16 234.10,-183.87C233.61,-178.39 231.23,-172.56 228.24,-168.27L170.06,-84.59L151.19,-97.70L207.43,-178.58C210.16,-182.51 208.30,-184.62 206.06,-186.18C204.01,-187.61 202.11,-187.27 199.89,-186.87C198.81,-186.51 197.73,-186.16 196.52,-185.61ZM280.08,-211.75L298.95,-198.63L285.83,-179.76L266.97,-192.88ZM184.63,-74.46L255.67,-176.63L274.53,-163.51L203.50,-61.34ZM237.30,-37.83L218.44,-50.95L289.48,-153.12L308.34,-140.01L302.37,-131.41C302.87,-131.34 304.14,-131.57 306.04,-131.91C309.52,-132.54 314.27,-133.39 318.93,-132.92C321.26,-132.69 323.02,-132.02 324.70,-130.85C329.74,-127.35 331.21,-121.89 330.86,-116.60C330.37,-111.11 327.99,-105.29 325.00,-101.00L266.82,-17.31L247.95,-30.43L304.19,-111.31C306.91,-115.23 305.06,-117.35 302.82,-118.91C300.76,-120.34 298.86,-120.00 296.65,-119.60C295.57,-119.24 294.49,-118.88 293.28,-118.34ZM361.81,-24.42C354.63,-15.28 346.59,-10.90 336.54,-10.40C331.36,-10.12 325.78,-12.06 319.99,-16.09C319.43,-16.47 318.87,-16.86 318.31,-17.25C317.75,-17.64 317.01,-18.16 316.57,-18.74C313.85,-18.41 311.88,-17.57 310.71,-15.89C309.15,-13.65 310.11,-11.04 312.40,-8.35C314.55,-5.46 317.52,-2.57 320.68,0.46C326.14,5.37 331.45,11.28 334.21,18.46C336.79,25.52 336.57,33.40 330.34,42.37C323.45,52.27 314.48,56.00 305.78,55.77C296.89,55.41 287.50,51.37 279.84,46.05C271.01,39.63 264.26,33.00 261.10,26.37C257.76,19.62 258.15,12.68 263.35,5.21C265.82,1.66 269.76,-0.03 274.38,-0.69C279.00,-1.36 284.17,-0.82 288.88,-0.03C283.89,-6.00 281.38,-13.56 286.97,-21.59C289.05,-24.58 292.81,-26.40 297.00,-27.64C301.19,-28.89 305.55,-29.18 309.39,-28.73C306.44,-36.04 307.72,-43.46 309.66,-49.04C310.86,-52.36 312.25,-55.55 314.01,-58.49L333.36,-86.32C340.73,-95.32 348.52,-100.16 358.83,-101.03C363.95,-101.62 369.53,-99.68 375.32,-95.66C384.84,-89.03 387.65,-80.71 387.69,-73.20C389.91,-73.60 393.71,-74.28 398.12,-74.26C402.35,-74.37 406.70,-73.84 409.69,-71.76L398.00,-54.95C392.96,-58.46 388.57,-60.12 385.42,-60.37C384.96,-59.31 384.50,-58.24 384.29,-57.55C383.77,-56.81 383.25,-56.06 383.05,-55.37C382.85,-54.68 382.33,-53.93 381.94,-53.37ZM362.54,-64.92C365.01,-68.47 365.82,-71.23 365.75,-74.32C365.65,-75.78 364.92,-77.12 363.24,-78.29C360.25,-80.36 357.07,-78.97 354.95,-77.12C353.67,-76.07 352.31,-74.52 351.33,-72.71L331.85,-44.69C329.20,-41.28 328.20,-38.64 328.58,-35.61C328.68,-34.15 329.41,-32.81 330.90,-31.78C334.08,-29.57 336.94,-30.90 339.25,-32.62C340.53,-33.67 341.89,-35.22 343.06,-36.90ZM297.01,10.60C291.52,10.12 286.59,10.84 283.86,14.76C281.13,18.69 282.47,24.33 291.25,30.43C294.43,32.64 298.37,34.55 301.95,35.37C305.53,36.20 308.75,35.95 310.44,33.52C311.61,31.84 312.33,30.40 311.93,28.19C311.35,25.84 309.57,23.22 305.42,19.22Z" fill="#ffffff" stroke="#000000"/>
    <path d="M-247.52,-405.65L-124.67,-519.15L-101.48,-500.59L-185.34,-355.88L-203.78,-370.64L-186.20,-399.80L-204.47,-414.42L-229.07,-390.89ZM-145.63,-467.04L-143.48,-470.80L-144.54,-471.65L-147.74,-468.73L-185.80,-432.34L-172.81,-421.93ZM-149.50,-327.19L-46.15,-456.30L-29.47,-442.94C-18.22,-433.94 -11.13,-424.80 -9.69,-414.71C-8.25,-404.63 -12.02,-393.81 -22.28,-380.99C-27.20,-374.84 -31.39,-370.69 -36.69,-368.02C-42.00,-365.35 -47.80,-364.23 -55.42,-363.71C-52.79,-357.28 -53.21,-349.55 -57.01,-339.04C-58.84,-333.87 -62.36,-328.04 -67.56,-321.54C-75.29,-311.88 -83.94,-304.68 -93.67,-301.52C-103.41,-298.36 -114.48,-300.02 -126.14,-308.49ZM-69.79,-387.89C-68.21,-386.62 -64.66,-383.49 -59.81,-383.07C-54.96,-382.65 -49.13,-384.89 -41.96,-393.85C-34.78,-402.81 -33.87,-408.99 -35.34,-413.63C-36.82,-418.27 -40.65,-421.05 -42.23,-422.31ZM-115.49,-330.80C-113.91,-329.53 -110.50,-326.23 -105.51,-325.98C-100.52,-325.74 -93.98,-328.86 -85.55,-339.40C-77.11,-349.94 -75.49,-357.00 -76.82,-361.82C-78.16,-366.63 -82.13,-369.23 -83.71,-370.50ZM-13.57,-274.86L-22.42,-263.80C-30.40,-254.91 -38.42,-250.66 -48.82,-250.63C-54.09,-250.52 -59.46,-252.81 -65.26,-257.45C-76.68,-266.59 -77.41,-277.55 -75.16,-286.13C-73.79,-291.08 -71.47,-296.14 -67.85,-301.02L-29.18,-349.33C-21.20,-358.21 -12.73,-362.67 -2.19,-362.88C2.91,-363.13 8.28,-360.84 14.08,-356.20C25.50,-347.06 26.23,-336.10 24.12,-327.70C22.75,-322.75 20.57,-317.86 17.09,-313.15L-5.27,-285.23L-34.60,-308.71L-51.34,-287.81C-54.11,-283.98 -55.17,-280.50 -55.13,-277.30C-54.96,-275.72 -54.15,-274.21 -52.57,-272.94C-49.23,-270.27 -45.96,-271.11 -43.15,-273.18C-41.50,-274.17 -40.06,-275.61 -38.51,-277.54L-30.08,-288.08ZM-23.49,-322.58L-10.67,-312.32L0.15,-325.84C3.11,-329.53 4.51,-332.73 4.44,-336.24C4.27,-337.83 3.29,-339.48 1.71,-340.74C-1.63,-343.41 -4.87,-342.26 -7.85,-340.32C-9.50,-339.34 -10.95,-337.90 -12.67,-336.11ZM51.50,-242.37C43.80,-233.84 35.58,-230.04 25.64,-230.22C20.51,-230.30 15.13,-232.58 9.68,-236.94C9.16,-237.36 8.63,-237.78 8.10,-238.21C7.58,-238.63 6.87,-239.19 6.49,-239.79C3.78,-239.65 1.78,-238.95 0.51,-237.36C-1.17,-235.26 -0.40,-232.62 1.67,-229.81C3.60,-226.82 6.34,-223.76 9.26,-220.57C14.32,-215.36 19.16,-209.18 21.41,-201.90C23.48,-194.77 22.74,-187.00 15.99,-178.57C8.54,-169.26 -0.56,-166.17 -9.14,-166.98C-17.89,-167.94 -26.88,-172.54 -34.08,-178.31C-42.37,-185.23 -48.59,-192.23 -51.26,-198.97C-54.10,-205.86 -53.26,-212.68 -47.63,-219.70C-44.96,-223.04 -40.95,-224.45 -36.35,-224.80C-31.75,-225.15 -26.69,-224.27 -22.09,-223.18C-26.62,-229.40 -28.58,-237.02 -22.54,-244.58C-20.29,-247.39 -16.46,-248.93 -12.24,-249.88C-8.02,-250.83 -3.70,-250.82 0.06,-250.12C-2.36,-257.54 -0.60,-264.77 1.68,-270.15C3.09,-273.35 4.67,-276.40 6.61,-279.18L27.56,-305.35C35.43,-313.75 43.44,-318.00 53.67,-318.17C58.76,-318.41 64.14,-316.13 69.59,-311.77C78.54,-304.60 80.75,-296.20 80.30,-288.78C82.51,-289.03 86.30,-289.45 90.66,-289.13C94.84,-288.95 99.09,-288.14 101.90,-285.89L89.25,-270.09C84.51,-273.88 80.29,-275.82 77.20,-276.27C76.67,-275.26 76.14,-274.24 75.90,-273.57C75.34,-272.87 74.77,-272.16 74.53,-271.50C74.28,-270.83 73.72,-270.13 73.30,-269.60ZM54.92,-282.29C57.59,-285.63 58.58,-288.30 58.72,-291.36C58.72,-292.80 58.09,-294.17 56.51,-295.43C53.70,-297.68 50.46,-296.52 48.25,-294.84C46.91,-293.89 45.47,-292.45 44.38,-290.73L23.29,-264.38C20.44,-261.18 19.28,-258.65 19.46,-255.63C19.46,-254.19 20.09,-252.82 21.50,-251.69C24.48,-249.30 27.40,-250.43 29.79,-251.97C31.12,-252.92 32.57,-254.36 33.83,-255.94ZM-14.78,-212.14C-20.16,-212.98 -25.08,-212.60 -28.03,-208.91C-30.98,-205.22 -30.03,-199.56 -21.78,-192.96C-18.79,-190.57 -15.03,-188.42 -11.55,-187.37C-8.08,-186.31 -4.88,-186.34 -3.05,-188.63C-1.79,-190.21 -0.98,-191.58 -1.22,-193.79C-1.64,-196.15 -3.22,-198.85 -7.05,-203.07ZM134.42,-311.75L152.16,-297.55L137.96,-279.80L120.21,-294.01ZM31.07,-182.64L107.98,-278.72L125.72,-264.52L48.81,-168.44ZM80.60,-142.99L62.86,-157.19L139.77,-253.27L157.52,-239.07L151.05,-230.99C151.54,-230.89 152.80,-231.03 154.70,-231.24C158.18,-231.62 162.92,-232.15 167.49,-231.37C169.78,-230.99 171.46,-230.21 173.04,-228.95C177.79,-225.15 178.87,-219.67 178.17,-214.47C177.32,-209.09 174.58,-203.51 171.35,-199.47L108.35,-120.77L90.61,-134.98L151.50,-211.03C154.45,-214.72 152.76,-216.94 150.66,-218.62C148.72,-220.17 146.83,-219.96 144.61,-219.71C143.52,-219.43 142.43,-219.15 141.20,-218.70ZM139.80,-95.60L122.05,-109.81L198.97,-205.89L216.71,-191.69L210.24,-183.61C210.73,-183.50 212.00,-183.64 213.90,-183.85C217.38,-184.24 222.12,-184.76 226.69,-183.99C228.97,-183.60 230.66,-182.83 232.24,-181.56C236.98,-177.76 238.07,-172.28 237.36,-167.08C236.52,-161.71 233.78,-156.12 230.54,-152.08L167.55,-73.39L149.81,-87.59L210.69,-163.65C213.65,-167.34 211.96,-169.55 209.85,-171.24C207.92,-172.78 206.02,-172.57 203.81,-172.33C202.72,-172.05 201.63,-171.77 200.40,-171.31ZM284.60,-191.52L302.34,-177.32L288.14,-159.58L270.40,-173.78ZM181.25,-62.42L258.16,-158.50L275.90,-144.30L198.99,-48.22ZM230.78,-22.77L213.04,-36.97L289.96,-133.05L307.70,-118.85L301.23,-110.77C301.72,-110.66 302.99,-110.80 304.88,-111.01C308.36,-111.40 313.11,-111.93 317.67,-111.15C319.96,-110.76 321.65,-109.99 323.23,-108.72C327.97,-104.93 329.06,-99.45 328.35,-94.25C327.51,-88.87 324.76,-83.28 321.53,-79.24L258.54,-0.55L240.80,-14.75L301.68,-90.81C304.63,-94.50 302.95,-96.71 300.84,-98.40C298.91,-99.95 297.01,-99.74 294.80,-99.49C293.71,-99.21 292.62,-98.93 291.39,-98.47ZM352.74,-1.22C345.05,7.31 336.82,11.10 326.88,10.93C321.75,10.85 316.37,8.57 310.93,4.21C310.40,3.79 309.87,3.36 309.35,2.94C308.82,2.52 308.12,1.96 307.73,1.36C305.02,1.50 303.02,2.20 301.76,3.78C300.07,5.89 300.84,8.53 302.91,11.34C304.84,14.33 307.58,17.38 310.50,20.58C315.56,25.79 320.41,31.97 322.65,39.25C324.72,46.38 323.98,54.15 317.23,62.58C309.78,71.89 300.68,74.98 292.11,74.16C283.36,73.21 274.36,68.61 267.16,62.84C258.87,55.92 252.65,48.92 249.98,42.17C247.14,35.29 247.99,28.47 253.61,21.44C256.28,18.11 260.29,16.70 264.89,16.35C269.49,16.00 274.55,16.88 279.16,17.97C274.63,11.75 272.66,4.13 278.71,-3.43C280.96,-6.24 284.79,-7.78 289.00,-8.73C293.22,-9.68 297.54,-9.68 301.30,-8.97C298.88,-16.39 300.64,-23.62 302.93,-29.00C304.33,-32.20 305.91,-35.25 307.85,-38.03L328.80,-64.20C336.67,-72.60 344.69,-76.85 354.91,-77.02C360.01,-77.26 365.38,-74.98 370.83,-70.62C379.79,-63.45 382.00,-55.05 381.54,-47.63C383.75,-47.88 387.55,-48.30 391.90,-47.98C396.09,-47.81 400.34,-47.00 403.15,-44.75L390.49,-28.94C385.75,-32.73 381.53,-34.67 378.44,-35.13C377.91,-34.11 377.39,-33.09 377.14,-32.42C376.58,-31.72 376.02,-31.02 375.77,-30.35C375.52,-29.68 374.96,-28.98 374.54,-28.45ZM356.17,-41.14C358.84,-44.48 359.82,-47.15 359.96,-50.21C359.96,-51.65 359.33,-53.02 357.75,-54.28C354.94,-56.53 351.71,-55.37 349.49,-53.69C348.16,-52.74 346.72,-51.30 345.63,-49.58L324.53,-23.23C321.69,-20.03 320.53,-17.50 320.70,-14.48C320.70,-13.04 321.33,-11.67 322.74,-10.55C325.72,-8.16 328.64,-9.28 331.03,-10.82C332.37,-11.77 333.81,-13.21 335.07,-14.79ZM286.46,29.01C281.09,28.16 276.17,28.55 273.21,32.24C270.26,35.93 271.21,41.58 279.46,48.19C282.45,50.58 286.21,52.73 289.69,53.78C293.17,54.84 296.36,54.80 298.19,52.52C299.46,50.94 300.27,49.57 300.02,47.36C299.60,45.00 298.02,42.30 294.19,38.08Z" fill="#ffffff" stroke="#000000"/>
    <path d="M-911.48,464.07L-907.38,464.07L-907.38,488.20L-901.94,488.20L-901.94,492L-911.48,492ZM-890.66,484.55L-890.66,486.95C-890.77,488.96 -891.38,490.37 -892.75,491.47C-893.43,492.04 -894.38,492.30 -895.63,492.30C-898.10,492.30 -899.36,490.94 -899.97,489.57C-900.31,488.77 -900.54,487.86 -900.57,486.83L-900.57,476.38C-900.46,474.37 -899.81,472.89 -898.45,471.75C-897.80,471.18 -896.85,470.91 -895.60,470.91C-893.13,470.91 -891.87,472.28 -891.26,473.61C-890.92,474.41 -890.69,475.28 -890.66,476.27L-890.66,482.31L-897.00,482.31L-897.00,486.83C-896.96,487.63 -896.74,488.20 -896.39,488.62C-896.20,488.81 -895.94,488.92 -895.60,488.92C-894.87,488.92 -894.53,488.47 -894.38,487.90C-894.27,487.59 -894.23,487.25 -894.23,486.83L-894.23,484.55ZM-897.00,479.31L-894.23,479.31L-894.23,476.38C-894.23,475.58 -894.38,475.01 -894.76,474.56C-894.95,474.37 -895.25,474.25 -895.60,474.25C-896.32,474.25 -896.62,474.75 -896.81,475.32C-896.93,475.62 -896.96,475.96 -897.00,476.38ZM-882.22,476.15C-882.22,475.81 -882.22,475.28 -882.33,474.90C-882.49,474.52 -882.79,474.25 -883.28,474.25C-883.93,474.25 -884.20,474.75 -884.31,475.36C-884.35,475.66 -884.39,476.00 -884.39,476.34C-884.39,476.69 -884.39,477.03 -884.39,477.33L-888.22,477.33L-888.22,476.46C-888.22,474.94 -887.65,473.57 -886.74,472.54C-885.83,471.52 -884.54,470.91 -883.06,470.91C-881.80,470.91 -880.66,471.40 -879.79,472.24C-878.91,473.08 -878.38,474.25 -878.38,475.62L-878.38,488.39C-878.38,490.25 -878.27,491.09 -878.12,492L-881.88,492C-882.22,491.58 -882.22,490.59 -882.22,490.33L-882.49,490.33C-882.68,490.67 -883.02,491.16 -883.55,491.58C-884.08,492 -884.80,492.30 -885.56,492.30C-886.06,492.30 -886.86,492.11 -887.46,491.35C-888.11,490.63 -888.64,489.34 -888.64,487.17C-888.64,484.86 -887.96,483.18 -887.05,482.04C-886.13,480.90 -884.99,480.18 -884.04,479.69C-883.09,479.19 -882.37,478.85 -882.22,478.43ZM-882.22,481.97C-884.08,482.77 -884.88,484.63 -884.88,486.60C-884.88,486.87 -884.84,487.33 -884.69,487.74C-884.54,488.20 -884.27,488.54 -883.82,488.54C-882.94,488.54 -882.22,488.01 -882.22,487.29ZM-866.37,481.97C-866.49,483.91 -867.17,485.27 -868.50,486.30C-869.19,486.83 -870.14,487.10 -871.31,487.10C-871.43,487.10 -871.54,487.10 -871.66,487.10C-871.77,487.10 -871.92,487.10 -872.04,487.06C-872.38,487.36 -872.57,487.67 -872.57,488.01C-872.57,488.47 -872.19,488.73 -871.62,488.88C-871.05,489.07 -870.36,489.19 -869.64,489.30C-868.43,489.45 -867.13,489.76 -866.07,490.48C-865.04,491.20 -864.32,492.30 -864.32,494.13C-864.32,496.14 -865.20,497.51 -866.41,498.31C-867.67,499.11 -869.34,499.45 -870.90,499.45C-872.72,499.41 -874.28,499.14 -875.34,498.54C-876.44,497.93 -877.05,496.94 -877.05,495.42C-877.05,494.70 -876.67,494.09 -876.10,493.56C-875.53,493.03 -874.77,492.61 -874.05,492.27C-875.30,491.92 -876.37,491.13 -876.37,489.49C-876.37,488.88 -876.03,488.28 -875.57,487.71C-875.11,487.14 -874.54,486.68 -873.97,486.38C-875.08,485.65 -875.61,484.51 -875.87,483.56C-876.03,482.99 -876.14,482.42 -876.18,481.85L-876.18,476.19C-876.03,474.25 -875.42,472.85 -874.09,471.75C-873.44,471.18 -872.49,470.91 -871.31,470.91C-869.38,470.91 -868.20,471.78 -867.48,472.81C-867.21,472.54 -866.75,472.09 -866.15,471.67C-865.58,471.25 -864.93,470.91 -864.32,470.91L-864.32,474.33C-865.35,474.33 -866.11,474.52 -866.56,474.79C-866.53,474.98 -866.49,475.17 -866.45,475.28C-866.45,475.43 -866.45,475.58 -866.41,475.70C-866.37,475.81 -866.37,475.96 -866.37,476.08ZM-870.14,476.34C-870.14,475.62 -870.29,475.17 -870.59,474.75C-870.74,474.56 -870.97,474.44 -871.31,474.44C-871.92,474.44 -872.23,474.94 -872.34,475.39C-872.42,475.66 -872.45,476.00 -872.42,476.34L-872.42,482.04C-872.45,482.77 -872.34,483.22 -872.00,483.60C-871.85,483.79 -871.62,483.91 -871.31,483.91C-870.67,483.91 -870.40,483.45 -870.25,482.99C-870.17,482.73 -870.14,482.39 -870.14,482.04ZM-871.92,492.95C-872.72,493.41 -873.33,493.98 -873.33,494.77C-873.33,495.57 -872.61,496.22 -870.82,496.22C-870.17,496.22 -869.45,496.10 -868.88,495.88C-868.31,495.65 -867.89,495.31 -867.89,494.81C-867.89,494.47 -867.93,494.20 -868.20,493.94C-868.50,493.67 -869.00,493.48 -869.95,493.33ZM-856.84,471.21L-853.00,471.21L-853.00,492L-856.84,492L-856.84,490.25C-856.91,490.29 -857.06,490.44 -857.25,490.63C-857.71,491.09 -858.24,491.62 -858.93,492C-859.27,492.19 -859.61,492.30 -859.95,492.30C-860.98,492.30 -861.70,491.70 -862.16,490.90C-862.61,490.14 -862.84,489.11 -862.84,488.24L-862.84,471.21L-859.00,471.21L-859.00,487.67C-859.00,488.47 -858.55,488.58 -858.09,488.58C-857.67,488.58 -857.44,488.35 -857.18,488.09C-857.06,487.97 -856.95,487.78 -856.84,487.59ZM-840.34,484.55L-840.34,486.95C-840.46,488.96 -841.07,490.37 -842.43,491.47C-843.12,492.04 -844.07,492.30 -845.32,492.30C-847.79,492.30 -849.05,490.94 -849.65,489.57C-850.00,488.77 -850.22,487.86 -850.26,486.83L-850.26,476.38C-850.15,474.37 -849.50,472.89 -848.13,471.75C-847.49,471.18 -846.54,470.91 -845.28,470.91C-842.81,470.91 -841.56,472.28 -840.95,473.61C-840.61,474.41 -840.38,475.28 -840.34,476.27L-840.34,482.31L-846.69,482.31L-846.69,486.83C-846.65,487.63 -846.42,488.20 -846.08,488.62C-845.89,488.81 -845.63,488.92 -845.28,488.92C-844.56,488.92 -844.22,488.47 -844.07,487.90C-843.95,487.59 -843.92,487.25 -843.92,486.83L-843.92,484.55ZM-846.69,479.31L-843.92,479.31L-843.92,476.38C-843.92,475.58 -844.07,475.01 -844.45,474.56C-844.64,474.37 -844.94,474.25 -845.28,474.25C-846.01,474.25 -846.31,474.75 -846.50,475.32C-846.61,475.62 -846.65,475.96 -846.69,476.38ZM-831.15,474.10L-831.15,469.81C-831.15,469.05 -831.30,468.52 -831.68,468.06C-831.87,467.87 -832.17,467.76 -832.52,467.76C-833.24,467.76 -833.58,468.29 -833.73,468.78C-833.85,469.09 -833.88,469.43 -833.88,469.81L-833.88,486.60C-833.88,487.40 -833.69,487.93 -833.31,488.35C-833.12,488.54 -832.86,488.66 -832.52,488.66C-831.79,488.66 -831.45,488.20 -831.30,487.63C-831.19,487.36 -831.15,487.02 -831.15,486.60L-831.15,481.55L-832.78,481.55L-832.78,478.09L-827.04,478.09L-827.04,492L-829.48,492L-829.97,490.67C-830.73,491.62 -831.83,492.30 -833.16,492.30C-834.49,492.30 -835.40,491.96 -836.09,491.35C-836.77,490.78 -837.23,490.06 -837.53,489.30C-837.87,488.43 -838.03,487.40 -837.99,486.26L-837.99,469.81C-837.95,468.71 -837.72,467.68 -837.30,466.81C-836.96,466.05 -836.47,465.29 -835.71,464.72C-834.95,464.15 -833.88,463.77 -832.52,463.77C-831.15,463.77 -830.12,464.15 -829.36,464.72C-828.60,465.29 -828.07,466.05 -827.73,466.81C-827.31,467.68 -827.08,468.71 -827.04,469.81L-827.04,474.10ZM-814.54,486.95C-814.66,488.96 -815.26,490.37 -816.59,491.47C-817.28,492.04 -818.23,492.30 -819.48,492.30C-821.95,492.30 -823.17,490.94 -823.78,489.57C-824.12,488.77 -824.35,487.86 -824.38,486.83L-824.38,476.38C-824.27,474.37 -823.66,472.89 -822.33,471.75C-821.69,471.18 -820.74,470.91 -819.48,470.91C-817.01,470.91 -815.76,472.28 -815.15,473.61C-814.81,474.41 -814.58,475.28 -814.54,476.27ZM-818.15,476.38C-818.11,475.58 -818.27,475.01 -818.65,474.56C-818.84,474.37 -819.14,474.25 -819.48,474.25C-820.20,474.25 -820.51,474.75 -820.66,475.32C-820.77,475.62 -820.81,475.96 -820.77,476.38L-820.77,486.83C-820.81,487.63 -820.62,488.20 -820.28,488.62C-820.09,488.81 -819.82,488.92 -819.48,488.92C-818.76,488.92 -818.42,488.47 -818.27,487.90C-818.15,487.59 -818.11,487.25 -818.15,486.83ZM-807.21,466.08L-807.21,471.21L-804.59,471.21L-804.59,474.67L-807.21,474.67L-807.21,485.01C-807.21,485.65 -807.21,486.49 -807.06,487.17C-806.90,487.86 -806.60,488.43 -805.99,488.43C-805.69,488.43 -805.31,488.39 -805.04,488.35C-804.89,488.31 -804.74,488.31 -804.59,488.28L-804.59,492.04C-804.78,492.08 -804.97,492.15 -805.16,492.19C-805.54,492.27 -806.03,492.30 -806.64,492.30C-808.88,492.30 -809.94,491.16 -810.48,489.72C-811.01,488.28 -811.05,486.53 -811.05,485.31L-811.05,474.67L-812.98,474.67L-812.98,471.21L-811.05,471.21L-811.05,466.08ZM-798.70,492L-802.53,492L-802.53,464.07L-798.70,464.07L-798.70,472.96C-798.62,472.92 -798.47,472.77 -798.24,472.54C-797.82,472.13 -797.25,471.56 -796.57,471.18C-796.23,470.99 -795.92,470.91 -795.58,470.91C-794.55,470.91 -793.83,471.52 -793.38,472.28C-792.92,473.08 -792.69,474.10 -792.69,474.98L-792.69,492L-796.53,492L-796.53,475.55C-796.53,474.75 -796.99,474.63 -797.44,474.63C-797.86,474.63 -798.09,474.86 -798.35,475.13C-798.47,475.28 -798.58,475.43 -798.70,475.62ZM-789.73,464.07L-785.89,464.07L-785.89,467.91L-789.73,467.91ZM-789.73,492L-789.73,471.21L-785.89,471.21L-785.89,492ZM-779.32,487.21C-779.32,487.97 -779.28,488.88 -778.25,488.88C-777.38,488.88 -777.15,488.47 -777.15,487.21L-777.15,484.32L-773.31,484.32L-773.31,486.34C-773.31,488.66 -773.73,490.14 -774.57,491.05C-775.40,491.96 -776.62,492.30 -778.25,492.30C-779.62,492.30 -780.87,491.92 -781.75,490.97C-782.62,490.02 -783.15,488.47 -783.15,486.15L-783.15,477.07C-783.15,474.75 -782.62,473.19 -781.75,472.24C-780.87,471.29 -779.62,470.91 -778.25,470.91C-776.62,470.91 -775.40,471.25 -774.57,472.16C-773.73,473.08 -773.31,474.56 -773.31,476.88L-773.31,478.51L-777.15,478.51L-777.15,476.00C-777.15,474.75 -777.38,474.33 -778.25,474.33C-779.28,474.33 -779.32,475.24 -779.32,476.00ZM-771.03,479.95L-765.52,479.95L-765.52,483.56L-771.03,483.56ZM-755.30,492L-757.43,480.22L-758.53,480.22L-758.53,492L-762.63,492L-762.63,464.07L-758.53,464.07C-753.63,464.07 -751.54,466.84 -751.54,472.13C-751.54,474.90 -752.26,477.41 -753.82,478.47L-751.20,492ZM-758.53,476.42C-757.96,476.42 -757.20,476.34 -756.59,475.81C-755.98,475.28 -755.49,474.25 -755.49,472.28C-755.49,470.30 -755.98,469.24 -756.59,468.71C-757.20,468.17 -757.96,468.14 -758.53,468.14ZM-739.30,484.55L-739.30,486.95C-739.42,488.96 -740.02,490.37 -741.39,491.47C-742.08,492.04 -743.03,492.30 -744.28,492.30C-746.75,492.30 -748.00,490.94 -748.61,489.57C-748.95,488.77 -749.18,487.86 -749.22,486.83L-749.22,476.38C-749.11,474.37 -748.46,472.89 -747.09,471.75C-746.45,471.18 -745.50,470.91 -744.24,470.91C-741.77,470.91 -740.52,472.28 -739.91,473.61C-739.57,474.41 -739.34,475.28 -739.30,476.27L-739.30,482.31L-745.65,482.31L-745.65,486.83C-745.61,487.63 -745.38,488.20 -745.04,488.62C-744.85,488.81 -744.58,488.92 -744.24,488.92C-743.52,488.92 -743.18,488.47 -743.03,487.90C-742.91,487.59 -742.87,487.25 -742.87,486.83L-742.87,484.55ZM-745.65,479.31L-742.87,479.31L-742.87,476.38C-742.87,475.58 -743.03,475.01 -743.41,474.56C-743.60,474.37 -743.90,474.25 -744.24,474.25C-744.96,474.25 -745.27,474.75 -745.46,475.32C-745.57,475.62 -745.61,475.96 -745.65,476.38ZM-727.29,481.97C-727.41,483.91 -728.09,485.27 -729.42,486.30C-730.11,486.83 -731.06,487.10 -732.23,487.10C-732.35,487.10 -732.46,487.10 -732.58,487.10C-732.69,487.10 -732.84,487.10 -732.96,487.06C-733.30,487.36 -733.49,487.67 -733.49,488.01C-733.49,488.47 -733.11,488.73 -732.54,488.88C-731.97,489.07 -731.28,489.19 -730.56,489.30C-729.35,489.45 -728.05,489.76 -726.99,490.48C-725.96,491.20 -725.24,492.30 -725.24,494.13C-725.24,496.14 -726.12,497.51 -727.33,498.31C-728.59,499.11 -730.26,499.45 -731.82,499.45C-733.64,499.41 -735.20,499.14 -736.26,498.54C-737.36,497.93 -737.97,496.94 -737.97,495.42C-737.97,494.70 -737.59,494.09 -737.02,493.56C-736.45,493.03 -735.69,492.61 -734.97,492.27C-736.22,491.92 -737.29,491.13 -737.29,489.49C-737.29,488.88 -736.95,488.28 -736.49,487.71C-736.03,487.14 -735.46,486.68 -734.89,486.38C-736.00,485.65 -736.53,484.51 -736.79,483.56C-736.95,482.99 -737.06,482.42 -737.10,481.85L-737.10,476.19C-736.95,474.25 -736.34,472.85 -735.01,471.75C-734.36,471.18 -733.41,470.91 -732.23,470.91C-730.30,470.91 -729.12,471.78 -728.40,472.81C-728.13,472.54 -727.67,472.09 -727.07,471.67C-726.50,471.25 -725.85,470.91 -725.24,470.91L-725.24,474.33C-726.27,474.33 -727.03,474.52 -727.48,474.79C-727.45,474.98 -727.41,475.17 -727.37,475.28C-727.37,475.43 -727.37,475.58 -727.33,475.70C-727.29,475.81 -727.29,475.96 -727.29,476.08ZM-731.06,476.34C-731.06,475.62 -731.21,475.17 -731.51,474.75C-731.66,474.56 -731.89,474.44 -732.23,474.44C-732.84,474.44 -733.15,474.94 -733.26,475.39C-733.34,475.66 -733.37,476.00 -733.34,476.34L-733.34,482.04C-733.37,482.77 -733.26,483.22 -732.92,483.60C-732.77,483.79 -732.54,483.91 -732.23,483.91C-731.59,483.91 -731.32,483.45 -731.17,482.99C-731.09,482.73 -731.06,482.39 -731.06,482.04ZM-732.84,492.95C-733.64,493.41 -734.25,493.98 -734.25,494.77C-734.25,495.57 -733.53,496.22 -731.74,496.22C-731.09,496.22 -730.37,496.10 -729.80,495.88C-729.23,495.65 -728.81,495.31 -728.81,494.81C-728.81,494.47 -728.85,494.20 -729.12,493.94C-729.42,493.67 -729.92,493.48 -730.87,493.33ZM-717.76,471.21L-713.92,471.21L-713.92,492L-717.76,492L-717.76,490.25C-717.83,490.29 -717.98,490.44 -718.17,490.63C-718.63,491.09 -719.16,491.62 -719.85,492C-720.19,492.19 -720.53,492.30 -720.87,492.30C-721.90,492.30 -722.62,491.70 -723.08,490.90C-723.53,490.14 -723.76,489.11 -723.76,488.24L-723.76,471.21L-719.92,471.21L-719.92,487.67C-719.92,488.47 -719.47,488.58 -719.01,488.58C-718.59,488.58 -718.36,488.35 -718.10,488.09C-717.98,487.97 -717.87,487.78 -717.76,487.59ZM-710.88,492L-710.88,464.07L-707.04,464.07L-707.04,492ZM-698.19,476.15C-698.19,475.81 -698.19,475.28 -698.30,474.90C-698.45,474.52 -698.76,474.25 -699.25,474.25C-699.90,474.25 -700.16,474.75 -700.28,475.36C-700.31,475.66 -700.35,476.00 -700.35,476.34C-700.35,476.69 -700.35,477.03 -700.35,477.33L-704.19,477.33L-704.19,476.46C-704.19,474.94 -703.62,473.57 -702.71,472.54C-701.80,471.52 -700.50,470.91 -699.02,470.91C-697.77,470.91 -696.63,471.40 -695.75,472.24C-694.88,473.08 -694.35,474.25 -694.35,475.62L-694.35,488.39C-694.35,490.25 -694.23,491.09 -694.08,492L-697.84,492C-698.19,491.58 -698.19,490.59 -698.19,490.33L-698.45,490.33C-698.64,490.67 -698.98,491.16 -699.52,491.58C-700.05,492 -700.77,492.30 -701.53,492.30C-702.02,492.30 -702.82,492.11 -703.43,491.35C-704.08,490.63 -704.61,489.34 -704.61,487.17C-704.61,484.86 -703.92,483.18 -703.01,482.04C-702.10,480.90 -700.96,480.18 -700.01,479.69C-699.06,479.19 -698.34,478.85 -698.19,478.43ZM-698.19,481.97C-700.05,482.77 -700.85,484.63 -700.85,486.60C-700.85,486.87 -700.81,487.33 -700.66,487.74C-700.50,488.20 -700.24,488.54 -699.78,488.54C-698.91,488.54 -698.19,488.01 -698.19,487.29ZM-684.05,475.17C-684.39,475.05 -684.77,475.01 -685.11,475.01C-685.72,475.01 -686.44,475.09 -687.05,475.66C-687.77,476.27 -687.89,476.91 -687.89,477.56L-687.89,492L-691.73,492L-691.73,471.21L-687.89,471.21L-687.89,473.53C-687.85,473.27 -687.58,472.62 -686.98,472.01C-686.37,471.44 -685.46,470.91 -684.05,470.91Z"/>
</svg>