<?xml version="1.0"?>
<svg xmlns="http://www.w3.org/2000/svg" width="1920" height="1080" viewBox="-960 -540 1920 1080">
    <path d="M-573.88,-355L-573.88,-285L-643.88,-285L-643.88,-272.50L-573.88,-272.50L-573.88,-202.50L-561.38,-202.50L-561.38,-272.50L-491.38,-272.50L-491.38,-285L-561.38,-285L-561.38,-355ZM-213.88,-252.50L-278.63,-404.25L-355.38,-404.25L-355.38,-210L-310.88,-210L-310.88,-377L-235.63,-210L-192.13,-210L-116.88,-377L-116.88,-210L-72.38,-210L-72.38,-404.25L-149.13,-404.25ZM106.38,-248L108.63,-299.75C109.63,-328 85.88,-352 40.88,-352C-29.13,-352 -42.38,-304.75 -42.38,-304.75L0.63,-293.75C0.63,-293.75 0.88,-324.50 38.88,-324.50C64.38,-324.50 67.38,-309 67.38,-296.25C-8.63,-289.75 -35.88,-263 -35.88,-239.75C-35.88,-218.75 -20.38,-206.75 5.13,-206.75C48.13,-206.75 71.63,-251.50 72.88,-253.75C72.88,-225.75 80.38,-206.75 110.13,-206.75C131.88,-206.75 143.38,-219.75 143.38,-219.75L135.13,-246.75C135.13,-246.75 127.88,-234.25 116.38,-234.25C108.88,-234.25 106.13,-240.25 106.38,-248ZM7.13,-248.25C7.13,-261.50 21.88,-278.75 67.38,-283L67.38,-273.25C67.38,-273.25 50.63,-234.25 21.63,-234.25C9.13,-234.25 7.13,-242.25 7.13,-248.25ZM207.13,-294.25C207.13,-294.25 211.13,-324.50 228.63,-324.50C233.38,-324.50 239.63,-322.25 239.63,-312C239.63,-293 235.38,-279 235.38,-279L275.38,-289.25C275.38,-289.25 278.63,-298.50 278.63,-315.75C278.63,-335.25 270.13,-352 241.38,-352C201.13,-352 201.63,-309.50 201.63,-309.50L189.88,-348.75L165.88,-348.75L165.88,-210L207.13,-210ZM427.88,-266.25C427.88,-266.25 427.38,-234.25 389.63,-234.25C360.13,-234.25 344.13,-252.25 344.13,-279.50C344.13,-304.25 357.38,-324.50 386.13,-324.50C430.38,-324.50 422.88,-275.75 422.88,-275.75L462.88,-286C462.88,-286 469.13,-352 385.63,-352C333.63,-352 301.13,-320.75 301.13,-279.50C301.13,-232.50 340.63,-206.75 385.38,-206.75C457.13,-206.75 467.88,-256 467.88,-256ZM-618.38,11.35C-618.38,69.85 -569.63,111.85 -494.63,111.85C-419.63,111.85 -370.88,69.85 -370.88,11.35C-370.88,-47.15 -419.63,-89.15 -494.63,-89.15C-569.63,-89.15 -618.38,-47.15 -618.38,11.35ZM-572.13,11.35C-572.13,-26.90 -548.63,-58.40 -494.63,-58.40C-440.63,-58.40 -417.13,-26.90 -417.13,11.35C-417.13,49.60 -440.63,81.10 -494.63,81.10C-548.63,81.10 -572.13,49.60 -572.13,11.35ZM-333.38,-11.40L-309.13,-11.40L-309.13,-85.65L-333.38,-85.65ZM-172.63,-85.65L-264.13,-85.65L-264.13,108.60L-167.63,108.60C-101.13,108.60 -71.13,88.85 -71.13,51.85C-71.13,14.85 -108.13,8.35 -111.63,7.85C-108.38,7.35 -76.13,1.10 -76.13,-31.40C-76.13,-68.40 -106.13,-85.65 -172.63,-85.65ZM-170.13,-4.40L-219.63,-4.40L-219.63,-58.40L-170.13,-58.40C-141.63,-58.40 -122.38,-51.40 -122.38,-31.40C-122.38,-11.40 -141.63,-4.40 -170.13,-4.40ZM-219.63,81.10L-219.63,22.10L-162.88,22.10C-135.63,22.10 -117.38,32.10 -117.38,51.60C-117.38,71.60 -136.63,81.10 -165.13,81.10ZM7.63,24.35C7.63,24.35 11.63,-5.90 29.13,-5.90C33.88,-5.90 40.13,-3.65 40.13,6.60C40.13,25.60 35.88,39.60 35.88,39.60L75.88,29.35C75.88,29.35 79.13,20.10 79.13,2.85C79.13,-16.65 70.63,-33.40 41.88,-33.40C1.63,-33.40 2.13,9.10 2.13,9.10L-9.63,-30.15L-33.63,-30.15L-33.63,108.60L7.63,108.60ZM109.13,-53.90L150.38,-53.90L150.38,-85.65L109.13,-85.65ZM109.13,108.60L150.38,108.60L150.38,-30.15L109.13,-30.15ZM229.38,41.60L350.88,44.10C354.63,24.35 350.38,-33.40 272.13,-33.40C220.38,-33.40 187.88,-2.15 187.88,39.10C187.88,86.10 227.38,111.85 272.13,111.85C344.13,111.85 354.63,62.60 354.63,62.60L314.63,52.35C314.63,52.35 314.38,84.35 276.38,84.35C242.63,84.35 229.63,63.10 229.38,41.60ZM308.13,19.60L231.88,22.10C231.88,22.10 236.88,-7.15 271.38,-7.15C304.63,-7.15 308.13,19.60 308.13,19.60ZM509.63,108.60L550.88,108.60L550.88,23.60C550.88,-11.65 531.88,-33.40 485.88,-33.40C430.88,-33.40 427.88,9.10 427.88,9.10L416.13,-30.15L392.13,-30.15L392.13,108.60L433.38,108.60L433.38,24.60C433.38,24.60 441.88,-5.90 474.63,-5.90C496.88,-5.90 509.63,3.10 509.63,21.60Z" fill="#ffffff" stroke="#000000"/>
    <path d="M-585.12,-329.61L-582.86,-260.34L-652.12,-258.09L-651.72,-245.72L-582.46,-247.97L-580.20,-178.71L-567.83,-179.11L-570.09,-248.38L-500.83,-250.63L-501.23,-263.00L-570.49,-260.74L-572.75,-330.01ZM-225.60,-239.79L-294.56,-387.85L-370.50,-385.38L-364.24,-193.17L-320.21,-194.61L-325.59,-359.85L-245.75,-197.03L-202.71,-198.44L-133.64,-366.10L-128.25,-200.86L-84.22,-202.30L-90.48,-394.50L-166.43,-392.03ZM91.42,-245.66L91.98,-296.93C92.06,-324.92 67.79,-347.90 23.26,-346.45C-46.00,-344.19 -57.59,-297.01 -57.59,-297.01L-14.69,-287.52C-14.69,-287.52 -15.43,-317.95 22.17,-319.18C47.40,-320.00 50.87,-304.76 51.28,-292.14C-23.71,-283.26 -49.81,-255.91 -49.07,-232.91C-48.39,-212.13 -32.66,-200.76 -7.43,-201.58C35.11,-202.96 56.92,-248.00 58.09,-250.27C58.99,-222.56 67.03,-204.00 96.46,-204.96C117.98,-205.66 128.94,-218.90 128.94,-218.90L119.91,-245.35C119.91,-245.35 113.14,-232.74 101.76,-232.37C94.34,-232.13 91.42,-237.98 91.42,-245.66ZM-6.79,-242.71C-7.22,-255.82 6.82,-273.36 51.70,-279.03L52.02,-269.38C52.02,-269.38 36.70,-230.25 8.01,-229.32C-4.36,-228.92 -6.60,-236.77 -6.79,-242.71ZM189.62,-294.67C189.62,-294.67 192.60,-324.73 209.92,-325.29C214.62,-325.44 220.88,-323.42 221.21,-313.28C221.82,-294.48 218.07,-280.49 218.07,-280.49L257.31,-291.92C257.31,-291.92 260.23,-301.18 259.68,-318.25C259.05,-337.54 250.10,-353.84 221.65,-352.91C181.82,-351.62 183.69,-309.58 183.69,-309.58L170.80,-348.04L147.05,-347.26L151.52,-209.97L192.34,-211.30ZM408.95,-274.08C408.95,-274.08 409.49,-242.40 372.13,-241.18C342.94,-240.23 326.53,-257.52 325.65,-284.49C324.86,-308.98 337.31,-329.44 365.76,-330.37C409.55,-331.79 403.70,-283.32 403.70,-283.32L442.95,-294.75C442.95,-294.75 447.00,-360.25 364.38,-357.56C312.93,-355.89 281.78,-323.92 283.11,-283.10C284.62,-236.60 324.54,-212.39 368.82,-213.83C439.81,-216.15 448.86,-265.22 448.86,-265.22ZM-617.34,34.32C-615.46,92.21 -565.86,132.19 -491.65,129.78C-417.44,127.36 -370.56,84.23 -372.45,26.35C-374.33,-31.54 -423.92,-71.52 -498.13,-69.11C-572.34,-66.69 -619.23,-23.56 -617.34,34.32ZM-571.58,32.83C-572.81,-5.01 -550.57,-36.94 -497.14,-38.68C-443.71,-40.42 -419.44,-10.01 -418.21,27.84C-416.98,65.68 -439.21,97.61 -492.65,99.35C-546.08,101.09 -570.34,70.68 -571.58,32.83ZM-336.07,2.63L-312.08,1.85L-314.47,-71.62L-338.47,-70.84ZM-179.41,-76.02L-269.95,-73.07L-263.68,119.13L-168.20,116.02C-102.40,113.88 -73.35,93.37 -74.55,56.76C-75.74,20.15 -112.56,14.91 -116.04,14.53C-112.84,13.93 -81.13,6.70 -82.18,-25.45C-83.37,-62.06 -113.61,-78.17 -179.41,-76.02ZM-174.32,4.29L-223.30,5.89L-225.04,-47.54L-176.06,-49.14C-147.86,-50.06 -128.58,-43.75 -127.94,-23.96C-127.29,-4.17 -146.12,3.37 -174.32,4.29ZM-220.54,90.49L-222.44,32.11L-166.29,30.28C-139.33,29.40 -120.95,38.71 -120.32,58.00C-119.67,77.79 -138.41,87.81 -166.61,88.73ZM2.49,27.01C2.49,27.01 5.47,-3.05 22.79,-3.61C27.49,-3.77 33.74,-1.74 34.08,8.40C34.69,27.20 30.93,41.19 30.93,41.19L70.18,29.76C70.18,29.76 73.10,20.50 72.54,3.43C71.92,-15.86 62.97,-32.16 34.52,-31.24C-5.31,-29.94 -3.44,12.10 -3.44,12.10L-16.34,-26.36L-40.08,-25.59L-35.61,111.70L5.20,110.37ZM100.40,-53.69L141.21,-55.02L140.19,-86.43L99.38,-85.10ZM105.64,107.10L146.45,105.77L141.98,-31.52L101.16,-30.19ZM222.46,36.93L342.76,35.49C345.84,15.83 339.77,-41.18 262.34,-38.66C211.14,-36.99 179.99,-5.02 181.32,35.79C182.83,82.30 222.75,106.51 267.03,105.06C338.27,102.74 347.07,53.67 347.07,53.67L307.16,44.82C307.16,44.82 307.94,76.49 270.34,77.72C236.95,78.80 223.40,58.20 222.46,36.93ZM299.67,12.62L224.31,17.56C224.31,17.56 228.31,-11.55 262.45,-12.66C295.35,-13.73 299.67,12.62 299.67,12.62ZM501.92,94.19L542.74,92.86L540.00,8.76C538.86,-26.12 519.36,-47.03 473.84,-45.55C419.42,-43.77 417.82,-1.62 417.82,-1.62L404.93,-40.08L381.19,-39.31L385.66,97.98L426.47,96.65L423.77,13.53C423.77,13.53 431.19,-16.92 463.60,-17.97C485.62,-18.69 498.52,-10.20 499.12,8.11Z" fill="#ffffff" stroke="#000000"/>
    <path d="M-595.20,-303.93L-590.73,-235.47L-659.19,-231.01L-658.39,-218.79L-589.94,-223.25L-585.47,-154.80L-573.25,-155.59L-577.71,-224.05L-509.26,-228.51L-510.06,-240.74L-578.51,-236.27L-582.97,-304.73ZM-236.61,-226.65L-309.61,-370.92L-384.66,-366.03L-372.27,-176.07L-328.76,-178.90L-339.41,-342.22L-255.17,-183.70L-212.63,-186.48L-149.69,-354.59L-139.04,-191.28L-95.52,-194.11L-107.91,-384.08L-182.97,-379.18ZM76.86,-242.68L75.76,-293.43C74.93,-321.12 50.18,-343.07 6.17,-340.20C-62.28,-335.74 -72.23,-288.69 -72.23,-288.69L-29.48,-280.67C-29.48,-280.67 -31.19,-310.76 5.97,-313.18C30.91,-314.81 34.83,-299.84 35.64,-287.37C-38.27,-276.17 -63.21,-248.27 -61.73,-225.54C-60.39,-205.00 -44.46,-194.25 -19.53,-195.88C22.52,-198.62 42.65,-243.88 43.73,-246.16C45.52,-218.78 54.06,-200.68 83.16,-202.58C104.43,-203.96 114.84,-217.41 114.84,-217.41L105.05,-243.29C105.05,-243.29 98.76,-230.60 87.51,-229.87C80.18,-229.39 77.11,-235.08 76.86,-242.68ZM-20.22,-236.59C-21.06,-249.55 -7.74,-267.36 36.49,-274.42L37.11,-264.88C37.11,-264.88 23.21,-225.67 -5.14,-223.82C-17.37,-223.03 -19.83,-230.72 -20.22,-236.59ZM172.43,-294.33C172.43,-294.33 174.42,-324.17 191.53,-325.28C196.17,-325.59 202.43,-323.79 203.08,-313.76C204.30,-295.18 201.03,-281.22 201.03,-281.22L239.50,-293.79C239.50,-293.79 242.08,-303.05 240.98,-319.92C239.74,-338.99 230.36,-354.82 202.24,-352.99C162.88,-350.42 166.08,-308.89 166.08,-308.89L152.09,-346.53L128.62,-345.00L137.47,-209.31L177.81,-211.94ZM390.10,-281.03C390.10,-281.03 391.65,-249.70 354.73,-247.29C325.88,-245.41 309.09,-262.00 307.35,-288.64C305.77,-312.85 317.44,-333.50 345.55,-335.33C388.83,-338.15 384.60,-290.00 384.60,-290.00L423.06,-302.57C423.06,-302.57 424.97,-367.52 343.31,-362.19C292.46,-358.87 262.67,-326.24 265.30,-285.90C268.30,-239.94 308.57,-217.28 352.33,-220.13C422.49,-224.71 429.87,-273.56 429.87,-273.56ZM-615.35,57.17C-611.62,114.38 -561.27,152.34 -487.92,147.56C-414.58,142.78 -369.58,98.59 -373.32,41.39C-377.05,-15.82 -427.40,-53.79 -500.74,-49.00C-574.09,-44.22 -619.08,-0.04 -615.35,57.17ZM-570.12,54.22C-572.56,16.82 -551.59,-15.49 -498.78,-18.93C-445.97,-22.38 -420.98,6.93 -418.54,44.34C-416.10,81.74 -437.08,114.04 -489.88,117.49C-542.69,120.93 -567.68,91.63 -570.12,54.22ZM-338.09,16.75L-314.38,15.20L-319.12,-57.41L-342.83,-55.86ZM-185.63,-66.12L-275.11,-60.28L-262.72,129.68L-168.35,123.53C-103.32,119.28 -75.24,98.06 -77.60,61.87C-79.96,25.69 -116.56,21.69 -120.01,21.43C-116.87,20.73 -85.73,12.56 -87.80,-19.22C-90.16,-55.40 -120.60,-70.36 -185.63,-66.12ZM-178.00,13.18L-226.41,16.34L-229.85,-36.47L-181.45,-39.63C-153.58,-41.45 -134.30,-35.83 -133.03,-16.27C-131.75,3.29 -150.13,11.36 -178.00,13.18ZM-220.96,99.95L-224.72,42.25L-169.22,38.63C-142.57,36.89 -124.09,45.51 -122.85,64.58C-121.57,84.14 -139.79,94.66 -167.66,96.47ZM-2.34,29.96C-2.34,29.96 -0.36,0.12 16.75,-0.99C21.40,-1.30 27.65,0.50 28.31,10.53C29.52,29.11 26.26,43.07 26.26,43.07L64.72,30.50C64.72,30.50 67.31,21.24 66.21,4.37C64.96,-14.70 55.58,-30.53 27.47,-28.70C-11.89,-26.13 -8.69,15.40 -8.69,15.40L-22.69,-22.24L-46.16,-20.71L-37.31,114.98L3.03,112.35ZM91.93,-53.04L132.27,-55.67L130.24,-86.72L89.90,-84.09ZM102.29,105.88L142.63,103.24L133.78,-32.44L93.44,-29.81ZM215.61,32.69L334.59,27.38C337.00,7.83 329.16,-48.38 252.63,-43.39C202.03,-40.08 172.24,-7.45 174.87,32.89C177.87,78.85 218.14,101.51 261.90,98.66C332.31,94.07 339.44,45.23 339.44,45.23L299.67,37.76C299.67,37.76 301.46,69.07 264.30,71.49C231.30,73.65 217.23,53.69 215.61,32.69ZM291.22,6.15L216.81,13.46C216.81,13.46 219.84,-15.47 253.58,-17.67C286.09,-19.79 291.22,6.15 291.22,6.15ZM493.95,80.33L534.29,77.70L528.87,-5.42C526.62,-39.89 506.65,-59.95 461.67,-57.02C407.88,-53.51 407.66,-11.76 407.66,-11.76L393.66,-49.39L370.19,-47.86L379.04,87.83L419.38,85.20L414.02,3.05C414.02,3.05 420.39,-27.32 452.42,-29.41C474.18,-30.83 487.22,-22.84 488.40,-4.75Z" fill="#ffffff" stroke="#000000"/>
    <path d="M-604.12,-278.02L-597.49,-210.45L-665.07,-203.83L-663.89,-191.76L-596.31,-198.38L-589.69,-130.80L-577.62,-131.99L-584.24,-199.56L-516.67,-206.19L-517.85,-218.25L-585.43,-211.63L-592.05,-279.21ZM-246.88,-213.13L-323.75,-353.50L-397.84,-346.24L-379.46,-158.72L-336.50,-162.93L-352.30,-324.14L-263.86,-170.05L-221.87,-174.16L-165.02,-342.50L-149.22,-181.28L-106.26,-185.49L-124.64,-373.01L-198.73,-365.75ZM62.70,-239.09L59.98,-289.26C58.27,-316.62 33.07,-337.55 -10.37,-333.29C-77.94,-326.67 -86.26,-279.80 -86.26,-279.80L-43.71,-273.25C-43.71,-273.25 -46.38,-302.96 -9.70,-306.55C14.92,-308.96 19.28,-294.28 20.49,-281.98C-52.26,-268.51 -76.04,-240.11 -73.84,-217.66C-71.85,-197.39 -55.75,-187.27 -31.14,-189.68C10.37,-193.75 28.83,-239.18 29.82,-241.47C32.47,-214.44 41.51,-196.80 70.23,-199.62C91.22,-201.68 101.10,-215.31 101.10,-215.31L90.58,-240.60C90.58,-240.60 84.76,-227.85 73.66,-226.76C66.42,-226.05 63.20,-231.58 62.70,-239.09ZM-33.13,-229.94C-34.39,-242.73 -21.78,-260.78 21.74,-269.18L22.67,-259.77C22.67,-259.77 10.19,-220.54 -17.81,-217.79C-29.88,-216.61 -32.57,-224.14 -33.13,-229.94ZM155.59,-293.27C155.59,-293.27 156.59,-322.85 173.48,-324.50C178.07,-324.95 184.32,-323.37 185.29,-313.48C187.08,-295.13 184.30,-281.22 184.30,-281.22L221.95,-294.90C221.95,-294.90 224.21,-304.13 222.58,-320.79C220.74,-339.61 210.95,-354.98 183.19,-352.26C144.33,-348.45 148.84,-307.47 148.84,-307.47L133.78,-344.25L110.61,-341.98L123.74,-208.03L163.56,-211.93ZM371.35,-287.12C371.35,-287.12 373.89,-256.18 337.45,-252.61C308.97,-249.82 291.82,-265.68 289.24,-291.99C286.90,-315.88 297.78,-336.68 325.53,-339.40C368.25,-343.59 365.62,-295.82 365.62,-295.82L403.27,-309.50C403.27,-309.50 403.05,-373.80 322.45,-365.90C272.25,-360.98 243.83,-327.74 247.73,-287.92C252.18,-242.55 292.75,-221.43 335.95,-225.66C405.21,-232.45 410.93,-281.01 410.93,-281.01ZM-612.42,79.85C-606.88,136.33 -555.85,172.26 -483.44,165.16C-411.04,158.07 -367.95,112.91 -373.49,56.44C-379.02,-0.04 -430.06,-35.97 -502.46,-28.88C-574.86,-21.78 -617.95,23.38 -612.42,79.85ZM-567.77,75.48C-571.39,38.55 -551.68,5.92 -499.55,0.81C-447.42,-4.30 -421.75,23.89 -418.13,60.81C-414.51,97.74 -434.22,130.37 -486.35,135.48C-538.48,140.59 -564.15,112.40 -567.77,75.48ZM-339.44,30.93L-316.03,28.63L-323.05,-43.05L-346.46,-40.75ZM-191.28,-55.96L-279.61,-47.31L-261.23,140.22L-168.07,131.09C-103.87,124.80 -76.78,102.89 -80.28,67.17C-83.78,31.46 -120.12,28.68 -123.54,28.53C-120.45,27.74 -89.91,18.66 -92.99,-12.72C-96.49,-48.44 -127.08,-62.25 -191.28,-55.96ZM-181.18,22.24L-228.96,26.92L-234.07,-25.21L-186.28,-29.89C-158.77,-32.59 -139.53,-27.65 -137.63,-8.34C-135.74,10.96 -153.66,19.54 -181.18,22.24ZM-220.87,109.46L-226.46,52.50L-171.67,47.14C-145.36,44.56 -126.80,52.48 -124.95,71.31C-123.06,90.62 -140.75,101.61 -168.26,104.31ZM-6.86,33.18C-6.86,33.18 -5.86,3.60 11.03,1.94C15.62,1.49 21.87,3.07 22.83,12.97C24.63,31.31 21.85,45.23 21.85,45.23L59.50,31.55C59.50,31.55 61.76,22.31 60.13,5.66C58.28,-13.17 48.49,-28.53 20.74,-25.81C-18.12,-22.01 -13.61,18.98 -13.61,18.98L-28.67,-17.80L-51.84,-15.53L-38.71,118.41L1.11,114.51ZM83.72,-51.97L123.54,-55.87L120.54,-86.52L80.72,-82.62ZM99.10,104.91L138.92,101.00L125.79,-32.94L85.97,-29.04ZM208.84,28.85L326.37,19.77C328.12,0.35 318.56,-55.00 243.02,-47.60C193.06,-42.70 164.64,-9.46 168.54,30.36C172.99,75.74 213.56,96.86 256.76,92.62C326.27,85.81 331.74,37.27 331.74,37.27L292.16,31.16C292.16,31.16 294.94,62.08 258.26,65.67C225.68,68.87 211.12,49.58 208.84,28.85ZM282.79,0.16L209.41,9.79C209.41,9.79 211.47,-18.92 244.78,-22.19C276.88,-25.33 282.79,0.16 282.79,0.16ZM485.73,67.02L525.55,63.11L517.51,-18.94C514.17,-52.97 493.77,-72.17 449.37,-67.82C396.27,-62.62 397.40,-21.30 397.40,-21.30L382.34,-58.08L359.17,-55.81L372.30,78.13L412.12,74.23L404.17,-6.86C404.17,-6.86 409.49,-37.11 441.11,-40.21C462.59,-42.31 475.75,-34.83 477.50,-16.97Z" fill="#ffffff" stroke="#000000"/>
    <path d="M-611.87,-251.94L-603.14,-185.31L-669.77,-176.58L-668.21,-164.69L-601.58,-173.41L-592.85,-106.78L-580.95,-108.34L-589.68,-174.97L-523.05,-183.70L-524.61,-195.60L-591.24,-186.87L-599.97,-253.50ZM-256.41,-199.26L-336.97,-335.64L-410.02,-326.07L-385.80,-141.17L-343.44,-146.72L-364.27,-305.68L-271.82,-156.10L-230.41,-161.52L-179.61,-329.87L-158.78,-170.90L-116.42,-176.45L-140.64,-361.35L-213.70,-351.78ZM48.98,-234.91L44.67,-284.45C42.10,-311.47 16.50,-331.35 -26.33,-325.74C-92.96,-317.01 -99.68,-270.38 -99.68,-270.38L-57.38,-265.27C-57.38,-265.27 -60.98,-294.58 -24.81,-299.31C-0.53,-302.49 4.26,-288.11 5.84,-275.98C-65.69,-260.31 -88.29,-231.45 -85.39,-209.32C-82.77,-189.33 -66.52,-179.84 -42.25,-183.02C-1.32,-188.38 15.47,-233.91 16.38,-236.21C19.87,-209.56 29.38,-192.41 57.70,-196.12C78.40,-198.83 87.73,-212.64 87.73,-212.64L76.51,-237.31C76.51,-237.31 71.16,-224.50 60.22,-223.07C53.08,-222.14 49.71,-227.50 48.98,-234.91ZM-45.52,-222.77C-47.17,-235.39 -35.28,-253.65 7.50,-263.36L8.71,-254.08C8.71,-254.08 -2.37,-214.87 -29.97,-211.26C-41.87,-209.70 -44.77,-217.06 -45.52,-222.77ZM139.12,-291.50C139.12,-291.50 139.15,-320.79 155.81,-322.97C160.33,-323.57 166.56,-322.20 167.84,-312.45C170.21,-294.36 167.91,-280.50 167.91,-280.50L204.71,-295.25C204.71,-295.25 206.65,-304.46 204.50,-320.88C202.06,-339.44 191.88,-354.32 164.52,-350.74C126.21,-345.72 131.98,-305.33 131.98,-305.33L115.90,-341.22L93.06,-338.23L110.36,-206.16L149.62,-211.30ZM352.73,-292.37C352.73,-292.37 356.25,-261.85 320.32,-257.14C292.23,-253.46 274.76,-268.60 271.36,-294.54C268.28,-318.10 278.36,-339.03 305.73,-342.61C347.85,-348.13 346.79,-300.79 346.79,-300.79L383.59,-315.53C383.59,-315.53 381.31,-379.14 301.83,-368.73C252.33,-362.24 225.29,-328.44 230.43,-289.18C236.29,-244.44 277.10,-224.86 319.70,-230.44C388.00,-239.38 392.09,-287.60 392.09,-287.60ZM-608.54,102.32C-601.25,158.01 -549.61,191.91 -478.22,182.55C-406.83,173.20 -365.66,127.15 -372.96,71.46C-380.25,15.78 -431.89,-18.12 -503.28,-8.77C-574.67,0.58 -615.84,46.64 -608.54,102.32ZM-564.52,96.56C-569.29,60.15 -550.85,27.23 -499.45,20.50C-448.05,13.77 -421.75,40.82 -416.98,77.23C-412.21,113.64 -430.65,146.55 -482.05,153.28C-533.46,160.02 -559.75,132.96 -564.52,96.56ZM-340.10,45.13L-317.02,42.11L-326.27,-28.57L-349.36,-25.54ZM-196.34,-45.59L-283.44,-34.18L-259.22,150.72L-167.36,138.69C-104.07,130.40 -77.97,107.86 -82.59,72.64C-87.20,37.42 -123.23,35.84 -126.62,35.81C-123.59,34.92 -93.67,24.95 -97.72,-5.98C-102.34,-41.20 -133.05,-53.88 -196.34,-45.59ZM-183.83,31.44L-230.95,37.61L-237.68,-13.79L-190.57,-19.96C-163.44,-23.52 -144.24,-19.25 -141.75,-0.22C-139.25,18.82 -156.71,27.89 -183.83,31.44ZM-220.29,119.00L-227.65,62.84L-173.63,55.76C-147.69,52.36 -129.07,59.61 -126.64,78.17C-124.15,97.20 -141.29,108.65 -168.41,112.20ZM-11.05,36.64C-11.05,36.64 -11.02,7.35 5.64,5.17C10.16,4.58 16.39,5.94 17.67,15.69C20.04,33.78 17.74,47.64 17.74,47.64L54.53,32.89C54.53,32.89 56.47,23.68 54.32,7.26C51.89,-11.30 41.71,-26.18 14.35,-22.60C-23.97,-17.58 -18.19,22.81 -18.19,22.81L-34.27,-13.08L-57.11,-10.09L-39.81,121.98L-0.55,116.84ZM75.80,-50.50L115.07,-55.64L111.11,-85.86L71.84,-80.72ZM96.07,104.18L135.33,99.04L118.03,-33.03L78.76,-27.89ZM202.17,25.41L318.14,12.64C319.24,-6.62 308.00,-61.06 233.51,-51.31C184.25,-44.86 157.22,-11.06 162.36,28.21C168.22,72.95 209.03,92.53 251.62,86.95C320.16,77.97 324.01,29.78 324.01,29.78L284.66,25.02C284.66,25.02 288.41,55.51 252.24,60.24C220.12,64.45 205.09,45.85 202.17,25.41ZM274.39,-5.35L202.12,6.54C202.12,6.54 203.23,-21.93 236.07,-26.23C267.72,-30.37 274.39,-5.35 274.39,-5.35ZM477.29,54.24L516.55,49.10L505.95,-31.81C501.56,-65.36 480.76,-83.70 436.98,-77.96C384.62,-71.10 387.07,-30.27 387.07,-30.27L370.99,-66.17L348.14,-63.18L365.44,68.89L404.71,63.75L394.23,-16.21C394.23,-16.21 398.52,-46.30 429.70,-50.38C450.88,-53.16 464.13,-46.18 466.44,-28.57Z" fill="#ffffff" stroke="#000000"/>
    <path d="M-618.45,-225.74L-607.67,-160.12L-673.29,-149.34L-671.37,-137.62L-605.75,-148.40L-594.97,-82.78L-583.25,-84.70L-594.03,-150.32L-528.41,-161.10L-530.33,-172.82L-595.95,-162.04L-606.73,-227.66ZM-265.19,-185.09L-349.26,-317.37L-421.21,-305.55L-391.29,-123.46L-349.58,-130.31L-375.29,-286.86L-279.03,-141.90L-238.26,-148.60L-193.43,-316.73L-167.71,-160.18L-126.00,-167.04L-155.91,-349.13L-227.86,-337.31ZM35.72,-230.18L29.86,-279.04C26.44,-305.68 0.48,-324.52 -41.70,-317.59C-107.32,-306.81 -112.47,-260.48 -112.47,-260.48L-70.46,-256.79C-70.46,-256.79 -74.96,-285.65 -39.34,-291.50C-15.44,-295.43 -10.24,-281.36 -8.27,-269.41C-78.52,-251.61 -99.94,-222.34 -96.36,-200.54C-93.13,-180.86 -76.75,-172.00 -52.85,-175.92C-12.54,-182.54 2.60,-228.11 3.43,-230.42C7.74,-204.17 17.70,-187.51 45.58,-192.09C65.97,-195.44 74.75,-209.40 74.75,-209.40L62.86,-233.44C62.86,-233.44 57.99,-220.60 47.21,-218.83C40.18,-217.68 36.68,-222.88 35.72,-230.18ZM-57.36,-215.13C-59.40,-227.56 -48.23,-246.00 -6.23,-256.99L-4.73,-247.85C-4.73,-247.85 -14.43,-208.71 -41.61,-204.24C-53.33,-202.32 -56.44,-209.51 -57.36,-215.13ZM123.04,-289.05C123.04,-289.05 122.13,-318.03 138.54,-320.72C142.99,-321.45 149.20,-320.31 150.77,-310.70C153.70,-292.89 151.87,-279.11 151.87,-279.11L187.79,-294.88C187.79,-294.88 189.41,-304.05 186.76,-320.22C183.75,-338.50 173.21,-352.89 146.26,-348.47C108.52,-342.27 115.54,-302.50 115.54,-302.50L98.48,-337.49L75.98,-333.79L97.35,-203.72L136.02,-210.08ZM334.29,-296.80C334.29,-296.80 338.75,-266.72 303.36,-260.91C275.71,-256.37 257.94,-270.78 253.74,-296.32C249.93,-319.53 259.23,-340.55 286.18,-344.98C327.67,-351.79 328.14,-304.94 328.14,-304.94L364.06,-320.70C364.06,-320.70 359.76,-383.54 281.48,-370.68C232.73,-362.67 207.08,-328.37 213.43,-289.70C220.67,-245.64 261.66,-227.59 303.61,-234.48C370.87,-245.53 373.37,-293.35 373.37,-293.35ZM-603.75,124.54C-594.74,179.38 -542.58,211.25 -472.27,199.70C-401.96,188.15 -362.73,141.27 -371.74,86.43C-380.75,31.59 -432.91,-0.27 -503.22,11.28C-573.53,22.83 -612.76,69.70 -603.75,124.54ZM-560.40,117.42C-566.29,81.57 -549.11,48.42 -498.49,40.10C-447.86,31.79 -420.98,57.70 -415.09,93.55C-409.20,129.41 -426.38,162.56 -477.00,170.87C-527.63,179.19 -554.51,153.28 -560.40,117.42ZM-340.09,59.33L-317.35,55.60L-328.79,-14.01L-351.52,-10.27ZM-200.83,-35.03L-286.60,-20.94L-256.69,161.16L-166.23,146.30C-103.89,136.06 -78.81,112.93 -84.50,78.24C-90.20,43.55 -125.89,43.16 -129.25,43.23C-126.28,42.26 -97.01,31.43 -102.01,0.97C-107.71,-33.72 -138.49,-45.27 -200.83,-35.03ZM-185.97,40.75L-232.38,48.38L-240.69,-2.24L-194.29,-9.87C-167.57,-14.26 -148.45,-10.66 -145.37,8.09C-142.29,26.84 -159.26,36.37 -185.97,40.75ZM-219.21,128.53L-228.29,73.22L-175.10,64.48C-149.55,60.28 -130.90,66.85 -127.90,85.13C-124.82,103.88 -141.40,115.75 -168.12,120.13ZM-14.92,40.33C-14.92,40.33 -15.82,11.36 0.58,8.67C5.03,7.93 11.24,9.08 12.82,18.69C15.74,36.50 13.92,50.28 13.92,50.28L49.83,34.51C49.83,34.51 51.46,25.34 48.80,9.17C45.80,-9.11 35.25,-23.50 8.30,-19.08C-29.43,-12.88 -22.42,26.88 -22.42,26.88L-39.48,-8.10L-61.98,-4.40L-40.61,125.66L-1.94,119.31ZM68.18,-48.65L106.85,-55.00L101.96,-84.77L63.30,-78.41ZM93.21,103.68L131.88,97.33L110.51,-32.74L71.84,-26.39ZM195.62,22.36L309.90,5.99C310.37,-13.10 297.50,-66.58 224.14,-54.53C175.63,-46.56 149.98,-12.27 156.33,26.40C163.57,70.46 204.56,88.52 246.51,81.63C314.01,70.54 316.26,22.76 316.26,22.76L277.19,19.31C277.19,19.31 281.88,49.34 246.26,55.19C214.62,60.39 199.16,42.47 195.62,22.36ZM266.05,-10.39L194.96,3.69C194.96,3.69 195.14,-24.50 227.48,-29.81C258.65,-34.93 266.05,-10.39 266.05,-10.39ZM468.65,42.01L507.32,35.66L494.23,-44.02C488.80,-77.07 467.64,-94.53 424.52,-87.45C372.96,-78.98 376.69,-38.68 376.69,-38.68L359.63,-73.66L337.14,-69.97L358.50,60.10L397.17,53.75L384.24,-24.99C384.24,-24.99 387.51,-54.89 418.21,-59.94C439.07,-63.36 452.41,-56.89 455.25,-39.55Z" fill="#ffffff" stroke="#000000"/>
    <path d="M-623.87,-199.46L-611.10,-134.91L-675.65,-122.14L-673.37,-110.61L-608.82,-123.38L-596.04,-58.84L-584.52,-61.12L-597.29,-125.67L-532.74,-138.44L-535.03,-149.97L-599.57,-137.19L-612.35,-201.74ZM-273.21,-170.64L-360.61,-298.75L-431.38,-284.75L-395.93,-105.63L-354.90,-113.75L-385.37,-267.74L-285.51,-127.48L-245.40,-135.42L-206.48,-303.14L-176.01,-149.15L-134.97,-157.27L-170.42,-336.39L-241.19,-322.38ZM22.92,-224.93L15.55,-273.06C11.32,-299.29 -14.96,-317.09 -56.46,-308.88C-121.00,-296.10 -124.60,-250.11 -124.60,-250.11L-82.94,-247.82C-82.94,-247.82 -88.32,-276.22 -53.28,-283.15C-29.77,-287.81 -24.17,-274.06 -21.85,-262.30C-90.74,-242.44 -110.99,-212.80 -106.74,-191.36C-102.91,-172.00 -86.43,-163.76 -62.91,-168.42C-23.26,-176.26 -9.76,-221.82 -9.02,-224.12C-3.91,-198.30 6.47,-182.15 33.91,-187.58C53.96,-191.55 62.20,-205.63 62.20,-205.63L49.66,-229.02C49.66,-229.02 45.26,-216.17 34.65,-214.08C27.74,-212.71 24.11,-217.74 22.92,-224.93ZM-68.64,-207.05C-71.06,-219.27 -60.61,-237.86 -19.43,-250.09L-17.65,-241.10C-17.65,-241.10 -25.98,-202.08 -52.72,-196.78C-64.24,-194.50 -67.55,-201.52 -68.64,-207.05ZM107.39,-285.96C107.39,-285.96 105.55,-314.59 121.69,-317.78C126.07,-318.65 132.24,-317.71 134.11,-308.26C137.58,-290.74 136.22,-277.06 136.22,-277.06L171.23,-293.81C171.23,-293.81 172.54,-302.93 169.39,-318.84C165.83,-336.82 154.94,-350.71 128.43,-345.47C91.31,-338.12 99.53,-299.02 99.53,-299.02L81.53,-333.07L59.40,-328.69L84.72,-200.75L122.76,-208.27ZM316.05,-300.43C316.05,-300.43 321.43,-270.83 286.62,-263.94C259.42,-258.56 241.38,-272.23 236.41,-297.36C231.89,-320.18 240.41,-341.28 266.92,-346.52C307.73,-354.60 309.71,-308.28 309.71,-308.28L344.72,-325.03C344.72,-325.03 338.44,-387.03 261.44,-371.79C213.49,-362.30 189.23,-327.55 196.76,-289.52C205.33,-246.18 246.46,-229.64 287.72,-237.81C353.88,-250.90 354.81,-298.28 354.81,-298.28ZM-598.05,146.48C-587.38,200.42 -534.76,230.26 -465.60,216.57C-396.44,202.88 -359.15,155.26 -369.83,101.31C-380.51,47.37 -433.12,17.54 -502.28,31.22C-571.44,44.91 -608.73,92.54 -598.05,146.48ZM-555.41,138.04C-562.39,102.77 -546.46,69.43 -496.67,59.58C-446.88,49.72 -419.46,74.48 -412.48,109.75C-405.50,145.02 -421.42,178.36 -471.21,188.21C-521.01,198.07 -548.43,173.31 -555.41,138.04ZM-339.40,73.49L-317.04,69.07L-330.59,0.60L-352.95,5.03ZM-204.72,-24.31L-289.10,-7.61L-253.65,171.51L-164.66,153.90C-103.34,141.76 -79.28,118.08 -86.03,83.96C-92.79,49.84 -128.09,50.60 -131.41,50.78C-128.50,49.72 -99.91,38.07 -105.84,8.11C-112.59,-26.01 -143.40,-36.45 -204.72,-24.31ZM-187.59,50.16L-233.23,59.19L-243.09,9.39L-197.44,0.36C-171.16,-4.84 -152.14,-1.90 -148.49,16.55C-144.84,34.99 -161.31,44.96 -187.59,50.16ZM-217.63,138.03L-228.40,83.63L-176.07,73.27C-150.94,68.30 -132.29,74.19 -128.73,92.17C-125.08,110.61 -141.10,122.88 -167.38,128.08ZM-18.44,44.23C-18.44,44.23 -20.27,15.61 -4.13,12.41C0.25,11.55 6.42,12.48 8.29,21.93C11.76,39.45 10.40,53.14 10.40,53.14L45.41,36.39C45.41,36.39 46.72,27.26 43.57,11.36C40.01,-6.62 29.12,-20.52 2.61,-15.27C-34.51,-7.93 -26.29,31.17 -26.29,31.17L-44.29,-2.88L-66.42,1.50L-41.10,129.45L-3.06,121.92ZM60.88,-46.45L98.92,-53.98L93.12,-83.25L55.08,-75.73ZM90.53,103.40L128.57,95.87L103.25,-32.08L65.21,-24.55ZM189.19,19.67L301.68,-0.20C301.54,-19.09 287.08,-71.57 214.92,-57.29C167.20,-47.85 142.94,-13.10 150.47,24.94C159.04,68.28 200.17,84.81 241.43,76.65C307.82,63.51 308.52,16.18 308.52,16.18L269.76,14.03C269.76,14.03 275.37,43.58 240.33,50.51C209.21,56.67 193.34,39.45 189.19,19.67ZM257.79,-14.99L187.94,1.23C187.94,1.23 187.21,-26.65 219.02,-32.95C249.68,-39.02 257.79,-14.99 257.79,-14.99ZM459.84,30.31L497.88,22.78L482.37,-55.60C475.93,-88.10 454.44,-104.69 412.03,-96.30C361.31,-86.26 366.30,-46.52 366.30,-46.52L348.30,-80.57L326.17,-76.19L351.49,51.75L389.53,44.22L374.20,-33.23C374.20,-33.23 376.47,-62.91 406.67,-68.89C427.19,-72.95 440.59,-66.97 443.96,-49.91Z" fill="#ffffff" stroke="#000000"/>
    <path d="M-628.14,-173.16L-613.43,-109.74L-676.85,-95.03L-674.22,-83.71L-610.80,-98.42L-596.09,-35.00L-584.77,-37.63L-599.48,-101.04L-536.06,-115.76L-538.69,-127.08L-602.10,-112.37L-616.82,-175.79ZM-280.46,-155.95L-371.01,-279.82L-440.54,-263.69L-399.72,-87.71L-359.40,-97.07L-394.50,-248.36L-291.23,-112.88L-251.82,-122.02L-218.75,-289.13L-183.65,-137.84L-143.34,-147.19L-184.16,-323.17L-253.69,-307.04ZM10.62,-219.18L1.78,-266.53C-3.25,-292.34 -29.81,-309.09 -70.58,-299.63C-134.00,-284.92 -136.07,-239.33 -136.07,-239.33L-94.80,-238.40C-94.80,-238.40 -101.04,-266.31 -66.61,-274.30C-43.51,-279.66 -37.54,-266.24 -34.86,-254.69C-102.34,-232.83 -121.41,-202.87 -116.52,-181.81C-112.11,-162.78 -95.54,-155.17 -72.44,-160.53C-33.49,-169.57 -21.60,-215.05 -20.94,-217.35C-15.06,-191.98 -4.27,-176.34 22.68,-182.60C42.39,-187.17 50.07,-201.36 50.07,-201.36L36.92,-224.09C36.92,-224.09 32.98,-211.24 22.56,-208.82C15.77,-207.25 12.02,-212.10 10.62,-219.18ZM-79.35,-198.55C-82.14,-210.55 -72.40,-229.28 -32.07,-242.69L-30.02,-233.86C-30.02,-233.86 -37.00,-195.01 -63.27,-188.91C-74.60,-186.28 -78.09,-193.11 -79.35,-198.55ZM92.17,-282.25C92.17,-282.25 89.44,-310.50 105.29,-314.17C109.59,-315.17 115.73,-314.45 117.88,-305.16C121.88,-287.95 120.97,-274.37 120.97,-274.37L155.05,-292.06C155.05,-292.06 156.05,-301.13 152.43,-316.75C148.33,-334.42 137.11,-347.81 111.06,-341.77C74.60,-333.31 83.98,-294.91 83.98,-294.91L65.09,-328.00L43.35,-322.96L72.51,-197.26L109.88,-205.92ZM298.04,-303.28C298.04,-303.28 304.31,-274.18 270.11,-266.25C243.39,-260.05 225.11,-272.99 219.38,-297.68C214.18,-320.10 221.93,-341.23 247.98,-347.27C288.07,-356.57 291.52,-310.83 291.52,-310.83L325.60,-328.52C325.60,-328.52 317.39,-389.63 241.74,-372.08C194.64,-361.15 171.76,-326.01 180.43,-288.64C190.31,-246.06 231.50,-231.04 272.04,-240.44C337.04,-255.52 336.43,-302.40 336.43,-302.40ZM-591.46,168.09C-579.17,221.08 -526.18,248.89 -458.23,233.13C-390.29,217.37 -354.95,169.07 -367.24,116.07C-379.54,63.08 -432.53,35.27 -500.47,51.03C-568.42,66.79 -603.76,115.09 -591.46,168.09ZM-549.56,158.37C-557.60,123.71 -542.93,90.24 -494.01,78.89C-445.09,67.54 -417.18,91.14 -409.14,125.79C-401.11,160.45 -415.78,193.92 -464.70,205.27C-513.62,216.62 -541.53,193.02 -549.56,158.37ZM-338.05,87.58L-316.08,82.49L-331.69,15.22L-353.66,20.32ZM-208.02,-13.47L-290.92,5.76L-250.10,181.74L-162.67,161.46C-102.43,147.49 -79.40,123.29 -87.18,89.77C-94.95,56.25 -129.84,58.14 -133.11,58.42C-130.27,57.29 -102.37,44.85 -109.20,15.40C-116.98,-18.12 -147.78,-27.44 -208.02,-13.47ZM-188.69,59.62L-233.53,70.02L-244.88,21.10L-200.03,10.70C-174.21,4.71 -155.30,7.00 -151.10,25.12C-146.90,43.24 -162.87,53.63 -188.69,59.62ZM-215.56,147.48L-227.96,94.03L-176.55,82.10C-151.86,76.37 -133.23,81.60 -129.13,99.26C-124.92,117.38 -140.37,130.04 -166.19,136.02ZM-21.61,48.31C-21.61,48.31 -24.34,20.06 -8.49,16.39C-4.19,15.39 1.95,16.11 4.10,25.40C8.09,42.61 7.19,56.19 7.19,56.19L41.27,38.50C41.27,38.50 42.27,29.43 38.65,13.80C34.55,-3.86 23.33,-17.25 -2.72,-11.21C-39.18,-2.75 -29.80,35.65 -29.80,35.65L-48.69,2.56L-70.43,7.60L-41.28,133.30L-3.91,124.63ZM53.90,-43.91L91.27,-52.58L84.60,-81.34L47.23,-72.68ZM88.05,103.30L125.42,94.64L96.26,-31.06L58.89,-22.40ZM182.91,17.33L293.50,-5.93C292.75,-24.61 276.76,-76.04 205.87,-59.59C158.99,-48.72 136.12,-13.58 144.78,23.79C154.66,66.37 195.86,81.40 236.40,71.99C301.63,56.86 300.79,10.04 300.79,10.04L262.40,9.16C262.40,9.16 268.90,38.20 234.47,46.19C203.89,53.28 187.65,36.76 182.91,17.33ZM249.63,-19.15L181.07,-0.86C181.07,-0.86 179.46,-28.41 210.71,-35.66C240.83,-42.64 249.63,-19.15 249.63,-19.15ZM450.88,19.14L488.25,10.47L470.39,-66.54C462.98,-98.47 441.19,-114.18 399.52,-104.52C349.69,-92.96 355.91,-53.82 355.91,-53.82L337.01,-86.91L315.27,-81.87L344.43,43.83L381.80,35.16L364.15,-40.94C364.15,-40.94 365.44,-70.35 395.11,-77.24C415.26,-81.91 428.71,-76.44 432.59,-59.68Z" fill="#ffffff" stroke="#000000"/>
    <path d="M-631.26,-146.89L-614.67,-84.66L-676.90,-68.07L-673.93,-56.96L-611.71,-73.55L-595.12,-11.32L-584.01,-14.28L-600.59,-76.51L-538.37,-93.10L-541.33,-104.21L-603.56,-87.62L-620.14,-149.85ZM-286.94,-141.07L-380.46,-260.63L-448.69,-242.44L-402.66,-69.76L-363.10,-80.31L-402.67,-228.76L-296.21,-98.14L-257.54,-108.45L-230.21,-274.73L-190.64,-126.28L-151.08,-136.82L-197.11,-309.50L-265.34,-291.32ZM-1.19,-212.96L-11.45,-259.50C-17.25,-284.85 -44.05,-300.55 -84.06,-289.89C-146.28,-273.30 -146.87,-228.16 -146.87,-228.16L-106.03,-228.57C-106.03,-228.57 -113.10,-255.97 -79.32,-264.97C-56.65,-271.01 -50.31,-257.94 -47.29,-246.61C-113.31,-222.82 -131.19,-192.59 -125.69,-171.92C-120.71,-153.25 -104.09,-146.26 -81.42,-152.30C-43.19,-162.49 -32.91,-207.84 -32.33,-210.13C-25.69,-185.24 -14.52,-170.13 11.92,-177.18C31.26,-182.33 38.40,-196.61 38.40,-196.61L24.67,-218.66C24.67,-218.66 21.18,-205.83 10.96,-203.11C4.29,-201.33 0.43,-206.01 -1.19,-212.96ZM-89.47,-189.66C-92.61,-201.44 -83.59,-220.27 -44.15,-234.83L-41.84,-226.16C-41.84,-226.16 -47.49,-187.53 -73.27,-180.65C-84.38,-177.69 -88.05,-184.33 -89.47,-189.66ZM77.42,-277.95C77.42,-277.95 73.81,-305.79 89.36,-309.93C93.58,-311.06 99.67,-310.54 102.10,-301.43C106.60,-284.54 106.14,-271.09 106.14,-271.09L139.27,-289.68C139.27,-289.68 139.97,-298.67 135.88,-314.00C131.26,-331.34 119.74,-344.21 94.18,-337.40C58.40,-327.86 68.91,-290.20 68.91,-290.20L49.17,-322.31L27.83,-316.62L60.71,-193.28L97.38,-203.05ZM280.29,-305.37C280.29,-305.37 287.43,-276.80 253.87,-267.86C227.65,-260.86 209.16,-273.07 202.70,-297.30C196.84,-319.30 203.82,-340.44 229.37,-347.25C268.71,-357.74 273.59,-312.63 273.59,-312.63L306.72,-331.22C306.72,-331.22 296.64,-391.37 222.41,-371.58C176.19,-359.26 154.70,-323.78 164.47,-287.11C175.61,-245.33 216.83,-231.80 256.61,-242.40C320.39,-259.40 318.28,-305.73 318.28,-305.73ZM-584.00,189.33C-570.14,241.33 -516.85,267.12 -450.18,249.35C-383.51,231.57 -350.12,182.69 -363.99,130.68C-377.85,78.68 -431.14,52.89 -497.81,70.66C-564.48,88.44 -597.87,137.32 -584.00,189.33ZM-542.89,178.37C-551.95,144.37 -538.53,110.80 -490.52,98.00C-442.52,85.20 -414.16,107.64 -405.10,141.64C-396.04,175.64 -409.46,209.21 -457.47,222.01C-505.47,234.81 -533.83,212.37 -542.89,178.37ZM-336.04,101.57L-314.48,95.83L-332.08,29.82L-353.64,35.57ZM-210.74,-2.53L-292.08,19.16L-246.05,191.84L-160.26,168.97C-101.15,153.21 -79.16,128.55 -87.92,95.66C-96.69,62.76 -131.12,65.75 -134.35,66.14C-131.58,64.92 -104.39,51.73 -112.10,22.83C-120.86,-10.06 -151.62,-18.28 -210.74,-2.53ZM-189.26,69.11L-233.26,80.84L-246.06,32.84L-202.06,21.11C-176.72,14.35 -157.95,16.01 -153.21,33.79C-148.47,51.57 -163.92,62.36 -189.26,69.11ZM-213.00,156.85L-226.98,104.40L-176.54,90.95C-152.31,84.49 -133.72,89.06 -129.10,106.39C-124.36,124.17 -139.22,137.18 -164.56,143.93ZM-24.43,52.55C-24.43,52.55 -28.05,24.71 -12.49,20.56C-8.27,19.44 -2.18,19.96 0.25,29.07C4.75,45.96 4.29,59.41 4.29,59.41L37.42,40.82C37.42,40.82 38.12,31.83 34.03,16.49C29.41,-0.84 17.89,-13.72 -7.67,-6.90C-43.45,2.63 -32.94,40.30 -32.94,40.30L-52.68,8.19L-74.02,13.87L-41.14,137.22L-4.47,127.44ZM47.25,-41.06L83.92,-50.84L76.40,-79.06L39.73,-69.29ZM85.76,103.39L122.43,93.62L89.55,-29.73L52.88,-19.95ZM176.78,15.34L285.38,-11.23C284.03,-29.68 266.57,-80.01 197.01,-61.46C151.01,-49.20 129.52,-13.72 139.30,22.95C150.43,64.73 191.65,78.26 231.43,67.66C295.43,50.60 293.10,4.33 293.10,4.33L255.11,4.69C255.11,4.69 262.47,33.20 228.69,42.20C198.69,50.20 182.10,34.39 176.78,15.34ZM241.57,-22.88L174.38,-2.59C174.38,-2.59 171.90,-29.78 202.56,-37.95C232.12,-45.83 241.57,-22.88 241.57,-22.88ZM441.79,8.49L478.46,-1.29L458.32,-76.85C449.96,-108.18 427.92,-123.02 387.03,-112.12C338.13,-99.08 345.54,-60.59 345.54,-60.59L325.79,-92.70L304.46,-87.01L337.33,36.33L374.00,26.56L354.10,-48.11C354.10,-48.11 354.43,-77.24 383.54,-85.00C403.32,-90.28 416.79,-85.30 421.17,-68.85Z" fill="#ffffff" stroke="#000000"/>
    <path d="M-633.23,-120.69L-614.83,-59.71L-675.81,-41.31L-672.53,-30.42L-611.54,-48.82L-593.14,12.16L-582.25,8.88L-600.65,-52.11L-539.67,-70.51L-542.96,-81.40L-603.94,-63.00L-622.34,-123.98ZM-292.65,-126.03L-388.96,-241.22L-455.82,-221.04L-404.76,-51.81L-365.99,-63.51L-409.89,-209.00L-300.43,-83.29L-262.53,-94.73L-240.88,-260.00L-196.97,-114.51L-158.21,-126.21L-209.27,-295.44L-276.14,-275.26ZM-12.47,-206.30L-24.11,-251.98C-30.67,-276.85 -57.67,-291.52 -96.87,-279.69C-157.86,-261.29 -156.98,-216.64 -156.98,-216.64L-116.63,-218.36C-116.63,-218.36 -124.49,-245.22 -91.39,-255.21C-69.17,-261.91 -62.48,-249.19 -59.13,-238.09C-123.63,-212.44 -140.34,-181.98 -134.23,-161.72C-128.71,-143.43 -112.05,-137.05 -89.83,-143.75C-52.37,-155.05 -43.66,-200.22 -43.17,-202.51C-35.80,-178.11 -24.28,-163.53 1.64,-171.35C20.59,-177.07 27.19,-191.42 27.19,-191.42L12.91,-212.77C12.91,-212.77 9.88,-199.98 -0.14,-196.95C-6.68,-194.98 -10.65,-199.49 -12.47,-206.30ZM-99.00,-180.43C-102.48,-191.97 -94.17,-210.88 -55.65,-226.54L-53.08,-218.05C-53.08,-218.05 -57.42,-179.67 -82.69,-172.05C-93.58,-168.76 -97.42,-175.20 -99.00,-180.43ZM63.15,-273.08C63.15,-273.08 58.68,-300.49 73.92,-305.09C78.06,-306.34 84.10,-306.02 86.79,-297.09C91.79,-280.54 91.77,-267.22 91.77,-267.22L123.92,-286.67C123.92,-286.67 124.32,-295.58 119.78,-310.61C114.66,-327.60 102.85,-339.96 77.80,-332.40C42.74,-321.82 54.35,-284.92 54.35,-284.92L33.79,-316.03L12.88,-309.72L49.36,-188.84L85.29,-199.68ZM262.82,-306.72C262.82,-306.72 270.80,-278.71 237.91,-268.79C212.21,-261.03 193.54,-272.51 186.38,-296.25C179.87,-317.81 186.09,-338.94 211.14,-346.49C249.69,-358.13 255.97,-313.68 255.97,-313.68L288.12,-333.13C288.12,-333.13 276.22,-392.27 203.47,-370.32C158.17,-356.65 138.07,-320.88 148.92,-284.94C161.27,-244.00 202.45,-231.95 241.44,-243.71C303.95,-262.57 300.37,-308.31 300.37,-308.31ZM-575.69,210.17C-560.31,261.13 -506.80,284.91 -441.46,265.19C-376.12,245.48 -344.69,196.07 -360.07,145.10C-375.45,94.14 -428.96,70.36 -494.30,90.08C-559.64,109.80 -591.07,159.20 -575.69,210.17ZM-535.40,198.01C-545.45,164.69 -533.26,131.07 -486.22,116.87C-439.17,102.67 -410.42,123.94 -400.36,157.26C-390.31,190.59 -402.50,224.21 -449.54,238.40C-496.59,252.60 -525.34,231.33 -535.40,198.01ZM-333.38,115.43L-312.25,109.05L-331.77,44.37L-352.90,50.74ZM-212.85,8.48L-292.57,32.54L-241.50,201.77L-157.43,176.40C-99.50,158.92 -78.55,133.82 -88.28,101.59C-98.01,69.35 -131.95,73.42 -135.13,73.90C-132.43,72.61 -105.98,58.69 -114.52,30.37C-124.25,-1.86 -154.92,-9.00 -212.85,8.48ZM-189.32,78.61L-232.44,91.62L-246.64,44.58L-203.51,31.56C-178.68,24.07 -160.07,25.11 -154.81,42.53C-149.56,59.96 -164.49,71.12 -189.32,78.61ZM-209.96,166.11L-225.47,114.71L-176.03,99.79C-152.29,92.63 -133.77,96.54 -128.64,113.53C-123.38,130.95 -137.65,144.29 -162.48,151.78ZM-26.90,56.93C-26.90,56.93 -31.37,29.52 -16.12,24.92C-11.99,23.67 -5.95,23.99 -3.25,32.92C1.74,49.47 1.72,62.79 1.72,62.79L33.87,43.34C33.87,43.34 34.27,34.43 29.74,19.40C24.61,2.41 12.80,-9.95 -12.25,-2.39C-47.31,8.19 -35.70,45.09 -35.70,45.09L-56.26,13.98L-77.17,20.29L-40.69,141.17L-4.75,130.33ZM40.95,-37.93L76.89,-48.77L68.54,-76.43L32.61,-65.59ZM83.67,103.64L119.61,92.80L83.13,-28.08L47.20,-17.24ZM170.82,13.66L277.33,-16.10C275.40,-34.29 256.52,-83.49 188.35,-62.92C143.26,-49.31 123.16,-13.54 134.01,22.39C146.36,63.34 187.55,75.39 226.53,63.62C289.26,44.70 285.46,-0.97 285.46,-0.97L247.92,0.61C247.92,0.61 256.11,28.56 223.01,38.55C193.60,47.42 176.69,32.33 170.82,13.66ZM233.64,-26.21L167.87,-3.99C167.87,-3.99 164.54,-30.78 194.60,-39.85C223.56,-48.59 233.64,-26.21 233.64,-26.21ZM432.59,-1.64L468.53,-12.49L446.18,-86.54C436.91,-117.25 414.64,-131.20 374.57,-119.11C326.65,-104.65 335.21,-66.84 335.21,-66.84L314.66,-97.94L293.75,-91.63L330.22,29.25L366.16,18.40L344.08,-54.78C344.08,-54.78 343.46,-83.59 372.00,-92.19C391.38,-98.04 404.85,-93.55 409.72,-77.44Z" fill="#ffffff" stroke="#000000"/>
    <path d="M-634.08,-94.63L-613.93,-34.94L-673.62,-14.79L-670.02,-4.13L-610.33,-24.28L-590.17,35.41L-579.51,31.81L-599.67,-27.88L-539.98,-48.03L-543.58,-58.69L-603.27,-38.54L-623.42,-98.23ZM-297.60,-110.87L-396.50,-221.63L-461.94,-199.53L-406.02,-33.90L-368.07,-46.71L-416.15,-189.11L-303.91,-68.37L-266.81,-80.90L-250.73,-244.96L-202.65,-102.56L-164.70,-115.37L-220.63,-281.01L-286.07,-258.92ZM-23.22,-199.24L-36.20,-244.02C-43.48,-268.39 -70.64,-282.02 -109.02,-269.06C-168.71,-248.91 -166.40,-204.81 -166.40,-204.81L-126.57,-207.81C-126.57,-207.81 -135.21,-234.10 -102.80,-245.04C-81.06,-252.38 -74.04,-240.03 -70.37,-229.16C-133.30,-201.73 -148.84,-171.08 -142.14,-151.25C-136.10,-133.34 -119.42,-127.57 -97.68,-134.92C-61.01,-147.30 -53.86,-192.22 -53.44,-194.50C-45.38,-170.62 -33.51,-156.58 -8.15,-165.15C10.40,-171.41 16.46,-185.81 16.46,-185.81L1.65,-206.45C1.65,-206.45 -0.93,-193.71 -10.73,-190.40C-17.13,-188.24 -21.20,-192.56 -23.22,-199.24ZM-107.92,-170.88C-111.74,-182.18 -104.13,-201.13 -66.55,-217.86L-63.75,-209.54C-63.75,-209.54 -66.80,-171.47 -91.53,-163.12C-102.19,-159.52 -106.20,-165.76 -107.92,-170.88ZM49.37,-267.69C49.37,-267.69 44.07,-294.63 59.00,-299.67C63.05,-301.04 69.02,-300.92 71.98,-292.18C77.45,-275.98 77.85,-262.82 77.85,-262.82L109.01,-283.07C109.01,-283.07 109.12,-291.90 104.15,-306.61C98.54,-323.23 86.47,-335.07 61.95,-326.79C27.63,-315.20 40.29,-279.11 40.29,-279.11L18.97,-309.19L-1.49,-302.28L38.46,-183.97L73.63,-195.85ZM245.67,-307.37C245.67,-307.37 254.46,-279.94 222.27,-269.07C197.11,-260.57 178.29,-271.32 170.44,-294.55C163.31,-315.66 168.78,-336.74 193.30,-345.02C231.03,-357.76 238.67,-314.03 238.67,-314.03L269.83,-334.29C269.83,-334.29 256.16,-392.36 184.95,-368.32C140.61,-353.35 121.90,-317.35 133.77,-282.17C147.31,-242.10 188.40,-231.51 226.56,-244.40C287.74,-265.05 282.73,-310.14 282.73,-310.14ZM-566.55,230.57C-549.71,280.46 -496.04,302.23 -432.09,280.64C-368.14,259.05 -338.66,209.20 -355.50,159.31C-372.35,109.43 -426.01,87.65 -489.96,109.25C-553.91,130.84 -583.39,180.69 -566.55,230.57ZM-527.11,217.26C-538.12,184.64 -527.15,151.01 -481.11,135.47C-435.06,119.92 -405.95,140.01 -394.94,172.63C-383.93,205.25 -394.90,238.87 -440.94,254.42C-486.99,269.97 -516.10,249.87 -527.11,217.26ZM-330.08,129.12L-309.40,122.14L-330.78,58.82L-351.46,65.80ZM-214.38,19.52L-292.41,45.87L-236.48,211.50L-154.19,183.72C-97.49,164.57 -77.59,139.10 -88.25,107.55C-98.90,76.00 -132.32,81.11 -135.45,81.69C-132.82,80.33 -107.12,65.71 -116.48,38.00C-127.13,6.45 -157.68,0.38 -214.38,19.52ZM-188.86,88.09L-231.07,102.34L-246.61,56.29L-204.41,42.04C-180.10,33.83 -161.67,34.26 -155.92,51.31C-150.16,68.37 -164.56,79.88 -188.86,88.09ZM-206.45,175.24L-223.44,124.93L-175.05,108.59C-151.81,100.75 -133.37,104.02 -127.75,120.65C-122.00,137.70 -135.68,151.35 -159.98,159.55ZM-29.01,61.42C-29.01,61.42 -34.31,34.48 -19.39,29.44C-15.34,28.07 -9.36,28.19 -6.41,36.93C-0.94,53.13 -0.53,66.29 -0.53,66.29L30.62,46.04C30.62,46.04 30.73,37.21 25.77,22.51C20.15,5.88 8.08,-5.96 -16.43,2.32C-50.76,13.91 -38.09,50.00 -38.09,50.00L-59.41,19.92L-79.88,26.83L-39.93,145.14L-4.76,133.26ZM35.01,-34.52L70.18,-46.40L61.04,-73.47L25.87,-61.60ZM81.79,104.04L116.97,92.16L77.02,-26.15L41.85,-14.27ZM165.04,12.29L269.36,-20.56C266.88,-38.48 246.63,-86.50 179.90,-63.97C135.77,-49.07 117.06,-13.07 128.93,22.11C142.47,62.18 183.56,72.77 221.72,59.88C283.12,39.15 277.89,-5.87 277.89,-5.87L240.83,-3.09C240.83,-3.09 249.83,24.27 217.43,35.21C188.65,44.93 171.44,30.55 165.04,12.29ZM225.86,-29.14L161.56,-5.06C161.56,-5.06 157.40,-31.44 186.82,-41.37C215.17,-50.95 225.86,-29.14 225.86,-29.14ZM423.30,-11.27L458.48,-23.14L434.00,-95.62C423.85,-125.68 401.39,-138.76 362.17,-125.51C315.27,-109.68 324.95,-72.57 324.95,-72.57L303.63,-102.66L283.16,-95.75L323.11,22.56L358.28,10.69L334.10,-60.94C334.10,-60.94 332.57,-89.40 360.49,-98.83C379.46,-105.23 392.93,-101.23 398.25,-85.45Z" fill="#ffffff" stroke="#000000"/>
    <path d="M-898.60,473.49C-901.68,472.89 -903.80,471.94 -903.80,470.04C-903.80,468.10 -901.45,466.62 -897.42,466.62C-888.95,466.62 -889.17,472.54 -889.17,472.54L-882.22,470.64C-882.22,470.64 -882.87,461.94 -897.15,461.94C-906.39,461.94 -910.80,466.16 -910.80,470.76C-910.80,474.48 -907.60,477.41 -901.90,478.62L-894.38,480.22C-890.31,481.09 -888.00,481.59 -888.00,484.29C-888.00,486.53 -890.73,487.82 -895.22,487.82C-905.78,487.82 -904.91,480.60 -904.91,480.60L-911.86,482.39C-911.63,486.64 -907.72,492.49 -895.10,492.49C-887.16,492.49 -881.04,489.49 -881.04,483.75C-881.04,479.80 -883.25,476.57 -890.47,475.13ZM-870.21,488.62C-870.21,488.62 -868.58,492.49 -862.69,492.49C-856.30,492.49 -851.59,487.90 -851.59,481.44C-851.59,474.98 -856.30,470.42 -862.73,470.42C-869.53,470.42 -871.39,475.74 -871.39,475.74L-872.83,470.91L-876.48,470.91L-876.48,500.47L-870.21,500.47ZM-864.74,474.60C-860.22,474.60 -858.17,477.60 -858.17,481.44C-858.17,485.27 -860.22,488.31 -864.74,488.31C-869.34,488.31 -871.20,484.93 -871.20,481.44C-871.20,477.94 -869.34,474.60 -864.74,474.60ZM-847.03,481.44C-847.03,487.63 -842.17,492.49 -834.00,492.49C-825.75,492.49 -820.89,487.63 -820.89,481.44C-820.89,475.28 -825.75,470.42 -834.00,470.42C-842.17,470.42 -847.03,475.28 -847.03,481.44ZM-840.46,481.44C-840.46,477.98 -838.90,474.60 -834.00,474.60C-829.13,474.60 -827.46,477.98 -827.46,481.44C-827.46,484.89 -829.13,488.31 -834.00,488.31C-838.90,488.31 -840.46,484.89 -840.46,481.44ZM-808.92,479.19C-808.92,479.19 -808.31,474.60 -805.65,474.60C-804.93,474.60 -803.98,474.94 -803.98,476.50C-803.98,479.38 -804.62,481.51 -804.62,481.51L-798.54,479.95C-798.54,479.95 -798.05,478.55 -798.05,475.93C-798.05,472.96 -799.34,470.42 -803.71,470.42C-809.83,470.42 -809.75,476.88 -809.75,476.88L-811.54,470.91L-815.19,470.91L-815.19,492L-808.92,492ZM-796.91,474.60L-792.05,474.60L-792.05,484.63C-792.05,490.06 -788.93,492.49 -783.84,492.49C-778.40,492.49 -775.90,489.38 -775.90,489.38L-777.11,485.27C-777.11,485.27 -778.78,488.31 -782.13,488.31C-784.83,488.31 -785.85,486.76 -785.85,484.17L-785.85,474.60L-776.16,474.60L-776.16,470.91L-785.85,470.91L-785.85,462.97L-791.89,466.77L-791.89,470.91L-796.91,470.91ZM-771.72,467.30L-765.45,467.30L-765.45,462.47L-771.72,462.47ZM-771.72,492L-765.45,492L-765.45,470.91L-771.72,470.91ZM-740.75,492L-734.48,492L-734.48,479.08C-734.48,473.72 -737.36,470.42 -744.36,470.42C-752.72,470.42 -753.17,476.88 -753.17,476.88L-754.96,470.91L-758.61,470.91L-758.61,492L-752.34,492L-752.34,479.23C-752.34,479.23 -751.04,474.60 -746.07,474.60C-742.68,474.60 -740.75,475.96 -740.75,478.78ZM-716.81,485.54C-709.40,485.54 -704.95,482.27 -704.95,478.02C-704.95,476.65 -705.41,475.39 -706.28,474.29C-707.04,472.89 -707.08,471.94 -704.91,471.94C-704.46,471.94 -703.13,472.01 -701.64,472.24L-703.09,467.57C-704.11,467.49 -705.29,467.41 -705.82,467.41C-707.88,467.41 -709.13,468.52 -709.13,470.42C-709.13,471.02 -708.75,471.75 -708.22,472.54C-710.27,471.21 -713.23,470.42 -716.88,470.42C-724.41,470.42 -728.81,473.72 -728.81,478.02C-728.81,480.87 -726.88,483.22 -723.38,484.51C-724.79,484.70 -728.70,485.39 -728.70,488.01C-728.70,491.13 -723.91,491.77 -723.42,491.81C-724.03,491.89 -729.92,492.49 -729.92,496.22C-729.92,498.35 -727.90,501.01 -721.25,501.01L-712.85,501.01C-706.32,501.01 -702.29,498.61 -702.29,494.66C-702.29,491.66 -704,488.31 -710.95,488.31L-718.74,488.31C-721.29,488.31 -722.58,487.90 -722.58,486.68C-722.58,485.39 -721.29,485.24 -720.49,485.27C-719.39,485.46 -718.14,485.54 -716.81,485.54ZM-722.47,478.02C-722.47,475.77 -721.02,474.10 -716.88,474.10C-712.74,474.10 -711.37,475.77 -711.37,478.02C-711.37,480.18 -712.74,481.85 -716.88,481.85C-721.02,481.85 -722.47,480.18 -722.47,478.02ZM-712.21,492.46C-709.70,492.61 -708.90,493.56 -708.90,495.08C-708.90,497.59 -711.75,498.00 -716.31,498.00C-721.59,498.00 -723.30,497.21 -723.30,495.12C-723.30,492 -719.77,492 -719.62,492ZM-663.99,472.54C-663.99,472.54 -665.13,461.94 -681.31,461.94C-692.41,461.94 -699.36,468.36 -699.36,477.26C-699.36,486.11 -692.03,492.49 -682.42,492.49C-673.68,492.49 -671.24,487.63 -671.24,487.63L-671.24,492L-664.90,492L-664.90,476.31L-683.29,476.31L-683.29,480.45L-671.24,480.45C-671.24,480.45 -672.04,487.82 -681.35,487.82C-688.23,487.82 -692.33,483.30 -692.33,477.26C-692.33,471.44 -688.84,466.62 -681.35,466.62C-671.05,466.62 -670.94,474.44 -670.94,474.44ZM-651.26,479.19C-651.26,479.19 -650.65,474.60 -647.99,474.60C-647.27,474.60 -646.32,474.94 -646.32,476.50C-646.32,479.38 -646.96,481.51 -646.96,481.51L-640.88,479.95C-640.88,479.95 -640.39,478.55 -640.39,475.93C-640.39,472.96 -641.68,470.42 -646.05,470.42C-652.17,470.42 -652.09,476.88 -652.09,476.88L-653.88,470.91L-657.53,470.91L-657.53,492L-651.26,492ZM-636.97,481.44C-636.97,487.63 -632.10,492.49 -623.93,492.49C-615.69,492.49 -610.82,487.63 -610.82,481.44C-610.82,475.28 -615.69,470.42 -623.93,470.42C-632.10,470.42 -636.97,475.28 -636.97,481.44ZM-630.39,481.44C-630.39,477.98 -628.84,474.60 -623.93,474.60C-619.07,474.60 -617.40,477.98 -617.40,481.44C-617.40,484.89 -619.07,488.31 -623.93,488.31C-628.84,488.31 -630.39,484.89 -630.39,481.44ZM-608.54,474.60L-603.68,474.60L-603.68,484.63C-603.68,490.06 -600.56,492.49 -595.47,492.49C-590.04,492.49 -587.53,489.38 -587.53,489.38L-588.75,485.27C-588.75,485.27 -590.42,488.31 -593.76,488.31C-596.46,488.31 -597.49,486.76 -597.49,484.17L-597.49,474.60L-587.80,474.60L-587.80,470.91L-597.49,470.91L-597.49,462.97L-603.53,466.77L-603.53,470.91L-608.54,470.91ZM-578.18,481.82L-559.71,482.20C-559.14,479.19 -559.79,470.42 -571.68,470.42C-579.55,470.42 -584.49,475.17 -584.49,481.44C-584.49,488.58 -578.49,492.49 -571.68,492.49C-560.74,492.49 -559.14,485.01 -559.14,485.01L-565.22,483.45C-565.22,483.45 -565.26,488.31 -571.04,488.31C-576.17,488.31 -578.14,485.08 -578.18,481.82ZM-566.21,478.47L-577.80,478.85C-577.80,478.85 -577.04,474.41 -571.80,474.41C-566.74,474.41 -566.21,478.47 -566.21,478.47ZM-549.26,483.56L-555.34,485.12C-555.34,485.12 -554.85,492.49 -542.73,492.49C-536.65,492.49 -531.78,490.21 -531.78,485.92C-531.78,482.80 -533.80,480.37 -539.12,479.50L-544.44,478.62C-546.91,478.21 -548.47,477.86 -548.47,476.61C-548.47,475.55 -547.25,474.41 -544.59,474.41C-539.19,474.41 -539.00,478.13 -539.00,478.13L-532.92,476.57C-532.92,476.57 -533.80,470.42 -544.32,470.42C-549.87,470.42 -554.28,472.81 -554.28,476.99C-554.28,480.83 -550.52,482.12 -547.17,482.73L-542.23,483.64C-539.27,484.17 -537.98,484.82 -537.98,486.11C-537.98,487.59 -540.14,488.31 -542.65,488.31C-549.30,488.31 -549.26,483.56 -549.26,483.56ZM-509.40,500.47L-503.09,500.47L-503.09,470.91L-506.74,470.91L-508.22,475.74C-508.22,475.74 -510.05,470.42 -516.85,470.42C-523.31,470.42 -527.98,474.98 -527.98,481.44C-527.98,487.90 -523.31,492.49 -516.89,492.49C-511.00,492.49 -509.40,488.66 -509.40,488.66ZM-514.87,474.60C-510.28,474.60 -508.38,477.94 -508.38,481.44C-508.38,484.93 -510.28,488.31 -514.87,488.31C-519.36,488.31 -521.41,485.27 -521.41,481.44C-521.41,477.60 -519.36,474.60 -514.87,474.60ZM-490.02,470.91L-496.25,470.91L-496.25,483.83C-496.25,489.19 -493.37,492.49 -486.37,492.49C-478.01,492.49 -477.56,486.03 -477.56,486.03L-475.77,492L-472.12,492L-472.12,470.91L-478.39,470.91L-478.39,483.68C-478.39,483.68 -479.69,488.31 -484.66,488.31C-488.05,488.31 -490.02,486.95 -490.02,484.13ZM-460.12,481.82L-441.65,482.20C-441.08,479.19 -441.72,470.42 -453.62,470.42C-461.48,470.42 -466.42,475.17 -466.42,481.44C-466.42,488.58 -460.42,492.49 -453.62,492.49C-442.67,492.49 -441.08,485.01 -441.08,485.01L-447.16,483.45C-447.16,483.45 -447.20,488.31 -452.97,488.31C-458.10,488.31 -460.08,485.08 -460.12,481.82ZM-448.15,478.47L-459.74,478.85C-459.74,478.85 -458.98,474.41 -453.73,474.41C-448.68,474.41 -448.15,478.47 -448.15,478.47ZM-421.24,482.58L-421.24,478.89L-437.28,478.89L-437.28,482.58ZM-402.39,462.47L-416.30,462.47L-416.30,492L-401.63,492C-391.53,492 -386.97,489.00 -386.97,483.37C-386.97,477.75 -392.59,476.76 -393.12,476.69C-392.63,476.61 -387.73,475.66 -387.73,470.72C-387.73,465.10 -392.29,462.47 -402.39,462.47ZM-402.01,474.82L-409.54,474.82L-409.54,466.62L-402.01,466.62C-397.68,466.62 -394.76,467.68 -394.76,470.72C-394.76,473.76 -397.68,474.82 -402.01,474.82ZM-409.54,487.82L-409.54,478.85L-400.91,478.85C-396.77,478.85 -394.00,480.37 -394.00,483.34C-394.00,486.38 -396.92,487.82 -401.25,487.82ZM-382.41,481.44C-382.41,487.63 -377.54,492.49 -369.37,492.49C-361.13,492.49 -356.26,487.63 -356.26,481.44C-356.26,475.28 -361.13,470.42 -369.37,470.42C-377.54,470.42 -382.41,475.28 -382.41,481.44ZM-375.83,481.44C-375.83,477.98 -374.27,474.60 -369.37,474.60C-364.51,474.60 -362.84,477.98 -362.84,481.44C-362.84,484.89 -364.51,488.31 -369.37,488.31C-374.27,488.31 -375.83,484.89 -375.83,481.44ZM-350.56,492L-344.29,492L-344.29,461.94C-344.29,461.94 -347.48,462.47 -350.56,462.47ZM-320.01,474.25C-320.01,474.25 -321.61,470.42 -327.50,470.42C-333.92,470.42 -338.59,475.01 -338.59,481.47C-338.59,487.93 -333.92,492.49 -327.46,492.49C-320.66,492.49 -318.83,487.17 -318.83,487.17L-317.35,492L-313.70,492L-313.70,461.94C-313.70,461.94 -316.86,462.47 -320.01,462.47ZM-325.48,488.31C-329.97,488.31 -332.02,485.31 -332.02,481.47C-332.02,477.64 -329.97,474.60 -325.48,474.60C-320.88,474.60 -318.98,477.98 -318.98,481.47C-318.98,484.97 -320.88,488.31 -325.48,488.31Z"/>
</svg>