<?xml version="1.0"?>
<svg xmlns="http://www.w3.org/2000/svg" width="1920" height="1080" viewBox="-960 -540 1920 1080">
    <path d="M-810,-270L-820,-270L-850,-220L-910,-220L-920,-230L-900,-300L-890,-310L-850,-310L-830,-290L-830,-340L-850,-320L-890,-320L-890,-330L-870,-390L-860,-400L-810,-400L-780,-360L-770,-360L-780,-420L-820,-410L-920,-410L-900,-390L-950,-230L-980,-210L-840,-210L-820,-200ZM-660,-310L-670,-280L-710,-240L-740,-230L-750,-230L-690,-320L-690,-340L-710,-350L-740,-340L-790,-290L-780,-280L-730,-330L-720,-330L-780,-230L-780,-220L-770,-210L-750,-210L-700,-230L-660,-270L-640,-310L-640,-330L-650,-340L-670,-340L-680,-320L-670,-310ZM-500,-300L-500,-320L-510,-340L-550,-350L-600,-320L-630,-260L-620,-220L-600,-210L-580,-210L-560,-220L-520,-260L-530,-270L-570,-230L-590,-230L-600,-260L-580,-300L-550,-330L-530,-330L-530,-300L-550,-290L-580,-290L-580,-280L-530,-280ZM-500,-290L-490,-280L-440,-330L-430,-330L-490,-220L-480,-210L-460,-210L-420,-290L-390,-310L-360,-310L-350,-340L-370,-350L-390,-340L-420,-300L-430,-300L-410,-330L-410,-340L-420,-350L-450,-340ZM-250,-290L-310,-230L-320,-230L-270,-330L-270,-340L-290,-350L-320,-340L-370,-290L-360,-280L-310,-330L-300,-330L-350,-230L-350,-220L-340,-210L-320,-210L-300,-220L-260,-260L-300,-190L-320,-160L-330,-150L-340,-150L-340,-170L-350,-180L-370,-170L-370,-140L-350,-130L-340,-130L-310,-150L-280,-190L-190,-330L-200,-340L-220,-340ZM-170,-230L-120,-330L-90,-330L-90,-340L-120,-340L-100,-380L-120,-380L-130,-350L-150,-340L-170,-340L-170,-330L-150,-330L-200,-230L-200,-220L-190,-210L-170,-210L-150,-220L-100,-270L-110,-280L-160,-230ZM-20,-410L-60,-310L-110,-220L-100,-210L-80,-210L-40,-290L-10,-320L10,-330L20,-320L-30,-230L-30,-220L-20,-210L0,-210L20,-220L70,-270L60,-280L10,-230L0,-230L50,-310L50,-340L20,-350L-10,-340L-30,-320L20,-420L-50,-420L-50,-410ZM180,-370L190,-370L200,-390L200,-400L180,-410L170,-410L160,-390L160,-380ZM70,-290L80,-280L130,-330L140,-330L80,-230L80,-220L90,-210L110,-210L130,-220L180,-270L170,-280L120,-230L110,-230L170,-330L170,-340L150,-350L120,-340ZM180,-290L190,-280L240,-330L250,-330L190,-220L200,-210L220,-210L260,-290L290,-320L310,-330L320,-320L270,-230L270,-220L280,-210L300,-210L320,-220L370,-270L360,-280L310,-230L300,-230L350,-310L350,-340L320,-350L290,-340L260,-310L270,-330L270,-340L260,-350L230,-340ZM390,-240L390,-230L400,-220L350,-200L340,-180L350,-150L390,-130L410,-130L450,-140L470,-170L470,-190L420,-230L420,-240L450,-240L500,-270L510,-300L500,-330L530,-330L530,-340L490,-340L450,-350L400,-320L390,-290L410,-250ZM450,-330L470,-330L480,-300L480,-290L450,-260L430,-260L420,-290L420,-300ZM410,-210L440,-180L440,-160L410,-140L380,-160L370,-180L380,-200ZM710,-370L720,-370L730,-390L730,-400L710,-410L700,-410L690,-390L690,-380ZM600,-290L610,-280L660,-330L670,-330L610,-230L610,-220L620,-210L640,-210L660,-220L710,-270L700,-280L650,-230L640,-230L700,-330L700,-340L680,-350L650,-340ZM730,-220L730,-250L720,-260L700,-250L700,-220L720,-210L740,-210L770,-220L790,-240L790,-260L780,-310L780,-330L800,-340L800,-310L810,-300L830,-310L830,-340L800,-350L760,-340L750,-320L750,-300L760,-260L760,-240L740,-220ZM-695,-18L-695,-48L-675,-108L-625,-148L-605,-148L-585,-128L-585,-98L-565,-98L-545,-118L-555,-138L-605,-158L-635,-158L-675,-138L-705,-108L-725,-78L-735,-28L-715,22L-675,42L-635,42L-605,22L-575,-8L-585,-18L-615,12L-645,32L-665,32L-685,22ZM-515,42L-495,42L-445,12L-415,-48L-435,-88L-475,-98L-525,-68L-555,-8L-535,32ZM-475,-78L-455,-78L-445,-48L-465,-8L-495,22L-515,22L-525,-8L-505,-48ZM-405,-38L-395,-28L-345,-78L-335,-78L-395,32L-385,42L-365,42L-325,-38L-295,-68L-275,-78L-265,-68L-315,22L-315,32L-305,42L-285,42L-265,32L-215,-18L-225,-28L-275,22L-285,22L-235,-58L-235,-88L-265,-98L-295,-88L-325,-58L-315,-78L-315,-88L-325,-98L-355,-88ZM-215,-38L-205,-28L-155,-78L-145,-78L-205,32L-195,42L-175,42L-135,-38L-105,-68L-85,-78L-75,-68L-125,22L-125,32L-115,42L-95,42L-75,32L-25,-18L-35,-28L-85,22L-95,22L-45,-58L-45,-88L-75,-98L-105,-88L-135,-58L-125,-78L-125,-88L-135,-98L-165,-88ZM115,-48L115,-68L105,-88L65,-98L15,-68L-15,-8L-5,32L15,42L35,42L55,32L95,-8L85,-18L45,22L25,22L15,-8L35,-48L65,-78L85,-78L85,-48L65,-38L35,-38L35,-28L85,-28ZM255,-48L255,-68L245,-88L205,-98L155,-68L125,-8L135,32L155,42L175,42L195,32L235,-8L225,-18L185,22L165,22L155,-8L175,-48L205,-78L225,-78L225,-48ZM285,22L335,-78L365,-78L365,-88L335,-88L355,-128L335,-128L325,-98L305,-88L285,-88L285,-78L305,-78L255,22L255,32L265,42L285,42L305,32L355,-18L345,-28L295,22ZM505,-48L505,-68L495,-88L455,-98L405,-68L375,-8L385,32L405,42L425,42L445,32L485,-8L475,-18L435,22L415,22L405,-8L425,-48L455,-78L475,-78L475,-48L455,-38L425,-38L425,-28L475,-28ZM605,42L615,42L635,32L685,-18L675,-28L625,22L615,22L705,-168L635,-168L635,-158L665,-158L635,-68L625,-88L585,-98L535,-58L515,-8L525,32L545,42L565,42L595,12L595,32ZM565,22L555,22L545,-8L565,-48L595,-78L615,-78L625,-58L625,-48L595,-8Z" fill="#ffffff" stroke="#000000"/>
    <path d="M-822.23,-215.45L-832.11,-214.86L-858.79,-163.67L-918.08,-160.11L-928.56,-169.40L-912.95,-239.76L-903.66,-250.24L-864.13,-252.61L-843.18,-234.03L-846.14,-283.44L-864.72,-262.49L-904.25,-260.12L-904.84,-270.00L-888.64,-330.48L-879.35,-340.96L-829.94,-343.92L-797.92,-306.17L-788.04,-306.77L-801.48,-365.47L-840.41,-353.21L-939.23,-347.28L-918.28,-328.70L-958.20,-167.62L-986.66,-146.08L-848.31,-154.38L-827.96,-145.69ZM-676.37,-263.88L-684.47,-233.64L-721.62,-191.74L-750.68,-180.08L-760.56,-179.48L-706.61,-271.98L-707.79,-291.75L-728.15,-300.44L-757.20,-288.78L-803.65,-236.40L-793.17,-227.12L-746.73,-279.49L-736.84,-280.09L-790.21,-177.70L-789.61,-167.82L-779.14,-158.53L-759.37,-159.72L-711.15,-182.45L-673.99,-224.35L-656.60,-265.07L-657.79,-284.83L-668.26,-294.12L-688.03,-292.93L-696.72,-272.58L-686.25,-263.29ZM-517.66,-263.49L-518.84,-283.25L-529.91,-302.42L-570.03,-309.93L-617.67,-277.32L-643.75,-216.25L-631.50,-177.31L-611.14,-168.62L-591.38,-169.80L-572.20,-180.87L-535.05,-222.77L-545.52,-232.06L-582.68,-190.16L-602.44,-188.97L-614.11,-218.03L-596.71,-258.74L-568.85,-290.17L-549.08,-291.36L-547.30,-261.71L-566.47,-250.64L-596.12,-248.86L-595.53,-238.98L-546.12,-241.94ZM-517.06,-253.61L-506.59,-244.32L-460.14,-296.69L-450.26,-297.29L-503.03,-185.02L-492.55,-175.73L-472.79,-176.92L-438.01,-258.35L-409.55,-279.90L-379.90,-281.67L-371.80,-311.91L-392.15,-320.61L-411.33,-309.54L-438.60,-268.23L-448.48,-267.64L-430.50,-298.47L-431.09,-308.36L-441.56,-317.64L-470.62,-305.98ZM-270.01,-268.43L-325.74,-205.58L-335.62,-204.99L-292.15,-306.78L-292.74,-316.66L-313.10,-325.36L-342.15,-313.69L-388.59,-261.32L-378.12,-252.03L-331.67,-304.40L-321.79,-305.00L-365.27,-203.21L-364.68,-193.33L-354.20,-184.04L-334.44,-185.23L-315.27,-196.29L-278.11,-238.20L-313.49,-166.65L-331.47,-135.81L-340.76,-125.34L-350.64,-124.75L-351.83,-144.51L-362.31,-153.80L-381.48,-142.73L-379.70,-113.08L-359.34,-104.39L-349.46,-104.98L-321.00,-126.52L-293.72,-167.83L-213.09,-311.52L-223.56,-320.81L-243.33,-319.63ZM-187.39,-213.89L-143.91,-315.67L-114.27,-317.45L-114.86,-327.34L-144.51,-325.56L-127.11,-366.27L-146.88,-365.09L-154.98,-334.85L-174.15,-323.78L-193.92,-322.59L-193.32,-312.71L-173.56,-313.90L-217.04,-212.11L-216.45,-202.23L-205.97,-192.94L-186.21,-194.12L-167.03,-205.19L-120.59,-257.57L-131.06,-266.86L-177.51,-214.48ZM-49.84,-400.66L-83.43,-299.47L-127.51,-207.56L-117.03,-198.27L-97.27,-199.46L-62.48,-280.89L-34.61,-312.32L-15.44,-323.39L-4.97,-314.10L-49.04,-222.19L-48.45,-212.31L-37.97,-203.02L-18.21,-204.21L0.96,-215.27L47.41,-267.65L36.93,-276.94L-9.51,-224.56L-19.39,-223.97L25.27,-305.99L23.49,-335.64L-6.75,-343.74L-35.80,-332.08L-54.38,-311.13L-10.90,-412.92L-80.07,-408.77L-79.48,-398.88ZM150.18,-373.00L160.06,-373.59L168.76,-393.95L168.17,-403.83L147.81,-412.53L137.93,-411.93L129.23,-391.58L129.82,-381.69ZM46.22,-287.42L56.70,-278.13L103.14,-330.50L113.03,-331.10L59.66,-228.72L60.26,-218.83L70.73,-209.54L90.50,-210.73L109.67,-221.80L156.11,-274.18L145.64,-283.47L99.19,-231.09L89.31,-230.50L142.67,-332.88L142.08,-342.76L121.72,-351.45L92.67,-339.79ZM154.93,-293.94L165.40,-284.65L211.85,-337.03L221.73,-337.62L168.96,-225.36L179.44,-216.07L199.20,-217.26L233.98,-298.69L261.85,-330.11L281.02,-341.18L291.50,-331.89L247.43,-239.99L248.02,-230.10L258.49,-220.81L278.26,-222.00L297.43,-233.07L343.88,-285.45L333.40,-294.74L286.95,-242.36L277.07,-241.77L321.74,-323.79L319.96,-353.44L289.72,-361.54L260.67,-349.88L232.80,-318.45L241.49,-338.81L240.90,-348.69L230.43,-357.98L201.37,-346.32ZM365.42,-256.99L366.01,-247.10L376.49,-237.81L328.26,-215.08L319.57,-194.73L331.23,-165.67L371.94,-148.28L391.71,-149.47L430.64,-161.72L448.63,-192.56L447.44,-212.32L395.66,-248.88L395.07,-258.77L424.71,-260.54L472.34,-293.16L480.45,-323.40L468.79,-352.45L498.43,-354.23L497.84,-364.11L458.31,-361.74L418.19,-369.25L370.56,-336.64L362.45,-306.40L384.59,-268.05ZM419.37,-349.48L439.14,-350.67L450.80,-321.62L451.39,-311.74L423.53,-280.31L403.76,-279.12L392.10,-308.18L391.51,-318.06ZM386.96,-228.53L418.39,-200.66L419.58,-180.89L391.12,-159.35L360.28,-177.33L349.21,-196.51L357.91,-216.86ZM673.94,-404.44L683.82,-405.03L692.52,-425.39L691.92,-435.27L671.57,-443.96L661.68,-443.37L652.99,-423.01L653.58,-413.13ZM569.98,-318.85L580.46,-309.56L626.90,-361.94L636.78,-362.53L583.42,-260.15L584.01,-250.27L594.49,-240.98L614.25,-242.17L633.43,-253.24L679.87,-305.61L669.40,-314.90L622.95,-262.53L613.07,-261.93L666.43,-364.31L665.84,-374.20L645.48,-382.89L616.43,-371.23ZM702.60,-257.39L700.82,-287.04L690.35,-296.32L671.17,-285.26L672.95,-255.61L693.31,-246.91L713.08,-248.10L742.13,-259.76L760.71,-280.71L759.52,-300.48L746.67,-349.29L745.49,-369.06L764.66,-380.13L766.44,-350.48L776.91,-341.19L796.08,-352.26L794.31,-381.91L764.07,-390.01L725.13,-377.75L716.43,-357.40L717.62,-337.63L729.87,-298.70L731.06,-278.93L712.48,-257.98ZM-693.63,26.76L-695.41,-2.89L-679.21,-63.37L-632.17,-105.86L-612.40,-107.05L-591.45,-88.47L-589.67,-58.83L-569.91,-60.01L-551.33,-80.96L-562.40,-100.13L-613.00,-116.93L-642.64,-115.15L-680.99,-93.02L-708.85,-61.59L-726.84,-30.76L-733.75,19.25L-711.02,67.47L-670.31,84.86L-630.78,82.49L-602.32,60.95L-574.45,29.52L-584.93,20.23L-612.80,51.66L-641.26,73.20L-661.02,74.39L-681.38,65.69ZM-512.19,75.37L-492.43,74.19L-444.80,41.57L-418.71,-19.50L-440.85,-57.84L-480.97,-65.35L-528.60,-32.74L-554.69,28.33L-532.55,66.68ZM-479.78,-45.59L-460.02,-46.77L-448.36,-17.72L-465.75,23.00L-493.62,54.42L-513.38,55.61L-525.04,26.56L-507.65,-14.16ZM-408.24,-10.21L-397.76,-0.92L-351.31,-53.30L-341.43,-53.89L-394.20,58.37L-383.73,67.66L-363.96,66.48L-329.18,-14.95L-301.31,-46.38L-282.14,-57.45L-271.66,-48.16L-315.74,43.75L-315.14,53.63L-304.67,62.92L-284.90,61.73L-265.73,50.66L-219.29,-1.71L-229.76,-11.00L-276.21,41.37L-286.09,41.97L-241.42,-40.06L-243.20,-69.70L-273.44,-77.81L-302.50,-66.14L-330.36,-34.72L-321.67,-55.08L-322.26,-64.96L-332.74,-74.25L-361.79,-62.59ZM-220.47,-21.48L-210.00,-12.19L-163.55,-64.57L-153.67,-65.16L-206.44,47.10L-195.96,56.39L-176.20,55.21L-141.42,-26.22L-113.55,-57.65L-94.38,-68.72L-83.90,-59.43L-127.97,32.48L-127.38,42.36L-116.91,51.65L-97.14,50.46L-77.97,39.39L-31.52,-12.98L-42.00,-22.27L-88.45,30.10L-98.33,30.70L-53.66,-51.33L-55.44,-80.97L-85.68,-89.08L-114.73,-77.41L-142.60,-45.99L-133.91,-66.35L-134.50,-76.23L-144.97,-85.52L-174.03,-73.86ZM105.05,-50.94L103.86,-70.70L92.79,-89.87L52.67,-97.38L5.04,-64.77L-21.05,-3.70L-8.79,35.24L11.56,43.94L31.33,42.75L50.50,31.68L87.66,-10.22L77.18,-19.51L40.02,22.39L20.26,23.58L8.60,-5.47L25.99,-46.19L53.86,-77.62L73.62,-78.80L75.40,-49.16L56.23,-38.09L26.58,-36.31L27.18,-26.43L76.59,-29.39ZM243.40,-59.24L242.21,-79.00L231.14,-98.18L191.02,-105.68L143.39,-73.07L117.30,-12.00L129.56,26.94L149.91,35.63L169.68,34.45L188.85,23.38L226.01,-18.52L215.53,-27.81L178.37,14.09L158.61,15.27L146.95,-13.78L164.34,-54.49L192.21,-85.92L211.97,-87.11L213.75,-57.46ZM277.20,8.16L320.68,-93.63L350.32,-95.41L349.73,-105.29L320.08,-103.51L337.47,-144.23L317.71,-143.04L309.61,-112.80L290.44,-101.73L270.67,-100.55L271.27,-90.67L291.03,-91.85L247.55,9.94L248.14,19.82L258.62,29.11L278.38,27.92L297.55,16.85L344.00,-35.52L333.52,-44.81L287.08,7.56ZM490.45,-74.07L489.27,-93.83L478.20,-113.00L438.08,-120.51L390.44,-87.90L364.36,-26.83L376.61,12.11L396.97,20.80L416.73,19.62L435.91,8.55L473.06,-33.35L462.59,-42.64L425.43,-0.74L405.67,0.45L394.00,-28.61L411.40,-69.32L439.26,-100.75L459.03,-101.94L460.81,-72.29L441.64,-61.22L411.99,-59.44L412.58,-49.56L461.99,-52.52ZM594.61,8.94L604.50,8.35L623.67,-2.72L670.11,-55.10L659.64,-64.39L613.19,-12.01L603.31,-11.42L680.98,-204.52L611.80,-200.37L612.40,-190.48L642.04,-192.26L617.74,-101.54L606.67,-120.72L566.55,-128.22L519.51,-85.73L502.71,-35.13L514.96,3.80L535.32,12.50L555.08,11.31L582.95,-20.11L584.14,-0.35ZM553.90,-8.45L544.02,-7.86L532.35,-36.91L549.75,-77.63L577.61,-109.05L597.38,-110.24L608.45,-91.07L609.04,-81.19L581.77,-39.88Z" fill="#ffffff" stroke="#000000"/>
    <path d="M-830.72,-160.51L-840.45,-159.33L-863.78,-107.17L-922.16,-100.14L-933.06,-108.69L-921.81,-179.15L-913.25,-190.05L-874.33,-194.74L-852.53,-177.62L-858.39,-226.27L-875.50,-204.47L-914.42,-199.78L-915.59,-209.51L-903.17,-270.23L-894.61,-281.13L-845.96,-286.99L-812.08,-251.59L-802.35,-252.76L-819.12,-309.97L-856.86,-295.55L-954.16,-283.83L-932.36,-266.71L-962.25,-105.18L-989.09,-82.20L-852.88,-98.61L-832.25,-91.23ZM-689.47,-217.01L-695.68,-186.65L-729.91,-143.04L-757.93,-129.79L-767.66,-128.62L-719.83,-223.22L-722.17,-242.68L-742.80,-250.07L-770.82,-236.82L-813.61,-182.31L-802.71,-173.75L-759.92,-228.26L-750.19,-229.43L-796.85,-125.10L-795.67,-115.37L-784.77,-106.82L-765.31,-109.16L-719.01,-134.48L-684.78,-178.09L-670.01,-219.35L-672.35,-238.81L-683.25,-247.37L-702.71,-245.02L-710.10,-224.39L-699.20,-215.84ZM-532.62,-226.03L-534.97,-245.49L-547.04,-263.78L-587.13,-268.82L-632.26,-233.77L-654.42,-171.88L-640.00,-134.13L-619.37,-126.75L-599.91,-129.09L-581.62,-141.16L-547.39,-184.77L-558.29,-193.33L-592.52,-149.72L-611.98,-147.38L-625.23,-175.39L-610.46,-216.66L-584.79,-249.36L-565.33,-251.71L-561.81,-222.52L-580.10,-210.44L-609.29,-206.93L-608.11,-197.20L-559.47,-203.06ZM-531.45,-216.30L-520.55,-207.75L-477.76,-262.26L-468.03,-263.43L-513.51,-149.37L-502.61,-140.81L-483.15,-143.16L-453.61,-225.68L-426.77,-248.66L-397.58,-252.17L-391.37,-282.54L-412.00,-289.92L-430.28,-277.85L-454.78,-235.41L-464.51,-234.24L-448.57,-265.77L-449.74,-275.50L-460.64,-284.06L-488.66,-270.81ZM-288.21,-245.61L-339.55,-180.20L-349.28,-179.03L-312.36,-282.18L-313.53,-291.91L-334.16,-299.30L-362.18,-286.05L-404.96,-231.54L-394.06,-222.99L-351.27,-277.50L-341.54,-278.67L-378.47,-175.51L-377.30,-165.78L-366.40,-157.22L-346.94,-159.57L-328.65,-171.64L-294.42,-215.25L-325.13,-142.45L-341.08,-110.92L-349.63,-100.02L-359.36,-98.84L-361.71,-118.30L-372.61,-126.86L-390.90,-114.79L-387.38,-85.60L-366.75,-78.21L-357.02,-79.39L-330.17,-102.36L-305.67,-144.80L-234.52,-291.56L-245.42,-300.12L-264.88,-297.77ZM-203.34,-196.61L-166.41,-299.77L-137.22,-303.28L-138.39,-313.01L-167.58,-309.50L-152.81,-350.76L-172.27,-348.42L-178.49,-318.05L-196.77,-305.98L-216.23,-303.64L-215.06,-293.91L-195.60,-296.25L-232.53,-193.09L-231.35,-183.36L-220.45,-174.81L-200.99,-177.15L-182.71,-189.22L-139.92,-243.73L-150.82,-252.29L-193.61,-197.78ZM-78.49,-389.33L-105.69,-287.34L-143.79,-193.91L-132.89,-185.36L-113.43,-187.70L-83.89,-270.23L-58.21,-302.93L-39.93,-315.01L-29.02,-306.45L-67.12,-213.02L-65.95,-203.29L-55.05,-194.73L-35.59,-197.08L-17.30,-209.15L25.49,-263.66L14.58,-272.22L-28.20,-217.71L-37.93,-216.54L1.34,-300.24L-2.18,-329.42L-32.54,-335.64L-60.56,-322.39L-77.67,-300.59L-40.75,-403.74L-108.85,-395.54L-107.68,-385.81ZM120.79,-373.85L130.52,-375.02L137.90,-395.66L136.73,-405.39L116.10,-412.77L106.37,-411.60L98.99,-390.97L100.16,-381.24ZM23.14,-283.12L34.04,-274.56L76.83,-329.07L86.56,-330.24L39.90,-225.92L41.08,-216.19L51.98,-207.63L71.44,-209.97L89.72,-222.05L132.51,-276.56L121.61,-285.11L78.82,-230.60L69.09,-229.43L115.75,-333.76L114.58,-343.49L93.94,-350.88L65.93,-337.63ZM130.17,-296.02L141.07,-287.46L183.86,-341.97L193.59,-343.14L148.10,-229.08L159.00,-220.52L178.46,-222.87L208.00,-305.39L233.68,-338.10L251.96,-350.17L262.87,-341.61L224.77,-248.19L225.94,-238.46L236.84,-229.90L256.30,-232.24L274.59,-244.32L317.37,-298.83L306.47,-307.39L263.69,-252.88L253.96,-251.70L293.23,-335.40L289.71,-364.59L259.35,-370.80L231.33,-357.56L205.66,-324.85L213.04,-345.48L211.87,-355.21L200.97,-363.77L172.95,-350.52ZM340.35,-271.98L341.52,-262.25L352.42,-253.70L306.12,-228.38L298.74,-207.74L311.98,-179.73L353.24,-164.96L372.70,-167.30L410.45,-181.72L426.39,-213.25L424.05,-232.71L370.71,-265.77L369.54,-275.50L398.73,-279.02L443.86,-314.07L450.07,-344.43L436.83,-372.44L466.02,-375.96L464.84,-385.69L425.92,-381.00L385.83,-386.04L340.70,-350.99L334.49,-320.63L358.64,-284.06ZM388.18,-366.58L407.64,-368.93L420.88,-340.91L422.06,-331.18L396.38,-298.48L376.92,-296.13L363.68,-324.15L362.51,-333.88ZM363.33,-245.14L396.03,-219.47L398.38,-200.01L371.53,-177.03L340.00,-192.97L327.92,-211.26L335.31,-231.89ZM636.46,-435.98L646.19,-437.15L653.58,-457.78L652.40,-467.51L631.77,-474.90L622.04,-473.73L614.66,-453.09L615.83,-443.36ZM538.81,-345.25L549.71,-336.69L592.50,-391.20L602.23,-392.37L555.57,-288.04L556.75,-278.31L567.65,-269.76L587.11,-272.10L605.40,-284.17L648.18,-338.68L637.28,-347.24L594.49,-292.73L584.76,-291.56L631.42,-395.89L630.25,-405.62L609.62,-413.00L581.60,-399.76ZM673.50,-292.38L669.99,-321.57L659.08,-330.13L640.80,-318.05L644.31,-288.86L664.95,-281.48L684.40,-283.82L712.42,-297.07L729.54,-318.87L727.19,-338.33L711.60,-385.81L709.26,-405.27L727.54,-417.34L731.06,-388.15L741.96,-379.59L760.25,-391.67L756.73,-420.86L726.37,-427.07L688.63,-412.65L681.24,-392.02L683.58,-372.56L698.00,-334.81L700.35,-315.36L683.23,-293.55ZM-689.29,71.20L-692.81,42.01L-680.38,-18.71L-636.42,-63.49L-616.96,-65.84L-595.16,-48.72L-591.64,-19.53L-572.18,-21.88L-555.07,-43.68L-567.14,-61.97L-618.14,-75.56L-647.33,-72.05L-683.90,-47.90L-709.57,-15.19L-725.51,16.34L-729.38,66.16L-704.06,112.46L-662.80,127.23L-623.88,122.54L-597.04,99.57L-571.36,66.86L-582.27,58.31L-607.94,91.01L-634.78,113.99L-654.24,116.33L-674.87,108.95ZM-507.13,108.48L-487.67,106.13L-442.53,71.08L-420.38,9.19L-444.53,-27.39L-484.62,-32.43L-529.75,2.62L-551.91,64.52L-527.76,101.09ZM-482.27,-12.97L-462.81,-15.31L-449.57,12.71L-464.34,53.97L-490.01,86.67L-509.47,89.02L-522.72,61.00L-507.95,19.74ZM-409.48,17.75L-398.58,26.30L-355.79,-28.21L-346.06,-29.38L-391.54,84.68L-380.64,93.24L-361.18,90.89L-331.64,8.37L-305.97,-24.34L-287.68,-36.41L-276.78,-27.85L-314.88,65.57L-313.70,75.30L-302.80,83.86L-283.34,81.52L-265.06,69.44L-222.27,14.93L-233.17,6.38L-275.96,60.89L-285.69,62.06L-246.42,-21.64L-249.93,-50.83L-280.30,-57.04L-308.31,-43.80L-333.98,-11.09L-326.60,-31.72L-327.77,-41.45L-338.67,-50.01L-366.69,-36.76ZM-224.61,-4.53L-213.71,4.03L-170.92,-50.48L-161.20,-51.65L-206.68,62.41L-195.78,70.97L-176.32,68.62L-146.78,-13.90L-121.10,-46.61L-102.82,-58.68L-91.92,-50.13L-130.01,43.30L-128.84,53.03L-117.94,61.59L-98.48,59.24L-80.19,47.17L-37.41,-7.34L-48.31,-15.90L-91.10,38.61L-100.82,39.79L-61.55,-43.91L-65.07,-73.10L-95.43,-79.31L-123.45,-66.07L-149.12,-33.36L-141.74,-53.99L-142.91,-63.72L-153.81,-72.28L-181.83,-59.03ZM95.29,-52.94L92.95,-72.40L80.87,-90.68L40.78,-95.73L-4.35,-60.68L-26.50,1.22L-12.09,38.97L8.55,46.35L28.00,44.01L46.29,31.93L80.52,-11.68L69.62,-20.23L35.39,23.37L15.93,25.72L2.68,-2.30L17.45,-43.56L43.13,-76.27L62.59,-78.61L66.10,-49.42L47.82,-37.35L18.63,-33.83L19.80,-24.10L68.45,-29.96ZM231.51,-69.35L229.16,-88.81L217.09,-107.10L177.00,-112.14L131.87,-77.09L109.71,-15.19L124.13,22.55L144.76,29.94L164.22,27.60L182.51,15.52L216.74,-28.09L205.83,-36.64L171.60,6.96L152.15,9.31L138.90,-18.71L153.67,-59.97L179.34,-92.68L198.80,-95.02L202.32,-65.83ZM268.90,-4.76L305.83,-107.92L335.02,-111.43L333.84,-121.16L304.66,-117.65L319.43,-158.91L299.97,-156.56L293.75,-126.20L275.47,-114.13L256.01,-111.78L257.18,-102.05L276.64,-104.40L239.71,-1.24L240.88,8.49L251.79,17.05L271.25,14.70L289.53,2.63L332.32,-51.88L321.42,-60.44L278.63,-5.93ZM474.75,-98.65L472.40,-118.11L460.33,-136.40L420.24,-141.44L375.11,-106.39L352.95,-44.50L367.37,-6.75L388.00,0.63L407.46,-1.71L425.75,-13.78L459.98,-57.39L449.08,-65.95L414.85,-22.34L395.39,-20.00L382.14,-48.01L396.91,-89.28L422.58,-121.98L442.04,-124.33L445.56,-95.14L427.27,-83.06L398.08,-79.55L399.26,-69.82L447.90,-75.68ZM582.59,-22.81L592.32,-23.98L610.61,-36.06L653.40,-90.57L642.50,-99.12L599.71,-44.61L589.98,-43.44L655.27,-238.85L587.17,-230.65L588.34,-220.92L617.53,-224.44L598.89,-133.35L586.81,-151.64L546.72,-156.68L502.76,-111.90L489.17,-60.91L503.58,-23.16L524.22,-15.78L543.68,-18.12L569.35,-50.83L571.69,-31.37ZM541.33,-37.58L531.60,-36.41L518.36,-64.43L533.13,-105.69L558.80,-138.39L578.26,-140.74L590.33,-122.45L591.50,-112.72L567.00,-70.29Z" fill="#ffffff" stroke="#000000"/>
    <path d="M-835.49,-105.41L-845.04,-103.68L-864.99,-50.76L-922.25,-40.35L-933.53,-48.15L-926.59,-118.43L-918.78,-129.71L-880.61,-136.65L-858.05,-121.03L-866.73,-168.75L-882.34,-146.19L-920.52,-139.25L-922.25,-148.79L-913.58,-209.53L-905.77,-220.80L-858.05,-229.48L-822.48,-196.51L-812.94,-198.25L-832.89,-253.77L-869.33,-237.29L-964.76,-219.94L-942.21,-204.32L-962.16,-42.95L-987.32,-18.66L-853.71,-42.95L-832.89,-36.87ZM-699.28,-169.62L-703.62,-139.25L-734.85,-94.14L-761.75,-79.39L-771.29,-77.65L-729.65,-173.95L-733.12,-193.04L-753.94,-199.11L-780.83,-184.37L-819.88,-127.97L-808.60,-120.16L-769.56,-176.56L-760.01,-178.29L-799.92,-72.45L-798.19,-62.90L-786.91,-55.09L-767.82,-58.56L-723.57,-86.33L-692.34,-131.44L-680.19,-173.09L-683.66,-192.17L-694.94,-199.98L-714.03,-196.51L-720.10,-175.69L-708.82,-167.88ZM-544.85,-187.84L-548.32,-206.92L-561.33,-224.27L-601.24,-226.88L-643.75,-189.57L-661.97,-127.10L-645.49,-90.66L-624.67,-84.59L-605.58,-88.06L-588.23,-101.08L-557.00,-146.19L-568.27,-154.00L-599.51,-108.88L-618.59,-105.41L-633.34,-132.31L-621.20,-173.95L-597.77,-207.79L-578.69,-211.26L-573.48,-182.63L-590.83,-169.62L-619.46,-164.41L-617.73,-154.87L-570.01,-163.54ZM-543.11,-178.29L-531.83,-170.48L-492.79,-226.88L-483.25,-228.61L-521.42,-113.22L-510.15,-105.41L-491.06,-108.88L-466.77,-192.17L-441.61,-216.47L-412.97,-221.67L-408.64,-252.04L-429.46,-258.11L-446.81,-245.10L-468.50,-201.72L-478.04,-199.98L-464.16,-232.08L-465.90,-241.63L-477.18,-249.43L-504.07,-234.69ZM-304.53,-221.67L-351.38,-154.00L-360.92,-152.26L-330.55,-256.37L-332.29,-265.92L-353.11,-271.99L-380.01,-257.24L-419.05,-200.85L-407.77,-193.04L-368.73,-249.43L-359.18,-251.17L-389.55,-147.06L-387.81,-137.51L-376.54,-129.71L-357.45,-133.18L-340.10,-146.19L-308.86,-191.31L-334.89,-117.56L-348.77,-85.46L-356.58,-74.18L-366.12,-72.44L-369.60,-91.53L-380.87,-99.34L-398.23,-86.33L-393.02,-57.70L-372.20,-51.62L-362.65,-53.36L-337.49,-77.65L-315.80,-121.03L-254.20,-270.26L-265.48,-278.06L-284.57,-274.59ZM-217.77,-178.29L-187.40,-282.40L-158.77,-287.61L-160.50,-297.15L-189.13,-291.95L-176.99,-333.59L-196.08,-330.12L-200.41,-299.75L-217.77,-286.74L-236.85,-283.27L-235.12,-273.73L-216.03,-277.20L-246.40,-173.09L-244.66,-163.54L-233.38,-155.73L-214.30,-159.20L-196.94,-172.22L-157.90,-228.61L-169.18,-236.42L-208.22,-180.03ZM-105.85,-376.10L-126.67,-273.73L-158.77,-179.16L-147.49,-171.35L-128.40,-174.82L-104.11,-258.11L-80.69,-291.95L-63.33,-304.96L-52.06,-297.15L-84.16,-202.58L-82.42,-193.04L-71.14,-185.23L-52.06,-188.70L-34.70,-201.72L4.34,-258.11L-6.94,-265.92L-45.98,-209.52L-55.53,-207.79L-21.69,-292.81L-26.89,-321.44L-57.26,-325.78L-84.16,-311.03L-99.77,-288.48L-69.41,-392.59L-136.21,-380.44L-134.48,-370.90ZM91.97,-372.63L101.51,-374.37L107.58,-395.19L105.85,-404.73L85.03,-410.81L75.48,-409.07L69.41,-388.25L71.14,-378.70ZM0.87,-277.20L12.15,-269.39L51.19,-325.78L60.73,-327.52L20.82,-221.67L22.56,-212.13L33.84,-204.32L52.92,-207.79L70.28,-220.80L109.32,-277.20L98.04,-285.00L59.00,-228.61L49.45,-226.88L89.36,-332.72L87.63,-342.27L66.81,-348.34L39.91,-333.59ZM105.85,-296.28L117.13,-288.47L156.17,-344.87L165.71,-346.60L127.54,-231.21L138.82,-223.41L157.90,-226.88L182.20,-310.16L205.62,-344.00L222.97,-357.01L234.25,-349.21L202.15,-254.64L203.89,-245.09L215.16,-237.29L234.25,-240.76L251.60,-253.77L290.64,-310.16L279.37,-317.97L240.32,-261.58L230.78,-259.84L264.62,-344.87L259.41,-373.50L229.05,-377.84L202.15,-363.09L178.73,-329.25L184.80,-350.07L183.06,-359.62L171.78,-367.43L144.89,-352.68ZM314.94,-285.00L316.67,-275.46L327.95,-267.65L283.70,-239.89L277.63,-219.07L292.38,-192.17L334.02,-180.03L353.11,-183.50L389.55,-199.98L403.43,-232.08L399.96,-251.17L345.30,-280.67L343.57,-290.21L372.20,-295.42L414.71,-332.72L419.05,-363.09L404.30,-389.98L432.93,-395.19L431.20,-404.73L393.02,-397.79L353.11,-400.39L310.60,-363.09L306.26,-332.72L332.29,-298.02ZM356.58,-381.31L375.67,-384.78L390.42,-357.88L392.15,-348.34L368.73,-314.50L349.64,-311.03L334.89,-337.93L333.16,-347.47ZM339.23,-259.84L373.07,-236.42L376.54,-217.33L351.38,-193.04L319.28,-206.92L306.26,-224.27L312.33,-245.09ZM597.77,-464.60L607.32,-466.33L613.39,-487.15L611.66,-496.70L590.83,-502.77L581.29,-501.03L575.22,-480.21L576.95,-470.67ZM506.68,-369.16L517.95,-361.35L557.00,-417.75L566.54,-419.48L526.63,-313.63L528.37,-304.09L539.64,-296.28L558.73,-299.75L576.08,-312.77L615.13,-369.16L603.85,-376.97L564.80,-320.57L555.26,-318.84L595.17,-424.69L593.44,-434.23L572.61,-440.30L545.72,-425.55ZM642.89,-324.91L637.68,-353.54L626.40,-361.35L609.05,-348.34L614.26,-319.71L635.08,-313.63L654.17,-317.10L681.06,-331.85L696.68,-354.41L693.21,-373.50L674.99,-419.48L671.52,-438.57L688.87,-451.58L694.08,-422.95L705.36,-415.14L722.71,-428.16L717.50,-456.79L687.14,-461.12L650.70,-444.64L644.62,-423.82L648.09,-404.73L664.58,-368.29L668.05,-349.21L652.43,-326.65ZM-682.02,115.13L-687.22,86.50L-678.55,25.77L-637.77,-21.08L-618.68,-24.55L-596.12,-8.94L-590.92,19.69L-571.83,16.22L-556.21,-6.33L-569.23,-23.69L-620.42,-34.10L-649.05,-28.89L-683.75,-2.86L-707.18,30.97L-721.06,63.07L-721.93,112.53L-694.16,156.77L-652.52,168.92L-614.34,161.98L-589.18,137.69L-565.76,103.85L-577.04,96.04L-600.46,129.88L-625.62,154.17L-644.71,157.64L-665.53,151.57ZM-499.82,141.16L-480.73,137.69L-438.22,100.38L-420.00,37.91L-446.03,3.21L-485.94,0.61L-528.45,37.91L-546.67,100.38L-520.64,135.08ZM-482.47,19.69L-463.38,16.22L-448.63,43.12L-460.78,84.76L-484.20,118.60L-503.29,122.07L-518.04,95.17L-505.89,53.53ZM-408.72,45.72L-397.45,53.53L-358.40,-2.86L-348.86,-4.60L-387.03,110.79L-375.76,118.60L-356.67,115.13L-332.38,31.84L-308.95,-2.00L-291.60,-15.01L-280.32,-7.20L-312.42,87.37L-310.69,96.91L-299.41,104.72L-280.32,101.25L-262.97,88.23L-223.93,31.84L-235.20,24.03L-274.25,80.43L-283.79,82.16L-249.95,-2.86L-255.16,-31.49L-285.53,-35.83L-312.42,-21.08L-335.85,12.75L-329.77,-8.07L-331.51,-17.61L-342.79,-25.42L-369.68,-10.67ZM-227.40,12.75L-216.12,20.56L-177.08,-35.83L-167.53,-37.57L-205.71,77.82L-194.43,85.63L-175.34,82.16L-151.05,-1.13L-127.62,-34.96L-110.27,-47.98L-98.99,-40.17L-131.09,54.40L-129.36,63.94L-118.08,71.75L-98.99,68.28L-81.64,55.27L-42.60,-1.13L-53.88,-8.94L-92.92,47.46L-102.46,49.19L-68.63,-35.83L-73.83,-64.46L-104.20,-68.80L-131.09,-54.05L-154.52,-20.22L-148.45,-41.04L-150.18,-50.58L-161.46,-58.39L-188.35,-43.64ZM85.81,-54.05L82.33,-73.14L69.32,-90.49L29.41,-93.09L-13.10,-55.79L-31.32,6.68L-14.84,43.12L5.99,49.19L25.07,45.72L42.43,32.71L73.66,-12.41L62.38,-20.21L31.15,24.90L12.06,28.37L-2.69,1.47L9.46,-40.17L32.88,-74.01L51.97,-77.48L57.17,-48.85L39.82,-35.83L11.19,-30.63L12.93,-21.08L60.64,-29.76ZM219.41,-78.34L215.94,-97.43L202.93,-114.78L163.02,-117.39L120.51,-80.08L102.29,-17.61L118.77,18.83L139.60,24.90L158.68,21.43L176.03,8.42L207.27,-36.70L195.99,-44.51L164.76,0.61L145.67,4.08L130.92,-22.82L143.07,-64.46L166.49,-98.30L185.58,-101.77L190.78,-73.14ZM260.19,-16.74L290.56,-120.86L319.19,-126.06L317.45,-135.60L288.82,-130.40L300.97,-172.04L281.88,-168.57L277.54,-138.21L260.19,-125.19L241.10,-121.72L242.84,-112.18L261.93,-115.65L231.56,-11.54L233.30,-1.99L244.57,5.81L263.66,2.34L281.01,-10.67L320.06,-67.06L308.78,-74.87L269.74,-18.48ZM458.00,-121.72L454.53,-140.81L441.52,-158.16L401.61,-160.76L359.10,-123.46L340.88,-60.99L357.36,-24.55L378.18,-18.48L397.27,-21.95L414.62,-34.96L445.86,-80.08L434.58,-87.89L403.34,-42.77L384.26,-39.30L369.51,-66.20L381.65,-107.84L405.08,-141.68L424.17,-145.15L429.37,-116.52L412.02,-103.50L383.39,-98.30L385.13,-88.75L432.84,-97.43ZM569.06,-53.18L578.60,-54.92L595.95,-67.93L634.99,-124.32L623.71,-132.13L584.67,-75.74L575.13,-74.00L628.05,-270.95L561.25,-258.80L562.98,-249.26L591.61,-254.46L578.60,-163.37L565.59,-180.72L525.68,-183.32L484.90,-136.47L474.49,-85.28L490.97,-48.84L511.79,-42.77L530.88,-46.24L554.31,-80.08L557.78,-60.99ZM527.41,-65.33L517.87,-63.59L503.12,-90.49L515.26,-132.13L538.69,-165.97L557.78,-169.44L570.79,-152.09L572.53,-142.54L550.84,-99.16Z" fill="#ffffff" stroke="#000000"/>
    <path d="M-836.56,-50.43L-845.88,-48.15L-862.46,5.31L-918.41,18.99L-930.01,11.95L-927.32,-57.89L-920.28,-69.49L-882.98,-78.61L-859.77,-64.52L-871.17,-111.15L-885.26,-87.94L-922.56,-78.82L-924.84,-88.14L-919.87,-148.66L-912.82,-160.26L-866.20,-171.66L-829.10,-141.20L-819.78,-143.48L-842.78,-197.15L-877.80,-178.71L-971.06,-155.91L-947.85,-141.82L-957.99,18.79L-981.41,44.28L-850.85,12.36L-829.92,17.12ZM-705.80,-121.94L-708.28,-91.68L-736.46,-45.26L-762.16,-29.09L-771.48,-26.81L-736.05,-124.42L-740.61,-143.07L-761.54,-147.84L-787.24,-131.67L-822.47,-73.64L-810.86,-66.60L-775.63,-124.63L-766.31,-126.91L-799.46,-19.97L-797.18,-10.65L-785.57,-3.60L-766.92,-8.16L-724.86,-38.21L-696.68,-84.63L-687.15,-126.50L-691.71,-145.15L-703.31,-152.19L-721.96,-147.63L-726.73,-126.70L-715.12,-119.66ZM-554.31,-149.09L-558.87,-167.74L-572.76,-184.11L-612.34,-184.32L-652.13,-144.94L-666.42,-82.15L-647.98,-47.13L-627.04,-42.36L-608.39,-46.92L-592.02,-60.81L-563.84,-107.23L-575.45,-114.28L-603.63,-67.85L-622.28,-63.29L-638.44,-88.99L-628.91,-130.85L-607.78,-165.67L-589.13,-170.23L-582.29,-142.25L-598.66,-128.37L-626.63,-121.53L-624.35,-112.20L-577.73,-123.60ZM-552.03,-139.77L-540.43,-132.72L-505.20,-190.75L-495.88,-193.03L-526.75,-76.77L-515.14,-69.72L-496.49,-74.28L-477.43,-158.01L-454.01,-183.50L-426.04,-190.34L-423.55,-220.59L-444.48,-225.36L-460.85,-211.47L-479.71,-167.33L-489.04,-165.05L-477.22,-197.59L-479.51,-206.91L-491.11,-213.96L-516.81,-197.79ZM-318.90,-196.77L-361.17,-127.14L-370.50,-124.86L-346.67,-229.51L-348.95,-238.83L-369.88,-243.60L-395.58,-227.43L-430.80,-169.41L-419.20,-162.36L-383.97,-220.39L-374.65,-222.67L-398.47,-118.02L-396.19,-108.69L-384.59,-101.65L-365.94,-106.21L-349.57,-120.09L-321.38,-166.51L-342.73,-92.12L-354.54,-59.58L-361.58,-47.97L-370.91,-45.69L-375.47,-64.34L-387.07,-71.39L-403.44,-57.50L-396.60,-29.53L-375.67,-24.76L-366.35,-27.04L-342.93,-52.53L-324.07,-96.68L-272.07,-247.75L-283.67,-254.80L-302.32,-250.24ZM-230.62,-159.06L-206.79,-263.71L-178.82,-270.55L-181.10,-279.88L-209.07,-273.04L-199.54,-314.90L-218.19,-310.34L-220.68,-280.08L-237.05,-266.20L-255.70,-261.64L-253.42,-252.31L-234.77,-256.87L-258.59,-152.22L-256.31,-142.89L-244.71,-135.85L-226.06,-140.41L-209.69,-154.29L-174.46,-212.32L-186.07,-219.36L-221.29,-161.34ZM-131.78,-361.11L-146.28,-258.74L-172.39,-163.41L-160.78,-156.37L-142.13,-160.93L-123.07,-244.65L-101.93,-279.47L-85.56,-293.35L-73.96,-286.31L-100.06,-190.98L-97.78,-181.65L-86.18,-174.61L-67.53,-179.17L-51.16,-193.05L-15.93,-251.08L-27.54,-258.13L-62.76,-200.10L-72.09,-197.82L-43.70,-283.82L-50.54,-311.80L-80.80,-314.28L-106.49,-298.12L-120.58,-274.91L-96.76,-379.56L-162.04,-363.60L-159.76,-354.27ZM63.85,-369.42L73.17,-371.70L77.94,-392.63L75.66,-401.95L54.73,-406.72L45.40,-404.44L40.64,-383.51L42.92,-374.18ZM-20.49,-269.73L-8.88,-262.69L26.34,-320.71L35.67,-322.99L2.52,-216.06L4.80,-206.73L16.40,-199.69L35.05,-204.25L51.42,-218.14L86.65,-276.16L75.04,-283.21L39.82,-225.18L30.49,-222.90L63.64,-329.83L61.36,-339.16L40.43,-343.92L14.74,-327.76ZM82.09,-294.81L93.69,-287.77L128.92,-345.79L138.24,-348.07L107.37,-231.82L118.98,-224.77L137.63,-229.33L156.69,-313.05L177.83,-347.87L194.20,-361.76L205.80,-354.71L179.70,-259.38L181.98,-250.06L193.58,-243.01L212.23,-247.57L228.60,-261.46L263.83,-319.48L252.22,-326.53L217.00,-268.50L207.67,-266.22L236.06,-352.23L229.22,-380.20L198.96,-382.69L173.27,-366.52L152.13,-331.70L156.90,-352.63L154.62,-361.96L143.01,-369.01L117.31,-352.84ZM289.32,-296.07L291.60,-286.74L303.21,-279.70L261.14,-249.65L256.37,-228.72L272.54,-203.02L314.40,-193.49L333.05,-198.05L368.07,-216.50L379.88,-249.03L375.32,-267.68L319.58,-293.58L317.30,-302.91L345.27,-309.75L385.06,-349.13L387.54,-379.38L371.38,-405.08L399.35,-411.92L397.07,-421.24L359.77,-412.12L320.19,-412.33L280.40,-372.95L277.92,-342.69L305.69,-309.95ZM324.75,-393.68L343.40,-398.24L359.57,-372.54L361.85,-363.22L340.71,-328.40L322.06,-323.84L305.90,-349.54L303.61,-358.86ZM314.81,-272.65L349.63,-251.52L354.19,-232.87L330.77,-207.38L298.24,-219.19L284.35,-235.56L289.11,-256.49ZM558.09,-490.26L567.41,-492.54L572.18,-513.47L569.90,-522.80L548.97,-527.56L539.64,-525.28L534.88,-504.35L537.16,-495.03ZM473.75,-390.58L485.36,-383.53L520.58,-441.56L529.91,-443.84L496.76,-336.91L499.04,-327.58L510.64,-320.53L529.29,-325.09L545.66,-338.98L580.89,-397.01L569.28,-404.05L534.06,-346.03L524.73,-343.75L557.88,-450.68L555.60,-460.00L534.67,-464.77L508.98,-448.60ZM610.94,-354.94L604.10,-382.92L592.49,-389.96L576.12,-376.08L582.96,-348.10L603.89,-343.34L622.55,-347.90L648.24,-364.06L662.33,-387.27L657.77,-405.92L637.05,-450.27L632.49,-468.92L648.86,-482.81L655.70,-454.83L667.30,-447.78L683.67,-461.67L676.83,-489.65L646.58,-492.13L611.55,-473.68L606.79,-452.75L611.35,-434.10L629.80,-399.08L634.36,-380.43L620.27,-357.22ZM-671.86,158.34L-678.70,130.37L-673.73,69.86L-636.22,21.15L-617.57,16.59L-594.36,30.68L-587.52,58.66L-568.87,54.10L-554.78,30.89L-568.66,14.52L-619.85,7.27L-647.83,14.11L-680.57,41.88L-701.70,76.70L-713.51,109.23L-711.44,158.14L-681.39,200.21L-639.53,209.74L-602.22,200.62L-578.81,175.12L-557.67,140.31L-569.28,133.26L-590.41,168.08L-613.83,193.57L-632.48,198.13L-653.41,193.36ZM-490.32,173.25L-471.67,168.69L-431.88,129.32L-417.59,66.53L-445.36,33.78L-484.94,33.58L-524.73,72.96L-539.02,135.75L-511.25,168.49ZM-480.38,52.23L-461.73,47.67L-445.56,73.37L-455.09,115.23L-476.23,150.04L-494.88,154.60L-511.05,128.91L-501.52,87.05ZM-405.98,73.57L-394.38,80.62L-359.15,22.59L-349.83,20.31L-380.70,136.57L-369.09,143.61L-350.44,139.05L-331.38,55.33L-310.25,20.51L-293.88,6.63L-282.27,13.67L-308.38,109.00L-306.10,118.33L-294.49,125.37L-275.84,120.81L-259.47,106.93L-224.24,48.90L-235.85,41.85L-271.07,99.88L-280.40,102.16L-252.01,16.16L-258.85,-11.82L-289.11,-14.30L-314.81,1.86L-335.94,36.68L-331.18,15.75L-333.46,6.42L-345.06,-0.62L-370.76,15.54ZM-228.80,30.25L-217.20,37.29L-181.97,-20.73L-172.65,-23.01L-203.52,93.25L-191.91,100.29L-173.26,95.73L-154.20,12.01L-133.06,-22.81L-116.69,-36.69L-105.09,-29.65L-131.19,65.68L-128.91,75.00L-117.31,82.05L-98.66,77.49L-82.29,63.60L-47.06,5.58L-58.67,-1.47L-93.89,56.56L-103.22,58.84L-74.83,-27.16L-81.67,-55.14L-111.93,-57.62L-137.63,-41.46L-158.76,-6.64L-154.00,-27.57L-156.28,-36.90L-167.88,-43.94L-193.58,-27.78ZM76.65,-54.32L72.09,-72.97L58.21,-89.34L18.62,-89.55L-21.16,-50.17L-35.46,12.62L-17.01,47.64L3.92,52.41L22.57,47.85L38.94,33.96L67.12,-12.46L55.52,-19.50L27.34,26.92L8.68,31.48L-7.48,5.78L2.05,-36.08L23.19,-70.90L41.84,-75.46L48.68,-47.48L32.31,-33.59L4.33,-26.75L6.61,-17.43L53.24,-28.83ZM207.21,-86.24L202.65,-104.89L188.76,-121.26L149.18,-121.47L109.39,-82.09L95.10,-19.30L113.54,15.72L134.47,20.49L153.12,15.93L169.49,2.04L197.68,-44.38L186.07,-51.43L157.89,-5.00L139.24,-0.44L123.07,-26.14L132.60,-68.00L153.74,-102.82L172.39,-107.38L179.23,-79.40ZM251.14,-27.80L274.97,-132.46L302.94,-139.30L300.66,-148.62L272.69,-141.78L282.22,-183.64L263.57,-179.08L261.08,-148.83L244.71,-134.94L226.06,-130.38L228.34,-121.06L246.99,-125.62L223.17,-20.96L225.45,-11.64L237.05,-4.59L255.70,-9.15L272.07,-23.04L307.30,-81.07L295.69,-88.11L260.47,-30.08ZM440.34,-143.24L435.78,-161.89L421.89,-178.26L382.31,-178.47L342.53,-139.09L328.23,-76.30L346.68,-41.28L367.61,-36.52L386.26,-41.08L402.63,-54.96L430.81,-101.38L419.20,-108.43L391.02,-62.01L372.37,-57.45L356.21,-83.14L365.74,-125.00L386.87,-159.82L405.52,-164.38L412.36,-136.40L395.99,-122.52L368.02,-115.68L370.30,-106.35L416.92,-117.75ZM554.11,-82.12L563.44,-84.40L579.81,-98.28L615.03,-156.31L603.43,-163.35L568.20,-105.33L558.88,-103.05L599.48,-300.75L534.21,-284.79L536.49,-275.46L564.46,-282.30L557.01,-191.54L543.12,-207.91L503.54,-208.11L466.03,-159.41L458.78,-108.22L477.23,-73.20L498.16,-68.44L516.81,-73.00L537.95,-107.81L542.51,-89.16ZM512.25,-91.65L502.93,-89.37L486.76,-115.06L496.29,-156.92L517.43,-191.74L536.08,-196.30L549.96,-179.93L552.24,-170.60L533.39,-126.46Z" fill="#ffffff" stroke="#000000"/>
    <path d="M-833.95,4.19L-843.03,6.99L-856.23,60.79L-910.69,77.62L-922.57,71.35L-924.05,2.21L-917.78,-9.68L-881.48,-20.90L-857.71,-8.35L-871.74,-53.74L-884.28,-29.97L-920.59,-18.75L-923.39,-27.83L-922.07,-87.90L-915.80,-99.78L-870.42,-113.80L-831.97,-85.91L-822.89,-88.72L-848.80,-140.37L-882.30,-120.08L-973.06,-92.02L-949.30,-79.48L-949.80,79.77L-971.42,106.34L-844.35,67.06L-823.39,70.53ZM-709.02,-74.20L-709.69,-44.16L-734.77,3.37L-759.19,20.86L-768.27,23.66L-739.06,-74.86L-744.67,-93.01L-765.63,-96.47L-790.05,-78.98L-821.41,-19.57L-809.53,-13.30L-778.17,-72.71L-769.09,-75.52L-795.50,32.08L-792.69,41.15L-780.81,47.43L-762.66,41.82L-722.89,9.64L-697.80,-37.89L-690.87,-79.81L-696.48,-97.96L-708.36,-104.23L-726.52,-98.62L-729.98,-77.66L-718.10,-71.39ZM-561.00,-110.00L-566.61,-128.15L-581.29,-143.50L-620.40,-141.36L-657.37,-100.10L-667.77,-37.23L-647.47,-3.73L-626.51,-0.26L-608.36,-5.87L-593.01,-20.56L-567.93,-68.09L-579.81,-74.36L-604.90,-26.83L-623.05,-21.22L-640.54,-45.64L-633.61,-87.56L-614.79,-123.21L-596.64,-128.82L-588.23,-101.59L-603.57,-86.90L-630.80,-78.48L-628.00,-69.41L-582.62,-83.43ZM-558.19,-100.93L-546.31,-94.65L-514.95,-154.06L-505.88,-156.87L-529.48,-40.20L-517.60,-33.92L-499.44,-39.54L-485.58,-123.37L-463.96,-149.94L-436.73,-158.35L-436.07,-188.39L-457.03,-191.85L-472.38,-177.16L-488.39,-132.44L-497.46,-129.64L-487.72,-162.48L-490.53,-171.55L-502.41,-177.83L-526.84,-160.33ZM-331.28,-171.06L-368.91,-99.77L-377.99,-96.96L-360.66,-201.75L-363.46,-210.83L-384.42,-214.29L-408.84,-196.80L-440.20,-137.39L-428.32,-131.12L-396.96,-190.53L-387.88,-193.33L-405.21,-88.55L-402.41,-79.47L-390.53,-73.20L-372.37,-78.81L-357.03,-93.49L-331.94,-141.02L-348.61,-66.27L-358.35,-33.43L-364.62,-21.54L-373.70,-18.74L-379.31,-36.89L-391.19,-43.16L-406.54,-28.48L-398.12,-1.25L-377.16,2.22L-368.09,-0.59L-346.47,-27.15L-330.46,-71.88L-288.04,-224.19L-299.93,-230.46L-318.08,-224.85ZM-241.84,-139.04L-224.51,-243.83L-197.28,-252.24L-200.09,-261.32L-227.31,-252.90L-220.38,-294.82L-238.54,-289.21L-239.20,-259.18L-254.54,-244.49L-272.70,-238.88L-269.89,-229.80L-251.74,-235.41L-269.07,-130.62L-266.26,-121.55L-254.38,-115.28L-236.23,-120.89L-220.88,-135.57L-189.53,-194.98L-201.41,-201.25L-232.76,-141.84ZM-156.19,-344.49L-164.44,-242.51L-184.58,-146.79L-172.69,-140.52L-154.54,-146.13L-140.68,-229.96L-121.86,-265.61L-106.52,-280.30L-94.63,-274.02L-114.77,-178.31L-111.96,-169.23L-100.08,-162.96L-81.93,-168.57L-66.58,-183.26L-35.23,-242.67L-47.11,-248.94L-78.46,-189.53L-87.54,-186.73L-64.60,-273.36L-73.02,-300.59L-103.05,-301.25L-127.47,-283.76L-140.02,-260.00L-122.69,-364.79L-186.22,-345.15L-183.42,-336.08ZM36.56,-364.29L45.64,-367.10L49.10,-388.05L46.30,-397.13L25.34,-400.60L16.26,-397.79L12.80,-376.83L15.60,-367.76ZM-40.84,-260.82L-28.96,-254.55L2.40,-313.96L11.48,-316.76L-14.93,-209.17L-12.12,-200.09L-0.24,-193.82L17.91,-199.43L33.26,-214.12L64.61,-273.53L52.73,-279.80L21.38,-220.39L12.30,-217.58L38.71,-325.18L35.90,-334.26L14.94,-337.72L-9.48,-320.23ZM59.00,-291.68L70.88,-285.41L102.24,-344.82L111.32,-347.62L87.72,-230.95L99.60,-224.68L117.75,-230.29L131.61,-314.12L150.43,-349.77L165.78,-364.45L177.66,-358.18L157.52,-262.47L160.33,-253.39L172.21,-247.12L190.36,-252.73L205.71,-267.42L237.06,-326.82L225.18,-333.10L193.83,-273.69L184.75,-270.88L207.69,-357.52L199.28,-384.75L169.24,-385.41L144.82,-367.92L126.00,-332.27L129.47,-353.23L126.66,-362.31L114.78,-368.58L90.36,-351.09ZM263.63,-305.21L266.44,-296.13L278.32,-289.86L238.55,-257.68L235.08,-236.72L252.57,-212.30L294.49,-205.37L312.64,-210.98L346.14,-231.27L355.88,-264.11L350.27,-282.27L293.67,-304.55L290.86,-313.62L318.09,-322.04L355.06,-363.29L355.72,-393.33L338.23,-417.75L365.46,-426.17L362.65,-435.24L326.35,-424.02L287.23,-421.88L250.27,-380.62L249.61,-350.59L278.98,-319.89ZM292.84,-403.72L311.00,-409.33L328.49,-384.91L331.29,-375.83L312.48,-340.19L294.33,-334.58L276.84,-359.00L274.03,-368.08ZM290.20,-283.59L325.85,-264.77L331.46,-246.62L309.84,-220.05L277.00,-229.79L262.31,-245.14L265.78,-266.10ZM517.61,-512.97L526.69,-515.77L530.15,-536.73L527.35,-545.80L506.39,-549.27L497.31,-546.47L493.85,-525.51L496.65,-516.43ZM440.21,-409.50L452.09,-403.23L483.45,-462.63L492.53,-465.44L466.12,-357.84L468.92,-348.77L480.81,-342.50L498.96,-348.11L514.31,-362.79L545.66,-422.20L533.78,-428.47L502.42,-369.06L493.35,-366.26L519.75,-473.85L516.95,-482.93L495.99,-486.40L471.57,-468.90ZM577.84,-382.43L569.43,-409.66L557.54,-415.93L542.20,-401.24L550.61,-374.01L571.57,-370.55L589.72,-376.16L614.15,-393.65L626.69,-417.41L621.08,-435.57L597.98,-478.14L592.37,-496.30L607.71,-510.98L616.13,-483.75L628.01,-477.48L643.36,-492.17L634.94,-519.40L604.91,-520.06L571.41,-499.76L567.94,-478.80L573.55,-460.65L593.85,-427.15L599.46,-409.00L586.92,-385.23ZM-658.88,200.65L-667.30,173.42L-665.97,113.36L-631.81,63.02L-613.66,57.41L-589.90,69.96L-581.48,97.19L-563.33,91.58L-550.79,67.81L-565.47,52.46L-616.47,48.34L-643.69,56.75L-674.39,86.13L-693.20,121.77L-702.94,154.61L-697.99,202.80L-665.81,242.57L-623.90,249.50L-587.59,238.28L-565.97,211.71L-547.16,176.07L-559.04,169.80L-577.85,205.44L-599.47,232.01L-617.62,237.62L-638.58,234.15ZM-478.67,204.62L-460.52,199.01L-423.55,157.75L-413.16,94.88L-442.53,64.18L-481.64,66.33L-518.61,107.58L-529.01,170.46L-499.63,201.15ZM-476.03,84.48L-457.88,78.87L-440.39,103.29L-447.32,145.21L-466.13,180.86L-484.28,186.47L-501.78,162.04L-494.84,120.13ZM-401.27,101.15L-389.39,107.42L-358.04,48.01L-348.96,45.21L-372.56,161.88L-360.68,168.15L-342.53,162.54L-328.66,78.71L-309.85,43.06L-294.50,28.38L-282.62,34.65L-302.76,130.36L-299.95,139.44L-288.07,145.71L-269.92,140.10L-254.57,125.41L-223.21,66.00L-235.09,59.73L-266.45,119.14L-275.53,121.95L-252.59,35.31L-261.00,8.08L-291.04,7.42L-315.46,24.91L-334.27,60.56L-330.81,39.60L-333.61,30.52L-345.50,24.25L-369.92,41.74ZM-228.82,47.85L-216.94,54.12L-185.59,-5.29L-176.51,-8.09L-200.11,108.58L-188.23,114.85L-170.08,109.24L-156.21,25.41L-137.40,-10.23L-122.05,-24.92L-110.17,-18.65L-130.30,77.06L-127.50,86.14L-115.62,92.41L-97.47,86.80L-82.12,72.11L-50.76,12.71L-62.64,6.43L-94.00,65.84L-103.08,68.65L-80.14,-17.99L-88.55,-45.22L-118.59,-45.88L-143.01,-28.39L-161.82,7.26L-158.36,-13.70L-161.16,-22.78L-173.04,-29.05L-197.47,-11.56ZM67.89,-53.80L62.28,-71.95L47.60,-87.30L8.48,-85.15L-28.48,-43.90L-38.88,18.98L-18.58,52.48L2.38,55.94L20.53,50.33L35.88,35.65L60.96,-11.88L49.08,-18.15L23.99,29.37L5.84,34.99L-11.65,10.56L-4.72,-31.35L14.09,-67.00L32.25,-72.61L40.66,-45.38L25.32,-30.69L-1.91,-22.28L0.89,-13.20L46.27,-27.23ZM194.96,-93.07L189.35,-111.22L174.66,-126.57L135.55,-124.42L98.59,-83.17L88.19,-20.30L108.49,13.20L129.44,16.67L147.60,11.06L162.94,-3.63L188.03,-51.15L176.15,-57.42L151.06,-9.90L132.91,-4.29L115.42,-28.71L122.35,-70.63L141.16,-106.27L159.32,-111.88L167.73,-84.65ZM241.83,-37.95L259.16,-142.74L286.39,-151.16L283.58,-160.23L256.35,-151.82L263.28,-193.73L245.13,-188.12L244.47,-158.09L229.12,-143.40L210.97,-137.79L213.78,-128.71L231.93,-134.32L214.60,-29.53L217.40,-20.46L229.28,-14.19L247.44,-19.80L262.79,-34.48L294.14,-93.89L282.26,-100.16L250.90,-40.76ZM421.87,-163.20L416.26,-181.35L401.57,-196.70L362.46,-194.55L325.50,-153.30L315.10,-90.43L335.40,-56.93L356.35,-53.46L374.51,-59.07L389.85,-73.76L414.94,-121.28L403.06,-127.55L377.97,-80.03L359.82,-74.42L342.33,-98.84L349.26,-140.76L368.07,-176.40L386.23,-182.01L394.64,-154.78L379.29,-140.10L352.07,-131.68L354.87,-122.60L400.25,-136.63ZM537.88,-109.56L546.96,-112.37L562.31,-127.06L593.66,-186.46L581.78,-192.73L550.42,-133.33L541.35,-130.52L569.74,-328.22L506.20,-308.58L509.01,-299.51L536.24,-307.92L534.25,-217.82L519.57,-233.17L480.46,-231.02L446.30,-180.69L442.17,-129.70L462.47,-96.20L483.42,-92.73L501.58,-98.34L520.39,-133.99L526.00,-115.83ZM495.97,-116.50L486.89,-113.69L469.40,-138.11L476.33,-180.03L495.14,-215.67L513.30,-221.29L527.98,-205.94L530.79,-196.86L514.78,-152.14Z" fill="#ffffff" stroke="#000000"/>
    <path d="M-827.73,58.20L-836.53,61.51L-846.38,115.43L-899.17,135.28L-911.27,129.79L-916.84,61.59L-911.35,49.48L-876.16,36.24L-851.94,47.22L-868.48,3.23L-879.46,27.44L-914.66,40.68L-917.97,31.88L-920.22,-27.53L-914.73,-39.63L-870.74,-56.18L-831.11,-30.91L-822.31,-34.22L-850.96,-83.70L-882.85,-61.67L-970.83,-28.58L-946.62,-17.60L-937.67,139.72L-957.45,167.24L-834.27,120.92L-813.36,123.10ZM-708.99,-26.62L-707.86,3.08L-729.82,51.51L-752.90,70.23L-761.70,73.54L-738.69,-25.50L-745.31,-43.09L-766.21,-45.27L-789.30,-26.55L-816.75,33.99L-804.64,39.48L-777.19,-21.06L-768.39,-24.37L-788.10,83.47L-784.79,92.27L-772.68,97.76L-755.08,91.14L-717.71,57.00L-695.75,8.57L-691.39,-33.24L-698.01,-50.84L-710.11,-56.33L-727.71,-49.71L-729.89,-28.80L-717.78,-23.31ZM-564.90,-70.77L-571.52,-88.36L-586.94,-102.65L-625.44,-98.21L-659.50,-55.27L-666.05,7.44L-644.01,39.33L-623.11,41.51L-605.51,34.89L-591.22,19.47L-569.26,-28.95L-581.37,-34.44L-603.33,13.98L-620.93,20.60L-639.65,-2.48L-635.29,-44.30L-618.82,-80.62L-601.22,-87.23L-591.30,-60.84L-605.59,-45.42L-631.98,-35.50L-628.67,-26.70L-584.68,-43.24ZM-561.59,-61.97L-549.49,-56.48L-522.04,-117.01L-513.24,-120.32L-529.63,-3.69L-517.53,1.80L-499.93,-4.81L-491.21,-88.44L-471.43,-115.96L-445.03,-125.89L-446.16,-155.59L-467.07,-157.77L-481.35,-142.36L-494.51,-97.24L-503.31,-93.93L-495.64,-126.94L-498.95,-135.74L-511.06,-141.23L-534.15,-122.50ZM-341.63,-144.69L-374.57,-72.04L-383.37,-68.73L-372.46,-173.26L-375.77,-182.06L-396.68,-184.24L-419.77,-165.52L-447.21,-104.98L-435.11,-99.49L-407.66,-160.03L-398.86,-163.34L-409.76,-58.81L-406.46,-50.01L-394.35,-44.52L-376.75,-51.14L-362.46,-66.55L-340.51,-114.98L-352.54,-40.16L-360.21,-7.15L-365.70,4.96L-374.50,8.27L-381.11,-9.33L-393.22,-14.82L-407.51,0.60L-397.58,27.00L-376.68,29.18L-367.88,25.87L-348.10,-1.66L-334.94,-46.78L-302.08,-199.73L-314.18,-205.22L-331.78,-198.60ZM-251.39,-118.37L-240.49,-222.89L-214.09,-232.82L-217.40,-241.62L-243.80,-231.69L-239.44,-273.50L-257.03,-266.89L-255.90,-237.18L-270.19,-221.77L-287.79,-215.15L-284.48,-206.35L-266.88,-212.97L-277.79,-108.44L-274.48,-99.64L-262.37,-94.15L-244.78,-100.77L-230.49,-116.18L-203.04,-176.72L-215.15,-182.21L-242.59,-121.67ZM-178.97,-326.37L-181.08,-225.15L-195.29,-129.42L-183.19,-123.93L-165.59,-130.55L-156.87,-214.17L-140.40,-250.49L-126.11,-265.91L-114.00,-260.42L-128.22,-164.69L-124.91,-155.89L-112.80,-150.40L-95.20,-157.02L-80.91,-172.43L-53.47,-232.97L-65.57,-238.46L-93.02,-177.92L-101.82,-174.61L-84.30,-261.55L-94.22,-287.94L-123.93,-286.81L-147.01,-268.09L-157.99,-243.87L-147.09,-348.40L-208.68,-325.24L-205.37,-316.44ZM10.23,-357.35L19.03,-360.66L21.21,-381.56L17.90,-390.36L-3.01,-392.54L-11.80,-389.24L-13.99,-368.33L-10.68,-359.53ZM-60.08,-250.57L-47.98,-245.08L-20.53,-305.61L-11.73,-308.92L-31.43,-201.08L-28.12,-192.29L-16.02,-186.80L1.58,-193.41L15.87,-208.83L43.32,-269.37L31.21,-274.86L3.76,-214.32L-5.04,-211.01L14.67,-318.85L11.36,-327.65L-9.55,-329.83L-32.64,-311.10ZM36.70,-286.96L48.81,-281.47L76.25,-342.01L85.05,-345.32L68.66,-228.68L80.77,-223.19L98.36,-229.81L107.09,-313.43L123.56,-349.75L137.84,-365.17L149.95,-359.68L135.74,-263.95L139.05,-255.15L151.15,-249.66L168.75,-256.28L183.04,-271.70L210.49,-332.23L198.38,-337.72L170.93,-277.19L162.13,-273.88L179.65,-360.81L169.73,-387.20L140.02,-386.08L116.94,-367.35L100.47,-331.03L102.65,-351.94L99.34,-360.73L87.23,-366.22L64.15,-347.50ZM238.01,-312.46L241.32,-303.66L253.43,-298.17L216.05,-264.03L213.87,-243.12L232.59,-220.03L274.41,-215.67L292.00,-222.29L323.89,-244.32L331.56,-277.34L324.94,-294.93L267.71,-313.58L264.40,-322.38L290.80,-332.31L324.87,-375.25L323.74,-404.95L305.01,-428.04L331.41,-437.96L328.10,-446.76L292.91,-433.53L254.40,-429.09L220.34,-386.15L221.47,-356.45L252.30,-327.87ZM261.02,-411.49L278.62,-418.11L297.34,-395.02L300.65,-386.23L284.18,-349.90L266.59,-343.29L247.86,-366.37L244.55,-375.17ZM265.53,-292.68L301.85,-276.21L308.47,-258.61L288.69,-231.09L255.68,-238.76L240.27,-253.05L242.45,-273.95ZM476.54,-532.71L485.34,-536.02L487.52,-556.93L484.22,-565.73L463.31,-567.91L454.51,-564.60L452.33,-543.69L455.64,-534.90ZM406.23,-425.93L418.34,-420.44L445.79,-480.98L454.59,-484.29L434.88,-376.45L438.19,-367.65L450.30,-362.16L467.90,-368.78L482.18,-384.19L509.63,-444.73L497.53,-450.22L470.08,-389.68L461.28,-386.38L480.98,-494.21L477.67,-503.01L456.77,-505.19L433.68,-486.47ZM543.77,-407.36L533.85,-433.75L521.74,-439.24L507.45,-423.83L517.38,-397.43L538.28,-395.25L555.88,-401.87L578.97,-420.59L589.95,-444.81L583.33,-462.40L557.99,-503.09L551.37,-520.68L565.66,-536.10L575.58,-509.70L587.69,-504.21L601.98,-519.63L592.05,-546.02L562.35,-544.90L530.46,-522.86L528.28,-501.96L534.90,-484.36L556.93,-452.48L563.55,-434.88L552.57,-410.66ZM-643.16,241.87L-653.09,215.48L-655.35,156.07L-624.59,104.33L-606.99,97.71L-582.78,108.69L-572.85,135.09L-555.25,128.47L-544.28,104.26L-559.69,89.97L-610.30,88.91L-636.70,98.84L-665.27,129.67L-681.74,165.99L-689.41,199.01L-681.67,246.31L-647.53,283.68L-605.71,288.04L-570.52,274.81L-550.74,247.29L-534.27,210.96L-546.38,205.47L-562.85,241.80L-582.63,269.32L-600.22,275.94L-621.13,273.76ZM-464.94,235.10L-447.34,228.49L-413.28,185.55L-406.73,122.83L-437.57,94.25L-476.07,98.69L-510.13,141.63L-516.68,204.35L-485.85,232.92ZM-469.45,116.29L-451.85,109.67L-433.13,132.76L-437.49,174.57L-453.96,210.89L-471.56,217.51L-490.28,194.42L-485.92,152.61ZM-394.63,128.32L-382.52,133.81L-355.07,73.27L-346.27,69.96L-362.67,186.60L-350.56,192.09L-332.96,185.47L-324.24,101.85L-307.77,65.53L-293.48,50.11L-281.38,55.60L-295.59,151.33L-292.28,160.13L-280.17,165.62L-262.58,159.00L-248.29,143.59L-220.84,83.05L-232.95,77.56L-260.40,138.10L-269.19,141.40L-251.67,54.47L-261.60,28.08L-291.30,29.21L-314.39,47.93L-330.86,84.25L-328.68,63.35L-331.99,54.55L-344.09,49.06L-367.18,67.78ZM-227.46,65.45L-215.35,70.94L-187.90,10.41L-179.10,7.10L-195.50,123.73L-183.39,129.22L-165.79,122.61L-157.07,38.98L-140.60,2.66L-126.31,-12.75L-114.21,-7.26L-128.42,88.46L-125.11,97.26L-113.00,102.75L-95.41,96.14L-81.12,80.72L-53.67,20.18L-65.78,14.69L-93.23,75.23L-102.02,78.54L-84.50,-8.39L-94.43,-34.79L-124.13,-33.66L-147.22,-14.94L-163.69,21.39L-161.51,0.48L-164.82,-8.32L-176.92,-13.81L-200.01,4.92ZM59.58,-52.53L52.96,-70.13L37.55,-84.42L-0.95,-79.98L-35.02,-37.04L-41.56,25.67L-19.53,57.56L1.38,59.74L18.97,53.12L33.26,37.71L55.22,-10.72L43.11,-16.21L21.15,32.22L3.56,38.83L-15.17,15.75L-10.81,-26.06L5.66,-62.39L23.26,-69.00L33.19,-42.61L18.90,-27.19L-7.50,-17.27L-4.19,-8.47L39.80,-25.01ZM182.76,-98.86L176.14,-116.45L160.73,-130.74L122.22,-126.31L88.16,-83.37L81.61,-20.65L103.65,11.24L124.55,13.42L142.15,6.80L156.44,-8.62L178.40,-57.05L166.29,-62.54L144.33,-14.11L126.73,-7.49L108.01,-30.58L112.37,-72.39L128.84,-108.71L146.44,-115.33L156.36,-88.93ZM232.32,-47.19L243.22,-151.72L269.62,-161.65L266.31,-170.45L239.91,-160.52L244.27,-202.33L226.68,-195.71L227.80,-166.01L213.52,-150.59L195.92,-143.98L199.23,-135.18L216.82,-141.80L205.92,-37.27L209.23,-28.47L221.34,-22.98L238.93,-29.60L253.22,-45.01L280.67,-105.55L268.56,-111.04L241.11,-50.50ZM402.72,-181.58L396.10,-199.17L380.69,-213.46L342.18,-209.02L308.12,-166.09L301.57,-103.37L323.61,-71.48L344.51,-69.30L362.11,-75.92L376.40,-91.34L398.36,-139.77L386.25,-145.25L364.29,-96.83L346.69,-90.21L327.97,-113.29L332.33,-155.11L348.80,-191.43L366.40,-198.05L376.32,-171.65L362.04,-156.23L335.64,-146.31L338.95,-137.51L382.94,-154.05ZM520.48,-135.48L529.28,-138.79L543.57,-154.20L571.02,-214.74L558.91,-220.23L531.46,-159.69L522.66,-156.38L538.98,-353.33L477.39,-330.17L480.70,-321.37L507.10,-331.30L510.48,-242.19L495.07,-256.48L456.56,-252.04L425.81,-200.30L424.75,-149.69L446.79,-117.81L467.69,-115.63L485.29,-122.24L501.76,-158.56L508.38,-140.97ZM478.67,-139.84L469.87,-136.53L451.15,-159.62L455.51,-201.43L471.98,-237.75L489.58,-244.37L504.99,-230.08L508.30,-221.28L495.14,-176.16Z" fill="#ffffff" stroke="#000000"/>
    <path d="M-817.96,111.37L-826.45,115.15L-832.98,168.99L-883.94,191.72L-896.23,187.02L-905.76,119.99L-901.06,107.71L-867.09,92.55L-842.52,101.96L-861.47,59.49L-870.88,84.06L-904.85,99.21L-908.64,90.72L-914.39,32.18L-909.68,19.90L-867.22,0.96L-826.58,23.56L-818.09,19.77L-849.32,-27.40L-879.50,-3.75L-964.43,34.14L-939.87,43.55L-921.70,198.39L-939.61,226.74L-820.70,173.69L-799.93,174.61ZM-705.72,20.55L-702.85,49.82L-721.66,98.95L-743.35,118.81L-751.84,122.60L-734.99,23.43L-742.57,6.44L-763.34,5.53L-785.03,25.39L-808.55,86.80L-796.27,91.50L-772.75,30.09L-764.26,26.30L-777.32,133.97L-773.53,142.46L-761.25,147.17L-744.27,139.59L-709.38,103.66L-690.56,54.53L-688.73,12.98L-696.31,-4.01L-708.59,-8.71L-725.58,-1.13L-726.50,19.64L-714.21,24.34ZM-566.04,-31.58L-573.62,-48.57L-589.69,-61.76L-627.45,-55.10L-658.55,-10.67L-661.29,51.65L-637.64,81.84L-616.87,82.75L-599.88,75.17L-586.69,59.10L-567.87,9.97L-580.15,5.27L-598.97,54.40L-615.96,61.97L-635.82,40.28L-633.99,-1.27L-619.88,-38.11L-602.89,-45.69L-591.52,-20.21L-604.72,-4.14L-630.20,7.23L-626.41,15.72L-583.94,-3.23ZM-562.25,-23.09L-549.97,-18.38L-526.45,-79.79L-517.96,-83.58L-527.24,32.58L-514.95,37.28L-497.97,29.70L-494.31,-53.40L-476.41,-81.75L-450.93,-93.12L-453.80,-122.39L-474.58,-123.30L-487.78,-107.23L-498.10,-61.89L-506.59,-58.10L-500.97,-91.16L-504.76,-99.65L-517.04,-104.36L-538.73,-84.50ZM-349.93,-117.82L-378.15,-44.12L-386.64,-40.33L-382.07,-144.21L-385.86,-152.70L-406.63,-153.62L-428.32,-133.76L-451.84,-72.35L-439.56,-67.64L-416.04,-129.05L-407.55,-132.84L-412.12,-28.97L-408.33,-20.47L-396.05,-15.77L-379.06,-23.35L-365.87,-39.42L-347.05,-88.55L-354.50,-13.94L-360.12,19.12L-364.82,31.40L-373.32,35.19L-380.89,18.20L-393.18,13.50L-406.37,29.57L-395.01,55.05L-374.23,55.96L-365.74,52.17L-347.84,23.82L-337.51,-21.52L-314.13,-174.52L-326.41,-179.23L-343.39,-171.65ZM-259.25,-97.17L-254.67,-201.05L-229.20,-212.42L-232.98,-220.91L-258.46,-209.54L-256.63,-251.09L-273.62,-243.51L-270.75,-214.25L-283.94,-198.17L-300.93,-190.60L-297.14,-182.10L-280.15,-189.68L-284.73,-85.81L-280.94,-77.31L-268.65,-72.61L-251.67,-80.19L-238.47,-96.26L-214.95,-157.67L-227.24,-162.37L-250.75,-100.96ZM-200.06,-306.89L-196.14,-206.80L-204.50,-111.42L-192.22,-106.71L-175.23,-114.29L-171.57,-197.39L-157.46,-234.24L-144.26,-250.31L-131.98,-245.61L-140.34,-150.22L-136.56,-141.73L-124.27,-137.03L-107.29,-144.60L-94.09,-160.68L-70.57,-222.09L-82.85,-226.79L-106.37,-165.38L-114.87,-161.59L-102.71,-248.48L-114.08,-273.96L-143.35,-271.08L-165.04,-251.22L-174.45,-226.66L-169.87,-330.54L-229.33,-304.01L-225.54,-295.52ZM-15.04,-348.70L-6.55,-352.49L-5.63,-373.26L-9.42,-381.76L-30.20,-382.67L-38.69,-378.88L-39.60,-358.11L-35.82,-349.61ZM-78.15,-239.07L-65.87,-234.37L-42.35,-295.78L-33.86,-299.57L-46.92,-191.90L-43.13,-183.41L-30.85,-178.71L-13.86,-186.29L-0.67,-202.36L22.85,-263.77L10.57,-268.47L-12.95,-207.06L-21.44,-203.27L-8.38,-310.94L-12.17,-319.43L-32.94,-320.34L-54.63,-300.48ZM15.27,-280.75L27.56,-276.05L51.08,-337.46L59.57,-341.25L50.29,-225.09L62.57,-220.39L79.56,-227.97L83.22,-311.07L97.33,-347.91L110.53,-363.99L122.81,-359.28L114.45,-263.90L118.24,-255.41L130.52,-250.70L147.50,-258.28L160.70,-274.35L184.22,-335.76L171.94,-340.47L148.42,-279.06L139.93,-275.27L152.08,-362.16L140.71,-387.64L111.44,-384.76L89.75,-364.90L75.64,-328.05L76.55,-348.83L72.76,-357.32L60.48,-362.03L38.79,-342.17ZM212.57,-317.86L216.36,-309.37L228.65,-304.67L193.76,-268.73L192.84,-247.96L212.70,-226.27L254.26,-224.44L271.24,-232.02L301.42,-255.67L307.04,-288.73L299.46,-305.71L241.84,-320.74L238.05,-329.23L263.53,-340.60L294.63,-385.02L291.75,-414.29L271.89,-435.98L297.37,-447.35L293.58,-455.84L259.61,-440.69L221.85,-434.02L190.75,-389.60L193.63,-360.33L225.77,-333.93ZM229.43,-417.04L246.42,-424.61L266.28,-402.92L270.06,-394.43L255.95,-357.58L238.97,-350.01L219.11,-371.70L215.32,-380.19ZM240.93,-299.96L277.77,-285.85L285.35,-268.86L267.45,-240.51L234.39,-246.13L218.32,-259.33L219.24,-280.10ZM435.09,-549.53L443.58,-553.32L444.50,-574.09L440.71,-582.59L419.93,-583.50L411.44,-579.71L410.53,-558.94L414.32,-550.44ZM371.98,-439.90L384.26,-435.20L407.78,-496.61L416.28,-500.40L403.21,-392.73L407.00,-384.24L419.28,-379.54L436.27,-387.11L449.46,-403.19L472.98,-464.60L460.70,-469.30L437.18,-407.89L428.69,-404.10L441.75,-511.77L437.97,-520.26L417.19,-521.17L395.50,-501.31ZM508.92,-429.71L497.55,-455.19L485.27,-459.89L472.07,-443.82L483.44,-418.34L504.21,-417.43L521.20,-425.01L542.89,-444.87L552.30,-469.43L544.72,-486.42L517.28,-525.09L509.70,-542.08L522.90,-558.15L534.26,-532.67L546.55,-527.97L559.74,-544.04L548.38,-569.52L519.11,-566.64L488.92,-542.99L488.01,-522.22L495.59,-505.23L519.24,-475.05L526.82,-458.06L517.41,-433.50ZM-624.80,281.81L-636.17,256.33L-641.92,197.80L-614.61,144.88L-597.62,137.30L-573.06,146.71L-561.69,172.19L-544.70,164.61L-535.30,140.05L-551.37,126.85L-601.41,128.81L-626.89,140.18L-653.29,172.32L-667.40,209.17L-673.01,242.22L-662.56,288.48L-626.63,323.36L-585.08,325.19L-551.11,310.04L-533.21,281.68L-519.09,244.84L-531.38,240.13L-545.49,276.98L-563.39,305.33L-580.38,312.91L-601.15,312.00ZM-449.19,264.57L-432.20,256.99L-401.11,212.56L-398.36,150.24L-430.51,123.84L-468.27,130.51L-499.36,174.93L-502.11,237.26L-469.97,263.65ZM-460.69,147.49L-443.70,139.91L-423.84,161.60L-425.67,203.15L-439.78,240.00L-456.77,247.58L-476.63,225.89L-474.80,184.34ZM-386.08,154.94L-373.80,159.64L-350.28,98.23L-341.79,94.44L-351.06,210.60L-338.78,215.31L-321.79,207.73L-318.14,124.63L-304.02,87.78L-290.83,71.71L-278.55,76.41L-286.91,171.80L-283.12,180.29L-270.84,184.99L-253.85,177.41L-240.65,161.34L-217.13,99.93L-229.42,95.23L-252.94,156.64L-261.43,160.43L-249.28,73.54L-260.65,48.06L-289.91,50.93L-311.60,70.79L-325.71,107.64L-324.80,86.87L-328.59,78.37L-340.87,73.67L-362.56,93.53ZM-224.71,82.94L-212.43,87.65L-188.91,26.24L-180.42,22.45L-189.70,138.61L-177.41,143.31L-160.43,135.73L-156.77,52.63L-142.66,15.78L-129.46,-0.29L-117.18,4.42L-125.54,99.80L-121.75,108.29L-109.47,113.00L-92.48,105.42L-79.29,89.35L-55.77,27.94L-68.05,23.23L-91.57,84.64L-100.06,88.43L-87.91,1.54L-99.28,-23.94L-128.55,-21.06L-150.24,-1.20L-164.35,35.65L-163.43,14.87L-167.22,6.38L-179.50,1.67L-201.19,21.53ZM51.77,-50.59L44.19,-67.58L28.12,-80.78L-9.64,-74.11L-40.74,-29.69L-43.48,32.64L-19.83,62.82L0.94,63.74L17.93,56.16L31.12,40.09L49.94,-9.04L37.66,-13.75L18.84,35.38L1.86,42.96L-18.01,21.27L-16.18,-20.28L-2.06,-57.13L14.92,-64.70L26.29,-39.22L13.09,-23.15L-12.39,-11.79L-8.60,-3.29L33.87,-22.24ZM170.67,-103.64L163.09,-120.63L147.02,-133.82L109.26,-127.16L78.16,-82.74L75.42,-20.41L99.07,9.77L119.84,10.69L136.83,3.11L150.03,-12.96L168.84,-62.09L156.56,-66.79L137.74,-17.67L120.76,-10.09L100.90,-31.78L102.73,-73.33L116.84,-110.17L133.82,-117.75L145.19,-92.27ZM222.67,-55.56L227.25,-159.43L252.73,-170.80L248.94,-179.30L223.46,-167.93L225.29,-209.48L208.30,-201.90L211.18,-172.63L197.98,-156.56L180.99,-148.98L184.78,-140.49L201.77,-148.07L197.20,-44.19L200.98,-35.70L213.27,-30.99L230.25,-38.57L243.45,-54.64L266.97,-116.05L254.69,-120.76L231.17,-59.35ZM383.00,-198.37L375.42,-215.36L359.35,-228.56L321.59,-221.89L290.49,-177.47L287.74,-115.14L311.39,-84.96L332.17,-84.04L349.16,-91.62L362.35,-107.69L381.17,-156.82L368.89,-161.53L350.07,-112.40L333.08,-104.82L313.22,-126.51L315.05,-168.06L329.16,-204.91L346.15,-212.48L357.52,-187.00L344.32,-170.93L318.84,-159.57L322.63,-151.07L365.10,-170.02ZM502.03,-159.83L510.52,-163.62L523.72,-179.69L547.24,-241.10L534.96,-245.80L511.44,-184.39L502.94,-180.60L507.39,-376.07L447.94,-349.55L451.72,-341.06L477.20,-352.42L485.83,-264.62L469.76,-277.82L432.00,-271.15L404.69,-218.23L406.65,-168.19L430.30,-138.01L451.07,-137.09L468.06,-144.67L482.17,-181.52L489.75,-164.53ZM460.48,-161.66L451.99,-157.87L432.13,-179.56L433.96,-221.11L448.07,-257.95L465.05,-265.53L481.12,-252.34L484.91,-243.84L474.59,-198.50Z" fill="#ffffff" stroke="#000000"/>
    <path d="M-804.73,163.45L-812.90,167.69L-816.16,221.24L-865.13,246.71L-877.53,242.79L-890.93,177.17L-887.01,164.76L-854.36,147.78L-829.55,155.61L-850.77,114.80L-858.61,139.62L-891.25,156.60L-895.50,148.44L-904.65,90.97L-900.73,78.57L-859.92,57.34L-818.45,77.25L-810.29,73.01L-843.92,28.28L-872.33,53.42L-953.95,95.87L-929.13,103.71L-902.02,255.53L-918.02,284.59L-803.75,225.15L-783.18,224.83ZM-699.28,67.12L-694.71,95.85L-710.38,145.48L-730.62,166.38L-738.78,170.62L-728.01,71.69L-736.50,55.37L-757.07,55.70L-777.31,76.60L-796.90,138.63L-784.49,142.55L-764.91,80.51L-756.75,76.27L-763.27,183.36L-759.02,191.52L-746.61,195.44L-730.29,186.95L-697.97,149.40L-682.30,99.77L-682.96,58.63L-691.45,42.31L-703.86,38.39L-720.18,46.88L-719.85,67.45L-707.45,71.37ZM-564.45,7.36L-572.94,-8.96L-589.59,-21.04L-626.48,-12.22L-654.56,33.49L-653.57,95.20L-628.43,123.60L-607.86,123.27L-591.54,114.78L-579.46,98.13L-563.79,48.50L-576.20,44.58L-591.86,94.21L-608.19,102.70L-629.09,82.46L-629.74,41.32L-617.99,4.10L-601.67,-4.39L-588.93,20.10L-601.01,36.75L-625.50,49.48L-621.25,57.65L-580.44,36.42ZM-560.20,15.52L-547.79,19.44L-528.21,-42.60L-520.05,-46.84L-522.32,68.41L-509.92,72.33L-493.59,63.84L-494.90,-18.44L-478.91,-47.50L-454.42,-60.23L-459.00,-88.96L-479.56,-88.64L-491.64,-71.98L-499.15,-26.60L-507.31,-22.35L-503.72,-55.33L-507.97,-63.49L-520.37,-67.41L-540.62,-46.51ZM-356.15,-90.61L-379.65,-16.16L-387.81,-11.92L-389.45,-114.76L-393.70,-122.93L-414.27,-122.60L-434.51,-101.70L-454.09,-39.66L-441.69,-35.75L-422.10,-97.78L-413.94,-102.03L-412.30,0.82L-408.05,8.98L-395.65,12.90L-379.32,4.41L-367.24,-12.25L-351.58,-61.87L-354.51,12.24L-358.10,45.22L-362.01,57.62L-370.18,61.87L-378.67,45.55L-391.07,41.63L-403.15,58.28L-390.42,82.77L-369.85,82.44L-361.69,78.19L-345.69,49.13L-338.18,3.75L-324.16,-148.72L-336.56,-152.64L-352.89,-144.15ZM-265.38,-75.59L-267.02,-178.44L-242.54,-191.18L-246.78,-199.34L-271.27,-186.60L-271.92,-227.74L-288.25,-219.25L-283.68,-190.52L-295.75,-173.87L-312.08,-165.38L-307.83,-157.21L-291.51,-165.70L-289.87,-62.86L-285.62,-54.70L-273.22,-50.78L-256.89,-59.27L-244.81,-75.92L-225.23,-137.96L-237.64,-141.87L-257.22,-79.84ZM-219.36,-286.19L-209.56,-187.59L-212.16,-92.90L-199.76,-88.99L-183.43,-97.48L-184.75,-179.75L-173.00,-216.97L-160.92,-233.63L-148.51,-229.71L-151.11,-135.03L-146.87,-126.86L-134.46,-122.95L-118.14,-131.44L-106.06,-148.09L-86.47,-210.13L-98.88,-214.04L-118.47,-152.01L-126.63,-147.76L-119.78,-234.28L-132.51,-258.77L-161.25,-254.20L-181.49,-233.30L-189.32,-208.48L-190.96,-311.33L-248.10,-281.61L-243.85,-273.45ZM-39.14,-338.44L-30.98,-342.69L-31.31,-363.26L-35.55,-371.42L-56.12,-371.09L-64.29,-366.85L-63.96,-346.28L-59.71,-338.11ZM-94.96,-226.45L-82.56,-222.53L-62.97,-284.57L-54.81,-288.81L-61.33,-181.72L-57.09,-173.56L-44.68,-169.64L-28.35,-178.13L-16.28,-194.79L3.31,-256.82L-9.10,-260.74L-28.68,-198.70L-36.85,-194.46L-30.32,-301.55L-34.57,-309.71L-55.14,-309.38L-75.38,-288.49ZM-5.18,-273.15L7.23,-269.23L26.81,-331.26L34.97,-335.51L32.70,-220.26L45.10,-216.34L61.43,-224.83L60.11,-307.11L71.87,-344.33L83.94,-360.98L96.35,-357.06L93.75,-262.38L97.99,-254.22L110.40,-250.30L126.72,-258.79L138.80,-275.44L158.39,-337.48L145.98,-341.40L126.40,-279.36L118.23,-275.12L125.08,-361.64L112.35,-386.12L83.62,-381.55L63.38,-360.65L51.62,-323.43L51.30,-344.00L47.05,-352.16L34.64,-356.08L14.40,-335.18ZM187.45,-321.48L191.69,-313.32L204.10,-309.40L171.78,-271.85L172.11,-251.29L193.00,-231.04L234.14,-231.70L250.47,-240.19L278.87,-265.33L282.46,-298.31L273.97,-314.63L216.18,-326.06L211.93,-334.22L236.42,-346.95L264.49,-392.67L259.92,-421.40L239.02,-441.64L263.51,-454.37L259.26,-462.54L226.62,-445.56L189.72,-436.74L161.65,-391.03L166.22,-362.29L199.53,-338.14ZM198.21,-420.41L214.54,-428.90L235.43,-408.66L239.68,-400.50L227.93,-363.28L211.60,-354.79L190.71,-375.03L186.46,-383.19ZM216.51,-305.49L253.73,-293.74L262.22,-277.41L246.22,-248.35L213.25,-251.94L196.59,-264.02L196.27,-284.59ZM393.45,-563.43L401.61,-567.68L401.28,-588.25L397.03,-596.41L376.46,-596.08L368.30,-591.84L368.63,-571.27L372.88,-563.11ZM337.62,-451.44L350.03,-447.52L369.62,-509.56L377.78,-513.81L371.26,-406.71L375.50,-398.55L387.91,-394.64L404.23,-403.13L416.31,-419.78L435.90,-481.81L423.49,-485.73L403.90,-423.70L395.74,-419.45L402.26,-526.54L398.02,-534.70L377.45,-534.37L357.21,-513.48ZM473.45,-449.49L460.71,-473.98L448.30,-477.90L436.22,-461.24L448.96,-436.76L469.53,-437.09L485.85,-445.58L506.09,-466.47L513.93,-491.29L505.44,-507.61L476.05,-544.18L467.56,-560.50L479.64,-577.15L492.37,-552.67L504.78,-548.75L516.86,-565.40L504.12,-589.89L475.39,-585.32L446.99,-560.17L447.32,-539.60L455.81,-523.28L480.95,-494.88L489.44,-478.55L481.61,-453.74ZM-603.89,320.31L-616.63,295.82L-625.77,238.36L-601.94,184.49L-585.62,176.00L-560.81,183.83L-548.07,208.32L-531.75,199.83L-523.91,175.01L-540.57,162.93L-589.87,167.84L-614.35,180.57L-638.51,213.88L-650.26,251.10L-653.85,284.07L-640.79,329.13L-603.24,361.45L-562.10,360.79L-529.45,343.81L-513.45,314.75L-501.70,277.53L-514.11,273.61L-525.86,310.84L-541.86,339.90L-558.18,348.39L-578.75,348.71ZM-431.50,292.87L-415.18,284.38L-387.11,238.67L-388.09,176.96L-421.40,152.80L-458.29,161.62L-486.36,207.33L-485.38,269.04L-452.07,293.20ZM-449.80,177.95L-433.47,169.46L-412.58,189.70L-411.92,230.83L-423.67,268.06L-439.99,276.55L-460.89,256.31L-461.55,215.17ZM-375.68,180.88L-363.28,184.79L-343.69,122.76L-335.53,118.51L-337.81,233.77L-325.40,237.68L-309.07,229.19L-310.39,146.92L-298.64,109.70L-286.56,93.04L-274.15,96.96L-276.75,191.64L-272.51,199.81L-260.10,203.72L-243.78,195.23L-231.70,178.58L-212.11,116.54L-224.52,112.63L-244.11,174.66L-252.27,178.91L-245.42,92.39L-258.15,67.90L-286.89,72.47L-307.13,93.37L-318.88,130.59L-319.21,110.02L-323.45,101.86L-335.86,97.94L-356.10,118.84ZM-220.60,100.22L-208.20,104.14L-188.61,42.10L-180.45,37.86L-182.73,153.11L-170.32,157.03L-154.00,148.54L-155.31,66.26L-143.56,29.04L-131.48,12.39L-119.07,16.30L-121.68,110.99L-117.43,119.15L-105.02,123.07L-88.70,114.57L-76.62,97.92L-57.04,35.89L-69.44,31.97L-89.03,94.01L-97.19,98.25L-90.34,11.73L-103.08,-12.76L-131.81,-8.18L-152.05,12.71L-163.80,49.94L-164.13,29.37L-168.37,21.20L-180.78,17.29L-201.02,38.18ZM44.50,-48.03L36.01,-64.36L19.35,-76.43L-17.54,-67.62L-45.61,-21.90L-44.63,39.80L-19.49,68.21L1.08,67.88L17.41,59.39L29.49,42.74L45.15,-6.89L32.75,-10.81L17.08,38.82L0.75,47.31L-20.14,27.07L-20.80,-14.07L-9.05,-51.29L7.28,-59.78L20.01,-35.30L7.93,-18.64L-16.55,-5.91L-12.31,2.25L28.50,-18.97ZM158.77,-107.46L150.28,-123.79L133.62,-135.87L96.73,-127.05L68.66,-81.34L69.64,-19.63L94.78,8.77L115.35,8.45L131.68,-0.04L143.75,-16.70L159.42,-66.32L147.02,-70.24L131.35,-20.61L115.02,-12.12L94.13,-32.36L93.47,-73.50L105.22,-110.72L121.54,-119.21L134.28,-94.73ZM212.97,-63.06L211.33,-165.91L235.81,-178.65L231.57,-186.81L207.08,-174.07L206.43,-215.21L190.10,-206.72L194.67,-177.99L182.60,-161.34L166.27,-152.85L170.52,-144.68L186.84,-153.17L188.48,-50.33L192.73,-42.17L205.13,-38.25L221.46,-46.74L233.54,-63.39L253.12,-125.43L240.71,-129.35L221.13,-67.31ZM362.82,-213.59L354.33,-229.92L337.67,-241.99L300.78,-233.18L272.71,-187.46L273.69,-125.76L298.83,-97.35L319.40,-97.68L335.73,-106.17L347.81,-122.82L363.47,-172.45L351.07,-176.37L335.40,-126.74L319.07,-118.25L298.18,-138.49L297.52,-179.63L309.27,-216.85L325.60,-225.34L338.33,-200.86L326.25,-184.20L301.77,-171.47L306.01,-163.31L346.82,-184.53ZM482.64,-182.58L490.81,-186.83L502.88,-203.48L522.47,-265.52L510.06,-269.43L490.48,-207.40L482.32,-203.15L475.12,-396.44L417.98,-366.72L422.23,-358.56L446.71,-371.30L460.43,-285.10L443.78,-297.18L406.89,-288.36L383.06,-234.49L387.96,-185.19L413.10,-156.79L433.67,-157.11L450.00,-165.60L461.75,-202.83L470.24,-186.50ZM441.50,-181.93L433.34,-177.68L412.45,-197.92L411.79,-239.06L423.54,-276.28L439.86,-284.77L456.52,-272.70L460.76,-264.53L453.26,-219.15Z" fill="#ffffff" stroke="#000000"/>
    <path d="M-788.15,214.22L-795.96,218.89L-796.00,271.95L-842.85,300.01L-855.33,296.87L-872.44,232.87L-869.31,220.39L-838.08,201.69L-813.12,207.95L-836.49,168.92L-842.76,193.88L-873.98,212.58L-878.66,204.78L-891.10,148.58L-887.96,136.10L-848.93,112.72L-806.81,129.93L-799.00,125.25L-834.86,83.08L-861.41,109.59L-939.48,156.34L-914.52,162.61L-878.75,310.90L-892.82,340.54L-783.52,275.09L-763.23,273.54ZM-689.74,112.86L-683.53,140.96L-696.05,190.89L-714.80,212.72L-722.61,217.40L-717.84,119.08L-727.19,103.47L-747.48,105.01L-766.23,126.84L-781.89,189.25L-769.40,192.39L-753.74,129.97L-745.94,125.30L-746.03,231.42L-741.35,239.23L-728.87,242.36L-713.26,233.01L-683.57,194.02L-671.04,144.09L-674.13,103.51L-683.48,87.90L-695.96,84.76L-711.58,94.12L-710.03,114.40L-697.55,117.54ZM-560.15,45.87L-569.50,30.25L-586.66,19.31L-622.56,30.21L-647.58,77.00L-642.95,137.87L-616.44,164.43L-596.15,162.88L-580.53,153.53L-569.59,136.38L-557.07,86.45L-569.55,83.31L-582.08,133.24L-597.69,142.59L-619.52,123.85L-622.61,83.27L-613.21,45.82L-597.60,36.47L-583.57,59.89L-594.51,77.05L-617.94,91.07L-613.26,98.88L-574.22,75.51ZM-555.48,53.67L-543.00,56.81L-527.33,-5.61L-519.53,-10.28L-514.94,103.65L-502.46,106.78L-486.85,97.43L-493.02,16.27L-478.95,-13.37L-455.53,-27.39L-461.74,-55.49L-482.03,-53.95L-492.97,-36.79L-497.69,8.47L-505.50,13.14L-503.91,-19.63L-508.59,-27.44L-521.07,-30.57L-539.82,-8.74ZM-360.30,-63.21L-379.09,11.69L-386.90,16.36L-394.61,-85.08L-399.29,-92.89L-419.58,-91.35L-438.32,-69.52L-453.98,-7.10L-441.50,-3.97L-425.84,-66.38L-418.03,-71.06L-410.32,30.39L-405.64,38.20L-393.16,41.33L-377.55,31.98L-366.61,14.82L-354.08,-35.11L-352.58,38.24L-354.17,71.01L-357.30,83.50L-365.11,88.17L-374.46,72.56L-386.94,69.43L-397.88,86.58L-383.86,110.00L-363.57,108.46L-355.76,103.79L-341.69,74.15L-336.97,28.89L-332.15,-122.49L-344.64,-125.62L-360.25,-116.27ZM-269.79,-53.76L-277.50,-155.21L-254.08,-169.24L-258.76,-177.04L-282.18,-163.02L-285.26,-203.60L-300.88,-194.25L-294.66,-166.15L-305.60,-148.99L-321.21,-139.64L-316.54,-131.84L-300.92,-141.19L-293.21,-39.74L-288.53,-31.93L-276.05,-28.80L-260.44,-38.15L-249.50,-55.31L-233.84,-117.72L-246.32,-120.85L-261.98,-58.44ZM-236.83,-264.42L-221.31,-167.65L-218.27,-74.01L-205.79,-70.87L-190.17,-80.23L-196.34,-161.38L-186.95,-198.83L-176.01,-215.99L-163.53,-212.86L-160.49,-119.22L-155.81,-111.41L-143.33,-108.28L-127.71,-117.63L-116.78,-134.78L-101.11,-197.20L-113.60,-200.33L-129.26,-137.92L-137.06,-133.24L-135.43,-219.07L-149.46,-242.50L-177.55,-236.28L-196.30,-214.45L-202.56,-189.48L-210.28,-290.93L-264.93,-258.20L-260.25,-250.40ZM-61.99,-326.70L-54.18,-331.37L-55.72,-351.66L-60.40,-359.47L-80.69,-357.92L-88.49,-353.25L-86.95,-332.96L-82.28,-325.15ZM-110.47,-212.81L-97.98,-209.68L-82.32,-272.09L-74.52,-276.77L-74.61,-170.64L-69.93,-162.84L-57.45,-159.70L-41.83,-169.05L-30.90,-186.21L-15.24,-248.62L-27.72,-251.75L-43.38,-189.34L-51.19,-184.67L-51.09,-290.79L-55.77,-298.60L-76.06,-297.06L-94.80,-275.22ZM-24.59,-264.24L-12.10,-261.11L3.56,-323.52L11.36,-328.19L15.95,-214.26L28.43,-211.13L44.04,-220.48L37.87,-301.64L47.27,-339.09L58.21,-356.24L70.69,-353.11L73.73,-259.47L78.41,-251.66L90.89,-248.53L106.50,-257.88L117.44,-275.04L133.10,-337.45L120.62,-340.58L104.96,-278.17L97.15,-273.50L98.79,-359.33L84.76,-382.75L56.66,-376.53L37.92,-354.70L28.52,-317.25L26.98,-337.54L22.30,-345.35L9.82,-348.48L-8.93,-326.65ZM162.74,-323.38L167.42,-315.57L179.90,-312.44L150.21,-273.45L151.76,-253.16L173.59,-234.41L214.17,-237.50L229.78,-246.85L256.34,-273.36L257.93,-306.13L248.58,-321.74L190.84,-329.60L186.16,-337.40L209.59,-351.43L234.60,-398.23L228.38,-426.32L206.55,-445.07L229.97,-459.10L225.29,-466.90L194.06,-448.20L158.16,-437.31L133.15,-390.51L139.37,-362.42L173.68,-340.54ZM167.51,-421.70L183.12,-431.05L204.96,-412.30L209.63,-404.49L200.24,-367.04L184.62,-357.69L162.79,-376.44L158.11,-384.25ZM192.38,-309.31L229.83,-299.91L239.18,-284.30L225.11,-254.66L192.34,-256.25L175.18,-267.19L173.64,-287.48ZM351.80,-574.48L359.60,-579.15L358.06,-599.44L353.39,-607.25L333.10,-605.71L325.29,-601.03L326.83,-580.74L331.51,-572.94ZM303.32,-460.59L315.80,-457.46L331.46,-519.87L339.27,-524.55L339.18,-418.43L343.85,-410.62L356.33,-407.49L371.95,-416.84L382.89,-433.99L398.55,-496.41L386.07,-499.54L370.41,-437.13L362.60,-432.45L362.69,-538.57L358.01,-546.38L337.73,-544.84L318.98,-523.01ZM437.54,-466.72L423.51,-490.14L411.03,-493.27L400.09,-476.12L414.12,-452.69L434.41,-454.24L450.02,-463.59L468.77,-485.42L475.03,-510.39L465.68,-526.00L434.50,-560.36L425.15,-575.98L436.09,-593.13L450.11,-569.71L462.60,-566.58L473.53,-583.74L459.51,-607.16L431.41,-600.94L404.86,-574.43L406.40,-554.14L415.75,-538.53L442.26,-511.97L451.61,-496.36L445.35,-471.40ZM-580.55,357.20L-594.58,333.77L-607.02,277.58L-586.68,222.98L-571.07,213.63L-546.10,219.89L-532.08,243.31L-516.46,233.96L-510.20,209.00L-527.35,198.06L-575.74,205.82L-599.16,219.84L-621.04,254.16L-630.44,291.61L-632.03,324.38L-616.46,368.09L-577.47,397.78L-536.89,394.69L-505.66,375.99L-491.59,346.35L-482.19,308.90L-494.67,305.77L-504.07,343.22L-518.14,372.86L-533.76,382.21L-554.05,383.75ZM-411.97,319.89L-396.36,310.54L-371.35,263.74L-375.98,202.87L-410.29,180.99L-446.20,191.88L-471.21,238.68L-466.58,299.55L-432.26,321.43ZM-436.85,207.50L-421.23,198.15L-399.40,216.90L-396.31,257.47L-405.71,294.92L-421.32,304.27L-443.16,285.53L-446.24,244.95ZM-363.49,206.00L-351.01,209.13L-335.35,146.72L-327.54,142.05L-322.96,255.98L-310.48,259.11L-294.86,249.76L-301.04,168.60L-291.64,131.15L-280.70,114.00L-268.22,117.13L-265.18,210.77L-260.50,218.58L-248.02,221.71L-232.41,212.36L-221.47,195.20L-205.81,132.79L-218.29,129.66L-233.95,192.07L-241.76,196.74L-240.12,110.91L-254.15,87.49L-282.24,93.71L-300.99,115.54L-310.39,152.99L-311.93,132.70L-316.61,124.89L-329.09,121.76L-347.83,143.59ZM-215.16,117.17L-202.67,120.31L-187.01,57.89L-179.21,53.22L-174.62,167.15L-162.14,170.28L-146.53,160.93L-152.70,79.77L-143.30,42.33L-132.36,25.17L-119.88,28.30L-116.84,121.94L-112.17,129.75L-99.68,132.88L-84.07,123.53L-73.13,106.37L-57.47,43.96L-69.95,40.83L-85.61,103.24L-93.42,107.92L-91.78,22.08L-105.81,-1.34L-133.91,4.88L-152.65,26.71L-162.05,64.16L-163.59,43.87L-168.27,36.06L-180.75,32.93L-199.50,54.76ZM37.81,-44.91L28.46,-60.53L11.30,-71.47L-24.61,-60.57L-49.62,-13.78L-44.99,47.09L-18.48,73.65L1.81,72.10L17.42,62.75L28.36,45.60L40.89,-4.33L28.41,-7.47L15.88,42.46L0.27,51.81L-21.57,33.07L-24.65,-7.51L-15.26,-44.96L0.36,-54.31L14.38,-30.89L3.45,-13.73L-19.98,0.29L-15.30,8.10L23.73,-15.27ZM147.11,-110.37L137.76,-125.98L120.60,-136.92L84.70,-126.03L59.68,-79.23L64.31,-18.36L90.82,8.19L111.11,6.65L126.73,-2.70L137.67,-19.86L150.19,-69.79L137.71,-72.92L125.18,-22.99L109.57,-13.64L87.74,-32.39L84.65,-72.96L94.05,-110.41L109.66,-119.76L123.69,-96.34ZM203.26,-69.74L195.54,-171.19L218.96,-185.21L214.29,-193.02L190.86,-179.00L187.78,-219.58L172.16,-210.23L178.38,-182.13L167.44,-164.97L151.83,-155.62L156.50,-147.81L172.12,-157.16L179.83,-55.72L184.51,-47.91L196.99,-44.78L212.61,-54.13L223.54,-71.28L239.21,-133.70L226.72,-136.83L211.06,-74.42ZM342.29,-227.24L332.94,-242.86L315.78,-253.80L279.88,-242.91L254.87,-196.11L259.49,-135.24L286.00,-108.69L306.29,-110.23L321.91,-119.58L332.85,-136.74L345.37,-186.67L332.89,-189.80L320.36,-139.87L304.75,-130.52L282.92,-149.26L279.83,-189.84L289.23,-227.29L304.84,-236.64L318.87,-213.22L307.93,-196.06L284.51,-182.04L289.18,-174.23L328.22,-197.60ZM462.44,-203.73L470.24,-208.41L481.18,-225.56L496.84,-287.98L484.36,-291.11L468.70,-228.70L460.89,-224.02L442.33,-414.43L387.68,-381.71L392.36,-373.90L415.78,-387.93L434.43,-303.64L417.27,-314.58L381.37,-303.68L361.03,-249.08L368.80,-200.69L395.30,-174.14L415.59,-175.68L431.21,-185.03L440.60,-222.48L449.95,-206.86ZM421.86,-200.65L414.05,-195.97L392.22,-214.72L389.13,-255.30L398.53,-292.74L414.14,-302.09L431.30,-291.15L435.98,-283.35L431.25,-238.09Z" fill="#ffffff" stroke="#000000"/>
    <path d="M-768.33,263.46L-775.76,268.54L-772.66,320.93L-817.25,351.40L-829.75,349.04L-850.44,286.87L-848.09,274.36L-818.37,254.05L-793.35,258.76L-818.74,221.60L-823.44,246.62L-853.17,266.93L-858.24,259.50L-873.85,204.76L-871.50,192.26L-834.35,166.87L-791.74,181.35L-784.31,176.27L-822.21,136.77L-846.86,164.51L-921.16,215.29L-896.14,220.00L-852.05,364.28L-864.18,394.37L-760.15,323.28L-740.21,320.55ZM-677.19,157.57L-669.38,184.94L-678.79,234.97L-696.00,257.64L-703.44,262.72L-704.56,165.37L-714.71,150.51L-734.65,153.24L-751.86,175.90L-763.63,238.44L-751.12,240.80L-739.36,178.25L-731.92,173.18L-725.73,277.95L-720.65,285.38L-708.14,287.73L-693.28,277.58L-666.28,237.33L-656.87,187.29L-662.32,147.41L-672.48,132.55L-684.99,130.20L-699.85,140.35L-697.12,160.29L-684.62,162.65ZM-553.22,83.75L-563.38,68.89L-580.96,59.11L-615.76,71.99L-637.68,119.67L-629.50,179.49L-601.76,204.13L-581.82,201.41L-566.96,191.25L-557.18,173.66L-547.77,123.63L-560.28,121.28L-569.69,171.31L-584.55,181.47L-607.21,164.25L-612.66,124.37L-605.61,86.85L-590.74,76.69L-575.51,98.98L-585.29,116.57L-607.59,131.80L-602.51,139.24L-565.35,113.84ZM-548.14,91.18L-535.63,93.53L-523.87,30.99L-516.44,25.91L-505.16,138.12L-492.65,140.47L-477.79,130.31L-488.70,50.55L-476.56,20.46L-454.27,5.23L-462.07,-22.14L-482.01,-19.42L-491.80,-1.83L-493.77,43.12L-501.21,48.20L-501.58,15.75L-506.66,8.32L-519.17,5.97L-536.38,28.64ZM-362.38,-35.77L-376.49,39.28L-383.92,44.36L-397.55,-55.34L-402.63,-62.77L-422.57,-60.04L-439.78,-37.38L-451.54,25.16L-439.04,27.52L-427.27,-35.03L-419.84,-40.10L-406.21,59.59L-401.14,67.02L-388.63,69.37L-373.77,59.22L-363.98,41.63L-354.57,-8.40L-348.75,63.92L-348.38,96.37L-350.73,108.88L-358.16,113.96L-368.31,99.10L-380.82,96.74L-390.61,114.33L-375.37,136.62L-355.43,133.90L-348.00,128.82L-335.87,98.72L-333.89,53.77L-338.11,-95.96L-350.62,-98.32L-365.48,-88.16ZM-272.46,-31.81L-286.09,-131.51L-263.80,-146.74L-268.88,-154.18L-291.17,-138.94L-296.62,-178.82L-311.48,-168.66L-303.68,-141.29L-313.46,-123.71L-328.32,-113.55L-323.25,-106.12L-308.38,-116.28L-294.76,-16.58L-289.68,-9.15L-277.17,-6.80L-262.31,-16.95L-252.53,-34.54L-240.76,-97.08L-253.27,-99.44L-265.03,-36.89ZM-252.41,-241.74L-231.35,-147.12L-222.80,-54.85L-210.29,-52.50L-195.43,-62.66L-206.34,-142.41L-199.28,-179.94L-189.50,-197.53L-176.99,-195.17L-168.44,-102.91L-163.36,-95.48L-150.85,-93.12L-135.99,-103.28L-126.21,-120.87L-114.44,-183.41L-126.95,-185.76L-138.71,-123.22L-146.15,-118.14L-149.62,-202.98L-164.85,-225.27L-192.22,-217.46L-209.43,-194.80L-214.14,-169.78L-227.77,-269.48L-279.78,-233.93L-274.70,-226.50ZM-83.49,-313.58L-76.06,-318.65L-78.78,-338.59L-83.86,-346.02L-103.80,-343.30L-111.23,-338.22L-108.51,-318.28L-103.43,-310.85ZM-124.60,-198.27L-112.09,-195.92L-100.33,-258.46L-92.90,-263.54L-86.70,-158.77L-81.62,-151.34L-69.11,-148.98L-54.25,-159.14L-44.47,-176.73L-32.71,-239.27L-45.22,-241.62L-56.98,-179.08L-64.41,-174.00L-70.61,-278.78L-75.69,-286.21L-95.62,-283.48L-112.84,-260.82ZM-42.86,-254.13L-30.36,-251.78L-18.59,-314.32L-11.16,-319.40L0.11,-207.20L12.62,-204.84L27.48,-215.00L16.58,-294.76L23.64,-332.28L33.42,-349.87L45.93,-347.52L54.48,-255.25L59.56,-247.82L72.07,-245.47L86.93,-255.62L96.71,-273.21L108.47,-335.75L95.96,-338.11L84.20,-275.56L76.77,-270.49L73.30,-355.32L58.06,-377.61L30.69,-369.81L13.48,-347.14L6.42,-309.62L3.70,-329.56L-1.38,-336.99L-13.89,-339.34L-31.10,-316.67ZM138.57,-323.62L143.65,-316.19L156.15,-313.84L129.16,-273.58L131.88,-253.64L154.55,-236.43L194.43,-241.88L209.29,-252.04L233.93,-279.78L233.56,-312.23L223.40,-327.09L165.94,-331.42L160.86,-338.85L183.15,-354.09L205.07,-401.77L197.27,-429.14L174.60,-446.35L196.89,-461.59L191.81,-469.02L162.09,-448.71L127.29,-435.82L105.37,-388.14L113.18,-360.77L148.35,-341.21ZM137.45,-420.96L152.31,-431.12L174.97,-413.90L180.05,-406.47L172.99,-368.95L158.13,-358.79L135.47,-376.01L130.39,-383.44ZM168.66,-311.48L206.19,-304.43L216.35,-289.56L204.21,-259.47L171.76,-259.10L154.18,-268.88L151.45,-288.82ZM310.33,-582.71L317.76,-587.79L315.03,-607.73L309.96,-615.16L290.02,-612.44L282.59,-607.36L285.31,-587.42L290.39,-579.99ZM269.22,-467.41L281.73,-465.06L293.49,-527.60L300.92,-532.68L307.12,-427.91L312.20,-420.48L324.70,-418.12L339.57,-428.28L349.35,-445.87L361.11,-508.41L348.60,-510.76L336.84,-448.22L329.41,-443.14L323.21,-547.91L318.13,-555.35L298.19,-552.62L280.98,-529.95ZM401.36,-481.41L386.13,-503.70L373.62,-506.06L363.84,-488.47L379.07,-466.18L399.01,-468.90L413.87,-479.06L431.08,-501.73L435.79,-526.74L425.63,-541.60L392.81,-573.68L382.66,-588.54L392.44,-606.13L407.67,-583.83L420.18,-581.48L429.96,-599.07L414.73,-621.36L387.36,-613.56L362.72,-585.81L365.44,-565.87L375.60,-551.01L403.34,-526.37L413.50,-511.51L408.79,-486.49ZM-554.91,392.31L-570.15,370.02L-585.75,315.28L-568.91,260.17L-554.05,250.01L-529.04,254.72L-513.80,277.01L-498.94,266.85L-494.23,241.84L-511.82,232.05L-559.13,242.58L-581.42,257.82L-600.99,292.99L-608.05,330.52L-607.67,362.96L-589.71,405.20L-549.46,432.19L-509.58,426.74L-479.86,406.43L-467.72,376.33L-460.67,338.81L-473.18,336.45L-480.23,373.98L-492.37,404.08L-507.23,414.23L-527.17,416.96ZM-390.69,345.49L-375.83,335.33L-353.91,287.65L-362.09,227.83L-397.26,208.27L-432.06,221.15L-453.98,268.83L-445.81,328.65L-410.63,348.22ZM-421.91,236.01L-407.05,225.86L-384.38,243.07L-378.93,282.95L-385.99,320.47L-400.85,330.63L-423.51,313.42L-428.97,273.54ZM-349.58,230.19L-337.07,232.54L-325.31,170.00L-317.88,164.92L-306.61,277.12L-294.10,279.48L-279.24,269.32L-290.14,189.56L-283.08,152.04L-273.30,134.45L-260.79,136.80L-252.24,229.07L-247.16,236.50L-234.65,238.85L-219.79,228.69L-210.01,211.11L-198.25,148.56L-210.75,146.21L-222.52,208.76L-229.95,213.83L-233.42,129.00L-248.65,106.71L-276.02,114.51L-293.24,137.18L-300.29,174.70L-303.02,154.76L-308.10,147.33L-320.61,144.98L-337.82,167.64ZM-208.40,133.70L-195.89,136.06L-184.13,73.51L-176.70,68.43L-165.42,180.64L-152.92,182.99L-138.06,172.84L-148.96,93.08L-141.90,55.55L-132.12,37.97L-119.61,40.32L-111.06,132.58L-105.98,140.01L-93.47,142.37L-78.61,132.21L-68.83,114.62L-57.07,52.08L-69.57,49.73L-81.34,112.27L-88.77,117.35L-92.24,32.51L-107.47,10.22L-134.84,18.03L-152.06,40.69L-159.11,78.22L-161.84,58.28L-166.92,50.85L-179.43,48.50L-196.64,71.16ZM31.73,-41.30L21.57,-56.17L3.98,-65.95L-30.82,-53.07L-52.73,-5.38L-44.56,54.43L-16.81,79.08L3.12,76.35L17.99,66.20L27.77,48.61L37.18,-1.43L24.67,-3.78L15.26,46.26L0.40,56.41L-22.27,39.20L-27.72,-0.68L-20.66,-38.21L-5.80,-48.36L9.44,-26.07L-0.35,-8.48L-22.64,6.75L-17.56,14.18L19.59,-11.21ZM135.75,-112.40L125.60,-127.26L108.01,-137.04L73.21,-124.16L51.29,-76.48L59.47,-16.66L87.21,7.98L107.15,5.26L122.01,-4.90L131.80,-22.49L141.21,-72.52L128.70,-74.87L119.29,-24.84L104.43,-14.68L81.76,-31.89L76.31,-71.77L83.37,-109.30L98.23,-119.46L113.46,-97.16ZM193.59,-75.62L179.96,-175.31L202.26,-190.55L197.18,-197.98L174.89,-182.74L169.44,-222.62L154.57,-212.47L162.38,-185.10L152.60,-167.51L137.73,-157.35L142.81,-149.92L157.67,-160.08L171.30,-60.38L176.38,-52.95L188.89,-50.60L203.75,-60.76L213.53,-78.34L225.29,-140.89L212.79,-143.24L201.02,-80.70ZM321.52,-239.35L311.36,-254.21L293.78,-263.99L258.98,-251.11L237.06,-203.43L245.23,-143.61L272.98,-118.97L292.92,-121.69L307.78,-131.85L317.56,-149.44L326.97,-199.47L314.46,-201.82L305.05,-151.79L290.19,-141.63L267.53,-158.85L262.07,-198.73L269.13,-236.25L283.99,-246.41L299.23,-224.12L289.44,-206.53L267.15,-191.30L272.23,-183.86L309.38,-209.26ZM441.53,-223.26L448.96,-228.33L458.74,-245.92L470.50,-308.46L457.99,-310.82L446.23,-248.27L438.80,-243.20L409.19,-430.08L357.18,-394.53L362.26,-387.10L384.55,-402.34L407.96,-320.23L390.37,-330.01L355.57,-317.13L338.73,-262.02L349.26,-214.71L377.00,-190.06L396.94,-192.79L411.80,-202.94L418.86,-240.47L429.02,-225.61ZM401.65,-217.81L394.22,-212.73L371.55,-229.94L366.10,-269.82L373.16,-307.35L388.02,-317.50L405.61,-307.72L410.68,-300.29L408.71,-255.33Z" fill="#ffffff" stroke="#000000"/>
    <path d="M-903.88,492L-906.92,488.96L-902.36,482.88L-893.24,482.88L-891.72,484.40L-891.72,488.96L-894.76,492L-884.12,492L-887.16,488.96L-887.16,460.08L-891.72,463.12L-891.72,464.64L-909.96,488.96L-914.52,492ZM-891.72,467.68L-891.72,479.84L-893.24,481.36L-900.84,481.36L-899.32,478.32ZM-862.84,476.80L-864.36,481.36L-870.44,487.44L-875,488.96L-876.52,488.96L-867.40,475.28L-867.40,472.24L-870.44,470.72L-875,472.24L-882.60,479.84L-881.08,481.36L-873.48,473.76L-871.96,473.76L-881.08,488.96L-881.08,490.48L-879.56,492L-876.52,492L-868.92,488.96L-862.84,482.88L-859.80,476.80L-859.80,473.76L-861.32,472.24L-864.36,472.24L-865.88,475.28L-864.36,476.80ZM-835.48,472.24L-837,470.72L-840.04,475.28L-841.56,472.24L-847.64,470.72L-855.24,476.80L-858.28,484.40L-856.76,490.48L-853.72,492L-850.68,492L-846.12,487.44L-846.12,490.48L-844.60,492L-840.04,490.48L-832.44,482.88L-833.96,481.36L-841.56,488.96L-843.08,488.96ZM-850.68,488.96L-852.20,488.96L-853.72,484.40L-850.68,478.32L-846.12,473.76L-843.08,473.76L-841.56,476.80L-841.56,478.32L-846.12,484.40ZM-832.44,479.84L-830.92,481.36L-823.32,473.76L-821.80,473.76L-830.92,490.48L-829.40,492L-826.36,492L-820.28,479.84L-815.72,476.80L-811.16,476.80L-809.64,472.24L-812.68,470.72L-815.72,472.24L-820.28,478.32L-821.80,478.32L-818.76,473.76L-818.76,472.24L-820.28,470.72L-824.84,472.24ZM-788.36,472.24L-789.88,470.72L-792.92,475.28L-794.44,472.24L-800.52,470.72L-808.12,476.80L-811.16,484.40L-809.64,490.48L-806.60,492L-803.56,492L-799,487.44L-799,490.48L-797.48,492L-792.92,490.48L-785.32,482.88L-786.84,481.36L-794.44,488.96L-795.96,488.96ZM-803.56,488.96L-805.08,488.96L-806.60,484.40L-803.56,478.32L-799,473.76L-795.96,473.76L-794.44,476.80L-794.44,478.32L-799,484.40ZM-783.80,479.84L-783.80,482.88L-774.68,482.88L-774.68,479.84ZM-765.56,461.60L-762.52,464.64L-770.12,488.96L-773.16,492L-757.96,492L-750.36,488.96L-745.80,482.88L-747.32,476.80L-751.88,475.28L-748.84,473.76L-744.28,469.20L-745.80,463.12L-753.40,461.60ZM-765.56,488.96L-757.96,464.64L-756.44,463.12L-753.40,463.12L-750.36,464.64L-750.36,469.20L-753.40,473.76L-757.96,475.28L-761,475.28L-761,476.80L-756.44,476.80L-753.40,478.32L-751.88,482.88L-754.92,487.44L-761,490.48L-764.04,490.48ZM-736.68,492L-733.64,492L-726.04,487.44L-721.48,478.32L-724.52,472.24L-730.60,470.72L-738.20,475.28L-742.76,484.40L-739.72,490.48ZM-730.60,473.76L-727.56,473.76L-726.04,478.32L-729.08,484.40L-733.64,488.96L-736.68,488.96L-738.20,484.40L-735.16,478.32ZM-715.40,488.96L-701.72,460.08L-712.36,460.08L-712.36,461.60L-707.80,461.60L-719.96,488.96L-719.96,490.48L-716.92,492L-712.36,490.48L-704.76,482.88L-706.28,481.36L-713.88,488.96ZM-689.56,492L-688.04,492L-685,490.48L-677.40,482.88L-678.92,481.36L-686.52,488.96L-688.04,488.96L-674.36,460.08L-685,460.08L-685,461.60L-680.44,461.60L-685,475.28L-686.52,472.24L-692.60,470.72L-700.20,476.80L-703.24,484.40L-701.72,490.48L-698.68,492L-695.64,492L-691.08,487.44L-691.08,490.48ZM-695.64,488.96L-697.16,488.96L-698.68,484.40L-695.64,478.32L-691.08,473.76L-688.04,473.76L-686.52,476.80L-686.52,478.32L-691.08,484.40ZM-669.80,488.96L-662.20,464.64L-657.64,461.60L-669.80,461.60L-666.76,464.64L-674.36,488.96L-678.92,492L-666.76,492ZM-657.64,488.96L-650.04,473.76L-645.48,473.76L-645.48,472.24L-650.04,472.24L-647,466.16L-650.04,466.16L-651.56,470.72L-654.60,472.24L-657.64,472.24L-657.64,473.76L-654.60,473.76L-662.20,488.96L-662.20,490.48L-660.68,492L-657.64,492L-654.60,490.48L-647,482.88L-648.52,481.36L-656.12,488.96ZM-621.16,472.24L-622.68,470.72L-625.72,475.28L-627.24,472.24L-633.32,470.72L-640.92,476.80L-643.96,484.40L-642.44,490.48L-639.40,492L-636.36,492L-631.80,487.44L-631.80,490.48L-630.28,492L-625.72,490.48L-618.12,482.88L-619.64,481.36L-627.24,488.96L-628.76,488.96ZM-636.36,488.96L-637.88,488.96L-639.40,484.40L-636.36,478.32L-631.80,473.76L-628.76,473.76L-627.24,476.80L-627.24,478.32L-631.80,484.40ZM-613.56,488.96L-599.88,460.08L-610.52,460.08L-610.52,461.60L-605.96,461.60L-618.12,488.96L-618.12,490.48L-615.08,492L-610.52,490.48L-602.92,482.88L-604.44,481.36L-612.04,488.96ZM-586.20,467.68L-584.68,467.68L-583.16,464.64L-583.16,463.12L-586.20,461.60L-587.72,461.60L-589.24,464.64L-589.24,466.16ZM-602.92,479.84L-601.40,481.36L-593.80,473.76L-592.28,473.76L-601.40,488.96L-601.40,490.48L-599.88,492L-596.84,492L-593.80,490.48L-586.20,482.88L-587.72,481.36L-595.32,488.96L-596.84,488.96L-587.72,473.76L-587.72,472.24L-590.76,470.72L-595.32,472.24ZM-564.92,478.32L-564.92,475.28L-566.44,472.24L-572.52,470.72L-580.12,475.28L-584.68,484.40L-583.16,490.48L-580.12,492L-577.08,492L-574.04,490.48L-567.96,484.40L-569.48,482.88L-575.56,488.96L-578.60,488.96L-580.12,484.40L-577.08,478.32L-572.52,473.76L-569.48,473.76L-569.48,478.32Z"/>
</svg>