<?xml version="1.0"?>
<svg xmlns="http://www.w3.org/2000/svg" width="1920" height="1080" viewBox="-960 -540 1920 1080">
    <path d="M-396.88,-224.76L-441.90,-246.41L-456.31,-300.01L-440.94,-353.59L-396.88,-375.23L-361.60,-363.25L-344.87,-332.14L-323.70,-342.84L-345.78,-379.60L-396.88,-395.63L-460.38,-367.60L-481.80,-299.99L-460.38,-232.39L-396.88,-204.37L-345.89,-220.66L-324.21,-256.14L-344.87,-267.61L-363.31,-236.52ZM-270.50,-210L-270.50,-390L-293,-390L-293,-210ZM-220.93,-361.74L-212.80,-370.64L-212.78,-383.35L-221.07,-392.46L-232.63,-392.46L-240.70,-383.37L-240.70,-370.67L-232.49,-361.74ZM-215.50,-210L-215.50,-340L-238,-340L-238,-210ZM-184.17,-210L-161.62,-210L-161.62,-277.25L-155.48,-310.56L-128.93,-325.70L-111.35,-317.60L-105.57,-295.03L-105.57,-210L-83.07,-210L-83.07,-285.25L-75.03,-313.68L-50.14,-325.70L-31.05,-315.47L-26.75,-292.48L-26.75,-210L-4.25,-210L-4.25,-300.50L-14.31,-333.36L-45.29,-345.09L-68.75,-339.45L-86.57,-319.75L-99.71,-338.68L-123.40,-344.97L-147.00,-339.87L-163.87,-321.50L-163.87,-340L-184.12,-340ZM106.10,-297.19L32.79,-274.70L17.87,-243.62L31.26,-214.10L62.99,-204.86L86.27,-209.38L107.60,-225.04L107.50,-210L128.50,-210L128.53,-293.86L116.69,-332.03L77.79,-345.13L42.79,-336.58L25.78,-311.21L43.62,-300.24L55.08,-320.00L75.49,-326.75L97.37,-320.35ZM106.10,-277.30L106.09,-244.38L90.18,-230.45L66.58,-223.21L49.64,-227.60L41.86,-244.62L51.89,-262.29ZM218.20,-208.26L218.20,-208.26L215.61,-227.65L205.53,-226.14L194.69,-231.63L192.75,-248L192.75,-322.75L215,-322.75L215,-340L192.75,-340L192.75,-385L170.25,-385L170.25,-340L151.75,-340L151.75,-322.75L170.25,-322.75L170.25,-248L175.38,-216.61L201.00,-205.85ZM270.87,-234.73L257.75,-269.23L354.25,-269.25L355.50,-278.25L340.61,-325.87L295.51,-345.22L251.40,-326.61L234.83,-275.10L251.40,-223.59L295.51,-204.97L332.65,-215.94L349.75,-242.75L332.23,-253.69L318.60,-231.44L296.79,-224.11ZM258.50,-287.25L272.62,-317.01L295.49,-326.13L321.00,-315.28L331.25,-287.25ZM-834.13,15L-774.38,15L-708.64,-7.84L-686.97,-75.52L-710.05,-143.34L-777.63,-165L-834.13,-165ZM-810.38,-6L-810.38,-143.75L-777.63,-143.75L-729.87,-129.94L-711.95,-75.76L-727.77,-22.31L-776.88,-6ZM-633.26,-9.73L-646.37,-44.23L-549.88,-44.25L-548.63,-53.25L-563.51,-100.87L-608.61,-120.22L-652.72,-101.61L-669.30,-50.10L-652.72,1.41L-608.61,20.03L-571.47,9.06L-554.38,-17.75L-571.89,-28.69L-585.53,-6.44L-607.34,0.89ZM-645.63,-62.25L-631.50,-92.01L-608.63,-101.13L-583.13,-90.28L-572.88,-62.25ZM-511.02,-25.27L-530.13,-16.34L-517.41,9.17L-478.89,20.16L-442.14,11.01L-425.31,-20.13L-435.42,-46.80L-457.32,-58.06L-487.63,-66.25L-504.47,-73L-510.00,-83.38L-502.76,-96.21L-481.55,-100.91L-461.18,-95.35L-452.42,-78.81L-433.49,-87.74L-444.50,-109.52L-480.70,-120.13L-516.56,-110.92L-531.96,-80.85L-521.97,-56.99L-499.41,-46.22L-467.38,-37.75L-452.28,-30.17L-448.29,-18.13L-458.34,-3.03L-478.13,0.98L-502.03,-6.88ZM-384.30,-136.74L-376.17,-145.64L-376.15,-158.35L-384.44,-167.46L-396.00,-167.46L-404.07,-158.37L-404.08,-145.67L-395.86,-136.74ZM-378.88,15L-378.88,-115L-401.38,-115L-401.38,15ZM-297.40,69.39L-250.83,49.85L-239.63,6.50L-239.63,-115L-259.63,-115L-259.63,-97.50L-274.35,-114.11L-297.15,-120.61L-339.35,-101.04L-354,-50.49L-339.35,0.06L-297.15,19.63L-277.01,14.83L-262.13,1.25L-262.19,10.79L-270.14,39.89L-296.87,50.00L-317.68,44.13L-325.88,26.50L-343.88,34.75L-332.53,58.67ZM-295.87,-101.48L-271.02,-88.59L-259.38,-50.47L-270.08,-12.35L-295.87,0.52L-321.00,-12.35L-331.04,-50.47L-321.00,-88.59ZM-207.49,15L-184.99,15L-184.99,-55.75L-175.24,-89.15L-149.81,-100.70L-128.73,-90.95L-122.63,-64.75L-122.63,15L-100.13,15L-100.13,-64.75L-108.64,-104.40L-145.23,-120.09L-169.53,-114.73L-187.24,-96.25L-187.24,-115L-207.49,-115ZM-40.76,-9.73L-53.87,-44.23L42.63,-44.25L43.88,-53.25L28.99,-100.87L-16.11,-120.22L-60.22,-101.61L-76.80,-50.10L-60.22,1.41L-16.11,20.03L21.03,9.06L38.13,-17.75L20.61,-28.69L6.97,-6.44L-14.84,0.89ZM-53.13,-62.25L-39.00,-92.01L-16.13,-101.13L9.37,-90.28L19.63,-62.25ZM122.98,-98.34L139.88,-92.75L146.63,-111.75L124.60,-120.09L103.12,-113.43L88.13,-92.50L88.13,-115L67.88,-115L67.88,13.73L90.38,15L90.38,-55.25L98.60,-86.59ZM177.73,-25.27L158.62,-16.34L171.34,9.17L209.86,20.16L246.61,11.01L263.44,-20.13L253.33,-46.80L231.43,-58.06L201.13,-66.25L184.28,-73L178.75,-83.38L185.99,-96.21L207.20,-100.91L227.57,-95.35L236.33,-78.81L255.26,-87.74L244.25,-109.52L208.05,-120.13L172.19,-110.92L156.79,-80.85L166.78,-56.99L189.34,-46.22L221.38,-37.75L236.47,-30.17L240.46,-18.13L230.41,-3.03L210.62,0.98L186.72,-6.88ZM373.95,-136.74L382.08,-145.64L382.10,-158.35L373.81,-167.46L362.25,-167.46L354.18,-158.37L354.17,-145.67L362.39,-136.74ZM379.38,15L379.38,-115L356.88,-115L356.88,15ZM425.48,-25.27L406.37,-16.34L419.09,9.17L457.61,20.16L494.36,11.01L511.19,-20.13L501.08,-46.80L479.18,-58.06L448.88,-66.25L432.03,-73L426.50,-83.38L433.74,-96.21L454.95,-100.91L475.32,-95.35L484.08,-78.81L503.01,-87.74L492.00,-109.52L455.80,-120.13L419.94,-110.92L404.54,-80.85L414.53,-56.99L437.09,-46.22L469.13,-37.75L484.22,-30.17L488.21,-18.13L478.16,-3.03L458.37,0.98L434.47,-6.88ZM683.98,-72.19L610.67,-49.70L595.75,-18.62L609.14,10.90L640.86,20.14L664.14,15.62L685.47,-0.04L685.38,15L706.38,15L706.41,-68.86L694.57,-107.03L655.66,-120.13L620.66,-111.58L603.65,-86.21L621.50,-75.24L632.95,-95.00L653.37,-101.75L675.25,-95.35ZM683.98,-52.30L683.96,-19.38L668.05,-5.45L644.46,1.79L627.52,-2.60L619.73,-19.62L629.77,-37.29ZM-575.40,226.01L-601.83,214.08L-613.14,175.00L-601.83,135.92L-575.40,123.99L-554.96,131.10L-542.51,154.10L-523.14,144.40L-539.84,116.51L-575.40,104.88L-619.53,123.49L-636.11,175.00L-619.54,226.51L-575.40,245.12L-539.84,233.62L-523.40,206.36L-542.51,196.18L-554.97,218.94ZM-443.26,104.88L-488.01,123.49L-505.22,175.00L-488.01,226.51L-443.26,245.12L-398.50,226.50L-381.28,175.00L-398.48,123.49ZM-443.26,226.01L-470.31,214.09L-482.25,175.02L-470.30,135.94L-443.26,124.01L-416.18,135.94L-404.22,175.02L-416.18,214.09ZM-358.67,240L-336.12,240L-336.12,172.75L-329.98,139.44L-303.43,124.30L-285.85,132.40L-280.07,154.97L-280.07,240L-257.57,240L-257.57,164.75L-249.53,136.32L-224.64,124.30L-205.55,134.53L-201.25,157.52L-201.25,240L-178.75,240L-178.75,149.50L-188.81,116.64L-219.79,104.91L-243.25,110.55L-261.07,130.25L-274.21,111.32L-297.90,105.03L-321.50,110.13L-338.37,128.50L-338.37,110L-358.62,110ZM-148.92,240L-126.37,240L-126.37,172.75L-120.23,139.44L-93.68,124.30L-76.10,132.40L-70.32,154.97L-70.32,240L-47.82,240L-47.82,164.75L-39.78,136.32L-14.89,124.30L4.20,134.53L8.50,157.52L8.50,240L31,240L31,149.50L20.94,116.64L-10.04,104.91L-33.50,110.55L-51.32,130.25L-64.46,111.32L-88.15,105.03L-111.75,110.13L-128.62,128.50L-128.62,110L-148.87,110ZM168.62,110L146.12,110L146.12,180.48L136.37,214.17L110.95,225.71L89.86,215.95L83.75,189.33L83.75,110L61.25,110L61.25,189.50L69.74,229.40L106.33,245.08L130.63,239.06L148.37,221.25L148.37,240L168.62,240ZM200.13,240L222.63,240L222.63,169.25L232.39,135.85L257.82,124.30L278.90,134.05L285,160.25L285,240L307.50,240L307.50,160.25L298.98,120.60L262.40,104.91L238.10,110.27L220.38,128.75L220.38,110L200.13,110ZM356.57,88.26L364.70,79.36L364.72,66.65L356.43,57.54L344.87,57.54L336.80,66.63L336.80,79.33L345.01,88.26ZM362,240L362,110L339.50,110L339.50,240ZM449.70,241.74L449.70,241.74L447.11,222.35L437.03,223.86L426.19,218.37L424.25,202L424.25,127.25L446.50,127.25L446.50,110L424.25,110L424.25,65L401.75,65L401.75,110L383.25,110L383.25,127.25L401.75,127.25L401.75,202L406.88,233.39L432.50,244.15ZM485.25,273L478,271.75L473.99,290.02L488.24,292.50L512.80,281.78L527.56,254.38L579.25,115.50L560,108L522.26,211.25L483.75,108L463.50,115.50L511.78,238.74L506.63,252.86L496.99,268.12Z" fill="#ffffff" stroke="#000000"/>
    <path d="M-399.49,-218.38L-444.13,-239.67L-458.54,-292.70L-443.48,-345.79L-399.93,-367.34L-364.97,-355.58L-348.32,-324.83L-327.39,-335.48L-349.35,-371.81L-399.99,-387.53L-462.77,-359.60L-483.78,-292.60L-462.38,-225.74L-399.43,-198.19L-349.00,-214.46L-327.64,-249.65L-348.13,-260.94L-366.29,-230.11ZM-274.33,-204.13L-274.86,-382.33L-297.13,-382.26L-296.61,-204.06ZM-225.70,-354.49L-217.67,-363.32L-217.69,-375.91L-225.93,-384.91L-237.37,-384.87L-245.33,-375.85L-245.30,-363.28L-237.14,-354.46ZM-219.88,-204.29L-220.26,-332.99L-242.54,-332.92L-242.16,-204.22ZM-188.87,-204.38L-166.54,-204.44L-166.74,-271.02L-160.76,-304.01L-134.52,-319.08L-117.09,-311.11L-111.30,-288.78L-111.05,-204.61L-88.78,-204.67L-89.00,-279.17L-81.12,-307.34L-56.51,-319.31L-37.59,-309.24L-33.26,-286.49L-33.02,-204.83L-10.75,-204.90L-11.01,-294.49L-21.06,-327.00L-51.77,-338.52L-74.98,-332.87L-92.56,-313.31L-105.62,-332.01L-129.09,-338.17L-152.45,-333.05L-169.09,-314.82L-169.15,-333.14L-189.19,-333.08ZM98.25,-291.53L25.74,-269.06L11.06,-238.25L24.40,-209.06L55.83,-200.00L78.87,-204.55L99.94,-220.11L99.88,-205.22L120.67,-205.28L120.46,-288.31L108.63,-326.06L70.08,-338.91L35.45,-330.35L18.69,-305.18L36.38,-294.38L47.67,-313.97L67.86,-320.72L89.54,-314.44ZM98.31,-271.84L98.39,-239.26L82.68,-225.42L59.34,-218.18L42.56,-222.48L34.80,-239.31L44.68,-256.83ZM209.48,-203.82L209.48,-203.82L206.86,-223.01L196.89,-221.49L186.14,-226.89L184.17,-243.09L183.95,-317.09L205.98,-317.16L205.93,-334.23L183.90,-334.17L183.77,-378.72L161.50,-378.65L161.63,-334.10L143.31,-334.05L143.36,-316.97L161.68,-317.03L161.90,-243.03L167.07,-211.96L192.46,-201.39ZM261.54,-230.18L248.46,-264.30L343.99,-264.60L345.21,-273.51L330.33,-320.61L285.62,-339.64L242.01,-321.08L225.75,-270.04L242.31,-219.09L286.03,-200.79L322.77,-211.76L339.62,-238.35L322.24,-249.12L308.81,-227.06L287.24,-219.74ZM249.15,-282.14L263.04,-311.64L285.66,-320.73L310.94,-310.07L321.17,-282.35ZM-831.67,20.26L-772.52,20.08L-707.51,-2.72L-686.25,-69.79L-709.30,-136.86L-776.26,-158.11L-832.19,-157.94ZM-808.22,-0.60L-808.62,-136.98L-776.19,-137.07L-728.88,-123.54L-710.98,-69.95L-726.48,-16.99L-775.05,-0.70ZM-632.88,-4.81L-645.97,-38.92L-550.43,-39.23L-549.22,-48.14L-564.10,-95.24L-608.80,-114.27L-652.42,-95.71L-668.68,-44.67L-652.12,6.28L-608.40,24.58L-571.66,13.61L-554.81,-12.98L-572.19,-23.75L-585.62,-1.69L-607.19,5.63ZM-645.28,-56.77L-631.38,-86.27L-608.77,-95.36L-583.48,-84.70L-573.26,-56.98ZM-511.91,-20.55L-530.81,-11.65L-518.13,13.57L-479.97,24.34L-443.62,15.17L-427.05,-15.71L-437.13,-42.09L-458.84,-53.16L-488.87,-61.19L-505.57,-67.82L-511.07,-78.08L-503.94,-90.80L-482.96,-95.52L-462.77,-90.08L-454.05,-73.73L-435.34,-82.62L-446.30,-104.14L-482.17,-114.54L-517.64,-105.32L-532.81,-75.52L-522.84,-51.91L-500.48,-41.33L-468.74,-33.03L-453.78,-25.57L-449.79,-13.66L-459.69,1.31L-479.27,5.35L-502.96,-2.37ZM-386.79,-131.27L-378.76,-140.10L-378.78,-152.69L-387.01,-161.68L-398.46,-161.65L-406.42,-152.63L-406.39,-140.06L-398.23,-131.23ZM-380.97,18.94L-381.35,-109.76L-403.62,-109.70L-403.25,19.00ZM-300.15,72.54L-254.11,53.06L-243.14,10.12L-243.49,-110.17L-263.29,-110.11L-263.24,-92.78L-277.87,-109.18L-300.45,-115.56L-342.18,-96.06L-356.54,-45.97L-341.89,4.03L-300.05,23.29L-280.13,18.48L-265.43,4.98L-265.47,14.43L-273.26,43.26L-299.69,53.34L-320.31,47.60L-328.47,30.17L-346.27,38.39L-334.97,62.04ZM-299.13,-96.62L-274.50,-83.93L-262.87,-46.22L-273.34,-8.46L-298.84,4.36L-323.75,-8.31L-333.80,-46.02L-323.97,-83.79ZM-211.31,18.44L-189.03,18.37L-189.24,-51.67L-179.67,-84.77L-154.53,-96.27L-133.64,-86.68L-127.52,-60.76L-127.29,18.19L-105.01,18.13L-105.24,-60.82L-113.79,-100.05L-150.05,-115.48L-174.09,-110.10L-191.58,-91.76L-191.64,-110.32L-211.68,-110.26ZM-46.31,-6.53L-59.40,-40.64L36.14,-40.94L37.35,-49.86L22.47,-96.96L-22.23,-115.98L-65.85,-97.43L-82.10,-46.39L-65.55,4.56L-21.83,22.86L14.91,11.89L31.76,-14.70L14.39,-25.47L0.96,-3.41L-20.62,3.91ZM-58.71,-58.49L-44.81,-87.99L-22.20,-97.08L3.09,-86.42L13.32,-58.70ZM115.54,-94.73L132.28,-89.24L138.90,-108.07L117.08,-116.26L95.83,-109.61L81.04,-88.84L80.98,-111.12L60.93,-111.06L61.30,16.38L83.58,17.58L83.38,-51.97L91.43,-83.03ZM169.95,-22.55L151.05,-13.65L163.73,11.57L201.89,22.34L238.24,13.17L254.81,-17.70L244.73,-44.08L223.02,-55.16L192.99,-63.18L176.29,-69.82L170.79,-80.08L177.92,-92.79L198.90,-97.52L219.09,-92.07L227.81,-75.72L246.52,-84.62L235.56,-106.14L199.69,-116.54L164.21,-107.32L149.05,-77.51L159.02,-53.91L181.38,-43.32L213.12,-35.03L228.08,-27.56L232.07,-15.66L222.17,-0.68L202.59,3.35L178.90,-4.37ZM363.88,-133.46L371.90,-142.30L371.88,-154.88L363.65,-163.88L352.21,-163.85L344.25,-154.83L344.28,-142.25L352.43,-133.43ZM369.69,16.74L369.31,-111.96L347.04,-111.90L347.42,16.80ZM415.22,-23.27L396.32,-14.37L409.00,10.85L447.16,21.62L483.51,12.46L500.09,-18.42L490.00,-44.80L468.29,-55.88L438.26,-63.90L421.56,-70.53L416.06,-80.80L423.19,-93.51L444.17,-98.23L464.36,-92.79L473.08,-76.44L491.79,-85.33L480.83,-106.86L444.96,-117.26L409.49,-108.04L394.33,-78.23L404.29,-54.63L426.65,-44.04L458.39,-35.75L473.35,-28.28L477.34,-16.38L467.44,-1.40L447.86,2.63L424.18,-5.09ZM670.99,-70.46L598.48,-47.98L583.80,-17.17L597.14,12.02L628.58,21.07L651.61,16.52L672.68,0.96L672.63,15.85L693.42,15.79L693.21,-67.23L681.38,-104.98L642.83,-117.84L608.20,-109.28L591.43,-84.11L609.13,-73.30L620.41,-92.89L640.61,-99.64L662.29,-93.37ZM671.05,-50.77L671.13,-18.19L655.42,-4.34L632.09,2.89L615.30,-1.40L607.54,-18.23L617.43,-35.75ZM-574.92,228.40L-601.12,216.67L-612.43,178.01L-601.35,139.29L-575.22,127.40L-554.95,134.39L-542.57,157.12L-523.42,147.46L-540.03,119.90L-575.27,108.48L-618.90,127.04L-635.17,178.08L-618.62,229.03L-574.87,247.32L-539.69,235.84L-523.49,208.81L-542.45,198.77L-554.72,221.34ZM-444.45,108.10L-488.70,126.65L-505.58,177.70L-488.40,228.64L-444.04,246.94L-399.79,228.38L-382.89,177.34L-400.07,126.40ZM-444.10,228.02L-470.92,216.30L-482.85,177.65L-471.14,138.93L-444.39,127.04L-417.55,138.77L-405.60,177.43L-417.33,216.14ZM-360.32,241.63L-337.99,241.56L-338.19,174.98L-332.21,141.99L-305.97,126.93L-288.54,134.89L-282.75,157.22L-282.50,241.40L-260.23,241.33L-260.45,166.84L-252.57,138.66L-227.96,126.70L-209.04,136.77L-204.71,159.51L-204.47,241.17L-182.20,241.10L-182.46,151.51L-192.51,119.01L-223.22,107.49L-246.43,113.13L-264.01,132.69L-277.07,113.99L-300.54,107.83L-323.90,112.95L-340.54,131.18L-340.60,112.87L-360.64,112.93ZM-152.67,241.02L-130.34,240.95L-130.54,174.38L-124.55,141.38L-98.32,126.32L-80.89,134.29L-75.10,156.61L-74.85,240.79L-52.58,240.73L-52.80,166.23L-44.92,138.06L-20.31,126.09L-1.39,136.16L2.94,158.90L3.18,240.56L25.45,240.50L25.19,150.90L15.14,118.40L-15.57,106.88L-38.78,112.53L-56.36,132.08L-69.42,113.38L-92.89,107.22L-116.25,112.34L-132.89,130.57L-132.95,112.26L-152.99,112.32ZM161.32,111.40L139.04,111.46L139.25,181.24L129.70,214.62L104.56,226.12L83.66,216.52L77.53,190.18L77.30,111.64L55.02,111.71L55.26,190.41L63.77,229.89L100.05,245.31L124.09,239.28L141.59,221.59L141.65,240.16L161.70,240.10ZM192.89,240.01L215.17,239.94L214.96,169.90L224.53,136.80L249.67,125.30L270.56,134.89L276.68,160.81L276.91,239.76L299.19,239.69L298.96,160.74L290.41,121.52L254.15,106.09L230.10,111.46L212.62,129.81L212.56,111.25L192.52,111.31ZM347.33,89.34L355.35,80.50L355.34,67.92L347.10,58.92L335.66,58.95L327.70,67.97L327.73,80.55L335.89,89.37ZM353.14,239.54L352.77,110.84L330.49,110.90L330.87,239.60ZM439.97,241.01L439.97,241.00L437.35,221.82L427.38,223.34L416.63,217.93L414.66,201.74L414.44,127.73L436.47,127.67L436.42,110.59L414.39,110.66L414.26,66.11L391.99,66.17L392.12,110.72L373.80,110.78L373.85,127.85L392.17,127.80L392.39,201.80L397.56,232.86L422.95,243.44ZM475.26,271.85L468.07,270.63L464.15,288.73L478.28,291.15L502.55,280.46L517.09,253.30L567.86,115.65L548.78,108.28L511.72,210.61L473.29,108.50L453.27,115.99L501.42,237.86L496.36,251.85L486.87,266.99Z" fill="#ffffff" stroke="#000000"/>
    <path d="M-401.95,-212.04L-446.20,-232.99L-460.62,-285.44L-445.87,-338.03L-402.81,-359.50L-368.17,-347.96L-351.60,-317.56L-330.91,-328.17L-352.76,-364.06L-402.93,-379.48L-465.00,-351.65L-485.60,-285.27L-464.22,-219.15L-401.83,-192.05L-351.96,-208.31L-330.92,-243.20L-351.23,-254.32L-369.12,-223.75ZM-278.02,-198.30L-279.05,-374.69L-301.10,-374.56L-300.07,-198.17ZM-230.31,-347.28L-222.39,-356.05L-222.44,-368.50L-230.62,-377.39L-241.95,-377.32L-249.80,-368.37L-249.74,-355.92L-241.64,-347.21ZM-224.12,-198.61L-224.86,-326.01L-246.91,-325.88L-246.17,-198.48ZM-193.41,-198.79L-171.32,-198.92L-171.70,-264.82L-165.88,-297.50L-139.95,-312.49L-122.67,-304.65L-116.88,-282.57L-116.39,-199.24L-94.34,-199.37L-94.77,-273.11L-87.05,-301.02L-62.73,-312.94L-43.97,-303.03L-39.62,-280.53L-39.15,-199.69L-17.10,-199.82L-17.62,-288.51L-27.66,-320.66L-58.09,-331.97L-81.05,-326.31L-98.40,-306.90L-111.38,-325.38L-134.63,-331.41L-157.73,-326.27L-174.16,-308.18L-174.27,-326.30L-194.11,-326.19ZM90.55,-285.90L18.83,-263.44L4.39,-232.90L17.68,-204.04L48.83,-195.17L71.61,-199.74L92.43,-215.20L92.42,-200.46L113.00,-200.59L112.55,-282.77L100.73,-320.10L62.53,-332.71L28.28,-324.14L11.75,-299.18L29.30,-288.53L40.41,-307.96L60.38,-314.70L81.86,-308.55ZM90.66,-266.40L90.84,-234.15L75.33,-220.40L52.24,-213.17L35.62,-217.38L27.89,-234.01L37.62,-251.39ZM200.91,-199.39L200.91,-199.40L198.26,-218.38L188.39,-216.85L177.74,-222.17L175.74,-238.19L175.31,-311.45L197.12,-311.57L197.02,-328.48L175.21,-328.35L174.96,-372.45L152.91,-372.32L153.17,-328.22L135.04,-328.12L135.13,-311.21L153.26,-311.32L153.69,-238.06L158.90,-207.33L184.07,-196.94ZM252.37,-225.64L239.32,-259.37L333.89,-259.95L335.06,-268.77L320.20,-315.36L275.89,-334.06L232.77,-315.56L216.82,-264.99L233.36,-214.61L276.69,-196.62L313.03,-207.58L329.63,-233.95L312.40,-244.57L299.17,-222.69L277.83,-215.38ZM239.95,-277.04L253.62,-306.28L275.98,-315.35L301.04,-304.87L311.25,-277.45ZM-829.07,25.44L-770.51,25.09L-706.23,2.33L-685.38,-64.12L-708.39,-130.45L-774.73,-151.29L-830.10,-150.96ZM-805.91,4.72L-806.70,-130.27L-774.61,-130.46L-727.74,-117.20L-709.86,-64.20L-725.05,-11.73L-773.08,4.53ZM-632.36,0.05L-645.42,-33.68L-550.85,-34.26L-549.67,-43.09L-564.54,-89.67L-608.85,-108.37L-651.97,-89.88L-667.91,-39.30L-651.38,11.08L-608.04,29.07L-571.71,18.10L-555.11,-8.26L-572.34,-18.88L-585.57,2.99L-606.90,10.31ZM-644.78,-51.35L-631.12,-80.59L-608.76,-89.66L-583.70,-79.18L-573.49,-51.77ZM-512.66,-15.89L-531.34,-7.02L-518.72,17.91L-480.91,28.46L-444.95,19.28L-428.64,-11.34L-438.70,-37.42L-460.22,-48.32L-489.97,-56.18L-506.52,-62.69L-511.99,-72.84L-504.98,-85.45L-484.22,-90.18L-464.22,-84.85L-455.54,-68.69L-437.04,-77.55L-447.96,-98.82L-483.49,-109.01L-518.58,-99.78L-533.50,-70.23L-523.57,-46.90L-501.40,-36.48L-469.96,-28.36L-455.13,-21.02L-451.15,-9.25L-460.91,5.61L-480.27,9.66L-503.74,2.09ZM-389.12,-125.84L-381.20,-134.61L-381.26,-147.07L-389.43,-155.95L-400.76,-155.89L-408.62,-146.93L-408.55,-134.49L-400.45,-125.78ZM-382.93,22.82L-383.68,-104.57L-405.73,-104.45L-404.98,22.95ZM-302.77,75.65L-257.25,56.24L-246.52,13.69L-247.21,-105.37L-266.81,-105.26L-266.71,-88.11L-281.24,-104.30L-303.61,-110.54L-344.86,-91.12L-358.93,-41.50L-344.28,7.96L-302.81,26.89L-283.11,22.08L-268.60,8.68L-268.60,18.03L-276.23,46.59L-302.36,56.65L-322.80,51.02L-330.93,33.79L-348.52,41.98L-337.27,65.36ZM-302.25,-91.80L-277.83,-79.32L-266.21,-42.02L-276.47,-4.61L-301.67,8.15L-326.37,-4.32L-336.43,-41.61L-326.80,-79.03ZM-214.98,21.84L-192.93,21.71L-193.34,-47.62L-183.97,-80.41L-159.11,-91.87L-138.40,-82.44L-132.27,-56.80L-131.81,21.35L-109.76,21.22L-110.22,-56.93L-118.79,-95.74L-154.73,-110.90L-178.52,-105.51L-195.77,-87.30L-195.88,-105.67L-215.73,-105.56ZM-51.72,-3.35L-64.78,-37.09L29.79,-37.66L30.97,-46.49L16.10,-93.07L-28.21,-111.77L-71.33,-93.28L-87.27,-42.70L-70.74,7.68L-27.40,25.67L8.93,14.70L25.53,-11.66L8.30,-22.28L-4.93,-0.41L-26.26,6.91ZM-64.14,-54.75L-50.48,-83.99L-28.12,-93.06L-3.06,-82.58L7.15,-55.17ZM108.23,-91.13L124.82,-85.75L131.32,-104.41L109.69,-112.45L88.68,-105.80L74.10,-85.21L73.98,-107.26L54.13,-107.14L54.87,19.01L76.93,20.13L76.52,-48.71L84.40,-79.48ZM162.30,-19.84L143.62,-10.97L156.24,13.95L194.05,24.50L230.01,15.32L246.33,-15.29L236.27,-41.37L214.74,-52.27L184.99,-60.13L168.44,-66.65L162.97,-76.79L169.99,-89.40L190.74,-94.13L210.75,-88.80L219.42,-72.64L237.92,-81.50L227.01,-102.78L191.47,-112.97L156.38,-103.74L141.46,-74.19L151.39,-50.85L173.56,-40.44L205.00,-32.32L219.83,-24.97L223.81,-13.20L214.06,1.65L194.69,5.70L171.22,-1.87ZM353.95,-130.20L361.87,-138.96L361.81,-151.42L353.64,-160.30L342.31,-160.24L334.46,-151.29L334.52,-138.84L342.62,-130.13ZM360.14,18.47L359.40,-108.93L337.35,-108.80L338.09,18.60ZM405.09,-21.26L386.41,-12.40L399.03,12.53L436.84,23.08L472.80,13.90L489.12,-16.71L479.06,-42.80L457.53,-53.70L427.78,-61.55L411.23,-68.07L405.76,-78.21L412.78,-90.82L433.53,-95.56L453.54,-90.23L462.21,-74.07L480.71,-82.92L469.80,-104.20L434.26,-114.39L399.17,-105.16L384.25,-75.61L394.18,-52.28L416.35,-41.86L447.79,-33.74L462.62,-26.39L466.60,-14.62L456.85,0.23L437.48,4.28L414.01,-3.29ZM658.15,-68.72L586.43,-46.26L571.99,-15.72L585.28,13.14L616.43,22.01L639.21,17.44L660.03,1.98L660.02,16.71L680.60,16.59L680.15,-65.59L668.33,-102.92L630.13,-115.54L595.87,-106.96L579.35,-82.00L596.90,-71.35L608.01,-90.78L627.98,-97.52L649.46,-91.37ZM658.26,-49.23L658.44,-16.97L642.93,-3.22L619.84,4.01L603.22,-0.20L595.49,-16.83L605.22,-34.21ZM-574.31,230.73L-600.28,219.20L-611.59,180.96L-600.73,142.60L-574.90,130.76L-554.82,137.61L-542.49,160.08L-523.57,150.46L-540.09,123.23L-575.01,112.03L-618.14,130.52L-634.10,181.09L-617.57,231.48L-574.20,249.47L-539.42,237.99L-523.46,211.19L-542.25,201.31L-554.33,223.69ZM-445.51,111.27L-489.26,129.77L-505.82,180.34L-488.66,230.72L-444.70,248.71L-400.95,230.20L-384.37,179.63L-401.52,129.25ZM-444.81,229.97L-471.40,218.45L-483.32,180.23L-471.84,141.86L-445.40,130.02L-418.79,141.55L-406.85,179.78L-418.35,218.14ZM-361.84,243.20L-339.74,243.07L-340.13,177.17L-334.30,144.49L-308.37,129.51L-291.09,137.34L-285.30,159.43L-284.81,242.75L-262.76,242.62L-263.19,168.88L-255.48,140.97L-231.16,129.05L-212.39,138.97L-208.04,161.47L-207.57,242.30L-185.52,242.17L-186.04,153.48L-196.08,121.34L-226.51,110.02L-249.48,115.68L-266.82,135.09L-279.81,116.62L-303.06,110.59L-326.16,115.72L-342.58,133.82L-342.69,115.69L-362.54,115.81ZM-156.29,242.00L-134.19,241.87L-134.57,175.97L-128.75,143.29L-102.82,128.30L-85.54,136.14L-79.75,158.22L-79.26,241.55L-57.21,241.42L-57.64,167.68L-49.92,139.77L-25.60,127.85L-6.84,137.76L-2.49,160.26L-2.02,241.10L20.03,240.97L19.51,152.28L9.47,120.13L-20.96,108.82L-43.92,114.48L-61.27,133.89L-74.25,115.41L-97.50,109.38L-120.61,114.52L-137.03,132.61L-137.14,114.49L-156.98,114.60ZM154.15,112.78L132.10,112.91L132.50,181.98L123.15,215.05L98.30,226.50L77.58,217.06L71.43,191.01L70.98,113.27L48.93,113.40L49.39,191.30L57.93,230.36L93.88,245.51L117.66,239.48L134.94,221.92L135.05,240.29L154.90,240.18ZM185.78,240.00L207.83,239.87L207.42,170.53L216.79,137.74L241.65,126.28L262.36,135.72L268.49,161.36L268.95,239.51L291.00,239.38L290.54,161.23L281.96,122.42L246.02,107.26L222.24,112.65L204.98,130.86L204.88,112.48L185.03,112.60ZM338.21,90.40L346.13,81.63L346.08,69.17L337.90,60.29L326.58,60.36L318.72,69.31L318.79,81.76L326.89,90.47ZM344.41,239.07L343.66,111.67L321.61,111.80L322.36,239.20ZM430.36,240.27L430.36,240.27L427.71,221.28L417.84,222.82L407.19,217.50L405.19,201.47L404.76,128.22L426.57,128.09L426.47,111.18L404.66,111.31L404.41,67.21L382.36,67.34L382.61,111.44L364.48,111.55L364.58,128.45L382.71,128.35L383.14,201.60L388.35,232.33L413.52,242.73ZM465.38,270.70L458.27,269.52L454.44,287.44L468.43,289.79L492.43,279.14L506.73,252.21L556.59,115.81L537.69,108.57L501.30,209.97L462.96,109.01L443.16,116.48L491.18,236.97L486.21,250.84L476.86,265.85Z" fill="#ffffff" stroke="#000000"/>
    <path d="M-404.26,-205.75L-448.11,-226.36L-462.54,-278.23L-448.09,-330.33L-405.54,-351.70L-371.22,-340.38L-354.73,-310.34L-334.28,-320.90L-356.01,-356.36L-405.71,-371.48L-467.07,-343.76L-487.27,-277.99L-465.92,-212.60L-404.08,-185.97L-354.76,-202.20L-334.04,-236.80L-354.18,-247.75L-371.79,-217.44ZM-281.55,-192.50L-283.08,-367.10L-304.91,-366.91L-303.37,-192.31ZM-234.76,-340.10L-226.95,-348.81L-227.04,-361.14L-235.15,-369.90L-246.36,-369.81L-254.11,-360.92L-254.01,-348.60L-245.97,-340.01ZM-228.20,-192.97L-229.31,-319.07L-251.13,-318.88L-250.02,-192.78ZM-197.81,-193.24L-175.94,-193.43L-176.51,-258.66L-170.84,-291.02L-145.22,-305.93L-128.09,-298.23L-122.30,-276.38L-121.57,-193.91L-99.75,-194.10L-100.39,-267.09L-92.83,-294.74L-68.79,-306.60L-50.19,-296.85L-45.82,-274.59L-45.12,-194.58L-23.29,-194.77L-24.07,-282.55L-34.10,-314.34L-64.25,-325.45L-86.96,-319.79L-104.08,-300.52L-116.98,-318.77L-140.01,-324.67L-162.86,-319.52L-179.07,-301.56L-179.23,-319.51L-198.87,-319.34ZM83.00,-280.28L12.08,-257.84L-2.12,-227.57L11.12,-199.05L41.97,-190.36L64.51,-194.95L85.07,-210.31L85.10,-195.73L105.47,-195.90L104.78,-277.25L92.98,-314.17L55.13,-326.54L21.25,-317.95L4.97,-293.20L22.37,-282.71L33.31,-301.97L53.06,-308.70L74.34,-302.68ZM83.17,-260.99L83.44,-229.07L68.12,-215.41L45.30,-208.19L28.83,-212.30L21.13,-228.74L30.72,-245.97ZM192.48,-194.98L192.49,-194.98L189.81,-213.77L180.05,-212.22L169.48,-217.45L167.46,-233.31L166.83,-305.81L188.41,-306.00L188.26,-322.74L166.68,-322.55L166.30,-366.20L144.47,-366.00L144.86,-322.36L126.91,-322.20L127.06,-305.47L145.00,-305.62L145.64,-233.12L150.89,-202.72L175.83,-192.50ZM243.35,-221.10L230.33,-254.46L323.93,-255.30L325.07,-264.04L310.22,-310.10L266.31,-328.49L223.68,-310.06L208.05,-259.95L224.56,-210.13L267.51,-192.45L303.44,-203.41L319.79,-229.56L302.71,-240.01L289.67,-218.32L268.58,-211.02ZM230.90,-271.94L244.35,-300.93L266.45,-309.97L291.29,-299.67L301.47,-272.56ZM-826.32,30.54L-768.37,30.03L-704.81,7.32L-684.36,-58.52L-707.33,-124.10L-773.06,-144.53L-827.86,-144.05ZM-803.47,9.97L-804.64,-123.64L-772.87,-123.92L-726.44,-110.94L-708.60,-58.53L-723.48,-6.55L-770.97,9.68ZM-631.70,4.84L-644.72,-28.51L-551.12,-29.35L-549.98,-38.09L-564.83,-84.16L-608.74,-102.54L-651.37,-84.11L-667.00,-34.01L-650.49,15.82L-607.54,33.49L-571.61,22.54L-555.26,-3.61L-572.34,-14.07L-585.38,7.62L-606.47,14.92ZM-644.15,-46.00L-630.70,-74.98L-608.60,-84.02L-583.76,-73.72L-573.58,-46.62ZM-513.27,-11.28L-531.73,-2.45L-519.17,22.19L-481.72,32.52L-446.15,23.33L-430.09,-7.02L-440.12,-32.81L-461.46,-43.53L-490.93,-51.22L-507.33,-57.63L-512.77,-67.65L-505.86,-80.15L-485.33,-84.89L-465.52,-79.68L-456.88,-63.71L-438.60,-72.53L-449.46,-93.55L-484.67,-103.54L-519.37,-94.30L-534.05,-65.01L-524.16,-41.94L-502.19,-31.70L-471.04,-23.75L-456.34,-16.52L-452.37,-4.88L-461.98,9.85L-481.14,13.91L-504.39,6.49ZM-391.31,-120.47L-383.50,-129.17L-383.59,-141.50L-391.70,-150.27L-402.92,-150.17L-410.67,-141.29L-410.56,-128.97L-402.52,-120.37ZM-384.75,26.66L-385.86,-99.43L-407.68,-99.24L-406.57,26.85ZM-305.26,78.72L-260.25,59.37L-249.75,17.23L-250.79,-100.62L-270.19,-100.45L-270.04,-83.48L-284.47,-99.46L-306.63,-105.57L-347.40,-86.23L-361.18,-37.07L-346.54,11.84L-305.43,30.46L-285.95,25.63L-271.62,12.33L-271.60,21.58L-279.07,49.87L-304.91,59.91L-325.15,54.39L-333.24,37.36L-350.63,45.52L-339.43,68.63ZM-305.23,-87.02L-281.02,-74.74L-269.40,-37.86L-279.45,-0.80L-304.36,11.91L-328.84,-0.36L-338.91,-37.25L-329.49,-74.31ZM-218.52,25.20L-196.69,25.01L-197.30,-43.62L-188.12,-76.10L-163.55,-87.51L-143.02,-78.24L-136.88,-52.88L-136.20,24.48L-114.37,24.29L-115.05,-53.07L-123.65,-91.45L-159.27,-106.36L-182.80,-100.96L-199.82,-82.88L-199.98,-101.07L-219.62,-100.89ZM-57.00,-0.21L-70.02,-33.56L23.58,-34.40L24.72,-43.14L9.87,-89.21L-34.04,-107.59L-76.66,-89.16L-92.30,-39.05L-75.79,10.77L-32.84,28.44L3.09,17.49L19.45,-8.66L2.36,-19.12L-10.67,2.57L-31.77,9.87ZM-69.44,-51.04L-56.00,-80.03L-33.89,-89.07L-9.06,-78.77L1.12,-51.66ZM101.07,-87.55L117.50,-82.27L123.89,-100.76L102.45,-108.66L81.67,-102.02L67.31,-81.59L67.12,-103.41L47.47,-103.24L48.57,21.62L70.41,22.66L69.81,-45.48L77.52,-75.95ZM154.80,-17.15L136.33,-8.32L148.89,16.32L186.34,26.65L221.91,17.46L237.97,-12.89L227.94,-38.67L206.60,-49.40L177.14,-57.09L160.74,-63.49L155.29,-73.52L162.20,-86.02L182.73,-90.76L202.54,-85.55L211.18,-69.58L229.46,-78.40L218.60,-99.42L183.40,-109.41L148.69,-100.17L134.01,-70.88L143.90,-47.81L165.88,-37.57L197.02,-29.62L211.72,-22.39L215.70,-10.75L206.08,3.98L186.92,8.04L163.67,0.62ZM344.16,-126.93L351.98,-135.63L351.89,-147.96L343.77,-156.73L332.56,-156.63L324.81,-147.75L324.91,-135.43L332.95,-126.83ZM350.72,20.20L349.62,-105.90L327.79,-105.70L328.90,20.39ZM395.10,-19.26L376.64,-10.43L389.20,14.21L426.65,24.54L462.22,15.35L478.28,-15.00L468.25,-40.79L446.91,-51.51L417.44,-59.20L401.04,-65.61L395.60,-75.63L402.51,-88.13L423.04,-92.88L442.85,-87.66L451.49,-71.69L469.77,-80.51L458.91,-101.54L423.70,-111.52L389.00,-102.28L374.32,-72.99L384.21,-49.92L406.18,-39.68L437.33,-31.73L452.03,-24.50L456.00,-12.86L446.39,1.87L427.23,5.93L403.98,-1.50ZM645.43,-66.96L574.52,-44.52L560.31,-14.25L573.55,14.27L604.40,22.96L626.94,18.37L647.50,3.01L647.53,17.59L667.90,17.41L667.22,-63.93L655.41,-100.85L617.56,-113.22L583.69,-104.63L567.40,-79.88L584.80,-69.39L595.75,-88.65L615.49,-95.38L636.77,-89.36ZM645.60,-47.67L645.87,-15.75L630.56,-2.09L607.73,5.13L591.26,1.02L583.57,-15.43L593.15,-32.65ZM-573.58,233.00L-599.31,221.66L-610.62,183.85L-599.98,145.84L-574.45,134.05L-554.55,140.78L-542.29,162.97L-523.58,153.40L-540.01,126.50L-574.61,115.51L-617.25,133.94L-632.89,184.05L-616.38,233.87L-573.41,251.54L-539.02,240.09L-523.30,213.51L-541.93,203.79L-553.82,225.97ZM-446.43,114.39L-489.69,132.82L-505.93,182.93L-488.80,232.75L-445.24,250.42L-401.98,231.97L-385.72,181.87L-402.84,132.06ZM-445.40,231.88L-471.74,220.55L-483.66,182.75L-472.40,144.74L-446.27,132.95L-419.90,144.28L-407.97,182.09L-419.24,220.09ZM-363.23,244.73L-341.36,244.54L-341.93,179.31L-336.26,146.95L-310.64,132.04L-293.52,139.74L-287.72,161.59L-287.00,244.06L-265.17,243.87L-265.81,170.88L-258.25,143.23L-234.22,131.37L-215.61,141.12L-211.25,163.38L-210.54,243.39L-188.72,243.20L-189.49,155.42L-199.52,123.63L-229.68,112.52L-252.39,118.18L-269.50,137.45L-282.41,119.20L-305.44,113.30L-328.29,118.45L-344.49,136.41L-344.65,118.46L-364.29,118.64ZM-159.78,242.94L-137.91,242.75L-138.48,177.52L-132.81,145.16L-107.19,130.25L-90.07,137.96L-84.27,159.80L-83.55,242.27L-61.72,242.08L-62.36,169.09L-54.80,141.44L-30.77,129.58L-12.16,139.34L-7.80,161.60L-7.09,241.60L14.73,241.41L13.96,153.63L3.93,121.84L-26.23,110.73L-48.94,116.39L-66.05,135.66L-78.96,117.41L-101.99,111.51L-124.84,116.66L-141.04,134.62L-141.20,116.68L-160.84,116.85ZM147.11,114.14L125.28,114.33L125.89,182.69L116.72,215.46L92.16,226.87L71.62,217.58L65.47,191.81L64.79,114.87L42.96,115.06L43.64,192.17L52.22,230.80L87.84,245.70L111.36,239.65L128.42,222.22L128.58,240.41L148.22,240.24ZM178.78,239.97L200.61,239.78L200.00,171.15L209.18,138.67L233.75,127.26L254.28,136.53L260.42,161.89L261.10,239.25L282.93,239.05L282.25,161.70L273.65,123.31L238.03,108.41L214.50,113.81L197.48,131.89L197.32,113.70L177.67,113.87ZM329.23,91.46L337.04,82.76L336.95,70.43L328.83,61.66L317.62,61.76L309.87,70.64L309.98,82.96L318.02,91.56ZM335.79,238.59L334.68,112.49L312.86,112.69L313.96,238.78ZM420.87,239.53L420.87,239.53L418.19,220.74L408.43,222.29L397.87,217.06L395.85,201.20L395.21,128.70L416.79,128.51L416.64,111.77L395.06,111.96L394.68,68.32L372.85,68.51L373.24,112.16L355.29,112.31L355.44,129.04L373.38,128.89L374.02,201.39L379.27,231.80L404.21,242.01ZM455.62,269.55L448.58,268.40L444.84,286.15L458.69,288.44L482.41,277.83L496.50,251.13L545.45,115.98L526.72,108.87L490.99,209.33L452.76,109.52L433.18,116.96L481.06,236.09L476.18,249.83L466.96,264.72Z" fill="#ffffff" stroke="#000000"/>
    <path d="M-406.41,-199.50L-449.87,-219.78L-464.30,-271.07L-450.15,-322.68L-408.10,-343.95L-374.10,-332.84L-357.69,-303.16L-337.49,-313.67L-359.10,-348.71L-408.33,-363.52L-468.97,-335.91L-488.77,-270.76L-467.45,-206.11L-406.18,-179.93L-357.42,-196.14L-337.00,-230.44L-356.97,-241.22L-374.32,-211.17ZM-284.93,-186.76L-286.95,-359.54L-308.55,-359.29L-306.53,-186.50ZM-239.05,-332.97L-231.34,-341.60L-231.47,-353.81L-239.53,-362.46L-250.62,-362.33L-258.27,-353.52L-258.13,-341.32L-250.14,-332.84ZM-232.13,-187.37L-233.59,-312.17L-255.19,-311.91L-253.73,-187.12ZM-202.06,-187.73L-180.41,-187.98L-181.17,-252.54L-175.65,-284.58L-150.33,-299.41L-133.36,-291.83L-127.56,-270.23L-126.61,-188.61L-105.01,-188.86L-105.85,-261.10L-98.45,-288.48L-74.70,-300.29L-56.26,-290.69L-51.87,-268.67L-50.94,-189.50L-29.34,-189.75L-30.36,-276.62L-40.39,-308.06L-70.26,-318.96L-92.72,-313.29L-109.60,-294.18L-122.43,-312.20L-145.23,-317.97L-167.84,-312.81L-183.82,-294.99L-184.03,-312.75L-203.47,-312.52ZM75.61,-274.68L5.48,-252.27L-8.49,-222.27L4.70,-194.08L35.26,-185.57L57.55,-190.17L77.85,-205.44L77.93,-191.01L98.09,-191.24L97.17,-271.74L85.38,-308.25L47.89,-320.38L14.39,-311.79L-1.66,-287.24L15.59,-276.91L26.37,-296.00L45.89,-302.72L66.97,-296.83ZM75.83,-255.59L76.19,-224.00L61.07,-210.44L38.50,-203.22L22.19,-207.25L14.52,-223.50L23.96,-240.57ZM184.21,-190.58L184.21,-190.58L181.50,-209.17L171.85,-207.60L161.38,-212.75L159.34,-228.44L158.49,-300.20L179.85,-300.45L179.66,-317.01L158.30,-316.76L157.79,-359.95L136.20,-359.70L136.70,-316.50L118.94,-316.29L119.14,-299.74L136.90,-299.94L137.74,-228.19L143.02,-198.11L167.73,-188.08ZM234.47,-216.58L221.49,-249.55L314.13,-250.66L315.22,-259.31L300.40,-304.86L256.89,-322.92L214.75,-304.56L199.42,-254.93L215.91,-205.67L258.46,-188.30L293.99,-199.24L310.10,-225.17L293.16,-235.47L280.33,-213.96L259.47,-206.68ZM222.01,-266.86L235.23,-295.58L257.08,-304.59L281.69,-294.47L291.84,-267.68ZM-823.44,35.57L-766.08,34.90L-703.24,12.23L-683.20,-52.98L-706.12,-117.83L-771.23,-137.86L-825.46,-137.22ZM-800.88,15.14L-802.43,-117.09L-770.99,-117.46L-725.00,-104.74L-707.18,-52.93L-721.76,-1.44L-768.72,14.77ZM-630.90,9.57L-643.88,-23.40L-551.24,-24.50L-550.15,-33.16L-564.97,-78.71L-608.48,-96.77L-650.62,-78.41L-665.95,-28.77L-649.46,20.49L-606.91,37.86L-571.38,26.91L-555.27,0.98L-572.21,-9.32L-585.04,12.19L-605.90,19.47ZM-643.36,-40.71L-630.14,-69.43L-608.29,-78.44L-583.68,-68.32L-573.53,-41.52ZM-513.73,-6.73L-531.98,2.06L-519.48,26.41L-482.38,36.53L-447.21,27.33L-431.40,-2.75L-441.40,-28.24L-462.55,-38.80L-491.74,-46.32L-507.99,-52.61L-513.41,-62.52L-506.60,-74.91L-486.30,-79.67L-466.68,-74.56L-458.08,-58.78L-440.01,-67.56L-450.83,-88.34L-485.69,-98.12L-520.01,-88.88L-534.46,-59.84L-524.60,-37.04L-502.82,-26.97L-471.98,-19.19L-457.41,-12.08L-453.44,-0.57L-462.91,14.03L-481.86,18.11L-504.89,10.83ZM-393.35,-115.15L-385.64,-123.78L-385.77,-135.98L-393.83,-144.64L-404.92,-144.51L-412.57,-135.69L-412.43,-123.50L-404.44,-115.02ZM-386.43,30.45L-387.89,-94.34L-409.49,-94.09L-408.03,30.70ZM-307.61,81.74L-263.12,62.46L-252.85,20.72L-254.22,-95.91L-273.42,-95.68L-273.22,-78.88L-287.55,-94.66L-309.50,-100.65L-349.79,-81.39L-363.29,-32.70L-348.66,15.67L-307.92,33.98L-288.65,29.14L-274.51,15.94L-274.47,25.10L-281.78,53.12L-307.32,63.12L-327.36,57.72L-335.42,40.89L-352.61,49.01L-341.45,71.85ZM-308.06,-82.29L-284.07,-70.21L-272.46,-33.74L-282.30,2.97L-306.91,15.61L-331.18,3.54L-341.24,-32.94L-332.03,-69.65ZM-221.92,28.52L-200.32,28.27L-201.11,-39.65L-192.12,-71.82L-167.84,-83.19L-147.50,-74.07L-141.34,-48.99L-140.45,27.57L-118.85,27.31L-119.75,-49.24L-128.37,-87.20L-163.66,-101.85L-186.93,-96.44L-203.73,-78.50L-203.94,-96.50L-223.38,-96.27ZM-62.14,2.91L-75.12,-30.06L17.52,-31.17L18.61,-39.82L3.79,-85.37L-39.72,-103.43L-81.86,-85.07L-97.19,-35.44L-80.70,13.82L-38.15,31.19L-2.61,20.25L13.49,-5.68L-3.44,-15.98L-16.28,5.53L-37.14,12.81ZM-74.60,-47.37L-61.38,-76.09L-39.53,-85.10L-14.92,-74.98L-4.76,-48.19ZM94.05,-84.00L110.32,-78.82L116.59,-97.13L95.36,-104.89L74.81,-98.26L60.65,-78.00L60.40,-99.59L40.96,-99.37L42.41,24.20L64.02,25.17L63.23,-42.26L70.77,-72.45ZM147.42,-14.47L129.17,-5.68L141.68,18.67L178.77,28.78L213.95,19.59L229.75,-10.50L219.75,-35.99L198.60,-46.54L169.42,-54.07L153.17,-60.36L147.75,-70.26L154.55,-82.65L174.86,-87.41L194.48,-82.30L203.07,-66.52L221.14,-75.31L210.33,-96.09L175.46,-105.86L141.14,-96.62L126.69,-67.59L136.56,-44.79L158.33,-34.71L189.18,-26.94L203.75,-19.83L207.71,-8.32L198.24,6.29L179.29,10.37L156.26,3.08ZM334.52,-123.67L342.23,-132.31L342.10,-144.51L334.04,-153.16L322.95,-153.04L315.31,-144.22L315.44,-132.03L323.43,-123.54ZM341.44,21.92L339.98,-102.87L318.38,-102.62L319.84,22.18ZM385.25,-17.26L367.00,-8.47L379.50,15.88L416.60,26.00L451.77,16.80L467.58,-13.28L457.58,-38.78L436.43,-49.33L407.24,-56.85L390.99,-63.14L385.57,-73.05L392.37,-85.44L412.68,-90.20L432.30,-85.09L440.90,-69.31L458.97,-78.09L448.15,-98.87L413.29,-108.65L378.96,-99.41L364.52,-70.37L374.38,-47.57L396.15,-37.50L427.00,-29.72L441.57,-22.61L445.54,-11.11L436.07,3.50L417.12,7.58L394.08,0.30ZM632.86,-65.20L562.74,-42.78L548.77,-12.78L561.95,15.41L592.51,23.92L614.80,19.31L635.10,4.05L635.18,18.48L655.34,18.24L654.43,-62.26L642.63,-98.76L605.14,-110.90L571.64,-102.30L555.59,-77.76L572.85,-67.43L583.62,-86.52L603.14,-93.24L624.22,-87.34ZM633.08,-46.10L633.44,-14.51L618.32,-0.95L595.76,6.26L579.44,2.24L571.78,-14.01L581.21,-31.09ZM-572.71,235.21L-598.22,224.06L-609.51,186.67L-599.10,149.03L-573.86,137.28L-554.15,143.88L-541.95,165.81L-523.46,156.29L-539.80,129.71L-574.07,118.93L-616.22,137.30L-631.56,186.93L-615.08,236.19L-572.50,253.56L-538.49,242.12L-523.01,215.77L-541.47,206.20L-553.18,228.19ZM-447.22,117.45L-489.98,135.82L-505.91,185.46L-488.81,234.71L-445.64,252.07L-402.89,233.69L-386.94,184.06L-404.03,134.81ZM-445.86,233.72L-471.97,222.59L-483.87,185.22L-472.84,147.57L-447.01,135.82L-420.88,146.96L-408.96,184.34L-420.00,221.98ZM-364.50,246.21L-342.86,245.95L-343.61,181.40L-338.09,149.36L-312.78,134.52L-295.81,142.10L-290.01,163.70L-289.05,245.32L-267.46,245.07L-268.30,172.83L-260.90,145.45L-237.15,133.64L-218.71,143.24L-214.32,165.26L-213.39,244.44L-191.79,244.18L-192.81,157.31L-202.83,125.88L-232.71,114.97L-255.17,120.64L-272.05,139.76L-284.87,121.73L-307.68,115.96L-330.29,121.12L-346.27,138.95L-346.48,121.19L-365.92,121.41ZM-163.16,243.85L-141.51,243.59L-142.27,179.04L-136.75,147.00L-111.43,132.17L-94.47,139.74L-88.66,161.34L-87.71,242.96L-66.11,242.71L-66.96,170.48L-59.55,143.09L-35.80,131.28L-17.36,140.88L-12.97,162.90L-12.05,242.08L9.55,241.82L8.54,154.95L-1.49,123.52L-31.36,112.61L-53.82,118.28L-70.70,137.40L-83.53,119.37L-106.34,113.60L-128.94,118.77L-144.93,136.59L-145.13,118.83L-164.57,119.06ZM140.20,115.49L118.60,115.74L119.39,183.39L110.41,215.84L86.14,227.21L65.79,218.08L59.62,192.59L58.73,116.44L37.13,116.69L38.02,193.01L46.62,231.22L81.92,245.85L105.18,239.81L122.01,222.51L122.22,240.50L141.66,240.28ZM171.91,239.92L193.51,239.67L192.71,171.75L201.70,139.58L225.98,128.21L246.33,137.33L252.48,162.41L253.38,238.97L274.98,238.72L274.08,162.16L265.46,124.20L230.16,109.55L206.90,114.96L190.10,132.90L189.88,114.90L170.45,115.13ZM320.37,92.51L328.08,83.87L327.96,71.67L319.90,63.02L308.80,63.15L301.16,71.96L301.29,84.15L309.28,92.64ZM327.29,238.10L325.83,113.31L304.23,113.56L305.69,238.36ZM411.49,238.79L411.50,238.79L408.79,220.20L399.13,221.76L388.66,216.61L386.62,200.93L385.78,129.17L407.14,128.92L406.94,112.36L385.59,112.61L385.08,69.41L363.48,69.67L363.99,112.86L346.23,113.07L346.42,129.63L364.18,129.42L365.02,201.18L370.30,231.25L395.01,241.29ZM445.97,268.39L439.00,267.28L435.35,284.86L449.07,287.08L472.52,276.51L486.38,250.05L534.44,116.15L515.87,109.16L480.81,208.70L442.68,110.02L423.32,117.45L471.06,235.21L466.27,248.82L457.19,263.58Z" fill="#ffffff" stroke="#000000"/>
    <path d="M-408.41,-193.31L-451.48,-213.25L-465.91,-263.96L-452.05,-315.08L-410.50,-336.25L-376.83,-325.36L-360.50,-296.03L-340.54,-306.49L-362.02,-341.10L-410.79,-355.62L-470.72,-328.12L-490.12,-263.59L-468.84,-199.68L-408.13,-173.95L-359.92,-190.12L-339.82,-224.13L-359.60,-234.73L-376.68,-204.95ZM-288.16,-181.05L-290.66,-352.03L-312.03,-351.72L-309.53,-180.74ZM-243.18,-325.87L-235.58,-334.44L-235.74,-346.52L-243.74,-355.06L-254.72,-354.90L-262.26,-346.15L-262.09,-334.09L-254.16,-325.71ZM-235.91,-181.82L-237.72,-305.30L-259.09,-304.99L-257.29,-181.50ZM-206.15,-182.25L-184.73,-182.56L-185.67,-246.45L-180.30,-278.17L-155.29,-292.92L-138.48,-285.47L-132.67,-264.11L-131.49,-183.34L-110.12,-183.66L-111.16,-255.14L-103.92,-282.26L-80.45,-294.02L-62.17,-284.57L-57.77,-262.79L-56.62,-184.44L-35.25,-184.75L-36.51,-270.72L-46.51,-301.79L-76.11,-312.50L-98.32,-306.82L-114.97,-287.86L-127.71,-305.66L-150.30,-311.30L-172.65,-306.13L-188.42,-288.45L-188.68,-306.02L-207.91,-305.74ZM68.36,-269.11L-0.96,-246.72L-14.70,-217.00L-1.57,-189.14L28.70,-180.81L50.74,-185.43L70.79,-200.59L70.90,-186.31L90.85,-186.60L89.72,-266.26L77.94,-302.35L40.80,-314.25L7.68,-305.65L-8.13,-281.31L8.97,-271.14L19.58,-290.06L38.88,-296.77L59.75,-290.99ZM68.64,-250.21L69.09,-218.95L54.17,-205.49L31.86,-198.28L15.70,-202.22L8.07,-218.28L17.36,-235.20ZM176.08,-186.19L176.08,-186.20L173.35,-204.58L163.80,-203.00L153.42,-208.07L151.35,-223.59L150.32,-294.59L171.45,-294.90L171.21,-311.29L150.08,-310.98L149.45,-353.73L128.08,-353.41L128.70,-310.67L111.13,-310.41L111.37,-294.02L128.94,-294.28L129.98,-223.28L135.29,-193.53L159.78,-183.67ZM225.74,-212.07L212.80,-244.66L304.47,-246.02L305.53,-254.59L290.73,-299.62L247.62,-317.37L205.97,-299.07L190.95,-249.91L207.41,-201.22L249.57,-184.15L284.70,-195.09L300.56,-220.79L283.77,-230.93L271.13,-209.61L250.51,-202.34ZM213.26,-261.79L226.26,-290.25L247.86,-299.23L272.24,-289.29L282.37,-262.80ZM-820.41,40.52L-763.66,39.69L-701.54,17.07L-681.89,-47.52L-704.76,-111.62L-769.25,-131.25L-822.92,-130.46ZM-798.15,20.24L-800.06,-110.61L-768.95,-111.07L-723.40,-98.62L-705.62,-47.39L-719.90,3.60L-766.32,19.77ZM-629.95,14.23L-642.89,-18.36L-551.23,-19.72L-550.17,-28.29L-564.97,-73.32L-608.08,-91.07L-649.72,-72.77L-664.75,-23.61L-648.29,25.09L-606.13,42.15L-571.00,31.22L-555.13,5.52L-571.93,-4.63L-584.57,16.69L-605.18,23.96ZM-642.43,-35.48L-629.43,-63.95L-607.84,-72.93L-583.45,-62.98L-573.33,-36.50ZM-514.06,-2.23L-532.09,6.52L-519.64,30.57L-482.91,40.48L-448.13,31.28L-432.57,1.46L-442.54,-23.74L-463.50,-34.12L-492.40,-41.48L-508.50,-47.66L-513.89,-57.45L-507.20,-69.73L-487.12,-74.49L-467.69,-69.50L-459.14,-53.91L-441.28,-62.65L-452.04,-83.18L-486.57,-92.75L-520.51,-83.51L-534.72,-54.74L-524.90,-32.20L-503.32,-22.30L-472.77,-14.69L-458.33,-7.70L-454.37,3.68L-463.71,18.16L-482.45,22.25L-505.26,15.11ZM-395.24,-109.87L-387.64,-118.44L-387.80,-130.52L-395.80,-139.06L-406.78,-138.90L-414.32,-130.15L-414.15,-118.09L-406.22,-109.71ZM-387.97,34.18L-389.78,-89.30L-411.15,-88.99L-409.35,34.50ZM-309.82,84.71L-265.86,65.50L-255.82,24.17L-257.51,-91.24L-276.51,-90.96L-276.26,-74.34L-290.48,-89.91L-312.22,-95.77L-352.04,-76.59L-365.25,-28.37L-350.64,19.45L-310.27,37.45L-291.22,32.61L-277.26,19.50L-277.19,28.56L-284.34,56.31L-309.59,66.29L-329.44,61.00L-337.47,44.37L-354.45,52.46L-343.34,75.02ZM-310.75,-77.61L-286.97,-65.72L-275.38,-29.67L-285.00,6.69L-309.33,19.27L-333.37,7.40L-343.44,-28.67L-334.43,-65.02ZM-225.18,31.80L-203.81,31.49L-204.79,-35.72L-195.99,-67.58L-171.99,-78.90L-151.83,-69.93L-145.67,-45.13L-144.56,30.62L-123.19,30.31L-124.30,-45.45L-132.94,-82.99L-167.91,-97.39L-190.92,-91.96L-207.49,-74.16L-207.75,-91.97L-226.99,-91.69ZM-67.14,5.99L-80.08,-26.60L11.59,-27.96L12.65,-36.53L-2.16,-81.56L-45.27,-99.31L-86.91,-81.01L-101.93,-31.85L-85.48,16.85L-43.32,33.91L-8.19,22.98L7.68,-2.73L-9.11,-12.87L-21.75,8.45L-42.37,15.72ZM-79.62,-43.73L-66.62,-72.19L-45.02,-81.17L-20.64,-71.23L-10.51,-44.74ZM87.16,-80.46L103.29,-75.38L109.44,-93.52L88.40,-101.14L68.09,-94.52L54.13,-74.43L53.82,-95.80L34.59,-95.52L36.38,26.76L57.77,27.66L56.79,-39.07L64.17,-68.96ZM140.19,-11.81L122.15,-3.06L134.60,20.99L171.34,30.90L206.12,21.70L221.67,-8.12L211.70,-33.32L190.74,-43.70L161.84,-51.06L145.74,-57.24L140.35,-67.03L147.04,-79.31L167.12,-84.07L186.56,-79.08L195.11,-63.49L212.96,-72.23L202.20,-92.76L167.67,-102.34L133.73,-93.09L119.52,-64.32L129.34,-41.78L150.92,-31.88L181.47,-24.27L195.91,-17.28L199.87,-5.90L190.54,8.58L171.80,12.67L148.98,5.53ZM325.02,-120.42L332.62,-128.99L332.46,-141.06L324.46,-149.60L313.48,-149.44L305.94,-140.70L306.11,-128.63L314.04,-120.26ZM332.29,23.64L330.48,-99.85L309.11,-99.54L310.92,23.95ZM375.52,-15.26L357.49,-6.51L369.94,17.55L406.67,27.45L441.45,18.25L457.01,-11.57L447.04,-36.76L426.08,-47.15L397.18,-54.51L381.08,-60.69L375.69,-70.47L382.38,-82.75L402.46,-87.52L421.89,-82.52L430.44,-66.93L448.30,-75.68L437.54,-96.21L403.01,-105.78L369.07,-96.54L354.86,-67.76L364.68,-45.23L386.26,-35.32L416.81,-27.72L431.25,-20.73L435.20,-9.35L425.87,5.13L407.13,9.22L384.32,2.08ZM620.42,-63.42L551.09,-41.03L537.35,-11.31L550.48,16.55L580.75,24.88L602.80,20.26L622.84,5.10L622.96,19.38L642.90,19.09L641.77,-60.57L629.99,-96.66L592.86,-108.56L559.73,-99.96L543.92,-75.62L561.02,-65.45L571.63,-84.37L590.93,-91.08L611.80,-85.30ZM620.69,-44.52L621.14,-13.26L606.22,0.20L583.91,7.40L567.75,3.47L560.12,-12.59L569.41,-29.51ZM-571.72,237.35L-596.99,226.39L-608.28,189.42L-598.08,152.14L-573.14,140.45L-553.62,146.92L-541.48,168.59L-523.21,159.11L-539.46,132.85L-573.40,122.29L-615.06,140.58L-630.09,189.74L-613.64,238.44L-571.45,255.51L-537.83,244.09L-522.59,217.97L-540.89,208.56L-552.41,230.35ZM-447.88,120.45L-490.13,138.75L-505.76,187.92L-488.69,236.61L-445.93,253.67L-403.67,235.36L-388.03,186.20L-405.09,137.51ZM-446.19,235.51L-472.06,224.57L-483.94,187.62L-473.14,150.33L-447.61,138.63L-421.73,149.58L-409.82,186.54L-420.64,223.82ZM-365.65,247.63L-344.23,247.32L-345.17,183.44L-339.80,151.71L-314.79,136.96L-297.98,144.41L-292.17,165.77L-290.99,246.54L-269.62,246.22L-270.66,174.74L-263.42,147.62L-239.94,135.87L-221.67,145.32L-217.26,167.09L-216.12,245.44L-194.74,245.13L-196.00,159.16L-206.01,128.09L-235.61,117.38L-257.82,123.06L-274.47,142.02L-287.21,124.22L-309.80,118.58L-332.15,123.75L-347.92,141.43L-348.18,123.86L-367.41,124.14ZM-166.41,244.71L-144.99,244.40L-145.92,180.52L-140.56,148.79L-115.55,134.04L-98.73,141.49L-92.93,162.85L-91.75,243.62L-70.37,243.31L-71.42,171.83L-64.18,144.71L-40.70,132.95L-22.43,142.40L-18.02,164.17L-16.88,242.52L4.50,242.21L3.24,156.24L-6.77,125.17L-36.37,114.46L-58.58,120.14L-75.23,139.10L-87.97,121.31L-110.56,115.66L-132.91,120.83L-148.68,138.52L-148.93,120.94L-168.17,121.23ZM133.41,116.81L112.04,117.12L113.02,184.07L104.23,216.21L80.24,227.52L60.08,218.55L53.90,193.35L52.80,117.99L31.42,118.30L32.53,193.82L41.15,231.60L76.12,245.99L99.12,239.93L115.72,222.77L115.99,240.58L135.22,240.30ZM165.15,239.86L186.53,239.54L185.54,172.34L194.35,140.47L218.34,129.16L238.50,138.12L244.66,162.92L245.77,238.68L267.14,238.36L266.03,162.61L257.39,125.07L222.42,110.67L199.41,116.10L182.84,133.90L182.58,116.09L163.35,116.37ZM311.64,93.55L319.25,84.98L319.09,72.91L311.09,64.37L300.11,64.53L292.57,73.27L292.74,85.33L300.67,93.71ZM318.91,237.61L317.10,114.12L295.73,114.43L297.54,237.92ZM402.24,238.04L402.24,238.04L399.51,219.66L389.96,221.23L379.58,216.16L377.52,200.64L376.48,129.64L397.61,129.33L397.37,112.94L376.24,113.25L375.61,70.51L354.24,70.82L354.86,113.57L337.29,113.82L337.53,130.21L355.10,129.95L356.14,200.96L361.45,230.70L385.94,240.56ZM436.45,267.24L429.54,266.15L425.98,283.56L439.56,285.72L462.74,275.19L476.38,248.97L523.55,116.32L505.16,109.47L470.75,208.06L432.73,110.53L413.60,117.93L461.17,234.33L456.47,247.81L447.53,262.44Z" fill="#ffffff" stroke="#000000"/>
    <path d="M-410.26,-187.18L-452.93,-206.78L-467.35,-256.92L-453.79,-307.53L-412.74,-328.60L-379.39,-317.92L-363.15,-288.95L-343.43,-299.36L-364.79,-333.54L-413.08,-347.76L-472.30,-320.38L-491.31,-256.48L-470.07,-193.30L-409.92,-168.01L-362.27,-184.16L-342.48,-217.87L-362.09,-228.30L-378.90,-198.78ZM-291.24,-175.39L-294.21,-344.56L-315.36,-344.19L-312.38,-175.02ZM-247.15,-318.82L-239.66,-327.32L-239.85,-339.27L-247.79,-347.69L-258.65,-347.50L-266.09,-338.83L-265.88,-326.89L-258.02,-318.63ZM-239.54,-176.30L-241.69,-298.48L-262.84,-298.11L-260.69,-175.93ZM-210.10,-176.82L-188.91,-177.19L-190.02,-240.39L-184.80,-271.80L-160.09,-286.47L-143.44,-279.14L-137.63,-258.03L-136.23,-178.11L-115.08,-178.49L-116.32,-249.21L-109.23,-276.07L-86.04,-287.77L-67.93,-278.47L-63.51,-256.94L-62.15,-179.42L-41.00,-179.79L-42.49,-264.84L-52.49,-295.56L-81.80,-306.07L-103.76,-300.39L-120.18,-281.58L-132.84,-299.15L-155.21,-304.67L-177.31,-299.49L-192.86,-281.94L-193.17,-299.33L-212.20,-299.00ZM61.28,-263.55L-7.26,-241.20L-20.76,-211.75L-7.69,-184.22L22.28,-176.07L44.08,-180.70L63.87,-195.77L64.03,-181.63L83.77,-181.98L82.41,-260.80L70.65,-296.47L33.87,-308.14L1.12,-299.53L-14.45,-275.41L2.50,-265.39L12.94,-284.15L32.02,-290.84L52.69,-285.18ZM61.60,-244.86L62.13,-213.93L47.41,-200.56L25.36,-193.37L9.36,-197.22L1.76,-213.09L10.90,-229.86ZM168.10,-181.82L168.10,-181.83L165.34,-200.01L155.90,-198.42L145.62,-203.41L143.52,-218.76L142.29,-289.01L163.20,-289.38L162.92,-305.59L142.00,-305.22L141.26,-347.52L120.11,-347.14L120.86,-304.85L103.47,-304.54L103.76,-288.33L121.14,-288.64L122.38,-218.38L127.72,-188.97L151.97,-179.28ZM217.16,-207.57L204.26,-239.78L294.96,-241.39L295.99,-249.87L281.21,-294.39L238.50,-311.83L197.35,-293.60L182.62,-244.92L199.05,-196.78L240.82,-180.01L275.54,-190.94L291.17,-216.41L274.52,-226.40L262.08,-205.27L241.70,-198.02ZM204.67,-256.73L217.45,-284.93L238.79,-293.88L262.95,-284.11L273.05,-257.93ZM-817.25,45.39L-761.09,44.40L-699.69,21.85L-680.44,-42.12L-703.25,-105.48L-767.12,-124.72L-820.22,-123.79ZM-795.27,25.26L-797.55,-104.21L-766.77,-104.75L-721.66,-92.56L-703.92,-41.93L-717.90,8.57L-763.79,24.70ZM-628.87,18.83L-641.77,-13.38L-551.07,-15.00L-550.04,-23.47L-564.82,-67.99L-607.53,-85.43L-648.68,-67.20L-663.41,-18.52L-646.98,29.62L-605.21,46.38L-570.49,35.46L-554.86,9.99L-571.51,-0.00L-583.95,21.13L-604.33,28.38ZM-641.36,-30.33L-628.58,-58.53L-607.24,-67.48L-583.08,-57.71L-572.98,-31.53ZM-514.24,2.20L-532.06,10.91L-519.67,34.68L-483.29,44.37L-448.91,35.16L-433.60,5.62L-443.54,-19.29L-464.31,-29.50L-492.93,-36.70L-508.88,-42.77L-514.24,-52.43L-507.65,-64.60L-487.80,-69.38L-468.55,-64.49L-460.05,-49.09L-442.40,-57.79L-453.11,-78.08L-487.31,-87.45L-520.86,-78.20L-534.84,-49.69L-525.05,-27.43L-503.67,-17.68L-473.43,-10.25L-459.12,-3.37L-455.17,7.88L-464.36,22.23L-482.89,26.33L-505.48,19.33ZM-396.99,-104.65L-389.49,-113.15L-389.68,-125.10L-397.62,-133.53L-408.49,-133.34L-415.92,-124.66L-415.72,-112.72L-407.85,-104.46ZM-389.38,37.87L-391.52,-84.31L-412.67,-83.94L-410.52,38.24ZM-311.90,87.64L-268.46,68.50L-258.64,27.58L-260.65,-86.61L-279.45,-86.28L-279.16,-69.84L-293.27,-85.20L-314.80,-90.94L-354.15,-71.85L-367.08,-24.09L-352.48,23.18L-312.49,40.87L-293.64,36.03L-279.88,23.02L-279.78,31.98L-286.78,59.46L-311.73,69.40L-331.39,64.23L-339.38,47.80L-356.16,55.85L-345.10,78.15ZM-313.29,-72.98L-289.72,-61.28L-278.15,-25.64L-287.57,10.36L-311.60,22.89L-335.43,11.20L-345.50,-24.45L-336.69,-60.45ZM-228.30,35.04L-207.16,34.67L-208.33,-31.83L-199.71,-63.39L-176.00,-74.65L-156.03,-65.84L-149.86,-41.32L-148.54,33.64L-127.39,33.26L-128.71,-41.69L-137.37,-78.81L-172.01,-92.95L-194.76,-87.52L-211.11,-69.86L-211.42,-87.48L-230.45,-87.14ZM-72.01,9.04L-84.90,-23.17L5.79,-24.78L6.82,-33.26L-7.96,-77.77L-50.67,-95.21L-91.82,-76.99L-106.54,-28.30L-90.12,19.83L-48.35,36.60L-13.62,25.68L2.00,0.20L-14.64,-9.79L-27.09,11.34L-47.47,18.59ZM-84.50,-40.12L-71.72,-68.32L-50.37,-77.27L-26.22,-67.50L-16.12,-41.32ZM80.42,-76.95L96.39,-71.97L102.42,-89.94L81.59,-97.41L61.51,-90.80L47.76,-70.88L47.39,-92.03L28.36,-91.69L30.48,29.29L51.65,30.12L50.49,-35.91L57.70,-65.50ZM133.09,-9.18L115.27,-0.47L127.65,23.30L164.03,33.00L198.42,23.79L213.73,-5.76L203.78,-30.66L183.02,-40.88L154.40,-48.08L138.45,-54.14L133.09,-63.81L139.67,-75.98L159.53,-80.75L178.77,-75.87L187.28,-60.46L204.92,-69.17L194.21,-89.45L160.02,-98.82L126.46,-89.58L112.49,-61.07L122.27,-38.80L143.65,-29.06L173.90,-21.62L188.21,-14.75L192.16,-3.50L182.97,10.86L164.44,14.96L141.84,7.96ZM315.66,-117.18L323.15,-125.67L322.96,-137.62L315.02,-146.05L304.16,-145.86L296.72,-137.18L296.93,-125.25L304.80,-116.98ZM323.27,25.34L321.12,-96.84L299.97,-96.47L302.12,25.72ZM365.94,-13.27L348.12,-4.56L360.50,19.21L396.88,28.90L431.27,19.70L446.57,-9.85L436.63,-34.75L415.86,-44.97L387.25,-52.17L371.30,-58.23L365.94,-67.90L372.52,-80.07L392.38,-84.85L411.62,-79.96L420.13,-64.56L437.77,-73.26L427.06,-93.54L392.87,-102.92L359.31,-93.67L345.33,-65.16L355.12,-42.89L376.50,-33.15L406.75,-25.72L421.06,-18.84L425.01,-7.59L415.81,6.76L397.28,10.87L374.69,3.87ZM608.11,-61.63L539.58,-39.28L526.07,-9.83L539.14,17.70L569.12,25.86L590.92,21.22L610.71,6.16L610.86,20.29L630.60,19.94L629.24,-58.88L617.49,-94.55L580.71,-106.22L547.95,-97.61L532.38,-73.48L549.34,-63.47L559.78,-82.22L578.85,-88.91L599.52,-83.26ZM608.44,-42.93L608.97,-12.00L594.25,1.36L572.19,8.55L556.20,4.71L548.60,-11.16L557.74,-27.93ZM-570.60,239.43L-595.64,228.66L-606.91,192.11L-596.93,155.19L-572.29,143.55L-552.95,149.89L-540.87,171.30L-522.83,161.87L-538.98,135.93L-572.60,125.58L-613.76,143.80L-628.50,192.49L-612.08,240.63L-570.29,257.39L-537.05,246.00L-522.05,220.11L-540.18,210.85L-551.51,232.45ZM-448.40,123.40L-490.16,141.63L-505.48,190.33L-488.45,238.46L-446.09,255.21L-404.33,236.97L-388.99,188.28L-406.01,140.15ZM-446.40,237.25L-472.03,226.49L-483.89,189.97L-473.31,153.04L-448.09,141.39L-422.44,152.15L-410.55,188.68L-421.15,225.60ZM-366.67,249.00L-345.48,248.63L-346.59,185.42L-341.37,154.02L-316.67,139.35L-300.01,146.67L-294.20,167.79L-292.80,247.70L-271.65,247.33L-272.90,176.61L-265.81,149.75L-242.61,138.05L-224.50,147.35L-220.08,168.88L-218.72,246.40L-197.57,246.03L-199.07,160.97L-209.06,130.25L-238.38,119.74L-260.33,125.43L-276.75,144.24L-289.42,126.67L-311.78,121.14L-333.88,126.33L-349.43,143.87L-349.74,126.48L-368.77,126.82ZM-169.54,245.54L-148.34,245.16L-149.45,181.96L-144.23,150.55L-119.53,135.89L-102.87,143.21L-97.07,164.32L-95.67,244.24L-74.52,243.87L-75.76,173.14L-68.67,146.29L-45.48,134.59L-27.37,143.88L-22.95,165.42L-21.58,242.94L-0.44,242.57L-1.93,157.51L-11.93,126.79L-41.24,116.28L-63.20,121.96L-79.62,140.78L-92.28,123.20L-114.65,117.68L-136.75,122.87L-152.30,140.41L-152.60,123.02L-171.64,123.35ZM126.76,118.11L105.61,118.48L106.77,184.72L98.17,216.55L74.47,227.82L54.49,218.99L48.30,194.07L46.99,119.51L25.85,119.88L27.16,194.60L35.80,231.96L70.45,246.10L93.18,240.04L109.56,223.00L109.87,240.63L128.90,240.29ZM158.52,239.77L179.67,239.40L178.50,172.91L187.12,141.35L210.83,130.08L230.80,138.90L236.97,163.42L238.28,238.37L259.43,238.00L258.11,163.05L249.45,125.92L214.81,111.78L192.06,117.22L175.71,134.88L175.41,117.26L156.37,117.59ZM303.04,94.58L310.54,86.08L310.35,74.13L302.41,65.70L291.55,65.90L284.11,74.57L284.32,86.51L292.18,94.77ZM310.65,237.10L308.51,114.92L287.36,115.29L289.51,237.47ZM393.10,237.29L393.11,237.28L390.35,219.10L380.90,220.69L370.62,215.71L368.53,200.36L367.30,130.10L388.21,129.73L387.92,113.52L367.01,113.89L366.27,71.60L345.12,71.97L345.87,114.26L328.48,114.57L328.76,130.78L346.15,130.47L347.39,200.73L352.73,230.14L376.98,239.83ZM427.04,266.08L420.20,265.02L416.73,282.26L430.17,284.36L453.07,273.87L466.49,247.88L512.78,116.50L494.56,109.77L460.80,207.43L422.90,111.03L403.99,118.41L451.40,233.44L446.79,246.80L437.99,261.30Z" fill="#ffffff" stroke="#000000"/>
    <path d="M-411.96,-181.09L-454.23,-200.36L-468.65,-249.92L-455.38,-300.04L-414.82,-321.00L-381.80,-310.53L-365.65,-281.92L-346.16,-292.28L-367.39,-326.03L-415.21,-339.96L-473.72,-312.70L-492.35,-249.42L-471.15,-186.97L-411.57,-162.13L-364.47,-178.25L-344.99,-211.65L-364.42,-221.92L-380.97,-192.67ZM-294.17,-169.78L-297.60,-337.14L-318.52,-336.71L-315.09,-169.35ZM-250.97,-311.80L-243.58,-320.24L-243.80,-332.06L-251.68,-340.37L-262.43,-340.15L-269.76,-331.55L-269.52,-319.74L-261.72,-311.58ZM-243.03,-170.82L-245.51,-291.70L-266.43,-291.27L-263.95,-170.40ZM-213.90,-171.42L-192.93,-171.85L-194.21,-234.38L-189.14,-265.47L-164.74,-280.05L-148.24,-272.85L-142.44,-251.98L-140.81,-172.92L-119.89,-173.35L-121.33,-243.32L-114.39,-269.91L-91.48,-281.55L-73.54,-272.41L-69.10,-251.12L-67.53,-174.42L-46.61,-174.85L-48.33,-259.00L-58.31,-289.36L-87.34,-299.67L-109.05,-293.99L-125.24,-275.33L-137.82,-292.68L-159.96,-298.08L-181.81,-292.88L-197.15,-275.48L-197.50,-292.68L-216.33,-292.30ZM54.34,-258.02L-13.40,-235.71L-26.68,-206.53L-13.66,-179.34L16.01,-171.35L37.57,-176.00L57.10,-190.96L57.30,-176.98L76.83,-177.38L75.26,-255.36L63.52,-290.62L27.10,-302.06L-5.28,-293.44L-20.62,-269.53L-3.82,-259.67L6.46,-278.26L25.31,-284.93L45.78,-279.40ZM54.72,-239.53L55.33,-208.93L40.81,-195.66L19.00,-188.48L3.17,-192.24L-4.40,-207.92L4.60,-224.54ZM160.26,-177.47L160.26,-177.47L157.48,-195.45L148.14,-193.86L137.96,-198.76L135.84,-213.94L134.42,-283.44L155.10,-283.87L154.78,-299.91L134.09,-299.48L133.23,-341.32L112.31,-340.89L113.17,-299.05L95.96,-298.70L96.29,-282.66L113.50,-283.01L114.92,-213.51L120.29,-184.42L144.32,-174.91ZM208.73,-203.09L195.87,-234.92L285.60,-236.78L286.59,-245.17L271.84,-289.17L229.54,-306.29L188.88,-288.15L174.45,-239.94L190.84,-192.36L232.21,-175.89L266.54,-186.80L281.92,-212.05L265.42,-221.89L253.17,-200.94L233.03,-193.71ZM196.23,-251.69L208.79,-279.63L229.88,-288.54L253.81,-278.95L263.87,-253.07ZM-813.94,50.17L-758.38,49.04L-697.70,26.54L-678.84,-36.80L-701.60,-99.42L-764.84,-118.27L-817.37,-117.19ZM-792.26,30.20L-794.88,-97.88L-764.43,-98.51L-719.77,-86.58L-702.07,-36.54L-715.76,13.46L-761.11,29.56ZM-627.64,23.35L-640.50,-8.48L-550.77,-10.34L-549.78,-18.73L-564.53,-62.72L-606.83,-79.85L-647.49,-61.71L-661.92,-13.50L-645.53,34.08L-604.16,50.55L-569.83,39.64L-554.45,14.39L-570.95,4.56L-583.20,25.50L-603.34,32.73ZM-640.14,-25.25L-627.58,-53.18L-606.49,-62.10L-582.57,-52.50L-572.50,-26.63ZM-514.28,6.57L-531.88,15.24L-519.56,38.72L-483.54,48.20L-449.55,38.99L-434.49,9.72L-444.40,-14.89L-464.97,-24.94L-493.31,-31.98L-509.11,-37.93L-514.44,-47.48L-507.96,-59.54L-488.33,-64.32L-469.27,-59.54L-460.82,-44.33L-443.38,-52.99L-454.04,-73.03L-487.90,-82.20L-521.07,-72.96L-534.81,-44.71L-525.07,-22.71L-503.89,-13.13L-473.94,-5.86L-459.76,0.90L-455.82,12.01L-464.87,26.24L-483.20,30.36L-505.57,23.50ZM-398.59,-99.48L-391.19,-107.91L-391.42,-119.74L-399.30,-128.05L-410.05,-127.83L-417.38,-119.23L-417.14,-107.42L-409.33,-99.26ZM-390.65,41.50L-393.12,-79.38L-414.04,-78.95L-411.57,41.93ZM-313.85,90.51L-270.92,71.46L-261.33,30.94L-263.65,-82.03L-282.24,-81.65L-281.91,-65.38L-295.92,-80.54L-317.24,-86.16L-356.11,-67.15L-368.76,-19.87L-354.18,26.85L-314.56,44.25L-295.94,39.40L-282.35,26.49L-282.23,35.36L-289.07,62.56L-313.73,72.47L-333.19,67.41L-341.15,51.18L-357.73,59.19L-346.72,81.22ZM-315.69,-68.39L-292.34,-56.88L-280.79,-21.65L-290.00,13.99L-313.74,26.45L-337.35,14.96L-347.41,-20.29L-338.80,-55.93ZM-231.29,38.23L-210.37,37.80L-211.72,-27.98L-203.29,-59.23L-179.86,-70.45L-160.08,-61.78L-153.90,-37.54L-152.38,36.61L-131.46,36.18L-132.98,-37.97L-141.66,-74.67L-175.97,-88.56L-198.47,-83.12L-214.59,-65.60L-214.94,-83.03L-233.77,-82.65ZM-76.73,12.06L-89.59,-19.77L0.14,-21.63L1.13,-30.02L-13.62,-74.02L-55.93,-91.15L-96.59,-73.00L-111.01,-24.79L-94.62,22.79L-53.25,39.25L-18.93,28.35L-3.54,3.10L-20.04,-6.74L-32.29,14.20L-52.43,21.44ZM-89.23,-36.54L-76.67,-64.48L-55.58,-73.39L-31.66,-63.80L-21.59,-37.93ZM73.82,-73.46L89.64,-68.58L95.55,-86.37L74.92,-93.71L55.07,-87.11L41.52,-67.36L41.10,-88.28L22.27,-87.89L24.72,31.80L45.67,32.55L44.33,-32.77L51.38,-62.07ZM126.12,-6.56L108.52,2.11L120.84,25.59L156.86,35.07L190.86,25.86L205.91,-3.41L196.01,-28.02L175.43,-38.07L147.09,-45.11L131.30,-51.06L125.96,-60.61L132.45,-72.67L152.08,-77.45L171.13,-72.67L179.59,-57.46L197.02,-66.12L186.37,-86.16L152.51,-95.33L119.34,-86.09L105.59,-57.84L115.34,-35.84L136.52,-26.26L166.46,-18.99L180.64,-12.23L184.58,-1.12L175.53,13.11L157.21,17.23L134.83,10.37ZM306.44,-113.94L313.83,-122.37L313.61,-134.19L305.72,-142.50L294.98,-142.28L287.65,-133.68L287.88,-121.87L295.69,-113.72ZM314.38,27.04L311.90,-93.83L290.98,-93.40L293.46,27.47ZM356.48,-11.28L338.88,-2.61L351.20,20.86L387.22,30.35L421.21,21.14L436.27,-8.13L426.36,-32.74L405.79,-42.79L377.45,-49.83L361.66,-55.78L356.32,-65.33L362.81,-77.39L382.44,-82.18L401.49,-77.40L409.95,-62.18L427.38,-70.84L416.73,-90.88L382.86,-100.06L349.70,-90.81L335.95,-62.56L345.70,-40.56L366.88,-30.99L396.82,-23.72L411.00,-16.95L414.94,-5.84L405.89,8.39L387.57,12.50L365.19,5.64ZM595.94,-59.83L528.20,-37.52L514.92,-8.34L527.94,18.85L557.61,26.84L579.17,22.19L598.70,7.23L598.90,21.21L618.43,20.81L616.86,-57.17L605.12,-92.43L568.70,-103.87L536.32,-95.25L520.98,-71.34L537.78,-61.48L548.06,-80.07L566.91,-86.74L587.38,-81.21ZM596.32,-41.34L596.93,-10.74L582.41,2.53L560.60,9.71L544.77,5.95L537.20,-9.73L546.20,-26.35ZM-569.36,241.44L-594.16,230.85L-605.42,194.73L-595.65,158.17L-571.30,146.58L-552.15,152.80L-540.14,173.95L-522.32,164.56L-538.38,138.95L-571.67,128.81L-612.34,146.96L-626.77,195.17L-610.39,242.74L-568.99,259.21L-536.14,247.84L-521.37,222.18L-539.34,213.07L-550.49,234.47ZM-448.79,126.29L-490.05,144.45L-505.07,192.67L-488.08,240.24L-446.12,256.69L-404.86,238.52L-389.83,190.31L-406.81,142.74ZM-446.49,238.92L-471.87,228.35L-483.72,192.25L-473.35,155.69L-448.43,144.08L-423.03,154.66L-411.16,190.77L-421.54,227.32ZM-367.57,250.32L-346.60,249.89L-347.88,187.36L-342.81,156.27L-318.41,141.69L-301.91,148.88L-296.11,169.76L-294.49,248.82L-273.57,248.39L-275.00,178.42L-268.06,151.83L-245.15,140.19L-227.21,149.33L-222.77,170.62L-221.20,247.32L-200.28,246.89L-202.00,162.74L-211.98,132.38L-241.01,122.06L-262.72,127.75L-278.91,146.41L-291.49,129.06L-313.63,123.66L-335.49,128.86L-350.82,146.26L-351.17,129.06L-370.00,129.44ZM-172.54,246.32L-151.58,245.89L-152.86,183.36L-147.78,152.27L-123.39,137.69L-106.89,144.89L-101.08,165.76L-99.46,244.82L-78.54,244.39L-79.97,174.42L-73.04,147.83L-50.13,136.19L-32.18,145.33L-27.75,166.62L-26.17,243.32L-5.25,242.89L-6.98,158.74L-16.95,128.38L-45.99,118.07L-67.70,123.75L-83.89,142.41L-96.46,125.06L-118.61,119.66L-140.46,124.86L-155.79,142.26L-156.15,125.06L-174.97,125.44ZM120.23,119.39L99.31,119.82L100.65,185.35L92.23,216.86L68.81,228.08L49.02,219.41L42.83,194.77L41.32,121.01L20.40,121.44L21.91,195.36L30.56,232.30L64.89,246.18L87.37,240.12L103.52,223.22L103.88,240.65L122.71,240.27ZM152.01,239.66L172.93,239.24L171.58,173.45L180.01,142.21L203.44,130.99L223.22,139.65L229.40,163.89L230.92,238.05L251.84,237.62L250.32,163.47L241.64,126.76L207.33,112.87L184.84,118.32L168.71,135.84L168.36,118.40L149.53,118.79ZM294.57,95.60L301.96,87.17L301.74,75.35L293.86,67.03L283.11,67.25L275.78,75.86L276.02,87.67L283.83,95.82ZM302.51,236.58L300.03,115.70L279.11,116.13L281.59,237.01ZM384.09,236.53L384.09,236.52L381.31,218.54L371.97,220.14L361.78,215.24L359.67,200.06L358.24,130.56L378.93,130.13L378.60,114.09L357.92,114.52L357.06,72.68L336.14,73.11L336.99,114.95L319.79,115.30L320.12,131.34L337.32,130.99L338.75,200.49L344.12,229.58L368.14,239.09ZM417.74,264.91L410.98,263.89L407.59,280.95L420.90,282.99L443.52,272.55L456.73,246.80L502.14,116.68L484.10,110.07L450.98,206.79L413.20,111.52L394.51,118.88L441.75,232.55L437.23,245.78L428.56,260.16Z" fill="#ffffff" stroke="#000000"/>
    <path d="M-413.50,-175.06L-455.38,-194.00L-469.78,-242.99L-456.80,-292.60L-416.75,-313.46L-384.04,-303.20L-367.98,-274.94L-348.74,-285.24L-369.84,-318.57L-417.19,-332.21L-474.99,-305.07L-493.23,-242.42L-472.07,-180.71L-413.06,-156.31L-366.52,-172.39L-347.34,-205.49L-366.59,-215.59L-382.88,-186.60ZM-296.95,-164.21L-300.83,-329.76L-321.52,-329.28L-317.64,-163.72ZM-254.63,-304.84L-247.34,-313.20L-247.59,-324.89L-255.42,-333.09L-266.05,-332.84L-273.27,-324.31L-273.00,-312.63L-265.26,-304.59ZM-246.36,-165.39L-249.16,-284.96L-269.86,-284.48L-267.06,-164.91ZM-217.55,-166.07L-196.81,-166.56L-198.26,-228.41L-193.33,-259.18L-169.23,-273.67L-152.89,-266.60L-147.09,-245.97L-145.25,-167.76L-124.56,-168.25L-126.18,-237.46L-119.40,-263.78L-96.77,-275.37L-78.99,-266.37L-74.54,-245.33L-72.76,-169.46L-52.07,-169.95L-54.02,-253.18L-63.97,-283.19L-92.72,-293.31L-114.18,-287.62L-130.15,-269.12L-142.64,-286.24L-164.56,-291.52L-186.16,-286.32L-201.28,-269.06L-201.68,-286.07L-220.30,-285.64ZM47.55,-252.51L-19.39,-230.25L-32.44,-201.35L-19.49,-174.48L9.89,-166.67L31.20,-171.33L50.48,-186.19L50.72,-172.36L70.03,-172.81L68.25,-249.94L56.54,-284.79L20.48,-296.00L-11.53,-287.38L-26.63,-263.68L-9.98,-253.98L0.13,-272.39L18.76,-279.05L39.03,-273.64ZM47.98,-234.22L48.68,-203.95L34.35,-190.79L12.80,-183.62L-2.88,-187.29L-10.41,-202.78L-1.56,-219.25ZM152.57,-173.14L152.57,-173.14L149.77,-190.92L140.53,-189.31L130.44,-194.13L128.31,-209.14L126.69,-277.89L147.16,-278.37L146.79,-294.24L126.32,-293.76L125.35,-335.15L104.66,-334.66L105.63,-293.27L88.61,-292.88L88.99,-277.01L106.00,-277.41L107.61,-208.66L113.01,-179.90L136.80,-170.56ZM200.44,-198.62L187.63,-230.07L276.39,-232.17L277.34,-240.47L262.62,-283.95L220.73,-300.78L180.56,-282.71L166.42,-234.97L182.78,-187.95L223.75,-171.79L257.67,-182.67L272.82,-207.70L256.47,-217.38L244.41,-196.63L224.51,-189.41ZM187.93,-246.66L200.28,-274.33L221.12,-283.21L244.81,-273.79L254.85,-248.23ZM-810.49,54.88L-755.54,53.59L-695.57,31.17L-677.10,-31.55L-699.79,-93.43L-762.41,-111.89L-814.37,-110.67ZM-789.10,35.05L-792.07,-91.64L-761.95,-92.35L-717.73,-80.68L-700.08,-31.22L-713.47,18.28L-758.29,34.33ZM-626.28,27.81L-639.09,-3.64L-550.33,-5.74L-549.37,-14.04L-564.09,-57.53L-605.99,-74.35L-646.16,-56.28L-660.29,-8.54L-643.94,38.47L-602.97,54.64L-569.04,43.75L-553.90,18.73L-570.25,9.05L-582.30,29.80L-602.21,37.02ZM-638.78,-20.23L-626.44,-47.90L-605.60,-56.79L-581.90,-47.36L-571.87,-21.80ZM-514.18,10.88L-531.57,19.50L-519.32,42.69L-483.65,51.97L-450.05,42.77L-435.24,13.76L-445.11,-10.56L-465.50,-20.43L-493.55,-27.32L-509.19,-33.16L-514.50,-42.59L-508.12,-54.54L-488.71,-59.33L-469.85,-54.65L-461.44,-39.63L-444.22,-48.25L-454.82,-68.04L-488.34,-77.02L-521.13,-67.78L-534.64,-39.79L-524.94,-18.05L-503.96,-8.64L-474.31,-1.54L-460.27,5.11L-456.34,16.09L-465.25,30.20L-483.36,34.32L-505.52,27.60ZM-400.04,-94.37L-392.75,-102.73L-393.01,-114.42L-400.83,-122.63L-411.46,-122.38L-418.69,-113.85L-418.42,-102.16L-410.67,-94.12ZM-391.78,45.07L-394.58,-74.50L-415.27,-74.01L-412.47,45.55ZM-315.67,93.34L-273.26,74.36L-263.89,34.25L-266.50,-77.50L-284.90,-77.07L-284.52,-60.97L-298.43,-75.93L-319.53,-81.42L-357.93,-62.51L-370.31,-15.70L-355.75,30.48L-316.51,47.57L-298.09,42.72L-284.69,29.91L-284.55,38.68L-291.24,65.62L-315.60,75.49L-334.87,70.54L-342.78,54.50L-359.16,62.48L-348.21,84.24ZM-317.94,-63.85L-294.81,-52.53L-283.29,-17.72L-292.30,17.57L-315.74,29.96L-339.13,18.66L-349.19,-16.18L-340.77,-51.46ZM-234.15,41.38L-213.46,40.89L-214.98,-24.18L-206.73,-55.11L-183.58,-66.28L-163.99,-57.77L-157.81,-33.80L-156.09,39.55L-135.40,39.06L-137.12,-34.29L-145.80,-70.57L-179.79,-84.21L-202.03,-78.76L-217.92,-61.38L-218.33,-78.63L-236.95,-78.19ZM-81.33,15.04L-94.14,-16.41L-5.38,-18.51L-4.42,-26.81L-19.14,-70.29L-61.04,-87.12L-101.21,-69.05L-115.34,-21.31L-98.99,25.71L-58.02,41.87L-24.09,30.98L-8.95,5.96L-25.30,-3.72L-37.35,17.03L-57.26,24.25ZM-93.83,-33.00L-81.49,-60.67L-60.65,-69.55L-36.95,-60.13L-26.92,-34.57ZM67.36,-69.99L83.02,-65.21L88.82,-82.83L68.38,-90.03L48.77,-83.44L35.43,-63.87L34.94,-84.56L16.32,-84.13L19.09,34.27L39.81,34.96L38.30,-29.66L45.19,-58.66ZM119.29,-3.97L101.90,4.66L114.16,27.85L149.82,37.13L183.42,27.92L198.23,-1.08L188.36,-25.40L167.98,-35.28L139.93,-42.16L124.28,-48.00L118.98,-57.44L125.36,-69.38L144.76,-74.17L163.62,-69.50L172.04,-54.47L189.25,-63.09L178.66,-82.88L145.14,-91.86L112.35,-82.62L98.83,-54.64L108.54,-32.90L129.52,-23.49L159.16,-16.38L173.21,-9.73L177.14,1.25L168.22,15.35L150.11,19.47L127.96,12.75ZM297.36,-110.71L304.65,-119.07L304.39,-130.77L296.57,-138.97L285.94,-138.72L278.71,-130.19L278.98,-118.51L286.73,-110.46ZM305.62,28.73L302.82,-90.84L282.13,-90.35L284.93,29.21ZM347.16,-9.31L329.77,-0.68L342.03,22.51L377.69,31.79L411.29,22.58L426.10,-6.42L416.23,-30.74L395.84,-40.62L367.79,-47.50L352.15,-53.34L346.85,-62.78L353.22,-74.72L372.63,-79.51L391.49,-74.84L399.90,-59.81L417.12,-68.43L406.53,-88.22L373.00,-97.20L340.22,-87.96L326.70,-59.98L336.41,-38.24L357.39,-28.83L387.03,-21.72L401.08,-15.07L405.00,-4.09L396.09,10.01L377.98,14.13L355.83,7.41ZM583.90,-58.02L516.96,-35.76L503.91,-6.86L516.86,20.01L546.24,27.82L567.55,23.16L586.83,8.30L587.06,22.13L606.38,21.68L604.60,-55.45L592.89,-90.30L556.83,-101.51L524.82,-92.89L509.72,-69.19L526.37,-59.49L536.48,-77.90L555.11,-84.56L575.37,-79.15ZM584.33,-39.73L585.03,-9.46L570.69,3.70L549.15,10.87L533.47,7.19L525.94,-8.29L534.79,-24.76ZM-567.99,243.38L-592.55,232.98L-603.80,197.28L-594.24,161.09L-570.18,149.55L-551.22,155.65L-539.28,176.53L-521.68,167.19L-537.64,141.91L-570.60,131.97L-610.78,150.04L-624.92,197.77L-608.57,244.79L-567.57,260.96L-535.11,249.61L-520.58,224.19L-538.38,215.23L-549.35,236.44ZM-449.06,129.12L-489.82,147.20L-504.53,194.95L-487.59,241.96L-446.03,258.11L-405.27,240.02L-390.54,192.28L-407.47,145.27ZM-446.44,240.53L-471.59,230.15L-483.41,194.48L-473.26,158.27L-448.64,146.72L-423.48,157.11L-411.64,192.79L-421.80,228.99ZM-368.34,251.58L-347.60,251.09L-349.05,189.24L-344.12,158.47L-320.03,143.98L-303.69,151.05L-297.89,171.68L-296.05,249.88L-275.36,249.40L-276.98,180.19L-270.20,153.86L-247.56,142.28L-229.79,151.27L-225.34,172.32L-223.56,248.19L-202.86,247.70L-204.81,164.46L-214.77,134.46L-243.52,124.34L-264.98,130.03L-280.94,148.53L-293.43,131.41L-315.36,126.13L-336.96,131.33L-352.08,148.59L-352.47,131.57L-371.10,132.01ZM-175.43,247.06L-154.69,246.57L-156.14,184.72L-151.21,153.95L-127.12,139.46L-110.77,146.53L-104.97,167.16L-103.14,245.36L-82.44,244.88L-84.06,175.67L-77.28,149.34L-54.65,137.76L-36.87,146.75L-32.42,167.80L-30.64,243.66L-9.95,243.18L-11.90,159.94L-21.85,129.93L-50.60,119.82L-72.06,125.51L-88.03,144.01L-100.52,126.88L-122.44,121.61L-144.04,126.81L-159.16,144.07L-159.56,127.05L-178.18,127.49ZM113.83,120.65L93.13,121.13L94.65,185.95L86.41,217.15L63.28,228.31L43.68,219.79L37.48,195.44L35.77,122.48L15.07,122.96L16.79,196.08L25.46,232.60L59.45,246.23L81.67,240.17L97.60,223.40L98.00,240.65L116.63,240.21ZM145.61,239.53L166.31,239.05L164.78,173.98L173.03,143.04L196.18,131.88L215.77,140.39L221.95,164.36L223.67,237.71L244.36,237.22L242.65,163.87L233.96,127.59L199.97,113.95L177.74,119.40L161.84,136.78L161.43,119.53L142.81,119.97ZM286.23,96.61L293.51,88.24L293.26,76.55L285.44,68.35L274.81,68.60L267.58,77.13L267.85,88.81L275.60,96.85ZM294.49,236.05L291.69,116.48L270.99,116.96L273.80,236.53ZM375.19,235.76L375.19,235.76L372.39,217.98L363.15,219.58L353.06,214.76L350.93,199.75L349.31,131.00L369.78,130.52L369.41,114.66L348.94,115.14L347.97,73.75L327.28,74.23L328.25,115.62L311.23,116.02L311.61,131.89L328.62,131.49L330.23,200.24L335.63,229.00L359.42,238.34ZM408.56,263.74L401.87,262.75L398.57,279.64L411.74,281.61L434.09,271.22L447.07,245.71L491.62,116.86L473.76,110.37L441.27,206.15L403.62,112.02L385.16,119.35L432.22,231.66L427.79,244.76L419.25,259.00Z" fill="#ffffff" stroke="#000000"/>
    <path d="M-414.90,-169.09L-456.38,-187.70L-470.76,-236.11L-458.07,-285.23L-418.51,-305.97L-386.13,-295.92L-370.16,-268.01L-351.16,-278.26L-372.13,-311.16L-419.00,-324.52L-476.09,-297.51L-493.96,-235.48L-472.85,-174.50L-414.41,-150.54L-368.42,-166.58L-349.55,-199.38L-368.62,-209.31L-384.64,-180.59ZM-299.58,-158.69L-303.90,-322.43L-324.37,-321.89L-320.05,-158.15ZM-258.13,-297.91L-250.94,-306.20L-251.23,-317.77L-258.99,-325.86L-269.50,-325.58L-276.63,-317.12L-276.33,-305.57L-268.64,-297.63ZM-249.55,-160.01L-252.67,-278.27L-273.13,-277.73L-270.02,-159.47ZM-221.05,-160.76L-200.53,-161.30L-202.15,-222.48L-197.36,-252.92L-173.57,-267.33L-157.39,-260.39L-151.59,-239.99L-149.55,-162.65L-129.08,-163.19L-130.88,-231.64L-124.25,-257.70L-101.90,-269.22L-84.29,-260.38L-79.82,-239.57L-77.85,-164.54L-57.38,-165.08L-59.55,-247.40L-69.48,-277.05L-97.95,-286.98L-119.16,-281.29L-134.90,-262.94L-147.30,-279.84L-169.00,-285.00L-190.35,-279.79L-205.26,-262.68L-205.70,-279.51L-224.12,-279.02ZM40.92,-247.03L-25.23,-224.82L-38.06,-196.19L-25.17,-169.65L3.91,-162.01L24.98,-166.68L44.01,-181.44L44.28,-167.76L63.38,-168.26L61.40,-244.55L49.72,-278.98L14.01,-289.96L-17.62,-281.35L-32.49,-257.86L-15.99,-248.31L-6.05,-266.56L12.36,-273.20L32.42,-267.90ZM41.39,-228.94L42.17,-199.00L28.03,-185.94L6.74,-178.79L-8.77,-182.38L-16.27,-197.67L-7.56,-213.99ZM145.02,-168.82L145.02,-168.83L142.20,-186.40L133.07,-184.79L123.07,-189.53L120.92,-204.37L119.13,-272.37L139.37,-272.90L138.95,-288.59L118.71,-288.06L117.63,-328.99L97.17,-328.45L98.24,-287.52L81.42,-287.08L81.83,-271.38L98.66,-271.83L100.45,-203.83L105.87,-175.40L129.43,-166.23ZM192.30,-194.17L179.54,-225.24L267.32,-227.57L268.24,-235.79L253.56,-278.75L212.07,-295.27L172.39,-277.28L158.55,-230.03L174.86,-183.57L215.43,-167.69L248.96,-178.56L263.87,-203.36L247.67,-212.89L235.80,-192.32L216.13,-185.13ZM179.79,-241.65L191.92,-269.06L212.51,-277.90L235.97,-268.65L245.97,-243.39ZM-806.91,59.51L-752.55,58.07L-693.30,35.72L-675.21,-26.37L-697.84,-87.51L-759.83,-105.59L-811.22,-104.24ZM-785.80,39.83L-789.11,-85.48L-759.32,-86.26L-715.55,-74.85L-697.94,-25.98L-711.05,23.02L-755.33,39.03ZM-624.77,32.19L-637.53,1.12L-549.75,-1.21L-548.83,-9.43L-563.51,-52.39L-605.00,-68.91L-644.68,-50.92L-658.52,-3.67L-642.21,42.79L-601.64,58.67L-568.12,47.80L-553.21,23.00L-569.41,13.48L-581.27,34.04L-600.94,41.23ZM-637.28,-15.29L-625.15,-42.70L-604.57,-51.54L-581.10,-42.29L-571.10,-17.03ZM-513.95,15.12L-531.12,23.71L-518.93,46.61L-483.63,55.68L-450.42,46.48L-435.86,17.74L-445.69,-6.28L-465.88,-15.99L-493.65,-22.72L-509.14,-28.45L-514.41,-37.77L-508.14,-49.60L-488.96,-54.39L-470.29,-49.83L-461.92,-34.99L-444.92,-43.56L-455.46,-63.11L-488.64,-71.89L-521.04,-62.66L-534.33,-34.94L-524.67,-13.46L-503.89,-4.22L-474.54,2.72L-460.63,9.26L-456.72,20.11L-465.49,34.09L-483.40,38.22L-505.33,31.63ZM-401.35,-89.31L-394.17,-97.60L-394.45,-109.17L-402.21,-117.26L-412.73,-116.98L-419.85,-108.52L-419.55,-96.97L-411.86,-89.04ZM-392.77,48.59L-395.89,-69.67L-416.36,-69.13L-413.24,49.13ZM-317.35,96.11L-275.46,77.22L-266.30,37.52L-269.22,-73.01L-287.41,-72.53L-286.99,-56.61L-300.79,-71.36L-321.68,-76.74L-359.60,-57.92L-371.71,-11.58L-357.18,34.05L-318.31,50.84L-300.11,45.99L-286.90,33.28L-286.73,41.96L-293.26,68.62L-317.33,78.46L-336.41,73.62L-344.28,57.78L-360.46,65.71L-349.57,87.20ZM-320.06,-59.36L-297.15,-48.24L-285.64,-13.83L-294.45,21.10L-317.61,33.42L-340.78,22.32L-350.82,-12.12L-342.60,-47.04ZM-236.87,44.48L-216.40,43.94L-218.10,-20.42L-210.02,-51.04L-187.17,-62.15L-167.76,-53.79L-161.58,-30.10L-159.67,42.44L-139.20,41.90L-141.11,-30.64L-149.81,-66.51L-183.47,-79.90L-205.44,-74.45L-221.12,-57.21L-221.57,-74.27L-239.99,-73.78ZM-85.79,17.98L-98.55,-13.09L-10.76,-15.42L-9.84,-23.64L-24.53,-66.60L-66.02,-83.12L-105.70,-65.13L-119.54,-17.87L-103.23,28.59L-62.65,44.46L-29.13,33.59L-14.22,8.80L-30.42,-0.73L-42.29,19.83L-61.95,27.02ZM-98.30,-29.50L-86.16,-56.91L-65.58,-65.75L-42.11,-56.50L-32.12,-31.24ZM61.04,-66.55L76.54,-61.87L82.23,-79.32L61.99,-86.37L42.61,-79.80L29.47,-60.40L28.93,-80.87L10.51,-80.38L13.60,36.72L34.10,37.33L32.41,-26.57L39.14,-55.28ZM112.60,-1.40L95.42,7.19L107.61,30.09L142.91,39.17L176.12,29.96L190.69,1.23L180.85,-22.80L160.66,-32.51L132.90,-39.23L117.41,-44.97L112.13,-54.28L118.41,-66.12L137.59,-70.91L156.26,-66.34L164.62,-51.51L181.63,-60.08L171.09,-79.63L137.90,-88.41L105.50,-79.17L92.21,-51.46L101.88,-29.98L122.66,-20.73L152.00,-13.79L165.91,-7.26L169.83,3.60L161.05,17.57L143.15,21.70L121.22,15.12ZM288.42,-107.50L295.60,-115.79L295.32,-127.35L287.56,-135.44L277.04,-135.17L269.92,-126.71L270.22,-115.15L277.90,-107.22ZM297.00,30.40L293.88,-87.86L273.41,-87.32L276.53,30.94ZM337.97,-7.34L320.80,1.25L332.99,24.15L368.29,33.22L401.50,24.02L416.06,-4.71L406.23,-28.74L386.04,-38.45L358.27,-45.17L342.78,-50.91L337.51,-60.23L343.78,-72.06L362.96,-76.85L381.63,-72.29L389.99,-57.45L407.00,-66.02L396.46,-85.57L363.28,-94.35L330.88,-85.12L317.59,-57.40L327.25,-35.92L348.03,-26.67L377.37,-19.73L391.28,-13.20L395.20,-2.34L386.43,11.63L368.52,15.76L346.59,9.18ZM572.00,-56.21L505.85,-34.00L493.02,-5.37L505.91,21.17L534.99,28.81L556.06,24.14L575.09,9.38L575.36,23.07L594.46,22.56L592.48,-53.73L580.80,-88.16L545.09,-99.14L513.46,-90.53L498.59,-67.04L515.09,-57.49L525.03,-75.74L543.44,-82.38L563.50,-77.08ZM572.47,-38.12L573.25,-8.18L559.11,4.88L537.82,12.03L522.31,8.44L514.81,-6.85L523.52,-23.17ZM-566.49,245.25L-590.82,235.03L-602.05,199.75L-592.69,163.93L-568.94,152.45L-550.17,158.43L-538.29,179.05L-520.91,169.76L-536.77,144.79L-569.40,135.06L-609.09,153.05L-622.94,200.30L-606.63,246.76L-566.03,262.64L-533.96,251.32L-519.65,226.14L-537.28,217.32L-548.07,238.33ZM-449.18,131.89L-489.45,149.89L-503.86,197.16L-486.97,243.61L-445.82,259.47L-405.55,241.46L-391.12,194.19L-408.01,147.75ZM-446.28,242.08L-471.18,231.89L-482.98,196.63L-473.04,160.79L-448.73,149.30L-423.81,159.50L-411.99,194.76L-421.93,230.59ZM-369.00,252.78L-348.48,252.24L-350.10,191.07L-345.31,160.62L-321.52,146.21L-305.33,153.16L-299.53,173.55L-297.50,250.90L-277.03,250.36L-278.83,181.90L-272.20,155.85L-249.85,144.32L-232.24,153.17L-227.77,173.97L-225.79,249.01L-205.33,248.47L-207.50,166.14L-217.43,136.49L-245.90,126.56L-267.11,132.25L-282.84,150.60L-295.25,133.70L-316.95,128.54L-338.30,133.75L-353.20,150.87L-353.65,134.04L-372.07,134.52ZM-178.19,247.75L-157.68,247.21L-159.29,186.03L-154.50,155.59L-130.72,141.18L-114.53,148.13L-108.73,168.52L-106.69,245.87L-86.22,245.33L-88.03,176.87L-81.39,150.82L-59.04,139.29L-41.43,148.14L-36.97,168.94L-34.99,243.98L-14.52,243.44L-16.69,161.11L-26.63,131.46L-55.09,121.53L-76.30,127.22L-92.04,145.57L-104.44,128.67L-126.14,123.51L-147.49,128.72L-162.40,145.84L-162.84,129.01L-181.26,129.49ZM107.55,121.88L87.08,122.42L88.77,186.53L80.72,217.41L57.87,228.52L38.45,220.15L32.25,196.08L30.35,123.91L9.88,124.45L11.79,196.77L20.47,232.87L54.13,246.25L76.09,240.20L91.80,223.57L92.25,240.62L110.67,240.14ZM139.34,239.38L159.80,238.84L158.11,174.48L166.18,143.86L189.04,132.75L208.45,141.11L214.63,164.80L216.54,237.35L237.01,236.81L235.10,164.26L226.40,128.40L192.74,115.00L170.76,120.46L155.09,137.69L154.64,120.64L136.22,121.12ZM278.01,97.60L285.19,89.31L284.91,77.74L277.15,69.65L266.63,69.93L259.51,78.39L259.81,89.94L267.49,97.88ZM286.59,235.50L283.47,117.24L263.00,117.78L266.12,236.04ZM366.40,234.98L366.41,234.98L363.58,217.40L354.45,219.02L344.46,214.28L342.30,199.44L340.51,131.44L360.75,130.91L360.34,115.21L340.10,115.75L339.02,74.81L318.55,75.35L319.63,116.29L302.80,116.73L303.21,132.42L320.04,131.98L321.83,199.98L327.26,228.41L350.82,237.58ZM399.50,262.56L392.87,261.60L389.66,278.32L402.69,280.23L424.77,269.89L437.54,244.61L481.23,117.03L463.54,110.67L431.69,205.50L394.17,112.50L375.93,119.81L422.81,230.76L418.46,243.73L410.06,257.85Z" fill="#ffffff" stroke="#000000"/>
    <path d="M-416.15,-163.17L-457.22,-181.46L-471.59,-229.30L-459.18,-277.91L-420.11,-298.54L-388.06,-288.69L-372.19,-261.14L-353.43,-271.32L-374.26,-303.81L-420.65,-316.88L-477.04,-290.00L-494.53,-228.61L-473.48,-168.36L-415.61,-144.83L-370.17,-160.82L-351.60,-193.31L-370.49,-203.08L-386.26,-174.63ZM-302.07,-153.22L-306.81,-315.15L-327.05,-314.56L-322.31,-152.63ZM-261.47,-291.03L-254.39,-299.25L-254.71,-310.69L-262.40,-318.67L-272.80,-318.36L-279.82,-309.97L-279.49,-298.55L-271.87,-290.73ZM-252.59,-154.67L-256.01,-271.62L-276.25,-271.03L-272.83,-154.08ZM-224.40,-155.50L-204.12,-156.09L-205.89,-216.59L-201.24,-246.72L-177.76,-261.03L-161.73,-254.21L-155.93,-234.06L-153.69,-157.57L-133.45,-158.16L-135.43,-225.86L-128.95,-251.65L-106.88,-263.11L-89.43,-254.41L-84.96,-233.85L-82.78,-159.64L-62.54,-160.24L-64.93,-241.65L-74.84,-270.95L-103.02,-280.68L-123.98,-275.00L-139.49,-256.80L-151.81,-273.48L-173.29,-278.52L-194.39,-273.31L-209.08,-256.34L-209.57,-272.98L-227.78,-272.45ZM34.43,-241.58L-30.93,-219.41L-43.53,-191.06L-30.70,-164.86L-1.92,-157.38L18.90,-162.07L37.68,-176.71L37.99,-163.18L56.88,-163.74L54.70,-239.18L43.04,-273.20L7.70,-283.96L-23.56,-275.35L-38.20,-252.08L-21.86,-242.68L-12.07,-260.75L6.12,-267.37L25.97,-262.19ZM34.96,-223.69L35.81,-194.08L21.87,-181.12L0.83,-173.99L-14.52,-177.49L-21.98,-192.60L-13.42,-208.76ZM137.62,-164.53L137.62,-164.53L134.78,-181.91L125.75,-180.29L115.85,-184.94L113.68,-199.61L111.71,-266.86L131.73,-267.45L131.27,-282.97L111.25,-282.38L110.07,-322.86L89.83,-322.27L91.01,-281.79L74.37,-281.30L74.82,-265.78L91.47,-266.27L93.44,-199.02L98.88,-170.92L122.21,-161.92ZM184.30,-189.73L171.59,-220.42L258.41,-222.99L259.29,-231.12L244.65,-273.57L203.56,-289.78L164.37,-271.88L150.82,-225.10L167.09,-179.20L207.26,-163.62L240.38,-174.46L255.06,-199.03L239.01,-208.41L227.33,-188.04L207.90,-180.86ZM171.79,-236.66L183.71,-263.80L204.05,-272.61L227.28,-263.52L237.24,-238.57ZM-803.18,64.05L-749.43,62.47L-690.90,40.19L-673.18,-21.27L-695.74,-81.67L-757.10,-99.37L-807.93,-97.89ZM-782.37,44.53L-786.00,-79.39L-756.54,-80.26L-713.22,-69.10L-695.67,-20.82L-708.48,27.68L-752.23,43.64ZM-623.13,36.51L-635.84,5.81L-549.03,3.25L-548.14,-4.88L-562.79,-47.33L-603.87,-63.54L-643.06,-45.64L-656.61,1.14L-640.35,47.04L-600.18,62.62L-567.05,51.78L-552.38,27.21L-568.43,17.83L-580.10,38.20L-599.53,45.37ZM-635.64,-10.42L-623.72,-37.56L-603.39,-46.37L-580.15,-37.29L-570.19,-12.33ZM-513.57,19.30L-530.53,27.84L-518.41,50.45L-483.47,59.33L-450.65,50.13L-436.33,21.67L-446.13,-2.06L-466.13,-11.61L-493.61,-18.18L-508.94,-23.81L-514.18,-33.00L-508.01,-44.73L-489.06,-49.52L-470.58,-45.06L-462.27,-30.41L-445.47,-38.94L-455.95,-58.24L-488.80,-66.83L-520.81,-57.60L-533.88,-30.15L-524.26,-8.94L-503.68,0.15L-474.64,6.93L-460.86,13.35L-456.96,24.07L-465.59,37.92L-483.29,42.05L-505.00,35.61ZM-402.52,-84.31L-395.43,-92.53L-395.75,-103.97L-403.45,-111.95L-413.85,-111.64L-420.87,-103.26L-420.54,-91.83L-412.91,-84.01ZM-393.63,52.05L-397.06,-64.90L-417.30,-64.31L-413.87,52.64ZM-318.90,98.83L-277.52,80.02L-268.59,40.73L-271.79,-68.57L-289.78,-68.04L-289.32,-52.30L-303.01,-66.85L-323.68,-72.10L-361.13,-53.39L-372.98,-7.52L-358.47,37.57L-319.98,54.06L-302.00,49.21L-288.96,36.60L-288.77,45.19L-295.16,71.57L-318.94,81.37L-337.82,76.64L-345.65,61.00L-361.63,68.89L-350.79,90.12ZM-322.03,-54.92L-299.34,-43.99L-287.86,-10.00L-296.48,24.57L-319.34,36.83L-342.28,25.91L-352.32,-8.11L-344.29,-42.67ZM-239.46,47.53L-219.21,46.94L-221.08,-16.71L-213.18,-47.02L-190.61,-58.07L-171.39,-49.86L-165.21,-26.45L-163.11,45.30L-142.86,44.70L-144.97,-27.04L-153.67,-62.49L-187.00,-75.64L-208.72,-70.18L-224.17,-53.08L-224.66,-69.95L-242.88,-69.42ZM-90.11,20.89L-102.82,-9.80L-16.01,-12.36L-15.12,-20.49L-29.77,-62.94L-70.85,-79.16L-110.04,-61.25L-123.59,-14.47L-107.33,31.43L-67.15,47.01L-34.03,36.16L-19.36,11.60L-35.40,2.22L-47.08,22.59L-66.51,29.76ZM-102.62,-26.03L-90.70,-53.17L-70.37,-61.98L-47.13,-52.90L-37.17,-27.95ZM54.86,-63.14L70.20,-58.56L75.77,-75.83L55.74,-82.75L36.59,-76.19L23.65,-56.97L23.06,-77.21L4.84,-76.67L8.24,39.13L28.51,39.68L26.66,-23.52L33.23,-51.93ZM106.04,1.15L89.08,9.69L101.20,32.30L136.14,41.18L168.96,31.98L183.28,3.52L173.48,-20.21L153.48,-29.76L126.00,-36.33L110.67,-41.96L105.42,-51.15L111.59,-62.88L130.55,-67.67L149.03,-63.21L157.34,-48.56L174.14,-57.09L163.66,-76.39L130.81,-84.98L98.80,-75.75L85.73,-48.30L95.35,-27.09L115.93,-18.00L144.97,-11.22L158.75,-4.80L162.65,5.92L154.02,19.77L136.32,23.90L114.61,17.46ZM279.62,-104.29L286.70,-112.51L286.38,-123.95L278.68,-131.93L268.29,-131.63L261.27,-123.24L261.60,-111.81L269.22,-103.99ZM288.50,32.07L285.07,-84.88L264.83,-84.29L268.26,32.66ZM328.92,-5.38L311.96,3.16L324.08,25.77L359.02,34.65L391.84,25.45L406.16,-3.01L396.36,-26.74L376.36,-36.29L348.88,-42.86L333.55,-48.49L328.30,-57.68L334.47,-69.41L353.43,-74.20L371.91,-69.74L380.22,-55.09L397.02,-63.62L386.54,-82.92L353.69,-91.51L321.67,-82.28L308.61,-54.83L318.23,-33.62L338.81,-24.53L367.85,-17.75L381.63,-11.33L385.53,-0.61L376.89,13.24L359.20,17.38L337.49,10.93ZM560.23,-54.39L494.87,-32.23L482.27,-3.88L495.09,22.33L523.88,29.80L544.70,25.12L563.47,10.47L563.78,24.00L582.67,23.45L580.49,-52.00L568.84,-86.02L533.49,-96.78L502.23,-88.17L487.60,-64.89L503.94,-55.50L513.72,-73.57L531.91,-80.19L551.77,-75.01ZM560.75,-36.50L561.61,-6.89L547.66,6.06L526.63,13.20L511.27,9.70L503.82,-5.41L512.38,-21.57ZM-564.87,247.05L-588.96,237.02L-600.17,202.16L-591.02,166.70L-567.56,155.28L-548.98,161.14L-537.18,181.49L-520.01,172.26L-535.76,147.61L-568.06,138.08L-607.27,155.99L-620.83,202.76L-604.57,248.67L-564.37,264.25L-532.68,252.96L-518.60,228.01L-536.07,219.35L-546.68,240.15ZM-449.18,134.60L-488.96,152.52L-503.07,199.31L-486.23,245.20L-445.49,260.76L-405.71,242.83L-391.58,196.05L-408.41,150.16ZM-445.99,243.57L-470.64,233.56L-482.41,198.73L-472.70,163.25L-448.68,151.81L-424.00,161.83L-412.22,196.67L-421.95,232.14ZM-369.53,253.93L-349.24,253.33L-351.01,192.84L-346.37,162.71L-322.88,148.39L-306.85,155.21L-301.06,175.37L-298.82,251.86L-278.58,251.26L-280.56,183.57L-274.07,157.78L-252.00,146.31L-234.56,155.01L-230.08,175.58L-227.91,249.78L-207.67,249.19L-210.05,167.77L-219.97,138.47L-248.15,128.74L-269.11,134.43L-284.62,152.62L-296.93,135.94L-318.41,130.91L-339.51,136.12L-354.20,153.09L-354.69,136.44L-372.91,136.98ZM-180.83,248.40L-160.55,247.81L-162.32,187.31L-157.67,157.18L-134.19,142.86L-118.16,149.69L-112.36,169.84L-110.12,246.33L-89.88,245.74L-91.86,178.04L-85.38,152.25L-63.31,140.79L-45.86,149.48L-41.39,170.05L-39.21,244.25L-18.97,243.66L-21.36,162.24L-31.27,132.95L-59.45,123.21L-80.41,128.90L-95.92,147.10L-108.24,130.41L-129.72,125.38L-150.82,130.59L-165.51,147.56L-166.00,130.92L-184.21,131.45ZM101.40,123.08L81.16,123.68L83.02,187.08L75.14,217.64L52.58,228.70L33.35,220.48L27.15,196.69L25.06,125.32L4.81,125.91L6.91,197.43L15.60,233.11L48.93,246.25L70.63,240.19L86.12,223.70L86.61,240.57L104.83,240.03ZM133.18,239.20L153.42,238.61L151.56,174.96L159.45,144.66L182.03,133.60L201.24,141.82L207.43,165.22L209.53,236.97L229.77,236.37L227.67,164.63L218.96,129.19L185.64,116.04L163.92,121.50L148.46,138.59L147.97,121.72L129.75,122.25ZM269.92,98.58L277.00,90.36L276.68,78.92L268.98,70.94L258.58,71.24L251.56,79.63L251.89,91.06L259.52,98.88ZM278.80,234.94L275.37,117.99L255.13,118.58L258.56,235.53ZM357.74,234.19L357.74,234.19L354.90,216.82L345.87,218.44L335.97,213.78L333.80,199.11L331.83,131.87L351.84,131.28L351.39,115.76L331.37,116.35L330.19,75.86L309.95,76.46L311.13,116.94L294.49,117.43L294.94,132.95L311.59,132.46L313.56,199.70L319.00,227.81L342.33,236.81ZM390.55,261.38L383.99,260.44L380.86,276.98L393.75,278.84L415.56,268.55L428.12,243.51L470.96,117.21L453.44,110.97L422.22,204.85L384.85,112.98L366.83,120.26L413.51,229.86L409.24,242.69L400.98,256.68Z" fill="#ffffff" stroke="#000000"/>
    <path d="M-906.35,492L-906.35,469.28L-898.22,492L-894.99,492L-886.86,469.28L-886.86,492L-883.25,492L-883.25,464.64L-888.22,464.64L-896.55,487.33L-904.68,464.64L-909.96,464.64L-909.96,492ZM-865.67,478.75L-876.82,482.17L-879.09,486.89L-877.05,491.38L-872.23,492.78L-868.69,492.09L-865.45,489.71L-865.46,492L-862.27,492L-862.27,479.25L-864.06,473.45L-869.98,471.46L-875.30,472.76L-877.88,476.62L-875.17,478.28L-873.43,475.28L-870.33,474.25L-867.00,475.23ZM-865.67,481.77L-865.68,486.77L-868.09,488.89L-871.68,489.99L-874.26,489.33L-875.44,486.74L-873.91,484.05ZM-857.12,492L-853.70,492L-853.70,481.25L-852.22,476.17L-848.35,474.41L-845.15,475.90L-844.22,479.88L-844.22,492L-840.80,492L-840.80,479.88L-842.09,473.85L-847.66,471.47L-851.35,472.28L-854.04,475.09L-854.04,472.24L-857.12,472.24ZM-833.34,468.94L-832.11,467.58L-832.10,465.65L-833.36,464.27L-835.12,464.27L-836.35,465.65L-836.35,467.58L-835.10,468.94ZM-832.52,492L-832.52,472.24L-835.94,472.24L-835.94,492ZM-818.31,468.12L-817.85,465.29L-820.94,464.71L-825.30,466.41L-826.70,471.29L-826.70,472.24L-829.67,472.24L-829.67,474.86L-826.70,474.86L-826.70,492L-823.40,492L-823.40,474.86L-819.56,474.86L-819.56,472.24L-823.40,472.24L-823.40,471.21L-822.75,468.65L-820.52,467.74ZM-807.97,471.46L-814.77,474.29L-817.39,482.12L-814.77,489.95L-807.97,492.78L-801.17,489.95L-798.55,482.12L-801.16,474.29ZM-807.97,489.87L-812.08,488.06L-813.90,482.12L-812.08,476.18L-807.97,474.37L-803.85,476.18L-802.04,482.12L-803.85,488.06ZM-795.03,492L-791.61,492L-791.61,481.25L-790.13,476.17L-786.26,474.41L-783.06,475.90L-782.13,479.88L-782.13,492L-778.71,492L-778.71,479.88L-780.00,473.85L-785.56,471.47L-789.26,472.28L-791.95,475.09L-791.95,472.24L-795.03,472.24ZM-765.45,492.27L-765.45,492.26L-765.85,489.32L-767.38,489.55L-769.03,488.71L-769.32,486.22L-769.32,474.86L-765.94,474.86L-765.94,472.24L-769.32,472.24L-769.32,465.40L-772.74,465.40L-772.74,472.24L-775.55,472.24L-775.55,474.86L-772.74,474.86L-772.74,486.22L-771.96,491.00L-768.07,492.63ZM-737.50,487.93L-737.50,478.13L-749.05,478.13L-749.05,481.31L-740.99,481.31L-740.97,486.22L-748.63,489.75L-755.95,486.41L-758.55,478.32L-756.06,470.17L-749.21,466.88L-744.27,468.25L-741.30,473.01L-738.24,471.11L-741.44,465.93L-749.13,463.79L-758.98,468.04L-762.42,478.32L-758.78,488.60L-748.74,492.86ZM-724.35,474.77L-721.78,475.62L-720.76,472.73L-724.11,471.47L-727.37,472.48L-729.65,475.66L-729.65,472.24L-732.73,472.24L-732.73,491.81L-729.31,492L-729.31,481.32L-728.06,476.56ZM-710.01,471.46L-716.81,474.29L-719.42,482.12L-716.81,489.95L-710.01,492.78L-703.20,489.95L-700.58,482.12L-703.20,474.29ZM-710.01,489.87L-714.12,488.06L-715.93,482.12L-714.12,476.18L-710.01,474.37L-705.89,476.18L-704.07,482.12L-705.89,488.06ZM-688.58,492.27L-688.58,492.26L-688.97,489.32L-690.51,489.55L-692.15,488.71L-692.45,486.22L-692.45,474.86L-689.07,474.86L-689.07,472.24L-692.45,472.24L-692.45,465.40L-695.87,465.40L-695.87,472.24L-698.68,472.24L-698.68,474.86L-695.87,474.86L-695.87,486.22L-695.09,491.00L-691.19,492.63ZM-680.57,488.24L-682.57,483.00L-667.90,482.99L-667.71,481.63L-669.97,474.39L-676.83,471.45L-683.53,474.28L-686.05,482.11L-683.53,489.93L-676.83,492.76L-671.18,491.10L-668.58,487.02L-671.25,485.36L-673.32,488.74L-676.63,489.86ZM-682.45,480.26L-680.31,475.73L-676.83,474.35L-672.95,476.00L-671.40,480.26ZM-661.99,485.88L-664.90,487.24L-662.96,491.11L-657.11,492.78L-651.52,491.39L-648.97,486.66L-650.50,482.61L-653.83,480.90L-658.44,479.65L-661.00,478.62L-661.84,477.05L-660.74,475.10L-657.52,474.38L-654.42,475.23L-653.09,477.74L-650.21,476.38L-651.88,473.07L-657.39,471.46L-662.84,472.86L-665.18,477.43L-663.66,481.06L-660.23,482.69L-655.36,483.98L-653.07,485.13L-652.46,486.96L-653.99,489.26L-656.99,489.87L-660.63,488.67ZM-641.92,483.45L-638.72,483.45L-637.20,484.67L-633.14,492.30L-630.05,490.63L-634.16,483.45L-636.67,482.04L-634.62,480.06L-632.77,476.14L-631.66,475.64L-630.10,475.39L-630.56,472.24L-633.40,472.52L-635.30,474.17L-637.43,478.82L-638.72,480.60L-641.91,480.60L-641.91,464.64L-643.66,464.64L-645.32,464.64L-645.33,492L-641.92,492ZM-625.58,492.01L-615.04,492.01L-607.42,490.45L-604.53,484.21L-606.06,480.03L-610.31,477.70L-606.80,475.27L-605.82,471.62L-608.58,466.13L-615.58,464.63L-625.58,464.63ZM-621.94,476.42L-621.95,467.89L-616.40,467.89L-611.64,468.44L-609.62,472.08L-611.57,475.51L-615.93,476.42ZM-621.94,488.79L-621.94,479.64L-615.54,479.64L-610.64,480.53L-608.45,484.21L-610.32,488.02L-615.04,488.79ZM-592.40,471.46L-599.20,474.29L-601.81,482.12L-599.20,489.95L-592.40,492.78L-585.59,489.95L-582.97,482.12L-585.59,474.29ZM-592.40,489.87L-596.51,488.06L-598.32,482.12L-596.51,476.18L-592.40,474.37L-588.28,476.18L-586.46,482.12L-588.28,488.06ZM-571.27,471.46L-578.07,474.29L-580.68,482.12L-578.07,489.95L-571.27,492.78L-564.46,489.95L-561.85,482.12L-564.46,474.29ZM-571.27,489.87L-575.38,488.06L-577.19,482.12L-575.38,476.18L-571.27,474.37L-567.15,476.18L-565.33,482.12L-567.15,488.06ZM-554.82,483.45L-551.62,483.45L-550.10,484.67L-546.04,492.30L-542.96,490.63L-547.06,483.45L-549.57,482.04L-547.52,480.06L-545.67,476.14L-544.56,475.64L-543.00,475.39L-543.46,472.24L-546.31,472.52L-548.20,474.17L-550.34,478.82L-551.62,480.60L-554.82,480.60L-554.82,464.64L-556.56,464.64L-558.23,464.64L-558.23,492L-554.82,492Z"/>
</svg>