<?xml version="1.0"?>
<svg xmlns="http://www.w3.org/2000/svg" width="1920" height="1080" viewBox="-960 -540 1920 1080">
    <path d="M-897.88,-224.76L-942.90,-246.41L-957.31,-300.01L-941.94,-353.59L-897.88,-375.23L-862.60,-363.25L-845.87,-332.14L-824.70,-342.84L-846.78,-379.60L-897.88,-395.63L-961.38,-367.60L-982.80,-299.99L-961.38,-232.39L-897.88,-204.37L-846.89,-220.66L-825.21,-256.14L-845.87,-267.61L-864.31,-236.52ZM-771.50,-210L-771.50,-390L-794,-390L-794,-210ZM-721.93,-361.74L-713.80,-370.64L-713.78,-383.35L-722.07,-392.46L-733.63,-392.46L-741.70,-383.37L-741.70,-370.67L-733.49,-361.74ZM-716.50,-210L-716.50,-340L-739,-340L-739,-210ZM-685.17,-210L-662.62,-210L-662.62,-277.25L-656.48,-310.56L-629.93,-325.70L-612.35,-317.60L-606.57,-295.03L-606.57,-210L-584.07,-210L-584.07,-285.25L-576.03,-313.68L-551.14,-325.70L-532.05,-315.47L-527.75,-292.48L-527.75,-210L-505.25,-210L-505.25,-300.50L-515.31,-333.36L-546.29,-345.09L-569.75,-339.45L-587.57,-319.75L-600.71,-338.68L-624.40,-344.97L-648.00,-339.87L-664.87,-321.50L-664.87,-340L-685.12,-340ZM-394.90,-297.19L-468.21,-274.70L-483.13,-243.62L-469.74,-214.10L-438.01,-204.86L-414.73,-209.38L-393.40,-225.04L-393.50,-210L-372.50,-210L-372.47,-293.86L-384.31,-332.03L-423.21,-345.13L-458.21,-336.58L-475.22,-311.21L-457.38,-300.24L-445.92,-320.00L-425.51,-326.75L-403.63,-320.35ZM-394.90,-277.30L-394.91,-244.38L-410.82,-230.45L-434.42,-223.21L-451.36,-227.60L-459.14,-244.62L-449.11,-262.29ZM-282.80,-208.26L-282.80,-208.26L-285.39,-227.65L-295.47,-226.14L-306.31,-231.63L-308.25,-248L-308.25,-322.75L-286,-322.75L-286,-340L-308.25,-340L-308.25,-385L-330.75,-385L-330.75,-340L-349.25,-340L-349.25,-322.75L-330.75,-322.75L-330.75,-248L-325.62,-216.61L-300.00,-205.85ZM-230.13,-234.73L-243.25,-269.23L-146.75,-269.25L-145.50,-278.25L-160.39,-325.87L-205.49,-345.22L-249.60,-326.61L-266.17,-275.10L-249.60,-223.59L-205.49,-204.97L-168.35,-215.94L-151.25,-242.75L-168.77,-253.69L-182.40,-231.44L-204.21,-224.11ZM-242.50,-287.25L-228.38,-317.01L-205.51,-326.13L-180.00,-315.28L-169.75,-287.25ZM-117.75,-210L-58,-210L7.73,-232.84L29.41,-300.52L6.32,-368.34L-61.25,-390L-117.75,-390ZM-94,-231L-94,-368.75L-61.25,-368.75L-13.50,-354.94L4.42,-300.76L-11.39,-247.31L-60.50,-231ZM83.12,-234.73L70.00,-269.23L166.50,-269.25L167.75,-278.25L152.86,-325.87L107.76,-345.22L63.65,-326.61L47.08,-275.10L63.65,-223.59L107.76,-204.97L144.90,-215.94L162,-242.75L144.48,-253.69L130.85,-231.44L109.04,-224.11ZM70.75,-287.25L84.87,-317.01L107.74,-326.13L133.25,-315.28L143.50,-287.25ZM205.36,-250.27L186.24,-241.34L198.97,-215.83L237.48,-204.84L274.23,-213.99L291.06,-245.13L280.96,-271.80L259.06,-283.06L228.75,-291.25L211.90,-298L206.38,-308.38L213.61,-321.21L234.82,-325.91L255.20,-320.35L263.96,-303.81L282.89,-312.74L271.88,-334.52L235.68,-345.13L199.82,-335.92L184.41,-305.85L194.41,-281.99L216.96,-271.22L249,-262.75L264.09,-255.17L268.08,-243.13L258.04,-228.03L238.25,-224.02L214.35,-231.88ZM332.07,-361.74L340.20,-370.64L340.22,-383.35L331.93,-392.46L320.37,-392.46L312.30,-383.37L312.30,-370.67L320.51,-361.74ZM337.50,-210L337.50,-340L315,-340L315,-210ZM418.98,-155.61L465.54,-175.15L476.75,-218.50L476.75,-340L456.75,-340L456.75,-322.50L442.02,-339.11L419.23,-345.61L377.02,-326.04L362.38,-275.49L377.02,-224.94L419.23,-205.37L439.36,-210.17L454.25,-223.75L454.19,-214.21L446.23,-185.11L419.51,-175.00L398.69,-180.87L390.50,-198.50L372.50,-190.25L383.84,-166.33ZM420.51,-326.48L445.35,-313.59L456.99,-275.47L446.30,-237.35L420.51,-224.48L395.38,-237.35L385.34,-275.47L395.38,-313.59ZM508.88,-210L531.38,-210L531.38,-280.75L541.14,-314.15L566.57,-325.70L587.65,-315.95L593.75,-289.75L593.75,-210L616.25,-210L616.25,-289.75L607.73,-329.40L571.15,-345.09L546.85,-339.73L529.13,-321.25L529.13,-340L508.88,-340ZM675.62,-234.73L662.50,-269.23L759,-269.25L760.25,-278.25L745.36,-325.87L700.26,-345.22L656.15,-326.61L639.58,-275.10L656.15,-223.59L700.26,-204.97L737.40,-215.94L754.50,-242.75L736.98,-253.69L723.35,-231.44L701.54,-224.11ZM663.25,-287.25L677.37,-317.01L700.24,-326.13L725.75,-315.28L736,-287.25ZM839.36,-323.34L856.25,-317.75L863,-336.75L840.98,-345.09L819.50,-338.43L804.50,-317.50L804.50,-340L784.25,-340L784.25,-211.27L806.75,-210L806.75,-280.25L814.98,-311.59ZM-176.89,-11.75L-176.89,-76.26L-252.91,-76.26L-252.91,-55.35L-199.84,-55.35L-199.75,-23L-250.11,0.22L-298.25,-21.75L-315.40,-75.01L-299.01,-128.59L-253.93,-150.23L-221.42,-141.27L-201.91,-109.94L-181.75,-122.43L-202.85,-156.51L-253.42,-170.63L-318.18,-142.60L-340.88,-74.99L-316.91,-7.39L-250.87,20.63ZM-92.26,-120.13L-137.01,-101.51L-154.22,-50.00L-137.01,1.51L-92.26,20.12L-47.50,1.50L-30.28,-50.00L-47.48,-101.51ZM-92.26,1.01L-119.31,-10.91L-131.25,-49.98L-119.30,-89.06L-92.26,-100.99L-65.18,-89.06L-53.22,-49.98L-65.18,-10.91ZM72.85,-72.19L-0.46,-49.70L-15.38,-18.62L-1.99,10.90L29.74,20.14L53.02,15.62L74.35,-0.04L74.25,15L95.25,15L95.28,-68.86L83.44,-107.03L44.54,-120.13L9.54,-111.58L-7.47,-86.21L10.37,-75.24L21.83,-95.00L42.24,-101.75L64.12,-95.35ZM72.85,-52.30L72.84,-19.38L56.93,-5.45L33.33,1.79L16.39,-2.60L8.61,-19.62L18.64,-37.29ZM152.25,15L152.25,-165L129.75,-165L129.75,15ZM198.36,-25.27L179.24,-16.34L191.97,9.17L230.48,20.16L267.23,11.01L284.06,-20.13L273.96,-46.80L252.06,-58.06L221.75,-66.25L204.90,-73L199.38,-83.38L206.61,-96.21L227.82,-100.91L248.20,-95.35L256.96,-78.81L275.89,-87.74L264.88,-109.52L228.68,-120.13L192.82,-110.92L177.41,-80.85L187.41,-56.99L209.96,-46.22L242,-37.75L257.09,-30.17L261.08,-18.13L251.04,-3.03L231.25,0.98L207.35,-6.88Z" fill="#ffffff" stroke="#000000"/>
    <path d="M-892.87,-227.41L-937.26,-249.23L-951.05,-302.41L-935.37,-355.33L-891.56,-376.37L-856.75,-364.20L-840.45,-333.25L-819.40,-343.66L-840.94,-380.24L-891.39,-396.55L-954.50,-369.37L-976.29,-302.62L-955.67,-235.51L-893.05,-207.22L-842.43,-222.90L-820.66,-257.84L-841.02,-269.37L-859.54,-238.75ZM-767.89,-211.69L-766.33,-389.88L-788.60,-390.08L-790.17,-211.89ZM-717.50,-361.47L-709.37,-370.21L-709.24,-382.80L-717.37,-391.89L-728.81,-391.99L-736.88,-383.06L-736.99,-370.49L-728.94,-361.57ZM-713.45,-211.21L-712.31,-339.91L-734.59,-340.10L-735.72,-211.41ZM-682.43,-210.94L-660.11,-210.74L-659.52,-277.32L-653.15,-310.24L-626.74,-324.99L-609.40,-316.82L-603.88,-294.43L-604.62,-210.26L-582.35,-210.06L-581.69,-284.55L-573.48,-312.63L-548.74,-324.31L-529.93,-314.02L-525.87,-291.22L-526.59,-209.57L-504.32,-209.37L-503.53,-298.97L-513.20,-331.58L-543.77,-343.46L-567.04,-338.09L-584.85,-318.74L-597.70,-337.59L-621.09,-344.03L-644.50,-339.18L-661.36,-321.14L-661.20,-339.46L-681.25,-339.63ZM-394.31,-294.72L-467.08,-273.10L-482.12,-242.46L-469.12,-213.12L-437.80,-203.70L-414.71,-207.97L-393.46,-223.28L-393.69,-208.40L-372.90,-208.22L-372.14,-291.24L-383.52,-329.12L-421.92,-342.43L-456.65,-334.27L-473.71,-309.31L-456.14,-298.29L-444.63,-317.75L-424.36,-324.26L-402.75,-317.74ZM-394.48,-275.03L-394.78,-242.45L-410.66,-228.79L-434.08,-221.83L-450.81,-226.33L-458.37,-243.24L-448.28,-260.65ZM-284.12,-205.71L-284.11,-205.71L-286.51,-224.93L-296.50,-223.53L-307.19,-229.06L-308.96,-245.28L-308.31,-319.28L-286.28,-319.08L-286.13,-336.16L-308.16,-336.35L-307.77,-380.90L-330.04,-381.10L-330.44,-336.55L-348.75,-336.71L-348.90,-319.63L-330.59,-319.47L-331.24,-245.47L-326.43,-214.35L-301.16,-203.48ZM-231.75,-231.46L-244.43,-265.73L-148.90,-264.91L-147.58,-273.81L-161.91,-321.08L-206.39,-340.63L-250.22,-322.58L-267.07,-271.74L-251.11,-220.60L-207.61,-201.79L-170.74,-212.32L-153.58,-238.71L-170.83,-249.69L-184.52,-227.79L-206.18,-220.72ZM-243.53,-283.56L-229.29,-312.90L-206.57,-321.72L-181.41,-310.77L-171.51,-282.93ZM-120.71,-206.00L-61.56,-205.48L3.72,-227.52L25.76,-294.33L3.50,-361.67L-63.21,-383.70L-119.14,-384.19ZM-97.01,-226.58L-95.81,-362.95L-63.39,-362.66L-16.24,-348.58L1.03,-294.78L-15.09,-242.01L-63.85,-226.29ZM78.36,-228.73L65.68,-263.00L161.21,-262.18L162.52,-271.08L148.20,-318.35L103.72,-337.90L59.89,-319.86L43.04,-269.01L58.99,-217.87L102.50,-199.06L139.36,-209.60L156.52,-235.99L139.27,-246.96L125.59,-225.06L103.93,-217.99ZM66.57,-280.83L80.81,-310.17L103.53,-319.00L128.69,-308.04L138.59,-280.20ZM199.51,-243.06L180.51,-234.38L192.89,-209.01L230.92,-197.80L267.38,-206.54L284.31,-237.22L274.54,-263.71L252.95,-275.04L223.02,-283.42L206.40,-290.25L201.02,-300.57L208.30,-313.20L229.34,-317.68L249.46,-312.00L257.99,-295.55L276.80,-304.22L266.09,-325.87L230.35,-336.69L194.77,-327.89L179.26,-298.26L188.94,-274.54L211.18,-263.69L242.82,-255.03L257.70,-247.39L261.54,-235.44L251.47,-220.58L231.84,-216.78L208.25,-224.77ZM325.92,-352.29L334.05,-361.03L334.18,-373.62L326.05,-382.71L314.61,-382.81L306.54,-373.89L306.43,-361.31L314.48,-352.40ZM329.97,-202.04L331.11,-330.73L308.83,-330.93L307.70,-202.23ZM410.16,-147.49L456.43,-166.42L467.90,-209.24L468.96,-329.52L449.16,-329.69L449.01,-312.37L434.57,-328.94L412.06,-335.58L370.11,-316.57L355.17,-266.65L369.23,-216.48L410.84,-196.74L430.82,-201.31L445.67,-214.63L445.53,-205.19L437.40,-176.45L410.85,-166.68L390.30,-172.67L382.34,-190.19L364.45,-182.18L375.47,-158.40ZM413.16,-316.62L437.64,-303.65L448.84,-265.81L437.92,-228.17L412.27,-215.65L387.51,-228.61L377.90,-266.43L388.18,-304.09ZM499.63,-200.54L521.91,-200.35L522.53,-270.39L532.47,-303.37L557.75,-314.58L578.53,-304.74L584.35,-278.75L583.65,-199.80L605.93,-199.61L606.62,-278.56L598.53,-317.88L562.45,-333.73L538.35,-328.64L520.65,-310.50L520.81,-329.06L500.77,-329.24ZM664.91,-223.57L652.23,-257.84L747.76,-257.02L749.08,-265.92L734.75,-313.19L690.27,-332.74L646.44,-314.70L629.59,-263.85L645.54,-212.71L689.05,-193.90L725.92,-204.44L743.07,-230.83L725.83,-241.80L712.14,-219.90L690.48,-212.83ZM653.13,-275.67L667.36,-305.01L690.08,-313.84L715.24,-302.88L725.15,-275.04ZM827.78,-309.87L844.46,-304.19L851.30,-322.94L829.57,-331.38L808.25,-324.98L793.22,-304.39L793.42,-326.66L773.37,-326.84L772.25,-199.40L794.51,-197.95L795.13,-267.49L803.54,-298.45ZM-180.97,-10.26L-180.41,-74.12L-255.68,-74.78L-255.86,-54.08L-203.32,-53.62L-203.51,-21.59L-253.56,0.95L-301.03,-21.21L-317.55,-74.08L-300.86,-126.99L-256.04,-148.02L-223.93,-138.87L-204.89,-107.68L-184.83,-119.87L-205.41,-153.78L-255.36,-168.20L-319.71,-141.03L-342.77,-74.29L-319.64,-7.16L-254.50,21.15ZM-96.25,-116.80L-140.72,-98.77L-158.20,-47.93L-141.61,3.22L-97.47,22.03L-53.00,3.99L-35.50,-46.85L-52.09,-97.99ZM-97.31,3.11L-123.99,-8.92L-135.47,-47.70L-123.30,-86.29L-96.42,-97.86L-69.72,-85.82L-58.22,-47.02L-70.40,-8.45ZM66.78,-67.91L-5.99,-46.28L-21.03,-15.65L-8.03,13.69L23.30,23.12L46.38,18.84L67.64,3.53L67.41,18.41L88.20,18.60L88.96,-64.42L77.57,-102.31L39.17,-115.61L4.45,-107.46L-12.61,-82.49L4.96,-71.48L16.47,-90.93L36.74,-97.45L58.35,-90.92ZM66.61,-48.22L66.31,-15.64L50.44,-1.98L27.02,4.98L10.29,0.49L2.72,-16.43L12.81,-33.83ZM144.63,19.09L146.19,-159.10L123.92,-159.30L122.35,18.90ZM190.62,-20.38L171.62,-11.70L184.00,13.67L222.03,24.88L258.49,16.15L275.42,-14.54L265.65,-41.03L244.07,-52.36L214.13,-60.74L197.51,-67.57L192.14,-77.89L199.41,-90.52L220.45,-95.00L240.57,-89.32L249.10,-72.87L267.91,-81.54L257.20,-103.19L221.46,-114.01L185.88,-105.21L170.37,-75.58L180.06,-51.86L202.29,-41.01L233.93,-32.35L248.81,-24.71L252.65,-12.76L242.58,2.10L222.95,5.91L199.36,-2.09Z" fill="#ffffff" stroke="#000000"/>
    <path d="M-887.77,-230.04L-931.51,-252.02L-944.71,-304.79L-928.72,-357.03L-885.18,-377.48L-850.82,-365.13L-834.96,-334.35L-814.03,-344.47L-835.03,-380.87L-884.83,-397.46L-947.53,-371.10L-969.69,-305.21L-949.86,-238.61L-888.12,-210.06L-837.88,-225.14L-816.03,-259.53L-836.07,-271.12L-854.68,-240.98ZM-764.19,-213.39L-761.09,-389.77L-783.14,-390.16L-786.24,-213.78ZM-713.01,-361.22L-704.89,-369.80L-704.65,-382.25L-712.61,-391.33L-723.94,-391.52L-732.00,-382.76L-732.23,-370.31L-724.33,-361.42ZM-710.30,-212.45L-708.06,-339.83L-730.11,-340.21L-732.35,-212.83ZM-679.60,-211.91L-657.51,-211.52L-656.35,-277.41L-649.76,-309.94L-623.48,-324.32L-606.40,-316.08L-601.12,-293.87L-602.59,-210.55L-580.54,-210.16L-579.25,-283.90L-570.87,-311.62L-546.28,-322.96L-527.75,-312.61L-523.93,-290.01L-525.36,-209.19L-503.31,-208.81L-501.75,-297.48L-511.04,-329.85L-541.20,-341.88L-564.28,-336.76L-582.08,-317.76L-594.63,-336.54L-617.73,-343.11L-640.95,-338.52L-657.79,-320.81L-657.47,-338.94L-677.31,-339.29ZM-393.68,-292.33L-465.90,-271.56L-481.05,-241.37L-468.44,-212.21L-437.51,-202.61L-414.63,-206.64L-393.46,-221.61L-393.81,-206.88L-373.24,-206.52L-371.76,-288.69L-382.70,-326.29L-420.59,-339.79L-455.04,-332.02L-472.14,-307.46L-454.85,-296.40L-443.28,-315.56L-423.16,-321.83L-401.83,-315.18ZM-394.02,-272.84L-394.60,-240.59L-410.43,-227.21L-433.68,-220.53L-450.20,-225.12L-457.54,-241.93L-447.40,-259.07ZM-285.38,-203.26L-285.37,-203.27L-287.58,-222.31L-297.48,-221.01L-308.01,-226.57L-309.63,-242.64L-308.34,-315.89L-286.53,-315.50L-286.24,-332.41L-308.04,-332.79L-307.26,-376.88L-329.31,-377.27L-330.09,-333.18L-348.21,-333.50L-348.51,-316.59L-330.38,-316.28L-331.67,-243.03L-327.18,-212.19L-302.27,-201.20ZM-233.31,-228.29L-245.57,-262.32L-151.01,-260.68L-149.63,-269.48L-163.40,-316.40L-207.26,-336.13L-250.80,-318.66L-267.93,-268.47L-252.58,-217.71L-209.68,-198.71L-173.09,-208.82L-155.88,-234.79L-172.86,-245.81L-186.60,-224.25L-208.10,-217.44ZM-244.52,-279.97L-230.17,-308.88L-207.61,-317.42L-182.80,-306.36L-173.24,-278.72ZM-123.62,-202.13L-65.07,-201.10L-0.27,-222.34L22.13,-288.29L0.68,-355.14L-65.15,-377.52L-120.52,-378.50ZM-99.99,-222.29L-97.61,-357.27L-65.52,-356.70L-18.97,-342.35L-2.34,-288.95L-18.76,-236.85L-67.16,-221.72ZM73.63,-222.89L61.37,-256.92L155.92,-255.28L157.30,-264.08L143.54,-311.00L99.68,-330.73L56.14,-313.26L39.01,-263.07L54.36,-212.31L97.26,-193.31L133.84,-203.42L151.06,-229.39L134.08,-240.41L120.34,-218.85L98.84,-212.04ZM62.41,-274.57L76.76,-303.48L99.33,-312.03L124.14,-300.96L133.70,-273.32ZM193.67,-236.02L174.79,-227.59L186.82,-202.38L224.37,-190.94L260.53,-199.28L277.56,-229.50L268.12,-255.81L246.85,-267.22L217.30,-275.77L200.91,-282.67L195.67,-292.94L202.98,-305.38L223.85,-309.63L243.72,-303.83L252.01,-287.47L270.71,-295.89L260.30,-317.42L225.01,-328.44L189.72,-320.03L174.11,-290.84L183.49,-267.28L205.41,-256.35L236.65,-247.49L251.31,-239.80L255.01,-227.94L244.91,-213.32L225.45,-209.72L202.16,-217.84ZM319.75,-343.05L327.87,-351.63L328.11,-364.09L320.15,-373.16L308.82,-373.36L300.76,-364.59L300.53,-352.15L308.43,-343.25ZM322.46,-194.28L324.70,-321.66L302.65,-322.05L300.41,-194.67ZM401.35,-139.58L447.32,-157.93L459.05,-200.21L461.14,-319.26L441.54,-319.60L441.24,-302.46L427.10,-318.98L404.88,-325.75L363.19,-307.30L347.96,-258.02L361.44,-208.23L402.46,-188.33L422.27,-192.69L437.09,-205.74L436.86,-196.39L428.57,-168.02L402.21,-158.57L381.91,-164.68L374.19,-182.10L356.41,-174.32L367.11,-150.69ZM405.80,-306.98L429.92,-293.93L440.67,-256.37L429.54,-219.21L404.04,-207.04L379.64,-220.08L370.46,-257.60L380.96,-294.79ZM490.38,-191.32L512.43,-190.94L513.65,-260.26L523.79,-292.82L548.90,-303.69L569.39,-293.78L574.92,-268.00L573.54,-189.86L595.59,-189.47L596.96,-267.62L589.30,-306.61L553.73,-322.62L529.82,-317.79L512.14,-299.98L512.47,-318.36L492.62,-318.70ZM654.19,-212.68L641.93,-246.71L736.48,-245.07L737.86,-253.87L724.10,-300.79L680.24,-320.52L636.70,-303.04L619.57,-252.86L634.92,-202.10L677.82,-183.10L714.41,-193.21L731.62,-219.18L714.64,-230.20L700.90,-208.64L679.40,-201.83ZM642.97,-264.36L657.32,-293.27L679.89,-301.81L704.70,-290.75L714.26,-263.10ZM816.15,-296.69L832.61,-290.92L839.55,-309.42L818.12,-317.96L796.95,-311.81L781.90,-291.56L782.29,-313.61L762.45,-313.96L760.23,-187.82L782.25,-186.19L783.46,-255.02L792.06,-285.60ZM-184.98,-8.89L-183.87,-72.10L-258.36,-73.41L-258.72,-52.92L-206.72,-52.01L-207.19,-20.31L-256.93,1.57L-303.73,-20.78L-319.62,-73.26L-302.63,-125.48L-258.09,-145.91L-226.39,-136.57L-207.80,-105.54L-187.84,-117.42L-207.92,-151.18L-257.24,-165.88L-321.17,-139.54L-344.57,-73.68L-322.26,-7.03L-258.03,21.56ZM-100.19,-113.62L-144.36,-96.16L-162.11,-45.98L-146.13,4.79L-102.61,23.80L-58.43,6.32L-40.67,-43.84L-56.64,-94.61ZM-102.28,5.07L-128.58,-7.07L-139.61,-45.56L-127.23,-83.65L-100.52,-94.87L-74.19,-82.72L-63.15,-44.22L-75.54,-6.14ZM60.77,-63.80L-11.45,-43.03L-26.61,-12.84L-14.00,16.32L16.93,25.92L39.82,21.89L60.99,6.92L60.63,21.65L81.21,22.01L82.69,-60.16L71.75,-97.76L33.85,-111.26L-0.59,-103.49L-17.70,-78.93L-0.40,-67.87L11.16,-87.03L31.28,-93.30L52.61,-86.66ZM60.42,-44.31L59.84,-12.07L44.01,1.32L20.77,8.00L4.25,3.41L-3.09,-13.40L7.05,-30.54ZM137.06,22.99L140.16,-153.38L118.12,-153.77L115.02,22.61ZM182.93,-15.67L164.05,-7.25L176.08,17.97L213.63,29.40L249.80,21.07L266.83,-9.15L257.38,-35.47L236.12,-46.87L206.56,-55.42L190.17,-62.32L184.94,-72.59L192.24,-85.03L213.11,-89.28L232.98,-83.48L241.27,-67.12L259.98,-75.54L249.56,-97.07L214.28,-108.09L178.98,-99.69L163.37,-70.49L172.75,-46.93L194.67,-36.00L225.91,-27.15L240.57,-19.46L244.27,-7.59L234.17,7.03L214.71,10.62L191.43,2.50Z" fill="#ffffff" stroke="#000000"/>
    <path d="M-882.57,-232.65L-925.67,-254.79L-938.27,-307.14L-922.00,-358.70L-878.72,-378.56L-844.82,-366.04L-829.39,-335.44L-808.59,-345.28L-829.06,-381.48L-878.20,-398.33L-940.49,-372.79L-962.99,-307.77L-943.95,-241.67L-883.09,-212.88L-833.23,-227.37L-811.30,-261.22L-831.05,-272.87L-849.72,-243.20ZM-760.40,-215.11L-755.80,-389.65L-777.62,-390.22L-782.22,-215.68ZM-708.46,-360.97L-700.34,-369.39L-700.00,-381.72L-707.80,-390.77L-719.01,-391.06L-727.07,-382.46L-727.40,-370.14L-719.66,-361.27ZM-707.07,-213.70L-703.75,-339.75L-725.56,-340.33L-728.89,-214.27ZM-676.69,-212.90L-654.83,-212.32L-653.11,-277.53L-646.30,-309.67L-620.17,-323.67L-603.33,-315.37L-598.30,-293.33L-600.48,-210.89L-578.66,-210.31L-576.74,-283.28L-568.21,-310.64L-543.77,-321.65L-525.52,-311.25L-521.94,-288.85L-524.05,-208.87L-502.23,-208.29L-499.92,-296.05L-508.83,-328.17L-538.57,-340.33L-561.47,-335.47L-579.25,-316.82L-591.50,-335.51L-614.31,-342.22L-637.33,-337.87L-654.16,-320.49L-653.68,-338.43L-673.32,-338.95ZM-393.00,-290.01L-464.66,-270.08L-479.92,-240.33L-467.69,-211.36L-437.16,-201.59L-414.48,-205.38L-393.39,-220.01L-393.87,-205.43L-373.51,-204.90L-371.33,-286.21L-381.83,-323.52L-419.22,-337.22L-453.38,-329.83L-470.53,-305.66L-453.50,-294.57L-441.89,-313.43L-421.92,-319.46L-400.87,-312.70ZM-393.51,-270.72L-394.36,-238.81L-410.14,-225.70L-433.21,-219.29L-449.52,-223.98L-456.64,-240.68L-446.46,-257.56ZM-286.58,-200.91L-286.57,-200.91L-288.60,-219.78L-298.40,-218.58L-308.78,-224.18L-310.24,-240.10L-308.32,-312.58L-286.75,-312.01L-286.31,-328.74L-307.88,-329.31L-306.73,-372.94L-328.55,-373.52L-329.70,-329.88L-347.64,-330.36L-348.08,-313.63L-330.14,-313.16L-332.05,-240.67L-327.88,-210.11L-303.31,-199.02ZM-234.83,-225.23L-246.66,-259.02L-153.09,-256.57L-151.65,-265.27L-164.87,-311.83L-208.10,-331.74L-251.35,-314.82L-268.74,-265.30L-253.99,-214.93L-211.69,-195.75L-175.40,-205.43L-158.13,-230.99L-174.84,-242.04L-188.63,-220.82L-209.97,-214.27ZM-245.48,-276.47L-231.02,-304.97L-208.61,-313.23L-184.16,-302.06L-174.93,-274.61ZM-126.49,-198.38L-68.55,-196.85L-4.23,-217.31L18.52,-282.39L-2.13,-348.74L-67.10,-371.47L-121.88,-372.92ZM-102.92,-218.13L-99.40,-351.70L-67.64,-350.86L-21.69,-336.26L-5.70,-283.25L-22.40,-231.83L-70.44,-217.27ZM68.92,-217.21L57.08,-251.00L150.65,-248.55L152.10,-257.25L138.88,-303.81L95.64,-323.72L52.39,-306.80L35.01,-257.28L49.76,-206.91L92.05,-187.73L128.35,-197.42L145.61,-222.97L128.91,-234.03L115.12,-212.81L93.78,-206.25ZM58.27,-268.46L72.72,-296.95L95.13,-305.21L119.59,-294.04L128.81,-266.60ZM187.85,-229.16L169.08,-220.99L180.77,-195.92L217.84,-184.28L253.71,-192.21L270.82,-221.98L261.70,-248.10L240.76,-259.57L211.58,-268.29L195.41,-275.27L190.32,-285.48L197.67,-297.73L218.35,-301.75L237.97,-295.84L246.04,-279.57L264.62,-287.75L254.50,-309.14L219.67,-320.36L184.67,-312.35L168.96,-283.59L178.04,-260.19L199.64,-249.18L230.49,-240.14L244.92,-232.40L248.48,-220.63L238.36,-206.24L219.07,-202.86L196.09,-211.10ZM313.57,-334.00L321.68,-342.42L322.03,-354.75L314.22,-363.79L303.01,-364.09L294.96,-355.48L294.63,-343.17L302.36,-334.29ZM314.95,-186.73L318.28,-312.78L296.46,-313.36L293.13,-187.30ZM392.56,-131.90L438.22,-149.66L450.19,-191.40L453.30,-309.22L433.91,-309.73L433.46,-292.76L419.61,-309.24L397.67,-316.13L356.25,-298.24L340.75,-249.59L353.66,-200.20L394.08,-180.14L413.73,-184.28L428.51,-197.07L428.20,-187.82L419.75,-159.81L393.57,-150.69L373.54,-156.91L366.05,-174.22L348.38,-166.68L358.77,-143.19ZM398.42,-297.55L422.18,-284.42L432.49,-247.15L421.15,-210.47L395.81,-198.64L371.77,-211.77L363.01,-248.98L373.73,-285.70ZM481.13,-182.34L502.95,-181.76L504.76,-250.37L515.08,-282.51L540.03,-293.05L560.22,-283.06L565.47,-257.50L563.43,-180.17L585.24,-179.59L587.29,-256.92L580.04,-295.59L544.97,-311.74L521.27,-307.16L503.61,-289.70L504.09,-307.88L484.46,-308.40ZM643.44,-202.05L631.61,-235.84L725.18,-233.39L726.62,-242.09L713.40,-288.65L670.17,-308.56L626.92,-291.64L609.53,-242.12L624.28,-191.75L666.58,-172.57L702.88,-182.26L720.14,-207.81L703.43,-218.86L689.64,-197.64L668.31,-191.09ZM632.80,-253.30L647.25,-281.79L669.66,-290.05L694.12,-278.88L703.34,-251.43ZM804.48,-283.79L820.72,-277.93L827.75,-296.18L806.61,-304.83L785.61,-298.93L770.53,-279.01L771.11,-300.83L751.47,-301.35L748.18,-176.53L769.96,-174.72L771.76,-242.84L780.54,-273.02ZM-188.90,-7.66L-187.25,-70.21L-260.97,-72.16L-261.51,-51.88L-210.04,-50.52L-210.79,-19.15L-260.21,2.08L-306.33,-20.45L-321.60,-72.54L-304.33,-124.08L-260.07,-143.91L-228.77,-134.39L-210.65,-103.51L-190.79,-115.10L-210.37,-148.68L-259.05,-163.67L-322.56,-138.15L-346.30,-73.17L-324.80,-7.01L-261.47,21.85ZM-104.07,-110.58L-147.94,-93.67L-165.94,-44.17L-150.57,6.22L-107.66,25.42L-63.78,8.50L-45.76,-40.99L-61.13,-91.38ZM-107.17,6.88L-133.10,-5.37L-143.68,-43.56L-131.09,-81.15L-104.56,-92.02L-78.61,-79.76L-68.01,-41.56L-80.61,-3.98ZM54.81,-59.86L-16.86,-39.93L-32.12,-10.18L-19.89,18.79L10.64,28.56L33.32,24.77L54.41,10.13L53.93,24.71L74.29,25.25L76.47,-56.07L65.97,-93.38L28.58,-107.07L-5.58,-99.68L-22.72,-75.52L-5.70,-64.43L5.91,-83.29L25.88,-89.32L46.94,-82.55ZM54.30,-40.58L53.44,-8.67L37.66,4.44L14.59,10.86L-1.72,6.17L-8.84,-10.54L1.35,-27.41ZM129.56,26.71L134.17,-147.83L112.35,-148.41L107.75,26.13ZM175.30,-11.17L156.54,-2.99L168.23,22.07L205.29,33.72L241.16,25.78L258.28,-3.98L249.16,-30.11L228.21,-41.58L199.03,-50.30L182.87,-57.28L177.78,-67.49L185.12,-79.73L205.81,-83.75L225.42,-77.84L233.49,-61.58L252.08,-69.75L241.96,-91.15L207.13,-102.36L172.12,-94.35L156.42,-65.59L165.50,-42.19L187.09,-31.18L217.94,-22.15L232.38,-14.41L235.94,-2.63L225.81,11.75L206.52,15.14L183.55,6.90Z" fill="#ffffff" stroke="#000000"/>
    <path d="M-877.27,-235.25L-919.74,-257.54L-931.75,-309.45L-915.19,-360.34L-872.19,-379.62L-838.75,-366.93L-823.75,-336.51L-803.08,-346.07L-823.02,-382.08L-871.50,-399.18L-933.37,-374.44L-956.21,-310.29L-937.94,-244.71L-877.96,-215.69L-828.49,-229.59L-806.49,-262.90L-825.93,-274.60L-844.67,-245.40ZM-756.52,-216.82L-750.44,-389.52L-772.03,-390.28L-778.11,-217.58ZM-703.84,-360.72L-695.74,-368.99L-695.29,-381.18L-702.94,-390.21L-714.02,-390.60L-722.07,-382.15L-722.51,-369.97L-714.93,-361.12ZM-703.75,-214.97L-699.36,-339.69L-720.95,-340.45L-725.34,-215.73ZM-673.70,-213.91L-652.06,-213.15L-649.79,-277.67L-642.78,-309.42L-616.79,-323.04L-600.20,-314.68L-595.42,-292.83L-598.29,-211.25L-576.70,-210.49L-574.16,-282.69L-565.48,-309.70L-541.20,-320.38L-523.23,-309.93L-519.88,-287.73L-522.67,-208.59L-501.08,-207.83L-498.02,-294.66L-506.56,-326.53L-535.89,-338.82L-558.59,-334.21L-576.35,-315.91L-588.32,-334.51L-610.83,-341.35L-633.65,-337.25L-650.46,-320.20L-649.83,-337.95L-669.26,-338.63ZM-392.26,-287.75L-463.36,-268.65L-478.72,-239.34L-466.87,-210.56L-436.74,-200.63L-414.26,-204.18L-393.26,-218.48L-393.87,-204.06L-373.72,-203.35L-370.86,-283.81L-380.93,-320.82L-417.81,-334.70L-451.68,-327.69L-468.85,-303.92L-452.11,-292.79L-440.45,-311.36L-420.63,-317.16L-399.85,-310.28ZM-392.93,-268.67L-394.06,-237.10L-409.79,-224.26L-432.68,-218.11L-448.78,-222.90L-455.68,-239.49L-445.45,-256.10ZM-287.72,-198.65L-287.72,-198.65L-289.55,-217.34L-299.27,-216.24L-309.49,-221.87L-310.79,-237.64L-308.27,-309.35L-286.92,-308.60L-286.34,-325.15L-307.69,-325.90L-306.17,-369.08L-327.75,-369.84L-329.27,-326.66L-347.02,-327.29L-347.61,-310.74L-329.86,-310.11L-332.38,-238.40L-328.52,-208.11L-304.30,-196.92ZM-236.30,-222.27L-247.72,-255.81L-155.13,-252.57L-153.63,-261.17L-166.31,-307.36L-208.92,-327.44L-251.87,-311.07L-269.51,-262.21L-255.35,-212.24L-213.66,-192.89L-177.65,-202.16L-160.34,-227.30L-176.78,-238.38L-190.61,-217.50L-211.79,-211.21ZM-246.39,-273.08L-231.84,-301.15L-209.59,-309.12L-185.48,-297.86L-176.59,-270.62ZM-129.31,-194.75L-71.99,-192.73L-8.15,-212.43L14.93,-276.63L-4.93,-342.48L-69.03,-365.53L-123.23,-367.44ZM-105.82,-214.09L-101.16,-346.25L-69.74,-345.15L-24.40,-330.29L-9.03,-277.69L-26.01,-226.95L-73.68,-212.96ZM64.24,-211.69L52.82,-245.23L145.40,-242.00L146.90,-250.59L134.23,-296.78L91.61,-316.86L48.66,-300.50L31.03,-251.64L45.19,-201.66L86.88,-182.31L122.88,-191.58L140.19,-216.72L123.75,-227.81L109.92,-206.93L88.75,-200.63ZM54.15,-262.50L68.70,-290.57L90.95,-298.55L115.06,-287.28L123.94,-260.04ZM182.04,-222.48L163.40,-214.55L174.75,-189.65L211.33,-177.80L246.90,-185.34L264.10,-214.65L255.30,-240.58L234.67,-252.12L205.87,-261.00L189.93,-268.05L184.98,-278.19L192.36,-290.25L212.86,-294.05L232.22,-288.03L240.07,-271.86L258.53,-279.79L248.70,-301.05L214.33,-312.46L179.62,-304.83L163.82,-276.51L172.61,-253.27L193.88,-242.19L224.33,-232.97L238.56,-225.19L241.98,-213.51L231.83,-199.36L212.71,-196.18L190.05,-204.53ZM307.37,-325.14L315.48,-333.40L315.92,-345.60L308.28,-354.62L297.19,-355.01L289.14,-346.56L288.71,-334.38L296.28,-325.53ZM307.46,-179.38L311.85,-304.10L290.26,-304.86L285.87,-180.14ZM383.79,-124.45L429.13,-141.62L441.34,-182.83L445.45,-299.40L426.26,-300.07L425.67,-283.28L412.10,-299.71L390.45,-306.72L349.30,-289.37L333.54,-241.37L345.88,-192.37L385.72,-172.17L405.19,-176.10L419.93,-188.63L419.55,-179.48L410.94,-151.83L384.96,-143.03L365.18,-149.36L357.92,-166.55L340.37,-159.25L350.45,-135.91ZM391.03,-288.32L414.43,-275.12L424.31,-238.15L412.77,-201.95L387.58,-190.47L363.91,-203.67L355.57,-240.57L366.49,-276.81ZM471.88,-173.59L493.47,-172.83L495.86,-240.71L506.35,-272.43L531.14,-282.64L551.03,-272.58L556.00,-247.24L553.31,-170.72L574.89,-169.96L577.59,-246.48L570.75,-284.80L536.18,-301.09L512.69,-296.77L495.07,-279.64L495.70,-297.63L476.27,-298.31ZM632.69,-191.68L621.27,-225.23L713.85,-221.99L715.35,-230.58L702.68,-276.77L660.06,-296.86L617.11,-280.49L599.47,-231.63L613.63,-181.65L655.33,-162.31L691.33,-171.58L708.64,-196.72L692.20,-207.80L678.37,-186.92L657.20,-180.62ZM622.59,-242.49L637.15,-270.56L659.40,-278.54L683.50,-267.28L692.39,-240.04ZM792.77,-271.17L808.79,-265.24L815.91,-283.24L795.06,-291.98L774.23,-286.32L759.13,-266.74L759.89,-288.33L740.46,-289.01L736.12,-165.51L757.66,-163.53L760.03,-230.93L768.98,-260.73ZM-192.74,-6.55L-190.56,-68.44L-263.50,-71.00L-264.21,-50.94L-213.29,-49.15L-214.30,-18.11L-263.39,2.47L-308.84,-20.23L-323.50,-71.91L-305.96,-122.77L-261.98,-142.01L-231.09,-132.31L-213.43,-101.59L-193.67,-112.89L-212.76,-146.30L-260.81,-161.55L-323.88,-136.86L-347.94,-72.75L-327.23,-7.09L-264.82,22.02ZM-107.89,-107.66L-151.46,-91.32L-169.70,-42.48L-154.93,7.52L-112.62,26.89L-69.05,10.54L-50.79,-38.29L-65.56,-88.29ZM-111.98,8.55L-137.53,-3.79L-147.67,-41.68L-134.89,-78.77L-108.53,-89.30L-82.96,-76.95L-72.80,-39.05L-85.60,-1.96ZM48.90,-56.09L-22.19,-36.99L-37.56,-7.68L-25.71,21.10L4.42,31.03L26.91,27.48L47.90,13.18L47.30,27.60L67.45,28.31L70.31,-52.15L60.24,-89.16L23.36,-103.04L-10.51,-96.03L-27.69,-72.26L-10.94,-61.13L0.72,-79.70L20.53,-85.50L41.31,-78.62ZM48.23,-37.01L47.11,-5.44L31.37,7.40L8.49,13.55L-7.62,8.76L-14.51,-7.83L-4.29,-24.44ZM122.13,30.23L128.21,-142.46L106.62,-143.22L100.55,29.47ZM167.73,-6.85L149.08,1.08L160.44,25.98L197.02,37.83L232.58,30.29L249.78,0.98L240.99,-24.95L220.35,-36.49L191.55,-45.37L175.62,-52.42L170.67,-62.56L178.04,-74.62L198.55,-78.42L217.91,-72.40L225.75,-56.23L244.22,-64.16L234.39,-85.42L200.02,-96.83L165.30,-89.20L149.51,-60.88L158.29,-37.64L179.57,-26.56L210.02,-17.34L224.24,-9.56L227.66,2.12L217.52,16.27L198.40,19.45L175.73,11.10Z" fill="#ffffff" stroke="#000000"/>
    <path d="M-871.87,-237.83L-913.70,-260.26L-925.13,-311.73L-908.31,-361.94L-865.59,-380.64L-832.61,-367.80L-818.03,-337.57L-797.49,-346.84L-816.91,-382.65L-864.74,-399.99L-926.18,-376.05L-949.33,-312.77L-931.82,-247.72L-872.72,-218.48L-823.65,-231.81L-801.59,-264.58L-820.72,-276.32L-839.52,-247.59ZM-752.55,-218.54L-745.03,-389.38L-766.38,-390.32L-773.90,-219.48ZM-699.16,-360.48L-691.07,-368.59L-690.52,-380.65L-698.01,-389.65L-708.98,-390.13L-717.02,-381.84L-717.55,-369.79L-710.13,-360.97ZM-700.35,-216.25L-694.92,-339.63L-716.27,-340.57L-721.70,-217.19ZM-670.61,-214.94L-649.21,-214.00L-646.40,-277.82L-639.18,-309.18L-613.35,-322.44L-597.01,-314.02L-592.46,-292.35L-596.01,-211.66L-574.66,-210.72L-571.52,-282.13L-562.70,-308.78L-538.57,-319.15L-520.88,-308.64L-517.76,-286.65L-521.21,-208.36L-499.85,-207.42L-496.07,-293.32L-504.24,-324.92L-533.16,-337.35L-555.66,-332.98L-573.40,-315.02L-585.08,-333.54L-607.29,-340.50L-629.91,-336.64L-646.69,-319.91L-645.92,-337.47L-665.13,-338.32ZM-391.48,-285.56L-462.00,-267.28L-477.45,-238.41L-465.98,-209.83L-436.25,-199.74L-413.97,-203.06L-393.07,-217.02L-393.79,-202.76L-373.86,-201.88L-370.33,-281.47L-379.97,-318.19L-416.35,-332.24L-449.92,-325.59L-467.13,-302.23L-450.65,-291.07L-438.95,-309.34L-419.29,-314.90L-398.79,-307.92ZM-392.31,-266.68L-393.70,-235.45L-409.38,-222.89L-432.07,-217.00L-447.97,-221.88L-454.65,-238.36L-444.39,-254.70ZM-288.81,-196.48L-288.80,-196.48L-290.45,-215.00L-300.08,-213.98L-310.14,-219.65L-311.30,-235.26L-308.17,-306.21L-287.06,-305.28L-286.34,-321.65L-307.45,-322.58L-305.57,-365.29L-326.93,-366.23L-328.81,-323.52L-346.37,-324.29L-347.09,-307.92L-329.53,-307.15L-332.65,-236.20L-329.09,-206.20L-305.23,-194.92ZM-237.71,-219.40L-248.72,-252.70L-157.13,-248.69L-155.57,-257.18L-167.71,-303.00L-209.71,-323.24L-252.35,-307.42L-270.23,-259.22L-256.65,-209.64L-215.56,-190.14L-179.85,-199.00L-162.51,-223.72L-178.68,-234.83L-192.55,-214.29L-213.55,-208.24ZM-247.25,-269.77L-232.61,-297.42L-210.52,-305.12L-186.77,-293.77L-178.21,-266.73ZM-132.08,-191.24L-75.38,-188.75L-12.04,-207.68L11.36,-271.01L-7.72,-336.34L-70.94,-359.72L-124.57,-362.08ZM-108.67,-210.18L-102.91,-340.92L-71.83,-339.55L-27.09,-324.45L-12.34,-272.27L-29.58,-222.21L-76.87,-208.78ZM59.59,-206.32L48.58,-239.61L140.17,-235.60L141.73,-244.09L129.59,-289.91L87.59,-310.16L44.95,-294.34L27.07,-246.14L40.65,-196.56L81.74,-177.05L117.45,-185.91L134.79,-210.64L118.62,-221.75L104.75,-201.21L83.75,-195.16ZM50.04,-256.69L64.69,-284.34L86.78,-292.04L110.53,-280.68L119.09,-253.65ZM176.25,-215.97L157.74,-208.29L168.75,-183.55L204.85,-171.51L240.11,-178.66L257.38,-207.51L248.90,-233.25L228.59,-244.84L200.17,-253.88L184.46,-260.99L179.65,-271.08L187.05,-282.95L207.38,-286.53L226.48,-280.40L234.10,-264.34L252.44,-272.02L242.90,-293.14L208.99,-304.73L174.57,-297.49L158.70,-269.60L167.19,-246.52L188.15,-235.37L218.20,-225.99L232.20,-218.16L235.49,-206.57L225.32,-192.66L206.37,-189.68L184.02,-198.14ZM301.17,-316.46L309.26,-324.57L309.81,-336.64L302.32,-345.63L291.35,-346.11L283.31,-337.83L282.78,-325.77L290.20,-316.95ZM299.99,-172.23L305.42,-295.61L284.06,-296.55L278.63,-173.17ZM375.04,-117.21L420.06,-133.81L432.50,-174.48L437.58,-289.79L418.59,-290.63L417.86,-274.02L404.58,-290.40L383.22,-297.52L342.34,-280.71L326.33,-233.35L338.12,-184.75L377.36,-164.42L396.67,-168.13L411.37,-180.40L410.91,-171.35L402.14,-144.07L376.36,-135.59L356.84,-142.03L349.81,-159.10L332.38,-152.02L342.14,-128.84ZM383.63,-279.31L406.67,-266.04L416.13,-229.37L404.39,-193.65L379.37,-182.51L356.06,-195.77L348.12,-232.37L359.24,-268.13ZM462.64,-165.07L483.99,-164.13L486.95,-231.28L497.60,-262.57L522.22,-272.47L541.82,-262.34L546.52,-237.22L543.19,-161.53L564.54,-160.59L567.87,-236.28L561.45,-274.26L527.38,-290.68L504.09,-286.61L486.51,-269.81L487.29,-287.61L468.07,-288.45ZM621.92,-181.58L610.91,-214.87L702.50,-210.86L704.06,-219.35L691.92,-265.17L649.92,-285.41L607.28,-269.59L589.40,-221.40L602.98,-171.82L644.07,-152.31L679.78,-161.17L697.12,-185.90L680.95,-197.01L667.08,-176.47L646.08,-170.42ZM612.38,-231.94L627.02,-259.59L649.11,-267.29L672.86,-255.94L681.42,-228.90ZM781.02,-258.84L796.82,-252.83L804.02,-270.58L783.47,-279.41L762.80,-273.99L747.70,-254.75L748.64,-276.11L729.42,-276.95L724.04,-154.78L745.34,-152.63L748.28,-219.30L757.39,-248.71ZM-196.49,-5.56L-193.79,-66.78L-265.95,-69.96L-266.82,-50.11L-216.45,-47.90L-217.72,-17.19L-266.48,2.74L-311.25,-20.11L-325.31,-71.38L-307.52,-121.55L-263.83,-140.21L-233.35,-130.34L-216.13,-99.79L-196.49,-110.80L-215.08,-144.03L-262.49,-159.54L-325.12,-135.65L-349.49,-72.42L-329.57,-7.26L-268.06,22.08ZM-111.64,-104.88L-154.90,-89.08L-173.37,-40.91L-159.19,8.69L-117.50,28.23L-74.24,12.42L-55.75,-35.74L-69.92,-85.34ZM-116.70,10.09L-141.88,-2.35L-151.58,-39.93L-138.61,-76.53L-112.44,-86.72L-87.24,-74.27L-77.52,-36.68L-90.50,-0.09ZM43.06,-52.48L-27.46,-34.20L-42.92,-5.33L-31.44,23.25L-1.71,33.34L20.57,30.02L41.46,16.05L40.74,30.32L60.67,31.20L64.21,-48.39L54.57,-85.11L18.19,-99.17L-15.39,-92.52L-32.59,-69.15L-16.11,-57.99L-4.42,-76.26L15.24,-81.83L35.74,-74.84ZM42.23,-33.61L40.84,-2.37L25.16,10.19L2.46,16.08L-13.43,11.20L-20.11,-5.28L-9.85,-21.63ZM114.77,33.58L122.29,-137.26L100.94,-138.20L93.42,32.64ZM160.21,-2.72L141.70,4.96L152.71,29.70L188.81,41.75L224.07,34.59L241.34,5.74L232.86,-20.00L212.55,-31.59L184.13,-40.63L168.42,-47.74L163.61,-57.83L171.01,-69.69L191.34,-73.28L210.44,-67.15L218.06,-51.09L236.40,-58.77L226.86,-79.89L192.95,-91.48L158.53,-84.24L142.66,-56.34L151.15,-33.27L172.11,-22.12L202.16,-12.74L216.16,-4.91L219.44,6.68L209.28,20.59L190.33,23.57L167.98,15.11Z" fill="#ffffff" stroke="#000000"/>
    <path d="M-866.37,-240.39L-907.56,-262.94L-918.43,-313.97L-901.34,-363.50L-858.91,-381.64L-826.39,-368.64L-812.23,-338.60L-791.83,-347.60L-810.73,-383.20L-857.90,-400.78L-918.90,-377.62L-942.36,-315.21L-925.60,-250.70L-867.38,-221.25L-818.71,-234.01L-796.60,-266.24L-815.43,-278.03L-834.28,-249.76ZM-748.47,-220.27L-739.55,-389.23L-760.67,-390.35L-769.59,-221.38ZM-694.42,-360.24L-686.34,-368.19L-685.70,-380.12L-693.03,-389.09L-703.87,-389.66L-711.90,-381.53L-712.54,-369.61L-705.27,-360.81ZM-696.85,-217.54L-690.40,-339.57L-711.52,-340.68L-717.97,-218.65ZM-667.44,-215.98L-646.27,-214.87L-642.93,-277.99L-635.52,-308.96L-609.85,-321.85L-593.75,-313.38L-589.44,-291.90L-593.66,-212.09L-572.54,-210.97L-568.80,-281.61L-559.84,-307.90L-535.89,-317.94L-518.48,-307.40L-515.58,-285.61L-519.67,-208.18L-498.55,-207.06L-494.06,-292.02L-501.87,-323.36L-530.37,-335.90L-552.68,-331.78L-570.38,-314.17L-581.77,-332.59L-603.70,-339.67L-626.11,-336.05L-642.85,-319.64L-641.94,-337.01L-660.94,-338.01ZM-390.64,-283.43L-460.57,-265.96L-476.11,-237.53L-465.01,-209.15L-435.68,-198.90L-413.61,-202.00L-392.81,-215.63L-393.65,-201.52L-373.94,-200.48L-369.75,-279.20L-378.97,-315.61L-414.84,-329.84L-448.12,-323.55L-465.34,-300.58L-449.14,-289.40L-437.40,-307.37L-417.90,-312.71L-397.68,-305.61ZM-391.62,-264.76L-393.27,-233.87L-408.89,-221.58L-431.40,-215.95L-447.09,-220.91L-453.55,-237.27L-443.25,-253.36ZM-289.83,-194.40L-289.82,-194.40L-291.30,-212.73L-300.83,-211.82L-310.73,-217.51L-311.74,-232.97L-308.03,-303.13L-287.15,-302.03L-286.29,-318.22L-307.18,-319.33L-304.95,-361.57L-326.07,-362.68L-328.30,-320.44L-345.67,-321.36L-346.52,-305.17L-329.16,-304.25L-332.86,-234.08L-329.60,-204.36L-306.09,-193.00ZM-239.07,-216.64L-249.67,-249.67L-159.09,-244.91L-157.47,-253.29L-169.08,-298.74L-210.46,-319.13L-252.79,-303.85L-270.90,-256.32L-257.90,-207.14L-217.41,-187.48L-182.00,-195.94L-164.63,-220.25L-180.53,-231.39L-194.43,-211.19L-215.27,-205.38ZM-248.08,-266.55L-233.35,-293.78L-211.43,-301.21L-188.02,-289.77L-179.79,-262.94ZM-134.80,-187.85L-78.72,-184.89L-15.88,-203.07L7.82,-265.53L-10.49,-330.34L-72.84,-354.01L-125.88,-356.82ZM-111.47,-206.39L-104.64,-335.69L-73.90,-334.07L-29.76,-318.74L-15.62,-266.99L-33.12,-217.60L-80.02,-204.73ZM54.97,-201.11L44.37,-234.14L134.96,-229.38L136.58,-237.76L124.96,-283.20L83.59,-303.60L41.26,-288.32L23.15,-240.79L36.15,-191.61L76.63,-171.95L112.04,-180.41L129.42,-204.72L113.52,-215.86L99.62,-195.65L78.78,-189.85ZM45.97,-251.02L60.70,-278.25L82.62,-285.68L106.03,-274.24L114.26,-247.41ZM170.49,-209.64L152.10,-202.20L162.79,-177.62L198.39,-165.39L233.34,-172.16L250.69,-200.56L242.52,-226.10L222.52,-237.75L194.48,-246.94L179.00,-254.11L174.33,-264.13L181.76,-275.81L201.90,-279.18L220.75,-272.95L228.15,-256.99L246.36,-264.43L237.11,-285.42L203.65,-297.17L169.53,-290.31L153.59,-262.85L161.78,-239.95L182.43,-228.73L212.08,-219.18L225.87,-211.32L229.01,-199.82L218.84,-186.15L200.06,-183.36L178.02,-191.93ZM294.96,-307.98L303.04,-315.93L303.69,-327.87L296.36,-336.83L285.51,-337.40L277.48,-329.27L276.85,-317.35L284.11,-308.56ZM292.53,-165.28L298.98,-287.31L277.86,-288.43L271.41,-166.40ZM366.32,-110.19L411.00,-126.22L423.67,-166.35L429.69,-280.41L410.92,-281.40L410.05,-264.97L397.05,-281.29L375.98,-288.53L335.39,-272.25L319.13,-225.52L330.38,-177.34L369.02,-156.88L388.16,-160.39L402.81,-172.40L402.28,-163.45L393.37,-136.53L367.78,-128.36L348.53,-134.90L341.72,-151.86L324.41,-145.01L333.87,-121.99ZM376.23,-270.50L398.91,-257.18L407.95,-220.81L396.02,-185.56L371.17,-174.76L348.22,-188.09L340.69,-224.36L352.00,-259.65ZM453.41,-156.78L474.53,-155.67L478.04,-222.08L488.85,-252.95L513.30,-262.53L532.60,-252.33L537.03,-227.44L533.07,-152.58L554.20,-151.46L558.15,-226.32L552.12,-263.96L518.56,-280.50L495.48,-276.68L477.93,-260.21L478.86,-277.81L459.85,-278.81ZM611.15,-171.73L600.55,-204.76L691.13,-200.00L692.75,-208.39L681.14,-253.83L639.76,-274.22L597.43,-258.94L579.32,-211.41L592.32,-162.24L632.81,-142.58L668.22,-151.03L685.59,-175.35L669.69,-186.48L655.79,-166.28L634.95,-160.48ZM602.14,-221.64L616.87,-248.88L638.79,-256.30L662.20,-244.86L670.43,-218.04ZM769.24,-246.79L784.82,-240.70L792.10,-258.20L771.84,-267.12L751.35,-261.94L736.23,-243.04L737.35,-264.16L718.34,-265.16L711.96,-144.32L733.02,-142.01L736.50,-207.96L745.77,-236.97ZM-200.14,-4.69L-196.95,-65.25L-268.31,-69.02L-269.35,-49.39L-219.53,-46.76L-221.05,-16.38L-269.47,2.91L-313.57,-20.09L-327.03,-70.94L-308.99,-120.42L-265.60,-138.50L-235.53,-128.48L-218.76,-98.10L-199.23,-108.82L-217.34,-141.86L-264.11,-157.62L-326.29,-134.53L-350.94,-72.18L-331.80,-7.54L-271.20,22.04ZM-115.33,-102.22L-158.27,-86.97L-176.97,-39.47L-163.37,9.73L-122.28,29.42L-79.34,14.16L-60.63,-33.33L-74.22,-82.53ZM-121.34,11.48L-146.14,-1.04L-155.41,-38.31L-142.26,-74.41L-116.28,-84.26L-91.45,-71.72L-82.16,-34.44L-95.33,1.64ZM37.28,-49.04L-32.65,-31.56L-48.20,-3.13L-37.09,25.25L-7.77,35.49L14.31,32.40L35.11,18.76L34.27,32.87L53.98,33.91L58.17,-44.80L48.95,-81.22L13.08,-95.44L-20.20,-89.15L-37.43,-66.18L-21.22,-55.00L-9.49,-72.98L10.01,-78.31L30.24,-71.22ZM36.29,-30.37L34.65,0.53L19.02,12.82L-3.48,18.45L-19.17,13.49L-25.63,-2.88L-15.34,-18.97ZM107.49,36.74L116.41,-132.22L95.29,-133.34L86.37,35.63ZM152.76,1.22L134.38,8.66L145.06,33.24L180.67,45.47L215.62,38.70L232.96,10.30L224.80,-15.24L204.80,-26.89L176.75,-36.08L161.27,-43.25L156.60,-53.28L164.03,-64.95L184.17,-68.32L203.02,-62.09L210.42,-46.13L228.64,-53.57L219.38,-74.56L185.93,-86.31L151.81,-79.45L135.86,-51.99L144.06,-29.09L164.70,-17.87L194.35,-8.33L208.14,-0.46L211.29,11.04L201.11,24.71L182.34,27.50L160.29,18.93Z" fill="#ffffff" stroke="#000000"/>
    <path d="M-860.77,-242.92L-901.33,-265.59L-911.63,-316.17L-894.30,-365.02L-852.16,-382.59L-820.10,-369.45L-806.35,-339.61L-786.09,-348.34L-804.48,-383.72L-851.00,-401.52L-911.54,-379.14L-935.30,-317.61L-919.28,-253.63L-861.94,-223.99L-813.68,-236.19L-791.52,-267.89L-810.05,-279.71L-828.94,-251.91ZM-744.31,-221.98L-734.01,-389.07L-754.89,-390.36L-765.19,-223.27ZM-689.61,-359.99L-681.55,-367.79L-680.81,-379.59L-687.98,-388.52L-698.71,-389.18L-706.72,-381.21L-707.45,-369.42L-700.34,-360.66ZM-693.25,-218.84L-685.82,-339.51L-706.70,-340.80L-714.14,-220.13ZM-664.17,-217.05L-643.24,-215.75L-639.39,-278.18L-631.79,-308.75L-606.28,-321.28L-590.42,-312.75L-586.35,-291.47L-591.21,-212.55L-570.33,-211.26L-566.02,-281.11L-556.93,-307.04L-533.14,-316.77L-516.01,-306.18L-513.33,-284.60L-518.05,-208.04L-497.16,-206.75L-491.99,-290.76L-499.44,-321.83L-527.53,-334.49L-549.63,-330.60L-567.30,-313.33L-578.41,-331.66L-600.04,-338.85L-622.24,-335.47L-638.95,-319.38L-637.89,-336.55L-656.69,-337.71ZM-389.74,-281.36L-459.08,-264.68L-474.71,-236.69L-463.97,-208.52L-435.04,-198.13L-413.18,-201.00L-392.48,-214.31L-393.43,-200.36L-373.94,-199.15L-369.11,-277.00L-377.92,-313.10L-413.28,-327.48L-446.26,-321.55L-463.50,-298.98L-447.56,-287.78L-435.80,-305.46L-416.46,-310.56L-396.52,-303.37ZM-390.88,-262.90L-392.78,-232.35L-408.34,-220.33L-430.66,-214.96L-446.13,-220.00L-452.39,-236.25L-442.06,-252.07ZM-290.78,-192.40L-290.78,-192.41L-292.08,-210.55L-301.51,-209.73L-311.26,-215.45L-312.13,-230.75L-307.85,-300.14L-287.20,-298.86L-286.21,-314.88L-306.86,-316.15L-304.29,-357.92L-325.17,-359.21L-327.75,-317.44L-344.92,-318.49L-345.91,-302.48L-328.73,-301.42L-333.01,-232.04L-330.04,-202.61L-306.88,-191.16ZM-240.38,-213.96L-250.58,-246.74L-161.00,-241.24L-159.33,-249.52L-170.42,-294.58L-211.18,-315.11L-253.19,-300.36L-271.52,-253.50L-259.08,-204.73L-219.20,-184.93L-184.10,-192.99L-166.69,-216.89L-182.33,-228.05L-196.26,-208.18L-216.92,-202.62ZM-248.85,-263.42L-234.04,-290.24L-212.29,-297.39L-189.23,-285.87L-181.32,-259.26ZM-137.47,-184.58L-82.01,-181.16L-19.69,-198.60L4.30,-260.18L-13.24,-324.46L-74.73,-348.43L-127.17,-351.66ZM-114.22,-202.71L-106.34,-330.58L-75.94,-328.70L-32.41,-313.16L-18.87,-261.83L-36.61,-213.12L-83.13,-200.79ZM50.40,-196.04L40.19,-228.81L129.77,-223.31L131.45,-231.59L120.35,-276.65L79.59,-297.19L37.58,-282.44L19.25,-235.57L31.69,-186.81L71.57,-167.01L106.67,-175.07L124.08,-198.97L108.44,-210.12L94.52,-190.26L73.85,-184.70ZM41.92,-245.50L56.73,-272.31L78.48,-279.47L101.54,-267.95L109.45,-241.34ZM164.75,-203.47L146.50,-196.27L156.85,-171.87L191.97,-159.46L226.61,-165.85L244.02,-193.79L236.16,-219.13L216.47,-230.83L188.81,-240.17L173.56,-247.40L169.03,-257.36L176.47,-268.84L196.43,-272.00L215.03,-265.67L222.21,-249.82L240.29,-257.02L231.32,-277.86L198.32,-289.78L164.51,-283.29L148.49,-256.26L156.40,-233.54L176.73,-222.26L205.98,-212.56L219.55,-204.66L222.57,-193.25L212.38,-179.81L193.78,-177.22L172.05,-185.89ZM288.75,-299.69L296.81,-307.48L297.55,-319.28L290.38,-328.21L279.65,-328.88L271.64,-320.90L270.91,-309.11L278.02,-300.35ZM285.11,-158.53L292.55,-279.20L271.66,-280.49L264.22,-159.82ZM357.63,-103.38L401.97,-118.86L414.85,-158.45L421.80,-271.23L403.24,-272.38L402.24,-256.13L389.52,-272.39L368.73,-279.73L328.44,-263.98L311.95,-217.90L322.65,-170.13L360.71,-149.55L379.67,-152.85L394.27,-164.61L393.66,-155.76L384.61,-129.21L359.23,-121.35L340.24,-127.99L333.65,-144.82L316.47,-138.19L325.63,-115.34ZM368.82,-261.90L391.15,-248.52L399.77,-212.46L387.67,-177.69L362.99,-167.22L340.40,-180.61L333.26,-216.56L344.76,-251.38ZM444.19,-148.72L465.08,-147.44L469.12,-213.11L480.09,-243.56L504.36,-252.82L523.37,-242.56L527.53,-217.89L522.97,-143.87L543.86,-142.58L548.42,-216.61L542.78,-253.90L509.72,-270.55L486.86,-266.97L469.35,-250.83L470.43,-268.23L451.63,-269.39ZM600.38,-162.14L590.18,-194.91L679.75,-189.41L681.43,-197.69L670.33,-242.75L629.58,-263.29L587.56,-248.53L569.24,-201.67L581.67,-152.91L621.55,-133.11L656.66,-141.16L674.06,-165.07L658.42,-176.22L644.50,-156.36L623.83,-150.80ZM591.90,-211.60L606.71,-238.41L628.46,-245.57L651.52,-234.04L659.43,-207.43ZM757.44,-235.02L772.80,-228.86L780.15,-246.11L760.19,-255.11L739.87,-250.16L724.75,-231.59L726.03,-252.48L707.24,-253.64L699.87,-134.15L720.68,-131.68L724.70,-196.89L734.13,-225.51ZM-203.71,-3.94L-200.02,-63.82L-270.59,-68.17L-271.78,-48.76L-222.52,-45.72L-224.29,-15.69L-272.36,2.98L-315.79,-20.16L-328.66,-70.58L-310.38,-119.38L-267.30,-136.89L-237.64,-126.72L-221.31,-96.52L-201.89,-106.95L-219.52,-139.79L-265.66,-155.79L-327.38,-133.49L-352.31,-72.02L-333.94,-7.90L-274.24,21.88ZM-118.95,-99.69L-161.56,-84.98L-180.47,-38.15L-167.45,10.65L-126.98,30.49L-84.36,15.76L-65.43,-31.06L-78.45,-79.85ZM-125.88,12.74L-150.31,0.14L-159.16,-36.81L-145.83,-72.41L-120.05,-81.93L-95.59,-69.31L-86.73,-32.35L-100.07,3.23ZM31.57,-45.75L-37.77,-29.07L-53.40,-1.07L-42.66,27.10L-13.73,37.49L8.13,34.62L28.83,21.31L27.88,35.26L47.37,36.46L52.20,-41.38L43.39,-77.48L8.03,-91.87L-24.95,-85.94L-42.19,-63.36L-26.26,-52.16L-14.49,-69.84L4.85,-74.95L24.79,-67.75ZM30.43,-27.28L28.53,3.26L12.97,15.29L-9.35,20.66L-24.82,15.62L-31.08,-0.63L-20.75,-16.46ZM100.28,39.72L110.58,-127.36L89.69,-128.65L79.39,38.44ZM145.38,4.98L127.12,12.18L137.48,36.59L172.60,48.99L207.24,42.60L224.64,14.66L216.79,-10.68L197.10,-22.38L169.44,-31.72L154.19,-38.95L149.65,-48.90L157.10,-60.39L177.06,-63.55L195.66,-57.22L202.84,-41.36L220.92,-48.57L211.95,-69.41L178.95,-81.33L145.14,-74.84L129.12,-47.81L137.03,-25.08L157.35,-13.80L186.61,-4.10L200.18,3.80L203.19,15.20L193.01,28.64L174.41,31.24L152.67,22.57Z" fill="#ffffff" stroke="#000000"/>
    <path d="M-855.07,-245.42L-894.99,-268.20L-904.74,-318.32L-887.17,-366.50L-845.34,-383.51L-813.74,-370.24L-800.40,-340.60L-780.28,-349.05L-798.16,-384.21L-844.02,-402.23L-904.11,-380.62L-928.14,-319.95L-912.85,-256.53L-856.39,-226.71L-808.54,-238.36L-786.35,-269.52L-804.57,-281.38L-823.50,-254.04ZM-740.04,-223.70L-728.40,-388.89L-749.05,-390.35L-760.69,-225.16ZM-684.74,-359.74L-676.70,-367.39L-675.86,-379.05L-682.88,-387.95L-693.48,-388.70L-701.48,-380.88L-702.31,-369.22L-695.35,-360.49ZM-689.57,-220.14L-681.16,-339.45L-701.81,-340.90L-710.22,-221.60ZM-660.82,-218.12L-640.12,-216.66L-635.77,-278.37L-627.98,-308.55L-602.64,-320.72L-587.03,-312.15L-583.19,-291.07L-588.69,-213.03L-568.04,-211.58L-563.17,-280.64L-553.95,-306.21L-530.33,-315.63L-513.48,-305.00L-511.01,-283.63L-516.35,-207.93L-495.70,-206.48L-489.85,-289.53L-496.95,-320.34L-524.63,-333.11L-546.52,-329.45L-564.15,-312.52L-574.98,-330.75L-596.31,-338.05L-618.31,-334.90L-634.98,-319.13L-633.78,-336.11L-652.36,-337.42ZM-388.79,-279.35L-457.52,-263.46L-473.22,-235.90L-462.85,-207.94L-434.33,-197.41L-412.67,-200.06L-392.08,-213.04L-393.14,-199.25L-373.87,-197.89L-368.42,-274.85L-376.82,-310.64L-411.67,-325.18L-444.34,-319.60L-461.60,-297.42L-445.93,-286.20L-434.14,-303.59L-414.97,-308.47L-395.30,-301.18ZM-390.07,-261.10L-392.22,-230.90L-407.72,-219.14L-429.84,-214.02L-445.10,-219.14L-451.15,-235.27L-440.80,-250.83ZM-291.67,-190.49L-291.67,-190.50L-292.79,-208.46L-302.14,-207.73L-311.73,-213.47L-312.45,-228.61L-307.62,-297.21L-287.20,-295.77L-286.08,-311.60L-306.50,-313.04L-303.59,-354.34L-324.24,-355.79L-327.15,-314.50L-344.13,-315.69L-345.24,-299.86L-328.27,-298.67L-333.10,-230.07L-330.42,-200.93L-307.61,-189.40ZM-241.62,-211.38L-251.43,-243.89L-162.86,-237.67L-161.14,-245.85L-171.72,-290.51L-211.86,-311.19L-253.54,-296.96L-272.08,-250.76L-260.21,-202.41L-220.93,-182.48L-186.13,-190.14L-168.71,-213.64L-184.08,-224.81L-198.03,-205.28L-218.52,-199.96ZM-249.57,-260.38L-234.69,-286.78L-213.11,-293.67L-190.40,-282.07L-182.81,-255.67ZM-140.08,-181.42L-85.25,-177.55L-23.45,-194.26L0.82,-254.97L-15.98,-318.71L-76.59,-342.95L-128.44,-346.61ZM-116.93,-199.15L-108.02,-325.57L-77.96,-323.45L-35.03,-307.69L-22.09,-256.80L-40.06,-208.77L-86.18,-196.99ZM45.86,-191.12L36.05,-223.63L124.61,-217.41L126.34,-225.59L115.76,-270.25L75.62,-290.93L33.93,-276.70L15.40,-230.50L27.27,-182.15L66.55,-162.22L101.35,-169.88L118.77,-193.38L103.40,-204.55L89.45,-185.02L68.96,-179.70ZM37.90,-240.12L52.79,-266.51L74.37,-273.40L97.08,-261.81L104.67,-235.41ZM159.04,-197.48L140.92,-190.52L150.96,-166.28L185.59,-153.70L219.91,-159.72L237.37,-187.21L229.82,-212.35L210.45,-224.09L183.16,-233.57L168.14,-240.86L163.74,-250.74L171.21,-262.04L190.98,-264.99L209.32,-258.57L216.29,-242.82L234.23,-249.79L225.54,-270.49L193.00,-282.57L159.50,-276.44L143.42,-249.84L151.05,-227.29L171.05,-215.96L199.90,-206.11L213.26,-198.17L216.15,-186.87L205.95,-173.66L187.53,-171.25L166.11,-180.02ZM282.54,-291.57L290.58,-299.22L291.42,-310.88L284.40,-319.78L273.80,-320.53L265.80,-312.71L264.98,-301.05L271.94,-292.32ZM277.71,-151.97L286.12,-271.28L265.47,-272.73L257.06,-153.43ZM348.97,-96.79L392.97,-111.71L406.05,-150.77L413.91,-262.27L395.56,-263.56L394.43,-247.50L381.98,-263.70L361.49,-271.14L321.49,-255.91L304.78,-210.47L314.95,-163.12L352.42,-142.43L371.20,-145.54L385.74,-157.04L385.07,-148.29L375.89,-122.10L350.71,-114.55L331.98,-121.28L325.61,-137.99L308.55,-131.58L317.42,-108.90ZM361.42,-253.50L383.39,-240.07L391.61,-204.33L379.33,-170.04L354.82,-159.89L332.60,-173.33L325.85,-208.96L337.53,-243.30ZM434.99,-140.89L455.64,-139.43L460.22,-204.36L471.33,-234.39L495.42,-243.33L514.13,-233.02L518.04,-208.59L512.88,-135.40L533.53,-133.94L538.68,-207.13L533.43,-244.07L500.87,-260.83L478.23,-257.49L460.77,-241.67L461.98,-258.88L443.40,-260.19ZM589.61,-152.80L579.80,-185.31L668.36,-179.09L670.09,-187.26L659.51,-231.93L619.37,-252.60L577.69,-238.38L559.15,-192.18L571.02,-143.83L610.30,-123.90L645.10,-131.56L662.52,-155.06L647.15,-166.23L633.20,-146.70L612.71,-141.38ZM581.66,-201.80L596.54,-228.19L618.12,-235.08L640.83,-223.48L648.42,-197.09ZM745.61,-223.53L760.75,-217.31L768.17,-234.31L748.50,-243.38L728.36,-238.66L713.24,-220.42L714.70,-241.07L696.11,-242.38L687.79,-124.24L708.35,-121.62L712.90,-186.09L722.47,-214.33ZM-207.18,-3.31L-203.00,-62.51L-272.77,-67.43L-274.13,-48.24L-225.42,-44.80L-227.43,-15.11L-275.15,2.94L-317.91,-20.33L-330.20,-70.32L-311.70,-118.43L-268.93,-135.38L-239.67,-125.05L-223.79,-95.04L-204.49,-105.19L-221.64,-137.83L-267.14,-154.06L-328.38,-132.53L-353.58,-71.94L-335.97,-8.36L-277.17,21.63ZM-122.50,-97.29L-164.78,-83.10L-183.90,-36.94L-171.43,11.44L-131.57,31.42L-89.29,17.22L-70.16,-28.93L-82.61,-77.31ZM-130.33,13.88L-154.39,1.19L-162.82,-35.44L-149.33,-70.53L-123.74,-79.73L-99.66,-67.03L-91.21,-30.39L-104.71,4.69ZM25.92,-42.61L-42.81,-26.72L-58.51,0.84L-48.13,28.80L-19.61,39.33L2.04,36.68L22.63,23.70L21.57,37.49L40.84,38.85L46.29,-38.11L37.90,-73.90L3.04,-88.44L-29.63,-82.86L-46.88,-60.68L-31.22,-49.46L-19.43,-66.85L-0.25,-71.73L19.41,-64.44ZM24.64,-24.36L22.50,5.84L7.00,17.60L-15.13,22.72L-30.39,17.60L-36.44,1.47L-26.08,-14.09ZM93.15,42.53L104.79,-122.66L84.14,-124.11L72.50,41.08ZM138.07,8.55L119.95,15.52L129.98,39.75L164.61,52.33L198.93,46.31L216.39,18.82L208.84,-6.31L189.47,-18.06L162.19,-27.54L147.16,-34.82L142.76,-44.71L150.23,-56.01L170.00,-58.95L188.34,-52.54L195.31,-36.79L213.26,-43.76L204.56,-64.45L172.03,-76.53L138.52,-70.40L122.44,-43.81L130.07,-21.25L150.08,-9.92L178.93,-0.07L192.29,7.86L195.17,19.17L184.98,32.37L166.56,34.78L145.13,26.02Z" fill="#ffffff" stroke="#000000"/>
    <path d="M-849.27,-247.89L-888.55,-270.77L-897.76,-320.43L-879.96,-367.93L-838.44,-384.39L-807.30,-370.99L-794.36,-341.56L-774.39,-349.74L-791.77,-384.67L-836.97,-402.89L-896.60,-382.04L-920.89,-322.24L-906.32,-259.38L-850.73,-229.40L-803.31,-240.50L-781.09,-271.13L-799.01,-283.02L-817.97,-256.14ZM-735.69,-225.41L-722.73,-388.70L-743.14,-390.31L-756.10,-227.03ZM-679.80,-359.49L-671.78,-366.98L-670.85,-378.51L-677.71,-387.37L-688.20,-388.20L-696.17,-380.54L-697.09,-369.02L-690.28,-360.32ZM-685.79,-221.45L-676.44,-339.38L-696.85,-341.00L-706.20,-223.07ZM-657.37,-219.20L-636.91,-217.57L-632.08,-278.58L-624.11,-308.35L-598.94,-320.18L-583.57,-311.56L-579.95,-290.67L-586.07,-213.54L-565.66,-211.92L-560.24,-280.18L-550.90,-305.40L-527.46,-314.51L-510.88,-303.85L-508.63,-282.69L-514.57,-207.87L-494.16,-206.25L-487.64,-288.35L-494.40,-318.88L-521.67,-331.75L-543.36,-328.32L-560.94,-311.73L-571.49,-329.85L-592.53,-337.26L-614.31,-334.33L-630.93,-318.88L-629.60,-335.66L-647.97,-337.12ZM-387.78,-277.40L-455.90,-262.27L-471.67,-235.16L-461.65,-207.41L-433.53,-196.75L-412.09,-199.18L-391.61,-211.84L-392.78,-198.21L-373.73,-196.70L-367.67,-272.77L-375.66,-308.24L-410.01,-322.93L-442.38,-317.69L-459.63,-295.90L-444.24,-284.67L-432.42,-301.76L-413.42,-306.43L-394.03,-299.05ZM-389.21,-259.36L-391.59,-229.50L-407.02,-218.00L-428.95,-213.13L-444.00,-218.34L-449.84,-234.34L-439.46,-249.64ZM-292.49,-188.66L-292.49,-188.67L-293.44,-206.44L-302.69,-205.80L-312.13,-211.56L-312.71,-226.55L-307.33,-294.36L-287.15,-292.75L-285.91,-308.40L-306.09,-310.00L-302.86,-350.83L-323.27,-352.44L-326.50,-311.62L-343.29,-312.95L-344.53,-297.31L-327.75,-295.97L-333.12,-228.17L-330.73,-199.32L-308.26,-187.72ZM-242.80,-208.89L-252.22,-241.13L-164.68,-234.20L-162.90,-242.28L-172.98,-286.55L-212.50,-307.35L-253.85,-293.63L-272.59,-248.10L-261.26,-200.18L-222.59,-180.12L-188.11,-187.40L-170.67,-210.49L-185.77,-221.67L-199.74,-202.47L-220.05,-197.39ZM-250.24,-257.42L-235.29,-283.40L-213.89,-290.03L-191.53,-278.36L-184.25,-252.19ZM-142.64,-178.37L-88.43,-174.07L-27.16,-190.06L-2.63,-249.89L-18.69,-313.08L-78.43,-337.59L-129.68,-341.65ZM-119.58,-195.71L-109.67,-320.67L-79.96,-318.31L-37.63,-302.35L-25.28,-251.90L-43.47,-204.56L-89.19,-193.30ZM41.36,-186.35L31.94,-218.59L119.49,-211.66L121.27,-219.74L111.19,-264.01L71.67,-284.81L30.31,-271.09L11.57,-225.56L22.90,-177.64L61.58,-157.58L96.06,-164.86L113.50,-187.95L98.39,-199.13L84.43,-179.93L64.11,-174.85ZM33.92,-234.88L48.87,-260.86L70.27,-267.49L92.64,-255.82L99.92,-229.65ZM153.37,-191.65L135.38,-184.92L145.10,-160.87L179.24,-148.12L213.24,-153.78L230.75,-180.82L223.50,-205.74L204.44,-217.53L177.54,-227.14L162.74,-234.48L158.48,-244.29L165.96,-255.40L185.54,-258.15L203.63,-251.64L210.38,-236.00L228.19,-242.74L219.77,-263.29L187.70,-275.52L154.50,-269.74L138.37,-243.58L145.72,-221.21L165.41,-209.82L193.86,-199.83L207.00,-191.86L209.75,-180.66L199.56,-167.68L181.32,-165.47L160.20,-174.32ZM276.34,-283.65L284.36,-291.14L285.29,-302.67L278.42,-311.53L267.94,-312.36L259.96,-304.70L259.05,-293.18L265.85,-284.48ZM270.35,-145.61L279.70,-263.54L259.29,-265.16L249.93,-147.23ZM340.34,-90.41L383.99,-104.78L397.28,-143.30L406.02,-253.52L387.88,-254.96L386.62,-239.08L374.45,-255.21L354.24,-262.75L314.55,-248.03L297.62,-203.23L307.27,-156.32L344.15,-135.53L362.76,-138.43L377.24,-149.68L376.50,-141.03L367.19,-115.21L342.22,-107.96L323.76,-114.78L317.60,-131.36L300.67,-125.17L309.24,-102.66ZM354.03,-245.30L375.64,-231.82L383.45,-196.40L371.01,-162.59L346.69,-152.77L324.82,-166.26L318.45,-201.56L330.30,-235.42ZM425.81,-133.28L446.22,-131.66L451.31,-195.84L462.57,-225.44L486.47,-234.08L504.89,-223.72L508.54,-199.52L502.80,-127.17L523.21,-125.55L528.95,-197.90L524.08,-234.48L492.02,-251.34L469.59,-248.23L452.19,-232.74L453.54,-249.75L435.17,-251.21ZM578.85,-143.71L569.43,-175.95L656.97,-169.03L658.75,-177.10L648.67,-221.38L609.15,-242.17L567.80,-228.46L549.06,-182.93L560.39,-135.01L599.06,-114.95L633.55,-122.23L650.98,-145.31L635.88,-156.49L621.91,-137.30L601.60,-132.21ZM571.41,-192.25L586.36,-218.23L607.76,-224.85L630.12,-213.18L637.40,-187.01ZM733.76,-212.32L748.68,-206.03L756.17,-222.78L736.80,-231.93L716.83,-227.43L701.72,-209.52L703.34,-229.94L684.97,-231.39L675.71,-114.62L696.03,-111.84L701.08,-175.57L710.80,-203.41ZM-210.55,-2.78L-205.90,-61.30L-274.87,-66.77L-276.38,-47.80L-228.23,-43.98L-230.48,-14.63L-277.83,2.81L-319.92,-20.58L-331.65,-70.13L-312.92,-117.56L-270.47,-133.95L-241.63,-123.48L-226.18,-93.66L-207.00,-103.53L-223.68,-135.96L-268.54,-152.41L-329.31,-131.65L-354.76,-71.95L-337.89,-8.90L-279.99,21.27ZM-125.98,-95.00L-167.92,-81.34L-187.23,-35.85L-175.32,12.12L-136.07,32.22L-94.12,18.55L-74.80,-26.93L-86.70,-74.90ZM-134.69,14.88L-158.38,2.13L-166.40,-34.18L-152.75,-68.77L-127.35,-77.64L-103.65,-64.88L-95.61,-28.56L-109.27,6.02ZM20.35,-39.63L-47.77,-24.51L-63.54,2.61L-53.52,30.36L-25.40,41.02L-3.96,38.59L16.52,25.92L15.35,39.56L34.40,41.07L40.46,-35.00L32.47,-70.48L-1.88,-85.16L-34.25,-79.93L-51.50,-58.14L-36.11,-46.90L-24.29,-64.00L-5.29,-68.66L14.10,-61.28ZM18.92,-21.59L16.54,8.26L1.11,19.76L-20.82,24.63L-35.87,19.43L-41.71,3.43L-31.33,-11.88ZM86.11,45.17L99.06,-118.12L78.65,-119.74L65.69,43.55ZM130.83,11.95L112.84,18.68L122.56,42.74L156.70,55.48L190.70,49.83L208.21,22.79L200.96,-2.14L181.90,-13.92L155.00,-23.54L140.20,-30.87L135.94,-40.69L143.42,-51.80L163.00,-54.54L181.09,-48.03L187.84,-32.40L205.65,-39.13L197.23,-59.68L165.16,-71.91L131.96,-66.14L115.83,-39.97L123.18,-17.60L142.87,-6.22L171.32,3.78L184.46,11.74L187.21,22.95L177.02,35.92L158.78,38.14L137.66,29.28Z" fill="#ffffff" stroke="#000000"/>
    <path d="M-843.36,-250.33L-882.01,-273.30L-890.69,-322.49L-872.68,-369.31L-831.47,-385.23L-800.79,-371.70L-788.25,-342.48L-768.42,-350.41L-785.31,-385.10L-829.86,-403.51L-889.00,-383.41L-913.55,-324.49L-899.69,-262.19L-844.97,-232.05L-797.97,-242.62L-775.73,-272.72L-793.35,-284.63L-812.34,-258.22ZM-731.23,-227.11L-717.00,-388.48L-737.17,-390.26L-751.40,-228.88ZM-674.79,-359.22L-666.80,-366.56L-665.78,-377.95L-672.49,-386.78L-682.85,-387.69L-690.80,-380.18L-691.81,-368.80L-685.15,-360.14ZM-681.92,-222.76L-671.64,-339.31L-691.81,-341.08L-702.09,-224.54ZM-653.83,-220.28L-633.61,-218.50L-628.30,-278.79L-620.16,-308.17L-595.16,-319.64L-580.04,-310.99L-576.64,-290.30L-583.37,-214.07L-563.19,-212.29L-557.25,-279.75L-547.79,-304.61L-524.52,-313.41L-508.22,-302.73L-506.18,-281.78L-512.70,-207.84L-492.53,-206.06L-485.37,-287.19L-491.79,-317.45L-518.64,-330.41L-540.12,-327.22L-557.66,-310.96L-567.94,-328.97L-588.68,-336.48L-610.24,-333.77L-626.82,-318.64L-625.35,-335.22L-643.51,-336.83ZM-386.70,-275.50L-454.21,-261.13L-470.04,-234.45L-460.37,-206.92L-432.65,-196.13L-411.43,-198.35L-391.07,-210.70L-392.34,-197.22L-373.52,-195.56L-366.86,-270.75L-374.45,-305.90L-408.30,-320.72L-440.35,-315.82L-457.61,-294.42L-442.48,-283.18L-430.65,-299.98L-411.81,-304.43L-392.70,-296.96ZM-388.28,-257.67L-390.89,-228.16L-406.25,-216.92L-427.98,-212.30L-442.82,-217.58L-448.46,-233.45L-438.06,-248.50ZM-293.24,-186.91L-293.24,-186.91L-294.03,-204.50L-303.18,-203.95L-312.47,-209.73L-312.91,-224.55L-307.00,-291.57L-287.05,-289.81L-285.69,-305.27L-305.64,-307.03L-302.08,-347.38L-322.25,-349.15L-325.81,-308.81L-342.40,-310.27L-343.76,-294.81L-327.17,-293.35L-333.08,-226.33L-330.96,-197.78L-308.85,-186.12ZM-243.93,-206.48L-252.96,-238.45L-166.44,-230.84L-164.61,-238.81L-174.19,-282.68L-213.10,-303.59L-254.11,-290.39L-273.04,-245.52L-262.26,-198.03L-224.18,-177.86L-190.02,-184.75L-172.57,-207.43L-187.41,-218.62L-201.39,-199.76L-221.53,-194.91ZM-250.86,-254.54L-235.85,-280.11L-214.63,-286.47L-192.61,-274.74L-185.64,-248.79ZM-145.13,-175.43L-91.56,-170.70L-30.82,-185.98L-6.04,-244.95L-21.38,-307.58L-80.24,-332.33L-130.90,-336.80ZM-122.17,-192.37L-111.29,-315.87L-81.92,-313.28L-40.21,-297.13L-28.42,-247.13L-46.82,-200.46L-92.14,-189.73ZM36.91,-181.72L27.88,-213.68L114.39,-206.07L116.23,-214.04L106.64,-257.92L67.74,-278.83L26.72,-265.63L7.79,-220.76L18.58,-173.27L56.65,-153.09L90.82,-159.99L108.26,-182.67L93.42,-193.86L79.44,-175.00L59.31,-170.15ZM29.97,-229.78L44.99,-255.34L66.21,-261.71L88.22,-249.97L95.20,-224.03ZM147.73,-185.99L129.88,-179.49L139.28,-155.61L172.94,-142.71L206.61,-148.01L224.16,-174.60L217.21,-199.32L198.46,-211.13L171.94,-220.88L157.37,-228.26L153.24,-238.01L160.74,-248.93L180.12,-251.47L197.95,-244.88L204.50,-229.36L222.17,-235.86L214.02,-256.26L182.41,-268.63L149.53,-263.21L133.35,-237.47L140.42,-215.29L159.79,-203.85L187.84,-193.72L200.77,-185.73L203.40,-174.63L193.20,-161.88L175.14,-159.85L154.34,-168.79ZM270.14,-275.90L278.14,-283.24L279.16,-294.63L272.45,-303.46L262.09,-304.37L254.13,-296.86L253.12,-285.47L259.78,-276.81ZM263.01,-139.44L273.29,-255.98L253.12,-257.76L242.84,-141.22ZM331.76,-84.24L375.05,-98.07L388.53,-136.05L398.13,-244.98L380.20,-246.56L378.82,-230.87L366.93,-246.92L347.01,-254.56L307.62,-240.35L290.49,-196.18L299.63,-149.70L335.92,-128.82L354.35,-131.53L368.77,-142.53L367.96,-133.99L358.53,-108.53L333.77,-101.58L315.57,-108.48L309.62,-124.94L292.83,-118.96L301.11,-96.62ZM346.64,-237.30L367.89,-223.79L375.32,-188.68L362.72,-155.36L338.58,-145.86L317.07,-159.38L311.08,-194.35L323.09,-227.74ZM416.66,-125.89L436.83,-124.11L442.43,-187.54L453.81,-216.71L477.53,-225.05L495.65,-214.65L499.05,-190.68L492.75,-119.18L512.92,-117.40L519.22,-188.90L514.72,-225.12L483.16,-242.08L460.95,-239.19L443.61,-224.03L445.09,-240.84L426.94,-242.44ZM568.10,-134.88L559.07,-166.84L645.58,-159.23L647.41,-167.20L637.83,-211.08L598.93,-231.99L557.91,-218.79L538.98,-173.92L549.77,-126.43L587.84,-106.25L622.01,-113.15L639.45,-135.83L624.61,-147.02L610.63,-128.16L590.50,-123.31ZM561.16,-182.94L576.17,-208.50L597.40,-214.87L619.41,-203.13L626.38,-177.19ZM721.90,-201.38L736.60,-195.03L744.16,-211.53L725.07,-220.74L705.29,-216.48L690.19,-198.90L691.97,-219.07L673.81,-220.67L663.64,-105.26L683.71,-102.34L689.26,-165.32L699.11,-192.77ZM-213.82,-2.37L-208.72,-60.20L-276.88,-66.21L-278.53,-47.47L-230.95,-43.27L-233.42,-14.26L-280.41,2.58L-321.83,-20.92L-333.00,-70.03L-314.07,-116.77L-271.94,-132.61L-243.50,-122.01L-228.48,-92.37L-209.43,-101.98L-225.65,-134.19L-269.87,-150.85L-330.15,-130.85L-355.84,-72.02L-339.70,-9.52L-282.71,20.81ZM-129.38,-92.84L-170.97,-79.69L-190.47,-34.87L-179.11,12.67L-140.46,32.90L-98.86,19.74L-79.35,-25.07L-90.71,-72.61ZM-138.95,15.76L-162.27,2.94L-169.88,-33.03L-156.08,-67.13L-130.89,-75.68L-107.56,-62.85L-99.92,-26.86L-113.74,7.22ZM14.86,-36.80L-52.65,-22.44L-68.48,4.24L-58.81,31.77L-31.09,42.56L-9.87,40.34L10.49,28.00L9.22,41.47L28.05,43.13L34.70,-32.05L27.11,-67.20L-6.74,-82.02L-38.79,-77.13L-56.05,-55.73L-40.92,-44.48L-29.09,-61.29L-10.25,-65.73L8.86,-58.27ZM13.29,-18.97L10.67,10.53L-4.69,21.77L-26.42,26.39L-41.26,21.12L-46.90,5.24L-36.50,-9.80ZM79.15,47.64L93.38,-113.74L73.20,-115.52L58.97,45.86ZM123.67,15.17L105.82,21.67L115.22,45.55L148.88,58.45L182.55,53.15L200.10,26.56L193.15,1.85L174.40,-9.97L147.88,-19.71L133.31,-27.10L129.17,-36.84L136.67,-47.76L156.06,-50.31L173.89,-43.71L180.43,-28.19L198.11,-34.70L189.96,-55.09L158.35,-67.47L125.47,-62.05L109.28,-36.31L116.36,-14.12L135.73,-2.69L163.78,7.44L176.71,15.43L179.33,26.54L169.14,39.28L151.08,41.32L130.27,32.37Z" fill="#ffffff" stroke="#000000"/>
    <path d="M-906.35,492L-906.35,469.28L-898.22,492L-894.99,492L-886.86,469.28L-886.86,492L-883.25,492L-883.25,464.64L-888.22,464.64L-896.55,487.33L-904.68,464.64L-909.96,464.64L-909.96,492ZM-865.67,478.75L-876.82,482.17L-879.09,486.89L-877.05,491.38L-872.23,492.78L-868.69,492.09L-865.45,489.71L-865.46,492L-862.27,492L-862.27,479.25L-864.06,473.45L-869.98,471.46L-875.30,472.76L-877.88,476.62L-875.17,478.28L-873.43,475.28L-870.33,474.25L-867.00,475.23ZM-865.67,481.77L-865.68,486.77L-868.09,488.89L-871.68,489.99L-874.26,489.33L-875.44,486.74L-873.91,484.05ZM-857.12,492L-853.70,492L-853.70,481.25L-852.22,476.17L-848.35,474.41L-845.15,475.90L-844.22,479.88L-844.22,492L-840.80,492L-840.80,479.88L-842.09,473.85L-847.66,471.47L-851.35,472.28L-854.04,475.09L-854.04,472.24L-857.12,472.24ZM-833.34,468.94L-832.11,467.58L-832.10,465.65L-833.36,464.27L-835.12,464.27L-836.35,465.65L-836.35,467.58L-835.10,468.94ZM-832.52,492L-832.52,472.24L-835.94,472.24L-835.94,492ZM-818.31,468.12L-817.85,465.29L-820.94,464.71L-825.30,466.41L-826.70,471.29L-826.70,472.24L-829.67,472.24L-829.67,474.86L-826.70,474.86L-826.70,492L-823.40,492L-823.40,474.86L-819.56,474.86L-819.56,472.24L-823.40,472.24L-823.40,471.21L-822.75,468.65L-820.52,467.74ZM-807.97,471.46L-814.77,474.29L-817.39,482.12L-814.77,489.95L-807.97,492.78L-801.17,489.95L-798.55,482.12L-801.16,474.29ZM-807.97,489.87L-812.08,488.06L-813.90,482.12L-812.08,476.18L-807.97,474.37L-803.85,476.18L-802.04,482.12L-803.85,488.06ZM-795.03,492L-791.61,492L-791.61,481.25L-790.13,476.17L-786.26,474.41L-783.06,475.90L-782.13,479.88L-782.13,492L-778.71,492L-778.71,479.88L-780.00,473.85L-785.56,471.47L-789.26,472.28L-791.95,475.09L-791.95,472.24L-795.03,472.24ZM-765.45,492.27L-765.45,492.26L-765.85,489.32L-767.38,489.55L-769.03,488.71L-769.32,486.22L-769.32,474.86L-765.94,474.86L-765.94,472.24L-769.32,472.24L-769.32,465.40L-772.74,465.40L-772.74,472.24L-775.55,472.24L-775.55,474.86L-772.74,474.86L-772.74,486.22L-771.96,491.00L-768.07,492.63ZM-737.50,487.93L-737.50,478.13L-749.05,478.13L-749.05,481.31L-740.99,481.31L-740.97,486.22L-748.63,489.75L-755.95,486.41L-758.55,478.32L-756.06,470.17L-749.21,466.88L-744.27,468.25L-741.30,473.01L-738.24,471.11L-741.44,465.93L-749.13,463.79L-758.98,468.04L-762.42,478.32L-758.78,488.60L-748.74,492.86ZM-724.35,474.77L-721.78,475.62L-720.76,472.73L-724.11,471.47L-727.37,472.48L-729.65,475.66L-729.65,472.24L-732.73,472.24L-732.73,491.81L-729.31,492L-729.31,481.32L-728.06,476.56ZM-710.01,471.46L-716.81,474.29L-719.42,482.12L-716.81,489.95L-710.01,492.78L-703.20,489.95L-700.58,482.12L-703.20,474.29ZM-710.01,489.87L-714.12,488.06L-715.93,482.12L-714.12,476.18L-710.01,474.37L-705.89,476.18L-704.07,482.12L-705.89,488.06ZM-688.58,492.27L-688.58,492.26L-688.97,489.32L-690.51,489.55L-692.15,488.71L-692.45,486.22L-692.45,474.86L-689.07,474.86L-689.07,472.24L-692.45,472.24L-692.45,465.40L-695.87,465.40L-695.87,472.24L-698.68,472.24L-698.68,474.86L-695.87,474.86L-695.87,486.22L-695.09,491.00L-691.19,492.63ZM-680.57,488.24L-682.57,483.00L-667.90,482.99L-667.71,481.63L-669.97,474.39L-676.83,471.45L-683.53,474.28L-686.05,482.11L-683.53,489.93L-676.83,492.76L-671.18,491.10L-668.58,487.02L-671.25,485.36L-673.32,488.74L-676.63,489.86ZM-682.45,480.26L-680.31,475.73L-676.83,474.35L-672.95,476.00L-671.40,480.26ZM-661.99,485.88L-664.90,487.24L-662.96,491.11L-657.11,492.78L-651.52,491.39L-648.97,486.66L-650.50,482.61L-653.83,480.90L-658.44,479.65L-661.00,478.62L-661.84,477.05L-660.74,475.10L-657.52,474.38L-654.42,475.23L-653.09,477.74L-650.21,476.38L-651.88,473.07L-657.39,471.46L-662.84,472.86L-665.18,477.43L-663.66,481.06L-660.23,482.69L-655.36,483.98L-653.07,485.13L-652.46,486.96L-653.99,489.26L-656.99,489.87L-660.63,488.67ZM-641.92,483.45L-638.72,483.45L-637.20,484.67L-633.14,492.30L-630.05,490.63L-634.16,483.45L-636.67,482.04L-634.62,480.06L-632.77,476.14L-631.66,475.64L-630.10,475.39L-630.56,472.24L-633.40,472.52L-635.30,474.17L-637.43,478.82L-638.72,480.60L-641.91,480.60L-641.91,464.64L-643.66,464.64L-645.32,464.64L-645.33,492L-641.92,492ZM-625.58,492.01L-615.04,492.01L-607.42,490.45L-604.53,484.21L-606.06,480.03L-610.31,477.70L-606.80,475.27L-605.82,471.62L-608.58,466.13L-615.58,464.63L-625.58,464.63ZM-621.94,476.42L-621.95,467.89L-616.40,467.89L-611.64,468.44L-609.62,472.08L-611.57,475.51L-615.93,476.42ZM-621.94,488.79L-621.94,479.64L-615.54,479.64L-610.64,480.53L-608.45,484.21L-610.32,488.02L-615.04,488.79ZM-592.40,471.46L-599.20,474.29L-601.81,482.12L-599.20,489.95L-592.40,492.78L-585.59,489.95L-582.97,482.12L-585.59,474.29ZM-592.40,489.87L-596.51,488.06L-598.32,482.12L-596.51,476.18L-592.40,474.37L-588.28,476.18L-586.46,482.12L-588.28,488.06ZM-571.27,471.46L-578.07,474.29L-580.68,482.12L-578.07,489.95L-571.27,492.78L-564.46,489.95L-561.85,482.12L-564.46,474.29ZM-571.27,489.87L-575.38,488.06L-577.19,482.12L-575.38,476.18L-571.27,474.37L-567.15,476.18L-565.33,482.12L-567.15,488.06ZM-554.82,483.45L-551.62,483.45L-550.10,484.67L-546.04,492.30L-542.96,490.63L-547.06,483.45L-549.57,482.04L-547.52,480.06L-545.67,476.14L-544.56,475.64L-543.00,475.39L-543.46,472.24L-546.31,472.52L-548.20,474.17L-550.34,478.82L-551.62,480.60L-554.82,480.60L-554.82,464.64L-556.56,464.64L-558.23,464.64L-558.23,492L-554.82,492Z"/>
</svg>