<?xml version="1.0"?>
<svg xmlns="http://www.w3.org/2000/svg" width="1920" height="1080" viewBox="-960 -540 1920 1080">
    <path d="M-565.38,-354L-565.13,-297.75C-552.29,-297.75 -541.21,-299.38 -531.88,-302.63C-522.54,-305.88 -515.71,-309.88 -511.38,-314.63C-507.04,-319.38 -503.88,-324.42 -501.88,-329.75C-499.88,-335.08 -499.17,-339.92 -499.75,-344.25C-500.33,-348.58 -501.54,-351.75 -503.38,-353.75C-506.54,-357.08 -511.58,-359.21 -518.50,-360.13C-525.42,-361.04 -532.79,-360.88 -540.63,-359.63C-548.46,-358.38 -556.71,-356.50 -565.38,-354ZM-565.13,-285.25L-564.88,-223C-535.21,-220 -513.46,-225.08 -499.63,-238.25C-490.63,-246.92 -487.38,-256.67 -489.88,-267.50C-491.54,-274.83 -495.71,-280.75 -502.38,-285.25C-519.54,-277.92 -540.46,-277.92 -565.13,-285.25ZM-564.88,-209.75L-599.88,-217.50L-599.88,-377.25C-586.04,-381.08 -569.25,-383.17 -549.50,-383.50C-529.75,-383.83 -517.88,-382.50 -513.88,-379.50C-508.71,-376.17 -501.75,-370.33 -493,-362C-484.25,-353.67 -477.38,-346.58 -472.38,-340.75C-470.21,-337.25 -469.13,-332.92 -469.13,-327.75C-469.13,-322.58 -470.96,-316.63 -474.63,-309.88C-478.29,-303.13 -483.21,-297.42 -489.38,-292.75C-475.88,-284.92 -464.88,-276.17 -456.38,-266.50C-453.54,-263.17 -452.46,-258.42 -453.13,-252.25C-453.79,-246.08 -456.38,-239.67 -460.88,-233C-465.38,-226.33 -472.17,-220.42 -481.25,-215.25C-490.33,-210.08 -501.75,-206.79 -515.50,-205.38C-529.25,-203.96 -545.71,-205.42 -564.88,-209.75ZM-417.38,-297.75L-430.88,-320.50C-419.21,-323.50 -406.25,-326.33 -392,-329C-377.75,-331.67 -368.79,-332.92 -365.13,-332.75C-361.46,-332.58 -354.13,-327.13 -343.13,-316.38C-332.13,-305.63 -324.71,-297.42 -320.88,-291.75C-319.54,-289.75 -318.88,-283.04 -318.88,-271.63C-318.88,-260.21 -319.08,-247.17 -319.50,-232.50C-319.92,-217.83 -320.04,-207.92 -319.88,-202.75L-350.88,-210L-350.63,-222.75C-364.13,-209.25 -375.13,-202.50 -383.63,-202.50C-391.63,-202.67 -401.79,-210.25 -414.13,-225.25C-426.46,-240.25 -432.63,-251 -432.63,-257.50C-432.63,-262.67 -429.13,-267.42 -422.13,-271.75C-415.13,-276.08 -406.58,-279.46 -396.50,-281.88C-386.42,-284.29 -377.46,-286.17 -369.63,-287.50C-361.79,-288.83 -355.13,-289.75 -349.63,-290.25L-349.38,-297C-349.21,-305 -353.46,-309.33 -362.13,-310C-370.13,-310.50 -386.96,-306.92 -412.63,-299.25L-412.88,-299.25L-413.13,-299L-413.38,-299L-413.63,-299L-413.88,-298.75L-414.13,-298.75L-414.38,-298.75L-414.63,-298.50L-414.88,-298.50L-415.13,-298.50L-415.38,-298.25L-415.63,-298.25L-415.88,-298.25L-416.13,-298.25L-416.38,-298L-416.63,-298L-416.88,-298L-417.13,-297.75ZM-404.88,-235C-403.38,-232.67 -400.54,-231.17 -396.38,-230.50C-392.21,-229.83 -385.92,-230.96 -377.50,-233.88C-369.08,-236.79 -359.96,-241.92 -350.13,-249.25L-349.88,-271.25C-393.88,-258.42 -412.21,-246.33 -404.88,-235ZM-205.13,-329.25L-173.88,-322.25L-173.88,-202.50L-205.13,-209.50L-205.13,-222C-218.46,-208.33 -230.79,-201.92 -242.13,-202.75C-247.46,-203.08 -256.96,-209.25 -270.63,-221.25C-284.29,-233.25 -291.54,-241.58 -292.38,-246.25C-293.04,-250.58 -293.38,-278.25 -293.38,-329.25L-262.38,-322.25C-263.21,-264.92 -262.79,-234.50 -261.13,-231C-257.79,-226.33 -252.75,-224.83 -246,-226.50C-239.25,-228.17 -231.75,-232.92 -223.50,-240.75C-215.25,-248.58 -209.13,-257.17 -205.13,-266.50ZM-108.13,-210L-108.63,-210.50L-140.63,-217.25L-140.63,-376.75L-33.88,-376.75L-13.88,-354.25L-106.13,-354.25L-106.13,-306.25L-43.88,-306.25L-23.88,-283.75L-105.88,-283.75L-105.88,-232.50L-23.88,-232.50L-3.88,-210ZM47.13,-322.50L47.13,-304C59.29,-323.17 69.63,-332.75 78.13,-332.75C82.29,-332.75 89.29,-330.63 99.13,-326.38C108.96,-322.13 117.21,-317.75 123.88,-313.25L106.63,-288.25C96.29,-295.92 87.33,-300.13 79.75,-300.88C72.17,-301.63 66.13,-300.13 61.63,-296.38C57.13,-292.63 52.29,-286.58 47.13,-278.25L47.13,-202.75L15.88,-209.75L15.88,-329.50ZM174.38,-222.75C187.54,-216.08 203.46,-219.33 222.13,-232.50L222.13,-302.75C217.29,-305.58 210.54,-307.50 201.88,-308.50C195.04,-309.17 188.38,-305.71 181.88,-298.13C175.38,-290.54 170.46,-281.75 167.13,-271.75C163.79,-261.75 162.58,-251.88 163.50,-242.13C164.42,-232.38 168.04,-225.92 174.38,-222.75ZM222.13,-387.50L253.38,-380.50C254.38,-268 254.38,-211.25 253.38,-210.25C252.54,-210.08 248.25,-209.13 240.50,-207.38C232.75,-205.63 227.79,-204.58 225.63,-204.25C223.46,-203.92 219,-203.42 212.25,-202.75C205.50,-202.08 200.17,-202.08 196.25,-202.75C192.33,-203.42 187.46,-204.54 181.63,-206.13C175.79,-207.71 170.21,-210 164.88,-213C155.38,-218.17 148.04,-224.50 142.88,-232C137.71,-239.50 134.96,-247.17 134.63,-255C134.29,-262.83 135.21,-270.79 137.38,-278.88C139.54,-286.96 143,-294.38 147.75,-301.13C152.50,-307.88 157.58,-313.83 163,-319C168.42,-324.17 174.13,-327.88 180.13,-330.13C186.13,-332.38 191.46,-332.75 196.13,-331.25C198.29,-330.58 200.58,-329.63 203,-328.38C205.42,-327.13 207.42,-326 209,-325C210.58,-324 212.83,-322.50 215.75,-320.50C218.67,-318.50 220.79,-317.08 222.13,-316.25ZM311.13,-259.75L367.88,-298.50C355.88,-306.17 345.67,-309 337.25,-307C328.83,-305 322.38,-299.79 317.88,-291.38C313.38,-282.96 311.13,-272.42 311.13,-259.75ZM316.88,-235.75C321.54,-230.08 326.79,-226.58 332.63,-225.25C338.46,-223.92 344.58,-224.71 351,-227.63C357.42,-230.54 362.79,-233.46 367.13,-236.38C371.46,-239.29 376.54,-243.17 382.38,-248L387.38,-243C390.54,-239.50 393.71,-236 396.88,-232.50L401.88,-227.50C387.38,-216.83 375.13,-209.71 365.13,-206.13C355.13,-202.54 345.21,-202.58 335.38,-206.25C321.04,-211.75 307.54,-221.42 294.88,-235.25C287.38,-243.58 283.04,-253.46 281.88,-264.88C280.71,-276.29 282.17,-286.92 286.25,-296.75C290.33,-306.58 296.67,-314.96 305.25,-321.88C313.83,-328.79 323.21,-332.25 333.38,-332.25C340.04,-332.25 349.92,-327.96 363,-319.38C376.08,-310.79 386.96,-302.42 395.63,-294.25C395.46,-293.75 388.83,-288.63 375.75,-278.88C362.67,-269.13 349.54,-259.50 336.38,-250ZM456.38,-322.50L456.38,-312.25C471.21,-326.08 484.21,-332.67 495.38,-332C500.71,-331.67 510.08,-325.04 523.50,-312.13C536.92,-299.21 544.04,-290.42 544.88,-285.75C545.54,-281.42 545.88,-253.75 545.88,-202.75L514.88,-209.75C515.88,-266.92 515.46,-297.17 513.63,-300.50C510.63,-306.17 505.67,-307.88 498.75,-305.63C491.83,-303.38 484.67,-299.33 477.25,-293.50C469.83,-287.67 462.88,-280.83 456.38,-273L456.38,-202.75L423.88,-209.75L423.88,-329.50Z" fill="#ffffff" stroke="#000000"/>
    <path d="M-552.27,-368.40L-554.10,-312.75C-541.41,-312.27 -530.38,-313.47 -521.03,-316.34C-511.68,-319.21 -504.77,-322.91 -500.30,-327.45C-495.84,-331.99 -492.52,-336.86 -490.35,-342.06C-488.17,-347.26 -487.29,-352.02 -487.71,-356.33C-488.12,-360.64 -489.20,-363.81 -490.94,-365.86C-493.95,-369.28 -498.86,-371.56 -505.67,-372.73C-512.48,-373.89 -519.78,-374.00 -527.58,-373.05C-535.37,-372.10 -543.60,-370.56 -552.27,-368.40ZM-554.57,-300.38L-556.62,-238.79C-527.39,-234.72 -505.68,-238.94 -491.51,-251.46C-482.28,-259.70 -478.71,-269.22 -480.78,-280.03C-482.16,-287.35 -486.06,-293.36 -492.49,-298.06C-509.74,-291.44 -530.44,-292.21 -554.57,-300.38ZM-557.12,-225.68L-591.45,-234.64L-585.54,-392.68C-571.71,-395.96 -555.02,-397.40 -535.47,-397.00C-515.92,-396.60 -504.22,-394.84 -500.38,-391.72C-495.39,-388.23 -488.72,-382.21 -480.37,-373.64C-472.02,-365.07 -465.48,-357.81 -460.75,-351.85C-458.74,-348.31 -457.83,-343.98 -458.02,-338.87C-458.21,-333.76 -460.25,-327.93 -464.12,-321.39C-468.00,-314.85 -473.08,-309.38 -479.35,-304.99C-466.28,-296.74 -455.73,-287.68 -447.67,-277.80C-444.99,-274.40 -444.10,-269.66 -444.99,-263.58C-445.87,-257.51 -448.67,-251.26 -453.37,-244.83C-458.07,-238.40 -465.00,-232.80 -474.18,-228.02C-483.36,-223.25 -494.78,-220.41 -508.43,-219.52C-522.09,-218.63 -538.31,-220.68 -557.12,-225.68ZM-407.93,-307.27L-420.45,-330.28C-408.79,-332.82 -395.87,-335.14 -381.67,-337.25C-367.48,-339.36 -358.57,-340.27 -354.95,-339.97C-351.33,-339.67 -344.27,-333.99 -333.79,-322.95C-323.30,-311.91 -316.27,-303.51 -312.69,-297.77C-311.44,-295.74 -311.03,-289.08 -311.45,-277.78C-311.88,-266.49 -312.57,-253.59 -313.52,-239.10C-314.48,-224.60 -314.97,-214.80 -314.99,-209.68L-345.39,-218.00L-344.68,-230.61C-358.53,-217.75 -369.66,-211.48 -378.07,-211.79C-385.98,-212.25 -395.76,-220.13 -407.40,-235.43C-419.05,-250.73 -424.75,-261.59 -424.51,-268.02C-424.32,-273.13 -420.68,-277.70 -413.60,-281.73C-406.51,-285.76 -397.94,-288.78 -387.87,-290.80C-377.81,-292.81 -368.87,-294.34 -361.07,-295.37C-353.28,-296.40 -346.65,-297.06 -341.19,-297.35L-340.69,-304.01C-340.23,-311.92 -344.27,-316.37 -352.82,-317.35C-360.72,-318.14 -377.50,-315.22 -403.18,-308.58L-403.43,-308.59L-403.68,-308.35L-403.93,-308.36L-404.18,-308.37L-404.43,-308.13L-404.68,-308.14L-404.93,-308.15L-405.19,-307.91L-405.43,-307.92L-405.68,-307.93L-405.94,-307.70L-406.18,-307.70L-406.43,-307.71L-406.68,-307.72L-406.94,-307.48L-407.18,-307.49L-407.43,-307.50L-407.69,-307.27ZM-397.89,-244.73C-396.49,-242.37 -393.75,-240.78 -389.65,-239.97C-385.55,-239.15 -379.29,-240.03 -370.85,-242.61C-362.42,-245.18 -353.20,-249.91 -343.20,-256.80L-342.14,-278.56C-386.14,-267.49 -404.73,-256.22 -397.89,-244.73ZM-196.79,-330.58L-166.13,-322.50L-170.56,-204.03L-201.22,-212.11L-200.76,-224.48C-214.46,-211.45 -226.89,-205.56 -238.08,-206.80C-243.34,-207.33 -252.51,-213.78 -265.59,-226.16C-278.66,-238.54 -285.53,-247.05 -286.18,-251.70C-286.68,-256.01 -285.98,-283.39 -284.09,-333.85L-253.68,-325.77C-256.63,-269.08 -257.35,-238.98 -255.83,-235.45C-252.70,-230.71 -247.77,-229.04 -241.03,-230.44C-234.29,-231.84 -226.69,-236.26 -218.24,-243.71C-209.79,-251.15 -203.41,-259.41 -199.11,-268.50ZM-105.24,-209.01L-105.72,-209.53L-137.12,-217.39L-131.22,-375.18L-25.61,-371.23L-6.66,-348.23L-97.92,-351.65L-99.70,-304.16L-38.11,-301.85L-19.16,-278.85L-100.28,-281.89L-102.18,-231.19L-21.06,-228.15L-2.10,-205.15ZM52.52,-314.56L51.83,-296.26C64.58,-314.77 75.15,-323.87 83.56,-323.55C87.69,-323.40 94.53,-321.04 104.10,-316.47C113.67,-311.90 121.67,-307.27 128.10,-302.57L110.11,-278.47C100.17,-286.44 91.47,-290.94 83.99,-291.96C76.52,-292.98 70.48,-291.72 65.89,-288.18C61.30,-284.64 56.30,-278.84 50.88,-270.78L48.08,-196.09L17.42,-204.17L21.86,-322.64ZM174.71,-211.17C187.49,-204.08 203.36,-206.71 222.31,-219.04L224.91,-288.54C220.24,-291.52 213.63,-293.67 205.09,-294.98C198.36,-295.89 191.63,-292.72 184.92,-285.46C178.21,-278.20 173.02,-269.68 169.35,-259.91C165.69,-250.14 164.12,-240.42 164.67,-230.74C165.22,-221.06 168.56,-214.53 174.71,-211.17ZM228.05,-372.39L258.71,-364.30C255.53,-252.97 253.43,-196.83 252.40,-195.87C251.57,-195.74 247.29,-194.95 239.56,-193.51C231.83,-192.06 226.88,-191.22 224.73,-190.97C222.57,-190.72 218.14,-190.39 211.44,-189.98C204.74,-189.57 199.46,-189.77 195.61,-190.57C191.76,-191.37 186.98,-192.67 181.27,-194.45C175.56,-196.23 170.12,-198.71 164.95,-201.87C155.74,-207.34 148.72,-213.87 143.89,-221.48C139.06,-229.09 136.62,-236.78 136.58,-244.54C136.54,-252.30 137.74,-260.14 140.19,-268.06C142.63,-275.98 146.32,-283.19 151.27,-289.69C156.22,-296.19 161.47,-301.90 167.02,-306.81C172.57,-311.72 178.36,-315.18 184.38,-317.18C190.39,-319.18 195.68,-319.36 200.25,-317.70C202.36,-316.96 204.60,-315.93 206.94,-314.60C209.29,-313.28 211.22,-312.09 212.75,-311.04C214.28,-309.99 216.45,-308.43 219.26,-306.34C222.07,-304.25 224.12,-302.77 225.41,-301.90ZM311.37,-242.71L368.95,-278.94C357.36,-286.97 347.36,-290.15 338.96,-288.48C330.56,-286.82 323.98,-281.90 319.22,-273.74C314.45,-265.58 311.84,-255.24 311.37,-242.71ZM316.17,-218.75C320.58,-212.97 325.64,-209.31 331.36,-207.78C337.08,-206.24 343.17,-206.80 349.63,-209.45C356.08,-212.10 361.51,-214.78 365.90,-217.51C370.30,-220.23 375.47,-223.88 381.42,-228.44L386.18,-223.31C389.19,-219.73 392.19,-216.15 395.19,-212.57L399.95,-207.44C385.21,-197.43 372.83,-190.83 362.81,-187.66C352.78,-184.48 342.97,-184.89 333.38,-188.88C319.40,-194.85 306.40,-204.92 294.39,-219.07C287.27,-227.59 283.35,-237.52 282.62,-248.86C281.89,-260.20 283.73,-270.66 288.13,-280.23C292.53,-289.81 299.11,-297.86 307.86,-304.39C316.60,-310.91 326.01,-313.98 336.07,-313.61C342.66,-313.36 352.27,-308.75 364.90,-299.77C377.52,-290.80 387.97,-282.11 396.24,-273.71C396.06,-273.22 389.32,-268.40 376.01,-259.23C362.71,-250.07 349.37,-241.04 335.99,-232.13ZM457.39,-299.41L457.01,-289.27C472.20,-302.40 485.30,-308.44 496.32,-307.36C501.59,-306.83 510.62,-299.93 523.41,-286.66C536.21,-273.38 542.93,-264.42 543.58,-259.77C544.08,-255.46 543.39,-228.08 541.50,-177.62L511.09,-185.70C514.20,-242.22 514.90,-272.16 513.21,-275.52C510.45,-281.24 505.61,-283.11 498.69,-281.14C491.76,-279.17 484.52,-275.44 476.97,-269.94C469.41,-264.45 462.28,-257.95 455.56,-250.44L452.96,-180.94L421.06,-189.07L425.50,-307.54Z" fill="#ffffff" stroke="#000000"/>
    <path d="M-538.75,-382.38L-542.63,-327.39C-530.09,-326.45 -519.14,-327.23 -509.78,-329.72C-500.42,-332.21 -493.45,-335.62 -488.86,-339.95C-484.28,-344.27 -480.82,-348.97 -478.47,-354.03C-476.13,-359.10 -475.08,-363.77 -475.33,-368.05C-475.59,-372.32 -476.54,-375.51 -478.18,-377.60C-481.03,-381.08 -485.80,-383.53 -492.49,-384.93C-499.19,-386.34 -506.41,-386.71 -514.15,-386.07C-521.90,-385.42 -530.10,-384.19 -538.75,-382.38ZM-543.54,-315.18L-547.86,-254.32C-519.09,-249.22 -497.46,-252.59 -482.98,-264.45C-473.55,-272.26 -469.66,-281.55 -471.31,-292.32C-472.40,-299.61 -476.04,-305.69 -482.22,-310.58C-499.53,-304.67 -519.98,-306.20 -543.54,-315.18ZM-548.83,-241.38L-582.47,-251.51L-570.76,-407.63C-556.96,-410.36 -540.40,-411.17 -521.08,-410.05C-501.75,-408.93 -490.24,-406.75 -486.56,-403.53C-481.75,-399.89 -475.38,-393.68 -467.44,-384.90C-459.50,-376.11 -453.30,-368.69 -448.84,-362.62C-446.98,-359.04 -446.24,-354.73 -446.61,-349.68C-446.99,-344.63 -449.22,-338.94 -453.30,-332.61C-457.38,-326.28 -462.60,-321.07 -468.97,-316.96C-456.35,-308.31 -446.24,-298.96 -438.64,-288.89C-436.12,-285.42 -435.41,-280.70 -436.51,-274.72C-437.61,-268.74 -440.61,-262.66 -445.49,-256.48C-450.38,-250.29 -457.45,-245.01 -466.70,-240.62C-475.96,-236.24 -487.36,-233.86 -500.90,-233.48C-514.44,-233.11 -530.42,-235.74 -548.83,-241.38ZM-398.24,-316.57L-409.76,-339.79C-398.14,-341.87 -385.27,-343.69 -371.15,-345.25C-357.03,-346.81 -348.18,-347.38 -344.61,-346.95C-341.04,-346.51 -334.27,-340.64 -324.31,-329.33C-314.35,-318.02 -307.70,-309.45 -304.37,-303.64C-303.22,-301.58 -303.06,-294.98 -303.89,-283.82C-304.73,-272.67 -305.89,-259.94 -307.37,-245.63C-308.85,-231.33 -309.70,-221.65 -309.91,-216.59L-339.68,-225.94L-338.50,-238.38C-352.68,-226.18 -363.93,-220.39 -372.23,-221.01C-380.04,-221.76 -389.42,-229.92 -400.37,-245.48C-411.33,-261.04 -416.57,-272.00 -416.09,-278.35C-415.71,-283.40 -411.94,-287.79 -404.78,-291.51C-397.63,-295.23 -389.03,-297.90 -379.00,-299.53C-368.97,-301.15 -360.08,-302.32 -352.33,-303.05C-344.57,-303.78 -337.99,-304.19 -332.58,-304.28L-331.84,-310.85C-331.09,-318.66 -334.93,-323.21 -343.35,-324.49C-351.13,-325.57 -367.84,-323.30 -393.49,-317.69L-393.73,-317.70L-393.99,-317.48L-394.24,-317.50L-394.48,-317.52L-394.74,-317.29L-394.99,-317.31L-395.23,-317.33L-395.50,-317.10L-395.74,-317.12L-395.98,-317.14L-396.25,-316.91L-396.49,-316.93L-396.74,-316.95L-396.98,-316.97L-397.24,-316.74L-397.49,-316.76L-397.73,-316.78L-397.99,-316.55ZM-390.62,-254.33C-389.32,-251.94 -386.67,-250.27 -382.64,-249.31C-378.62,-248.35 -372.39,-248.99 -363.95,-251.23C-355.51,-253.46 -346.22,-257.80 -336.07,-264.25L-334.21,-285.73C-378.15,-276.41 -396.96,-265.94 -390.62,-254.33ZM-188.51,-331.80L-158.48,-322.67L-167.25,-205.65L-197.28,-214.78L-196.36,-226.99C-210.40,-214.61 -222.92,-209.25 -233.93,-210.89C-239.12,-211.61 -247.95,-218.33 -260.43,-231.06C-272.91,-243.79 -279.38,-252.46 -279.85,-257.08C-280.19,-261.37 -278.49,-288.43 -274.75,-338.27L-244.97,-329.16C-249.98,-273.19 -251.80,-243.43 -250.43,-239.89C-247.52,-235.09 -242.70,-233.25 -235.98,-234.39C-229.26,-235.52 -221.58,-239.61 -212.95,-246.66C-204.31,-253.71 -197.70,-261.65 -193.10,-270.48ZM-102.45,-208.16L-102.90,-208.69L-133.68,-217.63L-121.99,-373.50L-17.67,-365.68L0.22,-342.23L-89.93,-348.98L-93.44,-302.07L-32.61,-297.51L-14.71,-274.06L-94.85,-280.07L-98.60,-229.98L-18.47,-223.98L-0.57,-200.52ZM57.51,-306.73L56.16,-288.65C69.45,-306.49 80.25,-315.10 88.56,-314.48C92.63,-314.17 99.31,-311.58 108.61,-306.71C117.91,-301.83 125.65,-296.95 131.84,-292.07L113.15,-268.90C103.61,-277.15 95.17,-281.92 87.81,-283.21C80.45,-284.49 74.44,-283.47 69.77,-280.14C65.10,-276.80 59.93,-271.25 54.27,-263.49L48.74,-189.70L18.71,-198.83L27.48,-315.86ZM174.56,-199.93C186.94,-192.45 202.73,-194.46 221.94,-205.96L227.08,-274.61C222.57,-277.73 216.11,-280.10 207.72,-281.71C201.09,-282.86 194.32,-279.97 187.41,-273.04C180.50,-266.10 175.05,-257.87 171.06,-248.34C167.07,-238.81 165.17,-229.25 165.35,-219.66C165.53,-210.06 168.60,-203.48 174.56,-199.93ZM233.29,-357.43L263.32,-348.30C256.06,-238.29 251.90,-182.83 250.85,-181.92C250.02,-181.82 245.76,-181.20 238.06,-180.06C230.35,-178.91 225.43,-178.26 223.29,-178.09C221.15,-177.93 216.75,-177.76 210.11,-177.61C203.46,-177.45 198.25,-177.84 194.47,-178.78C190.69,-179.72 186.01,-181.17 180.43,-183.15C174.84,-185.12 169.55,-187.77 164.56,-191.09C155.66,-196.84 148.95,-203.57 144.45,-211.27C139.95,-218.98 137.83,-226.67 138.08,-234.35C138.32,-242.03 139.80,-249.74 142.51,-257.49C145.22,-265.23 149.15,-272.22 154.28,-278.47C159.42,-284.72 164.82,-290.17 170.49,-294.82C176.17,-299.47 182.02,-302.68 188.05,-304.44C194.07,-306.20 199.31,-306.17 203.76,-304.37C205.83,-303.56 208.00,-302.45 210.27,-301.05C212.54,-299.65 214.41,-298.41 215.89,-297.31C217.36,-296.22 219.45,-294.59 222.15,-292.42C224.86,-290.25 226.83,-288.71 228.07,-287.80ZM310.91,-226.07L369.21,-259.78C358.04,-268.15 348.27,-271.67 339.90,-270.33C331.53,-268.99 324.84,-264.37 319.82,-256.48C314.81,-248.58 311.84,-238.45 310.91,-226.07ZM314.77,-202.19C318.92,-196.31 323.79,-192.51 329.39,-190.78C335.00,-189.05 341.04,-189.37 347.53,-191.75C354.01,-194.13 359.48,-196.59 363.92,-199.12C368.37,-201.65 373.62,-205.07 379.68,-209.36L384.20,-204.11C387.04,-200.46 389.88,-196.81 392.71,-193.16L397.23,-187.90C382.28,-178.54 369.79,-172.48 359.75,-169.71C349.72,-166.94 340.03,-167.70 330.69,-172.01C317.09,-178.43 304.60,-188.87 293.24,-203.31C286.52,-212.01 283.01,-221.98 282.70,-233.22C282.40,-244.46 284.60,-254.74 289.31,-264.05C294.02,-273.36 300.83,-281.08 309.72,-287.21C318.62,-293.34 328.03,-296.03 337.97,-295.29C344.48,-294.80 353.82,-289.88 365.97,-280.54C378.13,-271.19 388.14,-262.21 396.02,-253.59C395.82,-253.12 388.97,-248.59 375.47,-240.02C361.97,-231.45 348.44,-223.01 334.87,-214.69ZM457.45,-276.75L456.70,-266.73C472.21,-279.17 485.40,-284.65 496.26,-283.18C501.45,-282.46 510.13,-275.30 522.29,-261.69C534.46,-248.09 540.78,-238.97 541.25,-234.35C541.58,-230.07 539.88,-203.01 536.15,-153.17L506.36,-162.28C511.53,-218.07 513.34,-247.66 511.79,-251.06C509.27,-256.81 504.55,-258.85 497.63,-257.15C490.71,-255.46 483.41,-252.04 475.73,-246.88C468.05,-241.72 460.75,-235.55 453.83,-228.38L448.68,-159.72L417.43,-168.94L426.21,-285.97Z" fill="#ffffff" stroke="#000000"/>
    <path d="M-524.84,-395.92L-530.70,-341.67C-518.33,-340.28 -507.48,-340.64 -498.13,-342.76C-488.78,-344.88 -481.76,-347.99 -477.06,-352.10C-472.37,-356.21 -468.77,-360.72 -466.26,-365.65C-463.75,-370.57 -462.55,-375.15 -462.64,-379.39C-462.73,-383.63 -463.55,-386.82 -465.10,-388.94C-467.79,-392.50 -472.42,-395.10 -478.99,-396.73C-485.55,-398.37 -492.68,-399.01 -500.37,-398.65C-508.05,-398.30 -516.21,-397.39 -524.84,-395.92ZM-532.06,-329.62L-538.58,-269.59C-510.31,-263.48 -488.80,-266.02 -474.03,-277.21C-464.42,-284.58 -460.22,-293.63 -461.46,-304.34C-462.27,-311.59 -465.64,-317.75 -471.58,-322.81C-488.92,-317.60 -509.08,-319.88 -532.06,-329.62ZM-540.02,-256.82L-572.92,-268.09L-555.56,-422.08C-541.81,-424.27 -525.40,-424.45 -506.33,-422.63C-487.26,-420.81 -475.95,-418.23 -472.42,-414.90C-467.81,-411.13 -461.73,-404.75 -454.20,-395.77C-446.68,-386.78 -440.82,-379.21 -436.63,-373.04C-434.92,-369.44 -434.35,-365.14 -434.91,-360.16C-435.47,-355.18 -437.89,-349.64 -442.15,-343.53C-446.42,-337.42 -451.78,-332.45 -458.23,-328.62C-446.07,-319.61 -436.42,-309.98 -429.28,-299.74C-426.91,-296.22 -426.38,-291.52 -427.69,-285.65C-429.00,-279.78 -432.19,-273.87 -437.25,-267.94C-442.31,-262.00 -449.50,-257.03 -458.82,-253.04C-468.14,-249.05 -479.50,-247.11 -492.91,-247.24C-506.31,-247.37 -522.02,-250.56 -540.02,-256.82ZM-388.29,-325.62L-398.83,-349.02C-387.26,-350.64 -374.46,-351.96 -360.44,-352.99C-346.41,-354.01 -337.64,-354.24 -334.12,-353.68C-330.61,-353.12 -324.13,-347.07 -314.70,-335.51C-305.26,-323.95 -299.00,-315.23 -295.92,-309.36C-294.86,-307.28 -294.94,-300.74 -296.18,-289.74C-297.42,-278.74 -299.04,-266.19 -301.04,-252.09C-303.03,-238.00 -304.23,-228.46 -304.63,-223.46L-333.72,-233.82L-332.10,-246.08C-346.58,-234.53 -357.91,-229.22 -366.10,-230.14C-373.80,-231.17 -382.77,-239.59 -393.03,-255.39C-403.29,-271.18 -408.07,-282.22 -407.36,-288.48C-406.80,-293.46 -402.91,-297.66 -395.69,-301.08C-388.47,-304.49 -379.87,-306.82 -369.89,-308.05C-359.91,-309.29 -351.07,-310.12 -343.38,-310.55C-335.68,-310.99 -329.16,-311.15 -323.80,-311.03L-322.83,-317.51C-321.80,-325.20 -325.42,-329.84 -333.70,-331.43C-341.36,-332.78 -357.97,-331.15 -383.55,-326.55L-383.79,-326.58L-384.06,-326.36L-384.30,-326.39L-384.54,-326.42L-384.81,-326.21L-385.05,-326.23L-385.29,-326.26L-385.56,-326.05L-385.80,-326.07L-386.04,-326.10L-386.31,-325.89L-386.55,-325.91L-386.79,-325.94L-387.03,-325.97L-387.30,-325.75L-387.54,-325.78L-387.78,-325.81L-388.05,-325.59ZM-383.06,-263.78C-381.86,-261.37 -379.30,-259.61 -375.35,-258.52C-371.41,-257.42 -365.22,-257.82 -356.79,-259.72C-348.36,-261.62 -339.01,-265.57 -328.74,-271.57L-326.10,-292.75C-369.91,-285.16 -388.89,-275.50 -383.06,-263.78ZM-180.28,-332.93L-150.92,-322.79L-163.93,-207.36L-193.29,-217.50L-191.93,-229.55C-206.27,-217.82 -218.85,-212.98 -229.69,-215.01C-234.79,-215.91 -243.28,-222.89 -255.15,-235.94C-267.02,-248.99 -273.10,-257.81 -273.40,-262.40C-273.57,-266.65 -270.88,-293.36 -265.34,-342.51L-236.22,-332.40C-243.25,-277.23 -246.16,-247.86 -244.93,-244.31C-242.23,-239.45 -237.53,-237.45 -230.84,-238.33C-224.15,-239.20 -216.41,-242.96 -207.61,-249.62C-198.80,-256.27 -191.97,-263.88 -187.10,-272.44ZM-99.74,-207.44L-100.16,-207.98L-130.28,-217.96L-112.95,-371.71L-10.05,-360.11L6.78,-336.25L-82.14,-346.27L-87.35,-300.00L-27.35,-293.24L-10.52,-269.38L-89.56,-278.29L-95.12,-228.89L-16.08,-219.98L0.75,-196.12ZM62.13,-299.02L60.12,-281.19C73.93,-298.34 84.93,-306.45 93.12,-305.53C97.14,-305.08 103.66,-302.27 112.67,-297.10C121.69,-291.94 129.17,-286.83 135.10,-281.76L115.76,-259.54C106.63,-268.05 98.46,-273.08 91.23,-274.63C84.00,-276.18 78.01,-275.39 73.27,-272.26C68.52,-269.14 63.21,-263.84 57.32,-256.37L49.12,-183.59L19.76,-193.73L32.77,-309.16ZM173.95,-189.05C185.92,-181.19 201.61,-182.59 221.04,-193.26L228.67,-260.97C224.32,-264.23 218.02,-266.81 209.77,-268.71C203.26,-270.10 196.46,-267.49 189.37,-260.88C182.28,-254.28 176.58,-246.34 172.28,-237.06C167.99,-227.79 165.75,-218.40 165.57,-208.90C165.40,-199.40 168.19,-192.79 173.95,-189.05ZM237.87,-342.66L267.23,-332.52C255.98,-223.97 249.81,-169.27 248.74,-168.41C247.92,-168.34 243.68,-167.89 236.02,-167.04C228.36,-166.20 223.46,-165.73 221.34,-165.65C219.22,-165.56 214.86,-165.56 208.28,-165.65C201.71,-165.74 196.57,-166.32 192.86,-167.39C189.16,-168.46 184.58,-170.07 179.13,-172.23C173.68,-174.39 168.55,-177.21 163.73,-180.68C155.14,-186.69 148.76,-193.59 144.59,-201.38C140.43,-209.17 138.61,-216.86 139.14,-224.45C139.67,-232.04 141.42,-239.61 144.38,-247.16C147.35,-254.72 151.49,-261.49 156.80,-267.48C162.11,-273.47 167.66,-278.66 173.44,-283.06C179.22,-287.45 185.13,-290.40 191.16,-291.92C197.18,-293.44 202.37,-293.22 206.70,-291.27C208.72,-290.39 210.82,-289.22 213.02,-287.75C215.21,-286.28 217.02,-284.98 218.43,-283.84C219.85,-282.71 221.86,-281.02 224.45,-278.77C227.04,-276.53 228.94,-274.93 230.13,-273.98ZM309.78,-209.85L368.69,-241.04C357.96,-249.73 348.43,-253.57 340.10,-252.56C331.77,-251.55 324.98,-247.23 319.72,-239.60C314.47,-231.98 311.16,-222.06 309.78,-209.85ZM312.72,-186.10C316.60,-180.13 321.28,-176.18 326.76,-174.26C332.24,-172.35 338.23,-172.44 344.73,-174.56C351.23,-176.67 356.73,-178.90 361.22,-181.24C365.72,-183.58 371.04,-186.76 377.18,-190.79L381.46,-185.43C384.13,-181.71 386.80,-177.99 389.48,-174.27L393.75,-168.91C378.62,-160.20 366.04,-154.67 356.01,-152.30C345.98,-149.93 336.43,-151.05 327.35,-155.65C314.13,-162.51 302.16,-173.29 291.46,-188.00C285.13,-196.85 282.03,-206.84 282.15,-217.97C282.26,-229.10 284.82,-239.19 289.82,-248.22C294.83,-257.26 301.84,-264.64 310.87,-270.37C319.89,-276.11 329.31,-278.42 339.11,-277.32C345.53,-276.60 354.58,-271.39 366.26,-261.69C377.94,-252.00 387.51,-242.74 394.98,-233.93C394.76,-233.47 387.82,-229.24 374.15,-221.27C360.48,-213.29 346.78,-205.44 333.06,-197.71ZM456.61,-254.56L455.49,-244.68C471.29,-256.40 484.54,-261.34 495.23,-259.48C500.33,-258.58 508.65,-251.18 520.18,-237.27C531.71,-223.36 537.62,-214.11 537.92,-209.52C538.09,-205.27 535.41,-178.57 529.87,-129.41L500.74,-139.53C507.92,-194.52 510.80,-223.72 509.40,-227.13C507.12,-232.92 502.53,-235.11 495.62,-233.69C488.71,-232.27 481.36,-229.16 473.58,-224.34C465.79,-219.52 458.34,-213.69 451.23,-206.85L443.60,-139.13L413.03,-149.41L426.04,-264.84Z" fill="#ffffff" stroke="#000000"/>
    <path d="M-510.53,-409.00L-518.34,-355.57C-506.16,-353.73 -495.41,-353.69 -486.08,-355.44C-476.76,-357.19 -469.70,-360.01 -464.91,-363.89C-460.11,-367.78 -456.38,-372.12 -453.72,-376.89C-451.06,-381.67 -449.70,-386.16 -449.63,-390.35C-449.56,-394.55 -450.26,-397.73 -451.71,-399.89C-454.24,-403.51 -458.72,-406.25 -465.16,-408.11C-471.59,-409.97 -478.62,-410.86 -486.23,-410.80C-493.85,-410.73 -501.95,-410.13 -510.53,-409.00ZM-520.13,-343.70L-528.80,-284.57C-501.07,-277.48 -479.70,-279.19 -464.68,-289.71C-454.90,-296.65 -450.42,-305.44 -451.24,-316.08C-451.77,-323.28 -454.88,-329.50 -460.57,-334.72C-477.91,-330.22 -497.77,-333.21 -520.13,-343.70ZM-530.70,-272.00L-562.82,-284.36L-539.95,-436.01C-526.27,-437.67 -510.04,-437.24 -491.24,-434.73C-472.44,-432.22 -461.36,-429.26 -457.99,-425.84C-453.57,-421.93 -447.80,-415.40 -440.68,-406.24C-433.57,-397.07 -428.06,-389.37 -424.15,-383.11C-422.59,-379.48 -422.18,-375.21 -422.92,-370.31C-423.66,-365.40 -426.25,-360.01 -430.70,-354.13C-435.15,-348.24 -440.63,-343.53 -447.15,-339.98C-435.46,-330.61 -426.27,-320.73 -419.58,-310.34C-417.37,-306.77 -417.02,-302.11 -418.54,-296.35C-420.05,-290.59 -423.42,-284.87 -428.65,-279.18C-433.88,-273.50 -441.17,-268.85 -450.53,-265.25C-459.89,-261.65 -471.20,-260.15 -484.46,-260.78C-497.71,-261.40 -513.13,-265.14 -530.70,-272.00ZM-378.09,-334.42L-387.65,-357.95C-376.14,-359.13 -363.44,-359.96 -349.53,-360.46C-335.62,-360.95 -326.94,-360.85 -323.48,-360.17C-320.02,-359.49 -313.84,-353.26 -304.94,-341.48C-296.04,-329.70 -290.17,-320.84 -287.34,-314.92C-286.36,-312.83 -286.69,-306.36 -288.32,-295.53C-289.96,-284.69 -292.02,-272.34 -294.52,-258.48C-297.01,-244.61 -298.55,-235.22 -299.13,-230.29L-327.52,-241.61L-325.46,-253.67C-340.21,-242.79 -351.61,-237.96 -359.68,-239.17C-367.25,-240.48 -375.82,-249.13 -385.38,-265.14C-394.94,-281.14 -399.26,-292.23 -398.33,-298.40C-397.59,-303.30 -393.58,-307.31 -386.32,-310.42C-379.05,-313.53 -370.46,-315.51 -360.55,-316.37C-350.63,-317.22 -341.86,-317.71 -334.23,-317.86C-326.60,-318.00 -320.14,-317.92 -314.85,-317.61L-313.65,-323.98C-312.34,-331.55 -315.76,-336.27 -323.89,-338.14C-331.41,-339.76 -347.90,-338.77 -373.37,-335.17L-373.60,-335.20L-373.88,-335.00L-374.11,-335.04L-374.35,-335.07L-374.62,-334.87L-374.86,-334.91L-375.10,-334.94L-375.37,-334.74L-375.61,-334.78L-375.85,-334.81L-376.12,-334.61L-376.36,-334.65L-376.59,-334.68L-376.83,-334.72L-377.10,-334.52L-377.34,-334.55L-377.58,-334.59L-377.85,-334.39ZM-375.20,-273.07C-374.11,-270.64 -371.64,-268.81 -367.78,-267.58C-363.92,-266.35 -357.79,-266.52 -349.38,-268.08C-340.97,-269.65 -331.58,-273.20 -321.19,-278.76L-317.81,-299.61C-361.41,-293.72 -380.54,-284.88 -375.20,-273.07ZM-172.10,-333.95L-143.44,-322.83L-160.57,-209.16L-189.24,-220.27L-187.45,-232.14C-202.06,-221.07 -214.69,-216.75 -225.33,-219.16C-230.34,-220.24 -238.48,-227.45 -249.73,-240.80C-260.99,-254.15 -266.68,-263.10 -266.80,-267.65C-266.81,-271.85 -263.17,-298.17 -255.87,-346.58L-227.45,-335.50C-236.44,-281.19 -240.40,-252.26 -239.32,-248.70C-236.82,-243.79 -232.25,-241.64 -225.60,-242.26C-218.96,-242.88 -211.16,-246.31 -202.21,-252.57C-193.25,-258.82 -186.21,-266.09 -181.08,-274.38ZM-97.09,-206.87L-97.49,-207.41L-126.90,-218.40L-104.07,-369.81L-2.74,-354.53L13.03,-330.31L-74.54,-343.51L-81.41,-297.95L-22.32,-289.04L-6.55,-264.82L-84.39,-276.55L-91.73,-227.90L-13.89,-216.17L1.88,-191.95ZM66.39,-291.44L63.74,-273.88C78.03,-290.33 89.22,-297.95 97.28,-296.73C101.24,-296.14 107.58,-293.12 116.31,-287.68C125.03,-282.23 132.24,-276.90 137.92,-271.67L117.97,-250.41C109.26,-259.17 101.36,-264.44 94.26,-266.24C87.17,-268.04 81.22,-267.48 76.42,-264.56C71.61,-261.65 66.15,-256.61 60.06,-249.43L49.25,-177.76L20.59,-188.88L37.73,-302.56ZM172.91,-178.54C184.45,-170.32 200.03,-171.13 219.63,-180.96L229.69,-247.65C225.50,-251.03 219.37,-253.81 211.29,-256.00C204.89,-257.61 198.07,-255.28 190.82,-249.02C183.56,-242.75 177.63,-235.11 173.04,-226.09C168.44,-217.07 165.88,-207.87 165.36,-198.49C164.83,-189.10 167.35,-182.45 172.91,-178.54ZM241.82,-328.10L270.48,-316.98C255.33,-210.04 247.20,-156.17 246.11,-155.37C245.30,-155.33 241.09,-155.03 233.48,-154.48C225.87,-153.93 221.02,-153.65 218.91,-153.64C216.81,-153.64 212.50,-153.80 206.00,-154.13C199.50,-154.46 194.43,-155.23 190.81,-156.42C187.19,-157.62 182.72,-159.38 177.41,-161.72C172.10,-164.06 167.13,-167.03 162.50,-170.64C154.22,-176.91 148.16,-183.97 144.33,-191.83C140.50,-199.69 138.99,-207.36 139.79,-214.84C140.60,-222.32 142.60,-229.75 145.82,-237.11C149.03,-244.47 153.38,-251.02 158.85,-256.75C164.33,-262.48 170.00,-267.40 175.89,-271.53C181.77,-275.66 187.72,-278.37 193.73,-279.64C199.75,-280.92 204.87,-280.51 209.08,-278.42C211.05,-277.48 213.08,-276.24 215.20,-274.71C217.31,-273.18 219.05,-271.82 220.41,-270.65C221.77,-269.47 223.69,-267.72 226.17,-265.41C228.66,-263.09 230.47,-261.44 231.62,-260.46ZM308.02,-194.09L367.43,-222.75C357.14,-231.75 347.86,-235.90 339.58,-235.20C331.30,-234.51 324.43,-230.49 318.95,-223.14C313.47,-215.80 309.83,-206.11 308.02,-194.09ZM310.04,-170.48C313.66,-164.44 318.14,-160.36 323.49,-158.26C328.84,-156.16 334.76,-156.04 341.27,-157.89C347.78,-159.74 353.30,-161.74 357.83,-163.89C362.36,-166.03 367.74,-168.99 373.97,-172.74L378.00,-167.28C380.51,-163.50 383.01,-159.73 385.52,-155.95L389.55,-150.49C374.26,-142.44 361.61,-137.43 351.60,-135.46C341.60,-133.49 332.19,-134.94 323.38,-139.83C310.56,-147.11 299.13,-158.21 289.09,-173.16C283.16,-182.14 280.46,-192.14 280.98,-203.14C281.51,-214.15 284.42,-224.02 289.70,-232.77C294.98,-241.52 302.19,-248.57 311.33,-253.90C320.47,-259.24 329.86,-261.18 339.51,-259.73C345.84,-258.77 354.60,-253.29 365.79,-243.27C376.99,-233.25 386.11,-223.74 393.17,-214.75C392.94,-214.30 385.92,-210.38 372.10,-203.00C358.29,-195.61 344.45,-188.35 330.59,-181.22ZM454.88,-232.87L453.41,-223.14C469.47,-234.15 482.76,-238.54 493.26,-236.31C498.28,-235.23 506.23,-227.59 517.11,-213.41C528.00,-199.23 533.51,-189.87 533.63,-185.32C533.64,-181.11 530.00,-154.80 522.70,-106.38L494.28,-117.47C503.41,-171.59 507.34,-200.36 506.08,-203.79C504.04,-209.60 499.58,-211.93 492.69,-210.78C485.80,-209.64 478.42,-206.83 470.55,-202.35C462.67,-197.88 455.09,-192.39 447.80,-185.88L437.74,-119.19L407.89,-130.49L425.03,-244.16Z" fill="#ffffff" stroke="#000000"/>
    <path d="M-495.85,-421.61L-505.56,-369.06C-493.58,-366.80 -482.94,-366.35 -473.66,-367.74C-464.37,-369.12 -457.29,-371.65 -452.40,-375.32C-447.52,-378.99 -443.67,-383.13 -440.86,-387.76C-438.05,-392.38 -436.54,-396.77 -436.32,-400.92C-436.10,-405.07 -436.67,-408.24 -438.02,-410.43C-440.39,-414.10 -444.72,-416.97 -451.02,-419.05C-457.31,-421.13 -464.22,-422.27 -471.76,-422.49C-479.29,-422.71 -487.32,-422.41 -495.85,-421.61ZM-507.76,-357.39L-518.53,-299.24C-491.37,-291.20 -470.17,-292.11 -454.93,-301.95C-445.00,-308.45 -440.24,-316.98 -440.66,-327.53C-440.92,-334.67 -443.76,-340.93 -449.19,-346.31C-466.51,-342.50 -486.04,-346.19 -507.76,-357.39ZM-520.87,-286.88L-552.17,-300.29L-523.95,-449.41C-510.36,-450.54 -494.32,-449.52 -475.82,-446.34C-457.33,-443.17 -446.48,-439.82 -443.28,-436.32C-439.04,-432.29 -433.58,-425.62 -426.88,-416.29C-420.19,-406.97 -415.02,-399.14 -411.38,-392.81C-409.98,-389.17 -409.73,-384.93 -410.65,-380.11C-411.56,-375.28 -414.32,-370.05 -418.94,-364.39C-423.55,-358.74 -429.15,-354.28 -435.73,-351.01C-424.51,-341.32 -415.79,-331.21 -409.57,-320.68C-407.51,-317.07 -407.34,-312.44 -409.05,-306.81C-410.76,-301.17 -414.31,-295.63 -419.69,-290.21C-425.06,-284.78 -432.45,-280.46 -441.84,-277.24C-451.23,-274.02 -462.47,-272.96 -475.55,-274.07C-488.64,-275.18 -503.74,-279.45 -520.87,-286.88ZM-367.64,-342.96L-376.22,-366.58C-364.80,-367.32 -352.21,-367.68 -338.44,-367.65C-324.66,-367.62 -316.08,-367.20 -312.69,-366.40C-309.29,-365.60 -303.41,-359.21 -295.04,-347.23C-286.68,-335.25 -281.20,-326.28 -278.63,-320.31C-277.73,-318.21 -278.30,-311.83 -280.31,-301.17C-282.33,-290.52 -284.83,-278.38 -287.81,-264.76C-290.79,-251.15 -292.66,-241.91 -293.42,-237.06L-321.07,-249.30L-318.59,-261.16C-333.57,-250.95 -345.03,-246.59 -352.97,-248.09C-360.40,-249.66 -368.55,-258.53 -377.42,-274.71C-386.28,-290.89 -390.14,-302.02 -388.99,-308.08C-388.07,-312.91 -383.97,-316.72 -376.67,-319.53C-369.37,-322.34 -360.80,-323.98 -350.96,-324.46C-341.12,-324.93 -332.43,-325.10 -324.88,-324.96C-317.33,-324.82 -310.95,-324.50 -305.73,-323.99L-304.30,-330.25C-302.73,-337.69 -305.93,-342.48 -313.91,-344.64C-321.29,-346.52 -337.63,-346.14 -362.94,-343.52L-363.18,-343.57L-363.45,-343.38L-363.69,-343.42L-363.92,-343.47L-364.20,-343.28L-364.43,-343.32L-364.67,-343.36L-364.94,-343.18L-365.18,-343.22L-365.41,-343.26L-365.69,-343.07L-365.92,-343.12L-366.15,-343.16L-366.39,-343.21L-366.66,-343.02L-366.90,-343.06L-367.13,-343.11L-367.41,-342.92ZM-367.06,-282.18C-366.07,-279.74 -363.69,-277.84 -359.92,-276.48C-356.15,-275.12 -350.08,-275.06 -341.71,-276.29C-333.33,-277.53 -323.91,-280.70 -313.44,-285.81L-309.32,-306.30C-352.66,-302.09 -371.90,-294.05 -367.06,-282.18ZM-163.96,-334.87L-136.02,-322.81L-157.18,-211.03L-185.11,-223.09L-182.90,-234.76C-197.76,-224.36 -210.41,-220.55 -220.84,-223.33C-225.76,-224.58 -233.54,-232.01 -244.18,-245.63C-254.81,-259.24 -260.11,-268.30 -260.06,-272.81C-259.92,-276.97 -255.34,-302.85 -246.33,-350.46L-218.63,-338.45C-229.54,-285.08 -234.52,-256.61 -233.59,-253.05C-231.30,-248.11 -226.86,-245.82 -220.26,-246.18C-213.67,-246.54 -205.83,-249.65 -196.74,-255.51C-187.66,-261.36 -180.42,-268.29 -175.04,-276.30ZM-94.48,-206.42L-94.86,-206.98L-123.54,-218.93L-95.36,-367.81L4.28,-348.95L18.98,-324.42L-67.13,-340.71L-75.61,-295.91L-17.50,-284.91L-2.81,-260.38L-79.35,-274.86L-88.41,-227.02L-11.86,-212.54L2.83,-188.00ZM70.31,-284.00L67.04,-266.74C81.78,-282.48 93.12,-289.60 101.06,-288.10C104.94,-287.36 111.10,-284.14 119.53,-278.43C127.96,-272.73 134.89,-267.19 140.31,-261.81L119.80,-241.52C111.51,-250.50 103.89,-256.02 96.94,-258.06C90.00,-260.10 84.09,-259.76 79.23,-257.06C74.36,-254.35 68.79,-249.57 62.49,-242.70L49.15,-172.23L21.22,-184.28L42.38,-296.06ZM171.47,-168.41C182.58,-159.87 198.01,-160.09 217.76,-169.08L230.17,-234.65C226.16,-238.15 220.20,-241.13 212.28,-243.60C206.02,-245.43 199.19,-243.38 191.78,-237.45C184.37,-231.52 178.23,-224.18 173.35,-215.43C168.48,-206.69 165.60,-197.68 164.74,-188.42C163.87,-179.16 166.11,-172.49 171.47,-168.41ZM245.14,-313.76L273.07,-301.71C254.13,-196.52 244.11,-143.55 243.00,-142.79C242.19,-142.78 238.02,-142.65 230.47,-142.38C222.93,-142.12 218.12,-142.02 216.04,-142.09C213.95,-142.16 209.70,-142.48 203.29,-143.05C196.87,-143.63 191.89,-144.57 188.35,-145.88C184.81,-147.20 180.46,-149.11 175.30,-151.62C170.13,-154.12 165.32,-157.25 160.88,-160.99C152.92,-167.49 147.19,-174.70 143.70,-182.61C140.20,-190.53 138.99,-198.17 140.06,-205.54C141.13,-212.91 143.39,-220.18 146.84,-227.34C150.29,-234.50 154.83,-240.81 160.46,-246.28C166.08,-251.74 171.88,-256.40 177.85,-260.27C183.82,-264.13 189.80,-266.59 195.80,-267.63C201.80,-268.67 206.84,-268.07 210.94,-265.85C212.84,-264.84 214.81,-263.54 216.84,-261.95C218.88,-260.36 220.55,-258.95 221.85,-257.74C223.15,-256.53 224.99,-254.73 227.35,-252.35C229.72,-249.97 231.46,-248.27 232.55,-247.25ZM305.65,-178.79L365.47,-204.94C355.62,-214.21 346.59,-218.66 338.38,-218.28C330.17,-217.90 323.22,-214.18 317.54,-207.12C311.85,-200.06 307.89,-190.62 305.65,-178.79ZM306.78,-155.37C310.13,-149.26 314.41,-145.07 319.62,-142.79C324.83,-140.52 330.69,-140.17 337.19,-141.76C343.70,-143.35 349.23,-145.12 353.79,-147.08C358.35,-149.04 363.78,-151.76 370.08,-155.24L373.86,-149.69C376.20,-145.86 378.54,-142.03 380.88,-138.21L384.66,-132.66C369.24,-125.26 356.55,-120.78 346.58,-119.20C336.61,-117.62 327.36,-119.41 318.83,-124.57C306.43,-132.24 295.53,-143.64 286.15,-158.79C280.62,-167.90 278.32,-177.88 279.25,-188.74C280.18,-199.61 283.42,-209.27 288.97,-217.72C294.51,-226.18 301.91,-232.88 311.14,-237.82C320.37,-242.76 329.74,-244.33 339.23,-242.54C345.45,-241.36 353.91,-235.61 364.60,-225.28C375.30,-214.96 383.97,-205.22 390.62,-196.07C390.37,-195.63 383.28,-192.02 369.35,-185.23C355.41,-178.44 341.46,-171.77 327.49,-165.23ZM452.31,-211.71L450.50,-202.14C466.79,-212.43 480.09,-216.28 490.40,-213.68C495.32,-212.43 502.90,-204.59 513.14,-190.16C523.38,-175.74 528.48,-166.27 528.43,-161.77C528.29,-157.60 523.71,-131.72 514.70,-84.12L487.00,-96.13C498.03,-149.31 502.99,-177.62 501.87,-181.06C500.07,-186.88 495.74,-189.35 488.89,-188.47C482.03,-187.59 474.63,-185.08 466.68,-180.95C458.72,-176.81 451.02,-171.66 443.57,-165.50L431.16,-99.93L402.06,-112.20L423.21,-223.98Z" fill="#ffffff" stroke="#000000"/>
    <path d="M-480.81,-433.74L-492.35,-382.14C-480.59,-379.45 -470.10,-378.62 -460.86,-379.65C-451.63,-380.67 -444.53,-382.91 -439.56,-386.36C-434.60,-389.80 -430.64,-393.76 -427.69,-398.23C-424.75,-402.70 -423.09,-406.98 -422.71,-411.07C-422.34,-415.17 -422.79,-418.32 -424.05,-420.54C-426.25,-424.26 -430.43,-427.26 -436.57,-429.54C-442.72,-431.83 -449.51,-433.22 -456.95,-433.72C-464.40,-434.21 -472.35,-434.22 -480.81,-433.74ZM-494.97,-370.68L-507.76,-313.58C-481.20,-304.63 -460.21,-304.73 -444.78,-313.91C-434.72,-319.97 -429.70,-328.22 -429.72,-338.67C-429.71,-345.74 -432.29,-352.04 -437.46,-357.55C-454.73,-354.42 -473.90,-358.80 -494.97,-370.68ZM-510.54,-301.44L-540.99,-315.87L-507.57,-462.26C-494.09,-462.88 -478.26,-461.28 -460.09,-457.45C-441.92,-453.62 -431.32,-449.92 -428.28,-446.33C-424.24,-442.20 -419.09,-435.40 -412.81,-425.93C-406.54,-416.46 -401.72,-408.53 -398.36,-402.14C-397.10,-398.48 -397.02,-394.28 -398.10,-389.54C-399.18,-384.81 -402.11,-379.73 -406.88,-374.31C-411.65,-368.90 -417.35,-364.69 -423.98,-361.71C-413.25,-351.70 -405.00,-341.38 -399.23,-330.75C-397.33,-327.10 -397.33,-322.52 -399.23,-317.01C-401.13,-311.50 -404.84,-306.16 -410.36,-300.99C-415.88,-295.82 -423.34,-291.82 -432.75,-288.98C-442.15,-286.15 -453.31,-285.52 -466.20,-287.10C-479.10,-288.68 -493.88,-293.46 -510.54,-301.44ZM-356.95,-351.23L-364.56,-374.90C-353.24,-375.21 -340.78,-375.09 -327.16,-374.55C-313.54,-374.02 -305.07,-373.29 -301.75,-372.37C-298.42,-371.45 -292.84,-364.91 -285.01,-352.76C-277.18,-340.61 -272.10,-331.53 -269.77,-325.54C-268.97,-323.42 -269.76,-317.14 -272.15,-306.68C-274.54,-296.21 -277.46,-284.30 -280.91,-270.95C-284.36,-257.60 -286.55,-248.54 -287.48,-243.77L-314.37,-256.90L-311.47,-268.53C-326.67,-258.98 -338.16,-255.10 -345.95,-256.87C-353.25,-258.70 -360.98,-267.78 -369.14,-284.10C-377.31,-300.43 -380.71,-311.57 -379.35,-317.53C-378.27,-322.26 -374.07,-325.89 -366.74,-328.39C-359.42,-330.90 -350.89,-332.20 -341.14,-332.31C-331.40,-332.41 -322.79,-332.26 -315.34,-331.84C-307.88,-331.42 -301.58,-330.87 -296.43,-330.18L-294.79,-336.31C-292.97,-343.61 -295.95,-348.47 -303.76,-350.89C-310.98,-353.02 -327.16,-353.26 -352.28,-351.61L-352.51,-351.66L-352.80,-351.48L-353.02,-351.53L-353.25,-351.59L-353.54,-351.41L-353.76,-351.46L-353.99,-351.51L-354.27,-351.34L-354.50,-351.39L-354.73,-351.44L-355.01,-351.26L-355.24,-351.32L-355.47,-351.37L-355.70,-351.42L-355.98,-351.24L-356.21,-351.30L-356.44,-351.35L-356.72,-351.17ZM-358.63,-291.10C-357.74,-288.65 -355.46,-286.68 -351.78,-285.20C-348.10,-283.72 -342.10,-283.43 -333.77,-284.35C-325.45,-285.26 -316.02,-288.05 -305.47,-292.71L-300.64,-312.82C-343.65,-310.26 -362.97,-303.02 -358.63,-291.10ZM-155.85,-335.68L-128.68,-322.73L-153.73,-212.99L-180.91,-225.94L-178.29,-237.40C-193.37,-227.66 -206.01,-224.36 -216.23,-227.50C-221.04,-228.92 -228.46,-236.56 -238.47,-250.42C-248.49,-264.27 -253.39,-273.43 -253.17,-277.88C-252.88,-281.99 -247.40,-307.41 -236.73,-354.15L-209.78,-341.25C-222.54,-288.88 -228.52,-260.92 -227.73,-257.36C-225.65,-252.39 -221.34,-249.96 -214.81,-250.07C-208.27,-250.19 -200.41,-252.97 -191.21,-258.43C-182.01,-263.88 -174.60,-270.46 -168.98,-278.18ZM-91.91,-206.11L-92.26,-206.67L-120.17,-219.55L-86.80,-365.72L11.02,-343.39L24.64,-318.58L-59.89,-337.88L-69.94,-293.89L-12.89,-280.87L0.73,-256.07L-74.42,-273.22L-85.14,-226.26L-9.99,-209.10L3.63,-184.30ZM73.90,-276.72L70.03,-259.77C85.19,-274.79 96.67,-281.41 104.46,-279.63C108.28,-278.76 114.25,-275.35 122.37,-269.39C130.49,-263.44 137.14,-257.71 142.30,-252.19L121.26,-232.89C113.40,-242.07 106.07,-247.80 99.28,-250.08C92.48,-252.35 86.63,-252.24 81.73,-249.75C76.82,-247.25 71.12,-242.73 64.65,-236.17L48.85,-166.98L21.68,-179.93L46.73,-289.68ZM169.65,-158.69C180.32,-149.82 195.59,-149.47 215.45,-157.63L230.14,-222.01C226.31,-225.62 220.52,-228.79 212.79,-231.52C206.67,-233.56 199.83,-231.78 192.29,-226.19C184.75,-220.60 178.40,-213.57 173.26,-205.11C168.11,-196.64 164.94,-187.84 163.74,-178.72C162.54,-169.59 164.51,-162.91 169.65,-158.69ZM247.88,-299.68L275.05,-286.72C252.43,-183.42 240.56,-131.41 239.43,-130.70C238.63,-130.72 234.50,-130.74 227.03,-130.76C219.56,-130.78 214.80,-130.86 212.74,-131.01C210.69,-131.16 206.50,-131.63 200.17,-132.43C193.85,-133.23 188.96,-134.35 185.51,-135.78C182.06,-137.21 177.83,-139.26 172.81,-141.93C167.80,-144.60 163.16,-147.87 158.90,-151.74C151.28,-158.46 145.88,-165.80 142.72,-173.75C139.55,-181.71 138.63,-189.31 139.97,-196.56C141.30,-203.81 143.81,-210.91 147.48,-217.86C151.16,-224.82 155.88,-230.89 161.65,-236.08C167.41,-241.27 173.32,-245.67 179.36,-249.27C185.41,-252.87 191.41,-255.08 197.38,-255.88C203.35,-256.69 208.32,-255.92 212.28,-253.57C214.13,-252.50 216.03,-251.14 217.98,-249.49C219.93,-247.84 221.53,-246.39 222.77,-245.15C224.01,-243.90 225.76,-242.05 228.02,-239.61C230.27,-237.17 231.92,-235.42 232.97,-234.38ZM302.71,-163.98L362.82,-187.62C353.43,-197.16 344.67,-201.89 336.54,-201.82C328.41,-201.75 321.40,-198.32 315.51,-191.55C309.63,-184.78 305.36,-175.59 302.71,-163.98ZM302.96,-140.78C306.05,-134.62 310.13,-130.31 315.19,-127.87C320.26,-125.42 326.04,-124.87 332.53,-126.20C339.02,-127.53 344.56,-129.08 349.14,-130.84C353.72,-132.61 359.19,-135.10 365.55,-138.31L369.08,-132.68C371.25,-128.81 373.42,-124.94 375.59,-121.07L379.13,-115.44C363.61,-108.70 350.89,-104.73 340.98,-103.54C331.06,-102.35 321.98,-104.46 313.74,-109.88C301.75,-117.92 291.41,-129.60 282.69,-144.93C277.56,-154.14 275.66,-164.09 276.98,-174.80C278.30,-185.51 281.86,-194.94 287.66,-203.09C293.45,-211.25 301.01,-217.60 310.32,-222.14C319.64,-226.69 328.95,-227.89 338.27,-225.77C344.38,-224.37 352.53,-218.37 362.72,-207.77C372.92,-197.17 381.13,-187.22 387.37,-177.92C387.11,-177.50 379.96,-174.19 365.93,-167.99C351.91,-161.79 337.86,-155.72 323.81,-149.76ZM448.95,-191.10L446.80,-181.70C463.29,-191.28 476.58,-194.59 486.68,-191.64C491.49,-190.22 498.70,-182.19 508.29,-167.55C517.89,-152.90 522.58,-143.35 522.36,-138.90C522.07,-134.79 516.58,-109.37 505.91,-62.63L478.97,-75.53C491.85,-127.71 497.79,-155.52 496.81,-158.96C495.25,-164.78 491.06,-167.38 484.25,-166.77C477.44,-166.15 470.03,-163.95 462.01,-160.15C453.99,-156.36 446.19,-151.55 438.59,-145.73L423.89,-81.36L395.57,-94.57L420.63,-204.31Z" fill="#ffffff" stroke="#000000"/>
    <path d="M-465.43,-445.37L-478.75,-394.78C-467.22,-391.69 -456.87,-390.48 -447.70,-391.15C-438.54,-391.82 -431.44,-393.77 -426.40,-396.99C-421.36,-400.22 -417.31,-403.98 -414.22,-408.29C-411.14,-412.60 -409.34,-416.77 -408.82,-420.81C-408.31,-424.84 -408.63,-427.98 -409.79,-430.21C-411.84,-433.97 -415.85,-437.09 -421.85,-439.58C-427.84,-442.07 -434.50,-443.70 -441.84,-444.46C-449.18,-445.22 -457.04,-445.52 -465.43,-445.37ZM-481.76,-383.55L-496.52,-327.57C-470.59,-317.73 -449.83,-317.06 -434.23,-325.56C-424.06,-331.18 -418.79,-339.15 -418.43,-349.49C-418.16,-356.47 -420.48,-362.79 -425.39,-368.44C-442.57,-365.99 -461.36,-371.02 -481.76,-383.55ZM-499.71,-315.67L-529.28,-331.05L-490.82,-474.56C-477.47,-474.67 -461.89,-472.50 -444.06,-468.04C-426.24,-463.59 -415.90,-459.53 -413.03,-455.87C-409.19,-451.63 -404.34,-444.72 -398.49,-435.13C-392.63,-425.53 -388.16,-417.52 -385.08,-411.07C-383.97,-407.41 -384.04,-403.25 -385.29,-398.61C-386.53,-393.97 -389.61,-389.06 -394.53,-383.88C-399.45,-378.70 -405.24,-374.75 -411.90,-372.05C-401.66,-361.76 -393.89,-351.25 -388.58,-340.52C-386.84,-336.85 -387.01,-332.32 -389.09,-326.94C-391.18,-321.56 -395.04,-316.42 -400.69,-311.51C-406.34,-306.61 -413.86,-302.93 -423.26,-300.47C-432.67,-298.02 -443.72,-297.81 -456.41,-299.85C-469.10,-301.89 -483.53,-307.16 -499.71,-315.67ZM-346.02,-359.20L-352.67,-382.89C-341.47,-382.78 -329.15,-382.20 -315.70,-381.17C-302.26,-380.13 -293.91,-379.10 -290.66,-378.06C-287.41,-377.03 -282.13,-370.36 -274.84,-358.06C-267.55,-345.75 -262.86,-336.59 -260.78,-330.58C-260.07,-328.46 -261.08,-322.28 -263.83,-312.02C-266.58,-301.76 -269.91,-290.10 -273.81,-277.03C-277.72,-263.95 -280.22,-255.07 -281.31,-250.39L-307.41,-264.37L-304.12,-275.76C-319.50,-266.88 -331.00,-263.47 -338.64,-265.52C-345.78,-267.59 -353.09,-276.85 -360.56,-293.29C-368.03,-309.74 -370.98,-320.88 -369.41,-326.72C-368.17,-331.36 -363.88,-334.78 -356.55,-336.99C-349.22,-339.20 -340.73,-340.17 -331.09,-339.92C-321.45,-339.66 -312.95,-339.19 -305.60,-338.50C-298.24,-337.81 -292.03,-337.03 -286.97,-336.15L-285.12,-342.16C-283.04,-349.30 -285.82,-354.22 -293.44,-356.91C-300.51,-359.28 -316.49,-360.11 -341.39,-359.41L-341.62,-359.47L-341.90,-359.30L-342.13,-359.36L-342.35,-359.42L-342.64,-359.26L-342.86,-359.32L-343.09,-359.38L-343.37,-359.22L-343.60,-359.28L-343.82,-359.34L-344.11,-359.17L-344.33,-359.23L-344.56,-359.29L-344.78,-359.35L-345.06,-359.19L-345.29,-359.25L-345.51,-359.31L-345.80,-359.14ZM-349.90,-299.83C-349.12,-297.37 -346.93,-295.34 -343.35,-293.74C-339.77,-292.14 -333.85,-291.63 -325.58,-292.22C-317.32,-292.82 -307.89,-295.22 -297.29,-299.44L-291.77,-319.15C-334.38,-318.21 -353.76,-311.77 -349.90,-299.83ZM-147.78,-336.40L-121.39,-322.59L-150.22,-215.02L-176.61,-228.83L-173.60,-240.06C-188.87,-230.99 -201.49,-228.19 -211.47,-231.67C-216.18,-233.26 -223.23,-241.08 -232.62,-255.15C-242.00,-269.22 -246.51,-278.45 -246.14,-282.85C-245.69,-286.90 -239.33,-311.83 -227.05,-357.65L-200.89,-343.89C-215.44,-292.59 -222.39,-265.17 -221.74,-261.62C-219.86,-256.63 -215.70,-254.07 -209.23,-253.94C-202.77,-253.81 -194.89,-256.27 -185.59,-261.32C-176.29,-266.37 -168.72,-272.61 -162.88,-280.03ZM-89.35,-205.92L-89.68,-206.49L-116.80,-220.26L-78.40,-363.54L17.49,-337.84L30.04,-312.81L-52.83,-335.02L-64.38,-291.90L-8.46,-276.91L4.09,-251.89L-69.57,-271.63L-81.91,-225.59L-8.25,-205.85L4.29,-180.82ZM77.19,-269.60L72.74,-252.98C88.28,-267.27 99.87,-273.39 107.51,-271.35C111.25,-270.34 117.03,-266.75 124.84,-260.56C132.65,-254.38 139.01,-248.46 143.91,-242.81L122.40,-224.51C114.96,-233.88 107.93,-239.82 101.29,-242.32C94.66,-244.82 88.87,-244.93 83.93,-242.64C78.98,-240.36 73.19,-236.09 66.54,-229.85L48.36,-162.03L21.98,-175.84L50.81,-283.41ZM167.49,-149.36C177.71,-140.20 192.79,-139.29 212.73,-146.62L229.64,-209.73C225.98,-213.44 220.38,-216.78 212.83,-219.77C206.86,-222.01 200.04,-220.51 192.37,-215.26C184.71,-210.02 178.17,-203.30 172.77,-195.12C167.37,-186.94 163.91,-178.36 162.38,-169.38C160.86,-160.40 162.56,-153.73 167.49,-149.36ZM250.04,-285.86L276.43,-272.05C250.24,-170.75 236.58,-119.77 235.44,-119.11C234.65,-119.16 230.57,-119.33 223.18,-119.63C215.80,-119.92 211.10,-120.18 209.07,-120.40C207.04,-120.62 202.92,-121.25 196.69,-122.28C190.47,-123.30 185.68,-124.59 182.32,-126.13C178.96,-127.67 174.85,-129.85 170.00,-132.68C165.14,-135.51 160.67,-138.91 156.60,-142.89C149.31,-149.82 144.25,-157.27 141.42,-165.25C138.58,-173.23 137.96,-180.78 139.54,-187.90C141.13,-195.02 143.87,-201.95 147.76,-208.68C151.65,-215.42 156.55,-221.25 162.44,-226.17C168.33,-231.09 174.33,-235.22 180.44,-238.56C186.55,-241.90 192.57,-243.85 198.50,-244.43C204.43,-245.01 209.32,-244.06 213.15,-241.59C214.93,-240.47 216.76,-239.06 218.63,-237.35C220.50,-235.65 222.03,-234.15 223.21,-232.87C224.39,-231.59 226.05,-229.71 228.19,-227.21C230.33,-224.71 231.89,-222.92 232.89,-221.85ZM299.24,-149.67L359.54,-170.82C350.61,-180.59 342.12,-185.60 334.08,-185.83C326.04,-186.06 318.98,-182.93 312.91,-176.46C306.84,-169.98 302.29,-161.05 299.24,-149.67ZM298.62,-126.73C301.45,-120.52 305.32,-116.11 310.24,-113.50C315.16,-110.90 320.85,-110.14 327.32,-111.21C333.79,-112.29 339.32,-113.62 343.91,-115.19C348.51,-116.77 354.01,-119.03 360.41,-121.96L363.70,-116.27C365.70,-112.36 367.70,-108.46 369.70,-104.55L372.99,-98.85C357.40,-92.76 344.68,-89.31 334.83,-88.50C324.99,-87.69 316.09,-90.11 308.14,-95.78C296.59,-104.17 286.79,-116.10 278.74,-131.58C274.01,-140.87 272.49,-150.78 274.19,-161.32C275.90,-171.86 279.76,-181.05 285.80,-188.90C291.83,-196.75 299.54,-202.75 308.92,-206.89C318.29,-211.04 327.55,-211.89 336.68,-209.44C342.67,-207.84 350.50,-201.60 360.19,-190.74C369.88,-179.88 377.63,-169.74 383.45,-160.32C383.18,-159.91 375.99,-156.90 361.89,-151.29C347.79,-145.68 333.68,-140.20 319.57,-134.83ZM444.82,-171.07L442.35,-161.86C459.01,-170.72 472.27,-173.50 482.14,-170.21C486.85,-168.63 493.68,-160.42 502.62,-145.59C511.56,-130.76 515.85,-121.14 515.47,-116.75C515.03,-112.70 508.67,-87.76 496.39,-41.95L470.23,-55.70C484.89,-106.81 491.80,-134.09 490.95,-137.52C489.62,-143.34 485.58,-146.06 478.82,-145.71C472.07,-145.35 464.66,-143.45 456.59,-139.99C448.52,-136.54 440.63,-132.08 432.90,-126.60L415.99,-63.50L388.48,-77.61L417.31,-185.18Z" fill="#ffffff" stroke="#000000"/>
    <path d="M-449.71,-456.48L-464.75,-406.96C-453.47,-403.48 -443.28,-401.90 -434.20,-402.23C-425.11,-402.55 -418.02,-404.22 -412.92,-407.22C-407.82,-410.22 -403.67,-413.79 -400.47,-417.94C-397.26,-422.08 -395.33,-426.14 -394.66,-430.11C-394.00,-434.07 -394.21,-437.19 -395.27,-439.44C-397.15,-443.23 -401.01,-446.47 -406.84,-449.15C-412.67,-451.83 -419.20,-453.68 -426.43,-454.71C-433.65,-455.74 -441.41,-456.33 -449.71,-456.48ZM-468.14,-395.97L-484.80,-341.18C-459.54,-330.50 -439.04,-329.07 -423.31,-336.89C-413.04,-342.07 -407.54,-349.76 -406.80,-359.96C-406.28,-366.86 -408.34,-373.19 -412.98,-378.95C-430.06,-377.16 -448.44,-382.83 -468.14,-395.97ZM-488.40,-329.53L-517.07,-345.84L-473.73,-486.28C-460.53,-485.89 -445.21,-483.17 -427.75,-478.11C-410.30,-473.04 -400.22,-468.65 -397.52,-464.93C-393.88,-460.60 -389.35,-453.58 -383.92,-443.88C-378.48,-434.18 -374.36,-426.09 -371.55,-419.60C-370.59,-415.94 -370.82,-411.84 -372.22,-407.29C-373.62,-402.75 -376.85,-398.01 -381.90,-393.07C-386.96,-388.13 -392.83,-384.45 -399.51,-382.02C-389.77,-371.47 -382.47,-360.79 -377.62,-349.99C-376.04,-346.29 -376.37,-341.82 -378.63,-336.58C-380.89,-331.34 -384.90,-326.40 -390.67,-321.76C-396.43,-317.12 -404.00,-313.76 -413.39,-311.68C-422.78,-309.61 -433.71,-309.81 -446.18,-312.29C-458.65,-314.78 -472.72,-320.52 -488.40,-329.53ZM-334.86,-366.88L-340.56,-390.55C-329.49,-390.02 -317.33,-389.00 -304.08,-387.47C-290.83,-385.95 -282.61,-384.62 -279.43,-383.48C-276.26,-382.34 -271.29,-375.55 -264.54,-363.12C-257.78,-350.68 -253.49,-341.46 -251.65,-335.44C-251.03,-333.32 -252.26,-327.24 -255.36,-317.20C-258.45,-307.16 -262.17,-295.76 -266.52,-282.98C-270.86,-270.19 -273.66,-261.51 -274.92,-256.92L-300.20,-271.71L-296.52,-282.85C-312.05,-274.64 -323.55,-271.69 -331.03,-274.00C-338.01,-276.31 -344.90,-285.74 -351.67,-302.27C-358.44,-318.80 -360.95,-329.92 -359.19,-335.64C-357.78,-340.18 -353.42,-343.41 -346.09,-345.32C-338.76,-347.23 -330.34,-347.88 -320.82,-347.27C-311.30,-346.66 -302.91,-345.87 -295.66,-344.92C-288.42,-343.97 -282.31,-342.97 -277.34,-341.91L-275.29,-347.78C-272.97,-354.77 -275.53,-359.73 -282.97,-362.67C-289.87,-365.28 -305.64,-366.69 -330.28,-366.92L-330.50,-366.98L-330.79,-366.83L-331.01,-366.90L-331.23,-366.97L-331.51,-366.81L-331.73,-366.88L-331.95,-366.95L-332.24,-366.80L-332.46,-366.87L-332.68,-366.93L-332.97,-366.78L-333.19,-366.85L-333.41,-366.92L-333.63,-366.99L-333.91,-366.83L-334.13,-366.90L-334.35,-366.97L-334.64,-366.82ZM-340.89,-308.33C-340.21,-305.87 -338.12,-303.79 -334.64,-302.07C-331.16,-300.35 -325.32,-299.64 -317.13,-299.92C-308.94,-300.20 -299.53,-302.23 -288.90,-306.01L-282.71,-325.28C-324.87,-325.93 -344.27,-320.28 -340.89,-308.33ZM-139.73,-337.01L-114.15,-322.38L-146.63,-217.10L-172.21,-231.73L-168.82,-242.72C-184.25,-234.32 -196.83,-232.03 -206.57,-235.83C-211.16,-237.57 -217.84,-245.57 -226.60,-259.83C-235.36,-274.08 -239.48,-283.38 -238.94,-287.71C-238.35,-291.70 -231.14,-316.11 -217.31,-360.94L-191.95,-346.38C-208.24,-296.20 -216.12,-269.35 -215.61,-265.82C-213.94,-260.82 -209.92,-258.13 -203.53,-257.76C-197.14,-257.40 -189.26,-259.54 -179.89,-264.19C-170.51,-268.84 -162.80,-274.72 -156.75,-281.84ZM-86.80,-205.86L-87.10,-206.44L-113.40,-221.05L-70.14,-361.27L23.70,-332.31L35.18,-307.11L-45.91,-332.13L-58.93,-289.93L-4.21,-273.05L7.27,-247.84L-64.82,-270.09L-78.72,-225.03L-6.63,-202.79L4.85,-177.58ZM80.20,-262.65L75.18,-246.39C91.07,-259.94 102.76,-265.56 110.23,-263.25C113.89,-262.12 119.47,-258.36 126.96,-251.95C134.45,-245.55 140.52,-239.47 145.16,-233.70L123.21,-216.40C116.21,-225.94 109.48,-232.07 103.01,-234.79C96.55,-237.51 90.83,-237.83 85.86,-235.75C80.88,-233.67 75.00,-229.67 68.19,-223.75L47.72,-157.38L22.14,-172.01L54.62,-277.28ZM165.01,-140.44C174.77,-131.01 189.65,-129.55 209.63,-136.06L228.68,-197.82C225.20,-201.62 219.79,-205.14 212.44,-208.37C206.61,-210.81 199.82,-209.58 192.04,-204.67C184.27,-199.77 177.57,-193.37 171.92,-185.49C166.28,-177.60 162.54,-169.25 160.70,-160.43C158.86,-151.61 160.30,-144.95 165.01,-140.44ZM251.67,-272.32L277.24,-257.69C247.61,-158.52 232.22,-108.63 231.07,-108.03C230.29,-108.11 226.25,-108.43 218.97,-108.99C211.68,-109.56 207.04,-109.98 205.04,-110.28C203.05,-110.57 198.99,-111.34 192.88,-112.59C186.76,-113.83 182.07,-115.28 178.81,-116.93C175.55,-118.58 171.57,-120.89 166.87,-123.86C162.17,-126.84 157.89,-130.37 154.01,-134.45C147.06,-141.57 142.33,-149.13 139.82,-157.12C137.32,-165.11 136.98,-172.60 138.81,-179.58C140.64,-186.55 143.61,-193.30 147.70,-199.82C151.80,-206.34 156.85,-211.92 162.86,-216.57C168.87,-221.21 174.95,-225.07 181.11,-228.14C187.28,-231.22 193.30,-232.93 199.19,-233.28C205.07,-233.63 209.86,-232.51 213.56,-229.93C215.28,-228.75 217.04,-227.29 218.82,-225.54C220.61,-223.78 222.06,-222.25 223.18,-220.94C224.30,-219.63 225.87,-217.70 227.89,-215.15C229.92,-212.60 231.40,-210.78 232.35,-209.69ZM295.26,-135.88L355.66,-154.55C347.19,-164.55 338.98,-169.81 331.04,-170.33C323.10,-170.85 316.01,-168.03 309.77,-161.85C303.53,-155.67 298.70,-147.01 295.26,-135.88ZM293.81,-113.22C296.37,-106.97 300.04,-102.47 304.80,-99.72C309.57,-96.96 315.17,-96.00 321.60,-96.82C328.03,-97.64 333.55,-98.75 338.15,-100.14C342.75,-101.53 348.27,-103.56 354.71,-106.22L357.75,-100.47C359.58,-96.54 361.42,-92.60 363.25,-88.66L366.29,-82.91C350.65,-77.47 337.95,-74.53 328.19,-74.09C318.42,-73.65 309.72,-76.38 302.07,-82.27C290.96,-90.99 281.71,-103.15 274.33,-118.75C270.00,-128.11 268.87,-137.96 270.94,-148.32C273.01,-158.67 277.17,-167.62 283.43,-175.15C289.69,-182.69 297.52,-188.33 306.95,-192.09C316.37,-195.84 325.55,-196.34 334.49,-193.58C340.35,-191.77 347.86,-185.32 357.04,-174.22C366.21,-163.13 373.50,-152.82 378.90,-143.29C378.62,-142.89 371.41,-140.18 357.26,-135.16C343.11,-130.14 328.96,-125.24 314.81,-120.46ZM439.97,-151.64L437.19,-142.63C453.98,-150.77 467.20,-153.03 476.83,-149.42C481.43,-147.68 487.88,-139.31 496.17,-124.32C504.46,-109.32 508.34,-99.66 507.80,-95.33C507.21,-91.34 500.00,-66.93 486.17,-22.10L460.82,-36.66C477.20,-86.64 485.04,-113.35 484.33,-116.78C483.23,-122.57 479.34,-125.42 472.65,-125.32C465.96,-125.21 458.56,-123.60 450.46,-120.49C442.35,-117.37 434.38,-113.25 426.54,-108.13L407.49,-46.37L380.82,-61.34L413.30,-166.61Z" fill="#ffffff" stroke="#000000"/>
    <path d="M-433.68,-467.06L-450.38,-418.68C-439.35,-414.82 -429.35,-412.88 -420.35,-412.87C-411.36,-412.85 -404.29,-414.23 -399.14,-417.01C-393.99,-419.79 -389.75,-423.17 -386.43,-427.15C-383.11,-431.13 -381.05,-435.06 -380.25,-438.96C-379.44,-442.86 -379.53,-445.94 -380.50,-448.21C-382.22,-452.03 -385.91,-455.37 -391.58,-458.23C-397.24,-461.10 -403.63,-463.17 -410.73,-464.46C-417.84,-465.74 -425.48,-466.61 -433.68,-467.06ZM-454.13,-407.94L-472.63,-354.40C-448.05,-342.90 -427.84,-340.73 -412.00,-347.88C-401.67,-352.62 -395.95,-360.02 -394.84,-370.07C-394.06,-376.87 -395.86,-383.21 -400.24,-389.08C-417.19,-387.94 -435.15,-394.23 -454.13,-407.94ZM-476.62,-343.02L-504.35,-360.20L-456.32,-497.41C-443.29,-496.54 -428.24,-493.28 -411.18,-487.63C-394.11,-481.98 -384.31,-477.26 -381.78,-473.48C-378.34,-469.07 -374.12,-461.97 -369.11,-452.18C-364.10,-442.39 -360.33,-434.24 -357.79,-427.73C-356.98,-424.07 -357.35,-420.02 -358.90,-415.58C-360.46,-411.15 -363.82,-406.58 -369.00,-401.88C-374.18,-397.19 -380.12,-393.76 -386.82,-391.61C-377.58,-380.82 -370.76,-370.00 -366.36,-359.14C-364.93,-355.43 -365.43,-351.02 -367.86,-345.93C-370.28,-340.83 -374.43,-336.09 -380.30,-331.72C-386.17,-327.35 -393.78,-324.31 -403.14,-322.60C-412.49,-320.89 -423.29,-321.50 -435.52,-324.42C-447.76,-327.33 -461.46,-333.53 -476.62,-343.02ZM-323.47,-374.26L-328.23,-397.86C-317.31,-396.93 -305.32,-395.46 -292.28,-393.47C-279.24,-391.48 -271.17,-389.86 -268.07,-388.61C-264.97,-387.37 -260.32,-380.47 -254.10,-367.93C-247.88,-355.39 -243.98,-346.11 -242.39,-340.09C-241.85,-337.98 -243.29,-332.01 -246.72,-322.21C-250.16,-312.40 -254.26,-301.26 -259.02,-288.79C-263.79,-276.32 -266.88,-267.84 -268.29,-263.35L-292.74,-278.90L-288.69,-289.77C-304.34,-282.24 -315.82,-279.75 -323.12,-282.30C-329.94,-284.85 -336.39,-294.42 -342.48,-311.01C-348.56,-327.60 -350.62,-338.69 -348.67,-344.27C-347.12,-348.71 -342.68,-351.74 -335.37,-353.35C-328.05,-354.97 -319.70,-355.30 -310.32,-354.35C-300.93,-353.39 -292.67,-352.31 -285.54,-351.10C-278.41,-349.89 -272.41,-348.67 -267.54,-347.45L-265.29,-353.17C-262.74,-359.99 -265.09,-364.99 -272.33,-368.17C-279.06,-371.00 -294.59,-372.99 -318.94,-374.12L-319.16,-374.19L-319.45,-374.05L-319.66,-374.13L-319.88,-374.20L-320.17,-374.06L-320.38,-374.14L-320.59,-374.22L-320.88,-374.08L-321.10,-374.15L-321.31,-374.23L-321.60,-374.09L-321.82,-374.16L-322.03,-374.24L-322.25,-374.31L-322.54,-374.17L-322.75,-374.25L-322.97,-374.32L-323.26,-374.18ZM-331.60,-316.60C-331.01,-314.15 -329.03,-312.01 -325.65,-310.18C-322.27,-308.36 -316.53,-307.43 -308.43,-307.41C-300.32,-307.38 -290.94,-309.04 -280.29,-312.38L-273.46,-331.20C-315.11,-333.41 -334.49,-328.54 -331.60,-316.60ZM-131.70,-337.51L-106.96,-322.10L-142.96,-219.24L-167.70,-234.65L-163.94,-245.39C-179.50,-237.66 -192.02,-235.85 -201.51,-239.98C-205.99,-241.87 -212.29,-250.02 -220.43,-264.43C-228.56,-278.85 -232.28,-288.19 -231.59,-292.45C-230.86,-296.37 -222.83,-320.23 -207.50,-364.04L-182.98,-348.70C-200.93,-299.71 -209.71,-273.46 -209.33,-269.95C-207.87,-264.94 -204.00,-262.14 -197.70,-261.54C-191.40,-260.94 -183.53,-262.77 -174.09,-267.02C-164.65,-271.26 -156.81,-276.79 -150.56,-283.61ZM-84.24,-205.92L-84.51,-206.50L-109.97,-221.92L-62.02,-358.91L29.67,-326.82L40.08,-301.48L-39.15,-329.22L-53.58,-287.99L-0.11,-269.27L10.30,-243.94L-60.13,-268.59L-75.54,-224.57L-5.11,-199.92L5.31,-174.58ZM82.93,-255.87L77.37,-239.98C93.58,-252.79 105.34,-257.91 112.64,-255.36C116.22,-254.11 121.59,-250.18 128.76,-243.57C135.93,-236.96 141.70,-230.73 146.07,-224.86L123.74,-208.57C117.17,-218.26 110.74,-224.57 104.45,-227.49C98.16,-230.42 92.52,-230.94 87.53,-229.08C82.54,-227.21 76.57,-223.47 69.63,-217.87L46.93,-153.02L22.19,-168.43L58.19,-271.28ZM162.24,-131.94C171.54,-122.26 186.19,-120.27 206.18,-125.96L227.30,-186.30C224.00,-190.19 218.78,-193.86 211.64,-197.33C205.97,-199.95 199.20,-198.99 191.34,-194.43C183.48,-189.87 176.61,-183.80 170.74,-176.21C164.87,-168.62 160.87,-160.50 158.72,-151.85C156.58,-143.20 157.75,-136.57 162.24,-131.94ZM252.78,-259.09L277.52,-243.69C244.56,-146.76 227.49,-98.02 226.33,-97.46C225.57,-97.56 221.59,-98.03 214.41,-98.86C207.23,-99.68 202.66,-100.28 200.70,-100.65C198.74,-101.01 194.76,-101.92 188.76,-103.38C182.76,-104.84 178.18,-106.44 175.02,-108.19C171.85,-109.94 168.00,-112.37 163.47,-115.48C158.93,-118.60 154.83,-122.24 151.15,-126.42C144.54,-133.72 140.15,-141.36 137.96,-149.36C135.78,-157.35 135.72,-164.76 137.79,-171.59C139.86,-178.42 143.04,-184.98 147.33,-191.27C151.62,-197.56 156.82,-202.89 162.93,-207.26C169.04,-211.63 175.20,-215.22 181.40,-218.03C187.61,-220.84 193.63,-222.31 199.46,-222.44C205.29,-222.57 209.98,-221.29 213.54,-218.60C215.20,-217.37 216.88,-215.86 218.58,-214.06C220.28,-212.26 221.66,-210.69 222.72,-209.36C223.78,-208.02 225.26,-206.06 227.16,-203.46C229.07,-200.87 230.47,-199.01 231.36,-197.90ZM290.82,-122.61L351.21,-138.83C343.21,-149.03 335.29,-154.53 327.46,-155.34C319.63,-156.15 312.52,-153.62 306.12,-147.75C299.73,-141.87 294.63,-133.49 290.82,-122.61ZM288.54,-100.27C290.85,-94.00 294.30,-89.41 298.91,-86.52C303.52,-83.62 309.02,-82.46 315.41,-83.03C321.80,-83.61 327.29,-84.50 331.89,-85.70C336.49,-86.90 342.02,-88.70 348.48,-91.10L351.27,-85.30C352.94,-81.34 354.61,-77.39 356.28,-73.43L359.07,-67.63C343.41,-62.83 330.74,-60.39 321.08,-60.32C311.41,-60.25 302.91,-63.26 295.56,-69.37C284.91,-78.40 276.22,-90.76 269.50,-106.45C265.56,-115.87 264.81,-125.65 267.24,-135.81C269.67,-145.96 274.11,-154.65 280.58,-161.87C287.04,-169.09 295.00,-174.38 304.45,-177.74C313.90,-181.10 322.99,-181.25 331.72,-178.19C337.45,-176.19 344.64,-169.53 353.30,-158.23C361.96,-146.92 368.78,-136.46 373.77,-126.84C373.47,-126.46 366.24,-124.05 352.07,-119.61C337.91,-115.17 323.74,-110.85 309.57,-106.65ZM434.44,-132.84L431.36,-124.04C448.26,-131.46 461.40,-133.21 470.79,-129.28C475.27,-127.39 481.33,-118.88 488.97,-103.75C496.61,-88.62 500.09,-78.93 499.40,-74.67C498.67,-70.75 490.64,-46.89 475.31,-3.08L450.79,-18.41C468.83,-67.21 477.57,-93.32 477.00,-96.73C476.12,-102.50 472.38,-105.46 465.76,-105.61C459.14,-105.76 451.77,-104.44 443.65,-101.66C435.53,-98.88 427.50,-95.10 419.56,-90.33L398.44,-29.99L372.63,-45.77L408.63,-148.62Z" fill="#ffffff" stroke="#000000"/>
    <path d="M-417.35,-477.11L-435.64,-429.91C-424.89,-425.68 -415.07,-423.40 -406.18,-423.05C-397.29,-422.71 -390.25,-423.81 -385.06,-426.36C-379.87,-428.92 -375.56,-432.10 -372.13,-435.91C-368.70,-439.72 -366.52,-443.54 -365.58,-447.36C-364.64,-451.18 -364.61,-454.23 -365.49,-456.51C-367.05,-460.34 -370.57,-463.78 -376.07,-466.83C-381.56,-469.87 -387.79,-472.15 -394.77,-473.68C-401.74,-475.21 -409.27,-476.35 -417.35,-477.11ZM-439.75,-419.43L-460.02,-367.20C-436.15,-354.93 -416.26,-352.04 -400.34,-358.52C-389.95,-362.82 -384.02,-369.92 -382.55,-379.81C-381.53,-386.51 -383.08,-392.83 -387.18,-398.80C-403.98,-398.30 -421.50,-405.18 -439.75,-419.43ZM-464.37,-356.10L-491.15,-374.10L-438.61,-507.94C-425.76,-506.60 -411.00,-502.82 -394.35,-496.60C-377.69,-490.39 -368.18,-485.36 -365.82,-481.54C-362.59,-477.04 -358.68,-469.87 -354.09,-460.01C-349.50,-450.15 -346.07,-441.96 -343.80,-435.42C-343.13,-431.78 -343.65,-427.79 -345.35,-423.46C-347.05,-419.14 -350.55,-414.75 -355.84,-410.30C-361.13,-405.85 -367.12,-402.68 -373.83,-400.80C-365.09,-389.80 -358.76,-378.85 -354.81,-367.96C-353.54,-364.23 -354.19,-359.90 -356.78,-354.95C-359.36,-350.00 -363.64,-345.48 -369.60,-341.37C-375.56,-337.27 -383.20,-334.55 -392.51,-333.20C-401.82,-331.86 -412.46,-332.86 -424.45,-336.20C-436.43,-339.53 -449.74,-346.17 -464.37,-356.10ZM-311.86,-381.31L-315.69,-404.81C-304.93,-403.49 -293.14,-401.60 -280.33,-399.15C-267.51,-396.69 -259.60,-394.79 -256.58,-393.45C-253.56,-392.10 -249.21,-385.12 -243.53,-372.50C-237.85,-359.87 -234.34,-350.56 -232.99,-344.55C-232.53,-342.43 -234.18,-336.59 -237.94,-327.03C-241.69,-317.47 -246.16,-306.61 -251.33,-294.46C-256.50,-282.31 -259.87,-274.04 -261.43,-269.66L-285.01,-285.93L-280.61,-296.53C-296.36,-289.66 -307.79,-287.62 -314.92,-290.42C-321.56,-293.19 -327.59,-302.88 -332.98,-319.51C-338.38,-336.13 -340.01,-347.16 -337.88,-352.61C-336.18,-356.94 -331.68,-359.76 -324.39,-361.09C-317.10,-362.42 -308.84,-362.44 -299.60,-361.15C-290.35,-359.86 -282.23,-358.48 -275.23,-357.02C-268.23,-355.56 -262.34,-354.14 -257.57,-352.75L-255.14,-358.32C-252.37,-364.97 -254.51,-369.99 -261.55,-373.40C-268.09,-376.45 -283.37,-378.99 -307.39,-381.01L-307.60,-381.09L-307.89,-380.96L-308.10,-381.04L-308.31,-381.13L-308.60,-381.00L-308.81,-381.08L-309.02,-381.16L-309.31,-381.04L-309.52,-381.12L-309.73,-381.20L-310.02,-381.07L-310.23,-381.16L-310.44,-381.24L-310.65,-381.32L-310.94,-381.19L-311.15,-381.27L-311.36,-381.36L-311.65,-381.23ZM-322.03,-324.63C-321.54,-322.18 -319.66,-320.00 -316.39,-318.07C-313.12,-316.14 -307.48,-315.01 -299.47,-314.69C-291.46,-314.36 -282.13,-315.65 -271.48,-318.56L-264.03,-336.91C-305.11,-340.63 -324.45,-336.54 -322.03,-324.63ZM-123.69,-337.89L-99.81,-321.75L-139.20,-221.43L-163.07,-237.57L-158.96,-248.05C-174.63,-240.98 -187.07,-239.66 -196.29,-244.09C-200.65,-246.12 -206.58,-254.41 -214.08,-268.96C-221.59,-283.51 -224.92,-292.87 -224.08,-297.06C-223.21,-300.91 -214.39,-324.19 -197.62,-366.92L-173.95,-350.86C-193.51,-303.10 -203.16,-277.48 -202.92,-274.00C-201.66,-269.00 -197.93,-266.08 -191.73,-265.26C-185.52,-264.43 -177.68,-265.95 -168.19,-269.80C-158.70,-273.65 -150.75,-278.82 -144.33,-285.33ZM-81.65,-206.09L-81.90,-206.67L-106.49,-222.85L-54.03,-356.47L35.40,-321.37L44.75,-295.94L-32.53,-326.28L-48.32,-286.07L3.83,-265.59L13.19,-240.17L-55.51,-267.13L-72.36,-224.20L-3.67,-197.23L5.69,-171.80ZM85.41,-249.28L79.33,-233.78C95.83,-245.83 107.63,-250.46 114.76,-247.67C118.25,-246.30 123.41,-242.22 130.25,-235.42C137.09,-228.63 142.56,-222.25 146.67,-216.29L124.00,-201.02C117.86,-210.84 111.74,-217.31 105.63,-220.43C99.53,-223.55 93.97,-224.28 88.97,-222.62C83.97,-220.96 77.93,-217.49 70.86,-212.21L46.03,-148.96L22.15,-165.10L61.54,-265.42ZM159.21,-123.86C168.05,-113.95 182.45,-111.43 202.42,-116.32L225.53,-175.18C222.41,-179.14 217.38,-182.97 210.45,-186.65C204.95,-189.46 198.22,-188.75 190.28,-184.54C182.35,-180.32 175.33,-174.58 169.25,-167.29C163.17,-160.01 158.91,-152.14 156.47,-143.67C154.03,-135.20 154.95,-128.60 159.21,-123.86ZM253.40,-246.18L277.28,-230.03C241.11,-135.46 222.45,-87.92 221.28,-87.41C220.53,-87.54 216.62,-88.15 209.55,-89.23C202.48,-90.32 197.99,-91.07 196.06,-91.51C194.14,-91.94 190.24,-92.99 184.36,-94.65C178.49,-96.31 174.02,-98.06 170.96,-99.91C167.90,-101.76 164.18,-104.30 159.82,-107.55C155.45,-110.79 151.53,-114.55 148.05,-118.82C141.79,-126.27 137.73,-133.99 135.86,-141.97C134.00,-149.95 134.22,-157.28 136.52,-163.95C138.81,-170.62 142.20,-176.99 146.67,-183.05C151.15,-189.11 156.48,-194.18 162.68,-198.28C168.88,-202.37 175.10,-205.69 181.34,-208.24C187.57,-210.78 193.58,-212.01 199.34,-211.92C205.11,-211.83 209.70,-210.40 213.12,-207.60C214.71,-206.33 216.32,-204.78 217.93,-202.93C219.54,-201.09 220.85,-199.49 221.85,-198.13C222.85,-196.77 224.24,-194.78 226.02,-192.14C227.81,-189.51 229.12,-187.62 229.97,-186.49ZM285.94,-109.88L346.23,-123.68C338.70,-134.05 331.08,-139.78 323.37,-140.87C315.66,-141.97 308.54,-139.73 302.00,-134.16C295.46,-128.58 290.11,-120.49 285.94,-109.88ZM282.87,-87.88C284.91,-81.60 288.16,-76.94 292.61,-73.91C297.06,-70.87 302.45,-69.52 308.78,-69.85C315.12,-70.19 320.58,-70.86 325.17,-71.88C329.76,-72.90 335.29,-74.47 341.77,-76.61L344.31,-70.77C345.81,-66.80 347.32,-62.82 348.82,-58.85L351.36,-53.02C335.71,-48.85 323.10,-46.91 313.55,-47.20C303.99,-47.48 295.70,-50.78 288.66,-57.09C278.46,-66.41 270.33,-78.95 264.27,-94.70C260.73,-104.15 260.35,-113.85 263.12,-123.80C265.90,-133.74 270.62,-142.17 277.27,-149.06C283.93,-155.95 291.99,-160.89 301.45,-163.86C310.92,-166.83 319.91,-166.65 328.43,-163.30C334.01,-161.11 340.87,-154.27 349.01,-142.77C357.15,-131.28 363.51,-120.69 368.08,-110.99C367.78,-110.63 360.54,-108.51 346.37,-104.65C332.21,-100.78 318.04,-97.04 303.89,-93.41ZM428.26,-114.68L424.89,-106.09C441.87,-112.80 454.93,-114.04 464.06,-109.81C468.42,-107.78 474.10,-99.15 481.09,-83.91C488.08,-68.68 491.16,-58.97 490.32,-54.79C489.45,-50.94 480.63,-27.65 463.86,15.08L440.19,-0.98C459.83,-48.55 469.43,-74.03 468.99,-77.42C468.34,-83.15 464.75,-86.22 458.21,-86.61C451.68,-87.00 444.35,-85.97 436.22,-83.52C428.08,-81.07 420.01,-77.64 411.98,-73.21L388.88,-14.36L363.96,-30.91L403.34,-131.23Z" fill="#ffffff" stroke="#000000"/>
    <path d="M-908.25,467.76L-901.71,478.05L-895.48,466.69L-890.20,467.79L-898.41,482.73L-898.33,493.10L-903.65,492L-903.65,481.55L-913,466.65ZM-886.51,478.66L-888.57,475.20C-886.79,474.75 -884.82,474.32 -882.66,473.91C-880.49,473.51 -879.13,473.32 -878.57,473.34C-878.01,473.37 -876.90,474.20 -875.23,475.83C-873.56,477.47 -872.43,478.71 -871.85,479.57C-871.64,479.88 -871.54,480.90 -871.54,482.63C-871.54,484.37 -871.57,486.35 -871.64,488.58C-871.70,490.81 -871.72,492.32 -871.69,493.10L-876.41,492L-876.37,490.06C-878.42,492.11 -880.09,493.14 -881.38,493.14C-882.60,493.11 -884.15,491.96 -886.02,489.68C-887.89,487.40 -888.83,485.77 -888.83,484.78C-888.83,483.99 -888.30,483.27 -887.24,482.61C-886.17,481.96 -884.87,481.44 -883.34,481.08C-881.81,480.71 -880.45,480.42 -879.26,480.22C-878.07,480.02 -877.05,479.88 -876.22,479.80L-876.18,478.78C-876.15,477.56 -876.80,476.90 -878.12,476.80C-879.33,476.72 -881.89,477.27 -885.79,478.43L-885.83,478.43L-885.87,478.47L-885.91,478.47L-885.94,478.47L-885.98,478.51L-886.02,478.51L-886.06,478.51L-886.10,478.55L-886.13,478.55L-886.17,478.55L-886.21,478.59L-886.25,478.59L-886.29,478.59L-886.32,478.59L-886.36,478.62L-886.40,478.62L-886.44,478.62L-886.48,478.66ZM-884.61,488.20C-884.39,488.55 -883.96,488.78 -883.32,488.88C-882.69,488.99 -881.73,488.81 -880.45,488.37C-879.17,487.93 -877.79,487.15 -876.29,486.03L-876.25,482.69C-882.94,484.64 -885.73,486.48 -884.61,488.20ZM-867.89,476.50L-869.03,473.84L-865.92,473.84L-865.92,469.73L-861.24,470.80L-861.24,473.84L-856.61,473.84L-855.47,476.50L-861.24,476.50L-861.24,481.32C-861.24,481.60 -861.24,482.02 -861.24,482.58C-861.24,483.26 -861.25,483.94 -861.26,484.63C-861.28,485.31 -861.24,485.96 -861.15,486.57C-861.06,487.17 -860.95,487.73 -860.83,488.24C-860.70,488.74 -860.48,489.15 -860.18,489.45C-859.88,489.76 -859.51,489.96 -859.08,490.06C-858.65,490.16 -858.10,490.09 -857.42,489.85C-856.75,489.61 -855.99,489.21 -855.13,488.66L-854.10,489.83C-855.57,491.18 -856.80,492.11 -857.79,492.65C-858.55,493.08 -859.59,493.01 -860.92,492.44C-862.25,491.87 -863.42,491.07 -864.42,490.04C-865.42,489.02 -865.92,488.12 -865.92,487.36L-865.92,476.50ZM-846.16,474.90L-846.16,477.71C-844.31,474.80 -842.74,473.34 -841.45,473.34C-840.81,473.34 -839.75,473.67 -838.25,474.31C-836.76,474.96 -835.51,475.62 -834.49,476.31L-837.11,480.11C-838.68,478.94 -840.05,478.30 -841.20,478.19C-842.35,478.07 -843.27,478.30 -843.95,478.87C-844.64,479.44 -845.37,480.36 -846.16,481.63L-846.16,493.10L-850.91,492.04L-850.91,473.84ZM-830.58,478.66L-832.63,475.20C-830.86,474.75 -828.89,474.32 -826.72,473.91C-824.55,473.51 -823.19,473.32 -822.64,473.34C-822.08,473.37 -820.96,474.20 -819.29,475.83C-817.62,477.47 -816.49,478.71 -815.91,479.57C-815.71,479.88 -815.61,480.90 -815.61,482.63C-815.61,484.37 -815.64,486.35 -815.70,488.58C-815.76,490.81 -815.78,492.32 -815.76,493.10L-820.47,492L-820.43,490.06C-822.48,492.11 -824.16,493.14 -825.45,493.14C-826.66,493.11 -828.21,491.96 -830.08,489.68C-831.96,487.40 -832.90,485.77 -832.90,484.78C-832.90,483.99 -832.36,483.27 -831.30,482.61C-830.24,481.96 -828.94,481.44 -827.41,481.08C-825.87,480.71 -824.51,480.42 -823.32,480.22C-822.13,480.02 -821.12,479.88 -820.28,479.80L-820.24,478.78C-820.22,477.56 -820.86,476.90 -822.18,476.80C-823.40,476.72 -825.95,477.27 -829.86,478.43L-829.89,478.43L-829.93,478.47L-829.97,478.47L-830.01,478.47L-830.05,478.51L-830.08,478.51L-830.12,478.51L-830.16,478.55L-830.20,478.55L-830.24,478.55L-830.27,478.59L-830.31,478.59L-830.35,478.59L-830.39,478.59L-830.43,478.62L-830.46,478.62L-830.50,478.62L-830.54,478.66ZM-828.68,488.20C-828.45,488.55 -828.02,488.78 -827.39,488.88C-826.75,488.99 -825.80,488.81 -824.52,488.37C-823.24,487.93 -821.85,487.15 -820.36,486.03L-820.32,482.69C-827.01,484.64 -829.79,486.48 -828.68,488.20Z"/>
</svg>