<?xml version="1.0"?>
<svg xmlns="http://www.w3.org/2000/svg" width="1920" height="1080" viewBox="-960 -540 1920 1080">
    <path d="M-396.88,-224.76L-441.90,-246.41L-456.31,-300.01L-440.94,-353.59L-396.88,-375.23L-361.60,-363.25L-344.87,-332.14L-323.70,-342.84L-345.78,-379.60L-396.88,-395.63L-460.38,-367.60L-481.80,-299.99L-460.38,-232.39L-396.88,-204.37L-345.89,-220.66L-324.21,-256.14L-344.87,-267.61L-363.31,-236.52ZM-270.50,-210L-270.50,-390L-293,-390L-293,-210ZM-220.93,-361.74L-212.80,-370.64L-212.78,-383.35L-221.07,-392.46L-232.63,-392.46L-240.70,-383.37L-240.70,-370.67L-232.49,-361.74ZM-215.50,-210L-215.50,-340L-238,-340L-238,-210ZM-184.17,-210L-161.62,-210L-161.62,-277.25L-155.48,-310.56L-128.93,-325.70L-111.35,-317.60L-105.57,-295.03L-105.57,-210L-83.07,-210L-83.07,-285.25L-75.03,-313.68L-50.14,-325.70L-31.05,-315.47L-26.75,-292.48L-26.75,-210L-4.25,-210L-4.25,-300.50L-14.31,-333.36L-45.29,-345.09L-68.75,-339.45L-86.57,-319.75L-99.71,-338.68L-123.40,-344.97L-147.00,-339.87L-163.87,-321.50L-163.87,-340L-184.12,-340ZM106.10,-297.19L32.79,-274.70L17.87,-243.62L31.26,-214.10L62.99,-204.86L86.27,-209.38L107.60,-225.04L107.50,-210L128.50,-210L128.53,-293.86L116.69,-332.03L77.79,-345.13L42.79,-336.58L25.78,-311.21L43.62,-300.24L55.08,-320.00L75.49,-326.75L97.37,-320.35ZM106.10,-277.30L106.09,-244.38L90.18,-230.45L66.58,-223.21L49.64,-227.60L41.86,-244.62L51.89,-262.29ZM218.20,-208.26L218.20,-208.26L215.61,-227.65L205.53,-226.14L194.69,-231.63L192.75,-248L192.75,-322.75L215,-322.75L215,-340L192.75,-340L192.75,-385L170.25,-385L170.25,-340L151.75,-340L151.75,-322.75L170.25,-322.75L170.25,-248L175.38,-216.61L201.00,-205.85ZM270.87,-234.73L257.75,-269.23L354.25,-269.25L355.50,-278.25L340.61,-325.87L295.51,-345.22L251.40,-326.61L234.83,-275.10L251.40,-223.59L295.51,-204.97L332.65,-215.94L349.75,-242.75L332.23,-253.69L318.60,-231.44L296.79,-224.11ZM258.50,-287.25L272.62,-317.01L295.49,-326.13L321.00,-315.28L331.25,-287.25ZM-672.63,15L-612.88,15L-547.14,-7.84L-525.47,-75.52L-548.55,-143.34L-616.13,-165L-672.63,-165ZM-648.88,-6L-648.88,-143.75L-616.13,-143.75L-568.37,-129.94L-550.45,-75.76L-566.27,-22.31L-615.38,-6ZM-471.76,-9.73L-484.87,-44.23L-388.38,-44.25L-387.13,-53.25L-402.01,-100.87L-447.11,-120.22L-491.22,-101.61L-507.80,-50.10L-491.22,1.41L-447.11,20.03L-409.97,9.06L-392.88,-17.75L-410.39,-28.69L-424.03,-6.44L-445.84,0.89ZM-484.13,-62.25L-470.00,-92.01L-447.13,-101.13L-421.63,-90.28L-411.38,-62.25ZM-349.52,-25.27L-368.63,-16.34L-355.91,9.17L-317.39,20.16L-280.64,11.01L-263.81,-20.13L-273.92,-46.80L-295.82,-58.06L-326.13,-66.25L-342.97,-73L-348.50,-83.38L-341.26,-96.21L-320.05,-100.91L-299.68,-95.35L-290.92,-78.81L-271.99,-87.74L-283.00,-109.52L-319.20,-120.13L-355.06,-110.92L-370.46,-80.85L-360.47,-56.99L-337.91,-46.22L-305.88,-37.75L-290.78,-30.17L-286.79,-18.13L-296.84,-3.03L-316.63,0.98L-340.53,-6.88ZM-222.80,-136.74L-214.67,-145.64L-214.65,-158.35L-222.94,-167.46L-234.50,-167.46L-242.57,-158.37L-242.58,-145.67L-234.36,-136.74ZM-217.38,15L-217.38,-115L-239.88,-115L-239.88,15ZM-135.90,69.39L-89.33,49.85L-78.13,6.50L-78.13,-115L-98.13,-115L-98.13,-97.50L-112.85,-114.11L-135.65,-120.61L-177.85,-101.04L-192.50,-50.49L-177.85,0.06L-135.65,19.63L-115.51,14.83L-100.63,1.25L-100.69,10.79L-108.64,39.89L-135.37,50.00L-156.18,44.13L-164.38,26.50L-182.38,34.75L-171.03,58.67ZM-134.37,-101.48L-109.52,-88.59L-97.88,-50.47L-108.58,-12.35L-134.37,0.52L-159.50,-12.35L-169.54,-50.47L-159.50,-88.59ZM-45.99,15L-23.49,15L-23.49,-55.75L-13.74,-89.15L11.69,-100.70L32.77,-90.95L38.88,-64.75L38.88,15L61.38,15L61.38,-64.75L52.86,-104.40L16.27,-120.09L-8.03,-114.73L-25.74,-96.25L-25.74,-115L-45.99,-115ZM120.74,-9.73L107.63,-44.23L204.13,-44.25L205.38,-53.25L190.49,-100.87L145.39,-120.22L101.28,-101.61L84.70,-50.10L101.28,1.41L145.39,20.03L182.53,9.06L199.63,-17.75L182.11,-28.69L168.47,-6.44L146.66,0.89ZM108.38,-62.25L122.50,-92.01L145.37,-101.13L170.87,-90.28L181.13,-62.25ZM284.48,-98.34L301.38,-92.75L308.13,-111.75L286.10,-120.09L264.62,-113.43L249.63,-92.50L249.63,-115L229.38,-115L229.38,13.73L251.88,15L251.88,-55.25L260.10,-86.59ZM339.23,-25.27L320.12,-16.34L332.84,9.17L371.36,20.16L408.11,11.01L424.94,-20.13L414.83,-46.80L392.93,-58.06L362.63,-66.25L345.78,-73L340.25,-83.38L347.49,-96.21L368.70,-100.91L389.07,-95.35L397.83,-78.81L416.76,-87.74L405.75,-109.52L369.55,-120.13L333.69,-110.92L318.29,-80.85L328.28,-56.99L350.84,-46.22L382.88,-37.75L397.97,-30.17L401.96,-18.13L391.91,-3.03L372.12,0.98L348.22,-6.88ZM468.47,17.86L476.60,8.96L476.63,-3.75L468.33,-12.86L456.78,-12.86L448.71,-3.77L448.70,8.93L456.92,17.86ZM455.47,-29.47L469.74,-29.47L475.22,-166.80L449.98,-166.80ZM566.79,18.14L575.66,9.11L575.60,-3.59L566.64,-12.53L554.05,-12.46L545.18,-3.44L545.24,9.26L554.20,18.20ZM548.78,-28.05L570.58,-28.05L570.58,-34.94L573.94,-53.14L586.10,-68.08L607.86,-89.10L617.97,-119.09L601.84,-156.60L559.31,-170.59L521.08,-156.31L506.28,-122.90L525.40,-114.24L536.73,-141.50L559.52,-150.20L583.50,-142.86L593.69,-117.56L587.05,-96.88L571.98,-82.12L554.08,-61.97L548.78,-34.94Z" fill="#ffffff" stroke="#000000"/>
    <path d="M-403.68,-210.54L-448.72,-230.96L-464.17,-283.70L-450.14,-337.07L-407.02,-359.47L-371.84,-348.40L-354.59,-317.97L-333.87,-329.03L-356.54,-364.92L-407.47,-379.65L-469.70,-350.51L-489.40,-283.11L-466.70,-216.68L-403.22,-190.36L-353.12,-207.61L-332.45,-243.21L-353.15,-254.10L-370.71,-222.92ZM-278.26,-198.74L-282.26,-376.89L-304.53,-376.39L-300.53,-198.24ZM-232.57,-350.02L-224.72,-359.01L-224.98,-371.59L-233.39,-380.42L-244.83,-380.17L-252.62,-370.99L-252.34,-358.42L-244.01,-349.76ZM-223.83,-199.96L-226.72,-328.63L-248.98,-328.13L-246.10,-199.46ZM-192.82,-200.65L-170.50,-201.16L-171.99,-267.72L-166.66,-300.82L-140.72,-316.39L-123.14,-308.77L-116.91,-286.56L-115.03,-202.40L-92.76,-202.90L-94.43,-277.38L-87.10,-305.70L-62.73,-318.14L-43.61,-308.44L-38.84,-285.79L-37.01,-204.15L-14.74,-204.65L-16.75,-294.22L-27.44,-326.52L-58.36,-337.44L-81.46,-331.34L-98.66,-311.45L-112.08,-329.89L-135.67,-335.59L-158.92,-330.02L-175.20,-311.46L-175.61,-329.77L-195.66,-329.32ZM92.54,-293.39L20.48,-269.51L6.41,-238.42L20.31,-209.49L51.92,-201.06L74.86,-206.05L95.62,-222.02L95.86,-207.13L116.65,-207.60L114.81,-290.60L102.25,-328.11L63.45,-340.21L29.00,-330.98L12.73,-305.49L30.63,-295.03L41.53,-314.84L61.59,-321.98L83.39,-316.13ZM92.98,-273.71L93.70,-241.13L78.26,-226.99L55.07,-219.30L38.21,-223.27L30.12,-239.94L39.66,-257.65ZM205.46,-207.87L205.47,-207.87L202.47,-227.00L192.53,-225.29L181.68,-230.48L179.39,-246.64L177.73,-320.62L199.76,-321.12L199.37,-338.19L177.35,-337.69L176.35,-382.23L154.08,-381.73L155.08,-337.19L136.77,-336.78L137.15,-319.71L155.46,-320.12L157.12,-246.14L162.90,-215.18L188.50,-205.11ZM257.00,-235.24L243.26,-269.09L338.77,-271.26L339.80,-280.19L324.01,-327.00L278.94,-345.14L235.70,-325.74L220.44,-274.39L237.99,-223.78L282.06,-206.34L318.58,-218.02L334.90,-244.93L317.32,-255.36L304.32,-233.05L282.90,-225.30ZM243.60,-286.95L256.91,-316.71L279.35,-326.25L304.83,-316.08L315.60,-288.56ZM-671.27,32.89L-612.13,31.56L-547.58,7.49L-527.63,-59.97L-551.99,-126.59L-619.35,-146.52L-675.27,-145.27ZM-648.23,11.58L-651.29,-124.76L-618.88,-125.49L-571.31,-112.88L-552.37,-59.65L-566.83,-6.40L-615.07,10.83ZM-473.01,3.95L-486.76,-29.90L-391.25,-32.07L-390.21,-41.00L-406.01,-87.81L-451.07,-105.95L-494.32,-86.55L-509.58,-35.20L-492.03,15.41L-447.96,32.85L-411.44,21.17L-395.11,-5.74L-412.70,-16.17L-425.69,6.14L-447.12,13.89ZM-486.42,-47.76L-473.10,-77.52L-450.67,-87.06L-425.18,-76.89L-414.41,-49.37ZM-352.37,-14.15L-371.09,-4.88L-357.93,20.08L-319.56,30.11L-283.39,20.23L-267.43,-10.96L-278.02,-37.14L-299.95,-47.79L-330.13,-55.22L-346.95,-61.53L-352.65,-71.69L-345.77,-84.54L-324.89,-89.67L-304.60,-84.62L-295.56,-68.44L-277.02,-77.70L-288.40,-99.00L-324.47,-108.70L-359.76,-98.79L-374.33,-68.69L-363.91,-45.29L-341.35,-35.14L-309.45,-27.47L-294.35,-20.30L-290.13,-8.47L-299.74,6.69L-319.23,11.11L-343.06,3.85ZM-229.43,-127.28L-221.58,-136.27L-221.84,-148.85L-230.25,-157.69L-241.69,-157.43L-249.47,-148.26L-249.20,-135.69L-240.87,-127.03ZM-220.69,22.78L-223.57,-105.89L-245.84,-105.39L-242.96,23.28ZM-138.84,74.80L-93.18,54.42L-83.05,11.27L-85.75,-108.98L-105.55,-108.54L-105.16,-91.22L-120.10,-107.33L-142.81,-113.26L-184.14,-92.95L-197.52,-42.59L-181.90,7.12L-139.69,25.55L-119.87,20.35L-105.44,6.57L-105.29,16.02L-112.52,44.99L-138.74,55.59L-159.47,50.25L-167.97,32.98L-185.61,41.55L-173.85,64.97ZM-141.12,-94.35L-116.24,-82.15L-103.87,-44.67L-113.61,-6.71L-138.85,6.60L-164.01,-5.58L-174.79,-43.08L-165.70,-81.04ZM-51.06,18.97L-28.79,18.47L-30.36,-51.55L-21.45,-84.83L3.47,-96.82L24.54,-87.64L31.17,-61.85L32.94,17.09L55.21,16.59L53.44,-62.35L44.13,-101.40L7.57,-116.12L-16.36,-110.27L-33.49,-91.59L-33.91,-110.15L-53.95,-109.70ZM113.42,-9.21L99.67,-43.06L195.18,-45.23L196.22,-54.16L180.42,-100.97L135.35,-119.11L92.11,-99.71L76.85,-48.36L94.40,2.25L138.47,19.69L174.99,8.01L191.31,-18.90L173.73,-29.33L160.73,-7.02L139.31,0.73ZM100.01,-60.92L113.32,-90.68L135.76,-100.22L161.25,-90.05L172.01,-62.53ZM273.51,-100.55L290.35,-95.39L296.61,-114.35L274.63,-122.11L253.52,-115.04L239.14,-93.99L238.64,-116.26L218.60,-115.81L221.46,11.60L243.75,12.35L242.19,-57.18L249.64,-88.38ZM329.32,-29.45L310.60,-20.18L323.77,4.79L362.13,14.81L398.30,4.94L414.27,-26.26L403.67,-52.44L381.74,-63.09L351.56,-70.52L334.74,-76.83L329.04,-86.99L335.92,-99.84L356.80,-104.97L377.10,-99.92L386.13,-83.74L404.67,-93.00L393.29,-114.30L357.22,-124.00L321.93,-114.09L307.36,-83.99L317.78,-60.59L340.35,-50.44L372.24,-42.77L387.35,-35.60L391.56,-23.77L381.96,-8.60L362.46,-4.19L338.63,-11.44ZM458.20,10.38L466.05,1.39L465.78,-11.20L457.38,-20.03L445.94,-19.77L438.15,-10.60L438.43,1.97L446.76,10.63ZM444.28,-36.18L458.40,-36.50L460.77,-172.54L435.79,-171.98ZM555.52,8.46L564.09,-0.67L563.75,-13.24L554.69,-21.88L542.22,-21.54L533.65,-12.41L533.99,0.16L543.05,8.81ZM536.67,-36.85L558.24,-37.33L558.08,-44.15L561.00,-62.25L572.71,-77.30L593.78,-98.59L603.12,-128.49L586.32,-165.26L543.92,-178.16L506.40,-163.18L492.49,-129.79L511.60,-121.64L522.21,-148.87L544.58,-157.98L568.47,-151.26L579.12,-126.44L573.01,-105.82L558.42,-90.88L541.15,-70.54L536.51,-43.66Z" fill="#ffffff" stroke="#000000"/>
    <path d="M-409.92,-196.19L-454.95,-215.41L-471.40,-267.25L-458.71,-320.38L-416.53,-343.51L-381.47,-333.33L-363.72,-303.60L-343.46,-315.01L-366.69,-350.03L-417.43,-363.47L-478.37,-333.25L-496.36,-266.11L-472.42,-200.87L-409.02,-176.23L-359.82,-194.42L-340.15,-230.11L-360.88,-240.42L-377.57,-209.18ZM-285.54,-187.30L-293.45,-363.52L-315.48,-362.53L-307.57,-186.31ZM-243.68,-338.03L-236.11,-347.10L-236.65,-359.55L-245.17,-368.10L-256.48,-367.59L-263.98,-358.34L-263.43,-345.91L-255.00,-337.52ZM-231.69,-189.72L-237.41,-316.99L-259.44,-316.00L-253.72,-188.73ZM-201.02,-191.09L-178.95,-192.09L-181.90,-257.92L-177.36,-290.80L-152.03,-306.79L-134.46,-299.64L-127.81,-277.79L-124.07,-194.55L-102.04,-195.54L-105.35,-269.21L-98.73,-297.40L-74.89,-310.26L-55.75,-301.08L-50.53,-278.77L-46.91,-198.02L-24.88,-199.00L-28.86,-287.60L-40.15,-319.33L-71.00,-329.45L-93.72,-322.90L-110.30,-302.83L-123.99,-320.79L-147.46,-325.90L-170.34,-319.87L-186.05,-301.15L-186.86,-319.26L-206.69,-318.37ZM79.33,-289.21L8.54,-263.97L-4.70,-232.89L9.71,-204.58L41.18,-196.93L63.77,-202.38L83.96,-218.64L84.53,-203.92L105.09,-204.84L101.43,-286.94L88.16,-323.79L49.50,-334.90L15.61,-325.00L0.07,-299.41L18.02,-289.46L28.37,-309.30L48.06,-316.81L69.76,-311.51ZM80.20,-269.74L81.63,-237.52L66.67,-223.17L43.89,-215.05L27.11,-218.60L18.74,-234.92L27.79,-252.66ZM192.98,-207.08L192.98,-207.08L189.59,-225.95L179.79,-224.03L168.93,-228.93L166.32,-244.87L163.03,-318.05L184.81,-319.03L184.06,-335.92L162.27,-334.94L160.29,-378.99L138.27,-378.00L140.24,-333.95L122.13,-333.13L122.89,-316.25L141.00,-317.06L144.29,-243.88L150.69,-213.37L176.25,-203.97ZM243.38,-235.31L229.02,-268.51L323.49,-272.77L324.32,-281.64L307.65,-327.61L262.65,-344.57L220.28,-324.40L206.32,-273.25L224.81,-223.55L268.81,-207.26L304.69,-219.64L320.25,-246.63L302.62,-256.57L290.25,-234.19L269.22,-226.05ZM228.96,-286.18L241.48,-315.94L263.47,-325.87L288.92,-316.38L300.18,-289.38ZM-669.33,50.66L-610.84,48.03L-547.49,22.78L-529.25,-44.43L-554.83,-109.82L-621.93,-128.05L-677.25,-125.56ZM-647.01,29.06L-653.06,-105.80L-621.00,-107.24L-573.64,-95.83L-553.72,-43.56L-566.85,9.46L-614.21,27.58ZM-473.77,17.62L-488.13,-15.58L-393.65,-19.84L-392.83,-28.71L-409.50,-74.68L-454.50,-91.64L-496.87,-71.48L-510.83,-20.32L-492.34,29.38L-448.33,45.66L-412.45,33.29L-396.89,6.30L-414.53,-3.64L-426.89,18.74L-447.93,26.87ZM-488.19,-33.26L-475.67,-63.01L-453.68,-72.94L-428.23,-63.45L-416.96,-36.46ZM-354.78,-2.98L-373.10,6.61L-359.52,31.03L-321.33,40.10L-285.75,29.52L-270.64,-1.71L-281.71,-27.38L-303.65,-37.43L-333.68,-44.12L-350.47,-49.99L-356.33,-59.91L-349.82,-72.78L-329.26,-78.32L-309.06,-73.78L-299.76,-57.97L-281.62,-67.54L-293.36,-88.37L-329.27,-97.17L-363.97,-86.58L-377.73,-56.47L-366.89,-33.54L-344.34,-24.00L-312.60,-17.11L-297.49,-10.35L-293.06,1.26L-302.23,16.48L-321.42,21.29L-345.17,14.63ZM-235.62,-117.67L-228.05,-126.74L-228.59,-139.19L-237.11,-147.74L-248.43,-147.23L-255.93,-137.98L-255.37,-125.55L-246.94,-117.16ZM-223.64,30.64L-229.35,-96.63L-251.38,-95.64L-245.67,31.63ZM-141.48,80.31L-96.75,59.13L-87.68,16.20L-93.03,-102.75L-112.61,-101.87L-111.84,-84.74L-126.99,-100.35L-149.59,-105.72L-190.04,-84.70L-202.16,-34.57L-185.60,14.28L-143.42,31.59L-123.92,26.00L-109.94,12.05L-109.59,21.39L-116.09,50.23L-141.81,61.30L-162.45,56.47L-171.24,39.57L-188.50,48.44L-176.35,71.36ZM-147.50,-87.04L-122.61,-75.52L-109.53,-38.70L-118.32,-0.92L-143.01,12.82L-168.18,1.32L-179.68,-35.55L-171.53,-73.32ZM-55.85,23.11L-33.83,22.12L-36.94,-47.15L-28.85,-80.28L-4.46,-92.70L16.60,-84.08L23.73,-58.70L27.23,19.38L49.26,18.39L45.76,-59.69L35.67,-98.13L-0.83,-111.88L-24.39,-105.57L-40.92,-86.70L-41.74,-105.05L-61.57,-104.16ZM106.30,-8.43L91.94,-41.63L186.41,-45.89L187.24,-54.76L170.57,-100.73L125.57,-117.69L83.20,-97.53L69.24,-46.37L87.73,3.33L131.73,19.62L167.61,7.24L183.17,-19.75L165.54,-29.69L153.17,-7.31L132.14,0.82ZM91.88,-59.31L104.40,-89.06L126.38,-98.99L151.83,-89.50L163.10,-62.51ZM262.70,-102.38L279.49,-97.65L285.26,-116.55L263.33,-123.74L242.60,-116.28L228.84,-95.13L227.85,-117.16L208.02,-116.27L213.68,9.76L235.76,10.01L232.68,-58.76L239.35,-89.81ZM319.52,-33.26L301.19,-23.67L314.78,0.75L352.97,9.81L388.54,-0.76L403.65,-31.99L392.58,-57.66L370.65,-67.71L340.62,-74.40L323.83,-80.27L317.96,-90.19L324.48,-103.06L345.04,-108.60L365.23,-104.06L374.53,-88.25L392.67,-97.82L380.94,-118.65L345.03,-127.45L310.33,-116.86L296.57,-86.75L307.40,-63.82L329.96,-54.28L361.70,-47.39L376.80,-40.63L381.24,-29.02L372.07,-13.80L352.87,-9.00L329.13,-15.65ZM447.94,3.29L455.51,-5.78L454.97,-18.22L446.46,-26.78L435.14,-26.27L427.64,-17.02L428.19,-4.59L436.63,3.80ZM433.13,-42.48L447.10,-43.10L446.43,-177.79L421.72,-176.68ZM544.21,-0.76L552.49,-9.99L551.87,-22.42L542.72,-30.77L530.39,-30.16L522.11,-20.93L522.72,-8.50L531.88,-0.15ZM524.55,-45.18L545.89,-46.14L545.58,-52.89L548.07,-70.86L559.32,-86.02L579.71,-107.55L588.28,-137.36L570.84,-173.37L528.59,-185.20L491.79,-169.54L478.77,-136.18L497.86,-128.54L507.76,-155.73L529.69,-165.24L553.48,-159.12L564.58,-134.79L558.98,-114.26L544.88,-99.14L528.24,-78.63L524.25,-51.93Z" fill="#ffffff" stroke="#000000"/>
    <path d="M-415.60,-181.74L-460.58,-199.76L-478.02,-250.69L-466.64,-303.55L-425.42,-327.37L-390.49,-318.08L-372.27,-289.06L-352.48,-300.80L-376.25,-334.93L-426.75,-347.11L-486.38,-315.84L-502.69,-249.01L-477.55,-184.98L-414.27,-162.01L-365.98,-181.10L-347.32,-216.85L-368.06,-226.60L-383.88,-195.31ZM-292.33,-175.70L-304.07,-349.91L-325.85,-348.44L-314.10,-174.24ZM-254.25,-325.79L-246.96,-334.93L-247.77,-347.24L-256.39,-355.52L-267.58,-354.76L-274.79,-345.44L-273.97,-333.15L-265.44,-325.03ZM-239.10,-179.29L-247.58,-305.11L-269.35,-303.64L-260.87,-177.82ZM-208.78,-181.34L-186.95,-182.81L-191.34,-247.89L-187.57,-280.53L-162.86,-296.91L-145.32,-290.22L-138.25,-268.76L-132.71,-186.47L-110.93,-187.93L-115.84,-260.76L-109.91,-288.80L-86.61,-302.05L-67.47,-293.40L-61.81,-271.44L-56.42,-191.61L-34.65,-193.08L-40.55,-280.66L-52.43,-311.81L-83.18,-321.14L-105.52,-314.15L-121.48,-293.92L-135.43,-311.38L-158.76,-315.93L-181.28,-309.45L-196.40,-290.57L-197.61,-308.48L-217.21,-307.15ZM66.46,-284.65L-3.02,-258.11L-15.43,-227.06L-0.55,-199.36L30.76,-192.49L52.99,-198.39L72.62,-214.93L73.50,-200.37L93.83,-201.74L88.39,-282.90L74.44,-319.07L35.93,-329.20L2.62,-318.65L-12.19,-292.99L5.79,-283.54L15.59,-303.40L34.91,-311.28L56.50,-306.51ZM67.76,-265.41L69.89,-233.55L55.41,-219.03L33.04,-210.48L16.36,-213.62L7.71,-229.59L16.27,-247.34ZM180.75,-205.90L180.75,-205.91L176.98,-224.50L167.32,-222.39L156.47,-226.99L153.53,-242.71L148.65,-315.05L170.19,-316.50L169.06,-333.20L147.53,-331.74L144.59,-375.30L122.81,-373.83L125.75,-330.28L107.85,-329.07L108.97,-312.38L126.88,-313.58L131.75,-241.24L138.77,-211.19L164.26,-202.46ZM230.00,-234.96L215.05,-267.49L308.44,-273.81L309.07,-282.60L291.55,-327.72L246.64,-343.50L205.16,-322.61L192.49,-271.68L211.88,-222.91L255.79,-207.77L291.02,-220.81L305.82,-247.87L288.15,-257.31L276.41,-234.90L255.78,-226.37ZM214.60,-284.98L226.33,-314.70L247.86,-325.02L273.26,-316.19L285.01,-289.73ZM-666.82,68.29L-609.00,64.39L-546.87,38.00L-530.31,-28.92L-557.08,-93.05L-623.89,-109.60L-678.57,-105.92ZM-645.21,46.42L-654.20,-86.90L-622.50,-89.04L-575.39,-78.79L-554.51,-27.52L-566.32,25.24L-612.79,44.23ZM-474.04,31.25L-488.98,-1.28L-395.59,-7.60L-394.97,-16.39L-412.48,-61.51L-457.39,-77.29L-498.87,-56.40L-511.55,-5.47L-492.15,43.30L-448.24,58.44L-413.01,45.40L-398.22,18.34L-415.88,8.90L-427.63,31.32L-448.26,39.84ZM-489.43,-18.77L-477.71,-48.49L-456.17,-58.81L-430.77,-49.98L-419.02,-23.52ZM-356.75,8.23L-374.67,18.12L-360.68,41.98L-322.69,50.11L-287.72,38.85L-273.46,7.62L-284.99,-17.54L-306.92,-27.00L-336.78,-32.95L-353.53,-38.39L-359.55,-48.08L-353.39,-60.96L-333.17,-66.90L-313.08,-62.85L-303.53,-47.41L-285.79,-57.28L-297.87,-77.64L-333.59,-85.55L-367.70,-74.30L-380.64,-44.19L-369.41,-21.75L-346.88,-12.80L-315.32,-6.69L-300.22,-0.34L-295.58,11.05L-304.31,26.32L-323.20,31.50L-346.85,25.44ZM-241.39,-107.91L-234.10,-117.05L-234.91,-129.36L-243.52,-137.64L-254.71,-136.88L-261.93,-127.56L-261.10,-115.27L-252.57,-107.16ZM-226.23,38.59L-234.71,-87.23L-256.49,-85.76L-248.01,40.05ZM-143.83,85.90L-100.04,63.95L-92.02,21.27L-99.95,-96.32L-119.30,-95.01L-118.16,-78.07L-133.50,-93.18L-155.98,-97.99L-195.55,-76.30L-206.43,-26.42L-188.95,21.55L-146.83,37.74L-127.66,31.78L-114.14,17.66L-113.58,26.90L-119.38,55.58L-144.58,67.10L-165.11,62.78L-174.19,46.26L-191.07,55.42L-178.53,77.83ZM-153.50,-79.56L-128.61,-68.71L-114.86,-32.57L-122.72,5.01L-146.84,19.15L-172.00,8.34L-184.20,-27.90L-176.97,-65.45ZM-60.37,27.40L-38.59,25.93L-43.21,-42.54L-35.95,-75.50L-12.09,-88.33L8.95,-80.27L16.57,-55.32L21.77,21.87L43.54,20.40L38.34,-56.79L27.51,-94.60L-8.92,-107.40L-32.09,-100.63L-48.03,-81.59L-49.25,-99.73L-68.85,-98.41ZM99.39,-7.41L84.44,-39.94L177.83,-46.26L178.45,-55.05L160.94,-100.17L116.03,-115.95L74.55,-95.06L61.88,-44.13L81.27,4.64L125.18,19.78L160.41,6.74L175.21,-20.32L157.54,-29.76L145.80,-7.34L125.17,1.18ZM83.99,-57.43L95.71,-87.15L117.25,-97.47L142.65,-88.64L154.40,-62.18ZM252.07,-103.85L268.79,-99.54L274.08,-118.37L252.22,-125.00L231.87,-117.16L218.72,-95.92L217.25,-117.70L197.65,-116.38L206.05,8.20L227.91,7.97L223.33,-60.02L229.24,-90.89ZM309.83,-36.71L291.91,-26.82L305.89,-2.96L343.88,5.17L378.85,-6.09L393.11,-37.32L381.59,-62.48L359.66,-71.94L329.79,-77.89L313.05,-83.33L307.02,-93.02L313.19,-105.90L333.41,-111.84L353.49,-107.79L363.05,-92.35L380.78,-102.22L368.71,-122.58L332.98,-130.49L298.88,-119.24L285.93,-89.13L297.16,-66.69L319.69,-57.74L351.25,-51.63L366.35,-45.28L371.00,-33.89L362.26,-18.62L343.37,-13.44L319.73,-19.50ZM437.72,-3.39L445.01,-12.54L444.20,-24.84L435.58,-33.12L424.40,-32.37L417.18,-23.05L418.00,-10.75L426.54,-2.64ZM422.05,-48.36L435.86,-49.29L432.20,-182.55L407.78,-180.91ZM532.90,-9.54L540.88,-18.86L540.00,-31.15L530.75,-39.21L518.56,-38.33L510.57,-29.01L511.46,-16.73L520.71,-8.66ZM512.45,-53.07L533.54,-54.49L533.10,-61.15L535.16,-79.00L545.95,-94.25L565.65,-116.01L573.47,-145.69L555.41,-180.94L513.34,-191.70L477.27,-175.39L465.13,-142.10L484.19,-134.96L493.38,-162.08L514.87,-171.98L538.55,-166.45L550.07,-142.63L544.99,-122.18L531.37,-106.91L515.36,-86.24L512.00,-59.73Z" fill="#ffffff" stroke="#000000"/>
    <path d="M-420.73,-167.21L-465.64,-184.03L-484.02,-234.05L-473.94,-286.60L-433.67,-311.08L-398.91,-302.66L-380.24,-274.35L-360.92,-286.41L-385.19,-319.65L-435.43,-330.58L-493.73,-298.32L-508.39,-231.83L-482.10,-169.04L-418.97,-147.72L-371.62,-167.67L-353.94,-203.47L-374.69,-212.65L-389.64,-181.34ZM-298.62,-163.97L-314.11,-336.08L-335.62,-334.14L-320.13,-162.04ZM-264.28,-313.32L-257.27,-322.53L-258.35,-334.68L-267.06,-342.68L-278.11,-341.69L-285.04,-332.31L-283.95,-320.16L-275.33,-312.32ZM-246.03,-168.71L-257.22,-293.00L-278.73,-291.07L-267.55,-166.77ZM-216.08,-171.40L-194.52,-173.34L-200.30,-237.64L-197.30,-270.02L-173.22,-286.78L-155.71,-280.55L-148.24,-259.46L-140.93,-178.17L-119.41,-180.10L-125.89,-252.05L-120.64,-279.93L-97.88,-293.56L-78.75,-285.42L-72.66,-263.81L-65.56,-184.95L-44.05,-186.88L-51.84,-273.41L-64.28,-303.97L-94.91,-312.51L-116.86,-305.11L-132.20,-284.74L-146.39,-301.70L-169.58,-305.68L-191.71,-298.77L-206.26,-279.76L-207.85,-297.45L-227.22,-295.70ZM53.96,-279.74L-14.20,-251.93L-25.79,-220.93L-10.45,-193.86L20.68,-187.75L42.55,-194.08L61.60,-210.89L62.80,-196.50L82.88,-198.31L75.69,-278.49L61.09,-313.97L22.76,-323.14L-9.96,-311.96L-24.05,-286.24L-6.04,-277.29L3.21,-297.16L22.15,-305.38L43.62,-301.14ZM55.67,-260.72L58.49,-229.26L44.48,-214.56L22.54,-205.61L5.97,-208.35L-2.94,-223.95L5.13,-241.71ZM168.79,-204.36L168.79,-204.36L164.64,-222.68L155.14,-220.37L144.30,-224.69L141.04,-240.17L134.61,-311.64L155.88,-313.55L154.40,-330.05L133.12,-328.13L129.25,-371.16L107.74,-369.22L111.61,-326.20L93.92,-324.61L95.41,-308.11L113.09,-309.70L119.53,-238.23L127.14,-208.66L152.56,-200.58ZM216.87,-234.20L201.36,-266.06L293.63,-274.38L294.05,-283.10L275.71,-327.35L230.93,-341.97L190.35,-320.37L178.94,-269.70L199.22,-221.87L243.00,-207.87L277.57,-221.56L291.61,-248.66L273.91,-257.61L262.79,-235.17L242.57,-226.28ZM200.53,-283.36L211.47,-313.02L232.55,-323.71L257.87,-315.54L270.09,-289.62ZM-663.74,85.76L-606.62,80.62L-545.73,53.12L-530.83,-13.45L-558.74,-76.31L-625.21,-91.21L-679.23,-86.34ZM-642.84,63.64L-654.70,-68.07L-623.38,-70.89L-576.54,-61.80L-554.74,-11.53L-565.26,40.94L-610.81,60.75ZM-473.82,44.83L-489.33,12.97L-397.06,4.65L-396.64,-4.06L-414.97,-48.32L-459.76,-62.93L-500.34,-41.34L-511.75,9.33L-491.47,57.16L-447.69,71.16L-413.12,57.48L-399.08,30.37L-416.77,21.43L-427.89,43.87L-448.12,52.75ZM-490.16,-4.32L-479.22,-33.99L-458.14,-44.68L-432.81,-36.51L-420.60,-10.58ZM-358.28,19.45L-375.79,29.64L-361.42,52.93L-323.65,60.13L-289.30,48.22L-275.89,16.99L-287.84,-7.64L-309.75,-16.52L-339.44,-21.74L-356.13,-26.75L-362.30,-36.20L-356.49,-49.08L-336.61,-55.41L-316.65,-51.85L-306.85,-36.78L-289.52,-46.95L-301.92,-66.82L-337.45,-73.85L-370.94,-61.96L-383.08,-31.89L-371.47,-9.93L-348.98,-1.58L-317.62,3.77L-302.54,9.72L-297.69,20.88L-305.99,36.18L-324.57,41.73L-348.10,36.26ZM-246.71,-98.03L-239.70,-107.24L-240.78,-119.39L-249.49,-127.39L-260.54,-126.40L-267.47,-117.01L-266.38,-104.87L-257.76,-97.03ZM-228.46,46.59L-239.65,-77.71L-261.16,-75.78L-249.98,48.52ZM-145.88,91.58L-103.04,68.89L-96.05,26.48L-106.51,-89.69L-125.63,-87.97L-124.13,-71.24L-139.64,-85.85L-161.99,-90.11L-200.66,-67.77L-210.32,-18.17L-191.96,28.90L-149.92,43.98L-131.08,37.66L-118.02,23.39L-117.26,32.52L-122.36,61.03L-147.04,72.99L-167.45,69.17L-176.80,53.02L-193.30,62.46L-180.40,84.35ZM-159.12,-71.92L-134.26,-61.74L-119.85,-26.29L-126.79,11.07L-150.35,25.60L-175.48,15.45L-188.36,-20.13L-182.04,-57.44ZM-64.60,31.84L-43.09,29.90L-49.18,-37.74L-42.72,-70.52L-19.40,-83.75L1.59,-76.24L9.68,-51.72L16.55,24.54L38.06,22.60L31.20,-53.65L19.64,-90.83L-16.69,-102.68L-39.46,-95.47L-54.81,-76.27L-56.43,-94.20L-75.79,-92.46ZM92.69,-6.15L77.18,-38.01L169.45,-46.34L169.87,-55.05L151.54,-99.30L106.75,-113.92L66.18,-92.33L54.76,-41.65L75.04,6.17L118.82,20.18L153.39,6.49L167.43,-20.61L149.74,-29.56L138.62,-7.12L118.39,1.77ZM76.35,-55.31L87.29,-84.97L108.37,-95.66L133.70,-87.49L145.91,-61.57ZM241.63,-104.97L258.26,-101.08L263.08,-119.82L241.30,-125.90L221.34,-117.69L208.80,-96.38L206.86,-117.90L187.50,-116.15L198.58,6.93L220.20,6.21L214.16,-60.96L219.33,-91.64ZM300.26,-39.82L282.75,-29.63L297.12,-6.33L334.89,0.86L369.24,-11.05L382.65,-42.27L370.69,-66.91L348.79,-75.78L319.10,-81.01L302.41,-86.01L296.24,-95.47L302.05,-108.35L321.93,-114.67L341.89,-111.11L351.68,-96.05L369.01,-106.22L356.61,-126.09L321.09,-133.12L287.59,-121.23L275.45,-91.16L287.06,-69.20L309.56,-60.85L340.92,-55.50L356.00,-49.55L360.85,-38.38L352.55,-23.08L333.97,-17.54L310.44,-23.01ZM427.55,-9.69L434.56,-18.90L433.48,-31.06L424.77,-39.06L413.72,-38.07L406.79,-28.68L407.87,-16.54L416.50,-8.70ZM411.04,-53.83L424.68,-55.06L418.11,-186.84L393.98,-184.67ZM521.58,-17.89L529.28,-27.28L528.12,-39.42L518.80,-47.20L506.76,-46.05L499.06,-36.66L500.21,-24.52L509.54,-16.75ZM500.38,-60.50L521.22,-62.38L520.63,-68.96L522.27,-86.66L532.62,-101.99L551.62,-123.96L558.70,-153.50L540.05,-187.98L498.18,-197.69L462.86,-180.76L451.58,-147.54L470.60,-140.90L479.09,-167.94L500.14,-178.22L523.69,-173.27L535.62,-149.95L531.04,-129.61L517.91,-114.19L502.53,-93.39L499.79,-67.09Z" fill="#ffffff" stroke="#000000"/>
    <path d="M-425.30,-152.62L-470.10,-168.26L-489.40,-217.33L-480.59,-269.55L-441.30,-294.67L-406.72,-287.11L-387.62,-259.51L-368.77,-271.87L-393.52,-304.22L-443.47,-313.92L-500.44,-280.71L-513.46,-214.60L-486.05,-153.06L-423.13,-133.37L-376.72,-154.16L-360.03,-189.97L-380.76,-198.59L-394.85,-167.29ZM-304.42,-152.12L-323.57,-322.05L-344.81,-319.66L-325.66,-149.73ZM-273.76,-300.64L-267.03,-309.91L-268.37,-321.91L-277.16,-329.63L-288.07,-328.40L-294.72,-318.96L-293.38,-306.97L-284.67,-299.41ZM-252.50,-157.97L-266.33,-280.70L-287.57,-278.30L-273.74,-155.58ZM-222.92,-161.31L-201.63,-163.70L-208.79,-227.19L-206.53,-259.29L-183.08,-276.40L-165.62,-270.63L-157.77,-249.93L-148.72,-169.67L-127.48,-172.06L-135.49,-243.10L-130.92,-270.79L-108.70,-284.78L-89.59,-277.16L-83.09,-255.92L-74.31,-178.05L-53.07,-180.44L-62.70,-265.88L-75.69,-295.83L-106.19,-303.60L-127.74,-295.79L-142.46,-275.29L-156.88,-291.77L-179.91,-295.19L-201.65,-287.86L-215.62,-268.72L-217.59,-286.19L-236.70,-284.03ZM41.83,-274.48L-24.99,-245.46L-35.76,-214.53L-19.98,-188.09L10.95,-182.74L32.44,-189.49L50.91,-206.53L52.42,-192.33L72.25,-194.56L63.36,-273.73L48.12,-308.50L10.00,-316.73L-22.13,-304.94L-35.49,-279.18L-17.48,-270.72L-8.77,-290.59L9.79,-299.14L31.13,-295.43ZM43.94,-255.71L47.43,-224.64L33.90,-209.79L12.39,-200.44L-4.07,-202.79L-13.23,-218.03L-5.64,-235.77ZM157.11,-202.46L157.11,-202.46L152.60,-220.49L143.25,-217.99L132.43,-222.02L128.86,-237.27L120.91,-307.83L141.91,-310.20L140.08,-326.49L119.07,-324.12L114.29,-366.60L93.05,-364.21L97.83,-321.73L80.37,-319.76L82.20,-303.47L99.67,-305.44L107.62,-234.88L115.80,-205.79L141.13,-198.36ZM204.01,-233.05L187.96,-264.22L279.06,-274.51L279.28,-283.14L260.16,-326.51L215.53,-339.98L175.87,-317.71L165.70,-267.32L186.82,-220.46L230.44,-207.58L264.34,-221.89L277.63,-249.01L259.93,-257.47L249.42,-235.02L229.61,-225.78ZM186.75,-281.31L196.92,-310.91L217.54,-321.95L242.77,-314.43L255.43,-289.05ZM-660.11,103.05L-603.70,96.70L-544.08,68.14L-530.81,1.95L-559.82,-59.62L-625.91,-72.88L-679.25,-66.87ZM-639.92,80.70L-654.57,-49.34L-623.65,-52.82L-577.11,-44.87L-554.42,4.38L-563.67,56.52L-608.29,77.14ZM-473.11,58.34L-489.16,27.17L-398.07,16.89L-397.85,8.26L-416.97,-35.12L-461.60,-48.58L-501.26,-26.32L-511.43,24.07L-490.30,70.93L-446.68,83.81L-412.79,69.51L-399.50,42.38L-417.20,33.92L-427.70,56.37L-447.51,65.61ZM-490.37,10.08L-480.21,-19.52L-459.59,-30.56L-434.35,-23.04L-421.70,2.34ZM-359.37,30.67L-376.46,41.13L-361.73,63.86L-324.21,70.14L-290.49,57.60L-277.91,26.41L-290.29,2.30L-312.16,-5.99L-341.64,-10.50L-358.27,-15.08L-364.59,-24.30L-359.12,-37.17L-339.60,-43.87L-319.77,-40.79L-309.74,-26.11L-292.82,-36.55L-305.53,-55.93L-340.83,-62.10L-373.71,-49.59L-385.05,-19.57L-373.08,1.90L-350.64,9.66L-319.49,14.25L-304.44,19.80L-299.40,30.74L-307.27,46.06L-325.52,51.96L-348.92,47.07ZM-251.60,-88.03L-244.87,-97.30L-246.21,-109.30L-255.00,-117.02L-265.91,-115.79L-272.56,-106.36L-271.22,-94.37L-262.51,-86.80ZM-230.34,54.63L-244.16,-68.09L-265.41,-65.70L-251.58,57.03ZM-147.64,97.31L-105.75,73.91L-99.79,31.80L-112.71,-82.90L-131.59,-80.78L-129.73,-64.25L-145.40,-78.37L-167.61,-82.08L-205.37,-59.12L-213.82,-9.84L-194.61,36.33L-152.69,50.31L-134.20,43.64L-121.59,29.23L-120.63,38.25L-125.05,66.56L-149.20,78.95L-169.47,75.62L-179.08,59.85L-195.20,69.55L-181.94,90.93ZM-164.37,-64.15L-139.54,-54.63L-124.50,-19.88L-130.54,17.24L-153.52,32.13L-178.61,22.65L-192.14,-12.26L-186.72,-49.32ZM-68.55,36.40L-47.31,34.01L-54.83,-32.78L-49.18,-65.35L-26.40,-78.95L-5.46,-71.99L3.09,-47.91L11.57,27.38L32.81,24.98L24.33,-50.30L12.07,-86.83L-24.14,-97.75L-46.51,-90.10L-61.27,-70.77L-63.26,-88.47L-82.38,-86.32ZM86.22,-4.68L70.17,-35.85L161.27,-46.13L161.49,-54.76L142.37,-98.14L97.74,-111.60L58.07,-89.34L47.91,-38.95L69.03,7.91L112.65,20.79L146.55,6.49L159.84,-20.64L142.14,-29.10L131.63,-6.65L111.82,2.59ZM68.96,-52.94L79.13,-82.53L99.75,-93.58L124.98,-86.05L137.64,-60.68ZM231.37,-105.74L247.92,-102.26L252.27,-120.92L230.59,-126.44L211.02,-117.88L199.09,-96.52L196.70,-117.76L177.58,-115.61L191.27,5.91L212.65,4.72L205.17,-61.60L209.61,-92.06ZM290.83,-42.59L273.73,-32.12L288.46,-9.39L325.99,-3.11L359.71,-15.66L372.29,-46.85L359.91,-70.96L338.04,-79.25L308.56,-83.76L291.93,-88.34L285.61,-97.56L291.08,-110.43L310.60,-117.13L330.43,-114.05L340.45,-99.36L357.38,-109.81L344.67,-129.19L309.36,-135.36L276.49,-122.85L265.15,-92.83L277.12,-71.36L299.56,-63.60L330.70,-59.01L345.76,-53.46L350.80,-42.52L342.93,-27.20L324.67,-21.30L301.27,-26.18ZM417.43,-15.61L424.16,-24.88L422.82,-36.88L414.03,-44.60L403.12,-43.37L396.47,-33.94L397.81,-21.95L406.51,-14.38ZM400.12,-58.91L413.58,-60.43L404.15,-190.66L380.33,-187.97ZM510.27,-25.81L517.68,-35.27L516.27,-47.26L506.87,-54.74L494.98,-53.34L487.58,-43.88L488.99,-31.90L498.39,-24.41ZM488.36,-67.49L508.93,-69.81L508.20,-76.32L509.44,-93.86L519.33,-109.26L537.64,-131.41L543.99,-160.80L524.77,-194.50L483.13,-203.18L448.57,-185.64L438.14,-152.52L457.11,-146.38L464.91,-173.32L485.50,-183.95L508.91,-179.58L521.23,-156.77L517.16,-136.55L504.51,-121.01L489.75,-100.08L487.63,-74.00Z" fill="#ffffff" stroke="#000000"/>
    <path d="M-429.31,-137.98L-473.98,-152.46L-494.16,-200.57L-486.61,-252.42L-448.30,-278.14L-413.93,-271.43L-394.42,-244.56L-376.04,-257.20L-401.25,-288.65L-450.87,-297.14L-506.49,-263.02L-517.91,-197.34L-489.43,-137.07L-426.74,-118.99L-381.30,-140.59L-365.58,-176.38L-386.27,-184.45L-399.52,-153.17ZM-309.73,-140.17L-332.44,-307.84L-353.40,-305.00L-330.69,-137.34ZM-282.70,-287.77L-276.25,-297.09L-277.83,-308.93L-286.70,-316.37L-297.47,-314.91L-303.84,-305.43L-302.24,-293.60L-293.46,-286.31ZM-258.50,-147.11L-274.90,-268.21L-295.86,-265.37L-279.45,-144.28ZM-229.31,-151.07L-208.31,-153.91L-216.79,-216.56L-215.28,-248.36L-192.46,-265.81L-175.06,-260.48L-166.83,-240.19L-156.10,-160.98L-135.14,-163.82L-144.63,-233.92L-140.73,-261.42L-119.06,-275.75L-99.99,-268.63L-93.08,-247.76L-82.68,-170.93L-61.72,-173.77L-73.14,-258.07L-86.65,-287.41L-116.99,-294.42L-138.14,-286.21L-152.25,-265.61L-166.87,-281.59L-189.73,-284.46L-211.08,-276.73L-224.47,-257.49L-226.81,-274.72L-245.67,-272.17ZM30.07,-268.90L-35.38,-238.71L-45.35,-207.88L-29.16,-182.07L1.56,-177.46L22.68,-184.61L40.57,-201.89L42.38,-187.87L61.94,-190.52L51.39,-268.64L35.54,-302.70L-2.35,-309.99L-33.87,-297.61L-46.52,-271.83L-28.51,-263.87L-20.33,-283.71L-2.17,-292.59L19.02,-289.39ZM32.58,-250.38L36.72,-219.72L23.66,-204.73L2.60,-195.01L-13.74,-196.96L-23.14,-211.83L-16.02,-229.56ZM145.71,-200.21L145.71,-200.22L140.85,-217.95L131.65,-215.27L120.86,-219.02L116.99,-234.02L107.56,-303.65L128.29,-306.46L126.11,-322.53L105.38,-319.72L99.71,-361.64L78.75,-358.80L84.43,-316.88L67.19,-314.55L69.37,-298.48L86.60,-300.81L96.03,-231.18L104.77,-202.59L129.99,-195.80ZM191.43,-231.52L174.86,-262.00L264.75,-274.19L264.78,-282.73L244.90,-325.22L200.45,-337.55L161.71,-314.64L152.77,-264.57L174.70,-218.68L218.14,-206.91L251.36,-221.81L263.90,-248.94L246.20,-256.92L236.31,-234.48L216.92,-224.89ZM173.29,-278.88L182.68,-308.38L202.84,-319.76L227.97,-312.88L241.05,-288.06ZM-655.92,120.15L-600.26,112.61L-541.91,83.04L-530.26,17.26L-560.32,-43.00L-626.00,-54.65L-678.63,-47.52ZM-636.44,97.59L-653.82,-30.72L-623.32,-34.85L-577.09,-28.02L-553.56,20.20L-561.55,71.98L-605.24,93.36ZM-471.93,71.77L-488.50,41.29L-398.61,29.09L-398.59,20.55L-418.46,-21.93L-462.91,-34.26L-501.66,-11.36L-510.59,38.71L-488.66,84.60L-445.22,96.38L-412.01,81.47L-399.46,54.35L-417.16,46.37L-427.05,68.81L-446.45,78.39ZM-490.08,24.41L-480.68,-5.09L-460.53,-16.47L-435.40,-9.59L-422.31,15.23ZM-360.03,41.87L-376.71,52.60L-361.63,74.76L-324.37,80.14L-291.29,66.98L-279.54,35.84L-292.32,12.27L-314.14,4.55L-343.40,0.75L-359.95,-3.42L-366.41,-12.39L-361.29,-25.25L-342.12,-32.31L-322.44,-29.70L-312.20,-15.40L-295.69,-26.10L-308.69,-45.00L-343.75,-50.31L-375.99,-37.21L-386.55,-7.26L-374.23,13.71L-351.86,20.89L-320.95,24.74L-305.93,29.90L-300.70,40.61L-308.15,55.94L-326.07,62.18L-349.33,57.86ZM-256.06,-77.95L-249.60,-87.26L-251.19,-99.11L-260.06,-106.55L-270.83,-105.09L-277.20,-95.61L-275.60,-83.78L-266.82,-76.49ZM-231.85,62.71L-248.26,-58.39L-269.21,-55.55L-252.81,65.55ZM-149.10,103.09L-108.18,79.01L-103.22,37.22L-118.55,-75.96L-137.18,-73.43L-134.97,-57.13L-150.78,-70.74L-172.83,-73.93L-209.68,-50.37L-216.95,-1.43L-196.92,43.81L-155.14,56.71L-136.99,49.70L-124.84,35.17L-123.69,44.06L-127.43,72.17L-151.05,84.96L-171.18,82.12L-181.03,66.73L-196.76,76.69L-183.18,97.54ZM-169.23,-56.26L-144.46,-47.40L-128.81,-13.35L-133.96,23.50L-156.36,38.75L-181.39,29.93L-195.55,-4.31L-191.01,-41.09ZM-72.21,41.08L-51.25,38.25L-60.18,-27.66L-55.31,-60.00L-33.07,-73.96L-12.21,-67.54L-3.22,-43.91L6.84,30.38L27.80,27.54L17.74,-46.75L4.80,-82.61L-31.26,-92.60L-53.22,-84.55L-67.39,-65.10L-69.75,-82.56L-88.62,-80.01ZM79.98,-2.99L63.41,-33.47L153.30,-45.66L153.32,-54.21L133.45,-96.69L89.00,-109.02L50.25,-86.12L41.32,-36.04L63.25,9.85L106.69,21.62L139.90,6.71L152.45,-20.41L134.75,-28.39L124.86,-5.95L105.46,3.63ZM61.83,-50.35L71.23,-79.85L91.38,-91.23L116.51,-84.35L129.60,-59.53ZM221.32,-106.19L237.76,-103.11L241.65,-121.66L220.09,-126.65L200.92,-117.74L189.59,-96.35L186.75,-117.31L167.89,-114.75L184.13,5.16L205.25,3.50L196.39,-61.94L200.09,-92.17ZM281.54,-45.04L264.86,-34.30L279.94,-12.15L317.20,-6.77L350.28,-19.93L362.03,-51.06L349.25,-74.63L327.43,-82.35L298.16,-86.16L281.61,-90.32L275.16,-99.29L280.28,-112.15L299.44,-119.21L319.13,-116.60L329.37,-102.30L345.88,-113.00L332.87,-131.90L297.82,-137.21L265.57,-124.11L255.02,-94.17L267.34,-73.19L289.71,-66.02L320.62,-62.16L335.63,-57.00L340.87,-46.30L333.42,-30.96L315.49,-24.73L292.24,-29.04ZM407.37,-21.16L413.82,-30.48L412.24,-42.32L403.37,-49.76L392.60,-48.31L386.23,-38.82L387.83,-26.99L396.60,-19.70ZM389.29,-63.61L402.58,-65.41L390.36,-194.02L366.85,-190.84ZM498.99,-33.31L506.11,-42.84L504.45,-54.66L494.98,-61.85L483.26,-60.21L476.14,-50.68L477.80,-38.86L487.26,-31.66ZM476.39,-74.06L496.69,-76.81L495.82,-83.22L496.65,-100.61L506.10,-116.06L523.72,-138.38L529.35,-167.60L509.59,-200.50L468.21,-208.16L434.40,-190.04L424.83,-157.05L443.73,-151.40L450.84,-178.22L470.98,-189.20L494.23,-185.39L506.92,-163.11L503.34,-143.00L491.17,-127.35L477.04,-106.33L475.52,-80.47Z" fill="#ffffff" stroke="#000000"/>
    <path d="M-432.78,-123.32L-477.28,-136.65L-498.31,-183.79L-491.99,-235.25L-454.67,-261.54L-420.52,-255.66L-400.62,-229.51L-382.73,-242.43L-408.36,-272.98L-457.63,-280.27L-511.89,-245.29L-521.72,-180.06L-492.22,-121.09L-429.81,-104.59L-385.34,-126.97L-370.59,-162.71L-391.24,-170.24L-403.65,-139.00ZM-314.54,-128.14L-340.73,-293.48L-361.40,-290.21L-335.21,-124.87ZM-291.08,-274.73L-284.91,-284.09L-286.74,-295.77L-295.68,-302.93L-306.30,-301.25L-312.39,-291.73L-310.54,-280.06L-301.70,-273.05ZM-264.02,-136.15L-282.93,-255.56L-303.60,-252.28L-284.69,-132.87ZM-235.24,-140.70L-214.53,-143.98L-224.31,-205.76L-223.52,-237.24L-201.34,-255.01L-184.01,-250.13L-175.42,-230.24L-163.05,-152.14L-142.38,-155.41L-153.33,-224.53L-150.07,-251.82L-128.96,-266.48L-109.94,-259.86L-102.65,-239.37L-90.65,-163.60L-69.98,-166.88L-83.14,-250.01L-97.16,-278.73L-127.33,-284.99L-148.06,-276.40L-161.56,-255.71L-176.38,-271.19L-199.05,-273.52L-220.00,-265.40L-232.82,-246.08L-235.51,-263.07L-254.11,-260.12ZM18.70,-263.02L-45.37,-231.69L-54.55,-200.98L-37.95,-175.81L-7.47,-171.94L13.26,-179.48L30.57,-196.96L32.67,-183.13L51.96,-186.19L39.79,-263.23L23.36,-296.56L-14.28,-302.93L-45.18,-289.99L-57.12,-264.21L-39.13,-256.73L-31.49,-276.54L-13.72,-285.72L7.32,-283.03ZM21.60,-244.75L26.37,-214.51L13.79,-199.40L-6.83,-189.31L-23.03,-190.88L-32.66,-205.38L-26.02,-223.07ZM134.60,-197.64L134.61,-197.64L129.40,-215.08L120.37,-212.22L109.61,-215.69L105.45,-230.44L94.57,-299.10L115.01,-302.34L112.50,-318.19L92.06,-314.95L85.52,-356.28L64.85,-353.01L71.40,-311.68L54.40,-308.98L56.91,-293.14L73.91,-295.83L84.78,-227.17L94.06,-199.08L119.16,-192.93ZM179.13,-229.62L162.07,-259.40L250.70,-273.46L250.54,-281.90L229.94,-323.48L185.70,-334.69L147.89,-311.18L140.16,-261.45L162.87,-216.55L206.10,-205.87L238.62,-221.35L250.42,-248.46L232.74,-255.96L223.46,-233.54L204.49,-223.63ZM160.13,-276.06L168.77,-305.45L188.45,-317.15L213.46,-310.90L226.96,-286.64ZM-651.18,137.03L-596.30,128.34L-539.24,97.79L-529.18,32.47L-560.25,-26.47L-625.47,-36.53L-677.37,-28.31ZM-632.42,114.29L-652.46,-12.25L-622.38,-17.01L-576.51,-11.28L-552.16,35.89L-558.91,87.29L-601.65,109.41ZM-470.27,85.09L-487.34,55.31L-398.70,41.25L-398.86,32.80L-419.47,-8.77L-463.71,-19.98L-501.52,3.53L-509.25,53.26L-486.53,98.16L-443.31,108.84L-410.79,93.36L-398.98,66.25L-416.66,58.75L-425.95,81.17L-444.92,91.08ZM-489.27,38.65L-480.63,9.26L-460.95,-2.44L-435.94,3.81L-422.45,28.07ZM-360.25,53.03L-376.51,64.02L-361.11,85.60L-324.13,90.09L-291.71,76.34L-280.78,45.29L-293.94,22.26L-315.69,15.11L-344.72,11.99L-361.18,8.24L-367.77,-0.49L-362.99,-13.32L-344.19,-20.73L-324.66,-18.59L-314.21,-4.67L-298.12,-15.63L-311.41,-34.03L-346.20,-38.51L-377.80,-24.83L-387.57,5.02L-374.92,25.50L-352.64,32.10L-321.98,35.22L-307.01,39.99L-301.60,50.47L-308.63,65.80L-326.22,72.37L-349.32,68.62ZM-260.07,-67.79L-253.90,-77.14L-255.73,-88.82L-264.67,-95.99L-275.29,-94.31L-281.38,-84.79L-279.53,-73.12L-270.69,-66.10ZM-233.01,70.80L-251.92,-48.61L-272.59,-45.34L-253.68,74.07ZM-150.26,108.91L-110.33,84.18L-106.34,42.74L-124.02,-68.87L-142.39,-65.96L-139.84,-49.88L-155.79,-63.00L-177.67,-65.66L-213.59,-41.54L-219.69,7.03L-198.88,51.33L-157.26,63.17L-139.47,55.83L-127.77,41.19L-126.44,49.96L-129.52,77.84L-152.59,91.02L-172.57,88.66L-182.66,73.65L-197.99,83.85L-184.09,104.17ZM-173.71,-48.26L-149.02,-40.05L-132.78,-6.72L-137.05,29.85L-158.87,45.42L-183.83,37.25L-198.59,3.71L-194.92,-32.78ZM-75.59,45.87L-54.92,42.60L-65.22,-22.39L-61.11,-54.49L-39.43,-68.80L-18.65,-62.91L-9.24,-39.73L2.37,33.52L23.03,30.25L11.43,-43.01L-2.16,-78.19L-38.05,-87.27L-59.59,-78.82L-73.17,-59.27L-75.90,-76.49L-94.50,-73.54ZM73.97,-1.10L56.90,-30.88L145.54,-44.94L145.38,-53.39L124.77,-94.97L80.53,-106.18L42.72,-82.66L34.99,-32.94L57.71,11.96L100.93,22.64L133.46,7.16L145.26,-19.95L127.58,-27.44L118.29,-5.03L99.32,4.88ZM54.97,-47.55L63.61,-76.93L83.29,-88.64L108.30,-82.39L121.79,-58.13ZM211.48,-106.32L227.81,-103.64L231.25,-122.07L209.81,-126.53L191.04,-117.29L180.31,-95.88L177.04,-116.55L158.44,-113.60L177.17,4.64L198.02,2.54L187.80,-61.99L190.79,-91.98ZM272.40,-47.17L256.14,-36.18L271.55,-14.60L308.52,-10.10L340.95,-23.86L351.88,-54.91L338.71,-77.94L316.96,-85.09L287.93,-88.21L271.47,-91.96L264.88,-100.69L269.66,-113.52L288.46,-120.93L307.99,-118.79L318.44,-104.87L334.53,-115.82L321.25,-134.22L286.45,-138.70L254.85,-125.03L245.08,-95.17L257.73,-74.70L280.02,-68.10L310.67,-64.98L325.64,-60.21L331.05,-49.73L324.03,-34.40L306.43,-27.83L283.34,-31.58ZM397.39,-26.34L403.57,-35.70L401.73,-47.38L392.79,-54.55L382.18,-52.87L376.09,-43.34L377.93,-31.68L386.77,-24.66ZM378.56,-67.93L391.67,-70.01L376.72,-196.95L353.54,-193.28ZM487.74,-40.40L494.57,-49.98L492.67,-61.63L483.15,-68.54L471.58,-66.65L464.75,-57.07L466.66,-45.41L476.18,-38.51ZM464.48,-80.20L484.50,-83.37L483.50,-89.70L483.94,-106.91L492.93,-122.40L509.87,-144.87L514.79,-173.89L494.51,-206.00L453.41,-212.66L420.38,-193.99L411.64,-161.15L430.46,-155.97L436.90,-182.66L456.58,-193.96L479.66,-190.71L492.71,-168.95L489.61,-148.99L477.92,-133.24L464.41,-112.13L463.48,-86.53Z" fill="#ffffff" stroke="#000000"/>
    <path d="M-435.69,-108.65L-480.00,-120.85L-501.85,-167.01L-496.73,-218.04L-460.41,-244.87L-426.51,-239.81L-406.25,-214.39L-388.84,-227.56L-414.87,-257.21L-463.76,-263.32L-516.64,-227.53L-524.92,-162.80L-494.43,-105.13L-432.34,-90.20L-388.86,-113.31L-375.06,-149.00L-395.65,-155.98L-407.23,-124.81ZM-318.86,-116.05L-348.43,-278.99L-368.80,-275.29L-339.23,-112.36ZM-298.92,-261.55L-293.02,-270.94L-295.09,-282.45L-304.09,-289.34L-314.55,-287.44L-320.36,-277.89L-318.28,-266.39L-309.38,-259.65ZM-269.08,-125.09L-290.43,-242.76L-310.80,-239.07L-289.45,-121.39ZM-240.72,-130.23L-220.30,-133.94L-231.35,-194.81L-231.27,-225.97L-209.72,-244.04L-192.47,-239.59L-183.54,-220.11L-169.57,-143.14L-149.20,-146.84L-161.56,-214.96L-158.95,-242.02L-138.40,-256.98L-119.44,-250.86L-111.77,-230.76L-98.22,-156.09L-77.85,-159.79L-92.72,-241.71L-107.22,-269.80L-137.19,-275.33L-157.51,-266.37L-170.40,-245.61L-185.40,-260.59L-207.87,-262.39L-228.40,-253.90L-240.66,-234.50L-243.70,-251.25L-262.03,-247.92ZM7.72,-256.84L-54.95,-224.44L-63.35,-193.85L-46.38,-169.33L-16.14,-166.18L4.19,-174.10L20.93,-191.77L23.31,-178.14L42.32,-181.59L28.57,-257.51L11.58,-290.12L-25.78,-295.58L-56.06,-282.10L-67.29,-256.34L-49.34,-249.34L-42.22,-269.10L-24.84,-278.57L-3.99,-276.38ZM10.99,-238.83L16.38,-209.04L4.27,-193.81L-15.90,-183.38L-31.96,-184.57L-41.80,-198.70L-35.62,-216.34ZM123.80,-194.75L123.80,-194.75L118.27,-211.88L109.39,-208.86L98.68,-212.05L94.23,-226.55L81.96,-294.21L102.10,-297.87L99.26,-313.48L79.12,-309.83L71.73,-350.56L51.36,-346.86L58.75,-306.13L42.01,-303.09L44.84,-287.48L61.59,-290.51L73.87,-222.85L83.67,-195.28L108.63,-189.75ZM167.13,-227.36L149.59,-256.44L236.94,-272.31L236.59,-280.66L215.29,-321.33L171.29,-331.43L134.41,-307.34L127.87,-257.99L151.34,-214.08L194.32,-204.48L226.14,-220.51L237.22,-247.58L219.56,-254.60L210.88,-232.23L192.34,-222.01ZM147.31,-272.88L155.20,-302.13L174.40,-314.14L199.28,-308.52L213.16,-284.83ZM-645.92,153.68L-591.83,143.86L-536.08,112.39L-527.58,47.56L-559.61,-10.04L-624.34,-18.54L-675.48,-9.26ZM-627.87,130.77L-650.49,6.07L-620.85,0.69L-575.35,5.35L-550.23,51.45L-555.77,102.44L-597.54,125.26ZM-468.15,98.30L-485.69,69.22L-398.34,53.35L-398.69,45.00L-419.99,4.33L-463.99,-5.77L-500.86,18.32L-507.40,67.67L-483.94,111.58L-440.95,121.18L-409.13,105.15L-398.06,78.08L-415.71,71.06L-424.40,93.43L-442.94,103.65ZM-487.97,52.78L-480.08,23.53L-460.87,11.52L-436.00,17.14L-422.12,40.83ZM-360.05,64.14L-375.89,75.37L-360.17,96.37L-323.50,100.00L-291.74,85.68L-281.62,54.72L-295.15,32.24L-316.82,25.65L-345.60,23.21L-361.97,19.87L-368.67,11.38L-364.23,-1.42L-345.80,-9.16L-326.44,-7.48L-315.80,6.05L-300.13,-5.14L-313.67,-23.04L-348.18,-26.70L-379.13,-12.47L-388.14,17.27L-375.17,37.24L-352.98,43.27L-322.59,45.68L-307.69,50.07L-302.10,60.31L-308.71,75.63L-325.96,82.51L-348.89,79.32ZM-263.66,-57.57L-257.76,-66.96L-259.83,-78.47L-268.83,-85.36L-279.29,-83.46L-285.10,-73.91L-283.02,-62.41L-274.12,-55.67ZM-233.82,78.90L-255.17,-38.78L-275.54,-35.09L-254.18,82.59ZM-151.13,114.74L-112.18,89.41L-109.16,48.33L-129.12,-61.66L-147.22,-58.37L-144.35,-42.53L-160.41,-55.14L-182.11,-57.29L-217.10,-32.64L-222.06,15.53L-200.49,58.88L-159.07,69.66L-141.64,62.01L-130.39,47.27L-128.88,55.92L-131.30,83.56L-153.83,97.10L-173.64,95.21L-183.95,80.60L-198.89,91.02L-184.69,110.82ZM-177.81,-40.18L-153.20,-32.60L-136.40,0.00L-139.82,36.26L-161.06,52.15L-185.92,44.63L-201.27,11.77L-198.44,-24.39ZM-78.68,50.74L-58.31,47.05L-69.93,-17.00L-66.59,-48.84L-45.46,-63.46L-24.78,-58.10L-14.95,-35.39L-1.85,36.80L18.51,33.11L5.41,-39.08L-8.81,-73.58L-44.50,-81.77L-65.62,-72.93L-78.62,-53.29L-81.70,-70.26L-100.03,-66.93ZM68.19,0.97L50.65,-28.11L138.00,-43.98L137.65,-52.33L116.35,-92.99L72.35,-103.10L35.48,-79.00L28.94,-29.65L52.40,14.25L95.39,23.86L127.21,7.82L138.28,-19.25L120.63,-26.27L111.94,-3.90L93.40,6.32ZM48.37,-44.54L56.26,-73.80L75.47,-85.81L100.34,-80.19L114.22,-56.49ZM201.86,-106.14L218.07,-103.85L221.06,-122.16L199.75,-126.09L181.40,-116.54L171.26,-95.13L167.57,-115.49L149.24,-112.17L170.38,4.36L190.96,1.81L179.42,-61.78L181.72,-91.50ZM263.42,-48.99L247.58,-37.77L263.30,-16.76L299.96,-13.14L331.73,-27.46L341.85,-58.41L328.32,-80.90L306.64,-87.49L277.86,-89.93L261.50,-93.27L254.80,-101.76L259.24,-114.56L277.67,-122.30L297.02,-120.62L307.67,-107.08L323.34,-118.27L309.79,-136.18L275.28,-139.83L244.33,-125.61L235.33,-95.86L248.30,-75.90L270.48,-69.86L300.88,-67.45L315.78,-63.07L321.37,-52.83L314.76,-37.51L297.51,-30.63L274.58,-33.82ZM387.50,-31.17L393.39,-40.57L391.32,-52.08L382.32,-58.96L371.86,-57.07L366.05,-47.51L368.13,-36.02L377.03,-29.28ZM367.95,-71.89L380.86,-74.23L363.27,-199.44L340.42,-195.30ZM476.54,-47.08L483.08,-56.70L480.94,-68.19L471.37,-74.81L459.98,-72.68L453.44,-63.06L455.58,-51.57L465.15,-44.95ZM452.65,-85.92L472.38,-89.50L471.25,-95.74L471.30,-112.77L479.86,-128.30L496.11,-150.89L500.33,-179.70L479.56,-211.01L438.77,-216.68L406.51,-197.48L398.60,-164.81L417.32,-160.11L423.10,-186.64L442.31,-198.26L465.21,-195.56L478.60,-174.33L475.98,-154.52L464.77,-138.68L451.87,-117.50L451.52,-92.16Z" fill="#ffffff" stroke="#000000"/>
    <path d="M-438.06,-94.01L-482.15,-105.09L-504.77,-150.24L-500.85,-200.82L-465.52,-228.16L-431.89,-223.91L-411.29,-199.23L-394.37,-212.63L-420.76,-241.37L-469.25,-246.33L-520.74,-209.76L-527.50,-145.57L-496.06,-89.22L-434.34,-75.83L-391.85,-99.65L-379.00,-135.25L-399.51,-141.70L-410.28,-110.62ZM-322.70,-103.92L-355.55,-264.39L-375.61,-260.28L-342.76,-99.81ZM-306.20,-248.24L-300.57,-257.65L-302.88,-268.99L-311.93,-275.60L-322.24,-273.49L-327.77,-263.92L-325.46,-252.59L-316.50,-246.13ZM-273.66,-113.95L-297.39,-229.85L-317.45,-225.74L-293.72,-109.85ZM-245.73,-119.67L-225.63,-123.79L-237.90,-183.74L-238.51,-214.56L-217.61,-232.90L-200.45,-228.89L-191.18,-209.82L-175.66,-134.02L-155.60,-138.13L-169.34,-205.21L-167.36,-232.03L-147.36,-247.28L-128.48,-241.65L-120.45,-221.94L-105.39,-148.41L-85.33,-152.51L-101.85,-233.19L-116.81,-260.66L-146.58,-265.45L-166.47,-256.15L-178.75,-235.33L-193.92,-249.81L-216.19,-251.09L-236.30,-242.24L-247.99,-222.78L-251.36,-239.27L-269.42,-235.58ZM-2.87,-250.38L-64.12,-216.95L-71.75,-186.52L-54.42,-162.65L-24.45,-160.20L-4.52,-168.49L11.64,-186.33L14.29,-172.91L33.01,-176.74L17.74,-251.51L0.22,-283.38L-36.86,-287.95L-66.50,-273.95L-77.04,-248.22L-59.13,-241.70L-52.52,-261.40L-35.55,-271.16L-14.88,-269.44ZM0.76,-232.65L6.76,-203.31L-4.88,-187.98L-24.59,-177.22L-40.50,-178.04L-50.55,-191.79L-44.83,-209.38ZM113.30,-191.56L113.30,-191.57L107.45,-208.38L98.74,-205.19L88.07,-208.11L83.36,-222.35L69.71,-288.99L89.55,-293.05L86.40,-308.43L66.57,-304.37L58.35,-344.49L38.29,-340.38L46.51,-300.26L30.01,-296.88L33.16,-281.51L49.65,-284.88L63.30,-218.24L73.60,-191.19L98.41,-186.28ZM155.42,-224.78L137.43,-253.14L223.46,-270.77L222.93,-279.02L200.96,-318.76L157.23,-327.78L121.30,-303.13L115.93,-254.19L140.10,-211.29L182.82,-202.75L213.93,-219.31L224.28,-246.33L206.67,-252.88L198.58,-230.56L180.47,-220.04ZM134.81,-269.34L141.97,-298.45L160.69,-310.75L185.41,-305.74L199.67,-282.62ZM-640.12,170.07L-586.86,159.17L-532.43,126.81L-525.46,62.51L-558.42,6.26L-622.61,-0.71L-672.98,9.60ZM-622.78,147.02L-647.93,24.21L-618.73,18.23L-573.64,21.83L-547.77,66.86L-552.11,117.40L-592.92,140.90ZM-465.56,111.36L-483.55,83.00L-397.53,65.37L-398.06,57.12L-420.02,17.38L-463.76,8.36L-499.69,33.01L-505.06,81.95L-480.88,124.85L-438.16,133.39L-407.05,116.83L-396.70,89.81L-414.32,83.26L-422.41,105.58L-440.52,116.10ZM-486.18,66.80L-479.02,37.69L-460.29,25.39L-435.57,30.40L-421.32,53.52ZM-359.42,75.19L-374.84,86.65L-358.83,107.07L-322.49,109.84L-291.40,94.97L-282.08,64.13L-295.96,42.20L-317.53,36.16L-346.05,34.39L-362.30,31.45L-369.12,23.20L-365.01,10.45L-346.96,2.38L-327.78,3.62L-316.96,16.77L-301.71,5.35L-315.50,-12.05L-349.71,-14.90L-380.00,-0.15L-388.24,29.46L-374.97,48.92L-352.90,54.40L-322.79,56.10L-307.96,60.11L-302.20,70.11L-308.40,85.41L-325.31,92.60L-348.05,89.95ZM-266.80,-47.30L-261.18,-56.72L-263.48,-68.06L-272.53,-74.67L-282.84,-72.56L-288.37,-62.99L-286.06,-51.66L-277.11,-45.20ZM-234.27,86.98L-258.00,-28.92L-278.05,-24.81L-254.33,91.08ZM-151.70,120.59L-113.75,94.67L-111.68,53.98L-133.85,-54.34L-151.68,-50.69L-148.49,-35.08L-164.65,-47.20L-186.16,-48.84L-220.21,-23.69L-224.04,24.05L-201.76,66.45L-160.56,76.19L-143.49,68.24L-132.69,53.41L-131.01,61.93L-132.79,89.32L-154.77,103.21L-174.40,101.78L-184.92,87.56L-199.46,98.20L-184.98,117.45ZM-181.53,-32.01L-157.03,-25.06L-139.69,6.80L-142.26,42.73L-162.91,58.92L-187.66,52.03L-203.57,19.88L-201.58,-15.94ZM-81.48,55.70L-61.42,51.59L-74.33,-11.49L-71.73,-43.05L-51.17,-57.98L-30.60,-53.13L-20.37,-30.89L-5.82,40.20L14.24,36.10L-0.32,-35.00L-15.15,-68.79L-50.62,-76.10L-71.31,-66.89L-83.73,-47.18L-87.16,-63.90L-105.21,-60.20ZM62.65,3.22L44.66,-25.15L130.69,-42.78L130.16,-51.03L108.19,-90.77L64.46,-99.79L28.53,-75.14L23.16,-26.20L47.33,16.70L90.06,25.24L121.17,8.68L131.51,-18.33L113.90,-24.89L105.81,-2.57L87.70,7.95ZM42.04,-41.35L49.20,-70.46L67.92,-82.76L92.64,-77.75L106.90,-54.63ZM192.45,-105.67L208.54,-103.77L211.08,-121.94L189.93,-125.35L171.99,-115.50L162.45,-94.10L158.34,-114.16L140.29,-110.46L163.78,4.30L184.07,1.33L171.25,-61.30L172.86,-90.75ZM254.60,-50.52L239.19,-39.07L255.19,-18.65L291.54,-15.88L322.63,-30.75L331.95,-61.58L318.07,-83.52L296.49,-89.55L267.98,-91.32L251.72,-94.27L244.90,-102.52L249.01,-115.27L267.06,-123.33L286.24,-122.10L297.07,-108.95L312.32,-120.36L298.53,-137.77L264.32,-140.62L234.03,-125.87L225.78,-96.25L239.05,-76.80L261.13,-71.32L291.23,-69.61L306.07,-65.61L311.82,-55.60L305.63,-40.31L288.72,-33.12L265.97,-35.77ZM377.69,-35.66L383.32,-45.08L381.02,-56.41L371.96,-63.02L361.66,-60.91L356.12,-51.34L358.44,-40.02L367.39,-33.55ZM357.46,-75.48L370.18,-78.09L350.00,-201.52L327.50,-196.91ZM465.40,-53.36L471.65,-63.02L469.28,-74.34L459.67,-80.67L448.45,-78.31L442.19,-68.65L444.57,-57.34L454.18,-51.00ZM440.91,-91.24L460.34,-95.22L459.08,-101.36L458.76,-118.21L466.87,-133.75L482.44,-156.46L485.98,-185.04L464.74,-215.53L424.28,-220.24L392.80,-200.54L385.71,-168.05L404.33,-163.82L409.45,-190.19L428.19,-202.10L450.90,-199.94L464.61,-179.24L462.46,-159.59L451.72,-143.68L439.44,-122.45L439.66,-97.39Z" fill="#ffffff" stroke="#000000"/>
    <path d="M-439.89,-79.40L-483.72,-89.37L-507.10,-133.52L-504.34,-183.61L-470.02,-211.43L-436.67,-207.98L-415.76,-184.03L-399.32,-197.66L-426.05,-225.49L-474.10,-229.32L-524.21,-192.01L-529.46,-128.40L-497.13,-73.37L-435.80,-61.51L-394.32,-86.01L-382.41,-121.48L-402.83,-127.40L-412.78,-96.44ZM-326.04,-91.75L-362.09,-249.69L-381.83,-245.19L-345.78,-87.25ZM-312.93,-234.82L-307.58,-244.26L-310.11,-255.41L-319.21,-261.75L-329.35,-259.43L-334.61,-249.85L-332.07,-238.70L-323.07,-232.50ZM-277.78,-102.77L-303.81,-216.83L-323.56,-212.33L-297.52,-98.26ZM-250.29,-109.04L-230.50,-113.56L-243.97,-172.56L-245.26,-203.02L-224.99,-221.62L-207.94,-218.03L-198.35,-199.39L-181.32,-124.78L-161.58,-129.29L-176.65,-195.31L-175.29,-221.87L-155.86,-237.40L-137.06,-232.25L-128.68,-212.94L-112.16,-140.57L-92.42,-145.07L-110.55,-224.48L-125.95,-251.30L-155.49,-255.38L-174.94,-245.74L-186.63,-224.89L-201.95,-238.86L-223.99,-239.64L-243.68,-230.44L-254.81,-210.94L-258.51,-227.17L-276.28,-223.12ZM-13.05,-243.67L-72.88,-209.26L-79.74,-179.00L-62.08,-155.78L-32.39,-154.03L-12.88,-162.66L2.71,-180.66L5.63,-167.45L24.06,-171.66L7.29,-245.25L-10.74,-276.36L-47.50,-280.07L-76.50,-265.56L-86.34,-239.89L-68.49,-233.84L-62.39,-253.47L-45.83,-263.49L-25.35,-262.25ZM-9.07,-226.22L-2.49,-197.34L-13.66,-181.92L-32.91,-170.85L-48.66,-171.31L-58.90,-184.68L-53.63,-202.19ZM103.11,-188.09L103.11,-188.09L96.95,-204.59L88.41,-201.25L77.80,-203.89L72.82,-217.87L57.85,-283.45L77.38,-287.91L73.92,-303.05L54.40,-298.59L45.39,-338.07L25.65,-333.57L34.66,-294.08L18.42,-290.38L21.88,-275.24L38.11,-278.95L53.08,-213.36L63.87,-186.85L88.50,-182.54ZM144.02,-221.86L125.61,-249.51L210.27,-268.85L209.57,-277.00L186.97,-315.81L143.52,-323.75L108.54,-298.58L104.32,-250.07L129.17,-208.19L171.61,-200.69L202.00,-217.76L211.63,-244.70L194.07,-250.79L186.56,-228.54L168.89,-217.74ZM122.65,-265.47L129.08,-294.41L147.33,-306.99L171.88,-302.59L186.49,-280.04ZM-633.82,186.20L-581.39,174.23L-528.29,141.03L-522.83,77.30L-556.67,22.42L-620.29,16.95L-669.87,28.26ZM-617.19,163.02L-644.77,42.15L-616.04,35.59L-571.37,38.14L-544.80,82.10L-547.97,132.17L-587.79,156.31ZM-462.53,124.28L-480.94,96.63L-396.27,77.29L-396.98,69.14L-419.58,30.34L-463.03,22.39L-498.00,47.56L-502.23,96.07L-477.37,137.95L-434.94,145.45L-404.55,128.39L-394.92,101.44L-412.48,95.35L-419.98,117.60L-437.65,128.40ZM-483.89,80.67L-477.46,51.73L-459.22,39.15L-434.67,43.55L-420.06,66.10ZM-358.38,86.16L-373.36,97.82L-357.09,117.66L-321.09,119.59L-290.68,104.20L-282.15,73.51L-296.36,52.13L-317.83,46.64L-346.06,45.52L-362.20,42.97L-369.12,34.96L-365.34,22.27L-347.67,13.89L-328.68,14.68L-317.69,27.44L-302.86,15.82L-316.88,-1.08L-350.77,-3.14L-380.39,12.12L-387.89,41.58L-374.34,60.52L-352.39,65.45L-322.58,66.47L-307.82,70.10L-301.91,79.86L-307.70,95.12L-324.26,102.61L-346.81,100.49ZM-269.52,-37.02L-264.17,-46.46L-266.69,-57.62L-275.79,-63.95L-285.93,-61.64L-291.19,-52.05L-288.66,-40.90L-279.66,-34.70ZM-234.37,95.03L-260.40,-19.04L-280.14,-14.53L-254.11,99.54ZM-151.99,126.44L-115.04,99.96L-113.89,59.69L-138.22,-46.92L-155.77,-42.92L-152.26,-27.56L-168.51,-39.18L-189.81,-40.33L-222.93,-14.70L-225.66,32.59L-202.68,74.01L-161.73,82.73L-145.02,74.49L-134.68,59.59L-132.83,67.97L-133.98,95.09L-155.40,109.32L-174.84,108.34L-185.56,94.51L-199.70,105.35L-184.96,124.07ZM-184.86,-23.79L-160.48,-17.46L-142.63,13.66L-144.38,49.24L-164.44,65.70L-189.06,59.44L-205.50,28.01L-204.33,-7.46ZM-83.99,60.71L-64.25,56.21L-78.42,-5.87L-76.55,-37.14L-56.54,-52.36L-36.10,-48.02L-25.49,-26.26L-9.52,43.72L10.22,39.21L-5.75,-30.77L-21.17,-63.85L-56.41,-70.29L-76.66,-60.72L-88.50,-40.96L-92.26,-57.41L-110.03,-53.36ZM57.36,5.62L38.94,-22.02L123.61,-41.37L122.90,-49.51L100.30,-88.32L56.85,-96.26L21.88,-71.10L17.65,-22.58L42.51,19.30L84.94,26.79L115.33,9.73L124.97,-17.21L107.40,-23.30L99.90,-1.05L82.23,9.75ZM35.99,-37.98L42.42,-66.92L60.66,-79.50L85.21,-75.10L99.82,-52.55ZM183.28,-104.92L199.23,-103.40L201.34,-121.42L180.35,-124.33L162.83,-114.18L153.87,-92.81L149.36,-112.56L131.59,-108.50L157.37,4.45L177.37,1.06L163.30,-60.58L164.24,-89.73ZM245.95,-51.77L230.97,-40.11L247.25,-20.27L283.24,-18.34L313.66,-33.73L322.19,-64.42L307.98,-85.80L286.51,-91.29L258.27,-92.41L242.14,-94.96L235.21,-102.96L238.99,-115.66L256.66,-124.04L275.65,-123.25L286.65,-110.48L301.47,-122.11L287.45,-139.01L253.56,-141.07L223.94,-125.81L216.45,-96.35L230.00,-77.40L251.94,-72.48L281.75,-71.46L296.51,-67.83L302.42,-58.07L296.63,-42.81L280.07,-35.32L257.53,-37.44ZM367.99,-39.80L373.35,-49.24L370.82,-60.40L361.72,-66.74L351.58,-64.42L346.32,-54.83L348.86,-43.69L357.85,-37.49ZM347.11,-78.73L359.62,-81.59L336.93,-203.19L314.79,-198.13ZM454.32,-59.25L460.29,-68.95L457.69,-80.08L448.05,-86.13L437.01,-83.55L431.04,-73.86L433.63,-62.72L443.28,-56.68ZM429.27,-96.17L448.39,-100.53L447.01,-106.58L446.31,-123.23L453.99,-138.77L468.88,-161.57L471.74,-189.91L450.07,-219.59L409.96,-223.35L379.28,-203.17L372.98,-170.89L391.49,-167.12L395.97,-193.30L414.23,-205.50L436.73,-203.87L450.75,-183.71L449.06,-164.23L438.80,-148.26L427.12,-127.00L427.89,-102.21Z" fill="#ffffff" stroke="#000000"/>
    <path d="M-906.35,492L-906.35,469.28L-898.22,492L-894.99,492L-886.86,469.28L-886.86,492L-883.25,492L-883.25,464.64L-888.22,464.64L-896.55,487.33L-904.68,464.64L-909.96,464.64L-909.96,492ZM-865.67,478.75L-876.82,482.17L-879.09,486.89L-877.05,491.38L-872.23,492.78L-868.69,492.09L-865.45,489.71L-865.46,492L-862.27,492L-862.27,479.25L-864.06,473.45L-869.98,471.46L-875.30,472.76L-877.88,476.62L-875.17,478.28L-873.43,475.28L-870.33,474.25L-867.00,475.23ZM-865.67,481.77L-865.68,486.77L-868.09,488.89L-871.68,489.99L-874.26,489.33L-875.44,486.74L-873.91,484.05ZM-857.12,492L-853.70,492L-853.70,481.25L-852.22,476.17L-848.35,474.41L-845.15,475.90L-844.22,479.88L-844.22,492L-840.80,492L-840.80,479.88L-842.09,473.85L-847.66,471.47L-851.35,472.28L-854.04,475.09L-854.04,472.24L-857.12,472.24ZM-833.34,468.94L-832.11,467.58L-832.10,465.65L-833.36,464.27L-835.12,464.27L-836.35,465.65L-836.35,467.58L-835.10,468.94ZM-832.52,492L-832.52,472.24L-835.94,472.24L-835.94,492ZM-818.31,468.12L-817.85,465.29L-820.94,464.71L-825.30,466.41L-826.70,471.29L-826.70,472.24L-829.67,472.24L-829.67,474.86L-826.70,474.86L-826.70,492L-823.40,492L-823.40,474.86L-819.56,474.86L-819.56,472.24L-823.40,472.24L-823.40,471.21L-822.75,468.65L-820.52,467.74ZM-807.97,471.46L-814.77,474.29L-817.39,482.12L-814.77,489.95L-807.97,492.78L-801.17,489.95L-798.55,482.12L-801.16,474.29ZM-807.97,489.87L-812.08,488.06L-813.90,482.12L-812.08,476.18L-807.97,474.37L-803.85,476.18L-802.04,482.12L-803.85,488.06ZM-795.03,492L-791.61,492L-791.61,481.25L-790.13,476.17L-786.26,474.41L-783.06,475.90L-782.13,479.88L-782.13,492L-778.71,492L-778.71,479.88L-780.00,473.85L-785.56,471.47L-789.26,472.28L-791.95,475.09L-791.95,472.24L-795.03,472.24ZM-765.45,492.27L-765.45,492.26L-765.85,489.32L-767.38,489.55L-769.03,488.71L-769.32,486.22L-769.32,474.86L-765.94,474.86L-765.94,472.24L-769.32,472.24L-769.32,465.40L-772.74,465.40L-772.74,472.24L-775.55,472.24L-775.55,474.86L-772.74,474.86L-772.74,486.22L-771.96,491.00L-768.07,492.63ZM-737.50,487.93L-737.50,478.13L-749.05,478.13L-749.05,481.31L-740.99,481.31L-740.97,486.22L-748.63,489.75L-755.95,486.41L-758.55,478.32L-756.06,470.17L-749.21,466.88L-744.27,468.25L-741.30,473.01L-738.24,471.11L-741.44,465.93L-749.13,463.79L-758.98,468.04L-762.42,478.32L-758.78,488.60L-748.74,492.86ZM-724.35,474.77L-721.78,475.62L-720.76,472.73L-724.11,471.47L-727.37,472.48L-729.65,475.66L-729.65,472.24L-732.73,472.24L-732.73,491.81L-729.31,492L-729.31,481.32L-728.06,476.56ZM-710.01,471.46L-716.81,474.29L-719.42,482.12L-716.81,489.95L-710.01,492.78L-703.20,489.95L-700.58,482.12L-703.20,474.29ZM-710.01,489.87L-714.12,488.06L-715.93,482.12L-714.12,476.18L-710.01,474.37L-705.89,476.18L-704.07,482.12L-705.89,488.06ZM-688.58,492.27L-688.58,492.26L-688.97,489.32L-690.51,489.55L-692.15,488.71L-692.45,486.22L-692.45,474.86L-689.07,474.86L-689.07,472.24L-692.45,472.24L-692.45,465.40L-695.87,465.40L-695.87,472.24L-698.68,472.24L-698.68,474.86L-695.87,474.86L-695.87,486.22L-695.09,491.00L-691.19,492.63ZM-680.57,488.24L-682.57,483.00L-667.90,482.99L-667.71,481.63L-669.97,474.39L-676.83,471.45L-683.53,474.28L-686.05,482.11L-683.53,489.93L-676.83,492.76L-671.18,491.10L-668.58,487.02L-671.25,485.36L-673.32,488.74L-676.63,489.86ZM-682.45,480.26L-680.31,475.73L-676.83,474.35L-672.95,476.00L-671.40,480.26ZM-661.99,485.88L-664.90,487.24L-662.96,491.11L-657.11,492.78L-651.52,491.39L-648.97,486.66L-650.50,482.61L-653.83,480.90L-658.44,479.65L-661.00,478.62L-661.84,477.05L-660.74,475.10L-657.52,474.38L-654.42,475.23L-653.09,477.74L-650.21,476.38L-651.88,473.07L-657.39,471.46L-662.84,472.86L-665.18,477.43L-663.66,481.06L-660.23,482.69L-655.36,483.98L-653.07,485.13L-652.46,486.96L-653.99,489.26L-656.99,489.87L-660.63,488.67ZM-641.92,483.45L-638.72,483.45L-637.20,484.67L-633.14,492.30L-630.05,490.63L-634.16,483.45L-636.67,482.04L-634.62,480.06L-632.77,476.14L-631.66,475.64L-630.10,475.39L-630.56,472.24L-633.40,472.52L-635.30,474.17L-637.43,478.82L-638.72,480.60L-641.91,480.60L-641.91,464.64L-643.66,464.64L-645.32,464.64L-645.33,492L-641.92,492ZM-625.58,492.01L-615.04,492.01L-607.42,490.45L-604.53,484.21L-606.06,480.03L-610.31,477.70L-606.80,475.27L-605.82,471.62L-608.58,466.13L-615.58,464.63L-625.58,464.63ZM-621.94,476.42L-621.95,467.89L-616.40,467.89L-611.64,468.44L-609.62,472.08L-611.57,475.51L-615.93,476.42ZM-621.94,488.79L-621.94,479.64L-615.54,479.64L-610.64,480.53L-608.45,484.21L-610.32,488.02L-615.04,488.79ZM-592.40,471.46L-599.20,474.29L-601.81,482.12L-599.20,489.95L-592.40,492.78L-585.59,489.95L-582.97,482.12L-585.59,474.29ZM-592.40,489.87L-596.51,488.06L-598.32,482.12L-596.51,476.18L-592.40,474.37L-588.28,476.18L-586.46,482.12L-588.28,488.06ZM-571.27,471.46L-578.07,474.29L-580.68,482.12L-578.07,489.95L-571.27,492.78L-564.46,489.95L-561.85,482.12L-564.46,474.29ZM-571.27,489.87L-575.38,488.06L-577.19,482.12L-575.38,476.18L-571.27,474.37L-567.15,476.18L-565.33,482.12L-567.15,488.06ZM-554.82,483.45L-551.62,483.45L-550.10,484.67L-546.04,492.30L-542.96,490.63L-547.06,483.45L-549.57,482.04L-547.52,480.06L-545.67,476.14L-544.56,475.64L-543.00,475.39L-543.46,472.24L-546.31,472.52L-548.20,474.17L-550.34,478.82L-551.62,480.60L-554.82,480.60L-554.82,464.64L-556.56,464.64L-558.23,464.64L-558.23,492L-554.82,492Z"/>
</svg>