<?xml version="1.0"?>
<svg xmlns="http://www.w3.org/2000/svg" width="1920" height="1080" viewBox="-960 -540 1920 1080">
    <path d="M-560,-270L-560,-300L-540,-360L-490,-400L-470,-400L-450,-380L-450,-350L-430,-350L-410,-370L-420,-390L-470,-410L-500,-410L-540,-390L-570,-360L-590,-330L-600,-280L-580,-230L-540,-210L-500,-210L-470,-230L-440,-260L-450,-270L-480,-240L-510,-220L-530,-220L-550,-230ZM-400,-230L-310,-420L-380,-420L-380,-410L-350,-410L-430,-230L-430,-220L-410,-210L-380,-220L-330,-270L-340,-280L-390,-230ZM-220,-370L-210,-370L-200,-390L-200,-400L-220,-410L-230,-410L-240,-390L-240,-380ZM-330,-290L-320,-280L-270,-330L-260,-330L-320,-230L-320,-220L-310,-210L-290,-210L-270,-220L-220,-270L-230,-280L-280,-230L-290,-230L-230,-330L-230,-340L-250,-350L-280,-340ZM-60,-300L-40,-320L-20,-330L-10,-320L-60,-230L-60,-220L-50,-210L-30,-210L-10,-220L40,-270L30,-280L-20,-230L-30,-230L20,-310L20,-340L-10,-350L-40,-340L-60,-320L-60,-340L-80,-350L-110,-340L-140,-310L-130,-330L-130,-340L-140,-350L-170,-340L-220,-290L-210,-280L-160,-330L-150,-330L-210,-220L-200,-210L-180,-210L-140,-290L-110,-320L-90,-330L-80,-320L-130,-220L-120,-210L-100,-210ZM200,-340L190,-350L170,-320L160,-340L120,-350L70,-310L50,-260L60,-220L80,-210L100,-210L130,-240L130,-220L140,-210L170,-220L220,-270L210,-280L160,-230L150,-230ZM100,-230L90,-230L80,-260L100,-300L130,-330L150,-330L160,-310L160,-300L130,-260ZM250,-230L300,-330L330,-330L330,-340L300,-340L320,-380L300,-380L290,-350L270,-340L250,-340L250,-330L270,-330L220,-230L220,-220L230,-210L250,-210L270,-220L320,-270L310,-280L260,-230ZM470,-300L470,-320L460,-340L420,-350L370,-320L340,-260L350,-220L370,-210L390,-210L410,-220L450,-260L440,-270L400,-230L380,-230L370,-260L390,-300L420,-330L440,-330L440,-300L420,-290L390,-290L390,-280L440,-280ZM-730,-158L-710,-138L-760,22L-790,42L-670,42L-630,22L-600,-8L-580,-38L-570,-88L-590,-138L-640,-158ZM-610,-68L-630,-8L-660,22L-680,32L-720,32L-730,22L-680,-138L-670,-148L-640,-148L-620,-138L-610,-98ZM-430,-48L-430,-68L-440,-88L-480,-98L-530,-68L-560,-8L-550,32L-530,42L-510,42L-490,32L-450,-8L-460,-18L-500,22L-520,22L-530,-8L-510,-48L-480,-78L-460,-78L-460,-48L-480,-38L-510,-38L-510,-28L-460,-28ZM-410,32L-410,2L-420,-8L-440,2L-440,32L-420,42L-400,42L-370,32L-350,12L-350,-8L-360,-58L-360,-78L-340,-88L-340,-58L-330,-48L-310,-58L-310,-88L-340,-98L-380,-88L-390,-68L-390,-48L-380,-8L-380,12L-400,32ZM-200,-118L-190,-118L-180,-138L-180,-148L-200,-158L-210,-158L-220,-138L-220,-128ZM-310,-38L-300,-28L-250,-78L-240,-78L-300,22L-300,32L-290,42L-270,42L-250,32L-200,-18L-210,-28L-260,22L-270,22L-210,-78L-210,-88L-230,-98L-260,-88ZM-180,12L-180,22L-170,32L-220,52L-230,72L-220,102L-180,122L-160,122L-120,112L-100,82L-100,62L-150,22L-150,12L-120,12L-70,-18L-60,-48L-70,-78L-40,-78L-40,-88L-80,-88L-120,-98L-170,-68L-180,-38L-160,2ZM-120,-78L-100,-78L-90,-48L-90,-38L-120,-8L-140,-8L-150,-38L-150,-48ZM-160,42L-130,72L-130,92L-160,112L-190,92L-200,72L-190,52ZM-50,-38L-40,-28L10,-78L20,-78L-40,32L-30,42L-10,42L30,-38L60,-68L80,-78L90,-68L40,22L40,32L50,42L70,42L90,32L140,-18L130,-28L80,22L70,22L120,-58L120,-88L90,-98L60,-88L30,-58L40,-78L40,-88L30,-98L0,-88ZM280,-48L280,-68L270,-88L230,-98L180,-68L150,-8L160,32L180,42L200,42L220,32L260,-8L250,-18L210,22L190,22L180,-8L200,-48L230,-78L250,-78L250,-48L230,-38L200,-38L200,-28L250,-28ZM280,-38L290,-28L340,-78L350,-78L290,32L300,42L320,42L360,-38L390,-58L420,-58L430,-88L410,-98L390,-88L360,-48L350,-48L370,-78L370,-88L360,-98L330,-88ZM430,32L430,2L420,-8L400,2L400,32L420,42L440,42L470,32L490,12L490,-8L480,-58L480,-78L500,-88L500,-58L510,-48L530,-58L530,-88L500,-98L460,-88L450,-68L450,-48L460,-8L460,12L440,32ZM610,-158L600,-148L560,-18L570,-18L640,-148L630,-158ZM560,42L570,42L580,22L580,12L560,2L550,2L540,22L540,32ZM660,-88L670,-88L670,-118L680,-138L700,-148L720,-138L730,-118L730,-98L720,-78L690,-58L660,-48L650,-18L660,-18L670,-38L700,-48L740,-68L760,-98L760,-118L740,-148L710,-158L690,-158L660,-148L640,-118L640,-108ZM650,42L660,42L670,22L670,12L650,2L640,2L630,22L630,32Z" fill="#ffffff" stroke="#000000"/>
    <path d="M-553.07,-279.23L-552.27,-308.91L-530.89,-367.76L-480.35,-406.03L-460.56,-405.50L-441.29,-385.17L-442.09,-355.48L-422.30,-354.95L-401.97,-374.22L-411.34,-394.27L-460.29,-415.39L-489.98,-416.19L-530.10,-397.45L-560.58,-368.56L-581.17,-339.40L-592.39,-290.18L-573.92,-240.17L-534.86,-219.32L-495.28,-218.26L-465.06,-237.26L-434.58,-266.15L-444.21,-276.31L-474.69,-247.42L-504.91,-228.42L-524.70,-228.95L-544.23,-239.37ZM-395.78,-235.40L-301.68,-421.05L-370.96,-422.90L-371.22,-413.01L-341.54,-412.21L-425.47,-236.20L-425.74,-226.30L-406.21,-215.87L-376.26,-224.98L-325.45,-273.13L-335.08,-283.30L-385.89,-235.14ZM-213.94,-369.19L-204.04,-368.92L-193.62,-388.45L-193.35,-398.34L-212.88,-408.77L-222.78,-409.04L-233.20,-389.51L-233.47,-379.61ZM-324.92,-292.93L-315.29,-282.77L-264.48,-330.92L-254.59,-330.66L-316.61,-233.28L-316.88,-223.39L-307.25,-213.23L-287.45,-212.70L-267.40,-222.06L-216.59,-270.22L-226.22,-280.38L-277.03,-232.22L-286.92,-232.49L-224.90,-329.86L-224.63,-339.76L-244.16,-350.19L-274.11,-341.08ZM-57.45,-295.67L-37.13,-314.94L-17.07,-324.30L-7.44,-314.14L-59.30,-226.40L-59.57,-216.50L-49.94,-206.34L-30.15,-205.81L-10.09,-215.18L40.72,-263.33L31.09,-273.50L-19.72,-225.34L-29.62,-225.60L21.99,-303.45L22.78,-333.14L-6.64,-343.83L-36.60,-334.73L-56.92,-315.47L-56.39,-335.26L-75.92,-345.68L-105.87,-336.58L-136.36,-307.69L-125.93,-327.22L-125.67,-337.11L-135.30,-347.27L-165.25,-338.17L-216.06,-290.01L-206.43,-279.85L-155.62,-328.01L-145.72,-327.75L-208.02,-220.47L-198.38,-210.31L-178.59,-209.78L-136.89,-287.89L-106.40,-316.79L-86.35,-326.16L-76.71,-316.00L-128.84,-218.35L-119.21,-208.19L-99.42,-207.66ZM200.92,-328.37L191.28,-338.53L170.70,-309.37L161.33,-329.43L122.01,-340.39L71.47,-302.13L50.35,-253.17L59.19,-213.32L78.72,-202.90L98.51,-202.37L128.99,-231.26L128.46,-211.47L138.09,-201.31L168.05,-210.41L218.86,-258.57L209.22,-268.73L158.42,-220.57L148.52,-220.84ZM99.04,-222.16L89.14,-222.42L80.04,-252.38L100.89,-291.44L131.38,-320.33L151.17,-319.80L160.54,-299.74L160.27,-289.85L129.52,-251.05ZM247.49,-218.19L299.62,-315.83L329.31,-315.03L329.57,-324.93L299.88,-325.72L320.73,-364.78L300.94,-365.31L290.25,-335.89L270.19,-326.52L250.40,-327.05L250.13,-317.15L269.93,-316.62L217.80,-218.98L217.53,-209.09L227.16,-198.92L246.96,-198.39L267.01,-207.76L317.82,-255.92L308.19,-266.08L257.38,-217.92ZM467.06,-281.64L467.59,-301.43L458.22,-321.49L418.90,-332.44L368.63,-304.08L337.35,-245.49L346.19,-205.64L365.71,-195.22L385.51,-194.69L405.56,-204.05L446.21,-242.58L436.58,-252.74L395.93,-214.22L376.14,-214.74L367.04,-244.70L387.89,-283.76L418.37,-312.65L438.17,-312.12L437.37,-282.43L417.31,-273.06L387.62,-273.86L387.36,-263.96L436.84,-262.64ZM-724.27,-172.89L-705.01,-152.56L-758.73,4.45L-788.95,23.45L-670.19,26.63L-630.08,7.90L-599.59,-21.00L-579.01,-50.16L-567.78,-99.37L-586.25,-149.39L-635.21,-170.50ZM-607.90,-80.64L-629.28,-21.79L-659.77,7.10L-679.82,16.47L-719.41,15.41L-729.04,5.25L-675.32,-151.77L-665.16,-161.40L-635.47,-160.61L-615.94,-150.18L-607.11,-110.33ZM-430.29,-56.08L-429.76,-75.87L-439.13,-95.93L-478.45,-106.89L-528.73,-78.52L-560.01,-19.94L-551.17,19.91L-531.64,30.34L-511.85,30.87L-491.79,21.50L-451.15,-17.02L-460.78,-27.19L-501.42,11.34L-521.22,10.81L-530.32,-19.14L-509.47,-58.20L-478.98,-87.09L-459.19,-86.56L-459.98,-56.88L-480.04,-47.51L-509.73,-48.30L-510.00,-38.41L-460.51,-37.08ZM-412.62,23.62L-411.83,-6.07L-421.46,-16.23L-441.51,-6.86L-442.31,22.83L-422.78,33.25L-402.99,33.78L-373.03,24.68L-352.71,5.42L-352.18,-14.38L-360.75,-64.12L-360.22,-83.92L-340.17,-93.28L-340.96,-63.59L-331.33,-53.43L-311.27,-62.80L-310.48,-92.49L-339.90,-103.18L-379.75,-94.34L-390.18,-74.81L-390.71,-55.02L-381.87,-15.17L-382.40,4.62L-402.72,23.89ZM-200.82,-119.26L-190.92,-119.00L-180.50,-138.53L-180.23,-148.42L-199.76,-158.85L-209.66,-159.12L-220.08,-139.59L-220.35,-129.69ZM-311.80,-43.01L-302.17,-32.85L-251.36,-81.00L-241.47,-80.74L-303.49,16.64L-303.76,26.53L-294.13,36.69L-274.33,37.22L-254.28,27.86L-203.47,-20.30L-213.10,-30.46L-263.91,17.70L-273.80,17.43L-211.78,-79.94L-211.51,-89.84L-231.04,-100.27L-260.99,-91.16ZM-184.47,9.92L-184.74,19.82L-175.10,29.98L-225.12,48.45L-235.54,67.97L-226.44,97.93L-187.38,118.78L-167.59,119.31L-127.74,110.47L-107.15,81.31L-106.62,61.52L-155.05,20.61L-154.78,10.71L-125.09,11.51L-74.82,-16.86L-64.12,-46.28L-73.23,-76.24L-43.54,-75.44L-43.27,-85.34L-82.86,-86.40L-122.18,-97.35L-172.46,-68.99L-183.15,-39.56L-164.41,0.55ZM-122.71,-77.56L-102.92,-77.03L-93.81,-47.08L-94.08,-37.18L-124.56,-8.29L-144.36,-8.81L-153.46,-38.77L-153.19,-48.67ZM-165.47,40.14L-136.58,70.62L-137.11,90.41L-167.33,109.41L-196.49,88.83L-205.85,68.77L-195.43,49.24ZM-54.49,-36.12L-44.86,-25.96L5.94,-74.12L15.84,-73.85L-46.45,33.42L-36.82,43.58L-17.03,44.11L24.68,-34.00L55.16,-62.90L75.22,-72.26L84.85,-62.10L32.99,25.64L32.72,35.54L42.35,45.70L62.15,46.23L82.20,36.86L133.01,-11.30L123.38,-21.46L72.57,26.70L62.68,26.44L114.28,-51.41L115.07,-81.10L85.65,-91.79L55.69,-82.69L25.21,-53.79L35.63,-73.32L35.90,-83.22L26.27,-93.38L-3.69,-84.28ZM272.35,-37.28L272.88,-57.07L263.52,-77.13L224.20,-88.08L173.92,-59.72L142.64,-1.13L151.48,38.72L171.01,49.14L190.80,49.67L210.86,40.31L251.50,1.78L241.87,-8.38L201.23,30.14L181.43,29.61L172.33,-0.34L193.18,-39.40L223.67,-68.29L243.46,-67.76L242.67,-38.07L222.61,-28.71L192.92,-29.50L192.65,-19.60L242.14,-18.28ZM272.09,-27.38L281.72,-17.22L332.53,-65.38L342.42,-65.11L280.13,42.16L289.76,52.32L309.56,52.85L351.26,-25.26L381.48,-44.26L411.17,-43.47L421.86,-72.89L402.33,-83.32L382.28,-73.95L351.53,-35.16L341.63,-35.42L362.22,-64.58L362.48,-74.48L352.85,-84.64L322.90,-75.54ZM418.68,45.87L419.48,16.18L409.85,6.02L389.79,15.38L388.99,45.07L408.52,55.50L428.31,56.03L458.27,46.93L478.59,27.66L479.12,7.87L470.55,-41.88L471.08,-61.67L491.14,-71.04L490.34,-41.35L499.97,-31.19L520.03,-40.55L520.83,-70.24L491.40,-80.93L451.55,-72.10L441.12,-52.57L440.59,-32.78L449.43,7.08L448.90,26.87L428.58,46.13ZM601.85,-137.40L591.69,-127.77L548.66,-0.17L558.56,0.09L631.28,-126.71L621.64,-136.87ZM547.07,59.21L556.97,59.47L567.39,39.94L567.66,30.05L548.13,19.62L538.23,19.36L527.81,38.88L527.54,48.78ZM649.48,-66.80L659.38,-66.53L660.17,-96.22L670.60,-115.75L690.65,-125.12L710.18,-114.69L719.55,-94.64L719.02,-74.84L708.59,-55.31L678.37,-36.32L648.42,-27.21L637.73,2.21L647.63,2.48L658.05,-17.05L688.01,-26.15L728.12,-44.89L748.71,-74.05L749.24,-93.84L730.24,-124.06L700.82,-134.75L681.02,-135.28L651.07,-126.18L630.48,-97.02L630.22,-87.12ZM636.14,61.59L646.04,61.85L656.46,42.33L656.73,32.43L637.20,22.00L627.30,21.74L616.88,41.27L616.61,51.16Z" fill="#ffffff" stroke="#000000"/>
    <path d="M-545.92,-288.33L-544.35,-317.69L-521.63,-375.36L-470.60,-411.88L-451.03,-410.83L-432.51,-390.21L-434.08,-360.85L-414.51,-359.80L-393.89,-378.33L-402.63,-398.42L-450.51,-420.62L-479.87,-422.19L-520.06,-404.71L-550.99,-376.93L-572.13,-348.62L-584.54,-300.21L-567.59,-250.23L-529.49,-228.57L-490.35,-226.47L-459.94,-244.47L-429.01,-272.25L-438.27,-282.56L-469.21,-254.78L-499.61,-236.78L-519.18,-237.83L-538.23,-248.66ZM-391.44,-240.80L-293.41,-422.02L-361.91,-425.69L-362.44,-415.90L-333.08,-414.33L-420.80,-242.37L-421.32,-232.59L-402.28,-221.75L-372.39,-229.97L-320.84,-276.28L-330.10,-286.59L-381.66,-240.28ZM-207.96,-368.37L-198.17,-367.85L-187.34,-386.89L-186.81,-396.68L-205.86,-407.51L-215.65,-408.04L-226.48,-388.99L-227.00,-379.20ZM-319.79,-295.85L-310.53,-285.54L-258.98,-331.85L-249.20,-331.32L-313.15,-236.61L-313.68,-226.82L-304.42,-216.51L-284.84,-215.46L-264.75,-224.20L-213.20,-270.51L-222.46,-280.82L-274.01,-234.51L-283.80,-235.03L-219.84,-329.75L-219.31,-339.54L-238.36,-350.37L-268.24,-342.16ZM-55.05,-291.48L-34.43,-310.01L-14.33,-318.74L-5.07,-308.43L-58.72,-222.98L-59.24,-213.19L-49.98,-202.88L-30.41,-201.84L-10.31,-210.57L41.24,-256.88L31.98,-267.19L-19.57,-220.88L-29.36,-221.41L23.76,-297.07L25.33,-326.43L-3.50,-337.79L-33.38,-329.58L-54.00,-311.05L-52.95,-330.63L-72.00,-341.46L-101.88,-333.25L-132.81,-305.46L-121.98,-324.51L-121.45,-334.29L-130.72,-344.60L-160.60,-336.39L-212.15,-290.08L-202.89,-279.77L-151.34,-326.08L-141.55,-325.56L-206.03,-221.06L-196.77,-210.75L-177.20,-209.70L-133.86,-285.89L-102.93,-313.67L-82.83,-322.41L-73.57,-312.10L-127.74,-216.86L-118.48,-206.55L-98.91,-205.50ZM201.48,-317.00L192.22,-327.31L171.08,-299.00L162.34,-319.09L123.72,-330.98L72.69,-294.45L50.50,-246.57L58.19,-206.90L77.24,-196.07L96.81,-195.02L127.74,-222.81L126.69,-203.24L135.95,-192.92L165.83,-201.14L217.39,-247.45L208.12,-257.76L156.57,-211.45L146.79,-211.97ZM97.86,-214.59L88.07,-215.12L79.86,-245.00L101.53,-283.10L132.46,-310.88L152.03,-309.83L160.77,-289.74L160.24,-279.95L128.79,-242.38ZM244.65,-206.73L298.82,-301.97L328.18,-300.40L328.70,-310.18L299.34,-311.76L321.01,-349.85L301.44,-350.90L290.08,-322.07L269.98,-313.33L250.41,-314.38L249.89,-304.59L269.46,-303.54L215.29,-208.30L214.76,-198.52L224.03,-188.21L243.60,-187.16L263.69,-195.90L315.25,-242.21L305.98,-252.52L254.43,-206.21ZM463.61,-263.70L464.66,-283.27L455.92,-303.37L417.30,-315.25L366.80,-288.52L334.29,-231.37L341.98,-191.70L361.03,-180.87L380.60,-179.82L400.70,-188.56L441.94,-225.61L432.68,-235.92L391.44,-198.87L371.86,-199.92L363.65,-229.80L385.32,-267.90L416.25,-295.68L435.82,-294.63L434.25,-265.27L414.15,-256.54L384.80,-258.11L384.27,-248.32L433.20,-245.70ZM-718.15,-187.64L-699.63,-167.02L-756.94,-13.06L-787.35,4.94L-669.92,11.23L-629.73,-6.25L-598.80,-34.03L-577.65,-62.34L-565.25,-110.75L-582.20,-160.73L-630.08,-182.92ZM-605.44,-93.27L-628.15,-35.61L-659.09,-7.82L-679.18,0.92L-718.32,-1.18L-727.59,-11.49L-670.27,-165.44L-659.96,-174.71L-630.60,-173.13L-611.55,-162.30L-603.87,-122.63ZM-430.34,-64.27L-429.29,-83.84L-438.03,-103.94L-476.65,-115.82L-527.15,-89.08L-559.65,-31.94L-551.96,7.73L-532.92,18.56L-513.34,19.61L-493.25,10.88L-452.01,-26.17L-461.27,-36.48L-502.51,0.57L-522.08,-0.48L-530.29,-30.37L-508.63,-68.46L-477.70,-96.25L-458.12,-95.20L-459.70,-65.84L-479.79,-57.10L-509.15,-58.67L-509.67,-48.89L-460.74,-46.27ZM-414.96,15.07L-413.39,-14.29L-422.65,-24.60L-442.75,-15.86L-444.32,13.50L-425.27,24.33L-405.70,25.38L-375.82,17.16L-355.20,-1.36L-354.15,-20.93L-361.31,-70.38L-360.26,-89.96L-340.17,-98.69L-341.74,-69.34L-332.48,-59.03L-312.38,-67.76L-310.81,-97.12L-339.64,-108.48L-379.31,-100.79L-390.15,-81.74L-391.19,-62.17L-383.51,-22.50L-384.55,-2.93L-405.17,15.59ZM-201.59,-120.71L-191.81,-120.19L-180.97,-139.24L-180.45,-149.02L-199.50,-159.86L-209.28,-160.38L-220.12,-141.33L-220.64,-131.55ZM-313.43,-48.19L-304.17,-37.88L-252.62,-84.19L-242.83,-83.67L-306.79,11.05L-307.31,20.83L-298.05,31.14L-278.48,32.19L-258.38,23.45L-206.83,-22.85L-216.10,-33.16L-267.65,13.14L-277.43,12.62L-213.47,-82.09L-212.95,-91.88L-232.00,-102.72L-261.88,-94.50ZM-188.83,7.55L-189.36,17.34L-180.10,27.65L-230.07,44.60L-240.91,63.65L-232.70,93.53L-194.60,115.20L-175.03,116.25L-135.36,108.56L-114.22,80.25L-113.17,60.67L-160.00,18.91L-159.48,9.12L-130.12,10.70L-79.62,-16.04L-68.26,-44.87L-76.47,-74.76L-47.11,-73.18L-46.59,-82.97L-85.73,-85.07L-124.35,-96.95L-174.86,-70.21L-186.21,-41.38L-168.74,-1.19ZM-125.40,-77.38L-105.83,-76.33L-97.62,-46.45L-98.14,-36.66L-129.07,-8.88L-148.64,-9.92L-156.86,-39.81L-156.33,-49.59ZM-170.83,37.96L-143.05,68.89L-144.10,88.46L-174.50,106.46L-202.81,85.32L-211.55,65.22L-200.72,46.17ZM-59.00,-34.56L-49.73,-24.25L1.82,-70.56L11.60,-70.04L-52.88,34.46L-43.62,44.77L-24.04,45.82L19.29,-30.37L50.22,-58.16L70.32,-66.89L79.58,-56.58L25.93,28.87L25.41,38.65L34.67,48.96L54.24,50.01L74.34,41.27L125.89,-5.03L116.63,-15.34L65.08,30.96L55.29,30.44L108.41,-45.23L109.99,-74.58L81.15,-85.94L51.27,-77.73L20.34,-49.94L31.17,-68.99L31.70,-78.78L22.44,-89.09L-7.45,-80.87ZM264.47,-27.05L265.51,-46.63L256.78,-66.72L218.16,-78.60L167.65,-51.87L135.15,5.28L142.84,44.94L161.89,55.78L181.46,56.83L201.56,48.09L242.80,11.04L233.54,0.73L192.29,37.78L172.72,36.73L164.51,6.85L186.18,-31.25L217.11,-59.03L236.68,-57.98L235.11,-28.63L215.01,-19.89L185.65,-21.46L185.13,-11.68L234.06,-9.05ZM263.94,-17.27L273.20,-6.96L324.75,-53.27L334.54,-52.74L270.06,51.76L279.32,62.07L298.89,63.12L342.23,-13.08L372.64,-31.07L401.99,-29.50L413.35,-58.34L394.30,-69.17L374.21,-60.43L342.75,-22.86L332.97,-23.39L354.11,-51.70L354.64,-61.48L345.37,-71.79L315.49,-63.58ZM407.06,59.10L408.63,29.74L399.37,19.43L379.28,28.17L377.70,57.52L396.75,68.36L416.32,69.41L446.21,61.19L466.83,42.67L467.87,23.10L460.71,-26.36L461.76,-45.93L481.85,-54.67L480.28,-25.31L489.54,-15.00L509.64,-23.74L511.21,-53.09L482.38,-64.45L442.71,-56.76L431.88,-37.72L430.83,-18.14L438.52,21.52L437.47,41.10L416.85,59.62ZM593.17,-117.40L582.86,-108.14L536.90,16.98L546.69,17.50L622.00,-106.05L612.74,-116.36ZM533.76,75.70L543.54,76.22L554.38,57.17L554.90,47.39L535.85,36.55L526.07,36.03L515.23,55.08L514.71,64.86ZM638.43,-46.28L648.21,-45.76L649.79,-75.11L660.62,-94.16L680.72,-102.90L699.77,-92.07L708.50,-71.97L707.45,-52.40L696.62,-33.35L666.21,-15.35L636.33,-7.14L624.97,21.70L634.76,22.22L645.59,3.17L675.48,-5.04L715.67,-22.52L736.81,-50.83L737.86,-70.40L719.86,-100.80L691.03,-112.16L671.46,-113.21L641.57,-105.00L620.43,-76.69L619.91,-66.90ZM621.83,80.41L631.62,80.94L642.45,61.89L642.97,52.10L623.93,41.27L614.14,40.74L603.31,59.79L602.78,69.58Z" fill="#ffffff" stroke="#000000"/>
    <path d="M-538.56,-297.31L-536.22,-326.31L-512.22,-382.77L-460.76,-417.56L-441.43,-416.00L-423.65,-395.11L-425.98,-366.10L-406.64,-364.55L-385.75,-382.33L-393.86,-402.44L-440.65,-425.67L-469.66,-428.00L-509.89,-411.78L-541.23,-385.10L-562.90,-357.65L-576.45,-310.09L-561.01,-260.19L-523.89,-237.74L-485.21,-234.63L-454.65,-251.63L-423.31,-278.31L-432.20,-288.75L-463.54,-262.08L-494.10,-245.07L-513.44,-246.63L-532.00,-257.85ZM-386.97,-246.19L-285.17,-422.90L-352.85,-428.34L-353.63,-418.67L-324.62,-416.34L-415.97,-248.52L-416.75,-238.85L-398.19,-227.63L-368.41,-234.96L-316.17,-279.42L-325.07,-289.87L-377.30,-245.41ZM-202.04,-367.55L-192.37,-366.77L-181.15,-385.33L-180.37,-395.00L-198.93,-406.23L-208.60,-407.01L-219.82,-388.45L-220.60,-378.78ZM-314.62,-298.76L-305.73,-288.31L-253.50,-332.77L-243.83,-331.99L-309.62,-239.97L-310.39,-230.30L-301.50,-219.85L-282.17,-218.30L-262.05,-226.41L-209.82,-270.86L-218.71,-281.31L-270.94,-236.86L-280.61,-237.63L-214.82,-329.65L-214.04,-339.32L-232.60,-350.55L-262.39,-343.21ZM-52.78,-287.43L-31.89,-305.21L-11.78,-313.32L-2.89,-302.88L-58.23,-219.75L-59.01,-210.08L-50.12,-199.63L-30.78,-198.08L-10.66,-206.19L41.57,-250.64L32.68,-261.09L-19.55,-216.64L-29.22,-217.41L25.34,-290.87L27.68,-319.88L-0.55,-331.88L-30.34,-324.55L-51.23,-306.76L-49.67,-326.10L-68.23,-337.33L-98.02,-329.99L-129.36,-303.32L-118.13,-321.88L-117.36,-331.55L-126.25,-341.99L-156.03,-334.66L-208.26,-290.20L-199.37,-279.76L-147.14,-324.21L-137.47,-323.43L-204.04,-221.74L-195.15,-211.30L-175.81,-209.74L-130.91,-283.98L-99.57,-310.65L-79.46,-318.77L-70.57,-308.32L-126.69,-215.52L-117.80,-205.07L-98.46,-203.52ZM201.71,-305.88L192.82,-316.33L171.15,-288.88L163.04,-308.99L125.14,-321.77L73.69,-286.99L50.46,-240.20L57.02,-200.74L75.58,-189.52L94.92,-187.97L126.26,-214.64L124.70,-195.30L133.59,-184.85L163.38,-192.19L215.61,-236.65L206.72,-247.09L154.48,-202.64L144.82,-203.41ZM96.47,-207.30L86.80,-208.08L79.47,-237.86L101.92,-274.98L133.25,-301.66L152.59,-300.10L160.71,-279.99L159.93,-270.32L127.81,-233.98ZM241.50,-195.64L297.62,-288.44L326.63,-286.10L327.41,-295.77L298.40,-298.10L320.85,-335.22L301.51,-336.78L289.51,-308.55L269.40,-300.44L250.06,-301.99L249.28,-292.32L268.62,-290.77L212.50,-197.97L211.72,-188.30L220.61,-177.85L239.95,-176.30L260.06,-184.41L312.30,-228.87L303.40,-239.31L251.17,-194.86ZM459.66,-246.21L461.22,-265.55L453.10,-285.66L415.20,-298.44L364.53,-273.32L330.86,-217.64L337.41,-178.19L355.97,-166.97L375.31,-165.41L395.43,-173.52L437.21,-209.09L428.32,-219.54L386.53,-183.97L367.20,-185.53L359.86,-215.31L382.31,-252.43L413.65,-279.10L432.99,-277.55L430.65,-248.54L410.54,-240.43L381.53,-242.76L380.75,-233.09L429.10,-229.20ZM-711.64,-202.24L-693.85,-181.34L-754.64,-30.53L-785.20,-13.53L-669.18,-4.20L-628.95,-20.42L-597.61,-47.10L-575.94,-74.55L-562.38,-122.11L-577.83,-172.01L-624.62,-195.24ZM-602.61,-105.89L-626.61,-49.43L-657.95,-22.76L-678.07,-14.64L-716.74,-17.75L-725.64,-28.20L-664.85,-179.01L-654.40,-187.90L-625.39,-185.57L-606.84,-174.35L-600.28,-134.89ZM-430.13,-72.55L-428.57,-91.89L-436.69,-112.00L-474.58,-124.78L-525.26,-99.66L-558.93,-43.99L-552.37,-4.53L-533.82,6.69L-514.48,8.25L-494.36,0.13L-452.58,-35.43L-461.47,-45.88L-503.25,-10.31L-522.59,-11.87L-529.93,-41.65L-507.48,-78.77L-476.14,-105.44L-456.80,-103.89L-459.13,-74.88L-479.25,-66.77L-508.26,-69.10L-509.03,-59.43L-460.69,-55.55ZM-417.01,6.36L-414.68,-22.65L-423.57,-33.10L-443.69,-24.98L-446.02,4.02L-427.46,15.25L-408.12,16.80L-378.34,9.47L-357.44,-8.32L-355.89,-27.65L-361.67,-76.77L-360.11,-96.11L-340.00,-104.23L-342.33,-75.22L-333.44,-64.77L-313.32,-72.89L-310.99,-101.89L-339.22,-113.89L-378.67,-107.34L-389.90,-88.78L-391.45,-69.44L-384.89,-29.99L-386.45,-10.65L-407.34,7.13ZM-202.30,-122.34L-192.63,-121.57L-181.41,-140.13L-180.63,-149.79L-199.19,-161.02L-208.86,-161.80L-220.08,-143.24L-220.86,-133.57ZM-314.88,-53.55L-305.99,-43.10L-253.76,-87.56L-244.09,-86.78L-309.88,5.24L-310.66,14.91L-301.76,25.36L-282.43,26.91L-262.31,18.80L-210.08,-25.66L-218.97,-36.10L-271.20,8.35L-280.87,7.58L-215.08,-84.45L-214.30,-94.12L-232.86,-105.34L-262.65,-98.00ZM-193.07,4.91L-193.85,14.57L-184.96,25.02L-234.86,40.47L-246.09,59.03L-238.75,88.81L-201.63,111.26L-182.29,112.82L-142.84,106.26L-121.17,78.81L-119.61,59.47L-164.85,16.91L-164.07,7.24L-135.06,9.57L-84.39,-15.55L-72.38,-43.77L-79.72,-73.56L-50.71,-71.23L-49.93,-80.89L-88.61,-84.00L-126.51,-96.78L-177.18,-71.67L-189.19,-43.44L-172.96,-3.21ZM-128.06,-77.45L-108.73,-75.89L-101.39,-46.11L-102.17,-36.44L-133.51,-9.77L-152.84,-11.32L-160.18,-41.11L-159.40,-50.77ZM-176.07,35.47L-149.40,66.81L-150.95,86.14L-181.51,103.15L-208.97,81.48L-217.08,61.36L-205.85,42.80ZM-63.49,-33.33L-54.60,-22.88L-2.37,-67.34L7.30,-66.56L-59.27,35.13L-50.38,45.58L-31.04,47.13L13.86,-27.11L45.20,-53.78L65.31,-61.89L74.20,-51.45L18.86,31.68L18.08,41.35L26.97,51.80L46.31,53.35L66.43,45.24L118.66,0.79L109.77,-9.66L57.54,34.80L47.87,34.02L102.43,-39.44L104.77,-68.45L76.54,-80.45L46.75,-73.12L15.41,-46.44L26.64,-65.00L27.42,-74.67L18.52,-85.12L-11.26,-77.78ZM256.35,-17.33L257.91,-36.67L249.80,-56.78L211.90,-69.56L161.22,-44.45L127.55,11.23L134.11,50.69L152.67,61.91L172.01,63.47L192.12,55.35L233.91,19.79L225.02,9.34L183.23,44.91L163.89,43.35L156.56,13.57L179.00,-23.55L210.34,-50.23L229.68,-48.67L227.35,-19.67L207.23,-11.55L178.23,-13.89L177.45,-4.22L225.79,-0.33ZM255.58,-7.66L264.47,2.78L316.70,-41.67L326.37,-40.89L259.80,60.80L268.69,71.24L288.03,72.80L332.93,-1.44L363.49,-18.45L392.50,-16.11L404.50,-44.34L385.94,-55.57L365.82,-47.45L333.71,-11.11L324.04,-11.89L345.71,-39.34L346.48,-49.01L337.59,-59.45L307.81,-52.12ZM395.16,71.68L397.50,42.68L388.61,32.23L368.49,40.34L366.16,69.35L384.72,80.57L404.06,82.13L433.84,74.79L454.73,57.01L456.29,37.68L450.51,-11.45L452.06,-30.78L472.18,-38.90L469.85,-9.89L478.74,0.56L498.85,-7.56L501.19,-36.56L472.96,-48.57L433.50,-42.01L422.28,-23.45L420.72,-4.11L427.28,35.34L425.73,54.68L404.83,72.46ZM583.98,-98.02L573.53,-89.13L524.75,33.45L534.42,34.23L612.21,-86.02L603.32,-96.47ZM520.08,91.46L529.75,92.24L540.97,73.68L541.75,64.01L523.19,52.79L513.52,52.01L502.30,70.57L501.52,80.24ZM626.88,-26.45L636.55,-25.68L638.88,-54.68L650.11,-73.24L670.22,-81.36L688.78,-70.13L696.89,-50.02L695.34,-30.68L684.11,-12.12L653.55,4.89L623.77,12.22L611.77,40.45L621.44,41.23L632.66,22.67L662.44,15.33L702.67,-0.89L724.34,-28.35L725.90,-47.68L708.90,-78.24L680.67,-90.25L661.33,-91.80L631.55,-84.47L609.87,-57.02L609.10,-47.35ZM607.10,98.46L616.77,99.24L627.99,80.68L628.77,71.01L610.21,59.79L600.54,59.01L589.32,77.57L588.54,87.24Z" fill="#ffffff" stroke="#000000"/>
    <path d="M-530.98,-306.15L-527.90,-334.78L-502.66,-390.00L-450.83,-423.05L-431.74,-421.00L-414.70,-399.86L-417.78,-371.23L-398.69,-369.18L-377.55,-386.22L-385.04,-406.33L-430.72,-430.55L-459.35,-433.63L-499.58,-418.64L-531.29,-393.08L-553.46,-366.49L-568.13,-319.79L-554.17,-270.02L-518.04,-246.83L-479.86,-242.72L-449.17,-258.74L-417.46,-284.30L-425.98,-294.87L-457.69,-269.31L-488.38,-253.29L-507.47,-255.35L-525.53,-266.94ZM-382.36,-251.56L-276.97,-423.69L-343.78,-430.87L-344.81,-421.32L-316.17,-418.24L-410.99,-254.64L-412.02,-245.09L-393.95,-233.50L-364.29,-239.96L-311.44,-282.56L-319.96,-293.13L-372.81,-250.53ZM-196.19,-366.73L-186.65,-365.71L-175.05,-383.77L-174.02,-393.32L-192.09,-404.91L-201.63,-405.94L-213.23,-387.87L-214.26,-378.33ZM-309.39,-301.65L-300.87,-291.08L-248.02,-333.68L-238.47,-332.66L-306.00,-243.36L-307.02,-233.81L-298.50,-223.24L-279.41,-221.19L-259.30,-228.68L-206.44,-271.28L-214.96,-281.85L-267.82,-239.26L-277.36,-240.28L-209.84,-329.58L-208.81,-339.12L-226.88,-350.72L-256.54,-344.25ZM-50.65,-283.51L-29.51,-300.55L-9.39,-308.05L-0.87,-297.47L-57.82,-216.70L-58.85,-207.15L-50.33,-196.58L-31.24,-194.53L-11.12,-202.02L41.73,-244.62L33.21,-255.19L-19.64,-212.59L-29.19,-213.62L26.74,-284.85L29.82,-313.49L2.21,-326.11L-27.46,-319.64L-48.60,-302.60L-46.55,-321.69L-64.61,-333.29L-94.27,-326.82L-125.98,-301.26L-114.39,-319.32L-113.36,-328.87L-121.88,-339.44L-151.54,-332.97L-204.39,-290.37L-195.87,-279.80L-143.02,-322.40L-133.48,-321.38L-202.03,-222.53L-193.51,-211.96L-174.42,-209.91L-128.03,-282.17L-96.32,-307.73L-76.21,-315.22L-67.69,-304.65L-125.67,-214.33L-117.15,-203.76L-98.06,-201.71ZM201.63,-295.03L193.11,-305.60L170.94,-279.02L163.45,-299.13L126.29,-312.78L74.46,-279.73L50.25,-234.05L55.69,-194.85L73.76,-183.25L92.85,-181.20L124.56,-206.76L122.51,-187.67L131.03,-177.10L160.69,-183.57L213.54,-226.17L205.02,-236.74L152.17,-194.14L142.62,-195.16ZM94.90,-200.29L85.35,-201.32L78.88,-230.98L102.07,-267.11L133.79,-292.66L152.88,-290.61L160.37,-270.50L159.34,-260.95L126.61,-225.85ZM238.07,-184.91L296.05,-275.23L324.69,-272.16L325.71,-281.70L297.08,-284.78L320.27,-320.91L301.18,-322.96L288.56,-295.35L268.44,-287.85L249.35,-289.90L248.33,-280.36L267.42,-278.31L209.44,-187.98L208.41,-178.44L216.93,-167.87L236.02,-165.82L256.14,-173.31L308.99,-215.91L300.47,-226.48L247.62,-183.88ZM455.24,-229.17L457.29,-248.26L449.80,-268.37L412.64,-282.02L361.84,-258.51L327.05,-204.32L332.50,-165.11L350.56,-153.51L369.65,-151.46L389.77,-158.96L432.05,-193.04L423.53,-203.61L381.25,-169.53L362.16,-171.58L355.69,-201.24L378.88,-237.37L410.59,-262.93L429.68,-260.88L426.61,-232.24L406.49,-224.75L377.86,-227.82L376.83,-218.28L424.56,-213.15ZM-704.73,-216.67L-687.69,-195.53L-751.82,-47.94L-782.51,-31.92L-667.97,-19.62L-627.73,-34.61L-596.02,-60.17L-573.86,-86.75L-559.18,-133.45L-573.15,-183.23L-618.82,-207.45ZM-599.42,-118.46L-624.66,-63.24L-656.37,-37.68L-676.49,-30.19L-714.67,-34.29L-723.19,-44.86L-659.05,-192.46L-648.48,-200.98L-619.85,-197.90L-601.78,-186.30L-596.34,-147.10ZM-429.66,-80.92L-427.60,-100.01L-435.10,-120.12L-472.25,-133.77L-523.06,-110.26L-557.84,-56.07L-552.40,-16.86L-534.33,-5.26L-515.24,-3.21L-495.13,-10.71L-452.85,-44.79L-461.37,-55.36L-503.65,-21.28L-522.74,-23.33L-529.21,-52.99L-506.02,-89.12L-474.30,-114.68L-455.21,-112.63L-458.29,-83.99L-478.41,-76.50L-507.04,-79.57L-508.07,-70.03L-460.34,-64.90ZM-418.77,-2.50L-415.69,-31.14L-424.21,-41.71L-444.33,-34.22L-447.40,-5.58L-429.34,6.02L-410.25,8.07L-380.59,1.60L-359.45,-15.44L-357.40,-34.53L-361.81,-83.28L-359.76,-102.37L-339.65,-109.87L-342.72,-81.23L-334.20,-70.66L-314.09,-78.16L-311.01,-106.79L-338.62,-119.41L-377.83,-113.97L-389.42,-95.90L-391.47,-76.81L-386.03,-37.61L-388.08,-18.52L-409.22,-1.48ZM-202.94,-124.15L-193.40,-123.12L-181.80,-141.19L-180.77,-150.73L-198.84,-162.33L-208.38,-163.35L-219.98,-145.29L-221.01,-135.74ZM-316.14,-59.07L-307.62,-48.50L-254.77,-91.09L-245.22,-90.07L-312.75,-0.77L-313.77,8.78L-305.25,19.35L-286.16,21.40L-266.05,13.90L-213.19,-28.70L-221.71,-39.27L-274.57,3.33L-284.11,2.31L-216.59,-86.99L-215.56,-96.54L-233.63,-108.13L-263.29,-101.66ZM-197.18,1.99L-198.21,11.53L-189.69,22.11L-239.46,36.07L-251.06,54.13L-244.59,83.79L-208.46,106.99L-189.37,109.04L-150.16,103.59L-128.00,77.01L-125.95,57.92L-169.57,14.61L-168.55,5.07L-139.91,8.14L-89.11,-15.37L-76.49,-42.98L-82.96,-72.64L-54.32,-69.56L-53.30,-79.11L-91.48,-83.21L-128.63,-96.85L-179.43,-73.35L-192.05,-45.74L-177.07,-5.50ZM-130.68,-77.76L-111.59,-75.71L-105.12,-46.05L-106.15,-36.51L-137.86,-10.95L-156.95,-13.00L-163.42,-42.66L-162.39,-52.20ZM-181.17,32.68L-155.61,64.39L-157.66,83.48L-188.34,99.49L-214.93,77.33L-222.42,57.21L-210.83,39.14ZM-67.97,-32.41L-59.45,-21.83L-6.60,-64.43L2.95,-63.41L-65.60,35.44L-57.08,46.01L-37.99,48.06L8.39,-24.20L40.10,-49.76L60.22,-57.26L68.74,-46.68L11.79,34.09L10.76,43.64L19.28,54.21L38.37,56.26L58.49,48.77L111.34,6.17L102.82,-4.40L49.97,38.20L40.42,37.17L96.35,-34.06L99.43,-62.70L71.82,-75.32L42.16,-68.85L10.44,-43.29L22.04,-61.36L23.07,-70.90L14.55,-81.47L-15.12,-75.00ZM248.05,-8.11L250.10,-27.20L242.60,-47.32L205.45,-60.96L154.65,-37.46L119.86,16.74L125.30,55.94L143.37,67.54L162.46,69.59L182.57,62.10L224.85,28.02L216.33,17.45L174.05,51.53L154.96,49.48L148.49,19.81L171.68,-16.32L203.40,-41.87L222.49,-39.82L219.41,-11.19L199.29,-3.69L170.66,-6.77L169.63,2.78L217.36,7.90ZM247.02,1.43L255.54,12.00L308.39,-30.59L317.94,-29.57L249.39,69.27L257.91,79.84L277.00,81.90L323.38,9.64L354.07,-6.38L382.70,-3.30L395.32,-30.91L377.26,-42.51L357.14,-35.01L324.41,0.09L314.86,-0.93L337.03,-27.52L338.05,-37.06L329.53,-47.63L299.87,-41.17ZM383.02,83.63L386.09,54.99L377.57,44.42L357.46,51.92L354.38,80.55L372.45,92.15L391.54,94.20L421.20,87.73L442.34,70.69L444.39,51.60L439.97,2.85L442.02,-16.24L462.14,-23.73L459.06,4.90L467.58,15.47L487.70,7.98L490.77,-20.66L463.16,-33.28L423.96,-27.83L412.36,-9.77L410.31,9.32L415.76,48.53L413.70,67.62L392.56,84.66ZM574.31,-79.27L563.74,-70.75L512.23,49.23L521.78,50.26L601.92,-66.65L593.40,-77.22ZM506.08,106.51L515.62,107.53L527.22,89.47L528.25,79.92L510.18,68.32L500.64,67.30L489.04,85.36L488.01,94.91ZM614.86,-7.33L624.41,-6.30L627.48,-34.94L639.08,-53.00L659.19,-60.50L677.26,-48.90L684.75,-28.78L682.70,-9.69L671.11,8.37L640.42,24.38L610.76,30.85L598.14,58.46L607.68,59.49L619.28,41.42L648.94,34.96L689.17,19.97L711.34,-6.62L713.39,-25.71L697.37,-56.39L669.76,-69.02L650.67,-71.07L621.01,-64.60L598.85,-38.01L597.82,-28.47ZM591.98,115.73L601.53,116.76L613.13,98.69L614.15,89.15L596.09,77.55L586.54,76.53L574.95,94.59L573.92,104.14Z" fill="#ffffff" stroke="#000000"/>
    <path d="M-523.18,-314.84L-519.38,-343.09L-492.95,-397.04L-440.81,-428.37L-421.98,-425.83L-405.68,-404.47L-409.48,-376.22L-390.65,-373.69L-369.29,-389.99L-376.17,-410.08L-420.71,-435.25L-448.95,-439.05L-489.15,-425.29L-521.19,-400.84L-543.83,-375.13L-559.58,-329.32L-547.08,-279.71L-511.95,-255.82L-474.29,-250.75L-443.51,-265.78L-411.47,-290.22L-419.62,-300.90L-451.66,-276.46L-482.44,-261.43L-501.27,-263.96L-518.84,-275.91ZM-377.61,-256.91L-268.80,-424.39L-334.70,-433.26L-335.97,-423.85L-307.73,-420.05L-405.85,-260.71L-407.12,-251.29L-389.56,-239.34L-360.05,-244.96L-306.63,-285.70L-314.78,-296.38L-368.19,-255.64ZM-190.40,-365.91L-180.98,-364.65L-169.03,-382.21L-167.77,-391.62L-185.33,-403.57L-194.75,-404.84L-206.69,-387.28L-207.96,-377.86ZM-304.10,-304.53L-295.95,-293.85L-242.54,-334.59L-233.13,-333.32L-302.29,-246.77L-303.56,-237.36L-295.41,-226.67L-276.58,-224.14L-256.48,-231.02L-203.07,-271.76L-211.22,-282.44L-264.63,-241.70L-274.04,-242.97L-204.88,-329.52L-203.61,-338.93L-221.18,-350.88L-250.69,-345.27ZM-48.63,-279.73L-27.26,-296.03L-7.16,-302.91L0.98,-292.23L-57.49,-213.83L-58.76,-204.41L-50.61,-193.73L-31.78,-191.20L-11.69,-198.08L41.72,-238.82L33.58,-249.50L-19.83,-208.76L-29.25,-210.03L27.96,-279.01L31.76,-307.26L4.79,-320.47L-24.73,-314.86L-46.09,-298.56L-43.56,-317.39L-61.12,-329.34L-90.63,-323.73L-122.68,-299.29L-110.73,-316.85L-109.46,-326.26L-117.61,-336.95L-147.12,-331.33L-200.53,-290.59L-192.39,-279.91L-138.98,-320.65L-129.56,-319.38L-199.99,-223.42L-191.84,-212.74L-173.01,-210.20L-125.21,-280.46L-93.17,-304.90L-73.07,-311.78L-64.92,-301.10L-124.67,-213.28L-116.52,-202.60L-97.69,-200.07ZM201.24,-284.45L193.09,-295.13L170.46,-269.42L163.58,-289.52L127.18,-304.00L75.04,-272.68L49.87,-228.14L54.22,-189.21L71.78,-177.26L90.61,-174.73L122.66,-199.17L120.13,-180.34L128.27,-169.66L157.79,-175.27L211.20,-216.01L203.05,-226.69L149.64,-185.95L140.22,-187.22ZM93.15,-193.56L83.73,-194.82L78.12,-224.34L102.02,-259.46L134.06,-283.91L152.89,-281.37L159.77,-261.27L158.51,-251.86L125.19,-218.00ZM234.37,-174.55L294.12,-262.37L322.37,-258.57L323.63,-267.98L295.39,-271.78L319.29,-306.91L300.46,-309.44L287.24,-282.46L267.14,-275.58L248.31,-278.12L247.04,-268.70L265.87,-266.17L206.13,-178.35L204.86,-168.94L213.01,-158.25L231.84,-155.72L251.94,-162.60L305.35,-203.34L297.20,-214.02L243.79,-173.28ZM450.38,-212.58L452.91,-231.41L446.03,-251.51L409.64,-265.99L358.76,-244.08L322.91,-191.39L327.26,-152.46L344.82,-140.52L363.65,-137.98L383.75,-144.86L426.48,-177.45L418.33,-188.14L375.60,-155.54L356.77,-158.08L351.16,-187.59L375.06,-222.72L407.10,-247.16L425.93,-244.63L422.13,-216.38L402.03,-209.50L373.79,-213.30L372.52,-203.89L419.60,-197.55ZM-697.43,-230.93L-681.13,-209.57L-748.48,-65.26L-779.26,-50.23L-666.28,-35.03L-626.09,-48.79L-594.04,-73.23L-571.41,-98.94L-555.66,-144.75L-568.15,-194.36L-612.69,-219.53ZM-595.85,-130.99L-622.29,-77.03L-654.33,-52.59L-674.43,-45.71L-712.09,-50.78L-720.24,-61.46L-652.89,-205.77L-642.21,-213.91L-613.96,-210.11L-596.40,-198.16L-592.05,-159.24ZM-428.91,-89.35L-426.38,-108.18L-433.26,-128.28L-469.65,-142.76L-520.53,-120.85L-556.38,-68.16L-552.03,-29.24L-534.47,-17.29L-515.64,-14.75L-495.54,-21.64L-452.81,-54.23L-460.96,-64.91L-503.69,-32.32L-522.52,-34.85L-528.13,-64.36L-504.24,-99.49L-472.19,-123.93L-453.36,-121.40L-457.16,-93.16L-477.26,-86.27L-505.50,-90.08L-506.77,-80.66L-459.69,-74.32ZM-420.22,-11.50L-416.42,-39.74L-424.57,-50.43L-444.66,-43.55L-448.47,-15.30L-430.90,-3.35L-412.07,-0.82L-382.56,-6.43L-361.20,-22.73L-358.66,-41.56L-361.74,-89.90L-359.21,-108.73L-339.11,-115.61L-342.91,-87.37L-334.76,-76.68L-314.67,-83.56L-310.86,-111.81L-337.84,-125.03L-376.77,-120.68L-388.72,-103.12L-391.25,-84.29L-386.91,-45.36L-389.44,-26.53L-410.81,-10.23ZM-203.50,-126.12L-194.08,-124.85L-182.13,-142.41L-180.87,-151.83L-198.43,-163.78L-207.84,-165.05L-219.79,-147.48L-221.06,-138.07ZM-317.20,-64.73L-309.05,-54.05L-255.64,-94.79L-246.23,-93.53L-315.39,-6.98L-316.65,2.44L-308.51,13.12L-289.68,15.65L-269.58,8.77L-216.17,-31.97L-224.32,-42.65L-277.73,-1.91L-287.14,-3.18L-217.98,-89.72L-216.71,-99.14L-234.28,-111.09L-263.79,-105.47ZM-201.14,-1.19L-202.41,8.23L-194.26,18.91L-243.87,31.41L-255.82,48.97L-250.20,78.48L-215.08,102.38L-196.25,104.91L-157.32,100.57L-134.69,74.86L-132.15,56.02L-174.16,12.03L-172.89,2.61L-144.65,6.42L-93.77,-15.49L-80.55,-42.47L-86.17,-71.99L-57.92,-68.18L-56.66,-77.60L-94.32,-82.67L-130.71,-97.15L-181.59,-75.24L-194.80,-48.26L-181.04,-8.07ZM-133.24,-78.32L-114.41,-75.79L-108.80,-46.27L-110.07,-36.86L-142.11,-12.42L-160.94,-14.95L-166.56,-44.46L-165.29,-53.88ZM-186.11,29.59L-161.67,61.64L-164.20,80.47L-194.98,95.50L-220.69,72.87L-227.57,52.77L-215.62,35.21ZM-72.41,-31.79L-64.26,-21.11L-10.85,-61.85L-1.43,-60.58L-71.86,35.38L-63.71,46.06L-44.88,48.60L2.91,-21.65L34.96,-46.10L55.06,-52.98L63.21,-42.30L4.73,36.10L3.46,45.52L11.61,56.20L30.44,58.73L50.54,51.85L103.95,11.11L95.80,0.43L42.39,41.17L32.97,39.90L90.18,-29.08L93.99,-57.33L67.01,-70.54L37.49,-64.93L5.45,-40.49L17.40,-58.05L18.66,-67.46L10.52,-78.15L-19.00,-72.53ZM239.56,0.61L242.09,-18.22L235.21,-38.32L198.82,-52.80L147.94,-30.89L112.09,21.80L116.44,60.72L134.00,72.67L152.84,75.21L172.93,68.32L215.66,35.73L207.51,25.05L164.78,57.64L145.95,55.11L140.34,25.60L164.24,-9.53L196.28,-33.97L215.12,-31.44L211.31,-3.19L191.22,3.69L162.97,-0.12L161.70,9.30L208.78,15.64ZM238.29,10.02L246.44,20.70L299.85,-20.04L309.27,-18.77L238.84,77.19L246.99,87.88L265.82,90.41L313.61,20.16L344.39,5.13L372.64,8.93L385.85,-18.05L368.29,-30.00L348.19,-23.12L314.88,10.74L305.47,9.48L328.10,-16.24L329.36,-25.65L321.22,-36.33L291.70,-30.72ZM370.65,94.93L374.45,66.69L366.30,56.01L346.21,62.89L342.40,91.13L359.97,103.08L378.80,105.61L408.31,100.00L429.67,83.70L432.21,64.87L429.13,16.53L431.66,-2.30L451.76,-9.18L447.96,19.07L456.11,29.75L476.20,22.87L480.01,-5.38L453.03,-18.59L414.10,-14.25L402.15,3.32L399.62,22.15L403.96,61.07L401.43,79.90L380.07,96.20ZM564.20,-61.15L553.51,-53.00L499.38,64.33L508.80,65.60L591.17,-47.93L583.03,-58.61ZM491.78,120.82L501.19,122.09L513.14,104.52L514.41,95.11L496.85,83.16L487.43,81.89L475.48,99.46L474.22,108.87ZM602.40,11.09L611.82,12.36L615.62,-15.89L627.57,-33.45L647.67,-40.33L665.23,-28.38L672.11,-8.28L669.58,10.55L657.63,28.11L626.85,43.14L597.33,48.75L584.12,75.73L593.53,77.00L605.48,59.44L634.99,53.82L675.19,40.06L697.82,14.35L700.35,-4.48L685.33,-35.26L658.35,-48.48L639.52,-51.01L610.00,-45.40L587.37,-19.69L586.11,-10.27ZM576.52,132.22L585.93,133.49L597.88,115.93L599.15,106.51L581.58,94.56L572.17,93.30L560.22,110.86L558.95,120.27Z" fill="#ffffff" stroke="#000000"/>
    <path d="M-515.17,-323.38L-510.67,-351.22L-483.09,-403.89L-430.69,-433.49L-412.13,-430.49L-396.58,-408.93L-401.08,-381.09L-382.53,-378.08L-360.96,-393.64L-367.24,-413.70L-410.63,-439.77L-438.47,-444.28L-478.59,-431.73L-510.93,-408.40L-534.00,-383.56L-550.79,-338.67L-539.74,-289.27L-505.63,-264.70L-468.51,-258.69L-437.67,-272.74L-405.33,-296.07L-413.10,-306.85L-445.45,-283.52L-476.29,-269.47L-494.85,-272.48L-511.91,-284.76ZM-372.72,-262.23L-260.66,-425.01L-325.61,-435.52L-327.12,-426.25L-299.28,-421.74L-400.56,-266.73L-402.06,-257.45L-385.00,-245.17L-355.66,-249.94L-301.75,-288.82L-309.53,-299.61L-363.44,-260.72ZM-184.66,-365.09L-175.38,-363.59L-163.10,-380.64L-161.59,-389.92L-178.65,-402.21L-187.93,-403.71L-200.21,-386.65L-201.72,-377.37ZM-298.75,-307.38L-290.97,-296.60L-237.06,-335.49L-227.79,-333.98L-298.49,-250.21L-299.99,-240.93L-292.21,-230.15L-273.65,-227.14L-253.59,-233.41L-199.68,-272.30L-207.46,-283.08L-261.37,-244.20L-270.65,-245.70L-199.95,-329.48L-198.45,-338.75L-215.50,-351.04L-244.84,-346.27ZM-46.71,-276.10L-25.15,-291.65L-5.09,-297.92L2.69,-287.14L-57.23,-211.14L-58.73,-201.86L-50.95,-191.08L-32.39,-188.08L-12.33,-194.35L41.57,-233.23L33.80,-244.02L-20.11,-205.13L-29.39,-206.63L29.03,-273.36L33.53,-301.19L7.20,-314.98L-22.14,-310.21L-43.71,-294.65L-40.70,-313.21L-57.76,-325.50L-87.10,-320.72L-119.44,-297.39L-107.16,-314.45L-105.65,-323.73L-113.43,-334.51L-142.77,-329.74L-196.68,-290.86L-188.90,-280.07L-134.99,-318.96L-125.72,-317.46L-197.92,-224.40L-190.14,-213.62L-171.58,-210.61L-122.45,-278.84L-90.10,-302.17L-70.04,-308.44L-62.26,-297.66L-123.68,-212.38L-115.91,-201.60L-97.35,-198.59ZM200.56,-274.15L192.78,-284.93L169.72,-260.10L163.44,-280.16L127.83,-295.45L75.42,-265.84L49.35,-222.45L52.62,-183.83L69.68,-171.55L88.23,-168.54L120.58,-191.87L117.57,-173.32L125.35,-162.53L154.69,-167.31L208.60,-206.19L200.82,-216.97L146.91,-178.09L137.63,-179.59ZM91.24,-187.10L81.96,-188.60L77.19,-217.94L101.76,-252.06L134.10,-275.39L152.66,-272.38L158.93,-252.32L157.43,-243.04L123.58,-210.43ZM230.43,-164.57L291.85,-249.84L319.68,-245.34L321.19,-254.62L293.35,-259.12L317.92,-293.23L299.36,-296.24L285.57,-269.90L265.51,-263.63L246.95,-266.64L245.45,-257.36L264.01,-254.35L202.59,-169.07L201.09,-159.79L208.86,-149.01L227.42,-146.01L247.48,-152.28L301.39,-191.16L293.61,-201.95L239.71,-163.06ZM445.08,-196.46L448.09,-215.02L441.82,-235.08L406.20,-250.37L355.30,-230.05L318.45,-178.88L321.72,-140.26L338.77,-127.98L357.33,-124.97L377.39,-131.25L420.52,-162.35L412.74,-173.13L369.61,-142.03L351.06,-145.03L346.28,-174.37L370.85,-208.48L403.20,-231.81L421.75,-228.81L417.25,-200.97L397.19,-194.70L369.35,-199.21L367.85,-189.93L414.24,-182.41ZM-689.75,-245.00L-674.19,-223.43L-744.63,-82.48L-775.47,-68.43L-664.12,-50.40L-624.00,-62.95L-591.66,-86.28L-568.59,-111.11L-551.80,-156.00L-562.84,-205.40L-606.24,-231.48ZM-591.92,-143.46L-619.49,-90.79L-651.84,-67.46L-671.90,-61.18L-709.02,-67.19L-716.79,-77.97L-646.36,-218.93L-635.58,-226.70L-607.74,-222.20L-590.68,-209.91L-587.41,-171.29ZM-427.90,-97.85L-424.90,-116.41L-431.17,-136.47L-466.78,-151.76L-517.69,-131.44L-554.54,-80.27L-551.27,-41.65L-534.21,-29.36L-515.66,-26.36L-495.60,-32.63L-452.47,-63.74L-460.25,-74.52L-503.37,-43.42L-521.93,-46.42L-526.70,-75.76L-502.13,-109.87L-469.79,-133.20L-451.23,-130.20L-455.74,-102.36L-475.80,-96.09L-503.64,-100.59L-505.14,-91.31L-458.74,-83.80ZM-421.36,-20.61L-416.85,-48.45L-424.63,-59.23L-444.69,-52.96L-449.20,-25.12L-432.14,-12.84L-413.59,-9.83L-384.25,-14.60L-362.68,-30.16L-359.68,-48.72L-361.44,-96.61L-358.44,-115.17L-338.38,-121.45L-342.89,-93.61L-335.11,-82.83L-315.05,-89.10L-310.54,-116.94L-336.88,-130.73L-375.50,-127.46L-387.78,-110.40L-390.78,-91.84L-387.52,-53.22L-390.52,-34.67L-412.08,-19.11ZM-203.96,-128.25L-194.68,-126.75L-182.40,-143.80L-180.90,-153.08L-197.95,-165.37L-207.23,-166.87L-219.52,-149.81L-221.02,-140.53ZM-318.05,-70.54L-310.28,-59.76L-256.37,-98.65L-247.09,-97.14L-317.79,-13.37L-319.29,-4.09L-311.52,6.69L-292.96,9.70L-272.90,3.43L-218.99,-35.46L-226.76,-46.24L-280.67,-7.36L-289.95,-8.86L-219.25,-92.64L-217.75,-101.91L-234.81,-114.20L-264.15,-109.43ZM-204.94,-4.62L-206.44,4.66L-198.66,15.44L-248.06,26.49L-260.35,43.55L-255.58,72.89L-221.46,97.45L-202.91,100.46L-164.29,97.19L-141.22,72.36L-138.22,53.80L-178.60,9.17L-177.10,-0.11L-149.26,4.40L-98.36,-15.93L-84.57,-42.26L-89.34,-71.60L-61.51,-67.09L-60.00,-76.37L-97.12,-82.38L-132.73,-97.67L-183.64,-77.35L-197.42,-51.01L-184.88,-10.89ZM-135.74,-79.11L-117.18,-76.11L-112.41,-46.77L-113.91,-37.49L-146.26,-14.16L-164.82,-17.16L-169.59,-46.50L-168.08,-55.78ZM-190.89,26.23L-167.56,58.57L-170.56,77.13L-201.40,91.18L-226.24,68.11L-232.51,48.05L-220.23,31.00ZM-76.80,-31.48L-69.02,-20.70L-15.11,-59.58L-5.83,-58.08L-78.03,34.98L-70.26,45.76L-51.70,48.76L-2.56,-19.46L29.78,-42.79L49.84,-49.06L57.62,-38.28L-2.30,37.72L-3.80,47.00L3.98,57.78L22.53,60.78L42.60,54.51L96.50,15.63L88.73,4.84L34.82,43.73L25.54,42.22L83.95,-24.50L88.46,-52.33L62.13,-66.12L32.79,-61.35L0.44,-38.02L12.73,-55.07L14.23,-64.35L6.45,-75.13L-22.89,-70.36ZM230.92,8.82L233.92,-9.74L227.65,-29.80L192.04,-45.09L141.13,-24.76L104.28,26.41L107.55,65.03L124.60,77.31L143.16,80.32L163.22,74.04L206.35,42.93L198.57,32.15L155.45,63.26L136.89,60.25L132.12,30.91L156.69,-3.20L189.03,-26.53L207.59,-23.52L203.08,4.32L183.02,10.59L155.18,6.08L153.68,15.36L200.08,22.87ZM229.42,18.10L237.19,28.88L291.10,-10.00L300.38,-8.50L228.18,84.56L235.95,95.34L254.51,98.35L303.65,30.12L334.49,16.07L362.33,20.58L376.12,-5.76L359.06,-18.04L339.00,-11.77L305.15,20.84L295.87,19.34L318.94,-5.49L320.44,-14.77L312.66,-25.55L283.32,-20.78ZM358.09,105.59L362.59,77.76L354.82,66.97L334.76,73.25L330.25,101.09L347.30,113.37L365.86,116.37L395.20,111.60L416.77,96.05L419.77,77.49L418.00,29.59L421.01,11.03L441.07,4.76L436.56,32.60L444.34,43.38L464.40,37.11L468.91,9.27L442.57,-4.52L403.95,-1.25L391.67,15.81L388.66,34.36L391.93,72.98L388.93,91.54L367.37,107.10ZM553.66,-43.67L542.88,-35.89L486.23,78.73L495.51,80.23L579.99,-29.88L572.22,-40.66ZM477.21,134.40L486.49,135.91L498.78,118.85L500.28,109.57L483.22,97.29L473.94,95.79L461.66,112.84L460.16,122.12ZM589.54,28.80L598.82,30.30L603.32,2.47L615.61,-14.59L635.67,-20.86L652.72,-8.58L659.00,11.48L655.99,30.04L643.71,47.09L612.87,61.15L583.53,65.92L569.74,92.25L579.02,93.75L591.30,76.70L620.64,71.93L660.76,59.38L683.83,34.55L686.83,15.99L672.78,-14.85L646.45,-28.64L627.89,-31.65L598.55,-26.87L575.49,-2.04L573.98,7.24ZM560.72,147.93L570.00,149.43L582.29,132.37L583.79,123.09L566.73,110.81L557.46,109.31L545.17,126.36L543.67,135.64Z" fill="#ffffff" stroke="#000000"/>
    <path d="M-506.96,-331.76L-501.76,-359.17L-473.10,-410.53L-420.48,-438.42L-402.21,-434.96L-387.40,-413.22L-392.59,-385.81L-374.32,-382.35L-352.58,-397.16L-358.25,-417.17L-400.48,-444.10L-427.89,-449.29L-467.90,-437.95L-500.51,-415.73L-523.98,-391.78L-541.77,-347.82L-532.16,-298.67L-499.07,-273.47L-462.52,-266.55L-431.64,-279.63L-399.04,-301.84L-406.44,-312.71L-439.05,-290.50L-469.93,-277.42L-488.20,-280.88L-504.74,-293.48ZM-367.68,-267.51L-252.55,-425.53L-316.51,-437.65L-318.24,-428.52L-290.83,-423.32L-395.10,-272.70L-396.83,-263.56L-380.28,-250.96L-351.14,-254.90L-296.80,-291.93L-304.20,-302.80L-358.55,-265.77ZM-178.97,-364.26L-169.83,-362.53L-157.23,-379.07L-155.50,-388.21L-172.04,-400.81L-181.18,-402.54L-193.78,-386.00L-195.51,-376.86ZM-293.33,-310.21L-285.93,-299.34L-231.58,-336.37L-222.44,-334.64L-294.58,-253.65L-296.32,-244.52L-288.91,-233.65L-270.63,-230.18L-250.63,-235.86L-196.28,-272.89L-203.69,-283.76L-258.03,-246.73L-267.17,-248.46L-195.03,-329.44L-193.30,-338.58L-209.84,-351.18L-238.99,-347.24ZM-44.89,-272.59L-23.15,-287.41L-3.15,-293.08L4.26,-282.21L-57.01,-208.63L-58.74,-199.50L-51.34,-188.63L-33.06,-185.16L-13.06,-190.84L41.29,-227.87L33.88,-238.74L-20.46,-201.71L-29.60,-203.44L29.94,-267.88L35.13,-295.29L9.45,-309.62L-19.69,-305.68L-41.43,-290.87L-37.97,-309.14L-54.51,-321.74L-83.65,-317.80L-116.26,-295.58L-103.66,-312.13L-101.93,-321.27L-109.33,-332.13L-138.48,-328.19L-192.82,-291.16L-185.42,-280.29L-131.07,-317.32L-121.93,-315.59L-195.80,-225.47L-188.40,-214.60L-170.12,-211.14L-119.72,-277.31L-87.12,-299.53L-67.11,-305.20L-59.70,-294.33L-122.71,-211.62L-115.30,-200.75L-97.02,-197.28ZM199.61,-264.12L192.20,-274.99L168.73,-251.04L163.06,-271.05L128.24,-287.11L75.63,-259.22L48.69,-217.00L50.90,-178.72L67.45,-166.12L85.72,-162.65L118.33,-184.87L114.87,-166.60L122.27,-155.73L151.42,-159.67L205.76,-196.70L198.35,-207.57L144.01,-170.54L134.87,-172.27ZM89.19,-180.93L80.05,-182.66L76.11,-211.80L101.31,-244.89L133.91,-267.11L152.19,-263.64L157.86,-243.64L156.13,-234.50L121.79,-203.15ZM226.25,-154.96L289.25,-237.67L316.66,-232.48L318.39,-241.61L290.98,-246.81L316.18,-279.90L297.91,-283.36L283.57,-257.68L263.57,-252.00L245.29,-255.47L243.56,-246.33L261.84,-242.87L198.83,-160.15L197.10,-151.01L204.51,-140.14L222.78,-136.68L242.79,-142.35L297.13,-179.38L289.73,-190.25L235.38,-153.22ZM439.39,-180.82L442.85,-199.10L437.18,-219.10L402.36,-235.17L351.48,-216.41L313.68,-166.78L315.89,-128.50L332.43,-115.90L350.71,-112.44L370.71,-118.11L414.19,-147.74L406.78,-158.61L363.31,-128.98L345.03,-132.45L341.09,-161.59L366.29,-194.68L398.90,-216.89L417.17,-213.43L411.98,-186.02L391.97,-180.34L364.56,-185.54L362.83,-176.40L408.51,-167.74ZM-681.68,-258.86L-666.87,-237.12L-740.26,-99.58L-771.14,-86.50L-661.49,-65.72L-621.48,-77.07L-588.87,-99.29L-565.40,-123.24L-547.61,-167.19L-557.22,-216.34L-599.45,-243.27ZM-587.62,-155.84L-616.28,-104.48L-648.89,-82.26L-668.90,-76.59L-705.45,-83.52L-712.85,-94.38L-639.46,-231.92L-628.59,-239.33L-601.18,-234.14L-584.64,-221.54L-582.42,-183.25ZM-426.61,-106.40L-423.15,-124.67L-428.82,-144.68L-463.64,-160.74L-514.52,-141.99L-552.32,-92.36L-550.11,-54.08L-533.57,-41.48L-515.29,-38.02L-495.29,-43.69L-451.81,-73.31L-459.22,-84.18L-502.69,-54.56L-520.97,-58.02L-524.91,-87.17L-499.71,-120.25L-467.10,-142.47L-448.83,-139.01L-454.02,-111.59L-474.03,-105.92L-501.44,-111.11L-503.17,-101.98L-457.48,-93.32ZM-422.19,-29.84L-416.99,-57.25L-424.40,-68.12L-444.40,-62.44L-449.60,-35.03L-433.06,-22.43L-414.78,-18.97L-385.64,-22.91L-363.90,-37.72L-360.44,-56.00L-360.92,-103.42L-357.45,-121.69L-337.45,-127.37L-342.64,-99.95L-335.24,-89.08L-315.23,-94.76L-310.03,-122.17L-335.72,-136.50L-374.00,-134.29L-386.60,-117.75L-390.06,-99.47L-387.85,-61.19L-391.31,-42.92L-413.05,-28.11ZM-204.33,-130.54L-195.19,-128.80L-182.59,-145.35L-180.86,-154.48L-197.40,-167.09L-206.54,-168.82L-219.14,-152.27L-220.87,-143.14ZM-318.69,-76.48L-311.29,-65.61L-256.94,-102.64L-247.80,-100.91L-319.94,-19.93L-321.68,-10.79L-314.27,0.08L-296.00,3.54L-275.99,-2.13L-221.64,-39.16L-229.05,-50.03L-283.39,-13.00L-292.53,-14.73L-220.39,-95.72L-218.66,-104.86L-235.20,-117.46L-264.35,-113.51ZM-208.56,-8.29L-210.30,0.85L-202.89,11.72L-252.04,21.34L-264.64,37.88L-260.70,67.02L-227.61,92.22L-209.34,95.69L-171.06,93.48L-147.59,69.53L-144.12,51.25L-182.88,6.05L-181.15,-3.09L-153.74,2.10L-102.86,-16.65L-88.53,-42.33L-92.47,-71.48L-65.06,-66.28L-63.33,-75.42L-99.87,-82.35L-134.69,-98.41L-185.57,-79.65L-199.91,-53.97L-188.56,-13.96ZM-138.16,-80.13L-119.88,-76.67L-115.94,-47.53L-117.67,-38.39L-150.28,-16.17L-168.55,-19.64L-172.49,-48.78L-170.76,-57.92ZM-195.48,22.59L-173.27,55.20L-176.73,73.47L-207.60,86.55L-231.55,63.08L-237.23,43.07L-224.63,26.53ZM-81.12,-31.46L-73.71,-20.59L-19.37,-57.62L-10.23,-55.89L-84.10,34.23L-76.70,45.10L-58.42,48.56L-8.02,-17.61L24.59,-39.83L44.59,-45.50L52.00,-34.63L-9.27,38.94L-11.00,48.08L-3.60,58.95L14.68,62.41L34.68,56.74L89.03,19.71L81.62,8.84L27.28,45.87L18.14,44.14L77.68,-20.30L82.87,-47.71L57.19,-62.05L28.05,-58.10L-4.56,-35.89L8.04,-52.43L9.77,-61.57L2.37,-72.44L-26.78,-68.49ZM222.14,16.54L225.61,-1.73L219.93,-21.74L185.12,-37.80L134.23,-19.05L96.43,30.58L98.64,68.86L115.19,81.46L133.46,84.92L153.47,79.25L196.94,49.63L189.54,38.76L146.06,68.38L127.79,64.92L123.84,35.77L149.05,2.69L181.65,-19.53L199.93,-16.07L194.73,11.35L174.73,17.02L147.31,11.82L145.58,20.96L191.27,29.62ZM220.41,25.68L227.82,36.55L282.16,-0.48L291.30,1.25L217.43,91.37L224.84,102.24L243.11,105.70L293.51,39.53L324.39,26.45L351.80,31.64L366.13,5.96L349.59,-6.64L329.58,-0.96L295.24,30.39L286.11,28.66L309.58,4.71L311.31,-4.43L303.90,-15.29L274.76,-11.35ZM345.35,115.61L350.55,88.20L343.14,77.33L323.14,83.01L317.94,110.42L334.48,123.02L352.76,126.48L381.90,122.54L403.64,107.73L407.10,89.45L406.62,42.03L410.09,23.76L430.09,18.08L424.90,45.50L432.30,56.37L452.31,50.69L457.51,23.28L431.83,8.95L393.54,11.16L380.94,27.70L377.48,45.98L379.69,84.26L376.23,102.53L354.49,117.34ZM542.73,-26.83L531.86,-19.42L472.80,92.44L481.93,94.17L568.41,-12.50L561.00,-23.37ZM462.41,147.26L471.55,148.99L484.15,132.45L485.88,123.31L469.33,110.71L460.20,108.98L447.60,125.52L445.86,134.66ZM576.29,45.79L585.43,47.52L590.62,20.11L603.22,3.57L623.23,-2.11L639.77,10.49L645.45,30.50L641.98,48.77L629.38,65.32L598.51,78.40L569.37,82.34L555.03,108.02L564.17,109.75L576.77,93.21L605.91,89.26L645.93,77.92L669.40,53.97L672.86,35.69L659.78,4.82L634.10,-9.52L615.82,-12.98L586.68,-9.04L563.21,14.91L561.48,24.05ZM544.64,162.84L553.78,164.57L566.38,148.03L568.11,138.89L551.57,126.29L542.43,124.56L529.83,141.11L528.10,150.24Z" fill="#ffffff" stroke="#000000"/>
    <path d="M-498.53,-339.97L-492.66,-366.94L-462.96,-416.97L-410.19,-443.16L-392.21,-439.25L-378.14,-417.36L-384.00,-390.39L-366.02,-386.48L-344.13,-400.56L-349.21,-420.49L-390.26,-448.24L-417.23,-454.10L-457.10,-443.94L-489.93,-422.83L-513.77,-399.77L-532.53,-356.77L-524.32,-307.91L-492.27,-282.12L-456.31,-274.30L-425.43,-286.42L-392.60,-307.53L-399.63,-318.47L-432.47,-297.36L-463.35,-285.25L-481.33,-289.15L-497.35,-302.05ZM-362.50,-272.74L-244.46,-425.96L-307.39,-439.64L-309.35,-430.65L-282.38,-424.79L-389.47,-278.60L-391.42,-269.61L-375.40,-256.71L-346.47,-259.84L-291.75,-295.02L-298.79,-305.97L-353.51,-270.79ZM-173.32,-363.43L-164.33,-361.47L-151.43,-377.50L-149.48,-386.49L-165.51,-399.39L-174.50,-401.34L-187.39,-385.32L-189.35,-376.33ZM-287.85,-313.00L-280.81,-302.06L-226.09,-337.24L-217.10,-335.28L-290.58,-257.11L-292.53,-248.12L-285.50,-237.17L-267.52,-233.26L-247.58,-238.35L-192.86,-273.53L-199.90,-284.47L-254.62,-249.29L-263.61,-251.24L-190.13,-329.42L-188.17,-338.41L-204.20,-351.31L-233.12,-348.18ZM-43.16,-269.23L-21.27,-283.30L-1.34,-288.38L5.70,-277.44L-56.84,-206.30L-58.79,-197.31L-51.76,-186.37L-33.78,-182.46L-13.84,-187.54L40.88,-222.72L33.84,-233.66L-20.88,-198.48L-29.87,-200.44L30.72,-262.59L36.58,-289.56L11.56,-304.41L-17.36,-301.28L-39.25,-287.21L-35.34,-305.19L-51.37,-318.09L-80.29,-314.96L-113.13,-293.85L-100.23,-309.88L-98.27,-318.87L-105.31,-329.81L-134.23,-326.69L-188.95,-291.51L-181.92,-280.56L-127.20,-315.74L-118.21,-313.79L-193.64,-226.62L-186.61,-215.68L-168.63,-211.77L-117.03,-275.87L-84.20,-296.98L-64.27,-302.06L-57.23,-291.12L-121.72,-210.99L-114.69,-200.04L-96.71,-196.14ZM198.40,-254.38L191.36,-265.33L167.52,-242.27L162.44,-262.20L128.43,-279.01L75.67,-252.82L47.92,-211.77L49.09,-173.86L65.11,-160.96L83.09,-157.05L115.93,-178.16L112.02,-160.18L119.06,-149.24L147.98,-152.37L202.70,-187.55L195.66,-198.49L140.94,-163.31L131.95,-165.26ZM87.00,-175.03L78.01,-176.99L74.89,-205.91L100.68,-237.96L133.51,-259.07L151.49,-255.16L156.58,-235.23L154.62,-226.24L119.84,-196.14ZM221.85,-145.72L286.35,-225.85L313.32,-219.99L315.27,-228.98L288.30,-234.84L314.10,-266.89L296.12,-270.80L281.26,-245.79L261.33,-240.70L243.35,-244.61L241.40,-235.62L259.38,-231.71L194.88,-151.58L192.93,-142.59L199.97,-131.65L217.95,-127.74L237.88,-132.82L292.60,-168.00L285.57,-178.95L230.84,-143.77ZM433.31,-165.66L437.22,-183.64L432.14,-203.58L398.13,-220.38L347.32,-203.18L308.63,-155.11L309.80,-117.19L325.83,-104.29L343.81,-100.38L363.74,-105.47L407.52,-133.61L400.48,-144.55L356.71,-116.41L338.73,-120.32L335.60,-149.24L361.39,-181.30L394.23,-202.40L412.21,-198.49L406.34,-171.52L386.41,-166.44L359.44,-172.31L357.49,-163.32L402.44,-153.54ZM-673.24,-272.50L-659.17,-250.61L-735.39,-116.54L-766.27,-104.42L-658.38,-80.97L-618.52,-91.13L-585.68,-112.24L-561.84,-135.30L-543.08,-178.30L-551.29,-227.16L-592.33,-254.91ZM-582.95,-168.14L-612.65,-118.11L-645.49,-97.00L-665.42,-91.92L-701.38,-99.73L-708.42,-110.68L-632.20,-244.75L-621.26,-251.78L-594.29,-245.92L-578.26,-233.02L-577.09,-195.11ZM-425.04,-114.98L-421.13,-132.96L-426.21,-152.90L-460.22,-169.70L-511.03,-152.50L-549.72,-104.43L-548.55,-66.51L-532.52,-53.61L-514.54,-49.71L-494.61,-54.79L-450.83,-82.93L-457.87,-93.88L-501.64,-65.73L-519.63,-69.64L-522.75,-98.56L-496.96,-130.62L-464.12,-151.72L-446.14,-147.82L-452.01,-120.85L-471.94,-115.76L-498.91,-121.63L-500.86,-112.64L-455.91,-102.87ZM-422.69,-39.15L-416.83,-66.12L-423.86,-77.07L-443.80,-71.99L-449.66,-45.02L-433.63,-32.12L-415.65,-28.21L-386.73,-31.34L-364.84,-45.41L-360.93,-63.39L-360.15,-110.29L-356.24,-128.27L-336.31,-133.36L-342.17,-106.39L-335.13,-95.44L-315.20,-100.52L-309.34,-127.49L-334.35,-142.35L-372.27,-141.17L-385.17,-125.15L-389.08,-107.17L-387.90,-69.25L-391.81,-51.27L-413.70,-37.20ZM-204.59,-132.97L-195.60,-131.01L-182.70,-147.04L-180.74,-156.03L-196.77,-168.93L-205.76,-170.88L-218.66,-154.86L-220.61,-145.87ZM-319.11,-82.54L-312.07,-71.60L-257.35,-106.78L-248.36,-104.82L-321.84,-26.65L-323.80,-17.66L-316.76,-6.71L-298.78,-2.81L-278.85,-7.89L-224.13,-43.07L-231.16,-54.01L-285.88,-18.83L-294.87,-20.79L-221.39,-98.96L-219.44,-107.95L-235.46,-120.85L-264.39,-117.72ZM-212.01,-12.19L-213.96,-3.20L-206.93,7.74L-255.79,15.95L-268.68,31.98L-265.56,60.90L-233.50,86.70L-215.52,90.61L-177.61,89.44L-153.77,66.37L-149.86,48.39L-186.99,2.66L-185.04,-6.33L-158.07,-0.46L-107.26,-17.66L-92.40,-42.68L-95.53,-71.60L-68.56,-65.74L-66.61,-74.73L-102.57,-82.55L-136.57,-99.36L-187.39,-82.16L-202.24,-57.14L-192.07,-17.27ZM-140.48,-81.38L-122.50,-77.47L-119.37,-48.54L-121.33,-39.55L-154.16,-18.45L-172.14,-22.35L-175.27,-51.28L-173.31,-60.27ZM-199.89,18.69L-178.78,51.52L-182.69,69.50L-213.57,81.62L-236.63,57.78L-241.71,37.84L-228.82,21.82ZM-85.37,-31.74L-78.33,-20.79L-23.61,-55.97L-14.62,-54.02L-90.06,33.15L-83.02,44.09L-65.04,48.00L-13.45,-16.10L19.39,-37.21L39.32,-42.29L46.36,-31.35L-16.18,39.79L-18.14,48.78L-11.10,59.73L6.88,63.63L26.82,58.55L81.54,23.37L74.50,12.43L19.78,47.61L10.79,45.65L71.37,-16.50L77.23,-43.47L52.22,-58.32L23.29,-55.19L-9.54,-34.08L3.36,-50.11L5.31,-59.10L-1.72,-70.04L-30.65,-66.92ZM213.26,23.76L217.17,5.78L212.09,-14.16L178.08,-30.96L127.27,-13.76L88.57,34.32L89.75,72.23L105.77,85.13L123.75,89.04L143.69,83.96L187.46,55.81L180.43,44.87L136.65,73.01L118.67,69.10L115.54,40.18L141.34,8.13L174.17,-12.98L192.15,-9.07L186.29,17.90L166.36,22.98L139.38,17.12L137.43,26.11L182.38,35.88ZM211.31,32.75L218.34,43.69L273.06,8.51L282.05,10.47L206.62,97.63L213.65,108.58L231.63,112.49L283.23,48.38L314.10,36.26L341.07,42.13L355.93,17.11L339.90,4.21L319.97,9.29L285.18,39.39L276.19,37.44L300.03,14.38L301.99,5.39L294.95,-5.56L266.03,-2.43ZM332.48,124.99L338.34,98.02L331.30,87.08L311.37,92.16L305.51,119.13L321.53,132.03L339.51,135.94L368.44,132.81L390.33,118.74L394.23,100.76L395.02,53.85L398.92,35.87L418.86,30.79L413.00,57.76L420.03,68.70L439.97,63.62L445.83,36.65L420.81,21.80L382.90,22.97L370.00,39.00L366.09,56.98L367.26,94.89L363.36,112.87L341.47,126.95ZM531.43,-10.65L520.48,-3.61L459.12,105.44L468.11,107.40L556.44,4.21L549.41,-6.74ZM447.39,159.39L456.38,161.34L469.28,145.31L471.24,136.32L455.21,123.42L446.22,121.47L433.32,137.50L431.37,146.49ZM562.70,62.06L571.69,64.01L577.55,37.04L590.45,21.01L610.38,15.93L626.41,28.83L631.49,48.76L627.58,66.74L614.69,82.77L583.81,94.89L554.88,98.02L540.03,123.03L549.02,124.99L561.92,108.96L590.84,105.83L630.71,95.67L654.55,72.61L658.46,54.63L646.34,23.75L621.33,8.90L603.35,4.99L574.42,8.12L550.58,31.18L548.63,40.17ZM528.31,176.97L537.30,178.93L550.19,162.90L552.15,153.91L536.12,141.01L527.13,139.06L514.23,155.08L512.28,164.07Z" fill="#ffffff" stroke="#000000"/>
    <path d="M-489.89,-347.99L-483.38,-374.50L-452.68,-423.19L-399.81,-447.69L-382.14,-443.35L-368.81,-421.33L-375.32,-394.82L-357.64,-390.48L-335.63,-403.82L-340.12,-423.66L-379.97,-452.19L-406.48,-458.70L-446.17,-449.70L-479.19,-429.70L-503.38,-407.53L-523.07,-365.51L-516.24,-316.98L-485.23,-290.63L-449.88,-281.95L-419.03,-293.11L-386.01,-313.11L-392.68,-324.12L-425.70,-304.12L-456.55,-292.95L-474.23,-297.29L-489.73,-310.47ZM-357.17,-277.92L-236.40,-426.30L-298.26,-441.49L-300.43,-432.66L-273.92,-426.15L-383.68,-284.43L-385.85,-275.59L-370.35,-262.42L-341.66,-264.74L-286.63,-298.08L-293.29,-309.09L-348.33,-275.75ZM-167.71,-362.58L-158.88,-360.41L-145.70,-375.92L-143.53,-384.76L-159.03,-397.93L-167.87,-400.10L-181.05,-384.60L-183.22,-375.76ZM-282.29,-315.76L-275.62,-304.75L-220.58,-338.09L-211.74,-335.92L-286.47,-260.56L-288.64,-251.72L-281.97,-240.72L-264.30,-236.38L-244.45,-240.87L-189.41,-274.21L-196.08,-285.22L-251.12,-251.88L-259.96,-254.05L-185.23,-329.41L-183.06,-338.24L-198.57,-351.42L-227.25,-349.09ZM-41.50,-266.00L-19.49,-279.34L0.36,-283.83L7.02,-272.83L-56.69,-204.14L-58.86,-195.30L-52.20,-184.29L-34.52,-179.95L-14.68,-184.45L40.36,-217.79L33.69,-228.80L-21.34,-195.46L-30.18,-197.63L31.37,-257.48L37.88,-283.99L13.53,-299.34L-15.15,-297.01L-37.16,-283.68L-32.82,-301.35L-48.33,-314.53L-77.01,-312.20L-110.03,-292.20L-96.86,-307.70L-94.69,-316.54L-101.35,-327.55L-130.04,-325.22L-185.07,-291.89L-178.41,-280.88L-123.37,-314.21L-114.53,-312.04L-191.43,-227.85L-184.76,-216.85L-167.08,-212.51L-114.37,-274.52L-81.35,-294.53L-61.51,-299.02L-54.84,-288.02L-120.73,-210.49L-114.06,-199.48L-96.38,-195.14ZM196.95,-244.93L190.28,-255.94L166.10,-233.77L161.60,-253.61L128.42,-271.13L75.55,-246.63L47.03,-206.78L47.18,-169.26L62.69,-156.08L80.36,-151.74L113.39,-171.75L109.05,-154.07L115.71,-143.06L144.40,-145.39L199.43,-178.73L192.77,-189.73L137.73,-156.40L128.89,-158.57ZM84.70,-169.42L75.87,-171.59L73.54,-200.27L99.90,-231.28L132.92,-251.28L150.59,-246.94L155.09,-227.10L152.92,-218.26L117.73,-189.42ZM217.27,-136.87L283.15,-214.39L309.67,-207.88L311.84,-216.72L285.32,-223.23L311.68,-254.24L294.00,-258.58L278.66,-234.24L258.81,-229.74L241.14,-234.08L238.97,-225.24L256.64,-220.90L190.75,-143.38L188.58,-134.54L195.25,-123.53L212.93,-119.19L232.77,-123.69L287.81,-157.03L281.14,-168.03L226.10,-134.70ZM426.88,-150.99L431.22,-168.66L426.72,-188.51L393.54,-206.03L342.85,-190.36L303.31,-143.85L303.47,-106.33L318.98,-93.15L336.65,-88.81L356.50,-93.31L400.53,-119.98L393.86,-130.99L349.83,-104.32L332.15,-108.66L329.83,-137.34L356.18,-168.35L389.20,-188.35L406.88,-184.01L400.37,-157.50L380.52,-153.00L354.01,-159.51L351.84,-150.67L396.03,-139.82ZM-664.43,-285.90L-651.09,-263.89L-730.00,-133.34L-760.86,-122.18L-654.81,-96.13L-615.12,-105.13L-582.09,-125.13L-557.91,-147.30L-538.22,-189.32L-545.05,-237.85L-584.89,-266.37ZM-577.91,-180.33L-608.61,-131.64L-641.63,-111.64L-661.47,-107.14L-696.82,-115.82L-703.49,-126.83L-624.58,-257.38L-613.57,-264.05L-587.06,-257.54L-571.56,-244.36L-571.40,-206.84ZM-423.18,-123.59L-418.84,-141.26L-423.33,-161.11L-456.51,-178.63L-507.21,-162.97L-546.74,-116.45L-546.59,-78.93L-531.08,-65.75L-513.41,-61.41L-493.56,-65.91L-449.53,-92.58L-456.20,-103.59L-500.23,-76.92L-517.90,-81.26L-520.23,-109.94L-493.88,-140.95L-460.85,-160.95L-443.18,-156.61L-449.69,-130.10L-469.53,-125.60L-496.05,-132.11L-498.22,-123.28L-454.03,-112.43ZM-422.86,-48.55L-416.35,-75.06L-423.02,-86.07L-442.86,-81.57L-449.37,-55.06L-433.87,-41.88L-416.19,-37.54L-387.51,-39.87L-365.50,-53.20L-361.16,-70.88L-359.14,-117.24L-354.80,-134.91L-334.96,-139.41L-341.47,-112.90L-334.80,-101.89L-314.96,-106.39L-308.45,-132.90L-332.79,-148.25L-370.31,-148.09L-383.49,-132.58L-387.83,-114.91L-387.67,-77.39L-392.01,-59.71L-414.02,-46.38ZM-204.72,-135.54L-195.89,-133.37L-182.71,-148.88L-180.54,-157.71L-196.04,-170.89L-204.88,-173.06L-218.06,-157.56L-220.23,-148.72ZM-319.30,-88.71L-312.63,-77.70L-257.59,-111.04L-248.75,-108.87L-323.48,-33.52L-325.65,-24.68L-318.98,-13.67L-301.31,-9.33L-281.46,-13.83L-226.42,-47.17L-233.09,-58.17L-288.13,-24.84L-296.97,-27.01L-222.24,-102.36L-220.07,-111.20L-235.58,-124.38L-264.26,-122.05ZM-215.26,-16.31L-217.43,-7.48L-210.76,3.53L-259.29,10.36L-272.47,25.86L-270.14,54.54L-239.13,80.90L-221.46,85.24L-183.94,85.08L-159.75,62.91L-155.41,45.23L-190.92,-0.97L-188.75,-9.80L-162.24,-3.29L-111.54,-18.96L-96.19,-43.30L-98.52,-71.98L-72.00,-65.47L-69.83,-74.31L-105.18,-82.99L-138.36,-100.51L-189.06,-84.84L-204.41,-60.50L-195.41,-20.81ZM-142.70,-82.83L-125.03,-78.49L-122.70,-49.81L-124.87,-40.97L-157.90,-20.97L-175.57,-25.31L-177.90,-53.99L-175.73,-62.83ZM-204.10,14.54L-184.09,47.56L-188.43,65.24L-219.29,76.40L-241.46,52.22L-245.96,32.37L-232.78,16.87ZM-89.52,-32.29L-82.86,-21.28L-27.82,-54.62L-18.98,-52.45L-95.88,31.74L-89.21,42.75L-71.53,47.09L-18.82,-14.93L14.20,-34.93L34.04,-39.43L40.71,-28.42L-23.01,40.27L-25.18,49.10L-18.51,60.11L-0.83,64.45L19.01,59.95L74.05,26.62L67.38,15.61L12.34,48.95L3.51,46.78L65.05,-13.07L71.56,-39.59L47.22,-54.93L18.54,-52.61L-14.48,-32.60L-1.31,-48.11L0.86,-56.95L-5.80,-67.95L-34.48,-65.63ZM204.28,30.48L208.62,12.81L204.13,-7.04L170.95,-24.55L120.25,-8.89L80.72,37.62L80.87,75.14L96.38,88.32L114.05,92.66L133.90,88.16L177.93,61.49L171.26,50.49L127.23,77.16L109.56,72.82L107.23,44.13L133.58,13.12L166.61,-6.88L184.28,-2.54L177.77,23.97L157.93,28.47L131.41,21.96L129.24,30.80L173.43,41.65ZM202.11,39.32L208.78,50.33L263.82,16.99L272.66,19.16L195.76,103.35L202.43,114.36L220.10,118.70L272.81,56.68L303.67,45.52L330.18,52.03L345.53,27.69L330.02,14.51L310.18,19.01L274.98,47.85L266.15,45.68L290.33,23.50L292.50,14.67L285.83,3.66L257.15,5.99ZM319.49,133.74L326.00,107.22L319.33,96.22L299.48,100.71L292.97,127.23L308.48,140.40L326.15,144.74L354.84,142.42L376.85,129.08L381.19,111.41L383.20,65.05L387.54,47.37L407.39,42.88L400.88,69.39L407.55,80.40L427.39,75.90L433.90,49.39L409.56,34.04L372.04,34.20L358.86,49.70L354.52,67.38L354.68,104.90L350.34,122.57L328.32,135.91ZM519.79,4.88L508.78,11.55L445.22,117.76L454.06,119.93L544.13,20.23L537.47,9.22ZM432.20,170.78L441.04,172.95L454.22,157.45L456.39,148.61L440.88,135.43L432.05,133.26L418.87,148.77L416.70,157.61ZM548.79,77.60L557.63,79.77L564.14,53.26L577.31,37.75L597.16,33.25L612.66,46.43L617.16,66.28L612.82,83.95L599.64,99.46L568.79,110.62L540.11,112.95L524.76,137.29L533.60,139.46L546.78,123.95L575.46,121.63L615.15,112.63L639.33,90.46L643.67,72.79L632.51,41.93L608.17,26.59L590.49,22.25L561.81,24.57L537.62,46.74L535.45,55.58ZM511.74,190.31L520.58,192.48L533.75,176.98L535.92,168.14L520.42,154.96L511.58,152.79L498.40,168.30L496.23,177.14Z" fill="#ffffff" stroke="#000000"/>
    <path d="M-481.05,-355.83L-473.91,-381.87L-442.27,-429.19L-389.36,-452.01L-372.00,-447.25L-359.40,-425.14L-366.53,-399.10L-349.17,-394.34L-327.06,-406.94L-330.98,-426.68L-369.62,-455.93L-395.66,-463.07L-435.14,-455.23L-468.31,-436.33L-492.81,-415.05L-513.39,-374.03L-507.92,-325.87L-477.96,-298.99L-443.24,-289.48L-412.44,-299.70L-379.27,-318.60L-385.57,-329.66L-418.75,-310.76L-449.54,-300.53L-466.90,-305.29L-481.88,-318.73ZM-351.69,-283.04L-228.36,-426.55L-289.12,-443.20L-291.50,-434.52L-265.46,-427.38L-377.73,-290.18L-380.10,-281.50L-365.12,-268.06L-336.71,-269.60L-281.41,-301.11L-287.71,-312.17L-343.01,-280.66ZM-162.14,-361.73L-153.46,-359.35L-140.02,-374.33L-137.64,-383.01L-152.62,-396.45L-161.30,-398.83L-174.74,-383.85L-177.12,-375.17ZM-276.65,-318.47L-270.35,-307.41L-215.06,-338.91L-206.38,-336.53L-282.25,-264.01L-284.63,-255.33L-278.33,-244.27L-260.97,-239.51L-241.23,-243.43L-185.93,-274.93L-192.23,-285.99L-247.53,-254.49L-256.21,-256.87L-180.34,-329.39L-177.96,-338.07L-192.94,-351.51L-221.36,-349.97ZM-39.92,-262.91L-17.80,-275.51L1.94,-279.43L8.24,-268.37L-56.57,-202.15L-58.95,-193.47L-52.65,-182.41L-35.29,-177.65L-15.55,-181.57L39.74,-213.07L33.44,-224.13L-21.85,-192.63L-30.53,-195.01L31.90,-252.55L39.04,-278.59L15.38,-294.41L-13.04,-292.87L-35.16,-280.27L-30.40,-297.63L-45.38,-311.06L-73.80,-309.52L-106.98,-290.62L-93.54,-305.60L-91.16,-314.28L-97.46,-325.34L-125.88,-323.80L-181.17,-292.29L-174.87,-281.24L-119.58,-312.74L-110.90,-310.36L-189.15,-229.16L-182.85,-218.10L-165.49,-213.34L-111.74,-273.26L-78.56,-292.16L-58.82,-296.08L-52.52,-285.02L-119.71,-210.12L-113.41,-199.06L-96.05,-194.30ZM195.27,-235.76L188.97,-246.82L164.48,-225.54L160.56,-245.28L128.22,-263.48L75.30,-240.66L46.04,-202.01L45.21,-164.92L60.19,-151.48L77.55,-146.72L110.72,-165.62L105.96,-148.26L112.27,-137.20L140.68,-138.74L195.98,-170.25L189.68,-181.31L134.38,-149.80L125.70,-152.18ZM82.30,-164.08L73.62,-166.46L72.08,-194.88L98.96,-224.84L132.14,-243.74L149.50,-238.98L153.42,-219.24L151.04,-210.56L115.48,-182.98ZM212.50,-128.39L279.69,-203.29L305.73,-196.15L308.11,-204.83L282.07,-211.97L308.95,-241.93L291.59,-246.69L275.77,-223.03L256.03,-219.11L238.67,-223.87L236.29,-215.19L253.65,-210.43L186.46,-135.53L184.08,-126.85L190.38,-115.79L207.74,-111.03L227.48,-114.95L282.78,-146.45L276.48,-157.51L221.18,-126.01ZM420.11,-136.81L424.87,-154.16L420.95,-173.90L388.61,-192.10L338.07,-177.96L297.76,-133.02L296.92,-95.92L311.90,-82.48L329.26,-77.72L349.00,-81.64L393.24,-106.84L386.94,-117.90L342.70,-92.70L325.34,-97.46L323.80,-125.88L350.67,-155.84L383.85,-174.74L401.21,-169.98L394.07,-143.94L374.33,-140.02L348.29,-147.16L345.92,-138.48L389.31,-126.58ZM-655.25,-299.06L-642.65,-276.95L-724.12,-149.96L-754.91,-139.74L-650.76,-111.19L-611.28,-119.03L-578.10,-137.94L-553.60,-159.22L-533.03,-200.24L-538.49,-248.39L-577.13,-277.65ZM-572.51,-192.39L-604.14,-145.07L-637.32,-126.17L-657.06,-122.25L-691.78,-131.77L-698.08,-142.83L-616.61,-269.81L-605.55,-276.11L-579.51,-268.97L-564.53,-255.53L-565.37,-218.43ZM-421.03,-132.21L-416.27,-149.57L-420.19,-169.31L-452.53,-187.50L-503.07,-173.36L-543.38,-128.42L-544.22,-91.32L-529.24,-77.88L-511.88,-73.12L-492.14,-77.04L-447.90,-102.25L-454.21,-113.31L-498.44,-88.10L-515.80,-92.86L-517.34,-121.28L-490.47,-151.24L-457.29,-170.14L-439.93,-165.38L-447.07,-139.35L-466.81,-135.42L-492.85,-142.56L-495.23,-133.88L-451.83,-121.99ZM-422.70,-58.01L-415.56,-84.05L-421.87,-95.11L-441.60,-91.19L-448.74,-65.15L-433.76,-51.71L-416.40,-46.95L-387.98,-48.49L-365.87,-61.09L-361.11,-78.45L-357.89,-124.23L-353.13,-141.59L-333.39,-145.51L-340.53,-119.47L-334.23,-108.41L-314.49,-112.34L-307.35,-138.38L-331.01,-154.19L-368.11,-155.03L-381.55,-140.05L-386.31,-122.69L-387.15,-85.59L-391.90,-68.23L-414.02,-55.63ZM-204.74,-138.24L-196.06,-135.86L-182.62,-150.84L-180.24,-159.52L-195.22,-172.96L-203.90,-175.34L-217.34,-160.36L-219.72,-151.68ZM-319.25,-94.98L-312.95,-83.92L-257.65,-115.42L-248.97,-113.04L-324.85,-40.52L-327.22,-31.84L-320.92,-20.78L-303.56,-16.02L-283.83,-19.94L-228.53,-51.45L-234.83,-62.50L-290.13,-31.00L-298.81,-33.38L-222.93,-105.90L-220.56,-114.58L-235.54,-128.02L-263.95,-126.48ZM-218.31,-20.65L-220.69,-11.97L-214.39,-0.91L-262.54,4.56L-275.98,19.54L-274.44,47.95L-244.48,74.83L-227.12,79.59L-190.02,80.43L-165.52,59.15L-160.77,41.79L-194.65,-4.83L-192.27,-13.51L-166.23,-6.37L-115.69,-20.51L-99.88,-44.17L-101.42,-72.59L-75.38,-65.46L-73.00,-74.14L-107.72,-83.65L-140.06,-101.85L-190.59,-87.71L-206.41,-64.05L-198.57,-24.57ZM-144.82,-84.49L-127.46,-79.73L-125.91,-51.31L-128.29,-42.63L-161.47,-23.73L-178.83,-28.49L-180.37,-56.91L-177.99,-65.59ZM-208.09,10.15L-189.18,43.33L-193.94,60.69L-224.74,70.91L-246.02,46.41L-249.94,26.67L-236.51,11.69ZM-93.57,-33.12L-87.27,-22.06L-31.98,-53.56L-23.30,-51.18L-101.55,30.02L-95.25,41.08L-77.89,45.84L-24.14,-14.08L9.04,-32.98L28.78,-36.90L35.08,-25.85L-29.73,40.38L-32.11,49.06L-25.81,60.12L-8.45,64.87L11.29,60.95L66.58,29.45L60.28,18.39L4.99,49.89L-3.69,47.51L58.74,-10.03L65.88,-36.07L42.22,-51.88L13.80,-50.34L-19.38,-31.44L-5.94,-46.42L-3.56,-55.10L-9.86,-66.16L-38.28,-64.62ZM195.24,36.72L200.00,19.36L196.08,-0.38L163.74,-18.58L113.20,-4.43L72.88,40.51L72.05,77.61L87.03,91.05L104.39,95.80L124.13,91.88L168.36,66.68L162.06,55.62L117.82,80.82L100.47,76.07L98.92,47.65L125.80,17.69L158.98,-1.22L176.34,3.54L169.20,29.58L149.46,33.50L123.42,26.37L121.04,35.05L164.44,46.94ZM192.86,45.40L199.16,56.46L254.46,24.96L263.13,27.34L184.88,108.54L191.18,119.60L208.54,124.36L262.30,64.43L293.10,54.21L319.14,61.35L334.95,37.69L319.97,24.25L300.23,28.17L264.68,55.75L256.00,53.38L280.49,32.09L282.87,23.41L276.57,12.36L248.15,13.90ZM306.40,141.85L313.54,115.81L307.24,104.75L287.50,108.67L280.36,134.71L295.34,148.15L312.70,152.91L341.12,151.36L363.24,138.76L368.00,121.40L371.21,75.63L375.97,58.27L395.71,54.34L388.57,80.38L394.87,91.44L414.61,87.52L421.75,61.48L398.09,45.66L360.99,44.83L347.55,59.81L342.80,77.17L341.96,114.27L337.20,131.63L315.08,144.23ZM507.84,19.76L496.79,26.06L431.14,129.38L439.82,131.76L531.50,35.58L525.20,24.52ZM416.86,181.46L425.54,183.84L438.98,168.86L441.36,160.18L426.38,146.74L417.70,144.36L404.26,159.34L401.88,168.02ZM534.59,92.41L543.27,94.79L550.41,68.75L563.84,53.77L583.58,49.85L598.56,63.29L602.48,83.03L597.73,100.39L584.29,115.37L553.49,125.59L525.07,127.13L509.25,150.79L517.93,153.17L531.37,138.19L559.79,136.65L599.27,128.81L623.77,107.53L628.52,90.17L618.30,59.37L594.64,43.55L577.28,38.79L548.86,40.33L524.37,61.62L521.99,70.29ZM494.98,202.87L503.66,205.25L517.10,190.27L519.48,181.59L504.50,168.15L495.82,165.77L482.38,180.75L480.00,189.43Z" fill="#ffffff" stroke="#000000"/>
    <path d="M-903.88,492L-906.92,488.96L-902.36,482.88L-893.24,482.88L-891.72,484.40L-891.72,488.96L-894.76,492L-884.12,492L-887.16,488.96L-887.16,460.08L-891.72,463.12L-891.72,464.64L-909.96,488.96L-914.52,492ZM-891.72,467.68L-891.72,479.84L-893.24,481.36L-900.84,481.36L-899.32,478.32ZM-862.84,476.80L-864.36,481.36L-870.44,487.44L-875,488.96L-876.52,488.96L-867.40,475.28L-867.40,472.24L-870.44,470.72L-875,472.24L-882.60,479.84L-881.08,481.36L-873.48,473.76L-871.96,473.76L-881.08,488.96L-881.08,490.48L-879.56,492L-876.52,492L-868.92,488.96L-862.84,482.88L-859.80,476.80L-859.80,473.76L-861.32,472.24L-864.36,472.24L-865.88,475.28L-864.36,476.80ZM-835.48,472.24L-837,470.72L-840.04,475.28L-841.56,472.24L-847.64,470.72L-855.24,476.80L-858.28,484.40L-856.76,490.48L-853.72,492L-850.68,492L-846.12,487.44L-846.12,490.48L-844.60,492L-840.04,490.48L-832.44,482.88L-833.96,481.36L-841.56,488.96L-843.08,488.96ZM-850.68,488.96L-852.20,488.96L-853.72,484.40L-850.68,478.32L-846.12,473.76L-843.08,473.76L-841.56,476.80L-841.56,478.32L-846.12,484.40ZM-832.44,479.84L-830.92,481.36L-823.32,473.76L-821.80,473.76L-830.92,490.48L-829.40,492L-826.36,492L-820.28,479.84L-815.72,476.80L-811.16,476.80L-809.64,472.24L-812.68,470.72L-815.72,472.24L-820.28,478.32L-821.80,478.32L-818.76,473.76L-818.76,472.24L-820.28,470.72L-824.84,472.24ZM-788.36,472.24L-789.88,470.72L-792.92,475.28L-794.44,472.24L-800.52,470.72L-808.12,476.80L-811.16,484.40L-809.64,490.48L-806.60,492L-803.56,492L-799,487.44L-799,490.48L-797.48,492L-792.92,490.48L-785.32,482.88L-786.84,481.36L-794.44,488.96L-795.96,488.96ZM-803.56,488.96L-805.08,488.96L-806.60,484.40L-803.56,478.32L-799,473.76L-795.96,473.76L-794.44,476.80L-794.44,478.32L-799,484.40ZM-783.80,479.84L-783.80,482.88L-774.68,482.88L-774.68,479.84ZM-765.56,461.60L-762.52,464.64L-770.12,488.96L-773.16,492L-757.96,492L-750.36,488.96L-745.80,482.88L-747.32,476.80L-751.88,475.28L-748.84,473.76L-744.28,469.20L-745.80,463.12L-753.40,461.60ZM-765.56,488.96L-757.96,464.64L-756.44,463.12L-753.40,463.12L-750.36,464.64L-750.36,469.20L-753.40,473.76L-757.96,475.28L-761,475.28L-761,476.80L-756.44,476.80L-753.40,478.32L-751.88,482.88L-754.92,487.44L-761,490.48L-764.04,490.48ZM-736.68,492L-733.64,492L-726.04,487.44L-721.48,478.32L-724.52,472.24L-730.60,470.72L-738.20,475.28L-742.76,484.40L-739.72,490.48ZM-730.60,473.76L-727.56,473.76L-726.04,478.32L-729.08,484.40L-733.64,488.96L-736.68,488.96L-738.20,484.40L-735.16,478.32ZM-715.40,488.96L-701.72,460.08L-712.36,460.08L-712.36,461.60L-707.80,461.60L-719.96,488.96L-719.96,490.48L-716.92,492L-712.36,490.48L-704.76,482.88L-706.28,481.36L-713.88,488.96ZM-689.56,492L-688.04,492L-685,490.48L-677.40,482.88L-678.92,481.36L-686.52,488.96L-688.04,488.96L-674.36,460.08L-685,460.08L-685,461.60L-680.44,461.60L-685,475.28L-686.52,472.24L-692.60,470.72L-700.20,476.80L-703.24,484.40L-701.72,490.48L-698.68,492L-695.64,492L-691.08,487.44L-691.08,490.48ZM-695.64,488.96L-697.16,488.96L-698.68,484.40L-695.64,478.32L-691.08,473.76L-688.04,473.76L-686.52,476.80L-686.52,478.32L-691.08,484.40ZM-669.80,488.96L-662.20,464.64L-657.64,461.60L-669.80,461.60L-666.76,464.64L-674.36,488.96L-678.92,492L-666.76,492ZM-657.64,488.96L-650.04,473.76L-645.48,473.76L-645.48,472.24L-650.04,472.24L-647,466.16L-650.04,466.16L-651.56,470.72L-654.60,472.24L-657.64,472.24L-657.64,473.76L-654.60,473.76L-662.20,488.96L-662.20,490.48L-660.68,492L-657.64,492L-654.60,490.48L-647,482.88L-648.52,481.36L-656.12,488.96ZM-621.16,472.24L-622.68,470.72L-625.72,475.28L-627.24,472.24L-633.32,470.72L-640.92,476.80L-643.96,484.40L-642.44,490.48L-639.40,492L-636.36,492L-631.80,487.44L-631.80,490.48L-630.28,492L-625.72,490.48L-618.12,482.88L-619.64,481.36L-627.24,488.96L-628.76,488.96ZM-636.36,488.96L-637.88,488.96L-639.40,484.40L-636.36,478.32L-631.80,473.76L-628.76,473.76L-627.24,476.80L-627.24,478.32L-631.80,484.40ZM-613.56,488.96L-599.88,460.08L-610.52,460.08L-610.52,461.60L-605.96,461.60L-618.12,488.96L-618.12,490.48L-615.08,492L-610.52,490.48L-602.92,482.88L-604.44,481.36L-612.04,488.96ZM-586.20,467.68L-584.68,467.68L-583.16,464.64L-583.16,463.12L-586.20,461.60L-587.72,461.60L-589.24,464.64L-589.24,466.16ZM-602.92,479.84L-601.40,481.36L-593.80,473.76L-592.28,473.76L-601.40,488.96L-601.40,490.48L-599.88,492L-596.84,492L-593.80,490.48L-586.20,482.88L-587.72,481.36L-595.32,488.96L-596.84,488.96L-587.72,473.76L-587.72,472.24L-590.76,470.72L-595.32,472.24ZM-564.92,478.32L-564.92,475.28L-566.44,472.24L-572.52,470.72L-580.12,475.28L-584.68,484.40L-583.16,490.48L-580.12,492L-577.08,492L-574.04,490.48L-567.96,484.40L-569.48,482.88L-575.56,488.96L-578.60,488.96L-580.12,484.40L-577.08,478.32L-572.52,473.76L-569.48,473.76L-569.48,478.32Z"/>
</svg>