<?xml version="1.0"?>
<svg xmlns="http://www.w3.org/2000/svg" width="1920" height="1080" viewBox="-960 -540 1920 1080">
    <path d="M-998.50,-381.25L-984.25,-355.25L-984.25,-236.50L-998.50,-210L-946,-210C-912.25,-210 -866.25,-219.75 -866.25,-255.75C-866.25,-281.25 -884.75,-296 -914.50,-303C-896.75,-310 -876.75,-321 -876.75,-343.50C-876.75,-373.25 -908,-381.25 -944,-381.25ZM-953.25,-373.25L-945,-373.25C-928.75,-373.25 -907.50,-368.50 -907.50,-338.50C-907.50,-319 -922.75,-304.50 -953.25,-304.50ZM-953.25,-219.75L-953.25,-298.25C-922.75,-298.25 -901.25,-289.50 -901.25,-256.50C-901.25,-232.50 -921.50,-219.75 -945.75,-219.75ZM-814.25,-210C-799.50,-233.75 -782.25,-267.50 -773.50,-303.25L-776.50,-274.25L-776.50,-210L-728.75,-210L-747.25,-231.50L-747.25,-319L-737.75,-332.50L-766.25,-332.50C-818.50,-331.50 -847,-297.25 -847,-250.75C-847,-230.50 -840.25,-212.50 -832.75,-207.25ZM-810.25,-229.25C-813.25,-229.25 -816,-239.75 -816,-264.25C-816,-289.50 -809.50,-325 -776,-325.25C-776.25,-298.75 -805.50,-229.25 -810.25,-229.25ZM-646,-210L-600.25,-210L-617.25,-229.25L-617.25,-332.50L-649.75,-332.50L-646,-317.25C-646,-295.75 -664.75,-252.50 -677.25,-228.25C-678.25,-238.25 -679,-254.25 -679,-296.50L-679,-337.50L-726.25,-332.50L-707.75,-311L-707.75,-250.75C-707.75,-232.50 -704.50,-216 -703,-208L-680.50,-210C-675.25,-217.25 -655.75,-253.50 -646,-290.50ZM-584,-210L-464.75,-210L-462,-264.25L-463.25,-264.75L-497.50,-219L-538.75,-219L-538.75,-291.75L-473.75,-291.75L-473.75,-303L-538.75,-303L-538.75,-372.25L-499.75,-372.25L-470.50,-328.75L-469.25,-328.75L-469.25,-381.25L-584,-381.25L-569.75,-355.25L-569.75,-236.50ZM-344.50,-293.75L-343.75,-294.75L-364.75,-336L-368,-336C-382.75,-315 -395,-283.50 -402.25,-255.50L-402.25,-335L-448,-318.25L-431,-299L-431,-210L-400.25,-210L-402.25,-225.25C-402.25,-250.50 -381,-301.25 -377.50,-302.75ZM-219.75,-210L-238.25,-227.50L-238.25,-387.50L-284,-373.25L-267,-354L-267,-332C-313.75,-327 -339.50,-293.25 -339.50,-250.75C-339.50,-230.50 -331.25,-212.50 -323.75,-207.25L-305.25,-210C-290.50,-233.75 -273.25,-267.50 -264.50,-303.25L-267.50,-274.25L-267.50,-207.75ZM-301.25,-229.25C-304.25,-229.25 -308.50,-239.75 -308.50,-264.25C-308.50,-289.50 -300.50,-325 -267,-325.25C-267.25,-298.75 -296.50,-229.25 -301.25,-229.25ZM-124.50,-266.75C-124.50,-266.75 -141.75,-224.75 -159.75,-224.75C-168.75,-224.75 -175.50,-239 -177.75,-259.75L-122.75,-307C-122.75,-312 -130.25,-335.75 -154,-335.75C-184.75,-335.75 -210.25,-293 -210.25,-257C-210.25,-223.75 -195.50,-207 -173.25,-207C-149,-207 -127,-242.75 -120.50,-264.25ZM-178.25,-265.75C-178.50,-269.25 -178.75,-273 -178.75,-277C-178.75,-317 -171,-325.25 -166.50,-328C-163.25,-330.25 -150.75,-318.25 -149.50,-293ZM-65,-335L-110.75,-318.25L-93.75,-299L-93.75,-210L-61.25,-210L-65,-225.25C-65,-246.25 -47.25,-287.75 -34.75,-312.50L-32.75,-312.25C-30,-302.50 -27.75,-285 -27.75,-246L-27.75,-210L19.50,-210L1,-231.50L1,-260.50C1,-311.50 0.50,-318.75 -6,-338.75L-30.50,-332.50C-35.75,-325.25 -55.25,-289 -65,-252ZM83,-287.25L83,-270.75L287,-270.75L287,-287.25ZM360.75,-381.25L375,-355.25L375,-236.50L360.75,-210L413.25,-210C447,-210 493,-219.75 493,-255.75C493,-281.25 474.50,-296 444.75,-303C462.50,-310 482.50,-321 482.50,-343.50C482.50,-373.25 451.25,-381.25 415.25,-381.25ZM406,-373.25L414.25,-373.25C430.50,-373.25 451.75,-368.50 451.75,-338.50C451.75,-319 436.50,-304.50 406,-304.50ZM406,-219.75L406,-298.25C436.50,-298.25 458,-289.50 458,-256.50C458,-232.50 437.75,-219.75 413.50,-219.75ZM586.50,-210L632.25,-210L615.25,-229.25L615.25,-332.50L582.75,-332.50L586.50,-317.25C586.50,-295.75 567.75,-252.50 555.25,-228.25C554.25,-238.25 553.50,-254.25 553.50,-296.50L553.50,-337.50L506.25,-332.50L524.75,-311L524.75,-250.75C524.75,-232.50 528,-216 529.50,-208L552,-210C557.25,-217.25 576.75,-253.50 586.50,-290.50ZM689.25,-369.75L668.50,-392.75L647.50,-369.75L668.50,-346.50ZM684.25,-231.50L684.25,-335L638.50,-318.25L655.50,-299L655.50,-210L702.75,-210ZM724,-354L724,-346.50L707,-339.25L724,-320L724,-210L771.25,-210L752.75,-231.50L752.75,-387.50L707,-373.25ZM899.50,-210L881,-227.50L881,-387.50L835.25,-373.25L852.25,-354L852.25,-332C805.50,-327 779.75,-293.25 779.75,-250.75C779.75,-230.50 788,-212.50 795.50,-207.25L814,-210C828.75,-233.75 846,-267.50 854.75,-303.25L851.75,-274.25L851.75,-207.75ZM818,-229.25C815,-229.25 810.75,-239.75 810.75,-264.25C810.75,-289.50 818.75,-325 852.25,-325.25C852,-298.75 822.75,-229.25 818,-229.25ZM-317.63,72L-198.38,72L-195.63,17.75L-196.88,17.25L-231.13,63L-272.38,63L-272.38,-9.75L-207.38,-9.75L-207.38,-21L-272.38,-21L-272.38,-90.25L-233.38,-90.25L-204.13,-46.75L-202.88,-46.75L-202.88,-99.25L-317.63,-99.25L-303.38,-73.25L-303.38,45.50ZM-142.63,72C-127.88,48.25 -110.63,14.50 -101.88,-21.25L-104.88,7.75L-104.88,72L-57.13,72L-75.63,50.50L-75.63,-37L-66.13,-50.50L-94.63,-50.50C-146.88,-49.50 -175.38,-15.25 -175.38,31.25C-175.38,51.50 -168.63,69.50 -161.13,74.75ZM-138.63,52.75C-141.63,52.75 -144.38,42.25 -144.38,17.75C-144.38,-7.50 -137.88,-43 -104.38,-43.25C-104.63,-16.75 -133.88,52.75 -138.63,52.75ZM48.63,-11.75L49.38,-12.75L28.38,-54L25.13,-54C10.38,-33 -1.88,-1.50 -9.13,26.50L-9.13,-53L-54.88,-36.25L-37.88,-17L-37.88,72L-7.13,72L-9.13,56.75C-9.13,31.50 12.13,-19.25 15.63,-20.75ZM132.38,-47.75L132.38,-50.50L92.63,-50.50L92.63,-93L64.38,-50.50L46.63,-50.50L63.63,-35.75L63.63,35.25C64.13,73.25 82.88,75 91.88,75C107.38,75 124.63,50.75 131.63,23L128.88,22C123.63,37.50 112.38,56.50 104.38,56.50C97.63,56.50 92.63,55 92.63,27.50L92.63,-35ZM184.13,-105.50L138.38,-91.25L155.38,-72L155.38,72L187.88,72L184.13,56.75C184.13,35.75 201.88,-5.75 214.38,-30.50L216.38,-30.25C219.13,-20.50 221.38,-3 221.38,36L221.38,72L268.63,72L250.13,50.50L250.13,21.50C250.13,-29.50 249.63,-36.75 243.13,-56.75L218.63,-50.50C213.38,-43.25 193.88,-7 184.13,30Z" fill="#ffffff" stroke="#000000"/>
    <path d="M-1007.05,-339.15L-992.04,-313.92L-987.89,-196.43L-1001.07,-169.72L-949.12,-171.55C-915.73,-172.73 -870.56,-183.98 -871.82,-219.60C-872.71,-244.83 -891.53,-258.78 -921.21,-264.66C-903.89,-272.21 -884.49,-283.79 -885.27,-306.05C-886.31,-335.49 -917.51,-342.31 -953.13,-341.05ZM-962.00,-332.81L-953.84,-333.10C-937.76,-333.67 -916.57,-329.71 -915.52,-300.03C-914.84,-280.74 -929.42,-265.86 -959.60,-264.79ZM-956.64,-180.94L-959.38,-258.61C-929.20,-259.67 -907.63,-251.77 -906.47,-219.12C-905.63,-195.37 -925.22,-182.05 -949.22,-181.20ZM-818.77,-176.15C-805.01,-200.16 -789.12,-234.16 -781.71,-269.83L-783.67,-241.04L-781.42,-177.47L-734.18,-179.14L-753.23,-199.76L-756.29,-286.33L-747.36,-300.02L-775.56,-299.03C-827.22,-296.21 -854.22,-261.33 -852.60,-215.32C-851.89,-195.29 -844.58,-177.72 -836.98,-172.78ZM-815.49,-195.34C-818.46,-195.23 -821.54,-205.52 -822.40,-229.76C-823.28,-254.75 -818.09,-290.10 -784.95,-291.51C-784.28,-265.29 -810.79,-195.50 -815.49,-195.34ZM-652.31,-182.03L-607.04,-183.63L-624.54,-202.08L-628.14,-304.23L-660.30,-303.10L-656.05,-288.14C-655.30,-266.87 -672.34,-223.42 -683.86,-198.99C-685.20,-208.85 -686.50,-224.66 -687.98,-266.46L-689.41,-307.02L-735.99,-300.42L-716.93,-279.80L-714.83,-220.19C-714.19,-202.13 -710.40,-185.92 -708.63,-178.06L-686.44,-180.82C-681.50,-188.18 -663.47,-224.73 -655.12,-261.67ZM-590.97,-184.19L-472.98,-188.36L-472.16,-242.13L-473.41,-242.58L-505.70,-196.12L-546.51,-194.68L-549.05,-266.66L-484.74,-268.93L-485.14,-280.06L-549.45,-277.79L-551.86,-346.30L-513.28,-347.66L-482.82,-305.65L-481.58,-305.69L-483.42,-357.63L-596.95,-353.63L-581.94,-328.40L-577.79,-210.91ZM-356.93,-275.42L-356.23,-276.44L-378.45,-316.51L-381.66,-316.40C-395.52,-295.11 -406.54,-263.52 -412.74,-235.56L-415.51,-314.22L-460.19,-296.05L-442.70,-277.59L-439.59,-189.54L-409.17,-190.61L-411.68,-205.63C-412.56,-230.61 -393.31,-281.57 -389.90,-283.17ZM-230.58,-196.92L-249.50,-213.59L-255.09,-371.89L-299.85,-356.19L-282.36,-337.74L-281.59,-315.97C-327.67,-309.39 -351.97,-275.10 -350.49,-233.05C-349.78,-213.02 -340.99,-195.50 -333.38,-190.56L-315.18,-193.93C-301.41,-217.94 -285.52,-251.94 -278.12,-287.61L-280.07,-258.82L-277.75,-193.02ZM-311.89,-213.12C-314.86,-213.01 -319.43,-223.25 -320.29,-247.49C-321.17,-272.47 -314.49,-307.88 -281.36,-309.29C-280.68,-283.07 -307.19,-213.28 -311.89,-213.12ZM-138.33,-256.39C-138.33,-256.39 -153.93,-214.23 -171.74,-213.61C-180.64,-213.29 -187.82,-227.15 -190.77,-247.61L-138.00,-296.28C-138.18,-301.22 -146.43,-324.46 -169.92,-323.63C-200.35,-322.55 -224.08,-279.37 -222.83,-243.75C-221.66,-210.85 -206.49,-194.80 -184.47,-195.57C-160.48,-196.42 -139.96,-232.56 -134.28,-254.06ZM-191.47,-253.52C-191.84,-256.98 -192.22,-260.68 -192.36,-264.64C-193.76,-304.21 -186.38,-312.65 -182.02,-315.52C-178.88,-317.86 -166.10,-306.43 -163.98,-281.49ZM-81.84,-326.00L-126.52,-307.83L-109.03,-289.37L-105.92,-201.32L-73.77,-202.45L-78.01,-217.41C-78.74,-238.19 -62.63,-279.87 -51.13,-304.79L-49.14,-304.61C-46.08,-295.06 -43.24,-277.83 -41.88,-239.24L-40.62,-203.62L6.13,-205.27L-12.93,-225.90L-13.94,-254.59C-15.72,-305.05 -16.47,-312.21 -23.60,-331.77L-47.62,-324.73C-52.56,-317.37 -70.59,-280.82 -78.94,-243.88ZM66.25,-283.92L66.83,-267.60L268.66,-274.72L268.09,-291.05ZM337.77,-386.63L352.78,-361.40L356.93,-243.91L343.75,-217.19L395.70,-219.03C429.09,-220.21 474.26,-231.46 473.00,-267.08C472.11,-292.31 453.29,-306.25 423.61,-312.14C440.93,-319.69 460.33,-331.27 459.55,-353.53C458.51,-382.96 427.31,-389.79 391.69,-388.53ZM382.82,-380.29L390.98,-380.58C407.06,-381.15 428.25,-377.19 429.30,-347.51C429.98,-328.22 415.40,-313.34 385.22,-312.27ZM388.18,-228.42L385.44,-306.09C415.62,-307.15 437.19,-299.25 438.35,-266.60C439.19,-242.85 419.60,-229.53 395.60,-228.68ZM567.11,-225.08L612.37,-226.68L594.88,-245.13L591.27,-347.28L559.12,-346.15L563.36,-331.19C564.11,-309.92 547.07,-266.47 535.55,-242.04C534.21,-251.90 532.91,-267.71 531.44,-309.51L530.00,-350.07L483.43,-343.48L502.48,-322.85L504.59,-263.24C505.23,-245.18 509.02,-228.97 510.78,-221.11L532.97,-223.87C537.91,-231.23 555.94,-267.78 564.29,-304.72ZM663.19,-386.72L641.85,-408.75L621.88,-385.26L643.47,-362.99ZM663.07,-249.77L659.45,-352.17L614.77,-334.00L632.27,-315.54L635.37,-227.49L682.12,-229.14ZM698.12,-372.35L698.38,-364.93L681.81,-357.17L699.30,-338.71L703.15,-229.88L749.90,-231.53L730.84,-252.16L725.39,-406.50L680.63,-390.80ZM876.78,-236.01L857.87,-252.68L852.28,-410.98L807.51,-395.28L825.01,-376.83L825.77,-355.07C779.70,-348.49 755.40,-314.20 756.88,-272.15C757.59,-252.11 766.38,-234.59 773.98,-229.66L792.19,-233.03C805.96,-257.04 821.84,-291.03 829.25,-326.71L827.30,-297.91L829.62,-232.12ZM795.48,-252.21C792.51,-252.11 787.94,-262.35 787.08,-286.59C786.20,-311.57 792.87,-346.97 826.01,-348.39C826.69,-322.16 800.18,-252.38 795.48,-252.21ZM-317.57,85.51L-199.59,81.34L-198.76,27.57L-200.01,27.12L-232.30,73.58L-273.11,75.02L-275.66,3.05L-211.35,0.77L-211.74,-10.36L-276.05,-8.09L-278.47,-76.60L-239.88,-77.96L-209.42,-35.95L-208.19,-35.99L-210.02,-87.93L-323.55,-83.92L-308.54,-58.70L-304.40,58.79ZM-144.43,79.40C-130.66,55.38 -114.78,21.39 -107.37,-14.29L-109.32,14.51L-107.08,78.08L-59.84,76.41L-78.89,55.78L-81.95,-30.79L-73.02,-44.48L-101.22,-43.48C-152.88,-40.67 -179.88,-5.78 -178.25,40.22C-177.55,60.26 -170.24,77.83 -162.63,82.76ZM-141.14,60.21C-144.11,60.31 -147.20,50.02 -148.05,25.78C-148.94,0.80 -143.74,-34.55 -110.61,-35.97C-109.93,-9.74 -136.44,60.04 -141.14,60.21ZM41.87,-10.15L42.57,-11.16L20.36,-51.24L17.14,-51.13C3.28,-29.83 -7.74,1.76 -13.93,29.72L-16.71,-48.94L-61.39,-30.77L-43.90,-12.32L-40.79,75.74L-10.37,74.66L-12.88,59.64C-13.76,34.66 5.49,-16.29 8.90,-17.90ZM123.47,-48.69L123.37,-51.41L84.05,-50.02L82.56,-92.07L56.10,-49.03L38.53,-48.41L55.87,-34.42L58.35,35.83C60.17,73.41 78.78,74.49 87.69,74.17C103.02,73.63 119.24,49.04 125.20,21.34L122.44,20.44C117.79,35.96 107.32,55.15 99.41,55.43C92.73,55.67 87.73,54.36 86.77,27.15L84.59,-34.69ZM172.65,-107.63L127.89,-91.94L145.38,-73.49L150.41,68.99L182.56,67.85L178.32,52.89C177.59,32.12 193.70,-9.56 205.20,-34.49L207.19,-34.31C210.25,-24.76 213.09,-7.52 214.45,31.06L215.71,66.68L262.46,65.03L243.40,44.40L242.39,15.71C240.61,-34.75 239.86,-41.90 232.73,-61.46L208.71,-54.42C203.77,-47.07 185.74,-10.52 177.39,26.43Z" fill="#ffffff" stroke="#000000"/>
    <path d="M-1013.76,-296.99L-998.03,-272.56L-989.82,-156.48L-1001.92,-129.59L-950.60,-133.21C-917.61,-135.55 -873.31,-148.26 -875.80,-183.45C-877.56,-208.38 -896.67,-221.52 -926.24,-226.30C-909.37,-234.37 -890.58,-246.51 -892.13,-268.50C-894.19,-297.59 -925.29,-303.25 -960.48,-300.76ZM-968.97,-292.30L-960.91,-292.87C-945.02,-293.99 -923.92,-290.82 -921.85,-261.49C-920.50,-242.43 -934.40,-227.20 -964.22,-225.09ZM-958.36,-142.24L-963.79,-218.98C-933.97,-221.09 -912.35,-214.02 -910.07,-181.76C-908.41,-158.30 -927.32,-144.44 -951.03,-142.76ZM-821.81,-142.32C-809.03,-166.56 -794.50,-200.74 -788.42,-236.29L-789.35,-207.74L-784.90,-144.93L-738.23,-148.23L-757.80,-167.97L-763.84,-253.50L-755.49,-267.36L-783.35,-265.39C-834.36,-260.80 -859.85,-225.35 -856.64,-179.89C-855.24,-160.10 -847.40,-142.97 -839.70,-138.35ZM-819.23,-161.41C-822.16,-161.21 -825.57,-171.28 -827.27,-195.23C-829.01,-219.91 -825.11,-255.07 -792.38,-257.63C-790.79,-231.70 -814.58,-161.74 -819.23,-161.41ZM-657.33,-153.95L-612.61,-157.11L-630.56,-174.75L-637.69,-275.69L-669.46,-273.44L-664.75,-258.79C-663.26,-237.77 -678.60,-194.20 -689.14,-169.63C-690.81,-179.33 -692.65,-194.92 -695.57,-236.23L-698.40,-276.31L-744.25,-268.15L-724.68,-248.41L-720.51,-189.52C-719.25,-171.68 -714.94,-155.77 -712.92,-148.05L-691.06,-151.56C-686.43,-159.01 -669.87,-195.80 -662.90,-232.64ZM-596.72,-158.23L-480.15,-166.47L-481.21,-219.70L-482.47,-220.10L-512.79,-173.01L-553.11,-170.16L-558.14,-241.28L-494.60,-245.77L-495.38,-256.76L-558.92,-252.27L-563.70,-319.97L-525.58,-322.66L-493.98,-282.16L-492.76,-282.25L-496.38,-333.57L-608.56,-325.64L-592.83,-301.21L-584.63,-185.12ZM-368.39,-256.66L-367.72,-257.68L-391.10,-296.56L-394.28,-296.33C-407.25,-274.78 -417.05,-243.14 -422.20,-215.27L-427.69,-292.99L-471.26,-273.45L-453.31,-255.81L-447.16,-168.81L-417.10,-170.93L-420.11,-185.70C-421.85,-210.38 -404.59,-261.46 -401.27,-263.17ZM-240.65,-183.41L-259.94,-199.23L-271.00,-355.64L-314.74,-338.55L-296.79,-320.91L-295.27,-299.40C-340.62,-291.28 -363.46,-256.51 -360.53,-214.97C-359.13,-195.17 -349.82,-178.14 -342.12,-173.53L-324.23,-177.50C-311.45,-201.73 -296.92,-235.92 -290.84,-271.47L-291.77,-242.91L-287.17,-177.91ZM-321.65,-196.59C-324.58,-196.38 -329.46,-206.35 -331.16,-230.30C-332.90,-254.99 -327.53,-290.24 -294.80,-292.80C-293.22,-266.88 -317.01,-196.92 -321.65,-196.59ZM-151.46,-245.47C-151.46,-245.47 -165.42,-203.22 -183.01,-201.97C-191.81,-201.35 -199.40,-214.81 -203.03,-234.94L-152.53,-284.93C-152.87,-289.82 -161.85,-312.52 -185.06,-310.88C-215.12,-308.75 -237.10,-265.20 -234.61,-230.01C-232.31,-197.50 -216.73,-182.15 -194.98,-183.69C-171.28,-185.36 -152.24,-221.83 -147.37,-243.30ZM-203.93,-240.77C-204.42,-244.18 -204.92,-247.83 -205.20,-251.74C-207.96,-290.84 -200.96,-299.44 -196.75,-302.44C-193.73,-304.86 -180.68,-294.00 -177.71,-269.40ZM-98.01,-316.30L-141.58,-296.76L-123.63,-279.12L-117.48,-192.11L-85.70,-194.36L-90.42,-209.01C-91.88,-229.54 -77.39,-271.33 -66.88,-296.39L-64.91,-296.29C-61.55,-286.94 -58.14,-269.99 -55.44,-231.87L-52.96,-196.68L-6.77,-199.94L-26.34,-219.68L-28.34,-248.03C-31.87,-297.88 -32.86,-304.94 -40.59,-324.04L-64.11,-316.24C-68.74,-308.79 -85.30,-272.00 -92.27,-235.16ZM49.97,-279.85L51.11,-263.72L250.53,-277.81L249.39,-293.94ZM314.99,-390.93L330.72,-366.50L338.92,-250.41L326.83,-223.52L378.15,-227.15C411.14,-229.49 455.43,-242.20 452.95,-277.39C451.18,-302.32 432.08,-315.46 402.51,-320.24C419.38,-328.31 438.17,-340.45 436.62,-362.44C434.56,-391.53 403.46,-397.19 368.27,-394.70ZM359.78,-386.24L367.84,-386.81C383.73,-387.93 404.83,-384.76 406.90,-355.43C408.25,-336.37 394.34,-321.14 364.53,-319.03ZM370.39,-236.18L364.96,-312.92C394.78,-315.03 416.40,-307.96 418.68,-275.70C420.34,-252.24 401.42,-238.38 377.72,-236.70ZM547.51,-239.13L592.23,-242.29L574.28,-259.93L567.15,-360.86L535.38,-358.62L540.10,-343.97C541.58,-322.95 526.24,-279.38 515.70,-254.81C514.03,-264.51 512.19,-280.10 509.27,-321.40L506.44,-361.48L460.59,-353.33L480.17,-333.59L484.33,-274.69C485.59,-256.85 489.91,-240.95 491.93,-233.23L513.78,-236.74C518.42,-244.19 534.97,-280.98 541.95,-317.82ZM636.91,-402.39L615.04,-423.44L596.10,-399.51L618.24,-378.23ZM641.58,-266.90L634.43,-368.08L590.86,-348.54L608.81,-330.90L614.96,-243.89L661.15,-247.16ZM671.97,-389.40L672.49,-382.07L656.37,-373.80L674.32,-356.16L681.92,-248.63L728.11,-251.89L708.54,-271.63L697.76,-424.13L654.02,-407.04ZM853.49,-260.76L834.19,-276.59L823.13,-433.00L779.40,-415.90L797.34,-398.26L798.86,-376.75C753.51,-368.64 730.67,-333.86 733.61,-292.32C735.01,-272.52 744.32,-255.50 752.01,-250.88L769.90,-254.85C782.68,-279.09 797.21,-313.27 803.30,-348.82L802.37,-320.27L806.96,-255.26ZM772.48,-273.94C769.55,-273.74 764.67,-283.71 762.98,-307.66C761.23,-332.34 766.60,-367.60 799.33,-370.16C800.92,-344.23 777.13,-274.27 772.48,-273.94ZM-316.84,99.03L-200.26,90.79L-201.32,37.57L-202.58,37.16L-232.90,84.25L-273.23,87.10L-278.25,15.99L-214.71,11.50L-215.49,0.50L-279.03,4.99L-283.82,-62.71L-245.69,-65.40L-214.09,-24.90L-212.87,-24.99L-216.50,-76.31L-328.67,-68.38L-312.95,-43.95L-304.74,72.14ZM-145.76,86.94C-132.99,62.70 -118.46,28.51 -112.37,-7.04L-113.30,21.52L-108.86,84.33L-62.18,81.03L-81.75,61.29L-87.80,-24.25L-79.45,-38.10L-107.31,-36.13C-158.32,-31.54 -183.81,3.91 -180.60,49.36C-179.20,69.16 -171.35,86.29 -163.66,90.90ZM-143.18,67.84C-146.12,68.05 -149.53,57.97 -151.22,34.02C-152.97,9.34 -149.07,-25.81 -116.34,-28.37C-114.75,-2.45 -138.54,67.51 -143.18,67.84ZM35.41,-8.15L36.07,-9.18L12.69,-48.05L9.51,-47.83C-3.45,-26.28 -13.25,5.36 -18.40,33.23L-23.90,-44.49L-67.46,-24.95L-49.52,-7.31L-43.37,79.70L-13.31,77.57L-16.31,62.80C-18.06,38.12 -0.79,-12.96 2.52,-14.67ZM114.79,-49.13L114.60,-51.82L75.74,-49.07L72.80,-90.62L48.12,-47.12L30.77,-45.89L48.41,-32.65L53.32,36.76C56.43,73.87 74.88,74.28 83.68,73.66C98.83,72.59 114.02,47.69 118.94,20.08L116.19,19.29C112.13,34.81 102.44,54.16 94.62,54.71C88.02,55.18 83.03,54.06 81.13,27.18L76.81,-33.92ZM161.39,-109.16L117.65,-92.07L135.60,-74.43L145.55,66.34L177.32,64.09L172.60,49.45C171.15,28.92 185.63,-12.88 196.14,-37.94L198.11,-37.83C201.48,-28.49 204.88,-11.54 207.58,26.59L210.07,61.78L256.26,58.51L236.69,38.78L234.68,10.43C231.16,-39.43 230.17,-46.48 222.43,-65.58L198.91,-57.78C194.28,-50.33 177.72,-13.55 170.75,23.30Z" fill="#ffffff" stroke="#000000"/>
    <path d="M-1018.64,-254.87L-1002.23,-231.25L-990.06,-116.71L-1001.09,-89.69L-950.45,-95.07C-917.89,-98.53 -874.52,-112.65 -878.21,-147.37C-880.83,-171.97 -900.18,-184.30 -929.60,-188.00C-913.19,-196.57 -895.03,-209.23 -897.33,-230.94C-900.38,-259.63 -931.35,-264.14 -966.07,-260.45ZM-974.17,-251.79L-966.22,-252.64C-950.54,-254.30 -929.56,-251.90 -926.48,-222.96C-924.48,-204.15 -937.71,-188.60 -967.13,-185.48ZM-958.44,-103.73L-966.49,-179.45C-937.07,-182.57 -915.43,-176.34 -912.05,-144.51C-909.59,-121.36 -927.81,-106.98 -951.21,-104.50ZM-823.37,-108.57C-811.57,-132.99 -798.39,-167.31 -793.62,-202.69L-793.54,-174.41L-786.95,-112.44L-740.89,-117.34L-760.94,-136.18L-769.91,-220.58L-762.13,-234.57L-789.62,-231.65C-839.92,-225.33 -863.90,-189.37 -859.13,-144.52C-857.06,-124.99 -848.70,-108.32 -840.93,-104.02ZM-821.48,-127.55C-824.37,-127.24 -828.10,-137.09 -830.61,-160.72C-833.20,-185.08 -830.57,-219.98 -798.28,-223.66C-795.81,-198.07 -816.90,-128.04 -821.48,-127.55ZM-661.08,-125.82L-616.95,-130.51L-635.32,-147.33L-645.90,-246.92L-677.25,-243.59L-672.07,-229.27C-669.87,-208.53 -683.52,-164.89 -693.09,-140.22C-695.08,-149.76 -697.44,-165.12 -701.77,-205.87L-705.98,-245.42L-751.04,-235.75L-730.99,-216.91L-724.82,-158.79C-722.95,-141.19 -718.12,-125.61 -715.85,-118.05L-694.35,-122.28C-690.03,-129.81 -674.94,-166.78 -669.33,-203.47ZM-601.27,-132.17L-486.25,-144.40L-489.16,-197.01L-490.41,-197.36L-518.76,-149.72L-558.55,-145.49L-566.01,-215.66L-503.31,-222.33L-504.46,-233.18L-567.16,-226.52L-574.26,-293.31L-536.64,-297.31L-503.97,-258.35L-502.76,-258.48L-508.14,-309.12L-618.83,-297.35L-602.42,-273.74L-590.24,-159.19ZM-378.84,-237.50L-378.22,-238.55L-402.71,-276.18L-405.84,-275.85C-417.92,-254.08 -426.50,-222.44 -430.63,-194.69L-438.78,-271.37L-481.19,-250.53L-462.82,-233.70L-453.69,-147.86L-424.03,-151.01L-427.53,-165.51C-430.11,-189.87 -414.82,-241.00 -411.60,-242.80ZM-249.93,-169.51L-269.57,-184.49L-285.97,-338.82L-328.64,-320.39L-310.27,-303.56L-308.01,-282.34C-352.59,-272.73 -373.97,-237.53 -369.61,-196.54C-367.54,-177.01 -357.73,-160.49 -349.96,-156.20L-332.40,-160.74C-320.61,-185.17 -307.43,-219.49 -302.65,-254.87L-302.57,-226.59L-295.76,-162.44ZM-330.51,-179.72C-333.41,-179.42 -338.58,-189.11 -341.10,-212.74C-343.68,-237.09 -339.61,-272.16 -307.32,-275.83C-304.84,-250.25 -325.93,-180.21 -330.51,-179.72ZM-163.87,-234.01C-163.87,-234.01 -176.20,-191.73 -193.57,-189.89C-202.25,-188.96 -210.22,-202.02 -214.52,-221.80L-166.31,-273.01C-166.82,-277.84 -176.49,-299.98 -199.40,-297.54C-229.06,-294.39 -249.27,-250.54 -245.58,-215.82C-242.18,-183.75 -226.23,-169.10 -204.77,-171.38C-181.38,-173.87 -163.82,-210.61 -159.76,-232.01ZM-215.61,-227.54C-216.21,-230.89 -216.84,-234.48 -217.25,-238.34C-221.35,-276.92 -214.72,-285.67 -210.66,-288.79C-207.76,-291.29 -194.47,-281.00 -190.68,-256.77ZM-113.47,-305.94L-155.89,-285.10L-137.52,-268.27L-128.39,-182.42L-97.04,-185.76L-102.23,-200.08C-104.38,-220.34 -91.51,-262.19 -81.99,-287.34L-80.04,-287.30C-76.38,-278.18 -72.42,-261.53 -68.42,-223.91L-64.73,-189.19L-19.16,-194.03L-39.20,-212.87L-42.18,-240.85C-47.40,-290.04 -48.63,-296.98 -56.95,-315.61L-79.94,-307.07C-84.26,-299.54 -99.36,-262.57 -104.97,-225.88ZM34.18,-275.05L35.87,-259.14L232.64,-280.05L230.95,-295.96ZM292.45,-394.19L308.86,-370.58L321.03,-256.03L310.00,-229.01L360.64,-234.39C393.20,-237.85 436.57,-251.97 432.88,-286.70C430.26,-311.29 410.91,-323.62 381.49,-327.33C397.90,-335.90 416.06,-348.56 413.76,-370.26C410.71,-398.96 379.74,-403.47 345.02,-399.78ZM336.92,-391.11L344.87,-391.96C360.55,-393.63 381.53,-391.22 384.61,-362.29C386.61,-343.48 373.38,-327.93 343.96,-324.80ZM352.65,-243.05L344.60,-318.77C374.02,-321.90 395.66,-315.66 399.04,-283.83C401.50,-260.68 383.28,-246.31 359.88,-243.82ZM527.75,-252.15L571.88,-256.84L553.51,-273.67L542.93,-373.26L511.58,-369.93L516.76,-355.60C518.97,-334.86 505.31,-291.22 495.74,-266.55C493.75,-276.09 491.39,-291.45 487.06,-332.20L482.86,-371.75L437.79,-362.08L457.84,-343.24L464.02,-285.13C465.89,-267.52 470.71,-251.94 472.98,-244.38L494.48,-248.61C498.80,-256.15 513.89,-293.11 519.50,-329.80ZM610.49,-416.77L588.12,-436.83L570.22,-412.49L592.86,-392.22ZM619.84,-282.91L609.23,-382.74L566.82,-361.90L585.19,-345.07L594.31,-259.22L639.89,-264.07ZM645.62,-405.14L646.39,-397.91L630.74,-389.17L649.11,-372.35L660.38,-266.24L705.96,-271.09L685.91,-289.93L669.92,-440.40L627.25,-421.97ZM829.66,-284.23L810.03,-299.22L793.63,-453.55L750.96,-435.11L769.33,-418.29L771.58,-397.07C727.00,-387.45 705.62,-352.26 709.98,-311.27C712.06,-291.73 721.86,-275.22 729.63,-270.92L747.19,-275.47C758.99,-299.89 772.17,-334.21 776.94,-369.59L777.02,-341.31L783.84,-277.17ZM749.08,-294.45C746.19,-294.14 741.01,-303.83 738.50,-327.46C735.91,-351.82 739.99,-386.88 772.28,-390.56C774.75,-364.97 753.66,-294.93 749.08,-294.45ZM-315.43,112.53L-200.41,100.31L-203.31,47.70L-204.57,47.34L-232.92,94.98L-272.71,99.21L-280.16,29.04L-217.47,22.38L-218.62,11.53L-281.32,18.19L-288.41,-48.61L-250.80,-52.60L-218.12,-13.64L-216.92,-13.77L-222.30,-64.41L-332.98,-52.65L-316.57,-29.03L-304.40,85.51ZM-146.63,94.59C-134.84,70.17 -121.66,35.85 -116.88,0.47L-116.80,28.75L-110.22,90.72L-64.16,85.83L-84.21,66.99L-93.18,-17.41L-85.40,-31.41L-112.89,-28.49C-163.18,-22.17 -187.16,13.79 -182.40,58.65C-180.32,78.18 -171.97,94.85 -164.19,99.14ZM-144.75,75.62C-147.64,75.92 -151.37,66.08 -153.88,42.45C-156.47,18.09 -153.84,-16.82 -121.55,-20.49C-119.07,5.09 -140.16,75.13 -144.75,75.62ZM29.26,-5.79L29.88,-6.83L5.39,-44.47L2.26,-44.14C-9.81,-22.37 -18.40,9.27 -22.53,37.02L-30.67,-39.66L-73.09,-18.81L-54.72,-1.99L-45.59,83.86L-15.93,80.71L-19.42,66.20C-22.01,41.85 -6.72,-9.28 -3.50,-11.09ZM106.35,-49.10L106.07,-51.75L67.73,-47.68L63.37,-88.67L40.48,-44.78L23.36,-42.96L41.27,-30.48L48.54,38.01C52.92,74.61 71.19,74.37 79.87,73.45C94.82,71.86 108.97,46.70 112.88,19.22L110.12,18.54C106.65,34.03 97.75,53.51 90.03,54.33C83.52,55.02 78.54,54.08 75.72,27.56L69.32,-32.73ZM150.35,-110.11L107.68,-91.67L126.05,-74.85L140.81,64.05L172.16,60.72L166.98,46.39C164.83,26.14 177.69,-15.71 187.21,-40.87L189.17,-40.83C192.82,-31.71 196.78,-15.06 200.78,22.56L204.47,57.28L250.05,52.44L230.00,33.60L227.03,5.63C221.80,-43.57 220.57,-50.51 212.25,-69.13L189.26,-60.59C184.94,-53.06 169.85,-16.10 164.24,20.59Z" fill="#ffffff" stroke="#000000"/>
    <path d="M-1021.71,-212.85L-1004.65,-190.07L-988.61,-77.20L-998.58,-50.09L-948.68,-57.18C-916.60,-61.74 -874.20,-77.22 -879.06,-111.43C-882.51,-135.67 -902.08,-147.19 -931.30,-149.82C-915.38,-158.88 -897.85,-172.03 -900.89,-193.42C-904.91,-221.69 -935.69,-225.08 -969.91,-220.21ZM-977.62,-211.36L-969.78,-212.47C-954.33,-214.67 -933.50,-213.02 -929.44,-184.51C-926.81,-165.98 -939.35,-150.14 -968.33,-146.02ZM-956.89,-65.47L-967.49,-140.08C-938.50,-144.20 -916.89,-138.78 -912.43,-107.42C-909.19,-84.61 -926.71,-69.75 -949.76,-66.48ZM-823.46,-74.97C-812.65,-99.54 -800.81,-133.95 -797.32,-169.11L-796.26,-141.14L-787.58,-80.07L-742.19,-86.52L-762.68,-104.46L-774.50,-187.62L-767.29,-201.74L-794.38,-197.89C-843.91,-189.88 -866.37,-153.48 -860.09,-109.28C-857.35,-90.03 -848.51,-73.84 -840.67,-69.86ZM-822.26,-93.81C-825.11,-93.40 -829.14,-103.01 -832.45,-126.30C-835.86,-150.30 -834.48,-184.92 -802.67,-189.68C-799.33,-164.46 -817.74,-94.45 -822.26,-93.81ZM-663.54,-97.70L-620.06,-103.88L-638.82,-119.88L-652.76,-218.01L-683.65,-213.62L-678.03,-199.63C-675.13,-179.20 -687.11,-135.56 -695.71,-110.82C-698.01,-120.19 -700.89,-135.30 -706.59,-175.45L-712.13,-214.42L-756.36,-203.29L-735.88,-185.35L-727.74,-128.09C-725.27,-110.74 -719.96,-95.50 -717.45,-88.10L-696.34,-93.04C-692.32,-100.64 -678.69,-137.72 -674.42,-174.21ZM-604.62,-106.07L-491.28,-122.18L-495.99,-174.11L-497.24,-174.42L-523.62,-126.31L-562.82,-120.74L-572.65,-189.88L-510.87,-198.66L-512.39,-209.35L-574.17,-200.57L-583.52,-266.39L-546.46,-271.66L-512.78,-234.27L-511.59,-234.44L-518.68,-284.33L-627.75,-268.84L-610.69,-246.05L-594.65,-133.18ZM-388.30,-218.02L-387.72,-219.07L-413.25,-255.44L-416.34,-255.00C-427.52,-233.05 -434.91,-201.46 -438.02,-173.86L-448.76,-249.43L-489.98,-227.33L-471.22,-211.33L-459.20,-126.74L-429.97,-130.89L-433.93,-145.11C-437.34,-169.11 -424.00,-220.22 -420.88,-222.12ZM-258.42,-155.27L-278.36,-169.40L-299.97,-321.47L-341.53,-301.75L-322.77,-285.75L-319.80,-264.84C-363.56,-253.77 -383.48,-218.22 -377.74,-177.82C-375.00,-158.58 -364.73,-142.58 -356.89,-138.61L-339.68,-143.72C-328.87,-168.29 -317.03,-202.69 -313.54,-237.85L-312.48,-209.89L-303.50,-146.68ZM-338.48,-162.56C-341.33,-162.15 -346.79,-171.56 -350.09,-194.84C-353.51,-218.84 -350.70,-253.66 -318.89,-258.43C-315.55,-233.20 -333.96,-163.20 -338.48,-162.56ZM-175.55,-222.07C-175.55,-222.07 -186.27,-179.82 -203.38,-177.39C-211.93,-176.18 -220.27,-188.81 -225.22,-208.23L-179.32,-260.56C-180.00,-265.31 -190.33,-286.88 -212.91,-283.67C-242.13,-279.51 -260.60,-235.44 -255.73,-201.22C-251.24,-169.62 -234.96,-155.69 -213.81,-158.70C-190.77,-161.97 -174.68,-198.92 -171.41,-220.23ZM-226.50,-213.86C-227.21,-217.15 -227.96,-220.68 -228.50,-224.49C-233.90,-262.50 -227.65,-271.39 -223.74,-274.61C-220.96,-277.19 -207.45,-267.47 -202.86,-243.64ZM-128.22,-294.98L-169.44,-272.88L-150.68,-256.88L-138.66,-172.29L-107.77,-176.68L-113.39,-190.66C-116.23,-210.62 -104.96,-252.46 -96.43,-277.68L-94.49,-277.71C-90.56,-268.81 -86.06,-252.48 -80.79,-215.42L-75.93,-181.20L-31.02,-187.58L-51.51,-205.52L-55.42,-233.08C-62.31,-281.55 -63.77,-288.38 -72.65,-306.51L-95.09,-297.26C-99.10,-289.66 -112.74,-252.57 -117.01,-216.09ZM18.90,-269.58L21.13,-253.90L215.02,-281.45L212.79,-297.13ZM270.19,-396.44L287.25,-373.65L303.29,-260.78L293.32,-233.67L343.22,-240.76C375.30,-245.32 417.70,-260.80 412.84,-295.02C409.40,-319.25 389.82,-330.77 360.60,-333.41C376.52,-342.46 394.05,-355.62 391.01,-377.00C386.99,-405.28 356.21,-408.66 321.99,-403.80ZM314.28,-394.94L322.12,-396.06C337.57,-398.25 358.41,-396.61 362.46,-368.10C365.09,-349.56 352.56,-333.72 323.57,-329.60ZM335.01,-249.05L324.41,-323.66C353.40,-327.78 375.02,-322.37 379.47,-291.00C382.71,-268.19 365.19,-253.34 342.14,-250.06ZM507.89,-264.16L551.37,-270.34L532.61,-286.34L518.67,-384.48L487.78,-380.09L493.40,-366.10C496.30,-345.66 484.33,-302.02 475.72,-277.29C473.42,-286.66 470.55,-301.76 464.84,-341.92L459.30,-380.89L415.07,-369.75L435.55,-351.82L443.69,-294.55C446.16,-277.21 451.47,-261.96 453.98,-254.56L475.10,-259.50C479.11,-267.10 492.74,-304.19 497.01,-340.67ZM583.97,-429.87L561.14,-448.93L544.29,-424.24L567.39,-404.97ZM597.89,-297.80L583.91,-396.17L542.69,-374.07L561.45,-358.07L573.47,-273.48L618.38,-279.86ZM619.12,-419.60L620.14,-412.47L604.96,-403.28L623.72,-387.28L638.57,-282.73L683.48,-289.12L663.00,-307.05L641.93,-455.32L600.37,-435.60ZM805.38,-306.44L785.43,-320.57L763.82,-472.64L722.26,-452.92L741.02,-436.92L743.99,-416.01C700.23,-404.94 680.32,-369.39 686.06,-328.99C688.79,-309.75 699.06,-293.75 706.90,-289.78L724.11,-294.89C734.93,-319.45 746.76,-353.86 750.25,-389.02L751.32,-361.05L760.30,-297.85ZM725.32,-313.73C722.46,-313.32 717.01,-322.73 713.70,-346.01C710.29,-370.01 713.10,-404.83 744.90,-409.59C748.24,-384.37 729.83,-314.37 725.32,-313.73ZM-313.35,125.98L-200.01,109.87L-204.72,57.94L-205.98,57.63L-232.35,105.74L-271.56,111.31L-281.39,42.17L-219.61,33.39L-221.13,22.70L-282.91,31.48L-292.26,-34.34L-255.19,-39.61L-221.52,-2.22L-220.33,-2.39L-227.42,-52.28L-336.48,-36.79L-319.43,-14.00L-303.39,98.87ZM-147.02,102.34C-136.21,77.78 -124.38,43.37 -120.89,8.21L-119.82,36.18L-111.14,97.24L-65.76,90.79L-86.25,72.86L-98.07,-10.31L-90.86,-24.42L-117.95,-20.57C-167.47,-12.56 -189.94,23.84 -183.65,68.04C-180.92,87.28 -172.07,103.48 -164.24,107.46ZM-145.82,83.51C-148.67,83.91 -152.71,74.30 -156.01,51.02C-159.42,27.02 -158.04,-7.60 -126.23,-12.36C-122.89,12.86 -141.31,82.86 -145.82,83.51ZM23.44,-3.09L24.02,-4.14L-1.51,-40.51L-4.60,-40.07C-15.79,-18.12 -23.17,13.47 -26.28,41.07L-37.02,-34.49L-78.24,-12.40L-59.48,3.60L-47.46,88.19L-18.24,84.04L-22.20,69.82C-25.61,45.82 -12.27,-5.29 -9.14,-7.19ZM98.18,-48.62L97.81,-51.23L60.02,-45.86L54.28,-86.26L33.17,-42.05L16.30,-39.65L34.45,-27.93L44.04,39.56C49.65,75.61 67.71,74.74 76.26,73.52C90.99,71.43 104.11,46.05 107.02,18.73L104.27,18.15C101.37,33.59 93.25,53.17 85.64,54.25C79.23,55.16 74.27,54.41 70.56,28.27L62.12,-31.13ZM139.56,-110.49L98.00,-90.77L116.76,-74.77L136.21,62.09L167.10,57.70L161.48,43.72C158.64,23.76 169.91,-18.08 178.44,-43.30L180.38,-43.33C184.31,-34.43 188.81,-18.10 194.08,18.96L198.94,53.18L243.85,46.80L223.36,28.86L219.45,1.30C212.56,-47.17 211.10,-54.00 202.22,-72.13L179.78,-62.88C175.77,-55.28 162.13,-18.19 157.86,18.29Z" fill="#ffffff" stroke="#000000"/>
    <path d="M-1022.98,-171.02L-1005.32,-149.08L-985.51,-38.02L-994.42,-10.86L-945.32,-19.62C-913.76,-25.25 -872.36,-42.04 -878.36,-75.70C-882.62,-99.55 -902.38,-110.26 -931.37,-111.85C-915.94,-121.36 -899.07,-134.98 -902.82,-156.02C-907.78,-183.85 -938.34,-186.12 -972.01,-180.11ZM-979.33,-171.09L-971.61,-172.46C-956.41,-175.17 -935.75,-174.28 -930.74,-146.22C-927.49,-127.98 -939.34,-111.88 -967.86,-106.79ZM-953.73,-27.53L-966.82,-100.94C-938.29,-106.03 -916.73,-101.43 -911.22,-70.57C-907.22,-48.12 -924.03,-32.82 -946.71,-28.78ZM-822.10,-41.59C-812.27,-66.26 -801.76,-100.70 -799.54,-135.60L-797.51,-107.97L-786.80,-47.88L-742.14,-55.85L-763.03,-72.87L-777.62,-154.70L-770.98,-168.91L-797.64,-164.16C-846.34,-154.51 -867.28,-117.73 -859.53,-74.24C-856.15,-55.30 -846.84,-39.59 -838.95,-35.93ZM-821.57,-60.26C-824.38,-59.76 -828.70,-69.12 -832.79,-92.03C-837.00,-115.65 -836.84,-149.93 -805.55,-155.75C-801.36,-130.93 -817.13,-61.05 -821.57,-60.26ZM-664.75,-69.65L-621.96,-77.27L-641.07,-92.44L-658.29,-189.01L-688.68,-183.59L-682.63,-169.95C-679.05,-149.84 -689.37,-106.27 -697.02,-81.50C-699.62,-90.69 -702.99,-105.53 -710.03,-145.04L-716.87,-183.39L-760.23,-170.83L-739.34,-153.81L-729.29,-97.46C-726.25,-80.39 -720.46,-65.50 -717.72,-58.27L-697.01,-63.89C-693.31,-71.55 -681.12,-108.70 -678.17,-144.93ZM-606.76,-79.98L-495.23,-99.87L-501.71,-151.07L-502.96,-151.33L-527.36,-102.83L-565.94,-95.95L-578.07,-163.99L-517.28,-174.83L-519.16,-185.35L-579.95,-174.51L-591.50,-239.27L-555.02,-245.78L-520.41,-209.97L-519.24,-210.18L-528.00,-259.28L-635.32,-240.15L-617.66,-218.21L-597.85,-107.14ZM-396.73,-198.25L-396.20,-199.31L-422.72,-234.39L-425.76,-233.85C-436.05,-211.75 -442.26,-180.24 -444.37,-152.85L-457.62,-227.20L-497.62,-203.90L-478.51,-188.74L-463.67,-105.50L-434.91,-110.63L-439.32,-124.56C-443.53,-148.17 -432.12,-199.18 -429.10,-201.16ZM-266.10,-140.73L-286.32,-154.01L-313.00,-303.65L-353.41,-282.69L-334.30,-267.52L-330.63,-246.95C-373.52,-234.47 -391.98,-198.62 -384.89,-158.87C-381.51,-139.93 -370.79,-124.47 -362.90,-120.81L-346.06,-126.47C-336.23,-151.14 -325.72,-185.58 -323.50,-220.48L-321.47,-192.85L-310.38,-130.66ZM-345.53,-145.14C-348.34,-144.64 -354.06,-153.75 -358.15,-176.66C-362.36,-200.28 -360.79,-234.81 -329.51,-240.63C-325.32,-215.81 -341.09,-145.93 -345.53,-145.14ZM-186.48,-209.69C-186.48,-209.69 -195.61,-167.53 -212.44,-164.53C-220.86,-163.03 -229.55,-175.23 -235.11,-194.26L-191.55,-247.62C-192.39,-252.30 -203.36,-273.26 -225.57,-269.30C-254.33,-264.17 -271.05,-219.94 -265.05,-186.27C-259.50,-155.17 -242.92,-141.96 -222.11,-145.67C-199.43,-149.72 -184.81,-186.82 -182.32,-208.01ZM-236.58,-199.79C-237.40,-203.02 -238.26,-206.48 -238.92,-210.22C-245.59,-247.63 -239.72,-256.64 -235.97,-259.97C-233.31,-262.61 -219.62,-253.47 -214.24,-230.07ZM-142.21,-283.44L-182.21,-260.14L-163.10,-244.97L-148.25,-161.74L-117.86,-167.16L-123.91,-180.79C-127.41,-200.43 -117.73,-242.21 -110.17,-267.44L-108.26,-267.54C-104.06,-258.88 -99.04,-242.89 -92.53,-206.41L-86.53,-172.74L-42.34,-180.62L-63.23,-197.65L-68.06,-224.77C-76.57,-272.47 -78.24,-279.16 -87.66,-296.78L-109.53,-286.85C-113.23,-279.20 -125.42,-242.04 -128.37,-205.81ZM4.17,-263.46L6.92,-248.03L197.71,-282.05L194.96,-297.48ZM248.26,-397.69L265.92,-375.75L285.72,-264.69L276.82,-237.53L325.92,-246.28C357.48,-251.91 398.88,-268.70 392.87,-302.37C388.62,-326.22 368.86,-336.93 339.87,-338.51C355.30,-348.02 372.17,-361.64 368.42,-382.69C363.46,-410.51 332.90,-412.78 299.23,-406.78ZM291.91,-397.75L299.63,-399.13C314.83,-401.84 335.49,-400.94 340.50,-372.88C343.75,-354.65 331.90,-338.54 303.38,-333.46ZM317.51,-254.19L304.42,-327.61C332.94,-332.70 354.51,-328.10 360.01,-297.24C364.02,-274.79 347.20,-259.49 324.52,-255.44ZM487.95,-275.17L530.74,-282.80L511.63,-297.97L494.41,-394.54L464.01,-389.12L470.06,-375.48C473.65,-355.37 463.33,-311.80 455.68,-287.03C453.08,-296.22 449.71,-311.06 442.66,-350.57L435.82,-388.92L392.47,-376.36L413.35,-359.34L423.40,-302.99C426.44,-285.92 432.24,-271.03 434.97,-263.80L455.68,-269.42C459.38,-277.08 471.58,-314.23 474.52,-350.46ZM557.41,-441.71L534.16,-459.77L518.36,-434.75L541.88,-416.51ZM575.78,-311.58L558.52,-408.38L518.53,-385.09L537.64,-369.92L552.48,-286.68L596.67,-294.56ZM592.53,-432.78L593.78,-425.77L579.09,-416.15L598.20,-400.98L616.55,-298.10L660.74,-305.98L639.85,-323.01L613.83,-468.90L573.42,-447.95ZM780.68,-327.37L760.46,-340.65L733.78,-490.29L693.37,-469.33L712.48,-454.17L716.15,-433.59C673.26,-421.12 654.80,-385.26 661.89,-345.51C665.27,-326.57 675.98,-311.11 683.87,-307.45L700.72,-313.11C710.55,-337.78 721.06,-372.22 723.28,-407.12L725.31,-379.50L736.40,-317.30ZM701.25,-331.78C698.44,-331.28 692.72,-340.39 688.63,-363.31C684.42,-386.92 685.98,-421.46 717.27,-427.28C721.46,-402.45 705.69,-332.57 701.25,-331.78ZM-310.61,139.34L-199.08,119.45L-205.55,68.25L-206.81,67.99L-231.21,116.49L-269.79,123.37L-281.92,55.33L-221.13,44.49L-223.01,33.97L-283.80,44.81L-295.34,-19.95L-258.87,-26.46L-224.26,9.35L-223.09,9.14L-231.85,-39.96L-339.17,-20.83L-321.50,1.11L-301.70,112.18ZM-146.94,110.15C-137.11,85.48 -126.60,51.04 -124.38,16.15L-122.35,43.77L-111.63,103.86L-66.98,95.90L-87.86,78.87L-102.45,-2.96L-95.82,-17.17L-122.48,-12.42C-171.18,-2.77 -192.12,34.01 -184.36,77.50C-180.99,96.44 -171.67,112.15 -163.78,115.81ZM-146.41,91.48C-149.21,91.98 -153.54,82.62 -157.62,59.71C-161.83,36.09 -161.67,1.81 -130.39,-4.01C-126.20,20.81 -141.97,90.69 -146.41,91.48ZM17.96,-0.07L18.50,-1.13L-8.02,-36.20L-11.06,-35.66C-21.36,-13.56 -27.56,17.94 -29.67,45.34L-42.93,-29.02L-82.92,-5.72L-63.81,9.45L-48.97,92.69L-20.21,87.56L-24.63,73.63C-28.84,50.01 -17.43,-0.99 -14.40,-2.98ZM90.28,-47.70L89.83,-50.27L52.65,-43.64L45.56,-83.39L26.23,-38.93L9.63,-35.97L27.99,-25.01L39.83,41.39C46.63,76.85 64.46,75.36 72.88,73.85C87.37,71.27 99.46,45.71 101.38,18.59L98.64,18.12C96.32,33.49 88.96,53.13 81.48,54.47C75.17,55.59 70.24,55.02 65.66,29.30L55.23,-29.15ZM129.05,-110.34L88.64,-89.39L107.75,-74.22L131.76,60.46L162.16,55.04L156.11,41.40C152.61,21.76 162.29,-20.01 169.85,-45.24L171.76,-45.34C175.96,-36.68 180.98,-20.69 187.49,15.78L193.49,49.45L237.68,41.57L216.79,24.55L211.96,-2.57C203.45,-50.27 201.78,-56.97 192.36,-74.59L170.49,-64.66C166.79,-57.00 154.60,-19.85 151.65,16.38Z" fill="#ffffff" stroke="#000000"/>
    <path d="M-1022.47,-129.46L-1004.24,-108.38L-980.78,0.75L-988.64,27.92L-940.39,17.54C-909.38,10.88 -869.03,-7.17 -876.14,-40.25C-881.18,-63.69 -901.09,-73.59 -929.82,-74.15C-914.89,-84.09 -898.68,-98.15 -903.13,-118.82C-909.00,-146.16 -939.30,-147.34 -972.39,-140.23ZM-979.31,-131.05L-971.73,-132.68C-956.79,-135.89 -936.32,-135.72 -930.40,-108.15C-926.55,-90.23 -937.70,-73.89 -965.73,-67.87ZM-948.98,10.02L-964.49,-62.13C-936.46,-68.15 -914.97,-64.36 -908.46,-34.03C-903.71,-11.97 -919.80,3.74 -942.09,8.54ZM-819.32,-8.48C-810.45,-33.22 -801.27,-67.65 -800.29,-102.23L-797.32,-74.99L-784.62,-15.94L-740.74,-25.37L-761.99,-41.48L-779.27,-121.89L-773.21,-136.17L-799.40,-130.54C-847.22,-119.30 -866.65,-82.20 -857.46,-39.46C-853.46,-20.85 -843.70,-5.64 -835.77,-2.30ZM-819.44,-26.96C-822.20,-26.37 -826.80,-35.48 -831.64,-57.99C-836.63,-81.20 -837.67,-115.11 -806.93,-121.95C-801.93,-97.55 -815.08,-27.90 -819.44,-26.96ZM-664.69,-41.72L-622.65,-50.76L-642.07,-65.09L-662.47,-159.98L-692.34,-153.56L-685.88,-140.28C-681.63,-120.52 -690.32,-77.07 -697.02,-52.32C-699.91,-61.31 -703.76,-75.87 -712.11,-114.70L-720.21,-152.37L-762.64,-138.45L-741.39,-122.34L-729.49,-66.97C-725.89,-50.20 -719.64,-35.68 -716.68,-28.62L-696.40,-34.90C-693.01,-42.60 -682.25,-79.77 -680.60,-115.70ZM-607.71,-53.97L-498.12,-77.53L-506.31,-127.93L-507.56,-128.14L-530.00,-79.33L-567.91,-71.18L-582.28,-138.04L-522.54,-150.88L-524.77,-161.22L-584.50,-148.38L-598.18,-212.02L-562.34,-219.72L-526.87,-185.52L-525.72,-185.77L-536.09,-234.02L-641.54,-211.35L-623.31,-190.27L-599.85,-81.14ZM-404.16,-178.25L-403.66,-179.32L-431.11,-213.08L-434.10,-212.43C-443.51,-190.22 -448.54,-158.85 -449.67,-131.69L-465.38,-204.75L-504.11,-180.32L-484.69,-165.99L-467.11,-84.19L-438.85,-90.27L-443.70,-103.89C-448.69,-127.09 -439.18,-177.93 -436.26,-180.00ZM-272.97,-125.93L-293.42,-138.35L-325.03,-285.39L-364.26,-263.26L-344.84,-248.93L-340.49,-228.71C-382.47,-214.88 -399.46,-178.78 -391.07,-139.72C-387.07,-121.11 -375.93,-106.20 -368.00,-102.85L-351.54,-109.04C-342.68,-133.78 -333.49,-168.20 -332.51,-202.78L-329.54,-175.54L-316.40,-114.43ZM-351.67,-127.52C-354.42,-126.92 -360.40,-135.73 -365.24,-158.25C-370.23,-181.45 -369.89,-215.66 -339.16,-222.51C-334.15,-198.10 -347.30,-128.45 -351.67,-127.52ZM-196.64,-196.90C-196.64,-196.90 -204.20,-154.89 -220.74,-151.33C-229.01,-149.56 -238.03,-161.32 -244.20,-179.94L-202.98,-234.23C-203.97,-238.83 -215.56,-259.17 -237.38,-254.48C-265.64,-248.41 -280.63,-204.08 -273.52,-171.00C-266.95,-140.44 -250.09,-127.96 -229.64,-132.35C-207.35,-137.15 -194.20,-174.35 -192.47,-195.39ZM-245.84,-185.36C-246.76,-188.53 -247.73,-191.92 -248.52,-195.60C-256.42,-232.36 -250.93,-241.47 -247.34,-244.89C-244.80,-247.60 -230.94,-239.04 -224.80,-216.08ZM-155.44,-271.37L-194.18,-246.94L-174.75,-232.61L-157.17,-150.82L-127.30,-157.24L-133.76,-170.51C-137.91,-189.81 -129.80,-231.46 -123.20,-256.67L-121.31,-256.84C-116.86,-248.42 -111.33,-232.78 -103.63,-196.94L-96.52,-163.86L-53.09,-173.19L-74.34,-189.29L-80.07,-215.94C-90.15,-262.81 -92.04,-269.38 -101.96,-286.47L-123.24,-275.89C-126.64,-268.19 -137.40,-231.02 -139.05,-195.10ZM-10.00,-256.73L-6.74,-241.56L180.74,-281.86L177.48,-297.03ZM226.69,-397.98L244.92,-376.90L268.38,-267.77L260.52,-240.60L308.77,-250.98C339.78,-257.64 380.13,-275.69 373.02,-308.77C367.98,-332.21 348.07,-342.11 319.34,-342.67C334.27,-352.61 350.48,-366.67 346.03,-387.34C340.16,-414.68 309.86,-415.86 276.77,-408.75ZM269.85,-399.57L277.43,-401.20C292.37,-404.41 312.84,-404.24 318.76,-376.67C322.61,-358.75 311.46,-342.41 283.43,-336.39ZM300.18,-258.50L284.67,-330.65C312.70,-336.67 334.19,-332.88 340.71,-302.55C345.45,-280.49 329.36,-264.78 307.07,-259.98ZM467.98,-285.20L510.03,-294.24L490.60,-308.57L470.21,-403.46L440.34,-397.04L446.80,-383.76C451.04,-364.01 442.36,-320.55 435.66,-295.80C432.76,-304.79 428.91,-319.35 420.57,-358.18L412.47,-395.85L370.03,-381.93L391.28,-365.82L403.18,-310.45C406.79,-293.68 413.04,-279.16 416.00,-272.10L436.28,-278.39C439.67,-286.09 450.43,-323.25 452.08,-359.18ZM530.85,-452.31L507.24,-469.35L492.48,-444.06L516.38,-426.84ZM553.57,-324.27L533.12,-419.39L494.39,-394.96L513.81,-380.62L531.40,-298.83L574.82,-308.17ZM565.90,-444.70L567.38,-437.81L553.19,-427.79L572.62,-413.45L594.35,-312.36L637.77,-321.70L616.52,-337.80L585.70,-481.17L546.47,-459.03ZM755.63,-347.03L735.17,-359.46L703.57,-506.50L664.34,-484.37L683.76,-470.04L688.11,-449.82C646.13,-435.99 629.14,-399.88 637.53,-360.83C641.53,-342.22 652.67,-327.30 660.60,-323.96L677.06,-330.14C685.92,-354.88 695.11,-389.31 696.09,-423.89L699.06,-396.65L712.19,-335.53ZM676.93,-348.62C674.17,-348.03 668.19,-356.84 663.35,-379.36C658.37,-402.56 658.70,-436.77 689.44,-443.62C694.45,-419.21 681.30,-349.56 676.93,-348.62ZM-307.20,152.57L-197.61,129.01L-205.80,78.61L-207.05,78.40L-229.49,127.21L-267.40,135.36L-281.77,68.50L-222.03,55.66L-224.26,45.32L-283.99,58.16L-297.67,-5.48L-261.83,-13.18L-226.36,21.02L-225.21,20.77L-235.58,-27.48L-341.03,-4.81L-322.80,16.27L-299.34,125.40ZM-146.38,118.00C-137.51,93.26 -128.33,58.83 -127.35,24.25L-124.38,51.49L-111.69,110.54L-67.80,101.11L-89.05,85.00L-106.34,4.59L-100.27,-9.69L-126.47,-4.06C-174.29,7.18 -193.71,44.28 -184.53,87.02C-180.53,105.63 -170.77,120.84 -162.84,124.18ZM-146.50,99.52C-149.26,100.11 -153.86,91.00 -158.70,68.49C-163.69,45.28 -164.73,11.37 -133.99,4.53C-128.99,28.93 -142.14,98.58 -146.50,99.52ZM12.84,3.25L13.33,2.18L-14.12,-31.58L-17.11,-30.94C-26.51,-8.72 -31.55,22.65 -32.68,49.81L-48.38,-23.25L-87.12,1.18L-67.69,15.51L-50.11,97.30L-21.85,91.23L-26.70,77.61C-31.69,54.41 -22.19,3.57 -19.27,1.50ZM82.69,-46.38L82.15,-48.91L45.62,-41.05L37.22,-80.11L19.66,-35.47L3.34,-31.97L21.88,-21.77L35.91,43.48C43.87,78.30 61.45,76.21 69.72,74.43C83.97,71.37 95.03,45.67 95.98,18.79L93.25,18.41C91.49,33.69 84.91,53.38 77.55,54.96C71.35,56.29 66.46,55.90 61.03,30.63L48.68,-26.81ZM118.84,-109.68L79.61,-87.54L99.04,-73.21L127.49,59.13L157.35,52.71L150.89,39.43C146.75,20.13 154.86,-21.51 161.46,-46.73L163.35,-46.89C167.80,-38.47 173.32,-22.84 181.03,13.01L188.14,46.09L231.56,36.76L210.31,20.65L204.59,-6.00C194.51,-52.87 192.62,-59.43 182.69,-76.53L161.41,-65.95C158.02,-58.25 147.26,-21.08 145.61,14.85Z" fill="#ffffff" stroke="#000000"/>
    <path d="M-1020.21,-88.25L-1001.45,-68.04L-974.45,39.05L-981.27,66.18L-933.93,54.24C-903.49,46.57 -864.23,27.32 -872.41,-5.15C-878.21,-28.14 -898.25,-37.24 -926.67,-36.78C-912.26,-47.13 -896.72,-61.60 -901.84,-81.89C-908.60,-108.72 -938.60,-108.83 -971.07,-100.64ZM-977.59,-91.32L-970.15,-93.20C-955.50,-96.89 -935.25,-97.44 -928.43,-70.39C-924.00,-52.80 -934.45,-36.26 -961.95,-29.32ZM-942.68,47.10L-960.53,-23.69C-933.03,-30.62 -911.65,-27.62 -904.15,2.13C-898.69,23.78 -914.05,39.88 -935.92,45.39ZM-815.12,24.28C-807.22,-0.49 -799.34,-34.85 -799.58,-69.07L-795.69,-42.24L-781.08,15.70L-738.02,4.84L-759.59,-10.34L-779.49,-89.25L-773.99,-103.58L-799.69,-97.10C-846.58,-84.32 -864.49,-46.95 -853.92,-5.02C-849.31,13.24 -839.13,27.94 -831.18,30.97ZM-815.89,6.01C-818.59,6.70 -823.46,-2.15 -829.03,-24.24C-834.78,-47.01 -836.99,-80.50 -806.84,-88.34C-801.03,-64.39 -811.61,4.93 -815.89,6.01ZM-663.40,-13.98L-622.14,-24.38L-641.85,-37.88L-665.33,-130.98L-694.64,-123.59L-687.79,-110.69C-682.90,-91.31 -689.97,-48.04 -695.73,-23.33C-698.90,-32.12 -703.22,-46.38 -712.83,-84.48L-722.15,-121.45L-763.62,-106.20L-742.05,-91.01L-728.35,-36.68C-724.20,-20.23 -717.51,-6.09 -714.34,0.79L-694.51,-6.13C-691.42,-13.86 -682.08,-50.99 -681.70,-86.57ZM-607.49,-28.08L-499.95,-55.20L-509.81,-104.74L-511.05,-104.91L-531.53,-55.86L-568.73,-46.48L-585.27,-112.09L-526.66,-126.87L-529.22,-137.01L-587.83,-122.23L-603.58,-184.68L-568.41,-193.55L-532.14,-160.97L-531.01,-161.26L-542.95,-208.60L-646.43,-182.51L-627.67,-162.30L-600.66,-55.21ZM-410.56,-158.06L-410.11,-159.14L-438.43,-191.56L-441.36,-190.82C-449.88,-168.53 -453.77,-137.34 -453.94,-110.44L-472.02,-182.13L-509.46,-156.62L-489.76,-143.13L-469.52,-62.87L-441.79,-69.86L-447.06,-83.16C-452.80,-105.93 -445.18,-156.53 -442.36,-158.68ZM-279.02,-110.91L-299.68,-122.48L-336.07,-266.77L-374.08,-243.51L-354.37,-230.02L-349.37,-210.18C-390.39,-195.04 -405.94,-158.75 -396.27,-120.43C-391.67,-102.16 -380.13,-87.81 -372.18,-84.78L-356.12,-91.47C-348.22,-116.24 -340.34,-150.60 -340.58,-184.82L-336.69,-157.99L-321.57,-98.02ZM-356.89,-109.74C-359.59,-109.05 -365.82,-117.56 -371.39,-139.65C-377.13,-162.42 -377.99,-196.25 -347.83,-204.09C-342.03,-180.14 -352.61,-110.82 -356.89,-109.74ZM-206.03,-183.75C-206.03,-183.75 -212.03,-141.95 -228.27,-137.86C-236.38,-135.81 -245.71,-147.12 -252.46,-165.32L-213.60,-220.44C-214.74,-224.95 -226.91,-244.66 -248.32,-239.26C-276.05,-232.27 -289.33,-187.92 -281.14,-155.45C-273.58,-125.47 -256.47,-113.72 -236.40,-118.78C-214.54,-124.29 -202.83,-161.54 -201.85,-182.40ZM-254.27,-170.62C-255.29,-173.72 -256.37,-177.05 -257.28,-180.65C-266.38,-216.72 -261.27,-225.93 -257.83,-229.43C-255.41,-232.20 -241.41,-224.22 -234.54,-201.73ZM-167.89,-258.82L-205.34,-233.31L-185.63,-219.82L-165.39,-139.56L-136.09,-146.95L-142.94,-159.85C-147.71,-178.79 -141.14,-220.25 -135.50,-245.41L-133.64,-245.64C-128.94,-237.47 -122.93,-222.21 -114.06,-187.04L-105.88,-154.57L-63.27,-165.32L-84.84,-180.50L-91.44,-206.65C-103.03,-252.64 -105.13,-259.06 -115.54,-275.62L-136.22,-264.41C-139.30,-256.68 -148.64,-219.56 -149.02,-183.98ZM-23.57,-249.42L-19.82,-234.54L164.14,-280.93L160.39,-295.81ZM205.52,-397.35L224.28,-377.14L251.28,-270.06L244.46,-242.92L291.80,-254.86C322.24,-262.53 361.50,-281.79 353.31,-314.25C347.51,-337.25 327.48,-346.34 299.06,-345.89C313.47,-356.24 329.01,-370.70 323.89,-390.99C317.12,-417.82 287.13,-417.93 254.66,-409.74ZM248.14,-400.42L255.58,-402.30C270.23,-406.00 290.48,-406.54 297.30,-379.49C301.73,-361.91 291.28,-345.36 263.77,-338.43ZM283.05,-262.00L265.20,-332.79C292.70,-339.73 314.08,-336.73 321.58,-306.97C327.04,-285.33 311.68,-269.22 289.81,-263.71ZM448.03,-294.26L489.29,-304.66L469.58,-318.15L446.10,-411.26L416.79,-403.87L423.64,-390.97C428.53,-371.58 421.46,-328.32 415.70,-303.61C412.53,-312.40 408.21,-326.66 398.60,-364.76L389.28,-401.73L347.81,-386.47L369.38,-371.29L383.08,-316.96C387.23,-300.50 393.92,-286.36 397.09,-279.49L416.92,-286.41C420.01,-294.14 429.35,-331.27 429.73,-366.85ZM504.36,-461.68L480.42,-477.70L466.71,-452.19L490.94,-436.00ZM531.29,-335.87L507.76,-429.21L470.31,-403.70L490.02,-390.21L510.26,-309.95L552.86,-320.69ZM539.28,-455.38L540.99,-448.62L527.30,-438.21L547.01,-424.72L572.03,-325.53L614.63,-336.27L593.06,-351.45L557.59,-492.13L519.57,-468.87ZM730.29,-365.44L709.62,-377.01L673.24,-521.29L635.22,-498.04L654.93,-484.55L659.93,-464.71C618.91,-449.57 603.37,-413.28 613.03,-374.95C617.64,-356.69 629.17,-342.33 637.13,-339.31L653.19,-345.99C661.09,-370.76 668.97,-405.12 668.73,-439.35L672.62,-412.52L687.74,-352.55ZM652.41,-364.26C649.71,-363.58 643.49,-372.08 637.92,-394.17C632.18,-416.94 631.32,-450.78 661.47,-458.62C667.27,-434.67 656.70,-365.34 652.41,-364.26ZM-303.15,165.65L-195.61,138.53L-205.47,88.98L-206.71,88.81L-227.19,137.86L-264.39,147.24L-280.94,81.64L-222.32,66.85L-224.88,56.71L-283.49,71.49L-299.24,9.04L-264.07,0.17L-227.80,32.75L-226.68,32.47L-238.62,-14.88L-342.09,11.22L-323.33,31.42L-296.33,138.51ZM-145.34,125.85C-137.44,101.08 -129.56,66.72 -129.80,32.49L-125.91,59.33L-111.30,117.26L-68.24,106.41L-89.81,91.23L-109.71,12.32L-104.21,-2.01L-129.91,4.47C-176.80,17.25 -194.71,54.62 -184.14,96.55C-179.53,114.81 -169.35,129.51 -161.40,132.54ZM-146.11,107.58C-148.82,108.26 -153.68,99.42 -159.26,77.33C-165.00,54.56 -167.21,21.07 -137.06,13.22C-131.26,37.18 -141.83,106.50 -146.11,107.58ZM8.08,6.83L8.53,5.76L-19.79,-26.66L-22.72,-25.92C-31.25,-3.63 -35.13,27.56 -35.30,54.46L-53.38,-17.23L-90.83,8.28L-71.12,21.77L-50.88,102.03L-23.15,95.04L-28.42,81.74C-34.16,58.97 -26.54,8.37 -23.73,6.22ZM75.41,-44.67L74.79,-47.15L38.94,-38.11L29.28,-76.44L13.47,-31.69L-2.54,-27.65L16.15,-18.22L32.29,45.81C41.38,79.96 58.69,77.27 66.81,75.23C80.78,71.70 90.83,45.91 90.83,19.30L88.12,19.02C86.91,34.19 81.09,53.88 73.87,55.70C67.78,57.24 62.93,57.02 56.68,32.22L42.47,-24.14ZM108.95,-108.52L70.93,-85.27L90.64,-71.77L123.39,58.08L152.69,50.69L145.84,37.79C141.07,18.86 147.64,-22.60 153.28,-47.77L155.14,-48.00C159.84,-39.83 165.85,-24.56 174.72,10.61L182.90,43.07L225.51,32.33L203.94,17.15L197.35,-9.00C185.75,-54.99 183.65,-61.42 173.24,-77.98L152.57,-66.77C149.48,-59.04 140.14,-21.91 139.76,13.67Z" fill="#ffffff" stroke="#000000"/>
    <path d="M-1016.23,-47.45L-996.97,-28.12L-966.54,76.80L-972.34,103.87L-925.95,90.41C-896.13,81.76 -857.98,61.36 -867.21,29.55C-873.74,7.02 -893.87,-1.27 -921.95,0.17C-908.06,-10.57 -893.21,-25.41 -898.98,-45.29C-906.60,-71.58 -936.26,-70.64 -968.07,-61.41ZM-974.20,-51.97L-966.91,-54.09C-952.55,-58.25 -932.55,-59.50 -924.87,-32.99C-919.87,-15.77 -929.63,0.96 -956.57,8.77ZM-934.85,83.66L-954.97,14.29C-928.02,6.48 -906.78,8.70 -898.33,37.86C-892.18,59.06 -906.80,75.52 -928.23,81.73ZM-809.54,56.65C-802.59,31.88 -796.00,-2.36 -797.43,-36.19L-792.65,-9.80L-776.18,46.97L-733.99,34.73L-755.85,20.48L-778.27,-56.84L-773.34,-71.20L-798.52,-63.90C-844.43,-49.62 -860.84,-12.05 -848.92,29.03C-843.73,46.93 -833.15,61.10 -825.18,63.82ZM-810.94,38.61C-813.59,39.38 -818.71,30.81 -824.99,9.16C-831.46,-13.15 -834.81,-46.18 -805.28,-54.99C-798.71,-31.51 -806.74,37.39 -810.94,38.61ZM-660.88,13.52L-620.45,1.80L-640.41,-10.85L-666.87,-102.08L-695.58,-93.75L-688.36,-81.24C-682.85,-62.24 -688.33,-19.22 -693.16,5.41C-696.61,-3.17 -701.37,-17.12 -712.20,-54.45L-722.71,-90.67L-763.18,-74.15L-741.32,-59.89L-725.88,-6.66C-721.20,9.47 -714.10,23.22 -710.73,29.90L-691.36,22.37C-688.58,14.61 -680.64,-22.41 -681.51,-57.60ZM-606.09,-2.37L-500.73,-32.93L-512.20,-81.57L-513.43,-81.69L-531.97,-32.49L-568.42,-21.92L-587.06,-86.20L-529.63,-102.86L-532.51,-112.80L-589.95,-96.14L-607.70,-157.32L-573.24,-167.32L-536.24,-136.38L-535.14,-136.70L-548.59,-183.09L-649.98,-153.68L-630.73,-134.36L-600.29,-29.43ZM-415.94,-137.75L-415.53,-138.83L-444.66,-169.89L-447.53,-169.06C-455.18,-146.72 -457.93,-115.75 -457.16,-89.15L-477.54,-159.40L-513.67,-132.87L-493.72,-120.22L-470.91,-41.58L-443.74,-49.46L-449.41,-62.42C-455.88,-84.73 -450.11,-135.02 -447.41,-137.24ZM-284.25,-95.72L-305.08,-106.44L-346.09,-247.82L-382.86,-223.50L-362.91,-210.85L-357.27,-191.41C-397.29,-175.01 -411.39,-138.59 -400.50,-101.04C-395.31,-83.14 -383.41,-69.35 -375.44,-66.64L-359.80,-73.81C-352.85,-98.57 -346.26,-132.82 -347.69,-166.65L-342.91,-140.25L-325.86,-81.50ZM-361.19,-91.84C-363.85,-91.07 -370.29,-99.26 -376.57,-120.91C-383.04,-143.22 -385.07,-176.64 -355.54,-185.45C-348.97,-161.97 -357.00,-93.06 -361.19,-91.84ZM-214.63,-170.28C-214.63,-170.28 -219.11,-128.75 -235.02,-124.13C-242.97,-121.83 -252.58,-132.69 -259.89,-150.45L-223.40,-206.29C-224.68,-210.71 -237.40,-229.77 -258.38,-223.68C-285.55,-215.80 -297.13,-171.49 -287.90,-139.69C-279.38,-110.31 -262.05,-99.29 -242.39,-104.99C-220.97,-111.20 -210.69,-148.43 -210.46,-169.09ZM-261.87,-155.62C-262.99,-158.65 -264.17,-161.90 -265.19,-165.43C-275.45,-200.77 -270.71,-210.05 -267.44,-213.63C-265.15,-216.45 -251.03,-209.05 -243.45,-187.06ZM-179.55,-245.83L-215.68,-219.31L-195.73,-206.65L-172.92,-128.02L-144.20,-136.35L-151.42,-148.86C-156.81,-167.41 -151.76,-208.63 -147.06,-233.70L-145.23,-234.00C-140.30,-226.09 -133.82,-211.20 -123.83,-176.74L-114.60,-144.93L-72.85,-157.04L-94.71,-171.30L-102.14,-196.92C-115.21,-241.98 -117.51,-248.26 -128.38,-264.27L-148.43,-252.46C-151.21,-244.71 -159.15,-207.69 -158.28,-172.49ZM-36.54,-241.57L-32.32,-226.99L147.93,-279.28L143.71,-293.86ZM184.78,-395.82L204.03,-376.49L234.47,-271.57L228.67,-244.50L275.06,-257.96C304.88,-266.61 343.02,-287.01 333.80,-318.82C327.26,-341.35 307.13,-349.64 279.05,-348.20C292.94,-358.94 307.80,-373.78 302.03,-393.66C294.40,-419.95 264.74,-419.01 232.93,-409.78ZM226.81,-400.34L234.10,-402.46C248.46,-406.62 268.45,-407.87 276.14,-381.37C281.14,-364.14 271.38,-347.41 244.43,-339.60ZM266.15,-264.71L246.03,-334.08C272.98,-341.89 294.22,-339.67 302.68,-310.51C308.83,-289.31 294.21,-272.85 272.78,-266.64ZM428.14,-302.36L468.56,-314.09L448.61,-326.74L422.14,-417.97L393.43,-409.64L400.65,-397.12C406.16,-378.13 400.68,-335.11 395.85,-310.48C392.40,-319.06 387.64,-333.00 376.81,-370.33L366.30,-406.56L325.83,-390.03L347.69,-375.78L363.13,-322.54C367.81,-306.42 374.91,-292.67 378.28,-285.99L397.65,-293.52C400.43,-301.27 408.37,-338.30 407.50,-373.49ZM477.98,-469.85L453.75,-484.85L441.09,-459.15L465.61,-443.99ZM509.00,-346.41L482.47,-437.86L446.34,-411.34L466.29,-398.68L489.10,-320.05L530.85,-332.16ZM512.72,-464.84L514.64,-458.21L501.48,-447.45L521.44,-434.80L549.63,-337.60L591.38,-349.71L569.52,-363.97L529.54,-501.81L492.77,-477.49ZM704.70,-382.58L683.87,-393.30L642.86,-534.68L606.09,-510.36L626.04,-497.71L631.68,-478.27C591.65,-461.87 577.55,-425.45 588.44,-387.90C593.63,-370.00 605.54,-356.21 613.51,-353.50L629.15,-360.67C636.10,-385.43 642.69,-419.68 641.26,-453.51L646.04,-427.11L663.08,-368.36ZM627.75,-378.70C625.10,-377.93 618.65,-386.12 612.38,-407.77C605.90,-430.08 603.87,-463.50 633.41,-472.30C639.98,-448.83 631.95,-379.92 627.75,-378.70ZM-298.45,178.53L-193.09,147.97L-204.56,99.33L-205.79,99.21L-224.33,148.41L-260.78,158.98L-279.42,94.70L-221.99,78.04L-224.88,68.10L-282.31,84.76L-300.06,23.57L-265.60,13.58L-228.60,44.52L-227.50,44.20L-240.95,-2.19L-342.34,27.22L-323.09,46.54L-292.66,151.46ZM-143.83,133.68C-136.88,108.91 -130.29,74.67 -131.72,40.84L-126.94,67.23L-110.47,124.00L-68.28,111.77L-90.14,97.51L-112.56,20.20L-107.63,5.83L-132.81,13.14C-178.72,27.41 -195.13,64.98 -183.21,106.07C-178.02,123.96 -167.44,138.13 -159.47,140.85ZM-145.23,115.65C-147.88,116.41 -153.00,107.84 -159.28,86.19C-165.75,63.88 -169.10,30.85 -139.57,22.04C-133.00,45.52 -141.03,114.43 -145.23,115.65ZM3.69,10.66L4.10,9.59L-25.03,-21.48L-27.90,-20.64C-35.55,1.69 -38.30,32.66 -37.53,59.26L-57.91,-10.98L-94.04,15.54L-74.08,28.19L-51.27,106.83L-24.10,98.95L-29.78,85.99C-36.25,63.68 -30.48,13.39 -27.77,11.17ZM68.46,-42.61L67.76,-45.04L32.64,-34.85L21.75,-72.40L7.68,-27.61L-8.01,-23.06L10.79,-14.39L28.99,48.35C39.17,81.80 56.19,78.54 64.14,76.23C77.84,72.26 86.86,46.41 85.94,20.10L83.25,19.92C82.58,34.96 77.51,54.63 70.44,56.68C64.48,58.41 59.68,58.37 52.63,34.07L36.61,-21.16ZM99.39,-106.90L62.62,-82.58L82.57,-69.93L119.48,57.30L148.20,48.97L140.97,36.46C135.59,17.91 140.64,-23.31 145.34,-48.38L147.17,-48.68C152.10,-40.77 158.57,-25.88 168.57,8.58L177.79,40.39L219.54,28.28L197.69,14.02L190.25,-11.60C177.18,-56.66 174.88,-62.94 164.01,-78.95L143.97,-67.15C141.19,-59.39 133.25,-22.37 134.12,12.83Z" fill="#ffffff" stroke="#000000"/>
    <path d="M-1010.55,-7.14L-990.84,11.29L-957.09,113.95L-961.88,140.91L-916.49,125.99C-887.32,116.40 -850.32,94.89 -860.55,63.77C-867.80,41.73 -887.98,34.23 -915.69,36.64C-902.34,25.54 -888.17,10.35 -894.57,-9.10C-903.02,-34.82 -932.31,-32.86 -963.43,-22.62ZM-969.15,-13.08L-962.02,-15.42C-947.97,-20.04 -928.25,-21.98 -919.73,3.96C-914.19,20.82 -923.25,37.69 -949.62,46.35ZM-925.53,119.62L-947.84,51.76C-921.47,43.09 -900.40,44.54 -891.02,73.07C-884.20,93.82 -898.08,110.60 -919.05,117.49ZM-802.60,88.55C-796.60,63.82 -791.27,29.74 -793.87,-3.65L-788.22,22.27L-769.96,77.82L-728.68,64.25L-750.79,50.92L-775.65,-24.72L-771.28,-39.09L-795.91,-31.00C-840.80,-15.28 -855.70,22.43 -842.49,62.62C-836.73,80.13 -825.78,93.77 -817.81,96.18ZM-804.61,70.77C-807.20,71.62 -812.56,63.32 -819.53,42.14C-826.70,20.32 -831.17,-12.22 -802.28,-21.96C-794.97,1.02 -800.50,69.42 -804.61,70.77ZM-657.15,40.73L-617.60,27.73L-637.76,15.92L-667.11,-73.34L-695.20,-64.10L-687.63,-51.99C-681.52,-33.40 -685.43,9.32 -689.35,33.83C-693.06,25.47 -698.25,11.86 -710.26,-24.67L-721.91,-60.11L-761.34,-42.36L-739.23,-29.03L-722.11,23.05C-716.92,38.83 -709.42,52.17 -705.85,58.66L-686.97,50.54C-684.49,42.78 -677.94,5.90 -680.02,-28.86ZM-603.55,23.11L-500.46,-10.78L-513.50,-58.46L-514.72,-58.54L-531.33,-9.25L-566.99,2.47L-587.66,-60.42L-531.47,-78.89L-534.67,-88.62L-590.86,-70.15L-610.54,-130.01L-576.83,-141.09L-539.18,-111.80L-538.10,-112.16L-553.02,-157.54L-652.22,-124.93L-632.51,-106.51L-598.76,-3.85ZM-420.31,-117.35L-419.94,-118.43L-449.82,-148.12L-452.63,-147.20C-459.41,-124.85 -461.05,-94.14 -459.36,-67.87L-481.95,-136.60L-516.74,-109.12L-496.58,-97.31L-471.28,-20.37L-444.70,-29.11L-450.76,-41.72C-457.94,-63.55 -453.99,-113.46 -451.39,-115.75ZM-288.66,-80.40L-309.63,-90.28L-355.10,-228.59L-390.60,-203.27L-370.43,-191.46L-364.18,-172.44C-403.17,-154.84 -415.84,-118.34 -403.76,-81.60C-398.01,-64.09 -385.76,-50.88 -377.78,-48.47L-362.57,-56.11C-356.57,-80.83 -351.25,-114.91 -353.85,-148.30L-348.20,-122.38L-329.30,-64.89ZM-364.59,-73.88C-367.18,-73.03 -373.84,-80.90 -380.80,-102.08C-387.98,-123.91 -391.15,-156.87 -362.26,-166.61C-354.94,-143.63 -360.48,-75.23 -364.59,-73.88ZM-222.44,-156.53C-222.44,-156.53 -225.42,-115.32 -240.98,-110.21C-248.76,-107.65 -258.65,-118.05 -266.49,-135.35L-232.37,-191.83C-233.79,-196.15 -247.02,-214.55 -267.56,-207.80C-294.14,-199.06 -304.03,-154.86 -293.80,-123.74C-284.35,-94.99 -266.84,-84.70 -247.61,-91.03C-226.64,-97.92 -217.79,-135.07 -218.28,-155.51ZM-268.63,-140.39C-269.84,-143.35 -271.12,-146.52 -272.26,-149.98C-283.62,-184.56 -279.27,-193.89 -276.16,-197.55C-273.99,-200.42 -259.77,-193.59 -251.52,-172.12ZM-190.40,-232.44L-225.19,-204.96L-205.03,-193.15L-179.73,-116.21L-151.64,-125.45L-159.21,-137.57C-165.18,-155.72 -161.63,-196.64 -157.86,-221.59L-156.06,-221.94C-150.91,-214.29 -143.99,-199.81 -132.91,-166.09L-122.68,-134.97L-81.83,-148.40L-103.93,-161.73L-112.18,-186.80C-126.67,-230.88 -129.16,-237.01 -140.46,-252.45L-159.87,-240.09C-162.35,-232.33 -168.90,-195.45 -166.82,-160.69ZM-48.89,-233.22L-44.20,-218.96L132.15,-276.93L127.47,-291.20ZM164.51,-393.42L184.22,-374.99L217.96,-272.33L213.17,-245.38L258.56,-260.30C287.74,-269.89 324.73,-291.39 314.50,-322.51C307.25,-344.55 287.07,-352.05 259.36,-349.64C272.72,-360.74 286.88,-375.93 280.49,-395.38C272.03,-421.10 242.74,-419.14 211.62,-408.91ZM205.90,-399.36L213.03,-401.71C227.08,-406.33 246.80,-408.26 255.32,-382.32C260.87,-365.47 251.80,-348.60 225.44,-339.93ZM249.52,-266.66L227.21,-334.53C253.58,-343.19 274.65,-341.74 284.03,-313.21C290.85,-292.46 276.97,-275.69 256.01,-268.80ZM408.33,-309.53L447.88,-322.53L427.72,-334.34L398.37,-423.60L370.28,-414.37L377.85,-402.25C383.96,-383.66 380.05,-340.94 376.13,-316.43C372.42,-324.79 367.23,-338.41 355.22,-374.93L343.57,-410.38L304.14,-392.62L326.25,-379.30L343.37,-327.21C348.56,-311.43 356.06,-298.09 359.63,-291.60L378.51,-299.73C380.99,-307.49 387.54,-344.37 385.46,-379.12ZM451.76,-476.83L427.29,-490.82L415.67,-464.97L440.43,-450.84ZM486.73,-355.90L457.31,-445.37L422.52,-417.89L442.69,-406.08L467.98,-329.14L508.83,-342.57ZM486.28,-473.09L488.41,-466.61L475.77,-455.51L495.94,-443.70L527.20,-348.61L568.05,-362.04L545.94,-375.36L501.61,-510.22L466.11,-484.90ZM678.92,-398.48L657.95,-408.35L612.48,-546.67L576.98,-521.35L597.15,-509.54L603.40,-490.52C564.41,-472.91 551.74,-436.42 563.81,-399.68C569.57,-382.17 581.82,-368.96 589.79,-366.55L605.00,-374.18C611.01,-398.91 616.33,-432.99 613.73,-466.38L619.38,-440.46L638.28,-382.97ZM602.99,-391.96C600.40,-391.11 593.74,-398.98 586.78,-420.16C579.60,-441.99 576.43,-474.95 605.32,-484.69C612.63,-461.71 607.10,-393.31 602.99,-391.96ZM-293.13,191.20L-190.04,157.31L-203.08,109.63L-204.30,109.55L-220.91,158.83L-256.57,170.56L-277.24,107.66L-221.05,89.19L-224.25,79.47L-280.44,97.94L-300.12,38.07L-266.41,26.99L-228.76,56.28L-227.68,55.93L-242.60,10.54L-341.80,43.15L-322.09,61.58L-288.34,164.24ZM-141.85,141.46C-135.84,116.74 -130.52,82.66 -133.12,49.27L-127.47,75.19L-109.21,130.73L-67.93,117.16L-90.03,103.84L-114.90,28.19L-110.52,13.82L-135.16,21.92C-180.05,37.64 -194.95,75.34 -181.74,115.54C-175.98,133.05 -165.03,146.69 -157.06,149.10ZM-143.86,123.68C-146.45,124.54 -151.81,116.24 -158.78,95.06C-165.95,73.23 -170.42,40.70 -141.53,30.96C-134.22,53.94 -139.75,122.33 -143.86,123.68ZM-0.31,14.71L0.05,13.63L-29.83,-16.06L-32.64,-15.14C-39.42,7.21 -41.06,37.92 -39.37,64.19L-61.96,-4.54L-96.75,22.94L-76.58,34.75L-51.29,111.69L-24.71,102.96L-30.77,90.34C-37.95,68.51 -34.00,18.60 -31.40,16.31ZM61.86,-40.21L61.08,-42.59L26.71,-31.29L14.63,-68.03L2.29,-23.26L-13.05,-18.22L5.83,-10.30L26.01,51.08C37.24,83.79 53.95,79.97 61.73,77.41C75.13,73.01 83.15,47.14 81.32,21.16L78.65,21.08C78.52,35.97 74.19,55.60 67.28,57.87C61.44,59.79 56.69,59.91 48.88,36.14L31.12,-17.89ZM90.18,-104.84L54.68,-79.52L74.85,-67.71L115.77,56.77L143.87,47.54L136.29,35.42C130.32,17.27 133.87,-23.65 137.65,-48.60L139.45,-48.95C144.60,-41.31 151.51,-26.82 162.60,6.90L172.83,38.02L213.68,24.59L191.57,11.26L183.33,-13.81C168.84,-57.90 166.34,-64.02 155.04,-79.47L135.64,-67.10C133.16,-59.34 126.60,-22.46 128.69,12.30Z" fill="#ffffff" stroke="#000000"/>
    <path d="M-1003.20,32.61L-983.08,50.13L-946.14,150.42L-949.93,177.24L-905.60,160.91C-877.09,150.41 -841.28,127.86 -852.47,97.46C-860.41,75.93 -880.62,69.22 -907.92,72.57C-895.11,61.13 -881.64,45.62 -888.64,26.62C-897.89,1.49 -926.77,4.46 -957.17,15.66ZM-962.50,25.29L-955.53,22.72C-941.81,17.67 -922.38,15.07 -913.05,40.41C-906.99,56.88 -915.35,73.86 -941.11,83.35ZM-914.75,154.93L-939.17,88.63C-913.41,79.14 -892.53,79.85 -882.27,107.72C-874.80,127.98 -887.94,145.05 -908.42,152.59ZM-794.33,119.92C-789.26,95.28 -785.19,61.41 -788.92,28.50L-782.43,53.92L-762.45,108.18L-722.12,93.33L-744.43,80.93L-771.65,7.03L-767.82,-7.33L-791.89,1.54C-835.71,18.63 -849.13,56.43 -834.66,95.70C-828.36,112.80 -817.06,125.90 -809.10,128.00ZM-796.94,102.42C-799.47,103.36 -805.06,95.34 -812.68,74.65C-820.53,53.33 -826.09,21.32 -797.87,10.69C-789.84,33.15 -792.93,100.95 -796.94,102.42ZM-652.23,67.59L-613.60,53.36L-633.94,42.39L-666.06,-44.81L-693.51,-34.70L-685.59,-22.99C-678.91,-4.83 -681.29,37.53 -684.30,61.90C-688.26,53.76 -693.87,40.48 -707.01,4.80L-719.76,-29.82L-758.11,-10.90L-735.80,1.50L-717.06,52.38C-711.38,67.79 -703.51,80.72 -699.75,87.01L-681.37,78.32C-679.19,70.56 -674.00,33.88 -677.27,-0.40ZM-599.87,48.30L-499.16,11.21L-513.71,-35.46L-514.92,-35.50L-529.62,13.80L-564.46,26.63L-587.09,-34.81L-532.19,-55.03L-535.69,-64.53L-590.59,-44.31L-612.13,-102.80L-579.19,-114.93L-540.96,-87.29L-539.90,-87.68L-556.23,-132.02L-653.14,-96.32L-633.02,-78.80L-596.08,21.49ZM-423.66,-96.92L-423.33,-98.00L-453.90,-126.31L-456.65,-125.30C-462.57,-102.97 -463.12,-72.56 -460.53,-46.66L-485.26,-113.80L-518.69,-85.42L-498.34,-74.45L-470.66,0.71L-444.69,-8.85L-451.12,-21.11C-458.98,-42.43 -456.82,-91.91 -454.33,-94.26ZM-292.25,-65.00L-313.32,-74.02L-363.09,-209.15L-397.29,-182.88L-376.95,-171.91L-370.10,-153.34C-408.03,-134.57 -419.28,-98.06 -406.06,-62.16C-399.76,-45.06 -387.19,-32.43 -379.23,-30.33L-364.46,-38.40C-359.39,-63.05 -355.32,-96.92 -359.05,-129.83L-352.56,-104.41L-331.88,-48.25ZM-367.07,-55.91C-369.60,-54.97 -376.46,-62.52 -384.08,-83.21C-391.93,-104.53 -396.22,-137.00 -368.00,-147.63C-359.97,-125.18 -363.06,-57.38 -367.07,-55.91ZM-229.46,-142.55C-229.46,-142.55 -230.96,-101.72 -246.17,-96.12C-253.77,-93.32 -263.90,-103.25 -272.25,-120.08L-240.50,-177.09C-242.06,-181.31 -255.78,-199.04 -275.84,-191.65C-301.81,-182.09 -310.04,-138.05 -298.85,-107.65C-288.50,-79.57 -270.84,-70.01 -252.05,-76.93C-231.57,-84.47 -224.11,-121.51 -225.30,-141.69ZM-274.54,-124.99C-275.84,-127.87 -277.22,-130.96 -278.46,-134.34C-290.91,-168.12 -286.93,-177.50 -283.98,-181.22C-281.94,-184.13 -267.65,-177.88 -258.74,-156.95ZM-200.44,-218.70L-233.87,-190.33L-213.52,-179.36L-185.84,-104.19L-158.39,-114.30L-166.30,-126.01C-172.83,-143.75 -170.75,-184.32 -167.89,-209.11L-166.13,-209.52C-160.77,-202.14 -153.43,-188.06 -141.30,-155.12L-130.10,-124.72L-90.19,-139.42L-112.51,-151.82L-121.53,-176.31C-137.39,-219.39 -140.07,-225.35 -151.78,-240.22L-170.53,-227.32C-172.70,-219.57 -177.90,-182.89 -174.62,-148.61ZM-60.59,-224.41L-55.46,-210.48L116.82,-273.93L111.69,-287.87ZM144.74,-390.19L164.86,-372.67L201.80,-272.38L198.00,-245.57L242.34,-261.90C270.85,-272.40 306.66,-294.94 295.46,-325.34C287.53,-346.88 267.32,-353.58 240.02,-350.24C252.83,-361.67 266.30,-377.18 259.30,-396.18C250.05,-421.31 221.17,-418.34 190.76,-407.15ZM185.44,-397.51L192.41,-400.08C206.13,-405.13 225.56,-407.73 234.89,-382.40C240.95,-365.93 232.58,-348.94 206.83,-339.45ZM233.19,-267.88L208.77,-334.17C234.53,-343.66 255.41,-342.96 265.67,-315.09C273.14,-294.82 260.00,-277.75 239.52,-270.21ZM388.66,-315.79L427.30,-330.02L406.95,-340.99L374.84,-428.19L347.39,-418.08L355.30,-406.36C361.99,-388.21 359.60,-345.85 356.59,-321.48C352.64,-329.61 347.03,-342.89 333.88,-378.58L321.13,-413.20L282.78,-394.28L305.09,-381.88L323.83,-331.00C329.51,-315.58 337.39,-302.66 341.14,-296.37L359.52,-305.06C361.70,-312.81 366.89,-349.49 363.62,-383.77ZM425.74,-482.66L401.07,-495.63L390.48,-469.68L415.45,-456.57ZM464.52,-364.35L432.33,-451.76L398.90,-423.38L419.25,-412.41L446.93,-337.25L486.84,-351.95ZM459.99,-480.17L462.32,-473.84L450.22,-462.43L470.57,-451.46L504.78,-358.56L544.69,-373.26L522.38,-385.66L473.85,-517.41L439.65,-491.14ZM653.00,-413.15L631.93,-422.17L582.16,-557.30L547.96,-531.03L568.30,-520.06L575.15,-501.48C537.22,-482.72 525.97,-446.21 539.19,-410.31C545.49,-393.21 558.06,-380.58 566.02,-378.48L580.79,-386.55C585.86,-411.20 589.93,-445.07 586.20,-477.98L592.69,-452.56L613.37,-396.40ZM578.18,-404.05C575.65,-403.12 568.79,-410.67 561.17,-431.36C553.32,-452.68 549.03,-485.15 577.25,-495.78C585.28,-473.33 582.19,-405.53 578.18,-404.05ZM-287.19,203.61L-186.48,166.51L-201.03,119.84L-202.24,119.81L-216.94,169.10L-251.78,181.93L-274.40,120.49L-219.51,100.27L-223.01,90.77L-277.90,110.99L-299.44,52.50L-266.51,40.37L-228.27,68.01L-227.22,67.62L-243.55,23.28L-340.46,58.98L-320.34,76.50L-283.40,176.79ZM-139.40,149.17C-134.33,124.52 -130.26,90.66 -133.99,57.74L-127.50,83.17L-107.52,137.43L-67.19,122.58L-89.50,110.17L-116.72,36.28L-112.89,21.92L-136.96,30.78C-180.78,47.88 -194.19,85.67 -179.73,124.94C-173.43,142.04 -162.13,155.15 -154.17,157.25ZM-142.01,131.67C-144.54,132.60 -150.13,124.59 -157.75,103.90C-165.60,82.57 -171.16,50.57 -142.94,39.94C-134.91,62.40 -137.99,130.19 -142.01,131.67ZM-3.93,18.95L-3.61,17.87L-34.17,-10.43L-36.92,-9.42C-42.84,12.90 -43.39,43.32 -40.80,69.22L-65.53,2.08L-98.96,30.45L-78.62,41.42L-50.93,116.59L-24.96,107.02L-31.39,94.77C-39.25,73.44 -37.09,23.97 -34.60,21.62ZM55.60,-37.50L54.75,-39.83L21.18,-27.46L7.96,-63.35L-2.68,-18.67L-17.67,-13.15L1.27,-5.98L23.36,53.98C35.60,85.92 51.98,81.56 59.58,78.76C72.67,73.94 79.70,48.09 76.98,22.48L74.34,22.49C74.73,37.22 71.14,56.76 64.38,59.25C58.68,61.35 53.99,61.64 45.44,38.41L26.00,-14.37ZM81.34,-102.37L47.14,-76.11L67.48,-65.14L112.28,56.48L139.72,46.37L131.81,34.65C125.28,16.92 127.36,-23.65 130.22,-48.44L131.99,-48.85C137.34,-41.47 144.69,-27.39 156.82,5.54L168.02,35.95L207.92,21.25L185.61,8.85L176.59,-15.65C160.72,-58.72 158.05,-64.68 146.34,-79.55L127.59,-66.65C125.41,-58.90 120.22,-22.22 123.49,12.06Z" fill="#ffffff" stroke="#000000"/>
    <path d="M-910.99,465.97L-908.82,469.92L-908.82,487.97L-910.99,492L-903.01,492C-897.88,492 -890.88,490.52 -890.88,485.05C-890.88,481.17 -893.70,478.93 -898.22,477.86C-895.52,476.80 -892.48,475.13 -892.48,471.71C-892.48,467.19 -897.23,465.97 -902.70,465.97ZM-904.11,467.19L-902.85,467.19C-900.38,467.19 -897.15,467.91 -897.15,472.47C-897.15,475.43 -899.47,477.64 -904.11,477.64ZM-904.11,490.52L-904.11,478.59C-899.47,478.59 -896.20,479.92 -896.20,484.93C-896.20,488.58 -899.28,490.52 -902.97,490.52ZM-886.02,470.11L-886.02,471.25L-888.60,472.35L-886.02,475.28L-886.02,492L-878.84,492L-881.65,488.73L-881.65,465.02L-888.60,467.19ZM-866.26,492L-859.31,492L-861.89,489.07L-861.89,473.38L-866.83,473.38L-866.26,475.70C-866.26,478.97 -869.11,485.54 -871.01,489.23C-871.16,487.71 -871.28,485.27 -871.28,478.85L-871.28,472.62L-878.46,473.38L-875.65,476.65L-875.65,485.81C-875.65,488.58 -875.15,491.09 -874.92,492.30L-871.50,492C-870.71,490.90 -867.74,485.39 -866.26,479.76ZM-846.42,492L-839.47,492L-842.05,489.07L-842.05,473.38L-846.99,473.38L-846.42,475.70C-846.42,478.97 -849.27,485.54 -851.17,489.23C-851.33,487.71 -851.44,485.27 -851.44,478.85L-851.44,472.62L-858.62,473.38L-855.81,476.65L-855.81,485.81C-855.81,488.58 -855.32,491.09 -855.09,492.30L-851.67,492C-850.87,490.90 -847.91,485.39 -846.42,479.76ZM-818.95,492L-813.33,492L-814.88,489.80L-814.88,469.50L-812.22,465.97L-819.75,465.97L-816.63,469.24L-816.63,487.67L-831.45,465.97L-837.42,465.97L-833.92,470.80L-833.92,488.47L-836.58,492L-829.13,492L-832.21,488.73L-832.21,473.42ZM-796.11,483.37C-796.11,483.37 -798.73,489.76 -801.47,489.76C-802.84,489.76 -803.86,487.59 -804.21,484.44L-795.85,477.26C-795.85,476.50 -796.99,472.89 -800.60,472.89C-805.27,472.89 -809.15,479.38 -809.15,484.86C-809.15,489.91 -806.90,492.46 -803.52,492.46C-799.84,492.46 -796.49,487.02 -795.50,483.75ZM-804.28,483.53C-804.32,482.99 -804.36,482.42 -804.36,481.82C-804.36,475.74 -803.18,474.48 -802.50,474.06C-802.00,473.72 -800.10,475.55 -799.91,479.38ZM-781.06,492L-774.68,492L-777.87,489.53L-782.39,481.74C-780.99,479.92 -778.59,476.65 -777.42,473.38L-782.85,473.38L-780.38,475.47C-780.38,477.60 -781.94,479.42 -782.93,480.83L-787.26,473.38L-793.64,473.38L-790.87,475.77L-786.54,482.99C-788.17,485.05 -791.48,488.92 -792.58,492L-786.80,492L-789.08,489.91C-789.08,487.90 -787.18,485.54 -785.97,483.91ZM-760.77,473.80L-760.77,473.38L-766.81,473.38L-766.81,466.92L-771.11,473.38L-773.81,473.38L-771.22,475.62L-771.22,486.41C-771.15,492.19 -768.30,492.46 -766.93,492.46C-764.57,492.46 -761.95,488.77 -760.89,484.55L-761.30,484.40C-762.10,486.76 -763.81,489.64 -765.03,489.64C-766.05,489.64 -766.81,489.42 -766.81,485.24L-766.81,475.74ZM-758.45,479.84L-758.45,482.73L-749.98,482.73L-749.98,479.84ZM-746.83,465.97L-744.66,469.92L-744.66,487.97L-746.83,492L-738.85,492C-733.72,492 -726.72,490.52 -726.72,485.05C-726.72,481.17 -729.54,478.93 -734.06,477.86C-731.36,476.80 -728.32,475.13 -728.32,471.71C-728.32,467.19 -733.07,465.97 -738.54,465.97ZM-739.95,467.19L-738.69,467.19C-736.22,467.19 -732.99,467.91 -732.99,472.47C-732.99,475.43 -735.31,477.64 -739.95,477.64ZM-739.95,490.52L-739.95,478.59C-735.31,478.59 -732.04,479.92 -732.04,484.93C-732.04,488.58 -735.12,490.52 -738.81,490.52ZM-723.80,484.44C-723.80,489.57 -720.68,492.53 -716.62,492.53C-711.45,492.53 -706.96,487.10 -706.96,481.17C-706.96,476.15 -709.85,472.92 -714.60,472.92C-719.96,472.92 -723.80,478.32 -723.80,484.44ZM-716.08,474.14C-714.94,474.14 -711.98,476.19 -711.98,482.88C-711.98,489.15 -714.22,491.28 -715.36,491.28C-716.50,491.28 -719.01,488.20 -719.01,481.89C-719.01,475.17 -717.22,474.14 -716.08,474.14ZM-702.82,470.11L-702.82,471.25L-705.41,472.35L-702.82,475.28L-702.82,492L-695.64,492L-698.45,488.73L-698.45,465.02L-705.41,467.19ZM-676.15,492L-678.96,489.34L-678.96,465.02L-685.91,467.19L-683.33,470.11L-683.33,473.46C-690.43,474.22 -694.35,479.35 -694.35,485.81C-694.35,488.88 -693.09,491.62 -691.95,492.42L-689.14,492C-686.90,488.39 -684.28,483.26 -682.95,477.83L-683.40,482.23L-683.40,492.34ZM-688.53,489.07C-688.99,489.07 -689.64,487.48 -689.64,483.75C-689.64,479.92 -688.42,474.52 -683.33,474.48C-683.37,478.51 -687.81,489.07 -688.53,489.07ZM-671.36,487.97L-674.02,492L-663.99,492L-666.65,487.97L-666.65,470.00L-663.99,465.97L-674.02,465.97L-671.36,470.00ZM-649.13,473.80L-649.13,473.38L-655.17,473.38L-655.17,466.92L-659.46,473.38L-662.16,473.38L-659.58,475.62L-659.58,486.41C-659.50,492.19 -656.65,492.46 -655.28,492.46C-652.93,492.46 -650.31,488.77 -649.24,484.55L-649.66,484.40C-650.46,486.76 -652.17,489.64 -653.38,489.64C-654.41,489.64 -655.17,489.42 -655.17,485.24L-655.17,475.74ZM-642.29,492C-640.05,488.39 -637.42,483.26 -636.09,477.83L-636.55,482.23L-636.55,492L-629.29,492L-632.10,488.73L-632.10,475.43L-630.66,473.38L-634.99,473.38C-642.93,473.53 -647.27,478.74 -647.27,485.81C-647.27,488.88 -646.24,491.62 -645.10,492.42ZM-641.68,489.07C-642.14,489.07 -642.55,487.48 -642.55,483.75C-642.55,479.92 -641.57,474.52 -636.47,474.48C-636.51,478.51 -640.96,489.07 -641.68,489.07ZM-626.06,470.11L-626.06,471.25L-628.65,472.35L-626.06,475.28L-626.06,492L-618.88,492L-621.69,488.73L-621.69,465.02L-628.65,467.19ZM-610.52,467.72L-613.67,464.22L-616.87,467.72L-613.67,471.25ZM-611.28,488.73L-611.28,473L-618.23,475.55L-615.65,478.47L-615.65,492L-608.47,492ZM-594.98,478.32L-594.86,478.17L-597.52,472.85L-597.90,472.85C-602.54,474.03 -607.18,479.27 -607.18,485.05C-607.18,490.10 -604.74,492.46 -601.59,492.46C-599.61,492.46 -596.08,489.53 -594.10,483.72L-594.71,483.34C-596.46,487.36 -598.51,489.76 -599.77,489.76C-601.48,489.76 -602.39,486.68 -602.39,481.78C-602.39,479.27 -601.74,475.77 -601.02,475.77Z"/>
</svg>