<?xml version="1.0"?>
<svg xmlns="http://www.w3.org/2000/svg" width="1920" height="1080" viewBox="-960 -540 1920 1080">
    <path d="M-513.50,-210L-469.25,-367L-425,-210L-401.25,-210L-355.25,-386.50L-377.75,-392.02L-413,-238.75L-455,-390L-483.50,-390L-524.25,-238.75L-560.25,-392.02L-583.25,-386.50L-537.25,-210ZM-336.25,-210L-313.59,-210L-313.59,-280.75L-303.83,-313.69L-278.42,-325.23L-257.33,-315.48L-251.24,-288.92L-251.25,-210L-228.81,-210L-228.71,-289.10L-237.25,-328.93L-273.84,-344.62L-297.84,-339.11L-313.62,-322.25L-313.62,-390L-336.25,-390ZM-117.40,-297.19L-190.71,-274.70L-205.63,-243.62L-192.24,-214.10L-160.51,-204.86L-137.23,-209.38L-115.90,-225.04L-116,-210L-95,-210L-94.97,-293.86L-106.81,-332.03L-145.71,-345.13L-180.71,-336.58L-197.72,-311.21L-179.88,-300.24L-168.42,-320.00L-148.01,-326.75L-126.13,-320.35ZM-117.40,-277.30L-117.41,-244.38L-133.32,-230.45L-156.92,-223.21L-173.86,-227.60L-181.64,-244.62L-171.61,-262.29ZM-5.30,-208.26L-5.30,-208.26L-7.89,-227.65L-17.97,-226.14L-28.81,-231.63L-30.75,-248L-30.75,-322.75L-8.50,-322.75L-8.50,-340L-30.75,-340L-30.75,-385L-53.25,-385L-53.25,-340L-71.75,-340L-71.75,-322.75L-53.25,-322.75L-53.25,-248L-48.12,-216.61L-22.50,-205.85ZM106.57,-361.74L114.70,-370.64L114.72,-383.35L106.43,-392.46L94.87,-392.46L86.80,-383.37L86.80,-370.67L95.01,-361.74ZM112,-210L112,-340L89.50,-340L89.50,-210ZM158.11,-250.27L138.99,-241.34L151.72,-215.83L190.23,-204.84L226.98,-213.99L243.81,-245.13L233.71,-271.80L211.81,-283.06L181.50,-291.25L164.65,-298L159.13,-308.38L166.36,-321.21L187.57,-325.91L207.95,-320.35L216.71,-303.81L235.64,-312.74L224.63,-334.52L188.43,-345.13L152.57,-335.92L137.16,-305.85L147.16,-281.99L169.71,-271.22L201.75,-262.75L216.84,-255.17L220.83,-243.13L210.79,-228.03L191.00,-224.02L167.10,-231.88ZM416.60,-297.19L343.29,-274.70L328.37,-243.62L341.76,-214.10L373.49,-204.86L396.77,-209.38L418.10,-225.04L418,-210L439,-210L439.03,-293.86L427.19,-332.03L388.29,-345.13L353.29,-336.58L336.28,-311.21L354.12,-300.24L365.58,-320.00L385.99,-326.75L407.87,-320.35ZM416.60,-277.30L416.59,-244.38L400.68,-230.45L377.08,-223.21L360.14,-227.60L352.36,-244.62L362.39,-262.29ZM-396.88,0.24L-441.90,-21.41L-456.31,-75.01L-440.94,-128.59L-396.88,-150.23L-361.60,-138.25L-344.87,-107.14L-323.70,-117.84L-345.78,-154.60L-396.88,-170.63L-460.38,-142.60L-481.80,-74.99L-460.38,-7.39L-396.88,20.63L-345.89,4.34L-324.21,-31.14L-344.87,-42.61L-363.31,-11.52ZM-270.50,15L-270.50,-165L-293,-165L-293,15ZM-220.93,-136.74L-212.80,-145.64L-212.78,-158.35L-221.07,-167.46L-232.63,-167.46L-240.70,-158.37L-240.70,-145.67L-232.49,-136.74ZM-215.50,15L-215.50,-115L-238,-115L-238,15ZM-184.17,15L-161.62,15L-161.62,-52.25L-155.48,-85.56L-128.93,-100.70L-111.35,-92.60L-105.57,-70.03L-105.57,15L-83.07,15L-83.07,-60.25L-75.03,-88.68L-50.14,-100.70L-31.05,-90.47L-26.75,-67.48L-26.75,15L-4.25,15L-4.25,-75.50L-14.31,-108.36L-45.29,-120.09L-68.75,-114.45L-86.57,-94.75L-99.71,-113.68L-123.40,-119.97L-147.00,-114.87L-163.87,-96.50L-163.87,-115L-184.12,-115ZM106.10,-72.19L32.79,-49.70L17.87,-18.62L31.26,10.90L62.99,20.14L86.27,15.62L107.60,-0.04L107.50,15L128.50,15L128.53,-68.86L116.69,-107.03L77.79,-120.13L42.79,-111.58L25.78,-86.21L43.62,-75.24L55.08,-95.00L75.49,-101.75L97.37,-95.35ZM106.10,-52.30L106.09,-19.38L90.18,-5.45L66.58,1.79L49.64,-2.60L41.86,-19.62L51.89,-37.29ZM218.20,16.74L218.20,16.74L215.61,-2.65L205.53,-1.14L194.69,-6.63L192.75,-23L192.75,-97.75L215,-97.75L215,-115L192.75,-115L192.75,-160L170.25,-160L170.25,-115L151.75,-115L151.75,-97.75L170.25,-97.75L170.25,-23L175.38,8.39L201.00,19.15ZM270.87,-9.73L257.75,-44.23L354.25,-44.25L355.50,-53.25L340.61,-100.87L295.51,-120.22L251.40,-101.61L234.83,-50.10L251.40,1.41L295.51,20.03L332.65,9.06L349.75,-17.75L332.23,-28.69L318.60,-6.44L296.79,0.89ZM258.50,-62.25L272.62,-92.01L295.49,-101.13L321.00,-90.28L331.25,-62.25ZM-581.13,240L-521.38,240L-455.64,217.16L-433.97,149.48L-457.05,81.66L-524.63,60L-581.13,60ZM-557.38,219L-557.38,81.25L-524.63,81.25L-476.87,95.06L-458.95,149.24L-474.77,202.69L-523.88,219ZM-380.26,215.27L-393.37,180.77L-296.88,180.75L-295.63,171.75L-310.51,124.13L-355.61,104.78L-399.72,123.39L-416.30,174.90L-399.72,226.41L-355.61,245.03L-318.47,234.06L-301.38,207.25L-318.89,196.31L-332.53,218.56L-354.34,225.89ZM-392.63,162.75L-378.50,132.99L-355.63,123.87L-330.13,134.72L-319.88,162.75ZM-258.02,199.73L-277.13,208.66L-264.41,234.17L-225.89,245.16L-189.14,236.01L-172.31,204.87L-182.42,178.20L-204.32,166.94L-234.63,158.75L-251.47,152L-257.00,141.62L-249.76,128.79L-228.55,124.09L-208.18,129.65L-199.42,146.19L-180.49,137.26L-191.50,115.48L-227.70,104.87L-263.56,114.08L-278.96,144.15L-268.97,168.01L-246.41,178.78L-214.38,187.25L-199.28,194.83L-195.29,206.87L-205.34,221.97L-225.13,225.98L-249.03,218.12ZM-131.30,88.26L-123.17,79.36L-123.15,66.65L-131.44,57.54L-143.00,57.54L-151.07,66.63L-151.08,79.33L-142.86,88.26ZM-125.88,240L-125.88,110L-148.38,110L-148.38,240ZM-44.40,294.39L2.17,274.85L13.38,231.50L13.38,110L-6.63,110L-6.63,127.50L-21.35,110.89L-44.15,104.39L-86.35,123.96L-101,174.51L-86.35,225.06L-44.15,244.63L-24.01,239.83L-9.13,226.25L-9.19,235.79L-17.14,264.89L-43.87,275.00L-64.68,269.13L-72.88,251.50L-90.88,259.75L-79.53,283.67ZM-42.87,123.52L-18.02,136.41L-6.38,174.53L-17.08,212.65L-42.87,225.52L-68.00,212.65L-78.04,174.53L-68.00,136.41ZM45.51,240L68.01,240L68.01,169.25L77.76,135.85L103.19,124.30L124.27,134.05L130.38,160.25L130.38,240L152.88,240L152.88,160.25L144.36,120.60L107.77,104.91L83.47,110.27L65.76,128.75L65.76,110L45.51,110ZM212.24,215.27L199.13,180.77L295.63,180.75L296.88,171.75L281.99,124.13L236.89,104.78L192.78,123.39L176.20,174.90L192.78,226.41L236.89,245.03L274.03,234.06L291.13,207.25L273.61,196.31L259.97,218.56L238.16,225.89ZM199.88,162.75L214.00,132.99L236.87,123.87L262.37,134.72L272.63,162.75ZM375.98,126.66L392.88,132.25L399.63,113.25L377.60,104.91L356.12,111.57L341.13,132.50L341.13,110L320.88,110L320.88,238.73L343.38,240L343.38,169.75L351.60,138.41ZM475.29,243.14L484.16,234.11L484.10,221.41L475.14,212.47L462.55,212.54L453.68,221.56L453.74,234.26L462.70,243.20ZM457.28,196.95L479.08,196.95L479.08,190.06L482.44,171.86L494.60,156.92L516.36,135.90L526.47,105.91L510.34,68.40L467.81,54.41L429.58,68.69L414.78,102.10L433.90,110.76L445.23,83.50L468.02,74.80L492.00,82.14L502.19,107.44L495.55,128.12L480.48,142.88L462.58,163.03L457.28,190.06Z" fill="#ffffff" stroke="#000000"/>
    <path d="M-525.92,-172.96L-491.74,-330.79L-438.47,-178.34L-415.00,-179.78L-380.28,-356.99L-402.85,-361.08L-428.36,-207.48L-479.06,-354.38L-507.22,-352.65L-538.29,-200.71L-583.18,-349.98L-605.57,-343.12L-549.39,-171.52ZM-350.77,-183.74L-328.38,-185.11L-332.68,-255.02L-325.05,-288.16L-300.64,-301.11L-279.20,-292.76L-271.57,-266.89L-266.78,-188.90L-244.61,-190.27L-249.32,-268.44L-260.18,-307.27L-297.29,-320.55L-320.66,-313.65L-335.24,-296.03L-339.35,-362.98L-361.72,-361.60ZM-139.82,-283.19L-210.89,-256.51L-223.74,-224.90L-208.72,-196.54L-176.81,-189.34L-154.08,-195.23L-133.95,-211.99L-133.14,-197.13L-112.39,-198.40L-117.45,-281.27L-131.47,-318.26L-170.71,-328.84L-204.77,-318.27L-220.04,-292.17L-201.74,-282.41L-191.63,-302.63L-171.86,-310.55L-149.85,-305.56ZM-138.61,-263.54L-136.62,-231.02L-151.49,-216.28L-174.37,-207.69L-191.38,-211.00L-200.11,-227.34L-191.26,-245.41ZM-23.65,-202.13L-23.64,-202.14L-27.39,-221.14L-37.25,-219.04L-48.30,-223.80L-51.21,-239.86L-55.75,-313.72L-33.77,-315.07L-34.82,-332.12L-56.80,-330.77L-59.54,-375.23L-81.77,-373.86L-79.03,-329.40L-97.32,-328.27L-96.27,-311.23L-77.99,-312.35L-73.44,-238.49L-66.46,-207.78L-40.49,-198.71ZM77.57,-360.59L85.06,-369.88L84.31,-382.44L75.56,-390.94L64.14,-390.24L56.72,-380.77L57.49,-368.22L66.15,-359.89ZM92.16,-210.99L84.25,-339.44L62.02,-338.08L69.92,-209.62ZM135.27,-253.59L116.92,-243.60L131.05,-219.16L169.78,-210.64L205.53,-221.92L220.27,-253.71L208.66,-279.46L186.34,-289.25L155.89,-295.50L138.83,-301.14L132.74,-311.07L139.11,-324.18L159.78,-330.12L180.26,-325.87L189.92,-310.05L208.08,-320.03L195.88,-340.87L159.46,-349.16L124.59,-337.88L111.19,-307.23L122.52,-284.26L145.46,-274.99L177.64,-268.57L193.01,-261.99L197.68,-250.34L188.68,-234.81L169.37,-229.64L145.27,-235.96ZM387.84,-315.66L316.77,-288.98L303.92,-257.36L318.94,-229.00L350.86,-221.80L373.58,-227.69L393.71,-244.45L394.53,-229.59L415.28,-230.87L410.21,-313.74L396.19,-350.73L356.95,-361.31L322.89,-350.73L307.62,-324.63L325.92,-314.88L336.04,-335.09L355.80,-343.01L377.81,-338.02ZM389.05,-296.00L391.04,-263.48L376.17,-248.74L353.29,-240.15L336.29,-243.46L327.56,-259.81L336.40,-277.88ZM-397.90,27.69L-443.70,9.04L-461.20,-43.05L-449.27,-96.93L-407.05,-120.99L-371.46,-111.30L-353.04,-81.57L-332.77,-93.43L-356.82,-128.41L-408.29,-141.14L-469.33,-109.59L-486.39,-41.48L-461.11,24.02L-396.66,47.84L-347.27,28.65L-328.00,-7.73L-349.12,-17.80L-365.44,14.03ZM-272.12,34.60L-283.07,-143.27L-305.30,-141.90L-294.36,35.96ZM-232.37,-118.35L-224.87,-127.64L-225.63,-140.20L-234.37,-148.70L-245.79,-148.00L-253.21,-138.53L-252.45,-125.98L-243.79,-117.65ZM-217.78,31.25L-225.68,-97.20L-247.91,-95.84L-240.01,32.62ZM-186.82,29.35L-164.54,27.98L-168.62,-38.47L-164.58,-71.76L-139.27,-88.33L-121.40,-81.40L-114.32,-59.45L-109.15,24.57L-86.92,23.20L-91.49,-51.16L-85.28,-79.74L-61.41,-93.12L-41.93,-84.18L-36.28,-61.73L-31.27,19.78L-9.03,18.41L-14.54,-71.02L-26.47,-102.88L-57.80,-112.58L-80.64,-105.59L-97.05,-85.03L-111.18,-102.94L-134.97,-107.72L-157.99,-101.24L-173.54,-82.06L-174.66,-100.34L-194.67,-99.11ZM94.71,-74.45L23.63,-47.77L10.78,-16.16L25.81,12.20L57.72,19.40L80.45,13.52L100.57,-3.25L101.39,11.62L122.14,10.34L117.07,-72.53L103.06,-109.52L63.82,-120.10L29.75,-109.53L14.48,-83.43L32.78,-73.67L42.90,-93.89L62.66,-101.81L84.68,-96.81ZM95.92,-54.80L97.91,-22.28L83.03,-7.54L60.16,1.05L43.15,-2.26L34.42,-18.60L43.26,-36.67ZM210.88,6.61L210.88,6.60L207.14,-12.40L197.27,-10.29L186.23,-15.06L183.32,-31.12L178.77,-104.98L200.76,-106.33L199.71,-123.38L177.72,-122.02L174.99,-166.49L152.76,-165.12L155.49,-120.66L137.21,-119.53L138.26,-102.49L156.54,-103.61L161.08,-29.75L168.06,0.96L194.03,10.03ZM261.31,-22.75L246.26,-56.04L341.61,-61.93L342.30,-70.90L324.69,-117.05L278.95,-133.43L236.49,-112.36L223.25,-60.45L242.76,-10.56L287.48,5.15L323.51,-7.95L338.77,-35.47L320.80,-45.21L308.68,-22.41L287.57,-13.84ZM245.90,-73.90L258.04,-104.16L280.09,-114.56L305.95,-105.40L317.79,-78.32ZM-565.38,275.81L-506.34,272.18L-442.78,245.61L-425.48,177.42L-452.41,111.80L-520.50,94.51L-576.33,97.95ZM-543.19,253.62L-551.57,117.50L-519.21,115.51L-471.18,126.25L-450.18,178.70L-462.55,232.48L-510.09,251.58ZM-368.40,239.16L-383.46,205.87L-288.11,199.98L-287.42,191.01L-305.03,144.86L-350.77,128.49L-393.22,149.56L-406.47,201.47L-386.96,251.36L-342.24,267.07L-306.21,253.97L-290.94,226.44L-308.92,216.70L-321.04,239.51L-342.15,248.08ZM-383.82,188.02L-371.67,157.76L-349.63,147.35L-323.76,156.52L-311.93,183.59ZM-248.56,216.37L-266.91,226.36L-252.78,250.79L-214.05,259.32L-178.30,248.04L-163.56,216.24L-175.17,190.50L-197.49,180.71L-227.94,174.46L-245.00,168.81L-251.08,158.89L-244.72,145.78L-224.04,139.84L-203.57,144.09L-193.91,159.91L-175.75,149.93L-187.95,129.09L-224.37,120.80L-259.24,132.08L-272.63,162.72L-261.31,185.70L-238.36,194.96L-206.19,201.39L-190.82,207.97L-186.15,219.62L-195.15,235.15L-214.46,240.32L-238.56,234.00ZM-130.13,98.53L-122.63,89.24L-123.39,76.68L-132.13,68.18L-143.55,68.88L-150.97,78.35L-150.21,90.90L-141.55,99.23ZM-115.54,248.13L-123.44,119.68L-145.67,121.04L-137.77,249.50ZM-31.72,296.92L13.11,274.78L21.54,231.27L14.16,111.21L-5.61,112.43L-4.54,129.72L-20.10,114.20L-43.02,109.16L-83.54,131.06L-94.94,181.91L-77.39,230.97L-34.49,247.74L-14.89,241.78L-1.01,227.45L-0.49,236.88L-6.58,266.11L-32.38,277.73L-53.30,273.20L-62.47,256.27L-79.75,265.52L-67.09,288.47ZM-40.60,127.99L-15.26,139.21L-1.44,176.18L-9.69,214.49L-34.40,228.78L-60.01,217.59L-72.25,180.53L-64.64,142.25ZM53.81,237.71L76.04,236.35L71.74,166.44L79.35,132.84L103.78,119.88L125.20,128.24L132.82,153.75L137.67,232.55L159.91,231.19L155.06,152.38L144.23,113.72L107.13,100.44L83.44,107.22L67.06,126.55L65.92,108.03L45.91,109.26ZM217.06,203.14L202.01,169.85L297.36,163.96L298.05,154.99L280.44,108.84L234.70,92.46L192.24,113.54L179.00,165.44L198.51,215.33L243.23,231.04L279.26,217.95L294.52,190.42L276.55,180.68L264.43,203.49L243.32,212.06ZM201.65,152.00L213.79,121.73L235.84,111.33L261.70,120.49L273.54,147.57ZM373.47,105.63L390.51,110.12L396.02,90.94L373.75,84.04L352.93,91.92L339.39,113.52L338.02,91.28L318.01,92.52L325.83,219.72L348.14,219.60L343.87,150.19L350.10,118.72ZM478.69,214.68L486.90,205.23L486.07,192.68L476.68,184.40L464.23,185.22L456.02,194.68L456.85,207.23L466.24,215.51ZM458.09,170.14L479.62,168.82L479.20,162.01L481.41,143.82L492.52,128.31L512.75,106.22L520.92,75.97L502.69,39.89L459.82,28.65L422.91,45.08L410.32,79.00L429.73,86.39L439.27,58.77L461.27,48.79L485.40,54.58L497.02,78.96L491.71,99.80L477.72,115.31L461.25,136.30L457.67,163.34Z" fill="#ffffff" stroke="#000000"/>
    <path d="M-535.61,-135.28L-511.44,-293.30L-449.54,-145.91L-426.44,-148.77L-402.90,-325.96L-425.45,-328.63L-441.32,-175.32L-500.34,-317.38L-528.06,-313.95L-549.52,-161.95L-602.95,-306.70L-624.66,-298.57L-558.71,-132.43ZM-363.22,-156.57L-341.18,-159.30L-349.68,-228.11L-344.15,-261.31L-320.82,-275.59L-299.13,-268.65L-290.02,-243.55L-280.55,-166.79L-258.72,-169.48L-268.13,-246.43L-281.22,-284.14L-318.69,-295.00L-341.37,-286.77L-354.69,-268.47L-362.83,-334.36L-384.84,-331.64ZM-160.83,-267.66L-229.44,-236.98L-240.21,-204.97L-223.64,-177.86L-191.68,-172.69L-169.58,-179.88L-150.71,-197.67L-149.00,-183.03L-128.58,-185.56L-138.62,-267.13L-154.72,-302.82L-194.13,-310.89L-227.15,-298.37L-240.64,-271.65L-221.97,-263.13L-213.20,-283.72L-194.16,-292.75L-172.11,-289.15ZM-158.45,-248.32L-154.50,-216.31L-168.30,-200.84L-190.38,-190.96L-207.39,-193.20L-217.01,-208.82L-209.37,-227.21ZM-41.13,-194.64L-41.12,-194.64L-45.98,-213.19L-55.60,-210.51L-66.80,-214.55L-70.65,-230.24L-79.63,-302.94L-57.99,-305.61L-60.06,-322.39L-81.70,-319.72L-87.11,-363.48L-108.99,-360.78L-103.59,-317.01L-121.58,-314.79L-119.51,-298.01L-101.52,-300.23L-92.54,-227.53L-83.77,-197.62L-57.56,-190.23ZM49.24,-357.35L56.08,-366.99L54.58,-379.35L45.42,-387.22L34.18,-385.83L27.42,-376.02L28.94,-363.67L38.00,-355.96ZM72.75,-210.43L57.14,-336.86L35.25,-334.16L50.87,-207.72ZM112.76,-255.14L95.24,-244.15L110.68,-220.87L149.46,-214.80L184.11,-228.12L196.74,-260.43L183.70,-285.16L161.05,-293.47L130.59,-297.80L113.39,-302.34L106.77,-311.78L112.27,-325.12L132.33,-332.24L152.82,-329.28L163.32,-314.25L180.66,-325.21L167.33,-345.06L130.85,-351.03L97.08,-337.77L85.71,-306.68L98.30,-284.66L121.53,-276.91L153.71,-272.51L169.30,-266.95L174.62,-255.72L166.67,-239.83L147.90,-233.55L123.71,-238.33ZM358.54,-331.82L289.94,-301.14L279.16,-269.12L295.73,-242.01L327.70,-236.84L349.79,-244.04L368.66,-261.82L370.37,-247.19L390.80,-249.71L380.75,-331.28L364.65,-366.98L325.24,-375.04L292.23,-362.53L278.73,-335.81L297.40,-327.28L306.17,-347.87L325.21,-356.90L347.27,-353.30ZM360.93,-312.47L364.87,-280.46L351.07,-264.99L328.99,-255.12L311.99,-257.35L302.37,-272.97L310.00,-291.36ZM-396.93,55.19L-443.32,39.55L-463.77,-10.86L-455.26,-64.82L-415.01,-91.16L-379.26,-83.75L-359.25,-55.49L-339.94,-68.45L-365.83,-101.54L-417.46,-110.99L-475.85,-76.11L-488.56,-7.77L-459.61,55.40L-394.48,75.02L-346.84,53.06L-330.02,15.94L-351.49,7.27L-365.69,39.72ZM-272.24,54.36L-293.86,-120.71L-315.75,-118.00L-294.12,57.07ZM-242.26,-99.17L-235.42,-108.80L-236.92,-121.17L-246.08,-129.04L-257.32,-127.65L-264.08,-117.84L-262.56,-105.49L-253.50,-97.78ZM-218.75,47.76L-234.36,-78.68L-256.25,-75.98L-240.63,50.46ZM-188.27,43.99L-166.34,41.28L-174.42,-24.13L-172.45,-57.26L-148.45,-75.17L-130.38,-69.41L-122.04,-48.15L-111.83,34.55L-89.94,31.85L-98.98,-41.34L-94.58,-69.96L-71.81,-84.64L-52.02,-76.98L-45.07,-55.14L-35.17,25.08L-13.28,22.38L-24.15,-65.64L-37.88,-96.40L-69.43,-104.08L-91.57,-95.78L-106.53,-74.48L-121.58,-91.31L-145.38,-94.58L-167.72,-86.78L-181.92,-66.89L-184.15,-84.89L-203.84,-82.45ZM83.57,-75.68L14.97,-45.00L4.20,-12.98L20.77,14.13L52.73,19.30L74.83,12.10L93.70,-5.68L95.41,8.95L115.83,6.43L105.79,-75.14L89.69,-110.84L50.28,-118.90L17.26,-106.39L3.76,-79.67L22.44,-71.14L31.20,-91.73L50.25,-100.76L72.30,-97.16ZM85.96,-56.33L89.90,-24.32L76.10,-8.85L54.03,1.02L37.02,-1.21L27.40,-16.83L35.04,-35.22ZM203.28,-2.65L203.28,-2.66L198.43,-21.20L188.81,-18.52L177.61,-22.56L173.76,-38.25L164.78,-110.95L186.42,-113.62L184.34,-130.40L162.70,-127.73L157.30,-171.50L135.41,-168.79L140.82,-125.03L122.83,-122.80L124.90,-106.03L142.89,-108.25L151.87,-35.55L160.64,-5.63L186.84,1.75ZM251.33,-34.73L234.43,-66.71L328.28,-78.32L328.41,-87.22L308.21,-131.75L262.02,-145.15L221.36,-121.75L211.43,-69.66L233.73,-21.55L278.87,-8.75L313.68,-23.88L327.09,-52.00L308.73,-60.54L298.15,-37.27L277.81,-27.51ZM232.99,-84.32L243.15,-114.96L264.30,-126.58L290.41,-119.10L303.75,-93.06ZM-547.32,310.52L-489.21,303.34L-428.02,273.23L-415.07,204.80L-445.68,141.61L-514.00,128.66L-568.95,135.45ZM-526.75,287.24L-543.30,153.26L-511.44,149.33L-463.34,157.02L-439.40,207.57L-448.36,261.46L-494.17,283.21ZM-354.93,262.33L-371.83,230.36L-277.98,218.74L-277.84,209.84L-298.05,165.31L-344.24,151.91L-384.90,175.31L-394.83,227.40L-372.53,275.51L-327.39,288.31L-292.58,273.18L-279.17,245.06L-297.52,236.52L-308.11,259.80L-328.44,269.55ZM-373.27,212.74L-363.11,182.10L-341.96,170.48L-315.85,177.96L-302.51,204.00ZM-237.91,232.53L-255.43,243.52L-239.98,266.80L-201.20,272.86L-166.56,259.55L-153.93,227.24L-166.96,202.51L-189.62,194.19L-220.08,189.87L-237.28,185.32L-243.90,175.89L-238.40,162.55L-218.34,155.42L-197.85,158.38L-187.35,173.42L-170.01,162.46L-183.33,142.60L-219.81,136.63L-253.59,149.90L-264.95,180.99L-252.37,203.00L-229.13,210.76L-196.96,215.15L-181.37,220.71L-176.04,231.94L-184.00,247.83L-202.76,254.12L-226.95,249.34ZM-128.05,108.90L-121.21,99.27L-122.72,86.90L-131.88,79.03L-143.12,80.42L-149.88,90.23L-148.36,102.58L-139.30,110.29ZM-104.54,255.83L-120.16,129.39L-142.05,132.09L-126.43,258.53ZM-18.77,298.93L24.18,274.33L29.87,230.83L15.27,112.66L-4.18,115.06L-2.08,132.08L-18.40,117.70L-41.35,114.11L-80.04,138.21L-88.22,189.14L-67.90,236.55L-24.50,250.51L-5.49,243.43L7.36,228.43L8.44,237.71L4.20,266.97L-20.58,280.01L-41.53,276.81L-51.62,260.64L-68.13,270.83L-54.23,292.73ZM-37.81,132.57L-12.09,142.11L3.81,177.79L-2.01,216.15L-25.55,231.77L-51.54,222.27L-65.88,186.40L-60.70,148.12ZM62.14,235.24L84.03,232.53L75.53,163.72L81.00,130.06L104.35,115.78L126.02,122.73L135.11,147.48L144.69,225.04L166.57,222.34L156.99,144.77L143.94,107.23L106.47,96.37L83.48,104.50L68.47,124.60L66.22,106.36L46.52,108.80ZM221.34,191.15L204.44,159.17L298.29,147.56L298.43,138.66L278.22,94.13L232.04,80.73L191.37,104.13L181.44,156.22L203.75,204.33L248.88,217.13L283.69,202.00L297.10,173.88L278.75,165.34L268.16,188.61L247.83,198.37ZM203.00,141.56L213.16,110.92L234.31,99.30L260.42,106.78L273.76,132.82ZM369.95,85.30L387.05,88.71L391.33,69.42L368.91,63.95L348.82,73.01L336.75,95.17L334.05,73.28L314.35,75.72L329.82,200.92L351.85,199.45L343.41,131.13L347.65,99.65ZM480.53,186.65L488.07,176.81L486.49,164.47L476.70,156.85L464.46,158.42L456.92,168.27L458.51,180.61L468.29,188.23ZM457.47,143.90L478.67,141.28L477.84,134.58L478.92,116.47L488.95,100.48L507.60,77.42L513.82,47.04L493.62,12.49L450.58,4.00L415.12,22.47L404.73,56.75L424.37,62.87L432.11,35.00L453.24,23.80L477.44,28.06L490.39,51.44L486.41,72.35L473.54,88.52L458.54,110.27L456.64,137.20Z" fill="#ffffff" stroke="#000000"/>
    <path d="M-542.56,-97.16L-528.28,-254.74L-458.17,-112.90L-435.52,-117.12L-423.04,-293.61L-445.48,-294.87L-451.84,-142.45L-518.78,-279.21L-545.96,-274.14L-557.92,-122.67L-619.50,-262.42L-640.45,-253.07L-565.21,-92.94ZM-373.54,-128.68L-351.93,-132.71L-364.51,-200.17L-361.06,-233.31L-338.88,-248.84L-317.03,-243.29L-306.51,-219.05L-292.49,-143.79L-271.09,-147.78L-285.06,-223.23L-300.29,-259.69L-337.96,-268.14L-359.87,-258.63L-371.92,-239.74L-383.96,-304.34L-405.54,-300.32ZM-180.35,-250.73L-246.26,-216.25L-254.96,-183.96L-236.94,-158.19L-205.05,-155.02L-183.65,-163.48L-166.10,-182.20L-163.52,-167.84L-143.49,-171.57L-158.37,-251.55L-176.45,-285.84L-215.87,-291.41L-247.73,-277.04L-259.44,-249.82L-240.47,-242.53L-233.06,-263.41L-214.80,-273.48L-192.79,-271.27ZM-176.81,-231.76L-170.98,-200.38L-183.67,-184.26L-204.88,-173.16L-221.82,-174.33L-232.27,-189.18L-225.84,-207.81ZM-57.65,-185.86L-57.65,-185.87L-63.57,-203.89L-72.91,-200.66L-84.22,-203.97L-88.98,-219.23L-102.27,-290.51L-81.06,-294.47L-84.12,-310.92L-105.34,-306.96L-113.34,-349.87L-134.80,-345.87L-126.79,-302.96L-144.44,-299.67L-141.37,-283.22L-123.73,-286.51L-110.44,-215.23L-99.96,-186.21L-73.62,-180.51ZM21.74,-352.10L27.91,-362.04L25.67,-374.16L16.15,-381.38L5.12,-379.32L-0.96,-369.22L1.30,-357.11L10.72,-350.05ZM53.90,-208.38L30.78,-332.34L9.33,-328.34L32.44,-204.38ZM90.70,-254.98L74.06,-243.06L90.74,-221.00L129.42,-217.37L162.83,-232.63L173.34,-265.32L158.96,-288.95L136.08,-295.79L105.72,-298.21L88.46,-301.66L81.34,-310.58L85.96,-324.09L105.35,-332.35L125.77,-330.67L137.06,-316.45L153.52,-328.33L139.15,-347.14L102.75,-350.82L70.19,-335.66L60.85,-304.26L74.62,-283.27L98.05,-277.02L130.10,-274.64L145.84,-270.09L151.78,-259.32L144.89,-243.14L126.74,-235.79L102.54,-239.04ZM328.85,-345.68L262.94,-311.20L254.24,-278.91L272.26,-253.14L304.16,-249.97L325.55,-258.42L343.11,-277.14L345.69,-262.79L365.71,-266.52L350.83,-346.50L332.76,-380.78L293.33,-386.36L261.47,-371.98L249.76,-344.77L268.73,-337.48L276.14,-358.35L294.41,-368.43L316.41,-366.22ZM332.39,-326.71L338.23,-295.33L325.54,-279.21L304.32,-268.11L287.39,-269.28L276.94,-284.13L283.36,-302.76ZM-393.97,82.58L-440.75,69.94L-464.02,21.39L-458.89,-32.44L-420.73,-60.91L-384.96,-55.76L-363.47,-29.06L-345.19,-43.03L-372.77,-74.15L-424.35,-80.35L-479.92,-42.34L-488.32,25.94L-455.88,86.59L-390.35,102.02L-344.62,77.43L-330.26,39.73L-352.00,32.48L-364.05,65.40ZM-270.84,74.18L-302.84,-97.46L-324.30,-93.46L-292.29,78.18ZM-250.55,-79.32L-244.37,-89.25L-246.62,-101.38L-256.14,-108.59L-267.16,-106.54L-273.24,-96.44L-270.99,-84.33L-261.57,-77.27ZM-218.39,64.40L-241.50,-59.56L-262.96,-55.56L-239.85,68.40ZM-188.52,58.83L-167.01,54.82L-178.97,-9.30L-179.04,-42.16L-156.41,-61.31L-138.21,-56.72L-128.68,-36.22L-113.57,44.86L-92.11,40.86L-105.49,-30.90L-102.88,-59.44L-81.28,-75.32L-61.26,-68.96L-53.07,-47.81L-38.40,30.84L-16.95,26.84L-33.04,-59.46L-48.47,-89.00L-80.10,-94.68L-101.48,-85.13L-114.96,-63.18L-130.86,-78.89L-154.56,-80.68L-176.16,-71.61L-188.98,-51.10L-192.27,-68.74L-211.58,-65.14ZM72.78,-75.92L6.87,-41.44L-1.83,-9.15L16.19,16.62L48.08,19.79L69.47,11.34L87.03,-7.38L89.61,6.97L109.64,3.24L94.75,-76.74L76.68,-111.02L37.25,-116.60L5.40,-102.22L-6.31,-75.01L12.65,-67.72L20.06,-88.59L38.33,-98.67L60.33,-96.46ZM76.31,-56.95L82.15,-25.57L69.46,-9.45L48.25,1.65L31.31,0.48L20.86,-14.37L27.29,-33.00ZM195.48,-11.05L195.48,-11.05L189.56,-29.08L180.22,-25.85L168.90,-29.16L164.15,-44.42L150.86,-115.70L172.07,-119.66L169.00,-136.11L147.79,-132.15L139.79,-175.06L118.33,-171.06L126.33,-128.15L108.69,-124.86L111.76,-108.41L129.40,-111.70L142.69,-40.42L153.17,-11.40L179.51,-5.70ZM240.99,-45.66L222.35,-76.22L314.37,-93.40L313.96,-102.20L291.30,-144.97L244.85,-155.40L206.10,-129.81L199.45,-77.74L224.41,-31.57L269.79,-21.66L303.25,-38.73L314.79,-67.33L296.14,-74.64L287.10,-51.01L267.60,-40.14ZM219.86,-93.54L228.04,-124.43L248.22,-137.19L274.48,-131.39L289.24,-106.47ZM-527.03,343.96L-470.06,333.34L-411.44,299.87L-402.80,231.48L-436.88,170.91L-505.16,162.28L-559.04,172.32ZM-508.12,319.72L-532.61,188.36L-501.38,182.54L-453.39,187.21L-426.67,235.70L-432.24,289.48L-476.17,313.76ZM-339.89,284.67L-358.53,254.10L-266.52,236.93L-266.92,228.12L-289.59,185.36L-336.03,174.93L-374.79,200.52L-381.43,252.58L-356.47,298.75L-311.10,308.66L-277.63,291.60L-266.09,262.99L-284.74,255.68L-293.79,279.31L-313.28,290.19ZM-361.02,236.79L-352.85,205.90L-332.66,193.14L-306.41,198.94L-291.65,223.85ZM-226.09,248.11L-242.73,260.03L-226.05,282.09L-187.37,285.73L-153.96,270.47L-143.45,237.78L-157.83,214.14L-180.71,207.30L-211.07,204.88L-228.33,201.44L-235.45,192.52L-230.83,179.01L-211.44,170.75L-191.02,172.42L-179.73,186.64L-163.27,174.76L-177.64,155.95L-214.04,152.27L-246.60,167.43L-255.94,198.84L-242.17,219.82L-218.74,226.07L-186.69,228.45L-170.95,233.00L-165.01,243.77L-171.90,259.95L-190.05,267.30L-214.25,264.05ZM-125.08,119.30L-118.91,109.36L-121.15,97.24L-130.67,90.02L-141.69,92.08L-147.77,102.18L-145.52,114.29L-136.10,121.35ZM-92.92,263.02L-116.04,139.06L-137.49,143.06L-114.38,267.02ZM-5.56,300.39L35.37,273.48L38.35,230.15L16.75,114.30L-2.32,117.85L0.79,134.54L-16.21,121.32L-39.10,119.17L-75.86,145.34L-80.85,196.15L-57.89,241.75L-14.16,252.90L4.18,244.75L15.96,229.15L17.60,238.26L15.19,267.42L-8.50,281.81L-29.39,279.92L-40.34,264.56L-56.03,275.63L-40.97,296.42ZM-34.48,137.19L-8.50,145.06L9.38,179.34L5.96,217.59L-16.34,234.45L-42.59,226.64L-58.94,192.08L-56.15,153.94ZM70.50,232.55L91.96,228.55L79.38,161.08L82.74,127.49L104.94,111.97L126.77,117.51L137.25,141.41L151.43,217.46L172.89,213.46L158.71,137.41L143.53,101.12L105.86,92.66L83.64,102.09L70.03,122.86L66.70,104.98L47.39,108.58ZM225.10,179.32L206.46,148.75L298.47,131.58L298.06,122.77L275.40,80.01L228.95,69.58L190.20,95.17L183.56,147.23L208.52,193.41L253.89,203.31L287.36,186.25L298.89,157.65L280.24,150.33L271.20,173.97L251.70,184.84ZM203.97,131.44L212.14,100.55L232.33,87.79L258.58,93.59L273.34,118.50ZM365.48,65.71L382.58,68.04L385.64,48.72L363.16,44.68L343.86,54.85L333.28,77.48L329.28,56.02L309.97,59.62L332.86,182.37L354.54,179.58L342.05,112.60L344.32,81.24ZM480.89,159.12L487.74,148.94L485.42,136.84L475.30,129.91L463.29,132.21L456.45,142.39L458.76,154.49L468.89,161.42ZM455.51,118.28L476.29,114.41L475.06,107.84L475.03,89.88L483.97,73.47L500.99,49.56L505.29,19.16L483.24,-13.73L440.20,-19.51L406.28,0.90L398.11,35.39L417.88,40.25L423.83,12.24L444.03,-0.10L468.19,2.63L482.41,24.94L479.75,45.84L468.01,62.60L454.52,84.99L454.28,111.71Z" fill="#ffffff" stroke="#000000"/>
    <path d="M-546.74,-58.81L-542.21,-215.34L-464.34,-79.48L-442.22,-85.03L-440.62,-260.12L-462.86,-260.01L-459.88,-109.06L-534.32,-240.08L-560.86,-233.42L-563.47,-83.07L-632.79,-217.38L-652.92,-206.86L-568.86,-53.26ZM-381.70,-100.21L-360.60,-105.51L-377.12,-171.39L-375.73,-204.33L-354.77,-221.02L-332.85,-216.87L-320.97,-193.56L-302.55,-120.07L-281.65,-125.31L-300.04,-198.99L-317.30,-234.08L-355.03,-240.14L-376.09,-229.41L-386.85,-210.02L-402.67,-273.11L-423.74,-267.82ZM-198.28,-232.52L-261.29,-194.45L-267.92,-162.03L-248.56,-137.67L-216.86,-136.48L-196.24,-146.13L-180.03,-165.69L-176.61,-151.66L-157.06,-156.57L-176.62,-234.66L-196.56,-267.44L-235.84,-270.55L-266.44,-254.41L-276.35,-226.82L-257.17,-220.77L-251.12,-241.84L-233.69,-252.90L-211.82,-252.06ZM-193.63,-214.00L-185.96,-183.35L-197.52,-166.66L-217.80,-154.40L-234.60,-154.54L-245.82,-168.57L-240.61,-187.36ZM-73.13,-175.90L-73.13,-175.90L-80.07,-193.35L-89.10,-189.59L-100.48,-192.18L-106.11,-206.96L-123.57,-276.56L-102.85,-281.76L-106.88,-297.82L-127.60,-292.63L-138.11,-334.53L-159.06,-329.27L-148.55,-287.37L-165.78,-283.05L-161.75,-266.99L-144.52,-271.31L-127.06,-201.71L-114.95,-173.68L-88.58,-169.64ZM-4.81,-344.94L0.68,-355.13L-2.27,-366.97L-12.12,-373.52L-22.88,-370.82L-28.27,-360.47L-25.31,-348.65L-15.57,-342.24ZM35.69,-204.92L5.32,-325.97L-15.63,-320.72L14.74,-199.67ZM69.21,-253.20L53.50,-240.41L71.31,-219.63L109.74,-218.39L141.82,-235.50L150.22,-268.42L134.58,-290.90L111.56,-296.26L81.42,-296.81L64.16,-299.16L56.59,-307.54L60.33,-321.17L78.98,-330.51L99.25,-330.09L111.27,-316.74L126.81,-329.47L111.47,-347.17L75.29,-348.60L44.05,-331.65L36.73,-300.06L51.61,-280.16L75.13,-275.41L106.94,-275.01L122.76,-271.47L129.29,-261.19L123.46,-244.79L105.98,-236.43L81.88,-238.17ZM298.95,-357.26L235.94,-319.19L229.31,-286.77L248.67,-262.41L280.38,-261.22L300.99,-270.87L317.20,-290.43L320.62,-276.40L340.17,-281.31L320.61,-359.40L300.68,-392.18L261.39,-395.28L230.80,-379.15L220.88,-351.55L240.06,-345.51L246.11,-366.58L263.54,-377.64L285.41,-376.79ZM303.60,-338.74L311.27,-308.09L299.72,-291.40L279.44,-279.14L262.64,-279.27L251.41,-293.30L256.63,-312.10ZM-389.04,109.71L-436.02,100.07L-461.95,53.53L-460.16,0.04L-424.19,-30.40L-388.54,-27.49L-365.70,-2.42L-348.48,-17.33L-377.63,-46.40L-428.95,-49.39L-481.54,-8.46L-485.69,59.50L-449.95,117.44L-384.28,128.70L-340.60,101.62L-328.71,63.52L-350.62,57.67L-360.53,90.92ZM-267.92,93.93L-309.96,-73.67L-330.91,-68.42L-288.87,99.19ZM-257.20,-58.93L-251.71,-69.12L-254.66,-80.96L-264.51,-87.51L-275.27,-84.81L-280.66,-74.46L-277.70,-62.64L-267.96,-56.23ZM-216.70,81.09L-247.07,-39.96L-268.02,-34.71L-237.65,86.34ZM-187.53,73.77L-166.53,68.50L-182.24,5.88L-184.31,-26.57L-163.12,-46.87L-144.86,-43.43L-134.20,-23.77L-114.34,55.41L-93.39,50.15L-110.97,-19.92L-110.12,-48.27L-89.75,-65.27L-69.59,-60.21L-60.22,-39.81L-40.95,37.00L-20.00,31.74L-41.14,-52.53L-58.18,-80.78L-89.77,-84.46L-110.30,-73.73L-122.29,-51.22L-138.94,-65.78L-162.47,-66.11L-183.26,-55.84L-194.67,-34.80L-198.99,-52.02L-217.85,-47.29ZM62.39,-75.22L-0.62,-37.15L-7.25,-4.73L12.11,19.63L43.81,20.82L64.43,11.17L80.64,-8.39L84.06,5.64L103.61,0.73L84.05,-77.36L64.11,-110.14L24.83,-113.25L-5.77,-97.11L-15.68,-69.52L3.50,-63.47L9.55,-84.54L26.98,-95.60L48.85,-94.76ZM67.04,-56.70L74.71,-26.05L63.15,-9.36L42.87,2.90L26.07,2.76L14.85,-11.27L20.06,-30.06ZM187.54,-18.60L187.54,-18.60L180.60,-36.05L171.57,-32.29L160.19,-34.88L154.56,-49.66L137.10,-119.26L157.82,-124.46L153.79,-140.52L133.07,-135.33L122.56,-177.23L101.61,-171.97L112.12,-130.07L94.89,-125.75L98.92,-109.69L116.15,-114.01L133.61,-44.41L145.72,-16.38L172.09,-12.34ZM230.40,-55.55L210.13,-84.61L299.98,-107.17L299.04,-115.85L274.05,-156.71L227.54,-164.19L190.81,-136.56L187.41,-84.72L214.88,-40.63L260.30,-33.60L292.32,-52.49L301.98,-81.45L283.11,-87.54L275.61,-63.64L257.02,-51.72ZM206.62,-101.57L212.81,-132.57L231.98,-146.41L258.26,-142.27L274.36,-118.56ZM-504.59,376.00L-448.96,362.05L-393.09,325.42L-388.72,257.34L-426.05,199.58L-494.03,195.20L-546.64,208.40ZM-487.39,350.90L-519.56,222.64L-489.07,214.98L-441.38,216.69L-412.03,262.96L-414.27,316.42L-456.19,343.08ZM-323.33,306.06L-343.61,276.99L-253.76,254.43L-254.69,245.76L-279.68,204.89L-326.20,197.41L-362.92,225.05L-366.32,276.88L-338.86,320.98L-293.44,328.00L-261.41,309.11L-251.76,280.16L-270.62,274.07L-278.12,297.96L-296.72,309.89ZM-347.12,260.04L-340.92,229.03L-321.76,215.20L-295.47,219.33L-279.38,243.04ZM-213.14,263.03L-228.86,275.81L-211.04,296.59L-172.61,297.83L-140.53,280.72L-132.13,247.80L-147.78,225.32L-170.80,219.96L-200.93,219.41L-218.20,217.06L-225.77,208.68L-222.02,195.05L-203.38,185.71L-183.10,186.13L-171.08,199.48L-155.54,186.75L-170.88,169.05L-207.07,167.62L-238.31,184.57L-245.63,216.16L-230.75,236.06L-207.23,240.81L-175.42,241.21L-159.60,244.75L-153.07,255.03L-158.89,271.43L-176.38,279.79L-200.47,278.05ZM-121.19,129.64L-115.70,119.45L-118.65,107.61L-128.50,101.06L-139.26,103.76L-144.65,114.11L-141.69,125.94L-131.95,132.34ZM-80.69,269.66L-111.06,148.61L-132.01,153.87L-101.64,274.91ZM7.88,301.27L46.68,272.20L46.99,229.22L18.61,116.08L-0.02,120.75L4.07,137.05L-13.52,125.03L-36.27,124.29L-70.99,152.37L-72.83,202.87L-47.38,246.52L-3.51,254.88L14.12,245.71L24.81,229.58L26.98,238.48L26.37,267.43L3.84,283.09L-16.91,282.49L-28.65,267.99L-43.49,279.87L-27.34,299.50ZM-30.61,141.81L-4.46,148.00L15.28,180.79L14.23,218.77L-6.78,236.78L-33.19,230.67L-51.44,197.52L-50.99,159.68ZM78.89,229.63L99.84,224.37L83.31,158.49L84.60,125.11L105.58,108.42L127.48,112.57L139.29,135.54L157.92,209.80L178.87,204.54L160.24,130.29L143.05,95.36L105.32,89.29L83.94,99.96L71.76,121.31L67.38,103.85L48.52,108.58ZM228.37,167.65L208.10,138.59L297.95,116.03L297.01,107.36L272.02,66.49L225.51,59.01L188.78,86.65L185.38,138.48L212.85,182.57L258.27,189.60L290.29,170.71L299.95,141.76L281.08,135.66L273.58,159.56L254.99,171.48ZM204.59,121.63L210.78,90.63L229.95,76.79L256.23,80.93L272.33,104.64ZM360.14,46.89L377.17,48.15L379.02,28.88L356.57,26.26L338.12,37.48L329.04,60.47L323.79,39.52L304.93,44.25L335.00,164.12L356.25,160.04L339.84,94.63L340.18,63.52ZM479.82,132.15L485.96,121.68L482.94,109.86L472.52,103.63L460.80,106.63L454.66,117.11L457.68,128.92L468.10,135.15ZM452.26,93.35L472.56,88.26L470.95,81.85L469.82,64.11L477.66,47.36L493.01,22.70L495.42,-7.58L471.63,-38.74L428.77,-41.83L396.51,-19.61L390.53,14.96L410.35,18.56L414.53,-9.47L433.73,-22.90L457.76,-21.67L473.17,-0.49L471.81,20.32L461.23,37.59L449.27,60.53L450.65,86.94Z" fill="#ffffff" stroke="#000000"/>
    <path d="M-548.17,-20.42L-553.21,-175.30L-468.03,-45.85L-446.53,-52.67L-455.58,-225.71L-477.55,-224.25L-465.43,-75.33L-546.91,-200.22L-572.72,-192.03L-566.17,-43.37L-642.80,-171.81L-662.04,-160.20L-569.68,-13.60ZM-387.67,-71.35L-367.15,-77.86L-387.48,-141.92L-388.11,-174.55L-368.41,-192.30L-346.51,-189.54L-333.36,-167.24L-310.70,-95.77L-290.38,-102.22L-313.02,-173.87L-332.20,-207.48L-369.83,-211.18L-389.98,-199.30L-399.43,-179.49L-418.89,-240.84L-439.39,-234.34ZM-214.54,-213.17L-274.47,-171.75L-279.05,-139.32L-258.44,-116.43L-227.06,-117.18L-207.28,-127.97L-192.46,-148.27L-188.23,-134.63L-169.21,-140.66L-193.28,-216.61L-214.97,-247.77L-253.96,-248.45L-283.19,-230.66L-291.31,-202.79L-272.00,-197.99L-267.30,-219.17L-250.76,-231.15L-229.10,-231.65ZM-208.83,-195.16L-199.39,-165.36L-209.79,-148.17L-229.07,-134.83L-245.68,-133.94L-257.62,-147.12L-253.61,-166.00ZM-87.49,-164.85L-87.49,-164.86L-95.41,-181.67L-104.10,-177.41L-115.50,-179.27L-121.95,-193.53L-143.43,-261.22L-123.28,-267.61L-128.24,-283.23L-148.39,-276.84L-161.31,-317.59L-181.69,-311.12L-168.76,-270.37L-185.51,-265.06L-180.56,-249.44L-163.80,-254.75L-142.33,-187.07L-128.66,-160.12L-102.37,-157.74ZM-30.29,-335.97L-25.48,-346.37L-29.11,-357.89L-39.24,-363.75L-49.70,-360.43L-54.40,-349.89L-50.76,-338.38L-40.75,-332.65ZM18.23,-200.13L-19.12,-317.85L-39.50,-311.39L-2.15,-193.67ZM48.41,-249.85L33.66,-236.27L52.52,-216.83L90.55,-217.94L121.20,-236.78L127.49,-269.82L110.68,-291.07L87.61,-294.96L57.82,-293.68L40.62,-294.95L32.63,-302.76L35.50,-316.45L53.35,-326.81L73.40,-327.63L86.09,-315.17L100.66,-328.69L84.44,-345.24L48.61,-344.45L18.78,-325.81L13.47,-294.16L29.38,-275.42L52.90,-272.16L84.34,-273.69L100.18,-271.16L107.25,-261.40L102.50,-244.85L85.73,-235.52L61.83,-235.78ZM269.00,-366.60L209.08,-325.17L204.50,-292.74L225.10,-269.86L256.49,-270.61L276.26,-281.39L291.08,-301.69L295.31,-288.05L314.33,-294.08L290.26,-370.03L268.58,-401.19L229.59,-401.87L200.35,-384.08L192.23,-356.22L211.54,-351.41L216.24,-372.59L232.79,-384.58L254.44,-385.07ZM274.71,-348.59L284.16,-318.78L273.76,-301.59L254.47,-288.26L237.87,-287.36L225.93,-300.54L229.94,-319.42ZM-382.17,136.45L-429.15,129.78L-457.60,85.38L-459.07,32.45L-425.40,0.19L-390.01,0.90L-365.92,24.27L-349.83,8.50L-380.38,-18.44L-431.26,-18.27L-480.71,25.34L-480.68,92.73L-441.86,147.78L-376.31,154.91L-334.81,125.51L-325.38,87.15L-347.38,82.71L-355.15,116.15ZM-263.49,113.50L-315.20,-49.49L-335.58,-43.03L-283.86,119.97ZM-262.20,-38.14L-257.39,-48.53L-261.02,-60.05L-271.15,-65.92L-281.61,-62.60L-286.31,-52.05L-282.67,-40.55L-272.66,-34.82ZM-213.68,97.70L-251.03,-20.02L-271.41,-13.55L-234.06,104.16ZM-185.31,88.70L-164.89,82.22L-184.22,21.32L-188.23,-10.60L-168.54,-31.94L-150.29,-29.65L-138.57,-10.88L-114.14,66.12L-93.77,59.65L-115.39,-8.49L-116.27,-36.55L-97.19,-54.57L-76.97,-50.80L-66.47,-31.22L-42.77,43.47L-22.39,37.01L-48.40,-44.94L-66.94,-71.81L-98.37,-73.53L-118.00,-61.68L-128.47,-38.72L-145.80,-52.09L-169.06,-50.98L-188.97,-39.58L-198.97,-18.10L-204.28,-34.85L-222.62,-29.03ZM52.48,-73.65L-7.44,-32.22L-12.02,0.21L8.59,23.09L39.97,22.34L59.75,11.56L74.57,-8.74L78.80,4.90L97.81,-1.13L73.75,-77.08L52.06,-108.24L13.07,-108.92L-16.17,-91.13L-24.28,-63.27L-4.97,-58.46L-0.28,-79.64L16.27,-91.63L37.92,-92.12ZM58.20,-55.64L67.64,-25.83L57.24,-8.64L37.95,4.69L21.35,5.59L9.41,-7.59L13.42,-26.47ZM179.53,-25.33L179.54,-25.33L171.62,-42.14L162.93,-37.88L151.53,-39.74L145.07,-54.00L123.60,-121.69L143.74,-128.08L138.79,-143.70L118.64,-137.31L105.71,-178.06L85.34,-171.59L98.27,-130.85L81.52,-125.53L86.47,-109.91L103.22,-115.23L124.70,-47.54L138.37,-20.59L164.65,-18.21ZM219.62,-64.43L197.83,-91.90L285.21,-119.65L283.75,-128.16L256.59,-167.00L210.19,-171.56L175.60,-142.03L175.39,-90.63L205.20,-48.75L250.49,-44.57L280.97,-65.17L288.75,-94.36L269.74,-99.23L263.79,-75.17L246.14,-62.26ZM193.33,-108.44L197.57,-139.44L215.66,-154.27L241.87,-151.78L259.21,-129.34ZM-480.12,406.49L-426.01,389.32L-373.05,349.75L-372.87,282.24L-413.26,227.46L-480.67,227.26L-531.83,243.50ZM-464.64,380.65L-504.22,255.91L-474.57,246.51L-427.36,245.29L-395.56,289.21L-394.53,342.15L-434.31,371.02ZM-305.34,326.39L-327.12,298.91L-239.75,271.17L-241.20,262.66L-268.37,223.81L-314.76,219.25L-349.36,248.78L-349.57,300.18L-319.76,342.07L-274.47,346.25L-243.99,325.64L-236.21,296.46L-255.21,291.59L-261.17,315.65L-278.81,328.55ZM-331.62,282.38L-327.39,251.38L-309.30,236.55L-283.08,239.04L-265.75,261.48ZM-199.11,277.19L-213.85,290.77L-195.00,310.21L-156.96,309.10L-126.32,290.26L-120.02,257.22L-136.84,235.97L-159.90,232.07L-189.70,233.36L-206.90,232.09L-214.88,224.27L-212.02,210.59L-194.16,200.23L-174.11,199.41L-161.43,211.87L-146.86,198.35L-163.08,181.79L-198.91,182.59L-228.74,201.23L-234.04,232.88L-218.14,251.62L-194.62,254.88L-163.18,253.35L-147.33,255.88L-140.26,265.63L-145.02,282.19L-161.78,291.51L-185.69,291.26ZM-116.39,139.85L-111.59,129.46L-115.22,117.94L-125.35,112.07L-135.81,115.39L-140.51,125.94L-136.86,137.44L-126.86,143.17ZM-67.88,275.69L-105.23,157.97L-125.61,164.44L-88.26,282.15ZM21.52,301.53L58.08,270.46L55.77,227.99L20.86,117.97L2.75,123.71L7.78,139.56L-10.33,128.75L-32.84,129.41L-65.43,159.26L-64.17,209.24L-36.38,250.81L7.46,256.40L24.31,246.27L33.89,229.70L36.57,238.35L37.72,266.99L16.43,283.82L-4.10,284.49L-16.59,270.88L-30.52,283.52L-13.37,301.92ZM-26.18,146.37L0.01,150.90L21.51,182.08L22.78,219.66L3.12,238.73L-23.33,234.29L-43.37,202.66L-45.24,165.26ZM87.30,226.45L107.68,219.99L87.35,155.92L86.59,122.87L106.30,105.11L128.19,107.88L141.24,129.85L164.15,202.07L184.53,195.60L161.62,123.39L142.51,89.93L104.88,86.24L84.41,98.07L73.68,119.89L68.29,102.92L49.95,108.73ZM231.18,156.15L209.39,128.68L296.77,100.94L295.31,92.43L268.15,53.58L221.75,49.02L187.16,78.55L186.95,129.95L216.76,171.83L262.05,176.02L292.53,155.41L300.31,126.23L281.30,121.36L275.35,145.41L257.70,158.32ZM204.89,112.15L209.13,81.15L227.22,66.32L253.43,68.81L270.77,91.25ZM353.99,28.87L370.89,29.08L371.55,9.93L349.21,8.71L331.67,20.91L324.11,44.17L317.64,23.80L299.30,29.62L336.29,146.18L357.03,140.87L336.85,77.26L335.29,46.51ZM477.38,105.81L482.82,95.09L479.11,83.61L468.44,78.09L457.05,81.76L451.62,92.48L455.32,103.96L465.99,109.48ZM447.81,69.16L467.54,62.90L465.56,56.66L463.37,39.21L470.09,22.19L483.76,-3.09L484.30,-33.16L458.91,-62.49L416.38,-62.93L385.87,-39.02L382.07,-4.52L401.86,-2.17L404.29,-30.11L422.44,-44.53L446.25,-44.78L462.75,-24.79L462.68,-4.16L453.28,13.54L442.85,36.92L445.83,62.93Z" fill="#ffffff" stroke="#000000"/>
    <path d="M-546.86,17.80L-561.25,-134.85L-469.26,-12.18L-448.44,-20.22L-467.90,-190.57L-489.50,-187.79L-468.48,-41.45L-556.55,-159.84L-581.54,-150.19L-566.03,-3.76L-649.52,-125.96L-667.82,-113.33L-567.69,25.85ZM-391.44,-42.24L-371.57,-49.92L-395.54,-111.96L-398.15,-144.14L-379.77,-162.87L-357.98,-161.47L-343.64,-140.25L-316.91,-71.04L-297.24,-78.64L-323.95,-148.03L-344.93,-180.06L-382.33,-181.43L-401.50,-168.47L-409.63,-148.33L-432.58,-207.74L-452.42,-200.07ZM-229.08,-192.83L-285.75,-148.28L-288.30,-115.97L-266.56,-94.62L-235.61,-97.27L-216.73,-109.12L-203.33,-130.08L-198.32,-116.86L-179.91,-123.97L-208.29,-197.52L-231.60,-226.97L-270.15,-225.28L-297.94,-205.93L-304.27,-177.92L-284.90,-174.34L-281.55,-195.55L-265.94,-208.39L-244.59,-210.19ZM-222.35,-175.39L-211.21,-146.53L-220.44,-128.92L-238.67,-114.58L-255.01,-112.69L-267.61,-124.98L-264.79,-143.87ZM-100.67,-152.83L-100.67,-152.84L-109.51,-168.96L-117.84,-164.22L-129.20,-165.36L-136.45,-179.06L-161.77,-244.60L-142.26,-252.14L-148.10,-267.26L-167.61,-259.73L-182.86,-299.18L-202.59,-291.56L-187.34,-252.10L-203.56,-245.84L-197.72,-230.71L-181.50,-236.98L-156.17,-171.44L-141.04,-145.65L-114.93,-144.90ZM-54.57,-325.30L-50.45,-335.86L-54.74,-347.02L-65.10,-352.20L-75.23,-348.28L-79.23,-337.58L-74.93,-326.44L-64.70,-321.39ZM1.60,-194.10L-42.45,-308.09L-62.17,-300.46L-18.13,-186.48ZM28.38,-245.03L14.64,-230.72L34.45,-212.67L71.94,-216.07L101.06,-236.55L105.27,-269.56L87.37,-289.52L64.36,-291.97L35.01,-288.89L17.95,-289.10L9.59,-296.33L11.59,-310.02L28.59,-321.34L48.34,-323.37L61.62,-311.83L75.20,-326.07L58.17,-341.43L22.83,-338.47L-5.49,-318.25L-8.81,-286.67L8.03,-269.13L31.46,-267.33L62.42,-270.76L78.22,-269.22L85.80,-260.02L82.11,-243.38L66.12,-233.15L42.49,-231.95ZM239.14,-373.74L182.48,-329.18L179.93,-296.88L201.67,-275.53L232.62,-278.18L251.50,-290.03L264.90,-310.98L269.91,-297.76L288.32,-304.88L259.94,-378.42L236.63,-407.87L198.08,-406.18L170.28,-386.83L163.96,-358.82L183.32,-355.25L186.68,-376.45L202.29,-389.29L223.64,-391.09ZM245.88,-356.30L257.02,-327.43L247.79,-309.82L229.55,-295.48L213.21,-293.59L200.62,-305.88L203.43,-324.77ZM-373.38,162.64L-420.19,158.91L-450.98,116.79L-455.66,64.60L-424.36,30.70L-389.37,29.25L-364.16,50.87L-349.22,34.31L-381.03,9.56L-431.27,12.82L-477.45,58.90L-473.33,125.45L-431.65,177.46L-366.48,180.52L-327.28,148.96L-320.29,110.51L-342.30,107.45L-347.93,140.96ZM-257.57,132.77L-318.55,-25.06L-338.28,-17.44L-277.30,140.39ZM-265.51,-17.07L-261.39,-27.63L-265.68,-38.78L-276.04,-43.96L-286.17,-40.05L-290.17,-29.35L-285.87,-18.21L-275.64,-13.15ZM-209.34,114.14L-253.38,0.15L-273.11,7.77L-229.07,121.76ZM-181.87,103.52L-162.10,95.88L-184.88,36.92L-190.78,5.63L-172.63,-16.64L-154.47,-15.49L-141.76,2.34L-112.95,76.90L-93.23,69.27L-118.72,3.29L-121.30,-24.36L-103.55,-43.33L-83.34,-40.83L-71.78,-22.13L-43.84,50.19L-24.11,42.57L-54.77,-36.78L-74.72,-62.19L-105.86,-61.97L-124.53,-49.09L-133.47,-25.77L-151.41,-37.92L-174.31,-35.41L-193.28,-22.94L-201.85,-1.12L-208.11,-17.34L-225.87,-10.48ZM43.11,-71.26L-13.55,-26.70L-16.10,5.60L5.64,26.95L36.59,24.30L55.46,12.45L68.86,-8.50L73.87,4.71L92.29,-2.40L63.90,-75.94L40.59,-105.40L2.05,-103.70L-25.75,-84.35L-32.07,-56.35L-12.71,-52.77L-9.36,-73.97L6.25,-86.82L27.61,-88.62ZM49.85,-53.82L60.99,-24.96L51.76,-7.35L33.52,6.99L17.18,8.88L4.59,-3.40L7.40,-22.30ZM171.53,-31.26L171.53,-31.26L162.68,-47.39L154.36,-42.65L142.99,-43.79L135.75,-57.49L110.43,-123.03L129.94,-130.57L124.09,-145.69L104.58,-138.16L89.34,-177.61L69.61,-169.99L84.85,-130.53L68.63,-124.27L74.48,-109.14L90.70,-115.41L116.02,-49.86L131.15,-24.08L157.26,-23.33ZM208.74,-72.31L185.55,-98.12L270.16,-130.83L268.21,-139.15L239.02,-175.86L192.92,-177.54L160.55,-146.28L163.47,-95.50L195.45,-55.95L240.43,-54.57L269.28,-76.77L275.19,-106.07L256.13,-109.72L251.71,-85.60L235.07,-71.78ZM180.10,-114.18L182.40,-145.05L199.37,-160.80L225.41,-159.93L243.89,-138.82ZM-453.71,435.29L-401.32,415.05L-351.42,372.75L-355.35,306.06L-398.56,254.41L-465.15,258.32L-514.69,277.46ZM-440.00,408.83L-486.67,288.04L-457.95,276.95L-411.40,272.88L-377.33,314.32L-373.09,366.54L-410.63,397.48ZM-285.96,345.56L-309.15,319.75L-224.54,287.04L-226.50,278.72L-255.69,242.01L-301.78,240.32L-334.16,271.59L-331.24,322.37L-299.26,361.92L-254.27,363.30L-225.42,341.10L-219.51,311.80L-238.58,308.15L-243.00,332.27L-259.64,346.09ZM-314.60,303.69L-312.30,272.82L-295.33,257.07L-269.29,257.94L-250.81,279.05ZM-184.05,290.51L-197.78,304.82L-177.98,322.88L-140.48,319.47L-111.36,299.00L-107.15,265.99L-125.05,246.02L-148.07,243.58L-177.41,246.66L-194.48,246.45L-202.84,239.22L-200.84,225.52L-183.83,214.21L-164.08,212.18L-150.80,223.72L-137.23,209.48L-154.26,194.11L-189.59,197.07L-217.92,217.30L-221.24,248.87L-204.39,266.42L-180.96,268.21L-150.00,264.79L-134.20,266.33L-126.63,275.53L-130.32,292.17L-146.31,302.40L-169.93,303.59ZM-110.70,149.85L-106.58,139.30L-110.87,128.14L-121.23,122.96L-131.36,126.88L-135.36,137.58L-131.06,148.72L-120.83,153.77ZM-54.53,281.06L-98.57,167.07L-118.30,174.70L-74.26,288.68ZM35.33,301.15L69.54,268.24L64.69,226.43L23.52,119.90L5.99,126.67L11.92,142.02L-6.62,132.45L-28.81,134.46L-59.19,165.92L-54.91,215.21L-24.94,254.57L18.70,257.44L34.73,246.41L43.18,229.45L46.35,237.84L49.24,266.05L29.23,283.96L8.99,285.87L-4.17,273.19L-17.15,286.52L0.90,303.66ZM-21.21,150.81L4.94,153.69L28.06,183.18L31.60,220.22L13.34,240.24L-13.05,237.47L-34.77,207.45L-38.88,170.62ZM95.74,223.00L115.47,215.38L91.50,153.34L88.74,120.75L107.13,102.01L128.91,103.42L143.14,124.32L170.15,194.25L189.88,186.63L162.87,116.70L141.97,84.82L104.57,83.46L85.08,96.39L75.81,118.59L69.45,102.15L51.70,109.01ZM233.56,144.83L210.37,119.03L294.98,86.32L293.03,78.00L263.84,41.29L217.74,39.60L185.37,70.87L188.29,121.65L220.27,161.20L265.25,162.57L294.10,140.37L300.01,111.08L280.94,107.42L276.53,131.54L259.89,145.36ZM204.92,102.97L207.22,72.10L224.19,56.35L250.23,57.22L268.71,78.33ZM347.11,11.66L363.82,10.84L363.30,-8.10L341.17,-7.95L324.59,5.16L318.53,28.60L310.91,8.87L293.15,15.73L336.76,128.60L356.92,122.09L333.12,60.50L329.71,30.22ZM473.65,80.15L478.37,69.24L474.01,58.12L463.13,53.32L452.11,57.64L447.39,68.56L451.75,79.67L462.63,84.48ZM442.22,45.76L461.33,38.38L458.99,32.34L455.77,15.23L461.37,-1.99L473.34,-27.79L472.04,-57.51L445.18,-84.93L403.16,-82.79L374.47,-57.32L372.81,-23.02L392.51,-21.90L393.21,-49.64L410.25,-64.98L433.75,-66.68L451.27,-47.94L452.45,-27.56L444.24,-9.51L435.36,14.22L439.88,39.72Z" fill="#ffffff" stroke="#000000"/>
    <path d="M-542.85,55.67L-566.33,-94.20L-468.04,21.35L-447.97,12.14L-477.53,-154.89L-498.69,-150.84L-469.05,-7.61L-563.21,-119.17L-587.30,-108.12L-563.09,35.54L-652.96,-80.06L-670.26,-66.47L-562.93,64.88ZM-393.02,-13.07L-373.87,-21.86L-401.31,-81.66L-405.83,-113.28L-388.83,-132.90L-367.22,-132.84L-351.77,-112.75L-321.18,-46.03L-302.21,-54.74L-332.80,-121.64L-355.47,-151.99L-392.48,-151.07L-410.62,-137.10L-417.43,-116.73L-443.70,-174.00L-462.83,-165.22ZM-241.84,-171.64L-295.09,-124.20L-295.65,-92.14L-272.88,-72.38L-242.48,-76.88L-224.56,-89.73L-212.60,-111.23L-206.85,-98.48L-189.10,-106.63L-221.60,-177.53L-246.40,-205.20L-284.37,-201.18L-310.64,-180.39L-315.18,-152.34L-295.84,-149.99L-293.82,-171.13L-279.18,-184.76L-258.21,-187.84ZM-234.13,-154.83L-221.38,-127.00L-229.42,-109.05L-246.56,-93.78L-262.58,-90.92L-275.76,-102.29L-274.13,-121.12ZM-112.60,-139.94L-112.60,-139.95L-122.32,-155.33L-130.25,-150.15L-141.54,-150.58L-149.53,-163.67L-178.52,-226.85L-159.71,-235.48L-166.40,-250.06L-185.21,-241.43L-202.66,-279.47L-221.68,-270.74L-204.22,-232.71L-219.86,-225.53L-213.17,-210.95L-197.53,-218.13L-168.55,-154.94L-152.03,-130.40L-126.21,-131.24ZM-77.56,-313.06L-74.14,-323.74L-79.05,-334.49L-89.59,-338.98L-99.36,-334.49L-102.66,-323.68L-97.74,-312.95L-87.33,-308.58ZM-14.13,-186.91L-64.54,-296.79L-83.56,-288.07L-33.14,-178.18ZM9.23,-238.83L-3.47,-223.86L17.19,-207.24L54.01,-212.88L81.52,-234.87L83.67,-267.72L64.78,-286.35L41.91,-287.36L13.11,-282.54L-3.75,-281.71L-12.44,-288.34L-11.30,-301.99L4.80,-314.19L24.18,-317.40L38.00,-306.81L50.54,-321.70L32.79,-335.83L-1.93,-330.76L-28.67,-309.07L-30.03,-277.69L-12.33,-261.39L10.92,-261.04L41.28,-266.30L56.98,-265.74L65.02,-257.12L62.38,-240.46L47.22,-229.39L23.96,-226.77ZM209.54,-378.73L156.29,-331.29L155.73,-299.23L178.50,-279.47L208.90,-283.97L226.82,-296.82L238.78,-318.32L244.53,-305.57L262.28,-313.72L229.79,-384.62L204.98,-412.29L167.01,-408.27L140.74,-387.48L136.20,-359.43L155.54,-357.08L157.56,-378.22L172.20,-391.85L193.18,-394.93ZM217.25,-361.92L230.00,-334.09L221.96,-316.14L204.82,-300.87L188.80,-298.01L175.62,-309.38L177.25,-328.21ZM-362.74,188.15L-409.19,187.32L-442.16,147.59L-449.94,96.34L-421.10,60.96L-386.63,57.41L-360.42,77.22L-346.68,59.96L-379.59,37.46L-429.00,43.73L-471.81,92.04L-463.70,157.50L-419.38,206.33L-354.83,205.39L-318.05,171.85L-313.48,133.45L-335.39,131.77L-338.92,165.20ZM-250.19,151.62L-320.00,-0.53L-339.01,8.20L-269.21,160.35ZM-267.13,4.14L-263.71,-6.54L-268.62,-17.29L-279.17,-21.78L-288.93,-17.30L-292.23,-6.49L-287.31,4.25L-276.90,8.62ZM-203.70,130.29L-254.11,20.40L-273.13,29.13L-222.72,139.02ZM-177.22,118.14L-158.16,109.40L-184.24,52.55L-191.96,22.01L-175.39,-1.08L-157.39,-1.05L-143.75,15.79L-110.78,87.66L-91.76,78.93L-120.94,15.33L-125.17,-11.83L-108.79,-31.63L-88.69,-30.39L-76.14,-12.63L-44.15,57.09L-25.13,48.37L-60.23,-28.13L-81.47,-52.01L-112.21,-49.91L-129.86,-36.04L-137.28,-12.48L-155.73,-23.38L-178.19,-19.52L-196.16,-6.05L-203.30,16.02L-210.47,0.38L-227.59,8.23ZM34.33,-68.13L-18.91,-20.68L-19.47,11.37L3.30,31.13L33.70,26.64L51.62,13.78L63.58,-7.72L69.33,5.03L87.08,-3.12L54.58,-74.01L29.78,-101.68L-8.19,-97.67L-34.46,-76.87L-39.00,-48.83L-19.66,-46.48L-17.64,-67.62L-3.01,-81.25L17.97,-84.33ZM42.05,-51.31L54.80,-23.49L46.76,-5.54L29.62,9.73L13.60,12.59L0.41,1.22L2.05,-17.60ZM163.57,-36.43L163.58,-36.43L153.86,-51.82L145.93,-46.63L134.64,-47.07L126.65,-60.15L97.66,-123.34L116.47,-131.97L109.78,-146.55L90.97,-137.92L73.52,-175.96L54.50,-167.23L71.95,-129.19L56.32,-122.02L63.01,-107.44L78.64,-114.61L107.63,-51.43L124.14,-26.88L149.97,-27.73ZM197.83,-79.23L173.36,-103.30L254.92,-140.75L252.49,-148.84L221.44,-183.32L175.81,-182.18L145.74,-149.34L151.71,-99.38L185.69,-62.26L230.20,-63.64L257.34,-87.31L261.40,-116.60L242.35,-119.05L239.45,-94.96L223.86,-80.31ZM167.01,-118.83L167.40,-149.46L183.20,-166.04L208.96,-166.76L228.50,-147.04ZM-425.50,462.27L-374.99,439.10L-328.29,394.30L-336.22,328.69L-382.03,280.31L-447.55,288.21L-495.30,310.12ZM-413.57,435.31L-466.99,318.87L-439.31,306.17L-393.59,299.32L-357.42,338.18L-350.06,389.49L-385.25,422.32ZM-265.30,363.47L-289.77,339.40L-208.21,301.95L-210.64,293.86L-241.69,259.38L-287.32,260.52L-317.39,293.36L-311.42,343.32L-277.43,380.44L-232.93,379.06L-205.79,355.39L-201.73,326.10L-220.78,323.65L-223.68,347.74L-239.27,362.39ZM-296.12,323.87L-295.73,293.24L-279.93,276.67L-254.16,275.94L-234.63,295.66ZM-168.00,302.93L-180.70,317.89L-160.04,334.52L-123.22,328.87L-95.71,306.89L-93.56,274.04L-112.45,255.41L-135.32,254.39L-164.12,259.22L-180.98,260.05L-189.67,253.41L-188.53,239.77L-172.43,227.56L-153.05,224.36L-139.23,234.94L-126.69,220.06L-144.44,205.92L-179.16,210.99L-205.90,232.68L-207.26,264.07L-189.55,280.37L-166.31,280.72L-135.95,275.45L-120.25,276.01L-112.21,284.64L-114.85,301.30L-130.01,312.37L-153.27,314.98ZM-104.12,159.57L-100.70,148.89L-105.61,138.14L-116.15,133.65L-125.92,138.13L-129.22,148.94L-124.30,159.68L-113.89,164.05ZM-40.68,285.72L-91.10,175.84L-110.12,184.56L-59.70,294.45ZM49.28,300.10L81.06,265.52L73.73,224.54L26.61,121.83L9.70,129.59L16.49,144.38L-2.40,136.06L-24.19,139.40L-52.28,172.31L-45.06,220.72L-13.07,257.77L30.20,257.94L45.35,246.08L52.67,228.82L56.32,236.91L60.88,264.59L42.21,283.50L22.34,286.61L8.58,274.89L-3.44,288.84L15.42,304.67ZM-15.69,155.08L10.31,156.33L34.93,184.04L40.67,220.41L23.86,241.29L-2.37,240.15L-25.64,211.83L-31.93,175.71ZM104.18,219.26L123.20,210.53L95.76,150.73L91.06,118.71L108.08,99.09L129.67,99.16L144.99,118.94L175.92,186.35L194.94,177.62L164.01,110.21L141.44,80.00L104.43,80.92L85.96,94.88L78.15,117.37L70.88,101.52L53.77,109.37ZM235.53,133.70L211.06,109.62L292.63,72.18L290.19,64.09L259.14,29.60L213.51,30.74L183.45,63.58L189.41,113.55L223.40,150.66L267.90,149.29L295.04,125.61L299.10,96.32L280.05,93.87L277.15,117.96L261.56,132.62ZM204.71,94.10L205.10,63.47L220.90,46.89L246.67,46.16L266.20,65.88ZM339.57,-4.71L356.02,-6.53L354.36,-25.21L332.51,-23.72L316.93,-9.76L312.37,13.75L303.65,-5.27L286.53,2.58L336.45,111.39L355.97,103.74L328.72,44.36L323.52,14.68ZM468.69,55.24L472.68,44.17L467.71,33.46L456.67,29.38L446.05,34.31L442.06,45.38L447.03,56.09L458.07,60.17ZM435.56,23.18L453.98,14.73L451.31,8.91L447.09,-7.79L451.57,-25.13L461.82,-51.34L458.73,-80.61L430.55,-106.06L389.18,-101.39L362.40,-74.50L362.84,-40.52L382.36,-40.61L381.37,-68.04L397.26,-84.23L420.37,-87.33L438.80,-69.90L441.20,-49.84L434.20,-31.52L426.88,-7.55L432.89,17.36Z" fill="#ffffff" stroke="#000000"/>
    <path d="M-536.18,92.98L-568.47,-53.57L-464.40,54.55L-445.14,44.24L-484.48,-118.89L-505.13,-113.60L-467.16,26.02L-566.90,-78.41L-590.02,-66.03L-557.39,74.33L-653.14,-34.35L-669.40,-19.88L-555.44,103.30ZM-392.42,16.01L-374.04,6.17L-404.77,-51.21L-411.16,-82.16L-395.56,-102.56L-374.22,-103.81L-357.75,-84.92L-323.48,-20.90L-305.28,-30.65L-339.55,-94.85L-363.78,-123.44L-400.26,-120.28L-417.33,-105.39L-422.81,-84.86L-452.24,-139.81L-470.59,-129.98ZM-252.78,-149.74L-302.48,-99.67L-301.08,-67.98L-277.40,-49.85L-247.65,-56.14L-230.74,-69.92L-220.24,-91.87L-213.79,-79.64L-196.75,-88.76L-233.15,-156.79L-259.32,-182.60L-296.56,-176.33L-321.24,-154.20L-324.02,-126.24L-304.78,-125.09L-304.07,-146.08L-290.45,-160.43L-269.92,-164.74ZM-244.14,-133.61L-229.86,-106.91L-236.71,-88.70L-252.71,-72.58L-268.35,-68.79L-282.06,-79.21L-281.59,-97.90ZM-123.25,-126.29L-123.25,-126.30L-133.77,-140.90L-141.29,-135.30L-152.47,-135.05L-161.15,-147.48L-193.61,-208.10L-175.56,-217.77L-183.05,-231.76L-201.10,-222.10L-220.64,-258.59L-238.89,-248.82L-219.35,-212.32L-234.35,-204.29L-226.86,-190.30L-211.86,-198.33L-179.39,-137.71L-161.60,-114.48L-136.15,-116.88ZM-99.16,-299.36L-96.43,-310.11L-101.94,-320.43L-112.62,-324.22L-121.99,-319.20L-124.59,-308.32L-119.08,-298.02L-108.54,-294.34ZM-28.87,-178.65L-85.32,-284.09L-103.57,-274.32L-47.11,-168.88ZM-8.96,-231.34L-20.59,-215.79L0.82,-200.63L36.83,-208.44L62.66,-231.82L62.79,-264.38L43.01,-281.63L20.36,-281.25L-7.78,-274.73L-24.38,-272.89L-33.37,-278.91L-33.07,-292.45L-17.91,-305.48L1.03,-309.82L15.32,-300.21L26.79,-315.67L8.41,-328.55L-25.56,-321.43L-50.65,-298.39L-50.08,-267.32L-31.61,-252.30L-8.64,-253.37L21.02,-260.41L36.55,-260.81L45.01,-252.78L43.43,-236.17L29.12,-224.32L6.32,-220.32ZM180.32,-381.64L130.63,-331.56L132.03,-299.88L155.71,-281.75L185.45,-288.04L202.36,-301.81L212.87,-323.77L219.32,-311.53L236.35,-320.65L199.96,-388.68L173.78,-414.50L136.54,-408.23L111.86,-386.10L109.08,-358.13L128.32,-356.98L129.03,-377.98L142.66,-392.33L163.18,-396.64ZM188.96,-365.51L203.24,-338.81L196.39,-320.60L180.40,-304.48L164.75,-300.68L151.04,-311.11L151.51,-329.79ZM-350.30,212.85L-396.21,214.85L-431.17,177.63L-441.98,127.50L-415.64,90.81L-381.83,85.21L-354.74,103.18L-342.22,85.31L-376.09,65.08L-424.50,74.27L-463.83,124.58L-451.84,188.72L-405.11,234.24L-341.44,229.39L-307.16,194.04L-304.98,155.85L-326.72,155.52L-328.17,188.74ZM-241.39,169.94L-319.55,23.95L-337.80,33.73L-259.63,179.72ZM-267.07,25.35L-264.34,14.60L-269.85,4.28L-280.53,0.49L-289.90,5.51L-292.50,16.39L-286.99,26.69L-276.45,30.37ZM-196.78,146.06L-253.23,40.62L-271.48,50.39L-215.03,155.83ZM-171.37,132.45L-153.08,122.66L-182.28,68.12L-191.77,38.44L-176.81,14.63L-159.03,13.56L-144.54,29.36L-107.62,98.32L-89.37,88.55L-122.05,27.52L-127.87,0.96L-112.90,-19.59L-92.98,-19.58L-79.51,-2.81L-43.69,64.09L-25.44,54.32L-64.74,-19.08L-87.17,-41.36L-117.39,-37.42L-133.97,-22.66L-139.87,1.06L-158.74,-8.59L-180.69,-3.41L-197.62,10.98L-203.32,33.21L-211.36,18.20L-227.78,27.00ZM26.20,-64.31L-23.49,-14.24L-22.10,17.45L1.58,35.58L31.33,29.29L48.24,15.51L58.74,-6.45L65.19,5.79L82.23,-3.33L45.83,-71.36L19.66,-97.17L-17.58,-90.90L-42.26,-68.77L-45.04,-40.81L-25.80,-39.66L-25.09,-60.65L-11.47,-75.00L9.06,-79.31ZM34.84,-48.18L49.12,-21.48L42.27,-3.27L26.27,12.85L10.63,16.64L-3.08,6.22L-2.61,-12.47ZM155.73,-40.86L155.73,-40.87L145.21,-55.47L137.69,-49.87L126.51,-49.62L117.83,-62.05L85.37,-122.68L103.42,-132.34L95.93,-146.33L77.88,-136.67L58.34,-173.16L40.09,-163.39L59.63,-126.90L44.63,-118.86L52.12,-104.87L67.12,-112.90L99.59,-52.28L117.38,-29.05L142.83,-31.45ZM186.95,-85.21L161.33,-107.49L239.59,-149.42L236.70,-157.26L203.94,-189.42L158.96,-185.53L131.27,-151.27L140.20,-102.30L176.01,-67.72L219.86,-71.78L245.23,-96.80L247.45,-125.97L228.49,-127.23L227.10,-103.27L212.59,-87.85ZM154.12,-122.44L152.65,-152.70L167.24,-170.03L192.63,-172.32L213.12,-154.03ZM-395.61,487.33L-347.15,461.38L-303.76,414.31L-315.57,350.00L-363.75,305.02L-427.95,316.80L-473.78,341.34ZM-385.47,459.98L-445.29,348.26L-418.73,334.03L-374.00,324.50L-335.93,360.66L-325.55,410.88L-358.30,445.43ZM-243.44,380.04L-269.06,357.75L-190.80,315.83L-193.69,307.99L-226.45,275.83L-271.43,279.72L-299.12,313.98L-290.19,362.95L-254.38,397.53L-210.52,393.47L-185.16,368.44L-182.94,339.28L-201.90,338.02L-203.29,361.98L-217.80,377.40ZM-276.27,342.81L-277.74,312.55L-263.15,295.22L-237.76,292.93L-217.27,311.22ZM-151.04,314.35L-162.67,329.90L-141.26,345.06L-105.25,337.25L-79.42,313.87L-79.29,281.30L-99.08,264.05L-121.72,264.44L-149.86,270.95L-166.46,272.80L-175.45,266.77L-175.15,253.23L-159.99,240.21L-141.05,235.86L-126.77,245.48L-115.29,230.02L-133.67,217.14L-167.64,224.25L-192.73,247.29L-192.16,278.36L-173.69,293.38L-150.72,292.31L-121.06,285.28L-105.53,284.87L-97.07,292.90L-98.66,309.51L-112.96,321.36L-135.76,325.36ZM-96.67,168.92L-93.94,158.17L-99.45,147.85L-110.13,144.06L-119.50,149.08L-122.10,159.95L-116.59,170.26L-106.05,173.94ZM-26.38,289.63L-82.83,184.19L-101.08,193.96L-44.63,299.40ZM63.32,298.36L92.61,262.28L82.87,222.26L30.11,123.72L13.89,132.40L21.49,146.60L2.33,139.52L-18.98,144.14L-44.71,178.35L-34.64,225.71L-0.81,260.35L41.92,257.89L56.17,245.26L62.34,227.77L66.43,235.54L72.62,262.59L55.33,282.40L35.90,286.68L21.60,275.94L10.59,290.45L30.17,304.92ZM-9.64,159.11L16.11,158.77L42.11,184.64L49.99,220.19L34.66,241.83L8.69,242.31L-16.01,215.75L-24.42,180.47ZM112.62,215.20L130.87,205.43L100.15,148.05L93.55,116.72L109.17,96.31L130.50,95.07L146.82,113.66L181.46,178.35L199.71,168.58L165.07,103.89L140.95,75.44L104.46,78.60L87.08,93.50L80.73,116.18L72.59,100.97L56.17,109.76ZM237.12,122.74L211.50,100.45L289.75,58.53L286.86,50.69L254.10,18.53L209.12,22.42L181.43,56.67L190.36,105.65L226.17,140.23L270.03,136.17L295.39,111.14L297.61,81.98L278.65,80.71L277.26,104.67L262.75,120.09ZM204.28,85.51L202.81,55.24L217.40,37.92L242.79,35.63L263.28,53.92ZM331.44,-20.24L347.57,-23.04L344.79,-41.38L323.31,-38.58L308.78,-23.85L305.70,-0.36L295.93,-18.61L279.51,-9.82L335.41,94.59L354.21,85.85L323.70,28.87L316.76,-0.12ZM462.57,31.10L465.84,19.94L460.27,9.66L449.13,6.30L438.94,11.82L435.67,22.99L441.24,33.27L452.38,36.63ZM427.91,1.47L445.58,-8.00L442.59,-13.58L437.41,-29.81L440.78,-47.21L449.31,-73.71L444.48,-102.42L415.11,-125.83L374.54,-118.71L349.74,-90.53L352.24,-57.01L371.50,-58.29L368.86,-85.31L383.57,-102.27L406.20,-106.73L425.45,-90.63L429.05,-70.98L423.24,-52.46L417.47,-28.34L424.91,-4.12Z" fill="#ffffff" stroke="#000000"/>
    <path d="M-526.92,129.56L-567.70,-13.17L-458.39,87.26L-440.00,75.90L-488.74,-82.76L-508.81,-76.28L-462.84,59.26L-567.66,-37.79L-589.73,-24.16L-548.98,112.44L-650.12,10.96L-665.29,26.23L-545.31,140.91ZM-389.66,44.83L-372.12,34.00L-405.93,-20.78L-414.12,-50.95L-399.96,-72.04L-378.97,-74.57L-361.56,-56.92L-323.84,4.20L-306.47,-6.52L-344.20,-67.82L-369.85,-94.58L-405.68,-89.24L-421.63,-73.51L-425.80,-52.90L-458.18,-105.37L-475.70,-94.55ZM-261.87,-127.29L-307.89,-74.83L-304.59,-43.64L-280.11,-27.18L-251.12,-35.19L-235.26,-49.82L-226.22,-72.14L-219.11,-60.45L-202.85,-70.48L-242.91,-135.44L-270.32,-159.33L-306.71,-150.88L-329.73,-127.53L-330.77,-99.75L-311.71,-99.79L-312.29,-120.56L-299.71,-135.56L-279.70,-141.06ZM-252.36,-111.89L-236.64,-86.40L-242.30,-68.00L-257.11,-51.12L-272.33,-46.42L-286.49,-55.88L-287.17,-74.35ZM-132.56,-112.01L-132.56,-112.01L-143.84,-125.79L-150.92,-119.80L-161.94,-118.87L-171.26,-130.62L-206.99,-188.50L-189.77,-199.14L-198.01,-212.50L-215.24,-201.86L-236.75,-236.71L-254.17,-225.95L-232.66,-191.11L-246.99,-182.26L-238.74,-168.91L-224.42,-177.75L-188.69,-119.87L-169.71,-98.01L-144.73,-101.93ZM-119.30,-284.33L-117.25,-295.11L-123.31,-304.96L-134.09,-308.06L-143.04,-302.53L-144.94,-291.64L-138.88,-281.80L-128.25,-278.81ZM-42.56,-169.43L-104.70,-270.10L-122.12,-259.34L-59.98,-158.67ZM-26.11,-222.66L-36.64,-206.60L-14.59,-192.93L20.49,-202.83L44.57,-227.48L42.72,-259.64L22.14,-275.46L-0.20,-273.71L-27.58,-265.57L-43.86,-262.74L-53.10,-268.14L-53.62,-281.53L-39.45,-295.31L-21.01,-300.75L-6.33,-292.12L4.07,-308.08L-14.87,-319.68L-47.97,-310.60L-71.34,-286.32L-68.89,-255.68L-49.75,-241.98L-27.14,-244.43L1.72,-253.18L17.03,-254.52L25.87,-247.11L25.31,-230.61L11.91,-218.04L-10.36,-212.71ZM151.63,-382.54L105.61,-330.08L108.92,-298.89L133.40,-282.43L162.38,-290.44L178.24,-305.07L187.28,-327.39L194.39,-315.70L210.65,-325.74L170.59,-390.69L143.18,-414.58L106.79,-406.13L83.78,-382.78L82.73,-355.01L101.79,-355.04L101.22,-375.81L113.80,-390.81L133.80,-396.31ZM161.14,-367.14L176.86,-341.65L171.20,-323.25L156.39,-306.37L141.18,-301.67L127.01,-311.13L126.34,-329.61ZM-336.12,236.61L-381.33,241.37L-418.10,206.75L-431.81,157.91L-408.04,120.09L-375.00,112.51L-347.17,128.61L-335.89,110.20L-370.56,92.29L-417.79,104.30L-453.57,156.36L-437.83,218.95L-388.94,261.06L-326.37,252.40L-294.67,215.42L-294.85,177.58L-316.33,178.58L-315.74,211.46ZM-231.20,187.63L-317.24,48.25L-334.66,59.01L-248.62,198.39ZM-265.35,46.44L-263.30,35.66L-269.36,25.81L-280.14,22.72L-289.09,28.24L-290.99,39.14L-284.93,48.97L-274.29,51.97ZM-188.61,161.34L-250.75,60.68L-268.17,71.43L-206.03,172.10ZM-164.35,146.37L-146.89,135.59L-179.03,83.51L-190.20,54.79L-176.88,30.37L-159.39,28.24L-144.13,42.96L-103.49,108.80L-86.06,98.04L-122.03,39.77L-129.40,13.91L-115.87,-7.29L-96.20,-8.49L-81.88,7.25L-42.45,71.12L-25.03,60.37L-68.29,-9.71L-91.78,-30.35L-121.38,-24.62L-136.86,-9.04L-141.24,14.73L-160.46,6.35L-181.81,12.80L-197.65,28.04L-201.93,50.32L-210.77,36.00L-226.45,45.68ZM18.75,-59.89L-27.27,-7.44L-23.97,23.76L0.51,40.22L29.49,32.21L45.36,17.58L54.39,-4.74L61.50,6.95L77.76,-3.09L37.70,-68.04L10.29,-91.94L-26.09,-83.48L-49.11,-60.14L-50.16,-32.36L-31.10,-32.39L-31.67,-53.17L-19.09,-68.16L0.91,-73.66ZM28.25,-44.49L43.98,-19.00L38.32,-0.60L23.51,16.28L8.29,20.98L-5.88,11.52L-6.55,-6.96ZM148.05,-44.61L148.06,-44.62L136.78,-58.39L129.70,-52.41L118.68,-51.48L109.35,-63.23L73.62,-121.11L90.85,-131.74L82.61,-145.10L65.38,-134.47L43.87,-169.31L26.44,-158.56L47.95,-123.71L33.63,-114.87L41.87,-101.51L56.20,-110.35L91.93,-52.47L110.91,-30.62L135.89,-34.53ZM176.19,-90.29L149.54,-110.73L224.25,-156.88L220.92,-164.44L186.63,-194.20L142.46,-187.63L117.19,-152.13L128.98,-104.32L166.44,-72.36L209.49,-79.03L233.01,-105.28L233.44,-134.21L214.64,-134.30L214.72,-110.56L201.33,-94.46ZM141.50,-125.05L138.22,-154.84L151.57,-172.83L176.50,-176.63L197.84,-159.82ZM-364.18,510.34L-317.92,481.78L-277.93,432.67L-293.50,369.91L-343.80,328.42L-406.47,343.95L-450.22,370.96ZM-355.83,482.73L-421.67,376.06L-396.31,360.41L-352.74,348.27L-312.96,381.67L-299.66,430.61L-329.89,466.71ZM-220.46,395.18L-247.11,374.73L-172.40,328.59L-175.73,321.02L-210.02,291.26L-254.19,297.84L-279.45,333.34L-267.66,381.14L-230.21,413.11L-187.16,406.44L-163.64,380.19L-163.21,351.26L-182.01,351.17L-181.93,374.91L-195.31,391.01ZM-255.14,360.42L-258.43,330.63L-245.08,312.63L-220.15,308.84L-198.81,325.64ZM-133.24,324.71L-143.77,340.77L-121.72,354.43L-86.64,344.54L-62.56,319.88L-64.41,287.73L-84.99,271.90L-107.32,273.66L-134.71,281.80L-150.98,284.63L-160.22,279.22L-160.75,265.84L-146.58,252.06L-128.14,246.62L-113.45,255.24L-103.06,239.28L-121.99,227.68L-155.10,236.77L-178.47,261.04L-176.02,291.68L-156.87,305.39L-134.26,302.94L-105.40,294.19L-90.09,292.85L-81.25,300.26L-81.81,316.75L-95.21,329.32L-117.48,334.65ZM-88.39,177.83L-86.35,167.05L-92.41,157.20L-103.19,154.11L-112.14,159.63L-114.04,170.52L-107.98,180.36L-97.34,183.36ZM-11.66,292.73L-73.80,192.07L-91.22,202.82L-29.08,303.49ZM77.43,295.90L104.15,258.51L92.11,219.59L34.03,125.50L18.54,135.06L26.91,148.62L7.56,142.80L-13.20,148.65L-36.52,183.98L-23.70,230.13L11.81,262.27L53.84,257.25L67.14,243.91L72.17,226.28L76.68,233.70L84.43,260.03L68.57,280.63L49.65,286.04L34.88,276.30L24.88,291.29L45.10,304.40ZM-3.06,162.86L22.34,160.96L49.57,184.92L59.51,219.54L45.69,241.84L20.08,243.88L-5.91,219.17L-16.36,184.85ZM121.05,210.81L138.47,200.06L104.65,145.27L96.24,114.74L110.42,93.65L131.40,91.12L148.65,108.49L186.77,170.24L204.19,159.49L166.07,97.73L140.52,71.10L104.69,76.44L88.44,92.21L83.55,114.99L74.59,100.47L58.91,110.15ZM238.34,111.96L211.69,91.52L286.41,45.37L283.07,37.81L248.78,8.05L204.61,14.62L179.35,50.12L191.14,97.93L228.59,129.90L271.65,123.22L295.16,96.97L295.59,68.05L276.80,67.95L276.87,91.69L263.49,107.80ZM203.66,77.20L200.37,47.41L213.72,29.42L238.65,25.62L259.99,42.43ZM322.78,-34.92L338.53,-38.67L334.67,-56.61L313.64,-52.54L300.18,-37.11L298.58,-13.74L287.82,-31.16L272.14,-21.48L333.67,78.20L351.70,68.43L318.12,14.03L309.51,-14.17ZM455.35,7.80L457.90,-3.42L451.78,-13.23L440.58,-15.87L430.86,-9.80L428.31,1.43L434.43,11.23L445.63,13.87ZM419.33,-19.35L436.21,-29.77L432.92,-35.10L426.81,-50.81L429.09,-68.19L435.90,-94.87L429.39,-122.92L398.97,-144.26L359.35,-134.76L336.57,-105.43L341.08,-72.49L360.02,-74.92L355.76,-101.44L369.26,-119.07L391.33,-124.85L411.32,-110.13L416.06,-90.94L411.45,-72.31L407.22,-48.15L416.04,-24.69Z" fill="#ffffff" stroke="#000000"/>
    <path d="M-515.13,165.22L-564.05,26.80L-450.05,119.29L-432.59,106.97L-490.34,-46.69L-509.75,-39.08L-456.14,91.93L-565.51,2.50L-586.47,17.28L-537.95,149.65L-643.96,55.62L-658.00,71.62L-532.59,177.54ZM-384.79,73.24L-368.12,61.48L-404.83,9.46L-414.75,-19.82L-402.05,-41.50L-381.48,-45.28L-363.22,-28.91L-322.28,29.14L-305.78,17.49L-346.75,-40.73L-373.70,-65.58L-408.74,-58.14L-423.53,-41.63L-426.39,-21.04L-461.55,-70.86L-478.19,-59.12ZM-269.09,-104.43L-311.33,-49.85L-306.18,-19.26L-281.01,-4.50L-252.89,-14.16L-238.12,-29.57L-230.55,-52.15L-222.82,-41.04L-207.38,-51.94L-250.87,-113.62L-279.38,-135.55L-314.79,-124.99L-336.09,-100.55L-335.44,-73.06L-316.62,-74.26L-318.45,-94.73L-306.94,-110.29L-287.53,-116.94ZM-258.77,-89.80L-241.70,-65.59L-246.17,-47.09L-259.76,-29.52L-274.50,-23.96L-289.06,-32.44L-290.85,-50.64ZM-140.52,-97.20L-140.52,-97.20L-152.49,-110.12L-159.11,-103.78L-169.93,-102.19L-179.85,-113.22L-218.64,-168.19L-202.28,-179.73L-211.23,-192.42L-227.59,-180.87L-250.94,-213.96L-267.48,-202.29L-244.13,-169.20L-257.74,-159.60L-248.79,-146.91L-235.18,-156.51L-196.40,-101.55L-176.34,-81.13L-151.91,-86.51ZM-137.89,-268.11L-136.52,-278.87L-143.11,-288.23L-153.93,-290.63L-162.43,-284.64L-163.65,-273.77L-157.06,-264.42L-146.39,-262.11ZM-55.16,-159.35L-122.62,-254.94L-139.16,-243.27L-71.71,-147.67ZM-42.15,-212.89L-51.57,-196.40L-28.98,-184.24L5.05,-196.15L27.32,-221.94L23.54,-253.58L2.27,-267.95L-19.67,-264.86L-46.21,-255.16L-62.11,-251.38L-71.55,-256.15L-72.89,-269.33L-59.73,-283.80L-41.87,-290.28L-26.84,-282.66L-17.55,-299.05L-36.95,-309.35L-69.07,-298.37L-90.67,-272.99L-86.39,-242.89L-66.66,-230.52L-44.49,-234.32L-16.53,-244.71L-1.50,-246.96L7.68,-240.18L8.13,-223.87L-4.34,-210.65L-26.00,-204.03ZM123.59,-381.51L81.35,-326.94L86.51,-296.34L111.67,-281.58L139.80,-291.25L154.57,-306.65L162.13,-329.23L169.86,-318.13L185.30,-329.02L141.81,-390.71L113.30,-412.63L77.90,-402.08L56.59,-377.63L57.25,-350.15L76.06,-351.34L74.24,-371.81L85.74,-387.38L105.15,-394.02ZM133.91,-366.89L150.98,-342.68L146.51,-324.18L132.92,-306.61L118.18,-301.05L103.63,-309.52L101.84,-327.72ZM-320.28,259.30L-364.62,266.75L-403.03,234.81L-419.53,187.43L-398.36,148.65L-366.20,139.16L-337.75,153.36L-327.74,134.50L-363.04,118.93L-408.94,133.66L-441.10,187.21L-421.76,248.05L-370.94,286.65L-309.70,274.30L-280.66,235.86L-283.13,198.52L-304.27,200.81L-301.70,233.24ZM-219.69,204.58L-313.09,72.22L-329.63,83.89L-236.23,216.26ZM-261.97,67.28L-260.61,56.52L-267.19,47.16L-278.01,44.76L-286.51,50.76L-287.73,61.63L-281.14,70.97L-270.47,73.28ZM-179.24,176.04L-246.70,80.45L-263.24,92.12L-195.79,187.72ZM-156.20,159.79L-139.62,148.09L-174.52,98.63L-187.28,70.95L-175.62,46.05L-158.49,42.88L-142.52,56.48L-98.40,119.00L-81.86,107.33L-120.91,51.99L-129.74,26.91L-117.68,5.16L-98.33,2.78L-83.24,17.45L-40.44,78.10L-23.90,66.43L-70.86,-0.12L-95.30,-19.07L-124.17,-11.61L-138.50,4.70L-141.38,28.44L-160.86,21.34L-181.55,29.00L-196.26,45.00L-199.13,67.26L-208.73,53.66L-223.62,64.16ZM12.01,-54.94L-30.23,-0.37L-25.07,30.23L0.09,44.99L28.22,35.32L42.99,19.92L50.55,-2.66L58.28,8.44L73.72,-2.45L30.23,-64.14L1.72,-86.06L-33.68,-75.51L-54.99,-51.06L-54.33,-23.58L-35.52,-24.77L-37.35,-45.24L-25.84,-60.80L-6.43,-67.45ZM22.33,-40.32L39.40,-16.11L34.93,2.40L21.34,19.96L6.60,25.52L-7.96,17.05L-9.74,-1.15ZM140.59,-47.71L140.59,-47.72L128.62,-60.63L121.99,-54.29L111.17,-52.71L101.25,-63.73L62.46,-118.70L78.83,-130.25L69.88,-142.93L53.51,-131.39L30.16,-164.48L13.62,-152.80L36.97,-119.71L23.36,-110.11L32.32,-97.43L45.92,-107.03L84.71,-52.06L104.77,-31.64L129.19,-37.02ZM165.58,-94.51L138.04,-113.07L208.99,-163.16L205.24,-170.43L169.58,-197.72L126.37,-188.55L103.59,-151.97L118.13,-105.50L157.05,-76.22L199.14,-85.42L220.77,-112.76L219.43,-141.34L200.87,-140.29L202.39,-116.86L190.15,-100.15ZM129.24,-126.71L124.18,-155.92L136.26,-174.50L160.65,-179.76L182.73,-164.46ZM-331.36,531.22L-287.42,500.21L-250.94,449.31L-270.12,388.30L-322.29,350.40L-383.21,369.54L-424.76,398.85ZM-324.79,503.45L-396.27,402.16L-372.19,385.16L-329.91,370.54L-288.61,401.09L-272.51,448.60L-300.16,486.07ZM-196.48,408.81L-224.03,390.24L-153.08,340.15L-156.83,332.89L-192.49,305.59L-235.69,314.77L-258.47,351.34L-243.93,397.82L-205.02,427.10L-162.92,417.90L-141.30,390.56L-142.64,361.98L-161.19,363.02L-159.68,386.45L-171.91,403.17ZM-232.83,376.60L-237.89,347.39L-225.80,328.82L-201.42,323.56L-179.33,338.85ZM-114.66,333.95L-124.08,350.44L-101.48,362.59L-67.46,350.69L-45.18,324.89L-48.96,293.26L-70.24,278.89L-92.18,281.98L-118.72,291.68L-134.61,295.46L-144.06,290.69L-145.39,277.50L-132.24,263.04L-114.37,256.55L-99.35,264.17L-90.06,247.78L-109.45,237.48L-141.58,248.46L-163.17,273.84L-158.90,303.94L-139.16,316.31L-116.99,312.52L-89.04,302.13L-74.01,299.87L-64.83,306.65L-64.38,322.97L-76.84,336.19L-98.50,342.81ZM-79.31,186.23L-77.95,175.47L-84.53,166.11L-95.36,163.71L-103.86,169.71L-105.07,180.58L-98.49,189.92L-87.81,192.23ZM3.41,295.00L-64.04,199.40L-80.59,211.07L-13.13,306.67ZM91.55,292.71L115.65,254.18L101.40,216.49L38.36,127.14L23.65,137.52L32.73,150.39L13.28,145.82L-6.85,152.86L-27.73,189.15L-12.28,233.93L24.73,263.50L65.92,255.99L78.23,242.02L82.13,224.30L87.03,231.35L96.28,256.88L81.88,278.18L63.53,284.66L48.35,275.95L39.40,291.36L60.15,303.06ZM4.01,166.27L28.97,162.85L57.31,184.85L69.23,218.43L56.94,241.28L31.78,244.85L4.62,222.03L-7.78,188.78ZM129.44,206.07L145.99,194.39L109.27,142.37L99.12,112.74L111.83,91.06L132.39,87.29L150.47,103.39L191.85,162.03L208.40,150.36L167.01,91.71L140.18,66.98L105.13,74.42L90.05,90.97L86.61,113.75L76.88,99.96L61.99,110.47ZM239.22,101.37L211.67,82.80L282.62,32.72L278.87,25.45L243.21,-1.85L200.01,7.33L177.23,43.90L191.77,90.38L230.69,119.66L272.78,110.46L294.40,83.12L293.07,54.54L274.51,55.59L276.03,79.02L263.79,95.73ZM202.87,69.16L197.82,39.95L209.90,21.38L234.29,16.12L256.37,31.41ZM313.65,-48.76L328.97,-53.41L324.08,-70.89L303.56,-65.59L291.21,-49.55L291.05,-26.38L279.37,-42.92L264.48,-32.41L331.28,62.25L348.48,51.51L312.03,-0.15L301.82,-27.47ZM447.12,-14.64L448.95,-25.87L442.32,-35.18L431.10,-37.11L421.87,-30.52L420.03,-19.29L426.67,-9.98L437.89,-8.05ZM409.91,-39.25L425.94,-50.56L422.36,-55.63L415.39,-70.76L416.58,-88.06L421.68,-114.80L413.55,-142.10L382.22,-161.31L343.69,-149.53L322.99,-119.20L329.44,-86.95L347.99,-90.50L342.17,-116.43L354.42,-134.65L375.86,-141.70L396.49,-128.38L402.33,-109.72L398.91,-91.05L396.20,-66.94L406.34,-44.32Z" fill="#ffffff" stroke="#000000"/>
    <path d="M-906.35,492L-906.35,469.28L-898.22,492L-894.99,492L-886.86,469.28L-886.86,492L-883.25,492L-883.25,464.64L-888.22,464.64L-896.55,487.33L-904.68,464.64L-909.96,464.64L-909.96,492ZM-865.67,478.75L-876.82,482.17L-879.09,486.89L-877.05,491.38L-872.23,492.78L-868.69,492.09L-865.45,489.71L-865.46,492L-862.27,492L-862.27,479.25L-864.06,473.45L-869.98,471.46L-875.30,472.76L-877.88,476.62L-875.17,478.28L-873.43,475.28L-870.33,474.25L-867.00,475.23ZM-865.67,481.77L-865.68,486.77L-868.09,488.89L-871.68,489.99L-874.26,489.33L-875.44,486.74L-873.91,484.05ZM-857.12,492L-853.70,492L-853.70,481.25L-852.22,476.17L-848.35,474.41L-845.15,475.90L-844.22,479.88L-844.22,492L-840.80,492L-840.80,479.88L-842.09,473.85L-847.66,471.47L-851.35,472.28L-854.04,475.09L-854.04,472.24L-857.12,472.24ZM-833.34,468.94L-832.11,467.58L-832.10,465.65L-833.36,464.27L-835.12,464.27L-836.35,465.65L-836.35,467.58L-835.10,468.94ZM-832.52,492L-832.52,472.24L-835.94,472.24L-835.94,492ZM-818.31,468.12L-817.85,465.29L-820.94,464.71L-825.30,466.41L-826.70,471.29L-826.70,472.24L-829.67,472.24L-829.67,474.86L-826.70,474.86L-826.70,492L-823.40,492L-823.40,474.86L-819.56,474.86L-819.56,472.24L-823.40,472.24L-823.40,471.21L-822.75,468.65L-820.52,467.74ZM-807.97,471.46L-814.77,474.29L-817.39,482.12L-814.77,489.95L-807.97,492.78L-801.17,489.95L-798.55,482.12L-801.16,474.29ZM-807.97,489.87L-812.08,488.06L-813.90,482.12L-812.08,476.18L-807.97,474.37L-803.85,476.18L-802.04,482.12L-803.85,488.06ZM-795.03,492L-791.61,492L-791.61,481.25L-790.13,476.17L-786.26,474.41L-783.06,475.90L-782.13,479.88L-782.13,492L-778.71,492L-778.71,479.88L-780.00,473.85L-785.56,471.47L-789.26,472.28L-791.95,475.09L-791.95,472.24L-795.03,472.24ZM-765.45,492.27L-765.45,492.26L-765.85,489.32L-767.38,489.55L-769.03,488.71L-769.32,486.22L-769.32,474.86L-765.94,474.86L-765.94,472.24L-769.32,472.24L-769.32,465.40L-772.74,465.40L-772.74,472.24L-775.55,472.24L-775.55,474.86L-772.74,474.86L-772.74,486.22L-771.96,491.00L-768.07,492.63ZM-737.50,487.93L-737.50,478.13L-749.05,478.13L-749.05,481.31L-740.99,481.31L-740.97,486.22L-748.63,489.75L-755.95,486.41L-758.55,478.32L-756.06,470.17L-749.21,466.88L-744.27,468.25L-741.30,473.01L-738.24,471.11L-741.44,465.93L-749.13,463.79L-758.98,468.04L-762.42,478.32L-758.78,488.60L-748.74,492.86ZM-724.35,474.77L-721.78,475.62L-720.76,472.73L-724.11,471.47L-727.37,472.48L-729.65,475.66L-729.65,472.24L-732.73,472.24L-732.73,491.81L-729.31,492L-729.31,481.32L-728.06,476.56ZM-710.01,471.46L-716.81,474.29L-719.42,482.12L-716.81,489.95L-710.01,492.78L-703.20,489.95L-700.58,482.12L-703.20,474.29ZM-710.01,489.87L-714.12,488.06L-715.93,482.12L-714.12,476.18L-710.01,474.37L-705.89,476.18L-704.07,482.12L-705.89,488.06ZM-688.58,492.27L-688.58,492.26L-688.97,489.32L-690.51,489.55L-692.15,488.71L-692.45,486.22L-692.45,474.86L-689.07,474.86L-689.07,472.24L-692.45,472.24L-692.45,465.40L-695.87,465.40L-695.87,472.24L-698.68,472.24L-698.68,474.86L-695.87,474.86L-695.87,486.22L-695.09,491.00L-691.19,492.63ZM-680.57,488.24L-682.57,483.00L-667.90,482.99L-667.71,481.63L-669.97,474.39L-676.83,471.45L-683.53,474.28L-686.05,482.11L-683.53,489.93L-676.83,492.76L-671.18,491.10L-668.58,487.02L-671.25,485.36L-673.32,488.74L-676.63,489.86ZM-682.45,480.26L-680.31,475.73L-676.83,474.35L-672.95,476.00L-671.40,480.26ZM-661.99,485.88L-664.90,487.24L-662.96,491.11L-657.11,492.78L-651.52,491.39L-648.97,486.66L-650.50,482.61L-653.83,480.90L-658.44,479.65L-661.00,478.62L-661.84,477.05L-660.74,475.10L-657.52,474.38L-654.42,475.23L-653.09,477.74L-650.21,476.38L-651.88,473.07L-657.39,471.46L-662.84,472.86L-665.18,477.43L-663.66,481.06L-660.23,482.69L-655.36,483.98L-653.07,485.13L-652.46,486.96L-653.99,489.26L-656.99,489.87L-660.63,488.67ZM-641.92,483.45L-638.72,483.45L-637.20,484.67L-633.14,492.30L-630.05,490.63L-634.16,483.45L-636.67,482.04L-634.62,480.06L-632.77,476.14L-631.66,475.64L-630.10,475.39L-630.56,472.24L-633.40,472.52L-635.30,474.17L-637.43,478.82L-638.72,480.60L-641.91,480.60L-641.91,464.64L-643.66,464.64L-645.32,464.64L-645.33,492L-641.92,492ZM-625.58,492.01L-615.04,492.01L-607.42,490.45L-604.53,484.21L-606.06,480.03L-610.31,477.70L-606.80,475.27L-605.82,471.62L-608.58,466.13L-615.58,464.63L-625.58,464.63ZM-621.94,476.42L-621.95,467.89L-616.40,467.89L-611.64,468.44L-609.62,472.08L-611.57,475.51L-615.93,476.42ZM-621.94,488.79L-621.94,479.64L-615.54,479.64L-610.64,480.53L-608.45,484.21L-610.32,488.02L-615.04,488.79ZM-592.40,471.46L-599.20,474.29L-601.81,482.12L-599.20,489.95L-592.40,492.78L-585.59,489.95L-582.97,482.12L-585.59,474.29ZM-592.40,489.87L-596.51,488.06L-598.32,482.12L-596.51,476.18L-592.40,474.37L-588.28,476.18L-586.46,482.12L-588.28,488.06ZM-571.27,471.46L-578.07,474.29L-580.68,482.12L-578.07,489.95L-571.27,492.78L-564.46,489.95L-561.85,482.12L-564.46,474.29ZM-571.27,489.87L-575.38,488.06L-577.19,482.12L-575.38,476.18L-571.27,474.37L-567.15,476.18L-565.33,482.12L-567.15,488.06ZM-554.82,483.45L-551.62,483.45L-550.10,484.67L-546.04,492.30L-542.96,490.63L-547.06,483.45L-549.57,482.04L-547.52,480.06L-545.67,476.14L-544.56,475.64L-543.00,475.39L-543.46,472.24L-546.31,472.52L-548.20,474.17L-550.34,478.82L-551.62,480.60L-554.82,480.60L-554.82,464.64L-556.56,464.64L-558.23,464.64L-558.23,492L-554.82,492Z"/>
</svg>