<?xml version="1.0"?>
<svg xmlns="http://www.w3.org/2000/svg" width="1920" height="1080" viewBox="-960 -540 1920 1080">
    <path d="M-775,-400L-805,-390L-875,-260L-875,-390L-855,-410L-925,-410L-905,-390L-905,-200L-885,-210L-805,-360L-805,-200L-795,-210L-685,-390L-655,-410L-725,-410L-705,-390L-775,-270ZM-615,-410L-655,-310L-705,-220L-695,-210L-675,-210L-635,-290L-605,-320L-585,-330L-575,-320L-625,-230L-625,-220L-615,-210L-595,-210L-575,-220L-525,-270L-535,-280L-585,-230L-595,-230L-545,-310L-545,-340L-575,-350L-605,-340L-625,-320L-575,-420L-645,-420L-645,-410ZM-365,-340L-375,-350L-395,-320L-405,-340L-445,-350L-495,-310L-515,-260L-505,-220L-485,-210L-465,-210L-435,-240L-435,-220L-425,-210L-395,-220L-345,-270L-355,-280L-405,-230L-415,-230ZM-465,-230L-475,-230L-485,-260L-465,-300L-435,-330L-415,-330L-405,-310L-405,-300L-435,-260ZM-315,-230L-265,-330L-235,-330L-235,-340L-265,-340L-245,-380L-265,-380L-275,-350L-295,-340L-315,-340L-315,-330L-295,-330L-345,-230L-345,-220L-335,-210L-315,-210L-295,-220L-245,-270L-255,-280L-305,-230ZM-55,-210L-45,-210L-25,-220L25,-270L15,-280L-35,-230L-45,-230L45,-420L-25,-420L-25,-410L5,-410L-25,-320L-35,-340L-75,-350L-125,-310L-145,-260L-135,-220L-115,-210L-95,-210L-65,-240L-65,-220ZM-95,-230L-105,-230L-115,-260L-95,-300L-65,-330L-45,-330L-35,-310L-35,-300L-65,-260ZM75,-210L95,-210L145,-240L175,-300L155,-340L115,-350L65,-320L35,-260L55,-220ZM115,-330L135,-330L145,-300L125,-260L95,-230L75,-230L65,-260L85,-300ZM385,-290L325,-230L315,-230L365,-330L365,-340L345,-350L315,-340L265,-290L275,-280L325,-330L335,-330L285,-230L285,-220L295,-210L315,-210L335,-220L375,-260L335,-190L315,-160L305,-150L295,-150L295,-170L285,-180L265,-170L265,-140L285,-130L295,-130L325,-150L355,-190L445,-330L435,-340L415,-340ZM485,-210L505,-210L555,-240L585,-300L565,-340L525,-350L475,-320L445,-260L465,-220ZM525,-330L545,-330L555,-300L535,-260L505,-230L485,-230L475,-260L495,-300ZM785,-270L775,-280L725,-230L715,-230L775,-330L765,-340L745,-340L705,-270L665,-230L655,-230L645,-250L695,-330L695,-340L675,-350L645,-340L595,-290L605,-280L655,-330L665,-330L615,-250L625,-220L645,-210L665,-210L695,-240L695,-220L705,-210L715,-210L735,-220ZM-675,-158L-715,-58L-765,42L-755,52L-735,22L-715,42L-675,42L-625,2L-605,-48L-615,-88L-635,-98L-665,-88L-685,-68L-635,-168L-705,-168L-705,-158ZM-665,-68L-645,-78L-635,-48L-655,-8L-695,22L-715,22L-725,12L-725,2L-695,-38ZM-455,-48L-455,-68L-465,-88L-505,-98L-555,-68L-585,-8L-575,32L-555,42L-535,42L-515,32L-475,-8L-485,-18L-525,22L-545,22L-555,-8L-535,-48L-505,-78L-485,-78L-485,-48L-505,-38L-535,-38L-535,-28L-485,-28ZM-425,22L-335,-168L-405,-168L-405,-158L-375,-158L-455,22L-455,32L-435,42L-405,32L-355,-18L-365,-28L-415,22ZM-245,-118L-235,-118L-225,-138L-225,-148L-245,-158L-255,-158L-265,-138L-265,-128ZM-355,-38L-345,-28L-295,-78L-285,-78L-345,22L-345,32L-335,42L-315,42L-295,32L-245,-18L-255,-28L-305,22L-315,22L-255,-78L-255,-88L-275,-98L-305,-88ZM-105,-48L-105,-68L-115,-88L-155,-98L-205,-68L-235,-8L-225,32L-205,42L-185,42L-165,32L-125,-8L-135,-18L-175,22L-195,22L-205,-8L-185,-48L-155,-78L-135,-78L-135,-48L-155,-38L-185,-38L-185,-28L-135,-28ZM25,-58L15,-28L-25,12L-55,22L-65,22L-5,-68L-5,-88L-25,-98L-55,-88L-105,-38L-95,-28L-45,-78L-35,-78L-95,22L-95,32L-85,42L-65,42L-15,22L25,-18L45,-58L45,-78L35,-88L15,-88L5,-68L15,-58ZM185,-48L185,-68L175,-88L135,-98L85,-68L55,-8L65,32L85,42L105,42L125,32L165,-8L155,-18L115,22L95,22L85,-8L105,-48L135,-78L155,-78L155,-48L135,-38L105,-38L105,-28L155,-28ZM375,-118L385,-118L395,-138L395,-148L375,-158L365,-158L355,-138L355,-128ZM265,-38L275,-28L325,-78L335,-78L275,22L275,32L285,42L305,42L325,32L375,-18L365,-28L315,22L305,22L365,-78L365,-88L345,-98L315,-88ZM375,-38L385,-28L435,-78L445,-78L385,32L395,42L415,42L455,-38L485,-68L505,-78L515,-68L465,22L465,32L475,42L495,42L515,32L565,-18L555,-28L505,22L495,22L545,-58L545,-88L515,-98L485,-88L455,-58L465,-78L465,-88L455,-98L425,-88ZM635,-88L645,-88L645,-118L655,-138L675,-148L695,-138L705,-118L705,-98L695,-78L665,-58L635,-48L625,-18L635,-18L645,-38L675,-48L715,-68L735,-98L735,-118L715,-148L685,-158L665,-158L635,-148L615,-118L615,-108ZM625,42L635,42L645,22L645,12L625,2L615,2L605,22L605,32Z" fill="#ffffff" stroke="#000000"/>
    <path d="M-791.83,-353.98L-821.00,-342.61L-883.79,-210.61L-890.21,-339.15L-871.43,-359.91L-940.64,-356.46L-919.88,-337.67L-910.50,-149.80L-891.21,-160.68L-819.52,-312.94L-811.62,-154.74L-802.22,-165.12L-702.35,-348.53L-673.67,-369.79L-742.89,-366.33L-722.12,-347.54L-785.41,-225.44ZM-634.12,-371.76L-668.74,-270.91L-713.73,-179.45L-703.35,-170.06L-683.57,-171.05L-647.97,-252.12L-619.79,-283.27L-600.51,-294.14L-590.13,-284.75L-635.12,-193.29L-634.63,-183.40L-624.25,-174.01L-604.47,-175.00L-585.19,-185.87L-538.22,-237.78L-548.60,-247.17L-595.57,-195.27L-605.46,-194.77L-559.97,-276.34L-561.45,-306.01L-591.61,-314.41L-620.78,-303.04L-639.57,-282.28L-595.07,-383.63L-664.28,-380.17L-663.79,-370.28ZM-383.47,-314.89L-393.86,-324.29L-412.15,-293.64L-423.02,-312.92L-463.07,-320.83L-510.53,-278.81L-527.84,-228.39L-515.98,-189.33L-495.71,-180.43L-475.93,-181.42L-447.75,-212.56L-446.76,-192.79L-436.38,-183.39L-407.21,-194.76L-360.24,-246.67L-370.62,-256.06L-417.59,-204.16L-427.48,-203.66ZM-476.92,-201.19L-486.81,-200.70L-498.18,-229.87L-480.38,-270.41L-452.19,-301.55L-432.42,-302.54L-421.54,-283.26L-421.05,-273.37L-448.74,-232.34ZM-328.60,-208.60L-284.10,-309.95L-254.44,-311.43L-254.93,-321.31L-284.60,-319.83L-266.80,-360.37L-286.57,-359.38L-294.98,-329.23L-314.26,-318.35L-334.04,-317.36L-333.54,-307.48L-313.77,-308.46L-358.27,-207.12L-357.77,-197.23L-347.39,-187.84L-327.62,-188.82L-308.33,-199.70L-261.37,-251.61L-271.75,-261.00L-318.72,-209.09ZM-70.54,-201.66L-60.65,-202.16L-41.37,-213.03L5.60,-264.94L-4.78,-274.33L-51.75,-222.43L-61.64,-221.93L17.97,-414.24L-51.24,-410.79L-50.75,-400.90L-21.09,-402.38L-46.31,-311.91L-57.18,-331.19L-97.22,-339.10L-144.69,-297.08L-161.99,-246.66L-150.13,-207.60L-129.86,-198.70L-110.09,-199.69L-81.91,-230.83L-80.92,-211.06ZM-111.07,-219.46L-120.96,-218.97L-132.33,-248.14L-114.53,-288.68L-86.35,-319.82L-66.57,-320.81L-55.70,-301.53L-55.21,-291.64L-82.89,-250.61ZM58.00,-208.08L77.78,-209.07L125.74,-241.20L152.44,-302.01L130.69,-340.57L90.64,-348.48L42.68,-316.35L15.98,-255.55L37.73,-216.98ZM91.63,-328.71L111.40,-329.70L122.77,-300.53L104.97,-259.99L76.79,-228.85L57.02,-227.86L45.65,-257.03L63.45,-297.57ZM360.57,-302.49L304.21,-240.20L294.32,-239.71L338.82,-341.05L338.33,-350.94L318.06,-359.84L288.89,-348.47L241.92,-296.57L252.30,-287.17L299.27,-339.08L309.16,-339.57L264.66,-238.23L265.15,-228.34L275.53,-218.95L295.31,-219.93L314.59,-230.81L352.16,-272.33L316.07,-201.15L297.78,-170.49L288.38,-160.11L278.50,-159.62L277.51,-179.39L267.13,-188.79L247.84,-177.91L249.33,-148.25L269.59,-139.35L279.48,-139.84L308.16,-161.10L335.85,-202.13L417.92,-345.00L407.54,-354.40L387.77,-353.41ZM463.40,-228.33L483.17,-229.32L531.13,-261.45L557.83,-322.25L536.08,-360.82L496.04,-368.73L448.08,-336.60L421.38,-275.79L443.13,-237.23ZM497.02,-348.96L516.80,-349.94L528.17,-320.77L510.37,-280.24L482.19,-249.09L462.41,-248.10L451.04,-277.27L468.84,-317.81ZM757.07,-302.47L746.68,-311.86L699.71,-259.95L689.83,-259.46L744.22,-361.30L733.83,-370.69L714.06,-369.71L677.96,-298.52L640.39,-256.99L630.50,-256.50L619.63,-275.78L665.11,-357.35L664.62,-367.24L644.35,-376.14L615.18,-364.77L568.21,-312.86L578.59,-303.47L625.56,-355.37L635.45,-355.87L589.96,-274.30L601.33,-245.13L621.60,-236.23L641.38,-237.22L669.56,-268.36L670.55,-248.59L680.93,-239.19L690.81,-239.69L710.10,-250.56ZM-681.00,-119.63L-715.62,-18.78L-760.12,82.57L-749.74,91.96L-731.44,61.31L-710.68,80.10L-671.13,78.12L-623.67,36.10L-606.36,-14.32L-618.22,-53.38L-638.49,-62.28L-667.66,-50.91L-686.45,-30.15L-641.95,-131.49L-711.16,-128.04L-710.67,-118.15ZM-666.67,-31.14L-647.39,-42.01L-636.02,-12.84L-653.82,27.70L-691.89,59.33L-711.67,60.32L-722.05,50.93L-722.54,41.04L-694.85,0.01ZM-458.04,-21.73L-459.03,-41.51L-469.91,-60.79L-509.95,-68.70L-557.91,-36.57L-584.61,24.24L-572.75,63.30L-552.48,72.20L-532.70,71.21L-513.42,60.33L-475.84,18.81L-486.23,9.41L-523.80,50.94L-543.58,51.93L-554.95,22.76L-537.15,-17.78L-508.96,-48.92L-489.19,-49.91L-487.71,-20.25L-506.99,-9.37L-536.65,-7.89L-536.16,2.00L-486.72,-0.47ZM-424.92,46.00L-345.32,-146.31L-414.53,-142.85L-414.04,-132.96L-384.37,-134.45L-454.59,47.48L-454.09,57.37L-433.82,66.27L-404.66,54.90L-357.69,2.99L-368.07,-6.40L-415.04,45.51ZM-253.86,-101.31L-243.97,-101.81L-235.07,-122.08L-235.57,-131.96L-255.83,-140.86L-265.72,-140.37L-274.62,-120.10L-274.13,-110.21ZM-358.67,-16.78L-348.29,-7.39L-301.32,-59.29L-291.43,-59.79L-345.82,42.05L-345.33,51.94L-334.95,61.33L-315.17,60.35L-295.89,49.47L-248.92,-2.44L-259.30,-11.83L-306.27,40.08L-316.16,40.57L-261.77,-61.27L-262.27,-71.16L-282.53,-80.06L-311.70,-68.69ZM-111.98,-39.01L-112.96,-58.79L-123.84,-78.07L-163.88,-85.98L-211.84,-53.85L-238.54,6.96L-226.68,46.01L-206.41,54.91L-186.63,53.93L-167.35,43.05L-129.78,1.52L-140.16,-7.87L-177.73,33.66L-197.51,34.64L-208.88,5.48L-191.08,-35.06L-162.90,-66.21L-143.12,-67.20L-141.64,-37.53L-160.92,-26.66L-190.58,-25.18L-190.09,-15.29L-140.65,-17.76ZM16.07,-55.32L7.66,-25.16L-29.91,16.36L-59.08,27.73L-68.97,28.23L-14.09,-63.73L-15.07,-83.50L-35.34,-92.40L-64.51,-81.03L-111.48,-29.13L-101.10,-19.73L-54.13,-71.64L-44.24,-72.13L-98.63,29.71L-98.14,39.59L-87.76,48.99L-67.98,48.00L-19.53,25.76L18.05,-15.77L35.85,-56.31L34.86,-76.08L24.48,-85.48L4.70,-84.49L-4.20,-64.22L6.18,-54.83ZM174.77,-53.33L173.78,-73.11L162.90,-92.39L122.86,-100.30L74.90,-68.17L48.20,-7.36L60.07,31.69L80.33,40.59L100.11,39.61L119.39,28.73L156.97,-12.80L146.59,-22.19L109.01,19.34L89.23,20.32L77.87,-8.84L95.67,-49.38L123.85,-80.53L143.62,-81.52L145.10,-51.85L125.82,-40.98L96.16,-39.50L96.65,-29.61L146.09,-32.08ZM359.18,-131.93L369.06,-132.42L377.96,-152.69L377.47,-162.58L357.20,-171.48L347.31,-170.99L338.41,-150.72L338.91,-140.83ZM254.36,-47.40L264.74,-38.00L311.71,-89.91L321.60,-90.40L267.21,11.44L267.71,21.32L278.09,30.72L297.86,29.73L317.15,18.85L364.11,-33.05L353.73,-42.45L306.76,9.46L296.88,9.95L351.26,-91.88L350.77,-101.77L330.50,-110.67L301.33,-99.30ZM363.13,-52.83L373.51,-43.43L420.48,-95.34L430.37,-95.84L376.47,15.89L386.85,25.29L406.63,24.30L442.23,-56.78L470.41,-87.92L489.69,-98.80L500.07,-89.40L455.08,2.05L455.57,11.94L465.95,21.34L485.73,20.35L505.01,9.47L551.98,-42.43L541.60,-51.83L494.63,0.08L484.74,0.57L530.23,-81.00L528.75,-110.66L498.59,-119.07L469.42,-107.70L441.24,-76.55L450.14,-96.82L449.65,-106.71L439.27,-116.10L410.10,-104.74ZM617.74,-115.11L627.63,-115.60L626.14,-145.26L635.04,-165.53L654.33,-176.41L674.59,-167.51L685.47,-148.22L686.46,-128.45L677.56,-108.18L648.88,-86.92L619.71,-75.55L611.31,-45.40L621.19,-45.89L630.09,-66.16L659.26,-77.53L697.83,-99.28L716.12,-129.93L715.13,-149.71L693.88,-178.38L663.72,-186.79L643.94,-185.80L614.77,-174.43L596.48,-143.78L596.97,-133.89ZM614.27,13.93L624.16,13.43L633.06,-6.83L632.56,-16.72L612.29,-25.62L602.41,-25.13L593.51,-4.86L594.00,5.03Z" fill="#ffffff" stroke="#000000"/>
    <path d="M-805.89,-307.36L-834.17,-294.68L-889.74,-161.07L-902.43,-287.84L-884.88,-309.30L-953.14,-302.46L-931.68,-284.91L-913.13,-99.64L-894.60,-111.34L-831.24,-265.42L-815.62,-109.40L-806.84,-120.13L-717.16,-306.39L-689.85,-328.82L-758.11,-321.99L-736.66,-304.44L-793.20,-180.59ZM-650.85,-332.73L-680.09,-231.31L-720.06,-138.67L-709.33,-129.89L-689.83,-131.85L-658.63,-213.76L-632.31,-245.95L-613.78,-257.65L-603.06,-248.87L-643.03,-156.23L-642.05,-146.48L-631.32,-137.71L-611.82,-139.66L-593.29,-151.36L-549.42,-205.00L-560.15,-213.77L-604.02,-160.14L-613.77,-159.16L-572.83,-242.05L-575.76,-271.31L-605.99,-278.13L-634.26,-265.45L-651.81,-243.99L-612.82,-346.39L-681.08,-339.55L-680.10,-329.80ZM-400.23,-288.88L-410.96,-297.66L-427.53,-266.45L-439.24,-284.98L-479.22,-290.82L-524.07,-246.93L-538.69,-196.23L-525.03,-158.20L-504.56,-150.40L-485.05,-152.35L-458.73,-184.53L-456.78,-165.03L-446.05,-156.26L-417.77,-168.94L-373.90,-222.58L-384.62,-231.35L-428.50,-177.71L-438.25,-176.74ZM-487.01,-171.85L-496.76,-170.88L-509.44,-199.15L-493.84,-240.11L-467.52,-272.30L-448.01,-274.25L-436.31,-255.72L-435.33,-245.97L-460.68,-204.04ZM-340.74,-186.50L-301.74,-288.89L-272.49,-291.82L-273.47,-301.57L-302.72,-298.65L-287.12,-339.60L-306.63,-337.65L-313.45,-307.42L-331.97,-295.72L-351.48,-293.76L-350.50,-284.01L-331.00,-285.96L-369.99,-183.57L-369.01,-173.82L-358.29,-165.04L-338.78,-167.00L-320.26,-178.70L-276.38,-232.34L-287.11,-241.11L-330.99,-187.48ZM-85.25,-192.38L-75.50,-193.36L-56.97,-205.06L-13.10,-258.70L-23.83,-267.48L-67.70,-213.84L-77.45,-212.86L-8.24,-406.92L-76.50,-400.09L-75.53,-390.34L-46.27,-393.27L-66.74,-302.58L-78.44,-321.10L-118.42,-326.95L-163.27,-283.06L-177.89,-232.35L-164.24,-194.32L-143.76,-186.52L-124.26,-188.48L-97.93,-220.66L-95.98,-201.16ZM-126.21,-207.98L-135.96,-207.00L-148.64,-235.28L-133.04,-276.24L-106.72,-308.42L-87.22,-310.37L-75.51,-291.85L-74.54,-282.10L-99.89,-240.16ZM41.51,-205.08L61.02,-207.03L106.84,-241.17L130.24,-302.60L106.83,-339.65L66.85,-345.50L21.02,-311.36L-2.37,-249.93L21.04,-212.88ZM68.80,-326.00L88.30,-327.95L100.99,-299.67L85.39,-258.71L59.06,-226.53L39.56,-224.58L26.88,-252.86L42.48,-293.81ZM335.99,-313.35L283.34,-248.99L273.59,-248.01L312.58,-350.41L311.61,-360.16L291.13,-367.96L262.85,-355.28L218.98,-301.64L229.70,-292.86L273.58,-346.50L283.33,-347.48L244.34,-245.08L245.31,-235.33L256.04,-226.56L275.54,-228.51L294.07,-240.21L329.17,-283.12L297.00,-210.96L280.43,-179.75L271.65,-169.03L261.90,-168.05L259.95,-187.55L249.22,-196.33L230.69,-184.62L233.62,-155.37L254.10,-147.57L263.85,-148.55L291.15,-170.98L316.50,-212.91L390.59,-358.22L379.87,-366.99L360.36,-365.04ZM441.32,-245.11L460.82,-247.06L506.64,-281.20L530.04,-342.63L506.63,-379.69L466.65,-385.53L420.82,-351.40L397.43,-289.96L420.84,-252.91ZM468.60,-366.03L488.11,-367.98L500.79,-339.70L485.19,-298.75L458.86,-266.56L439.36,-264.61L426.68,-292.89L442.28,-333.85ZM727.99,-332.91L717.27,-341.68L673.39,-288.04L663.64,-287.07L712.38,-390.44L701.66,-399.21L682.15,-397.26L649.98,-325.10L614.88,-282.19L605.13,-281.21L593.43,-299.74L634.37,-382.63L633.40,-392.38L612.92,-400.18L584.64,-387.50L540.77,-333.86L551.50,-325.08L595.37,-378.72L605.12,-379.70L564.18,-296.81L576.86,-268.53L597.33,-260.73L616.84,-262.68L643.16,-294.87L645.11,-275.36L655.84,-266.59L665.59,-267.57L684.12,-279.27ZM-684.75,-81.14L-713.99,20.28L-752.98,122.67L-742.26,131.45L-725.68,100.24L-704.23,117.79L-665.22,113.88L-620.37,70.00L-605.75,19.29L-619.41,-18.74L-639.89,-26.54L-668.17,-13.86L-685.71,7.60L-646.72,-94.80L-714.98,-87.96L-714.01,-78.21ZM-666.21,5.64L-647.69,-6.06L-635.01,22.22L-650.60,63.18L-686.68,96.33L-706.18,98.29L-716.91,89.51L-717.89,79.76L-692.54,37.83ZM-459.48,4.64L-461.44,-14.86L-473.14,-33.39L-513.12,-39.23L-558.95,-5.10L-582.34,56.34L-568.69,94.37L-548.21,102.17L-528.71,100.21L-510.18,88.51L-475.08,45.60L-485.81,36.83L-520.91,79.74L-540.41,81.69L-553.09,53.41L-537.49,12.45L-511.17,-19.73L-491.67,-21.68L-488.74,7.57L-507.26,19.28L-536.52,22.21L-535.54,31.96L-486.78,27.07ZM-423.40,69.97L-354.19,-124.09L-422.44,-117.25L-421.47,-107.50L-392.21,-110.43L-452.65,72.90L-451.67,82.65L-431.19,90.45L-402.92,77.77L-359.04,24.13L-369.77,15.36L-413.64,69.00ZM-261.54,-84.12L-251.79,-85.10L-243.99,-105.58L-244.97,-115.33L-265.45,-123.13L-275.20,-122.15L-283.00,-101.67L-282.02,-91.92ZM-360.99,4.63L-350.27,13.40L-306.39,-40.23L-296.64,-41.21L-345.39,62.16L-344.41,71.91L-333.68,80.69L-314.18,78.73L-295.65,67.03L-251.78,13.39L-262.51,4.62L-306.38,58.26L-316.13,59.23L-267.39,-44.14L-268.36,-53.89L-288.84,-61.69L-317.12,-49.01ZM-118.19,-29.53L-120.14,-49.03L-131.85,-67.56L-171.83,-73.41L-217.66,-39.27L-241.05,22.17L-227.39,60.20L-206.92,67.99L-187.41,66.04L-168.89,54.34L-133.79,11.43L-144.51,2.65L-179.61,45.56L-199.12,47.51L-211.80,19.24L-196.20,-21.72L-169.88,-53.90L-150.37,-55.86L-147.44,-26.60L-165.97,-14.90L-195.22,-11.97L-194.25,-2.22L-145.49,-7.10ZM7.60,-51.98L0.78,-21.75L-34.32,21.16L-62.60,33.85L-72.35,34.82L-22.63,-58.80L-24.58,-78.30L-45.06,-86.10L-73.34,-73.42L-117.21,-19.78L-106.49,-11.01L-62.61,-64.64L-52.86,-65.62L-101.60,37.75L-100.63,47.50L-89.90,56.28L-70.40,54.32L-23.59,29.94L11.50,-12.97L27.10,-53.93L25.15,-73.43L14.42,-82.21L-5.08,-80.25L-12.88,-59.77L-2.15,-51.00ZM164.60,-57.85L162.64,-77.35L150.94,-95.88L110.96,-101.72L65.13,-67.59L41.74,-6.15L55.39,31.88L75.87,39.68L95.37,37.73L113.90,26.02L149.00,-16.89L138.27,-25.66L103.17,17.25L83.67,19.20L70.99,-9.08L86.59,-50.04L112.91,-82.22L132.41,-84.17L135.34,-54.92L116.82,-43.21L87.56,-40.28L88.54,-30.53L137.29,-35.42ZM343.03,-144.66L352.79,-145.63L360.58,-166.11L359.61,-175.86L339.13,-183.66L329.38,-182.69L321.58,-162.21L322.56,-152.46ZM243.58,-55.91L254.31,-47.13L298.18,-100.77L307.93,-101.75L259.19,1.62L260.17,11.38L270.90,20.15L290.40,18.20L308.92,6.49L352.80,-47.14L342.07,-55.92L298.20,-2.28L288.45,-1.31L337.19,-104.68L336.21,-114.43L315.73,-122.23L287.46,-109.55ZM350.85,-66.65L361.57,-57.87L405.45,-111.51L415.20,-112.49L367.43,0.64L378.16,9.41L397.66,7.46L428.86,-74.46L455.18,-106.64L473.71,-118.35L484.43,-109.57L444.47,-16.93L445.44,-7.18L456.17,1.60L475.67,-0.35L494.20,-12.06L538.07,-65.70L527.34,-74.47L483.47,-20.83L473.72,-19.86L514.66,-102.75L511.73,-132.00L481.50,-138.82L453.23,-126.14L426.90,-93.96L434.70,-114.44L433.72,-124.19L423.00,-132.97L394.72,-120.29ZM599.50,-140.79L609.25,-141.77L606.32,-171.02L614.12,-191.50L632.64,-203.20L653.12,-195.40L664.83,-176.88L666.78,-157.38L658.98,-136.90L631.68,-114.47L603.40,-101.78L596.58,-71.55L606.33,-72.53L614.13,-93.01L642.41,-105.69L679.46,-129.10L696.03,-160.31L694.08,-179.81L671.65,-207.11L641.42,-213.93L621.91,-211.98L593.64,-199.30L577.06,-168.09L578.04,-158.34ZM602.44,-13.05L612.19,-14.02L619.99,-34.50L619.01,-44.25L598.53,-52.05L588.78,-51.08L580.98,-30.60L581.96,-20.85Z" fill="#ffffff" stroke="#000000"/>
    <path d="M-817.17,-260.31L-844.50,-246.38L-892.83,-111.56L-911.64,-236.25L-895.35,-258.33L-962.49,-248.20L-940.41,-231.91L-912.93,-49.67L-895.19,-62.16L-840.16,-217.60L-817.01,-64.14L-808.87,-75.18L-729.40,-263.74L-703.52,-287.26L-770.66,-277.13L-748.58,-260.84L-798.36,-135.62ZM-665.15,-293.05L-689.05,-191.35L-723.99,-97.79L-712.95,-89.64L-693.77,-92.54L-666.98,-175.06L-642.54,-208.17L-624.81,-220.66L-613.77,-212.51L-648.71,-118.95L-647.26,-109.36L-636.22,-101.22L-617.04,-104.11L-599.30,-116.59L-558.58,-171.79L-569.62,-179.93L-610.34,-124.74L-619.93,-123.29L-583.55,-207.26L-587.89,-236.03L-618.11,-241.28L-645.44,-227.35L-661.73,-205.28L-628.23,-308.43L-695.37,-298.30L-693.93,-288.71ZM-415.24,-262.07L-426.28,-270.22L-441.12,-238.55L-453.61,-256.29L-493.42,-260.09L-535.59,-214.49L-547.54,-163.64L-532.16,-126.72L-511.53,-120.02L-492.35,-122.92L-467.91,-156.03L-465.02,-136.85L-453.98,-128.70L-426.65,-142.63L-385.93,-197.83L-396.97,-205.97L-437.69,-150.78L-447.28,-149.33ZM-495.24,-142.10L-504.83,-140.65L-518.76,-167.98L-505.37,-209.24L-480.93,-242.35L-461.75,-245.25L-449.27,-227.51L-447.82,-217.92L-470.81,-175.21ZM-351.37,-163.80L-317.88,-266.95L-289.10,-271.29L-290.55,-280.88L-319.32,-276.54L-305.93,-317.80L-325.11,-314.91L-330.36,-284.68L-348.10,-272.20L-367.28,-269.31L-365.83,-259.71L-346.65,-262.61L-380.14,-159.46L-378.70,-149.87L-367.66,-141.72L-348.48,-144.62L-330.74,-157.10L-290.01,-212.29L-301.05,-220.44L-341.78,-165.25ZM-99.10,-182.23L-89.50,-183.68L-71.77,-196.16L-31.04,-251.35L-42.08,-259.50L-82.81,-204.31L-92.40,-202.86L-33.56,-398.12L-100.70,-387.99L-99.25,-378.40L-70.48,-382.74L-86.23,-292.08L-98.72,-309.81L-138.53,-313.62L-180.70,-268.02L-192.65,-217.17L-177.27,-180.25L-156.64,-173.55L-137.46,-176.44L-113.03,-209.56L-110.13,-190.37ZM-140.36,-195.63L-149.95,-194.18L-163.88,-221.51L-150.48,-262.77L-126.05,-295.88L-106.86,-298.77L-94.38,-281.04L-92.93,-271.45L-115.92,-228.74ZM25.59,-201.04L44.78,-203.93L88.39,-239.94L108.49,-301.83L83.52,-337.30L43.71,-341.10L0.09,-305.10L-20.01,-243.21L4.96,-207.73ZM46.60,-321.92L65.78,-324.81L79.71,-297.49L66.32,-256.23L41.88,-223.11L22.70,-220.22L8.77,-247.55L22.17,-288.81ZM311.36,-322.61L262.49,-256.38L252.90,-254.94L286.39,-358.09L284.94,-367.68L264.31,-374.38L236.98,-360.44L196.26,-305.25L207.30,-297.11L248.02,-352.30L257.61,-353.75L224.12,-250.60L225.57,-241.01L236.61,-232.86L255.79,-235.75L273.53,-248.24L306.11,-292.39L277.87,-219.47L263.02,-187.80L254.88,-176.76L245.29,-175.31L242.39,-194.50L231.36,-202.64L213.62,-190.16L217.96,-161.38L238.59,-154.68L248.18,-156.13L274.06,-179.65L297.05,-222.36L363.12,-369.66L352.08,-377.80L332.90,-374.91ZM418.85,-260.35L438.03,-263.24L481.65,-299.25L501.74,-361.14L476.77,-396.61L436.96,-400.42L393.34,-364.41L373.25,-302.52L398.22,-267.05ZM439.85,-381.23L459.04,-384.13L472.97,-356.80L459.57,-315.54L435.14,-282.42L415.95,-279.53L402.02,-306.86L415.42,-348.12ZM697.91,-361.30L686.87,-369.44L646.15,-314.25L636.56,-312.80L679.64,-417.40L668.60,-425.54L649.42,-422.65L621.18,-349.72L588.60,-305.57L579.01,-304.12L566.52,-321.86L602.91,-405.83L601.46,-415.42L580.83,-422.12L553.50,-408.18L512.78,-352.99L523.82,-344.85L564.54,-400.04L574.13,-401.49L537.75,-317.52L551.68,-290.19L572.31,-283.49L591.49,-286.39L615.93,-319.50L618.82,-300.32L629.86,-292.17L639.45,-293.62L657.19,-306.11ZM-686.25,-42.66L-710.15,59.04L-743.64,162.19L-732.60,170.33L-717.76,138.67L-695.68,154.96L-657.31,149.17L-615.14,103.57L-603.19,52.72L-618.57,15.80L-639.20,9.10L-666.53,23.03L-682.82,45.11L-649.33,-58.04L-716.47,-47.91L-715.02,-38.32ZM-663.64,42.22L-645.90,29.73L-631.97,57.06L-645.36,98.32L-679.39,132.88L-698.57,135.77L-709.61,127.63L-711.06,118.04L-688.07,75.33ZM-459.32,31.02L-462.21,11.84L-474.70,-5.90L-514.51,-9.70L-558.13,26.30L-578.22,88.19L-562.85,125.11L-542.22,131.81L-523.03,128.92L-505.30,116.43L-472.72,72.28L-483.76,64.13L-516.33,108.29L-535.52,111.18L-549.45,83.85L-536.05,42.59L-511.62,9.48L-492.44,6.58L-488.10,35.36L-505.83,47.84L-534.61,52.18L-533.16,61.78L-485.20,54.54ZM-420.42,93.82L-361.58,-101.44L-428.72,-91.31L-427.28,-81.72L-398.50,-86.06L-449.19,98.16L-447.75,107.75L-427.12,114.45L-399.79,100.52L-359.07,45.33L-370.10,37.18L-410.83,92.37ZM-268.03,-66.50L-258.43,-67.95L-251.74,-88.58L-253.18,-98.17L-273.81,-104.87L-283.40,-103.42L-290.10,-82.79L-288.66,-73.20ZM-361.96,26.14L-350.92,34.29L-310.20,-20.90L-300.60,-22.35L-343.69,82.25L-342.24,91.84L-331.20,99.98L-312.02,97.09L-294.28,84.61L-253.56,29.41L-264.60,21.27L-305.32,76.46L-314.91,77.91L-271.83,-26.69L-273.28,-36.28L-293.91,-42.98L-321.23,-29.05ZM-123.62,-19.61L-126.51,-38.80L-139.00,-56.53L-178.81,-60.34L-222.43,-24.33L-242.52,37.56L-227.14,74.48L-206.51,81.18L-187.33,78.28L-169.59,65.80L-137.01,21.65L-148.05,13.50L-180.63,57.65L-199.81,60.55L-213.75,33.22L-200.35,-8.04L-175.92,-41.15L-156.73,-44.05L-152.39,-15.27L-170.13,-2.79L-198.90,1.55L-197.46,11.14L-149.50,3.91ZM-0.37,-48.01L-5.63,-17.79L-38.21,26.36L-65.53,40.29L-75.12,41.74L-30.60,-53.26L-33.49,-72.45L-54.12,-79.14L-81.45,-65.21L-122.17,-10.02L-111.13,-1.88L-70.41,-57.07L-60.82,-58.51L-103.90,46.08L-102.45,55.67L-91.41,63.82L-72.23,60.92L-27.17,34.51L5.41,-9.65L18.81,-50.90L15.92,-70.09L4.88,-78.23L-14.31,-75.34L-21.00,-54.71L-9.97,-46.56ZM154.54,-61.57L151.64,-80.75L139.16,-98.49L99.35,-102.29L55.73,-66.28L35.63,-4.39L51.01,32.53L71.64,39.22L90.82,36.33L108.56,23.85L141.14,-20.31L130.10,-28.45L97.52,15.70L78.34,18.59L64.41,-8.73L77.80,-49.99L102.24,-83.11L121.42,-86.00L125.76,-57.23L108.03,-44.74L79.25,-40.40L80.70,-30.81L128.66,-38.04ZM326.65,-156.19L336.24,-157.64L342.94,-178.27L341.49,-187.86L320.86,-194.56L311.27,-193.11L304.57,-172.48L306.02,-162.89ZM232.72,-63.55L243.75,-55.40L284.48,-110.59L294.07,-112.04L250.99,-7.45L252.43,2.15L263.47,10.29L282.65,7.40L300.39,-5.09L341.12,-60.28L330.08,-68.42L289.35,-13.23L279.76,-11.79L322.84,-116.38L321.40,-125.97L300.77,-132.67L273.44,-118.74ZM338.22,-79.46L349.26,-71.32L389.98,-126.51L399.58,-127.95L357.94,-13.77L368.98,-5.62L388.16,-8.52L414.95,-91.03L439.39,-124.15L457.13,-136.63L468.16,-128.49L433.23,-34.93L434.67,-25.34L445.71,-17.19L464.89,-20.09L482.63,-32.57L523.35,-87.76L512.32,-95.91L471.59,-40.72L462.00,-39.27L498.38,-123.24L494.04,-152.01L463.82,-157.26L436.50,-143.33L412.06,-110.22L418.76,-130.85L417.31,-140.44L406.27,-148.58L378.95,-134.65ZM580.37,-165.03L589.96,-166.48L585.62,-195.25L592.32,-215.88L610.05,-228.37L630.68,-221.67L643.17,-203.93L646.06,-184.75L639.36,-164.12L613.48,-140.60L586.15,-126.66L580.90,-96.44L590.49,-97.89L597.19,-118.52L624.52,-132.45L659.99,-157.42L674.84,-189.09L671.94,-208.27L648.42,-234.15L618.20,-239.40L599.02,-236.51L571.69,-222.58L556.85,-190.91L558.29,-181.32ZM589.58,-38.89L599.17,-40.34L605.87,-60.97L604.43,-70.56L583.80,-77.26L574.20,-75.81L567.51,-55.18L568.95,-45.59Z" fill="#ffffff" stroke="#000000"/>
    <path d="M-825.66,-213.00L-851.99,-197.88L-893.11,-62.24L-917.86,-184.56L-902.84,-207.18L-968.71,-193.86L-946.08,-178.85L-909.92,-0.07L-893.00,-13.28L-846.28,-169.65L-815.82,-19.10L-808.32,-30.42L-739.08,-220.72L-714.66,-245.25L-780.52,-231.93L-757.90,-216.92L-800.92,-90.68ZM-677.02,-252.87L-695.62,-151.16L-725.54,-56.96L-714.22,-49.45L-695.41,-53.26L-673.00,-136.15L-650.48,-170.08L-633.56,-183.30L-622.25,-175.79L-652.17,-81.59L-650.26,-72.18L-638.95,-64.68L-620.13,-68.48L-603.21,-81.70L-565.68,-138.26L-577.00,-145.77L-614.53,-89.21L-623.94,-87.30L-592.12,-172.10L-597.83,-200.32L-627.96,-204.02L-654.28,-188.90L-669.30,-166.28L-641.28,-269.89L-707.15,-256.56L-705.25,-247.16ZM-428.46,-234.59L-439.77,-242.09L-452.88,-210.06L-466.10,-226.97L-505.64,-228.77L-545.07,-181.61L-554.37,-130.76L-537.35,-95.02L-516.63,-89.42L-497.81,-93.23L-475.29,-127.17L-471.48,-108.35L-460.17,-100.84L-433.85,-115.96L-396.32,-172.53L-407.63,-180.03L-445.16,-123.47L-454.57,-121.56ZM-501.61,-112.05L-511.02,-110.14L-526.14,-136.47L-514.94,-177.91L-492.42,-211.85L-473.60,-215.66L-460.39,-198.74L-458.48,-189.33L-479.10,-145.99ZM-360.47,-140.60L-332.46,-244.21L-304.23,-249.92L-306.14,-259.33L-334.36,-253.62L-323.16,-295.06L-341.98,-291.26L-345.68,-261.13L-362.59,-247.91L-381.41,-244.10L-379.51,-234.69L-360.69,-238.50L-388.70,-134.89L-386.80,-125.48L-375.49,-117.97L-356.67,-121.78L-339.75,-135.00L-302.22,-191.56L-313.53,-199.07L-351.06,-142.50ZM-112.02,-171.27L-102.61,-173.17L-85.70,-186.39L-48.17,-242.95L-59.48,-250.46L-97.01,-193.89L-106.42,-191.99L-57.90,-387.90L-123.77,-374.58L-121.86,-365.17L-93.63,-370.88L-104.73,-280.48L-117.95,-297.40L-157.49,-299.19L-196.92,-252.04L-206.22,-201.19L-189.20,-165.45L-168.48,-159.85L-149.66,-163.66L-127.14,-197.59L-123.34,-178.78ZM-153.47,-182.47L-162.88,-180.57L-178.00,-206.90L-166.79,-248.34L-144.27,-282.28L-125.45,-286.09L-112.24,-269.17L-110.33,-259.76L-130.95,-216.41ZM10.30,-196.01L29.12,-199.82L70.46,-237.57L87.26,-299.73L60.83,-333.56L21.29,-335.36L-20.05,-297.61L-36.85,-235.45L-10.42,-201.62ZM25.10,-316.54L43.92,-320.35L59.04,-294.02L47.83,-252.58L25.31,-218.64L6.49,-214.83L-8.63,-241.16L2.58,-282.60ZM286.76,-330.30L241.73,-262.42L232.32,-260.51L260.33,-364.13L258.43,-373.54L237.71,-379.14L211.38,-364.02L173.85,-307.45L185.16,-299.95L222.69,-356.51L232.10,-358.42L204.09,-254.80L205.99,-245.40L217.31,-237.89L236.13,-241.70L253.04,-254.91L283.07,-300.16L258.75,-226.68L245.64,-194.65L238.14,-183.34L228.73,-181.43L224.92,-200.25L213.61,-207.76L196.69,-194.54L202.40,-166.31L223.13,-160.71L232.53,-162.61L256.96,-187.14L277.57,-230.49L335.61,-379.35L324.29,-386.86L305.48,-383.05ZM396.09,-274.05L414.90,-277.86L456.24,-315.61L473.05,-377.77L446.62,-411.60L407.08,-413.40L365.74,-375.65L348.93,-313.49L375.36,-279.66ZM410.88,-394.58L429.70,-398.39L444.82,-372.06L433.62,-330.62L411.10,-296.68L392.28,-292.87L377.16,-319.20L388.36,-360.64ZM666.95,-387.61L655.63,-395.12L618.10,-338.56L608.70,-336.65L646.12,-442.17L634.80,-449.67L615.99,-445.87L591.67,-372.39L561.65,-327.13L552.24,-325.23L539.02,-342.15L570.84,-426.94L568.94,-436.35L548.22,-441.95L521.89,-426.83L484.36,-370.27L495.67,-362.76L533.20,-419.33L542.61,-421.23L510.79,-336.44L525.91,-310.11L546.64,-304.51L565.46,-308.32L587.97,-342.25L591.78,-323.44L603.09,-315.93L612.50,-317.83L629.42,-331.05ZM-685.51,-4.33L-704.11,97.38L-732.12,200.99L-720.81,208.50L-707.70,176.46L-685.08,191.47L-647.44,183.86L-608.01,136.71L-598.70,85.85L-615.73,50.12L-636.45,44.51L-662.77,59.63L-677.79,82.26L-649.77,-21.35L-715.64,-8.03L-713.74,1.38ZM-658.97,78.45L-642.05,65.24L-626.93,91.56L-638.14,133.01L-670.06,168.85L-688.88,172.66L-700.20,165.15L-702.10,155.74L-681.49,112.39ZM-457.56,57.30L-461.37,38.48L-474.59,21.57L-514.13,19.77L-555.46,57.52L-572.27,119.68L-555.25,155.42L-534.53,161.02L-515.71,157.21L-498.79,144.00L-468.77,98.74L-480.08,91.24L-510.10,136.49L-528.92,140.30L-544.04,113.97L-532.84,72.53L-510.32,38.59L-491.50,34.78L-485.79,63.01L-502.71,76.23L-530.93,81.94L-529.03,91.35L-481.98,81.83ZM-416.01,117.46L-367.49,-78.45L-433.36,-65.13L-431.45,-55.72L-403.23,-61.43L-444.24,123.17L-442.34,132.58L-421.61,138.18L-395.29,123.06L-357.76,66.49L-369.07,58.99L-406.60,115.55ZM-273.29,-48.54L-263.88,-50.44L-258.28,-71.16L-260.18,-80.57L-280.90,-86.18L-290.31,-84.27L-295.92,-63.55L-294.01,-54.14ZM-361.57,47.68L-350.25,55.18L-312.72,-1.38L-303.31,-3.29L-340.74,102.23L-338.83,111.64L-327.52,119.14L-308.70,115.34L-291.79,102.12L-254.26,45.56L-265.57,38.05L-303.10,94.61L-312.51,96.52L-275.09,-9.00L-276.99,-18.41L-297.71,-24.01L-324.04,-8.89ZM-128.23,-9.32L-132.04,-28.14L-145.26,-45.05L-184.80,-46.85L-226.13,-9.10L-242.94,53.06L-225.92,88.80L-205.20,94.40L-186.38,90.59L-169.46,77.38L-139.44,32.12L-150.75,24.62L-180.78,69.87L-199.59,73.68L-214.71,47.35L-203.51,5.91L-180.99,-28.03L-162.17,-31.84L-156.46,-3.61L-173.38,9.61L-201.61,15.32L-199.70,24.73L-152.66,15.21ZM-7.81,-43.47L-11.51,-13.34L-41.54,31.91L-67.86,47.03L-77.27,48.93L-37.95,-47.17L-41.75,-65.99L-62.48,-71.59L-88.80,-56.47L-126.33,0.09L-115.02,7.60L-77.49,-48.97L-68.08,-50.87L-105.50,54.64L-103.60,64.05L-92.28,71.56L-73.47,67.75L-30.23,39.42L-0.20,-5.84L11.00,-47.28L7.20,-66.10L-4.12,-73.61L-22.93,-69.80L-28.54,-49.08L-17.22,-41.57ZM144.64,-64.52L140.83,-83.34L127.62,-100.25L88.07,-102.05L46.74,-64.30L29.93,-2.14L46.95,33.60L67.68,39.20L86.49,35.39L103.41,22.18L133.43,-23.07L122.12,-30.58L92.10,14.67L73.28,18.48L58.16,-7.85L69.36,-49.29L91.88,-83.23L110.70,-87.04L116.41,-58.81L99.50,-45.59L71.27,-39.88L73.17,-30.47L120.22,-39.99ZM310.09,-166.55L319.50,-168.45L325.11,-189.18L323.20,-198.59L302.48,-204.19L293.07,-202.28L287.47,-181.56L289.37,-172.15ZM221.82,-70.34L233.13,-62.83L270.66,-119.40L280.07,-121.30L242.65,-15.78L244.55,-6.37L255.86,1.13L274.68,-2.68L291.60,-15.89L329.13,-72.46L317.82,-79.96L280.29,-23.40L270.88,-21.49L308.30,-127.01L306.39,-136.42L285.67,-142.02L259.35,-126.90ZM325.32,-91.27L336.63,-83.77L374.16,-140.33L383.57,-142.24L348.05,-27.31L359.37,-19.81L378.19,-23.61L400.60,-106.50L423.11,-140.44L440.03,-153.66L451.34,-146.15L421.43,-51.95L423.33,-42.54L434.64,-35.03L453.46,-38.84L470.38,-52.06L507.91,-108.62L496.59,-116.13L459.06,-59.56L449.65,-57.66L481.47,-142.45L475.76,-170.68L445.63,-174.38L419.31,-159.26L396.79,-125.32L402.39,-146.04L400.49,-155.45L389.18,-162.96L362.85,-147.84ZM560.45,-187.81L569.86,-189.71L564.15,-217.94L569.75,-238.66L586.67,-251.88L607.39,-246.28L620.60,-229.36L624.41,-210.54L618.81,-189.82L594.39,-165.29L568.06,-150.17L564.36,-120.04L573.77,-121.95L579.38,-142.67L605.70,-157.79L639.53,-184.22L652.64,-216.25L648.83,-235.07L624.30,-259.49L594.17,-263.19L575.35,-259.39L549.03,-244.27L535.92,-212.23L537.82,-202.82ZM575.78,-63.59L585.19,-65.49L590.80,-86.21L588.89,-95.62L568.17,-101.22L558.76,-99.32L553.16,-78.60L555.06,-69.19Z" fill="#ffffff" stroke="#000000"/>
    <path d="M-831.38,-165.60L-856.65,-149.35L-890.60,-13.26L-921.09,-132.93L-907.37,-156.04L-971.81,-139.62L-948.71,-125.90L-904.14,49.01L-888.08,35.12L-849.62,-121.74L-812.08,25.56L-805.22,14.01L-746.18,-177.50L-723.26,-202.95L-787.70,-186.53L-764.59,-172.81L-800.89,-45.92ZM-686.43,-212.33L-699.80,-110.89L-724.72,-16.31L-713.17,-9.45L-694.75,-14.14L-676.70,-97.17L-656.12,-131.83L-640.05,-145.72L-628.50,-138.86L-653.42,-44.28L-651.07,-35.08L-639.52,-28.22L-621.11,-32.91L-605.04,-46.81L-570.74,-104.56L-582.29,-111.42L-616.59,-53.67L-625.80,-51.32L-598.53,-136.70L-605.57,-164.31L-635.53,-166.48L-660.81,-150.24L-674.53,-127.14L-651.95,-230.92L-716.40,-214.50L-714.05,-205.30ZM-439.87,-206.54L-451.42,-213.40L-462.79,-181.09L-476.69,-197.15L-515.86,-196.98L-552.51,-148.42L-559.19,-97.70L-540.60,-63.23L-519.84,-58.71L-501.43,-63.40L-480.85,-98.06L-476.16,-79.65L-464.61,-72.79L-439.34,-89.03L-405.03,-146.79L-416.59,-153.65L-450.89,-95.89L-460.09,-93.54ZM-506.12,-81.81L-515.33,-79.47L-531.57,-104.74L-522.54,-146.26L-501.96,-180.91L-483.55,-185.60L-469.65,-169.54L-467.31,-160.33L-485.54,-116.47ZM-368.03,-117.00L-345.46,-220.79L-317.84,-227.82L-320.19,-237.03L-347.81,-229.99L-338.78,-271.51L-357.19,-266.82L-359.36,-236.85L-375.43,-222.96L-393.84,-218.26L-391.49,-209.06L-373.08,-213.75L-395.65,-109.96L-393.31,-100.76L-381.75,-93.90L-363.34,-98.59L-347.28,-112.49L-312.98,-170.24L-324.53,-177.10L-358.83,-119.35ZM-123.99,-159.58L-114.78,-161.92L-98.72,-175.82L-64.42,-233.58L-75.97,-240.44L-110.27,-182.68L-119.48,-180.33L-81.19,-376.36L-145.63,-359.94L-143.29,-350.73L-115.67,-357.77L-122.18,-267.88L-136.07,-283.94L-175.24,-283.77L-211.89,-235.21L-218.57,-184.49L-199.98,-150.02L-179.23,-145.50L-160.81,-150.19L-140.23,-184.85L-135.54,-166.44ZM-165.51,-168.60L-174.71,-166.26L-190.95,-191.53L-181.93,-233.05L-161.34,-267.70L-142.93,-272.39L-129.04,-256.33L-126.69,-247.12L-144.93,-203.26ZM-4.31,-190.07L14.10,-194.76L53.09,-234.11L66.63,-296.38L38.84,-328.51L-0.33,-328.33L-39.32,-288.99L-52.87,-226.72L-25.07,-194.58ZM4.36,-309.92L22.77,-314.61L39.02,-289.34L29.99,-247.83L9.41,-213.17L-9.01,-208.48L-25.25,-233.75L-16.22,-275.27ZM262.30,-336.43L221.14,-267.12L211.93,-264.78L234.51,-368.57L232.16,-377.77L211.40,-382.29L186.13,-366.04L151.83,-308.28L163.38,-301.42L197.68,-359.18L206.89,-361.53L184.32,-257.74L186.66,-248.54L198.21,-241.67L216.63,-246.37L232.69,-260.26L260.13,-306.47L239.73,-232.65L228.35,-200.34L221.49,-188.79L212.29,-186.44L207.60,-204.85L196.05,-211.71L179.98,-197.81L187.02,-170.20L207.77,-165.68L216.98,-168.03L239.91,-193.48L258.14,-237.34L308.15,-387.33L296.60,-394.19L278.19,-389.50ZM373.13,-286.24L391.54,-290.93L430.53,-330.28L444.07,-392.55L416.28,-424.68L377.11,-424.51L338.12,-385.16L324.57,-322.89L352.37,-290.76ZM381.80,-406.10L400.21,-410.79L416.46,-385.52L407.43,-344.00L386.85,-309.35L368.43,-304.65L352.19,-329.93L361.22,-371.44ZM635.23,-411.85L623.68,-418.71L589.37,-360.95L580.17,-358.61L611.95,-464.74L600.40,-471.60L581.98,-466.91L561.58,-393.08L534.14,-346.88L524.93,-344.53L511.04,-360.60L538.30,-445.97L535.95,-455.18L515.20,-459.69L489.92,-443.45L455.62,-385.69L467.18,-378.83L501.48,-436.59L510.68,-438.94L483.42,-353.56L499.66,-328.29L520.42,-323.77L538.83,-328.47L559.41,-363.12L564.10,-344.71L575.65,-337.85L584.86,-340.19L600.93,-354.09ZM-682.56,33.73L-695.92,135.17L-718.49,238.96L-706.94,245.82L-695.57,213.51L-672.47,227.23L-635.64,217.84L-599.00,169.29L-592.31,118.57L-610.90,84.09L-631.66,79.58L-656.93,95.82L-670.65,118.93L-648.08,15.14L-712.52,31.56L-710.17,40.76ZM-652.24,114.23L-636.17,100.34L-619.93,125.61L-628.96,167.12L-658.75,204.12L-677.16,208.82L-688.71,201.96L-691.05,192.75L-672.82,148.89ZM-454.22,83.39L-458.92,64.98L-472.81,48.91L-511.98,49.09L-550.97,88.43L-564.52,150.70L-545.93,185.18L-525.17,189.70L-506.76,185.00L-490.69,171.11L-463.25,124.90L-474.81,118.04L-502.25,164.25L-520.66,168.94L-536.90,143.67L-527.87,102.15L-507.29,67.50L-488.88,62.81L-481.84,90.42L-497.91,104.32L-525.53,111.36L-523.18,120.56L-477.15,108.84ZM-410.19,140.79L-371.90,-55.23L-436.34,-38.81L-434.00,-29.61L-406.38,-36.64L-437.80,147.83L-435.46,157.03L-414.70,161.55L-389.43,145.31L-355.13,87.55L-366.68,80.69L-400.98,138.44ZM-277.32,-30.31L-268.12,-32.66L-263.60,-53.42L-265.95,-62.62L-286.70,-67.14L-295.91,-64.79L-300.42,-44.03L-298.08,-34.83ZM-359.82,69.14L-348.27,76.00L-313.97,18.24L-304.76,15.89L-336.54,122.03L-334.19,131.23L-322.64,138.09L-304.23,133.40L-288.17,119.50L-253.86,61.74L-265.42,54.88L-299.72,112.64L-308.92,114.99L-277.14,8.86L-279.49,-0.35L-300.25,-4.86L-325.52,11.38ZM-132.02,1.29L-136.71,-17.12L-150.61,-33.19L-189.78,-33.01L-228.77,6.33L-242.31,68.60L-223.72,103.08L-202.97,107.60L-184.56,102.91L-168.49,89.01L-141.05,42.80L-152.60,35.94L-180.04,82.15L-198.45,86.84L-214.70,61.57L-205.67,20.05L-185.09,-14.60L-166.67,-19.29L-159.64,8.32L-175.70,22.22L-203.32,29.26L-200.98,38.46L-154.95,26.74ZM-14.69,-38.41L-16.86,-8.45L-44.30,37.76L-69.57,54.00L-78.78,56.35L-44.65,-40.58L-49.34,-58.99L-70.10,-63.51L-95.37,-47.26L-129.67,10.49L-118.12,17.35L-83.82,-40.40L-74.62,-42.75L-106.39,63.38L-104.05,72.59L-92.50,79.45L-74.09,74.76L-32.75,44.62L-5.31,-1.59L3.72,-43.10L-0.97,-61.52L-12.52,-68.38L-30.93,-63.68L-35.45,-42.93L-23.90,-36.07ZM134.95,-66.74L130.26,-85.15L116.36,-101.22L77.19,-101.04L38.20,-61.69L24.66,0.58L43.25,35.06L64.00,39.57L82.41,34.88L98.48,20.98L125.92,-25.22L114.37,-32.08L86.93,14.12L68.52,18.81L52.27,-6.46L61.30,-47.97L81.88,-82.63L100.30,-87.32L107.33,-59.70L91.27,-45.80L63.65,-38.77L65.99,-29.56L112.02,-41.29ZM293.44,-175.75L302.65,-178.09L307.16,-198.85L304.82,-208.06L284.06,-212.57L274.85,-210.22L270.34,-189.47L272.68,-180.26ZM210.94,-76.30L222.49,-69.44L256.79,-127.19L266.00,-129.54L234.22,-23.41L236.57,-14.20L248.12,-7.34L266.53,-12.03L282.60,-25.93L316.90,-83.69L305.35,-90.55L271.05,-32.79L261.84,-30.44L293.62,-136.58L291.27,-145.78L270.52,-150.30L245.24,-134.05ZM312.21,-102.10L323.76,-95.24L358.06,-153.00L367.27,-155.34L337.83,-40.00L349.38,-33.14L367.80,-37.84L385.85,-120.87L406.43,-155.52L422.50,-169.42L434.05,-162.56L409.13,-67.98L411.48,-58.77L423.03,-51.91L441.44,-56.60L457.51,-70.50L491.81,-128.26L480.26,-135.12L445.96,-77.36L436.75,-75.01L464.01,-160.39L456.98,-188.01L427.01,-190.17L401.74,-173.93L381.16,-139.28L385.68,-160.03L383.33,-169.24L371.78,-176.10L346.51,-159.86ZM539.83,-209.12L549.04,-211.46L542.00,-239.08L546.51,-259.84L562.58,-273.73L583.34,-269.22L597.23,-253.15L601.93,-234.74L597.41,-213.99L574.49,-188.54L549.21,-172.29L547.04,-142.33L556.25,-144.68L560.76,-165.43L586.04,-181.68L618.17,-209.47L629.54,-241.78L624.85,-260.19L599.40,-283.12L569.44,-285.29L551.03,-280.60L525.76,-264.35L514.38,-232.04L516.73,-222.84ZM561.12,-87.10L570.32,-89.44L574.84,-110.20L572.49,-119.40L551.74,-123.92L542.53,-121.57L538.02,-100.82L540.36,-91.61Z" fill="#ffffff" stroke="#000000"/>
    <path d="M-834.34,-118.26L-858.51,-100.96L-885.34,35.21L-921.38,-81.55L-908.96,-105.06L-971.84,-85.66L-948.33,-73.24L-895.65,97.42L-880.46,82.89L-850.19,-74.02L-805.83,69.69L-799.62,57.94L-750.73,-134.23L-729.33,-160.51L-792.20,-141.10L-768.69,-128.69L-798.29,-1.50ZM-693.40,-171.60L-701.60,-70.69L-721.56,24.01L-709.80,30.21L-691.84,24.67L-678.09,-58.27L-659.46,-93.54L-644.27,-108.06L-632.52,-101.85L-652.48,-7.16L-649.70,1.83L-637.95,8.04L-619.99,2.49L-604.79,-12.04L-573.75,-70.81L-585.50,-77.02L-616.55,-18.25L-625.53,-15.47L-602.80,-101.19L-611.12,-128.14L-640.84,-128.80L-665.01,-111.50L-677.43,-87.99L-660.24,-191.67L-723.12,-172.27L-720.34,-163.28ZM-449.44,-178.04L-461.20,-184.25L-470.85,-151.76L-485.37,-166.95L-524.07,-164.84L-557.89,-115.05L-561.99,-64.60L-541.92,-31.44L-521.19,-28.01L-503.22,-33.55L-484.59,-68.81L-479.05,-50.85L-467.29,-44.64L-443.12,-61.94L-412.07,-120.71L-423.83,-126.92L-454.88,-68.15L-463.86,-65.38ZM-508.77,-51.52L-517.75,-48.74L-535.05,-72.92L-528.17,-114.39L-509.55,-149.65L-491.58,-155.20L-477.05,-140.00L-474.28,-131.02L-490.14,-86.78ZM-374.04,-93.10L-356.85,-196.78L-329.91,-205.10L-332.68,-214.08L-359.63,-205.76L-352.75,-247.24L-370.72,-241.69L-371.38,-211.97L-386.57,-197.45L-404.54,-191.90L-401.76,-182.92L-383.80,-188.47L-400.98,-84.78L-398.21,-75.80L-386.46,-69.59L-368.49,-75.14L-353.30,-89.67L-322.26,-148.44L-334.01,-154.65L-365.06,-95.87ZM-134.97,-147.22L-125.98,-149.99L-110.79,-164.52L-79.75,-223.29L-91.50,-229.50L-122.55,-170.73L-131.53,-167.96L-103.37,-363.57L-166.24,-344.16L-163.47,-335.18L-136.52,-343.49L-138.52,-254.34L-153.04,-269.53L-191.74,-267.42L-225.56,-217.63L-229.66,-167.18L-209.59,-134.02L-188.86,-130.59L-170.89,-136.13L-152.27,-171.40L-146.72,-153.43ZM-176.44,-154.10L-185.42,-151.32L-202.72,-175.50L-195.85,-216.97L-177.22,-252.23L-159.25,-257.78L-144.73,-242.59L-141.95,-233.60L-157.81,-189.36ZM-18.20,-183.26L-0.24,-188.81L36.35,-229.62L46.66,-291.83L17.61,-322.21L-21.09,-320.10L-57.68,-279.29L-67.99,-217.08L-38.94,-186.70ZM-15.54,-302.14L2.42,-307.68L19.72,-283.51L12.85,-242.04L-5.78,-206.77L-23.75,-201.23L-41.05,-225.40L-34.17,-266.87ZM238.06,-341.06L200.80,-270.54L191.82,-267.77L209.00,-371.45L206.23,-380.43L185.49,-383.87L161.32,-366.57L130.27,-307.80L142.03,-301.59L173.07,-360.36L182.06,-363.13L164.87,-259.45L167.64,-250.47L179.40,-244.26L197.36,-249.80L212.55,-264.33L237.39,-311.35L220.87,-237.38L211.22,-204.89L205.02,-193.14L196.03,-190.37L190.49,-208.33L178.73,-214.54L163.54,-200.01L171.86,-173.07L192.60,-169.63L201.58,-172.40L222.98,-198.68L238.83,-242.93L280.86,-393.63L269.10,-399.84L251.14,-394.29ZM350.05,-296.93L368.02,-302.48L404.61,-343.29L414.92,-405.50L385.87,-435.88L347.17,-433.77L310.57,-392.96L300.26,-330.75L329.32,-300.37ZM352.71,-415.81L370.68,-421.35L387.97,-397.18L381.10,-355.71L362.47,-320.44L344.51,-314.90L327.21,-339.07L334.08,-380.54ZM602.87,-434.00L591.12,-440.21L560.07,-381.44L551.09,-378.66L577.26,-485.12L565.50,-491.33L547.54,-485.78L531.02,-411.82L506.18,-364.80L497.20,-362.03L482.67,-377.22L505.40,-462.94L502.63,-471.92L481.89,-475.36L457.72,-458.06L426.67,-399.29L438.43,-393.08L469.48,-451.85L478.46,-454.62L455.73,-368.90L473.03,-344.73L493.76,-341.29L511.73,-346.84L530.36,-382.10L535.90,-364.14L547.65,-357.93L556.64,-360.70L571.83,-375.23ZM-677.42,71.38L-685.63,172.28L-702.81,275.96L-691.06,282.17L-681.41,249.68L-657.90,262.10L-621.97,251.01L-588.15,201.22L-584.05,150.77L-604.13,117.61L-624.86,114.18L-649.03,131.48L-661.45,154.98L-644.27,51.30L-707.14,70.71L-704.37,79.69ZM-643.49,149.44L-628.30,134.91L-611.00,159.09L-617.87,200.56L-645.48,238.59L-663.45,244.14L-675.20,237.93L-677.97,228.95L-662.12,184.70ZM-449.33,109.18L-454.87,91.22L-469.40,76.03L-508.10,78.13L-544.69,118.94L-555.00,181.15L-534.93,214.31L-514.19,217.74L-496.23,212.20L-481.04,197.67L-456.20,150.65L-467.95,144.44L-492.79,191.46L-510.76,197.01L-528.05,172.83L-521.18,131.36L-502.55,96.10L-484.59,90.55L-476.27,117.50L-491.46,132.03L-518.41,140.34L-515.64,149.33L-470.73,135.46ZM-402.97,163.74L-374.81,-31.87L-437.69,-12.46L-434.91,-3.48L-407.97,-11.80L-429.92,172.05L-427.15,181.04L-406.41,184.47L-382.24,167.17L-351.19,108.40L-362.94,102.19L-393.99,160.96ZM-280.11,-11.91L-271.13,-14.69L-267.70,-35.42L-270.47,-44.40L-291.20,-47.84L-300.19,-45.07L-303.62,-24.33L-300.85,-15.35ZM-356.73,90.44L-344.98,96.65L-313.93,37.88L-304.95,35.10L-331.12,141.56L-328.35,150.54L-316.59,156.75L-298.63,151.20L-283.44,136.68L-252.39,77.91L-264.14,71.70L-295.19,130.47L-304.17,133.24L-278.01,26.79L-280.78,17.81L-301.51,14.37L-325.69,31.67ZM-134.96,12.15L-140.51,-5.82L-155.03,-21.01L-193.73,-18.90L-230.32,21.91L-240.64,84.12L-220.56,117.27L-199.83,120.71L-181.86,115.16L-166.67,100.64L-141.84,53.62L-153.59,47.41L-178.43,94.43L-196.39,99.97L-213.69,75.80L-206.82,34.33L-188.19,-0.94L-170.22,-6.48L-161.91,20.46L-177.10,34.99L-204.04,43.31L-201.27,52.29L-156.36,38.43ZM-20.97,-32.88L-21.63,-3.16L-46.47,43.86L-70.64,61.16L-79.63,63.93L-50.69,-33.54L-56.23,-51.51L-76.97,-54.94L-101.14,-37.64L-132.19,21.13L-120.43,27.34L-89.39,-31.43L-80.41,-34.21L-106.57,72.25L-103.80,81.23L-92.05,87.44L-74.08,81.89L-34.72,50.07L-9.88,3.05L-3.01,-38.42L-8.55,-56.39L-20.31,-62.60L-38.27,-57.05L-41.71,-36.31L-29.95,-30.11ZM125.51,-68.26L119.97,-86.22L105.44,-101.41L66.74,-99.30L30.15,-58.49L19.84,3.71L39.91,36.87L60.65,40.31L78.61,34.76L93.80,20.23L118.64,-26.78L106.88,-32.99L82.05,14.03L64.08,19.57L46.78,-4.60L53.66,-46.08L72.29,-81.34L90.25,-86.88L98.57,-59.94L83.38,-45.41L56.43,-37.09L59.20,-28.11L104.11,-41.97ZM276.76,-183.80L285.74,-186.58L289.18,-207.31L286.41,-216.29L265.67,-219.73L256.69,-216.96L253.25,-196.22L256.02,-187.24ZM200.14,-81.45L211.89,-75.24L242.94,-134.01L251.92,-136.79L225.76,-30.33L228.53,-21.35L240.28,-15.14L258.25,-20.69L273.44,-35.21L304.48,-93.99L292.73,-100.20L261.68,-41.42L252.70,-38.65L278.87,-145.10L276.10,-154.09L255.36,-157.52L231.19,-140.22ZM298.94,-111.95L310.69,-105.74L341.74,-164.51L350.72,-167.28L327.33,-51.85L339.08,-45.64L357.05,-51.18L370.79,-134.13L389.42,-169.39L404.61,-183.92L416.37,-177.71L396.41,-83.01L399.18,-74.03L410.94,-67.82L428.90,-73.36L444.09,-87.89L475.14,-146.66L463.39,-152.87L432.34,-94.10L423.36,-91.33L446.09,-177.05L437.77,-203.99L408.05,-204.66L383.88,-187.36L365.25,-152.09L368.69,-172.83L365.91,-181.81L354.16,-188.02L329.99,-170.72ZM518.61,-228.94L527.59,-231.72L519.27,-258.66L522.71,-279.40L537.90,-293.92L558.63,-290.49L573.16,-275.30L578.71,-257.33L575.27,-236.60L553.87,-210.31L529.70,-193.02L529.03,-163.30L538.01,-166.07L541.45,-186.81L565.62,-204.11L596.00,-233.16L605.65,-265.65L600.11,-283.61L573.83,-305.01L544.11,-305.68L526.14,-300.13L501.97,-282.83L492.32,-250.34L495.10,-241.36ZM545.67,-109.41L554.65,-112.18L558.08,-132.91L555.31,-141.90L534.58,-145.33L525.59,-142.56L522.16,-121.83L524.93,-112.84Z" fill="#ffffff" stroke="#000000"/>
    <path d="M-834.56,-71.15L-857.59,-52.87L-877.38,83.01L-918.76,-30.59L-907.65,-54.43L-968.81,-32.15L-944.97,-21.04L-884.50,144.99L-870.21,129.89L-848.04,-26.65L-797.12,113.16L-791.56,101.24L-752.73,-91.06L-732.88,-118.08L-794.05,-95.81L-770.20,-84.69L-793.18,42.45ZM-697.92,-130.82L-701.05,-30.70L-716.10,63.86L-704.18,69.41L-686.70,63.05L-677.21,-19.59L-660.54,-55.35L-646.25,-70.46L-634.33,-64.90L-649.37,29.66L-646.19,38.40L-634.27,43.95L-616.79,37.59L-602.50,22.48L-574.72,-37.12L-586.64,-42.68L-614.42,16.93L-623.16,20.11L-604.93,-65.71L-614.48,-91.93L-643.87,-91.12L-666.91,-72.83L-678.02,-48.99L-666.15,-152.29L-727.32,-130.01L-724.14,-121.27ZM-457.18,-149.22L-469.11,-154.77L-477.03,-122.19L-492.14,-136.49L-530.27,-132.49L-561.24,-81.63L-562.80,-31.57L-541.33,0.20L-520.67,2.58L-503.19,-3.79L-486.53,-39.55L-480.16,-22.08L-468.24,-16.52L-445.21,-34.81L-417.43,-94.41L-429.35,-99.97L-457.13,-40.36L-465.87,-37.18ZM-509.56,-21.27L-518.30,-18.08L-536.58,-41.12L-531.84,-82.44L-515.17,-118.20L-497.69,-124.56L-482.59,-110.27L-479.41,-101.53L-492.89,-57.03ZM-378.48,-69.01L-366.62,-172.31L-340.40,-181.85L-343.58,-190.59L-369.80,-181.04L-365.05,-222.36L-382.53,-216.00L-381.72,-186.60L-396.02,-171.50L-413.49,-165.13L-410.31,-156.39L-392.83,-162.76L-404.70,-59.46L-401.51,-50.72L-389.59,-45.17L-372.12,-51.53L-357.82,-66.63L-330.04,-126.24L-341.96,-131.80L-369.74,-72.19ZM-144.92,-134.28L-136.18,-137.47L-121.88,-152.57L-94.11,-212.18L-106.03,-217.73L-133.81,-158.13L-142.54,-154.94L-124.37,-349.62L-185.54,-327.34L-182.36,-318.60L-156.14,-328.15L-153.71,-239.95L-168.82,-254.25L-206.95,-250.26L-237.91,-199.39L-239.48,-149.33L-218.01,-117.56L-197.35,-115.19L-179.87,-121.55L-163.20,-157.32L-156.84,-139.84ZM-186.24,-139.03L-194.97,-135.85L-213.26,-158.88L-208.52,-200.20L-191.85,-235.96L-174.37,-242.33L-159.27,-228.03L-156.09,-219.29L-169.57,-174.79ZM-31.32,-175.66L-13.84,-182.02L20.30,-224.15L27.42,-286.13L-2.79,-314.72L-40.92,-310.73L-75.07,-268.60L-82.19,-206.62L-51.98,-178.03ZM-34.56,-293.25L-17.08,-299.62L1.21,-276.58L-3.54,-235.27L-20.21,-199.50L-37.68,-193.14L-55.97,-216.17L-51.22,-257.49ZM214.11,-344.23L180.78,-272.71L172.04,-269.52L183.90,-372.82L180.72,-381.56L160.06,-383.93L137.03,-365.65L109.25,-306.04L121.17,-300.48L148.95,-360.09L157.69,-363.27L145.82,-259.97L149.01,-251.24L160.93,-245.68L178.40,-252.05L192.70,-267.15L214.92,-314.83L202.25,-240.93L194.32,-208.35L188.76,-196.43L180.02,-193.25L173.66,-210.73L161.74,-216.28L147.44,-201.18L156.99,-174.96L177.65,-172.59L186.39,-175.77L206.24,-202.80L219.72,-247.30L253.81,-398.28L241.89,-403.84L224.41,-397.47ZM326.96,-306.15L344.43,-312.52L378.58,-354.65L385.70,-416.63L355.49,-445.21L317.35,-441.22L283.21,-399.09L276.09,-337.11L306.30,-308.53ZM323.72,-423.75L341.19,-430.11L359.48,-407.08L354.74,-365.76L338.07,-330.00L320.59,-323.63L302.31,-346.66L307.05,-387.98ZM570.01,-454.07L558.09,-459.62L530.31,-400.02L521.58,-396.83L542.18,-503.31L530.26,-508.87L512.78,-502.50L500.11,-428.60L477.88,-380.92L469.14,-377.74L454.04,-392.03L472.27,-477.85L469.09,-486.59L448.43,-488.96L425.40,-470.68L397.62,-411.07L409.54,-405.52L437.32,-465.12L446.06,-468.30L427.83,-382.48L446.11,-359.45L466.77,-357.08L484.25,-363.44L500.92,-399.21L507.28,-381.73L519.20,-376.17L527.94,-379.36L542.24,-394.46ZM-670.15,108.49L-673.27,208.60L-685.14,311.90L-673.22,317.46L-665.29,284.88L-641.45,295.99L-606.49,283.26L-575.53,232.39L-573.97,182.33L-595.44,150.56L-616.10,148.19L-639.13,166.47L-650.24,190.32L-638.38,87.02L-699.55,109.30L-696.36,118.04ZM-632.77,183.95L-618.47,168.85L-600.18,191.88L-604.93,233.20L-630.34,272.15L-647.81,278.51L-659.73,272.96L-662.92,264.22L-649.43,219.72ZM-442.89,134.59L-449.26,117.11L-464.36,102.82L-502.50,106.81L-536.64,148.94L-543.76,210.92L-522.29,242.69L-501.63,245.06L-484.16,238.70L-469.86,223.59L-447.64,175.91L-459.56,170.35L-481.78,218.04L-499.26,224.40L-517.55,201.37L-512.80,160.05L-496.13,124.29L-478.66,117.92L-469.11,144.14L-483.40,159.24L-509.62,168.79L-506.43,177.53L-462.74,161.62ZM-394.40,186.21L-376.23,-8.46L-437.39,13.82L-434.21,22.55L-408.00,13.01L-420.61,195.76L-417.43,204.50L-396.77,206.87L-373.74,188.58L-345.96,128.98L-357.88,123.42L-385.66,183.03ZM-281.67,6.58L-272.93,3.40L-270.55,-17.26L-273.74,-26.00L-294.40,-28.37L-303.14,-25.19L-305.51,-4.53L-302.33,4.21ZM-352.33,111.50L-340.40,117.06L-312.63,57.45L-303.89,54.27L-324.49,160.75L-321.31,169.49L-309.39,175.04L-291.91,168.68L-277.62,153.57L-249.84,93.97L-261.76,88.41L-289.54,148.02L-298.28,151.20L-277.67,44.72L-280.86,35.98L-301.52,33.61L-324.55,51.89ZM-137.05,23.19L-143.41,5.72L-158.52,-8.58L-196.65,-4.59L-230.80,37.54L-237.92,99.52L-216.45,131.29L-195.79,133.67L-178.31,127.30L-164.02,112.20L-141.79,64.51L-153.72,58.96L-175.94,106.64L-193.41,113.01L-211.70,89.97L-206.96,48.66L-190.29,12.89L-172.81,6.53L-163.26,32.74L-177.56,47.85L-203.77,57.39L-200.59,66.13L-156.90,50.22ZM-26.63,-26.92L-25.82,2.48L-48.04,50.16L-71.08,68.45L-79.82,71.63L-56.03,-26.11L-62.40,-43.59L-83.05,-45.96L-106.09,-27.67L-133.87,31.93L-121.94,37.49L-94.17,-22.12L-85.43,-25.30L-106.03,81.18L-102.85,89.92L-90.93,95.47L-73.45,89.11L-36.12,55.72L-13.90,8.03L-9.15,-33.29L-15.52,-50.76L-27.44,-56.32L-44.92,-49.95L-47.29,-29.29L-35.37,-23.74ZM116.37,-69.11L110.00,-86.58L94.90,-100.88L56.76,-96.89L22.62,-54.76L15.50,7.22L36.97,38.99L57.63,41.37L75.10,35.00L89.40,19.90L111.62,-27.79L99.70,-33.34L77.48,14.34L60.00,20.71L41.71,-2.33L46.46,-43.65L63.13,-79.41L80.60,-85.77L90.15,-59.56L75.86,-44.46L49.64,-34.91L52.82,-26.17L96.52,-42.08ZM260.12,-190.75L268.85,-193.93L271.23,-214.59L268.04,-223.33L247.39,-225.70L238.65,-222.52L236.27,-201.86L239.46,-193.12ZM189.46,-85.83L201.38,-80.28L229.16,-139.88L237.89,-143.06L217.29,-36.58L220.47,-27.85L232.40,-22.29L249.87,-28.65L264.17,-43.76L291.94,-103.36L280.02,-108.92L252.24,-49.31L243.51,-46.13L264.11,-152.61L260.93,-161.35L240.27,-163.72L217.23,-145.44ZM285.58,-120.84L297.50,-115.29L325.28,-174.89L334.02,-178.07L316.60,-62.86L328.52,-57.30L345.99,-63.67L355.49,-146.30L372.15,-182.07L386.45,-197.17L398.37,-191.62L383.32,-97.06L386.50,-88.32L398.42,-82.76L415.90,-89.13L430.20,-104.23L457.97,-163.84L446.05,-169.39L418.27,-109.79L409.54,-106.60L427.77,-192.43L418.22,-218.64L388.82,-217.83L365.79,-199.54L349.12,-163.78L351.49,-184.44L348.31,-193.18L336.39,-198.73L313.36,-180.45ZM496.86,-247.29L505.60,-250.47L496.05,-276.68L498.43,-297.34L512.72,-312.45L533.38,-310.07L548.48,-295.78L554.85,-278.30L552.48,-257.64L532.63,-230.62L509.59,-212.33L510.40,-182.93L519.14,-186.12L521.52,-206.78L544.55,-225.06L573.14,-255.27L581.06,-287.85L574.70,-305.33L547.67,-325.18L518.28,-324.37L500.80,-318.00L477.77,-299.72L469.84,-267.14L473.02,-258.40ZM529.50,-130.50L538.24,-133.69L540.61,-154.35L537.43,-163.08L516.77,-165.46L508.03,-162.27L505.66,-141.62L508.84,-132.88Z" fill="#ffffff" stroke="#000000"/>
    <path d="M-832.08,-24.43L-853.93,-5.23L-866.78,130.00L-913.27,19.80L-903.47,-4.30L-962.80,20.73L-938.70,30.53L-870.76,191.59L-857.38,175.96L-843.21,20.20L-785.99,155.83L-781.09,143.77L-752.21,-48.14L-733.93,-75.82L-793.27,-50.79L-769.17,-40.99L-785.59,85.76ZM-700.03,-90.12L-698.18,8.95L-708.38,103.12L-696.33,108.02L-679.37,100.86L-674.07,18.75L-659.37,-17.41L-645.99,-33.04L-633.94,-28.14L-644.14,66.03L-640.56,74.51L-628.51,79.41L-611.56,72.26L-598.18,56.63L-573.68,-3.63L-585.73,-8.53L-610.23,51.73L-618.71,55.31L-604.93,-30.39L-615.66,-55.82L-644.67,-53.57L-666.52,-34.36L-676.32,-10.26L-669.70,-112.90L-729.03,-87.87L-725.46,-79.40ZM-463.08,-120.18L-475.13,-125.08L-481.36,-92.50L-496.99,-105.88L-534.47,-100.05L-562.55,-48.27L-561.62,1.27L-538.84,31.60L-518.32,32.92L-501.36,25.77L-486.66,-10.38L-479.51,6.57L-467.46,11.47L-445.60,-7.73L-421.10,-68.00L-433.15,-72.90L-457.65,-12.64L-466.13,-9.06ZM-508.51,8.82L-516.99,12.40L-536.19,-9.46L-533.54,-50.52L-518.84,-86.67L-501.89,-93.83L-486.26,-80.45L-482.68,-71.97L-493.81,-27.34ZM-381.36,-44.82L-374.74,-147.46L-349.31,-158.19L-352.88,-166.67L-378.31,-155.94L-375.66,-197.00L-392.62,-189.85L-390.37,-160.84L-403.74,-145.21L-420.70,-138.06L-417.12,-129.58L-400.17,-136.74L-406.79,-34.09L-403.22,-25.61L-391.17,-20.71L-374.21,-27.86L-360.83,-43.49L-336.33,-103.75L-348.38,-108.66L-372.89,-48.39ZM-153.82,-120.83L-145.34,-124.41L-131.97,-140.04L-107.46,-200.30L-119.51,-205.20L-144.02,-144.94L-152.49,-141.36L-144.14,-334.60L-203.48,-309.57L-199.91,-301.10L-174.48,-311.82L-167.72,-224.81L-183.35,-238.18L-220.83,-232.36L-248.91,-180.57L-247.99,-131.04L-225.21,-100.71L-204.68,-99.38L-187.73,-106.53L-173.02,-142.69L-165.87,-125.74ZM-194.88,-123.49L-203.35,-119.91L-222.56,-141.76L-219.91,-182.82L-205.21,-218.98L-188.25,-226.13L-172.62,-212.75L-169.05,-204.28L-180.18,-159.64ZM-43.62,-167.32L-26.67,-174.47L4.99,-217.78L8.96,-279.37L-22.30,-306.12L-59.78,-300.30L-91.43,-256.99L-95.41,-195.40L-64.15,-168.65ZM-52.63,-283.34L-35.67,-290.50L-16.47,-268.64L-19.12,-227.58L-33.82,-191.43L-50.77,-184.27L-69.98,-206.13L-67.33,-247.19ZM190.55,-345.98L161.14,-273.67L152.67,-270.09L159.29,-372.74L155.71,-381.22L135.19,-382.54L113.33,-363.34L88.83,-303.07L100.88,-298.17L125.38,-358.44L133.86,-362.01L127.24,-259.37L130.81,-250.89L142.86,-245.99L159.82,-253.14L173.19,-268.77L192.80,-316.98L183.92,-243.34L177.70,-210.76L172.79,-198.70L164.32,-195.13L157.17,-212.08L145.11,-216.98L131.74,-201.35L142.46,-175.92L162.99,-174.60L171.47,-178.17L189.75,-205.86L200.87,-250.49L227.10,-401.34L215.05,-406.25L198.10,-399.09ZM303.92,-313.93L320.87,-321.08L352.53,-364.39L356.50,-425.98L325.25,-452.73L287.77,-446.90L256.11,-403.60L252.13,-342.01L283.39,-315.25ZM294.92,-429.95L311.87,-437.10L331.07,-415.25L328.42,-374.19L313.72,-338.03L296.77,-330.88L277.56,-352.74L280.21,-393.79ZM536.76,-472.06L524.71,-476.96L500.21,-416.70L491.73,-413.13L506.83,-519.35L494.78,-524.25L477.83,-517.10L468.95,-443.46L449.35,-395.25L440.87,-391.67L425.24,-405.05L439.02,-490.74L435.44,-499.22L414.91,-500.54L393.06,-481.34L368.56,-421.08L380.61,-416.17L405.11,-476.44L413.59,-480.01L399.81,-394.32L419.02,-372.47L439.55,-371.14L456.50,-378.29L471.20,-414.45L478.35,-397.50L490.41,-392.60L498.88,-396.17L512.26,-411.80ZM-660.78,144.94L-658.93,244.01L-665.55,346.66L-653.50,351.56L-647.27,318.98L-623.17,328.78L-589.26,314.48L-561.18,262.69L-562.11,213.16L-584.89,182.83L-605.42,181.50L-627.27,200.70L-637.07,224.81L-630.45,122.16L-689.78,147.19L-686.21,155.67ZM-620.12,217.66L-606.74,202.03L-587.54,223.88L-590.19,264.94L-613.37,304.67L-630.32,311.83L-642.37,306.93L-645.95,298.45L-634.82,253.81ZM-434.96,159.52L-442.11,142.57L-457.74,129.19L-495.22,135.01L-526.88,178.32L-530.85,239.91L-508.07,270.24L-487.54,271.57L-470.59,264.42L-457.21,248.79L-437.61,200.58L-449.66,195.68L-469.26,243.89L-486.22,251.04L-505.42,229.18L-502.77,188.13L-488.07,151.97L-471.11,144.82L-460.39,170.25L-473.76,185.87L-499.19,196.60L-495.62,205.08L-453.24,187.20ZM-384.50,208.13L-376.15,14.89L-435.48,39.92L-431.91,48.40L-406.48,37.67L-409.93,218.86L-406.35,227.33L-385.82,228.66L-363.97,209.45L-339.46,149.19L-351.52,144.29L-376.02,204.55ZM-281.98,25.09L-273.50,21.51L-272.18,0.99L-275.75,-7.49L-296.28,-8.82L-304.76,-5.24L-306.08,15.29L-302.51,23.77ZM-346.62,132.24L-334.56,137.14L-310.06,76.88L-301.58,73.30L-316.68,179.52L-313.11,188.00L-301.06,192.90L-284.10,185.75L-270.72,170.12L-246.22,109.86L-258.27,104.96L-282.78,165.22L-291.25,168.79L-276.15,62.57L-279.73,54.10L-300.26,52.77L-322.11,71.98ZM-138.27,34.37L-145.43,17.41L-161.05,4.04L-198.54,9.86L-230.19,53.17L-234.17,114.76L-211.39,145.09L-190.86,146.41L-173.91,139.26L-160.53,123.63L-140.92,75.42L-152.98,70.52L-172.58,118.73L-189.53,125.88L-208.74,104.03L-206.09,62.97L-191.39,26.81L-174.43,19.66L-163.70,45.09L-177.08,60.72L-202.51,71.45L-198.94,79.93L-156.55,62.05ZM-31.65,-20.60L-29.40,8.41L-49.01,56.62L-70.86,75.82L-79.34,79.40L-60.66,-18.35L-67.81,-35.30L-88.34,-36.62L-110.19,-17.42L-134.70,42.84L-122.65,47.74L-98.14,-12.52L-89.67,-16.09L-104.77,90.13L-101.19,98.60L-89.14,103.50L-72.19,96.35L-36.95,61.52L-17.35,13.31L-14.70,-27.75L-21.85,-44.70L-33.90,-49.60L-50.86,-42.45L-52.18,-21.92L-40.13,-17.02ZM107.55,-69.33L100.40,-86.29L84.77,-99.66L47.29,-93.84L15.63,-50.53L11.65,11.06L34.43,41.39L54.96,42.72L71.92,35.56L85.29,19.94L104.90,-28.27L92.85,-33.18L73.24,15.03L56.29,22.19L37.08,0.33L39.73,-40.73L54.44,-76.88L71.39,-84.04L82.12,-58.61L68.74,-42.98L43.31,-32.25L46.89,-23.77L89.27,-41.65ZM243.57,-196.61L252.05,-200.19L253.38,-220.71L249.80,-229.19L229.27,-230.52L220.79,-226.94L219.47,-206.41L223.04,-197.93ZM178.94,-89.46L190.99,-84.56L215.49,-144.82L223.97,-148.40L208.87,-42.18L212.44,-33.70L224.50,-28.80L241.45,-35.95L254.83,-51.58L279.33,-111.84L267.28,-116.74L242.78,-56.48L234.30,-52.91L249.40,-159.13L245.82,-167.60L225.30,-168.93L203.44,-149.72ZM272.18,-128.80L284.23,-123.90L308.74,-184.16L317.21,-187.73L305.69,-73.04L317.74,-68.13L334.69,-75.29L339.99,-157.40L354.70,-193.56L368.07,-209.19L380.13,-204.29L369.93,-110.12L373.50,-101.64L385.55,-96.74L402.51,-103.89L415.88,-119.52L440.39,-179.78L428.34,-184.68L403.83,-124.42L395.36,-120.85L409.13,-206.54L398.40,-231.97L369.40,-229.72L347.54,-210.51L332.84,-174.36L334.17,-194.88L330.59,-203.36L318.54,-208.26L296.68,-189.06ZM474.69,-264.15L483.17,-267.73L472.44,-293.16L473.77,-313.69L487.15,-329.31L507.68,-327.99L523.30,-314.61L530.46,-297.66L529.13,-277.13L510.85,-249.45L489.00,-230.24L491.25,-201.24L499.72,-204.81L501.05,-225.34L522.90,-244.55L549.66,-275.80L555.88,-308.39L548.73,-325.34L521.05,-343.62L492.05,-341.37L475.09,-334.21L453.24,-315.01L447.01,-282.43L450.59,-273.95ZM512.70,-150.38L521.18,-153.95L522.50,-174.48L518.93,-182.96L498.40,-184.28L489.92,-180.71L488.60,-160.18L492.17,-151.70Z" fill="#ffffff" stroke="#000000"/>
    <path d="M-826.95,21.74L-847.59,41.79L-853.61,176.02L-904.97,69.45L-896.48,45.15L-953.86,72.81L-929.57,81.30L-854.50,237.06L-842.06,220.96L-835.74,66.39L-772.53,197.55L-768.28,185.40L-749.22,-5.62L-732.53,-33.86L-789.91,-6.21L-765.61,2.29L-775.59,128.31ZM-699.74,-49.67L-693.02,48.11L-698.45,141.65L-686.30,145.89L-669.91,137.99L-668.72,56.61L-655.98,20.16L-643.54,4.06L-631.39,8.31L-636.82,101.84L-632.87,110.04L-620.72,114.29L-604.33,106.39L-591.88,90.29L-570.65,29.54L-582.80,25.30L-604.03,86.04L-612.23,89.99L-602.85,4.66L-614.70,-19.94L-643.24,-16.28L-663.88,3.77L-672.38,28.06L-670.90,-73.67L-728.28,-46.01L-724.33,-37.81ZM-467.14,-91.05L-479.29,-95.30L-483.83,-62.80L-499.93,-75.25L-536.67,-67.64L-561.86,-15.10L-558.50,33.79L-534.50,62.63L-514.15,62.93L-497.76,55.03L-485.02,18.58L-477.11,34.98L-464.97,39.22L-444.32,19.17L-423.09,-41.57L-435.24,-45.82L-456.47,14.93L-464.67,18.88ZM-505.66,38.63L-513.86,42.58L-533.91,21.94L-533.31,-18.75L-520.57,-55.20L-504.18,-63.10L-488.08,-50.65L-484.13,-42.46L-492.92,2.19ZM-382.69,-20.63L-381.21,-122.36L-356.62,-134.21L-360.57,-142.41L-385.16,-130.56L-384.57,-171.25L-400.97,-163.35L-397.31,-134.81L-409.76,-118.71L-426.15,-110.80L-422.20,-102.61L-405.81,-110.51L-407.29,-8.78L-403.34,-0.58L-391.19,3.67L-374.79,-4.23L-362.35,-20.33L-341.11,-81.08L-353.26,-85.32L-374.50,-24.58ZM-161.65,-106.95L-153.46,-110.90L-141.01,-127.00L-119.78,-187.75L-131.92,-191.99L-153.16,-131.25L-161.36,-127.30L-162.64,-318.61L-220.03,-290.96L-216.07,-282.76L-191.48,-294.61L-180.52,-208.98L-196.62,-221.43L-233.36,-213.82L-258.54,-161.28L-255.19,-112.39L-231.19,-83.55L-210.84,-83.25L-194.44,-91.15L-181.70,-127.60L-173.80,-111.20ZM-202.35,-107.55L-210.54,-103.60L-230.59,-124.24L-230.00,-164.93L-217.26,-201.38L-200.86,-209.28L-184.77,-196.83L-180.81,-188.63L-189.60,-143.99ZM-55.08,-158.31L-38.69,-166.22L-9.55,-210.56L-8.66,-271.60L-40.86,-296.49L-77.60,-288.88L-106.74,-244.54L-107.63,-183.50L-75.43,-158.61ZM-69.70,-272.49L-53.31,-280.39L-33.26,-259.75L-33.85,-219.06L-46.59,-182.61L-62.98,-174.71L-83.03,-195.35L-82.44,-236.04ZM167.44,-346.37L141.96,-273.48L133.76,-269.53L135.24,-371.26L131.29,-379.45L110.94,-379.75L90.30,-359.70L69.07,-298.96L81.21,-294.71L102.45,-355.45L110.65,-359.40L109.17,-257.67L113.12,-249.48L125.27,-245.23L141.66,-253.13L154.10,-269.23L171.09,-317.82L165.96,-244.64L161.41,-212.14L157.17,-199.99L148.97,-196.04L141.07,-212.44L128.92,-216.69L116.48,-200.59L128.33,-175.99L148.67,-175.70L156.87,-179.65L173.56,-207.90L182.35,-252.54L200.82,-402.86L188.67,-407.11L172.28,-399.21ZM281.02,-320.29L297.42,-328.20L326.55,-372.54L327.44,-433.58L295.24,-458.47L258.50,-450.86L229.36,-406.52L228.48,-345.48L260.67,-320.59ZM266.40,-434.47L282.80,-442.37L302.85,-421.73L302.26,-381.04L289.51,-344.59L273.12,-336.69L253.07,-357.33L253.66,-398.02ZM503.25,-488.00L491.10,-492.25L469.86,-431.51L461.67,-427.56L471.34,-533.24L459.20,-537.48L442.80,-529.58L437.66,-456.40L420.68,-407.80L412.48,-403.85L396.38,-416.30L405.76,-501.63L401.81,-509.83L381.47,-510.13L360.82,-490.08L339.59,-429.33L351.74,-425.09L372.97,-485.83L381.17,-489.78L371.79,-404.44L391.84,-383.80L412.18,-383.51L428.58,-391.41L441.32,-427.85L449.22,-411.46L461.37,-407.21L469.57,-411.16L482.01,-427.26ZM-649.36,180.62L-642.65,278.40L-644.13,380.13L-631.98,384.38L-627.44,351.88L-603.14,360.38L-570.35,344.57L-545.16,292.03L-548.52,243.14L-572.52,214.30L-592.87,214.00L-613.51,234.05L-622.01,258.35L-620.52,156.62L-677.91,184.27L-673.96,192.47ZM-605.61,250.45L-593.17,234.35L-573.12,254.99L-573.71,295.68L-594.65,336.08L-611.04,343.98L-623.19,339.73L-627.14,331.54L-618.35,286.89ZM-425.56,183.88L-433.46,167.48L-449.56,155.04L-486.30,162.64L-515.44,206.99L-516.32,268.03L-492.32,296.87L-471.98,297.16L-455.58,289.26L-443.14,273.16L-426.15,224.57L-438.30,220.32L-455.29,268.92L-471.68,276.82L-491.73,256.18L-491.14,215.48L-478.40,179.04L-462.00,171.14L-450.15,195.73L-462.60,211.83L-487.19,223.68L-483.24,231.88L-442.25,212.13ZM-373.31,229.41L-374.59,38.10L-431.98,65.75L-428.03,73.95L-403.43,62.10L-397.90,241.26L-393.95,249.46L-373.61,249.76L-352.96,229.71L-331.73,168.96L-343.88,164.72L-365.11,225.46ZM-281.06,43.53L-272.86,39.58L-272.57,19.23L-276.52,11.03L-296.86,10.74L-305.06,14.69L-305.36,35.03L-301.41,43.23ZM-339.63,152.57L-327.48,156.81L-306.25,96.07L-298.05,92.12L-307.73,197.80L-303.78,206.00L-291.63,210.25L-275.23,202.35L-262.79,186.25L-241.55,125.51L-253.70,121.26L-274.94,182.00L-283.14,185.95L-273.46,80.27L-277.41,72.07L-297.75,71.78L-318.40,91.83ZM-138.64,45.60L-146.54,29.21L-162.64,16.76L-199.38,24.37L-228.52,68.71L-229.41,129.75L-205.41,158.59L-185.06,158.89L-168.66,150.99L-156.22,134.89L-139.23,86.29L-151.38,82.05L-168.37,130.64L-184.76,138.54L-204.81,117.90L-204.22,77.21L-191.48,40.76L-175.08,32.86L-163.23,57.45L-175.68,73.55L-200.27,85.41L-196.32,93.60L-155.33,73.85ZM-36.02,-13.96L-32.37,14.59L-49.35,63.18L-70.00,83.23L-78.19,87.18L-64.56,-10.30L-72.47,-26.70L-92.81,-26.99L-113.45,-6.94L-134.69,53.80L-122.54,58.05L-101.31,-2.70L-93.11,-6.65L-102.79,99.03L-98.84,107.23L-86.69,111.48L-70.29,103.58L-37.21,67.43L-20.22,18.84L-19.63,-21.86L-27.53,-38.25L-39.68,-42.50L-56.07,-34.60L-56.37,-14.25L-44.22,-10.00ZM99.09,-68.97L91.19,-85.37L75.09,-97.81L38.35,-90.20L9.21,-45.86L8.33,15.18L32.33,44.02L52.67,44.32L69.07,36.42L81.51,20.32L98.50,-28.28L86.35,-32.52L69.36,16.07L52.97,23.97L32.92,3.33L33.51,-37.36L46.25,-73.81L62.65,-81.71L74.50,-57.12L62.06,-41.02L37.46,-29.17L41.41,-20.97L82.40,-40.72ZM227.19,-201.42L235.39,-205.37L235.69,-225.71L231.74,-233.91L211.39,-234.21L203.19,-230.26L202.90,-209.91L206.85,-201.71ZM168.62,-92.38L180.77,-88.13L202.01,-148.87L210.21,-152.82L200.53,-47.14L204.48,-38.95L216.63,-34.70L233.02,-42.60L245.47,-58.70L266.70,-119.44L254.55,-123.69L233.32,-62.95L225.12,-59.00L234.80,-164.68L230.85,-172.87L210.50,-173.17L189.86,-153.12ZM258.80,-135.84L270.95,-131.59L292.18,-192.33L300.38,-196.28L294.65,-82.40L306.80,-78.16L323.20,-86.06L324.38,-167.44L337.12,-203.89L349.57,-219.99L361.71,-215.74L356.28,-122.21L360.23,-114.01L372.38,-109.76L388.78,-117.66L401.22,-133.76L422.46,-194.50L410.31,-198.75L389.07,-138.01L380.88,-134.06L390.26,-219.39L378.41,-243.99L349.86,-240.33L329.22,-220.28L316.48,-183.84L316.78,-204.18L312.82,-212.38L300.68,-216.63L280.03,-196.58ZM452.18,-279.54L460.38,-283.49L448.53,-308.09L448.83,-328.43L461.27,-344.53L481.62,-344.24L497.72,-331.79L505.62,-315.40L505.32,-295.05L488.63,-266.80L467.99,-246.75L471.64,-218.21L479.84,-222.16L480.14,-242.51L500.78,-262.56L525.67,-294.75L530.21,-327.25L522.31,-343.64L494.06,-360.34L465.52,-356.68L449.12,-348.78L428.48,-328.73L423.94,-296.24L427.89,-288.04ZM495.35,-169.02L503.54,-172.97L503.84,-193.32L499.89,-201.52L479.54,-201.81L471.35,-197.86L471.05,-177.52L475.00,-169.32Z" fill="#ffffff" stroke="#000000"/>
    <path d="M-819.22,67.23L-838.62,88.05L-837.95,220.93L-893.94,118.20L-886.75,93.78L-942.07,123.93L-917.65,131.12L-835.82,281.27L-824.32,264.75L-825.70,111.76L-756.79,238.20L-753.20,225.99L-743.79,36.37L-728.70,7.64L-784.01,37.79L-759.60,44.98L-763.23,169.96ZM-697.09,-9.59L-685.63,86.67L-686.38,179.33L-674.17,182.92L-658.36,174.31L-661.21,93.86L-650.42,57.23L-638.92,40.71L-626.71,44.31L-627.46,136.97L-623.16,144.87L-610.95,148.47L-595.14,139.85L-583.64,123.34L-565.67,62.29L-577.88,58.69L-595.85,119.74L-603.76,124.05L-598.70,39.29L-611.62,15.58L-639.63,20.60L-659.04,41.43L-666.23,65.84L-669.78,-34.72L-725.10,-4.57L-720.79,3.33ZM-469.37,-61.94L-481.58,-65.53L-484.47,-33.21L-500.98,-44.71L-536.90,-35.39L-559.19,17.76L-553.46,65.88L-528.33,93.19L-508.21,92.48L-492.41,83.86L-481.62,47.23L-473.01,63.04L-460.80,66.64L-441.40,45.81L-423.42,-15.23L-435.63,-18.83L-453.61,42.22L-461.51,46.52ZM-501.02,68.06L-508.93,72.36L-529.75,52.96L-531.17,12.74L-520.38,-23.89L-504.58,-32.50L-488.06,-21.00L-483.76,-13.10L-490.24,31.43ZM-382.48,3.46L-386.04,-97.11L-362.33,-110.03L-366.64,-117.93L-390.35,-105.01L-391.77,-145.23L-407.57,-136.62L-402.56,-108.60L-414.05,-92.09L-429.86,-83.47L-425.55,-75.57L-409.75,-84.18L-406.19,16.38L-401.89,24.28L-389.68,27.87L-373.87,19.26L-362.37,2.74L-344.39,-58.30L-356.60,-61.90L-374.58,-0.85ZM-168.40,-92.72L-160.50,-97.02L-149.00,-113.54L-131.02,-174.59L-143.23,-178.18L-161.21,-117.14L-169.11,-112.83L-179.82,-301.74L-235.14,-271.59L-230.83,-263.69L-207.12,-276.61L-192.07,-192.57L-208.59,-204.07L-244.50,-194.74L-266.79,-141.60L-261.06,-93.47L-235.93,-66.17L-215.82,-66.88L-200.01,-75.49L-189.23,-112.12L-180.61,-96.31ZM-208.63,-91.30L-216.53,-86.99L-237.35,-106.39L-238.78,-146.61L-227.99,-183.24L-212.18,-191.86L-195.67,-180.36L-191.36,-172.45L-197.84,-127.92ZM-65.67,-148.71L-49.86,-157.32L-23.27,-202.56L-25.41,-262.90L-58.44,-285.90L-94.36,-276.57L-120.95,-231.33L-118.81,-170.99L-85.78,-148.00ZM-85.74,-260.77L-69.94,-269.38L-49.11,-249.98L-47.69,-209.75L-58.48,-173.13L-74.28,-164.51L-95.11,-183.91L-96.53,-224.14ZM144.86,-345.44L123.28,-272.18L115.38,-267.88L111.82,-368.44L107.52,-376.34L87.40,-375.63L68.00,-354.81L50.02,-293.76L62.23,-290.16L80.21,-351.21L88.12,-355.52L91.67,-254.96L95.98,-247.05L108.19,-243.46L123.99,-252.07L135.49,-268.59L149.87,-317.43L148.41,-244.88L145.53,-212.56L141.93,-200.35L134.03,-196.04L125.41,-211.85L113.21,-215.44L101.71,-198.93L114.63,-175.22L134.74,-175.93L142.64,-180.24L157.74,-208.96L164.22,-253.49L175.04,-402.89L162.83,-406.49L147.03,-397.87ZM258.34,-325.29L274.14,-333.90L300.73,-379.14L298.60,-439.48L265.57,-462.48L229.65,-453.15L203.06,-407.91L205.19,-347.57L238.22,-324.58ZM238.26,-437.35L254.07,-445.96L274.89,-426.56L276.32,-386.34L265.53,-349.71L249.72,-341.09L228.90,-360.49L227.48,-400.72ZM469.57,-501.91L457.36,-505.51L439.39,-444.46L431.48,-440.15L435.83,-545.02L423.62,-548.61L407.82,-540.00L406.35,-467.45L391.97,-418.62L384.07,-414.31L367.55,-425.81L372.61,-510.56L368.30,-518.47L348.19,-517.75L328.79,-496.93L310.81,-435.88L323.02,-432.29L341.00,-493.34L348.90,-497.64L343.84,-412.89L364.67,-393.49L384.78,-394.20L400.58,-402.81L411.37,-439.44L419.98,-423.63L432.19,-420.04L440.10,-424.35L451.59,-440.86ZM-635.97,215.40L-624.51,311.65L-620.95,412.21L-608.75,415.81L-605.86,383.49L-581.44,390.68L-549.83,373.45L-527.55,320.31L-533.27,272.18L-558.40,244.88L-578.52,245.59L-597.92,266.41L-605.11,290.83L-608.66,190.27L-663.98,220.42L-659.68,228.32ZM-589.30,282.22L-577.81,265.70L-556.98,285.10L-555.56,325.33L-574.25,366.26L-590.06,374.87L-602.26,371.28L-606.57,363.38L-600.09,318.85ZM-414.74,207.58L-423.35,191.77L-439.87,180.27L-475.78,189.60L-502.38,234.84L-500.24,295.18L-475.11,322.48L-455.00,321.77L-439.20,313.16L-427.70,296.64L-413.31,247.80L-425.52,244.21L-439.91,293.04L-455.71,301.66L-476.53,282.26L-477.96,242.03L-467.17,205.40L-451.36,196.79L-438.44,220.50L-449.94,237.02L-473.65,249.94L-469.34,257.84L-429.83,236.30ZM-360.88,249.98L-371.59,61.06L-426.91,91.21L-422.60,99.12L-398.89,86.19L-384.59,262.90L-380.28,270.80L-360.17,270.09L-340.77,249.26L-322.79,188.22L-335.00,184.62L-352.98,245.67ZM-278.93,61.82L-271.03,57.51L-271.74,37.40L-276.04,29.49L-296.16,30.21L-304.06,34.51L-303.35,54.62L-299.04,62.53ZM-331.40,172.41L-319.19,176.01L-301.22,114.96L-293.31,110.65L-297.66,215.52L-293.35,223.42L-281.14,227.02L-265.34,218.41L-253.84,201.89L-235.86,140.84L-248.07,137.25L-266.05,198.29L-273.95,202.60L-269.60,97.73L-273.91,89.83L-294.02,90.54L-313.42,111.37ZM-138.15,56.84L-146.76,41.03L-163.28,29.53L-199.19,38.86L-225.78,84.10L-223.65,144.44L-198.52,171.74L-178.41,171.03L-162.60,162.42L-151.11,145.90L-136.72,97.06L-148.93,93.47L-163.32,142.30L-179.12,150.92L-199.94,131.52L-201.37,91.29L-190.58,54.66L-174.77,46.05L-161.85,69.76L-173.35,86.28L-197.06,99.20L-192.75,107.10L-153.24,85.56ZM-39.72,-7.05L-34.70,20.96L-49.08,69.80L-68.48,90.62L-76.39,94.93L-67.73,-2.04L-76.35,-17.84L-96.46,-17.13L-115.86,3.69L-133.84,64.74L-121.63,68.34L-103.65,7.29L-95.75,2.98L-100.09,107.85L-95.79,115.75L-83.58,119.35L-67.77,110.73L-36.87,73.39L-22.49,24.56L-23.91,-15.67L-32.53,-31.47L-44.74,-35.07L-60.54,-26.45L-59.83,-6.34L-47.62,-2.75ZM91.03,-68.06L82.42,-83.87L65.90,-95.36L29.98,-86.04L3.39,-40.80L5.52,19.54L30.65,46.84L50.77,46.13L66.57,37.52L78.07,21.00L92.45,-27.84L80.24,-31.43L65.86,17.41L50.05,26.02L29.23,6.62L27.81,-33.61L38.60,-70.23L54.40,-78.85L67.32,-55.14L55.82,-38.62L32.12,-25.70L36.42,-17.80L75.94,-39.33ZM211.03,-205.21L218.93,-209.52L218.22,-229.63L213.92,-237.53L193.80,-236.82L185.90,-232.51L186.61,-212.40L190.92,-204.50ZM158.56,-94.61L170.77,-91.02L188.75,-152.06L196.65,-156.37L192.30,-51.50L196.61,-43.60L208.82,-40.01L224.62,-48.62L236.12,-65.14L254.10,-126.18L241.89,-129.78L223.91,-68.73L216.01,-64.42L220.36,-169.29L216.05,-177.19L195.94,-176.48L176.54,-155.66ZM245.49,-141.99L257.70,-138.39L275.67,-199.44L283.58,-203.75L283.54,-90.98L295.75,-87.38L311.55,-95.99L308.71,-176.44L319.49,-213.07L330.99,-229.59L343.20,-225.99L342.45,-133.33L346.76,-125.43L358.97,-121.84L374.77,-130.45L386.27,-146.97L404.25,-208.01L392.04,-211.61L374.06,-150.56L366.16,-146.25L371.22,-231.01L358.30,-254.72L330.28,-249.70L310.88,-228.88L300.09,-192.25L299.38,-212.36L295.08,-220.26L282.87,-223.86L263.46,-203.04ZM429.42,-293.48L437.32,-297.79L424.40,-321.49L423.69,-341.61L435.19,-358.12L455.30,-358.83L471.82,-347.33L480.43,-331.53L481.14,-311.42L466.05,-282.69L446.65,-261.87L451.66,-233.85L459.57,-238.16L458.86,-258.27L478.26,-279.10L501.25,-312.13L504.14,-344.45L495.52,-360.26L466.80,-375.35L438.78,-370.33L422.98,-361.72L403.58,-340.89L400.69,-308.57L405.00,-300.67ZM477.51,-186.44L485.41,-190.75L484.70,-210.86L480.39,-218.76L460.28,-218.05L452.38,-213.74L453.09,-193.63L457.39,-185.73Z" fill="#ffffff" stroke="#000000"/>
    <path d="M-903.88,492L-906.92,488.96L-902.36,482.88L-893.24,482.88L-891.72,484.40L-891.72,488.96L-894.76,492L-884.12,492L-887.16,488.96L-887.16,460.08L-891.72,463.12L-891.72,464.64L-909.96,488.96L-914.52,492ZM-891.72,467.68L-891.72,479.84L-893.24,481.36L-900.84,481.36L-899.32,478.32ZM-862.84,476.80L-864.36,481.36L-870.44,487.44L-875,488.96L-876.52,488.96L-867.40,475.28L-867.40,472.24L-870.44,470.72L-875,472.24L-882.60,479.84L-881.08,481.36L-873.48,473.76L-871.96,473.76L-881.08,488.96L-881.08,490.48L-879.56,492L-876.52,492L-868.92,488.96L-862.84,482.88L-859.80,476.80L-859.80,473.76L-861.32,472.24L-864.36,472.24L-865.88,475.28L-864.36,476.80ZM-835.48,472.24L-837,470.72L-840.04,475.28L-841.56,472.24L-847.64,470.72L-855.24,476.80L-858.28,484.40L-856.76,490.48L-853.72,492L-850.68,492L-846.12,487.44L-846.12,490.48L-844.60,492L-840.04,490.48L-832.44,482.88L-833.96,481.36L-841.56,488.96L-843.08,488.96ZM-850.68,488.96L-852.20,488.96L-853.72,484.40L-850.68,478.32L-846.12,473.76L-843.08,473.76L-841.56,476.80L-841.56,478.32L-846.12,484.40ZM-832.44,479.84L-830.92,481.36L-823.32,473.76L-821.80,473.76L-830.92,490.48L-829.40,492L-826.36,492L-820.28,479.84L-815.72,476.80L-811.16,476.80L-809.64,472.24L-812.68,470.72L-815.72,472.24L-820.28,478.32L-821.80,478.32L-818.76,473.76L-818.76,472.24L-820.28,470.72L-824.84,472.24ZM-788.36,472.24L-789.88,470.72L-792.92,475.28L-794.44,472.24L-800.52,470.72L-808.12,476.80L-811.16,484.40L-809.64,490.48L-806.60,492L-803.56,492L-799,487.44L-799,490.48L-797.48,492L-792.92,490.48L-785.32,482.88L-786.84,481.36L-794.44,488.96L-795.96,488.96ZM-803.56,488.96L-805.08,488.96L-806.60,484.40L-803.56,478.32L-799,473.76L-795.96,473.76L-794.44,476.80L-794.44,478.32L-799,484.40ZM-783.80,479.84L-783.80,482.88L-774.68,482.88L-774.68,479.84ZM-765.56,461.60L-762.52,464.64L-770.12,488.96L-773.16,492L-757.96,492L-750.36,488.96L-745.80,482.88L-747.32,476.80L-751.88,475.28L-748.84,473.76L-744.28,469.20L-745.80,463.12L-753.40,461.60ZM-765.56,488.96L-757.96,464.64L-756.44,463.12L-753.40,463.12L-750.36,464.64L-750.36,469.20L-753.40,473.76L-757.96,475.28L-761,475.28L-761,476.80L-756.44,476.80L-753.40,478.32L-751.88,482.88L-754.92,487.44L-761,490.48L-764.04,490.48ZM-736.68,492L-733.64,492L-726.04,487.44L-721.48,478.32L-724.52,472.24L-730.60,470.72L-738.20,475.28L-742.76,484.40L-739.72,490.48ZM-730.60,473.76L-727.56,473.76L-726.04,478.32L-729.08,484.40L-733.64,488.96L-736.68,488.96L-738.20,484.40L-735.16,478.32ZM-715.40,488.96L-701.72,460.08L-712.36,460.08L-712.36,461.60L-707.80,461.60L-719.96,488.96L-719.96,490.48L-716.92,492L-712.36,490.48L-704.76,482.88L-706.28,481.36L-713.88,488.96ZM-689.56,492L-688.04,492L-685,490.48L-677.40,482.88L-678.92,481.36L-686.52,488.96L-688.04,488.96L-674.36,460.08L-685,460.08L-685,461.60L-680.44,461.60L-685,475.28L-686.52,472.24L-692.60,470.72L-700.20,476.80L-703.24,484.40L-701.72,490.48L-698.68,492L-695.64,492L-691.08,487.44L-691.08,490.48ZM-695.64,488.96L-697.16,488.96L-698.68,484.40L-695.64,478.32L-691.08,473.76L-688.04,473.76L-686.52,476.80L-686.52,478.32L-691.08,484.40ZM-669.80,488.96L-662.20,464.64L-657.64,461.60L-669.80,461.60L-666.76,464.64L-674.36,488.96L-678.92,492L-666.76,492ZM-657.64,488.96L-650.04,473.76L-645.48,473.76L-645.48,472.24L-650.04,472.24L-647,466.16L-650.04,466.16L-651.56,470.72L-654.60,472.24L-657.64,472.24L-657.64,473.76L-654.60,473.76L-662.20,488.96L-662.20,490.48L-660.68,492L-657.64,492L-654.60,490.48L-647,482.88L-648.52,481.36L-656.12,488.96ZM-621.16,472.24L-622.68,470.72L-625.72,475.28L-627.24,472.24L-633.32,470.72L-640.92,476.80L-643.96,484.40L-642.44,490.48L-639.40,492L-636.36,492L-631.80,487.44L-631.80,490.48L-630.28,492L-625.72,490.48L-618.12,482.88L-619.64,481.36L-627.24,488.96L-628.76,488.96ZM-636.36,488.96L-637.88,488.96L-639.40,484.40L-636.36,478.32L-631.80,473.76L-628.76,473.76L-627.24,476.80L-627.24,478.32L-631.80,484.40ZM-613.56,488.96L-599.88,460.08L-610.52,460.08L-610.52,461.60L-605.96,461.60L-618.12,488.96L-618.12,490.48L-615.08,492L-610.52,490.48L-602.92,482.88L-604.44,481.36L-612.04,488.96ZM-586.20,467.68L-584.68,467.68L-583.16,464.64L-583.16,463.12L-586.20,461.60L-587.72,461.60L-589.24,464.64L-589.24,466.16ZM-602.92,479.84L-601.40,481.36L-593.80,473.76L-592.28,473.76L-601.40,488.96L-601.40,490.48L-599.88,492L-596.84,492L-593.80,490.48L-586.20,482.88L-587.72,481.36L-595.32,488.96L-596.84,488.96L-587.72,473.76L-587.72,472.24L-590.76,470.72L-595.32,472.24ZM-564.92,478.32L-564.92,475.28L-566.44,472.24L-572.52,470.72L-580.12,475.28L-584.68,484.40L-583.16,490.48L-580.12,492L-577.08,492L-574.04,490.48L-567.96,484.40L-569.48,482.88L-575.56,488.96L-578.60,488.96L-580.12,484.40L-577.08,478.32L-572.52,473.76L-569.48,473.76L-569.48,478.32Z"/>
</svg>