<?xml version="1.0"?>
<svg xmlns="http://www.w3.org/2000/svg" width="1920" height="1080" viewBox="-960 -540 1920 1080">
    <path d="M-790.38,-267.25L-790.38,-246L-870.88,-246L-870.88,-291.75L-814.88,-291.75L-814.88,-269.50L-802.88,-269.50L-802.88,-326.75L-814.88,-326.75L-814.88,-305.75L-870.88,-305.75L-870.88,-347.50L-792.13,-347.50L-792.13,-327.75L-777.63,-327.75L-777.63,-392.50L-911.13,-392.50L-911.13,-347.50L-888.63,-347.50L-888.63,-246L-911.13,-246L-911.13,-210L-775.88,-210L-775.88,-267.25ZM-637.38,-210C-627.38,-210 -620.38,-213.50 -615.88,-219.25L-615.88,-250.25C-621.63,-243 -627.88,-240.75 -635.63,-240.75C-641.63,-240.75 -646.88,-243.75 -648.88,-249.50L-648.88,-289C-648.88,-335.25 -664.13,-350 -698.13,-350C-716.88,-350 -732.63,-344.25 -742.13,-333L-741.13,-300.75C-734.38,-308.75 -721.88,-315.50 -700.63,-315.50C-677.13,-315.50 -666.13,-305.75 -664.88,-282.25C-675.38,-289.50 -692.88,-291.75 -704.63,-291.75C-734.38,-291.75 -754.63,-275 -754.63,-248.75C-754.63,-224.50 -737.63,-207.50 -702.13,-207.50C-685.88,-207.50 -670.13,-214.25 -661.63,-223.50C-656.63,-214.75 -648.13,-210 -637.38,-210ZM-701.88,-238.75C-725.13,-238.75 -735.13,-245 -735.13,-256C-735.13,-267.50 -724.63,-274 -700.13,-274C-686.13,-274 -674.88,-270.25 -664.63,-262.50L-664.63,-249.75C-672.63,-242.25 -686.38,-238.75 -701.88,-238.75ZM-599.13,-245.50L-599.13,-209.50C-592.13,-209.75 -550.88,-209.75 -536.88,-209.50L-536.88,-245.50L-559.38,-245.50L-559.38,-281.25C-559.38,-298.75 -550.38,-308.50 -538.13,-308.50C-526.88,-308.50 -520.88,-305.75 -517.88,-299.25L-508.38,-340.75C-514.88,-346.25 -520.63,-350 -532.63,-350C-542.88,-350 -555.38,-343 -561.13,-328L-569.63,-347.50L-599.13,-347.50L-599.13,-306.50C-593.13,-306.50 -586.13,-306.75 -575.88,-306.50L-575.88,-245.50ZM-406.88,-223.50L-413.63,-248.75C-417.63,-244.25 -426.13,-240.75 -436.63,-241C-448.88,-241.25 -457.38,-247.50 -457.38,-265.50L-457.38,-306L-419.88,-306L-419.88,-345L-457.38,-345L-457.38,-377.50L-473.63,-377.50L-473.63,-345L-493.38,-345L-493.38,-306L-473.63,-306L-473.63,-248.25C-473.63,-218 -459.38,-207.50 -439.88,-207.50C-425.63,-207.50 -411.38,-213.50 -406.88,-223.50ZM-318.63,-210L-318.63,-246L-343.63,-246L-343.63,-282.25C-337.13,-299.75 -323.38,-307 -304.38,-307C-283.13,-307 -271.88,-295.50 -271.88,-270.25L-271.88,-246L-298.38,-246L-298.38,-210L-232.63,-210L-232.63,-246L-256.13,-246L-256.13,-286C-256.13,-334.75 -269.88,-350 -300.13,-350C-320.63,-350 -336.63,-340.75 -343.63,-324.25L-343.63,-409.50L-384.38,-409.50L-384.38,-365.75L-359.63,-365.75L-359.63,-246L-384.38,-246L-384.38,-210ZM-107.63,-244.75C-107.63,-272.50 -120.63,-283.50 -156.38,-287C-178.38,-289.25 -185.63,-293.75 -185.63,-300.25C-185.63,-309.50 -174.88,-316.75 -156.13,-316.75C-135.13,-316.75 -127.38,-311 -122.63,-302L-110.88,-302L-110.88,-347.75L-122.63,-347.75L-122.63,-337C-131.88,-345.25 -146.63,-350 -160.38,-350C-186.13,-350 -204.38,-335 -204.38,-311.50C-204.38,-282 -190.38,-272.25 -157.88,-269C-136.63,-266.75 -127.63,-262.25 -127.63,-255.50C-127.63,-247 -136.88,-239.50 -159.38,-239.50C-181.88,-239.50 -186.13,-248.25 -193.88,-258.25L-205.13,-258.25L-205.13,-210L-193.88,-210L-193.88,-224C-185.63,-214.25 -171.38,-207.50 -154.88,-207.50C-124.88,-207.50 -107.63,-222.25 -107.63,-244.75ZM3.88,-223.50L-2.88,-248.75C-6.88,-244.25 -15.38,-240.75 -25.88,-241C-38.13,-241.25 -46.63,-247.50 -46.63,-265.50L-46.63,-306L-9.13,-306L-9.13,-345L-46.63,-345L-46.63,-377.50L-62.88,-377.50L-62.88,-345L-82.63,-345L-82.63,-306L-62.88,-306L-62.88,-248.25C-62.88,-218 -48.63,-207.50 -29.13,-207.50C-14.88,-207.50 -0.63,-213.50 3.88,-223.50ZM26.38,-245.50L26.38,-209.50C33.38,-209.75 74.63,-209.75 88.63,-209.50L88.63,-245.50L66.13,-245.50L66.13,-281.25C66.13,-298.75 75.13,-308.50 87.38,-308.50C98.63,-308.50 104.63,-305.75 107.63,-299.25L117.13,-340.75C110.63,-346.25 104.88,-350 92.88,-350C82.63,-350 70.13,-343 64.38,-328L55.88,-347.50L26.38,-347.50L26.38,-306.50C32.38,-306.50 39.38,-306.75 49.63,-306.50L49.63,-245.50ZM192.13,-207.50C225.63,-207.50 249.63,-228.25 249.63,-276.25C249.63,-329.50 226.38,-350 192.13,-350C158.13,-350 134.63,-329.50 134.63,-276.25C134.63,-228.25 158.88,-207.50 192.13,-207.50ZM192.13,-239.25C168.88,-239.25 149.38,-248 149.38,-276.25C149.38,-293.75 164.13,-308 192.13,-308C220.38,-308 234.88,-294 234.88,-276.25C234.88,-248.25 215.38,-239.25 192.13,-239.25ZM277.13,-245.75L277.13,-209.75C284.13,-210 325.38,-210 339.38,-209.75L339.38,-245.75L317.13,-245.75L317.13,-282.50C323.88,-300 338.13,-307.25 357.13,-307.25C380.63,-307.25 390.13,-295.75 390.13,-270.25L390.13,-245.75L365.88,-245.75L365.88,-209.75C376.38,-210 403.63,-209.75 428.63,-209.75L428.63,-245.75L405.88,-245.75L405.88,-285.75C405.88,-334.75 391.63,-350 358.38,-350C339.63,-350 322.13,-339 317.13,-320L317.13,-347.50L277.13,-347.50L277.13,-306.50C281.63,-306.75 291.13,-306.75 300.88,-306.75L300.88,-245.75ZM568.38,-210C578.38,-210 585.38,-213.50 589.88,-219.25L589.88,-250.25C584.13,-243 577.88,-240.75 570.13,-240.75C564.13,-240.75 558.88,-243.75 556.88,-249.50L556.88,-289C556.88,-335.25 541.63,-350 507.63,-350C488.88,-350 473.13,-344.25 463.63,-333L464.63,-300.75C471.38,-308.75 483.88,-315.50 505.13,-315.50C528.63,-315.50 539.63,-305.75 540.88,-282.25C530.38,-289.50 512.88,-291.75 501.13,-291.75C471.38,-291.75 451.13,-275 451.13,-248.75C451.13,-224.50 468.13,-207.50 503.63,-207.50C519.88,-207.50 535.63,-214.25 544.13,-223.50C549.13,-214.75 557.63,-210 568.38,-210ZM503.88,-238.75C480.63,-238.75 470.63,-245 470.63,-256C470.63,-267.50 481.13,-274 505.63,-274C519.63,-274 530.88,-270.25 541.13,-262.50L541.13,-249.75C533.13,-242.25 519.38,-238.75 503.88,-238.75ZM710.63,-210L710.63,-209.75L749.38,-209.75L749.63,-245.75L725.88,-245.75L725.88,-306.75C735.13,-306.75 743.63,-306.50 748.63,-306.50L748.63,-347.50L684.63,-347.50L684.63,-306.50C687.63,-306.50 697.88,-306.75 709.63,-306.75L709.63,-265.75C703.63,-251.75 689.38,-243 670.38,-243C644.63,-243 636.88,-253.25 636.88,-281.75L636.88,-306.75C646.63,-306.75 655.63,-306.50 660.63,-306.50L660.63,-347.50L596.63,-347.50L596.63,-306.50C599.63,-306.50 609.63,-306.75 620.88,-306.75L620.88,-266.75C620.88,-222.50 638.63,-207.50 666.38,-207.50C687.88,-207.50 702.88,-218.25 709.38,-232ZM858.63,-223.50L851.88,-248.75C847.88,-244.25 839.38,-240.75 828.88,-241C816.63,-241.25 808.13,-247.50 808.13,-265.50L808.13,-306L845.63,-306L845.63,-345L808.13,-345L808.13,-377.50L791.88,-377.50L791.88,-345L772.13,-345L772.13,-306L791.88,-306L791.88,-248.25C791.88,-218 806.13,-207.50 825.63,-207.50C839.88,-207.50 854.13,-213.50 858.63,-223.50ZM-21.25,-4.75C-21.25,-32.50 -34.25,-43.50 -70,-47C-92,-49.25 -99.25,-53.75 -99.25,-60.25C-99.25,-69.50 -88.50,-76.75 -69.75,-76.75C-48.75,-76.75 -41,-71 -36.25,-62L-24.50,-62L-24.50,-107.75L-36.25,-107.75L-36.25,-97C-45.50,-105.25 -60.25,-110 -74,-110C-99.75,-110 -118,-95 -118,-71.50C-118,-42 -104,-32.25 -71.50,-29C-50.25,-26.75 -41.25,-22.25 -41.25,-15.50C-41.25,-7 -50.50,0.50 -73,0.50C-95.50,0.50 -99.75,-8.25 -107.50,-18.25L-118.75,-18.25L-118.75,30L-107.50,30L-107.50,16C-99.25,25.75 -85,32.50 -68.50,32.50C-38.50,32.50 -21.25,17.75 -21.25,-4.75ZM55.75,-120C55.75,-135 52.50,-155 35.25,-155C17.75,-155 14.25,-135.50 14.25,-120C14.25,-89.50 22.25,-75.75 25.50,-44.50C26.25,-37.75 26.75,-28.25 25.25,-16.50L43.75,-16.50C42.25,-28.50 42.75,-37.50 43.50,-44.50C46.75,-76 55.75,-90 55.75,-120ZM52,18.50C52,7.75 45.75,3.50 35.25,3.50C23.50,3.50 17.50,8 17.50,18.50C17.50,28 23.75,32.50 35.25,32.50C45.50,32.50 52,28 52,18.50Z" fill="#ffffff" stroke="#000000"/>
    <path d="M-775.98,-296.44L-776.92,-275.43L-856.54,-278.97L-854.52,-324.22L-799.14,-321.75L-800.12,-299.75L-788.25,-299.22L-785.73,-355.84L-797.59,-356.37L-798.52,-335.60L-853.90,-338.07L-852.06,-379.36L-774.18,-375.89L-775.05,-356.36L-760.71,-355.72L-757.86,-419.76L-889.89,-425.64L-891.87,-381.13L-869.62,-380.14L-874.09,-279.76L-896.35,-280.75L-897.93,-245.14L-764.17,-239.18L-761.64,-295.80ZM-627.19,-233.08C-617.30,-232.64 -610.22,-235.79 -605.52,-241.28L-604.15,-271.94C-610.16,-265.02 -616.44,-263.07 -624.10,-263.41C-630.04,-263.68 -635.10,-266.88 -636.82,-272.65L-635.08,-311.72C-633.04,-357.46 -647.47,-372.72 -681.10,-374.22C-699.65,-375.04 -715.48,-370.05 -725.37,-359.34L-725.80,-327.40C-718.77,-335.02 -706.11,-341.14 -685.09,-340.21C-661.85,-339.17 -651.40,-329.04 -651.20,-305.75C-661.27,-313.38 -678.48,-316.38 -690.10,-316.89C-719.52,-318.21 -740.29,-302.53 -741.44,-276.57C-742.51,-252.59 -726.45,-235.02 -691.34,-233.46C-675.27,-232.74 -659.39,-238.73 -650.58,-247.50C-646.02,-238.63 -637.82,-233.55 -627.19,-233.08ZM-689.71,-264.36C-712.71,-265.38 -722.32,-272.00 -721.84,-282.88C-721.33,-294.26 -710.66,-300.22 -686.43,-299.14C-672.58,-298.52 -661.62,-294.32 -651.83,-286.20L-652.39,-273.59C-660.63,-266.53 -674.38,-263.67 -689.71,-264.36ZM-587.79,-266.50L-589.38,-230.90C-582.45,-230.84 -541.65,-229.02 -527.81,-228.16L-526.23,-263.76L-548.48,-264.75L-546.90,-300.11C-546.13,-317.42 -536.80,-326.66 -524.69,-326.12C-513.56,-325.63 -507.75,-322.64 -505.07,-316.08L-493.84,-356.71C-500.03,-362.43 -505.55,-366.40 -517.42,-366.93C-527.56,-367.38 -540.23,-361.00 -546.58,-346.42L-554.12,-366.08L-583.30,-367.38L-585.11,-326.83C-579.17,-326.57 -572.24,-326.51 -562.11,-325.81L-564.80,-265.48ZM-398.62,-236.27L-404.19,-261.54C-408.34,-257.27 -416.90,-254.18 -427.28,-254.89C-439.38,-255.68 -447.51,-262.23 -446.72,-280.04L-444.93,-320.09L-407.85,-318.44L-406.13,-357.01L-443.22,-358.66L-441.78,-390.81L-457.85,-391.52L-459.29,-359.38L-478.82,-360.25L-480.54,-321.68L-461.01,-320.81L-463.55,-263.69C-464.88,-233.77 -451.25,-222.76 -431.97,-221.90C-417.87,-221.28 -403.52,-226.58 -398.62,-236.27ZM-311.94,-219.03L-310.35,-254.64L-335.08,-255.74L-333.48,-291.59C-326.28,-308.61 -312.36,-315.18 -293.57,-314.34C-272.55,-313.40 -261.93,-301.53 -263.05,-276.56L-264.12,-252.58L-290.32,-253.74L-291.91,-218.14L-226.88,-215.24L-225.30,-250.85L-248.54,-251.88L-246.78,-291.44C-244.63,-339.66 -257.55,-355.35 -287.47,-356.68C-307.75,-357.58 -323.98,-349.14 -331.63,-333.13L-327.87,-417.44L-368.17,-419.24L-370.10,-375.97L-345.62,-374.88L-350.90,-256.44L-375.38,-257.53L-376.97,-221.93ZM-101.72,-244.10C-100.50,-271.55 -112.87,-283.00 -148.08,-288.04C-169.74,-291.23 -176.71,-296.00 -176.42,-302.43C-176.01,-311.58 -165.06,-318.28 -146.52,-317.45C-125.75,-316.52 -118.34,-310.50 -114.04,-301.38L-102.42,-300.87L-100.40,-346.11L-112.02,-346.63L-112.49,-336.00C-121.28,-344.57 -135.66,-349.92 -149.26,-350.52C-174.72,-351.66 -193.43,-337.62 -194.47,-314.38C-195.77,-285.21 -182.35,-274.95 -150.35,-270.30C-129.44,-267.14 -120.73,-262.29 -121.03,-255.62C-121.41,-247.21 -130.88,-240.20 -153.14,-241.19C-175.39,-242.18 -179.21,-251.02 -186.43,-261.26L-197.56,-261.75L-199.68,-214.03L-188.56,-213.53L-187.94,-227.38C-180.21,-217.37 -166.42,-210.07 -150.10,-209.34C-120.43,-208.02 -102.72,-221.85 -101.72,-244.10ZM7.62,-218.17L2.05,-243.44C-2.10,-239.17 -10.66,-236.08 -21.04,-236.79C-33.14,-237.58 -41.27,-244.13 -40.48,-261.94L-38.69,-301.99L-1.61,-300.34L0.11,-338.91L-36.98,-340.56L-35.54,-372.71L-51.62,-373.42L-53.05,-341.28L-72.58,-342.15L-74.30,-303.58L-54.77,-302.71L-57.31,-245.59C-58.64,-215.67 -45.01,-204.66 -25.73,-203.80C-11.63,-203.17 2.72,-208.48 7.62,-218.17ZM30.84,-238.94L29.25,-203.33C36.19,-203.27 76.98,-201.46 90.82,-200.59L92.40,-236.20L70.15,-237.19L71.73,-272.54C72.50,-289.85 81.83,-299.10 93.94,-298.56C105.07,-298.06 110.88,-295.08 113.56,-288.52L124.79,-329.14C118.60,-334.87 113.08,-338.83 101.21,-339.36C91.08,-339.81 78.40,-333.44 72.06,-318.86L64.51,-338.52L35.33,-339.82L33.53,-299.27C39.46,-299.00 46.39,-298.94 56.52,-298.24L53.83,-237.91ZM193.09,-194.05C226.23,-192.58 250.88,-212.04 252.99,-259.51C255.34,-312.18 233.25,-333.48 199.37,-334.99C165.75,-336.49 141.60,-317.25 139.25,-264.58C137.14,-217.11 160.21,-195.52 193.09,-194.05ZM194.49,-225.45C171.50,-226.48 152.60,-235.99 153.84,-263.93C154.61,-281.24 169.83,-294.68 197.52,-293.45C225.46,-292.20 239.19,-277.72 238.40,-260.16C237.17,-232.47 217.49,-224.43 194.49,-225.45ZM278.85,-228.14L277.26,-192.53C284.19,-192.47 324.99,-190.65 338.83,-189.79L340.41,-225.39L318.41,-226.37L320.03,-262.72C327.47,-279.73 341.89,-286.27 360.68,-285.44C383.92,-284.40 392.81,-272.61 391.68,-247.39L390.60,-223.16L366.62,-224.23L365.03,-188.62C375.43,-188.41 402.37,-186.96 427.10,-185.86L428.68,-221.46L406.18,-222.46L407.94,-262.02C410.10,-310.49 396.68,-326.20 363.80,-327.66C345.25,-328.49 327.46,-318.38 321.68,-299.81L322.89,-327.01L283.33,-328.77L281.52,-288.22C285.98,-288.27 295.38,-287.85 305.02,-287.42L302.33,-227.09ZM565.32,-179.94C575.21,-179.50 582.29,-182.66 586.99,-188.15L588.36,-218.80C582.35,-211.89 576.07,-209.94 568.41,-210.28C562.47,-210.54 557.41,-213.74 555.69,-219.52L557.43,-258.58C559.47,-304.33 545.03,-319.59 511.41,-321.08C492.86,-321.91 477.03,-316.92 467.14,-306.21L466.71,-274.27C473.74,-281.88 486.40,-288.01 507.42,-287.07C530.66,-286.04 541.11,-275.91 541.31,-252.61C531.24,-260.25 514.03,-263.24 502.41,-263.76C472.99,-265.07 452.22,-249.40 451.07,-223.44C450.00,-199.45 466.06,-181.89 501.17,-180.33C517.24,-179.61 533.12,-185.59 541.93,-194.36C546.49,-185.49 554.69,-180.42 565.32,-179.94ZM502.80,-211.22C479.80,-212.25 470.19,-218.87 470.67,-229.75C471.18,-241.12 481.85,-247.09 506.08,-246.01C519.93,-245.39 530.89,-241.19 540.68,-233.07L540.12,-220.46C531.88,-213.39 518.13,-210.54 502.80,-211.22ZM706.01,-173.68L706.00,-173.43L744.32,-171.72L746.16,-207.31L722.67,-208.36L725.36,-268.69C734.50,-268.28 742.90,-267.66 747.84,-267.44L749.65,-307.99L686.35,-310.81L684.55,-270.26C687.51,-270.13 697.66,-269.93 709.28,-269.41L707.48,-228.86C700.93,-215.28 686.45,-207.25 667.66,-208.09C642.19,-209.22 634.98,-219.70 636.23,-247.89L637.33,-272.61C646.98,-272.18 655.87,-271.54 660.81,-271.32L662.62,-311.87L599.32,-314.69L597.51,-274.14C600.48,-274.01 610.38,-273.81 621.51,-273.32L619.75,-233.76C617.80,-189.99 634.69,-174.38 662.14,-173.15C683.40,-172.21 698.71,-182.18 705.74,-195.49ZM852.98,-180.51L847.42,-205.78C843.26,-201.50 834.70,-198.41 824.33,-199.12C812.22,-199.91 804.09,-206.47 804.88,-224.27L806.67,-264.32L843.76,-262.67L845.48,-301.24L808.39,-302.90L809.82,-335.04L793.75,-335.76L792.32,-303.61L772.78,-304.48L771.06,-265.91L790.60,-265.04L788.05,-207.93C786.72,-178.01 800.35,-166.99 819.64,-166.14C833.73,-165.51 848.09,-170.81 852.98,-180.51ZM-26.87,-2.93C-25.65,-30.38 -38.02,-41.83 -73.23,-46.87C-94.89,-50.06 -101.86,-54.83 -101.57,-61.26C-101.16,-70.41 -90.21,-77.10 -71.67,-76.28C-50.90,-75.35 -43.49,-69.32 -39.19,-60.21L-27.57,-59.70L-25.55,-104.94L-37.17,-105.46L-37.64,-94.83C-46.43,-103.40 -60.81,-108.74 -74.41,-109.35C-99.87,-110.49 -118.58,-96.45 -119.62,-73.21C-120.92,-44.04 -107.50,-33.78 -75.50,-29.13C-54.59,-25.97 -45.88,-21.12 -46.18,-14.44C-46.55,-6.04 -56.03,0.97 -78.29,-0.02C-100.54,-1.01 -104.36,-9.85 -111.58,-20.08L-122.71,-20.58L-124.83,27.14L-113.71,27.64L-113.09,13.79C-105.36,23.80 -91.57,31.10 -75.25,31.83C-45.58,33.15 -27.87,19.32 -26.87,-2.93ZM54.36,-113.52C55.02,-128.36 52.69,-148.28 35.63,-149.04C18.32,-149.81 14.00,-130.68 13.32,-115.35C11.97,-85.19 19.28,-71.24 21.11,-40.18C21.56,-33.48 21.63,-24.06 19.63,-12.50L37.93,-11.69C36.98,-23.62 37.87,-32.50 38.92,-39.39C43.52,-70.40 53.04,-83.85 54.36,-113.52ZM44.55,23.29C45.02,12.66 39.03,8.18 28.64,7.72C17.02,7.20 10.89,11.39 10.43,21.77C10.01,31.17 15.99,35.89 27.36,36.40C37.50,36.85 44.13,32.69 44.55,23.29Z" fill="#ffffff" stroke="#000000"/>
    <path d="M-760.44,-324.94L-762.29,-304.20L-840.87,-311.22L-836.88,-355.88L-782.22,-350.99L-784.16,-329.28L-772.45,-328.23L-767.46,-384.11L-779.17,-385.16L-781.00,-364.66L-835.66,-369.54L-832.02,-410.29L-755.15,-403.43L-756.88,-384.15L-742.72,-382.89L-737.08,-446.09L-867.39,-457.73L-871.31,-413.80L-849.35,-411.84L-858.20,-312.77L-880.16,-314.73L-883.30,-279.59L-751.28,-267.80L-746.29,-323.68ZM-616.09,-255.73C-606.32,-254.85 -599.19,-257.66 -594.29,-262.88L-591.59,-293.14C-597.84,-286.57 -604.13,-284.91 -611.70,-285.59C-617.55,-286.11 -622.42,-289.50 -623.87,-295.29L-620.43,-333.84C-616.39,-378.99 -629.99,-394.71 -663.18,-397.68C-681.48,-399.31 -697.36,-395.07 -707.61,-384.92L-709.45,-353.35C-702.16,-360.57 -689.37,-366.07 -668.63,-364.22C-645.69,-362.17 -635.80,-351.70 -636.63,-328.65C-646.25,-336.64 -663.13,-340.36 -674.60,-341.39C-703.64,-343.98 -724.87,-329.39 -727.16,-303.77C-729.27,-280.10 -714.16,-262.02 -679.51,-258.93C-663.64,-257.51 -647.68,-262.73 -638.58,-271.02C-634.46,-262.04 -626.58,-256.66 -616.09,-255.73ZM-676.54,-289.41C-699.23,-291.44 -708.45,-298.41 -707.49,-309.15C-706.49,-320.37 -695.67,-325.80 -671.76,-323.67C-658.09,-322.45 -647.44,-317.81 -638.11,-309.35L-639.22,-296.90C-647.68,-290.28 -661.41,-288.06 -676.54,-289.41ZM-575.65,-287.04L-578.79,-251.90C-571.94,-251.54 -531.67,-247.94 -518.03,-246.48L-514.89,-281.62L-536.85,-283.58L-533.74,-318.48C-532.21,-335.56 -522.58,-344.29 -510.62,-343.22C-499.64,-342.24 -494.02,-339.04 -491.66,-332.43L-478.77,-372.11C-484.64,-378.05 -489.92,-382.21 -501.63,-383.25C-511.64,-384.15 -524.45,-378.40 -531.37,-364.26L-537.97,-384.04L-566.76,-386.61L-570.34,-346.59C-564.48,-346.06 -557.63,-345.70 -547.64,-344.56L-552.96,-285.02ZM-389.91,-248.81L-394.30,-274.05C-398.60,-270.01 -407.20,-267.33 -417.43,-268.49C-429.36,-269.80 -437.12,-276.64 -435.55,-294.21L-432.02,-333.75L-395.41,-330.48L-392.01,-368.55L-428.62,-371.81L-425.79,-403.54L-441.65,-404.95L-444.48,-373.23L-463.76,-374.95L-467.16,-336.88L-447.88,-335.16L-452.91,-278.79C-455.55,-249.26 -442.55,-237.77 -423.52,-236.07C-409.61,-234.83 -395.18,-239.44 -389.91,-248.81ZM-304.95,-227.94L-301.81,-263.08L-326.21,-265.26L-323.05,-300.65C-315.18,-317.16 -301.13,-323.04 -282.58,-321.39C-261.84,-319.53 -251.86,-307.33 -254.06,-282.68L-256.18,-259.01L-282.04,-261.32L-285.18,-226.18L-221.00,-220.45L-217.86,-255.59L-240.80,-257.64L-237.32,-296.68C-233.07,-344.27 -245.16,-360.35 -274.69,-362.99C-294.70,-364.78 -311.12,-357.14 -319.39,-341.64L-311.96,-424.86L-351.74,-428.41L-355.55,-385.71L-331.39,-383.55L-341.83,-266.66L-365.99,-268.82L-369.13,-233.68ZM-95.96,-243.47C-93.54,-270.56 -105.27,-282.43 -139.86,-288.96C-161.14,-293.08 -167.83,-298.10 -167.26,-304.45C-166.45,-313.48 -155.33,-319.62 -137.03,-317.98C-116.53,-316.15 -109.46,-309.86 -105.61,-300.66L-94.14,-299.64L-90.15,-344.30L-101.62,-345.32L-102.56,-334.83C-110.87,-343.69 -124.85,-349.61 -138.28,-350.81C-163.41,-353.05 -182.53,-340.00 -184.58,-317.06C-187.15,-288.27 -174.34,-277.53 -142.90,-271.52C-122.35,-267.48 -113.96,-262.30 -114.54,-255.71C-115.29,-247.41 -124.97,-240.90 -146.93,-242.86C-168.89,-244.82 -172.28,-253.73 -178.97,-264.17L-189.95,-265.15L-194.16,-218.05L-183.18,-217.07L-181.96,-230.74C-174.75,-220.50 -161.43,-212.67 -145.33,-211.23C-116.04,-208.62 -97.92,-221.51 -95.96,-243.47ZM11.03,-213.01L6.64,-238.25C2.34,-234.20 -6.26,-231.53 -16.49,-232.69C-28.42,-234.00 -36.18,-240.84 -34.61,-258.41L-31.08,-297.94L5.53,-294.68L8.93,-332.74L-27.68,-336.01L-24.85,-367.74L-40.71,-369.15L-43.54,-337.43L-62.82,-339.15L-66.22,-301.08L-46.94,-299.36L-51.97,-242.99C-54.61,-213.46 -41.61,-201.97 -22.58,-200.27C-8.67,-199.03 5.76,-203.64 11.03,-213.01ZM34.91,-232.53L31.77,-197.39C38.62,-197.02 78.89,-193.43 92.53,-191.96L95.67,-227.10L73.71,-229.06L76.82,-263.96C78.35,-281.04 87.98,-289.77 99.94,-288.71C110.92,-287.73 116.54,-284.52 118.90,-277.91L131.79,-317.59C125.93,-323.53 120.64,-327.69 108.93,-328.74C98.92,-329.63 86.11,-323.89 79.19,-309.74L72.59,-329.52L43.80,-332.09L40.22,-292.07C46.08,-291.55 52.93,-291.18 62.92,-290.04L57.60,-230.50ZM193.39,-180.99C226.09,-178.07 251.32,-196.23 255.50,-243.08C260.15,-295.06 239.24,-317.10 205.81,-320.08C172.62,-323.05 147.89,-305.09 143.25,-253.11C139.07,-206.25 160.93,-183.89 193.39,-180.99ZM196.15,-211.98C173.46,-214.01 155.19,-224.25 157.65,-251.82C159.17,-268.90 174.81,-281.53 202.14,-279.09C229.72,-276.63 242.65,-261.70 241.11,-244.37C238.67,-217.04 218.85,-209.95 196.15,-211.98ZM279.69,-210.92L276.55,-175.78C283.41,-175.41 323.67,-171.81 337.31,-170.35L340.45,-205.49L318.73,-207.43L321.94,-243.30C330.05,-259.80 344.59,-265.63 363.14,-263.97C386.08,-261.93 394.35,-249.87 392.13,-224.98L389.99,-201.07L366.32,-203.18L363.18,-168.04C373.45,-167.37 400.03,-164.75 424.43,-162.57L427.57,-197.71L405.36,-199.69L408.85,-238.74C413.12,-286.57 400.54,-302.70 368.08,-305.59C349.78,-307.23 331.74,-298.02 325.21,-279.91L327.60,-306.75L288.56,-310.24L284.98,-270.22C289.40,-270.07 298.67,-269.24 308.19,-268.39L302.87,-208.85ZM560.87,-150.63C570.63,-149.76 577.77,-152.57 582.66,-157.79L585.36,-188.05C579.12,-181.47 572.82,-179.82 565.26,-180.50C559.40,-181.02 554.54,-184.41 553.08,-190.19L556.53,-228.75C560.56,-273.90 546.96,-289.62 513.77,-292.59C495.47,-294.22 479.59,-289.98 469.34,-279.83L467.50,-248.26C474.79,-255.48 487.58,-260.98 508.32,-259.13C531.26,-257.08 541.15,-246.60 540.32,-223.56C530.70,-231.55 513.82,-235.27 502.35,-236.29C473.31,-238.89 452.08,-224.30 449.79,-198.68C447.68,-175.01 462.79,-156.93 497.45,-153.84C513.31,-152.42 529.27,-157.64 538.37,-165.93C542.49,-156.95 550.37,-151.57 560.87,-150.63ZM500.41,-184.32C477.72,-186.35 468.50,-193.32 469.46,-204.06C470.46,-215.28 481.28,-220.71 505.19,-218.58C518.86,-217.36 529.51,-212.71 538.84,-204.26L537.73,-191.81C529.27,-185.19 515.54,-182.97 500.41,-184.32ZM699.72,-138.24L699.70,-137.99L737.52,-134.62L740.90,-169.73L717.72,-171.80L723.04,-231.35C732.07,-230.54 740.34,-229.56 745.22,-229.12L748.80,-269.14L686.33,-274.72L682.75,-234.70C685.68,-234.44 695.71,-233.79 707.18,-232.76L703.60,-192.74C696.53,-179.60 681.85,-172.30 663.31,-173.96C638.17,-176.20 631.50,-186.88 633.98,-214.70L636.16,-239.10C645.68,-238.25 654.44,-237.23 659.32,-236.79L662.90,-276.81L600.43,-282.39L596.85,-242.37C599.78,-242.11 609.56,-241.48 620.55,-240.50L617.06,-201.45C613.20,-158.26 629.22,-142.07 656.31,-139.65C677.30,-137.78 692.87,-146.96 700.42,-159.82ZM845.36,-138.51L840.97,-163.75C836.68,-159.71 828.07,-157.03 817.85,-158.19C805.91,-159.50 798.16,-166.34 799.73,-183.91L803.26,-223.45L839.86,-220.18L843.26,-258.25L806.66,-261.51L809.49,-293.24L793.63,-294.65L790.80,-262.93L771.52,-264.65L768.12,-226.58L787.40,-224.86L782.36,-168.49C779.73,-138.96 792.72,-127.47 811.76,-125.77C825.66,-124.53 840.10,-129.15 845.36,-138.51ZM-32.56,-1.68C-30.15,-28.77 -41.88,-40.64 -76.47,-47.17C-97.75,-51.28 -104.43,-56.31 -103.86,-62.65C-103.06,-71.68 -91.93,-77.82 -73.63,-76.19C-53.13,-74.36 -46.07,-68.07 -42.22,-58.87L-30.75,-57.84L-26.76,-102.50L-38.23,-103.53L-39.17,-93.03C-47.48,-101.89 -61.46,-107.81 -74.88,-109.01C-100.02,-111.26 -119.14,-98.20 -121.19,-75.27C-123.76,-46.47 -110.94,-35.73 -79.50,-29.73C-58.95,-25.68 -50.56,-20.50 -51.15,-13.91C-51.89,-5.62 -61.57,0.90 -83.54,-1.06C-105.50,-3.02 -108.88,-11.94 -115.58,-22.37L-126.56,-23.35L-130.76,23.74L-119.78,24.72L-118.56,11.06C-111.36,21.30 -98.04,29.13 -81.93,30.56C-52.65,33.18 -34.53,20.28 -32.56,-1.68ZM52.64,-107.46C53.95,-122.11 52.52,-141.91 35.68,-143.41C18.60,-144.94 13.48,-126.21 12.13,-111.08C9.47,-81.31 16.08,-67.19 16.53,-36.40C16.68,-29.75 16.34,-20.43 13.85,-9.09L31.91,-7.48C31.49,-19.33 32.76,-28.07 34.10,-34.83C40.02,-65.30 50.03,-78.18 52.64,-107.46ZM36.91,27.40C37.85,16.91 32.12,12.21 21.87,11.30C10.40,10.28 4.15,14.15 3.23,24.39C2.41,33.67 8.11,38.60 19.34,39.61C29.34,40.50 36.08,36.67 36.91,27.40Z" fill="#ffffff" stroke="#000000"/>
    <path d="M-743.77,-352.70L-746.52,-332.28L-823.91,-342.68L-818.00,-386.66L-764.16,-379.42L-767.04,-358.03L-755.50,-356.48L-748.10,-411.52L-759.64,-413.07L-762.35,-392.88L-816.19,-400.12L-810.80,-440.25L-735.09,-430.08L-737.64,-411.09L-723.70,-409.22L-715.34,-471.47L-843.68,-488.71L-849.49,-445.45L-827.86,-442.55L-840.97,-344.97L-862.60,-347.88L-867.25,-313.27L-737.23,-295.79L-729.84,-350.83ZM-604.08,-277.90C-594.47,-276.61 -587.29,-279.07 -582.22,-284.02L-578.21,-313.82C-584.68,-307.59 -590.98,-306.24 -598.43,-307.24C-604.20,-308.01 -608.86,-311.57 -610.04,-317.36L-604.93,-355.33C-598.96,-399.80 -611.71,-415.95 -644.40,-420.34C-662.42,-422.76 -678.31,-419.27 -688.89,-409.68L-692.10,-378.55C-684.58,-385.37 -671.69,-390.24 -651.26,-387.50C-628.67,-384.46 -619.35,-373.67 -621.19,-350.91C-630.34,-359.24 -646.88,-363.66 -658.17,-365.18C-686.77,-369.02 -708.40,-355.54 -711.80,-330.30C-714.93,-306.99 -700.78,-288.45 -666.65,-283.86C-651.03,-281.76 -635.02,-286.22 -625.65,-294.01C-621.98,-284.95 -614.42,-279.29 -604.08,-277.90ZM-662.38,-313.87C-684.73,-316.88 -693.53,-324.18 -692.11,-334.75C-690.63,-345.81 -679.69,-350.70 -656.14,-347.53C-642.68,-345.73 -632.35,-340.67 -623.50,-331.89L-625.14,-319.64C-633.80,-313.46 -647.48,-311.87 -662.38,-313.87ZM-562.72,-307.09L-567.38,-272.48C-560.61,-271.81 -520.96,-266.49 -507.53,-264.44L-502.88,-299.05L-524.51,-301.95L-519.89,-336.32C-517.63,-353.14 -507.72,-361.36 -495.94,-359.77C-485.13,-358.32 -479.71,-354.90 -477.67,-348.26L-463.18,-386.93C-468.71,-393.06 -473.76,-397.41 -485.29,-398.96C-495.15,-400.28 -508.07,-395.17 -515.54,-381.49L-521.19,-401.34L-549.55,-405.15L-554.84,-365.73C-549.08,-364.96 -542.31,-364.29 -532.49,-362.73L-540.37,-304.08ZM-380.75,-261.10L-383.97,-286.25C-388.40,-282.44 -397.02,-280.17 -407.09,-281.77C-418.83,-283.59 -426.19,-290.70 -423.87,-308.00L-418.64,-346.94L-382.59,-342.09L-377.55,-379.59L-413.60,-384.43L-409.40,-415.67L-425.02,-417.77L-429.22,-386.53L-448.21,-389.08L-453.25,-351.59L-434.26,-349.04L-441.72,-293.52C-445.63,-264.44 -433.28,-252.50 -414.54,-249.98C-400.84,-248.14 -386.36,-252.07 -380.75,-261.10ZM-297.65,-236.72L-293.00,-271.33L-317.03,-274.56L-312.35,-309.41C-303.84,-325.39 -289.69,-330.59 -271.42,-328.13C-250.99,-325.39 -241.66,-312.88 -244.92,-288.60L-248.06,-265.29L-273.53,-268.71L-278.18,-234.11L-214.97,-225.61L-210.32,-260.22L-232.91,-263.26L-227.75,-301.71C-221.45,-348.58 -232.70,-365.01 -261.78,-368.92C-281.49,-371.57 -298.06,-364.74 -306.92,-349.79L-295.91,-431.74L-335.09,-437.01L-340.74,-394.95L-316.94,-391.75L-332.41,-276.63L-356.21,-279.82L-360.86,-245.22ZM-90.31,-242.87C-86.73,-269.55 -97.81,-281.80 -131.72,-289.79C-152.58,-294.79 -158.97,-300.05 -158.13,-306.30C-156.93,-315.19 -145.66,-320.78 -127.64,-318.35C-107.45,-315.64 -100.74,-309.11 -97.34,-299.85L-86.04,-298.33L-80.13,-342.31L-91.43,-343.83L-92.82,-333.49C-100.64,-342.62 -114.21,-349.09 -127.43,-350.87C-152.18,-354.19 -171.67,-342.13 -174.70,-319.54C-178.51,-291.18 -166.31,-280.00 -135.49,-272.67C-115.35,-267.77 -107.28,-262.28 -108.15,-255.79C-109.25,-247.62 -119.11,-241.60 -140.74,-244.51C-162.37,-247.41 -165.33,-256.38 -171.49,-266.99L-182.30,-268.44L-188.54,-222.06L-177.72,-220.61L-175.91,-234.06C-169.24,-223.63 -156.41,-215.30 -140.55,-213.16C-111.71,-209.29 -93.22,-221.24 -90.31,-242.87ZM14.13,-208.04L10.90,-233.18C6.48,-229.37 -2.15,-227.11 -12.21,-228.70C-23.95,-230.53 -31.32,-237.63 -28.99,-254.94L-23.76,-293.87L12.29,-289.03L17.33,-326.52L-18.72,-331.37L-14.52,-362.61L-30.14,-364.71L-34.34,-333.46L-53.33,-336.02L-58.37,-298.52L-39.38,-295.97L-46.84,-240.45C-50.75,-211.37 -38.41,-199.44 -19.66,-196.92C-5.96,-195.08 8.51,-199.00 14.13,-208.04ZM38.60,-226.28L33.95,-191.67C40.72,-191.01 80.37,-185.68 93.80,-183.63L98.45,-218.24L76.82,-221.14L81.44,-255.51C83.70,-272.34 93.61,-280.55 105.39,-278.96C116.20,-277.51 121.61,-274.09 123.66,-267.46L138.15,-306.12C132.62,-312.25 127.57,-316.60 116.04,-318.15C106.18,-319.47 93.26,-314.36 85.79,-300.68L80.14,-320.53L51.78,-324.34L46.49,-284.92C52.25,-284.15 59.02,-283.48 68.84,-281.92L60.96,-223.28ZM193.04,-168.33C225.25,-164.01 251.00,-180.85 257.20,-227.00C264.08,-278.19 244.38,-300.90 211.45,-305.33C178.76,-309.72 153.52,-293.05 146.64,-241.86C140.44,-195.71 161.08,-172.63 193.04,-168.33ZM197.14,-198.86C174.79,-201.86 157.17,-212.79 160.82,-239.95C163.09,-256.77 179.11,-268.57 206.02,-264.95C233.18,-261.30 245.31,-245.97 243.02,-228.90C239.40,-201.99 219.49,-195.85 197.14,-198.86ZM279.70,-194.13L275.05,-159.52C281.81,-158.85 321.46,-153.52 334.89,-151.47L339.54,-186.08L318.15,-188.96L322.90,-224.29C331.65,-240.24 346.29,-245.37 364.55,-242.91C387.14,-239.88 394.79,-227.59 391.50,-203.08L388.33,-179.53L365.02,-182.66L360.37,-148.05C370.49,-146.93 396.66,-143.17 420.69,-139.94L425.34,-174.55L403.47,-177.49L408.64,-215.95C414.97,-263.05 403.24,-279.55 371.28,-283.85C353.25,-286.27 335.01,-277.96 327.74,-260.34L331.30,-286.78L292.84,-291.94L287.55,-252.53C291.90,-252.19 301.04,-250.96 310.41,-249.70L302.53,-191.06ZM555.07,-122.13C564.69,-120.84 571.87,-123.30 576.94,-128.24L580.94,-158.05C574.48,-151.82 568.18,-150.46 560.73,-151.47C554.96,-152.24 550.30,-155.80 549.12,-161.59L554.23,-199.56C560.20,-244.03 547.45,-260.18 514.76,-264.57C496.73,-266.99 480.85,-263.50 470.26,-253.91L467.06,-222.78C474.58,-229.60 487.47,-234.47 507.90,-231.72C530.49,-228.69 539.81,-217.89 537.97,-195.14C528.81,-203.47 512.28,-207.89 500.98,-209.41C472.38,-213.25 450.75,-199.77 447.36,-174.53C444.23,-151.22 458.38,-132.68 492.50,-128.09C508.13,-125.99 524.14,-130.45 533.51,-138.24C537.18,-129.18 544.74,-123.52 555.07,-122.13ZM496.78,-158.10C474.43,-161.11 465.62,-168.41 467.04,-178.98C468.53,-190.04 479.46,-194.93 503.02,-191.76C516.48,-189.95 526.81,-184.90 535.66,-176.12L534.01,-163.86C525.35,-157.69 511.68,-156.10 496.78,-158.10ZM691.83,-103.75L691.80,-103.51L729.05,-98.51L733.94,-133.08L711.11,-136.15L718.99,-194.79C727.88,-193.60 736.02,-192.26 740.83,-191.61L746.12,-231.03L684.60,-239.30L679.30,-199.88C682.18,-199.50 692.07,-198.41 703.37,-196.89L698.07,-157.48C690.49,-144.79 675.66,-138.22 657.40,-140.68C632.64,-144.00 626.52,-154.86 630.20,-182.26L633.43,-206.29C642.80,-205.03 651.42,-203.63 656.23,-202.98L661.52,-242.40L600.00,-250.67L594.70,-211.25C597.58,-210.86 607.23,-209.81 618.05,-208.36L612.88,-169.90C607.16,-127.36 622.29,-110.65 648.96,-107.07C669.63,-104.29 685.44,-112.69 693.47,-125.06ZM835.85,-97.61L832.63,-122.76C828.20,-118.95 819.58,-116.68 809.51,-118.28C797.77,-120.10 790.41,-127.21 792.73,-144.51L797.96,-183.45L834.01,-178.60L839.05,-216.10L803.00,-220.94L807.20,-252.18L791.58,-254.28L787.38,-223.04L768.39,-225.59L763.35,-188.10L782.34,-185.55L774.88,-130.03C770.97,-100.95 783.31,-89.01 802.06,-86.49C815.76,-84.65 830.24,-88.58 835.85,-97.61ZM-38.28,-0.98C-34.70,-27.66 -45.77,-39.92 -79.69,-47.90C-100.55,-52.91 -106.94,-58.17 -106.10,-64.42C-104.90,-73.31 -93.63,-78.89 -75.61,-76.47C-55.42,-73.76 -48.71,-67.23 -45.31,-57.96L-34.01,-56.44L-28.10,-100.42L-39.40,-101.94L-40.78,-91.61C-48.61,-100.73 -62.18,-107.21 -75.40,-108.98C-100.15,-112.31 -119.63,-100.25 -122.67,-77.65C-126.48,-49.29 -114.28,-38.11 -83.46,-30.79C-63.32,-25.88 -55.25,-20.39 -56.12,-13.90C-57.22,-5.73 -67.08,0.28 -88.71,-2.62C-110.34,-5.53 -113.30,-14.49 -119.46,-25.11L-130.27,-26.56L-136.50,19.83L-125.69,21.28L-123.88,7.82C-117.21,18.26 -104.38,26.59 -88.52,28.72C-59.68,32.60 -41.19,20.65 -38.28,-0.98ZM50.63,-101.83C52.57,-116.25 52.03,-135.90 35.45,-138.13C18.62,-140.39 12.74,-122.10 10.74,-107.20C6.79,-77.87 12.71,-63.62 11.80,-33.16C11.65,-26.57 10.90,-17.38 7.94,-6.27L25.72,-3.88C25.83,-15.61 27.48,-24.20 29.10,-30.83C36.29,-60.70 46.76,-72.99 50.63,-101.83ZM29.13,30.83C30.52,20.50 25.06,15.60 14.97,14.25C3.67,12.73 -2.68,16.28 -4.03,26.37C-5.26,35.51 0.17,40.64 11.22,42.12C21.08,43.45 27.91,39.96 29.13,30.83Z" fill="#ffffff" stroke="#000000"/>
    <path d="M-726.02,-379.68L-729.63,-359.60L-805.69,-373.29L-797.91,-416.51L-745.00,-406.99L-748.78,-385.97L-737.45,-383.93L-727.71,-438.02L-739.05,-440.06L-742.62,-420.22L-795.53,-429.74L-788.43,-469.19L-714.02,-455.79L-717.38,-437.13L-703.68,-434.67L-692.67,-495.84L-818.80,-518.55L-826.46,-476.03L-805.20,-472.21L-822.46,-376.31L-843.72,-380.14L-849.84,-346.12L-722.06,-323.12L-712.32,-377.21ZM-591.20,-299.56C-581.75,-297.86 -574.54,-299.98 -569.31,-304.64L-564.04,-333.93C-570.71,-328.06 -576.99,-327.00 -584.32,-328.32C-589.98,-329.34 -594.43,-333.06 -595.35,-338.84L-588.63,-376.16C-580.76,-419.86 -592.66,-436.39 -624.79,-442.17C-642.50,-445.36 -658.36,-442.60 -669.25,-433.59L-673.79,-402.95C-666.05,-409.36 -653.09,-413.61 -633.01,-410.00C-610.81,-406.00 -602.08,-394.92 -604.89,-372.50C-613.58,-381.14 -629.73,-386.24 -640.83,-388.24C-668.94,-393.30 -690.92,-380.92 -695.39,-356.12C-699.51,-333.20 -686.34,-314.25 -652.80,-308.21C-637.45,-305.45 -621.42,-309.15 -611.81,-316.44C-608.58,-307.32 -601.36,-301.39 -591.20,-299.56ZM-647.25,-337.70C-669.22,-341.65 -677.60,-349.26 -675.73,-359.65C-673.77,-370.51 -662.75,-374.87 -639.60,-370.70C-626.37,-368.32 -616.38,-362.86 -608.02,-353.80L-610.18,-341.75C-619.02,-336.03 -632.61,-335.06 -647.25,-337.70ZM-549.02,-326.60L-555.15,-292.58C-548.49,-291.63 -509.52,-284.61 -496.33,-282.00L-490.21,-316.01L-511.47,-319.84L-505.39,-353.61C-502.41,-370.15 -492.25,-377.83 -480.67,-375.75C-470.04,-373.83 -464.84,-370.21 -463.11,-363.56L-447.08,-401.16C-452.29,-407.46 -457.08,-411.98 -468.42,-414.02C-478.10,-415.76 -491.10,-411.28 -499.09,-398.08L-503.80,-417.95L-531.67,-422.97L-538.65,-384.23C-532.98,-383.21 -526.32,-382.26 -516.68,-380.28L-527.06,-322.64ZM-371.12,-273.11L-373.21,-298.12C-377.75,-294.55 -386.38,-292.68 -396.26,-294.71C-407.79,-297.03 -414.75,-304.38 -411.69,-321.38L-404.80,-359.65L-369.37,-353.27L-362.74,-390.12L-398.17,-396.50L-392.64,-427.20L-408.00,-429.97L-413.52,-399.26L-432.18,-402.62L-438.82,-365.77L-420.16,-362.41L-429.98,-307.85C-435.13,-279.27 -423.45,-266.92 -405.02,-263.61C-391.56,-261.18 -377.08,-264.43 -371.12,-273.11ZM-290.04,-245.35L-283.92,-279.36L-307.54,-283.61L-301.37,-317.86C-292.25,-333.29 -278.03,-337.80 -260.08,-334.57C-240.00,-330.96 -231.33,-318.18 -235.62,-294.32L-239.75,-271.41L-264.78,-275.92L-270.91,-241.90L-208.79,-230.72L-202.66,-264.73L-224.87,-268.73L-218.06,-306.52C-209.77,-352.58 -220.17,-369.33 -248.75,-374.48C-268.12,-377.96 -284.81,-371.94 -294.23,-357.54L-279.73,-438.09L-318.23,-445.02L-325.67,-403.69L-302.29,-399.48L-322.65,-286.33L-346.04,-290.54L-352.16,-256.53ZM-84.77,-242.29C-80.05,-268.51 -90.47,-281.12 -123.65,-290.50C-144.05,-296.37 -150.14,-301.85 -149.03,-308.00C-147.46,-316.74 -136.07,-321.76 -118.35,-318.57C-98.51,-315.00 -92.17,-308.25 -89.21,-298.93L-78.11,-296.94L-70.33,-340.16L-81.43,-342.16L-83.26,-332.00C-90.59,-341.37 -103.72,-348.37 -116.71,-350.71C-141.04,-355.09 -160.83,-344.02 -164.83,-321.81C-169.85,-293.94 -158.28,-282.35 -128.13,-273.75C-108.43,-268.01 -100.69,-262.23 -101.84,-255.85C-103.29,-247.82 -113.30,-242.31 -134.56,-246.13C-155.82,-249.96 -158.35,-258.95 -163.97,-269.72L-174.60,-271.63L-182.80,-226.04L-172.17,-224.13L-169.79,-237.36C-163.66,-226.74 -151.34,-217.94 -135.75,-215.13C-107.41,-210.03 -88.60,-221.03 -84.77,-242.29ZM16.96,-203.25L14.88,-228.26C10.33,-224.68 1.70,-222.82 -8.17,-224.85C-19.70,-227.16 -26.67,-234.52 -23.61,-251.52L-16.72,-289.79L18.71,-283.41L25.34,-320.26L-10.09,-326.63L-4.56,-357.34L-19.92,-360.11L-25.44,-329.40L-44.10,-332.76L-50.74,-295.91L-32.08,-292.55L-41.90,-237.99C-47.04,-209.41 -35.37,-197.06 -16.94,-193.75C-3.48,-191.32 11.01,-194.57 16.96,-203.25ZM41.96,-220.21L35.84,-186.20C42.49,-185.24 81.47,-178.23 94.65,-175.61L100.77,-209.62L79.51,-213.45L85.60,-247.23C88.57,-263.76 98.73,-271.44 110.31,-269.36C120.94,-267.44 126.14,-263.83 127.87,-257.17L143.90,-294.77C138.69,-301.07 133.90,-305.59 122.56,-307.63C112.88,-309.38 99.88,-304.89 91.89,-291.69L87.18,-311.56L59.31,-316.58L52.33,-277.84C58.00,-276.82 64.66,-275.87 74.30,-273.89L63.93,-216.26ZM192.10,-156.12C223.75,-150.42 249.95,-165.94 258.12,-211.29C267.17,-261.60 248.69,-284.93 216.33,-290.75C184.21,-296.53 158.52,-281.16 149.46,-230.85C141.30,-185.50 160.68,-161.77 192.10,-156.12ZM197.50,-186.11C175.53,-190.07 158.60,-201.65 163.40,-228.34C166.38,-244.88 182.74,-255.83 209.19,-251.07C235.88,-246.26 247.20,-230.57 244.18,-213.80C239.42,-187.35 219.46,-182.16 197.50,-186.11ZM278.91,-177.80L272.79,-143.78C279.45,-142.83 318.42,-135.81 331.60,-133.20L337.73,-167.21L316.71,-170.99L322.96,-205.72C332.31,-221.10 347.01,-225.53 364.96,-222.30C387.16,-218.30 394.18,-205.82 389.84,-181.73L385.68,-158.58L362.76,-162.70L356.64,-128.69C366.60,-127.14 392.31,-122.27 415.93,-118.02L422.05,-152.03L400.56,-155.90L407.36,-193.69C415.69,-239.99 404.83,-256.82 373.41,-262.48C355.69,-265.66 337.29,-258.25 329.33,-241.15L334.01,-267.13L296.22,-273.93L289.25,-235.20C293.54,-234.67 302.52,-233.05 311.73,-231.39L301.35,-173.76ZM548.01,-94.48C557.46,-92.78 564.67,-94.90 569.90,-99.57L575.17,-128.86C568.50,-122.98 562.21,-121.92 554.89,-123.24C549.22,-124.26 544.77,-127.99 543.86,-133.76L550.58,-171.08C558.45,-214.78 546.55,-231.31 514.42,-237.09C496.71,-240.28 480.85,-237.53 469.96,-228.51L465.42,-197.87C473.16,-204.28 486.12,-208.53 506.19,-204.92C528.40,-200.92 537.13,-189.84 534.32,-167.42C525.63,-176.06 509.48,-181.16 498.37,-183.16C470.27,-188.22 448.29,-175.84 443.82,-151.04C439.70,-128.13 452.87,-109.17 486.41,-103.13C501.76,-100.37 517.79,-104.07 527.39,-111.36C530.63,-102.25 537.85,-96.31 548.01,-94.48ZM491.96,-132.62C469.99,-136.57 461.61,-144.18 463.48,-154.57C465.43,-165.44 476.46,-169.79 499.61,-165.62C512.83,-163.24 522.83,-157.79 531.19,-148.72L529.02,-136.68C520.19,-130.95 506.60,-129.98 491.96,-132.62ZM682.41,-70.29L682.37,-70.05L718.98,-63.46L725.34,-97.43L702.90,-101.47L713.27,-159.11C722.01,-157.53 730.00,-155.85 734.72,-155.00L741.70,-193.74L681.23,-204.62L674.26,-165.89C677.09,-165.38 686.82,-163.87 697.92,-161.87L690.95,-123.13C682.90,-110.93 667.94,-105.08 649.99,-108.31C625.66,-112.69 620.08,-123.70 624.93,-150.62L629.18,-174.24C638.40,-172.59 646.86,-170.82 651.58,-169.97L658.55,-208.71L598.09,-219.59L591.11,-180.85C593.95,-180.34 603.44,-178.88 614.07,-176.97L607.26,-139.17C599.74,-97.36 613.96,-80.17 640.18,-75.45C660.49,-71.80 676.49,-79.40 684.97,-91.29ZM824.54,-57.87L822.45,-82.88C817.91,-79.31 809.28,-77.44 799.41,-79.47C787.87,-81.79 780.91,-89.14 783.97,-106.14L790.86,-144.41L826.29,-138.03L832.92,-174.88L797.49,-181.26L803.02,-211.96L787.66,-214.73L782.14,-184.02L763.48,-187.38L756.84,-150.53L775.50,-147.17L765.68,-92.61C760.54,-64.03 772.21,-51.68 790.64,-48.37C804.10,-45.94 818.58,-49.19 824.54,-57.87ZM-43.99,-0.85C-39.27,-27.06 -49.68,-39.67 -82.86,-49.06C-103.26,-54.92 -109.35,-60.41 -108.24,-66.55C-106.67,-75.29 -95.28,-80.31 -77.56,-77.12C-57.72,-73.55 -51.38,-66.80 -48.42,-57.49L-37.32,-55.49L-29.54,-98.71L-40.64,-100.71L-42.47,-90.56C-49.80,-99.92 -62.93,-106.92 -75.92,-109.26C-100.25,-113.64 -120.05,-102.57 -124.04,-80.37C-129.06,-52.50 -117.49,-40.90 -87.34,-32.30C-67.64,-26.56 -59.91,-20.78 -61.05,-14.40C-62.50,-6.37 -72.51,-0.86 -93.77,-4.69C-115.03,-8.51 -117.56,-17.50 -123.18,-28.27L-133.81,-30.18L-142.02,15.40L-131.39,17.32L-129.01,4.09C-122.87,14.70 -110.55,23.51 -94.96,26.31C-66.62,31.41 -47.81,20.41 -43.99,-0.85ZM48.37,-96.64C50.92,-110.81 51.25,-130.26 34.95,-133.19C18.42,-136.17 11.79,-118.34 9.16,-103.70C3.97,-74.88 9.19,-60.53 6.94,-30.45C6.51,-23.95 5.36,-14.89 1.95,-4.04L19.43,-0.89C20.05,-12.49 22.05,-20.90 23.95,-27.39C32.38,-56.60 43.26,-68.30 48.37,-96.64ZM21.27,33.58C23.10,23.42 17.91,18.34 7.99,16.56C-3.11,14.56 -9.54,17.79 -11.33,27.71C-12.94,36.69 -7.80,42.00 3.06,43.96C12.74,45.70 19.65,42.55 21.27,33.58Z" fill="#ffffff" stroke="#000000"/>
    <path d="M-707.21,-405.81L-711.67,-386.12L-786.25,-403.00L-776.66,-445.39L-724.77,-433.65L-729.44,-413.03L-718.32,-410.51L-706.31,-463.56L-717.43,-466.08L-721.83,-446.62L-773.72,-458.37L-764.96,-497.05L-692.00,-480.53L-696.14,-462.23L-682.70,-459.19L-669.12,-519.18L-792.82,-547.19L-802.26,-505.49L-781.41,-500.77L-802.70,-406.73L-823.55,-411.45L-831.10,-378.09L-705.78,-349.72L-693.77,-402.77ZM-577.45,-320.67C-568.19,-318.57 -560.97,-320.35 -555.59,-324.73L-549.09,-353.45C-555.94,-347.94 -562.20,-347.17 -569.38,-348.79C-574.94,-350.05 -579.18,-353.93 -579.82,-359.68L-571.54,-396.28C-561.84,-439.13 -572.87,-456.00 -604.38,-463.13C-621.75,-467.06 -637.55,-465.04 -648.71,-456.61L-654.55,-426.52C-646.62,-432.51 -633.62,-436.14 -613.93,-431.69C-592.15,-426.76 -584.01,-415.42 -587.78,-393.38C-595.99,-402.30 -611.73,-408.06 -622.62,-410.52C-650.18,-416.76 -672.46,-405.49 -677.96,-381.17C-683.05,-358.70 -670.87,-339.38 -637.97,-331.93C-622.92,-328.53 -606.91,-331.48 -597.09,-338.26C-594.29,-329.11 -587.41,-322.92 -577.45,-320.67ZM-631.19,-360.84C-652.73,-365.71 -660.68,-373.60 -658.38,-383.79C-655.96,-394.45 -644.87,-398.27 -622.17,-393.13C-609.20,-390.19 -599.56,-384.36 -591.69,-375.03L-594.36,-363.21C-603.35,-357.94 -616.82,-357.58 -631.19,-360.84ZM-534.57,-345.54L-542.12,-312.18C-535.58,-310.94 -497.36,-302.29 -484.44,-299.12L-476.89,-332.48L-497.74,-337.20L-490.24,-370.32C-486.57,-386.54 -476.18,-393.68 -464.83,-391.11C-454.41,-388.75 -449.43,-384.95 -448.01,-378.30L-430.50,-414.76C-435.37,-421.22 -439.91,-425.90 -451.03,-428.41C-460.53,-430.56 -473.58,-426.70 -482.05,-414.01L-485.84,-433.86L-513.17,-440.05L-521.77,-402.06C-516.21,-400.80 -509.67,-399.56 -500.23,-397.18L-513.02,-340.66ZM-361.05,-284.83L-362.01,-309.64C-366.66,-306.31 -375.27,-304.85 -384.95,-307.28C-396.24,-310.08 -402.81,-317.66 -399.03,-334.33L-390.54,-371.86L-355.79,-363.99L-347.61,-400.13L-382.36,-408.00L-375.54,-438.11L-390.60,-441.52L-397.41,-411.40L-415.71,-415.55L-423.89,-379.41L-405.59,-375.27L-417.71,-321.76C-424.05,-293.73 -413.05,-281.01 -394.98,-276.92C-381.78,-273.93 -367.32,-276.50 -361.05,-284.83ZM-282.12,-253.81L-274.56,-287.16L-297.73,-292.41L-290.12,-325.99C-280.43,-340.85 -266.17,-344.68 -248.57,-340.69C-228.88,-336.24 -220.86,-323.22 -226.16,-299.82L-231.25,-277.36L-255.80,-282.91L-263.35,-249.56L-202.43,-235.77L-194.88,-269.12L-216.65,-274.05L-208.26,-311.11C-198.04,-356.28 -207.58,-373.30 -235.61,-379.64C-254.60,-383.94 -271.37,-378.73 -281.31,-364.91L-263.43,-443.90L-301.19,-452.45L-310.37,-411.91L-287.43,-406.72L-312.55,-295.76L-335.48,-300.95L-343.04,-267.60ZM-79.32,-241.74C-73.50,-267.46 -83.24,-280.37 -115.63,-291.12C-135.54,-297.82 -141.32,-303.51 -139.95,-309.53C-138.01,-318.10 -126.53,-322.56 -109.16,-318.63C-89.70,-314.22 -83.73,-307.27 -81.21,-297.94L-70.33,-295.47L-60.73,-337.86L-71.62,-340.33L-73.87,-330.36C-80.71,-339.95 -93.38,-347.44 -106.12,-350.33C-129.98,-355.73 -150.04,-345.66 -154.97,-323.89C-161.15,-296.55 -150.23,-284.58 -120.80,-274.75C-101.58,-268.21 -94.18,-262.15 -95.60,-255.90C-97.38,-248.02 -107.53,-243.02 -128.37,-247.73C-149.22,-252.45 -151.32,-261.45 -156.41,-272.34L-166.83,-274.70L-176.95,-230.00L-166.53,-227.64L-163.59,-240.61C-157.99,-229.85 -146.21,-220.60 -130.92,-217.14C-103.12,-210.85 -84.04,-220.90 -79.32,-241.74ZM19.53,-198.67L18.57,-223.48C13.92,-220.15 5.31,-218.69 -4.36,-221.12C-15.66,-223.92 -22.23,-231.50 -18.45,-248.17L-9.96,-285.70L24.79,-277.83L32.97,-313.97L-1.78,-321.84L5.04,-351.95L-10.01,-355.36L-16.83,-325.24L-35.13,-329.39L-43.31,-293.25L-25.01,-289.11L-37.13,-235.60C-43.47,-207.57 -32.47,-194.85 -14.40,-190.76C-1.20,-187.77 13.26,-190.34 19.53,-198.67ZM44.99,-214.33L37.44,-180.97C43.98,-179.74 82.20,-171.09 95.12,-167.92L102.67,-201.27L81.82,-205.99L89.32,-239.12C92.99,-255.33 103.38,-262.48 114.73,-259.91C125.15,-257.55 130.13,-253.74 131.55,-247.09L149.06,-283.55C144.19,-290.01 139.65,-294.69 128.53,-297.21C119.03,-299.36 105.98,-295.49 97.51,-282.80L93.72,-302.65L66.39,-308.84L57.79,-270.85C63.35,-269.59 69.88,-268.36 79.33,-265.97L66.53,-209.45ZM190.60,-144.35C221.64,-137.33 248.23,-151.52 258.29,-195.99C269.46,-245.33 252.22,-269.20 220.49,-276.39C188.99,-283.52 162.91,-269.45 151.74,-220.12C141.67,-175.64 159.79,-151.33 190.60,-144.35ZM197.26,-173.77C175.71,-178.65 159.48,-190.85 165.41,-217.02C169.08,-233.24 185.73,-243.35 211.68,-237.47C237.85,-231.55 248.35,-215.53 244.63,-199.09C238.75,-173.14 218.80,-168.89 197.26,-173.77ZM277.38,-161.96L269.83,-128.61C276.36,-127.37 314.58,-118.72 327.50,-115.55L335.05,-148.91L314.44,-153.57L322.15,-187.62C332.07,-202.42 346.80,-206.15 364.40,-202.17C386.18,-197.24 392.57,-184.59 387.22,-160.96L382.08,-138.26L359.61,-143.35L352.06,-109.99C361.84,-108.02 387.03,-102.07 410.20,-96.83L417.75,-130.19L396.67,-134.96L405.06,-172.02C415.34,-217.42 405.34,-234.54 374.53,-241.51C357.15,-245.45 338.63,-238.93 330.01,-222.37L335.78,-247.85L298.72,-256.24L290.12,-218.25C294.34,-217.54 303.14,-215.55 312.18,-213.50L299.38,-156.98ZM539.74,-67.75C549.00,-65.65 556.22,-67.42 561.60,-71.81L568.10,-100.53C561.25,-95.02 554.99,-94.25 547.81,-95.87C542.25,-97.13 538.01,-101.01 537.37,-106.76L545.65,-143.36C555.35,-186.21 544.32,-203.08 512.82,-210.21C495.44,-214.14 479.64,-212.12 468.48,-203.69L462.64,-173.59C470.57,-179.59 483.57,-183.22 503.26,-178.77C525.04,-173.84 533.18,-162.49 529.41,-140.46C521.20,-149.38 505.46,-155.13 494.57,-157.60C467.01,-163.84 444.73,-152.57 439.23,-128.25C434.14,-105.78 446.33,-86.46 479.22,-79.01C494.27,-75.60 510.28,-78.55 520.10,-85.34C522.90,-76.19 529.78,-70.00 539.74,-67.75ZM486.00,-107.91C464.46,-112.79 456.51,-120.68 458.82,-130.87C461.23,-141.53 472.32,-145.35 495.02,-140.21C507.99,-137.27 517.63,-131.44 525.50,-122.11L522.83,-110.29C513.84,-105.02 500.37,-104.66 486.00,-107.91ZM671.54,-37.91L671.49,-37.68L707.39,-29.55L715.17,-62.85L693.17,-67.83L705.96,-124.35C714.53,-122.41 722.36,-120.40 726.99,-119.35L735.59,-157.34L676.29,-170.76L667.69,-132.77C670.47,-132.14 680.02,-130.23 690.91,-127.76L682.31,-89.77C673.81,-78.06 658.77,-72.94 641.17,-76.93C617.31,-82.33 612.28,-93.45 618.26,-119.86L623.50,-143.02C632.53,-140.98 640.82,-138.86 645.45,-137.81L654.05,-175.80L594.75,-189.22L586.15,-151.23C588.93,-150.60 598.25,-148.74 608.68,-146.38L600.28,-109.32C591.00,-68.32 604.30,-50.69 630.01,-44.87C649.94,-40.36 666.09,-47.18 675.00,-58.55ZM811.50,-19.37L810.54,-44.18C805.89,-40.85 797.28,-39.39 787.61,-41.83C776.31,-44.63 769.74,-52.20 773.52,-68.88L782.01,-106.41L816.76,-98.54L824.94,-134.67L790.20,-142.54L797.01,-172.65L781.96,-176.06L775.14,-145.95L756.84,-150.09L748.66,-113.96L766.96,-109.81L754.84,-56.31C748.50,-28.28 759.50,-15.56 777.57,-11.47C790.77,-8.48 805.23,-11.05 811.50,-19.37ZM-49.64,-1.25C-43.81,-26.97 -53.55,-39.88 -85.94,-50.63C-105.86,-57.33 -111.63,-63.02 -110.27,-69.04C-108.32,-77.61 -96.84,-82.07 -79.47,-78.14C-60.01,-73.73 -54.04,-66.78 -51.53,-57.44L-40.64,-54.98L-31.04,-97.37L-41.93,-99.83L-44.18,-89.87C-51.02,-99.46 -63.69,-106.95 -76.43,-109.84C-100.29,-115.24 -120.35,-105.17 -125.28,-83.40C-131.47,-56.06 -120.54,-44.09 -91.11,-34.26C-71.89,-27.72 -64.50,-21.66 -65.91,-15.41C-67.69,-7.53 -77.84,-2.52 -98.69,-7.24C-119.53,-11.96 -121.64,-20.96 -126.72,-31.85L-137.14,-34.21L-147.26,10.49L-136.84,12.85L-133.90,-0.12C-128.30,10.65 -116.52,19.89 -101.23,23.35C-73.43,29.64 -54.36,19.59 -49.64,-1.25ZM45.88,-91.89C49.03,-105.78 50.21,-125.00 34.23,-128.62C18.02,-132.29 10.68,-114.95 7.43,-100.59C1.03,-72.33 5.56,-57.91 2.02,-28.28C1.30,-21.87 -0.23,-12.96 -4.09,-2.39L13.05,1.49C14.18,-9.94 16.53,-18.17 18.70,-24.50C28.32,-53.01 39.59,-64.09 45.88,-91.89ZM13.36,35.65C15.61,25.69 10.71,20.44 0.98,18.24C-9.90,15.78 -16.41,18.69 -18.61,28.42C-20.60,37.22 -15.75,42.70 -5.10,45.11C4.40,47.26 11.36,44.46 13.36,35.65Z" fill="#ffffff" stroke="#000000"/>
    <path d="M-687.38,-431.05L-692.65,-411.79L-765.64,-431.77L-754.29,-473.24L-703.51,-459.35L-709.04,-439.17L-698.16,-436.20L-683.95,-488.10L-694.83,-491.08L-700.04,-472.04L-750.81,-485.94L-740.45,-523.79L-669.05,-504.25L-673.95,-486.34L-660.81,-482.74L-644.74,-541.45L-765.78,-574.58L-776.94,-533.78L-756.54,-528.20L-781.73,-436.17L-802.13,-441.75L-811.07,-409.11L-688.44,-375.55L-674.23,-427.46ZM-562.87,-341.18C-553.80,-338.70 -546.59,-340.14 -541.08,-344.23L-533.39,-372.34C-540.40,-367.19 -546.63,-366.70 -553.65,-368.63C-559.09,-370.12 -563.11,-374.14 -563.49,-379.85L-553.69,-415.66C-542.21,-457.59 -552.38,-474.75 -583.21,-483.19C-600.21,-487.84 -615.91,-486.54 -627.32,-478.69L-634.41,-449.21C-626.31,-454.78 -613.30,-457.80 -594.04,-452.53C-572.73,-446.70 -565.18,-435.13 -569.87,-413.51C-577.59,-422.69 -592.90,-429.07 -603.56,-431.99C-630.53,-439.37 -653.04,-429.21 -659.56,-405.41C-665.58,-383.42 -654.38,-363.79 -622.20,-354.98C-607.46,-350.95 -591.51,-353.16 -581.51,-359.44C-579.14,-350.26 -572.62,-343.85 -562.87,-341.18ZM-614.21,-383.25C-635.29,-389.02 -642.81,-397.17 -640.08,-407.14C-637.23,-417.57 -626.09,-420.86 -603.88,-414.78C-591.19,-411.30 -581.92,-405.11 -574.55,-395.54L-577.71,-383.98C-586.83,-379.17 -600.16,-379.41 -614.21,-383.25ZM-519.38,-363.87L-528.31,-331.24C-521.91,-329.72 -484.51,-319.49 -471.88,-315.79L-462.94,-348.43L-483.34,-354.01L-474.47,-386.42C-470.13,-402.29 -459.55,-408.90 -448.44,-405.86C-438.24,-403.06 -433.48,-399.08 -432.38,-392.44L-413.47,-427.71C-417.99,-434.31 -422.28,-439.14 -433.16,-442.12C-442.45,-444.66 -455.52,-441.42 -464.46,-429.24L-467.32,-449.03L-494.07,-456.35L-504.24,-419.18C-498.80,-417.69 -492.39,-416.18 -483.16,-413.41L-498.30,-358.11ZM-350.54,-296.22L-350.39,-320.79C-355.13,-317.70 -363.71,-316.64 -373.17,-319.47C-384.21,-322.74 -390.37,-330.51 -385.90,-346.83L-375.85,-383.55L-341.85,-374.24L-332.17,-409.60L-366.17,-418.91L-358.11,-448.38L-372.84,-452.41L-380.90,-422.94L-398.81,-427.84L-408.49,-392.48L-390.58,-387.58L-404.91,-335.22C-412.42,-307.80 -402.11,-294.74 -384.43,-289.90C-371.51,-286.37 -357.10,-288.27 -350.54,-296.22ZM-273.87,-262.08L-264.94,-294.72L-287.61,-300.92L-278.61,-333.79C-268.38,-348.04 -254.11,-351.20 -236.88,-346.49C-217.62,-341.22 -210.27,-328.00 -216.54,-305.10L-222.56,-283.12L-246.58,-289.69L-255.52,-257.06L-195.90,-240.74L-186.97,-273.38L-208.28,-279.21L-198.35,-315.48C-186.25,-359.68 -194.93,-376.91 -222.36,-384.42C-240.95,-389.51 -257.75,-385.09 -268.19,-371.87L-247.03,-449.16L-283.98,-459.27L-294.84,-419.61L-272.40,-413.47L-302.11,-304.89L-324.55,-311.04L-333.49,-278.40ZM-73.95,-241.23C-67.06,-266.38 -76.12,-279.58 -107.66,-291.63C-127.05,-299.13 -132.51,-305.01 -130.89,-310.90C-128.60,-319.29 -117.05,-323.19 -100.05,-318.54C-81.01,-313.33 -75.41,-306.19 -73.34,-296.85L-62.69,-293.94L-51.33,-335.42L-61.99,-338.33L-64.66,-328.59C-70.99,-338.36 -83.19,-346.33 -95.66,-349.74C-119.00,-356.13 -139.27,-347.06 -145.10,-325.75C-152.42,-299.01 -142.15,-286.69 -113.49,-275.68C-94.78,-268.37 -87.74,-262.05 -89.41,-255.93C-91.52,-248.23 -101.77,-243.72 -122.17,-249.31C-142.57,-254.89 -144.25,-263.88 -148.80,-274.87L-159.00,-277.66L-170.97,-233.91L-160.77,-231.12L-157.30,-243.82C-152.24,-232.93 -140.99,-223.27 -126.03,-219.18C-98.83,-211.73 -79.53,-220.83 -73.95,-241.23ZM21.87,-194.29L22.02,-218.86C17.27,-215.77 8.70,-214.71 -0.76,-217.54C-11.80,-220.80 -17.96,-228.58 -13.49,-244.90L-3.44,-281.62L30.56,-272.31L40.24,-307.67L6.24,-316.98L14.30,-346.45L-0.43,-350.48L-8.50,-321.01L-26.40,-325.91L-36.08,-290.55L-18.18,-285.65L-32.51,-233.29C-40.01,-205.87 -29.70,-192.81 -12.02,-187.97C0.90,-184.44 15.31,-186.34 21.87,-194.29ZM47.73,-208.65L38.80,-176.01C45.20,-174.50 82.60,-164.27 95.23,-160.56L104.17,-193.20L83.77,-198.79L92.64,-231.20C96.98,-247.07 107.56,-253.67 118.67,-250.63C128.87,-247.84 133.63,-243.86 134.73,-237.22L153.65,-272.49C149.12,-279.09 144.83,-283.92 133.95,-286.89C124.66,-289.44 111.59,-286.19 102.66,-274.02L99.79,-293.81L73.04,-301.13L62.87,-263.96C68.31,-262.47 74.72,-260.96 83.95,-258.19L68.81,-202.88ZM188.58,-133.07C218.95,-124.75 245.86,-137.61 257.77,-181.13C270.98,-229.41 254.99,-253.77 223.94,-262.26C193.11,-270.70 166.72,-257.95 153.51,-209.67C141.59,-166.15 158.43,-141.32 188.58,-133.07ZM196.46,-161.85C175.38,-167.62 159.87,-180.39 166.88,-206.01C171.22,-221.87 188.13,-231.13 213.52,-224.19C239.13,-217.17 248.80,-200.88 244.40,-184.79C237.45,-159.40 217.54,-156.08 196.46,-161.85ZM275.13,-146.65L266.20,-114.01C272.61,-112.50 310.01,-102.27 322.64,-98.57L331.57,-131.20L311.40,-136.73L320.52,-170.05C330.98,-184.24 345.70,-187.27 362.93,-182.56C384.23,-176.73 389.99,-163.94 383.67,-140.82L377.59,-118.61L355.60,-124.63L346.67,-91.99C356.25,-89.61 380.89,-82.62 403.56,-76.42L412.49,-109.06L391.87,-114.70L401.79,-150.97C413.95,-195.39 404.82,-212.76 374.67,-221.01C357.67,-225.66 339.07,-220.03 329.83,-204.05L336.65,-228.98L300.38,-238.90L290.21,-201.73C294.35,-200.84 302.97,-198.48 311.81,-196.06L296.67,-140.76ZM530.33,-41.96C539.39,-39.48 546.61,-40.92 552.11,-45.01L559.81,-73.12C552.79,-67.97 546.57,-67.49 539.54,-69.41C534.10,-70.90 530.09,-74.92 529.70,-80.63L539.50,-116.44C550.98,-158.38 540.81,-175.53 509.99,-183.97C492.99,-188.62 477.28,-187.32 465.88,-179.48L458.78,-149.99C466.89,-155.57 479.89,-158.58 499.16,-153.31C520.47,-147.48 528.02,-135.91 523.32,-114.29C515.60,-123.47 500.29,-129.86 489.64,-132.77C462.67,-140.15 440.15,-129.99 433.64,-106.19C427.62,-84.21 438.81,-64.58 471.00,-55.77C485.73,-51.73 501.69,-53.94 511.69,-60.22C514.05,-51.05 520.58,-44.63 530.33,-41.96ZM478.98,-84.04C457.90,-89.81 450.39,-97.95 453.12,-107.93C455.97,-118.35 467.10,-121.64 489.31,-115.56C502.01,-112.09 511.28,-105.90 518.65,-96.33L515.48,-84.77C506.37,-79.95 493.03,-80.19 478.98,-84.04ZM659.30,-6.66L659.23,-6.44L694.37,3.18L703.53,-29.40L681.99,-35.29L697.13,-90.60C705.52,-88.30 713.16,-85.97 717.70,-84.73L727.87,-121.90L669.85,-137.78L659.67,-100.61C662.39,-99.86 671.75,-97.55 682.40,-94.63L672.22,-57.46C663.31,-46.25 648.22,-41.86 630.99,-46.57C607.65,-52.96 603.16,-64.18 610.24,-90.02L616.44,-112.68C625.28,-110.26 633.38,-107.80 637.91,-106.56L648.09,-143.74L590.06,-159.62L579.89,-122.45C582.61,-121.70 591.73,-119.45 601.93,-116.65L592.01,-80.39C581.03,-40.27 593.40,-22.26 618.56,-15.38C638.05,-10.04 654.32,-16.07 663.62,-26.92ZM796.83,17.82L796.98,-6.74C792.23,-3.66 783.66,-2.59 774.20,-5.42C763.16,-8.69 757.00,-16.47 761.47,-32.79L771.52,-69.51L805.52,-60.20L815.20,-95.56L781.20,-104.87L789.26,-134.33L774.53,-138.36L766.46,-108.90L748.56,-113.80L738.88,-78.44L756.79,-73.54L742.45,-21.18C734.95,6.25 745.26,19.30 762.94,24.14C775.86,27.68 790.27,25.77 796.83,17.82ZM-55.19,-2.19C-48.31,-27.35 -57.36,-40.55 -88.91,-52.60C-108.30,-60.10 -113.75,-65.98 -112.14,-71.87C-109.84,-80.26 -98.30,-84.16 -81.30,-79.51C-62.26,-74.30 -56.66,-67.16 -54.59,-57.82L-43.93,-54.91L-32.58,-96.39L-43.23,-99.30L-45.90,-89.55C-52.24,-99.33 -64.43,-107.30 -76.90,-110.71C-100.25,-117.10 -120.52,-108.03 -126.35,-86.72C-133.67,-59.98 -123.39,-47.66 -94.74,-36.65C-76.03,-29.34 -68.98,-23.02 -70.66,-16.90C-72.77,-9.20 -83.02,-4.69 -103.42,-10.28C-123.82,-15.86 -125.50,-24.85 -130.04,-35.84L-140.24,-38.63L-152.22,5.12L-142.02,7.91L-138.54,-4.78C-133.48,6.10 -122.24,15.76 -107.28,19.85C-80.08,27.30 -60.78,18.21 -55.19,-2.19ZM43.22,-87.58C46.94,-101.18 48.96,-120.12 33.32,-124.40C17.45,-128.74 9.44,-111.93 5.59,-97.88C-1.98,-70.22 1.86,-55.77 -2.94,-26.63C-3.94,-20.33 -5.84,-11.59 -10.12,-1.31L6.65,3.28C8.27,-7.97 10.96,-16.00 13.38,-22.17C24.14,-49.92 35.77,-60.38 43.22,-87.58ZM5.45,37.06C8.12,27.32 3.50,21.91 -6.02,19.31C-16.67,16.39 -23.23,18.98 -25.83,28.50C-28.19,37.12 -23.64,42.75 -13.21,45.60C-3.92,48.14 3.09,45.68 5.45,37.06Z" fill="#ffffff" stroke="#000000"/>
    <path d="M-666.58,-455.37L-672.64,-436.56L-743.90,-459.52L-730.85,-500.02L-681.28,-484.05L-687.62,-464.35L-677.00,-460.93L-660.67,-511.61L-671.30,-515.03L-677.28,-496.44L-726.85,-512.41L-714.95,-549.37L-645.24,-526.91L-650.87,-509.43L-638.04,-505.29L-619.57,-562.61L-737.74,-600.68L-750.58,-560.85L-730.66,-554.43L-759.61,-464.58L-779.52,-471.00L-789.79,-439.14L-670.07,-400.56L-653.74,-451.24ZM-547.47,-361.06C-538.62,-358.21 -531.43,-359.31 -525.80,-363.12L-516.96,-390.56C-524.12,-385.78 -530.29,-385.57 -537.15,-387.78C-542.46,-389.49 -546.26,-393.65 -546.39,-399.31L-535.12,-434.27C-521.93,-475.21 -531.22,-492.62 -561.32,-502.31C-577.92,-507.66 -593.50,-507.06 -605.12,-499.81L-613.43,-470.98C-605.17,-476.14 -592.18,-478.55 -573.37,-472.49C-552.57,-465.78 -545.61,-454.02 -551.21,-432.86C-558.44,-442.27 -573.28,-449.25 -583.69,-452.60C-610.02,-461.09 -632.72,-452.04 -640.21,-428.80C-647.12,-407.34 -636.92,-387.44 -605.50,-377.31C-591.12,-372.68 -575.25,-374.16 -565.09,-379.93C-563.16,-370.76 -556.99,-364.13 -547.47,-361.06ZM-596.37,-404.91C-616.95,-411.54 -624.02,-419.92 -620.88,-429.66C-617.60,-439.84 -606.45,-442.60 -584.76,-435.61C-572.37,-431.62 -563.48,-425.09 -556.62,-415.30L-560.26,-404.02C-569.48,-399.66 -582.65,-400.48 -596.37,-404.91ZM-503.49,-381.58L-513.76,-349.71C-507.49,-347.93 -470.97,-336.17 -458.65,-331.96L-448.39,-363.82L-468.30,-370.24L-458.11,-401.88C-453.12,-417.38 -442.37,-423.44 -431.52,-419.95C-421.57,-416.74 -417.04,-412.59 -416.24,-405.98L-395.99,-440.01C-400.18,-446.73 -404.20,-451.69 -414.82,-455.11C-423.89,-458.04 -436.95,-455.40 -446.32,-443.77L-448.28,-463.45L-474.40,-471.87L-486.09,-435.57C-480.78,-433.86 -474.51,-432.09 -465.51,-428.94L-482.91,-374.94ZM-339.59,-307.27L-338.36,-331.55C-343.18,-328.70 -351.71,-328.03 -360.93,-331.25C-371.70,-334.96 -377.44,-342.92 -372.31,-358.85L-360.76,-394.70L-327.56,-384.01L-316.44,-418.53L-349.64,-429.22L-340.37,-457.99L-354.75,-462.63L-364.02,-433.86L-381.50,-439.49L-392.62,-404.97L-375.14,-399.34L-391.61,-348.22C-400.24,-321.44 -390.62,-308.08 -373.36,-302.52C-360.75,-298.46 -346.42,-299.70 -339.59,-307.27ZM-265.32,-270.15L-255.05,-302.02L-277.18,-309.15L-266.84,-341.24C-256.10,-354.87 -241.86,-357.37 -225.04,-351.95C-206.23,-345.89 -199.55,-332.50 -206.75,-310.15L-213.67,-288.69L-237.13,-296.24L-247.39,-264.38L-189.19,-245.62L-178.92,-277.49L-199.73,-284.19L-188.32,-319.60C-174.41,-362.75 -182.24,-380.17 -209.01,-388.80C-227.16,-394.65 -243.96,-391.02 -254.86,-378.42L-230.55,-453.88L-266.62,-465.50L-279.10,-426.77L-257.19,-419.71L-291.34,-313.71L-313.25,-320.77L-323.52,-288.90ZM-68.63,-240.73C-60.72,-265.30 -69.09,-278.74 -99.74,-292.04C-118.57,-300.30 -123.70,-306.35 -121.85,-312.11C-119.21,-320.30 -107.63,-323.65 -91.03,-318.30C-72.44,-312.31 -67.22,-305.01 -65.58,-295.69L-55.18,-292.34L-42.13,-332.84L-52.53,-336.19L-55.60,-326.67C-61.43,-336.61 -73.14,-345.02 -85.31,-348.95C-108.10,-356.29 -128.53,-348.22 -135.24,-327.41C-143.65,-301.30 -134.04,-288.68 -106.20,-276.53C-88.03,-268.48 -81.34,-261.93 -83.27,-255.95C-85.69,-248.43 -96.02,-244.43 -115.94,-250.85C-135.85,-257.26 -137.12,-266.22 -141.13,-277.28L-151.09,-280.49L-164.85,-237.78L-154.89,-234.57L-150.90,-246.97C-146.38,-235.98 -135.69,-225.94 -121.08,-221.24C-94.53,-212.68 -75.05,-220.82 -68.63,-240.73ZM24.01,-190.12L25.23,-214.40C20.41,-211.56 11.89,-210.88 2.66,-214.10C-8.11,-217.81 -13.85,-225.77 -8.72,-241.70L2.83,-277.55L36.03,-266.86L47.15,-301.38L13.96,-312.08L23.23,-340.85L8.84,-345.48L-0.43,-316.71L-17.91,-322.34L-29.03,-287.82L-11.55,-282.19L-28.02,-231.07C-36.65,-204.29 -27.03,-190.93 -9.77,-185.37C2.85,-181.31 17.17,-182.56 24.01,-190.12ZM50.20,-203.18L39.93,-171.31C46.20,-169.54 82.71,-157.77 95.03,-153.56L105.30,-185.43L85.38,-191.84L95.58,-223.49C100.57,-238.98 111.32,-245.04 122.16,-241.55C132.12,-238.34 136.65,-234.20 137.45,-227.59L157.69,-261.61C153.51,-268.34 149.49,-273.29 138.87,-276.72C129.79,-279.64 116.73,-277.01 107.36,-265.37L105.40,-285.06L79.29,-293.47L67.59,-257.18C72.91,-255.47 79.17,-253.69 88.18,-250.55L70.78,-196.55ZM186.08,-122.27C215.73,-112.72 242.90,-124.24 256.59,-166.73C271.77,-213.87 257.04,-238.64 226.72,-248.41C196.62,-258.11 169.98,-246.66 154.79,-199.53C141.10,-157.04 156.65,-131.75 186.08,-122.27ZM195.13,-150.38C174.55,-157.01 159.79,-170.31 167.85,-195.32C172.84,-210.81 189.96,-219.22 214.74,-211.23C239.75,-203.18 248.59,-186.65 243.53,-170.94C235.54,-146.15 215.72,-143.75 195.13,-150.38ZM272.23,-131.89L261.96,-100.02C268.23,-98.25 304.74,-86.48 317.07,-82.27L327.33,-114.13L307.64,-120.48L318.12,-153.01C329.08,-166.58 343.77,-168.93 360.58,-163.51C381.39,-156.81 386.52,-143.92 379.24,-121.35L372.26,-99.66L350.79,-106.58L340.52,-74.71C349.89,-71.94 373.94,-63.94 396.07,-56.81L406.34,-88.68L386.20,-95.17L397.61,-130.58C411.58,-173.95 403.32,-191.51 373.88,-201.00C357.29,-206.34 338.66,-201.60 328.81,-186.20L336.66,-210.55L301.25,-221.96L289.56,-185.66C293.61,-184.60 302.02,-181.89 310.65,-179.11L293.25,-125.11ZM519.84,-17.18C528.70,-14.32 535.89,-15.43 541.51,-19.23L550.36,-46.67C543.20,-41.90 537.02,-41.69 530.16,-43.90C524.85,-45.61 521.06,-49.76 520.93,-55.42L532.20,-90.39C545.39,-131.33 536.09,-148.73 506.00,-158.43C489.40,-163.78 473.82,-163.18 462.20,-155.93L453.89,-127.10C462.15,-132.25 475.14,-134.66 493.95,-128.60C514.75,-121.90 521.70,-110.13 516.11,-88.97C508.88,-98.39 494.03,-105.37 483.63,-108.72C457.30,-117.21 434.59,-108.15 427.11,-84.92C420.19,-63.45 430.39,-43.56 461.82,-33.43C476.20,-28.80 492.07,-30.28 502.23,-36.04C504.16,-26.87 510.33,-20.24 519.84,-17.18ZM470.95,-61.02C450.37,-67.65 443.30,-76.04 446.44,-85.77C449.72,-95.95 460.86,-98.71 482.55,-91.73C494.94,-87.73 503.83,-81.20 510.70,-71.42L507.06,-60.13C497.84,-55.78 484.67,-56.60 470.95,-61.02ZM645.76,23.39L645.69,23.61L679.99,34.67L690.48,2.87L669.46,-3.90L686.86,-57.90C695.04,-55.26 702.50,-52.62 706.92,-51.19L718.62,-87.48L661.96,-105.74L650.27,-69.44C652.93,-68.59 662.07,-65.88 672.47,-62.53L660.78,-26.24C651.47,-15.56 636.36,-11.88 619.55,-17.30C596.75,-24.64 592.82,-35.92 600.94,-61.15L608.07,-83.28C616.70,-80.50 624.60,-77.71 629.03,-76.29L640.72,-112.58L584.07,-130.83L572.37,-94.54C575.03,-93.68 583.95,-91.05 593.91,-87.85L582.50,-52.44C569.88,-13.27 581.32,5.07 605.88,12.99C624.91,19.12 641.26,13.88 650.93,3.56ZM780.62,53.65L781.85,29.38C777.02,32.22 768.50,32.89 759.28,29.68C748.51,25.96 742.76,18.01 747.90,2.07L759.45,-33.78L792.64,-23.08L803.77,-57.60L770.57,-68.30L779.84,-97.07L765.46,-101.70L756.19,-72.93L738.70,-78.57L727.58,-44.04L745.06,-38.41L728.59,12.71C719.97,39.48 729.59,52.84 746.85,58.40C759.46,62.47 773.79,61.22 780.62,53.65ZM-60.62,-3.65C-52.71,-28.22 -61.08,-41.66 -91.73,-54.96C-110.56,-63.22 -115.69,-69.27 -113.84,-75.03C-111.20,-83.22 -99.62,-86.57 -83.02,-81.22C-64.43,-75.23 -59.21,-67.93 -57.57,-58.61L-47.17,-55.26L-34.12,-95.76L-44.52,-99.11L-47.59,-89.59C-53.43,-99.53 -65.13,-107.94 -77.30,-111.87C-100.09,-119.21 -120.53,-111.14 -127.23,-90.33C-135.64,-64.22 -126.03,-51.60 -98.19,-39.45C-80.02,-31.40 -73.34,-24.85 -75.26,-18.87C-77.68,-11.35 -88.01,-7.35 -107.93,-13.77C-127.85,-20.18 -129.11,-29.14 -133.12,-40.20L-143.08,-43.41L-156.84,-0.70L-146.88,2.51L-142.89,-9.89C-138.37,1.10 -127.68,11.14 -113.07,15.84C-86.52,24.40 -67.04,16.26 -60.62,-3.65ZM40.41,-83.71C44.68,-96.99 47.51,-115.62 32.24,-120.54C16.75,-125.53 8.09,-109.27 3.67,-95.55C-5.03,-68.55 -1.87,-54.10 -7.90,-25.51C-9.16,-19.32 -11.43,-10.77 -16.11,-0.79L0.27,4.48C2.36,-6.57 5.37,-14.39 8.03,-20.37C19.89,-47.33 31.85,-57.16 40.41,-83.71ZM-2.41,37.82C0.65,28.30 -3.67,22.76 -12.96,19.76C-23.36,16.41 -29.96,18.68 -32.95,27.98C-35.66,36.39 -31.41,42.15 -21.23,45.43C-12.16,48.36 -5.12,46.23 -2.41,37.82Z" fill="#ffffff" stroke="#000000"/>
    <path d="M-644.84,-478.72L-651.66,-460.40L-721.07,-486.23L-706.39,-525.67L-658.10,-507.71L-665.24,-488.52L-654.90,-484.67L-636.53,-534.04L-646.88,-537.89L-653.61,-519.78L-701.90,-537.75L-688.50,-573.74L-620.60,-548.48L-626.94,-531.45L-614.44,-526.80L-593.66,-582.63L-708.77,-625.46L-723.21,-586.66L-703.81,-579.44L-736.37,-491.92L-755.77,-499.14L-767.32,-468.10L-650.71,-424.71L-632.34,-474.07ZM-531.28,-380.27C-522.66,-377.06 -515.50,-377.83 -509.78,-381.35L-499.83,-408.08C-507.12,-403.67 -513.23,-403.74 -519.91,-406.22C-525.08,-408.15 -528.65,-412.42 -528.53,-418.02L-515.85,-452.08C-501.02,-491.96 -509.43,-509.57 -538.75,-520.47C-554.92,-526.49 -570.34,-526.59 -582.14,-519.93L-591.63,-491.81C-583.24,-496.54 -570.30,-498.35 -551.97,-491.53C-531.71,-483.99 -525.35,-472.05 -531.82,-451.39C-538.54,-461.01 -552.91,-468.56 -563.04,-472.33C-588.69,-481.88 -611.53,-473.93 -619.95,-451.30C-627.73,-430.39 -618.53,-410.28 -587.92,-398.89C-573.91,-393.67 -558.16,-394.44 -547.86,-399.69C-546.36,-390.54 -540.55,-383.72 -531.28,-380.27ZM-577.68,-425.75C-597.72,-433.21 -604.34,-441.81 -600.81,-451.29C-597.12,-461.21 -585.98,-463.45 -564.86,-455.59C-552.79,-451.09 -544.29,-444.25 -537.94,-434.28L-542.03,-423.29C-551.33,-419.39 -564.31,-420.78 -577.68,-425.75ZM-486.91,-398.61L-498.46,-367.57C-492.35,-365.54 -456.78,-352.30 -444.79,-347.59L-433.24,-378.64L-452.64,-385.85L-441.17,-416.68C-435.56,-431.77 -424.67,-437.29 -414.10,-433.36C-404.40,-429.75 -400.11,-425.45 -399.61,-418.89L-378.11,-451.62C-381.95,-458.45 -385.70,-463.53 -396.05,-467.38C-404.89,-470.67 -417.91,-468.64 -427.68,-457.55L-428.75,-477.09L-454.19,-486.56L-467.34,-451.20C-462.17,-449.28 -456.05,-447.25 -447.30,-443.75L-466.87,-391.15ZM-328.21,-317.96L-325.93,-341.90C-330.82,-339.30 -339.27,-339.01 -348.24,-342.59C-358.73,-346.74 -364.05,-354.85 -358.27,-370.37L-345.28,-405.30L-312.95,-393.26L-300.43,-426.89L-332.77,-438.92L-322.34,-466.95L-336.35,-472.16L-346.78,-444.14L-363.81,-450.47L-376.32,-416.85L-359.29,-410.51L-377.82,-360.71C-387.53,-334.63 -378.61,-321.01 -361.79,-314.75C-349.51,-310.18 -335.29,-310.78 -328.21,-317.96ZM-256.44,-278.00L-244.89,-309.04L-266.45,-317.07L-254.82,-348.32C-243.60,-361.33 -229.42,-363.17 -213.04,-357.07C-194.71,-350.25 -188.70,-336.73 -196.80,-314.95L-204.58,-294.05L-227.43,-302.55L-238.98,-271.51L-182.29,-250.41L-170.74,-281.45L-191.00,-288.99L-178.17,-323.48C-162.53,-365.52 -169.49,-383.08 -195.58,-392.78C-213.25,-399.36 -230.02,-396.52 -241.35,-384.54L-213.99,-458.04L-249.13,-471.12L-263.17,-433.39L-241.83,-425.45L-280.25,-322.20L-301.59,-330.14L-313.14,-299.10ZM-63.36,-240.27C-54.46,-264.20 -62.14,-277.85 -91.84,-292.34C-110.09,-301.34 -114.90,-307.55 -112.81,-313.15C-109.84,-321.13 -98.25,-323.93 -82.08,-317.91C-63.97,-311.17 -59.14,-303.73 -57.93,-294.45L-47.80,-290.68L-33.12,-330.12L-43.25,-333.89L-46.70,-324.62C-52.03,-334.71 -63.22,-343.53 -75.08,-347.95C-97.28,-356.21 -117.83,-349.13 -125.37,-328.87C-134.83,-303.43 -125.89,-290.53 -98.91,-277.30C-81.31,-268.54 -74.99,-261.78 -77.16,-255.96C-79.89,-248.63 -90.27,-245.13 -109.67,-252.35C-129.07,-259.57 -129.93,-268.47 -133.40,-279.58L-143.10,-283.19L-158.58,-241.59L-148.88,-237.98L-144.39,-250.05C-140.40,-239.00 -130.28,-228.61 -116.05,-223.31C-90.19,-213.69 -70.58,-220.87 -63.36,-240.27ZM25.96,-186.17L28.24,-210.11C23.35,-207.52 14.90,-207.22 5.92,-210.81C-4.56,-214.95 -9.88,-223.07 -4.11,-238.59L8.89,-273.51L41.22,-261.48L53.73,-295.11L21.40,-307.14L31.83,-335.16L17.81,-340.38L7.39,-312.35L-9.64,-318.69L-22.15,-285.06L-5.13,-278.73L-23.65,-228.93C-33.36,-202.85 -24.44,-189.22 -7.63,-182.97C4.66,-178.39 18.87,-179.00 25.96,-186.17ZM52.42,-197.93L40.87,-166.88C46.98,-164.85 82.55,-151.62 94.54,-146.91L106.09,-177.95L86.69,-185.17L98.16,-216.00C103.78,-231.09 114.67,-236.61 125.23,-232.68C134.93,-229.07 139.22,-224.77 139.72,-218.20L161.23,-250.94C157.39,-257.77 153.63,-262.84 143.29,-266.69C134.45,-269.98 121.42,-267.96 111.65,-256.87L110.58,-276.41L85.14,-285.87L71.99,-250.52C77.16,-248.60 83.28,-246.57 92.04,-243.06L72.47,-190.47ZM183.14,-111.98C212.03,-101.23 239.38,-111.42 254.78,-152.81C271.87,-198.73 258.40,-223.86 228.86,-234.85C199.55,-245.76 172.71,-235.62 155.62,-189.71C140.22,-148.32 154.47,-122.65 183.14,-111.98ZM193.33,-139.36C173.28,-146.82 159.28,-160.62 168.34,-184.98C173.96,-200.07 191.25,-207.62 215.39,-198.64C239.75,-189.57 247.76,-172.85 242.06,-157.54C233.08,-133.40 213.38,-131.90 193.33,-139.36ZM268.71,-117.69L257.16,-86.65C263.27,-84.62 298.84,-71.39 310.83,-66.68L322.38,-97.72L303.20,-104.86L314.99,-136.55C326.42,-149.47 341.04,-151.15 357.42,-145.05C377.68,-137.51 382.18,-124.55 374.00,-102.56L366.14,-81.44L345.23,-89.22L333.68,-58.18C342.81,-55.02 366.23,-46.06 387.79,-38.04L399.34,-69.08L379.72,-76.38L392.55,-110.87C408.28,-153.12 400.88,-170.84 372.21,-181.51C356.04,-187.53 337.43,-183.66 327.02,-168.88L335.84,-192.59L301.35,-205.42L288.20,-170.07C292.16,-168.84 300.35,-165.80 308.76,-162.67L289.19,-110.07ZM508.37,6.58C516.99,9.79 524.15,9.01 529.87,5.50L539.82,-21.23C532.53,-16.82 526.42,-16.89 519.74,-19.38C514.57,-21.30 511.00,-25.57 511.12,-31.17L523.80,-65.23C538.63,-105.11 530.22,-122.72 500.90,-133.63C484.73,-139.64 469.31,-139.74 457.51,-133.09L448.02,-104.96C456.41,-109.69 469.35,-111.50 487.68,-104.68C507.94,-97.14 514.30,-85.21 507.83,-64.54C501.11,-74.16 486.74,-81.72 476.61,-85.49C450.96,-95.03 428.12,-87.09 419.70,-64.45C411.92,-43.54 421.12,-23.43 451.73,-12.04C465.74,-6.83 481.49,-7.59 491.79,-12.84C493.29,-3.69 499.10,3.13 508.37,6.58ZM461.97,-38.91C441.93,-46.37 435.31,-54.96 438.84,-64.45C442.53,-74.36 453.67,-76.60 474.79,-68.74C486.86,-64.25 495.36,-57.40 501.71,-47.43L497.62,-36.44C488.32,-32.54 475.34,-33.93 461.97,-38.91ZM631.02,52.22L630.94,52.43L664.35,64.86L676.12,33.90L655.64,26.28L675.21,-26.31C683.19,-23.35 690.43,-20.40 694.75,-18.80L707.90,-54.15L652.72,-74.68L639.56,-39.33C642.15,-38.37 651.07,-35.30 661.20,-31.53L648.04,3.83C638.38,13.97 623.28,16.94 606.90,10.85C584.70,2.59 581.31,-8.74 590.45,-33.31L598.47,-54.87C606.88,-51.74 614.56,-48.64 618.87,-47.03L632.02,-82.38L576.84,-102.92L563.68,-67.57C566.27,-66.60 574.97,-63.61 584.67,-60.00L571.84,-25.51C557.64,12.64 568.14,31.27 592.06,40.17C610.60,47.07 626.98,42.62 637.00,32.85ZM762.96,88.06L765.24,64.12C760.35,66.72 751.90,67.01 742.93,63.43C732.44,59.28 727.12,51.16 732.89,35.64L745.89,0.72L778.22,12.75L790.74,-20.87L758.40,-32.91L768.83,-60.93L754.82,-66.14L744.39,-38.12L727.36,-44.46L714.85,-10.83L731.88,-4.49L713.35,45.30C703.64,71.39 712.56,85.01 729.38,91.27C741.66,95.84 755.87,95.24 762.96,88.06ZM-65.89,-5.62C-56.98,-29.55 -64.66,-43.20 -94.37,-57.69C-112.61,-66.69 -117.42,-72.89 -115.34,-78.50C-112.37,-86.48 -100.77,-89.28 -84.61,-83.26C-66.50,-76.52 -61.66,-69.08 -60.45,-59.80L-50.32,-56.03L-35.64,-95.47L-45.77,-99.24L-49.22,-89.97C-54.55,-100.06 -65.75,-108.88 -77.60,-113.29C-99.80,-121.56 -120.35,-114.48 -127.89,-94.22C-137.36,-68.78 -128.41,-55.88 -101.43,-42.65C-83.83,-33.89 -77.52,-27.13 -79.68,-21.31C-82.41,-13.98 -92.79,-10.48 -112.19,-17.70C-131.59,-24.91 -132.45,-33.82 -135.92,-44.93L-145.62,-48.54L-161.10,-6.94L-151.40,-3.33L-146.91,-15.40C-142.93,-4.35 -132.81,6.05 -118.58,11.34C-92.71,20.96 -73.11,13.78 -65.89,-5.62ZM37.48,-80.29C42.30,-93.22 45.91,-111.51 31.04,-117.04C15.95,-122.66 6.67,-106.97 1.70,-93.60C-8.09,-67.31 -5.60,-52.88 -12.82,-24.89C-14.34,-18.83 -16.96,-10.48 -22.02,-0.83L-6.07,5.10C-3.51,-5.72 -0.20,-13.32 2.70,-19.12C15.61,-45.24 27.86,-54.42 37.48,-80.29ZM-10.19,37.93C-6.74,28.66 -10.76,22.99 -19.82,19.62C-29.95,15.85 -36.57,17.81 -39.93,26.86C-42.98,35.05 -39.04,40.94 -29.12,44.63C-20.28,47.91 -13.23,46.12 -10.19,37.93Z" fill="#ffffff" stroke="#000000"/>
    <path d="M-622.21,-501.06L-629.76,-483.25L-697.21,-511.83L-680.97,-550.16L-634.04,-530.28L-641.94,-511.64L-631.89,-507.38L-611.57,-555.35L-621.62,-559.61L-629.08,-542.01L-676.00,-561.89L-661.18,-596.88L-595.19,-568.92L-602.20,-552.37L-590.05,-547.22L-567.07,-601.48L-678.93,-648.87L-694.90,-611.16L-676.05,-603.18L-712.08,-518.13L-730.93,-526.12L-743.71,-495.95L-630.39,-447.94L-610.06,-495.91ZM-514.34,-398.77C-505.96,-395.22 -498.85,-395.67 -493.04,-398.89L-482.04,-424.87C-489.43,-420.83 -495.46,-421.17 -501.96,-423.92C-506.98,-426.05 -510.32,-430.42 -509.95,-435.95L-495.93,-469.05C-479.51,-507.80 -487.05,-525.57 -515.54,-537.64C-531.25,-544.30 -546.49,-545.07 -558.44,-539.02L-569.05,-511.64C-560.56,-515.95 -547.69,-517.17 -529.88,-509.62C-510.19,-501.28 -504.44,-489.21 -511.73,-469.07C-517.96,-478.88 -531.82,-486.97 -541.67,-491.14C-566.59,-501.71 -589.51,-494.86 -598.83,-472.86C-607.44,-452.55 -599.23,-432.27 -569.48,-419.66C-555.86,-413.89 -540.27,-413.96 -529.87,-418.69C-528.78,-409.59 -523.35,-402.59 -514.34,-398.77ZM-558.18,-445.76C-577.66,-454.01 -583.82,-462.80 -579.91,-472.02C-575.83,-481.65 -564.73,-483.37 -544.20,-474.67C-532.47,-469.70 -524.37,-462.57 -518.53,-452.44L-523.06,-441.75C-532.43,-438.31 -545.19,-440.26 -558.18,-445.76ZM-469.69,-414.94L-482.47,-384.77C-476.51,-382.50 -441.95,-367.86 -430.31,-362.68L-417.53,-392.84L-436.38,-400.83L-423.69,-430.78C-417.48,-445.45 -406.47,-450.42 -396.21,-446.07C-386.78,-442.08 -382.73,-437.64 -382.53,-431.13L-359.83,-462.53C-363.33,-469.45 -366.81,-474.63 -376.87,-478.89C-385.46,-482.53 -398.42,-481.10 -408.56,-470.58L-408.76,-489.93L-433.48,-500.40L-448.03,-466.05C-443.00,-463.92 -437.05,-461.65 -428.55,-457.80L-450.21,-406.69ZM-316.41,-328.26L-313.10,-351.81C-318.05,-349.46 -326.42,-349.54 -335.13,-353.48C-345.30,-358.04 -350.20,-366.29 -343.81,-381.38L-329.44,-415.31L-298.02,-402.00L-284.17,-434.68L-315.59,-447.99L-304.05,-475.22L-317.67,-480.99L-329.21,-453.76L-345.76,-460.77L-359.60,-428.09L-343.05,-421.08L-363.55,-372.69C-374.29,-347.34 -366.08,-333.49 -349.74,-326.57C-337.80,-321.51 -323.73,-321.48 -316.41,-328.26ZM-247.26,-285.62L-234.48,-315.78L-255.43,-324.66L-242.56,-355.03C-230.90,-367.39 -216.80,-368.58 -200.88,-361.83C-183.08,-354.29 -177.73,-340.66 -186.70,-319.50L-195.31,-299.18L-217.51,-308.59L-230.29,-278.43L-175.20,-255.09L-162.42,-285.25L-182.11,-293.59L-167.91,-327.11C-150.60,-367.96 -156.71,-385.62 -182.06,-396.36C-199.23,-403.63 -215.92,-401.56 -227.65,-390.22L-197.38,-461.65L-231.53,-476.12L-247.06,-439.46L-226.32,-430.67L-268.83,-330.34L-289.57,-339.12L-302.35,-308.96ZM-58.12,-239.83C-48.27,-263.08 -55.26,-276.91 -83.97,-292.54C-101.61,-302.23 -106.09,-308.58 -103.78,-314.02C-100.50,-321.77 -88.91,-324.03 -73.20,-317.38C-55.61,-309.92 -51.15,-302.35 -50.37,-293.12L-40.52,-288.95L-24.28,-327.29L-34.13,-331.46L-37.94,-322.45C-42.77,-332.65 -53.44,-341.86 -64.96,-346.74C-86.54,-355.89 -107.15,-349.80 -115.50,-330.11C-125.97,-305.39 -117.70,-292.25 -91.62,-277.99C-74.61,-268.56 -68.67,-261.59 -71.07,-255.94C-74.08,-248.81 -84.50,-245.81 -103.35,-253.80C-122.20,-261.79 -122.66,-270.63 -125.60,-281.76L-135.03,-285.75L-152.16,-245.32L-142.73,-241.33L-137.76,-253.06C-134.31,-241.96 -124.76,-231.25 -110.94,-225.39C-85.80,-214.74 -66.11,-220.98 -58.12,-239.83ZM27.76,-182.44L31.07,-205.99C26.12,-203.64 17.75,-203.73 9.04,-207.67C-1.13,-212.22 -6.04,-220.48 0.35,-235.56L14.73,-269.50L46.15,-256.18L60.00,-288.86L28.58,-302.17L40.11,-329.41L26.50,-335.17L14.96,-307.94L-1.59,-314.95L-15.43,-282.28L1.11,-275.26L-19.39,-226.88C-30.13,-201.53 -21.91,-187.67 -5.57,-180.75C6.37,-175.69 20.44,-175.66 27.76,-182.44ZM54.42,-192.89L41.64,-162.72C47.59,-160.45 82.16,-145.80 93.80,-140.63L106.58,-170.79L87.73,-178.78L100.42,-208.73C106.63,-223.40 117.63,-228.37 127.90,-224.02C137.32,-220.03 141.37,-215.59 141.58,-209.08L164.27,-240.48C160.78,-247.40 157.29,-252.58 147.24,-256.84C138.65,-260.48 125.69,-259.05 115.55,-248.52L115.35,-267.88L90.63,-278.35L76.07,-244.00C81.10,-241.87 87.06,-239.59 95.56,-235.75L73.90,-184.63ZM179.81,-102.21C207.88,-90.31 235.36,-99.18 252.40,-139.40C271.30,-184.02 259.10,-209.45 230.40,-221.61C201.91,-233.68 174.94,-224.84 156.04,-180.22C139.00,-140.01 151.95,-114.01 179.81,-102.21ZM191.08,-128.81C171.60,-137.06 158.37,-151.32 168.40,-174.99C174.61,-189.65 192.03,-196.36 215.49,-186.42C239.16,-176.39 246.34,-159.51 240.04,-144.64C230.10,-121.18 210.56,-120.56 191.08,-128.81ZM264.61,-104.08L251.83,-73.92C257.79,-71.64 292.35,-57.00 303.99,-51.82L316.77,-81.98L298.13,-89.88L311.17,-120.67C323.04,-132.94 337.56,-133.96 353.48,-127.21C373.17,-118.87 377.04,-105.86 367.99,-84.50L359.29,-63.97L338.98,-72.58L326.20,-42.41C335.08,-38.89 357.83,-29.01 378.77,-20.14L391.55,-50.30L372.49,-58.38L386.69,-91.89C404.09,-132.95 397.56,-150.79 369.70,-162.59C353.99,-169.25 335.42,-166.24 324.49,-152.10L334.25,-175.14L300.73,-189.34L286.18,-154.98C290.04,-153.60 298.00,-150.22 306.17,-146.76L284.51,-95.65ZM495.96,29.27C504.34,32.82 511.45,32.37 517.26,29.15L528.26,3.17C520.87,7.21 514.84,6.87 508.34,4.12C503.31,1.99 499.98,-2.39 500.35,-7.91L514.37,-41.01C530.79,-79.76 523.25,-97.54 494.76,-109.61C479.05,-116.26 463.81,-117.04 451.85,-110.98L441.24,-83.60C449.74,-87.91 462.61,-89.13 480.41,-81.59C500.11,-73.24 505.86,-61.17 498.57,-41.03C492.34,-50.84 478.48,-58.93 468.63,-63.11C443.70,-73.67 420.79,-66.82 411.47,-44.83C402.86,-24.51 411.07,-4.23 440.82,8.37C454.43,14.14 470.03,14.08 480.43,9.35C481.52,18.45 486.95,25.45 495.96,29.27ZM452.12,-17.72C432.64,-25.97 426.48,-34.76 430.38,-43.98C434.47,-53.61 445.57,-55.33 466.10,-46.64C477.83,-41.67 485.93,-34.53 491.76,-24.40L487.24,-13.71C477.87,-10.27 465.11,-12.22 452.12,-17.72ZM615.15,79.76L615.06,79.97L647.53,93.73L660.52,63.65L640.62,55.22L662.27,4.11C670.03,7.40 677.06,10.62 681.25,12.40L695.80,-21.96L642.18,-44.68L627.62,-10.32C630.14,-9.26 638.81,-5.83 648.66,-1.66L634.10,32.70C624.11,42.30 609.06,44.57 593.14,37.83C571.56,28.68 568.71,17.34 578.83,-6.54L587.70,-27.48C595.87,-24.02 603.32,-20.62 607.51,-18.84L622.07,-53.20L568.44,-75.92L553.89,-41.56C556.40,-40.50 564.87,-37.16 574.30,-33.16L560.10,0.35C544.39,37.43 553.93,56.30 577.19,66.15C595.20,73.78 611.59,70.10 621.91,60.89ZM743.95,120.99L747.26,97.44C742.31,99.79 733.95,99.70 725.24,95.77C715.06,91.21 710.16,82.96 716.55,67.87L730.93,33.94L762.35,47.25L776.19,14.57L744.77,1.26L756.31,-25.97L742.69,-31.74L731.15,-4.51L714.61,-11.52L700.76,21.16L717.31,28.17L696.81,76.56C686.07,101.90 694.28,115.76 710.62,122.68C722.56,127.74 736.63,127.77 743.95,120.99ZM-70.95,-8.07C-61.10,-31.32 -68.09,-45.15 -96.80,-60.78C-114.43,-70.47 -118.91,-76.82 -116.60,-82.26C-113.32,-90.01 -101.74,-92.27 -86.03,-85.62C-68.43,-78.16 -63.98,-70.59 -63.20,-61.37L-53.35,-57.19L-37.11,-95.53L-46.95,-99.70L-50.77,-90.69C-55.59,-100.89 -66.27,-110.10 -77.79,-114.99C-99.36,-124.13 -119.98,-118.04 -128.32,-98.35C-138.79,-73.63 -130.52,-60.49 -104.45,-46.23C-87.44,-36.80 -81.50,-29.83 -83.89,-24.18C-86.91,-17.06 -97.32,-14.05 -116.18,-22.04C-135.03,-30.03 -135.48,-38.87 -138.43,-50.00L-147.85,-53.99L-164.98,-13.57L-155.56,-9.57L-150.59,-21.30C-147.13,-10.20 -137.59,0.51 -123.77,6.37C-98.63,17.02 -78.94,10.78 -70.95,-8.07ZM34.48,-77.30C39.81,-89.87 44.18,-107.78 29.73,-113.91C15.07,-120.12 5.21,-105.02 -0.29,-92.04C-11.12,-66.48 -9.30,-52.12 -17.67,-24.78C-19.44,-18.86 -22.39,-10.72 -27.82,-1.41L-12.32,5.16C-9.31,-5.43 -5.70,-12.79 -2.59,-18.39C11.32,-43.63 23.83,-52.17 34.48,-77.30ZM-17.83,37.41C-14.01,28.41 -17.74,22.63 -26.54,18.90C-36.38,14.73 -43.01,16.37 -46.74,25.17C-50.11,33.13 -46.47,39.12 -36.83,43.20C-28.24,46.84 -21.20,45.37 -17.83,37.41Z" fill="#ffffff" stroke="#000000"/>
    <path d="M-598.74,-522.34L-606.98,-505.08L-672.37,-536.28L-654.63,-573.45L-609.15,-551.74L-617.77,-533.67L-608.03,-529.01L-585.83,-575.51L-595.58,-580.17L-603.72,-563.11L-649.21,-584.82L-633.02,-618.73L-569.06,-588.20L-576.71,-572.16L-564.94,-566.54L-539.84,-619.13L-648.27,-670.88L-665.71,-634.33L-647.44,-625.61L-686.78,-543.17L-705.06,-551.89L-719.01,-522.65L-609.16,-470.22L-586.97,-516.72ZM-496.66,-416.53C-488.54,-412.65 -481.50,-412.78 -475.61,-415.71L-463.60,-440.89C-471.08,-437.23 -477.03,-437.83 -483.32,-440.83C-488.20,-443.16 -491.30,-447.63 -490.69,-453.07L-475.38,-485.16C-457.45,-522.72 -464.12,-540.61 -491.74,-553.79C-506.97,-561.06 -521.99,-562.50 -534.07,-557.04L-545.76,-530.46C-537.17,-534.34 -524.40,-534.98 -507.14,-526.74C-488.05,-517.63 -482.90,-505.45 -490.99,-485.88C-496.71,-495.83 -510.05,-504.45 -519.60,-509.00C-543.76,-520.53 -566.70,-514.78 -576.88,-493.46C-586.28,-473.76 -579.06,-453.36 -550.23,-439.60C-537.03,-433.30 -521.62,-432.68 -511.13,-436.90C-510.46,-427.85 -505.40,-420.70 -496.66,-416.53ZM-537.91,-464.89C-556.79,-473.90 -562.49,-482.85 -558.23,-491.79C-553.77,-501.13 -542.72,-502.34 -522.82,-492.84C-511.45,-487.41 -503.77,-480.01 -498.45,-469.74L-503.39,-459.38C-512.79,-456.39 -525.32,-458.88 -537.91,-464.89ZM-451.83,-430.54L-465.79,-401.30C-460.01,-398.79 -426.50,-382.80 -415.23,-377.17L-401.27,-406.41L-419.55,-415.13L-405.69,-444.17C-398.91,-458.38 -387.82,-462.81 -377.87,-458.06C-368.73,-453.70 -364.92,-449.14 -365.00,-442.70L-341.20,-472.73C-344.35,-479.71 -347.57,-484.99 -357.31,-489.64C-365.64,-493.61 -378.50,-492.77 -388.99,-482.82L-388.33,-501.95L-412.30,-513.39L-428.19,-480.09C-423.31,-477.76 -417.53,-475.25 -409.30,-471.07L-432.95,-421.53ZM-304.21,-338.15L-299.90,-361.27C-304.90,-359.17 -313.16,-359.62 -321.59,-363.89C-331.44,-368.84 -335.92,-377.22 -328.95,-391.84L-313.25,-424.73L-282.79,-410.20L-267.67,-441.87L-298.13,-456.41L-285.53,-482.81L-298.73,-489.11L-311.33,-462.71L-327.37,-470.36L-342.49,-438.69L-326.45,-431.03L-348.83,-384.12C-360.56,-359.55 -353.05,-345.50 -337.21,-337.94C-325.64,-332.42 -311.74,-331.77 -304.21,-338.15ZM-237.76,-292.97L-223.81,-322.21L-244.11,-331.90L-230.06,-361.35C-218.00,-373.04 -204.02,-373.60 -188.59,-366.24C-171.33,-358.00 -166.65,-344.30 -176.43,-323.79L-185.83,-304.09L-207.36,-314.36L-221.31,-285.12L-167.91,-259.64L-153.95,-288.88L-173.04,-297.99L-157.54,-330.48C-138.64,-370.07 -143.90,-387.79 -168.47,-399.52C-185.12,-407.46 -201.70,-406.15 -213.78,-395.46L-180.73,-464.71L-213.83,-480.50L-230.79,-444.97L-210.69,-435.37L-257.11,-338.11L-277.21,-347.70L-291.17,-318.46ZM-52.91,-239.41C-42.15,-261.95 -48.45,-275.92 -76.13,-292.62C-93.12,-302.98 -97.27,-309.44 -94.75,-314.72C-91.16,-322.23 -79.62,-323.96 -64.39,-316.69C-47.33,-308.55 -43.27,-300.87 -42.90,-291.72L-33.36,-287.17L-15.62,-324.33L-25.16,-328.88L-29.33,-320.15C-33.65,-330.44 -43.79,-340.01 -54.95,-345.34C-75.87,-355.32 -96.51,-350.22 -105.62,-331.13C-117.05,-307.17 -109.46,-293.82 -84.32,-278.58C-67.93,-268.52 -62.37,-261.37 -64.99,-255.89C-68.28,-248.99 -78.70,-246.48 -96.98,-255.20C-115.25,-263.92 -115.31,-272.68 -117.73,-283.81L-126.87,-288.17L-145.57,-248.98L-136.43,-244.61L-131.01,-255.99C-128.09,-244.87 -119.13,-233.86 -105.73,-227.47C-81.36,-215.84 -61.63,-221.13 -52.91,-239.41ZM29.42,-178.93L33.73,-202.05C28.73,-199.95 20.47,-200.40 12.04,-204.67C2.19,-209.62 -2.29,-217.99 4.68,-232.61L20.38,-265.51L50.84,-250.97L65.96,-282.65L35.50,-297.19L48.10,-323.59L34.90,-329.89L22.30,-303.49L6.26,-311.14L-8.86,-279.47L7.18,-271.81L-15.20,-224.90C-26.93,-200.33 -19.42,-186.28 -3.59,-178.72C7.99,-173.20 21.89,-172.55 29.42,-178.93ZM56.22,-188.07L42.27,-158.83C48.05,-156.32 81.56,-140.33 92.83,-134.70L106.79,-163.94L88.51,-172.66L102.37,-201.70C109.15,-215.92 120.24,-220.35 130.19,-215.60C139.33,-211.24 143.14,-206.68 143.05,-200.24L166.86,-230.26C163.71,-237.25 160.49,-242.52 150.75,-247.17C142.42,-251.15 129.55,-250.31 119.07,-240.35L119.72,-259.49L95.76,-270.92L79.87,-237.62C84.74,-235.29 90.53,-232.78 98.75,-228.61L75.11,-179.06ZM176.12,-92.96C203.33,-79.97 230.87,-87.52 249.48,-126.51C270.12,-169.76 259.18,-195.42 231.36,-208.70C203.74,-221.88 176.71,-214.34 156.07,-171.09C137.46,-132.10 149.12,-105.85 176.12,-92.96ZM188.43,-118.75C169.55,-127.76 157.10,-142.42 168.05,-165.37C174.83,-179.58 192.34,-185.44 215.08,-174.59C238.03,-163.64 244.38,-146.64 237.50,-132.23C226.64,-109.48 207.32,-109.73 188.43,-118.75ZM259.99,-91.08L246.04,-61.84C251.82,-59.32 285.32,-43.33 296.60,-37.70L310.55,-66.95L292.48,-75.57L306.73,-105.42C318.99,-117.02 333.38,-117.38 348.81,-110.02C367.90,-100.91 371.16,-87.89 361.27,-67.17L351.77,-47.27L332.08,-56.67L318.12,-27.43C326.75,-23.57 348.78,-12.80 369.09,-3.11L383.05,-32.35L364.57,-41.17L380.07,-73.66C399.07,-113.46 393.40,-131.37 366.40,-144.26C351.17,-151.53 332.69,-149.37 321.26,-135.88L331.92,-158.22L299.43,-173.72L283.54,-140.42C287.29,-138.88 295.01,-135.20 302.93,-131.42L279.28,-81.87ZM482.70,50.86C490.82,54.74 497.86,54.61 503.75,51.68L515.76,26.50C508.28,30.16 502.33,29.57 496.04,26.56C491.17,24.24 488.06,19.76 488.67,14.32L503.98,-17.76C521.91,-55.33 515.24,-73.22 487.62,-86.40C472.39,-93.67 457.37,-95.11 445.30,-89.65L433.61,-63.07C442.19,-66.95 454.96,-67.59 472.22,-59.35C491.31,-50.24 496.46,-38.06 488.37,-18.48C482.65,-28.44 469.31,-37.05 459.76,-41.61C435.60,-53.14 412.66,-47.39 402.48,-26.06C393.08,-6.37 400.30,14.03 429.14,27.79C442.34,34.09 457.74,34.71 468.23,30.50C468.90,39.54 473.97,46.69 482.70,50.86ZM441.45,2.51C422.57,-6.51 416.87,-15.46 421.13,-24.39C425.59,-33.73 436.64,-34.94 456.54,-25.45C467.91,-20.02 475.59,-12.61 480.92,-2.35L475.97,8.01C466.57,11.00 454.04,8.51 441.45,2.51ZM598.24,106.00L598.14,106.20L629.62,121.23L643.78,92.08L624.48,82.88L648.13,33.33C655.64,36.91 662.45,40.41 666.51,42.35L682.41,9.05L630.42,-15.76L614.53,17.54C616.97,18.70 625.39,22.48 634.93,27.03L619.04,60.33C608.74,69.38 593.77,70.96 578.34,63.60C557.42,53.61 555.10,42.28 566.15,19.14L575.84,-1.17C583.76,2.61 590.97,6.30 595.03,8.24L610.93,-25.06L558.94,-49.87L543.05,-16.57C545.49,-15.41 553.71,-11.73 562.84,-7.37L547.34,25.12C530.19,61.06 538.79,80.12 561.33,90.88C578.79,99.21 595.14,96.30 605.75,87.65ZM723.68,152.41L727.99,129.28C723.00,131.39 714.74,130.93 706.30,126.66C696.45,121.71 691.97,113.34 698.95,98.72L714.65,65.82L745.11,80.36L760.22,48.68L729.76,34.14L742.36,7.75L729.16,1.45L716.57,27.84L700.52,20.19L685.41,51.87L701.45,59.52L679.06,106.43C667.34,131.00 674.84,145.05 690.68,152.61C702.25,158.13 716.15,158.78 723.68,152.41ZM-75.78,-10.99C-65.03,-33.53 -71.32,-47.50 -99.00,-64.20C-116.00,-74.56 -120.14,-81.02 -117.62,-86.30C-114.04,-93.81 -102.50,-95.54 -87.27,-88.27C-70.21,-80.13 -66.14,-72.45 -65.77,-63.30L-56.23,-58.75L-38.50,-95.91L-48.04,-100.46L-52.21,-91.73C-56.52,-102.02 -66.66,-111.59 -77.83,-116.92C-98.74,-126.90 -119.38,-121.79 -128.49,-102.71C-139.93,-78.75 -132.34,-65.40 -107.20,-50.16C-90.81,-40.10 -85.24,-32.95 -87.86,-27.47C-91.16,-20.57 -101.58,-18.06 -119.85,-26.78C-138.13,-35.50 -138.19,-44.26 -140.61,-55.39L-149.74,-59.75L-168.45,-20.56L-159.31,-16.19L-153.88,-27.57C-150.96,-16.45 -142.00,-5.44 -128.60,0.95C-104.23,12.58 -84.50,7.29 -75.78,-10.99ZM31.44,-74.75C37.25,-86.93 42.36,-104.44 28.35,-111.12C14.14,-117.91 3.74,-103.43 -2.27,-90.84C-14.10,-66.06 -12.93,-51.79 -22.40,-25.15C-24.41,-19.38 -27.69,-11.47 -33.46,-2.51L-18.43,4.67C-15.00,-5.66 -11.10,-12.78 -7.78,-18.17C7.07,-42.50 19.81,-50.38 31.44,-74.75ZM-25.30,36.29C-21.13,27.56 -24.56,21.69 -33.09,17.62C-42.63,13.06 -49.25,14.39 -53.32,22.92C-57.00,30.64 -53.67,36.71 -44.33,41.17C-36.00,45.14 -28.98,44.01 -25.30,36.29Z" fill="#ffffff" stroke="#000000"/>
    <path d="M-910.72,482.04L-910.72,492L-908.52,492L-908.52,488.92C-906.69,491.01 -903.46,492.38 -899.93,492.38C-893.09,492.38 -889.52,489.72 -889.52,484.89C-889.48,480.45 -892.33,477.45 -900.19,476.80C-906.05,476.31 -907.11,475.09 -907.11,473.38C-907.11,471.44 -905.63,469.54 -900.50,469.54C-896.09,469.54 -894.23,471.10 -892.86,472.24L-890.66,472.24L-890.66,463.88L-892.86,463.88L-892.86,466.73C-894.34,464.72 -897.15,463.12 -900.57,463.12C-906.88,463.12 -910.49,466.65 -910.49,471.21C-910.49,476.04 -908.40,478.78 -900.42,479.38C-895.25,479.76 -893.13,481.25 -893.13,483.11C-893.13,485.20 -895.14,486.79 -900.31,486.79C-904.37,486.79 -907.41,484.67 -908.52,482.04ZM-867.89,492C-866.37,492 -865.31,491.47 -864.63,490.59L-864.63,485.88C-865.50,486.98 -866.45,487.33 -867.63,487.33C-868.54,487.33 -869.34,486.87 -869.64,486.00L-869.64,479.99C-869.64,472.96 -871.96,470.72 -877.13,470.72C-879.98,470.72 -882.37,471.59 -883.82,473.30L-883.66,478.21C-882.64,476.99 -880.74,475.96 -877.51,475.96C-873.94,475.96 -872.26,477.45 -872.07,481.02C-873.67,479.92 -876.33,479.57 -878.12,479.57C-882.64,479.57 -885.72,482.12 -885.72,486.11C-885.72,489.80 -883.13,492.38 -877.74,492.38C-875.27,492.38 -872.87,491.35 -871.58,489.95C-870.82,491.28 -869.53,492 -867.89,492ZM-877.70,487.63C-881.23,487.63 -882.75,486.68 -882.75,485.01C-882.75,483.26 -881.16,482.27 -877.43,482.27C-875.30,482.27 -873.59,482.84 -872.04,484.02L-872.04,485.96C-873.25,487.10 -875.34,487.63 -877.70,487.63ZM-851.63,492L-846.42,477.33L-843.46,477.33L-843.46,471.10L-853.11,471.10L-853.11,477.33L-850.98,477.33L-854.25,487.25L-857.90,477.33L-855.70,477.33L-855.70,471.10L-863.60,471.10L-863.60,477.33L-860.56,477.33L-855.24,492ZM-823.36,492C-821.84,492 -820.77,491.47 -820.09,490.59L-820.09,485.88C-820.96,486.98 -821.91,487.33 -823.09,487.33C-824.00,487.33 -824.80,486.87 -825.11,486.00L-825.11,479.99C-825.11,472.96 -827.42,470.72 -832.59,470.72C-835.44,470.72 -837.84,471.59 -839.28,473.30L-839.13,478.21C-838.10,476.99 -836.20,475.96 -832.97,475.96C-829.40,475.96 -827.73,477.45 -827.54,481.02C-829.13,479.92 -831.79,479.57 -833.58,479.57C-838.10,479.57 -841.18,482.12 -841.18,486.11C-841.18,489.80 -838.60,492.38 -833.20,492.38C-830.73,492.38 -828.34,491.35 -827.04,489.95C-826.28,491.28 -824.99,492 -823.36,492ZM-833.16,487.63C-836.70,487.63 -838.22,486.68 -838.22,485.01C-838.22,483.26 -836.62,482.27 -832.90,482.27C-830.77,482.27 -829.06,482.84 -827.50,484.02L-827.50,485.96C-828.72,487.10 -830.81,487.63 -833.16,487.63ZM-805.16,489.95L-806.18,486.11C-806.79,486.79 -808.08,487.33 -809.68,487.29C-811.54,487.25 -812.83,486.30 -812.83,483.56L-812.83,477.41L-807.13,477.41L-807.13,471.48L-812.83,471.48L-812.83,466.54L-815.30,466.54L-815.30,471.48L-818.30,471.48L-818.30,477.41L-815.30,477.41L-815.30,486.19C-815.30,490.78 -813.14,492.38 -810.17,492.38C-808.01,492.38 -805.84,491.47 -805.16,489.95ZM-785.74,487.21L-787.52,485.50C-788.63,487.02 -790.22,487.82 -793.57,487.78C-797.06,487.74 -799.30,486.53 -799.80,483.18L-785.13,483.18C-785.13,473.80 -788.40,470.72 -793.57,470.72C-798.13,470.72 -802.12,473.76 -802.12,481.85C-802.12,488.01 -799.19,492.38 -793.49,492.38C-789.80,492.38 -786.99,490.10 -785.74,487.21ZM-793.76,476.50C-789.88,476.50 -787.49,478.40 -787.49,480.71L-799.80,480.71C-799.27,477.83 -796.61,476.50 -793.76,476.50ZM-772.21,482.27L-772.21,479.46L-782.47,479.46L-782.47,482.27ZM-768.98,482.04L-768.98,492L-766.78,492L-766.78,488.92C-764.95,491.01 -761.72,492.38 -758.19,492.38C-751.35,492.38 -747.78,489.72 -747.78,484.89C-747.74,480.45 -750.59,477.45 -758.45,476.80C-764.31,476.31 -765.37,475.09 -765.37,473.38C-765.37,471.44 -763.89,469.54 -758.76,469.54C-754.35,469.54 -752.49,471.10 -751.12,472.24L-748.92,472.24L-748.92,463.88L-751.12,463.88L-751.12,466.73C-752.60,464.72 -755.41,463.12 -758.83,463.12C-765.14,463.12 -768.75,466.65 -768.75,471.21C-768.75,476.04 -766.66,478.78 -758.68,479.38C-753.51,479.76 -751.39,481.25 -751.39,483.11C-751.39,485.20 -753.40,486.79 -758.57,486.79C-762.63,486.79 -765.67,484.67 -766.78,482.04ZM-727.60,487.21L-729.38,485.50C-730.49,487.02 -732.08,487.82 -735.43,487.78C-738.92,487.74 -741.16,486.53 -741.66,483.18L-726.99,483.18C-726.99,473.80 -730.26,470.72 -735.43,470.72C-739.99,470.72 -743.98,473.76 -743.98,481.85C-743.98,488.01 -741.05,492.38 -735.35,492.38C-731.66,492.38 -728.85,490.10 -727.60,487.21ZM-735.62,476.50C-731.74,476.50 -729.35,478.40 -729.35,480.71L-741.66,480.71C-741.13,477.83 -738.47,476.50 -735.62,476.50ZM-723.38,486.60L-723.38,492.08C-722.32,492.04 -716.05,492.04 -713.92,492.08L-713.92,486.60L-717.34,486.60L-717.34,481.17C-717.34,478.51 -715.97,477.03 -714.11,477.03C-712.40,477.03 -711.49,477.45 -711.03,478.43L-709.59,472.13C-710.57,471.29 -711.45,470.72 -713.27,470.72C-714.83,470.72 -716.73,471.78 -717.60,474.06L-718.90,471.10L-723.38,471.10L-723.38,477.33C-722.47,477.33 -721.40,477.29 -719.85,477.33L-719.85,486.60ZM-699.33,465.06C-699.33,462.85 -700.54,461.98 -702.59,461.98C-704.87,461.98 -706.01,462.89 -706.01,465.06C-706.01,467.22 -704.80,468.25 -702.59,468.25C-700.62,468.25 -699.33,467.22 -699.33,465.06ZM-706.74,486.57L-706.74,492.04C-705.10,492 -703.54,492 -701.99,492L-700.66,492C-699.02,492 -697.39,492.04 -695.68,492.04L-695.68,486.57L-699.52,486.57L-699.52,471.86L-706.74,471.86L-706.74,478.09L-701.99,478.09L-701.99,486.57ZM-682.23,492L-682.23,486.53L-686.79,486.53L-686.79,478.09L-682.11,478.09L-682.11,471.86L-686.75,471.86C-687.13,469.09 -685.15,467.53 -683.02,467.53C-681.96,467.53 -681.12,467.76 -680.67,468.10L-680.36,463.20C-681.24,462.51 -682.30,461.98 -683.75,461.98C-687.36,461.98 -690.05,464.94 -689.29,471.86L-692.26,471.86L-692.26,478.09L-689.26,478.09L-689.26,486.53L-692.22,486.53L-692.22,492Z"/>
</svg>