<?xml version="1.0"?>
<svg xmlns="http://www.w3.org/2000/svg" width="1920" height="1080" viewBox="-960 -540 1920 1080">
    <path d="M-785.13,-264.69L-785.13,-288.13L-738.25,-288.13L-738.25,-335L-714.81,-335L-714.81,-288.13L-667.94,-288.13L-667.94,-264.69L-714.81,-264.69L-714.81,-217.81L-738.25,-217.81L-738.25,-264.69ZM-576.14,-210L-576.14,-366.25L-537.08,-366.25L-537.08,-342.81L-529.27,-342.81L-529.27,-327.19L-521.46,-327.19L-521.46,-303.75L-513.64,-303.75L-513.64,-280.31L-505.83,-280.31L-505.83,-249.06L-498.02,-249.06L-498.02,-280.31L-490.21,-280.31L-490.21,-303.75L-482.39,-303.75L-482.39,-327.19L-474.58,-327.19L-474.58,-342.81L-466.77,-342.81L-466.77,-366.25L-427.71,-366.25L-427.71,-210L-451.14,-210L-451.14,-327.19L-458.96,-327.19L-458.96,-311.56L-466.77,-311.56L-466.77,-280.31L-474.58,-280.31L-474.58,-249.06L-482.39,-249.06L-482.39,-225.63L-490.21,-225.63L-490.21,-210L-513.64,-210L-513.64,-225.63L-521.46,-225.63L-521.46,-249.06L-529.27,-249.06L-529.27,-280.31L-537.08,-280.31L-537.08,-311.56L-544.89,-311.56L-544.89,-327.19L-552.71,-327.19L-552.71,-210ZM-403.05,-241.25L-403.05,-295.94L-395.23,-295.94L-395.23,-311.56L-387.42,-311.56L-387.42,-319.38L-371.80,-319.38L-371.80,-327.19L-340.55,-327.19L-340.55,-319.38L-332.73,-319.38L-332.73,-311.56L-324.92,-311.56L-324.92,-327.19L-301.48,-327.19L-301.48,-210L-324.92,-210L-324.92,-225.63L-332.73,-225.63L-332.73,-217.81L-340.55,-217.81L-340.55,-210L-371.80,-210L-371.80,-217.81L-387.42,-217.81L-387.42,-225.63L-395.23,-225.63L-395.23,-241.25ZM-379.61,-241.25L-371.80,-241.25L-371.80,-233.44L-340.55,-233.44L-340.55,-241.25L-332.73,-241.25L-332.73,-249.06L-324.92,-249.06L-324.92,-288.13L-332.73,-288.13L-332.73,-295.94L-340.55,-295.94L-340.55,-303.75L-371.80,-303.75L-371.80,-295.94L-379.61,-295.94ZM-276.09,-210L-276.09,-327.19L-252.66,-327.19L-252.66,-311.56L-244.84,-311.56L-244.84,-319.38L-237.03,-319.38L-237.03,-327.19L-205.78,-327.19L-205.78,-319.38L-197.97,-319.38L-197.97,-311.56L-190.16,-311.56L-190.16,-295.94L-197.97,-295.94L-197.97,-288.13L-205.78,-288.13L-205.78,-295.94L-213.59,-295.94L-213.59,-303.75L-237.03,-303.75L-237.03,-295.94L-244.84,-295.94L-244.84,-288.13L-252.66,-288.13L-252.66,-210ZM-172.82,-241.25L-172.82,-295.94L-165.01,-295.94L-165.01,-311.56L-157.20,-311.56L-157.20,-319.38L-141.57,-319.38L-141.57,-327.19L-110.32,-327.19L-110.32,-319.38L-94.70,-319.38L-94.70,-311.56L-86.88,-311.56L-86.88,-288.13L-102.51,-288.13L-102.51,-295.94L-110.32,-295.94L-110.32,-303.75L-141.57,-303.75L-141.57,-295.94L-149.38,-295.94L-149.38,-241.25L-141.57,-241.25L-141.57,-233.44L-110.32,-233.44L-110.32,-241.25L-102.51,-241.25L-102.51,-249.06L-86.88,-249.06L-86.88,-225.63L-94.70,-225.63L-94.70,-217.81L-110.32,-217.81L-110.32,-210L-141.57,-210L-141.57,-217.81L-157.20,-217.81L-157.20,-225.63L-165.01,-225.63L-165.01,-241.25ZM6.13,-256.88L6.13,-319.38L13.95,-319.38L13.95,-335L21.76,-335L21.76,-342.81L29.57,-342.81L29.57,-350.63L37.38,-350.63L37.38,-358.44L60.82,-358.44L60.82,-366.25L99.88,-366.25L99.88,-358.44L123.32,-358.44L123.32,-350.63L131.13,-350.63L131.13,-342.81L138.95,-342.81L138.95,-335L146.76,-335L146.76,-319.38L154.57,-319.38L154.57,-256.88L146.76,-256.88L146.76,-241.25L138.95,-241.25L138.95,-233.44L131.13,-233.44L131.13,-225.63L123.32,-225.63L123.32,-217.81L99.88,-217.81L99.88,-210L60.82,-210L60.82,-217.81L37.38,-217.81L37.38,-225.63L29.57,-225.63L29.57,-233.44L21.76,-233.44L21.76,-241.25L13.95,-241.25L13.95,-256.88ZM29.57,-272.50L37.38,-272.50L37.38,-256.88L45.20,-256.88L45.20,-249.06L53.01,-249.06L53.01,-241.25L68.63,-241.25L68.63,-233.44L92.07,-233.44L92.07,-241.25L107.70,-241.25L107.70,-249.06L115.51,-249.06L115.51,-256.88L123.32,-256.88L123.32,-272.50L131.13,-272.50L131.13,-303.75L123.32,-303.75L123.32,-319.38L115.51,-319.38L115.51,-327.19L107.70,-327.19L107.70,-335L92.07,-335L92.07,-342.81L68.63,-342.81L68.63,-335L53.01,-335L53.01,-327.19L45.20,-327.19L45.20,-319.38L37.38,-319.38L37.38,-303.75L29.57,-303.75ZM173.61,-327.19L173.61,-366.25L189.24,-366.25L189.24,-327.19ZM217.56,-210L217.56,-366.25L295.68,-366.25L295.68,-358.44L303.50,-358.44L303.50,-350.63L311.31,-350.63L311.31,-342.81L319.12,-342.81L319.12,-303.75L311.31,-303.75L311.31,-288.13L319.12,-288.13L319.12,-280.31L326.93,-280.31L326.93,-233.44L319.12,-233.44L319.12,-225.63L311.31,-225.63L311.31,-217.81L303.50,-217.81L303.50,-210ZM241.00,-233.44L295.68,-233.44L295.68,-241.25L303.50,-241.25L303.50,-272.50L295.68,-272.50L295.68,-280.31L241.00,-280.31ZM241.00,-303.75L287.87,-303.75L287.87,-311.56L295.68,-311.56L295.68,-335L287.87,-335L287.87,-342.81L241.00,-342.81ZM351.35,-210L351.35,-327.19L374.79,-327.19L374.79,-311.56L382.60,-311.56L382.60,-319.38L390.41,-319.38L390.41,-327.19L421.66,-327.19L421.66,-319.38L429.47,-319.38L429.47,-311.56L437.29,-311.56L437.29,-295.94L429.47,-295.94L429.47,-288.13L421.66,-288.13L421.66,-295.94L413.85,-295.94L413.85,-303.75L390.41,-303.75L390.41,-295.94L382.60,-295.94L382.60,-288.13L374.79,-288.13L374.79,-210ZM458.28,-210L458.28,-327.19L481.72,-327.19L481.72,-210ZM458.28,-342.81L458.28,-366.25L481.72,-366.25L481.72,-342.81ZM506.38,-241.25L506.38,-295.94L514.19,-295.94L514.19,-311.56L522.00,-311.56L522.00,-319.38L537.63,-319.38L537.63,-327.19L568.88,-327.19L568.88,-319.38L584.50,-319.38L584.50,-311.56L592.31,-311.56L592.31,-295.94L600.13,-295.94L600.13,-264.69L529.81,-264.69L529.81,-241.25L537.63,-241.25L537.63,-233.44L568.88,-233.44L568.88,-241.25L576.69,-241.25L576.69,-249.06L600.13,-249.06L600.13,-233.44L592.31,-233.44L592.31,-225.63L584.50,-225.63L584.50,-217.81L568.88,-217.81L568.88,-210L537.63,-210L537.63,-217.81L522.00,-217.81L522.00,-225.63L514.19,-225.63L514.19,-241.25ZM529.81,-280.31L576.69,-280.31L576.69,-295.94L568.88,-295.94L568.88,-303.75L537.63,-303.75L537.63,-295.94L529.81,-295.94ZM623.32,-210L623.32,-327.19L646.76,-327.19L646.76,-311.56L654.57,-311.56L654.57,-319.38L662.38,-319.38L662.38,-327.19L685.82,-327.19L685.82,-319.38L701.45,-319.38L701.45,-311.56L709.26,-311.56L709.26,-295.94L717.07,-295.94L717.07,-210L693.63,-210L693.63,-295.94L685.82,-295.94L685.82,-303.75L662.38,-303.75L662.38,-295.94L654.57,-295.94L654.57,-288.13L646.76,-288.13L646.76,-210Z" fill="#ffffff" stroke="#000000"/>
    <path d="M-770.30,-295.26L-769.22,-318.44L-722.87,-316.28L-720.70,-362.63L-697.53,-361.55L-699.69,-315.20L-653.33,-313.04L-654.41,-289.86L-700.77,-292.02L-702.93,-245.66L-726.11,-246.74L-723.95,-293.10ZM-566.15,-231.54L-558.95,-386.06L-520.32,-384.26L-521.40,-361.09L-513.67,-360.73L-514.40,-345.27L-506.67,-344.91L-507.75,-321.74L-500.02,-321.38L-501.10,-298.20L-493.38,-297.84L-494.82,-266.93L-487.09,-266.57L-485.65,-297.48L-477.93,-297.12L-476.85,-320.29L-469.12,-319.93L-468.04,-343.11L-460.31,-342.75L-459.59,-358.20L-451.87,-357.84L-450.79,-381.02L-412.16,-379.22L-419.36,-224.70L-442.54,-225.78L-437.14,-341.67L-444.86,-342.03L-445.58,-326.58L-453.31,-326.94L-454.75,-296.04L-462.47,-296.40L-463.91,-265.49L-471.64,-265.85L-472.72,-242.67L-480.45,-243.03L-481.17,-227.58L-504.35,-228.66L-503.63,-244.12L-511.35,-244.48L-510.27,-267.65L-518.00,-268.01L-516.56,-298.92L-524.28,-299.28L-522.84,-330.18L-530.57,-330.54L-529.85,-345.99L-537.57,-346.35L-542.98,-230.46ZM-393.53,-254.47L-391.01,-308.55L-383.29,-308.19L-382.57,-323.64L-374.84,-323.28L-374.48,-331.01L-359.03,-330.29L-358.67,-338.01L-327.76,-336.57L-328.12,-328.85L-320.40,-328.49L-320.76,-320.76L-313.03,-320.40L-312.31,-335.85L-289.13,-334.77L-294.54,-218.88L-317.71,-219.96L-316.99,-235.42L-324.72,-235.78L-325.08,-228.05L-332.81,-228.41L-333.17,-220.68L-364.07,-222.12L-363.71,-229.85L-379.16,-230.57L-378.80,-238.30L-386.53,-238.66L-385.81,-254.11ZM-370.36,-253.39L-362.63,-253.03L-362.99,-245.30L-332.09,-243.86L-331.73,-251.59L-324.00,-251.23L-323.64,-258.95L-315.91,-258.59L-314.11,-297.22L-321.84,-297.58L-321.48,-305.31L-329.20,-305.67L-328.84,-313.40L-359.75,-314.84L-360.11,-307.11L-367.83,-307.47ZM-269.43,-217.71L-264.02,-333.60L-240.85,-332.52L-241.57,-317.07L-233.84,-316.71L-233.48,-324.44L-225.76,-324.08L-225.39,-331.80L-194.49,-330.36L-194.85,-322.63L-187.13,-322.27L-187.49,-314.55L-179.76,-314.19L-180.48,-298.74L-188.21,-299.10L-188.57,-291.37L-196.29,-291.73L-195.93,-299.46L-203.66,-299.82L-203.30,-307.54L-226.48,-308.62L-226.84,-300.90L-234.56,-301.26L-234.92,-293.53L-242.65,-293.89L-246.25,-216.63ZM-165.86,-243.86L-163.34,-297.94L-155.61,-297.58L-154.89,-313.03L-147.17,-312.67L-146.81,-320.39L-131.35,-319.67L-130.99,-327.40L-100.09,-325.96L-100.45,-318.23L-85.00,-317.51L-85.36,-309.79L-77.63,-309.43L-78.71,-286.25L-94.16,-286.97L-93.80,-294.70L-101.53,-295.06L-101.17,-302.78L-132.07,-304.22L-132.43,-296.50L-140.16,-296.86L-142.68,-242.77L-134.95,-242.41L-135.31,-234.69L-104.41,-233.25L-104.05,-240.97L-96.32,-240.61L-95.96,-248.34L-80.51,-247.62L-81.59,-224.44L-89.32,-224.80L-89.68,-217.08L-105.13,-217.80L-105.49,-210.07L-136.40,-211.51L-136.04,-219.24L-151.49,-219.96L-151.13,-227.68L-158.85,-228.04L-158.13,-243.50ZM11.83,-251.06L14.72,-312.87L22.44,-312.51L23.16,-327.96L30.89,-327.60L31.25,-335.32L38.97,-334.96L39.33,-342.69L47.06,-342.33L47.42,-350.05L70.60,-348.97L70.96,-356.70L109.59,-354.90L109.23,-347.17L132.41,-346.09L132.05,-338.37L139.77,-338.01L139.41,-330.28L147.14,-329.92L146.78,-322.19L154.50,-321.83L153.78,-306.38L161.51,-306.02L158.63,-244.21L150.90,-244.57L150.18,-229.12L142.46,-229.48L142.10,-221.76L134.37,-222.12L134.01,-214.39L126.28,-214.75L125.92,-207.03L102.75,-208.11L102.39,-200.38L63.76,-202.18L64.12,-209.91L40.94,-210.99L41.30,-218.71L33.57,-219.07L33.93,-226.80L26.21,-227.16L26.57,-234.89L18.84,-235.25L19.56,-250.70ZM35.73,-265.43L43.46,-265.07L42.74,-249.62L50.46,-249.26L50.10,-241.53L57.83,-241.17L57.47,-233.44L72.92,-232.72L72.56,-225.00L95.74,-223.92L96.10,-231.64L111.55,-230.92L111.91,-238.65L119.64,-238.29L120.00,-246.02L127.72,-245.66L128.45,-261.11L136.17,-260.75L137.61,-291.65L129.89,-292.01L130.61,-307.46L122.88,-307.82L123.24,-315.55L115.51,-315.91L115.87,-323.64L100.42,-324.36L100.78,-332.08L77.60,-333.16L77.24,-325.44L61.79,-326.16L61.43,-318.43L53.71,-318.79L53.35,-311.06L45.62,-311.42L44.90,-295.97L37.17,-296.33ZM180.70,-312.87L182.50,-351.50L197.95,-350.78L196.15,-312.15ZM218.76,-194.95L225.96,-349.47L303.22,-345.87L302.86,-338.15L310.59,-337.79L310.23,-330.06L317.95,-329.70L317.59,-321.97L325.32,-321.61L323.52,-282.98L315.79,-283.34L315.07,-267.89L322.80,-267.53L322.44,-259.81L330.16,-259.45L328.00,-213.09L320.28,-213.45L319.92,-205.72L312.19,-206.08L311.83,-198.36L304.10,-198.72L303.74,-190.99ZM243.02,-217.05L297.10,-214.53L297.46,-222.26L305.18,-221.90L306.63,-252.80L298.90,-253.16L299.26,-260.89L245.18,-263.41ZM246.26,-286.59L292.61,-284.43L292.97,-292.15L300.70,-291.79L301.78,-314.97L294.05,-315.33L294.42,-323.06L248.06,-325.22ZM351.07,-188.79L356.47,-304.68L379.65,-303.60L378.93,-288.14L386.65,-287.78L387.01,-295.51L394.74,-295.15L395.10,-302.88L426.00,-301.44L425.64,-293.71L433.37,-293.35L433.01,-285.62L440.73,-285.26L440.01,-269.81L432.29,-270.17L431.93,-262.45L424.20,-262.81L424.56,-270.53L416.84,-270.89L417.20,-278.62L394.02,-279.70L393.66,-271.97L385.93,-272.33L385.57,-264.61L377.85,-264.97L374.24,-187.71ZM456.82,-183.86L462.22,-299.75L485.40,-298.67L479.99,-182.78ZM462.94,-315.20L464.02,-338.38L487.20,-337.30L486.12,-314.12ZM505.82,-212.54L508.34,-266.63L516.07,-266.27L516.79,-281.72L524.51,-281.36L524.87,-289.08L540.32,-288.36L540.68,-296.09L571.59,-294.65L571.23,-286.92L586.68,-286.20L586.32,-278.48L594.05,-278.12L593.33,-262.66L601.05,-262.30L599.61,-231.40L530.08,-234.64L529.00,-211.46L536.72,-211.10L536.36,-203.38L567.27,-201.94L567.63,-209.66L575.35,-209.30L575.71,-217.03L598.89,-215.95L598.17,-200.50L590.44,-200.86L590.08,-193.13L582.36,-193.49L582.00,-185.76L566.55,-186.49L566.19,-178.76L535.28,-180.20L535.64,-187.93L520.19,-188.65L520.55,-196.37L512.82,-196.73L513.55,-212.18ZM530.80,-250.09L577.15,-247.93L577.87,-263.38L570.15,-263.74L570.51,-271.47L539.60,-272.91L539.24,-265.19L531.52,-265.55ZM620.03,-176.25L625.43,-292.14L648.61,-291.06L647.89,-275.61L655.61,-275.25L655.97,-282.97L663.70,-282.61L664.06,-290.34L687.24,-289.26L686.88,-281.53L702.33,-280.81L701.97,-273.09L709.69,-272.73L708.97,-257.27L716.70,-256.91L712.74,-171.93L689.56,-173.01L693.52,-257.99L685.80,-258.35L686.16,-266.08L662.98,-267.16L662.62,-259.43L654.89,-259.79L654.53,-252.07L646.81,-252.43L643.20,-175.17Z" fill="#ffffff" stroke="#000000"/>
    <path d="M-754.21,-325.09L-752.08,-347.96L-706.34,-343.68L-702.06,-389.42L-679.19,-387.29L-683.47,-341.55L-637.73,-337.27L-639.87,-314.40L-685.60,-318.68L-689.88,-272.94L-712.75,-275.08L-708.47,-320.81ZM-555.28,-252.67L-541.04,-405.13L-502.92,-401.57L-505.06,-378.70L-497.43,-377.99L-498.86,-362.75L-491.24,-362.03L-493.37,-339.16L-485.75,-338.45L-487.89,-315.58L-480.26,-314.87L-483.11,-284.38L-475.49,-283.67L-472.64,-314.16L-465.02,-313.45L-462.88,-336.32L-455.26,-335.60L-453.12,-358.47L-445.50,-357.76L-444.07,-373.01L-436.45,-372.29L-434.31,-395.16L-396.20,-391.60L-410.44,-239.14L-433.31,-241.28L-422.63,-355.62L-430.25,-356.34L-431.68,-341.09L-439.30,-341.80L-442.15,-311.31L-449.77,-312.02L-452.62,-281.53L-460.24,-282.24L-462.38,-259.37L-470.00,-260.08L-471.43,-244.84L-494.30,-246.98L-492.87,-262.22L-500.50,-262.93L-498.36,-285.80L-505.98,-286.52L-503.13,-317.01L-510.76,-317.72L-507.91,-348.21L-515.53,-348.92L-514.11,-364.17L-521.73,-364.88L-532.41,-250.54ZM-383.53,-267.38L-378.55,-320.75L-370.93,-320.03L-369.50,-335.28L-361.88,-334.57L-361.17,-342.19L-345.92,-340.77L-345.21,-348.39L-314.72,-345.54L-315.43,-337.92L-307.80,-337.20L-308.52,-329.58L-300.89,-328.87L-299.47,-344.12L-276.60,-341.98L-287.28,-227.63L-310.15,-229.77L-308.73,-245.02L-316.35,-245.73L-317.06,-238.11L-324.69,-238.82L-325.40,-231.19L-355.89,-234.04L-355.18,-241.67L-370.43,-243.09L-369.71,-250.71L-377.34,-251.43L-375.91,-266.67ZM-360.67,-265.25L-353.04,-264.54L-353.75,-256.91L-323.26,-254.06L-322.55,-261.69L-314.93,-260.97L-314.21,-268.60L-306.59,-267.89L-303.03,-306.00L-310.65,-306.71L-309.94,-314.34L-317.56,-315.05L-316.85,-322.67L-347.34,-325.52L-348.06,-317.90L-355.68,-318.61ZM-262.51,-225.32L-251.82,-339.66L-228.96,-337.53L-230.38,-322.28L-222.76,-321.57L-222.05,-329.19L-214.42,-328.48L-213.71,-336.10L-183.22,-333.25L-183.93,-325.63L-176.31,-324.92L-177.02,-317.30L-169.40,-316.58L-170.82,-301.34L-178.44,-302.05L-179.16,-294.43L-186.78,-295.14L-186.07,-302.76L-193.69,-303.47L-192.98,-311.10L-215.85,-313.23L-216.56,-305.61L-224.18,-306.32L-224.89,-298.70L-232.52,-299.41L-239.64,-223.18ZM-158.89,-246.40L-153.91,-299.76L-146.28,-299.04L-144.86,-314.29L-137.24,-313.58L-136.52,-321.20L-121.28,-319.78L-120.57,-327.40L-90.07,-324.55L-90.79,-316.93L-75.54,-315.50L-76.25,-307.88L-68.63,-307.17L-70.77,-284.30L-86.01,-285.72L-85.30,-293.35L-92.92,-294.06L-92.21,-301.68L-122.70,-304.53L-123.41,-296.91L-131.04,-297.62L-136.02,-244.26L-128.40,-243.55L-129.11,-235.92L-98.62,-233.07L-97.91,-240.70L-90.29,-239.98L-89.57,-247.61L-74.33,-246.18L-76.46,-223.31L-84.09,-224.03L-84.80,-216.40L-100.05,-217.83L-100.76,-210.21L-131.25,-213.05L-130.54,-220.68L-145.78,-222.10L-145.07,-229.72L-152.69,-230.44L-151.27,-245.68ZM17.15,-245.33L22.85,-306.31L30.47,-305.60L31.89,-320.84L39.52,-320.13L40.23,-327.76L47.85,-327.04L48.56,-334.67L56.19,-333.95L56.90,-341.58L79.77,-339.44L80.48,-347.06L118.60,-343.50L117.88,-335.88L140.75,-333.74L140.04,-326.12L147.66,-325.41L146.95,-317.78L154.57,-317.07L153.86,-309.45L161.48,-308.74L160.06,-293.49L167.68,-292.78L161.99,-231.79L154.36,-232.51L152.94,-217.26L145.31,-217.97L144.60,-210.35L136.98,-211.06L136.27,-203.44L128.64,-204.15L127.93,-196.53L105.06,-198.66L104.35,-191.04L66.24,-194.60L66.95,-202.23L44.08,-204.36L44.79,-211.98L37.17,-212.70L37.88,-220.32L30.26,-221.03L30.97,-228.66L23.35,-229.37L24.77,-244.61ZM41.44,-258.44L49.06,-257.72L47.64,-242.48L55.26,-241.76L54.55,-234.14L62.17,-233.43L61.46,-225.81L76.71,-224.38L75.99,-216.76L98.86,-214.62L99.58,-222.25L114.82,-220.82L115.53,-228.44L123.16,-227.73L123.87,-235.35L131.49,-234.64L132.92,-249.89L140.54,-249.18L143.39,-279.67L135.77,-280.38L137.19,-295.63L129.57,-296.34L130.28,-303.96L122.66,-304.67L123.37,-312.30L108.12,-313.72L108.84,-321.34L85.97,-323.48L85.25,-315.86L70.01,-317.28L69.30,-309.66L61.67,-310.37L60.96,-302.75L53.34,-303.46L51.91,-288.22L44.29,-288.93ZM186.98,-298.66L190.54,-336.78L205.78,-335.36L202.22,-297.24ZM219.17,-180.31L233.42,-332.77L309.65,-325.65L308.94,-318.03L316.56,-317.32L315.85,-309.69L323.47,-308.98L322.76,-301.36L330.38,-300.64L326.82,-262.53L319.20,-263.24L317.77,-248.00L325.39,-247.28L324.68,-239.66L332.31,-238.95L328.03,-193.21L320.41,-193.92L319.70,-186.30L312.07,-187.01L311.36,-179.39L303.74,-180.10L303.03,-172.48ZM244.18,-201.04L297.54,-196.06L298.25,-203.68L305.87,-202.97L308.72,-233.46L301.10,-234.17L301.81,-241.80L248.45,-246.78ZM250.59,-269.65L296.33,-265.38L297.04,-273.00L304.66,-272.29L306.80,-295.16L299.18,-295.87L299.89,-303.49L254.15,-307.77ZM349.72,-168.11L360.40,-282.46L383.27,-280.32L381.85,-265.08L389.47,-264.37L390.18,-271.99L397.80,-271.28L398.52,-278.90L429.01,-276.05L428.30,-268.43L435.92,-267.71L435.21,-260.09L442.83,-259.38L441.41,-244.13L433.78,-244.85L433.07,-237.22L425.45,-237.93L426.16,-245.56L418.54,-246.27L419.25,-253.89L396.38,-256.03L395.67,-248.41L388.04,-249.12L387.33,-241.50L379.71,-242.21L372.59,-165.98ZM454.06,-158.37L464.74,-272.71L487.61,-270.57L476.93,-156.23ZM466.17,-287.96L468.30,-310.83L491.17,-308.69L489.04,-285.82ZM503.84,-184.47L508.82,-237.83L516.44,-237.12L517.87,-252.37L525.49,-251.66L526.20,-259.28L541.45,-257.85L542.16,-265.48L572.66,-262.63L571.94,-255.01L587.19,-253.58L586.48,-245.96L594.10,-245.25L592.68,-230.00L600.30,-229.29L597.45,-198.80L528.84,-205.21L526.71,-182.34L534.33,-181.62L533.62,-174.00L564.11,-171.15L564.82,-178.77L572.44,-178.06L573.16,-185.69L596.02,-183.55L594.60,-168.30L586.98,-169.02L586.26,-161.39L578.64,-162.10L577.93,-154.48L562.68,-155.91L561.97,-148.28L531.48,-151.13L532.19,-158.75L516.95,-160.18L517.66,-167.80L510.03,-168.51L511.46,-183.76ZM530.27,-220.45L576.00,-216.18L577.43,-231.42L569.81,-232.14L570.52,-239.76L540.03,-242.61L539.31,-234.99L531.69,-235.70ZM615.09,-143.32L625.78,-257.66L648.65,-255.53L647.22,-240.28L654.85,-239.57L655.56,-247.19L663.18,-246.48L663.89,-254.10L686.76,-251.97L686.05,-244.34L701.30,-242.92L700.58,-235.30L708.21,-234.58L706.78,-219.34L714.41,-218.63L706.57,-134.77L683.70,-136.91L691.54,-220.76L683.91,-221.47L684.63,-229.10L661.76,-231.23L661.04,-223.61L653.42,-224.32L652.71,-216.70L645.09,-217.41L637.96,-141.18Z" fill="#ffffff" stroke="#000000"/>
    <path d="M-736.89,-354.11L-733.72,-376.63L-688.70,-370.29L-682.37,-415.32L-659.85,-412.15L-666.19,-367.13L-621.16,-360.79L-624.33,-338.28L-669.35,-344.61L-675.69,-299.59L-698.20,-302.75L-691.87,-347.78ZM-543.54,-273.35L-522.43,-423.43L-484.91,-418.15L-488.08,-395.64L-480.57,-394.59L-482.68,-379.58L-475.18,-378.52L-478.35,-356.01L-470.84,-354.95L-474.01,-332.44L-466.50,-331.38L-470.73,-301.37L-463.22,-300.31L-459.00,-330.33L-451.50,-329.27L-448.33,-351.79L-440.82,-350.73L-437.66,-373.24L-430.15,-372.19L-428.04,-387.20L-420.54,-386.14L-417.37,-408.65L-379.85,-403.38L-400.96,-253.29L-423.47,-256.46L-407.64,-369.02L-415.14,-370.08L-417.26,-355.07L-424.76,-356.12L-428.98,-326.11L-436.49,-327.16L-440.71,-297.15L-448.21,-298.20L-451.38,-275.69L-458.88,-276.74L-461.00,-261.73L-483.51,-264.90L-481.40,-279.91L-488.90,-280.97L-485.73,-303.48L-493.24,-304.53L-489.02,-334.55L-496.52,-335.61L-492.30,-365.62L-499.80,-366.68L-497.69,-381.69L-505.20,-382.74L-521.03,-270.18ZM-373.05,-279.98L-365.66,-332.51L-358.16,-331.45L-356.05,-346.46L-348.54,-345.40L-347.49,-352.91L-332.48,-350.80L-331.43,-358.30L-301.41,-354.08L-302.46,-346.57L-294.96,-345.52L-296.02,-338.01L-288.51,-336.96L-286.40,-351.97L-263.89,-348.80L-279.72,-236.24L-302.23,-239.40L-300.12,-254.41L-307.63,-255.47L-308.68,-247.96L-316.19,-249.02L-317.24,-241.51L-347.26,-245.74L-346.20,-253.24L-361.21,-255.35L-360.16,-262.86L-367.66,-263.91L-365.55,-278.92ZM-350.54,-276.81L-343.04,-275.75L-344.09,-268.25L-314.08,-264.03L-313.02,-271.53L-305.52,-270.48L-304.46,-277.98L-296.96,-276.92L-291.68,-314.45L-299.18,-315.50L-298.13,-323.01L-305.63,-324.06L-304.58,-331.56L-334.59,-335.79L-335.65,-328.28L-343.15,-329.34ZM-255.33,-232.81L-239.50,-345.37L-216.99,-342.20L-219.10,-327.19L-211.59,-326.14L-210.54,-333.64L-203.03,-332.59L-201.98,-340.09L-171.96,-335.87L-173.02,-328.36L-165.51,-327.31L-166.57,-319.80L-159.06,-318.75L-161.17,-303.74L-168.68,-304.80L-169.73,-297.29L-177.24,-298.35L-176.18,-305.85L-183.69,-306.91L-182.63,-314.41L-205.14,-317.58L-206.20,-310.07L-213.70,-311.13L-214.76,-303.63L-222.26,-304.68L-232.82,-229.64ZM-151.91,-248.87L-144.52,-301.40L-137.02,-300.34L-134.91,-315.35L-127.40,-314.30L-126.35,-321.80L-111.34,-319.69L-110.28,-327.19L-80.27,-322.97L-81.32,-315.47L-66.31,-313.36L-67.37,-305.85L-59.87,-304.80L-63.03,-282.28L-78.04,-284.39L-76.99,-291.90L-84.49,-292.95L-83.43,-300.46L-113.45,-304.68L-114.51,-297.18L-122.01,-298.23L-129.40,-245.70L-121.90,-244.65L-122.95,-237.14L-92.93,-232.92L-91.88,-240.42L-84.37,-239.37L-83.32,-246.87L-68.31,-244.76L-71.48,-222.25L-78.98,-223.30L-80.04,-215.80L-95.05,-217.91L-96.10,-210.41L-126.12,-214.63L-125.06,-222.13L-140.07,-224.25L-139.02,-231.75L-146.52,-232.80L-144.41,-247.81ZM22.09,-239.70L30.54,-299.73L38.04,-298.68L40.15,-313.69L47.66,-312.63L48.71,-320.13L56.22,-319.08L57.27,-326.58L64.78,-325.53L65.83,-333.03L88.34,-329.86L89.40,-337.37L126.92,-332.09L125.87,-324.59L148.38,-321.42L147.32,-313.92L154.83,-312.86L153.77,-305.36L161.28,-304.30L160.22,-296.80L167.72,-295.74L165.61,-280.73L173.12,-279.68L164.67,-219.64L157.17,-220.70L155.06,-205.69L147.55,-206.74L146.50,-199.24L138.99,-200.30L137.94,-192.79L130.43,-193.85L129.38,-186.34L106.87,-189.51L105.81,-182.01L68.29,-187.28L69.34,-194.79L46.83,-197.95L47.89,-205.46L40.38,-206.51L41.44,-214.02L33.93,-215.07L34.99,-222.58L27.49,-223.63L29.60,-238.64ZM46.72,-251.54L54.22,-250.48L52.11,-235.48L59.61,-234.42L58.56,-226.92L66.06,-225.86L65.01,-218.36L80.02,-216.25L78.96,-208.74L101.47,-205.57L102.53,-213.08L117.54,-210.97L118.59,-218.47L126.10,-217.42L127.15,-224.92L134.66,-223.86L136.77,-238.87L144.27,-237.82L148.49,-267.83L140.99,-268.89L143.10,-283.90L135.60,-284.95L136.65,-292.46L129.15,-293.51L130.20,-301.02L115.19,-303.13L116.25,-310.63L93.74,-313.80L92.68,-306.30L77.67,-308.41L76.62,-300.90L69.11,-301.96L68.06,-294.45L60.55,-295.51L58.44,-280.50L50.94,-281.56ZM192.46,-284.61L197.74,-322.13L212.75,-320.02L207.47,-282.50ZM218.84,-166.11L239.95,-316.19L315.00,-305.64L313.94,-298.13L321.45,-297.08L320.39,-289.57L327.89,-288.52L326.84,-281.01L334.34,-279.96L329.06,-242.43L321.56,-243.49L319.45,-228.48L326.95,-227.43L325.90,-219.92L333.40,-218.87L327.07,-173.84L319.56,-174.90L318.51,-167.39L311.00,-168.45L309.95,-160.94L302.44,-162.00L301.39,-154.49ZM244.52,-185.45L297.05,-178.06L298.11,-185.57L305.61,-184.51L309.83,-214.53L302.33,-215.58L303.39,-223.09L250.86,-230.48ZM254.02,-252.99L299.05,-246.66L300.10,-254.16L307.61,-253.11L310.77,-275.62L303.27,-276.67L304.33,-284.18L259.30,-290.51ZM347.35,-148.03L363.19,-260.59L385.70,-257.43L383.59,-242.42L391.09,-241.36L392.15,-248.87L399.65,-247.81L400.71,-255.32L430.72,-251.09L429.67,-243.59L437.17,-242.53L436.12,-235.03L443.62,-233.97L441.51,-218.96L434.01,-220.02L432.95,-212.52L425.45,-213.57L426.50,-221.08L419.00,-222.13L420.05,-229.64L397.54,-232.80L396.49,-225.30L388.98,-226.35L387.93,-218.85L380.42,-219.91L369.87,-144.86ZM450.07,-133.58L465.90,-246.14L488.41,-242.98L472.58,-130.41ZM468.01,-261.15L471.18,-283.67L493.69,-280.50L490.52,-257.99ZM500.49,-157.10L507.88,-209.63L515.38,-208.57L517.49,-223.58L525.00,-222.53L526.05,-230.03L541.06,-227.92L542.12,-235.42L572.13,-231.20L571.08,-223.70L586.09,-221.59L585.03,-214.08L592.53,-213.03L590.42,-198.02L597.93,-196.96L593.71,-166.95L526.17,-176.45L523.00,-153.93L530.50,-152.88L529.45,-145.37L559.47,-141.15L560.52,-148.66L568.03,-147.60L569.08,-155.10L591.59,-151.94L589.48,-136.93L581.98,-137.98L580.92,-130.48L573.42,-131.54L572.36,-124.03L557.35,-126.14L556.30,-118.64L526.28,-122.86L527.34,-130.36L512.33,-132.48L513.38,-139.98L505.88,-141.04L507.99,-156.04ZM528.28,-191.45L573.30,-185.12L575.41,-200.13L567.91,-201.18L568.97,-208.69L538.95,-212.91L537.89,-205.41L530.39,-206.46ZM608.59,-111.28L624.43,-223.85L646.94,-220.68L644.83,-205.67L652.33,-204.61L653.39,-212.12L660.89,-211.06L661.95,-218.57L684.46,-215.40L683.41,-207.90L698.42,-205.79L697.36,-198.28L704.86,-197.23L702.75,-182.22L710.26,-181.16L698.65,-98.62L676.13,-101.78L687.74,-184.33L680.24,-185.38L681.30,-192.89L658.78,-196.06L657.73,-188.55L650.22,-189.61L649.17,-182.10L641.66,-183.16L631.11,-108.12Z" fill="#ffffff" stroke="#000000"/>
    <path d="M-718.38,-382.28L-714.21,-404.39L-669.99,-396.05L-661.65,-440.27L-639.54,-436.11L-647.88,-391.88L-603.66,-383.55L-607.83,-361.44L-652.05,-369.77L-660.38,-325.55L-682.49,-329.72L-674.16,-373.94ZM-530.95,-293.52L-503.16,-440.92L-466.31,-433.98L-470.48,-411.87L-463.11,-410.48L-465.89,-395.74L-458.52,-394.35L-462.69,-372.24L-455.32,-370.85L-459.49,-348.74L-452.12,-347.35L-457.67,-317.87L-450.30,-316.48L-444.75,-345.96L-437.37,-344.57L-433.21,-366.68L-425.84,-365.29L-421.67,-387.40L-414.30,-386.01L-411.52,-400.75L-404.15,-399.36L-399.98,-421.47L-363.13,-414.53L-390.92,-267.12L-413.03,-271.29L-392.19,-381.84L-399.56,-383.23L-402.34,-368.49L-409.71,-369.88L-415.26,-340.40L-422.63,-341.79L-428.19,-312.31L-435.56,-313.70L-439.73,-291.59L-447.10,-292.98L-449.88,-278.24L-471.99,-282.41L-469.21,-297.15L-476.58,-298.54L-472.41,-320.65L-479.78,-322.04L-474.23,-351.52L-481.60,-352.91L-476.04,-382.39L-483.41,-383.78L-480.63,-398.52L-488.00,-399.91L-508.84,-289.35ZM-362.10,-292.22L-352.37,-343.81L-345.00,-342.42L-342.22,-357.16L-334.85,-355.77L-333.46,-363.14L-318.72,-360.36L-317.33,-367.73L-287.85,-362.17L-289.24,-354.80L-281.87,-353.42L-283.26,-346.05L-275.89,-344.66L-273.11,-359.40L-251.00,-355.23L-271.84,-244.68L-293.95,-248.84L-291.18,-263.58L-298.55,-264.97L-299.93,-257.60L-307.31,-258.99L-308.69,-251.62L-338.18,-257.18L-336.79,-264.55L-351.53,-267.33L-350.14,-274.70L-357.51,-276.09L-354.73,-290.83ZM-339.99,-288.05L-332.62,-286.66L-334.01,-279.29L-304.53,-273.73L-303.14,-281.10L-295.77,-279.71L-294.38,-287.08L-287.01,-285.69L-280.06,-322.55L-287.43,-323.93L-286.04,-331.30L-293.41,-332.69L-292.02,-340.06L-321.50,-345.62L-322.89,-338.25L-330.26,-339.64ZM-247.89,-240.16L-227.05,-350.71L-204.94,-346.54L-207.72,-331.80L-200.35,-330.41L-198.96,-337.78L-191.59,-336.40L-190.20,-343.77L-160.72,-338.21L-162.11,-330.84L-154.74,-329.45L-156.13,-322.08L-148.76,-320.69L-151.54,-305.95L-158.91,-307.34L-160.29,-299.97L-167.66,-301.36L-166.28,-308.73L-173.65,-310.12L-172.26,-317.49L-194.37,-321.65L-195.76,-314.28L-203.13,-315.67L-204.52,-308.30L-211.89,-309.69L-225.78,-235.99ZM-144.91,-251.27L-135.18,-302.87L-127.81,-301.48L-125.03,-316.22L-117.66,-314.83L-116.27,-322.20L-101.53,-319.42L-100.14,-326.79L-70.66,-321.23L-72.05,-313.86L-57.31,-311.08L-58.70,-303.71L-51.33,-302.32L-55.50,-280.21L-70.24,-282.99L-68.85,-290.36L-76.22,-291.75L-74.83,-299.12L-104.31,-304.68L-105.70,-297.31L-113.07,-298.70L-122.80,-247.11L-115.43,-245.72L-116.82,-238.35L-87.34,-232.79L-85.95,-240.16L-78.58,-238.77L-77.19,-246.14L-62.45,-243.36L-66.62,-221.25L-73.99,-222.64L-75.37,-215.27L-90.11,-218.05L-91.50,-210.68L-120.99,-216.24L-119.60,-223.61L-134.34,-226.38L-132.95,-233.75L-140.32,-235.14L-137.54,-249.88ZM26.69,-234.19L37.81,-293.15L45.18,-291.76L47.96,-306.50L55.33,-305.11L56.72,-312.48L64.09,-311.09L65.48,-318.46L72.85,-317.07L74.24,-324.44L96.35,-320.28L97.74,-327.65L134.59,-320.70L133.20,-313.33L155.31,-309.16L153.92,-301.79L161.29,-300.40L159.90,-293.03L167.27,-291.64L165.88,-284.27L173.25,-282.88L170.47,-268.14L177.84,-266.75L166.73,-207.79L159.36,-209.18L156.58,-194.44L149.21,-195.83L147.82,-188.46L140.45,-189.85L139.06,-182.48L131.69,-183.87L130.30,-176.50L108.19,-180.66L106.80,-173.29L69.95,-180.24L71.34,-187.61L49.23,-191.78L50.62,-199.15L43.25,-200.54L44.64,-207.91L37.27,-209.30L38.66,-216.67L31.29,-218.06L34.06,-232.80ZM51.58,-244.76L58.95,-243.37L56.17,-228.63L63.54,-227.24L62.16,-219.87L69.53,-218.48L68.14,-211.11L82.88,-208.33L81.49,-200.96L103.60,-196.79L104.99,-204.16L119.73,-201.39L121.12,-208.76L128.49,-207.37L129.88,-214.74L137.25,-213.35L140.03,-228.09L147.40,-226.70L152.95,-256.18L145.58,-257.57L148.36,-272.31L140.99,-273.70L142.38,-281.07L135.01,-282.46L136.40,-289.83L121.66,-292.61L123.05,-299.98L100.94,-304.15L99.55,-296.78L84.81,-299.55L83.42,-292.18L76.05,-293.57L74.66,-286.20L67.29,-287.59L64.51,-272.85L57.14,-274.24ZM197.20,-270.73L204.14,-307.59L218.88,-304.81L211.94,-267.96ZM217.81,-152.37L245.60,-299.77L319.30,-285.88L317.91,-278.51L325.28,-277.12L323.89,-269.75L331.26,-268.36L329.87,-260.99L337.25,-259.60L330.30,-222.75L322.93,-224.14L320.15,-209.40L327.52,-208.01L326.13,-200.64L333.50,-199.25L325.16,-155.03L317.79,-156.42L316.40,-149.04L309.03,-150.43L307.64,-143.06L300.27,-144.45L298.88,-137.08ZM244.09,-170.31L295.68,-160.58L297.07,-167.95L304.44,-166.56L310.00,-196.04L302.63,-197.43L304.02,-204.80L252.43,-214.53ZM256.60,-236.64L300.82,-228.30L302.21,-235.67L309.58,-234.29L313.75,-256.40L306.37,-257.79L307.76,-265.16L263.54,-273.49ZM344.03,-128.57L364.87,-239.13L386.98,-234.96L384.20,-220.22L391.57,-218.83L392.96,-226.20L400.33,-224.81L401.72,-232.18L431.20,-226.62L429.81,-219.25L437.18,-217.86L435.79,-210.49L443.16,-209.10L440.38,-194.36L433.01,-195.75L431.62,-188.38L424.25,-189.77L425.64,-197.14L418.27,-198.53L419.66,-205.90L397.55,-210.07L396.16,-202.70L388.79,-204.09L387.40,-196.72L380.03,-198.11L366.14,-124.41ZM444.91,-109.56L465.75,-220.11L487.86,-215.94L467.02,-105.39ZM468.53,-234.85L472.69,-256.96L494.81,-252.79L490.64,-230.68ZM495.84,-130.48L505.56,-182.07L512.93,-180.68L515.71,-195.43L523.08,-194.04L524.47,-201.41L539.21,-198.63L540.60,-206.00L570.08,-200.44L568.69,-193.07L583.43,-190.29L582.04,-182.92L589.41,-181.53L586.63,-166.79L594.00,-165.40L588.45,-135.92L522.12,-148.43L517.95,-126.31L525.32,-124.93L523.93,-117.56L553.41,-112.00L554.80,-119.37L562.17,-117.98L563.56,-125.35L585.67,-121.18L582.89,-106.44L575.52,-107.83L574.13,-100.46L566.76,-101.85L565.37,-94.48L550.63,-97.26L549.24,-89.89L519.76,-95.44L521.15,-102.81L506.41,-105.59L507.80,-112.96L500.43,-114.35L503.21,-129.09ZM524.89,-163.17L569.12,-154.83L571.89,-169.57L564.52,-170.96L565.91,-178.33L536.43,-183.89L535.04,-176.52L527.67,-177.91ZM600.60,-80.20L621.44,-190.76L643.55,-186.59L640.77,-171.85L648.14,-170.46L649.53,-177.83L656.90,-176.44L658.29,-183.81L680.40,-179.64L679.01,-172.27L693.76,-169.49L692.37,-162.12L699.74,-160.73L696.96,-145.99L704.33,-144.60L689.04,-63.53L666.93,-67.70L682.22,-148.77L674.85,-150.16L676.24,-157.53L654.13,-161.70L652.74,-154.33L645.37,-155.72L643.98,-148.35L636.61,-149.74L622.71,-76.04Z" fill="#ffffff" stroke="#000000"/>
    <path d="M-698.71,-409.53L-693.57,-431.20L-650.24,-420.92L-639.97,-464.25L-618.30,-459.11L-628.58,-415.78L-585.25,-405.50L-590.39,-383.84L-633.72,-394.11L-644.00,-350.79L-665.66,-355.93L-655.38,-399.25ZM-517.53,-313.16L-483.27,-457.59L-447.16,-449.02L-452.30,-427.36L-445.08,-425.64L-448.50,-411.20L-441.28,-409.49L-446.42,-387.82L-439.20,-386.11L-444.34,-364.45L-437.12,-362.73L-443.97,-333.85L-436.75,-332.13L-429.90,-361.02L-422.68,-359.31L-417.54,-380.97L-410.31,-379.26L-405.18,-400.92L-397.95,-399.21L-394.53,-413.65L-387.31,-411.94L-382.17,-433.60L-346.06,-425.04L-380.32,-280.61L-401.99,-285.75L-376.29,-394.07L-383.51,-395.78L-386.94,-381.34L-394.16,-383.05L-401.01,-354.17L-408.23,-355.88L-415.08,-327.00L-422.31,-328.71L-427.45,-307.04L-434.67,-308.76L-438.09,-294.31L-459.76,-299.45L-456.33,-313.90L-463.55,-315.61L-458.41,-337.27L-465.63,-338.99L-458.78,-367.87L-466.00,-369.59L-459.15,-398.47L-466.37,-400.18L-462.95,-414.63L-470.17,-416.34L-495.86,-308.02ZM-350.68,-304.09L-338.68,-354.64L-331.46,-352.93L-328.04,-367.37L-320.82,-365.66L-319.10,-372.88L-304.66,-369.45L-302.95,-376.67L-274.06,-369.82L-275.77,-362.60L-268.55,-360.89L-270.27,-353.66L-263.04,-351.95L-259.62,-366.39L-237.95,-361.26L-263.65,-252.93L-285.31,-258.07L-281.89,-272.52L-289.11,-274.23L-290.82,-267.01L-298.04,-268.72L-299.76,-261.50L-328.64,-268.35L-326.93,-275.57L-341.37,-279.00L-339.66,-286.22L-346.88,-287.93L-343.45,-302.38ZM-329.01,-298.95L-321.79,-297.24L-323.50,-290.01L-294.62,-283.16L-292.90,-290.38L-285.68,-288.67L-283.97,-295.89L-276.75,-294.18L-268.18,-330.29L-275.40,-332.00L-273.69,-339.22L-280.91,-340.93L-279.20,-348.16L-308.09,-355.01L-309.80,-347.79L-317.02,-349.50ZM-240.18,-247.37L-214.48,-355.69L-192.82,-350.55L-196.25,-336.11L-189.02,-334.39L-187.31,-341.61L-180.09,-339.90L-178.38,-347.12L-149.49,-340.27L-151.20,-333.05L-143.98,-331.34L-145.69,-324.11L-138.47,-322.40L-141.90,-307.96L-149.12,-309.67L-150.83,-302.45L-158.06,-304.16L-156.34,-311.38L-163.56,-313.10L-161.85,-320.32L-183.52,-325.46L-185.23,-318.24L-192.45,-319.95L-194.16,-312.73L-201.38,-314.44L-218.51,-242.23ZM-137.87,-253.61L-125.88,-304.16L-118.66,-302.44L-115.23,-316.89L-108.01,-315.17L-106.29,-322.40L-91.85,-318.97L-90.14,-326.19L-61.25,-319.34L-62.97,-312.12L-48.52,-308.69L-50.24,-301.47L-43.01,-299.76L-48.15,-278.09L-62.60,-281.52L-60.88,-288.74L-68.11,-290.45L-66.39,-297.67L-95.28,-304.53L-96.99,-297.31L-104.21,-299.02L-116.20,-248.47L-108.98,-246.75L-110.70,-239.53L-81.81,-232.68L-80.10,-239.90L-72.88,-238.19L-71.16,-245.41L-56.72,-241.98L-61.86,-220.32L-69.08,-222.03L-70.79,-214.81L-85.24,-218.24L-86.95,-211.02L-115.83,-217.87L-114.12,-225.09L-128.56,-228.52L-126.85,-235.74L-134.07,-237.45L-130.65,-251.89ZM30.97,-228.81L44.68,-286.58L51.90,-284.87L55.33,-299.31L62.55,-297.60L64.26,-304.82L71.48,-303.11L73.20,-310.33L80.42,-308.62L82.13,-315.84L103.79,-310.70L105.51,-317.92L141.62,-309.35L139.90,-302.13L161.57,-296.99L159.85,-289.77L167.07,-288.06L165.36,-280.84L172.58,-279.12L170.87,-271.90L178.09,-270.19L174.67,-255.75L181.89,-254.03L168.18,-196.26L160.96,-197.98L157.54,-183.53L150.31,-185.25L148.60,-178.02L141.38,-179.74L139.67,-172.52L132.44,-174.23L130.73,-167.01L109.07,-172.15L107.35,-164.92L71.25,-173.49L72.96,-180.71L51.30,-185.85L53.01,-193.07L45.79,-194.79L47.50,-202.01L40.28,-203.72L41.99,-210.94L34.77,-212.65L38.20,-227.10ZM56.07,-238.11L63.29,-236.40L59.86,-221.96L67.08,-220.24L65.37,-213.02L72.59,-211.31L70.88,-204.09L85.32,-200.66L83.61,-193.44L105.27,-188.30L106.98,-195.52L121.43,-192.10L123.14,-199.32L130.36,-197.61L132.08,-204.83L139.30,-203.11L142.72,-217.56L149.94,-215.84L156.80,-244.73L149.58,-246.44L153.00,-260.89L145.78,-262.60L147.49,-269.82L140.27,-271.53L141.98,-278.76L127.54,-282.18L129.25,-289.40L107.59,-294.54L105.88,-287.32L91.43,-290.75L89.72,-283.53L82.50,-285.24L80.79,-278.02L73.57,-279.73L70.14,-265.29L62.92,-267.00ZM201.20,-257.08L209.77,-293.19L224.21,-289.76L215.65,-253.65ZM216.13,-139.12L250.39,-283.55L322.60,-266.42L320.89,-259.20L328.11,-257.49L326.40,-250.26L333.62,-248.55L331.91,-241.33L339.13,-239.62L330.56,-203.51L323.34,-205.22L319.92,-190.78L327.14,-189.07L325.42,-181.85L332.65,-180.13L322.37,-136.80L315.15,-138.52L313.43,-131.29L306.21,-133.01L304.50,-125.79L297.28,-127.50L295.56,-120.28ZM242.93,-155.65L293.48,-143.66L295.19,-150.88L302.42,-149.16L309.27,-178.05L302.05,-179.76L303.76,-186.98L253.21,-198.98ZM258.35,-220.64L301.68,-210.36L303.39,-217.58L310.61,-215.87L315.75,-237.53L308.53,-239.25L310.24,-246.47L266.91,-256.75ZM339.80,-109.79L365.49,-218.11L387.16,-212.97L383.73,-198.53L390.95,-196.81L392.66,-204.03L399.89,-202.32L401.60,-209.54L430.48,-202.69L428.77,-195.47L435.99,-193.76L434.28,-186.53L441.50,-184.82L438.07,-170.38L430.85,-172.09L429.14,-164.87L421.92,-166.58L423.63,-173.80L416.41,-175.52L418.12,-182.74L396.46,-187.88L394.75,-180.66L387.52,-182.37L385.81,-175.15L378.59,-176.86L361.46,-104.65ZM438.64,-86.34L464.33,-194.66L486.00,-189.52L460.30,-81.20ZM467.76,-209.10L472.90,-230.77L494.56,-225.63L489.43,-203.96ZM489.95,-104.68L501.94,-155.23L509.16,-153.52L512.59,-167.96L519.81,-166.25L521.52,-173.47L535.96,-170.04L537.68,-177.26L566.56,-170.41L564.85,-163.19L579.29,-159.76L577.58,-152.54L584.80,-150.83L581.38,-136.38L588.60,-134.67L581.75,-105.79L516.75,-121.20L511.61,-99.54L518.83,-97.83L517.12,-90.60L546.01,-83.75L547.72,-90.97L554.94,-89.26L556.65,-96.48L578.32,-91.34L574.89,-76.90L567.67,-78.61L565.96,-71.39L558.74,-73.10L557.02,-65.88L542.58,-69.31L540.87,-62.09L511.98,-68.94L513.70,-76.16L499.25,-79.59L500.97,-86.81L493.74,-88.52L497.17,-102.96ZM520.18,-135.65L563.51,-125.37L566.93,-139.81L559.71,-141.52L561.42,-148.75L532.54,-155.60L530.83,-148.38L523.60,-150.09ZM591.19,-50.15L616.89,-158.47L638.55,-153.33L635.13,-138.89L642.35,-137.18L644.06,-144.40L651.28,-142.69L653.00,-149.91L674.66,-144.77L672.95,-137.55L687.39,-134.12L685.68,-126.90L692.90,-125.19L689.47,-110.74L696.69,-109.03L677.85,-29.59L656.19,-34.73L675.03,-114.17L667.81,-115.88L669.52,-123.10L647.86,-128.24L646.14,-121.02L638.92,-122.73L637.21,-115.51L629.99,-117.23L612.86,-45.01Z" fill="#ffffff" stroke="#000000"/>
    <path d="M-677.94,-435.82L-671.86,-457.00L-629.51,-444.84L-617.35,-487.19L-596.17,-481.12L-608.33,-438.76L-565.98,-426.61L-572.06,-405.43L-614.41,-417.59L-626.56,-375.23L-647.74,-381.31L-635.58,-423.67ZM-503.30,-332.22L-462.78,-473.39L-427.48,-463.26L-433.56,-442.09L-426.50,-440.06L-430.55,-425.94L-423.50,-423.92L-429.57,-402.74L-422.51,-400.71L-428.59,-379.54L-421.53,-377.51L-429.64,-349.28L-422.58,-347.25L-414.48,-375.49L-407.42,-373.46L-401.34,-394.64L-394.28,-392.61L-388.20,-413.79L-381.14,-411.76L-377.09,-425.88L-370.03,-423.85L-363.95,-445.03L-328.66,-434.90L-369.18,-293.72L-390.36,-299.80L-359.97,-405.68L-367.03,-407.71L-371.08,-393.59L-378.14,-395.62L-386.24,-367.38L-393.30,-369.41L-401.40,-341.17L-408.46,-343.20L-414.54,-322.02L-421.60,-324.05L-425.65,-309.93L-446.83,-316.01L-442.77,-330.13L-449.83,-332.15L-443.76,-353.33L-450.81,-355.35L-442.71,-383.59L-449.77,-385.62L-441.67,-413.85L-448.72,-415.88L-444.67,-429.99L-451.73,-432.02L-482.12,-326.14ZM-338.80,-315.56L-324.61,-364.98L-317.56,-362.95L-313.50,-377.07L-306.45,-375.04L-304.42,-382.10L-290.30,-378.05L-288.28,-385.11L-260.04,-377.00L-262.07,-369.94L-255.01,-367.92L-257.03,-360.86L-249.98,-358.83L-245.92,-372.95L-224.75,-366.87L-255.14,-260.99L-276.31,-267.07L-272.26,-281.19L-279.32,-283.21L-281.35,-276.15L-288.40,-278.18L-290.43,-271.12L-318.66,-279.23L-316.64,-286.28L-330.76,-290.34L-328.73,-297.39L-335.79,-299.42L-331.74,-313.54ZM-317.62,-309.49L-310.56,-307.46L-312.59,-300.40L-284.35,-292.30L-282.33,-299.36L-275.27,-297.33L-273.24,-304.39L-266.18,-302.36L-256.05,-337.66L-263.11,-339.68L-261.09,-346.74L-268.14,-348.77L-266.12,-355.83L-294.35,-363.93L-296.38,-356.87L-303.44,-358.90ZM-232.19,-254.41L-201.81,-360.29L-180.63,-354.21L-184.68,-340.09L-177.62,-338.07L-175.60,-345.13L-168.54,-343.10L-166.51,-350.16L-138.28,-342.06L-140.30,-335.00L-133.24,-332.97L-135.27,-325.91L-128.21,-323.89L-132.26,-309.77L-139.32,-311.80L-141.35,-304.74L-148.41,-306.76L-146.38,-313.82L-153.44,-315.85L-151.41,-322.91L-172.59,-328.98L-174.62,-321.92L-181.67,-323.95L-183.70,-316.89L-190.76,-318.92L-211.02,-248.33ZM-130.78,-255.86L-116.60,-305.27L-109.54,-303.25L-105.49,-317.37L-98.43,-315.34L-96.41,-322.40L-82.29,-318.35L-80.26,-325.41L-52.03,-317.30L-54.05,-310.24L-39.94,-306.19L-41.96,-299.13L-34.90,-297.11L-40.98,-275.93L-55.10,-279.98L-53.07,-287.04L-60.13,-289.07L-58.11,-296.13L-86.34,-304.23L-88.37,-297.17L-95.43,-299.20L-109.61,-249.79L-102.55,-247.76L-104.57,-240.70L-76.34,-232.60L-74.31,-239.66L-67.25,-237.63L-65.23,-244.69L-51.11,-240.64L-57.19,-219.46L-64.25,-221.49L-66.27,-214.43L-80.39,-218.48L-82.42,-211.42L-110.65,-219.52L-108.63,-226.58L-122.74,-230.63L-120.72,-237.69L-127.78,-239.72L-123.72,-253.84ZM34.96,-223.57L51.17,-280.04L58.22,-278.02L62.28,-292.14L69.34,-290.11L71.36,-297.17L78.42,-295.14L80.45,-302.20L87.50,-300.18L89.53,-307.23L110.71,-301.16L112.73,-308.22L148.03,-298.09L146.00,-291.03L167.18,-284.95L165.15,-277.89L172.21,-275.86L170.18,-268.81L177.24,-266.78L175.22,-259.72L182.28,-257.70L178.22,-243.58L185.28,-241.55L169.08,-185.08L162.02,-187.11L157.96,-172.99L150.91,-175.02L148.88,-167.96L141.82,-169.98L139.80,-162.92L132.74,-164.95L130.71,-157.89L109.53,-163.97L107.51,-156.91L72.21,-167.04L74.24,-174.10L53.06,-180.18L55.09,-187.24L48.03,-189.26L50.06,-196.32L43.00,-198.35L45.02,-205.40L37.97,-207.43L42.02,-221.55ZM60.19,-231.61L67.25,-229.59L63.19,-215.47L70.25,-213.44L68.23,-206.39L75.29,-204.36L73.26,-197.30L87.38,-193.25L85.35,-186.19L106.53,-180.11L108.55,-187.17L122.67,-183.12L124.70,-190.18L131.76,-188.15L133.78,-195.21L140.84,-193.19L144.89,-207.30L151.95,-205.28L160.05,-233.51L153.00,-235.54L157.05,-249.66L149.99,-251.68L152.01,-258.74L144.96,-260.77L146.98,-267.83L132.86,-271.88L134.89,-278.94L113.71,-285.01L111.69,-277.95L97.57,-282.01L95.54,-274.95L88.49,-276.97L86.46,-269.91L79.40,-271.94L75.35,-257.82L68.29,-259.85ZM204.51,-243.67L214.64,-278.97L228.76,-274.91L218.63,-239.62ZM213.83,-126.40L254.35,-267.57L324.94,-247.31L322.91,-240.25L329.97,-238.23L327.94,-231.17L335.00,-229.14L332.98,-222.08L340.04,-220.06L329.91,-184.76L322.85,-186.79L318.80,-172.67L325.85,-170.65L323.83,-163.59L330.89,-161.56L318.73,-119.21L311.67,-121.23L309.65,-114.18L302.59,-116.20L300.56,-109.14L293.50,-111.17L291.48,-104.11ZM241.09,-141.49L290.50,-127.31L292.52,-134.37L299.58,-132.35L307.69,-160.58L300.63,-162.61L302.65,-169.66L253.24,-183.85ZM259.32,-205.02L301.67,-192.87L303.70,-199.93L310.76,-197.90L316.83,-219.08L309.78,-221.10L311.80,-228.16L269.45,-240.32ZM334.71,-91.70L365.10,-197.58L386.28,-191.51L382.23,-177.39L389.29,-175.36L391.31,-182.42L398.37,-180.39L400.40,-187.45L428.63,-179.35L426.60,-172.29L433.66,-170.26L431.64,-163.21L438.70,-161.18L434.64,-147.06L427.59,-149.09L425.56,-142.03L418.50,-144.06L420.53,-151.11L413.47,-153.14L415.49,-160.20L394.32,-166.28L392.29,-159.22L385.23,-161.24L383.21,-154.19L376.15,-156.21L355.89,-85.62ZM431.33,-63.97L461.72,-169.85L482.90,-163.78L452.51,-57.89ZM465.77,-183.97L471.85,-205.15L493.02,-199.07L486.95,-177.89ZM482.89,-79.73L497.07,-129.15L504.13,-127.12L508.18,-141.24L515.24,-139.21L517.27,-146.27L531.38,-142.22L533.41,-149.28L561.64,-141.17L559.62,-134.11L573.74,-130.06L571.71,-123.00L578.77,-120.98L574.72,-106.86L581.78,-104.83L573.67,-76.60L510.14,-94.83L504.07,-73.66L511.12,-71.63L509.10,-64.57L537.33,-56.47L539.36,-63.53L546.42,-61.50L548.44,-68.56L569.62,-62.48L565.57,-48.36L558.51,-50.39L556.48,-43.33L549.43,-45.36L547.40,-38.30L533.28,-42.35L531.26,-35.29L503.02,-43.40L505.05,-50.45L490.93,-54.51L492.95,-61.57L485.90,-63.59L489.95,-77.71ZM514.20,-108.95L556.55,-96.80L560.60,-110.91L553.54,-112.94L555.57,-120.00L527.33,-128.10L525.31,-121.04L518.25,-123.07ZM580.45,-21.17L610.84,-127.06L632.01,-120.98L627.96,-106.86L635.02,-104.83L637.04,-111.89L644.10,-109.87L646.13,-116.93L667.31,-110.85L665.28,-103.79L679.40,-99.74L677.37,-92.68L684.43,-90.65L680.38,-76.54L687.44,-74.51L665.15,3.14L643.98,-2.94L666.26,-80.59L659.20,-82.61L661.23,-89.67L640.05,-95.75L638.03,-88.69L630.97,-90.72L628.94,-83.66L621.88,-85.68L601.62,-15.10Z" fill="#ffffff" stroke="#000000"/>
    <path d="M-656.10,-461.09L-649.12,-481.74L-607.82,-467.78L-593.86,-509.07L-573.21,-502.09L-587.17,-460.80L-545.87,-446.83L-552.86,-426.18L-594.15,-440.15L-608.12,-398.85L-628.77,-405.83L-614.80,-447.13ZM-488.28,-350.66L-441.73,-488.31L-407.31,-476.68L-414.30,-456.03L-407.41,-453.70L-412.07,-439.93L-405.19,-437.61L-412.17,-416.96L-405.29,-414.63L-412.27,-393.98L-405.38,-391.65L-414.69,-364.12L-407.81,-361.80L-398.50,-389.33L-391.62,-387.00L-384.64,-407.65L-377.75,-405.32L-370.77,-425.97L-363.89,-423.64L-359.23,-437.41L-352.35,-435.08L-345.37,-455.73L-310.96,-444.09L-357.50,-306.44L-378.15,-313.42L-343.24,-416.66L-350.12,-418.99L-354.78,-405.22L-361.66,-407.55L-370.97,-380.02L-377.85,-382.35L-387.16,-354.81L-394.05,-357.14L-401.03,-336.49L-407.91,-338.82L-412.57,-325.06L-433.21,-332.04L-428.56,-345.80L-435.44,-348.13L-428.46,-368.78L-435.34,-371.11L-426.03,-398.64L-432.92,-400.96L-423.61,-428.50L-430.49,-430.82L-425.83,-444.59L-432.72,-446.92L-467.63,-343.67ZM-326.47,-326.62L-310.18,-374.80L-303.30,-372.47L-298.64,-386.24L-291.76,-383.91L-289.43,-390.79L-275.67,-386.14L-273.34,-393.02L-245.81,-383.71L-248.13,-376.83L-241.25,-374.50L-243.58,-367.62L-236.70,-365.29L-232.04,-379.06L-211.39,-372.08L-246.30,-268.83L-266.95,-275.82L-262.30,-289.58L-269.18,-291.91L-271.51,-285.03L-278.39,-287.35L-280.72,-280.47L-308.25,-289.78L-305.92,-296.66L-319.69,-301.32L-317.36,-308.20L-324.24,-310.53L-319.59,-324.29ZM-305.82,-319.64L-298.94,-317.31L-301.27,-310.43L-273.74,-301.12L-271.41,-308.00L-264.53,-305.67L-262.20,-312.56L-255.32,-310.23L-243.68,-344.64L-250.56,-346.97L-248.23,-353.85L-255.12,-356.18L-252.79,-363.06L-280.32,-372.37L-282.65,-365.49L-289.53,-367.82ZM-223.93,-261.27L-189.02,-364.51L-168.38,-357.53L-173.03,-343.76L-166.15,-341.44L-163.82,-348.32L-156.94,-345.99L-154.61,-352.87L-127.08,-343.57L-129.41,-336.68L-122.52,-334.36L-124.85,-327.47L-117.97,-325.14L-122.62,-311.38L-129.51,-313.71L-131.83,-306.82L-138.72,-309.15L-136.39,-316.03L-143.27,-318.36L-140.94,-325.24L-161.59,-332.23L-163.92,-325.34L-170.80,-327.67L-173.13,-320.79L-180.01,-323.12L-203.29,-254.29ZM-123.64,-258.04L-107.35,-306.22L-100.47,-303.89L-95.81,-317.65L-88.93,-315.33L-86.60,-322.21L-72.84,-317.55L-70.51,-324.44L-42.98,-315.13L-45.31,-308.24L-31.54,-303.59L-33.87,-296.71L-26.99,-294.38L-33.97,-273.73L-47.73,-278.39L-45.41,-285.27L-52.29,-287.60L-49.96,-294.48L-77.49,-303.79L-79.82,-296.91L-86.70,-299.23L-103.00,-251.05L-96.11,-248.73L-98.44,-241.84L-70.91,-232.53L-68.58,-239.42L-61.70,-237.09L-59.37,-243.97L-45.61,-239.32L-52.59,-218.67L-59.47,-221.00L-61.80,-214.11L-75.56,-218.77L-77.89,-211.89L-105.42,-221.20L-103.09,-228.08L-116.86,-232.73L-114.53,-239.62L-121.42,-241.94L-116.76,-255.71ZM38.67,-218.49L57.29,-273.55L64.17,-271.22L68.83,-284.99L75.71,-282.66L78.04,-289.55L84.92,-287.22L87.25,-294.10L94.13,-291.77L96.46,-298.66L117.11,-291.67L119.43,-298.56L153.85,-286.92L151.52,-280.04L172.17,-273.05L169.84,-266.17L176.72,-263.84L174.40,-256.96L181.28,-254.63L178.95,-247.75L185.83,-245.42L181.18,-231.66L188.06,-229.33L169.44,-174.27L162.56,-176.60L157.90,-162.83L151.02,-165.16L148.69,-158.28L141.81,-160.60L139.48,-153.72L132.60,-156.05L130.27,-149.16L109.63,-156.15L107.30,-149.26L72.88,-160.90L75.21,-167.78L54.56,-174.77L56.89,-181.65L50.01,-183.98L52.34,-190.86L45.45,-193.19L47.78,-200.07L40.90,-202.40L45.55,-216.16ZM63.97,-225.27L70.86,-222.95L66.20,-209.18L73.08,-206.85L70.76,-199.97L77.64,-197.64L75.31,-190.76L89.08,-186.11L86.75,-179.22L107.40,-172.24L109.73,-179.12L123.49,-174.47L125.82,-181.35L132.70,-179.02L135.03,-185.91L141.91,-183.58L146.57,-197.34L153.45,-195.02L162.76,-222.55L155.88,-224.88L160.53,-238.64L153.65,-240.97L155.98,-247.85L149.09,-250.18L151.42,-257.06L137.65,-261.72L139.98,-268.60L119.33,-275.58L117.01,-268.70L103.24,-273.35L100.91,-266.47L94.03,-268.80L91.70,-261.91L84.82,-264.24L80.17,-250.48L73.28,-252.80ZM207.17,-230.54L218.80,-264.96L232.57,-260.30L220.93,-225.89ZM210.97,-114.21L257.52,-251.86L326.35,-228.59L324.02,-221.71L330.90,-219.38L328.57,-212.50L335.46,-210.17L333.13,-203.29L340.01,-200.96L328.38,-166.55L321.49,-168.87L316.84,-155.11L323.72,-152.78L321.39,-145.90L328.28,-143.57L314.31,-102.27L307.43,-104.60L305.10,-97.72L298.22,-100.04L295.89,-93.16L289.01,-95.49L286.68,-88.61ZM238.60,-127.87L286.78,-111.58L289.11,-118.47L295.99,-116.14L305.30,-143.67L298.42,-146.00L300.74,-152.88L252.57,-169.17ZM259.55,-189.82L300.84,-175.85L303.17,-182.74L310.05,-180.41L317.04,-201.06L310.15,-203.39L312.48,-210.27L271.18,-224.23ZM328.84,-74.35L363.75,-177.59L384.40,-170.61L379.74,-156.85L386.63,-154.52L388.95,-161.40L395.84,-159.07L398.16,-165.96L425.69,-156.65L423.37,-149.76L430.25,-147.44L427.92,-140.55L434.80,-138.23L430.15,-124.46L423.27,-126.79L420.94,-119.91L414.06,-122.23L416.38,-129.12L409.50,-131.44L411.83,-138.33L391.18,-145.31L388.85,-138.42L381.97,-140.75L379.64,-133.87L372.76,-136.20L349.49,-67.37ZM423.05,-42.50L457.96,-145.74L478.61,-138.75L443.69,-35.51ZM462.61,-159.50L469.59,-180.15L490.24,-173.17L483.26,-152.52ZM474.73,-55.70L491.02,-103.88L497.90,-101.55L502.56,-115.32L509.44,-112.99L511.77,-119.87L525.53,-115.22L527.86,-122.10L555.39,-112.79L553.06,-105.91L566.83,-101.25L564.50,-94.37L571.38,-92.04L566.73,-78.28L573.61,-75.95L564.30,-48.42L502.36,-69.36L495.38,-48.72L502.26,-46.39L499.93,-39.51L527.46,-30.20L529.79,-37.08L536.67,-34.75L539.00,-41.63L559.65,-34.65L554.99,-20.89L548.11,-23.21L545.78,-16.33L538.90,-18.66L536.57,-11.78L522.81,-16.43L520.48,-9.55L492.95,-18.86L495.28,-25.74L481.51,-30.40L483.84,-37.28L476.96,-39.61L481.61,-53.37ZM507.01,-83.13L548.31,-69.17L552.96,-82.93L546.08,-85.26L548.41,-92.14L520.88,-101.45L518.55,-94.57L511.67,-96.90ZM568.44,6.67L603.36,-96.57L624.00,-89.59L619.35,-75.82L626.23,-73.50L628.56,-80.38L635.44,-78.05L637.77,-84.93L658.42,-77.95L656.09,-71.07L669.86,-66.41L667.53,-59.53L674.41,-57.20L669.76,-43.44L676.64,-41.11L651.04,34.60L630.39,27.62L655.99,-48.09L649.11,-50.42L651.44,-57.30L630.79,-64.29L628.46,-57.40L621.58,-59.73L619.25,-52.85L612.37,-55.17L589.09,13.65Z" fill="#ffffff" stroke="#000000"/>
    <path d="M-633.25,-485.30L-625.39,-505.39L-585.23,-489.68L-569.53,-529.85L-549.45,-522.00L-565.15,-481.83L-524.98,-466.13L-532.83,-446.05L-573.00,-461.75L-588.70,-421.59L-608.78,-429.44L-593.08,-469.60ZM-472.49,-368.44L-420.16,-502.32L-386.69,-489.24L-394.54,-469.16L-387.84,-466.54L-393.08,-453.15L-386.38,-450.54L-394.23,-430.45L-387.54,-427.84L-395.39,-407.75L-388.70,-405.14L-399.16,-378.36L-392.47,-375.74L-382.00,-402.52L-375.31,-399.90L-367.46,-419.99L-360.76,-417.37L-352.91,-437.45L-346.22,-434.83L-340.98,-448.22L-334.29,-445.61L-326.44,-465.69L-292.97,-452.60L-345.31,-318.72L-365.39,-326.57L-326.13,-426.98L-332.83,-429.60L-338.06,-416.21L-344.76,-418.83L-355.22,-392.05L-361.92,-394.67L-372.39,-367.89L-379.08,-370.51L-386.93,-350.43L-393.63,-353.04L-398.86,-339.66L-418.94,-347.51L-413.71,-360.89L-420.40,-363.51L-412.55,-383.59L-419.25,-386.21L-408.78,-412.99L-415.47,-415.60L-405.00,-442.38L-411.70,-445.00L-406.46,-458.39L-413.16,-461.00L-452.41,-360.59ZM-313.71,-337.24L-295.39,-384.10L-288.70,-381.48L-283.46,-394.87L-276.77,-392.25L-274.15,-398.94L-260.76,-393.71L-258.15,-400.40L-231.37,-389.94L-233.99,-383.24L-227.29,-380.63L-229.91,-373.93L-223.22,-371.32L-217.98,-384.70L-197.90,-376.85L-237.15,-276.44L-257.24,-284.29L-252.00,-297.68L-258.70,-300.30L-261.31,-293.60L-268.01,-296.22L-270.62,-289.52L-297.40,-299.99L-294.78,-306.69L-308.17,-311.92L-305.56,-318.61L-312.25,-321.23L-307.02,-334.62ZM-293.63,-329.39L-286.93,-326.77L-289.55,-320.07L-262.77,-309.61L-260.16,-316.30L-253.46,-313.68L-250.85,-320.38L-244.15,-317.76L-231.07,-351.23L-237.76,-353.85L-235.14,-360.54L-241.84,-363.16L-239.22,-369.85L-266.00,-380.32L-268.61,-373.63L-275.31,-376.25ZM-215.40,-267.94L-176.14,-368.35L-156.06,-360.50L-161.29,-347.11L-154.60,-344.49L-151.98,-351.19L-145.29,-348.57L-142.67,-355.26L-115.90,-344.80L-118.51,-338.10L-111.82,-335.48L-114.44,-328.79L-107.74,-326.17L-112.98,-312.78L-119.67,-315.40L-122.29,-308.71L-128.98,-311.32L-126.36,-318.02L-133.06,-320.64L-130.44,-327.33L-150.52,-335.18L-153.14,-328.49L-159.83,-331.10L-162.45,-324.41L-169.15,-327.03L-195.31,-260.08ZM-116.44,-260.12L-98.12,-306.98L-91.43,-304.36L-86.19,-317.75L-79.50,-315.13L-76.88,-321.83L-63.50,-316.59L-60.88,-323.29L-34.10,-312.82L-36.72,-306.13L-23.33,-300.89L-25.95,-294.20L-19.25,-291.58L-27.10,-271.50L-40.49,-276.73L-37.87,-283.43L-44.57,-286.04L-41.95,-292.74L-68.73,-303.21L-71.35,-296.51L-78.04,-299.13L-96.36,-252.27L-89.66,-249.65L-92.28,-242.96L-65.50,-232.49L-62.89,-239.18L-56.19,-236.57L-53.58,-243.26L-40.19,-238.03L-48.04,-217.94L-54.73,-220.56L-57.35,-213.87L-70.74,-219.10L-73.36,-212.41L-100.13,-222.88L-97.52,-229.57L-110.90,-234.80L-108.29,-241.50L-114.98,-244.11L-109.75,-257.50ZM42.13,-213.56L63.07,-267.12L69.76,-264.50L74.99,-277.89L81.69,-275.27L84.31,-281.97L91.00,-279.35L93.62,-286.04L100.31,-283.43L102.93,-290.12L123.01,-282.27L125.63,-288.96L159.10,-275.88L156.48,-269.18L176.56,-261.33L173.95,-254.64L180.64,-252.02L178.02,-245.33L184.72,-242.71L182.10,-236.02L188.80,-233.40L183.56,-220.01L190.26,-217.40L169.32,-163.84L162.63,-166.46L157.39,-153.07L150.70,-155.69L148.08,-148.99L141.39,-151.61L138.77,-144.92L132.08,-147.53L129.46,-140.84L109.38,-148.69L106.76,-142.00L73.29,-155.08L75.91,-161.77L55.82,-169.63L58.44,-176.32L51.75,-178.94L54.36,-185.63L47.67,-188.25L50.29,-194.94L43.59,-197.56L48.83,-210.95ZM67.45,-219.10L74.14,-216.48L68.91,-203.10L75.60,-200.48L72.99,-193.79L79.68,-191.17L77.06,-184.47L90.45,-179.24L87.83,-172.55L107.92,-164.70L110.53,-171.39L123.92,-166.16L126.54,-172.85L133.23,-170.23L135.85,-176.93L142.54,-174.31L147.78,-187.70L154.47,-185.08L164.94,-211.86L158.25,-214.47L163.48,-227.86L156.78,-230.48L159.40,-237.17L152.71,-239.79L155.32,-246.49L141.94,-251.72L144.55,-258.41L124.47,-266.26L121.85,-259.57L108.47,-264.80L105.85,-258.11L99.15,-260.73L96.54,-254.03L89.84,-256.65L84.61,-243.26L77.92,-245.88ZM209.19,-217.71L222.27,-251.18L235.66,-245.95L222.58,-212.48ZM207.59,-102.58L259.93,-236.46L326.87,-210.29L324.25,-203.60L330.95,-200.98L328.33,-194.29L335.03,-191.67L332.41,-184.98L339.10,-182.36L326.02,-148.89L319.32,-151.51L314.09,-138.12L320.78,-135.50L318.17,-128.81L324.86,-126.19L309.16,-86.02L302.47,-88.64L299.85,-81.95L293.15,-84.56L290.54,-77.87L283.84,-80.49L281.23,-73.79ZM235.52,-114.81L282.38,-96.49L285.00,-103.19L291.69,-100.57L302.16,-127.35L295.47,-129.96L298.08,-136.66L251.23,-154.98ZM259.08,-175.06L299.24,-159.36L301.86,-166.05L308.55,-163.43L316.40,-183.52L309.71,-186.13L312.33,-192.83L272.16,-208.53ZM322.23,-57.76L361.48,-158.18L381.56,-150.33L376.33,-136.94L383.02,-134.32L385.64,-141.01L392.34,-138.40L394.95,-145.09L421.73,-134.62L419.11,-127.93L425.81,-125.31L423.19,-118.62L429.88,-116.00L424.65,-102.61L417.96,-105.23L415.34,-98.54L408.64,-101.15L411.26,-107.85L404.57,-110.46L407.18,-117.16L387.10,-125.01L384.49,-118.31L377.79,-120.93L375.17,-114.24L368.48,-116.85L342.31,-49.91ZM413.85,-21.94L453.11,-122.36L473.19,-114.51L433.94,-14.09ZM458.34,-135.75L466.19,-155.83L486.28,-147.98L478.42,-127.89ZM465.53,-32.61L483.85,-79.47L490.55,-76.85L495.78,-90.24L502.47,-87.62L505.09,-94.32L518.48,-89.08L521.10,-95.78L547.87,-85.31L545.26,-78.62L558.64,-73.38L556.03,-66.69L562.72,-64.07L557.49,-50.68L564.18,-48.07L553.71,-21.29L493.47,-44.84L485.62,-24.76L492.31,-22.14L489.69,-15.45L516.47,-4.98L519.09,-11.68L525.78,-9.06L528.40,-15.75L548.48,-7.90L543.25,5.49L536.55,2.87L533.94,9.56L527.24,6.95L524.62,13.64L511.24,8.41L508.62,15.10L481.84,4.63L484.46,-2.06L471.07,-7.29L473.69,-13.99L466.99,-16.61L472.23,-29.99ZM498.70,-58.23L538.87,-42.53L544.10,-55.92L537.41,-58.53L540.02,-65.23L513.25,-75.70L510.63,-69.00L503.93,-71.62ZM555.27,33.34L594.52,-67.07L614.61,-59.22L609.37,-45.84L616.07,-43.22L618.68,-49.91L625.38,-47.30L627.99,-53.99L648.08,-46.14L645.46,-39.44L658.85,-34.21L656.23,-27.52L662.92,-24.90L657.69,-11.51L664.39,-8.89L635.60,64.74L615.52,56.89L644.30,-16.75L637.61,-19.36L640.23,-26.06L620.14,-33.91L617.53,-27.21L610.83,-29.83L608.21,-23.14L601.52,-25.75L575.35,41.19Z" fill="#ffffff" stroke="#000000"/>
    <path d="M-609.43,-508.40L-600.75,-527.88L-561.78,-510.52L-544.42,-549.48L-524.94,-540.80L-542.30,-501.84L-503.34,-484.47L-512.02,-464.99L-550.99,-482.36L-568.35,-443.40L-587.83,-452.08L-570.47,-491.04ZM-455.98,-385.53L-398.10,-515.41L-365.63,-500.94L-374.31,-481.46L-367.82,-478.56L-373.61,-465.57L-367.11,-462.68L-375.80,-443.20L-369.30,-440.31L-377.98,-420.82L-371.49,-417.93L-383.07,-391.96L-376.57,-389.06L-365.00,-415.04L-358.50,-412.14L-349.82,-431.62L-343.33,-428.73L-334.65,-448.21L-328.15,-445.32L-322.36,-458.30L-315.87,-455.41L-307.19,-474.89L-274.72,-460.42L-332.60,-330.55L-352.08,-339.23L-308.67,-436.63L-315.17,-439.53L-320.95,-426.54L-327.45,-429.44L-339.02,-403.46L-345.52,-406.35L-357.09,-380.38L-363.59,-383.27L-372.27,-363.79L-378.76,-366.69L-384.55,-353.70L-404.03,-362.38L-398.24,-375.37L-404.74,-378.26L-396.05,-397.74L-402.55,-400.64L-390.97,-426.61L-397.47,-429.51L-385.89,-455.48L-392.38,-458.38L-386.60,-471.36L-393.09,-474.26L-436.50,-376.85ZM-300.53,-347.39L-280.27,-392.84L-273.78,-389.95L-267.99,-402.94L-261.50,-400.04L-258.60,-406.54L-245.61,-400.75L-242.72,-407.24L-216.75,-395.67L-219.64,-389.17L-213.15,-386.28L-216.04,-379.78L-209.55,-376.89L-203.76,-389.88L-184.28,-381.20L-227.69,-283.79L-247.17,-292.47L-241.38,-305.46L-247.87,-308.35L-250.77,-301.86L-257.26,-304.75L-260.16,-298.26L-286.13,-309.84L-283.24,-316.33L-296.22,-322.12L-293.33,-328.61L-299.82,-331.51L-294.03,-344.49ZM-281.05,-338.71L-274.55,-335.81L-277.45,-329.32L-251.47,-317.74L-248.58,-324.24L-242.09,-321.34L-239.19,-327.84L-232.70,-324.94L-218.23,-357.41L-224.72,-360.30L-221.83,-366.80L-228.32,-369.69L-225.43,-376.19L-251.40,-387.76L-254.30,-381.27L-260.79,-384.16ZM-206.58,-274.39L-163.17,-371.79L-143.69,-363.11L-149.48,-350.12L-142.99,-347.23L-140.09,-353.72L-133.60,-350.83L-130.70,-357.32L-104.73,-345.74L-107.62,-339.25L-101.13,-336.36L-104.02,-329.86L-97.53,-326.97L-103.32,-313.98L-109.81,-316.88L-112.71,-310.38L-119.20,-313.28L-116.31,-319.77L-122.80,-322.66L-119.90,-329.16L-139.39,-337.84L-142.28,-331.35L-148.77,-334.24L-151.67,-327.75L-158.16,-330.64L-187.10,-265.70ZM-109.17,-262.11L-88.91,-307.56L-82.42,-304.67L-76.63,-317.65L-70.13,-314.76L-67.24,-321.25L-54.25,-315.47L-51.36,-321.96L-25.38,-310.38L-28.28,-303.89L-15.29,-298.10L-18.18,-291.61L-11.69,-288.71L-20.37,-269.23L-33.36,-275.02L-30.47,-281.51L-36.96,-284.41L-34.07,-290.90L-60.04,-302.48L-62.94,-295.98L-69.43,-298.88L-89.69,-253.42L-83.19,-250.53L-86.09,-244.04L-60.11,-232.46L-57.22,-238.95L-50.72,-236.06L-47.83,-242.55L-34.84,-236.76L-43.53,-217.28L-50.02,-220.18L-52.91,-213.68L-65.90,-219.47L-68.79,-212.98L-94.77,-224.55L-91.88,-231.05L-104.86,-236.84L-101.97,-243.33L-108.46,-246.22L-102.67,-259.21ZM45.37,-208.80L68.52,-260.75L75.01,-257.86L80.80,-270.84L87.29,-267.95L90.19,-274.44L96.68,-271.55L99.58,-278.04L106.07,-275.15L108.96,-281.64L128.44,-272.96L131.34,-279.46L163.81,-264.99L160.91,-258.49L180.39,-249.81L177.50,-243.32L183.99,-240.42L181.10,-233.93L187.59,-231.03L184.70,-224.54L191.19,-221.65L185.40,-208.66L191.90,-205.77L168.75,-153.82L162.25,-156.71L156.46,-143.72L149.97,-146.62L147.08,-140.12L140.58,-143.02L137.69,-136.52L131.20,-139.42L128.30,-132.92L108.82,-141.61L105.93,-135.11L73.46,-149.58L76.35,-156.08L56.87,-164.76L59.76,-171.25L53.27,-174.15L56.17,-180.64L49.67,-183.53L52.57,-190.03L46.07,-192.92L51.86,-205.91ZM70.64,-213.11L77.13,-210.21L71.34,-197.23L77.83,-194.33L74.94,-187.84L81.43,-184.94L78.54,-178.45L91.53,-172.66L88.63,-166.17L108.11,-157.49L111.01,-163.98L124.00,-158.19L126.89,-164.69L133.38,-161.79L136.28,-168.29L142.77,-165.39L148.56,-178.38L155.05,-175.49L166.63,-201.46L160.14,-204.35L165.92,-217.34L159.43,-220.24L162.32,-226.73L155.83,-229.62L158.72,-236.12L145.74,-241.90L148.63,-248.40L129.15,-257.08L126.26,-250.59L113.27,-256.37L110.37,-249.88L103.88,-252.77L100.99,-246.28L94.49,-249.18L88.70,-236.19L82.21,-239.08ZM210.62,-205.20L225.09,-237.67L238.08,-231.89L223.61,-199.42ZM203.74,-91.52L261.62,-221.39L326.55,-192.45L323.66,-185.96L330.15,-183.07L327.26,-176.57L333.75,-173.68L330.86,-167.19L337.35,-164.29L322.88,-131.82L316.39,-134.72L310.60,-121.73L317.10,-118.84L314.20,-112.34L320.70,-109.45L303.33,-70.49L296.84,-73.38L293.94,-66.89L287.45,-69.78L284.56,-63.29L278.06,-66.18L275.17,-59.69ZM231.90,-102.32L277.36,-82.06L280.25,-88.56L286.74,-85.66L298.32,-111.64L291.83,-114.53L294.72,-121.02L249.26,-141.28ZM257.95,-160.76L296.91,-143.40L299.80,-149.89L306.30,-147.00L314.98,-166.48L308.48,-169.37L311.38,-175.87L272.42,-193.23ZM314.94,-41.96L358.35,-139.37L377.83,-130.68L372.05,-117.70L378.54,-114.80L381.43,-121.30L387.93,-118.40L390.82,-124.90L416.80,-113.32L413.90,-106.83L420.39,-103.93L417.50,-97.44L423.99,-94.55L418.21,-81.56L411.71,-84.45L408.82,-77.96L402.33,-80.85L405.22,-87.35L398.73,-90.24L401.62,-96.73L382.14,-105.42L379.24,-98.92L372.75,-101.82L369.86,-95.32L363.36,-98.22L334.42,-33.28ZM403.82,-2.35L447.23,-99.75L466.72,-91.07L423.31,6.33ZM453.02,-112.74L461.70,-132.22L481.19,-123.54L472.50,-104.06ZM455.38,-10.51L475.64,-55.96L482.13,-53.07L487.92,-66.06L494.41,-63.16L497.30,-69.66L510.29,-63.87L513.19,-70.36L539.16,-58.79L536.27,-52.29L549.25,-46.50L546.36,-40.01L552.85,-37.12L547.07,-24.13L553.56,-21.24L541.98,4.74L483.54,-21.31L474.86,-1.83L481.35,1.07L478.46,7.56L504.43,19.14L507.33,12.64L513.82,15.54L516.71,9.04L536.20,17.73L530.41,30.71L523.91,27.82L521.02,34.31L514.53,31.42L511.63,37.91L498.64,32.13L495.75,38.62L469.78,27.04L472.67,20.55L459.68,14.76L462.58,8.27L456.08,5.37L461.87,-7.61ZM489.33,-34.29L528.29,-16.93L534.08,-29.92L527.58,-32.81L530.48,-39.31L504.50,-50.88L501.61,-44.39L495.12,-47.28ZM541.00,58.79L584.41,-38.62L603.89,-29.94L598.11,-16.95L604.60,-14.06L607.49,-20.55L613.99,-17.66L616.88,-24.15L636.36,-15.47L633.47,-8.97L646.46,-3.19L643.56,3.31L650.06,6.20L644.27,19.19L650.76,22.08L618.93,93.51L599.45,84.83L631.28,13.40L624.79,10.51L627.68,4.01L608.20,-4.67L605.31,1.83L598.81,-1.07L595.92,5.43L589.42,2.53L560.48,67.47Z" fill="#ffffff" stroke="#000000"/>
    <path d="M-584.70,-530.35L-575.23,-549.20L-537.53,-530.25L-518.59,-567.94L-499.74,-558.47L-518.69,-520.77L-481.00,-501.82L-490.47,-482.98L-528.16,-501.93L-547.11,-464.23L-565.96,-473.71L-547.01,-511.40ZM-438.76,-401.90L-375.60,-527.54L-344.19,-511.75L-353.66,-492.90L-347.38,-489.74L-353.70,-477.18L-347.42,-474.02L-356.89,-455.17L-350.61,-452.02L-360.08,-433.17L-353.80,-430.01L-366.43,-404.88L-360.15,-401.72L-347.52,-426.85L-341.24,-423.69L-331.76,-442.54L-325.48,-439.38L-316.01,-458.23L-309.72,-455.07L-303.41,-467.64L-297.12,-464.48L-287.65,-483.32L-256.24,-467.53L-319.40,-341.89L-338.25,-351.37L-290.88,-445.60L-297.16,-448.75L-303.48,-436.19L-309.76,-439.35L-322.39,-414.22L-328.67,-417.38L-341.30,-392.25L-347.59,-395.41L-357.06,-376.56L-363.34,-379.72L-369.66,-367.16L-388.51,-376.63L-382.19,-389.19L-388.47,-392.35L-379.00,-411.20L-385.28,-414.36L-372.65,-439.49L-378.93,-442.64L-366.30,-467.77L-372.58,-470.93L-366.26,-483.49L-372.54,-486.65L-419.92,-392.42ZM-286.94,-357.05L-264.84,-401.03L-258.55,-397.87L-252.24,-410.43L-245.96,-407.27L-242.80,-413.56L-230.23,-407.24L-227.07,-413.52L-201.95,-400.89L-205.10,-394.61L-198.82,-391.45L-201.98,-385.17L-195.70,-382.01L-189.38,-394.57L-170.54,-385.10L-217.91,-290.87L-236.75,-300.34L-230.44,-312.91L-236.72,-316.06L-239.88,-309.78L-246.16,-312.94L-249.32,-306.66L-274.45,-319.29L-271.29,-325.57L-283.85,-331.89L-280.69,-338.17L-286.98,-341.33L-280.66,-353.89ZM-268.10,-347.58L-261.81,-344.42L-264.97,-338.14L-239.84,-325.50L-236.69,-331.79L-230.40,-328.63L-227.25,-334.91L-220.96,-331.75L-205.17,-363.16L-211.45,-366.32L-208.30,-372.60L-214.58,-375.76L-211.42,-382.04L-236.55,-394.68L-239.71,-388.39L-245.99,-391.55ZM-197.49,-280.60L-150.12,-374.83L-131.27,-365.36L-137.59,-352.80L-131.31,-349.64L-128.15,-355.92L-121.87,-352.76L-118.71,-359.04L-93.58,-346.41L-96.74,-340.13L-90.46,-336.97L-93.61,-330.69L-87.33,-327.53L-93.65,-314.97L-99.93,-318.12L-103.09,-311.84L-109.37,-315.00L-106.21,-321.28L-112.50,-324.44L-109.34,-330.72L-128.18,-340.20L-131.34,-333.92L-137.62,-337.07L-140.78,-330.79L-147.06,-333.95L-178.65,-271.13ZM-101.82,-263.98L-79.71,-307.96L-73.43,-304.80L-67.11,-317.36L-60.83,-314.21L-57.67,-320.49L-45.11,-314.17L-41.95,-320.45L-16.82,-307.82L-19.98,-301.54L-7.42,-295.22L-10.57,-288.94L-4.29,-285.78L-13.77,-266.94L-26.33,-273.25L-23.17,-279.54L-29.45,-282.69L-26.30,-288.98L-51.42,-301.61L-54.58,-295.33L-60.86,-298.48L-82.97,-254.51L-76.69,-251.35L-79.85,-245.07L-54.72,-232.44L-51.56,-238.72L-45.28,-235.56L-42.12,-241.84L-29.56,-235.53L-39.03,-216.68L-45.31,-219.84L-48.47,-213.56L-61.04,-219.87L-64.19,-213.59L-89.32,-226.22L-86.16,-232.51L-98.73,-238.82L-95.57,-245.10L-101.85,-248.26L-95.54,-260.83ZM48.40,-204.21L73.66,-254.46L79.95,-251.31L86.26,-263.87L92.54,-260.71L95.70,-266.99L101.98,-263.84L105.14,-270.12L111.42,-266.96L114.58,-273.24L133.43,-263.77L136.59,-270.05L168.00,-254.26L164.84,-247.98L183.68,-238.50L180.53,-232.22L186.81,-229.06L183.65,-222.78L189.93,-219.62L186.77,-213.34L193.06,-210.18L186.74,-197.62L193.02,-194.46L167.76,-144.20L161.48,-147.36L155.16,-134.80L148.88,-137.95L145.72,-131.67L139.44,-134.83L136.28,-128.55L130.00,-131.71L126.84,-125.42L107.99,-134.90L104.83,-128.62L73.42,-144.41L76.58,-150.69L57.74,-160.16L60.89,-166.45L54.61,-169.60L57.77,-175.89L51.49,-179.04L54.65,-185.33L48.36,-188.48L54.68,-201.05ZM73.56,-207.30L79.84,-204.14L73.53,-191.57L79.81,-188.42L76.65,-182.13L82.93,-178.98L79.77,-172.69L92.34,-166.38L89.18,-160.10L108.03,-150.62L111.18,-156.90L123.75,-150.59L126.91,-156.87L133.19,-153.71L136.35,-159.99L142.63,-156.83L148.95,-169.40L155.23,-166.24L167.86,-191.37L161.58,-194.53L167.89,-207.09L161.61,-210.25L164.77,-216.53L158.49,-219.69L161.65,-225.97L149.08,-232.29L152.24,-238.57L133.39,-248.04L130.24,-241.76L117.67,-248.08L114.51,-241.80L108.23,-244.96L105.07,-238.67L98.79,-241.83L92.48,-229.27L86.19,-232.43ZM211.49,-193.04L227.28,-224.45L239.85,-218.14L224.06,-186.73ZM199.46,-81.05L262.62,-206.69L325.44,-175.11L322.28,-168.83L328.57,-165.67L325.41,-159.38L331.69,-156.23L328.53,-149.94L334.81,-146.79L319.02,-115.38L312.74,-118.53L306.42,-105.97L312.71,-102.81L309.55,-96.53L315.83,-93.37L296.88,-55.68L290.60,-58.84L287.44,-52.56L281.16,-55.71L278.00,-49.43L271.72,-52.59L268.56,-46.31ZM227.78,-90.42L271.75,-68.31L274.91,-74.59L281.19,-71.44L293.83,-96.56L287.54,-99.72L290.70,-106.00L246.73,-128.11ZM256.20,-146.96L293.89,-128.01L297.05,-134.29L303.33,-131.13L312.81,-149.98L306.53,-153.14L309.69,-159.42L271.99,-178.37ZM307.04,-26.96L354.41,-121.19L373.26,-111.72L366.94,-99.16L373.22,-96.00L376.38,-102.28L382.66,-99.12L385.82,-105.40L410.95,-92.77L407.79,-86.49L414.07,-83.33L410.92,-77.05L417.20,-73.89L410.88,-61.33L404.60,-64.49L401.44,-58.20L395.16,-61.36L398.32,-67.64L392.03,-70.80L395.19,-77.08L376.35,-86.56L373.19,-80.28L366.91,-83.43L363.75,-77.15L357.47,-80.31L325.88,-17.49ZM393.02,16.26L440.40,-77.97L459.24,-68.49L411.87,25.74ZM446.71,-90.53L456.19,-109.38L475.03,-99.90L465.56,-81.06ZM444.33,10.58L466.44,-33.40L472.72,-30.24L479.04,-42.80L485.32,-39.64L488.48,-45.93L501.04,-39.61L504.20,-45.89L529.33,-33.26L526.17,-26.98L538.73,-20.66L535.58,-14.38L541.86,-11.22L535.54,1.34L541.82,4.50L529.19,29.63L472.65,1.21L463.18,20.05L469.46,23.21L466.30,29.49L491.43,42.12L494.59,35.84L500.87,39.00L504.03,32.72L522.87,42.19L516.56,54.76L510.28,51.60L507.12,57.88L500.84,54.72L497.68,61.01L485.11,54.69L481.96,60.97L456.83,48.34L459.98,42.06L447.42,35.74L450.58,29.46L444.30,26.30L450.61,13.74ZM478.97,-11.36L516.66,7.59L522.98,-4.97L516.69,-8.13L519.85,-14.41L494.72,-27.05L491.57,-20.76L485.28,-23.92ZM525.73,82.98L573.11,-11.25L591.95,-1.78L585.64,10.79L591.92,13.94L595.08,7.66L601.36,10.82L604.52,4.54L623.36,14.01L620.20,20.30L632.77,26.61L629.61,32.89L635.89,36.05L629.58,48.62L635.86,51.77L601.12,120.88L582.27,111.40L617.01,42.30L610.73,39.14L613.89,32.86L595.04,23.39L591.88,29.67L585.60,26.51L582.44,32.79L576.16,29.63L544.58,92.45Z" fill="#ffffff" stroke="#000000"/>
    <path d="M-913,471.81L-913,468.25L-892.81,468.25L-892.81,471.81L-901.13,471.81L-901.13,492L-904.69,492L-904.69,471.81ZM-891.03,487.25L-891.03,478.94L-889.84,478.94L-889.84,476.56L-888.66,476.56L-888.66,475.38L-886.28,475.38L-886.28,474.19L-881.53,474.19L-881.53,475.38L-879.16,475.38L-879.16,476.56L-877.97,476.56L-877.97,478.94L-876.78,478.94L-876.78,483.69L-887.47,483.69L-887.47,487.25L-886.28,487.25L-886.28,488.44L-881.53,488.44L-881.53,487.25L-880.34,487.25L-880.34,486.06L-876.78,486.06L-876.78,488.44L-877.97,488.44L-877.97,489.63L-879.16,489.63L-879.16,490.81L-881.53,490.81L-881.53,492L-886.28,492L-886.28,490.81L-888.66,490.81L-888.66,489.63L-889.84,489.63L-889.84,487.25ZM-887.47,481.31L-880.34,481.31L-880.34,478.94L-881.53,478.94L-881.53,477.75L-886.28,477.75L-886.28,478.94L-887.47,478.94ZM-873.26,492L-873.26,474.19L-869.69,474.19L-869.69,476.56L-868.51,476.56L-868.51,475.38L-867.32,475.38L-867.32,474.19L-862.57,474.19L-862.57,475.38L-861.38,475.38L-861.38,476.56L-860.19,476.56L-860.19,478.94L-861.38,478.94L-861.38,480.13L-862.57,480.13L-862.57,478.94L-863.76,478.94L-863.76,477.75L-867.32,477.75L-867.32,478.94L-868.51,478.94L-868.51,480.13L-869.69,480.13L-869.69,492ZM-857.15,492L-857.15,474.19L-853.59,474.19L-853.59,476.56L-852.40,476.56L-852.40,475.38L-851.21,475.38L-851.21,474.19L-847.65,474.19L-847.65,475.38L-846.46,475.38L-846.46,476.56L-844.09,476.56L-844.09,475.38L-842.90,475.38L-842.90,474.19L-838.15,474.19L-838.15,475.38L-836.96,475.38L-836.96,476.56L-835.78,476.56L-835.78,478.94L-834.59,478.94L-834.59,492L-838.15,492L-838.15,478.94L-839.34,478.94L-839.34,477.75L-842.90,477.75L-842.90,478.94L-844.09,478.94L-844.09,492L-847.65,492L-847.65,478.94L-848.84,478.94L-848.84,477.75L-851.21,477.75L-851.21,478.94L-852.40,478.94L-852.40,480.13L-853.59,480.13L-853.59,492ZM-830.69,492L-830.69,474.19L-827.13,474.19L-827.13,492ZM-830.69,471.81L-830.69,468.25L-827.13,468.25L-827.13,471.81ZM-822.97,492L-822.97,474.19L-819.41,474.19L-819.41,476.56L-818.22,476.56L-818.22,475.38L-817.04,475.38L-817.04,474.19L-813.47,474.19L-813.47,475.38L-811.10,475.38L-811.10,476.56L-809.91,476.56L-809.91,478.94L-808.72,478.94L-808.72,492L-812.29,492L-812.29,478.94L-813.47,478.94L-813.47,477.75L-817.04,477.75L-817.04,478.94L-818.22,478.94L-818.22,480.13L-819.41,480.13L-819.41,492ZM-805.38,487.25L-805.38,478.94L-804.20,478.94L-804.20,476.56L-803.01,476.56L-803.01,475.38L-800.63,475.38L-800.63,474.19L-795.88,474.19L-795.88,475.38L-794.70,475.38L-794.70,476.56L-793.51,476.56L-793.51,474.19L-789.95,474.19L-789.95,492L-793.51,492L-793.51,489.63L-794.70,489.63L-794.70,490.81L-795.88,490.81L-795.88,492L-800.63,492L-800.63,490.81L-803.01,490.81L-803.01,489.63L-804.20,489.63L-804.20,487.25ZM-801.82,487.25L-800.63,487.25L-800.63,488.44L-795.88,488.44L-795.88,487.25L-794.70,487.25L-794.70,486.06L-793.51,486.06L-793.51,480.13L-794.70,480.13L-794.70,478.94L-795.88,478.94L-795.88,477.75L-800.63,477.75L-800.63,478.94L-801.82,478.94ZM-785.94,492L-785.94,468.25L-782.38,468.25L-782.38,492ZM-778.89,483.69L-778.89,480.13L-765.82,480.13L-765.82,483.69ZM-762.89,484.88L-762.89,475.38L-761.71,475.38L-761.71,473L-760.52,473L-760.52,471.81L-759.33,471.81L-759.33,470.63L-758.14,470.63L-758.14,469.44L-754.58,469.44L-754.58,468.25L-748.64,468.25L-748.64,469.44L-745.08,469.44L-745.08,470.63L-743.89,470.63L-743.89,473L-742.71,473L-742.71,474.19L-741.52,474.19L-741.52,475.38L-746.27,475.38L-746.27,474.19L-747.46,474.19L-747.46,473L-749.83,473L-749.83,471.81L-753.39,471.81L-753.39,473L-755.77,473L-755.77,474.19L-756.96,474.19L-756.96,475.38L-758.14,475.38L-758.14,477.75L-759.33,477.75L-759.33,482.50L-758.14,482.50L-758.14,484.88L-756.96,484.88L-756.96,486.06L-755.77,486.06L-755.77,487.25L-753.39,487.25L-753.39,488.44L-749.83,488.44L-749.83,487.25L-747.46,487.25L-747.46,486.06L-746.27,486.06L-746.27,484.88L-745.08,484.88L-745.08,482.50L-752.21,482.50L-752.21,478.94L-741.52,478.94L-741.52,486.06L-742.71,486.06L-742.71,487.25L-743.89,487.25L-743.89,489.63L-745.08,489.63L-745.08,490.81L-748.64,490.81L-748.64,492L-754.58,492L-754.58,490.81L-758.14,490.81L-758.14,489.63L-759.33,489.63L-759.33,488.44L-760.52,488.44L-760.52,487.25L-761.71,487.25L-761.71,484.88ZM-737.81,492L-737.81,474.19L-734.24,474.19L-734.24,476.56L-733.06,476.56L-733.06,475.38L-731.87,475.38L-731.87,474.19L-727.12,474.19L-727.12,475.38L-725.93,475.38L-725.93,476.56L-724.74,476.56L-724.74,478.94L-725.93,478.94L-725.93,480.13L-727.12,480.13L-727.12,478.94L-728.31,478.94L-728.31,477.75L-731.87,477.75L-731.87,478.94L-733.06,478.94L-733.06,480.13L-734.24,480.13L-734.24,492ZM-722.11,487.25L-722.11,478.94L-720.92,478.94L-720.92,476.56L-719.73,476.56L-719.73,475.38L-717.36,475.38L-717.36,474.19L-712.61,474.19L-712.61,475.38L-710.23,475.38L-710.23,476.56L-709.05,476.56L-709.05,478.94L-707.86,478.94L-707.86,487.25L-709.05,487.25L-709.05,489.63L-710.23,489.63L-710.23,490.81L-712.61,490.81L-712.61,492L-717.36,492L-717.36,490.81L-719.73,490.81L-719.73,489.63L-720.92,489.63L-720.92,487.25ZM-718.55,487.25L-717.36,487.25L-717.36,488.44L-712.61,488.44L-712.61,487.25L-711.42,487.25L-711.42,478.94L-712.61,478.94L-712.61,477.75L-717.36,477.75L-717.36,478.94L-718.55,478.94ZM-704.85,477.75L-704.85,474.19L-702.48,474.19L-702.48,469.44L-698.92,469.44L-698.92,474.19L-694.17,474.19L-694.17,477.75L-698.92,477.75L-698.92,492L-702.48,492L-702.48,477.75ZM-691.38,487.25L-691.38,478.94L-690.20,478.94L-690.20,476.56L-689.01,476.56L-689.01,475.38L-686.63,475.38L-686.63,474.19L-681.88,474.19L-681.88,475.38L-679.51,475.38L-679.51,476.56L-678.32,476.56L-678.32,478.94L-677.13,478.94L-677.13,483.69L-687.82,483.69L-687.82,487.25L-686.63,487.25L-686.63,488.44L-681.88,488.44L-681.88,487.25L-680.70,487.25L-680.70,486.06L-677.13,486.06L-677.13,488.44L-678.32,488.44L-678.32,489.63L-679.51,489.63L-679.51,490.81L-681.88,490.81L-681.88,492L-686.63,492L-686.63,490.81L-689.01,490.81L-689.01,489.63L-690.20,489.63L-690.20,487.25ZM-687.82,481.31L-680.70,481.31L-680.70,478.94L-681.88,478.94L-681.88,477.75L-686.63,477.75L-686.63,478.94L-687.82,478.94ZM-673.79,489.63L-673.79,487.25L-672.61,487.25L-672.61,486.06L-671.42,486.06L-671.42,487.25L-670.23,487.25L-670.23,488.44L-669.04,488.44L-669.04,489.63L-666.67,489.63L-666.67,488.44L-665.48,488.44L-665.48,486.06L-666.67,486.06L-666.67,484.88L-667.86,484.88L-667.86,483.69L-670.23,483.69L-670.23,482.50L-671.42,482.50L-671.42,481.31L-672.61,481.31L-672.61,480.13L-673.79,480.13L-673.79,476.56L-672.61,476.56L-672.61,475.38L-671.42,475.38L-671.42,474.19L-664.29,474.19L-664.29,475.38L-663.11,475.38L-663.11,478.94L-665.48,478.94L-665.48,477.75L-666.67,477.75L-666.67,476.56L-669.04,476.56L-669.04,477.75L-670.23,477.75L-670.23,478.94L-669.04,478.94L-669.04,480.13L-667.86,480.13L-667.86,481.31L-665.48,481.31L-665.48,482.50L-664.29,482.50L-664.29,483.69L-663.11,483.69L-663.11,484.88L-661.92,484.88L-661.92,489.63L-663.11,489.63L-663.11,490.81L-664.29,490.81L-664.29,492L-671.42,492L-671.42,490.81L-672.61,490.81L-672.61,489.63ZM-658.76,487.25L-658.76,478.94L-657.58,478.94L-657.58,476.56L-656.39,476.56L-656.39,475.38L-654.01,475.38L-654.01,474.19L-649.26,474.19L-649.26,475.38L-648.08,475.38L-648.08,476.56L-646.89,476.56L-646.89,474.19L-643.33,474.19L-643.33,499.13L-646.89,499.13L-646.89,489.63L-648.08,489.63L-648.08,490.81L-649.26,490.81L-649.26,492L-654.01,492L-654.01,490.81L-656.39,490.81L-656.39,489.63L-657.58,489.63L-657.58,487.25ZM-655.20,487.25L-654.01,487.25L-654.01,488.44L-649.26,488.44L-649.26,487.25L-648.08,487.25L-648.08,486.06L-646.89,486.06L-646.89,480.13L-648.08,480.13L-648.08,478.94L-649.26,478.94L-649.26,477.75L-654.01,477.75L-654.01,478.94L-655.20,478.94ZM-639.28,489.63L-639.28,474.19L-635.72,474.19L-635.72,487.25L-634.53,487.25L-634.53,488.44L-630.97,488.44L-630.97,487.25L-629.78,487.25L-629.78,486.06L-628.59,486.06L-628.59,474.19L-625.03,474.19L-625.03,492L-628.59,492L-628.59,489.63L-629.78,489.63L-629.78,490.81L-630.97,490.81L-630.97,492L-636.91,492L-636.91,490.81L-638.09,490.81L-638.09,489.63ZM-621.58,487.25L-621.58,478.94L-620.39,478.94L-620.39,476.56L-619.21,476.56L-619.21,475.38L-616.83,475.38L-616.83,474.19L-612.08,474.19L-612.08,475.38L-609.71,475.38L-609.71,476.56L-608.52,476.56L-608.52,478.94L-607.33,478.94L-607.33,483.69L-618.02,483.69L-618.02,487.25L-616.83,487.25L-616.83,488.44L-612.08,488.44L-612.08,487.25L-610.89,487.25L-610.89,486.06L-607.33,486.06L-607.33,488.44L-608.52,488.44L-608.52,489.63L-609.71,489.63L-609.71,490.81L-612.08,490.81L-612.08,492L-616.83,492L-616.83,490.81L-619.21,490.81L-619.21,489.63L-620.39,489.63L-620.39,487.25ZM-618.02,481.31L-610.89,481.31L-610.89,478.94L-612.08,478.94L-612.08,477.75L-616.83,477.75L-616.83,478.94L-618.02,478.94Z"/>
</svg>