<?xml version="1.0"?>
<svg xmlns="http://www.w3.org/2000/svg" width="1920" height="1080" viewBox="-960 -540 1920 1080">
    <path d="M-585.50,-289.75L-618.50,-301.50L-587.25,-309.75L-575.25,-342.25L-586.75,-372L-611.75,-385L-723.50,-385L-723.50,-379.50L-712.50,-378.75L-704.25,-367.50L-704.25,-227.50L-712.50,-216.25L-723.50,-215.50L-723.50,-210L-611.50,-210L-576.50,-229L-566.75,-257ZM-628.75,-371.75L-615.25,-355.50L-613.25,-323.75L-632.50,-305.25L-666.75,-305.25L-666.75,-368.75L-659,-376.25ZM-623.75,-218.75L-659,-218.75L-666.75,-226.25L-666.75,-296.50L-622.50,-289.25L-609.25,-270L-606.75,-241ZM-417.50,-222.75L-422.25,-232.75L-422.25,-338.25L-475.75,-328.25L-475.75,-322.75L-460.75,-319L-456.50,-309L-456.50,-237.75C-466.25,-233.75 -475.75,-229.50 -485.50,-225.50C-491.25,-231.75 -497.25,-237.75 -503,-244L-503,-338.25L-556.50,-328.25L-556.50,-322.75L-541.50,-319L-537.25,-309L-537.25,-234C-533,-226.50 -528.50,-219.25 -524.25,-211.75C-513.50,-210 -502.75,-208.25 -492,-206.50L-456.50,-231.50L-456.25,-206.50L-403,-216.50L-403,-222ZM-360.25,-363.75C-354.25,-364.75 -349.50,-365.50 -344.75,-366.25L-337.50,-380.50C-338.50,-385.25 -339.75,-390 -340.75,-394.75C-345.25,-396.75 -349.75,-398.75 -354,-401L-369.50,-398C-372.50,-394 -375,-389.75 -377.75,-385.50C-376.50,-380.25 -374.75,-375 -373.75,-369.75C-369.25,-367.75 -365,-365.75 -360.25,-363.75ZM-332.25,-216.25L-340.50,-227.50L-340.50,-335L-356.75,-335L-394,-325L-394,-319.50L-379,-315.75L-374.75,-305.75L-374.75,-227.50L-383,-216.25L-394,-215.50L-394,-210L-321.25,-210L-321.25,-215.50ZM-251.75,-216.25L-259.50,-227.50L-259.50,-402.50L-313,-392.50L-313,-387L-298,-383.25L-293.75,-373.25L-293.75,-227.25L-301.75,-216.25L-312.75,-215.50L-312.75,-210L-240.75,-210L-240.75,-215.50ZM-93,-228.75L-101,-237.75L-101,-402.50L-154.50,-392.50L-154.50,-387L-139.50,-383.25L-135.25,-373.25L-135.25,-330.25C-145.50,-333 -156.50,-335.75 -166.50,-338.50C-183,-331.50 -199.75,-324.75 -216.25,-317.75C-221.75,-302.25 -227.50,-286.50 -233,-271L-221,-227.25C-205.50,-220.50 -190.25,-213.50 -174.75,-206.75L-135.25,-231.75L-135.25,-206.75L-78,-219.50L-78,-225ZM-165.75,-229.25C-176,-238.50 -186,-248 -196.25,-257.25L-201,-298C-196,-306.25 -190.75,-314.75 -185.75,-323L-159.75,-326.50C-152,-322.75 -143.25,-318.25 -135.25,-314.25L-135.25,-239C-145,-236 -156.25,-232.25 -165.75,-229.25ZM121,-252.25L103.75,-231.25L89.75,-223.75L51,-221.75L42.25,-232.50L42.25,-294.25L83.50,-294L94.25,-286L99,-275L104.75,-275L104.75,-326.25L99,-326.25L94.25,-315.25L83,-307.50L83,-307.25L42.25,-307L42.25,-362.50L51,-373.25L89.25,-371.50L103.25,-363.75L118.75,-342.75L125,-342.75L119.75,-385L-14.50,-385L-14.50,-379.50L-3.50,-378.75L4.75,-367.50L4.75,-227.50L-3.50,-216.25L-14.50,-215.50L-14.50,-210L120.25,-210L127.25,-252.25ZM261.75,-226.50L253.75,-235.50L253.75,-303.25C247.75,-313 242,-322.75 236,-332.25C220.25,-334.50 205,-336.25 189.25,-338.50C174.75,-331.50 159.75,-325.25 145,-318.50L163,-281.25L168.50,-281.25C172,-295 175.25,-308.50 178.75,-322.25L207.75,-328C211.75,-321 215.50,-314 219.50,-306.75L219.50,-279C199.25,-274.50 174.25,-268.75 154.25,-264.25C149.75,-255.25 145,-246.50 140.50,-237.75C147.50,-227.25 154,-217 160.75,-206.50C174.75,-207.75 188.25,-208.50 202.25,-210L219.50,-231L219.50,-206.50L276.75,-217.25L276.75,-222.75ZM193.75,-221.25C188.50,-224.75 183,-228.50 177.75,-232L177.75,-253.50C190.50,-260.50 206.25,-268.25 219.50,-275.25L219.50,-236.75C211.50,-231.75 201.75,-225.75 193.75,-221.25ZM380.50,-339.25C372.25,-337 363.75,-335.25 355.50,-333C348.75,-323.25 342,-312.25 335.25,-302.50L335.25,-339.25L281.75,-328.50L281.75,-323L296.75,-319.25C298.25,-316 299.50,-312.50 301,-309.25L301,-227.50C298.25,-223.75 295.50,-220 292.75,-216.25L281.75,-215.50L281.75,-210L364.75,-210L364.75,-215.50C358.50,-215.75 352.25,-216 346,-216.25L335.25,-227.50L335.25,-295L364.50,-318.75C367,-317.75 369.50,-316.75 372,-315.75L384.50,-285.25L390,-285.25L402.25,-326.75C395,-331.25 387.75,-334.75 380.50,-339.25ZM498.50,-236.25C494.25,-234 489.75,-232 485.50,-229.75L467.50,-229.75C464.25,-233.75 461.25,-238 458,-242L458,-325L495,-325L495,-335L458,-335L458,-367.50L449,-367.50L437.25,-345.25C433,-342 429,-338.50 424.75,-335L408,-335L408,-325.25L421,-325.25L423.75,-318.75L423.75,-236.75C427,-229.25 430.50,-221.50 433.75,-214L471.75,-207.25C481.75,-214.75 492.75,-222.25 502.75,-229.75ZM653.75,-216.25L645.50,-227.50L645.50,-311C641.25,-318.50 636.75,-325.75 632.50,-333.25C621.75,-335 611,-336.75 600.25,-338.50L560.50,-313.50L560.50,-402.50L507,-392.50L507,-387L522,-383.25L526.25,-373.25L526.25,-227.50L518,-216.25L507,-215.50L507,-210L579.75,-210L579.75,-215.50L568.75,-216.25L560.50,-227.50L560.50,-307.25C573,-312.25 581.25,-314.50 593.75,-319.50C599.50,-313.25 605.50,-307.25 611.25,-301L611.25,-227.50L603,-216.25L592,-215.50L592,-210L664.75,-210L664.75,-215.50Z" fill="#ffffff" stroke="#000000"/>
    <path d="M-589.33,-276.02L-622.15,-287.22L-591.33,-295.80L-579.88,-328.13L-591.66,-357.43L-616.58,-369.96L-727.20,-368.48L-727.13,-363.04L-716.23,-362.44L-707.91,-351.41L-706.06,-212.83L-714.08,-201.58L-724.96,-200.69L-724.88,-195.25L-614.01,-196.73L-579.62,-216.00L-570.34,-243.85ZM-633.23,-356.62L-619.65,-340.71L-617.25,-309.31L-636.06,-290.74L-669.97,-290.29L-670.81,-353.15L-663.24,-360.68ZM-626.25,-205.23L-661.15,-204.76L-668.92,-212.09L-669.85,-281.63L-625.95,-275.04L-612.58,-256.16L-609.72,-227.48ZM-422.14,-211.92L-426.97,-221.76L-428.37,-326.19L-481.20,-315.59L-481.13,-310.14L-466.23,-306.63L-461.89,-296.79L-460.94,-226.25C-470.54,-222.17 -479.89,-217.83 -489.49,-213.74C-495.26,-219.86 -501.28,-225.72 -507.06,-231.83L-508.31,-325.13L-561.13,-314.52L-561.06,-309.07L-546.16,-305.56L-541.82,-295.72L-540.83,-221.47C-536.52,-214.11 -531.97,-206.99 -527.67,-199.62C-517.00,-198.03 -506.34,-196.44 -495.67,-194.85L-460.86,-220.07L-460.28,-195.32L-407.70,-205.93L-407.77,-211.37ZM-367.33,-352.26C-361.41,-353.33 -356.72,-354.13 -352.02,-354.94L-345.04,-369.14C-346.09,-373.83 -347.39,-378.52 -348.44,-383.20C-352.92,-385.12 -357.40,-387.04 -361.64,-389.22L-376.94,-386.04C-379.86,-382.04 -382.28,-377.80 -384.95,-373.56C-383.64,-368.38 -381.84,-363.20 -380.78,-358.02C-376.30,-356.10 -372.06,-354.18 -367.33,-352.26ZM-337.66,-206.62L-345.98,-217.65L-347.40,-324.06L-363.49,-323.85L-400.23,-313.45L-400.16,-308.01L-385.26,-304.49L-380.92,-294.65L-379.88,-217.19L-387.90,-205.95L-398.78,-205.06L-398.71,-199.61L-326.69,-200.58L-326.76,-206.02ZM-257.97,-207.68L-265.80,-218.72L-268.11,-391.95L-320.94,-381.34L-320.87,-375.90L-305.97,-372.39L-301.63,-362.54L-299.70,-218.02L-307.47,-207.02L-318.35,-206.13L-318.28,-200.69L-247.00,-201.64L-247.08,-207.09ZM-100.99,-222.16L-109.03,-230.96L-111.21,-394.05L-164.04,-383.44L-163.97,-378.00L-149.07,-374.49L-144.73,-364.64L-144.16,-322.08C-154.34,-324.66 -165.27,-327.24 -175.20,-329.83C-191.44,-322.68 -207.94,-315.78 -224.18,-308.63C-229.42,-293.21 -234.90,-277.55 -240.14,-262.13L-227.68,-218.98C-212.25,-212.50 -197.06,-205.78 -181.63,-199.30L-142.86,-224.57L-142.52,-199.82L-86.02,-213.20L-86.09,-218.65ZM-173.01,-221.69C-183.28,-230.71 -193.31,-239.98 -203.58,-249.01L-208.82,-289.28C-203.98,-297.51 -198.89,-306.00 -194.05,-314.23L-168.36,-318.04C-160.64,-314.43 -151.92,-310.09 -143.95,-306.24L-142.95,-231.75C-152.56,-228.65 -163.65,-224.79 -173.01,-221.69ZM110.54,-248.26L93.74,-227.24L79.98,-219.63L41.65,-217.14L32.84,-227.66L32.03,-288.79L72.86,-289.09L83.61,-281.31L88.46,-270.49L94.15,-270.56L93.47,-321.30L87.78,-321.22L83.22,-310.27L72.19,-302.45L72.19,-302.20L31.86,-301.41L31.12,-356.35L39.64,-367.11L77.53,-365.89L91.49,-358.40L107.11,-337.82L113.30,-337.90L107.54,-379.65L-25.35,-377.87L-25.28,-372.43L-14.38,-371.83L-6.07,-360.81L-4.21,-222.22L-12.23,-210.97L-23.11,-210.08L-23.04,-204.64L110.36,-206.43L116.72,-248.34ZM250.21,-224.63L242.17,-233.44L241.27,-300.50C235.20,-310.07 229.38,-319.65 223.32,-328.98C207.70,-330.99 192.58,-332.52 176.96,-334.54C162.70,-327.42 147.93,-321.04 133.42,-314.16L151.73,-277.52L157.17,-277.60C160.46,-291.25 163.50,-304.66 166.78,-318.32L195.41,-324.39C199.46,-317.52 203.27,-310.64 207.32,-303.51L207.69,-276.04C187.70,-271.32 163.03,-265.30 143.29,-260.58C138.96,-251.61 134.37,-242.88 130.03,-234.16C137.10,-223.86 143.67,-213.80 150.49,-203.50C164.34,-204.92 177.69,-205.84 191.53,-207.51L208.33,-228.53L208.65,-204.28L265.18,-215.68L265.11,-221.12ZM182.96,-218.54C177.72,-221.93 172.23,-225.57 166.98,-228.96L166.70,-250.25C179.23,-257.35 194.72,-265.23 207.74,-272.33L208.25,-234.22C200.40,-229.16 190.82,-223.10 182.96,-218.54ZM366.27,-337.82C358.13,-335.48 349.74,-333.64 341.60,-331.30C335.05,-321.56 328.51,-310.58 321.96,-300.84L321.47,-337.22L268.66,-325.87L268.73,-320.42L283.63,-316.91C285.16,-313.71 286.44,-310.27 287.97,-307.07L289.05,-226.14C286.38,-222.39 283.70,-218.65 281.03,-214.90L270.15,-214.01L270.23,-208.56L352.39,-209.66L352.32,-215.11C346.13,-215.27 339.94,-215.44 333.74,-215.60L322.95,-226.60L322.06,-293.42L350.70,-317.31C353.19,-316.36 355.68,-315.40 358.16,-314.44L370.94,-284.42L376.39,-284.49L387.96,-325.73C380.73,-330.09 373.50,-333.46 366.27,-337.82ZM484.44,-237.42C480.26,-235.14 475.84,-233.10 471.66,-230.81L453.84,-230.58C450.57,-234.49 447.54,-238.66 444.27,-242.58L443.17,-324.74L479.80,-325.23L479.67,-335.13L443.04,-334.64L442.61,-366.81L433.70,-366.69L422.37,-344.51C418.20,-341.24 414.29,-337.72 410.13,-334.20L393.55,-333.98L393.68,-324.32L406.54,-324.50L409.35,-318.10L410.44,-236.93C413.76,-229.54 417.32,-221.92 420.64,-214.54L458.35,-208.36C468.15,-215.92 478.93,-223.49 488.73,-231.04ZM638.39,-219.68L630.07,-230.71L628.97,-313.36C624.66,-320.73 620.11,-327.85 615.80,-335.22C605.14,-336.81 594.48,-338.40 583.81,-339.99L544.79,-314.71L543.61,-402.82L490.79,-392.21L490.86,-386.76L505.76,-383.25L510.10,-373.41L512.03,-229.13L504.01,-217.88L493.13,-216.99L493.20,-211.55L565.22,-212.51L565.15,-217.96L554.25,-218.55L545.93,-229.58L544.88,-308.53C557.18,-313.64 565.32,-315.98 577.63,-321.09C583.40,-314.98 589.42,-309.12 595.20,-303.01L596.17,-230.25L588.15,-219.01L577.27,-218.12L577.35,-212.67L649.36,-213.64L649.29,-219.08Z" fill="#ffffff" stroke="#000000"/>
    <path d="M-592.78,-262.31L-625.42,-272.95L-595.02,-281.85L-584.12,-314.01L-596.16,-342.85L-621.00,-354.93L-730.47,-352.00L-730.33,-346.61L-719.53,-346.16L-711.15,-335.36L-707.48,-198.21L-715.27,-186.97L-726.03,-185.95L-725.88,-180.56L-616.16,-183.50L-582.37,-203.03L-573.55,-230.71ZM-637.30,-341.50L-623.65,-325.94L-620.86,-294.89L-639.23,-276.26L-672.78,-275.36L-674.45,-337.57L-667.05,-345.12ZM-628.39,-191.75L-662.92,-190.82L-670.71,-197.97L-672.55,-266.79L-629.02,-260.85L-615.53,-242.34L-612.32,-213.99ZM-426.44,-201.08L-431.36,-210.75L-434.13,-314.10L-486.27,-302.90L-486.13,-297.51L-471.34,-294.23L-466.91,-284.55L-465.04,-214.75C-474.49,-210.57 -483.68,-206.16 -493.13,-201.99C-498.93,-207.96 -504.96,-213.68 -510.76,-219.65L-513.23,-311.98L-565.38,-300.78L-565.24,-295.40L-550.44,-292.12L-546.02,-282.43L-544.05,-208.96C-539.69,-201.72 -535.09,-194.74 -530.73,-187.50C-520.16,-186.07 -509.58,-184.64 -499.00,-183.20L-464.88,-208.62L-463.98,-184.14L-412.07,-195.33L-412.22,-200.72ZM-374.06,-340.71C-368.20,-341.84 -363.57,-342.70 -358.94,-343.56L-352.21,-357.71C-353.31,-362.34 -354.66,-366.96 -355.77,-371.59C-360.23,-373.43 -364.69,-375.27 -368.91,-377.36L-384.02,-374.02C-386.85,-370.02 -389.19,-365.79 -391.77,-361.56C-390.41,-356.45 -388.56,-351.35 -387.44,-346.23C-382.98,-344.39 -378.76,-342.54 -374.06,-340.71ZM-342.76,-196.94L-351.13,-207.75L-353.95,-313.06L-369.87,-312.63L-406.10,-301.86L-405.96,-296.47L-391.17,-293.19L-386.74,-283.51L-384.69,-206.85L-392.47,-195.61L-403.23,-194.59L-403.09,-189.20L-331.82,-191.11L-331.96,-196.50ZM-263.90,-199.05L-271.78,-209.87L-276.37,-381.31L-328.52,-370.11L-328.38,-364.72L-313.58,-361.44L-309.16,-351.76L-305.33,-208.73L-312.88,-197.74L-323.63,-196.72L-323.49,-191.33L-252.96,-193.22L-253.10,-198.61ZM-108.70,-215.46L-116.78,-224.07L-121.10,-385.47L-173.25,-374.27L-173.10,-368.88L-158.31,-365.60L-153.88,-355.91L-152.76,-313.79C-162.87,-316.21 -173.72,-318.62 -183.59,-321.05C-199.57,-313.76 -215.80,-306.71 -231.78,-299.42C-236.76,-284.09 -241.98,-268.51 -246.96,-253.18L-234.06,-210.64C-218.70,-204.43 -203.58,-197.97 -188.21,-191.77L-150.17,-217.29L-149.52,-192.80L-93.77,-206.79L-93.91,-212.18ZM-179.99,-214.05C-190.27,-222.84 -200.32,-231.88 -210.60,-240.68L-216.32,-280.47C-211.64,-288.69 -206.72,-297.15 -202.04,-305.36L-176.66,-309.47C-168.97,-306.00 -160.28,-301.82 -152.34,-298.12L-150.36,-224.40C-159.84,-221.20 -170.76,-217.23 -179.99,-214.05ZM100.32,-244.10L83.98,-223.07L70.46,-215.36L32.55,-212.38L23.69,-222.68L22.08,-283.18L62.49,-284.01L73.23,-276.46L78.18,-265.81L83.81,-265.96L82.46,-316.16L76.83,-316.01L72.47,-305.11L61.65,-297.23L61.66,-296.98L21.74,-295.67L20.29,-350.04L28.58,-360.80L66.09,-360.09L80.01,-352.86L95.75,-332.70L101.87,-332.86L95.62,-374.11L-35.90,-370.59L-35.76,-365.20L-24.96,-364.76L-16.58,-353.95L-12.91,-216.80L-20.70,-205.56L-31.45,-204.54L-31.31,-199.15L100.70,-202.69L106.45,-244.26ZM238.88,-222.56L230.81,-231.17L229.04,-297.54C222.90,-306.93 217.01,-316.34 210.89,-325.48C195.40,-327.28 180.41,-328.59 164.92,-330.38C150.90,-323.14 136.37,-316.63 122.10,-309.63L140.71,-273.61L146.10,-273.75C149.17,-287.31 151.99,-300.62 155.06,-314.19L183.32,-320.58C187.42,-313.83 191.28,-307.07 195.39,-300.07L196.12,-272.89C176.40,-267.95 152.06,-261.66 132.58,-256.72C128.41,-247.79 123.99,-239.09 119.81,-230.40C126.94,-220.30 133.58,-210.43 140.46,-200.32C154.15,-201.91 167.35,-203.00 181.03,-204.84L197.38,-225.86L198.02,-201.86L253.82,-213.89L253.68,-219.28ZM172.41,-215.64C167.17,-218.93 161.69,-222.46 156.45,-225.75L155.89,-246.81C168.19,-254.00 183.42,-262.01 196.22,-269.21L197.23,-231.50C189.52,-226.39 180.13,-220.25 172.41,-215.64ZM352.26,-336.13C344.24,-333.71 335.96,-331.77 327.93,-329.35C321.58,-319.62 315.25,-308.67 308.90,-298.94L307.93,-334.94L255.80,-323.01L255.95,-317.62L270.74,-314.34C272.30,-311.20 273.61,-307.80 275.17,-304.66L277.31,-224.57C274.71,-220.83 272.12,-217.08 269.52,-213.33L258.77,-212.31L258.91,-206.92L340.22,-209.10L340.08,-214.49C333.95,-214.57 327.82,-214.65 321.69,-214.73L310.86,-225.47L309.09,-291.60L337.12,-315.63C339.60,-314.72 342.08,-313.80 344.55,-312.89L357.60,-283.34L362.98,-283.48L373.90,-324.46C366.68,-328.67 359.48,-331.91 352.26,-336.13ZM470.56,-238.32C466.46,-236.01 462.10,-233.93 458.00,-231.61L440.36,-231.14C437.07,-234.97 434.02,-239.06 430.73,-242.89L428.56,-324.20L464.81,-325.17L464.54,-334.97L428.30,-334.00L427.44,-365.84L418.63,-365.60L407.70,-343.50C403.62,-340.20 399.79,-336.67 395.72,-333.13L379.31,-332.69L379.57,-323.14L392.30,-323.48L395.17,-317.18L397.32,-236.85C400.70,-229.59 404.33,-222.09 407.71,-214.83L445.12,-209.21C454.72,-216.82 465.30,-224.46 474.90,-232.07ZM623.18,-222.80L614.80,-233.61L612.61,-315.41C608.25,-322.64 603.65,-329.63 599.29,-336.86C588.71,-338.29 578.14,-339.73 567.56,-341.16L529.27,-315.63L526.94,-402.81L474.79,-391.62L474.93,-386.23L489.73,-382.95L494.15,-373.26L497.98,-230.48L490.19,-219.24L479.43,-218.22L479.58,-212.83L550.85,-214.74L550.70,-220.13L539.91,-220.57L531.53,-231.38L529.44,-309.50C541.55,-314.73 549.58,-317.15 561.69,-322.38C567.49,-316.40 573.52,-310.68 579.32,-304.71L581.25,-232.71L573.46,-221.47L562.70,-220.45L562.85,-215.06L634.12,-216.97L633.97,-222.35Z" fill="#ffffff" stroke="#000000"/>
    <path d="M-595.85,-248.61L-628.29,-258.72L-598.33,-267.93L-587.96,-299.90L-600.27,-328.28L-625.00,-339.91L-733.31,-335.56L-733.10,-330.23L-722.41,-329.93L-713.97,-319.35L-708.52,-183.66L-716.08,-172.43L-726.71,-171.28L-726.50,-165.95L-617.95,-170.31L-584.76,-190.08L-576.40,-217.60ZM-640.96,-326.41L-627.25,-311.18L-624.07,-280.49L-642.01,-261.81L-675.21,-260.47L-677.68,-322.02L-670.46,-329.59ZM-630.16,-178.31L-664.33,-176.94L-672.13,-183.91L-674.86,-251.99L-631.69,-246.69L-618.10,-228.55L-614.55,-200.54ZM-430.42,-190.22L-435.41,-199.72L-439.52,-301.98L-490.98,-290.20L-490.77,-284.87L-476.08,-281.82L-471.57,-272.29L-468.80,-203.24C-478.09,-198.98 -487.14,-194.49 -496.43,-190.24C-502.25,-196.07 -508.29,-201.65 -514.11,-207.48L-517.78,-298.83L-569.24,-287.06L-569.03,-281.73L-554.35,-278.68L-549.84,-269.15L-546.92,-196.46C-542.51,-189.36 -537.86,-182.50 -533.45,-175.40C-522.96,-174.12 -512.48,-172.84 -501.99,-171.57L-468.56,-197.18L-467.34,-172.96L-416.12,-184.72L-416.33,-190.05ZM-380.42,-329.11C-374.64,-330.31 -370.07,-331.22 -365.49,-332.13L-359.02,-346.23C-360.17,-350.79 -361.57,-355.35 -362.72,-359.91C-367.16,-361.67 -371.60,-363.44 -375.81,-365.45L-390.72,-361.94C-393.47,-357.95 -395.73,-353.73 -398.22,-349.50C-396.81,-344.46 -394.91,-339.44 -393.73,-334.40C-389.30,-332.63 -385.10,-330.86 -380.42,-329.11ZM-347.54,-187.24L-355.97,-197.82L-360.16,-302.01L-375.91,-301.38L-411.62,-290.23L-411.41,-284.90L-396.72,-281.85L-392.21,-272.33L-389.17,-196.48L-396.72,-185.26L-407.36,-184.10L-407.14,-178.77L-336.63,-181.61L-336.85,-186.94ZM-269.51,-190.37L-277.46,-200.97L-284.28,-370.58L-335.74,-358.81L-335.53,-353.48L-320.84,-350.43L-316.33,-340.90L-310.65,-199.40L-317.98,-188.42L-328.61,-187.27L-328.39,-181.94L-258.61,-184.74L-258.82,-190.07ZM-116.14,-208.66L-124.24,-217.08L-130.66,-376.75L-182.12,-364.98L-181.91,-359.65L-167.22,-356.60L-162.71,-347.07L-161.04,-305.40C-171.08,-307.66 -181.85,-309.90 -191.65,-312.18C-207.37,-304.75 -223.34,-297.55 -239.06,-290.13C-243.79,-274.89 -248.75,-259.40 -253.47,-244.16L-240.14,-202.23C-224.85,-196.29 -209.80,-190.10 -194.52,-184.16L-157.20,-209.93L-156.23,-185.70L-101.24,-200.28L-101.45,-205.61ZM-186.67,-206.32C-196.96,-214.88 -207.02,-223.70 -217.32,-232.27L-223.51,-271.58C-218.98,-279.77 -214.23,-288.21 -209.70,-296.40L-184.64,-300.81C-176.98,-297.47 -168.33,-293.45 -160.42,-289.89L-157.49,-216.95C-166.82,-213.67 -177.58,-209.59 -186.67,-206.32ZM90.36,-239.77L74.46,-218.75L61.18,-210.93L23.70,-207.49L14.80,-217.56L12.40,-277.41L52.39,-278.78L63.12,-271.44L68.15,-260.97L73.72,-261.19L71.73,-310.86L66.16,-310.64L61.98,-299.79L51.38,-291.84L51.39,-291.60L11.90,-289.77L9.74,-343.56L17.80,-354.32L54.95,-354.12L68.82,-347.15L84.66,-327.40L90.71,-327.64L83.98,-368.39L-46.14,-363.16L-45.92,-357.83L-35.23,-357.53L-26.80,-346.95L-21.35,-211.26L-28.91,-200.03L-39.54,-198.88L-39.32,-193.55L91.28,-198.79L96.42,-240.02ZM227.78,-220.29L219.68,-228.71L217.04,-294.37C210.84,-303.59 204.89,-312.81 198.71,-321.79C183.35,-323.35 168.50,-324.46 153.15,-326.02C139.37,-318.68 125.08,-312.03 111.04,-304.92L129.94,-269.51L135.27,-269.73C138.13,-283.19 140.75,-296.40 143.61,-309.87L171.49,-316.57C175.64,-309.94 179.55,-303.30 183.71,-296.43L184.79,-269.53C165.34,-264.38 141.33,-257.84 122.12,-252.70C118.11,-243.80 113.85,-235.13 109.82,-226.48C117.02,-216.57 123.72,-206.89 130.67,-196.98C144.19,-198.73 157.24,-199.99 170.75,-201.99L186.66,-223.01L187.61,-199.26L242.68,-211.91L242.46,-217.24ZM162.08,-212.56C156.85,-215.75 151.38,-219.17 146.15,-222.35L145.31,-243.19C157.40,-250.47 172.36,-258.60 184.93,-265.90L186.43,-228.58C178.87,-223.43 169.66,-217.23 162.08,-212.56ZM338.49,-334.20C330.58,-331.69 322.41,-329.67 314.50,-327.17C308.34,-317.45 302.22,-306.53 296.06,-296.82L294.63,-332.43L243.19,-319.93L243.41,-314.60L258.09,-311.55C259.67,-308.46 261.02,-305.12 262.60,-302.02L265.78,-222.79C263.26,-219.05 260.74,-215.31 258.22,-211.57L247.59,-210.41L247.81,-205.08L328.25,-208.31L328.04,-213.64C321.97,-213.64 315.90,-213.64 309.84,-213.64L298.98,-224.12L296.35,-289.55L323.78,-313.70C326.24,-312.83 328.70,-311.96 331.16,-311.09L344.46,-282.01L349.80,-282.23L360.05,-322.93C352.85,-327.01 345.69,-330.12 338.49,-334.20ZM456.86,-238.96C452.83,-236.61 448.55,-234.50 444.52,-232.15L427.07,-231.45C423.76,-235.20 420.69,-239.21 417.39,-242.96L414.15,-323.40L450.02,-324.84L449.63,-334.53L413.77,-333.09L412.50,-364.59L403.78,-364.24L393.26,-342.22C389.26,-338.91 385.52,-335.36 381.54,-331.80L365.30,-331.15L365.68,-321.70L378.28,-322.20L381.20,-316.01L384.39,-236.53C387.84,-229.39 391.53,-222.02 394.97,-214.87L432.07,-209.81C441.47,-217.47 451.83,-225.17 461.24,-232.83ZM608.11,-225.62L599.68,-236.20L596.43,-317.13C592.02,-324.24 587.37,-331.09 582.96,-338.19C572.47,-339.47 561.99,-340.75 551.50,-342.02L513.95,-316.25L510.48,-402.51L459.02,-390.73L459.23,-385.40L473.92,-382.35L478.43,-372.82L484.10,-231.56L476.54,-220.33L465.91,-219.18L466.12,-213.85L536.63,-216.68L536.42,-222.01L525.73,-222.31L517.30,-232.89L514.19,-310.19C526.11,-315.52 534.02,-318.02 545.94,-323.36C551.76,-317.52 557.81,-311.94 563.62,-306.11L566.48,-234.87L558.92,-223.64L548.29,-222.49L548.51,-217.16L619.02,-219.99L618.80,-225.32Z" fill="#ffffff" stroke="#000000"/>
    <path d="M-598.55,-234.95L-630.79,-244.52L-601.25,-254.04L-591.42,-285.81L-603.97,-313.74L-628.60,-324.92L-735.73,-319.18L-735.45,-313.90L-724.86,-313.75L-716.38,-303.39L-709.19,-169.18L-716.52,-157.97L-727.02,-156.69L-726.74,-151.42L-619.38,-157.17L-586.80,-177.18L-578.89,-204.52ZM-644.22,-311.34L-630.44,-296.46L-626.90,-266.12L-644.40,-247.40L-677.23,-245.64L-680.49,-306.51L-673.45,-314.10ZM-631.57,-164.93L-665.36,-163.12L-673.17,-169.91L-676.78,-237.25L-633.99,-232.57L-620.30,-214.80L-616.41,-187.13ZM-434.06,-179.36L-439.12,-188.70L-444.54,-289.83L-495.32,-277.50L-495.03,-272.23L-480.46,-269.40L-475.87,-260.03L-472.21,-191.73C-481.35,-187.40 -490.24,-182.83 -499.38,-178.50C-505.22,-184.19 -511.28,-189.64 -517.11,-195.33L-521.95,-285.69L-572.72,-273.35L-572.44,-268.08L-557.87,-265.25L-553.28,-255.89L-549.43,-183.99C-544.97,-177.02 -540.28,-170.30 -535.83,-163.33C-525.43,-162.20 -515.04,-161.08 -504.64,-159.95L-471.89,-185.74L-470.37,-161.79L-419.84,-174.11L-420.12,-179.38ZM-386.42,-317.46C-380.72,-318.73 -376.20,-319.69 -371.69,-320.65L-365.47,-334.69C-366.67,-339.19 -368.11,-343.68 -369.32,-348.18C-373.73,-349.87 -378.15,-351.55 -382.34,-353.49L-397.04,-349.82C-399.71,-345.83 -401.89,-341.63 -404.31,-337.41C-402.84,-332.44 -400.90,-327.50 -399.67,-322.52C-395.25,-320.83 -391.07,-319.13 -386.42,-317.46ZM-352.00,-177.50L-360.49,-187.86L-366.01,-290.92L-381.59,-290.08L-416.78,-278.58L-416.50,-273.31L-401.93,-270.48L-397.34,-261.12L-393.32,-186.10L-400.65,-174.90L-411.16,-173.61L-410.87,-168.34L-341.13,-172.08L-341.42,-177.35ZM-274.83,-181.64L-282.84,-192.02L-291.83,-359.78L-342.60,-347.45L-342.32,-342.18L-327.74,-339.35L-323.16,-329.98L-315.66,-190.02L-322.76,-179.07L-333.27,-177.78L-332.99,-172.51L-263.97,-176.21L-264.25,-181.48ZM-123.29,-201.77L-131.42,-209.99L-139.88,-367.92L-190.66,-355.59L-190.37,-350.32L-175.80,-347.49L-171.21,-338.12L-169.01,-296.90C-178.97,-299.01 -189.66,-301.08 -199.39,-303.21C-214.84,-295.65 -230.56,-288.32 -246.01,-280.76C-250.49,-265.62 -255.19,-250.23 -259.67,-235.08L-245.92,-193.76C-230.71,-188.09 -215.73,-182.16 -200.53,-176.48L-163.95,-202.48L-162.66,-178.51L-108.44,-193.68L-108.72,-198.95ZM-193.06,-198.52C-203.36,-206.86 -213.43,-215.45 -223.73,-223.79L-230.38,-262.61C-226.01,-270.78 -221.41,-279.19 -217.04,-287.36L-192.30,-292.05C-184.68,-288.85 -176.06,-284.99 -168.18,-281.57L-164.32,-209.43C-173.51,-206.05 -184.10,-201.88 -193.06,-198.52ZM80.65,-235.29L65.19,-214.27L52.15,-206.37L15.11,-202.46L6.17,-212.31L3.00,-271.51L42.55,-273.39L53.27,-266.27L58.39,-255.97L63.90,-256.27L61.27,-305.40L55.76,-305.10L51.77,-294.31L41.38,-286.30L41.40,-286.06L2.34,-283.73L-0.51,-336.94L7.33,-347.69L44.09,-347.98L57.91,-341.27L73.84,-321.93L79.83,-322.25L72.63,-362.48L-56.06,-355.59L-55.78,-350.32L-45.20,-350.16L-36.71,-339.80L-29.52,-205.60L-36.85,-194.39L-47.36,-193.10L-47.08,-187.83L82.10,-194.75L86.64,-235.61ZM216.90,-217.84L208.77,-226.05L205.29,-291.00C199.03,-300.04 193.02,-309.09 186.78,-317.89C171.57,-319.24 156.86,-320.13 141.64,-321.48C128.10,-314.02 114.05,-307.26 100.25,-300.03L119.42,-265.25L124.69,-265.53C127.34,-278.89 129.76,-292.00 132.41,-305.36L159.92,-312.36C164.11,-305.86 168.07,-299.34 172.27,-292.60L173.70,-265.99C154.52,-260.64 130.85,-253.84 111.91,-248.50C108.05,-239.64 103.95,-231.01 100.09,-222.39C107.34,-212.69 114.09,-203.19 121.10,-193.48C134.46,-195.39 147.36,-196.81 160.71,-198.96L176.16,-219.98L177.42,-196.49L231.75,-209.74L231.47,-215.01ZM151.98,-209.31C146.77,-212.40 141.30,-215.71 136.09,-218.79L134.99,-239.40C146.85,-246.77 161.55,-255.01 173.89,-262.40L175.87,-225.49C168.46,-220.29 159.42,-214.04 151.98,-209.31ZM324.94,-332.02C317.15,-329.44 309.09,-327.32 301.30,-324.74C295.33,-315.05 289.42,-304.16 283.45,-294.47L281.56,-329.70L230.83,-316.64L231.11,-311.37L245.68,-308.55C247.29,-305.51 248.67,-302.22 250.27,-299.18L254.47,-220.81C252.03,-217.07 249.58,-213.34 247.14,-209.60L236.63,-208.32L236.92,-203.05L316.48,-207.31L316.20,-212.58C310.20,-212.50 304.19,-212.42 298.19,-212.34L287.30,-222.57L283.84,-287.28L310.66,-311.55C313.11,-310.72 315.55,-309.89 318.00,-309.06L331.55,-280.46L336.82,-280.74L346.43,-321.15C339.25,-325.10 332.12,-328.08 324.94,-332.02ZM443.35,-239.34C439.39,-236.97 435.18,-234.82 431.22,-232.44L413.97,-231.52C410.65,-235.19 407.55,-239.11 404.23,-242.77L399.97,-322.34L435.44,-324.24L434.92,-333.83L399.45,-331.93L397.79,-363.08L389.16,-362.62L379.04,-340.69C375.13,-337.35 371.47,-333.79 367.58,-330.22L351.52,-329.36L352.02,-320.01L364.49,-320.68L367.46,-314.59L371.67,-235.98C375.17,-228.96 378.92,-221.71 382.42,-214.69L419.20,-210.17C428.40,-217.87 438.56,-225.63 447.76,-233.33ZM593.20,-228.14L584.72,-238.50L580.43,-318.55C575.97,-325.52 571.28,-332.24 566.82,-339.21C556.43,-340.34 546.03,-341.46 535.64,-342.59L498.82,-316.58L494.25,-401.90L443.47,-389.56L443.76,-384.29L458.33,-381.47L462.92,-372.10L470.40,-232.38L463.07,-221.17L452.56,-219.89L452.85,-214.61L522.59,-218.35L522.30,-223.62L511.72,-223.78L503.23,-234.14L499.14,-310.59C510.86,-316.02 518.66,-318.60 530.38,-324.04C536.22,-318.34 542.28,-312.90 548.11,-307.20L551.88,-236.74L544.55,-225.54L534.05,-224.25L534.33,-218.98L604.07,-222.72L603.79,-227.99Z" fill="#ffffff" stroke="#000000"/>
    <path d="M-600.87,-221.34L-632.89,-230.38L-603.80,-240.18L-594.49,-271.75L-607.28,-299.22L-631.80,-309.95L-737.72,-302.86L-737.37,-297.64L-726.90,-297.63L-718.37,-287.49L-709.47,-154.79L-716.58,-143.60L-726.96,-142.19L-726.61,-136.98L-620.45,-144.09L-588.48,-164.32L-581.01,-191.48ZM-647.07,-296.31L-633.24,-281.77L-629.33,-251.80L-646.40,-233.04L-678.87,-230.87L-682.90,-291.06L-676.03,-298.66ZM-632.61,-151.61L-666.03,-149.37L-673.85,-155.99L-678.31,-222.57L-635.91,-218.51L-622.12,-201.11L-617.91,-173.78ZM-437.37,-168.50L-442.51,-177.68L-449.21,-277.68L-499.28,-264.80L-498.93,-259.59L-484.48,-256.98L-479.81,-247.78L-475.29,-180.24C-484.28,-175.83 -493.01,-171.20 -502.00,-166.79C-507.85,-172.35 -513.91,-177.65 -519.76,-183.21L-525.75,-272.55L-575.82,-259.67L-575.47,-254.46L-561.02,-251.86L-556.35,-242.65L-551.59,-171.56C-547.09,-164.72 -542.36,-158.13 -537.86,-151.29C-527.55,-150.32 -517.25,-149.34 -506.95,-148.36L-474.89,-174.32L-473.07,-150.63L-423.23,-163.50L-423.58,-168.71ZM-392.06,-305.79C-386.43,-307.11 -381.98,-308.13 -377.53,-309.14L-371.56,-323.11C-372.81,-327.55 -374.29,-331.97 -375.54,-336.41C-379.94,-338.02 -384.33,-339.63 -388.50,-341.49L-403.00,-337.66C-405.59,-333.68 -407.69,-329.49 -410.03,-325.29C-408.51,-320.39 -406.52,-315.53 -405.24,-310.61C-400.84,-309.00 -396.69,-307.38 -392.06,-305.79ZM-356.15,-167.75L-364.68,-177.89L-371.51,-279.79L-386.91,-278.76L-421.59,-266.91L-421.24,-261.70L-406.78,-259.10L-402.12,-249.89L-397.15,-175.72L-404.25,-164.53L-414.63,-163.12L-414.28,-157.91L-345.33,-162.53L-345.68,-167.74ZM-279.85,-172.86L-287.91,-183.04L-299.02,-348.91L-349.10,-336.04L-348.75,-330.82L-334.29,-328.22L-329.63,-319.01L-320.36,-180.62L-327.24,-169.69L-337.62,-168.28L-337.27,-163.07L-269.02,-167.64L-269.37,-172.85ZM-130.16,-194.80L-138.32,-202.82L-148.78,-358.98L-198.86,-346.10L-198.51,-340.89L-184.05,-338.29L-179.39,-329.08L-176.66,-288.32C-186.55,-290.28 -197.15,-292.19 -206.80,-294.16C-222.00,-286.47 -237.45,-279.01 -252.64,-271.33C-256.87,-256.29 -261.32,-240.99 -265.55,-225.95L-251.40,-185.24C-236.28,-179.83 -221.38,-174.16 -206.26,-168.75L-170.40,-194.96L-168.81,-171.26L-115.36,-186.98L-115.71,-192.19ZM-199.15,-190.65C-209.46,-198.77 -219.54,-207.14 -229.84,-215.25L-236.93,-253.58C-232.72,-261.71 -228.28,-270.10 -224.07,-278.24L-199.64,-283.21C-192.06,-280.15 -183.48,-276.44 -175.64,-273.16L-170.86,-201.83C-179.91,-198.37 -190.34,-194.10 -199.15,-190.65ZM71.19,-230.66L56.17,-209.66L43.38,-201.66L6.77,-197.31L-2.20,-206.94L-6.12,-265.47L32.99,-267.85L43.69,-260.95L48.89,-250.83L54.34,-251.19L51.09,-299.77L45.63,-299.41L41.83,-288.68L31.66,-280.62L31.68,-280.38L-6.93,-277.56L-10.46,-330.16L-2.85,-340.91L33.52,-341.68L47.28,-335.22L63.31,-316.30L69.23,-316.70L61.57,-356.41L-65.68,-347.89L-65.33,-342.67L-54.86,-342.66L-46.32,-332.52L-37.43,-199.82L-44.54,-188.63L-54.91,-187.22L-54.57,-182.01L73.16,-190.57L77.11,-231.06ZM206.24,-215.19L198.08,-223.22L193.78,-287.44C187.47,-296.30 181.40,-305.17 175.11,-313.80C160.04,-314.93 145.47,-315.62 130.40,-316.75C117.10,-309.20 103.28,-302.32 89.73,-294.98L109.16,-260.82L114.37,-261.17C116.81,-274.42 119.04,-287.43 121.48,-300.68L148.60,-307.97C152.84,-301.59 156.84,-295.20 161.09,-288.58L162.85,-262.27C143.95,-256.72 120.61,-249.68 101.94,-244.15C98.25,-235.33 94.30,-226.74 90.59,-218.16C97.89,-208.65 104.71,-199.35 111.77,-189.82C124.96,-191.90 137.71,-193.46 150.89,-195.78L165.90,-216.78L167.46,-193.55L221.04,-207.38L220.69,-212.59ZM142.11,-205.90C136.92,-208.88 131.46,-212.09 126.27,-215.07L124.90,-235.45C136.54,-242.90 150.98,-251.24 163.09,-258.72L165.54,-222.23C158.27,-216.98 149.41,-210.67 142.11,-205.90ZM311.64,-329.61C303.96,-326.95 296.01,-324.75 288.34,-322.10C282.56,-312.43 276.86,-301.57 271.08,-291.90L268.74,-326.74L218.72,-313.15L219.07,-307.93L233.52,-305.33C235.15,-302.35 236.56,-299.11 238.19,-296.12L243.38,-218.64C241.01,-214.91 238.64,-211.18 236.27,-207.45L225.89,-206.04L226.24,-200.83L304.92,-206.10L304.57,-211.31C298.63,-211.15 292.69,-210.99 286.75,-210.83L275.84,-220.81L271.55,-284.79L297.77,-309.16C300.21,-308.37 302.64,-307.58 305.07,-306.79L318.86,-278.68L324.07,-279.03L333.05,-319.14C325.89,-322.95 318.79,-325.80 311.64,-329.61ZM430.03,-239.47C426.14,-237.07 422.00,-234.89 418.12,-232.49L401.06,-231.34C397.72,-234.93 394.61,-238.77 391.27,-242.35L386.00,-321.02L421.07,-323.37L420.44,-332.85L385.37,-330.50L383.30,-361.31L374.77,-360.74L365.05,-338.90C361.22,-335.55 357.66,-331.98 353.85,-328.39L337.97,-327.33L338.59,-318.09L350.91,-318.91L353.93,-312.93L359.14,-235.20C362.70,-228.30 366.51,-221.17 370.07,-214.27L406.51,-210.29C415.52,-218.03 425.47,-225.84 434.47,-233.58ZM578.45,-230.38L569.92,-240.52L564.62,-319.66C560.11,-326.50 555.39,-333.09 550.88,-339.93C540.58,-340.90 530.28,-341.88 519.98,-342.86L483.89,-316.63L478.24,-401.00L428.16,-388.12L428.51,-382.91L442.97,-380.30L447.63,-371.09L456.89,-232.94L449.78,-221.75L439.40,-220.34L439.75,-215.13L508.71,-219.75L508.36,-224.97L497.89,-224.98L489.35,-235.12L484.29,-310.71C495.82,-316.24 503.49,-318.90 515.02,-324.43C520.87,-318.87 526.94,-313.57 532.79,-308.01L537.46,-238.34L530.35,-227.15L519.97,-225.74L520.32,-220.53L589.28,-225.15L588.93,-230.36Z" fill="#ffffff" stroke="#000000"/>
    <path d="M-602.82,-207.77L-634.62,-216.29L-605.96,-226.38L-597.17,-257.73L-610.19,-284.74L-634.59,-295.04L-739.30,-286.61L-738.88,-281.46L-728.52,-281.58L-719.94,-271.66L-709.39,-140.49L-716.27,-129.33L-726.52,-127.79L-726.10,-122.64L-621.16,-131.08L-589.80,-151.53L-582.78,-178.50ZM-649.52,-281.34L-635.65,-267.13L-631.38,-237.53L-648.02,-218.75L-680.11,-216.17L-684.90,-275.66L-678.20,-283.27ZM-633.30,-138.36L-666.33,-135.70L-674.16,-142.14L-679.45,-207.97L-637.45,-204.51L-623.58,-187.47L-619.05,-160.49ZM-440.35,-157.66L-445.56,-166.67L-453.51,-265.52L-502.88,-252.12L-502.47,-246.96L-488.13,-244.58L-483.40,-235.53L-478.03,-168.77C-486.86,-164.29 -495.44,-159.59 -504.27,-155.11C-510.13,-160.53 -516.21,-165.70 -522.07,-171.12L-529.17,-259.43L-578.55,-246.03L-578.13,-240.87L-563.79,-238.49L-559.06,-229.44L-553.40,-159.17C-548.86,-152.46 -544.09,-146.01 -539.55,-139.30C-529.34,-138.47 -519.14,-137.64 -508.93,-136.81L-477.55,-162.91L-475.44,-139.51L-426.30,-152.89L-426.71,-158.05ZM-397.34,-294.09C-391.79,-295.47 -387.40,-296.54 -383.01,-297.60L-377.29,-311.49C-378.58,-315.87 -380.11,-320.23 -381.41,-324.60C-385.77,-326.14 -390.14,-327.67 -394.29,-329.46L-408.59,-325.48C-411.10,-321.51 -413.12,-317.33 -415.38,-313.14C-413.81,-308.32 -411.78,-303.53 -410.44,-298.69C-406.08,-297.15 -401.94,-295.60 -397.34,-294.09ZM-359.99,-157.99L-368.56,-167.91L-376.67,-268.64L-391.89,-267.41L-426.04,-255.23L-425.63,-250.08L-411.29,-247.70L-406.55,-238.65L-400.66,-165.33L-407.54,-154.17L-417.79,-152.63L-417.37,-147.48L-349.21,-152.97L-349.62,-158.12ZM-284.56,-164.06L-292.67,-174.02L-305.86,-337.99L-355.24,-324.59L-354.82,-319.43L-340.48,-317.05L-335.75,-308.00L-324.74,-171.20L-331.41,-160.29L-341.66,-158.76L-341.24,-153.61L-273.78,-159.03L-274.20,-164.19ZM-136.76,-187.74L-144.93,-195.57L-157.35,-349.94L-206.73,-336.53L-206.31,-331.38L-191.97,-329.00L-187.24,-319.95L-184.00,-279.66C-193.81,-281.46 -204.32,-283.21 -213.90,-285.03C-228.83,-277.23 -244.02,-269.64 -258.95,-261.84C-262.93,-246.90 -267.13,-231.71 -271.12,-216.77L-256.58,-176.69C-241.55,-171.53 -226.73,-166.12 -211.70,-160.97L-176.57,-187.37L-174.69,-163.94L-122.01,-180.21L-122.42,-185.36ZM-204.96,-182.73C-215.26,-190.62 -225.35,-198.77 -235.65,-206.66L-243.17,-244.48C-239.11,-252.59 -234.83,-260.95 -230.77,-269.06L-206.67,-274.30C-199.13,-271.37 -190.59,-267.81 -182.79,-264.67L-177.12,-194.16C-186.03,-190.61 -196.28,-186.25 -204.96,-182.73ZM61.98,-225.89L47.40,-204.92L34.85,-196.83L-1.31,-192.04L-10.31,-201.45L-14.97,-259.31L23.70,-262.19L34.37,-255.50L39.65,-245.55L45.04,-245.98L41.18,-294.00L35.79,-293.57L32.17,-282.91L22.21,-274.80L22.23,-274.56L-15.93,-271.26L-20.12,-323.26L-12.73,-333.99L23.24,-335.23L36.95,-329.03L53.05,-310.52L58.91,-310.99L50.80,-350.18L-74.98,-340.06L-74.57,-334.91L-64.21,-335.03L-55.63,-325.12L-45.07,-193.94L-51.96,-182.78L-62.21,-181.24L-61.79,-176.09L64.47,-186.25L67.84,-226.36ZM195.80,-212.38L187.63,-220.21L182.52,-283.69C176.16,-292.37 170.04,-301.07 163.70,-309.52C148.78,-310.44 134.36,-310.93 119.43,-311.85C106.37,-304.20 92.79,-297.21 79.48,-289.78L99.15,-256.23L104.30,-256.65C106.55,-269.79 108.57,-282.69 110.82,-295.84L137.55,-303.41C141.83,-297.15 145.87,-290.88 150.17,-284.38L152.26,-258.38C133.62,-252.64 110.63,-245.37 92.23,-239.64C88.69,-230.87 84.90,-222.32 81.35,-213.78C88.70,-204.47 95.56,-195.35 102.68,-186.02C115.70,-188.25 128.29,-189.97 141.30,-192.43L155.88,-213.41L157.72,-190.45L210.55,-204.84L210.14,-209.99ZM132.48,-202.33C127.30,-205.22 121.87,-208.31 116.68,-211.20L115.06,-231.34C126.48,-238.86 140.65,-247.31 152.54,-254.87L155.44,-218.80C148.32,-213.51 139.64,-207.15 132.48,-202.33ZM298.57,-326.97C291.01,-324.24 283.18,-321.96 275.61,-319.23C270.03,-309.59 264.53,-298.77 258.94,-289.13L256.17,-323.56L206.85,-309.46L207.27,-304.30L221.60,-301.92C223.25,-298.99 224.69,-295.80 226.34,-292.87L232.50,-216.27C230.21,-212.55 227.92,-208.83 225.62,-205.11L215.37,-203.58L215.79,-198.43L293.55,-204.68L293.14,-209.84C287.27,-209.60 281.39,-209.36 275.52,-209.13L264.59,-218.86L259.51,-282.10L285.12,-306.56C287.54,-305.81 289.96,-305.06 292.38,-304.31L306.39,-276.68L311.54,-277.09L319.89,-316.90C312.76,-320.57 305.70,-323.30 298.57,-326.97ZM416.90,-239.36C413.08,-236.93 409.02,-234.72 405.21,-232.29L388.34,-230.93C384.99,-234.44 381.86,-238.19 378.52,-241.70L372.26,-319.46L406.93,-322.25L406.17,-331.62L371.50,-328.83L369.05,-359.29L360.62,-358.61L351.29,-336.87C347.55,-333.51 344.07,-329.93 340.35,-326.33L324.66,-325.06L325.39,-315.93L337.57,-316.91L340.64,-311.03L346.82,-234.19C350.43,-227.41 354.29,-220.41 357.90,-213.63L394.02,-210.17C402.82,-217.95 412.56,-225.81 421.37,-233.59ZM563.87,-232.33L555.29,-242.25L549.00,-320.48C544.45,-327.19 539.68,-333.64 535.14,-340.35C524.93,-341.18 514.73,-342.01 504.52,-342.84L469.16,-316.42L462.45,-399.81L413.08,-386.40L413.50,-381.25L427.83,-378.87L432.57,-369.82L443.56,-233.26L436.67,-222.09L426.42,-220.56L426.84,-215.41L495.00,-220.89L494.59,-226.04L484.23,-225.92L475.65,-235.84L469.64,-310.56C480.97,-316.19 488.53,-318.92 499.87,-324.55C505.73,-319.12 511.80,-313.95 517.66,-308.53L523.20,-239.66L516.32,-228.50L506.07,-226.97L506.48,-221.81L574.65,-227.30L574.23,-232.45Z" fill="#ffffff" stroke="#000000"/>
    <path d="M-604.39,-194.26L-635.97,-202.27L-607.75,-212.63L-599.47,-243.76L-612.71,-270.31L-636.98,-280.17L-740.46,-270.45L-739.98,-265.36L-729.73,-265.62L-721.11,-255.92L-708.93,-126.29L-715.59,-115.16L-725.71,-113.51L-725.23,-108.41L-621.53,-118.16L-590.78,-138.79L-584.18,-165.57ZM-651.57,-266.42L-637.66,-252.55L-633.05,-223.33L-649.26,-204.52L-680.97,-201.54L-686.50,-260.34L-679.97,-267.96ZM-633.63,-125.19L-666.27,-122.13L-674.10,-128.40L-680.21,-193.44L-638.61,-190.58L-624.67,-173.91L-619.83,-147.27ZM-443.01,-146.84L-448.28,-155.68L-457.46,-253.37L-506.12,-239.45L-505.64,-234.36L-491.43,-232.19L-486.62,-223.30L-480.43,-157.33C-489.11,-152.78 -497.53,-148.02 -506.21,-143.47C-512.08,-148.75 -518.16,-153.79 -524.03,-159.07L-532.22,-246.34L-580.89,-232.43L-580.41,-227.34L-566.20,-225.17L-561.39,-216.28L-554.87,-146.84C-550.28,-140.26 -545.48,-133.94 -540.90,-127.36C-530.79,-126.68 -520.68,-125.99 -510.58,-125.31L-479.88,-151.55L-477.48,-128.42L-429.04,-142.31L-429.52,-147.40ZM-402.27,-282.37C-396.80,-283.82 -392.47,-284.93 -388.13,-286.03L-382.66,-299.86C-384.00,-304.17 -385.57,-308.46 -386.91,-312.77C-391.25,-314.23 -395.59,-315.69 -399.72,-317.40L-413.81,-313.28C-416.24,-309.31 -418.19,-305.16 -420.36,-300.99C-418.75,-296.23 -416.67,-291.53 -415.29,-286.75C-410.95,-285.29 -406.84,-283.81 -402.27,-282.37ZM-363.51,-148.23L-372.13,-157.93L-381.48,-257.47L-396.52,-256.05L-430.15,-243.56L-429.67,-238.46L-415.45,-236.30L-410.65,-227.41L-403.84,-154.95L-410.50,-143.82L-420.62,-142.17L-420.14,-137.07L-352.78,-143.40L-353.26,-148.49ZM-288.97,-155.23L-297.13,-164.98L-312.35,-327.01L-361.02,-313.10L-360.54,-308.01L-346.32,-305.84L-341.52,-296.95L-328.82,-161.77L-335.27,-150.89L-345.39,-149.23L-344.91,-144.14L-278.24,-150.40L-278.72,-155.50ZM-143.07,-180.62L-151.26,-188.26L-165.59,-340.80L-214.26,-326.89L-213.78,-321.80L-199.57,-319.63L-194.76,-310.74L-191.02,-270.92C-200.75,-272.58 -211.17,-274.17 -220.67,-275.84C-235.34,-267.93 -250.26,-260.22 -264.93,-252.30C-268.68,-237.47 -272.63,-222.39 -276.37,-207.56L-261.46,-168.09C-246.52,-163.19 -231.79,-158.04 -216.85,-153.14L-182.45,-179.72L-180.28,-156.57L-128.38,-173.36L-128.86,-178.45ZM-210.48,-174.75C-220.77,-182.43 -230.86,-190.35 -241.15,-198.03L-249.09,-235.34C-245.18,-243.42 -241.06,-251.74 -237.15,-259.82L-213.38,-265.32C-205.88,-262.52 -197.38,-259.12 -189.63,-256.11L-183.08,-186.43C-191.85,-182.81 -201.94,-178.36 -210.48,-174.75ZM53.03,-220.99L38.89,-200.05L26.58,-191.88L-9.13,-186.66L-18.17,-195.85L-23.54,-253.03L14.68,-256.39L25.33,-249.91L30.68,-240.14L36.01,-240.64L31.55,-288.10L26.23,-287.60L22.78,-277.00L13.04,-268.84L13.06,-268.61L-24.65,-264.84L-29.47,-316.22L-22.31,-326.94L13.26,-328.65L26.90,-322.69L43.08,-304.59L48.86,-305.14L40.33,-343.80L-83.98,-332.12L-83.50,-327.03L-73.25,-327.29L-64.63,-317.59L-52.45,-187.96L-59.11,-176.83L-69.23,-175.18L-68.75,-170.08L56.01,-181.81L58.82,-221.54ZM185.60,-209.39L177.41,-217.03L171.51,-279.76C165.11,-288.27 158.94,-296.79 152.56,-305.07C137.78,-305.78 123.50,-306.08 108.72,-306.79C95.91,-299.05 82.56,-291.95 69.49,-284.42L89.40,-251.50L94.49,-251.98C96.54,-265.01 98.37,-277.79 100.42,-290.83L126.77,-298.68C131.08,-292.54 135.16,-286.39 139.50,-280.02L141.91,-254.33C123.55,-248.40 100.90,-240.90 82.78,-234.99C79.39,-226.27 75.76,-217.76 72.35,-209.26C79.74,-200.15 86.65,-191.22 93.82,-182.09C106.67,-184.46 119.11,-186.33 131.94,-188.94L146.08,-209.88L148.22,-187.20L200.29,-202.13L199.81,-207.22ZM123.09,-198.62C117.92,-201.40 112.51,-204.39 107.34,-207.18L105.47,-227.09C116.67,-234.68 130.58,-243.22 142.24,-250.86L145.58,-215.21C138.61,-209.88 130.11,-203.48 123.09,-198.62ZM285.74,-324.12C278.30,-321.32 270.58,-318.96 263.14,-316.16C257.74,-306.54 252.44,-295.77 247.04,-286.16L243.84,-320.18L195.24,-305.58L195.72,-300.48L209.94,-298.32C211.61,-295.44 213.07,-292.31 214.74,-289.43L221.85,-213.73C219.63,-210.02 217.41,-206.31 215.19,-202.60L205.07,-200.95L205.55,-195.85L282.40,-203.07L281.92,-208.17C276.11,-207.85 270.31,-207.54 264.50,-207.23L253.56,-216.71L247.69,-279.21L272.71,-303.75C275.11,-303.04 277.51,-302.33 279.92,-301.62L294.14,-274.47L299.24,-274.95L306.97,-314.44C299.86,-317.97 292.85,-320.58 285.74,-324.12ZM403.96,-239.01C400.22,-236.56 396.23,-234.32 392.49,-231.86L375.82,-230.30C372.47,-233.72 369.32,-237.39 365.96,-240.81L358.74,-317.67L393.00,-320.88L392.13,-330.14L357.87,-326.93L355.04,-357.02L346.71,-356.24L337.77,-334.61C334.11,-331.23 330.71,-327.64 327.08,-324.03L311.57,-322.58L312.42,-313.55L324.46,-314.68L327.57,-308.90L334.70,-232.97C338.37,-226.31 342.28,-219.44 345.94,-212.78L381.71,-209.83C390.32,-217.65 399.85,-225.55 408.46,-233.36ZM549.45,-234.00L540.83,-243.70L533.57,-321.01C528.98,-327.59 524.18,-333.91 519.60,-340.48C509.49,-341.17 499.38,-341.85 489.28,-342.54L454.65,-315.93L446.91,-398.34L398.24,-384.43L398.72,-379.34L412.93,-377.17L417.74,-368.28L430.42,-233.33L423.76,-222.19L413.64,-220.54L414.11,-215.45L481.48,-221.78L481.00,-226.87L470.75,-226.61L462.13,-236.30L455.19,-310.15C466.33,-315.86 473.77,-318.66 484.91,-324.38C490.78,-319.09 496.86,-314.06 502.73,-308.77L509.12,-240.72L502.46,-229.58L492.34,-227.93L492.82,-222.84L560.18,-229.17L559.70,-234.26Z" fill="#ffffff" stroke="#000000"/>
    <path d="M-605.61,-180.82L-636.95,-188.32L-609.17,-198.94L-601.39,-229.85L-614.83,-255.93L-638.98,-265.37L-741.20,-254.38L-740.66,-249.35L-730.53,-249.75L-721.87,-240.27L-708.11,-112.20L-714.55,-101.10L-724.54,-99.33L-724.00,-94.30L-621.55,-105.31L-591.40,-126.13L-585.24,-152.70ZM-653.23,-251.58L-639.28,-238.04L-634.33,-209.19L-650.12,-190.38L-681.45,-187.01L-687.69,-245.10L-681.34,-252.72ZM-633.62,-112.11L-665.86,-108.65L-673.69,-114.75L-680.59,-179.01L-639.40,-176.72L-625.39,-160.42L-620.25,-134.14ZM-445.35,-136.05L-450.67,-144.73L-461.04,-241.23L-509.00,-226.82L-508.46,-221.79L-494.37,-219.84L-489.50,-211.11L-482.49,-145.93C-491.02,-141.32 -499.29,-136.49 -507.82,-131.88C-513.69,-137.03 -519.77,-141.93 -525.64,-147.08L-534.91,-233.29L-582.86,-218.89L-582.32,-213.86L-568.23,-211.90L-563.36,-203.17L-555.99,-134.57C-551.37,-128.12 -546.54,-121.93 -541.91,-115.49C-531.91,-114.95 -521.90,-114.40 -511.90,-113.86L-481.88,-140.22L-479.19,-117.37L-431.47,-131.75L-432.01,-136.78ZM-406.84,-270.65C-401.45,-272.16 -397.18,-273.31 -392.90,-274.46L-387.67,-288.21C-389.05,-292.46 -390.66,-296.68 -392.05,-300.92C-396.36,-302.31 -400.67,-303.70 -404.78,-305.34L-418.66,-301.07C-421.02,-297.12 -422.88,-292.98 -424.98,-288.83C-423.32,-284.15 -421.21,-279.52 -419.78,-274.81C-415.46,-273.42 -411.38,-272.01 -406.84,-270.65ZM-366.73,-138.48L-375.38,-147.96L-385.94,-246.29L-400.81,-244.70L-433.90,-231.89L-433.36,-226.86L-419.27,-224.90L-414.40,-216.17L-406.71,-144.59L-413.15,-133.49L-423.14,-131.72L-422.60,-126.69L-356.05,-133.84L-356.59,-138.88ZM-293.09,-146.39L-301.28,-155.92L-318.49,-316.00L-366.44,-301.59L-365.90,-296.56L-351.81,-294.61L-346.94,-285.88L-332.59,-152.33L-338.83,-141.48L-348.81,-139.71L-348.27,-134.68L-282.41,-141.76L-282.95,-146.79ZM-149.10,-173.43L-157.31,-180.88L-173.50,-331.58L-221.46,-317.17L-220.92,-312.14L-206.83,-310.19L-201.96,-301.46L-197.73,-262.12C-207.37,-263.63 -217.71,-265.07 -227.13,-266.60C-241.53,-258.57 -256.19,-250.75 -270.59,-242.73C-274.10,-228.01 -277.81,-213.04 -281.32,-198.32L-266.04,-159.48C-251.20,-154.83 -236.56,-149.92 -221.72,-145.27L-188.05,-172.02L-185.59,-149.15L-134.47,-166.44L-135.01,-171.48ZM-215.70,-166.74C-225.99,-174.19 -236.07,-181.90 -246.35,-189.35L-254.70,-226.16C-250.94,-234.20 -246.97,-242.49 -243.21,-250.53L-219.77,-256.29C-212.31,-253.62 -203.87,-250.36 -196.16,-247.49L-188.76,-178.65C-197.38,-174.95 -207.30,-170.42 -215.70,-166.74ZM44.34,-215.96L30.62,-195.06L18.56,-186.82L-16.69,-181.18L-25.75,-190.16L-31.82,-246.64L5.93,-250.47L16.55,-244.21L21.98,-234.61L27.24,-235.18L22.20,-282.06L16.94,-281.49L13.68,-270.96L4.15,-262.77L4.17,-262.54L-33.08,-258.30L-38.53,-309.07L-31.59,-319.77L3.57,-321.92L17.14,-316.21L33.38,-298.53L39.10,-299.14L30.15,-337.27L-92.66,-324.08L-92.12,-319.04L-81.98,-319.44L-73.33,-309.96L-59.57,-181.90L-66.01,-170.80L-75.99,-169.03L-75.45,-164.00L47.81,-177.24L50.06,-216.58ZM175.62,-206.24L167.42,-213.69L160.76,-275.66C154.31,-283.99 148.09,-292.35 141.67,-300.45C127.04,-300.96 112.92,-301.06 98.29,-301.57C85.72,-293.74 72.61,-286.55 59.78,-278.92L79.91,-246.62L84.94,-247.16C86.79,-260.08 88.43,-272.75 90.28,-285.67L116.25,-293.78C120.59,-287.77 124.71,-281.74 129.08,-275.50L131.81,-250.12C113.73,-244.01 91.43,-236.29 73.57,-230.21C70.34,-221.53 66.86,-213.06 63.60,-204.62C71.04,-195.70 77.99,-186.96 85.20,-178.02C97.88,-180.54 110.16,-182.55 122.81,-185.30L136.53,-206.21L138.94,-183.80L190.25,-199.26L189.71,-204.29ZM113.93,-194.76C108.79,-197.44 103.39,-200.33 98.24,-203.02L96.13,-222.69C107.10,-230.34 120.75,-238.98 132.18,-246.68L135.96,-211.47C129.14,-206.11 120.81,-199.66 113.93,-194.76ZM273.16,-321.05C265.84,-318.18 258.23,-315.75 250.91,-312.88C245.69,-303.30 240.60,-292.57 235.38,-282.99L231.77,-316.61L183.89,-301.51L184.43,-296.48L198.52,-294.53C200.21,-291.70 201.70,-288.62 203.39,-285.80L211.42,-211.02C209.28,-207.32 207.13,-203.62 204.98,-199.92L194.99,-198.15L195.54,-193.12L271.46,-201.28L270.92,-206.31C265.18,-205.92 259.43,-205.54 253.69,-205.15L242.75,-214.38L236.12,-276.13L260.54,-300.73C262.93,-300.06 265.31,-299.39 267.70,-298.72L282.13,-272.05L287.16,-272.59L294.28,-311.76C287.21,-315.16 280.23,-317.65 273.16,-321.05ZM391.22,-238.44C387.56,-235.96 383.64,-233.69 379.97,-231.21L363.51,-229.44C360.14,-232.78 356.98,-236.37 353.61,-239.71L345.45,-315.64L379.30,-319.27L378.32,-328.42L344.47,-324.78L341.28,-354.51L333.04,-353.63L324.48,-332.12C320.91,-328.73 317.60,-325.14 314.06,-321.52L298.73,-319.87L299.69,-310.95L311.58,-312.23L314.74,-306.55L322.80,-231.54C326.51,-225.00 330.47,-218.26 334.18,-211.72L369.61,-209.28C378.02,-217.12 387.34,-225.06 395.75,-232.91ZM535.20,-235.40L526.55,-244.88L518.34,-321.26C513.72,-327.70 508.89,-333.89 504.26,-340.34C494.26,-340.88 484.25,-341.42 474.25,-341.97L440.34,-315.19L431.60,-396.60L383.64,-382.20L384.18,-377.17L398.27,-375.21L403.14,-366.48L417.47,-233.16L411.03,-222.06L401.04,-220.29L401.58,-215.26L468.13,-222.41L467.59,-227.44L457.45,-227.05L448.80,-236.53L440.96,-309.48C451.90,-315.28 459.23,-318.15 470.17,-323.95C476.04,-318.80 482.12,-313.90 488.00,-308.75L495.22,-241.51L488.78,-230.41L478.79,-228.65L479.33,-223.61L545.88,-230.77L545.34,-235.80Z" fill="#ffffff" stroke="#000000"/>
    <path d="M-606.46,-167.46L-637.55,-174.46L-610.22,-185.33L-602.94,-216.01L-616.58,-241.62L-640.58,-250.64L-741.54,-238.42L-740.94,-233.45L-730.92,-233.97L-722.24,-224.71L-706.93,-98.24L-713.15,-87.17L-723.01,-85.29L-722.41,-80.32L-621.23,-92.57L-591.68,-113.56L-585.94,-139.92ZM-654.49,-236.81L-640.52,-223.60L-635.24,-195.14L-650.61,-176.32L-681.55,-172.58L-688.49,-229.94L-682.31,-237.57ZM-633.25,-99.13L-665.09,-95.28L-672.92,-101.21L-680.60,-164.67L-639.83,-162.96L-625.75,-147.02L-620.32,-121.09ZM-447.36,-125.29L-452.74,-133.81L-464.28,-229.12L-511.52,-214.24L-510.91,-209.27L-496.95,-207.52L-492.02,-198.95L-484.23,-134.58C-492.60,-129.90 -500.72,-125.02 -509.09,-120.34C-514.97,-125.36 -521.04,-130.13 -526.92,-135.14L-537.23,-220.29L-584.47,-205.41L-583.86,-200.44L-569.90,-198.69L-564.97,-190.12L-556.77,-122.37C-552.11,-116.05 -547.25,-110.00 -542.59,-103.69C-532.69,-103.28 -522.79,-102.87 -512.89,-102.47L-483.55,-128.94L-480.59,-106.38L-433.58,-121.23L-434.18,-126.20ZM-411.05,-258.93C-405.74,-260.49 -401.53,-261.69 -397.32,-262.89L-392.33,-276.55C-393.75,-280.74 -395.40,-284.89 -396.83,-289.07C-401.11,-290.39 -405.39,-291.70 -409.48,-293.27L-423.15,-288.86C-425.43,-284.92 -427.22,-280.81 -429.24,-276.67C-427.54,-272.06 -425.38,-267.51 -423.91,-262.88C-419.62,-261.56 -415.56,-260.22 -411.05,-258.93ZM-369.63,-128.74L-378.31,-138.00L-390.07,-235.12L-404.75,-233.34L-437.31,-220.24L-436.71,-215.27L-422.74,-213.52L-417.81,-204.95L-409.26,-134.26L-415.48,-123.19L-425.34,-121.31L-424.73,-116.35L-359.01,-124.30L-359.61,-129.27ZM-296.91,-137.54L-305.14,-146.86L-324.27,-304.96L-371.51,-290.07L-370.91,-285.10L-356.95,-283.36L-352.02,-274.79L-336.05,-142.89L-342.08,-132.08L-351.93,-130.20L-351.33,-125.23L-286.29,-133.10L-286.89,-138.07ZM-154.86,-166.19L-163.07,-173.45L-181.08,-322.28L-228.32,-307.40L-227.72,-302.43L-213.76,-300.68L-208.82,-292.12L-204.12,-253.27C-213.68,-254.63 -223.92,-255.91 -233.26,-257.31C-247.40,-249.18 -261.79,-241.25 -275.93,-233.12C-279.21,-218.52 -282.68,-203.66 -285.95,-189.05L-270.33,-150.84C-255.59,-146.44 -241.05,-141.78 -226.31,-137.38L-193.35,-164.28L-190.62,-141.70L-140.30,-159.47L-140.90,-164.44ZM-220.64,-158.69C-230.91,-165.93 -240.98,-173.41 -251.25,-180.65L-260.00,-216.95C-256.38,-224.95 -252.57,-233.20 -248.95,-241.20L-225.85,-247.20C-218.44,-244.66 -210.04,-241.55 -202.37,-238.81L-194.15,-170.83C-202.63,-167.06 -212.38,-162.44 -220.64,-158.69ZM35.90,-210.82L22.61,-189.96L10.79,-181.65L-24.00,-175.61L-33.08,-184.37L-39.83,-240.15L-2.54,-244.44L8.05,-238.38L13.54,-228.97L18.73,-229.59L13.13,-275.89L7.94,-275.26L4.85,-264.81L-4.47,-256.58L-4.44,-256.35L-41.23,-251.67L-47.29,-301.81L-40.56,-312.48L-5.82,-315.08L7.68,-309.61L23.98,-292.33L29.62,-293.01L20.26,-330.61L-101.02,-315.93L-100.42,-310.96L-90.40,-311.49L-81.72,-302.23L-66.41,-175.75L-72.64,-164.68L-82.49,-162.80L-81.89,-157.83L39.84,-172.57L41.55,-211.50ZM165.87,-202.94L157.66,-210.20L150.25,-271.40C143.77,-279.56 137.51,-287.74 131.05,-295.66C116.57,-295.97 102.61,-295.89 88.13,-296.20C75.80,-288.29 62.93,-281.00 50.34,-273.29L70.68,-241.61L75.64,-242.21C77.30,-255.01 78.76,-267.57 80.42,-280.37L105.99,-288.74C110.37,-282.85 114.52,-276.93 118.93,-270.82L121.96,-245.75C104.16,-239.47 82.20,-231.55 64.63,-225.29C61.55,-216.67 58.21,-208.25 55.10,-199.85C62.58,-191.13 69.57,-182.58 76.81,-173.83C89.33,-176.49 101.44,-178.65 113.92,-181.53L127.21,-202.39L129.89,-180.26L180.43,-196.23L179.83,-201.19ZM105.01,-190.77C99.89,-193.35 94.51,-196.14 89.38,-198.73L87.03,-218.15C97.79,-225.87 111.17,-234.59 122.37,-242.36L126.58,-207.58C119.90,-202.19 111.75,-195.71 105.01,-190.77ZM260.83,-317.78C253.62,-314.85 246.13,-312.34 238.92,-309.41C233.89,-299.86 229.00,-289.18 223.96,-279.64L219.95,-312.84L172.79,-297.28L173.39,-292.31L187.35,-290.56C189.06,-287.79 190.57,-284.76 192.28,-281.99L201.22,-208.14C199.15,-204.45 197.07,-200.76 195.00,-197.07L185.14,-195.19L185.74,-190.22L260.73,-199.30L260.13,-204.27C254.45,-203.81 248.78,-203.35 243.11,-202.89L232.16,-211.88L224.78,-272.86L248.61,-297.52C250.98,-296.89 253.35,-296.26 255.72,-295.63L270.34,-269.44L275.31,-270.04L281.84,-308.87C274.80,-312.14 267.87,-314.51 260.83,-317.78ZM378.69,-237.63C375.09,-235.14 371.25,-232.84 367.65,-230.34L351.39,-228.37C348.02,-231.63 344.85,-235.14 341.47,-238.40L332.40,-313.38L365.82,-317.43L364.73,-326.46L331.30,-322.42L327.75,-351.78L319.62,-350.80L311.44,-329.41C307.95,-326.01 304.72,-322.41 301.27,-318.78L286.13,-316.95L287.20,-308.14L298.94,-309.56L302.14,-303.99L311.10,-229.91C314.86,-223.49 318.87,-216.87 322.63,-210.45L357.69,-208.51C365.91,-216.38 375.02,-224.36 383.24,-232.23ZM521.13,-236.54L512.45,-245.80L503.32,-321.24C498.66,-327.55 493.80,-333.60 489.14,-339.91C479.24,-340.32 469.33,-340.73 459.43,-341.13L426.25,-314.20L416.52,-394.60L369.28,-379.72L369.89,-374.75L383.85,-373.00L388.78,-364.44L404.71,-232.76L398.49,-221.70L388.64,-219.82L389.24,-214.85L454.96,-222.80L454.36,-227.77L444.34,-227.25L435.66,-236.51L426.94,-308.55C437.68,-314.44 444.89,-317.37 455.64,-323.26C461.51,-318.24 467.59,-313.47 473.47,-308.46L481.50,-242.06L475.28,-230.99L465.43,-229.11L466.03,-224.14L531.75,-232.10L531.15,-237.06Z" fill="#ffffff" stroke="#000000"/>
    <path d="M-606.95,-154.18L-637.79,-160.70L-610.91,-171.81L-604.11,-202.24L-617.94,-227.39L-641.80,-235.99L-741.47,-222.57L-740.81,-217.66L-730.91,-218.31L-722.20,-209.27L-705.39,-84.40L-711.40,-73.37L-721.12,-71.38L-720.46,-66.48L-620.56,-79.92L-591.62,-101.07L-586.29,-127.22ZM-655.37,-222.13L-641.38,-209.25L-635.78,-181.17L-650.73,-162.36L-681.28,-158.25L-688.90,-214.89L-682.89,-222.51ZM-632.54,-86.26L-663.98,-82.02L-671.79,-87.78L-680.23,-150.44L-639.89,-149.29L-625.76,-133.71L-620.05,-108.14ZM-449.05,-114.59L-454.49,-122.94L-467.16,-217.04L-513.68,-201.70L-513.02,-196.79L-499.19,-195.25L-494.19,-186.84L-485.64,-123.29C-493.86,-118.55 -501.82,-113.62 -510.04,-108.88C-515.91,-113.76 -521.99,-118.39 -527.87,-123.28L-539.18,-207.34L-585.70,-192.00L-585.04,-187.10L-571.21,-185.55L-566.22,-177.14L-557.21,-110.25C-552.52,-104.07 -547.64,-98.14 -542.95,-91.96C-533.15,-91.69 -523.35,-91.42 -513.55,-91.15L-484.89,-117.71L-481.66,-95.44L-435.37,-110.76L-436.03,-115.66ZM-414.92,-247.23C-409.69,-248.84 -405.54,-250.08 -401.39,-251.32L-396.64,-264.90C-398.10,-269.02 -399.78,-273.10 -401.25,-277.22C-405.50,-278.47 -409.75,-279.71 -413.82,-281.21L-427.28,-276.67C-429.48,-272.74 -431.20,-268.65 -433.14,-264.53C-431.39,-260.00 -429.20,-255.52 -427.68,-250.96C-423.43,-249.72 -419.39,-248.44 -414.92,-247.23ZM-372.23,-119.03L-380.94,-128.07L-393.85,-223.96L-408.34,-222.01L-440.37,-208.61L-439.71,-203.71L-425.88,-202.16L-420.89,-193.76L-411.49,-123.96L-417.50,-112.93L-427.22,-110.94L-426.56,-106.04L-361.67,-114.77L-362.33,-119.68ZM-300.43,-128.69L-308.69,-137.80L-329.71,-293.89L-376.23,-278.55L-375.56,-273.64L-361.74,-272.10L-356.74,-263.69L-339.21,-133.46L-345.03,-122.69L-354.75,-120.70L-354.09,-115.79L-289.87,-124.44L-290.53,-129.35ZM-160.33,-158.90L-168.55,-165.97L-188.33,-312.92L-234.85,-297.58L-234.19,-292.67L-220.36,-291.13L-215.37,-282.72L-210.21,-244.37C-219.68,-245.59 -229.82,-246.72 -239.07,-247.97C-252.95,-239.75 -267.08,-231.71 -280.95,-223.49C-284.00,-209.00 -287.24,-194.27 -290.28,-179.78L-274.32,-142.20C-259.69,-138.04 -245.24,-133.63 -230.61,-129.47L-198.38,-156.51L-195.38,-134.21L-145.84,-152.46L-146.50,-157.36ZM-225.28,-150.62C-235.54,-157.64 -245.60,-164.91 -255.85,-171.93L-264.98,-207.71C-261.51,-215.66 -257.85,-223.88 -254.38,-231.83L-231.61,-238.08C-224.25,-235.66 -215.90,-232.70 -208.28,-230.09L-199.25,-162.97C-207.59,-159.13 -217.17,-154.43 -225.28,-150.62ZM27.72,-205.56L14.86,-184.76L3.27,-176.39L-31.05,-169.95L-40.15,-178.49L-47.56,-233.57L-10.74,-238.30L-0.19,-232.45L5.37,-223.21L10.50,-223.90L4.34,-269.61L-0.79,-268.92L-3.70,-258.54L-12.81,-250.28L-12.77,-250.06L-49.09,-244.94L-55.76,-294.44L-49.24,-305.08L-14.91,-308.11L-1.50,-302.88L14.85,-286.01L20.42,-286.76L10.67,-323.82L-109.08,-307.70L-108.42,-302.79L-98.51,-303.44L-89.80,-294.40L-72.99,-169.53L-79.00,-158.50L-88.72,-156.51L-88.06,-151.61L32.13,-167.79L33.30,-206.31ZM156.36,-199.49L148.14,-206.56L140.01,-266.99C133.48,-274.97 127.18,-282.97 120.69,-290.73C106.37,-290.84 92.56,-290.57 78.24,-290.69C66.15,-282.70 53.52,-275.33 41.18,-267.53L61.70,-236.47L66.61,-237.13C68.08,-249.82 69.36,-262.25 70.83,-274.93L96.00,-283.54C100.41,-277.78 104.60,-271.99 109.04,-266.00L112.37,-241.25C94.85,-234.80 73.24,-226.67 55.94,-220.26C53.01,-211.69 49.82,-203.31 46.86,-194.97C54.36,-186.44 61.39,-178.08 68.67,-169.53C81.01,-172.32 92.96,-174.61 105.27,-177.63L118.13,-198.43L121.07,-176.58L170.85,-193.04L170.19,-197.95ZM96.34,-186.65C91.23,-189.14 85.88,-191.82 80.77,-194.31L78.19,-213.49C88.72,-221.26 101.84,-230.07 112.82,-237.90L117.44,-203.56C110.91,-198.14 102.93,-191.62 96.34,-186.65ZM248.74,-314.32C241.65,-311.32 234.28,-308.74 227.19,-305.74C222.34,-296.24 217.64,-285.61 212.79,-276.11L208.38,-308.89L161.95,-292.87L162.61,-287.97L176.44,-286.42C178.17,-283.71 179.70,-280.73 181.43,-278.02L191.25,-205.10C189.24,-201.42 187.24,-197.75 185.24,-194.07L175.52,-192.08L176.18,-187.18L250.21,-197.14L249.55,-202.05C243.95,-201.52 238.34,-200.99 232.74,-200.47L221.80,-209.21L213.69,-269.42L236.93,-294.11C239.28,-293.52 241.63,-292.93 243.98,-292.34L258.79,-266.63L263.70,-267.30L269.64,-305.78C262.63,-308.93 255.75,-311.18 248.74,-314.32ZM366.36,-236.62C362.84,-234.10 359.06,-231.78 355.54,-229.26L339.49,-227.10C336.11,-230.27 332.92,-233.71 329.54,-236.88L319.58,-310.92L352.58,-315.36L351.38,-324.28L318.38,-319.83L314.47,-348.82L306.45,-347.74L298.64,-326.49C295.24,-323.08 292.09,-319.47 288.72,-315.84L273.78,-313.83L274.95,-305.13L286.54,-306.70L289.78,-301.23L299.62,-228.09C303.42,-221.79 307.48,-215.30 311.27,-209.00L345.98,-207.54C354.00,-215.43 362.91,-223.44 370.93,-231.33ZM507.23,-237.42L498.53,-246.46L488.50,-320.94C483.81,-327.12 478.92,-333.05 474.23,-339.23C464.43,-339.50 454.63,-339.77 444.84,-340.04L412.38,-312.97L401.70,-392.35L355.18,-377.01L355.84,-372.10L369.67,-370.56L374.66,-362.15L392.16,-232.14L386.15,-221.12L376.43,-219.13L377.09,-214.22L441.98,-222.96L441.32,-227.86L431.42,-227.21L422.71,-236.26L413.13,-307.39C423.68,-313.35 430.77,-316.35 441.32,-322.31C447.20,-317.42 453.27,-312.79 459.15,-307.91L467.98,-242.35L461.97,-231.33L452.25,-229.34L452.91,-224.43L517.80,-233.17L517.14,-238.07Z" fill="#ffffff" stroke="#000000"/>
    <path d="M-889.36,490.56C-892.75,491.20 -896.17,491.89 -899.55,492.49C-902.70,491.05 -905.82,489.53 -908.93,488.05C-909.92,484.17 -910.91,480.33 -911.86,476.46L-906.12,467.03C-902.70,466.39 -899.36,465.55 -895.98,464.91C-892.82,466.43 -889.74,468.06 -886.63,469.58C-885.56,473.08 -884.42,476.65 -883.44,480.14C-885.41,483.68 -887.39,487.06 -889.36,490.56ZM-900.31,467.03L-905.17,469.96C-905.13,473.46 -905.06,476.99 -905.02,480.49C-903.58,483.45 -902.17,486.41 -900.73,489.38C-898.75,489.61 -896.81,489.87 -894.84,490.10L-890.12,487.10C-890.24,483.72 -890.39,480.30 -890.50,476.91L-895.03,467.79C-896.77,467.53 -898.56,467.30 -900.31,467.03ZM-866.53,472.35C-867.78,472.70 -869.07,472.96 -870.33,473.30C-871.35,474.79 -872.38,476.46 -873.40,477.94L-873.40,472.35L-881.54,473.99L-881.54,474.82L-879.26,475.39C-879.03,475.89 -878.84,476.42 -878.61,476.91L-878.61,489.34C-879.03,489.91 -879.45,490.48 -879.86,491.05L-881.54,491.16L-881.54,492L-868.92,492L-868.92,491.16C-869.87,491.13 -870.82,491.09 -871.77,491.05L-873.40,489.34L-873.40,479.08L-868.96,475.47C-868.58,475.62 -868.20,475.77 -867.82,475.93L-865.92,480.56L-865.08,480.56L-863.22,474.25C-864.32,473.57 -865.42,473.04 -866.53,472.35ZM-848.59,488.01C-849.24,488.35 -849.92,488.66 -850.57,489.00L-853.30,489.00C-853.80,488.39 -854.25,487.74 -854.75,487.14L-854.75,474.52L-849.12,474.52L-849.12,473L-854.75,473L-854.75,468.06L-856.11,468.06L-857.90,471.44C-858.55,471.94 -859.15,472.47 -859.80,473L-862.35,473L-862.35,474.48L-860.37,474.48L-859.95,475.47L-859.95,487.93C-859.46,489.07 -858.93,490.25 -858.43,491.39L-852.66,492.42C-851.14,491.28 -849.46,490.14 -847.94,489.00ZM-842.17,468.63C-841.26,468.48 -840.53,468.36 -839.81,468.25L-838.71,466.08C-838.86,465.36 -839.05,464.64 -839.20,463.92C-839.89,463.61 -840.57,463.31 -841.22,462.97L-843.57,463.42C-844.03,464.03 -844.41,464.68 -844.83,465.32C-844.64,466.12 -844.37,466.92 -844.22,467.72C-843.54,468.02 -842.89,468.33 -842.17,468.63ZM-837.91,491.05L-839.17,489.34L-839.17,473L-841.64,473L-847.30,474.52L-847.30,475.36L-845.02,475.93L-844.37,477.45L-844.37,489.34L-845.63,491.05L-847.30,491.16L-847.30,492L-836.24,492L-836.24,491.16ZM-816.25,476.53L-818.80,480.87L-819.37,480.87C-820.13,479.08 -820.93,476.72 -821.69,474.94C-823.09,474.60 -824.46,474.29 -825.87,473.95L-828.53,475.58C-828.68,477.75 -828.79,479.95 -828.94,482.12C-828.15,484.10 -827.31,486.07 -826.51,488.05C-824.99,488.58 -823.47,489.07 -821.95,489.61C-820.13,488.85 -818.27,488.12 -816.44,487.36L-815.95,487.78L-819.75,492C-822.18,492.15 -824.61,492.38 -827.04,492.53L-832.97,488.88C-833.62,486.03 -834.23,483.15 -834.87,480.30C-833.47,478.13 -832.10,475.93 -830.69,473.76C-828.11,473.27 -825.49,472.85 -822.90,472.35C-821.27,472.89 -819.67,473.34 -818.04,473.87C-817.43,474.75 -816.86,475.66 -816.25,476.53ZM-796.19,489.49L-797.40,488.12L-797.40,477.83C-798.32,476.34 -799.19,474.86 -800.10,473.42C-802.50,473.08 -804.81,472.81 -807.21,472.47C-809.41,473.53 -811.69,474.48 -813.93,475.51L-811.20,481.17L-810.36,481.17C-809.83,479.08 -809.34,477.03 -808.80,474.94L-804.40,474.06C-803.79,475.13 -803.22,476.19 -802.61,477.29L-802.61,481.51C-805.69,482.20 -809.49,483.07 -812.53,483.75C-813.21,485.12 -813.93,486.45 -814.62,487.78C-813.55,489.38 -812.57,490.94 -811.54,492.53C-809.41,492.34 -807.36,492.23 -805.23,492L-802.61,488.81L-802.61,492.53L-793.91,490.90L-793.91,490.06ZM-806.52,490.29C-807.32,489.76 -808.16,489.19 -808.96,488.66L-808.96,485.39C-807.02,484.32 -804.62,483.15 -802.61,482.08L-802.61,487.93C-803.83,488.69 -805.31,489.61 -806.52,490.29ZM-792.01,481.36L-792.01,483.64L-779.89,483.64L-779.89,481.36ZM-756.21,479.88L-761.23,478.09L-756.48,476.84L-754.65,471.90L-756.40,467.38L-760.20,465.40L-777.19,465.40L-777.19,466.24L-775.52,466.35L-774.26,468.06L-774.26,489.34L-775.52,491.05L-777.19,491.16L-777.19,492L-760.16,492L-754.84,489.11L-753.36,484.86ZM-762.79,467.41L-760.73,469.88L-760.43,474.71L-763.36,477.52L-768.56,477.52L-768.56,467.87L-767.38,466.73ZM-762.03,490.67L-767.38,490.67L-768.56,489.53L-768.56,478.85L-761.84,479.95L-759.82,482.88L-759.44,487.29ZM-734.13,490.52C-737.06,491.24 -739.95,491.77 -742.87,492.49C-744.96,491.32 -747.09,490.29 -749.18,489.11C-749.87,486.26 -750.59,483.41 -751.27,480.56L-747.28,474.29L-738.54,472.35L-731.51,475.85C-730.83,478.70 -730.14,481.55 -729.46,484.40ZM-742.23,474.48C-743.22,475.05 -744.17,475.66 -745.15,476.23C-745.31,478.55 -745.46,481.36 -745.61,483.60C-744.39,485.65 -743.14,487.71 -741.92,489.76L-738.54,489.99C-737.67,489.45 -736.76,488.88 -735.88,488.35L-735.12,481.09C-736.26,479.08 -737.93,476.72 -739.11,474.79C-740.14,474.67 -741.20,474.60 -742.23,474.48ZM-718.74,491.05L-719.92,489.34L-719.92,462.74L-728.05,464.26L-728.05,465.10L-725.77,465.67L-725.13,467.19L-725.13,489.38L-726.34,491.05L-728.02,491.16L-728.02,492L-717.07,492L-717.07,491.16ZM-694.61,489.15L-695.83,487.78L-695.83,462.74L-703.96,464.26L-703.96,465.10L-701.68,465.67L-701.04,467.19L-701.04,473.72C-702.59,473.30 -704.27,472.89 -705.79,472.47C-708.29,473.53 -710.84,474.56 -713.35,475.62C-714.18,477.98 -715.06,480.37 -715.89,482.73L-714.07,489.38C-711.71,490.40 -709.40,491.47 -707.04,492.49L-701.04,488.69L-701.04,492.49L-692.33,490.56L-692.33,489.72ZM-705.67,489.07C-707.23,487.67 -708.75,486.22 -710.31,484.82L-711.03,478.62C-710.27,477.37 -709.47,476.08 -708.71,474.82L-704.76,474.29C-703.58,474.86 -702.25,475.55 -701.04,476.15L-701.04,487.59C-702.52,488.05 -704.23,488.62 -705.67,489.07Z"/>
</svg>