<?xml version="1.0"?>
<svg xmlns="http://www.w3.org/2000/svg" width="1920" height="1080" viewBox="-960 -540 1920 1080">
    <path d="M-720.13,-210L-660.38,-210L-594.64,-232.84L-572.97,-300.52L-596.05,-368.34L-663.63,-390L-720.13,-390ZM-696.38,-231L-696.38,-368.75L-663.63,-368.75L-615.87,-354.94L-597.95,-300.76L-613.77,-247.31L-662.88,-231ZM-519.26,-234.73L-532.37,-269.23L-435.88,-269.25L-434.63,-278.25L-449.51,-325.87L-494.61,-345.22L-538.72,-326.61L-555.30,-275.10L-538.72,-223.59L-494.61,-204.97L-457.47,-215.94L-440.38,-242.75L-457.89,-253.69L-471.53,-231.44L-493.34,-224.11ZM-531.63,-287.25L-517.50,-317.01L-494.63,-326.13L-469.13,-315.28L-458.88,-287.25ZM-397.02,-250.27L-416.13,-241.34L-403.41,-215.83L-364.89,-204.84L-328.14,-213.99L-311.31,-245.13L-321.42,-271.80L-343.32,-283.06L-373.63,-291.25L-390.47,-298L-396.00,-308.38L-388.76,-321.21L-367.55,-325.91L-347.18,-320.35L-338.42,-303.81L-319.49,-312.74L-330.50,-334.52L-366.70,-345.13L-402.56,-335.92L-417.96,-305.85L-407.97,-281.99L-385.41,-271.22L-353.38,-262.75L-338.28,-255.17L-334.29,-243.13L-344.34,-228.03L-364.13,-224.02L-388.03,-231.88ZM-270.30,-361.74L-262.17,-370.64L-262.15,-383.35L-270.44,-392.46L-282.00,-392.46L-290.07,-383.37L-290.08,-370.67L-281.86,-361.74ZM-264.88,-210L-264.88,-340L-287.38,-340L-287.38,-210ZM-183.40,-155.61L-136.83,-175.15L-125.63,-218.50L-125.63,-340L-145.63,-340L-145.63,-322.50L-160.35,-339.11L-183.15,-345.61L-225.35,-326.04L-240,-275.49L-225.35,-224.94L-183.15,-205.37L-163.01,-210.17L-148.13,-223.75L-148.19,-214.21L-156.14,-185.11L-182.87,-175.00L-203.68,-180.87L-211.88,-198.50L-229.88,-190.25L-218.53,-166.33ZM-181.87,-326.48L-157.02,-313.59L-145.38,-275.47L-156.08,-237.35L-181.87,-224.48L-207.00,-237.35L-217.04,-275.47L-207.00,-313.59ZM-93.49,-210L-70.99,-210L-70.99,-280.75L-61.24,-314.15L-35.81,-325.70L-14.73,-315.95L-8.63,-289.75L-8.63,-210L13.88,-210L13.88,-289.75L5.36,-329.40L-31.23,-345.09L-55.53,-339.73L-73.24,-321.25L-73.24,-340L-93.49,-340ZM62.95,-361.74L71.08,-370.64L71.10,-383.35L62.81,-392.46L51.25,-392.46L43.18,-383.37L43.17,-370.67L51.39,-361.74ZM68.38,-210L68.38,-340L45.88,-340L45.88,-210ZM100.26,-210L122.76,-210L122.76,-280.75L132.51,-314.15L157.94,-325.70L179.02,-315.95L185.13,-289.75L185.13,-210L207.63,-210L207.63,-289.75L199.11,-329.40L162.52,-345.09L138.22,-339.73L120.51,-321.25L120.51,-340L100.26,-340ZM288.60,-155.61L335.17,-175.15L346.38,-218.50L346.38,-340L326.38,-340L326.38,-322.50L311.65,-339.11L288.85,-345.61L246.65,-326.04L232,-275.49L246.65,-224.94L288.85,-205.37L308.99,-210.17L323.88,-223.75L323.81,-214.21L315.86,-185.11L289.13,-175.00L268.32,-180.87L260.13,-198.50L242.13,-190.25L253.47,-166.33ZM290.13,-326.48L314.98,-313.59L326.62,-275.47L315.92,-237.35L290.13,-224.48L265.00,-237.35L254.96,-275.47L265.00,-313.59ZM465.70,-361.74L473.83,-370.64L473.85,-383.35L465.56,-392.46L454.00,-392.46L445.93,-383.37L445.92,-370.67L454.14,-361.74ZM471.13,-210L471.13,-340L448.63,-340L448.63,-210ZM517.23,-250.27L498.12,-241.34L510.84,-215.83L549.36,-204.84L586.11,-213.99L602.94,-245.13L592.83,-271.80L570.93,-283.06L540.63,-291.25L523.78,-298L518.25,-308.38L525.49,-321.21L546.70,-325.91L567.07,-320.35L575.83,-303.81L594.76,-312.74L583.75,-334.52L547.55,-345.13L511.69,-335.92L496.29,-305.85L506.28,-281.99L528.84,-271.22L560.88,-262.75L575.97,-255.17L579.96,-243.13L569.91,-228.03L550.12,-224.02L526.22,-231.88ZM-495,15L-435.25,15L-369.52,-7.84L-347.84,-75.52L-370.93,-143.34L-438.50,-165L-495,-165ZM-471.25,-6L-471.25,-143.75L-438.50,-143.75L-390.75,-129.94L-372.83,-75.76L-388.64,-22.31L-437.75,-6ZM-294.13,-9.73L-307.25,-44.23L-210.75,-44.25L-209.50,-53.25L-224.39,-100.87L-269.49,-120.22L-313.60,-101.61L-330.17,-50.10L-313.60,1.41L-269.49,20.03L-232.35,9.06L-215.25,-17.75L-232.77,-28.69L-246.40,-6.44L-268.21,0.89ZM-306.50,-62.25L-292.38,-92.01L-269.51,-101.13L-244.00,-90.28L-233.75,-62.25ZM-133.40,1.01L-159.83,-10.92L-171.14,-50.00L-159.83,-89.08L-133.40,-101.01L-112.96,-93.90L-100.51,-70.90L-81.14,-80.60L-97.84,-108.49L-133.40,-120.13L-177.53,-101.51L-194.11,-50.00L-177.54,1.51L-133.40,20.12L-97.84,8.62L-81.40,-18.64L-100.51,-28.82L-112.97,-6.06ZM-37.43,-136.74L-29.30,-145.64L-29.28,-158.35L-37.57,-167.46L-49.13,-167.46L-57.20,-158.37L-57.20,-145.67L-48.99,-136.74ZM-32,15L-32,-115L-54.50,-115L-54.50,15ZM105.50,-165L83,-165L83,-101.48L68.91,-114.37L48.07,-119.57L5.85,-100.00L-8.81,-49.45L5.85,1.11L48.07,20.68L70.12,14.62L85.50,-2.75L85.50,15L105.50,15ZM49.36,-100.45L75.15,-87.57L85.83,-49.45L74.19,-11.33L49.36,1.54L24.20,-11.33L14.15,-49.45L24.20,-87.57ZM155.07,-136.74L163.20,-145.64L163.22,-158.35L154.93,-167.46L143.37,-167.46L135.30,-158.37L135.30,-145.67L143.51,-136.74ZM160.50,15L160.50,-115L138,-115L138,15ZM192.38,15L214.88,15L214.88,-55.75L224.64,-89.15L250.07,-100.70L271.15,-90.95L277.25,-64.75L277.25,15L299.75,15L299.75,-64.75L291.23,-104.40L254.65,-120.09L230.35,-114.73L212.63,-96.25L212.63,-115L192.38,-115ZM380.73,69.39L427.29,49.85L438.50,6.50L438.50,-115L418.50,-115L418.50,-97.50L403.77,-114.11L380.98,-120.61L338.77,-101.04L324.13,-50.49L338.77,0.06L380.98,19.63L401.11,14.83L416,1.25L415.94,10.79L407.98,39.89L381.26,50.00L360.44,44.13L352.25,26.50L334.25,34.75L345.59,58.67ZM382.26,-101.48L407.10,-88.59L418.74,-50.47L408.05,-12.35L382.26,0.52L357.13,-12.35L347.09,-50.47L357.13,-88.59Z" fill="#ffffff" stroke="#000000"/>
    <path d="M-722.33,-192.35L-663.19,-193.39L-598.52,-217.13L-578.23,-284.50L-602.26,-351.23L-669.51,-371.50L-725.44,-370.53ZM-699.18,-213.55L-701.56,-349.90L-669.15,-350.47L-621.64,-337.63L-602.97,-284.30L-617.70,-231.12L-666.02,-214.13ZM-523.93,-220.30L-537.51,-254.22L-441.99,-255.91L-440.91,-264.84L-456.47,-311.73L-501.44,-330.10L-544.79,-310.91L-560.30,-259.64L-543.01,-208.94L-499.02,-191.27L-462.45,-202.77L-445.99,-229.60L-463.52,-240.13L-476.62,-217.87L-498.09,-210.24ZM-537.08,-272.08L-523.62,-301.77L-501.14,-311.20L-475.70,-300.91L-465.07,-273.33ZM-403.20,-237.80L-421.97,-228.63L-408.93,-203.60L-370.61,-193.38L-334.40,-203.07L-318.27,-234.19L-328.74,-260.42L-350.61,-271.18L-380.75,-278.76L-397.55,-285.16L-403.19,-295.34L-396.25,-308.15L-375.34,-313.18L-355.08,-308.03L-346.12,-291.81L-327.54,-300.97L-338.81,-322.34L-374.83,-332.21L-410.16,-322.48L-424.89,-292.45L-414.59,-269.00L-392.07,-258.74L-360.21,-250.90L-345.15,-243.66L-340.99,-231.81L-350.67,-216.69L-370.19,-212.38L-393.98,-219.75ZM-279.70,-350.32L-271.80,-359.27L-272.00,-371.85L-280.37,-380.73L-291.81,-380.53L-299.64,-371.40L-299.42,-358.82L-291.14,-350.12ZM-271.70,-200.22L-273.95,-328.90L-296.22,-328.51L-293.97,-199.83ZM-190.11,-147.79L-144.35,-167.94L-134.01,-211.04L-136.11,-331.31L-155.91,-330.96L-155.61,-313.64L-170.47,-329.82L-193.14,-335.87L-234.58,-315.77L-248.21,-265.47L-232.84,-215.69L-190.72,-197.05L-170.88,-202.14L-156.37,-215.85L-156.27,-206.40L-163.64,-177.46L-189.92,-167.00L-210.63,-172.44L-219.04,-189.75L-236.72,-181.27L-225.08,-157.79ZM-191.55,-316.95L-166.74,-304.62L-154.55,-267.09L-164.48,-229.17L-189.79,-215.99L-214.88,-228.30L-225.48,-265.85L-216.20,-303.76ZM-102.06,-203.18L-79.79,-203.57L-81.01,-273.60L-71.93,-306.83L-46.96,-318.70L-25.93,-309.41L-19.43,-283.59L-18.05,-204.65L4.22,-205.03L2.84,-283.98L-6.28,-323.07L-42.76,-337.97L-66.72,-332.25L-83.94,-313.65L-84.26,-332.21L-104.31,-331.86ZM50.17,-356.08L58.06,-365.03L57.87,-377.61L49.50,-386.49L38.06,-386.29L30.23,-377.15L30.44,-364.58L38.73,-355.88ZM58.17,-205.98L55.92,-334.66L33.65,-334.27L35.89,-205.59ZM89.72,-206.53L111.99,-206.92L110.77,-276.95L119.85,-310.18L144.83,-322.05L165.86,-312.76L172.35,-286.93L173.73,-207.99L196.00,-208.38L194.62,-287.32L185.51,-326.42L149.02,-341.32L125.06,-335.60L107.84,-317.00L107.52,-335.56L87.48,-335.21ZM277.09,-155.95L322.85,-176.09L333.20,-219.19L331.10,-339.46L311.30,-339.11L311.60,-321.79L296.74,-337.98L274.06,-344.02L232.63,-323.92L219.00,-273.63L234.37,-223.84L276.49,-205.20L296.33,-210.30L310.83,-224.00L310.94,-214.56L303.56,-185.62L277.29,-175.15L256.58,-180.60L248.17,-197.91L230.49,-189.43L242.13,-165.95ZM275.66,-325.10L300.47,-312.78L312.65,-275.24L302.73,-237.33L277.42,-224.14L252.33,-236.45L241.73,-274.00L251.01,-311.92ZM448.83,-363.04L456.73,-371.99L456.53,-384.57L448.16,-393.45L436.72,-393.25L428.89,-384.11L429.11,-371.54L437.39,-362.84ZM456.83,-212.94L454.58,-341.62L432.31,-341.23L434.56,-212.55ZM501.77,-253.60L483.00,-244.42L496.04,-219.39L534.36,-209.18L570.57,-218.87L586.70,-249.99L576.23,-276.22L554.36,-286.97L524.22,-294.56L507.42,-300.95L501.78,-311.13L508.72,-323.95L529.63,-328.98L549.89,-323.83L558.85,-307.60L577.43,-316.77L566.16,-338.13L530.14,-348.01L494.80,-338.28L480.08,-308.25L490.38,-284.80L512.90,-274.53L544.75,-266.70L559.82,-259.46L563.98,-247.61L554.30,-232.49L534.78,-228.17L510.99,-235.55ZM-495.60,26.47L-436.46,25.44L-371.79,1.70L-351.51,-65.67L-375.53,-132.41L-442.79,-152.68L-498.71,-151.70ZM-472.46,5.28L-474.84,-131.08L-442.42,-131.64L-394.91,-118.80L-376.24,-65.47L-390.97,-12.29L-439.30,4.70ZM-297.20,-1.47L-310.78,-35.40L-215.26,-37.09L-214.18,-46.02L-229.74,-92.90L-274.72,-111.27L-318.06,-92.08L-333.57,-40.81L-316.28,9.89L-272.29,27.55L-235.72,16.05L-219.26,-10.78L-236.79,-21.30L-249.90,0.95L-271.36,8.59ZM-310.35,-53.25L-296.89,-82.95L-274.41,-92.37L-248.97,-82.08L-238.34,-54.51ZM-137.92,6.37L-164.29,-4.97L-176.16,-43.46L-165.64,-82.35L-139.68,-94.61L-119.32,-87.92L-106.60,-65.37L-87.60,-75.31L-104.61,-102.62L-140.01,-113.53L-183.36,-94.34L-198.89,-43.07L-181.60,7.63L-137.59,25.29L-102.59,13.30L-86.78,-13.97L-105.88,-23.72L-117.82,-0.98ZM-45.30,-131.63L-37.40,-140.58L-37.60,-153.16L-45.97,-162.04L-57.41,-161.84L-65.24,-152.70L-65.02,-140.13L-56.74,-131.43ZM-37.30,18.47L-39.55,-110.21L-61.82,-109.82L-59.57,18.86ZM95.69,-162.07L73.42,-161.69L74.52,-98.81L60.34,-111.32L39.63,-116.11L-1.82,-96.01L-15.46,-45.72L-0.08,4.07L42.05,22.71L63.77,16.33L78.70,-1.13L79.00,16.44L98.80,16.10ZM41.24,-97.21L66.98,-84.91L78.22,-47.35L67.35,-9.43L43.00,3.74L17.87,-8.56L7.27,-46.12L16.55,-84.03ZM145.25,-134.95L153.14,-143.90L152.94,-156.49L144.58,-165.36L133.14,-165.16L125.31,-156.03L125.52,-143.46L133.81,-134.75ZM153.24,15.15L151.00,-113.53L128.72,-113.14L130.97,15.54ZM184.80,14.60L207.07,14.21L205.85,-55.82L214.93,-89.06L239.90,-100.92L260.93,-91.64L267.43,-65.81L268.81,13.13L291.08,12.74L289.70,-66.20L280.59,-105.30L244.10,-120.20L220.14,-114.47L202.92,-95.87L202.60,-114.43L182.55,-114.08ZM372.17,65.18L417.93,45.03L428.27,1.93L426.17,-118.34L406.38,-117.99L406.68,-100.67L391.81,-116.85L369.14,-122.90L327.70,-102.80L314.08,-52.50L329.45,-2.72L371.56,15.92L391.41,10.83L405.91,-2.88L406.01,6.57L398.64,35.51L372.36,45.97L351.66,40.53L343.24,23.22L325.57,31.70L337.21,55.18ZM370.74,-103.98L395.55,-91.66L407.73,-54.12L397.81,-16.21L372.50,-3.02L347.40,-15.33L336.81,-52.88L346.09,-90.79Z" fill="#ffffff" stroke="#000000"/>
    <path d="M-724.02,-174.76L-665.50,-176.80L-601.91,-201.42L-582.99,-268.45L-607.92,-334.08L-674.84,-352.98L-730.18,-351.05ZM-701.48,-196.14L-706.19,-331.05L-674.12,-332.17L-626.88,-320.28L-607.47,-267.82L-621.13,-214.93L-668.67,-197.28ZM-528.14,-205.85L-542.17,-239.19L-447.65,-242.51L-446.74,-251.37L-462.95,-297.50L-507.78,-314.91L-550.35,-295.17L-564.81,-244.15L-546.82,-194.27L-502.98,-177.55L-466.98,-189.56L-451.15,-216.40L-468.69,-226.51L-481.28,-204.26L-502.39,-196.33ZM-542.05,-256.86L-529.24,-286.49L-507.15,-296.21L-481.79,-286.46L-470.80,-259.35ZM-408.95,-225.25L-427.37,-215.85L-414.03,-191.30L-375.93,-181.85L-340.25,-192.07L-324.83,-223.15L-335.64,-248.93L-357.48,-259.20L-387.44,-266.19L-404.17,-272.22L-409.94,-282.20L-403.29,-295.01L-382.68,-300.34L-362.53,-295.60L-353.39,-279.69L-335.15,-289.09L-346.68,-310.04L-382.50,-319.19L-417.30,-308.94L-431.36,-278.97L-420.76,-255.94L-398.30,-246.17L-366.63,-238.97L-351.59,-232.06L-347.27,-220.40L-356.59,-205.27L-375.84,-200.66L-399.51,-207.55ZM-288.66,-338.75L-281.00,-347.75L-281.41,-360.20L-289.84,-368.84L-301.16,-368.45L-308.75,-359.27L-308.33,-346.83L-299.98,-338.36ZM-278.15,-190.33L-282.60,-317.65L-304.63,-316.88L-300.19,-189.56ZM-196.49,-139.85L-151.55,-160.58L-142.06,-203.42L-146.21,-322.41L-165.80,-321.73L-165.20,-304.59L-180.20,-320.35L-202.74,-325.94L-243.41,-305.33L-256.03,-255.32L-239.95,-206.31L-197.94,-188.59L-178.39,-193.98L-164.27,-207.79L-164.01,-198.44L-170.81,-169.67L-196.64,-158.86L-217.22,-163.89L-225.85,-180.88L-243.19,-172.18L-231.27,-149.14ZM-200.84,-307.25L-176.06,-295.48L-163.36,-258.54L-172.53,-220.84L-197.35,-207.35L-222.40,-219.10L-233.54,-256.09L-225.01,-293.77ZM-110.30,-196.19L-88.26,-196.96L-90.68,-266.25L-82.27,-299.30L-57.75,-311.48L-36.78,-302.65L-29.90,-277.20L-27.18,-199.09L-5.14,-199.86L-7.87,-277.97L-17.57,-316.51L-53.93,-330.63L-77.55,-324.55L-94.27,-305.84L-94.91,-324.21L-114.74,-323.51ZM37.73,-350.15L45.39,-359.15L44.97,-371.60L36.54,-380.24L25.22,-379.84L17.63,-370.67L18.06,-358.23L26.41,-349.76ZM48.24,-201.73L43.79,-329.05L21.75,-328.28L26.20,-200.96ZM79.46,-202.82L101.50,-203.59L99.08,-272.88L107.49,-305.93L132.00,-318.10L152.98,-309.28L159.85,-283.83L162.58,-205.72L184.62,-206.49L181.89,-284.60L172.19,-323.14L135.83,-337.25L112.21,-331.17L95.49,-312.47L94.85,-330.83L75.01,-330.14ZM265.79,-155.99L310.73,-176.72L320.22,-219.56L316.06,-338.56L296.48,-337.87L297.08,-320.73L282.08,-336.49L259.54,-342.09L218.87,-321.48L206.25,-271.46L222.33,-222.45L264.33,-204.73L283.89,-210.12L298.00,-223.93L298.27,-214.59L291.47,-185.82L265.64,-175.00L245.06,-180.04L236.43,-197.02L219.08,-188.33L231.01,-165.28ZM261.44,-323.39L286.22,-311.62L298.92,-274.68L289.75,-236.98L264.93,-223.49L239.88,-235.24L228.74,-272.23L237.27,-309.91ZM432.18,-363.92L439.84,-372.92L439.43,-385.37L431.00,-394.01L419.68,-393.62L412.09,-384.44L412.51,-372.00L420.86,-363.53ZM442.69,-215.50L438.25,-342.82L416.21,-342.05L420.65,-214.73ZM486.47,-256.52L468.05,-247.12L481.39,-222.57L519.49,-213.12L555.17,-223.34L570.59,-254.41L559.78,-280.20L537.94,-290.47L507.98,-297.45L491.25,-303.49L485.48,-313.47L492.13,-326.27L512.74,-331.61L532.89,-326.86L542.03,-310.96L560.27,-320.35L548.74,-341.30L512.92,-350.46L478.11,-340.21L464.06,-310.24L474.66,-287.21L497.12,-277.44L528.79,-270.23L543.83,-263.32L548.15,-251.67L538.83,-236.54L519.58,-231.93L495.91,-238.82ZM-495.84,37.91L-437.32,35.86L-373.72,11.24L-354.81,-55.78L-379.74,-121.42L-446.66,-140.32L-502.00,-138.39ZM-473.30,16.53L-478.01,-118.39L-445.93,-119.51L-398.69,-107.62L-379.29,-55.16L-392.95,-2.27L-440.49,15.38ZM-299.96,6.82L-313.98,-26.52L-219.47,-29.84L-218.55,-38.70L-234.76,-84.83L-279.60,-102.24L-322.16,-82.50L-336.63,-31.49L-318.64,18.40L-274.80,35.12L-238.80,23.10L-222.97,-3.74L-240.50,-13.85L-253.09,8.40L-274.21,16.33ZM-313.86,-44.20L-301.05,-73.83L-278.96,-83.54L-253.61,-73.79L-242.61,-46.69ZM-142.17,11.83L-168.46,1.06L-180.88,-36.83L-171.14,-75.50L-145.66,-88.08L-125.39,-81.81L-112.41,-59.72L-93.78,-69.88L-111.08,-96.62L-146.31,-106.80L-188.89,-87.06L-203.37,-36.05L-185.38,13.84L-141.52,30.56L-107.08,18.08L-91.91,-9.18L-110.97,-18.51L-122.40,4.21ZM-52.88,-126.35L-45.22,-135.35L-45.64,-147.80L-54.07,-156.44L-65.39,-156.04L-72.98,-146.87L-72.55,-134.43L-64.20,-125.96ZM-42.38,22.07L-46.82,-105.25L-68.86,-104.48L-64.41,22.84ZM86.14,-158.92L64.10,-158.15L66.27,-95.94L52.03,-108.08L31.44,-112.46L-9.24,-91.85L-21.87,-41.84L-5.78,7.17L36.24,24.89L57.63,18.20L72.10,0.67L72.70,18.05L92.29,17.37ZM33.36,-93.79L59.06,-82.05L70.82,-45.08L60.73,-7.35L36.85,6.11L11.77,-5.64L0.62,-42.63L9.16,-80.31ZM135.65,-132.94L143.31,-141.93L142.90,-154.38L134.47,-163.02L123.15,-162.63L115.55,-153.45L115.98,-141.01L124.33,-132.54ZM146.16,15.49L141.71,-111.83L119.68,-111.06L124.12,16.26ZM177.38,14.40L199.42,13.63L197.00,-55.66L205.41,-88.71L229.93,-100.89L250.90,-92.06L257.78,-66.61L260.50,11.50L282.54,10.73L279.81,-67.38L270.12,-105.92L233.75,-120.04L210.13,-113.96L193.41,-95.25L192.77,-113.62L172.94,-112.92ZM363.71,61.22L408.65,40.49L418.14,-2.34L413.99,-121.34L394.40,-120.66L395.00,-103.52L380.01,-119.28L357.46,-124.87L316.79,-104.26L304.17,-54.25L320.25,-5.24L362.26,12.49L381.81,7.10L395.93,-6.72L396.19,2.63L389.39,31.40L363.57,42.21L342.98,37.18L334.35,20.19L317.01,28.89L328.93,51.93ZM359.36,-106.17L384.14,-94.41L396.84,-57.46L387.67,-19.77L362.85,-6.28L337.80,-18.03L326.67,-55.01L335.20,-92.70Z" fill="#ffffff" stroke="#000000"/>
    <path d="M-725.20,-157.23L-667.33,-160.26L-604.81,-185.73L-587.25,-252.39L-613.06,-316.91L-679.61,-334.46L-734.34,-331.59ZM-703.26,-178.78L-710.26,-312.21L-678.53,-313.88L-631.58,-302.93L-611.47,-251.35L-624.07,-198.77L-670.81,-180.48ZM-531.89,-191.38L-546.34,-224.14L-452.87,-229.06L-452.11,-237.84L-468.95,-283.21L-513.62,-299.66L-555.41,-279.39L-568.84,-228.66L-550.18,-179.60L-506.50,-163.81L-471.08,-176.32L-455.88,-203.16L-473.41,-212.86L-485.48,-190.62L-506.24,-182.41ZM-546.53,-241.63L-534.36,-271.17L-512.67,-281.17L-487.41,-271.96L-476.06,-245.32ZM-414.26,-212.65L-432.33,-203.02L-418.70,-178.96L-380.84,-170.26L-345.70,-180.99L-330.98,-212.01L-342.13,-237.34L-363.91,-247.13L-393.68,-253.53L-410.35,-259.21L-416.23,-268.99L-409.87,-281.77L-389.56,-287.41L-369.54,-283.06L-360.22,-267.48L-342.34,-277.09L-354.11,-297.63L-389.71,-306.07L-423.98,-295.33L-437.37,-265.42L-426.48,-242.81L-404.08,-233.53L-372.62,-226.95L-357.62,-220.37L-353.14,-208.91L-362.11,-193.78L-381.07,-188.88L-404.62,-195.29ZM-297.18,-327.05L-289.75,-336.08L-290.38,-348.40L-298.87,-356.80L-310.07,-356.22L-317.42,-347.00L-316.78,-334.70L-308.37,-326.46ZM-284.22,-180.34L-290.82,-306.27L-312.61,-305.13L-306.01,-179.20ZM-202.53,-131.80L-158.41,-153.09L-149.76,-195.65L-155.93,-313.34L-175.30,-312.32L-174.41,-295.37L-189.52,-310.71L-211.93,-315.86L-251.82,-294.76L-263.45,-245.04L-246.69,-196.82L-204.81,-180.00L-185.55,-185.67L-171.82,-199.59L-171.40,-190.34L-177.63,-161.75L-203.00,-150.61L-223.46,-155.23L-232.29,-171.89L-249.31,-162.99L-237.11,-140.39ZM-209.72,-297.38L-185.00,-286.17L-171.79,-249.83L-180.21,-212.36L-204.55,-198.58L-229.54,-209.78L-241.20,-246.19L-233.41,-283.63ZM-118.21,-189.04L-96.41,-190.18L-100.00,-258.72L-92.25,-291.57L-68.20,-304.04L-47.29,-295.67L-40.04,-270.60L-35.99,-193.35L-14.20,-194.49L-18.25,-271.74L-28.51,-309.72L-64.75,-323.06L-88.01,-316.64L-104.24,-297.84L-105.19,-316.00L-124.80,-314.97ZM25.63,-343.97L33.06,-353.00L32.43,-365.32L23.94,-373.72L12.74,-373.13L5.39,-363.92L6.03,-351.62L14.43,-343.38ZM38.59,-197.26L31.99,-323.19L10.20,-322.05L16.80,-196.12ZM69.47,-198.88L91.27,-200.02L87.68,-268.55L95.43,-301.41L119.48,-313.88L140.39,-305.51L147.64,-280.44L151.69,-203.19L173.48,-204.33L169.43,-281.58L159.17,-319.55L122.93,-332.90L99.67,-326.47L83.44,-307.67L82.49,-325.83L62.88,-324.81ZM254.68,-155.76L298.80,-177.05L307.45,-219.61L301.28,-337.30L281.91,-336.28L282.80,-319.33L267.69,-334.67L245.28,-339.82L205.39,-318.72L193.77,-269.00L210.52,-220.78L252.40,-203.97L271.66,-209.64L285.39,-223.55L285.81,-214.31L279.58,-185.72L254.21,-174.57L233.75,-179.19L224.92,-195.85L207.90,-186.95L220.10,-164.35ZM247.49,-321.35L272.21,-310.13L285.42,-273.79L277.00,-236.32L252.67,-222.55L227.67,-233.74L216.01,-270.15L223.80,-307.59ZM415.76,-364.41L423.19,-373.45L422.56,-385.76L414.07,-394.17L402.87,-393.58L395.52,-384.37L396.16,-372.06L404.57,-363.83ZM428.73,-217.71L422.13,-343.63L400.33,-342.49L406.93,-216.56ZM471.34,-259.06L453.28,-249.43L466.90,-225.37L504.77,-216.68L539.90,-227.41L554.63,-258.43L543.48,-283.75L521.70,-293.54L491.92,-299.94L475.26,-305.62L469.38,-315.40L475.74,-328.19L496.04,-333.82L516.06,-329.47L525.39,-313.90L543.27,-323.50L531.50,-344.04L495.90,-352.48L461.63,-341.74L448.23,-311.83L459.13,-289.22L481.52,-279.94L512.99,-273.36L527.99,-266.78L532.46,-255.32L523.50,-240.19L504.54,-235.29L480.99,-241.70ZM-495.71,49.29L-437.83,46.26L-375.32,20.79L-357.76,-45.86L-383.56,-110.39L-450.12,-127.94L-504.85,-125.07ZM-473.77,27.74L-480.76,-105.69L-449.04,-107.35L-402.08,-96.40L-381.97,-44.82L-394.58,7.75L-441.32,26.04ZM-302.39,15.14L-316.85,-17.61L-223.37,-22.53L-222.62,-31.31L-239.46,-76.69L-284.13,-93.14L-325.91,-72.87L-339.35,-22.13L-320.68,26.92L-277.01,42.71L-241.59,30.20L-226.39,3.37L-243.91,-6.34L-255.99,15.90L-276.74,24.11ZM-317.04,-35.11L-304.87,-64.65L-283.18,-74.64L-257.92,-65.44L-246.57,-38.80ZM-146.15,17.38L-172.36,7.17L-185.30,-30.12L-176.33,-68.55L-151.33,-81.44L-131.16,-75.59L-117.94,-53.95L-99.67,-64.32L-117.26,-90.49L-152.30,-99.96L-194.10,-79.69L-207.54,-28.95L-188.88,20.11L-145.18,35.89L-111.32,22.95L-96.77,-4.29L-115.80,-13.19L-126.72,9.49ZM-60.18,-120.92L-52.75,-129.95L-53.38,-142.27L-61.87,-150.67L-73.07,-150.09L-80.42,-140.88L-79.78,-128.57L-71.37,-120.33ZM-47.22,25.79L-53.81,-100.14L-75.61,-99.00L-69.01,26.93ZM76.84,-155.55L55.04,-154.41L58.27,-92.88L43.96,-104.65L23.51,-108.63L-16.39,-87.53L-28.02,-37.82L-11.26,10.41L30.63,27.22L51.69,20.23L65.70,2.63L66.60,19.82L85.98,18.81ZM25.74,-90.18L51.37,-79.01L63.65,-42.62L54.31,-5.11L30.92,8.62L5.89,-2.57L-5.78,-38.98L2.02,-76.42ZM126.29,-130.69L133.72,-139.73L133.09,-152.04L124.60,-160.45L113.40,-159.86L106.05,-150.65L106.69,-138.34L115.10,-130.11ZM139.25,16.01L132.65,-109.91L110.86,-108.77L117.46,17.16ZM170.14,14.40L191.93,13.25L188.34,-55.28L196.09,-88.13L220.14,-100.60L241.05,-92.23L248.30,-67.16L252.35,10.09L274.14,8.94L270.09,-68.31L259.83,-106.28L223.59,-119.62L200.33,-113.20L184.10,-94.40L183.15,-112.56L163.54,-111.53ZM355.34,57.52L399.46,36.22L408.11,-6.33L401.94,-124.03L382.57,-123.01L383.46,-106.06L368.35,-121.40L345.94,-126.54L306.05,-105.44L294.43,-55.73L311.18,-7.51L353.06,9.31L372.32,3.64L386.05,-10.28L386.47,-1.03L380.24,27.56L354.87,38.71L334.41,34.08L325.58,17.42L308.56,26.32L320.76,48.92ZM348.15,-108.07L372.87,-96.85L386.08,-60.51L377.66,-23.05L353.33,-9.27L328.33,-20.46L316.67,-56.88L324.46,-94.32Z" fill="#ffffff" stroke="#000000"/>
    <path d="M-725.88,-139.79L-668.66,-143.79L-607.24,-170.06L-591.02,-236.33L-617.67,-299.73L-683.82,-315.95L-737.93,-312.17ZM-704.54,-161.49L-713.77,-293.41L-682.40,-295.60L-635.75,-285.57L-614.96,-234.88L-626.52,-182.64L-672.46,-163.73ZM-535.17,-176.92L-550.04,-209.08L-457.63,-215.56L-457.04,-224.27L-474.48,-268.88L-518.97,-284.38L-559.97,-263.60L-572.39,-213.17L-553.07,-164.95L-509.58,-150.07L-474.74,-163.07L-460.17,-189.88L-477.68,-199.18L-489.24,-176.97L-509.64,-168.49ZM-550.53,-226.39L-539.00,-255.83L-517.71,-266.10L-492.56,-257.42L-480.86,-231.26ZM-419.15,-199.99L-436.86,-190.16L-422.96,-166.58L-385.34,-158.63L-350.76,-169.86L-336.73,-200.80L-348.19,-225.67L-369.92,-234.98L-399.49,-240.80L-416.08,-246.14L-422.06,-255.71L-415.99,-268.47L-396.00,-274.40L-376.11,-270.44L-366.62,-255.19L-349.09,-265.01L-361.09,-285.12L-396.46,-292.86L-430.19,-281.64L-442.93,-251.82L-431.76,-229.63L-409.44,-220.83L-378.19,-214.86L-363.23,-208.61L-358.60,-197.35L-367.21,-182.22L-385.89,-177.05L-409.31,-182.98ZM-305.26,-315.22L-298.07,-324.29L-298.90,-336.46L-307.45,-344.63L-318.52,-343.86L-325.64,-334.62L-324.80,-322.45L-316.33,-314.45ZM-289.90,-170.27L-298.61,-294.77L-320.16,-293.26L-311.45,-168.77ZM-208.24,-123.64L-164.95,-145.48L-157.12,-187.74L-165.25,-304.09L-184.41,-302.75L-183.24,-285.99L-198.45,-300.91L-220.72,-305.62L-259.82,-284.05L-270.47,-234.66L-253.05,-187.22L-211.32,-171.31L-192.37,-177.25L-179.02,-191.26L-178.44,-182.12L-184.11,-153.72L-209.03,-142.25L-229.35,-146.47L-238.38,-162.81L-255.06,-153.70L-242.60,-131.55ZM-218.21,-287.38L-193.56,-276.70L-179.85,-240.97L-187.54,-203.75L-211.38,-189.70L-236.31,-200.34L-248.48,-236.17L-241.41,-273.36ZM-125.78,-181.75L-104.23,-183.26L-108.97,-251.01L-101.86,-283.65L-78.28,-296.41L-57.44,-288.49L-49.84,-263.81L-44.50,-187.43L-22.96,-188.94L-28.30,-265.31L-39.11,-302.71L-75.19,-315.29L-98.11,-308.53L-113.84,-289.64L-115.09,-307.60L-134.48,-306.24ZM13.88,-337.54L21.07,-346.60L20.24,-358.78L11.69,-366.95L0.62,-366.18L-6.50,-356.93L-5.66,-344.77L2.81,-336.76ZM29.24,-192.59L20.53,-317.08L-1.02,-315.58L7.69,-191.08ZM59.77,-194.72L81.32,-196.23L76.58,-263.98L83.68,-296.63L107.27,-309.38L128.10,-301.46L135.70,-276.78L141.04,-200.41L162.59,-201.91L157.25,-278.29L146.44,-315.69L110.35,-328.26L87.44,-321.50L71.71,-302.62L70.46,-320.58L51.06,-319.22ZM243.78,-155.25L287.07,-177.08L294.90,-219.35L286.76,-335.70L267.61,-334.36L268.78,-317.60L253.56,-332.52L231.30,-337.22L192.19,-315.66L181.55,-266.26L198.96,-218.83L240.69,-202.92L259.65,-208.86L273.00,-222.87L273.58,-213.73L267.91,-185.33L242.99,-173.86L222.66,-178.08L213.64,-194.42L196.95,-185.31L209.42,-163.16ZM233.80,-318.98L258.46,-308.31L272.16,-272.58L264.47,-235.36L240.63,-221.31L215.71,-231.95L203.54,-267.78L210.60,-304.96ZM399.57,-364.51L406.77,-373.57L405.93,-385.75L397.38,-393.92L386.32,-393.15L379.20,-383.90L380.04,-371.74L388.51,-363.73ZM414.94,-219.56L406.23,-344.05L384.68,-342.55L393.39,-218.05ZM456.39,-261.22L438.68,-251.38L452.58,-227.80L490.20,-219.85L524.78,-231.08L538.82,-262.03L527.35,-286.90L505.62,-296.21L476.05,-302.02L459.46,-307.36L453.48,-316.93L459.55,-329.70L479.54,-335.62L499.43,-331.67L508.93,-316.41L526.46,-326.23L514.45,-346.34L479.08,-354.08L445.35,-342.86L432.61,-313.04L443.78,-290.85L466.11,-282.06L497.35,-276.09L512.31,-269.83L516.94,-258.57L508.33,-243.44L489.65,-238.27L466.23,-244.20ZM-495.22,60.61L-438.00,56.61L-376.58,30.33L-360.35,-35.93L-387.00,-99.34L-453.16,-115.55L-507.27,-111.77ZM-473.88,38.91L-483.10,-93.01L-451.74,-95.20L-405.09,-85.18L-384.30,-34.48L-395.86,17.76L-441.80,36.67ZM-304.51,23.48L-319.38,-8.68L-226.97,-15.16L-226.38,-23.87L-243.82,-68.48L-288.31,-83.98L-329.31,-63.21L-341.73,-12.77L-322.41,35.45L-278.92,50.32L-244.08,37.33L-229.51,10.51L-247.01,1.22L-258.58,23.43L-278.98,31.91ZM-319.87,-25.99L-308.34,-55.43L-287.05,-65.70L-261.90,-57.02L-250.20,-30.86ZM-149.87,23.00L-175.98,13.34L-189.43,-23.33L-181.21,-61.51L-156.70,-74.70L-136.64,-69.26L-123.18,-48.07L-105.28,-58.65L-123.14,-84.24L-157.98,-93.01L-198.99,-72.23L-211.42,-21.79L-192.10,26.43L-148.59,41.30L-115.30,27.91L-101.38,0.70L-120.37,-7.77L-130.77,14.86ZM-67.18,-115.34L-59.99,-124.41L-60.82,-136.58L-69.37,-144.76L-80.44,-143.98L-87.56,-134.74L-86.71,-122.57L-78.25,-114.57ZM-51.82,29.61L-60.53,-94.89L-82.07,-93.38L-73.37,31.11ZM67.80,-151.98L46.26,-150.47L50.51,-89.64L36.15,-101.04L15.84,-104.63L-23.27,-83.06L-33.93,-33.66L-16.50,13.77L25.24,29.68L45.95,22.40L59.52,4.74L60.70,21.74L79.86,20.40ZM18.37,-86.41L43.92,-75.80L56.70,-40.00L48.11,-2.72L25.20,11.27L0.24,0.63L-11.94,-35.20L-4.87,-72.39ZM117.17,-128.23L124.36,-137.30L123.53,-149.47L114.98,-157.65L103.91,-156.87L96.79,-147.63L97.64,-135.47L106.10,-127.46ZM132.53,16.72L123.82,-107.78L102.28,-106.27L110.98,18.22ZM163.06,14.58L184.61,13.07L179.87,-54.68L186.98,-87.32L210.56,-100.08L231.40,-92.16L239.00,-67.48L244.34,8.90L265.88,7.39L260.54,-68.98L249.73,-106.38L213.64,-118.96L190.73,-112.20L175.00,-93.31L173.75,-111.27L154.35,-109.91ZM347.07,54.05L390.36,32.22L398.19,-10.04L390.05,-126.40L370.90,-125.06L372.07,-108.30L356.86,-123.22L334.59,-127.92L295.48,-106.35L284.84,-56.96L302.26,-9.53L343.98,6.39L362.94,0.44L376.29,-13.56L376.87,-4.42L371.20,23.98L346.28,35.45L325.96,31.22L316.93,14.89L300.25,23.99L312.71,46.14ZM337.10,-109.68L361.75,-99.01L375.45,-63.27L367.77,-26.06L343.93,-12.00L319.00,-22.65L306.83,-58.48L313.90,-95.66Z" fill="#ffffff" stroke="#000000"/>
    <path d="M-726.05,-122.44L-669.51,-127.38L-609.19,-154.44L-594.28,-220.29L-621.74,-282.56L-687.49,-297.46L-740.96,-292.79ZM-705.31,-144.28L-716.72,-274.64L-685.73,-277.35L-639.39,-268.24L-617.94,-218.44L-628.48,-166.55L-673.61,-147.05ZM-538.00,-162.47L-553.27,-194.04L-461.95,-202.05L-461.51,-210.67L-479.54,-254.50L-523.83,-269.08L-564.03,-247.81L-575.45,-197.69L-555.50,-150.32L-512.22,-136.35L-477.97,-149.81L-464.01,-176.59L-481.50,-185.49L-492.56,-163.31L-512.59,-154.57ZM-554.06,-211.15L-543.16,-240.48L-522.27,-251.01L-497.23,-242.86L-485.21,-217.18ZM-423.60,-187.30L-440.96,-177.27L-426.80,-154.18L-389.44,-146.96L-355.42,-158.67L-342.06,-189.53L-353.84,-213.94L-375.50,-222.78L-404.86,-228.02L-421.36,-233.01L-427.45,-242.38L-421.66,-255.12L-401.98,-261.33L-382.24,-257.75L-372.58,-242.82L-355.40,-252.84L-367.63,-272.54L-402.76,-279.58L-435.94,-267.90L-448.03,-238.17L-436.59,-216.41L-414.35,-208.09L-383.33,-202.72L-368.42,-196.80L-363.65,-185.74L-371.91,-170.62L-390.30,-165.18L-413.57,-170.64ZM-312.91,-303.28L-305.95,-312.38L-306.99,-324.41L-315.59,-332.35L-326.52,-331.39L-333.41,-322.12L-332.36,-310.10L-323.85,-302.32ZM-295.21,-160.13L-305.97,-283.16L-327.27,-281.30L-316.50,-158.27ZM-213.60,-115.41L-171.15,-137.75L-164.13,-179.70L-174.19,-294.69L-193.12,-293.03L-191.67,-276.47L-206.98,-290.97L-229.09,-295.24L-267.41,-273.22L-277.09,-224.17L-259.04,-177.54L-217.48,-162.51L-198.82,-168.72L-185.86,-182.81L-185.13,-173.78L-190.25,-145.58L-214.70,-133.80L-234.89,-137.63L-244.10,-153.64L-260.45,-144.34L-247.74,-122.64ZM-226.30,-277.23L-201.72,-267.10L-187.55,-231.98L-194.51,-195.03L-217.85,-180.71L-242.70,-190.81L-255.36,-226.05L-249.01,-262.96ZM-133.02,-174.32L-111.73,-176.18L-117.58,-243.14L-111.11,-275.56L-88.00,-288.59L-67.25,-281.11L-59.30,-256.82L-52.70,-181.35L-31.41,-183.21L-38.01,-258.68L-49.35,-295.50L-85.27,-307.32L-107.83,-300.24L-123.07,-281.28L-124.62,-299.03L-143.78,-297.35ZM2.47,-330.87L9.43,-339.97L8.40,-352.00L-0.20,-359.94L-11.14,-358.98L-18.03,-349.71L-16.98,-337.69L-8.47,-329.92ZM20.17,-187.72L9.41,-310.75L-11.89,-308.89L-1.12,-185.86ZM50.34,-190.36L71.64,-192.22L65.78,-259.18L72.25,-291.60L95.36,-304.63L116.11,-297.15L124.06,-272.86L130.66,-197.39L151.96,-199.25L145.35,-274.73L134.01,-311.54L98.09,-323.36L75.53,-316.28L60.30,-297.32L58.74,-315.07L39.58,-313.39ZM233.09,-154.49L275.55,-176.83L282.56,-218.78L272.50,-333.77L253.58,-332.11L255.02,-315.55L239.71,-330.05L217.60,-334.32L179.28,-312.30L169.60,-263.25L187.65,-216.62L229.21,-201.59L247.87,-207.80L260.83,-221.89L261.56,-212.86L256.44,-184.66L231.99,-172.88L211.80,-176.71L202.59,-192.72L186.24,-183.42L198.96,-161.72ZM220.39,-316.32L244.97,-306.18L259.15,-271.06L252.18,-234.11L228.84,-219.79L203.99,-229.89L191.34,-265.13L197.68,-302.04ZM383.63,-364.22L390.59,-373.32L389.55,-385.35L380.95,-393.29L370.01,-392.33L363.13,-383.06L364.18,-371.04L372.69,-363.26ZM401.33,-221.07L390.57,-344.10L369.27,-342.24L380.03,-219.21ZM441.63,-263.00L424.28,-252.96L438.44,-229.87L475.80,-222.66L509.82,-234.36L523.17,-265.23L511.39,-289.64L489.74,-298.47L460.38,-303.72L443.87,-308.71L437.78,-318.08L443.57,-330.81L463.25,-337.02L483.00,-333.45L492.65,-318.52L509.83,-328.54L497.61,-348.23L462.47,-355.28L429.29,-343.60L417.21,-313.87L428.64,-292.11L450.88,-283.79L481.90,-278.42L496.81,-272.50L501.58,-261.43L493.33,-246.31L474.93,-240.87L451.66,-246.34ZM-494.37,71.86L-437.82,66.91L-377.51,39.85L-362.60,-25.99L-390.06,-88.27L-455.80,-103.17L-509.27,-98.49ZM-473.63,50.02L-485.04,-80.35L-454.04,-83.06L-407.71,-73.94L-386.26,-24.15L-396.80,27.75L-441.93,47.25ZM-306.32,31.83L-321.59,0.26L-230.26,-7.75L-229.83,-16.37L-247.86,-60.21L-292.14,-74.78L-332.35,-53.51L-343.77,-3.39L-323.82,43.98L-280.53,57.94L-246.29,44.49L-232.33,17.70L-249.81,8.80L-260.87,30.98L-280.91,39.73ZM-322.37,-16.86L-311.47,-46.19L-290.58,-56.71L-265.54,-48.56L-253.52,-22.88ZM-153.32,28.68L-179.32,19.58L-193.26,-16.47L-185.79,-54.39L-161.76,-67.87L-141.82,-62.83L-128.14,-42.10L-110.62,-52.88L-128.73,-77.89L-163.35,-85.96L-203.56,-64.69L-214.99,-14.57L-195.05,32.81L-151.74,46.77L-119.03,32.94L-105.73,5.78L-124.66,-2.28L-134.57,20.29ZM-73.89,-109.63L-66.93,-118.72L-67.97,-130.75L-76.57,-138.69L-87.51,-137.73L-94.39,-128.47L-93.34,-116.45L-84.83,-108.67ZM-56.19,33.52L-66.96,-89.51L-88.25,-87.64L-77.49,35.39ZM59.03,-148.21L37.74,-146.35L43.00,-86.23L28.59,-97.26L8.44,-100.46L-29.89,-78.44L-39.58,-29.39L-21.52,17.24L20.05,32.27L40.42,24.71L53.54,7.00L55.01,23.80L73.94,22.14ZM11.25,-82.48L36.72,-72.42L49.98,-37.22L42.12,-0.19L19.69,14.05L-5.19,3.95L-17.85,-31.29L-11.50,-68.20ZM108.29,-125.56L115.24,-134.66L114.21,-146.69L105.61,-154.63L94.67,-153.67L87.79,-144.40L88.83,-132.38L97.35,-124.61ZM125.99,17.59L115.22,-105.44L93.93,-103.58L104.69,19.45ZM156.16,14.95L177.45,13.08L171.59,-53.87L178.06,-86.29L201.18,-99.32L221.93,-91.84L229.87,-67.55L236.48,7.92L257.77,6.06L251.17,-69.42L239.82,-106.23L203.90,-118.05L181.35,-110.97L166.11,-92.02L164.56,-109.76L145.39,-108.08ZM338.91,50.82L381.36,28.47L388.38,-13.48L378.32,-128.46L359.39,-126.81L360.84,-110.24L345.53,-124.74L323.42,-129.01L285.10,-107.00L275.42,-57.94L293.47,-11.31L335.03,3.72L353.68,-2.49L366.65,-16.58L367.38,-7.55L362.26,20.65L337.81,32.43L317.62,28.60L308.41,12.59L292.06,21.89L304.77,43.59ZM326.21,-111.01L350.79,-100.87L364.96,-65.75L358.00,-28.80L334.65,-14.48L309.81,-24.58L297.15,-59.82L303.50,-96.73Z" fill="#ffffff" stroke="#000000"/>
    <path d="M-725.73,-105.20L-669.87,-111.07L-610.67,-138.88L-597.05,-204.28L-625.30,-265.42L-690.60,-279.02L-743.42,-273.47ZM-705.59,-127.16L-719.12,-255.94L-688.51,-259.16L-642.51,-250.94L-620.43,-202.04L-629.96,-150.52L-674.27,-130.45ZM-540.38,-148.05L-556.03,-179.02L-465.82,-188.52L-465.54,-197.05L-484.13,-240.11L-528.20,-253.77L-567.60,-232.03L-578.03,-182.25L-557.48,-135.72L-514.42,-122.66L-480.77,-136.56L-467.42,-163.30L-484.87,-171.80L-495.43,-149.67L-515.10,-140.67ZM-557.10,-195.94L-546.82,-225.14L-526.34,-235.91L-501.43,-228.29L-489.09,-203.08ZM-427.63,-174.60L-444.62,-164.37L-430.22,-141.77L-393.13,-135.27L-359.68,-147.44L-347.00,-178.21L-359.07,-202.15L-380.65,-210.52L-409.79,-215.20L-426.20,-219.85L-432.39,-229.02L-426.88,-241.72L-407.52,-248.20L-387.92,-245.01L-378.11,-230.40L-361.29,-240.61L-373.72,-259.88L-408.60,-266.25L-441.23,-254.12L-452.67,-224.50L-440.98,-203.16L-418.84,-195.32L-388.06,-190.55L-373.20,-184.94L-368.29,-174.08L-376.20,-158.98L-394.30,-153.28L-417.42,-158.29ZM-320.12,-291.24L-313.40,-300.36L-314.63,-312.25L-323.27,-319.95L-334.08,-318.82L-340.73,-309.53L-339.48,-297.66L-330.93,-290.11ZM-300.14,-149.93L-312.91,-271.46L-333.95,-269.25L-321.17,-147.72ZM-218.63,-107.09L-177.01,-129.93L-170.80,-171.56L-182.73,-285.14L-201.43,-283.18L-199.71,-266.82L-215.11,-280.89L-237.06,-284.74L-274.59,-262.29L-283.32,-213.60L-264.66,-167.78L-223.28,-153.63L-204.93,-160.09L-192.35,-174.25L-191.47,-165.33L-196.05,-137.35L-220.04,-125.27L-240.07,-128.71L-249.46,-144.39L-265.48,-134.90L-252.52,-113.65ZM-233.98,-266.97L-209.49,-257.37L-194.86,-222.87L-201.11,-186.19L-223.96,-171.62L-248.72,-181.19L-261.85,-215.83L-256.21,-252.46ZM-139.92,-166.77L-118.89,-168.98L-125.84,-235.12L-120.00,-267.30L-97.36,-280.60L-76.70,-273.55L-68.42,-249.66L-60.58,-175.11L-39.55,-177.32L-47.38,-251.87L-59.24,-288.10L-94.99,-299.17L-117.18,-291.78L-131.92,-272.76L-133.77,-290.29L-152.70,-288.30ZM-8.58,-323.99L-1.86,-333.11L-3.09,-344.99L-11.73,-352.70L-22.54,-351.56L-29.19,-342.27L-27.95,-330.40L-19.39,-322.85ZM11.40,-182.67L-1.37,-304.20L-22.41,-301.99L-9.63,-180.46ZM41.20,-185.80L62.24,-188.02L55.29,-254.16L61.13,-286.34L83.77,-299.63L104.43,-292.59L112.71,-268.70L120.54,-194.14L141.58,-196.35L133.74,-270.91L121.88,-307.14L86.14,-318.21L63.95,-310.81L49.20,-291.80L47.36,-309.33L28.43,-307.34ZM222.62,-153.47L264.24,-176.31L270.45,-217.93L258.52,-331.52L239.82,-329.55L241.54,-313.19L226.14,-327.27L204.19,-331.11L166.66,-308.67L157.93,-259.97L176.59,-214.15L217.97,-200.00L236.32,-206.47L248.90,-220.63L249.78,-211.71L245.20,-183.72L221.21,-171.65L201.18,-175.09L191.79,-190.76L175.77,-181.28L188.73,-160.03ZM207.26,-313.35L231.76,-303.75L246.39,-269.25L240.13,-232.57L217.29,-218.00L192.53,-227.56L179.40,-262.21L185.04,-298.84ZM367.93,-363.56L374.65,-372.68L373.42,-384.57L364.78,-392.27L353.97,-391.14L347.32,-381.85L348.57,-369.97L357.12,-362.43ZM387.91,-222.24L375.14,-343.78L354.10,-341.56L366.88,-220.03ZM427.06,-264.43L410.06,-254.20L424.47,-231.60L461.56,-225.11L495.01,-237.27L507.69,-268.04L495.62,-291.98L474.04,-300.35L444.90,-305.03L428.49,-309.68L422.30,-318.85L427.81,-331.55L447.17,-338.03L466.77,-334.84L476.58,-320.23L493.40,-330.44L480.97,-349.71L446.08,-356.08L413.46,-343.95L402.02,-314.33L413.71,-292.99L435.85,-285.15L466.63,-280.38L481.48,-274.77L486.40,-263.91L478.49,-248.81L460.39,-243.11L437.27,-248.12ZM-493.16,83.02L-437.31,77.15L-378.10,49.34L-364.49,-16.06L-392.73,-77.19L-458.03,-90.80L-510.85,-85.25ZM-473.02,61.06L-486.56,-67.72L-455.94,-70.94L-409.95,-62.72L-387.87,-13.82L-397.40,37.70L-441.71,57.77ZM-307.81,40.17L-323.46,9.21L-233.25,-0.30L-232.97,-8.83L-251.57,-51.89L-295.63,-65.54L-335.04,-43.81L-345.47,5.97L-324.92,52.50L-281.85,65.56L-248.20,51.66L-234.86,24.92L-252.31,16.42L-262.87,38.55L-282.54,47.55ZM-324.53,-7.71L-314.26,-36.92L-293.77,-47.69L-268.86,-40.06L-256.52,-14.86ZM-156.50,34.41L-182.38,25.86L-196.79,-9.56L-190.06,-47.21L-166.52,-60.96L-146.71,-56.32L-132.82,-36.04L-115.66,-47.01L-134.01,-71.44L-168.40,-78.83L-207.82,-57.09L-218.26,-7.31L-197.71,39.22L-154.62,52.28L-122.50,38.04L-109.81,10.94L-128.68,3.29L-138.09,25.80ZM-80.31,-103.78L-73.58,-112.90L-74.81,-124.79L-83.46,-132.49L-94.26,-131.36L-100.92,-122.07L-99.67,-110.20L-91.12,-102.65ZM-60.33,37.53L-73.10,-84.00L-94.13,-81.79L-81.36,39.74ZM50.53,-144.25L29.49,-142.04L35.74,-82.66L21.29,-93.32L1.30,-96.14L-36.24,-73.69L-44.98,-24.99L-26.31,20.82L15.08,34.97L35.10,27.14L47.77,9.39L49.52,25.99L68.21,24.02ZM4.39,-78.40L29.76,-68.89L43.49,-34.29L36.36,2.48L14.41,16.95L-10.38,7.39L-23.51,-27.25L-17.87,-63.88ZM99.65,-122.70L106.37,-131.82L105.14,-143.70L96.50,-151.41L85.69,-150.27L79.04,-140.98L80.29,-129.11L88.84,-121.56ZM119.63,18.62L106.86,-102.91L85.82,-100.70L98.60,20.83ZM149.43,15.48L170.47,13.27L163.52,-52.87L169.36,-85.05L192.00,-98.34L212.66,-91.30L220.94,-67.41L228.78,7.15L249.81,4.94L241.97,-69.62L230.12,-105.85L194.37,-116.92L172.18,-109.52L157.43,-90.51L155.59,-108.04L136.66,-106.05ZM330.85,47.82L372.47,24.98L378.68,-16.64L366.75,-130.23L348.05,-128.26L349.77,-111.90L334.37,-125.98L312.42,-129.82L274.89,-107.38L266.16,-58.68L284.82,-12.86L326.20,1.28L344.55,-5.18L357.13,-19.34L358.01,-10.42L353.43,17.57L329.44,29.64L309.41,26.20L300.02,10.53L284.00,20.01L296.96,41.26ZM315.50,-112.06L339.99,-102.46L354.62,-67.96L348.37,-31.28L325.52,-16.71L300.76,-26.27L287.63,-60.92L293.27,-97.55Z" fill="#ffffff" stroke="#000000"/>
    <path d="M-724.91,-88.08L-669.76,-94.85L-611.67,-123.39L-599.34,-188.32L-628.33,-248.31L-693.16,-260.64L-745.31,-254.23ZM-705.37,-110.16L-720.98,-237.31L-690.75,-241.02L-645.11,-233.69L-622.43,-185.70L-630.97,-134.57L-674.45,-113.96ZM-542.30,-133.67L-558.32,-164.03L-469.25,-174.99L-469.11,-183.44L-488.25,-225.71L-532.08,-238.46L-570.68,-216.28L-580.14,-166.85L-559.01,-121.18L-516.18,-109.00L-483.14,-123.34L-470.40,-150.02L-487.81,-158.13L-497.87,-136.05L-517.17,-126.81ZM-559.67,-180.75L-550.01,-209.82L-529.93,-220.83L-505.16,-213.72L-492.52,-189.00ZM-431.23,-161.88L-447.86,-151.47L-433.22,-129.36L-396.42,-123.58L-363.54,-136.19L-351.53,-166.84L-363.89,-190.32L-385.38,-198.23L-414.28,-202.35L-430.60,-206.67L-436.87,-215.63L-431.65,-228.29L-412.60,-235.04L-393.16,-232.22L-383.21,-217.94L-366.74,-228.33L-379.38,-247.18L-413.99,-252.87L-446.05,-240.31L-456.86,-210.81L-444.93,-189.91L-422.89,-182.53L-392.36,-178.34L-377.57,-173.05L-372.52,-162.39L-380.08,-147.32L-397.89,-141.37L-420.85,-145.92ZM-326.90,-279.13L-320.40,-288.26L-321.82,-300.00L-330.51,-307.47L-341.17,-306.16L-347.59,-296.86L-346.16,-285.13L-337.57,-277.82ZM-304.69,-139.68L-319.42,-259.68L-340.19,-257.13L-325.46,-137.13ZM-223.32,-98.71L-182.54,-122.03L-177.11,-163.31L-190.88,-275.46L-209.35,-273.19L-207.36,-257.04L-222.84,-270.70L-244.61,-274.12L-281.36,-251.27L-289.15,-202.95L-269.90,-157.95L-228.72,-144.67L-210.68,-151.38L-198.48,-165.60L-197.46,-156.79L-201.50,-129.03L-225.02,-116.67L-244.90,-119.73L-254.46,-135.07L-270.14,-125.42L-256.96,-104.62ZM-241.27,-256.60L-216.87,-247.53L-201.81,-213.65L-207.36,-177.26L-229.71,-162.45L-254.36,-171.49L-267.95,-205.53L-263.00,-241.86ZM-146.49,-159.10L-125.72,-161.65L-133.74,-226.96L-128.52,-258.90L-106.35,-272.44L-85.79,-265.83L-77.19,-242.34L-68.15,-168.72L-47.38,-171.27L-56.42,-244.89L-68.78,-280.52L-104.32,-290.86L-126.15,-283.16L-140.41,-264.09L-142.53,-281.40L-161.23,-279.10ZM-19.28,-316.90L-12.79,-326.03L-14.21,-337.77L-22.89,-345.24L-33.56,-343.93L-39.98,-334.63L-38.55,-322.90L-29.95,-315.59ZM2.93,-177.45L-11.81,-297.45L-32.58,-294.90L-17.84,-174.90ZM32.35,-181.06L53.12,-183.61L45.10,-248.92L50.32,-280.86L72.49,-294.40L93.05,-287.79L101.65,-264.30L110.69,-190.68L131.46,-193.23L122.42,-266.85L110.07,-302.48L74.52,-312.81L52.70,-305.11L38.44,-286.05L36.31,-303.36L17.62,-301.06ZM212.37,-152.21L253.14,-175.52L258.57,-216.80L244.80,-328.96L226.34,-326.69L228.33,-310.54L212.85,-324.19L191.07,-327.62L154.33,-304.77L146.54,-256.45L165.79,-211.44L206.97,-198.16L225.01,-204.87L237.21,-219.10L238.23,-210.29L234.19,-182.53L210.66,-170.17L190.79,-173.22L181.23,-188.57L165.55,-178.91L178.73,-158.11ZM194.42,-310.10L218.81,-301.02L233.88,-267.15L228.33,-230.76L205.98,-215.95L181.33,-224.98L167.74,-259.03L172.69,-295.36ZM352.48,-362.54L358.98,-371.68L357.56,-383.42L348.87,-390.89L338.20,-389.58L331.78,-380.27L333.22,-368.55L341.81,-361.23ZM374.69,-223.10L359.96,-343.09L339.19,-340.54L353.92,-220.55ZM412.69,-265.50L396.05,-255.08L410.69,-232.98L447.49,-227.20L480.38,-239.81L492.38,-270.46L480.03,-293.94L458.54,-301.84L429.64,-305.97L413.32,-310.29L407.04,-319.25L412.27,-331.91L431.31,-338.66L450.75,-335.84L460.71,-321.56L477.17,-331.94L464.54,-350.80L429.92,-356.49L397.86,-343.92L387.05,-314.43L398.98,-293.53L421.03,-286.15L451.56,-281.96L466.35,-276.67L471.39,-266.01L463.83,-250.94L446.02,-244.99L423.07,-249.54ZM-491.61,94.09L-436.45,87.32L-378.37,58.79L-366.03,-6.14L-395.03,-66.13L-459.85,-78.46L-512.01,-72.06ZM-472.06,72.02L-487.68,-55.14L-457.45,-58.85L-411.80,-51.52L-389.12,-3.53L-397.66,47.60L-441.14,68.22ZM-309.00,48.50L-325.01,18.14L-235.94,7.18L-235.81,-1.26L-254.95,-43.54L-298.77,-56.28L-337.38,-34.10L-346.84,15.32L-325.70,60.99L-282.88,73.17L-249.83,58.84L-237.09,32.16L-254.50,24.05L-264.56,46.12L-283.87,55.36ZM-326.36,1.42L-316.70,-27.65L-296.63,-38.66L-271.85,-31.54L-259.21,-6.82ZM-159.42,40.19L-185.16,32.18L-200.03,-2.61L-194.02,-39.97L-170.98,-53.98L-151.30,-49.73L-137.20,-29.91L-120.42,-41.06L-139.00,-64.91L-173.14,-71.62L-211.76,-49.44L-221.23,-0.01L-200.10,45.66L-157.25,57.84L-125.72,43.19L-113.64,16.17L-132.43,8.93L-141.36,31.35ZM-86.44,-97.83L-79.94,-106.97L-81.36,-118.70L-90.05,-126.17L-100.71,-124.86L-107.13,-115.56L-105.70,-103.84L-97.10,-96.52ZM-64.23,41.62L-78.96,-78.38L-99.73,-75.83L-85.00,44.17ZM42.29,-140.12L21.53,-137.57L28.72,-78.94L14.25,-89.23L-5.57,-91.67L-42.32,-68.82L-50.13,-20.50L-30.86,24.50L10.32,37.78L29.99,29.69L42.22,11.92L44.23,28.30L62.69,26.03ZM-2.21,-74.18L23.05,-65.21L37.23,-31.23L30.81,5.28L9.35,19.97L-15.34,10.94L-28.93,-23.10L-23.98,-59.43ZM91.25,-119.65L97.75,-128.78L96.33,-140.52L87.64,-147.99L76.98,-146.68L70.56,-137.38L71.99,-125.65L80.59,-118.34ZM113.46,19.80L98.73,-100.20L77.96,-97.65L92.69,22.35ZM142.89,16.19L163.66,13.64L155.64,-51.67L160.86,-83.61L183.03,-97.15L203.59,-90.54L212.19,-67.05L221.23,6.57L242.00,4.02L232.96,-69.60L220.61,-105.23L185.06,-115.57L163.24,-107.87L148.98,-88.80L146.85,-106.11L128.16,-103.81ZM322.91,45.04L363.68,21.73L369.11,-19.55L355.34,-131.71L336.88,-129.44L338.86,-113.29L323.39,-126.95L301.61,-130.37L264.87,-107.52L257.08,-59.20L276.33,-14.19L317.51,-0.91L335.55,-7.62L347.75,-21.85L348.77,-13.04L344.73,14.72L321.20,27.08L301.32,24.03L291.77,8.68L276.09,18.34L289.27,39.13ZM304.96,-112.85L329.35,-103.77L344.42,-69.90L338.87,-33.51L316.52,-18.70L291.87,-27.74L278.28,-61.78L283.22,-98.11Z" fill="#ffffff" stroke="#000000"/>
    <path d="M-723.61,-71.11L-669.18,-78.76L-612.22,-107.98L-601.14,-172.42L-630.85,-231.25L-695.19,-242.33L-746.66,-235.09ZM-704.66,-93.28L-722.30,-218.78L-692.46,-222.97L-647.19,-216.50L-623.93,-169.43L-631.49,-118.71L-674.14,-97.57ZM-543.78,-119.35L-560.15,-149.10L-472.23,-161.48L-472.25,-169.84L-491.91,-211.32L-535.47,-223.17L-573.28,-200.57L-581.78,-151.52L-560.09,-106.71L-517.52,-95.40L-485.08,-110.15L-472.94,-136.76L-490.30,-144.48L-499.87,-122.47L-518.81,-113.00ZM-561.77,-165.62L-552.72,-194.54L-533.05,-205.77L-508.42,-199.16L-495.49,-174.93ZM-434.40,-149.17L-450.68,-138.58L-435.81,-116.97L-399.32,-111.89L-367.01,-124.93L-355.66,-155.45L-368.29,-178.46L-389.68,-185.91L-418.34,-189.49L-434.55,-193.49L-440.91,-202.24L-435.97,-214.85L-417.25,-221.85L-397.97,-219.40L-387.87,-205.45L-371.77,-216.00L-384.59,-234.43L-418.93,-239.46L-450.42,-226.48L-460.60,-197.12L-448.44,-176.66L-426.51,-169.74L-396.24,-166.12L-381.52,-161.15L-376.35,-150.69L-383.56,-135.65L-401.08,-129.46L-423.86,-133.56ZM-333.23,-266.94L-326.96,-276.09L-328.57,-287.67L-337.29,-294.91L-347.82,-293.43L-354.01,-284.12L-352.39,-272.55L-343.76,-265.46ZM-308.86,-129.39L-325.50,-247.83L-346.00,-244.95L-329.36,-126.51ZM-227.67,-90.28L-187.74,-114.04L-183.08,-154.97L-198.64,-265.66L-216.86,-263.10L-214.62,-247.16L-230.17,-260.40L-251.76,-263.41L-287.71,-240.18L-294.58,-192.24L-274.76,-148.06L-233.81,-135.64L-216.08,-142.59L-204.25,-156.87L-203.09,-148.17L-206.61,-120.64L-229.67,-108.01L-249.38,-110.69L-259.10,-125.70L-274.44,-115.88L-261.05,-95.54ZM-248.15,-246.14L-223.87,-237.58L-208.38,-204.34L-213.24,-168.25L-235.09,-153.22L-259.63,-161.73L-273.66,-195.17L-269.39,-231.18ZM-152.72,-151.34L-132.22,-154.22L-141.28,-218.68L-136.67,-250.36L-114.98,-264.13L-94.53,-257.95L-85.61,-234.86L-75.40,-162.20L-54.90,-165.09L-65.12,-237.74L-77.95,-272.77L-113.29,-282.38L-134.74,-274.39L-148.52,-255.28L-150.92,-272.37L-169.37,-269.77ZM-29.63,-309.61L-23.36,-318.76L-24.97,-330.34L-33.69,-337.58L-44.22,-336.10L-50.40,-326.79L-48.78,-315.22L-40.16,-308.13ZM-5.25,-172.06L-21.90,-290.50L-42.40,-287.62L-25.75,-169.18ZM23.79,-176.15L44.29,-179.03L35.23,-243.48L39.84,-275.16L61.54,-288.94L81.99,-282.75L90.90,-259.67L101.11,-187.01L121.61,-189.89L111.40,-262.55L98.56,-297.58L63.22,-307.19L41.77,-299.20L28.00,-280.09L25.60,-297.17L7.15,-294.58ZM202.35,-150.71L242.27,-174.48L246.93,-215.40L231.37,-326.09L213.15,-323.53L215.39,-307.59L199.85,-320.83L178.25,-323.84L142.31,-300.61L135.43,-252.68L155.25,-208.50L196.21,-196.07L213.93,-203.02L225.76,-217.30L226.92,-208.60L223.40,-181.08L200.35,-168.45L180.63,-171.13L170.91,-186.14L155.57,-176.32L168.97,-155.97ZM181.86,-306.57L206.15,-298.02L221.64,-264.77L216.77,-228.68L194.92,-213.65L170.38,-222.16L156.36,-255.60L160.62,-291.62ZM337.30,-361.17L343.57,-370.32L341.96,-381.91L333.24,-389.15L322.71,-387.67L316.52,-378.36L318.14,-366.78L326.77,-359.69ZM361.67,-223.63L345.03,-342.07L324.53,-339.19L341.17,-220.75ZM398.52,-266.23L382.25,-255.64L397.11,-234.03L433.61,-228.94L465.92,-241.99L477.26,-272.51L464.64,-295.52L443.25,-302.97L414.59,-306.55L398.37,-310.54L392.01,-319.30L396.96,-331.90L415.68,-338.91L434.96,-336.45L445.05,-322.51L461.15,-333.06L448.34,-351.49L414.00,-356.52L382.51,-343.54L372.32,-314.18L384.48,-293.71L406.41,-286.80L436.68,-283.18L451.40,-278.20L456.58,-267.75L449.36,-252.71L431.85,-246.51L409.07,-250.62ZM-489.70,105.06L-435.27,97.41L-378.31,68.18L-367.23,3.74L-396.94,-55.09L-461.28,-66.17L-512.75,-58.93ZM-470.76,82.88L-488.39,-42.61L-458.56,-46.81L-413.29,-40.34L-390.02,6.73L-397.58,57.45L-440.24,78.59ZM-309.87,56.81L-326.24,27.06L-238.33,14.68L-238.34,6.32L-258.00,-35.16L-301.57,-47.01L-339.37,-24.41L-347.87,24.64L-326.18,69.45L-283.61,80.76L-251.18,66.01L-239.03,39.40L-256.39,31.68L-265.96,53.69L-284.90,63.16ZM-327.86,10.54L-318.81,-18.38L-299.14,-29.61L-274.51,-23.00L-261.58,1.23ZM-162.07,46.01L-187.67,38.53L-202.98,4.37L-197.68,-32.68L-175.13,-46.93L-155.59,-43.07L-141.31,-23.72L-124.90,-35.03L-143.68,-58.30L-177.58,-64.35L-215.39,-41.74L-223.90,7.31L-202.21,52.12L-159.62,63.42L-128.69,48.39L-117.20,21.46L-135.92,14.62L-144.36,36.95ZM-92.27,-91.77L-86.00,-100.92L-87.61,-112.50L-96.32,-119.74L-106.85,-118.26L-113.04,-108.95L-111.42,-97.38L-102.79,-90.29ZM-67.89,45.77L-84.54,-72.66L-105.03,-69.78L-88.39,48.65ZM34.33,-135.82L13.83,-132.94L21.97,-75.07L7.48,-85.00L-12.18,-87.08L-48.13,-63.84L-55.01,-15.91L-35.19,28.27L5.78,40.69L25.10,32.35L36.89,14.56L39.16,30.73L57.38,28.17ZM-8.55,-69.83L16.59,-61.39L31.20,-28.03L25.48,8.19L4.51,23.09L-20.06,14.59L-34.09,-18.85L-29.82,-54.87ZM83.11,-116.42L89.38,-125.57L87.77,-137.15L79.05,-144.39L68.52,-142.91L62.33,-133.60L63.96,-122.03L72.58,-114.94ZM107.49,21.13L90.84,-97.31L70.34,-94.43L86.99,24.01ZM136.53,17.04L157.03,14.16L147.97,-50.29L152.58,-81.97L174.27,-95.75L194.72,-89.56L203.64,-66.48L213.85,6.18L234.35,3.30L224.14,-69.36L211.30,-104.39L175.96,-114.00L154.51,-106.01L140.74,-86.90L138.33,-103.98L119.89,-101.39ZM315.09,42.48L355.01,18.71L359.67,-22.21L344.11,-132.90L325.89,-130.34L328.13,-114.40L312.59,-127.64L290.99,-130.65L255.04,-107.42L248.17,-59.49L267.99,-15.31L308.95,-2.88L326.67,-9.83L338.50,-24.11L339.66,-15.41L336.14,12.11L313.09,24.74L293.37,22.06L283.65,7.05L268.31,16.87L281.71,37.22ZM294.60,-113.38L318.89,-104.83L334.37,-71.58L329.51,-35.49L307.66,-20.46L283.12,-28.97L269.09,-62.41L273.36,-98.43Z" fill="#ffffff" stroke="#000000"/>
    <path d="M-721.83,-54.28L-668.13,-62.79L-612.30,-92.67L-602.45,-156.59L-632.86,-214.26L-696.67,-224.11L-747.46,-216.06ZM-703.47,-76.54L-723.08,-200.34L-693.65,-205.01L-648.76,-199.40L-624.94,-153.24L-631.55,-102.95L-673.37,-81.30ZM-544.81,-105.10L-561.51,-134.24L-474.78,-148.00L-474.94,-156.26L-495.10,-196.95L-538.39,-207.92L-575.39,-184.91L-582.95,-136.25L-560.72,-92.32L-518.43,-81.87L-486.61,-97.01L-475.06,-123.54L-492.36,-130.87L-501.44,-108.94L-520.00,-99.25ZM-563.41,-150.55L-554.95,-179.30L-535.69,-190.75L-511.22,-184.64L-498.02,-160.90ZM-437.16,-136.47L-453.07,-125.72L-437.99,-104.61L-401.81,-100.21L-370.09,-113.67L-359.39,-144.05L-372.27,-166.59L-393.56,-173.58L-421.96,-176.63L-438.07,-180.30L-444.51,-188.85L-439.84,-201.40L-421.44,-208.65L-402.34,-206.56L-392.11,-192.94L-376.37,-203.65L-389.36,-221.66L-423.41,-226.04L-454.33,-212.66L-463.89,-183.45L-451.51,-163.42L-429.71,-156.96L-399.71,-153.90L-385.06,-149.23L-379.76,-138.98L-386.64,-123.98L-403.86,-117.56L-426.46,-121.22ZM-339.14,-254.69L-333.09,-263.85L-334.88,-275.28L-343.63,-282.29L-354.02,-280.64L-359.98,-271.33L-358.18,-259.91L-349.52,-253.05ZM-312.65,-119.09L-331.16,-235.93L-351.38,-232.73L-332.88,-115.88ZM-231.68,-81.80L-192.61,-105.99L-188.71,-146.55L-206.00,-255.75L-223.98,-252.91L-221.49,-237.18L-237.09,-250.01L-258.50,-252.61L-293.65,-229.01L-299.62,-181.49L-279.26,-138.14L-238.54,-126.56L-221.13,-133.74L-209.68,-148.06L-208.38,-139.48L-211.38,-112.20L-233.97,-99.31L-253.51,-101.62L-263.38,-116.30L-278.39,-106.32L-264.79,-86.43ZM-254.63,-235.59L-230.47,-227.55L-214.58,-194.94L-218.76,-159.16L-240.11,-143.92L-264.53,-151.91L-278.98,-184.74L-275.38,-220.44ZM-158.62,-143.48L-138.40,-146.69L-148.47,-210.28L-144.45,-241.69L-123.24,-255.68L-102.91,-249.92L-93.69,-227.24L-82.34,-155.56L-62.11,-158.77L-73.47,-230.45L-86.77,-264.87L-121.88,-273.76L-142.96,-265.49L-156.25,-246.36L-158.92,-263.21L-177.12,-260.33ZM-39.61,-302.13L-33.57,-311.29L-35.36,-322.72L-44.11,-329.73L-54.50,-328.08L-60.46,-318.77L-58.65,-307.35L-50.00,-300.49ZM-13.13,-166.53L-31.64,-283.37L-51.86,-280.17L-33.35,-163.32ZM15.52,-171.06L35.75,-174.27L25.67,-237.86L29.69,-269.27L50.90,-283.26L71.24,-277.50L80.45,-254.82L91.80,-183.15L112.03,-186.35L100.67,-258.03L87.37,-292.45L52.26,-301.34L31.18,-293.07L17.89,-273.94L15.22,-290.79L-2.98,-287.91ZM192.55,-148.99L231.62,-173.19L235.52,-213.74L218.23,-322.94L200.25,-320.10L202.74,-304.37L187.14,-317.20L165.73,-319.80L130.58,-296.20L124.61,-248.68L144.98,-205.33L185.70,-193.75L203.11,-200.93L214.55,-215.26L215.85,-206.67L212.85,-179.39L190.27,-166.50L170.72,-168.81L160.85,-183.49L145.85,-173.51L159.45,-153.62ZM169.60,-302.78L193.77,-294.74L209.66,-262.13L205.47,-226.35L184.12,-211.11L159.71,-219.10L145.25,-251.93L148.85,-287.63ZM322.38,-359.47L328.42,-368.62L326.63,-380.05L317.88,-387.06L307.49,-385.42L301.53,-376.10L303.34,-364.68L311.99,-357.82ZM348.86,-223.86L330.35,-340.70L310.13,-337.50L328.64,-220.66ZM384.57,-266.62L368.66,-255.87L383.73,-234.75L419.91,-230.36L451.64,-243.81L462.33,-274.20L449.45,-296.73L428.17,-303.73L399.76,-306.78L383.65,-310.45L377.21,-319.00L381.89,-331.55L400.28,-338.80L419.39,-336.70L429.61,-323.08L445.36,-333.80L432.36,-351.81L398.32,-356.19L367.39,-342.81L357.83,-313.59L370.21,-293.56L392.02,-287.10L422.02,-284.05L436.66,-279.38L441.96,-269.13L435.08,-254.13L417.87,-247.70L395.27,-251.37ZM-487.46,115.90L-433.76,107.40L-377.93,77.51L-368.08,13.59L-398.49,-44.08L-462.30,-53.92L-513.08,-45.88ZM-469.10,93.65L-488.71,-30.16L-459.28,-34.83L-414.39,-29.21L-390.57,16.94L-397.18,67.23L-438.99,88.88ZM-310.44,65.08L-327.14,35.94L-240.41,22.18L-240.57,13.92L-260.73,-26.77L-304.02,-37.74L-341.02,-14.73L-348.58,33.93L-326.35,77.87L-284.06,88.32L-252.23,73.17L-240.68,46.64L-257.99,39.31L-267.07,61.24L-285.63,70.94ZM-329.03,19.64L-320.58,-9.12L-301.32,-20.57L-276.85,-14.46L-263.65,9.28ZM-164.45,51.85L-189.90,44.89L-205.63,11.38L-201.03,-25.36L-178.97,-39.84L-159.58,-36.36L-145.12,-17.46L-129.10,-28.94L-148.07,-51.62L-181.69,-57.02L-218.70,-34.01L-226.27,14.64L-204.05,58.58L-161.73,69.03L-131.40,53.63L-120.50,26.79L-139.13,20.36L-147.09,42.59ZM-97.80,-85.61L-91.76,-94.77L-93.55,-106.20L-102.30,-113.21L-112.68,-111.56L-118.64,-102.25L-116.84,-90.83L-108.19,-83.97ZM-71.32,49.99L-89.82,-66.85L-110.05,-63.65L-91.54,53.19ZM26.64,-131.37L6.42,-128.16L15.46,-71.07L0.96,-80.65L-18.51,-82.36L-53.67,-58.76L-59.65,-11.23L-39.28,32.12L1.45,43.70L20.41,35.11L31.76,17.31L34.29,33.27L52.27,30.42ZM-14.62,-65.36L10.38,-57.45L25.41,-24.71L20.38,11.21L-0.10,26.31L-24.55,18.32L-39.01,-14.50L-35.41,-50.20ZM75.22,-113.02L81.26,-122.17L79.47,-133.60L70.72,-140.61L60.33,-138.97L54.38,-129.65L56.18,-118.23L64.83,-111.37ZM101.70,22.59L83.19,-94.25L62.97,-91.05L81.48,25.79ZM130.35,18.05L150.58,14.85L140.51,-48.74L144.52,-80.15L165.74,-94.15L186.07,-88.39L195.28,-65.71L206.64,5.97L226.86,2.77L215.51,-68.91L202.21,-103.34L167.09,-112.23L146.01,-103.96L132.72,-84.82L130.05,-101.68L111.85,-98.79ZM307.38,40.12L346.46,15.93L350.36,-24.63L333.06,-133.83L315.08,-130.98L317.58,-115.25L301.97,-128.08L280.56,-130.69L245.41,-107.09L239.44,-59.57L259.81,-16.21L300.53,-4.63L317.94,-11.81L329.39,-26.14L330.69,-17.56L327.68,9.73L305.10,22.62L285.55,20.31L275.68,5.63L260.68,15.61L274.28,35.49ZM284.43,-113.67L308.60,-105.63L324.49,-73.02L320.30,-37.24L298.95,-22.00L274.54,-29.99L260.09,-62.82L263.68,-98.51Z" fill="#ffffff" stroke="#000000"/>
    <path d="M-719.58,-37.62L-666.62,-46.96L-611.93,-77.48L-603.30,-140.85L-634.36,-197.35L-697.63,-205.99L-747.71,-197.16ZM-701.81,-59.94L-723.34,-182.04L-694.31,-187.15L-649.83,-182.38L-625.48,-137.15L-631.14,-87.31L-672.12,-65.18ZM-545.41,-90.93L-562.42,-119.46L-476.90,-134.56L-477.20,-142.73L-497.84,-182.61L-540.83,-192.71L-577.02,-169.32L-583.66,-121.08L-560.92,-78.01L-518.91,-68.41L-487.71,-83.94L-476.74,-110.37L-493.98,-117.32L-502.59,-95.48L-520.77,-85.57ZM-564.58,-135.55L-556.71,-164.13L-537.87,-175.79L-513.56,-170.16L-500.10,-146.92ZM-439.49,-123.81L-455.04,-112.91L-439.77,-92.28L-403.92,-88.56L-372.77,-102.41L-362.72,-132.65L-375.85,-154.71L-397.02,-161.26L-425.16,-163.79L-441.15,-167.13L-447.67,-175.48L-443.26,-187.97L-425.20,-195.46L-406.27,-193.72L-395.92,-180.42L-380.54,-191.29L-393.70,-208.87L-427.44,-212.62L-457.79,-198.85L-466.74,-169.80L-454.15,-150.21L-432.48,-144.19L-402.76,-141.69L-388.20,-137.33L-382.78,-127.28L-389.32,-112.33L-406.24,-105.68L-428.65,-108.92ZM-344.60,-242.41L-338.79,-251.56L-340.75,-262.84L-349.53,-269.62L-359.77,-267.81L-365.50,-258.49L-363.52,-247.24L-354.85,-240.60ZM-316.08,-108.77L-336.39,-223.99L-356.34,-220.47L-336.02,-105.25ZM-235.36,-73.30L-197.14,-97.89L-193.98,-138.06L-212.97,-245.75L-230.70,-242.63L-227.96,-227.12L-243.61,-239.53L-264.83,-241.74L-299.18,-217.80L-304.26,-170.70L-283.38,-128.18L-242.91,-117.43L-225.82,-124.83L-214.75,-139.20L-213.31,-130.73L-215.82,-103.70L-237.92,-90.57L-257.29,-92.51L-267.30,-106.86L-281.97,-96.73L-268.18,-77.30ZM-260.71,-224.98L-236.68,-217.44L-220.40,-185.47L-223.92,-150.01L-244.77,-134.57L-269.05,-142.06L-283.91,-174.27L-280.97,-209.63ZM-164.18,-135.55L-144.23,-139.07L-155.29,-201.77L-151.86,-232.91L-131.13,-247.11L-110.92,-241.76L-101.42,-219.50L-88.95,-148.81L-69.01,-152.33L-81.48,-223.02L-95.22,-256.83L-130.10,-265.01L-150.80,-256.47L-163.62,-237.32L-166.55,-253.94L-184.49,-250.77ZM-49.23,-294.49L-43.42,-303.65L-45.39,-314.92L-54.16,-321.70L-64.40,-319.89L-70.13,-310.58L-68.15,-299.32L-59.48,-292.68ZM-20.71,-160.85L-41.02,-276.07L-60.97,-272.55L-40.65,-157.33ZM7.55,-165.83L27.49,-169.35L16.43,-232.05L19.86,-263.19L40.60,-277.39L60.80,-272.04L70.31,-249.78L82.77,-179.09L102.71,-182.61L90.25,-253.29L76.50,-287.10L41.63,-295.29L20.93,-286.75L8.11,-267.60L5.18,-284.22L-12.77,-281.05ZM182.98,-147.06L221.21,-171.66L224.36,-211.83L205.37,-319.52L187.65,-316.39L190.38,-300.88L174.73,-313.30L153.52,-315.50L119.17,-291.56L114.08,-244.46L134.97,-201.95L175.43,-191.20L192.53,-198.60L203.60,-212.96L205.03,-204.50L202.53,-177.47L180.42,-164.33L161.06,-166.28L151.04,-180.62L136.38,-170.50L150.17,-151.07ZM157.64,-298.74L181.67,-291.21L197.95,-259.23L194.43,-223.78L173.58,-208.34L149.30,-215.82L134.44,-248.03L137.38,-283.40ZM307.73,-357.43L313.55,-366.59L311.58,-377.86L302.81,-384.64L292.57,-382.83L286.83,-373.52L288.81,-362.26L297.49,-355.62ZM336.26,-223.79L315.94,-339.01L296.00,-335.50L316.32,-220.27ZM370.83,-266.69L355.28,-255.79L370.55,-235.16L406.41,-231.44L437.55,-245.30L447.60,-275.53L434.47,-297.59L413.30,-304.14L385.16,-306.67L369.17,-310.02L362.66,-318.36L367.06,-330.85L385.13,-338.34L404.06,-336.60L414.40,-323.30L429.79,-334.17L416.62,-351.75L382.88,-355.50L352.54,-341.74L343.58,-312.68L356.17,-293.09L377.85,-287.07L407.56,-284.57L422.13,-280.21L427.54,-270.16L421.00,-255.21L404.09,-248.56L381.68,-251.80ZM-484.88,126.62L-431.92,117.28L-377.23,86.77L-368.60,23.39L-399.66,-33.11L-462.93,-41.75L-513.01,-32.92ZM-467.11,104.30L-488.64,-17.80L-459.61,-22.91L-415.13,-18.14L-390.78,27.09L-396.44,76.93L-437.42,99.06ZM-310.71,73.31L-327.73,44.78L-242.20,29.68L-242.50,21.51L-263.14,-18.37L-306.13,-28.47L-342.32,-5.08L-348.96,43.16L-326.22,86.23L-284.22,95.83L-253.01,80.31L-242.05,53.87L-259.28,46.92L-267.89,68.76L-286.08,78.67ZM-329.88,28.69L-322.01,0.11L-303.17,-11.54L-278.87,-5.92L-265.40,17.32ZM-166.57,57.71L-191.86,51.27L-208.00,18.40L-204.08,-18.01L-182.52,-32.71L-163.28,-29.60L-148.66,-11.17L-133.01,-22.79L-152.16,-44.90L-185.50,-49.65L-221.70,-26.26L-228.35,21.98L-205.62,65.05L-163.59,74.65L-133.86,58.90L-123.55,32.17L-142.08,26.13L-149.57,48.25ZM-103.04,-79.38L-97.22,-88.54L-99.19,-99.81L-107.96,-106.59L-118.20,-104.78L-123.94,-95.46L-121.96,-84.21L-113.28,-77.57ZM-74.51,54.26L-94.83,-60.96L-114.77,-57.44L-94.45,57.78ZM19.23,-126.77L-0.71,-123.25L9.21,-66.95L-5.29,-76.17L-24.58,-77.52L-58.93,-53.58L-64.03,-6.48L-43.13,36.03L-2.66,46.78L15.94,37.96L26.86,20.17L29.63,35.90L47.36,32.77ZM-20.44,-60.78L4.43,-53.39L19.85,-21.27L15.49,14.33L-4.50,29.62L-28.81,22.14L-43.67,-10.07L-40.73,-45.43ZM67.58,-109.46L73.40,-118.62L71.43,-129.89L62.66,-136.67L52.41,-134.86L46.68,-125.55L48.66,-114.29L57.34,-107.65ZM96.11,24.18L75.79,-91.04L55.85,-87.53L76.17,27.69ZM124.37,19.20L144.31,15.68L133.25,-47.03L136.68,-78.16L157.42,-92.36L177.62,-87.02L187.12,-64.75L199.59,5.93L219.53,2.42L207.07,-68.27L193.32,-102.08L158.44,-110.27L137.74,-101.72L124.93,-82.57L122.00,-99.19L104.05,-96.03ZM299.80,37.97L338.02,13.37L341.18,-26.80L322.19,-134.49L304.46,-131.36L307.20,-115.85L291.55,-128.27L270.33,-130.48L235.98,-106.53L230.90,-59.44L251.78,-16.92L292.25,-6.17L309.34,-13.57L320.42,-27.94L321.85,-19.47L319.35,7.56L297.24,20.70L277.87,18.75L267.86,4.40L253.19,14.53L266.99,33.96ZM274.45,-113.71L298.49,-106.18L314.76,-74.21L311.24,-38.75L290.39,-23.31L266.11,-30.80L251.26,-63.01L254.20,-98.37Z" fill="#ffffff" stroke="#000000"/>
    <path d="M-906.35,492L-906.35,469.28L-898.22,492L-894.99,492L-886.86,469.28L-886.86,492L-883.25,492L-883.25,464.64L-888.22,464.64L-896.55,487.33L-904.68,464.64L-909.96,464.64L-909.96,492ZM-865.67,478.75L-876.82,482.17L-879.09,486.89L-877.05,491.38L-872.23,492.78L-868.69,492.09L-865.45,489.71L-865.46,492L-862.27,492L-862.27,479.25L-864.06,473.45L-869.98,471.46L-875.30,472.76L-877.88,476.62L-875.17,478.28L-873.43,475.28L-870.33,474.25L-867.00,475.23ZM-865.67,481.77L-865.68,486.77L-868.09,488.89L-871.68,489.99L-874.26,489.33L-875.44,486.74L-873.91,484.05ZM-857.12,492L-853.70,492L-853.70,481.25L-852.22,476.17L-848.35,474.41L-845.15,475.90L-844.22,479.88L-844.22,492L-840.80,492L-840.80,479.88L-842.09,473.85L-847.66,471.47L-851.35,472.28L-854.04,475.09L-854.04,472.24L-857.12,472.24ZM-833.34,468.94L-832.11,467.58L-832.10,465.65L-833.36,464.27L-835.12,464.27L-836.35,465.65L-836.35,467.58L-835.10,468.94ZM-832.52,492L-832.52,472.24L-835.94,472.24L-835.94,492ZM-818.31,468.12L-817.85,465.29L-820.94,464.71L-825.30,466.41L-826.70,471.29L-826.70,472.24L-829.67,472.24L-829.67,474.86L-826.70,474.86L-826.70,492L-823.40,492L-823.40,474.86L-819.56,474.86L-819.56,472.24L-823.40,472.24L-823.40,471.21L-822.75,468.65L-820.52,467.74ZM-807.97,471.46L-814.77,474.29L-817.39,482.12L-814.77,489.95L-807.97,492.78L-801.17,489.95L-798.55,482.12L-801.16,474.29ZM-807.97,489.87L-812.08,488.06L-813.90,482.12L-812.08,476.18L-807.97,474.37L-803.85,476.18L-802.04,482.12L-803.85,488.06ZM-795.03,492L-791.61,492L-791.61,481.25L-790.13,476.17L-786.26,474.41L-783.06,475.90L-782.13,479.88L-782.13,492L-778.71,492L-778.71,479.88L-780.00,473.85L-785.56,471.47L-789.26,472.28L-791.95,475.09L-791.95,472.24L-795.03,472.24ZM-765.45,492.27L-765.45,492.26L-765.85,489.32L-767.38,489.55L-769.03,488.71L-769.32,486.22L-769.32,474.86L-765.94,474.86L-765.94,472.24L-769.32,472.24L-769.32,465.40L-772.74,465.40L-772.74,472.24L-775.55,472.24L-775.55,474.86L-772.74,474.86L-772.74,486.22L-771.96,491.00L-768.07,492.63ZM-737.50,487.93L-737.50,478.13L-749.05,478.13L-749.05,481.31L-740.99,481.31L-740.97,486.22L-748.63,489.75L-755.95,486.41L-758.55,478.32L-756.06,470.17L-749.21,466.88L-744.27,468.25L-741.30,473.01L-738.24,471.11L-741.44,465.93L-749.13,463.79L-758.98,468.04L-762.42,478.32L-758.78,488.60L-748.74,492.86ZM-724.35,474.77L-721.78,475.62L-720.76,472.73L-724.11,471.47L-727.37,472.48L-729.65,475.66L-729.65,472.24L-732.73,472.24L-732.73,491.81L-729.31,492L-729.31,481.32L-728.06,476.56ZM-710.01,471.46L-716.81,474.29L-719.42,482.12L-716.81,489.95L-710.01,492.78L-703.20,489.95L-700.58,482.12L-703.20,474.29ZM-710.01,489.87L-714.12,488.06L-715.93,482.12L-714.12,476.18L-710.01,474.37L-705.89,476.18L-704.07,482.12L-705.89,488.06ZM-688.58,492.27L-688.58,492.26L-688.97,489.32L-690.51,489.55L-692.15,488.71L-692.45,486.22L-692.45,474.86L-689.07,474.86L-689.07,472.24L-692.45,472.24L-692.45,465.40L-695.87,465.40L-695.87,472.24L-698.68,472.24L-698.68,474.86L-695.87,474.86L-695.87,486.22L-695.09,491.00L-691.19,492.63ZM-680.57,488.24L-682.57,483.00L-667.90,482.99L-667.71,481.63L-669.97,474.39L-676.83,471.45L-683.53,474.28L-686.05,482.11L-683.53,489.93L-676.83,492.76L-671.18,491.10L-668.58,487.02L-671.25,485.36L-673.32,488.74L-676.63,489.86ZM-682.45,480.26L-680.31,475.73L-676.83,474.35L-672.95,476.00L-671.40,480.26ZM-661.99,485.88L-664.90,487.24L-662.96,491.11L-657.11,492.78L-651.52,491.39L-648.97,486.66L-650.50,482.61L-653.83,480.90L-658.44,479.65L-661.00,478.62L-661.84,477.05L-660.74,475.10L-657.52,474.38L-654.42,475.23L-653.09,477.74L-650.21,476.38L-651.88,473.07L-657.39,471.46L-662.84,472.86L-665.18,477.43L-663.66,481.06L-660.23,482.69L-655.36,483.98L-653.07,485.13L-652.46,486.96L-653.99,489.26L-656.99,489.87L-660.63,488.67ZM-641.92,483.45L-638.72,483.45L-637.20,484.67L-633.14,492.30L-630.05,490.63L-634.16,483.45L-636.67,482.04L-634.62,480.06L-632.77,476.14L-631.66,475.64L-630.10,475.39L-630.56,472.24L-633.40,472.52L-635.30,474.17L-637.43,478.82L-638.72,480.60L-641.91,480.60L-641.91,464.64L-643.66,464.64L-645.32,464.64L-645.33,492L-641.92,492ZM-625.58,492.01L-615.04,492.01L-607.42,490.45L-604.53,484.21L-606.06,480.03L-610.31,477.70L-606.80,475.27L-605.82,471.62L-608.58,466.13L-615.58,464.63L-625.58,464.63ZM-621.94,476.42L-621.95,467.89L-616.40,467.89L-611.64,468.44L-609.62,472.08L-611.57,475.51L-615.93,476.42ZM-621.94,488.79L-621.94,479.64L-615.54,479.64L-610.64,480.53L-608.45,484.21L-610.32,488.02L-615.04,488.79ZM-592.40,471.46L-599.20,474.29L-601.81,482.12L-599.20,489.95L-592.40,492.78L-585.59,489.95L-582.97,482.12L-585.59,474.29ZM-592.40,489.87L-596.51,488.06L-598.32,482.12L-596.51,476.18L-592.40,474.37L-588.28,476.18L-586.46,482.12L-588.28,488.06ZM-571.27,471.46L-578.07,474.29L-580.68,482.12L-578.07,489.95L-571.27,492.78L-564.46,489.95L-561.85,482.12L-564.46,474.29ZM-571.27,489.87L-575.38,488.06L-577.19,482.12L-575.38,476.18L-571.27,474.37L-567.15,476.18L-565.33,482.12L-567.15,488.06ZM-554.82,483.45L-551.62,483.45L-550.10,484.67L-546.04,492.30L-542.96,490.63L-547.06,483.45L-549.57,482.04L-547.52,480.06L-545.67,476.14L-544.56,475.64L-543.00,475.39L-543.46,472.24L-546.31,472.52L-548.20,474.17L-550.34,478.82L-551.62,480.60L-554.82,480.60L-554.82,464.64L-556.56,464.64L-558.23,464.64L-558.23,492L-554.82,492Z"/>
</svg>