<?xml version="1.0"?>
<svg xmlns="http://www.w3.org/2000/svg" width="1920" height="1080" viewBox="-960 -540 1920 1080">
    <path d="M-866.90,-268.90L-887.76,-259.96L-868.82,-220.04L-814.32,-204.39L-768.35,-217.62L-746.70,-258.95L-759.23,-291.21L-791.84,-308.15L-843.50,-323.54L-856.18,-332.18L-860.41,-345.15L-847.32,-368.22L-819.89,-375.23L-788.97,-365.17L-776.79,-337.49L-755.67,-345.64L-772.32,-381.80L-820.95,-395.62L-864.01,-382.72L-883.93,-343.62L-877.41,-319.20L-846.23,-299.75L-793.82,-284.97L-777.88,-273.77L-772.79,-257.68L-784.13,-233.87L-815.38,-224.78L-851.17,-235.85ZM-666.13,-345.13L-710.89,-326.51L-728.09,-275.00L-710.88,-223.49L-666.13,-204.88L-621.37,-223.50L-604.15,-275.00L-621.36,-326.51ZM-666.13,-223.99L-693.19,-235.91L-705.13,-274.98L-693.18,-314.06L-666.13,-325.99L-639.05,-314.06L-627.09,-274.98L-639.05,-235.91ZM-500.63,-177L-507.88,-178.25L-511.89,-159.98L-497.63,-157.50L-473.08,-168.22L-458.31,-195.62L-406.63,-334.50L-425.88,-342L-463.61,-238.75L-502.13,-342L-522.38,-334.50L-474.10,-211.26L-479.25,-197.14L-488.88,-181.88ZM-332.63,-345.13L-377.39,-326.51L-394.59,-275.00L-377.38,-223.49L-332.63,-204.88L-287.87,-223.50L-270.65,-275.00L-287.86,-326.51ZM-332.63,-223.99L-359.69,-235.91L-371.63,-274.98L-359.68,-314.06L-332.63,-325.99L-305.55,-314.06L-293.59,-274.98L-305.55,-235.91ZM-140.26,-340L-162.76,-340L-162.76,-269.52L-172.50,-235.83L-197.92,-224.29L-219.01,-234.05L-225.13,-260.67L-225.13,-340L-247.63,-340L-247.63,-260.50L-239.14,-220.60L-202.54,-204.92L-178.24,-210.94L-160.51,-228.75L-160.51,-210L-140.26,-210ZM10.13,-210L37.13,-309.75L62.13,-210L84.88,-210L124.13,-336L104.88,-342L74.38,-239.75L48.13,-340L25.38,-340L-1.38,-237L-30.13,-342L-50.88,-336L-13.13,-210ZM223.48,-297.19L150.17,-274.70L135.25,-243.62L148.64,-214.10L180.36,-204.86L203.64,-209.38L224.97,-225.04L224.88,-210L245.88,-210L245.91,-293.86L234.07,-332.03L195.16,-345.13L160.16,-336.58L143.15,-311.21L161.00,-300.24L172.45,-320.00L192.87,-326.75L214.75,-320.35ZM223.48,-277.30L223.46,-244.38L207.55,-230.45L183.96,-223.21L167.02,-227.60L159.23,-244.62L169.27,-262.29ZM279.76,-210L302.26,-210L302.26,-280.75L312.01,-314.15L337.44,-325.70L358.52,-315.95L364.63,-289.75L364.63,-210L387.13,-210L387.13,-289.75L378.61,-329.40L342.02,-345.09L317.72,-339.73L300.01,-321.25L300.01,-340L279.76,-340ZM474.32,-208.26L474.33,-208.26L471.73,-227.65L461.65,-226.14L450.81,-231.63L448.88,-248L448.88,-322.75L471.13,-322.75L471.13,-340L448.88,-340L448.88,-385L426.38,-385L426.38,-340L407.88,-340L407.88,-322.75L426.38,-322.75L426.38,-248L431.51,-216.61L457.13,-205.85ZM624.32,-208.26L624.33,-208.26L621.73,-227.65L611.65,-226.14L600.81,-231.63L598.88,-248L598.88,-322.75L621.13,-322.75L621.13,-340L598.88,-340L598.88,-385L576.38,-385L576.38,-340L557.88,-340L557.88,-322.75L576.38,-322.75L576.38,-248L581.51,-216.61L607.13,-205.85ZM702.87,-345.13L658.11,-326.51L640.91,-275.00L658.12,-223.49L702.87,-204.88L747.63,-223.50L764.85,-275.00L747.64,-326.51ZM702.87,-223.99L675.81,-235.91L663.87,-274.98L675.82,-314.06L702.87,-325.99L729.95,-314.06L741.91,-274.98L729.95,-235.91ZM-728.38,-165L-750.88,-165L-750.88,15L-730.88,15L-730.88,-2.50L-716.58,14.40L-694.10,20.59L-651.90,1.02L-637.23,-49.53L-651.90,-100.09L-694.10,-119.66L-714.24,-114.85L-728.38,-101.25ZM-695.40,1.47L-720.23,-11.40L-731.89,-49.51L-721.19,-87.64L-695.40,-100.52L-670.25,-87.64L-660.21,-49.51L-670.25,-11.40ZM-586.01,-9.73L-599.12,-44.23L-502.63,-44.25L-501.38,-53.25L-516.26,-100.87L-561.36,-120.22L-605.47,-101.61L-622.05,-50.10L-605.47,1.41L-561.36,20.03L-524.22,9.06L-507.13,-17.75L-524.64,-28.69L-538.28,-6.44L-560.09,0.89ZM-598.38,-62.25L-584.25,-92.01L-561.38,-101.13L-535.88,-90.28L-525.63,-62.25ZM-328.52,-72.19L-401.83,-49.70L-416.75,-18.62L-403.36,10.90L-371.64,20.14L-348.36,15.62L-327.03,-0.04L-327.13,15L-306.13,15L-306.09,-68.86L-317.93,-107.03L-356.84,-120.13L-391.84,-111.58L-408.85,-86.21L-391.00,-75.24L-379.55,-95.00L-359.13,-101.75L-337.25,-95.35ZM-328.52,-52.30L-328.54,-19.38L-344.45,-5.45L-368.04,1.79L-384.98,-2.60L-392.77,-19.62L-382.73,-37.29ZM-122.50,0.24L-167.53,-21.41L-181.93,-75.01L-166.56,-128.59L-122.50,-150.23L-87.23,-138.25L-70.50,-107.14L-49.32,-117.84L-71.40,-154.60L-122.50,-170.63L-186.01,-142.60L-207.43,-74.99L-186.01,-7.39L-122.50,20.63L-71.51,4.34L-49.83,-31.14L-70.50,-42.61L-88.93,-11.52ZM3.88,15L3.88,-165L-18.63,-165L-18.63,15ZM53.45,-136.74L61.58,-145.64L61.60,-158.35L53.31,-167.46L41.75,-167.46L33.68,-158.37L33.67,-145.67L41.89,-136.74ZM58.88,15L58.88,-115L36.38,-115L36.38,15ZM90.20,15L112.76,15L112.76,-52.25L118.89,-85.56L145.44,-100.70L163.02,-92.60L168.80,-70.03L168.80,15L191.30,15L191.30,-60.25L199.35,-88.68L224.23,-100.70L243.32,-90.47L247.63,-67.48L247.63,15L270.13,15L270.13,-75.50L260.07,-108.36L229.08,-120.09L205.62,-114.45L187.80,-94.75L174.67,-113.68L150.98,-119.97L127.37,-114.87L110.51,-96.50L110.51,-115L90.26,-115ZM380.48,-72.19L307.17,-49.70L292.25,-18.62L305.64,10.90L337.36,20.14L360.64,15.62L381.97,-0.04L381.88,15L402.88,15L402.91,-68.86L391.07,-107.03L352.16,-120.13L317.16,-111.58L300.15,-86.21L318.00,-75.24L329.45,-95.00L349.87,-101.75L371.75,-95.35ZM380.48,-52.30L380.46,-19.38L364.55,-5.45L340.96,1.79L324.02,-2.60L316.23,-19.62L326.27,-37.29ZM492.57,16.74L492.58,16.74L489.98,-2.65L479.90,-1.14L469.06,-6.63L467.13,-23L467.13,-97.75L489.38,-97.75L489.38,-115L467.13,-115L467.13,-160L444.63,-160L444.63,-115L426.13,-115L426.13,-97.75L444.63,-97.75L444.63,-23L449.76,8.39L475.38,19.15ZM545.24,-9.73L532.13,-44.23L628.63,-44.25L629.88,-53.25L614.99,-100.87L569.89,-120.22L525.78,-101.61L509.20,-50.10L525.78,1.41L569.89,20.03L607.03,9.06L624.13,-17.75L606.61,-28.69L592.97,-6.44L571.16,0.89ZM532.88,-62.25L547.00,-92.01L569.87,-101.13L595.37,-90.28L605.63,-62.25ZM-581.13,240L-521.38,240L-455.64,217.16L-433.97,149.48L-457.05,81.66L-524.63,60L-581.13,60ZM-557.38,219L-557.38,81.25L-524.63,81.25L-476.87,95.06L-458.95,149.24L-474.77,202.69L-523.88,219ZM-380.26,215.27L-393.37,180.77L-296.88,180.75L-295.63,171.75L-310.51,124.13L-355.61,104.78L-399.72,123.39L-416.30,174.90L-399.72,226.41L-355.61,245.03L-318.47,234.06L-301.38,207.25L-318.89,196.31L-332.53,218.56L-354.34,225.89ZM-392.63,162.75L-378.50,132.99L-355.63,123.87L-330.13,134.72L-319.88,162.75ZM-258.02,199.73L-277.13,208.66L-264.41,234.17L-225.89,245.16L-189.14,236.01L-172.31,204.87L-182.42,178.20L-204.32,166.94L-234.63,158.75L-251.47,152L-257.00,141.62L-249.76,128.79L-228.55,124.09L-208.18,129.65L-199.42,146.19L-180.49,137.26L-191.50,115.48L-227.70,104.87L-263.56,114.08L-278.96,144.15L-268.97,168.01L-246.41,178.78L-214.38,187.25L-199.28,194.83L-195.29,206.87L-205.34,221.97L-225.13,225.98L-249.03,218.12ZM-131.30,88.26L-123.17,79.36L-123.15,66.65L-131.44,57.54L-143.00,57.54L-151.07,66.63L-151.08,79.33L-142.86,88.26ZM-125.88,240L-125.88,110L-148.38,110L-148.38,240ZM-44.40,294.39L2.17,274.85L13.38,231.50L13.38,110L-6.63,110L-6.63,127.50L-21.35,110.89L-44.15,104.39L-86.35,123.96L-101,174.51L-86.35,225.06L-44.15,244.63L-24.01,239.83L-9.13,226.25L-9.19,235.79L-17.14,264.89L-43.87,275.00L-64.68,269.13L-72.88,251.50L-90.88,259.75L-79.53,283.67ZM-42.87,123.52L-18.02,136.41L-6.38,174.53L-17.08,212.65L-42.87,225.52L-68.00,212.65L-78.04,174.53L-68.00,136.41ZM45.51,240L68.01,240L68.01,169.25L77.76,135.85L103.19,124.30L124.27,134.05L130.38,160.25L130.38,240L152.88,240L152.88,160.25L144.36,120.60L107.77,104.91L83.47,110.27L65.76,128.75L65.76,110L45.51,110ZM212.24,215.27L199.13,180.77L295.63,180.75L296.88,171.75L281.99,124.13L236.89,104.78L192.78,123.39L176.20,174.90L192.78,226.41L236.89,245.03L274.03,234.06L291.13,207.25L273.61,196.31L259.97,218.56L238.16,225.89ZM199.88,162.75L214.00,132.99L236.87,123.87L262.37,134.72L272.63,162.75ZM375.98,126.66L392.88,132.25L399.63,113.25L377.60,104.91L356.12,111.57L341.13,132.50L341.13,110L320.88,110L320.88,238.73L343.38,240L343.38,169.75L351.60,138.41ZM475.29,243.14L484.16,234.11L484.10,221.41L475.14,212.47L462.55,212.54L453.68,221.56L453.74,234.26L462.70,243.20ZM457.28,196.95L479.08,196.95L479.08,190.06L482.44,171.86L494.60,156.92L516.36,135.90L526.47,105.91L510.34,68.40L467.81,54.41L429.58,68.69L414.78,102.10L433.90,110.76L445.23,83.50L468.02,74.80L492.00,82.14L502.19,107.44L495.55,128.12L480.48,142.88L462.58,163.03L457.28,190.06Z" fill="#ffffff" stroke="#000000"/>
    <path d="M-850.09,-305.66L-871.16,-297.84L-854.38,-257.44L-801.26,-239.30L-755.16,-250.12L-731.73,-289.93L-742.54,-322.44L-773.96,-340.79L-824.28,-358.53L-836.39,-367.70L-839.95,-380.73L-825.87,-402.90L-798.40,-408.49L-768.33,-397.03L-757.64,-369.07L-736.35,-376.09L-751.04,-412.65L-798.46,-428.71L-841.66,-418.06L-863.28,-380.37L-858.03,-355.90L-828.15,-335.15L-777.05,-317.96L-761.83,-306.11L-757.59,-289.95L-769.97,-266.97L-801.31,-259.51L-836.16,-272.20ZM-647.85,-371.20L-693.01,-354.98L-712.54,-304.89L-698.05,-253.12L-654.71,-232.52L-609.54,-248.74L-590.00,-298.82L-604.48,-350.60ZM-653.78,-251.42L-679.95,-264.53L-689.84,-303.75L-676.11,-341.81L-648.78,-352.27L-622.59,-339.16L-612.68,-299.93L-626.42,-261.88ZM-492.43,-196.85L-499.53,-198.44L-504.40,-180.57L-490.42,-177.42L-465.62,-186.82L-449.68,-213.19L-391.77,-347.98L-410.44,-356.34L-452.80,-256.10L-485.83,-360.08L-506.22,-353.65L-464.52,-229.43L-470.30,-215.72L-480.58,-201.10ZM-318.09,-354.87L-363.25,-338.65L-382.78,-288.56L-368.29,-236.79L-324.95,-216.19L-279.78,-232.42L-260.23,-282.50L-274.72,-334.27ZM-324.02,-235.10L-350.19,-248.20L-360.08,-287.42L-346.35,-325.48L-319.02,-335.95L-292.83,-322.83L-282.92,-283.60L-296.66,-245.55ZM-128.12,-340.38L-150.37,-341.48L-153.82,-271.80L-165.10,-238.96L-190.80,-228.79L-211.18,-239.47L-215.92,-266.10L-212.03,-344.54L-234.28,-345.64L-238.17,-267.03L-231.74,-227.16L-196.32,-209.87L-172.00,-214.63L-153.59,-231.37L-154.50,-212.83L-134.48,-211.84ZM14.21,-204.48L45.79,-301.79L65.63,-201.93L88.13,-200.82L133.10,-323.48L114.36,-330.36L79.20,-230.75L58.15,-331.16L35.66,-332.27L4.16,-231.74L-19.12,-336.97L-39.93,-332.05L-8.78,-205.62ZM229.44,-280.24L155.85,-261.59L139.58,-231.59L151.37,-201.75L182.29,-191.06L205.53,-194.39L227.39,-208.83L226.56,-193.96L247.32,-192.94L251.46,-275.86L241.62,-314.17L203.79,-329.03L168.77,-322.29L150.70,-298.04L167.81,-286.32L180.10,-305.29L200.62,-310.98L221.95,-303.58ZM228.47,-260.57L226.84,-228.03L210.43,-215.03L186.74,-209.03L170.21,-214.20L163.34,-231.41L174.13,-248.39ZM280.82,-191.28L303.07,-190.18L306.53,-260.13L317.82,-292.68L343.53,-302.85L363.89,-292.18L368.64,-265.98L364.74,-187.12L386.99,-186.02L390.89,-264.88L384.41,-304.50L349.00,-321.80L324.71,-317.69L306.29,-300.29L307.21,-318.83L287.19,-319.82ZM473.12,-180.03L473.12,-180.03L471.51,-199.33L461.47,-198.33L451.02,-204.29L449.90,-220.57L453.56,-294.48L475.56,-293.39L476.41,-310.45L454.41,-311.54L456.61,-356.04L434.36,-357.14L432.16,-312.64L413.87,-313.55L413.02,-296.49L431.32,-295.58L427.66,-221.67L431.19,-190.38L456.00,-178.49ZM621.44,-172.68L621.44,-172.69L619.83,-191.99L609.79,-190.99L599.34,-196.95L598.22,-213.23L601.88,-287.14L623.88,-286.05L624.73,-303.11L602.73,-304.20L604.93,-348.69L582.68,-349.79L580.48,-305.30L562.19,-306.20L561.34,-289.15L579.63,-288.24L575.98,-214.33L579.51,-183.04L604.32,-171.15ZM705.80,-304.17L660.64,-287.96L641.11,-237.87L655.60,-186.09L698.94,-165.50L744.11,-181.72L763.66,-231.80L749.17,-283.58ZM699.87,-184.40L673.71,-197.51L663.81,-236.72L677.54,-274.78L704.87,-285.25L731.06,-272.13L740.97,-232.90L727.23,-194.86ZM-718.21,-196.14L-740.46,-197.24L-749.27,-19.26L-729.49,-18.28L-728.64,-35.58L-715.33,-18.17L-693.41,-10.95L-650.72,-28.23L-633.74,-77.50L-645.77,-128.21L-686.54,-149.62L-706.69,-145.86L-721.33,-133.10ZM-693.76,-29.92L-717.68,-43.86L-727.34,-82.12L-714.90,-119.29L-688.76,-130.77L-664.53,-116.80L-656.46,-78.61L-668.26,-41.41ZM-585.04,-35.64L-596.32,-70.39L-500.90,-65.69L-499.23,-74.53L-511.62,-122.35L-555.26,-143.68L-599.79,-127.44L-618.70,-77.32L-604.83,-25.57L-562.13,-5.01L-524.87,-14.04L-506.65,-39.71L-523.44,-51.38L-538.00,-30.05L-559.93,-23.87ZM-594.70,-88.17L-579.28,-116.91L-556.22,-124.80L-531.53,-112.84L-522.76,-84.61ZM-327.38,-84.79L-400.98,-66.14L-417.25,-36.14L-405.45,-6.29L-374.53,4.39L-351.30,1.06L-329.44,-13.37L-330.27,1.49L-309.51,2.52L-305.37,-80.40L-315.21,-118.72L-353.03,-133.58L-388.06,-126.84L-406.12,-102.59L-389.02,-90.87L-376.72,-109.84L-356.20,-115.52L-334.88,-108.12ZM-328.36,-65.12L-329.98,-32.58L-346.40,-19.58L-370.08,-13.57L-386.62,-18.74L-393.48,-35.96L-382.70,-52.93ZM-127.22,-3.09L-170.68,-26.70L-182.30,-80.40L-164.48,-132.63L-119.85,-151.87L-85.56,-138.30L-70.54,-106.71L-49.08,-116.26L-69.11,-153.69L-118.86,-172.04L-183.02,-147.44L-207.51,-81.63L-189.64,-13.74L-128.22,17.07L-77.00,3.47L-53.83,-30.56L-73.70,-42.91L-93.45,-13.07ZM-2.98,17.69L5.83,-160.29L-16.42,-161.39L-25.23,16.59ZM53.46,-129.91L61.94,-138.32L62.58,-150.88L54.83,-160.30L43.40,-160.87L34.98,-152.28L34.35,-139.72L42.03,-130.48ZM51.40,20.39L57.77,-108.16L35.52,-109.26L29.15,19.29ZM82.38,21.92L104.68,23.02L107.97,-43.47L115.67,-76.11L142.66,-89.77L159.65,-80.91L164.26,-58.31L160.10,25.77L182.35,26.87L186.03,-47.54L195.37,-75.26L220.57,-85.92L238.94,-74.87L242.07,-51.93L238.03,29.63L260.28,30.73L264.71,-58.76L256.38,-91.74L226.32,-104.85L202.84,-100.43L184.26,-81.82L172.19,-101.18L149.08,-108.56L125.49,-104.67L107.91,-87.34L108.82,-105.63L88.79,-106.62ZM373.67,-50.08L300.08,-31.43L283.80,-1.43L295.60,28.42L326.52,39.11L349.75,35.77L371.61,21.34L370.78,36.20L391.54,37.23L395.68,-45.69L385.84,-84.01L348.02,-98.86L312.99,-92.13L294.93,-67.88L312.03,-56.16L324.33,-75.13L344.85,-80.81L366.17,-73.41ZM372.69,-30.41L371.07,2.13L354.65,15.13L330.97,21.14L314.43,15.97L307.57,-1.24L318.36,-18.22ZM480.15,43.34L480.15,43.34L478.54,24.04L468.50,25.04L458.05,19.08L456.93,2.80L460.59,-71.11L482.59,-70.02L483.44,-87.08L461.44,-88.17L463.64,-132.66L441.39,-133.77L439.19,-89.27L420.90,-90.18L420.05,-73.12L438.35,-72.21L434.69,1.70L438.22,32.99L463.03,44.88ZM533.53,19.75L522.25,-15.01L617.66,-10.31L619.34,-19.14L606.95,-66.96L563.30,-88.30L518.78,-72.05L499.87,-21.93L513.73,29.81L556.44,50.37L593.70,41.35L611.92,15.68L595.13,4.01L580.56,25.33L558.64,31.52ZM523.87,-32.79L539.29,-61.52L562.35,-69.42L587.04,-57.45L595.80,-29.23ZM-592.44,211.53L-533.36,214.46L-467.25,195.09L-442.50,129.23L-462.01,61.04L-527.76,36.32L-583.63,33.55ZM-567.93,191.93L-561.18,55.72L-528.80,57.33L-482.26,73.32L-467.19,127.77L-485.45,179.85L-534.80,193.57ZM-392.61,196.91L-403.89,162.16L-308.48,166.86L-306.80,158.02L-319.19,110.21L-362.84,88.87L-407.36,105.11L-426.27,155.23L-412.41,206.98L-369.70,227.54L-332.44,218.51L-314.22,192.84L-331.01,181.17L-345.58,202.50L-367.50,208.68ZM-402.27,144.38L-386.85,115.64L-363.79,107.75L-339.10,119.72L-330.34,147.94ZM-270.98,187.53L-290.32,195.42L-278.98,221.27L-241.44,234.03L-204.66,226.78L-186.49,196.81L-195.18,169.94L-216.28,157.74L-245.85,148.16L-262.18,140.66L-267.13,130.12L-259.35,117.80L-238.15,114.18L-218.27,120.67L-210.42,137.46L-191.27,129.56L-201.09,107.49L-236.36,95.22L-272.27,102.57L-288.97,131.54L-280.26,155.64L-258.48,167.38L-227.22,177.33L-212.67,185.56L-209.31,197.66L-219.98,212.10L-239.75,215.10L-262.99,206.15ZM-140.23,83.52L-131.76,75.12L-131.11,62.55L-138.87,53.13L-150.29,52.57L-158.72,61.16L-159.35,73.72L-151.66,82.95ZM-142.29,233.82L-135.93,105.28L-158.18,104.18L-164.54,232.72ZM-64.39,291.58L-17.39,274.54L-4.19,232.23L1.76,112.09L-18.02,111.12L-18.87,128.42L-32.62,111.28L-54.84,103.73L-97.53,121.01L-114.49,170.28L-102.48,220.98L-61.71,242.40L-41.57,238.64L-26.18,225.94L-26.71,235.37L-36.00,263.75L-62.92,272.44L-83.21,265.62L-90.45,247.79L-108.65,255.06L-98.61,279.27ZM-54.52,122.71L-30.58,136.67L-20.94,174.93L-33.37,212.10L-59.51,223.56L-83.72,209.61L-91.79,171.43L-79.99,134.22ZM27.17,242.21L49.41,243.31L52.88,173.35L64.16,140.80L89.87,130.63L110.23,141.31L114.99,167.51L111.08,246.36L133.33,247.47L137.24,168.61L130.76,128.99L95.35,111.69L71.06,115.79L52.64,133.20L53.55,114.66L33.53,113.67ZM193.24,225.92L181.96,191.17L277.38,195.87L279.06,187.03L266.67,139.21L223.02,117.88L178.49,134.12L159.59,184.24L173.45,235.98L216.16,256.55L253.42,247.52L271.63,221.85L254.85,210.18L240.28,231.51L218.35,237.69ZM183.59,173.38L199.01,144.65L222.07,136.75L246.76,148.72L255.52,176.95ZM359.49,146.32L375.92,152.67L383.52,134.22L362.15,124.90L340.59,130.42L324.73,150.39L325.84,128.14L305.81,127.15L299.51,254.43L321.70,256.79L325.14,187.33L334.80,156.74ZM451.98,266.35L461.19,257.86L461.75,245.30L453.34,236.03L440.88,235.47L431.67,243.96L431.11,256.52L439.52,265.80ZM436.44,219.81L457.99,220.87L458.32,214.06L462.54,196.22L475.29,182.04L497.84,162.33L509.30,133.17L495.19,95.29L453.82,79.38L415.32,91.62L399.05,123.93L417.53,133.43L430.07,107.03L453.03,99.55L476.38,107.97L485.22,133.49L477.64,153.62L462.02,167.48L443.33,186.52L436.77,212.99Z" fill="#ffffff" stroke="#000000"/>
    <path d="M-831.66,-341.47L-852.86,-334.77L-838.26,-294.00L-786.62,-273.47L-740.52,-281.91L-715.40,-320.13L-724.49,-352.80L-754.66,-372.48L-803.55,-392.48L-815.07,-402.14L-817.95,-415.20L-802.95,-436.43L-775.52,-440.61L-746.34,-427.80L-737.14,-399.64L-715.75,-405.54L-728.49,-442.41L-774.58,-460.60L-817.82,-452.19L-841.03,-415.98L-837.04,-391.54L-808.51,-369.55L-758.84,-350.06L-744.37,-337.59L-740.97,-321.41L-754.34,-299.29L-785.69,-293.46L-819.52,-307.71ZM-628.49,-396.37L-673.94,-382.55L-695.70,-333.98L-683.90,-282.08L-642.07,-259.60L-596.61,-273.42L-574.83,-321.98L-586.63,-373.88ZM-640.22,-278.24L-665.45,-292.48L-673.31,-331.74L-657.87,-368.69L-630.34,-377.70L-605.09,-363.45L-597.21,-324.18L-612.66,-287.24ZM-483.36,-216.39L-490.31,-218.31L-495.99,-200.88L-482.33,-197.08L-457.35,-205.16L-440.30,-230.45L-376.44,-360.88L-394.49,-370.06L-441.29,-273.03L-468.85,-377.44L-489.32,-372.09L-454.17,-247.23L-460.57,-233.96L-471.44,-220.00ZM-303.26,-364.08L-348.71,-350.26L-370.47,-301.69L-358.67,-249.80L-316.83,-227.31L-271.38,-241.14L-249.60,-289.70L-261.39,-341.59ZM-314.98,-245.95L-340.22,-260.19L-348.08,-299.45L-332.64,-336.41L-305.11,-345.42L-279.86,-331.17L-271.98,-291.90L-287.42,-254.95ZM-116.15,-340.46L-138.09,-342.64L-144.91,-273.91L-157.68,-242.00L-183.59,-233.20L-203.21,-244.76L-206.59,-271.31L-198.91,-348.67L-220.85,-350.85L-228.55,-273.32L-224.14,-233.59L-189.97,-214.76L-165.69,-218.27L-146.66,-233.93L-148.48,-215.64L-128.73,-213.68ZM17.92,-199.12L53.91,-293.79L68.63,-194.09L90.82,-191.89L141.29,-310.96L123.10,-318.68L83.46,-221.92L67.56,-322.22L45.38,-324.42L9.32,-226.57L-8.55,-331.75L-29.37,-327.91L-4.75,-201.37ZM234.42,-263.49L160.75,-248.66L143.20,-219.80L153.40,-189.71L183.44,-177.63L206.58,-179.79L228.90,-192.99L227.35,-178.33L247.83,-176.30L255.97,-258.08L248.13,-296.45L211.45,-312.99L176.49,-308.04L157.45,-284.95L173.79,-272.52L186.87,-290.68L207.44,-295.29L228.16,-286.93ZM232.50,-244.10L229.30,-212.00L212.43,-199.95L188.72,-195.18L172.63,-201.10L166.68,-218.45L178.18,-234.71ZM280.87,-173.02L302.81,-170.84L309.66,-239.84L322.41,-271.47L348.33,-280.26L367.93,-268.72L371.35,-242.58L363.63,-164.81L385.57,-162.63L393.29,-240.40L388.83,-279.89L354.67,-298.73L330.45,-295.86L311.38,-279.55L313.20,-297.84L293.45,-299.80ZM470.44,-152.49L470.44,-152.49L469.79,-171.65L459.82,-171.15L449.78,-177.56L449.47,-193.71L456.71,-266.60L478.41,-264.45L480.08,-281.27L458.38,-283.43L462.73,-327.31L440.79,-329.49L436.44,-285.60L418.39,-287.40L416.72,-270.57L434.77,-268.78L427.53,-195.89L429.49,-164.78L453.44,-151.81ZM616.72,-137.96L616.72,-137.97L616.07,-157.13L606.10,-156.63L596.06,-163.04L595.75,-179.19L602.99,-252.08L624.69,-249.93L626.36,-266.75L604.66,-268.90L609.01,-312.79L587.07,-314.97L582.72,-271.08L564.67,-272.87L563.01,-256.05L581.05,-254.26L573.81,-181.36L575.78,-150.26L599.72,-137.29ZM706.57,-263.84L661.12,-250.02L639.36,-201.45L651.15,-149.55L692.99,-127.07L738.44,-140.89L760.22,-189.45L748.43,-241.35ZM694.84,-145.71L669.61,-159.95L661.75,-199.21L677.18,-236.16L704.72,-245.17L729.97,-230.92L737.85,-191.65L722.40,-154.71ZM-706.63,-226.73L-728.57,-228.91L-745.99,-53.37L-726.49,-51.44L-724.80,-68.50L-712.49,-50.63L-691.17,-42.43L-648.11,-57.43L-628.92,-105.30L-638.33,-156.02L-677.59,-179.20L-697.69,-176.46L-712.80,-164.56ZM-690.58,-61.19L-713.55,-76.15L-721.23,-114.45L-707.11,-150.59L-680.71,-160.66L-657.44,-145.66L-651.33,-107.51L-664.82,-71.31ZM-582.82,-61.53L-592.27,-96.44L-498.16,-87.12L-496.07,-95.78L-505.98,-143.66L-548.09,-166.89L-592.91,-153.01L-614.06,-104.38L-602.88,-52.55L-561.67,-30.13L-524.38,-37.23L-505.12,-61.71L-521.14,-74.08L-536.59,-53.70L-558.57,-48.66ZM-589.80,-113.94L-573.15,-141.60L-549.96,-148.28L-526.13,-135.23L-518.85,-106.90ZM-325.67,-97.51L-399.34,-82.68L-416.90,-53.81L-406.70,-23.73L-376.65,-11.65L-353.52,-13.80L-331.20,-27.00L-332.75,-12.35L-312.27,-10.32L-304.12,-92.10L-311.97,-130.46L-348.64,-147.00L-383.60,-142.06L-402.65,-118.96L-386.31,-106.54L-373.23,-124.69L-352.66,-129.31L-331.94,-120.95ZM-327.60,-78.11L-330.80,-46.02L-347.66,-33.97L-371.37,-29.19L-387.47,-35.11L-393.41,-52.47L-381.92,-68.73ZM-131.77,-6.94L-173.58,-32.40L-182.44,-86.07L-162.27,-136.84L-117.21,-153.68L-83.96,-138.58L-70.66,-106.61L-48.98,-115.00L-66.95,-152.99L-115.23,-173.56L-179.87,-152.39L-207.31,-88.52L-192.96,-20.52L-133.75,12.95L-82.44,2.00L-57.87,-30.50L-76.91,-43.68L-97.90,-15.15ZM-9.96,19.69L7.47,-155.84L-14.47,-158.02L-31.90,17.51ZM53.07,-123.48L61.87,-131.37L63.12,-143.77L55.91,-153.46L44.64,-154.58L35.89,-146.50L34.66,-134.11L41.80,-124.60ZM43.68,25.02L56.26,-101.76L34.32,-103.94L21.74,22.84ZM74.23,28.05L96.22,30.23L102.73,-35.35L111.95,-67.24L139.30,-79.43L155.66,-69.83L159.11,-47.26L150.88,35.66L172.83,37.84L180.11,-35.55L190.71,-62.50L216.14,-71.80L233.77,-59.98L235.74,-37.15L227.75,43.29L249.69,45.47L258.45,-42.79L251.83,-75.81L222.75,-90.24L199.32,-87.02L180.04,-69.53L169.06,-89.26L146.57,-97.69L123.05,-95.00L104.82,-78.72L106.61,-96.76L86.87,-98.72ZM365.75,-28.87L292.08,-14.04L274.52,14.82L284.72,44.91L314.77,56.99L337.90,54.83L360.22,41.63L358.67,56.29L379.15,58.32L387.30,-23.46L379.45,-61.83L342.78,-78.36L307.82,-73.42L288.77,-50.33L305.11,-37.90L318.20,-56.06L338.76,-60.67L359.48,-52.31ZM363.82,-9.48L360.62,22.62L343.76,34.67L320.05,39.45L303.95,33.52L298.01,16.17L309.50,-0.09ZM466.45,68.70L466.46,68.70L465.81,49.54L455.83,50.03L445.79,43.63L445.49,27.48L452.72,-45.42L474.42,-43.26L476.09,-60.08L454.39,-62.24L458.75,-106.12L436.81,-108.30L432.45,-64.42L414.41,-66.21L412.74,-49.38L430.78,-47.59L423.54,25.30L425.51,56.41L449.45,69.38ZM520.38,47.99L510.93,13.07L605.04,22.39L607.13,13.74L597.22,-34.15L555.11,-57.38L510.29,-43.50L489.15,5.13L500.32,56.97L541.54,79.39L578.82,72.29L598.09,47.80L582.06,35.44L566.61,55.81L544.63,60.85ZM513.41,-4.43L530.06,-32.08L553.24,-38.76L577.07,-25.72L584.35,2.61ZM-602.23,182.48L-543.97,188.27L-477.65,172.35L-449.96,108.45L-465.91,40.07L-529.71,12.41L-584.81,6.94ZM-577.04,164.30L-563.70,29.97L-531.77,33.14L-486.54,51.22L-474.30,105.80L-494.90,156.40L-544.37,167.54ZM-403.95,177.81L-413.41,142.90L-319.30,152.22L-317.21,143.56L-327.11,95.68L-369.22,72.45L-414.04,86.33L-435.19,134.96L-424.02,186.79L-382.80,209.21L-345.52,202.11L-326.25,177.63L-342.28,165.26L-357.72,185.64L-379.70,190.68ZM-410.93,125.40L-394.28,97.74L-371.09,91.06L-347.27,104.11L-339.98,132.44ZM-283.24,174.48L-302.75,181.35L-292.80,207.46L-256.31,221.91L-219.58,216.54L-200.15,187.80L-207.43,160.81L-227.70,147.71L-256.46,136.79L-272.24,128.58L-276.62,117.91L-268.32,106.11L-247.18,103.57L-227.85,110.97L-220.91,127.95L-201.59,121.07L-210.21,98.77L-244.49,84.92L-280.35,90.43L-298.28,118.26L-290.85,142.50L-269.89,155.18L-239.47,166.54L-225.49,175.40L-222.76,187.52L-234.02,201.28L-253.70,203.28L-276.25,193.29ZM-148.88,78.05L-140.09,70.16L-138.84,57.77L-146.04,48.08L-157.31,46.96L-166.06,55.04L-167.29,67.43L-160.15,76.94ZM-158.27,226.55L-145.69,99.78L-167.63,97.60L-180.21,224.38ZM-84.08,287.48L-36.77,272.93L-21.65,231.74L-9.89,113.26L-29.39,111.32L-31.09,128.39L-43.84,110.77L-65.44,102.22L-108.49,117.21L-127.67,165.10L-118.28,215.81L-79.02,238.98L-58.92,236.25L-43.08,224.45L-44.07,233.74L-54.65,261.35L-81.69,268.62L-101.42,260.88L-107.70,242.90L-126.05,249.20L-117.31,273.63ZM-66.05,121.00L-43.07,135.97L-35.40,174.28L-49.52,210.41L-75.92,220.47L-99.18,205.48L-105.28,167.34L-91.80,131.13ZM8.86,243.14L30.80,245.32L37.65,176.33L50.40,144.70L76.32,135.90L95.93,147.45L99.35,173.59L91.63,251.36L113.57,253.54L121.29,175.77L116.82,136.28L82.66,117.43L58.45,120.31L39.38,136.61L41.19,118.33L21.45,116.37ZM173.86,235.17L164.40,200.26L258.51,209.58L260.60,200.92L250.70,153.04L208.59,129.80L163.77,143.69L142.62,192.31L153.79,244.15L195.01,266.57L232.29,259.47L251.56,234.98L235.53,222.62L220.09,242.99L198.11,248.03ZM166.88,182.75L183.53,155.10L206.72,148.42L230.54,161.46L237.83,189.80ZM342.12,164.61L358.05,171.69L366.47,153.82L345.80,143.56L324.21,147.97L307.56,166.93L309.74,144.99L289.99,143.03L277.53,268.56L299.34,271.98L306.15,203.47L317.20,173.70ZM427.69,287.81L437.21,279.87L438.38,267.48L430.51,257.89L418.22,256.74L408.70,264.68L407.53,277.07L415.40,286.65ZM414.60,241.03L435.85,243.14L436.52,236.42L441.56,218.99L454.86,205.60L478.12,187.21L490.88,158.94L478.78,120.80L438.66,103.04L400.00,113.26L382.33,144.41L400.13,154.71L413.82,129.22L436.89,122.95L459.56,132.42L467.06,158.08L458.57,177.61L442.45,190.55L423.04,208.46L415.26,234.31Z" fill="#ffffff" stroke="#000000"/>
    <path d="M-811.63,-376.26L-832.93,-370.68L-820.48,-329.66L-770.44,-306.83L-724.45,-312.92L-697.75,-349.47L-705.14,-382.21L-734.00,-403.15L-781.35,-425.32L-792.27,-435.43L-794.48,-448.48L-778.60,-468.73L-751.28,-471.53L-723.07,-457.43L-715.35,-429.14L-693.92,-433.93L-704.71,-471.00L-749.38,-491.24L-792.54,-485.04L-817.26,-450.38L-814.51,-426.02L-787.38,-402.89L-739.23,-381.19L-725.54,-368.16L-722.97,-351.99L-737.26,-330.78L-768.54,-326.55L-801.29,-342.29ZM-608.10,-420.59L-653.71,-409.15L-677.60,-362.20L-668.48,-310.32L-628.22,-286.04L-582.61,-297.49L-558.70,-344.43L-567.81,-396.31ZM-625.47,-304.38L-649.72,-319.69L-655.57,-358.89L-638.50,-394.67L-610.84,-402.23L-586.58,-386.90L-580.71,-347.70L-597.79,-311.93ZM-473.44,-235.56L-480.21,-237.80L-486.68,-220.85L-473.36,-216.42L-448.27,-223.19L-430.18,-247.35L-360.67,-373.17L-378.06,-383.13L-429.07,-289.49L-451.21,-394.06L-471.71,-389.77L-443.07,-264.62L-450.04,-251.81L-461.48,-238.55ZM-288.16,-372.75L-333.77,-361.31L-357.66,-314.37L-348.54,-262.48L-308.28,-238.21L-262.67,-249.65L-238.76,-296.59L-247.88,-348.47ZM-305.54,-256.55L-329.78,-271.86L-335.63,-311.05L-318.56,-346.83L-290.91,-354.39L-266.64,-339.07L-260.77,-299.86L-277.85,-264.09ZM-104.34,-340.24L-125.93,-343.47L-136.04,-275.86L-150.22,-244.93L-176.26,-237.51L-195.09,-249.89L-197.14,-276.31L-185.76,-352.41L-207.35,-355.64L-218.75,-279.37L-216.33,-239.88L-183.47,-219.59L-159.30,-221.87L-139.73,-236.42L-142.42,-218.43L-122.99,-215.53ZM21.28,-193.96L61.49,-285.78L71.16,-186.50L92.99,-183.23L148.71,-298.48L131.11,-307.00L87.18,-213.28L76.38,-313.22L54.55,-316.48L14.12,-221.51L1.60,-326.36L-19.17,-323.58L-1.03,-197.29ZM238.46,-246.99L164.90,-235.93L146.13,-208.26L154.74,-178.02L183.86,-164.60L206.84,-165.61L229.54,-177.56L227.29,-163.15L247.44,-160.14L259.50,-240.59L253.62,-278.90L218.17,-297.05L183.37,-293.87L163.41,-271.97L178.96,-258.89L192.78,-276.19L213.34,-279.75L233.41,-270.47ZM235.61,-227.91L230.87,-196.34L213.61,-185.25L189.94,-181.69L174.31,-188.33L169.28,-205.78L181.45,-221.29ZM279.94,-155.28L301.53,-152.05L311.68,-219.93L325.83,-250.57L351.88,-258.00L370.70,-245.62L372.80,-219.61L361.36,-143.11L382.95,-139.88L394.39,-216.39L391.90,-255.64L359.05,-275.94L334.97,-274.29L315.33,-259.10L318.02,-277.09L298.59,-279.99ZM466.35,-125.70L466.35,-125.70L466.64,-144.68L456.76,-144.68L447.15,-151.50L447.64,-167.48L458.36,-239.19L479.70,-236.00L482.18,-252.55L460.83,-255.74L467.29,-298.91L445.70,-302.13L439.25,-258.96L421.50,-261.62L419.02,-245.07L436.77,-242.42L426.05,-170.70L426.47,-139.86L449.51,-125.86ZM610.25,-104.18L610.25,-104.19L610.54,-123.16L600.66,-123.16L591.05,-129.98L591.54,-145.96L602.26,-217.67L623.60,-214.48L626.08,-231.03L604.73,-234.22L611.19,-277.39L589.60,-280.62L583.15,-237.45L565.40,-240.10L562.93,-223.55L580.67,-220.90L569.95,-149.19L570.37,-118.34L593.41,-104.35ZM705.23,-224.22L659.62,-212.78L635.73,-165.84L644.86,-113.95L685.11,-89.68L730.73,-101.12L754.63,-148.06L745.52,-199.94ZM687.86,-108.02L663.61,-123.33L657.76,-162.52L674.83,-198.30L702.49,-205.86L726.75,-190.54L732.62,-151.33L715.54,-115.56ZM-693.65,-256.71L-715.23,-259.94L-741.05,-87.26L-721.87,-84.39L-719.36,-101.18L-708.06,-82.91L-687.39,-73.76L-644.09,-86.48L-622.77,-132.87L-629.59,-183.47L-667.27,-208.30L-687.28,-206.58L-702.79,-195.56ZM-685.89,-92.28L-707.87,-108.19L-713.58,-146.43L-697.86,-181.47L-671.26,-190.13L-648.99,-174.16L-644.82,-136.15L-659.92,-101.02ZM-579.34,-87.34L-586.98,-122.32L-494.40,-108.49L-491.91,-116.95L-499.36,-164.77L-539.85,-189.80L-584.84,-178.27L-608.12,-131.23L-599.61,-79.44L-559.97,-55.26L-522.76,-60.45L-502.52,-83.72L-517.75,-96.72L-534.02,-77.34L-556.00,-73.43ZM-583.67,-139.50L-565.86,-166.02L-542.61,-171.49L-519.69,-157.43L-513.88,-129.06ZM-323.37,-110.32L-396.92,-99.26L-415.69,-71.59L-407.08,-41.35L-377.97,-27.93L-354.99,-28.93L-332.28,-40.89L-334.53,-26.48L-314.39,-23.47L-302.33,-103.92L-308.21,-142.23L-343.65,-160.37L-378.46,-157.19L-398.42,-135.30L-382.87,-122.21L-369.05,-139.52L-348.49,-143.08L-328.42,-133.80ZM-326.22,-91.24L-330.95,-59.67L-348.22,-48.58L-371.89,-45.02L-387.51,-51.66L-392.54,-69.11L-380.38,-84.62ZM-136.12,-11.29L-176.20,-38.51L-182.33,-92.00L-159.90,-141.20L-114.53,-155.64L-82.41,-139.09L-70.82,-106.84L-48.98,-114.07L-64.88,-152.50L-111.61,-175.21L-176.55,-157.43L-206.79,-95.64L-195.94,-27.72L-139.04,8.27L-87.79,-0.04L-61.90,-30.97L-80.08,-44.93L-102.22,-17.76ZM-16.99,21.00L8.83,-151.68L-12.76,-154.91L-38.58,17.77ZM52.33,-117.46L61.40,-124.83L63.25,-137.02L56.60,-146.95L45.51,-148.61L36.47,-141.05L34.64,-128.87L41.24,-119.11ZM35.77,28.89L54.42,-95.83L32.83,-99.05L14.19,25.66ZM65.83,33.38L87.46,36.62L97.11,-27.90L107.77,-58.97L135.41,-69.69L151.12,-59.40L153.43,-36.92L141.23,44.66L162.81,47.88L173.61,-24.31L185.40,-50.43L211.00,-58.39L227.85,-45.84L228.68,-23.17L216.85,55.96L238.43,59.19L251.41,-27.63L246.48,-60.60L218.43,-76.29L195.12,-74.25L175.20,-57.91L165.31,-77.95L143.49,-87.38L120.11,-85.87L101.29,-70.67L103.95,-88.42L84.52,-91.33ZM356.80,-8.62L283.24,2.44L264.48,30.11L273.09,60.35L302.20,73.77L325.18,72.76L347.89,60.81L345.64,75.22L365.78,78.23L377.84,-2.22L371.96,-40.53L336.52,-58.67L301.71,-55.50L281.75,-33.60L297.30,-20.52L311.12,-37.82L331.68,-41.38L351.75,-32.10ZM353.95,10.46L349.21,42.03L331.95,53.12L308.28,56.68L292.66,50.04L287.63,32.59L299.79,17.08ZM451.58,92.77L451.59,92.76L451.88,73.79L441.99,73.79L432.38,66.97L432.87,50.99L443.59,-20.72L464.94,-17.53L467.41,-34.08L446.07,-37.27L452.52,-80.44L430.94,-83.67L424.48,-40.50L406.73,-43.15L404.26,-26.60L422.01,-23.95L411.28,47.76L411.71,78.61L434.74,92.61ZM505.91,74.93L498.27,39.95L590.85,53.77L593.34,45.32L585.89,-2.51L545.40,-27.54L500.41,-16.01L477.12,31.03L485.63,82.82L525.28,107.01L562.49,101.81L582.73,78.55L567.50,65.54L551.23,84.93L529.25,88.83ZM501.58,22.77L519.39,-3.75L542.64,-9.22L565.56,4.84L571.37,33.20ZM-610.48,152.94L-553.16,161.51L-486.82,149.02L-456.32,87.21L-468.74,18.83L-530.46,-11.64L-584.66,-19.74ZM-584.68,136.20L-564.92,4.05L-533.50,8.75L-489.68,28.84L-480.26,83.40L-503.09,132.40L-552.54,141.00ZM-414.23,158.03L-421.87,123.05L-329.29,136.87L-326.80,128.41L-334.25,80.59L-374.74,55.56L-419.73,67.09L-443.01,114.13L-434.51,165.92L-394.86,190.11L-357.65,184.91L-337.41,161.65L-352.64,148.64L-368.91,168.02L-390.89,171.93ZM-418.56,105.87L-400.75,79.35L-377.50,73.88L-354.58,87.94L-348.77,116.30ZM-294.73,160.65L-314.35,166.48L-305.80,192.77L-270.43,208.84L-233.86,205.34L-213.25,177.88L-219.12,150.84L-238.51,136.90L-266.41,124.69L-281.61,115.80L-285.42,105.05L-276.64,93.78L-255.62,92.31L-236.87,100.56L-230.84,117.69L-211.40,111.84L-218.84,89.37L-252.04,74.00L-287.76,77.69L-306.85,104.32L-300.69,128.65L-280.59,142.21L-251.08,154.94L-237.69,164.38L-235.59,176.50L-247.39,189.54L-266.94,190.56L-288.75,179.58ZM-157.19,71.89L-148.11,64.52L-146.26,52.33L-152.91,42.40L-164.00,40.74L-173.04,48.30L-174.87,60.48L-168.27,70.24ZM-173.74,218.24L-155.09,93.52L-176.68,90.30L-195.33,215.01ZM-103.38,282.10L-55.90,270.03L-38.93,230.06L-21.51,113.50L-40.69,110.63L-43.20,127.42L-54.95,109.37L-75.88,99.86L-119.18,112.58L-140.48,158.98L-133.68,209.58L-96.00,234.41L-76.00,232.69L-59.77,221.79L-61.20,230.94L-73.00,257.71L-100.09,263.57L-119.22,254.96L-124.55,236.87L-143.00,242.20L-135.55,266.78ZM-77.40,118.40L-55.42,134.33L-49.72,172.57L-65.44,207.60L-92.03,216.25L-114.29,200.30L-118.46,162.29L-103.36,127.16ZM-9.33,242.82L12.26,246.05L22.40,178.17L36.56,147.53L62.61,140.10L81.43,152.48L83.53,178.49L72.09,254.99L93.67,258.22L105.11,181.71L102.63,142.46L69.78,122.16L45.70,123.81L26.06,139.00L28.74,121.01L9.32,118.11ZM154.17,243.01L146.54,208.03L239.12,221.86L241.61,213.40L234.16,165.58L193.67,140.55L148.68,152.08L125.39,199.12L133.90,250.91L173.55,275.09L210.75,269.90L231.00,246.63L215.76,233.63L199.50,253.01L177.52,256.92ZM149.84,190.85L167.66,164.33L190.91,158.86L213.82,172.92L219.64,201.29ZM323.97,181.49L339.37,189.28L348.57,172.02L328.64,160.86L307.08,164.16L289.69,182.09L292.92,160.51L273.49,157.60L255.03,281.10L276.43,285.55L286.50,218.15L298.89,189.26ZM402.53,307.48L412.33,300.09L414.09,287.90L406.79,278.04L394.69,276.29L384.89,283.68L383.13,295.87L390.44,305.73ZM391.88,260.59L412.79,263.71L413.78,257.11L419.61,240.12L433.42,227.53L457.31,210.49L471.31,183.17L461.21,144.87L422.42,125.35L383.70,133.56L364.71,163.49L381.81,174.54L396.59,150.02L419.70,144.94L441.65,155.42L447.80,181.16L438.46,200.04L421.89,212.05L401.82,228.80L392.87,253.98Z" fill="#ffffff" stroke="#000000"/>
    <path d="M-790.08,-409.96L-811.40,-405.48L-801.11,-364.33L-752.77,-339.31L-707.00,-343.08L-678.83,-377.91L-684.53,-410.63L-712.03,-432.74L-757.75,-456.97L-768.05,-467.50L-769.59,-480.50L-752.91,-499.75L-725.76,-501.17L-698.56,-485.86L-692.32,-457.51L-670.90,-461.20L-679.75,-498.37L-722.92,-520.57L-765.88,-516.55L-792.01,-483.50L-790.49,-459.29L-764.81,-435.10L-718.27,-411.29L-705.37,-397.74L-703.62,-381.63L-718.79,-361.36L-749.92,-358.71L-781.52,-375.88ZM-586.72,-443.81L-632.36,-434.74L-658.28,-389.50L-651.80,-337.77L-613.19,-311.80L-567.55,-320.88L-541.62,-366.11L-548.09,-417.84ZM-609.59,-329.80L-632.80,-346.12L-636.67,-385.15L-618.05,-419.68L-590.33,-425.80L-567.10,-409.46L-563.22,-370.42L-581.85,-335.90ZM-462.67,-254.33L-469.26,-256.87L-476.48,-240.43L-463.53,-235.40L-438.40,-240.86L-419.33,-263.86L-344.46,-384.83L-361.17,-395.53L-416.17,-305.47L-432.94,-409.92L-453.42,-406.68L-431.23,-281.57L-438.75,-269.25L-450.70,-256.70ZM-272.81,-380.87L-318.45,-371.80L-344.37,-326.56L-337.89,-274.83L-299.28,-248.86L-253.64,-257.94L-227.71,-303.17L-234.18,-354.90ZM-295.67,-266.85L-318.89,-283.17L-322.76,-322.20L-304.13,-356.74L-276.42,-362.86L-253.19,-346.52L-249.31,-307.48L-267.94,-272.96ZM-92.70,-339.74L-113.88,-343.98L-127.18,-277.64L-142.71,-247.77L-168.82,-241.71L-186.83,-254.87L-187.56,-281.08L-172.59,-355.75L-193.76,-360.00L-208.77,-285.17L-208.31,-246.01L-176.83,-224.35L-152.82,-225.42L-132.76,-238.84L-136.30,-221.19L-117.24,-217.37ZM24.31,-188.99L68.55,-277.78L73.26,-179.17L94.67,-174.88L155.40,-286.07L138.41,-295.35L90.40,-204.87L84.61,-304.18L63.20,-308.48L18.58,-216.57L11.34,-320.83L-9.33,-319.10L2.43,-193.38ZM241.59,-230.79L168.34,-223.45L148.43,-197.02L155.46,-166.70L183.58,-152.02L206.34,-151.88L229.38,-162.59L226.45,-148.46L246.21,-144.49L262.07,-223.42L258.13,-261.58L223.98,-281.25L189.43,-279.82L168.63,-259.15L183.35,-245.45L197.86,-261.89L218.36,-264.40L237.74,-254.24ZM237.83,-212.06L231.61,-181.09L214.00,-170.97L190.43,-168.61L175.31,-175.94L171.19,-193.43L183.97,-208.17ZM278.10,-138.10L299.28,-133.85L312.64,-200.45L328.12,-230.05L354.24,-236.11L372.24,-222.96L373.04,-197.15L357.99,-122.08L379.17,-117.83L394.22,-192.90L393.68,-231.83L362.21,-253.50L338.33,-253.04L318.16,-238.99L321.70,-256.64L302.64,-260.46ZM460.91,-99.74L460.92,-99.74L462.13,-118.48L452.37,-118.96L443.20,-126.18L444.46,-141.95L458.57,-212.31L479.51,-208.11L482.77,-224.35L461.83,-228.54L470.32,-270.90L449.14,-275.15L440.65,-232.79L423.23,-236.28L419.98,-220.05L437.39,-216.55L423.28,-146.20L422.19,-115.68L444.27,-100.72ZM602.10,-71.43L602.11,-71.43L603.32,-90.17L593.55,-90.65L584.39,-97.87L585.65,-113.64L599.76,-184.00L620.70,-179.80L623.96,-196.03L603.02,-200.23L611.51,-242.59L590.33,-246.84L581.84,-204.48L564.42,-207.97L561.17,-191.74L578.58,-188.24L564.47,-117.88L563.38,-87.37L585.46,-72.41ZM701.87,-185.43L656.23,-176.36L630.31,-131.12L636.79,-79.39L675.40,-53.42L721.04,-62.50L746.97,-107.73L740.50,-159.46ZM679.01,-71.41L655.79,-87.74L651.92,-126.77L670.55,-161.30L698.26,-167.42L721.49,-151.08L725.37,-112.04L706.74,-77.52ZM-679.31,-286.01L-700.49,-290.26L-734.46,-120.83L-715.63,-117.06L-712.33,-133.53L-702.06,-114.92L-682.08,-104.86L-638.65,-115.31L-615.31,-160.13L-619.57,-210.48L-655.61,-236.87L-675.46,-236.14L-691.34,-226.01ZM-679.69,-123.10L-700.63,-139.90L-704.41,-177.97L-687.15,-211.84L-660.44,-219.10L-639.20,-202.23L-636.94,-164.45L-653.59,-130.47ZM-574.61,-112.99L-580.44,-147.94L-489.61,-129.75L-486.73,-137.99L-491.76,-185.62L-530.56,-212.34L-575.59,-203.15L-600.91,-157.79L-595.03,-106.18L-557.03,-80.34L-519.99,-83.65L-498.84,-105.66L-513.27,-119.26L-530.30,-100.89L-552.21,-98.11ZM-576.34,-164.76L-557.43,-190.11L-534.18,-194.38L-512.22,-179.36L-507.86,-151.03ZM-320.46,-123.18L-393.71,-115.85L-413.62,-89.42L-406.58,-59.10L-378.46,-44.42L-355.70,-44.28L-332.67,-54.99L-335.60,-40.86L-315.83,-36.89L-299.97,-115.82L-303.91,-153.98L-338.06,-173.65L-372.62,-172.21L-393.42,-151.55L-378.69,-137.85L-364.18,-154.29L-343.69,-156.79L-324.30,-146.64ZM-324.21,-104.46L-330.44,-73.49L-348.04,-63.37L-371.62,-61.01L-386.73,-68.34L-390.85,-85.83L-378.07,-100.57ZM-140.21,-16.13L-178.50,-45.00L-181.94,-98.17L-157.36,-145.71L-111.81,-157.77L-80.87,-139.83L-70.99,-107.38L-49.04,-113.46L-62.89,-152.23L-107.96,-176.96L-173.02,-162.57L-205.94,-102.97L-198.54,-35.30L-144.06,3.06L-92.99,-2.64L-65.89,-31.95L-83.17,-46.64L-106.39,-20.86ZM-24.04,21.62L9.93,-147.81L-11.24,-152.06L-45.22,17.37ZM51.26,-111.85L60.59,-118.69L63.01,-130.66L56.93,-140.80L46.05,-142.98L36.74,-135.95L34.33,-123.99L40.38,-114.03ZM27.73,32.00L52.27,-90.37L31.09,-94.61L6.55,27.75ZM57.22,37.91L78.45,42.17L91.14,-21.13L103.20,-51.33L131.05,-60.57L146.07,-49.62L147.25,-27.29L131.20,52.74L152.38,56.99L166.58,-13.84L179.52,-39.08L205.21,-45.69L221.25,-32.47L220.96,-10.02L205.39,67.62L226.57,71.87L243.65,-13.32L240.39,-46.15L213.44,-63.03L190.29,-62.16L169.80,-46.97L161.01,-67.27L139.90,-77.66L116.72,-77.32L97.37,-63.21L100.86,-80.62L81.80,-84.45ZM346.90,10.63L273.65,17.96L253.74,44.40L260.77,74.71L288.89,89.40L311.66,89.53L334.69,78.82L331.76,92.96L351.53,96.92L367.38,17.99L363.44,-20.17L329.30,-39.84L294.74,-38.40L273.94,-17.73L288.66,-4.04L303.17,-20.47L323.67,-22.98L343.06,-12.83ZM343.14,29.35L336.92,60.33L319.32,70.44L295.74,72.80L280.62,65.47L276.50,47.98L289.29,33.25ZM435.62,115.49L435.63,115.49L436.85,96.75L427.08,96.27L417.91,89.05L419.17,73.28L433.28,2.92L454.23,7.12L457.48,-9.12L436.54,-13.32L445.03,-55.67L423.85,-59.92L415.36,-17.56L397.95,-21.05L394.69,-4.82L412.10,-1.33L398.00,69.03L396.90,99.55L418.99,114.51ZM490.20,100.52L484.36,65.57L575.20,83.76L578.07,75.52L573.05,27.89L534.25,1.17L489.22,10.36L463.90,55.72L469.77,107.33L507.78,133.17L544.81,129.86L565.96,107.85L551.54,94.25L534.51,112.62L512.59,115.40ZM488.47,48.75L507.38,23.40L530.63,19.13L552.59,34.15L556.95,62.48ZM-617.14,122.99L-560.90,134.27L-494.72,125.17L-461.55,65.56L-470.48,-2.64L-529.99,-35.78L-583.17,-46.44ZM-590.83,107.70L-564.83,-21.95L-534.00,-15.77L-491.66,6.23L-485.02,60.62L-509.99,107.95L-559.29,114.03ZM-423.41,137.62L-429.24,102.67L-338.41,120.87L-335.53,112.63L-340.56,65.00L-379.36,38.27L-424.39,47.47L-449.71,92.82L-443.83,144.44L-405.83,170.28L-368.80,166.97L-347.64,144.96L-362.07,131.36L-379.10,149.72L-401.01,152.51ZM-425.14,85.85L-406.23,60.51L-382.98,56.24L-361.02,71.26L-356.66,99.58ZM-305.41,146.06L-325.09,150.86L-317.93,177.28L-283.75,194.89L-247.43,193.22L-225.71,167.08L-230.19,140.07L-248.68,125.34L-275.66,111.91L-290.25,102.37L-293.49,91.56L-284.26,80.86L-263.41,80.43L-245.27,89.50L-240.15,106.73L-220.65,101.90L-226.90,79.32L-258.97,62.50L-294.47,64.40L-314.64,89.79L-309.74,114.15L-290.53,128.53L-261.98,142.56L-249.21,152.54L-247.72,164.62L-260.03,176.94L-279.41,176.99L-300.42,165.07ZM-165.11,65.06L-155.77,58.22L-153.35,46.26L-159.44,36.12L-170.32,33.94L-179.63,40.97L-182.03,52.92L-175.99,62.88ZM-188.63,208.91L-164.10,86.55L-185.28,82.30L-209.81,204.66ZM-122.21,275.48L-74.69,265.88L-55.96,227.19L-33.03,112.83L-51.85,109.05L-55.16,125.53L-65.88,107.12L-86.11,96.69L-129.53,107.14L-152.86,151.96L-148.61,202.31L-112.58,228.70L-92.72,227.98L-76.15,218.00L-78.01,226.97L-90.99,252.86L-118.05,257.33L-136.53,247.88L-140.92,229.74L-159.42,234.11L-153.26,258.77ZM-88.52,114.94L-67.57,131.76L-63.80,169.84L-81.06,203.70L-107.77,210.95L-128.99,194.09L-131.25,156.32L-114.60,122.33ZM-27.32,241.26L-6.14,245.50L7.21,178.91L22.70,149.31L48.82,143.24L66.82,156.40L67.62,182.21L52.57,257.28L73.74,261.52L88.80,186.46L88.26,147.53L56.79,125.86L32.90,126.31L12.74,140.36L16.28,122.72L-2.78,118.89ZM134.29,249.45L128.46,214.50L219.29,232.69L222.17,224.46L217.14,176.82L178.34,150.10L133.31,159.29L107.99,204.65L113.87,256.26L151.87,282.11L188.90,278.79L210.05,256.79L195.63,243.19L178.60,261.55L156.68,264.34ZM132.56,197.68L151.47,172.34L174.72,168.07L196.68,183.09L201.04,211.41ZM305.14,196.95L319.98,205.40L329.92,188.79L310.77,176.78L289.29,178.99L271.23,195.87L275.47,174.69L256.41,170.87L232.12,292.03L253.05,297.48L266.31,231.35L279.97,203.40ZM376.63,325.33L386.68,318.51L389.02,306.54L382.28,296.44L370.41,294.12L360.36,300.94L358.02,312.91L364.76,323.01ZM368.40,278.46L388.91,282.57L390.21,276.09L396.81,259.58L411.08,247.82L435.53,232.14L450.70,205.82L442.60,167.47L405.21,146.27L366.53,152.50L346.29,181.15L362.65,192.91L378.46,169.39L401.56,165.51L422.74,176.93L427.56,202.68L417.40,220.89L400.44,231.94L379.78,247.53L369.70,271.97Z" fill="#ffffff" stroke="#000000"/>
    <path d="M-767.06,-442.49L-788.35,-439.11L-780.19,-397.93L-733.63,-370.84L-688.22,-372.33L-658.66,-405.37L-662.70,-437.99L-688.80,-461.18L-732.80,-487.37L-742.46,-498.28L-743.35,-511.21L-725.92,-529.41L-699.02,-529.49L-672.89,-513.03L-668.11,-484.71L-646.76,-487.30L-653.68,-524.47L-695.26,-548.52L-737.92,-546.65L-765.37,-515.27L-765.05,-491.26L-740.85,-466.10L-696.02,-440.29L-683.93,-426.26L-682.99,-410.26L-698.98,-390.97L-729.87,-389.87L-760.26,-408.38ZM-564.41,-466.00L-609.96,-459.26L-637.79,-415.82L-633.92,-364.37L-597.03,-336.82L-551.47,-343.56L-523.63,-386.99L-527.49,-438.44ZM-592.58,-354.43L-614.73,-371.69L-616.64,-410.46L-596.55,-443.68L-568.86,-448.37L-546.69,-431.09L-544.77,-392.31L-564.87,-359.10ZM-451.07,-272.64L-457.45,-275.48L-465.40,-259.59L-452.85,-253.98L-427.74,-258.15L-407.77,-279.95L-327.85,-395.85L-343.84,-407.23L-402.61,-320.91L-414.07,-424.97L-434.47,-422.77L-418.66,-298.03L-426.69,-286.22L-439.12,-274.40ZM-257.23,-388.42L-302.78,-381.69L-330.60,-338.25L-326.74,-286.80L-289.85,-259.25L-244.29,-265.99L-216.45,-309.42L-220.31,-360.86ZM-285.40,-276.85L-307.55,-294.12L-309.46,-332.89L-289.36,-366.10L-261.68,-370.80L-239.51,-353.51L-237.58,-314.73L-257.69,-281.53ZM-81.22,-338.95L-101.95,-344.19L-118.34,-279.27L-135.15,-250.51L-161.25,-245.79L-178.41,-259.68L-177.85,-285.62L-159.39,-358.70L-180.12,-363.93L-198.61,-290.70L-200.07,-251.98L-170.02,-229.02L-146.23,-228.91L-125.75,-241.19L-130.11,-223.92L-111.46,-219.21ZM27.05,-184.23L75.12,-269.83L74.95,-172.14L95.90,-166.85L161.36,-273.77L145.03,-283.78L93.15,-196.69L92.29,-295.14L71.34,-300.43L22.74,-211.78L20.68,-315.18L0.17,-314.48L5.64,-189.64ZM243.85,-214.91L171.09,-211.25L150.12,-186.10L155.59,-155.79L182.66,-139.90L205.15,-138.65L228.44,-148.11L224.85,-134.28L244.20,-129.40L263.73,-206.63L261.71,-244.54L228.92,-265.65L194.69,-265.92L173.12,-246.51L187.01,-232.26L202.15,-247.79L222.53,-249.27L241.20,-238.28ZM239.22,-196.59L231.55,-166.28L213.66,-157.14L190.24,-155.96L175.66,-163.95L172.44,-181.44L185.80,-195.38ZM275.40,-121.52L296.13,-116.28L312.59,-181.45L329.34,-209.95L355.45,-214.66L372.60,-200.78L372.13,-175.23L353.58,-101.78L374.30,-96.54L392.85,-170.00L394.23,-208.50L364.18,-231.46L340.55,-232.18L319.93,-219.28L324.29,-236.55L305.64,-241.26ZM454.21,-74.65L454.21,-74.66L456.33,-93.12L446.70,-94.07L437.99,-101.65L440.02,-117.18L457.40,-186.03L477.90,-180.85L481.91,-196.74L461.42,-201.92L471.88,-243.37L451.16,-248.60L440.69,-207.15L423.65,-211.46L419.64,-195.57L436.68,-191.26L419.29,-122.41L416.72,-92.31L437.81,-76.44ZM592.37,-39.76L592.38,-39.77L594.50,-58.23L584.87,-59.18L576.16,-66.76L578.18,-82.29L595.57,-151.14L616.06,-145.96L620.07,-161.85L599.58,-167.03L610.05,-208.48L589.32,-213.71L578.85,-172.26L561.81,-176.57L557.80,-160.68L574.84,-156.37L557.45,-87.52L554.88,-57.42L575.97,-41.55ZM696.56,-147.56L651.00,-140.83L623.18,-97.38L627.05,-45.93L663.93,-18.38L709.49,-25.12L737.33,-68.55L733.47,-120.00ZM668.38,-35.99L646.23,-53.26L644.32,-92.02L664.42,-125.24L692.11,-129.93L714.27,-112.65L716.20,-73.87L696.09,-40.66ZM-663.64,-314.57L-684.36,-319.80L-726.23,-154.00L-707.81,-149.35L-703.74,-165.47L-694.50,-146.58L-675.24,-135.65L-631.81,-143.86L-606.54,-187.01L-608.29,-236.99L-642.62,-264.83L-662.28,-265.08L-678.46,-255.85ZM-671.99,-153.56L-691.86,-171.19L-693.73,-209.01L-675.02,-241.64L-648.26,-247.50L-628.10,-229.79L-627.71,-192.34L-645.83,-159.57ZM-568.62,-138.43L-572.68,-173.26L-483.79,-150.83L-480.54,-158.83L-483.18,-206.16L-520.22,-234.47L-565.18,-227.59L-592.42,-184.00L-589.14,-132.70L-552.84,-105.29L-516.08,-106.76L-494.10,-127.47L-507.69,-141.62L-525.42,-124.30L-547.22,-122.62ZM-567.80,-189.69L-547.87,-213.81L-524.68,-216.89L-503.71,-200.97L-500.79,-172.76ZM-316.93,-136.07L-389.68,-132.41L-410.65,-107.25L-405.19,-76.94L-378.11,-61.05L-355.62,-59.81L-332.33,-69.26L-335.92,-55.44L-316.58,-50.55L-297.04,-127.79L-299.07,-165.70L-331.85,-186.81L-366.08,-187.08L-387.65,-167.67L-373.77,-153.41L-358.62,-168.95L-338.24,-170.42L-319.58,-159.44ZM-321.55,-117.75L-329.22,-87.44L-347.12,-78.30L-370.53,-77.12L-385.12,-85.10L-388.33,-102.59L-374.98,-116.53ZM-144.01,-21.44L-180.45,-51.85L-181.25,-104.57L-154.63,-150.35L-109.01,-160.04L-79.31,-140.79L-71.13,-108.24L-49.14,-113.18L-60.93,-152.17L-104.27,-178.82L-169.28,-167.78L-204.73,-110.48L-200.73,-43.23L-148.76,-2.66L-98.00,-5.80L-69.78,-33.44L-86.14,-48.80L-110.36,-24.46ZM-31.04,21.56L10.83,-144.24L-9.90,-149.47L-51.77,16.32ZM49.91,-106.67L59.47,-112.98L62.45,-124.69L56.93,-135.01L46.29,-137.70L36.74,-131.20L33.78,-119.50L39.27,-109.36ZM19.62,34.35L49.86,-85.39L29.13,-90.63L-1.11,29.12ZM48.48,41.64L69.25,46.88L84.89,-15.06L98.29,-44.31L126.27,-52.08L140.58,-40.53L140.65,-18.40L120.87,59.92L141.60,65.15L159.10,-4.16L173.12,-28.48L198.84,-33.75L214.04,-19.89L212.66,2.28L193.47,78.25L214.20,83.49L235.25,0.13L233.63,-32.48L207.82,-50.49L184.90,-50.75L163.90,-36.75L156.20,-57.24L135.85,-68.55L112.92,-69.34L93.11,-56.34L97.41,-73.38L78.76,-78.09ZM336.12,28.85L263.36,32.51L242.39,57.67L247.86,87.97L274.93,103.86L297.43,105.11L320.72,95.65L317.13,109.48L336.47,114.37L356.01,37.13L353.98,-0.78L321.19,-21.89L286.97,-22.16L265.40,-2.75L279.28,11.50L294.43,-4.03L314.80,-5.51L333.47,5.48ZM331.49,47.17L323.83,77.48L305.93,86.62L282.51,87.80L267.93,79.81L264.72,62.32L278.07,48.38ZM418.68,136.84L418.69,136.83L420.81,118.37L411.18,117.42L402.47,109.83L404.49,94.31L421.88,25.46L442.37,30.63L446.38,14.75L425.89,9.57L436.36,-31.88L415.63,-37.11L405.16,4.34L388.12,0.03L384.11,15.92L401.15,20.22L383.76,89.08L381.19,119.18L402.29,135.05ZM473.35,124.70L469.30,89.88L558.19,112.30L561.43,104.30L558.80,56.97L521.76,28.66L476.80,35.55L449.55,79.14L452.83,130.44L489.13,157.84L525.90,156.38L547.88,135.66L534.29,121.52L516.56,138.83L494.76,140.51ZM474.18,73.45L494.11,49.33L517.29,46.25L538.27,62.17L541.19,90.37ZM-622.21,92.72L-567.18,106.62L-501.32,100.87L-465.61,43.58L-471.10,-24.26L-528.30,-59.93L-580.34,-73.07ZM-595.45,78.91L-563.41,-47.97L-533.24,-40.35L-492.47,-16.53L-488.57,37.55L-515.57,83.10L-564.59,86.70ZM-431.45,116.67L-435.50,81.84L-346.61,104.27L-343.37,96.27L-346.00,48.94L-383.04,20.63L-428.00,27.52L-455.25,71.11L-451.97,122.40L-415.67,149.81L-378.90,148.35L-356.92,127.63L-370.51,113.48L-388.24,130.80L-410.04,132.48ZM-430.62,65.42L-410.69,41.29L-387.50,38.21L-366.53,54.13L-363.61,82.34ZM-315.24,130.79L-334.92,134.57L-329.13,161.03L-296.21,180.11L-260.23,180.23L-237.49,155.46L-240.59,128.54L-258.15,113.08L-284.16,98.48L-298.11,88.35L-300.78,77.50L-291.13,67.37L-270.50,67.97L-253.03,77.83L-248.81,95.10L-229.30,91.28L-234.37,68.67L-265.25,50.47L-300.42,50.61L-321.60,74.72L-317.94,99.03L-299.67,114.19L-272.13,129.45L-260.00,139.94L-259.12,151.96L-271.89,163.53L-291.05,162.62L-311.23,149.82ZM-172.60,57.60L-163.03,51.29L-160.06,39.58L-165.58,29.26L-176.22,26.57L-185.77,33.07L-188.73,44.76L-183.24,54.91ZM-202.89,198.62L-172.65,78.88L-193.37,73.64L-223.61,193.39ZM-140.49,267.66L-93.05,260.50L-72.65,223.18L-44.39,111.27L-62.81,106.62L-66.88,122.74L-76.58,104.01L-96.06,92.72L-139.49,100.93L-164.74,144.08L-163.01,194.05L-128.69,221.90L-109.03,222.16L-92.15,213.11L-94.43,221.88L-108.53,246.83L-135.49,249.93L-153.30,239.68L-156.75,221.54L-175.24,224.95L-170.36,249.62ZM-99.34,110.64L-79.45,128.29L-77.60,166.11L-96.31,198.73L-123.06,204.59L-143.21,186.89L-143.60,149.44L-125.48,116.66ZM-45.03,238.48L-24.31,243.72L-7.85,178.55L8.91,150.05L35.02,145.34L52.16,159.22L51.69,184.77L33.14,258.22L53.86,263.46L72.41,190.00L73.79,151.50L43.74,128.54L20.11,127.82L-0.50,140.72L3.86,123.45L-14.79,118.74ZM114.30,254.49L110.24,219.66L199.13,242.09L202.37,234.09L199.74,186.76L162.70,158.45L117.74,165.33L90.49,208.92L93.78,260.22L130.08,287.63L166.84,286.16L188.82,265.45L175.23,251.30L157.50,268.62L135.70,270.30ZM115.12,203.24L135.05,179.11L158.24,176.03L179.21,191.95L182.13,220.16ZM285.73,210.96L299.99,220.04L310.62,204.11L292.28,191.30L270.94,192.44L252.26,208.23L257.50,187.50L238.84,182.79L208.90,301.36L229.33,307.77L245.67,243.06L260.54,216.11ZM350.11,341.34L360.37,335.09L363.27,323.38L357.10,313.07L345.48,310.19L335.22,316.44L332.32,328.16L338.49,338.47ZM344.26,294.62L364.34,299.69L365.94,293.34L373.27,277.35L387.95,266.42L412.88,252.12L429.17,226.85L423.03,188.55L387.11,165.77L348.58,170.03L327.18,197.36L342.77,209.78L359.55,187.31L382.57,184.60L402.94,196.93L406.45,222.61L395.52,240.11L378.21,250.21L357.03,264.60L345.87,288.27Z" fill="#ffffff" stroke="#000000"/>
    <path d="M-742.62,-473.78L-763.83,-471.48L-757.78,-430.39L-713.09,-401.34L-668.14,-400.59L-637.32,-431.79L-639.70,-464.23L-664.36,-488.43L-706.57,-516.46L-715.59,-527.72L-715.83,-540.54L-697.71,-557.67L-671.13,-556.44L-646.10,-538.89L-642.76,-510.66L-621.54,-512.18L-626.56,-549.26L-666.48,-575.06L-708.73,-575.30L-737.39,-545.63L-738.25,-521.88L-715.56,-495.83L-672.52,-468.13L-661.26,-453.68L-661.12,-437.82L-677.86,-419.54L-708.44,-419.96L-737.57,-439.75ZM-541.20,-487.10L-586.55,-482.67L-616.17,-441.10L-614.86,-390.07L-579.76,-361.03L-534.40,-365.47L-504.77,-407.02L-506.07,-458.06ZM-574.50,-378.21L-595.55,-396.36L-595.54,-434.77L-574.05,-466.61L-546.46,-469.90L-525.40,-451.73L-525.39,-413.31L-546.89,-381.48ZM-438.65,-290.47L-444.82,-293.58L-453.45,-278.26L-441.32,-272.11L-416.30,-275.00L-395.50,-295.57L-310.85,-406.20L-326.09,-418.23L-388.40,-335.80L-394.63,-439.20L-414.90,-438.02L-405.38,-313.97L-413.90,-302.69L-426.76,-291.62ZM-241.42,-395.40L-286.77,-390.98L-316.39,-349.41L-315.08,-298.37L-279.98,-269.34L-234.62,-273.77L-204.99,-315.33L-206.29,-366.36ZM-274.72,-286.52L-295.77,-304.67L-295.76,-343.07L-274.27,-374.92L-246.68,-378.20L-225.62,-360.04L-225.61,-321.62L-247.11,-289.79ZM-69.90,-337.90L-90.13,-344.09L-109.50,-280.74L-127.53,-253.13L-153.55,-249.75L-169.83,-264.32L-168.00,-289.93L-146.19,-361.24L-166.42,-367.42L-188.27,-295.96L-191.61,-257.76L-163.03,-233.61L-139.54,-232.33L-118.69,-243.47L-123.85,-226.62L-105.65,-221.05ZM29.53,-179.70L81.23,-261.94L76.27,-165.40L96.72,-159.15L166.65,-261.62L150.99,-272.30L95.46,-188.78L99.43,-286.11L78.98,-292.36L26.62,-207.13L29.64,-309.42L9.34,-309.73L8.63,-186.09ZM245.28,-199.41L173.20,-199.35L151.25,-175.52L155.16,-145.30L181.14,-128.27L203.31,-125.94L226.79,-134.15L222.57,-120.66L241.44,-114.88L264.53,-190.26L264.38,-227.82L233.01,-250.29L199.20,-252.23L176.94,-234.10L189.96,-219.34L205.69,-233.94L225.90,-234.41L243.81,-222.64ZM239.81,-181.53L230.75,-151.95L212.62,-143.80L189.42,-143.78L175.40,-152.38L173.08,-169.82L186.96,-182.95ZM271.90,-105.57L292.12,-99.38L311.58,-162.98L329.53,-190.32L355.57,-193.70L371.83,-179.15L370.11,-153.92L348.19,-82.23L368.41,-76.05L390.34,-147.73L393.58,-185.71L365.01,-209.88L341.70,-211.74L320.69,-200.00L325.84,-216.86L307.64,-222.42ZM446.31,-50.50L446.32,-50.51L449.32,-68.65L439.84,-70.06L431.61,-77.98L434.37,-93.23L454.92,-160.42L474.92,-154.30L479.66,-169.81L459.66,-175.92L472.03,-216.37L451.81,-222.56L439.44,-182.11L422.81,-187.20L418.06,-171.69L434.69,-166.60L414.14,-99.41L410.12,-69.79L430.20,-53.07ZM581.15,-9.26L581.15,-9.27L584.15,-27.41L574.68,-28.82L566.44,-36.74L569.20,-51.98L589.75,-119.18L609.75,-113.06L614.50,-128.56L594.50,-134.68L606.87,-175.13L586.64,-181.32L574.27,-140.87L557.64,-145.96L552.90,-130.45L569.53,-125.36L548.98,-58.17L544.96,-28.54L565.03,-11.83ZM689.38,-110.70L644.03,-106.27L614.41,-64.70L615.72,-13.67L650.82,15.37L696.18,10.94L725.82,-30.62L724.51,-81.65ZM656.08,-1.81L635.03,-19.96L635.05,-58.37L656.53,-90.21L684.12,-93.50L705.18,-75.33L705.19,-36.91L683.69,-5.08ZM-646.67,-342.30L-666.90,-348.49L-716.39,-186.69L-698.41,-181.19L-693.60,-196.92L-685.39,-177.79L-666.89,-166.05L-623.57,-172.04L-596.49,-213.45L-595.77,-262.92L-628.33,-292.12L-647.75,-293.33L-664.20,-284.99ZM-662.80,-183.59L-681.58,-201.99L-681.58,-239.45L-661.49,-270.78L-634.76,-275.27L-615.70,-256.78L-617.15,-219.75L-636.66,-188.25ZM-561.39,-163.58L-563.70,-198.20L-476.95,-171.69L-473.35,-179.44L-473.64,-226.34L-508.86,-256.13L-553.63,-251.52L-582.69,-209.78L-581.95,-158.92L-547.42,-130.06L-511.02,-129.71L-488.28,-149.11L-501.02,-163.75L-519.39,-147.51L-541.01,-146.91ZM-558.07,-214.20L-537.19,-237.06L-514.13,-238.97L-494.18,-222.21L-492.67,-194.19ZM-312.77,-148.93L-384.85,-148.87L-406.80,-125.04L-402.89,-94.82L-376.91,-77.79L-354.74,-75.46L-331.26,-83.67L-335.48,-70.18L-316.61,-64.40L-293.52,-139.78L-293.67,-177.34L-325.04,-199.81L-358.85,-201.75L-381.12,-183.62L-368.09,-168.86L-352.36,-183.46L-332.15,-183.93L-314.24,-172.16ZM-318.24,-131.05L-327.30,-101.47L-345.43,-93.32L-368.63,-93.30L-382.65,-101.90L-384.97,-119.34L-371.09,-132.47ZM-147.49,-27.19L-182.01,-59.02L-180.22,-111.16L-151.67,-155.10L-106.12,-162.44L-77.70,-141.98L-71.22,-109.40L-49.25,-113.21L-58.99,-152.31L-100.51,-180.77L-165.30,-173.04L-203.14,-118.15L-202.48,-51.50L-153.10,-8.86L-102.79,-9.48L-73.54,-35.41L-88.96,-51.40L-114.08,-28.53ZM-37.95,20.83L11.54,-140.97L-8.68,-147.16L-58.18,14.64ZM48.33,-101.93L58.08,-107.70L61.60,-119.12L56.65,-129.59L46.26,-132.77L36.51,-126.82L33.01,-115.40L37.94,-105.11ZM11.49,35.95L47.23,-80.90L27.01,-87.09L-8.74,29.77ZM39.65,44.57L59.92,50.77L78.41,-9.68L93.09,-37.94L121.11,-44.24L134.69,-32.13L133.68,-10.25L110.30,66.18L130.53,72.36L151.22,4.72L166.27,-18.62L191.94,-22.58L206.29,-8.14L203.83,13.71L181.15,87.85L201.38,94.04L226.26,12.69L226.26,-19.62L201.63,-38.68L178.99,-40.06L157.56,-27.25L150.95,-47.88L131.39,-60.05L108.77,-61.95L88.56,-50.08L93.64,-66.71L75.44,-72.28ZM324.55,46.01L252.46,46.06L230.51,69.90L234.43,100.12L260.41,117.14L282.57,119.48L306.05,111.27L301.83,124.76L320.71,130.53L343.79,55.16L343.65,17.60L312.28,-4.87L278.47,-6.81L256.20,11.31L269.22,26.08L284.95,11.47L305.16,11.01L323.07,22.78ZM319.08,63.89L310.02,93.46L291.88,101.62L268.68,101.64L254.66,93.03L252.34,75.59L266.22,62.47ZM400.85,156.76L400.86,156.76L403.86,138.62L394.39,137.20L386.15,129.29L388.91,114.04L409.46,46.85L429.46,52.97L434.20,37.46L414.20,31.34L426.58,-9.11L406.35,-15.29L393.98,25.16L377.35,20.07L372.61,35.58L389.24,40.66L368.68,107.86L364.67,137.48L384.74,154.20ZM455.48,147.45L453.17,112.83L539.92,139.34L543.52,131.60L543.23,84.70L508.01,54.91L463.24,59.51L434.18,101.25L434.92,152.11L469.45,180.97L505.85,181.32L528.59,161.93L515.85,147.28L497.48,163.53L475.86,164.12ZM458.80,96.84L479.68,73.97L502.74,72.06L522.69,88.82L524.20,116.84ZM-625.66,62.24L-571.96,78.67L-506.59,76.21L-468.50,21.33L-470.60,-45.98L-525.39,-84.03L-576.17,-99.56ZM-598.54,49.89L-560.67,-73.93L-531.23,-64.93L-492.10,-39.39L-490.89,14.25L-519.80,57.95L-568.43,59.10ZM-438.31,95.24L-440.61,60.62L-353.86,87.13L-350.27,79.39L-350.55,32.48L-385.78,2.69L-430.54,7.30L-459.60,49.04L-458.87,99.90L-424.34,128.76L-387.93,129.11L-365.19,109.72L-377.94,95.07L-396.30,111.31L-417.93,111.91ZM-434.98,44.63L-414.11,21.76L-391.04,19.85L-371.10,36.61L-369.59,64.63ZM-324.15,114.87L-343.79,117.65L-339.36,144.08L-307.77,164.55L-272.22,166.43L-248.53,143.06L-250.28,116.30L-266.87,100.17L-291.86,84.47L-305.15,73.77L-307.26,62.92L-297.23,53.38L-276.87,54.98L-260.08,65.58L-256.76,82.86L-237.29,80.04L-241.20,57.44L-270.82,37.95L-305.59,36.36L-327.70,59.15L-325.28,83.36L-307.96,99.23L-281.49,115.66L-270.01,126.62L-269.74,138.54L-282.92,149.35L-301.81,147.52L-321.13,133.88ZM-179.61,49.52L-169.85,43.76L-166.34,32.33L-171.28,21.86L-181.67,18.69L-191.42,24.64L-194.92,36.05L-189.99,46.34ZM-216.44,187.41L-180.70,70.55L-200.93,64.36L-236.67,181.22ZM-158.16,258.70L-110.93,253.94L-88.94,218.05L-55.53,108.84L-73.51,103.34L-78.32,119.07L-86.99,100.09L-105.69,87.98L-149.01,93.96L-176.08,135.38L-176.81,184.85L-144.25,214.04L-124.84,215.26L-107.72,207.15L-110.40,215.70L-125.55,239.67L-152.35,241.41L-169.45,230.41L-171.96,212.32L-190.41,214.78L-186.80,239.41ZM-109.81,105.53L-91.02,123.94L-91.03,161.41L-111.12,192.73L-137.85,197.21L-156.90,178.73L-155.44,141.71L-135.93,110.20ZM-62.39,234.53L-42.17,240.71L-22.71,177.12L-4.76,149.77L21.27,146.39L37.54,160.95L35.82,186.18L13.90,257.86L34.12,264.05L56.05,192.36L59.29,154.38L30.72,130.22L7.41,128.35L-13.60,140.09L-8.45,123.24L-26.65,117.67ZM94.28,258.14L91.98,223.52L178.73,250.04L182.33,242.29L182.04,195.39L146.82,165.60L102.05,170.20L72.99,211.95L73.72,262.81L108.26,291.66L144.66,292.02L167.40,272.62L154.66,257.97L136.29,274.22L114.67,274.81ZM97.61,207.53L118.48,184.67L141.55,182.76L161.50,199.52L163.00,227.53ZM265.83,223.51L279.48,233.18L290.77,217.96L273.27,204.41L252.13,204.48L232.89,219.18L239.08,198.95L220.88,193.38L185.48,309.10L205.36,316.43L224.68,253.28L240.69,227.36ZM323.08,355.52L333.53,349.84L336.96,338.41L331.37,327.91L320.03,324.50L309.58,330.18L306.15,341.61L311.74,352.11ZM319.59,309.05L339.18,315.04L341.07,308.85L349.10,293.41L364.14,283.32L389.48,270.42L406.81,246.23L402.62,208.08L368.24,183.82L329.95,186.14L307.46,212.10L322.26,225.14L339.94,203.75L362.83,202.20L382.36,215.39L384.56,240.93L372.91,257.70L355.31,266.83L333.67,280.01L321.48,302.86Z" fill="#ffffff" stroke="#000000"/>
    <path d="M-716.84,-503.77L-737.91,-502.54L-733.94,-461.63L-691.20,-430.74L-646.82,-427.80L-614.83,-457.13L-615.61,-489.29L-638.79,-514.41L-679.12,-544.18L-687.48,-555.74L-687.10,-568.42L-668.36,-584.47L-642.15,-581.95L-618.28,-563.38L-616.36,-535.33L-595.31,-535.79L-598.46,-572.67L-636.64,-600.12L-678.38,-602.43L-708.15,-574.51L-710.16,-551.09L-689.02,-524.24L-647.84,-494.76L-637.43,-479.93L-638.06,-464.24L-655.50,-447.00L-685.70,-448.91L-713.51,-469.89ZM-517.15,-507.08L-562.18,-504.92L-593.48,-465.29L-594.69,-414.80L-561.42,-384.39L-516.39,-386.55L-485.07,-426.17L-483.86,-476.66ZM-555.39,-401.11L-575.29,-420.08L-573.40,-458.02L-550.62,-488.44L-523.19,-490.34L-503.27,-471.36L-505.14,-433.39L-527.94,-402.99ZM-425.44,-307.76L-431.39,-311.14L-440.66,-296.42L-428.97,-289.75L-404.11,-291.38L-382.55,-310.69L-293.49,-415.86L-307.96,-428.50L-373.56,-350.09L-374.66,-452.57L-394.75,-452.40L-391.42,-329.35L-400.38,-318.63L-413.63,-308.32ZM-225.41,-401.80L-270.44,-399.65L-301.74,-360.02L-302.95,-309.52L-269.68,-279.11L-224.65,-281.28L-193.32,-320.89L-192.11,-371.38ZM-263.64,-295.84L-283.55,-314.80L-281.66,-352.75L-258.87,-383.17L-231.45,-385.06L-211.53,-366.08L-213.40,-328.12L-236.20,-297.71ZM-58.74,-336.59L-78.42,-343.69L-100.67,-282.04L-119.83,-255.64L-145.71,-253.57L-161.08,-268.76L-158.02,-293.98L-132.98,-363.38L-152.66,-370.48L-177.76,-300.94L-182.93,-263.35L-155.87,-238.09L-132.71,-235.68L-111.57,-245.66L-117.49,-229.26L-99.77,-222.87ZM31.78,-175.40L86.88,-254.13L77.27,-158.98L97.17,-151.80L171.28,-249.63L156.33,-260.96L97.37,-181.14L106.06,-277.12L86.15,-284.31L30.24,-202.65L38.24,-303.57L18.19,-304.88L11.44,-182.74ZM245.94,-184.32L174.71,-187.79L151.85,-165.31L154.24,-135.26L179.08,-117.16L200.87,-113.77L224.47,-120.73L219.64,-107.61L238.01,-100.98L264.51,-174.33L266.20,-211.45L236.30,-235.19L202.99,-238.76L180.10,-221.94L192.24,-206.71L208.50,-220.38L228.49,-219.85L245.62,-207.34ZM239.66,-166.92L229.26,-138.13L210.94,-130.96L188.01,-132.08L174.58,-141.27L173.14,-158.61L187.50,-170.90ZM267.65,-90.28L287.33,-83.18L309.66,-145.07L328.74,-171.21L354.63,-173.28L369.99,-158.10L367.06,-133.26L341.89,-63.49L361.57,-56.39L386.75,-126.15L391.81,-163.53L364.76,-188.80L341.81,-191.78L320.48,-181.21L326.40,-197.61L308.68,-204.01ZM437.30,-27.34L437.31,-27.34L441.16,-45.12L431.87,-46.98L424.12,-55.21L427.59,-70.14L451.18,-135.53L470.65,-128.51L476.09,-143.60L456.63,-150.62L470.83,-189.99L451.15,-197.09L436.94,-157.72L420.76,-163.56L415.32,-148.47L431.50,-142.63L407.90,-77.24L402.48,-48.16L421.50,-30.67ZM568.52,20.01L568.52,20.01L572.37,2.23L563.08,0.37L555.33,-7.86L558.80,-22.79L582.40,-88.18L601.86,-81.16L607.31,-96.25L587.85,-103.27L602.05,-142.64L582.37,-149.74L568.16,-110.37L551.98,-116.21L546.53,-101.12L562.72,-95.28L539.12,-29.89L533.70,-0.81L552.72,16.68ZM680.44,-74.93L635.41,-72.77L604.10,-33.14L602.89,17.35L636.16,47.76L681.20,45.60L712.52,5.98L713.73,-44.51ZM642.20,31.04L622.29,12.07L624.18,-25.87L646.97,-56.29L674.39,-58.19L694.32,-39.21L692.44,-1.24L669.65,29.16ZM-628.46,-369.15L-648.14,-376.25L-704.96,-218.79L-687.47,-212.48L-681.94,-227.79L-674.77,-208.49L-657.06,-195.98L-613.96,-199.78L-585.17,-239.37L-582.05,-288.22L-612.79,-318.67L-631.92,-320.82L-648.58,-313.38ZM-652.16,-213.11L-669.82,-232.21L-667.99,-269.23L-646.60,-299.21L-619.97,-302.34L-602.04,-283.13L-605.29,-246.61L-626.10,-216.44ZM-552.93,-188.38L-553.52,-222.70L-469.09,-192.26L-465.16,-199.74L-463.15,-246.10L-496.49,-277.26L-540.96,-274.90L-571.71,-235.07L-573.48,-184.78L-540.77,-154.57L-504.81,-152.44L-481.39,-170.50L-493.27,-185.59L-512.21,-170.44L-533.61,-170.91ZM-547.17,-238.23L-525.43,-259.80L-502.54,-260.56L-483.65,-243.03L-483.53,-215.27ZM-307.97,-161.74L-379.20,-165.21L-402.06,-142.73L-399.67,-112.68L-374.83,-94.58L-353.04,-91.19L-329.44,-98.15L-334.27,-85.03L-315.90,-78.40L-289.40,-151.75L-287.71,-188.87L-317.61,-212.61L-350.92,-216.19L-373.81,-199.36L-361.66,-184.13L-345.41,-197.80L-325.41,-197.27L-308.29,-184.76ZM-314.25,-144.34L-324.65,-115.55L-342.97,-108.38L-365.89,-109.50L-379.33,-118.69L-380.77,-136.03L-366.41,-148.32ZM-150.61,-33.35L-183.16,-66.50L-178.84,-117.93L-148.48,-159.96L-103.11,-164.98L-76.03,-143.36L-71.22,-110.86L-49.32,-113.54L-57.03,-152.67L-96.67,-182.82L-161.07,-178.35L-201.15,-125.96L-203.75,-60.07L-157.05,-15.51L-107.30,-13.66L-77.14,-37.86L-91.59,-54.41L-117.53,-33.04ZM-44.72,19.46L12.10,-138.00L-7.58,-145.11L-64.40,12.35ZM46.55,-97.63L56.47,-102.85L60.50,-113.96L56.12,-124.55L46.01,-128.20L36.09,-122.80L32.07,-111.69L36.44,-101.28ZM3.40,36.82L44.43,-76.90L24.75,-84.01L-16.28,29.72ZM30.80,46.71L50.53,53.83L71.76,-5.00L87.65,-32.20L115.65,-37.06L128.47,-24.43L126.40,-2.86L99.56,71.52L119.25,78.62L143.00,12.80L159.01,-9.54L184.57,-12.19L198.04,2.78L194.55,24.25L168.51,96.40L188.20,103.50L216.76,24.34L218.34,-7.59L194.94,-27.62L172.63,-30.10L150.83,-18.49L145.31,-39.20L126.58,-52.18L104.32,-55.16L83.76,-44.42L89.60,-60.61L71.89,-67.00ZM312.25,62.07L241.02,58.60L218.16,81.08L220.56,111.13L245.39,129.23L267.18,132.62L290.79,125.66L285.95,138.78L304.32,145.41L330.82,72.06L332.52,34.93L302.62,11.20L269.30,7.62L246.41,24.45L258.56,39.67L274.82,26.01L294.81,26.54L311.93,39.05ZM305.97,79.47L295.57,108.26L277.26,115.43L254.33,114.31L240.90,105.12L239.46,87.77L253.81,75.49ZM382.24,175.25L382.24,175.25L386.10,157.46L376.80,155.60L369.06,147.38L372.53,132.45L396.12,67.06L415.59,74.08L421.03,58.99L401.57,51.97L415.77,12.60L396.09,5.50L381.88,44.87L365.70,39.03L360.26,54.12L376.44,59.96L352.84,125.35L347.42,154.43L366.44,171.92ZM436.67,168.72L436.09,134.40L520.51,164.84L524.45,157.36L526.46,111.00L493.11,79.84L448.65,82.20L417.89,122.03L416.13,172.32L448.84,202.53L484.79,204.65L508.21,186.60L496.34,171.50L477.39,186.66L455.99,186.19ZM442.43,118.87L464.18,97.29L487.06,96.54L505.96,114.07L506.07,141.83ZM-627.49,31.62L-575.22,50.48L-510.51,51.25L-470.19,-1.12L-468.97,-67.73L-521.25,-108.01L-570.67,-125.84ZM-600.09,20.75L-556.60,-99.76L-527.95,-89.42L-490.54,-62.27L-491.97,-9.21L-522.67,32.56L-570.78,31.32ZM-443.97,73.39L-444.55,39.07L-360.13,69.52L-356.20,62.04L-354.19,15.68L-387.53,-15.48L-432.00,-13.13L-462.75,26.70L-464.52,77.00L-431.80,107.20L-395.85,109.33L-372.43,91.28L-384.30,76.18L-403.25,91.34L-424.65,90.86ZM-438.21,23.54L-416.46,1.97L-393.58,1.21L-374.68,18.75L-374.57,46.51ZM-332.13,98.38L-351.67,100.16L-348.59,126.50L-318.37,148.27L-283.33,151.87L-258.78,129.94L-259.20,103.41L-274.80,86.66L-298.73,69.92L-311.34,58.70L-312.89,47.87L-302.52,38.94L-282.48,41.52L-266.41,52.81L-263.97,70.04L-244.59,68.21L-247.35,45.69L-275.66,24.98L-309.94,21.71L-332.90,43.15L-331.70,67.18L-315.36,83.72L-290.01,101.25L-279.20,112.64L-279.51,124.43L-293.07,134.47L-311.64,131.74L-330.07,117.31ZM-186.10,40.88L-176.17,35.66L-172.14,24.54L-176.52,13.96L-186.63,10.31L-196.56,15.71L-200.57,26.82L-196.21,37.23ZM-229.24,175.33L-188.21,61.60L-207.89,54.50L-248.93,168.22ZM-175.14,248.62L-128.23,246.23L-104.75,211.85L-66.39,105.56L-83.89,99.25L-89.41,114.56L-97.06,95.38L-114.94,82.49L-158.04,86.29L-186.81,125.89L-189.95,174.74L-159.21,205.18L-140.08,207.34L-122.77,200.15L-125.84,208.48L-141.98,231.42L-168.55,231.83L-184.91,220.12L-186.51,202.12L-204.86,203.65L-202.49,228.16ZM-119.86,99.64L-102.20,118.75L-104.05,155.78L-125.43,185.74L-152.06,188.86L-169.98,169.67L-166.73,133.16L-145.91,102.97ZM-79.32,229.43L-59.64,236.53L-37.31,174.64L-18.23,148.50L7.66,146.43L23.02,161.61L20.09,186.45L-5.08,256.22L14.60,263.32L39.78,193.55L44.84,156.18L17.79,130.91L-5.16,127.93L-26.49,138.50L-20.57,122.10L-38.29,115.70ZM74.34,260.43L73.76,226.11L158.18,256.55L162.12,249.07L164.13,202.71L130.78,171.55L86.32,173.91L55.56,213.74L53.80,264.03L86.51,294.24L122.46,296.36L145.88,278.31L134.01,263.21L115.06,278.37L93.67,277.90ZM80.10,210.58L101.85,189.00L124.73,188.25L143.63,205.78L143.74,233.54ZM245.55,234.60L258.56,244.82L270.47,230.33L253.83,216.09L232.94,215.13L213.22,228.70L220.32,209.02L202.60,202.63L161.97,315.24L181.25,323.45L203.43,262.00L220.52,237.18ZM295.66,367.84L306.26,362.74L310.22,351.61L305.21,340.97L294.17,337.05L283.57,342.15L279.61,353.28L284.62,363.92ZM294.49,321.76L313.55,328.64L315.72,322.61L324.41,307.74L339.77,298.51L365.44,287.00L383.75,263.95L381.47,226.05L348.69,200.38L310.74,200.81L287.25,225.36L301.23,238.97L319.75,218.70L342.44,218.29L361.09,232.27L362.02,257.63L349.68,273.62L331.85,281.78L309.82,293.75L296.66,315.73Z" fill="#ffffff" stroke="#000000"/>
    <path d="M-689.77,-532.40L-710.65,-532.21L-708.73,-491.60L-668.02,-458.98L-624.31,-453.91L-591.27,-481.32L-590.46,-513.14L-612.14,-539.09L-650.54,-570.47L-658.23,-582.31L-657.23,-594.82L-637.93,-609.76L-612.15,-605.98L-589.48,-586.47L-588.95,-558.66L-568.13,-558.09L-569.44,-594.68L-605.82,-623.67L-646.95,-627.99L-677.73,-601.86L-680.86,-578.82L-661.29,-551.25L-622.05,-520.11L-612.48,-504.95L-613.87,-489.49L-631.94,-473.30L-661.69,-476.67L-688.15,-498.76ZM-492.31,-525.89L-536.91,-525.96L-569.78,-488.34L-573.44,-438.51L-542.06,-406.84L-497.46,-406.77L-464.57,-444.38L-460.91,-494.21ZM-535.28,-423.06L-554.02,-442.78L-550.29,-480.18L-526.29,-509.12L-499.10,-509.65L-480.35,-489.92L-484.05,-452.50L-508.07,-423.58ZM-411.45,-324.47L-417.16,-328.10L-427.05,-314.02L-415.82,-306.85L-391.18,-307.25L-368.93,-325.27L-275.79,-424.83L-289.47,-438.02L-358.13,-363.76L-354.20,-465.07L-374.05,-465.88L-376.78,-344.14L-386.16,-333.98L-399.75,-324.44ZM-209.21,-407.60L-253.81,-407.68L-286.68,-370.05L-290.34,-320.22L-258.96,-288.55L-214.35,-288.48L-181.47,-326.09L-177.80,-375.92ZM-252.18,-304.78L-270.92,-324.49L-267.19,-361.89L-243.19,-390.83L-216.00,-391.36L-197.24,-371.63L-200.95,-334.21L-224.96,-305.29ZM-47.73,-335.02L-66.83,-343.00L-91.82,-283.17L-112.05,-258.03L-137.72,-257.25L-152.16,-273.01L-147.91,-297.78L-119.77,-365.12L-138.87,-373.10L-167.07,-305.61L-174.01,-268.73L-148.51,-242.44L-125.75,-238.93L-104.37,-247.76L-111.02,-231.85L-93.83,-224.66ZM33.82,-171.33L92.12,-246.42L77.96,-152.88L97.27,-144.81L175.28,-237.85L161.07,-249.77L98.91,-173.79L112.19,-268.20L92.88,-276.27L33.63,-198.32L46.47,-297.65L26.73,-299.92L14.08,-179.57ZM245.85,-169.66L175.65,-176.57L151.96,-155.48L152.85,-125.67L176.51,-106.58L197.87,-102.16L221.53,-107.89L216.12,-95.16L233.94,-87.71L263.72,-158.89L267.20,-195.48L238.82,-220.40L206.08,-225.56L182.64,-210.06L193.90,-194.42L210.63,-207.12L230.36,-205.62L246.66,-192.43ZM238.80,-152.78L227.12,-124.85L208.67,-118.66L186.07,-120.88L173.25,-130.62L172.67,-147.83L187.46,-159.27ZM262.70,-75.69L281.80,-67.71L306.90,-127.77L327.03,-152.66L352.71,-153.44L367.14,-137.69L363.03,-113.29L334.75,-45.59L353.85,-37.61L382.13,-105.31L388.97,-141.98L363.48,-168.28L340.95,-172.35L319.35,-162.95L326.00,-178.86L308.81,-186.05ZM427.25,-5.20L427.25,-5.20L431.93,-22.58L422.84,-24.88L415.59,-33.38L419.74,-47.96L446.26,-111.42L465.15,-103.53L471.26,-118.17L452.38,-126.06L468.34,-164.26L449.24,-172.24L433.28,-134.04L417.57,-140.60L411.45,-125.96L427.16,-119.40L400.64,-55.94L393.87,-27.48L411.80,-9.26ZM554.58,48.00L554.59,48.00L559.26,30.62L550.17,28.33L542.92,19.82L547.08,5.24L573.59,-58.21L592.48,-50.32L598.60,-64.97L579.71,-72.86L595.67,-111.06L576.57,-119.04L560.61,-80.84L544.90,-87.40L538.79,-72.76L554.49,-66.20L527.98,-2.74L521.20,25.73L539.13,43.94ZM669.80,-40.32L625.21,-40.40L592.34,-2.77L588.68,47.06L620.06,78.73L664.66,78.80L697.54,41.19L701.21,-8.64ZM626.84,62.50L608.10,42.79L611.82,5.39L635.83,-23.55L663.02,-24.08L681.77,-4.35L678.06,33.07L654.05,61.99ZM-609.04,-395.06L-628.14,-403.04L-691.98,-250.24L-675.00,-243.15L-668.80,-258.01L-662.66,-238.59L-645.77,-225.36L-603.00,-227.01L-572.62,-264.72L-567.14,-312.83L-596.03,-344.42L-614.82,-347.48L-631.65,-340.95ZM-640.09,-242.05L-656.60,-261.78L-652.98,-298.27L-630.38,-326.84L-603.92,-328.63L-587.14,-308.78L-592.14,-272.85L-614.18,-244.06ZM-543.26,-212.76L-542.16,-246.70L-460.23,-212.49L-455.98,-219.69L-451.73,-265.39L-483.15,-297.81L-527.20,-297.66L-559.53,-259.81L-563.73,-210.21L-532.89,-178.76L-497.47,-174.90L-473.45,-191.59L-484.44,-207.09L-503.90,-193.04L-525.02,-194.55ZM-535.13,-261.73L-512.59,-281.98L-489.94,-281.61L-472.13,-263.36L-473.37,-235.93ZM-302.53,-174.45L-372.74,-181.36L-396.43,-160.27L-395.53,-130.46L-371.88,-111.37L-350.51,-106.95L-326.85,-112.67L-332.27,-99.95L-314.44,-92.50L-284.67,-163.68L-281.18,-200.27L-309.56,-225.19L-342.30,-230.35L-365.74,-214.85L-354.49,-199.21L-337.76,-211.91L-318.03,-210.41L-301.72,-197.21ZM-309.59,-157.57L-321.27,-129.63L-339.72,-123.45L-362.32,-125.67L-375.14,-135.41L-375.71,-152.62L-360.93,-164.05ZM-153.33,-39.90L-183.88,-74.24L-177.09,-124.85L-145.04,-164.89L-99.96,-167.63L-74.27,-144.95L-71.10,-112.60L-49.33,-114.18L-55.04,-153.21L-92.73,-184.94L-156.58,-183.68L-198.74,-133.88L-204.53,-68.90L-160.57,-22.59L-111.51,-18.33L-80.52,-40.76L-93.99,-57.82L-120.67,-37.97ZM-51.29,17.46L12.55,-135.34L-6.55,-143.32L-70.39,9.48ZM44.61,-93.77L54.67,-98.44L59.19,-109.22L55.39,-119.90L45.58,-124.00L35.50,-119.15L30.99,-108.37L34.80,-97.87ZM-4.60,36.96L41.51,-73.39L22.41,-81.37L-23.70,28.98ZM21.99,48.08L41.14,56.07L64.99,-1.01L82.01,-27.11L109.92,-30.54L121.97,-17.43L118.87,3.78L88.72,75.95L107.82,83.93L134.51,20.06L151.42,-1.23L176.81,-2.60L189.38,12.85L184.88,33.89L155.62,103.91L174.72,111.89L206.82,35.07L209.94,3.61L187.80,-17.34L165.88,-20.88L143.77,-10.47L139.33,-31.20L121.46,-44.94L99.61,-48.98L78.77,-39.37L85.34,-55.08L68.15,-62.26ZM299.32,77.02L229.11,70.11L205.43,91.20L206.32,121.01L229.98,140.10L251.34,144.52L275.00,138.80L269.59,151.53L287.41,158.98L317.18,87.80L320.67,51.20L292.29,26.28L259.55,21.12L236.11,36.63L247.37,52.27L264.10,39.56L283.83,41.06L300.13,54.26ZM292.27,93.91L280.59,121.84L262.14,128.03L239.54,125.80L226.72,116.07L226.14,98.86L240.93,87.42ZM362.94,192.27L362.94,192.27L367.62,174.89L358.53,172.59L351.27,164.09L355.43,149.51L381.94,86.05L400.83,93.95L406.95,79.30L388.06,71.41L404.02,33.21L384.92,25.23L368.96,63.43L353.26,56.87L347.14,71.51L362.85,78.07L336.33,141.53L329.56,169.99L347.49,188.21ZM417.04,188.48L418.14,154.54L500.06,188.75L504.32,181.55L508.57,135.85L477.15,103.43L433.10,103.58L400.76,141.43L396.56,191.03L427.40,222.48L462.82,226.34L486.84,209.65L475.85,194.15L456.39,208.20L435.27,206.69ZM425.17,139.51L447.71,119.26L470.36,119.63L488.17,137.88L486.92,165.31ZM-627.69,0.96L-576.97,22.15L-513.07,26.08L-470.66,-23.69L-466.21,-89.45L-515.88,-131.80L-563.85,-151.84ZM-600.08,-8.44L-551.22,-125.37L-523.42,-113.76L-487.78,-85.10L-491.79,-32.75L-524.17,7.02L-571.64,3.44ZM-448.41,51.21L-447.30,17.28L-365.38,51.49L-361.13,44.29L-356.87,-1.42L-388.30,-33.84L-432.34,-33.68L-464.68,4.16L-468.88,53.77L-438.04,85.21L-402.62,89.08L-378.60,72.38L-389.59,56.89L-409.05,70.93L-430.17,69.42ZM-440.28,2.24L-417.73,-18.01L-395.09,-17.64L-377.28,0.61L-378.52,28.05ZM-339.13,81.38L-358.52,82.18L-356.76,108.35L-327.97,131.34L-293.53,136.61L-268.19,116.14L-267.31,89.91L-281.91,72.59L-304.73,54.89L-316.64,43.18L-317.65,32.41L-306.96,24.09L-287.29,27.62L-271.96,39.56L-270.39,56.71L-251.16,55.85L-252.78,33.46L-279.75,11.61L-313.45,6.71L-337.19,26.77L-337.17,50.57L-321.84,67.71L-297.65,86.26L-287.53,98.05L-288.41,109.69L-302.30,118.94L-320.52,115.33L-338.02,100.18ZM-192.03,31.70L-181.97,27.03L-177.44,16.25L-181.25,5.57L-191.06,1.47L-201.13,6.32L-205.64,17.10L-201.84,27.60ZM-241.24,162.43L-195.13,52.08L-214.23,44.10L-260.34,154.45ZM-191.36,237.50L-144.90,237.43L-120.02,204.61L-76.92,101.47L-93.90,94.38L-100.11,109.23L-106.72,89.91L-123.76,76.30L-166.53,77.95L-196.89,115.66L-202.39,163.77L-173.50,195.35L-154.71,198.42L-137.25,192.17L-140.69,200.25L-157.76,222.12L-184.04,221.23L-199.62,208.86L-200.32,190.99L-218.53,191.61L-217.39,215.94ZM-129.46,93.00L-112.94,112.75L-116.58,149.24L-139.18,177.80L-165.64,179.58L-182.40,159.74L-177.41,123.83L-155.36,95.02ZM-95.75,223.22L-76.66,231.20L-51.56,171.14L-31.43,146.25L-5.75,145.47L8.69,161.22L4.58,185.62L-23.71,253.32L-4.61,261.30L23.68,193.60L30.51,156.93L5.02,130.63L-17.51,126.56L-39.11,135.96L-32.46,120.05L-49.65,112.87ZM54.55,261.37L55.66,227.43L137.58,261.64L141.83,254.44L146.09,208.73L114.67,176.31L70.62,176.47L38.28,214.32L34.08,263.92L64.92,295.37L100.34,299.23L124.36,282.54L113.37,267.04L93.91,281.09L72.79,279.57ZM62.69,212.40L85.23,192.14L107.88,192.52L125.68,210.77L124.44,238.20ZM224.98,244.22L237.34,254.96L249.81,241.23L234.07,226.34L213.47,224.37L193.32,236.82L201.30,217.72L184.11,210.54L138.45,319.81L157.10,328.87L182.02,269.24L200.12,245.55ZM267.97,378.32L278.70,373.81L283.15,363.00L278.72,352.24L268.00,347.83L257.28,352.34L252.83,363.15L257.25,373.91ZM269.06,332.73L287.56,340.46L290.01,334.61L299.32,320.35L314.94,311.98L340.87,301.86L360.09,279.98L359.70,242.42L328.56,215.46L291.04,214.02L266.63,237.13L279.78,251.26L299.07,232.14L321.50,232.85L339.25,247.58L338.93,272.67L325.96,287.87L307.93,295.06L285.59,305.81L271.51,326.88Z" fill="#ffffff" stroke="#000000"/>
    <path d="M-661.50,-559.59L-682.14,-560.43L-682.23,-520.21L-643.60,-486.00L-600.67,-478.85L-566.69,-504.31L-564.33,-535.71L-584.48,-562.41L-620.88,-595.29L-627.90,-607.36L-626.29,-619.67L-606.50,-633.49L-581.22,-628.50L-559.77,-608.11L-560.62,-580.61L-540.08,-579.02L-539.58,-615.24L-574.10,-645.66L-614.52,-651.94L-646.21,-627.63L-650.43,-605.02L-632.44,-576.83L-595.19,-544.15L-586.49,-528.70L-588.62,-513.49L-607.26,-498.38L-636.48,-503.17L-661.54,-526.28ZM-466.75,-543.51L-510.80,-545.76L-545.11,-510.20L-551.17,-461.15L-521.71,-428.33L-477.65,-426.08L-443.33,-461.63L-437.27,-510.67ZM-514.22,-444.02L-531.77,-464.41L-526.26,-501.18L-501.13,-528.60L-474.25,-527.79L-456.68,-507.38L-462.18,-470.60L-487.31,-443.20ZM-396.71,-340.56L-402.18,-344.43L-412.63,-331.00L-401.89,-323.37L-377.53,-322.56L-354.67,-339.27L-257.78,-433.07L-270.65,-446.78L-342.11,-376.77L-333.28,-476.66L-352.85,-478.44L-361.50,-358.30L-371.26,-348.73L-385.16,-339.97ZM-192.85,-412.80L-236.90,-415.05L-271.22,-379.49L-277.27,-330.44L-247.82,-297.62L-203.76,-295.37L-169.43,-330.92L-163.37,-379.96ZM-240.32,-313.32L-257.88,-333.71L-252.37,-370.47L-227.24,-397.89L-200.35,-397.08L-182.79,-376.68L-188.28,-339.89L-213.42,-312.49ZM-36.86,-333.19L-55.34,-342.01L-82.97,-284.13L-104.17,-260.28L-129.58,-260.76L-143.07,-277.04L-137.66,-301.30L-106.57,-366.46L-125.04,-375.27L-156.20,-309.98L-164.87,-273.88L-140.96,-246.67L-118.65,-242.08L-97.10,-249.76L-104.45,-234.36L-87.82,-226.43ZM35.69,-167.49L96.96,-238.83L78.40,-147.11L97.08,-138.19L178.70,-226.29L165.24,-238.76L100.12,-166.74L117.85,-259.36L99.16,-268.28L36.83,-194.17L54.37,-291.67L34.97,-294.88L16.59,-176.60ZM245.08,-155.47L176.06,-165.74L151.63,-146.06L151.05,-116.57L173.49,-96.55L194.38,-91.14L218.03,-95.63L212.06,-83.32L229.30,-75.09L262.20,-143.95L267.43,-179.94L240.62,-205.94L208.52,-212.64L184.61,-198.47L194.96,-182.47L212.11,-194.21L231.53,-191.76L246.99,-177.92ZM237.28,-139.14L224.38,-112.12L205.85,-106.90L183.63,-110.21L171.44,-120.45L171.71,-137.48L186.88,-148.06ZM257.13,-61.81L275.61,-53.00L303.34,-111.10L324.44,-134.71L349.85,-134.22L363.34,-117.96L358.09,-94.05L326.83,-28.55L345.31,-19.73L376.57,-85.23L385.11,-121.13L361.21,-148.35L339.16,-153.48L317.36,-145.24L324.71,-160.64L308.08,-168.58ZM416.24,15.87L416.24,15.87L421.71,-1.07L412.85,-3.78L406.09,-12.54L410.92,-26.74L440.21,-88.13L458.49,-79.41L465.25,-93.58L446.97,-102.30L464.61,-139.26L446.13,-148.07L428.50,-111.12L413.30,-118.37L406.54,-104.20L421.73,-96.95L392.44,-35.56L384.35,-7.77L401.17,11.11ZM539.43,74.66L539.44,74.66L544.90,57.72L536.04,55.01L529.29,46.25L534.11,32.05L563.40,-29.34L581.68,-20.62L588.44,-34.79L570.17,-43.51L587.80,-80.47L569.32,-89.28L551.69,-52.33L536.49,-59.58L529.73,-45.41L544.93,-38.16L515.63,23.23L507.54,51.02L524.37,69.90ZM657.58,-6.96L613.53,-9.22L579.21,26.35L573.16,75.40L602.62,108.22L646.67,110.47L681.00,74.92L687.06,25.87ZM610.11,92.52L592.56,72.13L598.06,35.36L623.19,7.95L650.08,8.76L667.65,29.16L662.15,65.95L637.01,93.35ZM-588.46,-419.97L-606.94,-428.79L-677.49,-280.96L-661.06,-273.12L-654.20,-287.49L-649.08,-268.01L-633.05,-254.12L-590.72,-253.65L-558.86,-289.42L-551.09,-336.68L-578.08,-369.30L-596.50,-373.24L-613.45,-367.61ZM-626.62,-270.32L-641.97,-290.63L-636.61,-326.50L-612.88,-353.62L-586.65,-354.09L-571.05,-333.65L-577.74,-298.41L-600.93,-271.04ZM-532.39,-236.65L-529.64,-270.13L-450.38,-232.32L-445.83,-239.22L-439.39,-284.17L-468.85,-317.74L-512.37,-319.74L-546.17,-283.93L-552.75,-235.13L-523.81,-202.56L-489.01,-197.01L-464.46,-212.32L-474.57,-228.17L-494.48,-215.25L-515.27,-217.77ZM-521.96,-284.63L-498.71,-303.54L-476.35,-302.06L-459.65,-283.16L-462.22,-256.12ZM-296.45,-187.03L-365.47,-197.29L-389.90,-177.62L-390.48,-148.12L-368.04,-128.10L-347.15,-122.69L-323.50,-127.19L-329.47,-114.88L-312.22,-106.65L-279.33,-175.51L-274.09,-211.49L-300.91,-237.50L-333.01,-244.20L-356.92,-230.03L-346.56,-214.03L-329.41,-225.76L-310.00,-223.31L-294.53,-209.48ZM-304.24,-170.69L-317.15,-143.67L-335.68,-138.46L-357.90,-141.76L-370.09,-152.01L-369.81,-169.04L-354.65,-179.62ZM-155.63,-46.81L-184.13,-82.23L-174.95,-131.90L-141.33,-169.88L-96.66,-170.39L-72.38,-146.72L-70.84,-114.61L-49.26,-115.10L-52.98,-153.94L-88.67,-187.13L-151.80,-189.01L-195.89,-141.87L-204.80,-77.96L-163.63,-30.06L-115.37,-23.45L-83.65,-44.10L-96.13,-61.61L-123.45,-43.31ZM-57.63,14.85L12.92,-132.98L-5.56,-141.80L-76.11,6.03ZM42.55,-90.34L52.72,-94.46L57.72,-104.90L54.48,-115.63L44.99,-120.16L34.80,-115.86L29.82,-105.43L33.06,-94.87ZM-12.46,36.40L38.49,-70.36L20.01,-79.18L-30.94,27.59ZM13.27,48.68L31.79,57.52L58.15,2.29L76.25,-22.66L103.98,-24.69L115.25,-11.14L111.15,9.66L77.83,79.49L96.30,88.31L125.80,26.51L143.55,6.31L168.69,6.19L180.36,22.07L174.89,42.64L142.56,110.38L161.04,119.20L196.51,44.87L201.13,13.94L180.28,-7.83L158.80,-12.40L136.44,-3.20L133.07,-23.90L116.08,-38.35L94.70,-43.41L73.65,-34.93L80.90,-50.13L64.26,-58.06ZM285.84,90.85L216.81,80.58L192.38,100.26L191.81,129.75L214.24,149.77L235.13,155.18L258.79,150.69L252.82,163.00L270.06,171.23L302.96,102.36L308.19,66.38L281.37,40.38L249.28,33.68L225.37,47.85L235.72,63.85L252.87,52.11L272.29,54.56L287.75,68.40ZM278.04,107.18L265.13,134.20L246.60,139.42L224.39,136.11L212.20,125.87L212.47,108.84L227.64,98.26ZM343.04,207.81L343.05,207.81L348.52,190.87L339.65,188.16L332.90,179.40L337.72,165.20L367.02,103.81L385.29,112.53L392.05,98.36L373.78,89.64L391.42,52.68L372.94,43.87L355.30,80.82L340.11,73.57L333.35,87.74L348.54,94.99L319.24,156.38L311.16,184.17L327.98,203.05ZM396.68,206.71L399.43,173.24L478.69,211.04L483.24,204.14L489.68,159.19L460.22,125.63L416.70,123.63L382.90,159.44L376.32,208.24L405.25,240.81L440.06,246.36L464.60,231.04L454.50,215.20L434.59,228.12L413.80,225.59ZM407.10,158.73L430.36,139.83L452.72,141.30L469.42,160.20L466.85,187.25ZM-626.26,-29.64L-577.19,-6.22L-514.25,0.78L-469.92,-46.31L-462.30,-111.06L-509.31,-155.33L-555.71,-177.47ZM-598.52,-37.58L-544.53,-150.71L-517.64,-137.87L-483.83,-107.82L-490.35,-56.29L-524.29,-18.59L-571.01,-24.45ZM-451.60,28.77L-448.85,-4.70L-369.59,33.10L-365.03,26.20L-358.60,-18.75L-388.05,-52.31L-431.58,-54.31L-465.37,-18.50L-471.95,30.30L-443.02,62.87L-408.22,68.42L-383.67,53.10L-393.77,37.26L-413.68,50.18L-434.47,47.65ZM-441.17,-19.21L-417.91,-38.11L-395.55,-36.64L-378.85,-17.74L-381.42,9.31ZM-345.11,63.92L-364.31,63.76L-363.86,89.70L-336.54,113.82L-302.77,120.71L-276.74,101.73L-274.59,75.86L-288.16,58.04L-309.84,39.43L-321.03,27.29L-321.50,16.59L-310.53,8.90L-291.27,13.34L-276.71,25.89L-276.00,42.91L-256.96,43.00L-257.47,20.80L-283.04,-2.10L-316.10,-8.59L-340.53,10.06L-341.68,33.58L-327.37,51.26L-304.38,70.78L-294.96,82.92L-296.40,94.37L-310.57,102.83L-328.39,98.37L-344.94,82.54ZM-197.36,22.04L-187.19,17.92L-182.20,7.48L-185.43,-3.25L-194.92,-7.78L-205.11,-3.48L-210.10,6.95L-206.85,17.51ZM-252.37,148.78L-201.42,42.02L-219.90,33.20L-270.85,139.96ZM-206.77,225.38L-160.87,227.59L-134.68,196.38L-87.06,96.59L-103.48,88.75L-110.34,103.13L-115.93,83.72L-132.10,69.44L-174.43,68.97L-206.27,104.75L-214.06,152.01L-187.06,184.62L-168.65,188.57L-151.10,183.25L-154.89,191.06L-172.83,211.84L-198.74,209.66L-213.53,196.69L-213.35,179.00L-231.37,178.72L-231.43,202.81ZM-138.55,85.66L-123.19,105.97L-128.58,141.85L-152.30,168.96L-178.52,169.42L-194.12,149.00L-187.42,113.76L-164.24,86.39ZM-111.62,215.95L-93.14,224.77L-65.41,166.66L-44.31,143.06L-18.90,143.54L-5.41,159.81L-10.66,183.72L-41.92,249.21L-23.44,258.03L7.82,192.54L16.36,156.64L-7.54,129.41L-29.59,124.29L-51.39,132.52L-44.04,117.12L-60.67,109.19ZM35.01,260.99L37.76,227.52L117.02,265.32L121.57,258.42L128.01,213.47L98.55,179.91L55.03,177.90L21.23,213.71L14.65,262.51L43.59,295.09L78.39,300.63L102.94,285.32L92.84,269.47L72.92,282.40L52.13,279.87ZM45.44,213.01L68.70,194.10L91.05,195.58L107.75,214.48L105.18,241.52ZM204.21,252.39L215.90,263.60L228.89,250.64L214.07,235.16L193.82,232.21L173.30,243.53L182.12,225.05L165.48,217.11L115.03,322.83L133.01,332.69L160.55,275.00L179.59,252.48ZM240.13,386.97L250.94,383.03L255.87,372.58L252.02,361.73L241.65,356.85L230.83,360.78L225.90,371.24L229.75,382.09ZM243.44,341.99L261.33,350.53L264.03,344.87L273.93,331.23L289.77,323.73L315.88,315.00L335.94,294.33L337.39,257.20L307.94,229.04L270.95,225.79L245.70,247.42L258.01,262.03L278.00,244.08L300.13,245.87L316.94,261.29L315.40,286.07L301.84,300.45L283.68,306.67L261.08,316.20L246.13,336.33Z" fill="#ffffff" stroke="#000000"/>
    <path d="M-632.10,-585.31L-652.44,-587.14L-654.50,-547.42L-618.02,-511.74L-575.96,-502.57L-541.15,-526.06L-537.28,-556.96L-555.88,-584.32L-590.22,-618.58L-596.57,-630.85L-594.38,-642.93L-574.15,-655.61L-549.43,-649.44L-529.24,-628.26L-531.41,-601.13L-511.20,-598.56L-508.94,-634.31L-541.55,-666.05L-581.18,-674.23L-613.66,-651.77L-618.94,-629.64L-602.55,-600.91L-567.35,-566.81L-559.51,-551.12L-562.36,-536.20L-581.51,-522.19L-610.14,-528.35L-633.77,-552.40ZM-440.50,-559.89L-483.91,-564.27L-519.54,-530.82L-527.92,-482.67L-500.43,-448.81L-457.02,-444.43L-421.38,-477.86L-412.99,-526.02ZM-492.26,-463.95L-508.60,-484.95L-501.36,-520.99L-475.20,-546.85L-448.68,-544.73L-432.33,-523.72L-439.56,-487.65L-465.73,-461.81ZM-381.25,-356.00L-386.46,-360.09L-397.44,-347.33L-387.21,-339.27L-363.18,-337.27L-339.78,-352.67L-239.49,-440.59L-251.53,-454.75L-325.54,-389.10L-311.93,-487.33L-331.18,-490.05L-345.60,-371.80L-355.71,-362.82L-369.87,-354.84ZM-176.34,-417.38L-219.75,-421.77L-255.38,-388.32L-263.76,-340.16L-236.27,-306.30L-192.86,-301.92L-157.21,-335.36L-148.83,-383.51ZM-228.10,-321.44L-244.44,-342.44L-237.20,-378.49L-211.04,-404.34L-184.52,-402.23L-168.17,-381.21L-175.39,-345.14L-201.56,-319.30ZM-26.15,-331.12L-43.98,-340.73L-74.09,-284.91L-96.21,-262.39L-121.28,-264.11L-133.81,-280.85L-127.28,-304.55L-93.38,-367.38L-111.20,-377.00L-145.17,-314.03L-155.50,-278.80L-133.21,-250.74L-111.39,-245.12L-89.73,-251.65L-97.74,-236.80L-81.70,-228.15ZM37.41,-163.89L101.42,-231.36L78.60,-141.67L96.62,-131.95L181.55,-214.98L168.87,-227.96L101.02,-160.00L123.06,-250.62L105.04,-260.34L39.84,-190.19L61.93,-285.64L42.93,-289.76L18.99,-173.82ZM243.66,-141.78L175.98,-155.29L150.88,-137.05L148.88,-107.94L170.06,-87.07L190.43,-80.71L214.01,-83.99L207.51,-72.12L224.15,-63.15L260.01,-129.56L266.94,-164.85L241.72,-191.85L210.34,-200.04L186.03,-187.21L195.48,-170.90L212.99,-181.65L232.05,-178.28L246.65,-163.86ZM235.16,-126.02L221.09,-99.96L202.53,-95.72L180.75,-100.07L169.20,-110.79L170.31,-127.59L185.81,-137.30ZM250.98,-48.67L268.80,-39.06L299.04,-95.10L321.04,-117.39L346.12,-115.66L358.64,-98.93L352.28,-75.57L318.21,-12.41L336.03,-2.79L370.11,-65.96L380.30,-101.00L358.03,-129.07L336.49,-135.21L314.56,-128.14L322.57,-142.99L306.53,-151.64ZM404.35,35.85L404.36,35.85L410.59,19.38L401.96,16.27L395.72,7.29L401.18,-6.50L433.12,-65.71L450.74,-56.21L458.11,-69.87L440.49,-79.38L459.72,-115.02L441.90,-124.63L422.67,-88.99L408.01,-96.90L400.64,-83.23L415.30,-75.33L383.36,-16.12L374.01,10.94L389.70,30.41ZM523.16,99.95L523.17,99.95L529.40,83.48L520.77,80.37L514.53,71.38L519.99,57.59L551.93,-1.62L569.56,7.89L576.93,-5.77L559.30,-15.28L578.53,-50.92L560.71,-60.54L541.48,-24.89L526.83,-32.80L519.46,-19.14L534.11,-11.23L502.17,47.98L492.82,75.03L508.52,94.50ZM643.87,25.10L600.46,20.72L564.82,54.17L556.44,102.32L583.94,136.19L627.35,140.56L662.99,107.13L671.38,58.97ZM592.10,121.04L575.77,100.05L583.00,64.00L609.17,38.14L635.69,40.26L652.04,61.27L644.81,97.34L618.64,123.18ZM-566.78,-443.81L-584.60,-453.43L-661.51,-310.85L-645.67,-302.31L-638.19,-316.17L-634.09,-296.67L-618.93,-282.17L-577.14,-279.63L-543.92,-313.41L-533.93,-359.72L-559.01,-393.25L-577.01,-398.05L-594.02,-393.32ZM-611.79,-297.86L-625.96,-318.67L-618.91,-353.84L-594.15,-379.47L-568.21,-378.65L-553.80,-357.70L-562.13,-323.21L-586.38,-297.31ZM-520.36,-259.99L-516.01,-292.92L-439.56,-251.70L-434.72,-258.30L-426.17,-302.38L-453.62,-336.98L-496.52,-341.08L-531.65,-307.37L-540.54,-259.48L-513.55,-225.89L-479.44,-218.71L-454.45,-232.64L-463.65,-248.78L-483.95,-236.99L-504.36,-240.50ZM-507.71,-306.88L-483.81,-324.41L-461.80,-321.86L-446.23,-302.38L-450.09,-275.79ZM-289.72,-199.43L-357.40,-212.95L-382.49,-194.71L-384.50,-165.60L-363.32,-144.73L-342.95,-138.36L-319.36,-141.65L-325.87,-129.78L-309.23,-120.81L-273.37,-187.22L-266.44,-222.51L-291.66,-249.51L-323.03,-257.69L-347.35,-244.87L-337.90,-228.55L-320.39,-239.31L-301.33,-235.94L-286.73,-221.52ZM-298.22,-183.68L-312.29,-157.62L-330.85,-153.38L-352.63,-157.72L-364.17,-168.44L-363.07,-185.25L-347.57,-194.96ZM-157.48,-54.03L-183.89,-90.42L-172.40,-139.03L-137.33,-174.91L-93.18,-173.22L-70.36,-148.66L-70.40,-116.86L-49.06,-116.29L-50.84,-154.84L-84.47,-189.37L-146.74,-194.31L-192.60,-149.91L-204.52,-87.21L-166.19,-37.88L-118.85,-28.99L-86.51,-47.84L-97.98,-65.75L-125.86,-49.00ZM-63.69,11.66L13.23,-130.91L-4.59,-140.53L-81.51,2.05ZM40.42,-87.34L50.66,-90.92L56.11,-100.98L53.44,-111.74L44.28,-116.68L34.01,-112.93L28.58,-102.87L31.26,-92.28ZM-20.12,35.16L35.43,-67.81L17.61,-77.42L-37.94,25.55ZM4.70,48.55L22.56,58.19L51.29,4.92L70.39,-18.84L97.89,-19.49L108.35,-5.56L103.29,14.79L66.95,82.14L84.78,91.75L116.93,32.15L135.45,13.06L160.30,14.18L171.05,30.44L164.63,50.48L129.39,115.82L147.21,125.43L185.88,53.75L191.96,23.42L172.43,0.89L151.43,-4.67L128.90,3.32L126.58,-17.28L110.51,-32.39L89.63,-38.43L68.42,-31.09L76.33,-45.75L60.29,-54.40ZM271.87,103.53L204.19,90.02L179.10,108.26L177.09,137.36L198.27,158.24L218.64,164.60L242.23,161.32L235.72,173.19L252.36,182.16L288.22,115.75L295.15,80.46L269.93,53.46L238.56,45.27L214.24,58.10L223.69,74.41L241.20,63.66L260.26,67.03L274.86,81.45ZM263.37,119.28L249.30,145.35L230.74,149.59L208.96,145.24L197.42,134.52L198.52,117.71L214.02,108.01ZM322.66,221.87L322.67,221.87L328.90,205.40L320.27,202.29L314.03,193.31L319.49,179.51L351.43,120.31L369.05,129.81L376.42,116.15L358.80,106.64L378.03,71.00L360.21,61.38L340.98,97.03L326.32,89.12L318.95,102.79L333.61,110.69L301.67,169.90L292.32,196.96L308.01,216.42ZM375.69,223.41L380.05,190.47L456.49,231.69L461.33,225.10L469.88,181.01L442.43,146.42L399.53,142.31L364.40,176.03L355.51,223.91L382.50,257.51L416.61,264.69L441.60,250.76L432.40,234.61L412.10,246.41L391.69,242.89ZM388.34,176.52L412.24,158.98L434.25,161.53L449.82,181.02L445.96,207.61ZM-623.20,-60.10L-575.87,-34.56L-514.05,-24.57L-467.96,-68.92L-457.27,-132.50L-501.53,-178.53L-546.29,-202.67ZM-595.42,-66.58L-536.55,-175.69L-510.61,-161.70L-478.69,-130.36L-487.65,-79.78L-523.02,-44.20L-568.88,-52.27ZM-453.53,6.15L-449.18,-26.78L-372.73,14.44L-367.90,7.84L-359.34,-36.24L-386.80,-70.84L-429.69,-74.94L-464.83,-41.23L-473.71,6.66L-446.72,40.25L-412.62,47.43L-387.62,33.50L-396.82,17.35L-417.13,29.15L-437.54,25.64ZM-440.88,-40.74L-416.98,-58.27L-394.97,-55.72L-379.40,-36.24L-383.26,-9.65ZM-350.06,46.07L-369.02,44.98L-369.84,70.62L-344.03,95.79L-311.01,104.24L-284.37,86.77L-280.98,61.32L-293.52,43.05L-314.02,23.61L-324.49,11.06L-324.42,0.48L-313.21,-6.59L-294.40,-1.25L-280.64,11.86L-280.77,28.70L-261.96,29.72L-261.38,7.77L-285.52,-16.10L-317.86,-24.14L-342.90,-6.90L-345.19,16.27L-331.92,34.44L-310.16,54.84L-301.45,67.29L-303.43,78.53L-317.84,86.20L-335.23,80.92L-350.80,64.48ZM-202.07,11.93L-191.82,8.35L-186.37,-1.71L-189.05,-12.47L-198.20,-17.41L-208.48,-13.66L-213.91,-3.60L-211.22,6.99ZM-262.60,134.44L-207.05,31.47L-224.88,21.85L-280.43,124.82ZM-221.31,212.33L-176.07,216.75L-148.67,187.21L-96.75,90.97L-112.60,82.42L-120.07,96.28L-124.64,76.84L-139.92,61.94L-181.71,59.41L-214.92,93.19L-224.91,139.50L-199.85,173.03L-181.85,177.83L-164.25,173.43L-168.38,180.96L-187.11,200.61L-212.60,197.20L-226.58,183.66L-225.54,166.19L-243.32,165.04L-244.56,188.83ZM-147.08,77.65L-132.91,98.47L-139.98,133.64L-164.74,159.26L-190.67,158.44L-205.07,137.50L-196.74,103.02L-172.49,77.11ZM-126.86,207.67L-109.03,217.28L-78.80,161.24L-56.80,138.96L-31.72,140.68L-19.19,157.41L-25.55,180.77L-59.63,243.94L-41.81,253.55L-7.73,190.38L2.46,155.34L-19.81,127.28L-41.35,121.14L-63.28,128.20L-55.26,113.35L-71.30,104.70ZM15.78,259.33L20.13,226.40L96.58,267.62L101.42,261.02L109.97,216.94L82.52,182.34L39.62,178.24L4.49,211.96L-4.40,259.84L22.59,293.43L56.70,300.61L81.69,286.69L72.49,270.54L52.19,282.33L31.78,278.82ZM28.43,212.45L52.33,194.91L74.34,197.46L89.91,216.95L86.05,243.53ZM183.34,259.11L194.34,270.76L207.80,258.59L193.92,242.58L174.06,238.67L153.24,248.84L162.85,231.02L146.81,222.37L91.81,324.33L109.08,334.95L139.10,279.31L159.01,258.00ZM212.23,393.81L223.11,390.45L228.49,380.36L225.22,369.46L215.21,364.12L204.34,367.48L198.96,377.57L202.23,388.47ZM217.70,349.53L234.97,358.84L237.91,353.39L248.35,340.40L264.37,333.76L290.59,326.42L311.41,306.98L314.66,270.38L286.95,241.12L250.57,236.10L224.57,256.23L236.01,271.26L256.63,254.51L278.41,257.37L294.26,273.42L291.52,297.82L277.42,311.36L259.18,316.62L236.39,324.92L220.65,344.08Z" fill="#ffffff" stroke="#000000"/>
    <path d="M-906.35,492L-906.35,469.28L-898.22,492L-894.99,492L-886.86,469.28L-886.86,492L-883.25,492L-883.25,464.64L-888.22,464.64L-896.55,487.33L-904.68,464.64L-909.96,464.64L-909.96,492ZM-865.67,478.75L-876.82,482.17L-879.09,486.89L-877.05,491.38L-872.23,492.78L-868.69,492.09L-865.45,489.71L-865.46,492L-862.27,492L-862.27,479.25L-864.06,473.45L-869.98,471.46L-875.30,472.76L-877.88,476.62L-875.17,478.28L-873.43,475.28L-870.33,474.25L-867.00,475.23ZM-865.67,481.77L-865.68,486.77L-868.09,488.89L-871.68,489.99L-874.26,489.33L-875.44,486.74L-873.91,484.05ZM-857.12,492L-853.70,492L-853.70,481.25L-852.22,476.17L-848.35,474.41L-845.15,475.90L-844.22,479.88L-844.22,492L-840.80,492L-840.80,479.88L-842.09,473.85L-847.66,471.47L-851.35,472.28L-854.04,475.09L-854.04,472.24L-857.12,472.24ZM-833.34,468.94L-832.11,467.58L-832.10,465.65L-833.36,464.27L-835.12,464.27L-836.35,465.65L-836.35,467.58L-835.10,468.94ZM-832.52,492L-832.52,472.24L-835.94,472.24L-835.94,492ZM-818.31,468.12L-817.85,465.29L-820.94,464.71L-825.30,466.41L-826.70,471.29L-826.70,472.24L-829.67,472.24L-829.67,474.86L-826.70,474.86L-826.70,492L-823.40,492L-823.40,474.86L-819.56,474.86L-819.56,472.24L-823.40,472.24L-823.40,471.21L-822.75,468.65L-820.52,467.74ZM-807.97,471.46L-814.77,474.29L-817.39,482.12L-814.77,489.95L-807.97,492.78L-801.17,489.95L-798.55,482.12L-801.16,474.29ZM-807.97,489.87L-812.08,488.06L-813.90,482.12L-812.08,476.18L-807.97,474.37L-803.85,476.18L-802.04,482.12L-803.85,488.06ZM-795.03,492L-791.61,492L-791.61,481.25L-790.13,476.17L-786.26,474.41L-783.06,475.90L-782.13,479.88L-782.13,492L-778.71,492L-778.71,479.88L-780.00,473.85L-785.56,471.47L-789.26,472.28L-791.95,475.09L-791.95,472.24L-795.03,472.24ZM-765.45,492.27L-765.45,492.26L-765.85,489.32L-767.38,489.55L-769.03,488.71L-769.32,486.22L-769.32,474.86L-765.94,474.86L-765.94,472.24L-769.32,472.24L-769.32,465.40L-772.74,465.40L-772.74,472.24L-775.55,472.24L-775.55,474.86L-772.74,474.86L-772.74,486.22L-771.96,491.00L-768.07,492.63ZM-737.50,487.93L-737.50,478.13L-749.05,478.13L-749.05,481.31L-740.99,481.31L-740.97,486.22L-748.63,489.75L-755.95,486.41L-758.55,478.32L-756.06,470.17L-749.21,466.88L-744.27,468.25L-741.30,473.01L-738.24,471.11L-741.44,465.93L-749.13,463.79L-758.98,468.04L-762.42,478.32L-758.78,488.60L-748.74,492.86ZM-724.35,474.77L-721.78,475.62L-720.76,472.73L-724.11,471.47L-727.37,472.48L-729.65,475.66L-729.65,472.24L-732.73,472.24L-732.73,491.81L-729.31,492L-729.31,481.32L-728.06,476.56ZM-710.01,471.46L-716.81,474.29L-719.42,482.12L-716.81,489.95L-710.01,492.78L-703.20,489.95L-700.58,482.12L-703.20,474.29ZM-710.01,489.87L-714.12,488.06L-715.93,482.12L-714.12,476.18L-710.01,474.37L-705.89,476.18L-704.07,482.12L-705.89,488.06ZM-688.58,492.27L-688.58,492.26L-688.97,489.32L-690.51,489.55L-692.15,488.71L-692.45,486.22L-692.45,474.86L-689.07,474.86L-689.07,472.24L-692.45,472.24L-692.45,465.40L-695.87,465.40L-695.87,472.24L-698.68,472.24L-698.68,474.86L-695.87,474.86L-695.87,486.22L-695.09,491.00L-691.19,492.63ZM-680.57,488.24L-682.57,483.00L-667.90,482.99L-667.71,481.63L-669.97,474.39L-676.83,471.45L-683.53,474.28L-686.05,482.11L-683.53,489.93L-676.83,492.76L-671.18,491.10L-668.58,487.02L-671.25,485.36L-673.32,488.74L-676.63,489.86ZM-682.45,480.26L-680.31,475.73L-676.83,474.35L-672.95,476.00L-671.40,480.26ZM-661.99,485.88L-664.90,487.24L-662.96,491.11L-657.11,492.78L-651.52,491.39L-648.97,486.66L-650.50,482.61L-653.83,480.90L-658.44,479.65L-661.00,478.62L-661.84,477.05L-660.74,475.10L-657.52,474.38L-654.42,475.23L-653.09,477.74L-650.21,476.38L-651.88,473.07L-657.39,471.46L-662.84,472.86L-665.18,477.43L-663.66,481.06L-660.23,482.69L-655.36,483.98L-653.07,485.13L-652.46,486.96L-653.99,489.26L-656.99,489.87L-660.63,488.67ZM-641.92,483.45L-638.72,483.45L-637.20,484.67L-633.14,492.30L-630.05,490.63L-634.16,483.45L-636.67,482.04L-634.62,480.06L-632.77,476.14L-631.66,475.64L-630.10,475.39L-630.56,472.24L-633.40,472.52L-635.30,474.17L-637.43,478.82L-638.72,480.60L-641.91,480.60L-641.91,464.64L-643.66,464.64L-645.32,464.64L-645.33,492L-641.92,492ZM-625.58,492.01L-615.04,492.01L-607.42,490.45L-604.53,484.21L-606.06,480.03L-610.31,477.70L-606.80,475.27L-605.82,471.62L-608.58,466.13L-615.58,464.63L-625.58,464.63ZM-621.94,476.42L-621.95,467.89L-616.40,467.89L-611.64,468.44L-609.62,472.08L-611.57,475.51L-615.93,476.42ZM-621.94,488.79L-621.94,479.64L-615.54,479.64L-610.64,480.53L-608.45,484.21L-610.32,488.02L-615.04,488.79ZM-592.40,471.46L-599.20,474.29L-601.81,482.12L-599.20,489.95L-592.40,492.78L-585.59,489.95L-582.97,482.12L-585.59,474.29ZM-592.40,489.87L-596.51,488.06L-598.32,482.12L-596.51,476.18L-592.40,474.37L-588.28,476.18L-586.46,482.12L-588.28,488.06ZM-571.27,471.46L-578.07,474.29L-580.68,482.12L-578.07,489.95L-571.27,492.78L-564.46,489.95L-561.85,482.12L-564.46,474.29ZM-571.27,489.87L-575.38,488.06L-577.19,482.12L-575.38,476.18L-571.27,474.37L-567.15,476.18L-565.33,482.12L-567.15,488.06ZM-554.82,483.45L-551.62,483.45L-550.10,484.67L-546.04,492.30L-542.96,490.63L-547.06,483.45L-549.57,482.04L-547.52,480.06L-545.67,476.14L-544.56,475.64L-543.00,475.39L-543.46,472.24L-546.31,472.52L-548.20,474.17L-550.34,478.82L-551.62,480.60L-554.82,480.60L-554.82,464.64L-556.56,464.64L-558.23,464.64L-558.23,492L-554.82,492Z"/>
</svg>