<?xml version="1.0"?>
<svg xmlns="http://www.w3.org/2000/svg" width="1920" height="1080" viewBox="-960 -540 1920 1080">
    <path d="M-445.75,-210L-422,-210L-422,-282.50L-380.50,-282.50L-329.05,-296.20L-311.86,-337.99L-333.31,-380.67L-382.25,-390L-445.75,-390ZM-422,-303.84L-422,-370.25L-380.50,-370.25L-349.56,-363.26L-336.84,-337.24L-347.59,-312.22L-379.92,-303.84ZM-230.14,-323.34L-213.25,-317.75L-206.50,-336.75L-228.52,-345.09L-250.00,-338.43L-265,-317.50L-265,-340L-285.25,-340L-285.25,-211.27L-262.75,-210L-262.75,-280.25L-254.52,-311.59ZM-135.76,-345.13L-180.51,-326.51L-197.72,-275.00L-180.51,-223.49L-135.76,-204.88L-91.00,-223.50L-73.78,-275.00L-90.98,-326.51ZM-135.76,-223.99L-162.81,-235.91L-174.75,-274.98L-162.80,-314.06L-135.76,-325.99L-108.68,-314.06L-96.72,-274.98L-108.68,-235.91ZM-32.93,-361.74L-24.80,-370.64L-24.78,-383.35L-33.07,-392.46L-44.63,-392.46L-52.70,-383.37L-52.70,-370.67L-44.49,-361.74ZM-74.79,-178.77L-74.79,-178.78L-79.25,-160.00L-63.01,-157.50L-34.76,-170.32L-27.62,-202.54L-27.51,-340L-50.00,-340L-50.00,-213.03L-52.45,-185.42L-63.25,-177ZM32.37,-234.73L19.25,-269.23L115.75,-269.25L117,-278.25L102.11,-325.87L57.01,-345.22L12.90,-326.61L-3.67,-275.10L12.90,-223.59L57.01,-204.97L94.15,-215.94L111.25,-242.75L93.73,-253.69L80.10,-231.44L58.29,-224.11ZM20,-287.25L34.12,-317.01L56.99,-326.13L82.50,-315.28L92.75,-287.25ZM193.10,-223.99L166.67,-235.92L155.36,-275.00L166.67,-314.08L193.10,-326.01L213.54,-318.90L225.99,-295.90L245.36,-305.60L228.66,-333.49L193.10,-345.13L148.97,-326.51L132.39,-275.00L148.96,-223.49L193.10,-204.88L228.66,-216.38L245.10,-243.64L225.99,-253.82L213.53,-231.06ZM327.20,-208.26L327.20,-208.26L324.61,-227.65L314.53,-226.14L303.69,-231.63L301.75,-248L301.75,-322.75L324,-322.75L324,-340L301.75,-340L301.75,-385L279.25,-385L279.25,-340L260.75,-340L260.75,-322.75L279.25,-322.75L279.25,-248L284.38,-216.61L310.00,-205.85ZM-625.13,15L-565.38,15L-499.64,-7.84L-477.97,-75.52L-501.05,-143.34L-568.63,-165L-625.13,-165ZM-601.38,-6L-601.38,-143.75L-568.63,-143.75L-520.87,-129.94L-502.95,-75.76L-518.77,-22.31L-567.88,-6ZM-396.52,-98.34L-379.63,-92.75L-372.88,-111.75L-394.90,-120.09L-416.38,-113.43L-431.38,-92.50L-431.38,-115L-451.63,-115L-451.63,13.73L-429.13,15L-429.13,-55.25L-420.90,-86.59ZM-276.02,-72.19L-349.33,-49.70L-364.25,-18.62L-350.86,10.90L-319.14,20.14L-295.86,15.62L-274.53,-0.04L-274.63,15L-253.63,15L-253.59,-68.86L-265.43,-107.03L-304.34,-120.13L-339.34,-111.58L-356.35,-86.21L-338.50,-75.24L-327.05,-95.00L-306.63,-101.75L-284.75,-95.35ZM-276.02,-52.30L-276.04,-19.38L-291.95,-5.45L-315.54,1.79L-332.48,-2.60L-340.27,-19.62L-330.23,-37.29ZM-170.38,15L-143.38,-84.75L-118.38,15L-95.63,15L-56.38,-111L-75.63,-117L-106.13,-14.75L-132.38,-115L-155.13,-115L-181.88,-12L-210.63,-117L-231.38,-111L-193.63,15ZM-32.63,15L27.13,15L92.86,-7.84L114.53,-75.52L91.45,-143.34L23.88,-165L-32.63,-165ZM-8.88,-6L-8.88,-143.75L23.88,-143.75L71.63,-129.94L89.55,-75.76L73.73,-22.31L24.63,-6ZM194.12,-120.13L149.36,-101.51L132.16,-50.00L149.37,1.51L194.12,20.12L238.88,1.50L256.10,-50.00L238.89,-101.51ZM194.12,1.01L167.06,-10.91L155.12,-49.98L167.07,-89.06L194.12,-100.99L221.20,-89.06L233.16,-49.98L221.20,-10.91ZM328.63,15L355.63,-84.75L380.63,15L403.38,15L442.63,-111L423.38,-117L392.88,-14.75L366.63,-115L343.88,-115L317.13,-12L288.38,-117L267.63,-111L305.38,15ZM462.01,15L484.51,15L484.51,-55.75L494.26,-89.15L519.69,-100.70L540.77,-90.95L546.88,-64.75L546.88,15L569.38,15L569.38,-64.75L560.86,-104.40L524.27,-120.09L499.97,-114.73L482.26,-96.25L482.26,-115L462.01,-115Z" fill="#ffffff" stroke="#000000"/>
    <path d="M-437.00,-225.93L-413.51,-224.81L-410.11,-296.51L-369.07,-294.56L-317.55,-305.69L-298.59,-346.20L-317.79,-389.42L-365.75,-400.94L-428.54,-403.93ZM-409.10,-317.61L-405.98,-383.28L-364.95,-381.33L-334.68,-372.97L-323.33,-346.64L-335.13,-322.40L-367.49,-315.63ZM-218.46,-327.88L-202.02,-321.55L-194.45,-340.03L-215.84,-349.31L-237.39,-343.73L-253.21,-323.74L-252.15,-345.99L-272.18,-346.94L-278.23,-219.64L-256.03,-217.33L-252.73,-286.80L-243.13,-317.41ZM-124.10,-344.98L-169.24,-328.68L-188.67,-278.55L-174.07,-226.81L-130.69,-206.30L-85.56,-222.61L-66.11,-272.73L-80.70,-324.47ZM-129.80,-225.20L-155.99,-238.25L-165.96,-277.45L-152.31,-315.54L-125.00,-326.06L-98.79,-312.99L-88.80,-273.78L-102.46,-235.71ZM-21.64,-356.58L-13.18,-365.00L-12.56,-377.57L-20.33,-386.97L-31.76,-387.51L-40.17,-378.90L-40.77,-366.34L-33.07,-357.12ZM-71.63,-177.62L-71.63,-177.63L-76.92,-159.26L-60.98,-156.02L-32.45,-167.37L-23.86,-198.90L-17.30,-334.83L-39.54,-335.89L-45.51,-210.33L-49.23,-183.14L-60.30,-175.32ZM36.96,-227.91L25.61,-262.65L121.04,-258.13L122.70,-266.97L110.22,-314.77L66.53,-336.02L22.03,-319.69L3.22,-269.53L17.19,-217.81L59.94,-197.33L97.18,-206.43L115.35,-232.14L98.54,-243.78L84.01,-222.42L62.10,-216.20ZM27.20,-280.43L42.56,-309.20L65.61,-317.14L90.32,-305.22L99.14,-277.01ZM195.40,-209.75L169.83,-222.78L160.48,-261.96L173.50,-300.08L200.20,-310.63L220.08,-302.63L231.31,-279.31L250.92,-287.99L235.72,-316.35L201.09,-329.53L156.59,-313.20L137.77,-263.04L151.73,-211.32L194.50,-190.84L230.21,-200.54L247.75,-226.72L229.33,-237.70L215.94,-215.78ZM327.27,-187.88L327.28,-187.88L325.62,-207.18L315.59,-206.16L305.12,-212.10L303.98,-228.38L307.49,-302.30L329.49,-301.25L330.30,-318.31L308.30,-319.36L310.41,-363.86L288.16,-364.91L286.05,-320.41L267.76,-321.28L266.94,-304.22L285.24,-303.35L281.73,-229.44L285.33,-198.15L310.15,-186.31ZM-624.96,-11.86L-565.87,-9.05L-499.80,-28.55L-475.18,-94.46L-494.82,-162.61L-560.62,-187.20L-616.50,-189.86ZM-600.48,-31.51L-594.01,-167.73L-561.62,-166.19L-515.05,-150.29L-499.88,-95.86L-518.03,-43.75L-567.35,-29.94ZM-393.56,-113.20L-377.12,-106.87L-369.55,-125.35L-390.94,-134.63L-412.49,-129.05L-428.31,-109.06L-427.25,-131.31L-447.27,-132.26L-453.32,-4.96L-431.13,-2.65L-427.83,-72.12L-418.23,-102.73ZM-275.64,-81.67L-349.19,-62.88L-365.40,-32.85L-353.55,-3.02L-322.61,7.61L-299.38,4.22L-277.55,-10.25L-278.35,4.61L-257.58,5.60L-253.61,-77.33L-263.53,-115.63L-301.38,-130.41L-336.39,-123.60L-354.41,-99.31L-337.28,-87.63L-325.02,-106.62L-304.52,-112.35L-283.18,-104.99ZM-276.57,-62.00L-278.13,-29.46L-294.52,-16.42L-318.19,-10.37L-334.74,-15.51L-341.64,-32.71L-330.88,-49.71ZM-175.26,9.51L-143.87,-87.86L-123.84,11.96L-101.34,13.02L-56.61,-109.73L-75.36,-116.57L-110.33,-16.89L-131.57,-117.26L-154.07,-118.33L-185.36,-17.73L-208.86,-122.91L-229.66,-117.95L-198.25,8.42ZM-39.04,15.98L20.04,18.79L86.12,-0.71L110.73,-66.61L91.09,-134.77L25.29,-159.36L-30.58,-162.01ZM-14.57,-3.67L-8.10,-139.88L24.29,-138.35L70.86,-122.45L86.04,-68.02L67.89,-15.91L18.56,-2.09ZM191.53,-106.98L146.40,-90.68L126.97,-40.55L141.56,11.19L184.94,31.70L230.08,15.39L249.53,-34.73L234.93,-86.47ZM185.84,12.80L159.64,-0.25L149.67,-39.45L163.32,-77.54L190.63,-88.06L216.85,-74.99L226.84,-35.78L213.18,2.29ZM318.19,32.96L349.58,-64.41L369.61,35.40L392.11,36.47L436.85,-86.28L418.09,-93.12L383.13,6.56L361.88,-93.81L339.38,-94.88L308.09,5.72L284.59,-99.46L263.79,-94.50L295.20,31.87ZM450.09,39.23L472.34,40.29L475.67,-29.68L486.88,-62.25L512.58,-72.47L532.96,-61.84L537.76,-35.65L534.02,43.22L556.27,44.27L560.01,-34.59L553.45,-74.20L518.01,-91.43L493.73,-87.27L475.34,-69.83L476.22,-88.37L456.20,-89.33Z" fill="#ffffff" stroke="#000000"/>
    <path d="M-427.62,-241.56L-404.44,-239.35L-397.71,-310.08L-357.22,-306.23L-305.75,-314.81L-285.10,-353.98L-302.06,-397.61L-348.94,-411.26L-410.89,-417.16ZM-395.72,-330.90L-389.55,-395.69L-349.07,-391.83L-319.53,-382.14L-309.54,-355.57L-322.35,-332.16L-354.67,-326.99ZM-206.74,-332.10L-190.78,-325.07L-182.43,-342.98L-203.14,-353.16L-224.71,-348.66L-241.29,-329.64L-239.20,-351.59L-258.95,-353.47L-270.92,-227.88L-249.08,-224.55L-242.55,-293.09L-231.62,-322.90ZM-112.63,-344.58L-158.03,-330.58L-179.60,-281.92L-167.59,-230.07L-125.67,-207.76L-80.27,-221.76L-58.68,-270.41L-70.68,-322.26ZM-123.89,-226.40L-149.18,-240.54L-157.19,-279.77L-141.91,-316.79L-114.41,-325.91L-89.10,-311.76L-81.07,-272.52L-96.37,-235.51ZM-10.77,-351.22L-2.01,-359.15L-0.81,-371.55L-8.05,-381.21L-19.33,-382.29L-28.05,-374.17L-29.23,-361.78L-22.05,-352.30ZM-68.61,-176.62L-68.61,-176.63L-74.71,-158.72L-59.10,-154.77L-30.35,-164.65L-20.38,-195.42L-7.51,-329.52L-29.45,-331.61L-41.25,-207.74L-46.20,-181.03L-57.52,-173.82ZM41.13,-221.25L31.54,-256.13L125.68,-247.18L127.74,-255.84L117.64,-303.69L75.44,-326.75L30.67,-312.70L9.72,-263.98L21.10,-212.19L62.40,-189.93L99.66,-197.18L118.83,-221.75L102.75,-234.04L87.39,-213.61L65.43,-208.48ZM33.94,-273.64L50.48,-301.36L73.64,-308.13L97.52,-295.18L104.92,-266.88ZM196.93,-195.84L172.26,-209.93L164.85,-249.11L179.52,-286.19L206.41,-295.37L225.70,-286.53L235.71,-262.94L255.50,-270.60L241.80,-299.36L208.19,-314.01L163.42,-299.96L142.45,-251.25L153.83,-199.45L195.16,-177.19L230.92,-185.11L249.50,-210.17L231.80,-221.89L217.52,-200.84ZM326.30,-168.03L326.30,-168.03L325.57,-187.19L315.60,-186.65L305.54,-193.02L305.17,-209.16L312.11,-282.09L333.82,-280.02L335.42,-296.85L313.72,-298.92L317.90,-342.82L295.95,-344.91L291.76,-301.01L273.72,-302.73L272.11,-285.90L290.16,-284.18L283.21,-211.25L285.30,-180.15L309.30,-167.28ZM-623.52,-38.72L-565.23,-33.17L-498.98,-49.35L-471.54,-113.36L-487.76,-181.67L-551.67,-209.08L-606.79,-214.33ZM-598.40,-57.00L-585.60,-191.39L-553.65,-188.35L-508.34,-170.44L-495.90,-115.91L-516.29,-65.23L-565.72,-53.89ZM-389.96,-128.05L-374.00,-121.03L-365.65,-138.94L-386.36,-149.12L-407.93,-144.62L-424.51,-125.59L-422.42,-147.54L-442.18,-149.42L-454.14,-23.84L-432.31,-20.51L-425.78,-89.04L-414.84,-118.86ZM-274.84,-91.34L-348.45,-76.21L-365.89,-47.28L-355.57,-17.23L-325.48,-5.27L-302.35,-7.52L-280.09,-20.81L-281.58,-6.15L-261.09,-4.20L-253.27,-86.01L-261.27,-124.34L-298.01,-140.74L-332.95,-135.65L-351.90,-112.48L-335.51,-100.12L-322.50,-118.33L-301.95,-123.03L-281.20,-114.75ZM-276.69,-71.93L-279.76,-39.83L-296.58,-27.71L-320.27,-22.84L-336.39,-28.70L-342.40,-46.02L-330.97,-62.33ZM-179.87,3.54L-144.26,-91.27L-129.14,8.37L-106.95,10.49L-56.95,-108.79L-75.17,-116.43L-114.43,-19.51L-130.72,-119.76L-152.91,-121.87L-188.58,-23.87L-206.87,-128.98L-227.67,-125.05L-202.56,1.38ZM-45.49,16.34L12.80,21.89L79.05,5.72L106.49,-58.30L90.27,-126.61L26.36,-154.01L-28.76,-159.26ZM-20.37,-1.94L-7.56,-136.33L24.39,-133.28L69.69,-115.38L82.14,-60.85L61.74,-10.17L12.32,1.17ZM188.28,-94.41L142.88,-80.41L121.32,-31.76L133.32,20.09L175.24,42.41L220.64,28.40L242.23,-20.24L230.23,-72.09ZM177.02,23.76L151.73,9.62L143.72,-29.61L159.00,-66.62L186.50,-75.74L211.81,-61.59L219.84,-22.35L204.54,14.65ZM306.94,49.91L342.55,-44.89L357.67,54.74L379.87,56.86L429.87,-62.42L411.65,-70.06L372.39,26.86L356.10,-73.38L333.90,-75.50L298.23,22.50L279.94,-82.61L259.14,-78.68L284.26,47.75ZM437.07,62.31L459.02,64.40L465.59,-4.62L478.22,-36.30L504.10,-45.20L523.75,-33.73L527.28,-7.61L519.86,70.19L541.81,72.29L549.23,-5.52L544.60,-44.99L510.37,-63.69L486.16,-60.73L467.16,-44.34L468.90,-62.64L449.15,-64.52Z" fill="#ffffff" stroke="#000000"/>
    <path d="M-417.60,-256.86L-394.80,-253.59L-384.81,-323.20L-344.96,-317.49L-293.67,-323.56L-271.42,-361.31L-286.14,-405.25L-331.84,-420.95L-392.81,-429.69ZM-381.87,-343.69L-372.73,-407.46L-332.88,-401.74L-304.13,-390.77L-295.51,-364.04L-309.27,-341.50L-341.47,-337.90ZM-194.97,-336.00L-179.52,-328.30L-170.42,-345.61L-190.42,-356.65L-211.96,-353.22L-229.24,-335.19L-226.14,-356.79L-245.59,-359.58L-263.32,-235.98L-241.89,-231.66L-232.21,-299.11L-220.00,-328.08ZM-101.34,-343.91L-146.88,-332.21L-170.49,-285.12L-161.06,-233.29L-120.66,-209.25L-75.12,-220.97L-51.49,-268.05L-60.91,-319.88ZM-118.02,-227.61L-142.36,-242.77L-148.45,-281.93L-131.59,-317.81L-103.98,-325.54L-79.62,-310.36L-73.52,-271.19L-90.38,-235.32ZM-0.32,-345.70L8.71,-353.13L10.48,-365.33L3.78,-375.22L-7.32,-376.81L-16.32,-369.20L-18.08,-357.00L-11.42,-347.29ZM-65.71,-175.79L-65.71,-175.80L-72.58,-158.38L-57.33,-153.74L-28.45,-162.16L-17.14,-192.11L1.89,-324.09L-19.71,-327.18L-37.20,-205.27L-43.35,-179.10L-54.88,-172.50ZM44.88,-214.76L37.04,-249.69L129.70,-236.42L132.14,-244.89L124.40,-292.67L83.76,-317.46L38.84,-305.66L15.84,-258.48L24.66,-206.74L64.45,-182.80L101.62,-188.21L121.73,-211.60L106.41,-224.51L90.26,-205.03L68.31,-201.00ZM40.24,-266.89L57.90,-293.52L81.11,-299.13L104.11,-285.20L110.09,-256.87ZM197.73,-182.32L174.00,-197.41L168.52,-236.49L184.76,-272.46L211.78,-280.27L230.44,-270.63L239.22,-246.83L259.15,-253.48L246.96,-282.55L214.41,-298.62L169.49,-286.83L146.47,-239.65L155.28,-187.91L195.10,-163.96L230.83,-170.11L250.37,-194.01L233.42,-206.43L218.32,-186.29ZM324.32,-148.74L324.33,-148.74L324.51,-167.72L314.62,-167.66L304.97,-174.42L305.36,-190.40L315.66,-262.18L337.02,-259.11L339.40,-275.68L318.03,-278.74L324.23,-321.95L302.63,-325.05L296.43,-281.84L278.67,-284.39L276.29,-267.82L294.05,-265.28L283.76,-193.50L284.36,-162.66L307.48,-148.80ZM-620.82,-65.53L-563.45,-57.30L-497.19,-70.18L-467.06,-132.18L-479.88,-200.48L-541.78,-230.58L-596.03,-238.36ZM-595.12,-82.42L-576.15,-214.68L-544.70,-210.17L-500.76,-190.34L-491.01,-135.84L-513.56,-86.70L-562.95,-77.80ZM-385.71,-142.87L-370.26,-135.17L-361.16,-152.49L-381.15,-163.53L-402.70,-160.09L-419.98,-142.06L-416.88,-163.67L-436.32,-166.45L-454.05,-42.85L-432.62,-38.53L-422.95,-105.99L-410.73,-134.95ZM-273.61,-101.16L-347.10,-89.66L-365.70,-61.88L-356.91,-31.69L-327.72,-18.45L-304.75,-19.59L-282.11,-31.68L-284.28,-17.26L-264.11,-14.36L-252.53,-94.88L-258.64,-133.16L-294.19,-151.09L-328.98,-147.71L-348.81,-125.69L-333.18,-112.70L-319.46,-130.09L-298.93,-133.77L-278.80,-124.61ZM-276.35,-82.06L-280.90,-50.47L-298.09,-39.27L-321.74,-35.57L-337.40,-42.12L-342.54,-59.54L-330.47,-75.12ZM-184.18,-2.90L-144.52,-94.96L-134.25,4.26L-112.40,7.40L-57.37,-108.18L-75.02,-116.59L-118.39,-22.62L-129.79,-122.49L-151.63,-125.62L-191.50,-30.41L-204.65,-135.18L-225.40,-132.28L-206.50,-6.10ZM-51.91,16.07L5.46,24.30L71.72,11.42L101.85,-50.58L89.02,-118.88L27.13,-148.98L-27.12,-156.76ZM-26.22,-0.82L-7.25,-133.08L24.20,-128.57L68.15,-108.74L77.89,-54.24L55.35,-5.10L5.95,3.79ZM184.41,-82.44L138.87,-70.74L115.26,-23.65L124.69,28.18L165.09,52.22L210.64,40.50L234.26,-6.58L224.84,-58.41ZM167.73,33.86L143.39,18.70L137.31,-20.46L154.16,-56.34L181.77,-64.07L206.13,-48.89L212.23,-9.72L195.37,26.15ZM294.95,65.82L334.61,-26.24L344.88,72.98L366.72,76.12L421.76,-39.46L404.10,-47.87L360.74,46.11L349.34,-53.77L327.49,-56.90L287.63,38.31L274.48,-66.46L253.73,-63.56L272.62,62.62ZM423.02,84.19L444.62,87.29L454.36,19.36L468.33,-11.37L494.34,-18.95L513.24,-6.69L515.49,19.31L504.51,95.88L526.11,98.98L537.09,22.40L534.38,-16.84L501.41,-36.94L477.34,-35.14L457.78,-19.84L460.36,-37.84L440.92,-40.63Z" fill="#ffffff" stroke="#000000"/>
    <path d="M-406.96,-271.80L-384.57,-267.50L-371.43,-335.85L-332.31,-328.33L-281.32,-331.92L-257.54,-368.19L-270.03,-412.32L-314.47,-429.99L-374.34,-441.50ZM-367.56,-355.96L-355.53,-418.57L-316.40,-411.05L-288.50,-398.86L-281.23,-372.02L-295.89,-350.38L-327.89,-348.34ZM-183.16,-339.58L-168.25,-331.24L-158.44,-347.93L-177.69,-359.78L-199.15,-357.40L-217.08,-340.39L-213.00,-361.60L-232.09,-365.27L-255.42,-243.91L-234.44,-238.64L-221.71,-304.86L-208.27,-332.92ZM-90.23,-343.00L-135.80,-333.57L-161.35,-288.13L-154.46,-236.45L-115.65,-210.79L-70.08,-220.23L-44.51,-265.66L-51.39,-317.34ZM-112.18,-228.81L-135.53,-244.95L-139.70,-283.95L-121.36,-318.62L-93.70,-324.96L-70.33,-308.81L-66.14,-269.80L-84.50,-235.14ZM9.72,-340.03L19.00,-346.94L21.32,-358.92L15.16,-369.02L4.26,-371.11L-4.99,-364.01L-7.30,-352.03L-1.18,-342.12ZM-62.90,-175.13L-62.90,-175.14L-70.51,-158.24L-55.66,-152.94L-26.70,-159.90L-14.12,-188.98L10.89,-318.55L-10.31,-322.63L-33.33,-202.93L-40.64,-177.35L-52.35,-171.37ZM48.26,-208.46L42.15,-243.36L133.12,-225.89L135.93,-234.15L130.53,-281.74L91.52,-308.15L46.56,-298.60L21.60,-253.05L27.89,-201.48L66.10,-175.94L103.10,-179.55L124.08,-201.72L109.54,-215.21L92.66,-196.71L70.77,-193.75ZM46.12,-260.21L64.82,-285.71L88.04,-290.16L110.12,-275.31L114.70,-247.03ZM197.84,-169.20L175.08,-185.24L171.50,-224.13L189.25,-258.93L216.33,-265.38L234.32,-254.97L241.88,-231.03L261.90,-236.66L251.21,-265.98L219.79,-283.40L174.82,-273.85L149.86,-228.29L156.14,-176.73L194.37,-151.18L229.98,-155.58L250.43,-178.29L234.25,-191.37L218.38,-172.17ZM321.41,-130.06L321.41,-130.07L322.48,-148.82L312.71,-149.22L303.48,-156.36L304.62,-172.14L318.17,-242.61L339.14,-238.58L342.27,-254.84L321.30,-258.87L329.45,-301.30L308.24,-305.38L300.08,-262.95L282.64,-266.31L279.52,-250.04L296.96,-246.69L283.41,-176.22L282.56,-145.70L304.76,-130.91ZM-616.85,-92.20L-560.52,-81.37L-494.41,-90.99L-461.71,-150.87L-471.18,-218.99L-530.96,-251.65L-584.22,-261.89ZM-590.65,-107.69L-565.68,-237.56L-534.81,-231.62L-492.29,-209.95L-485.22,-155.62L-509.82,-108.09L-559.07,-101.62ZM-380.79,-157.62L-365.87,-149.28L-356.07,-165.97L-375.32,-177.82L-396.77,-175.44L-414.71,-158.43L-410.63,-179.64L-429.72,-183.31L-453.05,-61.95L-432.07,-56.68L-419.34,-122.90L-405.90,-150.96ZM-271.93,-111.12L-345.12,-103.21L-364.82,-76.61L-357.55,-46.35L-329.31,-31.89L-306.55,-31.94L-283.60,-42.83L-286.42,-28.67L-266.62,-24.87L-251.39,-103.92L-255.63,-142.05L-289.94,-161.44L-324.48,-159.73L-345.12,-138.90L-330.28,-125.32L-315.90,-141.87L-295.43,-144.54L-275.96,-134.54ZM-275.54,-92.37L-281.52,-61.34L-299.04,-51.09L-322.60,-48.54L-337.77,-55.75L-342.03,-73.21L-329.36,-88.05ZM-188.14,-9.78L-144.60,-98.92L-139.12,-0.35L-117.67,3.77L-57.83,-107.90L-74.89,-117.04L-122.17,-26.18L-128.75,-125.44L-150.20,-129.57L-194.09,-37.32L-202.16,-141.51L-222.81,-139.62L-210.06,-13.99ZM-58.28,15.19L-1.95,26.02L64.16,16.40L96.86,-43.47L87.39,-111.60L27.61,-144.26L-25.65,-154.50ZM-32.08,-0.30L-7.11,-130.16L23.76,-124.23L66.28,-102.56L73.35,-48.22L48.75,-0.70L-0.50,5.77ZM179.97,-71.10L134.41,-61.66L108.85,-16.22L115.74,35.46L154.55,61.12L200.13,51.67L225.69,6.24L218.81,-45.44ZM158.02,43.10L134.67,26.96L130.50,-12.04L148.84,-46.72L176.51,-53.06L199.87,-36.91L204.06,2.10L185.71,36.77ZM282.29,80.67L325.82,-8.48L331.31,90.09L352.76,94.22L412.60,-17.45L395.54,-26.60L348.25,64.27L341.67,-35.00L320.23,-39.12L276.34,53.13L268.27,-51.07L247.62,-49.17L260.37,76.45ZM408.03,104.84L429.24,108.92L442.06,42.22L457.32,12.50L483.38,6.23L501.49,19.24L502.49,45.04L488.04,120.23L509.25,124.30L523.70,49.12L522.86,10.20L491.22,-11.22L467.34,-10.58L447.28,3.63L450.68,-14.04L431.59,-17.71Z" fill="#ffffff" stroke="#000000"/>
    <path d="M-395.71,-286.36L-373.78,-281.05L-357.58,-347.99L-319.26,-338.72L-268.69,-339.88L-243.49,-374.62L-253.76,-418.82L-296.86,-438.37L-355.49,-452.56ZM-352.81,-367.70L-337.97,-429.02L-299.66,-419.74L-272.65,-406.38L-266.72,-379.51L-282.23,-358.81L-313.96,-358.29ZM-171.30,-342.83L-156.96,-333.90L-146.48,-349.93L-164.95,-362.55L-186.27,-361.21L-204.80,-345.23L-199.77,-366.00L-218.47,-370.53L-247.23,-251.67L-226.74,-245.47L-211.04,-310.33L-196.44,-337.44ZM-79.29,-341.86L-124.77,-334.67L-152.16,-290.95L-147.78,-239.55L-110.62,-212.36L-65.13,-219.56L-37.73,-263.26L-42.10,-314.67ZM-106.35,-230.01L-128.67,-247.06L-130.97,-285.80L-111.20,-319.22L-83.56,-324.19L-61.22,-307.13L-58.91,-268.37L-78.69,-234.96ZM19.37,-334.22L28.87,-340.62L31.73,-352.35L26.11,-362.62L15.44,-365.20L5.96,-358.61L3.11,-346.89L8.70,-336.80ZM-60.16,-174.64L-60.16,-174.64L-68.48,-158.30L-54.04,-152.36L-25.09,-157.88L-11.29,-186.04L19.52,-312.94L-1.25,-317.96L-29.62,-200.73L-38.05,-175.78L-49.90,-170.42ZM51.28,-202.36L46.88,-237.14L135.99,-215.60L139.15,-223.63L136.05,-270.93L98.73,-298.87L53.84,-291.54L27.03,-247.68L30.82,-196.42L67.39,-169.38L104.14,-171.21L125.91,-192.14L112.18,-206.15L94.62,-188.66L72.84,-186.76ZM51.60,-253.62L71.29,-277.94L94.44,-281.25L115.57,-265.54L118.77,-237.36ZM197.29,-156.53L175.55,-173.45L173.84,-212.06L193.02,-245.62L220.09,-250.73L237.38,-239.59L243.73,-215.58L263.78,-220.20L254.60,-249.68L224.36,-268.38L179.46,-261.05L152.64,-217.19L156.43,-165.93L193.02,-138.88L228.43,-141.55L249.70,-163.05L234.33,-176.73L217.74,-158.49ZM317.60,-112.04L317.60,-112.04L319.54,-130.52L309.90,-131.38L301.12,-138.87L302.98,-154.42L319.69,-223.44L340.23,-218.47L344.08,-234.39L323.54,-239.37L333.59,-280.92L312.82,-285.94L302.76,-244.39L285.68,-248.53L281.83,-232.60L298.91,-228.47L282.21,-159.45L279.93,-129.32L301.18,-113.66ZM-611.61,-118.68L-556.44,-105.33L-490.64,-111.74L-455.51,-169.39L-461.67,-237.17L-519.22,-272.26L-571.39,-284.89ZM-584.99,-132.77L-554.21,-259.96L-523.97,-252.64L-482.96,-229.22L-478.53,-175.18L-505.07,-129.37L-554.06,-125.28ZM-375.20,-172.26L-360.85,-163.32L-350.38,-179.35L-368.85,-191.97L-390.17,-190.63L-408.69,-174.65L-403.67,-195.43L-422.36,-199.95L-451.13,-81.09L-430.64,-74.89L-414.94,-139.75L-400.34,-166.86ZM-269.79,-121.18L-342.50,-116.80L-363.22,-91.44L-357.46,-61.18L-330.23,-45.57L-307.72,-44.54L-284.53,-54.23L-287.98,-40.37L-268.59,-35.67L-249.82,-113.10L-252.22,-150.99L-285.22,-171.77L-319.45,-171.70L-340.82,-152.08L-326.80,-137.96L-311.81,-153.64L-291.44,-155.32L-272.67,-144.53ZM-274.23,-102.82L-281.60,-72.43L-299.40,-63.12L-322.81,-61.70L-337.47,-69.54L-340.85,-87.00L-327.64,-101.07ZM-191.72,-17.07L-144.50,-103.14L-143.71,-5.45L-122.70,-0.37L-58.30,-107.94L-74.74,-117.78L-125.75,-30.19L-127.58,-128.62L-148.59,-133.70L-196.30,-44.57L-199.39,-147.95L-219.89,-147.04L-213.19,-22.27ZM-64.53,13.71L-9.36,27.06L56.44,20.65L91.57,-36.99L85.41,-104.78L27.86,-139.87L-24.31,-152.50ZM-37.91,-0.38L-7.13,-127.57L23.11,-120.25L64.12,-96.83L68.56,-42.79L42.01,3.03L-6.97,7.11ZM175.03,-60.40L129.54,-53.21L102.15,-9.49L106.53,41.91L143.69,69.10L189.18,61.91L216.59,18.20L212.21,-33.20ZM147.96,51.45L125.64,34.40L123.35,-4.34L143.11,-37.76L170.75,-42.73L193.09,-25.66L195.40,13.09L175.63,46.50ZM269.03,94.43L316.25,8.36L317.05,106.05L338.05,111.13L402.45,3.56L386.01,-6.28L335.00,81.31L333.17,-17.12L312.16,-22.20L264.45,66.93L261.36,-36.45L240.86,-35.55L247.56,89.23ZM392.19,124.23L412.96,129.26L428.77,63.93L445.25,35.27L471.31,30.29L488.59,44.00L488.37,69.56L470.55,143.19L491.33,148.22L509.15,74.58L510.14,36.07L479.87,13.41L456.23,12.93L435.74,26.03L439.93,8.72L421.24,4.20Z" fill="#ffffff" stroke="#000000"/>
    <path d="M-383.86,-300.49L-362.43,-294.21L-343.28,-359.62L-305.84,-348.65L-255.81,-347.42L-229.26,-380.57L-237.34,-424.74L-279.02,-446.09L-336.30,-462.87ZM-337.64,-378.87L-320.09,-438.78L-282.66,-427.81L-256.59,-413.33L-252.00,-386.50L-268.30,-366.77L-299.68,-367.75ZM-159.41,-345.77L-145.65,-336.26L-134.54,-351.62L-152.21,-364.96L-173.34,-364.63L-192.40,-349.71L-186.46,-370.01L-204.72,-375.36L-238.74,-259.23L-218.77,-252.14L-200.21,-315.51L-184.51,-341.61ZM-68.51,-340.48L-113.81,-335.52L-142.93,-293.59L-141.02,-242.58L-105.57,-213.97L-60.27,-218.94L-31.13,-260.85L-33.04,-311.86ZM-100.52,-231.21L-121.78,-249.11L-122.22,-287.51L-101.12,-319.61L-73.57,-323.22L-52.29,-305.31L-51.83,-266.89L-72.94,-234.80ZM28.64,-328.30L38.33,-334.18L41.70,-345.64L36.63,-356.05L26.21,-359.10L16.52,-353.04L13.16,-341.58L18.21,-331.35ZM-57.46,-174.31L-57.46,-174.31L-66.45,-158.55L-52.46,-152.00L-23.59,-156.10L-8.63,-183.28L27.78,-307.26L7.49,-313.20L-26.05,-198.66L-35.56,-174.40L-47.52,-169.66ZM53.98,-196.47L51.27,-231.06L138.33,-205.58L141.83,-213.37L140.98,-260.27L105.41,-289.63L60.70,-284.50L32.14,-242.41L33.48,-191.56L68.36,-163.12L104.76,-163.20L127.27,-182.87L114.35,-197.36L96.18,-180.90L74.56,-180.04ZM56.71,-247.12L77.31,-270.23L100.35,-272.42L120.49,-255.90L122.33,-227.90ZM196.14,-144.32L175.45,-162.06L175.57,-200.31L196.10,-232.57L223.10,-236.35L239.67,-224.53L244.82,-200.50L264.85,-204.13L257.15,-233.70L228.15,-253.59L183.43,-248.46L154.86,-206.37L156.19,-155.53L191.09,-127.08L226.21,-128.06L248.25,-148.30L233.70,-162.54L216.44,-145.30ZM312.96,-94.69L312.96,-94.70L315.74,-112.87L306.26,-114.17L297.93,-121.99L300.50,-137.27L320.25,-204.70L340.32,-198.82L344.88,-214.38L324.81,-220.26L336.70,-260.86L316.40,-266.80L304.51,-226.21L287.82,-231.10L283.27,-215.53L299.96,-210.65L280.21,-143.21L276.54,-113.54L296.81,-97.07ZM-605.12,-144.91L-551.22,-129.12L-485.89,-132.36L-448.46,-187.69L-451.36,-254.97L-506.60,-292.36L-557.56,-307.29ZM-578.15,-157.58L-541.75,-281.84L-512.21,-273.19L-472.78,-248.12L-470.93,-194.50L-499.32,-150.46L-547.93,-148.73ZM-368.95,-186.75L-355.19,-177.25L-344.08,-192.60L-361.74,-205.94L-382.88,-205.61L-401.94,-190.69L-395.99,-210.99L-414.26,-216.34L-448.27,-100.21L-428.31,-93.12L-409.75,-156.50L-394.05,-182.60ZM-267.16,-131.32L-339.24,-130.40L-360.91,-106.31L-356.63,-76.14L-330.45,-59.42L-308.25,-57.36L-284.87,-65.84L-288.94,-52.30L-269.99,-46.75L-247.81,-122.40L-248.40,-159.95L-280.04,-182.05L-313.87,-183.59L-335.92,-165.20L-322.72,-150.59L-307.16,-165.38L-286.96,-166.08L-268.91,-154.53ZM-272.42,-113.38L-281.12,-83.69L-299.16,-75.32L-322.36,-75.03L-336.48,-83.46L-339.01,-100.88L-325.28,-114.16ZM-194.89,-24.76L-144.18,-107.61L-147.98,-11.02L-127.46,-5.01L-58.76,-108.30L-74.54,-118.80L-129.07,-34.62L-126.26,-131.99L-146.79,-138.00L-198.13,-52.15L-196.32,-154.47L-216.63,-154.54L-215.86,-30.90ZM-70.63,11.64L-16.73,27.42L48.61,24.19L86.04,-31.14L83.14,-98.42L27.90,-135.81L-23.07,-150.74ZM-43.65,-1.03L-7.26,-125.30L22.29,-116.64L61.72,-91.57L63.57,-37.95L35.18,6.09L-13.43,7.82ZM169.62,-50.35L124.33,-45.38L95.20,-3.46L97.12,47.55L132.57,76.17L177.86,71.19L207.01,29.28L205.10,-21.73ZM137.62,58.92L116.36,41.02L115.91,2.62L137.01,-29.48L164.57,-33.09L185.84,-15.18L186.30,23.24L165.19,55.33ZM255.26,107.08L305.97,24.23L302.17,120.82L322.69,126.83L391.39,23.54L375.61,13.04L321.08,97.22L323.89,-0.15L303.36,-6.16L252.02,79.69L253.83,-22.63L233.52,-22.70L234.29,100.94ZM375.58,142.33L395.88,148.27L414.57,84.45L432.20,56.89L458.19,53.20L474.63,67.56L473.21,92.81L452.14,164.75L472.44,170.69L493.51,98.75L496.30,60.73L467.45,36.91L444.11,35.33L423.24,47.32L428.20,30.40L409.93,25.05Z" fill="#ffffff" stroke="#000000"/>
    <path d="M-371.42,-314.17L-350.54,-306.96L-328.54,-370.69L-292.06,-358.10L-242.67,-354.53L-214.88,-386.05L-220.78,-430.08L-260.97,-453.13L-316.80,-472.40ZM-322.06,-389.45L-301.91,-447.83L-265.43,-435.24L-240.35,-419.71L-237.07,-392.97L-254.10,-374.24L-285.07,-376.68ZM-147.49,-348.37L-134.33,-338.33L-122.63,-352.99L-139.46,-367.00L-160.37,-367.67L-179.90,-353.82L-173.07,-373.60L-190.87,-379.74L-229.94,-266.58L-210.55,-258.63L-189.23,-320.39L-172.48,-345.45ZM-57.90,-338.88L-102.90,-336.10L-133.65,-296.04L-134.15,-245.53L-100.46,-215.59L-55.46,-218.38L-24.70,-258.43L-24.19,-308.93ZM-94.66,-232.40L-114.83,-251.08L-113.47,-289.05L-91.11,-319.78L-63.71,-322.06L-43.52,-303.36L-44.87,-265.37L-67.24,-234.65ZM37.53,-322.28L47.38,-327.63L51.26,-338.80L46.74,-349.33L36.58,-352.84L26.72,-347.30L22.87,-336.13L27.37,-325.78ZM-54.79,-174.14L-54.79,-174.15L-64.41,-158.99L-50.89,-151.86L-22.17,-154.56L-6.11,-180.72L35.70,-301.53L15.93,-308.35L-22.60,-196.74L-33.13,-173.20L-45.18,-169.08ZM56.39,-190.81L55.33,-225.12L140.17,-195.85L144.00,-203.39L145.36,-249.77L111.59,-280.46L67.16,-277.49L36.96,-237.23L35.90,-186.92L69.03,-157.17L105.01,-155.55L128.17,-173.92L116.09,-188.85L97.36,-173.44L75.96,-173.61ZM61.46,-240.73L82.90,-262.61L105.78,-263.69L124.91,-246.41L125.41,-218.66ZM194.43,-132.60L174.82,-151.10L176.73,-188.89L198.54,-219.81L225.39,-222.28L241.21,-209.82L245.17,-185.83L265.14,-188.48L258.92,-218.06L231.19,-239.08L186.76,-236.11L156.55,-195.86L155.48,-145.55L188.63,-115.79L223.38,-115.11L246.11,-134.08L232.40,-148.84L214.54,-132.61ZM307.54,-78.07L307.55,-78.07L311.15,-95.90L301.83,-97.63L293.97,-105.75L297.23,-120.73L319.92,-186.44L339.48,-179.69L344.71,-194.85L325.15,-201.60L338.81,-241.16L319.03,-247.99L305.37,-208.43L289.11,-214.05L283.87,-198.88L300.14,-193.27L277.45,-127.55L272.44,-98.40L291.70,-81.17ZM-597.39,-170.81L-544.86,-152.68L-480.15,-152.81L-440.56,-205.73L-440.27,-272.35L-493.10,-311.90L-542.76,-329.04ZM-570.14,-182.06L-528.33,-303.16L-499.54,-293.22L-461.76,-266.59L-462.45,-213.51L-492.57,-171.33L-540.69,-171.89ZM-362.03,-201.07L-348.87,-191.03L-337.17,-205.68L-354.00,-219.69L-374.91,-220.36L-394.44,-206.51L-387.61,-226.29L-405.42,-232.44L-444.48,-119.27L-425.09,-111.33L-403.77,-173.08L-387.02,-198.14ZM-264.04,-141.51L-335.31,-143.99L-357.86,-121.19L-355.04,-91.18L-329.96,-73.43L-308.12,-70.34L-284.62,-77.63L-289.27,-64.44L-270.81,-58.07L-245.33,-131.78L-244.15,-168.92L-274.38,-192.24L-307.74,-195.35L-330.39,-178.21L-318.04,-163.16L-301.97,-177.05L-281.97,-176.79L-264.68,-164.52ZM-270.07,-124.02L-280.07,-95.10L-298.29,-87.67L-321.23,-88.47L-334.79,-97.47L-336.47,-114.79L-322.28,-127.28ZM-197.62,-32.80L-143.62,-112.30L-151.91,-17.02L-131.91,-10.12L-59.17,-108.97L-74.27,-120.09L-132.11,-39.46L-124.77,-135.55L-144.76,-142.46L-199.54,-60.03L-192.95,-161.06L-213.01,-162.08L-218.06,-39.86ZM-76.53,9.00L-24.00,27.13L40.71,27.00L80.31,-25.92L80.60,-92.55L27.77,-132.09L-21.90,-149.24ZM-49.28,-2.25L-7.47,-123.35L21.32,-113.41L59.11,-86.78L58.42,-33.71L28.29,8.48L-19.83,7.91ZM163.81,-40.98L118.81,-38.20L88.06,1.87L87.56,52.37L121.25,82.31L166.25,79.53L197.01,39.48L197.52,-11.03ZM127.05,65.51L106.88,46.82L108.24,8.85L130.60,-21.88L158.00,-24.15L178.18,-5.45L176.84,32.53L154.47,63.25ZM241.04,118.63L295.05,39.13L286.76,134.41L306.76,141.32L379.50,42.46L364.40,31.34L306.55,111.98L313.90,15.88L293.90,8.98L239.13,91.41L245.72,-9.62L225.66,-10.65L220.61,111.57ZM358.30,159.11L378.08,165.94L399.55,103.74L418.26,77.34L444.12,74.91L459.69,89.87L457.11,114.76L432.91,184.86L452.69,191.69L476.89,121.58L481.43,84.14L454.03,59.25L431.05,56.59L409.86,67.45L415.55,50.97L397.75,44.83Z" fill="#ffffff" stroke="#000000"/>
    <path d="M-358.41,-327.36L-338.12,-319.26L-313.38,-381.21L-277.93,-367.05L-229.29,-361.20L-200.35,-391.04L-204.12,-434.83L-242.75,-459.49L-297.00,-481.16ZM-306.10,-399.44L-283.45,-456.18L-247.99,-442.02L-223.94,-425.50L-221.95,-398.93L-239.67,-381.22L-270.15,-385.08ZM-135.53,-350.65L-123.00,-340.11L-110.75,-354.04L-126.72,-368.68L-147.35,-370.32L-167.30,-357.55L-159.63,-376.77L-176.93,-383.68L-220.84,-273.70L-202.05,-264.93L-178.09,-324.96L-160.37,-348.93ZM-47.45,-337.06L-92.04,-336.43L-124.31,-298.28L-127.18,-248.40L-95.30,-217.23L-50.70,-217.87L-18.42,-256.00L-15.54,-305.88ZM-88.78,-233.57L-107.83,-252.98L-104.70,-290.43L-81.16,-319.75L-53.98,-320.71L-34.91,-301.28L-38.03,-263.81L-61.57,-234.51ZM46.07,-316.17L56.06,-321.00L60.41,-331.86L56.44,-342.47L46.56,-346.42L36.57,-341.40L32.23,-330.55L36.20,-320.12ZM-52.11,-174.13L-52.11,-174.14L-62.33,-159.61L-49.31,-151.93L-20.80,-153.25L-3.70,-178.34L43.29,-295.75L24.07,-303.43L-19.25,-194.95L-30.76,-172.19L-42.86,-168.68ZM58.53,-185.38L59.10,-219.33L141.55,-186.43L145.69,-193.69L149.22,-239.46L117.28,-271.38L73.25,-270.52L41.51,-232.17L38.10,-182.50L69.44,-151.55L104.92,-148.25L128.67,-165.32L117.43,-180.64L98.20,-166.29L77.06,-167.47ZM65.88,-234.48L88.10,-255.08L110.75,-255.07L128.85,-237.11L128.04,-209.66ZM192.20,-121.38L173.69,-140.58L177.36,-177.83L200.35,-207.37L227.00,-208.54L242.05,-195.49L244.84,-171.60L264.69,-173.27L259.94,-202.80L233.52,-224.87L189.48,-224.02L157.74,-185.67L154.32,-136.01L185.68,-105.05L219.99,-102.74L243.34,-120.42L230.48,-135.64L212.07,-120.45ZM301.41,-62.18L301.41,-62.18L305.81,-79.64L296.69,-81.78L289.30,-90.18L293.22,-104.82L318.73,-168.69L337.74,-161.10L343.62,-175.84L324.61,-183.43L339.96,-221.87L320.74,-229.55L305.39,-191.10L289.58,-197.41L283.69,-182.67L299.50,-176.36L274.00,-112.50L267.68,-83.93L285.90,-66.00ZM-588.43,-196.32L-537.38,-175.93L-473.42,-173.02L-431.82,-223.46L-428.40,-289.28L-478.75,-330.83L-527.02,-350.11ZM-560.97,-206.16L-513.98,-323.85L-486.00,-312.68L-449.91,-284.59L-453.08,-232.18L-484.83,-191.91L-532.35,-194.73ZM-354.44,-215.17L-341.91,-204.63L-329.66,-218.56L-345.64,-233.19L-366.26,-234.84L-386.21,-222.07L-378.54,-241.29L-395.84,-248.20L-439.76,-138.21L-420.96,-129.45L-397.00,-189.47L-379.28,-213.45ZM-260.41,-151.71L-330.72,-157.51L-354.07,-136.04L-352.70,-106.25L-328.74,-87.53L-307.31,-83.46L-283.75,-89.56L-288.96,-76.74L-271.02,-69.58L-242.38,-141.22L-239.47,-177.87L-268.25,-202.33L-301.07,-206.97L-324.25,-191.10L-312.75,-175.64L-296.22,-188.61L-276.47,-187.42L-259.96,-174.48ZM-267.19,-134.72L-278.43,-106.60L-296.78,-100.12L-319.41,-101.99L-332.39,-111.52L-333.24,-128.72L-318.63,-140.39ZM-199.89,-41.18L-142.79,-117.19L-155.46,-23.44L-136.02,-15.68L-59.50,-109.94L-73.90,-121.64L-134.84,-44.68L-123.07,-139.29L-142.51,-147.05L-200.50,-68.17L-189.24,-167.69L-209.02,-169.64L-219.75,-49.11ZM-82.19,5.82L-31.14,26.20L32.81,29.11L74.42,-21.32L77.83,-87.15L27.49,-128.70L-20.78,-147.98ZM-54.74,-4.02L-7.74,-121.72L20.24,-110.55L56.33,-82.46L53.16,-30.05L21.41,10.23L-26.11,7.40ZM157.64,-32.28L113.05,-31.65L80.78,6.49L77.91,56.38L109.79,87.55L154.39,86.91L186.67,48.78L189.54,-1.10ZM116.31,71.21L97.26,51.80L100.39,14.35L123.93,-14.97L151.11,-15.93L170.18,3.50L167.06,40.97L143.51,70.27ZM226.46,129.06L283.56,53.04L270.89,146.80L290.33,154.56L366.85,60.29L352.45,48.60L291.51,125.56L303.28,30.95L283.84,23.19L225.85,102.07L237.11,2.54L217.33,0.59L206.60,121.13ZM340.43,174.56L359.65,182.24L383.79,121.79L403.52,96.58L429.19,95.39L443.87,110.91L440.15,135.38L412.94,203.51L432.16,211.19L459.37,143.05L465.62,106.27L439.71,80.38L417.12,76.67L395.68,86.42L402.08,70.40L384.78,63.49Z" fill="#ffffff" stroke="#000000"/>
    <path d="M-344.84,-340.05L-325.18,-331.09L-297.83,-391.13L-263.46,-375.48L-215.68,-367.42L-185.69,-395.54L-187.36,-438.98L-224.36,-465.16L-276.95,-489.11ZM-289.78,-408.80L-264.73,-463.80L-230.36,-448.15L-207.38,-430.69L-206.66,-404.35L-224.99,-387.68L-254.94,-392.93ZM-123.54,-352.59L-111.66,-341.59L-98.90,-354.78L-114.00,-369.99L-134.29,-372.58L-154.61,-360.90L-146.12,-379.53L-162.89,-387.17L-211.45,-280.56L-193.29,-271.02L-166.80,-329.20L-148.16,-352.06ZM-37.16,-335.03L-81.24,-336.50L-114.92,-300.33L-120.09,-251.18L-90.05,-218.88L-45.96,-217.42L-12.28,-253.58L-7.10,-302.73ZM-82.85,-234.71L-100.76,-254.79L-95.91,-291.65L-71.27,-319.51L-44.37,-319.18L-26.45,-299.09L-31.29,-262.21L-55.93,-234.37ZM54.26,-310.00L64.36,-314.30L69.17,-324.82L65.74,-335.50L56.17,-339.86L46.06,-335.37L41.26,-324.86L44.69,-314.36ZM-49.41,-174.27L-49.41,-174.28L-60.19,-160.40L-47.68,-152.21L-19.45,-152.17L-1.38,-176.16L50.55,-289.96L31.93,-298.44L-15.96,-193.29L-28.40,-171.35L-40.52,-168.45ZM60.44,-180.19L62.59,-213.71L142.51,-177.33L146.94,-184.31L152.57,-229.37L122.52,-262.40L78.97,-263.62L45.82,-227.21L40.11,-178.31L69.62,-146.25L104.52,-141.33L128.79,-157.08L118.41,-172.74L98.73,-159.47L77.90,-161.62ZM70.00,-228.35L92.92,-247.67L115.30,-246.59L132.34,-227.99L130.25,-200.91ZM189.50,-110.68L172.11,-130.52L177.48,-167.15L201.59,-195.25L227.97,-195.16L242.23,-181.56L243.86,-157.82L263.56,-158.55L260.25,-187.94L235.18,-210.99L191.62,-212.22L158.46,-175.82L152.75,-126.91L182.29,-94.85L216.08,-90.96L239.97,-107.33L227.99,-122.97L209.08,-108.82ZM294.61,-47.06L294.62,-47.07L299.78,-64.10L290.87,-66.65L283.96,-75.29L288.53,-89.57L316.73,-151.48L335.15,-143.09L341.66,-157.37L323.23,-165.76L340.21,-203.03L321.57,-211.52L304.60,-174.25L289.28,-181.23L282.77,-166.94L298.09,-159.97L269.90,-98.06L262.31,-70.13L279.47,-51.56ZM-578.26,-221.37L-528.78,-198.83L-465.73,-192.96L-422.25,-240.83L-415.79,-305.71L-463.58,-349.13L-510.37,-370.44ZM-550.67,-229.80L-498.71,-343.88L-471.59,-331.53L-437.25,-302.08L-442.85,-250.45L-476.11,-212.15L-522.93,-217.17ZM-346.19,-229.01L-334.31,-218.01L-321.55,-231.19L-336.64,-246.41L-356.94,-249.00L-377.26,-237.32L-368.77,-255.95L-385.54,-263.59L-434.10,-156.98L-415.94,-147.44L-389.45,-205.62L-370.81,-228.48ZM-256.27,-161.90L-325.46,-170.93L-349.54,-150.82L-349.58,-121.32L-326.79,-101.70L-305.81,-96.67L-282.24,-101.58L-287.99,-89.17L-270.60,-81.25L-238.94,-150.69L-234.35,-186.76L-261.63,-212.28L-293.84,-218.40L-317.50,-203.81L-306.86,-188.00L-289.92,-200.03L-270.46,-197.93L-254.75,-184.38ZM-263.77,-145.43L-276.19,-118.18L-294.62,-112.63L-316.90,-115.54L-329.27,-125.57L-329.30,-142.60L-314.32,-153.44ZM-201.66,-49.85L-141.67,-122.27L-158.59,-30.23L-139.75,-21.65L-59.72,-111.20L-73.40,-123.43L-137.23,-50.25L-121.15,-143.17L-140.00,-151.76L-201.00,-76.55L-185.20,-174.35L-204.65,-177.20L-220.91,-58.62ZM-87.58,2.11L-38.10,24.65L24.95,30.52L68.43,-17.35L74.89,-82.23L27.10,-125.65L-19.69,-146.96ZM-59.99,-6.32L-8.03,-120.40L19.09,-108.05L53.43,-78.60L47.83,-26.97L14.57,11.33L-32.25,6.31ZM151.16,-24.27L107.08,-25.74L73.40,10.43L68.23,59.58L98.27,91.87L142.36,93.33L176.04,57.18L181.22,8.03ZM105.48,76.04L87.56,55.97L92.41,19.11L117.05,-8.75L143.95,-8.42L161.87,11.67L157.04,48.54L132.39,76.39ZM211.59,138.37L271.57,65.94L254.65,157.98L273.49,166.56L353.52,77.02L339.84,64.79L276.02,137.96L292.09,45.04L273.25,36.46L212.25,111.67L228.04,13.87L208.60,11.01L192.33,129.60ZM322.05,188.67L340.68,197.16L367.37,138.57L388.05,114.59L413.46,114.62L427.24,130.64L422.41,154.64L392.33,220.69L410.97,229.17L441.05,163.13L448.95,127.08L424.57,100.29L402.42,95.56L380.78,104.18L387.85,88.65L371.08,81.01Z" fill="#ffffff" stroke="#000000"/>
    <path d="M-330.74,-352.19L-311.73,-342.42L-281.90,-400.45L-248.68,-383.37L-201.86,-373.17L-170.91,-399.54L-170.52,-442.53L-205.85,-470.13L-256.67,-496.26ZM-273.12,-417.53L-245.79,-470.68L-212.57,-453.61L-190.68,-435.28L-191.21,-409.22L-210.11,-393.62L-239.44,-400.21ZM-111.53,-354.19L-100.31,-342.76L-87.09,-355.19L-101.28,-370.93L-121.22,-374.44L-141.83,-363.86L-132.57,-381.87L-148.78,-390.20L-201.75,-287.16L-184.27,-276.89L-155.36,-333.11L-135.88,-354.82ZM-27.02,-332.79L-70.50,-336.30L-105.46,-302.15L-112.88,-253.84L-84.73,-220.53L-41.24,-217.02L-6.26,-251.15L1.16,-299.46ZM-76.86,-235.83L-93.61,-256.50L-87.09,-292.69L-61.45,-319.05L-34.89,-317.47L-18.12,-296.78L-24.63,-260.58L-50.28,-234.22ZM62.12,-303.77L72.30,-307.55L77.54,-317.71L74.66,-328.42L65.41,-333.17L55.21,-329.22L49.98,-319.06L52.87,-308.52ZM-46.67,-174.55L-46.66,-174.55L-57.96,-161.36L-46.00,-152.67L-18.11,-151.31L0.87,-174.16L57.52,-284.14L39.51,-293.40L-12.73,-191.77L-26.05,-170.67L-38.16,-168.38ZM62.13,-175.24L65.82,-208.25L143.07,-168.56L147.78,-175.25L155.46,-219.49L127.32,-253.54L84.35,-256.79L49.89,-222.38L41.96,-174.33L69.61,-141.28L103.85,-134.78L128.57,-149.20L119.05,-165.16L98.98,-152.97L78.50,-156.07ZM73.84,-222.37L97.39,-240.38L119.45,-238.26L135.40,-219.09L132.07,-192.43ZM186.36,-100.51L170.11,-120.93L177.14,-156.87L202.28,-183.49L228.34,-182.16L241.78,-168.06L242.28,-144.53L261.77,-144.32L259.88,-173.51L236.21,-197.46L193.23,-200.72L158.76,-166.32L150.83,-118.27L178.49,-85.21L211.69,-79.78L236.07,-94.83L224.96,-110.85L205.62,-97.76ZM287.22,-32.73L287.23,-32.73L293.13,-49.32L284.44,-52.26L278.02,-61.12L283.21,-75.01L313.97,-134.84L331.78,-125.69L338.87,-139.50L321.06,-148.65L339.58,-184.67L321.57,-193.93L303.06,-157.91L288.25,-165.52L281.15,-151.72L295.96,-144.10L265.20,-84.27L256.39,-57.03L272.47,-37.88ZM-566.91,-245.91L-519.08,-221.32L-457.07,-212.55L-411.87,-257.81L-402.44,-321.59L-447.61,-366.73L-492.84,-389.98ZM-539.25,-252.94L-482.57,-363.20L-456.36,-349.72L-423.82,-319.02L-431.77,-268.28L-466.42,-232.00L-512.44,-239.16ZM-337.28,-242.56L-326.06,-231.13L-312.84,-243.56L-327.04,-259.30L-346.97,-262.81L-367.59,-252.22L-358.33,-270.23L-374.54,-278.57L-427.51,-175.53L-410.02,-165.25L-381.12,-221.48L-361.63,-243.19ZM-251.60,-172.04L-319.53,-184.20L-344.26,-165.47L-345.69,-136.33L-324.10,-115.88L-303.61,-109.92L-280.09,-113.67L-286.36,-101.68L-269.55,-93.04L-235.02,-160.15L-228.79,-195.57L-254.54,-222.06L-286.07,-229.62L-310.12,-216.32L-300.35,-200.19L-283.06,-211.29L-263.93,-208.30L-249.05,-194.17ZM-259.78,-156.12L-273.34,-129.78L-291.81,-125.17L-313.67,-129.09L-325.43,-139.57L-324.65,-156.40L-309.35,-166.41ZM-202.91,-58.78L-140.26,-127.51L-161.29,-37.38L-143.08,-28.02L-59.82,-112.72L-72.76,-125.45L-139.25,-56.15L-119.00,-147.20L-137.21,-156.56L-201.01,-85.12L-180.81,-181.00L-199.89,-184.73L-221.52,-68.35ZM-92.66,-2.10L-44.83,22.49L17.18,31.26L62.38,-14.00L71.81,-77.78L26.64,-122.92L-18.59,-146.17ZM-65.00,-9.13L-8.32,-119.39L17.89,-105.91L50.43,-75.21L42.48,-24.46L7.83,11.81L-38.19,4.65ZM144.44,-16.95L100.95,-20.47L65.99,13.68L58.57,61.99L86.73,95.31L130.22,98.82L165.19,64.68L172.62,16.37ZM94.59,80.01L77.84,59.34L84.36,23.15L110.01,-3.22L136.56,-1.63L153.33,19.06L146.82,55.26L121.17,81.61ZM196.50,146.56L259.15,77.82L238.12,167.95L256.33,177.32L339.59,92.61L326.65,79.89L260.16,149.18L280.41,58.14L262.20,48.78L198.40,120.21L218.60,24.34L199.52,20.60L177.89,136.99ZM303.26,201.44L321.27,210.70L350.38,154.07L371.93,131.35L397.04,132.57L409.90,149.05L404.00,172.53L371.19,236.37L389.20,245.62L422.01,181.79L431.51,146.55L408.68,118.94L387.03,113.23L365.24,120.73L372.96,105.72L356.75,97.39Z" fill="#ffffff" stroke="#000000"/>
    <path d="M-906.35,492L-906.35,469.28L-898.22,492L-894.99,492L-886.86,469.28L-886.86,492L-883.25,492L-883.25,464.64L-888.22,464.64L-896.55,487.33L-904.68,464.64L-909.96,464.64L-909.96,492ZM-865.67,478.75L-876.82,482.17L-879.09,486.89L-877.05,491.38L-872.23,492.78L-868.69,492.09L-865.45,489.71L-865.46,492L-862.27,492L-862.27,479.25L-864.06,473.45L-869.98,471.46L-875.30,472.76L-877.88,476.62L-875.17,478.28L-873.43,475.28L-870.33,474.25L-867.00,475.23ZM-865.67,481.77L-865.68,486.77L-868.09,488.89L-871.68,489.99L-874.26,489.33L-875.44,486.74L-873.91,484.05ZM-857.12,492L-853.70,492L-853.70,481.25L-852.22,476.17L-848.35,474.41L-845.15,475.90L-844.22,479.88L-844.22,492L-840.80,492L-840.80,479.88L-842.09,473.85L-847.66,471.47L-851.35,472.28L-854.04,475.09L-854.04,472.24L-857.12,472.24ZM-833.34,468.94L-832.11,467.58L-832.10,465.65L-833.36,464.27L-835.12,464.27L-836.35,465.65L-836.35,467.58L-835.10,468.94ZM-832.52,492L-832.52,472.24L-835.94,472.24L-835.94,492ZM-818.31,468.12L-817.85,465.29L-820.94,464.71L-825.30,466.41L-826.70,471.29L-826.70,472.24L-829.67,472.24L-829.67,474.86L-826.70,474.86L-826.70,492L-823.40,492L-823.40,474.86L-819.56,474.86L-819.56,472.24L-823.40,472.24L-823.40,471.21L-822.75,468.65L-820.52,467.74ZM-807.97,471.46L-814.77,474.29L-817.39,482.12L-814.77,489.95L-807.97,492.78L-801.17,489.95L-798.55,482.12L-801.16,474.29ZM-807.97,489.87L-812.08,488.06L-813.90,482.12L-812.08,476.18L-807.97,474.37L-803.85,476.18L-802.04,482.12L-803.85,488.06ZM-795.03,492L-791.61,492L-791.61,481.25L-790.13,476.17L-786.26,474.41L-783.06,475.90L-782.13,479.88L-782.13,492L-778.71,492L-778.71,479.88L-780.00,473.85L-785.56,471.47L-789.26,472.28L-791.95,475.09L-791.95,472.24L-795.03,472.24ZM-765.45,492.27L-765.45,492.26L-765.85,489.32L-767.38,489.55L-769.03,488.71L-769.32,486.22L-769.32,474.86L-765.94,474.86L-765.94,472.24L-769.32,472.24L-769.32,465.40L-772.74,465.40L-772.74,472.24L-775.55,472.24L-775.55,474.86L-772.74,474.86L-772.74,486.22L-771.96,491.00L-768.07,492.63ZM-737.50,487.93L-737.50,478.13L-749.05,478.13L-749.05,481.31L-740.99,481.31L-740.97,486.22L-748.63,489.75L-755.95,486.41L-758.55,478.32L-756.06,470.17L-749.21,466.88L-744.27,468.25L-741.30,473.01L-738.24,471.11L-741.44,465.93L-749.13,463.79L-758.98,468.04L-762.42,478.32L-758.78,488.60L-748.74,492.86ZM-724.35,474.77L-721.78,475.62L-720.76,472.73L-724.11,471.47L-727.37,472.48L-729.65,475.66L-729.65,472.24L-732.73,472.24L-732.73,491.81L-729.31,492L-729.31,481.32L-728.06,476.56ZM-710.01,471.46L-716.81,474.29L-719.42,482.12L-716.81,489.95L-710.01,492.78L-703.20,489.95L-700.58,482.12L-703.20,474.29ZM-710.01,489.87L-714.12,488.06L-715.93,482.12L-714.12,476.18L-710.01,474.37L-705.89,476.18L-704.07,482.12L-705.89,488.06ZM-688.58,492.27L-688.58,492.26L-688.97,489.32L-690.51,489.55L-692.15,488.71L-692.45,486.22L-692.45,474.86L-689.07,474.86L-689.07,472.24L-692.45,472.24L-692.45,465.40L-695.87,465.40L-695.87,472.24L-698.68,472.24L-698.68,474.86L-695.87,474.86L-695.87,486.22L-695.09,491.00L-691.19,492.63ZM-680.57,488.24L-682.57,483.00L-667.90,482.99L-667.71,481.63L-669.97,474.39L-676.83,471.45L-683.53,474.28L-686.05,482.11L-683.53,489.93L-676.83,492.76L-671.18,491.10L-668.58,487.02L-671.25,485.36L-673.32,488.74L-676.63,489.86ZM-682.45,480.26L-680.31,475.73L-676.83,474.35L-672.95,476.00L-671.40,480.26ZM-661.99,485.88L-664.90,487.24L-662.96,491.11L-657.11,492.78L-651.52,491.39L-648.97,486.66L-650.50,482.61L-653.83,480.90L-658.44,479.65L-661.00,478.62L-661.84,477.05L-660.74,475.10L-657.52,474.38L-654.42,475.23L-653.09,477.74L-650.21,476.38L-651.88,473.07L-657.39,471.46L-662.84,472.86L-665.18,477.43L-663.66,481.06L-660.23,482.69L-655.36,483.98L-653.07,485.13L-652.46,486.96L-653.99,489.26L-656.99,489.87L-660.63,488.67ZM-641.92,483.45L-638.72,483.45L-637.20,484.67L-633.14,492.30L-630.05,490.63L-634.16,483.45L-636.67,482.04L-634.62,480.06L-632.77,476.14L-631.66,475.64L-630.10,475.39L-630.56,472.24L-633.40,472.52L-635.30,474.17L-637.43,478.82L-638.72,480.60L-641.91,480.60L-641.91,464.64L-643.66,464.64L-645.32,464.64L-645.33,492L-641.92,492ZM-625.58,492.01L-615.04,492.01L-607.42,490.45L-604.53,484.21L-606.06,480.03L-610.31,477.70L-606.80,475.27L-605.82,471.62L-608.58,466.13L-615.58,464.63L-625.58,464.63ZM-621.94,476.42L-621.95,467.89L-616.40,467.89L-611.64,468.44L-609.62,472.08L-611.57,475.51L-615.93,476.42ZM-621.94,488.79L-621.94,479.64L-615.54,479.64L-610.64,480.53L-608.45,484.21L-610.32,488.02L-615.04,488.79ZM-592.40,471.46L-599.20,474.29L-601.81,482.12L-599.20,489.95L-592.40,492.78L-585.59,489.95L-582.97,482.12L-585.59,474.29ZM-592.40,489.87L-596.51,488.06L-598.32,482.12L-596.51,476.18L-592.40,474.37L-588.28,476.18L-586.46,482.12L-588.28,488.06ZM-571.27,471.46L-578.07,474.29L-580.68,482.12L-578.07,489.95L-571.27,492.78L-564.46,489.95L-561.85,482.12L-564.46,474.29ZM-571.27,489.87L-575.38,488.06L-577.19,482.12L-575.38,476.18L-571.27,474.37L-567.15,476.18L-565.33,482.12L-567.15,488.06ZM-554.82,483.45L-551.62,483.45L-550.10,484.67L-546.04,492.30L-542.96,490.63L-547.06,483.45L-549.57,482.04L-547.52,480.06L-545.67,476.14L-544.56,475.64L-543.00,475.39L-543.46,472.24L-546.31,472.52L-548.20,474.17L-550.34,478.82L-551.62,480.60L-554.82,480.60L-554.82,464.64L-556.56,464.64L-558.23,464.64L-558.23,492L-554.82,492Z"/>
</svg>