<?xml version="1.0"?>
<svg xmlns="http://www.w3.org/2000/svg" width="1920" height="1080" viewBox="-960 -540 1920 1080">
    <path d="M-470.63,-211.50L-470.13,-210L-427.38,-210C-398.88,-210 -385.13,-227.75 -385.13,-252.75C-385.13,-274.50 -394.38,-284.50 -417.13,-288C-396.38,-292 -390.13,-304.50 -390.13,-325.25C-390.13,-345.25 -400.88,-360 -426.88,-360L-470.13,-360L-470.63,-358.50L-448.13,-350L-448.13,-220ZM-443.13,-289.75L-443.38,-352.50L-429.88,-355.50C-403.63,-355.50 -395.88,-342.25 -395.88,-322.25C-395.88,-304.50 -406.38,-289.75 -426.88,-289.75ZM-443.38,-220L-443.38,-285.25L-427.38,-285.25C-401.63,-285.75 -390.13,-272.75 -390.88,-250.50C-391.63,-226 -411.38,-210.75 -424.38,-214.50ZM-377.63,-300.50L-377.13,-299L-355.38,-300.50L-355.38,-250.25C-355.38,-214.50 -351.13,-207 -337.63,-207C-327.88,-207 -317.38,-213.75 -307.88,-227L-306.38,-208.50L-279.88,-215L-279.38,-216.50L-302.88,-218.50L-302.88,-304.50L-301.13,-313.50L-330.13,-300.50L-329.63,-299L-307.88,-300.50L-307.88,-232.25C-315.88,-220 -327.63,-211.50 -335.63,-211.50C-350.13,-211.50 -350.38,-222 -350.38,-250.25L-350.38,-304.50L-348.63,-313.50ZM-258.63,-365L-258.63,-342.50L-248.63,-342.50L-248.63,-365ZM-276.88,-298L-254.88,-299.75L-254.88,-220L-277.63,-211.50L-277.13,-210L-228.38,-210L-227.88,-211.50L-250.63,-220L-250.63,-303.75L-248.88,-312.50L-277.38,-299.50ZM-223.38,-370.50L-201.38,-372.25L-201.38,-220L-224.13,-211.50L-223.63,-210L-174.13,-210L-173.63,-211.50L-196.38,-220L-196.38,-376.25L-194.63,-385L-223.88,-372ZM-163.63,-255.75C-163.63,-227.25 -154.13,-209 -133.63,-209C-123.88,-209 -113.63,-215.75 -109.88,-225.75L-108.38,-209.25L-81.88,-215.75L-81.38,-217.25L-104.63,-219.25L-104.63,-376.25L-102.88,-385L-132.13,-372L-131.63,-370.50L-109.63,-372.25L-109.63,-296.50C-115.88,-307.25 -122.88,-312.50 -131.38,-312.50C-149.88,-312.50 -163.63,-288.50 -163.63,-255.75ZM-158.63,-251.75C-158.63,-284 -149.13,-308.25 -131.38,-308.25C-120.13,-308.25 -109.88,-295.75 -109.63,-282L-109.88,-240C-109.88,-226.50 -118.63,-213.25 -133.13,-213.25C-147.63,-213.25 -158.63,-229 -158.63,-251.75ZM-13.88,-212L-13.38,-210L69.13,-210L65.63,-258.25L64.13,-257.75L58.13,-215L13.63,-213.75L13.63,-281L42.63,-280.25L50.13,-263.50L50.63,-264L48.38,-283.25L50.63,-302L50.13,-302.50L42.38,-285.75L13.63,-284.75L13.63,-356.25L58.13,-355L62.38,-313.75L63.88,-313.25L68.13,-362.50L47.88,-360L-13.38,-360L-13.88,-358.25L8.63,-350L8.63,-220ZM86.63,-236.50C86.63,-218.25 99.38,-206.75 115.63,-206.75C126.88,-206.75 140.13,-213.50 143.63,-221.50L144.88,-208.50L171.38,-215L171.88,-216.50L148.38,-218.50L148.38,-266C148.38,-304.25 145.13,-312.50 126.38,-312.25C115.88,-312 100.38,-306.25 87.63,-293.25L101.38,-271.75L102.38,-272.25L98.88,-296.75C107.13,-303.75 116.63,-308 124.63,-308C145.13,-308 143.38,-294.25 143.38,-257.25C138.88,-262.25 126.38,-267 117.38,-267C99.88,-267 86.63,-255.25 86.63,-236.50ZM91.63,-237.25C91.63,-251.75 102.38,-262 117.63,-262C127.38,-262 137.88,-258.50 143.38,-253.75L143.38,-226.25C138.38,-217.50 127.13,-212 116.13,-212C101.88,-212 91.63,-222.25 91.63,-237.25ZM171.88,-211.50L172.38,-210L223.88,-210L224.38,-211.50L199.38,-220L199.38,-282.25C204.88,-298 214.63,-307.75 226.88,-307.75L227.13,-286L228.13,-285.50L239.38,-310.50C237.63,-311.50 234.63,-312.50 231.38,-312.50C215.63,-312.50 206.38,-304.50 199.38,-288.75L199.38,-304.50L201.13,-313.50L172.13,-300.50L172.63,-299L194.38,-300.50L194.38,-220ZM244.38,-307L244.38,-306.25L263.63,-306.25L263.63,-247.50C263.63,-217 268.38,-206 281.13,-205.75C293.63,-205.50 303.63,-214.50 306.38,-230.25L303.63,-231.50C301.13,-217 293.88,-210.25 283.63,-210.25C272.13,-210.25 268.63,-220.25 268.63,-250L268.63,-306.25L300.13,-306.25L298.88,-287.25L299.88,-286.75L313.13,-310L268.63,-310L268.63,-332L267.63,-332.50L259.13,-310ZM316.38,-211.50L316.88,-210L360.88,-210L361.38,-211.50L343.88,-220L343.88,-284.75C349.88,-297.50 361.13,-308 369.38,-308C381.88,-308 384.38,-294.50 384.38,-269.75L384.38,-220L366.88,-211.50L367.38,-210L411.38,-210L411.88,-211.50L389.38,-220L389.38,-269.75C389.38,-297.50 385.88,-312.50 370.88,-312.50C360.13,-312.50 350.88,-304.50 343.88,-291.25L343.88,-376L345.63,-385L316.63,-372L317.13,-370.50L338.88,-372L338.88,-220Z" fill="#ffffff" stroke="#000000"/>
    <path d="M-463.87,-223.80L-463.43,-222.30L-421.13,-220.72C-392.94,-219.68 -378.68,-236.73 -377.76,-261.46C-376.96,-282.98 -385.75,-293.21 -408.13,-297.51C-387.45,-300.71 -380.81,-312.84 -380.04,-333.37C-379.31,-353.16 -389.40,-368.15 -415.12,-369.10L-457.91,-370.69L-458.46,-369.23L-436.51,-359.99L-441.29,-231.38ZM-433.78,-300.20L-431.72,-362.29L-418.26,-364.76C-392.29,-363.80 -385.11,-350.40 -385.84,-330.62C-386.50,-313.06 -397.43,-298.85 -417.71,-299.60ZM-436.60,-231.20L-434.20,-295.76L-418.37,-295.17C-392.87,-294.72 -381.97,-281.43 -383.53,-259.45C-385.18,-235.24 -405.28,-220.88 -418.00,-225.06ZM-368.59,-308.43L-368.15,-306.92L-346.58,-307.61L-348.42,-257.90C-349.74,-222.53 -345.81,-214.95 -332.45,-214.46C-322.81,-214.10 -312.17,-220.39 -302.29,-233.15L-301.48,-214.79L-275.03,-220.25L-274.48,-221.71L-297.65,-224.55L-294.49,-309.64L-292.43,-318.48L-321.60,-306.68L-321.16,-305.18L-299.58,-305.86L-302.09,-238.34C-310.46,-226.52 -322.39,-218.54 -330.31,-218.83C-344.65,-219.37 -344.52,-229.76 -343.48,-257.71L-341.48,-311.38L-339.42,-320.22ZM-248.49,-367.86L-249.32,-345.60L-239.42,-345.24L-238.59,-367.49ZM-269.01,-302.25L-247.18,-303.17L-250.11,-224.27L-272.93,-216.70L-272.49,-215.20L-224.26,-213.41L-223.71,-214.87L-245.90,-224.12L-242.83,-306.97L-240.77,-315.57L-269.45,-303.75ZM-213.41,-372.01L-191.58,-372.93L-197.18,-222.31L-220.00,-214.73L-219.56,-213.23L-170.59,-211.41L-170.04,-212.88L-192.23,-222.12L-186.49,-376.70L-184.44,-385.30L-213.85,-373.51ZM-158.52,-256.29C-159.57,-228.09 -150.84,-209.69 -130.56,-208.93C-120.91,-208.57 -110.52,-214.88 -106.45,-224.63L-105.57,-208.25L-79.11,-213.71L-78.56,-215.17L-101.49,-218.01L-95.72,-373.33L-93.67,-381.92L-123.08,-370.14L-122.64,-368.63L-100.81,-369.56L-103.60,-294.62C-109.39,-305.48 -116.12,-310.93 -124.53,-311.24C-142.83,-311.92 -157.32,-288.69 -158.52,-256.29ZM-153.72,-252.15C-152.53,-284.05 -142.24,-307.69 -124.68,-307.04C-113.55,-306.63 -103.87,-293.88 -104.13,-280.27L-105.92,-238.73C-106.42,-225.37 -115.56,-212.59 -129.91,-213.12C-144.25,-213.65 -154.56,-229.64 -153.72,-252.15ZM-11.98,-207.50L-11.56,-205.50L70.06,-202.47L68.37,-250.33L66.87,-249.89L59.36,-207.82L15.29,-208.22L17.77,-274.75L46.43,-272.94L53.23,-256.09L53.74,-256.57L52.23,-275.70L55.14,-294.16L54.67,-294.68L46.38,-278.39L17.90,-278.46L20.53,-349.20L64.51,-346.32L67.20,-305.36L68.66,-304.81L74.68,-353.38L54.55,-351.65L-6.04,-353.90L-6.60,-352.19L15.36,-343.20L10.58,-214.59ZM88.35,-228.04C87.68,-209.99 99.87,-198.14 115.95,-197.54C127.08,-197.13 140.43,-203.32 144.19,-211.11L144.95,-198.20L171.40,-203.65L171.95,-205.12L148.78,-207.96L150.52,-254.96C151.93,-292.80 149.02,-301.08 130.46,-301.52C120.06,-301.66 104.52,-296.54 91.43,-284.15L104.24,-262.37L105.25,-262.83L102.68,-287.20C111.10,-293.82 120.66,-297.67 128.57,-297.38C148.85,-296.63 146.62,-283.09 145.26,-246.48C140.99,-251.59 128.80,-256.75 119.89,-257.08C102.58,-257.73 89.04,-246.59 88.35,-228.04ZM93.32,-228.60C93.86,-242.94 104.87,-252.69 119.96,-252.13C129.60,-251.77 139.86,-247.92 145.13,-243.02L144.12,-215.81C138.85,-207.34 127.52,-202.31 116.63,-202.72C102.54,-203.24 92.77,-213.76 93.32,-228.60ZM171.77,-200.17L172.21,-198.67L223.16,-196.78L223.71,-198.24L199.29,-207.57L201.58,-269.16C207.60,-284.54 217.60,-293.82 229.72,-293.37L229.17,-271.85L230.14,-271.31L242.19,-295.63C240.49,-296.69 237.56,-297.79 234.35,-297.91C218.77,-298.49 209.32,-290.91 201.82,-275.59L202.39,-291.17L204.46,-300.01L175.29,-288.21L175.73,-286.71L197.30,-287.40L194.34,-207.76ZM247.01,-291.99L246.98,-291.25L266.02,-290.54L263.86,-232.42C262.74,-202.24 267.04,-191.18 279.64,-190.47C292.00,-189.76 302.22,-198.30 305.52,-213.78L302.85,-215.12C299.84,-200.86 292.42,-194.45 282.28,-194.83C270.90,-195.25 267.81,-205.27 268.90,-234.70L270.97,-290.35L302.13,-289.20L300.20,-270.44L301.17,-269.91L315.13,-292.43L271.11,-294.06L271.92,-315.83L270.95,-316.36L261.71,-294.41ZM314.73,-194.86L315.17,-193.36L358.69,-191.74L359.24,-193.21L342.24,-202.26L344.63,-266.32C351.03,-278.71 362.55,-288.68 370.71,-288.38C383.07,-287.92 385.05,-274.47 384.14,-249.99L382.31,-200.77L364.69,-193.00L365.13,-191.50L408.66,-189.88L409.21,-191.35L387.26,-200.59L389.09,-249.80C390.11,-277.26 387.20,-292.23 372.36,-292.78C361.72,-293.17 352.28,-285.60 344.86,-272.75L347.98,-356.59L350.04,-365.43L320.87,-353.64L321.31,-352.13L342.89,-352.82L337.30,-202.44Z" fill="#ffffff" stroke="#000000"/>
    <path d="M-456.72,-235.94L-456.34,-234.44L-414.56,-231.33C-386.71,-229.26 -371.98,-245.60 -370.16,-270.04C-368.58,-291.29 -376.89,-301.74 -398.87,-306.81C-378.30,-309.21 -371.28,-320.98 -369.77,-341.25C-368.32,-360.80 -377.75,-376.00 -403.16,-377.89L-445.43,-381.03L-446.03,-379.61L-424.65,-369.66L-434.11,-242.61ZM-424.15,-310.42L-419.83,-371.76L-406.42,-373.71C-380.76,-371.80 -374.15,-358.29 -375.61,-338.74C-376.90,-321.39 -388.24,-307.74 -408.27,-309.23ZM-429.47,-242.27L-424.72,-306.04L-409.09,-304.87C-383.88,-303.49 -373.59,-289.95 -375.94,-268.26C-378.46,-244.37 -398.87,-230.90 -411.30,-235.51ZM-359.36,-316.16L-358.98,-314.65L-337.61,-314.54L-341.27,-265.43C-343.87,-230.49 -340.26,-222.85 -327.07,-221.87C-317.54,-221.16 -306.78,-226.99 -296.54,-239.25L-296.42,-221.06L-270.04,-225.49L-269.45,-226.92L-292.27,-230.58L-286.01,-314.63L-283.65,-323.30L-312.93,-312.70L-312.55,-311.20L-291.19,-311.08L-296.15,-244.38C-304.86,-232.99 -316.97,-225.54 -324.78,-226.12C-338.95,-227.18 -338.43,-237.46 -336.38,-265.07L-332.43,-318.08L-330.07,-326.75ZM-238.37,-370.54L-240.00,-348.55L-230.23,-347.82L-228.59,-369.81ZM-261.08,-306.38L-239.45,-306.49L-245.25,-228.56L-268.10,-221.90L-267.72,-220.40L-220.08,-216.85L-219.48,-218.28L-241.10,-228.25L-235.00,-310.09L-232.66,-318.52L-261.45,-307.89ZM-203.52,-373.35L-181.89,-373.46L-192.96,-224.66L-215.82,-218.01L-215.44,-216.51L-167.06,-212.91L-166.46,-214.34L-188.08,-224.30L-176.71,-377.00L-174.36,-385.43L-203.90,-374.85ZM-153.47,-256.86C-155.54,-229.00 -147.59,-210.48 -127.55,-208.98C-118.02,-208.28 -107.51,-214.13 -103.12,-223.63L-102.86,-207.39L-76.49,-211.82L-75.89,-213.25L-98.46,-216.89L-87.04,-370.33L-84.70,-378.75L-114.23,-368.17L-113.85,-366.67L-92.22,-366.78L-97.73,-292.75C-103.06,-303.71 -109.52,-309.35 -117.82,-309.97C-135.90,-311.32 -151.09,-288.86 -153.47,-256.86ZM-148.87,-252.58C-146.53,-284.10 -135.48,-307.11 -118.13,-305.82C-107.14,-305.00 -98.03,-292.04 -98.79,-278.58L-102.09,-237.55C-103.07,-224.36 -112.58,-212.05 -126.75,-213.10C-140.92,-214.16 -150.53,-230.35 -148.87,-252.58ZM-10.30,-203.21L-9.96,-201.21L70.67,-195.21L70.76,-242.62L69.25,-242.24L60.28,-200.90L16.70,-202.92L21.59,-268.64L49.88,-265.80L55.99,-248.88L56.52,-249.33L55.72,-268.31L59.28,-286.47L58.83,-287.00L50.04,-271.19L21.87,-272.30L27.07,-342.18L70.47,-337.72L71.62,-297.10L73.05,-296.50L80.78,-344.32L60.81,-343.35L0.95,-347.81L0.34,-346.13L21.73,-336.44L12.27,-209.39ZM89.70,-219.84C88.37,-202.00 99.99,-189.84 115.88,-188.65C126.87,-187.84 140.31,-193.47 144.31,-201.03L144.59,-188.24L170.96,-192.66L171.56,-194.09L148.74,-197.75L152.19,-244.18C154.97,-281.56 152.40,-289.86 134.06,-290.98C123.78,-291.50 108.21,-287.00 94.80,-275.23L106.68,-253.21L107.69,-253.63L106.05,-277.83C114.62,-284.07 124.22,-287.53 132.04,-286.95C152.07,-285.46 149.36,-272.15 146.67,-235.99C142.64,-241.20 130.76,-246.75 121.97,-247.41C104.87,-248.68 91.06,-238.16 89.70,-219.84ZM94.64,-220.21C95.69,-234.38 106.95,-243.61 121.85,-242.50C131.38,-241.79 141.39,-237.61 146.41,-232.57L144.41,-205.69C138.89,-197.51 127.50,-192.95 116.75,-193.75C102.82,-194.79 93.55,-205.55 94.64,-220.21ZM171.19,-189.20L171.57,-187.70L221.90,-183.96L222.50,-185.39L198.69,-195.51L203.22,-256.35C209.74,-271.34 219.98,-280.16 231.95,-279.27L230.61,-257.99L231.55,-257.43L244.36,-281.05C242.73,-282.15 239.87,-283.35 236.69,-283.58C221.30,-284.73 211.68,-277.58 203.69,-262.70L204.84,-278.09L207.20,-286.76L177.91,-276.17L178.29,-274.66L199.66,-274.55L193.80,-195.87ZM249.00,-277.26L248.94,-276.53L267.75,-275.13L263.48,-217.71C261.26,-187.91 265.10,-176.81 277.55,-175.64C289.74,-174.48 300.17,-182.55 304.00,-197.74L301.41,-199.17C297.91,-185.18 290.33,-179.11 280.32,-179.85C269.08,-180.69 266.38,-190.72 268.55,-219.79L272.64,-274.77L303.43,-272.47L300.82,-254.00L301.76,-253.43L316.40,-275.19L272.91,-278.43L274.51,-299.93L273.57,-300.49L263.63,-279.12ZM312.41,-178.69L312.79,-177.19L355.79,-173.99L356.39,-175.42L339.91,-185.00L344.62,-248.28C351.41,-260.30 363.17,-269.75 371.23,-269.15C383.45,-268.24 384.91,-254.86 383.11,-230.67L379.49,-182.05L361.77,-175.02L362.15,-173.52L405.15,-170.32L405.75,-171.75L384.37,-181.69L387.99,-230.31C390.01,-257.43 387.68,-272.34 373.02,-273.44C362.52,-274.22 352.90,-267.07 345.09,-254.63L351.26,-337.46L353.62,-346.13L324.33,-335.53L324.71,-334.03L346.08,-333.91L335.02,-185.36Z" fill="#ffffff" stroke="#000000"/>
    <path d="M-449.18,-247.92L-448.86,-246.42L-407.65,-241.81C-380.18,-238.73 -365.01,-254.36 -362.31,-278.46C-359.96,-299.43 -367.80,-310.06 -389.35,-315.89C-368.92,-317.51 -361.55,-328.88 -359.31,-348.89C-357.15,-368.17 -365.92,-383.55 -390.99,-386.35L-432.68,-391.02L-433.32,-389.62L-412.55,-379.00L-426.57,-253.69ZM-414.23,-320.38L-407.70,-380.90L-394.36,-382.34C-369.06,-379.50 -363.02,-365.90 -365.18,-346.62C-367.09,-329.51 -378.80,-316.42 -398.56,-318.63ZM-421.99,-253.17L-414.96,-316.07L-399.53,-314.35C-374.66,-312.05 -364.97,-298.28 -368.10,-276.91C-371.46,-253.37 -392.15,-240.80 -404.27,-245.82ZM-349.93,-323.68L-349.61,-322.18L-328.48,-321.28L-333.90,-272.84C-337.76,-238.38 -334.47,-230.69 -321.46,-229.23C-312.06,-228.18 -301.21,-233.56 -290.62,-245.30L-291.17,-227.31L-264.92,-230.71L-264.28,-232.11L-286.72,-236.57L-277.44,-319.47L-274.78,-327.96L-304.14,-318.56L-303.82,-317.06L-282.69,-316.16L-290.05,-250.36C-299.09,-239.42 -311.33,-232.49 -319.04,-233.36C-333.02,-234.92 -332.13,-245.07 -329.08,-272.30L-323.23,-324.60L-320.57,-333.08ZM-228.26,-373.02L-230.68,-351.33L-221.04,-350.25L-218.62,-371.94ZM-253.08,-310.40L-231.68,-309.72L-240.28,-232.84L-263.13,-227.10L-262.81,-225.60L-215.82,-220.34L-215.17,-221.73L-236.19,-232.38L-227.15,-313.11L-224.52,-321.36L-253.40,-311.90ZM-193.68,-374.52L-172.29,-373.83L-188.71,-227.07L-211.56,-221.33L-211.24,-219.83L-163.52,-214.49L-162.88,-215.88L-183.89,-226.53L-167.04,-377.15L-164.40,-385.40L-194.00,-376.02ZM-148.46,-257.46C-151.54,-229.98 -144.35,-211.37 -124.59,-209.15C-115.19,-208.10 -104.58,-213.50 -99.89,-222.74L-100.22,-206.67L-73.97,-210.08L-73.33,-211.47L-95.53,-215.91L-78.59,-367.25L-75.96,-375.50L-105.56,-366.12L-105.24,-364.62L-83.84,-363.93L-92.01,-290.91C-96.88,-301.95 -103.06,-307.77 -111.25,-308.68C-129.09,-310.68 -144.93,-289.03 -148.46,-257.46ZM-144.08,-253.06C-140.60,-284.15 -128.82,-306.50 -111.71,-304.59C-100.87,-303.37 -92.33,-290.22 -93.58,-276.94L-98.35,-236.47C-99.81,-223.46 -109.67,-211.63 -123.65,-213.20C-137.63,-214.76 -146.53,-231.13 -144.08,-253.06ZM-8.83,-199.13L-8.56,-197.15L70.97,-188.25L72.80,-235.13L71.30,-234.81L60.90,-194.25L17.87,-197.85L25.13,-262.68L53.00,-258.82L58.42,-241.87L58.96,-242.30L58.87,-261.10L63.06,-278.93L62.63,-279.46L53.35,-264.15L25.53,-266.29L33.24,-335.21L76.01,-329.21L75.65,-288.99L77.04,-288.34L86.45,-335.36L66.66,-335.13L7.62,-341.74L6.95,-340.11L27.75,-329.73L13.73,-204.41ZM90.70,-211.90C88.73,-194.31 99.78,-181.85 115.44,-180.10C126.29,-178.88 139.79,-183.96 144.02,-191.29L143.83,-178.63L170.07,-182.03L170.72,-183.43L148.28,-187.89L153.40,-233.68C157.53,-270.55 155.29,-278.85 137.19,-280.64C127.04,-281.53 111.48,-277.66 97.78,-266.50L108.72,-244.29L109.74,-244.67L109.00,-268.66C117.71,-274.52 127.33,-277.59 135.04,-276.73C154.80,-274.52 151.63,-261.45 147.64,-225.78C143.84,-231.09 132.30,-237.02 123.63,-237.99C106.76,-239.87 92.72,-229.98 90.70,-211.90ZM95.60,-212.09C97.16,-226.06 108.63,-234.79 123.33,-233.14C132.73,-232.09 142.47,-227.58 147.26,-222.41L144.30,-195.90C138.53,-188.00 127.09,-183.92 116.49,-185.10C102.75,-186.64 93.98,-197.63 95.60,-212.09ZM170.18,-178.61L170.50,-177.11L220.14,-171.55L220.79,-172.94L197.60,-183.83L204.32,-243.84C211.32,-258.43 221.77,-266.78 233.58,-265.46L231.48,-244.46L232.39,-243.87L245.93,-266.76C244.35,-267.91 241.56,-269.20 238.43,-269.55C223.25,-271.25 213.47,-264.54 205.02,-250.11L206.72,-265.29L209.38,-273.78L180.02,-264.37L180.34,-262.87L201.47,-261.97L192.78,-184.37ZM250.37,-262.85L250.29,-262.12L268.85,-260.05L262.51,-203.41C259.22,-174.01 262.61,-162.89 274.87,-161.28C286.90,-159.69 297.51,-167.29 301.86,-182.17L299.34,-183.67C295.37,-169.97 287.65,-164.24 277.77,-165.35C266.68,-166.59 264.39,-176.60 267.60,-205.28L273.67,-259.51L304.03,-256.11L300.78,-237.93L301.69,-237.34L316.97,-258.32L274.07,-263.12L276.44,-284.33L275.53,-284.92L264.91,-264.15ZM309.47,-163.02L309.79,-161.52L352.21,-156.77L352.85,-158.16L336.90,-168.25L343.89,-230.66C351.04,-242.31 363.02,-251.21 370.98,-250.32C383.02,-248.98 383.98,-235.69 381.31,-211.83L375.94,-163.88L358.15,-157.57L358.48,-156.07L400.89,-151.32L401.53,-152.72L380.76,-163.34L386.13,-211.29C389.12,-238.05 387.37,-252.88 372.91,-254.50C362.54,-255.66 352.76,-248.95 344.59,-236.93L353.73,-318.63L356.39,-327.11L327.03,-317.71L327.35,-316.21L348.48,-315.31L332.08,-168.78Z" fill="#ffffff" stroke="#000000"/>
    <path d="M-441.25,-259.71L-440.99,-258.21L-400.40,-252.14C-373.35,-248.09 -357.77,-262.99 -354.21,-286.72C-351.12,-307.37 -358.48,-318.18 -379.59,-324.74C-359.32,-325.58 -351.61,-336.56 -348.66,-356.26C-345.82,-375.25 -353.93,-390.78 -378.61,-394.48L-419.67,-400.63L-420.36,-399.27L-400.21,-388.01L-418.68,-264.58ZM-404.02,-330.09L-395.34,-389.70L-382.10,-390.63C-357.18,-386.90 -351.70,-373.22 -354.54,-354.23C-357.07,-337.38 -369.13,-324.87 -388.59,-327.78ZM-414.17,-263.91L-404.90,-325.86L-389.71,-323.58C-365.19,-320.40 -356.12,-306.42 -359.99,-285.40C-364.19,-262.25 -385.11,-250.58 -396.92,-255.98ZM-340.31,-330.99L-340.05,-329.49L-319.18,-327.83L-326.32,-280.12C-331.41,-246.18 -328.44,-238.45 -315.62,-236.53C-306.36,-235.15 -295.43,-240.06 -284.53,-251.29L-285.74,-233.52L-259.65,-235.92L-258.97,-237.27L-280.99,-242.51L-268.77,-324.16L-265.83,-332.46L-295.21,-324.24L-294.95,-322.74L-274.09,-321.08L-283.79,-256.28C-293.12,-245.78 -305.49,-239.38 -313.08,-240.52C-326.85,-242.58 -325.59,-252.59 -321.58,-279.41L-313.87,-330.91L-310.93,-339.21ZM-218.16,-375.31L-221.36,-353.95L-211.86,-352.53L-208.67,-373.89ZM-245.01,-314.30L-223.87,-312.83L-235.21,-237.12L-258.01,-232.28L-257.75,-230.78L-211.47,-223.85L-210.78,-225.21L-231.17,-236.51L-219.27,-316.03L-216.36,-324.08L-245.27,-315.79ZM-183.91,-375.53L-162.77,-374.06L-184.41,-229.51L-207.22,-224.67L-206.96,-223.18L-159.96,-216.14L-159.28,-217.50L-179.67,-228.80L-157.46,-377.15L-154.55,-385.21L-184.17,-377.02ZM-143.49,-258.09C-147.54,-231.03 -141.12,-212.35 -121.65,-209.44C-112.40,-208.05 -101.71,-213.00 -96.72,-221.97L-97.65,-206.09L-71.56,-208.49L-70.87,-209.85L-92.66,-215.05L-70.35,-364.11L-67.44,-372.17L-97.06,-363.98L-96.80,-362.49L-75.67,-361.02L-86.43,-289.10C-90.84,-300.20 -96.74,-306.18 -104.81,-307.38C-122.37,-310.01 -138.84,-289.18 -143.49,-258.09ZM-139.31,-253.58C-134.73,-284.20 -122.26,-305.87 -105.41,-303.35C-94.73,-301.75 -86.78,-288.43 -88.49,-275.34L-94.70,-235.50C-96.62,-222.68 -106.81,-211.34 -120.57,-213.40C-134.34,-215.46 -142.55,-231.98 -139.31,-253.58ZM-7.53,-195.27L-7.34,-193.30L70.98,-181.57L74.52,-227.88L73.02,-227.62L61.25,-187.88L18.82,-193.02L28.38,-256.87L55.81,-252.04L60.55,-235.07L61.09,-235.47L61.69,-254.07L66.49,-271.55L66.09,-272.09L56.35,-257.29L28.91,-260.43L39.08,-328.31L81.15,-320.80L79.32,-281.03L80.67,-280.35L91.71,-326.50L72.13,-327.01L13.98,-335.71L13.25,-334.12L33.44,-323.09L14.96,-199.66ZM91.36,-204.24C88.77,-186.92 99.24,-174.19 114.67,-171.88C125.35,-170.28 138.89,-174.80 143.35,-181.90L142.69,-169.38L168.77,-171.79L169.46,-173.14L147.43,-178.38L154.18,-223.48C159.62,-259.79 157.71,-268.09 139.87,-270.51C129.87,-271.77 114.33,-268.51 100.38,-257.98L110.38,-235.62L111.40,-235.95L111.56,-259.71C120.39,-265.18 130.01,-267.86 137.60,-266.73C157.07,-263.81 153.45,-251.01 148.19,-215.88C144.63,-221.27 133.44,-227.55 124.89,-228.83C108.28,-231.32 94.03,-222.05 91.36,-204.24ZM96.22,-204.25C98.28,-218.01 109.94,-226.22 124.42,-224.05C133.68,-222.66 143.15,-217.85 147.70,-212.56L143.79,-186.45C137.80,-178.85 126.33,-175.23 115.89,-176.79C102.36,-178.82 94.09,-190.00 96.22,-204.25ZM168.75,-168.39L169.01,-166.90L217.91,-159.58L218.59,-160.93L196.07,-172.55L204.91,-231.66C212.37,-245.83 223.02,-253.70 234.65,-251.96L231.79,-231.27L232.67,-230.66L246.91,-252.79C245.39,-253.99 242.68,-255.37 239.60,-255.83C224.64,-258.07 214.72,-251.79 205.84,-237.83L208.08,-252.78L211.02,-261.08L181.64,-252.86L181.90,-251.36L202.76,-249.69L191.32,-173.26ZM251.16,-248.76L251.05,-248.05L269.33,-245.31L260.98,-189.53C256.64,-160.57 259.59,-149.46 271.66,-147.41C283.49,-145.39 294.26,-152.52 299.11,-167.08L296.68,-168.66C292.24,-155.24 284.40,-149.87 274.67,-151.32C263.75,-152.96 261.85,-162.95 266.08,-191.19L274.07,-244.60L303.98,-240.12L300.09,-222.26L300.97,-221.64L316.85,-241.84L274.61,-248.16L277.73,-269.05L276.85,-269.66L265.59,-249.51ZM305.94,-147.86L306.20,-146.36L347.98,-140.11L348.67,-141.46L333.26,-152.02L342.46,-213.49C349.97,-224.74 362.14,-233.11 369.98,-231.94C381.84,-230.17 382.30,-216.99 378.78,-193.49L371.71,-146.26L353.89,-140.68L354.15,-139.18L395.92,-132.93L396.61,-134.28L376.46,-145.55L383.53,-192.78C387.47,-219.13 386.28,-233.87 372.04,-236.00C361.83,-237.53 351.91,-231.25 343.38,-219.66L355.43,-300.13L358.37,-308.42L328.99,-300.20L329.25,-298.71L350.11,-297.04L328.51,-152.73Z" fill="#ffffff" stroke="#000000"/>
    <path d="M-432.94,-271.30L-432.73,-269.81L-392.82,-262.31C-366.21,-257.31 -350.26,-271.47 -345.87,-294.81C-342.06,-315.12 -348.94,-326.07 -369.57,-333.33C-349.49,-333.43 -341.46,-344.00 -337.82,-363.38C-334.31,-382.05 -341.76,-397.71 -366.04,-402.27L-406.42,-409.86L-407.15,-408.54L-387.63,-396.66L-410.44,-275.28ZM-393.53,-339.53L-382.76,-398.16L-369.63,-398.59C-345.12,-393.99 -340.21,-380.26 -343.72,-361.58C-346.83,-345.01 -359.22,-333.08 -378.36,-336.68ZM-406.01,-274.45L-394.56,-335.37L-379.62,-332.56C-355.49,-328.51 -347.03,-314.36 -351.64,-293.72C-356.64,-270.97 -377.75,-260.20 -389.23,-265.98ZM-330.49,-338.07L-330.29,-336.59L-309.72,-334.17L-318.54,-287.25C-324.81,-253.88 -322.16,-246.13 -309.55,-243.76C-300.45,-242.05 -289.46,-246.51 -278.27,-257.21L-280.11,-239.68L-254.23,-241.10L-253.50,-242.41L-275.09,-248.40L-260.00,-328.70L-256.79,-336.79L-286.15,-329.74L-285.94,-328.25L-265.37,-325.84L-277.35,-262.12C-286.96,-252.08 -299.43,-246.21 -306.89,-247.61C-320.43,-250.15 -318.82,-260.00 -313.87,-286.38L-304.35,-337.03L-301.14,-345.12ZM-208.07,-377.42L-212.02,-356.41L-202.68,-354.66L-198.74,-375.66ZM-236.87,-318.06L-216.02,-315.84L-230.01,-241.38L-252.74,-237.43L-252.54,-235.95L-207.02,-227.39L-206.29,-228.71L-226.04,-240.63L-211.35,-318.83L-208.18,-326.69L-237.07,-319.55ZM-174.20,-376.37L-153.35,-374.14L-180.06,-231.99L-202.79,-228.05L-202.59,-226.56L-156.37,-217.88L-155.64,-219.19L-175.39,-231.12L-147.98,-377.00L-144.81,-384.86L-174.40,-377.86ZM-138.54,-258.75C-143.54,-232.14 -137.87,-213.43 -118.73,-209.84C-109.63,-208.13 -98.88,-212.63 -93.62,-221.31L-95.12,-205.64L-69.23,-207.06L-68.50,-208.37L-89.86,-214.32L-62.32,-360.90L-59.15,-368.77L-88.74,-361.76L-88.53,-360.27L-67.69,-358.05L-80.97,-287.32C-84.92,-298.45 -90.54,-304.58 -98.47,-306.08C-115.75,-309.32 -132.80,-289.33 -138.54,-258.75ZM-134.58,-254.14C-128.92,-284.25 -115.79,-305.22 -99.22,-302.11C-88.72,-300.13 -81.34,-286.66 -83.52,-273.78L-91.12,-234.61C-93.49,-222.01 -103.98,-211.17 -117.52,-213.72C-131.06,-216.26 -138.57,-232.90 -134.58,-254.14ZM-6.40,-191.63L-6.29,-189.67L70.74,-175.20L75.94,-220.86L74.45,-220.66L61.35,-181.80L19.58,-188.44L31.38,-251.23L58.32,-245.44L62.39,-228.48L62.94,-228.86L64.22,-247.23L69.61,-264.34L69.23,-264.90L59.06,-250.62L32.04,-254.73L44.58,-321.48L85.91,-312.51L82.64,-273.25L83.95,-272.52L96.56,-317.76L77.22,-318.98L20.03,-329.72L19.26,-328.18L38.82,-316.53L16.01,-195.15ZM91.73,-196.87C88.53,-179.83 98.41,-166.86 113.59,-164.01C124.09,-162.03 137.64,-166.01 142.32,-172.87L141.20,-160.51L167.08,-161.93L167.81,-163.24L146.22,-169.23L154.56,-213.58C161.27,-249.29 159.68,-257.57 142.13,-260.62C132.28,-262.23 116.80,-259.58 102.62,-249.68L111.68,-227.19L112.71,-227.49L113.74,-250.97C122.67,-256.06 132.28,-258.36 139.75,-256.96C158.89,-253.36 154.85,-240.83 148.35,-206.29C145.03,-211.75 134.19,-218.37 125.79,-219.95C109.45,-223.02 95.02,-214.38 91.73,-196.87ZM96.53,-196.69C99.07,-210.23 110.91,-217.92 125.15,-215.24C134.25,-213.53 143.44,-208.42 147.74,-203.02L142.92,-177.34C136.71,-170.05 125.24,-166.89 114.97,-168.82C101.67,-171.32 93.90,-182.69 96.53,-196.69ZM166.94,-158.57L167.14,-157.08L215.22,-148.05L215.95,-149.36L194.10,-161.68L205.03,-219.80C212.92,-233.54 223.74,-240.94 235.18,-238.79L231.59,-218.44L232.44,-217.80L247.33,-239.16C245.87,-240.40 243.24,-241.86 240.21,-242.43C225.50,-245.20 215.46,-239.35 206.17,-225.87L208.93,-240.58L212.14,-248.67L182.79,-241.62L182.99,-240.14L203.56,-237.72L189.44,-162.56ZM251.38,-235.02L251.25,-234.32L269.22,-230.94L258.92,-176.09C253.57,-147.61 256.07,-136.51 267.93,-134.04C279.56,-131.61 290.47,-138.26 295.80,-152.48L293.46,-154.13C288.58,-141.03 280.62,-136.00 271.05,-137.80C260.32,-139.82 258.80,-149.77 264.02,-177.54L273.89,-230.06L303.30,-224.54L298.80,-207.02L299.65,-206.37L316.10,-225.76L274.55,-233.56L278.41,-254.10L277.56,-254.75L265.68,-235.23ZM301.85,-133.22L302.05,-131.73L343.14,-124.01L343.87,-125.33L329.02,-136.33L340.38,-196.79C348.22,-207.64 360.56,-215.47 368.27,-214.02C379.94,-211.83 379.90,-198.79 375.56,-175.68L366.83,-129.23L349.00,-124.36L349.20,-122.87L390.29,-115.15L391.02,-116.47L371.50,-128.35L380.23,-174.80C385.10,-200.71 384.46,-215.33 370.46,-217.96C360.42,-219.85 350.38,-214.00 341.52,-202.86L356.39,-281.98L359.60,-290.08L330.24,-283.03L330.45,-281.54L351.02,-279.13L324.35,-137.21Z" fill="#ffffff" stroke="#000000"/>
    <path d="M-424.24,-282.66L-424.09,-281.18L-384.90,-272.30C-358.77,-266.38 -342.48,-279.79 -337.29,-302.71C-332.77,-322.65 -339.17,-333.74 -359.30,-341.68C-339.44,-341.03 -331.12,-351.19 -326.81,-370.21C-322.65,-388.55 -329.44,-404.30 -353.28,-409.71L-392.92,-418.69L-393.69,-417.42L-374.83,-404.96L-401.85,-285.78ZM-382.77,-348.68L-369.96,-406.26L-356.96,-406.21C-332.90,-400.75 -328.54,-386.99 -332.70,-368.66C-336.39,-352.39 -349.08,-341.05 -367.87,-345.31ZM-397.49,-284.79L-383.93,-344.61L-369.27,-341.28C-345.56,-336.39 -337.71,-322.08 -343.03,-301.84C-348.80,-279.54 -370.08,-269.66 -381.22,-275.80ZM-320.49,-344.93L-320.34,-343.45L-300.09,-340.30L-310.53,-294.24C-317.96,-261.46 -315.62,-253.70 -303.25,-250.90C-294.31,-248.87 -283.28,-252.88 -271.82,-263.05L-274.29,-245.78L-248.64,-246.23L-247.87,-247.51L-269.00,-254.22L-251.13,-333.06L-247.66,-340.95L-276.94,-335.06L-276.80,-333.58L-256.55,-330.43L-270.73,-267.87C-280.61,-258.30 -293.15,-252.95 -300.48,-254.61C-313.77,-257.62 -311.82,-267.30 -305.95,-293.20L-294.68,-342.93L-291.20,-350.82ZM-197.99,-379.33L-202.67,-358.70L-193.50,-356.63L-188.83,-377.25ZM-228.65,-321.70L-208.11,-318.73L-224.69,-245.62L-247.31,-242.56L-247.16,-241.08L-202.47,-230.95L-201.70,-232.22L-220.79,-244.74L-203.39,-321.52L-199.96,-329.18L-228.79,-323.18ZM-164.54,-377.05L-144.00,-374.08L-175.64,-234.51L-198.26,-231.44L-198.12,-229.96L-152.74,-219.68L-151.97,-220.95L-171.06,-233.47L-138.59,-376.71L-135.17,-384.37L-164.68,-378.53ZM-133.60,-259.44C-139.53,-233.31 -134.61,-214.60 -115.82,-210.34C-106.88,-208.32 -96.08,-212.38 -90.56,-220.77L-92.62,-205.33L-66.97,-205.78L-66.20,-207.05L-87.10,-213.72L-54.48,-357.64L-51.06,-365.30L-80.57,-359.46L-80.42,-357.98L-59.89,-355.02L-75.63,-285.57C-79.13,-296.73 -84.45,-302.99 -92.25,-304.76C-109.21,-308.60 -126.80,-289.46 -133.60,-259.44ZM-129.85,-254.73C-123.15,-284.30 -109.40,-304.55 -93.13,-300.86C-82.82,-298.53 -76.02,-284.94 -78.65,-272.28L-87.60,-233.83C-90.41,-221.45 -101.18,-211.12 -114.47,-214.14C-127.77,-217.15 -134.58,-233.87 -129.85,-254.73ZM-5.41,-188.21L-5.37,-186.27L70.26,-169.13L77.08,-214.09L75.60,-213.95L61.22,-176.00L20.16,-184.10L34.14,-245.75L60.57,-239.04L63.96,-222.13L64.52,-222.48L66.46,-240.60L72.42,-257.32L72.06,-257.88L61.48,-244.13L34.92,-249.19L49.77,-314.74L90.31,-304.35L85.63,-265.65L86.90,-264.88L101.03,-309.14L81.95,-311.06L25.80,-323.79L24.98,-322.29L43.89,-310.05L16.88,-190.87ZM91.81,-189.79C88.02,-173.06 97.32,-159.87 112.22,-156.49C122.53,-154.15 136.08,-157.59 140.95,-164.19L139.39,-152.02L165.04,-152.47L165.81,-153.74L144.68,-160.46L154.55,-204.00C162.50,-239.07 161.23,-247.31 143.99,-250.97C134.31,-252.93 118.91,-250.88 104.52,-241.61L112.66,-219.04L113.68,-219.29L115.56,-242.48C124.58,-247.18 134.17,-249.10 141.51,-247.44C160.30,-243.18 155.84,-230.94 148.15,-197.02C145.06,-202.54 134.59,-209.49 126.34,-211.36C110.30,-215.00 95.71,-206.98 91.81,-189.79ZM96.55,-189.44C99.56,-202.73 111.55,-209.89 125.53,-206.73C134.47,-204.70 143.37,-199.31 147.42,-193.81L141.71,-168.60C135.31,-161.62 123.85,-158.91 113.77,-161.20C100.70,-164.16 93.43,-175.69 96.55,-189.44ZM164.77,-149.16L164.92,-147.68L212.13,-136.98L212.90,-138.25L191.75,-151.24L204.68,-208.30C213.00,-221.60 223.96,-228.51 235.19,-225.97L230.90,-205.97L231.71,-205.31L247.22,-225.89C245.82,-227.17 243.28,-228.71 240.30,-229.39C225.86,-232.66 215.72,-227.25 206.03,-214.26L209.30,-228.70L212.78,-236.59L183.49,-230.70L183.64,-229.22L203.89,-226.07L187.16,-152.27ZM251.08,-221.64L250.92,-220.95L268.57,-216.95L256.36,-163.10C250.02,-135.13 252.09,-124.06 263.73,-121.19C275.14,-118.36 286.17,-124.53 291.97,-138.40L289.71,-140.12C284.40,-127.34 276.35,-122.66 266.96,-124.79C256.41,-127.18 255.28,-137.08 261.46,-164.35L273.15,-215.92L302.03,-209.37L296.94,-192.21L297.75,-191.55L314.73,-210.11L273.93,-219.35L278.50,-239.52L277.69,-240.19L265.22,-221.33ZM297.24,-119.13L297.39,-117.65L337.72,-108.51L338.49,-109.78L324.22,-121.21L337.67,-180.57C345.82,-191.01 358.32,-198.30 365.88,-196.59C377.34,-193.99 376.82,-181.09 371.68,-158.40L361.34,-112.79L343.54,-108.64L343.68,-107.16L384.02,-98.02L384.79,-99.29L365.93,-111.76L376.27,-157.36C382.03,-182.80 381.94,-197.28 368.19,-200.40C358.33,-202.63 348.19,-197.22 339.02,-186.53L356.63,-264.22L360.11,-272.11L330.82,-266.22L330.97,-264.74L351.22,-261.59L319.63,-122.25Z" fill="#ffffff" stroke="#000000"/>
    <path d="M-415.16,-293.79L-415.07,-292.32L-376.65,-282.10C-351.03,-275.28 -334.43,-287.95 -328.45,-310.42C-323.25,-329.96 -329.18,-341.16 -348.79,-349.75C-329.18,-348.38 -320.57,-358.12 -315.61,-376.77C-310.83,-394.74 -316.96,-410.57 -340.33,-416.79L-379.20,-427.13L-380.01,-425.90L-361.82,-412.88L-392.91,-296.05ZM-371.73,-357.54L-356.95,-413.99L-344.10,-413.46C-320.51,-407.18 -316.71,-393.42 -321.50,-375.45C-325.74,-359.50 -338.71,-348.75 -357.13,-353.65ZM-388.64,-294.91L-373.03,-353.55L-358.65,-349.73C-335.39,-344.02 -328.17,-329.59 -334.16,-309.77C-340.69,-287.93 -362.09,-278.95 -372.88,-285.43ZM-310.30,-351.54L-310.21,-350.07L-290.30,-346.22L-302.32,-301.06C-310.86,-268.93 -308.84,-261.17 -296.70,-257.94C-287.94,-255.61 -276.89,-259.17 -265.19,-268.80L-268.26,-251.82L-242.89,-251.32L-242.08,-252.55L-262.72,-259.97L-242.16,-337.26L-238.43,-344.93L-267.61,-340.18L-267.52,-338.71L-247.61,-334.86L-263.93,-273.52C-274.05,-264.42 -286.64,-259.59 -293.83,-261.51C-306.86,-264.97 -304.58,-274.47 -297.82,-299.86L-284.85,-348.62L-281.12,-356.29ZM-187.92,-381.05L-193.30,-360.83L-184.32,-358.44L-178.94,-378.66ZM-220.35,-325.20L-200.16,-321.51L-219.23,-249.84L-241.70,-247.64L-241.61,-246.17L-197.80,-234.51L-196.99,-235.74L-215.41,-248.82L-195.38,-324.09L-191.72,-331.54L-220.44,-326.67ZM-154.93,-377.56L-134.74,-373.88L-171.14,-237.04L-193.62,-234.84L-193.53,-233.38L-149.04,-221.54L-148.24,-222.77L-166.65,-235.85L-129.29,-376.28L-125.62,-383.72L-155.02,-379.03ZM-128.67,-260.15C-135.48,-234.53 -131.31,-215.86 -112.89,-210.96C-104.12,-208.63 -93.30,-212.24 -87.53,-220.33L-90.13,-205.14L-64.76,-204.65L-63.95,-205.88L-84.37,-213.23L-46.83,-354.34L-43.16,-361.78L-72.56,-357.09L-72.47,-355.62L-52.28,-351.94L-70.39,-283.86C-73.44,-295.01 -78.47,-301.41 -86.11,-303.44C-102.74,-307.86 -120.84,-289.58 -128.67,-260.15ZM-125.13,-255.36C-117.42,-284.34 -103.08,-303.86 -87.13,-299.62C-77.02,-296.93 -70.80,-283.24 -73.86,-270.83L-84.13,-233.14C-87.36,-221.01 -98.39,-211.19 -111.42,-214.66C-124.45,-218.12 -130.57,-234.91 -125.13,-255.36ZM-4.54,-185.02L-4.57,-183.10L69.57,-163.37L77.96,-207.58L76.50,-207.48L60.88,-170.50L20.59,-180.02L36.67,-240.46L62.55,-232.85L65.29,-216.00L65.86,-216.33L68.44,-234.17L74.94,-250.48L74.61,-251.05L63.64,-237.85L37.57,-243.83L54.66,-308.09L94.36,-296.32L88.31,-258.23L89.54,-257.42L105.14,-300.67L86.34,-303.27L31.29,-317.91L30.43,-316.46L48.68,-303.66L17.59,-186.83ZM91.64,-183.01C87.27,-166.60 95.98,-153.22 110.59,-149.33C120.70,-146.64 134.22,-149.54 139.28,-155.90L137.29,-143.91L162.66,-143.42L163.47,-144.65L142.83,-152.06L154.19,-194.75C163.33,-229.13 162.39,-237.32 145.47,-241.58C135.98,-243.87 120.67,-242.40 106.11,-233.77L113.32,-211.16L114.34,-211.37L117.05,-234.23C126.14,-238.54 135.70,-240.09 142.89,-238.18C161.31,-233.28 156.45,-221.34 147.60,-188.08C144.75,-193.65 134.65,-200.91 126.57,-203.06C110.84,-207.25 96.12,-199.86 91.64,-183.01ZM96.31,-182.48C99.78,-195.52 111.89,-202.16 125.59,-198.51C134.36,-196.18 142.96,-190.52 146.76,-184.94L140.19,-160.22C133.60,-153.56 122.18,-151.30 112.29,-153.93C99.48,-157.34 92.72,-169.00 96.31,-182.48ZM162.28,-140.15L162.37,-138.69L208.65,-126.37L209.46,-127.60L189.02,-141.22L203.91,-197.16C212.62,-210.00 223.71,-216.43 234.72,-213.50L229.75,-193.90L230.52,-193.21L246.61,-212.99C245.28,-214.30 242.82,-215.92 239.90,-216.70C225.75,-220.46 215.52,-215.49 205.46,-203.00L209.23,-217.16L212.95,-224.83L183.78,-220.08L183.87,-218.61L203.78,-214.76L184.53,-142.41ZM250.27,-208.65L250.09,-207.97L267.39,-203.37L253.34,-150.57C246.05,-123.16 247.69,-112.13 259.09,-108.86C270.26,-105.65 281.40,-111.34 287.64,-124.84L285.47,-126.62C279.75,-114.19 271.62,-109.86 262.41,-112.31C252.07,-115.06 251.32,-124.88 258.43,-151.62L271.88,-202.17L300.19,-194.64L294.53,-177.86L295.31,-177.17L312.78,-194.90L272.78,-205.54L278.04,-225.32L277.26,-226.00L264.24,-207.81ZM292.14,-105.60L292.23,-104.13L331.78,-93.61L332.59,-94.84L318.89,-106.66L334.37,-164.86C342.81,-174.88 355.44,-181.63 362.85,-179.65C374.08,-176.67 373.10,-163.93 367.19,-141.69L355.29,-96.98L337.53,-93.52L337.62,-92.06L377.16,-81.54L377.97,-82.76L359.78,-95.78L371.68,-140.50C378.31,-165.43 378.76,-179.75 365.27,-183.34C355.61,-185.91 345.39,-180.93 335.93,-170.70L356.19,-246.87L359.92,-254.54L330.75,-249.79L330.84,-248.32L350.74,-244.47L314.40,-107.86Z" fill="#ffffff" stroke="#000000"/>
    <path d="M-405.71,-304.66L-405.67,-303.21L-368.06,-291.69C-342.99,-284.01 -326.12,-295.92 -319.38,-317.91C-313.52,-337.04 -318.96,-348.33 -338.03,-357.54C-318.70,-355.47 -309.84,-364.78 -304.25,-383.03C-298.86,-400.63 -304.34,-416.50 -327.21,-423.50L-365.26,-435.16L-366.10,-433.97L-348.60,-420.43L-383.62,-306.07ZM-360.43,-366.08L-343.75,-421.35L-331.06,-420.35C-307.97,-413.28 -304.72,-399.54 -310.11,-381.94C-314.89,-366.33 -328.11,-356.18 -346.14,-361.71ZM-379.44,-304.80L-361.87,-362.19L-347.79,-357.88C-325.00,-351.39 -318.39,-336.85 -325.04,-317.48C-332.30,-296.13 -353.79,-288.04 -364.21,-294.84ZM-299.92,-357.90L-299.88,-356.44L-280.35,-351.90L-293.88,-307.70C-303.51,-276.25 -301.80,-268.51 -289.92,-264.87C-281.34,-262.24 -270.29,-265.35 -258.36,-274.45L-262.03,-257.77L-236.97,-256.35L-236.12,-257.53L-256.25,-265.62L-233.09,-341.28L-229.12,-348.72L-258.13,-345.10L-258.10,-343.64L-238.56,-339.10L-256.95,-279.07C-267.29,-270.45 -279.91,-266.13 -286.95,-268.29C-299.70,-272.20 -297.10,-281.50 -289.49,-306.35L-274.87,-354.07L-270.91,-361.52ZM-177.86,-382.57L-183.92,-362.78L-175.13,-360.09L-169.06,-379.88ZM-211.97,-328.55L-192.14,-324.17L-213.63,-254.01L-235.93,-252.66L-235.89,-251.21L-193.01,-238.08L-192.17,-239.26L-209.89,-252.87L-187.32,-326.54L-183.43,-333.77L-212.00,-330.01ZM-145.37,-377.92L-125.55,-373.53L-166.56,-239.60L-188.87,-238.25L-188.83,-236.80L-145.29,-223.46L-144.44,-224.65L-162.17,-238.25L-120.07,-375.70L-116.17,-382.93L-145.41,-379.37ZM-123.73,-260.88C-131.40,-235.81 -127.96,-217.19 -109.93,-211.67C-101.35,-209.04 -90.52,-212.22 -84.53,-220.01L-87.65,-205.09L-62.59,-203.67L-61.74,-204.85L-81.66,-212.87L-39.36,-350.98L-35.46,-358.21L-64.70,-354.65L-64.66,-353.20L-44.84,-348.81L-65.24,-282.18C-67.85,-293.32 -72.59,-299.82 -80.07,-302.11C-96.34,-307.09 -114.90,-289.69 -123.73,-260.88ZM-120.40,-256.01C-111.72,-284.38 -96.83,-303.15 -81.21,-298.37C-71.32,-295.34 -65.67,-281.58 -69.15,-269.42L-80.69,-232.54C-84.32,-220.67 -95.59,-211.37 -108.34,-215.27C-121.10,-219.18 -126.53,-236.00 -120.40,-256.01ZM-3.78,-182.05L-3.88,-180.15L68.69,-157.93L78.61,-201.31L77.16,-201.28L60.36,-165.29L20.88,-176.18L39.00,-235.34L64.31,-226.86L66.39,-210.11L66.97,-210.41L70.17,-227.95L77.20,-243.84L76.90,-244.42L65.57,-231.77L40.01,-238.63L59.27,-301.53L98.08,-288.44L90.71,-251.01L91.89,-250.17L108.90,-292.35L90.41,-295.60L36.53,-312.10L35.62,-310.70L53.19,-297.38L18.17,-183.02ZM91.23,-176.52C86.31,-160.47 94.43,-146.92 108.72,-142.54C118.62,-139.51 132.09,-141.88 137.33,-147.97L134.92,-136.20L159.99,-134.78L160.83,-135.96L140.70,-144.05L153.49,-185.84C163.80,-219.49 163.16,-227.62 146.60,-232.45C137.30,-235.06 122.11,-234.18 107.39,-226.18L113.70,-203.56L114.71,-203.73L118.23,-226.22C127.38,-230.16 136.88,-231.34 143.92,-229.18C161.95,-223.66 156.71,-212.04 146.74,-179.49C144.13,-185.10 134.41,-192.65 126.49,-195.07C111.10,-199.78 96.28,-193.02 91.23,-176.52ZM95.83,-175.84C99.73,-188.59 111.95,-194.71 125.37,-190.60C133.94,-187.98 142.24,-182.07 145.79,-176.41L138.39,-152.22C131.63,-145.87 120.25,-144.06 110.58,-147.02C98.04,-150.86 91.79,-162.64 95.83,-175.84ZM159.48,-131.57L159.52,-130.11L204.82,-116.24L205.67,-117.42L185.96,-131.63L202.73,-186.39C211.82,-198.77 223.02,-204.72 233.80,-201.42L228.16,-182.22L228.90,-181.51L245.53,-200.47C244.26,-201.82 241.89,-203.51 239.03,-204.38C225.18,-208.63 214.89,-204.08 204.49,-192.11L208.73,-205.97L212.69,-213.41L183.68,-209.79L183.72,-208.33L203.25,-203.79L181.57,-132.98ZM248.99,-196.04L248.79,-195.38L265.72,-190.20L249.89,-138.52C241.67,-111.69 242.89,-100.73 254.04,-97.07C264.97,-93.49 276.19,-98.71 282.85,-111.82L280.77,-113.66C274.66,-101.58 266.47,-97.60 257.45,-100.36C247.33,-103.46 246.95,-113.20 254.96,-139.37L270.12,-188.85L297.83,-180.36L291.61,-163.99L292.35,-163.28L310.27,-180.16L271.13,-192.15L277.05,-211.50L276.31,-212.21L262.77,-194.71ZM286.60,-92.64L286.63,-91.18L325.34,-79.33L326.18,-80.51L313.08,-92.70L330.52,-149.66C339.23,-159.26 351.96,-165.47 359.22,-163.25C370.21,-159.88 368.77,-147.33 362.11,-125.56L348.70,-81.79L331.02,-79.03L331.05,-77.58L369.76,-65.72L370.60,-66.91L353.10,-80.45L366.50,-124.21C373.98,-148.62 374.94,-162.76 361.75,-166.80C352.29,-169.70 342.00,-165.15 332.27,-155.38L355.10,-229.93L359.07,-237.38L330.06,-233.76L330.09,-232.30L349.63,-227.76L308.68,-94.05Z" fill="#ffffff" stroke="#000000"/>
    <path d="M-395.88,-315.26L-395.90,-313.82L-359.15,-301.05C-334.65,-292.54 -317.53,-303.69 -310.07,-325.18C-303.57,-343.88 -308.54,-355.24 -327.05,-365.04C-308.02,-362.28 -298.91,-371.16 -292.71,-389.00C-286.74,-406.19 -291.58,-422.08 -313.93,-429.85L-351.11,-442.76L-351.98,-441.62L-335.18,-427.59L-374.00,-315.84ZM-348.87,-374.31L-330.35,-428.33L-317.85,-426.87C-295.29,-419.03 -292.58,-405.33 -298.55,-388.14C-303.85,-372.88 -317.28,-363.34 -334.91,-369.46ZM-369.92,-314.43L-350.43,-370.52L-336.68,-365.74C-314.39,-358.48 -308.39,-343.87 -315.68,-324.97C-323.64,-304.13 -345.17,-296.92 -355.23,-304.03ZM-289.36,-363.99L-289.38,-362.55L-270.23,-357.35L-285.24,-314.15C-295.91,-283.42 -294.50,-275.70 -282.90,-271.67C-274.51,-268.76 -263.47,-271.43 -251.35,-279.98L-255.58,-263.63L-230.86,-261.31L-229.99,-262.45L-249.59,-271.18L-223.91,-345.11L-219.72,-352.32L-248.53,-349.81L-248.55,-348.37L-229.40,-343.16L-249.78,-284.50C-260.32,-276.35 -272.96,-272.56 -279.83,-274.94C-292.30,-279.27 -289.38,-288.37 -280.94,-312.66L-264.74,-359.29L-260.55,-366.51ZM-167.81,-383.90L-174.52,-364.56L-165.93,-361.57L-159.21,-380.92ZM-203.50,-331.76L-184.07,-326.69L-207.88,-258.14L-229.97,-257.63L-229.99,-256.19L-188.09,-241.63L-187.21,-242.77L-204.23,-256.87L-179.22,-328.86L-175.10,-335.86L-203.48,-333.20ZM-135.86,-378.10L-116.43,-373.04L-161.89,-242.16L-183.99,-241.65L-184.00,-240.21L-141.45,-225.43L-140.58,-226.57L-157.59,-240.67L-110.94,-374.98L-106.82,-381.98L-135.84,-379.54ZM-118.77,-261.62C-127.28,-237.12 -124.56,-218.60 -106.94,-212.48C-98.56,-209.56 -87.73,-212.31 -81.52,-219.78L-85.16,-205.15L-60.44,-202.83L-59.56,-203.97L-78.95,-212.63L-32.07,-347.59L-27.95,-354.59L-56.97,-352.14L-56.99,-350.71L-37.56,-345.64L-60.18,-280.53C-62.34,-291.63 -66.79,-298.24 -74.10,-300.77C-90.00,-306.30 -108.99,-289.77 -118.77,-261.62ZM-115.66,-256.69C-106.03,-284.41 -90.62,-302.42 -75.37,-297.12C-65.70,-293.76 -60.62,-279.96 -64.51,-268.06L-77.26,-232.03C-81.30,-220.43 -92.77,-211.65 -105.24,-215.98C-117.70,-220.31 -122.46,-237.13 -115.66,-256.69ZM-3.10,-179.30L-3.27,-177.43L67.65,-152.79L79.05,-195.31L77.61,-195.33L59.68,-160.38L21.06,-172.59L41.14,-230.40L65.85,-221.09L67.29,-204.46L67.87,-204.74L71.68,-221.96L79.22,-237.40L78.94,-237.98L67.27,-225.90L42.26,-233.62L63.61,-295.08L101.49,-280.72L92.83,-243.99L93.97,-243.11L112.33,-284.18L94.17,-288.08L41.52,-306.37L40.57,-305.01L57.45,-291.20L18.63,-179.45ZM90.60,-170.35C85.15,-154.66 92.68,-140.97 106.65,-136.11C116.32,-132.75 129.72,-134.60 135.12,-140.43L132.32,-128.88L157.04,-126.56L157.91,-127.70L138.31,-136.43L152.49,-177.27C163.92,-210.15 163.59,-218.21 147.39,-223.59C138.29,-226.51 123.25,-226.20 108.41,-218.83L113.81,-196.24L114.82,-196.37L119.13,-218.48C128.31,-222.03 137.74,-222.85 144.62,-220.46C162.24,-214.34 156.63,-203.04 145.58,-171.24C143.21,-176.88 133.88,-184.69 126.14,-187.38C111.10,-192.61 96.20,-186.46 90.60,-170.35ZM95.13,-169.50C99.46,-181.96 111.76,-187.56 124.87,-183.01C133.25,-180.10 141.23,-173.95 144.54,-168.23L136.33,-144.59C129.42,-138.56 118.10,-137.19 108.65,-140.48C96.40,-144.73 90.65,-156.60 95.13,-169.50ZM156.42,-123.40L156.40,-121.96L200.67,-106.58L201.55,-107.72L182.60,-122.49L201.19,-176.01C210.62,-187.90 221.91,-193.37 232.44,-189.71L226.16,-170.94L226.87,-170.21L244.01,-188.34C242.80,-189.73 240.52,-191.48 237.73,-192.45C224.19,-197.16 213.85,-193.04 203.13,-181.59L207.83,-195.13L212.02,-202.35L183.21,-199.83L183.19,-198.39L202.34,-193.19L178.30,-123.99ZM247.26,-183.84L247.04,-183.20L263.58,-177.45L246.04,-126.95C236.93,-100.73 237.73,-89.86 248.62,-85.83C259.29,-81.89 270.57,-86.64 277.64,-99.35L275.65,-101.25C269.17,-89.53 260.92,-85.89 252.11,-88.96C242.22,-92.39 242.20,-102.03 251.08,-127.60L267.88,-175.96L294.96,-166.55L288.21,-150.59L288.92,-149.86L307.25,-165.89L269.00,-179.18L275.57,-198.09L274.86,-198.82L260.83,-182.02ZM280.63,-80.25L280.62,-78.81L318.44,-65.67L319.32,-66.81L306.81,-79.35L326.15,-135.01C335.11,-144.17 347.92,-149.84 355.01,-147.38C365.75,-143.64 363.87,-131.29 356.48,-110.02L341.63,-67.25L324.04,-65.17L324.03,-63.73L361.85,-50.59L362.73,-51.73L345.92,-65.76L360.78,-108.52C369.07,-132.38 370.54,-146.32 357.64,-150.80C348.40,-154.01 338.06,-149.89 328.09,-140.59L353.39,-213.44L357.59,-220.66L328.78,-218.14L328.76,-216.70L347.90,-211.50L302.51,-80.84Z" fill="#ffffff" stroke="#000000"/>
    <path d="M-385.69,-325.56L-385.76,-324.14L-349.91,-310.18C-326.01,-300.86 -308.68,-311.26 -300.51,-332.22C-293.41,-350.46 -297.90,-361.87 -315.83,-372.24C-297.12,-368.81 -287.80,-377.25 -281.02,-394.66C-274.49,-411.43 -278.68,-427.31 -300.49,-435.80L-336.76,-449.93L-337.67,-448.84L-321.57,-434.36L-364.05,-325.34ZM-337.07,-382.20L-316.77,-434.90L-304.47,-433.01C-282.46,-424.43 -280.29,-410.79 -286.82,-394.02C-292.62,-379.13 -306.25,-370.19 -323.44,-376.89ZM-360.06,-323.79L-338.74,-378.51L-325.33,-373.28C-303.57,-365.29 -298.17,-350.63 -306.07,-332.21C-314.70,-311.91 -336.25,-305.58 -345.93,-312.97ZM-278.62,-369.82L-278.69,-368.40L-259.97,-362.55L-276.38,-320.41C-288.06,-290.43 -286.95,-282.75 -275.63,-278.34C-267.45,-275.15 -256.44,-277.38 -244.14,-285.39L-248.93,-269.39L-224.58,-266.18L-223.67,-267.27L-242.73,-276.63L-214.63,-348.75L-210.22,-355.73L-238.79,-354.30L-238.86,-352.88L-220.13,-347.03L-242.43,-289.79C-253.14,-282.13 -265.77,-278.85 -272.48,-281.46C-284.64,-286.20 -281.42,-295.08 -272.19,-318.77L-254.47,-364.27L-250.06,-371.24ZM-157.76,-385.03L-165.11,-366.16L-156.72,-362.89L-149.37,-381.76ZM-194.95,-334.80L-175.93,-329.08L-201.98,-262.21L-223.84,-262.51L-223.91,-261.09L-183.03,-245.16L-182.12,-246.26L-198.42,-260.82L-171.06,-331.05L-166.73,-337.82L-194.88,-336.23ZM-126.40,-378.13L-107.38,-372.41L-157.12,-244.73L-178.97,-245.03L-179.04,-243.61L-137.53,-227.44L-136.62,-228.53L-152.93,-243.09L-101.88,-374.13L-97.55,-380.89L-126.33,-379.55ZM-113.78,-262.37C-123.09,-238.47 -121.09,-220.07 -103.90,-213.37C-95.72,-210.18 -84.92,-212.50 -78.51,-219.66L-82.64,-205.33L-58.29,-202.12L-57.38,-203.22L-76.23,-212.49L-24.94,-344.15L-20.61,-350.92L-49.39,-349.57L-49.46,-348.15L-30.44,-342.43L-55.18,-278.91C-56.91,-289.96 -61.07,-296.65 -68.20,-299.43C-83.71,-305.47 -103.08,-289.84 -113.78,-262.37ZM-110.90,-257.39C-100.36,-284.43 -84.47,-301.66 -69.58,-295.87C-60.15,-292.19 -55.64,-278.36 -59.92,-266.75L-73.85,-231.61C-78.26,-220.29 -89.93,-212.03 -102.09,-216.77C-114.25,-221.51 -118.33,-238.31 -110.90,-257.39ZM-2.49,-176.76L-2.73,-174.92L66.46,-147.97L79.29,-189.58L77.87,-189.65L58.87,-155.76L21.14,-169.25L43.11,-225.64L67.19,-215.54L68.00,-199.04L68.59,-199.30L72.99,-216.18L81.00,-231.16L80.74,-231.75L68.77,-220.23L44.34,-228.79L67.70,-288.75L104.61,-273.16L94.69,-237.18L95.79,-236.27L115.44,-276.18L97.64,-280.70L46.28,-300.71L45.29,-299.41L61.46,-285.14L18.99,-176.12ZM89.79,-164.47C83.83,-149.17 90.76,-135.36 104.39,-130.05C113.83,-126.38 127.14,-127.71 132.69,-133.27L129.49,-121.96L153.84,-118.76L154.75,-119.85L135.70,-129.21L151.21,-169.04C163.71,-201.12 163.68,-209.10 147.87,-215.01C138.99,-218.23 124.11,-218.48 109.17,-211.74L113.68,-189.22L114.68,-189.31L119.75,-211.00C128.95,-214.17 138.31,-214.63 145.02,-212.02C162.21,-205.32 156.25,-194.36 144.16,-163.34C142.02,-169.00 133.09,-177.07 125.54,-180.01C110.87,-185.72 95.92,-180.20 89.79,-164.47ZM94.23,-163.47C98.97,-175.63 111.33,-180.71 124.12,-175.73C132.30,-172.55 139.96,-166.18 143.02,-160.40L134.03,-137.34C126.98,-131.63 115.75,-130.70 106.53,-134.29C94.58,-138.95 89.33,-150.89 94.23,-163.47ZM153.12,-115.66L153.04,-114.24L196.23,-97.41L197.14,-98.51L178.95,-113.80L199.29,-166.01C209.05,-177.42 220.41,-182.41 230.68,-178.41L223.79,-160.08L224.46,-159.34L242.07,-176.63C240.92,-178.04 238.74,-179.86 236.01,-180.92C222.80,-186.06 212.43,-182.38 201.42,-171.46L206.56,-184.66L210.97,-191.64L182.40,-190.21L182.33,-188.79L201.06,-182.94L174.76,-115.44ZM245.11,-172.06L244.87,-171.43L261.01,-165.14L241.82,-115.87C231.85,-90.30 232.24,-79.52 242.86,-75.14C253.26,-70.85 264.58,-75.13 272.03,-87.44L270.14,-89.39C263.30,-78.04 255.02,-74.75 246.42,-78.10C236.78,-81.86 237.11,-91.39 246.83,-116.34L265.21,-163.51L291.62,-153.22L284.37,-137.69L285.04,-136.95L303.75,-152.11L266.43,-166.65L273.62,-185.10L272.94,-185.85L258.46,-169.76ZM274.29,-68.45L274.22,-67.03L311.12,-52.65L312.03,-53.75L300.13,-66.59L321.29,-120.89C330.48,-129.63 343.35,-134.76 350.27,-132.06C360.75,-127.98 358.44,-115.84 350.35,-95.08L334.10,-53.36L316.64,-51.95L316.57,-50.53L353.47,-36.16L354.38,-37.25L338.29,-51.73L354.54,-93.45C363.61,-116.72 365.57,-130.44 353.00,-135.34C343.98,-138.86 333.61,-135.17 323.41,-126.34L351.10,-197.42L355.51,-204.39L326.94,-202.96L326.87,-201.54L345.60,-195.70L295.94,-68.23Z" fill="#ffffff" stroke="#000000"/>
    <path d="M-913,491.77L-912.92,492L-906.08,492L-906.01,491.77L-908.82,490.48L-908.82,480.83L-901.14,480.83L-901.14,490.48L-903.99,491.77L-903.92,492L-897.04,492L-896.96,491.77L-900.38,490.48L-900.38,470.72L-896.96,469.43L-897.04,469.20L-903.88,469.20L-903.96,469.43L-901.14,470.72L-901.14,480.11L-908.82,480.11L-908.82,470.72L-905.97,469.43L-906.05,469.20L-912.92,469.20L-913,469.43L-909.58,470.72L-909.58,490.48ZM-896.01,487.97C-896.01,490.75 -894.08,492.49 -891.61,492.49C-889.90,492.49 -887.88,491.47 -887.35,490.25L-887.16,492.23L-883.13,491.24L-883.06,491.01L-886.63,490.71L-886.63,483.49C-886.63,477.67 -887.12,476.42 -889.97,476.46C-891.57,476.50 -893.92,477.37 -895.86,479.35L-893.77,482.61L-893.62,482.54L-894.15,478.81C-892.90,477.75 -891.45,477.10 -890.24,477.10C-887.12,477.10 -887.39,479.19 -887.39,484.82C-888.07,484.06 -889.97,483.34 -891.34,483.34C-894,483.34 -896.01,485.12 -896.01,487.97ZM-895.25,487.86C-895.25,485.65 -893.62,484.10 -891.30,484.10C-889.82,484.10 -888.22,484.63 -887.39,485.35L-887.39,489.53C-888.15,490.86 -889.86,491.70 -891.53,491.70C-893.70,491.70 -895.25,490.14 -895.25,487.86ZM-882.94,467.60L-879.60,467.34L-879.60,490.48L-883.06,491.77L-882.98,492L-875.46,492L-875.38,491.77L-878.84,490.48L-878.84,466.73L-878.57,465.40L-883.02,467.38ZM-871.85,468.44L-871.85,471.86L-870.33,471.86L-870.33,468.44ZM-874.62,478.62L-871.28,478.36L-871.28,490.48L-874.73,491.77L-874.66,492L-867.25,492L-867.17,491.77L-870.63,490.48L-870.63,477.75L-870.36,476.42L-874.70,478.40ZM-867.74,467.38L-867.67,467.60L-864.32,467.34L-864.32,488.05L-865.54,492L-865.31,492.08L-863.52,489.87C-863.11,490.67 -861.81,492.11 -860.07,492.11C-857.06,492.11 -855.35,488.35 -855.35,483.15C-855.35,479.19 -857.48,476.42 -860.26,476.42C-861.59,476.42 -862.65,477.26 -863.56,478.85L-863.56,466.73L-863.30,465.40ZM-863.56,487.06L-863.56,481.06C-863.52,478.62 -861.70,477.07 -860.26,477.07C-858.39,477.07 -856.11,479.23 -856.11,483.75C-856.11,487.78 -857.44,491.47 -860.14,491.47C-862.31,491.47 -863.52,489.00 -863.56,487.06ZM-853.83,478.24L-853.76,478.47L-850.45,478.24L-850.45,485.88C-850.45,491.32 -849.81,492.46 -847.75,492.46C-846.27,492.46 -844.68,491.43 -843.23,489.42L-843.00,492.23L-838.98,491.24L-838.90,491.01L-842.47,490.71L-842.47,477.64L-842.21,476.27L-846.61,478.24L-846.54,478.47L-843.23,478.24L-843.23,488.62C-844.45,490.48 -846.23,491.77 -847.45,491.77C-849.65,491.77 -849.69,490.18 -849.69,485.88L-849.69,477.64L-849.43,476.27ZM-838.82,477.26L-838.82,477.37L-835.90,477.37L-835.90,486.30C-835.90,490.94 -835.18,492.61 -833.24,492.65C-831.34,492.68 -829.82,491.32 -829.40,488.92L-829.82,488.73C-830.20,490.94 -831.30,491.96 -832.86,491.96C-834.61,491.96 -835.14,490.44 -835.14,485.92L-835.14,477.37L-830.35,477.37L-830.54,480.26L-830.39,480.33L-828.37,476.80L-835.14,476.80L-835.14,473.46L-835.29,473.38L-836.58,476.80ZM-827.31,489.64C-826.59,491.35 -823.21,492.34 -821.00,492.30C-817.54,492.23 -815.57,490.06 -815.61,486.41C-815.64,484.10 -817.32,482.50 -821.00,480.11C-824.00,478.17 -825.37,476.34 -825.45,474.22C-825.56,471.10 -823.93,469.12 -821.42,469.09C-819.37,469.05 -817.81,471.14 -817.66,471.90L-817.43,478.51L-817.28,478.59L-815.99,471.06C-816.78,469.92 -819.03,468.36 -821.34,468.40C-824.27,468.44 -826.21,470.76 -826.21,474.22C-826.21,476.42 -824.92,478.51 -821.57,480.79C-819.44,482.23 -816.44,483.75 -816.37,486.49C-816.29,489.57 -818.15,491.58 -821.00,491.62C-823.28,491.66 -824.76,490.94 -825.64,489.38L-825.79,483.11L-825.94,483.03ZM-812.95,483.68C-812.95,489.53 -811.50,492.38 -808.58,492.38C-806.11,492.38 -804.66,490.63 -804.09,487.02L-804.51,486.83C-804.93,489.87 -806.45,491.85 -808.39,491.81C-810.63,491.77 -811.77,489.42 -812.00,484.44L-803.86,484.44C-803.90,479.23 -805.46,476.42 -808.31,476.42C-811.01,476.42 -812.95,479.42 -812.95,483.68ZM-812.00,483.98C-812.03,479.27 -810.82,476.99 -808.31,476.99C-806.18,476.99 -804.97,479.31 -804.78,483.75ZM-801.96,491.77L-801.89,492L-794.06,492L-793.98,491.77L-797.78,490.48L-797.78,481.02C-796.95,478.62 -795.47,477.14 -793.60,477.14L-793.57,480.45L-793.41,480.52L-791.70,476.72C-791.97,476.57 -792.43,476.42 -792.92,476.42C-795.31,476.42 -796.72,477.64 -797.78,480.03L-797.78,477.64L-797.52,476.27L-801.93,478.24L-801.85,478.47L-798.54,478.24L-798.54,490.48ZM-787.87,468.44L-787.87,471.86L-786.35,471.86L-786.35,468.44ZM-790.64,478.62L-787.30,478.36L-787.30,490.48L-790.75,491.77L-790.68,492L-783.27,492L-783.19,491.77L-786.65,490.48L-786.65,477.75L-786.38,476.42L-790.72,478.40ZM-783.00,491.85L-782.93,492L-774.38,492L-774.30,491.85L-778.82,490.48L-778.82,477.37L-775.48,477.37L-775.67,480.26L-775.52,480.33L-773.50,476.80L-778.82,476.80L-778.82,475.13C-778.82,468.29 -778.48,466.01 -777.04,466.01C-776.01,466.01 -774.45,466.65 -773.39,468.02L-773.92,471.82L-773.77,471.90L-771.68,468.55C-773.46,466.46 -775.52,465.40 -777.04,465.40C-779.54,465.40 -779.58,468.74 -779.58,475.13L-779.58,476.80L-781.79,477.26L-781.79,477.37L-779.58,477.37L-779.58,490.48ZM-771.49,482.84L-771.49,482.99L-760.09,483.64L-760.09,482.20ZM-757.05,479.00C-757.05,487.02 -755.45,492.34 -752.11,492.34C-750.21,492.34 -748.76,491.24 -747.28,488.50L-747.51,488.28C-748.76,490.48 -750.13,491.58 -751.65,491.58C-755.00,491.58 -756.14,486.79 -756.14,477.48C-756.14,472.51 -754.39,469.28 -751.69,469.28C-750.32,469.28 -749.26,470.19 -748.65,471.90L-748.12,478.74L-747.97,478.81L-746.98,471.06C-748.99,469.12 -750.21,468.67 -751.42,468.67C-755.41,468.67 -757.05,471.71 -757.05,479.00ZM-739.83,492.38C-736.64,492.38 -735.24,489.30 -735.24,484.70C-735.24,479.16 -736.91,476.42 -739.68,476.42C-742.34,476.42 -744.32,479.35 -744.32,483.68C-744.32,489.42 -742.95,492.38 -739.83,492.38ZM-739.80,491.81C-742.23,491.77 -743.41,488.88 -743.41,482.46C-743.41,479.04 -741.66,476.99 -739.68,476.99C-737.44,476.99 -736.11,479.50 -736.15,485.16C-736.11,490.02 -737.90,491.85 -739.80,491.81ZM-733.91,491.77L-733.83,492L-727.14,492L-727.07,491.77L-729.73,490.48L-729.73,480.64C-728.81,478.70 -727.10,477.10 -725.85,477.10C-723.95,477.10 -723.57,479.16 -723.57,482.92L-723.57,490.48L-726.23,491.77L-726.15,492L-719.47,492L-719.39,491.77L-722.81,490.48L-722.81,482.92C-722.81,478.70 -723.34,476.42 -725.62,476.42C-727.26,476.42 -728.66,477.64 -729.73,479.65L-729.73,477.64L-729.46,476.27L-733.87,478.24L-733.79,478.47L-730.49,478.24L-730.49,490.48ZM-718.25,485.05C-718.25,489.38 -716.81,492.15 -713.69,492.15C-712.21,492.15 -710.65,491.13 -710.08,489.61L-709.85,492.11L-705.82,491.13L-705.75,490.90L-709.28,490.59L-709.28,466.73L-709.02,465.40L-713.46,467.38L-713.39,467.60L-710.04,467.34L-710.04,478.85C-710.99,477.22 -712.06,476.42 -713.35,476.42C-716.16,476.42 -718.25,480.07 -718.25,485.05ZM-717.49,485.65C-717.49,480.75 -716.05,477.07 -713.35,477.07C-711.64,477.07 -710.08,478.97 -710.04,481.06L-710.08,487.44C-710.08,489.49 -711.41,491.51 -713.61,491.51C-715.82,491.51 -717.49,489.11 -717.49,485.65ZM-704.23,483.68C-704.23,489.53 -702.78,492.38 -699.86,492.38C-697.39,492.38 -695.94,490.63 -695.37,487.02L-695.79,486.83C-696.21,489.87 -697.73,491.85 -699.67,491.81C-701.91,491.77 -703.05,489.42 -703.28,484.44L-695.15,484.44C-695.18,479.23 -696.74,476.42 -699.59,476.42C-702.29,476.42 -704.23,479.42 -704.23,483.68ZM-703.28,483.98C-703.32,479.27 -702.10,476.99 -699.59,476.99C-697.46,476.99 -696.25,479.31 -696.06,483.75ZM-693.06,491.77L-692.98,492L-686.29,492L-686.22,491.77L-688.88,490.48L-688.88,480.64C-687.96,478.70 -686.25,477.10 -685,477.10C-683.10,477.10 -682.72,479.16 -682.72,482.92L-682.72,490.48L-685.38,491.77L-685.30,492L-678.62,492L-678.54,491.77L-681.96,490.48L-681.96,482.92C-681.96,478.70 -682.49,476.42 -684.77,476.42C-686.41,476.42 -687.81,477.64 -688.88,479.65L-688.88,477.64L-688.61,476.27L-693.02,478.24L-692.94,478.47L-689.64,478.24L-689.64,490.48ZM-677.10,490.63C-676.11,491.77 -673.49,492.72 -671.51,492.61C-668.93,492.38 -667.44,490.67 -667.56,488.09C-667.67,486.34 -668.96,485.46 -672.16,483.79C-674.66,482.42 -675.54,481.97 -675.73,480.33C-675.96,478.47 -674.66,477.07 -672.73,477.03C-671.62,476.99 -670.45,477.56 -669.76,478.47L-669.95,481.89L-669.80,481.97L-668.05,478.47C-670.14,477.10 -671.28,476.42 -672.65,476.46C-675.20,476.53 -676.60,478.17 -676.49,480.52C-676.41,482.39 -675.20,483.03 -672.38,484.55C-669.91,485.88 -668.39,486.83 -668.32,488.35C-668.17,490.48 -669.61,491.89 -671.62,491.96C-672.99,492 -674.47,491.62 -675.20,490.59L-675.35,486.76L-675.54,486.68ZM-665.13,483.68C-665.13,489.53 -663.68,492.38 -660.76,492.38C-658.29,492.38 -656.84,490.63 -656.27,487.02L-656.69,486.83C-657.11,489.87 -658.63,491.85 -660.57,491.81C-662.81,491.77 -663.95,489.42 -664.18,484.44L-656.04,484.44C-656.08,479.23 -657.64,476.42 -660.49,476.42C-663.19,476.42 -665.13,479.42 -665.13,483.68ZM-664.18,483.98C-664.21,479.27 -663.00,476.99 -660.49,476.99C-658.36,476.99 -657.15,479.31 -656.96,483.75ZM-653.00,485.05C-653.00,489.38 -651.56,492.15 -648.44,492.15C-646.96,492.15 -645.40,491.13 -644.83,489.61L-644.61,492.11L-640.58,491.13L-640.50,490.90L-644.04,490.59L-644.04,466.73L-643.77,465.40L-648.22,467.38L-648.14,467.60L-644.80,467.34L-644.80,478.85C-645.75,477.22 -646.81,476.42 -648.10,476.42C-650.91,476.42 -653.00,480.07 -653.00,485.05ZM-652.24,485.65C-652.24,480.75 -650.80,477.07 -648.10,477.07C-646.39,477.07 -644.83,478.97 -644.80,481.06L-644.83,487.44C-644.83,489.49 -646.16,491.51 -648.37,491.51C-650.57,491.51 -652.24,489.11 -652.24,485.65ZM-639.36,468.82L-638.75,476.38L-638.60,476.31L-637.84,469.88L-633.40,469.54L-633.40,490.48L-637.31,491.77L-637.23,492L-628.80,492L-628.72,491.77L-632.64,490.48L-632.64,469.54L-628.15,469.88L-627.16,476.31L-627.01,476.38L-626.63,468.82L-629.48,469.20L-636.51,469.20ZM-625.87,491.77L-625.80,492L-619.11,492L-619.03,491.77L-621.69,490.48L-621.69,480.64C-620.78,478.70 -619.07,477.10 -617.82,477.10C-615.92,477.10 -615.54,479.16 -615.54,482.92L-615.54,490.48L-618.20,491.77L-618.12,492L-611.43,492L-611.36,491.77L-614.78,490.48L-614.78,482.92C-614.78,478.70 -615.31,476.42 -617.59,476.42C-619.22,476.42 -620.63,477.64 -621.69,479.65L-621.69,466.77L-621.43,465.40L-625.83,467.38L-625.76,467.60L-622.45,467.38L-622.45,490.48ZM-607.82,468.44L-607.82,471.86L-606.30,471.86L-606.30,468.44ZM-610.60,478.62L-607.25,478.36L-607.25,490.48L-610.71,491.77L-610.63,492L-603.22,492L-603.15,491.77L-606.61,490.48L-606.61,477.75L-606.34,476.42L-610.67,478.40ZM-602.39,491.77L-602.31,492L-595.62,492L-595.55,491.77L-598.21,490.48L-598.21,480.64C-597.30,478.70 -595.59,477.10 -594.33,477.10C-592.43,477.10 -592.05,479.16 -592.05,482.92L-592.05,490.48L-594.71,491.77L-594.64,492L-587.95,492L-587.87,491.77L-591.29,490.48L-591.29,482.92C-591.29,478.70 -591.82,476.42 -594.10,476.42C-595.74,476.42 -597.14,477.64 -598.21,479.65L-598.21,477.64L-597.94,476.27L-602.35,478.24L-602.27,478.47L-598.97,478.24L-598.97,490.48Z"/>
</svg>