<?xml version="1.0"?>
<svg xmlns="http://www.w3.org/2000/svg" width="1920" height="1080" viewBox="-960 -540 1920 1080">
    <path d="M-396.88,-224.76L-441.90,-246.41L-456.31,-300.01L-440.94,-353.59L-396.88,-375.23L-361.60,-363.25L-344.87,-332.14L-323.70,-342.84L-345.78,-379.60L-396.88,-395.63L-460.38,-367.60L-481.80,-299.99L-460.38,-232.39L-396.88,-204.37L-345.89,-220.66L-324.21,-256.14L-344.87,-267.61L-363.31,-236.52ZM-270.50,-210L-270.50,-390L-293,-390L-293,-210ZM-220.93,-361.74L-212.80,-370.64L-212.78,-383.35L-221.07,-392.46L-232.63,-392.46L-240.70,-383.37L-240.70,-370.67L-232.49,-361.74ZM-215.50,-210L-215.50,-340L-238,-340L-238,-210ZM-184.17,-210L-161.62,-210L-161.62,-277.25L-155.48,-310.56L-128.93,-325.70L-111.35,-317.60L-105.57,-295.03L-105.57,-210L-83.07,-210L-83.07,-285.25L-75.03,-313.68L-50.14,-325.70L-31.05,-315.47L-26.75,-292.48L-26.75,-210L-4.25,-210L-4.25,-300.50L-14.31,-333.36L-45.29,-345.09L-68.75,-339.45L-86.57,-319.75L-99.71,-338.68L-123.40,-344.97L-147.00,-339.87L-163.87,-321.50L-163.87,-340L-184.12,-340ZM106.10,-297.19L32.79,-274.70L17.87,-243.62L31.26,-214.10L62.99,-204.86L86.27,-209.38L107.60,-225.04L107.50,-210L128.50,-210L128.53,-293.86L116.69,-332.03L77.79,-345.13L42.79,-336.58L25.78,-311.21L43.62,-300.24L55.08,-320.00L75.49,-326.75L97.37,-320.35ZM106.10,-277.30L106.09,-244.38L90.18,-230.45L66.58,-223.21L49.64,-227.60L41.86,-244.62L51.89,-262.29ZM218.20,-208.26L218.20,-208.26L215.61,-227.65L205.53,-226.14L194.69,-231.63L192.75,-248L192.75,-322.75L215,-322.75L215,-340L192.75,-340L192.75,-385L170.25,-385L170.25,-340L151.75,-340L151.75,-322.75L170.25,-322.75L170.25,-248L175.38,-216.61L201.00,-205.85ZM270.87,-234.73L257.75,-269.23L354.25,-269.25L355.50,-278.25L340.61,-325.87L295.51,-345.22L251.40,-326.61L234.83,-275.10L251.40,-223.59L295.51,-204.97L332.65,-215.94L349.75,-242.75L332.23,-253.69L318.60,-231.44L296.79,-224.11ZM258.50,-287.25L272.62,-317.01L295.49,-326.13L321.00,-315.28L331.25,-287.25ZM-904.88,15L-845.13,15L-779.39,-7.84L-757.72,-75.52L-780.80,-143.34L-848.38,-165L-904.88,-165ZM-881.13,-6L-881.13,-143.75L-848.38,-143.75L-800.62,-129.94L-782.70,-75.76L-798.52,-22.31L-847.63,-6ZM-704.01,-9.73L-717.12,-44.23L-620.63,-44.25L-619.38,-53.25L-634.26,-100.87L-679.36,-120.22L-723.47,-101.61L-740.05,-50.10L-723.47,1.41L-679.36,20.03L-642.22,9.06L-625.13,-17.75L-642.64,-28.69L-656.28,-6.44L-678.09,0.89ZM-716.38,-62.25L-702.25,-92.01L-679.38,-101.13L-653.88,-90.28L-643.63,-62.25ZM-581.77,-25.27L-600.88,-16.34L-588.16,9.17L-549.64,20.16L-512.89,11.01L-496.06,-20.13L-506.17,-46.80L-528.07,-58.06L-558.38,-66.25L-575.22,-73L-580.75,-83.38L-573.51,-96.21L-552.30,-100.91L-531.93,-95.35L-523.17,-78.81L-504.24,-87.74L-515.25,-109.52L-551.45,-120.13L-587.31,-110.92L-602.71,-80.85L-592.72,-56.99L-570.16,-46.22L-538.13,-37.75L-523.03,-30.17L-519.04,-18.13L-529.09,-3.03L-548.88,0.98L-572.78,-6.88ZM-455.05,-136.74L-446.92,-145.64L-446.90,-158.35L-455.19,-167.46L-466.75,-167.46L-474.82,-158.37L-474.83,-145.67L-466.61,-136.74ZM-449.63,15L-449.63,-115L-472.13,-115L-472.13,15ZM-368.15,69.39L-321.58,49.85L-310.38,6.50L-310.38,-115L-330.38,-115L-330.38,-97.50L-345.10,-114.11L-367.90,-120.61L-410.10,-101.04L-424.75,-50.49L-410.10,0.06L-367.90,19.63L-347.76,14.83L-332.88,1.25L-332.94,10.79L-340.89,39.89L-367.62,50.00L-388.43,44.13L-396.63,26.50L-414.63,34.75L-403.28,58.67ZM-366.62,-101.48L-341.77,-88.59L-330.13,-50.47L-340.83,-12.35L-366.62,0.52L-391.75,-12.35L-401.79,-50.47L-391.75,-88.59ZM-278.24,15L-255.74,15L-255.74,-55.75L-245.99,-89.15L-220.56,-100.70L-199.48,-90.95L-193.38,-64.75L-193.38,15L-170.88,15L-170.88,-64.75L-179.39,-104.40L-215.98,-120.09L-240.28,-114.73L-257.99,-96.25L-257.99,-115L-278.24,-115ZM-111.51,-9.73L-124.62,-44.23L-28.13,-44.25L-26.88,-53.25L-41.76,-100.87L-86.86,-120.22L-130.97,-101.61L-147.55,-50.10L-130.97,1.41L-86.86,20.03L-49.72,9.06L-32.63,-17.75L-50.14,-28.69L-63.78,-6.44L-85.59,0.89ZM-123.88,-62.25L-109.75,-92.01L-86.88,-101.13L-61.38,-90.28L-51.13,-62.25ZM52.23,-98.34L69.13,-92.75L75.88,-111.75L53.85,-120.09L32.37,-113.43L17.38,-92.50L17.38,-115L-2.88,-115L-2.88,13.73L19.63,15L19.63,-55.25L27.85,-86.59ZM106.98,-25.27L87.87,-16.34L100.59,9.17L139.11,20.16L175.86,11.01L192.69,-20.13L182.58,-46.80L160.68,-58.06L130.38,-66.25L113.53,-73L108.00,-83.38L115.24,-96.21L136.45,-100.91L156.82,-95.35L165.58,-78.81L184.51,-87.74L173.50,-109.52L137.30,-120.13L101.44,-110.92L86.04,-80.85L96.03,-56.99L118.59,-46.22L150.63,-37.75L165.72,-30.17L169.71,-18.13L159.66,-3.03L139.87,0.98L115.97,-6.88ZM344.13,40L344.13,18.75L313.63,18.75L313.63,-168.75L344.13,-168.75L344.13,-190L289.88,-190L289.88,40ZM475.38,-165L452.88,-165L452.88,-101.48L438.78,-114.37L417.94,-119.57L375.72,-100.00L361.06,-49.45L375.72,1.11L417.94,20.68L439.99,14.62L455.38,-2.75L455.38,15L475.38,15ZM419.24,-100.45L445.02,-87.57L455.70,-49.45L444.06,-11.33L419.24,1.54L394.07,-11.33L384.03,-49.45L394.07,-87.57ZM561.12,-120.13L516.36,-101.51L499.16,-50.00L516.37,1.51L561.12,20.12L605.88,1.50L623.10,-50.00L605.89,-101.51ZM561.12,1.01L534.06,-10.91L522.12,-49.98L534.07,-89.06L561.12,-100.99L588.20,-89.06L600.16,-49.98L588.20,-10.91ZM702.07,16.74L702.08,16.74L699.48,-2.65L689.40,-1.14L678.56,-6.63L676.63,-23L676.63,-97.75L698.88,-97.75L698.88,-115L676.63,-115L676.63,-160L654.13,-160L654.13,-115L635.63,-115L635.63,-97.75L654.13,-97.75L654.13,-23L659.26,8.39L684.88,19.15ZM775.38,40L775.38,-190L721.13,-190L721.13,-168.75L751.63,-168.75L751.63,18.75L721.13,18.75L721.13,40ZM-147.88,104.88L-192.64,123.49L-209.84,175.00L-192.63,226.51L-147.88,245.12L-103.12,226.50L-85.90,175.00L-103.11,123.49ZM-147.88,226.01L-174.94,214.09L-186.88,175.02L-174.93,135.94L-147.88,124.01L-120.80,135.94L-108.84,175.02L-120.80,214.09ZM-7.02,126.66L9.88,132.25L16.63,113.25L-5.40,104.91L-26.88,111.57L-41.88,132.50L-41.88,110L-62.13,110L-62.13,238.73L-39.63,240L-39.63,169.75L-31.40,138.41ZM83.10,294.39L129.67,274.85L140.88,231.50L140.88,110L120.88,110L120.88,127.50L106.15,110.89L83.35,104.39L41.15,123.96L26.50,174.51L41.15,225.06L83.35,244.63L103.49,239.83L118.38,226.25L118.31,235.79L110.36,264.89L83.63,275.00L62.82,269.13L54.63,251.50L36.63,259.75L47.97,283.67ZM84.63,123.52L109.48,136.41L121.12,174.53L110.42,212.65L84.63,225.52L59.50,212.65L49.46,174.53L59.50,136.41Z" fill="#ffffff" stroke="#000000"/>
    <path d="M-407.54,-202.95L-452.96,-222.53L-469.39,-274.96L-456.37,-328.59L-413.67,-351.79L-378.29,-341.38L-360.48,-311.28L-339.97,-322.73L-363.30,-358.19L-414.50,-371.96L-476.18,-341.66L-494.61,-273.90L-470.67,-207.91L-406.71,-182.78L-356.94,-200.96L-336.94,-236.95L-357.85,-247.45L-374.82,-215.95ZM-281.93,-193.49L-289.27,-371.54L-311.52,-370.63L-304.19,-192.58ZM-239.08,-345.60L-231.40,-354.74L-231.90,-367.31L-240.47,-375.99L-251.90,-375.52L-259.51,-366.20L-259.00,-353.64L-250.51,-345.13ZM-227.53,-195.73L-232.83,-324.33L-255.08,-323.41L-249.79,-194.82ZM-196.54,-197.01L-174.23,-197.93L-176.97,-264.45L-172.26,-297.65L-146.61,-313.70L-128.89,-306.41L-122.26,-284.32L-118.79,-200.21L-96.54,-201.13L-99.60,-275.56L-92.80,-304.02L-68.68,-316.91L-49.38,-307.57L-44.19,-285.01L-40.83,-203.42L-18.57,-204.34L-22.26,-293.86L-33.54,-325.95L-64.67,-336.29L-87.65,-329.76L-104.47,-309.55L-118.24,-327.74L-141.92,-332.99L-165.06,-326.98L-181.00,-308.13L-181.76,-326.43L-201.79,-325.60ZM87.03,-295.07L15.43,-269.84L1.94,-238.50L16.39,-209.84L48.15,-201.99L70.99,-207.42L91.45,-223.77L91.97,-208.89L112.74,-209.75L109.36,-292.70L96.09,-329.97L57.08,-341.34L22.80,-331.46L7.01,-305.68L25.11,-295.55L35.63,-315.56L55.55,-323.08L77.46,-317.64ZM87.85,-275.40L89.17,-242.85L74.00,-228.41L50.96,-220.29L34.02,-223.94L25.63,-240.46L34.83,-258.35ZM201.54,-211.67L201.54,-211.68L198.18,-230.75L188.28,-228.85L177.33,-233.84L174.75,-249.95L171.70,-323.89L193.71,-324.80L193.01,-341.86L171.00,-340.95L169.17,-385.47L146.91,-384.55L148.74,-340.04L130.44,-339.28L131.15,-322.22L149.45,-322.97L152.49,-249.03L158.85,-218.19L184.62,-208.60ZM252.56,-240.01L238.18,-273.60L333.63,-277.55L334.50,-286.50L317.83,-333.00L272.43,-350.30L229.56,-330.10L215.27,-278.47L233.76,-228.19L278.15,-211.58L314.44,-223.94L330.26,-251.15L312.48,-261.26L299.91,-238.70L278.63,-230.56ZM238.19,-291.45L250.94,-321.46L273.19,-331.42L298.87,-321.73L310.15,-294.42ZM-900.27,54.91L-841.17,52.47L-777.08,27.20L-758.40,-40.63L-783.99,-106.77L-851.71,-125.44L-907.60,-123.14ZM-877.63,33.17L-883.24,-103.09L-850.85,-104.42L-803.05,-92.71L-783.12,-39.84L-796.58,13.67L-844.50,31.80ZM-702.59,22.26L-716.97,-11.33L-621.51,-15.28L-620.64,-24.23L-637.31,-70.73L-682.71,-88.03L-725.58,-67.83L-739.88,-16.20L-721.39,34.08L-677.00,50.69L-640.70,38.33L-624.89,11.12L-642.66,1.01L-655.24,23.57L-676.51,31.71ZM-716.96,-29.18L-704.20,-59.19L-681.95,-69.15L-656.28,-59.46L-645.00,-32.15ZM-582.31,1.91L-600.85,11.52L-587.22,36.24L-548.68,45.54L-512.70,35.00L-497.32,3.51L-508.40,-22.47L-530.52,-32.71L-560.83,-39.58L-577.78,-45.57L-583.66,-55.61L-577.03,-68.59L-556.24,-74.11L-535.86,-69.44L-526.52,-53.44L-508.16,-63.04L-519.94,-84.13L-556.18,-93.15L-591.28,-82.58L-605.29,-52.22L-594.43,-29.01L-571.68,-19.29L-539.64,-12.21L-524.41,-5.32L-519.97,6.42L-529.29,21.76L-548.70,26.54L-572.66,19.73ZM-461.51,-113.51L-453.82,-122.64L-454.32,-135.22L-462.89,-143.89L-474.33,-143.42L-481.94,-134.10L-481.43,-121.54L-472.94,-113.04ZM-449.95,36.36L-455.25,-92.23L-477.50,-91.31L-472.21,37.28ZM-367.15,86.84L-321.88,65.62L-312.56,22.28L-317.51,-97.90L-337.29,-97.08L-336.58,-79.77L-351.82,-95.60L-374.63,-101.11L-415.58,-80.03L-428.02,-29.43L-411.47,19.98L-368.92,37.62L-349.20,32.05L-335.03,18.01L-334.70,27.45L-341.39,56.55L-367.41,67.64L-388.24,62.68L-397.06,45.58L-414.53,54.47L-402.34,77.67ZM-372.59,-82.23L-347.49,-70.50L-334.42,-33.26L-343.45,4.87L-368.44,18.66L-393.82,6.95L-405.30,-30.34L-396.92,-68.47ZM-280.43,29.38L-258.17,28.47L-261.06,-41.52L-252.77,-74.96L-228.08,-87.41L-206.83,-78.63L-199.73,-52.96L-196.48,25.93L-174.22,25.01L-177.47,-53.88L-187.51,-92.75L-224.34,-106.78L-248.16,-100.49L-264.93,-81.49L-265.70,-100.03L-285.73,-99.21ZM-116.51,-1.87L-130.89,-35.46L-35.44,-39.41L-34.57,-48.37L-51.23,-94.87L-96.63,-112.17L-139.51,-91.96L-153.80,-40.33L-135.31,9.94L-90.92,26.56L-54.63,14.20L-38.81,-13.02L-56.58,-23.12L-69.16,-0.56L-90.44,7.58ZM-130.88,-53.32L-118.13,-83.33L-95.87,-93.28L-70.20,-83.59L-58.92,-56.28ZM41.85,-96.19L58.79,-91.35L64.69,-110.42L42.56,-117.77L21.59,-110.31L7.61,-88.99L6.69,-111.25L-13.34,-110.42L-8.10,16.91L14.21,17.25L11.35,-52.24L18.21,-83.58ZM98.98,-26.15L80.43,-16.53L94.07,8.19L132.61,17.49L168.59,6.94L183.97,-24.55L172.88,-50.52L150.76,-60.76L120.45,-67.63L103.51,-73.62L97.62,-83.67L104.26,-96.64L125.04,-102.16L145.43,-97.50L154.76,-81.49L173.12,-91.09L161.35,-112.18L125.11,-121.20L90.01,-110.64L76.00,-80.27L86.86,-57.07L109.61,-47.34L141.64,-40.26L156.88,-33.38L161.31,-21.63L151.99,-6.29L132.59,-1.51L108.62,-8.32ZM336.21,28.76L335.35,7.74L305.18,8.98L297.54,-176.48L327.71,-177.73L326.84,-198.75L273.18,-196.54L282.55,30.97ZM457.69,-179.36L435.43,-178.45L438.02,-115.61L423.55,-127.79L402.73,-132.09L361.77,-111.01L349.32,-60.41L365.88,-11.00L408.44,6.64L430.01,-0.25L444.51,-18.06L445.24,-0.50L465.02,-1.31ZM404.79,-113.23L430.82,-101.54L442.94,-64.26L432.98,-26.08L408.94,-12.34L383.53,-24.05L372.04,-61.34L380.42,-99.46ZM544.33,-138.47L500.82,-118.23L485.90,-66.58L505.02,-16.33L550.04,0.26L593.56,-19.98L608.49,-71.63L589.38,-121.88ZM549.26,-18.65L522.02,-29.33L508.62,-67.49L518.84,-106.64L545.11,-119.54L572.38,-108.84L585.80,-70.67L575.56,-31.54ZM689.33,-8.82L689.34,-8.83L685.98,-27.90L676.07,-26.00L665.13,-30.99L662.54,-47.10L659.50,-121.04L681.51,-121.95L680.80,-139.01L658.79,-138.10L656.96,-182.61L634.71,-181.70L636.54,-137.19L618.24,-136.43L618.94,-119.37L637.24,-120.12L640.29,-46.18L646.64,-15.34L672.42,-5.75ZM762.79,11.20L753.42,-216.31L699.76,-214.10L700.62,-193.08L730.79,-194.32L738.43,-8.86L708.26,-7.61L709.13,13.41ZM-147.82,112.97L-191.33,133.21L-206.25,184.86L-187.13,235.11L-142.11,251.70L-98.59,231.46L-83.66,179.81L-102.77,129.56ZM-142.89,232.79L-170.13,222.11L-183.54,183.95L-173.31,144.80L-147.04,131.90L-119.77,142.60L-106.35,180.77L-116.59,219.90ZM-7.60,128.78L9.34,133.63L15.24,114.56L-6.88,107.21L-27.86,114.67L-41.84,135.98L-42.75,113.73L-62.78,114.55L-57.54,241.88L-35.23,242.22L-38.09,172.74L-31.23,141.40ZM88.38,291.02L133.65,269.80L142.96,226.46L138.02,106.28L118.23,107.10L118.95,124.41L103.70,108.58L80.89,103.07L39.94,124.15L27.51,174.75L44.06,224.16L86.60,241.80L106.32,236.23L120.49,222.19L120.82,231.63L114.14,260.73L88.11,271.82L67.28,266.87L58.46,249.76L41.00,258.65L53.19,281.86ZM82.93,121.95L108.03,133.68L121.10,170.92L112.08,209.06L87.09,222.84L61.71,211.13L50.22,173.84L58.60,135.72Z" fill="#ffffff" stroke="#000000"/>
    <path d="M-416.97,-180.72L-462.69,-198.23L-481.08,-249.42L-470.38,-302.99L-429.09,-327.68L-393.68,-318.82L-374.83,-289.78L-355.01,-301.94L-379.54,-336.06L-430.74,-347.60L-490.50,-315.11L-505.97,-247.35L-479.61,-183.05L-415.33,-160.80L-366.84,-180.81L-348.52,-217.22L-369.63,-226.75L-385.13,-194.91ZM-292.35,-176.48L-306.85,-352.28L-328.83,-350.47L-314.32,-174.67ZM-256.16,-328.67L-248.94,-338.02L-249.94,-350.44L-258.77,-358.67L-270.06,-357.74L-277.21,-348.21L-276.19,-335.81L-267.45,-327.74ZM-238.63,-180.91L-249.11,-307.88L-271.08,-306.07L-260.61,-179.10ZM-208.03,-183.44L-186.01,-185.25L-191.43,-250.94L-188.11,-283.96L-163.40,-300.89L-145.58,-294.39L-138.12,-272.82L-131.27,-189.77L-109.29,-191.58L-115.35,-265.08L-109.79,-293.50L-86.45,-307.24L-66.98,-298.78L-60.93,-276.68L-54.28,-196.12L-32.31,-197.93L-39.60,-286.32L-52.07,-317.61L-83.28,-326.56L-105.74,-319.17L-121.55,-298.49L-135.91,-315.92L-159.55,-320.16L-182.19,-313.27L-197.19,-293.97L-198.68,-312.04L-218.46,-310.41ZM68.45,-291.98L-1.34,-264.11L-13.41,-232.55L2.05,-204.80L33.78,-198.33L56.15,-204.62L75.72,-221.63L76.84,-206.94L97.35,-208.63L90.62,-290.54L75.98,-326.86L36.93,-336.52L3.44,-325.35L-11.14,-299.20L7.18,-289.93L16.77,-310.14L36.17,-318.39L58.06,-313.90ZM70.05,-272.55L72.69,-240.41L58.27,-225.51L35.81,-216.54L18.91,-219.46L9.93,-235.46L18.31,-253.53ZM185.09,-214.15L185.10,-214.16L181.00,-232.89L171.28,-230.60L160.25,-235.09L157.04,-250.92L151.01,-323.93L172.75,-325.72L171.36,-342.57L149.62,-340.78L146.00,-384.73L124.02,-382.91L127.65,-338.96L109.58,-337.47L110.97,-320.62L129.04,-322.11L135.06,-249.11L142.60,-218.86L168.49,-210.42ZM234.40,-244.25L218.81,-276.89L313.06,-284.69L313.55,-293.58L295.18,-338.89L249.57,-354.15L207.99,-332.42L195.95,-280.78L216.29,-231.80L260.87,-217.18L296.26,-230.88L310.80,-258.44L292.81,-267.71L281.29,-244.89L260.57,-235.97ZM218.09,-294.55L229.48,-324.75L251.09,-335.50L276.87,-326.97L289.14,-300.41ZM-893.80,94.39L-835.45,89.57L-773.09,61.97L-757.37,-5.88L-785.38,-70.26L-853.12,-85.97L-908.31,-81.42ZM-872.30,71.96L-883.40,-62.58L-851.41,-65.22L-803.66,-55.58L-781.79,-4.10L-792.93,49.38L-839.58,69.26ZM-699.61,54.05L-715.20,21.41L-620.96,13.61L-620.46,4.72L-638.84,-40.59L-684.45,-55.85L-726.03,-34.12L-738.06,17.53L-717.73,66.50L-673.15,81.12L-637.75,67.42L-623.22,39.86L-641.21,30.59L-652.73,53.41L-673.44,62.33ZM-715.92,3.75L-704.53,-26.45L-682.93,-37.20L-657.14,-28.67L-644.87,-2.11ZM-581.48,29.02L-599.43,39.28L-584.94,63.17L-546.44,70.81L-511.28,58.91L-497.35,27.14L-509.37,1.90L-531.67,-7.33L-561.93,-12.89L-578.93,-18.12L-585.16,-27.82L-579.13,-40.93L-558.79,-47.23L-538.44,-43.45L-528.56,-28.00L-510.79,-38.24L-523.30,-58.62L-559.51,-66.07L-593.79,-54.18L-606.41,-23.58L-594.73,-1.07L-571.83,7.62L-539.86,13.32L-524.51,19.51L-519.64,30.94L-528.23,46.50L-547.23,52.01L-571.21,46.25ZM-466.70,-90.05L-459.47,-99.40L-460.48,-111.82L-469.31,-120.05L-480.60,-119.12L-487.75,-109.60L-486.73,-97.19L-477.99,-89.12ZM-449.17,57.70L-459.64,-69.26L-481.62,-67.45L-471.14,59.52ZM-365.21,104.26L-321.30,81.42L-313.85,38.18L-323.64,-80.48L-343.17,-78.87L-341.76,-61.78L-357.49,-76.81L-380.27,-81.33L-419.92,-58.82L-430.15,-8.26L-411.77,39.93L-368.97,55.64L-349.70,49.34L-336.25,34.87L-335.54,44.19L-340.97,73.25L-366.26,85.28L-387.06,81.22L-396.48,64.67L-413.39,74.17L-400.39,96.62ZM-377.48,-62.74L-352.18,-52.16L-337.74,-15.87L-345.11,22.22L-369.27,36.87L-394.84,26.32L-407.72,-10.09L-400.99,-48.14ZM-281.78,43.90L-259.81,42.08L-265.51,-27.02L-258.67,-60.43L-234.76,-73.75L-213.39,-65.93L-205.32,-40.83L-198.89,37.06L-176.92,35.25L-183.34,-42.65L-194.86,-80.68L-231.85,-93.06L-255.15,-85.87L-270.97,-66.39L-272.48,-84.70L-292.26,-83.07ZM-120.93,6.31L-136.52,-26.33L-42.27,-34.13L-41.78,-43.02L-60.15,-88.33L-105.76,-103.59L-147.34,-81.86L-159.38,-30.21L-139.04,18.76L-94.46,33.38L-59.07,19.68L-44.53,-7.88L-62.52,-17.15L-74.04,5.67L-94.76,14.59ZM-137.24,-43.99L-125.85,-74.19L-104.24,-84.94L-78.46,-76.41L-66.19,-49.85ZM31.85,-93.43L48.80,-89.33L53.87,-108.43L31.68,-114.80L11.24,-106.57L-1.72,-84.92L-3.53,-106.89L-23.31,-105.26L-12.94,20.47L9.14,19.90L3.48,-48.72L8.99,-79.99ZM91.21,-26.48L73.26,-16.21L87.75,7.68L126.25,15.31L161.41,3.41L175.34,-28.36L163.32,-53.60L141.02,-62.82L110.76,-68.38L93.76,-73.62L87.53,-83.31L93.56,-96.42L113.90,-102.73L134.25,-98.94L144.13,-83.49L161.90,-93.73L149.39,-114.11L113.18,-121.56L78.90,-109.68L66.28,-79.07L77.96,-56.57L100.86,-47.87L132.83,-42.18L148.18,-35.99L153.05,-24.55L144.46,-9.00L125.46,-3.48L101.48,-9.24ZM328.09,18.17L326.37,-2.59L296.59,-0.13L281.48,-183.26L311.27,-185.72L309.56,-206.47L256.57,-202.10L275.10,22.54ZM439.76,-192.63L417.78,-190.81L422.90,-128.78L408.10,-140.23L387.32,-143.63L347.67,-121.11L337.42,-70.56L355.82,-22.37L398.62,-6.65L419.68,-14.35L433.30,-32.55L434.73,-15.21L454.26,-16.82ZM390.13,-125.06L416.35,-114.56L429.86,-78.18L421.56,-40.02L398.35,-25.45L372.74,-35.99L359.85,-72.41L366.59,-110.45ZM527.12,-155.71L484.90,-133.92L472.26,-82.23L493.21,-33.31L538.42,-18.73L580.63,-40.53L593.30,-92.21L572.35,-141.14ZM536.88,-37.40L509.49,-46.86L494.68,-84.06L503.20,-123.19L528.66,-137.02L556.07,-127.55L570.90,-90.34L562.36,-51.22ZM675.81,-33.39L675.82,-33.39L671.72,-52.12L662.00,-49.84L650.97,-54.33L647.76,-70.15L641.73,-143.16L663.47,-144.95L662.08,-161.80L640.34,-160.01L636.72,-203.96L614.74,-202.15L618.37,-158.20L600.30,-156.71L601.69,-139.86L619.76,-141.35L625.78,-68.34L633.32,-38.10L659.21,-29.66ZM749.28,-16.58L730.75,-241.22L677.76,-236.85L679.48,-216.09L709.27,-218.55L724.37,-35.42L694.58,-32.96L696.30,-12.21ZM-147.22,121.17L-189.43,142.96L-202.08,194.65L-181.13,243.57L-135.92,258.15L-93.70,236.35L-81.04,184.67L-101.99,135.74ZM-137.46,239.48L-164.85,230.02L-179.65,192.82L-171.13,153.69L-145.68,139.86L-118.27,149.33L-103.44,186.53L-111.97,225.66ZM-7.89,131.10L9.06,135.20L14.13,116.10L-8.06,109.73L-28.50,117.96L-41.46,139.61L-43.27,117.64L-63.05,119.27L-52.68,244.99L-30.60,244.42L-36.26,175.81L-30.75,144.53ZM93.65,287.65L137.55,264.82L145.01,221.58L135.22,102.91L115.68,104.52L117.09,121.61L101.37,106.58L78.59,102.06L38.94,124.58L28.71,175.13L47.09,223.33L89.89,239.04L109.16,232.73L122.61,218.26L123.31,227.59L117.89,256.65L92.60,268.67L71.80,264.62L62.38,248.06L45.46,257.57L58.47,280.02ZM81.37,120.65L106.68,131.23L121.12,167.53L113.75,205.62L89.59,220.27L64.01,209.72L51.14,173.30L57.87,135.26Z" fill="#ffffff" stroke="#000000"/>
    <path d="M-425.14,-158.14L-471.07,-173.59L-491.34,-223.47L-482.94,-276.89L-443.12,-302.98L-407.73,-295.66L-387.91,-267.71L-368.81,-280.54L-394.45,-313.29L-445.55,-322.61L-503.34,-288.05L-515.88,-220.40L-487.18,-157.89L-422.71,-138.51L-375.57,-160.27L-358.94,-197.02L-380.20,-205.59L-394.23,-173.46ZM-301.73,-159.02L-323.23,-332.29L-344.89,-329.61L-323.38,-156.33ZM-272.13,-311.01L-265.37,-320.55L-266.87,-332.79L-275.94,-340.57L-287.06,-339.19L-293.75,-329.47L-292.23,-317.25L-283.26,-309.63ZM-248.78,-165.59L-264.31,-290.73L-285.97,-288.05L-270.44,-162.90ZM-218.62,-169.34L-196.92,-172.03L-204.95,-236.77L-203.02,-269.56L-179.27,-287.31L-161.38,-281.61L-153.12,-260.57L-142.96,-178.72L-121.30,-181.41L-130.29,-253.85L-125.95,-282.18L-103.42,-296.72L-83.83,-289.15L-76.94,-267.54L-67.09,-188.14L-45.43,-190.83L-56.24,-277.94L-69.85,-308.38L-101.07,-315.96L-122.99,-307.74L-137.78,-286.64L-152.69,-303.29L-176.24,-306.52L-198.36,-298.79L-212.40,-279.09L-214.61,-296.90L-234.10,-294.48ZM50.38,-287.94L-17.50,-257.53L-28.15,-225.83L-11.73,-199.01L19.91,-193.91L41.78,-201.05L60.44,-218.66L62.14,-204.18L82.36,-206.69L72.37,-287.42L56.42,-322.74L17.40,-330.70L-15.27,-318.29L-28.61,-291.84L-10.13,-283.41L-1.46,-303.80L17.39,-312.74L39.21,-309.20ZM52.76,-268.79L56.68,-237.11L43.03,-221.79L21.18,-212.00L4.35,-214.21L-5.18,-229.66L2.37,-247.87ZM168.91,-215.72L168.91,-215.73L164.10,-234.08L154.58,-231.43L143.49,-235.42L139.67,-250.94L130.74,-322.90L152.16,-325.55L150.10,-342.16L128.68,-339.50L123.30,-382.82L101.64,-380.13L107.02,-336.81L89.21,-334.60L91.27,-318.00L109.08,-320.21L118.01,-248.25L126.70,-218.65L152.64,-211.36ZM216.45,-247.50L199.70,-279.14L292.59,-290.69L292.72,-299.50L272.70,-343.57L226.97,-356.80L186.73,-333.61L176.94,-282.05L199.04,-234.45L243.73,-221.80L278.17,-236.79L291.42,-264.64L273.26,-273.08L262.79,-250.04L242.67,-240.37ZM198.27,-296.58L208.31,-326.91L229.23,-338.42L255.08,-331.03L268.30,-305.27ZM-885.51,133.35L-827.99,126.21L-767.45,96.37L-754.67,28.63L-784.99,-33.90L-852.62,-46.67L-907.01,-39.92ZM-865.15,110.29L-881.61,-22.31L-850.08,-26.22L-802.47,-18.63L-778.74,31.39L-787.58,84.73L-832.91,106.29ZM-695.10,85.55L-711.85,53.90L-618.96,42.36L-618.83,33.54L-638.85,-10.52L-684.58,-23.76L-724.82,-0.57L-734.62,50.99L-712.51,98.60L-667.83,111.25L-633.38,96.25L-620.13,68.40L-638.30,59.97L-648.76,83.01L-668.88,92.67ZM-713.28,36.47L-703.24,6.14L-682.32,-5.38L-656.47,2.01L-643.25,27.78ZM-579.29,55.98L-596.63,66.86L-581.32,89.90L-542.94,95.88L-508.65,82.68L-496.17,50.69L-509.09,26.22L-531.51,18.01L-561.67,13.74L-578.69,9.26L-585.25,-0.08L-579.82,-13.29L-559.96,-20.35L-539.68,-17.43L-529.28,-2.56L-512.12,-13.41L-525.32,-33.06L-561.44,-38.95L-594.86,-25.80L-606.09,4.98L-593.62,26.76L-570.62,34.43L-538.77,38.76L-523.34,44.25L-518.06,55.36L-525.92,71.10L-544.49,77.33L-568.44,72.61ZM-470.63,-66.45L-463.86,-75.99L-465.36,-88.23L-474.43,-96.01L-485.56,-94.63L-492.24,-84.92L-490.73,-72.69L-481.75,-65.07ZM-447.28,78.96L-462.81,-46.18L-484.46,-43.49L-468.94,81.65ZM-362.35,121.58L-319.86,97.21L-314.25,54.15L-328.76,-62.81L-348.01,-60.42L-345.92,-43.58L-362.08,-57.80L-384.80,-61.34L-423.09,-37.46L-431.15,12.95L-411.01,59.86L-368.05,73.66L-349.24,66.64L-336.53,51.78L-335.46,60.97L-339.64,89.93L-364.16,102.85L-384.89,99.69L-394.88,83.70L-411.23,93.79L-397.45,115.47ZM-381.29,-43.07L-355.83,-33.64L-340.07,1.67L-345.81,39.64L-369.10,55.11L-394.83,45.72L-409.05,10.23L-403.94,-27.67ZM-282.30,58.49L-260.64,55.80L-269.10,-12.30L-263.69,-45.62L-240.59,-59.77L-219.14,-52.90L-210.13,-28.42L-200.61,48.35L-178.95,45.67L-188.47,-31.10L-201.41,-68.25L-238.50,-78.98L-261.25,-70.92L-276.10,-51.02L-278.34,-69.07L-297.83,-66.65ZM-124.75,14.77L-141.50,-16.87L-48.61,-28.42L-48.48,-37.24L-68.50,-81.30L-114.23,-94.54L-154.47,-71.35L-164.27,-19.79L-142.16,27.82L-97.48,40.47L-63.03,25.47L-49.78,-2.38L-67.95,-10.81L-78.41,12.23L-98.53,21.89ZM-142.93,-34.31L-132.89,-64.64L-111.97,-76.15L-86.12,-68.76L-72.90,-43.00ZM22.28,-90.09L39.21,-86.73L43.44,-105.82L21.24,-111.22L1.36,-102.24L-10.58,-80.30L-13.26,-101.96L-32.76,-99.54L-17.38,24.37L4.43,22.91L-3.96,-44.72L0.21,-75.87ZM83.71,-26.30L66.38,-15.41L81.68,7.62L120.07,13.61L154.35,0.41L166.83,-31.58L153.91,-56.05L131.49,-64.27L101.34,-68.53L84.31,-73.02L77.75,-82.35L83.18,-95.56L103.04,-102.63L123.32,-99.71L133.72,-84.83L150.88,-95.69L137.68,-115.33L101.57,-121.22L68.15,-108.08L56.91,-77.30L69.38,-55.51L92.38,-47.85L124.23,-43.52L139.67,-38.02L144.94,-26.91L137.08,-11.18L118.51,-4.95L94.56,-9.67ZM319.79,8.21L317.25,-12.25L287.89,-8.60L265.49,-189.09L294.85,-192.74L292.31,-213.19L240.09,-206.71L267.56,14.69ZM421.64,-204.80L399.98,-202.12L407.57,-140.97L392.46,-151.69L371.78,-154.21L333.48,-130.33L325.41,-79.92L345.56,-33.00L388.53,-19.21L409.04,-27.68L421.77,-46.23L423.89,-29.14L443.14,-31.53ZM375.31,-135.97L401.67,-126.65L416.51,-91.22L409.86,-53.14L387.50,-37.78L361.74,-47.17L347.51,-82.66L352.63,-120.56ZM509.54,-171.85L468.68,-148.59L458.27,-96.95L480.99,-49.42L526.29,-36.85L567.15,-60.12L577.58,-111.75L554.86,-159.28ZM524.01,-55.25L496.54,-63.49L480.38,-99.67L487.21,-138.72L511.83,-153.43L539.32,-145.18L555.50,-108.99L548.65,-69.95ZM661.57,-56.94L661.58,-56.94L656.76,-75.30L647.24,-72.64L636.15,-76.63L632.33,-92.15L623.40,-164.11L644.82,-166.77L642.76,-183.37L621.34,-180.71L615.97,-224.03L594.31,-221.34L599.68,-178.03L581.87,-175.82L583.93,-159.21L601.74,-161.42L610.67,-89.47L619.36,-59.86L645.31,-52.57ZM734.91,-43.31L707.44,-264.71L655.22,-258.23L657.76,-237.77L687.12,-241.41L709.51,-60.92L680.15,-57.28L682.69,-36.82ZM-146.08,129.43L-186.94,152.70L-197.34,204.34L-174.62,251.86L-129.32,264.44L-88.46,241.16L-78.04,189.53L-100.75,142.00ZM-131.61,246.04L-159.08,237.80L-175.24,201.61L-168.40,162.57L-143.79,147.85L-116.30,156.10L-100.12,192.29L-106.97,231.33ZM-7.88,133.58L9.05,136.94L13.28,117.84L-8.92,112.45L-28.80,121.42L-40.73,143.36L-43.42,121.70L-62.91,124.12L-47.54,248.04L-25.73,246.58L-34.12,178.95L-29.94,147.80ZM98.91,284.27L141.40,259.90L147.01,216.83L132.50,99.87L113.24,102.26L115.33,119.11L99.17,104.88L76.46,101.34L38.17,125.22L30.10,175.63L50.24,222.55L93.21,236.34L112.02,229.32L124.72,214.47L125.80,223.66L121.62,252.62L97.10,265.54L76.36,262.38L66.37,246.39L50.03,256.48L63.81,278.15ZM79.97,119.61L105.43,129.04L121.19,164.35L115.45,202.32L92.15,217.79L66.43,208.40L52.21,172.91L57.32,135.01Z" fill="#ffffff" stroke="#000000"/>
    <path d="M-432.05,-135.28L-478.10,-148.69L-500.17,-197.19L-494.04,-250.35L-455.73,-277.78L-420.43,-271.98L-399.69,-245.14L-381.33,-258.61L-408.02,-289.95L-458.93,-297.09L-514.66,-260.56L-524.31,-193.16L-493.39,-132.51L-428.85,-115.97L-383.12,-139.41L-368.17,-176.42L-389.54,-184.03L-402.11,-151.69ZM-310.05,-141.18L-338.37,-311.64L-359.67,-308.10L-331.36,-137.64ZM-286.97,-292.67L-280.67,-302.38L-282.65,-314.42L-291.94,-321.75L-302.88,-319.93L-309.10,-310.06L-307.10,-298.03L-297.92,-290.86ZM-257.96,-149.83L-278.41,-272.94L-299.72,-269.40L-279.27,-146.29ZM-228.29,-154.76L-206.94,-158.31L-217.52,-222.00L-216.94,-254.50L-194.18,-273.02L-176.26,-268.11L-167.23,-247.65L-153.86,-167.13L-132.55,-170.67L-144.39,-241.93L-141.24,-270.12L-119.56,-285.41L-99.88,-278.73L-92.19,-257.64L-79.21,-179.53L-57.90,-183.07L-72.14,-268.77L-86.83,-298.31L-118.02,-304.54L-139.36,-295.51L-153.13,-274.05L-168.55,-289.91L-191.97,-292.14L-213.52,-283.60L-226.61,-263.55L-229.52,-281.07L-248.70,-277.88ZM32.89,-282.99L-33.00,-250.16L-42.24,-218.38L-24.92,-192.53L6.58,-188.78L27.92,-196.72L45.65,-214.90L47.93,-200.65L67.81,-203.95L54.65,-283.37L37.44,-317.66L-1.47,-323.94L-33.27,-310.34L-45.39,-283.64L-26.77,-276.06L-19.02,-296.57L-0.75,-306.18L20.98,-303.56ZM36.02,-264.16L41.18,-232.99L28.31,-217.29L7.10,-206.72L-9.63,-208.21L-19.69,-223.10L-12.96,-241.42ZM153.03,-216.41L153.04,-216.41L147.53,-234.37L138.22,-231.36L127.09,-234.85L122.68,-250.05L110.92,-320.84L131.99,-324.34L129.28,-340.67L108.21,-337.17L101.13,-379.79L79.82,-376.25L86.90,-333.63L69.38,-330.72L72.09,-314.38L89.61,-317.30L101.37,-246.51L111.17,-217.59L137.13,-211.43ZM198.75,-249.77L180.90,-280.38L272.28,-295.58L272.05,-304.30L250.46,-347.05L204.70,-358.28L165.86,-333.71L158.27,-282.33L182.07,-236.15L226.77,-225.47L260.22,-241.70L272.19,-269.77L253.88,-277.37L244.47,-254.16L224.97,-243.79ZM178.77,-297.56L187.46,-327.96L207.69,-340.20L233.55,-333.94L247.67,-309.00ZM-875.42,171.70L-818.83,162.30L-760.18,130.33L-750.30,62.83L-782.83,2.23L-850.23,-7.65L-903.73,1.24ZM-856.23,148.08L-877.90,17.63L-846.89,12.47L-799.49,18.04L-773.99,66.53L-780.56,119.64L-824.50,142.81ZM-689.08,116.68L-706.93,86.07L-615.55,70.87L-615.78,62.15L-637.37,19.39L-683.13,8.17L-721.97,32.73L-729.56,84.12L-705.76,130.30L-661.06,140.98L-627.61,124.75L-615.64,96.68L-633.95,89.08L-643.36,112.28L-662.86,122.66ZM-709.06,68.89L-700.37,38.49L-680.14,26.25L-654.28,32.51L-640.16,57.44ZM-575.76,82.73L-592.46,94.20L-576.39,116.35L-538.19,120.71L-504.83,106.26L-493.79,74.12L-507.56,50.45L-530.07,43.24L-560.06,40.24L-577.08,36.50L-583.94,27.54L-579.11,14.26L-559.76,6.46L-539.59,8.52L-528.69,22.81L-512.17,11.38L-526.02,-7.51L-561.97,-11.87L-594.49,2.49L-604.34,33.39L-591.12,54.42L-568.07,61.06L-536.40,64.05L-520.91,68.86L-515.24,79.63L-522.38,95.51L-540.48,102.42L-564.36,98.73ZM-473.30,-42.76L-467.00,-52.47L-468.98,-64.51L-478.26,-71.84L-489.21,-70.02L-495.42,-60.14L-493.43,-48.11L-484.24,-40.94ZM-444.29,100.08L-464.74,-23.03L-486.05,-19.49L-465.59,103.62ZM-358.57,138.77L-317.54,112.94L-313.75,70.12L-332.86,-44.94L-351.80,-41.79L-349.05,-25.22L-365.61,-38.63L-388.22,-41.20L-425.11,-16.03L-431.03,34.15L-409.20,79.72L-366.16,91.61L-347.85,83.90L-335.88,68.69L-334.44,77.74L-337.40,106.54L-361.12,120.32L-381.75,118.04L-392.28,102.63L-408.03,113.28L-393.53,134.15ZM-384.00,-23.28L-358.45,-14.99L-341.42,19.28L-345.55,57.06L-367.96,73.31L-393.78,65.07L-409.28,30.55L-405.77,-7.13ZM-281.98,73.12L-260.68,69.58L-271.81,2.58L-267.82,-30.59L-245.55,-45.52L-224.06,-39.61L-214.16,-15.76L-201.61,59.77L-180.30,56.23L-192.85,-19.30L-207.15,-55.50L-244.27,-64.61L-266.44,-55.71L-280.31,-35.42L-283.26,-53.18L-302.44,-49.99ZM-127.97,23.47L-145.82,-7.14L-54.44,-22.34L-54.67,-31.06L-76.26,-73.82L-122.02,-85.05L-160.86,-60.48L-168.45,-9.09L-144.65,37.08L-99.95,47.77L-66.50,31.54L-54.53,3.46L-72.84,-4.14L-82.25,19.07L-101.75,29.45ZM-147.95,-24.32L-139.26,-54.73L-119.03,-66.96L-93.17,-60.71L-79.05,-35.77ZM13.15,-86.21L30.03,-83.57L33.43,-102.63L11.27,-107.06L-8.03,-97.38L-18.94,-75.19L-22.48,-96.50L-41.66,-93.32L-21.40,28.59L0.10,26.26L-10.95,-40.27L-8.09,-71.25ZM76.50,-25.63L59.80,-14.16L75.87,8.00L114.07,12.35L147.43,-2.10L158.47,-34.24L144.71,-57.91L122.19,-65.12L92.20,-68.11L75.19,-71.85L68.32,-80.82L73.16,-94.10L92.50,-101.89L112.67,-99.83L123.57,-85.55L140.09,-96.98L126.24,-115.87L90.29,-120.22L57.78,-105.86L47.92,-74.97L61.14,-53.93L84.19,-47.29L115.87,-44.31L131.35,-39.50L137.02,-28.73L129.89,-12.85L111.78,-5.93L87.91,-9.62ZM311.35,-1.12L308.00,-21.24L279.12,-16.44L249.62,-194.01L278.51,-198.81L275.16,-218.93L223.79,-210.40L259.97,7.42ZM403.39,-215.91L382.08,-212.37L392.08,-152.21L376.70,-162.20L356.15,-163.85L319.25,-138.67L313.32,-88.49L335.15,-42.92L378.21,-31.03L398.14,-40.24L409.98,-59.10L412.77,-42.30L431.71,-45.44ZM360.38,-145.95L386.83,-137.80L402.94,-103.38L397.92,-65.45L376.43,-49.36L350.57,-57.59L335.06,-92.10L338.58,-129.79ZM491.65,-186.90L452.19,-162.23L444.01,-110.74L468.41,-64.67L513.72,-54.08L553.17,-78.76L561.38,-130.24L536.98,-176.31ZM510.71,-72.18L483.21,-79.21L465.76,-114.33L470.92,-153.23L494.66,-168.77L522.18,-161.74L539.66,-126.61L534.48,-87.73ZM646.67,-79.45L646.67,-79.46L641.17,-97.41L631.86,-94.40L620.73,-97.90L616.32,-113.09L604.56,-183.88L625.63,-187.38L622.92,-203.72L601.85,-200.22L594.77,-242.83L573.46,-239.29L580.54,-196.68L563.02,-193.77L565.73,-177.43L583.25,-180.34L595.01,-109.55L604.81,-80.63L630.76,-74.47ZM719.75,-68.96L683.56,-286.78L632.19,-278.24L635.53,-258.12L664.42,-262.92L693.91,-85.35L665.03,-80.55L668.37,-60.43ZM-144.39,137.72L-183.85,162.39L-192.03,213.88L-167.63,259.95L-122.33,270.54L-82.87,245.86L-74.66,194.38L-99.06,148.31ZM-125.33,252.44L-152.83,245.41L-170.28,210.29L-165.12,171.40L-141.38,155.85L-113.86,162.88L-96.38,198.01L-101.56,236.89ZM-7.56,136.19L9.32,138.83L12.72,119.77L-9.45,115.34L-28.74,125.03L-39.65,147.21L-43.19,125.90L-62.37,129.09L-42.12,250.99L-20.61,248.66L-31.66,182.13L-28.80,151.15ZM104.17,280.86L145.20,255.03L148.99,212.21L129.88,97.15L110.94,100.30L113.69,116.87L97.13,103.46L74.52,100.88L37.63,126.06L31.71,176.24L53.54,221.81L96.58,233.70L114.89,225.99L126.86,210.78L128.30,219.83L125.34,248.63L101.62,262.41L80.99,260.13L70.46,244.72L54.71,255.37L69.21,276.24ZM78.74,118.80L104.29,127.10L121.32,161.37L117.19,199.15L94.79,215.40L68.97,207.16L53.46,172.64L56.97,134.96Z" fill="#ffffff" stroke="#000000"/>
    <path d="M-437.70,-112.21L-483.77,-123.60L-507.57,-170.65L-503.67,-223.46L-466.90,-252.14L-431.77,-247.85L-410.17,-222.16L-392.56,-236.22L-420.23,-266.12L-470.86,-271.10L-524.48,-232.72L-531.27,-165.68L-498.23,-106.97L-433.74,-93.25L-389.48,-118.29L-376.21,-155.49L-397.65,-162.15L-408.76,-129.66ZM-317.30,-123.01L-352.24,-290.40L-373.17,-286.04L-338.23,-118.64ZM-300.66,-273.74L-294.82,-283.60L-297.27,-295.42L-306.75,-302.29L-317.50,-300.04L-323.24,-290.03L-320.78,-278.21L-311.41,-271.50ZM-266.16,-133.69L-291.39,-254.58L-312.31,-250.22L-287.08,-129.32ZM-237.02,-139.77L-216.05,-144.15L-229.10,-206.69L-229.86,-238.85L-208.11,-258.08L-190.19,-253.97L-180.43,-234.10L-163.93,-155.03L-143.00,-159.39L-157.61,-229.37L-155.65,-257.38L-134.84,-273.38L-115.10,-267.57L-106.64,-247.03L-90.63,-170.33L-69.70,-174.69L-87.27,-258.85L-103.00,-287.46L-134.09,-292.35L-154.82,-282.56L-167.56,-260.78L-183.45,-275.83L-206.70,-277.08L-227.66,-267.76L-239.79,-247.40L-243.38,-264.60L-262.21,-260.67ZM16.00,-277.19L-47.81,-242.05L-55.66,-210.25L-37.47,-185.40L-6.17,-182.96L14.59,-191.69L31.39,-210.39L34.22,-196.39L53.75,-200.46L37.50,-278.46L19.08,-311.65L-19.64,-316.28L-50.53,-301.54L-61.42,-274.64L-42.70,-267.91L-35.88,-288.50L-18.21,-298.75L3.38,-297.05ZM19.86,-258.70L26.23,-228.09L14.14,-212.04L-6.39,-200.73L-23.00,-201.52L-33.55,-215.84L-27.64,-234.22ZM137.50,-216.25L137.50,-216.26L131.33,-233.78L122.25,-230.42L111.10,-233.43L106.12,-248.27L91.61,-317.79L112.31,-322.10L108.96,-338.15L88.27,-333.83L79.53,-375.68L58.61,-371.31L67.34,-329.46L50.14,-325.87L53.49,-309.83L70.69,-313.42L85.20,-243.90L96.06,-215.71L121.98,-210.68ZM181.34,-251.09L162.45,-280.63L252.19,-299.38L251.60,-307.99L228.51,-349.39L182.82,-358.63L145.41,-332.76L140.00,-281.64L165.40,-236.95L210.04,-228.21L242.45,-245.62L253.15,-273.86L234.73,-280.63L226.37,-257.30L207.51,-246.25ZM159.65,-297.53L167.00,-327.95L186.50,-340.87L212.33,-335.74L227.30,-311.66ZM-863.57,209.37L-808.01,197.77L-751.31,163.77L-744.29,96.62L-778.93,38.03L-845.97,31.01L-898.51,41.97ZM-845.56,185.23L-872.30,57.13L-841.84,50.77L-794.76,54.34L-767.57,101.25L-771.90,154.03L-814.41,178.72ZM-681.57,147.38L-700.47,117.84L-610.73,99.09L-611.32,90.48L-634.41,49.08L-680.10,39.84L-717.51,65.72L-722.92,116.83L-697.51,161.52L-652.88,170.27L-620.47,152.86L-609.77,124.61L-628.19,117.84L-636.55,141.17L-655.41,152.22ZM-703.27,100.94L-695.91,70.52L-676.42,57.60L-650.59,62.73L-635.61,86.82ZM-570.91,109.19L-586.96,121.21L-570.17,142.47L-532.22,145.21L-499.82,129.57L-490.21,97.34L-504.79,74.50L-527.34,68.29L-557.11,66.55L-574.09,63.54L-581.24,54.96L-577.00,41.63L-558.19,33.14L-538.17,34.35L-526.81,48.03L-510.94,36.06L-525.41,17.94L-561.13,15.10L-592.69,30.63L-601.18,61.57L-587.25,81.83L-564.18,87.46L-532.75,89.12L-517.24,93.24L-511.20,103.66L-517.61,119.65L-535.23,127.23L-558.98,124.55ZM-474.71,-19.05L-468.88,-28.91L-471.32,-40.74L-480.80,-47.60L-491.55,-45.36L-497.29,-35.34L-494.83,-23.53L-485.46,-16.81ZM-440.21,121.00L-465.44,0.10L-486.37,4.47L-461.13,125.37ZM-353.88,155.76L-314.37,128.55L-312.36,86.06L-335.95,-26.93L-354.54,-23.04L-351.15,-6.77L-368.07,-19.35L-390.53,-20.98L-425.98,5.41L-429.79,55.27L-406.35,99.44L-363.30,109.44L-345.51,101.07L-334.30,85.55L-332.51,94.43L-334.26,123.04L-357.15,137.62L-377.65,136.21L-388.69,121.41L-403.83,132.57L-388.63,152.62ZM-385.63,-3.43L-360.02,3.73L-341.79,36.92L-344.34,74.44L-365.83,91.42L-391.69,84.33L-408.43,50.83L-406.49,13.43ZM-280.83,87.73L-259.91,83.36L-273.64,17.57L-271.05,-15.39L-249.64,-31.06L-228.15,-26.08L-217.39,-2.91L-201.91,71.26L-180.98,66.89L-196.46,-7.27L-212.08,-42.49L-249.15,-49.98L-270.70,-40.28L-283.59,-19.66L-287.23,-37.09L-306.07,-33.16ZM-130.57,32.37L-149.47,2.83L-59.73,-15.92L-60.32,-24.53L-83.41,-65.93L-129.10,-75.17L-166.51,-49.29L-171.92,1.82L-146.51,46.51L-101.88,55.26L-69.47,37.85L-58.77,9.60L-77.19,2.83L-85.55,26.16L-104.41,37.21ZM-152.27,-14.07L-144.91,-44.49L-125.42,-57.41L-99.59,-52.28L-84.61,-28.19ZM4.50,-81.82L21.29,-79.90L23.88,-98.88L1.78,-102.36L-16.90,-92.00L-26.78,-69.62L-31.15,-90.55L-49.98,-86.61L-25.00,33.10L-3.83,29.91L-17.46,-35.42L-15.90,-66.16ZM69.60,-24.50L53.55,-12.48L70.34,8.77L108.29,11.52L140.69,-4.12L150.30,-36.35L135.72,-59.19L113.17,-65.41L83.40,-67.14L66.42,-70.15L59.26,-78.74L63.50,-92.06L82.31,-100.56L102.34,-99.34L113.70,-85.66L129.57,-97.64L115.10,-115.75L79.38,-118.59L47.82,-103.07L39.33,-72.12L53.26,-51.86L76.32,-46.23L107.76,-44.57L123.27,-40.45L129.31,-30.03L122.90,-14.04L105.28,-6.46L81.53,-9.14ZM302.80,-9.83L298.67,-29.59L270.31,-23.67L233.92,-198.04L262.28,-203.96L258.15,-223.72L207.70,-213.19L252.35,0.70ZM385.06,-225.95L364.14,-221.58L376.47,-162.51L360.86,-171.75L340.47,-172.55L305.01,-146.15L301.19,-96.30L324.64,-52.13L367.69,-42.13L387.03,-52.04L397.96,-71.18L401.40,-54.67L420.00,-58.55ZM345.39,-155.02L371.87,-148.05L389.20,-114.67L385.77,-76.96L365.19,-60.17L339.29,-67.26L322.54,-100.75L324.49,-138.16ZM473.51,-200.86L435.50,-174.86L429.50,-123.62L455.51,-79.06L500.73,-70.43L538.74,-96.44L544.76,-147.68L518.76,-192.24ZM497.02,-88.21L469.55,-94.04L450.86,-128.06L454.39,-166.72L477.23,-183.06L504.72,-177.23L523.43,-143.20L519.89,-104.55ZM631.16,-100.93L631.16,-100.94L624.99,-118.47L615.91,-115.11L604.76,-118.11L599.78,-132.96L585.27,-202.47L605.96,-206.79L602.61,-222.83L581.92,-218.51L573.19,-260.36L552.26,-255.99L561.00,-214.14L543.79,-210.55L547.14,-194.51L564.35,-198.10L578.86,-128.59L589.72,-100.39L615.63,-95.36ZM703.84,-93.54L659.20,-307.43L608.75,-296.90L612.87,-277.13L641.24,-283.06L677.63,-108.69L649.27,-102.77L653.39,-83.01ZM-142.15,146.01L-180.16,172.00L-186.16,223.25L-160.16,267.81L-114.93,276.43L-76.92,250.42L-70.90,199.19L-96.90,154.63ZM-118.64,258.65L-146.12,252.82L-164.80,218.81L-161.28,180.14L-138.44,163.80L-110.94,169.64L-92.24,203.66L-95.77,242.32ZM-6.93,138.92L9.87,140.84L12.46,121.86L-9.64,118.38L-28.33,128.74L-38.21,151.12L-42.58,130.20L-61.41,134.13L-36.42,253.84L-15.25,250.65L-28.89,185.32L-27.32,154.58ZM109.44,277.41L148.95,250.20L150.96,207.71L127.37,94.72L108.77,98.61L112.17,114.88L95.25,102.29L72.79,100.67L37.34,127.06L33.53,176.92L56.97,221.08L100.01,231.09L117.80,222.72L129.01,207.20L130.81,216.08L129.06,244.69L106.17,259.27L85.67,257.86L74.63,243.05L59.49,254.22L74.68,274.27ZM77.69,118.22L103.30,125.37L121.52,158.57L118.98,196.09L97.49,213.07L71.63,205.97L54.89,172.48L56.83,135.07Z" fill="#ffffff" stroke="#000000"/>
    <path d="M-442.07,-89.00L-488.08,-98.39L-513.53,-143.93L-511.83,-196.31L-476.64,-226.16L-441.74,-223.34L-419.34,-198.82L-402.50,-213.44L-431.07,-241.87L-481.33,-244.74L-532.77,-204.61L-536.76,-138.06L-501.70,-81.36L-437.38,-70.42L-394.65,-96.98L-383.04,-134.30L-404.51,-140.00L-414.17,-107.43ZM-323.49,-104.58L-364.84,-268.65L-385.35,-263.48L-343.99,-99.41ZM-313.17,-254.28L-307.80,-264.26L-310.70,-275.85L-320.35,-282.25L-330.89,-279.60L-336.15,-269.46L-333.24,-257.88L-323.70,-251.62ZM-273.35,-117.22L-303.22,-235.71L-323.73,-230.54L-293.86,-112.05ZM-244.80,-124.42L-224.24,-129.60L-239.69,-190.90L-241.75,-222.67L-221.03,-242.57L-203.14,-239.22L-192.69,-219.98L-173.15,-142.48L-152.65,-147.65L-169.94,-216.24L-169.14,-244.00L-149.21,-260.67L-129.46,-255.73L-120.26,-235.77L-101.31,-160.59L-80.80,-165.76L-101.60,-248.25L-118.31,-275.89L-149.25,-279.46L-169.34,-268.93L-181.05,-246.88L-197.38,-261.11L-220.41,-261.41L-240.76,-251.33L-251.91,-230.71L-256.16,-247.58L-274.62,-242.92ZM-0.25,-270.58L-61.90,-233.24L-68.36,-201.48L-49.37,-177.65L-18.33,-176.52L1.84,-185.99L17.69,-205.16L21.06,-191.43L40.20,-196.26L20.96,-272.70L1.40,-304.77L-37.07,-307.77L-67.01,-291.94L-76.69,-264.91L-57.90,-259.01L-52.00,-279.65L-34.94,-290.50L-13.53,-289.69ZM4.32,-252.45L11.87,-222.45L0.57,-206.09L-19.27,-194.07L-35.72,-194.18L-46.73,-207.91L-41.64,-226.32ZM122.36,-215.28L122.36,-215.28L115.54,-232.36L106.70,-228.67L95.56,-231.19L90.03,-245.66L72.86,-313.79L93.14,-318.90L89.17,-334.63L68.89,-329.51L58.55,-370.53L38.04,-365.36L48.38,-324.34L31.52,-320.09L35.48,-304.37L52.35,-308.62L69.52,-240.49L81.41,-213.06L107.23,-209.14ZM164.28,-251.51L144.40,-279.94L232.35,-302.13L231.42,-310.62L206.91,-350.61L161.36,-357.88L125.43,-330.78L122.16,-280.02L149.10,-236.88L193.58,-230.05L224.92,-248.58L234.34,-276.94L215.86,-282.89L208.54,-259.48L190.35,-247.79ZM140.94,-296.54L146.98,-326.91L165.73,-340.47L191.47,-336.45L207.25,-313.26ZM-850.01,246.26L-795.55,232.53L-740.89,196.61L-736.68,129.94L-773.31,73.42L-839.87,69.21L-891.37,82.19ZM-833.19,221.66L-864.84,96.10L-834.99,88.58L-788.29,90.19L-759.51,135.46L-761.64,187.82L-802.66,213.96ZM-672.61,177.57L-692.49,149.13L-604.54,126.94L-605.47,118.45L-629.98,78.46L-675.53,71.19L-711.46,98.29L-714.73,149.05L-687.79,192.19L-643.31,199.02L-611.97,180.49L-602.55,152.13L-621.03,146.19L-628.34,169.59L-646.54,181.29ZM-695.95,132.53L-689.91,102.17L-671.16,88.60L-645.42,92.62L-629.64,115.82ZM-564.76,135.31L-580.13,147.84L-562.67,168.17L-525.04,169.34L-493.64,152.56L-485.46,120.31L-500.80,98.31L-523.34,93.09L-552.85,92.59L-569.76,90.30L-577.18,82.11L-573.53,68.76L-555.28,59.60L-535.43,59.98L-523.65,73.05L-508.45,60.56L-523.48,43.24L-558.92,41.89L-589.49,58.52L-596.62,89.46L-582.03,108.92L-558.99,113.55L-527.85,113.91L-512.35,117.35L-505.95,127.41L-511.63,143.48L-528.75,151.69L-552.34,150.01ZM-474.87,4.60L-469.50,-5.38L-472.41,-16.97L-482.06,-23.37L-492.59,-20.72L-497.86,-10.58L-494.95,1.00L-485.41,7.26ZM-435.06,141.66L-464.93,23.16L-485.44,28.33L-455.57,146.83ZM-348.30,172.51L-310.34,144.00L-310.09,101.92L-338.00,-8.83L-356.23,-4.24L-352.21,11.72L-369.45,-0.04L-391.72,-0.73L-425.70,26.80L-427.43,76.25L-402.46,118.96L-359.50,127.10L-342.25,118.10L-331.80,102.30L-329.67,111.01L-330.23,139.36L-352.27,154.71L-372.59,154.15L-384.11,139.96L-398.62,151.62L-382.78,170.82ZM-386.16,16.42L-360.56,22.45L-341.19,54.53L-342.17,91.73L-362.73,109.39L-388.59,103.43L-406.50,70.99L-406.10,33.93ZM-278.85,102.28L-258.34,97.11L-274.59,32.62L-273.38,-0.07L-252.85,-16.43L-231.40,-12.39L-219.81,10.09L-201.49,82.78L-180.98,77.61L-199.31,4.92L-216.18,-29.26L-253.13,-35.16L-274.05,-24.69L-285.95,-3.78L-290.26,-20.87L-308.72,-16.21ZM-132.55,41.43L-152.43,13.00L-64.48,-9.19L-65.41,-17.68L-89.92,-57.67L-135.47,-64.94L-171.40,-37.84L-174.67,12.92L-147.73,56.06L-103.25,62.89L-71.92,44.36L-62.49,16.00L-80.97,10.05L-88.29,33.46L-106.49,45.15ZM-155.89,-3.60L-149.86,-33.97L-131.11,-47.53L-105.36,-43.51L-89.58,-20.32ZM-3.66,-76.96L13.02,-75.74L14.81,-94.61L-7.18,-97.15L-25.23,-86.15L-34.09,-63.63L-39.26,-84.13L-57.72,-79.48L-28.14,37.85L-7.34,33.84L-23.48,-30.19L-23.19,-60.65ZM63.03,-22.94L47.66,-10.40L65.12,9.92L102.75,11.09L134.14,-5.69L142.33,-37.94L126.99,-59.93L104.44,-65.16L74.94,-65.66L58.03,-67.94L50.61,-76.14L54.25,-89.49L72.50,-98.65L92.36,-98.27L104.14,-85.20L119.34,-97.69L104.30,-115.01L68.87,-116.36L38.30,-99.73L31.17,-68.79L45.76,-49.33L68.79,-44.70L99.94,-44.34L115.44,-40.89L121.84,-30.84L116.16,-14.77L99.04,-6.56L75.45,-8.24ZM294.18,-17.93L289.30,-37.30L261.50,-30.29L218.42,-201.19L246.22,-208.20L241.33,-227.57L191.88,-215.11L244.73,-5.46ZM366.71,-234.94L346.20,-229.77L360.80,-171.87L344.99,-180.38L324.80,-180.33L290.81,-152.80L289.07,-103.35L314.04,-60.64L357.02,-52.50L375.73,-63.09L385.76,-82.46L389.84,-66.28L408.07,-70.87ZM330.37,-163.21L356.83,-157.39L375.33,-125.09L373.48,-87.68L353.81,-70.24L327.91,-76.19L310.00,-108.63L310.40,-145.69ZM455.17,-213.74L418.66,-186.49L414.81,-135.59L442.33,-92.59L487.40,-85.91L523.92,-113.16L527.78,-164.06L500.26,-207.06ZM483.01,-103.33L455.61,-107.97L435.75,-140.84L437.66,-179.21L459.57,-196.30L486.99,-191.65L506.87,-158.77L504.95,-120.41ZM615.10,-121.37L615.10,-121.37L608.28,-138.45L599.44,-134.76L588.30,-137.28L582.77,-151.75L565.60,-219.88L585.88,-224.99L581.92,-240.72L561.63,-235.61L551.30,-276.62L530.79,-271.45L541.13,-230.44L524.26,-226.19L528.23,-210.46L545.09,-214.71L562.26,-146.58L574.15,-119.15L599.98,-115.23ZM687.26,-117.01L634.41,-326.66L584.96,-314.19L589.85,-294.82L617.65,-301.83L660.73,-130.93L632.93,-123.92L637.81,-104.55ZM-139.37,154.25L-175.89,181.50L-179.74,232.40L-152.22,275.40L-107.15,282.08L-70.63,254.82L-66.77,203.92L-94.29,160.93ZM-111.54,264.66L-138.94,260.01L-158.80,227.14L-156.89,188.78L-134.98,171.69L-107.56,176.34L-87.68,209.21L-89.60,247.58ZM-5.97,141.74L10.71,142.95L12.50,124.08L-9.49,121.55L-27.54,132.55L-36.40,155.07L-41.57,134.56L-60.03,139.22L-30.45,256.55L-9.65,252.54L-25.79,188.51L-25.50,158.05ZM114.71,273.91L152.66,245.40L152.92,203.32L125.00,92.57L106.77,97.17L110.79,113.12L93.55,101.37L71.28,100.67L37.31,128.21L35.57,177.65L60.54,220.37L103.51,228.51L120.75,219.51L131.20,203.70L133.34,212.41L132.77,240.76L110.73,256.12L90.41,255.55L78.90,241.37L64.39,253.02L80.22,272.22ZM76.84,117.82L102.45,123.86L121.82,155.93L120.83,193.13L100.28,210.79L74.42,204.83L56.51,172.40L56.90,135.34Z" fill="#ffffff" stroke="#000000"/>
    <path d="M-445.18,-65.73L-491.04,-73.13L-518.05,-117.12L-518.50,-168.96L-484.94,-199.90L-450.31,-198.54L-427.17,-175.21L-411.12,-190.35L-440.52,-217.29L-490.32,-218.08L-539.54,-176.31L-540.78,-110.36L-503.82,-55.75L-439.79,-47.54L-398.63,-75.54L-388.67,-112.91L-410.12,-117.67L-418.35,-85.08ZM-328.59,-85.96L-376.15,-246.46L-396.21,-240.51L-348.65,-80.01ZM-324.48,-234.35L-319.58,-244.44L-322.92,-255.78L-332.72,-261.71L-343.03,-258.66L-347.82,-248.42L-344.47,-237.10L-334.79,-231.30ZM-279.55,-100.49L-313.89,-216.41L-333.96,-210.46L-299.61,-94.54ZM-251.61,-108.77L-231.50,-114.72L-249.27,-174.69L-252.60,-206.01L-232.92,-226.53L-215.11,-223.95L-203.99,-205.35L-181.52,-129.53L-161.46,-135.48L-181.34,-202.58L-181.69,-230.06L-162.67,-247.34L-142.95,-243.27L-133.04,-223.91L-111.24,-150.36L-91.18,-156.31L-115.09,-237.00L-132.74,-263.65L-163.47,-265.92L-182.90,-254.69L-193.58,-232.42L-210.30,-245.82L-233.08,-245.17L-252.78,-234.39L-262.97,-213.55L-267.86,-230.05L-285.91,-224.70ZM-15.82,-263.20L-75.25,-223.78L-80.34,-192.13L-60.60,-169.34L-29.86,-169.49L-10.30,-179.67L4.58,-199.27L8.47,-185.83L27.19,-191.38L5.06,-266.17L-15.58,-297.07L-53.73,-298.47L-82.68,-281.60L-91.15,-254.49L-72.34,-249.42L-67.34,-270.06L-50.92,-281.48L-29.72,-281.56ZM-10.56,-245.47L-1.88,-216.12L-12.38,-199.49L-31.51,-186.80L-47.77,-186.24L-59.21,-199.36L-54.93,-217.76ZM107.63,-213.53L107.63,-213.53L100.20,-230.14L91.61,-226.13L80.49,-228.16L74.44,-242.24L54.69,-308.90L74.53,-314.77L69.97,-330.16L50.13,-324.28L38.24,-364.40L18.18,-358.46L30.07,-318.33L13.57,-313.44L18.13,-298.06L34.63,-302.95L54.38,-236.30L67.25,-209.66L92.93,-206.84ZM147.60,-251.05L126.79,-278.35L212.83,-303.86L211.57,-312.22L185.71,-350.75L140.38,-356.08L105.97,-327.83L104.80,-277.52L133.19,-235.97L177.44,-231.03L207.66,-250.63L215.82,-279.04L197.31,-284.17L191.03,-260.73L173.52,-248.43ZM122.70,-294.61L127.43,-324.88L145.41,-339.05L171.02,-336.13L187.57,-313.84ZM-834.79,282.29L-781.51,266.50L-728.94,228.77L-727.50,162.69L-766.00,108.32L-831.97,106.86L-882.35,121.79ZM-819.16,257.29L-855.56,134.46L-826.36,125.81L-780.13,125.50L-749.83,169.09L-749.81,220.92L-789.29,248.44ZM-662.22,207.17L-683.03,179.87L-596.99,154.35L-598.25,146.00L-624.11,107.47L-669.44,102.13L-703.85,130.38L-705.02,180.69L-676.63,222.24L-632.38,227.19L-602.16,207.59L-594.00,179.17L-612.51,174.05L-618.79,197.48L-636.30,209.79ZM-687.12,163.60L-682.40,133.34L-664.41,119.16L-638.80,122.09L-622.25,144.38ZM-557.33,161.01L-572.01,174.02L-553.92,193.41L-516.67,193.03L-486.32,175.16L-479.54,142.95L-495.61,121.83L-518.11,117.59L-547.30,118.29L-564.10,116.72L-571.77,108.92L-568.71,95.58L-551.04,85.78L-531.40,85.35L-519.22,97.78L-504.70,84.82L-520.27,68.31L-555.35,68.42L-584.90,86.10L-590.69,116.98L-575.47,135.62L-552.51,139.26L-521.71,138.35L-506.25,141.12L-499.51,150.80L-504.48,166.92L-521.06,175.73L-544.45,175.03ZM-473.79,28.14L-468.89,18.05L-472.23,6.71L-482.03,0.78L-492.34,3.83L-497.13,14.07L-493.78,25.39L-484.10,31.19ZM-428.86,162.00L-463.21,46.08L-483.27,52.03L-448.92,167.95ZM-341.84,188.97L-305.48,159.24L-306.94,117.63L-339.04,9.29L-356.87,14.57L-352.25,30.18L-369.77,19.26L-391.81,19.48L-424.28,48.09L-423.98,97.03L-397.56,138.24L-354.76,144.54L-338.07,134.94L-328.39,118.89L-325.92,127.42L-325.33,155.46L-346.49,171.54L-366.60,171.81L-378.56,158.25L-392.43,170.36L-376.00,188.70ZM-385.62,36.21L-360.06,41.13L-339.61,72.05L-339.07,108.86L-358.67,127.16L-384.48,122.32L-403.50,90.98L-404.62,54.34ZM-276.04,116.72L-255.98,110.77L-274.67,47.69L-274.80,15.32L-255.17,-1.69L-233.80,1.43L-221.44,23.18L-200.37,94.29L-180.30,88.35L-201.38,17.24L-219.45,-15.87L-256.21,-20.19L-276.47,-8.99L-287.38,12.17L-292.33,-4.55L-310.39,0.80ZM-133.90,50.61L-154.71,23.31L-68.67,-2.20L-69.94,-10.56L-95.79,-49.09L-141.12,-54.42L-175.54,-26.17L-176.70,24.14L-148.31,65.69L-104.06,70.63L-73.84,51.04L-65.68,22.62L-84.19,17.49L-90.47,40.93L-107.98,53.23ZM-158.81,7.05L-154.08,-23.22L-136.09,-37.39L-110.48,-34.46L-93.94,-12.18ZM-11.31,-71.67L5.23,-71.14L6.23,-89.87L-15.61,-91.49L-33.01,-79.88L-40.85,-57.25L-46.79,-77.31L-64.85,-71.96L-30.84,42.82L-10.44,38.01L-29.00,-24.63L-29.95,-54.75ZM56.81,-20.98L42.13,-7.96L60.22,11.42L97.47,11.04L127.82,-6.83L134.60,-39.04L118.54,-60.16L96.03,-64.40L66.85,-63.70L50.04,-65.27L42.37,-73.07L45.43,-86.41L63.10,-96.21L82.74,-96.64L94.92,-84.20L109.44,-97.17L93.87,-113.67L58.79,-113.57L29.24,-95.88L23.45,-65.01L38.67,-46.36L61.63,-42.73L92.43,-43.64L107.89,-40.86L114.63,-31.18L109.66,-15.07L93.08,-6.26L69.69,-6.96ZM285.52,-25.44L279.90,-44.39L252.70,-36.33L203.16,-203.52L230.36,-211.57L224.74,-230.52L176.37,-216.19L237.14,-11.10ZM348.38,-242.91L328.32,-236.97L345.10,-180.33L329.13,-188.09L309.17,-187.23L276.70,-158.62L276.99,-109.67L303.42,-68.47L346.23,-62.17L364.29,-73.40L373.42,-92.95L378.11,-77.12L395.94,-82.41ZM315.38,-170.52L341.77,-165.85L361.37,-134.68L361.07,-97.62L342.33,-79.58L316.49,-84.41L297.46,-115.74L296.35,-152.39ZM436.69,-225.55L401.70,-197.13L399.97,-146.65L428.93,-105.27L473.75,-100.50L508.74,-128.93L510.49,-179.40L481.54,-220.79ZM468.70,-117.54L441.43,-121.02L420.46,-152.70L420.78,-190.71L441.75,-208.49L469.04,-205.01L490.04,-173.32L489.69,-135.32ZM598.54,-140.75L598.54,-140.76L591.11,-157.36L582.52,-153.36L571.40,-155.39L565.35,-169.47L545.60,-236.12L565.44,-242.00L560.88,-257.38L541.04,-251.50L529.15,-291.63L509.09,-285.68L520.98,-245.56L504.48,-240.67L509.04,-225.29L525.54,-230.18L545.29,-163.52L558.16,-136.89L583.84,-134.07ZM670.05,-139.39L609.28,-344.47L560.90,-330.14L566.52,-311.19L593.71,-319.25L643.26,-152.06L616.06,-144.00L621.68,-125.05ZM-136.05,162.41L-171.04,190.83L-172.77,241.31L-143.82,282.69L-99.00,287.47L-64.01,259.03L-62.26,208.56L-91.21,167.18ZM-104.05,270.42L-131.32,266.95L-152.29,235.26L-151.96,197.26L-131.00,179.47L-103.70,182.95L-82.71,214.64L-83.05,252.64ZM-4.69,144.61L11.85,145.14L12.85,126.41L-8.99,124.80L-26.39,136.41L-34.23,159.03L-40.18,138.97L-58.23,144.32L-24.22,259.11L-3.82,254.29L-22.38,191.65L-23.33,161.53ZM119.98,270.36L156.34,240.63L154.88,199.02L122.78,90.68L104.94,95.97L109.57,111.57L92.05,100.66L70.01,100.88L37.54,129.48L37.84,178.43L64.26,219.63L107.06,225.93L123.75,216.33L133.43,200.29L135.90,208.81L136.49,236.86L115.33,252.93L95.22,253.20L83.26,239.65L69.39,251.76L85.82,270.09ZM76.20,117.60L101.76,122.53L122.21,153.45L122.75,190.26L103.15,208.55L77.34,203.71L58.32,172.38L57.20,135.73Z" fill="#ffffff" stroke="#000000"/>
    <path d="M-447.02,-42.45L-492.66,-47.90L-521.14,-90.28L-523.70,-141.50L-491.78,-173.45L-457.51,-173.51L-433.69,-151.40L-418.44,-167.01L-448.59,-192.44L-497.85,-191.20L-544.80,-147.91L-543.33,-82.68L-504.58,-30.20L-440.96,-24.70L-401.41,-54.04L-393.09,-91.38L-414.49,-95.22L-421.29,-62.67ZM-332.61,-67.19L-386.15,-223.89L-405.74,-217.20L-352.20,-60.50ZM-334.59,-214.03L-330.16,-224.20L-333.92,-235.27L-343.85,-240.74L-353.91,-237.30L-358.23,-226.99L-354.46,-215.93L-344.65,-210.59ZM-284.73,-83.55L-323.40,-196.73L-342.98,-190.03L-304.31,-76.86ZM-257.45,-92.87L-237.82,-99.58L-257.82,-158.12L-262.39,-188.95L-243.78,-210.02L-226.06,-208.20L-214.32,-190.27L-189.02,-116.25L-169.44,-122.94L-191.82,-188.45L-193.27,-215.60L-175.18,-233.46L-155.52,-230.23L-144.94,-211.50L-120.40,-139.69L-100.82,-146.39L-127.74,-225.17L-146.26,-250.79L-176.73,-251.78L-195.48,-239.90L-205.13,-217.45L-222.20,-230.02L-244.69,-228.45L-263.72,-216.99L-272.94,-195.98L-278.45,-212.08L-296.08,-206.06ZM-30.68,-255.11L-87.81,-213.73L-91.56,-182.24L-71.12,-160.52L-40.75,-161.91L-21.83,-172.77L-7.91,-192.75L-3.53,-179.63L14.76,-185.87L-10.16,-258.89L-31.82,-288.60L-69.59,-288.43L-97.52,-270.58L-104.78,-243.43L-85.98,-239.19L-81.89,-259.79L-66.12,-271.75L-45.17,-272.69ZM-24.76,-237.80L-14.98,-209.14L-24.69,-192.28L-43.08,-178.96L-59.13,-177.74L-70.97,-190.24L-67.49,-208.61ZM93.36,-211.04L93.36,-211.04L85.34,-227.15L77.01,-222.84L65.94,-224.40L59.39,-238.07L37.15,-303.14L56.52,-309.76L51.39,-324.78L32.02,-318.16L18.64,-357.34L-0.95,-350.65L12.43,-311.47L-3.67,-305.97L1.46,-290.95L17.56,-296.45L39.80,-231.38L53.60,-205.57L79.11,-203.83ZM131.34,-249.75L109.66,-275.88L193.67,-304.61L192.08,-312.81L164.95,-349.85L119.93,-353.27L87.06,-323.95L87.96,-274.18L117.71,-234.26L161.65,-231.18L190.72,-251.78L197.63,-280.20L179.13,-284.51L173.87,-261.09L157.07,-248.22ZM104.95,-291.80L108.39,-321.90L125.59,-336.64L151.02,-334.79L168.29,-313.44ZM-817.96,317.39L-765.94,299.62L-715.51,260.18L-716.77,194.81L-757.04,142.64L-822.31,143.88L-871.50,160.69ZM-803.53,292.05L-844.50,172.12L-815.99,162.38L-770.31,160.20L-738.59,202.04L-736.46,253.28L-774.36,282.08ZM-650.44,236.11L-672.12,209.98L-588.12,181.26L-589.71,173.05L-616.84,136.02L-661.85,132.59L-694.72,161.92L-693.82,211.69L-664.08,251.60L-620.14,254.69L-591.06,234.09L-584.15,205.67L-602.66,201.36L-607.91,224.78L-624.72,237.65ZM-676.83,194.07L-673.39,163.96L-656.19,149.22L-630.76,151.07L-613.50,172.43ZM-548.65,186.22L-562.63,199.68L-543.96,218.11L-507.16,216.22L-477.89,197.32L-472.50,165.20L-489.23,144.99L-511.65,141.71L-540.47,143.59L-557.15,142.72L-565.04,135.33L-562.56,122.01L-545.49,111.61L-526.10,110.38L-513.56,122.18L-499.73,108.78L-515.79,93.09L-550.46,94.62L-578.95,113.31L-583.41,144.06L-567.61,161.87L-544.77,164.53L-514.36,162.38L-498.97,164.49L-491.91,173.78L-496.17,189.91L-512.20,199.30L-535.35,199.56ZM-471.49,51.49L-467.05,41.32L-470.82,30.25L-480.75,24.78L-490.81,28.22L-495.13,38.53L-491.36,49.59L-481.55,54.93ZM-421.62,181.98L-460.29,68.80L-479.88,75.49L-441.21,188.67ZM-334.52,205.09L-299.79,174.22L-302.92,133.15L-339.06,27.38L-356.48,33.33L-351.27,48.56L-369.03,38.49L-390.81,39.60L-421.73,69.19L-419.45,117.56L-391.66,157.21L-349.09,161.70L-332.99,151.53L-324.07,135.28L-321.29,143.60L-319.56,171.30L-339.82,188.05L-359.69,189.13L-372.06,176.22L-385.28,188.76L-368.29,206.21ZM-384.01,55.88L-358.55,59.71L-337.07,89.44L-335.04,125.80L-353.67,144.68L-379.37,140.94L-399.45,110.75L-402.05,74.57ZM-272.42,131.00L-252.83,124.30L-273.88,62.71L-275.32,30.73L-256.61,13.11L-235.37,15.33L-222.26,36.32L-198.54,105.75L-178.95,99.06L-202.67,29.63L-221.88,-2.35L-258.40,-5.13L-277.96,6.76L-287.89,28.12L-293.46,11.80L-311.09,17.82ZM-134.62,59.87L-156.30,33.74L-72.30,5.01L-73.89,-3.19L-101.01,-40.22L-146.03,-43.65L-178.90,-14.33L-178.00,35.45L-148.25,75.36L-104.31,78.44L-75.24,57.85L-68.33,29.42L-86.84,25.11L-92.09,48.53L-108.90,61.41ZM-161.01,17.83L-157.57,-12.28L-140.37,-27.02L-114.94,-25.17L-97.67,-3.81ZM-18.43,-65.98L-2.06,-66.14L-1.83,-84.69L-23.49,-85.39L-40.21,-73.21L-47.04,-50.53L-53.73,-70.11L-71.36,-64.09L-33.07,47.98L-13.10,42.39L-34.00,-18.77L-36.16,-48.50ZM50.97,-18.65L36.98,-5.19L55.66,13.23L92.45,11.35L121.73,-7.55L127.12,-39.67L110.38,-59.89L87.97,-63.17L59.15,-61.29L42.47,-62.15L34.57,-69.55L37.06,-82.86L54.12,-93.27L73.51,-94.49L86.06,-82.69L99.88,-96.10L83.82,-111.78L49.15,-110.25L20.67,-91.57L16.20,-60.81L32.00,-43.00L54.84,-40.35L85.25,-42.50L100.65,-40.38L107.70,-31.09L103.45,-14.96L87.42,-5.58L64.27,-5.32ZM276.84,-32.37L270.52,-50.87L243.97,-41.79L188.19,-205.03L214.75,-214.10L208.42,-232.60L161.19,-216.46L229.61,-16.23ZM330.13,-249.88L310.54,-243.19L329.43,-187.89L313.33,-194.91L293.64,-193.24L262.71,-163.65L264.98,-115.28L292.78,-75.63L335.35,-71.15L352.75,-82.98L360.98,-102.68L366.26,-87.22L383.67,-93.17ZM300.45,-176.99L326.73,-173.44L347.37,-143.43L348.58,-106.78L330.79,-88.19L305.06,-91.91L284.97,-122.11L282.38,-158.29ZM418.12,-236.32L384.69,-206.80L385.04,-156.84L415.34,-117.11L459.84,-114.22L493.27,-143.75L492.94,-193.70L462.64,-233.43ZM454.15,-130.86L427.05,-133.19L405.04,-163.65L403.81,-201.23L423.81,-219.66L450.93,-217.33L472.97,-186.86L474.18,-149.29ZM581.54,-159.09L581.55,-159.09L573.52,-175.20L565.20,-170.89L554.13,-172.45L547.57,-186.12L525.33,-251.19L544.70,-257.81L539.57,-272.83L520.20,-266.21L506.82,-305.39L487.23,-298.70L500.62,-259.52L484.51,-254.02L489.64,-239.00L505.75,-244.50L527.98,-179.43L541.79,-153.62L567.29,-151.88ZM652.28,-160.65L583.86,-360.88L536.63,-344.74L542.96,-326.24L569.51,-335.32L625.28,-172.08L598.73,-163.01L605.05,-144.51ZM-132.20,170.46L-165.63,199.98L-165.28,249.94L-134.97,289.67L-90.48,292.56L-57.05,263.03L-57.38,213.07L-87.68,173.35ZM-96.17,275.92L-123.27,273.59L-145.28,243.13L-146.51,205.55L-126.51,187.12L-99.38,189.45L-77.35,219.92L-76.14,257.49ZM-3.08,147.53L13.29,147.37L13.51,128.82L-8.14,128.11L-24.86,140.30L-31.69,162.98L-38.38,143.39L-56.01,149.42L-17.72,261.48L2.24,255.90L-18.65,194.74L-20.82,165.01ZM125.26,266.74L159.99,235.88L156.86,194.81L120.71,89.03L103.30,94.98L108.51,110.22L90.75,100.14L68.97,101.26L38.05,130.85L40.33,179.22L68.12,218.87L110.69,223.35L126.79,213.18L135.71,196.93L138.49,205.26L140.22,232.95L119.96,249.70L100.09,250.79L87.72,237.88L74.50,250.41L91.49,267.86ZM75.77,117.54L101.23,121.36L122.71,151.09L124.74,187.45L106.11,206.33L80.41,202.60L60.33,172.40L57.73,136.23Z" fill="#ffffff" stroke="#000000"/>
    <path d="M-447.62,-19.24L-492.94,-22.77L-522.82,-63.49L-527.43,-114.01L-497.18,-146.88L-463.31,-148.34L-438.87,-127.45L-424.44,-143.51L-455.27,-167.41L-503.90,-164.18L-548.54,-119.49L-544.44,-55.08L-504.00,-4.79L-440.90,-1.94L-403.01,-32.55L-396.31,-69.79L-417.61,-72.71L-423.01,-40.27ZM-335.55,-48.35L-394.84,-201.04L-413.93,-193.63L-354.64,-40.93ZM-343.48,-193.39L-339.52,-203.62L-343.69,-214.41L-353.72,-219.41L-363.52,-215.60L-367.38,-205.23L-363.20,-194.46L-353.29,-189.58ZM-288.89,-66.46L-331.72,-176.74L-350.80,-169.33L-307.98,-59.05ZM-262.32,-76.78L-243.19,-84.21L-265.34,-141.26L-271.10,-171.53L-253.57,-193.12L-235.99,-192.04L-223.65,-174.80L-195.64,-102.67L-176.56,-110.09L-201.34,-173.92L-203.89,-200.69L-186.73,-219.08L-167.17,-216.69L-155.95,-198.61L-128.78,-128.64L-109.69,-136.05L-139.50,-212.82L-158.86,-237.38L-189.01,-237.12L-207.05,-224.61L-215.68,-202.03L-233.06,-213.76L-255.22,-211.30L-273.57,-199.19L-281.83,-178.05L-287.92,-193.75L-305.10,-187.08ZM-44.80,-246.36L-99.58,-203.13L-102.00,-171.86L-80.92,-151.22L-50.96,-153.84L-32.71,-165.34L-19.77,-185.65L-14.90,-172.86L2.92,-179.78L-24.68,-250.93L-47.29,-279.40L-84.61,-277.70L-111.49,-258.92L-117.56,-231.80L-98.81,-228.37L-95.60,-248.90L-80.51,-261.36L-59.84,-263.14ZM-38.25,-229.49L-27.42,-201.56L-36.33,-184.50L-53.96,-170.59L-69.77,-168.73L-81.99,-180.60L-79.29,-198.90ZM79.58,-207.84L79.58,-207.85L70.99,-223.44L62.94,-218.84L51.94,-219.93L44.90,-233.18L20.28,-296.59L39.15,-303.92L33.47,-318.55L14.60,-311.22L-0.23,-349.39L-19.31,-341.98L-4.49,-303.81L-20.18,-297.71L-14.50,-283.08L1.19,-289.17L25.82,-225.76L40.51,-200.83L65.78,-200.14ZM115.54,-247.65L93.05,-272.60L174.90,-304.40L173.00,-312.45L144.68,-347.94L100.05,-349.50L68.76,-319.18L71.67,-270.02L102.70,-231.79L146.25,-230.53L174.14,-252.07L179.81,-280.44L161.35,-283.95L157.11,-260.59L141.02,-247.18ZM87.75,-288.13L89.92,-318.02L106.32,-333.29L131.53,-332.50L149.46,-312.09ZM-799.57,351.49L-748.88,331.80L-700.65,290.78L-704.55,226.22L-746.48,176.30L-810.93,180.18L-858.86,198.79ZM-786.34,325.85L-831.71,209.00L-803.93,198.21L-758.88,194.19L-725.82,234.25L-721.63,284.80L-757.92,314.81ZM-637.32,264.34L-659.81,239.40L-577.96,207.59L-579.86,199.55L-608.18,164.05L-652.81,162.50L-684.10,192.82L-681.19,241.97L-650.16,280.21L-606.61,281.46L-578.72,259.92L-573.05,231.55L-591.51,228.05L-595.75,251.41L-611.83,264.81ZM-665.11,223.86L-662.94,193.97L-646.54,178.70L-621.33,179.49L-603.40,199.90ZM-538.75,210.89L-552.02,224.76L-532.82,242.21L-496.53,238.85L-468.37,218.98L-464.35,187.02L-481.71,167.72L-503.99,165.39L-532.40,168.42L-548.92,168.25L-557.02,161.26L-555.11,148.00L-538.67,137.02L-519.55,135.02L-506.67,146.17L-493.56,132.36L-510.07,117.52L-544.27,120.44L-571.66,140.06L-574.82,170.64L-558.48,187.60L-535.80,189.29L-505.83,185.93L-490.53,187.39L-483.19,196.29L-486.73,212.40L-502.19,222.33L-525.06,223.53ZM-467.97,74.60L-464.01,64.37L-468.18,53.58L-478.21,48.58L-488.01,52.39L-491.87,62.75L-487.69,73.53L-477.78,78.40ZM-413.38,201.52L-456.21,91.25L-475.29,98.66L-432.47,208.94ZM-326.35,220.82L-293.29,188.91L-298.06,148.44L-338.08,45.38L-355.05,51.97L-349.28,66.81L-367.25,57.58L-388.73,59.56L-418.08,90.07L-413.86,137.78L-384.78,175.83L-342.53,178.53L-327.03,167.83L-318.88,151.40L-315.79,159.52L-312.95,186.82L-332.29,204.20L-351.88,206.08L-364.64,193.82L-377.19,206.75L-359.69,223.31ZM-381.34,75.38L-356.02,78.12L-333.59,106.63L-330.10,142.48L-347.74,161.90L-373.30,159.25L-394.37,130.23L-398.41,94.58ZM-268.00,145.07L-248.92,137.66L-272.22,77.64L-274.95,46.09L-257.18,27.92L-236.09,29.25L-222.28,49.46L-196.01,117.11L-176.92,109.70L-203.19,42.05L-223.48,11.22L-259.68,9.97L-278.53,22.52L-287.47,44.03L-293.65,28.12L-310.83,34.79ZM-134.71,69.17L-157.20,44.22L-75.35,12.42L-77.25,4.37L-105.57,-31.12L-150.20,-32.68L-181.49,-2.36L-178.58,46.80L-147.55,85.03L-104.00,86.29L-76.11,64.75L-70.44,36.38L-88.90,32.88L-93.14,56.23L-109.22,69.64ZM-162.50,28.69L-160.32,-1.20L-143.93,-16.47L-118.72,-15.68L-100.79,4.73ZM-25.00,-59.94L-8.83,-60.76L-9.36,-79.10L-30.79,-78.92L-46.82,-66.19L-52.64,-43.50L-60.06,-62.58L-77.23,-55.91L-34.83,53.28L-15.32,46.95L-38.47,-12.64L-41.81,-41.94ZM45.51,-15.99L32.24,-2.11L51.44,15.33L87.73,11.97L115.89,-7.90L119.91,-39.86L102.55,-59.16L80.27,-61.49L51.86,-58.45L35.34,-58.63L27.24,-65.62L29.15,-78.88L45.59,-89.86L64.71,-91.86L77.59,-80.71L90.70,-94.52L74.19,-109.36L39.99,-106.44L12.60,-86.81L9.44,-56.24L25.78,-39.28L48.46,-37.58L78.42,-40.95L93.72,-39.49L101.07,-30.59L97.53,-14.47L82.06,-4.55L59.20,-3.35ZM268.18,-38.73L261.18,-56.76L235.31,-46.71L173.54,-205.77L199.42,-215.81L192.42,-233.84L146.40,-215.97L222.16,-20.86ZM311.99,-255.87L292.90,-248.45L313.83,-194.57L297.63,-200.86L278.23,-198.41L248.87,-167.90L253.09,-120.19L282.17,-82.14L324.43,-79.44L341.14,-91.85L348.47,-111.64L354.32,-96.59L371.28,-103.17ZM285.63,-182.62L311.75,-180.19L333.37,-151.36L336.05,-115.20L319.23,-96.10L293.64,-98.73L272.56,-127.75L268.53,-163.40ZM399.51,-246.04L367.67,-215.51L370.05,-166.15L401.61,-128.12L445.70,-127.08L477.54,-157.62L475.18,-206.98L443.62,-245.00ZM439.41,-143.29L412.53,-144.49L389.53,-173.70L386.79,-210.78L405.81,-229.81L432.71,-228.61L455.73,-199.40L458.45,-162.32ZM564.16,-176.37L564.16,-176.38L555.57,-191.97L547.52,-187.37L536.52,-188.46L529.48,-201.70L504.86,-265.11L523.73,-272.44L518.05,-287.07L499.18,-279.74L484.35,-317.92L465.27,-310.51L480.09,-272.33L464.40,-266.24L470.08,-251.61L485.77,-257.70L510.40,-194.29L525.09,-169.35L550.37,-168.67ZM634.00,-180.79L558.24,-375.90L512.22,-358.02L519.22,-340.00L545.09,-350.05L606.86,-190.99L580.98,-180.94L587.98,-162.92ZM-127.81,178.37L-159.65,208.90L-157.27,258.26L-125.71,296.29L-81.62,297.34L-49.78,266.80L-52.14,217.44L-83.70,179.41ZM-87.91,281.12L-114.79,279.93L-137.79,250.72L-140.53,213.63L-121.51,194.60L-94.61,195.80L-71.59,225.01L-68.87,262.10ZM-1.15,150.45L15.03,149.62L14.49,131.28L-6.93,131.47L-22.96,144.19L-28.79,166.88L-36.20,147.80L-53.38,154.47L-10.98,263.67L8.53,257.33L-14.61,197.74L-17.96,168.44ZM130.55,263.04L163.62,231.13L158.85,190.67L118.82,87.60L101.86,94.19L107.62,109.03L89.66,99.80L68.18,101.78L38.82,132.29L43.05,180.00L72.13,218.06L114.38,220.75L129.88,210.05L138.03,193.62L141.12,201.74L143.95,229.04L124.61,246.42L105.02,248.30L92.27,236.04L79.72,248.97L97.22,265.53ZM75.57,117.60L100.89,120.34L123.32,148.85L126.80,184.70L109.16,204.12L83.61,201.48L62.54,172.45L58.50,136.80Z" fill="#ffffff" stroke="#000000"/>
    <path d="M-446.98,3.84L-491.91,2.19L-523.09,-36.83L-529.70,-86.56L-501.15,-120.28L-467.74,-123.10L-442.74,-103.45L-429.13,-119.90L-460.57,-142.27L-508.49,-137.10L-550.78,-91.12L-544.11,-27.64L-502.10,20.41L-439.64,20.66L-403.44,-11.13L-398.33,-48.21L-419.50,-50.22L-423.52,-17.95ZM-337.42,-29.48L-402.22,-177.96L-420.78,-169.86L-355.98,-21.38ZM-351.16,-172.49L-347.66,-182.76L-352.22,-193.25L-362.33,-197.78L-371.87,-193.62L-375.25,-183.22L-370.68,-172.74L-360.69,-168.33ZM-292.05,-49.29L-338.85,-156.52L-357.41,-148.42L-310.61,-41.19ZM-266.21,-60.57L-247.61,-68.68L-271.82,-124.16L-278.75,-153.84L-262.30,-175.89L-244.88,-175.53L-231.99,-159.00L-201.38,-88.86L-182.82,-96.96L-209.91,-159.03L-213.51,-185.38L-197.31,-204.25L-177.88,-202.69L-166.06,-185.28L-136.36,-117.24L-117.80,-125.34L-150.38,-199.99L-170.51,-223.48L-200.29,-221.99L-217.61,-208.90L-225.22,-186.23L-242.87,-197.12L-264.67,-193.78L-282.31,-181.07L-289.61,-159.85L-296.27,-175.11L-312.97,-167.81ZM-58.17,-236.99L-110.54,-192.04L-111.66,-161.04L-89.98,-141.51L-60.49,-145.31L-42.92,-157.42L-30.96,-178.01L-25.62,-165.57L-8.30,-173.14L-38.47,-242.32L-61.97,-269.54L-98.78,-266.34L-124.57,-246.69L-129.47,-219.64L-110.80,-217.01L-108.47,-237.43L-94.06,-250.36L-73.71,-252.96ZM-51.01,-220.58L-39.17,-193.43L-47.27,-176.20L-64.13,-161.74L-79.68,-159.26L-92.23,-170.50L-90.32,-188.68ZM66.31,-203.99L66.31,-203.99L57.19,-219.06L49.42,-214.18L38.50,-214.81L31.01,-227.61L4.10,-289.27L22.45,-297.28L16.24,-311.51L-2.11,-303.50L-18.31,-340.62L-36.87,-332.52L-20.67,-295.40L-35.93,-288.74L-29.72,-274.51L-14.46,-281.17L12.45,-219.51L27.99,-195.47L52.99,-195.82ZM100.23,-244.79L76.99,-268.52L156.58,-303.28L154.37,-311.16L124.94,-345.08L80.77,-344.80L51.09,-313.57L55.97,-265.11L88.18,-228.59L131.27,-229.12L157.95,-251.54L162.41,-279.80L144.02,-282.52L140.78,-259.26L125.43,-245.36ZM71.12,-283.66L72.05,-313.29L87.63,-329.04L112.58,-329.28L131.12,-309.85ZM-779.68,384.50L-730.39,362.99L-684.40,320.48L-690.89,256.85L-734.35,209.22L-797.88,215.68L-844.48,236.03ZM-767.65,358.63L-817.24,245.00L-790.23,233.21L-745.87,227.41L-711.58,265.65L-705.38,315.43L-740.02,346.57ZM-622.90,291.78L-646.14,268.05L-566.55,233.29L-568.75,225.42L-598.18,191.49L-642.35,191.77L-672.03,223.01L-667.15,271.46L-634.94,307.98L-591.85,307.45L-565.17,285.03L-560.72,256.77L-579.10,254.05L-582.34,277.31L-597.69,291.21ZM-652.01,252.91L-651.07,223.29L-635.49,207.53L-610.55,207.29L-592.00,226.72ZM-527.66,234.95L-540.21,249.20L-520.53,265.66L-484.80,260.86L-457.79,240.08L-455.11,208.34L-473.05,189.97L-495.17,188.58L-523.12,192.73L-539.45,193.23L-547.74,186.65L-546.39,173.47L-530.59,161.95L-511.78,159.20L-498.60,169.69L-486.20,155.51L-503.12,141.52L-536.80,145.80L-563.07,166.30L-564.95,196.65L-548.11,212.74L-525.63,213.49L-496.15,208.95L-480.98,209.77L-473.35,218.26L-476.20,234.33L-491.08,244.77L-513.62,246.88ZM-463.27,97.39L-459.77,87.12L-464.33,76.63L-474.45,72.10L-483.98,76.26L-487.36,86.66L-482.80,97.14L-472.80,101.55ZM-404.16,220.60L-450.97,113.37L-469.53,121.47L-422.72,228.70ZM-317.38,236.12L-286.00,203.24L-292.36,163.45L-336.11,63.23L-352.60,70.43L-346.30,84.87L-364.43,76.47L-385.57,79.31L-413.34,110.65L-407.22,157.62L-376.94,194.05L-335.08,194.99L-320.20,183.79L-312.81,167.22L-309.43,175.11L-305.52,201.98L-323.92,219.94L-343.20,222.59L-356.31,211.00L-368.18,224.29L-350.22,239.94ZM-377.63,94.64L-352.50,96.32L-329.17,123.57L-324.27,158.86L-340.91,178.77L-366.27,177.20L-388.28,149.37L-393.72,114.31ZM-262.80,158.90L-244.24,150.79L-269.71,92.44L-273.69,61.37L-256.87,42.69L-235.97,43.15L-221.51,62.56L-192.80,128.34L-174.24,120.24L-202.95,54.46L-224.25,24.82L-260.07,25.05L-278.19,38.22L-286.15,59.84L-292.90,44.37L-309.60,51.66ZM-134.17,78.47L-157.41,54.73L-77.82,19.97L-80.03,12.10L-109.46,-21.82L-153.62,-21.54L-183.31,9.69L-178.43,58.14L-146.22,94.67L-103.13,94.14L-76.44,71.72L-71.99,43.45L-90.38,40.74L-93.62,63.99L-108.97,77.89ZM-163.28,39.60L-162.35,9.97L-146.77,-5.79L-121.82,-6.03L-103.27,13.41ZM-31.01,-53.58L-15.06,-55.04L-16.34,-73.15L-37.50,-72.10L-52.83,-58.87L-57.66,-36.21L-65.76,-54.77L-82.46,-47.48L-36.12,58.71L-17.10,51.65L-42.39,-6.29L-46.89,-35.11ZM40.45,-13.02L27.90,1.23L47.59,17.69L83.31,12.90L110.33,-7.88L113.00,-39.63L95.06,-57.99L72.95,-59.39L45.00,-55.24L28.67,-54.74L20.37,-61.32L21.73,-74.50L37.53,-86.01L56.34,-88.77L69.51,-78.28L81.91,-92.45L64.99,-106.45L31.31,-102.17L5.05,-81.67L3.17,-51.32L20.01,-35.23L42.49,-34.48L71.96,-39.02L87.14,-38.20L94.76,-29.71L91.92,-13.64L77.04,-3.20L54.49,-1.08ZM259.56,-44.55L251.91,-62.08L226.75,-51.10L159.25,-205.76L184.41,-216.74L176.76,-234.27L132.01,-214.74L214.81,-25.02ZM294.02,-260.90L275.46,-252.80L298.33,-200.41L282.06,-205.96L263.00,-202.75L235.22,-171.41L241.33,-124.43L271.63,-88.01L313.49,-87.07L329.50,-100.01L335.94,-119.87L342.33,-105.23L358.82,-112.43ZM270.95,-187.45L296.86,-186.11L319.40,-158.50L323.52,-122.87L307.67,-103.32L282.28,-104.88L260.27,-132.70L254.83,-167.76ZM380.90,-254.76L350.68,-223.29L355.04,-174.61L387.78,-138.32L431.39,-139.07L461.61,-170.55L457.27,-219.23L424.54,-255.52ZM424.51,-154.84L397.90,-154.93L373.99,-182.86L369.77,-219.40L387.79,-238.97L414.42,-238.88L438.35,-210.95L442.56,-174.42ZM546.44,-192.61L546.44,-192.61L537.32,-207.67L529.56,-202.80L518.64,-203.43L511.14,-216.23L484.23,-277.89L502.59,-285.90L496.38,-300.12L478.02,-292.11L461.82,-329.23L443.26,-321.13L459.46,-284.01L444.20,-277.35L450.41,-263.12L465.67,-269.78L492.59,-208.13L508.12,-184.08L533.12,-184.43ZM615.28,-199.81L532.47,-389.53L487.73,-370.00L495.38,-352.47L520.53,-363.45L588.04,-208.79L562.88,-197.81L570.53,-180.28ZM-122.91,186.09L-153.13,217.56L-148.77,266.24L-116.03,302.53L-72.42,301.78L-42.21,270.30L-46.54,221.62L-79.28,185.33ZM-79.30,286.01L-105.91,285.92L-129.82,257.99L-134.04,221.45L-116.02,201.88L-89.40,201.97L-65.46,229.90L-61.26,266.43ZM1.12,153.35L17.07,151.88L15.80,133.78L-5.37,134.83L-20.69,148.05L-25.53,170.72L-33.63,152.16L-50.33,159.45L-3.99,265.63L15.03,258.58L-10.26,200.63L-14.76,171.82ZM135.84,259.25L167.22,226.37L160.86,186.58L117.11,86.36L100.62,93.56L106.92,108.00L88.79,99.60L67.65,102.44L39.88,133.78L46.00,180.75L76.28,217.18L118.14,218.12L133.02,206.92L140.41,190.35L143.79,198.24L147.70,225.11L129.30,243.07L110.02,245.72L96.91,234.13L85.04,247.42L103.00,263.07ZM75.59,117.77L100.72,119.45L124.05,146.70L128.95,181.99L112.31,201.90L86.95,200.33L64.95,172.50L59.50,137.44Z" fill="#ffffff" stroke="#000000"/>
    <path d="M-906.35,492L-906.35,469.28L-898.22,492L-894.99,492L-886.86,469.28L-886.86,492L-883.25,492L-883.25,464.64L-888.22,464.64L-896.55,487.33L-904.68,464.64L-909.96,464.64L-909.96,492ZM-865.67,478.75L-876.82,482.17L-879.09,486.89L-877.05,491.38L-872.23,492.78L-868.69,492.09L-865.45,489.71L-865.46,492L-862.27,492L-862.27,479.25L-864.06,473.45L-869.98,471.46L-875.30,472.76L-877.88,476.62L-875.17,478.28L-873.43,475.28L-870.33,474.25L-867.00,475.23ZM-865.67,481.77L-865.68,486.77L-868.09,488.89L-871.68,489.99L-874.26,489.33L-875.44,486.74L-873.91,484.05ZM-857.12,492L-853.70,492L-853.70,481.25L-852.22,476.17L-848.35,474.41L-845.15,475.90L-844.22,479.88L-844.22,492L-840.80,492L-840.80,479.88L-842.09,473.85L-847.66,471.47L-851.35,472.28L-854.04,475.09L-854.04,472.24L-857.12,472.24ZM-833.34,468.94L-832.11,467.58L-832.10,465.65L-833.36,464.27L-835.12,464.27L-836.35,465.65L-836.35,467.58L-835.10,468.94ZM-832.52,492L-832.52,472.24L-835.94,472.24L-835.94,492ZM-818.31,468.12L-817.85,465.29L-820.94,464.71L-825.30,466.41L-826.70,471.29L-826.70,472.24L-829.67,472.24L-829.67,474.86L-826.70,474.86L-826.70,492L-823.40,492L-823.40,474.86L-819.56,474.86L-819.56,472.24L-823.40,472.24L-823.40,471.21L-822.75,468.65L-820.52,467.74ZM-807.97,471.46L-814.77,474.29L-817.39,482.12L-814.77,489.95L-807.97,492.78L-801.17,489.95L-798.55,482.12L-801.16,474.29ZM-807.97,489.87L-812.08,488.06L-813.90,482.12L-812.08,476.18L-807.97,474.37L-803.85,476.18L-802.04,482.12L-803.85,488.06ZM-795.03,492L-791.61,492L-791.61,481.25L-790.13,476.17L-786.26,474.41L-783.06,475.90L-782.13,479.88L-782.13,492L-778.71,492L-778.71,479.88L-780.00,473.85L-785.56,471.47L-789.26,472.28L-791.95,475.09L-791.95,472.24L-795.03,472.24ZM-765.45,492.27L-765.45,492.26L-765.85,489.32L-767.38,489.55L-769.03,488.71L-769.32,486.22L-769.32,474.86L-765.94,474.86L-765.94,472.24L-769.32,472.24L-769.32,465.40L-772.74,465.40L-772.74,472.24L-775.55,472.24L-775.55,474.86L-772.74,474.86L-772.74,486.22L-771.96,491.00L-768.07,492.63ZM-737.50,487.93L-737.50,478.13L-749.05,478.13L-749.05,481.31L-740.99,481.31L-740.97,486.22L-748.63,489.75L-755.95,486.41L-758.55,478.32L-756.06,470.17L-749.21,466.88L-744.27,468.25L-741.30,473.01L-738.24,471.11L-741.44,465.93L-749.13,463.79L-758.98,468.04L-762.42,478.32L-758.78,488.60L-748.74,492.86ZM-724.35,474.77L-721.78,475.62L-720.76,472.73L-724.11,471.47L-727.37,472.48L-729.65,475.66L-729.65,472.24L-732.73,472.24L-732.73,491.81L-729.31,492L-729.31,481.32L-728.06,476.56ZM-710.01,471.46L-716.81,474.29L-719.42,482.12L-716.81,489.95L-710.01,492.78L-703.20,489.95L-700.58,482.12L-703.20,474.29ZM-710.01,489.87L-714.12,488.06L-715.93,482.12L-714.12,476.18L-710.01,474.37L-705.89,476.18L-704.07,482.12L-705.89,488.06ZM-688.58,492.27L-688.58,492.26L-688.97,489.32L-690.51,489.55L-692.15,488.71L-692.45,486.22L-692.45,474.86L-689.07,474.86L-689.07,472.24L-692.45,472.24L-692.45,465.40L-695.87,465.40L-695.87,472.24L-698.68,472.24L-698.68,474.86L-695.87,474.86L-695.87,486.22L-695.09,491.00L-691.19,492.63ZM-680.57,488.24L-682.57,483.00L-667.90,482.99L-667.71,481.63L-669.97,474.39L-676.83,471.45L-683.53,474.28L-686.05,482.11L-683.53,489.93L-676.83,492.76L-671.18,491.10L-668.58,487.02L-671.25,485.36L-673.32,488.74L-676.63,489.86ZM-682.45,480.26L-680.31,475.73L-676.83,474.35L-672.95,476.00L-671.40,480.26ZM-661.99,485.88L-664.90,487.24L-662.96,491.11L-657.11,492.78L-651.52,491.39L-648.97,486.66L-650.50,482.61L-653.83,480.90L-658.44,479.65L-661.00,478.62L-661.84,477.05L-660.74,475.10L-657.52,474.38L-654.42,475.23L-653.09,477.74L-650.21,476.38L-651.88,473.07L-657.39,471.46L-662.84,472.86L-665.18,477.43L-663.66,481.06L-660.23,482.69L-655.36,483.98L-653.07,485.13L-652.46,486.96L-653.99,489.26L-656.99,489.87L-660.63,488.67ZM-641.92,483.45L-638.72,483.45L-637.20,484.67L-633.14,492.30L-630.05,490.63L-634.16,483.45L-636.67,482.04L-634.62,480.06L-632.77,476.14L-631.66,475.64L-630.10,475.39L-630.56,472.24L-633.40,472.52L-635.30,474.17L-637.43,478.82L-638.72,480.60L-641.91,480.60L-641.91,464.64L-643.66,464.64L-645.32,464.64L-645.33,492L-641.92,492ZM-625.58,492.01L-615.04,492.01L-607.42,490.45L-604.53,484.21L-606.06,480.03L-610.31,477.70L-606.80,475.27L-605.82,471.62L-608.58,466.13L-615.58,464.63L-625.58,464.63ZM-621.94,476.42L-621.95,467.89L-616.40,467.89L-611.64,468.44L-609.62,472.08L-611.57,475.51L-615.93,476.42ZM-621.94,488.79L-621.94,479.64L-615.54,479.64L-610.64,480.53L-608.45,484.21L-610.32,488.02L-615.04,488.79ZM-592.40,471.46L-599.20,474.29L-601.81,482.12L-599.20,489.95L-592.40,492.78L-585.59,489.95L-582.97,482.12L-585.59,474.29ZM-592.40,489.87L-596.51,488.06L-598.32,482.12L-596.51,476.18L-592.40,474.37L-588.28,476.18L-586.46,482.12L-588.28,488.06ZM-571.27,471.46L-578.07,474.29L-580.68,482.12L-578.07,489.95L-571.27,492.78L-564.46,489.95L-561.85,482.12L-564.46,474.29ZM-571.27,489.87L-575.38,488.06L-577.19,482.12L-575.38,476.18L-571.27,474.37L-567.15,476.18L-565.33,482.12L-567.15,488.06ZM-554.82,483.45L-551.62,483.45L-550.10,484.67L-546.04,492.30L-542.96,490.63L-547.06,483.45L-549.57,482.04L-547.52,480.06L-545.67,476.14L-544.56,475.64L-543.00,475.39L-543.46,472.24L-546.31,472.52L-548.20,474.17L-550.34,478.82L-551.62,480.60L-554.82,480.60L-554.82,464.64L-556.56,464.64L-558.23,464.64L-558.23,492L-554.82,492Z"/>
</svg>