<?xml version="1.0"?>
<svg xmlns="http://www.w3.org/2000/svg" width="1920" height="1080" viewBox="-960 -540 1920 1080">
    <path d="M-518.75,-390.25C-503.58,-394.75 -485.33,-397 -464,-397C-442.67,-397 -424.88,-391.54 -410.63,-380.63C-396.38,-369.71 -389.25,-357 -389.25,-342.50C-389.42,-317.83 -403.25,-298.42 -430.75,-284.25C-447.92,-278.58 -466.08,-274.67 -485.25,-272.50C-486.58,-257.33 -488.58,-237.75 -491.25,-213.75C-496.08,-210.42 -503.42,-209.38 -513.25,-210.63C-523.08,-211.88 -529.75,-214.83 -533.25,-219.50C-523.58,-252 -515,-289.83 -507.50,-333L-505.50,-372.75L-517.25,-373C-519.92,-375.83 -521.38,-378.96 -521.63,-382.38C-521.88,-385.79 -520.92,-388.42 -518.75,-390.25ZM-468.75,-375.75L-481.75,-317.50C-482.25,-311 -483,-301.58 -484,-289.25C-465.83,-292.75 -451.92,-297.17 -442.25,-302.50C-436.58,-307 -432.08,-312.67 -428.75,-319.50C-425.42,-326.33 -423.79,-334.13 -423.88,-342.88C-423.96,-351.63 -427.92,-359.25 -435.75,-365.75C-443.58,-372.25 -454.58,-375.58 -468.75,-375.75ZM-340.50,-311.50L-337.75,-308.25C-314.08,-333.42 -301.75,-346.50 -300.75,-347.50C-291.42,-345.67 -283.83,-341.21 -278,-334.13C-272.17,-327.04 -269.17,-318.08 -269,-307.25C-274.50,-302.58 -280.42,-299.79 -286.75,-298.88C-293.08,-297.96 -299,-299 -304.50,-302C-304.33,-309.17 -305.83,-314.50 -309,-318C-319.67,-307.33 -328.75,-298.08 -336.25,-290.25C-338.08,-267.25 -341.08,-241.67 -345.25,-213.50C-352.25,-210.33 -360.17,-209.42 -369,-210.75C-377.83,-212.08 -383.67,-215.08 -386.50,-219.75C-377,-247.08 -369.25,-273.67 -363.25,-299.50L-370.25,-337C-359.58,-346.50 -347.08,-350.08 -332.75,-347.75C-331.08,-342.25 -331.08,-334.08 -332.75,-323.25ZM-175.50,-250.50L-211.25,-213.50C-228.58,-214.17 -241.54,-218.75 -250.13,-227.25C-258.71,-235.75 -263,-246.75 -263,-260.25C-263.33,-281.08 -255.54,-300.71 -239.63,-319.13C-223.71,-337.54 -204.67,-347 -182.50,-347.50C-173.83,-342.33 -165.75,-333.25 -158.25,-320.25L-158.25,-320.50C-158.25,-332.50 -156.83,-341.42 -154,-347.25C-142.50,-348.58 -133.83,-348.50 -128,-347C-122.17,-345.50 -118,-342.08 -115.50,-336.75L-136.75,-297.25C-138.92,-275.75 -140,-247.83 -140,-213.50C-145.33,-210.33 -152.46,-209.42 -161.38,-210.75C-170.29,-212.08 -177.58,-215.25 -183.25,-220.25L-172.25,-247.25ZM-184.75,-326.25C-197.42,-320.58 -207.38,-311.88 -214.63,-300.13C-221.88,-288.38 -225.50,-276.17 -225.50,-263.50C-225.50,-250.83 -221.50,-242.17 -213.50,-237.50C-203.17,-246.33 -188.42,-259 -169.25,-275.50L-163.75,-302.25C-168.75,-312.75 -175.75,-320.75 -184.75,-326.25ZM-26,-348.75C-13.67,-346.58 -4.38,-342.13 1.88,-335.38C8.13,-328.63 12.42,-319.75 14.75,-308.75C12.08,-303.25 7.46,-299.46 0.88,-297.38C-5.71,-295.29 -13.25,-295.17 -21.75,-297C-21.58,-304.33 -22.33,-310.33 -24,-315C-25.67,-319.67 -28.50,-324.33 -32.50,-329L-38.50,-327.75C-47.50,-320.92 -54.67,-312.75 -60,-303.25C-65.33,-293.75 -68.21,-284.25 -68.63,-274.75C-69.04,-265.25 -67.63,-256.96 -64.38,-249.88C-61.13,-242.79 -55.08,-236.67 -46.25,-231.50C-27.25,-237.17 -12.25,-244.75 -1.25,-254.25C8.25,-254.58 11.83,-249.33 9.50,-238.50C3.50,-232.17 -5.38,-226.25 -17.13,-220.75C-28.88,-215.25 -40.33,-211.67 -51.50,-210C-70.67,-213.33 -84.58,-220.46 -93.25,-231.38C-101.92,-242.29 -106.13,-254.42 -105.88,-267.75C-105.63,-281.08 -101.08,-293.92 -92.25,-306.25C-72.58,-329.42 -50.50,-343.58 -26,-348.75ZM140,-334L95,-332.25C94,-319.92 92.25,-302.54 89.75,-280.13C87.25,-257.71 85.58,-242.08 84.75,-233.25C97.75,-237.92 109.67,-244.42 120.50,-252.75C125.67,-252.58 129.04,-251.38 130.63,-249.13C132.21,-246.88 132.75,-243.08 132.25,-237.75C125.42,-231.75 117.04,-226.17 107.13,-221C97.21,-215.83 87.08,-212.17 76.75,-210C59.42,-212 48.83,-218.92 45,-230.75C56,-267.92 64.33,-300.33 70,-328L37.50,-322.25C31.67,-328.92 31.67,-336.50 37.50,-345L71.75,-344.50L69.50,-385C87.83,-395.50 101.58,-396.50 110.75,-388L98.50,-349L140,-356.75C145.83,-351.92 145.83,-344.33 140,-334ZM169.75,-297L168.50,-341C186.17,-348.83 199.42,-349.25 208.25,-342.25L197.25,-304C195.42,-286.17 193.08,-256 190.25,-213.50C183.92,-210.17 176.29,-209.25 167.38,-210.75C158.46,-212.25 152.08,-215.50 148.25,-220.50C157.42,-245.50 164.58,-271 169.75,-297ZM212.25,-380C212.42,-374.50 210.58,-369.79 206.75,-365.88C202.92,-361.96 198.21,-360 192.63,-360C187.04,-360 182.25,-361.96 178.25,-365.88C174.25,-369.79 172.17,-374.46 172,-379.88C171.83,-385.29 173.75,-389.92 177.75,-393.75C181.75,-397.58 186.54,-399.50 192.13,-399.50C197.71,-399.50 202.42,-397.63 206.25,-393.88C210.08,-390.13 212.08,-385.50 212.25,-380ZM302,-348.75C314.33,-346.58 323.63,-342.13 329.88,-335.38C336.13,-328.63 340.42,-319.75 342.75,-308.75C340.08,-303.25 335.46,-299.46 328.88,-297.38C322.29,-295.29 314.75,-295.17 306.25,-297C306.42,-304.33 305.67,-310.33 304,-315C302.33,-319.67 299.50,-324.33 295.50,-329L289.50,-327.75C280.50,-320.92 273.33,-312.75 268,-303.25C262.67,-293.75 259.79,-284.25 259.38,-274.75C258.96,-265.25 260.38,-256.96 263.63,-249.88C266.88,-242.79 272.92,-236.67 281.75,-231.50C300.75,-237.17 315.75,-244.75 326.75,-254.25C336.25,-254.58 339.83,-249.33 337.50,-238.50C331.50,-232.17 322.63,-226.25 310.88,-220.75C299.13,-215.25 287.67,-211.67 276.50,-210C257.33,-213.33 243.42,-220.46 234.75,-231.38C226.08,-242.29 221.88,-254.42 222.13,-267.75C222.38,-281.08 226.92,-293.92 235.75,-306.25C255.42,-329.42 277.50,-343.58 302,-348.75ZM438.50,-349.75C455.17,-347.08 466.54,-340.21 472.63,-329.13C478.71,-318.04 479.83,-304.83 476,-289.50C448,-276.17 421.17,-266.92 395.50,-261.75C397.83,-248.25 405.08,-238.25 417.25,-231.75C435.75,-236.08 451.08,-243 463.25,-252.50C472.58,-252.83 476.42,-247.58 474.75,-236.75C469.42,-230.92 460.33,-225.38 447.50,-220.13C434.67,-214.88 423.08,-211.50 412.75,-210C394.25,-213.33 380.54,-220.46 371.63,-231.38C362.71,-242.29 358.42,-255.25 358.75,-270.25C359.25,-282.75 363.58,-295 371.75,-307C392.58,-328.83 414.83,-343.08 438.50,-349.75ZM394.75,-277L394.75,-276.25C412.75,-281.58 429.42,-288 444.75,-295.50C446.75,-311.67 442,-323 430.50,-329.50L426.25,-328C417.25,-321.83 409.83,-313.92 404,-304.25C398.17,-294.58 395.08,-285.50 394.75,-277Z" fill="#ffffff" stroke="#000000"/>
    <path d="M-510.34,-395.49C-495.23,-399.59 -477.11,-401.39 -456.00,-400.90C-434.88,-400.40 -417.40,-394.58 -403.55,-383.45C-389.70,-372.31 -382.95,-359.57 -383.28,-345.22C-384.02,-320.81 -398.17,-301.91 -425.71,-288.53C-442.84,-283.32 -460.91,-279.87 -479.93,-278.17C-481.60,-263.19 -484.04,-243.85 -487.23,-220.16C-492.10,-216.98 -499.38,-216.12 -509.08,-217.58C-518.78,-219.05 -525.31,-222.13 -528.67,-226.83C-518.34,-258.77 -508.97,-296.02 -500.54,-338.57L-497.64,-377.86L-509.26,-378.38C-511.83,-381.25 -513.20,-384.38 -513.37,-387.76C-513.54,-391.15 -512.53,-393.73 -510.34,-395.49ZM-461.19,-379.98L-475.42,-322.63C-476.06,-316.20 -477.02,-306.90 -478.30,-294.72C-460.24,-297.76 -446.36,-301.81 -436.67,-306.86C-430.96,-311.18 -426.37,-316.69 -422.91,-323.37C-419.46,-330.06 -417.67,-337.73 -417.54,-346.39C-417.42,-355.06 -421.16,-362.69 -428.76,-369.31C-436.37,-375.93 -447.18,-379.48 -461.19,-379.98ZM-335.76,-313.40L-333.11,-310.12C-309.10,-334.48 -296.59,-347.14 -295.58,-348.10C-286.38,-346.07 -278.98,-341.48 -273.37,-334.34C-267.76,-327.19 -265.00,-318.25 -265.09,-307.53C-270.64,-303.04 -276.56,-300.41 -282.85,-299.65C-289.14,-298.89 -294.97,-300.06 -300.35,-303.16C-300.02,-310.25 -301.38,-315.56 -304.43,-319.10C-315.23,-308.79 -324.44,-299.85 -332.04,-292.27C-334.40,-269.55 -337.96,-244.30 -342.74,-216.52C-349.74,-213.55 -357.60,-212.82 -366.31,-214.35C-375.02,-215.87 -380.72,-218.98 -383.42,-223.66C-373.38,-250.49 -365.09,-276.62 -358.55,-302.05L-364.61,-339.33C-353.83,-348.48 -341.37,-351.74 -327.24,-349.10C-325.72,-343.61 -325.91,-335.53 -327.81,-324.85ZM-173.87,-249.18L-210.12,-213.40C-227.26,-214.46 -239.97,-219.30 -248.27,-227.91C-256.57,-236.52 -260.56,-247.51 -260.25,-260.87C-260.09,-281.50 -251.92,-300.74 -235.74,-318.60C-219.56,-336.45 -200.49,-345.37 -178.54,-345.35C-170.08,-340.03 -162.30,-330.86 -155.18,-317.82L-155.17,-318.06C-154.89,-329.94 -153.28,-338.73 -150.34,-344.44C-138.93,-345.49 -130.35,-345.21 -124.61,-343.59C-118.87,-341.97 -114.83,-338.49 -112.48,-333.15L-134.43,-294.55C-137.08,-273.32 -138.80,-245.72 -139.60,-211.74C-144.95,-208.73 -152.02,-207.99 -160.82,-209.51C-169.61,-211.04 -176.75,-214.34 -182.25,-219.42L-170.73,-245.89ZM-181.26,-324.37C-193.93,-319.06 -203.99,-310.67 -211.44,-299.21C-218.89,-287.75 -222.76,-275.75 -223.06,-263.21C-223.35,-250.68 -219.59,-242.01 -211.78,-237.20C-201.35,-245.70 -186.46,-257.90 -167.10,-273.78L-161.04,-300.13C-165.74,-310.64 -172.48,-318.72 -181.26,-324.37ZM-23.62,-342.94C-11.46,-340.51 -2.37,-335.88 3.66,-329.06C9.69,-322.23 13.73,-313.35 15.78,-302.41C13.01,-297.02 8.35,-293.38 1.78,-291.47C-4.78,-289.56 -12.25,-289.61 -20.62,-291.63C-20.28,-298.88 -20.89,-304.84 -22.43,-309.49C-23.97,-314.15 -26.66,-318.84 -30.51,-323.55L-36.48,-322.45C-45.55,-315.90 -52.83,-307.98 -58.33,-298.70C-63.83,-289.42 -66.90,-280.09 -67.53,-270.70C-68.16,-261.30 -66.96,-253.06 -63.90,-245.98C-60.85,-238.89 -55.01,-232.69 -46.39,-227.37C-27.46,-232.54 -12.43,-239.69 -1.33,-248.84C8.09,-248.95 11.51,-243.67 8.95,-233.00C2.86,-226.87 -6.06,-221.22 -17.82,-216.05C-29.57,-210.88 -41.00,-207.60 -52.09,-206.21C-70.98,-209.96 -84.59,-217.33 -92.91,-228.34C-101.24,-239.35 -105.12,-251.44 -104.56,-264.64C-104.00,-277.83 -99.21,-290.42 -90.18,-302.42C-70.18,-324.89 -47.99,-338.40 -23.62,-342.94ZM140.33,-324.48L95.75,-323.79C94.48,-311.61 92.34,-294.46 89.34,-272.33C86.35,-250.20 84.33,-234.77 83.30,-226.05C96.28,-230.37 108.22,-236.52 119.14,-244.52C124.25,-244.23 127.56,-242.96 129.08,-240.69C130.59,-238.43 131.04,-234.67 130.42,-229.40C123.52,-223.62 115.10,-218.29 105.16,-213.41C95.23,-208.52 85.12,-205.13 74.84,-203.23C57.73,-205.61 47.42,-212.70 43.90,-224.50C55.66,-261.03 64.66,-292.92 70.91,-320.17L38.61,-315.24C32.99,-321.97 33.17,-329.48 39.14,-337.75L73.03,-336.46L71.74,-376.60C90.13,-386.56 103.76,-387.23 112.64,-378.61L99.61,-340.29L140.86,-347.00C146.52,-342.08 146.34,-334.57 140.33,-324.48ZM168.91,-287.17L168.70,-330.74C186.37,-338.08 199.49,-338.19 208.07,-331.06L196.29,-293.45C194.06,-275.85 191.05,-246.04 187.26,-204.05C180.91,-200.90 173.34,-200.17 164.55,-201.86C155.76,-203.55 149.53,-206.92 145.85,-211.95C155.51,-236.48 163.19,-261.55 168.91,-287.17ZM212.91,-368.32C212.95,-362.88 211.02,-358.26 207.14,-354.47C203.25,-350.69 198.55,-348.86 193.02,-348.99C187.49,-349.12 182.80,-351.17 178.93,-355.14C175.06,-359.11 173.11,-363.77 173.07,-369.14C173.03,-374.50 175.04,-379.04 179.08,-382.74C183.13,-386.44 187.92,-388.22 193.45,-388.09C198.97,-387.96 203.59,-386.00 207.29,-382.20C211.00,-378.40 212.87,-373.77 212.91,-368.32ZM301.01,-335.31C313.17,-332.87 322.26,-328.24 328.29,-321.42C334.32,-314.59 338.36,-305.71 340.41,-294.77C337.64,-289.39 332.98,-285.74 326.41,-283.83C319.85,-281.92 312.38,-281.98 304.01,-283.99C304.35,-291.24 303.74,-297.20 302.20,-301.86C300.66,-306.51 297.97,-311.20 294.12,-315.91L288.15,-314.81C279.08,-308.26 271.80,-300.34 266.30,-291.06C260.80,-281.79 257.73,-272.45 257.10,-263.06C256.47,-253.67 257.68,-245.43 260.73,-238.34C263.78,-231.25 269.62,-225.05 278.24,-219.73C297.17,-224.90 312.20,-232.05 323.31,-241.20C332.72,-241.31 336.14,-236.03 333.58,-225.36C327.49,-219.23 318.57,-213.58 306.81,-208.41C295.06,-203.24 283.63,-199.96 272.54,-198.57C253.65,-202.32 240.04,-209.70 231.72,-220.70C223.39,-231.71 219.51,-243.81 220.07,-257.00C220.63,-270.19 225.42,-282.78 234.45,-294.78C254.45,-317.26 276.64,-330.76 301.01,-335.31ZM436.13,-333.12C452.56,-330.09 463.66,-323.02 469.42,-311.91C475.19,-300.80 475.99,-287.70 471.84,-272.61C443.82,-260.07 417.05,-251.54 391.52,-247.02C393.52,-233.61 400.46,-223.54 412.35,-216.82C430.76,-220.68 446.10,-227.17 458.36,-236.29C467.61,-236.40 471.28,-231.12 469.38,-220.43C463.96,-214.78 454.84,-209.51 442.02,-204.61C429.20,-199.72 417.65,-196.65 407.39,-195.40C389.16,-199.13 375.76,-206.50 367.19,-217.51C358.62,-228.53 354.67,-241.45 355.35,-256.29C356.13,-268.65 360.71,-280.67 369.07,-292.36C390.20,-313.48 412.55,-327.07 436.13,-333.12ZM391.14,-262.13L391.12,-261.39C409.06,-266.25 425.70,-272.21 441.05,-279.28C443.41,-295.23 438.97,-306.56 427.74,-313.26L423.50,-311.88C414.45,-305.98 406.92,-298.32 400.93,-288.89C394.93,-279.46 391.66,-270.54 391.14,-262.13Z" fill="#ffffff" stroke="#000000"/>
    <path d="M-501.85,-400.61C-486.80,-404.32 -468.83,-405.68 -447.94,-404.69C-427.06,-403.71 -409.89,-397.55 -396.45,-386.20C-383.00,-374.86 -376.61,-362.09 -377.28,-347.90C-378.58,-323.76 -393.02,-305.39 -420.59,-292.79C-437.66,-288.03 -455.62,-285.04 -474.48,-283.80C-476.49,-269.01 -479.35,-249.93 -483.06,-226.56C-487.95,-223.52 -495.18,-222.84 -504.74,-224.52C-514.31,-226.20 -520.70,-229.40 -523.91,-234.13C-512.95,-265.50 -502.81,-302.14 -493.48,-344.05L-489.69,-382.87L-501.18,-383.65C-503.66,-386.55 -504.94,-389.68 -505.03,-393.03C-505.11,-396.39 -504.06,-398.91 -501.85,-400.61ZM-453.57,-384.11L-468.98,-327.69C-469.77,-321.35 -470.94,-312.16 -472.49,-300.14C-454.54,-302.73 -440.72,-306.41 -431.01,-311.18C-425.25,-315.33 -420.59,-320.67 -417.01,-327.20C-413.43,-333.74 -411.48,-341.29 -411.16,-349.86C-410.84,-358.43 -414.36,-366.08 -421.73,-372.80C-429.10,-379.52 -439.71,-383.29 -453.57,-384.11ZM-330.99,-315.30L-328.45,-312.00C-304.12,-335.54 -291.44,-347.78 -290.42,-348.71C-281.36,-346.49 -274.15,-341.78 -268.76,-334.57C-263.38,-327.37 -260.86,-318.46 -261.19,-307.85C-266.79,-303.53 -272.71,-301.07 -278.95,-300.47C-285.20,-299.86 -290.94,-301.16 -296.18,-304.35C-295.69,-311.35 -296.91,-316.64 -299.85,-320.22C-310.79,-310.27 -320.10,-301.63 -327.81,-294.31C-330.66,-271.88 -334.78,-246.97 -340.15,-219.59C-347.15,-216.81 -354.94,-216.28 -363.53,-217.99C-372.12,-219.70 -377.69,-222.91 -380.25,-227.61C-369.69,-253.93 -360.88,-279.59 -353.81,-304.61L-358.94,-341.64C-348.06,-350.45 -335.65,-353.38 -321.73,-350.43C-320.35,-344.97 -320.73,-336.98 -322.86,-326.45ZM-172.28,-247.99L-208.98,-213.41C-225.92,-214.87 -238.39,-219.95 -246.40,-228.67C-254.41,-237.38 -258.11,-248.35 -257.48,-261.56C-256.85,-281.97 -248.32,-300.83 -231.89,-318.12C-215.46,-335.41 -196.38,-343.80 -174.66,-343.26C-166.41,-337.81 -158.92,-328.54 -152.18,-315.47L-152.17,-315.72C-151.61,-327.46 -149.81,-336.13 -146.77,-341.71C-135.45,-342.48 -126.97,-342.00 -121.33,-340.26C-115.69,-338.53 -111.77,-334.99 -109.57,-329.65L-132.19,-291.96C-135.30,-271.02 -137.65,-243.74 -139.23,-210.13C-144.60,-207.28 -151.62,-206.71 -160.28,-208.42C-168.95,-210.14 -175.94,-213.58 -181.26,-218.73L-169.25,-244.66ZM-177.84,-322.57C-190.50,-317.60 -200.65,-309.54 -208.29,-298.37C-215.93,-287.20 -220.04,-275.42 -220.62,-263.02C-221.21,-250.62 -217.69,-241.95 -210.08,-237.01C-199.55,-245.18 -184.53,-256.90 -165.01,-272.17L-158.39,-298.10C-162.80,-308.61 -169.29,-316.77 -177.84,-322.57ZM-21.40,-337.27C-9.43,-334.59 -0.54,-329.79 5.27,-322.90C11.08,-316.00 14.87,-307.12 16.65,-296.24C13.78,-290.98 9.08,-287.48 2.54,-285.74C-4.00,-284.01 -11.39,-284.23 -19.63,-286.42C-19.13,-293.59 -19.58,-299.50 -21.00,-304.14C-22.42,-308.79 -24.97,-313.49 -28.68,-318.24L-34.61,-317.29C-43.73,-311.02 -51.12,-303.35 -56.78,-294.30C-62.44,-285.25 -65.69,-276.08 -66.54,-266.80C-67.38,-257.52 -66.38,-249.34 -63.52,-242.25C-60.67,-235.17 -55.04,-228.89 -46.63,-223.43C-27.77,-228.10 -12.74,-234.83 -1.53,-243.63C7.79,-243.51 11.05,-238.21 8.27,-227.71C2.10,-221.79 -6.86,-216.41 -18.61,-211.56C-30.37,-206.72 -41.75,-203.74 -52.76,-202.63C-71.37,-206.77 -84.66,-214.39 -92.64,-225.47C-100.62,-236.56 -104.19,-248.62 -103.33,-261.66C-102.47,-274.70 -97.43,-287.06 -88.21,-298.72C-67.89,-320.50 -45.62,-333.35 -21.40,-337.27ZM140.42,-315.19L96.29,-315.55C94.74,-303.52 92.22,-286.59 88.74,-264.76C85.26,-242.93 82.91,-227.71 81.69,-219.11C94.63,-223.07 106.60,-228.89 117.58,-236.55C122.63,-236.15 125.88,-234.81 127.33,-232.53C128.78,-230.26 129.13,-226.52 128.40,-221.32C121.43,-215.76 112.97,-210.68 103.03,-206.08C93.08,-201.48 83.00,-198.36 72.79,-196.71C55.91,-199.47 45.87,-206.73 42.66,-218.49C55.14,-254.37 64.80,-285.72 71.62,-312.54L39.54,-308.41C34.13,-315.20 34.48,-322.63 40.59,-330.68L74.09,-328.61L73.76,-368.36C92.19,-377.79 105.69,-378.14 114.27,-369.39L100.48,-331.78L141.47,-337.46C146.95,-332.46 146.60,-325.03 140.42,-315.19ZM167.84,-277.59L168.64,-320.72C186.29,-327.58 199.28,-327.38 207.61,-320.12L195.08,-283.18C192.46,-265.81 188.79,-236.38 184.05,-194.91C177.70,-191.94 170.20,-191.39 161.54,-193.27C152.88,-195.15 146.79,-198.63 143.26,-203.70C153.39,-227.75 161.58,-252.38 167.84,-277.59ZM213.26,-356.89C213.17,-351.49 211.16,-346.97 207.23,-343.31C203.30,-339.65 198.60,-337.95 193.13,-338.21C187.67,-338.47 183.07,-340.61 179.33,-344.63C175.60,-348.64 173.77,-353.31 173.86,-358.62C173.94,-363.93 176.03,-368.37 180.13,-371.94C184.22,-375.50 189.00,-377.16 194.46,-376.90C199.93,-376.64 204.45,-374.59 208.03,-370.74C211.61,-366.90 213.36,-362.28 213.26,-356.89ZM299.68,-322.16C311.66,-319.47 320.55,-314.68 326.35,-307.78C332.16,-300.88 335.95,-292.00 337.73,-281.12C334.87,-275.86 330.16,-272.36 323.62,-270.63C317.08,-268.89 309.69,-269.12 301.46,-271.30C301.96,-278.47 301.50,-284.38 300.08,-289.03C298.67,-293.67 296.11,-298.37 292.41,-303.12L286.48,-302.18C277.35,-295.90 269.96,-288.24 264.30,-279.18C258.64,-270.13 255.39,-260.96 254.55,-251.68C253.70,-242.40 254.70,-234.22 257.56,-227.14C260.41,-220.05 266.05,-213.78 274.46,-208.31C293.32,-212.98 308.35,-219.72 319.56,-228.51C328.87,-228.40 332.14,-223.09 329.35,-212.60C323.19,-206.67 314.23,-201.29 302.47,-196.45C290.72,-191.61 279.33,-188.63 268.33,-187.51C249.72,-191.65 236.42,-199.27 228.44,-210.36C220.46,-221.44 216.90,-233.51 217.76,-246.55C218.62,-259.59 223.65,-271.94 232.87,-283.61C253.19,-305.38 275.46,-318.23 299.68,-322.16ZM433.35,-316.85C449.54,-313.47 460.36,-306.21 465.81,-295.08C471.25,-283.95 471.74,-270.97 467.28,-256.14C439.26,-244.38 412.56,-236.56 387.20,-232.68C388.86,-219.36 395.50,-209.24 407.11,-202.31C425.42,-205.70 440.75,-211.77 453.10,-220.51C462.25,-220.40 465.76,-215.09 463.63,-204.56C458.14,-199.09 448.99,-194.09 436.19,-189.54C423.38,-184.99 411.89,-182.22 401.70,-181.23C383.75,-185.34 370.66,-192.95 362.43,-204.05C354.20,-215.15 350.60,-228.03 351.62,-242.70C352.68,-254.91 357.49,-266.70 366.04,-278.07C387.44,-298.49 409.88,-311.41 433.35,-316.85ZM387.17,-247.65L387.14,-246.91C405.00,-251.30 421.61,-256.82 436.97,-263.45C439.67,-279.19 435.54,-290.50 424.59,-297.39L420.36,-296.12C411.26,-290.50 403.64,-283.09 397.48,-273.90C391.32,-264.70 387.89,-255.95 387.17,-247.65Z" fill="#ffffff" stroke="#000000"/>
    <path d="M-493.28,-405.60C-478.29,-408.92 -460.48,-409.85 -439.84,-408.39C-419.20,-406.93 -402.36,-400.43 -389.31,-388.89C-376.27,-377.36 -370.25,-364.57 -371.24,-350.54C-373.09,-326.69 -387.80,-308.85 -415.38,-297.02C-432.38,-292.71 -450.22,-290.16 -468.92,-289.38C-471.24,-274.79 -474.52,-255.98 -478.74,-232.94C-483.64,-230.05 -490.81,-229.54 -500.24,-231.42C-509.67,-233.31 -515.92,-236.62 -518.98,-241.38C-507.41,-272.16 -496.52,-308.18 -486.31,-349.44L-481.65,-387.76L-493.00,-388.81C-495.39,-391.73 -496.59,-394.86 -496.60,-398.18C-496.60,-401.50 -495.50,-403.98 -493.28,-405.60ZM-445.89,-388.15L-462.45,-332.68C-463.38,-326.43 -464.75,-317.37 -466.56,-305.50C-448.74,-307.64 -434.98,-310.97 -425.26,-315.47C-419.47,-319.43 -414.72,-324.61 -411.03,-330.99C-407.34,-337.37 -405.23,-344.80 -404.72,-353.27C-404.20,-361.75 -407.51,-369.40 -414.64,-376.22C-421.78,-383.05 -432.19,-387.02 -445.89,-388.15ZM-326.19,-317.21L-323.75,-313.88C-299.13,-336.61 -286.30,-348.43 -285.27,-349.33C-276.36,-346.92 -269.33,-342.08 -264.17,-334.83C-259.01,-327.58 -256.72,-318.71 -257.30,-308.21C-262.94,-304.07 -268.85,-301.78 -275.05,-301.32C-281.24,-300.87 -286.89,-302.28 -292.01,-305.56C-291.36,-312.48 -292.44,-317.75 -295.27,-321.35C-306.32,-311.76 -315.74,-303.43 -323.53,-296.36C-326.88,-274.23 -331.53,-249.68 -337.49,-222.72C-344.48,-220.13 -352.20,-219.79 -360.66,-221.68C-369.11,-223.57 -374.55,-226.88 -376.97,-231.58C-365.91,-257.38 -356.60,-282.57 -349.02,-307.16L-353.23,-343.92C-342.26,-352.39 -329.92,-355.00 -316.21,-351.76C-314.98,-346.32 -315.53,-338.42 -317.89,-328.05ZM-170.71,-246.91L-207.83,-213.55C-224.56,-215.38 -236.78,-220.70 -244.51,-229.51C-252.23,-238.33 -255.63,-249.26 -254.71,-262.32C-253.60,-282.51 -244.72,-300.96 -228.06,-317.69C-211.40,-334.42 -192.33,-342.27 -170.85,-341.24C-162.82,-335.65 -155.62,-326.31 -149.25,-313.22L-149.23,-313.46C-148.41,-325.07 -146.43,-333.60 -143.29,-339.05C-132.07,-339.55 -123.69,-338.88 -118.15,-337.03C-112.61,-335.18 -108.81,-331.59 -106.76,-326.26L-130.02,-289.49C-133.59,-268.84 -136.54,-241.90 -138.89,-208.68C-144.27,-205.98 -151.23,-205.58 -159.76,-207.48C-168.30,-209.38 -175.14,-212.94 -180.28,-218.17L-167.79,-243.54ZM-174.48,-320.83C-187.12,-316.22 -197.35,-308.47 -205.17,-297.60C-212.99,-286.73 -217.33,-275.16 -218.20,-262.90C-219.07,-250.65 -215.79,-241.99 -208.37,-236.93C-197.77,-244.77 -182.63,-256.01 -162.95,-270.67L-155.80,-296.18C-159.92,-306.68 -166.15,-314.90 -174.48,-320.83ZM-19.34,-331.75C-7.55,-328.81 1.13,-323.86 6.72,-316.90C12.31,-309.94 15.85,-301.06 17.36,-290.26C14.40,-285.12 9.67,-281.76 3.15,-280.20C-3.36,-278.63 -10.66,-279.03 -18.76,-281.38C-18.10,-288.47 -18.42,-294.32 -19.71,-298.95C-21.00,-303.58 -23.43,-308.29 -26.98,-313.08L-32.87,-312.28C-42.04,-306.29 -49.54,-298.87 -55.35,-290.05C-61.16,-281.22 -64.59,-272.22 -65.64,-263.06C-66.69,-253.90 -65.89,-245.78 -63.23,-238.70C-60.57,-231.63 -55.14,-225.29 -46.95,-219.68C-28.18,-223.87 -13.15,-230.18 -1.85,-238.62C7.36,-238.29 10.47,-232.96 7.47,-222.64C1.23,-216.92 -7.76,-211.81 -19.50,-207.29C-31.25,-202.77 -42.58,-200.09 -53.50,-199.24C-71.82,-203.77 -84.80,-211.62 -92.43,-222.78C-100.07,-233.93 -103.32,-245.95 -102.16,-258.84C-101.01,-271.72 -95.74,-283.83 -86.35,-295.16C-65.73,-316.23 -43.40,-328.42 -19.34,-331.75ZM140.27,-306.12L96.61,-307.51C94.80,-295.64 91.92,-278.95 87.97,-257.43C84.02,-235.91 81.33,-220.91 79.92,-212.42C92.82,-216.04 104.80,-221.52 115.85,-228.84C120.84,-228.32 124.02,-226.92 125.40,-224.64C126.78,-222.35 127.04,-218.65 126.19,-213.52C119.17,-208.18 110.68,-203.35 100.74,-199.03C90.79,-194.71 80.74,-191.86 70.59,-190.47C53.96,-193.59 44.19,-201.00 41.29,-212.72C54.48,-247.93 64.76,-278.72 72.13,-305.10L40.29,-301.76C35.10,-308.61 35.62,-315.95 41.85,-323.78L74.95,-320.95L75.55,-360.29C94.00,-369.20 107.38,-369.22 115.67,-360.37L101.14,-323.47L141.83,-328.13C147.14,-323.06 146.62,-315.72 140.27,-306.12ZM166.53,-268.29L168.33,-310.95C185.96,-317.32 198.81,-316.81 206.88,-309.44L193.62,-273.18C190.62,-256.05 186.30,-227.02 180.65,-186.09C174.30,-183.30 166.86,-182.93 158.33,-184.99C149.81,-187.06 143.86,-190.64 140.49,-195.74C151.07,-219.30 159.75,-243.48 166.53,-268.29ZM213.33,-345.69C213.11,-340.36 211.02,-335.93 207.04,-332.40C203.06,-328.87 198.37,-327.30 192.97,-327.68C187.57,-328.06 183.07,-330.28 179.46,-334.35C175.86,-338.41 174.17,-343.07 174.37,-348.32C174.58,-353.57 176.75,-357.92 180.89,-361.35C185.02,-364.79 189.79,-366.31 195.19,-365.93C200.59,-365.55 205.02,-363.41 208.47,-359.52C211.92,-355.63 213.54,-351.02 213.33,-345.69ZM298.03,-309.31C309.82,-306.37 318.50,-301.42 324.09,-294.47C329.67,-287.51 333.22,-278.63 334.72,-267.82C331.77,-262.68 327.03,-259.33 320.52,-257.77C314.01,-256.20 306.70,-256.59 298.60,-258.95C299.27,-266.03 298.95,-271.89 297.66,-276.52C296.36,-281.15 293.94,-285.86 290.39,-290.65L284.50,-289.85C275.32,-283.85 267.83,-276.44 262.02,-267.61C256.21,-258.79 252.78,-249.79 251.73,-240.63C250.67,-231.46 251.48,-223.34 254.14,-216.27C256.80,-209.19 262.22,-202.85 270.42,-197.25C289.19,-201.43 304.22,-207.74 315.52,-216.18C324.73,-215.86 327.84,-210.53 324.84,-200.21C318.60,-194.49 309.61,-189.37 297.86,-184.86C286.12,-180.34 274.79,-177.65 263.87,-176.80C245.55,-181.34 232.57,-189.19 224.93,-200.34C217.29,-211.50 214.05,-223.52 215.21,-236.40C216.36,-249.29 221.63,-261.39 231.02,-272.72C251.64,-293.79 273.97,-305.99 298.03,-309.31ZM430.18,-300.94C446.12,-297.22 456.66,-289.79 461.78,-278.65C466.91,-267.51 467.10,-254.66 462.34,-240.08C434.33,-229.10 407.74,-221.98 382.55,-218.74C383.88,-205.52 390.22,-195.34 401.54,-188.22C419.74,-191.15 435.05,-196.79 447.47,-205.15C456.53,-204.84 459.88,-199.50 457.52,-189.13C451.96,-183.85 442.79,-179.11 430.02,-174.91C417.24,-170.70 405.80,-168.23 395.70,-167.49C378.03,-171.98 365.25,-179.81 357.37,-190.98C349.49,-202.15 346.22,-214.99 347.57,-229.48C348.91,-241.54 353.94,-253.09 362.67,-264.15C384.32,-283.85 406.82,-296.11 430.18,-300.94ZM382.87,-233.55L382.82,-232.82C400.60,-236.75 417.16,-241.82 432.51,-248.03C435.55,-263.53 431.73,-274.82 421.05,-281.90L416.83,-280.74C407.70,-275.39 399.99,-268.23 393.68,-259.28C387.38,-250.32 383.77,-241.75 382.87,-233.55Z" fill="#ffffff" stroke="#000000"/>
    <path d="M-484.62,-410.47C-469.72,-413.40 -452.07,-413.90 -431.68,-411.98C-411.29,-410.06 -394.78,-403.23 -382.15,-391.52C-369.51,-379.80 -363.85,-367.01 -365.16,-353.15C-367.54,-329.59 -382.51,-312.28 -410.07,-301.22C-426.99,-297.35 -444.71,-295.25 -463.22,-294.91C-465.86,-280.53 -469.54,-261.99 -474.26,-239.30C-479.18,-236.55 -486.28,-236.21 -495.56,-238.29C-504.85,-240.38 -510.95,-243.80 -513.88,-248.58C-501.71,-278.77 -490.09,-314.16 -479.03,-354.74L-473.53,-392.55L-484.74,-393.85C-487.03,-396.79 -488.15,-399.91 -488.08,-403.20C-488.01,-406.49 -486.86,-408.91 -484.62,-410.47ZM-438.14,-392.10L-455.82,-337.60C-456.88,-331.43 -458.45,-322.50 -460.52,-310.80C-442.84,-312.51 -429.14,-315.47 -419.42,-319.70C-413.60,-323.49 -408.78,-328.50 -404.98,-334.73C-401.18,-340.96 -398.92,-348.26 -398.21,-356.63C-397.51,-365.00 -400.60,-372.65 -407.50,-379.56C-414.40,-386.48 -424.61,-390.66 -438.14,-392.10ZM-321.36,-319.12L-319.02,-315.77C-294.13,-337.69 -281.17,-349.08 -280.12,-349.95C-271.37,-347.35 -264.52,-342.41 -259.58,-335.11C-254.65,-327.81 -252.59,-318.98 -253.41,-308.61C-259.08,-304.65 -264.99,-302.51 -271.13,-302.21C-277.26,-301.91 -282.82,-303.43 -287.81,-306.80C-287.00,-313.63 -287.96,-318.86 -290.67,-322.50C-301.82,-313.26 -311.34,-305.24 -319.21,-298.43C-323.04,-276.61 -328.21,-252.43 -334.74,-225.89C-341.71,-223.49 -349.36,-223.33 -357.68,-225.40C-366.01,-227.47 -371.31,-230.87 -373.60,-235.58C-362.05,-260.85 -352.25,-285.56 -344.18,-309.71L-347.49,-346.18C-336.44,-354.30 -324.17,-356.59 -310.68,-353.07C-309.59,-347.66 -310.32,-339.86 -312.89,-329.66ZM-169.16,-245.94L-206.67,-213.80C-223.17,-216.00 -235.14,-221.55 -242.58,-230.45C-250.02,-239.35 -253.13,-250.25 -251.91,-263.15C-250.35,-283.09 -241.13,-301.15 -224.26,-317.31C-207.39,-333.48 -188.33,-340.80 -167.10,-339.28C-159.29,-333.56 -152.38,-324.15 -146.38,-311.05L-146.36,-311.29C-145.28,-322.76 -143.12,-331.15 -139.89,-336.47C-128.77,-336.71 -120.50,-335.85 -115.06,-333.89C-109.62,-331.93 -105.95,-328.29 -104.04,-322.96L-127.91,-287.13C-131.92,-266.77 -135.47,-240.19 -138.57,-207.38C-143.95,-204.83 -150.84,-204.60 -159.25,-206.68C-167.65,-208.75 -174.33,-212.44 -179.30,-217.73L-166.35,-242.54ZM-171.17,-319.17C-183.79,-314.90 -194.09,-307.48 -202.08,-296.90C-210.07,-286.32 -214.63,-274.98 -215.78,-262.88C-216.92,-250.77 -213.88,-242.13 -206.65,-236.94C-195.98,-244.45 -180.74,-255.23 -160.93,-269.27L-153.26,-294.34C-157.10,-304.83 -163.06,-313.11 -171.17,-319.17ZM-17.41,-326.36C-5.82,-323.18 2.66,-318.08 8.02,-311.06C13.39,-304.05 16.69,-295.18 17.92,-284.45C14.88,-279.44 10.12,-276.23 3.64,-274.83C-2.84,-273.44 -10.06,-274.00 -18.02,-276.52C-17.20,-283.51 -17.38,-289.31 -18.55,-293.92C-19.72,-298.53 -22.01,-303.25 -25.41,-308.07L-31.26,-307.42C-40.47,-301.70 -48.06,-294.54 -54.01,-285.94C-59.97,-277.34 -63.57,-268.52 -64.83,-259.48C-66.08,-250.44 -65.48,-242.38 -63.01,-235.32C-60.54,-228.26 -55.32,-221.86 -47.34,-216.12C-28.67,-219.83 -13.65,-225.72 -2.28,-233.81C6.83,-233.27 9.78,-227.93 6.57,-217.79C0.26,-212.27 -8.75,-207.42 -20.48,-203.22C-32.20,-199.03 -43.48,-196.63 -54.30,-196.05C-72.32,-200.96 -84.98,-209.03 -92.28,-220.24C-99.57,-231.46 -102.50,-243.43 -101.06,-256.15C-99.62,-268.87 -94.12,-280.72 -84.57,-291.72C-63.68,-312.08 -41.30,-323.63 -17.41,-326.36ZM139.91,-297.29L96.74,-299.68C94.68,-287.98 91.44,-271.53 87.02,-250.33C82.61,-229.13 79.61,-214.35 78.02,-205.98C90.86,-209.27 102.84,-214.41 113.94,-221.39C118.87,-220.77 121.98,-219.31 123.29,-217.02C124.61,-214.72 124.78,-211.05 123.82,-206.00C116.75,-200.88 108.24,-196.30 98.30,-192.26C88.35,-188.21 78.35,-185.62 68.27,-184.48C51.89,-187.96 42.40,-195.52 39.80,-207.18C53.67,-241.71 64.55,-271.94 72.47,-297.87L40.89,-295.30C35.91,-302.20 36.60,-309.45 42.94,-317.05L75.63,-313.48L77.13,-352.39C95.60,-360.77 108.83,-360.49 116.82,-351.54L101.60,-315.37L141.96,-319.03C147.10,-313.89 146.42,-306.64 139.91,-297.29ZM165.01,-259.24L167.78,-301.41C185.37,-307.30 198.07,-306.51 205.88,-299.02L191.92,-263.45C188.56,-246.57 183.61,-217.95 177.07,-177.59C170.71,-174.97 163.34,-174.79 154.96,-177.02C146.57,-179.26 140.77,-182.94 137.56,-188.07C148.57,-211.13 157.72,-234.86 165.01,-259.24ZM213.11,-334.74C212.78,-329.47 210.60,-325.13 206.58,-321.73C202.56,-318.34 197.89,-316.89 192.55,-317.39C187.22,-317.90 182.81,-320.20 179.34,-324.30C175.87,-328.41 174.30,-333.06 174.63,-338.25C174.96,-343.44 177.21,-347.69 181.38,-350.99C185.55,-354.29 190.30,-355.69 195.64,-355.19C200.97,-354.69 205.30,-352.47 208.63,-348.54C211.95,-344.61 213.45,-340.01 213.11,-334.74ZM296.07,-296.78C307.66,-293.59 316.14,-288.49 321.51,-281.48C326.87,-274.46 330.17,-265.59 331.41,-254.87C328.37,-249.85 323.60,-246.65 317.12,-245.25C310.64,-243.85 303.43,-244.41 295.47,-246.93C296.29,-253.93 296.11,-259.73 294.94,-264.34C293.77,-268.95 291.48,-273.66 288.08,-278.49L282.23,-277.83C273.01,-272.11 265.43,-264.95 259.47,-256.36C253.52,-247.76 249.91,-238.94 248.66,-229.89C247.40,-220.85 248.01,-212.80 250.48,-205.74C252.94,-198.67 258.17,-192.27 266.14,-186.54C284.81,-190.24 299.83,-196.14 311.20,-204.22C320.31,-203.69 323.27,-198.35 320.06,-188.20C313.75,-182.69 304.74,-177.84 293.01,-173.64C281.28,-169.44 270.01,-167.05 259.19,-166.46C241.17,-171.38 228.51,-179.44 221.21,-190.66C213.91,-201.88 210.98,-213.84 212.43,-226.56C213.87,-239.28 219.37,-251.14 228.92,-262.13C249.81,-282.50 272.19,-294.05 296.07,-296.78ZM426.62,-285.42C442.31,-281.37 452.56,-273.77 457.38,-262.63C462.19,-251.49 462.08,-238.76 457.03,-224.45C429.07,-214.24 402.59,-207.82 377.59,-205.19C378.60,-192.08 384.63,-181.87 395.67,-174.56C413.74,-177.03 429.02,-182.26 441.51,-190.24C450.46,-189.72 453.65,-184.35 451.08,-174.15C445.45,-169.06 436.27,-164.58 423.53,-160.72C410.79,-156.86 399.42,-154.68 389.41,-154.18C372.03,-159.03 359.57,-167.08 352.03,-178.31C344.49,-189.55 341.56,-202.32 343.23,-216.63C344.84,-228.53 350.08,-239.85 358.97,-250.58C380.85,-269.57 403.40,-281.18 426.62,-285.42ZM378.25,-219.83L378.18,-219.12C395.86,-222.59 412.37,-227.22 427.70,-233.01C431.07,-248.28 427.56,-259.54 417.15,-266.79L412.95,-265.74C403.80,-260.66 395.99,-253.76 389.55,-245.04C383.10,-236.33 379.33,-227.93 378.25,-219.83Z" fill="#ffffff" stroke="#000000"/>
    <path d="M-475.88,-415.20C-461.07,-417.75 -443.60,-417.84 -423.47,-415.46C-403.35,-413.08 -387.17,-405.95 -374.94,-394.06C-362.72,-382.18 -357.41,-369.39 -359.03,-355.71C-361.93,-332.46 -377.15,-315.68 -404.67,-305.38C-421.50,-301.95 -439.08,-300.28 -457.40,-300.37C-460.35,-286.21 -464.42,-267.96 -469.61,-245.62C-474.54,-243.01 -481.58,-242.84 -490.71,-245.12C-499.85,-247.40 -505.81,-250.93 -508.59,-255.72C-495.85,-285.31 -483.54,-320.04 -471.65,-359.93L-465.33,-397.21L-476.39,-398.76C-478.59,-401.73 -479.61,-404.84 -479.47,-408.09C-479.32,-411.34 -478.13,-413.71 -475.88,-415.20ZM-430.32,-395.94L-449.08,-342.44C-450.28,-336.36 -452.04,-327.56 -454.35,-316.04C-436.82,-317.31 -423.20,-319.93 -413.49,-323.88C-407.64,-327.50 -402.76,-332.34 -398.86,-338.42C-394.95,-344.49 -392.55,-351.66 -391.65,-359.93C-390.76,-368.19 -393.64,-375.83 -400.31,-382.83C-406.97,-389.84 -416.98,-394.21 -430.32,-395.94ZM-316.49,-321.03L-314.26,-317.66C-289.12,-338.76 -276.03,-349.73 -274.98,-350.56C-266.37,-347.79 -259.72,-342.74 -255.00,-335.41C-250.29,-328.08 -248.46,-319.29 -249.51,-309.05C-255.22,-305.26 -261.11,-303.29 -267.19,-303.13C-273.27,-302.97 -278.73,-304.61 -283.59,-308.06C-282.63,-314.80 -283.45,-320.00 -286.05,-323.65C-297.30,-314.78 -306.90,-307.06 -314.85,-300.51C-319.14,-279.01 -324.83,-255.21 -331.90,-229.10C-338.85,-226.90 -346.42,-226.91 -354.61,-229.16C-362.79,-231.40 -367.96,-234.88 -370.12,-239.60C-358.11,-264.33 -347.83,-288.54 -339.29,-312.25L-341.72,-348.41C-330.59,-356.18 -318.40,-358.17 -305.14,-354.37C-304.18,-348.99 -305.09,-341.29 -307.87,-331.25ZM-167.62,-245.09L-205.48,-214.17C-221.75,-216.73 -233.47,-222.50 -240.62,-231.47C-247.77,-240.45 -250.59,-251.30 -249.09,-264.04C-247.08,-283.73 -237.54,-301.38 -220.47,-316.98C-203.40,-332.58 -184.38,-339.38 -163.41,-337.38C-155.81,-331.54 -149.20,-322.07 -143.57,-308.97L-143.55,-309.21C-142.21,-320.53 -139.88,-328.78 -136.55,-333.97C-125.56,-333.94 -117.39,-332.90 -112.05,-330.83C-106.72,-328.77 -103.17,-325.08 -101.40,-319.77L-125.85,-284.87C-130.29,-264.83 -134.43,-238.61 -138.26,-206.22C-143.64,-203.83 -150.46,-203.76 -158.73,-206.01C-166.99,-208.26 -173.52,-212.06 -178.31,-217.41L-164.92,-241.66ZM-167.91,-317.58C-180.49,-313.65 -190.85,-306.54 -199.00,-296.27C-207.15,-285.99 -211.93,-274.88 -213.35,-262.93C-214.76,-250.98 -211.95,-242.35 -204.92,-237.06C-194.19,-244.24 -178.86,-254.55 -158.94,-267.98L-150.77,-292.60C-154.32,-303.06 -160.03,-311.39 -167.91,-317.58ZM-15.63,-321.11C-4.23,-317.70 4.04,-312.45 9.18,-305.39C14.32,-298.32 17.38,-289.47 18.36,-278.83C15.23,-273.94 10.44,-270.88 4.00,-269.65C-2.44,-268.42 -9.57,-269.14 -17.39,-271.82C-16.41,-278.72 -16.45,-284.46 -17.50,-289.05C-18.55,-293.64 -20.71,-298.36 -23.96,-303.21L-29.76,-302.70C-39.01,-297.25 -46.69,-290.35 -52.78,-281.98C-58.87,-273.61 -62.64,-264.97 -64.09,-256.05C-65.54,-247.14 -65.13,-239.16 -62.85,-232.11C-60.58,-225.07 -55.56,-218.61 -47.80,-212.75C-29.25,-215.98 -14.25,-221.46 -2.81,-229.20C6.19,-228.46 8.98,-223.10 5.57,-213.14C-0.79,-207.84 -9.82,-203.24 -21.52,-199.37C-33.22,-195.49 -44.43,-193.38 -55.15,-193.06C-72.86,-198.34 -85.20,-206.61 -92.16,-217.88C-99.12,-229.14 -101.74,-241.05 -100.01,-253.60C-98.29,-266.15 -92.58,-277.75 -82.87,-288.40C-61.73,-308.07 -39.32,-318.97 -15.63,-321.11ZM139.34,-288.69L96.69,-292.06C94.37,-280.54 90.78,-264.34 85.93,-243.47C81.07,-222.60 77.75,-208.04 75.98,-199.80C88.77,-202.76 100.74,-207.56 111.88,-214.21C116.74,-213.48 119.79,-211.96 121.03,-209.66C122.28,-207.37 122.36,-203.73 121.30,-198.75C114.18,-193.85 105.66,-189.52 95.73,-185.75C85.80,-181.98 75.83,-179.65 65.84,-178.76C49.71,-182.58 40.50,-190.28 38.20,-201.87C52.72,-235.71 64.20,-265.37 72.63,-290.84L41.33,-289.03C36.57,-295.97 37.41,-303.13 43.86,-310.50L76.12,-306.21L78.51,-344.67C96.98,-352.53 110.06,-351.94 117.76,-342.90L101.86,-307.47L141.88,-310.16C146.84,-304.95 145.99,-297.79 139.34,-288.69ZM163.28,-250.47L167.01,-292.12C184.55,-297.54 197.09,-296.46 204.65,-288.87L190.01,-254.01C186.29,-237.39 180.72,-209.19 173.31,-169.41C166.97,-166.97 159.67,-166.95 151.43,-169.36C143.18,-171.77 137.53,-175.55 134.47,-180.69C145.90,-203.26 155.51,-226.52 163.28,-250.47ZM212.63,-324.04C212.17,-318.83 209.92,-314.59 205.87,-311.32C201.81,-308.06 197.15,-306.73 191.89,-307.36C186.62,-307.98 182.32,-310.36 178.98,-314.50C175.64,-318.64 174.20,-323.28 174.64,-328.41C175.09,-333.54 177.41,-337.69 181.61,-340.86C185.82,-344.03 190.55,-345.30 195.82,-344.68C201.08,-344.06 205.32,-341.76 208.52,-337.80C211.71,-333.83 213.09,-329.25 212.63,-324.04ZM293.82,-284.55C305.21,-281.13 313.48,-275.89 318.63,-268.82C323.77,-261.76 326.83,-252.91 327.81,-242.27C324.68,-237.38 319.89,-234.32 313.45,-233.09C307.00,-231.85 299.88,-232.58 292.06,-235.25C293.04,-242.15 293.00,-247.90 291.94,-252.49C290.89,-257.07 288.74,-261.79 285.49,-266.64L279.69,-266.13C270.43,-260.69 262.76,-253.78 256.67,-245.41C250.58,-237.05 246.81,-228.40 245.36,-219.49C243.90,-210.57 244.32,-202.59 246.59,-195.55C248.87,-188.50 253.89,-182.05 261.64,-176.19C280.20,-179.42 295.20,-184.90 306.64,-192.64C315.64,-191.89 318.43,-186.54 315.02,-176.58C308.66,-171.27 299.62,-166.68 287.92,-162.80C276.23,-158.92 265.02,-156.82 254.30,-156.49C236.58,-161.77 224.25,-170.05 217.29,-181.31C210.33,-192.58 207.71,-204.48 209.43,-217.04C211.16,-229.59 216.87,-241.19 226.58,-251.84C247.72,-271.50 270.13,-282.41 293.82,-284.55ZM422.71,-270.28C438.14,-265.90 448.10,-258.15 452.61,-247.01C457.11,-235.88 456.70,-223.29 451.37,-209.25C423.47,-199.80 397.12,-194.06 372.33,-192.05C373.03,-179.05 378.75,-168.81 389.51,-161.32C407.45,-163.35 422.68,-168.16 435.22,-175.77C444.06,-175.04 447.09,-169.66 444.31,-159.63C438.63,-154.72 429.44,-150.50 416.75,-146.98C404.06,-143.46 392.75,-141.57 382.84,-141.30C365.76,-146.51 353.62,-154.76 346.42,-166.05C339.23,-177.35 336.62,-190.05 338.61,-204.16C340.47,-215.90 345.93,-226.98 354.97,-237.39C377.06,-255.66 399.64,-266.63 422.71,-270.28ZM373.33,-206.52L373.24,-205.81C390.82,-208.84 407.26,-213.03 422.56,-218.40C426.25,-233.43 423.03,-244.65 412.91,-252.06L408.73,-251.12C399.55,-246.31 391.67,-239.67 385.09,-231.20C378.51,-222.73 374.59,-214.50 373.33,-206.52Z" fill="#ffffff" stroke="#000000"/>
    <path d="M-467.06,-419.79C-452.35,-421.97 -435.07,-421.65 -415.21,-418.83C-395.36,-416.01 -379.52,-408.58 -367.70,-396.54C-355.88,-384.49 -350.93,-371.72 -352.85,-358.23C-356.27,-335.29 -371.71,-319.05 -399.18,-309.50C-415.90,-306.50 -433.33,-305.26 -451.45,-305.78C-454.70,-291.84 -459.15,-273.88 -464.80,-251.89C-469.74,-249.43 -476.70,-249.43 -485.69,-251.89C-494.68,-254.36 -500.49,-257.99 -503.13,-262.80C-489.84,-291.77 -476.85,-325.84 -464.16,-365.02L-457.04,-401.75L-467.94,-403.54C-470.05,-406.53 -470.99,-409.63 -470.77,-412.84C-470.56,-416.05 -469.32,-418.37 -467.06,-419.79ZM-422.44,-399.68L-442.24,-347.19C-443.57,-341.21 -445.51,-332.54 -448.07,-321.20C-430.70,-322.05 -417.17,-324.32 -407.47,-328.01C-401.60,-331.45 -396.66,-336.13 -392.65,-342.05C-388.65,-347.96 -386.11,-355.00 -385.03,-363.16C-383.95,-371.31 -386.62,-378.93 -393.05,-386.01C-399.48,-393.10 -409.28,-397.66 -422.44,-399.68ZM-311.58,-322.93L-309.45,-319.54C-284.10,-339.83 -270.89,-350.38 -269.83,-351.18C-261.38,-348.24 -254.92,-343.09 -250.42,-335.72C-245.93,-328.36 -244.32,-319.63 -245.60,-309.52C-251.34,-305.91 -257.21,-304.09 -263.23,-304.07C-269.24,-304.06 -274.61,-305.81 -279.33,-309.33C-278.23,-315.98 -278.92,-321.14 -281.41,-324.82C-292.74,-316.30 -302.42,-308.89 -310.44,-302.59C-315.18,-281.43 -321.36,-258.02 -328.96,-232.36C-335.89,-230.33 -343.38,-230.53 -351.43,-232.94C-359.47,-235.35 -364.50,-238.91 -366.52,-243.63C-354.07,-267.81 -343.34,-291.52 -334.34,-314.77L-335.90,-350.60C-324.71,-358.03 -312.61,-359.71 -299.58,-355.64C-298.75,-350.30 -299.83,-342.70 -302.82,-332.84ZM-166.09,-244.34L-204.25,-214.64C-220.30,-217.55 -231.75,-223.53 -238.61,-232.57C-245.48,-241.62 -248.02,-252.42 -246.23,-264.99C-243.79,-284.42 -233.94,-301.65 -216.69,-316.69C-199.45,-331.72 -180.47,-338.01 -159.78,-335.54C-152.40,-329.59 -146.07,-320.07 -140.81,-306.98L-140.78,-307.21C-139.19,-318.38 -136.70,-326.49 -133.29,-331.54C-122.41,-331.26 -114.35,-330.04 -109.12,-327.87C-103.89,-325.70 -100.47,-321.97 -98.85,-316.68L-123.85,-282.73C-128.70,-263.01 -133.40,-237.17 -137.94,-205.22C-143.33,-202.97 -150.08,-203.06 -158.20,-205.48C-166.32,-207.90 -172.69,-211.81 -177.30,-217.22L-163.49,-240.89ZM-164.68,-316.06C-177.22,-312.46 -187.64,-305.68 -195.94,-295.70C-204.24,-285.72 -209.23,-274.84 -210.90,-263.05C-212.58,-251.27 -210.00,-242.67 -203.17,-237.27C-192.39,-244.12 -176.99,-253.96 -156.97,-266.78L-148.31,-290.95C-151.58,-301.38 -157.03,-309.75 -164.68,-316.06ZM-13.97,-316.01C-2.77,-312.36 5.28,-306.99 10.21,-299.88C15.13,-292.77 17.95,-283.94 18.67,-273.40C15.46,-268.63 10.65,-265.71 4.25,-264.65C-2.15,-263.58 -9.19,-264.46 -16.85,-267.29C-15.73,-274.09 -15.63,-279.77 -16.57,-284.34C-17.50,-288.90 -19.52,-293.62 -22.63,-298.49L-28.38,-298.12C-37.66,-292.95 -45.40,-286.30 -51.62,-278.16C-57.84,-270.03 -61.78,-261.57 -63.42,-252.78C-65.06,-243.99 -64.84,-236.09 -62.75,-229.07C-60.67,-222.05 -55.85,-215.55 -48.32,-209.57C-29.88,-212.33 -14.92,-217.41 -3.43,-224.79C5.46,-223.85 8.10,-218.49 4.49,-208.71C-1.93,-203.61 -10.97,-199.28 -22.63,-195.71C-34.29,-192.15 -45.43,-190.33 -56.04,-190.26C-73.44,-195.89 -85.45,-204.36 -92.07,-215.67C-98.69,-226.97 -101.01,-238.82 -99.01,-251.19C-97.02,-263.57 -91.09,-274.91 -81.24,-285.22C-59.87,-304.18 -37.45,-314.44 -13.97,-316.01ZM138.57,-280.33L96.46,-284.66C93.90,-273.31 89.97,-257.37 84.68,-236.84C79.39,-216.31 75.78,-201.99 73.83,-193.88C86.55,-196.50 98.50,-200.97 109.68,-207.30C114.47,-206.46 117.45,-204.89 118.62,-202.58C119.80,-200.28 119.80,-196.68 118.63,-191.78C111.48,-187.10 102.95,-183.01 93.04,-179.52C83.12,-176.02 73.22,-173.95 63.31,-173.30C47.45,-177.45 38.51,-185.29 36.51,-196.81C51.66,-229.94 63.70,-259.01 72.63,-284.01L41.63,-282.95C37.08,-289.93 38.08,-296.99 44.64,-304.13L76.44,-299.13L79.71,-337.12C98.16,-344.47 111.08,-343.58 118.49,-334.46L101.93,-299.78L141.58,-301.51C146.37,-296.24 145.37,-289.18 138.57,-280.33ZM161.37,-241.97L166.02,-283.08C183.50,-288.03 195.89,-286.67 203.18,-278.99L187.89,-244.84C183.82,-228.49 177.66,-200.72 169.40,-161.55C163.07,-159.28 155.85,-159.44 147.75,-162.01C139.65,-164.59 134.15,-168.45 131.24,-173.61C143.08,-195.67 153.12,-218.45 161.37,-241.97ZM211.89,-313.59C211.32,-308.45 208.99,-304.31 204.91,-301.17C200.82,-298.03 196.18,-296.83 190.99,-297.57C185.79,-298.31 181.59,-300.77 178.38,-304.94C175.18,-309.12 173.86,-313.73 174.42,-318.80C174.98,-323.86 177.38,-327.91 181.61,-330.95C185.83,-333.99 190.55,-335.14 195.74,-334.40C200.94,-333.66 205.07,-331.29 208.15,-327.30C211.22,-323.30 212.47,-318.73 211.89,-313.59ZM291.29,-272.64C302.48,-268.99 310.54,-263.62 315.46,-256.51C320.39,-249.40 323.21,-240.57 323.92,-230.03C320.71,-225.26 315.91,-222.34 309.51,-221.27C303.10,-220.21 296.07,-221.09 288.40,-223.92C289.53,-230.72 289.62,-236.40 288.69,-240.97C287.75,-245.53 285.73,-250.25 282.63,-255.12L276.88,-254.75C267.60,-249.58 259.85,-242.93 253.63,-234.79C247.41,-226.66 243.48,-218.19 241.83,-209.41C240.19,-200.62 240.41,-192.72 242.50,-185.70C244.59,-178.67 249.40,-172.18 256.94,-166.20C275.37,-168.96 290.33,-174.03 301.83,-181.42C310.71,-180.48 313.35,-175.12 309.75,-165.34C303.33,-160.24 294.29,-155.91 282.62,-152.34C270.96,-148.78 259.82,-146.96 249.21,-146.88C231.81,-152.52 219.80,-160.99 213.18,-172.30C206.56,-183.60 204.25,-195.44 206.24,-207.82C208.24,-220.20 214.16,-231.54 224.01,-241.85C245.38,-260.81 267.80,-271.07 291.29,-272.64ZM418.46,-255.52C433.61,-250.84 443.29,-242.93 447.49,-231.81C451.68,-220.70 450.98,-208.25 445.39,-194.49C417.57,-185.79 391.37,-180.72 366.80,-179.31C367.19,-166.44 372.61,-156.17 383.08,-148.51C400.87,-150.10 416.05,-154.51 428.63,-161.74C437.36,-160.82 440.23,-155.43 437.25,-145.56C431.51,-140.84 422.33,-136.88 409.69,-133.70C397.05,-130.51 385.83,-128.90 376.01,-128.87C359.24,-134.42 347.42,-142.86 340.56,-154.20C333.71,-165.54 331.43,-178.16 333.72,-192.08C335.84,-203.65 341.49,-214.47 350.68,-224.56C372.96,-242.13 395.55,-252.45 418.46,-255.52ZM368.12,-193.60L368.02,-192.90C385.48,-195.49 401.84,-199.26 417.10,-204.21C421.10,-218.99 418.18,-230.16 408.33,-237.73L404.18,-236.90C394.99,-232.35 387.04,-225.96 380.33,-217.74C373.62,-209.51 369.55,-201.47 368.12,-193.60Z" fill="#ffffff" stroke="#000000"/>
    <path d="M-458.15,-424.24C-443.55,-426.06 -426.47,-425.34 -406.90,-422.09C-387.32,-418.83 -371.83,-411.11 -360.43,-398.93C-349.02,-386.74 -344.42,-373.99 -346.63,-360.69C-350.54,-338.09 -366.19,-322.38 -393.58,-313.58C-410.19,-311.00 -427.46,-310.17 -445.37,-311.11C-448.91,-297.40 -453.73,-279.73 -459.83,-258.12C-464.77,-255.80 -471.66,-255.96 -480.49,-258.61C-489.32,-261.26 -494.99,-264.99 -497.49,-269.80C-483.66,-298.14 -470.02,-331.54 -456.56,-370.00L-448.67,-406.17L-459.41,-408.19C-461.42,-411.19 -462.28,-414.28 -461.99,-417.45C-461.70,-420.63 -460.42,-422.89 -458.15,-424.24ZM-414.49,-403.32L-435.30,-351.86C-436.75,-345.97 -438.87,-337.45 -441.67,-326.28C-424.47,-326.72 -411.03,-328.66 -401.35,-332.07C-395.46,-335.34 -390.47,-339.85 -386.37,-345.61C-382.27,-351.37 -379.59,-358.27 -378.34,-366.31C-377.08,-374.35 -379.55,-381.95 -385.74,-389.11C-391.94,-396.27 -401.52,-401.00 -414.49,-403.32ZM-306.63,-324.82L-304.60,-321.42C-279.05,-340.90 -265.74,-351.02 -264.67,-351.79C-256.39,-348.68 -250.11,-343.44 -245.84,-336.05C-241.57,-328.66 -240.18,-319.99 -241.68,-310.02C-247.44,-306.58 -253.29,-304.92 -259.24,-305.04C-265.19,-305.17 -270.46,-307.03 -275.05,-310.62C-273.80,-317.17 -274.37,-322.29 -276.74,-325.98C-288.15,-317.82 -297.89,-310.72 -305.97,-304.68C-311.16,-283.86 -317.81,-260.84 -325.93,-235.64C-332.83,-233.80 -340.23,-234.17 -348.13,-236.73C-356.03,-239.30 -360.93,-242.95 -362.82,-247.66C-349.93,-271.29 -338.77,-294.49 -329.33,-317.28L-330.03,-352.75C-318.80,-359.84 -306.79,-361.22 -293.99,-356.90C-293.30,-351.60 -294.55,-344.10 -297.73,-334.42ZM-164.55,-243.70L-202.99,-215.21C-218.79,-218.46 -229.98,-224.64 -236.56,-233.75C-243.14,-242.86 -245.40,-253.60 -243.34,-265.99C-240.47,-285.15 -230.33,-301.97 -212.92,-316.44C-195.51,-330.91 -176.60,-336.68 -156.19,-333.76C-149.02,-327.70 -142.99,-318.13 -138.09,-305.06L-138.06,-305.29C-136.23,-316.30 -133.57,-324.27 -130.08,-329.19C-119.33,-328.66 -111.39,-327.26 -106.26,-324.99C-101.14,-322.73 -97.84,-318.96 -96.36,-313.69L-121.88,-280.69C-127.14,-261.29 -132.39,-235.85 -137.63,-204.35C-143.00,-202.26 -149.68,-202.50 -157.65,-205.08C-165.63,-207.67 -171.84,-211.68 -176.27,-217.13L-162.07,-240.23ZM-161.49,-314.61C-173.98,-311.34 -184.44,-304.87 -192.88,-295.20C-201.32,-285.52 -206.51,-274.87 -208.44,-263.25C-210.37,-251.63 -208.02,-243.07 -201.40,-237.57C-190.57,-244.10 -175.11,-253.47 -155.01,-265.69L-145.88,-289.39C-148.87,-299.78 -154.07,-308.19 -161.49,-314.61ZM-12.42,-311.05C-1.44,-307.18 6.41,-301.68 11.11,-294.53C15.82,-287.39 18.40,-278.59 18.87,-268.14C15.58,-263.50 10.76,-260.73 4.40,-259.82C-1.95,-258.91 -8.89,-259.95 -16.41,-262.93C-15.14,-269.63 -14.91,-275.25 -15.73,-279.78C-16.55,-284.32 -18.44,-289.03 -21.40,-293.92L-27.09,-293.69C-36.39,-288.79 -44.21,-282.39 -50.55,-274.49C-56.89,-266.59 -60.98,-258.31 -62.81,-249.66C-64.64,-241.01 -64.60,-233.18 -62.70,-226.19C-60.80,-219.20 -56.19,-212.66 -48.87,-206.57C-30.58,-208.87 -15.66,-213.54 -4.12,-220.58C4.65,-219.44 7.13,-214.08 3.34,-204.49C-3.13,-199.60 -12.17,-195.52 -23.79,-192.27C-35.41,-189.01 -46.47,-187.47 -56.97,-187.65C-74.04,-193.63 -85.72,-202.28 -92.01,-213.62C-98.30,-224.96 -100.31,-236.72 -98.05,-248.92C-95.79,-261.11 -89.66,-272.19 -79.68,-282.16C-58.11,-300.42 -35.69,-310.05 -12.42,-311.05ZM137.62,-272.21L96.07,-277.47C93.27,-266.31 89.02,-250.63 83.31,-230.45C77.60,-210.26 73.69,-196.18 71.58,-188.21C84.21,-190.51 96.14,-194.65 107.35,-200.65C112.06,-199.70 114.97,-198.08 116.08,-195.78C117.19,-193.47 117.11,-189.91 115.84,-185.09C108.66,-180.63 100.12,-176.78 90.24,-173.56C80.35,-170.33 70.50,-168.51 60.69,-168.10C45.10,-172.57 36.44,-180.53 34.73,-191.97C50.48,-224.39 63.07,-252.86 72.49,-277.38L41.80,-277.06C37.46,-284.06 38.62,-291.02 45.26,-297.93L76.61,-292.25L80.72,-329.75C99.14,-336.59 111.91,-335.41 119.02,-326.21L101.84,-292.30L141.09,-293.08C145.70,-287.76 144.55,-280.80 137.62,-272.21ZM159.27,-233.73L164.84,-274.29C182.24,-278.78 194.46,-277.15 201.49,-269.38L185.57,-235.96C181.17,-219.88 174.43,-192.56 165.35,-154.00C159.03,-151.91 151.90,-152.23 143.95,-154.97C136.00,-157.70 130.64,-161.66 127.89,-166.83C140.11,-188.37 150.57,-210.67 159.27,-233.73ZM210.92,-303.40C210.23,-298.33 207.83,-294.29 203.72,-291.28C199.61,-288.27 194.99,-287.19 189.86,-288.04C184.74,-288.90 180.65,-291.42 177.57,-295.63C174.50,-299.83 173.30,-304.43 173.97,-309.42C174.65,-314.42 177.11,-318.37 181.36,-321.27C185.62,-324.18 190.31,-325.21 195.43,-324.36C200.55,-323.51 204.58,-321.07 207.53,-317.04C210.47,-313.02 211.60,-308.47 210.92,-303.40ZM288.49,-261.05C299.48,-257.18 307.32,-251.67 312.03,-244.53C316.73,-237.38 319.32,-228.59 319.78,-218.14C316.50,-213.50 311.67,-210.73 305.32,-209.82C298.96,-208.91 292.02,-209.95 284.50,-212.92C285.77,-219.63 286.00,-225.25 285.18,-229.78C284.37,-234.32 282.48,-239.03 279.52,-243.92L273.82,-243.69C264.53,-238.79 256.71,-232.39 250.36,-224.49C244.02,-216.59 239.94,-208.31 238.11,-199.66C236.28,-191.01 236.31,-183.18 238.21,-176.19C240.12,-169.20 244.72,-162.66 252.04,-156.57C270.34,-158.87 285.25,-163.54 296.79,-170.58C305.56,-169.44 308.05,-164.08 304.25,-154.49C297.78,-149.60 288.74,-145.52 277.12,-142.27C265.50,-139.01 254.45,-137.47 243.95,-137.64C226.87,-143.62 215.19,-152.28 208.90,-163.62C202.62,-174.96 200.60,-186.72 202.87,-198.91C205.13,-211.11 211.25,-222.19 221.23,-232.16C242.81,-250.41 265.23,-260.04 288.49,-261.05ZM413.87,-241.16C428.76,-236.17 438.14,-228.13 442.04,-217.03C445.93,-205.94 444.95,-193.65 439.09,-180.17C411.37,-172.20 385.34,-167.81 361.01,-166.98C361.09,-154.24 366.22,-143.96 376.39,-136.14C394.02,-137.30 409.14,-141.31 421.75,-148.17C430.37,-147.05 433.08,-141.65 429.90,-131.96C424.12,-127.43 414.94,-123.73 402.37,-120.87C389.80,-118.01 378.65,-116.67 368.95,-116.87C352.48,-122.75 340.99,-131.38 334.48,-142.75C327.96,-154.13 326.00,-166.67 328.59,-180.38C330.95,-191.77 336.80,-202.35 346.12,-212.11C368.56,-228.97 391.14,-238.65 413.87,-241.16ZM362.65,-181.09L362.53,-180.40C379.86,-182.55 396.13,-185.89 411.34,-190.44C415.64,-204.96 413.01,-216.08 403.45,-223.80L399.32,-223.07C390.12,-218.79 382.11,-212.65 375.29,-204.67C368.46,-196.70 364.25,-188.83 362.65,-181.09Z" fill="#ffffff" stroke="#000000"/>
    <path d="M-449.17,-428.54C-434.69,-430.00 -417.81,-428.89 -398.53,-425.22C-379.25,-421.55 -364.11,-413.55 -353.11,-401.24C-342.11,-388.92 -337.86,-376.21 -340.35,-363.10C-344.75,-340.84 -360.59,-325.67 -387.88,-317.60C-404.37,-315.43 -421.46,-315.02 -439.16,-316.36C-442.98,-302.88 -448.15,-285.53 -454.69,-264.30C-459.64,-262.12 -466.44,-262.44 -475.11,-265.26C-483.79,-268.08 -489.30,-271.90 -491.66,-276.72C-477.33,-304.43 -463.06,-337.15 -448.86,-374.87L-440.21,-410.45L-450.78,-412.70C-452.71,-415.72 -453.49,-418.79 -453.12,-421.92C-452.76,-425.05 -451.44,-427.26 -449.17,-428.54ZM-406.48,-406.83L-428.25,-356.43C-429.82,-350.64 -432.12,-342.26 -435.15,-331.28C-418.13,-331.32 -404.79,-332.92 -395.13,-336.07C-389.24,-339.16 -384.20,-343.51 -380.01,-349.11C-375.82,-354.72 -373.01,-361.48 -371.58,-369.40C-370.15,-377.32 -372.41,-384.89 -378.37,-392.12C-384.34,-399.34 -393.70,-404.25 -406.48,-406.83ZM-301.63,-326.69L-299.70,-323.28C-273.98,-341.96 -260.58,-351.66 -259.51,-352.39C-251.39,-349.13 -245.30,-343.79 -241.25,-336.39C-237.20,-328.98 -236.03,-320.37 -237.74,-310.55C-243.52,-307.28 -249.34,-305.77 -255.22,-306.03C-261.11,-306.30 -266.27,-308.26 -270.73,-311.91C-269.34,-318.36 -269.78,-323.44 -272.04,-327.15C-283.52,-319.34 -293.32,-312.55 -301.44,-306.76C-307.06,-286.29 -314.17,-263.68 -322.79,-238.94C-329.66,-237.29 -336.97,-237.82 -344.73,-240.55C-352.48,-243.27 -357.24,-246.99 -358.99,-251.69C-345.70,-274.76 -334.12,-297.45 -324.25,-319.77L-324.13,-354.86C-312.85,-361.61 -300.94,-362.70 -288.39,-358.12C-287.83,-352.86 -289.23,-345.48 -292.60,-335.98ZM-163.01,-243.17L-201.68,-215.88C-217.23,-219.47 -228.16,-225.84 -234.45,-235.00C-240.75,-244.16 -242.73,-254.84 -240.41,-267.04C-237.12,-285.92 -226.70,-302.32 -209.15,-316.22C-191.60,-330.13 -172.76,-335.40 -152.64,-332.04C-145.70,-325.88 -139.95,-316.28 -135.41,-303.24L-135.37,-303.46C-133.30,-314.31 -130.49,-322.12 -126.92,-326.91C-116.30,-326.13 -108.48,-324.56 -103.47,-322.21C-98.46,-319.85 -95.28,-316.04 -93.94,-310.79L-119.94,-278.75C-125.60,-259.69 -131.38,-234.65 -137.29,-203.62C-142.66,-201.67 -149.25,-202.07 -157.08,-204.81C-164.91,-207.55 -170.96,-211.67 -175.22,-217.16L-160.63,-239.67ZM-158.33,-313.22C-170.75,-310.28 -181.25,-304.12 -189.83,-294.75C-198.40,-285.38 -203.78,-274.97 -205.96,-263.52C-208.14,-252.07 -206.01,-243.55 -199.59,-237.96C-188.73,-244.16 -173.22,-253.07 -153.06,-264.69L-143.48,-287.91C-146.19,-298.26 -151.14,-306.70 -158.33,-313.22ZM-10.99,-306.23C-0.21,-302.15 7.42,-296.52 11.90,-289.35C16.39,-282.17 18.74,-273.41 18.96,-263.07C15.60,-258.56 10.77,-255.93 4.46,-255.18C-1.85,-254.43 -8.68,-255.61 -16.05,-258.73C-14.64,-265.33 -14.28,-270.88 -14.99,-275.39C-15.69,-279.89 -17.45,-284.59 -20.26,-289.50L-25.90,-289.40C-35.21,-284.78 -43.09,-278.63 -49.54,-270.96C-56.00,-263.29 -60.23,-255.20 -62.24,-246.69C-64.26,-238.18 -64.40,-230.44 -62.68,-223.48C-60.97,-216.52 -56.56,-209.94 -49.47,-203.75C-31.32,-205.60 -16.46,-209.87 -4.88,-216.57C3.76,-215.23 6.10,-209.87 2.12,-200.48C-4.39,-195.79 -13.43,-191.97 -24.99,-189.02C-36.56,-186.07 -47.53,-184.81 -57.91,-185.22C-74.66,-191.54 -86.01,-200.37 -91.96,-211.73C-97.92,-223.08 -99.63,-234.77 -97.11,-246.77C-94.59,-258.78 -88.28,-269.60 -78.17,-279.22C-56.41,-296.78 -34.02,-305.78 -10.99,-306.23ZM136.50,-264.33L95.53,-270.49C92.50,-259.52 87.93,-244.12 81.81,-224.29C75.70,-204.46 71.50,-190.63 69.23,-182.79C81.78,-184.77 93.67,-188.59 104.89,-194.26C109.53,-193.22 112.38,-191.54 113.42,-189.24C114.46,-186.93 114.30,-183.41 112.93,-178.68C105.72,-174.43 97.19,-170.83 87.34,-167.86C77.49,-164.90 67.71,-163.33 58.00,-163.15C42.67,-167.94 34.30,-176.01 32.87,-187.37C49.21,-219.06 62.32,-246.93 72.20,-270.96L41.84,-271.35C37.72,-278.38 39.02,-285.24 45.76,-291.91L76.63,-285.57L81.56,-322.56C99.94,-328.89 112.54,-327.43 119.36,-318.17L101.58,-285.03L140.42,-284.89C144.86,-279.52 143.55,-272.67 136.50,-264.33ZM157.02,-225.77L163.46,-265.75C180.78,-269.79 192.82,-267.89 199.60,-260.04L183.08,-227.36C178.35,-211.56 171.05,-184.70 161.17,-146.78C154.88,-144.86 147.83,-145.34 140.03,-148.23C132.23,-151.12 127.03,-155.16 124.42,-160.33C137.01,-181.35 147.87,-203.16 157.02,-225.77ZM209.71,-293.47C208.92,-288.47 206.45,-284.53 202.31,-281.65C198.17,-278.77 193.58,-277.81 188.53,-278.77C183.49,-279.73 179.50,-282.33 176.55,-286.56C173.61,-290.78 172.53,-295.36 173.32,-300.28C174.10,-305.21 176.63,-309.06 180.90,-311.83C185.17,-314.61 189.84,-315.52 194.88,-314.56C199.93,-313.59 203.86,-311.09 206.68,-307.04C209.50,-302.99 210.51,-298.47 209.71,-293.47ZM285.45,-249.78C296.22,-245.70 303.85,-240.07 308.34,-232.89C312.82,-225.72 315.18,-216.96 315.39,-206.62C312.03,-202.10 307.20,-199.47 300.89,-198.72C294.59,-197.97 287.75,-199.16 280.38,-202.28C281.79,-208.88 282.15,-214.43 281.45,-218.93C280.74,-223.44 278.99,-228.14 276.17,-233.05L270.54,-232.95C261.23,-228.33 253.34,-222.18 246.89,-214.51C240.43,-206.84 236.20,-198.75 234.19,-190.24C232.18,-181.72 232.03,-173.99 233.75,-167.03C235.47,-160.06 239.87,-153.49 246.97,-147.30C265.11,-149.15 279.97,-153.42 291.55,-160.11C300.19,-158.78 302.53,-153.42 298.56,-144.03C292.04,-139.34 283.00,-135.52 271.44,-132.57C259.87,-129.62 248.90,-128.36 238.52,-128.77C221.77,-135.08 210.42,-143.92 204.47,-155.28C198.51,-166.63 196.80,-178.32 199.32,-190.32C201.84,-202.33 208.15,-213.15 218.26,-222.77C240.02,-240.32 262.42,-249.33 285.45,-249.78ZM408.98,-227.19C423.59,-221.91 432.68,-213.74 436.27,-202.68C439.86,-191.61 438.61,-179.48 432.50,-166.29C404.90,-159.05 379.06,-155.31 354.97,-155.06C354.76,-142.46 359.59,-132.17 369.47,-124.20C386.93,-124.94 401.98,-128.55 414.61,-135.04C423.10,-133.74 425.67,-128.33 422.29,-118.83C416.47,-114.47 407.31,-111.03 394.81,-108.49C382.30,-105.96 371.25,-104.90 361.66,-105.32C345.51,-111.52 334.35,-120.32 328.17,-131.72C321.99,-143.12 320.34,-155.57 323.22,-169.07C325.83,-180.28 331.85,-190.60 341.30,-200.04C363.88,-216.19 386.45,-225.24 408.98,-227.19ZM356.92,-168.97L356.79,-168.29C373.98,-170.02 390.15,-172.95 405.29,-177.09C409.88,-191.35 407.54,-202.41 398.27,-210.27L394.17,-209.64C384.97,-205.62 376.91,-199.74 369.97,-192.01C363.04,-184.28 358.69,-176.60 356.92,-168.97Z" fill="#ffffff" stroke="#000000"/>
    <path d="M-440.11,-432.70C-425.75,-433.80 -409.09,-432.31 -390.11,-428.23C-371.13,-424.15 -356.34,-415.90 -345.75,-403.46C-335.16,-391.02 -331.25,-378.35 -334.02,-365.45C-338.89,-343.54 -354.91,-328.91 -382.08,-321.56C-398.44,-319.80 -415.35,-319.79 -432.82,-321.53C-436.90,-308.29 -442.43,-291.25 -449.39,-270.41C-454.33,-268.37 -461.05,-268.84 -469.56,-271.84C-478.07,-274.83 -483.44,-278.74 -485.66,-283.56C-470.84,-310.62 -455.97,-342.64 -441.04,-379.61L-431.66,-414.59L-442.07,-417.06C-443.90,-420.09 -444.60,-423.15 -444.17,-426.24C-443.74,-429.33 -442.38,-431.48 -440.11,-432.70ZM-398.39,-410.24L-421.10,-360.90C-422.79,-355.21 -425.25,-346.98 -428.50,-336.19C-411.67,-335.83 -398.44,-337.10 -388.82,-340.00C-382.92,-342.92 -377.84,-347.10 -373.56,-352.54C-369.29,-357.98 -366.36,-364.61 -364.76,-372.41C-363.16,-380.21 -365.22,-387.75 -370.95,-395.03C-376.67,-402.31 -385.82,-407.38 -398.39,-410.24ZM-296.58,-328.55L-294.75,-325.13C-268.89,-343.00 -255.41,-352.28 -254.33,-352.98C-246.38,-349.56 -240.48,-344.15 -236.65,-336.73C-232.81,-329.31 -231.86,-320.77 -233.78,-311.10C-239.56,-308.00 -245.36,-306.64 -251.17,-307.04C-256.98,-307.44 -262.05,-309.49 -266.37,-313.21C-264.85,-319.56 -265.16,-324.59 -267.31,-328.31C-278.84,-320.86 -288.69,-314.37 -296.86,-308.83C-302.89,-288.72 -310.45,-266.53 -319.54,-242.27C-326.38,-240.79 -333.60,-241.49 -341.20,-244.36C-348.80,-247.24 -353.42,-251.02 -355.05,-255.72C-341.37,-278.22 -329.39,-300.39 -319.11,-322.22L-318.17,-356.93C-306.86,-363.34 -295.06,-364.14 -282.75,-359.32C-282.32,-354.11 -283.88,-346.84 -287.44,-337.52ZM-161.45,-242.73L-200.33,-216.65C-215.62,-220.55 -226.27,-227.11 -232.28,-236.31C-238.29,-245.52 -240.01,-256.12 -237.43,-268.13C-233.74,-286.73 -223.06,-302.70 -205.37,-316.04C-187.69,-329.39 -168.94,-334.16 -149.12,-330.37C-142.40,-324.11 -136.95,-314.49 -132.76,-301.49L-132.71,-301.71C-130.42,-312.38 -127.45,-320.05 -123.82,-324.69C-113.33,-323.68 -105.64,-321.95 -100.73,-319.50C-95.83,-317.05 -92.78,-313.21 -91.57,-307.99L-118.03,-276.91C-124.07,-258.20 -130.37,-233.57 -136.94,-203.02C-142.29,-201.22 -148.80,-201.77 -156.48,-204.66C-164.16,-207.55 -170.04,-211.77 -174.12,-217.30L-159.18,-239.22ZM-155.19,-311.89C-167.54,-309.27 -178.07,-303.43 -186.76,-294.36C-195.46,-285.29 -201.02,-275.12 -203.44,-263.86C-205.87,-252.59 -203.96,-244.11 -197.74,-238.43C-186.86,-244.31 -171.31,-252.76 -151.10,-263.78L-141.10,-286.52C-143.54,-296.82 -148.23,-305.28 -155.19,-311.89ZM-9.65,-301.55C0.91,-297.27 8.32,-291.52 12.59,-284.32C16.86,-277.12 18.98,-268.41 18.96,-258.17C15.53,-253.79 10.69,-251.30 4.44,-250.71C-1.82,-250.11 -8.55,-251.44 -15.76,-254.70C-14.21,-261.19 -13.73,-266.67 -14.32,-271.14C-14.92,-275.61 -16.54,-280.31 -19.21,-285.22L-24.79,-285.26C-34.10,-280.90 -42.04,-275.01 -48.60,-267.57C-55.16,-260.14 -59.54,-252.24 -61.72,-243.87C-63.91,-235.49 -64.24,-227.85 -62.70,-220.92C-61.16,-214.00 -56.96,-207.40 -50.09,-201.11C-32.10,-202.52 -17.30,-206.40 -5.70,-212.75C2.81,-211.23 5.00,-205.87 0.85,-196.68C-5.70,-192.19 -14.72,-188.62 -26.23,-185.98C-37.74,-183.33 -48.62,-182.33 -58.87,-182.99C-75.28,-189.62 -86.30,-198.62 -91.93,-209.99C-97.55,-221.36 -98.97,-232.95 -96.20,-244.76C-93.43,-256.58 -86.94,-267.13 -76.72,-276.41C-54.79,-293.26 -32.44,-301.64 -9.65,-301.55ZM135.22,-256.69L94.85,-263.74C91.60,-252.95 86.72,-237.83 80.21,-218.37C73.70,-198.90 69.23,-185.32 66.80,-177.62C79.25,-179.28 91.10,-182.79 102.33,-188.13C106.90,-186.99 109.67,-185.27 110.65,-182.97C111.62,-180.66 111.38,-177.19 109.92,-172.54C102.69,-168.51 94.17,-165.14 84.36,-162.44C74.55,-159.74 64.84,-158.41 55.23,-158.46C40.19,-163.56 32.10,-171.73 30.95,-182.99C47.85,-213.96 61.46,-241.20 71.79,-264.74L41.78,-265.83C37.86,-272.88 39.31,-279.63 46.13,-286.07L76.50,-279.08L82.25,-315.54C100.56,-321.38 112.99,-319.64 119.52,-310.32L101.16,-277.97L139.57,-276.93C143.83,-271.51 142.38,-264.77 135.22,-256.69ZM154.61,-218.08L161.91,-257.47C179.13,-261.06 190.99,-258.89 197.51,-250.98L180.41,-219.05C175.37,-203.53 167.53,-177.14 156.88,-139.87C150.61,-138.12 143.65,-138.76 136.00,-141.80C128.36,-144.84 123.31,-148.95 120.85,-154.13C133.79,-174.62 145.04,-195.94 154.61,-218.08ZM208.29,-283.80C207.39,-278.87 204.86,-275.03 200.70,-272.28C196.54,-269.53 191.98,-268.69 187.01,-269.76C182.04,-270.82 178.15,-273.48 175.34,-277.73C172.53,-281.98 171.57,-286.53 172.46,-291.38C173.35,-296.23 175.94,-299.98 180.23,-302.63C184.52,-305.27 189.15,-306.06 194.12,-305.00C199.08,-303.93 202.91,-301.36 205.61,-297.29C208.30,-293.22 209.20,-288.72 208.29,-283.80ZM282.17,-238.83C292.72,-234.55 300.14,-228.80 304.41,-221.60C308.68,-214.40 310.80,-205.69 310.77,-195.45C307.35,-191.07 302.51,-188.58 296.25,-187.99C290.00,-187.39 283.26,-188.72 276.05,-191.98C277.60,-198.47 278.08,-203.95 277.49,-208.42C276.90,-212.89 275.27,-217.59 272.61,-222.51L267.03,-222.54C257.72,-218.18 249.78,-212.29 243.22,-204.85C236.65,-197.42 232.28,-189.52 230.09,-181.15C227.91,-172.78 227.58,-165.13 229.12,-158.20C230.65,-151.28 234.86,-144.68 241.73,-138.39C259.72,-139.80 274.51,-143.68 286.12,-150.03C294.63,-148.51 296.82,-143.15 292.67,-133.96C286.12,-129.47 277.09,-125.90 265.59,-123.26C254.08,-120.61 243.20,-119.61 232.95,-120.27C216.53,-126.90 205.51,-135.90 199.89,-147.27C194.27,-158.64 192.84,-170.23 195.61,-182.04C198.39,-193.86 204.88,-204.41 215.10,-213.69C237.02,-230.54 259.38,-238.92 282.17,-238.83ZM403.80,-213.62C418.12,-208.06 426.92,-199.77 430.22,-188.75C433.51,-177.72 431.98,-165.76 425.64,-152.85C398.18,-146.34 372.54,-143.24 348.72,-143.55C348.21,-131.10 352.75,-120.81 362.33,-112.70C379.62,-113.02 394.58,-116.24 407.22,-122.37C415.59,-120.88 418.00,-115.48 414.44,-106.16C408.58,-101.99 399.44,-98.79 387.02,-96.58C374.60,-94.36 363.65,-93.57 354.17,-94.21C338.34,-100.72 327.51,-109.68 321.67,-121.09C315.82,-132.51 314.48,-144.86 317.64,-158.14C320.48,-169.17 326.68,-179.24 336.24,-188.35C358.95,-203.79 381.47,-212.22 403.80,-213.62ZM350.96,-157.26L350.82,-156.60C367.85,-157.90 383.91,-160.42 398.99,-164.16C403.86,-178.16 401.80,-189.15 392.81,-197.14L388.74,-196.61C379.55,-192.85 371.44,-187.22 364.40,-179.74C357.37,-172.25 352.89,-164.76 350.96,-157.26Z" fill="#ffffff" stroke="#000000"/>
    <path d="M-430.96,-436.69C-416.75,-437.45 -400.30,-435.59 -381.63,-431.12C-362.96,-426.64 -348.53,-418.13 -338.35,-405.59C-328.17,-393.05 -324.60,-380.43 -327.64,-367.74C-332.96,-346.19 -349.14,-332.09 -376.18,-325.46C-392.39,-324.10 -409.11,-324.49 -426.34,-326.61C-430.69,-313.62 -436.55,-296.90 -443.92,-276.45C-448.85,-274.55 -455.48,-275.17 -463.83,-278.33C-472.17,-281.49 -477.39,-285.47 -479.47,-290.29C-464.19,-316.71 -448.75,-348.02 -433.13,-384.23L-423.04,-418.60L-433.27,-421.28C-435.01,-424.32 -435.63,-427.36 -435.13,-430.41C-434.63,-433.45 -433.25,-435.54 -430.96,-436.69ZM-390.25,-413.52L-413.84,-365.26C-415.64,-359.68 -418.27,-351.59 -421.74,-341.01C-405.10,-340.26 -392.00,-341.21 -382.42,-343.85C-376.51,-346.60 -371.39,-350.61 -367.04,-355.89C-362.69,-361.18 -359.63,-367.65 -357.87,-375.33C-356.10,-383.01 -357.97,-390.51 -363.46,-397.84C-368.95,-405.17 -377.88,-410.40 -390.25,-413.52ZM-291.48,-330.38L-289.75,-326.96C-263.76,-344.02 -250.22,-352.89 -249.14,-353.55C-241.35,-349.99 -235.65,-344.50 -232.03,-337.07C-228.41,-329.65 -227.66,-321.18 -229.79,-311.66C-235.58,-308.73 -241.35,-307.53 -247.08,-308.06C-252.82,-308.58 -257.78,-310.74 -261.96,-314.52C-260.31,-320.75 -260.51,-325.74 -262.54,-329.46C-274.12,-322.37 -284.01,-316.17 -292.21,-310.89C-298.64,-291.15 -306.63,-269.38 -316.19,-245.61C-322.98,-244.30 -330.10,-245.16 -337.55,-248.18C-345.00,-251.20 -349.48,-255.05 -350.98,-259.73C-336.93,-281.66 -324.57,-303.30 -313.90,-324.65L-312.16,-358.94C-300.84,-365.02 -289.14,-365.53 -277.09,-360.48C-276.78,-355.32 -278.50,-348.17 -282.23,-339.04ZM-159.86,-242.38L-198.91,-217.50C-213.94,-221.72 -224.32,-228.45 -230.05,-237.69C-235.78,-246.93 -237.23,-257.46 -234.40,-269.27C-230.32,-287.57 -219.38,-303.12 -201.59,-315.90C-183.80,-328.68 -165.15,-332.96 -145.64,-328.75C-139.14,-322.41 -133.97,-312.76 -130.13,-299.81L-130.08,-300.03C-127.56,-310.53 -124.45,-318.04 -120.75,-322.55C-110.41,-321.31 -102.84,-319.41 -98.05,-316.88C-93.26,-314.34 -90.33,-310.48 -89.26,-305.28L-116.14,-275.17C-122.55,-256.81 -129.35,-232.60 -136.55,-202.55C-141.88,-200.90 -148.31,-201.59 -155.84,-204.63C-163.36,-207.67 -169.08,-211.97 -172.99,-217.53L-157.70,-238.86ZM-152.07,-310.62C-164.34,-308.32 -174.88,-302.79 -183.69,-294.02C-192.50,-285.26 -198.24,-275.34 -200.89,-264.25C-203.55,-253.16 -201.87,-244.74 -195.85,-238.98C-184.95,-244.54 -169.38,-252.53 -149.15,-262.95L-138.72,-285.21C-140.90,-295.45 -145.34,-303.92 -152.07,-310.62ZM-8.41,-297.01C1.93,-292.53 9.13,-286.68 13.18,-279.46C17.24,-272.24 19.13,-263.57 18.87,-253.46C15.38,-249.20 10.54,-246.86 4.34,-246.41C-1.86,-245.97 -8.49,-247.44 -15.54,-250.83C-13.86,-257.21 -13.26,-262.62 -13.74,-267.06C-14.22,-271.49 -15.72,-276.17 -18.24,-281.09L-23.75,-281.26C-33.06,-277.16 -41.05,-271.52 -47.71,-264.32C-54.37,-257.13 -58.88,-249.42 -61.24,-241.19C-63.59,-232.96 -64.09,-225.41 -62.73,-218.53C-61.38,-211.65 -57.37,-205.02 -50.72,-198.64C-32.91,-199.62 -18.19,-203.11 -6.57,-209.11C1.82,-207.41 3.85,-202.07 -0.46,-193.08C-7.04,-188.79 -16.05,-185.47 -27.49,-183.12C-38.93,-180.78 -49.71,-180.04 -59.83,-180.93C-75.91,-187.86 -86.59,-197.02 -91.89,-208.39C-97.18,-219.76 -98.32,-231.26 -95.31,-242.88C-92.29,-254.49 -85.62,-264.77 -75.31,-273.71C-53.23,-289.86 -30.93,-297.63 -8.41,-297.01ZM133.78,-249.28L94.03,-257.19C90.57,-246.61 85.39,-231.77 78.50,-212.67C71.61,-193.58 66.88,-180.25 64.30,-172.70C76.65,-174.05 88.44,-177.24 99.67,-182.26C104.16,-181.03 106.86,-179.27 107.78,-176.97C108.69,-174.67 108.37,-171.23 106.81,-166.67C99.57,-162.85 91.07,-159.72 81.31,-157.28C71.55,-154.84 61.91,-153.75 52.42,-154.03C37.67,-159.41 29.85,-167.68 28.98,-178.85C46.40,-209.07 60.50,-235.69 71.26,-258.72L41.61,-260.50C37.90,-267.56 39.49,-274.20 46.38,-280.41L76.25,-272.79L82.78,-308.71C101.03,-314.05 113.27,-312.04 119.51,-302.68L100.61,-271.12L138.56,-269.20C142.65,-263.74 141.06,-257.10 133.78,-249.28ZM152.06,-210.66L160.20,-249.43C177.30,-252.58 188.99,-250.17 195.25,-242.19L177.60,-211.02C172.25,-195.80 163.88,-169.88 152.49,-133.28C146.25,-131.69 139.38,-132.49 131.89,-135.67C124.40,-138.86 119.50,-143.04 117.20,-148.22C130.46,-168.17 142.08,-188.99 152.06,-210.66ZM206.67,-274.39C205.66,-269.54 203.07,-265.80 198.89,-263.18C194.71,-260.56 190.18,-259.83 185.30,-261.00C180.41,-262.17 176.63,-264.89 173.95,-269.16C171.27,-273.43 170.42,-277.95 171.41,-282.72C172.40,-287.50 175.05,-291.14 179.36,-293.66C183.66,-296.18 188.26,-296.85 193.14,-295.68C198.03,-294.51 201.76,-291.88 204.33,-287.79C206.89,-283.71 207.68,-279.24 206.67,-274.39ZM278.66,-228.21C289.00,-223.73 296.20,-217.88 300.25,-210.66C304.31,-203.44 306.20,-194.77 305.94,-184.66C302.45,-180.40 297.61,-178.05 291.41,-177.61C285.21,-177.17 278.58,-178.64 271.53,-182.03C273.21,-188.41 273.81,-193.82 273.33,-198.25C272.85,-202.69 271.35,-207.37 268.83,-212.29L263.32,-212.46C254.01,-208.36 246.02,-202.72 239.36,-195.52C232.70,-188.33 228.19,-180.62 225.83,-172.39C223.48,-164.16 222.98,-156.61 224.34,-149.73C225.70,-142.84 229.70,-136.22 236.35,-129.84C254.16,-130.82 268.88,-134.31 280.50,-140.31C288.89,-138.61 290.92,-133.27 286.61,-124.27C280.03,-119.99 271.02,-116.67 259.58,-114.32C248.14,-111.97 237.36,-111.24 227.24,-112.13C211.16,-119.06 200.48,-128.22 195.18,-139.59C189.89,-150.96 188.75,-162.46 191.76,-174.08C194.78,-185.69 201.45,-195.97 211.77,-204.91C233.84,-221.06 256.14,-228.83 278.66,-228.21ZM398.34,-200.46C412.37,-194.63 420.88,-186.22 423.88,-175.25C426.88,-164.27 425.09,-152.47 418.52,-139.86C391.22,-134.06 365.79,-131.59 342.25,-132.46C341.46,-120.15 345.70,-109.88 354.99,-101.64C372.09,-101.55 386.96,-104.39 399.60,-110.15C407.84,-108.48 410.09,-103.08 406.36,-93.95C400.47,-89.97 391.36,-87.02 379.03,-85.12C366.69,-83.22 355.85,-82.69 346.49,-83.55C331.00,-90.34 320.49,-99.46 314.98,-110.88C309.47,-122.30 308.43,-134.55 311.87,-147.60C314.92,-158.44 321.29,-168.25 330.95,-177.04C353.77,-191.78 376.23,-199.59 398.34,-200.46ZM344.79,-145.96L344.63,-145.30C361.50,-146.20 377.44,-148.32 392.43,-151.66C397.57,-165.39 395.79,-176.31 387.09,-184.41L383.06,-183.99C373.89,-180.48 365.73,-175.11 358.60,-167.87C351.47,-160.63 346.86,-153.33 344.79,-145.96Z" fill="#ffffff" stroke="#000000"/>
    <path d="M-901.52,467.57L-908.44,468.29C-909.53,467.02 -909.73,465.77 -909.05,464.53C-902.11,463.99 -894.90,463.88 -887.43,464.18C-886.59,465.12 -886.77,466.41 -887.96,468.06L-896.01,467.30L-898.10,475.89C-898.31,478.65 -898.74,483.84 -899.40,491.47C-900.36,491.97 -901.57,492.11 -903.03,491.89C-904.48,491.66 -905.41,491.18 -905.82,490.44C-904.02,484.34 -902.63,478.22 -901.64,472.09ZM-885.11,478.78L-885.30,472.09C-882.61,470.90 -880.60,470.83 -879.26,471.90L-880.93,477.71C-881.21,480.42 -881.56,485.01 -881.99,491.47C-882.95,491.97 -884.11,492.11 -885.47,491.89C-886.82,491.66 -887.79,491.16 -888.38,490.40C-886.98,486.60 -885.89,482.73 -885.11,478.78ZM-878.65,466.16C-878.62,467.00 -878.90,467.71 -879.48,468.31C-880.07,468.90 -880.78,469.20 -881.63,469.20C-882.48,469.20 -883.21,468.90 -883.82,468.31C-884.42,467.71 -884.74,467.00 -884.77,466.18C-884.79,465.36 -884.50,464.65 -883.89,464.07C-883.28,463.49 -882.56,463.20 -881.71,463.20C-880.86,463.20 -880.14,463.48 -879.56,464.05C-878.98,464.62 -878.67,465.32 -878.65,466.16ZM-872.91,471.52L-872.83,461.90C-870.38,460.41 -868.22,460.08 -866.37,460.92L-868.81,469.73C-869.90,482.07 -870.55,489.30 -870.78,491.43C-871.72,491.96 -872.94,492.11 -874.45,491.89C-875.96,491.66 -876.91,491.16 -877.32,490.40C-875.34,484.22 -873.87,477.93 -872.91,471.52ZM-861.43,471.52L-861.36,461.90C-858.90,460.41 -856.75,460.08 -854.90,460.92L-857.33,469.73C-858.42,482.07 -859.08,489.30 -859.31,491.43C-860.24,491.96 -861.47,492.11 -862.97,491.89C-864.48,491.66 -865.44,491.16 -865.84,490.40C-863.87,484.22 -862.40,477.93 -861.43,471.52ZM-841.03,485.84L-846.46,491.47C-849.10,491.37 -851.07,490.67 -852.37,489.38C-853.68,488.09 -854.33,486.41 -854.33,484.36C-854.38,481.20 -853.19,478.21 -850.78,475.41C-848.36,472.61 -845.46,471.18 -842.09,471.10C-840.77,471.89 -839.55,473.27 -838.41,475.24L-838.41,475.20C-838.41,473.38 -838.19,472.02 -837.76,471.14C-836.01,470.94 -834.69,470.95 -833.81,471.18C-832.92,471.40 -832.29,471.92 -831.91,472.73L-835.14,478.74C-835.47,482.01 -835.63,486.25 -835.63,491.47C-836.44,491.95 -837.53,492.09 -838.88,491.89C-840.24,491.68 -841.34,491.20 -842.21,490.44L-840.53,486.34ZM-842.43,474.33C-844.36,475.19 -845.87,476.52 -846.97,478.30C-848.08,480.09 -848.63,481.94 -848.63,483.87C-848.63,485.79 -848.02,487.11 -846.80,487.82C-845.23,486.48 -842.99,484.55 -840.08,482.04L-839.24,477.98C-840.00,476.38 -841.07,475.17 -842.43,474.33ZM-809.91,476.19L-811.46,480.75C-811.72,484.10 -811.76,487.67 -811.58,491.47C-812.44,491.95 -813.50,492.10 -814.75,491.90C-816.01,491.71 -817.05,491.24 -817.89,490.48C-817.48,487.06 -816.66,482.64 -815.42,477.22C-815.62,476.28 -816.13,475.60 -816.94,475.17C-818.99,476.18 -821.13,477.90 -823.36,480.33C-823.61,483.48 -824.05,487.19 -824.69,491.47C-825.75,491.95 -826.96,492.09 -828.30,491.89C-829.64,491.68 -830.53,491.23 -830.96,490.52C-829.51,486.36 -828.34,482.32 -827.42,478.40L-828.53,472.70C-826.88,471.28 -824.97,470.73 -822.79,471.06C-822.53,471.92 -822.52,473.16 -822.75,474.79L-823.97,476.57L-823.59,477.03C-821.48,474.55 -819.08,472.57 -816.37,471.10C-814.62,471.23 -813.19,471.80 -812.09,472.81C-810.99,473.82 -810.26,474.95 -809.91,476.19ZM-794.02,485.84L-799.46,491.47C-802.09,491.37 -804.06,490.67 -805.36,489.38C-806.67,488.09 -807.32,486.41 -807.32,484.36C-807.37,481.20 -806.19,478.21 -803.77,475.41C-801.35,472.61 -798.46,471.18 -795.09,471.10C-793.77,471.89 -792.54,473.27 -791.40,475.24L-791.40,475.20C-791.40,473.38 -791.18,472.02 -790.75,471.14C-789.01,470.94 -787.69,470.95 -786.80,471.18C-785.92,471.40 -785.28,471.92 -784.90,472.73L-788.13,478.74C-788.46,482.01 -788.63,486.25 -788.63,491.47C-789.44,491.95 -790.52,492.09 -791.88,491.89C-793.23,491.68 -794.34,491.20 -795.20,490.44L-793.53,486.34ZM-795.43,474.33C-797.35,475.19 -798.87,476.52 -799.97,478.30C-801.07,480.09 -801.62,481.94 -801.62,483.87C-801.62,485.79 -801.01,487.11 -799.80,487.82C-798.23,486.48 -795.99,484.55 -793.07,482.04L-792.24,477.98C-793.00,476.38 -794.06,475.17 -795.43,474.33ZM-766.13,477.48C-765.78,477.69 -765.66,478.11 -765.77,478.76C-765.88,479.40 -766.21,480.04 -766.74,480.68L-782.32,481.02C-782.60,480.71 -782.69,480.28 -782.58,479.71C-782.48,479.14 -782.23,478.56 -781.82,477.98L-774.60,478.17ZM-747.47,483.53C-747.47,482.99 -747.92,482.43 -748.80,481.83C-749.69,481.24 -750.77,480.61 -752.05,479.95C-753.33,479.30 -754.63,478.59 -755.95,477.83C-757.26,477.07 -758.43,476.12 -759.44,474.98C-760.46,473.84 -761.06,472.62 -761.27,471.33C-760.28,469.15 -758.67,467.34 -756.44,465.91C-754.21,464.48 -751.80,463.64 -749.22,463.39C-747.37,463.77 -745.75,464.46 -744.36,465.46C-742.96,466.46 -741.89,467.69 -741.13,469.16C-741.61,471.37 -743.36,472.21 -746.37,471.71C-746.93,469.40 -747.95,467.58 -749.45,466.24C-750.89,466.62 -752.30,467.30 -753.68,468.29C-755.07,469.28 -755.74,470.12 -755.72,470.83C-755.69,471.54 -755.04,472.34 -753.76,473.21C-752.48,474.08 -751.04,474.93 -749.45,475.74C-747.85,476.55 -746.27,477.59 -744.70,478.85C-743.13,480.12 -742.10,481.39 -741.62,482.65C-742,485.13 -743.27,487.19 -745.44,488.83C-747.61,490.46 -750.47,491.52 -754.05,492C-756.20,491.52 -758.21,490.61 -760.07,489.26C-761.93,487.92 -763.14,486.53 -763.70,485.08C-762.99,483.84 -762.21,482.97 -761.36,482.46C-760.51,481.96 -759.40,481.92 -758.04,482.35C-757.66,483.84 -757.16,485.08 -756.54,486.05C-755.91,487.03 -754.97,488.05 -753.70,489.11C-751.91,488.71 -750.42,487.99 -749.24,486.96C-748.06,485.94 -747.47,484.79 -747.47,483.53ZM-726.88,470.76C-724.34,471.16 -722.61,472.21 -721.69,473.89C-720.76,475.58 -720.59,477.59 -721.18,479.92C-725.43,481.94 -729.51,483.35 -733.41,484.13C-733.06,486.19 -731.96,487.71 -730.11,488.69C-727.29,488.04 -724.96,486.98 -723.11,485.54C-721.70,485.49 -721.11,486.29 -721.37,487.93C-722.18,488.82 -723.56,489.66 -725.51,490.46C-727.46,491.26 -729.22,491.77 -730.79,492C-733.60,491.49 -735.69,490.41 -737.04,488.75C-738.40,487.09 -739.05,485.12 -739.00,482.84C-738.92,480.94 -738.26,479.08 -737.02,477.26C-733.86,473.94 -730.47,471.77 -726.88,470.76ZM-733.53,481.82L-733.53,481.93C-730.79,481.12 -728.26,480.14 -725.93,479.00C-725.62,476.55 -726.34,474.82 -728.09,473.84L-728.74,474.06C-730.11,475.00 -731.23,476.20 -732.12,477.67C-733.01,479.14 -733.48,480.52 -733.53,481.82ZM-700.09,491.47C-701.50,491.95 -702.75,492.08 -703.81,491.85C-704.87,491.62 -705.60,491.21 -705.98,490.63C-705.04,484.98 -704.03,480.42 -702.94,476.95C-703.44,476.04 -704.14,475.41 -705.03,475.05C-706.65,475.96 -708.55,477.71 -710.73,480.30C-711.03,483.67 -711.49,487.39 -712.09,491.47C-713.16,491.95 -714.36,492.09 -715.70,491.89C-717.05,491.68 -717.93,491.23 -718.36,490.52C-716.92,486.36 -715.74,482.32 -714.83,478.40L-715.93,472.70C-714.26,471.18 -712.35,470.68 -710.19,471.21C-709.94,471.95 -709.93,473.14 -710.16,474.79L-711.37,476.57L-710.95,477.10C-709.89,475.84 -708.85,474.74 -707.84,473.80C-706.82,472.86 -705.58,471.96 -704.11,471.10C-701.86,471.25 -699.97,472.27 -698.45,474.14L-700.01,476.42L-699.63,476.69C-697.30,474.18 -695.06,472.32 -692.90,471.10C-691.16,471.28 -689.71,471.87 -688.57,472.89C-687.43,473.90 -686.74,475.01 -686.48,476.23L-688.04,480.75C-688.27,483.77 -688.31,487.34 -688.15,491.47C-689.02,491.95 -690.07,492.10 -691.31,491.90C-692.55,491.71 -693.60,491.24 -694.46,490.48C-693.93,486.33 -693.09,481.89 -691.95,477.18C-692.23,476.19 -692.75,475.52 -693.51,475.17C-695.29,476.00 -697.17,477.46 -699.17,479.54C-699.93,482.42 -700.24,486.40 -700.09,491.47ZM-680.86,478.78L-681.05,472.09C-678.36,470.90 -676.35,470.83 -675.01,471.90L-676.68,477.71C-676.96,480.42 -677.31,485.01 -677.74,491.47C-678.70,491.97 -679.86,492.11 -681.22,491.89C-682.57,491.66 -683.54,491.16 -684.13,490.40C-682.73,486.60 -681.64,482.73 -680.86,478.78ZM-674.40,466.16C-674.37,467.00 -674.65,467.71 -675.23,468.31C-675.82,468.90 -676.53,469.20 -677.38,469.20C-678.23,469.20 -678.96,468.90 -679.57,468.31C-680.17,467.71 -680.49,467.00 -680.52,466.18C-680.54,465.36 -680.25,464.65 -679.64,464.07C-679.03,463.49 -678.31,463.20 -677.46,463.20C-676.61,463.20 -675.89,463.48 -675.31,464.05C-674.73,464.62 -674.42,465.32 -674.40,466.16ZM-669.72,464.75C-667.44,464.12 -664.58,463.80 -661.12,463.80C-657.66,463.80 -654.95,464.46 -653.00,465.78C-651.05,467.10 -650.08,468.65 -650.10,470.43C-650.11,472.22 -650.55,473.63 -651.43,474.67C-652.30,475.71 -653.73,476.69 -655.70,477.60L-655.74,477.86C-654.17,478.19 -652.84,478.78 -651.75,479.61C-651.07,480.52 -650.72,481.59 -650.72,482.80C-650.77,485.51 -652.00,488.05 -654.41,490.40C-656.56,491.11 -658.58,491.58 -660.47,491.81C-662.36,492.04 -664.63,492.10 -667.29,492C-668.53,491.75 -669.58,491.31 -670.45,490.69C-671.31,490.07 -671.78,489.29 -671.85,488.35C-670.03,482.83 -668.74,478.13 -667.98,474.25L-667.63,467.22L-669.23,467.38C-669.74,467.02 -670.03,466.58 -670.10,466.07C-670.18,465.55 -670.05,465.11 -669.72,464.75ZM-656.42,482.96C-656.42,482.20 -656.61,481.42 -656.99,480.64C-657.96,479.98 -658.99,479.54 -660.09,479.31C-661.19,479.08 -662.63,479.05 -664.40,479.23L-666.30,489.04C-663.47,489.19 -660.83,488.87 -658.40,488.09C-657.08,486.49 -656.42,484.78 -656.42,482.96ZM-655.78,471.48C-655.68,470.01 -656.21,468.82 -657.37,467.91C-658.54,467.00 -660.26,466.68 -662.54,466.96L-664.06,476.88C-661.66,476.90 -659.65,476.57 -658.06,475.89C-657.22,475.13 -656.65,474.48 -656.33,473.93C-656.01,473.39 -655.83,472.57 -655.78,471.48ZM-648.18,482.92C-648.18,481.35 -647.65,479.61 -646.58,477.71C-645.52,475.81 -644.06,474.17 -642.21,472.77C-640.36,471.38 -638.48,470.68 -636.55,470.68C-635.49,470.68 -634.35,471.24 -633.13,472.35C-631.91,473.47 -630.91,474.80 -630.13,476.34C-629.34,477.89 -628.94,479.38 -628.91,480.83C-628.89,482.27 -629.47,483.90 -630.66,485.71C-631.85,487.52 -633.36,489.02 -635.20,490.21C-637.04,491.40 -638.82,492 -640.54,492C-642.26,492 -643.97,491.06 -645.65,489.19C-647.34,487.31 -648.18,485.22 -648.18,482.92ZM-637.16,473.49C-638.86,474.63 -640.21,476.01 -641.22,477.64C-642.24,479.26 -642.87,480.98 -643.12,482.80C-643.05,485.41 -642.07,487.55 -640.20,489.23C-636.68,487.40 -634.51,484.72 -633.70,481.17C-634.00,478.16 -635.16,475.60 -637.16,473.49ZM-622.34,471.52L-622.26,461.90C-619.80,460.41 -617.65,460.08 -615.80,460.92L-618.23,469.73C-619.32,482.07 -619.98,489.30 -620.21,491.43C-621.15,491.96 -622.37,492.11 -623.88,491.89C-625.38,491.66 -626.34,491.16 -626.75,490.40C-624.77,484.22 -623.30,477.93 -622.34,471.52ZM-598.40,471.52L-598.51,461.68C-595.83,460.38 -593.69,460.12 -592.09,460.88L-594.52,469.81C-594.65,471.02 -595.60,478.24 -597.37,491.47C-598.28,491.95 -599.40,492.11 -600.73,491.94C-602.06,491.78 -603.03,491.30 -603.64,490.52L-601.63,486.38L-602.05,485.96C-605.19,489.18 -606.97,491.01 -607.40,491.47C-609.94,491.44 -611.89,490.76 -613.26,489.43C-614.62,488.11 -615.30,486.41 -615.27,484.34C-615.24,482.28 -614.70,480.24 -613.64,478.23C-612.57,476.21 -611.06,474.53 -609.11,473.17C-607.16,471.82 -605.06,471.13 -602.81,471.10C-601.49,471.56 -600.30,472.91 -599.23,475.17C-598.96,474.08 -598.68,472.86 -598.40,471.52ZM-607.75,487.82L-600.98,482.04L-599.99,477.98C-601.01,476.18 -602.08,474.93 -603.22,474.22C-605.15,475.08 -606.67,476.42 -607.78,478.24C-608.90,480.07 -609.48,482.03 -609.53,484.13C-609.53,485.88 -608.94,487.11 -607.75,487.82Z"/>
</svg>