<?xml version="1.0"?>
<svg xmlns="http://www.w3.org/2000/svg" width="1920" height="1080" viewBox="-960 -540 1920 1080">
    <path d="M-205,-210L-225,-230L-195,-270L-135,-270L-125,-260L-125,-230L-145,-210L-75,-210L-95,-230L-95,-420L-125,-400L-125,-390L-245,-230L-275,-210ZM-125,-370L-125,-290L-135,-280L-185,-280L-175,-300ZM-65,-290L-55,-280L-5,-330L5,-330L-55,-220L-45,-210L-25,-210L15,-290L45,-320L65,-330L75,-320L25,-230L25,-220L35,-210L55,-210L75,-220L125,-270L115,-280L65,-230L55,-230L105,-310L105,-340L75,-350L45,-340L15,-310L25,-330L25,-340L15,-350L-15,-340ZM-865,22L-815,-138L-785,-158L-865,-158L-845,-138L-895,22L-925,42L-845,42ZM-815,-38L-805,-28L-755,-78L-745,-78L-805,32L-795,42L-775,42L-735,-38L-705,-68L-685,-78L-675,-68L-725,22L-725,32L-715,42L-695,42L-675,32L-625,-18L-635,-28L-685,22L-695,22L-645,-58L-645,-88L-675,-98L-705,-88L-735,-58L-725,-78L-725,-88L-735,-98L-765,-88ZM-595,22L-545,-78L-515,-78L-515,-88L-545,-88L-525,-128L-545,-128L-555,-98L-575,-88L-595,-88L-595,-78L-575,-78L-625,22L-625,32L-615,42L-595,42L-575,32L-525,-18L-535,-28L-585,22ZM-515,-38L-505,-28L-455,-78L-445,-78L-505,32L-495,42L-475,42L-435,-38L-405,-58L-375,-58L-365,-88L-385,-98L-405,-88L-435,-48L-445,-48L-425,-78L-425,-88L-435,-98L-465,-88ZM-335,42L-315,42L-265,12L-235,-48L-255,-88L-295,-98L-345,-68L-375,-8L-355,32ZM-295,-78L-275,-78L-265,-48L-285,-8L-315,22L-335,22L-345,-8L-325,-48ZM-125,42L-115,42L-95,32L-45,-18L-55,-28L-105,22L-115,22L-25,-168L-95,-168L-95,-158L-65,-158L-95,-68L-105,-88L-145,-98L-195,-58L-215,-8L-205,32L-185,42L-165,42L-135,12L-135,32ZM-165,22L-175,22L-185,-8L-165,-48L-135,-78L-115,-78L-105,-58L-105,-48L-135,-8ZM145,-18L135,-28L85,22L75,22L135,-78L125,-88L105,-88L65,-18L25,22L15,22L5,2L55,-78L55,-88L35,-98L5,-88L-45,-38L-35,-28L15,-78L25,-78L-25,2L-15,32L5,42L25,42L55,12L55,32L65,42L75,42L95,32ZM285,-48L285,-68L275,-88L235,-98L185,-68L155,-8L165,32L185,42L205,42L225,32L265,-8L255,-18L215,22L195,22L185,-8L205,-48L235,-78L255,-78L255,-48ZM315,22L365,-78L395,-78L395,-88L365,-88L385,-128L365,-128L355,-98L335,-88L315,-88L315,-78L335,-78L285,22L285,32L295,42L315,42L335,32L385,-18L375,-28L325,22ZM505,-118L515,-118L525,-138L525,-148L505,-158L495,-158L485,-138L485,-128ZM395,-38L405,-28L455,-78L465,-78L405,22L405,32L415,42L435,42L455,32L505,-18L495,-28L445,22L435,22L495,-78L495,-88L475,-98L445,-88ZM555,42L575,42L625,12L655,-48L635,-88L595,-98L545,-68L515,-8L535,32ZM595,-78L615,-78L625,-48L605,-8L575,22L555,22L545,-8L565,-48ZM665,-38L675,-28L725,-78L735,-78L675,32L685,42L705,42L745,-38L775,-68L795,-78L805,-68L755,22L755,32L765,42L785,42L805,32L855,-18L845,-28L795,22L785,22L835,-58L835,-88L805,-98L775,-88L745,-58L755,-78L755,-88L745,-98L715,-88Z" fill="#ffffff" stroke="#000000"/>
    <path d="M-203.83,-209.97L-223.14,-230.25L-192.48,-269.11L-133.10,-267.66L-123.44,-257.52L-124.17,-227.83L-144.44,-208.52L-75.16,-206.83L-94.47,-227.10L-89.88,-415.15L-120.06,-396.08L-120.30,-386.18L-242.93,-230.73L-273.11,-211.66ZM-120.78,-366.39L-122.72,-287.21L-132.85,-277.56L-182.34,-278.76L-171.96,-298.32ZM-63.33,-285.76L-53.68,-275.62L-2.98,-323.90L6.91,-323.66L-55.13,-216.24L-45.47,-206.10L-25.68,-205.62L15.84,-283.83L46.26,-312.79L66.29,-322.21L75.95,-312.07L24.29,-224.20L24.05,-214.31L33.70,-204.17L53.50,-203.68L73.53,-213.10L124.23,-261.38L114.57,-271.51L63.88,-223.24L53.98,-223.48L105.40,-301.45L106.12,-331.14L76.67,-341.76L46.74,-332.59L16.33,-303.62L26.71,-323.17L26.95,-333.07L17.29,-343.21L-12.64,-334.04ZM-862.64,3.70L-809.29,-153.45L-779.11,-172.52L-858.29,-174.45L-838.98,-154.17L-892.33,2.97L-922.50,22.04L-843.33,23.97ZM-811.70,-54.48L-802.05,-44.34L-751.35,-92.62L-741.46,-92.38L-803.50,15.04L-793.84,25.18L-774.05,25.66L-732.53,-52.55L-702.11,-81.51L-682.07,-90.93L-672.42,-80.79L-724.08,7.08L-724.32,16.98L-714.66,27.11L-694.87,27.60L-674.83,18.18L-624.14,-30.09L-633.80,-40.23L-684.49,8.04L-694.39,7.80L-642.97,-70.16L-642.24,-99.86L-671.69,-110.48L-701.63,-101.31L-732.04,-72.34L-721.66,-91.89L-721.42,-101.79L-731.08,-111.93L-761.01,-102.76ZM-595.42,10.22L-543.52,-87.54L-513.82,-86.82L-513.58,-96.71L-543.27,-97.44L-522.51,-136.54L-542.31,-137.03L-552.93,-107.58L-572.96,-98.16L-592.76,-98.65L-593.00,-88.75L-573.21,-88.27L-625.11,9.49L-625.35,19.39L-615.69,29.53L-595.90,30.01L-575.86,20.60L-525.17,-27.68L-534.83,-37.82L-585.52,10.46ZM-514.79,-47.23L-505.14,-37.09L-454.44,-85.37L-444.54,-85.13L-506.59,22.29L-496.93,32.43L-477.14,32.91L-435.61,-45.30L-405.44,-64.37L-375.75,-63.64L-365.13,-93.09L-384.68,-103.47L-404.71,-94.06L-435.37,-55.19L-445.27,-55.43L-424.75,-84.64L-424.51,-94.54L-434.16,-104.68L-464.10,-95.51ZM-338.58,36.30L-318.78,36.78L-268.57,8.30L-237.43,-50.36L-256.26,-90.43L-295.61,-101.30L-345.82,-72.81L-376.96,-14.16L-358.13,25.92ZM-296.09,-81.50L-276.29,-81.02L-267.12,-51.09L-287.88,-11.98L-318.30,16.99L-338.09,16.50L-347.27,-13.43L-326.50,-52.54ZM-130.74,41.37L-120.84,41.61L-100.81,32.20L-50.11,-16.08L-59.77,-26.22L-110.46,22.06L-120.36,21.82L-26.69,-164.05L-95.97,-165.74L-96.21,-155.84L-66.52,-155.12L-98.39,-66.77L-107.80,-86.81L-147.15,-97.67L-197.60,-59.29L-218.60,-10.29L-209.67,29.54L-190.12,39.92L-170.33,40.40L-139.91,11.44L-140.39,31.23ZM-169.84,20.61L-179.74,20.37L-188.91,-9.56L-168.15,-48.67L-137.74,-77.64L-117.94,-77.15L-108.53,-57.12L-108.77,-47.22L-139.43,-8.36ZM137.93,-11.49L128.28,-21.63L77.58,26.65L67.69,26.41L129.48,-71.11L119.83,-81.25L100.03,-81.73L58.76,-13.42L18.20,25.20L8.30,24.96L-1.11,4.92L50.31,-73.04L50.55,-82.94L31.00,-93.32L1.06,-84.15L-49.63,-35.87L-39.97,-25.73L10.72,-74.01L20.62,-73.77L-30.80,4.20L-21.63,34.13L-2.08,44.51L17.72,45.00L48.13,16.03L47.65,35.82L57.31,45.96L67.20,46.20L87.24,36.79ZM277.22,-37.79L277.70,-57.59L268.28,-77.62L228.94,-88.49L178.73,-60.01L147.59,-1.35L156.52,38.48L176.07,48.86L195.86,49.35L215.90,39.93L256.45,1.31L246.80,-8.83L206.24,29.79L186.45,29.31L177.28,-0.62L198.04,-39.73L228.45,-68.69L248.25,-68.21L247.52,-38.52ZM305.21,32.21L357.12,-65.55L386.81,-64.83L387.05,-74.72L357.36,-75.45L378.12,-114.55L358.32,-115.04L347.70,-85.59L327.67,-76.17L307.87,-76.66L307.63,-66.76L327.43,-66.28L275.52,31.48L275.28,41.38L284.94,51.52L304.73,52.00L324.77,42.59L375.46,-5.69L365.81,-15.83L315.11,32.45ZM496.64,-101.76L506.54,-101.52L516.92,-121.07L517.16,-130.97L497.61,-141.35L487.71,-141.59L477.33,-122.04L477.09,-112.14ZM385.84,-25.24L395.50,-15.10L446.19,-63.38L456.09,-63.14L394.29,34.38L394.05,44.28L403.70,54.42L423.50,54.90L443.53,45.49L494.23,-2.79L484.57,-12.93L433.88,35.35L423.98,35.11L485.78,-62.41L486.02,-72.31L466.47,-82.69L436.53,-73.52ZM542.26,57.80L562.05,58.29L612.26,29.80L643.41,-28.85L624.58,-68.93L585.23,-79.79L535.02,-51.31L503.88,7.35L522.71,47.42ZM584.75,-59.99L604.54,-59.51L613.71,-29.58L592.95,9.53L562.54,38.49L542.74,38.01L533.57,8.08L554.33,-31.03ZM653.06,-18.72L662.72,-8.58L713.41,-56.85L723.31,-56.61L661.27,50.81L670.92,60.94L690.72,61.43L732.24,-16.78L762.65,-45.75L782.69,-55.16L792.35,-45.02L740.68,42.84L740.44,52.74L750.10,62.88L769.89,63.36L789.93,53.95L840.62,5.67L830.97,-4.47L780.27,43.81L770.38,43.57L821.79,-34.40L822.52,-64.09L793.07,-74.71L763.14,-65.54L732.72,-36.58L743.10,-56.13L743.34,-66.03L733.69,-76.16L703.75,-66.99Z" fill="#ffffff" stroke="#000000"/>
    <path d="M-202.65,-210.06L-221.27,-230.59L-189.99,-268.31L-131.26,-265.44L-121.95,-255.18L-123.39,-225.81L-143.92,-207.19L-75.40,-203.84L-94.02,-224.38L-84.93,-410.35L-115.26,-392.21L-115.73,-382.42L-240.85,-231.55L-271.17,-213.41ZM-116.69,-362.85L-120.52,-284.54L-130.78,-275.23L-179.73,-277.62L-168.98,-296.72ZM-61.79,-281.67L-52.48,-271.40L-1.14,-317.95L8.64,-317.48L-55.35,-212.67L-46.04,-202.41L-26.46,-201.45L16.52,-277.84L47.32,-305.78L67.37,-314.61L76.68,-304.34L23.44,-218.64L22.96,-208.85L32.27,-198.58L51.85,-197.63L71.90,-206.46L123.23,-253.01L113.92,-263.27L62.59,-216.72L52.80,-217.20L105.57,-293.12L107.01,-322.48L78.12,-333.71L48.28,-325.35L17.48,-297.42L28.22,-316.52L28.70,-326.31L19.39,-336.57L-10.45,-328.22ZM-859.78,-14.54L-803.18,-168.76L-772.86,-186.90L-851.17,-190.73L-832.55,-170.19L-889.14,-15.97L-919.46,2.17L-841.15,6.00ZM-807.96,-70.88L-798.65,-60.61L-747.32,-107.16L-737.53,-106.68L-801.52,-1.88L-792.21,8.39L-772.64,9.34L-729.66,-67.05L-698.86,-94.98L-678.80,-103.81L-669.49,-93.54L-722.74,-7.84L-723.22,1.95L-713.91,12.21L-694.33,13.17L-674.28,4.34L-622.94,-42.21L-632.25,-52.48L-683.59,-5.93L-693.37,-6.41L-640.61,-82.32L-639.17,-111.69L-668.06,-122.91L-697.90,-114.56L-728.70,-86.63L-717.96,-105.72L-717.48,-115.51L-726.79,-125.78L-756.63,-117.43ZM-595.49,-1.62L-541.77,-97.12L-512.40,-95.68L-511.92,-105.47L-541.29,-106.90L-519.80,-145.10L-539.37,-146.06L-550.60,-117.17L-570.65,-108.34L-590.23,-109.30L-590.71,-99.51L-571.13,-98.55L-624.86,-3.06L-625.33,6.73L-616.02,17.00L-596.45,17.95L-576.39,9.12L-525.06,-37.43L-534.37,-47.70L-585.70,-1.15ZM-514.31,-56.53L-505.00,-46.26L-453.67,-92.81L-443.88,-92.33L-507.87,12.47L-498.56,22.74L-478.99,23.69L-436.01,-52.70L-405.69,-70.84L-376.32,-69.41L-365.10,-98.29L-384.20,-109.04L-404.25,-100.21L-435.53,-62.49L-445.32,-62.97L-424.31,-91.38L-423.83,-101.16L-433.14,-111.43L-462.98,-103.08ZM-341.95,30.39L-322.37,31.34L-272.00,4.37L-239.76,-52.92L-257.43,-93.03L-296.10,-104.74L-346.48,-77.76L-378.71,-20.47L-361.05,19.64ZM-297.06,-85.16L-277.48,-84.20L-269.13,-54.36L-290.62,-16.16L-321.42,11.77L-340.99,10.81L-349.35,-19.03L-327.86,-57.23ZM-136.40,40.43L-126.61,40.91L-106.55,32.08L-55.22,-14.47L-64.53,-24.74L-115.86,21.81L-125.65,21.33L-28.47,-160.34L-96.99,-163.69L-97.47,-153.90L-68.10,-152.47L-101.77,-65.81L-110.60,-85.86L-149.28,-97.56L-200.13,-60.80L-222.10,-12.81L-214.22,26.82L-195.13,37.56L-175.55,38.52L-144.75,10.59L-145.71,30.17ZM-174.59,18.94L-184.38,18.46L-192.73,-11.38L-171.24,-49.58L-140.44,-77.51L-120.87,-76.55L-112.04,-56.50L-112.51,-46.71L-143.79,-8.99ZM130.76,-5.39L121.45,-15.65L70.12,30.90L60.33,30.42L123.84,-64.59L114.53,-74.86L94.95,-75.82L52.45,-9.21L11.39,28.03L1.60,27.55L-7.23,7.50L45.53,-68.42L46.01,-78.21L26.91,-88.95L-2.93,-80.60L-54.26,-34.05L-44.95,-23.78L6.38,-70.33L16.17,-69.85L-36.60,6.06L-28.25,35.90L-9.15,46.65L10.43,47.61L41.23,19.68L40.27,39.25L49.58,49.52L59.37,50.00L79.43,41.17ZM269.23,-28.05L270.19,-47.63L261.35,-67.69L222.68,-79.39L172.30,-52.41L140.07,4.88L147.94,44.51L167.04,55.26L186.62,56.21L206.67,47.38L247.74,10.14L238.43,-0.12L197.36,37.12L177.79,36.16L169.43,6.32L190.92,-31.88L221.72,-59.81L241.30,-58.85L239.86,-29.49ZM295.25,41.90L348.97,-53.59L378.34,-52.16L378.81,-61.95L349.45,-63.38L370.94,-101.58L351.36,-102.53L340.14,-73.65L320.08,-64.82L300.51,-65.77L300.03,-55.98L319.61,-55.03L265.88,40.46L265.40,50.25L274.71,60.52L294.29,61.48L314.35,52.64L365.68,6.09L356.37,-4.17L305.04,42.38ZM487.92,-86.05L497.71,-85.57L508.45,-104.67L508.93,-114.46L489.83,-125.20L480.05,-125.68L469.30,-106.58L468.82,-96.80ZM376.42,-13.00L385.73,-2.74L437.07,-49.29L446.85,-48.81L383.34,46.20L382.86,55.99L392.17,66.26L411.75,67.21L431.81,58.38L483.14,11.83L473.83,1.57L422.50,48.12L412.71,47.64L476.22,-47.38L476.70,-57.16L457.60,-67.91L427.76,-59.56ZM529.21,72.95L548.79,73.91L599.16,46.94L631.40,-10.36L613.73,-50.47L575.06,-62.17L524.68,-35.20L492.45,22.10L510.11,62.21ZM574.10,-42.59L593.68,-41.64L602.03,-11.79L580.54,26.40L549.74,54.33L530.17,53.38L521.81,23.53L543.30,-14.66ZM640.71,-0.09L650.02,10.17L701.35,-36.38L711.14,-35.90L647.15,68.90L656.46,79.17L676.04,80.13L719.01,3.73L749.81,-24.20L769.87,-33.03L779.18,-22.76L725.93,62.94L725.45,72.73L734.76,83.00L754.34,83.95L774.40,75.12L825.73,28.57L816.42,18.31L765.09,64.86L755.30,64.38L808.07,-11.54L809.50,-40.90L780.61,-52.13L750.77,-43.77L719.97,-15.84L730.72,-34.94L731.19,-44.73L721.88,-55.00L692.04,-46.64Z" fill="#ffffff" stroke="#000000"/>
    <path d="M-201.46,-210.27L-219.39,-231.04L-187.53,-267.61L-129.49,-263.35L-120.52,-252.97L-122.65,-223.94L-143.42,-206.02L-75.70,-201.05L-93.63,-221.82L-80.15,-405.62L-110.59,-388.40L-111.30,-378.73L-238.74,-232.46L-269.18,-215.24ZM-112.72,-359.38L-118.39,-281.99L-128.78,-273.02L-177.15,-276.57L-166.06,-295.21ZM-60.35,-277.73L-51.39,-267.35L0.53,-312.17L10.21,-311.46L-55.64,-209.30L-46.68,-198.92L-27.33,-197.50L17.04,-272.05L48.19,-298.95L68.25,-307.20L77.21,-296.82L22.46,-213.30L21.75,-203.62L30.71,-193.24L50.06,-191.82L70.12,-200.08L122.04,-244.90L113.07,-255.28L61.15,-210.46L51.48,-211.17L105.53,-285.01L107.66,-314.03L79.34,-325.84L49.61,-318.29L18.46,-291.40L29.55,-310.04L30.26,-319.71L21.30,-330.10L-8.43,-322.55ZM-856.41,-32.68L-796.69,-183.92L-766.25,-201.13L-843.64,-206.81L-825.71,-186.04L-885.44,-34.81L-915.88,-17.59L-838.49,-11.91ZM-803.79,-87.18L-794.82,-76.79L-742.90,-121.61L-733.23,-120.90L-799.08,-18.75L-790.12,-8.36L-770.77,-6.94L-726.39,-81.50L-695.24,-108.39L-675.19,-116.64L-666.22,-106.26L-720.98,-22.74L-721.69,-13.07L-712.72,-2.69L-693.38,-1.27L-673.32,-9.52L-621.40,-54.34L-630.36,-64.73L-682.28,-19.90L-691.96,-20.61L-637.91,-94.46L-635.78,-123.48L-664.09,-135.28L-693.82,-127.74L-724.97,-100.85L-713.88,-119.48L-713.17,-129.16L-722.14,-139.54L-751.87,-132.00ZM-595.22,-13.52L-539.75,-106.71L-510.73,-104.58L-510.02,-114.25L-539.04,-116.38L-516.85,-153.66L-536.20,-155.08L-548.00,-126.77L-568.06,-118.51L-587.41,-119.93L-588.12,-110.26L-568.77,-108.84L-624.24,-15.65L-624.95,-5.97L-615.98,4.41L-596.64,5.83L-576.58,-2.42L-524.66,-47.24L-533.62,-57.63L-585.54,-12.81ZM-513.57,-65.88L-504.60,-55.50L-452.68,-100.32L-443.01,-99.61L-508.86,2.54L-499.90,12.93L-480.55,14.35L-436.17,-60.21L-405.73,-77.42L-376.71,-75.30L-364.91,-103.61L-383.55,-114.70L-403.60,-106.45L-435.46,-69.88L-445.14,-70.59L-423.66,-98.19L-422.95,-107.87L-431.92,-118.25L-461.65,-110.70ZM-345.11,24.28L-325.76,25.70L-275.26,0.23L-241.98,-55.68L-258.49,-95.80L-296.48,-108.31L-346.98,-82.84L-380.26,-26.92L-363.75,13.19ZM-297.90,-88.97L-278.55,-87.55L-271.01,-57.81L-293.19,-20.54L-324.34,6.36L-343.69,4.94L-351.24,-24.80L-329.05,-62.07ZM-141.96,39.19L-132.28,39.90L-112.23,31.64L-60.31,-13.18L-69.27,-23.56L-121.19,21.26L-130.86,20.55L-30.31,-156.87L-98.03,-161.84L-98.74,-152.16L-69.72,-150.03L-105.13,-65.10L-113.38,-85.15L-151.37,-97.67L-202.58,-62.52L-225.48,-15.57L-218.64,23.84L-200.00,34.93L-180.65,36.35L-149.50,9.46L-150.92,28.80ZM-179.23,17.00L-188.91,16.29L-196.45,-13.44L-174.27,-50.72L-143.12,-77.61L-123.77,-76.19L-115.51,-56.13L-116.22,-46.46L-148.08,-9.89ZM123.50,0.31L114.53,-10.08L62.62,34.74L52.94,34.03L118.08,-58.45L109.12,-68.83L89.77,-70.25L46.11,-5.37L4.57,30.49L-5.10,29.78L-13.36,9.72L40.69,-64.12L41.40,-73.80L22.76,-84.89L-6.97,-77.35L-58.89,-32.53L-49.92,-22.14L1.99,-66.96L11.67,-66.25L-42.38,7.59L-34.83,37.32L-16.20,48.41L3.15,49.83L34.30,22.94L32.88,42.29L41.85,52.67L51.52,53.38L71.58,45.13ZM261.06,-18.78L262.48,-38.13L254.23,-58.18L216.24,-70.70L165.74,-45.22L132.46,10.69L139.30,50.10L157.94,61.19L177.28,62.61L197.34,54.35L238.88,18.50L229.91,8.11L188.38,43.97L169.03,42.55L161.48,12.82L183.67,-24.46L214.82,-51.35L234.17,-49.93L232.04,-20.91ZM285.12,51.07L340.58,-42.12L369.61,-39.99L370.32,-49.67L341.29,-51.80L363.48,-89.07L344.13,-90.49L332.33,-62.18L312.27,-53.93L292.92,-55.35L292.21,-45.67L311.56,-44.25L256.10,48.94L255.39,58.61L264.35,69.00L283.70,70.42L303.76,62.16L355.67,17.34L346.71,6.96L294.79,51.78ZM478.86,-70.88L488.53,-70.17L499.63,-88.81L500.34,-98.49L481.70,-109.58L472.02,-110.29L460.93,-91.65L460.22,-81.98ZM366.77,-1.30L375.73,9.09L427.65,-35.74L437.32,-35.03L372.18,57.46L371.47,67.13L380.44,77.51L399.79,78.93L419.84,70.68L471.76,25.86L462.80,15.47L410.88,60.29L401.21,59.59L466.35,-32.90L467.06,-42.57L448.42,-53.66L418.69,-46.12ZM515.87,87.45L535.22,88.87L585.72,63.40L619.00,7.48L602.49,-32.63L564.51,-45.15L514.01,-19.67L480.73,36.24L497.24,76.36ZM563.09,-25.80L582.43,-24.38L589.98,5.35L567.79,42.63L536.64,69.52L517.29,68.10L509.75,38.37L531.94,1.09ZM627.97,17.86L636.93,28.25L688.85,-16.57L698.52,-15.86L632.67,86.29L641.64,96.68L660.98,98.10L705.36,23.54L736.51,-3.35L756.57,-11.60L765.53,-1.22L710.77,82.30L710.06,91.97L719.03,102.35L738.38,103.77L758.43,95.52L810.35,50.70L801.39,40.31L749.47,85.14L739.80,84.43L793.84,10.58L795.97,-18.44L767.66,-30.24L737.93,-22.70L706.78,4.19L717.87,-14.44L718.58,-24.12L709.62,-34.50L679.88,-26.96Z" fill="#ffffff" stroke="#000000"/>
    <path d="M-200.26,-210.61L-217.50,-231.59L-185.09,-267.00L-127.77,-261.38L-119.15,-250.89L-121.96,-222.23L-142.94,-204.99L-76.06,-198.44L-93.29,-219.42L-75.51,-400.95L-106.05,-384.65L-106.98,-375.10L-236.61,-233.46L-267.14,-217.16ZM-108.85,-355.99L-116.34,-279.55L-126.83,-270.94L-174.60,-275.61L-163.18,-293.79ZM-59.01,-273.94L-50.40,-263.45L2.05,-306.54L11.61,-305.60L-56.01,-206.12L-47.39,-195.63L-28.29,-193.76L17.42,-266.45L48.89,-292.31L68.93,-299.99L77.55,-289.50L21.36,-208.19L20.42,-198.64L29.04,-188.15L48.15,-186.27L68.19,-193.96L120.64,-237.05L112.03,-247.54L59.58,-204.45L50.02,-205.38L105.28,-277.14L108.09,-305.80L80.36,-318.16L50.76,-311.41L19.29,-285.56L30.72,-303.73L31.65,-313.29L23.03,-323.78L-6.56,-317.03ZM-852.56,-50.72L-789.81,-198.91L-759.28,-215.21L-835.71,-222.69L-818.47,-201.71L-881.22,-53.52L-911.75,-37.22L-835.32,-29.74ZM-799.17,-103.36L-790.55,-92.87L-738.10,-135.96L-728.55,-135.03L-796.17,-35.55L-787.55,-25.06L-768.44,-23.19L-722.74,-95.88L-691.27,-121.73L-671.22,-129.41L-662.60,-118.92L-718.80,-37.61L-719.73,-28.06L-711.11,-17.57L-692.01,-15.70L-671.96,-23.38L-619.51,-66.47L-628.13,-76.96L-680.58,-33.87L-690.13,-34.81L-634.88,-106.56L-632.07,-135.22L-659.79,-147.59L-689.39,-140.84L-720.86,-114.98L-709.44,-133.16L-708.50,-142.71L-717.12,-153.20L-746.72,-146.45ZM-594.59,-25.45L-537.46,-116.31L-508.80,-113.50L-507.86,-123.06L-536.53,-125.87L-513.67,-162.21L-532.78,-164.08L-545.14,-136.36L-565.19,-128.67L-584.30,-130.54L-585.23,-120.99L-566.12,-119.12L-623.25,-28.26L-624.19,-18.70L-615.57,-8.21L-596.46,-6.34L-576.42,-14.02L-523.97,-57.11L-532.59,-67.60L-585.04,-24.51ZM-512.54,-75.29L-503.92,-64.80L-451.47,-107.89L-441.92,-106.95L-509.54,-7.47L-500.92,3.02L-481.81,4.89L-436.11,-67.80L-405.57,-84.10L-376.91,-81.29L-364.55,-109.02L-382.72,-120.45L-402.77,-112.76L-435.17,-77.35L-444.73,-78.29L-422.81,-105.08L-421.87,-114.63L-430.49,-125.12L-460.09,-118.38ZM-348.05,17.99L-328.94,19.87L-278.36,-4.12L-244.09,-58.64L-259.45,-98.72L-296.73,-112.02L-347.31,-88.04L-381.59,-33.52L-366.22,6.57ZM-298.60,-92.91L-279.50,-91.04L-272.75,-61.44L-295.60,-25.10L-327.07,0.76L-346.18,-1.11L-352.93,-30.71L-330.07,-67.06ZM-147.41,37.65L-137.86,38.58L-117.81,30.90L-65.36,-12.19L-73.98,-22.68L-126.43,20.41L-135.99,19.48L-32.22,-153.63L-99.10,-160.18L-100.03,-150.63L-71.37,-147.82L-108.45,-64.64L-116.14,-84.69L-153.42,-97.98L-204.93,-64.45L-228.72,-18.55L-222.91,20.61L-204.74,32.03L-185.63,33.90L-154.16,8.05L-156.03,27.16ZM-183.76,14.80L-193.31,13.86L-200.06,-15.74L-177.21,-52.08L-145.74,-77.94L-126.63,-76.07L-118.94,-56.02L-119.88,-46.47L-152.29,-11.06ZM116.17,5.59L107.55,-4.90L55.10,38.19L45.54,37.26L112.23,-52.67L103.61,-63.16L84.50,-65.03L39.73,-1.90L-2.23,32.58L-11.78,31.64L-19.46,11.60L35.80,-60.16L36.73,-69.71L18.56,-81.14L-11.04,-74.39L-63.49,-31.30L-54.87,-20.81L-2.42,-63.90L7.13,-62.96L-48.13,8.79L-41.38,38.39L-23.21,49.81L-4.10,51.69L27.37,25.83L25.50,44.94L34.12,55.43L43.67,56.37L63.72,48.68ZM252.74,-9.97L254.61,-29.08L246.93,-49.12L209.64,-62.42L159.06,-38.44L124.79,16.08L130.60,55.23L148.77,66.66L167.88,68.53L187.92,60.85L229.88,26.38L221.27,15.89L179.30,50.36L160.20,48.49L153.45,18.89L176.30,-17.46L207.77,-43.31L226.88,-41.44L224.07,-12.78ZM274.85,59.72L331.98,-31.14L360.64,-28.34L361.58,-37.89L332.91,-40.70L355.77,-77.04L336.66,-78.92L324.30,-51.19L304.25,-43.51L285.14,-45.38L284.21,-35.82L303.31,-33.95L246.18,56.91L245.25,66.47L253.87,76.96L272.98,78.83L293.02,71.15L345.47,28.05L336.85,17.56L284.40,60.66ZM469.48,-56.26L479.04,-55.32L490.46,-73.50L491.40,-83.05L473.22,-94.48L463.67,-95.41L452.24,-77.24L451.31,-67.68ZM356.90,9.88L365.52,20.37L417.97,-22.72L427.52,-21.78L360.84,68.14L359.90,77.70L368.52,88.19L387.63,90.06L407.67,82.38L460.12,39.28L451.50,28.79L399.05,71.89L389.50,70.95L456.18,-18.98L457.12,-28.53L438.95,-39.96L409.35,-33.21ZM502.28,101.29L521.39,103.16L571.97,79.18L606.24,24.66L590.88,-15.43L553.60,-28.73L503.02,-4.74L468.74,49.77L484.11,89.86ZM551.73,-9.62L570.83,-7.75L577.58,21.85L554.73,58.20L523.26,84.05L504.15,82.18L497.40,52.58L520.26,16.24ZM614.86,35.15L623.48,45.64L675.93,2.55L685.49,3.48L617.87,102.97L626.48,113.46L645.59,115.33L691.30,42.64L722.77,16.78L742.81,9.10L751.43,19.59L695.24,100.90L694.30,110.45L702.92,120.94L722.03,122.82L742.07,115.13L794.52,72.04L785.90,61.55L733.45,104.64L723.90,103.71L779.16,31.95L781.96,3.29L754.24,-9.07L724.64,-2.33L693.17,23.53L704.59,5.36L705.53,-4.20L696.91,-14.69L667.31,-7.94Z" fill="#ffffff" stroke="#000000"/>
    <path d="M-199.03,-211.05L-215.58,-232.23L-182.67,-266.47L-126.09,-259.53L-117.82,-248.95L-121.29,-220.66L-142.46,-204.11L-76.45,-196.02L-93.00,-217.19L-71.02,-396.35L-101.62,-380.96L-102.78,-371.53L-234.44,-234.54L-265.04,-219.15ZM-105.09,-352.67L-114.35,-277.23L-124.93,-268.96L-172.08,-274.75L-160.34,-292.45ZM-57.77,-270.29L-49.50,-259.71L3.43,-301.07L12.86,-299.92L-56.44,-203.13L-48.17,-192.55L-29.31,-190.23L17.66,-261.04L49.42,-285.86L69.44,-292.98L77.71,-282.39L20.15,-203.31L19.00,-193.88L27.27,-183.29L46.13,-180.98L66.14,-188.10L119.07,-229.46L110.80,-240.05L57.87,-198.68L48.44,-199.84L104.84,-269.49L108.31,-297.78L81.18,-310.68L51.74,-304.72L19.98,-279.90L31.72,-297.60L32.88,-307.03L24.60,-317.62L-4.84,-311.66ZM-848.20,-68.63L-782.55,-213.72L-751.95,-229.11L-827.38,-238.36L-810.84,-217.19L-876.49,-72.10L-907.09,-56.71L-831.66,-47.46ZM-794.12,-119.42L-785.84,-108.84L-732.92,-150.20L-723.49,-149.05L-792.78,-52.26L-784.51,-41.68L-765.65,-39.36L-718.68,-110.17L-686.93,-134.99L-666.91,-142.11L-658.64,-131.52L-716.19,-52.44L-717.35,-43.01L-709.08,-32.42L-690.22,-30.11L-670.20,-37.23L-617.27,-78.59L-625.55,-89.18L-678.48,-47.81L-687.91,-48.97L-631.51,-118.62L-628.04,-146.91L-655.17,-159.81L-684.61,-153.85L-716.37,-129.03L-704.63,-146.73L-703.47,-156.16L-711.74,-166.75L-741.19,-160.79ZM-593.61,-37.40L-534.90,-125.91L-506.61,-122.44L-505.45,-131.87L-533.74,-135.34L-510.26,-170.75L-529.12,-173.06L-542.02,-145.93L-562.03,-138.81L-580.89,-141.12L-582.05,-131.70L-563.19,-129.38L-621.90,-40.87L-623.06,-31.44L-614.78,-20.86L-595.93,-18.54L-575.91,-25.66L-522.98,-67.02L-531.25,-77.61L-584.18,-36.25ZM-511.24,-84.73L-502.97,-74.14L-450.04,-115.50L-440.61,-114.35L-509.91,-17.56L-501.63,-6.98L-482.77,-4.66L-435.80,-75.47L-405.20,-90.86L-376.91,-87.39L-364.01,-114.52L-381.72,-126.26L-401.73,-119.15L-434.65,-84.90L-444.08,-86.06L-421.75,-112.03L-420.59,-121.46L-428.86,-132.05L-458.31,-126.09ZM-350.76,11.53L-331.90,13.84L-281.29,-8.66L-246.06,-61.77L-260.29,-101.80L-296.85,-115.85L-347.47,-93.35L-382.70,-40.24L-368.47,-0.21ZM-299.17,-97.00L-280.31,-94.68L-274.35,-65.24L-297.83,-29.83L-329.59,-5.02L-348.45,-7.33L-354.41,-36.77L-330.92,-72.18ZM-152.75,35.82L-143.32,36.98L-123.30,29.86L-70.37,-11.50L-78.65,-22.09L-131.58,19.27L-141.00,18.12L-34.16,-150.63L-100.17,-158.73L-101.33,-149.30L-73.04,-145.83L-111.74,-64.43L-118.85,-84.45L-155.41,-98.50L-207.19,-66.57L-231.83,-21.74L-227.03,17.14L-209.32,28.88L-190.46,31.19L-158.71,6.37L-161.02,25.23ZM-188.15,12.33L-197.58,11.18L-203.54,-18.27L-180.05,-53.67L-148.30,-78.49L-129.44,-76.18L-122.32,-56.16L-123.48,-46.73L-156.39,-12.48ZM108.78,10.47L100.51,-0.11L47.58,41.25L38.15,40.09L106.29,-47.26L98.02,-57.85L79.16,-60.16L33.35,1.22L-8.99,34.31L-18.42,33.15L-25.54,13.14L30.86,-56.51L32.02,-65.94L14.31,-77.69L-15.13,-71.73L-68.06,-30.36L-59.79,-19.78L-6.86,-61.14L2.57,-59.98L-53.83,9.67L-47.87,39.11L-30.17,50.86L-11.31,53.17L20.45,28.35L18.14,47.21L26.41,57.80L35.84,58.95L55.85,51.84ZM244.26,-1.62L246.58,-20.48L239.46,-40.50L202.90,-54.55L152.28,-32.05L117.06,21.06L121.86,59.93L139.56,71.68L158.42,73.99L178.44,66.87L220.78,33.78L212.51,23.20L170.16,56.29L151.30,53.97L145.34,24.53L168.83,-10.88L200.59,-35.69L219.45,-33.38L215.98,-5.09ZM264.46,67.85L323.17,-20.66L351.46,-17.19L352.61,-26.62L324.33,-30.09L347.81,-65.49L328.95,-67.80L316.05,-40.67L296.04,-33.56L277.18,-35.87L276.02,-26.44L294.88,-24.13L236.17,64.38L235.01,73.81L243.28,84.40L262.14,86.71L282.16,79.60L335.09,38.23L326.82,27.65L273.89,69.01ZM459.81,-42.18L469.24,-41.02L480.98,-58.73L482.14,-68.16L464.43,-79.90L455.00,-81.05L443.26,-63.35L442.10,-53.92ZM346.83,20.53L355.10,31.12L408.03,-10.25L417.46,-9.09L349.32,78.26L348.16,87.69L356.44,98.28L375.29,100.59L395.31,93.48L448.24,52.11L439.97,41.53L387.04,82.89L377.61,81.73L445.75,-5.62L446.91,-15.05L429.21,-26.79L399.76,-20.83ZM488.45,114.47L507.31,116.78L557.92,94.28L593.15,41.17L578.92,1.14L542.36,-12.91L491.74,9.59L456.51,62.70L470.74,102.73ZM540.04,5.95L558.90,8.26L564.86,37.70L541.38,73.11L509.62,97.93L490.76,95.61L484.80,66.17L508.29,30.76ZM601.42,51.76L609.70,62.35L662.62,20.98L672.05,22.14L602.76,118.92L611.03,129.51L629.89,131.82L676.86,61.01L708.61,36.20L728.63,29.08L736.90,39.67L679.35,118.75L678.19,128.18L686.46,138.76L705.32,141.07L725.34,133.96L778.27,92.60L769.99,82.01L717.06,123.37L707.63,122.22L764.03,52.56L767.50,24.28L740.37,11.38L710.93,17.34L679.17,42.15L690.91,24.45L692.07,15.02L683.80,4.44L654.35,10.40Z" fill="#ffffff" stroke="#000000"/>
    <path d="M-197.77,-211.61L-213.63,-232.95L-180.24,-266.03L-124.45,-257.80L-116.52,-247.13L-120.64,-219.23L-141.98,-203.38L-76.88,-193.78L-92.74,-215.12L-66.67,-391.81L-97.31,-377.32L-98.69,-368.02L-232.23,-235.70L-262.87,-221.21ZM-101.43,-349.42L-112.40,-275.03L-123.08,-267.10L-169.57,-273.96L-157.53,-291.19ZM-56.61,-266.80L-48.68,-256.13L4.68,-295.76L13.97,-294.39L-56.91,-200.33L-48.98,-189.66L-30.39,-186.92L17.79,-255.82L49.80,-279.61L69.77,-286.16L77.70,-275.49L18.85,-198.66L17.48,-189.36L25.41,-178.68L44.01,-175.94L63.98,-182.50L117.34,-222.13L109.41,-232.81L56.05,-193.17L46.75,-194.54L104.22,-262.08L108.34,-289.97L81.81,-303.39L52.54,-298.20L20.53,-274.42L32.57,-291.65L33.95,-300.95L26.02,-311.62L-3.25,-306.44ZM-843.36,-86.41L-774.91,-228.34L-744.27,-242.82L-818.67,-253.80L-802.81,-232.45L-871.26,-90.52L-901.90,-76.04L-827.50,-65.07ZM-788.63,-135.35L-780.70,-124.67L-727.35,-164.31L-718.05,-162.94L-788.93,-68.88L-781.01,-58.21L-762.41,-55.46L-714.24,-124.37L-682.22,-148.15L-662.25,-154.71L-654.32,-144.04L-713.17,-67.20L-714.54,-57.90L-706.61,-47.23L-688.01,-44.49L-668.04,-51.04L-614.69,-90.68L-622.61,-101.35L-675.97,-61.71L-685.27,-63.09L-627.80,-130.62L-623.68,-158.52L-650.21,-171.93L-679.48,-166.75L-711.49,-142.97L-699.45,-160.20L-698.08,-169.49L-706.01,-180.17L-735.28,-174.98ZM-592.28,-49.37L-532.06,-135.50L-504.16,-131.39L-502.79,-140.69L-530.69,-144.80L-506.60,-179.25L-525.20,-182.00L-538.62,-155.47L-558.59,-148.92L-577.19,-151.66L-578.56,-142.36L-559.96,-139.62L-620.17,-53.48L-621.55,-44.18L-613.62,-33.51L-595.02,-30.77L-575.05,-37.32L-521.69,-76.96L-529.62,-87.63L-582.98,-48.00ZM-509.65,-94.19L-501.72,-83.52L-448.37,-123.16L-439.07,-121.78L-509.95,-27.72L-502.03,-17.05L-483.43,-14.31L-435.26,-83.21L-404.61,-97.70L-376.72,-93.58L-363.30,-120.11L-380.53,-132.15L-400.50,-125.60L-433.88,-92.51L-443.18,-93.89L-420.47,-119.04L-419.10,-128.34L-427.02,-139.01L-456.29,-133.83ZM-353.24,4.90L-334.64,7.64L-284.03,-13.40L-247.90,-65.08L-261.01,-105.02L-296.83,-119.80L-347.45,-98.77L-383.58,-47.08L-370.46,-7.14ZM-299.58,-101.21L-280.98,-98.46L-275.79,-69.19L-299.88,-34.74L-331.89,-10.96L-350.49,-13.70L-355.68,-42.97L-331.59,-77.42ZM-157.95,33.71L-148.65,35.08L-128.68,28.53L-75.32,-11.11L-83.25,-21.78L-136.61,17.85L-145.91,16.48L-36.15,-147.86L-101.24,-157.46L-102.62,-148.16L-74.72,-144.05L-114.96,-64.47L-121.52,-84.44L-157.34,-99.23L-209.33,-68.89L-234.79,-25.13L-230.97,13.43L-213.75,25.48L-195.15,28.22L-163.13,4.44L-165.88,23.04ZM-192.40,9.62L-201.70,8.25L-206.89,-21.02L-182.80,-55.47L-150.79,-79.26L-132.19,-76.51L-125.63,-56.54L-127.01,-47.24L-160.39,-14.16ZM101.36,14.95L93.44,4.28L40.08,43.92L30.78,42.55L100.29,-42.21L92.37,-52.89L73.77,-55.63L26.97,3.98L-15.72,35.69L-25.02,34.32L-31.57,14.35L25.90,-53.19L27.27,-62.49L10.05,-74.53L-19.22,-69.35L-72.58,-29.71L-64.65,-19.04L-11.30,-58.68L-2.00,-57.31L-59.47,10.23L-54.29,39.50L-37.06,51.54L-18.46,54.29L13.55,30.50L10.81,49.10L18.74,59.77L28.04,61.15L48.01,54.59ZM235.67,6.26L238.41,-12.34L231.86,-32.31L196.03,-47.09L145.42,-26.06L109.29,25.62L113.10,64.19L130.33,76.24L148.93,78.98L168.90,72.43L211.58,40.72L203.66,30.04L160.97,61.75L142.37,59.01L137.19,29.74L161.27,-4.71L193.29,-28.50L211.89,-25.75L207.77,2.15ZM253.96,75.47L314.18,-10.66L342.08,-6.55L343.45,-15.85L315.55,-19.96L339.64,-54.41L321.04,-57.16L307.62,-30.63L287.65,-24.08L269.06,-26.82L267.68,-17.52L286.28,-14.78L226.07,71.36L224.69,80.66L232.62,91.33L251.22,94.07L271.19,87.52L324.55,47.88L316.62,37.21L263.26,76.84ZM449.86,-28.65L459.16,-27.28L471.20,-44.51L472.57,-53.81L455.35,-65.85L446.05,-67.22L434.00,-50.00L432.63,-40.70ZM336.59,30.65L344.52,41.32L397.87,1.69L407.17,3.06L337.66,87.82L336.29,97.12L344.21,107.79L362.81,110.53L382.78,103.98L436.14,64.34L428.21,53.67L374.86,93.31L365.56,91.94L435.07,7.17L436.44,-2.13L419.22,-14.17L389.95,-8.99ZM474.41,127.00L493.00,129.74L543.62,108.70L579.75,57.02L566.63,17.08L530.81,2.29L480.20,23.33L444.07,75.01L457.18,114.95ZM528.07,20.89L546.66,23.64L551.85,52.91L527.76,87.36L495.75,111.14L477.15,108.40L471.97,79.13L496.05,44.67ZM587.67,67.69L595.60,78.36L648.96,38.73L658.26,40.10L587.37,134.16L595.30,144.83L613.90,147.57L662.07,78.67L694.08,54.88L714.05,48.33L721.98,59.00L663.14,135.84L661.76,145.13L669.69,155.81L688.29,158.55L708.26,151.99L761.62,112.36L753.69,101.69L700.33,141.32L691.03,139.95L748.51,72.42L752.62,44.52L726.10,31.10L696.83,36.29L664.81,60.07L676.85,42.84L678.23,33.54L670.30,22.87L641.03,28.05Z" fill="#ffffff" stroke="#000000"/>
    <path d="M-196.48,-212.27L-211.64,-233.76L-177.82,-265.68L-122.83,-256.19L-115.25,-245.44L-120.00,-217.95L-141.49,-202.78L-77.34,-191.71L-92.50,-213.20L-62.45,-387.33L-93.11,-373.75L-94.69,-364.58L-229.97,-236.93L-260.63,-223.34ZM-97.86,-346.25L-110.51,-272.94L-121.25,-265.35L-167.08,-273.26L-154.75,-290.01ZM-55.52,-263.45L-47.94,-252.70L5.79,-290.62L14.96,-289.04L-57.43,-197.71L-49.84,-186.97L-31.51,-183.81L17.80,-250.80L50.03,-273.55L69.95,-279.55L77.53,-268.80L17.47,-194.23L15.89,-185.06L23.47,-174.32L41.80,-171.15L61.71,-177.16L115.44,-215.07L107.86,-225.82L54.13,-187.90L44.97,-189.48L103.44,-254.89L108.18,-282.39L82.27,-296.30L53.20,-291.87L20.96,-269.13L33.29,-285.87L34.87,-295.04L27.29,-305.78L-1.79,-301.36ZM-838.03,-104.03L-766.90,-242.76L-736.24,-256.34L-809.56,-268.99L-794.39,-247.50L-865.52,-108.77L-896.18,-95.19L-822.86,-82.54ZM-782.71,-151.11L-775.13,-140.36L-721.40,-178.28L-712.24,-176.70L-784.62,-85.38L-777.04,-74.63L-758.71,-71.47L-709.40,-138.46L-677.16,-161.21L-657.25,-167.21L-649.67,-156.46L-709.72,-81.89L-711.30,-72.72L-703.72,-61.98L-685.39,-58.82L-665.48,-64.82L-611.75,-102.73L-619.33,-113.48L-673.06,-75.56L-682.23,-77.14L-623.75,-142.55L-619.01,-170.05L-644.92,-183.96L-674.00,-179.54L-706.23,-156.79L-693.91,-173.53L-692.33,-182.70L-699.91,-193.45L-728.98,-189.03ZM-590.58,-61.33L-528.95,-145.07L-501.45,-140.32L-499.87,-149.49L-527.36,-154.23L-502.71,-187.73L-521.04,-190.89L-534.95,-164.98L-554.86,-158.98L-573.19,-162.14L-574.77,-152.98L-556.44,-149.81L-618.08,-66.07L-619.66,-56.91L-612.07,-46.16L-593.75,-43.00L-573.83,-49.00L-520.10,-86.92L-527.69,-97.66L-581.42,-59.75ZM-507.78,-103.67L-500.19,-92.92L-446.46,-130.84L-437.30,-129.25L-509.68,-37.93L-502.10,-27.19L-483.77,-24.02L-434.46,-91.01L-403.80,-104.60L-376.31,-99.86L-362.40,-125.77L-379.15,-138.09L-399.06,-132.09L-432.88,-100.18L-442.04,-101.76L-418.97,-126.09L-417.39,-135.26L-424.97,-146.00L-454.05,-141.58ZM-355.47,-1.88L-337.14,1.28L-286.57,-18.31L-249.59,-68.55L-261.59,-108.37L-296.67,-123.86L-347.24,-104.28L-384.22,-54.03L-372.21,-14.21ZM-299.83,-105.53L-281.50,-102.37L-277.08,-73.29L-301.74,-39.80L-333.97,-17.05L-352.30,-20.21L-356.72,-49.29L-332.07,-82.78ZM-163.01,31.33L-153.85,32.91L-133.94,26.91L-80.21,-11.01L-87.79,-21.76L-141.52,16.16L-150.68,14.58L-38.16,-145.31L-102.31,-156.38L-103.89,-147.22L-76.39,-142.48L-118.12,-64.74L-124.12,-84.65L-159.20,-100.14L-211.35,-71.39L-237.58,-28.73L-234.75,9.51L-218.00,21.84L-199.67,25.00L-167.43,2.25L-170.59,20.58ZM-196.51,6.67L-205.67,5.09L-210.09,-23.98L-185.44,-57.48L-153.20,-80.23L-134.87,-77.07L-128.87,-57.16L-130.45,-47.99L-164.27,-16.08ZM93.92,19.04L86.34,8.29L32.61,46.21L23.44,44.63L94.24,-37.53L86.66,-48.28L68.33,-51.44L20.60,6.39L-22.38,36.72L-31.54,35.14L-37.55,15.23L20.93,-50.18L22.51,-59.35L5.76,-71.67L-23.31,-67.25L-77.04,-29.34L-69.46,-18.59L-15.73,-56.51L-6.57,-54.93L-65.04,10.48L-60.62,39.56L-43.87,51.89L-25.54,55.05L6.70,32.30L3.53,50.63L11.12,61.37L20.28,62.96L40.19,56.95ZM226.97,13.68L230.13,-4.64L224.13,-24.55L189.05,-40.05L138.49,-20.46L101.50,29.78L104.34,68.02L121.09,80.35L139.42,83.51L159.33,77.51L202.31,47.18L194.73,36.43L151.75,66.77L133.42,63.60L129.00,34.53L153.65,1.03L185.89,-21.72L204.22,-18.55L199.47,8.94ZM243.39,82.58L305.03,-1.16L332.52,3.59L334.10,-5.58L306.61,-10.32L331.27,-43.82L312.94,-46.98L299.03,-21.07L279.12,-15.07L260.79,-18.23L259.21,-9.06L277.54,-5.90L215.90,77.84L214.32,87.00L221.90,97.75L240.23,100.91L260.14,94.91L313.87,56.99L306.29,46.25L252.56,84.16ZM439.66,-15.68L448.82,-14.09L461.15,-30.84L462.73,-40.01L445.98,-52.33L436.82,-53.91L424.49,-37.17L422.91,-28.00ZM326.20,40.25L333.78,50.99L387.51,13.08L396.67,14.66L325.87,96.81L324.29,105.98L331.87,116.72L350.20,119.89L370.11,113.89L423.84,75.97L416.26,65.22L362.53,103.14L353.37,101.56L424.17,19.40L425.75,10.24L409.00,-2.09L379.93,2.33ZM460.18,138.86L478.51,142.03L529.07,122.44L566.06,72.20L554.05,32.38L518.98,16.89L468.41,36.47L431.43,86.72L443.43,126.54ZM515.81,35.22L534.14,38.38L538.56,67.45L513.91,100.95L481.67,123.70L463.34,120.54L458.92,91.46L483.58,57.97ZM573.64,82.94L581.22,93.69L634.95,55.77L644.12,57.36L571.73,148.68L579.32,159.42L597.65,162.59L646.96,95.60L679.19,72.85L699.11,66.84L706.69,77.59L646.63,152.16L645.05,161.33L652.63,172.08L670.96,175.24L690.87,169.24L744.60,131.32L737.02,120.57L683.29,158.49L674.13,156.91L732.60,91.50L737.34,64.01L711.43,50.10L682.36,54.52L650.12,77.27L662.45,60.52L664.03,51.35L656.45,40.61L627.37,45.03Z" fill="#ffffff" stroke="#000000"/>
    <path d="M-195.13,-213.03L-209.61,-234.66L-175.39,-265.40L-121.24,-254.69L-114.00,-243.88L-119.36,-216.80L-140.98,-202.32L-77.80,-189.83L-92.28,-211.45L-58.36,-382.92L-89.01,-370.23L-90.79,-361.20L-227.66,-238.23L-258.31,-225.53ZM-94.36,-343.15L-108.65,-270.95L-119.46,-263.71L-164.58,-272.64L-151.99,-288.90ZM-54.50,-260.24L-47.26,-249.43L6.80,-285.63L15.82,-283.85L-57.97,-195.28L-50.73,-184.47L-32.68,-180.90L17.71,-245.96L50.14,-267.68L69.97,-273.13L77.21,-262.32L16.02,-190.02L14.23,-181.00L21.47,-170.19L39.52,-166.62L59.36,-172.07L113.41,-208.27L106.17,-219.08L52.12,-182.88L43.09,-184.67L102.50,-247.94L107.86,-275.02L82.57,-289.40L53.71,-285.73L21.28,-264.01L33.87,-280.27L35.66,-289.30L28.42,-300.11L-0.44,-296.44ZM-832.21,-121.48L-758.52,-256.95L-727.87,-269.65L-800.07,-283.93L-785.59,-262.31L-859.28,-126.83L-889.93,-114.14L-817.73,-99.86ZM-776.37,-166.70L-769.13,-155.89L-715.08,-192.09L-706.05,-190.31L-779.84,-101.74L-772.60,-90.93L-754.55,-87.36L-704.17,-152.42L-671.74,-174.14L-651.90,-179.60L-644.66,-168.79L-705.85,-96.49L-707.64,-87.46L-700.40,-76.65L-682.35,-73.08L-662.51,-78.53L-608.46,-114.73L-615.70,-125.54L-669.75,-89.34L-678.78,-91.13L-619.37,-154.40L-614.02,-181.48L-639.31,-195.86L-668.17,-192.19L-700.60,-170.47L-688.00,-186.74L-686.22,-195.76L-693.46,-206.57L-722.32,-202.90ZM-588.53,-73.28L-525.55,-154.60L-498.47,-149.25L-496.69,-158.27L-523.76,-163.63L-498.57,-196.16L-516.62,-199.73L-531.00,-174.44L-550.84,-168.98L-568.89,-172.55L-570.67,-163.53L-552.62,-159.96L-615.60,-78.63L-617.39,-69.61L-610.15,-58.80L-592.10,-55.23L-572.26,-60.68L-518.21,-96.88L-525.45,-107.69L-579.50,-71.49ZM-505.62,-113.15L-498.38,-102.34L-444.32,-138.53L-435.30,-136.75L-509.09,-48.18L-501.85,-37.37L-483.80,-33.80L-433.41,-98.86L-402.77,-111.56L-375.69,-106.20L-361.31,-131.49L-377.58,-144.09L-397.41,-138.63L-431.63,-107.89L-440.65,-109.67L-417.25,-133.18L-415.46,-142.20L-422.70,-153.01L-451.56,-149.34ZM-357.44,-8.81L-339.39,-5.24L-288.91,-23.39L-251.13,-72.18L-262.04,-111.85L-296.35,-128.02L-346.83,-109.87L-384.62,-61.08L-373.71,-21.41ZM-299.92,-109.97L-281.87,-106.40L-278.20,-77.54L-303.39,-45.01L-335.82,-23.29L-353.87,-26.86L-357.54,-55.72L-332.35,-88.25ZM-167.92,28.68L-158.89,30.47L-139.06,25.01L-85.00,-11.19L-92.24,-22.00L-146.30,14.20L-155.32,12.42L-40.18,-142.99L-103.35,-155.49L-105.14,-146.47L-78.06,-141.11L-121.20,-65.24L-126.66,-85.08L-160.97,-101.24L-213.24,-74.07L-240.22,-32.51L-238.33,5.37L-222.07,17.97L-204.02,21.54L-171.59,-0.18L-175.16,17.87ZM-200.45,3.49L-209.47,1.70L-213.14,-27.16L-187.95,-59.69L-155.52,-81.41L-137.47,-77.84L-132.01,-58.00L-133.80,-48.97L-168.02,-18.23ZM86.47,22.73L79.23,11.92L25.18,48.12L16.16,46.34L88.16,-33.20L80.92,-44.01L62.87,-47.58L14.27,8.45L-28.97,37.41L-38.00,35.62L-43.45,15.79L15.96,-47.49L17.74,-56.51L1.48,-69.11L-27.38,-65.44L-81.43,-29.24L-74.19,-18.43L-20.14,-54.63L-11.12,-52.84L-70.53,10.43L-66.86,39.29L-50.59,51.89L-32.54,55.46L-0.11,33.74L-3.68,51.79L3.56,62.60L12.59,64.39L32.42,58.93ZM218.18,20.65L221.75,2.60L216.30,-17.24L181.98,-33.40L131.50,-15.25L93.71,33.54L95.60,71.43L111.86,84.02L129.91,87.59L149.75,82.14L192.99,53.18L185.75,42.37L142.51,71.33L124.46,67.76L120.79,38.90L145.98,6.37L178.41,-15.35L196.46,-11.78L191.10,15.29ZM232.76,89.18L295.74,7.86L322.81,13.21L324.60,4.19L297.52,-1.17L322.71,-33.70L304.66,-37.27L290.28,-11.98L270.45,-6.52L252.40,-10.09L250.61,-1.07L268.66,2.50L205.68,83.83L203.90,92.85L211.14,103.66L229.19,107.23L249.02,101.78L303.08,65.58L295.84,54.77L241.78,90.97ZM429.23,-3.25L438.25,-1.46L450.85,-17.73L452.64,-26.75L436.37,-39.35L427.35,-41.14L414.75,-24.87L412.96,-15.85ZM315.67,49.31L322.91,60.12L376.96,23.92L385.99,25.71L313.98,105.25L312.20,114.27L319.44,125.08L337.49,128.66L357.33,123.20L411.38,87.00L404.14,76.19L350.09,112.39L341.06,110.61L413.06,31.07L414.85,22.04L398.58,9.44L369.72,13.11ZM445.79,150.08L463.84,153.65L514.32,135.50L552.11,86.71L541.20,47.03L506.89,30.87L456.40,49.02L418.62,97.81L429.53,137.48ZM503.31,48.92L521.36,52.49L525.03,81.35L499.84,113.88L467.41,135.60L449.36,132.03L445.69,103.17L470.88,70.64ZM559.35,97.52L566.59,108.33L620.64,72.13L629.67,73.91L555.88,162.48L563.12,173.29L581.17,176.86L631.55,111.80L663.98,90.08L683.82,84.62L691.06,95.43L629.86,167.73L628.08,176.76L635.32,187.57L653.37,191.14L673.20,185.69L727.26,149.49L720.02,138.68L665.96,174.87L656.94,173.09L716.35,109.81L721.70,82.74L696.41,68.36L667.55,72.03L635.12,93.75L647.72,77.48L649.50,68.46L642.26,57.65L613.40,61.32Z" fill="#ffffff" stroke="#000000"/>
    <path d="M-193.73,-213.89L-207.53,-235.62L-172.95,-265.20L-119.66,-253.30L-112.77,-242.43L-118.72,-215.79L-140.44,-201.99L-78.28,-188.11L-92.07,-209.84L-54.39,-378.58L-85.00,-366.77L-86.98,-357.89L-225.29,-239.59L-255.90,-227.78ZM-90.95,-340.13L-106.82,-269.08L-117.68,-262.18L-162.09,-272.10L-149.24,-287.87ZM-53.53,-257.18L-46.63,-246.31L7.69,-280.80L16.57,-278.82L-58.53,-193.03L-51.63,-182.16L-33.87,-178.19L17.52,-241.31L50.12,-262.01L69.86,-266.92L76.76,-256.06L14.50,-186.04L12.52,-177.16L19.42,-166.30L37.18,-162.33L56.93,-167.24L111.25,-201.73L104.35,-212.60L50.03,-178.11L41.15,-180.09L101.42,-241.23L107.37,-267.87L82.71,-282.70L54.08,-279.77L21.49,-259.07L34.34,-274.85L36.32,-283.73L29.42,-294.60L0.79,-291.67ZM-825.91,-138.74L-749.77,-270.92L-719.16,-282.74L-790.21,-298.60L-776.41,-276.87L-852.55,-144.69L-883.16,-132.88L-812.11,-117.01ZM-769.60,-182.11L-762.70,-171.25L-708.38,-205.74L-699.50,-203.75L-774.60,-117.96L-767.70,-107.10L-749.94,-103.13L-698.55,-166.25L-665.96,-186.94L-646.21,-191.86L-639.31,-180.99L-701.57,-110.98L-703.55,-102.09L-696.65,-91.23L-678.89,-87.26L-659.14,-92.18L-604.82,-126.67L-611.72,-137.53L-666.04,-103.04L-674.92,-105.03L-614.65,-166.16L-608.70,-192.80L-633.36,-207.63L-661.99,-204.70L-694.58,-184.01L-681.74,-199.79L-679.75,-208.67L-686.65,-219.53L-715.28,-216.60ZM-586.11,-85.19L-521.87,-164.09L-495.23,-158.14L-493.25,-167.02L-519.89,-172.97L-494.19,-204.53L-511.96,-208.50L-526.79,-183.84L-546.53,-178.92L-564.30,-182.89L-566.28,-174.01L-548.52,-170.04L-612.76,-91.14L-614.74,-82.26L-607.84,-71.40L-590.08,-67.43L-570.33,-72.35L-516.01,-106.84L-522.91,-117.70L-577.23,-83.21ZM-503.16,-122.62L-496.26,-111.75L-441.94,-146.24L-433.06,-144.26L-508.16,-58.46L-501.27,-47.60L-483.50,-43.63L-432.11,-106.75L-401.50,-118.56L-374.86,-112.61L-360.03,-137.27L-375.81,-150.12L-395.55,-145.21L-430.13,-115.63L-439.01,-117.61L-415.30,-140.29L-413.31,-149.17L-420.21,-160.04L-448.84,-157.11ZM-359.17,-15.87L-341.40,-11.90L-291.05,-28.63L-252.50,-75.97L-262.33,-115.46L-295.88,-132.27L-346.23,-115.54L-384.77,-68.21L-374.94,-28.71ZM-299.84,-114.51L-282.08,-110.54L-279.15,-81.92L-304.84,-50.36L-337.44,-29.66L-355.20,-33.63L-358.13,-62.26L-332.44,-93.82ZM-172.66,25.78L-163.78,27.76L-144.03,22.85L-89.71,-11.64L-96.61,-22.51L-150.93,11.98L-159.81,10.00L-42.20,-140.89L-104.37,-154.78L-106.35,-145.89L-79.71,-139.94L-124.20,-65.96L-129.11,-85.71L-162.66,-102.52L-215.00,-76.91L-242.67,-36.47L-241.73,1.03L-225.95,13.88L-208.18,17.85L-175.59,-2.85L-179.56,14.92ZM-204.22,0.09L-213.10,-1.90L-216.03,-30.52L-190.33,-62.08L-157.74,-82.78L-139.98,-78.81L-135.06,-59.07L-137.05,-50.18L-171.62,-20.61ZM79.03,26.04L72.14,15.18L17.81,49.67L8.93,47.68L82.05,-29.23L75.15,-40.09L57.39,-44.06L7.98,10.17L-35.47,37.77L-44.35,35.78L-49.27,16.04L11.00,-45.10L12.99,-53.98L-2.79,-66.83L-31.42,-63.89L-85.74,-29.40L-78.84,-18.54L-24.52,-53.03L-15.64,-51.05L-75.91,10.09L-72.98,38.72L-57.20,51.56L-39.44,55.53L-6.85,34.84L-10.81,52.60L-3.91,63.46L4.97,65.45L24.71,60.53ZM209.32,27.16L213.29,9.40L208.37,-10.35L174.83,-27.16L124.48,-10.43L85.93,36.91L86.88,74.41L102.66,87.26L120.42,91.23L140.17,86.31L183.63,58.72L176.73,47.86L133.27,75.45L115.51,71.48L112.58,42.85L138.27,11.30L170.87,-9.40L188.63,-5.43L182.68,21.21ZM222.08,95.28L286.32,16.38L312.97,22.33L314.95,13.45L288.30,7.50L314.00,-24.06L296.24,-28.02L281.41,-3.36L261.66,1.55L243.90,-2.41L241.92,6.47L259.68,10.43L195.44,89.33L193.46,98.21L200.35,109.08L218.12,113.04L237.86,108.13L292.18,73.64L285.29,62.77L230.96,97.26ZM418.59,8.62L427.47,10.61L440.32,-5.17L442.30,-14.05L426.53,-26.90L417.64,-28.88L404.80,-13.10L402.81,-4.22ZM305.03,57.86L311.93,68.72L366.25,34.23L375.13,36.22L302.01,113.13L300.03,122.01L306.93,132.88L324.69,136.84L344.44,131.93L398.76,97.44L391.86,86.57L337.54,121.06L328.66,119.08L401.78,42.17L403.76,33.28L387.98,20.44L359.36,23.37ZM431.27,160.64L449.03,164.61L499.39,147.88L537.93,100.54L528.10,61.05L494.56,44.24L444.20,60.96L405.66,108.30L415.49,147.79ZM490.59,62.00L508.35,65.96L511.28,94.59L485.59,126.15L453.00,146.84L435.23,142.88L432.30,114.25L458.00,82.69ZM544.83,111.41L551.72,122.27L606.05,87.78L614.93,89.76L539.83,175.56L546.72,186.42L564.49,190.39L615.88,127.27L648.47,106.58L668.22,101.66L675.11,112.53L612.86,182.54L610.88,191.42L617.77,202.29L635.54,206.25L655.28,201.34L709.60,166.85L702.71,155.99L648.38,190.48L639.50,188.49L699.77,127.36L705.72,100.71L681.06,85.88L652.44,88.82L619.84,109.51L632.69,93.73L634.67,84.85L627.78,73.98L599.15,76.92Z" fill="#ffffff" stroke="#000000"/>
    <path d="M-192.27,-214.84L-205.39,-236.66L-170.49,-265.06L-118.09,-252.01L-111.53,-241.11L-118.06,-214.91L-139.88,-201.79L-78.74,-186.56L-91.86,-208.38L-50.53,-374.31L-81.08,-363.37L-83.25,-354.64L-222.86,-241.01L-253.41,-230.07ZM-87.61,-337.17L-105.01,-267.30L-115.92,-260.75L-159.58,-271.62L-146.50,-286.91ZM-52.61,-254.25L-46.05,-243.34L8.49,-276.13L17.23,-273.96L-59.10,-190.95L-52.54,-180.04L-35.08,-175.69L17.26,-236.85L49.98,-256.52L69.62,-260.91L76.18,-250.00L12.94,-182.28L10.76,-173.54L17.32,-162.64L34.79,-158.28L54.43,-162.67L108.97,-195.46L102.41,-206.37L47.87,-173.58L39.14,-175.75L100.21,-234.74L106.73,-260.94L82.71,-276.20L54.33,-273.99L21.61,-254.32L34.69,-269.61L36.87,-278.34L30.31,-289.25L1.93,-287.04ZM-819.13,-155.80L-740.66,-284.65L-710.11,-295.59L-779.98,-313.00L-766.86,-291.18L-845.33,-162.32L-875.88,-151.38L-806.01,-133.98ZM-762.41,-197.32L-755.85,-186.41L-701.31,-219.20L-692.58,-217.03L-768.91,-134.01L-762.35,-123.11L-744.88,-118.75L-692.55,-179.92L-659.82,-199.59L-640.18,-203.98L-633.62,-193.07L-696.87,-125.34L-699.04,-116.61L-692.48,-105.70L-675.02,-101.35L-655.37,-105.74L-600.83,-138.52L-607.39,-149.43L-661.93,-116.64L-670.67,-118.82L-609.60,-177.81L-603.07,-204.01L-627.10,-219.27L-655.47,-217.06L-688.20,-197.39L-675.11,-212.68L-672.94,-221.41L-679.50,-232.32L-707.87,-230.11ZM-583.33,-97.07L-517.92,-173.52L-491.72,-167.00L-489.54,-175.73L-515.74,-182.26L-489.57,-212.84L-507.04,-217.19L-522.30,-193.16L-541.94,-188.78L-559.41,-193.13L-561.58,-184.40L-544.12,-180.05L-609.53,-103.59L-611.71,-94.86L-605.15,-83.95L-587.68,-79.60L-568.04,-83.98L-513.50,-116.77L-520.06,-127.68L-574.60,-94.89ZM-500.42,-132.06L-493.86,-121.15L-439.32,-153.94L-430.58,-151.77L-506.91,-68.76L-500.35,-57.85L-482.89,-53.50L-430.55,-114.66L-400.00,-125.60L-373.80,-119.08L-358.54,-143.10L-373.83,-156.18L-393.48,-151.80L-428.38,-123.39L-437.11,-125.57L-413.12,-147.42L-410.94,-156.15L-417.50,-167.06L-445.88,-164.85ZM-360.62,-23.04L-343.16,-18.69L-292.96,-34.02L-253.71,-79.89L-262.48,-119.17L-295.24,-136.61L-345.43,-121.28L-384.68,-75.41L-375.91,-36.13ZM-299.59,-119.14L-282.12,-114.79L-279.91,-86.42L-306.08,-55.83L-338.81,-36.16L-356.27,-40.51L-358.48,-68.88L-332.31,-99.47ZM-177.23,22.64L-168.49,24.81L-148.85,20.43L-94.31,-12.36L-100.87,-23.27L-155.41,9.52L-164.14,7.35L-44.21,-139.01L-105.35,-154.23L-107.52,-145.50L-81.32,-138.98L-127.10,-66.90L-131.48,-86.54L-164.24,-103.98L-216.61,-79.92L-244.95,-40.61L-244.92,-3.50L-229.62,9.59L-212.16,13.94L-179.43,-5.74L-183.78,11.73ZM-207.81,-3.53L-216.54,-5.71L-218.75,-34.08L-192.58,-64.66L-159.86,-84.34L-142.39,-79.99L-138.01,-60.34L-140.18,-51.61L-175.08,-23.20ZM71.62,28.97L65.06,18.06L10.52,50.85L1.79,48.68L75.94,-25.60L69.38,-36.51L51.92,-40.86L1.76,11.57L-41.88,37.80L-50.61,35.62L-54.99,15.98L6.07,-43.01L8.25,-51.74L-7.04,-64.82L-35.42,-62.62L-89.96,-29.83L-83.40,-18.92L-28.86,-51.71L-20.12,-49.53L-81.19,9.46L-78.99,37.83L-63.69,50.91L-46.23,55.27L-13.50,35.59L-17.85,53.06L-11.30,63.97L-2.56,66.14L17.08,61.76ZM200.41,33.22L204.76,15.76L200.38,-3.88L167.62,-21.32L117.43,-6.00L78.18,39.88L78.21,76.99L93.50,90.07L110.97,94.42L130.61,90.04L174.24,63.81L167.69,52.90L124.05,79.13L106.59,74.78L104.38,46.40L130.55,15.82L163.27,-3.85L180.74,0.50L174.21,26.70ZM211.38,100.88L276.80,24.43L303.00,30.95L305.18,22.22L278.98,15.69L305.15,-14.89L287.68,-19.24L272.42,4.78L252.78,9.17L235.31,4.82L233.14,13.55L250.60,17.90L185.19,94.36L183.01,103.09L189.57,114.00L207.03,118.35L226.68,113.97L281.22,81.18L274.66,70.27L220.12,103.06ZM407.77,19.95L416.50,22.12L429.59,6.83L431.76,-1.90L416.47,-14.99L407.74,-17.16L394.65,-1.87L392.48,6.86ZM294.30,65.88L300.86,76.79L355.40,44.00L364.13,46.18L289.98,120.46L287.81,129.19L294.37,140.10L311.83,144.45L331.47,140.07L386.02,107.28L379.46,96.37L324.92,129.16L316.18,126.98L390.33,52.70L392.51,43.97L377.22,30.89L348.84,33.09ZM416.63,170.55L434.10,174.90L484.29,159.58L523.54,113.71L514.77,74.42L482.02,56.99L431.82,72.31L392.57,118.19L401.34,157.47ZM477.67,74.46L495.13,78.81L497.34,107.18L471.17,137.76L438.45,157.44L420.98,153.09L418.77,124.71L444.94,94.13ZM530.10,124.62L536.66,135.52L591.20,102.73L599.93,104.91L523.60,187.92L530.16,198.83L547.63,203.18L599.96,142.02L632.69,122.34L652.33,117.96L658.89,128.87L595.64,196.59L593.47,205.33L600.03,216.23L617.49,220.58L637.13,216.20L691.68,183.41L685.12,172.50L630.58,205.29L621.84,203.12L682.91,144.13L689.44,117.93L665.41,102.67L637.04,104.88L604.31,124.55L617.40,109.26L619.57,100.53L613.01,89.62L584.64,91.83Z" fill="#ffffff" stroke="#000000"/>
    <path d="M-903.88,492L-906.92,488.96L-902.36,482.88L-893.24,482.88L-891.72,484.40L-891.72,488.96L-894.76,492L-884.12,492L-887.16,488.96L-887.16,460.08L-891.72,463.12L-891.72,464.64L-909.96,488.96L-914.52,492ZM-891.72,467.68L-891.72,479.84L-893.24,481.36L-900.84,481.36L-899.32,478.32ZM-862.84,476.80L-864.36,481.36L-870.44,487.44L-875,488.96L-876.52,488.96L-867.40,475.28L-867.40,472.24L-870.44,470.72L-875,472.24L-882.60,479.84L-881.08,481.36L-873.48,473.76L-871.96,473.76L-881.08,488.96L-881.08,490.48L-879.56,492L-876.52,492L-868.92,488.96L-862.84,482.88L-859.80,476.80L-859.80,473.76L-861.32,472.24L-864.36,472.24L-865.88,475.28L-864.36,476.80ZM-835.48,472.24L-837,470.72L-840.04,475.28L-841.56,472.24L-847.64,470.72L-855.24,476.80L-858.28,484.40L-856.76,490.48L-853.72,492L-850.68,492L-846.12,487.44L-846.12,490.48L-844.60,492L-840.04,490.48L-832.44,482.88L-833.96,481.36L-841.56,488.96L-843.08,488.96ZM-850.68,488.96L-852.20,488.96L-853.72,484.40L-850.68,478.32L-846.12,473.76L-843.08,473.76L-841.56,476.80L-841.56,478.32L-846.12,484.40ZM-832.44,479.84L-830.92,481.36L-823.32,473.76L-821.80,473.76L-830.92,490.48L-829.40,492L-826.36,492L-820.28,479.84L-815.72,476.80L-811.16,476.80L-809.64,472.24L-812.68,470.72L-815.72,472.24L-820.28,478.32L-821.80,478.32L-818.76,473.76L-818.76,472.24L-820.28,470.72L-824.84,472.24ZM-788.36,472.24L-789.88,470.72L-792.92,475.28L-794.44,472.24L-800.52,470.72L-808.12,476.80L-811.16,484.40L-809.64,490.48L-806.60,492L-803.56,492L-799,487.44L-799,490.48L-797.48,492L-792.92,490.48L-785.32,482.88L-786.84,481.36L-794.44,488.96L-795.96,488.96ZM-803.56,488.96L-805.08,488.96L-806.60,484.40L-803.56,478.32L-799,473.76L-795.96,473.76L-794.44,476.80L-794.44,478.32L-799,484.40ZM-783.80,479.84L-783.80,482.88L-774.68,482.88L-774.68,479.84ZM-765.56,461.60L-762.52,464.64L-770.12,488.96L-773.16,492L-757.96,492L-750.36,488.96L-745.80,482.88L-747.32,476.80L-751.88,475.28L-748.84,473.76L-744.28,469.20L-745.80,463.12L-753.40,461.60ZM-765.56,488.96L-757.96,464.64L-756.44,463.12L-753.40,463.12L-750.36,464.64L-750.36,469.20L-753.40,473.76L-757.96,475.28L-761,475.28L-761,476.80L-756.44,476.80L-753.40,478.32L-751.88,482.88L-754.92,487.44L-761,490.48L-764.04,490.48ZM-736.68,492L-733.64,492L-726.04,487.44L-721.48,478.32L-724.52,472.24L-730.60,470.72L-738.20,475.28L-742.76,484.40L-739.72,490.48ZM-730.60,473.76L-727.56,473.76L-726.04,478.32L-729.08,484.40L-733.64,488.96L-736.68,488.96L-738.20,484.40L-735.16,478.32ZM-715.40,488.96L-701.72,460.08L-712.36,460.08L-712.36,461.60L-707.80,461.60L-719.96,488.96L-719.96,490.48L-716.92,492L-712.36,490.48L-704.76,482.88L-706.28,481.36L-713.88,488.96ZM-689.56,492L-688.04,492L-685,490.48L-677.40,482.88L-678.92,481.36L-686.52,488.96L-688.04,488.96L-674.36,460.08L-685,460.08L-685,461.60L-680.44,461.60L-685,475.28L-686.52,472.24L-692.60,470.72L-700.20,476.80L-703.24,484.40L-701.72,490.48L-698.68,492L-695.64,492L-691.08,487.44L-691.08,490.48ZM-695.64,488.96L-697.16,488.96L-698.68,484.40L-695.64,478.32L-691.08,473.76L-688.04,473.76L-686.52,476.80L-686.52,478.32L-691.08,484.40ZM-669.80,488.96L-662.20,464.64L-657.64,461.60L-669.80,461.60L-666.76,464.64L-674.36,488.96L-678.92,492L-666.76,492ZM-657.64,488.96L-650.04,473.76L-645.48,473.76L-645.48,472.24L-650.04,472.24L-647,466.16L-650.04,466.16L-651.56,470.72L-654.60,472.24L-657.64,472.24L-657.64,473.76L-654.60,473.76L-662.20,488.96L-662.20,490.48L-660.68,492L-657.64,492L-654.60,490.48L-647,482.88L-648.52,481.36L-656.12,488.96ZM-621.16,472.24L-622.68,470.72L-625.72,475.28L-627.24,472.24L-633.32,470.72L-640.92,476.80L-643.96,484.40L-642.44,490.48L-639.40,492L-636.36,492L-631.80,487.44L-631.80,490.48L-630.28,492L-625.72,490.48L-618.12,482.88L-619.64,481.36L-627.24,488.96L-628.76,488.96ZM-636.36,488.96L-637.88,488.96L-639.40,484.40L-636.36,478.32L-631.80,473.76L-628.76,473.76L-627.24,476.80L-627.24,478.32L-631.80,484.40ZM-613.56,488.96L-599.88,460.08L-610.52,460.08L-610.52,461.60L-605.96,461.60L-618.12,488.96L-618.12,490.48L-615.08,492L-610.52,490.48L-602.92,482.88L-604.44,481.36L-612.04,488.96ZM-586.20,467.68L-584.68,467.68L-583.16,464.64L-583.16,463.12L-586.20,461.60L-587.72,461.60L-589.24,464.64L-589.24,466.16ZM-602.92,479.84L-601.40,481.36L-593.80,473.76L-592.28,473.76L-601.40,488.96L-601.40,490.48L-599.88,492L-596.84,492L-593.80,490.48L-586.20,482.88L-587.72,481.36L-595.32,488.96L-596.84,488.96L-587.72,473.76L-587.72,472.24L-590.76,470.72L-595.32,472.24ZM-564.92,478.32L-564.92,475.28L-566.44,472.24L-572.52,470.72L-580.12,475.28L-584.68,484.40L-583.16,490.48L-580.12,492L-577.08,492L-574.04,490.48L-567.96,484.40L-569.48,482.88L-575.56,488.96L-578.60,488.96L-580.12,484.40L-577.08,478.32L-572.52,473.76L-569.48,473.76L-569.48,478.32Z"/>
</svg>