<?xml version="1.0"?>
<svg xmlns="http://www.w3.org/2000/svg" width="1920" height="1080" viewBox="-960 -540 1920 1080">
    <path d="M-923.38,-210L-879.13,-367L-834.88,-210L-811.13,-210L-765.13,-386.50L-787.63,-392.02L-822.88,-238.75L-864.88,-390L-893.38,-390L-934.13,-238.75L-970.13,-392.02L-993.13,-386.50L-947.13,-210ZM-746.13,-210L-723.46,-210L-723.46,-280.75L-713.71,-313.69L-688.30,-325.23L-667.20,-315.48L-661.11,-288.92L-661.13,-210L-638.68,-210L-638.58,-289.10L-647.13,-328.93L-683.71,-344.62L-707.71,-339.11L-723.50,-322.25L-723.50,-390L-746.13,-390ZM-527.27,-297.19L-600.58,-274.70L-615.50,-243.62L-602.11,-214.10L-570.39,-204.86L-547.11,-209.38L-525.78,-225.04L-525.88,-210L-504.88,-210L-504.84,-293.86L-516.68,-332.03L-555.59,-345.13L-590.59,-336.58L-607.60,-311.21L-589.75,-300.24L-578.30,-320.00L-557.88,-326.75L-536.00,-320.35ZM-527.27,-277.30L-527.29,-244.38L-543.20,-230.45L-566.79,-223.21L-583.73,-227.60L-591.52,-244.62L-581.48,-262.29ZM-415.18,-208.26L-415.17,-208.26L-417.77,-227.65L-427.85,-226.14L-438.69,-231.63L-440.63,-248L-440.63,-322.75L-418.38,-322.75L-418.38,-340L-440.63,-340L-440.63,-385L-463.13,-385L-463.13,-340L-481.63,-340L-481.63,-322.75L-463.13,-322.75L-463.13,-248L-457.99,-216.61L-432.37,-205.85ZM-303.30,-361.74L-295.17,-370.64L-295.15,-383.35L-303.44,-392.46L-315.00,-392.46L-323.07,-383.37L-323.08,-370.67L-314.86,-361.74ZM-297.88,-210L-297.88,-340L-320.38,-340L-320.38,-210ZM-251.77,-250.27L-270.88,-241.34L-258.16,-215.83L-219.64,-204.84L-182.89,-213.99L-166.06,-245.13L-176.17,-271.80L-198.07,-283.06L-228.38,-291.25L-245.22,-298L-250.75,-308.38L-243.51,-321.21L-222.30,-325.91L-201.93,-320.35L-193.17,-303.81L-174.24,-312.74L-185.25,-334.52L-221.45,-345.13L-257.31,-335.92L-272.71,-305.85L-262.72,-281.99L-240.16,-271.22L-208.13,-262.75L-193.03,-255.17L-189.04,-243.13L-199.09,-228.03L-218.88,-224.02L-242.78,-231.88ZM-15.70,-332.65L-8.24,-340.12L-8.24,-350.68L-15.70,-358.15L-21.27,-358.15L-17.35,-376.09L-6.73,-384.66L-13.63,-393.75L-28.53,-380.75L-33.73,-358.14L-33.73,-350.68L-33.73,-340.12L-26.26,-332.65L-15.70,-332.65ZM-53.95,-332.65L-46.49,-340.12L-46.49,-350.68L-53.95,-358.15L-59.52,-358.15L-55.60,-376.09L-44.98,-384.66L-51.88,-393.75L-66.78,-380.75L-71.98,-358.14L-71.98,-350.68L-71.98,-340.12L-64.51,-332.65L-53.95,-332.65ZM107.00,-224.76L61.97,-246.41L47.57,-300.01L62.94,-353.59L107.00,-375.23L142.27,-363.25L159.00,-332.14L180.18,-342.84L158.10,-379.60L107.00,-395.63L43.49,-367.60L22.07,-299.99L43.49,-232.39L107.00,-204.37L157.99,-220.66L179.67,-256.14L159.00,-267.61L140.57,-236.52ZM233.38,-210L233.38,-390L210.88,-390L210.88,-210ZM282.95,-361.74L291.08,-370.64L291.10,-383.35L282.81,-392.46L271.25,-392.46L263.18,-383.37L263.17,-370.67L271.39,-361.74ZM288.38,-210L288.38,-340L265.88,-340L265.88,-210ZM319.70,-210L342.26,-210L342.26,-277.25L348.39,-310.56L374.94,-325.70L392.52,-317.60L398.30,-295.03L398.30,-210L420.80,-210L420.80,-285.25L428.85,-313.68L453.73,-325.70L472.82,-315.47L477.13,-292.48L477.13,-210L499.63,-210L499.63,-300.50L489.57,-333.36L458.58,-345.09L435.12,-339.45L417.30,-319.75L404.17,-338.68L380.48,-344.97L356.87,-339.87L340.01,-321.50L340.01,-340L319.76,-340ZM609.98,-297.19L536.67,-274.70L521.75,-243.62L535.14,-214.10L566.86,-204.86L590.14,-209.38L611.47,-225.04L611.38,-210L632.38,-210L632.41,-293.86L620.57,-332.03L581.66,-345.13L546.66,-336.58L529.65,-311.21L547.50,-300.24L558.95,-320.00L579.37,-326.75L601.25,-320.35ZM609.98,-277.30L609.96,-244.38L594.05,-230.45L570.46,-223.21L553.52,-227.60L545.73,-244.62L555.77,-262.29ZM722.07,-208.26L722.08,-208.26L719.48,-227.65L709.40,-226.14L698.56,-231.63L696.63,-248L696.63,-322.75L718.88,-322.75L718.88,-340L696.63,-340L696.63,-385L674.13,-385L674.13,-340L655.63,-340L655.63,-322.75L674.13,-322.75L674.13,-248L679.26,-216.61L704.88,-205.85ZM774.74,-234.73L761.63,-269.23L858.13,-269.25L859.38,-278.25L844.49,-325.87L799.39,-345.22L755.28,-326.61L738.70,-275.10L755.28,-223.59L799.39,-204.97L836.53,-215.94L853.63,-242.75L836.11,-253.69L822.47,-231.44L800.66,-224.11ZM762.38,-287.25L776.50,-317.01L799.37,-326.13L824.87,-315.28L835.13,-287.25ZM-514.50,15L-454.75,15L-389.02,-7.84L-367.34,-75.52L-390.43,-143.34L-458,-165L-514.50,-165ZM-490.75,-6L-490.75,-143.75L-458,-143.75L-410.25,-129.94L-392.33,-75.76L-408.14,-22.31L-457.25,-6ZM-313.63,-9.73L-326.75,-44.23L-230.25,-44.25L-229,-53.25L-243.89,-100.87L-288.99,-120.22L-333.10,-101.61L-349.67,-50.10L-333.10,1.41L-288.99,20.03L-251.85,9.06L-234.75,-17.75L-252.27,-28.69L-265.90,-6.44L-287.71,0.89ZM-326,-62.25L-311.88,-92.01L-289.01,-101.13L-263.50,-90.28L-253.25,-62.25ZM-191.39,-25.27L-210.51,-16.34L-197.78,9.17L-159.27,20.16L-122.52,11.01L-105.69,-20.13L-115.79,-46.80L-137.69,-58.06L-168,-66.25L-184.85,-73L-190.37,-83.38L-183.14,-96.21L-161.93,-100.91L-141.55,-95.35L-132.79,-78.81L-113.86,-87.74L-124.87,-109.52L-161.07,-120.13L-196.93,-110.92L-212.34,-80.85L-202.34,-56.99L-179.79,-46.22L-147.75,-37.75L-132.66,-30.17L-128.67,-18.13L-138.71,-3.03L-158.50,0.98L-182.40,-6.88ZM-64.68,-136.74L-56.55,-145.64L-56.53,-158.35L-64.82,-167.46L-76.38,-167.46L-84.45,-158.37L-84.45,-145.67L-76.24,-136.74ZM-59.25,15L-59.25,-115L-81.75,-115L-81.75,15ZM22.23,69.39L68.79,49.85L80,6.50L80,-115L60,-115L60,-97.50L45.27,-114.11L22.48,-120.61L-19.73,-101.04L-34.38,-50.49L-19.73,0.06L22.48,19.63L42.61,14.83L57.50,1.25L57.44,10.79L49.48,39.89L22.76,50.00L1.94,44.13L-6.25,26.50L-24.25,34.75L-12.91,58.67ZM23.76,-101.48L48.60,-88.59L60.24,-50.47L49.55,-12.35L23.76,0.52L-1.37,-12.35L-11.41,-50.47L-1.37,-88.59ZM112.13,15L134.63,15L134.63,-55.75L144.39,-89.15L169.82,-100.70L190.90,-90.95L197,-64.75L197,15L219.50,15L219.50,-64.75L210.98,-104.40L174.40,-120.09L150.10,-114.73L132.38,-96.25L132.38,-115L112.13,-115ZM309.67,18.14L318.53,9.11L318.47,-3.59L309.52,-12.53L296.92,-12.46L288.06,-3.44L288.12,9.26L297.07,18.20ZM291.66,-28.05L313.45,-28.05L313.45,-34.94L316.81,-53.14L328.97,-68.08L350.74,-89.10L360.85,-119.09L344.71,-156.60L302.18,-170.59L263.96,-156.31L249.16,-122.90L268.27,-114.24L279.60,-141.50L302.40,-150.20L326.37,-142.86L336.57,-117.56L329.92,-96.88L314.86,-82.12L296.95,-61.97L291.66,-34.94ZM401.36,-165.68L393.90,-158.21L393.90,-147.65L401.36,-140.18L406.93,-140.18L403.01,-122.24L392.39,-113.67L399.25,-104.50L414.19,-117.58L419.39,-140.18L419.39,-147.65L419.39,-158.21L411.92,-165.68L401.36,-165.68ZM439.60,-165.60L432.14,-158.14L432.14,-147.58L439.60,-140.11L445.17,-140.11L441.25,-122.17L430.63,-113.60L437.25,-104.25L452.43,-117.51L457.63,-140.11L457.63,-147.58L457.63,-158.14L450.17,-165.60L439.60,-165.60Z" fill="#ffffff" stroke="#000000"/>
    <path d="M-921.45,-198.66L-878.71,-354.39L-833.84,-199.26L-810.33,-199.42L-765.98,-374.46L-788.29,-379.78L-822.16,-227.80L-864.75,-377.25L-892.97,-377.06L-932.29,-227.05L-968.96,-378.55L-991.70,-372.92L-944.97,-198.50ZM-745.98,-199.86L-723.55,-200.01L-724.02,-270.05L-714.59,-302.72L-689.51,-314.32L-668.56,-304.81L-662.35,-278.56L-661.83,-200.43L-639.62,-200.58L-640.05,-278.89L-648.78,-318.26L-685.10,-333.55L-708.82,-327.93L-724.34,-311.13L-724.79,-378.21L-747.19,-378.05ZM-529.91,-287.64L-602.34,-264.89L-616.89,-234.02L-603.44,-204.88L-571.97,-195.95L-548.96,-200.59L-527.94,-216.23L-527.94,-201.34L-507.15,-201.48L-507.68,-284.50L-519.66,-322.21L-558.26,-334.91L-592.85,-326.22L-609.52,-300.99L-591.79,-290.25L-580.58,-309.88L-560.41,-316.71L-538.71,-310.52ZM-529.78,-267.95L-529.57,-235.37L-545.22,-221.47L-568.53,-214.14L-585.33,-218.37L-593.16,-235.17L-583.34,-252.73ZM-418.34,-200.36L-418.34,-200.36L-421.04,-219.54L-431.00,-217.98L-441.77,-223.35L-443.80,-239.53L-444.30,-313.54L-422.28,-313.69L-422.39,-330.76L-444.42,-330.61L-444.72,-375.16L-467.00,-375.01L-466.69,-330.46L-485.01,-330.34L-484.89,-313.26L-466.58,-313.38L-466.07,-239.38L-460.78,-208.34L-435.35,-197.87ZM-308.62,-353.06L-300.63,-361.92L-300.70,-374.51L-308.97,-383.47L-320.41,-383.39L-328.34,-374.34L-328.26,-361.77L-320.06,-352.98ZM-302.22,-202.88L-303.10,-331.57L-325.37,-331.42L-324.50,-202.73ZM-256.85,-243.06L-275.72,-234.09L-262.94,-208.92L-224.74,-198.29L-188.42,-207.60L-171.97,-238.54L-182.15,-264.88L-203.91,-275.87L-233.97,-283.78L-250.69,-290.35L-256.23,-300.59L-249.16,-313.33L-228.19,-318.14L-207.98,-312.77L-199.20,-296.46L-180.52,-305.42L-191.57,-326.90L-227.47,-337.16L-262.91,-327.81L-277.96,-297.94L-267.90,-274.38L-245.50,-263.88L-213.73,-255.70L-198.74,-248.30L-194.71,-236.41L-204.55,-221.39L-224.11,-217.29L-247.83,-224.91ZM-23.71,-326.20L-16.37,-333.64L-16.44,-344.10L-23.88,-351.44L-29.39,-351.40L-25.63,-369.19L-15.17,-377.75L-22.06,-386.70L-36.73,-373.73L-41.73,-351.32L-41.67,-343.93L-41.60,-333.47L-34.16,-326.13L-23.71,-326.20ZM-61.57,-325.94L-54.23,-333.38L-54.30,-343.84L-61.74,-351.18L-67.26,-351.14L-63.49,-368.94L-53.04,-377.49L-59.93,-386.44L-74.60,-373.47L-79.59,-351.06L-79.54,-343.67L-79.47,-333.21L-72.03,-325.87L-61.57,-325.94ZM98.49,-220.22L53.77,-241.34L39.15,-294.31L54.01,-347.46L97.48,-369.18L132.48,-357.56L149.25,-326.87L170.14,-337.61L148.04,-373.85L97.34,-389.37L34.66,-361.20L13.91,-294.12L35.57,-227.34L98.63,-200.03L149.00,-216.50L170.22,-251.77L149.69,-262.98L131.64,-232.09ZM223.70,-206.46L222.49,-384.65L200.21,-384.50L201.43,-206.31ZM271.75,-357.01L279.74,-365.87L279.68,-378.46L271.41,-387.42L259.97,-387.34L252.04,-378.29L252.12,-365.72L260.31,-356.93ZM278.15,-206.83L277.27,-335.53L255.00,-335.37L255.88,-206.68ZM309.17,-207.04L331.49,-207.19L331.04,-273.77L336.89,-306.78L363.07,-321.95L380.53,-314.05L386.40,-291.74L386.98,-207.57L409.25,-207.72L408.74,-282.22L416.52,-310.42L441.07,-322.48L460.04,-312.48L464.45,-289.76L465.01,-208.10L487.28,-208.25L486.67,-297.84L476.50,-330.31L445.74,-341.71L422.55,-335.97L405.05,-316.35L391.91,-335.00L368.42,-341.07L345.09,-335.86L328.51,-317.56L328.39,-335.87L308.34,-335.74ZM595.94,-295.31L523.52,-272.55L508.96,-241.68L522.41,-212.55L553.88,-203.61L576.90,-208.25L597.91,-223.89L597.91,-209.00L618.70,-209.15L618.17,-292.17L606.19,-329.87L567.59,-342.58L533.00,-333.88L516.33,-308.65L534.07,-297.91L545.27,-317.54L565.44,-324.37L587.14,-318.19ZM596.08,-275.62L596.28,-243.04L580.63,-229.13L557.32,-221.80L540.52,-226.04L532.69,-242.83L542.51,-260.39ZM707.51,-208.02L707.52,-208.03L704.82,-227.21L694.85,-225.65L684.08,-231.01L682.05,-247.20L681.55,-321.20L703.58,-321.35L703.46,-338.43L681.43,-338.28L681.13,-382.83L658.85,-382.67L659.16,-338.12L640.84,-338.00L640.96,-320.92L659.27,-321.05L659.78,-247.05L665.07,-216.01L690.50,-205.53ZM759.47,-234.59L746.26,-268.65L841.79,-269.32L842.97,-278.24L827.91,-325.29L783.13,-344.14L739.58,-325.41L723.53,-274.31L740.28,-223.43L784.07,-205.30L820.77,-216.41L837.51,-243.06L820.10,-253.77L806.75,-231.66L785.21,-224.25ZM746.88,-286.50L760.66,-316.05L783.24,-325.23L808.56,-314.67L818.90,-286.99ZM-515.16,21.33L-456.01,20.92L-391.09,-2.13L-370.09,-69.28L-393.40,-136.27L-460.44,-157.25L-516.37,-156.87ZM-491.79,0.38L-492.72,-135.99L-460.30,-136.21L-412.93,-122.87L-394.83,-69.34L-410.12,-16.32L-458.63,0.15ZM-316.48,-4.51L-329.69,-38.57L-234.16,-39.24L-232.98,-48.16L-248.04,-95.21L-292.82,-114.06L-336.37,-95.33L-352.42,-44.23L-335.67,6.65L-291.88,24.78L-255.18,13.67L-238.44,-12.98L-255.85,-23.69L-269.20,-1.58L-290.74,5.83ZM-329.07,-56.42L-315.29,-85.97L-292.71,-95.15L-267.39,-84.59L-257.05,-56.91ZM-195.56,-20.72L-214.43,-11.75L-201.66,13.42L-163.45,24.04L-127.13,14.74L-110.68,-16.20L-120.87,-42.54L-142.62,-53.54L-172.68,-61.44L-189.41,-68.01L-194.95,-78.26L-187.87,-91.00L-166.91,-95.80L-146.70,-90.43L-137.91,-74.12L-119.23,-83.08L-130.28,-104.57L-166.19,-114.83L-201.63,-105.47L-216.67,-75.60L-206.62,-52.04L-184.21,-41.54L-152.44,-33.37L-137.45,-25.96L-133.42,-14.07L-143.26,0.94L-162.83,5.05L-186.54,-2.57ZM-70.87,-131.92L-62.88,-140.78L-62.95,-153.37L-71.22,-162.33L-82.66,-162.26L-90.59,-153.21L-90.51,-140.63L-82.31,-131.84ZM-64.47,18.26L-65.35,-110.44L-87.63,-110.29L-86.75,18.41ZM16.55,71.55L62.52,51.89L73.32,8.91L72.50,-111.38L52.70,-111.24L52.82,-93.92L38.13,-110.26L15.52,-116.55L-26.13,-96.89L-40.29,-46.74L-25.45,3.21L16.47,22.29L36.36,17.41L51.01,3.86L51.01,13.31L43.33,42.16L16.95,52.35L-3.70,46.68L-11.93,29.29L-29.69,37.58L-18.30,61.18ZM16.91,-97.61L41.60,-85.02L53.38,-47.36L43.05,-9.55L17.60,3.36L-7.36,-9.21L-17.56,-46.88L-7.87,-84.69ZM105.19,17.10L127.46,16.95L126.99,-53.09L136.42,-86.22L161.52,-97.82L182.45,-88.31L188.67,-62.42L189.21,16.53L211.48,16.38L210.94,-62.57L202.24,-101.76L165.92,-117.05L141.90,-111.58L124.49,-93.17L124.36,-111.73L104.31,-111.59ZM300.77,18.88L309.48,9.88L309.34,-2.69L300.41,-11.48L287.94,-11.33L279.23,-2.33L279.37,10.24L288.30,19.03ZM282.63,-26.72L304.20,-26.87L304.16,-33.69L307.36,-51.74L319.30,-66.61L340.70,-87.56L350.51,-117.32L334.28,-154.34L292.09,-167.90L254.34,-153.51L239.91,-120.34L258.89,-111.90L269.93,-138.96L292.43,-147.72L316.22,-140.62L326.48,-115.64L320.04,-95.12L305.23,-80.40L287.64,-60.34L282.58,-33.54ZM390.30,-163.71L382.96,-156.27L383.03,-145.81L390.47,-138.47L395.99,-138.51L392.22,-120.72L381.77,-112.16L388.62,-103.13L403.33,-116.18L408.32,-138.59L408.27,-145.98L408.20,-156.44L400.76,-163.78L390.30,-163.71ZM428.16,-163.90L420.82,-156.46L420.89,-146.00L428.33,-138.66L433.84,-138.70L430.08,-120.90L419.63,-112.35L426.25,-103.14L441.19,-116.37L446.18,-138.78L446.13,-146.17L446.06,-156.63L438.62,-163.97L428.16,-163.90Z" fill="#ffffff" stroke="#000000"/>
    <path d="M-919.30,-187.42L-878.04,-341.86L-832.58,-188.60L-809.31,-188.92L-766.59,-362.49L-788.71,-367.60L-821.21,-216.94L-864.38,-364.59L-892.31,-364.21L-930.22,-215.45L-967.54,-365.16L-990.01,-359.45L-942.58,-187.11ZM-745.62,-189.79L-723.41,-190.09L-724.35,-259.42L-715.23,-291.82L-690.49,-303.47L-669.68,-294.20L-663.36,-268.26L-662.32,-190.92L-640.33,-191.22L-641.29,-268.73L-650.20,-307.65L-686.25,-322.53L-709.70,-316.82L-724.94,-300.08L-725.84,-366.47L-748.02,-366.17ZM-532.32,-278.14L-603.86,-255.13L-618.07,-224.47L-604.55,-195.72L-573.34,-187.09L-550.59,-191.84L-529.89,-207.46L-529.79,-192.73L-509.21,-193.01L-510.30,-275.18L-522.41,-312.42L-560.71,-324.74L-594.89,-315.90L-611.22,-290.81L-593.59,-280.30L-582.63,-299.81L-562.71,-306.71L-541.18,-300.73ZM-532.06,-258.65L-531.63,-226.40L-547.04,-212.53L-570.06,-205.12L-586.72,-209.20L-594.58,-225.77L-584.98,-243.22ZM-421.29,-192.49L-421.29,-192.50L-424.09,-211.46L-433.95,-209.85L-444.64,-215.09L-446.76,-231.10L-447.76,-304.35L-425.95,-304.64L-426.18,-321.55L-447.99,-321.25L-448.59,-365.35L-470.64,-365.05L-470.04,-320.95L-488.16,-320.70L-487.93,-303.80L-469.81,-304.05L-468.81,-230.80L-463.36,-200.11L-438.11,-189.91ZM-313.72,-344.38L-305.87,-353.21L-306.02,-365.67L-314.26,-374.49L-325.59,-374.33L-333.37,-365.32L-333.21,-352.87L-325.04,-344.23ZM-306.37,-195.77L-308.11,-323.16L-330.15,-322.86L-328.42,-195.47ZM-261.73,-235.85L-280.34,-226.84L-267.53,-202.01L-229.64,-191.75L-193.75,-201.21L-177.67,-231.95L-187.93,-257.95L-209.54,-268.69L-239.35,-276.31L-255.95,-282.70L-261.50,-292.80L-254.58,-305.46L-233.86,-310.36L-213.82,-305.19L-205.02,-289.09L-186.59,-298.09L-197.67,-319.28L-233.28,-329.20L-268.30,-319.70L-282.99,-290.03L-272.88,-266.78L-250.63,-256.53L-219.13,-248.65L-204.24,-241.43L-200.17,-229.68L-209.81,-214.76L-229.15,-210.56L-252.67,-217.95ZM-31.50,-319.72L-24.29,-327.13L-24.43,-337.48L-31.84,-344.70L-37.30,-344.63L-33.70,-362.26L-23.40,-370.80L-30.28,-379.62L-44.72,-366.68L-49.51,-344.46L-49.41,-337.14L-49.27,-326.79L-41.85,-319.58L-31.50,-319.72ZM-68.99,-319.21L-61.77,-326.62L-61.91,-336.97L-69.32,-344.19L-74.78,-344.12L-71.18,-361.75L-60.88,-370.29L-67.76,-379.11L-82.20,-366.17L-86.99,-343.95L-86.89,-336.63L-86.75,-326.28L-79.34,-319.07L-68.99,-319.21ZM90.17,-215.63L45.76,-236.24L30.93,-288.58L45.28,-341.29L88.16,-363.08L122.89,-351.81L139.70,-321.54L160.30,-332.32L138.18,-368.04L87.89,-383.06L26.04,-354.76L5.95,-288.22L27.84,-222.26L90.44,-195.65L140.19,-212.29L160.96,-247.35L140.56,-258.31L122.91,-227.60ZM214.21,-202.85L211.80,-379.24L189.76,-378.94L192.16,-202.55ZM260.76,-352.20L268.61,-361.03L268.46,-373.49L260.21,-382.31L248.89,-382.15L241.10,-373.14L241.26,-360.70L249.43,-352.05ZM268.10,-203.59L266.37,-330.98L244.32,-330.68L246.05,-203.29ZM298.80,-204.01L320.90,-204.31L320.00,-270.21L325.57,-302.93L351.39,-318.12L368.72,-310.41L374.69,-288.38L375.82,-205.06L397.87,-205.36L396.87,-279.09L404.37,-307.06L428.59,-319.17L447.44,-309.40L451.96,-286.93L453.06,-206.11L475.11,-206.41L473.90,-295.09L463.61,-327.16L433.09,-338.23L410.17,-332.40L392.98,-312.85L379.85,-331.23L356.55,-337.08L333.49,-331.76L317.21,-313.54L316.96,-331.67L297.12,-331.40ZM582.08,-293.31L510.54,-270.30L496.34,-239.65L509.85,-210.90L541.06,-202.27L563.81,-207.01L584.51,-222.63L584.61,-207.90L605.19,-208.18L604.10,-290.36L591.99,-327.60L553.70,-339.91L519.51,-331.07L503.18,-305.98L520.81,-295.47L531.77,-314.98L551.69,-321.88L573.22,-315.90ZM582.34,-273.82L582.77,-241.57L567.37,-227.70L544.34,-220.29L527.68,-224.37L519.82,-240.95L529.42,-258.39ZM693.11,-207.67L693.11,-207.67L690.31,-226.64L680.46,-225.02L669.76,-230.26L667.64,-246.27L666.64,-319.52L688.45,-319.82L688.22,-336.72L666.41,-336.42L665.81,-380.52L643.77,-380.22L644.37,-336.12L626.24,-335.88L626.47,-318.97L644.60,-319.22L645.59,-245.97L651.04,-215.28L676.29,-205.08ZM744.37,-234.31L731.05,-267.94L825.61,-269.25L826.72,-278.09L811.49,-324.55L767.04,-342.91L724.07,-324.08L708.51,-273.39L725.44,-223.13L768.91,-205.48L805.16,-216.73L821.56,-243.22L804.25,-253.70L791.18,-231.73L769.91,-224.25ZM731.55,-285.61L744.99,-314.96L767.28,-324.20L792.42,-313.92L802.84,-286.58ZM-515.64,27.60L-457.09,26.81L-392.99,3.55L-372.65,-63.06L-396.18,-129.22L-462.68,-149.54L-518.04,-148.78ZM-492.65,6.71L-494.49,-128.28L-462.40,-128.71L-415.42,-115.82L-397.13,-62.96L-411.92,-10.37L-459.82,6.26ZM-319.14,0.69L-332.45,-32.94L-237.89,-34.25L-236.79,-43.09L-252.01,-89.55L-296.47,-107.91L-339.44,-89.08L-354.99,-38.39L-338.07,11.87L-294.59,29.52L-258.34,18.27L-241.95,-8.22L-259.26,-18.70L-272.32,3.27L-293.60,10.75ZM-331.96,-50.61L-318.52,-79.96L-296.23,-89.20L-271.09,-78.92L-260.67,-51.58ZM-199.56,-16.17L-218.18,-7.16L-205.36,17.66L-167.48,27.92L-131.59,18.46L-115.51,-12.28L-125.77,-38.28L-147.38,-49.01L-177.19,-56.64L-193.79,-63.03L-199.34,-73.13L-192.42,-85.79L-171.70,-90.69L-151.66,-85.51L-142.86,-69.42L-124.43,-78.42L-135.51,-99.61L-171.12,-109.52L-206.14,-100.02L-220.83,-70.36L-210.72,-47.10L-188.47,-36.86L-156.96,-28.98L-142.08,-21.75L-138.01,-10.01L-147.65,4.92L-166.98,9.12L-190.51,1.73ZM-76.88,-127.09L-69.03,-135.92L-69.18,-148.37L-77.43,-157.19L-88.75,-157.04L-96.54,-148.02L-96.38,-135.58L-88.21,-126.93ZM-69.54,21.53L-71.27,-105.86L-93.32,-105.56L-91.59,21.83ZM11.03,73.74L56.40,53.97L66.80,11.34L65.18,-107.72L45.58,-107.45L45.81,-90.30L31.16,-106.38L8.74,-112.45L-32.36,-92.71L-46.04,-42.98L-31.01,6.36L10.61,24.98L30.27,20.01L44.68,6.50L44.75,15.85L37.34,44.47L11.29,54.73L-9.19,49.26L-17.45,32.09L-34.98,40.41L-23.54,63.71ZM10.25,-93.72L34.76,-81.42L46.68,-44.22L36.71,-6.73L11.61,6.23L-13.19,-6.05L-23.53,-43.26L-14.20,-80.76ZM98.40,19.24L120.45,18.94L119.50,-50.39L128.62,-83.25L153.39,-94.90L174.17,-85.63L180.50,-60.04L181.56,18.11L203.61,17.81L202.55,-60.34L193.67,-99.08L157.61,-113.96L133.87,-108.39L116.76,-90.04L116.51,-108.42L96.66,-108.15ZM292.01,19.68L300.58,10.72L300.35,-1.73L291.45,-10.36L279.11,-10.13L270.55,-1.17L270.78,11.27L279.67,19.91ZM273.75,-25.33L295.10,-25.63L295.01,-32.38L298.06,-50.26L309.78,-65.06L330.83,-85.95L340.33,-115.47L324.02,-152.01L282.16,-165.15L244.89,-150.65L230.83,-117.72L249.68,-109.49L260.42,-136.35L282.64,-145.17L306.23,-138.31L316.56,-113.65L310.32,-93.30L295.76,-78.63L278.48,-58.65L273.66,-32.08ZM379.41,-161.66L372.19,-154.25L372.33,-143.90L379.75,-136.68L385.21,-136.75L381.60,-119.12L371.31,-110.58L378.16,-101.69L392.63,-114.70L397.41,-136.92L397.32,-144.24L397.17,-154.59L389.76,-161.80L379.41,-161.66ZM416.88,-162.10L409.67,-154.69L409.81,-144.34L417.22,-137.12L422.68,-137.20L419.07,-119.56L408.78,-111.02L415.40,-101.95L430.10,-115.14L434.89,-137.36L434.79,-144.68L434.65,-155.03L427.23,-162.24L416.88,-162.10Z" fill="#ffffff" stroke="#000000"/>
    <path d="M-916.92,-176.28L-877.12,-329.42L-831.10,-178.04L-808.06,-178.51L-766.95,-350.59L-788.88,-355.50L-820.03,-206.16L-863.76,-352.01L-891.40,-351.44L-927.92,-203.95L-965.87,-351.88L-988.06,-346.07L-939.96,-175.81ZM-745.03,-179.79L-723.05,-180.24L-724.45,-248.86L-715.65,-280.99L-691.23,-292.69L-670.58,-283.65L-664.15,-258.02L-662.60,-181.48L-640.83,-181.92L-642.30,-258.64L-651.38,-297.09L-687.17,-311.58L-710.33,-305.77L-725.31,-289.10L-726.65,-354.81L-748.59,-354.36ZM-534.51,-268.68L-605.16,-245.42L-619.02,-214.99L-605.45,-186.62L-574.49,-178.29L-552.01,-183.14L-531.63,-198.74L-531.43,-184.16L-511.06,-184.57L-512.69,-265.90L-524.93,-302.68L-562.92,-314.61L-596.69,-305.63L-612.69,-280.69L-595.17,-270.41L-584.45,-289.79L-564.78,-296.75L-543.44,-290.98ZM-534.12,-249.39L-533.48,-217.48L-548.63,-203.64L-571.37,-196.15L-587.89,-200.08L-595.78,-216.43L-586.39,-233.76ZM-424.04,-184.66L-424.04,-184.66L-426.94,-203.42L-436.68,-201.75L-447.30,-206.86L-449.51,-222.70L-450.99,-295.19L-429.41,-295.63L-429.75,-312.36L-451.33,-311.92L-452.22,-355.56L-474.04,-355.11L-473.15,-311.47L-491.09,-311.11L-490.75,-294.38L-472.81,-294.74L-471.33,-222.25L-465.73,-191.91L-440.67,-181.99ZM-318.59,-335.72L-310.88,-344.51L-311.11,-356.84L-319.33,-365.51L-330.54,-365.28L-338.18,-356.31L-337.94,-343.99L-329.80,-335.49ZM-310.32,-188.67L-312.89,-314.75L-334.71,-314.30L-332.14,-188.23ZM-266.40,-228.64L-284.76,-219.60L-271.91,-195.11L-234.34,-185.22L-198.88,-194.82L-183.18,-225.35L-193.51,-251.02L-214.97,-261.50L-244.52,-268.85L-261.00,-275.06L-266.56,-285.02L-259.80,-297.60L-239.32,-302.58L-219.45,-297.60L-210.63,-281.73L-192.45,-290.76L-203.56,-311.66L-238.87,-321.23L-273.47,-311.59L-287.81,-282.13L-277.65,-259.18L-255.56,-249.19L-224.32,-241.61L-209.54,-234.55L-205.43,-222.96L-214.87,-208.12L-233.98,-203.83L-257.32,-210.99ZM-39.10,-313.21L-32.00,-320.60L-32.21,-330.84L-39.60,-337.93L-45.00,-337.82L-41.55,-355.30L-31.42,-363.82L-38.29,-372.50L-52.49,-359.60L-57.08,-337.57L-56.94,-330.33L-56.73,-320.09L-49.34,-313.00L-39.10,-313.21ZM-76.19,-312.45L-69.10,-319.84L-69.31,-330.08L-76.69,-337.17L-82.09,-337.06L-78.65,-354.54L-68.52,-363.07L-75.39,-371.75L-89.59,-358.84L-94.18,-336.82L-94.03,-329.58L-93.82,-319.33L-86.43,-312.24L-76.19,-312.45ZM82.03,-211.01L37.94,-231.11L22.91,-282.81L36.76,-335.07L79.05,-356.94L113.50,-346.02L130.34,-316.17L150.66,-326.97L128.53,-362.18L78.65,-376.71L17.62,-348.28L-1.81,-282.28L20.30,-217.15L82.44,-191.23L131.57,-208.04L151.89,-242.88L131.62,-253.59L114.36,-223.08ZM204.89,-199.20L201.32,-373.76L179.50,-373.31L183.07,-198.75ZM249.96,-347.33L257.67,-356.12L257.43,-368.45L249.21,-377.12L238.01,-376.89L230.36,-367.92L230.61,-355.60L238.75,-347.10ZM258.23,-200.28L255.65,-326.36L233.83,-325.91L236.41,-199.84ZM288.61,-200.91L310.48,-201.35L309.15,-266.57L314.44,-298.99L339.89,-314.20L357.10,-306.70L363.15,-284.92L364.84,-202.46L386.66,-202.91L385.17,-275.88L392.40,-303.62L416.30,-315.76L435.02,-306.22L439.64,-284.01L441.28,-204.02L463.10,-204.47L461.31,-292.24L450.90,-323.91L420.62,-334.66L397.98,-328.73L381.09,-309.27L367.97,-327.37L344.88,-333.00L322.09,-327.59L306.09,-309.44L305.72,-327.38L286.09,-326.98ZM568.39,-291.21L497.74,-267.94L483.89,-237.51L497.46,-209.15L528.41,-200.81L550.89,-205.66L571.27,-221.27L571.47,-206.68L591.84,-207.10L590.21,-288.43L577.97,-325.21L539.98,-337.14L506.21,-328.16L490.21,-303.22L507.74,-292.93L518.45,-312.32L538.12,-319.28L559.47,-313.50ZM568.78,-271.92L569.42,-240.00L554.27,-226.17L531.53,-218.68L515.01,-222.60L507.13,-238.96L516.51,-256.29ZM678.86,-207.18L678.86,-207.19L675.96,-225.94L666.22,-224.28L655.60,-229.39L653.40,-245.22L651.91,-317.72L673.49,-318.16L673.15,-334.89L651.57,-334.44L650.68,-378.09L628.86,-377.64L629.75,-334.00L611.81,-333.63L612.15,-316.90L630.09,-317.27L631.57,-244.78L637.17,-214.44L662.23,-204.51ZM729.41,-233.90L716.01,-267.10L809.60,-269.03L810.63,-277.78L795.25,-323.67L751.13,-341.54L708.72,-322.62L693.67,-272.34L710.76,-222.71L753.91,-205.53L789.71,-216.91L805.76,-243.24L788.55,-253.50L775.77,-231.66L754.76,-224.12ZM716.38,-284.59L729.49,-313.73L751.49,-323.03L776.44,-313.02L786.93,-286.03ZM-515.94,33.82L-458.00,32.64L-394.70,9.19L-375.02,-56.88L-398.75,-122.20L-464.71,-141.86L-519.51,-140.74ZM-493.33,12.99L-496.05,-120.60L-464.29,-121.25L-417.71,-108.81L-399.26,-56.61L-413.53,-4.46L-460.84,12.32ZM-321.63,5.86L-335.04,-27.34L-241.45,-29.27L-240.42,-38.02L-255.80,-83.91L-299.92,-101.78L-342.33,-82.86L-357.38,-32.57L-340.29,17.05L-297.14,34.23L-261.34,22.86L-245.29,-3.48L-262.50,-13.74L-275.28,8.10L-296.28,15.65ZM-334.67,-44.83L-321.56,-73.97L-299.56,-83.26L-274.61,-73.25L-264.11,-46.27ZM-203.39,-11.64L-221.75,-2.59L-208.90,21.90L-171.33,31.79L-135.88,22.19L-120.17,-8.34L-130.50,-34.01L-151.96,-44.49L-181.52,-51.84L-197.99,-58.05L-203.55,-68.01L-196.79,-80.59L-176.32,-85.57L-156.44,-80.59L-147.62,-64.72L-129.44,-73.75L-140.55,-94.65L-175.87,-104.22L-210.46,-94.58L-224.80,-65.12L-214.64,-42.17L-192.55,-32.18L-161.31,-24.60L-146.53,-17.54L-142.42,-5.95L-151.86,8.89L-170.97,13.18L-194.31,6.02ZM-82.71,-122.24L-75.00,-131.03L-75.23,-143.36L-83.45,-152.03L-94.66,-151.81L-102.31,-142.83L-102.06,-130.51L-93.92,-122.01ZM-74.44,24.81L-77.02,-101.27L-98.84,-100.82L-96.26,25.25ZM5.65,75.94L50.43,56.06L60.43,13.80L58.03,-104.03L38.63,-103.63L38.98,-86.66L24.37,-102.47L2.13,-108.33L-38.41,-88.52L-51.61,-39.20L-36.41,9.54L4.91,27.68L24.34,22.63L38.51,9.16L38.64,18.41L31.50,46.79L5.78,57.12L-14.52,51.84L-22.81,34.91L-40.11,43.27L-28.63,66.24ZM3.75,-89.80L28.10,-77.80L40.14,-41.05L30.53,-3.88L5.77,9.12L-18.85,-2.87L-29.34,-39.63L-20.36,-76.81ZM91.76,21.41L113.58,20.97L112.18,-47.65L120.98,-80.24L145.42,-91.93L166.05,-82.90L172.49,-57.61L174.07,19.73L195.89,19.28L194.31,-58.06L185.26,-96.34L149.47,-110.83L126.01,-105.15L109.20,-86.88L108.83,-105.06L89.19,-104.66ZM283.40,20.54L291.81,11.61L291.50,-0.70L282.64,-9.19L270.43,-8.88L262.01,0.04L262.32,12.36L271.18,20.85ZM265.02,-23.89L286.15,-24.32L286.02,-31.00L288.91,-48.73L300.41,-63.46L321.10,-84.27L330.31,-113.56L313.92,-149.61L272.40,-162.34L235.61,-147.74L221.92,-115.04L240.63,-107.02L251.08,-133.68L273.01,-142.57L296.41,-135.93L306.79,-111.59L300.76,-91.40L286.44,-76.79L269.48,-56.90L264.88,-30.57ZM368.68,-159.54L361.59,-152.15L361.80,-141.91L369.18,-134.81L374.59,-134.92L371.14,-117.44L361.01,-108.92L367.84,-100.17L382.08,-113.15L386.67,-135.17L386.52,-142.41L386.31,-152.65L378.92,-159.75L368.68,-159.54ZM405.77,-160.23L398.67,-152.84L398.88,-142.60L406.27,-135.50L411.67,-135.61L408.22,-118.13L398.09,-109.61L404.70,-100.68L419.16,-113.84L423.76,-135.86L423.61,-143.10L423.40,-153.34L416.01,-160.43L405.77,-160.23Z" fill="#ffffff" stroke="#000000"/>
    <path d="M-914.32,-165.25L-875.96,-317.07L-829.39,-167.56L-806.60,-168.18L-767.07,-338.76L-788.80,-343.47L-818.62,-195.47L-862.88,-339.51L-890.23,-338.77L-925.39,-192.56L-963.94,-338.70L-985.87,-332.80L-937.11,-164.63ZM-744.22,-169.88L-722.47,-170.47L-724.32,-238.37L-715.82,-270.23L-691.74,-281.97L-671.24,-273.17L-664.70,-247.84L-662.65,-172.10L-641.11,-172.69L-643.09,-248.60L-652.33,-286.60L-687.85,-300.70L-710.73,-294.79L-725.44,-278.19L-727.21,-343.21L-748.93,-342.62ZM-536.48,-259.27L-606.24,-235.77L-619.75,-205.56L-606.13,-177.58L-575.44,-169.54L-553.22,-174.49L-533.16,-190.07L-532.86,-175.64L-512.71,-176.19L-514.87,-256.67L-527.23,-292.98L-564.90,-304.53L-598.27,-295.42L-613.93,-270.63L-596.52,-260.57L-586.04,-279.82L-566.63,-286.84L-545.46,-281.27ZM-535.96,-240.18L-535.11,-208.60L-550.01,-194.81L-572.47,-187.24L-588.84,-191.01L-596.76,-207.14L-587.59,-224.36ZM-426.58,-176.86L-426.58,-176.86L-429.58,-195.40L-439.21,-193.69L-449.75,-198.68L-452.04,-214.33L-454.00,-286.07L-432.64,-286.65L-433.10,-303.20L-454.45,-302.62L-455.62,-345.80L-477.22,-345.22L-476.04,-302.03L-493.79,-301.55L-493.34,-284.99L-475.59,-285.48L-473.63,-213.74L-467.89,-183.76L-443.02,-174.10ZM-323.24,-327.07L-315.67,-335.82L-315.98,-348.02L-324.17,-356.55L-335.26,-356.25L-342.77,-347.31L-342.44,-335.13L-334.33,-326.77ZM-314.06,-181.60L-317.46,-306.35L-339.05,-305.76L-335.65,-181.01ZM-270.87,-221.45L-288.98,-212.38L-276.10,-188.23L-238.85,-178.69L-203.82,-188.43L-188.48,-218.75L-198.88,-244.09L-220.19,-254.31L-249.49,-261.38L-265.83,-267.42L-271.41,-277.24L-264.80,-289.74L-244.57,-294.81L-224.87,-290.01L-216.03,-274.36L-198.10,-283.42L-209.23,-304.03L-244.25,-313.27L-278.42,-303.49L-292.42,-274.24L-282.20,-251.60L-260.27,-241.86L-229.31,-234.56L-214.63,-227.68L-210.49,-216.24L-219.73,-201.48L-238.62,-197.11L-261.76,-204.04ZM-46.48,-306.67L-39.51,-314.03L-39.79,-324.17L-47.15,-331.14L-52.49,-330.99L-49.20,-348.32L-39.23,-356.82L-46.08,-365.36L-60.05,-352.49L-64.45,-330.67L-64.25,-323.50L-63.98,-313.37L-56.62,-306.40L-46.48,-306.67ZM-83.19,-305.67L-76.22,-313.03L-76.49,-323.17L-83.85,-330.14L-89.20,-329.99L-85.90,-347.32L-75.93,-355.82L-82.79,-364.36L-96.76,-351.49L-101.15,-329.67L-100.96,-322.50L-100.68,-312.37L-93.32,-305.40L-83.19,-305.67ZM74.09,-206.34L30.31,-225.94L15.09,-277.00L28.44,-328.82L70.15,-350.74L104.32,-340.17L121.19,-310.75L141.23,-321.57L119.08,-356.27L69.62,-370.31L9.41,-341.76L-9.37,-276.32L12.95,-212.00L74.62,-186.78L123.13,-203.74L143.00,-238.36L122.87,-248.82L105.99,-218.51ZM195.75,-195.48L191.05,-368.22L169.45,-367.63L174.16,-194.89ZM239.35,-342.39L246.93,-351.14L246.61,-363.34L238.42,-371.87L227.33,-371.57L219.82,-362.64L220.15,-350.45L228.26,-342.09ZM248.53,-196.92L245.13,-321.67L223.54,-321.08L226.94,-196.33ZM278.60,-197.74L300.24,-198.33L298.48,-262.86L303.50,-294.99L328.58,-310.21L345.67,-302.90L351.80,-281.39L354.02,-199.79L375.62,-200.38L373.65,-272.59L380.62,-300.09L404.19,-312.27L422.78,-302.95L427.51,-281.01L429.66,-201.85L451.26,-202.44L448.89,-289.29L438.38,-320.56L408.34,-331.00L385.97,-324.98L369.39,-305.61L356.29,-323.43L333.39,-328.85L310.87,-323.34L295.16,-305.27L294.68,-323.02L275.25,-322.49ZM554.88,-288.99L485.11,-265.49L471.61,-235.28L485.23,-207.30L515.92,-199.26L538.14,-204.21L558.20,-219.79L558.50,-205.36L578.65,-205.91L576.49,-286.39L564.13,-322.70L526.45,-334.26L493.09,-325.14L477.43,-300.35L494.84,-290.29L505.31,-309.55L524.73,-316.57L545.90,-311.00ZM555.40,-269.90L556.24,-238.32L541.34,-224.53L518.89,-216.97L502.51,-220.74L494.60,-236.87L503.77,-254.09ZM664.77,-206.58L664.77,-206.58L661.78,-225.13L652.15,-223.41L641.60,-228.40L639.31,-244.06L637.36,-315.79L658.71,-316.37L658.26,-332.92L636.91,-332.34L635.73,-375.53L614.14,-374.94L615.32,-331.75L597.56,-331.27L598.01,-314.72L615.77,-315.20L617.72,-243.47L623.47,-213.48L648.33,-203.83ZM714.62,-233.36L701.13,-266.13L793.74,-268.67L794.70,-277.34L779.17,-322.65L735.39,-340.04L693.54,-321.02L678.99,-271.16L696.23,-222.16L739.05,-205.45L774.41,-216.95L790.11,-243.12L773.02,-253.16L760.52,-231.46L739.78,-223.85ZM701.38,-283.44L714.16,-312.37L735.87,-321.71L760.63,-311.98L771.20,-285.34ZM-516.06,39.98L-458.72,38.42L-396.24,14.79L-377.21,-50.73L-401.14,-115.21L-466.55,-134.23L-520.77,-132.75ZM-493.82,19.21L-497.42,-112.98L-465.99,-113.84L-419.81,-101.83L-401.19,-50.30L-414.97,1.40L-461.67,18.34ZM-323.95,11.00L-337.44,-21.76L-244.83,-24.30L-243.87,-32.97L-259.40,-78.29L-303.19,-95.67L-345.03,-76.66L-359.59,-26.79L-342.34,22.20L-299.52,38.91L-264.16,27.42L-248.46,1.24L-265.56,-8.79L-278.06,12.91L-298.80,20.52ZM-337.19,-39.07L-324.42,-68.00L-302.71,-77.35L-277.94,-67.61L-267.37,-40.98ZM-207.05,-7.11L-225.16,1.96L-212.28,26.11L-175.03,35.65L-140.00,25.91L-124.66,-4.41L-135.06,-29.75L-156.37,-39.97L-185.67,-47.04L-202.02,-53.08L-207.59,-62.90L-200.98,-75.39L-180.75,-80.47L-161.05,-75.66L-152.21,-60.02L-134.28,-69.08L-145.41,-89.69L-180.43,-98.92L-214.60,-89.15L-228.60,-59.90L-218.38,-37.25L-196.46,-27.52L-165.49,-20.22L-150.81,-13.34L-146.67,-1.89L-155.91,12.86L-174.80,17.23L-197.94,10.31ZM-88.36,-117.38L-80.79,-126.14L-81.10,-138.34L-89.30,-146.86L-100.39,-146.56L-107.89,-137.63L-107.57,-125.44L-99.45,-117.08ZM-79.18,28.09L-82.58,-96.67L-104.17,-96.08L-100.78,28.67ZM0.42,78.15L44.60,58.18L54.22,16.29L51.05,-100.31L31.86,-99.78L32.31,-82.99L17.74,-98.54L-4.30,-104.19L-44.29,-84.31L-57.03,-35.41L-41.65,12.72L-0.63,30.40L18.56,25.26L32.49,11.84L32.68,21.00L25.81,49.13L0.43,59.53L-19.70,54.44L-28.02,37.74L-45.08,46.12L-33.57,68.78ZM-2.57,-85.86L21.61,-74.15L33.77,-37.86L24.51,-1.01L0.09,12.02L-24.36,0.32L-34.99,-35.99L-26.35,-72.84ZM85.28,23.61L106.87,23.02L105.02,-44.88L113.51,-77.19L137.62,-88.93L158.10,-80.12L164.64,-55.14L166.72,21.39L188.32,20.80L186.23,-55.73L177.02,-93.56L141.50,-107.66L118.32,-101.88L101.80,-83.68L101.31,-101.68L81.88,-101.15ZM274.93,21.45L283.20,12.56L282.81,0.38L273.98,-7.97L261.90,-7.58L253.62,1.32L254.02,13.50L262.84,21.84ZM256.44,-22.39L277.35,-22.96L277.17,-29.57L279.92,-47.14L291.20,-61.79L311.54,-82.53L320.45,-111.57L303.99,-147.15L262.81,-159.46L226.50,-144.76L213.17,-112.31L231.74,-104.50L241.90,-130.96L263.55,-139.90L286.75,-133.49L297.19,-109.47L291.36,-89.45L277.29,-74.89L260.63,-55.09L256.26,-29.00ZM358.12,-157.34L351.15,-149.98L351.42,-139.84L358.78,-132.87L364.13,-133.02L360.83,-115.69L350.86,-107.19L357.69,-98.57L371.69,-111.52L376.08,-133.34L375.89,-140.51L375.61,-150.64L368.25,-157.61L358.12,-157.34ZM394.82,-158.27L387.85,-150.91L388.12,-140.77L395.48,-133.80L400.83,-133.95L397.53,-116.63L387.56,-108.12L394.16,-99.33L408.39,-112.45L412.78,-134.27L412.59,-141.44L412.31,-151.57L404.95,-158.54L394.82,-158.27Z" fill="#ffffff" stroke="#000000"/>
    <path d="M-911.49,-154.32L-874.55,-304.82L-827.46,-157.18L-804.91,-157.95L-766.94,-327.02L-788.48,-331.53L-817.00,-184.87L-861.76,-327.11L-888.82,-326.19L-922.62,-181.27L-961.76,-325.63L-983.42,-319.65L-934.03,-153.56ZM-743.20,-160.05L-721.68,-160.79L-723.97,-227.96L-715.77,-259.54L-692.02,-271.33L-671.67,-262.75L-665.03,-237.73L-662.49,-162.80L-641.18,-163.53L-643.65,-238.63L-653.05,-276.17L-688.29,-289.88L-710.90,-283.88L-725.34,-267.36L-727.53,-331.69L-749.01,-330.95ZM-538.22,-249.91L-607.10,-226.18L-620.26,-196.20L-606.60,-168.60L-576.17,-160.85L-554.22,-165.90L-534.47,-181.45L-534.08,-167.17L-514.14,-167.85L-516.82,-247.48L-529.29,-283.33L-566.66,-294.51L-599.61,-285.26L-614.94,-260.63L-597.65,-250.79L-587.41,-269.91L-568.24,-276.99L-547.26,-271.62ZM-537.58,-231.02L-536.53,-199.77L-551.18,-186.03L-573.35,-178.39L-589.58,-182.01L-597.52,-197.92L-588.57,-215.02ZM-428.92,-169.10L-428.92,-169.10L-432.01,-187.43L-441.53,-185.67L-452.00,-190.53L-454.37,-206.01L-456.78,-276.98L-435.66,-277.70L-436.22,-294.08L-457.34,-293.36L-458.80,-336.08L-480.16,-335.36L-478.70,-292.63L-496.27,-292.03L-495.71,-275.65L-478.15,-276.25L-475.73,-205.28L-469.84,-175.64L-445.17,-166.26ZM-327.67,-318.43L-320.23,-327.15L-320.62,-339.22L-328.79,-347.60L-339.76,-347.23L-347.13,-338.34L-346.73,-326.28L-338.64,-318.06ZM-317.60,-174.54L-321.81,-297.97L-343.17,-297.24L-338.97,-173.82ZM-275.13,-214.27L-292.99,-205.17L-280.08,-181.36L-243.16,-172.17L-208.56,-182.05L-193.59,-212.16L-204.05,-237.16L-225.20,-247.13L-254.24,-253.93L-270.46,-259.80L-276.04,-269.48L-269.59,-281.88L-249.60,-287.04L-230.07,-282.42L-221.22,-267.00L-203.54,-276.09L-214.70,-296.41L-249.41,-305.31L-283.16,-295.41L-296.81,-266.37L-286.55,-244.03L-264.79,-234.54L-234.10,-227.53L-219.52,-220.82L-215.35,-209.52L-224.39,-194.86L-243.05,-190.40L-266.00,-197.10ZM-53.66,-300.12L-46.81,-307.45L-47.16,-317.47L-54.48,-324.32L-59.77,-324.14L-56.63,-341.31L-46.82,-349.78L-53.66,-358.19L-67.40,-345.37L-71.60,-323.74L-71.36,-316.65L-71.02,-306.62L-63.69,-299.77L-53.66,-300.12ZM-89.98,-298.88L-83.13,-306.21L-83.47,-316.24L-90.80,-323.09L-96.09,-322.91L-92.94,-340.07L-83.14,-348.55L-89.98,-356.96L-103.72,-344.13L-107.92,-322.50L-107.68,-315.41L-107.33,-305.39L-100.01,-298.54L-89.98,-298.88ZM66.32,-201.65L22.88,-220.74L7.47,-271.17L20.33,-322.54L61.46,-344.51L95.34,-334.28L112.23,-305.28L131.99,-316.12L109.84,-350.31L60.80,-363.87L1.41,-335.22L-16.74,-270.33L5.78,-206.84L66.98,-182.29L114.87,-199.40L134.30,-233.79L114.32,-244.01L97.82,-213.90ZM186.79,-191.72L180.97,-362.62L159.61,-361.89L165.43,-190.99ZM228.95,-337.38L236.38,-346.10L235.99,-358.17L227.83,-366.55L216.85,-366.18L209.48,-357.29L209.89,-345.23L217.98,-337.01ZM239.01,-193.50L234.81,-316.92L213.45,-316.20L217.65,-192.77ZM268.76,-194.51L290.17,-195.24L287.99,-259.09L292.75,-290.91L317.46,-306.14L334.42,-299.02L340.63,-277.78L343.38,-197.05L364.75,-197.78L362.31,-269.22L369.03,-296.48L392.27,-308.69L410.72,-299.60L415.55,-277.91L418.22,-199.60L439.58,-200.32L436.66,-286.25L426.05,-317.12L396.25,-327.26L374.15,-321.15L357.87,-301.87L344.79,-319.41L322.10,-324.62L299.85,-319.01L284.43,-301.03L283.83,-318.59L264.60,-317.94ZM541.54,-286.67L472.66,-262.95L459.50,-232.96L473.17,-205.36L503.59,-197.62L525.54,-202.66L545.29,-218.22L545.68,-203.94L565.62,-204.62L562.94,-284.24L550.47,-320.09L513.11,-331.27L480.15,-322.03L464.82,-297.39L482.12,-287.55L492.35,-306.68L511.52,-313.75L532.50,-308.39ZM542.18,-267.79L543.23,-236.54L528.58,-222.79L506.41,-215.15L490.18,-218.78L482.24,-234.68L491.20,-251.78ZM650.84,-205.86L650.84,-205.86L647.75,-224.19L638.23,-222.43L627.76,-227.30L625.39,-242.77L622.98,-313.74L644.10,-314.46L643.55,-330.84L622.42,-330.12L620.97,-372.85L599.60,-372.12L601.06,-329.39L583.49,-328.80L584.05,-312.42L601.62,-313.02L604.03,-242.04L609.92,-212.41L634.59,-203.02ZM699.99,-232.70L686.42,-265.03L778.04,-268.17L778.94,-276.75L763.26,-321.49L719.82,-338.40L678.54,-319.30L664.47,-269.86L681.87,-221.49L724.35,-205.24L759.26,-216.86L774.63,-242.86L757.64,-252.68L745.42,-231.12L724.95,-223.45ZM686.55,-282.16L699.00,-310.87L720.42,-320.27L744.99,-310.80L755.62,-284.52ZM-516.01,46.09L-459.28,44.15L-397.61,20.34L-379.21,-44.62L-403.33,-108.26L-468.18,-126.64L-521.82,-124.82ZM-494.14,25.38L-498.59,-105.41L-467.49,-106.47L-421.71,-94.90L-402.94,-44.03L-416.23,7.23L-462.33,24.30ZM-326.09,16.11L-339.66,-16.22L-248.04,-19.36L-247.14,-27.94L-262.82,-72.68L-306.26,-89.59L-347.54,-70.49L-361.61,-21.05L-344.21,27.32L-301.73,43.57L-266.82,31.95L-251.46,5.95L-268.44,-3.87L-280.67,17.69L-301.14,25.36ZM-339.53,-33.35L-327.09,-62.06L-305.67,-71.46L-281.10,-61.99L-270.46,-35.70ZM-210.53,-2.60L-228.40,6.50L-215.48,30.31L-178.56,39.50L-143.97,29.63L-128.99,-0.48L-139.45,-25.48L-160.61,-35.46L-189.65,-42.26L-205.86,-48.12L-211.44,-57.80L-204.99,-70.21L-185.00,-75.37L-165.48,-70.75L-156.63,-55.32L-138.94,-64.41L-150.10,-84.73L-184.81,-93.63L-218.56,-83.73L-232.22,-54.69L-221.96,-32.35L-200.19,-22.86L-169.50,-15.85L-154.93,-9.14L-150.75,2.16L-159.80,16.82L-178.46,21.27L-201.40,14.57ZM-93.83,-112.52L-86.40,-121.23L-86.79,-133.30L-94.95,-141.69L-105.93,-141.31L-113.29,-132.43L-112.89,-120.37L-104.80,-112.15ZM-83.77,31.37L-87.97,-92.06L-109.33,-91.33L-105.13,32.10ZM-4.65,80.37L38.93,60.31L48.17,18.80L44.24,-96.56L25.25,-95.91L25.82,-79.30L11.30,-94.59L-10.55,-100.03L-49.99,-80.09L-62.27,-31.61L-46.73,15.91L-6.02,33.13L12.94,27.92L26.64,14.54L26.88,23.60L20.27,51.48L-4.78,61.94L-24.73,57.05L-33.08,40.57L-49.90,48.99L-38.36,71.34ZM-8.72,-81.90L15.28,-70.48L27.57,-34.65L18.65,1.88L-5.43,14.94L-29.70,3.53L-40.47,-32.34L-32.16,-68.86ZM78.95,25.83L100.31,25.10L98.02,-42.07L106.21,-74.10L129.98,-85.88L150.31,-77.31L156.95,-52.63L159.53,23.08L180.89,22.36L178.31,-53.36L168.94,-90.73L133.70,-104.44L110.80,-98.57L94.58,-80.45L93.97,-98.25L74.75,-97.60ZM266.60,22.42L274.73,13.57L274.26,1.51L265.47,-6.69L253.51,-6.22L245.39,2.64L245.86,14.69L254.64,22.89ZM248.01,-20.85L268.70,-21.55L268.48,-28.09L271.08,-45.49L282.15,-60.06L302.13,-80.72L310.76,-109.52L294.23,-144.62L253.40,-156.52L217.56,-141.73L204.59,-109.53L223.02,-101.93L232.89,-128.18L254.26,-137.17L277.26,-130.98L287.75,-107.29L282.11,-87.44L268.29,-72.93L251.94,-53.23L247.79,-27.39ZM347.72,-155.06L340.87,-147.73L341.21,-137.71L348.54,-130.86L353.83,-131.04L350.69,-113.87L340.88,-105.40L347.69,-96.91L361.46,-109.81L365.66,-131.44L365.42,-138.53L365.08,-148.56L357.75,-155.41L347.72,-155.06ZM384.03,-156.23L377.18,-148.90L377.52,-138.88L384.85,-132.03L390.14,-132.21L387.00,-115.04L377.19,-106.56L383.78,-97.90L397.77,-110.98L401.97,-132.61L401.73,-139.70L401.39,-149.73L394.06,-156.57L384.03,-156.23Z" fill="#ffffff" stroke="#000000"/>
    <path d="M-908.43,-143.51L-872.90,-292.66L-825.31,-146.90L-803.00,-147.82L-766.57,-315.35L-787.92,-319.68L-815.14,-174.37L-860.39,-314.81L-887.16,-313.72L-919.63,-170.10L-959.32,-312.67L-980.71,-306.60L-930.74,-142.60ZM-741.95,-150.31L-720.67,-151.18L-723.39,-217.63L-715.49,-248.94L-692.06,-260.75L-671.88,-252.41L-665.14,-227.70L-662.12,-153.57L-641.04,-154.43L-643.99,-228.73L-653.54,-265.81L-688.50,-279.14L-710.83,-273.05L-725.01,-256.61L-727.61,-320.24L-748.86,-319.37ZM-539.75,-240.60L-607.74,-216.66L-620.56,-186.90L-606.85,-159.69L-576.70,-152.23L-555.01,-157.37L-535.58,-172.89L-535.09,-158.76L-515.37,-159.57L-518.56,-238.34L-531.14,-273.73L-568.18,-284.54L-600.73,-275.17L-615.73,-250.69L-598.55,-241.07L-588.55,-260.06L-569.63,-267.19L-548.84,-262.02ZM-538.99,-221.92L-537.74,-191.00L-552.14,-177.30L-574.03,-169.60L-590.11,-173.07L-598.07,-188.76L-589.33,-205.74ZM-431.06,-161.38L-431.05,-161.38L-434.23,-179.49L-443.64,-177.69L-454.03,-182.43L-456.48,-197.73L-459.35,-267.93L-438.45,-268.79L-439.11,-284.99L-460.01,-284.13L-461.74,-326.40L-482.87,-325.54L-481.14,-283.27L-498.52,-282.56L-497.86,-266.36L-480.48,-267.07L-477.61,-196.86L-471.59,-167.58L-447.11,-158.46ZM-331.87,-309.82L-324.58,-318.49L-325.05,-330.43L-333.18,-338.67L-344.04,-338.23L-351.27,-329.38L-350.79,-317.45L-342.73,-309.38ZM-320.95,-167.52L-325.94,-289.61L-347.07,-288.75L-342.08,-166.65ZM-279.19,-207.11L-296.80,-197.99L-283.87,-174.52L-247.27,-165.67L-213.11,-175.67L-198.50,-205.57L-209.01,-230.23L-230.01,-239.96L-258.79,-246.49L-274.88,-252.19L-280.46,-261.73L-274.16,-274.05L-254.42,-279.28L-235.07,-274.84L-226.21,-259.64L-208.77,-268.76L-219.95,-288.78L-254.36,-297.36L-287.68,-287.34L-301.00,-258.51L-290.69,-236.47L-269.09,-227.23L-238.68,-220.50L-224.22,-213.96L-220.01,-202.81L-228.86,-188.24L-247.29,-183.71L-270.04,-190.18ZM-60.64,-293.54L-53.91,-300.84L-54.32,-310.76L-61.61,-317.49L-66.84,-317.27L-63.85,-334.28L-54.20,-342.73L-61.03,-351.01L-74.53,-338.22L-78.55,-316.79L-78.26,-309.78L-77.85,-299.86L-70.56,-293.14L-60.64,-293.54ZM-96.56,-292.07L-89.84,-299.37L-90.24,-309.29L-97.54,-316.02L-102.77,-315.80L-99.77,-332.81L-90.13,-341.26L-96.96,-349.54L-110.46,-336.75L-114.47,-315.32L-114.19,-308.31L-113.78,-298.39L-106.48,-291.67L-96.56,-292.07ZM58.75,-196.92L15.63,-215.52L0.04,-265.31L12.42,-316.23L52.97,-338.25L86.56,-328.35L103.47,-299.76L122.94,-310.63L100.80,-344.30L52.19,-357.40L-6.38,-328.64L-23.90,-264.31L-1.19,-201.64L59.53,-177.77L106.79,-195.02L125.79,-229.18L105.95,-239.15L89.82,-209.25ZM178.01,-187.90L171.10,-356.96L149.97,-356.10L156.88,-187.04ZM218.74,-332.32L226.04,-340.99L225.57,-352.93L217.43,-361.17L206.58,-360.73L199.35,-351.88L199.83,-339.95L207.89,-331.88ZM229.67,-190.02L224.68,-312.11L203.54,-311.25L208.53,-189.15ZM259.09,-191.22L280.27,-192.08L277.69,-255.25L282.18,-286.77L306.53,-302.00L323.35,-295.07L329.65,-274.09L332.91,-194.24L354.05,-195.10L351.16,-265.77L357.62,-292.79L380.53,-305.03L398.85,-296.15L403.78,-274.73L406.94,-197.26L428.07,-198.12L424.60,-283.12L413.90,-313.60L384.34,-323.43L362.52,-317.23L346.55,-298.04L333.48,-315.32L310.99,-320.32L289.02,-314.62L273.88,-296.72L273.17,-314.10L254.15,-313.32ZM528.37,-284.24L460.38,-260.31L447.56,-230.55L461.27,-203.33L491.42,-195.88L513.11,-201.02L532.55,-216.54L533.03,-202.41L552.76,-203.22L549.57,-281.98L536.98,-317.38L499.94,-328.18L467.40,-318.82L452.39,-294.33L469.57,-284.72L479.57,-303.71L498.49,-310.84L519.29,-305.67ZM529.14,-265.56L530.39,-234.65L515.98,-220.95L494.10,-213.25L478.02,-216.72L470.05,-232.41L478.80,-249.39ZM637.07,-205.02L637.07,-205.03L633.89,-223.14L624.48,-221.34L614.09,-226.08L611.64,-241.38L608.77,-311.58L629.67,-312.44L629.01,-328.64L608.11,-327.78L606.38,-370.05L585.25,-369.18L586.98,-326.92L569.60,-326.21L570.27,-310.01L587.64,-310.72L590.51,-240.51L596.53,-211.23L621.01,-202.11ZM685.52,-231.91L671.88,-263.81L762.51,-267.53L763.34,-276.03L747.53,-320.19L704.43,-336.63L663.71,-317.46L650.12,-268.44L667.66,-220.70L709.81,-204.91L744.27,-216.64L759.30,-242.47L742.43,-252.07L730.48,-230.66L710.27,-222.93ZM671.89,-280.76L684.01,-309.25L705.14,-318.70L729.51,-309.49L740.22,-283.56ZM-515.77,52.12L-459.65,49.83L-398.79,25.85L-381.03,-38.54L-405.32,-101.36L-469.61,-119.10L-522.68,-116.94ZM-494.27,31.49L-499.56,-97.89L-468.80,-99.15L-423.42,-88.01L-404.51,-37.81L-417.31,13.00L-462.81,30.20ZM-328.06,21.19L-341.71,-10.71L-251.07,-14.44L-250.25,-22.94L-266.06,-67.09L-309.16,-83.53L-349.87,-64.36L-363.46,-15.34L-345.92,32.40L-303.77,48.19L-269.31,36.46L-254.28,10.63L-271.16,1.03L-283.11,22.44L-303.31,30.17ZM-341.69,-27.67L-329.57,-56.16L-308.44,-65.60L-284.07,-56.40L-273.37,-30.46ZM-213.85,1.90L-231.46,11.02L-218.53,34.49L-181.93,43.34L-147.77,33.33L-133.15,3.44L-143.67,-21.23L-164.67,-30.96L-193.45,-37.49L-209.54,-43.18L-215.12,-52.72L-208.82,-65.04L-189.08,-70.28L-169.73,-65.84L-160.87,-50.64L-143.43,-59.75L-154.61,-79.78L-189.01,-88.35L-222.34,-78.33L-235.65,-49.50L-225.35,-27.47L-203.75,-18.23L-173.34,-11.50L-158.87,-4.95L-154.67,6.20L-163.52,20.76L-181.95,25.30L-204.70,18.82ZM-99.12,-107.65L-91.82,-116.33L-92.29,-128.27L-100.43,-136.51L-111.28,-136.06L-118.51,-127.22L-118.03,-115.29L-109.97,-107.21ZM-88.19,34.65L-93.18,-87.45L-114.32,-86.58L-109.33,35.51ZM-9.58,82.60L33.41,62.46L42.27,21.32L37.60,-92.79L18.82,-92.03L19.49,-75.59L5.02,-90.62L-16.64,-95.86L-55.53,-75.86L-67.34,-27.81L-51.65,19.10L-11.25,35.86L7.47,30.58L20.93,17.25L21.24,26.22L14.88,53.85L-9.83,64.37L-29.60,59.66L-37.97,43.42L-54.56,51.86L-42.99,73.89ZM-14.70,-77.93L9.13,-66.79L21.52,-31.43L12.94,4.78L-10.79,17.86L-34.88,6.74L-45.78,-28.68L-37.81,-64.87ZM72.77,28.07L93.90,27.21L91.19,-39.24L99.07,-70.99L122.51,-82.81L142.68,-74.46L149.42,-50.09L152.48,24.81L173.61,23.95L170.55,-50.95L161.03,-87.86L126.07,-101.19L103.45,-95.23L87.52,-77.19L86.80,-94.80L67.78,-94.03ZM258.42,23.44L266.40,14.62L265.85,2.69L257.10,-5.36L245.27,-4.81L237.30,4.00L237.84,15.93L246.59,23.98ZM239.73,-19.25L260.20,-20.08L259.94,-26.55L262.40,-43.79L273.24,-58.28L292.88,-78.86L301.22,-107.41L284.63,-142.02L244.15,-153.53L208.79,-138.65L196.17,-106.71L214.46,-99.31L224.05,-125.34L245.13,-134.39L267.93,-128.42L278.47,-105.04L273.03,-85.37L259.45,-70.92L243.40,-51.31L239.47,-25.72ZM337.49,-152.72L330.76,-145.42L331.17,-135.50L338.46,-128.78L343.69,-128.99L340.70,-111.99L331.05,-103.53L337.85,-95.18L351.38,-108.04L355.40,-129.47L355.11,-136.48L354.70,-146.40L347.41,-153.13L337.49,-152.72ZM373.41,-154.12L366.68,-146.83L367.08,-136.91L374.38,-130.18L379.61,-130.39L376.62,-113.39L366.97,-104.93L373.55,-96.41L387.30,-109.44L391.32,-130.87L391.03,-137.88L390.62,-147.80L383.33,-154.53L373.41,-154.12Z" fill="#ffffff" stroke="#000000"/>
    <path d="M-905.15,-132.81L-871.00,-280.61L-822.94,-136.73L-800.88,-137.78L-765.96,-303.78L-787.11,-307.91L-813.07,-163.97L-858.78,-302.61L-885.26,-301.35L-916.41,-159.04L-956.64,-299.83L-977.76,-293.68L-927.21,-131.76ZM-740.50,-140.66L-719.45,-141.66L-722.58,-207.39L-714.98,-238.41L-691.88,-250.26L-671.85,-242.14L-665.02,-217.74L-661.54,-144.42L-640.69,-145.42L-644.10,-218.90L-653.80,-255.52L-688.48,-268.48L-710.53,-262.30L-724.45,-245.94L-727.45,-308.87L-748.47,-307.87ZM-541.06,-231.34L-608.16,-207.20L-620.64,-177.68L-606.90,-150.84L-577.02,-143.67L-555.59,-148.90L-536.47,-164.39L-535.90,-150.42L-516.39,-151.35L-520.07,-229.25L-532.76,-264.18L-569.48,-274.62L-601.62,-265.13L-616.30,-240.81L-599.23,-231.41L-589.47,-250.27L-570.80,-257.46L-550.19,-252.48ZM-540.18,-212.87L-538.73,-182.29L-552.89,-168.64L-574.49,-160.87L-590.42,-164.20L-598.41,-179.67L-589.87,-196.52ZM-432.99,-153.70L-432.98,-153.70L-436.25,-171.60L-445.55,-169.75L-455.86,-174.37L-458.39,-189.49L-461.70,-258.93L-441.03,-259.92L-441.79,-275.94L-462.46,-274.95L-464.46,-316.76L-485.36,-315.76L-483.36,-273.96L-500.55,-273.14L-499.79,-257.11L-482.60,-257.93L-479.29,-188.49L-473.13,-159.56L-448.86,-150.71ZM-335.86,-301.23L-328.70,-309.86L-329.25,-321.67L-337.35,-329.76L-348.09,-329.25L-355.18,-320.45L-354.62,-308.65L-346.60,-300.72ZM-324.10,-160.52L-329.86,-281.28L-350.76,-280.28L-345.00,-159.52ZM-283.05,-199.97L-300.41,-190.82L-287.46,-167.69L-251.19,-159.18L-217.46,-169.31L-203.20,-198.99L-213.78,-223.32L-234.62,-232.80L-263.13,-239.07L-279.09,-244.59L-284.68,-254.00L-278.52,-266.23L-259.03,-271.54L-239.86,-267.28L-230.99,-252.30L-213.80,-261.43L-224.99,-281.17L-259.09,-289.42L-291.99,-279.28L-304.97,-250.67L-294.63,-228.94L-273.20,-219.95L-243.06,-213.49L-228.71,-207.12L-224.47,-196.11L-233.13,-181.64L-251.33,-177.03L-273.88,-183.28ZM-67.41,-286.95L-60.80,-294.22L-61.27,-304.03L-68.54,-310.63L-73.71,-310.39L-70.86,-327.23L-61.37,-335.66L-68.18,-343.80L-81.46,-331.06L-85.28,-309.83L-84.95,-302.90L-84.48,-293.09L-77.22,-286.48L-67.41,-286.95ZM-102.94,-285.26L-96.33,-292.52L-96.80,-302.33L-104.07,-308.94L-109.24,-308.69L-106.39,-325.54L-96.91,-333.97L-103.72,-342.11L-116.99,-329.37L-120.82,-308.14L-120.48,-301.20L-120.02,-291.39L-112.75,-284.79L-102.94,-285.26ZM51.35,-192.16L8.57,-210.28L-7.19,-259.43L4.72,-309.89L44.69,-331.94L77.99,-322.38L94.91,-294.21L114.10,-305.09L91.96,-338.26L43.78,-350.88L-13.97,-322.04L-30.87,-258.28L-7.98,-196.43L52.26,-173.22L98.90,-190.61L117.47,-224.53L97.77,-234.27L82.02,-204.57ZM169.40,-184.05L161.43,-351.26L140.53,-350.26L148.50,-183.05ZM208.73,-327.20L215.89,-335.83L215.35,-347.64L207.24,-355.73L196.51,-355.22L189.41,-346.42L189.97,-334.62L197.99,-326.69ZM220.50,-186.48L214.74,-307.25L193.84,-306.25L199.60,-185.49ZM249.60,-187.87L270.55,-188.87L267.57,-251.34L271.80,-282.56L295.79,-297.79L312.48,-291.05L318.85,-270.34L322.61,-191.35L343.52,-192.35L340.18,-262.25L346.39,-289.02L368.98,-301.28L387.17,-292.63L392.18,-271.47L395.83,-194.85L416.74,-195.84L412.73,-279.91L401.93,-309.99L372.63,-319.51L351.08,-313.24L335.40,-294.15L322.36,-311.15L300.08,-315.94L278.38,-310.16L263.52,-292.35L262.70,-309.53L243.89,-308.64ZM515.39,-281.72L448.28,-257.58L435.80,-228.05L449.54,-201.22L479.43,-194.04L500.85,-199.28L519.97,-214.76L520.55,-200.79L540.05,-201.72L536.37,-279.63L523.68,-314.56L486.96,-325.00L454.83,-315.51L440.15,-291.19L457.21,-281.79L466.97,-300.65L485.64,-307.83L506.25,-302.86ZM516.27,-263.24L517.71,-232.67L503.55,-219.02L481.95,-211.25L466.02,-214.58L458.03,-230.04L466.57,-246.90ZM623.45,-204.08L623.46,-204.08L620.19,-221.98L610.89,-220.13L600.58,-224.75L598.05,-239.87L594.74,-309.31L615.41,-310.29L614.65,-326.32L593.98,-325.33L591.99,-367.13L571.08,-366.14L573.08,-324.33L555.89,-323.52L556.66,-307.49L573.84,-308.31L577.15,-238.87L583.31,-209.94L607.59,-201.08ZM671.21,-231.00L657.50,-262.47L747.14,-266.76L747.90,-275.18L731.96,-318.76L689.21,-334.73L649.06,-315.49L635.94,-266.90L653.62,-219.79L695.42,-204.45L729.44,-216.29L744.13,-241.95L727.37,-251.33L715.70,-230.06L695.76,-222.28ZM657.39,-279.24L669.19,-307.51L690.03,-316.99L714.21,-308.05L724.97,-282.46ZM-515.36,58.09L-459.86,55.45L-399.81,31.32L-382.67,-32.51L-407.12,-94.50L-470.85,-111.62L-523.34,-109.12ZM-494.23,37.53L-500.33,-90.43L-469.91,-91.88L-424.94,-81.17L-405.89,-31.63L-418.21,18.73L-463.11,36.05ZM-329.86,26.22L-343.58,-5.24L-253.94,-9.54L-253.17,-17.95L-269.11,-61.53L-311.86,-77.51L-352.02,-58.26L-365.13,-9.68L-347.45,37.44L-305.65,52.77L-271.63,40.94L-256.94,15.28L-273.70,5.90L-285.38,27.16L-305.32,34.94ZM-343.68,-22.02L-331.88,-50.29L-311.04,-59.77L-286.86,-50.83L-276.10,-25.24ZM-217.00,6.37L-234.36,15.51L-221.41,38.65L-185.14,47.15L-151.41,37.02L-137.15,7.35L-147.72,-16.98L-168.57,-26.46L-197.08,-32.73L-213.03,-38.26L-218.62,-47.66L-212.47,-59.89L-192.98,-65.20L-173.80,-60.94L-164.94,-45.96L-147.75,-55.09L-158.94,-74.83L-193.03,-83.09L-225.94,-72.95L-238.92,-44.33L-228.58,-22.60L-207.14,-13.61L-177.01,-7.15L-162.65,-0.78L-158.42,10.23L-167.08,24.70L-185.28,29.30L-207.83,23.05ZM-104.23,-102.79L-97.07,-111.41L-97.61,-123.22L-105.72,-131.32L-116.45,-130.81L-123.55,-122.01L-122.99,-110.21L-114.96,-102.27ZM-92.46,37.93L-98.22,-82.84L-119.12,-81.84L-113.36,38.92ZM-14.37,84.84L28.03,64.63L36.52,23.86L31.14,-89.00L12.56,-88.12L13.33,-71.86L-1.09,-86.64L-22.55,-91.67L-60.89,-71.62L-72.25,-24.01L-56.41,22.30L-16.33,38.61L2.16,33.26L15.38,19.98L15.75,28.85L9.65,56.23L-14.73,66.80L-34.33,62.28L-42.72,46.26L-59.07,54.72L-47.48,76.44ZM-20.51,-73.95L3.14,-63.08L15.64,-28.18L7.40,7.70L-15.99,20.80L-39.91,9.95L-50.92,-25.01L-43.28,-60.87ZM66.74,30.34L87.64,29.34L84.51,-36.38L92.09,-67.85L115.21,-79.70L135.22,-71.57L142.05,-47.51L145.58,26.58L166.48,25.58L162.95,-48.50L153.28,-84.96L118.60,-97.91L96.27,-91.86L80.63,-73.91L79.79,-91.32L60.98,-90.43ZM250.38,24.50L258.22,15.72L257.60,3.93L248.89,-3.98L237.19,-3.36L229.35,5.41L229.97,17.21L238.68,25.12ZM231.61,-17.60L251.85,-18.57L251.55,-24.97L253.86,-42.03L264.50,-56.45L283.79,-76.94L291.85,-105.25L275.20,-139.37L235.07,-150.48L200.19,-135.53L187.92,-103.84L206.06,-96.64L215.38,-122.46L236.17,-131.55L258.77,-125.80L269.36,-102.75L264.10,-83.24L250.76,-68.86L235.02,-49.35L231.30,-24.00ZM327.42,-150.31L320.81,-143.05L321.28,-133.24L328.55,-126.63L333.72,-126.88L330.87,-110.03L321.38,-101.60L328.17,-93.39L341.47,-106.20L345.29,-127.43L344.96,-134.37L344.50,-144.18L337.23,-150.78L327.42,-150.31ZM362.95,-151.94L356.34,-144.68L356.81,-134.87L364.07,-128.26L369.25,-128.51L366.40,-111.66L356.91,-103.23L363.48,-94.84L377.00,-107.83L380.82,-129.06L380.49,-135.99L380.02,-145.81L372.76,-152.41L362.95,-151.94Z" fill="#ffffff" stroke="#000000"/>
    <path d="M-901.65,-122.22L-868.87,-268.67L-820.35,-126.66L-798.54,-127.85L-765.12,-292.29L-786.06,-296.24L-810.77,-153.67L-856.93,-290.51L-883.11,-289.08L-912.97,-148.10L-953.72,-287.10L-974.57,-280.87L-923.47,-121.04ZM-738.83,-131.10L-718.01,-132.24L-721.55,-197.23L-714.24,-227.97L-691.47,-239.85L-671.61,-231.95L-664.68,-207.86L-660.74,-135.36L-640.13,-136.48L-644.00,-209.15L-653.84,-245.31L-688.23,-257.89L-710.00,-251.63L-723.66,-235.35L-727.05,-297.59L-747.84,-296.46ZM-542.15,-222.15L-608.37,-197.82L-620.51,-168.53L-606.74,-142.08L-577.13,-135.18L-555.97,-140.50L-537.16,-155.95L-536.50,-142.13L-517.20,-143.18L-521.38,-220.22L-534.16,-254.69L-570.56,-264.77L-602.28,-255.17L-616.64,-231.01L-599.70,-221.83L-590.16,-240.55L-571.75,-247.78L-551.32,-243.00ZM-541.15,-203.88L-539.51,-173.65L-553.43,-160.05L-574.74,-152.21L-590.53,-155.40L-598.53,-170.64L-590.20,-187.38ZM-434.72,-146.07L-434.72,-146.07L-438.07,-163.76L-447.25,-161.87L-457.49,-166.37L-460.09,-181.31L-463.83,-249.97L-443.39,-251.09L-444.25,-266.94L-464.69,-265.82L-466.95,-307.16L-487.61,-306.03L-485.36,-264.69L-502.36,-263.77L-501.49,-247.92L-484.50,-248.85L-480.75,-180.18L-474.47,-151.60L-450.40,-143.00ZM-339.63,-292.66L-332.61,-301.25L-333.23,-312.93L-341.30,-320.88L-351.92,-320.30L-358.87,-311.55L-358.24,-299.88L-350.25,-292.09ZM-327.05,-153.55L-333.56,-272.97L-354.23,-271.84L-347.72,-152.42ZM-286.71,-192.85L-303.82,-183.69L-290.85,-160.89L-254.92,-152.72L-221.62,-162.97L-207.72,-192.42L-218.34,-216.42L-239.02,-225.66L-267.27,-231.67L-283.09,-237.02L-288.68,-246.29L-282.68,-258.43L-263.43,-263.81L-244.43,-259.73L-235.56,-244.97L-218.62,-254.12L-229.82,-273.57L-263.61,-281.50L-296.09,-271.25L-308.73,-242.86L-298.36,-221.44L-277.09,-212.68L-247.24,-206.50L-233.00,-200.29L-228.73,-189.43L-237.20,-175.06L-255.18,-170.38L-277.53,-176.41ZM-73.98,-280.35L-67.49,-287.58L-68.02,-297.28L-75.25,-303.77L-80.37,-303.49L-77.66,-320.17L-68.33,-328.57L-75.13,-336.58L-88.17,-323.89L-91.81,-302.86L-91.44,-296.01L-90.91,-286.30L-83.68,-279.82L-73.98,-280.35ZM-109.11,-278.43L-102.63,-285.66L-103.16,-295.37L-110.39,-301.85L-115.50,-301.57L-112.80,-318.25L-103.47,-326.66L-110.26,-334.66L-123.31,-321.97L-126.95,-300.95L-126.58,-294.09L-126.05,-284.39L-118.82,-277.90L-109.11,-278.43ZM44.14,-187.38L1.70,-205.01L-14.22,-253.53L-2.78,-303.52L36.61,-325.61L69.61,-316.37L86.54,-288.62L105.45,-299.52L83.33,-332.18L35.59,-344.34L-21.35,-315.42L-37.64,-252.23L-14.57,-191.21L45.16,-168.65L91.19,-186.16L109.33,-219.85L89.77,-229.34L74.39,-199.86ZM160.98,-180.15L151.96,-345.50L131.30,-344.38L140.31,-179.02ZM198.92,-322.02L205.94,-330.60L205.32,-342.28L197.25,-350.24L186.63,-349.66L179.68,-340.91L180.31,-329.24L188.30,-321.44ZM211.50,-182.90L204.99,-302.33L184.32,-301.20L190.83,-181.78ZM240.28,-184.47L261.00,-185.60L257.63,-247.38L261.60,-278.28L285.23,-293.52L301.79,-286.96L308.23,-266.52L312.49,-188.41L333.16,-189.53L329.39,-258.66L335.35,-285.18L357.62,-297.47L375.66,-289.03L380.77,-268.13L384.90,-192.35L405.57,-193.48L401.03,-276.62L390.15,-306.30L361.10,-315.52L339.83,-309.17L324.45,-290.18L311.43,-306.91L289.36,-311.50L267.93,-305.63L253.35,-287.92L252.42,-304.91L233.82,-303.90ZM502.57,-279.10L436.35,-254.77L424.20,-225.47L437.98,-199.02L467.59,-192.13L488.75,-197.45L507.56,-212.89L508.22,-199.08L527.51,-200.13L523.34,-277.17L510.56,-311.64L474.16,-321.72L442.44,-312.12L428.08,-287.96L445.02,-278.78L454.56,-297.50L472.97,-304.73L493.40,-299.95ZM503.57,-260.83L505.21,-230.59L491.29,-216.99L469.97,-209.16L454.19,-212.35L446.19,-227.59L454.52,-244.33ZM610.00,-203.02L610.00,-203.02L606.65,-220.71L597.47,-218.81L587.23,-223.32L584.63,-238.25L580.89,-306.92L601.33,-308.04L600.47,-323.88L580.03,-322.77L577.77,-364.11L557.10,-362.98L559.36,-321.64L542.36,-320.72L543.23,-304.87L560.22,-305.80L563.96,-237.13L570.25,-208.55L594.32,-199.95ZM657.06,-229.97L643.28,-261.01L731.93,-265.86L732.63,-274.19L716.57,-317.20L674.17,-332.71L634.58,-313.40L621.93,-265.25L639.73,-218.77L681.19,-203.88L714.76,-215.81L729.12,-241.29L712.48,-250.46L701.07,-229.35L681.40,-221.52ZM643.07,-277.60L654.55,-305.65L675.10,-315.17L699.08,-306.49L709.90,-281.25ZM-514.78,63.99L-459.89,61.00L-400.65,36.73L-384.13,-26.53L-408.73,-87.68L-471.89,-104.19L-523.79,-101.36ZM-494.01,43.51L-500.91,-83.03L-470.83,-84.67L-426.27,-74.38L-407.09,-25.49L-418.94,24.40L-463.24,41.84ZM-331.50,31.22L-345.27,0.18L-256.62,-4.67L-255.93,-13.00L-271.99,-56.00L-314.39,-71.52L-353.98,-52.21L-366.62,-4.06L-348.82,42.43L-307.37,57.32L-273.79,45.38L-259.43,19.90L-276.07,10.73L-287.48,31.85L-307.15,39.68ZM-345.49,-16.41L-334.00,-44.45L-313.45,-53.98L-289.47,-45.29L-278.65,-20.05ZM-219.98,10.82L-237.09,19.98L-224.12,42.78L-188.19,50.95L-154.89,40.70L-140.99,11.25L-151.61,-12.75L-172.29,-21.99L-200.54,-28.00L-216.36,-33.35L-221.95,-42.62L-215.95,-54.76L-196.70,-60.14L-177.70,-56.06L-168.83,-41.30L-151.89,-50.45L-163.09,-69.90L-196.88,-77.84L-229.36,-67.58L-242.00,-39.19L-231.63,-17.77L-210.36,-9.01L-180.51,-2.83L-166.27,3.38L-162.00,14.24L-170.47,28.61L-188.45,33.29L-210.80,27.26ZM-109.16,-97.92L-102.13,-106.50L-102.75,-118.18L-110.82,-126.14L-121.44,-125.56L-128.40,-116.81L-127.77,-105.14L-119.77,-97.34ZM-96.57,41.20L-103.08,-78.23L-123.75,-77.10L-117.24,42.32ZM-19.00,87.08L22.80,66.80L30.92,26.42L24.84,-85.20L6.47,-84.20L7.34,-68.12L-7.02,-82.64L-28.28,-87.47L-66.07,-67.38L-77.00,-20.21L-61.01,25.50L-21.26,41.36L-3.01,35.94L9.99,22.72L10.41,31.49L4.56,58.61L-19.48,69.24L-38.90,64.89L-47.31,49.11L-63.43,57.59L-51.81,79.00ZM-26.15,-69.96L-2.68,-59.37L9.92,-24.93L2.01,10.62L-21.04,23.74L-44.77,13.17L-55.90,-21.34L-48.59,-56.87ZM60.87,32.62L81.53,31.49L77.99,-33.50L85.28,-64.68L108.07,-76.56L127.92,-68.66L134.84,-44.90L138.83,28.37L159.50,27.24L155.51,-46.02L145.70,-82.02L111.30,-94.60L89.25,-88.46L73.90,-70.60L72.96,-87.82L54.36,-86.81ZM242.49,25.61L250.18,16.87L249.49,5.21L240.82,-2.55L229.25,-1.87L221.56,6.87L222.25,18.53L230.92,26.29ZM223.63,-15.92L243.65,-17.01L243.31,-23.34L245.48,-40.23L255.91,-54.57L274.85,-74.96L282.63,-103.02L265.93,-136.67L226.16,-147.39L191.76,-132.36L179.84,-100.93L197.83,-93.93L206.87,-119.54L227.38,-128.67L249.77,-123.13L260.40,-100.40L255.33,-81.07L242.23,-66.75L226.79,-47.35L223.29,-22.25ZM317.52,-147.84L311.03,-140.61L311.56,-130.91L318.79,-124.42L323.91,-124.70L321.20,-108.02L311.88,-99.62L318.64,-91.54L331.71,-104.30L335.35,-125.33L334.98,-132.18L334.45,-141.89L327.22,-148.37L317.52,-147.84ZM352.65,-149.69L346.16,-142.46L346.69,-132.76L353.93,-126.27L359.04,-126.55L356.34,-109.87L347.01,-101.47L353.56,-93.21L366.85,-106.15L370.49,-127.18L370.11,-134.03L369.58,-143.74L362.35,-150.22L352.65,-149.69Z" fill="#ffffff" stroke="#000000"/>
    <path d="M-897.94,-111.76L-866.49,-256.83L-817.55,-116.69L-795.98,-118.02L-764.03,-280.89L-784.78,-284.66L-808.26,-143.48L-854.83,-278.52L-880.72,-276.93L-909.30,-137.28L-950.54,-274.49L-971.13,-268.19L-919.51,-110.44ZM-736.94,-121.64L-716.36,-122.90L-720.30,-187.16L-713.28,-217.62L-690.84,-229.52L-671.13,-221.84L-664.12,-198.06L-659.74,-126.37L-639.35,-127.62L-643.67,-199.48L-653.65,-235.18L-687.76,-247.39L-709.25,-241.05L-722.64,-224.86L-726.42,-286.39L-746.97,-285.13ZM-543.02,-213.02L-608.35,-188.51L-620.17,-159.45L-606.37,-133.38L-577.03,-126.76L-556.14,-132.17L-537.64,-147.57L-536.89,-133.91L-517.82,-135.08L-522.46,-211.25L-535.34,-245.26L-571.41,-254.99L-602.72,-245.28L-616.76,-221.29L-599.94,-212.32L-590.64,-230.90L-572.47,-238.17L-552.24,-233.58ZM-541.91,-194.96L-540.09,-165.06L-553.76,-151.52L-574.79,-143.63L-590.42,-146.67L-598.44,-161.70L-590.31,-178.30ZM-436.25,-138.49L-436.25,-138.50L-439.68,-155.97L-448.75,-154.03L-458.90,-158.42L-461.58,-173.17L-465.74,-241.07L-445.53,-242.31L-446.49,-257.98L-466.70,-256.74L-469.21,-297.61L-489.65,-296.36L-487.14,-255.48L-503.94,-254.45L-502.98,-238.79L-486.18,-239.82L-482.01,-171.92L-475.60,-143.70L-451.74,-135.35ZM-343.19,-284.13L-336.30,-292.67L-336.99,-304.22L-345.02,-312.03L-355.52,-311.39L-362.35,-302.68L-361.64,-291.15L-353.68,-283.49ZM-329.80,-146.61L-337.04,-264.69L-357.48,-263.44L-350.24,-145.36ZM-290.17,-185.76L-307.03,-176.58L-294.05,-154.12L-258.45,-146.28L-225.59,-156.64L-212.03,-185.86L-222.70,-209.53L-243.22,-218.53L-271.20,-224.28L-286.88,-229.48L-292.48,-238.60L-286.62,-250.65L-267.62,-256.11L-248.80,-252.19L-239.92,-237.66L-223.23,-246.82L-234.44,-265.98L-267.91,-273.60L-299.97,-263.24L-312.29,-235.08L-301.88,-213.96L-280.79,-205.44L-251.22,-199.53L-237.09,-193.48L-232.80,-182.77L-241.08,-168.50L-258.83,-163.74L-280.98,-169.56ZM-80.34,-273.74L-73.97,-280.93L-74.56,-290.53L-81.76,-296.89L-86.82,-296.58L-84.25,-313.10L-75.08,-321.48L-81.86,-329.35L-94.67,-316.71L-98.13,-295.89L-97.72,-289.11L-97.13,-279.51L-89.93,-273.15L-80.34,-273.74ZM-115.08,-271.61L-108.72,-278.80L-109.30,-288.40L-116.50,-294.76L-121.56,-294.45L-119.00,-310.97L-109.83,-319.34L-116.60,-327.22L-129.42,-314.58L-132.88,-293.76L-132.46,-286.98L-131.87,-277.38L-124.68,-271.02L-115.08,-271.61ZM37.12,-182.58L-4.98,-199.73L-21.05,-247.61L-10.08,-297.14L28.73,-319.25L61.44,-310.33L78.37,-283.00L97.01,-293.91L74.91,-326.06L27.60,-337.77L-28.52,-308.78L-44.21,-246.17L-20.99,-185.97L38.25,-164.06L83.66,-181.69L101.37,-215.13L81.97,-224.39L66.95,-195.13ZM152.73,-176.21L142.70,-339.70L122.26,-338.45L132.29,-174.96ZM189.30,-316.79L196.19,-325.33L195.50,-336.88L187.46,-344.69L176.96,-344.05L170.14,-335.35L170.84,-323.81L178.80,-316.15ZM202.69,-179.28L195.44,-297.35L175.01,-296.10L182.25,-178.02ZM231.14,-181.02L251.62,-182.28L247.88,-243.36L251.60,-273.96L274.87,-289.19L291.29,-282.81L297.80,-262.63L302.53,-185.40L322.97,-186.65L318.78,-255.00L324.50,-281.28L346.43,-293.58L364.34,-285.35L369.53,-264.71L374.13,-189.79L394.56,-191.05L389.52,-273.25L378.56,-302.53L349.76,-311.46L328.76,-305.03L313.68,-286.14L300.69,-302.61L278.82,-307.00L257.67,-301.05L243.37,-283.43L242.34,-300.23L223.94,-299.10ZM489.94,-276.38L424.60,-251.87L412.78,-222.81L426.59,-196.74L455.92,-190.12L476.81,-195.53L495.32,-210.93L496.06,-197.27L515.14,-198.44L510.49,-274.61L497.62,-308.62L461.55,-318.35L430.24,-308.64L416.20,-284.65L433.02,-275.68L442.32,-294.26L460.49,-301.54L480.72,-296.94ZM491.05,-258.32L492.87,-228.42L479.19,-214.88L458.16,-206.99L442.53,-210.03L434.51,-225.06L442.64,-241.67ZM596.71,-201.86L596.71,-201.86L593.27,-219.33L584.20,-217.39L574.05,-221.78L571.38,-236.54L567.21,-304.43L587.42,-305.67L586.46,-321.34L566.25,-320.10L563.75,-360.97L543.31,-359.72L545.82,-318.85L529.01,-317.81L529.97,-302.15L546.78,-303.18L550.94,-235.28L557.35,-207.06L581.22,-198.71ZM643.07,-228.83L629.24,-259.44L716.88,-264.84L717.52,-273.08L701.34,-315.51L659.30,-330.57L620.27,-311.20L608.09,-263.49L626.01,-217.63L667.11,-203.18L700.24,-215.21L714.27,-240.52L697.75,-249.47L686.61,-228.51L667.21,-220.63ZM628.91,-275.85L640.08,-303.66L660.34,-313.22L684.12,-304.80L694.99,-279.90ZM-514.02,69.82L-459.75,66.49L-401.32,42.08L-385.41,-20.60L-410.15,-80.91L-472.73,-96.82L-524.05,-93.67ZM-493.62,49.42L-501.30,-75.69L-471.55,-77.52L-427.41,-67.64L-408.11,-19.42L-419.50,30.01L-463.19,47.56ZM-332.96,36.17L-346.79,5.56L-259.14,0.17L-258.51,-8.08L-274.69,-50.50L-316.73,-65.56L-355.76,-46.20L-367.94,1.51L-350.02,47.37L-308.91,61.82L-275.79,49.79L-261.75,24.49L-278.28,15.53L-289.42,36.49L-308.82,44.37ZM-347.12,-10.85L-335.95,-38.66L-315.68,-48.22L-291.91,-39.79L-281.04,-14.90ZM-222.79,15.24L-239.66,24.42L-226.67,46.88L-191.08,54.72L-158.21,44.36L-144.66,15.14L-155.33,-8.53L-175.84,-17.53L-203.83,-23.28L-219.51,-28.47L-225.10,-37.60L-219.25,-49.65L-200.24,-55.10L-181.43,-51.19L-172.55,-36.65L-155.85,-45.82L-167.07,-64.98L-200.54,-72.60L-232.60,-62.24L-244.91,-34.08L-234.51,-12.95L-213.42,-4.44L-183.85,1.48L-169.72,7.52L-165.42,18.23L-173.70,32.51L-191.45,37.26L-213.60,31.44ZM-113.91,-93.06L-107.02,-101.60L-107.71,-113.14L-115.75,-120.96L-126.24,-120.32L-133.07,-111.61L-132.37,-100.07L-124.41,-92.42ZM-100.52,44.46L-107.77,-73.62L-128.20,-72.37L-120.96,45.71ZM-23.49,89.32L17.72,68.97L25.48,28.98L18.71,-81.38L0.55,-80.26L1.52,-64.37L-12.78,-78.63L-33.85,-83.27L-71.09,-63.15L-81.58,-16.41L-65.46,28.69L-26.03,44.11L-8.01,38.63L4.75,25.46L5.23,34.13L-0.38,61.00L-24.09,71.67L-43.32,67.51L-51.74,51.95L-67.63,60.45L-56.00,81.54ZM-31.62,-65.96L-8.34,-55.64L4.36,-21.66L-3.23,13.55L-25.94,26.68L-49.48,16.39L-60.72,-17.67L-53.72,-52.86ZM55.14,34.91L75.58,33.66L71.63,-30.61L78.64,-61.49L101.09,-73.39L120.78,-65.71L127.78,-42.26L132.23,30.18L152.66,28.93L148.22,-43.51L138.27,-79.05L104.17,-91.26L82.40,-85.04L67.33,-67.27L66.29,-84.30L47.90,-83.17ZM234.74,26.75L242.29,18.06L241.52,6.53L232.89,-1.09L221.45,-0.33L213.91,8.36L214.67,19.89L223.30,27.51ZM215.81,-14.19L235.60,-15.41L235.22,-21.66L237.25,-38.39L247.47,-52.64L266.07,-72.94L273.58,-100.74L256.83,-133.91L217.42,-144.25L183.50,-129.15L171.91,-97.98L189.76,-91.18L198.53,-116.57L218.75,-125.74L240.94,-120.41L251.61,-98.00L246.72,-78.84L233.86,-64.59L218.72,-45.30L215.42,-20.45ZM307.78,-145.31L301.41,-138.11L302.00,-128.52L309.20,-122.15L314.26,-122.47L311.69,-105.95L302.53,-97.57L309.27,-89.63L322.12,-102.34L325.58,-123.16L325.16,-129.94L324.57,-139.53L317.37,-145.90L307.78,-145.31ZM342.52,-147.38L336.15,-140.18L336.74,-130.59L343.94,-124.22L349.00,-124.53L346.43,-108.01L337.26,-99.64L343.80,-91.52L356.85,-104.41L360.31,-125.23L359.90,-132.01L359.31,-141.60L352.11,-147.97L342.52,-147.38Z" fill="#ffffff" stroke="#000000"/>
    <path d="M-894.01,-101.43L-863.88,-245.11L-814.54,-106.84L-793.22,-108.30L-762.72,-269.60L-783.26,-273.18L-805.53,-133.39L-852.50,-266.63L-878.09,-264.89L-905.42,-126.58L-947.13,-262.01L-967.44,-255.64L-915.33,-99.97ZM-734.85,-112.28L-714.50,-113.66L-718.83,-177.19L-712.09,-207.36L-689.98,-219.28L-670.44,-211.82L-663.35,-188.35L-658.53,-117.48L-638.38,-118.85L-643.13,-189.89L-653.24,-225.13L-687.05,-236.97L-708.26,-230.56L-721.40,-214.45L-725.55,-275.29L-745.87,-273.90ZM-543.68,-203.96L-608.13,-179.28L-619.62,-150.46L-605.79,-124.77L-576.74,-118.42L-556.11,-123.91L-537.92,-139.27L-537.09,-125.76L-518.23,-127.05L-523.33,-202.35L-536.30,-235.89L-572.03,-245.27L-602.94,-235.46L-616.66,-211.64L-599.97,-202.88L-590.89,-221.32L-572.97,-228.64L-552.93,-224.23ZM-542.46,-186.10L-540.46,-156.55L-553.89,-143.06L-574.63,-135.11L-590.11,-138.02L-598.15,-152.83L-590.22,-169.31ZM-437.58,-130.97L-437.58,-130.97L-441.10,-148.23L-450.05,-146.25L-460.12,-150.52L-462.86,-165.10L-467.44,-232.22L-447.46,-233.58L-448.52,-249.07L-468.50,-247.71L-471.25,-288.11L-491.45,-286.74L-488.70,-246.33L-505.31,-245.20L-504.25,-229.71L-487.64,-230.84L-483.07,-163.72L-476.54,-135.85L-452.88,-127.76ZM-346.52,-275.63L-339.77,-284.12L-340.53,-295.54L-348.53,-303.21L-358.91,-302.50L-365.60,-293.85L-364.82,-282.44L-356.90,-274.92ZM-332.36,-139.72L-340.32,-256.45L-360.52,-255.07L-352.56,-138.34ZM-293.43,-178.70L-310.04,-169.51L-297.05,-147.38L-261.80,-139.87L-229.36,-150.34L-216.15,-179.33L-226.86,-202.66L-247.21,-211.43L-274.93,-216.93L-290.47,-221.96L-296.07,-230.94L-290.36,-242.90L-271.60,-248.42L-252.96,-244.68L-244.09,-230.36L-227.64,-239.54L-238.85,-258.42L-272.01,-265.73L-303.64,-255.26L-315.63,-227.33L-305.20,-206.51L-284.29,-198.22L-255.00,-192.58L-240.99,-186.69L-236.67,-176.13L-244.76,-161.96L-262.28,-157.14L-284.23,-162.74ZM-86.50,-267.12L-80.25,-274.28L-80.90,-283.76L-88.06,-290.01L-93.06,-289.67L-90.64,-306.02L-81.63,-314.37L-88.38,-322.11L-100.97,-309.52L-104.25,-288.91L-103.79,-282.20L-103.15,-272.72L-95.99,-266.47L-86.50,-267.12ZM-120.85,-264.78L-114.60,-271.94L-115.25,-281.42L-122.41,-287.67L-127.41,-287.33L-124.98,-303.68L-115.97,-312.03L-122.72,-319.77L-135.31,-307.18L-138.59,-286.57L-138.14,-279.86L-137.49,-270.38L-130.33,-264.13L-120.85,-264.78ZM30.28,-177.76L-11.48,-194.44L-27.69,-241.68L-17.17,-290.74L21.06,-312.87L53.47,-304.27L70.40,-277.35L88.76,-288.26L66.68,-319.91L19.82,-331.18L-35.49,-302.13L-50.58,-240.10L-27.21,-180.72L31.52,-159.45L76.31,-177.19L93.61,-210.38L74.35,-219.41L59.70,-190.37ZM144.66,-172.24L133.64,-333.86L113.44,-332.49L124.45,-170.86ZM179.88,-311.52L186.64,-320.01L185.88,-331.42L177.87,-339.10L167.50,-338.39L160.81,-329.74L161.58,-318.33L169.50,-310.81ZM194.04,-175.61L186.08,-292.33L165.88,-290.96L173.84,-174.23ZM222.17,-177.52L242.42,-178.90L238.31,-239.29L241.78,-269.57L264.69,-284.79L280.97,-278.59L287.54,-258.68L292.75,-182.33L312.95,-183.71L308.35,-251.28L313.83,-277.30L335.44,-289.61L353.20,-281.60L358.47,-261.22L363.52,-187.16L383.73,-188.54L378.19,-269.80L367.15,-298.69L338.61,-307.32L317.88,-300.83L303.09,-282.04L290.14,-298.24L268.48,-302.44L247.60,-296.41L233.58,-278.88L232.44,-295.49L214.26,-294.26ZM477.48,-273.58L413.03,-248.90L401.53,-220.08L415.36,-194.39L444.42,-188.04L465.04,-193.52L483.24,-208.88L484.07,-195.38L502.93,-196.66L497.82,-271.97L484.85,-305.51L449.12,-314.89L418.22,-305.07L404.49,-281.25L421.19,-272.50L430.26,-290.94L448.18,-298.25L468.22,-293.85ZM478.70,-255.72L480.70,-226.17L467.27,-212.68L446.52,-204.73L431.04,-207.64L423.01,-222.44L430.94,-238.92ZM583.57,-200.59L583.58,-200.59L580.06,-217.84L571.10,-215.87L561.03,-220.14L558.29,-234.72L553.71,-301.84L573.69,-303.20L572.64,-318.69L552.66,-317.33L549.90,-357.73L529.70,-356.35L532.46,-315.95L515.84,-314.82L516.90,-299.33L533.51,-300.46L538.09,-233.34L544.62,-205.47L568.28,-197.38ZM629.24,-227.58L615.36,-257.76L702.00,-263.68L702.57,-271.84L686.29,-313.69L644.61,-328.30L606.14,-308.89L594.42,-261.62L612.45,-216.39L653.20,-202.37L685.88,-214.50L699.58,-239.61L683.19,-248.36L672.31,-227.55L653.17,-219.64ZM614.93,-273.99L625.78,-301.57L645.76,-311.16L669.33,-302.98L680.25,-278.44ZM-513.10,75.57L-459.45,71.92L-401.82,47.38L-386.51,-14.71L-411.39,-74.20L-473.38,-89.51L-524.12,-86.05ZM-493.06,55.26L-501.49,-68.42L-472.08,-70.43L-428.36,-60.95L-408.95,-13.39L-419.88,35.57L-462.98,53.21ZM-334.25,41.07L-348.14,10.90L-261.49,4.97L-260.92,-3.19L-277.20,-45.04L-318.88,-59.65L-357.35,-40.23L-369.08,7.03L-351.05,52.27L-310.30,66.28L-277.62,54.16L-263.91,29.04L-280.31,20.30L-291.19,41.10L-310.33,49.02ZM-348.57,-5.33L-337.71,-32.91L-317.74,-42.50L-294.17,-34.33L-283.25,-9.78ZM-225.44,19.63L-242.06,28.82L-229.07,50.95L-193.81,58.46L-161.37,48.00L-148.17,19.01L-158.88,-4.33L-179.23,-13.09L-206.94,-18.59L-222.49,-23.62L-228.08,-32.61L-222.37,-44.56L-203.61,-50.09L-184.98,-46.35L-176.10,-32.03L-159.65,-41.20L-170.87,-60.08L-204.02,-67.39L-235.66,-56.93L-247.65,-28.99L-237.21,-8.17L-216.30,0.11L-187.02,5.76L-173.00,11.64L-168.68,22.21L-176.78,36.38L-194.30,41.20L-216.24,35.60ZM-118.49,-88.21L-111.73,-96.70L-112.49,-108.11L-120.49,-115.79L-130.87,-115.08L-137.56,-106.43L-136.79,-95.02L-128.86,-87.50ZM-104.32,47.71L-112.28,-69.02L-132.48,-67.65L-124.52,49.08ZM-27.83,91.55L12.78,71.16L20.19,31.55L12.75,-77.55L-5.20,-76.32L-4.13,-60.61L-18.37,-74.62L-39.24,-79.07L-75.94,-58.91L-86.00,-12.62L-69.75,31.87L-30.65,46.86L-12.87,41.32L-0.33,28.21L0.19,36.78L-5.17,63.40L-28.54,74.11L-47.59,70.12L-56.03,54.79L-71.69,63.30L-60.04,84.08ZM-36.92,-61.96L-13.82,-51.91L-1.04,-18.39L-8.30,16.48L-30.68,29.62L-54.03,19.60L-65.37,-14.01L-58.69,-48.86ZM49.56,37.21L69.77,35.84L65.44,-27.69L72.15,-58.28L94.28,-70.20L113.80,-62.74L120.89,-39.59L125.77,32.02L145.97,30.64L141.09,-40.97L131.02,-76.05L97.21,-87.89L75.71,-81.60L60.94,-63.92L59.79,-80.75L41.61,-79.51ZM227.13,27.94L234.54,19.29L233.70,7.89L225.12,0.42L213.81,1.24L206.40,9.89L207.24,21.29L215.82,28.77ZM208.13,-12.43L227.70,-13.76L227.28,-19.95L229.18,-36.50L239.19,-50.66L257.44,-70.86L264.68,-98.41L247.90,-131.10L208.86,-141.06L175.40,-125.90L164.16,-95.00L181.85,-88.39L190.36,-113.56L210.29,-122.77L232.27,-117.65L242.97,-95.55L238.27,-76.58L225.65,-62.40L210.81,-43.21L207.71,-18.61ZM298.21,-142.72L291.96,-135.56L292.61,-126.08L299.77,-119.83L304.77,-120.17L302.35,-103.82L293.33,-95.47L300.06,-87.66L312.68,-100.32L315.96,-120.93L315.50,-127.64L314.85,-137.12L307.69,-143.37L298.21,-142.72ZM332.55,-145.00L326.30,-137.84L326.95,-128.36L334.11,-122.11L339.11,-122.45L336.69,-106.10L327.67,-97.75L334.19,-89.76L347.02,-102.60L350.30,-123.21L349.84,-129.92L349.19,-139.40L342.03,-145.65L332.55,-145.00Z" fill="#ffffff" stroke="#000000"/>
    <path d="M-906.35,492L-906.35,469.28L-898.22,492L-894.99,492L-886.86,469.28L-886.86,492L-883.25,492L-883.25,464.64L-888.22,464.64L-896.55,487.33L-904.68,464.64L-909.96,464.64L-909.96,492ZM-865.67,478.75L-876.82,482.17L-879.09,486.89L-877.05,491.38L-872.23,492.78L-868.69,492.09L-865.45,489.71L-865.46,492L-862.27,492L-862.27,479.25L-864.06,473.45L-869.98,471.46L-875.30,472.76L-877.88,476.62L-875.17,478.28L-873.43,475.28L-870.33,474.25L-867.00,475.23ZM-865.67,481.77L-865.68,486.77L-868.09,488.89L-871.68,489.99L-874.26,489.33L-875.44,486.74L-873.91,484.05ZM-857.12,492L-853.70,492L-853.70,481.25L-852.22,476.17L-848.35,474.41L-845.15,475.90L-844.22,479.88L-844.22,492L-840.80,492L-840.80,479.88L-842.09,473.85L-847.66,471.47L-851.35,472.28L-854.04,475.09L-854.04,472.24L-857.12,472.24ZM-833.34,468.94L-832.11,467.58L-832.10,465.65L-833.36,464.27L-835.12,464.27L-836.35,465.65L-836.35,467.58L-835.10,468.94ZM-832.52,492L-832.52,472.24L-835.94,472.24L-835.94,492ZM-818.31,468.12L-817.85,465.29L-820.94,464.71L-825.30,466.41L-826.70,471.29L-826.70,472.24L-829.67,472.24L-829.67,474.86L-826.70,474.86L-826.70,492L-823.40,492L-823.40,474.86L-819.56,474.86L-819.56,472.24L-823.40,472.24L-823.40,471.21L-822.75,468.65L-820.52,467.74ZM-807.97,471.46L-814.77,474.29L-817.39,482.12L-814.77,489.95L-807.97,492.78L-801.17,489.95L-798.55,482.12L-801.16,474.29ZM-807.97,489.87L-812.08,488.06L-813.90,482.12L-812.08,476.18L-807.97,474.37L-803.85,476.18L-802.04,482.12L-803.85,488.06ZM-795.03,492L-791.61,492L-791.61,481.25L-790.13,476.17L-786.26,474.41L-783.06,475.90L-782.13,479.88L-782.13,492L-778.71,492L-778.71,479.88L-780.00,473.85L-785.56,471.47L-789.26,472.28L-791.95,475.09L-791.95,472.24L-795.03,472.24ZM-765.45,492.27L-765.45,492.26L-765.85,489.32L-767.38,489.55L-769.03,488.71L-769.32,486.22L-769.32,474.86L-765.94,474.86L-765.94,472.24L-769.32,472.24L-769.32,465.40L-772.74,465.40L-772.74,472.24L-775.55,472.24L-775.55,474.86L-772.74,474.86L-772.74,486.22L-771.96,491.00L-768.07,492.63ZM-737.50,487.93L-737.50,478.13L-749.05,478.13L-749.05,481.31L-740.99,481.31L-740.97,486.22L-748.63,489.75L-755.95,486.41L-758.55,478.32L-756.06,470.17L-749.21,466.88L-744.27,468.25L-741.30,473.01L-738.24,471.11L-741.44,465.93L-749.13,463.79L-758.98,468.04L-762.42,478.32L-758.78,488.60L-748.74,492.86ZM-724.35,474.77L-721.78,475.62L-720.76,472.73L-724.11,471.47L-727.37,472.48L-729.65,475.66L-729.65,472.24L-732.73,472.24L-732.73,491.81L-729.31,492L-729.31,481.32L-728.06,476.56ZM-710.01,471.46L-716.81,474.29L-719.42,482.12L-716.81,489.95L-710.01,492.78L-703.20,489.95L-700.58,482.12L-703.20,474.29ZM-710.01,489.87L-714.12,488.06L-715.93,482.12L-714.12,476.18L-710.01,474.37L-705.89,476.18L-704.07,482.12L-705.89,488.06ZM-688.58,492.27L-688.58,492.26L-688.97,489.32L-690.51,489.55L-692.15,488.71L-692.45,486.22L-692.45,474.86L-689.07,474.86L-689.07,472.24L-692.45,472.24L-692.45,465.40L-695.87,465.40L-695.87,472.24L-698.68,472.24L-698.68,474.86L-695.87,474.86L-695.87,486.22L-695.09,491.00L-691.19,492.63ZM-680.57,488.24L-682.57,483.00L-667.90,482.99L-667.71,481.63L-669.97,474.39L-676.83,471.45L-683.53,474.28L-686.05,482.11L-683.53,489.93L-676.83,492.76L-671.18,491.10L-668.58,487.02L-671.25,485.36L-673.32,488.74L-676.63,489.86ZM-682.45,480.26L-680.31,475.73L-676.83,474.35L-672.95,476.00L-671.40,480.26ZM-661.99,485.88L-664.90,487.24L-662.96,491.11L-657.11,492.78L-651.52,491.39L-648.97,486.66L-650.50,482.61L-653.83,480.90L-658.44,479.65L-661.00,478.62L-661.84,477.05L-660.74,475.10L-657.52,474.38L-654.42,475.23L-653.09,477.74L-650.21,476.38L-651.88,473.07L-657.39,471.46L-662.84,472.86L-665.18,477.43L-663.66,481.06L-660.23,482.69L-655.36,483.98L-653.07,485.13L-652.46,486.96L-653.99,489.26L-656.99,489.87L-660.63,488.67ZM-641.92,483.45L-638.72,483.45L-637.20,484.67L-633.14,492.30L-630.05,490.63L-634.16,483.45L-636.67,482.04L-634.62,480.06L-632.77,476.14L-631.66,475.64L-630.10,475.39L-630.56,472.24L-633.40,472.52L-635.30,474.17L-637.43,478.82L-638.72,480.60L-641.91,480.60L-641.91,464.64L-643.66,464.64L-645.32,464.64L-645.33,492L-641.92,492ZM-625.58,492.01L-615.04,492.01L-607.42,490.45L-604.53,484.21L-606.06,480.03L-610.31,477.70L-606.80,475.27L-605.82,471.62L-608.58,466.13L-615.58,464.63L-625.58,464.63ZM-621.94,476.42L-621.95,467.89L-616.40,467.89L-611.64,468.44L-609.62,472.08L-611.57,475.51L-615.93,476.42ZM-621.94,488.79L-621.94,479.64L-615.54,479.64L-610.64,480.53L-608.45,484.21L-610.32,488.02L-615.04,488.79ZM-592.40,471.46L-599.20,474.29L-601.81,482.12L-599.20,489.95L-592.40,492.78L-585.59,489.95L-582.97,482.12L-585.59,474.29ZM-592.40,489.87L-596.51,488.06L-598.32,482.12L-596.51,476.18L-592.40,474.37L-588.28,476.18L-586.46,482.12L-588.28,488.06ZM-571.27,471.46L-578.07,474.29L-580.68,482.12L-578.07,489.95L-571.27,492.78L-564.46,489.95L-561.85,482.12L-564.46,474.29ZM-571.27,489.87L-575.38,488.06L-577.19,482.12L-575.38,476.18L-571.27,474.37L-567.15,476.18L-565.33,482.12L-567.15,488.06ZM-554.82,483.45L-551.62,483.45L-550.10,484.67L-546.04,492.30L-542.96,490.63L-547.06,483.45L-549.57,482.04L-547.52,480.06L-545.67,476.14L-544.56,475.64L-543.00,475.39L-543.46,472.24L-546.31,472.52L-548.20,474.17L-550.34,478.82L-551.62,480.60L-554.82,480.60L-554.82,464.64L-556.56,464.64L-558.23,464.64L-558.23,492L-554.82,492Z"/>
</svg>