<?xml version="1.0"?>
<svg xmlns="http://www.w3.org/2000/svg" width="1920" height="1080" viewBox="-960 -540 1920 1080">
    <path d="M-835,-270L-835,-300L-815,-360L-765,-400L-745,-400L-725,-380L-725,-350L-705,-350L-685,-370L-695,-390L-745,-410L-775,-410L-815,-390L-845,-360L-865,-330L-875,-280L-855,-230L-815,-210L-775,-210L-745,-230L-715,-260L-725,-270L-755,-240L-785,-220L-805,-220L-825,-230ZM-675,-230L-585,-420L-655,-420L-655,-410L-625,-410L-705,-230L-705,-220L-685,-210L-655,-220L-605,-270L-615,-280L-665,-230ZM-495,-370L-485,-370L-475,-390L-475,-400L-495,-410L-505,-410L-515,-390L-515,-380ZM-605,-290L-595,-280L-545,-330L-535,-330L-595,-230L-595,-220L-585,-210L-565,-210L-545,-220L-495,-270L-505,-280L-555,-230L-565,-230L-505,-330L-505,-340L-525,-350L-555,-340ZM-335,-300L-315,-320L-295,-330L-285,-320L-335,-230L-335,-220L-325,-210L-305,-210L-285,-220L-235,-270L-245,-280L-295,-230L-305,-230L-255,-310L-255,-340L-285,-350L-315,-340L-335,-320L-335,-340L-355,-350L-385,-340L-415,-310L-405,-330L-405,-340L-415,-350L-445,-340L-495,-290L-485,-280L-435,-330L-425,-330L-485,-220L-475,-210L-455,-210L-415,-290L-385,-320L-365,-330L-355,-320L-405,-220L-395,-210L-375,-210ZM-75,-340L-85,-350L-105,-320L-115,-340L-155,-350L-205,-310L-225,-260L-215,-220L-195,-210L-175,-210L-145,-240L-145,-220L-135,-210L-105,-220L-55,-270L-65,-280L-115,-230L-125,-230ZM-175,-230L-185,-230L-195,-260L-175,-300L-145,-330L-125,-330L-115,-310L-115,-300L-145,-260ZM-25,-230L25,-330L55,-330L55,-340L25,-340L45,-380L25,-380L15,-350L-5,-340L-25,-340L-25,-330L-5,-330L-55,-230L-55,-220L-45,-210L-25,-210L-5,-220L45,-270L35,-280L-15,-230ZM195,-300L195,-320L185,-340L145,-350L95,-320L65,-260L75,-220L95,-210L115,-210L135,-220L175,-260L165,-270L125,-230L105,-230L95,-260L115,-300L145,-330L165,-330L165,-300L145,-290L115,-290L115,-280L165,-280ZM245,-410L265,-390L215,-230L195,-210L295,-210L345,-230L375,-270L365,-310L335,-320L355,-330L385,-360L375,-400L325,-410ZM245,-230L295,-390L305,-400L325,-400L345,-390L345,-360L325,-330L295,-320L275,-320L275,-310L305,-310L325,-300L335,-270L315,-240L275,-220L255,-220ZM545,-340L535,-350L515,-320L505,-340L465,-350L415,-310L395,-260L405,-220L425,-210L445,-210L475,-240L475,-220L485,-210L515,-220L565,-270L555,-280L505,-230L495,-230ZM445,-230L435,-230L425,-260L445,-300L475,-330L495,-330L505,-310L505,-300L475,-260ZM585,-220L585,-250L575,-260L555,-250L555,-220L575,-210L595,-210L625,-220L645,-240L645,-260L635,-310L635,-330L655,-340L655,-310L665,-300L685,-310L685,-340L655,-350L615,-340L605,-320L605,-300L615,-260L615,-240L595,-220ZM825,-300L825,-320L815,-340L775,-350L725,-320L695,-260L705,-220L725,-210L745,-210L765,-220L805,-260L795,-270L755,-230L735,-230L725,-260L745,-300L775,-330L795,-330L795,-300L775,-290L745,-290L745,-280L795,-280Z" fill="#ffffff" stroke="#000000"/>
    <path d="M-826.45,-282.93L-825.79,-312.63L-804.66,-371.57L-754.29,-410.05L-734.49,-409.60L-715.14,-389.36L-715.81,-359.67L-696.01,-359.23L-675.77,-378.58L-685.22,-398.59L-734.27,-419.50L-763.96,-420.17L-803.99,-401.26L-834.35,-372.23L-854.81,-342.98L-865.82,-293.72L-847.14,-243.79L-807.99,-223.10L-768.40,-222.22L-738.26,-241.34L-707.91,-270.37L-717.58,-280.49L-747.94,-251.46L-778.08,-232.34L-797.87,-232.78L-817.44,-243.12ZM-668.98,-239.79L-575.69,-425.85L-644.97,-427.40L-645.19,-417.50L-615.50,-416.84L-698.67,-240.46L-698.90,-230.56L-679.32,-220.22L-649.41,-229.45L-598.81,-277.83L-608.49,-287.95L-659.08,-239.57ZM-487.72,-374.36L-477.82,-374.14L-467.48,-393.71L-467.26,-403.61L-486.83,-413.95L-496.73,-414.17L-507.07,-394.60L-507.29,-384.70ZM-598.37,-297.62L-588.69,-287.50L-538.09,-335.88L-528.20,-335.66L-589.80,-238.01L-590.02,-228.12L-580.35,-218.00L-560.55,-217.55L-540.54,-227.01L-489.94,-275.39L-499.61,-285.50L-550.21,-237.13L-560.11,-237.35L-498.50,-334.99L-498.28,-344.89L-517.85,-355.23L-547.77,-346.00ZM-330.91,-301.53L-310.67,-320.88L-290.66,-330.33L-280.98,-320.21L-332.47,-232.24L-332.69,-222.35L-323.01,-212.23L-303.22,-211.78L-283.20,-221.24L-232.60,-269.61L-242.28,-279.73L-292.88,-231.36L-302.77,-231.58L-251.51,-309.65L-250.84,-339.34L-280.31,-349.90L-310.23,-340.67L-330.47,-321.32L-330.02,-341.12L-349.60,-351.46L-379.51,-342.23L-409.87,-313.20L-399.53,-332.77L-399.31,-342.67L-408.98,-352.79L-438.90,-343.56L-489.49,-295.18L-479.82,-285.06L-429.22,-333.44L-419.32,-333.22L-481.15,-225.68L-471.48,-215.56L-451.68,-215.11L-410.31,-293.40L-379.96,-322.43L-359.94,-331.88L-350.26,-321.76L-401.97,-223.90L-392.30,-213.78L-372.50,-213.34ZM-72.69,-335.34L-82.36,-345.46L-102.83,-316.22L-112.28,-336.23L-151.65,-347.02L-202.02,-308.54L-222.93,-259.49L-213.92,-219.68L-194.34,-209.34L-174.55,-208.90L-144.19,-237.92L-144.64,-218.13L-134.96,-208.01L-105.05,-217.24L-54.45,-265.62L-64.12,-275.74L-114.72,-227.36L-124.62,-227.58ZM-174.11,-228.69L-184.00,-228.91L-193.23,-258.83L-172.55,-297.97L-142.19,-327.00L-122.40,-326.56L-112.94,-306.54L-113.17,-296.64L-143.75,-257.72ZM-25.64,-225.36L26.06,-323.23L55.76,-322.56L55.98,-332.46L26.29,-333.12L46.97,-372.27L27.17,-372.71L16.61,-343.24L-3.41,-333.79L-23.20,-334.23L-23.42,-324.34L-3.63,-323.89L-55.34,-226.03L-55.56,-216.13L-45.88,-206.01L-26.09,-205.57L-6.07,-215.02L44.53,-263.40L34.85,-273.52L-15.75,-225.14ZM193.66,-289.76L194.10,-309.56L184.65,-329.57L145.28,-340.36L95.12,-311.78L64.10,-253.06L73.11,-213.24L92.68,-202.90L112.48,-202.46L132.49,-211.91L172.97,-250.61L163.30,-260.73L122.82,-222.03L103.02,-222.48L93.79,-252.39L114.48,-291.54L144.83,-320.56L164.63,-320.12L163.96,-290.43L143.95,-280.97L114.25,-281.64L114.03,-271.74L163.52,-270.63ZM245.59,-397.52L264.94,-377.28L211.90,-220.03L191.66,-200.68L290.63,-198.46L340.56,-217.15L371.15,-256.07L362.14,-295.88L332.67,-306.45L352.68,-315.90L383.04,-344.93L374.03,-384.74L324.77,-395.75ZM241.59,-219.37L294.63,-376.62L304.75,-386.29L324.54,-385.85L344.12,-375.51L343.45,-345.82L322.99,-316.57L293.08,-307.34L273.28,-307.78L273.06,-297.88L302.75,-297.22L322.32,-286.87L331.56,-256.96L311.09,-227.71L271.06,-208.80L251.27,-209.25ZM540.96,-321.58L531.28,-331.70L510.82,-302.45L501.37,-322.47L462.00,-333.25L411.62,-294.77L390.72,-245.73L399.73,-205.92L419.30,-195.58L439.10,-195.13L469.45,-224.16L469.01,-204.36L478.69,-194.25L508.60,-203.48L559.20,-251.85L549.52,-261.97L498.92,-213.60L489.03,-213.82ZM439.54,-214.93L429.64,-215.15L420.41,-245.06L441.09,-284.21L471.45,-313.24L491.25,-312.79L500.70,-292.78L500.48,-282.88L469.90,-243.95ZM577.88,-201.92L578.55,-231.62L568.87,-241.74L548.86,-232.28L548.19,-202.59L567.76,-192.25L587.56,-191.80L617.47,-201.04L637.71,-220.39L638.16,-240.18L629.37,-289.89L629.81,-309.69L649.83,-319.14L649.16,-289.45L658.84,-279.33L678.86,-288.78L679.52,-318.47L650.05,-329.04L610.24,-320.03L599.90,-300.45L599.45,-280.66L608.46,-240.85L608.02,-221.05L587.78,-201.70ZM817.20,-275.78L817.64,-295.57L808.19,-315.59L768.82,-326.37L718.67,-297.79L687.64,-239.07L696.65,-199.26L716.23,-188.92L736.02,-188.47L756.04,-197.93L796.52,-236.63L786.84,-246.75L746.36,-208.05L726.57,-208.49L717.34,-238.41L738.02,-277.55L768.38,-306.58L788.17,-306.13L787.51,-276.44L767.49,-266.99L737.80,-267.65L737.58,-257.76L787.06,-256.65Z" fill="#ffffff" stroke="#000000"/>
    <path d="M-817.63,-295.68L-816.31,-325.05L-794.09,-382.91L-743.38,-419.87L-723.80,-418.99L-705.10,-398.53L-706.42,-369.16L-686.84,-368.28L-666.38,-386.99L-675.29,-407.01L-723.36,-428.78L-752.73,-430.10L-792.77,-412.28L-823.46,-384.23L-844.36,-355.73L-856.35,-307.22L-838.96,-257.39L-800.68,-236.06L-761.52,-234.30L-731.27,-252.56L-700.58,-280.61L-709.93,-290.84L-740.62,-262.79L-770.87,-244.53L-790.45,-245.41L-809.59,-256.08ZM-662.74,-249.48L-566.28,-431.54L-634.81,-434.62L-635.25,-424.83L-605.88,-423.51L-692.11,-250.80L-692.55,-241.01L-673.41,-230.34L-643.60,-238.82L-592.45,-285.57L-601.80,-295.80L-652.95,-249.05ZM-480.37,-378.64L-470.58,-378.20L-459.91,-397.34L-459.47,-407.13L-478.61,-417.80L-488.40,-418.24L-499.07,-399.10L-499.51,-389.31ZM-591.57,-305.15L-582.22,-294.92L-531.08,-341.67L-521.29,-341.23L-584.42,-245.97L-584.86,-236.18L-575.51,-225.95L-555.93,-225.07L-535.91,-233.98L-484.76,-280.74L-494.11,-290.97L-545.26,-244.21L-555.05,-244.65L-491.91,-339.92L-491.48,-349.71L-510.62,-360.38L-540.43,-351.90ZM-326.80,-303.08L-306.34,-321.78L-286.32,-330.69L-276.97,-320.46L-329.88,-234.55L-330.32,-224.76L-320.96,-214.53L-301.38,-213.65L-281.36,-222.56L-230.22,-269.31L-239.57,-279.54L-290.72,-232.79L-300.51,-233.23L-248.04,-309.35L-246.72,-338.72L-275.65,-349.83L-305.46,-341.36L-325.92,-322.66L-325.04,-342.24L-344.18,-352.91L-373.99,-344.43L-404.68,-316.38L-394.01,-335.52L-393.57,-345.31L-402.92,-355.54L-432.73,-347.07L-483.88,-300.32L-474.53,-290.09L-423.38,-336.84L-413.59,-336.40L-477.17,-231.35L-467.82,-221.12L-448.24,-220.24L-405.56,-296.80L-374.87,-324.85L-354.85,-333.77L-345.50,-323.54L-398.85,-227.83L-389.50,-217.60L-369.92,-216.72ZM-70.50,-330.81L-79.85,-341.04L-100.75,-312.55L-109.66,-332.57L-148.38,-344.12L-199.09,-307.15L-220.87,-259.08L-212.83,-219.48L-193.69,-208.81L-174.11,-207.94L-143.42,-235.99L-144.30,-216.41L-134.95,-206.18L-105.14,-214.65L-53.99,-261.40L-63.35,-271.63L-114.49,-224.88L-124.28,-225.32ZM-173.23,-227.52L-183.02,-227.95L-191.50,-257.76L-170.16,-296.05L-139.47,-324.10L-119.89,-323.22L-110.98,-303.20L-111.42,-293.41L-142.55,-255.57ZM-26.38,-220.92L26.96,-316.63L56.33,-315.31L56.77,-325.10L27.40,-326.42L48.74,-364.70L29.16,-365.58L18.05,-336.65L-1.97,-327.74L-21.55,-328.62L-21.99,-318.83L-2.41,-317.95L-55.75,-222.24L-56.19,-212.45L-46.84,-202.22L-27.26,-201.34L-7.24,-210.26L43.91,-257.01L34.56,-267.24L-16.59,-220.49ZM192.08,-279.79L192.96,-299.37L184.04,-319.39L145.32,-330.94L95.05,-303.76L63.05,-246.34L71.08,-206.74L90.22,-196.07L109.80,-195.19L129.82,-204.10L170.74,-241.51L161.39,-251.74L120.47,-214.33L100.89,-215.21L92.42,-245.02L113.76,-283.30L144.44,-311.36L164.03,-310.48L162.71,-281.11L142.69,-272.20L113.32,-273.51L112.88,-263.72L161.83,-261.53ZM245.86,-385.28L264.56,-364.83L208.58,-210.38L188.12,-191.68L286.02,-187.28L335.85,-204.67L366.98,-242.51L358.95,-282.11L330.02,-293.22L350.04,-302.13L380.73,-330.18L372.69,-369.78L324.18,-381.77ZM237.95,-209.06L293.93,-363.51L304.16,-372.86L323.74,-371.98L342.88,-361.31L341.57,-331.94L320.67,-303.45L290.86,-294.98L271.28,-295.85L270.84,-286.06L300.21,-284.75L319.35,-274.08L327.82,-244.27L306.92,-215.78L266.88,-197.95L247.30,-198.83ZM536.49,-303.57L527.14,-313.80L506.24,-285.31L497.33,-305.33L458.61,-316.88L407.90,-279.91L386.12,-231.84L394.16,-192.24L413.30,-181.57L432.88,-180.69L463.57,-208.75L462.69,-189.17L472.04,-178.94L501.85,-187.41L552.99,-234.16L543.64,-244.39L492.50,-197.64L482.71,-198.08ZM433.76,-200.27L423.97,-200.71L415.49,-230.52L436.83,-268.81L467.52,-296.86L487.10,-295.98L496.01,-275.96L495.57,-266.17L464.44,-228.33ZM570.38,-184.33L571.70,-213.70L562.35,-223.93L542.33,-215.02L541.01,-185.65L560.15,-174.98L579.73,-174.10L609.54,-182.58L630.00,-201.28L630.88,-220.86L623.28,-270.25L624.16,-289.83L644.18,-298.74L642.86,-269.37L652.21,-259.14L672.23,-268.05L673.55,-297.42L644.62,-308.53L605.02,-300.50L594.35,-281.36L593.47,-261.78L601.51,-222.18L600.63,-202.60L580.17,-183.89ZM808.86,-252.11L809.74,-271.69L800.82,-291.71L762.10,-303.26L711.83,-276.08L679.83,-218.66L687.86,-179.06L707.00,-168.39L726.58,-167.51L746.60,-176.42L787.52,-213.83L778.17,-224.06L737.25,-186.65L717.67,-187.53L709.20,-217.34L730.54,-255.62L761.22,-283.68L780.80,-282.80L779.49,-253.43L759.47,-244.52L730.10,-245.83L729.66,-236.04L778.61,-233.85Z" fill="#ffffff" stroke="#000000"/>
    <path d="M-808.52,-308.22L-806.56,-337.25L-783.29,-394.02L-732.30,-429.47L-712.94,-428.16L-694.89,-407.50L-696.84,-378.47L-677.49,-377.17L-656.83,-395.22L-665.20,-415.23L-712.29,-437.84L-741.32,-439.80L-781.34,-423.05L-812.33,-395.97L-833.64,-368.24L-846.58,-320.50L-830.48,-270.81L-793.08,-248.85L-754.36,-246.24L-724.03,-263.64L-693.03,-290.72L-702.06,-301.05L-733.05,-273.97L-763.39,-256.57L-782.75,-257.87L-801.45,-268.85ZM-656.28,-259.07L-556.79,-437.09L-624.53,-441.65L-625.19,-431.97L-596.15,-430.02L-685.31,-261.03L-685.97,-251.35L-667.26,-240.37L-637.57,-248.09L-585.92,-293.22L-594.95,-303.55L-646.60,-258.42ZM-472.94,-382.83L-463.27,-382.18L-452.28,-400.88L-451.63,-410.56L-470.34,-421.54L-480.01,-422.19L-491.00,-403.49L-491.65,-393.81ZM-584.62,-312.58L-575.59,-302.25L-523.94,-347.38L-514.27,-346.72L-578.85,-253.86L-579.51,-244.18L-570.48,-233.85L-551.12,-232.54L-531.12,-240.92L-479.47,-286.05L-488.49,-296.38L-540.14,-251.25L-549.82,-251.90L-485.23,-344.77L-484.58,-354.45L-503.28,-365.43L-532.97,-357.71ZM-322.66,-304.65L-302.00,-322.70L-281.99,-331.08L-272.97,-320.75L-327.22,-236.90L-327.88,-227.22L-318.85,-216.89L-299.49,-215.59L-279.49,-223.96L-227.84,-269.09L-236.86,-279.42L-288.51,-234.29L-298.19,-234.95L-244.58,-309.11L-242.63,-338.15L-271.01,-349.78L-300.70,-342.06L-321.36,-324.01L-320.05,-343.36L-338.76,-354.34L-368.44,-346.62L-399.43,-319.54L-388.45,-338.25L-387.80,-347.93L-396.82,-358.26L-426.51,-350.53L-478.16,-305.40L-469.14,-295.07L-417.48,-340.20L-407.81,-339.55L-473.05,-237.01L-464.02,-226.68L-444.67,-225.37L-400.74,-300.19L-369.75,-327.27L-349.74,-335.64L-340.71,-325.31L-395.62,-231.79L-386.60,-221.46L-367.24,-220.16ZM-68.42,-326.41L-77.45,-336.74L-98.76,-309.01L-107.13,-329.02L-145.19,-341.30L-196.19,-305.85L-218.81,-258.76L-211.74,-219.40L-193.04,-208.42L-173.68,-207.11L-142.69,-234.19L-143.99,-214.84L-134.97,-204.51L-105.28,-212.23L-53.63,-257.36L-62.66,-267.69L-114.31,-222.56L-123.99,-223.21ZM-172.38,-226.47L-182.05,-227.12L-189.78,-256.81L-167.81,-294.22L-136.82,-321.29L-117.46,-319.99L-109.09,-299.98L-109.74,-290.30L-141.39,-253.55ZM-27.20,-216.69L27.71,-310.21L56.74,-308.25L57.39,-317.93L28.36,-319.89L50.32,-357.30L30.97,-358.60L19.33,-330.22L-0.68,-321.84L-20.03,-323.15L-20.68,-313.47L-1.33,-312.17L-56.24,-218.65L-56.89,-208.97L-47.87,-198.64L-28.51,-197.33L-8.50,-205.71L43.15,-250.84L34.12,-261.17L-17.53,-216.04ZM190.28,-270.09L191.58,-289.45L183.21,-309.45L145.15,-321.74L94.80,-295.97L61.85,-239.85L68.92,-200.49L87.63,-189.51L106.98,-188.20L126.99,-196.58L168.31,-232.68L159.29,-243.01L117.97,-206.91L98.61,-208.21L90.89,-237.90L112.85,-275.31L143.84,-302.38L163.20,-301.08L161.24,-272.05L141.23,-263.67L112.20,-265.63L111.55,-255.95L159.94,-252.69ZM245.84,-373.29L263.89,-352.63L205.07,-201.04L184.41,-182.99L281.19,-176.47L330.88,-192.56L362.53,-229.32L355.46,-268.68L327.07,-280.32L347.08,-288.69L378.07,-315.77L371.00,-355.13L323.26,-368.07ZM234.10,-199.08L292.93,-350.67L303.26,-359.70L322.61,-358.39L341.32,-347.41L339.36,-318.38L318.05,-290.65L288.36,-282.93L269.01,-284.23L268.35,-274.55L297.39,-272.60L316.09,-261.61L323.81,-231.93L302.50,-204.20L262.48,-187.45L243.13,-188.75ZM531.62,-285.98L522.59,-296.31L501.28,-268.58L492.90,-288.59L454.84,-300.87L403.85,-265.42L381.23,-218.34L388.30,-178.97L407.00,-167.99L426.36,-166.69L457.35,-193.76L456.05,-174.41L465.07,-164.08L494.76,-171.80L546.41,-216.93L537.38,-227.26L485.73,-182.13L476.05,-182.78ZM427.66,-186.04L417.99,-186.69L410.26,-216.38L432.23,-253.79L463.22,-280.87L482.57,-279.56L490.95,-259.55L490.30,-249.88L458.65,-213.12ZM562.50,-167.23L564.46,-196.27L555.43,-206.60L535.43,-198.23L533.47,-169.19L552.17,-158.21L571.53,-156.90L601.22,-164.63L621.88,-182.68L623.18,-202.03L616.76,-251.08L618.07,-270.43L638.08,-278.81L636.12,-249.77L645.15,-239.44L665.15,-247.82L667.11,-276.85L638.73,-288.49L599.36,-281.42L588.38,-262.71L587.08,-243.36L594.15,-203.99L592.84,-184.63L572.18,-166.58ZM799.99,-229.01L801.30,-248.37L792.92,-268.37L754.86,-280.66L704.52,-254.89L671.57,-198.77L678.64,-159.41L697.35,-148.43L716.70,-147.12L736.71,-155.50L778.03,-191.60L769.00,-201.93L727.68,-165.83L708.33,-167.13L700.61,-196.82L722.57,-234.23L753.56,-261.30L772.92,-260.00L770.96,-230.97L750.95,-222.59L721.92,-224.55L721.27,-214.87L769.66,-211.61Z" fill="#ffffff" stroke="#000000"/>
    <path d="M-799.14,-320.55L-796.56,-349.24L-772.28,-404.89L-721.03,-438.83L-701.91,-437.11L-684.50,-416.27L-687.08,-387.59L-667.96,-385.87L-647.12,-403.27L-654.96,-423.25L-701.05,-446.67L-729.73,-449.25L-769.70,-433.57L-800.96,-407.47L-822.66,-380.50L-836.52,-333.56L-821.70,-284.03L-785.17,-261.47L-746.93,-258.03L-716.53,-274.57L-685.26,-300.67L-693.96,-311.09L-725.23,-284.99L-755.63,-268.45L-774.75,-270.17L-793.02,-281.45ZM-649.60,-268.55L-547.20,-442.48L-614.13,-448.50L-614.99,-438.93L-586.31,-436.35L-678.28,-271.13L-679.14,-261.57L-660.88,-250.29L-631.33,-257.27L-579.23,-300.78L-587.93,-311.20L-640.03,-267.69ZM-465.45,-386.93L-455.89,-386.07L-444.61,-404.33L-443.75,-413.89L-462.01,-425.18L-471.57,-426.04L-482.85,-407.77L-483.71,-398.21ZM-577.51,-319.90L-568.80,-309.48L-516.70,-352.98L-507.14,-352.12L-573.10,-261.67L-573.96,-252.11L-565.26,-241.69L-546.14,-239.97L-526.16,-247.81L-474.05,-291.32L-482.75,-301.74L-534.86,-258.23L-544.42,-259.09L-478.45,-349.54L-477.59,-359.11L-495.85,-370.39L-525.40,-363.41ZM-318.49,-306.24L-297.65,-323.64L-277.66,-331.49L-268.96,-321.06L-324.51,-239.31L-325.37,-229.75L-316.67,-219.33L-297.54,-217.61L-277.56,-225.45L-225.45,-268.96L-234.16,-279.38L-286.26,-235.87L-295.82,-236.73L-241.14,-308.92L-238.56,-337.61L-266.38,-349.75L-295.93,-342.77L-316.77,-325.36L-315.05,-344.49L-333.31,-355.77L-362.86,-348.79L-394.12,-322.68L-382.84,-340.94L-381.98,-350.51L-390.68,-360.93L-420.22,-353.95L-472.33,-310.44L-463.63,-300.02L-411.52,-343.52L-401.96,-342.66L-468.79,-242.65L-460.09,-232.23L-440.96,-230.51L-395.84,-303.56L-364.57,-329.66L-344.59,-337.50L-335.89,-327.08L-392.30,-235.77L-383.60,-225.35L-364.47,-223.63ZM-66.45,-322.13L-75.15,-332.55L-96.86,-305.58L-104.70,-325.57L-142.08,-338.57L-193.33,-304.62L-216.75,-258.54L-210.63,-219.43L-192.37,-208.15L-173.24,-206.43L-141.98,-232.53L-143.70,-213.41L-135.00,-202.99L-105.46,-209.97L-53.35,-253.48L-62.05,-263.90L-114.16,-220.39L-123.72,-221.25ZM-171.52,-225.55L-181.09,-226.41L-188.07,-255.96L-165.51,-292.48L-134.24,-318.59L-115.12,-316.87L-107.28,-296.88L-108.14,-287.32L-140.26,-251.66ZM-28.10,-212.65L28.30,-303.97L56.99,-301.39L57.85,-310.95L29.16,-313.53L51.73,-350.05L32.60,-351.77L20.46,-323.95L0.48,-316.11L-18.64,-317.83L-19.50,-308.27L-0.38,-306.55L-56.79,-215.23L-57.65,-205.67L-48.95,-195.25L-29.82,-193.53L-9.84,-201.37L42.27,-244.88L33.56,-255.30L-18.54,-211.79ZM188.27,-260.66L189.99,-279.79L182.15,-299.77L144.76,-312.77L94.37,-288.39L60.53,-233.60L66.65,-194.49L84.91,-183.21L104.04,-181.49L124.02,-189.33L165.70,-224.14L157.00,-234.56L115.32,-199.75L96.19,-201.47L89.21,-231.02L111.78,-267.54L143.04,-293.65L162.16,-291.93L159.58,-263.24L139.60,-255.40L110.92,-257.98L110.06,-248.42L157.86,-244.12ZM245.53,-361.54L262.94,-340.70L201.37,-192.01L180.53,-174.61L276.14,-166.01L325.67,-180.83L357.79,-216.50L351.67,-255.61L323.85,-267.75L343.83,-275.59L375.09,-301.69L368.97,-340.80L322.02,-354.66ZM230.05,-189.43L291.62,-338.12L302.04,-346.82L321.16,-345.10L339.43,-333.82L336.85,-305.13L315.14,-278.17L285.60,-271.19L266.48,-272.91L265.62,-263.35L294.30,-260.77L312.56,-249.48L319.55,-219.94L297.84,-192.98L257.88,-177.29L238.76,-179.01ZM526.36,-268.81L517.65,-279.23L495.95,-252.27L488.11,-272.25L450.72,-285.25L399.48,-251.31L376.06,-205.22L382.18,-166.11L400.44,-154.83L419.56,-153.11L450.83,-179.22L449.11,-160.09L457.81,-149.67L487.35,-156.65L539.46,-200.16L530.76,-210.58L478.65,-167.07L469.09,-167.93ZM421.28,-172.23L411.72,-173.09L404.74,-202.64L427.30,-239.16L458.57,-265.27L477.69,-263.55L485.53,-243.57L484.67,-234.00L452.55,-198.34ZM554.28,-150.63L556.86,-179.32L548.16,-189.74L528.18,-181.90L525.60,-153.21L543.86,-141.93L562.98,-140.21L592.53,-147.19L613.37,-164.60L615.09,-183.72L609.83,-232.39L611.55,-251.51L631.53,-259.35L628.95,-230.67L637.65,-220.25L657.64,-228.09L660.22,-256.77L632.39,-268.91L593.29,-262.79L582.00,-244.53L580.28,-225.41L586.41,-186.30L584.69,-167.18L563.84,-149.77ZM790.64,-206.49L792.36,-225.61L784.51,-245.59L747.13,-258.59L696.74,-234.21L662.90,-179.42L669.02,-140.31L687.28,-129.03L706.40,-127.31L726.39,-135.15L768.07,-169.96L759.37,-180.38L717.69,-145.58L698.56,-147.30L691.58,-176.84L714.14,-213.37L745.41,-239.47L764.53,-237.75L761.95,-209.07L741.97,-201.22L713.28,-203.80L712.42,-194.24L760.23,-189.94Z" fill="#ffffff" stroke="#000000"/>
    <path d="M-789.49,-332.67L-786.30,-360.99L-761.04,-415.51L-709.58,-447.96L-690.70,-445.83L-673.95,-424.82L-677.14,-396.50L-658.26,-394.38L-637.25,-411.13L-644.56,-431.08L-689.64,-455.27L-717.96,-458.46L-757.85,-443.83L-789.36,-418.70L-811.43,-392.50L-826.18,-346.37L-812.62,-297.04L-776.98,-273.91L-739.22,-269.65L-708.77,-285.35L-677.26,-310.48L-685.64,-320.98L-717.15,-295.85L-747.60,-280.16L-766.48,-282.28L-784.30,-293.85ZM-642.69,-277.90L-537.53,-447.70L-603.61,-455.15L-604.68,-445.71L-576.36,-442.52L-671.01,-281.09L-672.08,-271.65L-654.26,-260.09L-624.87,-266.34L-572.36,-308.23L-580.73,-318.73L-633.25,-276.84ZM-457.88,-390.94L-448.44,-389.87L-436.88,-407.69L-435.81,-417.13L-453.63,-428.70L-463.07,-429.76L-474.64,-411.94L-475.70,-402.50ZM-570.23,-327.11L-561.85,-316.60L-509.34,-358.49L-499.90,-357.43L-567.17,-269.40L-568.23,-259.96L-559.85,-249.46L-540.97,-247.33L-521.03,-254.65L-468.51,-296.53L-476.89,-307.04L-529.41,-265.15L-538.85,-266.21L-471.58,-354.24L-470.51,-363.68L-488.33,-375.24L-517.71,-368.99ZM-314.28,-307.85L-293.27,-324.60L-273.33,-331.92L-264.95,-321.41L-321.72,-241.76L-322.78,-232.32L-314.40,-221.82L-295.52,-219.70L-275.58,-227.01L-223.06,-268.90L-231.44,-279.40L-283.96,-237.51L-293.40,-238.58L-237.69,-308.78L-234.50,-337.11L-261.76,-349.73L-291.15,-343.48L-312.15,-326.73L-310.03,-345.61L-327.84,-357.17L-357.23,-350.92L-388.74,-325.79L-377.17,-343.61L-376.11,-353.05L-384.49,-363.55L-413.87,-357.30L-466.39,-315.41L-458.01,-304.91L-405.49,-346.80L-396.05,-345.73L-464.39,-248.27L-456.01,-237.77L-437.13,-235.64L-390.86,-306.91L-359.35,-332.04L-339.41,-339.36L-331.03,-328.85L-388.86,-239.77L-380.49,-229.26L-361.61,-227.14ZM-64.58,-317.97L-72.96,-328.48L-95.02,-302.28L-102.34,-322.22L-139.04,-335.92L-190.49,-303.47L-214.69,-258.39L-209.50,-219.57L-191.68,-208.00L-172.80,-205.88L-141.29,-231.01L-143.42,-212.13L-135.04,-201.63L-105.65,-207.88L-53.14,-249.76L-61.52,-260.27L-114.03,-218.38L-123.47,-219.44ZM-170.67,-224.76L-180.11,-225.82L-186.37,-255.20L-163.23,-290.84L-131.72,-315.97L-112.84,-313.85L-105.53,-293.90L-106.59,-284.46L-139.16,-249.89ZM-29.07,-208.81L28.76,-297.90L57.08,-294.71L58.15,-304.15L29.83,-307.34L52.96,-342.98L34.08,-345.10L21.45,-317.85L1.50,-310.53L-17.38,-312.66L-18.44,-303.22L0.44,-301.09L-57.39,-212.00L-58.45,-202.56L-50.08,-192.06L-31.19,-189.93L-11.25,-197.25L41.27,-239.13L32.89,-249.64L-19.63,-207.75ZM186.06,-251.51L188.19,-270.39L180.87,-290.34L144.17,-304.03L93.78,-281.02L59.08,-227.57L64.27,-188.74L82.09,-177.18L100.97,-175.05L120.91,-182.37L162.93,-215.88L154.55,-226.38L112.54,-192.87L93.66,-195.00L87.40,-224.38L110.54,-260.01L142.05,-285.15L160.93,-283.02L157.74,-254.70L137.79,-247.39L109.47,-250.57L108.41,-241.13L155.61,-235.82ZM244.95,-350.04L261.71,-329.03L197.50,-183.30L176.49,-166.55L270.90,-155.92L320.22,-169.48L352.80,-204.06L347.61,-242.88L320.35,-255.51L340.29,-262.83L371.80,-287.96L366.62,-326.78L320.48,-341.54ZM225.82,-180.11L290.03,-325.85L300.53,-334.22L319.41,-332.10L337.23,-320.53L334.04,-292.21L311.97,-266.01L282.59,-259.76L263.71,-261.89L262.65,-252.45L290.97,-249.26L308.78,-237.69L315.04,-208.31L292.97,-182.11L253.08,-167.49L234.20,-169.61ZM520.72,-252.07L512.35,-262.57L490.28,-236.38L482.96,-256.32L446.26,-270.01L394.81,-237.57L370.61,-192.49L375.80,-153.67L393.62,-142.10L412.50,-139.97L444.01,-165.11L441.89,-146.23L450.26,-135.72L479.65,-141.97L532.16,-183.86L523.79,-194.36L471.27,-152.48L461.83,-153.54ZM414.63,-158.86L405.19,-159.92L398.94,-189.30L422.07,-224.94L453.58,-250.07L472.46,-247.94L479.77,-228.00L478.71,-218.56L446.14,-183.99ZM545.73,-134.53L548.92,-162.85L540.54,-173.36L520.60,-166.04L517.41,-137.72L535.23,-126.16L554.11,-124.03L583.49,-130.28L604.50,-147.04L606.62,-165.92L602.50,-214.18L604.62,-233.06L624.57,-240.38L621.38,-212.06L629.76,-201.55L649.70,-208.87L652.89,-237.19L625.63,-249.82L586.81,-244.63L575.24,-226.81L573.11,-207.93L578.30,-169.11L576.18,-150.23L555.17,-133.47ZM780.80,-184.55L782.93,-203.43L775.61,-223.37L738.91,-237.06L688.52,-214.06L653.83,-160.60L659.01,-121.78L676.83,-110.21L695.71,-108.09L715.66,-115.40L757.67,-148.91L749.29,-159.41L707.28,-125.90L688.40,-128.03L682.15,-157.41L705.28,-193.05L736.79,-218.18L755.67,-216.06L752.48,-187.73L732.54,-180.42L704.22,-183.61L703.15,-174.17L750.35,-168.85Z" fill="#ffffff" stroke="#000000"/>
    <path d="M-779.56,-344.57L-775.78,-372.51L-749.59,-425.88L-697.97,-456.84L-679.34,-454.31L-663.23,-433.16L-667.01,-405.22L-648.38,-402.70L-627.23,-418.80L-634.02,-438.69L-678.08,-463.63L-706.02,-467.41L-745.80,-453.83L-777.53,-429.66L-799.94,-404.24L-815.56,-358.93L-803.24,-309.83L-768.50,-286.15L-731.24,-281.11L-700.77,-295.96L-669.05,-320.12L-677.10,-330.70L-708.83,-306.53L-739.29,-291.69L-757.92,-294.21L-775.29,-306.05ZM-635.57,-287.13L-527.77,-452.77L-592.98,-461.60L-594.24,-452.28L-566.30,-448.50L-663.51,-290.91L-664.77,-281.60L-647.40,-269.76L-618.20,-275.29L-565.32,-315.57L-573.37,-326.14L-626.25,-285.87ZM-450.24,-394.85L-440.93,-393.58L-429.09,-410.95L-427.83,-420.27L-445.20,-432.11L-454.52,-433.37L-466.35,-416.00L-467.61,-406.68ZM-562.80,-334.20L-554.74,-323.62L-501.86,-363.89L-492.55,-362.63L-561.05,-277.04L-562.31,-267.73L-554.25,-257.15L-535.62,-254.63L-515.73,-261.42L-462.85,-301.69L-470.91,-312.27L-523.79,-272.00L-533.10,-273.26L-464.60,-358.85L-463.34,-368.16L-480.71,-380.00L-509.92,-374.47ZM-310.03,-309.47L-288.88,-325.57L-268.99,-332.37L-260.93,-321.79L-318.86,-244.26L-320.12,-234.94L-312.06,-224.37L-293.43,-221.85L-273.54,-228.64L-220.66,-268.91L-228.72,-279.49L-281.60,-239.22L-290.91,-240.48L-234.25,-308.69L-230.47,-336.64L-257.15,-349.74L-286.36,-344.20L-307.51,-328.10L-304.99,-346.73L-322.36,-358.56L-351.56,-353.03L-383.29,-328.87L-371.45,-346.24L-370.19,-355.55L-378.25,-366.13L-407.45,-360.60L-460.33,-320.33L-452.28,-309.75L-399.40,-350.02L-390.08,-348.76L-459.84,-253.86L-451.79,-243.28L-433.16,-240.76L-385.81,-310.24L-354.08,-334.40L-334.19,-341.19L-326.14,-330.62L-385.32,-243.77L-377.27,-233.20L-358.64,-230.67ZM-62.79,-313.94L-70.85,-324.52L-93.26,-299.09L-100.05,-318.98L-136.05,-333.34L-187.67,-302.39L-212.61,-258.33L-208.34,-219.81L-190.97,-207.98L-172.34,-205.45L-140.61,-229.62L-143.13,-210.99L-135.08,-200.41L-105.87,-205.94L-52.99,-246.21L-61.05,-256.79L-113.93,-216.52L-123.24,-217.78ZM-169.82,-224.08L-179.13,-225.35L-184.66,-254.55L-160.99,-289.29L-129.26,-313.45L-110.63,-310.93L-103.84,-291.04L-105.10,-281.72L-138.09,-248.25ZM-30.09,-205.17L29.09,-292.02L57.04,-288.23L58.30,-297.55L30.36,-301.33L54.03,-336.07L35.40,-338.59L22.30,-311.91L2.41,-305.11L-16.22,-307.64L-17.48,-298.32L1.15,-295.80L-58.03,-208.95L-59.30,-199.64L-51.24,-189.06L-32.61,-186.54L-12.72,-193.33L40.16,-233.60L32.11,-244.18L-20.77,-203.91ZM183.67,-242.64L186.19,-261.27L179.40,-281.16L143.40,-295.52L93.04,-273.87L57.53,-221.77L61.80,-183.25L79.17,-171.41L97.80,-168.89L117.69,-175.68L159.99,-207.90L151.94,-218.47L109.64,-186.26L91.01,-188.78L85.47,-217.98L109.15,-252.72L140.88,-276.89L159.51,-274.36L155.72,-246.42L135.83,-239.62L107.89,-243.41L106.63,-234.09L153.20,-227.79ZM244.11,-338.80L260.22,-317.64L193.47,-174.91L172.32,-158.80L265.47,-146.19L314.57,-158.52L347.56,-191.99L343.28,-230.51L316.60,-243.61L336.49,-250.41L368.22,-274.57L363.95,-313.09L318.63,-328.71ZM221.42,-171.13L288.17,-313.86L298.74,-321.92L317.37,-319.39L334.74,-307.56L330.96,-279.61L308.55,-254.19L279.34,-248.66L260.71,-251.18L259.45,-241.86L287.39,-238.08L304.76,-226.24L310.30,-197.04L287.88,-171.61L248.10,-158.03L229.47,-160.55ZM514.74,-235.76L506.68,-246.34L484.27,-220.92L477.48,-240.81L441.48,-255.17L389.86,-224.21L364.92,-180.16L369.20,-141.64L386.57,-129.80L405.20,-127.28L436.92,-151.44L434.40,-132.81L442.46,-122.23L471.66,-127.76L524.54,-168.04L516.49,-178.61L463.61,-138.34L454.29,-139.60ZM407.72,-145.91L398.40,-147.17L392.87,-176.37L416.54,-211.11L448.27,-235.27L466.90,-232.75L473.69,-212.86L472.43,-203.55L439.45,-170.07ZM536.87,-118.94L540.65,-146.88L532.60,-157.46L512.70,-150.67L508.92,-122.72L526.29,-110.88L544.92,-108.36L574.13,-113.89L595.28,-130.00L597.80,-148.63L594.79,-196.47L597.31,-215.10L617.20,-221.89L613.42,-193.95L621.47,-183.37L641.37,-190.16L645.15,-218.11L618.46,-231.21L579.94,-226.94L568.11,-209.57L565.58,-190.94L569.86,-152.42L567.33,-133.79L546.18,-117.68ZM770.52,-163.20L773.04,-181.83L766.24,-201.72L730.24,-216.08L679.89,-194.44L644.38,-142.33L648.65,-103.81L666.02,-91.97L684.65,-89.45L704.54,-96.24L746.84,-128.46L738.79,-139.03L696.48,-106.82L677.85,-109.34L672.32,-138.55L696.00,-173.28L727.72,-197.45L746.35,-194.92L742.57,-166.98L722.68,-160.19L694.73,-163.97L693.47,-154.65L740.05,-148.35Z" fill="#ffffff" stroke="#000000"/>
    <path d="M-769.38,-356.23L-765.02,-383.78L-737.92,-435.99L-686.18,-465.46L-667.81,-462.56L-652.35,-441.28L-656.71,-413.72L-638.34,-410.81L-617.06,-426.27L-623.34,-446.10L-666.36,-471.74L-693.91,-476.10L-733.56,-463.55L-765.48,-440.35L-788.21,-415.70L-804.67,-371.23L-793.57,-322.39L-759.73,-298.20L-722.99,-292.39L-692.53,-306.40L-660.61,-329.59L-668.34,-340.23L-700.26,-317.04L-730.72,-303.03L-749.09,-305.94L-766.01,-318.03ZM-628.23,-296.22L-517.93,-457.66L-582.23,-467.84L-583.69,-458.66L-556.13,-454.29L-655.78,-300.58L-657.24,-291.40L-640.32,-279.30L-611.31,-284.13L-558.11,-322.79L-565.84,-333.43L-619.04,-294.77ZM-442.53,-398.65L-433.34,-397.20L-421.25,-414.12L-419.80,-423.30L-436.71,-435.39L-445.90,-436.85L-457.99,-419.93L-459.45,-410.75ZM-555.20,-341.16L-547.47,-330.52L-494.27,-369.18L-485.09,-367.72L-554.74,-284.59L-556.19,-275.41L-548.46,-264.77L-530.09,-261.86L-510.27,-268.14L-457.07,-306.80L-464.80,-317.43L-518.00,-278.78L-527.18,-280.23L-457.53,-363.36L-456.08,-372.55L-472.99,-384.64L-502.01,-379.82ZM-305.74,-311.09L-284.46,-326.55L-264.63,-332.83L-256.90,-322.19L-315.91,-246.79L-317.37,-237.61L-309.64,-226.97L-291.26,-224.06L-271.44,-230.34L-218.24,-268.99L-225.97,-279.63L-279.17,-240.98L-288.36,-242.43L-230.80,-308.65L-226.44,-336.20L-252.54,-349.75L-281.55,-344.93L-302.83,-329.46L-299.92,-347.83L-316.84,-359.93L-345.85,-355.10L-377.77,-331.91L-365.67,-348.82L-364.22,-358.01L-371.95,-368.65L-400.96,-363.83L-454.16,-325.17L-446.43,-314.53L-393.23,-353.19L-384.05,-351.73L-455.15,-259.41L-447.42,-248.77L-429.05,-245.87L-380.68,-313.54L-348.76,-336.73L-328.93,-343.01L-321.20,-332.37L-381.67,-247.78L-373.94,-237.14L-355.56,-234.23ZM-61.09,-310.03L-68.83,-320.67L-91.56,-296.02L-97.84,-315.85L-133.13,-330.85L-184.87,-301.38L-210.51,-258.36L-207.14,-220.16L-190.22,-208.07L-171.85,-205.16L-139.93,-228.35L-142.84,-209.98L-135.11,-199.34L-106.10,-204.17L-52.90,-242.83L-60.63,-253.46L-113.83,-214.81L-123.01,-216.26ZM-168.94,-223.53L-178.13,-224.98L-182.95,-253.99L-158.77,-287.83L-126.85,-311.02L-108.48,-308.12L-102.20,-288.29L-103.65,-279.11L-137.02,-246.72ZM-31.16,-201.72L29.31,-286.31L56.87,-281.95L58.32,-291.13L30.76,-295.49L54.95,-329.33L36.58,-332.24L23.03,-306.13L3.21,-299.86L-15.17,-302.76L-16.62,-293.58L1.75,-290.67L-58.72,-206.08L-60.17,-196.90L-52.44,-186.26L-34.07,-183.35L-14.24,-189.63L38.96,-228.29L31.22,-238.93L-21.97,-200.27ZM181.10,-234.04L184.01,-252.41L177.73,-272.23L142.44,-287.23L92.15,-266.95L55.87,-216.19L59.24,-178.00L76.16,-165.90L94.53,-163.00L114.36,-169.27L156.92,-200.20L149.18,-210.84L106.63,-179.91L88.26,-182.82L83.43,-211.83L107.62,-245.67L139.54,-268.86L157.91,-265.95L153.55,-238.40L133.72,-232.12L106.16,-236.48L104.71,-227.30L150.64,-220.03ZM243.02,-327.81L258.49,-306.53L189.30,-166.83L168.02,-151.36L259.88,-136.83L308.71,-147.93L342.08,-180.31L338.71,-218.51L312.61,-232.05L332.44,-238.33L364.35,-261.53L360.98,-299.72L316.51,-316.18ZM216.85,-162.47L286.04,-302.17L296.68,-309.90L315.06,-306.99L331.97,-294.90L327.61,-267.34L304.88,-242.69L275.87,-237.87L257.50,-240.78L256.04,-231.59L283.60,-227.23L300.52,-215.14L305.34,-186.12L282.61,-161.48L242.96,-148.92L224.59,-151.83ZM508.42,-219.89L500.68,-230.53L477.95,-205.88L471.67,-225.71L436.39,-240.71L384.64,-211.24L359.00,-168.22L362.37,-130.02L379.29,-117.93L397.66,-115.02L429.58,-138.21L426.67,-119.84L434.40,-109.20L463.41,-114.03L516.61,-152.69L508.88,-163.33L455.68,-124.67L446.50,-126.12ZM400.57,-133.39L391.38,-134.84L386.56,-163.85L410.74,-197.69L442.66,-220.88L461.03,-217.98L467.31,-198.15L465.86,-188.97L432.49,-156.59ZM527.71,-103.85L532.07,-131.41L524.34,-142.05L504.52,-135.77L500.16,-108.21L517.07,-96.12L535.44,-93.21L564.46,-98.03L585.73,-113.50L588.64,-131.87L586.73,-179.25L589.63,-197.62L609.46,-203.90L605.10,-176.34L612.83,-165.70L632.65,-171.98L637.02,-199.54L610.91,-213.09L572.72,-209.72L560.62,-192.80L557.72,-174.43L561.09,-136.23L558.18,-117.86L536.90,-102.40ZM759.80,-142.44L762.71,-160.81L756.43,-180.64L721.14,-195.64L670.85,-175.35L634.57,-124.60L637.94,-86.40L654.86,-74.31L673.23,-71.40L693.05,-77.68L735.61,-108.61L727.88,-119.25L685.32,-88.32L666.95,-91.23L662.13,-120.24L686.31,-154.07L718.23,-177.27L736.60,-174.36L732.24,-146.80L712.42,-140.53L684.86,-144.89L683.41,-135.70L729.33,-128.43Z" fill="#ffffff" stroke="#000000"/>
    <path d="M-758.94,-367.64L-754.01,-394.80L-726.06,-445.83L-674.23,-473.83L-656.13,-470.55L-641.31,-449.16L-646.23,-422.00L-628.13,-418.72L-606.74,-433.54L-612.51,-453.29L-654.49,-479.60L-681.64,-484.53L-721.13,-472.99L-753.22,-450.76L-776.25,-426.88L-793.51,-383.26L-783.61,-334.72L-750.68,-310.05L-714.47,-303.48L-684.03,-316.66L-651.95,-338.89L-659.36,-349.58L-691.44,-327.35L-721.89,-314.17L-739.99,-317.46L-756.45,-329.79ZM-620.67,-305.17L-508.01,-462.39L-571.37,-473.88L-573.01,-464.83L-545.86,-459.90L-647.82,-310.09L-649.47,-301.04L-633.00,-288.70L-604.20,-292.83L-550.73,-329.89L-558.15,-340.58L-611.62,-303.53ZM-434.74,-402.35L-425.69,-400.71L-413.35,-417.17L-411.71,-426.23L-428.18,-438.56L-437.23,-440.20L-449.56,-423.74L-451.21,-414.69ZM-547.45,-347.99L-540.04,-337.30L-486.57,-374.35L-477.52,-372.71L-548.25,-292.03L-549.89,-282.98L-542.48,-272.29L-524.38,-269.00L-504.63,-274.77L-451.16,-311.83L-458.57,-322.52L-512.04,-285.47L-521.09,-287.11L-450.36,-367.78L-448.72,-376.84L-465.18,-389.17L-493.98,-385.04ZM-301.40,-312.72L-280.01,-327.54L-260.26,-333.31L-252.85,-322.62L-312.89,-249.35L-314.53,-240.30L-307.12,-229.61L-289.01,-226.32L-269.27,-232.09L-215.80,-269.15L-223.21,-279.84L-276.68,-242.79L-285.73,-244.43L-227.34,-308.64L-222.41,-335.80L-247.93,-349.77L-276.73,-345.65L-298.11,-330.82L-294.83,-348.93L-311.29,-361.26L-340.09,-357.14L-372.17,-334.90L-359.84,-351.37L-358.20,-360.42L-365.61,-371.11L-394.41,-366.99L-447.88,-329.93L-440.46,-319.24L-387.00,-356.29L-377.94,-354.65L-450.31,-264.92L-442.90,-254.23L-424.80,-250.95L-375.46,-316.80L-343.37,-339.03L-323.63,-344.80L-316.22,-334.11L-377.90,-251.79L-370.49,-241.10L-352.38,-237.81ZM-59.47,-306.25L-66.88,-316.94L-89.91,-293.07L-95.68,-312.81L-130.25,-328.43L-182.07,-300.43L-208.39,-258.45L-205.90,-220.60L-189.44,-208.27L-171.33,-204.98L-139.25,-227.21L-142.53,-209.11L-135.12,-198.42L-106.33,-202.54L-52.86,-239.60L-60.27,-250.29L-113.74,-213.24L-122.79,-214.88ZM-168.05,-223.09L-177.10,-224.73L-181.23,-253.53L-156.56,-286.45L-124.48,-308.69L-106.37,-305.40L-100.60,-285.66L-102.24,-276.60L-135.97,-245.32ZM-32.26,-198.46L29.41,-280.78L56.57,-275.85L58.21,-284.91L31.05,-289.83L55.73,-322.76L37.62,-326.04L23.64,-300.52L3.90,-294.75L-14.21,-298.04L-15.85,-288.99L2.26,-285.70L-59.42,-203.39L-61.06,-194.33L-53.65,-183.64L-35.55,-180.36L-15.80,-186.13L37.67,-223.18L30.26,-233.87L-23.21,-196.82ZM178.38,-225.71L181.66,-243.82L175.89,-263.56L141.32,-279.18L91.14,-260.23L54.13,-210.84L56.62,-172.99L73.08,-160.66L91.18,-157.37L110.93,-163.14L153.71,-192.79L146.30,-203.48L103.52,-173.84L85.42,-177.12L81.29,-205.92L105.96,-238.85L138.04,-261.08L156.15,-257.80L151.22,-230.64L131.47,-224.87L104.32,-229.79L102.68,-220.74L147.94,-212.53ZM241.70,-317.08L256.52,-295.69L184.99,-159.06L163.60,-144.24L254.13,-127.83L302.67,-137.72L336.40,-169.01L333.91,-206.86L308.39,-220.84L328.14,-226.60L360.22,-248.84L357.74,-286.69L314.12,-303.95ZM212.15,-154.14L283.68,-290.77L294.37,-298.18L312.48,-294.90L328.94,-282.56L324.01,-255.40L300.98,-231.53L272.19,-227.40L254.08,-230.68L252.44,-221.63L279.60,-216.71L296.06,-204.37L300.19,-175.57L277.16,-151.70L237.66,-140.16L219.56,-143.44ZM501.78,-204.47L494.37,-215.16L471.34,-191.29L465.57,-211.03L431.00,-226.65L379.17,-198.65L352.86,-156.67L355.34,-118.82L371.81,-106.48L389.91,-103.20L421.99,-125.43L418.71,-107.33L426.12,-96.64L454.92,-100.76L508.39,-137.82L500.98,-148.51L447.51,-111.46L438.46,-113.10ZM393.20,-121.31L384.14,-122.95L380.02,-151.75L404.69,-184.67L436.77,-206.90L454.87,-203.62L460.64,-183.88L459.00,-174.82L425.28,-143.54ZM518.29,-89.27L523.21,-116.43L515.80,-127.12L496.05,-121.35L491.13,-94.20L507.59,-81.86L525.70,-78.58L554.50,-82.70L575.88,-97.53L579.17,-115.63L578.32,-162.53L581.61,-180.64L601.35,-186.41L596.43,-159.25L603.84,-148.56L623.59,-154.33L628.51,-181.48L602.99,-195.46L565.14,-192.97L552.81,-176.51L549.52,-158.41L552.01,-120.56L548.73,-102.45L527.34,-87.63ZM748.68,-122.29L751.96,-140.40L746.19,-160.14L711.62,-175.76L661.44,-156.81L624.43,-107.42L626.92,-69.57L643.38,-57.24L661.48,-53.95L681.23,-59.72L724.01,-89.37L716.59,-100.06L673.82,-70.42L655.71,-73.70L651.59,-102.50L676.26,-135.42L708.34,-157.66L726.44,-154.37L721.52,-127.22L701.77,-121.45L674.62,-126.37L672.97,-117.32L718.24,-109.11Z" fill="#ffffff" stroke="#000000"/>
    <path d="M-748.24,-378.81L-742.77,-405.55L-714.00,-455.40L-662.12,-481.94L-644.29,-478.29L-630.11,-456.81L-635.58,-430.06L-617.75,-426.42L-596.27,-440.60L-601.54,-460.25L-642.47,-487.20L-669.21,-492.68L-708.52,-482.14L-740.74,-460.87L-764.04,-437.77L-782.08,-395.02L-773.37,-346.79L-741.36,-321.67L-705.70,-314.37L-675.30,-326.73L-643.08,-348.00L-650.18,-358.74L-682.39,-337.47L-712.79,-325.11L-730.62,-328.76L-746.62,-341.32ZM-612.90,-313.96L-498.00,-466.93L-560.41,-479.70L-562.23,-470.79L-535.48,-465.31L-639.64,-319.43L-641.47,-310.52L-625.46,-297.95L-596.89,-301.40L-543.19,-336.85L-550.28,-347.59L-603.98,-312.14ZM-426.88,-405.94L-417.97,-404.12L-405.40,-420.12L-403.58,-429.04L-419.59,-441.60L-428.50,-443.43L-441.06,-427.42L-442.89,-418.50ZM-539.54,-354.68L-532.45,-343.94L-478.75,-379.40L-469.84,-377.58L-541.57,-299.37L-543.40,-290.45L-536.31,-279.71L-518.48,-276.06L-498.82,-281.33L-445.12,-316.79L-452.21,-327.53L-505.91,-292.07L-514.83,-293.89L-443.09,-372.10L-441.27,-381.02L-457.28,-393.58L-485.85,-390.14ZM-297.01,-314.35L-275.53,-328.53L-255.87,-333.80L-248.78,-323.06L-309.78,-251.94L-311.60,-243.02L-304.51,-232.28L-286.68,-228.64L-267.02,-233.90L-213.33,-269.36L-220.42,-280.10L-274.11,-244.64L-283.03,-246.47L-223.86,-308.67L-218.39,-335.41L-243.31,-349.80L-271.88,-346.36L-293.36,-332.18L-289.71,-350.01L-305.72,-362.57L-334.29,-359.13L-366.50,-337.86L-353.94,-353.86L-352.12,-362.78L-359.21,-373.52L-387.78,-370.07L-441.47,-334.62L-434.38,-323.88L-380.69,-359.33L-371.77,-357.51L-445.33,-270.39L-438.24,-259.65L-420.41,-256.00L-370.15,-320.02L-337.93,-341.30L-318.28,-346.56L-311.19,-335.83L-374.01,-255.79L-366.92,-245.05L-349.08,-241.41ZM-57.91,-302.58L-65.00,-313.32L-88.31,-290.22L-93.57,-309.88L-127.41,-326.09L-179.28,-299.55L-206.23,-258.62L-204.62,-221.13L-188.61,-208.57L-170.78,-204.92L-138.56,-226.20L-142.21,-208.37L-135.12,-197.63L-106.55,-201.07L-52.85,-236.52L-59.94,-247.26L-113.64,-211.81L-122.55,-213.63ZM-167.13,-222.75L-176.05,-224.58L-179.49,-253.15L-154.36,-285.16L-122.14,-306.43L-104.31,-302.79L-99.05,-283.13L-100.87,-274.22L-134.91,-244.03ZM-33.40,-195.39L29.42,-275.42L56.16,-269.95L57.99,-278.87L31.24,-284.34L56.37,-316.35L38.54,-320.00L24.15,-295.08L4.50,-289.81L-13.34,-293.46L-15.16,-284.54L2.67,-280.90L-60.15,-200.86L-61.97,-191.95L-54.88,-181.21L-37.05,-177.56L-17.39,-182.83L36.30,-218.28L29.21,-229.02L-24.49,-193.57ZM175.50,-217.67L179.15,-235.50L173.89,-255.15L140.05,-271.36L90.00,-253.74L52.31,-205.72L53.93,-168.23L69.93,-155.67L87.77,-152.02L107.42,-157.29L150.38,-185.65L143.29,-196.39L100.33,-168.03L82.50,-171.68L79.06,-200.25L104.18,-232.26L136.40,-253.53L154.23,-249.89L148.76,-223.14L129.10,-217.87L102.36,-223.35L100.53,-214.43L145.11,-205.31ZM240.15,-306.61L254.33,-285.14L180.57,-151.61L159.09,-137.43L248.24,-119.19L296.47,-127.90L330.51,-158.09L328.89,-195.57L303.97,-209.96L323.62,-215.23L355.84,-236.50L354.22,-273.99L311.47,-292.02ZM207.31,-146.14L281.07,-279.66L291.81,-286.75L309.64,-283.11L325.65,-270.54L320.18,-243.80L296.88,-220.70L268.31,-217.26L250.48,-220.90L248.65,-211.99L275.40,-206.52L291.40,-193.95L294.85,-165.38L271.54,-142.29L232.23,-131.75L214.40,-135.40ZM494.84,-189.48L487.75,-200.22L464.44,-177.13L459.18,-196.78L425.34,-212.99L373.47,-186.45L346.51,-145.52L348.13,-108.04L364.14,-95.47L381.97,-91.83L414.19,-113.10L410.54,-95.27L417.63,-84.53L446.20,-87.97L499.90,-123.43L492.81,-134.17L439.11,-98.71L430.19,-100.54ZM385.62,-109.66L376.70,-111.48L373.26,-140.05L398.39,-172.06L430.61,-193.34L448.44,-189.69L453.70,-170.03L451.88,-161.12L417.84,-130.93ZM508.61,-75.20L514.08,-101.95L506.99,-112.69L487.33,-107.42L481.86,-80.68L497.87,-68.11L515.70,-64.46L544.27,-67.91L565.75,-82.09L569.40,-99.92L569.60,-146.32L573.25,-164.15L592.90,-169.42L587.43,-142.67L594.52,-131.93L614.18,-137.20L619.65,-163.95L594.73,-178.33L557.24,-176.71L544.68,-160.71L541.03,-142.88L542.65,-105.39L539.00,-87.56L517.52,-73.38ZM737.17,-102.75L740.82,-120.58L735.55,-140.23L701.71,-156.44L651.66,-138.82L613.97,-90.80L615.59,-53.31L631.60,-40.75L649.43,-37.10L669.08,-42.37L712.04,-70.73L704.95,-81.47L661.99,-53.11L644.16,-56.76L640.72,-85.33L665.85,-117.34L698.06,-138.61L715.89,-134.96L710.42,-108.22L690.77,-102.95L664.02,-108.42L662.20,-99.51L706.77,-90.39Z" fill="#ffffff" stroke="#000000"/>
    <path d="M-737.30,-389.71L-731.30,-416.04L-701.74,-464.68L-649.86,-489.77L-632.31,-485.77L-618.76,-464.22L-624.77,-437.89L-607.22,-433.89L-585.67,-447.44L-590.44,-466.99L-630.31,-494.55L-656.63,-500.55L-695.73,-491.01L-728.06,-470.69L-751.62,-448.36L-770.40,-406.49L-762.85,-358.62L-731.76,-333.06L-696.66,-325.06L-666.33,-336.60L-634.00,-356.92L-640.78,-367.70L-673.11,-347.38L-703.43,-335.83L-720.98,-339.84L-736.53,-352.61ZM-604.91,-322.59L-487.91,-471.30L-549.34,-485.31L-551.34,-476.53L-525.01,-470.53L-631.23,-328.60L-633.24,-319.82L-617.69,-307.04L-589.36,-309.81L-535.48,-343.68L-542.26,-354.46L-596.14,-320.59ZM-418.95,-409.41L-410.17,-407.41L-397.40,-422.96L-395.39,-431.73L-410.94,-444.51L-419.72,-446.51L-432.49,-430.97L-434.50,-422.19ZM-531.48,-361.23L-524.71,-350.45L-470.83,-384.32L-462.05,-382.32L-534.71,-306.58L-536.71,-297.81L-529.94,-287.03L-512.39,-283.03L-492.84,-287.80L-438.96,-321.67L-445.73,-332.44L-499.61,-298.58L-508.39,-300.58L-435.73,-376.32L-433.73,-385.09L-449.27,-397.87L-477.60,-395.10ZM-292.56,-315.97L-271.01,-329.52L-251.46,-334.29L-244.69,-323.51L-306.57,-254.55L-308.57,-245.77L-301.80,-235.00L-284.25,-230.99L-264.70,-235.77L-210.82,-269.63L-217.59,-280.41L-271.47,-246.54L-280.25,-248.54L-220.36,-308.73L-214.36,-335.06L-238.68,-349.84L-267.01,-347.06L-288.56,-333.52L-284.56,-351.07L-300.11,-363.85L-328.43,-361.07L-360.76,-340.75L-347.98,-356.30L-345.98,-365.08L-352.75,-375.85L-381.08,-373.08L-434.96,-339.22L-428.19,-328.44L-374.31,-362.31L-365.53,-360.31L-440.19,-275.79L-433.42,-265.02L-415.87,-261.01L-364.76,-323.21L-332.43,-343.53L-312.88,-348.30L-306.11,-337.52L-370.00,-259.78L-363.22,-249.01L-345.67,-245.00ZM-56.42,-299.03L-63.19,-309.81L-86.74,-287.49L-91.51,-307.04L-124.61,-323.82L-176.49,-298.73L-204.05,-258.86L-203.28,-221.76L-187.73,-208.98L-170.18,-204.98L-137.85,-225.30L-141.85,-207.75L-135.08,-196.97L-106.76,-199.74L-52.88,-233.61L-59.65,-244.38L-113.53,-210.52L-122.30,-212.52ZM-166.18,-222.52L-174.95,-224.53L-177.72,-252.85L-152.17,-283.95L-119.84,-304.27L-102.29,-300.26L-97.52,-280.71L-99.52,-271.94L-133.85,-242.84ZM-34.56,-192.50L29.33,-270.24L55.65,-264.24L57.65,-273.02L31.33,-279.02L56.89,-310.12L39.34,-314.12L24.56,-289.80L5.01,-285.02L-12.54,-289.03L-14.54,-280.25L3.01,-276.25L-60.88,-198.51L-62.88,-189.73L-56.11,-178.96L-38.56,-174.96L-19.01,-179.73L34.87,-213.59L28.10,-224.37L-25.78,-190.50ZM172.49,-209.90L176.50,-227.45L171.73,-247.00L138.63,-263.78L88.75,-247.46L50.42,-200.82L51.19,-163.72L66.74,-150.94L84.28,-146.94L103.84,-151.71L146.94,-178.80L140.17,-189.58L97.06,-162.48L79.51,-166.49L76.74,-194.81L102.30,-225.91L134.63,-246.23L152.17,-242.23L146.17,-215.90L126.62,-211.13L100.30,-217.13L98.29,-208.36L142.17,-198.35ZM238.38,-296.41L251.93,-274.86L176.03,-144.47L154.48,-130.93L242.23,-110.91L290.10,-118.45L324.43,-147.55L323.66,-184.65L299.34,-199.43L318.89,-204.20L351.22,-224.52L350.45,-261.62L308.58,-280.40ZM202.36,-138.47L278.25,-268.86L289.03,-275.63L306.58,-271.63L322.13,-258.85L316.12,-232.53L292.57,-210.20L264.24,-207.43L246.69,-211.44L244.69,-202.66L271.02,-196.66L286.56,-183.88L289.34,-155.55L265.78,-133.23L226.68,-123.69L209.13,-127.69ZM487.61,-174.95L480.84,-185.72L457.29,-163.40L452.51,-182.95L419.42,-199.73L367.54,-174.64L339.98,-134.77L340.75,-97.67L356.30,-84.89L373.85,-80.89L406.18,-101.21L402.17,-83.66L408.95,-72.89L437.27,-75.66L491.15,-109.52L484.38,-120.30L430.50,-86.43L421.72,-88.43ZM377.85,-98.44L369.08,-100.44L366.31,-128.77L391.86,-159.86L424.19,-180.18L441.74,-176.18L446.51,-156.63L444.51,-147.86L410.18,-118.76ZM498.70,-61.65L504.70,-87.97L497.93,-98.75L478.38,-93.98L472.37,-67.65L487.92,-54.87L505.47,-50.87L533.79,-53.64L555.35,-67.19L559.35,-84.74L560.58,-130.61L564.58,-148.16L584.13,-152.93L578.13,-126.61L584.90,-115.83L604.45,-120.61L610.46,-146.93L586.14,-161.71L549.04,-160.94L536.26,-145.39L532.26,-127.84L533.02,-90.74L529.02,-73.19L507.47,-59.65ZM725.30,-83.81L729.30,-101.36L724.53,-120.91L691.43,-137.69L641.55,-121.38L603.22,-74.73L603.99,-37.63L619.54,-24.85L637.09,-20.85L656.64,-25.62L699.74,-52.72L692.97,-63.49L649.87,-36.40L632.32,-40.40L629.55,-68.73L655.10,-99.82L687.43,-120.14L704.98,-116.14L698.97,-89.82L679.42,-85.04L653.10,-91.05L651.10,-82.27L694.97,-72.27Z" fill="#ffffff" stroke="#000000"/>
    <path d="M-903.88,492L-906.92,488.96L-902.36,482.88L-893.24,482.88L-891.72,484.40L-891.72,488.96L-894.76,492L-884.12,492L-887.16,488.96L-887.16,460.08L-891.72,463.12L-891.72,464.64L-909.96,488.96L-914.52,492ZM-891.72,467.68L-891.72,479.84L-893.24,481.36L-900.84,481.36L-899.32,478.32ZM-862.84,476.80L-864.36,481.36L-870.44,487.44L-875,488.96L-876.52,488.96L-867.40,475.28L-867.40,472.24L-870.44,470.72L-875,472.24L-882.60,479.84L-881.08,481.36L-873.48,473.76L-871.96,473.76L-881.08,488.96L-881.08,490.48L-879.56,492L-876.52,492L-868.92,488.96L-862.84,482.88L-859.80,476.80L-859.80,473.76L-861.32,472.24L-864.36,472.24L-865.88,475.28L-864.36,476.80ZM-835.48,472.24L-837,470.72L-840.04,475.28L-841.56,472.24L-847.64,470.72L-855.24,476.80L-858.28,484.40L-856.76,490.48L-853.72,492L-850.68,492L-846.12,487.44L-846.12,490.48L-844.60,492L-840.04,490.48L-832.44,482.88L-833.96,481.36L-841.56,488.96L-843.08,488.96ZM-850.68,488.96L-852.20,488.96L-853.72,484.40L-850.68,478.32L-846.12,473.76L-843.08,473.76L-841.56,476.80L-841.56,478.32L-846.12,484.40ZM-832.44,479.84L-830.92,481.36L-823.32,473.76L-821.80,473.76L-830.92,490.48L-829.40,492L-826.36,492L-820.28,479.84L-815.72,476.80L-811.16,476.80L-809.64,472.24L-812.68,470.72L-815.72,472.24L-820.28,478.32L-821.80,478.32L-818.76,473.76L-818.76,472.24L-820.28,470.72L-824.84,472.24ZM-788.36,472.24L-789.88,470.72L-792.92,475.28L-794.44,472.24L-800.52,470.72L-808.12,476.80L-811.16,484.40L-809.64,490.48L-806.60,492L-803.56,492L-799,487.44L-799,490.48L-797.48,492L-792.92,490.48L-785.32,482.88L-786.84,481.36L-794.44,488.96L-795.96,488.96ZM-803.56,488.96L-805.08,488.96L-806.60,484.40L-803.56,478.32L-799,473.76L-795.96,473.76L-794.44,476.80L-794.44,478.32L-799,484.40ZM-783.80,479.84L-783.80,482.88L-774.68,482.88L-774.68,479.84ZM-765.56,461.60L-762.52,464.64L-770.12,488.96L-773.16,492L-757.96,492L-750.36,488.96L-745.80,482.88L-747.32,476.80L-751.88,475.28L-748.84,473.76L-744.28,469.20L-745.80,463.12L-753.40,461.60ZM-765.56,488.96L-757.96,464.64L-756.44,463.12L-753.40,463.12L-750.36,464.64L-750.36,469.20L-753.40,473.76L-757.96,475.28L-761,475.28L-761,476.80L-756.44,476.80L-753.40,478.32L-751.88,482.88L-754.92,487.44L-761,490.48L-764.04,490.48ZM-736.68,492L-733.64,492L-726.04,487.44L-721.48,478.32L-724.52,472.24L-730.60,470.72L-738.20,475.28L-742.76,484.40L-739.72,490.48ZM-730.60,473.76L-727.56,473.76L-726.04,478.32L-729.08,484.40L-733.64,488.96L-736.68,488.96L-738.20,484.40L-735.16,478.32ZM-715.40,488.96L-701.72,460.08L-712.36,460.08L-712.36,461.60L-707.80,461.60L-719.96,488.96L-719.96,490.48L-716.92,492L-712.36,490.48L-704.76,482.88L-706.28,481.36L-713.88,488.96ZM-689.56,492L-688.04,492L-685,490.48L-677.40,482.88L-678.92,481.36L-686.52,488.96L-688.04,488.96L-674.36,460.08L-685,460.08L-685,461.60L-680.44,461.60L-685,475.28L-686.52,472.24L-692.60,470.72L-700.20,476.80L-703.24,484.40L-701.72,490.48L-698.68,492L-695.64,492L-691.08,487.44L-691.08,490.48ZM-695.64,488.96L-697.16,488.96L-698.68,484.40L-695.64,478.32L-691.08,473.76L-688.04,473.76L-686.52,476.80L-686.52,478.32L-691.08,484.40ZM-669.80,488.96L-662.20,464.64L-657.64,461.60L-669.80,461.60L-666.76,464.64L-674.36,488.96L-678.92,492L-666.76,492ZM-657.64,488.96L-650.04,473.76L-645.48,473.76L-645.48,472.24L-650.04,472.24L-647,466.16L-650.04,466.16L-651.56,470.72L-654.60,472.24L-657.64,472.24L-657.64,473.76L-654.60,473.76L-662.20,488.96L-662.20,490.48L-660.68,492L-657.64,492L-654.60,490.48L-647,482.88L-648.52,481.36L-656.12,488.96ZM-621.16,472.24L-622.68,470.72L-625.72,475.28L-627.24,472.24L-633.32,470.72L-640.92,476.80L-643.96,484.40L-642.44,490.48L-639.40,492L-636.36,492L-631.80,487.44L-631.80,490.48L-630.28,492L-625.72,490.48L-618.12,482.88L-619.64,481.36L-627.24,488.96L-628.76,488.96ZM-636.36,488.96L-637.88,488.96L-639.40,484.40L-636.36,478.32L-631.80,473.76L-628.76,473.76L-627.24,476.80L-627.24,478.32L-631.80,484.40ZM-613.56,488.96L-599.88,460.08L-610.52,460.08L-610.52,461.60L-605.96,461.60L-618.12,488.96L-618.12,490.48L-615.08,492L-610.52,490.48L-602.92,482.88L-604.44,481.36L-612.04,488.96ZM-586.20,467.68L-584.68,467.68L-583.16,464.64L-583.16,463.12L-586.20,461.60L-587.72,461.60L-589.24,464.64L-589.24,466.16ZM-602.92,479.84L-601.40,481.36L-593.80,473.76L-592.28,473.76L-601.40,488.96L-601.40,490.48L-599.88,492L-596.84,492L-593.80,490.48L-586.20,482.88L-587.72,481.36L-595.32,488.96L-596.84,488.96L-587.72,473.76L-587.72,472.24L-590.76,470.72L-595.32,472.24ZM-564.92,478.32L-564.92,475.28L-566.44,472.24L-572.52,470.72L-580.12,475.28L-584.68,484.40L-583.16,490.48L-580.12,492L-577.08,492L-574.04,490.48L-567.96,484.40L-569.48,482.88L-575.56,488.96L-578.60,488.96L-580.12,484.40L-577.08,478.32L-572.52,473.76L-569.48,473.76L-569.48,478.32Z"/>
</svg>