<?xml version="1.0"?>
<svg xmlns="http://www.w3.org/2000/svg" width="1920" height="1080" viewBox="-960 -540 1920 1080">
    <path d="M-743.77,-268.90L-764.63,-259.96L-745.69,-220.04L-691.19,-204.39L-645.23,-217.62L-623.58,-258.95L-636.10,-291.21L-668.72,-308.15L-720.38,-323.54L-733.05,-332.18L-737.29,-345.15L-724.19,-368.22L-696.76,-375.23L-665.84,-365.17L-653.66,-337.49L-632.54,-345.64L-649.19,-381.80L-697.83,-395.62L-740.88,-382.72L-760.80,-343.62L-754.29,-319.20L-723.11,-299.75L-670.70,-284.97L-654.75,-273.77L-649.67,-257.68L-661.01,-233.87L-692.25,-224.78L-728.04,-235.85ZM-543.01,-345.13L-587.76,-326.51L-604.97,-275.00L-587.76,-223.49L-543.01,-204.88L-498.25,-223.50L-481.03,-275.00L-498.23,-326.51ZM-543.01,-223.99L-570.06,-235.91L-582.00,-274.98L-570.05,-314.06L-543.01,-325.99L-515.93,-314.06L-503.97,-274.98L-515.93,-235.91ZM-441.72,-210.11L-445.64,-192.17L-456.26,-183.60L-449.50,-174.50L-434.46,-187.51L-429.26,-210.11L-429.26,-217.58L-429.26,-228.14L-436.73,-235.61L-447.29,-235.61L-454.76,-228.14L-454.76,-217.58L-447.29,-210.11ZM-277.50,-210L-250.50,-309.75L-225.50,-210L-202.75,-210L-163.50,-336L-182.75,-342L-213.25,-239.75L-239.50,-340L-262.25,-340L-289,-237L-317.75,-342L-338.50,-336L-300.75,-210ZM-144.25,-210L-121.59,-210L-121.59,-280.75L-111.83,-313.69L-86.42,-325.23L-65.33,-315.48L-59.24,-288.92L-59.25,-210L-36.81,-210L-36.71,-289.10L-45.25,-328.93L-81.84,-344.62L-105.84,-339.11L-121.62,-322.25L-121.62,-390L-144.25,-390ZM74.60,-297.19L1.29,-274.70L-13.63,-243.62L-0.24,-214.10L31.49,-204.86L54.77,-209.38L76.10,-225.04L76,-210L97,-210L97.03,-293.86L85.19,-332.03L46.29,-345.13L11.29,-336.58L-5.72,-311.21L12.12,-300.24L23.58,-320.00L43.99,-326.75L65.87,-320.35ZM74.60,-277.30L74.59,-244.38L58.68,-230.45L35.08,-223.21L18.14,-227.60L10.36,-244.62L20.39,-262.29ZM186.70,-208.26L186.70,-208.26L184.11,-227.65L174.03,-226.14L163.19,-231.63L161.25,-248L161.25,-322.75L183.50,-322.75L183.50,-340L161.25,-340L161.25,-385L138.75,-385L138.75,-340L120.25,-340L120.25,-322.75L138.75,-322.75L138.75,-248L143.88,-216.61L169.50,-205.85ZM298.57,-361.74L306.70,-370.64L306.72,-383.35L298.43,-392.46L286.87,-392.46L278.80,-383.37L278.80,-370.67L287.01,-361.74ZM304,-210L304,-340L281.50,-340L281.50,-210ZM350.11,-250.27L330.99,-241.34L343.72,-215.83L382.23,-204.84L418.98,-213.99L435.81,-245.13L425.71,-271.80L403.81,-283.06L373.50,-291.25L356.65,-298L351.13,-308.38L358.36,-321.21L379.57,-325.91L399.95,-320.35L408.71,-303.81L427.64,-312.74L416.63,-334.52L380.43,-345.13L344.57,-335.92L329.16,-305.85L339.16,-281.99L361.71,-271.22L393.75,-262.75L408.84,-255.17L412.83,-243.13L402.79,-228.03L383.00,-224.02L359.10,-231.88ZM608.60,-297.19L535.29,-274.70L520.37,-243.62L533.76,-214.10L565.49,-204.86L588.77,-209.38L610.10,-225.04L610,-210L631,-210L631.03,-293.86L619.19,-332.03L580.29,-345.13L545.29,-336.58L528.28,-311.21L546.12,-300.24L557.58,-320.00L577.99,-326.75L599.87,-320.35ZM608.60,-277.30L608.59,-244.38L592.68,-230.45L569.08,-223.21L552.14,-227.60L544.36,-244.62L554.39,-262.29ZM-398.15,1.01L-424.58,-10.92L-435.89,-50.00L-424.58,-89.08L-398.15,-101.01L-377.71,-93.90L-365.26,-70.90L-345.89,-80.60L-362.59,-108.49L-398.15,-120.13L-442.28,-101.51L-458.86,-50.00L-442.29,1.51L-398.15,20.12L-362.59,8.62L-346.15,-18.64L-365.26,-28.82L-377.72,-6.06ZM-296.75,15L-296.75,-165L-319.25,-165L-319.25,15ZM-247.18,-136.74L-239.05,-145.64L-239.03,-158.35L-247.32,-167.46L-258.88,-167.46L-266.95,-158.37L-266.95,-145.67L-258.74,-136.74ZM-241.75,15L-241.75,-115L-264.25,-115L-264.25,15ZM-210.42,15L-187.87,15L-187.87,-52.25L-181.73,-85.56L-155.18,-100.70L-137.60,-92.60L-131.82,-70.03L-131.82,15L-109.32,15L-109.32,-60.25L-101.28,-88.68L-76.39,-100.70L-57.30,-90.47L-53,-67.48L-53,15L-30.50,15L-30.50,-75.50L-40.56,-108.36L-71.54,-120.09L-95.00,-114.45L-112.82,-94.75L-125.96,-113.68L-149.65,-119.97L-173.25,-114.87L-190.12,-96.50L-190.12,-115L-210.37,-115ZM79.85,-72.19L6.54,-49.70L-8.38,-18.62L5.01,10.90L36.74,20.14L60.02,15.62L81.35,-0.04L81.25,15L102.25,15L102.28,-68.86L90.44,-107.03L51.54,-120.13L16.54,-111.58L-0.47,-86.21L17.37,-75.24L28.83,-95.00L49.24,-101.75L71.12,-95.35ZM79.85,-52.30L79.84,-19.38L63.93,-5.45L40.33,1.79L23.39,-2.60L15.61,-19.62L25.64,-37.29ZM191.95,16.74L191.95,16.74L189.36,-2.65L179.28,-1.14L168.44,-6.63L166.50,-23L166.50,-97.75L188.75,-97.75L188.75,-115L166.50,-115L166.50,-160L144,-160L144,-115L125.50,-115L125.50,-97.75L144,-97.75L144,-23L149.13,8.39L174.75,19.15ZM244.62,-9.73L231.50,-44.23L328,-44.25L329.25,-53.25L314.36,-100.87L269.26,-120.22L225.15,-101.61L208.58,-50.10L225.15,1.41L269.26,20.03L306.40,9.06L323.50,-17.75L305.98,-28.69L292.35,-6.44L270.54,0.89ZM232.25,-62.25L246.37,-92.01L269.24,-101.13L294.75,-90.28L305,-62.25ZM-460,60L-482.50,60L-482.50,123.52L-496.59,110.63L-517.43,105.43L-559.65,125.00L-574.31,175.55L-559.65,226.11L-517.43,245.68L-495.38,239.62L-480,222.25L-480,240L-460,240ZM-516.14,124.55L-490.35,137.43L-479.67,175.55L-491.31,213.67L-516.14,226.54L-541.30,213.67L-551.35,175.55L-541.30,137.43ZM-400.13,215.27L-413.25,180.77L-316.75,180.75L-315.50,171.75L-330.39,124.13L-375.49,104.78L-419.60,123.39L-436.17,174.90L-419.60,226.41L-375.49,245.03L-338.35,234.06L-321.25,207.25L-338.77,196.31L-352.40,218.56L-374.21,225.89ZM-412.50,162.75L-398.38,132.99L-375.51,123.87L-350.00,134.72L-339.75,162.75ZM-277.89,199.73L-297.01,208.66L-284.28,234.17L-245.77,245.16L-209.02,236.01L-192.19,204.87L-202.29,178.20L-224.19,166.94L-254.50,158.75L-271.35,152L-276.87,141.62L-269.64,128.79L-248.43,124.09L-228.05,129.65L-219.29,146.19L-200.36,137.26L-211.37,115.48L-247.57,104.87L-283.43,114.08L-298.84,144.15L-288.84,168.01L-266.29,178.78L-234.25,187.25L-219.16,194.83L-215.17,206.87L-225.21,221.97L-245.00,225.98L-268.90,218.12ZM-151.18,88.26L-143.05,79.36L-143.03,66.65L-151.32,57.54L-162.88,57.54L-170.95,66.63L-170.95,79.33L-162.74,88.26ZM-145.75,240L-145.75,110L-168.25,110L-168.25,240ZM-64.27,294.39L-17.71,274.85L-6.50,231.50L-6.50,110L-26.50,110L-26.50,127.50L-41.23,110.89L-64.02,104.39L-106.23,123.96L-120.88,174.51L-106.23,225.06L-64.02,244.63L-43.89,239.83L-29,226.25L-29.06,235.79L-37.02,264.89L-63.74,275.00L-84.56,269.13L-92.75,251.50L-110.75,259.75L-99.41,283.67ZM-62.74,123.52L-37.90,136.41L-26.26,174.53L-36.95,212.65L-62.74,225.52L-87.87,212.65L-97.91,174.53L-87.87,136.41ZM25.63,240L48.13,240L48.13,169.25L57.89,135.85L83.32,124.30L104.40,134.05L110.50,160.25L110.50,240L133,240L133,160.25L124.48,120.60L87.90,104.91L63.60,110.27L45.88,128.75L45.88,110L25.63,110ZM192.37,215.27L179.25,180.77L275.75,180.75L277,171.75L262.11,124.13L217.01,104.78L172.90,123.39L156.33,174.90L172.90,226.41L217.01,245.03L254.15,234.06L271.25,207.25L253.73,196.31L240.10,218.56L218.29,225.89ZM180,162.75L194.12,132.99L216.99,123.87L242.50,134.72L252.75,162.75ZM356.11,126.66L373,132.25L379.75,113.25L357.73,104.91L336.25,111.57L321.25,132.50L321.25,110L301,110L301,238.73L323.50,240L323.50,169.75L331.73,138.41ZM455.42,243.14L464.28,234.11L464.22,221.41L455.27,212.47L442.67,212.54L433.81,221.56L433.87,234.26L442.82,243.20ZM437.41,196.95L459.20,196.95L459.20,190.06L462.56,171.86L474.72,156.92L496.49,135.90L506.60,105.91L490.46,68.40L447.93,54.41L409.71,68.69L394.91,102.10L414.02,110.76L425.35,83.50L448.15,74.80L472.12,82.14L482.32,107.44L475.67,128.12L460.61,142.88L442.70,163.03L437.41,190.06Z" fill="#ffffff" stroke="#000000"/>
    <path d="M-723.83,-310.38L-745.01,-302.87L-728.84,-262.22L-675.99,-243.30L-629.73,-253.44L-605.72,-292.90L-616.04,-325.56L-647.19,-344.38L-697.25,-362.86L-709.22,-372.21L-712.58,-385.29L-698.18,-407.25L-670.63,-412.44L-640.72,-400.53L-630.45,-372.41L-609.06,-379.12L-623.21,-415.90L-670.38,-432.65L-713.74,-422.64L-735.91,-385.27L-731.03,-360.73L-701.45,-339.54L-650.62,-321.60L-635.58,-309.52L-631.58,-293.30L-644.30,-270.50L-675.74,-263.51L-710.40,-276.72ZM-520.64,-372.91L-566.04,-357.37L-586.31,-307.58L-572.58,-255.59L-529.56,-234.36L-484.15,-249.91L-463.87,-299.69L-477.59,-351.68ZM-528.34,-253.24L-554.32,-266.73L-563.63,-306.09L-549.34,-343.95L-521.86,-354.01L-495.86,-340.50L-486.53,-301.13L-500.83,-263.29ZM-429.16,-233.09L-434.18,-215.61L-445.21,-207.82L-439.11,-198.40L-423.42,-210.29L-416.85,-232.29L-416.38,-239.67L-415.70,-250.10L-422.60,-257.96L-433.04,-258.63L-440.89,-251.73L-441.56,-241.29L-434.66,-233.44ZM-266.92,-222.53L-233.91,-319.37L-215.55,-219.23L-193.07,-217.78L-146.28,-339.77L-164.92,-346.92L-201.56,-247.84L-221.11,-348.55L-243.59,-350.00L-276.57,-249.94L-298.29,-355.50L-319.18,-350.89L-289.89,-224.01ZM-135.28,-214.06L-112.89,-212.62L-108.39,-282.52L-96.66,-314.44L-70.82,-324.22L-50.60,-313.25L-46.27,-286.63L-51.30,-208.66L-29.13,-207.23L-24.00,-285.37L-29.91,-325.26L-65.06,-343.09L-89.12,-339.18L-105.78,-323.52L-101.48,-390.45L-123.83,-391.89ZM86.48,-286.28L12.62,-268.72L-4.09,-238.97L7.26,-208.95L38.02,-197.81L61.30,-200.80L83.37,-214.90L82.32,-200.06L103.07,-198.72L108.43,-281.57L99.16,-320.03L61.56,-335.44L26.44,-329.23L8.02,-305.24L24.95,-293.27L37.52,-312.06L58.12,-317.44L79.33,-309.73ZM85.22,-266.63L83.11,-234.12L66.51,-221.36L42.74,-215.71L26.28,-221.12L19.67,-238.43L30.71,-255.25ZM191.57,-191.29L191.58,-191.30L190.24,-210.62L180.19,-209.77L169.83,-215.89L168.96,-232.18L173.71,-306.03L195.69,-304.61L196.79,-321.65L174.81,-323.07L177.67,-367.53L155.44,-368.96L152.58,-324.50L134.30,-325.68L133.21,-308.63L151.48,-307.46L146.73,-233.61L149.80,-202.27L174.43,-190.01ZM311.86,-335.81L320.46,-344.09L321.29,-356.64L313.67,-366.17L302.26,-366.91L293.71,-358.44L292.89,-345.90L300.44,-336.55ZM307.57,-185.56L315.84,-313.99L293.61,-315.42L285.34,-186.99ZM355.69,-222.42L336.23,-214.80L347.19,-188.79L384.54,-175.48L421.42,-182.19L440.03,-211.88L431.74,-238.88L410.82,-251.39L381.40,-261.41L365.19,-269.15L360.39,-279.76L368.35,-291.97L389.60,-295.27L409.38,-288.48L416.98,-271.58L436.25,-279.20L426.76,-301.41L391.67,-314.20L355.66,-307.38L338.53,-278.66L346.88,-254.44L368.49,-242.37L399.60,-231.97L414.02,-223.51L417.20,-211.37L406.32,-197.09L386.51,-194.38L363.40,-203.67ZM614.05,-252.32L540.19,-234.77L523.48,-205.01L534.83,-175.00L565.59,-163.85L588.87,-166.84L610.94,-180.95L609.89,-166.10L630.63,-164.77L636.00,-247.62L626.73,-286.07L589.13,-301.49L554.01,-295.27L535.59,-271.29L552.52,-259.32L565.09,-278.10L585.69,-283.48L606.90,-275.77ZM612.79,-232.67L610.68,-200.16L594.08,-187.40L570.30,-181.75L553.85,-187.17L547.24,-204.48L558.27,-221.29ZM-399.54,-21.74L-424.89,-35.20L-433.58,-74.53L-419.92,-112.43L-393.05,-122.53L-373.30,-114.20L-362.47,-90.69L-342.72,-99.04L-357.44,-127.65L-391.84,-141.41L-436.61,-125.83L-456.27,-75.99L-443.18,-24.05L-400.76,-2.86L-364.89,-11.96L-346.91,-37.84L-365.15,-49.12L-378.90,-27.43ZM-300.25,-1.47L-288.80,-179.30L-311.03,-180.73L-322.48,-2.90ZM-241.63,-148.22L-233.03,-156.50L-232.20,-169.06L-239.81,-178.59L-251.23,-179.32L-259.78,-170.86L-260.59,-158.31L-253.05,-148.96ZM-245.91,2.03L-237.64,-126.40L-259.87,-127.84L-268.14,0.60ZM-214.96,4.02L-192.68,5.46L-188.40,-60.98L-180.22,-93.50L-153.03,-106.77L-136.17,-97.65L-131.90,-74.98L-137.31,9.02L-115.08,10.45L-110.29,-63.89L-100.54,-91.47L-75.19,-101.76L-56.98,-90.44L-54.19,-67.46L-59.43,14.03L-37.20,15.46L-31.45,-73.95L-39.30,-107.05L-69.16,-120.61L-92.70,-116.53L-111.56,-98.20L-123.33,-117.74L-146.33,-125.46L-169.98,-121.92L-187.81,-104.84L-186.64,-123.12L-206.64,-124.41ZM77.36,-63.66L3.50,-46.10L-13.21,-16.35L-1.86,13.67L28.90,24.82L52.18,21.83L74.25,7.72L73.20,22.57L93.95,23.90L99.31,-58.95L90.04,-97.41L52.44,-112.82L17.32,-106.60L-1.10,-82.62L15.83,-70.65L28.40,-89.44L49.00,-94.82L70.21,-87.10ZM76.10,-44.01L73.99,-11.49L57.39,1.27L33.62,6.92L17.16,1.50L10.55,-15.81L21.59,-32.63ZM182.45,31.33L182.46,31.33L181.12,12.00L171.07,12.85L160.71,6.74L159.84,-9.55L164.59,-83.40L186.57,-81.99L187.67,-99.03L165.69,-100.45L168.55,-144.90L146.32,-146.33L143.46,-101.88L125.18,-103.05L124.09,-86.01L142.36,-84.83L137.61,-10.98L140.68,20.35L165.31,32.61ZM236.17,8.53L225.41,-26.39L320.74,-20.28L322.55,-29.09L310.87,-77.09L267.54,-99.07L222.78,-83.48L203.13,-33.65L216.23,18.29L258.63,39.49L296.02,31.01L314.61,5.62L298.00,-6.30L283.12,14.81L261.10,20.66ZM227.29,-44.15L243.13,-72.65L266.31,-80.21L290.82,-67.87L299.17,-39.52ZM-464.39,32.61L-486.62,31.18L-490.66,93.93L-503.77,80.31L-524.02,73.84L-566.98,90.49L-584.67,139.50L-573.41,190.38L-532.94,212.40L-510.77,207.81L-494.47,191.63L-495.60,209.17L-475.84,210.44ZM-523.96,92.81L-499.30,107.18L-491.18,145.52L-505.10,182.44L-530.44,193.57L-554.49,179.26L-561.99,140.96L-549.64,103.94ZM-415.12,189.82L-425.89,154.90L-330.55,161.01L-328.74,152.20L-340.42,104.21L-383.75,82.22L-428.51,97.81L-448.16,147.64L-435.06,199.59L-392.66,220.78L-355.27,212.31L-336.68,186.91L-353.29,174.99L-368.17,196.10L-390.19,201.96ZM-424.00,137.14L-408.16,108.64L-384.98,101.09L-360.47,113.42L-352.13,141.77ZM-293.36,182.23L-312.82,189.84L-301.86,215.86L-264.51,229.16L-227.63,222.46L-209.02,192.77L-217.31,165.77L-238.23,153.26L-267.65,143.24L-283.86,135.50L-288.66,124.89L-280.70,112.68L-259.45,109.38L-239.67,116.16L-232.07,133.06L-212.80,125.45L-222.29,103.24L-257.38,90.45L-293.39,97.27L-310.52,125.99L-302.17,150.21L-280.56,162.27L-249.45,172.68L-235.03,181.13L-231.85,193.28L-242.73,207.56L-262.54,210.27L-285.65,200.97ZM-161.09,80.17L-152.49,71.90L-151.66,59.34L-159.27,49.81L-170.69,49.07L-179.24,57.54L-180.05,70.09L-172.51,79.44ZM-165.37,230.42L-157.11,101.99L-179.34,100.56L-187.60,228.99ZM-88.34,289.34L-41.09,272.99L-27.26,230.88L-19.53,110.84L-39.29,109.57L-40.41,126.86L-53.90,109.52L-76.01,101.64L-118.95,118.29L-136.63,167.30L-125.38,218.18L-84.92,240.20L-64.73,236.74L-49.16,224.26L-49.83,233.68L-59.54,261.93L-86.58,270.21L-106.77,263.09L-113.74,245.16L-132.05,252.16L-122.37,276.52ZM-75.96,120.63L-52.23,134.94L-43.16,173.34L-56.15,210.32L-82.45,221.39L-106.45,207.08L-113.95,168.79L-101.60,131.76ZM3.94,241.32L26.17,242.75L30.67,172.85L42.43,140.47L68.29,130.69L88.50,141.66L92.86,167.93L87.79,246.72L110.02,248.15L115.09,169.36L109.20,129.65L74.05,111.82L49.70,115.57L31.02,132.70L32.21,114.17L12.21,112.89ZM170.24,227.49L159.48,192.57L254.82,198.69L256.62,189.88L244.94,141.88L201.62,119.90L156.85,135.48L137.21,185.32L150.30,237.26L192.70,258.46L230.09,249.98L248.69,224.58L232.07,212.67L217.19,233.77L195.18,239.63ZM161.36,174.82L177.21,146.32L200.38,138.76L224.89,151.09L233.24,179.44ZM337.65,150.36L353.98,156.96L361.86,138.62L340.63,128.98L318.98,134.19L302.84,153.91L304.27,131.68L284.26,130.40L276.08,257.57L298.22,260.26L302.69,190.86L312.81,160.41ZM428.36,271.75L437.69,263.40L438.43,250.84L430.16,241.45L417.71,240.71L408.38,249.06L407.63,261.61L415.90,271.01ZM413.50,224.98L435.03,226.36L435.47,219.56L439.95,201.78L452.91,187.80L475.75,168.42L487.64,139.43L474.09,101.35L432.96,84.82L394.29,96.49L377.54,128.56L395.87,138.33L408.80,112.12L431.87,104.98L455.09,113.75L463.56,139.40L455.68,159.41L439.86,173.03L420.88,191.80L413.94,218.17Z" fill="#ffffff" stroke="#000000"/>
    <path d="M-701.52,-350.47L-722.92,-344.40L-709.52,-303.22L-658.52,-281.16L-612.18,-288.24L-585.95,-325.69L-594.07,-358.62L-623.64,-379.18L-671.92,-400.62L-683.15,-410.62L-685.64,-423.76L-670.01,-444.53L-642.47,-447.91L-613.68,-434.24L-605.32,-405.81L-583.77,-411.08L-595.41,-448.31L-640.94,-467.86L-684.41,-460.72L-708.68,-425.22L-705.42,-400.67L-677.56,-377.85L-628.48,-356.90L-614.39,-344.01L-611.47,-327.73L-625.48,-306.02L-656.99,-301.11L-690.38,-316.36ZM-496.82,-399.33L-542.65,-386.86L-565.84,-338.96L-555.59,-286.73L-514.43,-263.02L-468.59,-275.49L-445.39,-323.39L-455.64,-375.61ZM-512.03,-281.60L-536.83,-296.58L-543.53,-336.05L-527.01,-372.53L-499.22,-380.73L-474.40,-365.73L-467.69,-326.25L-484.22,-289.78ZM-415.34,-255.38L-421.40,-238.43L-432.80,-231.44L-427.37,-221.75L-411.12,-232.50L-403.23,-253.81L-402.29,-261.07L-400.96,-271.34L-407.28,-279.53L-417.54,-280.86L-425.74,-274.54L-427.07,-264.27L-420.75,-256.08ZM-255.74,-234.64L-216.97,-328.20L-205.20,-228.11L-183.09,-225.25L-129.11,-342.78L-147.07,-351.03L-189.56,-255.48L-202.48,-356.22L-224.59,-359.07L-263.53,-262.33L-278.28,-367.99L-299.20,-364.76L-278.34,-237.56ZM-126.23,-217.90L-104.21,-215.05L-95.32,-283.82L-81.70,-314.60L-55.55,-322.63L-36.27,-310.50L-33.69,-283.93L-43.62,-207.22L-21.81,-204.40L-11.78,-281.27L-15.08,-321.05L-48.66,-340.90L-72.68,-338.56L-90.14,-324.15L-81.63,-390.00L-103.62,-392.84ZM97.43,-275.14L23.35,-262.49L4.94,-234.17L14.25,-203.79L43.92,-190.82L67.12,-192.30L89.81,-204.83L87.83,-190.23L108.24,-187.59L118.81,-269.09L112.10,-307.68L75.93,-325.29L40.84,-321.38L21.12,-298.86L37.08,-285.96L50.70,-303.72L71.39,-307.73L91.85,-298.76ZM94.93,-255.81L90.78,-223.83L73.57,-212.28L49.72,-208.21L33.81,-214.60L28.38,-232.12L40.35,-248.04ZM195.20,-174.63L195.20,-174.63L195.12,-193.80L185.14,-193.60L175.29,-200.30L175.46,-216.45L184.85,-289.10L206.48,-286.31L208.64,-303.07L187.02,-305.87L192.67,-349.61L170.80,-352.43L165.15,-308.70L147.17,-311.02L145.00,-294.25L162.98,-291.93L153.59,-219.28L154.64,-188.13L178.18,-174.45ZM323.21,-309.74L332.23,-317.37L333.85,-329.72L326.94,-339.62L315.71,-341.07L306.72,-333.26L305.12,-320.91L311.98,-311.19ZM309.43,-161.59L325.76,-287.94L303.89,-290.76L287.56,-164.41ZM359.30,-194.94L339.60,-188.66L348.76,-162.26L384.82,-146.74L421.68,-151.02L441.95,-179.17L435.48,-206.37L415.61,-220.05L387.18,-231.82L371.65,-240.50L367.59,-251.29L376.23,-262.84L397.44,-264.75L416.54,-256.79L422.98,-239.61L442.50,-245.91L434.53,-268.46L400.68,-283.32L364.67,-278.87L345.93,-251.59L352.64,-227.13L373.21,-213.84L403.28,-201.58L417.00,-192.31L419.36,-180.11L407.70,-166.70L387.97,-165.28L365.73,-175.93ZM616.43,-208.06L542.35,-195.41L523.95,-167.08L533.25,-136.70L562.93,-123.74L586.12,-125.21L608.82,-137.75L606.83,-123.14L627.24,-120.51L637.81,-202.01L631.10,-240.59L594.93,-258.21L559.84,-254.30L540.12,-231.78L556.09,-218.88L569.70,-236.64L590.39,-240.64L610.86,-231.67ZM613.93,-188.73L609.78,-156.74L592.57,-145.19L568.73,-141.12L552.81,-147.52L547.38,-165.04L559.36,-180.95ZM-399.51,-44.72L-423.70,-59.63L-429.79,-99.03L-413.88,-135.60L-386.70,-143.87L-367.72,-134.39L-358.51,-110.48L-338.47,-117.47L-351.19,-146.67L-384.30,-162.45L-429.52,-149.90L-452.11,-101.92L-442.48,-49.78L-401.92,-26.14L-365.91,-32.85L-346.50,-57.27L-363.80,-69.58L-378.77,-49.02ZM-302.72,-18.38L-280.10,-193.32L-301.97,-196.15L-324.58,-21.20ZM-235.48,-159.62L-226.45,-167.25L-224.84,-179.61L-231.75,-189.50L-242.98,-190.96L-251.97,-183.14L-253.57,-170.79L-246.71,-161.08ZM-249.26,-11.47L-232.93,-137.82L-254.80,-140.64L-271.13,-14.29ZM-218.81,-7.53L-196.89,-4.70L-188.45,-70.06L-178.29,-101.66L-150.59,-113.04L-134.52,-102.96L-131.74,-80.30L-142.42,2.34L-120.55,5.17L-111.10,-67.97L-99.71,-94.59L-74.01,-103.14L-56.74,-90.80L-55.45,-67.92L-65.81,12.24L-43.94,15.07L-32.58,-72.89L-38.22,-106.09L-66.86,-121.38L-90.37,-118.85L-110.17,-101.94L-120.56,-121.99L-142.79,-131.08L-166.37,-129.08L-185.07,-113.35L-182.75,-131.33L-202.43,-133.87ZM74.26,-55.80L0.18,-43.15L-18.22,-14.82L-8.91,15.55L20.76,28.52L43.95,27.04L66.65,14.51L64.67,29.11L85.08,31.75L95.64,-49.75L88.93,-88.34L52.77,-105.95L17.68,-102.04L-2.05,-79.52L13.92,-66.62L27.53,-84.38L48.23,-88.39L68.69,-79.42ZM71.76,-36.47L67.62,-4.49L50.40,7.06L26.56,11.13L10.65,4.74L5.22,-12.78L17.19,-28.70ZM172.03,44.71L172.04,44.71L171.95,25.54L161.97,25.74L152.12,19.04L152.30,2.89L161.69,-69.76L183.31,-66.97L185.48,-83.73L163.85,-86.53L169.51,-130.27L147.64,-133.09L141.99,-89.36L124.01,-91.68L121.84,-74.91L139.82,-72.59L130.43,0.06L131.47,31.21L155.02,44.89ZM226.55,25.60L218.14,-9.58L311.93,2.52L314.28,-6.07L305.79,-54.22L264.39,-78.69L219.18,-66.14L196.60,-18.16L206.23,33.98L246.77,57.61L284.24,51.62L304.23,27.71L288.58,14.88L272.53,34.79L250.41,39.18ZM221.13,-27.00L238.59,-54.15L261.97,-60.14L285.40,-46.40L291.84,-17.86ZM-467.04,4.85L-488.90,2.02L-496.88,63.76L-508.96,49.46L-528.56,41.79L-572.05,55.51L-592.65,102.80L-584.75,153.77L-546.18,178.10L-523.99,174.98L-506.86,160.03L-509.09,177.28L-489.65,179.79ZM-529.70,60.53L-506.26,76.29L-500.67,114.69L-516.77,150.27L-542.52,159.66L-565.36,143.99L-570.33,105.68L-555.78,69.89ZM-428.36,163.28L-436.77,128.10L-342.98,140.20L-340.63,131.61L-349.12,83.46L-390.52,58.99L-435.73,71.54L-458.31,119.52L-448.68,171.66L-408.14,195.30L-370.66,189.30L-350.68,165.39L-366.33,152.57L-382.38,172.47L-404.50,176.86ZM-433.78,110.68L-416.32,83.53L-392.94,77.54L-369.51,91.29L-363.07,119.82ZM-307.60,163.53L-327.30,169.81L-318.13,196.20L-282.08,211.73L-245.21,207.45L-224.94,179.30L-231.41,152.10L-251.29,138.41L-279.71,126.64L-295.24,117.97L-299.30,107.18L-290.66,95.63L-269.46,93.72L-250.35,101.68L-243.92,118.86L-224.40,112.56L-232.36,90.01L-266.21,75.15L-302.22,79.59L-320.97,106.88L-314.26,131.33L-293.68,144.63L-263.61,156.89L-249.90,166.15L-247.53,178.35L-259.19,191.76L-278.93,193.18L-301.17,182.53ZM-170.44,71.12L-161.42,63.49L-159.80,51.14L-166.71,41.24L-177.95,39.79L-186.93,47.60L-188.53,59.95L-181.67,69.67ZM-184.22,219.27L-167.89,92.92L-189.76,90.10L-206.09,216.45ZM-111.87,282.37L-64.15,269.23L-47.82,228.51L-32.55,110.42L-51.99,107.91L-54.19,124.91L-66.42,106.92L-87.75,97.74L-131.23,111.45L-151.82,158.75L-143.93,209.72L-105.37,234.04L-85.20,231.91L-69.03,220.58L-70.29,229.84L-81.67,257.12L-108.92,263.59L-128.41,255.27L-134.16,237.11L-152.69,242.87L-144.67,267.54ZM-88.92,116.50L-66.39,132.14L-59.86,170.65L-75.04,206.36L-101.73,215.63L-124.53,199.96L-129.50,161.65L-114.96,125.86ZM-17.66,240.80L4.21,243.63L13.10,174.87L26.78,143.63L52.95,135.60L72.21,147.73L74.85,173.96L64.83,251.47L86.70,254.29L96.72,176.78L93.42,137.18L59.83,117.33L35.54,119.49L16.00,135.22L18.36,117.00L-1.33,114.45ZM147.50,237.72L139.09,202.54L232.88,214.64L235.23,206.05L226.74,157.89L185.34,133.42L140.13,145.97L117.55,193.95L127.18,246.10L167.72,269.73L205.20,263.74L225.18,239.83L209.53,227.00L193.48,246.91L171.36,251.29ZM142.08,185.12L159.54,157.97L182.92,151.98L206.35,165.72L212.79,194.26ZM317.78,172.16L333.49,179.72L342.44,162.10L322.08,151.23L300.37,155.00L283.16,173.46L285.99,151.59L266.31,149.05L250.14,274.16L271.85,278.22L280.67,209.95L292.60,180.52ZM399.67,297.85L409.42,290.19L410.95,277.84L403.37,268.03L391.12,266.50L381.37,274.16L379.84,286.51L387.41,296.32ZM387.97,250.70L409.15,253.44L410.01,246.74L415.56,229.46L429.26,216.47L453.06,198.78L466.65,170.90L455.68,132.42L416.10,113.48L377.16,122.55L358.57,153.16L376.06,163.98L390.50,138.91L413.75,133.33L436.13,143.46L442.85,169.34L433.80,188.60L417.30,201.06L397.37,218.39L388.83,244.00Z" fill="#ffffff" stroke="#000000"/>
    <path d="M-676.92,-389.03L-698.44,-384.40L-687.83,-342.87L-638.85,-317.84L-592.63,-321.89L-564.34,-357.22L-570.26,-390.25L-598.17,-412.45L-644.49,-436.69L-654.95,-447.28L-656.57,-460.41L-639.81,-479.94L-612.40,-481.52L-584.83,-466.19L-578.38,-437.58L-556.76,-441.42L-565.89,-478.93L-609.62,-501.13L-653.01,-496.85L-679.24,-463.33L-677.58,-438.87L-651.51,-414.56L-604.36,-390.74L-591.26,-377.11L-589.41,-360.85L-604.63,-340.30L-636.07,-337.45L-668.09,-354.64ZM-471.61,-424.28L-517.68,-414.88L-543.63,-369.04L-536.82,-316.80L-497.68,-290.76L-451.61,-300.17L-425.64,-346.00L-432.45,-398.24ZM-494.13,-308.96L-517.67,-325.33L-521.78,-364.75L-503.14,-399.73L-475.17,-406.06L-451.61,-389.67L-447.49,-350.24L-466.14,-315.27ZM-400.28,-276.91L-407.35,-260.56L-419.06,-254.38L-414.31,-244.46L-397.57,-254.05L-388.42,-274.60L-387.03,-281.71L-385.07,-291.76L-390.79,-300.26L-400.84,-302.22L-409.34,-296.50L-411.30,-286.45L-405.58,-277.95ZM-243.96,-246.28L-199.72,-336.23L-194.46,-236.62L-172.80,-232.39L-112.01,-345.05L-129.22,-354.34L-177.26,-262.66L-183.62,-362.98L-205.28,-367.21L-249.89,-274.13L-257.74,-379.43L-278.61,-377.58L-266.10,-250.61ZM-117.10,-221.52L-95.53,-217.30L-82.38,-284.66L-66.97,-314.20L-40.63,-320.47L-22.36,-307.26L-21.50,-280.85L-36.18,-205.72L-14.82,-201.54L-0.02,-276.83L-0.75,-316.34L-32.66,-338.08L-56.53,-337.29L-74.70,-324.17L-62.10,-388.67L-83.65,-392.88ZM107.45,-263.84L33.48,-256.05L13.50,-229.24L20.76,-198.65L49.25,-183.95L72.25,-183.94L95.47,-194.87L92.58,-180.58L112.57,-176.67L128.19,-256.51L124.01,-295.04L89.41,-314.74L54.50,-313.11L33.59,-292.12L48.54,-278.36L63.12,-295.04L83.81,-297.68L103.45,-287.52ZM103.76,-244.90L97.63,-213.57L79.89,-203.26L56.08,-200.76L40.77,-208.08L36.52,-225.74L49.36,-240.69ZM197.64,-158.34L197.65,-158.34L198.78,-177.29L188.91,-177.72L179.61,-184.97L180.80,-200.91L194.70,-272.07L215.88,-267.93L219.09,-284.36L197.90,-288.49L206.27,-331.33L184.85,-335.52L176.48,-292.68L158.87,-296.11L155.66,-279.69L173.28,-276.25L159.38,-205.09L158.43,-174.25L180.82,-159.25ZM332.68,-283.66L342.07,-290.62L344.45,-302.72L338.26,-312.94L327.25,-315.09L317.88,-307.93L315.51,-295.84L321.67,-285.81ZM309.64,-138.20L333.80,-261.96L312.38,-266.14L288.22,-142.38ZM361.02,-167.97L341.16,-163.02L348.54,-136.36L383.16,-118.74L419.85,-120.62L441.66,-147.14L437.00,-174.41L418.24,-189.20L390.91,-202.63L376.12,-212.19L372.79,-223.10L382.06,-233.96L403.13,-234.50L421.50,-225.42L426.76,-208.05L446.44,-213.03L440.01,-235.80L407.52,-252.63L371.66,-250.53L351.41,-224.77L356.49,-200.19L375.97,-185.75L404.89,-171.73L417.85,-161.71L419.41,-149.51L407.04,-137.00L387.45,-136.85L366.16,-148.79ZM615.84,-164.58L541.86,-156.80L521.88,-129.98L529.14,-99.39L557.63,-84.70L580.63,-84.68L603.85,-95.61L600.96,-81.32L620.95,-77.41L636.57,-157.25L632.39,-195.78L597.79,-215.48L562.88,-213.85L541.97,-192.86L556.92,-179.10L571.50,-195.78L592.19,-198.42L611.83,-188.26ZM612.14,-145.64L606.01,-114.31L588.27,-104.00L564.46,-101.50L549.15,-108.83L544.90,-126.48L557.74,-141.43ZM-398.05,-67.83L-420.99,-84.09L-424.50,-123.40L-406.46,-158.51L-379.09,-164.95L-360.94,-154.38L-353.37,-130.17L-333.13,-135.80L-343.84,-165.46L-375.53,-183.15L-421.00,-173.63L-446.36,-127.67L-440.16,-75.55L-401.60,-49.63L-365.61,-53.97L-344.89,-76.86L-361.19,-90.11L-377.28,-70.76ZM-304.11,-35.66L-270.65,-207.02L-292.07,-211.20L-325.53,-39.84ZM-228.71,-170.90L-219.32,-177.86L-216.94,-189.96L-223.13,-200.17L-234.14,-202.32L-243.51,-195.17L-245.88,-183.08L-239.72,-173.05ZM-251.75,-25.43L-227.59,-149.20L-249.01,-153.38L-273.17,-29.62ZM-221.92,-19.61L-200.45,-15.42L-187.95,-79.44L-175.92,-110.01L-147.83,-119.49L-132.60,-108.51L-131.29,-85.95L-147.09,-5.00L-125.67,-0.82L-111.69,-72.46L-98.74,-98.03L-72.82,-104.84L-56.55,-91.56L-56.72,-68.87L-72.05,9.65L-50.63,13.83L-33.81,-72.32L-37.28,-105.48L-64.60,-122.40L-87.98,-121.40L-108.61,-105.95L-117.59,-126.42L-138.98,-136.81L-162.40,-136.34L-181.87,-121.99L-178.43,-139.60L-197.71,-143.36ZM70.63,-48.66L-3.34,-40.87L-23.32,-14.06L-16.06,16.53L12.42,31.23L35.43,31.25L58.64,20.31L55.75,34.61L75.75,38.51L91.36,-41.32L87.19,-79.86L52.59,-99.56L17.68,-97.93L-3.23,-76.94L11.71,-63.18L26.29,-79.86L46.99,-82.50L66.63,-72.34ZM66.93,-29.72L60.80,1.61L43.07,11.92L19.26,14.43L3.94,7.10L-0.31,-10.55L12.53,-25.51ZM160.82,56.84L160.82,56.84L161.95,37.90L152.08,37.46L142.78,30.22L143.98,14.27L157.87,-56.89L179.05,-52.75L182.26,-69.18L161.08,-73.31L169.44,-116.15L148.02,-120.33L139.66,-77.49L122.05,-80.93L118.84,-64.51L136.45,-61.07L122.56,10.09L121.61,40.93L144.00,55.93ZM215.88,41.43L209.81,6.15L301.68,24.06L304.54,15.73L299.22,-32.38L259.88,-59.18L214.43,-49.66L189.08,-3.70L195.28,48.42L233.81,74.34L271.21,70.80L292.47,48.46L277.82,34.79L260.71,53.43L238.58,56.36ZM213.87,-10.87L232.84,-36.58L256.31,-41.01L278.58,-25.94L283.13,2.65ZM-467.89,-23.16L-489.31,-27.34L-501.12,33.13L-512.14,18.24L-531.02,9.42L-574.84,20.20L-598.20,65.60L-593.64,116.45L-557.08,142.93L-534.96,141.26L-517.09,127.59L-520.39,144.49L-501.35,148.20ZM-533.33,27.85L-511.18,44.91L-508.10,83.19L-526.26,117.32L-552.29,124.96L-573.86,108.02L-576.34,69.87L-559.69,35.44ZM-439.76,135.79L-445.83,100.51L-353.96,118.42L-351.10,110.09L-356.42,61.98L-395.76,35.18L-441.21,44.70L-466.56,90.66L-460.36,142.78L-421.83,168.70L-384.43,165.16L-363.17,142.82L-377.82,129.15L-394.93,147.79L-417.06,150.72ZM-441.77,83.49L-422.80,57.78L-399.33,53.35L-377.06,68.42L-372.51,97.01ZM-320.49,143.71L-340.36,148.66L-332.98,175.32L-298.35,192.94L-261.67,191.06L-239.86,164.54L-244.52,137.27L-263.28,122.48L-290.61,109.05L-305.39,99.49L-308.72,88.58L-299.45,77.72L-278.38,77.18L-260.02,86.26L-254.76,103.63L-235.07,98.65L-241.51,75.88L-274.00,59.05L-309.85,61.15L-330.10,86.91L-325.03,111.49L-305.55,125.92L-276.63,139.95L-263.67,149.97L-262.11,162.17L-274.48,174.68L-294.06,174.82L-315.35,162.89ZM-179.14,61.15L-169.75,54.19L-167.36,42.09L-173.56,31.88L-184.57,29.73L-193.94,36.88L-196.30,48.97L-190.15,59.00ZM-202.18,206.62L-178.01,82.85L-199.43,78.67L-223.60,202.43ZM-134.72,273.54L-86.75,263.59L-68.03,224.41L-45.44,108.74L-64.48,105.02L-67.74,121.68L-78.67,103.13L-99.16,92.70L-142.98,103.49L-166.32,148.89L-161.77,199.74L-125.23,226.22L-105.17,225.39L-88.47,215.23L-90.31,224.30L-103.29,250.52L-130.61,255.18L-149.34,245.72L-153.86,227.42L-172.53,231.92L-166.18,256.81ZM-101.50,111.16L-80.25,128.04L-76.25,166.50L-93.51,200.80L-120.46,208.26L-141.99,191.33L-144.47,153.18L-127.82,118.75ZM-39.02,238.47L-17.60,242.65L-4.45,175.30L11.05,145.31L37.41,139.05L55.66,152.25L56.60,178.32L41.78,254.25L63.20,258.43L78.02,182.51L77.28,143.18L45.37,121.44L21.24,122.02L0.94,136.32L4.42,118.47L-14.86,114.71ZM124.31,245.92L118.24,210.64L210.11,228.56L212.98,220.22L207.65,172.11L168.31,145.31L122.86,154.83L97.51,200.79L103.71,252.91L142.25,278.83L179.65,275.29L200.90,252.95L186.26,239.28L169.15,257.92L147.02,260.85ZM122.30,193.62L141.28,167.92L164.75,163.49L187.02,178.55L191.56,207.15ZM296.67,192.00L311.71,200.46L321.67,183.63L302.25,171.60L280.57,173.94L262.40,191.08L266.58,169.66L247.30,165.89L223.38,288.45L244.56,293.84L257.62,226.96L271.28,198.65ZM369.57,321.35L379.68,314.40L381.98,302.30L375.12,292.13L363.12,289.85L353.00,296.79L350.70,308.89L357.56,319.06ZM361.01,274.03L381.75,278.08L383.03,271.52L389.62,254.81L403.97,242.85L428.60,226.89L443.80,200.22L435.41,161.51L397.52,140.29L358.47,146.77L338.17,175.83L354.76,187.62L370.61,163.78L393.93,159.74L415.39,171.17L420.40,197.16L410.23,215.61L393.14,226.87L372.35,242.72L362.29,267.47Z" fill="#ffffff" stroke="#000000"/>
    <path d="M-650.13,-425.93L-671.68,-422.73L-663.84,-381.04L-617.06,-353.20L-571.15,-354.26L-540.96,-387.35L-544.72,-420.36L-570.86,-444.05L-615.07,-470.95L-624.73,-482.07L-625.49,-495.14L-607.70,-513.37L-580.52,-513.18L-554.28,-496.29L-549.72,-467.62L-528.12,-470.03L-534.76,-507.66L-576.53,-532.37L-619.66,-530.90L-647.70,-499.46L-647.61,-475.20L-623.41,-449.53L-578.36,-423.01L-566.29,-408.72L-565.49,-392.54L-581.84,-373.21L-613.06,-372.40L-643.59,-391.40ZM-445.12,-447.70L-491.22,-441.34L-519.76,-397.71L-516.36,-345.69L-479.35,-317.48L-433.25,-323.85L-404.69,-367.46L-408.09,-419.48ZM-474.69,-335.23L-496.90,-352.90L-498.45,-392.09L-477.82,-425.46L-449.79,-429.93L-427.56,-412.25L-426.00,-373.04L-446.64,-339.68ZM-384.04,-297.62L-392.06,-281.92L-404.01,-276.55L-399.95,-266.45L-382.81,-274.86L-372.47,-294.58L-370.65,-301.51L-368.07,-311.31L-373.18,-320.07L-382.99,-322.65L-391.74,-317.54L-394.32,-307.73L-389.21,-298.98ZM-231.60,-257.43L-182.18,-343.45L-183.32,-244.74L-162.19,-239.18L-95.00,-346.59L-111.40,-356.86L-164.68,-269.37L-164.58,-368.85L-185.70,-374.40L-235.68,-285.30L-236.74,-389.81L-257.47,-389.30L-253.18,-263.10ZM-107.88,-224.90L-86.84,-219.37L-69.57,-285.06L-52.47,-313.26L-26.06,-317.77L-8.86,-303.57L-9.68,-277.43L-28.96,-204.15L-8.13,-198.68L11.27,-272.09L13.06,-311.16L-17.07,-334.65L-40.70,-335.40L-59.47,-323.60L-42.93,-386.50L-63.94,-392.02ZM116.60,-252.43L43.04,-249.44L21.60,-224.23L26.83,-193.55L54.03,-177.23L76.75,-175.75L100.37,-185.08L96.61,-171.14L116.11,-166.01L136.61,-243.87L134.93,-282.19L102.01,-303.85L67.43,-304.46L45.44,-285.06L59.33,-270.52L74.79,-286.06L95.39,-287.35L114.15,-276.07ZM111.74,-233.96L103.69,-203.41L85.52,-194.35L61.85,-193.39L47.19,-201.60L44.11,-219.30L57.75,-233.26ZM198.96,-142.50L198.97,-142.50L201.29,-161.14L191.57,-162.20L182.84,-169.94L185.04,-185.61L203.28,-255.01L223.94,-249.58L228.15,-265.60L207.49,-271.03L218.48,-312.81L197.59,-318.30L186.60,-276.52L169.43,-281.04L165.22,-265.02L182.39,-260.50L164.15,-191.10L161.25,-160.71L182.41,-144.47ZM340.29,-257.69L350.02,-263.97L353.14,-275.76L347.67,-286.25L336.94,-289.07L327.22,-282.60L324.12,-270.81L329.56,-260.51ZM308.30,-115.48L340.03,-236.18L319.14,-241.68L287.41,-120.98ZM360.94,-141.62L341.01,-137.99L346.60,-111.20L379.67,-91.59L416.03,-91.12L439.26,-115.92L436.38,-143.16L418.80,-158.95L392.66,-173.96L378.66,-184.34L376.07,-195.33L385.91,-205.46L406.75,-204.66L424.32,-194.52L428.41,-177.03L448.16,-180.69L443.26,-203.60L412.24,-222.29L376.70,-222.49L355.06,-198.34L358.51,-173.74L376.83,-158.24L404.50,-142.55L416.66,-131.83L417.43,-119.68L404.42,-108.11L385.07,-109.21L364.79,-122.35ZM612.39,-122.08L538.83,-119.09L517.39,-93.88L522.62,-63.20L549.82,-46.88L572.54,-45.40L596.16,-54.73L592.40,-40.79L611.90,-35.66L632.40,-113.52L630.73,-151.84L597.80,-173.50L563.22,-174.11L541.23,-154.71L555.12,-140.17L570.58,-155.71L591.18,-157.00L609.94,-145.72ZM607.53,-103.61L599.49,-73.06L581.31,-64.00L557.64,-63.04L542.98,-71.25L539.91,-88.96L553.54,-102.91ZM-395.12,-90.97L-416.75,-108.50L-417.71,-147.54L-397.67,-181.07L-370.22,-185.69L-352.97,-174.09L-347.03,-149.71L-326.68,-153.98L-335.38,-183.95L-365.55,-203.44L-411.06,-196.92L-439.03,-153.15L-436.22,-101.28L-399.79,-73.23L-363.96,-75.22L-342.04,-96.51L-357.30,-110.64L-374.43,-92.55ZM-304.39,-53.23L-260.45,-220.35L-281.34,-225.84L-325.28,-58.72ZM-221.33,-182.00L-211.61,-188.28L-208.48,-200.08L-213.96,-210.56L-224.69,-213.39L-234.40,-206.92L-237.50,-195.13L-232.06,-184.83ZM-253.33,-39.80L-221.59,-160.50L-242.48,-165.99L-274.22,-45.29ZM-224.24,-32.15L-203.30,-26.65L-186.89,-89.09L-173.05,-118.51L-144.71,-126.09L-130.36,-114.28L-130.51,-91.91L-151.26,-12.97L-130.37,-7.48L-112.00,-77.34L-97.60,-101.78L-71.56,-106.86L-56.33,-92.70L-57.95,-70.31L-78.08,6.27L-57.19,11.76L-35.10,-72.26L-36.42,-105.22L-62.32,-123.68L-85.48,-124.17L-106.83,-110.23L-114.41,-131.01L-134.87,-142.63L-158.03,-143.66L-178.17,-130.72L-173.66,-147.90L-192.46,-152.84ZM66.55,-42.25L-7.01,-39.26L-28.44,-14.05L-23.22,16.63L3.98,32.95L26.70,34.43L50.32,25.11L46.56,39.04L66.06,44.17L86.56,-33.69L84.89,-72.01L51.96,-93.67L17.38,-94.28L-4.61,-74.87L9.28,-60.33L24.74,-75.88L45.35,-77.17L64.10,-65.89ZM61.69,-23.78L53.65,6.77L35.47,15.83L11.80,16.79L-2.86,8.58L-5.93,-9.12L7.70,-23.08ZM148.91,67.68L148.92,67.68L151.24,49.04L141.52,47.98L132.79,40.24L134.99,24.57L153.24,-44.83L173.89,-39.40L178.10,-55.41L157.45,-60.85L168.43,-102.63L147.54,-108.12L136.56,-66.34L119.38,-70.85L115.17,-54.84L132.35,-50.32L114.10,19.08L111.20,49.48L132.36,65.72ZM204.28,55.96L200.52,20.73L290.12,44.26L293.48,36.21L291.28,-11.64L254.13,-40.61L208.63,-34.09L180.67,9.68L183.48,61.55L219.90,89.60L257.06,88.48L279.47,67.77L265.88,53.34L247.79,70.66L225.75,72.15ZM205.62,4.18L225.99,-20.00L249.45,-22.89L270.49,-6.59L273.16,21.94ZM-466.94,-51.30L-487.83,-56.79L-503.34,2.19L-513.28,-13.22L-531.36,-23.14L-575.33,-15.27L-601.28,28.09L-600.01,78.60L-565.59,107.08L-543.64,106.83L-525.12,94.46L-529.45,110.94L-510.88,115.82ZM-534.82,-5.07L-514.03,13.18L-513.42,51.19L-533.52,83.73L-559.72,89.63L-579.94,71.53L-579.96,33.69L-561.33,0.75ZM-449.26,107.48L-453.02,72.25L-363.42,95.78L-360.06,87.73L-362.26,39.88L-399.41,10.91L-444.91,17.42L-472.87,61.20L-470.06,113.07L-433.64,141.12L-396.48,140.00L-374.07,119.29L-387.66,104.86L-405.75,122.18L-427.79,123.66ZM-447.92,55.70L-427.55,31.52L-404.09,28.63L-383.05,44.92L-380.38,73.46ZM-331.97,122.88L-351.90,126.51L-346.31,153.31L-313.24,172.91L-276.88,173.39L-253.65,148.58L-256.53,121.35L-274.11,105.56L-300.25,90.55L-314.25,80.17L-316.84,69.18L-307.00,59.04L-286.16,59.85L-268.59,69.98L-264.50,87.48L-244.75,83.81L-249.65,60.91L-280.67,42.22L-316.21,42.02L-337.85,66.17L-334.40,90.77L-316.08,106.27L-288.41,121.95L-276.25,132.68L-275.48,144.83L-288.49,156.39L-307.84,155.29L-328.12,142.15ZM-187.12,50.33L-177.40,44.05L-174.28,32.25L-179.75,21.77L-190.48,18.95L-200.19,25.42L-203.29,37.21L-197.85,47.51ZM-219.12,192.53L-187.38,71.83L-208.27,66.34L-240.01,187.04ZM-156.75,262.92L-108.74,256.14L-87.76,218.63L-58.10,105.83L-76.67,100.94L-80.94,117.19L-90.56,98.18L-110.13,86.57L-154.09,94.44L-180.04,137.80L-178.77,188.31L-144.37,216.78L-124.50,217.24L-107.36,208.27L-109.75,217.11L-124.24,242.18L-151.52,245.04L-169.41,234.51L-172.72,216.15L-191.44,219.41L-186.75,244.39ZM-113.62,104.65L-93.70,122.68L-92.19,160.92L-111.43,193.69L-138.52,199.35L-158.70,181.26L-158.72,143.43L-140.09,110.48ZM-60.00,234.37L-39.11,239.86L-21.84,174.17L-4.63,145.54L21.80,141.03L38.99,155.23L38.26,181.04L18.80,255.08L39.69,260.58L59.15,186.53L60.92,147.64L30.79,124.14L6.92,123.19L-14.04,136.02L-9.47,118.61L-28.27,113.67ZM100.84,252.11L97.09,216.87L186.69,240.41L190.04,232.36L187.85,184.51L150.70,155.54L105.20,162.05L77.24,205.83L80.05,257.70L116.46,285.75L153.62,284.63L176.04,263.92L162.44,249.49L144.36,266.81L122.32,268.29ZM102.18,200.33L122.56,176.14L146.01,173.26L167.05,189.55L169.73,218.08ZM274.50,209.80L288.82,219.12L299.72,203.13L281.31,190.01L259.74,190.95L240.71,206.72L246.20,185.83L227.40,180.89L195.98,300.40L216.56,307.08L233.71,241.85L248.99,214.76ZM338.27,342.19L348.70,335.97L351.75,324.17L345.62,313.69L333.91,310.67L323.47,316.88L320.43,328.69L326.56,339.17ZM332.82,294.92L353.06,300.24L354.74,293.84L362.30,277.75L377.24,266.85L402.58,252.65L419.28,227.27L413.46,188.51L377.39,165.14L338.41,169.07L316.51,196.47L332.15,209.18L349.32,186.64L372.61,184.13L393.08,196.79L396.37,222.77L385.15,240.35L367.56,250.38L346.02,264.71L334.51,288.52Z" fill="#ffffff" stroke="#000000"/>
    <path d="M-621.26,-461.04L-642.75,-459.25L-637.65,-417.58L-593.23,-387.12L-547.83,-385.25L-515.91,-416.01L-517.52,-448.84L-541.83,-473.90L-583.78,-503.27L-592.61,-514.87L-592.54,-527.82L-573.81,-544.69L-546.98,-542.78L-522.13,-524.43L-519.46,-495.83L-497.98,-496.84L-502.13,-534.42L-541.82,-561.48L-584.51,-562.77L-614.19,-533.50L-615.65,-509.53L-593.38,-482.65L-550.58,-453.60L-539.56,-438.72L-539.81,-422.69L-557.18,-404.63L-588.06,-405.82L-617.00,-426.53ZM-417.43,-469.51L-463.36,-466.16L-494.32,-424.89L-494.26,-373.30L-459.51,-343.09L-413.58,-346.45L-382.60,-387.70L-382.65,-439.29ZM-453.78,-360.32L-474.59,-379.18L-473.62,-417.98L-451.13,-449.62L-423.17,-452.26L-402.34,-433.38L-403.29,-394.57L-425.79,-362.94ZM-366.65,-317.42L-375.57,-302.42L-387.71,-297.88L-384.34,-287.65L-366.88,-294.86L-355.41,-313.68L-353.17,-320.41L-350.01,-329.93L-354.49,-338.90L-364.01,-342.07L-372.98,-337.58L-376.15,-328.06L-371.67,-319.09ZM-218.66,-268.04L-164.39,-349.85L-171.78,-252.43L-151.28,-245.61L-78.09,-347.40L-93.64,-358.59L-151.82,-275.57L-145.39,-373.81L-165.90,-380.64L-220.92,-295.83L-215.33,-399.10L-235.83,-399.91L-239.61,-275.01ZM-98.55,-228.05L-78.12,-221.25L-56.89,-285.02L-38.22,-311.78L-11.85,-314.56L4.24,-299.45L1.76,-273.68L-21.93,-202.55L-1.70,-195.81L22.12,-267.08L26.37,-305.55L-1.90,-330.67L-25.18,-332.90L-44.47,-322.44L-24.14,-383.51L-44.54,-390.30ZM124.88,-240.97L52.05,-242.70L29.28,-219.16L32.49,-188.53L58.31,-170.68L80.65,-167.78L104.58,-175.49L99.98,-161.96L118.91,-155.66L144.10,-231.24L144.88,-269.20L113.74,-292.68L79.63,-295.48L56.68,-277.71L69.48,-262.47L85.73,-276.84L106.16,-276.81L123.96,-264.47ZM118.91,-223.04L109.02,-193.38L90.50,-185.59L67.06,-186.15L53.11,-195.19L51.20,-212.86L65.54,-225.78ZM199.23,-127.17L199.24,-127.18L202.72,-145.43L193.18,-147.10L185.06,-155.30L188.22,-170.63L210.65,-238.01L230.71,-231.33L235.88,-246.88L215.83,-253.56L229.33,-294.12L209.05,-300.87L195.55,-260.31L178.87,-265.86L173.69,-250.31L190.37,-244.76L167.94,-177.39L163.15,-147.55L183.01,-130.17ZM346.12,-231.94L356.13,-237.53L359.96,-248.98L355.22,-259.68L344.80,-263.15L334.80,-257.38L330.99,-245.93L335.71,-235.41ZM305.49,-93.55L344.50,-210.72L324.22,-217.48L285.21,-100.30ZM359.13,-116.01L339.22,-113.70L343.04,-86.88L374.46,-65.42L410.33,-62.64L434.84,-85.66L433.74,-112.73L417.37,-129.45L392.51,-145.93L379.35,-157.07L377.49,-168.09L387.86,-177.47L408.39,-175.35L425.09,-164.23L428.02,-146.69L447.76,-149.05L444.37,-171.98L414.92,-192.41L379.84,-194.87L356.93,-172.40L358.78,-147.88L375.88,-131.41L402.21,-114.16L413.54,-102.80L413.52,-90.75L399.94,-80.16L380.90,-82.47L361.72,-96.74ZM606.21,-80.73L533.38,-82.46L510.61,-58.92L513.82,-28.29L539.64,-10.45L561.98,-7.54L585.91,-15.25L581.31,-1.73L600.23,4.58L625.43,-71.00L626.21,-108.96L595.07,-132.44L560.96,-135.24L538.01,-117.48L550.81,-102.23L567.06,-116.60L587.49,-116.57L605.29,-104.23ZM600.24,-62.80L590.35,-33.14L571.83,-25.35L548.39,-25.91L534.44,-34.95L532.52,-52.63L546.87,-65.54ZM-390.73,-114.05L-410.97,-132.73L-409.44,-171.35L-387.51,-203.18L-360.11,-206.00L-343.82,-193.46L-339.50,-169.00L-319.13,-171.92L-325.81,-202.07L-354.38,-223.23L-399.73,-219.69L-430.14,-178.24L-430.66,-126.84L-396.46,-96.82L-360.95,-96.51L-337.96,-116.15L-352.13,-131.07L-370.19,-114.29ZM-303.52,-71.01L-249.51,-233.25L-269.79,-240.00L-323.80,-77.76ZM-213.31,-192.90L-203.31,-198.48L-199.48,-209.94L-204.22,-220.64L-214.63,-224.11L-224.63,-218.34L-228.45,-206.89L-223.73,-196.37ZM-253.95,-54.50L-214.94,-171.68L-235.22,-178.43L-274.23,-61.25ZM-225.71,-45.10L-205.38,-38.34L-185.20,-98.95L-169.67,-127.13L-141.20,-132.81L-127.78,-120.24L-129.35,-98.16L-154.86,-21.52L-134.58,-14.77L-112.00,-82.59L-96.22,-105.81L-70.18,-109.17L-56.04,-94.22L-59.06,-72.21L-83.82,2.14L-63.53,8.89L-36.38,-72.69L-35.58,-105.32L-59.99,-125.19L-82.83,-127.15L-104.80,-114.74L-110.96,-135.74L-130.43,-148.52L-153.24,-151.01L-173.95,-139.51L-168.40,-156.19L-186.65,-162.26ZM62.09,-36.59L-10.73,-38.31L-33.51,-14.78L-30.30,15.85L-4.47,33.70L17.87,36.60L41.79,28.90L37.19,42.42L56.12,48.72L81.31,-26.86L82.10,-64.81L50.96,-88.29L16.85,-91.09L-6.10,-73.33L6.69,-58.09L22.95,-72.46L43.38,-72.42L61.18,-60.09ZM56.13,-18.66L46.24,11.00L27.72,18.79L4.28,18.24L-9.68,9.20L-11.59,-8.48L2.76,-21.40ZM136.45,77.21L136.45,77.21L139.93,58.95L130.40,57.29L122.27,49.08L125.44,33.75L147.87,-33.63L167.92,-26.95L173.10,-42.50L153.04,-49.18L166.55,-89.74L146.27,-96.49L132.76,-55.93L116.09,-61.48L110.91,-45.93L127.59,-40.38L105.16,27.00L100.36,56.83L120.23,74.21ZM191.87,69.15L190.40,34.12L277.38,63.06L281.21,55.32L282.08,7.93L247.24,-23.05L201.89,-19.51L171.50,21.95L170.98,73.35L205.15,103.37L241.92,104.62L265.38,85.59L252.87,70.48L233.91,86.44L212.04,86.50ZM196.48,18.10L218.14,-4.49L241.49,-5.84L261.23,11.58L262.05,39.93ZM-464.17,-79.43L-484.45,-86.18L-503.51,-28.93L-512.35,-44.77L-529.58,-55.72L-573.50,-50.74L-601.88,-9.58L-603.84,40.39L-571.66,70.70L-549.96,71.85L-530.89,60.81L-536.21,76.81L-518.19,82.81ZM-534.14,-38.10L-514.77,-18.75L-516.58,18.82L-538.51,49.68L-564.75,53.84L-583.57,34.68L-581.19,-2.69L-560.69,-34.04ZM-456.80,78.49L-458.27,43.46L-371.29,72.39L-367.46,64.66L-366.59,17.26L-401.44,-13.71L-446.78,-10.17L-477.17,31.29L-477.69,82.69L-443.52,112.70L-406.75,113.96L-383.29,94.93L-395.80,79.81L-414.77,95.77L-436.63,95.84ZM-452.19,27.44L-430.53,4.85L-407.18,3.49L-387.44,20.92L-386.62,49.27ZM-341.96,101.16L-361.87,103.47L-358.05,130.29L-326.63,151.75L-290.76,154.53L-266.25,131.51L-267.35,104.44L-283.72,87.72L-308.58,71.24L-321.74,60.10L-323.60,49.08L-313.23,39.70L-292.70,41.82L-276.00,52.94L-273.07,70.48L-253.33,68.12L-256.72,45.19L-286.17,24.76L-321.25,22.30L-344.16,44.77L-342.31,69.29L-325.21,85.76L-298.87,103.01L-287.55,114.37L-287.56,126.42L-301.15,137.01L-320.19,134.70L-339.37,120.43ZM-194.30,38.71L-184.30,33.13L-180.46,21.68L-185.20,10.98L-195.62,7.51L-205.62,13.28L-209.43,24.72L-204.71,35.24ZM-234.93,177.11L-195.92,59.93L-216.20,53.18L-255.21,170.36ZM-177.81,250.58L-129.97,246.94L-106.87,211.23L-70.41,101.72L-88.44,95.72L-93.69,111.49L-101.98,92.10L-120.57,79.40L-164.49,84.37L-192.86,125.54L-194.82,175.51L-162.65,205.81L-143.07,207.53L-125.57,199.75L-128.49,208.33L-144.39,232.17L-171.52,233.26L-188.52,221.73L-190.61,203.38L-209.31,205.42L-206.27,230.38ZM-125.16,97.03L-106.63,116.10L-107.58,153.96L-128.66,185.10L-155.77,188.96L-174.55,169.82L-172.17,132.45L-151.68,101.10ZM-80.46,228.54L-60.18,235.29L-38.95,171.52L-20.13,144.34L6.26,141.56L22.33,156.67L19.97,182.12L-3.96,254.00L16.32,260.76L40.25,188.87L44.47,150.58L16.21,125.46L-7.31,123.00L-28.82,134.34L-23.19,117.44L-41.45,111.36ZM77.25,256.28L75.78,221.25L162.77,250.18L166.60,242.45L167.47,195.05L132.62,164.08L87.28,167.62L56.88,209.08L56.36,260.48L90.54,290.49L127.31,291.75L150.76,272.72L138.25,257.61L119.29,273.56L97.43,273.63ZM81.87,205.23L103.52,182.64L126.87,181.29L146.61,198.71L147.44,227.06ZM251.43,225.54L264.98,235.65L276.77,220.55L259.42,206.43L238.06,205.98L218.26,220.35L225.01,200.07L206.76,193.99L168.13,310.02L188.03,317.92L209.11,254.60L225.93,228.81ZM306.00,360.33L316.70,354.86L320.45,343.39L315.06,332.65L303.69,328.92L292.99,334.40L289.24,345.87L294.62,356.61ZM303.62,313.30L323.27,319.84L325.34,313.63L333.83,298.22L349.27,288.41L375.20,276.00L393.31,252.00L390.02,213.34L355.88,187.98L317.14,189.37L293.78,215.04L308.41,228.59L326.80,207.42L349.96,206.42L369.36,220.22L370.96,246.09L358.77,262.74L340.76,271.52L318.57,284.31L305.69,307.09Z" fill="#ffffff" stroke="#000000"/>
    <path d="M-590.44,-494.24L-611.77,-493.83L-609.39,-452.36L-567.45,-419.46L-522.74,-414.73L-489.27,-443.08L-488.78,-475.60L-511.19,-501.89L-550.74,-533.55L-558.73,-545.57L-557.83,-558.36L-538.27,-573.82L-511.90,-570.23L-488.53,-550.53L-487.70,-522.12L-466.43,-521.75L-468.14,-559.12L-505.61,-588.37L-547.68,-592.35L-578.86,-565.34L-581.82,-541.77L-561.53,-513.80L-521.12,-482.40L-511.19,-467.00L-512.45,-451.19L-530.74,-434.47L-561.17,-437.60L-588.43,-459.89ZM-388.63,-489.64L-434.19,-489.26L-467.39,-450.47L-470.61,-399.53L-438.22,-367.49L-392.65,-367.88L-359.44,-406.65L-356.21,-457.60ZM-431.46,-384.14L-450.81,-404.08L-447.39,-442.34L-423.17,-472.15L-395.40,-472.97L-376.03,-453.01L-379.43,-414.75L-403.66,-384.94ZM-348.15,-336.24L-357.91,-321.99L-370.19,-318.29L-367.52,-307.97L-349.82,-313.98L-337.30,-331.83L-334.66,-338.33L-330.92,-347.53L-334.79,-356.67L-343.99,-360.41L-353.13,-356.55L-356.86,-347.35L-353.00,-338.21ZM-205.16,-278.07L-146.37,-355.41L-159.87,-259.69L-140.05,-251.64L-61.32,-347.51L-75.96,-359.54L-138.68,-281.27L-126.10,-377.86L-145.91,-385.91L-205.63,-305.66L-193.54,-407.27L-213.74,-409.38L-225.41,-286.29ZM-89.10,-230.96L-69.37,-222.95L-44.35,-284.57L-24.21,-309.80L2.01,-310.87L16.93,-294.92L12.85,-269.64L-15.07,-200.90L4.47,-192.97L32.53,-261.83L39.17,-299.54L12.85,-326.14L-9.99,-329.83L-29.70,-320.72L-5.75,-379.73L-25.46,-387.73ZM132.34,-229.51L60.53,-235.85L36.55,-214.05L37.77,-183.61L62.14,-164.34L84.01,-160.05L108.13,-166.14L102.73,-153.08L121.02,-145.66L150.70,-218.69L153.88,-256.11L124.63,-281.28L91.12,-286.21L67.34,-270.13L79.00,-254.26L95.96,-267.42L116.13,-266.09L132.93,-252.78ZM125.30,-212.19L113.66,-183.53L94.87,-177.01L71.76,-179.05L58.56,-188.87L57.79,-206.44L72.78,-218.28ZM198.52,-112.42L198.53,-112.43L203.12,-130.23L193.81,-132.48L186.31,-141.10L190.41,-156.04L216.84,-221.14L236.22,-213.27L242.32,-228.30L222.94,-236.16L238.85,-275.36L219.26,-283.31L203.35,-244.12L187.23,-250.66L181.13,-235.64L197.25,-229.10L170.82,-163.99L164.19,-134.84L182.70,-116.41ZM350.23,-206.54L360.46,-211.42L364.97,-222.48L360.97,-233.35L350.91,-237.44L340.66,-232.37L336.17,-221.31L340.16,-210.63ZM301.31,-72.47L347.27,-185.69L327.68,-193.65L281.71,-80.42ZM355.70,-91.24L335.90,-90.22L337.96,-63.50L367.62,-40.31L402.86,-35.28L428.53,-56.45L429.16,-83.26L414.07,-100.81L390.57,-118.66L378.28,-130.49L377.14,-141.49L387.97,-150.10L408.11,-146.70L423.89,-134.65L425.67,-117.15L445.32,-118.23L443.43,-141.09L415.65,-163.13L381.16,-167.79L357.12,-147.05L357.38,-122.73L373.22,-105.38L398.13,-86.67L408.59,-74.73L407.81,-62.84L393.72,-53.24L375.07,-56.74L357.03,-72.04ZM597.43,-40.70L525.63,-47.03L501.65,-25.24L502.87,5.21L527.24,24.47L549.11,28.76L573.22,22.67L567.82,35.73L586.11,43.16L615.79,-29.87L618.98,-67.30L589.72,-92.46L556.22,-97.40L532.43,-81.31L544.09,-65.45L561.05,-78.61L581.23,-77.27L598.02,-63.96ZM590.40,-23.37L578.75,5.28L559.97,11.80L536.86,9.76L523.65,-0.05L522.89,-17.63L537.88,-29.47ZM-384.85,-136.96L-403.65,-156.69L-399.69,-194.73L-376.02,-224.77L-348.78,-225.81L-333.49,-212.38L-330.78,-187.96L-310.48,-189.55L-315.16,-219.74L-342.02,-242.46L-387.03,-241.85L-419.69,-202.85L-423.47,-152.13L-391.61,-120.31L-356.57,-117.75L-332.61,-135.67L-345.66,-151.31L-364.56,-135.89ZM-301.48,-88.91L-237.84,-245.69L-257.43,-253.64L-321.08,-96.87ZM-204.66,-203.54L-194.43,-208.42L-189.91,-219.48L-193.91,-230.35L-203.98,-234.44L-214.22,-229.38L-218.72,-218.32L-214.72,-207.63ZM-253.58,-69.47L-207.61,-182.69L-227.21,-190.65L-273.18,-77.42ZM-226.29,-58.39L-206.65,-50.41L-182.87,-108.99L-165.75,-135.83L-137.27,-139.62L-124.82,-126.35L-127.77,-104.65L-157.83,-30.60L-138.24,-22.64L-111.63,-88.18L-94.57,-110.10L-68.65,-111.76L-55.64,-96.11L-60.02,-74.57L-89.18,-2.73L-69.59,5.23L-37.59,-73.59L-34.73,-105.77L-57.57,-126.94L-80.00,-130.33L-102.48,-119.47L-107.23,-140.60L-125.64,-154.45L-148.00,-158.36L-169.19,-148.32L-162.64,-164.44L-180.28,-171.60ZM57.35,-31.69L-14.45,-38.02L-38.43,-16.23L-37.21,14.22L-12.84,33.48L9.03,37.77L33.14,31.68L27.74,44.74L46.03,52.17L75.71,-20.86L78.90,-58.29L49.64,-83.45L16.14,-88.39L-7.65,-72.30L4.01,-56.44L20.98,-69.60L41.15,-68.26L57.94,-54.95ZM50.32,-14.36L38.67,14.29L19.89,20.81L-3.22,18.77L-16.43,8.96L-17.19,-8.62L-2.20,-20.46ZM123.54,85.40L123.54,85.40L128.14,67.59L118.83,65.34L111.33,56.73L115.43,41.79L141.86,-23.32L161.24,-15.45L167.34,-30.47L147.96,-38.34L163.87,-77.53L144.27,-85.49L128.36,-46.30L112.25,-52.84L106.15,-37.81L122.26,-31.27L95.83,33.83L89.20,62.99L107.71,81.41ZM178.77,80.97L179.55,46.28L263.60,80.38L267.87,72.99L271.75,26.24L239.31,-6.55L194.31,-5.94L161.66,33.07L157.88,83.79L189.72,115.60L225.95,119.18L250.31,101.87L238.92,86.15L219.19,100.71L197.59,99.38ZM186.57,30.85L209.39,9.93L232.54,10.07L250.92,28.53L249.94,56.57ZM-459.58,-107.44L-479.17,-115.40L-501.63,-60.07L-509.35,-76.28L-525.66,-88.18L-569.35,-86.06L-600.00,-47.22L-605.10,2.00L-575.25,33.97L-553.90,36.49L-534.37,26.80L-540.64,42.26L-523.22,49.33ZM-531.29,-71.07L-513.39,-50.74L-517.57,-13.75L-541.18,15.33L-567.36,17.76L-584.72,-2.35L-580.00,-39.10L-557.77,-68.75ZM-462.34,48.96L-461.56,14.28L-377.51,48.38L-373.24,40.98L-369.36,-5.76L-401.80,-38.56L-446.81,-37.94L-479.45,1.06L-483.23,51.78L-451.39,83.59L-415.16,87.17L-390.80,69.87L-402.19,54.15L-421.93,68.70L-443.52,67.38ZM-454.54,-1.16L-431.72,-22.08L-408.57,-21.94L-390.19,-3.47L-391.18,24.57ZM-350.37,78.64L-370.18,79.67L-368.12,106.39L-338.46,129.58L-303.22,134.60L-277.54,113.43L-276.92,86.62L-292.01,69.08L-315.51,51.23L-327.80,39.39L-328.94,28.39L-318.10,19.78L-297.97,23.18L-282.18,35.23L-280.41,52.73L-260.76,51.65L-262.65,28.79L-290.43,6.75L-324.92,2.09L-348.96,22.83L-348.70,47.15L-332.86,64.50L-307.95,83.21L-297.49,95.15L-298.27,107.04L-312.36,116.64L-331.01,113.14L-349.05,97.84ZM-200.60,26.37L-190.37,21.49L-185.86,10.43L-189.86,-0.44L-199.92,-4.53L-210.16,0.54L-214.66,11.60L-210.67,22.28ZM-249.52,160.45L-203.56,47.22L-223.15,39.26L-269.12,152.49ZM-197.79,236.62L-150.32,236.07L-125.23,202.28L-82.27,96.46L-99.69,89.38L-105.88,104.63L-112.84,84.96L-130.39,71.23L-174.07,73.35L-204.70,112.20L-209.82,161.41L-179.98,193.38L-160.75,196.32L-142.98,189.75L-146.40,198.04L-163.62,220.57L-190.47,219.92L-206.53,207.45L-207.43,189.20L-226.02,190.02L-224.60,214.87ZM-136.04,88.35L-118.96,108.35L-122.30,145.67L-145.09,175.09L-172.11,177.18L-189.44,157.09L-184.71,120.34L-162.48,90.68ZM-100.26,221.04L-80.66,229.00L-55.64,167.38L-35.33,141.73L-9.10,140.67L5.81,156.62L1.86,181.59L-26.34,251.05L-6.74,259.01L21.46,189.55L28.06,152.00L1.74,125.40L-21.32,121.48L-43.28,131.31L-36.65,114.98L-54.29,107.82ZM53.71,258.46L54.48,223.77L138.54,257.88L142.81,250.48L146.68,203.74L114.24,170.94L69.24,171.55L36.60,210.56L32.82,261.28L64.65,293.09L100.88,296.67L125.25,279.37L113.86,263.65L94.12,278.20L72.53,276.87ZM61.51,208.34L84.33,187.42L107.47,187.56L125.86,206.02L124.87,234.07ZM227.65,239.18L240.39,250.02L252.99,235.86L236.75,220.81L215.69,219.01L195.23,231.94L203.18,212.34L185.55,205.18L140.03,317.30L159.18,326.36L184.02,265.18L202.26,240.79ZM272.97,375.74L283.88,371.01L288.31,359.93L283.68,348.98L272.68,344.58L261.77,349.31L257.33,360.39L261.97,371.34ZM273.61,329.15L292.59,336.85L295.03,330.85L304.39,316.18L320.27,307.47L346.65,296.86L366.06,274.32L365.27,235.94L333.18,208.72L294.84,207.64L270.13,231.50L283.72,245.80L303.22,226.07L326.15,226.56L344.44,241.42L344.37,267.06L331.27,282.73L312.93,290.26L290.21,301.47L276.05,323.15Z" fill="#ffffff" stroke="#000000"/>
    <path d="M-557.78,-525.41L-578.87,-526.36L-579.15,-485.26L-539.84,-450.12L-496.00,-442.60L-461.15,-468.46L-458.59,-500.54L-479.05,-527.92L-516.09,-561.70L-523.21,-574.07L-521.52,-586.64L-501.22,-600.66L-475.41,-595.44L-453.59,-574.51L-454.58,-546.41L-433.60,-544.69L-432.92,-581.70L-468.05,-612.95L-509.33,-619.56L-541.83,-594.87L-546.25,-571.78L-528.00,-542.89L-490.09,-509.31L-481.27,-493.48L-483.51,-477.95L-502.64,-462.60L-532.48,-467.62L-557.98,-491.37ZM-358.82,-508.04L-403.83,-510.56L-439.07,-474.38L-445.49,-424.28L-415.55,-390.59L-370.53,-388.08L-335.28,-424.25L-328.85,-474.35ZM-407.81,-406.60L-425.65,-427.52L-419.85,-465.07L-394.04,-492.97L-366.56,-492.02L-348.71,-471.08L-354.50,-433.51L-380.32,-405.63ZM-328.61,-354.01L-339.15,-340.57L-351.51,-337.69L-349.52,-327.33L-331.67,-332.14L-318.17,-348.97L-315.15,-355.22L-310.88,-364.07L-314.11,-373.34L-322.96,-377.61L-332.23,-374.38L-336.50,-365.54L-333.27,-356.26ZM-191.13,-287.50L-128.17,-360.11L-147.58,-266.47L-128.53,-257.27L-44.70,-346.91L-58.39,-359.72L-125.29,-286.43L-106.72,-381.00L-125.78,-390.20L-189.84,-314.76L-171.45,-414.32L-191.25,-417.69L-210.60,-296.90ZM-79.54,-233.61L-60.56,-224.44L-31.94,-283.69L-10.45,-307.33L15.50,-306.72L29.22,-290.02L23.58,-265.32L-8.35,-199.23L10.44,-190.15L42.52,-256.36L51.47,-293.17L27.18,-321.10L4.85,-326.19L-15.18,-318.46L12.22,-375.19L-6.74,-384.35ZM139.00,-218.11L68.51,-228.92L43.45,-208.93L42.73,-178.79L65.56,-158.22L86.88,-152.60L111.08,-157.08L104.91,-144.53L122.50,-136.03L156.44,-206.25L161.97,-243.00L134.68,-269.70L101.92,-276.70L77.41,-262.34L87.92,-245.93L105.50,-257.85L125.33,-255.25L141.07,-241.04ZM130.96,-201.45L117.64,-173.89L98.68,-168.66L75.99,-172.14L63.58,-182.66L63.94,-200.07L79.49,-210.81ZM196.91,-98.30L196.92,-98.30L202.59,-115.59L193.54,-118.40L186.68,-127.38L191.68,-141.87L221.91,-204.47L240.54,-195.47L247.52,-209.92L228.88,-218.92L247.08,-256.60L228.24,-265.70L210.04,-228.02L194.55,-235.50L187.57,-221.05L203.06,-213.57L172.83,-150.97L164.43,-122.61L181.54,-103.24ZM352.67,-181.58L363.08,-185.74L368.24,-196.38L364.98,-207.37L355.31,-212.04L344.87,-207.69L339.73,-197.06L342.99,-186.26ZM295.85,-52.31L348.43,-161.18L329.59,-170.28L277.01,-61.41ZM350.75,-67.39L331.13,-67.64L331.47,-41.13L359.28,-16.35L393.76,-9.15L420.45,-28.42L422.77,-54.85L408.98,-73.13L386.92,-92.25L375.54,-104.72L375.11,-115.65L386.35,-123.46L406.02,-118.82L420.84,-105.92L421.48,-88.53L440.94,-88.35L440.53,-111.04L414.51,-134.56L380.75,-141.36L355.69,-122.41L354.41,-98.38L368.95,-80.24L392.35,-60.19L401.92,-47.74L400.39,-36.04L385.87,-27.46L367.68,-32.10L350.84,-48.36ZM586.20,-2.13L515.71,-12.95L490.65,7.04L489.92,37.18L512.76,57.75L534.08,63.38L558.28,58.89L552.11,71.45L569.70,79.94L603.64,9.72L609.17,-27.03L581.88,-53.73L549.11,-60.73L524.61,-46.36L535.11,-29.96L552.70,-41.87L572.53,-39.27L588.27,-25.07ZM578.16,14.52L564.84,42.08L545.88,47.32L523.19,43.84L510.78,33.31L511.14,15.91L526.69,5.17ZM-377.51,-159.59L-394.82,-180.27L-388.48,-217.57L-363.20,-245.72L-336.25,-245.02L-322.00,-230.80L-320.88,-206.51L-300.74,-206.79L-303.44,-236.90L-328.52,-261.03L-372.99,-263.29L-407.71,-226.86L-414.67,-177.02L-385.24,-143.58L-350.80,-138.83L-326.01,-155.00L-337.90,-171.27L-357.54,-157.25ZM-298.25,-106.86L-225.45,-257.60L-244.29,-266.70L-317.09,-115.96ZM-195.37,-213.88L-184.96,-218.04L-179.80,-228.68L-183.05,-239.67L-192.73,-244.34L-203.17,-239.99L-208.31,-229.36L-205.04,-218.55ZM-252.19,-84.61L-199.61,-193.48L-218.45,-202.58L-271.03,-93.71ZM-225.95,-71.94L-207.06,-62.82L-179.87,-119.14L-161.25,-144.55L-132.90,-146.49L-121.45,-132.60L-125.74,-111.36L-160.13,-40.15L-141.28,-31.05L-110.85,-94.07L-92.61,-114.63L-66.91,-114.62L-55.06,-98.34L-60.76,-77.35L-94.12,-8.27L-75.28,0.83L-38.67,-74.96L-33.80,-106.55L-55.01,-128.90L-76.94,-133.67L-99.83,-124.38L-103.17,-145.54L-120.47,-160.39L-142.30,-165.67L-163.85,-157.11L-156.37,-172.60L-173.33,-180.79ZM52.40,-27.56L-18.09,-38.37L-43.15,-18.38L-43.88,11.76L-21.04,32.33L0.28,37.95L24.47,33.47L18.31,46.02L35.90,54.52L69.84,-15.70L75.36,-52.45L48.08,-79.15L15.31,-86.15L-9.19,-71.79L1.31,-55.38L18.89,-67.30L38.73,-64.70L54.46,-50.49ZM44.36,-10.90L31.04,16.66L12.08,21.89L-10.61,18.41L-23.02,7.89L-22.66,-9.52L-7.11,-20.26ZM110.31,92.25L110.31,92.25L115.98,74.96L106.93,72.15L100.08,63.17L105.07,48.68L135.30,-13.92L153.94,-4.92L160.91,-19.37L142.28,-28.37L160.48,-66.05L141.64,-75.15L123.44,-37.47L107.94,-44.95L100.97,-30.50L116.46,-23.02L86.23,39.58L77.83,67.94L94.93,87.31ZM165.12,91.39L168.09,57.19L248.91,96.20L253.60,89.17L260.39,43.27L230.45,8.82L185.98,6.57L151.27,43.00L144.32,92.84L173.73,126.27L209.27,132.11L234.43,116.57L224.18,100.33L203.77,113.44L182.54,110.76ZM176.01,42.40L199.87,23.19L222.71,24.80L239.69,44.20L236.93,71.82ZM-453.16,-135.20L-472.00,-144.30L-497.69,-91.10L-504.28,-107.59L-519.63,-120.38L-562.90,-121.07L-595.62,-84.66L-603.79,-36.39L-576.35,-2.93L-555.44,0.91L-535.53,-7.41L-542.71,7.45L-525.96,15.54ZM-526.28,-103.85L-509.90,-82.63L-516.37,-46.38L-541.53,-19.17L-567.53,-18.43L-583.40,-39.39L-576.39,-75.37L-552.56,-103.24ZM-465.82,19.05L-462.85,-15.15L-382.03,23.86L-377.35,16.83L-370.55,-29.07L-400.50,-63.52L-444.97,-65.77L-479.68,-29.33L-486.63,20.50L-457.22,53.93L-421.68,59.77L-396.52,44.23L-406.77,27.99L-427.18,41.10L-448.41,38.42ZM-454.94,-29.94L-431.08,-49.15L-408.24,-47.54L-391.26,-28.14L-394.01,-0.52ZM-357.17,55.47L-376.79,55.22L-376.45,81.73L-348.64,106.51L-314.16,113.71L-287.47,94.44L-285.15,68.01L-298.94,49.73L-321.00,30.61L-332.38,18.15L-332.81,7.22L-321.57,-0.59L-301.90,4.04L-287.08,16.94L-286.44,34.33L-266.98,34.51L-267.39,11.82L-293.41,-11.70L-327.17,-18.50L-352.23,0.45L-353.51,24.48L-338.97,42.62L-315.57,62.67L-306.00,75.12L-307.53,86.82L-322.05,95.40L-340.24,90.76L-357.08,74.51ZM-205.97,13.37L-195.56,9.21L-190.40,-1.43L-193.66,-12.41L-203.34,-17.09L-213.77,-12.74L-218.91,-2.11L-215.65,8.70ZM-262.79,142.64L-210.21,33.77L-229.06,24.67L-281.63,133.54ZM-216.56,221.14L-169.65,223.61L-142.74,191.84L-93.60,90.09L-110.35,82.00L-117.43,96.66L-123.04,76.79L-139.50,62.13L-182.76,61.45L-215.47,97.86L-223.65,146.12L-196.22,179.58L-177.42,183.70L-159.46,178.34L-163.37,186.31L-181.80,207.46L-208.27,205.11L-223.33,191.78L-223.06,173.71L-241.47,173.34L-241.65,197.96ZM-146.17,78.67L-130.57,99.51L-136.24,136.14L-160.61,163.74L-187.42,164.08L-203.26,143.14L-196.25,107.16L-172.42,79.29ZM-119.27,211.95L-100.43,221.05L-71.81,161.80L-50.13,137.78L-24.16,138.40L-10.46,155.08L-15.94,179.49L-48.19,246.28L-29.35,255.38L2.90,188.59L11.81,151.94L-12.49,124.01L-35.00,118.67L-57.32,126.98L-49.73,111.28L-66.69,103.09ZM30.37,258.68L33.33,224.48L114.16,263.49L118.84,256.46L125.64,210.56L95.69,176.12L51.22,173.86L16.51,210.30L9.56,260.14L38.97,293.57L74.51,299.40L99.67,283.87L89.42,267.62L69.01,280.74L47.78,278.06ZM41.25,209.70L65.11,190.49L87.95,192.10L104.93,211.49L102.18,239.12ZM203.33,250.70L215.22,262.21L228.55,249.03L213.48,233.14L192.80,230.03L171.78,241.49L180.88,222.65L163.92,214.46L111.85,322.26L130.18,332.43L158.59,273.60L178.16,250.67ZM239.39,388.41L250.46,384.43L255.55,373.77L251.67,362.67L241.09,357.63L230.02,361.60L224.93,372.26L228.81,383.36ZM242.99,342.45L261.24,351.26L264.02,345.49L274.20,331.60L290.43,324.01L317.15,315.21L337.75,294.18L339.41,256.25L309.45,227.33L271.66,223.83L245.75,245.82L258.26,260.80L278.77,242.56L301.38,244.49L318.49,260.33L316.80,285.65L302.87,300.28L284.28,306.55L261.14,316.18L245.77,336.68Z" fill="#ffffff" stroke="#000000"/>
    <path d="M-523.43,-554.44L-544.18,-556.72L-547.07,-516.16L-510.50,-478.97L-467.69,-468.76L-431.65,-492.08L-427.09,-523.58L-445.54,-551.92L-479.96,-587.61L-486.21,-600.28L-483.73,-612.58L-462.80,-625.14L-437.66,-618.34L-417.44,-596.29L-420.21,-568.61L-399.60,-565.58L-396.58,-602.07L-429.28,-635.16L-469.61,-644.30L-503.26,-621.99L-509.09,-599.48L-492.91,-569.80L-457.62,-534.24L-449.92,-518.05L-453.12,-502.86L-472.98,-488.93L-502.12,-495.79L-525.78,-520.84ZM-328.12,-524.65L-372.39,-529.99L-409.48,-496.52L-419.00,-447.47L-391.57,-412.31L-347.29,-406.97L-310.20,-440.44L-300.67,-489.48ZM-382.93,-427.62L-399.21,-449.41L-391.09,-486.11L-363.84,-512.01L-336.77,-509.32L-320.48,-487.52L-328.58,-450.80L-355.84,-424.91ZM-308.07,-370.67L-319.34,-358.07L-331.72,-356.01L-330.42,-345.67L-312.48,-349.28L-298.09,-365.03L-294.71,-371.01L-289.94,-379.47L-292.54,-388.83L-301.00,-393.61L-310.36,-391.01L-315.14,-382.55L-312.53,-373.19ZM-176.58,-296.28L-109.81,-363.96L-134.92,-272.75L-116.70,-262.45L-28.25,-345.62L-40.95,-359.14L-111.65,-291.03L-87.31,-383.22L-105.54,-393.51L-173.57,-323.11L-149.09,-420.22L-168.43,-424.81L-195.20,-306.80ZM-69.84,-235.98L-51.69,-225.73L-19.67,-282.40L3.04,-304.37L28.62,-302.12L41.11,-284.76L33.97,-260.74L-1.75,-197.52L16.23,-187.37L52.10,-250.69L63.27,-286.46L41.07,-315.58L19.35,-322.02L-0.92,-315.66L29.74,-369.93L11.61,-380.17ZM144.92,-206.79L76.02,-221.95L50.01,-203.81L47.37,-174.10L68.61,-152.34L89.30,-145.44L113.47,-148.32L106.59,-136.32L123.41,-126.82L161.38,-193.98L169.17,-229.91L143.93,-258.01L112.03,-267.00L86.92,-254.37L96.25,-237.51L114.37,-248.15L133.78,-244.33L148.41,-229.30ZM135.92,-190.86L121.02,-164.51L101.97,-160.54L79.79,-165.42L68.21,-176.60L69.67,-193.76L85.71,-203.37ZM194.47,-84.84L194.48,-84.84L201.17,-101.55L192.42,-104.90L186.22,-114.20L192.07,-128.19L225.90,-188.07L243.72,-178.00L251.52,-191.82L233.70,-201.88L254.06,-237.93L236.04,-248.11L215.68,-212.07L200.86,-220.44L193.05,-206.62L207.87,-198.25L174.05,-138.37L163.96,-110.90L179.61,-90.69ZM353.53,-157.16L364.08,-160.61L369.84,-170.78L367.33,-181.83L358.07,-187.06L347.49,-183.44L341.74,-173.26L344.28,-162.39ZM289.23,-33.16L348.05,-137.29L330.03,-147.47L271.20,-43.34ZM344.38,-44.56L325.03,-46.05L323.68,-19.86L349.56,6.38L383.14,15.67L410.71,-1.65L414.68,-27.60L402.23,-46.52L381.66,-66.80L371.22,-79.83L371.49,-90.64L383.09,-97.64L402.21,-91.81L416.02,-78.14L415.55,-60.93L434.75,-59.51L435.79,-81.94L411.59,-106.82L378.70,-115.67L352.76,-98.56L349.96,-74.91L363.16,-56.09L384.99,-34.80L393.65,-21.90L391.40,-10.45L376.52,-2.90L358.85,-8.64L343.26,-25.76ZM572.67,34.83L503.77,19.67L477.76,37.82L475.13,67.52L496.36,89.28L517.06,96.19L541.23,93.30L534.34,105.30L551.17,114.80L589.14,47.64L596.92,11.71L571.69,-16.38L539.78,-25.37L514.68,-12.75L524.01,4.11L542.12,-6.53L561.53,-2.71L576.17,12.32ZM563.67,50.76L548.77,77.12L529.72,81.08L507.55,76.21L495.96,65.03L497.43,47.87L513.46,38.26ZM-368.70,-181.85L-384.48,-203.36L-375.85,-239.78L-349.11,-265.97L-322.54,-263.56L-309.38,-248.61L-309.82,-224.56L-289.91,-223.57L-290.67,-253.46L-313.89,-278.88L-357.66,-283.93L-394.25,-250.17L-404.28,-201.41L-377.35,-166.53L-343.66,-159.65L-318.15,-174.05L-328.85,-190.86L-349.13,-178.26ZM-293.80,-124.75L-212.36,-268.94L-230.38,-279.12L-311.83,-134.93ZM-185.44,-223.87L-174.90,-227.32L-169.13,-237.49L-171.65,-248.54L-180.91,-253.77L-191.48,-250.14L-197.23,-239.97L-194.70,-229.10ZM-249.75,-99.87L-190.92,-204.00L-208.95,-214.18L-267.77,-110.05ZM-224.65,-85.69L-206.59,-75.49L-176.16,-129.36L-156.17,-153.26L-128.05,-153.37L-117.63,-138.93L-123.22,-118.24L-161.69,-50.12L-143.67,-39.94L-109.62,-100.22L-90.31,-119.36L-64.94,-117.72L-54.27,-100.89L-61.23,-80.53L-98.55,-14.46L-80.53,-4.28L-39.58,-76.77L-32.76,-107.65L-52.28,-131.06L-73.62,-137.16L-96.81,-129.44L-98.77,-150.55L-114.90,-166.31L-136.11,-172.90L-157.94,-165.82L-149.57,-180.64L-165.79,-189.80ZM47.32,-24.19L-21.58,-39.34L-47.60,-21.20L-50.23,8.51L-28.99,30.26L-8.30,37.17L15.87,34.29L8.99,46.29L25.81,55.79L63.78,-11.38L71.57,-47.30L46.33,-75.40L14.43,-84.39L-10.68,-71.77L-1.35,-54.90L16.77,-65.55L36.18,-61.72L50.81,-46.69ZM38.32,-8.25L23.42,18.10L4.37,22.07L-17.81,17.19L-29.39,6.01L-27.93,-11.15L-11.90,-20.76ZM96.87,97.77L96.88,97.77L103.57,81.06L94.82,77.71L88.62,68.41L94.47,54.42L128.29,-5.46L146.12,4.61L153.92,-9.21L136.10,-19.28L156.46,-55.32L138.44,-65.50L118.08,-29.46L103.26,-37.83L95.45,-24.01L110.27,-15.64L76.45,44.24L66.35,71.71L82.01,91.91ZM151.04,100.40L156.14,66.83L233.45,110.47L238.53,103.83L248.15,58.94L220.78,23.04L177.02,17.99L140.44,51.75L130.41,100.51L157.32,135.38L192.03,143.40L217.86,129.66L208.77,112.98L187.79,124.63L167.00,120.63ZM164.90,52.73L189.67,35.28L212.12,38.33L227.65,58.55L223.17,85.65ZM-444.94,-162.57L-462.96,-172.75L-491.70,-121.87L-497.16,-138.57L-511.50,-152.17L-554.17,-155.59L-588.79,-121.73L-599.92,-74.60L-574.96,-39.83L-554.55,-34.70L-534.37,-41.65L-542.40,-27.44L-526.38,-18.39ZM-519.11,-136.27L-504.28,-114.28L-512.98,-78.91L-539.55,-53.65L-565.26,-54.57L-579.59,-76.27L-570.39,-111.34L-545.10,-137.34ZM-467.24,-11.11L-462.13,-44.68L-384.82,-1.03L-379.75,-7.67L-370.13,-52.56L-397.50,-88.46L-441.26,-93.51L-477.84,-59.75L-487.87,-10.99L-460.96,23.88L-426.24,31.90L-400.42,18.16L-409.50,1.47L-430.49,13.12L-451.28,9.13ZM-453.38,-58.77L-428.60,-76.22L-406.16,-73.18L-390.63,-52.95L-395.10,-25.86ZM-362.28,31.75L-381.64,30.26L-382.99,56.45L-357.11,82.69L-323.53,91.98L-295.96,74.66L-291.98,48.71L-304.44,29.79L-325.00,9.51L-335.45,-3.52L-335.17,-14.33L-323.58,-21.33L-304.46,-15.50L-290.65,-1.83L-291.12,15.38L-271.92,16.79L-270.88,-5.63L-295.08,-30.51L-327.97,-39.36L-353.91,-22.25L-356.71,1.40L-343.51,20.22L-321.68,41.51L-313.02,54.41L-315.27,65.86L-330.15,73.41L-347.82,67.67L-363.40,50.55ZM-210.35,-0.20L-199.81,-3.65L-194.04,-13.82L-196.56,-24.87L-205.81,-30.10L-216.39,-26.47L-222.14,-16.30L-219.61,-5.43ZM-274.66,123.81L-215.83,19.67L-233.86,9.49L-292.68,113.63ZM-234.00,204.24L-187.85,209.66L-159.27,180.00L-104.29,82.68L-120.31,73.63L-128.23,87.65L-132.51,67.68L-147.82,52.16L-190.49,48.74L-225.10,82.60L-236.24,129.72L-211.28,164.50L-192.99,169.76L-174.91,165.62L-179.28,173.23L-198.82,192.94L-224.80,188.94L-238.82,174.83L-237.40,157.00L-255.56,155.46L-257.30,179.76ZM-155.46,68.06L-141.39,89.62L-149.31,125.43L-175.13,151.12L-201.61,149.76L-215.92,128.08L-206.71,93.01L-181.42,67.01ZM-137.37,201.35L-119.35,211.53L-87.34,154.86L-64.41,132.52L-38.81,134.78L-26.34,152.12L-33.30,175.87L-69.39,239.75L-51.37,249.93L-15.28,186.05L-4.16,150.44L-26.37,121.32L-48.26,114.61L-70.81,121.40L-62.33,106.38L-78.55,97.22ZM7.38,256.99L12.48,223.42L89.79,267.06L94.86,260.42L104.49,215.54L77.11,179.63L33.36,174.58L-3.22,208.35L-13.26,257.11L13.66,291.97L48.37,299.99L74.20,286.26L65.11,269.57L44.13,281.22L23.34,277.22ZM21.24,209.32L46.01,191.87L68.46,194.92L83.99,215.14L79.51,242.24ZM178.64,260.10L189.64,272.22L203.64,260.05L189.77,243.41L169.55,239.02L148.07,249.00L158.25,230.98L142.03,221.82L83.78,324.93L101.23,336.13L133.02,279.86L153.79,258.47ZM205.48,398.34L216.67,395.12L222.37,384.92L219.24,373.71L209.12,368.06L197.93,371.27L192.24,381.48L195.36,392.69ZM211.95,353.19L229.41,363.05L232.53,357.54L243.46,344.47L259.96,338.01L286.90,331.02L308.57,311.57L312.62,274.22L284.88,243.77L247.80,237.91L220.83,257.98L232.22,273.56L253.63,256.85L275.83,260.20L291.71,276.92L288.43,301.81L273.75,315.37L255.00,320.38L231.54,328.41L215.07,347.67Z" fill="#ffffff" stroke="#000000"/>
    <path d="M-487.51,-581.23L-507.85,-584.80L-513.28,-544.96L-479.54,-505.92L-437.94,-493.12L-400.88,-513.85L-394.37,-544.66L-410.79,-573.80L-442.50,-611.22L-447.86,-624.11L-444.63,-636.10L-423.18,-647.17L-398.79,-638.86L-380.24,-615.81L-384.72,-588.66L-364.58,-584.37L-359.27,-620.19L-389.45,-654.93L-428.68,-666.52L-463.31,-646.63L-470.50,-624.79L-456.41,-594.46L-423.84,-557.12L-417.26,-540.65L-421.39,-525.86L-441.88,-513.36L-470.20,-521.98L-491.97,-548.22ZM-296.61,-539.42L-339.98,-547.51L-378.71,-516.82L-391.22,-469.01L-366.39,-432.56L-323.02,-424.48L-284.28,-455.16L-271.76,-502.96ZM-356.88,-447.13L-371.57,-469.67L-361.22,-505.38L-332.68,-529.21L-306.13,-524.84L-291.43,-502.28L-301.77,-466.55L-330.32,-442.73ZM-286.61,-386.16L-298.53,-374.44L-310.88,-373.19L-310.26,-362.89L-292.32,-365.32L-277.12,-379.96L-273.40,-385.65L-268.15,-393.69L-270.12,-403.10L-278.17,-408.35L-287.57,-406.38L-292.83,-398.33L-290.85,-388.93ZM-161.54,-304.37L-91.34,-366.94L-121.92,-278.50L-104.58,-267.18L-11.99,-343.65L-23.67,-357.80L-97.78,-295.07L-67.91,-384.51L-85.24,-395.83L-156.87,-330.66L-126.53,-424.97L-145.33,-430.72L-179.25,-315.93ZM-60.01,-238.07L-42.74,-226.80L-7.54,-280.70L16.28,-300.95L41.38,-297.10L52.61,-279.17L44.03,-255.91L4.76,-195.78L21.86,-184.62L61.29,-244.84L74.59,-279.44L54.52,-309.59L33.50,-317.34L13.08,-312.34L46.79,-363.96L29.55,-375.22ZM150.12,-195.62L83.07,-214.96L56.25,-198.70L51.76,-169.54L71.34,-146.72L91.32,-138.59L115.37,-139.90L107.81,-128.49L123.81,-118.04L165.56,-181.93L175.53,-216.90L152.40,-246.23L121.48,-257.13L95.90,-246.27L104.04,-229.03L122.59,-238.38L141.51,-233.38L155.00,-217.61ZM140.23,-180.46L123.84,-155.39L104.79,-152.69L83.21,-158.91L72.48,-170.69L75.02,-187.53L91.45,-196.00ZM191.29,-72.09L191.29,-72.09L198.96,-88.15L190.54,-92.02L185.01,-101.60L191.67,-115.03L228.86,-171.99L245.82,-160.92L254.40,-174.06L237.45,-185.13L259.83,-219.42L242.69,-230.61L220.30,-196.32L206.21,-205.53L197.62,-192.38L211.72,-183.18L174.53,-126.23L162.82,-99.75L176.99,-78.81ZM352.89,-133.37L363.51,-136.11L369.85,-145.78L368.07,-156.85L359.27,-162.60L348.60,-159.69L342.27,-150.02L344.08,-139.12ZM281.53,-15.05L346.21,-114.11L329.07,-125.30L264.39,-26.25ZM336.70,-22.80L317.69,-25.51L314.70,0.27L338.58,27.80L371.13,39.11L399.45,23.76L405.02,-1.59L393.93,-21.06L374.91,-42.38L365.43,-55.91L366.39,-66.57L378.28,-72.74L396.79,-65.78L409.55,-51.40L407.99,-34.44L426.85,-31.83L429.30,-53.89L407.00,-79.99L375.09,-90.82L348.40,-75.57L344.14,-52.41L355.97,-32.99L376.16,-10.59L383.89,2.69L380.94,13.85L365.78,20.36L348.70,13.57L334.40,-4.32ZM557.00,70.06L489.95,50.72L463.13,66.98L458.64,96.14L478.22,118.96L498.21,127.10L522.25,125.78L514.69,137.19L530.69,147.64L572.44,83.75L582.41,48.78L559.28,19.45L528.36,8.55L502.78,19.41L510.92,36.65L529.47,27.30L548.39,32.30L561.88,48.07ZM547.11,85.22L530.72,110.29L511.67,112.99L490.09,106.77L479.36,95.00L481.90,78.15L498.34,69.68ZM-358.45,-203.62L-372.66,-225.86L-361.83,-261.26L-333.77,-285.41L-307.70,-281.35L-295.65,-265.76L-297.61,-242.05L-278.03,-239.80L-276.88,-269.35L-298.19,-295.92L-341.06,-303.69L-379.33,-272.69L-392.33,-225.20L-367.96,-189.06L-335.14,-180.12L-309.05,-192.71L-318.55,-209.98L-339.37,-198.84ZM-288.15,-142.51L-198.59,-279.66L-215.74,-290.85L-305.29,-153.70ZM-174.89,-233.46L-164.26,-236.19L-157.92,-245.87L-159.71,-256.94L-168.51,-262.69L-179.18,-259.78L-185.51,-250.10L-183.69,-239.21ZM-246.24,-115.14L-181.56,-214.20L-198.71,-225.39L-263.39,-126.34ZM-222.37,-99.55L-205.19,-88.34L-171.73,-139.58L-150.48,-161.90L-122.72,-160.23L-113.35,-145.31L-120.18,-125.24L-162.48,-60.45L-145.34,-49.25L-107.90,-106.59L-87.62,-124.25L-62.68,-121.03L-53.23,-103.74L-61.39,-84.08L-102.42,-21.23L-85.28,-10.04L-40.25,-79.00L-31.57,-109.04L-49.34,-133.39L-70.02,-140.77L-93.40,-134.62L-93.99,-155.58L-108.91,-172.16L-129.44,-180.01L-151.43,-174.41L-142.22,-188.51L-157.65,-198.58ZM42.18,-21.57L-24.87,-40.91L-51.70,-24.65L-56.18,4.51L-36.61,27.33L-16.62,35.47L7.42,34.15L-0.13,45.56L15.87,56.01L57.62,-7.88L67.58,-42.85L44.46,-72.18L13.54,-83.08L-12.05,-72.22L-3.91,-54.98L14.65,-64.33L33.57,-59.33L47.06,-43.56ZM32.28,-6.41L15.90,18.66L-3.16,21.36L-24.74,15.14L-35.46,3.37L-32.93,-13.48L-16.49,-21.95ZM83.34,101.96L83.35,101.96L91.02,85.90L82.59,82.03L77.06,72.45L83.73,59.02L120.92,2.06L137.87,13.13L146.46,-0.01L129.50,-11.08L151.89,-45.37L134.75,-56.56L112.36,-22.27L98.26,-31.48L89.68,-18.33L103.78,-9.13L66.59,47.83L54.88,74.30L69.05,95.24ZM136.65,108.00L143.82,75.18L217.36,123.18L222.79,116.94L235.14,73.25L210.40,36.07L167.53,28.31L129.27,59.31L116.27,106.80L140.62,142.93L174.38,153.05L200.74,141.13L192.84,124.08L171.38,134.25L151.11,128.98ZM153.36,61.83L178.92,46.18L200.88,50.61L214.92,71.56L208.79,98.02ZM-434.93,-189.44L-452.07,-200.63L-483.67,-152.24L-488.00,-169.07L-501.29,-183.40L-543.19,-189.49L-579.52,-158.27L-593.50,-112.45L-571.07,-76.54L-551.25,-70.18L-530.89,-75.76L-539.72,-62.24L-524.48,-52.29ZM-509.81,-168.19L-496.58,-145.55L-507.41,-111.18L-535.24,-87.93L-560.56,-90.47L-573.33,-112.80L-562.02,-146.84L-535.40,-170.89ZM-466.56,-41.35L-459.39,-74.16L-385.85,-26.16L-380.42,-32.40L-368.07,-76.09L-392.81,-113.27L-435.68,-121.04L-473.94,-90.03L-486.94,-42.54L-462.59,-6.41L-428.83,3.71L-402.47,-8.21L-410.37,-25.26L-431.83,-15.09L-452.10,-20.36ZM-449.85,-87.52L-424.29,-103.17L-402.33,-98.74L-388.29,-77.78L-394.42,-51.32ZM-365.69,7.63L-384.70,4.92L-387.69,30.69L-363.81,58.23L-331.26,69.54L-302.94,54.19L-297.37,28.84L-308.46,9.37L-327.48,-11.96L-336.96,-25.48L-336.00,-36.14L-324.11,-42.31L-305.61,-35.35L-292.84,-20.97L-294.40,-4.01L-275.54,-1.40L-273.09,-23.47L-295.39,-49.56L-327.30,-60.39L-353.99,-45.14L-358.25,-21.98L-346.42,-2.56L-326.23,19.83L-318.50,33.12L-321.45,44.28L-336.61,50.78L-353.69,44.00L-367.99,26.11ZM-213.68,-14.26L-203.06,-16.99L-196.72,-26.67L-198.50,-37.74L-207.31,-43.49L-217.98,-40.58L-224.30,-30.90L-222.49,-20.01ZM-285.04,104.06L-220.36,5.01L-237.50,-6.19L-302.18,92.86ZM-250.02,186.03L-204.81,194.32L-174.71,166.86L-114.26,74.29L-129.50,64.34L-138.21,77.67L-141.17,57.69L-155.29,41.39L-197.19,35.30L-233.50,66.53L-247.49,112.34L-225.07,148.25L-207.34,154.61L-189.24,151.67L-194.04,158.91L-214.57,177.12L-239.97,171.52L-252.91,156.70L-250.38,139.19L-268.20,136.52L-271.46,160.39ZM-163.84,56.61L-151.32,78.78L-161.42,113.63L-188.53,137.35L-214.59,134.32L-227.33,112.01L-216.02,77.98L-189.40,53.92ZM-154.46,189.33L-137.31,200.52L-102.11,146.61L-78.06,126.01L-52.94,129.87L-41.73,147.79L-50.11,170.79L-89.79,231.55L-72.65,242.74L-32.97,181.98L-19.73,147.53L-39.80,117.38L-60.98,109.37L-83.68,114.63L-74.35,100.35L-89.78,90.27ZM-15.11,253.44L-7.94,220.63L65.60,268.62L71.03,262.39L83.38,218.69L58.64,181.51L15.77,173.75L-22.48,204.75L-35.48,252.24L-11.13,288.37L22.62,298.49L48.99,286.57L41.08,269.53L19.63,279.69L-0.64,274.43ZM1.60,207.27L27.16,191.62L49.13,196.05L63.17,217.00L57.03,243.46ZM153.74,267.39L163.83,280.05L178.43,268.93L165.79,251.62L146.12,246.01L124.27,254.50L135.47,237.35L120.04,227.28L55.99,325.36L72.50,337.52L107.46,284.00L129.32,264.21ZM171.46,405.55L182.70,403.08L188.98,393.37L186.60,382.11L176.97,375.89L165.73,378.36L159.45,388.06L161.83,399.33ZM180.72,361.40L197.32,372.24L200.75,366.99L212.37,354.79L229.07,349.46L256.11,344.27L278.73,326.45L285.10,289.84L259.65,258.03L223.42,249.88L195.52,267.98L205.78,284.08L227.97,268.95L249.67,273.67L264.29,291.18L259.47,315.54L244.12,327.99L225.29,331.74L201.63,338.18L184.14,356.15Z" fill="#ffffff" stroke="#000000"/>
    <path d="M-450.17,-605.70L-470.02,-610.52L-477.92,-571.53L-447.09,-530.86L-406.85,-515.59L-368.95,-533.69L-360.57,-563.69L-374.93,-593.49L-403.85,-632.44L-408.31,-645.51L-404.37,-657.13L-382.49,-666.69L-358.95,-656.94L-342.10,-633.01L-348.26,-606.51L-328.64,-600.99L-321.14,-636.01L-348.71,-672.21L-386.69,-686.14L-422.14,-668.71L-430.62,-647.61L-418.64,-616.78L-388.87,-577.86L-383.42,-561.18L-388.44,-546.85L-409.45,-535.82L-436.86,-546.13L-456.67,-573.40ZM-264.42,-552.31L-306.71,-563.05L-346.89,-535.22L-362.27,-488.82L-340.08,-451.28L-297.79,-440.55L-257.60,-468.36L-242.21,-514.75ZM-329.77,-465.05L-342.83,-488.23L-330.35,-522.81L-300.66,-544.52L-274.74,-538.52L-261.67,-515.33L-274.14,-480.72L-303.83,-459.02ZM-264.29,-400.41L-276.79,-389.60L-289.07,-389.15L-289.10,-378.95L-271.25,-380.21L-255.31,-393.69L-251.28,-399.06L-245.59,-406.67L-246.94,-416.08L-254.55,-421.78L-263.95,-420.43L-269.65,-412.82L-268.30,-403.41ZM-146.04,-311.74L-72.78,-369.03L-108.58,-283.69L-92.19,-271.41L4.06,-341.01L-6.57,-355.72L-83.70,-298.51L-48.54,-384.89L-64.93,-397.17L-139.76,-337.39L-103.83,-428.55L-122.01,-435.42L-162.79,-324.28ZM-50.04,-239.86L-33.72,-227.63L4.45,-278.60L29.24,-297.07L53.78,-291.67L63.71,-273.27L53.77,-250.85L11.19,-194.00L27.36,-181.90L70.10,-238.83L85.43,-272.13L67.54,-303.17L47.28,-312.15L26.81,-308.52L63.36,-357.32L47.06,-369.53ZM154.65,-184.61L89.71,-207.95L62.19,-193.61L55.91,-165.12L73.79,-141.35L93.00,-132.05L116.81,-131.82L108.63,-121.04L123.76,-109.72L169.02,-170.11L181.08,-203.99L160.12,-234.42L130.29,-247.14L104.35,-238.04L111.29,-220.51L130.20,-228.57L148.55,-222.42L160.86,-206.01ZM143.92,-170.28L126.16,-146.58L107.18,-145.12L86.28,-152.63L76.44,-164.93L80.01,-181.39L96.77,-188.71ZM187.43,-60.07L187.44,-60.07L196.03,-75.44L187.96,-79.79L183.11,-89.60L190.54,-102.43L230.86,-156.28L246.89,-144.28L256.20,-156.71L240.17,-168.71L264.45,-201.13L248.24,-213.27L223.96,-180.85L210.63,-190.83L201.33,-178.40L214.66,-168.42L174.33,-114.57L161.10,-89.19L173.75,-67.62ZM350.82,-110.29L361.48,-112.32L368.35,-121.46L367.30,-132.50L358.97,-138.73L348.26,-136.54L341.40,-127.39L342.50,-116.53ZM272.88,1.95L343.01,-91.70L326.80,-103.84L256.67,-10.19ZM327.82,-2.19L309.23,-6.07L304.64,19.18L326.46,47.87L357.87,61.10L386.79,47.75L393.90,23.08L384.19,3.16L366.78,-19.09L358.28,-33.04L359.91,-43.50L372.03,-48.84L389.85,-40.79L401.53,-25.79L398.92,-9.15L417.37,-5.37L421.19,-27.00L400.83,-54.17L370.03,-66.88L342.72,-53.53L337.04,-30.94L347.49,-11.02L365.99,12.36L372.78,25.97L369.16,36.79L353.78,42.25L337.35,34.47L324.38,15.91ZM539.35,103.46L474.41,80.11L446.90,94.45L440.62,122.94L458.49,146.71L477.70,156.01L501.51,156.24L493.33,167.02L508.46,178.35L553.72,117.95L565.78,84.07L544.82,53.65L514.99,40.92L489.05,50.02L495.99,67.55L514.90,59.50L533.25,65.64L545.56,82.06ZM528.62,117.79L510.86,141.49L491.88,142.95L470.98,135.43L461.14,123.13L464.71,106.67L481.47,99.35ZM-346.79,-224.81L-359.39,-247.66L-346.46,-281.92L-317.23,-303.97L-291.75,-298.31L-280.86,-282.15L-284.30,-258.87L-265.12,-255.41L-262.10,-284.51L-281.44,-312.08L-323.27,-322.47L-363.00,-294.31L-378.85,-248.26L-357.10,-211.04L-325.27,-200.14L-298.73,-210.91L-307.00,-228.56L-328.25,-218.88ZM-281.28,-160.03L-184.18,-289.70L-200.39,-301.84L-297.49,-172.17ZM-163.72,-242.60L-153.06,-244.63L-146.19,-253.77L-147.24,-264.81L-155.57,-271.04L-166.29,-268.85L-173.14,-259.70L-172.05,-248.84ZM-241.66,-130.36L-171.53,-224.01L-187.74,-236.15L-257.87,-142.50ZM-219.09,-113.46L-202.84,-101.29L-166.57,-149.74L-144.18,-170.43L-116.88,-167.01L-108.59,-151.69L-116.60,-132.31L-162.47,-71.06L-146.26,-58.92L-105.66,-113.13L-84.53,-129.28L-60.12,-124.51L-51.89,-106.84L-61.19,-87.96L-105.68,-28.54L-89.47,-16.40L-40.65,-81.60L-30.17,-110.70L-46.17,-135.86L-66.11,-144.46L-89.57,-139.87L-88.83,-160.60L-102.50,-177.91L-122.26,-186.97L-144.32,-182.83L-134.34,-196.16L-148.93,-207.09ZM37.06,-19.68L-27.89,-43.03L-55.40,-28.69L-61.68,-0.20L-43.81,23.58L-24.60,32.87L-0.78,33.10L-8.97,43.88L6.16,55.21L51.42,-5.19L63.48,-39.07L42.52,-69.49L12.70,-82.22L-13.24,-73.12L-6.31,-55.59L12.60,-63.64L30.96,-57.50L43.27,-41.08ZM26.33,-5.35L8.57,18.35L-10.41,19.81L-31.32,12.30L-41.15,-0.01L-37.58,-16.47L-20.82,-23.78ZM69.84,104.85L69.85,104.85L78.44,89.48L70.36,85.13L65.52,75.33L72.95,62.49L113.27,8.64L129.30,20.65L138.61,8.22L122.58,-3.78L146.85,-36.20L130.64,-48.34L106.37,-15.92L93.04,-25.90L83.73,-13.47L97.06,-3.49L56.74,50.36L43.50,75.74L56.16,97.31ZM122.06,114.19L131.23,82.26L200.76,134.31L206.51,128.50L221.48,86.16L199.42,47.89L157.61,37.50L117.88,65.67L102.03,111.72L123.77,148.92L156.44,161.06L183.22,150.97L176.50,133.64L154.68,142.31L135.01,135.83ZM141.49,69.69L167.71,55.87L189.11,61.63L201.64,83.20L193.90,108.93ZM-423.17,-215.67L-439.38,-227.81L-473.64,-182.05L-476.84,-198.94L-489.05,-213.93L-530.02,-222.60L-567.85,-194.09L-584.56,-149.77L-564.70,-112.89L-545.55,-105.36L-525.10,-109.58L-534.67,-96.79L-520.27,-86.00ZM-498.43,-199.46L-486.80,-176.27L-499.67,-143.04L-528.62,-121.86L-553.45,-125.98L-564.63,-148.83L-551.31,-181.71L-523.50,-203.75ZM-463.80,-71.52L-454.64,-103.45L-385.10,-51.41L-379.35,-57.22L-364.38,-99.56L-386.44,-137.83L-428.26,-148.21L-467.98,-120.04L-483.83,-73.99L-462.09,-36.79L-429.42,-24.66L-402.64,-34.75L-409.36,-52.07L-431.18,-43.40L-450.85,-49.89ZM-444.37,-116.03L-418.15,-129.85L-396.75,-124.08L-384.23,-102.51L-391.96,-76.78ZM-367.35,-16.78L-385.94,-20.65L-390.53,4.59L-368.71,33.29L-337.30,46.52L-308.38,33.16L-301.27,8.49L-310.98,-11.43L-328.39,-33.68L-336.89,-47.63L-335.27,-58.09L-323.14,-63.42L-305.32,-55.37L-293.64,-40.38L-296.25,-23.74L-277.80,-19.96L-273.98,-41.58L-294.34,-68.75L-325.14,-81.47L-352.45,-68.12L-358.13,-45.53L-347.68,-25.61L-329.18,-2.22L-322.40,11.38L-326.01,22.20L-341.40,27.66L-357.82,19.88L-370.79,1.32ZM-215.93,-28.72L-205.27,-30.75L-198.40,-39.89L-199.46,-50.93L-207.79,-57.16L-218.50,-54.97L-225.36,-45.82L-224.26,-34.96ZM-293.88,83.52L-223.75,-10.13L-239.96,-22.27L-310.09,71.38ZM-264.52,166.65L-220.43,177.70L-188.97,152.52L-123.43,64.98L-137.84,54.20L-147.28,66.80L-148.93,46.89L-161.84,29.91L-202.80,21.24L-240.63,49.76L-257.34,94.08L-237.50,130.95L-220.40,138.35L-202.35,136.60L-207.54,143.43L-228.97,160.10L-253.68,152.97L-265.51,137.51L-261.90,120.40L-279.32,116.63L-284.05,139.98ZM-171.24,44.39L-160.30,67.07L-172.48,100.82L-200.74,122.51L-226.27,117.87L-237.42,95.04L-224.10,62.16L-196.30,40.11ZM-170.41,175.97L-154.20,188.11L-116.04,137.14L-90.99,118.34L-66.44,123.74L-56.51,142.13L-66.25,164.30L-109.27,221.75L-93.06,233.89L-50.04,176.44L-34.79,143.28L-52.68,112.24L-73.08,102.99L-95.81,106.75L-85.69,93.24L-100.28,82.32ZM-36.95,248.10L-27.79,216.17L41.74,268.21L47.50,262.40L62.46,220.06L40.41,181.80L-1.41,171.41L-41.14,199.58L-56.99,245.63L-35.25,282.83L-2.57,294.97L24.20,284.88L17.48,267.55L-4.34,276.22L-24.01,269.73ZM-17.53,203.59L8.70,189.77L30.09,195.54L42.62,217.11L34.88,242.84ZM128.81,272.59L137.96,285.73L153.08,275.69L141.71,257.80L122.64,251.01L100.55,258.00L112.69,241.79L98.10,230.86L28.66,323.60L44.18,336.66L82.07,286.05L104.91,267.90ZM137.52,410.08L148.78,408.36L155.58,399.18L153.96,387.91L144.85,381.16L133.59,382.88L126.79,392.06L128.41,403.33ZM149.46,367.09L165.16,378.85L168.88,373.89L181.12,362.58L197.94,358.38L224.96,354.98L248.42,338.83L257.03,303.10L233.94,270.08L198.70,259.74L170.01,275.83L179.11,292.38L201.98,278.85L223.09,284.89L236.41,303.10L230.10,326.83L214.16,338.14L195.34,340.65L171.57,345.51L153.18,362.13Z" fill="#ffffff" stroke="#000000"/>
    <path d="M-906.35,492L-906.35,469.28L-898.22,492L-894.99,492L-886.86,469.28L-886.86,492L-883.25,492L-883.25,464.64L-888.22,464.64L-896.55,487.33L-904.68,464.64L-909.96,464.64L-909.96,492ZM-865.67,478.75L-876.82,482.17L-879.09,486.89L-877.05,491.38L-872.23,492.78L-868.69,492.09L-865.45,489.71L-865.46,492L-862.27,492L-862.27,479.25L-864.06,473.45L-869.98,471.46L-875.30,472.76L-877.88,476.62L-875.17,478.28L-873.43,475.28L-870.33,474.25L-867.00,475.23ZM-865.67,481.77L-865.68,486.77L-868.09,488.89L-871.68,489.99L-874.26,489.33L-875.44,486.74L-873.91,484.05ZM-857.12,492L-853.70,492L-853.70,481.25L-852.22,476.17L-848.35,474.41L-845.15,475.90L-844.22,479.88L-844.22,492L-840.80,492L-840.80,479.88L-842.09,473.85L-847.66,471.47L-851.35,472.28L-854.04,475.09L-854.04,472.24L-857.12,472.24ZM-833.34,468.94L-832.11,467.58L-832.10,465.65L-833.36,464.27L-835.12,464.27L-836.35,465.65L-836.35,467.58L-835.10,468.94ZM-832.52,492L-832.52,472.24L-835.94,472.24L-835.94,492ZM-818.31,468.12L-817.85,465.29L-820.94,464.71L-825.30,466.41L-826.70,471.29L-826.70,472.24L-829.67,472.24L-829.67,474.86L-826.70,474.86L-826.70,492L-823.40,492L-823.40,474.86L-819.56,474.86L-819.56,472.24L-823.40,472.24L-823.40,471.21L-822.75,468.65L-820.52,467.74ZM-807.97,471.46L-814.77,474.29L-817.39,482.12L-814.77,489.95L-807.97,492.78L-801.17,489.95L-798.55,482.12L-801.16,474.29ZM-807.97,489.87L-812.08,488.06L-813.90,482.12L-812.08,476.18L-807.97,474.37L-803.85,476.18L-802.04,482.12L-803.85,488.06ZM-795.03,492L-791.61,492L-791.61,481.25L-790.13,476.17L-786.26,474.41L-783.06,475.90L-782.13,479.88L-782.13,492L-778.71,492L-778.71,479.88L-780.00,473.85L-785.56,471.47L-789.26,472.28L-791.95,475.09L-791.95,472.24L-795.03,472.24ZM-765.45,492.27L-765.45,492.26L-765.85,489.32L-767.38,489.55L-769.03,488.71L-769.32,486.22L-769.32,474.86L-765.94,474.86L-765.94,472.24L-769.32,472.24L-769.32,465.40L-772.74,465.40L-772.74,472.24L-775.55,472.24L-775.55,474.86L-772.74,474.86L-772.74,486.22L-771.96,491.00L-768.07,492.63ZM-737.50,487.93L-737.50,478.13L-749.05,478.13L-749.05,481.31L-740.99,481.31L-740.97,486.22L-748.63,489.75L-755.95,486.41L-758.55,478.32L-756.06,470.17L-749.21,466.88L-744.27,468.25L-741.30,473.01L-738.24,471.11L-741.44,465.93L-749.13,463.79L-758.98,468.04L-762.42,478.32L-758.78,488.60L-748.74,492.86ZM-724.35,474.77L-721.78,475.62L-720.76,472.73L-724.11,471.47L-727.37,472.48L-729.65,475.66L-729.65,472.24L-732.73,472.24L-732.73,491.81L-729.31,492L-729.31,481.32L-728.06,476.56ZM-710.01,471.46L-716.81,474.29L-719.42,482.12L-716.81,489.95L-710.01,492.78L-703.20,489.95L-700.58,482.12L-703.20,474.29ZM-710.01,489.87L-714.12,488.06L-715.93,482.12L-714.12,476.18L-710.01,474.37L-705.89,476.18L-704.07,482.12L-705.89,488.06ZM-688.58,492.27L-688.58,492.26L-688.97,489.32L-690.51,489.55L-692.15,488.71L-692.45,486.22L-692.45,474.86L-689.07,474.86L-689.07,472.24L-692.45,472.24L-692.45,465.40L-695.87,465.40L-695.87,472.24L-698.68,472.24L-698.68,474.86L-695.87,474.86L-695.87,486.22L-695.09,491.00L-691.19,492.63ZM-680.57,488.24L-682.57,483.00L-667.90,482.99L-667.71,481.63L-669.97,474.39L-676.83,471.45L-683.53,474.28L-686.05,482.11L-683.53,489.93L-676.83,492.76L-671.18,491.10L-668.58,487.02L-671.25,485.36L-673.32,488.74L-676.63,489.86ZM-682.45,480.26L-680.31,475.73L-676.83,474.35L-672.95,476.00L-671.40,480.26ZM-661.99,485.88L-664.90,487.24L-662.96,491.11L-657.11,492.78L-651.52,491.39L-648.97,486.66L-650.50,482.61L-653.83,480.90L-658.44,479.65L-661.00,478.62L-661.84,477.05L-660.74,475.10L-657.52,474.38L-654.42,475.23L-653.09,477.74L-650.21,476.38L-651.88,473.07L-657.39,471.46L-662.84,472.86L-665.18,477.43L-663.66,481.06L-660.23,482.69L-655.36,483.98L-653.07,485.13L-652.46,486.96L-653.99,489.26L-656.99,489.87L-660.63,488.67ZM-641.92,483.45L-638.72,483.45L-637.20,484.67L-633.14,492.30L-630.05,490.63L-634.16,483.45L-636.67,482.04L-634.62,480.06L-632.77,476.14L-631.66,475.64L-630.10,475.39L-630.56,472.24L-633.40,472.52L-635.30,474.17L-637.43,478.82L-638.72,480.60L-641.91,480.60L-641.91,464.64L-643.66,464.64L-645.32,464.64L-645.33,492L-641.92,492ZM-625.58,492.01L-615.04,492.01L-607.42,490.45L-604.53,484.21L-606.06,480.03L-610.31,477.70L-606.80,475.27L-605.82,471.62L-608.58,466.13L-615.58,464.63L-625.58,464.63ZM-621.94,476.42L-621.95,467.89L-616.40,467.89L-611.64,468.44L-609.62,472.08L-611.57,475.51L-615.93,476.42ZM-621.94,488.79L-621.94,479.64L-615.54,479.64L-610.64,480.53L-608.45,484.21L-610.32,488.02L-615.04,488.79ZM-592.40,471.46L-599.20,474.29L-601.81,482.12L-599.20,489.95L-592.40,492.78L-585.59,489.95L-582.97,482.12L-585.59,474.29ZM-592.40,489.87L-596.51,488.06L-598.32,482.12L-596.51,476.18L-592.40,474.37L-588.28,476.18L-586.46,482.12L-588.28,488.06ZM-571.27,471.46L-578.07,474.29L-580.68,482.12L-578.07,489.95L-571.27,492.78L-564.46,489.95L-561.85,482.12L-564.46,474.29ZM-571.27,489.87L-575.38,488.06L-577.19,482.12L-575.38,476.18L-571.27,474.37L-567.15,476.18L-565.33,482.12L-567.15,488.06ZM-554.82,483.45L-551.62,483.45L-550.10,484.67L-546.04,492.30L-542.96,490.63L-547.06,483.45L-549.57,482.04L-547.52,480.06L-545.67,476.14L-544.56,475.64L-543.00,475.39L-543.46,472.24L-546.31,472.52L-548.20,474.17L-550.34,478.82L-551.62,480.60L-554.82,480.60L-554.82,464.64L-556.56,464.64L-558.23,464.64L-558.23,492L-554.82,492Z"/>
</svg>