<?xml version="1.0"?>
<svg xmlns="http://www.w3.org/2000/svg" width="1920" height="1080" viewBox="-960 -540 1920 1080">
    <path d="M-708.63,-210L-657.63,-210L-657.63,-215L-679.13,-221.25L-659.88,-270.25L-598.13,-270.25L-578.63,-221.50L-600.13,-215L-600.13,-210L-541.88,-210L-541.88,-215L-557.88,-221.50L-621.13,-376.25L-629.88,-376.25L-693.88,-221L-708.63,-215ZM-655.38,-282L-629.38,-347.75L-602.88,-282ZM-454.88,-210L-392.13,-210C-354.38,-210 -326.38,-230.50 -326.38,-258C-326.38,-279.75 -344.13,-294.50 -373.88,-298.75C-352.38,-304.75 -340.63,-320.75 -340.63,-338C-340.63,-362.75 -366.13,-375 -398.88,-375L-454.88,-375L-454.88,-370L-435.13,-362.50L-435.13,-222.50L-454.88,-215ZM-401.63,-363.25C-375.38,-363.25 -361.38,-352.50 -361.38,-331.50C-361.38,-312.25 -376.38,-301 -400.13,-301L-415.63,-301L-415.63,-363.25ZM-392.13,-289.25C-363.88,-289.25 -347.13,-279 -347.13,-255.50C-347.13,-235.75 -364.13,-221.50 -390.38,-221.50L-415.63,-221.50L-415.63,-289.25ZM-247.88,-207.50C-228.13,-207.50 -212.88,-218 -205.38,-231.25L-205.38,-234L-206.13,-234C-216.38,-226.75 -228.13,-223 -240.13,-223C-271.13,-223 -284.13,-244.25 -284.13,-270.50C-284.13,-271.25 -284.13,-271.75 -284.13,-272.50L-206.38,-272.50L-205.38,-273.50C-206.38,-306.25 -222.13,-325 -248.38,-325C-276.38,-325 -300.88,-298.25 -300.88,-262.50C-300.88,-230 -281.38,-207.50 -247.88,-207.50ZM-252.13,-316.25C-235.13,-316.25 -225.63,-304.75 -222.13,-281.50L-283.38,-281.50C-280.38,-303.50 -268.13,-316.25 -252.13,-316.25ZM-130.88,-246.50C-106.63,-246.50 -88.63,-263.25 -88.63,-285.75C-88.63,-295 -92.13,-305.25 -97.63,-311L-96.88,-312L-72.63,-310.25L-72.63,-322.50L-108.88,-320.50C-114.88,-323 -123.88,-325 -130.88,-325C-155.13,-325 -173.13,-308 -173.13,-285.75C-173.13,-271.50 -166.13,-259.75 -154.88,-252.75L-154.88,-251.50L-168.88,-243.75C-173.13,-239.75 -174.88,-234.75 -174.88,-228.75C-174.88,-218.75 -168.38,-211.25 -156.63,-208.50L-156.63,-207.75L-173.13,-195.75C-175.88,-191.25 -177.38,-186 -177.38,-179.75C-177.38,-163 -165.13,-150 -134.38,-150C-99.38,-150 -76.88,-171.25 -76.88,-192.25C-76.88,-211.25 -87.88,-221.75 -110.38,-221.75L-139.63,-221.75C-153.88,-221.75 -160.13,-226 -160.13,-235.75C-160.13,-241.50 -157.13,-246.50 -148.63,-249.75C-143.38,-247.50 -137.38,-246.50 -130.88,-246.50ZM-128.38,-254.50C-144.38,-254.50 -155.88,-266.75 -155.88,-286.50C-155.88,-304.25 -147.38,-317.25 -132.63,-317.25C-117.63,-317.25 -106.13,-305.25 -106.13,-285C-106.13,-267.25 -114.63,-254.50 -128.38,-254.50ZM-162.13,-182.50C-162.13,-194 -159.13,-202.25 -149.88,-207.75C-148.88,-207.50 -147.38,-207.50 -146.13,-207.50L-119.63,-207.50C-99.13,-207.50 -92.13,-202.75 -92.13,-187.50C-92.13,-171.50 -108.13,-156.50 -131.13,-156.50C-148.63,-156.50 -162.13,-167.50 -162.13,-182.50ZM-23.38,-359C-15.88,-359 -10.63,-364.50 -10.63,-371.75C-10.63,-379.25 -15.88,-384.50 -23.38,-384.50C-30.63,-384.50 -36.13,-379.25 -36.13,-371.75C-36.13,-364.50 -30.63,-359 -23.38,-359ZM-45.63,-210L3.63,-210L3.63,-214L-12.88,-220.25L-12.88,-325L-14.88,-325L-46.13,-315.50L-46.13,-313L-29.88,-303.25L-29.88,-220.25L-45.63,-214ZM29.88,-210L80.38,-210L80.38,-214L62.63,-220.25L62.63,-299C69.38,-306.25 82.13,-310 91.38,-310C107.13,-310 118.13,-301 118.13,-284L118.13,-220.25L100.38,-214L100.38,-210L150.88,-210L150.88,-214L135.13,-220.25L135.13,-293.75C135.13,-314.25 120.63,-325 100.63,-325C86.63,-325 75.88,-319.25 63.38,-306.75L62.38,-306.75L60.63,-325L58.63,-325L29.38,-314.50L29.38,-311.75L45.63,-303.25L45.63,-220.25L29.88,-214ZM173.38,-210L223.88,-210L223.88,-214L206.13,-220.25L206.13,-299C212.88,-306.25 225.63,-310 234.88,-310C250.63,-310 261.63,-301 261.63,-284L261.63,-220.25L243.88,-214L243.88,-210L294.38,-210L294.38,-214L278.63,-220.25L278.63,-293.75C278.63,-314.25 264.13,-325 244.13,-325C230.13,-325 219.38,-319.25 206.88,-306.75L205.88,-306.75L204.13,-325L202.13,-325L172.88,-314.50L172.88,-311.75L189.13,-303.25L189.13,-220.25L173.38,-214ZM340.63,-359C348.13,-359 353.38,-364.50 353.38,-371.75C353.38,-379.25 348.13,-384.50 340.63,-384.50C333.38,-384.50 327.88,-379.25 327.88,-371.75C327.88,-364.50 333.38,-359 340.63,-359ZM318.38,-210L367.63,-210L367.63,-214L351.13,-220.25L351.13,-325L349.13,-325L317.88,-315.50L317.88,-313L334.13,-303.25L334.13,-220.25L318.38,-214ZM393.88,-210L444.38,-210L444.38,-214L426.63,-220.25L426.63,-299C433.38,-306.25 446.13,-310 455.38,-310C471.13,-310 482.13,-301 482.13,-284L482.13,-220.25L464.38,-214L464.38,-210L514.88,-210L514.88,-214L499.13,-220.25L499.13,-293.75C499.13,-314.25 484.63,-325 464.63,-325C450.63,-325 439.88,-319.25 427.38,-306.75L426.38,-306.75L424.63,-325L422.63,-325L393.38,-314.50L393.38,-311.75L409.63,-303.25L409.63,-220.25L393.88,-214ZM586.13,-246.50C610.38,-246.50 628.38,-263.25 628.38,-285.75C628.38,-295 624.88,-305.25 619.38,-311L620.13,-312L644.38,-310.25L644.38,-322.50L608.13,-320.50C602.13,-323 593.13,-325 586.13,-325C561.88,-325 543.88,-308 543.88,-285.75C543.88,-271.50 550.88,-259.75 562.13,-252.75L562.13,-251.50L548.13,-243.75C543.88,-239.75 542.13,-234.75 542.13,-228.75C542.13,-218.75 548.63,-211.25 560.38,-208.50L560.38,-207.75L543.88,-195.75C541.13,-191.25 539.63,-186 539.63,-179.75C539.63,-163 551.88,-150 582.63,-150C617.63,-150 640.13,-171.25 640.13,-192.25C640.13,-211.25 629.13,-221.75 606.63,-221.75L577.38,-221.75C563.13,-221.75 556.88,-226 556.88,-235.75C556.88,-241.50 559.88,-246.50 568.38,-249.75C573.63,-247.50 579.63,-246.50 586.13,-246.50ZM588.63,-254.50C572.63,-254.50 561.13,-266.75 561.13,-286.50C561.13,-304.25 569.63,-317.25 584.38,-317.25C599.38,-317.25 610.88,-305.25 610.88,-285C610.88,-267.25 602.38,-254.50 588.63,-254.50ZM554.88,-182.50C554.88,-194 557.88,-202.25 567.13,-207.75C568.13,-207.50 569.63,-207.50 570.88,-207.50L597.38,-207.50C617.88,-207.50 624.88,-202.75 624.88,-187.50C624.88,-171.50 608.88,-156.50 585.88,-156.50C568.38,-156.50 554.88,-167.50 554.88,-182.50Z" fill="#ffffff" stroke="#000000"/>
    <path d="M-709.04,-199.48L-658.55,-199.86L-658.59,-204.81L-679.92,-210.84L-661.23,-259.49L-600.10,-259.96L-580.43,-211.85L-601.66,-205.25L-601.62,-200.30L-543.96,-200.75L-544.00,-205.70L-559.89,-212.01L-623.68,-364.73L-632.34,-364.66L-694.52,-210.48L-709.07,-204.43ZM-656.87,-271.16L-631.63,-336.45L-604.90,-271.56ZM-457.83,-201.41L-395.71,-201.89C-358.34,-202.18 -330.78,-222.68 -330.99,-249.91C-331.15,-271.44 -348.84,-285.91 -378.32,-289.89C-357.08,-295.99 -345.57,-311.92 -345.70,-329.00C-345.89,-353.50 -371.23,-365.43 -403.65,-365.18L-459.09,-364.76L-459.05,-359.81L-439.44,-352.53L-438.37,-213.94L-457.87,-206.36ZM-406.28,-353.53C-380.30,-353.73 -366.36,-343.19 -366.19,-322.40C-366.05,-303.35 -380.81,-292.10 -404.32,-291.91L-419.67,-291.80L-420.14,-353.42ZM-396.31,-280.34C-368.35,-280.56 -351.69,-270.54 -351.51,-247.28C-351.36,-227.72 -368.08,-213.49 -394.07,-213.29L-419.06,-213.09L-419.58,-280.16ZM-252.89,-200.51C-233.34,-200.66 -218.32,-211.17 -211.00,-224.35L-211.02,-227.07L-211.76,-227.07C-221.85,-219.81 -233.45,-216.01 -245.33,-215.92C-276.02,-215.68 -289.05,-236.62 -289.25,-262.61C-289.26,-263.35 -289.26,-263.84 -289.27,-264.59L-212.30,-265.18L-211.32,-266.18C-212.56,-298.59 -228.29,-317.03 -254.28,-316.83C-282.00,-316.62 -306.05,-289.95 -305.78,-254.56C-305.53,-222.38 -286.05,-200.26 -252.89,-200.51ZM-257.92,-308.14C-241.09,-308.27 -231.60,-296.96 -227.96,-273.97L-288.60,-273.50C-285.79,-295.30 -273.76,-308.02 -257.92,-308.14ZM-137.36,-240.01C-113.35,-240.20 -95.66,-256.92 -95.83,-279.19C-95.90,-288.35 -99.45,-298.47 -104.93,-304.12L-104.20,-305.12L-80.18,-303.57L-80.27,-315.70L-116.14,-313.44C-122.10,-315.87 -131.03,-317.78 -137.96,-317.73C-161.96,-317.54 -179.65,-300.58 -179.48,-278.55C-179.38,-264.44 -172.36,-252.86 -161.17,-246.02L-161.16,-244.78L-174.96,-237.00C-179.13,-233.01 -180.83,-228.05 -180.78,-222.11C-180.71,-212.21 -174.21,-204.83 -162.56,-202.20L-162.55,-201.46L-178.80,-189.45C-181.49,-184.98 -182.93,-179.77 -182.88,-173.58C-182.76,-157.00 -170.53,-144.22 -140.09,-144.46C-105.44,-144.72 -83.33,-165.93 -83.49,-186.72C-83.63,-205.53 -94.60,-215.84 -116.88,-215.67L-145.83,-215.45C-159.94,-215.34 -166.16,-219.50 -166.23,-229.15C-166.28,-234.84 -163.35,-239.81 -154.96,-243.10C-149.74,-240.91 -143.79,-239.96 -137.36,-240.01ZM-134.94,-247.95C-150.78,-247.83 -162.26,-259.87 -162.41,-279.42C-162.55,-296.99 -154.23,-309.93 -139.63,-310.04C-124.78,-310.16 -113.30,-298.36 -113.15,-278.32C-113.02,-260.74 -121.33,-248.06 -134.94,-247.95ZM-167.81,-176.42C-167.90,-187.80 -164.99,-195.99 -155.87,-201.51C-154.88,-201.27 -153.40,-201.28 -152.16,-201.29L-125.92,-201.49C-105.63,-201.65 -98.66,-197.00 -98.55,-181.90C-98.43,-166.06 -114.15,-151.09 -136.92,-150.92C-154.24,-150.78 -167.69,-161.57 -167.81,-176.42ZM-31.79,-352.21C-24.37,-352.26 -19.21,-357.75 -19.27,-364.92C-19.33,-372.35 -24.56,-377.51 -31.99,-377.45C-39.17,-377.39 -44.57,-372.16 -44.51,-364.73C-44.46,-357.55 -38.97,-352.15 -31.79,-352.21ZM-52.69,-204.53L-3.93,-204.91L-3.96,-208.87L-20.34,-214.93L-21.14,-318.63L-23.12,-318.61L-53.98,-308.97L-53.97,-306.49L-37.80,-296.97L-37.17,-214.80L-52.72,-208.49ZM22.06,-205.11L72.05,-205.49L72.02,-209.45L54.40,-215.50L53.80,-293.46C60.43,-300.69 73.02,-304.50 82.18,-304.57C97.77,-304.69 108.73,-295.87 108.86,-279.04L109.34,-215.93L91.82,-209.60L91.85,-205.64L141.84,-206.03L141.81,-209.99L126.17,-216.06L125.61,-288.82C125.46,-309.11 111.02,-319.64 91.22,-319.49C77.36,-319.39 66.76,-313.61 54.48,-301.14L53.49,-301.13L51.62,-319.19L49.64,-319.17L20.77,-308.55L20.79,-305.83L36.94,-297.54L37.57,-215.37L22.03,-209.07ZM164.12,-206.20L214.11,-206.59L214.08,-210.54L196.46,-216.60L195.86,-294.56C202.49,-301.79 215.08,-305.60 224.24,-305.67C239.83,-305.79 250.79,-296.96 250.92,-280.13L251.40,-217.02L233.88,-210.70L233.91,-206.74L283.90,-207.12L283.87,-211.08L268.23,-217.15L267.67,-289.91C267.52,-310.21 253.08,-320.74 233.28,-320.59C219.42,-320.48 208.82,-314.70 196.54,-302.24L195.55,-302.23L193.68,-320.28L191.70,-320.27L162.83,-309.65L162.85,-306.93L179.00,-298.63L179.63,-216.47L164.09,-210.16ZM328.55,-354.98C335.98,-355.04 341.13,-360.52 341.08,-367.70C341.02,-375.12 335.79,-380.28 328.36,-380.22C321.18,-380.17 315.78,-374.93 315.84,-367.51C315.89,-360.33 321.38,-354.93 328.55,-354.98ZM307.66,-207.31L356.42,-207.68L356.39,-211.64L340.01,-217.70L339.21,-321.40L337.23,-321.39L306.36,-311.74L306.38,-309.27L322.55,-299.74L323.18,-217.57L307.63,-211.27ZM382.41,-207.88L432.40,-208.27L432.37,-212.23L414.75,-218.28L414.15,-296.24C420.78,-303.47 433.37,-307.28 442.53,-307.35C458.12,-307.47 469.08,-298.64 469.21,-281.81L469.69,-218.70L452.17,-212.38L452.20,-208.42L502.19,-208.80L502.16,-212.76L486.52,-218.83L485.96,-291.59C485.81,-311.89 471.37,-322.42 451.57,-322.27C437.71,-322.16 427.11,-316.39 414.83,-303.92L413.84,-303.91L411.97,-321.96L409.99,-321.95L381.11,-311.33L381.14,-308.61L397.29,-300.32L397.92,-218.15L382.38,-211.84ZM572.45,-245.48C596.46,-245.67 614.15,-262.38 613.98,-284.66C613.91,-293.82 610.36,-303.94 604.88,-309.59L605.61,-310.58L629.63,-309.04L629.54,-321.16L593.67,-318.91C587.71,-321.34 578.78,-323.25 571.85,-323.19C547.84,-323.01 530.16,-306.04 530.32,-284.01C530.43,-269.91 537.45,-258.33 548.64,-251.49L548.65,-250.25L534.85,-242.47C530.68,-238.48 528.98,-233.51 529.03,-227.57C529.10,-217.67 535.60,-210.30 547.25,-207.67L547.25,-206.92L531.01,-194.92C528.32,-190.44 526.88,-185.23 526.93,-179.05C527.05,-162.46 539.28,-149.69 569.72,-149.92C604.37,-150.19 626.48,-171.40 626.32,-192.19C626.18,-211.00 615.21,-221.31 592.93,-221.14L563.98,-220.91C549.87,-220.80 543.65,-224.96 543.58,-234.62C543.53,-240.31 546.46,-245.28 554.85,-248.56C560.07,-246.38 566.02,-245.43 572.45,-245.48ZM574.86,-253.42C559.02,-253.30 547.55,-265.34 547.40,-284.89C547.26,-302.46 555.58,-315.40 570.18,-315.51C585.03,-315.62 596.50,-303.83 596.66,-283.78C596.79,-266.21 588.48,-253.52 574.86,-253.42ZM542.00,-181.88C541.91,-193.27 544.82,-201.46 553.94,-206.97C554.93,-206.73 556.41,-206.75 557.65,-206.76L583.88,-206.96C604.18,-207.11 611.15,-202.46 611.26,-187.37C611.38,-171.53 595.66,-156.56 572.89,-156.38C555.56,-156.25 542.12,-167.03 542.00,-181.88Z" fill="#ffffff" stroke="#000000"/>
    <path d="M-709.21,-189.02L-659.23,-189.79L-659.31,-194.69L-680.47,-200.49L-662.35,-248.79L-601.84,-249.73L-582.00,-202.25L-602.97,-195.56L-602.89,-190.66L-545.81,-191.54L-545.89,-196.44L-561.66,-202.56L-625.98,-353.25L-634.55,-353.11L-694.92,-200.02L-709.28,-193.92ZM-658.12,-260.37L-633.63,-325.19L-606.67,-261.17ZM-460.56,-192.85L-399.07,-193.80C-362.08,-194.37 -334.96,-214.88 -335.37,-241.82C-335.70,-263.14 -353.32,-277.32 -382.53,-281.04C-361.55,-287.24 -350.28,-303.10 -350.54,-320.00C-350.92,-344.25 -376.09,-355.87 -408.18,-355.38L-463.05,-354.53L-462.98,-349.63L-443.51,-342.58L-441.40,-205.40L-460.64,-197.75ZM-410.70,-343.82C-384.97,-344.22 -371.09,-333.89 -370.78,-313.32C-370.49,-294.45 -385.01,-283.20 -408.29,-282.85L-423.48,-282.61L-424.41,-343.61ZM-400.27,-271.45C-372.59,-271.88 -356.02,-262.09 -355.67,-239.06C-355.37,-219.71 -371.81,-205.49 -397.53,-205.09L-422.28,-204.71L-423.30,-271.10ZM-257.69,-193.52C-238.34,-193.82 -223.55,-204.34 -216.40,-217.44L-216.44,-220.13L-217.18,-220.12C-227.11,-212.86 -238.57,-209.01 -250.33,-208.83C-280.70,-208.36 -293.76,-228.99 -294.16,-254.71C-294.17,-255.44 -294.18,-255.93 -294.19,-256.67L-218.00,-257.84L-217.04,-258.84C-218.51,-290.91 -234.23,-309.05 -259.95,-308.65C-287.39,-308.23 -310.99,-281.65 -310.45,-246.62C-309.96,-214.77 -290.51,-193.02 -257.69,-193.52ZM-263.49,-300.02C-246.84,-300.28 -237.35,-289.15 -233.57,-266.42L-293.59,-265.50C-290.98,-287.10 -279.17,-299.78 -263.49,-300.02ZM-143.63,-233.51C-119.87,-233.87 -102.48,-250.56 -102.82,-272.60C-102.96,-281.67 -106.55,-291.66 -112.02,-297.21L-111.30,-298.20L-87.51,-296.85L-87.70,-308.86L-123.19,-306.35C-129.11,-308.71 -137.96,-310.53 -144.82,-310.43C-168.58,-310.06 -185.96,-293.13 -185.62,-271.33C-185.41,-257.36 -178.37,-245.96 -167.24,-239.27L-167.22,-238.04L-180.82,-230.24C-184.93,-226.25 -186.57,-221.33 -186.48,-215.45C-186.33,-205.65 -179.84,-198.40 -168.29,-195.88L-168.28,-195.15L-184.26,-183.14C-186.89,-178.69 -188.28,-173.52 -188.19,-167.40C-187.94,-150.98 -175.74,-138.43 -145.60,-138.89C-111.31,-139.42 -89.58,-160.58 -89.90,-181.16C-90.19,-199.78 -101.12,-209.90 -123.17,-209.56L-151.83,-209.12C-165.79,-208.91 -171.98,-212.98 -172.13,-222.53C-172.22,-228.16 -169.35,-233.11 -161.07,-236.42C-155.89,-234.30 -150.00,-233.41 -143.63,-233.51ZM-141.30,-241.38C-156.98,-241.14 -168.43,-252.97 -168.73,-272.32C-169.00,-289.72 -160.87,-302.58 -146.41,-302.81C-131.72,-303.03 -120.27,-291.45 -119.96,-271.60C-119.69,-254.21 -127.83,-241.59 -141.30,-241.38ZM-173.29,-170.32C-173.46,-181.59 -170.64,-189.72 -161.66,-195.25C-160.68,-195.02 -159.21,-195.04 -157.99,-195.06L-132.02,-195.46C-111.93,-195.77 -105.00,-191.22 -104.77,-176.28C-104.53,-160.60 -119.98,-145.66 -142.52,-145.31C-159.67,-145.05 -173.06,-155.62 -173.29,-170.32ZM-39.99,-345.37C-32.64,-345.48 -27.58,-350.95 -27.69,-358.05C-27.80,-365.40 -33.03,-370.47 -40.38,-370.35C-47.48,-370.24 -52.79,-365.02 -52.68,-357.67C-52.57,-350.56 -47.10,-345.26 -39.99,-345.37ZM-59.54,-199.03L-11.29,-199.77L-11.35,-203.69L-27.61,-209.56L-29.19,-312.21L-31.15,-312.18L-61.63,-302.40L-61.59,-299.95L-45.52,-290.64L-44.27,-209.31L-59.61,-202.95ZM14.44,-200.17L63.92,-200.93L63.86,-204.85L46.37,-210.70L45.18,-287.87C51.69,-295.08 64.13,-298.94 73.19,-299.08C88.62,-299.32 99.54,-290.67 99.79,-274.01L100.76,-211.54L83.46,-205.15L83.52,-201.23L133.00,-201.99L132.94,-205.91L117.41,-211.80L116.31,-283.82C116.00,-303.91 101.63,-314.22 82.03,-313.92C68.31,-313.71 57.86,-307.91 45.80,-295.48L44.82,-295.46L42.83,-313.32L40.87,-313.29L12.37,-302.56L12.41,-299.86L28.46,-291.78L29.71,-210.45L14.38,-204.09ZM155.05,-202.33L204.53,-203.09L204.47,-207.01L186.99,-212.87L185.80,-290.04C192.30,-297.24 204.74,-301.11 213.80,-301.25C229.24,-301.49 240.15,-292.83 240.41,-276.18L241.37,-213.71L224.07,-207.32L224.13,-203.40L273.62,-204.16L273.56,-208.08L258.03,-213.96L256.92,-285.99C256.61,-306.07 242.24,-316.39 222.64,-316.09C208.92,-315.88 198.48,-310.08 186.42,-297.64L185.44,-297.63L183.45,-315.48L181.49,-315.45L152.98,-304.72L153.02,-302.03L169.08,-293.94L170.33,-212.61L154.99,-206.25ZM316.69,-350.86C324.04,-350.97 329.10,-356.44 328.99,-363.55C328.87,-370.89 323.65,-375.96 316.30,-375.85C309.20,-375.74 303.89,-370.51 304.00,-363.16C304.11,-356.06 309.58,-350.75 316.69,-350.86ZM297.13,-204.52L345.39,-205.26L345.33,-209.18L329.07,-215.06L327.49,-317.70L325.53,-317.67L295.05,-307.89L295.09,-305.44L311.16,-296.13L312.41,-214.80L297.07,-208.44ZM371.11,-205.66L420.60,-206.42L420.54,-210.34L403.05,-216.20L401.86,-293.36C408.37,-300.57 420.80,-304.44 429.87,-304.58C445.30,-304.81 456.22,-296.16 456.47,-279.50L457.43,-217.04L440.14,-210.64L440.20,-206.72L489.68,-207.49L489.62,-211.41L474.09,-217.29L472.98,-289.31C472.67,-309.40 458.30,-319.72 438.71,-319.41C424.99,-319.20 414.54,-313.41 402.48,-300.97L401.50,-300.95L399.51,-318.81L397.55,-318.78L369.05,-308.05L369.09,-305.36L385.14,-297.27L386.39,-215.94L371.05,-209.58ZM558.95,-244.33C582.71,-244.69 600.09,-261.38 599.75,-283.43C599.61,-292.49 596.03,-302.48 590.55,-308.03L591.27,-309.02L615.06,-307.67L614.88,-319.68L579.39,-317.17C573.47,-319.53 564.62,-321.35 557.76,-321.25C534.00,-320.88 516.62,-303.95 516.95,-282.15C517.17,-268.19 524.20,-256.78 535.33,-250.09L535.35,-248.86L521.75,-241.06C517.65,-237.08 516.01,-232.15 516.10,-226.27C516.25,-216.47 522.73,-209.22 534.29,-206.70L534.30,-205.97L518.31,-193.96C515.68,-189.51 514.29,-184.34 514.39,-178.22C514.64,-161.81 526.84,-149.25 556.97,-149.72C591.27,-150.24 613.00,-171.41 612.68,-191.98C612.39,-210.60 601.45,-220.72 579.41,-220.38L550.75,-219.94C536.78,-219.73 530.59,-223.80 530.45,-233.35C530.36,-238.99 533.22,-243.93 541.50,-247.24C546.68,-245.12 552.58,-244.23 558.95,-244.33ZM561.27,-252.20C545.60,-251.96 534.14,-263.79 533.84,-283.15C533.58,-300.54 541.71,-313.41 556.16,-313.63C570.86,-313.85 582.31,-302.27 582.62,-282.43C582.88,-265.03 574.75,-252.41 561.27,-252.20ZM529.29,-181.14C529.12,-192.41 531.93,-200.54 540.91,-206.07C541.90,-205.84 543.37,-205.86 544.59,-205.88L570.56,-206.28C590.65,-206.59 597.58,-202.04 597.81,-187.10C598.05,-171.42 582.60,-156.48 560.06,-156.13C542.91,-155.87 529.52,-166.45 529.29,-181.14Z" fill="#ffffff" stroke="#000000"/>
    <path d="M-709.14,-178.64L-659.69,-179.78L-659.80,-184.63L-680.79,-190.21L-663.22,-238.15L-603.34,-239.54L-583.33,-192.70L-604.04,-185.92L-603.93,-181.07L-547.44,-182.37L-547.55,-187.22L-563.21,-193.17L-628.02,-341.82L-636.50,-341.62L-695.09,-189.63L-709.25,-183.48ZM-659.12,-249.65L-635.38,-313.99L-608.21,-250.83ZM-463.07,-184.32L-402.22,-185.73C-365.61,-186.57 -338.92,-207.08 -339.53,-233.75C-340.02,-254.84 -357.57,-268.75 -386.51,-272.20C-365.80,-278.50 -354.76,-294.28 -355.15,-311.01C-355.70,-335.01 -380.70,-346.32 -412.46,-345.58L-466.77,-344.33L-466.66,-339.48L-447.34,-332.65L-444.20,-196.89L-463.18,-189.17ZM-414.87,-334.13C-389.41,-334.72 -375.59,-324.60 -375.12,-304.24C-374.69,-285.57 -388.98,-274.33 -412.02,-273.79L-427.05,-273.45L-428.44,-333.81ZM-403.99,-262.58C-376.60,-263.21 -360.13,-253.65 -359.60,-230.86C-359.16,-211.71 -375.32,-197.51 -400.78,-196.92L-425.27,-196.35L-426.78,-262.05ZM-262.28,-186.54C-243.13,-186.98 -228.57,-197.50 -221.60,-210.52L-221.66,-213.19L-222.39,-213.17C-232.16,-205.91 -243.47,-202.01 -255.11,-201.74C-285.17,-201.05 -298.25,-221.36 -298.84,-246.82C-298.86,-247.54 -298.87,-248.03 -298.89,-248.76L-223.49,-250.50L-222.54,-251.49C-224.25,-283.23 -239.94,-301.06 -265.40,-300.47C-292.55,-299.84 -315.71,-273.35 -314.91,-238.68C-314.18,-207.17 -294.76,-185.79 -262.28,-186.54ZM-268.84,-291.90C-252.35,-292.28 -242.88,-281.34 -238.97,-258.87L-298.36,-257.50C-295.95,-278.90 -284.35,-291.54 -268.84,-291.90ZM-149.69,-226.98C-126.18,-227.52 -109.10,-244.17 -109.60,-265.99C-109.81,-274.96 -113.43,-284.82 -118.89,-290.27L-118.19,-291.26L-94.63,-290.10L-94.91,-301.98L-130.02,-299.23C-135.89,-301.52 -144.66,-303.26 -151.45,-303.10C-174.97,-302.56 -192.04,-285.67 -191.54,-264.09C-191.22,-250.27 -184.17,-239.04 -173.11,-232.50L-173.08,-231.29L-186.48,-223.46C-190.51,-219.48 -192.10,-214.60 -191.96,-208.78C-191.74,-199.08 -185.27,-191.95 -173.81,-189.55L-173.79,-188.82L-189.53,-176.82C-192.09,-172.39 -193.43,-167.27 -193.29,-161.21C-192.91,-144.96 -180.74,-132.63 -150.92,-133.32C-116.98,-134.10 -95.64,-155.21 -96.11,-175.58C-96.54,-194.00 -107.44,-203.94 -129.26,-203.44L-157.62,-202.78C-171.44,-202.46 -177.60,-206.44 -177.82,-215.90C-177.95,-221.47 -175.15,-226.39 -166.98,-229.73C-161.84,-227.67 -156.00,-226.83 -149.69,-226.98ZM-147.45,-234.79C-162.96,-234.43 -174.39,-246.05 -174.83,-265.21C-175.23,-282.42 -167.28,-295.22 -152.97,-295.55C-138.43,-295.88 -127.01,-284.50 -126.55,-264.87C-126.16,-247.65 -134.11,-235.10 -147.45,-234.79ZM-178.56,-164.21C-178.82,-175.37 -176.10,-183.43 -167.25,-188.97C-166.27,-188.75 -164.82,-188.79 -163.61,-188.82L-137.91,-189.41C-118.03,-189.87 -111.13,-185.42 -110.79,-170.63C-110.43,-155.12 -125.61,-140.21 -147.92,-139.70C-164.89,-139.30 -178.23,-149.67 -178.56,-164.21ZM-47.97,-338.48C-40.69,-338.65 -35.72,-344.10 -35.89,-351.13C-36.06,-358.41 -41.26,-363.38 -48.54,-363.21C-55.57,-363.05 -60.78,-357.83 -60.62,-350.56C-60.45,-343.53 -55.00,-338.32 -47.97,-338.48ZM-66.20,-193.49L-18.44,-194.60L-18.53,-198.47L-34.67,-204.17L-37.02,-305.75L-38.96,-305.70L-69.05,-295.79L-69.00,-293.36L-53.02,-284.27L-51.16,-203.79L-66.29,-197.37ZM7.01,-195.18L55.98,-196.32L55.89,-200.19L38.54,-205.86L36.78,-282.22C43.16,-289.41 55.44,-293.33 64.41,-293.54C79.68,-293.89 90.55,-285.41 90.93,-268.92L92.36,-207.10L75.29,-200.64L75.38,-196.76L124.35,-197.90L124.26,-201.77L108.85,-207.48L107.20,-278.76C106.74,-298.64 92.44,-308.74 73.04,-308.29C59.47,-307.98 49.17,-302.16 37.33,-289.76L36.36,-289.73L34.25,-307.39L32.31,-307.35L4.19,-296.51L4.25,-293.84L20.20,-285.97L22.06,-205.48L6.92,-199.06ZM146.17,-198.40L195.14,-199.53L195.05,-203.41L177.70,-209.07L175.93,-285.44C182.32,-292.62 194.60,-296.54 203.57,-296.75C218.84,-297.10 229.71,-288.62 230.09,-272.14L231.52,-210.32L214.45,-203.86L214.54,-199.98L263.51,-201.11L263.42,-204.99L248.01,-210.70L246.36,-281.97C245.90,-301.85 231.60,-311.95 212.20,-311.51C198.63,-311.19 188.33,-305.37 176.49,-292.97L175.52,-292.95L173.41,-310.61L171.47,-310.56L143.34,-299.73L143.40,-297.06L159.35,-289.18L161.21,-208.69L146.08,-202.28ZM305.02,-346.64C312.29,-346.81 317.26,-352.26 317.10,-359.29C316.93,-366.56 311.72,-371.54 304.45,-371.37C297.42,-371.20 292.20,-365.99 292.37,-358.72C292.53,-351.69 297.99,-346.48 305.02,-346.64ZM286.78,-201.65L334.54,-202.75L334.45,-206.63L318.31,-212.32L315.96,-313.90L314.02,-313.86L283.93,-303.95L283.99,-301.52L299.97,-292.43L301.83,-211.94L286.69,-205.53ZM360.00,-203.34L408.97,-204.47L408.88,-208.35L391.53,-214.01L389.76,-290.38C396.15,-297.56 408.43,-301.49 417.40,-301.69C432.67,-302.05 443.54,-293.56 443.92,-277.08L445.35,-215.26L428.27,-208.80L428.36,-204.92L477.34,-206.05L477.25,-209.93L461.83,-215.64L460.19,-286.91C459.73,-306.79 445.42,-316.89 426.03,-316.45C412.45,-316.13 402.16,-310.32 390.32,-297.91L389.35,-297.89L387.24,-315.55L385.30,-315.51L357.17,-304.67L357.23,-302.00L373.18,-294.12L375.04,-213.63L359.91,-207.22ZM545.61,-243.04C569.13,-243.59 586.21,-260.23 585.70,-282.05C585.50,-291.02 581.87,-300.88 576.41,-306.34L577.12,-307.32L600.67,-306.17L600.40,-318.05L565.29,-315.30C559.41,-317.59 550.64,-319.33 543.85,-319.17C520.34,-318.63 503.26,-301.74 503.76,-280.16C504.08,-266.34 511.13,-255.10 522.20,-248.57L522.23,-247.36L508.82,-239.53C504.79,-235.55 503.21,-230.66 503.34,-224.85C503.57,-215.15 510.04,-208.02 521.49,-205.62L521.51,-204.89L505.78,-192.88C503.21,-188.46 501.87,-183.33 502.02,-177.27C502.39,-161.03 514.56,-148.70 544.38,-149.39C578.32,-150.17 599.66,-171.28 599.19,-191.65C598.77,-210.07 587.87,-220.01 566.05,-219.50L537.68,-218.85C523.86,-218.53 517.71,-222.51 517.49,-231.96C517.36,-237.54 520.16,-242.46 528.33,-245.80C533.47,-243.73 539.31,-242.90 545.61,-243.04ZM547.86,-250.86C532.34,-250.50 520.91,-262.12 520.47,-281.27C520.07,-298.49 528.03,-311.28 542.33,-311.61C556.88,-311.95 568.30,-300.57 568.75,-280.93C569.15,-263.72 561.19,-251.17 547.86,-250.86ZM516.74,-180.28C516.48,-191.43 519.21,-199.50 528.06,-205.04C529.03,-204.82 530.49,-204.85 531.70,-204.88L557.40,-205.48C577.28,-205.94 584.17,-201.49 584.51,-186.70C584.87,-171.18 569.69,-156.28 547.39,-155.76C530.42,-155.37 517.08,-165.73 516.74,-180.28Z" fill="#ffffff" stroke="#000000"/>
    <path d="M-708.84,-168.33L-659.90,-169.84L-660.05,-174.63L-680.87,-180.00L-663.84,-227.58L-604.59,-229.41L-584.44,-183.21L-604.88,-176.33L-604.73,-171.54L-548.84,-173.26L-548.98,-178.06L-564.53,-183.82L-629.80,-330.44L-638.19,-330.18L-695.01,-179.32L-708.99,-173.13ZM-659.87,-238.99L-636.87,-302.85L-609.50,-240.54ZM-465.36,-175.83L-405.14,-177.69C-368.92,-178.80 -342.66,-199.30 -343.47,-225.69C-344.12,-246.56 -361.59,-260.19 -390.26,-263.39C-369.80,-269.78 -359.00,-285.48 -359.51,-302.03C-360.24,-325.78 -385.08,-336.78 -416.50,-335.81L-470.23,-334.16L-470.09,-329.36L-450.91,-322.75L-446.77,-188.41L-465.50,-180.63ZM-418.79,-324.46C-393.60,-325.23 -379.85,-315.33 -379.23,-295.18C-378.66,-276.71 -392.72,-265.47 -415.51,-264.77L-430.38,-264.31L-432.23,-324.04ZM-407.49,-253.73C-380.38,-254.57 -364.01,-245.23 -363.31,-222.68C-362.73,-203.72 -378.62,-189.55 -403.81,-188.77L-428.03,-188.03L-430.04,-253.04ZM-266.66,-179.55C-247.71,-180.14 -233.38,-190.66 -226.58,-203.60L-226.66,-206.24L-227.38,-206.21C-237.00,-198.95 -248.16,-195.01 -259.68,-194.65C-289.42,-193.74 -302.53,-213.74 -303.30,-238.93C-303.33,-239.65 -303.34,-240.13 -303.36,-240.85L-228.76,-243.15L-227.83,-244.14C-229.76,-275.53 -245.42,-293.06 -270.61,-292.28C-297.48,-291.46 -320.20,-265.06 -319.14,-230.76C-318.18,-199.57 -298.80,-178.56 -266.66,-179.55ZM-273.95,-283.78C-257.64,-284.28 -248.18,-273.53 -244.14,-251.32L-302.91,-249.51C-300.68,-270.71 -289.30,-283.30 -273.95,-283.78ZM-155.54,-220.43C-132.27,-221.15 -115.50,-237.76 -116.16,-259.35C-116.44,-268.22 -120.10,-277.95 -125.55,-283.31L-124.86,-284.29L-101.53,-283.33L-101.90,-295.08L-136.62,-292.09C-142.45,-294.31 -151.15,-295.97 -157.86,-295.76C-181.13,-295.04 -197.90,-278.20 -197.24,-256.85C-196.82,-243.17 -189.76,-232.11 -178.76,-225.72L-178.72,-224.52L-191.92,-216.67C-195.88,-212.71 -197.42,-207.86 -197.24,-202.10C-196.94,-192.51 -190.48,-185.50 -179.13,-183.21L-179.11,-182.49L-194.58,-170.49C-197.09,-166.09 -198.37,-161.01 -198.19,-155.01C-197.69,-138.94 -185.55,-126.83 -156.05,-127.73C-122.46,-128.77 -101.50,-149.82 -102.12,-169.98C-102.69,-188.21 -113.55,-197.96 -135.14,-197.29L-163.21,-196.43C-176.88,-196.01 -183.00,-199.90 -183.29,-209.25C-183.46,-214.77 -180.73,-219.66 -172.67,-223.03C-167.57,-221.02 -161.78,-220.24 -155.54,-220.43ZM-153.38,-228.18C-168.73,-227.71 -180.13,-239.13 -180.71,-258.08C-181.24,-275.11 -173.47,-287.83 -159.31,-288.27C-144.92,-288.71 -133.53,-277.54 -132.93,-258.11C-132.41,-241.08 -140.19,-228.59 -153.38,-228.18ZM-183.64,-158.10C-183.98,-169.13 -181.34,-177.14 -172.63,-182.69C-171.66,-182.48 -170.22,-182.52 -169.02,-182.56L-143.60,-183.34C-123.92,-183.95 -117.07,-179.60 -116.62,-164.97C-116.14,-149.61 -131.05,-134.75 -153.12,-134.07C-169.91,-133.55 -183.19,-143.71 -183.64,-158.10ZM-55.72,-331.56C-48.52,-331.78 -43.65,-337.22 -43.86,-344.17C-44.08,-351.37 -49.28,-356.25 -56.47,-356.03C-63.43,-355.82 -68.55,-350.61 -68.33,-343.42C-68.12,-336.46 -62.68,-331.35 -55.72,-331.56ZM-72.66,-187.93L-25.41,-189.39L-25.52,-193.23L-41.54,-198.73L-44.64,-299.25L-46.56,-299.19L-76.26,-289.15L-76.19,-286.75L-60.31,-277.87L-57.85,-198.23L-72.78,-191.77ZM-0.22,-190.16L48.24,-191.66L48.12,-195.49L30.90,-200.97L28.58,-276.53C34.84,-283.69 46.96,-287.66 55.84,-287.94C70.95,-288.40 81.77,-280.09 82.27,-263.78L84.16,-202.61L67.31,-196.09L67.43,-192.25L115.89,-193.74L115.77,-197.58L100.47,-203.11L98.30,-273.64C97.69,-293.31 83.46,-303.19 64.27,-302.60C50.84,-302.19 40.69,-296.35 29.07,-283.99L28.11,-283.96L25.89,-301.42L23.97,-301.36L-3.79,-290.42L-3.71,-287.78L12.14,-280.11L14.59,-200.46L-0.34,-194.00ZM137.48,-194.41L185.93,-195.90L185.82,-199.74L168.60,-205.21L166.27,-280.77C172.53,-287.93 184.66,-291.91 193.53,-292.18C208.65,-292.65 219.47,-284.33 219.97,-268.02L221.85,-206.85L205.01,-200.33L205.13,-196.49L253.58,-197.98L253.46,-201.82L238.17,-207.35L235.99,-277.88C235.39,-297.55 221.16,-307.44 201.97,-306.85C188.53,-306.43 178.39,-300.60 166.76,-288.23L165.80,-288.20L163.58,-305.66L161.66,-305.60L133.91,-294.66L133.99,-292.03L149.83,-284.35L152.29,-204.71L137.36,-198.24ZM293.56,-342.32C300.75,-342.55 305.63,-347.98 305.41,-354.93C305.19,-362.13 300.00,-367.01 292.80,-366.79C285.85,-366.58 280.72,-361.38 280.94,-354.18C281.16,-347.22 286.60,-342.11 293.56,-342.32ZM276.61,-198.69L323.87,-200.15L323.75,-203.99L307.73,-209.50L304.64,-310.01L302.72,-309.95L273.01,-299.91L273.09,-297.51L288.97,-288.64L291.42,-208.99L276.49,-202.53ZM349.06,-200.93L397.51,-202.42L397.40,-206.26L380.18,-211.73L377.85,-287.29C384.11,-294.45 396.24,-298.43 405.11,-298.70C420.23,-299.16 431.05,-290.85 431.55,-274.54L433.43,-213.37L416.59,-206.85L416.71,-203.01L465.16,-204.50L465.04,-208.34L449.75,-213.87L447.57,-284.40C446.97,-304.07 432.74,-313.96 413.54,-313.37C400.11,-312.95 389.97,-307.12 378.34,-294.75L377.38,-294.72L375.16,-312.18L373.24,-312.12L345.49,-301.18L345.57,-298.54L361.41,-290.87L363.87,-211.23L348.94,-204.76ZM532.45,-241.63C555.72,-242.35 572.50,-258.96 571.83,-280.55C571.56,-289.42 567.90,-299.15 562.45,-304.51L563.14,-305.49L586.46,-304.53L586.10,-316.28L551.37,-313.29C545.54,-315.51 536.85,-317.17 530.13,-316.96C506.86,-316.24 490.09,-299.40 490.75,-278.05C491.17,-264.37 498.23,-253.31 509.24,-246.92L509.27,-245.72L496.07,-237.87C492.11,-233.91 490.58,-229.06 490.76,-223.30C491.05,-213.71 497.51,-206.70 508.87,-204.41L508.89,-203.69L493.41,-191.69C490.90,-187.29 489.62,-182.21 489.81,-176.21C490.30,-160.14 502.44,-148.03 531.95,-148.93C565.53,-149.97 586.49,-171.02 585.87,-191.18C585.31,-209.41 574.44,-219.16 552.85,-218.49L524.79,-217.63C511.11,-217.21 504.99,-221.10 504.70,-230.45C504.53,-235.97 507.26,-240.86 515.32,-244.23C520.43,-242.22 526.21,-241.44 532.45,-241.63ZM534.61,-249.38C519.26,-248.91 507.86,-260.33 507.28,-279.28C506.75,-296.31 514.53,-309.03 528.68,-309.47C543.07,-309.91 554.46,-298.74 555.06,-279.31C555.59,-262.28 547.81,-249.79 534.61,-249.38ZM504.36,-179.30C504.02,-190.33 506.65,-198.34 515.36,-203.89C516.33,-203.68 517.77,-203.72 518.97,-203.76L544.40,-204.54C564.07,-205.15 570.93,-200.80 571.38,-186.17C571.85,-170.81 556.94,-155.95 534.87,-155.27C518.08,-154.75 504.80,-164.91 504.36,-179.30Z" fill="#ffffff" stroke="#000000"/>
    <path d="M-708.31,-158.10L-659.89,-159.97L-660.07,-164.71L-680.71,-169.86L-664.23,-217.08L-605.61,-219.34L-585.32,-173.77L-605.49,-166.81L-605.31,-162.07L-550.01,-164.20L-550.19,-168.95L-565.62,-174.53L-631.32,-319.12L-639.63,-318.80L-694.71,-169.08L-708.49,-162.85ZM-660.39,-228.40L-638.11,-291.76L-610.55,-230.32ZM-467.42,-167.38L-407.85,-169.68C-372.02,-171.06 -346.19,-191.54 -347.19,-217.65C-347.99,-238.29 -365.38,-251.65 -393.77,-254.59C-373.58,-261.07 -363.01,-276.69 -363.65,-293.07C-364.55,-316.56 -389.21,-327.26 -420.29,-326.06L-473.46,-324.01L-473.27,-319.27L-454.25,-312.87L-449.13,-179.97L-467.60,-172.13ZM-422.48,-314.81C-397.56,-315.77 -383.87,-306.07 -383.11,-286.14C-382.40,-267.87 -396.23,-256.64 -418.78,-255.77L-433.49,-255.20L-435.77,-314.30ZM-410.75,-244.91C-383.93,-245.94 -367.66,-236.82 -366.80,-214.51C-366.08,-195.77 -381.69,-181.62 -406.61,-180.66L-430.58,-179.73L-433.06,-244.05ZM-270.83,-172.58C-252.08,-173.30 -237.98,-183.82 -231.35,-196.68L-231.45,-199.29L-232.16,-199.26C-241.63,-192.00 -252.64,-188.01 -264.04,-187.57C-293.46,-186.44 -306.58,-206.14 -307.54,-231.06C-307.57,-231.77 -307.59,-232.24 -307.61,-232.96L-233.81,-235.80L-232.89,-236.79C-235.04,-267.84 -250.68,-285.06 -275.60,-284.10C-302.18,-283.08 -324.46,-256.79 -323.15,-222.85C-321.96,-192.00 -302.63,-171.35 -270.83,-172.58ZM-278.84,-275.66C-262.70,-276.28 -253.26,-265.71 -249.09,-243.77L-307.23,-241.53C-305.19,-262.52 -294.03,-275.07 -278.84,-275.66ZM-161.18,-213.88C-138.16,-214.77 -121.69,-231.32 -122.51,-252.68C-122.85,-261.46 -126.55,-271.07 -131.98,-276.32L-131.30,-277.30L-108.22,-276.53L-108.67,-288.16L-143.01,-284.93C-148.79,-287.08 -157.41,-288.65 -164.06,-288.40C-187.08,-287.51 -203.54,-270.72 -202.73,-249.59C-202.21,-236.07 -195.13,-225.17 -184.20,-218.93L-184.15,-217.75L-197.16,-209.88C-201.05,-205.93 -202.52,-201.12 -202.30,-195.42C-201.94,-185.93 -195.49,-179.04 -184.24,-176.86L-184.21,-176.15L-199.44,-164.16C-201.88,-159.78 -203.11,-154.75 -202.89,-148.81C-202.27,-132.91 -190.17,-121.02 -160.98,-122.14C-127.75,-123.42 -107.17,-144.42 -107.94,-164.35C-108.63,-182.39 -119.46,-191.96 -140.82,-191.13L-168.59,-190.06C-182.11,-189.54 -188.20,-193.35 -188.56,-202.60C-188.77,-208.06 -186.10,-212.92 -178.15,-216.31C-173.09,-214.37 -167.35,-213.64 -161.18,-213.88ZM-159.10,-221.56C-174.29,-220.98 -185.66,-232.19 -186.38,-250.94C-187.03,-267.79 -179.43,-280.44 -165.43,-280.98C-151.19,-281.53 -139.84,-270.55 -139.10,-251.33C-138.45,-234.48 -146.05,-222.07 -159.10,-221.56ZM-188.51,-151.98C-188.93,-162.90 -186.38,-170.84 -177.80,-176.40C-176.85,-176.20 -175.42,-176.25 -174.23,-176.30L-149.08,-177.27C-129.62,-178.02 -122.80,-173.76 -122.24,-159.29C-121.66,-144.10 -136.30,-129.27 -158.13,-128.43C-174.74,-127.79 -187.96,-137.74 -188.51,-151.98ZM-63.25,-324.61C-56.13,-324.88 -51.35,-330.29 -51.61,-337.18C-51.89,-344.30 -57.06,-349.09 -64.18,-348.81C-71.06,-348.55 -76.09,-343.36 -75.82,-336.24C-75.55,-329.36 -70.13,-324.34 -63.25,-324.61ZM-78.92,-182.35L-32.17,-184.15L-32.32,-187.95L-48.21,-193.27L-52.04,-292.71L-53.94,-292.64L-83.25,-282.48L-83.16,-280.11L-67.38,-271.44L-64.35,-192.65L-79.07,-186.14ZM-7.25,-185.11L40.69,-186.95L40.54,-190.75L23.46,-196.04L20.58,-270.79C26.73,-277.92 38.69,-281.95 47.47,-282.29C62.43,-282.86 73.20,-274.72 73.82,-258.58L76.15,-198.07L59.53,-191.48L59.68,-187.69L107.61,-189.53L107.47,-193.33L92.29,-198.69L89.60,-268.46C88.85,-287.92 74.69,-297.60 55.71,-296.86C42.42,-296.35 32.42,-290.50 21.01,-278.18L20.06,-278.14L17.74,-295.40L15.84,-295.33L-11.55,-284.29L-11.45,-281.68L4.29,-274.21L7.33,-195.41L-7.40,-188.91ZM128.97,-190.36L176.91,-192.20L176.77,-196.00L159.69,-201.28L156.81,-276.04C162.95,-283.17 174.92,-287.20 183.70,-287.53C198.65,-288.11 209.42,-279.97 210.04,-263.83L212.37,-203.31L195.75,-196.73L195.90,-192.93L243.84,-194.78L243.69,-198.58L228.51,-203.94L225.82,-273.71C225.07,-293.17 210.92,-302.84 191.93,-302.11C178.64,-301.60 168.65,-295.75 157.24,-283.43L156.29,-283.39L153.96,-300.65L152.06,-300.58L124.68,-289.54L124.78,-286.93L140.52,-279.45L143.55,-200.66L128.83,-194.15ZM282.29,-337.92C289.41,-338.19 294.20,-343.61 293.93,-350.49C293.66,-357.61 288.48,-362.40 281.36,-362.12C274.48,-361.86 269.45,-356.67 269.72,-349.55C269.99,-342.67 275.41,-337.65 282.29,-337.92ZM266.62,-195.66L313.37,-197.46L313.23,-201.26L297.34,-206.59L293.51,-306.03L291.61,-305.95L262.29,-295.79L262.38,-293.42L278.16,-284.76L281.20,-205.97L266.48,-199.46ZM338.29,-198.42L386.23,-200.27L386.09,-204.06L369.01,-209.35L366.13,-284.11C372.27,-291.23 384.24,-295.26 393.02,-295.60C407.97,-296.17 418.74,-288.03 419.36,-271.90L421.69,-211.38L405.07,-204.80L405.22,-201.00L453.16,-202.85L453.01,-206.64L437.83,-212.00L435.14,-281.77C434.39,-301.23 420.24,-310.91 401.25,-310.18C387.96,-309.66 377.97,-303.81 366.56,-291.49L365.61,-291.45L363.28,-308.71L361.38,-308.64L334.00,-297.60L334.10,-294.99L349.83,-287.52L352.87,-208.73L338.15,-202.22ZM519.46,-240.10C542.48,-240.99 558.96,-257.55 558.13,-278.91C557.79,-287.69 554.10,-297.29 548.67,-302.55L549.34,-303.52L572.43,-302.75L571.98,-314.38L537.64,-311.15C531.85,-313.31 523.24,-314.88 516.59,-314.62C493.57,-313.73 477.10,-296.94 477.92,-275.81C478.44,-262.29 485.51,-251.39 496.45,-245.16L496.49,-243.97L483.49,-236.10C479.60,-232.15 478.12,-227.34 478.34,-221.64C478.71,-212.15 485.15,-205.27 496.41,-203.09L496.43,-202.37L481.21,-190.38C478.76,-186.01 477.53,-180.97 477.76,-175.03C478.37,-159.13 490.48,-147.24 519.67,-148.37C552.89,-149.65 573.47,-170.64 572.71,-190.58C572.01,-208.61 561.19,-218.18 539.83,-217.35L512.06,-216.29C498.53,-215.76 492.44,-219.57 492.09,-228.83C491.88,-234.28 494.54,-239.14 502.49,-242.54C507.56,-240.59 513.29,-239.86 519.46,-240.10ZM521.54,-247.79C506.35,-247.20 494.99,-258.41 494.27,-277.16C493.62,-294.01 501.21,-306.66 515.21,-307.20C529.45,-307.75 540.81,-296.78 541.55,-277.55C542.20,-260.70 534.59,-248.29 521.54,-247.79ZM492.14,-178.20C491.72,-189.12 494.26,-197.06 502.84,-202.62C503.80,-202.42 505.22,-202.47 506.41,-202.52L531.57,-203.49C551.03,-204.24 557.85,-199.99 558.40,-185.51C558.99,-170.32 544.35,-155.50 522.51,-154.65C505.90,-154.01 492.68,-163.96 492.14,-178.20Z" fill="#ffffff" stroke="#000000"/>
    <path d="M-707.54,-147.96L-659.65,-150.17L-659.87,-154.87L-680.32,-159.80L-664.38,-206.65L-606.39,-209.33L-585.97,-164.40L-605.87,-157.36L-605.66,-152.67L-550.96,-155.20L-551.18,-159.89L-566.48,-165.30L-632.59,-307.86L-640.81,-307.48L-694.16,-158.93L-707.75,-152.65ZM-660.66,-217.88L-639.10,-280.74L-611.36,-220.16ZM-469.27,-158.97L-410.34,-161.70C-374.90,-163.34 -349.50,-183.80 -350.69,-209.63C-351.63,-230.05 -368.94,-243.13 -397.06,-245.83C-377.13,-252.39 -366.79,-267.93 -367.54,-284.13C-368.62,-307.37 -393.09,-317.76 -423.85,-316.34L-476.43,-313.91L-476.21,-309.21L-457.34,-303.03L-451.26,-171.57L-469.48,-163.67ZM-425.92,-305.19C-401.27,-306.33 -387.66,-296.84 -386.75,-277.12C-385.91,-259.05 -399.51,-247.83 -421.81,-246.80L-436.36,-246.13L-439.06,-304.58ZM-413.79,-236.11C-387.26,-237.34 -371.09,-228.44 -370.07,-206.38C-369.21,-187.83 -384.55,-173.71 -409.20,-172.57L-432.91,-171.48L-435.85,-235.09ZM-274.79,-165.61C-256.24,-166.47 -242.38,-176.99 -235.91,-189.76L-236.03,-192.34L-236.73,-192.31C-246.04,-185.06 -256.91,-181.03 -268.18,-180.51C-297.29,-179.16 -310.42,-198.55 -311.56,-223.20C-311.59,-223.90 -311.61,-224.37 -311.65,-225.08L-238.64,-228.45L-237.74,-229.43C-240.10,-260.14 -255.71,-277.06 -280.36,-275.92C-306.65,-274.71 -328.49,-248.53 -326.94,-214.96C-325.53,-184.44 -306.24,-164.16 -274.79,-165.61ZM-283.50,-267.55C-267.54,-268.28 -258.12,-257.90 -253.82,-236.22L-311.33,-233.56C-309.47,-254.35 -298.52,-266.85 -283.50,-267.55ZM-166.62,-207.32C-143.85,-208.37 -127.67,-224.88 -128.65,-246.01C-129.05,-254.69 -132.78,-264.16 -138.20,-269.32L-137.53,-270.30L-114.69,-269.71L-115.22,-281.21L-149.17,-277.76C-154.91,-279.84 -163.45,-281.33 -170.02,-281.03C-192.80,-279.97 -208.96,-263.23 -207.99,-242.34C-207.37,-228.96 -200.29,-218.23 -189.42,-212.14L-189.37,-210.97L-202.18,-203.08C-206.00,-199.14 -207.42,-194.37 -207.16,-188.74C-206.73,-179.35 -200.30,-172.59 -189.15,-170.52L-189.11,-169.81L-204.09,-157.83C-206.47,-153.48 -207.65,-148.49 -207.38,-142.62C-206.65,-126.89 -194.59,-115.21 -165.71,-116.55C-132.85,-118.07 -112.64,-139.00 -113.55,-158.72C-114.38,-176.56 -125.16,-185.94 -146.29,-184.97L-173.76,-183.70C-187.14,-183.08 -193.19,-186.80 -193.62,-195.95C-193.86,-201.35 -191.26,-206.18 -183.42,-209.60C-178.40,-207.71 -172.72,-207.03 -166.62,-207.32ZM-164.62,-214.94C-179.64,-214.24 -190.97,-225.24 -191.83,-243.79C-192.60,-260.46 -185.18,-273.03 -171.33,-273.67C-157.25,-274.32 -145.93,-263.56 -145.05,-244.54C-144.28,-227.87 -151.70,-215.53 -164.62,-214.94ZM-193.18,-145.86C-193.68,-156.66 -191.22,-164.54 -182.77,-170.10C-181.82,-169.91 -180.42,-169.98 -179.24,-170.03L-154.36,-171.18C-135.11,-172.07 -128.33,-167.92 -127.67,-153.60C-126.97,-138.57 -141.35,-123.79 -162.94,-122.79C-179.38,-122.03 -192.53,-131.78 -193.18,-145.86ZM-70.56,-317.62C-63.52,-317.95 -58.83,-323.34 -59.14,-330.15C-59.47,-337.19 -64.62,-341.89 -71.67,-341.56C-78.47,-341.25 -83.41,-336.08 -83.08,-329.04C-82.77,-322.23 -77.37,-317.31 -70.56,-317.62ZM-84.98,-176.74L-38.74,-178.88L-38.91,-182.64L-54.67,-187.79L-59.22,-286.15L-61.10,-286.06L-90.03,-275.79L-89.92,-273.44L-74.24,-264.99L-70.64,-187.05L-85.16,-180.50ZM-14.09,-180.02L33.33,-182.21L33.16,-185.97L16.22,-191.07L12.80,-265.01C18.82,-272.11 30.63,-276.19 39.32,-276.59C54.11,-277.28 64.83,-269.30 65.57,-253.34L68.33,-193.48L51.94,-186.84L52.11,-183.08L99.53,-185.28L99.36,-189.03L84.30,-194.22L81.11,-263.23C80.22,-282.48 66.13,-291.95 47.35,-291.08C34.21,-290.47 24.36,-284.60 13.17,-272.32L12.23,-272.28L9.79,-289.34L7.92,-289.25L-19.09,-278.12L-18.98,-275.54L-3.35,-268.27L0.26,-190.33L-14.26,-183.78ZM120.66,-186.25L168.08,-188.44L167.90,-192.20L150.97,-197.30L147.55,-271.24C153.57,-278.35 165.38,-282.42 174.06,-282.82C188.85,-283.51 199.57,-275.53 200.31,-259.57L203.08,-199.71L186.68,-193.07L186.86,-189.31L234.28,-191.51L234.10,-195.26L219.04,-200.45L215.85,-269.46C214.96,-288.71 200.88,-298.18 182.10,-297.31C168.95,-296.70 159.11,-290.83 147.91,-278.55L146.97,-278.51L144.54,-295.57L142.66,-295.48L115.65,-284.36L115.77,-281.77L131.40,-274.50L135.00,-196.56L120.48,-190.01ZM271.24,-333.42C278.28,-333.75 282.97,-339.14 282.65,-345.95C282.33,-352.99 277.17,-357.69 270.13,-357.37C263.32,-357.05 258.38,-351.89 258.71,-344.84C259.03,-338.04 264.43,-333.11 271.24,-333.42ZM256.81,-192.55L303.06,-194.69L302.88,-198.44L287.12,-203.59L282.57,-301.95L280.69,-301.87L251.76,-291.59L251.87,-289.24L267.55,-280.79L271.16,-202.86L256.64,-196.30ZM327.71,-195.83L375.13,-198.02L374.95,-201.77L358.01,-206.87L354.59,-280.82C360.62,-287.92 372.43,-291.99 381.11,-292.40C395.90,-293.08 406.62,-285.11 407.36,-269.14L410.13,-209.28L393.73,-202.64L393.91,-198.89L441.33,-201.08L441.15,-204.84L426.09,-210.02L422.90,-279.04C422.01,-298.29 407.93,-307.75 389.15,-306.88C376.00,-306.27 366.16,-300.41 354.96,-288.13L354.02,-288.08L351.59,-305.15L349.71,-305.06L322.70,-293.93L322.82,-291.35L338.45,-284.07L342.05,-206.13L327.53,-199.58ZM506.64,-238.45C529.42,-239.50 545.59,-256.01 544.61,-277.14C544.21,-285.82 540.48,-295.30 535.07,-300.46L535.73,-301.43L558.57,-300.84L558.04,-312.34L524.09,-308.89C518.35,-310.97 509.81,-312.46 503.24,-312.16C480.47,-311.10 464.30,-294.36 465.27,-273.47C465.89,-260.09 472.97,-249.36 483.84,-243.27L483.89,-242.10L471.08,-234.21C467.26,-230.27 465.84,-225.50 466.10,-219.87C466.53,-210.48 472.96,-203.72 484.12,-201.65L484.15,-200.94L469.18,-188.96C466.79,-184.61 465.61,-179.62 465.88,-173.75C466.61,-158.02 478.67,-146.35 507.55,-147.68C540.41,-149.20 560.62,-170.13 559.71,-189.85C558.88,-207.69 548.10,-217.07 526.97,-216.10L499.50,-214.83C486.12,-214.21 480.07,-217.93 479.65,-227.08C479.40,-232.48 482.00,-237.31 489.84,-240.73C494.86,-238.84 500.54,-238.16 506.64,-238.45ZM508.64,-246.07C493.62,-245.37 482.29,-256.38 481.43,-274.92C480.66,-291.59 488.08,-304.16 501.93,-304.80C516.01,-305.46 527.33,-294.69 528.21,-275.67C528.98,-259.01 521.56,-246.66 508.64,-246.07ZM480.08,-176.99C479.58,-187.79 482.04,-195.67 490.49,-201.24C491.44,-201.04 492.84,-201.11 494.02,-201.16L518.90,-202.31C538.15,-203.20 544.93,-199.05 545.59,-184.73C546.29,-169.70 531.91,-154.92 510.32,-153.93C493.88,-153.17 480.73,-162.91 480.08,-176.99Z" fill="#ffffff" stroke="#000000"/>
    <path d="M-706.54,-137.90L-659.18,-140.46L-659.43,-145.10L-679.71,-149.83L-664.29,-196.29L-606.94,-199.39L-586.39,-155.09L-606.03,-147.98L-605.78,-143.34L-551.69,-146.26L-551.94,-150.90L-567.12,-156.13L-633.61,-296.67L-641.74,-296.23L-693.39,-148.86L-706.79,-142.54ZM-660.70,-207.43L-639.85,-269.79L-611.94,-210.06ZM-470.89,-150.62L-412.62,-153.76C-377.56,-155.65 -352.59,-176.09 -353.97,-201.63C-355.06,-221.83 -372.28,-234.64 -400.12,-237.09C-380.45,-243.74 -370.34,-259.19 -371.21,-275.21C-372.45,-298.19 -396.74,-308.29 -427.16,-306.65L-479.16,-303.84L-478.91,-299.20L-460.19,-293.22L-453.18,-163.21L-471.14,-155.26ZM-429.12,-295.60C-404.74,-296.92 -391.21,-287.63 -390.15,-268.13C-389.19,-250.26 -402.55,-239.06 -424.61,-237.87L-439.00,-237.09L-442.12,-294.90ZM-416.59,-227.36C-390.36,-228.77 -374.29,-220.09 -373.11,-198.27C-372.12,-179.93 -387.19,-165.84 -411.57,-164.53L-435.02,-163.26L-438.41,-226.18ZM-278.54,-158.67C-260.20,-159.66 -246.56,-170.17 -240.26,-182.85L-240.40,-185.41L-241.09,-185.37C-250.25,-178.12 -260.97,-174.05 -272.12,-173.45C-300.91,-171.90 -314.04,-190.98 -315.36,-215.36C-315.40,-216.05 -315.42,-216.52 -315.46,-217.21L-243.26,-221.11L-242.38,-222.09C-244.95,-252.45 -260.51,-269.07 -284.89,-267.76C-310.89,-266.36 -332.30,-240.29 -330.51,-207.09C-328.88,-176.91 -309.65,-156.99 -278.54,-158.67ZM-287.93,-259.45C-272.15,-260.30 -262.75,-250.09 -258.33,-228.68L-315.21,-225.61C-313.53,-246.19 -302.79,-258.64 -287.93,-259.45ZM-171.84,-200.75C-149.32,-201.96 -133.44,-218.42 -134.57,-239.31C-135.03,-247.90 -138.80,-257.25 -144.19,-262.31L-143.55,-263.28L-120.94,-262.87L-121.55,-274.24L-155.12,-270.57C-160.82,-272.59 -169.27,-274.00 -175.77,-273.65C-198.29,-272.43 -214.16,-255.74 -213.04,-235.08C-212.33,-221.85 -205.24,-211.29 -194.44,-205.35L-194.38,-204.19L-206.99,-196.29C-210.74,-192.36 -212.11,-187.63 -211.81,-182.06C-211.31,-172.77 -204.90,-166.13 -193.85,-164.17L-193.81,-163.47L-208.53,-151.50C-210.86,-147.18 -211.99,-142.23 -211.68,-136.43C-210.84,-120.88 -198.81,-109.42 -170.25,-110.96C-137.75,-112.71 -117.92,-133.57 -118.97,-153.07C-119.93,-170.72 -130.67,-179.92 -151.56,-178.79L-178.73,-177.33C-191.96,-176.61 -197.98,-180.24 -198.46,-189.30C-198.75,-194.64 -196.22,-199.43 -188.49,-202.88C-183.50,-201.05 -177.88,-200.42 -171.84,-200.75ZM-169.92,-208.30C-184.78,-207.50 -196.07,-218.30 -197.06,-236.64C-197.95,-253.12 -190.71,-265.62 -177.01,-266.36C-163.08,-267.11 -151.80,-256.55 -150.79,-237.74C-149.90,-221.26 -157.15,-208.99 -169.92,-208.30ZM-197.65,-139.75C-198.23,-150.43 -195.86,-158.24 -187.54,-163.81C-186.60,-163.63 -185.21,-163.70 -184.05,-163.77L-159.44,-165.09C-140.40,-166.12 -133.66,-162.06 -132.90,-147.90C-132.10,-133.04 -146.20,-118.31 -167.56,-117.16C-183.81,-116.28 -196.90,-125.82 -197.65,-139.75ZM-77.65,-310.61C-70.68,-310.98 -66.08,-316.35 -66.45,-323.09C-66.82,-330.05 -71.96,-334.66 -78.93,-334.29C-85.66,-333.92 -90.50,-328.77 -90.13,-321.81C-89.76,-315.08 -84.38,-310.24 -77.65,-310.61ZM-90.84,-171.12L-45.11,-173.59L-45.31,-177.31L-60.94,-182.28L-66.19,-279.56L-68.05,-279.46L-96.59,-269.07L-96.47,-266.75L-80.89,-258.51L-76.73,-181.43L-91.04,-174.84ZM-20.73,-174.91L26.17,-177.44L25.97,-181.15L9.17,-186.07L5.22,-259.20C11.13,-266.27 22.78,-270.39 31.37,-270.85C46.00,-271.64 56.66,-263.84 57.51,-248.05L60.71,-188.85L44.54,-182.15L44.74,-178.44L91.64,-180.97L91.44,-184.68L76.50,-189.70L72.81,-257.96C71.79,-276.99 57.78,-286.25 39.21,-285.25C26.21,-284.55 16.51,-278.67 5.53,-266.43L4.60,-266.38L2.06,-283.24L0.21,-283.14L-26.43,-271.93L-26.29,-269.37L-10.78,-262.29L-6.62,-185.21L-20.93,-178.62ZM112.53,-182.10L159.43,-184.63L159.23,-188.34L142.43,-193.26L138.48,-266.39C144.39,-273.46 156.04,-277.58 164.63,-278.04C179.26,-278.83 189.92,-271.03 190.78,-255.24L193.97,-196.04L177.80,-189.35L178.00,-185.63L224.90,-188.16L224.70,-191.88L209.76,-196.89L206.07,-265.15C205.05,-284.18 191.04,-293.44 172.47,-292.44C159.47,-291.74 149.77,-285.86 138.79,-273.62L137.86,-273.57L135.32,-290.43L133.47,-290.33L106.83,-279.12L106.97,-276.56L122.48,-269.48L126.64,-192.41L112.33,-185.81ZM260.38,-328.85C267.35,-329.22 271.95,-334.59 271.58,-341.33C271.21,-348.29 266.07,-352.90 259.10,-352.53C252.37,-352.16 247.53,-347.01 247.90,-340.05C248.26,-333.32 253.65,-328.48 260.38,-328.85ZM247.18,-189.36L292.92,-191.83L292.72,-195.55L277.08,-200.52L271.84,-297.80L269.98,-297.70L241.43,-287.31L241.56,-284.99L257.14,-276.75L261.30,-199.67L246.98,-193.08ZM317.30,-193.15L364.19,-195.68L363.99,-199.39L347.20,-204.31L343.25,-277.44C349.16,-284.51 360.81,-288.63 369.40,-289.09C384.02,-289.88 394.69,-282.08 395.54,-266.29L398.74,-207.09L382.57,-200.39L382.77,-196.68L429.66,-199.21L429.46,-202.92L414.52,-207.94L410.84,-276.20C409.81,-295.23 395.81,-304.49 377.24,-303.49C364.24,-302.79 354.54,-296.91 343.56,-284.67L342.63,-284.62L340.09,-301.48L338.23,-301.38L311.60,-290.17L311.73,-287.61L327.25,-280.53L331.41,-203.45L317.10,-196.86ZM494.00,-236.68C516.52,-237.89 532.40,-254.35 531.27,-275.24C530.81,-283.83 527.04,-293.18 521.65,-298.24L522.29,-299.21L544.90,-298.80L544.29,-310.17L510.72,-306.50C505.03,-308.52 496.57,-309.93 490.07,-309.58C467.55,-308.36 451.68,-291.67 452.80,-271.01C453.51,-257.78 460.60,-247.21 471.40,-241.28L471.46,-240.12L458.85,-232.22C455.10,-228.29 453.73,-223.56 454.03,-217.99C454.53,-208.70 460.94,-202.06 471.99,-200.10L472.03,-199.40L457.31,-187.43C454.98,-183.11 453.85,-178.16 454.16,-172.36C455.00,-156.80 467.03,-145.35 495.59,-146.89C528.09,-148.64 547.92,-169.50 546.87,-189.00C545.91,-206.65 535.17,-215.85 514.28,-214.72L487.12,-213.25C473.88,-212.54 467.87,-216.17 467.38,-225.23C467.09,-230.57 469.62,-235.36 477.35,-238.81C482.34,-236.98 487.97,-236.35 494.00,-236.68ZM495.92,-244.23C481.06,-243.43 469.77,-254.23 468.78,-272.57C467.89,-289.05 475.13,-301.55 488.83,-302.29C502.76,-303.04 514.04,-292.47 515.06,-273.67C515.95,-257.19 508.69,-244.92 495.92,-244.23ZM468.19,-175.68C467.61,-186.36 469.98,-194.17 478.30,-199.74C479.24,-199.56 480.63,-199.63 481.79,-199.69L506.40,-201.02C525.44,-202.05 532.18,-197.99 532.94,-183.83C533.74,-168.97 519.64,-154.24 498.28,-153.09C482.03,-152.21 468.94,-161.75 468.19,-175.68Z" fill="#ffffff" stroke="#000000"/>
    <path d="M-705.31,-127.94L-658.48,-130.83L-658.76,-135.42L-678.86,-139.94L-663.96,-186.02L-607.26,-189.52L-586.59,-145.86L-605.96,-138.67L-605.68,-134.08L-552.19,-137.38L-552.47,-141.97L-567.53,-147.04L-634.38,-285.55L-642.41,-285.06L-692.39,-138.87L-705.59,-132.53ZM-660.49,-197.07L-640.34,-258.92L-612.28,-200.04ZM-472.30,-142.31L-414.68,-145.86C-380.02,-148.00 -355.47,-168.41 -357.03,-193.67C-358.26,-213.64 -375.39,-226.18 -402.95,-228.39C-383.55,-235.12 -373.67,-250.48 -374.64,-266.32C-376.04,-289.05 -400.15,-298.85 -430.23,-296.99L-481.65,-293.82L-481.37,-289.23L-462.81,-283.46L-454.88,-154.91L-472.59,-146.90ZM-432.09,-286.05C-407.98,-287.54 -394.52,-278.46 -393.33,-259.17C-392.24,-241.50 -405.37,-230.32 -427.18,-228.97L-441.42,-228.09L-444.94,-285.26ZM-419.17,-218.64C-393.23,-220.24 -377.27,-211.77 -375.94,-190.19C-374.82,-172.06 -389.62,-158.01 -413.73,-156.52L-436.91,-155.09L-440.75,-217.31ZM-282.08,-151.74C-263.95,-152.86 -250.54,-163.36 -244.40,-175.96L-244.56,-178.48L-245.25,-178.44C-254.25,-171.20 -264.83,-167.09 -275.84,-166.41C-304.31,-164.66 -317.45,-183.43 -318.94,-207.54C-318.98,-208.23 -319.01,-208.68 -319.05,-209.37L-247.66,-213.78L-246.80,-214.75C-249.57,-244.77 -265.09,-261.09 -289.20,-259.61C-314.91,-258.02 -335.89,-232.07 -333.87,-199.24C-332.02,-169.40 -312.84,-149.84 -282.08,-151.74ZM-292.15,-251.36C-276.54,-252.32 -267.16,-242.30 -262.63,-221.15L-318.87,-217.68C-317.36,-238.05 -306.84,-250.45 -292.15,-251.36ZM-176.86,-194.18C-154.59,-195.55 -139.01,-211.95 -140.28,-232.61C-140.81,-241.11 -144.60,-250.32 -149.98,-255.29L-149.35,-256.25L-126.98,-256.02L-127.67,-267.27L-160.85,-263.38C-166.50,-265.33 -174.87,-266.66 -181.30,-266.26C-203.57,-264.89 -219.14,-248.26 -217.88,-227.83C-217.07,-214.74 -209.98,-204.35 -199.25,-198.56L-199.18,-197.41L-211.59,-189.50C-215.27,-185.59 -216.59,-180.90 -216.25,-175.39C-215.69,-166.21 -209.29,-159.69 -198.35,-157.83L-198.31,-157.14L-212.78,-145.18C-215.05,-140.90 -216.13,-135.99 -215.77,-130.25C-214.83,-114.87 -202.84,-103.63 -174.60,-105.37C-142.46,-107.35 -123.01,-128.14 -124.20,-147.42C-125.27,-164.87 -135.97,-173.89 -156.63,-172.61L-183.49,-170.96C-196.57,-170.15 -202.55,-173.70 -203.11,-182.65C-203.43,-187.93 -200.96,-192.69 -193.34,-196.16C-188.39,-194.39 -182.82,-193.81 -176.86,-194.18ZM-175.01,-201.67C-189.71,-200.76 -200.96,-211.36 -202.08,-229.49C-203.08,-245.79 -196.01,-258.21 -182.47,-259.05C-168.70,-259.90 -157.46,-249.53 -156.31,-230.93C-155.30,-214.64 -162.39,-202.45 -175.01,-201.67ZM-201.93,-133.64C-202.58,-144.20 -200.29,-151.95 -192.11,-157.52C-191.18,-157.35 -189.80,-157.43 -188.65,-157.50L-164.32,-159.00C-145.49,-160.17 -138.80,-156.20 -137.93,-142.20C-137.03,-127.51 -150.87,-112.83 -171.99,-111.52C-188.06,-110.53 -201.08,-119.87 -201.93,-133.64ZM-84.52,-303.57C-77.63,-304.00 -73.12,-309.34 -73.53,-316.00C-73.96,-322.89 -79.07,-327.41 -85.96,-326.99C-92.62,-326.58 -97.37,-321.44 -96.95,-314.56C-96.54,-307.90 -91.17,-303.16 -84.52,-303.57ZM-96.51,-165.49L-51.28,-168.28L-51.51,-171.95L-67.02,-176.76L-72.95,-272.95L-74.79,-272.83L-102.94,-262.34L-102.80,-260.04L-87.33,-252.01L-82.63,-175.80L-96.73,-169.17ZM-27.18,-169.77L19.19,-172.63L18.97,-176.30L2.31,-181.04L-2.15,-253.35C3.64,-260.39 15.14,-264.55 23.63,-265.08C38.09,-265.97 48.70,-258.33 49.67,-242.72L53.28,-184.18L37.33,-177.44L37.56,-173.76L83.93,-176.62L83.70,-180.30L68.89,-185.14L64.72,-252.63C63.56,-271.46 49.64,-280.51 31.27,-279.38C18.42,-278.58 8.87,-272.69 -1.90,-260.51L-2.82,-260.45L-5.46,-277.11L-7.29,-277.00L-33.56,-265.70L-33.40,-263.17L-18.00,-256.29L-13.30,-180.07L-27.41,-173.44ZM104.59,-177.90L150.96,-180.76L150.74,-184.43L134.08,-189.16L129.62,-261.48C135.41,-268.52 146.90,-272.68 155.40,-273.21C169.86,-274.10 180.47,-266.46 181.43,-250.85L185.05,-192.31L169.10,-185.56L169.33,-181.89L215.70,-184.75L215.47,-188.42L200.66,-193.27L196.49,-260.76C195.33,-279.59 181.41,-288.64 163.04,-287.50C150.19,-286.71 140.64,-280.82 129.87,-268.64L128.95,-268.58L126.31,-285.24L124.48,-285.12L98.21,-273.83L98.37,-271.30L113.77,-264.42L118.47,-188.20L104.36,-181.57ZM249.73,-324.19C256.62,-324.62 261.12,-329.96 260.71,-336.62C260.29,-343.51 255.17,-348.03 248.28,-347.61C241.63,-347.20 236.87,-342.06 237.30,-335.18C237.71,-328.52 243.07,-323.78 249.73,-324.19ZM237.74,-186.11L282.96,-188.90L282.73,-192.57L267.23,-197.38L261.30,-293.56L259.46,-293.45L231.30,-282.96L231.44,-280.66L246.92,-272.63L251.62,-196.41L237.51,-189.78ZM307.07,-190.39L353.44,-193.25L353.21,-196.92L336.56,-201.65L332.10,-273.97C337.88,-281.01 349.38,-285.17 357.87,-285.70C372.34,-286.59 382.95,-278.95 383.91,-263.34L387.52,-204.80L371.58,-198.05L371.80,-194.38L418.17,-197.24L417.95,-200.91L403.13,-205.76L398.97,-273.25C397.81,-292.08 383.88,-301.13 365.52,-299.99C352.66,-299.20 343.12,-293.31 332.35,-281.13L331.43,-281.07L328.79,-297.73L326.95,-297.61L300.69,-286.32L300.84,-283.79L316.25,-276.91L320.95,-200.69L306.84,-194.06ZM481.53,-234.79C503.80,-236.17 519.38,-252.57 518.11,-273.23C517.58,-281.72 513.79,-290.94 508.41,-295.90L509.04,-296.86L531.41,-296.63L530.72,-307.88L497.54,-303.99C491.89,-305.95 483.51,-307.27 477.09,-306.88C454.82,-305.50 439.25,-288.87 440.51,-268.44C441.32,-255.36 448.41,-244.96 459.14,-239.17L459.21,-238.03L446.79,-230.12C443.12,-226.20 441.79,-221.51 442.13,-216.00C442.70,-206.82 449.09,-200.30 460.04,-198.44L460.08,-197.75L445.61,-185.80C443.34,-181.51 442.26,-176.60 442.61,-170.87C443.56,-155.49 455.55,-144.24 483.78,-145.98C515.92,-147.97 535.38,-168.75 534.19,-188.04C533.11,-205.48 522.42,-214.50 501.76,-213.23L474.90,-211.57C461.81,-210.76 455.83,-214.31 455.28,-223.27C454.96,-228.55 457.43,-233.31 465.05,-236.77C470.00,-235.00 475.56,-234.43 481.53,-234.79ZM483.37,-242.28C468.68,-241.37 457.43,-251.97 456.31,-270.11C455.30,-286.41 462.37,-298.83 475.92,-299.66C489.69,-300.51 500.93,-290.14 502.08,-271.55C503.08,-255.25 496.00,-243.06 483.37,-242.28ZM456.46,-174.25C455.81,-184.81 458.10,-192.56 466.28,-198.13C467.21,-197.96 468.59,-198.05 469.74,-198.12L494.07,-199.62C512.90,-200.78 519.59,-196.81 520.46,-182.81C521.36,-168.12 507.52,-153.44 486.40,-152.14C470.33,-151.14 457.31,-160.48 456.46,-174.25Z" fill="#ffffff" stroke="#000000"/>
    <path d="M-703.86,-118.07L-657.56,-121.28L-657.87,-125.82L-677.78,-130.14L-663.40,-175.84L-607.34,-179.73L-586.56,-136.70L-605.67,-129.45L-605.36,-124.91L-552.48,-128.58L-552.79,-133.12L-567.73,-138.01L-634.90,-274.51L-642.84,-273.96L-691.16,-128.98L-704.17,-122.61ZM-660.05,-186.79L-640.59,-248.11L-612.39,-190.10ZM-473.50,-134.06L-416.53,-138.01C-382.26,-140.39 -358.14,-160.77 -359.87,-185.73C-361.24,-205.48 -378.28,-217.75 -405.56,-219.73C-386.42,-226.54 -376.76,-241.80 -377.85,-257.46C-379.41,-279.93 -403.33,-289.44 -433.06,-287.38L-483.90,-283.85L-483.58,-279.31L-465.18,-273.75L-456.36,-146.65L-473.81,-138.60ZM-434.81,-276.54C-410.98,-278.19 -397.60,-269.32 -396.27,-250.25C-395.06,-232.78 -407.97,-221.62 -429.53,-220.12L-443.60,-219.14L-447.52,-275.66ZM-421.53,-209.96C-395.88,-211.74 -380.03,-203.49 -378.55,-182.16C-377.30,-164.23 -391.84,-150.22 -415.67,-148.56L-438.59,-146.97L-442.86,-208.48ZM-285.42,-144.84C-267.49,-146.08 -254.31,-156.57 -248.34,-169.08L-248.51,-171.57L-249.19,-171.52C-258.04,-164.30 -268.47,-160.15 -279.36,-159.40C-307.51,-157.44 -320.65,-175.91 -322.30,-199.74C-322.35,-200.42 -322.38,-200.88 -322.43,-201.56L-251.84,-206.46L-251.00,-207.43C-253.97,-237.10 -269.45,-253.13 -293.28,-251.47C-318.70,-249.71 -339.26,-223.88 -337.00,-191.43C-334.95,-161.92 -315.83,-142.72 -285.42,-144.84ZM-296.13,-243.29C-280.70,-244.36 -271.35,-234.52 -266.71,-213.64L-322.31,-209.78C-320.98,-229.94 -310.66,-242.28 -296.13,-243.29ZM-181.67,-187.61C-159.65,-189.14 -144.37,-205.48 -145.78,-225.91C-146.37,-234.31 -150.19,-243.39 -155.55,-248.26L-154.93,-249.22L-132.80,-249.16L-133.57,-260.28L-166.36,-256.18C-171.96,-258.07 -180.26,-259.32 -186.61,-258.88C-208.63,-257.35 -223.90,-240.78 -222.49,-220.58C-221.60,-207.65 -214.50,-197.42 -203.85,-191.78L-203.77,-190.64L-215.99,-182.72C-219.60,-178.82 -220.87,-174.17 -220.49,-168.73C-219.86,-159.65 -213.49,-153.25 -202.65,-151.49L-202.60,-150.81L-216.82,-138.88C-219.04,-134.62 -220.07,-129.76 -219.67,-124.09C-218.62,-108.88 -206.68,-97.85 -178.76,-99.79C-146.99,-102.00 -127.90,-122.70 -129.22,-141.77C-130.42,-159.02 -141.07,-167.86 -161.50,-166.44L-188.05,-164.59C-200.99,-163.70 -206.93,-167.16 -207.54,-176.01C-207.90,-181.23 -205.50,-185.96 -197.98,-189.45C-193.08,-187.73 -187.57,-187.20 -181.67,-187.61ZM-179.90,-195.03C-194.43,-194.03 -205.64,-204.42 -206.88,-222.35C-208.00,-238.47 -201.10,-250.80 -187.71,-251.73C-174.10,-252.68 -162.90,-242.51 -161.62,-224.12C-160.50,-208.01 -167.42,-195.90 -179.90,-195.03ZM-206.00,-127.54C-206.73,-137.98 -204.52,-145.66 -196.47,-151.24C-195.55,-151.08 -194.19,-151.17 -193.05,-151.25L-168.99,-152.92C-150.38,-154.21 -143.73,-150.34 -142.77,-136.50C-141.76,-121.97 -155.34,-107.34 -176.22,-105.90C-192.11,-104.79 -205.06,-113.93 -206.00,-127.54ZM-91.17,-296.52C-84.36,-296.99 -79.94,-302.31 -80.39,-308.90C-80.87,-315.71 -85.96,-320.14 -92.77,-319.67C-99.35,-319.21 -104.02,-314.10 -103.54,-307.29C-103.09,-300.71 -97.75,-296.06 -91.17,-296.52ZM-101.97,-159.85L-57.26,-162.96L-57.52,-166.59L-72.89,-171.22L-79.49,-266.31L-81.31,-266.19L-109.08,-255.59L-108.92,-253.33L-93.55,-245.50L-88.32,-170.15L-102.23,-163.48ZM-33.43,-164.61L12.41,-167.79L12.16,-171.42L-4.35,-175.98L-9.31,-247.47C-3.64,-254.48 7.70,-258.68 16.09,-259.27C30.39,-260.26 40.95,-252.78 42.02,-237.35L46.03,-179.48L30.31,-172.68L30.57,-169.05L76.41,-172.24L76.16,-175.87L61.47,-180.55L56.84,-247.27C55.54,-265.88 41.70,-274.73 23.55,-273.47C10.84,-272.58 1.44,-266.69 -9.12,-254.55L-10.03,-254.49L-12.77,-270.95L-14.58,-270.82L-40.47,-259.44L-40.30,-256.95L-25.01,-250.26L-19.78,-174.91L-33.69,-168.24ZM96.84,-173.65L142.68,-176.84L142.43,-180.47L125.92,-185.02L120.96,-256.51C126.63,-263.52 137.97,-267.73 146.37,-268.31C160.66,-269.30 171.22,-261.83 172.29,-246.39L176.31,-188.52L160.59,-181.73L160.84,-178.10L206.68,-181.28L206.43,-184.91L191.74,-189.59L187.11,-256.32C185.82,-274.93 171.97,-283.77 153.82,-282.51C141.11,-281.63 131.71,-275.73 121.15,-263.60L120.24,-263.53L117.51,-279.99L115.69,-279.86L89.80,-268.49L89.97,-265.99L105.26,-259.30L110.49,-183.95L96.59,-177.28ZM239.28,-319.46C246.09,-319.93 250.51,-325.25 250.05,-331.84C249.58,-338.64 244.48,-343.08 237.67,-342.61C231.09,-342.15 226.43,-337.04 226.90,-330.23C227.36,-323.65 232.70,-319.00 239.28,-319.46ZM228.47,-182.79L273.18,-185.90L272.93,-189.53L257.56,-194.16L250.95,-289.25L249.14,-289.13L221.37,-278.53L221.53,-276.26L236.89,-268.44L242.12,-193.09L228.22,-186.42ZM297.01,-187.55L342.86,-190.73L342.60,-194.36L326.10,-198.92L321.13,-270.41C326.80,-277.42 338.14,-281.62 346.54,-282.21C360.84,-283.20 371.39,-275.72 372.46,-260.29L376.48,-202.42L360.76,-195.62L361.01,-191.99L406.86,-195.18L406.60,-198.81L391.91,-203.49L387.28,-270.21C385.99,-288.82 372.15,-297.67 353.99,-296.41C341.28,-295.52 331.89,-289.63 321.33,-277.49L320.42,-277.43L317.68,-293.89L315.86,-293.76L289.97,-282.38L290.14,-279.89L305.43,-273.20L310.66,-197.85L296.76,-191.18ZM469.24,-232.80C491.25,-234.33 506.54,-250.67 505.12,-271.10C504.54,-279.49 500.71,-288.58 495.36,-293.45L495.98,-294.41L518.10,-294.34L517.33,-305.47L484.55,-301.37C478.94,-303.26 470.65,-304.51 464.29,-304.06C442.28,-302.54 427.01,-285.97 428.41,-265.77C429.31,-252.83 436.40,-242.61 447.06,-236.96L447.14,-235.83L434.91,-227.91C431.31,-224.01 430.03,-219.36 430.41,-213.91C431.04,-204.84 437.42,-198.44 448.26,-196.68L448.30,-196.00L434.08,-184.07C431.87,-179.81 430.84,-174.95 431.23,-169.27C432.29,-154.07 444.23,-143.04 472.14,-144.98C503.92,-147.18 523.00,-167.89 521.68,-186.95C520.48,-204.20 509.83,-213.04 489.41,-211.62L462.85,-209.78C449.92,-208.88 443.98,-212.35 443.36,-221.20C443.00,-226.42 445.41,-231.15 452.92,-234.63C457.83,-232.92 463.34,-232.39 469.24,-232.80ZM471.00,-240.22C456.48,-239.21 445.27,-249.61 444.02,-267.54C442.90,-283.65 449.80,-295.99 463.19,-296.92C476.81,-297.86 488.00,-287.69 489.28,-269.31C490.40,-253.20 483.49,-241.09 471.00,-240.22ZM444.90,-172.73C444.18,-183.17 446.38,-190.85 454.43,-196.43C455.36,-196.26 456.72,-196.36 457.85,-196.43L481.91,-198.10C500.52,-199.40 507.17,-195.53 508.13,-181.68C509.14,-167.16 495.56,-152.53 474.68,-151.08C458.80,-149.98 445.85,-159.11 444.90,-172.73Z" fill="#ffffff" stroke="#000000"/>
    <path d="M-702.18,-108.30L-656.41,-111.83L-656.76,-116.32L-676.48,-120.44L-662.60,-165.74L-607.19,-170.01L-586.32,-127.62L-605.16,-120.30L-604.82,-115.81L-552.55,-119.85L-552.89,-124.33L-567.70,-129.06L-635.17,-263.54L-643.02,-262.93L-689.70,-119.19L-702.52,-112.79ZM-659.38,-176.59L-640.60,-237.39L-612.27,-180.23ZM-474.48,-125.87L-418.17,-130.21C-384.30,-132.83 -360.59,-153.16 -362.49,-177.84C-364.00,-197.36 -380.95,-209.36 -407.94,-211.12C-389.06,-217.99 -379.63,-233.16 -380.82,-248.64C-382.53,-270.85 -406.26,-280.07 -435.65,-277.81L-485.90,-273.93L-485.56,-269.44L-467.31,-264.08L-457.62,-138.45L-474.82,-130.36ZM-437.31,-267.07C-413.75,-268.89 -400.44,-260.21 -398.99,-241.37C-397.66,-224.10 -410.34,-212.96 -431.65,-211.32L-445.56,-210.24L-449.87,-266.10ZM-423.66,-201.33C-398.31,-203.28 -382.57,-195.25 -380.94,-174.16C-379.57,-156.44 -393.84,-142.47 -417.40,-140.65L-440.05,-138.91L-444.74,-199.70ZM-288.56,-137.96C-270.83,-139.33 -257.88,-149.80 -252.06,-162.21L-252.25,-164.68L-252.93,-164.63C-261.62,-157.41 -271.91,-153.23 -282.68,-152.40C-310.49,-150.26 -323.63,-168.43 -325.45,-191.98C-325.50,-192.65 -325.53,-193.10 -325.59,-193.78L-255.82,-199.16L-254.99,-200.13C-258.15,-229.44 -273.59,-245.18 -297.14,-243.36C-322.27,-241.42 -342.40,-215.72 -339.92,-183.64C-337.67,-154.48 -318.62,-135.64 -288.56,-137.96ZM-299.90,-235.25C-284.65,-236.43 -275.32,-226.77 -270.57,-206.14L-325.54,-201.90C-324.37,-221.85 -314.26,-234.14 -299.90,-235.25ZM-186.27,-181.06C-164.51,-182.74 -149.52,-199.01 -151.07,-219.20C-151.72,-227.50 -155.57,-236.46 -160.90,-241.24L-160.30,-242.19L-138.41,-242.29L-139.26,-253.29L-171.65,-248.98C-177.21,-250.81 -185.42,-251.98 -191.70,-251.50C-213.46,-249.82 -228.44,-233.32 -226.90,-213.35C-225.91,-200.56 -218.82,-190.50 -208.24,-185.00L-208.15,-183.88L-220.18,-175.96C-223.71,-172.07 -224.94,-167.47 -224.52,-162.08C-223.83,-153.11 -217.48,-146.83 -206.74,-145.17L-206.69,-144.50L-220.67,-132.59C-222.82,-128.36 -223.81,-123.55 -223.37,-117.94C-222.21,-102.91 -210.32,-92.09 -182.73,-94.22C-151.32,-96.64 -132.60,-117.27 -134.06,-136.11C-135.37,-153.16 -145.97,-161.82 -166.16,-160.27L-192.41,-158.24C-205.19,-157.25 -211.10,-160.64 -211.77,-169.38C-212.17,-174.54 -209.82,-179.24 -202.42,-182.74C-197.56,-181.09 -192.10,-180.61 -186.27,-181.06ZM-184.58,-188.41C-198.94,-187.30 -210.10,-197.50 -211.47,-215.22C-212.70,-231.15 -205.97,-243.40 -192.74,-244.42C-179.28,-245.46 -168.13,-235.49 -166.73,-217.32C-165.50,-201.39 -172.24,-189.36 -184.58,-188.41ZM-209.88,-121.46C-210.68,-131.78 -208.55,-139.39 -200.64,-144.97C-199.72,-144.81 -198.37,-144.92 -197.25,-145.00L-173.47,-146.84C-155.08,-148.26 -148.47,-144.48 -147.41,-130.80C-146.30,-116.44 -159.62,-101.87 -180.26,-100.28C-195.97,-99.07 -208.84,-108.00 -209.88,-121.46ZM-97.60,-289.45C-90.87,-289.97 -86.54,-295.27 -87.04,-301.77C-87.56,-308.50 -92.63,-312.85 -99.36,-312.33C-105.87,-311.83 -110.44,-306.74 -109.92,-300.01C-109.42,-293.50 -104.10,-288.95 -97.60,-289.45ZM-107.24,-154.21L-63.05,-157.62L-63.33,-161.21L-78.57,-165.67L-85.82,-259.67L-87.61,-259.53L-115.00,-248.84L-114.82,-246.60L-99.57,-238.97L-93.82,-164.49L-107.52,-157.80ZM-39.50,-159.43L5.82,-162.93L5.54,-166.52L-10.82,-170.90L-16.27,-241.56C-10.72,-248.54 0.47,-252.79 8.77,-253.43C22.90,-254.52 33.39,-247.20 34.57,-231.95L38.98,-174.74L23.49,-167.90L23.77,-164.32L69.08,-167.81L68.80,-171.40L54.24,-175.92L49.15,-241.87C47.73,-260.27 33.97,-268.91 16.03,-267.53C3.47,-266.56 -5.78,-260.65 -16.13,-248.57L-17.03,-248.50L-19.87,-264.76L-21.66,-264.62L-47.18,-253.17L-46.99,-250.70L-31.82,-244.20L-26.07,-169.72L-39.77,-163.02ZM89.27,-169.37L134.59,-172.87L134.31,-176.46L117.95,-180.84L112.50,-251.50C118.05,-258.47 129.23,-262.72 137.53,-263.36C151.67,-264.45 162.16,-257.14 163.34,-241.88L167.75,-184.68L152.26,-177.84L152.53,-174.25L197.85,-177.75L197.57,-181.34L183.01,-185.86L177.92,-251.81C176.50,-270.20 162.74,-278.85 144.80,-277.46C132.23,-276.49 122.98,-270.59 112.63,-258.51L111.74,-258.44L108.90,-274.69L107.11,-274.55L81.59,-263.11L81.78,-260.64L96.95,-254.14L102.69,-179.66L88.99,-172.96ZM229.03,-314.65C235.76,-315.17 240.09,-320.47 239.59,-326.98C239.07,-333.71 234.00,-338.05 227.27,-337.54C220.76,-337.03 216.19,-331.94 216.71,-325.21C217.21,-318.71 222.53,-314.15 229.03,-314.65ZM219.38,-179.41L263.58,-182.82L263.30,-186.41L248.06,-190.88L240.81,-284.87L239.02,-284.73L211.63,-274.04L211.80,-271.80L227.06,-264.18L232.81,-189.70L219.11,-183.00ZM287.13,-184.64L332.45,-188.13L332.17,-191.72L315.81,-196.10L310.36,-266.77C315.91,-273.74 327.09,-277.99 335.40,-278.63C349.53,-279.72 360.02,-272.41 361.20,-257.15L365.61,-199.95L350.12,-193.11L350.40,-189.52L395.71,-193.02L395.43,-196.61L380.87,-201.12L375.78,-267.08C374.36,-285.47 360.60,-294.11 342.66,-292.73C330.09,-291.76 320.85,-285.86 310.49,-273.77L309.60,-273.71L306.76,-289.96L304.97,-289.82L279.45,-278.37L279.64,-275.91L294.81,-269.40L300.56,-194.93L286.86,-188.23ZM457.12,-230.70C478.88,-232.38 493.87,-248.66 492.31,-268.85C491.67,-277.15 487.82,-286.10 482.49,-290.88L483.09,-291.83L504.97,-291.94L504.13,-302.93L471.74,-298.63C466.18,-300.46 457.96,-301.63 451.68,-301.14C429.92,-299.46 414.95,-282.96 416.49,-263.00C417.47,-250.21 424.57,-240.15 435.15,-234.65L435.24,-233.53L423.21,-225.60C419.67,-221.72 418.45,-217.11 418.86,-211.73C419.56,-202.75 425.91,-196.47 436.64,-194.82L436.70,-194.15L422.72,-182.24C420.56,-178.01 419.58,-173.19 420.01,-167.59C421.17,-152.56 433.07,-141.74 460.66,-143.87C492.07,-146.29 510.78,-166.92 509.33,-185.76C508.02,-202.81 497.42,-211.47 477.23,-209.91L450.98,-207.89C438.19,-206.90 432.29,-210.28 431.62,-219.03C431.22,-224.19 433.56,-228.88 440.97,-232.39C445.83,-230.73 451.29,-230.25 457.12,-230.70ZM458.81,-238.05C444.45,-236.95 433.28,-247.14 431.92,-264.86C430.69,-280.79 437.41,-293.05 450.65,-294.07C464.11,-295.11 475.26,-285.13 476.66,-266.96C477.89,-251.04 471.15,-239.01 458.81,-238.05ZM433.51,-171.11C432.71,-181.43 434.83,-189.04 442.75,-194.61C443.67,-194.46 445.01,-194.56 446.13,-194.65L469.91,-196.49C488.31,-197.90 494.92,-194.13 495.98,-180.44C497.08,-166.09 483.76,-151.52 463.13,-149.92C447.42,-148.71 434.55,-157.65 433.51,-171.11Z" fill="#ffffff" stroke="#000000"/>
    <path d="M-903.12,492.38C-899.47,492.38 -895.14,489.80 -895.14,485.43C-895.14,481.55 -897.23,480.07 -901.83,477.86C-905.32,476.15 -906.96,474.98 -906.96,472.28C-906.96,469.92 -905.32,468.10 -902.70,468.10C-901.03,468.10 -899.89,468.59 -898.33,469.88L-896.66,474.06L-896.01,474.06L-896.39,468.14C-898.41,467.11 -900.19,466.54 -902.51,466.54C-906.27,466.54 -909.85,470.00 -909.85,473.34C-909.85,476.76 -907.95,478.21 -904.49,479.95C-900.50,481.93 -897.99,482.73 -897.99,486.15C-897.99,489.11 -899.78,490.86 -902.93,490.86C-904.64,490.86 -906.27,490.37 -908.10,488.92L-910.07,484.55L-910.72,484.55L-910.34,490.63C-908.02,491.81 -906.16,492.38 -903.12,492.38ZM-891.07,500.74L-883.40,500.74L-883.40,500.13L-886.10,499.18L-886.10,491.77C-884.99,492.15 -883.70,492.38 -882.37,492.38C-877.58,492.38 -873.67,488.85 -873.67,482.61C-873.67,477.60 -876.44,474.52 -880.24,474.52C-882.30,474.52 -884.01,475.20 -885.94,476.84L-886.17,476.84L-886.40,474.52L-886.70,474.52L-891.15,476.12L-891.15,476.53L-888.68,477.83L-888.68,499.18L-891.07,500.13ZM-881.92,476.61C-878.88,476.61 -876.18,478.74 -876.18,483.60C-876.18,488.88 -878.50,490.90 -881.19,490.90C-883.09,490.90 -884.58,490.44 -886.10,489.34L-886.10,478.05C-884.84,477.10 -883.40,476.61 -881.92,476.61ZM-861.89,492.38C-858.89,492.38 -856.57,490.78 -855.43,488.77L-855.43,488.35L-855.54,488.35C-857.10,489.45 -858.89,490.02 -860.71,490.02C-865.42,490.02 -867.40,486.79 -867.40,482.80C-867.40,482.69 -867.40,482.61 -867.40,482.50L-855.58,482.50L-855.43,482.35C-855.58,477.37 -857.98,474.52 -861.97,474.52C-866.22,474.52 -869.95,478.59 -869.95,484.02C-869.95,488.96 -866.98,492.38 -861.89,492.38ZM-862.54,475.85C-859.95,475.85 -858.51,477.60 -857.98,481.13L-867.29,481.13C-866.83,477.79 -864.97,475.85 -862.54,475.85ZM-843.57,492.38C-840.57,492.38 -838.25,490.78 -837.11,488.77L-837.11,488.35L-837.23,488.35C-838.79,489.45 -840.61,490.02 -842.40,490.02C-847.07,490.02 -849.05,486.79 -849.05,482.80C-849.05,478.32 -846.96,475.85 -843.88,475.85C-842.09,475.85 -840.95,476.72 -840.04,477.94L-839.09,479.23L-838.86,479.23L-837.57,478.17C-837.27,477.94 -837.19,477.71 -837.19,477.45C-837.19,477.07 -837.49,476.69 -838.03,476.15C-839.01,475.24 -840.95,474.52 -842.97,474.52C-847.91,474.52 -851.59,478.51 -851.59,484.02C-851.59,488.96 -848.63,492.38 -843.57,492.38ZM-827.65,492.38C-825.37,492.38 -823.97,491.16 -823.47,490.14L-823.47,489.87L-823.55,489.83C-824.23,490.10 -825.11,490.29 -826.13,490.29C-827.73,490.29 -828.94,489.61 -828.94,488.20L-828.94,476.50L-823.93,476.50L-823.93,474.90L-828.94,474.90L-828.94,470.72L-829.25,470.72L-831.34,474.90L-834.72,476.19L-834.72,476.50L-831.53,476.50L-831.53,488.62C-831.53,491.01 -829.82,492.38 -827.65,492.38ZM-820.20,492L-812.45,492L-812.45,491.39L-815.23,490.44L-815.23,479.12C-814.20,477.67 -813.10,477.03 -811.84,477.03C-811.31,477.03 -810.82,477.10 -810.32,477.29L-809.18,477.79L-808.99,477.79L-808.39,476.27C-808.27,476.04 -808.27,475.85 -808.27,475.70C-808.27,475.32 -808.69,475.05 -809.22,474.82C-809.53,474.67 -810.10,474.52 -810.51,474.52C-811.84,474.52 -812.87,474.82 -815.15,477.83L-815.26,477.83L-815.53,474.52L-815.83,474.52L-820.28,476.12L-820.28,476.53L-817.81,477.83L-817.81,490.44L-820.20,491.39ZM-801.89,492.38C-799.76,492.38 -797.78,491.39 -796.45,490.10L-796.30,490.10C-795.96,491.43 -795.01,492.38 -793.34,492.38C-791.78,492.38 -790.72,491.51 -790.22,490.63L-790.22,490.56L-790.30,490.48L-791.97,490.48C-792.96,490.48 -793.53,490.25 -793.91,489.87L-793.91,478.66C-793.91,475.62 -796.30,474.52 -799.15,474.52C-800.67,474.52 -802.19,475.20 -803.60,476.12C-804.93,476.95 -805.57,478.13 -805.57,479.19C-805.57,480.03 -805.35,480.18 -804.59,480.18L-802.99,480.18L-802.80,479.99L-802.80,478.74C-802.80,477.07 -802.12,476.04 -800.06,476.04C-798.24,476.04 -796.45,477.48 -796.45,479.38L-796.45,482.31L-800.14,483.22C-804.36,484.25 -806.03,485.96 -806.03,488.43C-806.03,490.90 -804.28,492.38 -801.89,492.38ZM-803.48,487.71C-803.48,485.84 -802.61,484.63 -796.45,483.41L-796.45,489.38C-797.90,490.06 -799.19,490.37 -800.44,490.37C-802.38,490.37 -803.48,489.49 -803.48,487.71ZM-787.98,492L-780.49,492L-780.49,491.39L-783.00,490.44L-783.00,463.50L-783.31,463.50L-788.06,464.94L-788.06,465.32L-785.59,466.81L-785.59,490.44L-787.98,491.39ZM-776.92,483.34L-766.47,483.34L-766.47,481.13L-776.92,481.13ZM-762.10,492L-743.56,492L-743.56,483.72L-744.20,483.72L-746.48,490.21L-756.14,490.21L-756.14,468.82L-752.72,467.68L-752.72,466.92L-762.10,466.92L-762.10,467.68L-759.10,468.82L-759.10,490.10L-762.10,491.24ZM-735.31,469.35C-734.17,469.35 -733.37,468.52 -733.37,467.41C-733.37,466.27 -734.17,465.48 -735.31,465.48C-736.41,465.48 -737.25,466.27 -737.25,467.41C-737.25,468.52 -736.41,469.35 -735.31,469.35ZM-738.69,492L-731.21,492L-731.21,491.39L-733.72,490.44L-733.72,474.52L-734.02,474.52L-738.77,475.96L-738.77,476.34L-736.30,477.83L-736.30,490.44L-738.69,491.39ZM-719.81,486.45C-716.12,486.45 -713.39,483.91 -713.39,480.49C-713.39,479.08 -713.92,477.52 -714.75,476.65L-714.64,476.50L-710.95,476.76L-710.95,474.90L-716.46,475.20C-717.38,474.82 -718.74,474.52 -719.81,474.52C-723.49,474.52 -726.23,477.10 -726.23,480.49C-726.23,482.65 -725.17,484.44 -723.46,485.50L-723.46,485.69L-725.58,486.87C-726.23,487.48 -726.50,488.24 -726.50,489.15C-726.50,490.67 -725.51,491.81 -723.72,492.23L-723.72,492.34L-726.23,494.17C-726.65,494.85 -726.88,495.65 -726.88,496.60C-726.88,499.14 -725.01,501.12 -720.34,501.12C-715.02,501.12 -711.60,497.89 -711.60,494.70C-711.60,491.81 -713.27,490.21 -716.69,490.21L-721.14,490.21C-723.30,490.21 -724.25,489.57 -724.25,488.09C-724.25,487.21 -723.80,486.45 -722.51,485.96C-721.71,486.30 -720.80,486.45 -719.81,486.45ZM-719.43,485.24C-721.86,485.24 -723.61,483.37 -723.61,480.37C-723.61,477.67 -722.32,475.70 -720.07,475.70C-717.79,475.70 -716.05,477.52 -716.05,480.60C-716.05,483.30 -717.34,485.24 -719.43,485.24ZM-724.56,496.18C-724.56,494.43 -724.10,493.18 -722.70,492.34C-722.54,492.38 -722.32,492.38 -722.13,492.38L-718.10,492.38C-714.98,492.38 -713.92,493.10 -713.92,495.42C-713.92,497.85 -716.35,500.13 -719.85,500.13C-722.51,500.13 -724.56,498.46 -724.56,496.18ZM-707.08,492L-699.40,492L-699.40,491.39L-702.10,490.48L-702.10,478.47C-701.07,477.37 -699.14,476.80 -697.73,476.80C-695.34,476.80 -693.66,478.17 -693.66,480.75L-693.66,490.48L-696.36,491.39L-696.36,492L-688.69,492L-688.69,491.39L-691.08,490.44L-691.08,479.27C-691.08,476.15 -693.28,474.52 -696.32,474.52C-698.45,474.52 -700.09,475.39 -701.99,477.29L-702.10,477.29L-702.10,463.50L-702.40,463.50L-707.15,464.94L-707.15,465.32L-704.68,466.81L-704.68,490.44L-707.08,491.39ZM-679.49,492.38C-677.21,492.38 -675.80,491.16 -675.31,490.14L-675.31,489.87L-675.39,489.83C-676.07,490.10 -676.94,490.29 -677.97,490.29C-679.57,490.29 -680.78,489.61 -680.78,488.20L-680.78,476.50L-675.77,476.50L-675.77,474.90L-680.78,474.90L-680.78,470.72L-681.09,470.72L-683.18,474.90L-686.56,476.19L-686.56,476.50L-683.37,476.50L-683.37,488.62C-683.37,491.01 -681.66,492.38 -679.49,492.38Z"/>
</svg>