<?xml version="1.0"?>
<svg xmlns="http://www.w3.org/2000/svg" width="1920" height="1080" viewBox="-960 -540 1920 1080">
    <path d="M-535.88,-210L-535.88,-291.25L-442.88,-291.25L-442.88,-210L-419.13,-210L-419.13,-390L-442.88,-390L-442.88,-312.50L-535.88,-312.50L-535.88,-390L-559.63,-390L-559.63,-210ZM-355.51,-234.73L-368.62,-269.23L-272.13,-269.25L-270.88,-278.25L-285.76,-325.87L-330.86,-345.22L-374.97,-326.61L-391.55,-275.10L-374.97,-223.59L-330.86,-204.97L-293.72,-215.94L-276.63,-242.75L-294.14,-253.69L-307.78,-231.44L-329.59,-224.11ZM-367.88,-287.25L-353.75,-317.01L-330.88,-326.13L-305.38,-315.28L-295.13,-287.25ZM-224.38,-210L-224.38,-390L-246.88,-390L-246.88,-210ZM-169.38,-210L-169.38,-390L-191.88,-390L-191.88,-210ZM-83.63,-345.13L-128.39,-326.51L-145.59,-275.00L-128.38,-223.49L-83.63,-204.88L-38.87,-223.50L-21.65,-275.00L-38.86,-326.51ZM-83.63,-223.99L-110.69,-235.91L-122.63,-274.98L-110.68,-314.06L-83.63,-325.99L-56.55,-314.06L-44.59,-274.98L-56.55,-235.91ZM17.65,-210.11L13.73,-192.17L3.11,-183.60L9.88,-174.50L24.92,-187.51L30.11,-210.11L30.11,-217.58L30.11,-228.14L22.65,-235.61L12.09,-235.61L4.62,-228.14L4.62,-217.58L12.08,-210.11ZM160.63,-210L160.63,-390L136.88,-390L136.88,-210ZM210.75,-365.11L206.83,-347.17L196.21,-338.60L203.13,-329.50L218.01,-342.51L223.21,-365.11L223.21,-372.58L223.21,-383.14L215.74,-390.60L205.18,-390.60L205.18,-390.60L197.72,-383.14L197.72,-372.58L205.18,-365.11ZM255.45,-210L278.01,-210L278.01,-277.25L284.14,-310.56L310.69,-325.70L328.27,-317.60L334.05,-295.03L334.05,-210L356.55,-210L356.55,-285.25L364.60,-313.68L389.48,-325.70L408.57,-315.47L412.88,-292.48L412.88,-210L435.38,-210L435.38,-300.50L425.32,-333.36L394.33,-345.09L370.87,-339.45L353.05,-319.75L339.92,-338.68L316.23,-344.97L292.62,-339.87L275.76,-321.50L275.76,-340L255.51,-340ZM-934.50,15L-934.50,-44.50L-909.75,-70.50L-843.50,17L-823.75,2.25L-893.50,-87.25L-831,-152L-847.25,-167.02L-934.50,-73L-934.50,-165L-958.25,-165L-958.25,15ZM-732.39,-98.34L-715.50,-92.75L-708.75,-111.75L-730.77,-120.09L-752.25,-113.43L-767.25,-92.50L-767.25,-115L-787.50,-115L-787.50,13.73L-765,15L-765,-55.25L-756.77,-86.59ZM-674.18,-136.74L-666.05,-145.64L-666.03,-158.35L-674.32,-167.46L-685.88,-167.46L-693.95,-158.37L-693.95,-145.67L-685.74,-136.74ZM-668.75,15L-668.75,-115L-691.25,-115L-691.25,15ZM-622.64,-25.27L-641.76,-16.34L-629.03,9.17L-590.52,20.16L-553.77,11.01L-536.94,-20.13L-547.04,-46.80L-568.94,-58.06L-599.25,-66.25L-616.10,-73L-621.62,-83.38L-614.39,-96.21L-593.18,-100.91L-572.80,-95.35L-564.04,-78.81L-545.11,-87.74L-556.12,-109.52L-592.32,-120.13L-628.18,-110.92L-643.59,-80.85L-633.59,-56.99L-611.04,-46.22L-579,-37.75L-563.91,-30.17L-559.92,-18.13L-569.96,-3.03L-589.75,0.98L-613.65,-6.88ZM-457.80,16.74L-457.80,16.74L-460.39,-2.65L-470.47,-1.14L-481.31,-6.63L-483.25,-23L-483.25,-97.75L-461,-97.75L-461,-115L-483.25,-115L-483.25,-160L-505.75,-160L-505.75,-115L-524.25,-115L-524.25,-97.75L-505.75,-97.75L-505.75,-23L-500.62,8.39L-475.00,19.15ZM-415.43,-136.74L-407.30,-145.64L-407.28,-158.35L-415.57,-167.46L-427.13,-167.46L-435.20,-158.37L-435.20,-145.67L-426.99,-136.74ZM-410,15L-410,-115L-432.50,-115L-432.50,15ZM-298.15,-72.19L-371.46,-49.70L-386.38,-18.62L-372.99,10.90L-341.26,20.14L-317.98,15.62L-296.65,-0.04L-296.75,15L-275.75,15L-275.72,-68.86L-287.56,-107.03L-326.46,-120.13L-361.46,-111.58L-378.47,-86.21L-360.63,-75.24L-349.17,-95.00L-328.76,-101.75L-306.88,-95.35ZM-298.15,-52.30L-298.16,-19.38L-314.07,-5.45L-337.67,1.79L-354.61,-2.60L-362.39,-19.62L-352.36,-37.29ZM-241.87,15L-219.37,15L-219.37,-55.75L-209.61,-89.15L-184.18,-100.70L-163.10,-90.95L-157,-64.75L-157,15L-134.50,15L-134.50,-64.75L-143.02,-104.40L-179.60,-120.09L-203.90,-114.73L-221.62,-96.25L-221.62,-115L-241.87,-115ZM-29.61,15.07L39.79,15.07L89.93,4.83L108.90,-36.23L98.87,-63.77L70.91,-79.07L93.97,-95.08L100.43,-119.11L82.27,-155.19L36.20,-165.05L-29.61,-165.05ZM-5.64,-87.52L-5.69,-143.63L30.82,-143.63L62.11,-139.97L75.43,-116.07L62.59,-93.51L33.88,-87.52ZM-5.64,-6.14L-5.60,-66.33L36.48,-66.33L68.69,-60.45L83.13,-36.25L70.83,-11.20L39.79,-6.14ZM152.57,-136.74L160.70,-145.64L160.72,-158.35L152.43,-167.46L140.87,-167.46L132.80,-158.37L132.80,-145.67L141.01,-136.74ZM110.71,46.23L110.71,46.22L106.25,65.00L122.49,67.50L150.74,54.68L157.88,22.46L157.99,-115L135.50,-115L135.50,11.97L133.05,39.58L122.25,48ZM292.50,-94.01L303.01,-106.49L288.75,-118.75L279.49,-107.74L263.51,-117.19L243.74,-120.13L199.00,-101.51L181.79,-50.00L184.79,-25.20L194.51,-6.25L183.73,6.51L197.99,18.75L207.51,7.49L223.54,17.15L243.74,20.12L288.48,1.51L305.70,-50.00L302.55,-74.93ZM209.49,-24.51L205.81,-35.65L204.73,-50.00L216.68,-89.08L243.74,-101.01L255.80,-99.03L266.26,-92.01ZM277.49,-76.24L281.52,-64.72L282.76,-49.97L270.80,-10.90L243.74,1.02L231.22,-1.00L220.50,-8.25ZM384.61,-98.34L401.50,-92.75L408.25,-111.75L386.23,-120.09L364.75,-113.43L349.75,-92.50L349.75,-115L329.50,-115L329.50,13.73L352,15L352,-55.25L360.23,-86.59ZM425.13,15L447.63,15L447.63,-55.75L457.39,-89.15L482.82,-100.70L503.90,-90.95L510,-64.75L510,15L532.50,15L532.50,-64.75L523.98,-104.40L487.40,-120.09L463.10,-114.73L445.38,-96.25L445.38,-115L425.13,-115ZM643.85,-72.19L570.54,-49.70L555.62,-18.62L569.01,10.90L600.74,20.14L624.02,15.62L645.35,-0.04L645.25,15L666.25,15L666.28,-68.86L654.44,-107.03L615.54,-120.13L580.54,-111.58L563.53,-86.21L581.37,-75.24L592.83,-95.00L613.24,-101.75L635.12,-95.35ZM643.85,-52.30L643.84,-19.38L627.93,-5.45L604.33,1.79L587.39,-2.60L579.61,-19.62L589.64,-37.29ZM755.86,-98.34L772.75,-92.75L779.50,-111.75L757.48,-120.09L736.00,-113.43L721,-92.50L721,-115L700.75,-115L700.75,13.73L723.25,15L723.25,-55.25L731.48,-86.59ZM902,-165L879.50,-165L879.50,-101.48L865.41,-114.37L844.57,-119.57L802.35,-100.00L787.69,-49.45L802.35,1.11L844.57,20.68L866.62,14.62L882,-2.75L882,15L902,15ZM845.86,-100.45L871.65,-87.57L882.33,-49.45L870.69,-11.33L845.86,1.54L820.70,-11.33L810.65,-49.45L820.70,-87.57Z" fill="#ffffff" stroke="#000000"/>
    <path d="M-549.09,-168.18L-554.53,-248.43L-462.67,-254.66L-457.23,-174.41L-433.77,-176.00L-445.82,-353.79L-469.28,-352.20L-464.09,-275.65L-555.95,-269.42L-561.14,-345.97L-584.60,-344.38L-572.55,-166.59ZM-372.59,-204.68L-387.85,-237.88L-292.54,-244.36L-291.91,-253.34L-309.80,-299.38L-355.64,-315.47L-397.97,-294.13L-410.89,-242.14L-391.07,-192.37L-346.25,-176.94L-310.30,-190.26L-295.21,-217.89L-313.25,-227.51L-325.22,-204.63L-346.28,-195.93ZM-388.32,-255.73L-376.37,-286.07L-354.39,-296.61L-328.46,-287.61L-316.46,-260.60ZM-241.41,-189.04L-253.46,-366.83L-275.68,-365.32L-263.63,-187.53ZM-187.08,-192.72L-199.14,-370.51L-221.36,-369.00L-209.31,-191.21ZM-111.44,-331.93L-154.40,-310.55L-167.94,-258.52L-147.50,-208.79L-102.05,-193.40L-59.09,-214.79L-45.53,-266.81L-65.97,-316.54ZM-103.33,-212.28L-130.85,-222.24L-145.26,-260.03L-136.08,-299.43L-110.16,-313.03L-82.61,-303.06L-68.18,-265.26L-77.38,-225.86ZM-2.36,-205.35L-5.03,-187.36L-14.95,-178.19L-7.66,-169.66L6.33,-183.51L9.95,-206.19L9.45,-213.56L8.74,-223.99L0.87,-230.87L-9.56,-230.16L-16.44,-222.29L-15.73,-211.85L-7.86,-204.98ZM138.87,-214.81L126.82,-392.61L103.36,-391.02L115.41,-213.22ZM177.99,-371.38L175.32,-353.39L165.40,-344.22L172.85,-335.69L186.68,-349.54L190.30,-372.21L189.80,-379.59L189.09,-390.02L181.22,-396.89L170.79,-396.19L170.79,-396.19L163.91,-388.31L164.62,-377.88L172.49,-371.01ZM232.53,-221.16L254.81,-222.67L250.31,-289.10L254.14,-322.41L279.35,-339.14L297.26,-332.32L304.48,-310.41L310.17,-226.43L332.39,-227.93L327.36,-302.26L333.40,-330.88L357.17,-344.41L376.71,-335.59L382.50,-313.17L388.02,-231.70L410.25,-233.21L404.19,-322.60L392.06,-354.38L360.67,-363.89L337.87,-356.76L321.59,-336.10L307.34,-353.92L283.53,-358.55L260.55,-351.93L245.12,-332.65L243.88,-350.93L223.88,-349.57ZM-927.76,80.75L-931.74,21.98L-909.04,-5.36L-837.74,76.63L-819.22,60.74L-894.11,-22.99L-836.71,-91.13L-853.77,-104.88L-933.65,-6.17L-939.81,-97.04L-963.27,-95.45L-951.22,82.34ZM-735.72,-44.73L-718.66,-40.34L-713.26,-59.56L-735.57,-66.32L-756.35,-58.31L-769.76,-36.63L-771.26,-58.85L-791.27,-57.50L-782.65,69.65L-760.34,69.40L-765.04,0.01L-759.01,-31.50ZM-680.79,-86.55L-673.35,-95.89L-674.19,-108.45L-682.98,-116.89L-694.40,-116.12L-701.76,-106.60L-700.92,-94.06L-692.21,-85.78ZM-665.27,62.96L-673.97,-65.45L-696.20,-63.94L-687.49,64.46ZM-622.42,20.09L-640.71,30.19L-626.43,54.54L-587.65,62.82L-551.96,51.32L-537.42,19.43L-549.19,-6.24L-571.58,-15.89L-602.06,-21.95L-619.16,-27.49L-625.31,-37.38L-619.02,-50.52L-598.39,-56.59L-577.89,-52.47L-568.13,-36.72L-550.03,-46.80L-562.36,-67.57L-598.83,-75.63L-633.63,-64.13L-646.83,-33.41L-635.36,-10.50L-612.36,-1.38L-580.15,4.85L-564.74,11.32L-559.99,22.95L-568.90,38.53L-588.18,43.82L-612.31,37.65ZM-456.79,50.56L-456.79,50.55L-460.65,31.57L-470.50,33.74L-481.58,29.04L-484.59,13.00L-489.59,-60.83L-467.62,-62.32L-468.77,-79.36L-490.75,-77.87L-493.76,-122.32L-515.98,-120.81L-512.97,-76.36L-531.24,-75.12L-530.09,-58.08L-511.82,-59.32L-506.81,14.51L-499.64,45.17L-473.62,54.08ZM-425.21,-103.88L-417.78,-113.21L-418.61,-125.77L-427.41,-134.22L-438.82,-133.44L-446.19,-123.93L-445.34,-111.38L-436.63,-103.10ZM-409.69,45.63L-418.40,-82.77L-440.62,-81.27L-431.92,47.14ZM-305.05,-47.97L-375.96,-20.85L-388.61,10.84L-373.41,39.11L-341.45,46.11L-318.76,40.08L-298.74,23.19L-297.83,38.05L-277.09,36.64L-282.67,-46.19L-296.92,-83.10L-336.22,-93.43L-370.22,-82.64L-385.33,-56.45L-366.97,-46.81L-356.98,-67.09L-337.26,-75.13L-315.22,-70.27ZM-303.72,-28.33L-301.53,4.18L-316.31,19.01L-339.13,27.74L-356.16,24.54L-364.99,8.25L-356.26,-9.87ZM-243.62,34.38L-221.40,32.87L-226.14,-37.01L-218.74,-70.66L-194.39,-83.76L-172.92,-75.55L-165.14,-50.08L-159.80,28.69L-137.57,27.19L-142.91,-51.59L-153.98,-90.18L-191.16,-103.22L-214.81,-96.31L-231.07,-76.87L-232.33,-95.39L-252.33,-94.03ZM-33.96,20.23L34.59,15.59L83.42,2.12L99.41,-39.71L87.67,-66.24L59.02,-79.49L80.73,-96.84L85.50,-121.01L65.15,-155.43L18.98,-162.08L-46.02,-157.68ZM-17.16,-82.70L-20.96,-138.13L15.10,-140.57L46.25,-139.05L61.01,-116.33L49.84,-93.19L21.88,-85.35ZM-11.71,-2.32L-15.70,-61.78L25.86,-64.59L58.08,-60.94L73.95,-38.01L63.49,-12.44L33.17,-5.36ZM135.82,-141.91L143.25,-151.24L142.42,-163.80L133.62,-172.25L122.21,-171.47L114.85,-161.96L115.69,-149.41L124.40,-141.13ZM106.72,41.61L106.72,41.60L103.57,60.45L119.78,61.84L146.82,47.28L151.73,14.98L142.63,-120.80L120.41,-119.30L128.91,6.11L128.34,33.55L118.24,42.59ZM276.89,-109.07L286.43,-122.11L271.53,-133.26L263.12,-121.77L246.71,-130.03L226.98,-131.61L184.04,-110.23L170.48,-58.20L175.11,-33.90L185.98,-15.83L176.19,-2.51L191.09,8.62L199.74,-3.13L216.22,5.34L236.37,6.92L279.32,-14.46L292.88,-66.49L288.10,-90.91ZM199.56,-34.87L195.17,-45.63L193.14,-59.73L202.34,-99.13L228.26,-112.73L240.30,-111.58L251.10,-105.34ZM263.26,-90.52L268.00,-79.41L270.22,-64.92L261.02,-25.53L235.10,-11.95L222.59,-13.11L211.52,-19.55ZM367.58,-119.52L384.64,-115.13L390.03,-134.35L367.72,-141.11L346.95,-133.10L333.54,-111.42L332.03,-133.64L312.03,-132.29L320.65,-5.14L342.96,-5.39L338.26,-74.78L344.28,-106.29ZM415.19,-10.28L437.42,-11.79L432.68,-81.67L440.08,-115.32L464.43,-128.42L485.90,-120.21L493.68,-94.74L499.02,-15.97L521.25,-17.47L515.91,-96.24L504.84,-134.84L467.65,-147.88L444.01,-140.96L427.75,-121.53L426.49,-140.05L406.49,-138.69ZM625.40,-111.04L554.49,-83.92L541.83,-52.23L557.04,-23.96L588.99,-16.96L611.68,-22.99L631.70,-39.88L632.61,-25.02L653.36,-26.43L647.77,-109.26L633.52,-146.17L594.22,-156.50L560.22,-145.72L545.12,-119.52L563.48,-109.88L573.47,-130.16L593.18,-138.20L615.22,-133.35ZM626.73,-91.40L628.92,-58.89L614.14,-44.06L591.32,-35.33L574.29,-38.53L565.46,-54.82L574.19,-72.95ZM734.28,-144.38L751.34,-139.99L756.73,-159.21L734.42,-165.97L713.65,-157.95L700.24,-136.28L698.73,-158.50L678.73,-157.14L687.35,-29.99L709.66,-30.24L704.95,-99.63L710.98,-131.14ZM874.16,-220.01L851.94,-218.50L856.19,-155.76L841.41,-167.54L820.47,-171.29L780.09,-149.13L768.99,-98.22L786.86,-49.26L829.86,-32.76L851.24,-40.22L865.27,-58.41L866.46,-40.87L886.21,-42.21ZM823.04,-152.49L849.36,-141.49L862.47,-104.55L853.52,-66.13L829.86,-51.75L804.15,-62.78L791.67,-99.75L799.04,-138.08Z" fill="#ffffff" stroke="#000000"/>
    <path d="M-558.99,-125.63L-569.73,-204.53L-479.43,-216.83L-468.68,-137.93L-445.62,-141.07L-469.42,-315.86L-492.49,-312.72L-482.24,-237.46L-572.54,-225.16L-582.79,-300.42L-605.85,-297.28L-582.05,-122.49ZM-387.11,-173.50L-404.41,-205.26L-310.71,-218.05L-310.69,-226.95L-331.44,-271.23L-377.80,-284.05L-418.17,-260.14L-427.45,-207.93L-404.54,-160.11L-359.25,-147.87L-324.63,-163.43L-311.58,-191.72L-330.03,-200.02L-340.33,-176.62L-360.54,-166.62ZM-406.07,-222.86L-396.29,-253.63L-375.29,-265.51L-349.09,-258.35L-335.43,-232.48ZM-256.51,-166.83L-280.31,-341.62L-302.16,-338.64L-278.36,-163.85ZM-203.10,-174.10L-226.91,-348.89L-248.76,-345.91L-224.95,-171.13ZM-137.71,-316.65L-178.71,-292.66L-188.60,-240.37L-165.08,-192.63L-119.16,-180.47L-78.16,-204.47L-68.25,-256.76L-91.77,-304.50ZM-121.69,-199.03L-149.54,-207.02L-166.30,-243.38L-159.87,-282.91L-135.18,-298.07L-107.31,-290.07L-90.53,-253.70L-96.98,-214.18ZM-21.50,-198.95L-22.94,-181.00L-32.12,-171.28L-24.35,-163.34L-11.46,-177.96L-9.41,-200.60L-10.39,-207.84L-11.79,-218.10L-20.03,-224.36L-30.28,-222.97L-36.55,-214.73L-35.15,-204.47L-26.91,-198.21ZM117.34,-217.75L93.53,-392.53L70.47,-389.39L94.28,-214.61ZM145.50,-374.99L144.06,-357.05L134.88,-347.33L142.80,-339.41L155.54,-354.01L157.60,-376.64L156.61,-383.89L155.21,-394.15L146.98,-400.41L136.72,-399.01L136.72,-399.01L130.46,-390.78L131.85,-380.52L140.09,-374.26ZM209.42,-230.29L231.32,-233.27L222.43,-298.57L223.98,-331.73L247.76,-349.94L265.90,-344.40L274.50,-323.25L285.75,-240.68L307.59,-243.66L297.64,-316.73L301.69,-345.40L324.27,-360.36L344.16,-352.95L351.37,-331.20L362.28,-251.11L384.13,-254.08L372.16,-341.96L358.05,-372.54L326.41,-379.83L304.38,-371.26L289.68,-349.77L274.42,-366.41L250.59,-369.39L228.34,-361.31L214.39,-341.24L211.94,-359.21L192.28,-356.53ZM-916.31,145.57L-924.18,87.79L-903.58,59.27L-827.68,135.48L-810.45,118.54L-890.02,40.86L-837.89,-30.28L-855.66,-42.72L-927.95,60.12L-940.11,-29.21L-963.18,-26.07L-939.37,148.71ZM-735.04,8.78L-717.90,11.98L-713.86,-7.36L-736.35,-12.55L-756.33,-3.24L-768.12,19.07L-771.09,-2.78L-790.76,-0.10L-773.73,124.89L-751.72,123.15L-761.01,54.94L-757.17,23.41ZM-683.59,-36.20L-676.88,-45.92L-678.54,-58.26L-687.79,-66.01L-699.02,-64.49L-705.65,-54.59L-703.97,-42.26L-694.82,-34.67ZM-658.25,110.42L-675.45,-15.81L-697.30,-12.83L-680.10,113.40ZM-618.81,65.22L-636.19,76.42L-620.46,99.51L-581.60,105.09L-547.13,91.34L-534.90,58.88L-548.25,34.31L-571.00,26.28L-601.51,22.34L-618.77,18.01L-625.50,8.66L-620.17,-4.75L-600.20,-12.13L-579.68,-9.42L-568.99,5.48L-551.79,-5.69L-565.36,-25.38L-601.91,-30.89L-635.52,-17.21L-646.50,14.02L-633.64,35.87L-610.31,43.34L-578.08,47.33L-562.42,52.70L-556.96,63.86L-564.71,79.85L-583.40,86.37L-607.65,81.89ZM-453.19,84.22L-453.18,84.21L-458.27,65.73L-467.85,68.53L-479.11,64.63L-483.15,48.99L-493.04,-23.59L-471.43,-26.54L-473.72,-43.29L-495.32,-40.34L-501.27,-84.04L-523.12,-81.06L-517.17,-37.37L-535.13,-34.92L-532.85,-18.17L-514.89,-20.62L-505.00,51.97L-495.87,81.77L-469.57,88.83ZM-432.34,-70.42L-425.62,-80.14L-427.28,-92.48L-436.54,-100.24L-447.76,-98.71L-454.39,-88.82L-452.72,-76.48L-443.56,-68.89ZM-407.00,76.20L-424.19,-50.03L-446.04,-47.06L-428.85,79.18ZM-309.92,-23.25L-378.13,8.28L-388.51,40.43L-371.60,67.33L-339.57,72.10L-317.57,64.63L-298.92,46.61L-297.03,61.23L-276.64,58.45L-287.70,-22.99L-304.24,-58.48L-343.75,-66.06L-376.61,-53.13L-389.77,-26.24L-370.99,-17.95L-362.48,-38.65L-343.55,-47.91L-321.46,-44.59ZM-307.29,-3.94L-302.95,28.02L-316.55,43.66L-338.51,53.81L-355.54,51.79L-365.35,36.29L-357.94,17.81ZM-243.74,53.97L-221.89,50.99L-231.25,-17.71L-226.19,-51.44L-203.02,-66.01L-181.27,-59.33L-171.87,-34.70L-161.33,42.74L-139.48,39.77L-150.03,-37.67L-163.54,-75.05L-201.14,-85.44L-224.03,-77.03L-238.79,-56.74L-241.27,-74.95L-260.93,-72.27ZM-37.62,25.96L29.78,16.78L77.10,0.21L90.09,-42.17L76.72,-67.58L47.54,-78.75L67.82,-97.34L70.91,-121.53L48.50,-154.17L2.47,-157.64L-61.44,-148.94ZM-27.91,-76.82L-35.38,-131.31L0.07,-136.14L30.94,-136.72L47.04,-115.27L37.55,-91.66L10.47,-82.05ZM-17.15,2.20L-25.07,-56.26L15.79,-61.82L47.85,-60.37L65.07,-38.78L56.44,-12.83L26.97,-3.81ZM119.21,-145.54L125.93,-155.26L124.27,-167.60L115.01,-175.36L103.79,-173.83L97.15,-163.94L98.83,-151.60L107.99,-144.01ZM102.76,37.66L102.76,37.65L100.91,56.48L117.01,56.76L142.74,40.58L145.42,8.34L127.34,-125.15L105.50,-122.18L122.30,1.11L123.57,28.25L114.20,37.85ZM260.74,-122.56L269.29,-136.07L253.82,-146.09L246.29,-134.17L229.52,-141.23L209.94,-141.47L168.95,-117.48L159.05,-65.18L165.25,-41.50L177.19,-24.38L168.41,-10.56L183.87,-0.57L191.64,-12.76L208.47,-5.49L228.49,-5.29L269.47,-29.28L279.37,-81.57L273.02,-105.36ZM189.33,-44.09L184.28,-54.43L181.33,-68.22L187.77,-107.75L212.47,-122.91L224.43,-122.58L235.52,-117.14ZM248.51,-103.31L253.94,-92.67L257.10,-78.51L250.66,-38.98L225.96,-23.84L213.53,-24.14L202.16,-29.76ZM349.60,-138.95L366.74,-135.75L370.79,-155.09L348.30,-160.28L328.32,-150.97L316.53,-128.66L313.55,-150.51L293.89,-147.83L310.91,-22.83L332.93,-24.58L323.64,-92.79L327.48,-124.32ZM403.94,-34.25L425.79,-37.22L416.43,-105.92L421.49,-139.65L444.66,-154.22L466.41,-147.54L475.81,-122.91L486.35,-45.47L508.20,-48.45L497.65,-125.89L484.14,-163.26L446.54,-173.66L423.65,-165.24L408.89,-144.95L406.41,-163.16L386.75,-160.48ZM604.80,-147.83L536.58,-116.30L526.21,-84.15L543.11,-57.25L575.14,-52.48L597.15,-59.95L615.79,-77.97L617.69,-63.36L638.08,-66.14L627.02,-147.57L610.47,-183.07L570.96,-190.64L538.11,-177.71L524.94,-150.83L543.72,-142.54L552.23,-163.23L571.16,-172.50L593.26,-169.18ZM607.43,-128.52L611.77,-96.56L598.16,-80.92L576.21,-70.77L559.18,-72.80L549.36,-88.29L556.77,-106.78ZM710.10,-188.05L727.24,-184.85L731.28,-204.19L708.80,-209.38L688.82,-200.07L677.02,-177.76L674.05,-199.61L654.38,-196.93L671.41,-71.93L693.43,-73.67L684.13,-141.89L687.98,-173.42ZM843.19,-272.10L821.34,-269.13L829.74,-207.45L814.36,-218.09L793.43,-220.39L755.03,-195.80L747.48,-144.78L768.40,-97.63L811.98,-84.21L832.59,-93.01L845.23,-111.91L847.58,-94.67L867.00,-97.32ZM797.22,-202.00L823.96,-192.90L839.37,-157.29L833.11,-118.74L810.71,-102.96L784.57,-112.13L769.77,-147.81L774.49,-186.16Z" fill="#ffffff" stroke="#000000"/>
    <path d="M-565.54,-82.62L-581.43,-159.81L-493.08,-178.01L-477.18,-100.81L-454.62,-105.46L-489.83,-276.47L-512.39,-271.83L-497.23,-198.20L-585.59,-180.00L-600.75,-253.63L-623.31,-248.99L-588.10,-77.98ZM-399.01,-141.40L-418.22,-171.61L-326.55,-190.51L-327.12,-199.30L-350.58,-241.63L-397.21,-251.19L-435.48,-224.88L-441.15,-172.70L-415.33,-127.00L-369.78,-117.95L-336.64,-135.64L-325.64,-164.45L-344.42,-171.41L-353.02,-147.61L-372.31,-136.38ZM-421.04,-188.88L-413.44,-219.91L-393.50,-233.05L-367.14,-227.74L-351.92,-203.11ZM-269.59,-143.55L-304.80,-314.57L-326.18,-310.17L-290.97,-139.15ZM-217.34,-154.31L-252.55,-325.33L-273.92,-320.92L-238.71,-149.91ZM-162.31,-299.46L-201.19,-273.02L-207.45,-220.72L-181.03,-175.15L-134.87,-166.22L-95.99,-192.67L-89.71,-244.96L-116.13,-290.54ZM-138.61,-184.38L-166.65,-190.41L-185.63,-225.19L-181.93,-264.66L-158.56,-281.28L-130.51,-275.25L-111.50,-240.46L-115.22,-201.00ZM-39.67,-191.00L-39.88,-173.19L-48.30,-162.97L-40.09,-155.65L-28.35,-170.95L-27.83,-193.44L-29.29,-200.53L-31.36,-210.57L-39.91,-216.20L-49.94,-214.13L-55.58,-205.58L-53.51,-195.55L-44.96,-189.91ZM96.19,-218.86L60.98,-389.88L38.41,-385.23L73.62,-214.22ZM113.47,-376.03L113.25,-358.22L104.84,-348.00L113.19,-340.71L124.79,-355.98L125.30,-378.47L123.84,-385.57L121.78,-395.60L113.23,-401.23L103.19,-399.17L103.19,-399.17L97.56,-390.61L99.62,-380.58L108.18,-374.95ZM186.28,-237.41L207.71,-241.82L194.55,-305.72L193.87,-338.56L216.13,-358.14L234.42,-353.88L244.32,-333.57L260.96,-252.79L282.33,-257.19L267.61,-328.68L269.69,-357.27L290.99,-373.55L311.12,-367.57L319.71,-346.57L335.84,-268.21L357.22,-272.61L339.52,-358.59L323.53,-387.84L291.80,-392.92L270.61,-382.98L257.54,-360.77L241.36,-376.19L217.62,-377.53L196.19,-368.07L183.76,-347.32L180.14,-364.89L160.90,-360.93ZM-900.25,209.12L-911.89,152.59L-893.46,123.05L-813.40,193.22L-797.52,175.34L-881.30,103.95L-834.58,30.21L-852.96,19.12L-917.46,125.51L-935.46,38.11L-958.02,42.75L-922.81,213.77ZM-730.40,61.90L-713.26,63.91L-710.56,44.54L-733.12,40.93L-752.22,51.45L-762.38,74.27L-766.78,52.89L-786.02,56.86L-760.84,179.16L-739.21,175.96L-752.95,109.22L-751.27,77.83ZM-682.61,14.04L-676.62,3.99L-679.09,-8.09L-688.75,-15.12L-699.73,-12.86L-705.62,-2.65L-703.14,9.42L-693.59,16.30ZM-647.77,157.14L-673.20,33.63L-694.57,38.03L-669.14,161.54ZM-611.84,109.85L-628.26,122.08L-611.17,143.83L-572.43,146.74L-539.31,130.86L-529.41,97.98L-544.23,74.61L-567.23,68.20L-597.63,66.35L-614.96,63.23L-622.24,54.45L-617.87,40.85L-598.64,32.23L-578.20,33.52L-566.64,47.53L-550.40,35.34L-565.12,16.81L-601.59,13.81L-633.86,29.57L-642.61,61.15L-628.45,81.87L-604.91,87.68L-572.82,89.46L-557.00,93.72L-550.85,104.37L-557.44,120.68L-575.45,128.37L-599.70,125.57ZM-447.01,117.53L-447.01,117.53L-453.27,99.61L-462.55,103.02L-473.92,99.92L-478.96,84.75L-493.58,13.73L-472.44,9.38L-475.82,-7.01L-496.96,-2.66L-505.76,-45.41L-527.14,-41.01L-518.33,1.74L-535.91,5.36L-532.54,21.75L-514.96,18.13L-500.34,89.15L-489.32,117.97L-462.88,123.18ZM-436.78,-36.57L-430.79,-46.62L-433.26,-58.70L-442.92,-65.74L-453.90,-63.48L-459.79,-53.27L-457.31,-41.20L-447.76,-34.31ZM-401.94,106.52L-427.37,-16.99L-448.74,-12.59L-423.31,110.92ZM-312.72,1.81L-377.97,37.52L-386.07,69.96L-367.57,95.39L-335.62,97.96L-314.39,89.11L-297.19,70.07L-294.34,84.37L-274.39,80.26L-290.76,0.58L-309.48,-33.36L-349.00,-38.20L-380.58,-23.23L-391.78,4.20L-372.68,11.13L-365.66,-9.88L-347.59,-20.29L-325.55,-18.49ZM-308.83,20.71L-302.41,51.98L-314.80,68.33L-335.80,79.83L-352.75,78.97L-363.48,64.32L-357.40,45.57ZM-242.20,73.63L-220.82,69.23L-234.66,2.02L-231.93,-31.63L-210.02,-47.57L-188.09,-42.43L-177.17,-18.73L-161.57,57.03L-140.19,52.63L-155.79,-23.14L-171.64,-59.14L-209.47,-66.89L-231.50,-57.04L-244.72,-36.02L-248.39,-53.84L-267.63,-49.87ZM-40.52,32.18L25.41,18.61L71.04,-0.93L81.03,-43.65L66.12,-67.85L36.56,-76.92L55.34,-96.64L56.78,-120.74L32.47,-151.47L-13.23,-151.82L-75.76,-138.95ZM-37.82,-69.97L-48.84,-123.28L-14.15,-130.42L16.29,-133.06L33.62,-112.96L25.83,-89.01L-0.27,-77.71ZM-21.90,7.34L-33.64,-49.85L6.34,-58.08L38.10,-58.79L56.54,-38.63L49.76,-12.43L21.27,-1.54ZM102.87,-147.68L108.85,-157.73L106.38,-169.81L96.72,-176.84L85.74,-174.58L79.85,-164.37L82.33,-152.30L91.88,-145.42ZM98.89,34.33L98.88,34.33L98.32,53.04L114.24,52.24L138.57,34.54L139.05,2.53L112.27,-128.09L90.90,-123.69L115.73,-3.06L118.81,23.65L110.19,33.76ZM244.17,-134.46L251.71,-148.38L235.76,-157.23L229.12,-144.96L212.09,-150.81L192.74,-149.73L153.87,-123.30L147.59,-70.99L155.29,-48.02L168.23,-31.91L160.49,-17.68L176.43,-8.85L183.28,-21.40L200.39,-15.36L220.17,-16.49L259.03,-42.93L265.32,-95.23L257.45,-118.30ZM178.90,-52.19L173.22,-62.06L169.38,-75.48L173.10,-114.95L196.47,-131.57L208.31,-132.05L219.62,-127.42ZM233.38,-114.64L239.46,-104.49L243.53,-90.71L239.81,-51.25L216.43,-34.64L204.14,-34.11L192.54,-38.90ZM330.83,-156.59L347.97,-154.58L350.67,-173.96L328.11,-177.57L309.01,-167.04L298.85,-144.22L294.45,-165.60L275.21,-161.64L300.39,-39.34L322.02,-42.53L308.28,-109.27L309.96,-140.66ZM391.50,-56.84L412.87,-61.24L399.04,-128.46L401.77,-162.10L423.68,-178.04L445.61,-172.90L456.53,-149.21L472.13,-73.44L493.51,-77.84L477.91,-153.61L462.06,-189.61L424.23,-197.36L402.19,-187.52L388.98,-166.49L385.31,-184.31L366.07,-180.35ZM582.25,-182.45L516.99,-146.75L508.90,-114.30L527.39,-88.87L559.35,-86.30L580.57,-95.15L597.78,-114.20L600.63,-99.89L620.58,-104.00L604.20,-183.68L585.49,-217.63L545.97,-222.46L514.39,-207.50L503.19,-180.07L522.29,-173.13L529.30,-194.14L547.38,-204.56L569.42,-202.76ZM586.14,-163.56L592.56,-132.29L580.17,-115.93L559.17,-104.44L542.22,-105.30L531.49,-119.94L537.57,-138.69ZM683.54,-229.21L700.68,-227.20L703.38,-246.58L680.83,-250.19L661.72,-239.66L651.57,-216.84L647.17,-238.22L627.93,-234.26L653.11,-111.96L674.73,-115.15L660.99,-181.89L662.68,-213.28ZM809.35,-321.13L787.97,-316.73L800.40,-256.38L784.49,-265.87L763.67,-266.73L727.39,-239.88L723.35,-188.99L747.17,-143.82L791.10,-133.49L810.87,-143.56L822.08,-163.07L825.56,-146.20L844.56,-150.12ZM768.64,-248.83L795.66,-241.63L813.26,-207.50L809.66,-169.01L788.59,-151.92L762.17,-159.23L745.17,-193.48L747.25,-231.66Z" fill="#ffffff" stroke="#000000"/>
    <path d="M-568.74,-39.41L-589.60,-114.57L-503.57,-138.45L-482.71,-63.29L-460.74,-69.39L-506.95,-235.89L-528.92,-229.80L-509.03,-158.11L-595.05,-134.23L-614.95,-205.92L-636.92,-199.82L-590.71,-33.32ZM-408.24,-108.60L-429.23,-137.14L-339.97,-161.94L-341.13,-170.58L-367.13,-210.81L-413.81,-217.13L-449.84,-188.59L-451.94,-136.69L-423.39,-93.29L-377.80,-87.40L-346.26,-107.08L-337.33,-136.27L-356.34,-141.89L-363.24,-117.81L-381.54,-105.43ZM-433.17,-154.00L-427.74,-185.16L-408.93,-199.46L-382.55,-195.98L-365.87,-172.68ZM-280.59,-119.39L-326.80,-285.89L-347.62,-280.12L-301.40,-113.61ZM-229.71,-133.51L-275.93,-300.01L-296.74,-294.24L-250.53,-127.73ZM-185.09,-280.52L-221.71,-251.81L-224.40,-199.74L-195.26,-156.51L-149.08,-150.79L-112.46,-179.50L-109.75,-231.56L-138.89,-274.80ZM-153.99,-168.47L-182.08,-172.54L-203.15,-205.62L-202.14,-244.84L-180.18,-262.82L-152.07,-258.74L-130.97,-225.65L-132.00,-186.44ZM-56.73,-181.63L-55.76,-164.02L-63.38,-153.37L-54.79,-146.69L-44.21,-162.59L-45.21,-184.83L-47.13,-191.74L-49.84,-201.51L-58.66,-206.50L-68.43,-203.78L-73.42,-194.96L-70.71,-185.19L-61.89,-180.20ZM75.55,-218.23L29.33,-384.74L7.36,-378.64L53.58,-212.14ZM82.09,-374.59L83.07,-356.98L75.44,-346.33L84.18,-339.69L94.61,-355.54L93.62,-377.78L91.70,-384.69L88.99,-394.46L80.16,-399.45L70.39,-396.74L70.39,-396.74L65.40,-387.92L68.12,-378.15L76.94,-373.16ZM163.27,-242.58L184.13,-248.37L166.86,-310.58L163.99,-342.97L184.66,-363.79L203.00,-360.81L214.14,-341.41L235.98,-262.76L256.79,-268.54L237.47,-338.15L237.61,-366.51L257.55,-384.01L277.83,-379.45L287.71,-359.30L308.89,-283.00L329.70,-288.77L306.46,-372.49L288.73,-400.31L257.05,-403.20L236.80,-391.96L225.37,-369.16L208.36,-383.30L184.83,-383.04L164.31,-372.26L153.42,-350.93L148.67,-368.05L129.94,-362.85ZM-879.71,271.06L-894.99,216.02L-878.77,185.62L-795.02,249.55L-780.54,230.83L-868.04,165.95L-826.85,90.01L-845.73,80.29L-902.30,189.66L-925.92,104.56L-947.89,110.66L-901.68,277.16ZM-721.85,114.33L-704.79,115.16L-703.43,95.86L-725.94,93.80L-744.10,105.47L-752.60,128.68L-758.38,107.87L-777.11,113.07L-744.06,232.15L-722.92,227.55L-740.95,162.56L-741.39,131.45ZM-677.86,63.87L-672.63,53.55L-675.87,41.78L-685.88,35.48L-696.57,38.45L-701.70,48.93L-698.45,60.68L-688.55,66.84ZM-633.88,202.83L-667.26,82.58L-688.07,88.36L-654.70,208.61ZM-601.57,153.74L-616.96,166.91L-598.64,187.24L-560.19,187.52L-528.54,169.62L-520.97,136.50L-537.17,114.42L-560.32,109.63L-590.45,109.83L-607.77,107.91L-615.55,99.73L-612.15,86.01L-593.74,76.21L-573.46,76.12L-561.11,89.17L-545.89,76.05L-561.67,58.74L-597.88,58.22L-628.69,75.94L-635.22,107.71L-619.84,127.22L-596.21,131.38L-564.41,131.00L-548.50,134.14L-541.72,144.25L-547.13,160.79L-564.41,169.59L-588.53,168.45ZM-438.30,150.29L-438.30,150.28L-445.68,133.01L-454.61,137.00L-466.05,134.70L-472.05,120.06L-491.24,50.91L-470.66,45.20L-475.08,29.24L-495.67,34.95L-507.22,-6.67L-528.03,-0.90L-516.48,40.73L-533.59,45.48L-529.16,61.44L-512.05,56.69L-492.86,125.83L-480.05,153.55L-453.59,156.93ZM-438.51,-2.56L-433.27,-12.88L-436.52,-24.65L-446.53,-30.95L-457.22,-27.98L-462.35,-17.50L-459.09,-5.75L-449.20,0.40ZM-394.53,136.40L-427.91,16.15L-448.72,21.92L-415.34,142.18ZM-313.45,27.04L-375.49,66.66L-381.31,99.24L-361.35,123.11L-329.63,123.51L-309.26,113.35L-293.54,93.39L-289.77,107.33L-270.35,101.93L-291.85,24.35L-312.60,-7.91L-351.95,-10.04L-382.13,6.85L-391.35,34.68L-372.03,40.25L-366.51,19.04L-349.36,7.54L-327.47,7.84ZM-308.34,45.43L-299.90,75.88L-311.04,92.86L-331.01,105.61L-347.81,105.90L-359.38,92.16L-354.64,73.24ZM-239.01,93.24L-218.19,87.46L-236.36,22.01L-235.91,-11.39L-215.35,-28.60L-193.35,-24.99L-180.97,-2.33L-160.50,71.45L-139.69,65.67L-160.16,-8.10L-178.22,-42.59L-216.09,-47.71L-237.19,-36.52L-248.84,-14.87L-253.65,-32.22L-272.38,-27.02ZM-42.64,38.80L21.56,20.99L65.30,-1.36L72.31,-44.21L55.97,-67.11L26.17,-74.09L43.40,-94.82L43.20,-118.70L17.14,-147.42L-28.01,-144.71L-88.89,-127.81ZM-46.81,-62.25L-61.26,-114.14L-27.49,-123.52L2.40,-128.16L20.86,-109.47L14.77,-85.30L-10.25,-72.39ZM-25.92,13.03L-41.33,-42.66L-2.41,-53.46L28.90,-56.29L48.47,-37.61L43.52,-11.28L16.12,1.37ZM86.91,-148.39L92.14,-158.71L88.90,-170.48L78.89,-176.78L68.20,-173.81L63.07,-163.33L66.32,-151.58L76.22,-145.43ZM95.16,31.60L95.16,31.59L95.85,50.11L111.52,48.25L134.36,29.15L132.70,-2.50L97.50,-129.68L76.69,-123.90L109.29,-6.46L114.12,19.72L106.29,30.28ZM227.32,-144.79L233.83,-159.04L217.49,-166.72L211.76,-154.16L194.55,-158.80L175.51,-156.44L138.90,-127.73L136.20,-75.66L145.35,-53.49L159.20,-38.46L152.51,-23.89L168.84,-16.23L174.76,-29.09L192.06,-24.26L211.52,-26.70L248.12,-55.41L250.83,-107.48L241.51,-129.73ZM168.38,-59.19L162.11,-68.56L157.42,-81.55L158.45,-120.78L180.42,-138.75L192.08,-140.02L203.55,-136.20ZM218.00,-124.50L224.67,-114.88L229.61,-101.56L228.58,-62.35L206.61,-44.38L194.51,-43.03L182.73,-46.98ZM311.41,-172.45L328.47,-171.62L329.83,-190.93L307.32,-192.98L289.16,-181.31L280.66,-158.10L274.88,-178.91L256.15,-173.71L289.20,-54.64L310.34,-59.24L292.31,-124.22L291.87,-155.33ZM377.99,-78.01L398.80,-83.79L380.64,-149.23L381.09,-182.64L401.65,-199.85L423.65,-196.24L436.02,-173.57L456.50,-99.80L477.31,-105.58L456.84,-179.35L438.78,-213.84L400.91,-218.96L379.80,-207.76L368.16,-186.12L363.35,-203.46L344.61,-198.27ZM557.93,-214.82L495.89,-175.19L490.07,-142.61L510.03,-118.74L541.75,-118.34L562.12,-128.50L577.84,-148.46L581.61,-134.53L601.03,-139.92L579.53,-217.50L558.78,-249.76L519.43,-251.89L489.25,-235.00L480.03,-207.17L499.35,-201.60L504.87,-222.81L522.02,-234.31L543.91,-234.01ZM563.04,-196.42L571.48,-165.97L560.34,-148.99L540.37,-136.24L523.57,-135.95L512.00,-149.70L516.74,-168.62ZM654.82,-267.77L671.89,-266.93L673.25,-286.24L650.74,-288.30L632.58,-276.63L624.08,-253.41L618.30,-274.23L599.57,-269.03L632.62,-149.95L653.76,-154.55L635.72,-219.53L635.29,-250.64ZM772.90,-366.95L752.08,-361.17L768.39,-302.41L752.05,-310.72L731.43,-310.18L697.41,-281.24L696.82,-230.71L723.36,-187.71L767.44,-180.45L786.28,-191.71L796.05,-211.73L800.61,-195.31L819.11,-200.44ZM737.54,-292.83L764.70,-287.53L784.37,-255.01L783.39,-216.76L763.73,-198.48L737.14,-203.93L718.06,-236.61L717.57,-274.45Z" fill="#ffffff" stroke="#000000"/>
    <path d="M-568.59,3.73L-594.22,-69.08L-510.88,-98.41L-485.25,-25.60L-463.97,-33.09L-520.74,-194.39L-542.02,-186.90L-517.58,-117.45L-600.92,-88.12L-625.36,-157.57L-646.65,-150.08L-589.88,11.22ZM-414.76,-75.31L-437.40,-102.09L-350.93,-132.55L-352.65,-141.01L-381.01,-178.99L-427.53,-182.10L-461.18,-151.51L-459.79,-100.12L-428.69,-59.19L-383.29,-56.42L-353.47,-77.97L-346.60,-107.38L-365.75,-111.66L-370.95,-87.43L-388.19,-73.97ZM-442.41,-118.48L-439.14,-149.60L-421.52,-164.98L-395.24,-163.31L-377.22,-141.42ZM-289.45,-94.51L-346.22,-255.81L-366.39,-248.72L-309.61,-87.42ZM-240.17,-111.86L-296.94,-273.16L-317.10,-266.07L-260.33,-104.76ZM-205.95,-259.99L-240.18,-229.20L-239.35,-177.61L-207.69,-136.88L-161.71,-134.32L-127.48,-165.12L-128.29,-216.70L-159.95,-257.43ZM-167.74,-151.44L-195.75,-153.59L-218.77,-184.84L-220.39,-223.63L-199.91,-242.84L-171.89,-240.70L-148.84,-209.45L-147.24,-170.66ZM-72.60,-170.95L-70.46,-153.63L-77.27,-142.60L-68.34,-136.58L-58.96,-152.99L-61.44,-174.88L-63.79,-181.57L-67.12,-191.03L-76.17,-195.37L-85.63,-192.04L-89.97,-182.99L-86.64,-173.53L-77.59,-169.19ZM55.55,-215.94L-1.22,-377.24L-22.50,-369.75L34.27,-208.45ZM51.55,-370.75L53.69,-353.43L46.88,-342.40L55.95,-336.43L65.19,-352.79L62.71,-374.68L60.36,-381.37L57.03,-390.83L47.98,-395.17L38.52,-391.84L38.52,-391.84L34.18,-382.79L37.51,-373.33L46.56,-368.99ZM140.53,-245.85L160.74,-252.96L139.53,-313.23L134.53,-345.01L153.54,-366.95L171.85,-365.24L184.15,-346.84L210.97,-270.64L231.13,-277.74L207.39,-345.17L205.63,-373.19L224.15,-391.80L244.48,-388.66L255.58,-369.41L281.60,-295.50L301.76,-302.60L273.22,-383.70L253.84,-409.97L222.38,-410.71L203.13,-398.26L193.38,-374.98L175.63,-387.80L152.42,-385.97L132.88,-373.95L123.56,-352.17L117.72,-368.75L99.58,-362.36ZM-854.84,331.08L-873.61,277.76L-859.63,246.66L-772.67,304.17L-759.62,284.73L-850.35,226.52L-814.77,148.79L-834.07,140.45L-882.60,252.22L-911.61,169.78L-932.90,177.27L-876.13,338.57ZM-709.48,165.77L-692.58,165.45L-692.52,146.30L-714.89,145.77L-732.04,158.51L-738.87,182.00L-745.97,161.84L-764.12,168.22L-723.51,283.58L-702.95,277.62L-725.11,214.67L-727.62,183.99ZM-669.42,113.01L-664.94,102.47L-668.93,91.07L-679.24,85.52L-689.59,89.16L-693.96,99.85L-689.96,111.23L-679.78,116.65ZM-616.70,247.27L-657.70,130.77L-677.86,137.87L-636.86,254.36ZM-588.09,196.63L-602.40,210.67L-582.94,229.51L-544.96,227.22L-514.92,207.43L-509.66,174.21L-527.13,153.50L-550.30,150.32L-580.05,152.54L-597.27,151.80L-605.50,144.24L-603.06,130.47L-585.54,119.56L-565.52,118.11L-552.46,130.18L-538.31,116.20L-555.05,100.16L-590.83,102.07L-620.06,121.63L-624.38,153.43L-607.90,171.67L-584.29,174.20L-552.91,171.69L-537.00,173.72L-529.62,183.25L-533.86,199.95L-550.33,209.79L-574.23,210.28ZM-427.12,182.30L-427.11,182.29L-435.56,165.73L-444.11,170.26L-455.56,168.76L-462.46,154.71L-486.03,87.72L-466.09,80.71L-471.53,65.25L-491.47,72.27L-505.66,31.94L-525.83,39.04L-511.63,79.36L-528.21,85.20L-522.77,100.65L-506.19,94.82L-482.62,161.80L-468.12,188.31L-441.77,189.87ZM-437.55,31.40L-433.07,20.86L-437.06,9.46L-447.37,3.91L-457.72,7.55L-462.09,18.24L-458.09,29.63L-447.91,35.04ZM-384.83,165.66L-425.83,49.16L-445.99,56.26L-404.99,172.75ZM-312.09,52.25L-370.70,95.53L-374.26,128.08L-352.95,150.31L-321.61,148.58L-302.18,137.19L-288.00,116.43L-283.34,129.94L-264.53,123.32L-290.95,48.16L-313.59,17.69L-352.59,18.22L-381.26,36.92L-388.50,65.02L-369.05,69.22L-365.01,47.90L-348.85,35.41L-327.22,34.24ZM-305.82,70.08L-295.45,99.57L-305.31,117.08L-324.18,131.01L-340.74,132.42L-353.09,119.62L-349.67,100.62ZM-234.16,112.63L-214.00,105.53L-236.32,42.13L-238.11,9.12L-218.96,-9.24L-197.00,-7.15L-183.26,14.40L-158.11,85.86L-137.95,78.77L-163.10,7.30L-183.24,-25.54L-220.97,-28.06L-241.06,-15.60L-251.11,6.55L-257.02,-10.25L-275.17,-3.87ZM-43.93,45.75L18.26,23.86L59.95,-1.13L64.01,-43.91L46.34,-65.42L16.45,-70.32L32.07,-91.94L30.28,-115.51L2.62,-142.12L-41.77,-136.42L-100.74,-115.66ZM-54.81,-53.74L-72.55,-104.02L-39.83,-115.53L-10.64,-122.12L8.83,-104.90L4.44,-80.63L-19.39,-66.21ZM-29.15,19.18L-48.09,-34.77L-10.38,-48.04L20.34,-52.93L40.91,-35.80L37.79,-9.47L11.57,4.85ZM71.44,-147.75L75.92,-158.29L71.93,-169.69L61.63,-175.24L51.27,-171.59L46.91,-160.90L50.91,-149.52L61.09,-144.10ZM91.64,29.41L91.63,29.40L93.56,47.64L108.90,44.76L130.17,24.36L126.41,-6.77L83.15,-129.98L63.00,-122.89L103.04,-9.11L109.56,16.41L102.54,27.36ZM210.31,-153.59L215.79,-168.09L199.15,-174.58L194.32,-161.80L177.03,-165.22L158.38,-161.62L124.16,-130.83L124.98,-79.24L135.49,-57.96L150.18,-44.04L144.54,-29.21L161.18,-22.74L166.17,-35.83L183.57,-32.23L202.62,-35.94L236.84,-66.73L236.02,-118.32L225.34,-139.67ZM157.85,-65.13L151.03,-73.96L145.54,-86.47L143.93,-125.27L164.41,-144.49L175.84,-146.52L187.43,-143.52ZM202.47,-132.93L209.71,-123.88L215.47,-111.06L217.08,-72.27L196.59,-53.06L184.73,-50.92L172.84,-54.03ZM291.48,-186.53L308.39,-186.84L308.44,-206.00L286.08,-206.52L268.93,-193.78L262.09,-170.30L254.99,-190.46L236.85,-184.07L277.45,-68.72L298.01,-74.67L275.85,-137.63L273.34,-168.31ZM363.55,-97.74L383.71,-104.84L361.39,-168.24L359.60,-201.25L378.75,-219.61L400.71,-217.52L414.45,-195.97L439.60,-124.51L459.76,-131.60L434.61,-203.07L414.47,-235.91L376.74,-238.43L356.65,-225.97L346.60,-203.82L340.69,-220.62L322.54,-214.23ZM532.05,-244.85L473.44,-201.58L469.88,-169.02L491.19,-146.79L522.53,-148.52L541.96,-159.91L556.14,-180.67L560.80,-167.16L579.62,-173.79L553.19,-248.95L530.55,-279.41L491.56,-278.88L462.89,-260.18L455.64,-232.09L475.09,-227.88L479.13,-249.20L495.29,-261.69L516.92,-262.86ZM538.32,-227.03L548.69,-197.53L538.83,-180.02L519.97,-166.09L503.40,-164.69L491.05,-177.48L494.48,-196.48ZM624.17,-303.62L641.07,-303.93L641.12,-323.09L618.76,-323.61L601.61,-310.87L594.77,-287.39L587.68,-307.55L569.53,-301.16L610.13,-185.81L630.69,-191.76L608.54,-254.72L606.02,-285.40ZM734.10,-409.44L713.94,-402.35L733.98,-345.43L717.28,-352.53L696.97,-350.62L665.31,-319.77L668.11,-269.84L697.20,-229.16L741.20,-224.94L759.05,-237.33L767.36,-257.74L772.95,-241.83L790.88,-248.14ZM704.16,-333.90L731.32,-330.48L752.92,-299.69L754.51,-261.86L736.33,-242.50L709.72,-246.10L688.69,-277.08L685.67,-314.42Z" fill="#ffffff" stroke="#000000"/>
    <path d="M-565.14,46.55L-595.31,-23.61L-515.00,-58.14L-484.83,12.02L-464.32,3.20L-531.16,-152.24L-551.67,-143.42L-522.89,-76.49L-603.20,-41.96L-631.98,-108.89L-652.49,-100.07L-585.65,55.37ZM-418.56,-41.78L-442.70,-66.70L-359.38,-102.55L-361.64,-110.79L-392.18,-146.38L-438.31,-146.34L-469.49,-113.89L-464.67,-63.26L-431.24,-24.93L-386.23,-25.23L-358.23,-48.50L-353.42,-78.00L-372.61,-80.93L-376.12,-56.66L-392.24,-42.23ZM-448.75,-82.54L-447.60,-113.48L-431.24,-129.85L-405.18,-129.96L-385.92,-109.55ZM-296.14,-69.12L-362.98,-224.55L-382.41,-216.20L-315.57,-60.76ZM-248.65,-89.54L-315.49,-244.98L-334.92,-236.62L-268.08,-81.18ZM-224.78,-238.06L-256.52,-205.37L-252.24,-154.50L-218.26,-116.41L-172.70,-116.96L-140.96,-149.66L-145.22,-200.53L-179.20,-238.62ZM-179.80,-133.46L-207.59,-133.71L-232.41,-163.01L-236.60,-201.20L-217.67,-221.54L-189.86,-221.30L-165.02,-191.99L-160.84,-153.81ZM-87.18,-159.08L-83.90,-142.13L-89.89,-130.79L-80.67,-125.44L-72.51,-142.26L-76.42,-163.71L-79.19,-170.16L-83.11,-179.28L-92.33,-182.95L-101.45,-179.03L-105.13,-169.81L-101.21,-160.69L-91.99,-157.02ZM36.32,-212.08L-30.52,-367.52L-51.02,-358.70L15.82,-203.26ZM22.01,-364.64L25.29,-347.68L19.30,-336.34L28.65,-331.05L36.68,-347.82L32.77,-369.26L30.00,-375.71L26.08,-384.83L16.86,-388.51L7.74,-384.58L7.74,-384.58L4.06,-375.37L7.98,-366.24L17.20,-362.57ZM118.21,-247.29L137.69,-255.66L112.72,-313.74L105.65,-344.78L122.95,-367.71L141.14,-367.25L154.52,-349.90L186.09,-276.48L205.52,-284.83L177.58,-349.81L173.96,-377.35L190.99,-396.97L211.28,-395.23L223.53,-376.97L254.15,-305.75L273.58,-314.10L239.98,-392.25L219.09,-416.90L187.98,-415.52L169.81,-401.94L161.74,-378.31L143.37,-389.77L120.58,-386.41L102.09,-373.24L94.34,-351.11L87.47,-367.09L69.98,-359.57ZM-825.82,388.87L-847.91,337.49L-836.19,305.85L-746.49,356.81L-734.92,336.74L-828.38,285.35L-798.45,206.23L-818.06,199.29L-858.50,312.88L-892.66,233.43L-913.17,242.25L-846.33,397.69ZM-693.38,215.95L-676.71,214.50L-677.94,195.59L-700.05,196.57L-716.13,210.29L-721.31,233.94L-729.66,214.51L-747.15,222.03L-699.35,333.19L-679.45,325.93L-705.53,265.27L-710.07,235.15ZM-657.36,161.18L-653.65,150.47L-658.35,139.49L-668.89,134.70L-678.87,138.99L-682.47,149.83L-677.76,160.80L-667.34,165.47ZM-596.33,290.19L-644.60,177.93L-664.03,186.29L-615.76,298.55ZM-571.47,238.29L-584.66,253.11L-564.20,270.41L-526.86,265.60L-498.52,244.05L-495.55,210.91L-514.18,191.63L-537.27,190.04L-566.49,194.22L-583.54,194.65L-592.17,187.73L-590.68,173.97L-574.11,162.03L-554.45,159.27L-540.75,170.30L-527.72,155.56L-545.31,140.85L-580.51,145.13L-608.06,166.39L-610.19,198.07L-592.70,214.97L-569.23,215.89L-538.42,211.31L-522.57,212.26L-514.65,221.17L-517.72,237.94L-533.32,248.75L-556.88,250.84ZM-413.52,213.37L-413.52,213.36L-422.96,197.58L-431.10,202.63L-442.50,201.91L-450.25,188.50L-478.01,123.95L-458.80,115.68L-465.20,100.79L-484.42,109.05L-501.13,70.19L-520.56,78.54L-503.85,117.40L-519.82,124.27L-513.42,139.17L-497.44,132.30L-469.68,196.85L-453.60,222.05L-427.48,221.83ZM-433.92,65.10L-430.20,54.39L-434.91,43.41L-445.45,38.61L-455.43,42.91L-459.02,53.75L-454.31,64.72L-443.90,69.39ZM-372.89,194.11L-421.16,81.85L-440.59,90.20L-392.32,202.47ZM-308.67,77.29L-363.63,123.93L-364.97,156.31L-342.45,176.83L-311.62,173.03L-293.20,160.47L-280.59,139.04L-275.09,152.06L-256.96,144.26L-288.07,71.83L-312.46,43.27L-350.92,46.40L-377.98,66.78L-383.25,95.00L-363.76,97.85L-361.21,76.54L-346.09,63.12L-324.81,60.52ZM-301.29,94.46L-289.08,122.89L-297.64,140.83L-315.33,155.84L-331.59,158.34L-344.63,146.54L-342.53,127.55ZM-227.70,131.68L-208.27,123.32L-234.54,62.23L-238.52,29.76L-220.84,10.35L-199.02,10.94L-184.02,31.30L-154.41,100.16L-134.98,91.81L-164.59,22.94L-186.67,-8.13L-224.09,-8.10L-243.09,5.55L-251.52,28.09L-258.49,11.90L-275.97,19.42ZM-44.38,52.92L15.56,27.15L55.04,-0.31L56.18,-42.81L37.30,-62.87L7.47,-65.70L21.44,-88.09L18.10,-111.24L-10.99,-135.65L-54.43,-127.06L-111.26,-102.62ZM-61.77,-44.57L-82.65,-93.01L-51.12,-106.57L-22.74,-115.02L-2.37,-99.33L-5.08,-75.08L-27.64,-59.25ZM-31.56,25.71L-53.87,-26.29L-17.53,-41.91L12.47,-48.79L33.92,-33.26L32.60,-7.06L7.68,8.83ZM56.57,-145.82L60.29,-156.52L55.59,-167.51L45.05,-172.30L35.07,-168.01L31.47,-157.16L36.18,-146.19L46.59,-141.53ZM88.37,27.72L88.36,27.71L91.48,45.59L106.44,41.72L126.07,20.16L120.28,-10.32L69.32,-129.06L49.90,-120.71L97.05,-11.07L105.19,13.69L98.99,24.97ZM193.28,-160.88L197.71,-175.57L180.85,-180.86L176.94,-167.91L159.64,-170.14L141.47,-165.33L109.75,-132.64L114.01,-81.77L125.81,-61.47L141.24,-48.71L136.67,-33.69L153.53,-28.42L157.58,-41.68L175.00,-39.28L193.55,-44.22L225.28,-76.91L221.02,-127.78L209.04,-148.14ZM147.40,-70.04L140.09,-78.30L133.82,-90.29L129.63,-128.48L148.57,-148.82L159.72,-151.59L171.36,-149.41ZM186.91,-139.96L194.67,-131.51L201.22,-119.24L205.40,-81.06L186.46,-60.72L174.89,-57.81L162.95,-60.09ZM271.21,-198.83L287.87,-200.27L286.64,-219.19L264.53,-218.21L248.45,-204.48L243.27,-180.84L234.92,-200.27L217.43,-192.75L265.23,-81.59L285.13,-88.84L259.05,-149.51L254.51,-179.63ZM348.29,-116.00L367.72,-124.35L341.44,-185.45L337.47,-217.92L355.14,-237.33L376.96,-236.74L391.96,-216.38L421.58,-147.51L441.01,-155.87L411.39,-224.74L389.31,-255.81L351.90,-255.78L332.90,-242.12L324.46,-219.59L317.50,-235.78L300.01,-228.26ZM504.79,-272.51L449.83,-225.86L448.49,-193.49L471.01,-172.96L501.84,-176.77L520.26,-189.32L532.87,-210.76L538.37,-197.74L556.50,-205.53L525.39,-277.96L501.00,-306.53L462.54,-303.39L435.49,-283.01L430.22,-254.79L449.70,-251.94L452.26,-273.26L467.38,-286.67L488.65,-289.27ZM512.17,-255.33L524.38,-226.90L515.82,-208.96L498.13,-193.95L481.87,-191.45L468.83,-203.26L470.93,-222.24ZM591.80,-336.68L608.46,-338.13L607.24,-357.04L585.12,-356.06L569.04,-342.34L563.87,-318.70L555.51,-338.13L538.02,-330.61L585.82,-219.44L605.73,-226.70L579.64,-287.36L575.11,-317.49ZM693.25,-448.51L673.82,-440.16L697.40,-385.31L680.45,-391.20L660.52,-387.95L631.33,-355.38L637.44,-306.28L668.87,-268.07L712.60,-266.85L729.39,-280.27L736.22,-300.98L742.82,-285.65L760.09,-293.07ZM668.74,-371.93L695.79,-370.38L719.17,-341.42L723.27,-304.19L706.61,-283.85L680.10,-285.62L657.27,-314.81L651.79,-351.46Z" fill="#ffffff" stroke="#000000"/>
    <path d="M-558.42,88.80L-592.90,21.56L-515.93,-17.91L-481.46,49.33L-461.80,39.26L-538.18,-109.70L-557.84,-99.63L-524.95,-35.49L-601.91,3.97L-634.80,-60.16L-654.45,-50.09L-578.08,98.87ZM-419.65,-8.20L-445.14,-31.19L-365.29,-72.15L-368.08,-80.13L-400.61,-113.22L-446.14,-110.10L-474.75,-75.98L-466.60,-26.32L-431.03,9.28L-386.63,5.96L-360.55,-18.87L-357.77,-48.31L-376.91,-49.93L-378.75,-25.74L-393.69,-10.41ZM-452.17,-46.42L-453.11,-77.04L-438.05,-94.29L-412.34,-96.14L-391.97,-77.29ZM-300.64,-43.38L-377.02,-192.34L-395.64,-182.79L-319.26,-33.83ZM-255.12,-66.72L-331.50,-215.68L-350.12,-206.13L-273.74,-57.17ZM-241.50,-214.92L-270.64,-180.53L-263.02,-130.60L-226.92,-95.28L-181.99,-98.86L-152.85,-133.27L-160.45,-183.19L-196.55,-218.52ZM-190.10,-114.68L-217.55,-113.06L-244.01,-140.33L-250.70,-177.74L-233.38,-199.09L-205.91,-200.71L-179.43,-173.44L-172.75,-136.03ZM-100.39,-146.17L-96.02,-129.66L-101.18,-118.06L-91.72,-113.40L-84.79,-130.55L-90.08,-151.46L-93.25,-157.64L-97.73,-166.38L-107.08,-169.39L-115.82,-164.91L-118.83,-155.56L-114.35,-146.82L-105.00,-143.81ZM17.97,-206.74L-58.41,-355.70L-78.06,-345.63L-1.68,-196.67ZM-6.36,-356.38L-2.00,-339.86L-7.15,-328.26L2.44,-323.67L9.24,-340.75L3.95,-361.66L0.78,-367.84L-3.70,-376.58L-13.05,-379.59L-21.79,-375.11L-21.79,-375.11L-24.80,-365.76L-20.32,-357.02L-10.97,-354.01ZM96.45,-246.98L115.11,-256.55L86.58,-312.20L77.52,-342.37L93.07,-366.17L111.06,-366.92L125.42,-350.70L161.50,-280.33L180.12,-289.88L148.19,-352.15L142.78,-379.10L158.27,-399.60L178.41,-399.23L191.72,-382.04L226.72,-313.78L245.34,-323.33L206.94,-398.22L184.68,-421.15L154.06,-417.70L137.03,-403.09L130.65,-379.22L111.75,-389.31L89.47,-384.47L72.10,-370.23L65.94,-347.87L58.09,-363.18L41.33,-354.59ZM-792.83,444.14L-818.08,394.90L-808.63,362.88L-716.68,407.18L-706.59,386.60L-802.29,342.13L-778.04,262.02L-797.87,256.48L-830.17,371.32L-869.21,295.18L-888.87,305.26L-812.49,454.22ZM-673.67,264.59L-657.32,262.05L-659.80,243.46L-681.56,245.90L-696.51,260.53L-700.04,284.21L-709.59,265.59L-726.35,274.18L-671.72,380.71L-652.56,372.22L-682.37,314.08L-688.87,284.65ZM-641.79,208.11L-638.84,197.30L-644.21,186.77L-654.94,182.74L-664.50,187.65L-667.33,198.59L-661.94,209.11L-651.35,213.02ZM-572.91,331.38L-628.07,223.80L-646.69,233.34L-591.53,340.93ZM-551.84,278.48L-563.87,293.99L-542.51,309.70L-505.98,302.45L-479.45,279.29L-478.73,246.37L-498.42,228.59L-521.32,228.57L-549.87,234.65L-566.68,236.21L-575.66,229.96L-575.11,216.28L-559.56,203.39L-540.33,199.34L-526.07,209.31L-514.19,193.89L-532.54,180.54L-567.00,187.12L-592.77,209.96L-592.76,241.38L-574.36,256.89L-551.13,256.22L-521.02,249.64L-505.31,249.51L-496.91,257.78L-498.81,274.54L-513.48,286.26L-536.60,289.89ZM-397.60,243.31L-397.60,243.31L-407.98,228.36L-415.67,233.89L-426.97,233.94L-435.52,221.22L-467.24,159.36L-448.83,149.92L-456.15,135.64L-474.56,145.08L-493.66,107.84L-512.28,117.39L-493.18,154.63L-508.49,162.48L-501.17,176.76L-485.86,168.91L-454.14,230.77L-436.58,254.57L-410.81,252.60ZM-427.66,98.32L-424.71,87.50L-430.08,76.97L-440.81,72.95L-450.37,77.86L-453.20,88.80L-447.81,99.31L-437.22,103.22ZM-358.78,221.58L-413.94,114.00L-432.56,123.55L-377.40,231.13ZM-303.21,101.97L-354.34,151.69L-353.50,183.74L-329.89,202.49L-299.71,196.67L-282.37,183.05L-271.36,161.05L-265.06,173.53L-247.68,164.62L-283.24,95.21L-309.23,68.64L-346.98,74.31L-372.32,96.24L-375.64,124.45L-356.21,125.96L-355.12,104.75L-341.09,90.49L-320.26,86.50ZM-294.77,118.43L-280.82,145.67L-288.07,163.96L-304.52,179.96L-320.41,183.52L-334.07,172.74L-333.27,153.86ZM-219.64,150.24L-201.02,140.70L-231.04,82.15L-237.14,50.36L-220.99,30.02L-199.42,29.14L-183.25,48.23L-149.41,114.23L-130.79,104.68L-164.63,38.69L-188.50,9.49L-225.43,12.03L-243.27,26.77L-250.09,49.59L-258.05,34.07L-274.80,42.66ZM-43.96,60.24L13.48,30.79L50.62,1.04L48.90,-40.99L28.92,-59.52L-0.72,-60.33L11.58,-83.36L6.73,-105.99L-23.61,-128.14L-65.92,-116.75L-120.39,-88.82ZM-67.65,-34.83L-91.50,-81.25L-61.29,-96.74L-33.84,-106.99L-12.67,-92.86L-13.73,-68.74L-34.94,-51.60ZM-33.12,32.51L-58.63,-17.32L-23.80,-35.17L5.35,-43.97L27.56,-30.07L28.02,-4.12L4.48,13.23ZM42.39,-142.69L45.35,-153.51L39.97,-164.04L29.24,-168.06L19.68,-163.16L16.86,-152.21L22.24,-141.70L32.83,-137.79ZM85.39,26.48L85.38,26.47L89.66,43.91L104.16,39.09L122.10,16.49L114.34,-13.21L56.10,-127.01L37.49,-117.46L91.36,-12.39L101.05,11.50L95.69,23.05ZM176.33,-166.71L179.72,-181.50L162.72,-185.59L159.73,-172.56L142.50,-173.60L124.89,-167.64L95.77,-133.25L103.37,-83.31L116.39,-64.06L132.47,-52.50L128.96,-37.37L145.95,-33.30L149.06,-46.65L166.42,-45.45L184.40,-51.57L213.53,-85.96L205.92,-135.89L192.74,-155.19ZM137.12,-73.97L129.35,-81.63L122.36,-93.05L115.67,-130.47L133.00,-151.82L143.82,-155.30L155.46,-153.92ZM171.45,-145.64L179.66,-137.81L186.95,-126.13L193.63,-88.73L176.30,-67.38L165.08,-63.74L153.13,-65.19ZM250.71,-209.38L267.06,-211.92L264.59,-230.51L242.82,-228.06L227.87,-213.44L224.34,-189.76L214.79,-208.38L198.04,-199.78L252.66,-93.25L271.82,-101.75L242.01,-159.88L235.52,-189.31ZM332.34,-132.78L350.96,-142.33L320.94,-200.88L314.84,-232.66L330.99,-253.00L352.57,-253.88L368.73,-234.79L402.57,-168.79L421.19,-178.34L387.35,-244.33L363.48,-273.53L326.55,-270.99L308.71,-256.25L301.89,-233.44L293.93,-248.95L277.18,-240.36ZM476.35,-297.74L425.22,-248.02L426.06,-215.97L449.67,-197.22L479.85,-203.04L497.19,-216.66L508.20,-238.66L514.50,-226.18L531.88,-235.09L496.32,-304.50L470.33,-331.07L432.58,-325.40L407.24,-303.47L403.92,-275.26L423.35,-273.75L424.44,-294.96L438.47,-309.22L459.29,-313.21ZM484.79,-281.28L498.74,-254.04L491.49,-235.75L475.04,-219.75L459.15,-216.19L445.49,-226.97L446.29,-245.85ZM557.94,-366.91L574.29,-369.45L571.82,-388.04L550.05,-385.59L535.10,-370.97L531.57,-347.28L522.03,-365.90L505.27,-357.31L559.89,-250.78L579.05,-259.28L549.24,-317.41L542.75,-346.84ZM650.60,-484.08L631.98,-474.54L658.93,-421.97L641.80,-426.65L622.35,-422.12L595.71,-388.01L605.03,-339.95L638.61,-304.34L681.85,-306.06L697.53,-320.43L702.89,-341.33L710.42,-326.64L726.98,-335.12ZM631.53,-406.85L658.33,-407.13L683.35,-380.11L689.89,-343.63L674.81,-322.44L648.52,-322.42L624.03,-349.70L616.17,-385.51Z" fill="#ffffff" stroke="#000000"/>
    <path d="M-548.52,130.21L-587.05,66.15L-513.72,22.06L-475.20,86.11L-456.47,74.85L-541.82,-67.06L-560.55,-55.80L-523.80,5.30L-597.12,49.40L-633.87,-11.70L-652.59,-0.44L-567.24,141.47ZM-418.04,25.19L-444.74,4.21L-368.67,-41.56L-371.96,-49.25L-406.28,-79.74L-451.01,-73.61L-476.96,-38.01L-465.60,10.45L-428.11,43.21L-384.51,36.96L-360.42,10.70L-359.66,-18.54L-378.65,-18.85L-378.85,5.15L-392.57,21.27ZM-452.70,-10.35L-455.68,-40.51L-441.97,-58.54L-416.72,-62.09L-395.34,-44.85ZM-302.93,-17.49L-388.28,-159.40L-406.02,-148.73L-320.67,-6.82ZM-259.57,-43.57L-344.92,-185.48L-362.66,-174.81L-277.31,-32.90ZM-256.04,-190.76L-282.50,-154.86L-271.64,-106.10L-233.65,-73.65L-189.54,-80.19L-163.09,-116.09L-173.93,-164.86L-211.92,-197.31ZM-198.61,-95.26L-225.59,-91.82L-253.53,-116.97L-262.64,-153.44L-246.97,-175.67L-219.97,-179.11L-192.01,-153.97L-182.91,-117.49ZM-112.17,-132.34L-106.76,-116.33L-111.07,-104.54L-101.42,-100.58L-95.73,-117.97L-102.35,-138.25L-105.89,-144.13L-110.90,-152.46L-120.32,-154.81L-128.65,-149.80L-131.00,-140.37L-125.99,-132.05L-116.56,-129.70ZM0.60,-200.04L-84.75,-341.96L-103.48,-330.69L-18.13,-188.78ZM-33.43,-346.10L-28.02,-330.09L-32.33,-318.30L-22.56,-314.41L-16.99,-331.73L-23.61,-352.01L-27.15,-357.89L-32.16,-366.22L-41.58,-368.57L-49.91,-363.56L-49.91,-363.56L-52.26,-354.13L-47.25,-345.81L-37.82,-343.46ZM75.36,-245.01L93.14,-255.70L61.25,-308.72L50.30,-337.89L64.05,-362.42L81.75,-364.37L97.01,-349.31L137.33,-282.28L155.07,-292.95L119.39,-352.27L112.25,-378.50L126.17,-399.78L146.07,-400.76L160.36,-384.68L199.47,-319.65L217.21,-330.32L174.30,-401.67L150.79,-422.81L120.80,-417.36L104.97,-401.80L100.27,-377.81L80.94,-386.51L59.28,-380.24L43.09,-365.02L38.50,-342.54L29.73,-357.13L13.76,-347.52ZM-756.11,496.61L-784.32,449.70L-777.13,417.47L-683.41,455.04L-674.84,434.05L-772.27,396.56L-753.69,315.88L-773.63,311.74L-797.83,427.24L-841.46,354.70L-860.18,365.96L-774.83,507.88ZM-650.51,311.42L-634.54,307.82L-638.23,289.64L-659.54,293.51L-673.32,308.94L-675.22,332.56L-685.89,314.82L-701.85,324.42L-640.82,425.91L-622.47,416.24L-655.78,360.86L-664.16,332.25ZM-622.82,253.55L-620.63,242.68L-626.64,232.65L-637.50,229.39L-646.61,234.87L-648.66,245.87L-642.64,255.88L-631.93,259.03ZM-546.59,370.60L-608.23,268.11L-625.97,278.78L-564.33,381.27ZM-529.34,316.99L-540.17,333.10L-518.04,347.17L-482.46,337.58L-457.83,312.94L-459.33,280.41L-479.94,264.17L-502.54,265.68L-530.32,273.59L-546.81,276.26L-556.09,270.69L-556.46,257.15L-541.97,243.39L-523.27,238.11L-508.52,247.00L-497.83,230.98L-516.84,219.03L-550.41,227.83L-574.32,252.10L-572.20,283.10L-553.01,297.18L-530.12,294.97L-500.84,286.46L-485.35,285.28L-476.50,292.88L-477.26,309.55L-490.95,322.10L-513.53,327.23ZM-379.45,271.96L-379.45,271.95L-390.69,257.89L-397.92,263.86L-409.07,264.67L-418.36,252.69L-453.80,193.76L-436.26,183.21L-444.44,169.61L-461.98,180.16L-483.32,144.68L-501.06,155.35L-479.72,190.82L-494.31,199.60L-486.13,213.20L-471.54,204.42L-436.10,263.36L-417.17,285.67L-391.87,282.00ZM-418.82,130.86L-416.63,119.99L-422.64,109.96L-433.50,106.70L-442.61,112.18L-444.66,123.18L-438.65,133.19L-427.93,136.34ZM-342.59,247.91L-404.23,145.42L-421.97,156.09L-360.33,258.58ZM-295.75,126.14L-342.88,178.63L-339.91,210.21L-315.35,227.13L-285.96,219.37L-269.75,204.77L-260.36,182.31L-253.31,194.22L-236.75,184.26L-276.49,118.13L-303.92,93.65L-340.80,101.77L-364.34,125.10L-365.73,153.17L-346.46,153.36L-346.79,132.35L-333.90,117.34L-313.62,112.01ZM-286.32,141.82L-270.72,167.78L-276.66,186.31L-291.83,203.20L-307.27,207.77L-321.48,198.05L-321.94,179.36ZM-210.04,168.19L-192.30,157.52L-225.85,101.75L-233.99,70.78L-219.42,49.62L-198.18,47.32L-180.94,65.08L-143.13,127.95L-125.39,117.28L-163.20,54.41L-188.72,27.19L-225.00,32.17L-241.62,47.91L-246.83,70.88L-255.72,56.10L-271.68,65.70ZM-42.66,67.60L12.06,34.69L46.72,2.85L42.21,-38.52L21.25,-55.47L-8.05,-54.28L2.54,-77.84L-3.76,-99.85L-35.19,-119.68L-76.18,-105.61L-128.07,-74.40ZM-72.41,-24.64L-99.05,-68.86L-70.27,-86.17L-43.86,-98.12L-22.03,-85.59L-21.45,-61.72L-41.25,-43.38ZM-33.82,39.52L-62.33,-7.96L-29.16,-27.91L-0.97,-38.55L21.89,-26.31L24.07,-0.73L2.00,17.97ZM28.99,-138.46L31.18,-149.34L25.17,-159.37L14.31,-162.62L5.20,-157.14L3.15,-146.15L9.16,-136.13L19.88,-132.98ZM82.74,25.63L82.74,25.62L88.12,42.55L102.11,36.82L118.31,13.32L108.66,-15.47L43.57,-123.90L25.83,-113.23L86.04,-13.13L97.20,9.80L92.68,21.56ZM159.57,-171.13L161.93,-185.95L144.88,-188.85L142.80,-175.79L125.72,-175.66L108.74,-168.60L82.30,-132.71L93.15,-83.94L107.28,-65.81L123.92,-55.47L121.48,-40.30L138.52,-37.42L140.69,-50.81L157.91,-50.79L175.24,-58.03L201.69,-93.92L190.84,-142.69L176.54,-160.86ZM127.08,-76.98L118.89,-84.02L111.23,-94.81L102.13,-131.30L117.81,-153.53L128.25,-157.69L139.83,-157.10ZM156.16,-150.00L164.79,-142.83L172.77,-131.79L181.87,-95.32L166.18,-73.09L155.35,-68.75L143.47,-69.38ZM230.13,-218.22L246.10,-221.82L242.41,-240.00L221.10,-236.13L207.32,-220.70L205.42,-197.08L194.75,-214.82L178.78,-205.22L239.82,-103.73L258.16,-113.40L224.85,-168.78L216.48,-197.40ZM315.82,-148.07L333.56,-158.74L300.01,-214.52L291.87,-245.48L306.44,-266.64L327.68,-268.95L344.92,-251.19L382.73,-188.32L400.47,-198.99L362.66,-261.86L337.14,-289.08L300.86,-284.10L284.24,-268.36L279.03,-245.39L270.14,-260.17L254.18,-250.57ZM446.92,-320.52L399.78,-268.03L402.76,-236.45L427.31,-219.53L456.71,-227.29L472.91,-241.89L482.31,-264.35L489.36,-252.45L505.92,-262.40L466.18,-328.54L438.75,-353.01L401.87,-344.89L378.32,-321.56L376.94,-293.49L396.21,-293.30L395.88,-314.31L408.77,-329.32L429.05,-334.65ZM456.35,-304.84L471.95,-278.89L466.01,-260.36L450.84,-243.46L435.40,-238.89L421.19,-248.61L420.73,-267.30ZM522.82,-394.25L538.79,-397.85L535.10,-416.03L513.79,-412.16L500.01,-396.73L498.11,-373.12L487.44,-390.86L471.48,-381.25L532.51,-279.77L550.86,-289.43L517.55,-344.82L509.17,-373.43ZM606.43,-516.10L588.69,-505.43L618.81,-455.35L601.59,-458.83L582.69,-453.05L558.69,-417.60L571.10,-370.80L606.63,-337.89L649.19,-342.48L663.71,-357.71L667.60,-378.70L676.01,-364.71L691.78,-374.19ZM592.78,-438.59L619.22,-440.66L645.71,-415.67L654.61,-380.10L641.14,-358.18L615.20,-356.40L589.21,-381.68L579.05,-416.51Z" fill="#ffffff" stroke="#000000"/>
    <path d="M-535.52,170.56L-577.83,109.92L-508.42,61.50L-466.11,122.14L-448.39,109.77L-542.11,-24.57L-559.83,-12.20L-519.48,45.64L-588.89,94.06L-629.24,36.22L-646.97,48.59L-553.25,182.92ZM-413.78,58.19L-441.54,39.27L-369.53,-10.99L-373.28,-18.36L-409.19,-46.15L-452.92,-37.10L-476.15,-0.25L-461.70,46.83L-422.51,76.64L-379.90,67.56L-357.89,40.04L-359.09,11.13L-377.86,12.09L-376.45,35.79L-388.91,52.62ZM-450.36,25.43L-455.32,-4.13L-443.00,-22.84L-418.31,-28.03L-396.07,-12.45ZM-303.04,8.37L-396.76,-125.97L-413.56,-114.26L-319.83,20.08ZM-261.99,-20.27L-355.72,-154.61L-372.51,-142.89L-278.79,-8.56ZM-268.36,-165.76L-292.07,-128.57L-278.09,-81.17L-238.42,-51.68L-195.34,-61.09L-171.63,-98.30L-185.59,-145.70L-225.25,-175.18ZM-205.29,-75.36L-231.68,-70.16L-260.94,-93.11L-272.37,-128.50L-258.39,-151.48L-231.98,-156.68L-202.70,-133.74L-191.28,-98.35ZM-122.47,-117.74L-116.05,-102.30L-119.52,-90.38L-109.73,-87.11L-105.28,-104.65L-113.17,-124.22L-117.06,-129.79L-122.56,-137.68L-132.01,-139.36L-139.90,-133.86L-141.58,-124.40L-136.08,-116.52L-126.62,-114.84ZM-15.71,-192.09L-109.43,-326.43L-127.15,-314.07L-33.43,-179.73ZM-59.06,-333.95L-52.65,-318.52L-56.11,-306.59L-46.21,-303.41L-41.87,-320.87L-49.76,-340.44L-53.65,-346.01L-59.15,-353.90L-68.61,-355.58L-76.49,-350.08L-76.49,-350.08L-78.18,-340.62L-72.68,-332.74L-63.22,-331.06ZM55.07,-241.47L71.90,-253.21L36.88,-303.40L24.12,-331.46L36.05,-356.58L53.39,-359.69L69.45,-345.85L113.73,-282.39L130.52,-294.11L91.34,-350.27L82.54,-375.68L94.85,-397.60L114.43,-399.91L129.60,-384.99L172.55,-323.43L189.34,-335.15L142.22,-402.69L117.61,-421.98L88.38,-414.60L73.80,-398.18L70.76,-374.20L51.10,-381.48L30.15,-373.85L15.19,-357.75L12.16,-335.25L2.53,-349.06L-12.58,-338.52ZM-715.87,546.04L-746.85,501.63L-741.92,469.34L-646.91,500.15L-639.85,478.85L-738.51,448.38L-725.58,367.51L-745.53,364.76L-761.69,480.36L-809.59,411.70L-827.32,424.06L-733.59,558.40ZM-624.05,356.21L-608.53,351.59L-613.38,333.90L-634.16,339.14L-646.73,355.29L-647.02,378.72L-658.74,361.93L-673.85,372.47L-606.82,468.55L-589.37,457.78L-625.95,405.35L-636.13,377.68ZM-600.59,297.25L-599.16,286.37L-605.76,276.87L-616.69,274.39L-625.32,280.41L-626.61,291.39L-620.00,300.87L-609.22,303.27ZM-517.53,407.67L-585.22,310.64L-602.02,322.36L-534.33,419.38ZM-504.09,353.60L-513.71,370.22L-490.93,382.63L-456.46,370.78L-433.80,344.82L-437.45,312.81L-458.88,298.17L-481.09,301.17L-507.97,310.84L-524.06,314.58L-533.59,309.70L-534.87,296.37L-521.49,281.81L-503.39,275.35L-488.24,283.13L-478.76,266.61L-498.31,256.10L-530.85,267.02L-552.82,292.57L-548.66,323.03L-528.78,335.64L-506.34,331.92L-478.02,321.57L-462.81,319.37L-453.56,326.27L-453.20,342.77L-465.87,356.07L-487.81,362.65ZM-359.19,299.13L-359.19,299.13L-371.23,286.01L-377.96,292.38L-388.91,293.92L-398.88,282.72L-437.80,226.93L-421.19,215.35L-430.17,202.47L-446.78,214.06L-470.21,180.47L-487.00,192.19L-463.57,225.77L-477.38,235.41L-468.40,248.28L-454.59,238.65L-415.67,294.43L-395.50,315.19L-370.78,309.88ZM-407.48,162.52L-406.05,151.65L-412.65,142.15L-423.58,139.67L-432.21,145.68L-433.50,156.67L-426.89,166.15L-416.11,168.54ZM-324.42,272.94L-392.11,175.92L-408.90,187.63L-341.22,284.66ZM-286.34,149.63L-329.35,204.59L-324.30,235.55L-298.93,250.61L-270.45,240.99L-255.43,225.49L-247.66,202.70L-239.90,213.97L-224.23,203.04L-267.87,140.43L-296.58,118.11L-332.43,128.60L-354.11,153.20L-353.59,180.99L-334.56,179.89L-336.30,159.18L-324.58,143.50L-304.92,136.89ZM-275.99,164.48L-258.86,189.05L-263.48,207.73L-277.32,225.42L-292.25,230.96L-306.92,222.32L-308.63,203.90ZM-198.94,185.40L-182.15,173.68L-218.99,120.88L-229.10,90.87L-216.13,69.01L-195.33,65.32L-177.13,81.69L-135.61,141.21L-118.81,129.49L-160.34,69.97L-187.34,44.82L-222.81,52.16L-238.16,68.81L-241.76,91.83L-251.52,77.83L-266.63,88.38ZM-40.50,74.93L11.30,38.79L43.39,5.05L36.17,-35.47L14.35,-50.80L-14.49,-47.67L-5.62,-71.62L-13.30,-92.92L-45.65,-110.39L-85.16,-93.76L-134.28,-59.50ZM-76.02,-14.11L-105.27,-55.97L-78.03,-74.98L-52.77,-88.54L-30.38,-77.63L-28.22,-54.11L-46.52,-34.69ZM-33.65,46.62L-64.96,1.68L-33.56,-20.23L-6.45,-32.61L16.92,-22.07L20.79,3.03L0.26,22.97ZM16.43,-133.22L17.86,-144.10L11.26,-153.60L0.33,-156.08L-8.30,-150.06L-9.59,-139.08L-2.98,-129.60L7.80,-127.20ZM80.45,25.12L80.45,25.12L86.90,41.46L100.32,34.87L114.73,10.59L103.28,-17.18L31.79,-119.82L15.00,-108.11L81.11,-13.35L93.66,8.53L89.99,20.44ZM143.11,-174.19L144.45,-188.98L127.43,-190.70L126.25,-177.67L109.40,-176.40L93.12,-168.30L69.42,-131.11L83.39,-83.70L98.55,-66.76L115.67,-57.67L114.27,-42.54L131.28,-40.83L132.53,-54.19L149.52,-55.32L166.14,-63.63L189.84,-100.81L175.87,-148.22L160.54,-165.19ZM117.35,-79.10L108.79,-85.50L100.51,-95.65L89.09,-131.04L103.07,-154.03L113.10,-158.83L124.56,-159.03ZM141.16,-153.11L150.16,-146.61L158.77,-136.25L170.19,-100.87L156.20,-77.89L145.80,-72.87L134.03,-72.70ZM209.59,-225.38L225.11,-230.01L220.26,-247.70L199.48,-242.46L186.91,-226.30L186.62,-202.87L174.90,-219.67L159.79,-209.12L226.82,-113.05L244.27,-123.82L207.69,-176.25L197.51,-203.92ZM298.85,-161.89L315.64,-173.61L278.81,-226.41L268.69,-256.42L281.66,-278.28L302.47,-281.98L320.67,-265.60L362.19,-206.08L378.98,-217.80L337.46,-277.32L310.46,-302.47L274.99,-295.13L259.64,-278.48L256.04,-255.47L246.28,-269.46L231.16,-258.92ZM416.69,-340.85L373.69,-285.89L378.73,-254.93L404.10,-239.87L432.59,-249.49L447.60,-264.99L455.37,-287.78L463.13,-276.51L478.80,-287.44L435.16,-350.04L406.46,-372.36L370.60,-361.88L348.93,-337.28L349.44,-309.49L368.47,-310.59L366.73,-331.30L378.45,-346.98L398.11,-353.59ZM427.05,-326.00L444.17,-301.43L439.56,-282.75L425.72,-265.06L410.79,-259.51L396.11,-268.16L394.40,-286.57ZM486.66,-418.69L502.18,-423.31L497.33,-441.00L476.55,-435.76L463.98,-419.61L463.69,-396.18L451.98,-412.97L436.86,-402.42L503.89,-306.35L521.34,-317.12L484.77,-369.55L474.58,-397.22ZM561.03,-544.53L544.23,-532.81L577.31,-485.41L560.08,-487.68L541.82,-480.72L520.50,-444.13L535.88,-398.77L573.14,-368.67L614.84,-376.05L628.14,-392.05L630.58,-413.02L639.82,-399.78L654.75,-410.19ZM552.74,-467.13L578.69,-470.94L606.51,-448.04L617.67,-413.54L605.84,-391.01L580.36,-387.51L553.02,-410.72L540.67,-444.41Z" fill="#ffffff" stroke="#000000"/>
    <path d="M-519.53,209.60L-565.33,152.60L-500.08,100.18L-454.28,157.18L-437.62,143.79L-539.09,17.50L-555.75,30.89L-512.06,85.27L-577.31,137.69L-621.00,83.32L-637.66,96.70L-536.20,222.99ZM-406.93,90.58L-435.58,73.77L-367.88,19.36L-372.08,12.34L-409.37,-12.68L-451.92,-0.83L-472.38,37.09L-454.97,82.57L-414.30,109.37L-372.86,97.57L-352.99,68.93L-356.10,40.49L-374.56,42.69L-371.58,65.98L-382.75,83.42ZM-445.21,60.71L-452.08,31.87L-441.17,12.58L-417.16,5.80L-394.17,19.70ZM-300.98,34.01L-402.45,-92.28L-418.24,-79.59L-316.77,46.70ZM-262.40,3.01L-363.86,-123.28L-379.65,-110.60L-278.18,15.69ZM-278.41,-140.13L-299.32,-101.84L-282.35,-56.00L-241.24,-29.56L-199.35,-41.73L-178.45,-80.03L-195.39,-125.87L-236.50,-152.31ZM-210.13,-55.14L-235.83,-48.25L-266.23,-68.93L-279.87,-103.09L-267.62,-126.70L-241.90,-133.60L-211.48,-112.92L-197.85,-78.76ZM-131.24,-102.50L-123.88,-87.69L-126.50,-75.70L-116.62,-73.13L-113.40,-90.73L-122.50,-109.52L-126.71,-114.76L-132.66,-122.17L-142.11,-123.20L-149.52,-117.24L-150.55,-107.80L-144.59,-100.39L-135.15,-99.36ZM-30.87,-183.01L-132.33,-309.30L-149.00,-295.91L-47.53,-169.62ZM-83.14,-320.09L-75.77,-305.29L-78.39,-293.29L-68.41,-290.81L-65.30,-308.33L-74.39,-327.11L-78.60,-332.35L-84.56,-339.76L-94.00,-340.79L-101.41,-334.84L-101.41,-334.84L-102.44,-325.39L-96.49,-317.98L-87.04,-316.95ZM35.67,-236.47L51.49,-249.18L13.58,-296.36L-0.89,-323.19L9.20,-348.78L26.10,-353.00L42.88,-340.43L90.81,-280.77L106.60,-293.46L64.18,-346.25L53.79,-370.73L64.48,-393.19L83.64,-396.78L99.62,-383.07L146.11,-325.20L161.90,-337.89L110.88,-401.38L85.30,-418.77L56.96,-409.53L43.67,-392.35L42.28,-368.48L22.39,-374.36L2.22,-365.42L-11.46,-348.53L-12.94,-326.14L-23.37,-339.12L-37.58,-327.70ZM-672.38,592.17L-705.92,550.42L-703.21,518.23L-607.40,542.28L-601.86,520.79L-701.25,497.32L-693.90,416.66L-713.77,415.28L-721.98,530.43L-773.84,465.88L-790.51,479.27L-689.04,605.56ZM-594.47,398.72L-579.46,393.12L-585.44,375.99L-605.59,382.55L-616.91,399.33L-615.63,422.47L-628.31,406.68L-642.52,418.10L-569.96,508.41L-553.46,496.62L-593.05,447.34L-604.95,420.71ZM-575.27,338.97L-574.58,328.14L-581.73,319.21L-592.68,317.49L-600.79,324.01L-601.33,334.93L-594.18,343.84L-583.38,345.48ZM-485.93,442.37L-559.21,351.16L-574.99,363.84L-501.71,455.05ZM-476.28,388.12L-484.66,405.16L-461.34,415.89L-428.13,401.89L-407.50,374.75L-413.25,343.42L-435.38,330.40L-457.08,334.85L-482.97,346.18L-498.59,350.95L-508.32,346.77L-510.47,333.70L-498.24,318.44L-480.82,310.86L-465.35,317.53L-457.10,300.59L-477.10,291.52L-508.47,304.48L-528.45,331.16L-522.30,360.93L-501.84,372.04L-479.94,366.88L-452.69,354.77L-437.83,351.58L-428.25,357.77L-426.78,374.03L-438.40,388.00L-459.60,395.96ZM-336.94,324.68L-336.94,324.67L-349.69,312.53L-355.91,319.27L-366.61,321.53L-377.20,311.14L-419.34,258.70L-403.73,246.15L-413.45,234.05L-429.06,246.59L-454.43,215.02L-470.21,227.70L-444.85,259.28L-457.83,269.70L-448.10,281.81L-435.12,271.38L-392.99,323.82L-371.69,342.95L-347.65,336.06ZM-393.73,193.11L-393.04,182.28L-400.19,173.35L-411.14,171.63L-419.25,178.15L-419.79,189.07L-412.64,197.99L-401.84,199.63ZM-304.39,296.51L-377.67,205.30L-393.45,217.98L-320.17,309.19ZM-275.06,172.29L-313.82,229.39L-306.76,259.61L-280.73,272.77L-253.26,261.37L-239.48,245.07L-233.34,222.07L-224.93,232.67L-210.20,220.83L-257.45,161.98L-287.27,141.87L-321.94,154.61L-341.68,180.34L-339.32,207.73L-320.62,205.37L-323.71,185.05L-313.20,168.80L-294.24,160.95ZM-263.84,186.24L-245.30,209.34L-248.61,228.09L-261.08,246.47L-275.44,252.94L-290.50,245.39L-293.42,227.33ZM-186.43,201.74L-170.64,189.05L-210.52,139.41L-222.51,110.48L-211.17,88.04L-190.89,83.00L-171.84,97.94L-126.88,153.89L-111.10,141.21L-156.05,85.26L-184.38,62.24L-218.89,71.86L-232.92,89.31L-234.93,112.27L-245.50,99.11L-259.71,110.53ZM-37.46,82.13L11.23,43.01L40.63,7.57L30.79,-31.93L8.24,-45.60L-20.01,-40.58L-12.85,-64.81L-21.86,-85.31L-54.95,-100.39L-92.82,-81.34L-139.00,-44.24ZM-78.48,-3.35L-110.14,-42.70L-84.53,-63.28L-60.51,-78.35L-37.69,-69.08L-33.98,-46.02L-50.75,-25.63ZM-32.60,53.74L-66.51,11.49L-36.98,-12.23L-11.06,-26.26L12.70,-17.42L18.19,7.08L-0.73,28.13ZM4.78,-127.07L5.47,-137.90L-1.68,-146.83L-12.64,-148.55L-20.74,-142.03L-21.28,-131.11L-14.13,-122.19L-3.33,-120.55ZM78.55,24.89L78.54,24.89L86.00,40.58L98.80,33.18L111.40,8.27L98.25,-18.37L20.83,-114.87L5.05,-102.19L76.63,-13.11L90.47,7.64L87.64,19.63ZM127.04,-175.97L127.37,-190.65L110.46,-191.21L110.17,-178.27L93.64,-175.89L78.11,-166.81L57.21,-128.53L74.17,-82.68L90.26,-66.98L107.76,-59.16L107.39,-44.13L124.29,-43.58L124.63,-56.85L141.32,-59.10L157.17,-68.41L178.07,-106.69L161.11,-152.53L144.85,-168.25ZM107.98,-80.42L99.12,-86.16L90.27,-95.62L76.62,-129.78L88.89,-153.40L98.46,-158.80L109.76,-159.77ZM126.53,-155.04L135.84,-149.23L145.03,-139.58L158.67,-105.43L146.40,-81.81L136.47,-76.17L124.87,-75.21ZM189.22,-230.93L204.22,-236.53L198.25,-253.66L178.10,-247.10L166.78,-230.32L168.06,-207.18L155.37,-222.97L141.17,-211.55L213.73,-121.24L230.23,-133.03L190.63,-182.32L178.74,-208.94ZM281.54,-174.25L297.33,-186.93L257.45,-236.57L245.46,-265.51L256.80,-287.94L277.08,-292.98L296.13,-278.04L341.09,-222.09L356.87,-234.78L311.92,-290.73L283.59,-313.74L249.08,-304.13L235.05,-286.67L233.04,-263.72L222.47,-276.87L208.26,-265.46ZM385.85,-358.71L347.09,-301.61L354.14,-271.40L380.18,-258.23L407.65,-269.63L421.43,-285.93L427.57,-308.94L435.98,-298.33L450.71,-310.17L403.46,-369.02L373.64,-389.13L338.96,-376.39L319.22,-350.66L321.59,-323.27L340.29,-325.64L337.19,-345.95L347.71,-362.20L366.67,-370.05ZM397.06,-344.76L415.61,-321.66L412.30,-302.91L399.83,-284.53L385.47,-278.07L370.41,-285.62L367.49,-303.67ZM449.69,-440.20L464.69,-445.80L458.72,-462.94L438.57,-456.37L427.25,-439.59L428.53,-416.45L415.84,-432.24L401.64,-420.83L474.20,-330.51L490.70,-342.30L451.10,-391.59L439.21,-418.22ZM514.65,-569.35L498.86,-556.67L534.67,-512.10L517.52,-513.20L499.96,-505.10L481.38,-467.57L499.59,-423.84L538.37,-396.64L579.02,-406.70L591.08,-423.39L592.08,-444.24L602.08,-431.79L616.12,-443.06ZM511.65,-492.42L537.00,-497.92L565.98,-477.19L579.30,-443.89L569.14,-420.86L544.23,-415.71L515.70,-436.78L501.25,-469.20Z" fill="#ffffff" stroke="#000000"/>
    <path d="M-906.35,492L-906.35,469.28L-898.22,492L-894.99,492L-886.86,469.28L-886.86,492L-883.25,492L-883.25,464.64L-888.22,464.64L-896.55,487.33L-904.68,464.64L-909.96,464.64L-909.96,492ZM-865.67,478.75L-876.82,482.17L-879.09,486.89L-877.05,491.38L-872.23,492.78L-868.69,492.09L-865.45,489.71L-865.46,492L-862.27,492L-862.27,479.25L-864.06,473.45L-869.98,471.46L-875.30,472.76L-877.88,476.62L-875.17,478.28L-873.43,475.28L-870.33,474.25L-867.00,475.23ZM-865.67,481.77L-865.68,486.77L-868.09,488.89L-871.68,489.99L-874.26,489.33L-875.44,486.74L-873.91,484.05ZM-857.12,492L-853.70,492L-853.70,481.25L-852.22,476.17L-848.35,474.41L-845.15,475.90L-844.22,479.88L-844.22,492L-840.80,492L-840.80,479.88L-842.09,473.85L-847.66,471.47L-851.35,472.28L-854.04,475.09L-854.04,472.24L-857.12,472.24ZM-833.34,468.94L-832.11,467.58L-832.10,465.65L-833.36,464.27L-835.12,464.27L-836.35,465.65L-836.35,467.58L-835.10,468.94ZM-832.52,492L-832.52,472.24L-835.94,472.24L-835.94,492ZM-818.31,468.12L-817.85,465.29L-820.94,464.71L-825.30,466.41L-826.70,471.29L-826.70,472.24L-829.67,472.24L-829.67,474.86L-826.70,474.86L-826.70,492L-823.40,492L-823.40,474.86L-819.56,474.86L-819.56,472.24L-823.40,472.24L-823.40,471.21L-822.75,468.65L-820.52,467.74ZM-807.97,471.46L-814.77,474.29L-817.39,482.12L-814.77,489.95L-807.97,492.78L-801.17,489.95L-798.55,482.12L-801.16,474.29ZM-807.97,489.87L-812.08,488.06L-813.90,482.12L-812.08,476.18L-807.97,474.37L-803.85,476.18L-802.04,482.12L-803.85,488.06ZM-795.03,492L-791.61,492L-791.61,481.25L-790.13,476.17L-786.26,474.41L-783.06,475.90L-782.13,479.88L-782.13,492L-778.71,492L-778.71,479.88L-780.00,473.85L-785.56,471.47L-789.26,472.28L-791.95,475.09L-791.95,472.24L-795.03,472.24ZM-765.45,492.27L-765.45,492.26L-765.85,489.32L-767.38,489.55L-769.03,488.71L-769.32,486.22L-769.32,474.86L-765.94,474.86L-765.94,472.24L-769.32,472.24L-769.32,465.40L-772.74,465.40L-772.74,472.24L-775.55,472.24L-775.55,474.86L-772.74,474.86L-772.74,486.22L-771.96,491.00L-768.07,492.63ZM-737.50,487.93L-737.50,478.13L-749.05,478.13L-749.05,481.31L-740.99,481.31L-740.97,486.22L-748.63,489.75L-755.95,486.41L-758.55,478.32L-756.06,470.17L-749.21,466.88L-744.27,468.25L-741.30,473.01L-738.24,471.11L-741.44,465.93L-749.13,463.79L-758.98,468.04L-762.42,478.32L-758.78,488.60L-748.74,492.86ZM-724.35,474.77L-721.78,475.62L-720.76,472.73L-724.11,471.47L-727.37,472.48L-729.65,475.66L-729.65,472.24L-732.73,472.24L-732.73,491.81L-729.31,492L-729.31,481.32L-728.06,476.56ZM-710.01,471.46L-716.81,474.29L-719.42,482.12L-716.81,489.95L-710.01,492.78L-703.20,489.95L-700.58,482.12L-703.20,474.29ZM-710.01,489.87L-714.12,488.06L-715.93,482.12L-714.12,476.18L-710.01,474.37L-705.89,476.18L-704.07,482.12L-705.89,488.06ZM-688.58,492.27L-688.58,492.26L-688.97,489.32L-690.51,489.55L-692.15,488.71L-692.45,486.22L-692.45,474.86L-689.07,474.86L-689.07,472.24L-692.45,472.24L-692.45,465.40L-695.87,465.40L-695.87,472.24L-698.68,472.24L-698.68,474.86L-695.87,474.86L-695.87,486.22L-695.09,491.00L-691.19,492.63ZM-680.57,488.24L-682.57,483.00L-667.90,482.99L-667.71,481.63L-669.97,474.39L-676.83,471.45L-683.53,474.28L-686.05,482.11L-683.53,489.93L-676.83,492.76L-671.18,491.10L-668.58,487.02L-671.25,485.36L-673.32,488.74L-676.63,489.86ZM-682.45,480.26L-680.31,475.73L-676.83,474.35L-672.95,476.00L-671.40,480.26ZM-661.99,485.88L-664.90,487.24L-662.96,491.11L-657.11,492.78L-651.52,491.39L-648.97,486.66L-650.50,482.61L-653.83,480.90L-658.44,479.65L-661.00,478.62L-661.84,477.05L-660.74,475.10L-657.52,474.38L-654.42,475.23L-653.09,477.74L-650.21,476.38L-651.88,473.07L-657.39,471.46L-662.84,472.86L-665.18,477.43L-663.66,481.06L-660.23,482.69L-655.36,483.98L-653.07,485.13L-652.46,486.96L-653.99,489.26L-656.99,489.87L-660.63,488.67ZM-641.92,483.45L-638.72,483.45L-637.20,484.67L-633.14,492.30L-630.05,490.63L-634.16,483.45L-636.67,482.04L-634.62,480.06L-632.77,476.14L-631.66,475.64L-630.10,475.39L-630.56,472.24L-633.40,472.52L-635.30,474.17L-637.43,478.82L-638.72,480.60L-641.91,480.60L-641.91,464.64L-643.66,464.64L-645.32,464.64L-645.33,492L-641.92,492ZM-625.58,492.01L-615.04,492.01L-607.42,490.45L-604.53,484.21L-606.06,480.03L-610.31,477.70L-606.80,475.27L-605.82,471.62L-608.58,466.13L-615.58,464.63L-625.58,464.63ZM-621.94,476.42L-621.95,467.89L-616.40,467.89L-611.64,468.44L-609.62,472.08L-611.57,475.51L-615.93,476.42ZM-621.94,488.79L-621.94,479.64L-615.54,479.64L-610.64,480.53L-608.45,484.21L-610.32,488.02L-615.04,488.79ZM-592.40,471.46L-599.20,474.29L-601.81,482.12L-599.20,489.95L-592.40,492.78L-585.59,489.95L-582.97,482.12L-585.59,474.29ZM-592.40,489.87L-596.51,488.06L-598.32,482.12L-596.51,476.18L-592.40,474.37L-588.28,476.18L-586.46,482.12L-588.28,488.06ZM-571.27,471.46L-578.07,474.29L-580.68,482.12L-578.07,489.95L-571.27,492.78L-564.46,489.95L-561.85,482.12L-564.46,474.29ZM-571.27,489.87L-575.38,488.06L-577.19,482.12L-575.38,476.18L-571.27,474.37L-567.15,476.18L-565.33,482.12L-567.15,488.06ZM-554.82,483.45L-551.62,483.45L-550.10,484.67L-546.04,492.30L-542.96,490.63L-547.06,483.45L-549.57,482.04L-547.52,480.06L-545.67,476.14L-544.56,475.64L-543.00,475.39L-543.46,472.24L-546.31,472.52L-548.20,474.17L-550.34,478.82L-551.62,480.60L-554.82,480.60L-554.82,464.64L-556.56,464.64L-558.23,464.64L-558.23,492L-554.82,492Z"/>
</svg>