<?xml version="1.0"?>
<svg xmlns="http://www.w3.org/2000/svg" width="1920" height="1080" viewBox="-960 -540 1920 1080">
    <path d="M-580.25,-210L-580.25,-368.75L-519.75,-368.75L-519.75,-390L-664.50,-390L-664.50,-368.75L-604,-368.75L-604,-210ZM-499.25,-210L-476.59,-210L-476.59,-280.75L-466.83,-313.69L-441.42,-325.23L-420.33,-315.48L-414.24,-288.92L-414.25,-210L-391.81,-210L-391.71,-289.10L-400.25,-328.93L-436.84,-344.62L-460.84,-339.11L-476.62,-322.25L-476.62,-390L-499.25,-390ZM-332.38,-234.73L-345.50,-269.23L-249,-269.25L-247.75,-278.25L-262.64,-325.87L-307.74,-345.22L-351.85,-326.61L-368.42,-275.10L-351.85,-223.59L-307.74,-204.97L-270.60,-215.94L-253.50,-242.75L-271.02,-253.69L-284.65,-231.44L-306.46,-224.11ZM-344.75,-287.25L-330.63,-317.01L-307.76,-326.13L-282.25,-315.28L-272,-287.25ZM-99.14,-323.34L-82.25,-317.75L-75.50,-336.75L-97.52,-345.09L-119.00,-338.43L-134,-317.50L-134,-340L-154.25,-340L-154.25,-211.27L-131.75,-210L-131.75,-280.25L-123.52,-311.59ZM-4.76,-345.13L-49.51,-326.51L-66.72,-275.00L-49.51,-223.49L-4.76,-204.88L40.00,-223.50L57.22,-275.00L40.02,-326.51ZM-4.76,-223.99L-31.81,-235.91L-43.75,-274.98L-31.80,-314.06L-4.76,-325.99L22.32,-314.06L34.28,-274.98L22.32,-235.91ZM103.50,-210L103.50,-390L81,-390L81,-210ZM163.37,-234.73L150.25,-269.23L246.75,-269.25L248,-278.25L233.11,-325.87L188.01,-345.22L143.90,-326.61L127.33,-275.10L143.90,-223.59L188.01,-204.97L225.15,-215.94L242.25,-242.75L224.73,-253.69L211.10,-231.44L189.29,-224.11ZM151,-287.25L165.12,-317.01L187.99,-326.13L213.50,-315.28L223.75,-287.25ZM394.74,-345.13L349.99,-326.51L332.78,-275.00L349.99,-223.49L394.74,-204.88L439.50,-223.50L456.72,-275.00L439.52,-326.51ZM394.74,-223.99L367.69,-235.91L355.75,-274.98L367.70,-314.06L394.74,-325.99L421.82,-314.06L433.78,-274.98L421.82,-235.91ZM541.49,-367.07L544.50,-385.75L524.14,-389.53L495.46,-378.37L486.25,-346.25L486.25,-340L466.75,-340L466.75,-322.75L486.25,-322.75L486.25,-210L508,-210L508,-322.75L533.25,-322.75L533.25,-340L508,-340L508,-346.75L512.24,-363.60L526.95,-369.63ZM-858.88,-165L-881.38,-165L-881.38,-101.48L-895.47,-114.37L-916.31,-119.57L-958.53,-100.00L-973.19,-49.45L-958.53,1.11L-916.31,20.68L-894.26,14.62L-878.88,-2.75L-878.88,15L-858.88,15ZM-915.01,-100.45L-889.23,-87.57L-878.55,-49.45L-890.19,-11.33L-915.01,1.54L-940.18,-11.33L-950.22,-49.45L-940.18,-87.57ZM-799.01,-9.73L-812.12,-44.23L-715.63,-44.25L-714.38,-53.25L-729.26,-100.87L-774.36,-120.22L-818.47,-101.61L-835.05,-50.10L-818.47,1.41L-774.36,20.03L-737.22,9.06L-720.13,-17.75L-737.64,-28.69L-751.28,-6.44L-773.09,0.89ZM-811.38,-62.25L-797.25,-92.01L-774.38,-101.13L-748.88,-90.28L-738.63,-62.25ZM-676.77,-25.27L-695.88,-16.34L-683.16,9.17L-644.64,20.16L-607.89,11.01L-591.06,-20.13L-601.17,-46.80L-623.07,-58.06L-653.38,-66.25L-670.22,-73L-675.75,-83.38L-668.51,-96.21L-647.30,-100.91L-626.93,-95.35L-618.17,-78.81L-599.24,-87.74L-610.25,-109.52L-646.45,-120.13L-682.31,-110.92L-697.71,-80.85L-687.72,-56.99L-665.16,-46.22L-633.13,-37.75L-618.03,-30.17L-614.04,-18.13L-624.09,-3.03L-643.88,0.98L-667.78,-6.88ZM-550.05,-136.74L-541.92,-145.64L-541.90,-158.35L-550.19,-167.46L-561.75,-167.46L-569.82,-158.37L-569.83,-145.67L-561.61,-136.74ZM-544.63,15L-544.63,-115L-567.13,-115L-567.13,15ZM-463.15,69.39L-416.58,49.85L-405.38,6.50L-405.38,-115L-425.38,-115L-425.38,-97.50L-440.10,-114.11L-462.90,-120.61L-505.10,-101.04L-519.75,-50.49L-505.10,0.06L-462.90,19.63L-442.76,14.83L-427.88,1.25L-427.94,10.79L-435.89,39.89L-462.62,50.00L-483.43,44.13L-491.63,26.50L-509.63,34.75L-498.28,58.67ZM-461.62,-101.48L-436.77,-88.59L-425.13,-50.47L-435.83,-12.35L-461.62,0.52L-486.75,-12.35L-496.79,-50.47L-486.75,-88.59ZM-373.24,15L-350.74,15L-350.74,-55.75L-340.99,-89.15L-315.56,-100.70L-294.48,-90.95L-288.38,-64.75L-288.38,15L-265.88,15L-265.88,-64.75L-274.39,-104.40L-310.98,-120.09L-335.28,-114.73L-352.99,-96.25L-352.99,-115L-373.24,-115ZM-70.40,0.28L-55.13,17L-38.88,2.50L-56.87,-17.48L-45.85,-42.67L-44.63,-70.50L-66.86,-71.74L-67.45,-52.46L-72.86,-34.99L-105.86,-71.49L-73.16,-98.23L-63.74,-126.00L-73.85,-155.68L-111.67,-170.63L-146.60,-158.99L-161.42,-123.44L-151.02,-87.89L-139.65,-74.74L-162.27,-55.92L-171.86,-27.55L-158.33,6.40L-116.30,20.65L-90.37,15.62ZM-118.11,0.26L-138.90,-7.04L-147.64,-27.55L-141.65,-44.98L-125.39,-59.48L-84.64,-14.97L-98.54,-3.50ZM-94.76,-105.27L-119.16,-86.45L-133.71,-104.73L-138.24,-123.40L-131.86,-141.57L-111.71,-150.17L-92.77,-142.27L-87.00,-125.95ZM115.47,1.01L89.04,-10.92L77.73,-50.00L89.04,-89.08L115.47,-101.01L135.92,-93.90L148.36,-70.90L167.73,-80.60L151.03,-108.49L115.47,-120.13L71.35,-101.51L54.77,-50.00L71.33,1.51L115.47,20.12L151.03,8.62L167.48,-18.64L148.36,-28.82L135.90,-6.06ZM216.88,15L216.88,-165L194.38,-165L194.38,15ZM266.45,-136.74L274.58,-145.64L274.60,-158.35L266.31,-167.46L254.75,-167.46L246.68,-158.37L246.67,-145.67L254.89,-136.74ZM271.88,15L271.88,-115L249.38,-115L249.38,15ZM303.20,15L325.76,15L325.76,-52.25L331.89,-85.56L358.44,-100.70L376.02,-92.60L381.80,-70.03L381.80,15L404.30,15L404.30,-60.25L412.35,-88.68L437.23,-100.70L456.32,-90.47L460.63,-67.48L460.63,15L483.13,15L483.13,-75.50L473.07,-108.36L442.08,-120.09L418.62,-114.45L400.80,-94.75L387.67,-113.68L363.98,-119.97L340.37,-114.87L323.51,-96.50L323.51,-115L303.26,-115ZM593.48,-72.19L520.17,-49.70L505.25,-18.62L518.64,10.90L550.36,20.14L573.64,15.62L594.97,-0.04L594.88,15L615.88,15L615.91,-68.86L604.07,-107.03L565.16,-120.13L530.16,-111.58L513.15,-86.21L531.00,-75.24L542.45,-95.00L562.87,-101.75L584.75,-95.35ZM593.48,-52.30L593.46,-19.38L577.55,-5.45L553.96,1.79L537.02,-2.60L529.23,-19.62L539.27,-37.29ZM705.57,16.74L705.58,16.74L702.98,-2.65L692.90,-1.14L682.06,-6.63L680.13,-23L680.13,-97.75L702.38,-97.75L702.38,-115L680.13,-115L680.13,-160L657.63,-160L657.63,-115L639.13,-115L639.13,-97.75L657.63,-97.75L657.63,-23L662.76,8.39L688.38,19.15ZM758.24,-9.73L745.13,-44.23L841.63,-44.25L842.88,-53.25L827.99,-100.87L782.89,-120.22L738.78,-101.61L722.20,-50.10L738.78,1.41L782.89,20.03L820.03,9.06L837.13,-17.75L819.61,-28.69L805.97,-6.44L784.16,0.89ZM745.88,-62.25L760.00,-92.01L782.87,-101.13L808.37,-90.28L818.63,-62.25ZM-371.78,226.01L-398.21,214.08L-409.52,175.00L-398.21,135.92L-371.78,123.99L-351.33,131.10L-338.89,154.10L-319.52,144.40L-336.22,116.51L-371.78,104.88L-415.90,123.49L-432.48,175.00L-415.92,226.51L-371.78,245.12L-336.22,233.62L-319.77,206.36L-338.89,196.18L-351.35,218.94ZM-293.63,240L-270.96,240L-270.96,169.25L-261.21,136.31L-235.80,124.77L-214.70,134.52L-208.61,161.08L-208.63,240L-186.18,240L-186.08,160.90L-194.63,121.07L-231.21,105.38L-255.21,110.89L-271.00,127.75L-271.00,60L-293.63,60ZM-74.77,152.81L-148.08,175.30L-163.00,206.38L-149.61,235.90L-117.89,245.14L-94.61,240.62L-73.28,224.96L-73.38,240L-52.38,240L-52.34,156.14L-64.18,117.97L-103.09,104.87L-138.09,113.42L-155.10,138.79L-137.25,149.76L-125.80,130.00L-105.38,123.25L-83.50,129.65ZM-74.77,172.70L-74.79,205.62L-90.70,219.55L-114.29,226.79L-131.23,222.40L-139.02,205.38L-128.98,187.71ZM-18.49,240L4.01,240L4.01,169.25L13.76,135.85L39.19,124.30L60.27,134.05L66.38,160.25L66.38,240L88.88,240L88.88,160.25L80.36,120.60L43.77,104.91L19.47,110.27L1.76,128.75L1.76,110L-18.49,110ZM169.85,294.39L216.42,274.85L227.63,231.50L227.63,110L207.63,110L207.63,127.50L192.90,110.89L170.10,104.39L127.90,123.96L113.25,174.51L127.90,225.06L170.10,244.63L190.24,239.83L205.13,226.25L205.06,235.79L197.11,264.89L170.38,275.00L149.57,269.13L141.38,251.50L123.38,259.75L134.72,283.67ZM171.38,123.52L196.23,136.41L207.87,174.53L197.17,212.65L171.38,225.52L146.25,212.65L136.21,174.53L146.25,136.41ZM287.74,215.27L274.63,180.77L371.13,180.75L372.38,171.75L357.49,124.13L312.39,104.78L268.28,123.39L251.70,174.90L268.28,226.41L312.39,245.03L349.53,234.06L366.63,207.25L349.11,196.31L335.47,218.56L313.66,225.89ZM275.38,162.75L289.50,132.99L312.37,123.87L337.87,134.72L348.13,162.75Z" fill="#ffffff" stroke="#000000"/>
    <path d="M-584.63,-192.49L-587.99,-349.62L-528.10,-350.90L-528.55,-371.93L-671.82,-368.87L-671.37,-347.84L-611.49,-349.12L-608.14,-191.99ZM-504.46,-194.20L-482.03,-194.68L-483.52,-264.71L-474.57,-297.51L-449.66,-309.48L-428.57,-300.27L-421.98,-274.12L-420.33,-196.00L-398.12,-196.48L-399.69,-274.77L-408.99,-314.01L-445.53,-328.77L-469.17,-322.81L-484.43,-305.78L-485.86,-372.84L-508.26,-372.36ZM-339.82,-222.21L-353.53,-256.08L-258.02,-258.14L-256.97,-267.07L-272.72,-313.89L-317.76,-332.09L-361.03,-312.73L-376.34,-261.40L-358.85,-210.77L-314.80,-193.28L-278.27,-204.92L-261.91,-231.81L-279.48,-242.27L-292.51,-219.96L-313.94,-212.25ZM-353.17,-273.93L-339.82,-303.68L-317.38,-313.19L-291.90,-303.00L-281.17,-275.47ZM-110.84,-314.84L-94.00,-309.67L-87.72,-328.61L-109.69,-336.40L-130.81,-329.36L-145.22,-308.32L-145.69,-330.59L-165.73,-330.17L-163.01,-202.75L-140.72,-201.97L-142.20,-271.50L-134.72,-302.70ZM-17.88,-338.40L-61.78,-319.03L-77.72,-267.68L-59.60,-217.06L-14.91,-199.59L28.99,-218.96L44.95,-270.30L26.83,-320.92ZM-15.32,-218.51L-42.35,-229.73L-54.99,-268.15L-43.99,-307.08L-17.47,-319.46L9.58,-308.23L22.24,-269.80L11.23,-230.87ZM92.13,-206.94L88.32,-385.10L66.05,-384.63L69.86,-206.47ZM150.86,-232.69L137.15,-266.56L232.66,-268.62L233.71,-277.55L217.96,-324.37L172.92,-342.57L129.65,-323.21L114.34,-271.88L131.83,-221.25L175.88,-203.76L212.41,-215.40L228.77,-242.29L211.20,-252.75L198.17,-230.44L176.74,-222.72ZM137.51,-284.41L150.86,-314.16L173.30,-323.67L198.78,-313.48L209.52,-285.95ZM377.54,-346.84L333.63,-327.47L317.69,-276.13L335.82,-225.51L380.50,-208.03L424.41,-227.41L440.36,-278.75L422.25,-329.37ZM380.10,-226.95L353.07,-238.17L340.42,-276.59L351.42,-315.53L377.94,-327.90L404.99,-316.67L417.66,-278.24L406.65,-239.32ZM522.32,-371.67L524.90,-390.22L504.67,-393.53L476.52,-381.87L468.08,-349.89L468.22,-343.70L448.92,-343.29L449.28,-326.22L468.58,-326.63L470.96,-215.03L492.49,-215.49L490.11,-327.09L515.10,-327.62L514.74,-344.70L489.74,-344.16L489.60,-350.85L493.45,-367.61L507.87,-373.89ZM-859.46,-142.06L-881.73,-141.59L-880.38,-78.72L-894.60,-91.17L-915.34,-95.88L-956.71,-75.62L-970.15,-25.28L-954.58,24.45L-912.38,42.93L-890.68,36.46L-875.82,18.95L-875.45,36.52L-855.65,36.10ZM-913.65,-76.99L-887.86,-64.79L-876.48,-27.28L-887.20,10.70L-911.50,23.96L-936.68,11.75L-947.43,-25.76L-938.29,-63.71ZM-796.92,10.35L-810.63,-23.52L-715.12,-25.58L-714.07,-34.51L-729.81,-81.33L-774.86,-99.53L-818.13,-80.17L-833.44,-28.84L-815.95,21.79L-771.90,39.28L-735.37,27.64L-719.01,0.75L-736.58,-9.71L-749.60,12.60L-771.04,20.32ZM-810.27,-41.37L-796.92,-71.12L-774.48,-80.63L-749.00,-70.44L-738.26,-42.91ZM-676.26,-7.62L-694.99,1.63L-681.85,26.61L-643.50,36.68L-607.32,26.84L-591.32,-4.33L-601.89,-30.52L-623.80,-41.20L-653.97,-48.67L-670.79,-54.99L-676.48,-65.15L-669.59,-78.00L-648.69,-83.10L-628.41,-78.03L-619.39,-61.85L-600.84,-71.08L-612.20,-92.40L-648.25,-102.14L-683.55,-92.27L-698.16,-62.18L-687.77,-38.77L-665.21,-28.60L-633.32,-20.89L-618.23,-13.70L-614.02,-1.87L-623.65,13.29L-643.15,17.68L-666.97,10.40ZM-553.20,-120.61L-545.33,-129.60L-545.58,-142.18L-553.98,-151.02L-565.42,-150.78L-573.22,-141.61L-572.95,-129.04L-564.63,-120.37ZM-544.61,29.45L-547.36,-99.22L-569.63,-98.74L-566.88,29.93ZM-462.82,81.56L-417.14,61.24L-406.97,18.10L-409.54,-102.16L-429.33,-101.74L-428.96,-84.42L-443.89,-100.54L-466.59,-106.50L-507.95,-86.24L-521.38,-35.89L-505.81,13.83L-463.62,32.31L-443.80,27.14L-429.35,13.38L-429.21,22.82L-436.47,51.79L-462.71,62.36L-483.43,56.99L-491.91,39.72L-509.55,48.26L-497.82,71.70ZM-464.92,-87.59L-440.06,-75.36L-427.73,-37.87L-437.51,0.08L-462.76,13.37L-487.90,1.16L-498.65,-36.36L-489.52,-74.30ZM-374.99,25.83L-352.72,25.36L-354.21,-44.67L-345.26,-77.94L-320.33,-89.90L-299.27,-80.70L-292.67,-54.90L-290.98,24.04L-268.71,23.56L-270.40,-55.37L-279.67,-94.43L-316.21,-109.19L-340.15,-103.37L-357.29,-84.71L-357.69,-103.27L-377.73,-102.84ZM-75.55,4.87L-60.08,21.09L-44.30,6.39L-62.54,-13.00L-52.16,-38.17L-51.53,-65.74L-73.56,-66.49L-73.75,-47.40L-78.73,-29.99L-112.16,-65.42L-80.36,-92.58L-71.63,-120.26L-82.27,-149.43L-120.01,-163.42L-154.33,-151.17L-168.25,-115.67L-157.21,-80.71L-145.68,-67.93L-167.66,-48.82L-176.56,-20.54L-162.45,12.78L-120.55,25.99L-94.99,20.47ZM-122.77,5.85L-143.50,-0.93L-152.59,-21.05L-147.03,-38.43L-131.24,-53.12L-89.96,-9.94L-103.48,1.72ZM-101.89,-99.10L-125.64,-79.95L-140.43,-97.74L-145.31,-116.12L-139.38,-134.24L-119.62,-143.18L-100.70,-135.76L-94.65,-119.73ZM108.44,1.65L82.03,-9.59L70.00,-48.04L80.37,-86.96L106.28,-99.32L126.67,-92.71L139.47,-70.22L158.44,-80.22L141.32,-107.47L105.88,-118.24L62.60,-98.89L47.28,-47.55L64.76,3.08L108.84,20.57L143.80,8.44L159.50,-18.89L140.36,-28.57L128.51,-5.78ZM209.10,13.36L205.29,-164.80L183.02,-164.32L186.83,13.83ZM254.96,-137.87L262.82,-146.85L262.57,-159.44L254.17,-168.28L242.73,-168.04L234.93,-158.87L235.20,-146.30L243.52,-137.63ZM263.54,12.20L260.79,-116.47L238.52,-116.00L241.27,12.67ZM294.55,11.53L316.87,11.06L315.44,-55.50L320.82,-88.60L346.77,-104.15L364.35,-96.50L370.54,-74.29L372.34,9.87L394.61,9.40L393.02,-65.08L400.38,-93.40L424.76,-105.81L443.87,-96.09L448.61,-73.43L450.36,8.21L472.63,7.73L470.71,-81.84L460.07,-114.16L429.15,-125.11L406.05,-119.03L388.83,-99.16L375.42,-117.61L351.85,-123.34L328.59,-117.79L312.28,-99.25L311.89,-117.57L291.85,-117.14ZM580.01,-80.89L507.92,-57.09L493.81,-26.01L507.69,2.93L539.29,11.40L562.23,6.43L583.01,-9.52L583.23,5.37L604.02,4.93L602.28,-78.08L589.75,-115.60L550.97,-127.75L516.51,-118.55L500.21,-93.08L518.10,-82.60L529.02,-102.39L549.09,-109.51L570.88,-103.64ZM580.43,-61.21L581.11,-28.63L565.66,-14.50L542.46,-6.84L525.60,-10.83L517.53,-27.51L527.09,-45.21ZM692.83,4.76L692.84,4.75L689.86,-14.39L679.92,-12.68L669.07,-17.89L666.81,-34.04L665.23,-108.03L687.25,-108.50L686.89,-125.57L664.86,-125.10L663.91,-169.64L641.64,-169.17L642.59,-124.63L624.28,-124.24L624.65,-107.16L642.96,-107.55L644.54,-33.57L650.28,-2.61L675.87,7.50ZM744.41,-22.56L730.70,-56.43L826.21,-58.49L827.26,-67.42L811.51,-114.25L766.46,-132.44L723.20,-113.09L707.89,-61.75L725.38,-11.12L769.43,6.37L805.96,-5.27L822.31,-32.17L804.74,-42.62L791.72,-20.32L770.29,-12.60ZM731.06,-74.28L744.40,-104.03L766.85,-113.54L792.33,-103.35L803.06,-75.82ZM-369.08,234.65L-395.49,223.40L-407.51,184.96L-397.14,146.04L-371.23,133.68L-350.84,140.28L-338.04,162.78L-319.07,152.77L-336.19,125.52L-371.64,114.76L-414.91,134.11L-430.24,185.45L-412.75,236.08L-368.67,253.57L-333.71,241.43L-318.02,214.11L-337.15,204.43L-349.00,227.22ZM-291.43,246.85L-269.00,246.37L-270.49,176.34L-261.53,143.54L-236.62,131.58L-215.54,140.78L-208.95,166.94L-207.29,245.05L-185.08,244.58L-186.66,166.28L-195.96,127.04L-232.50,112.29L-256.13,118.24L-271.40,135.27L-272.83,68.21L-295.23,68.69ZM-76.65,155.93L-148.74,179.74L-162.85,210.81L-148.97,239.75L-117.37,248.22L-94.43,243.25L-73.65,227.31L-73.43,242.19L-52.64,241.75L-54.38,158.74L-66.91,121.22L-105.69,109.08L-140.15,118.28L-156.45,143.74L-138.56,154.23L-127.64,134.43L-107.57,127.31L-85.78,133.18ZM-76.23,175.62L-75.55,208.19L-91.00,222.32L-114.20,229.99L-131.06,226.00L-139.13,209.32L-129.57,191.62ZM-19.11,241.03L3.16,240.56L1.67,170.53L10.62,137.26L35.55,125.30L56.61,134.50L63.21,160.30L64.89,239.24L87.16,238.76L85.48,159.83L76.21,120.77L39.67,106.01L15.73,111.83L-1.42,130.49L-1.81,111.93L-21.86,112.36ZM168.46,290.88L214.14,270.56L224.32,227.42L221.75,107.16L201.95,107.58L202.32,124.90L187.39,108.78L164.70,102.82L123.34,123.08L109.91,173.43L125.47,223.15L167.66,241.63L187.49,236.46L201.93,222.70L202.07,232.14L194.81,261.11L168.58,271.68L147.85,266.31L139.37,249.04L121.73,257.58L133.46,281.02ZM166.36,121.73L191.23,133.96L203.56,171.45L193.78,209.40L168.52,222.69L143.38,210.48L132.63,172.96L141.77,135.02ZM283.47,210.08L269.76,176.21L365.28,174.15L366.32,165.22L350.58,118.40L305.53,100.20L262.27,119.56L246.95,170.89L264.44,221.52L308.50,239.01L345.03,227.37L361.38,200.48L343.81,190.02L330.79,212.33L309.35,220.05ZM270.12,158.36L283.47,128.61L305.91,119.10L331.39,129.29L342.13,156.82Z" fill="#ffffff" stroke="#000000"/>
    <path d="M-588.41,-174.96L-595.05,-330.39L-535.82,-332.92L-536.70,-353.73L-678.43,-347.68L-677.54,-326.87L-618.31,-329.40L-611.66,-173.97ZM-509.10,-178.35L-486.92,-179.30L-489.87,-248.57L-481.70,-281.22L-457.30,-293.59L-436.24,-284.93L-429.17,-259.18L-425.88,-181.91L-403.91,-182.84L-407.12,-260.30L-417.15,-298.94L-453.63,-312.77L-476.89,-306.37L-491.64,-289.20L-494.48,-355.54L-516.63,-354.59ZM-346.76,-209.54L-361.04,-242.77L-266.56,-246.83L-265.71,-255.69L-282.28,-301.70L-327.25,-318.76L-369.66,-298.69L-383.73,-247.56L-365.35,-197.82L-321.38,-181.44L-285.47,-193.73L-269.86,-220.70L-287.47,-230.67L-299.88,-208.32L-320.93,-200.23ZM-361.06,-260.45L-348.48,-290.17L-326.47,-300.06L-301.04,-290.51L-289.83,-263.49ZM-122.10,-306.06L-105.32,-301.29L-99.51,-320.18L-121.42,-327.42L-142.17,-320.01L-155.98,-298.88L-156.92,-320.91L-176.75,-320.07L-171.36,-194.03L-149.28,-193.72L-152.22,-262.51L-145.48,-293.54ZM-30.59,-331.34L-73.64,-311.24L-88.32,-260.09L-69.32,-210.38L-24.73,-194.02L18.32,-214.13L33.02,-265.27L14.02,-314.99ZM-25.53,-212.74L-52.52,-223.27L-65.84,-261.03L-55.78,-299.79L-29.79,-312.60L-2.78,-302.06L10.56,-264.29L0.49,-225.54ZM81.05,-203.57L73.52,-379.80L51.49,-378.86L59.02,-202.62ZM138.63,-230.28L124.35,-263.51L218.83,-267.57L219.68,-276.43L203.11,-322.44L158.14,-339.50L115.73,-319.43L101.66,-268.30L120.04,-218.56L164.01,-202.18L199.92,-214.47L215.53,-241.44L197.92,-251.41L185.51,-229.06L164.46,-220.97ZM124.33,-281.19L136.91,-310.91L158.92,-320.80L184.35,-311.25L195.56,-284.23ZM360.56,-348.05L317.52,-327.96L302.83,-276.80L321.83,-227.09L366.43,-210.74L409.47,-230.84L424.18,-281.99L405.18,-331.70ZM365.63,-229.45L338.64,-239.99L325.31,-277.74L335.38,-316.51L361.36,-329.32L388.37,-318.77L401.71,-281.01L391.64,-242.25ZM503.32,-375.68L505.49,-394.09L485.39,-396.94L457.78,-384.81L450.11,-352.98L450.37,-346.86L431.28,-346.05L432.00,-329.16L451.09,-329.97L455.81,-219.58L477.10,-220.49L472.39,-330.88L497.11,-331.94L496.39,-348.83L471.66,-347.77L471.38,-354.38L474.83,-371.05L488.98,-377.57ZM-859.33,-119.24L-881.36,-118.30L-878.70,-56.11L-893.04,-68.14L-913.66,-72.36L-954.18,-51.43L-966.42,-1.32L-949.95,47.56L-907.80,64.96L-886.46,58.10L-872.13,40.45L-871.38,57.83L-851.80,56.99ZM-911.60,-53.70L-885.81,-42.16L-873.76,-5.28L-883.56,32.52L-907.33,46.16L-932.50,34.61L-943.94,-2.28L-935.69,-40.03ZM-794.22,30.28L-808.51,-2.95L-714.02,-7.01L-713.18,-15.87L-729.75,-61.88L-774.71,-78.94L-817.12,-58.87L-831.19,-7.74L-812.81,42.00L-768.84,58.38L-732.94,46.09L-717.32,19.12L-734.93,9.15L-747.35,31.50L-768.40,39.59ZM-808.53,-20.63L-795.94,-50.35L-773.93,-60.24L-748.50,-50.69L-737.30,-23.67ZM-675.18,9.94L-693.53,19.49L-680.00,43.94L-641.83,53.09L-606.23,42.59L-591.05,11.40L-602.06,-14.30L-623.98,-24.40L-653.99,-31.15L-670.77,-37.06L-676.62,-47.00L-670.07,-59.85L-649.50,-65.35L-629.32,-60.76L-620.05,-44.93L-601.89,-54.46L-613.58,-75.32L-649.47,-84.19L-684.19,-73.68L-698.01,-43.60L-687.23,-20.65L-664.69,-11.05L-632.97,-4.10L-617.88,2.70L-613.47,14.31L-622.67,29.52L-641.88,34.28L-665.61,27.57ZM-555.78,-104.49L-548.19,-113.54L-548.70,-125.99L-557.20,-134.57L-568.52,-134.08L-576.04,-124.85L-575.51,-112.41L-567.10,-104.01ZM-544.12,43.85L-549.56,-83.44L-571.59,-82.49L-566.15,44.79ZM-462.07,93.69L-417.29,72.61L-408.13,29.70L-413.21,-89.26L-432.80,-88.42L-432.06,-71.29L-447.18,-86.93L-469.77,-92.35L-510.27,-71.42L-522.50,-21.31L-506.04,27.57L-463.90,44.96L-444.39,39.42L-430.38,25.50L-430.05,34.84L-436.62,63.67L-462.36,74.68L-482.99,69.81L-491.74,52.89L-509.02,61.72L-496.92,84.67ZM-467.72,-73.67L-442.85,-62.09L-429.86,-25.25L-438.73,12.51L-463.45,26.20L-488.59,14.64L-500.02,-22.25L-491.78,-60.00ZM-376.32,36.68L-354.29,35.74L-357.25,-33.53L-349.09,-66.65L-324.67,-79.01L-303.63,-70.35L-296.56,-44.96L-293.22,33.13L-271.19,32.19L-274.53,-45.90L-284.53,-84.36L-321.00,-98.19L-344.57,-91.93L-361.14,-73.09L-361.93,-91.45L-381.76,-90.61ZM-80.42,9.60L-64.76,25.33L-49.46,10.45L-67.91,-8.35L-58.18,-33.48L-58.14,-60.78L-79.96,-61.06L-79.74,-42.16L-84.30,-24.83L-118.14,-59.19L-87.24,-86.74L-79.18,-114.32L-90.32,-142.96L-127.97,-156.01L-161.69,-143.16L-174.71,-107.74L-163.04,-73.36L-151.36,-60.96L-172.71,-41.58L-180.92,-13.41L-166.25,19.27L-124.51,31.46L-99.32,25.45ZM-127.13,11.57L-147.79,5.30L-157.21,-14.42L-152.07,-31.74L-136.76,-46.61L-94.99,-4.74L-108.13,7.08ZM-108.69,-92.73L-131.78,-73.28L-146.79,-90.57L-152.02,-108.66L-146.52,-126.72L-127.16,-135.98L-108.28,-129.04L-101.95,-113.31ZM101.60,2.53L75.23,-8.04L62.52,-45.83L71.96,-84.57L97.33,-97.35L117.65,-91.25L130.80,-69.25L149.36,-79.56L131.84,-106.16L96.53,-116.07L54.11,-96.00L40.03,-44.87L58.41,4.87L102.40,21.25L136.74,8.50L151.70,-18.88L132.56,-28.05L121.31,-5.25ZM201.47,11.99L193.94,-164.25L171.91,-163.31L179.44,12.93ZM243.66,-138.65L251.25,-147.70L250.74,-160.15L242.24,-168.73L230.92,-168.24L223.40,-159.01L223.93,-146.57L232.34,-138.17ZM255.32,9.69L249.89,-117.59L227.86,-116.65L233.29,10.63ZM286.00,8.38L308.08,7.44L305.26,-58.41L309.88,-91.28L335.24,-107.21L352.80,-100.02L359.40,-78.16L362.96,5.09L384.99,4.15L381.84,-69.53L388.52,-97.70L412.39,-110.51L431.51,-101.29L436.68,-78.97L440.13,1.79L462.16,0.85L458.37,-87.76L447.15,-119.51L416.33,-129.70L393.59,-123.20L376.97,-103.16L363.31,-121.15L339.86,-126.31L316.96,-120.33L301.21,-101.64L300.44,-119.75L280.61,-118.91ZM566.56,-89.13L495.72,-64.04L482.41,-32.99L496.76,-4.65L528.21,3.07L550.81,-2.33L571.04,-18.55L571.58,-3.82L592.14,-4.70L588.66,-86.81L575.47,-123.69L536.83,-134.88L502.92,-125.05L487.33,-99.50L505.26,-89.51L515.65,-109.33L535.35,-116.80L557.04,-111.45ZM567.39,-69.65L568.76,-37.43L553.76,-23.12L530.96,-15.04L514.19,-18.63L505.85,-34.97L514.94,-52.69ZM680.03,-6.75L680.04,-6.75L676.68,-25.63L666.88,-23.73L656.04,-28.65L653.45,-44.60L650.33,-117.78L672.11,-118.72L671.39,-135.60L649.61,-134.67L647.72,-178.73L625.69,-177.79L627.58,-133.73L609.46,-132.96L610.18,-116.07L628.30,-116.84L631.42,-43.65L637.76,-13.14L663.30,-3.68ZM730.49,-34.87L716.21,-68.10L810.69,-72.16L811.54,-81.02L794.97,-127.03L750.00,-144.08L707.59,-124.01L693.52,-72.89L711.90,-23.15L755.87,-6.77L791.78,-19.06L807.39,-46.02L789.78,-56.00L777.37,-33.65L756.32,-25.56ZM716.19,-85.78L728.77,-115.50L750.78,-125.39L776.21,-115.84L787.42,-88.82ZM-366.05,243.21L-392.43,232.64L-405.14,194.85L-395.70,156.11L-370.32,143.33L-350.00,149.44L-336.86,171.43L-318.30,161.13L-335.81,134.52L-371.12,124.61L-413.54,144.68L-427.62,195.81L-409.25,245.55L-365.25,261.93L-330.92,249.18L-315.96,221.81L-335.10,212.63L-346.34,235.44ZM-288.95,253.65L-266.76,252.70L-269.72,183.43L-261.55,150.77L-237.15,138.41L-216.09,147.07L-209.01,172.82L-205.72,250.09L-183.75,249.15L-186.96,171.70L-197.00,133.06L-233.47,119.23L-256.74,125.62L-271.49,142.79L-274.32,76.46L-296.48,77.41ZM-78.32,159.13L-149.15,184.21L-162.46,215.26L-148.12,243.61L-116.66,251.33L-94.06,245.92L-73.83,229.71L-73.30,244.43L-52.74,243.55L-56.22,161.44L-69.40,124.57L-108.04,113.37L-141.95,123.20L-157.55,148.76L-139.62,158.75L-129.23,138.93L-109.52,131.46L-87.83,136.81ZM-77.48,178.60L-76.12,210.82L-91.11,225.14L-113.91,233.21L-130.68,229.62L-139.02,213.28L-129.93,195.56ZM-19.57,242.14L2.46,241.19L-0.50,171.92L7.66,138.81L32.08,126.44L53.12,135.11L60.19,160.50L63.53,238.59L85.56,237.64L82.22,159.56L72.23,121.10L35.75,107.27L12.18,113.53L-4.39,132.36L-5.18,114.00L-25.00,114.85ZM167.12,287.51L211.90,266.43L221.06,223.52L215.97,104.56L196.39,105.39L197.12,122.53L182.01,106.88L159.42,101.47L118.91,122.39L106.69,172.50L123.14,221.39L165.29,238.78L184.80,233.24L198.81,219.32L199.14,228.66L192.57,257.48L166.83,268.50L146.20,263.63L137.44,246.71L120.17,255.54L132.27,278.49ZM161.47,120.15L186.33,131.72L199.33,168.57L190.45,206.33L165.74,220.01L140.60,208.46L129.17,171.56L137.41,133.81ZM279.24,205.11L264.95,171.88L359.43,167.82L360.28,158.96L343.71,112.95L298.75,95.90L256.33,115.97L242.26,167.09L260.64,216.84L304.61,233.21L340.52,220.92L356.14,193.96L338.53,183.98L326.11,206.33L305.06,214.42ZM264.93,154.21L277.51,124.48L299.52,114.59L324.95,124.14L336.16,151.16Z" fill="#ffffff" stroke="#000000"/>
    <path d="M-591.59,-157.43L-601.45,-311.10L-542.88,-314.85L-544.20,-335.42L-684.32,-326.44L-683.00,-305.87L-624.44,-309.62L-614.58,-155.95ZM-513.18,-162.45L-491.25,-163.86L-495.64,-232.35L-488.24,-264.84L-464.36,-277.59L-443.33,-269.46L-435.79,-244.13L-430.90,-167.73L-409.18,-169.13L-414.00,-245.70L-424.74,-283.73L-461.13,-296.64L-484.01,-289.82L-498.25,-272.52L-502.45,-338.10L-524.36,-336.70ZM-353.19,-196.75L-368.03,-229.33L-274.62,-235.35L-273.97,-244.14L-291.34,-289.31L-336.19,-305.24L-377.74,-284.48L-390.58,-233.59L-371.34,-184.76L-327.49,-169.48L-292.21,-182.40L-277.33,-209.42L-294.97,-218.91L-306.78,-196.54L-327.44,-188.08ZM-368.42,-246.83L-356.60,-276.51L-335.03,-286.76L-309.66,-277.84L-298.00,-251.34ZM-132.91,-297.01L-116.21,-292.65L-110.86,-311.46L-132.69,-318.16L-153.08,-310.39L-166.29,-289.19L-167.69,-310.97L-187.29,-309.72L-179.30,-185.11L-157.44,-185.27L-161.80,-253.28L-155.78,-284.13ZM-42.90,-323.96L-85.07,-303.16L-98.52,-252.23L-78.66,-203.44L-34.19,-188.20L7.98,-209.01L21.45,-259.93L1.60,-308.72ZM-35.38,-206.70L-62.31,-216.56L-76.29,-253.64L-67.15,-292.21L-41.71,-305.44L-14.76,-295.57L-0.76,-258.48L-9.91,-219.92ZM70.28,-199.88L59.11,-374.12L37.33,-372.72L48.50,-198.48ZM126.70,-227.53L111.86,-260.12L205.27,-266.13L205.92,-274.92L188.56,-320.09L143.70,-336.02L102.15,-315.26L89.31,-264.37L108.55,-215.54L152.41,-200.26L187.68,-213.19L202.56,-240.20L184.93,-249.69L173.11,-227.32L152.45,-218.86ZM111.47,-277.61L123.29,-307.29L144.86,-317.54L170.23,-308.63L181.89,-282.12ZM343.82,-348.76L301.65,-327.97L288.20,-277.04L308.06,-228.24L352.53,-213.01L394.70,-233.81L408.17,-284.73L388.32,-333.53ZM351.34,-231.51L324.41,-241.36L310.43,-278.44L319.57,-317.02L345.01,-330.24L371.96,-320.38L385.97,-283.29L376.81,-244.72ZM484.51,-379.12L486.27,-397.39L466.32,-399.78L439.25,-387.20L432.33,-355.54L432.72,-349.48L413.84,-348.27L414.91,-331.58L433.79,-332.79L440.79,-223.64L461.85,-224.99L454.84,-334.14L479.29,-335.70L478.22,-352.40L453.77,-350.84L453.35,-357.37L456.42,-373.94L470.28,-380.69ZM-858.51,-96.56L-880.29,-95.17L-876.35,-33.68L-890.79,-45.28L-911.29,-49.02L-950.94,-27.46L-961.99,22.39L-944.66,70.42L-902.58,86.74L-881.61,79.50L-867.80,61.74L-866.69,78.92L-847.33,77.68ZM-908.84,-30.60L-883.09,-19.73L-870.38,16.51L-879.28,54.13L-902.51,68.13L-927.67,57.24L-939.76,20.96L-932.40,-16.57ZM-790.92,50.02L-805.76,17.44L-712.35,11.43L-711.69,2.64L-729.06,-42.54L-773.92,-58.46L-815.47,-37.71L-828.31,13.18L-809.07,62.02L-765.21,77.29L-729.94,64.37L-715.06,37.36L-732.69,27.86L-744.51,50.24L-765.17,58.69ZM-806.15,-0.05L-794.33,-29.73L-772.76,-39.98L-747.39,-31.07L-735.73,-4.57ZM-673.55,27.38L-691.50,37.22L-677.60,61.12L-639.63,69.37L-604.63,58.23L-590.27,27.04L-601.71,1.85L-623.61,-7.68L-653.45,-13.73L-670.18,-19.22L-676.17,-28.93L-669.97,-41.79L-649.73,-47.66L-629.66,-43.55L-620.15,-28.08L-602.38,-37.90L-614.39,-58.29L-650.09,-66.32L-684.24,-55.18L-697.28,-25.12L-686.12,-2.63L-663.62,6.38L-632.08,12.60L-617.00,19.00L-612.39,30.40L-621.18,45.64L-640.08,50.76L-663.71,44.63ZM-557.81,-88.38L-550.49,-97.50L-551.26,-109.81L-559.86,-118.11L-571.04,-117.39L-578.29,-108.10L-577.51,-95.80L-569.00,-87.66ZM-543.14,58.17L-551.21,-67.68L-572.99,-66.28L-564.92,59.56ZM-460.89,105.75L-417.02,83.95L-408.87,41.29L-416.41,-76.32L-435.77,-75.08L-434.69,-58.14L-449.97,-73.30L-472.44,-78.18L-512.08,-56.62L-523.12,-6.77L-505.80,41.25L-463.73,57.58L-444.54,51.68L-430.98,37.61L-430.45,46.85L-436.34,75.51L-461.58,86.95L-482.09,82.56L-491.12,66.01L-508.03,75.11L-495.57,97.56ZM-470.02,-59.74L-445.17,-48.81L-431.53,-12.63L-439.52,24.93L-463.69,38.99L-488.81,28.09L-500.89,-8.18L-493.54,-45.71ZM-377.24,47.52L-355.46,46.13L-359.85,-22.36L-352.48,-55.30L-328.58,-68.05L-307.57,-59.92L-300.04,-34.94L-295.08,42.25L-273.30,40.86L-278.26,-36.34L-288.96,-74.19L-325.35,-87.11L-348.54,-80.41L-364.54,-61.42L-365.71,-79.57L-385.31,-78.32ZM-85.00,14.48L-69.17,29.71L-54.34,14.66L-73.00,-3.56L-63.90,-28.63L-64.44,-55.64L-86.04,-55.46L-85.42,-36.76L-89.57,-19.51L-123.78,-52.80L-93.79,-80.71L-86.39,-108.18L-98.02,-136.28L-135.55,-148.40L-168.65,-134.98L-180.79,-99.64L-168.51,-65.88L-156.69,-53.85L-177.41,-34.22L-184.94,-6.17L-169.73,25.86L-128.17,37.04L-103.37,30.56ZM-131.18,17.41L-151.76,11.64L-161.50,-7.67L-156.78,-24.91L-141.94,-39.96L-99.73,0.59L-112.47,12.56ZM-115.13,-86.19L-137.58,-66.46L-152.80,-83.25L-158.35,-101.04L-153.30,-119.02L-134.33,-128.60L-115.50,-122.13L-108.91,-106.69ZM94.97,3.63L68.65,-6.27L55.27,-43.40L63.80,-81.93L88.64,-95.12L108.88,-89.50L122.35,-68.02L140.50,-78.61L122.60,-104.56L87.45,-113.62L45.90,-92.87L33.05,-41.97L52.28,6.86L96.16,22.14L129.87,8.80L144.10,-18.61L124.96,-27.28L114.31,-4.48ZM194.00,10.88L182.83,-163.36L161.05,-161.96L172.22,12.28ZM232.57,-139.07L239.89,-148.20L239.12,-160.50L230.53,-168.81L219.34,-168.09L212.09,-158.79L212.87,-146.50L221.38,-138.36ZM247.24,7.47L239.17,-118.37L217.39,-116.98L225.46,8.87ZM277.57,5.52L299.40,4.12L295.22,-60.97L299.10,-93.60L323.86,-109.90L341.38,-103.15L348.38,-81.66L353.66,0.64L375.44,-0.75L370.76,-73.60L376.79,-101.62L400.13,-114.79L419.24,-106.08L424.83,-84.09L429.96,-4.25L451.74,-5.65L446.12,-93.25L434.34,-124.44L403.62,-133.87L381.26,-126.95L365.23,-106.78L351.34,-124.28L328.02,-128.90L305.49,-122.50L290.30,-103.67L289.15,-121.58L269.55,-120.32ZM553.15,-96.89L483.58,-70.57L471.06,-39.56L485.86,-11.82L517.14,-4.84L539.40,-10.67L559.07,-27.15L559.91,-12.59L580.24,-13.89L575.06,-95.07L561.23,-131.28L522.76,-141.54L489.41,-131.10L474.52,-105.48L492.47,-95.97L502.33,-115.81L521.68,-123.62L543.26,-118.78ZM554.38,-77.64L556.41,-45.78L541.88,-31.30L519.48,-22.83L502.81,-26.03L494.22,-42.02L502.84,-59.75ZM667.17,-17.77L667.18,-17.78L663.46,-36.38L653.80,-34.30L642.97,-38.94L640.07,-54.66L635.43,-127.02L656.97,-128.40L655.90,-145.10L634.36,-143.72L631.57,-187.28L609.79,-185.88L612.58,-142.32L594.67,-141.17L595.75,-124.48L613.65,-125.62L618.29,-53.27L625.21,-23.20L650.68,-14.38ZM716.52,-46.67L701.68,-79.25L795.09,-85.26L795.74,-94.05L778.37,-139.23L733.51,-155.15L691.97,-134.40L679.13,-83.51L698.37,-34.67L742.22,-19.39L777.49,-32.32L792.38,-59.33L774.74,-68.83L762.93,-46.45L742.27,-38.00ZM701.28,-96.74L713.11,-126.42L734.68,-136.67L760.04,-127.76L771.71,-101.26ZM-362.72,251.69L-389.04,241.79L-402.42,204.66L-393.90,166.12L-369.05,152.94L-348.82,158.55L-335.34,180.04L-317.20,169.45L-335.09,143.49L-370.24,134.43L-411.79,155.19L-424.65,206.08L-405.41,254.92L-361.53,270.19L-327.82,256.85L-313.60,229.45L-332.73,220.77L-343.38,243.58ZM-286.20,260.38L-264.26,258.98L-268.65,190.49L-261.26,158.00L-237.37,145.25L-216.35,153.38L-208.80,178.71L-203.92,255.11L-182.19,253.71L-187.01,177.13L-197.75,139.11L-234.14,126.20L-257.03,133.02L-271.26,150.32L-275.47,84.74L-297.37,86.14ZM-79.76,162.40L-149.33,188.72L-161.84,219.73L-147.04,247.48L-115.76,254.45L-93.51,248.62L-73.83,232.15L-72.99,246.71L-52.66,245.40L-57.84,164.22L-71.67,128.01L-110.14,117.75L-143.49,128.20L-158.38,153.81L-140.43,163.32L-130.57,143.49L-111.22,135.68L-89.64,140.51ZM-78.52,181.65L-76.49,213.51L-91.03,227.99L-113.42,236.46L-130.09,233.26L-138.69,217.27L-130.07,199.55ZM-19.87,243.30L1.91,241.90L-2.48,173.42L4.89,140.48L28.79,127.72L49.80,135.85L57.34,160.83L62.29,238.03L84.07,236.63L79.12,159.44L68.41,121.58L32.02,108.67L8.83,115.36L-7.17,134.35L-8.34,116.20L-27.94,117.46ZM165.83,284.25L209.70,262.45L217.85,219.79L210.31,102.18L190.95,103.42L192.03,120.36L176.75,105.20L154.28,100.32L114.64,121.88L103.60,171.73L120.92,219.75L162.99,236.08L182.18,230.18L195.75,216.11L196.28,225.34L190.38,254.01L165.14,265.45L144.63,261.06L135.60,244.51L118.69,253.61L131.16,276.06ZM156.70,118.76L181.55,129.69L195.19,165.87L187.20,203.43L163.04,217.49L137.91,206.59L125.83,170.32L133.18,132.79ZM275.04,200.35L260.20,167.77L353.61,161.75L354.26,152.97L336.89,107.79L292.03,91.86L250.49,112.62L237.65,163.51L256.89,212.34L300.74,227.62L336.02,214.70L350.90,187.69L333.26,178.19L321.45,200.57L300.79,209.02ZM259.81,150.28L271.63,120.59L293.20,110.35L318.57,119.26L330.23,145.76Z" fill="#ffffff" stroke="#000000"/>
    <path d="M-594.18,-139.91L-607.18,-291.75L-549.31,-296.70L-551.05,-317.03L-689.50,-305.18L-687.76,-284.85L-629.90,-289.81L-616.90,-137.96ZM-516.70,-146.54L-495.03,-148.39L-500.82,-216.07L-494.19,-248.37L-470.83,-261.49L-449.85,-253.89L-441.85,-228.99L-435.40,-153.50L-413.93,-155.34L-420.32,-231.01L-431.75,-268.40L-468.03,-280.41L-490.53,-273.18L-504.25,-255.76L-509.80,-320.56L-531.44,-318.71ZM-359.12,-183.86L-374.49,-215.78L-282.19,-223.70L-281.73,-232.42L-299.87,-276.75L-344.60,-291.56L-385.26,-270.14L-396.90,-219.52L-376.83,-171.61L-333.11,-157.41L-298.48,-170.95L-284.32,-197.99L-301.98,-207.01L-313.19,-184.62L-333.46,-175.82ZM-375.25,-233.08L-364.18,-262.70L-343.05,-273.29L-317.76,-265.01L-305.66,-239.04ZM-143.28,-287.71L-126.67,-283.75L-121.77,-302.48L-143.51,-308.65L-163.51,-300.52L-176.14,-279.27L-177.99,-300.79L-197.36,-299.14L-186.81,-176.01L-165.19,-176.63L-170.94,-243.83L-165.64,-274.48ZM-54.79,-316.28L-96.07,-294.81L-108.31,-244.13L-87.63,-196.27L-43.30,-182.13L-2.01,-203.61L10.24,-254.28L-10.43,-302.14ZM-44.87,-200.42L-71.72,-209.60L-86.34,-245.99L-78.11,-284.35L-53.22,-297.98L-26.34,-288.79L-11.70,-252.38L-19.94,-214.03ZM59.83,-195.90L45.09,-368.07L23.57,-366.23L38.31,-194.05ZM115.06,-224.45L99.69,-256.38L191.99,-264.30L192.45,-273.01L174.31,-317.34L129.59,-332.16L88.92,-310.74L77.29,-260.11L97.36,-212.20L141.07,-198.01L175.70,-211.54L189.86,-238.58L172.21,-247.61L160.99,-225.22L140.73,-216.42ZM98.94,-273.68L110.01,-303.30L131.13,-313.89L156.42,-305.61L168.52,-279.63ZM327.34,-348.99L286.05,-327.53L273.82,-276.85L294.49,-228.99L338.82,-214.85L380.11,-236.33L392.36,-287.00L371.69,-334.86ZM337.26,-233.13L310.40,-242.31L295.78,-278.71L304.01,-317.07L328.90,-330.69L355.78,-321.50L370.42,-285.10L362.18,-246.75ZM465.90,-382.01L467.25,-400.12L447.47,-402.06L420.95,-389.04L414.77,-357.56L415.28,-351.59L396.63,-349.99L398.04,-333.49L416.70,-335.09L425.93,-227.24L446.73,-229.02L437.50,-336.87L461.65,-338.93L460.24,-355.43L436.09,-353.37L435.53,-359.82L438.21,-376.29L451.78,-383.26ZM-857.00,-74.05L-878.52,-72.20L-873.32,-11.45L-887.86,-22.62L-908.22,-25.89L-946.99,-3.71L-956.88,45.84L-938.71,92.99L-896.73,108.26L-876.13,100.65L-862.84,82.78L-861.39,99.76L-842.26,98.12ZM-905.41,-7.71L-879.69,2.50L-866.35,38.09L-874.36,75.50L-897.06,89.85L-922.18,79.59L-934.91,43.96L-928.42,6.67ZM-787.02,69.57L-802.39,37.64L-710.09,29.72L-709.63,21.01L-727.77,-23.32L-772.50,-38.14L-813.17,-16.72L-824.80,33.91L-804.73,81.82L-761.01,96.01L-726.38,82.48L-712.23,55.44L-729.88,46.41L-741.10,68.80L-761.36,77.60ZM-803.15,20.34L-792.08,-9.28L-770.95,-19.87L-745.67,-11.59L-733.57,14.39ZM-671.37,44.69L-688.93,54.80L-674.66,78.16L-636.92,85.52L-602.52,73.76L-588.97,42.59L-600.82,17.90L-622.69,8.93L-652.35,3.58L-669.02,-1.50L-675.16,-10.98L-669.29,-23.83L-649.38,-30.07L-629.44,-26.43L-619.71,-11.32L-602.33,-21.41L-614.65,-41.34L-650.14,-48.52L-683.69,-36.78L-695.96,-6.76L-684.44,15.25L-661.98,23.70L-630.65,29.18L-615.59,35.20L-610.79,46.38L-619.16,61.65L-637.76,67.11L-661.27,61.54ZM-559.30,-72.30L-552.25,-81.48L-553.27,-93.64L-561.95,-101.68L-573.00,-100.73L-579.98,-91.38L-578.94,-79.23L-570.35,-71.35ZM-541.68,72.39L-552.32,-51.96L-573.85,-50.11L-563.20,74.23ZM-459.29,117.74L-416.35,95.23L-409.18,52.86L-419.13,-63.36L-438.26,-61.72L-436.83,-44.98L-452.28,-59.66L-474.61,-64.02L-513.38,-41.84L-523.25,7.71L-505.10,54.87L-463.13,70.13L-444.26,63.89L-431.13,49.68L-430.41,58.81L-435.64,87.29L-460.37,99.15L-480.76,95.24L-490.04,79.05L-506.58,88.41L-493.78,110.37ZM-471.82,-45.82L-447.00,-35.53L-432.75,-0.02L-439.85,37.32L-463.47,51.74L-488.56,41.49L-501.28,5.85L-494.80,-31.44ZM-377.75,58.36L-356.23,56.51L-362.03,-11.16L-355.43,-43.91L-332.05,-57.03L-311.09,-49.43L-303.11,-24.88L-296.58,51.41L-275.05,49.56L-281.59,-26.72L-292.98,-63.94L-329.26,-75.96L-352.06,-68.84L-367.49,-49.71L-369.03,-67.65L-388.40,-65.99ZM-89.29,19.48L-73.31,34.22L-58.95,19.02L-77.80,1.39L-69.32,-23.61L-70.43,-50.34L-91.80,-49.70L-90.79,-31.21L-94.53,-14.05L-129.08,-46.26L-100.00,-74.52L-93.26,-101.85L-105.36,-129.41L-142.76,-140.62L-175.21,-126.63L-186.48,-91.41L-173.62,-58.26L-161.67,-46.61L-181.76,-26.75L-188.61,1.16L-172.89,32.53L-131.53,42.72L-107.13,35.79ZM-134.92,23.36L-155.40,18.09L-165.45,-0.82L-161.14,-17.98L-146.78,-33.18L-104.16,6.05L-116.51,18.17ZM-121.24,-79.49L-143.03,-59.49L-158.44,-75.78L-164.31,-93.27L-159.69,-111.17L-141.12,-121.05L-122.36,-115.04L-115.51,-99.91ZM88.56,4.95L62.30,-4.29L48.28,-40.75L55.90,-79.06L80.20,-92.63L100.34,-87.50L114.13,-66.52L131.86,-77.39L113.61,-102.69L78.64,-110.91L37.96,-89.50L26.32,-38.87L46.38,9.04L90.12,23.23L123.20,9.32L136.69,-18.10L117.58,-26.28L107.52,-3.49ZM186.70,10.03L171.96,-162.14L150.43,-160.30L165.17,11.87ZM221.68,-139.16L228.73,-148.34L227.71,-160.50L219.04,-168.54L207.98,-167.59L201.01,-158.24L202.04,-146.09L210.63,-138.22ZM239.30,5.53L228.66,-118.82L207.14,-116.98L217.78,7.37ZM269.27,2.96L290.84,1.12L285.33,-63.21L288.48,-95.57L312.63,-112.23L330.11,-105.92L337.49,-84.80L344.45,-3.47L365.97,-5.32L359.81,-77.29L365.18,-105.15L388.00,-118.68L407.09,-110.46L413.09,-88.82L419.84,-9.93L441.36,-11.77L433.95,-98.34L421.64,-128.94L391.05,-137.62L369.07,-130.31L353.64,-110.01L339.52,-127.04L316.35,-131.11L294.19,-124.30L279.56,-105.35L278.04,-123.05L258.67,-121.39ZM539.78,-104.20L471.50,-76.69L459.77,-45.74L475.00,-18.60L506.10,-12.36L527.99,-18.59L547.12,-35.31L548.25,-20.92L568.34,-22.64L561.50,-102.86L547.05,-138.40L508.77,-147.74L475.99,-136.70L461.80,-111.04L479.76,-102.01L489.10,-121.84L508.08,-129.98L529.53,-125.65ZM541.41,-85.18L544.09,-53.70L530.01,-39.06L508.04,-30.21L491.47,-33.02L482.63,-48.66L490.78,-66.38ZM654.28,-28.32L654.28,-28.32L650.21,-46.66L640.70,-44.39L629.88,-48.76L626.68,-64.25L620.56,-135.75L641.84,-137.57L640.43,-154.07L619.15,-152.25L615.46,-195.29L593.94,-193.45L597.63,-150.41L579.93,-148.89L581.35,-132.39L599.04,-133.91L605.16,-62.41L612.64,-32.80L638.03,-24.61ZM702.49,-57.95L687.12,-89.88L779.42,-97.80L779.88,-106.51L761.74,-150.85L717.01,-165.66L676.35,-144.24L664.71,-93.62L684.78,-45.70L728.50,-31.51L763.13,-45.05L777.28,-72.09L759.63,-81.11L748.41,-58.72L728.15,-49.92ZM686.36,-107.18L697.43,-136.80L718.56,-147.39L743.84,-139.11L755.94,-113.14ZM-359.07,260.06L-385.33,250.82L-399.35,214.36L-391.73,176.06L-367.43,162.48L-347.29,167.61L-333.50,188.59L-315.77,177.73L-334.02,152.42L-368.99,144.20L-409.67,165.62L-421.31,216.24L-401.25,264.16L-357.51,278.35L-324.43,264.43L-310.94,237.02L-330.05,228.84L-340.11,251.63ZM-283.17,267.05L-261.50,265.19L-267.29,197.52L-260.66,165.22L-237.30,152.10L-216.32,159.69L-208.32,184.60L-201.87,260.09L-180.40,258.25L-186.79,182.58L-198.22,145.18L-234.50,133.17L-257.00,140.41L-270.72,157.83L-276.27,93.02L-297.91,94.88ZM-80.98,165.73L-149.26,193.25L-160.99,224.19L-145.76,251.34L-114.66,257.58L-92.76,251.34L-73.64,234.62L-72.50,249.01L-52.42,247.29L-59.25,167.08L-73.70,131.54L-111.99,122.20L-144.76,133.24L-158.96,158.90L-140.99,167.93L-131.65,148.09L-112.68,139.96L-91.22,144.29ZM-79.35,184.76L-76.67,216.24L-90.74,230.87L-112.72,239.73L-129.28,236.92L-138.13,221.27L-129.97,203.55ZM-20.01,244.52L1.51,242.68L-4.28,175.00L2.31,142.25L25.70,129.13L46.65,136.73L54.64,161.29L61.17,237.57L82.69,235.73L76.16,159.44L64.76,122.22L28.49,110.21L5.68,117.32L-9.75,136.45L-11.29,118.51L-30.66,120.17ZM164.60,281.12L207.54,258.61L214.71,216.23L204.76,100.02L185.63,101.66L187.06,118.40L171.61,103.72L149.28,99.36L110.51,121.53L100.64,171.09L118.79,218.24L160.76,233.51L179.63,227.27L192.76,213.05L193.48,222.18L188.25,250.67L163.52,262.52L143.13,258.62L133.85,242.43L117.31,251.79L130.11,273.74ZM152.07,117.56L176.89,127.85L191.14,163.36L184.04,200.69L160.42,215.12L135.33,204.86L122.61,169.23L129.09,131.94ZM270.88,195.79L255.51,163.86L347.81,155.94L348.27,147.23L330.13,102.90L285.41,88.08L244.74,109.50L233.10,160.13L253.17,208.04L296.89,222.23L331.52,208.70L345.68,181.66L328.02,172.63L316.81,195.02L296.54,203.82ZM254.75,146.56L265.82,116.94L286.95,106.35L312.24,114.63L324.34,140.61Z" fill="#ffffff" stroke="#000000"/>
    <path d="M-596.18,-122.42L-612.25,-272.38L-555.10,-278.50L-557.25,-298.57L-693.98,-283.92L-691.83,-263.85L-634.68,-269.97L-618.61,-120.02ZM-519.66,-130.62L-498.26,-132.92L-505.42,-199.75L-499.54,-231.84L-476.70,-245.32L-455.79,-238.25L-447.35,-213.78L-439.37,-139.23L-418.18,-141.50L-426.09,-216.23L-438.19,-252.98L-474.34,-264.10L-496.45,-256.47L-509.65,-238.94L-516.51,-302.94L-537.88,-300.65ZM-364.55,-170.87L-380.43,-202.13L-289.28,-211.92L-289.01,-220.55L-307.89,-264.03L-352.45,-277.74L-392.23,-255.69L-402.67,-205.36L-381.81,-158.38L-338.26,-145.26L-304.28,-159.38L-290.85,-186.43L-308.50,-194.99L-319.13,-172.60L-338.99,-163.47ZM-381.54,-219.23L-371.22,-248.77L-350.54,-259.70L-325.35,-252.04L-312.83,-226.59ZM-153.20,-278.18L-136.68,-274.61L-132.22,-293.24L-153.87,-298.89L-173.49,-290.43L-185.53,-269.14L-187.81,-290.39L-206.94,-288.34L-193.91,-166.75L-172.53,-167.82L-179.64,-234.18L-175.04,-264.62ZM-66.25,-308.32L-106.64,-286.20L-117.68,-235.81L-96.21,-188.89L-52.05,-175.84L-11.66,-197.96L-0.60,-248.35L-22.07,-295.27ZM-53.99,-193.90L-80.75,-202.41L-95.98,-238.11L-88.65,-276.24L-64.31,-290.24L-37.53,-281.72L-22.27,-246.01L-29.62,-207.89ZM49.69,-191.64L31.47,-361.66L10.21,-359.38L28.44,-189.36ZM103.73,-221.05L87.85,-252.31L179.00,-262.10L179.27,-270.73L160.39,-314.21L115.83,-327.92L76.05,-305.87L65.61,-255.54L86.48,-208.56L130.03,-195.44L164.00,-209.56L177.44,-236.62L159.78,-245.17L149.16,-222.78L129.29,-213.65ZM86.74,-269.41L97.06,-298.95L117.74,-309.88L142.94,-302.22L155.46,-276.78ZM311.12,-348.75L270.72,-326.64L259.69,-276.25L281.16,-229.33L325.31,-216.28L365.71,-238.40L376.76,-288.79L355.29,-335.71ZM323.38,-234.34L296.61,-242.85L281.38,-278.55L288.71,-316.68L313.05,-330.68L339.84,-322.15L355.09,-286.45L347.75,-248.33ZM447.51,-384.34L448.46,-402.29L428.85,-403.80L402.88,-390.35L397.44,-359.08L398.07,-353.18L379.65,-351.20L381.40,-334.91L399.82,-336.88L411.23,-230.38L431.78,-232.58L420.36,-339.08L444.21,-341.64L442.47,-357.93L418.62,-355.38L417.93,-361.75L420.24,-378.10L433.51,-385.28ZM-854.81,-51.71L-876.06,-49.43L-869.63,10.57L-884.25,-0.18L-904.46,-2.98L-942.36,19.77L-951.09,69.01L-932.12,115.28L-890.26,129.49L-870.05,121.53L-857.28,103.57L-855.48,120.34L-836.59,118.31ZM-901.30,14.94L-875.64,24.50L-861.69,59.43L-868.83,96.61L-890.98,111.28L-916.05,101.67L-929.40,66.69L-923.77,29.66ZM-782.54,88.90L-798.42,57.64L-707.27,47.85L-707.00,39.22L-725.89,-4.26L-770.45,-17.97L-810.23,4.08L-820.67,54.41L-799.80,101.39L-756.25,114.51L-722.28,100.39L-708.84,73.33L-726.49,64.78L-737.12,87.17L-756.98,96.30ZM-799.54,40.54L-789.21,11.00L-768.53,0.07L-743.34,7.73L-730.82,33.17ZM-668.65,61.84L-685.80,72.21L-671.19,95.02L-633.70,101.51L-599.91,89.14L-587.17,58.02L-599.42,33.85L-621.24,25.44L-650.70,20.76L-667.30,16.09L-673.57,6.84L-668.03,-6.00L-648.47,-12.59L-628.66,-9.40L-618.71,5.33L-601.74,-5.01L-614.34,-24.47L-649.61,-30.83L-682.55,-18.50L-694.06,11.46L-682.20,32.99L-659.80,40.87L-628.69,45.64L-613.66,51.27L-608.68,62.24L-616.63,77.52L-634.92,83.31L-658.29,78.30ZM-560.24,-56.27L-553.46,-65.50L-554.72,-77.51L-563.48,-85.28L-574.40,-84.11L-581.10,-74.71L-579.82,-62.71L-571.16,-55.10ZM-539.75,86.50L-552.91,-36.29L-574.16,-34.01L-561.00,88.78ZM-457.28,129.63L-415.27,106.46L-409.08,64.38L-421.37,-50.39L-440.27,-48.36L-438.49,-31.83L-454.09,-46.03L-476.28,-49.87L-514.16,-27.11L-522.88,22.13L-503.93,68.39L-462.08,82.61L-443.55,76.04L-430.86,61.70L-429.96,70.72L-434.52,99.01L-458.74,111.26L-479.00,107.83L-488.52,92.00L-504.69,101.62L-491.55,123.07ZM-473.13,-31.92L-448.36,-22.27L-433.51,12.57L-439.75,49.65L-462.81,64.42L-487.85,54.81L-501.19,19.82L-495.56,-17.21ZM-377.86,69.16L-356.61,66.88L-363.77,0.05L-357.94,-32.49L-335.08,-45.97L-314.19,-38.89L-305.77,-14.77L-297.70,60.57L-276.44,58.29L-284.52,-17.04L-296.58,-53.63L-332.72,-64.75L-355.13,-57.23L-370.00,-37.98L-371.90,-55.69L-391.02,-53.64ZM-93.29,24.60L-77.17,38.84L-63.29,23.50L-82.31,6.46L-74.45,-18.46L-76.11,-44.87L-97.23,-43.79L-95.84,-25.52L-99.18,-8.47L-134.05,-39.60L-105.87,-68.17L-99.78,-95.36L-112.34,-122.37L-149.57,-132.66L-181.39,-118.14L-191.79,-83.06L-178.37,-50.53L-166.30,-39.26L-185.75,-19.19L-191.95,8.58L-175.73,39.28L-134.59,48.48L-110.60,41.11ZM-138.36,29.41L-158.73,24.62L-169.07,6.13L-165.17,-10.94L-151.28,-26.28L-108.28,11.63L-120.25,23.88ZM-126.99,-72.64L-148.13,-52.39L-163.72,-68.19L-169.90,-85.36L-165.70,-103.17L-147.54,-113.34L-128.85,-107.79L-121.75,-92.96ZM82.36,6.47L56.18,-2.12L41.54,-37.89L48.27,-75.96L72.03,-89.90L92.06,-85.25L106.15,-64.79L123.46,-75.91L104.87,-100.56L70.09,-107.95L30.30,-85.90L19.85,-35.57L40.71,11.41L84.29,24.52L116.72,10.06L129.49,-17.35L110.41,-25.04L100.94,-2.28ZM179.56,9.42L161.34,-160.61L140.08,-158.33L158.30,11.70ZM211.02,-138.92L217.80,-148.15L216.53,-160.16L207.78,-167.93L196.86,-166.76L190.16,-157.36L191.44,-145.36L200.10,-137.75ZM231.51,3.85L218.35,-118.94L197.10,-116.67L210.26,6.13ZM261.10,0.68L282.40,-1.60L275.60,-65.12L278.02,-97.21L301.57,-114.20L319.00,-108.32L326.74,-87.59L335.35,-7.27L356.60,-9.55L348.98,-80.63L353.70,-108.30L376.00,-122.17L395.06,-114.44L401.45,-93.16L409.80,-15.25L431.05,-17.53L421.89,-103.02L409.07,-133.04L378.61,-140.98L357.02,-133.28L342.19,-112.87L327.86,-129.42L304.85,-132.96L283.07,-125.75L268.99,-106.69L267.12,-124.17L247.99,-122.12ZM526.47,-111.05L459.49,-82.39L448.55,-51.53L464.18,-24.99L495.09,-19.48L516.62,-26.11L535.18,-43.05L536.61,-28.84L556.45,-30.97L547.99,-110.19L532.95,-145.04L494.87,-153.47L462.67,-141.86L449.17,-116.17L467.14,-107.62L475.96,-127.44L494.56,-135.89L515.88,-132.06ZM528.48,-92.27L531.80,-61.18L518.18,-46.40L496.63,-37.18L480.18,-39.61L471.10,-54.90L478.79,-72.60ZM641.35,-38.40L641.36,-38.40L636.94,-56.46L627.58,-54.01L616.78,-58.10L613.29,-73.37L605.73,-143.97L626.74,-146.23L625.00,-162.52L603.98,-160.27L599.42,-202.78L578.17,-200.50L582.73,-157.99L565.25,-156.12L567.00,-139.82L584.47,-141.70L592.04,-71.09L600.06,-41.96L625.35,-34.39ZM688.42,-68.74L672.54,-100.00L763.69,-109.79L763.96,-118.41L745.08,-161.89L700.52,-175.60L660.74,-153.55L650.30,-103.22L671.16,-56.24L714.72,-43.13L748.69,-57.25L762.13,-84.30L744.47,-92.86L733.85,-70.47L713.98,-61.33ZM671.43,-117.10L681.75,-146.63L702.43,-157.56L727.63,-149.90L740.15,-124.46ZM-355.12,268.32L-381.29,259.73L-395.93,223.96L-389.21,185.90L-365.45,171.96L-345.41,176.61L-331.33,197.07L-314.02,185.95L-332.61,161.30L-367.38,153.90L-407.18,175.95L-417.62,226.29L-396.76,273.26L-353.19,286.38L-320.76,271.91L-307.98,244.51L-327.07,236.81L-336.54,259.58ZM-279.88,273.63L-258.48,271.34L-265.64,204.51L-259.76,172.41L-236.92,158.93L-216.01,166.01L-207.57,190.47L-199.59,265.03L-178.39,262.75L-186.31,188.03L-198.41,151.27L-234.55,140.15L-256.66,147.78L-269.87,165.31L-276.73,101.31L-298.10,103.60ZM-81.98,169.12L-148.95,197.79L-159.90,228.65L-144.26,255.18L-113.36,260.70L-91.83,254.07L-73.26,237.12L-71.83,251.34L-52.00,249.21L-60.46,169.99L-75.50,135.14L-113.58,126.70L-145.77,138.32L-159.27,164.01L-141.31,172.56L-132.49,152.74L-113.89,144.29L-92.57,148.12ZM-79.97,187.91L-76.65,219.00L-90.26,233.77L-111.82,243.00L-128.27,240.57L-137.35,225.28L-129.65,207.57ZM-19.99,245.78L1.26,243.50L-5.90,176.67L-0.07,144.13L22.79,130.65L43.68,137.73L52.10,161.86L60.17,237.19L81.43,234.91L73.35,159.58L61.29,122.99L25.15,111.87L2.74,119.39L-12.13,138.64L-14.03,120.93L-33.15,122.98ZM163.42,278.09L205.43,254.92L211.63,212.84L199.33,98.07L180.44,100.09L182.21,116.62L166.61,102.43L144.43,98.59L106.54,121.35L97.82,170.58L116.78,216.85L158.62,231.06L177.15,224.49L189.84,210.16L190.75,219.17L186.18,247.46L161.96,259.72L141.70,256.28L132.18,240.46L116.01,250.07L129.15,271.52ZM147.57,116.54L172.34,126.19L187.20,161.02L180.96,198.11L157.89,212.88L132.86,203.26L119.51,168.28L125.14,131.25ZM266.77,191.42L250.89,160.16L342.04,150.37L342.31,141.75L323.42,98.27L278.86,84.56L239.08,106.61L228.64,156.94L249.51,203.92L293.06,217.03L327.04,202.91L340.47,175.86L322.82,167.30L312.19,189.69L292.33,198.83ZM249.77,143.06L260.10,113.53L280.78,102.60L305.97,110.25L318.49,135.70Z" fill="#ffffff" stroke="#000000"/>
    <path d="M-597.59,-104.99L-616.65,-253.00L-560.25,-260.26L-562.80,-280.07L-697.75,-262.69L-695.20,-242.88L-638.79,-250.14L-619.73,-102.14ZM-522.07,-114.72L-500.94,-117.44L-509.44,-183.40L-504.30,-215.28L-481.99,-229.09L-461.16,-222.54L-452.29,-198.51L-442.82,-124.93L-421.90,-127.62L-431.31,-201.38L-444.06,-237.49L-480.05,-247.72L-501.76,-239.71L-514.45,-222.09L-522.59,-285.25L-543.69,-282.54ZM-369.47,-157.82L-385.84,-188.40L-295.88,-200.01L-295.79,-208.55L-315.39,-251.17L-359.76,-263.79L-398.65,-241.14L-407.92,-191.12L-386.28,-145.09L-342.92,-133.04L-309.61,-147.72L-296.89,-174.77L-314.54,-182.86L-324.57,-160.49L-344.03,-151.03ZM-387.31,-205.30L-377.72,-234.73L-357.49,-245.98L-332.41,-238.94L-319.48,-214.03ZM-162.66,-268.44L-146.24,-265.26L-142.23,-283.78L-163.76,-288.91L-182.99,-280.12L-194.46,-258.81L-197.16,-279.78L-216.04,-277.35L-200.58,-157.34L-179.45,-158.86L-187.89,-224.35L-183.98,-254.56ZM-77.28,-300.08L-116.77,-277.36L-126.62,-227.27L-104.39,-181.31L-60.44,-169.33L-20.95,-192.07L-11.08,-242.15L-33.30,-288.11ZM-62.74,-187.15L-89.39,-195.01L-105.21,-230.01L-98.77,-267.88L-74.98,-282.24L-48.31,-274.38L-32.46,-239.38L-38.92,-201.51ZM39.87,-187.11L18.26,-354.92L-2.72,-352.22L18.90,-184.41ZM92.72,-217.35L76.34,-247.94L166.31,-259.55L166.39,-268.09L146.79,-310.70L102.42,-323.32L63.53,-300.67L54.27,-250.66L75.91,-204.63L119.27,-192.57L152.58,-207.26L165.30,-234.30L147.65,-242.39L137.61,-220.02L118.16,-210.56ZM74.88,-264.83L84.47,-294.27L104.70,-305.52L129.78,-298.47L142.70,-273.57ZM295.17,-348.06L255.68,-325.33L245.83,-275.24L268.06,-229.29L312.01,-217.31L351.51,-240.05L361.37,-290.13L339.15,-336.08ZM309.72,-235.13L283.06,-242.99L267.24,-277.98L273.68,-315.85L297.47,-330.22L324.14,-322.35L339.99,-287.35L333.53,-249.49ZM429.35,-386.15L429.91,-403.92L410.47,-405.00L385.07,-391.15L380.35,-360.10L381.10,-354.27L362.92,-351.93L364.99,-335.85L383.17,-338.19L396.71,-233.07L416.99,-235.68L403.45,-340.80L426.99,-343.83L424.92,-359.92L401.37,-356.88L400.56,-363.18L402.50,-379.39L415.48,-386.78ZM-851.94,-29.58L-872.92,-26.88L-865.29,32.34L-879.98,22.02L-900.03,19.67L-937.04,42.99L-944.64,91.88L-924.90,137.25L-883.19,150.42L-863.36,142.12L-851.10,124.09L-848.97,140.63L-830.33,138.23ZM-896.53,37.34L-870.94,46.25L-856.41,80.51L-862.68,117.44L-884.28,132.43L-909.29,123.45L-923.23,89.12L-918.44,52.37ZM-777.48,107.99L-793.85,77.40L-703.89,65.79L-703.81,57.25L-723.41,14.64L-767.78,2.02L-806.66,24.67L-815.93,74.68L-794.29,120.71L-750.93,132.77L-717.62,118.08L-704.90,91.04L-722.55,82.95L-732.59,105.32L-752.04,114.78ZM-795.32,60.51L-785.73,31.07L-765.50,19.82L-740.42,26.87L-727.49,51.77ZM-665.39,78.82L-682.13,89.44L-667.20,111.70L-629.98,117.32L-596.81,104.37L-584.86,73.32L-597.49,49.66L-619.26,41.80L-648.50,37.80L-665.02,33.54L-671.41,24.52L-666.21,11.70L-647.00,4.76L-627.33,7.49L-617.18,21.86L-600.61,11.27L-613.49,-7.71L-648.51,-13.26L-680.84,-0.36L-691.59,29.51L-679.40,50.57L-657.08,57.89L-626.20,61.94L-611.22,67.20L-606.05,77.94L-613.60,93.23L-631.57,99.35L-654.79,94.88ZM-560.64,-40.32L-554.12,-49.59L-555.63,-61.44L-564.45,-68.94L-575.23,-67.56L-581.66,-58.12L-580.14,-46.27L-571.41,-38.93ZM-537.35,100.49L-552.96,-20.70L-573.94,-18.00L-558.33,103.20ZM-454.86,141.41L-413.79,117.60L-408.55,75.85L-423.14,-37.43L-441.79,-35.03L-439.69,-18.71L-455.41,-32.42L-477.44,-35.75L-514.44,-12.44L-522.03,36.45L-502.30,81.82L-460.60,95.00L-442.41,88.11L-430.16,73.65L-429.07,82.56L-432.99,110.64L-456.70,123.27L-476.81,120.30L-486.56,104.85L-502.35,114.70L-488.90,135.64ZM-473.95,-18.07L-449.24,-9.04L-433.81,25.11L-439.20,61.93L-461.71,77.02L-486.68,68.04L-500.61,33.71L-495.83,-3.04ZM-377.57,79.91L-356.60,77.21L-365.09,11.25L-360.01,-21.06L-337.69,-34.88L-316.87,-28.32L-308.03,-4.63L-298.45,69.72L-277.47,67.02L-287.05,-7.33L-299.75,-43.27L-335.75,-53.51L-357.76,-45.59L-372.06,-26.24L-374.31,-43.72L-393.19,-41.29ZM-97.00,29.82L-80.75,43.57L-67.34,28.10L-86.52,11.64L-79.27,-13.17L-81.47,-39.26L-102.35,-37.75L-100.59,-19.70L-103.53,-2.76L-138.68,-32.83L-111.41,-61.69L-105.96,-88.71L-118.95,-115.16L-156.00,-124.56L-187.17,-109.52L-196.72,-74.60L-182.75,-42.70L-170.57,-31.80L-189.40,-11.54L-194.93,16.06L-178.24,46.09L-137.35,54.32L-113.77,46.52ZM-141.48,35.53L-161.74,31.23L-172.36,13.15L-168.86,-3.82L-155.45,-19.29L-112.11,17.31L-123.69,29.68ZM-132.39,-65.66L-152.87,-45.19L-168.63,-60.48L-175.11,-77.34L-171.33,-95.05L-153.58,-105.48L-134.98,-100.39L-127.64,-85.87ZM76.37,8.18L50.30,0.23L35.06,-34.85L40.91,-72.64L64.12,-86.93L84.04,-82.76L98.40,-62.82L115.30,-74.18L96.38,-98.17L61.83,-104.75L22.93,-82.10L13.65,-32.09L35.28,13.94L78.67,26.00L110.44,11.00L122.50,-16.38L103.46,-23.59L94.57,-0.87ZM172.59,9.04L150.98,-158.77L130.00,-156.07L151.62,11.75ZM200.58,-138.37L207.10,-147.65L205.59,-159.50L196.77,-167.00L185.99,-165.61L179.56,-156.17L181.08,-144.33L189.81,-136.98ZM223.87,2.44L208.26,-118.76L187.28,-116.06L202.89,5.14ZM253.08,-1.32L274.10,-4.03L266.02,-66.73L267.75,-98.52L290.68,-115.82L308.05,-110.38L316.14,-90.03L326.36,-10.76L347.33,-13.46L338.30,-83.62L342.38,-111.09L364.14,-125.28L383.16,-118.04L389.93,-97.13L399.84,-20.23L420.82,-22.93L409.95,-107.30L396.63,-136.73L366.33,-143.94L345.13,-135.87L330.89,-115.36L316.37,-131.43L293.53,-134.45L272.13,-126.86L258.61,-107.71L256.39,-124.96L237.51,-122.53ZM513.23,-117.46L447.58,-87.69L437.40,-56.93L453.43,-31.01L484.12,-26.21L505.28,-33.23L523.29,-50.38L525.00,-36.35L544.58,-38.87L534.54,-117.06L518.92,-151.22L481.07,-158.76L449.47,-146.59L436.66,-120.89L454.61,-112.81L462.92,-132.60L481.14,-141.36L502.31,-138.02ZM515.62,-98.92L519.56,-68.24L506.40,-53.33L485.27,-43.75L468.95,-45.81L459.64,-60.74L466.88,-78.42ZM628.41,-48.02L628.42,-48.02L623.67,-65.79L614.45,-63.17L603.69,-66.99L599.92,-82.02L590.94,-151.70L611.68,-154.38L609.61,-170.46L588.87,-167.79L583.46,-209.74L562.49,-207.04L567.89,-165.08L550.64,-162.86L552.71,-146.78L569.96,-149.00L578.94,-79.31L587.49,-50.66L612.67,-43.71ZM674.34,-79.02L657.97,-109.61L747.93,-121.22L748.01,-129.76L728.41,-172.37L684.04,-184.99L645.16,-162.34L635.89,-112.33L657.53,-66.30L700.89,-54.24L734.20,-68.93L746.92,-95.98L729.27,-104.07L719.23,-81.69L699.78,-72.24ZM656.50,-126.50L666.09,-155.94L686.32,-167.19L711.40,-160.15L724.33,-135.24ZM-350.87,276.46L-376.94,268.51L-392.18,233.43L-386.33,195.64L-363.12,181.35L-343.20,185.52L-328.84,205.47L-311.95,194.10L-330.86,170.11L-365.41,163.53L-404.31,186.18L-413.59,236.19L-391.96,282.23L-348.57,294.28L-316.80,279.28L-304.74,251.90L-323.78,244.70L-332.67,267.41ZM-276.32,280.12L-255.20,277.40L-263.69,211.44L-258.56,179.56L-236.25,165.75L-215.41,172.30L-206.55,196.33L-197.08,269.91L-176.16,267.21L-185.57,193.46L-198.31,157.35L-234.31,147.12L-256.02,155.13L-268.71,172.75L-276.84,109.59L-297.94,112.30ZM-82.76,172.55L-148.41,202.32L-158.58,233.09L-142.55,259.00L-111.87,263.81L-90.71,256.79L-72.70,239.64L-70.99,253.67L-51.41,251.15L-61.45,172.96L-77.07,138.80L-114.91,131.26L-146.52,143.43L-159.33,169.12L-141.38,177.21L-133.07,157.41L-114.85,148.66L-93.68,152.00ZM-80.37,191.10L-76.43,221.78L-89.59,236.68L-110.72,246.27L-127.04,244.21L-136.34,229.28L-129.11,211.60ZM-19.82,247.08L1.16,244.37L-7.34,178.41L-2.26,146.10L20.07,132.29L40.89,138.84L49.72,162.53L59.30,236.88L80.28,234.18L70.70,159.83L58.00,123.89L22.01,113.66L-0.00,121.57L-14.30,140.93L-16.55,123.45L-35.43,125.88ZM162.30,275.16L203.37,251.35L208.61,209.60L194.02,96.32L175.38,98.72L177.48,115.04L161.75,101.33L139.72,98.00L102.73,121.31L95.14,170.20L114.87,215.57L156.57,228.75L174.76,221.86L187.01,207.40L188.09,216.31L184.17,244.39L160.47,257.02L140.36,254.05L130.61,238.60L114.81,248.45L128.26,269.39ZM143.21,115.68L167.92,124.71L183.35,158.86L177.96,195.67L155.46,210.77L130.49,201.79L116.55,167.46L121.33,130.71ZM262.71,187.25L246.34,156.66L336.30,145.05L336.39,136.51L316.79,93.90L272.42,81.28L233.53,103.93L224.27,153.94L245.90,199.97L289.26,212.03L322.57,197.34L335.29,170.29L317.65,162.20L307.61,184.58L288.15,194.03ZM244.88,139.77L254.47,110.33L274.69,99.08L299.78,106.12L312.70,131.03Z" fill="#ffffff" stroke="#000000"/>
    <path d="M-598.41,-87.64L-620.40,-233.63L-564.76,-242.01L-567.70,-261.55L-700.82,-241.51L-697.88,-221.97L-642.24,-230.34L-620.26,-84.35ZM-523.92,-98.86L-503.08,-102.00L-512.88,-167.06L-508.47,-198.70L-486.70,-212.83L-465.95,-206.79L-456.67,-183.21L-445.75,-110.63L-425.12,-113.74L-435.98,-186.50L-449.35,-221.94L-485.17,-231.30L-506.48,-222.91L-518.66,-205.22L-528.04,-267.53L-548.85,-264.39ZM-373.89,-144.71L-390.73,-174.62L-301.99,-188.00L-302.09,-196.45L-322.37,-238.19L-366.53,-249.73L-404.52,-226.51L-412.62,-176.84L-390.25,-131.77L-347.11,-120.76L-314.47,-135.99L-302.46,-163.01L-320.08,-170.64L-329.54,-148.30L-348.58,-138.53ZM-392.54,-191.30L-383.67,-220.62L-363.90,-232.17L-338.94,-225.73L-325.63,-201.37ZM-171.67,-258.50L-155.36,-255.69L-151.78,-274.10L-173.19,-278.72L-192.02,-269.62L-202.91,-248.30L-206.03,-268.99L-224.65,-266.19L-206.83,-147.80L-185.96,-149.75L-195.69,-214.35L-192.46,-244.32ZM-87.88,-291.60L-126.47,-268.29L-135.15,-218.53L-112.19,-173.55L-68.46,-162.63L-29.88,-185.95L-21.18,-235.70L-44.13,-280.68ZM-71.11,-180.21L-97.64,-187.42L-114.03,-221.69L-108.46,-259.29L-85.23,-274.00L-58.68,-266.78L-42.27,-232.50L-47.86,-194.91ZM30.38,-182.33L5.46,-347.86L-15.23,-344.74L9.69,-179.21ZM82.02,-213.36L65.18,-243.27L153.92,-256.65L153.82,-265.10L133.53,-306.84L89.38,-318.38L51.39,-295.16L43.28,-245.49L65.66,-200.42L108.80,-189.41L141.44,-204.64L153.45,-231.66L135.82,-239.29L126.37,-216.95L107.32,-207.18ZM63.37,-259.95L72.23,-289.27L92.00,-300.82L116.96,-294.38L130.27,-270.02ZM279.51,-346.92L240.93,-323.61L232.24,-273.86L255.20,-228.87L298.93,-217.95L337.51,-241.27L346.22,-291.02L323.26,-336.01ZM296.28,-235.53L269.75,-242.74L253.36,-277.02L258.94,-314.61L282.16,-329.33L308.71,-322.11L325.12,-287.82L319.53,-250.23ZM411.42,-387.43L411.60,-405.02L392.36,-405.68L367.52,-391.44L363.51,-360.63L364.37,-354.88L346.44,-352.18L348.83,-336.32L366.76,-339.02L382.37,-235.33L402.38,-238.34L386.76,-342.03L409.98,-345.53L407.59,-361.39L384.37,-357.89L383.44,-364.10L385.01,-380.18L397.70,-387.76ZM-848.41,-7.67L-869.11,-4.56L-860.31,53.86L-875.06,43.96L-894.94,42.06L-931.05,65.90L-937.54,114.42L-917.05,158.88L-875.52,171.03L-856.08,162.41L-844.34,144.31L-841.88,160.63L-823.49,157.86ZM-891.10,59.46L-865.61,67.73L-850.50,101.32L-855.93,137.98L-876.98,153.26L-901.90,144.90L-916.42,111.24L-912.46,74.79ZM-771.86,126.83L-788.70,96.92L-699.96,83.53L-700.05,75.08L-720.34,33.35L-764.49,21.80L-802.48,45.03L-810.59,94.69L-788.22,139.77L-745.07,150.78L-712.43,135.55L-700.42,108.53L-718.05,100.90L-727.51,123.24L-746.55,133.00ZM-790.50,80.24L-781.64,50.92L-761.87,39.37L-736.91,45.80L-723.60,70.17ZM-661.59,95.60L-677.94,106.47L-662.70,128.16L-625.76,132.94L-593.23,119.44L-582.06,88.47L-595.05,65.33L-616.75,58.02L-645.76,54.68L-662.19,50.81L-668.70,42.02L-663.83,29.23L-644.97,21.96L-625.46,24.25L-615.12,38.25L-598.95,27.42L-612.09,8.92L-646.85,4.18L-678.55,17.61L-688.55,47.39L-676.06,67.96L-653.82,74.73L-623.19,78.09L-608.26,82.97L-602.92,93.49L-610.07,108.76L-627.71,115.20L-650.78,111.27ZM-560.50,-24.45L-554.25,-33.76L-556.00,-45.45L-564.88,-52.68L-575.51,-51.08L-581.67,-41.61L-579.92,-29.93L-571.13,-22.85ZM-534.49,114.34L-552.50,-5.21L-573.19,-2.09L-555.19,117.46ZM-452.04,153.08L-411.91,128.66L-407.61,87.24L-424.44,-24.49L-442.83,-21.72L-440.41,-5.63L-456.25,-18.86L-478.11,-21.69L-514.22,2.15L-520.69,50.67L-500.21,95.13L-458.69,107.28L-440.84,100.08L-429.03,85.53L-427.77,94.31L-431.06,122.17L-454.23,135.17L-474.19,132.66L-484.16,117.58L-499.57,127.66L-485.83,148.09ZM-474.29,-4.27L-449.66,4.14L-433.67,37.59L-438.23,74.12L-460.16,89.53L-485.05,81.17L-499.57,47.51L-495.61,11.06ZM-376.89,90.61L-356.20,87.49L-365.99,22.43L-361.65,-9.64L-339.86,-23.78L-319.12,-17.73L-309.88,5.52L-298.84,78.86L-278.15,75.74L-289.19,2.40L-302.51,-32.88L-338.33,-42.24L-359.94,-33.95L-373.67,-14.50L-376.27,-31.75L-394.89,-28.94ZM-100.42,35.14L-84.06,48.40L-71.12,32.81L-90.44,16.93L-83.79,-7.76L-86.52,-33.53L-107.13,-31.58L-105.01,-13.77L-107.57,3.04L-142.97,-25.95L-116.60,-55.07L-111.78,-81.91L-125.19,-107.81L-162.04,-116.32L-192.55,-100.79L-201.26,-66.04L-186.77,-34.79L-174.49,-24.26L-192.68,-3.82L-197.58,23.59L-180.43,52.94L-139.81,60.22L-116.66,52.01ZM-144.30,41.72L-164.42,37.89L-175.31,20.24L-172.21,3.38L-159.27,-12.21L-115.63,23.08L-126.82,35.56ZM-137.44,-58.56L-157.27,-37.88L-173.18,-52.67L-179.94,-69.21L-176.58,-86.80L-159.24,-97.50L-140.73,-92.86L-133.17,-78.65ZM70.61,10.06L44.66,2.76L28.84,-31.62L33.83,-69.13L56.49,-83.75L76.28,-80.05L90.91,-60.62L107.37,-72.22L88.16,-95.55L53.84,-101.33L15.84,-78.11L7.73,-28.44L30.09,16.64L73.26,27.64L104.37,12.14L115.72,-15.20L96.73,-21.93L88.43,0.73ZM165.81,8.89L140.88,-156.64L120.19,-153.53L145.11,12.01ZM190.38,-137.51L196.63,-146.83L194.88,-158.52L186.00,-165.75L175.37,-164.15L169.21,-154.68L170.96,-143.00L179.75,-135.91ZM216.39,1.27L198.38,-118.28L177.69,-115.16L195.69,4.39ZM245.20,-3.06L265.94,-6.19L256.62,-68.03L257.66,-99.51L279.98,-117.11L297.27,-112.10L305.71,-92.14L317.48,-13.95L338.17,-17.06L327.75,-86.27L331.21,-113.53L352.43,-128.02L371.40,-121.26L378.54,-100.72L389.97,-24.86L410.66,-27.98L398.13,-111.21L384.33,-140.03L354.21,-146.53L333.41,-138.10L319.76,-117.51L305.05,-133.10L282.40,-135.60L261.40,-127.64L248.43,-108.41L245.86,-125.43L227.24,-122.62ZM500.07,-123.44L435.76,-92.61L426.35,-61.96L442.75,-36.67L473.21,-32.56L493.99,-39.95L511.43,-57.30L513.43,-43.45L532.74,-46.36L521.15,-123.49L504.98,-156.95L467.39,-163.61L436.39,-150.90L424.26,-125.21L442.19,-117.60L449.98,-137.35L467.82,-146.39L488.83,-143.54ZM502.82,-105.15L507.37,-74.88L494.67,-59.86L473.97,-49.94L457.78,-51.63L448.26,-66.20L455.05,-83.84ZM615.47,-57.18L615.47,-57.18L610.40,-74.66L601.34,-71.87L590.61,-75.42L586.56,-90.21L576.21,-158.95L596.67,-162.03L594.29,-177.89L573.82,-174.81L567.59,-216.20L546.90,-213.08L553.13,-171.70L536.12,-169.13L538.51,-153.27L555.52,-155.83L565.87,-87.09L574.94,-58.93L599.99,-52.59ZM660.24,-88.82L643.40,-118.73L732.14,-132.11L732.04,-140.56L711.76,-182.30L667.60,-193.84L629.61,-170.62L621.51,-120.95L643.88,-75.88L687.02,-64.87L719.66,-80.10L731.67,-107.12L714.05,-114.75L704.59,-92.41L685.55,-82.64ZM641.59,-135.41L650.46,-164.73L670.23,-176.28L695.19,-169.84L708.50,-145.48ZM-346.32,284.45L-372.28,277.15L-388.09,242.77L-383.10,205.26L-360.45,190.64L-340.66,194.35L-326.03,213.77L-309.56,202.17L-328.78,178.84L-363.09,173.06L-401.09,196.29L-409.21,245.95L-386.84,291.03L-343.67,302.03L-312.56,286.53L-301.21,259.19L-320.20,252.47L-328.51,275.12ZM-272.51,286.50L-251.67,283.36L-261.47,218.30L-257.06,186.66L-235.28,172.53L-214.53,178.57L-205.26,202.15L-194.34,274.73L-173.70,271.62L-184.57,198.86L-197.94,163.42L-233.76,154.06L-255.06,162.45L-267.24,180.14L-276.62,117.83L-297.43,120.97ZM-83.32,176.02L-147.62,206.85L-157.04,237.50L-140.64,262.79L-110.18,266.89L-89.40,259.51L-71.95,242.16L-69.96,256.00L-50.65,253.09L-62.23,175.97L-78.40,142.51L-115.99,135.85L-147.00,148.56L-159.13,174.24L-141.20,181.86L-133.40,162.11L-115.56,153.06L-94.55,155.92ZM-80.56,194.31L-76.02,224.58L-88.72,239.60L-109.42,249.52L-125.60,247.83L-135.12,233.25L-128.34,215.62ZM-19.49,248.40L1.20,245.29L-8.60,180.22L-4.25,148.15L17.54,134.01L38.27,140.06L47.52,163.31L58.56,236.65L79.25,233.53L68.21,160.19L54.88,124.91L19.07,115.55L-2.54,123.84L-16.27,143.29L-18.87,126.04L-37.49,128.85ZM161.25,272.33L201.37,247.92L205.67,206.50L188.85,94.77L170.45,97.54L172.88,113.63L157.03,100.40L135.17,97.57L99.07,121.41L92.60,169.93L113.07,214.39L154.59,226.54L172.44,219.34L184.25,204.79L185.52,213.57L182.23,241.43L159.05,254.43L139.10,251.92L129.12,236.84L113.71,246.92L127.46,267.35ZM139.00,114.99L163.63,123.40L179.61,156.85L175.06,193.38L153.12,208.79L128.23,200.43L113.72,166.77L117.67,130.32ZM258.71,183.25L241.87,153.34L330.61,139.96L330.52,131.51L310.23,89.77L266.07,78.23L228.09,101.45L219.98,151.12L242.35,196.19L285.50,207.20L318.13,191.97L330.14,164.95L312.52,157.32L303.06,179.66L284.02,189.43ZM240.06,136.66L248.93,107.34L268.70,95.79L293.66,102.23L306.97,126.59Z" fill="#ffffff" stroke="#000000"/>
    <path d="M-598.67,-70.38L-623.49,-214.31L-568.64,-223.77L-571.96,-243.03L-703.20,-220.40L-699.87,-201.13L-645.02,-210.59L-620.20,-66.67ZM-525.23,-83.05L-504.69,-86.59L-515.75,-150.74L-512.06,-182.12L-490.82,-196.56L-470.17,-191.02L-460.50,-167.90L-448.17,-96.34L-427.82,-99.85L-440.10,-171.58L-454.08,-206.35L-489.70,-214.86L-510.59,-206.11L-522.27,-188.36L-532.86,-249.78L-553.38,-246.24ZM-377.81,-131.56L-395.10,-160.79L-307.62,-175.90L-307.89,-184.26L-328.84,-225.10L-372.75,-235.59L-409.83,-211.82L-416.80,-162.53L-393.72,-118.42L-350.82,-108.44L-318.86,-124.20L-307.55,-151.17L-325.14,-158.35L-334.02,-136.05L-352.65,-125.99ZM-397.24,-177.25L-389.09,-206.43L-369.78,-218.28L-344.96,-212.44L-331.28,-188.62ZM-180.21,-248.38L-164.02,-245.95L-160.87,-264.23L-182.14,-268.34L-200.58,-258.95L-210.90,-237.63L-214.42,-258.03L-232.78,-254.86L-212.65,-138.15L-192.05,-140.52L-203.04,-204.21L-200.48,-233.91ZM-98.05,-282.89L-135.71,-259.01L-143.25,-209.62L-119.60,-165.61L-76.12,-155.74L-38.45,-179.62L-30.89,-229.00L-54.54,-273.01ZM-79.11,-173.07L-105.50,-179.64L-122.43,-213.19L-117.71,-250.49L-95.06,-265.54L-68.64,-258.96L-51.69,-225.40L-56.42,-188.10ZM21.23,-177.31L-6.92,-340.50L-27.32,-336.98L0.83,-173.79ZM71.64,-209.09L54.35,-238.32L141.84,-253.43L141.56,-261.78L120.62,-302.63L76.70,-313.12L39.62,-289.34L32.65,-240.05L55.73,-195.95L98.64,-185.97L130.59,-201.72L141.90,-228.70L124.31,-235.87L115.43,-213.58L96.80,-203.52ZM52.21,-254.77L60.36,-283.96L79.67,-295.80L104.49,-289.96L118.17,-266.15ZM264.14,-345.36L226.48,-321.49L218.94,-272.10L242.59,-228.09L286.07,-218.21L323.74,-242.09L331.30,-291.48L307.65,-335.49ZM283.09,-235.54L256.69,-242.11L239.76,-275.67L244.48,-312.97L267.14,-328.01L293.55,-321.43L310.50,-287.87L305.77,-250.58ZM393.75,-388.21L393.56,-405.61L374.51,-405.85L350.25,-391.25L346.93,-360.69L347.91,-355.02L330.23,-351.97L332.92,-336.34L350.60,-339.38L368.24,-237.16L387.95,-240.57L370.32,-342.79L393.21,-346.73L390.52,-362.37L367.62,-358.42L366.57,-364.54L367.78,-380.48L380.17,-388.25ZM-844.23,13.99L-864.63,17.50L-854.70,75.09L-869.49,65.61L-889.20,64.16L-924.41,88.50L-929.80,136.62L-908.60,180.16L-867.27,191.30L-848.22,182.36L-836.99,164.21L-834.22,180.30L-816.08,177.18ZM-885.03,81.28L-859.64,88.93L-844.00,121.83L-848.59,158.20L-869.08,173.75L-893.91,166.02L-908.98,133.03L-905.83,96.90ZM-765.68,145.40L-782.96,116.17L-695.48,101.06L-695.75,92.70L-716.70,51.86L-760.61,41.37L-797.69,65.14L-804.66,114.43L-781.58,158.54L-738.68,168.52L-706.72,152.76L-695.41,125.79L-713.01,118.61L-721.89,140.91L-740.52,150.97ZM-785.10,99.71L-776.95,70.53L-757.64,58.68L-732.82,64.52L-719.15,88.34ZM-657.28,112.18L-673.22,123.27L-657.69,144.41L-621.05,148.35L-589.16,134.31L-578.77,103.45L-592.11,80.84L-613.72,74.07L-642.48,71.38L-658.81,67.89L-665.44,59.34L-660.89,46.59L-642.40,39.00L-623.06,40.85L-612.53,54.48L-596.76,43.43L-610.15,25.41L-644.63,21.45L-675.70,35.41L-684.96,65.07L-672.17,85.15L-650.03,91.38L-619.67,94.05L-604.80,98.56L-599.30,108.85L-606.04,124.11L-623.36,130.85L-646.26,127.45ZM-559.83,-8.68L-553.85,-18.02L-555.82,-29.55L-564.76,-36.52L-575.24,-34.71L-581.14,-25.21L-579.16,-13.69L-570.31,-6.87ZM-531.18,128.03L-551.51,10.17L-571.91,13.69L-551.58,131.55ZM-448.81,164.60L-409.65,139.60L-406.27,98.55L-425.27,-11.60L-443.40,-8.47L-440.66,7.39L-456.61,-5.36L-478.29,-7.70L-513.50,16.65L-518.87,64.77L-497.68,108.31L-456.36,119.45L-438.86,111.95L-427.49,97.31L-426.05,105.97L-428.71,133.59L-451.36,146.94L-471.15,144.87L-481.33,130.17L-496.36,140.47L-482.34,160.38ZM-474.14,9.45L-449.60,17.25L-433.09,49.99L-436.82,86.22L-458.19,101.92L-482.99,94.18L-498.05,61.20L-494.91,25.06ZM-375.81,101.23L-355.41,97.71L-366.47,33.57L-362.85,1.76L-341.60,-12.68L-320.97,-7.14L-311.33,15.66L-298.86,87.96L-278.46,84.44L-290.94,12.14L-304.86,-22.47L-340.48,-30.98L-361.67,-22.32L-374.84,-2.79L-377.78,-19.79L-396.14,-16.63ZM-103.55,40.53L-87.08,53.30L-74.62,37.61L-94.06,22.32L-88.00,-2.25L-91.25,-27.67L-111.60,-25.32L-109.12,-7.75L-111.29,8.94L-146.92,-18.99L-121.45,-48.35L-117.26,-75.00L-131.07,-100.32L-167.69,-107.96L-197.54,-91.96L-205.41,-57.41L-190.42,-26.80L-178.06,-16.65L-195.62,3.94L-199.88,31.16L-182.31,59.83L-141.98,66.17L-119.25,57.56ZM-146.80,47.97L-166.79,44.61L-177.93,27.37L-175.22,10.64L-162.75,-5.05L-118.84,28.93L-129.65,41.51ZM-142.14,-51.36L-161.31,-30.48L-177.36,-44.78L-184.40,-60.99L-181.45,-78.46L-164.53,-89.41L-146.12,-85.21L-138.34,-71.32ZM65.08,12.12L39.25,5.44L22.89,-28.22L27.03,-65.42L49.13,-80.37L68.78,-77.12L83.66,-58.22L99.70,-70.04L80.20,-92.71L46.14,-97.70L9.05,-73.92L2.07,-24.63L25.14,19.48L68.07,29.45L98.51,13.46L109.16,-13.82L90.24,-20.07L82.50,2.51ZM159.20,8.95L131.05,-154.24L110.66,-150.72L138.80,12.47ZM180.42,-136.37L186.40,-145.71L184.43,-157.24L175.49,-164.20L165.01,-162.39L159.11,-152.89L161.09,-141.38L169.94,-134.56ZM209.07,0.35L188.74,-117.51L168.34,-113.99L188.67,3.87ZM237.47,-4.55L257.91,-8.08L247.40,-69.05L247.76,-100.20L269.46,-118.08L286.66,-113.49L295.43,-93.93L308.73,-16.84L329.13,-20.36L317.36,-88.58L320.21,-115.62L340.89,-130.40L359.80,-124.12L367.29,-103.95L380.19,-29.17L400.59,-32.69L386.44,-114.74L372.18,-142.96L342.26,-148.74L321.86,-139.96L308.79,-119.31L293.92,-134.42L271.46,-136.42L250.86,-128.10L238.44,-108.81L235.55,-125.59L217.19,-122.42ZM487.00,-128.99L424.05,-97.13L415.39,-66.63L432.14,-41.96L462.35,-38.54L482.75,-46.28L499.64,-63.81L501.90,-50.16L520.94,-53.45L507.85,-129.48L491.15,-162.23L453.84,-168.02L423.44,-154.80L411.98,-129.14L429.88,-121.99L437.17,-141.69L454.63,-151.01L475.47,-148.63ZM490.11,-110.96L495.25,-81.12L483.00,-65.99L462.74,-55.74L446.70,-57.07L436.97,-71.28L443.31,-88.87ZM602.53,-65.89L602.54,-65.90L597.15,-83.07L588.25,-80.13L577.57,-83.41L573.25,-97.95L561.56,-165.72L581.73,-169.19L579.03,-184.83L558.86,-181.35L551.82,-222.15L531.43,-218.63L538.46,-177.84L521.69,-174.94L524.39,-159.30L541.16,-162.20L552.85,-94.43L562.41,-66.77L587.32,-61.03ZM646.14,-98.13L628.86,-127.36L716.34,-142.47L716.07,-150.82L695.12,-191.67L651.21,-202.16L614.13,-178.38L607.16,-129.09L630.24,-84.99L673.14,-75.01L705.10,-90.76L716.41,-117.74L698.81,-124.91L689.93,-102.62L671.31,-92.56ZM626.72,-143.81L634.87,-173.00L654.18,-184.84L679.00,-179.00L692.68,-155.19ZM-341.48,292.30L-367.31,285.62L-383.67,251.96L-379.53,214.76L-357.43,199.81L-337.78,203.07L-322.90,221.97L-306.86,210.15L-326.36,187.48L-360.42,182.49L-397.51,206.26L-404.49,255.55L-381.42,299.66L-338.49,309.63L-308.05,293.65L-297.40,266.36L-316.32,260.12L-324.06,282.70ZM-268.44,292.77L-247.89,289.23L-258.96,225.08L-255.26,193.70L-234.03,179.26L-213.38,184.80L-203.70,207.92L-191.37,279.48L-171.03,275.97L-183.31,204.24L-197.28,169.47L-232.91,160.96L-253.80,169.71L-265.47,187.46L-276.07,126.04L-296.59,129.58ZM-83.66,179.50L-146.60,211.36L-155.27,241.86L-138.51,266.53L-108.30,269.95L-87.91,262.21L-71.02,244.68L-68.76,258.33L-49.72,255.04L-62.80,179.01L-79.50,146.26L-116.82,140.47L-147.22,153.69L-158.67,179.35L-140.78,186.50L-133.48,166.80L-116.03,157.48L-95.19,159.86ZM-80.55,197.53L-75.41,227.37L-87.66,242.50L-107.92,252.75L-123.96,251.42L-133.68,237.21L-127.35,219.62ZM-19.00,249.74L1.40,246.23L-9.67,182.08L-6.04,150.27L15.21,135.83L35.84,141.37L45.47,164.17L57.94,236.47L78.34,232.95L65.87,160.65L51.95,126.04L16.33,117.53L-4.87,126.19L-18.04,145.72L-20.97,128.72L-39.33,131.88ZM160.26,269.60L199.43,244.60L202.81,203.55L183.81,93.40L165.67,96.52L168.41,112.39L152.46,99.64L130.78,97.30L95.58,121.64L90.20,169.77L111.39,213.31L152.71,224.45L170.21,216.95L181.59,202.31L183.02,210.97L180.36,238.59L157.71,251.93L137.92,249.87L127.74,235.17L112.71,245.46L126.73,265.38ZM134.93,114.45L159.47,122.25L175.98,154.99L172.25,191.22L150.88,206.92L126.09,199.18L111.02,166.20L114.16,130.06ZM254.77,179.43L237.48,150.21L324.97,135.10L324.69,126.74L303.75,85.90L259.83,75.41L222.75,99.18L215.79,148.47L238.86,192.58L281.77,202.56L313.73,186.80L325.03,159.83L307.44,152.65L298.56,174.95L279.93,185.01ZM235.35,133.75L243.49,104.57L262.80,92.72L287.62,98.56L301.30,122.38Z" fill="#ffffff" stroke="#000000"/>
    <path d="M-598.35,-53.24L-625.94,-195.04L-571.90,-205.56L-575.59,-224.54L-704.89,-199.38L-701.19,-180.40L-647.15,-190.91L-619.56,-49.11ZM-525.99,-67.31L-505.75,-71.25L-518.05,-134.45L-515.06,-165.56L-494.37,-180.29L-473.83,-175.25L-463.77,-152.59L-450.07,-82.09L-430.02,-85.99L-443.68,-156.66L-458.24,-190.75L-493.64,-198.41L-514.12,-189.32L-525.29,-171.51L-537.06,-232.03L-557.28,-228.10ZM-381.24,-118.40L-398.95,-146.94L-312.76,-163.73L-313.20,-171.99L-334.78,-211.94L-378.43,-221.38L-414.59,-197.09L-420.44,-148.20L-396.69,-105.07L-354.05,-96.11L-322.78,-112.36L-312.17,-139.28L-329.72,-146.00L-338.03,-123.76L-356.24,-113.42ZM-401.41,-163.17L-393.97,-192.20L-375.13,-204.32L-350.46,-199.07L-336.43,-175.81ZM-188.30,-238.09L-172.24,-236.03L-169.51,-254.18L-190.63,-257.80L-208.66,-248.12L-218.42,-226.82L-222.33,-246.91L-240.42,-243.40L-218.04,-128.41L-197.73,-131.18L-209.93,-193.93L-208.03,-223.36ZM-107.77,-273.95L-144.52,-249.55L-150.93,-200.55L-126.61,-157.53L-83.40,-148.68L-46.65,-173.09L-40.22,-222.09L-64.54,-265.11ZM-86.72,-165.75L-112.96,-171.69L-130.41,-204.52L-126.53,-241.51L-104.45,-256.86L-78.19,-250.91L-60.71,-218.08L-64.60,-181.10ZM12.41,-172.07L-18.87,-332.85L-38.97,-328.94L-7.69,-168.16ZM61.59,-204.56L43.88,-233.10L130.07,-249.89L129.63,-258.14L108.05,-298.10L64.40,-307.54L28.23,-283.25L22.38,-234.36L46.14,-191.23L88.78,-182.27L120.05,-198.52L130.66,-225.44L113.11,-232.16L104.80,-209.92L86.59,-199.58ZM41.42,-249.33L48.86,-278.36L67.70,-290.48L92.37,-285.23L106.40,-261.97ZM249.08,-343.38L212.34,-318.98L205.92,-269.98L230.25,-226.96L273.45,-218.11L310.20,-242.52L316.63,-291.52L292.31,-334.54ZM270.13,-235.18L243.89,-241.12L226.44,-273.95L230.32,-310.94L252.41,-326.29L278.67,-320.34L296.14,-287.51L292.25,-250.53ZM376.35,-388.49L375.79,-405.70L356.95,-405.53L333.27,-390.58L330.62,-360.29L331.71,-354.71L314.29,-351.32L317.29,-335.91L334.71,-339.30L354.30,-238.59L373.73,-242.37L354.14,-343.08L376.69,-347.47L373.69,-362.88L351.14,-358.49L349.97,-364.52L350.83,-380.31L362.91,-388.25ZM-839.41,35.38L-859.51,39.29L-848.47,96.03L-863.30,86.97L-882.82,85.94L-917.13,110.76L-921.43,158.47L-899.55,201.08L-858.44,211.22L-839.80,201.97L-829.08,183.79L-825.99,199.64L-808.13,196.17ZM-878.34,102.79L-853.07,109.82L-836.90,142.02L-840.67,178.09L-860.61,193.90L-885.32,186.78L-900.92,154.48L-898.57,118.67ZM-758.95,163.67L-776.66,135.14L-690.47,118.35L-690.91,110.09L-712.49,70.14L-756.14,60.69L-792.30,84.99L-798.15,133.88L-774.40,177.01L-731.76,185.97L-700.49,169.72L-689.88,142.80L-707.43,136.08L-715.74,158.31L-733.95,168.65ZM-779.12,118.91L-771.68,89.87L-752.84,77.75L-728.17,83.00L-714.14,106.26ZM-652.46,128.54L-667.98,139.85L-652.18,160.42L-615.86,163.55L-584.63,148.99L-575.01,118.24L-588.67,96.17L-610.19,89.93L-638.68,87.88L-654.91,84.77L-661.65,76.46L-657.41,63.75L-639.29,55.86L-620.12,57.28L-609.42,70.54L-594.06,59.27L-607.68,41.73L-641.86,38.55L-672.29,53.00L-680.83,82.54L-667.75,102.12L-645.73,107.81L-615.64,109.81L-600.85,113.96L-595.19,124.02L-601.54,139.26L-618.51,146.28L-641.23,143.41ZM-558.64,6.96L-552.93,-2.40L-555.12,-13.76L-564.11,-20.46L-574.43,-18.45L-580.06,-8.93L-577.86,2.41L-568.97,8.97ZM-527.42,141.55L-550.02,25.43L-570.11,29.34L-547.52,145.46ZM-445.19,175.97L-406.99,150.43L-404.51,109.76L-425.63,1.23L-443.50,4.71L-440.45,20.34L-456.50,8.06L-477.99,6.21L-512.28,31.03L-516.58,78.73L-494.71,121.34L-453.61,131.49L-436.46,123.70L-425.53,108.98L-423.93,117.51L-425.97,144.89L-448.09,158.56L-467.70,156.94L-478.08,142.61L-492.73,153.11L-478.44,172.51ZM-473.52,23.08L-449.09,30.27L-432.06,62.31L-434.99,98.21L-455.79,114.19L-480.48,107.06L-496.07,74.76L-493.73,38.96ZM-374.34,111.77L-354.24,107.86L-366.53,44.66L-363.62,13.13L-342.91,-1.60L-322.39,3.44L-312.39,25.78L-298.53,97.02L-278.43,93.11L-292.29,21.87L-306.79,-12.06L-342.19,-19.72L-362.97,-10.71L-375.58,8.87L-378.84,-7.87L-396.93,-4.35ZM-106.38,45.99L-89.83,58.27L-77.83,42.49L-97.38,27.78L-91.91,3.36L-95.66,-21.72L-115.73,-18.96L-112.91,-1.63L-114.71,14.91L-150.53,-11.95L-125.97,-41.52L-122.38,-67.97L-136.57,-92.72L-172.94,-99.50L-202.12,-83.04L-209.19,-48.71L-193.72,-18.76L-181.27,-8.99L-198.21,11.75L-201.85,38.76L-183.86,66.74L-143.84,72.16L-121.55,63.16ZM-149.00,54.26L-168.83,51.36L-180.21,34.55L-177.89,17.94L-165.89,2.16L-121.75,34.84L-132.17,47.51ZM-146.49,-44.06L-165.01,-23.01L-181.18,-36.81L-188.48,-52.70L-185.93,-70.04L-169.43,-81.22L-151.14,-77.46L-143.15,-63.88ZM59.78,14.33L34.10,8.27L17.20,-24.67L20.51,-61.55L42.05,-76.79L61.55,-73.99L76.66,-55.62L92.28,-67.64L72.51,-89.65L38.72,-93.87L2.55,-69.57L-3.31,-20.68L20.44,22.45L63.10,31.41L92.87,14.95L102.82,-12.25L83.97,-18.03L76.80,4.47ZM152.79,9.21L121.50,-151.57L101.41,-147.66L132.69,13.12ZM170.70,-134.94L176.41,-144.31L174.22,-155.66L165.23,-162.36L154.91,-160.35L149.28,-150.83L151.48,-139.49L160.37,-132.93ZM201.92,-0.35L179.32,-116.47L159.23,-112.56L181.82,3.56ZM229.90,-5.79L250.04,-9.71L238.36,-69.78L238.05,-100.60L259.14,-118.74L276.25,-114.56L285.33,-95.40L300.11,-19.45L320.21,-23.36L307.13,-90.58L309.37,-117.38L329.52,-132.43L348.34,-126.61L356.18,-106.83L370.52,-33.15L390.62,-37.06L374.89,-117.90L360.19,-145.51L330.48,-150.60L310.50,-141.49L298.01,-120.79L282.98,-135.41L260.73,-136.92L240.53,-128.26L228.66,-108.92L225.44,-125.44L207.35,-121.92ZM474.04,-134.12L412.46,-101.29L404.53,-70.94L421.62,-46.89L451.57,-44.15L471.58,-52.24L487.91,-69.93L490.44,-56.48L509.19,-60.13L494.65,-135.05L477.44,-167.08L440.41,-172.02L410.63,-158.30L399.85,-132.69L417.69,-125.99L424.49,-145.63L441.55,-155.21L462.21,-153.30ZM477.49,-116.35L483.20,-86.95L471.41,-71.74L451.59,-61.17L435.70,-62.15L425.78,-76.00L431.68,-93.52ZM589.62,-74.16L589.62,-74.17L583.93,-91.04L575.20,-87.94L564.56,-90.96L559.98,-105.24L546.99,-172.01L566.87,-175.88L563.87,-191.29L543.99,-187.42L536.17,-227.62L516.07,-223.71L523.89,-183.51L507.37,-180.30L510.37,-164.89L526.89,-168.10L539.88,-101.33L549.92,-74.19L574.68,-69.03ZM632.07,-106.96L614.35,-135.50L700.55,-152.29L700.10,-160.55L678.53,-200.50L634.88,-209.94L598.71,-185.65L592.86,-136.76L616.61,-93.63L659.25,-84.67L690.52,-100.92L701.13,-127.84L683.59,-134.56L675.27,-112.33L657.06,-101.98ZM611.89,-151.73L619.33,-180.76L638.18,-192.88L662.85,-187.63L676.88,-164.37ZM-336.36,299.99L-362.04,293.93L-378.93,260.99L-375.62,224.11L-354.09,208.87L-334.58,211.67L-319.47,230.05L-303.86,218.02L-323.62,196.01L-357.41,191.79L-393.59,216.09L-399.45,264.98L-375.70,308.11L-333.03,317.07L-303.27,300.62L-293.32,273.41L-312.16,267.63L-319.33,290.13ZM-264.11,298.91L-243.87,294.97L-256.17,231.78L-253.18,200.66L-232.48,185.93L-211.95,190.98L-201.89,213.64L-188.19,284.14L-168.14,280.24L-181.80,209.56L-196.35,175.47L-231.76,167.82L-252.24,176.91L-263.41,194.71L-275.18,134.19L-295.40,138.13ZM-83.78,183.00L-145.35,215.83L-153.28,246.18L-136.19,270.22L-106.24,272.96L-86.23,264.88L-69.90,247.19L-67.38,260.63L-48.62,256.98L-63.16,182.07L-80.37,150.04L-117.40,145.10L-147.18,158.81L-157.96,184.43L-140.12,191.13L-133.32,171.49L-116.26,161.91L-95.60,163.82ZM-80.32,200.77L-74.61,230.17L-86.40,245.38L-106.22,255.95L-122.11,254.97L-132.03,241.12L-126.13,223.59ZM-18.35,251.10L1.74,247.19L-10.55,183.99L-7.64,152.46L13.07,137.72L33.59,142.77L43.60,165.11L57.46,236.35L77.55,232.44L63.69,161.20L49.20,127.26L13.79,119.61L-6.98,128.62L-19.60,148.20L-22.86,131.45L-40.95,134.97ZM159.34,266.94L197.54,241.40L200.02,200.73L178.90,92.20L161.04,95.68L164.08,111.31L148.03,99.03L126.54,97.18L92.25,122.00L87.95,169.70L109.82,212.31L150.92,222.46L168.07,214.67L179.01,199.95L180.61,208.48L178.56,235.86L156.44,249.53L136.83,247.91L126.45,233.59L111.80,244.08L126.09,263.48ZM131.01,114.06L155.44,121.24L172.47,153.28L169.54,189.18L148.74,205.16L124.05,198.03L108.46,165.73L110.80,129.93ZM250.89,175.79L233.18,147.25L319.38,130.46L318.93,122.20L297.35,82.25L253.71,72.81L217.54,97.10L211.69,145.99L235.44,189.12L278.08,198.08L309.35,181.83L319.96,154.91L302.41,148.19L294.10,170.43L275.89,180.77ZM230.72,131.02L238.16,101.99L257.01,89.87L281.68,95.12L295.70,118.38Z" fill="#ffffff" stroke="#000000"/>
    <path d="M-597.47,-36.22L-627.74,-175.85L-574.53,-187.39L-578.58,-206.08L-705.90,-178.48L-701.84,-159.79L-648.63,-171.32L-618.36,-31.69ZM-526.22,-51.67L-506.29,-55.99L-519.78,-118.22L-517.48,-149.05L-497.33,-164.05L-476.92,-159.50L-466.50,-137.30L-451.46,-67.88L-431.72,-72.16L-446.72,-141.75L-461.83,-175.16L-497.00,-181.98L-517.06,-172.56L-527.72,-154.72L-540.65,-214.31L-560.55,-209.99ZM-384.17,-105.24L-402.28,-133.09L-317.41,-151.51L-318.03,-159.66L-340.21,-198.71L-383.56,-207.13L-418.81,-182.34L-423.56,-133.88L-399.17,-91.73L-356.82,-83.77L-326.24,-100.50L-316.32,-127.34L-333.81,-133.62L-341.56,-111.46L-359.34,-100.85ZM-405.06,-149.08L-398.32,-177.95L-379.94,-190.33L-355.44,-185.66L-341.07,-162.95ZM-195.92,-227.66L-179.99,-225.97L-177.68,-243.97L-198.64,-247.10L-216.26,-237.15L-225.46,-215.88L-229.75,-235.67L-247.56,-231.81L-223.02,-118.58L-202.98,-121.75L-216.38,-183.54L-215.12,-212.68ZM-117.05,-264.82L-152.87,-239.92L-158.18,-191.33L-133.22,-149.31L-90.31,-141.47L-54.49,-166.38L-49.17,-214.97L-74.12,-256.99ZM-93.95,-158.28L-120.02,-163.60L-137.98,-195.69L-134.92,-232.34L-113.40,-247.99L-87.31,-242.67L-69.34,-210.57L-72.41,-173.92ZM3.93,-166.62L-30.39,-324.94L-50.18,-320.65L-15.86,-162.33ZM51.87,-199.78L33.76,-227.63L118.63,-246.05L118.02,-254.20L95.84,-293.25L52.48,-301.67L17.23,-276.88L12.48,-228.42L36.88,-186.27L79.23,-178.31L109.80,-195.04L119.73,-221.88L102.23,-228.16L94.49,-206.00L76.70,-195.39ZM30.98,-243.62L37.73,-272.49L56.10,-284.87L80.61,-280.20L94.97,-257.50ZM234.33,-341.01L198.52,-316.10L193.21,-267.52L218.17,-225.49L261.08,-217.65L296.90,-242.57L302.22,-291.15L277.26,-333.18ZM257.43,-234.47L231.36,-239.79L213.41,-271.88L216.47,-308.53L237.98,-324.18L264.07,-318.85L282.04,-286.76L278.98,-250.11ZM359.22,-388.30L358.31,-405.30L339.68,-404.74L316.58,-389.45L314.60,-359.45L315.80,-353.95L298.64,-350.23L301.93,-335.06L319.09,-338.78L340.59,-239.61L359.72,-243.76L338.22,-342.93L360.42,-347.74L357.14,-362.92L334.93,-358.10L333.64,-364.04L334.16,-379.67L345.94,-387.77ZM-833.95,56.49L-853.74,60.78L-841.63,116.65L-856.48,108.01L-875.81,107.40L-909.21,132.67L-912.46,179.93L-889.93,221.60L-849.06,230.76L-830.82,221.22L-820.60,203.02L-817.22,218.63L-799.63,214.81ZM-871.02,123.97L-845.89,130.38L-829.22,161.88L-832.19,197.62L-851.57,213.68L-876.16,207.16L-892.26,175.55L-890.70,140.10ZM-751.69,181.65L-769.80,153.80L-684.93,135.38L-685.55,127.23L-707.72,88.18L-751.08,79.76L-786.33,104.55L-791.08,153.01L-766.68,195.16L-724.34,203.12L-693.76,186.39L-683.83,159.55L-701.33,153.27L-709.08,175.43L-726.86,186.04ZM-772.58,137.81L-765.83,108.94L-747.46,96.56L-722.95,101.23L-708.59,123.93ZM-647.13,144.66L-662.24,156.16L-646.18,176.18L-610.21,178.50L-579.63,163.44L-570.77,132.84L-584.74,111.31L-606.15,105.59L-634.37,104.16L-650.48,101.44L-657.32,93.36L-653.40,80.70L-635.64,72.51L-616.66,73.52L-605.80,86.40L-590.85,74.93L-604.69,57.88L-638.55,55.45L-668.34,70.39L-676.15,99.77L-662.81,118.86L-640.92,124.02L-611.13,125.37L-596.41,129.16L-590.60,138.98L-596.56,154.18L-613.19,161.48L-635.72,159.12ZM-556.94,22.46L-551.48,13.08L-553.89,1.90L-562.92,-4.54L-573.08,-2.33L-578.45,7.20L-576.03,18.37L-567.10,24.66ZM-523.22,154.88L-548.02,40.54L-567.81,44.83L-543.01,159.18ZM-441.19,187.18L-403.96,161.12L-402.37,120.85L-425.54,13.99L-443.13,17.80L-439.79,33.19L-455.91,21.39L-477.20,20.02L-510.59,45.28L-513.83,92.54L-491.31,134.21L-450.45,143.37L-433.66,135.31L-423.16,120.53L-421.40,128.93L-422.84,156.04L-444.42,170.03L-463.85,168.84L-474.41,154.89L-488.67,165.58L-474.14,184.46ZM-472.43,36.61L-448.12,43.20L-430.61,74.51L-432.74,110.08L-452.98,126.32L-477.53,119.79L-493.63,88.18L-492.07,52.73ZM-372.48,122.20L-352.69,117.91L-366.19,55.68L-363.97,24.44L-343.81,9.44L-323.41,13.99L-313.04,35.87L-297.84,106.02L-278.05,101.73L-293.25,31.58L-308.31,-1.67L-343.48,-8.49L-363.83,0.86L-375.89,20.49L-379.46,4.00L-397.28,7.86ZM-108.92,51.51L-92.30,63.29L-80.77,47.44L-100.41,33.30L-95.52,9.04L-99.75,-15.67L-119.54,-12.52L-116.39,4.55L-117.81,20.95L-153.79,-4.86L-130.13,-34.62L-127.15,-60.84L-141.70,-85.02L-177.81,-90.95L-206.32,-74.06L-212.57,-39.96L-196.64,-10.68L-184.14,-1.28L-200.44,19.59L-203.47,46.37L-185.09,73.66L-145.41,78.17L-123.56,68.80ZM-150.89,60.58L-170.56,58.13L-182.17,41.75L-180.22,25.28L-168.68,9.43L-124.35,40.80L-134.39,53.55ZM-150.48,-36.69L-168.35,-15.49L-184.63,-28.79L-192.18,-44.35L-190.03,-61.55L-173.95,-72.95L-155.78,-69.62L-147.60,-56.36ZM54.70,16.69L29.18,11.24L11.78,-20.97L14.28,-57.51L35.25,-73.04L54.59,-70.68L69.92,-52.83L85.11,-65.05L65.10,-86.39L31.60,-89.85L-3.66,-65.06L-8.42,-16.60L15.98,25.55L58.35,33.51L87.44,16.61L96.70,-10.50L77.95,-15.82L71.33,6.58ZM146.56,9.66L112.24,-148.66L92.45,-144.37L126.77,13.95ZM161.23,-133.25L166.68,-142.63L164.28,-153.81L155.25,-160.25L145.08,-158.04L139.72,-148.51L142.13,-137.34L151.06,-131.05ZM194.94,-0.83L170.15,-115.17L150.36,-110.88L175.15,3.47ZM222.50,-6.80L242.33,-11.10L229.51,-70.25L228.55,-100.72L249.02,-119.10L266.03,-115.33L275.41,-96.58L291.63,-21.79L311.42,-26.08L297.07,-92.27L298.72,-118.81L318.32,-134.12L337.06,-128.77L345.23,-109.37L360.96,-36.82L380.75,-41.11L363.49,-120.71L348.38,-147.70L318.89,-152.10L299.32,-142.67L287.41,-121.94L272.25,-136.09L250.21,-137.11L230.42,-128.12L219.09,-108.74L215.56,-125.01L197.75,-121.15ZM461.18,-138.84L400.99,-105.08L393.79,-74.90L411.20,-51.49L440.87,-49.41L460.48,-57.83L476.26,-75.67L479.04,-62.42L497.51,-66.43L481.54,-140.20L463.85,-171.51L427.14,-175.61L397.98,-161.42L387.86,-135.86L405.64,-129.61L411.95,-149.17L428.62,-159.01L449.09,-157.56ZM464.98,-121.35L471.24,-92.40L459.90,-77.10L440.53,-66.24L424.79,-66.87L414.70,-80.35L420.16,-97.81ZM576.73,-82.00L576.74,-82.00L570.76,-98.56L562.18,-95.31L551.60,-98.08L546.77,-112.10L532.52,-177.85L552.09,-182.09L548.80,-197.27L529.23,-193.02L520.65,-232.60L500.86,-228.31L509.44,-188.73L493.17,-185.20L496.46,-170.03L512.73,-173.56L526.98,-107.81L537.48,-81.18L562.07,-76.61ZM618.01,-115.33L599.90,-143.17L684.77,-161.59L684.15,-169.75L661.98,-208.80L618.62,-217.21L583.37,-192.43L578.62,-143.96L603.02,-101.82L645.36,-93.86L675.94,-110.59L685.87,-137.43L668.37,-143.70L660.62,-121.54L642.84,-110.93ZM597.12,-159.16L603.87,-188.03L622.24,-200.41L646.75,-195.74L661.11,-173.04ZM-330.96,307.52L-356.48,302.07L-373.88,269.85L-371.38,233.32L-350.41,217.79L-331.07,220.14L-315.74,237.99L-300.55,225.77L-320.56,204.43L-354.06,200.97L-389.31,225.76L-394.08,274.23L-369.68,316.37L-327.31,324.33L-298.22,307.43L-288.96,280.32L-307.71,275.00L-314.33,297.40ZM-259.55,304.92L-239.61,300.60L-253.11,238.37L-250.81,207.54L-230.66,192.54L-210.24,197.09L-199.82,219.29L-184.78,288.71L-165.04,284.43L-180.04,214.84L-195.15,181.43L-230.32,174.61L-250.38,184.03L-261.05,201.87L-273.97,142.28L-293.87,146.60ZM-83.68,186.50L-143.87,220.26L-151.07,250.44L-133.66,273.85L-103.99,275.93L-84.38,267.51L-68.60,249.67L-65.82,262.92L-47.35,258.91L-63.32,185.14L-81.01,153.83L-117.72,149.73L-146.88,163.92L-157.00,189.48L-139.22,195.73L-132.91,176.17L-116.24,166.33L-95.77,167.78ZM-79.88,203.99L-73.62,232.94L-84.96,248.24L-104.33,259.10L-120.07,258.47L-130.16,244.99L-124.70,227.53ZM-17.55,252.45L2.24,248.16L-11.25,185.93L-9.04,154.69L11.13,139.69L31.52,144.24L41.89,166.12L57.10,236.27L76.89,231.98L61.68,161.83L46.63,128.58L11.46,121.76L-8.90,131.11L-20.96,150.74L-24.53,134.25L-42.34,138.11ZM158.48,264.37L195.72,238.30L197.31,198.04L174.14,91.17L156.54,94.99L159.88,110.38L143.76,98.58L122.47,97.20L89.08,122.47L85.84,169.72L108.36,211.40L149.22,220.56L166.01,212.50L176.51,197.71L178.28,206.12L176.83,233.23L155.25,247.21L135.82,246.02L125.26,232.08L111.00,242.77L125.54,261.65ZM127.24,113.79L151.55,120.39L169.06,151.70L166.93,187.26L146.69,203.50L122.14,196.97L106.04,165.36L107.60,129.92ZM247.09,172.30L228.97,144.46L313.85,126.04L313.23,117.88L291.05,78.83L247.69,70.42L212.44,95.20L207.69,143.67L232.09,185.81L274.44,193.77L305.02,177.04L314.94,150.20L297.45,143.92L289.70,166.09L271.91,176.70ZM226.19,128.46L232.94,99.60L251.32,87.21L275.82,91.89L290.18,114.59Z" fill="#ffffff" stroke="#000000"/>
    <path d="M-906.35,492L-906.35,469.28L-898.22,492L-894.99,492L-886.86,469.28L-886.86,492L-883.25,492L-883.25,464.64L-888.22,464.64L-896.55,487.33L-904.68,464.64L-909.96,464.64L-909.96,492ZM-865.67,478.75L-876.82,482.17L-879.09,486.89L-877.05,491.38L-872.23,492.78L-868.69,492.09L-865.45,489.71L-865.46,492L-862.27,492L-862.27,479.25L-864.06,473.45L-869.98,471.46L-875.30,472.76L-877.88,476.62L-875.17,478.28L-873.43,475.28L-870.33,474.25L-867.00,475.23ZM-865.67,481.77L-865.68,486.77L-868.09,488.89L-871.68,489.99L-874.26,489.33L-875.44,486.74L-873.91,484.05ZM-857.12,492L-853.70,492L-853.70,481.25L-852.22,476.17L-848.35,474.41L-845.15,475.90L-844.22,479.88L-844.22,492L-840.80,492L-840.80,479.88L-842.09,473.85L-847.66,471.47L-851.35,472.28L-854.04,475.09L-854.04,472.24L-857.12,472.24ZM-833.34,468.94L-832.11,467.58L-832.10,465.65L-833.36,464.27L-835.12,464.27L-836.35,465.65L-836.35,467.58L-835.10,468.94ZM-832.52,492L-832.52,472.24L-835.94,472.24L-835.94,492ZM-818.31,468.12L-817.85,465.29L-820.94,464.71L-825.30,466.41L-826.70,471.29L-826.70,472.24L-829.67,472.24L-829.67,474.86L-826.70,474.86L-826.70,492L-823.40,492L-823.40,474.86L-819.56,474.86L-819.56,472.24L-823.40,472.24L-823.40,471.21L-822.75,468.65L-820.52,467.74ZM-807.97,471.46L-814.77,474.29L-817.39,482.12L-814.77,489.95L-807.97,492.78L-801.17,489.95L-798.55,482.12L-801.16,474.29ZM-807.97,489.87L-812.08,488.06L-813.90,482.12L-812.08,476.18L-807.97,474.37L-803.85,476.18L-802.04,482.12L-803.85,488.06ZM-795.03,492L-791.61,492L-791.61,481.25L-790.13,476.17L-786.26,474.41L-783.06,475.90L-782.13,479.88L-782.13,492L-778.71,492L-778.71,479.88L-780.00,473.85L-785.56,471.47L-789.26,472.28L-791.95,475.09L-791.95,472.24L-795.03,472.24ZM-765.45,492.27L-765.45,492.26L-765.85,489.32L-767.38,489.55L-769.03,488.71L-769.32,486.22L-769.32,474.86L-765.94,474.86L-765.94,472.24L-769.32,472.24L-769.32,465.40L-772.74,465.40L-772.74,472.24L-775.55,472.24L-775.55,474.86L-772.74,474.86L-772.74,486.22L-771.96,491.00L-768.07,492.63ZM-737.50,487.93L-737.50,478.13L-749.05,478.13L-749.05,481.31L-740.99,481.31L-740.97,486.22L-748.63,489.75L-755.95,486.41L-758.55,478.32L-756.06,470.17L-749.21,466.88L-744.27,468.25L-741.30,473.01L-738.24,471.11L-741.44,465.93L-749.13,463.79L-758.98,468.04L-762.42,478.32L-758.78,488.60L-748.74,492.86ZM-724.35,474.77L-721.78,475.62L-720.76,472.73L-724.11,471.47L-727.37,472.48L-729.65,475.66L-729.65,472.24L-732.73,472.24L-732.73,491.81L-729.31,492L-729.31,481.32L-728.06,476.56ZM-710.01,471.46L-716.81,474.29L-719.42,482.12L-716.81,489.95L-710.01,492.78L-703.20,489.95L-700.58,482.12L-703.20,474.29ZM-710.01,489.87L-714.12,488.06L-715.93,482.12L-714.12,476.18L-710.01,474.37L-705.89,476.18L-704.07,482.12L-705.89,488.06ZM-688.58,492.27L-688.58,492.26L-688.97,489.32L-690.51,489.55L-692.15,488.71L-692.45,486.22L-692.45,474.86L-689.07,474.86L-689.07,472.24L-692.45,472.24L-692.45,465.40L-695.87,465.40L-695.87,472.24L-698.68,472.24L-698.68,474.86L-695.87,474.86L-695.87,486.22L-695.09,491.00L-691.19,492.63ZM-680.57,488.24L-682.57,483.00L-667.90,482.99L-667.71,481.63L-669.97,474.39L-676.83,471.45L-683.53,474.28L-686.05,482.11L-683.53,489.93L-676.83,492.76L-671.18,491.10L-668.58,487.02L-671.25,485.36L-673.32,488.74L-676.63,489.86ZM-682.45,480.26L-680.31,475.73L-676.83,474.35L-672.95,476.00L-671.40,480.26ZM-661.99,485.88L-664.90,487.24L-662.96,491.11L-657.11,492.78L-651.52,491.39L-648.97,486.66L-650.50,482.61L-653.83,480.90L-658.44,479.65L-661.00,478.62L-661.84,477.05L-660.74,475.10L-657.52,474.38L-654.42,475.23L-653.09,477.74L-650.21,476.38L-651.88,473.07L-657.39,471.46L-662.84,472.86L-665.18,477.43L-663.66,481.06L-660.23,482.69L-655.36,483.98L-653.07,485.13L-652.46,486.96L-653.99,489.26L-656.99,489.87L-660.63,488.67ZM-641.92,483.45L-638.72,483.45L-637.20,484.67L-633.14,492.30L-630.05,490.63L-634.16,483.45L-636.67,482.04L-634.62,480.06L-632.77,476.14L-631.66,475.64L-630.10,475.39L-630.56,472.24L-633.40,472.52L-635.30,474.17L-637.43,478.82L-638.72,480.60L-641.91,480.60L-641.91,464.64L-643.66,464.64L-645.32,464.64L-645.33,492L-641.92,492ZM-625.58,492.01L-615.04,492.01L-607.42,490.45L-604.53,484.21L-606.06,480.03L-610.31,477.70L-606.80,475.27L-605.82,471.62L-608.58,466.13L-615.58,464.63L-625.58,464.63ZM-621.94,476.42L-621.95,467.89L-616.40,467.89L-611.64,468.44L-609.62,472.08L-611.57,475.51L-615.93,476.42ZM-621.94,488.79L-621.94,479.64L-615.54,479.64L-610.64,480.53L-608.45,484.21L-610.32,488.02L-615.04,488.79ZM-592.40,471.46L-599.20,474.29L-601.81,482.12L-599.20,489.95L-592.40,492.78L-585.59,489.95L-582.97,482.12L-585.59,474.29ZM-592.40,489.87L-596.51,488.06L-598.32,482.12L-596.51,476.18L-592.40,474.37L-588.28,476.18L-586.46,482.12L-588.28,488.06ZM-571.27,471.46L-578.07,474.29L-580.68,482.12L-578.07,489.95L-571.27,492.78L-564.46,489.95L-561.85,482.12L-564.46,474.29ZM-571.27,489.87L-575.38,488.06L-577.19,482.12L-575.38,476.18L-571.27,474.37L-567.15,476.18L-565.33,482.12L-567.15,488.06ZM-554.82,483.45L-551.62,483.45L-550.10,484.67L-546.04,492.30L-542.96,490.63L-547.06,483.45L-549.57,482.04L-547.52,480.06L-545.67,476.14L-544.56,475.64L-543.00,475.39L-543.46,472.24L-546.31,472.52L-548.20,474.17L-550.34,478.82L-551.62,480.60L-554.82,480.60L-554.82,464.64L-556.56,464.64L-558.23,464.64L-558.23,492L-554.82,492Z"/>
</svg>