<?xml version="1.0"?>
<svg xmlns="http://www.w3.org/2000/svg" width="1920" height="1080" viewBox="-960 -540 1920 1080">
    <path d="M-725.49,-209.93L-656.08,-209.93L-605.95,-220.17L-586.98,-261.23L-597.00,-288.77L-624.96,-304.07L-601.90,-320.08L-595.44,-344.11L-613.60,-380.19L-659.67,-390.05L-725.49,-390.05ZM-701.52,-312.52L-701.56,-368.63L-665.05,-368.63L-633.76,-364.97L-620.44,-341.07L-633.28,-318.51L-661.99,-312.52ZM-701.52,-231.14L-701.48,-291.33L-659.40,-291.33L-627.18,-285.45L-612.75,-261.25L-625.05,-236.20L-656.08,-231.14ZM-481.02,-297.19L-554.33,-274.70L-569.25,-243.62L-555.86,-214.10L-524.14,-204.86L-500.86,-209.38L-479.53,-225.04L-479.63,-210L-458.63,-210L-458.59,-293.86L-470.43,-332.03L-509.34,-345.13L-544.34,-336.58L-561.35,-311.21L-543.50,-300.24L-532.05,-320.00L-511.63,-326.75L-489.75,-320.35ZM-481.02,-277.30L-481.04,-244.38L-496.95,-230.45L-520.54,-223.21L-537.48,-227.60L-545.27,-244.62L-535.23,-262.29ZM-317.51,-340L-340.01,-340L-340.01,-269.52L-349.75,-235.83L-375.17,-224.29L-396.26,-234.05L-402.38,-260.67L-402.38,-340L-424.88,-340L-424.88,-260.50L-416.39,-220.60L-379.79,-204.92L-355.49,-210.94L-337.76,-228.75L-337.76,-210L-317.51,-210ZM-154.88,-210L-154.88,-231.25L-257.88,-231.25L-257.88,-291.25L-169.88,-291.25L-169.88,-312.50L-257.88,-312.50L-257.88,-368.75L-157.38,-368.75L-157.38,-390L-281.63,-390L-281.63,-210ZM-66.02,-323.34L-49.13,-317.75L-42.38,-336.75L-64.40,-345.09L-85.88,-338.43L-100.88,-317.50L-100.88,-340L-121.13,-340L-121.13,-211.27L-98.63,-210L-98.63,-280.25L-90.40,-311.59ZM80.13,-390L57.63,-390L57.63,-326.48L43.53,-339.37L22.69,-344.57L-19.53,-325.00L-34.19,-274.45L-19.53,-223.89L22.69,-204.32L44.74,-210.38L60.13,-227.75L60.13,-210L80.13,-210ZM23.99,-325.45L49.77,-312.57L60.45,-274.45L48.81,-236.33L23.99,-223.46L-1.18,-236.33L-11.22,-274.45L-1.18,-312.57ZM139.99,-234.73L126.88,-269.23L223.38,-269.25L224.63,-278.25L209.74,-325.87L164.64,-345.22L120.53,-326.61L103.95,-275.10L120.53,-223.59L164.64,-204.97L201.78,-215.94L218.88,-242.75L201.36,-253.69L187.72,-231.44L165.91,-224.11ZM127.63,-287.25L141.75,-317.01L164.62,-326.13L190.12,-315.28L200.38,-287.25ZM248.01,-210L270.51,-210L270.51,-280.75L280.26,-314.15L305.69,-325.70L326.77,-315.95L332.88,-289.75L332.88,-210L355.38,-210L355.38,-289.75L346.86,-329.40L310.27,-345.09L285.97,-339.73L268.26,-321.25L268.26,-340L248.01,-340ZM615.63,-266.25L615.63,-285L440.63,-285L440.63,-266.25ZM-630.49,15.07L-561.08,15.07L-510.95,4.83L-491.98,-36.23L-502.00,-63.77L-529.96,-79.07L-506.90,-95.08L-500.44,-119.11L-518.60,-155.19L-564.67,-165.05L-630.49,-165.05ZM-606.52,-87.52L-606.56,-143.63L-570.05,-143.63L-538.76,-139.97L-525.44,-116.07L-538.28,-93.51L-566.99,-87.52ZM-606.52,-6.14L-606.48,-66.33L-564.40,-66.33L-532.18,-60.45L-517.75,-36.25L-530.05,-11.20L-561.08,-6.14ZM-358.76,-115L-381.26,-115L-381.26,-44.52L-391.00,-10.83L-416.42,0.71L-437.51,-9.05L-443.63,-35.67L-443.63,-115L-466.13,-115L-466.13,-35.50L-457.64,4.40L-421.04,20.08L-396.74,14.06L-379.01,-3.75L-379.01,15L-358.76,15ZM-309.55,-136.74L-301.42,-145.64L-301.40,-158.35L-309.69,-167.46L-321.25,-167.46L-329.32,-158.37L-329.33,-145.67L-321.11,-136.74ZM-304.13,15L-304.13,-115L-326.63,-115L-326.63,15ZM-249.13,15L-249.13,-165L-271.63,-165L-271.63,15ZM-111.63,-165L-134.13,-165L-134.13,-101.48L-148.22,-114.37L-169.06,-119.57L-211.28,-100.00L-225.94,-49.45L-211.28,1.11L-169.06,20.68L-147.01,14.62L-131.63,-2.75L-131.63,15L-111.63,15ZM-167.76,-100.45L-141.98,-87.57L-131.30,-49.45L-142.94,-11.33L-167.76,1.54L-192.93,-11.33L-202.97,-49.45L-192.93,-87.57ZM120.88,15L120.88,-6.25L17.88,-6.25L17.88,-66.25L105.88,-66.25L105.88,-87.50L17.88,-87.50L17.88,-143.75L118.38,-143.75L118.38,-165L-5.88,-165L-5.88,15ZM233.98,-72.19L160.67,-49.70L145.75,-18.62L159.14,10.90L190.86,20.14L214.14,15.62L235.47,-0.04L235.38,15L256.38,15L256.41,-68.86L244.57,-107.03L205.66,-120.13L170.66,-111.58L153.65,-86.21L171.50,-75.24L182.95,-95.00L203.37,-101.75L225.25,-95.35ZM233.98,-52.30L233.96,-19.38L218.05,-5.45L194.46,1.79L177.52,-2.60L169.73,-19.62L179.77,-37.29ZM345.98,-98.34L362.88,-92.75L369.63,-111.75L347.60,-120.09L326.12,-113.43L311.13,-92.50L311.13,-115L290.88,-115L290.88,13.73L313.38,15L313.38,-55.25L321.60,-86.59ZM442.32,16.74L442.33,16.74L439.73,-2.65L429.65,-1.14L418.81,-6.63L416.88,-23L416.88,-97.75L439.13,-97.75L439.13,-115L416.88,-115L416.88,-160L394.38,-160L394.38,-115L375.88,-115L375.88,-97.75L394.38,-97.75L394.38,-23L399.51,8.39L425.13,19.15ZM466.88,15L489.54,15L489.54,-55.75L499.29,-88.69L524.70,-100.23L545.80,-90.48L551.89,-63.92L551.88,15L574.32,15L574.42,-64.10L565.87,-103.93L529.29,-119.62L505.29,-114.11L489.50,-97.25L489.50,-165L466.88,-165Z" fill="#ffffff" stroke="#000000"/>
    <path d="M-722.36,-211.14L-653.66,-210.55L-603.94,-220.25L-584.81,-260.74L-594.49,-288.08L-622.04,-303.48L-599.07,-319.13L-592.47,-342.86L-610.14,-378.74L-655.66,-388.89L-720.81,-389.46ZM-697.75,-312.50L-697.31,-368.05L-661.17,-367.74L-630.23,-363.84L-617.25,-340.06L-630.15,-317.84L-658.62,-312.16ZM-698.45,-231.93L-697.89,-291.52L-656.24,-291.16L-624.40,-285.06L-610.32,-260.98L-622.71,-236.29L-653.47,-231.54ZM-479.60,-295.42L-552.37,-273.79L-567.41,-243.15L-554.41,-213.81L-523.08,-204.39L-500.00,-208.67L-478.74,-223.98L-478.97,-209.10L-458.18,-208.92L-457.43,-291.94L-468.82,-329.82L-507.22,-343.12L-541.94,-334.96L-559.00,-310.00L-541.43,-298.98L-529.92,-318.44L-509.65,-324.96L-488.04,-318.43ZM-479.78,-275.73L-480.07,-243.15L-495.94,-229.49L-519.36,-222.53L-536.09,-227.02L-543.66,-243.93L-533.57,-261.34ZM-317.36,-336.40L-339.63,-336.59L-340.24,-266.82L-350.18,-233.55L-375.44,-222.35L-396.24,-232.19L-402.06,-258.59L-401.38,-337.13L-423.65,-337.32L-424.34,-258.62L-416.28,-219.05L-380.19,-203.21L-356.08,-208.96L-338.36,-226.44L-338.53,-207.88L-318.48,-207.70ZM-157.48,-206.31L-157.30,-227.34L-259.26,-228.23L-258.75,-287.63L-171.63,-286.87L-171.45,-307.91L-258.56,-308.66L-258.08,-364.35L-158.59,-363.48L-158.41,-384.52L-281.41,-385.59L-282.96,-207.40ZM-68.54,-317.75L-51.86,-312.06L-45.02,-330.82L-66.75,-339.26L-88.07,-332.86L-103.10,-312.26L-102.90,-334.54L-122.95,-334.71L-124.06,-207.27L-101.79,-205.82L-101.19,-275.37L-92.78,-306.33ZM76.71,-382.48L54.44,-382.67L53.89,-319.79L40.05,-332.67L19.46,-338.00L-22.50,-318.99L-37.45,-269.07L-23.37,-218.90L18.26,-199.16L40.14,-204.97L55.51,-222.03L55.36,-204.46L75.16,-204.28ZM20.58,-319.06L45.99,-306.09L56.24,-268.25L44.39,-230.62L19.70,-218.09L-5.10,-231.05L-14.71,-268.87L-4.44,-306.53ZM134.64,-228.25L121.95,-262.52L217.48,-261.71L218.80,-270.61L204.47,-317.88L159.99,-337.42L116.16,-319.37L99.31,-268.52L115.27,-217.39L158.78,-198.58L195.65,-209.12L212.80,-235.51L195.55,-246.49L181.87,-224.59L160.21,-217.52ZM122.85,-280.35L137.08,-309.69L159.80,-318.52L184.96,-307.57L194.87,-279.73ZM241.36,-202.84L263.63,-202.65L264.24,-272.69L274.19,-305.67L299.46,-316.88L320.24,-307.05L326.06,-281.06L325.37,-202.11L347.65,-201.92L348.33,-280.87L340.24,-320.19L304.16,-336.04L280.06,-330.94L262.36,-312.80L262.52,-331.36L242.47,-331.54ZM605.77,-255.36L605.93,-273.93L432.69,-275.43L432.53,-256.87ZM-630.25,12.41L-561.54,13.01L-511.83,3.31L-492.69,-37.18L-502.38,-64.52L-529.93,-79.92L-506.96,-95.57L-500.36,-119.30L-518.03,-155.18L-563.55,-165.33L-628.70,-165.90ZM-605.64,-88.94L-605.20,-144.49L-569.06,-144.18L-538.12,-140.28L-525.14,-116.50L-538.04,-94.28L-566.51,-88.60ZM-606.34,-8.37L-605.78,-67.96L-564.13,-67.60L-532.29,-61.50L-518.21,-37.42L-530.59,-12.73L-561.36,-7.98ZM-360.13,-114.01L-382.41,-114.21L-383.01,-44.44L-392.95,-11.17L-418.22,0.04L-439.01,-9.80L-444.83,-36.21L-444.15,-114.74L-466.42,-114.94L-467.11,-36.23L-459.05,3.34L-422.96,19.18L-398.85,13.43L-381.13,-4.05L-381.30,14.51L-361.25,14.68ZM-311.24,-135.11L-303.11,-143.85L-302.98,-156.43L-311.11,-165.52L-322.55,-165.62L-330.62,-156.70L-330.73,-144.12L-322.68,-135.21ZM-307.17,15.15L-306.05,-113.54L-328.32,-113.74L-329.44,14.96ZM-252.72,15.63L-251.17,-162.57L-273.45,-162.76L-274.99,15.43ZM-115.05,-161.39L-137.33,-161.58L-137.87,-98.70L-151.71,-111.57L-172.30,-116.90L-214.26,-97.89L-229.21,-47.97L-215.13,2.20L-173.51,21.93L-151.62,16.12L-136.25,-0.94L-136.40,16.64L-116.60,16.81ZM-171.18,-97.97L-145.77,-85.00L-135.52,-47.16L-147.37,-9.53L-172.06,3.00L-196.86,-9.96L-206.48,-47.78L-196.20,-85.43ZM113.57,18.81L113.75,-2.23L11.78,-3.12L12.30,-62.51L99.42,-61.76L99.60,-82.79L12.48,-83.55L12.97,-139.24L112.46,-138.37L112.64,-159.41L-10.36,-160.48L-11.91,17.72ZM226.28,-66.53L153.51,-44.90L138.48,-14.26L151.48,15.08L182.81,24.50L205.89,20.22L227.14,4.91L226.92,19.79L247.71,19.97L248.46,-63.05L237.07,-100.93L198.67,-114.23L163.95,-106.07L146.89,-81.11L164.46,-70.09L175.97,-89.55L196.24,-96.07L217.84,-89.54ZM226.11,-46.84L225.82,-14.26L209.95,-0.60L186.53,6.37L169.79,1.87L162.23,-15.04L172.32,-32.45ZM337.39,-91.46L354.06,-85.78L360.91,-104.53L339.18,-112.97L317.86,-106.57L302.83,-85.98L303.03,-108.25L282.98,-108.43L281.87,19.01L304.13,20.46L304.74,-49.08L313.15,-80.04ZM431.77,23.30L431.78,23.29L429.37,4.08L419.39,5.48L408.70,-0.05L406.92,-16.27L407.57,-90.27L429.59,-90.07L429.74,-107.15L407.71,-107.34L408.10,-151.89L385.83,-152.08L385.44,-107.54L367.13,-107.69L366.98,-90.62L385.29,-90.46L384.65,-16.46L389.46,14.66L414.73,25.53ZM456.09,21.78L478.53,21.98L479.14,-48.06L489.08,-80.58L514.33,-91.79L535.13,-81.96L540.93,-55.62L540.24,22.51L562.46,22.71L563.24,-55.60L555.12,-95.10L519.04,-110.95L495.23,-105.70L479.46,-89.15L480.04,-156.22L457.64,-156.41Z" fill="#ffffff" stroke="#000000"/>
    <path d="M-719.15,-212.38L-651.15,-211.20L-601.85,-220.38L-582.56,-260.28L-591.92,-287.44L-619.06,-302.91L-596.18,-318.21L-589.45,-341.64L-606.63,-377.31L-651.60,-387.75L-716.09,-388.87ZM-693.92,-312.49L-693.01,-367.48L-657.24,-366.86L-626.64,-362.73L-614.00,-339.09L-626.96,-317.20L-655.19,-311.82ZM-695.31,-232.75L-694.24,-291.73L-653.01,-291.01L-621.55,-284.70L-607.81,-260.74L-620.29,-236.41L-650.79,-231.98ZM-478.13,-293.71L-550.35,-272.92L-565.50,-242.73L-552.88,-213.57L-521.95,-203.98L-499.06,-208.02L-477.89,-222.99L-478.25,-208.26L-457.67,-207.90L-456.21,-290.07L-467.16,-327.67L-505.06,-341.17L-539.50,-333.39L-556.60,-308.82L-539.30,-297.77L-527.74,-316.93L-507.62,-323.21L-486.29,-316.56ZM-478.47,-274.22L-479.04,-241.98L-494.87,-228.59L-518.11,-221.90L-534.64,-226.49L-541.98,-243.30L-531.84,-260.44ZM-317.18,-332.88L-339.23,-333.26L-340.43,-264.21L-350.55,-231.36L-375.66,-220.48L-396.15,-230.40L-401.69,-256.59L-400.34,-334.33L-422.39,-334.71L-423.74,-256.81L-416.10,-217.57L-380.51,-201.58L-356.60,-207.06L-338.92,-224.22L-339.24,-205.84L-319.39,-205.50ZM-160.04,-202.73L-159.68,-223.55L-260.60,-225.31L-259.58,-284.10L-173.35,-282.60L-172.99,-303.42L-259.22,-304.92L-258.26,-360.04L-159.79,-358.33L-159.42,-379.15L-281.17,-381.26L-284.24,-204.89ZM-71.04,-312.28L-54.59,-306.51L-47.65,-325.01L-69.09,-333.56L-90.25,-327.40L-105.30,-307.15L-104.91,-329.19L-124.76,-329.54L-126.95,-203.40L-104.92,-201.77L-103.73,-270.61L-95.13,-301.18ZM73.29,-375.10L51.24,-375.49L50.16,-313.25L36.57,-326.11L16.24,-331.57L-25.46,-313.11L-40.68,-263.82L-27.18,-214.04L13.85,-194.15L35.56,-199.71L50.93,-216.46L50.63,-199.07L70.23,-198.73ZM17.19,-312.81L42.23,-299.75L52.05,-262.21L39.99,-225.06L15.45,-212.87L-8.99,-225.92L-18.18,-263.43L-7.69,-300.62ZM129.31,-221.94L117.04,-255.97L211.60,-254.35L212.98,-263.14L199.20,-310.06L155.34,-329.79L111.80,-312.30L94.68,-262.11L110.04,-211.36L152.95,-192.37L189.53,-202.48L206.74,-228.46L189.76,-239.47L176.02,-217.91L154.52,-211.10ZM118.08,-273.61L132.43,-302.53L154.99,-311.08L179.80,-300.02L189.37,-272.38ZM234.72,-195.87L256.77,-195.49L257.98,-264.81L268.10,-297.38L293.22,-308.25L313.71,-298.34L319.24,-272.57L317.88,-194.43L339.93,-194.04L341.29,-272.19L333.62,-311.18L298.04,-327.18L274.14,-322.34L256.46,-304.54L256.78,-322.91L236.94,-323.25ZM595.89,-244.73L596.21,-263.10L424.74,-266.08L424.42,-247.71ZM-629.90,9.71L-561.89,10.89L-512.60,1.71L-493.31,-38.20L-502.66,-65.35L-529.80,-80.83L-506.93,-96.12L-500.19,-119.55L-517.37,-155.22L-562.35,-165.66L-626.83,-166.78ZM-604.67,-90.41L-603.75,-145.39L-567.98,-144.77L-537.38,-140.65L-524.74,-117.00L-537.71,-95.11L-565.94,-89.73ZM-606.05,-10.67L-604.99,-69.65L-563.76,-68.93L-532.29,-62.61L-518.56,-38.66L-531.04,-14.33L-561.53,-9.89ZM-361.43,-113.12L-383.48,-113.50L-384.68,-44.44L-394.80,-11.60L-419.91,-0.72L-440.40,-10.64L-445.94,-36.83L-444.59,-114.56L-466.64,-114.94L-467.99,-37.05L-460.35,2.20L-424.76,18.18L-400.85,12.70L-383.17,-4.45L-383.49,13.92L-363.64,14.26ZM-312.85,-133.58L-304.73,-142.16L-304.49,-154.61L-312.46,-163.68L-323.79,-163.88L-331.85,-155.11L-332.07,-142.67L-324.18,-133.77ZM-310.11,15.19L-307.90,-112.19L-329.95,-112.57L-332.16,14.81ZM-256.22,16.13L-253.16,-160.24L-275.20,-160.63L-278.27,15.75ZM-118.43,-157.90L-140.47,-158.28L-141.56,-96.04L-155.15,-108.91L-175.48,-114.36L-217.18,-95.91L-232.40,-46.62L-218.90,3.16L-177.87,23.06L-156.15,17.49L-140.79,0.74L-141.09,18.13L-121.49,18.47ZM-174.53,-95.61L-149.49,-82.55L-139.67,-45.01L-151.72,-7.86L-176.27,4.33L-200.71,-8.71L-209.90,-46.23L-199.41,-83.42ZM106.32,22.43L106.69,1.61L5.76,-0.14L6.78,-58.94L93.01,-57.44L93.37,-78.26L7.14,-79.76L8.10,-134.87L106.58,-133.16L106.94,-153.99L-14.81,-156.10L-17.87,20.27ZM218.63,-61.07L146.41,-40.28L131.27,-10.09L143.89,19.07L174.82,28.66L197.70,24.62L218.87,9.65L218.52,24.38L239.09,24.74L240.55,-57.43L229.60,-95.03L191.71,-108.53L157.27,-100.75L140.16,-76.18L157.46,-65.13L169.02,-84.29L189.14,-90.57L210.47,-83.92ZM218.29,-41.58L217.72,-9.34L201.89,4.05L178.65,10.74L162.13,6.15L154.79,-10.66L164.92,-27.80ZM328.83,-84.80L345.28,-79.03L352.22,-97.53L330.78,-106.07L309.62,-99.92L294.57,-79.66L294.95,-101.71L275.11,-102.06L272.92,24.08L294.95,25.71L296.14,-43.13L304.74,-73.70ZM421.26,29.61L421.27,29.61L419.06,10.56L409.16,11.87L398.63,6.31L397.01,-9.76L398.28,-83.01L420.08,-82.63L420.38,-99.53L398.57,-99.91L399.34,-144.00L377.29,-144.39L376.53,-100.29L358.40,-100.61L358.11,-83.71L376.23,-83.39L374.96,-10.15L379.45,20.70L404.37,31.67ZM445.35,28.32L467.56,28.71L468.76,-40.62L478.88,-72.72L503.98,-83.60L524.48,-73.69L530.00,-47.56L528.64,29.77L550.63,30.15L552.07,-47.36L544.38,-86.53L508.80,-102.52L485.19,-97.54L469.44,-81.28L470.59,-147.67L448.42,-148.05Z" fill="#ffffff" stroke="#000000"/>
    <path d="M-715.86,-213.63L-648.56,-211.87L-599.69,-220.54L-580.25,-259.87L-589.28,-286.83L-616.00,-302.38L-593.24,-317.32L-586.36,-340.45L-603.06,-375.90L-647.49,-386.62L-711.30,-388.29ZM-690.02,-312.50L-688.65,-366.91L-653.25,-365.99L-623.00,-361.65L-610.69,-338.14L-623.71,-316.58L-651.70,-311.50ZM-692.08,-233.59L-690.52,-291.95L-649.72,-290.89L-618.63,-284.37L-605.24,-260.54L-617.80,-236.56L-648.02,-232.44ZM-476.60,-292.06L-548.26,-272.10L-563.51,-242.35L-551.27,-213.38L-520.74,-203.62L-498.06,-207.42L-476.98,-222.06L-477.45,-207.48L-457.09,-206.95L-454.94,-288.27L-465.45,-325.58L-502.85,-339.26L-537.00,-331.86L-554.14,-307.69L-537.11,-296.60L-525.51,-315.47L-505.54,-321.50L-484.48,-314.75ZM-477.11,-272.77L-477.95,-240.86L-493.73,-227.75L-516.79,-221.32L-533.11,-226.01L-540.23,-242.71L-530.05,-259.59ZM-316.96,-329.44L-338.78,-330.01L-340.56,-261.67L-350.86,-229.25L-375.81,-218.70L-396.01,-228.69L-401.26,-254.66L-399.26,-331.59L-421.08,-332.16L-423.09,-255.07L-415.86,-216.16L-380.78,-200.03L-357.06,-205.25L-339.41,-222.08L-339.89,-203.90L-320.25,-203.38ZM-162.55,-199.27L-162.01,-219.88L-261.89,-222.48L-260.37,-280.66L-175.04,-278.44L-174.51,-299.04L-259.84,-301.27L-258.41,-355.81L-160.96,-353.27L-160.43,-373.88L-280.91,-377.02L-285.46,-202.48ZM-73.52,-306.93L-57.28,-301.08L-50.26,-319.34L-71.40,-327.98L-92.40,-322.07L-107.47,-302.15L-106.90,-323.97L-126.54,-324.48L-129.79,-199.65L-108.01,-197.85L-106.23,-265.97L-97.46,-296.16ZM69.87,-367.87L48.05,-368.44L46.45,-306.85L33.11,-319.70L13.03,-325.27L-28.40,-307.36L-43.89,-258.71L-30.96,-209.32L9.49,-189.28L31.02,-194.60L46.38,-211.05L45.93,-193.84L65.32,-193.33ZM13.81,-306.71L38.48,-293.56L47.87,-256.32L35.63,-219.66L11.23,-207.80L-12.85,-220.92L-21.63,-258.13L-10.92,-294.85ZM124.00,-215.80L112.15,-249.58L205.72,-247.17L207.16,-255.86L193.93,-302.42L150.69,-322.32L107.44,-305.38L90.07,-255.85L104.84,-205.49L147.14,-186.32L183.44,-196.02L200.69,-221.58L183.98,-232.63L170.20,-211.41L148.86,-204.85ZM113.33,-267.04L127.78,-295.54L150.18,-303.80L174.65,-292.64L183.88,-265.20ZM228.11,-189.09L249.93,-188.52L251.72,-257.13L262.02,-289.27L286.97,-299.82L307.16,-289.83L312.42,-264.28L310.41,-186.94L332.22,-186.38L334.24,-263.71L326.98,-302.37L291.90,-318.51L268.21,-313.93L250.56,-296.45L251.03,-314.64L231.40,-315.15ZM586.00,-234.34L586.48,-252.52L416.78,-256.95L416.31,-238.77ZM-629.43,6.95L-562.13,8.70L-513.26,0.04L-493.82,-39.29L-502.84,-66.25L-529.57,-81.80L-506.81,-96.74L-499.93,-119.87L-516.63,-155.32L-561.06,-166.05L-624.87,-167.71ZM-603.59,-91.92L-602.21,-146.34L-566.81,-145.41L-536.57,-141.07L-524.26,-117.56L-537.28,-96.01L-565.26,-90.92ZM-605.65,-13.01L-604.09,-71.38L-563.28,-70.31L-532.20,-63.79L-518.81,-39.97L-531.37,-15.99L-561.59,-11.86ZM-362.65,-112.31L-384.47,-112.88L-386.25,-44.54L-396.55,-12.12L-421.49,-1.56L-441.69,-11.56L-446.95,-37.53L-444.94,-114.45L-466.76,-115.02L-468.77,-37.93L-461.55,0.97L-426.46,17.10L-402.75,11.88L-385.10,-4.94L-385.57,13.24L-365.94,13.75ZM-314.39,-132.14L-306.28,-140.57L-305.94,-152.89L-313.75,-161.94L-324.96,-162.23L-333.01,-153.62L-333.34,-141.31L-325.60,-132.43ZM-312.96,15.13L-309.68,-110.93L-331.49,-111.50L-334.78,14.56ZM-259.63,16.52L-255.08,-158.02L-276.90,-158.59L-281.45,15.95ZM-121.75,-154.55L-143.57,-155.11L-145.17,-93.52L-158.51,-106.37L-178.59,-111.94L-220.02,-94.03L-235.51,-45.39L-222.58,4.00L-182.14,24.05L-160.60,18.73L-145.24,2.28L-145.69,19.49L-126.30,20.00ZM-177.82,-93.38L-153.14,-80.23L-143.75,-42.99L-156.00,-6.33L-180.39,5.53L-204.47,-7.59L-213.25,-44.81L-202.54,-81.52ZM99.15,25.87L99.69,5.27L-0.19,2.66L1.33,-55.52L86.66,-53.29L87.19,-73.90L1.86,-76.12L3.28,-130.67L100.74,-128.13L101.27,-148.73L-19.21,-151.87L-23.76,22.67ZM211.02,-55.81L139.37,-35.86L124.12,-6.10L136.35,22.87L166.89,32.63L189.57,28.83L210.65,14.19L210.18,28.77L230.54,29.30L232.69,-52.02L222.17,-89.33L184.78,-103.01L150.63,-95.61L133.49,-71.44L150.52,-60.35L162.12,-79.22L182.09,-85.26L203.15,-78.50ZM210.52,-36.52L209.68,-4.61L193.90,8.50L170.83,14.93L154.52,10.24L147.40,-6.46L157.58,-23.34ZM320.29,-78.34L336.53,-72.49L343.56,-90.75L322.41,-99.39L301.42,-93.48L286.35,-73.56L286.91,-95.38L267.28,-95.89L264.02,28.94L285.81,30.74L287.59,-37.38L296.35,-67.57ZM410.80,35.69L410.81,35.68L408.78,16.82L398.97,18.03L388.60,12.43L387.13,-3.49L389.02,-75.98L410.60,-75.41L411.03,-92.14L389.46,-92.70L390.59,-136.34L368.78,-136.91L367.64,-93.27L349.70,-93.74L349.26,-77.01L367.20,-76.54L365.31,-4.06L369.50,26.51L394.07,37.58ZM434.65,34.62L456.63,35.19L458.42,-33.41L468.71,-65.10L493.64,-75.65L513.85,-65.67L519.08,-39.76L517.08,36.77L538.84,37.33L540.93,-39.37L533.65,-78.20L498.58,-94.34L475.17,-89.61L459.43,-73.66L461.15,-139.35L439.20,-139.92Z" fill="#ffffff" stroke="#000000"/>
    <path d="M-712.47,-214.89L-645.88,-212.58L-597.44,-220.73L-577.87,-259.49L-586.57,-286.25L-612.89,-301.86L-590.23,-316.45L-583.23,-339.29L-599.45,-374.52L-643.32,-385.51L-706.46,-387.71ZM-686.05,-312.52L-684.22,-366.36L-649.20,-365.14L-619.30,-360.58L-607.32,-337.21L-620.39,-315.99L-648.13,-311.20ZM-688.77,-234.44L-686.72,-292.19L-646.35,-290.79L-615.64,-284.07L-602.60,-260.37L-615.23,-236.75L-645.17,-232.93ZM-475.02,-290.46L-546.10,-271.32L-561.45,-242.01L-549.59,-213.24L-519.46,-203.31L-496.98,-206.88L-475.99,-221.19L-476.58,-206.76L-456.44,-206.06L-453.61,-286.52L-463.69,-323.53L-500.58,-337.40L-534.45,-330.36L-551.61,-306.59L-534.86,-295.47L-523.21,-314.04L-503.40,-319.85L-482.62,-312.98ZM-475.68,-271.37L-476.79,-239.80L-492.52,-226.96L-515.40,-220.80L-531.51,-225.58L-538.41,-242.17L-528.19,-258.78ZM-316.71,-326.08L-338.30,-326.83L-340.65,-259.21L-351.12,-227.21L-375.89,-216.99L-395.80,-227.05L-400.78,-252.80L-398.13,-328.91L-419.72,-329.66L-422.37,-253.39L-415.56,-214.82L-380.97,-198.56L-357.46,-203.52L-339.85,-220.02L-340.47,-202.03L-321.04,-201.36ZM-165.01,-195.93L-164.30,-216.32L-263.12,-219.75L-261.12,-277.32L-176.69,-274.38L-175.99,-294.77L-260.41,-297.71L-258.54,-351.67L-162.12,-348.32L-161.41,-368.71L-280.62,-372.85L-286.62,-200.16ZM-75.98,-301.71L-59.96,-295.78L-52.85,-313.79L-73.70,-322.52L-94.53,-316.85L-109.62,-297.27L-108.87,-318.85L-128.30,-319.53L-132.59,-196.03L-111.05,-194.06L-108.70,-261.45L-99.76,-291.25ZM66.45,-360.79L44.87,-361.54L42.75,-300.60L29.66,-313.43L9.84,-319.12L-31.32,-301.75L-47.07,-253.74L-34.69,-204.75L5.16,-184.56L26.52,-189.64L41.85,-205.79L41.26,-188.76L60.45,-188.09ZM10.44,-300.74L34.75,-287.52L43.73,-250.58L31.29,-214.40L7.04,-202.88L-16.67,-216.07L-25.04,-252.97L-14.13,-289.21ZM118.71,-209.82L107.28,-243.36L199.86,-240.16L201.36,-248.75L188.67,-294.94L146.04,-315.01L103.10,-298.62L85.48,-249.75L99.67,-199.78L141.37,-180.45L177.37,-189.74L194.66,-214.89L178.22,-225.96L164.40,-205.08L143.23,-198.77ZM108.60,-260.62L123.14,-288.70L145.39,-296.69L169.50,-285.44L178.40,-258.20ZM221.52,-182.49L243.11,-181.74L245.47,-249.62L255.94,-281.35L280.73,-291.57L300.62,-281.52L305.60,-256.18L302.94,-179.66L324.53,-178.91L327.19,-255.43L320.34,-293.75L285.77,-310.02L262.27,-305.69L244.66,-288.55L245.28,-306.54L225.86,-307.22ZM576.10,-224.20L576.72,-242.19L408.82,-248.03L408.20,-230.04ZM-628.83,4.14L-562.24,6.46L-513.80,-1.69L-494.23,-40.45L-502.93,-67.21L-529.25,-82.83L-506.59,-97.42L-499.59,-120.25L-515.81,-155.48L-559.68,-166.47L-622.82,-168.67ZM-602.41,-93.48L-600.58,-147.32L-565.56,-146.11L-535.66,-141.55L-523.68,-118.17L-536.75,-96.95L-564.49,-92.16ZM-605.13,-15.41L-603.08,-73.15L-562.71,-71.75L-532.00,-65.03L-518.96,-41.33L-531.59,-17.71L-561.53,-13.89ZM-363.79,-111.59L-385.38,-112.34L-387.73,-44.72L-398.20,-12.72L-422.98,-2.49L-442.88,-12.56L-447.86,-38.30L-445.21,-114.42L-466.80,-115.17L-469.45,-38.89L-462.64,-0.33L-428.05,15.94L-404.54,10.97L-386.93,-5.53L-387.55,12.46L-368.12,13.14ZM-315.86,-130.80L-307.76,-139.07L-307.32,-151.26L-314.97,-160.28L-326.06,-160.67L-334.10,-152.22L-334.53,-140.03L-326.95,-131.18ZM-315.71,14.96L-311.37,-109.76L-332.96,-110.51L-337.30,14.21ZM-262.94,16.80L-256.94,-155.90L-278.53,-156.65L-284.53,16.04ZM-125.02,-151.31L-146.61,-152.07L-148.72,-91.12L-161.82,-103.96L-181.64,-109.64L-222.79,-92.28L-238.54,-44.26L-226.16,4.73L-186.31,24.91L-164.95,19.83L-149.62,3.68L-150.21,20.71L-131.02,21.38ZM-181.03,-91.26L-156.72,-78.04L-147.75,-41.11L-160.18,-4.93L-184.43,6.60L-208.15,-6.59L-216.51,-43.50L-205.60,-79.74ZM92.04,29.14L92.75,8.75L-6.07,5.31L-4.07,-52.25L80.36,-49.32L81.07,-69.71L-3.36,-72.64L-1.48,-126.61L94.94,-123.26L95.65,-143.64L-23.56,-147.79L-29.56,24.91ZM203.46,-50.74L132.38,-31.61L117.03,-2.29L128.89,26.48L159.02,36.40L181.50,32.84L202.49,18.53L201.90,32.95L222.04,33.65L224.87,-46.80L214.79,-83.81L177.90,-97.68L144.03,-90.65L126.87,-66.87L143.62,-55.76L155.27,-74.33L175.08,-80.13L195.86,-73.26ZM202.80,-31.66L201.69,-0.08L185.96,12.76L163.08,18.92L146.98,14.14L140.07,-2.45L150.29,-19.07ZM311.80,-72.10L327.82,-66.17L334.93,-84.17L314.08,-92.91L293.24,-87.24L278.16,-67.66L278.91,-89.24L259.48,-89.92L255.19,33.59L276.73,35.56L279.07,-31.84L288.01,-61.64ZM400.39,41.53L400.39,41.53L398.55,22.83L388.83,23.95L378.61,18.32L377.30,2.55L379.79,-69.17L401.14,-68.42L401.71,-84.97L380.37,-85.72L381.87,-128.89L360.28,-129.64L358.78,-86.47L341.03,-87.08L340.46,-70.53L358.21,-69.92L355.71,1.80L359.59,32.09L383.81,43.26ZM424.00,40.68L445.74,41.43L448.10,-26.45L458.56,-57.72L483.33,-67.95L503.24,-57.89L508.20,-32.21L505.55,43.51L527.08,44.26L529.82,-31.63L522.95,-70.13L488.37,-86.40L465.16,-81.92L449.46,-66.26L451.72,-131.27L430.01,-132.02Z" fill="#ffffff" stroke="#000000"/>
    <path d="M-708.99,-216.17L-643.12,-213.31L-595.12,-220.96L-575.42,-259.15L-583.80,-285.70L-609.70,-301.38L-587.16,-315.62L-580.03,-338.16L-595.78,-373.16L-639.10,-384.41L-701.56,-387.13ZM-682.01,-312.55L-679.74,-365.81L-645.09,-364.31L-615.54,-359.54L-603.89,-336.30L-617.01,-315.42L-644.50,-310.92ZM-685.37,-235.31L-682.85,-292.44L-642.91,-290.71L-612.58,-283.79L-599.88,-260.23L-612.58,-236.96L-642.25,-233.44ZM-473.37,-288.90L-543.88,-270.58L-559.32,-241.70L-547.83,-213.13L-518.10,-203.05L-495.82,-206.39L-474.93,-220.36L-475.64,-206.10L-455.71,-205.23L-452.22,-284.82L-461.88,-321.54L-498.27,-335.57L-531.84,-328.90L-549.03,-305.53L-532.55,-294.38L-520.86,-312.66L-501.20,-318.23L-480.70,-311.25ZM-474.19,-270.03L-475.56,-238.79L-491.24,-226.22L-513.93,-220.32L-529.83,-225.19L-536.52,-241.66L-526.26,-258.02ZM-316.41,-322.79L-337.77,-323.72L-340.67,-256.83L-351.31,-225.26L-375.92,-215.35L-395.53,-225.48L-400.23,-251.00L-396.96,-326.29L-418.32,-327.22L-421.60,-251.77L-415.19,-213.55L-381.10,-197.16L-357.79,-201.87L-340.22,-218.04L-340.99,-200.25L-321.78,-199.41ZM-167.42,-192.70L-166.54,-212.87L-264.30,-217.12L-261.83,-274.07L-178.31,-270.44L-177.43,-290.60L-260.95,-294.23L-258.63,-347.62L-163.25,-343.48L-162.37,-363.64L-280.30,-368.77L-287.72,-197.93ZM-78.41,-296.61L-62.61,-290.61L-55.42,-308.36L-75.98,-317.18L-96.64,-311.75L-111.74,-292.50L-110.81,-313.86L-130.03,-314.69L-135.34,-192.52L-114.03,-190.38L-111.14,-257.06L-102.04,-286.47ZM63.04,-353.85L41.69,-354.77L39.07,-294.49L26.22,-307.30L6.66,-313.10L-34.22,-296.26L-50.22,-248.89L-38.39,-200.30L0.87,-179.99L22.05,-184.83L37.37,-200.68L36.64,-183.83L55.62,-183.01ZM7.10,-294.90L31.04,-281.61L39.61,-244.99L26.99,-209.29L2.89,-198.10L-20.46,-211.35L-28.42,-247.94L-17.31,-283.71ZM113.46,-204.01L102.43,-237.29L194.02,-233.33L195.58,-241.82L183.41,-287.64L141.41,-307.86L98.77,-292.01L80.92,-243.81L94.52,-194.24L135.62,-174.75L171.33,-183.63L188.66,-208.37L172.48,-219.47L158.63,-198.92L137.62,-192.86ZM103.89,-254.37L118.52,-282.03L140.60,-289.74L164.36,-278.40L172.93,-251.37ZM214.95,-176.08L236.31,-175.15L239.23,-242.30L249.87,-273.60L274.48,-283.51L294.08,-273.39L298.79,-248.27L295.50,-172.58L316.86,-171.65L320.15,-247.34L313.70,-285.33L279.62,-301.73L256.34,-297.64L238.76,-280.83L239.54,-298.63L220.32,-299.47ZM566.18,-214.30L566.96,-232.10L400.86,-239.32L400.09,-221.52ZM-628.11,1.29L-562.24,4.16L-514.24,-3.49L-494.54,-41.68L-502.91,-68.23L-528.82,-83.91L-506.27,-98.15L-499.15,-120.69L-514.90,-155.69L-558.22,-166.94L-620.68,-169.66ZM-601.13,-95.08L-598.86,-148.35L-564.21,-146.84L-534.66,-142.07L-523.01,-118.84L-536.12,-97.95L-563.62,-93.45ZM-604.49,-17.85L-601.96,-74.97L-562.03,-73.24L-531.69,-66.32L-518.99,-42.76L-531.70,-19.50L-561.36,-15.97ZM-364.84,-110.95L-386.20,-111.88L-389.11,-44.98L-399.75,-13.41L-424.35,-3.50L-443.96,-13.63L-448.67,-39.15L-445.39,-114.45L-466.75,-115.38L-470.03,-39.92L-463.62,-1.70L-429.53,14.69L-406.22,9.98L-388.65,-6.19L-389.43,11.60L-370.21,12.44ZM-317.25,-129.55L-309.17,-137.66L-308.62,-149.72L-316.11,-158.71L-327.08,-159.19L-335.12,-150.90L-335.65,-138.84L-328.22,-130.02ZM-318.36,14.69L-312.99,-108.69L-334.35,-109.62L-339.71,13.76ZM-266.16,16.96L-258.73,-153.88L-280.09,-154.81L-287.51,16.03ZM-128.23,-148.21L-149.58,-149.14L-152.20,-88.85L-165.05,-101.66L-184.61,-107.46L-225.49,-90.63L-241.49,-43.25L-229.66,5.33L-190.40,25.65L-169.22,20.81L-153.90,4.96L-154.64,21.81L-135.65,22.63ZM-184.17,-89.26L-160.23,-75.97L-151.67,-39.35L-164.29,-3.65L-188.38,7.54L-211.73,-5.71L-219.69,-42.30L-208.59,-78.07ZM85.01,32.22L85.89,12.05L-11.87,7.80L-9.39,-49.14L74.13,-45.51L75.00,-65.68L-8.52,-69.31L-6.20,-122.70L89.19,-118.55L90.06,-138.72L-27.86,-143.85L-35.29,26.99ZM195.95,-45.86L125.45,-27.54L110.01,1.34L121.50,29.91L151.23,39.99L173.51,36.65L194.40,22.68L193.68,36.95L213.62,37.81L217.10,-41.78L207.44,-78.49L171.06,-92.53L137.49,-85.86L120.30,-62.49L136.78,-51.34L148.47,-69.61L168.12,-75.19L188.63,-68.21ZM195.13,-26.98L193.76,4.25L178.09,16.82L155.40,22.72L139.50,17.86L132.81,1.38L143.06,-14.98ZM303.34,-66.07L319.14,-60.06L326.33,-77.82L305.77,-86.64L285.11,-81.21L270.01,-61.96L270.94,-83.31L251.72,-84.15L246.41,38.03L267.71,40.16L270.61,-26.51L279.71,-55.92ZM390.03,47.14L390.03,47.13L388.37,28.62L378.74,29.64L368.68,23.98L367.51,8.37L370.60,-62.58L391.72,-61.66L392.43,-78.03L371.31,-78.95L373.17,-121.66L351.81,-122.59L349.95,-79.88L332.40,-80.64L331.68,-64.27L349.24,-63.51L346.16,7.44L349.74,37.44L373.61,48.71ZM413.40,46.49L434.91,47.43L437.83,-19.72L448.44,-50.58L473.04,-60.48L492.66,-50.36L497.34,-24.90L494.08,50.00L515.38,50.93L518.73,-24.14L512.27,-62.30L478.19,-78.70L455.19,-74.46L439.51,-59.11L442.31,-123.41L420.83,-124.34Z" fill="#ffffff" stroke="#000000"/>
    <path d="M-705.42,-217.46L-640.27,-214.06L-592.71,-221.22L-572.89,-258.83L-580.95,-285.17L-606.45,-300.91L-584.02,-314.81L-576.78,-337.05L-592.06,-371.81L-634.82,-383.32L-696.60,-386.55ZM-677.90,-312.59L-675.19,-365.27L-640.92,-363.48L-611.73,-358.51L-600.40,-335.42L-613.56,-314.87L-640.80,-310.65ZM-681.89,-236.20L-678.90,-292.70L-639.40,-290.64L-609.45,-283.54L-597.08,-260.12L-609.85,-237.20L-639.23,-233.97ZM-471.67,-287.40L-541.59,-269.88L-557.12,-241.44L-545.99,-213.07L-516.66,-202.84L-494.59,-205.95L-473.80,-219.60L-474.63,-205.49L-454.91,-204.46L-450.78,-283.18L-460.02,-319.59L-495.90,-333.79L-529.17,-327.48L-546.38,-304.50L-530.17,-293.33L-518.45,-311.31L-498.95,-316.65L-478.73,-309.58ZM-472.64,-268.73L-474.27,-237.83L-489.88,-225.53L-512.39,-219.89L-528.08,-224.84L-534.55,-241.20L-524.27,-257.29ZM-316.07,-319.58L-337.20,-320.68L-340.65,-254.52L-351.45,-223.38L-375.88,-213.79L-395.19,-223.98L-399.63,-249.27L-395.74,-323.74L-416.86,-324.84L-420.76,-250.21L-414.74,-212.34L-381.16,-195.83L-358.06,-200.29L-340.53,-216.14L-341.45,-198.54L-322.44,-197.55ZM-169.78,-189.58L-168.74,-209.53L-265.42,-214.57L-262.49,-270.90L-179.88,-266.59L-178.84,-286.54L-261.44,-290.85L-258.69,-343.65L-164.35,-338.73L-163.31,-358.68L-279.94,-364.76L-288.76,-195.79ZM-80.81,-291.63L-65.23,-285.55L-57.96,-303.06L-78.23,-311.96L-98.72,-306.77L-113.82,-287.85L-112.72,-308.97L-131.73,-309.96L-138.03,-189.12L-116.97,-186.83L-113.53,-252.77L-104.28,-281.79ZM59.64,-347.04L38.52,-348.15L35.41,-288.52L22.81,-301.31L3.50,-307.21L-37.09,-290.91L-53.33,-244.17L-42.04,-196.00L-3.37,-175.56L17.63,-180.17L32.92,-195.72L32.05,-179.05L50.82,-178.07ZM3.78,-289.20L27.35,-275.85L35.51,-239.53L22.72,-204.33L-1.21,-193.46L-24.21,-206.77L-31.77,-243.04L-20.47,-278.34ZM108.23,-198.36L97.61,-231.38L188.20,-226.68L189.81,-235.07L178.17,-280.50L136.78,-300.87L94.46,-285.56L76.38,-238.02L89.41,-188.85L129.91,-169.22L165.31,-177.70L182.68,-202.02L166.77,-213.15L152.88,-192.93L132.05,-187.12ZM99.20,-248.26L113.91,-275.51L135.82,-282.95L159.24,-271.52L167.49,-244.70ZM208.42,-169.85L229.54,-168.75L233.00,-235.16L243.80,-266.04L268.24,-275.63L287.54,-265.45L291.99,-240.56L288.09,-165.70L309.21,-164.59L313.11,-239.46L307.06,-277.09L273.49,-293.61L250.41,-289.77L232.88,-273.29L233.79,-290.89L214.78,-291.89ZM556.27,-204.65L557.18,-222.25L392.91,-230.82L391.99,-213.22ZM-627.26,-1.60L-562.11,1.80L-514.55,-5.35L-494.73,-42.97L-502.79,-69.31L-528.29,-85.05L-505.86,-98.95L-498.62,-121.18L-513.90,-155.95L-556.66,-167.46L-618.44,-170.68ZM-599.74,-96.73L-597.03,-149.40L-562.76,-147.62L-533.57,-142.64L-522.24,-119.56L-535.40,-99.01L-562.64,-94.79ZM-603.73,-20.33L-600.74,-76.83L-561.24,-74.77L-531.29,-67.67L-518.92,-44.25L-531.69,-21.34L-561.07,-18.11ZM-365.82,-110.39L-386.94,-111.49L-390.39,-45.33L-401.19,-14.18L-425.62,-4.59L-444.93,-14.78L-449.37,-40.07L-445.48,-114.55L-466.61,-115.65L-470.50,-41.02L-464.49,-3.15L-430.90,13.36L-407.80,8.91L-390.27,-6.95L-391.19,10.65L-372.18,11.65ZM-318.57,-128.38L-310.50,-136.34L-309.85,-148.27L-317.19,-157.23L-328.04,-157.80L-336.06,-149.66L-336.69,-137.74L-329.41,-128.95ZM-320.90,14.32L-314.53,-107.71L-335.65,-108.82L-342.02,13.22ZM-269.27,17.01L-260.45,-151.96L-281.58,-153.06L-290.39,15.91ZM-131.38,-145.22L-152.50,-146.32L-155.61,-86.70L-168.21,-99.48L-187.52,-105.39L-228.11,-89.08L-244.34,-42.35L-233.06,5.83L-194.39,26.26L-173.39,21.66L-158.10,6.11L-158.97,22.77L-140.20,23.75ZM-187.24,-87.38L-163.67,-74.02L-155.51,-37.71L-168.30,-2.50L-192.23,8.36L-215.22,-4.95L-222.79,-41.22L-211.49,-76.52ZM78.06,35.13L79.10,15.19L-17.59,10.14L-14.65,-46.18L67.96,-41.87L69.00,-61.82L-13.61,-66.13L-10.86,-118.93L83.49,-114.01L84.53,-133.96L-32.11,-140.04L-40.93,28.93ZM188.50,-41.17L118.58,-23.65L103.05,4.79L114.18,33.16L143.51,43.39L165.58,40.28L186.37,26.63L185.54,40.74L205.26,41.77L209.39,-36.95L200.15,-73.36L164.27,-87.56L131.00,-81.25L113.78,-58.27L130.00,-47.10L141.72,-65.08L161.21,-70.43L181.44,-63.35ZM187.53,-22.50L185.90,8.40L170.28,20.70L147.78,26.34L132.09,21.39L125.62,5.03L135.90,-11.06ZM294.92,-60.24L310.51,-54.16L317.77,-71.67L297.51,-80.57L277.02,-75.38L261.91,-56.46L263.02,-77.58L244.01,-78.57L237.70,42.27L258.76,44.56L262.20,-21.38L271.46,-50.40ZM379.72,52.51L379.73,52.51L378.24,34.18L368.71,35.10L358.80,29.42L357.78,13.96L361.44,-56.21L382.33,-55.12L383.17,-71.31L362.29,-72.40L364.49,-114.65L343.37,-115.75L341.17,-73.51L323.80,-74.41L322.95,-58.22L340.32,-57.31L336.66,12.86L339.94,42.58L363.46,53.93ZM402.86,52.08L424.13,53.19L427.59,-13.23L438.36,-43.66L462.78,-53.26L482.11,-43.07L486.53,-17.84L482.65,56.24L503.71,57.34L507.68,-16.91L501.61,-54.71L468.04,-71.23L445.24,-67.24L429.60,-52.18L432.91,-115.78L411.67,-116.89Z" fill="#ffffff" stroke="#000000"/>
    <path d="M-701.76,-218.76L-637.34,-214.83L-590.22,-221.51L-570.29,-258.55L-578.04,-284.68L-603.13,-300.47L-580.82,-314.02L-573.46,-335.96L-588.28,-370.49L-630.49,-382.24L-691.58,-385.96ZM-673.72,-312.63L-670.58,-364.73L-636.70,-362.66L-607.86,-357.49L-596.84,-334.55L-610.04,-314.34L-637.03,-310.40ZM-678.32,-237.09L-674.88,-292.96L-635.81,-290.59L-606.24,-283.30L-594.21,-260.03L-607.04,-237.47L-636.14,-234.52ZM-469.90,-285.94L-539.23,-269.21L-554.83,-241.20L-544.07,-213.04L-515.14,-202.67L-493.28,-205.55L-472.59,-218.88L-473.53,-204.93L-454.04,-203.74L-449.27,-281.59L-458.10,-317.68L-493.47,-332.04L-526.45,-326.09L-543.67,-303.50L-527.73,-292.31L-515.98,-310.00L-496.65,-315.12L-476.69,-307.94ZM-471.03,-267.47L-472.90,-236.93L-488.45,-224.89L-510.77,-219.50L-526.24,-224.53L-532.51,-240.77L-522.20,-256.61ZM-315.69,-316.44L-336.58,-317.71L-340.56,-252.29L-351.51,-221.57L-375.76,-212.29L-394.79,-222.54L-398.96,-247.60L-394.48,-321.24L-415.36,-322.51L-419.85,-248.71L-414.23,-211.19L-381.15,-194.57L-358.25,-198.78L-340.78,-214.31L-341.84,-196.91L-323.04,-195.76ZM-172.07,-186.57L-170.87,-206.30L-266.49,-212.12L-263.09,-267.82L-181.41,-262.84L-180.20,-282.57L-261.89,-287.54L-258.71,-339.76L-165.42,-334.08L-164.22,-353.80L-279.56,-360.83L-289.73,-193.74ZM-83.18,-286.76L-67.82,-280.62L-60.48,-297.87L-80.45,-306.86L-100.77,-301.89L-115.87,-283.31L-114.60,-304.20L-133.40,-305.34L-140.67,-185.85L-119.86,-183.39L-115.89,-248.60L-106.48,-277.24ZM56.25,-340.38L35.36,-341.65L31.77,-282.69L19.42,-295.45L0.36,-301.45L-39.93,-285.67L-56.40,-239.58L-45.65,-191.82L-7.56,-171.27L13.25,-175.65L28.51,-190.90L27.51,-174.42L46.07,-173.29ZM0.49,-283.64L23.69,-270.22L31.45,-234.23L18.50,-199.50L-5.28,-188.96L-27.91,-202.33L-35.08,-238.28L-23.60,-273.10ZM103.04,-192.86L92.82,-225.63L182.40,-220.19L184.07,-228.48L172.94,-273.53L132.17,-294.04L90.17,-279.25L71.87,-232.37L84.34,-183.62L124.24,-163.85L159.34,-171.93L176.72,-195.85L161.08,-206.99L147.17,-187.11L126.51,-181.54ZM94.53,-242.32L109.32,-269.14L131.07,-276.31L154.13,-264.81L162.06,-238.20ZM201.91,-163.80L222.80,-162.53L226.80,-228.21L237.74,-258.66L262.00,-267.94L281.02,-257.70L285.20,-233.04L280.70,-159.01L301.58,-157.73L306.09,-231.76L300.42,-269.05L267.35,-285.68L244.49,-282.08L227.00,-265.93L228.06,-283.33L209.26,-284.48ZM546.35,-195.24L547.41,-212.65L384.96,-222.54L383.90,-205.13ZM-626.29,-4.52L-561.87,-0.60L-514.75,-7.27L-494.82,-44.32L-502.57,-70.45L-527.66,-86.23L-505.35,-99.79L-497.99,-121.73L-512.81,-156.25L-555.02,-168.01L-616.11,-171.73ZM-598.25,-98.40L-595.11,-150.49L-561.23,-148.43L-532.39,-143.26L-521.38,-120.32L-534.57,-100.10L-561.56,-96.17ZM-602.85,-22.86L-599.41,-78.73L-560.34,-76.35L-530.77,-69.07L-518.74,-45.79L-531.57,-23.24L-560.67,-20.29ZM-366.70,-109.91L-387.59,-111.18L-391.57,-45.76L-402.52,-15.03L-426.77,-5.76L-445.80,-16.00L-449.97,-41.06L-445.48,-114.71L-466.37,-115.98L-470.86,-42.18L-465.24,-4.66L-432.16,11.96L-409.26,7.75L-391.79,-7.78L-392.85,9.62L-374.05,10.77ZM-319.80,-127.30L-311.75,-135.11L-311.01,-146.91L-318.19,-155.83L-328.92,-156.49L-336.93,-148.51L-337.65,-136.72L-330.53,-127.96ZM-323.34,13.86L-315.99,-106.82L-336.87,-108.09L-344.22,12.58ZM-272.28,16.96L-262.11,-150.13L-282.99,-151.40L-293.17,15.69ZM-134.47,-142.36L-155.35,-143.63L-158.94,-84.66L-171.30,-97.42L-190.35,-103.43L-230.65,-87.65L-247.11,-41.55L-236.36,6.21L-198.28,26.76L-177.46,22.38L-162.20,7.13L-163.21,23.60L-144.64,24.74ZM-190.23,-85.61L-167.02,-72.20L-159.26,-36.20L-172.22,-1.48L-195.99,9.07L-218.62,-4.30L-225.80,-40.25L-214.31,-75.08ZM71.18,37.88L72.38,18.15L-23.23,12.33L-19.84,-43.37L61.85,-38.39L63.05,-58.12L-18.64,-63.09L-15.46,-115.31L77.84,-109.63L79.04,-129.36L-36.30,-136.38L-46.48,30.71ZM181.10,-36.66L111.78,-19.93L96.17,8.07L106.93,36.24L135.86,46.60L157.73,43.72L178.41,30.40L177.47,44.35L196.97,45.53L201.73,-32.31L192.90,-68.41L157.53,-82.77L124.56,-76.81L107.33,-54.22L123.27,-43.03L135.02,-60.72L154.36,-65.84L174.31,-58.66ZM179.98,-18.20L178.11,12.35L162.55,24.39L140.24,29.77L124.76,24.74L118.49,8.50L128.81,-7.33ZM286.55,-54.61L301.92,-48.47L309.26,-65.72L289.29,-74.71L268.97,-69.74L253.86,-51.16L255.14,-72.05L236.34,-73.19L229.06,46.30L249.88,48.76L253.85,-16.46L263.26,-45.09ZM369.48,57.66L369.48,57.66L368.17,39.51L358.73,40.34L348.98,34.63L348.10,19.33L352.33,-50.06L372.98,-48.80L373.96,-64.81L353.30,-66.07L355.85,-107.84L334.96,-109.12L332.42,-67.34L315.24,-68.39L314.27,-52.38L331.44,-51.33L327.22,18.06L330.21,47.49L353.38,58.92ZM392.37,57.43L413.40,58.71L417.40,-6.96L428.32,-36.99L452.56,-46.26L471.59,-36.02L475.75,-11.03L471.27,62.24L492.10,63.50L496.67,-9.92L490.99,-47.37L457.91,-64.01L435.33,-60.25L419.72,-45.49L423.55,-108.38L402.54,-109.66Z" fill="#ffffff" stroke="#000000"/>
    <path d="M-698.01,-220.06L-634.31,-215.62L-587.65,-221.82L-567.61,-258.29L-575.05,-284.20L-599.74,-300.04L-577.55,-313.26L-570.09,-334.90L-584.45,-369.17L-626.10,-381.16L-686.50,-385.37ZM-669.46,-312.68L-665.91,-364.18L-632.41,-361.85L-603.92,-356.49L-593.23,-333.70L-606.45,-313.82L-633.18,-310.16ZM-674.66,-237.99L-670.77,-293.23L-632.16,-290.54L-602.97,-283.09L-591.26,-259.96L-604.15,-237.75L-632.96,-235.09ZM-468.07,-284.52L-536.79,-268.56L-552.47,-241.00L-542.07,-213.05L-513.54,-202.54L-491.89,-205.21L-471.31,-218.21L-472.36,-204.42L-453.09,-203.07L-447.70,-280.04L-456.13,-315.82L-491.00,-330.33L-523.66,-324.72L-540.90,-302.52L-525.22,-291.32L-513.45,-308.72L-494.28,-313.61L-474.60,-306.34ZM-469.34,-266.27L-471.46,-236.06L-486.95,-224.29L-509.07,-219.15L-524.34,-224.26L-530.40,-240.38L-520.06,-255.96ZM-315.27,-313.37L-335.92,-314.81L-340.42,-250.12L-351.52,-219.83L-375.58,-210.86L-394.31,-221.16L-398.22,-245.98L-393.16,-318.79L-413.81,-320.23L-418.89,-247.27L-413.64,-210.10L-381.06,-193.37L-358.38,-197.34L-340.96,-212.56L-342.16,-195.35L-323.57,-194.06ZM-174.31,-183.67L-172.95,-203.17L-267.49,-209.75L-263.65,-264.82L-182.89,-259.20L-181.53,-278.70L-262.29,-284.32L-258.70,-335.95L-166.46,-329.53L-165.11,-349.03L-279.14,-356.97L-290.64,-191.77ZM-85.52,-282.01L-70.37,-275.80L-62.96,-292.81L-82.64,-301.87L-102.78,-297.13L-117.88,-278.88L-116.45,-299.53L-135.03,-300.82L-143.26,-182.68L-122.69,-180.07L-118.20,-244.55L-108.65,-272.79ZM52.87,-333.85L32.22,-335.29L28.16,-277.00L16.05,-289.72L-2.75,-295.83L-42.74,-280.57L-59.43,-235.10L-49.20,-187.77L-11.71,-167.11L8.92,-171.27L24.14,-186.22L23.01,-169.93L41.37,-168.65ZM-2.78,-278.20L20.06,-264.73L27.43,-229.06L14.31,-194.82L-9.29,-184.59L-31.57,-198.02L-38.35,-233.64L-26.70,-267.99ZM97.89,-187.53L88.06,-220.03L176.62,-213.88L178.35,-222.06L167.72,-266.72L127.57,-287.36L85.90,-273.09L67.40,-226.88L79.31,-178.54L118.61,-158.64L153.40,-166.34L170.80,-189.85L155.42,-201.00L141.49,-181.46L121.00,-176.12ZM89.90,-236.52L104.76,-262.93L126.33,-269.84L149.05,-258.26L156.66,-231.87ZM195.44,-157.93L216.09,-156.49L220.61,-221.42L231.70,-251.46L255.78,-260.43L274.50,-250.13L278.43,-225.70L273.34,-152.51L293.99,-151.07L299.08,-224.26L293.80,-261.20L261.22,-277.93L238.58,-274.57L221.14,-258.74L222.33,-275.95L203.75,-277.24ZM536.43,-186.07L537.63,-203.28L377.02,-214.46L375.82,-197.25ZM-625.20,-7.49L-561.50,-3.05L-514.83,-9.25L-494.80,-45.72L-502.24,-71.63L-526.93,-87.47L-504.74,-100.69L-497.27,-122.33L-511.64,-156.60L-553.29,-168.59L-613.69,-172.80ZM-596.64,-100.11L-593.10,-151.62L-559.59,-149.28L-531.11,-143.92L-520.41,-121.13L-533.64,-101.25L-560.37,-97.59ZM-601.84,-25.42L-597.96,-80.66L-559.34,-77.97L-530.15,-70.52L-518.45,-47.39L-531.34,-25.18L-560.14,-22.52ZM-367.50,-109.50L-388.15,-110.94L-392.65,-46.26L-403.75,-15.96L-427.82,-6.99L-446.55,-17.29L-450.46,-42.12L-445.39,-114.93L-466.04,-116.36L-471.12,-43.40L-465.88,-6.24L-433.30,10.49L-410.61,6.52L-393.19,-8.69L-394.39,8.51L-375.80,9.81ZM-320.95,-126.31L-312.92,-133.96L-312.09,-145.62L-319.12,-154.52L-329.72,-155.25L-337.71,-147.43L-338.53,-135.77L-331.56,-127.05ZM-325.66,13.30L-317.36,-106.01L-338.01,-107.45L-346.31,11.86ZM-275.19,16.81L-263.69,-148.39L-284.34,-149.83L-295.84,15.37ZM-137.49,-139.60L-158.14,-141.04L-162.20,-82.75L-174.31,-95.47L-193.11,-101.58L-233.10,-86.31L-249.79,-40.85L-239.56,6.48L-202.07,27.14L-181.44,22.98L-166.21,8.03L-167.35,24.32L-148.99,25.60ZM-193.14,-83.95L-170.30,-70.48L-162.93,-34.81L-176.05,-0.57L-199.65,9.66L-221.93,-3.77L-228.71,-39.39L-217.06,-73.74ZM64.39,40.45L65.75,20.95L-28.78,14.37L-24.95,-40.70L55.82,-35.08L57.17,-54.58L-23.59,-60.20L-20.00,-111.83L72.24,-105.41L73.60,-124.91L-40.44,-132.85L-51.94,32.35ZM173.76,-32.34L105.04,-16.39L89.37,11.18L99.77,39.13L128.30,49.64L149.95,46.97L170.53,33.97L169.48,47.76L188.75,49.11L194.14,-27.86L185.71,-63.64L150.84,-78.15L118.17,-72.54L100.94,-50.35L116.62,-39.14L128.39,-56.54L147.56,-61.44L167.23,-54.16ZM172.49,-14.09L170.38,16.12L154.89,27.89L132.77,33.03L117.50,27.92L111.44,11.80L121.78,-3.78ZM278.23,-49.19L293.38,-42.98L300.79,-59.99L281.11,-69.05L260.97,-64.31L245.87,-46.06L247.30,-66.71L228.72,-68.00L220.50,50.14L241.06,52.75L245.55,-11.73L255.10,-39.97ZM359.30,62.59L359.30,62.58L358.16,44.62L348.81,45.36L339.22,39.63L338.48,24.48L343.26,-44.12L363.68,-42.70L364.78,-58.53L344.36,-59.95L347.23,-101.25L326.58,-102.69L323.71,-61.39L306.73,-62.57L305.63,-46.74L322.61,-45.56L317.83,23.05L320.54,52.18L343.36,63.69ZM381.94,62.55L402.74,64.00L407.26,-0.93L418.32,-30.54L442.38,-39.51L461.12,-29.21L465.01,-4.45L459.95,67.98L480.55,69.42L485.69,-3.17L480.40,-40.27L447.82,-57.01L425.45,-53.49L409.88,-39.02L414.21,-101.20L393.44,-102.65Z" fill="#ffffff" stroke="#000000"/>
    <path d="M-694.16,-221.36L-631.20,-216.43L-584.99,-222.15L-564.86,-258.06L-572.00,-283.75L-596.28,-299.62L-574.22,-312.51L-566.65,-333.85L-580.56,-367.87L-621.65,-380.09L-681.36,-384.77ZM-665.13,-312.73L-661.18,-363.64L-628.06,-361.04L-599.93,-355.50L-589.55,-332.87L-602.80,-313.31L-629.27,-309.92ZM-670.91,-238.90L-666.59,-293.50L-628.42,-290.51L-599.61,-282.88L-588.24,-259.91L-601.17,-238.06L-629.69,-235.67ZM-466.18,-283.14L-534.29,-267.95L-550.03,-240.82L-539.98,-213.08L-511.85,-202.45L-490.42,-204.90L-469.95,-217.58L-471.11,-203.95L-452.06,-202.46L-446.07,-278.54L-454.09,-314.00L-488.46,-328.65L-520.82,-323.38L-538.05,-301.58L-522.65,-290.36L-510.85,-307.47L-491.85,-312.15L-472.45,-304.78ZM-467.59,-265.10L-469.94,-235.24L-485.37,-223.73L-507.29,-218.84L-522.35,-224.03L-528.20,-240.02L-517.84,-255.34ZM-314.79,-310.37L-335.20,-311.96L-340.21,-248.03L-351.45,-218.15L-375.33,-209.49L-393.77,-219.84L-397.42,-244.43L-391.79,-316.40L-412.20,-318.00L-417.85,-245.87L-412.98,-209.07L-380.90,-192.24L-358.43,-195.98L-341.07,-210.88L-342.40,-193.87L-324.03,-192.43ZM-176.49,-180.87L-174.98,-200.15L-268.42,-207.47L-264.16,-261.90L-184.32,-255.65L-182.81,-274.92L-262.65,-281.18L-258.65,-332.21L-167.47,-325.07L-165.96,-344.34L-278.69,-353.18L-291.48,-189.88ZM-87.82,-277.38L-72.89,-271.10L-65.42,-287.86L-84.80,-296.99L-104.77,-292.48L-119.86,-274.56L-118.26,-294.97L-136.63,-296.41L-145.78,-179.62L-125.46,-176.87L-120.46,-240.60L-110.77,-268.45ZM49.50,-327.46L29.09,-329.06L24.57,-271.44L12.70,-284.13L-5.83,-290.33L-45.52,-275.58L-62.42,-230.76L-52.71,-183.85L-15.80,-163.10L4.64,-167.03L19.83,-181.69L18.56,-165.59L36.71,-164.16ZM-6.01,-272.90L16.46,-259.38L23.44,-224.03L10.17,-190.28L-13.26,-180.37L-35.18,-193.83L-41.58,-229.12L-29.76,-263.00ZM92.78,-182.34L83.33,-214.58L170.88,-207.74L172.65,-215.81L162.53,-260.07L122.99,-280.83L81.65,-267.08L62.95,-221.53L74.33,-173.62L113.02,-153.60L147.50,-160.91L164.91,-184.01L149.80,-195.18L135.85,-175.97L115.54,-170.87ZM85.29,-230.87L100.22,-256.86L121.61,-263.51L143.99,-251.86L151.29,-225.70ZM189.01,-152.23L209.43,-150.63L214.45,-214.82L225.68,-244.43L249.57,-253.09L268.00,-242.75L271.68,-218.55L266.01,-146.20L286.42,-144.60L292.09,-216.95L287.18,-253.53L255.10,-270.36L232.68,-267.23L215.29,-251.72L216.62,-268.73L198.25,-270.17ZM526.52,-177.13L527.86,-194.14L369.09,-206.58L367.76,-189.57ZM-623.97,-10.48L-561.00,-5.55L-514.80,-11.28L-494.67,-47.18L-501.80,-72.87L-526.08,-88.75L-504.02,-101.63L-496.45,-122.97L-510.37,-157.00L-551.46,-169.21L-611.17,-173.89ZM-594.93,-101.85L-590.98,-152.76L-557.86,-150.17L-529.74,-144.62L-519.35,-121.99L-532.61,-102.43L-559.07,-99.04ZM-600.72,-28.02L-596.40,-82.63L-558.23,-79.64L-529.42,-72.01L-518.04,-49.03L-530.98,-27.18L-559.50,-24.79ZM-368.21,-109.17L-388.62,-110.77L-393.63,-46.83L-404.86,-16.96L-428.75,-8.30L-447.18,-18.65L-450.84,-43.23L-445.20,-115.20L-465.61,-116.80L-471.26,-44.68L-466.40,-7.88L-434.32,8.95L-411.84,5.22L-394.48,-9.68L-395.82,7.33L-377.45,8.77ZM-322.02,-125.39L-314.01,-132.89L-313.09,-144.42L-319.97,-153.28L-330.45,-154.10L-338.42,-146.43L-339.33,-134.91L-332.51,-126.22ZM-327.88,12.65L-318.64,-105.29L-339.06,-106.89L-348.30,11.05ZM-277.99,16.56L-265.19,-146.74L-285.61,-148.34L-298.40,14.96ZM-140.45,-136.97L-160.86,-138.57L-165.38,-80.94L-177.25,-93.63L-195.78,-99.83L-235.47,-85.08L-252.37,-40.26L-242.66,6.64L-205.75,27.40L-185.31,23.47L-170.13,8.81L-171.39,24.91L-153.24,26.33ZM-195.97,-82.40L-173.49,-68.88L-166.51,-33.53L-179.78,0.22L-203.22,10.13L-225.13,-3.34L-231.53,-38.63L-219.71,-72.50ZM57.69,42.86L59.20,23.58L-34.25,16.26L-29.98,-38.18L49.85,-31.92L51.36,-51.20L-28.47,-57.45L-24.48,-108.49L66.70,-101.34L68.21,-120.62L-44.51,-129.45L-57.30,33.85ZM166.49,-28.20L98.38,-13.01L82.64,14.12L92.69,41.86L120.82,52.50L142.25,50.05L162.72,37.36L161.56,50.99L180.61,52.49L186.60,-23.59L178.58,-59.06L144.21,-73.71L111.85,-68.44L94.62,-46.63L110.02,-35.41L121.82,-52.52L140.82,-57.20L160.22,-49.84ZM165.08,-10.16L162.73,19.70L147.30,31.21L125.38,36.10L110.32,30.92L104.47,14.92L114.83,-0.39ZM269.96,-43.97L284.89,-37.70L292.37,-54.45L272.98,-63.58L253.02,-59.07L237.92,-41.15L239.52,-61.56L221.15,-63.00L212.00,53.79L232.33,56.54L237.32,-7.19L247.01,-35.05ZM349.18,67.29L349.19,67.28L348.21,49.51L338.96,50.16L329.52,44.41L328.92,29.42L334.24,-38.39L354.42,-36.81L355.65,-52.46L335.46,-54.04L338.66,-94.87L318.25,-96.47L315.05,-55.64L298.27,-56.96L297.04,-41.31L313.82,-39.99L308.51,27.82L310.94,56.66L333.41,68.24ZM371.58,67.45L392.14,69.06L397.17,4.87L408.36,-24.31L432.24,-32.98L450.68,-22.63L454.32,1.89L448.70,73.49L469.06,75.09L474.77,3.33L469.85,-33.41L437.77,-50.24L415.61,-46.95L400.09,-32.78L404.91,-94.24L384.38,-95.85Z" fill="#ffffff" stroke="#000000"/>
    <path d="M-690.22,-222.66L-627.99,-217.24L-582.24,-222.51L-562.03,-257.84L-568.86,-283.31L-592.74,-299.22L-570.81,-311.77L-563.14,-332.81L-576.61,-366.58L-617.15,-379.02L-676.16,-384.16ZM-660.72,-312.77L-656.38,-363.09L-623.64,-360.24L-595.88,-354.51L-585.80,-332.04L-599.07,-312.81L-625.28,-309.69ZM-667.08,-239.81L-662.34,-293.77L-624.61,-290.49L-596.18,-282.69L-585.13,-259.87L-598.11,-238.37L-626.34,-236.26ZM-464.22,-281.81L-531.71,-267.37L-547.51,-240.67L-537.81,-213.15L-510.09,-202.39L-488.86,-204.63L-468.51,-217.00L-469.78,-203.53L-450.95,-201.89L-444.37,-277.08L-452.00,-312.22L-485.86,-327.00L-517.91,-322.07L-535.15,-300.65L-520.00,-289.43L-508.19,-306.24L-489.36,-310.71L-470.24,-303.26ZM-465.77,-263.97L-468.36,-234.47L-483.71,-223.21L-505.43,-218.56L-520.28,-223.82L-525.93,-239.69L-515.55,-254.75ZM-314.27,-307.43L-334.44,-309.18L-339.94,-245.99L-351.31,-216.55L-375.01,-208.18L-393.15,-218.58L-396.56,-242.92L-390.36,-314.05L-410.53,-315.81L-416.74,-244.53L-412.25,-208.09L-380.66,-191.18L-358.41,-194.67L-341.11,-209.26L-342.57,-192.45L-324.42,-190.87ZM-178.60,-178.17L-176.94,-197.22L-269.29,-205.26L-264.61,-259.06L-185.71,-252.19L-184.05,-271.24L-262.95,-278.11L-258.56,-328.55L-168.45,-320.70L-166.79,-339.75L-278.19,-349.45L-292.25,-188.07ZM-90.08,-272.85L-75.37,-266.52L-67.84,-283.03L-86.93,-292.22L-106.71,-287.93L-121.79,-270.34L-120.03,-290.51L-138.19,-292.09L-148.24,-176.67L-128.17,-173.78L-122.68,-236.76L-112.86,-264.22ZM46.16,-321.21L25.98,-322.96L21.02,-266.01L9.39,-278.67L-8.89,-284.96L-48.27,-270.71L-65.36,-226.53L-56.16,-180.06L-19.84,-159.21L0.41,-162.92L15.55,-177.29L14.17,-161.38L32.10,-159.82ZM-9.22,-267.72L12.89,-254.15L19.49,-219.14L6.08,-185.87L-17.18,-176.27L-38.74,-189.78L-44.77,-224.73L-32.79,-258.13ZM87.71,-177.31L78.64,-209.27L165.17,-201.76L166.99,-209.73L157.36,-253.59L118.43,-274.46L77.43,-261.21L58.55,-216.32L69.38,-168.85L107.48,-148.71L141.64,-155.65L159.06,-178.35L144.21,-189.52L130.25,-170.64L110.12,-165.77ZM80.72,-225.37L95.70,-250.95L116.92,-257.34L138.95,-245.63L145.95,-219.69ZM182.62,-146.71L202.80,-144.95L208.32,-208.39L219.68,-237.57L243.38,-245.94L261.52,-235.55L264.94,-211.59L258.72,-140.08L278.89,-138.32L285.12,-209.83L280.58,-246.04L249.00,-262.97L226.79,-260.06L209.47,-244.87L210.93,-261.69L192.77,-263.27ZM516.62,-168.44L518.09,-185.25L361.18,-198.91L359.72,-182.10ZM-622.61,-13.51L-560.38,-8.09L-514.64,-13.35L-494.42,-48.69L-501.26,-74.16L-525.13,-90.07L-503.21,-102.62L-495.54,-123.66L-509.00,-157.43L-549.54,-169.87L-608.55,-175.00ZM-593.11,-103.62L-588.77,-153.93L-556.04,-151.08L-528.27,-145.35L-518.19,-122.89L-531.47,-103.66L-557.67,-100.53ZM-599.47,-30.65L-594.73,-84.62L-557.00,-81.33L-528.58,-73.54L-517.52,-50.72L-530.51,-29.22L-558.73,-27.10ZM-368.82,-108.91L-389.00,-110.67L-394.50,-47.48L-405.87,-18.03L-429.56,-9.67L-447.71,-20.06L-451.11,-44.41L-444.92,-115.54L-465.09,-117.29L-471.30,-46.01L-466.80,-9.58L-435.22,7.34L-412.96,3.84L-395.67,-10.74L-397.13,6.07L-378.97,7.65ZM-323.01,-124.56L-315.02,-131.90L-314.01,-143.30L-320.73,-152.12L-331.10,-153.02L-339.04,-145.50L-340.04,-134.11L-333.37,-125.46ZM-329.99,11.91L-319.84,-104.64L-340.01,-106.40L-350.16,10.16ZM-280.68,16.21L-266.62,-145.18L-286.80,-146.94L-300.85,14.45ZM-143.34,-134.44L-163.51,-136.20L-168.47,-79.25L-180.10,-91.90L-198.38,-98.19L-237.76,-83.95L-254.85,-39.76L-245.66,6.71L-209.33,27.55L-189.09,23.84L-173.94,9.47L-175.33,25.38L-157.39,26.95ZM-198.71,-80.96L-176.60,-67.39L-170.00,-32.37L-183.41,0.89L-206.68,10.49L-228.23,-3.01L-234.26,-37.97L-222.28,-71.37ZM51.07,45.10L52.73,26.05L-39.62,18.00L-34.94,-35.79L43.96,-28.92L45.62,-47.97L-33.28,-54.84L-28.89,-105.28L61.22,-97.43L62.88,-116.48L-48.52,-126.19L-62.58,35.20ZM159.28,-24.24L91.80,-9.80L75.99,16.90L85.69,44.42L113.42,55.18L134.64,52.94L154.99,40.57L153.73,54.04L172.56,55.68L179.13,-19.51L171.50,-54.65L137.64,-69.43L105.59,-64.50L88.36,-43.09L103.50,-31.86L115.31,-48.67L134.15,-53.14L153.27,-45.69ZM157.73,-6.40L155.15,23.10L139.80,34.36L118.07,39.00L103.23,33.75L97.58,17.88L107.95,2.82ZM261.75,-38.94L276.46,-32.61L284.00,-49.12L264.90,-58.31L245.12,-54.02L230.04,-36.43L231.80,-56.60L213.64,-58.18L203.59,57.24L223.66,60.13L229.15,-2.85L238.97,-30.32ZM339.14,71.76L339.15,71.76L338.33,54.17L329.18,54.74L319.89,48.97L319.43,34.14L325.27,-32.88L345.22,-31.14L346.56,-46.61L326.61,-48.34L330.13,-88.69L309.95,-90.45L306.44,-50.10L289.85,-51.55L288.51,-36.08L305.09,-34.63L299.26,32.39L301.41,60.93L323.54,72.58ZM361.29,72.12L381.61,73.89L387.14,10.45L398.45,-18.31L422.14,-26.68L440.29,-16.29L443.68,7.99L437.50,78.76L457.63,80.51L463.89,9.59L459.34,-26.78L427.76,-43.71L405.82,-40.64L390.35,-26.76L395.64,-87.50L375.35,-89.27Z" fill="#ffffff" stroke="#000000"/>
    <path d="M-906.35,492L-906.35,469.28L-898.22,492L-894.99,492L-886.86,469.28L-886.86,492L-883.25,492L-883.25,464.64L-888.22,464.64L-896.55,487.33L-904.68,464.64L-909.96,464.64L-909.96,492ZM-865.67,478.75L-876.82,482.17L-879.09,486.89L-877.05,491.38L-872.23,492.78L-868.69,492.09L-865.45,489.71L-865.46,492L-862.27,492L-862.27,479.25L-864.06,473.45L-869.98,471.46L-875.30,472.76L-877.88,476.62L-875.17,478.28L-873.43,475.28L-870.33,474.25L-867.00,475.23ZM-865.67,481.77L-865.68,486.77L-868.09,488.89L-871.68,489.99L-874.26,489.33L-875.44,486.74L-873.91,484.05ZM-857.12,492L-853.70,492L-853.70,481.25L-852.22,476.17L-848.35,474.41L-845.15,475.90L-844.22,479.88L-844.22,492L-840.80,492L-840.80,479.88L-842.09,473.85L-847.66,471.47L-851.35,472.28L-854.04,475.09L-854.04,472.24L-857.12,472.24ZM-833.34,468.94L-832.11,467.58L-832.10,465.65L-833.36,464.27L-835.12,464.27L-836.35,465.65L-836.35,467.58L-835.10,468.94ZM-832.52,492L-832.52,472.24L-835.94,472.24L-835.94,492ZM-818.31,468.12L-817.85,465.29L-820.94,464.71L-825.30,466.41L-826.70,471.29L-826.70,472.24L-829.67,472.24L-829.67,474.86L-826.70,474.86L-826.70,492L-823.40,492L-823.40,474.86L-819.56,474.86L-819.56,472.24L-823.40,472.24L-823.40,471.21L-822.75,468.65L-820.52,467.74ZM-807.97,471.46L-814.77,474.29L-817.39,482.12L-814.77,489.95L-807.97,492.78L-801.17,489.95L-798.55,482.12L-801.16,474.29ZM-807.97,489.87L-812.08,488.06L-813.90,482.12L-812.08,476.18L-807.97,474.37L-803.85,476.18L-802.04,482.12L-803.85,488.06ZM-795.03,492L-791.61,492L-791.61,481.25L-790.13,476.17L-786.26,474.41L-783.06,475.90L-782.13,479.88L-782.13,492L-778.71,492L-778.71,479.88L-780.00,473.85L-785.56,471.47L-789.26,472.28L-791.95,475.09L-791.95,472.24L-795.03,472.24ZM-765.45,492.27L-765.45,492.26L-765.85,489.32L-767.38,489.55L-769.03,488.71L-769.32,486.22L-769.32,474.86L-765.94,474.86L-765.94,472.24L-769.32,472.24L-769.32,465.40L-772.74,465.40L-772.74,472.24L-775.55,472.24L-775.55,474.86L-772.74,474.86L-772.74,486.22L-771.96,491.00L-768.07,492.63ZM-737.50,487.93L-737.50,478.13L-749.05,478.13L-749.05,481.31L-740.99,481.31L-740.97,486.22L-748.63,489.75L-755.95,486.41L-758.55,478.32L-756.06,470.17L-749.21,466.88L-744.27,468.25L-741.30,473.01L-738.24,471.11L-741.44,465.93L-749.13,463.79L-758.98,468.04L-762.42,478.32L-758.78,488.60L-748.74,492.86ZM-724.35,474.77L-721.78,475.62L-720.76,472.73L-724.11,471.47L-727.37,472.48L-729.65,475.66L-729.65,472.24L-732.73,472.24L-732.73,491.81L-729.31,492L-729.31,481.32L-728.06,476.56ZM-710.01,471.46L-716.81,474.29L-719.42,482.12L-716.81,489.95L-710.01,492.78L-703.20,489.95L-700.58,482.12L-703.20,474.29ZM-710.01,489.87L-714.12,488.06L-715.93,482.12L-714.12,476.18L-710.01,474.37L-705.89,476.18L-704.07,482.12L-705.89,488.06ZM-688.58,492.27L-688.58,492.26L-688.97,489.32L-690.51,489.55L-692.15,488.71L-692.45,486.22L-692.45,474.86L-689.07,474.86L-689.07,472.24L-692.45,472.24L-692.45,465.40L-695.87,465.40L-695.87,472.24L-698.68,472.24L-698.68,474.86L-695.87,474.86L-695.87,486.22L-695.09,491.00L-691.19,492.63ZM-680.57,488.24L-682.57,483.00L-667.90,482.99L-667.71,481.63L-669.97,474.39L-676.83,471.45L-683.53,474.28L-686.05,482.11L-683.53,489.93L-676.83,492.76L-671.18,491.10L-668.58,487.02L-671.25,485.36L-673.32,488.74L-676.63,489.86ZM-682.45,480.26L-680.31,475.73L-676.83,474.35L-672.95,476.00L-671.40,480.26ZM-661.99,485.88L-664.90,487.24L-662.96,491.11L-657.11,492.78L-651.52,491.39L-648.97,486.66L-650.50,482.61L-653.83,480.90L-658.44,479.65L-661.00,478.62L-661.84,477.05L-660.74,475.10L-657.52,474.38L-654.42,475.23L-653.09,477.74L-650.21,476.38L-651.88,473.07L-657.39,471.46L-662.84,472.86L-665.18,477.43L-663.66,481.06L-660.23,482.69L-655.36,483.98L-653.07,485.13L-652.46,486.96L-653.99,489.26L-656.99,489.87L-660.63,488.67ZM-641.92,483.45L-638.72,483.45L-637.20,484.67L-633.14,492.30L-630.05,490.63L-634.16,483.45L-636.67,482.04L-634.62,480.06L-632.77,476.14L-631.66,475.64L-630.10,475.39L-630.56,472.24L-633.40,472.52L-635.30,474.17L-637.43,478.82L-638.72,480.60L-641.91,480.60L-641.91,464.64L-643.66,464.64L-645.32,464.64L-645.33,492L-641.92,492ZM-625.58,492.01L-615.04,492.01L-607.42,490.45L-604.53,484.21L-606.06,480.03L-610.31,477.70L-606.80,475.27L-605.82,471.62L-608.58,466.13L-615.58,464.63L-625.58,464.63ZM-621.94,476.42L-621.95,467.89L-616.40,467.89L-611.64,468.44L-609.62,472.08L-611.57,475.51L-615.93,476.42ZM-621.94,488.79L-621.94,479.64L-615.54,479.64L-610.64,480.53L-608.45,484.21L-610.32,488.02L-615.04,488.79ZM-592.40,471.46L-599.20,474.29L-601.81,482.12L-599.20,489.95L-592.40,492.78L-585.59,489.95L-582.97,482.12L-585.59,474.29ZM-592.40,489.87L-596.51,488.06L-598.32,482.12L-596.51,476.18L-592.40,474.37L-588.28,476.18L-586.46,482.12L-588.28,488.06ZM-571.27,471.46L-578.07,474.29L-580.68,482.12L-578.07,489.95L-571.27,492.78L-564.46,489.95L-561.85,482.12L-564.46,474.29ZM-571.27,489.87L-575.38,488.06L-577.19,482.12L-575.38,476.18L-571.27,474.37L-567.15,476.18L-565.33,482.12L-567.15,488.06ZM-554.82,483.45L-551.62,483.45L-550.10,484.67L-546.04,492.30L-542.96,490.63L-547.06,483.45L-549.57,482.04L-547.52,480.06L-545.67,476.14L-544.56,475.64L-543.00,475.39L-543.46,472.24L-546.31,472.52L-548.20,474.17L-550.34,478.82L-551.62,480.60L-554.82,480.60L-554.82,464.64L-556.56,464.64L-558.23,464.64L-558.23,492L-554.82,492Z"/>
</svg>